{"title":"Piano Sonata No. 26 in E-flat major, Op. 81a 'Les Adieux': III. Das Wiedersehen","artist":"Beethoven","durationMs":300601,"midiSha256":"a887df5e636b8e924946174608117b1d036f7072551f207f9dc54a6de6dbb230","midiObject":[{"NoteNumber":89,"Velocity":77,"Duration":125000,"SoundDuration":125000,"Delta":0},{"NoteNumber":86,"Velocity":77,"Duration":125000,"SoundDuration":125000,"Delta":0},{"NoteNumber":80,"Velocity":77,"Duration":125000,"SoundDuration":125000,"Delta":0},{"NoteNumber":92,"Velocity":88,"Duration":125000,"SoundDuration":125000,"Delta":0},{"NoteNumber":65,"Velocity":66,"Duration":125000,"SoundDuration":125000,"Delta":0},{"NoteNumber":68,"Velocity":75,"Duration":125000,"SoundDuration":125000,"Delta":0},{"NoteNumber":62,"Velocity":66,"Duration":125000,"SoundDuration":125000,"Delta":0},{"NoteNumber":58,"Velocity":66,"Duration":125000,"SoundDuration":125000,"Delta":0},{"NoteNumber":58,"Velocity":66,"Duration":88235,"SoundDuration":88235,"Delta":250000},{"NoteNumber":46,"Velocity":60,"Duration":88235,"SoundDuration":88235,"Delta":250000},{"NoteNumber":57,"Velocity":57,"Duration":88235,"SoundDuration":88235,"Delta":338235},{"NoteNumber":50,"Velocity":50,"Duration":88235,"SoundDuration":88235,"Delta":338235},{"NoteNumber":58,"Velocity":57,"Duration":88235,"SoundDuration":88235,"Delta":426470},{"NoteNumber":46,"Velocity":60,"Duration":88235,"SoundDuration":88235,"Delta":426470},{"NoteNumber":62,"Velocity":56,"Duration":88235,"SoundDuration":88235,"Delta":514705},{"NoteNumber":50,"Velocity":51,"Duration":88235,"SoundDuration":88235,"Delta":514705},{"NoteNumber":65,"Velocity":67,"Duration":88235,"SoundDuration":88235,"Delta":602941},{"NoteNumber":50,"Velocity":59,"Duration":88235,"SoundDuration":88235,"Delta":602941},{"NoteNumber":62,"Velocity":56,"Duration":88235,"SoundDuration":88235,"Delta":691176},{"NoteNumber":53,"Velocity":52,"Duration":88235,"SoundDuration":88235,"Delta":691176},{"NoteNumber":65,"Velocity":54,"Duration":88235,"SoundDuration":88235,"Delta":779411},{"NoteNumber":50,"Velocity":59,"Duration":88235,"SoundDuration":88235,"Delta":779411},{"NoteNumber":68,"Velocity":55,"Duration":88235,"SoundDuration":88235,"Delta":867646},{"NoteNumber":53,"Velocity":52,"Duration":88235,"SoundDuration":88235,"Delta":867646},{"NoteNumber":65,"Velocity":55,"Duration":88235,"SoundDuration":88235,"Delta":955882},{"NoteNumber":50,"Velocity":59,"Duration":88235,"SoundDuration":88235,"Delta":955882},{"NoteNumber":62,"Velocity":55,"Duration":92307,"SoundDuration":92307,"Delta":1044117},{"NoteNumber":53,"Velocity":51,"Duration":92307,"SoundDuration":92307,"Delta":1044117},{"NoteNumber":68,"Velocity":65,"Duration":87976,"SoundDuration":87976,"Delta":1136425},{"NoteNumber":53,"Velocity":59,"Duration":87976,"SoundDuration":87976,"Delta":1136425},{"NoteNumber":65,"Velocity":56,"Duration":87976,"SoundDuration":87976,"Delta":1224401},{"NoteNumber":56,"Velocity":51,"Duration":87976,"SoundDuration":87976,"Delta":1224401},{"NoteNumber":68,"Velocity":57,"Duration":87976,"SoundDuration":87976,"Delta":1312378},{"NoteNumber":53,"Velocity":59,"Duration":87976,"SoundDuration":87976,"Delta":1312378},{"NoteNumber":70,"Velocity":56,"Duration":87976,"SoundDuration":87976,"Delta":1400354},{"NoteNumber":56,"Velocity":50,"Duration":87976,"SoundDuration":87976,"Delta":1400354},{"NoteNumber":68,"Velocity":55,"Duration":87976,"SoundDuration":87976,"Delta":1488331},{"NoteNumber":53,"Velocity":58,"Duration":87976,"SoundDuration":87976,"Delta":1488331},{"NoteNumber":65,"Velocity":55,"Duration":87976,"SoundDuration":87976,"Delta":1576307},{"NoteNumber":56,"Velocity":50,"Duration":87976,"SoundDuration":87976,"Delta":1576307},{"NoteNumber":70,"Velocity":67,"Duration":87976,"SoundDuration":87976,"Delta":1664283},{"NoteNumber":58,"Velocity":58,"Duration":87976,"SoundDuration":87976,"Delta":1664283},{"NoteNumber":68,"Velocity":55,"Duration":87976,"SoundDuration":87976,"Delta":1752260},{"NoteNumber":62,"Velocity":50,"Duration":87976,"SoundDuration":87976,"Delta":1752260},{"NoteNumber":70,"Velocity":55,"Duration":87976,"SoundDuration":87976,"Delta":1840237},{"NoteNumber":58,"Velocity":58,"Duration":87976,"SoundDuration":87976,"Delta":1840237},{"NoteNumber":74,"Velocity":55,"Duration":87976,"SoundDuration":87976,"Delta":1928213},{"NoteNumber":62,"Velocity":50,"Duration":87976,"SoundDuration":87976,"Delta":1928213},{"NoteNumber":70,"Velocity":55,"Duration":87976,"SoundDuration":87976,"Delta":2016190},{"NoteNumber":58,"Velocity":58,"Duration":87976,"SoundDuration":87976,"Delta":2016190},{"NoteNumber":68,"Velocity":55,"Duration":93167,"SoundDuration":93167,"Delta":2104166},{"NoteNumber":62,"Velocity":51,"Duration":93167,"SoundDuration":93167,"Delta":2104166},{"NoteNumber":77,"Velocity":64,"Duration":88235,"SoundDuration":88235,"Delta":2197334},{"NoteNumber":62,"Velocity":57,"Duration":88235,"SoundDuration":88235,"Delta":2197334},{"NoteNumber":74,"Velocity":54,"Duration":88235,"SoundDuration":88235,"Delta":2285569},{"NoteNumber":65,"Velocity":50,"Duration":88235,"SoundDuration":88235,"Delta":2285569},{"NoteNumber":77,"Velocity":55,"Duration":88235,"SoundDuration":88235,"Delta":2373804},{"NoteNumber":62,"Velocity":57,"Duration":88235,"SoundDuration":88235,"Delta":2373804},{"NoteNumber":80,"Velocity":55,"Duration":88235,"SoundDuration":88235,"Delta":2462040},{"NoteNumber":65,"Velocity":49,"Duration":88235,"SoundDuration":88235,"Delta":2462040},{"NoteNumber":77,"Velocity":54,"Duration":88235,"SoundDuration":88235,"Delta":2550275},{"NoteNumber":62,"Velocity":57,"Duration":88235,"SoundDuration":88235,"Delta":2550275},{"NoteNumber":74,"Velocity":54,"Duration":88235,"SoundDuration":88235,"Delta":2638510},{"NoteNumber":65,"Velocity":48,"Duration":88235,"SoundDuration":88235,"Delta":2638510},{"NoteNumber":80,"Velocity":65,"Duration":88235,"SoundDuration":88235,"Delta":2726745},{"NoteNumber":65,"Velocity":57,"Duration":88235,"SoundDuration":88235,"Delta":2726745},{"NoteNumber":77,"Velocity":54,"Duration":88235,"SoundDuration":88235,"Delta":2814981},{"NoteNumber":68,"Velocity":48,"Duration":88235,"SoundDuration":88235,"Delta":2814981},{"NoteNumber":80,"Velocity":54,"Duration":88235,"SoundDuration":88235,"Delta":2903216},{"NoteNumber":65,"Velocity":57,"Duration":88235,"SoundDuration":88235,"Delta":2903216},{"NoteNumber":82,"Velocity":54,"Duration":88235,"SoundDuration":88235,"Delta":2991451},{"NoteNumber":68,"Velocity":49,"Duration":88235,"SoundDuration":88235,"Delta":2991451},{"NoteNumber":80,"Velocity":53,"Duration":88235,"SoundDuration":88235,"Delta":3079686},{"NoteNumber":65,"Velocity":56,"Duration":88235,"SoundDuration":88235,"Delta":3079686},{"NoteNumber":77,"Velocity":53,"Duration":94936,"SoundDuration":94936,"Delta":3167922},{"NoteNumber":68,"Velocity":50,"Duration":94936,"SoundDuration":94936,"Delta":3167922},{"NoteNumber":82,"Velocity":62,"Duration":87976,"SoundDuration":87976,"Delta":3262858},{"NoteNumber":74,"Velocity":56,"Duration":87976,"SoundDuration":87976,"Delta":3262858},{"NoteNumber":80,"Velocity":53,"Duration":87976,"SoundDuration":87976,"Delta":3350835},{"NoteNumber":77,"Velocity":49,"Duration":87976,"SoundDuration":87976,"Delta":3350835},{"NoteNumber":82,"Velocity":54,"Duration":87976,"SoundDuration":87976,"Delta":3438811},{"NoteNumber":74,"Velocity":56,"Duration":87976,"SoundDuration":87976,"Delta":3438811},{"NoteNumber":86,"Velocity":54,"Duration":87976,"SoundDuration":87976,"Delta":3526788},{"NoteNumber":77,"Velocity":47,"Duration":87976,"SoundDuration":87976,"Delta":3526788},{"NoteNumber":82,"Velocity":53,"Duration":87976,"SoundDuration":87976,"Delta":3614764},{"NoteNumber":74,"Velocity":56,"Duration":87976,"SoundDuration":87976,"Delta":3614764},{"NoteNumber":80,"Velocity":53,"Duration":87976,"SoundDuration":87976,"Delta":3702741},{"NoteNumber":77,"Velocity":47,"Duration":87976,"SoundDuration":87976,"Delta":3702741},{"NoteNumber":86,"Velocity":64,"Duration":87976,"SoundDuration":87976,"Delta":3790717},{"NoteNumber":77,"Velocity":56,"Duration":87976,"SoundDuration":87976,"Delta":3790717},{"NoteNumber":82,"Velocity":53,"Duration":87976,"SoundDuration":87976,"Delta":3878694},{"NoteNumber":80,"Velocity":47,"Duration":87976,"SoundDuration":87976,"Delta":3878694},{"NoteNumber":86,"Velocity":52,"Duration":87976,"SoundDuration":87976,"Delta":3966670},{"NoteNumber":77,"Velocity":55,"Duration":87976,"SoundDuration":87976,"Delta":3966670},{"NoteNumber":89,"Velocity":52,"Duration":87976,"SoundDuration":87976,"Delta":4054647},{"NoteNumber":80,"Velocity":48,"Duration":87976,"SoundDuration":87976,"Delta":4054647},{"NoteNumber":86,"Velocity":52,"Duration":87976,"SoundDuration":87976,"Delta":4142623},{"NoteNumber":77,"Velocity":55,"Duration":87976,"SoundDuration":87976,"Delta":4142623},{"NoteNumber":82,"Velocity":52,"Duration":96462,"SoundDuration":96462,"Delta":4230600},{"NoteNumber":80,"Velocity":49,"Duration":96462,"SoundDuration":96462,"Delta":4230600},{"NoteNumber":89,"Velocity":57,"Duration":87976,"SoundDuration":87976,"Delta":4327063},{"NoteNumber":86,"Velocity":49,"Duration":87976,"SoundDuration":87976,"Delta":4415039},{"NoteNumber":89,"Velocity":50,"Duration":87976,"SoundDuration":87976,"Delta":4503016},{"NoteNumber":92,"Velocity":49,"Duration":87976,"SoundDuration":87976,"Delta":4590992},{"NoteNumber":89,"Velocity":48,"Duration":87976,"SoundDuration":87976,"Delta":4678969},{"NoteNumber":77,"Velocity":33,"Duration":527859,"SoundDuration":527859,"Delta":4678969},{"NoteNumber":80,"Velocity":33,"Duration":175953,"SoundDuration":175953,"Delta":4678969},{"NoteNumber":86,"Velocity":48,"Duration":87976,"SoundDuration":87976,"Delta":4766945},{"NoteNumber":82,"Velocity":58,"Duration":87976,"SoundDuration":87976,"Delta":4854922},{"NoteNumber":74,"Velocity":38,"Duration":351905,"SoundDuration":351905,"Delta":4854922},{"NoteNumber":81,"Velocity":48,"Duration":87976,"SoundDuration":87976,"Delta":4942898},{"NoteNumber":82,"Velocity":47,"Duration":87976,"SoundDuration":87976,"Delta":5030875},{"NoteNumber":86,"Velocity":47,"Duration":87976,"SoundDuration":87976,"Delta":5118851},{"NoteNumber":89,"Velocity":47,"Duration":87976,"SoundDuration":87976,"Delta":5206828},{"NoteNumber":86,"Velocity":47,"Duration":96153,"SoundDuration":96153,"Delta":5294804},{"NoteNumber":89,"Velocity":54,"Duration":87719,"SoundDuration":87719,"Delta":5390958},{"NoteNumber":86,"Velocity":46,"Duration":87719,"SoundDuration":87719,"Delta":5478677},{"NoteNumber":89,"Velocity":47,"Duration":87719,"SoundDuration":87719,"Delta":5566397},{"NoteNumber":92,"Velocity":47,"Duration":87719,"SoundDuration":87719,"Delta":5654116},{"NoteNumber":89,"Velocity":46,"Duration":87719,"SoundDuration":87719,"Delta":5741835},{"NoteNumber":80,"Velocity":32,"Duration":175438,"SoundDuration":175438,"Delta":5741835},{"NoteNumber":77,"Velocity":32,"Duration":526315,"SoundDuration":526315,"Delta":5741835},{"NoteNumber":86,"Velocity":45,"Duration":87719,"SoundDuration":87719,"Delta":5829554},{"NoteNumber":82,"Velocity":55,"Duration":87719,"SoundDuration":87719,"Delta":5917274},{"NoteNumber":74,"Velocity":36,"Duration":350876,"SoundDuration":350876,"Delta":5917274},{"NoteNumber":81,"Velocity":45,"Duration":87719,"SoundDuration":87719,"Delta":6004993},{"NoteNumber":82,"Velocity":45,"Duration":87719,"SoundDuration":87719,"Delta":6092712},{"NoteNumber":86,"Velocity":45,"Duration":87719,"SoundDuration":87719,"Delta":6180431},{"NoteNumber":89,"Velocity":44,"Duration":87719,"SoundDuration":87719,"Delta":6268151},{"NoteNumber":86,"Velocity":44,"Duration":96462,"SoundDuration":96462,"Delta":6355870},{"NoteNumber":77,"Velocity":51,"Duration":87976,"SoundDuration":87976,"Delta":6452333},{"NoteNumber":74,"Velocity":44,"Duration":87976,"SoundDuration":87976,"Delta":6540309},{"NoteNumber":77,"Velocity":45,"Duration":87976,"SoundDuration":87976,"Delta":6628286},{"NoteNumber":80,"Velocity":44,"Duration":87976,"SoundDuration":87976,"Delta":6716262},{"NoteNumber":77,"Velocity":43,"Duration":87976,"SoundDuration":87976,"Delta":6804239},{"NoteNumber":68,"Velocity":30,"Duration":175953,"SoundDuration":175953,"Delta":6804239},{"NoteNumber":65,"Velocity":30,"Duration":527859,"SoundDuration":527859,"Delta":6804239},{"NoteNumber":74,"Velocity":43,"Duration":87976,"SoundDuration":87976,"Delta":6892215},{"NoteNumber":70,"Velocity":52,"Duration":87976,"SoundDuration":87976,"Delta":6980192},{"NoteNumber":62,"Velocity":34,"Duration":351905,"SoundDuration":351905,"Delta":6980192},{"NoteNumber":69,"Velocity":43,"Duration":87976,"SoundDuration":87976,"Delta":7068168},{"NoteNumber":70,"Velocity":42,"Duration":87976,"SoundDuration":87976,"Delta":7156145},{"NoteNumber":74,"Velocity":42,"Duration":87976,"SoundDuration":87976,"Delta":7244121},{"NoteNumber":77,"Velocity":42,"Duration":87976,"SoundDuration":87976,"Delta":7332098},{"NoteNumber":74,"Velocity":42,"Duration":95846,"SoundDuration":95846,"Delta":7420074},{"NoteNumber":77,"Velocity":48,"Duration":87719,"SoundDuration":87719,"Delta":7515921},{"NoteNumber":74,"Velocity":41,"Duration":87719,"SoundDuration":87719,"Delta":7603640},{"NoteNumber":77,"Velocity":42,"Duration":87719,"SoundDuration":87719,"Delta":7691359},{"NoteNumber":80,"Velocity":41,"Duration":87719,"SoundDuration":87719,"Delta":7779079},{"NoteNumber":77,"Velocity":41,"Duration":87719,"SoundDuration":87719,"Delta":7866798},{"NoteNumber":65,"Velocity":28,"Duration":526315,"SoundDuration":526315,"Delta":7866798},{"NoteNumber":68,"Velocity":28,"Duration":175438,"SoundDuration":175438,"Delta":7866798},{"NoteNumber":74,"Velocity":40,"Duration":87719,"SoundDuration":87719,"Delta":7954517},{"NoteNumber":70,"Velocity":49,"Duration":87719,"SoundDuration":87719,"Delta":8042237},{"NoteNumber":62,"Velocity":31,"Duration":350876,"SoundDuration":350876,"Delta":8042237},{"NoteNumber":69,"Velocity":40,"Duration":87719,"SoundDuration":87719,"Delta":8129956},{"NoteNumber":70,"Velocity":40,"Duration":87719,"SoundDuration":87719,"Delta":8217675},{"NoteNumber":74,"Velocity":40,"Duration":87719,"SoundDuration":87719,"Delta":8305394},{"NoteNumber":77,"Velocity":39,"Duration":87719,"SoundDuration":87719,"Delta":8393113},{"NoteNumber":74,"Velocity":39,"Duration":116514,"SoundDuration":116514,"Delta":8480833},{"NoteNumber":80,"Velocity":88,"Duration":125000,"SoundDuration":125000,"Delta":8597347},{"NoteNumber":74,"Velocity":77,"Duration":125000,"SoundDuration":125000,"Delta":8597347},{"NoteNumber":77,"Velocity":77,"Duration":125000,"SoundDuration":125000,"Delta":8597347},{"NoteNumber":68,"Velocity":77,"Duration":125000,"SoundDuration":125000,"Delta":8597347},{"NoteNumber":58,"Velocity":75,"Duration":125000,"SoundDuration":125000,"Delta":8597347},{"NoteNumber":50,"Velocity":66,"Duration":125000,"SoundDuration":125000,"Delta":8597347},{"NoteNumber":46,"Velocity":66,"Duration":125000,"SoundDuration":125000,"Delta":8597347},{"NoteNumber":53,"Velocity":66,"Duration":125000,"SoundDuration":125000,"Delta":8597347},{"NoteNumber":58,"Velocity":66,"Duration":88235,"SoundDuration":88235,"Delta":8847347},{"NoteNumber":46,"Velocity":60,"Duration":88235,"SoundDuration":88235,"Delta":8847347},{"NoteNumber":57,"Velocity":57,"Duration":88235,"SoundDuration":88235,"Delta":8935582},{"NoteNumber":58,"Velocity":56,"Duration":88235,"SoundDuration":88235,"Delta":9023817},{"NoteNumber":46,"Velocity":59,"Duration":88235,"SoundDuration":88235,"Delta":9023817},{"NoteNumber":57,"Velocity":54,"Duration":88235,"SoundDuration":88235,"Delta":9112053},{"NoteNumber":60,"Velocity":64,"Duration":88235,"SoundDuration":88235,"Delta":9200288},{"NoteNumber":50,"Velocity":57,"Duration":88235,"SoundDuration":88235,"Delta":9200288},{"NoteNumber":58,"Velocity":53,"Duration":88235,"SoundDuration":88235,"Delta":9288523},{"NoteNumber":63,"Velocity":51,"Duration":88235,"SoundDuration":88235,"Delta":9376758},{"NoteNumber":53,"Velocity":56,"Duration":88235,"SoundDuration":88235,"Delta":9376758},{"NoteNumber":62,"Velocity":51,"Duration":88235,"SoundDuration":88235,"Delta":9464994},{"NoteNumber":67,"Velocity":51,"Duration":88235,"SoundDuration":88235,"Delta":9553229},{"NoteNumber":58,"Velocity":54,"Duration":88235,"SoundDuration":88235,"Delta":9553229},{"NoteNumber":65,"Velocity":50,"Duration":90634,"SoundDuration":90634,"Delta":9641464},{"NoteNumber":70,"Velocity":60,"Duration":88495,"SoundDuration":88495,"Delta":9732099},{"NoteNumber":62,"Velocity":54,"Duration":88495,"SoundDuration":88495,"Delta":9732099},{"NoteNumber":69,"Velocity":51,"Duration":88495,"SoundDuration":88495,"Delta":9820594},{"NoteNumber":72,"Velocity":59,"Duration":88235,"SoundDuration":88235,"Delta":9909089},{"NoteNumber":65,"Velocity":54,"Duration":88235,"SoundDuration":88235,"Delta":9909089},{"NoteNumber":70,"Velocity":50,"Duration":88235,"SoundDuration":88235,"Delta":9997325},{"NoteNumber":75,"Velocity":50,"Duration":88235,"SoundDuration":88235,"Delta":10085560},{"NoteNumber":68,"Velocity":52,"Duration":88235,"SoundDuration":88235,"Delta":10085560},{"NoteNumber":70,"Velocity":52,"Duration":88235,"SoundDuration":88235,"Delta":10085560},{"NoteNumber":74,"Velocity":48,"Duration":88235,"SoundDuration":88235,"Delta":10173795},{"NoteNumber":79,"Velocity":57,"Duration":88235,"SoundDuration":88235,"Delta":10262030},{"NoteNumber":70,"Velocity":50,"Duration":88235,"SoundDuration":88235,"Delta":10262030},{"NoteNumber":68,"Velocity":50,"Duration":88235,"SoundDuration":88235,"Delta":10262030},{"NoteNumber":77,"Velocity":47,"Duration":88235,"SoundDuration":88235,"Delta":10350266},{"NoteNumber":82,"Velocity":45,"Duration":88235,"SoundDuration":88235,"Delta":10438501},{"NoteNumber":68,"Velocity":49,"Duration":88235,"SoundDuration":88235,"Delta":10438501},{"NoteNumber":70,"Velocity":49,"Duration":88235,"SoundDuration":88235,"Delta":10438501},{"NoteNumber":81,"Velocity":45,"Duration":88235,"SoundDuration":88235,"Delta":10526736},{"NoteNumber":84,"Velocity":45,"Duration":88235,"SoundDuration":88235,"Delta":10614972},{"NoteNumber":70,"Velocity":48,"Duration":88235,"SoundDuration":88235,"Delta":10614972},{"NoteNumber":68,"Velocity":48,"Duration":88235,"SoundDuration":88235,"Delta":10614972},{"NoteNumber":82,"Velocity":44,"Duration":98360,"SoundDuration":98360,"Delta":10703207},{"NoteNumber":82,"Velocity":45,"Duration":183486,"SoundDuration":183486,"Delta":10801567},{"NoteNumber":63,"Velocity":34,"Duration":366972,"SoundDuration":366972,"Delta":10801567},{"NoteNumber":67,"Velocity":34,"Duration":366972,"SoundDuration":366972,"Delta":10801567},{"NoteNumber":70,"Velocity":40,"Duration":366972,"SoundDuration":366972,"Delta":10801567},{"NoteNumber":79,"Velocity":45,"Duration":183486,"SoundDuration":183486,"Delta":10985053},{"NoteNumber":75,"Velocity":39,"Duration":183486,"SoundDuration":183486,"Delta":11168539},{"NoteNumber":74,"Velocity":45,"Duration":183485,"SoundDuration":183485,"Delta":11352025},{"NoteNumber":65,"Velocity":28,"Duration":366971,"SoundDuration":366971,"Delta":11352025},{"NoteNumber":68,"Velocity":28,"Duration":366971,"SoundDuration":366971,"Delta":11352025},{"NoteNumber":58,"Velocity":28,"Duration":366971,"SoundDuration":366971,"Delta":11352025},{"NoteNumber":70,"Velocity":34,"Duration":366971,"SoundDuration":366971,"Delta":11352025},{"NoteNumber":77,"Velocity":40,"Duration":183486,"SoundDuration":183486,"Delta":11535511},{"NoteNumber":82,"Velocity":40,"Duration":144230,"SoundDuration":144230,"Delta":11718997},{"NoteNumber":82,"Velocity":45,"Duration":184615,"SoundDuration":184615,"Delta":11911305},{"NoteNumber":63,"Velocity":34,"Duration":369230,"SoundDuration":369230,"Delta":11911305},{"NoteNumber":70,"Velocity":40,"Duration":369230,"SoundDuration":369230,"Delta":11911305},{"NoteNumber":67,"Velocity":34,"Duration":369230,"SoundDuration":369230,"Delta":11911305},{"NoteNumber":79,"Velocity":41,"Duration":184615,"SoundDuration":184615,"Delta":12095920},{"NoteNumber":75,"Velocity":41,"Duration":138461,"SoundDuration":138461,"Delta":12280536},{"NoteNumber":75,"Velocity":45,"Duration":184615,"SoundDuration":184615,"Delta":12465151},{"NoteNumber":79,"Velocity":39,"Duration":184615,"SoundDuration":184615,"Delta":12649767},{"NoteNumber":84,"Velocity":51,"Duration":148514,"SoundDuration":148514,"Delta":12834382},{"NoteNumber":64,"Velocity":28,"Duration":148514,"SoundDuration":148514,"Delta":12834382},{"NoteNumber":67,"Velocity":28,"Duration":148514,"SoundDuration":148514,"Delta":12834382},{"NoteNumber":70,"Velocity":28,"Duration":148514,"SoundDuration":148514,"Delta":12834382},{"NoteNumber":72,"Velocity":34,"Duration":148514,"SoundDuration":148514,"Delta":12834382},{"NoteNumber":84,"Velocity":57,"Duration":183486,"SoundDuration":183486,"Delta":13032402},{"NoteNumber":68,"Velocity":34,"Duration":366972,"SoundDuration":366972,"Delta":13032402},{"NoteNumber":65,"Velocity":34,"Duration":366972,"SoundDuration":366972,"Delta":13032402},{"NoteNumber":72,"Velocity":40,"Duration":366972,"SoundDuration":366972,"Delta":13032402},{"NoteNumber":80,"Velocity":45,"Duration":183486,"SoundDuration":183486,"Delta":13215888},{"NoteNumber":77,"Velocity":45,"Duration":183486,"SoundDuration":183486,"Delta":13399374},{"NoteNumber":76,"Velocity":49,"Duration":183485,"SoundDuration":183485,"Delta":13582860},{"NoteNumber":72,"Velocity":34,"Duration":366971,"SoundDuration":366971,"Delta":13582860},{"NoteNumber":70,"Velocity":28,"Duration":366971,"SoundDuration":366971,"Delta":13582860},{"NoteNumber":60,"Velocity":28,"Duration":366971,"SoundDuration":366971,"Delta":13582860},{"NoteNumber":67,"Velocity":28,"Duration":366971,"SoundDuration":366971,"Delta":13582860},{"NoteNumber":79,"Velocity":44,"Duration":183486,"SoundDuration":183486,"Delta":13766346},{"NoteNumber":84,"Velocity":51,"Duration":142856,"SoundDuration":142856,"Delta":13949832},{"NoteNumber":84,"Velocity":60,"Duration":183486,"SoundDuration":183486,"Delta":14140308},{"NoteNumber":65,"Velocity":34,"Duration":366972,"SoundDuration":366972,"Delta":14140308},{"NoteNumber":68,"Velocity":34,"Duration":366972,"SoundDuration":366972,"Delta":14140308},{"NoteNumber":72,"Velocity":40,"Duration":366972,"SoundDuration":366972,"Delta":14140308},{"NoteNumber":80,"Velocity":45,"Duration":183486,"SoundDuration":183486,"Delta":14323794},{"NoteNumber":77,"Velocity":45,"Duration":183486,"SoundDuration":183486,"Delta":14507280},{"NoteNumber":74,"Velocity":51,"Duration":183485,"SoundDuration":183485,"Delta":14690766},{"NoteNumber":77,"Velocity":45,"Duration":183486,"SoundDuration":183486,"Delta":14874252},{"NoteNumber":82,"Velocity":45,"Duration":144230,"SoundDuration":144230,"Delta":15057738},{"NoteNumber":65,"Velocity":31,"Duration":144230,"SoundDuration":144230,"Delta":15057738},{"NoteNumber":62,"Velocity":31,"Duration":144230,"SoundDuration":144230,"Delta":15057738},{"NoteNumber":68,"Velocity":31,"Duration":144230,"SoundDuration":144230,"Delta":15057738},{"NoteNumber":70,"Velocity":37,"Duration":144230,"SoundDuration":144230,"Delta":15057738},{"NoteNumber":82,"Velocity":50,"Duration":184048,"SoundDuration":184048,"Delta":15250046},{"NoteNumber":67,"Velocity":33,"Duration":368097,"SoundDuration":368097,"Delta":15250046},{"NoteNumber":70,"Velocity":39,"Duration":368097,"SoundDuration":368097,"Delta":15250046},{"NoteNumber":63,"Velocity":33,"Duration":368097,"SoundDuration":368097,"Delta":15250046},{"NoteNumber":79,"Velocity":43,"Duration":184048,"SoundDuration":184048,"Delta":15434095},{"NoteNumber":75,"Velocity":43,"Duration":184048,"SoundDuration":184048,"Delta":15618144},{"NoteNumber":72,"Velocity":45,"Duration":184048,"SoundDuration":184048,"Delta":15802193},{"NoteNumber":56,"Velocity":29,"Duration":368098,"SoundDuration":368098,"Delta":15802193},{"NoteNumber":60,"Velocity":29,"Duration":368098,"SoundDuration":368098,"Delta":15802193},{"NoteNumber":65,"Velocity":35,"Duration":368098,"SoundDuration":368098,"Delta":15802193},{"NoteNumber":77,"Velocity":41,"Duration":184049,"SoundDuration":184049,"Delta":15986242},{"NoteNumber":80,"Velocity":41,"Duration":143770,"SoundDuration":143770,"Delta":16170291},{"NoteNumber":70,"Velocity":47,"Duration":184049,"SoundDuration":184049,"Delta":16361984},{"NoteNumber":63,"Velocity":35,"Duration":368097,"SoundDuration":368097,"Delta":16361984},{"NoteNumber":58,"Velocity":35,"Duration":368097,"SoundDuration":368097,"Delta":16361984},{"NoteNumber":67,"Velocity":42,"Duration":368097,"SoundDuration":368097,"Delta":16361984},{"NoteNumber":75,"Velocity":43,"Duration":184048,"SoundDuration":184048,"Delta":16546033},{"NoteNumber":79,"Velocity":43,"Duration":141955,"SoundDuration":141955,"Delta":16730082},{"NoteNumber":68,"Velocity":48,"Duration":185758,"SoundDuration":185758,"Delta":16919357},{"NoteNumber":58,"Velocity":33,"Duration":371517,"SoundDuration":371517,"Delta":16919357},{"NoteNumber":65,"Velocity":39,"Duration":371517,"SoundDuration":371517,"Delta":16919357},{"NoteNumber":62,"Velocity":33,"Duration":371517,"SoundDuration":371517,"Delta":16919357},{"NoteNumber":74,"Velocity":43,"Duration":185758,"SoundDuration":185758,"Delta":17105115},{"NoteNumber":77,"Velocity":43,"Duration":155709,"SoundDuration":155709,"Delta":17290874},{"NoteNumber":68,"Velocity":43,"Duration":155709,"SoundDuration":155709,"Delta":17290874},{"NoteNumber":58,"Velocity":39,"Duration":155709,"SoundDuration":155709,"Delta":17290874},{"NoteNumber":75,"Velocity":49,"Duration":183485,"SoundDuration":183485,"Delta":17498486},{"NoteNumber":67,"Velocity":49,"Duration":183485,"SoundDuration":183485,"Delta":17498486},{"NoteNumber":58,"Velocity":49,"Duration":183485,"SoundDuration":183485,"Delta":17498486},{"NoteNumber":55,"Velocity":49,"Duration":183486,"SoundDuration":183486,"Delta":17681972},{"NoteNumber":79,"Velocity":49,"Duration":183485,"SoundDuration":183485,"Delta":17865458},{"NoteNumber":51,"Velocity":42,"Duration":183485,"SoundDuration":183485,"Delta":17865458},{"NoteNumber":80,"Velocity":49,"Duration":90634,"SoundDuration":90634,"Delta":18048944},{"NoteNumber":50,"Velocity":49,"Duration":181269,"SoundDuration":181269,"Delta":18048944},{"NoteNumber":79,"Velocity":45,"Duration":90634,"SoundDuration":90634,"Delta":18139579},{"NoteNumber":80,"Velocity":49,"Duration":90634,"SoundDuration":90634,"Delta":18230213},{"NoteNumber":53,"Velocity":45,"Duration":181269,"SoundDuration":181269,"Delta":18230213},{"NoteNumber":77,"Velocity":44,"Duration":90634,"SoundDuration":90634,"Delta":18320848},{"NoteNumber":82,"Velocity":49,"Duration":92024,"SoundDuration":92024,"Delta":18411482},{"NoteNumber":58,"Velocity":45,"Duration":140411,"SoundDuration":140411,"Delta":18411482},{"NoteNumber":80,"Velocity":44,"Duration":96774,"SoundDuration":96774,"Delta":18503507},{"NoteNumber":79,"Velocity":67,"Duration":184615,"SoundDuration":184615,"Delta":18600281},{"NoteNumber":58,"Velocity":51,"Duration":184615,"SoundDuration":184615,"Delta":18600281},{"NoteNumber":94,"Velocity":62,"Duration":184615,"SoundDuration":184615,"Delta":18784897},{"NoteNumber":55,"Velocity":47,"Duration":184615,"SoundDuration":184615,"Delta":18784897},{"NoteNumber":51,"Velocity":47,"Duration":138461,"SoundDuration":138461,"Delta":18969512},{"NoteNumber":51,"Velocity":52,"Duration":184615,"SoundDuration":184615,"Delta":19154128},{"NoteNumber":55,"Velocity":46,"Duration":184615,"SoundDuration":184615,"Delta":19338743},{"NoteNumber":67,"Velocity":49,"Duration":148514,"SoundDuration":148514,"Delta":19523359},{"NoteNumber":52,"Velocity":49,"Duration":148514,"SoundDuration":148514,"Delta":19523359},{"NoteNumber":60,"Velocity":60,"Duration":148514,"SoundDuration":148514,"Delta":19523359},{"NoteNumber":60,"Velocity":66,"Duration":183485,"SoundDuration":183485,"Delta":19721379},{"NoteNumber":53,"Velocity":53,"Duration":183485,"SoundDuration":183485,"Delta":19721379},{"NoteNumber":56,"Velocity":53,"Duration":183486,"SoundDuration":183486,"Delta":19904865},{"NoteNumber":68,"Velocity":49,"Duration":183485,"SoundDuration":183485,"Delta":20088351},{"NoteNumber":53,"Velocity":53,"Duration":183485,"SoundDuration":183485,"Delta":20088351},{"NoteNumber":70,"Velocity":51,"Duration":90908,"SoundDuration":90908,"Delta":20271837},{"NoteNumber":52,"Velocity":59,"Duration":181817,"SoundDuration":181817,"Delta":20271837},{"NoteNumber":68,"Velocity":41,"Duration":90908,"SoundDuration":90908,"Delta":20362746},{"NoteNumber":70,"Velocity":49,"Duration":90908,"SoundDuration":90908,"Delta":20453655},{"NoteNumber":55,"Velocity":53,"Duration":181817,"SoundDuration":181817,"Delta":20453655},{"NoteNumber":67,"Velocity":42,"Duration":90908,"SoundDuration":90908,"Delta":20544564},{"NoteNumber":72,"Velocity":49,"Duration":91463,"SoundDuration":91463,"Delta":20635473},{"NoteNumber":60,"Velocity":58,"Duration":140805,"SoundDuration":140805,"Delta":20635473},{"NoteNumber":70,"Velocity":47,"Duration":98684,"SoundDuration":98684,"Delta":20726936},{"NoteNumber":68,"Velocity":69,"Duration":183485,"SoundDuration":183485,"Delta":20825621},{"NoteNumber":60,"Velocity":70,"Duration":183485,"SoundDuration":183485,"Delta":20825621},{"NoteNumber":84,"Velocity":61,"Duration":183486,"SoundDuration":183486,"Delta":21009106},{"NoteNumber":56,"Velocity":56,"Duration":183486,"SoundDuration":183486,"Delta":21009106},{"NoteNumber":53,"Velocity":57,"Duration":183485,"SoundDuration":183485,"Delta":21192593},{"NoteNumber":50,"Velocity":64,"Duration":183486,"SoundDuration":183486,"Delta":21376078},{"NoteNumber":53,"Velocity":58,"Duration":183485,"SoundDuration":183485,"Delta":21559565},{"NoteNumber":77,"Velocity":55,"Duration":144230,"SoundDuration":144230,"Delta":21743050},{"NoteNumber":50,"Velocity":53,"Duration":144230,"SoundDuration":144230,"Delta":21743050},{"NoteNumber":58,"Velocity":63,"Duration":144230,"SoundDuration":144230,"Delta":21743050},{"NoteNumber":58,"Velocity":72,"Duration":184049,"SoundDuration":184049,"Delta":21935358},{"NoteNumber":51,"Velocity":61,"Duration":184049,"SoundDuration":184049,"Delta":21935358},{"NoteNumber":55,"Velocity":56,"Duration":184048,"SoundDuration":184048,"Delta":22119407},{"NoteNumber":79,"Velocity":53,"Duration":184049,"SoundDuration":184049,"Delta":22303456},{"NoteNumber":51,"Velocity":57,"Duration":184049,"SoundDuration":184049,"Delta":22303456},{"NoteNumber":80,"Velocity":53,"Duration":90634,"SoundDuration":90634,"Delta":22487505},{"NoteNumber":44,"Velocity":50,"Duration":181269,"SoundDuration":181269,"Delta":22487505},{"NoteNumber":48,"Velocity":59,"Duration":181269,"SoundDuration":181269,"Delta":22487505},{"NoteNumber":79,"Velocity":49,"Duration":90634,"SoundDuration":90634,"Delta":22578139},{"NoteNumber":80,"Velocity":55,"Duration":90634,"SoundDuration":90634,"Delta":22668774},{"NoteNumber":53,"Velocity":55,"Duration":181269,"SoundDuration":181269,"Delta":22668774},{"NoteNumber":77,"Velocity":49,"Duration":90634,"SoundDuration":90634,"Delta":22759408},{"NoteNumber":92,"Velocity":74,"Duration":143770,"SoundDuration":143770,"Delta":22850043},{"NoteNumber":56,"Velocity":55,"Duration":143770,"SoundDuration":143770,"Delta":22850043},{"NoteNumber":46,"Velocity":61,"Duration":184049,"SoundDuration":184049,"Delta":23041736},{"NoteNumber":51,"Velocity":56,"Duration":184048,"SoundDuration":184048,"Delta":23225786},{"NoteNumber":75,"Velocity":49,"Duration":141955,"SoundDuration":141955,"Delta":23409834},{"NoteNumber":55,"Velocity":56,"Duration":141955,"SoundDuration":141955,"Delta":23409834},{"NoteNumber":77,"Velocity":57,"Duration":91185,"SoundDuration":91185,"Delta":23599109},{"NoteNumber":46,"Velocity":62,"Duration":182370,"SoundDuration":182370,"Delta":23599109},{"NoteNumber":75,"Velocity":49,"Duration":91185,"SoundDuration":91185,"Delta":23690295},{"NoteNumber":77,"Velocity":56,"Duration":91185,"SoundDuration":91185,"Delta":23781480},{"NoteNumber":50,"Velocity":56,"Duration":182370,"SoundDuration":182370,"Delta":23781480},{"NoteNumber":74,"Velocity":49,"Duration":91185,"SoundDuration":91185,"Delta":23872666},{"NoteNumber":89,"Velocity":72,"Duration":147541,"SoundDuration":147541,"Delta":23963851},{"NoteNumber":58,"Velocity":56,"Duration":147541,"SoundDuration":147541,"Delta":23963851},{"NoteNumber":46,"Velocity":56,"Duration":147541,"SoundDuration":147541,"Delta":23963851},{"NoteNumber":67,"Velocity":81,"Duration":91743,"SoundDuration":91743,"Delta":24160572},{"NoteNumber":46,"Velocity":63,"Duration":183485,"SoundDuration":183485,"Delta":24160572},{"NoteNumber":79,"Velocity":60,"Duration":91742,"SoundDuration":91742,"Delta":24252315},{"NoteNumber":67,"Velocity":69,"Duration":91743,"SoundDuration":91743,"Delta":24344058},{"NoteNumber":43,"Velocity":63,"Duration":183486,"SoundDuration":183486,"Delta":24344058},{"NoteNumber":79,"Velocity":59,"Duration":91743,"SoundDuration":91743,"Delta":24435801},{"NoteNumber":70,"Velocity":67,"Duration":91743,"SoundDuration":91743,"Delta":24527544},{"NoteNumber":39,"Velocity":55,"Duration":183485,"SoundDuration":183485,"Delta":24527544},{"NoteNumber":82,"Velocity":59,"Duration":91742,"SoundDuration":91742,"Delta":24619287},{"NoteNumber":70,"Velocity":77,"Duration":90634,"SoundDuration":90634,"Delta":24711030},{"NoteNumber":38,"Velocity":63,"Duration":181269,"SoundDuration":181269,"Delta":24711030},{"NoteNumber":82,"Velocity":57,"Duration":90634,"SoundDuration":90634,"Delta":24801665},{"NoteNumber":70,"Velocity":63,"Duration":90634,"SoundDuration":90634,"Delta":24892299},{"NoteNumber":41,"Velocity":57,"Duration":181269,"SoundDuration":181269,"Delta":24892299},{"NoteNumber":82,"Velocity":56,"Duration":90634,"SoundDuration":90634,"Delta":24982934},{"NoteNumber":68,"Velocity":63,"Duration":92024,"SoundDuration":92024,"Delta":25073568},{"NoteNumber":46,"Velocity":57,"Duration":140411,"SoundDuration":140411,"Delta":25073568},{"NoteNumber":80,"Velocity":56,"Duration":96774,"SoundDuration":96774,"Delta":25165593},{"NoteNumber":67,"Velocity":73,"Duration":92307,"SoundDuration":92307,"Delta":25262367},{"NoteNumber":46,"Velocity":63,"Duration":184615,"SoundDuration":184615,"Delta":25262367},{"NoteNumber":79,"Velocity":60,"Duration":92307,"SoundDuration":92307,"Delta":25354675},{"NoteNumber":67,"Velocity":66,"Duration":92307,"SoundDuration":92307,"Delta":25446983},{"NoteNumber":43,"Velocity":58,"Duration":184615,"SoundDuration":184615,"Delta":25446983},{"NoteNumber":79,"Velocity":60,"Duration":92307,"SoundDuration":92307,"Delta":25539290},{"NoteNumber":70,"Velocity":66,"Duration":92307,"SoundDuration":92307,"Delta":25631598},{"NoteNumber":39,"Velocity":58,"Duration":138461,"SoundDuration":138461,"Delta":25631598},{"NoteNumber":82,"Velocity":59,"Duration":92307,"SoundDuration":92307,"Delta":25723906},{"NoteNumber":70,"Velocity":73,"Duration":92307,"SoundDuration":92307,"Delta":25816214},{"NoteNumber":39,"Velocity":63,"Duration":184615,"SoundDuration":184615,"Delta":25816214},{"NoteNumber":82,"Velocity":60,"Duration":92307,"SoundDuration":92307,"Delta":25908521},{"NoteNumber":70,"Velocity":63,"Duration":92307,"SoundDuration":92307,"Delta":26000829},{"NoteNumber":43,"Velocity":55,"Duration":184615,"SoundDuration":184615,"Delta":26000829},{"NoteNumber":82,"Velocity":55,"Duration":92307,"SoundDuration":92307,"Delta":26093137},{"NoteNumber":67,"Velocity":66,"Duration":99009,"SoundDuration":99009,"Delta":26185445},{"NoteNumber":40,"Velocity":58,"Duration":148514,"SoundDuration":148514,"Delta":26185445},{"NoteNumber":48,"Velocity":70,"Duration":148514,"SoundDuration":148514,"Delta":26185445},{"NoteNumber":79,"Velocity":60,"Duration":99009,"SoundDuration":99009,"Delta":26284455},{"NoteNumber":68,"Velocity":73,"Duration":91743,"SoundDuration":91743,"Delta":26383465},{"NoteNumber":48,"Velocity":78,"Duration":183485,"SoundDuration":183485,"Delta":26383465},{"NoteNumber":41,"Velocity":63,"Duration":183485,"SoundDuration":183485,"Delta":26383465},{"NoteNumber":80,"Velocity":53,"Duration":91742,"SoundDuration":91742,"Delta":26475208},{"NoteNumber":68,"Velocity":61,"Duration":91743,"SoundDuration":91743,"Delta":26566951},{"NoteNumber":44,"Velocity":63,"Duration":183486,"SoundDuration":183486,"Delta":26566951},{"NoteNumber":80,"Velocity":53,"Duration":91743,"SoundDuration":91743,"Delta":26658694},{"NoteNumber":72,"Velocity":61,"Duration":91743,"SoundDuration":91743,"Delta":26750437},{"NoteNumber":41,"Velocity":63,"Duration":183485,"SoundDuration":183485,"Delta":26750437},{"NoteNumber":84,"Velocity":56,"Duration":91742,"SoundDuration":91742,"Delta":26842180},{"NoteNumber":72,"Velocity":73,"Duration":90908,"SoundDuration":90908,"Delta":26933923},{"NoteNumber":40,"Velocity":69,"Duration":181817,"SoundDuration":181817,"Delta":26933923},{"NoteNumber":84,"Velocity":53,"Duration":90908,"SoundDuration":90908,"Delta":27024832},{"NoteNumber":72,"Velocity":61,"Duration":90908,"SoundDuration":90908,"Delta":27115741},{"NoteNumber":43,"Velocity":62,"Duration":181817,"SoundDuration":181817,"Delta":27115741},{"NoteNumber":84,"Velocity":55,"Duration":90908,"SoundDuration":90908,"Delta":27206650},{"NoteNumber":70,"Velocity":61,"Duration":91463,"SoundDuration":91463,"Delta":27297559},{"NoteNumber":48,"Velocity":73,"Duration":140805,"SoundDuration":140805,"Delta":27297559},{"NoteNumber":82,"Velocity":53,"Duration":98684,"SoundDuration":98684,"Delta":27389022},{"NoteNumber":68,"Velocity":73,"Duration":91743,"SoundDuration":91743,"Delta":27487706},{"NoteNumber":48,"Velocity":86,"Duration":183485,"SoundDuration":183485,"Delta":27487706},{"NoteNumber":80,"Velocity":55,"Duration":91742,"SoundDuration":91742,"Delta":27579449},{"NoteNumber":68,"Velocity":61,"Duration":91743,"SoundDuration":91743,"Delta":27671192},{"NoteNumber":44,"Velocity":63,"Duration":183486,"SoundDuration":183486,"Delta":27671192},{"NoteNumber":80,"Velocity":55,"Duration":91743,"SoundDuration":91743,"Delta":27762935},{"NoteNumber":72,"Velocity":61,"Duration":91743,"SoundDuration":91743,"Delta":27854678},{"NoteNumber":41,"Velocity":63,"Duration":183485,"SoundDuration":183485,"Delta":27854678},{"NoteNumber":84,"Velocity":55,"Duration":91742,"SoundDuration":91742,"Delta":27946422},{"NoteNumber":72,"Velocity":73,"Duration":91743,"SoundDuration":91743,"Delta":28038164},{"NoteNumber":38,"Velocity":72,"Duration":183486,"SoundDuration":183486,"Delta":28038164},{"NoteNumber":84,"Velocity":52,"Duration":91743,"SoundDuration":91743,"Delta":28129907},{"NoteNumber":70,"Velocity":59,"Duration":91742,"SoundDuration":91742,"Delta":28221650},{"NoteNumber":41,"Velocity":63,"Duration":183485,"SoundDuration":183485,"Delta":28221650},{"NoteNumber":82,"Velocity":52,"Duration":91743,"SoundDuration":91743,"Delta":28313393},{"NoteNumber":68,"Velocity":59,"Duration":96153,"SoundDuration":96153,"Delta":28405136},{"NoteNumber":38,"Velocity":58,"Duration":144230,"SoundDuration":144230,"Delta":28405136},{"NoteNumber":46,"Velocity":69,"Duration":144230,"SoundDuration":144230,"Delta":28405136},{"NoteNumber":80,"Velocity":53,"Duration":96153,"SoundDuration":96153,"Delta":28501290},{"NoteNumber":67,"Velocity":73,"Duration":92024,"SoundDuration":92024,"Delta":28597444},{"NoteNumber":39,"Velocity":66,"Duration":184049,"SoundDuration":184049,"Delta":28597444},{"NoteNumber":46,"Velocity":78,"Duration":184049,"SoundDuration":184049,"Delta":28597444},{"NoteNumber":79,"Velocity":53,"Duration":92024,"SoundDuration":92024,"Delta":28689468},{"NoteNumber":70,"Velocity":61,"Duration":92024,"SoundDuration":92024,"Delta":28781493},{"NoteNumber":43,"Velocity":60,"Duration":184048,"SoundDuration":184048,"Delta":28781493},{"NoteNumber":82,"Velocity":55,"Duration":92024,"SoundDuration":92024,"Delta":28873517},{"NoteNumber":75,"Velocity":61,"Duration":92024,"SoundDuration":92024,"Delta":28965542},{"NoteNumber":39,"Velocity":60,"Duration":184049,"SoundDuration":184049,"Delta":28965542},{"NoteNumber":87,"Velocity":55,"Duration":92024,"SoundDuration":92024,"Delta":29057566},{"NoteNumber":75,"Velocity":73,"Duration":90634,"SoundDuration":90634,"Delta":29149591},{"NoteNumber":32,"Velocity":53,"Duration":362538,"SoundDuration":362538,"Delta":29149591},{"NoteNumber":36,"Velocity":63,"Duration":181269,"SoundDuration":181269,"Delta":29149591},{"NoteNumber":87,"Velocity":53,"Duration":90634,"SoundDuration":90634,"Delta":29240225},{"NoteNumber":72,"Velocity":60,"Duration":90634,"SoundDuration":90634,"Delta":29330860},{"NoteNumber":41,"Velocity":58,"Duration":181269,"SoundDuration":181269,"Delta":29330860},{"NoteNumber":84,"Velocity":53,"Duration":90634,"SoundDuration":90634,"Delta":29421494},{"NoteNumber":68,"Velocity":60,"Duration":95846,"SoundDuration":95846,"Delta":29512129},{"NoteNumber":44,"Velocity":63,"Duration":143770,"SoundDuration":143770,"Delta":29512129},{"NoteNumber":80,"Velocity":53,"Duration":95846,"SoundDuration":95846,"Delta":29607976},{"NoteNumber":75,"Velocity":73,"Duration":92024,"SoundDuration":92024,"Delta":29703822},{"NoteNumber":34,"Velocity":69,"Duration":184049,"SoundDuration":184049,"Delta":29703822},{"NoteNumber":87,"Velocity":56,"Duration":92024,"SoundDuration":92024,"Delta":29795847},{"NoteNumber":70,"Velocity":62,"Duration":92024,"SoundDuration":92024,"Delta":29887871},{"NoteNumber":39,"Velocity":58,"Duration":184048,"SoundDuration":184048,"Delta":29887871},{"NoteNumber":82,"Velocity":55,"Duration":92024,"SoundDuration":92024,"Delta":29979896},{"NoteNumber":67,"Velocity":62,"Duration":94637,"SoundDuration":94637,"Delta":30071920},{"NoteNumber":43,"Velocity":58,"Duration":141955,"SoundDuration":141955,"Delta":30071920},{"NoteNumber":79,"Velocity":55,"Duration":94637,"SoundDuration":94637,"Delta":30166558},{"NoteNumber":70,"Velocity":73,"Duration":91185,"SoundDuration":91185,"Delta":30261195},{"NoteNumber":34,"Velocity":63,"Duration":182370,"SoundDuration":182370,"Delta":30261195},{"NoteNumber":82,"Velocity":56,"Duration":91185,"SoundDuration":91185,"Delta":30352380},{"NoteNumber":68,"Velocity":64,"Duration":91185,"SoundDuration":91185,"Delta":30443566},{"NoteNumber":41,"Velocity":57,"Duration":182370,"SoundDuration":182370,"Delta":30443566},{"NoteNumber":80,"Velocity":57,"Duration":91185,"SoundDuration":91185,"Delta":30534751},{"NoteNumber":65,"Velocity":64,"Duration":98360,"SoundDuration":98360,"Delta":30625937},{"NoteNumber":46,"Velocity":57,"Duration":147541,"SoundDuration":147541,"Delta":30625937},{"NoteNumber":77,"Velocity":58,"Duration":98360,"SoundDuration":98360,"Delta":30724298},{"NoteNumber":55,"Velocity":78,"Duration":98360,"SoundDuration":98360,"Delta":30822658},{"NoteNumber":39,"Velocity":73,"Duration":98360,"SoundDuration":98360,"Delta":30822658},{"NoteNumber":63,"Velocity":64,"Duration":98360,"SoundDuration":98360,"Delta":30921019},{"NoteNumber":58,"Velocity":72,"Duration":96462,"SoundDuration":96462,"Delta":31019380},{"NoteNumber":55,"Velocity":62,"Duration":96462,"SoundDuration":96462,"Delta":31019380},{"NoteNumber":51,"Velocity":49,"Duration":96462,"SoundDuration":96462,"Delta":31019380},{"NoteNumber":67,"Velocity":64,"Duration":96462,"SoundDuration":96462,"Delta":31115843},{"NoteNumber":63,"Velocity":74,"Duration":96462,"SoundDuration":96462,"Delta":31212306},{"NoteNumber":58,"Velocity":62,"Duration":96462,"SoundDuration":96462,"Delta":31212306},{"NoteNumber":51,"Velocity":49,"Duration":96462,"SoundDuration":96462,"Delta":31212306},{"NoteNumber":55,"Velocity":49,"Duration":96462,"SoundDuration":96462,"Delta":31212306},{"NoteNumber":70,"Velocity":64,"Duration":96462,"SoundDuration":96462,"Delta":31308769},{"NoteNumber":67,"Velocity":79,"Duration":94339,"SoundDuration":94339,"Delta":31405232},{"NoteNumber":55,"Velocity":49,"Duration":94339,"SoundDuration":94339,"Delta":31405232},{"NoteNumber":63,"Velocity":62,"Duration":94339,"SoundDuration":94339,"Delta":31405232},{"NoteNumber":58,"Velocity":49,"Duration":94339,"SoundDuration":94339,"Delta":31405232},{"NoteNumber":51,"Velocity":49,"Duration":94339,"SoundDuration":94339,"Delta":31405232},{"NoteNumber":75,"Velocity":64,"Duration":94339,"SoundDuration":94339,"Delta":31499571},{"NoteNumber":70,"Velocity":70,"Duration":94339,"SoundDuration":94339,"Delta":31593911},{"NoteNumber":51,"Velocity":49,"Duration":94339,"SoundDuration":94339,"Delta":31593911},{"NoteNumber":63,"Velocity":62,"Duration":94339,"SoundDuration":94339,"Delta":31593911},{"NoteNumber":58,"Velocity":49,"Duration":94339,"SoundDuration":94339,"Delta":31593911},{"NoteNumber":55,"Velocity":49,"Duration":94339,"SoundDuration":94339,"Delta":31593911},{"NoteNumber":79,"Velocity":64,"Duration":94339,"SoundDuration":94339,"Delta":31688250},{"NoteNumber":75,"Velocity":71,"Duration":94339,"SoundDuration":94339,"Delta":31782590},{"NoteNumber":58,"Velocity":49,"Duration":94339,"SoundDuration":94339,"Delta":31782590},{"NoteNumber":63,"Velocity":62,"Duration":94339,"SoundDuration":94339,"Delta":31782590},{"NoteNumber":51,"Velocity":49,"Duration":94339,"SoundDuration":94339,"Delta":31782590},{"NoteNumber":55,"Velocity":49,"Duration":94339,"SoundDuration":94339,"Delta":31782590},{"NoteNumber":82,"Velocity":64,"Duration":94339,"SoundDuration":94339,"Delta":31876929},{"NoteNumber":79,"Velocity":79,"Duration":94339,"SoundDuration":94339,"Delta":31971269},{"NoteNumber":63,"Velocity":70,"Duration":94339,"SoundDuration":94339,"Delta":31971269},{"NoteNumber":55,"Velocity":56,"Duration":94339,"SoundDuration":94339,"Delta":31971269},{"NoteNumber":58,"Velocity":56,"Duration":94339,"SoundDuration":94339,"Delta":31971269},{"NoteNumber":51,"Velocity":56,"Duration":94339,"SoundDuration":94339,"Delta":31971269},{"NoteNumber":87,"Velocity":64,"Duration":94339,"SoundDuration":94339,"Delta":32065608},{"NoteNumber":82,"Velocity":70,"Duration":94339,"SoundDuration":94339,"Delta":32159948},{"NoteNumber":58,"Velocity":49,"Duration":94339,"SoundDuration":94339,"Delta":32159948},{"NoteNumber":63,"Velocity":62,"Duration":94339,"SoundDuration":94339,"Delta":32159948},{"NoteNumber":51,"Velocity":49,"Duration":94339,"SoundDuration":94339,"Delta":32159948},{"NoteNumber":55,"Velocity":49,"Duration":94339,"SoundDuration":94339,"Delta":32159948},{"NoteNumber":91,"Velocity":61,"Duration":94339,"SoundDuration":94339,"Delta":32254287},{"NoteNumber":87,"Velocity":69,"Duration":94339,"SoundDuration":94339,"Delta":32348627},{"NoteNumber":55,"Velocity":49,"Duration":94339,"SoundDuration":94339,"Delta":32348627},{"NoteNumber":63,"Velocity":62,"Duration":94339,"SoundDuration":94339,"Delta":32348627},{"NoteNumber":58,"Velocity":49,"Duration":94339,"SoundDuration":94339,"Delta":32348627},{"NoteNumber":51,"Velocity":49,"Duration":94339,"SoundDuration":94339,"Delta":32348627},{"NoteNumber":94,"Velocity":62,"Duration":94339,"SoundDuration":94339,"Delta":32442966},{"NoteNumber":93,"Velocity":73,"Duration":92307,"SoundDuration":92307,"Delta":32537306},{"NoteNumber":53,"Velocity":49,"Duration":92307,"SoundDuration":92307,"Delta":32537306},{"NoteNumber":62,"Velocity":62,"Duration":92307,"SoundDuration":92307,"Delta":32537306},{"NoteNumber":56,"Velocity":49,"Duration":92307,"SoundDuration":92307,"Delta":32537306},{"NoteNumber":58,"Velocity":49,"Duration":92307,"SoundDuration":92307,"Delta":32537306},{"NoteNumber":51,"Velocity":49,"Duration":92307,"SoundDuration":92307,"Delta":32537306},{"NoteNumber":94,"Velocity":66,"Duration":92307,"SoundDuration":92307,"Delta":32629614},{"NoteNumber":93,"Velocity":70,"Duration":92307,"SoundDuration":92307,"Delta":32721922},{"NoteNumber":53,"Velocity":49,"Duration":92307,"SoundDuration":92307,"Delta":32721922},{"NoteNumber":62,"Velocity":62,"Duration":92307,"SoundDuration":92307,"Delta":32721922},{"NoteNumber":58,"Velocity":49,"Duration":92307,"SoundDuration":92307,"Delta":32721922},{"NoteNumber":56,"Velocity":49,"Duration":92307,"SoundDuration":92307,"Delta":32721922},{"NoteNumber":51,"Velocity":49,"Duration":92307,"SoundDuration":92307,"Delta":32721922},{"NoteNumber":94,"Velocity":64,"Duration":92307,"SoundDuration":92307,"Delta":32814229},{"NoteNumber":93,"Velocity":69,"Duration":92307,"SoundDuration":92307,"Delta":32906537},{"NoteNumber":53,"Velocity":49,"Duration":92307,"SoundDuration":92307,"Delta":32906537},{"NoteNumber":62,"Velocity":62,"Duration":92307,"SoundDuration":92307,"Delta":32906537},{"NoteNumber":58,"Velocity":49,"Duration":92307,"SoundDuration":92307,"Delta":32906537},{"NoteNumber":56,"Velocity":49,"Duration":92307,"SoundDuration":92307,"Delta":32906537},{"NoteNumber":51,"Velocity":49,"Duration":92307,"SoundDuration":92307,"Delta":32906537},{"NoteNumber":94,"Velocity":64,"Duration":101010,"SoundDuration":101010,"Delta":32998845},{"NoteNumber":96,"Velocity":77,"Duration":93750,"SoundDuration":93750,"Delta":33099855},{"NoteNumber":51,"Velocity":57,"Duration":93750,"SoundDuration":93750,"Delta":33099855},{"NoteNumber":63,"Velocity":72,"Duration":93750,"SoundDuration":93750,"Delta":33099855},{"NoteNumber":58,"Velocity":57,"Duration":93750,"SoundDuration":93750,"Delta":33099855},{"NoteNumber":55,"Velocity":57,"Duration":93750,"SoundDuration":93750,"Delta":33099855},{"NoteNumber":94,"Velocity":77,"Duration":93750,"SoundDuration":93750,"Delta":33193605},{"NoteNumber":92,"Velocity":76,"Duration":93457,"SoundDuration":93457,"Delta":33287355},{"NoteNumber":58,"Velocity":49,"Duration":93457,"SoundDuration":93457,"Delta":33287355},{"NoteNumber":63,"Velocity":62,"Duration":93457,"SoundDuration":93457,"Delta":33287355},{"NoteNumber":51,"Velocity":49,"Duration":93457,"SoundDuration":93457,"Delta":33287355},{"NoteNumber":55,"Velocity":49,"Duration":93457,"SoundDuration":93457,"Delta":33287355},{"NoteNumber":91,"Velocity":75,"Duration":93457,"SoundDuration":93457,"Delta":33380813},{"NoteNumber":89,"Velocity":74,"Duration":93458,"SoundDuration":93458,"Delta":33474271},{"NoteNumber":63,"Velocity":62,"Duration":93458,"SoundDuration":93458,"Delta":33474271},{"NoteNumber":55,"Velocity":49,"Duration":93458,"SoundDuration":93458,"Delta":33474271},{"NoteNumber":58,"Velocity":49,"Duration":93458,"SoundDuration":93458,"Delta":33474271},{"NoteNumber":51,"Velocity":49,"Duration":93458,"SoundDuration":93458,"Delta":33474271},{"NoteNumber":87,"Velocity":74,"Duration":93457,"SoundDuration":93457,"Delta":33567729},{"NoteNumber":86,"Velocity":72,"Duration":93457,"SoundDuration":93457,"Delta":33661187},{"NoteNumber":58,"Velocity":49,"Duration":93457,"SoundDuration":93457,"Delta":33661187},{"NoteNumber":63,"Velocity":62,"Duration":93457,"SoundDuration":93457,"Delta":33661187},{"NoteNumber":51,"Velocity":49,"Duration":93457,"SoundDuration":93457,"Delta":33661187},{"NoteNumber":55,"Velocity":49,"Duration":93457,"SoundDuration":93457,"Delta":33661187},{"NoteNumber":84,"Velocity":65,"Duration":93457,"SoundDuration":93457,"Delta":33754645},{"NoteNumber":82,"Velocity":65,"Duration":93458,"SoundDuration":93458,"Delta":33848103},{"NoteNumber":55,"Velocity":49,"Duration":93458,"SoundDuration":93458,"Delta":33848103},{"NoteNumber":63,"Velocity":62,"Duration":93458,"SoundDuration":93458,"Delta":33848103},{"NoteNumber":58,"Velocity":49,"Duration":93458,"SoundDuration":93458,"Delta":33848103},{"NoteNumber":51,"Velocity":49,"Duration":93458,"SoundDuration":93458,"Delta":33848103},{"NoteNumber":80,"Velocity":65,"Duration":93457,"SoundDuration":93457,"Delta":33941561},{"NoteNumber":79,"Velocity":65,"Duration":93457,"SoundDuration":93457,"Delta":34035019},{"NoteNumber":51,"Velocity":49,"Duration":93457,"SoundDuration":93457,"Delta":34035019},{"NoteNumber":63,"Velocity":62,"Duration":93457,"SoundDuration":93457,"Delta":34035019},{"NoteNumber":58,"Velocity":49,"Duration":93457,"SoundDuration":93457,"Delta":34035019},{"NoteNumber":55,"Velocity":49,"Duration":93457,"SoundDuration":93457,"Delta":34035019},{"NoteNumber":77,"Velocity":65,"Duration":101694,"SoundDuration":101694,"Delta":34128477},{"NoteNumber":75,"Velocity":70,"Duration":93750,"SoundDuration":93750,"Delta":34230172},{"NoteNumber":58,"Velocity":55,"Duration":93750,"SoundDuration":93750,"Delta":34230172},{"NoteNumber":63,"Velocity":69,"Duration":93750,"SoundDuration":93750,"Delta":34230172},{"NoteNumber":51,"Velocity":55,"Duration":93750,"SoundDuration":93750,"Delta":34230172},{"NoteNumber":55,"Velocity":55,"Duration":93750,"SoundDuration":93750,"Delta":34230172},{"NoteNumber":74,"Velocity":69,"Duration":93750,"SoundDuration":93750,"Delta":34323922},{"NoteNumber":72,"Velocity":68,"Duration":93750,"SoundDuration":93750,"Delta":34417672},{"NoteNumber":63,"Velocity":61,"Duration":93750,"SoundDuration":93750,"Delta":34417672},{"NoteNumber":55,"Velocity":48,"Duration":93750,"SoundDuration":93750,"Delta":34417672},{"NoteNumber":58,"Velocity":48,"Duration":93750,"SoundDuration":93750,"Delta":34417672},{"NoteNumber":51,"Velocity":48,"Duration":93750,"SoundDuration":93750,"Delta":34417672},{"NoteNumber":70,"Velocity":68,"Duration":93750,"SoundDuration":93750,"Delta":34511422},{"NoteNumber":68,"Velocity":67,"Duration":92592,"SoundDuration":92592,"Delta":34605172},{"NoteNumber":58,"Velocity":48,"Duration":92592,"SoundDuration":92592,"Delta":34605172},{"NoteNumber":63,"Velocity":61,"Duration":92592,"SoundDuration":92592,"Delta":34605172},{"NoteNumber":51,"Velocity":48,"Duration":92592,"SoundDuration":92592,"Delta":34605172},{"NoteNumber":55,"Velocity":48,"Duration":92592,"SoundDuration":92592,"Delta":34605172},{"NoteNumber":67,"Velocity":66,"Duration":92592,"SoundDuration":92592,"Delta":34697764},{"NoteNumber":65,"Velocity":64,"Duration":92592,"SoundDuration":92592,"Delta":34790357},{"NoteNumber":53,"Velocity":48,"Duration":92592,"SoundDuration":92592,"Delta":34790357},{"NoteNumber":58,"Velocity":61,"Duration":92592,"SoundDuration":92592,"Delta":34790357},{"NoteNumber":56,"Velocity":48,"Duration":92592,"SoundDuration":92592,"Delta":34790357},{"NoteNumber":51,"Velocity":48,"Duration":92592,"SoundDuration":92592,"Delta":34790357},{"NoteNumber":63,"Velocity":59,"Duration":92592,"SoundDuration":92592,"Delta":34882949},{"NoteNumber":62,"Velocity":64,"Duration":92592,"SoundDuration":92592,"Delta":34975542},{"NoteNumber":51,"Velocity":48,"Duration":92592,"SoundDuration":92592,"Delta":34975542},{"NoteNumber":58,"Velocity":61,"Duration":92592,"SoundDuration":92592,"Delta":34975542},{"NoteNumber":56,"Velocity":48,"Duration":92592,"SoundDuration":92592,"Delta":34975542},{"NoteNumber":53,"Velocity":48,"Duration":92592,"SoundDuration":92592,"Delta":34975542},{"NoteNumber":65,"Velocity":60,"Duration":92592,"SoundDuration":92592,"Delta":35068134},{"NoteNumber":68,"Velocity":69,"Duration":92592,"SoundDuration":92592,"Delta":35160727},{"NoteNumber":56,"Velocity":48,"Duration":92592,"SoundDuration":92592,"Delta":35160727},{"NoteNumber":58,"Velocity":61,"Duration":92592,"SoundDuration":92592,"Delta":35160727},{"NoteNumber":51,"Velocity":48,"Duration":92592,"SoundDuration":92592,"Delta":35160727},{"NoteNumber":53,"Velocity":48,"Duration":92592,"SoundDuration":92592,"Delta":35160727},{"NoteNumber":62,"Velocity":63,"Duration":109489,"SoundDuration":109489,"Delta":35253319},{"NoteNumber":55,"Velocity":78,"Duration":98360,"SoundDuration":98360,"Delta":35362808},{"NoteNumber":39,"Velocity":73,"Duration":98360,"SoundDuration":98360,"Delta":35362808},{"NoteNumber":63,"Velocity":64,"Duration":98360,"SoundDuration":98360,"Delta":35461169},{"NoteNumber":58,"Velocity":72,"Duration":96462,"SoundDuration":96462,"Delta":35559530},{"NoteNumber":51,"Velocity":49,"Duration":96462,"SoundDuration":96462,"Delta":35559530},{"NoteNumber":55,"Velocity":62,"Duration":96462,"SoundDuration":96462,"Delta":35559530},{"NoteNumber":67,"Velocity":64,"Duration":96462,"SoundDuration":96462,"Delta":35655993},{"NoteNumber":63,"Velocity":74,"Duration":96462,"SoundDuration":96462,"Delta":35752456},{"NoteNumber":51,"Velocity":49,"Duration":96462,"SoundDuration":96462,"Delta":35752456},{"NoteNumber":58,"Velocity":62,"Duration":96462,"SoundDuration":96462,"Delta":35752456},{"NoteNumber":55,"Velocity":49,"Duration":96462,"SoundDuration":96462,"Delta":35752456},{"NoteNumber":70,"Velocity":64,"Duration":96462,"SoundDuration":96462,"Delta":35848919},{"NoteNumber":67,"Velocity":79,"Duration":94339,"SoundDuration":94339,"Delta":35945382},{"NoteNumber":58,"Velocity":49,"Duration":94339,"SoundDuration":94339,"Delta":35945382},{"NoteNumber":63,"Velocity":62,"Duration":94339,"SoundDuration":94339,"Delta":35945382},{"NoteNumber":51,"Velocity":49,"Duration":94339,"SoundDuration":94339,"Delta":35945382},{"NoteNumber":55,"Velocity":49,"Duration":94339,"SoundDuration":94339,"Delta":35945382},{"NoteNumber":75,"Velocity":64,"Duration":94339,"SoundDuration":94339,"Delta":36039721},{"NoteNumber":70,"Velocity":70,"Duration":94339,"SoundDuration":94339,"Delta":36134061},{"NoteNumber":63,"Velocity":62,"Duration":94339,"SoundDuration":94339,"Delta":36134061},{"NoteNumber":55,"Velocity":49,"Duration":94339,"SoundDuration":94339,"Delta":36134061},{"NoteNumber":58,"Velocity":49,"Duration":94339,"SoundDuration":94339,"Delta":36134061},{"NoteNumber":51,"Velocity":49,"Duration":94339,"SoundDuration":94339,"Delta":36134061},{"NoteNumber":79,"Velocity":64,"Duration":94339,"SoundDuration":94339,"Delta":36228400},{"NoteNumber":75,"Velocity":71,"Duration":94339,"SoundDuration":94339,"Delta":36322740},{"NoteNumber":58,"Velocity":49,"Duration":94339,"SoundDuration":94339,"Delta":36322740},{"NoteNumber":63,"Velocity":62,"Duration":94339,"SoundDuration":94339,"Delta":36322740},{"NoteNumber":51,"Velocity":49,"Duration":94339,"SoundDuration":94339,"Delta":36322740},{"NoteNumber":55,"Velocity":49,"Duration":94339,"SoundDuration":94339,"Delta":36322740},{"NoteNumber":82,"Velocity":64,"Duration":94339,"SoundDuration":94339,"Delta":36417079},{"NoteNumber":79,"Velocity":79,"Duration":94339,"SoundDuration":94339,"Delta":36511419},{"NoteNumber":55,"Velocity":56,"Duration":94339,"SoundDuration":94339,"Delta":36511419},{"NoteNumber":63,"Velocity":70,"Duration":94339,"SoundDuration":94339,"Delta":36511419},{"NoteNumber":58,"Velocity":56,"Duration":94339,"SoundDuration":94339,"Delta":36511419},{"NoteNumber":51,"Velocity":56,"Duration":94339,"SoundDuration":94339,"Delta":36511419},{"NoteNumber":87,"Velocity":64,"Duration":94339,"SoundDuration":94339,"Delta":36605758},{"NoteNumber":82,"Velocity":70,"Duration":94339,"SoundDuration":94339,"Delta":36700098},{"NoteNumber":58,"Velocity":49,"Duration":94339,"SoundDuration":94339,"Delta":36700098},{"NoteNumber":51,"Velocity":49,"Duration":94339,"SoundDuration":94339,"Delta":36700098},{"NoteNumber":55,"Velocity":49,"Duration":94339,"SoundDuration":94339,"Delta":36700098},{"NoteNumber":63,"Velocity":62,"Duration":94339,"SoundDuration":94339,"Delta":36700098},{"NoteNumber":91,"Velocity":61,"Duration":94339,"SoundDuration":94339,"Delta":36794437},{"NoteNumber":87,"Velocity":69,"Duration":94339,"SoundDuration":94339,"Delta":36888777},{"NoteNumber":55,"Velocity":49,"Duration":94339,"SoundDuration":94339,"Delta":36888777},{"NoteNumber":51,"Velocity":49,"Duration":94339,"SoundDuration":94339,"Delta":36888777},{"NoteNumber":58,"Velocity":49,"Duration":94339,"SoundDuration":94339,"Delta":36888777},{"NoteNumber":63,"Velocity":62,"Duration":94339,"SoundDuration":94339,"Delta":36888777},{"NoteNumber":94,"Velocity":62,"Duration":94339,"SoundDuration":94339,"Delta":36983116},{"NoteNumber":93,"Velocity":73,"Duration":92307,"SoundDuration":92307,"Delta":37077456},{"NoteNumber":62,"Velocity":62,"Duration":92307,"SoundDuration":92307,"Delta":37077456},{"NoteNumber":53,"Velocity":49,"Duration":92307,"SoundDuration":92307,"Delta":37077456},{"NoteNumber":51,"Velocity":49,"Duration":92307,"SoundDuration":92307,"Delta":37077456},{"NoteNumber":58,"Velocity":49,"Duration":92307,"SoundDuration":92307,"Delta":37077456},{"NoteNumber":56,"Velocity":49,"Duration":92307,"SoundDuration":92307,"Delta":37077456},{"NoteNumber":94,"Velocity":66,"Duration":92307,"SoundDuration":92307,"Delta":37169764},{"NoteNumber":93,"Velocity":70,"Duration":92307,"SoundDuration":92307,"Delta":37262071},{"NoteNumber":62,"Velocity":62,"Duration":92307,"SoundDuration":92307,"Delta":37262071},{"NoteNumber":53,"Velocity":49,"Duration":92307,"SoundDuration":92307,"Delta":37262071},{"NoteNumber":51,"Velocity":49,"Duration":92307,"SoundDuration":92307,"Delta":37262071},{"NoteNumber":56,"Velocity":49,"Duration":92307,"SoundDuration":92307,"Delta":37262071},{"NoteNumber":58,"Velocity":49,"Duration":92307,"SoundDuration":92307,"Delta":37262071},{"NoteNumber":94,"Velocity":64,"Duration":92307,"SoundDuration":92307,"Delta":37354379},{"NoteNumber":93,"Velocity":69,"Duration":92307,"SoundDuration":92307,"Delta":37446687},{"NoteNumber":62,"Velocity":62,"Duration":92307,"SoundDuration":92307,"Delta":37446687},{"NoteNumber":53,"Velocity":49,"Duration":92307,"SoundDuration":92307,"Delta":37446687},{"NoteNumber":51,"Velocity":49,"Duration":92307,"SoundDuration":92307,"Delta":37446687},{"NoteNumber":56,"Velocity":49,"Duration":92307,"SoundDuration":92307,"Delta":37446687},{"NoteNumber":58,"Velocity":49,"Duration":92307,"SoundDuration":92307,"Delta":37446687},{"NoteNumber":94,"Velocity":64,"Duration":101010,"SoundDuration":101010,"Delta":37538995},{"NoteNumber":96,"Velocity":77,"Duration":93750,"SoundDuration":93750,"Delta":37640005},{"NoteNumber":63,"Velocity":72,"Duration":93750,"SoundDuration":93750,"Delta":37640005},{"NoteNumber":51,"Velocity":57,"Duration":93750,"SoundDuration":93750,"Delta":37640005},{"NoteNumber":58,"Velocity":57,"Duration":93750,"SoundDuration":93750,"Delta":37640005},{"NoteNumber":55,"Velocity":57,"Duration":93750,"SoundDuration":93750,"Delta":37640005},{"NoteNumber":94,"Velocity":77,"Duration":93750,"SoundDuration":93750,"Delta":37733755},{"NoteNumber":92,"Velocity":76,"Duration":93457,"SoundDuration":93457,"Delta":37827505},{"NoteNumber":63,"Velocity":62,"Duration":93457,"SoundDuration":93457,"Delta":37827505},{"NoteNumber":58,"Velocity":49,"Duration":93457,"SoundDuration":93457,"Delta":37827505},{"NoteNumber":51,"Velocity":49,"Duration":93457,"SoundDuration":93457,"Delta":37827505},{"NoteNumber":55,"Velocity":49,"Duration":93457,"SoundDuration":93457,"Delta":37827505},{"NoteNumber":91,"Velocity":75,"Duration":93457,"SoundDuration":93457,"Delta":37920963},{"NoteNumber":89,"Velocity":74,"Duration":93458,"SoundDuration":93458,"Delta":38014421},{"NoteNumber":63,"Velocity":62,"Duration":93458,"SoundDuration":93458,"Delta":38014421},{"NoteNumber":58,"Velocity":49,"Duration":93458,"SoundDuration":93458,"Delta":38014421},{"NoteNumber":55,"Velocity":49,"Duration":93458,"SoundDuration":93458,"Delta":38014421},{"NoteNumber":51,"Velocity":49,"Duration":93458,"SoundDuration":93458,"Delta":38014421},{"NoteNumber":87,"Velocity":74,"Duration":93457,"SoundDuration":93457,"Delta":38107879},{"NoteNumber":86,"Velocity":72,"Duration":93457,"SoundDuration":93457,"Delta":38201337},{"NoteNumber":58,"Velocity":49,"Duration":93457,"SoundDuration":93457,"Delta":38201337},{"NoteNumber":51,"Velocity":49,"Duration":93457,"SoundDuration":93457,"Delta":38201337},{"NoteNumber":55,"Velocity":49,"Duration":93457,"SoundDuration":93457,"Delta":38201337},{"NoteNumber":63,"Velocity":62,"Duration":93457,"SoundDuration":93457,"Delta":38201337},{"NoteNumber":84,"Velocity":65,"Duration":93457,"SoundDuration":93457,"Delta":38294795},{"NoteNumber":82,"Velocity":65,"Duration":93458,"SoundDuration":93458,"Delta":38388253},{"NoteNumber":55,"Velocity":49,"Duration":93458,"SoundDuration":93458,"Delta":38388253},{"NoteNumber":51,"Velocity":49,"Duration":93458,"SoundDuration":93458,"Delta":38388253},{"NoteNumber":58,"Velocity":49,"Duration":93458,"SoundDuration":93458,"Delta":38388253},{"NoteNumber":63,"Velocity":62,"Duration":93458,"SoundDuration":93458,"Delta":38388253},{"NoteNumber":80,"Velocity":65,"Duration":93457,"SoundDuration":93457,"Delta":38481711},{"NoteNumber":79,"Velocity":65,"Duration":93457,"SoundDuration":93457,"Delta":38575169},{"NoteNumber":63,"Velocity":62,"Duration":93457,"SoundDuration":93457,"Delta":38575169},{"NoteNumber":51,"Velocity":49,"Duration":93457,"SoundDuration":93457,"Delta":38575169},{"NoteNumber":58,"Velocity":49,"Duration":93457,"SoundDuration":93457,"Delta":38575169},{"NoteNumber":55,"Velocity":49,"Duration":93457,"SoundDuration":93457,"Delta":38575169},{"NoteNumber":77,"Velocity":65,"Duration":101694,"SoundDuration":101694,"Delta":38668627},{"NoteNumber":75,"Velocity":70,"Duration":63281,"SoundDuration":63281,"Delta":38770322},{"NoteNumber":55,"Velocity":55,"Duration":93750,"SoundDuration":93750,"Delta":38770322},{"NoteNumber":51,"Velocity":55,"Duration":93750,"SoundDuration":93750,"Delta":38770322},{"NoteNumber":58,"Velocity":69,"Duration":93750,"SoundDuration":93750,"Delta":38770322},{"NoteNumber":74,"Velocity":69,"Duration":62500,"SoundDuration":62500,"Delta":38833603},{"NoteNumber":72,"Velocity":68,"Duration":62500,"SoundDuration":62500,"Delta":38895322},{"NoteNumber":70,"Velocity":68,"Duration":62500,"SoundDuration":62500,"Delta":38957822},{"NoteNumber":58,"Velocity":61,"Duration":93750,"SoundDuration":93750,"Delta":38957822},{"NoteNumber":55,"Velocity":48,"Duration":93750,"SoundDuration":93750,"Delta":38957822},{"NoteNumber":51,"Velocity":48,"Duration":93750,"SoundDuration":93750,"Delta":38957822},{"NoteNumber":68,"Velocity":67,"Duration":62500,"SoundDuration":62500,"Delta":39020322},{"NoteNumber":67,"Velocity":66,"Duration":62500,"SoundDuration":62500,"Delta":39082822},{"NoteNumber":65,"Velocity":64,"Duration":61728,"SoundDuration":61728,"Delta":39145322},{"NoteNumber":55,"Velocity":48,"Duration":92592,"SoundDuration":92592,"Delta":39145322},{"NoteNumber":58,"Velocity":61,"Duration":92592,"SoundDuration":92592,"Delta":39145322},{"NoteNumber":51,"Velocity":48,"Duration":92592,"SoundDuration":92592,"Delta":39145322},{"NoteNumber":63,"Velocity":59,"Duration":61728,"SoundDuration":61728,"Delta":39207050},{"NoteNumber":62,"Velocity":55,"Duration":61728,"SoundDuration":61728,"Delta":39268778},{"NoteNumber":60,"Velocity":62,"Duration":92592,"SoundDuration":92592,"Delta":39330507},{"NoteNumber":53,"Velocity":61,"Duration":92592,"SoundDuration":92592,"Delta":39330507},{"NoteNumber":51,"Velocity":48,"Duration":92592,"SoundDuration":92592,"Delta":39330507},{"NoteNumber":58,"Velocity":54,"Duration":92592,"SoundDuration":92592,"Delta":39423099},{"NoteNumber":57,"Velocity":60,"Duration":92592,"SoundDuration":92592,"Delta":39515692},{"NoteNumber":51,"Velocity":48,"Duration":92592,"SoundDuration":92592,"Delta":39515692},{"NoteNumber":53,"Velocity":61,"Duration":92592,"SoundDuration":92592,"Delta":39515692},{"NoteNumber":41,"Velocity":48,"Duration":92592,"SoundDuration":92592,"Delta":39515692},{"NoteNumber":60,"Velocity":54,"Duration":92592,"SoundDuration":92592,"Delta":39608284},{"NoteNumber":63,"Velocity":64,"Duration":92592,"SoundDuration":92592,"Delta":39700877},{"NoteNumber":53,"Velocity":61,"Duration":92592,"SoundDuration":92592,"Delta":39700877},{"NoteNumber":41,"Velocity":48,"Duration":92592,"SoundDuration":92592,"Delta":39700877},{"NoteNumber":51,"Velocity":48,"Duration":92592,"SoundDuration":92592,"Delta":39700877},{"NoteNumber":57,"Velocity":54,"Duration":103806,"SoundDuration":103806,"Delta":39793469},{"NoteNumber":58,"Velocity":95,"Duration":194175,"SoundDuration":194175,"Delta":39897275},{"NoteNumber":34,"Velocity":80,"Duration":194175,"SoundDuration":194175,"Delta":39897275},{"NoteNumber":46,"Velocity":80,"Duration":194175,"SoundDuration":194175,"Delta":39897275},{"NoteNumber":70,"Velocity":89,"Duration":191082,"SoundDuration":191082,"Delta":40479800},{"NoteNumber":58,"Velocity":75,"Duration":191082,"SoundDuration":191082,"Delta":40479800},{"NoteNumber":73,"Velocity":96,"Duration":191083,"SoundDuration":191083,"Delta":41053049},{"NoteNumber":61,"Velocity":81,"Duration":191083,"SoundDuration":191083,"Delta":41053049},{"NoteNumber":78,"Velocity":88,"Duration":191082,"SoundDuration":191082,"Delta":41626298},{"NoteNumber":66,"Velocity":74,"Duration":191082,"SoundDuration":191082,"Delta":41626298},{"NoteNumber":73,"Velocity":94,"Duration":188679,"SoundDuration":188679,"Delta":42199547},{"NoteNumber":61,"Velocity":79,"Duration":188679,"SoundDuration":188679,"Delta":42199547},{"NoteNumber":70,"Velocity":88,"Duration":192307,"SoundDuration":192307,"Delta":42765584},{"NoteNumber":58,"Velocity":74,"Duration":192307,"SoundDuration":192307,"Delta":42765584},{"NoteNumber":66,"Velocity":93,"Duration":192307,"SoundDuration":192307,"Delta":43342507},{"NoteNumber":54,"Velocity":78,"Duration":192307,"SoundDuration":192307,"Delta":43342507},{"NoteNumber":61,"Velocity":82,"Duration":196078,"SoundDuration":196078,"Delta":43919429},{"NoteNumber":49,"Velocity":70,"Duration":196078,"SoundDuration":196078,"Delta":43919429},{"NoteNumber":57,"Velocity":95,"Duration":194175,"SoundDuration":194175,"Delta":44507665},{"NoteNumber":45,"Velocity":80,"Duration":194175,"SoundDuration":194175,"Delta":44507665},{"NoteNumber":33,"Velocity":80,"Duration":194175,"SoundDuration":194175,"Delta":44507665},{"NoteNumber":69,"Velocity":89,"Duration":191082,"SoundDuration":191082,"Delta":45090190},{"NoteNumber":57,"Velocity":75,"Duration":191082,"SoundDuration":191082,"Delta":45090190},{"NoteNumber":72,"Velocity":96,"Duration":191083,"SoundDuration":191083,"Delta":45663439},{"NoteNumber":60,"Velocity":81,"Duration":191083,"SoundDuration":191083,"Delta":45663439},{"NoteNumber":77,"Velocity":88,"Duration":191082,"SoundDuration":191082,"Delta":46236688},{"NoteNumber":65,"Velocity":74,"Duration":191082,"SoundDuration":191082,"Delta":46236688},{"NoteNumber":72,"Velocity":94,"Duration":188679,"SoundDuration":188679,"Delta":46809937},{"NoteNumber":60,"Velocity":79,"Duration":188679,"SoundDuration":188679,"Delta":46809937},{"NoteNumber":69,"Velocity":88,"Duration":192307,"SoundDuration":192307,"Delta":47375974},{"NoteNumber":57,"Velocity":74,"Duration":192307,"SoundDuration":192307,"Delta":47375974},{"NoteNumber":65,"Velocity":93,"Duration":192307,"SoundDuration":192307,"Delta":47952896},{"NoteNumber":53,"Velocity":78,"Duration":192307,"SoundDuration":192307,"Delta":47952896},{"NoteNumber":60,"Velocity":82,"Duration":196078,"SoundDuration":196078,"Delta":48529819},{"NoteNumber":48,"Velocity":70,"Duration":196078,"SoundDuration":196078,"Delta":48529819},{"NoteNumber":73,"Velocity":55,"Duration":93750,"SoundDuration":93750,"Delta":49118054},{"NoteNumber":61,"Velocity":34,"Duration":93750,"SoundDuration":93750,"Delta":49118054},{"NoteNumber":66,"Velocity":40,"Duration":93750,"SoundDuration":93750,"Delta":49118054},{"NoteNumber":58,"Velocity":34,"Duration":93750,"SoundDuration":93750,"Delta":49118054},{"NoteNumber":58,"Velocity":29,"Duration":86705,"SoundDuration":86705,"Delta":49305554},{"NoteNumber":61,"Velocity":29,"Duration":86705,"SoundDuration":86705,"Delta":49305554},{"NoteNumber":66,"Velocity":35,"Duration":86705,"SoundDuration":86705,"Delta":49305554},{"NoteNumber":84,"Velocity":51,"Duration":43352,"SoundDuration":43352,"Delta":49435612},{"NoteNumber":82,"Velocity":57,"Duration":86705,"SoundDuration":86705,"Delta":49478965},{"NoteNumber":61,"Velocity":29,"Duration":86705,"SoundDuration":86705,"Delta":49478965},{"NoteNumber":58,"Velocity":29,"Duration":86705,"SoundDuration":86705,"Delta":49478965},{"NoteNumber":66,"Velocity":35,"Duration":86705,"SoundDuration":86705,"Delta":49478965},{"NoteNumber":81,"Velocity":52,"Duration":86705,"SoundDuration":86705,"Delta":49565670},{"NoteNumber":82,"Velocity":57,"Duration":86705,"SoundDuration":86705,"Delta":49652375},{"NoteNumber":58,"Velocity":29,"Duration":86705,"SoundDuration":86705,"Delta":49652375},{"NoteNumber":66,"Velocity":36,"Duration":86705,"SoundDuration":86705,"Delta":49652375},{"NoteNumber":61,"Velocity":29,"Duration":86705,"SoundDuration":86705,"Delta":49652375},{"NoteNumber":58,"Velocity":30,"Duration":86705,"SoundDuration":86705,"Delta":49825786},{"NoteNumber":61,"Velocity":30,"Duration":86705,"SoundDuration":86705,"Delta":49825786},{"NoteNumber":66,"Velocity":36,"Duration":86705,"SoundDuration":86705,"Delta":49825786},{"NoteNumber":87,"Velocity":53,"Duration":43352,"SoundDuration":43352,"Delta":49955844},{"NoteNumber":85,"Velocity":59,"Duration":86705,"SoundDuration":86705,"Delta":49999196},{"NoteNumber":61,"Velocity":30,"Duration":86705,"SoundDuration":86705,"Delta":49999196},{"NoteNumber":66,"Velocity":36,"Duration":86705,"SoundDuration":86705,"Delta":49999196},{"NoteNumber":58,"Velocity":30,"Duration":86705,"SoundDuration":86705,"Delta":49999196},{"NoteNumber":84,"Velocity":52,"Duration":86705,"SoundDuration":86705,"Delta":50085902},{"NoteNumber":85,"Velocity":63,"Duration":93750,"SoundDuration":93750,"Delta":50172607},{"NoteNumber":58,"Velocity":36,"Duration":93750,"SoundDuration":93750,"Delta":50172607},{"NoteNumber":61,"Velocity":36,"Duration":93750,"SoundDuration":93750,"Delta":50172607},{"NoteNumber":66,"Velocity":42,"Duration":93750,"SoundDuration":93750,"Delta":50172607},{"NoteNumber":61,"Velocity":31,"Duration":89285,"SoundDuration":89285,"Delta":50360107},{"NoteNumber":58,"Velocity":31,"Duration":89285,"SoundDuration":89285,"Delta":50360107},{"NoteNumber":66,"Velocity":37,"Duration":89285,"SoundDuration":89285,"Delta":50360107},{"NoteNumber":92,"Velocity":54,"Duration":44642,"SoundDuration":44642,"Delta":50494035},{"NoteNumber":90,"Velocity":60,"Duration":86956,"SoundDuration":86956,"Delta":50538678},{"NoteNumber":58,"Velocity":31,"Duration":86956,"SoundDuration":86956,"Delta":50538678},{"NoteNumber":66,"Velocity":37,"Duration":86956,"SoundDuration":86956,"Delta":50538678},{"NoteNumber":61,"Velocity":31,"Duration":86956,"SoundDuration":86956,"Delta":50538678},{"NoteNumber":89,"Velocity":55,"Duration":86956,"SoundDuration":86956,"Delta":50625635},{"NoteNumber":90,"Velocity":61,"Duration":86956,"SoundDuration":86956,"Delta":50712591},{"NoteNumber":58,"Velocity":31,"Duration":86956,"SoundDuration":86956,"Delta":50712591},{"NoteNumber":61,"Velocity":31,"Duration":86956,"SoundDuration":86956,"Delta":50712591},{"NoteNumber":66,"Velocity":38,"Duration":86956,"SoundDuration":86956,"Delta":50712591},{"NoteNumber":61,"Velocity":29,"Duration":86956,"SoundDuration":86956,"Delta":50886504},{"NoteNumber":66,"Velocity":35,"Duration":86956,"SoundDuration":86956,"Delta":50886504},{"NoteNumber":58,"Velocity":29,"Duration":86956,"SoundDuration":86956,"Delta":50886504},{"NoteNumber":87,"Velocity":51,"Duration":43478,"SoundDuration":43478,"Delta":51016939},{"NoteNumber":85,"Velocity":57,"Duration":91463,"SoundDuration":91463,"Delta":51060417},{"NoteNumber":58,"Velocity":29,"Duration":91463,"SoundDuration":91463,"Delta":51060417},{"NoteNumber":61,"Velocity":29,"Duration":91463,"SoundDuration":91463,"Delta":51060417},{"NoteNumber":66,"Velocity":35,"Duration":91463,"SoundDuration":91463,"Delta":51060417},{"NoteNumber":84,"Velocity":50,"Duration":91463,"SoundDuration":91463,"Delta":51151881},{"NoteNumber":85,"Velocity":60,"Duration":87976,"SoundDuration":87976,"Delta":51243344},{"NoteNumber":61,"Velocity":34,"Duration":87976,"SoundDuration":87976,"Delta":51243344},{"NoteNumber":58,"Velocity":34,"Duration":87976,"SoundDuration":87976,"Delta":51243344},{"NoteNumber":66,"Velocity":40,"Duration":87976,"SoundDuration":87976,"Delta":51243344},{"NoteNumber":58,"Velocity":29,"Duration":87976,"SoundDuration":87976,"Delta":51419297},{"NoteNumber":66,"Velocity":35,"Duration":87976,"SoundDuration":87976,"Delta":51419297},{"NoteNumber":61,"Velocity":29,"Duration":87976,"SoundDuration":87976,"Delta":51419297},{"NoteNumber":84,"Velocity":51,"Duration":43988,"SoundDuration":43988,"Delta":51551262},{"NoteNumber":82,"Velocity":56,"Duration":87976,"SoundDuration":87976,"Delta":51595250},{"NoteNumber":58,"Velocity":29,"Duration":87976,"SoundDuration":87976,"Delta":51595250},{"NoteNumber":61,"Velocity":29,"Duration":87976,"SoundDuration":87976,"Delta":51595250},{"NoteNumber":66,"Velocity":35,"Duration":87976,"SoundDuration":87976,"Delta":51595250},{"NoteNumber":81,"Velocity":51,"Duration":87976,"SoundDuration":87976,"Delta":51683227},{"NoteNumber":82,"Velocity":56,"Duration":87976,"SoundDuration":87976,"Delta":51771203},{"NoteNumber":61,"Velocity":29,"Duration":87976,"SoundDuration":87976,"Delta":51771203},{"NoteNumber":66,"Velocity":35,"Duration":87976,"SoundDuration":87976,"Delta":51771203},{"NoteNumber":58,"Velocity":29,"Duration":87976,"SoundDuration":87976,"Delta":51771203},{"NoteNumber":58,"Velocity":29,"Duration":87976,"SoundDuration":87976,"Delta":51947156},{"NoteNumber":61,"Velocity":29,"Duration":87976,"SoundDuration":87976,"Delta":51947156},{"NoteNumber":66,"Velocity":35,"Duration":87976,"SoundDuration":87976,"Delta":51947156},{"NoteNumber":80,"Velocity":51,"Duration":43988,"SoundDuration":43988,"Delta":52079121},{"NoteNumber":78,"Velocity":57,"Duration":90909,"SoundDuration":90909,"Delta":52123109},{"NoteNumber":61,"Velocity":29,"Duration":90909,"SoundDuration":90909,"Delta":52123109},{"NoteNumber":58,"Velocity":29,"Duration":90909,"SoundDuration":90909,"Delta":52123109},{"NoteNumber":66,"Velocity":35,"Duration":90909,"SoundDuration":90909,"Delta":52123109},{"NoteNumber":77,"Velocity":50,"Duration":90908,"SoundDuration":90908,"Delta":52214018},{"NoteNumber":78,"Velocity":60,"Duration":87463,"SoundDuration":87463,"Delta":52304927},{"NoteNumber":58,"Velocity":34,"Duration":87463,"SoundDuration":87463,"Delta":52304927},{"NoteNumber":66,"Velocity":40,"Duration":87463,"SoundDuration":87463,"Delta":52304927},{"NoteNumber":61,"Velocity":34,"Duration":87463,"SoundDuration":87463,"Delta":52304927},{"NoteNumber":58,"Velocity":29,"Duration":87463,"SoundDuration":87463,"Delta":52479854},{"NoteNumber":61,"Velocity":29,"Duration":87463,"SoundDuration":87463,"Delta":52479854},{"NoteNumber":66,"Velocity":35,"Duration":87463,"SoundDuration":87463,"Delta":52479854},{"NoteNumber":75,"Velocity":51,"Duration":43731,"SoundDuration":43731,"Delta":52611050},{"NoteNumber":73,"Velocity":56,"Duration":87463,"SoundDuration":87463,"Delta":52654781},{"NoteNumber":61,"Velocity":29,"Duration":87463,"SoundDuration":87463,"Delta":52654781},{"NoteNumber":66,"Velocity":35,"Duration":87463,"SoundDuration":87463,"Delta":52654781},{"NoteNumber":58,"Velocity":29,"Duration":87463,"SoundDuration":87463,"Delta":52654781},{"NoteNumber":72,"Velocity":51,"Duration":87463,"SoundDuration":87463,"Delta":52742245},{"NoteNumber":73,"Velocity":56,"Duration":349854,"SoundDuration":349854,"Delta":52829708},{"NoteNumber":58,"Velocity":29,"Duration":87463,"SoundDuration":87463,"Delta":52829708},{"NoteNumber":61,"Velocity":29,"Duration":87463,"SoundDuration":87463,"Delta":52829708},{"NoteNumber":66,"Velocity":35,"Duration":87463,"SoundDuration":87463,"Delta":52829708},{"NoteNumber":61,"Velocity":29,"Duration":87463,"SoundDuration":87463,"Delta":53004635},{"NoteNumber":58,"Velocity":29,"Duration":87463,"SoundDuration":87463,"Delta":53004635},{"NoteNumber":66,"Velocity":35,"Duration":87463,"SoundDuration":87463,"Delta":53004635},{"NoteNumber":58,"Velocity":29,"Duration":87463,"SoundDuration":87463,"Delta":53179562},{"NoteNumber":64,"Velocity":35,"Duration":87463,"SoundDuration":87463,"Delta":53179562},{"NoteNumber":61,"Velocity":29,"Duration":87463,"SoundDuration":87463,"Delta":53179562},{"NoteNumber":72,"Velocity":55,"Duration":93750,"SoundDuration":93750,"Delta":53354489},{"NoteNumber":57,"Velocity":34,"Duration":93750,"SoundDuration":93750,"Delta":53354489},{"NoteNumber":60,"Velocity":34,"Duration":93750,"SoundDuration":93750,"Delta":53354489},{"NoteNumber":65,"Velocity":40,"Duration":93750,"SoundDuration":93750,"Delta":53354489},{"NoteNumber":60,"Velocity":29,"Duration":87719,"SoundDuration":87719,"Delta":53541989},{"NoteNumber":65,"Velocity":35,"Duration":87719,"SoundDuration":87719,"Delta":53541989},{"NoteNumber":57,"Velocity":29,"Duration":87719,"SoundDuration":87719,"Delta":53541989},{"NoteNumber":82,"Velocity":51,"Duration":43859,"SoundDuration":43859,"Delta":53673568},{"NoteNumber":81,"Velocity":57,"Duration":87719,"SoundDuration":87719,"Delta":53717428},{"NoteNumber":65,"Velocity":35,"Duration":87719,"SoundDuration":87719,"Delta":53717428},{"NoteNumber":57,"Velocity":29,"Duration":87719,"SoundDuration":87719,"Delta":53717428},{"NoteNumber":60,"Velocity":29,"Duration":87719,"SoundDuration":87719,"Delta":53717428},{"NoteNumber":79,"Velocity":52,"Duration":87719,"SoundDuration":87719,"Delta":53805147},{"NoteNumber":81,"Velocity":57,"Duration":87719,"SoundDuration":87719,"Delta":53892866},{"NoteNumber":57,"Velocity":29,"Duration":87719,"SoundDuration":87719,"Delta":53892866},{"NoteNumber":60,"Velocity":29,"Duration":87719,"SoundDuration":87719,"Delta":53892866},{"NoteNumber":65,"Velocity":36,"Duration":87719,"SoundDuration":87719,"Delta":53892866},{"NoteNumber":60,"Velocity":30,"Duration":87719,"SoundDuration":87719,"Delta":54068305},{"NoteNumber":57,"Velocity":30,"Duration":87719,"SoundDuration":87719,"Delta":54068305},{"NoteNumber":65,"Velocity":36,"Duration":87719,"SoundDuration":87719,"Delta":54068305},{"NoteNumber":86,"Velocity":53,"Duration":43859,"SoundDuration":43859,"Delta":54199884},{"NoteNumber":84,"Velocity":59,"Duration":87719,"SoundDuration":87719,"Delta":54243743},{"NoteNumber":57,"Velocity":30,"Duration":87719,"SoundDuration":87719,"Delta":54243743},{"NoteNumber":65,"Velocity":36,"Duration":87719,"SoundDuration":87719,"Delta":54243743},{"NoteNumber":60,"Velocity":30,"Duration":87719,"SoundDuration":87719,"Delta":54243743},{"NoteNumber":83,"Velocity":52,"Duration":87719,"SoundDuration":87719,"Delta":54331463},{"NoteNumber":84,"Velocity":63,"Duration":93750,"SoundDuration":93750,"Delta":54419182},{"NoteNumber":57,"Velocity":36,"Duration":93750,"SoundDuration":93750,"Delta":54419182},{"NoteNumber":60,"Velocity":36,"Duration":93750,"SoundDuration":93750,"Delta":54419182},{"NoteNumber":65,"Velocity":42,"Duration":93750,"SoundDuration":93750,"Delta":54419182},{"NoteNumber":65,"Velocity":37,"Duration":87463,"SoundDuration":87463,"Delta":54606682},{"NoteNumber":57,"Velocity":31,"Duration":87463,"SoundDuration":87463,"Delta":54606682},{"NoteNumber":60,"Velocity":31,"Duration":87463,"SoundDuration":87463,"Delta":54606682},{"NoteNumber":90,"Velocity":55,"Duration":43731,"SoundDuration":43731,"Delta":54737877},{"NoteNumber":89,"Velocity":60,"Duration":87463,"SoundDuration":87463,"Delta":54781609},{"NoteNumber":57,"Velocity":31,"Duration":87463,"SoundDuration":87463,"Delta":54781609},{"NoteNumber":60,"Velocity":31,"Duration":87463,"SoundDuration":87463,"Delta":54781609},{"NoteNumber":65,"Velocity":37,"Duration":87463,"SoundDuration":87463,"Delta":54781609},{"NoteNumber":88,"Velocity":55,"Duration":87463,"SoundDuration":87463,"Delta":54869072},{"NoteNumber":89,"Velocity":61,"Duration":87463,"SoundDuration":87463,"Delta":54956536},{"NoteNumber":60,"Velocity":31,"Duration":87463,"SoundDuration":87463,"Delta":54956536},{"NoteNumber":57,"Velocity":31,"Duration":87463,"SoundDuration":87463,"Delta":54956536},{"NoteNumber":65,"Velocity":38,"Duration":87463,"SoundDuration":87463,"Delta":54956536},{"NoteNumber":57,"Velocity":29,"Duration":87463,"SoundDuration":87463,"Delta":55131463},{"NoteNumber":65,"Velocity":35,"Duration":87463,"SoundDuration":87463,"Delta":55131463},{"NoteNumber":60,"Velocity":29,"Duration":87463,"SoundDuration":87463,"Delta":55131463},{"NoteNumber":85,"Velocity":51,"Duration":43731,"SoundDuration":43731,"Delta":55262658},{"NoteNumber":84,"Velocity":57,"Duration":87463,"SoundDuration":87463,"Delta":55306390},{"NoteNumber":57,"Velocity":29,"Duration":87463,"SoundDuration":87463,"Delta":55306390},{"NoteNumber":60,"Velocity":29,"Duration":87463,"SoundDuration":87463,"Delta":55306390},{"NoteNumber":65,"Velocity":35,"Duration":87463,"SoundDuration":87463,"Delta":55306390},{"NoteNumber":83,"Velocity":50,"Duration":87463,"SoundDuration":87463,"Delta":55393853},{"NoteNumber":84,"Velocity":60,"Duration":93750,"SoundDuration":93750,"Delta":55481317},{"NoteNumber":65,"Velocity":40,"Duration":93750,"SoundDuration":93750,"Delta":55481317},{"NoteNumber":57,"Velocity":34,"Duration":93750,"SoundDuration":93750,"Delta":55481317},{"NoteNumber":60,"Velocity":34,"Duration":93750,"SoundDuration":93750,"Delta":55481317},{"NoteNumber":57,"Velocity":29,"Duration":87463,"SoundDuration":87463,"Delta":55668817},{"NoteNumber":60,"Velocity":29,"Duration":87463,"SoundDuration":87463,"Delta":55668817},{"NoteNumber":65,"Velocity":35,"Duration":87463,"SoundDuration":87463,"Delta":55668817},{"NoteNumber":82,"Velocity":51,"Duration":43731,"SoundDuration":43731,"Delta":55800012},{"NoteNumber":81,"Velocity":56,"Duration":87463,"SoundDuration":87463,"Delta":55843744},{"NoteNumber":60,"Velocity":29,"Duration":87463,"SoundDuration":87463,"Delta":55843744},{"NoteNumber":57,"Velocity":29,"Duration":87463,"SoundDuration":87463,"Delta":55843744},{"NoteNumber":65,"Velocity":35,"Duration":87463,"SoundDuration":87463,"Delta":55843744},{"NoteNumber":79,"Velocity":51,"Duration":87463,"SoundDuration":87463,"Delta":55931207},{"NoteNumber":81,"Velocity":56,"Duration":87463,"SoundDuration":87463,"Delta":56018671},{"NoteNumber":57,"Velocity":29,"Duration":87463,"SoundDuration":87463,"Delta":56018671},{"NoteNumber":65,"Velocity":35,"Duration":87463,"SoundDuration":87463,"Delta":56018671},{"NoteNumber":60,"Velocity":29,"Duration":87463,"SoundDuration":87463,"Delta":56018671},{"NoteNumber":57,"Velocity":29,"Duration":87463,"SoundDuration":87463,"Delta":56193598},{"NoteNumber":60,"Velocity":29,"Duration":87463,"SoundDuration":87463,"Delta":56193598},{"NoteNumber":65,"Velocity":35,"Duration":87463,"SoundDuration":87463,"Delta":56193598},{"NoteNumber":78,"Velocity":51,"Duration":43731,"SoundDuration":43731,"Delta":56324793},{"NoteNumber":77,"Velocity":57,"Duration":87463,"SoundDuration":87463,"Delta":56368525},{"NoteNumber":65,"Velocity":35,"Duration":87463,"SoundDuration":87463,"Delta":56368525},{"NoteNumber":57,"Velocity":29,"Duration":87463,"SoundDuration":87463,"Delta":56368525},{"NoteNumber":60,"Velocity":29,"Duration":87463,"SoundDuration":87463,"Delta":56368525},{"NoteNumber":76,"Velocity":50,"Duration":87463,"SoundDuration":87463,"Delta":56455988},{"NoteNumber":77,"Velocity":60,"Duration":93750,"SoundDuration":93750,"Delta":56543452},{"NoteNumber":60,"Velocity":34,"Duration":93750,"SoundDuration":93750,"Delta":56543452},{"NoteNumber":57,"Velocity":34,"Duration":93750,"SoundDuration":93750,"Delta":56543452},{"NoteNumber":65,"Velocity":40,"Duration":93750,"SoundDuration":93750,"Delta":56543452},{"NoteNumber":60,"Velocity":29,"Duration":88235,"SoundDuration":88235,"Delta":56730952},{"NoteNumber":57,"Velocity":29,"Duration":88235,"SoundDuration":88235,"Delta":56730952},{"NoteNumber":65,"Velocity":35,"Duration":88235,"SoundDuration":88235,"Delta":56730952},{"NoteNumber":73,"Velocity":51,"Duration":44117,"SoundDuration":44117,"Delta":56863305},{"NoteNumber":72,"Velocity":56,"Duration":88235,"SoundDuration":88235,"Delta":56907422},{"NoteNumber":57,"Velocity":29,"Duration":88235,"SoundDuration":88235,"Delta":56907422},{"NoteNumber":60,"Velocity":29,"Duration":88235,"SoundDuration":88235,"Delta":56907422},{"NoteNumber":65,"Velocity":35,"Duration":88235,"SoundDuration":88235,"Delta":56907422},{"NoteNumber":71,"Velocity":51,"Duration":88235,"SoundDuration":88235,"Delta":56995657},{"NoteNumber":72,"Velocity":56,"Duration":176470,"SoundDuration":176470,"Delta":57083893},{"NoteNumber":57,"Velocity":29,"Duration":176470,"SoundDuration":176470,"Delta":57083893},{"NoteNumber":60,"Velocity":29,"Duration":176470,"SoundDuration":176470,"Delta":57083893},{"NoteNumber":65,"Velocity":35,"Duration":176470,"SoundDuration":176470,"Delta":57083893},{"NoteNumber":53,"Velocity":35,"Duration":176470,"SoundDuration":176470,"Delta":57260363},{"NoteNumber":73,"Velocity":61,"Duration":186915,"SoundDuration":186915,"Delta":57436834},{"NoteNumber":51,"Velocity":35,"Duration":186915,"SoundDuration":186915,"Delta":57436834},{"NoteNumber":74,"Velocity":56,"Duration":549367,"SoundDuration":549367,"Delta":57623750},{"NoteNumber":65,"Velocity":35,"Duration":92024,"SoundDuration":92024,"Delta":57623750},{"NoteNumber":46,"Velocity":40,"Duration":1093174,"SoundDuration":1093174,"Delta":57623750},{"NoteNumber":50,"Velocity":40,"Duration":368098,"SoundDuration":368098,"Delta":57623750},{"NoteNumber":67,"Velocity":31,"Duration":92024,"SoundDuration":92024,"Delta":57715774},{"NoteNumber":65,"Velocity":35,"Duration":92024,"SoundDuration":92024,"Delta":57807799},{"NoteNumber":67,"Velocity":31,"Duration":92024,"SoundDuration":92024,"Delta":57899823},{"NoteNumber":65,"Velocity":34,"Duration":90634,"SoundDuration":90634,"Delta":57991848},{"NoteNumber":55,"Velocity":33,"Duration":181269,"SoundDuration":181269,"Delta":57991848},{"NoteNumber":67,"Velocity":31,"Duration":90634,"SoundDuration":90634,"Delta":58082482},{"NoteNumber":65,"Velocity":36,"Duration":90634,"SoundDuration":90634,"Delta":58173117},{"NoteNumber":70,"Velocity":55,"Duration":543807,"SoundDuration":543807,"Delta":58173117},{"NoteNumber":53,"Velocity":42,"Duration":362538,"SoundDuration":362538,"Delta":58173117},{"NoteNumber":67,"Velocity":32,"Duration":90634,"SoundDuration":90634,"Delta":58263751},{"NoteNumber":65,"Velocity":36,"Duration":90634,"SoundDuration":90634,"Delta":58354386},{"NoteNumber":67,"Velocity":31,"Duration":90634,"SoundDuration":90634,"Delta":58445020},{"NoteNumber":65,"Velocity":37,"Duration":90634,"SoundDuration":90634,"Delta":58535655},{"NoteNumber":50,"Velocity":39,"Duration":181269,"SoundDuration":181269,"Delta":58535655},{"NoteNumber":67,"Velocity":31,"Duration":90634,"SoundDuration":90634,"Delta":58626289},{"NoteNumber":65,"Velocity":37,"Duration":89552,"SoundDuration":89552,"Delta":58716924},{"NoteNumber":69,"Velocity":59,"Duration":537313,"SoundDuration":537313,"Delta":58716924},{"NoteNumber":41,"Velocity":42,"Duration":1082851,"SoundDuration":1082851,"Delta":58716924},{"NoteNumber":48,"Velocity":42,"Duration":358209,"SoundDuration":358209,"Delta":58716924},{"NoteNumber":67,"Velocity":33,"Duration":89552,"SoundDuration":89552,"Delta":58806476},{"NoteNumber":65,"Velocity":37,"Duration":89552,"SoundDuration":89552,"Delta":58896028},{"NoteNumber":67,"Velocity":33,"Duration":89552,"SoundDuration":89552,"Delta":58985580},{"NoteNumber":65,"Velocity":37,"Duration":89552,"SoundDuration":89552,"Delta":59075133},{"NoteNumber":55,"Velocity":36,"Duration":179104,"SoundDuration":179104,"Delta":59075133},{"NoteNumber":67,"Velocity":34,"Duration":89552,"SoundDuration":89552,"Delta":59164685},{"NoteNumber":65,"Velocity":38,"Duration":89552,"SoundDuration":89552,"Delta":59254237},{"NoteNumber":75,"Velocity":59,"Duration":545537,"SoundDuration":545537,"Delta":59254237},{"NoteNumber":53,"Velocity":45,"Duration":360922,"SoundDuration":360922,"Delta":59254237},{"NoteNumber":67,"Velocity":34,"Duration":89552,"SoundDuration":89552,"Delta":59343790},{"NoteNumber":65,"Velocity":39,"Duration":90909,"SoundDuration":90909,"Delta":59433342},{"NoteNumber":67,"Velocity":33,"Duration":90908,"SoundDuration":90908,"Delta":59524251},{"NoteNumber":65,"Velocity":39,"Duration":92307,"SoundDuration":92307,"Delta":59615160},{"NoteNumber":48,"Velocity":41,"Duration":184615,"SoundDuration":184615,"Delta":59615160},{"NoteNumber":67,"Velocity":34,"Duration":92307,"SoundDuration":92307,"Delta":59707468},{"NoteNumber":65,"Velocity":40,"Duration":91185,"SoundDuration":91185,"Delta":59799775},{"NoteNumber":74,"Velocity":64,"Duration":544382,"SoundDuration":544382,"Delta":59799775},{"NoteNumber":46,"Velocity":46,"Duration":1083303,"SoundDuration":1083303,"Delta":59799775},{"NoteNumber":50,"Velocity":46,"Duration":364741,"SoundDuration":364741,"Delta":59799775},{"NoteNumber":67,"Velocity":35,"Duration":91185,"SoundDuration":91185,"Delta":59890961},{"NoteNumber":65,"Velocity":39,"Duration":91185,"SoundDuration":91185,"Delta":59982146},{"NoteNumber":67,"Velocity":35,"Duration":91185,"SoundDuration":91185,"Delta":60073332},{"NoteNumber":65,"Velocity":38,"Duration":89820,"SoundDuration":89820,"Delta":60164517},{"NoteNumber":55,"Velocity":37,"Duration":179640,"SoundDuration":179640,"Delta":60164517},{"NoteNumber":67,"Velocity":34,"Duration":89820,"SoundDuration":89820,"Delta":60254338},{"NoteNumber":65,"Velocity":39,"Duration":89820,"SoundDuration":89820,"Delta":60344158},{"NoteNumber":70,"Velocity":60,"Duration":538921,"SoundDuration":538921,"Delta":60344158},{"NoteNumber":53,"Velocity":45,"Duration":359281,"SoundDuration":359281,"Delta":60344158},{"NoteNumber":67,"Velocity":34,"Duration":89820,"SoundDuration":89820,"Delta":60433978},{"NoteNumber":65,"Velocity":38,"Duration":89820,"SoundDuration":89820,"Delta":60523798},{"NoteNumber":67,"Velocity":33,"Duration":89820,"SoundDuration":89820,"Delta":60613618},{"NoteNumber":65,"Velocity":38,"Duration":89820,"SoundDuration":89820,"Delta":60703439},{"NoteNumber":50,"Velocity":40,"Duration":179640,"SoundDuration":179640,"Delta":60703439},{"NoteNumber":67,"Velocity":32,"Duration":89820,"SoundDuration":89820,"Delta":60793259},{"NoteNumber":65,"Velocity":37,"Duration":89820,"SoundDuration":89820,"Delta":60883079},{"NoteNumber":69,"Velocity":60,"Duration":538921,"SoundDuration":538921,"Delta":60883079},{"NoteNumber":41,"Velocity":43,"Duration":1082197,"SoundDuration":1082197,"Delta":60883079},{"NoteNumber":48,"Velocity":43,"Duration":359281,"SoundDuration":359281,"Delta":60883079},{"NoteNumber":67,"Velocity":33,"Duration":89820,"SoundDuration":89820,"Delta":60972899},{"NoteNumber":65,"Velocity":37,"Duration":89820,"SoundDuration":89820,"Delta":61062720},{"NoteNumber":67,"Velocity":32,"Duration":89820,"SoundDuration":89820,"Delta":61152540},{"NoteNumber":65,"Velocity":35,"Duration":89820,"SoundDuration":89820,"Delta":61242360},{"NoteNumber":55,"Velocity":34,"Duration":179640,"SoundDuration":179640,"Delta":61242360},{"NoteNumber":67,"Velocity":32,"Duration":89820,"SoundDuration":89820,"Delta":61332180},{"NoteNumber":65,"Velocity":36,"Duration":89820,"SoundDuration":89820,"Delta":61422001},{"NoteNumber":75,"Velocity":56,"Duration":543276,"SoundDuration":543276,"Delta":61422001},{"NoteNumber":53,"Velocity":42,"Duration":361458,"SoundDuration":361458,"Delta":61422001},{"NoteNumber":67,"Velocity":32,"Duration":89820,"SoundDuration":89820,"Delta":61511821},{"NoteNumber":65,"Velocity":36,"Duration":90909,"SoundDuration":90909,"Delta":61601641},{"NoteNumber":67,"Velocity":30,"Duration":90908,"SoundDuration":90908,"Delta":61692550},{"NoteNumber":65,"Velocity":35,"Duration":90909,"SoundDuration":90909,"Delta":61783459},{"NoteNumber":48,"Velocity":37,"Duration":181817,"SoundDuration":181817,"Delta":61783459},{"NoteNumber":67,"Velocity":30,"Duration":90908,"SoundDuration":90908,"Delta":61874368},{"NoteNumber":74,"Velocity":51,"Duration":93750,"SoundDuration":93750,"Delta":61965277},{"NoteNumber":50,"Velocity":40,"Duration":93750,"SoundDuration":93750,"Delta":61965277},{"NoteNumber":46,"Velocity":34,"Duration":93750,"SoundDuration":93750,"Delta":61965277},{"NoteNumber":77,"Velocity":45,"Duration":93750,"SoundDuration":93750,"Delta":62059027},{"NoteNumber":79,"Velocity":48,"Duration":60240,"SoundDuration":60240,"Delta":62152777},{"NoteNumber":50,"Velocity":29,"Duration":90307,"SoundDuration":90307,"Delta":62152777},{"NoteNumber":53,"Velocity":29,"Duration":90307,"SoundDuration":90307,"Delta":62152777},{"NoteNumber":58,"Velocity":35,"Duration":90307,"SoundDuration":90307,"Delta":62152777},{"NoteNumber":81,"Velocity":50,"Duration":60096,"SoundDuration":60096,"Delta":62213018},{"NoteNumber":82,"Velocity":52,"Duration":59909,"SoundDuration":59909,"Delta":62273114},{"NoteNumber":84,"Velocity":54,"Duration":59766,"SoundDuration":59766,"Delta":62333024},{"NoteNumber":50,"Velocity":29,"Duration":89585,"SoundDuration":89585,"Delta":62333024},{"NoteNumber":53,"Velocity":29,"Duration":89585,"SoundDuration":89585,"Delta":62333024},{"NoteNumber":58,"Velocity":35,"Duration":89585,"SoundDuration":89585,"Delta":62333024},{"NoteNumber":86,"Velocity":56,"Duration":59581,"SoundDuration":59581,"Delta":62392790},{"NoteNumber":87,"Velocity":59,"Duration":59395,"SoundDuration":59395,"Delta":62452372},{"NoteNumber":89,"Velocity":61,"Duration":88829,"SoundDuration":88829,"Delta":62511767},{"NoteNumber":50,"Velocity":29,"Duration":88829,"SoundDuration":88829,"Delta":62511767},{"NoteNumber":53,"Velocity":29,"Duration":88829,"SoundDuration":88829,"Delta":62511767},{"NoteNumber":58,"Velocity":35,"Duration":88829,"SoundDuration":88829,"Delta":62511767},{"NoteNumber":87,"Velocity":60,"Duration":88391,"SoundDuration":88391,"Delta":62600597},{"NoteNumber":86,"Velocity":58,"Duration":88391,"SoundDuration":88391,"Delta":62688989},{"NoteNumber":50,"Velocity":29,"Duration":88391,"SoundDuration":88391,"Delta":62688989},{"NoteNumber":53,"Velocity":29,"Duration":88391,"SoundDuration":88391,"Delta":62688989},{"NoteNumber":58,"Velocity":35,"Duration":88391,"SoundDuration":88391,"Delta":62688989},{"NoteNumber":84,"Velocity":57,"Duration":88705,"SoundDuration":88705,"Delta":62777380},{"NoteNumber":82,"Velocity":55,"Duration":89073,"SoundDuration":89073,"Delta":62866085},{"NoteNumber":50,"Velocity":29,"Duration":89073,"SoundDuration":89073,"Delta":62866085},{"NoteNumber":53,"Velocity":29,"Duration":89073,"SoundDuration":89073,"Delta":62866085},{"NoteNumber":58,"Velocity":35,"Duration":89073,"SoundDuration":89073,"Delta":62866085},{"NoteNumber":81,"Velocity":54,"Duration":89392,"SoundDuration":89392,"Delta":62955159},{"NoteNumber":79,"Velocity":51,"Duration":93750,"SoundDuration":93750,"Delta":63044551},{"NoteNumber":81,"Velocity":45,"Duration":93170,"SoundDuration":93170,"Delta":63138301},{"NoteNumber":82,"Velocity":48,"Duration":90036,"SoundDuration":90036,"Delta":63231472},{"NoteNumber":51,"Velocity":29,"Duration":90036,"SoundDuration":90036,"Delta":63231472},{"NoteNumber":55,"Velocity":29,"Duration":90036,"SoundDuration":90036,"Delta":63231472},{"NoteNumber":58,"Velocity":35,"Duration":90036,"SoundDuration":90036,"Delta":63231472},{"NoteNumber":84,"Velocity":50,"Duration":89755,"SoundDuration":89755,"Delta":63321508},{"NoteNumber":86,"Velocity":54,"Duration":59701,"SoundDuration":59701,"Delta":63411263},{"NoteNumber":51,"Velocity":29,"Duration":89476,"SoundDuration":89476,"Delta":63411263},{"NoteNumber":55,"Velocity":29,"Duration":89476,"SoundDuration":89476,"Delta":63411263},{"NoteNumber":58,"Velocity":35,"Duration":89476,"SoundDuration":89476,"Delta":63411263},{"NoteNumber":87,"Velocity":56,"Duration":59537,"SoundDuration":59537,"Delta":63470965},{"NoteNumber":89,"Velocity":59,"Duration":59439,"SoundDuration":59439,"Delta":63530502},{"NoteNumber":91,"Velocity":61,"Duration":88884,"SoundDuration":88884,"Delta":63589942},{"NoteNumber":51,"Velocity":29,"Duration":88884,"SoundDuration":88884,"Delta":63589942},{"NoteNumber":55,"Velocity":29,"Duration":88884,"SoundDuration":88884,"Delta":63589942},{"NoteNumber":58,"Velocity":35,"Duration":88884,"SoundDuration":88884,"Delta":63589942},{"NoteNumber":89,"Velocity":60,"Duration":88757,"SoundDuration":88757,"Delta":63678827},{"NoteNumber":87,"Velocity":58,"Duration":59283,"SoundDuration":59283,"Delta":63767584},{"NoteNumber":51,"Velocity":29,"Duration":88957,"SoundDuration":88957,"Delta":63767584},{"NoteNumber":55,"Velocity":29,"Duration":88957,"SoundDuration":88957,"Delta":63767584},{"NoteNumber":58,"Velocity":35,"Duration":88957,"SoundDuration":88957,"Delta":63767584},{"NoteNumber":86,"Velocity":57,"Duration":59347,"SoundDuration":59347,"Delta":63826868},{"NoteNumber":84,"Velocity":56,"Duration":59389,"SoundDuration":59389,"Delta":63886215},{"NoteNumber":82,"Velocity":55,"Duration":59523,"SoundDuration":59523,"Delta":63945604},{"NoteNumber":51,"Velocity":29,"Duration":89285,"SoundDuration":89285,"Delta":63945604},{"NoteNumber":55,"Velocity":29,"Duration":89285,"SoundDuration":89285,"Delta":63945604},{"NoteNumber":60,"Velocity":35,"Duration":89285,"SoundDuration":89285,"Delta":63945604},{"NoteNumber":81,"Velocity":54,"Duration":59523,"SoundDuration":59523,"Delta":64005128},{"NoteNumber":79,"Velocity":53,"Duration":59672,"SoundDuration":59672,"Delta":64064652},{"NoteNumber":77,"Velocity":57,"Duration":93750,"SoundDuration":93750,"Delta":64124324},{"NoteNumber":86,"Velocity":49,"Duration":93750,"SoundDuration":93750,"Delta":64218074},{"NoteNumber":82,"Velocity":59,"Duration":90350,"SoundDuration":90350,"Delta":64311824},{"NoteNumber":53,"Velocity":29,"Duration":90350,"SoundDuration":90350,"Delta":64311824},{"NoteNumber":58,"Velocity":29,"Duration":90350,"SoundDuration":90350,"Delta":64311824},{"NoteNumber":62,"Velocity":35,"Duration":90350,"SoundDuration":90350,"Delta":64311824},{"NoteNumber":89,"Velocity":55,"Duration":90067,"SoundDuration":90067,"Delta":64402175},{"NoteNumber":86,"Velocity":62,"Duration":89744,"SoundDuration":89744,"Delta":64492242},{"NoteNumber":53,"Velocity":29,"Duration":89744,"SoundDuration":89744,"Delta":64492242},{"NoteNumber":58,"Velocity":29,"Duration":89744,"SoundDuration":89744,"Delta":64492242},{"NoteNumber":62,"Velocity":35,"Duration":89744,"SoundDuration":89744,"Delta":64492242},{"NoteNumber":94,"Velocity":57,"Duration":89467,"SoundDuration":89467,"Delta":64581986},{"NoteNumber":89,"Velocity":62,"Duration":59517,"SoundDuration":59517,"Delta":64671454},{"NoteNumber":53,"Velocity":29,"Duration":89190,"SoundDuration":89190,"Delta":64671454},{"NoteNumber":58,"Velocity":29,"Duration":89190,"SoundDuration":89190,"Delta":64671454},{"NoteNumber":62,"Velocity":35,"Duration":89190,"SoundDuration":89190,"Delta":64671454},{"NoteNumber":98,"Velocity":57,"Duration":59334,"SoundDuration":59334,"Delta":64730971},{"NoteNumber":94,"Velocity":55,"Duration":59193,"SoundDuration":59193,"Delta":64790305},{"NoteNumber":101,"Velocity":61,"Duration":59375,"SoundDuration":59375,"Delta":64849499},{"NoteNumber":53,"Velocity":29,"Duration":89137,"SoundDuration":89137,"Delta":64849499},{"NoteNumber":58,"Velocity":29,"Duration":89137,"SoundDuration":89137,"Delta":64849499},{"NoteNumber":62,"Velocity":35,"Duration":89137,"SoundDuration":89137,"Delta":64849499},{"NoteNumber":98,"Velocity":53,"Duration":59559,"SoundDuration":59559,"Delta":64908875},{"NoteNumber":94,"Velocity":54,"Duration":59743,"SoundDuration":59743,"Delta":64968434},{"NoteNumber":89,"Velocity":59,"Duration":59929,"SoundDuration":59929,"Delta":65028178},{"NoteNumber":53,"Velocity":29,"Duration":89959,"SoundDuration":89959,"Delta":65028178},{"NoteNumber":58,"Velocity":29,"Duration":89959,"SoundDuration":89959,"Delta":65028178},{"NoteNumber":62,"Velocity":35,"Duration":89959,"SoundDuration":89959,"Delta":65028178},{"NoteNumber":86,"Velocity":53,"Duration":60118,"SoundDuration":60118,"Delta":65088108},{"NoteNumber":82,"Velocity":53,"Duration":60306,"SoundDuration":60306,"Delta":65148227},{"NoteNumber":77,"Velocity":59,"Duration":361768,"SoundDuration":361768,"Delta":65208534},{"NoteNumber":62,"Velocity":35,"Duration":90634,"SoundDuration":90634,"Delta":65208534},{"NoteNumber":53,"Velocity":29,"Duration":90634,"SoundDuration":90634,"Delta":65208534},{"NoteNumber":58,"Velocity":29,"Duration":90634,"SoundDuration":90634,"Delta":65208534},{"NoteNumber":53,"Velocity":29,"Duration":90391,"SoundDuration":90391,"Delta":65389803},{"NoteNumber":58,"Velocity":29,"Duration":90391,"SoundDuration":90391,"Delta":65389803},{"NoteNumber":62,"Velocity":35,"Duration":90391,"SoundDuration":90391,"Delta":65389803},{"NoteNumber":62,"Velocity":35,"Duration":89780,"SoundDuration":89780,"Delta":65570302},{"NoteNumber":58,"Velocity":29,"Duration":89780,"SoundDuration":89780,"Delta":65570302},{"NoteNumber":53,"Velocity":29,"Duration":89780,"SoundDuration":89780,"Delta":65570302},{"NoteNumber":84,"Velocity":59,"Duration":60438,"SoundDuration":60438,"Delta":65749579},{"NoteNumber":53,"Velocity":29,"Duration":90686,"SoundDuration":90686,"Delta":65749579},{"NoteNumber":57,"Velocity":29,"Duration":90686,"SoundDuration":90686,"Delta":65749579},{"NoteNumber":63,"Velocity":35,"Duration":90686,"SoundDuration":90686,"Delta":65749579},{"NoteNumber":86,"Velocity":52,"Duration":60400,"SoundDuration":60400,"Delta":65810017},{"NoteNumber":84,"Velocity":59,"Duration":60024,"SoundDuration":60024,"Delta":65870418},{"NoteNumber":86,"Velocity":54,"Duration":59442,"SoundDuration":59442,"Delta":65930442},{"NoteNumber":53,"Velocity":29,"Duration":89235,"SoundDuration":89235,"Delta":65930442},{"NoteNumber":57,"Velocity":29,"Duration":89235,"SoundDuration":89235,"Delta":65930442},{"NoteNumber":63,"Velocity":35,"Duration":89235,"SoundDuration":89235,"Delta":65930442},{"NoteNumber":84,"Velocity":59,"Duration":59679,"SoundDuration":59679,"Delta":65989885},{"NoteNumber":86,"Velocity":53,"Duration":59965,"SoundDuration":59965,"Delta":66049564},{"NoteNumber":84,"Velocity":59,"Duration":60343,"SoundDuration":60343,"Delta":66109530},{"NoteNumber":53,"Velocity":29,"Duration":90646,"SoundDuration":90646,"Delta":66109530},{"NoteNumber":57,"Velocity":29,"Duration":90646,"SoundDuration":90646,"Delta":66109530},{"NoteNumber":63,"Velocity":35,"Duration":90646,"SoundDuration":90646,"Delta":66109530},{"NoteNumber":86,"Velocity":53,"Duration":60606,"SoundDuration":60606,"Delta":66169873},{"NoteNumber":84,"Velocity":56,"Duration":60605,"SoundDuration":60605,"Delta":66230479},{"NoteNumber":86,"Velocity":61,"Duration":549367,"SoundDuration":549367,"Delta":66291085},{"NoteNumber":77,"Velocity":41,"Duration":92024,"SoundDuration":92024,"Delta":66291085},{"NoteNumber":58,"Velocity":40,"Duration":1093174,"SoundDuration":1093174,"Delta":66291085},{"NoteNumber":62,"Velocity":40,"Duration":368098,"SoundDuration":368098,"Delta":66291085},{"NoteNumber":79,"Velocity":31,"Duration":92024,"SoundDuration":92024,"Delta":66383110},{"NoteNumber":77,"Velocity":35,"Duration":92024,"SoundDuration":92024,"Delta":66475134},{"NoteNumber":79,"Velocity":31,"Duration":92024,"SoundDuration":92024,"Delta":66567159},{"NoteNumber":77,"Velocity":34,"Duration":90634,"SoundDuration":90634,"Delta":66659183},{"NoteNumber":67,"Velocity":33,"Duration":181269,"SoundDuration":181269,"Delta":66659183},{"NoteNumber":79,"Velocity":31,"Duration":90634,"SoundDuration":90634,"Delta":66749818},{"NoteNumber":77,"Velocity":36,"Duration":90634,"SoundDuration":90634,"Delta":66840452},{"NoteNumber":82,"Velocity":55,"Duration":543807,"SoundDuration":543807,"Delta":66840452},{"NoteNumber":65,"Velocity":42,"Duration":362538,"SoundDuration":362538,"Delta":66840452},{"NoteNumber":79,"Velocity":32,"Duration":90634,"SoundDuration":90634,"Delta":66931087},{"NoteNumber":77,"Velocity":36,"Duration":90634,"SoundDuration":90634,"Delta":67021721},{"NoteNumber":79,"Velocity":31,"Duration":90634,"SoundDuration":90634,"Delta":67112356},{"NoteNumber":77,"Velocity":37,"Duration":90634,"SoundDuration":90634,"Delta":67202990},{"NoteNumber":62,"Velocity":39,"Duration":181269,"SoundDuration":181269,"Delta":67202990},{"NoteNumber":79,"Velocity":31,"Duration":90634,"SoundDuration":90634,"Delta":67293625},{"NoteNumber":77,"Velocity":37,"Duration":89552,"SoundDuration":89552,"Delta":67384259},{"NoteNumber":81,"Velocity":59,"Duration":537313,"SoundDuration":537313,"Delta":67384259},{"NoteNumber":53,"Velocity":42,"Duration":1082851,"SoundDuration":1082851,"Delta":67384259},{"NoteNumber":60,"Velocity":42,"Duration":358209,"SoundDuration":358209,"Delta":67384259},{"NoteNumber":79,"Velocity":33,"Duration":89552,"SoundDuration":89552,"Delta":67473811},{"NoteNumber":77,"Velocity":37,"Duration":89552,"SoundDuration":89552,"Delta":67563364},{"NoteNumber":79,"Velocity":33,"Duration":89552,"SoundDuration":89552,"Delta":67652916},{"NoteNumber":77,"Velocity":37,"Duration":89552,"SoundDuration":89552,"Delta":67742468},{"NoteNumber":67,"Velocity":36,"Duration":179104,"SoundDuration":179104,"Delta":67742468},{"NoteNumber":79,"Velocity":34,"Duration":89552,"SoundDuration":89552,"Delta":67832020},{"NoteNumber":77,"Velocity":38,"Duration":89552,"SoundDuration":89552,"Delta":67921573},{"NoteNumber":87,"Velocity":59,"Duration":545538,"SoundDuration":545538,"Delta":67921573},{"NoteNumber":65,"Velocity":45,"Duration":360922,"SoundDuration":360922,"Delta":67921573},{"NoteNumber":79,"Velocity":34,"Duration":89552,"SoundDuration":89552,"Delta":68011125},{"NoteNumber":77,"Velocity":39,"Duration":90908,"SoundDuration":90908,"Delta":68100677},{"NoteNumber":79,"Velocity":33,"Duration":90909,"SoundDuration":90909,"Delta":68191586},{"NoteNumber":77,"Velocity":39,"Duration":92307,"SoundDuration":92307,"Delta":68282495},{"NoteNumber":60,"Velocity":41,"Duration":184615,"SoundDuration":184615,"Delta":68282495},{"NoteNumber":79,"Velocity":34,"Duration":92307,"SoundDuration":92307,"Delta":68374803},{"NoteNumber":77,"Velocity":40,"Duration":91185,"SoundDuration":91185,"Delta":68467111},{"NoteNumber":86,"Velocity":64,"Duration":544382,"SoundDuration":544382,"Delta":68467111},{"NoteNumber":58,"Velocity":46,"Duration":1083304,"SoundDuration":1083304,"Delta":68467111},{"NoteNumber":62,"Velocity":46,"Duration":364742,"SoundDuration":364742,"Delta":68467111},{"NoteNumber":79,"Velocity":35,"Duration":91185,"SoundDuration":91185,"Delta":68558296},{"NoteNumber":77,"Velocity":39,"Duration":91185,"SoundDuration":91185,"Delta":68649482},{"NoteNumber":79,"Velocity":35,"Duration":91185,"SoundDuration":91185,"Delta":68740667},{"NoteNumber":77,"Velocity":38,"Duration":89820,"SoundDuration":89820,"Delta":68831853},{"NoteNumber":67,"Velocity":37,"Duration":179640,"SoundDuration":179640,"Delta":68831853},{"NoteNumber":79,"Velocity":34,"Duration":89820,"SoundDuration":89820,"Delta":68921673},{"NoteNumber":82,"Velocity":60,"Duration":538921,"SoundDuration":538921,"Delta":69011493},{"NoteNumber":77,"Velocity":39,"Duration":89820,"SoundDuration":89820,"Delta":69011493},{"NoteNumber":65,"Velocity":45,"Duration":359280,"SoundDuration":359280,"Delta":69011493},{"NoteNumber":79,"Velocity":34,"Duration":89820,"SoundDuration":89820,"Delta":69101313},{"NoteNumber":77,"Velocity":38,"Duration":89820,"SoundDuration":89820,"Delta":69191134},{"NoteNumber":79,"Velocity":33,"Duration":89820,"SoundDuration":89820,"Delta":69280954},{"NoteNumber":77,"Velocity":38,"Duration":89820,"SoundDuration":89820,"Delta":69370774},{"NoteNumber":62,"Velocity":40,"Duration":179640,"SoundDuration":179640,"Delta":69370774},{"NoteNumber":79,"Velocity":32,"Duration":89820,"SoundDuration":89820,"Delta":69460594},{"NoteNumber":77,"Velocity":37,"Duration":89820,"SoundDuration":89820,"Delta":69550415},{"NoteNumber":81,"Velocity":60,"Duration":538921,"SoundDuration":538921,"Delta":69550415},{"NoteNumber":53,"Velocity":43,"Duration":1082197,"SoundDuration":1082197,"Delta":69550415},{"NoteNumber":60,"Velocity":43,"Duration":359280,"SoundDuration":359280,"Delta":69550415},{"NoteNumber":79,"Velocity":33,"Duration":89820,"SoundDuration":89820,"Delta":69640235},{"NoteNumber":77,"Velocity":37,"Duration":89820,"SoundDuration":89820,"Delta":69730055},{"NoteNumber":79,"Velocity":32,"Duration":89820,"SoundDuration":89820,"Delta":69819875},{"NoteNumber":77,"Velocity":35,"Duration":89820,"SoundDuration":89820,"Delta":69909696},{"NoteNumber":67,"Velocity":34,"Duration":179640,"SoundDuration":179640,"Delta":69909696},{"NoteNumber":79,"Velocity":32,"Duration":89820,"SoundDuration":89820,"Delta":69999516},{"NoteNumber":87,"Velocity":56,"Duration":543276,"SoundDuration":543276,"Delta":70089336},{"NoteNumber":77,"Velocity":36,"Duration":89820,"SoundDuration":89820,"Delta":70089336},{"NoteNumber":65,"Velocity":42,"Duration":361458,"SoundDuration":361458,"Delta":70089336},{"NoteNumber":79,"Velocity":32,"Duration":89820,"SoundDuration":89820,"Delta":70179156},{"NoteNumber":77,"Velocity":36,"Duration":90908,"SoundDuration":90908,"Delta":70268977},{"NoteNumber":79,"Velocity":30,"Duration":90909,"SoundDuration":90909,"Delta":70359886},{"NoteNumber":77,"Velocity":35,"Duration":90908,"SoundDuration":90908,"Delta":70450795},{"NoteNumber":60,"Velocity":37,"Duration":181817,"SoundDuration":181817,"Delta":70450795},{"NoteNumber":79,"Velocity":30,"Duration":90908,"SoundDuration":90908,"Delta":70541704},{"NoteNumber":62,"Velocity":51,"Duration":93750,"SoundDuration":93750,"Delta":70632613},{"NoteNumber":65,"Velocity":51,"Duration":93750,"SoundDuration":93750,"Delta":70632613},{"NoteNumber":67,"Velocity":45,"Duration":93750,"SoundDuration":93750,"Delta":70726363},{"NoteNumber":86,"Velocity":45,"Duration":90307,"SoundDuration":90307,"Delta":70820113},{"NoteNumber":82,"Velocity":45,"Duration":90307,"SoundDuration":90307,"Delta":70820113},{"NoteNumber":69,"Velocity":50,"Duration":90307,"SoundDuration":90307,"Delta":70820113},{"NoteNumber":70,"Velocity":52,"Duration":89939,"SoundDuration":89939,"Delta":70910420},{"NoteNumber":86,"Velocity":45,"Duration":89585,"SoundDuration":89585,"Delta":71000359},{"NoteNumber":82,"Velocity":45,"Duration":89585,"SoundDuration":89585,"Delta":71000359},{"NoteNumber":72,"Velocity":54,"Duration":59766,"SoundDuration":59766,"Delta":71000359},{"NoteNumber":74,"Velocity":56,"Duration":59581,"SoundDuration":59581,"Delta":71060126},{"NoteNumber":75,"Velocity":59,"Duration":59395,"SoundDuration":59395,"Delta":71119707},{"NoteNumber":86,"Velocity":48,"Duration":88829,"SoundDuration":88829,"Delta":71179103},{"NoteNumber":82,"Velocity":48,"Duration":88829,"SoundDuration":88829,"Delta":71179103},{"NoteNumber":77,"Velocity":61,"Duration":88829,"SoundDuration":88829,"Delta":71179103},{"NoteNumber":75,"Velocity":60,"Duration":88391,"SoundDuration":88391,"Delta":71267933},{"NoteNumber":86,"Velocity":42,"Duration":88391,"SoundDuration":88391,"Delta":71356324},{"NoteNumber":82,"Velocity":42,"Duration":88391,"SoundDuration":88391,"Delta":71356324},{"NoteNumber":74,"Velocity":58,"Duration":88391,"SoundDuration":88391,"Delta":71356324},{"NoteNumber":72,"Velocity":57,"Duration":88705,"SoundDuration":88705,"Delta":71444716},{"NoteNumber":86,"Velocity":42,"Duration":89073,"SoundDuration":89073,"Delta":71533421},{"NoteNumber":82,"Velocity":42,"Duration":89073,"SoundDuration":89073,"Delta":71533421},{"NoteNumber":70,"Velocity":55,"Duration":89073,"SoundDuration":89073,"Delta":71533421},{"NoteNumber":69,"Velocity":54,"Duration":89392,"SoundDuration":89392,"Delta":71622494},{"NoteNumber":63,"Velocity":51,"Duration":93750,"SoundDuration":93750,"Delta":71711887},{"NoteNumber":67,"Velocity":51,"Duration":93750,"SoundDuration":93750,"Delta":71711887},{"NoteNumber":69,"Velocity":45,"Duration":93170,"SoundDuration":93170,"Delta":71805637},{"NoteNumber":84,"Velocity":45,"Duration":90036,"SoundDuration":90036,"Delta":71898807},{"NoteNumber":82,"Velocity":45,"Duration":90036,"SoundDuration":90036,"Delta":71898807},{"NoteNumber":70,"Velocity":48,"Duration":90036,"SoundDuration":90036,"Delta":71898807},{"NoteNumber":72,"Velocity":50,"Duration":89755,"SoundDuration":89755,"Delta":71988843},{"NoteNumber":82,"Velocity":45,"Duration":89476,"SoundDuration":89476,"Delta":72078599},{"NoteNumber":84,"Velocity":45,"Duration":89476,"SoundDuration":89476,"Delta":72078599},{"NoteNumber":74,"Velocity":55,"Duration":59701,"SoundDuration":59701,"Delta":72078599},{"NoteNumber":75,"Velocity":57,"Duration":59537,"SoundDuration":59537,"Delta":72138300},{"NoteNumber":77,"Velocity":60,"Duration":59439,"SoundDuration":59439,"Delta":72197837},{"NoteNumber":82,"Velocity":49,"Duration":88884,"SoundDuration":88884,"Delta":72257277},{"NoteNumber":84,"Velocity":49,"Duration":88884,"SoundDuration":88884,"Delta":72257277},{"NoteNumber":79,"Velocity":62,"Duration":88884,"SoundDuration":88884,"Delta":72257277},{"NoteNumber":77,"Velocity":62,"Duration":88757,"SoundDuration":88757,"Delta":72346162},{"NoteNumber":84,"Velocity":44,"Duration":88957,"SoundDuration":88957,"Delta":72434920},{"NoteNumber":82,"Velocity":44,"Duration":88957,"SoundDuration":88957,"Delta":72434920},{"NoteNumber":75,"Velocity":60,"Duration":59283,"SoundDuration":59283,"Delta":72434920},{"NoteNumber":74,"Velocity":59,"Duration":59347,"SoundDuration":59347,"Delta":72494203},{"NoteNumber":72,"Velocity":58,"Duration":59389,"SoundDuration":59389,"Delta":72553550},{"NoteNumber":84,"Velocity":46,"Duration":89285,"SoundDuration":89285,"Delta":72612939},{"NoteNumber":82,"Velocity":46,"Duration":89285,"SoundDuration":89285,"Delta":72612939},{"NoteNumber":70,"Velocity":58,"Duration":59523,"SoundDuration":59523,"Delta":72612939},{"NoteNumber":69,"Velocity":57,"Duration":59523,"SoundDuration":59523,"Delta":72672463},{"NoteNumber":67,"Velocity":56,"Duration":59672,"SoundDuration":59672,"Delta":72731987},{"NoteNumber":65,"Velocity":60,"Duration":93750,"SoundDuration":93750,"Delta":72791660},{"NoteNumber":53,"Velocity":52,"Duration":93750,"SoundDuration":93750,"Delta":72885410},{"NoteNumber":86,"Velocity":48,"Duration":90350,"SoundDuration":90350,"Delta":72979160},{"NoteNumber":82,"Velocity":48,"Duration":90350,"SoundDuration":90350,"Delta":72979160},{"NoteNumber":58,"Velocity":63,"Duration":90350,"SoundDuration":90350,"Delta":72979160},{"NoteNumber":62,"Velocity":59,"Duration":90067,"SoundDuration":90067,"Delta":73069510},{"NoteNumber":86,"Velocity":49,"Duration":89744,"SoundDuration":89744,"Delta":73159577},{"NoteNumber":82,"Velocity":49,"Duration":89744,"SoundDuration":89744,"Delta":73159577},{"NoteNumber":65,"Velocity":68,"Duration":89744,"SoundDuration":89744,"Delta":73159577},{"NoteNumber":70,"Velocity":62,"Duration":89467,"SoundDuration":89467,"Delta":73249322},{"NoteNumber":86,"Velocity":52,"Duration":93750,"SoundDuration":93750,"Delta":73338790},{"NoteNumber":82,"Velocity":52,"Duration":93750,"SoundDuration":93750,"Delta":73338790},{"NoteNumber":74,"Velocity":63,"Duration":93750,"SoundDuration":93750,"Delta":73338790},{"NoteNumber":70,"Velocity":54,"Duration":93750,"SoundDuration":93750,"Delta":73432540},{"NoteNumber":86,"Velocity":47,"Duration":90350,"SoundDuration":90350,"Delta":73526290},{"NoteNumber":82,"Velocity":47,"Duration":90350,"SoundDuration":90350,"Delta":73526290},{"NoteNumber":77,"Velocity":66,"Duration":90350,"SoundDuration":90350,"Delta":73526290},{"NoteNumber":74,"Velocity":62,"Duration":90067,"SoundDuration":90067,"Delta":73616640},{"NoteNumber":89,"Velocity":48,"Duration":89744,"SoundDuration":89744,"Delta":73706707},{"NoteNumber":82,"Velocity":48,"Duration":89744,"SoundDuration":89744,"Delta":73706707},{"NoteNumber":86,"Velocity":48,"Duration":89744,"SoundDuration":89744,"Delta":73706707},{"NoteNumber":70,"Velocity":70,"Duration":89744,"SoundDuration":89744,"Delta":73706707},{"NoteNumber":74,"Velocity":64,"Duration":89467,"SoundDuration":89467,"Delta":73796452},{"NoteNumber":87,"Velocity":59,"Duration":89285,"SoundDuration":89285,"Delta":73885920},{"NoteNumber":81,"Velocity":59,"Duration":89285,"SoundDuration":89285,"Delta":73885920},{"NoteNumber":89,"Velocity":59,"Duration":89285,"SoundDuration":89285,"Delta":73885920},{"NoteNumber":72,"Velocity":67,"Duration":59523,"SoundDuration":59523,"Delta":73885920},{"NoteNumber":65,"Velocity":60,"Duration":178571,"SoundDuration":178571,"Delta":73885920},{"NoteNumber":74,"Velocity":59,"Duration":59523,"SoundDuration":59523,"Delta":73945443},{"NoteNumber":72,"Velocity":67,"Duration":59523,"SoundDuration":59523,"Delta":74004967},{"NoteNumber":89,"Velocity":46,"Duration":90782,"SoundDuration":90782,"Delta":74064491},{"NoteNumber":81,"Velocity":46,"Duration":90782,"SoundDuration":90782,"Delta":74064491},{"NoteNumber":87,"Velocity":46,"Duration":90782,"SoundDuration":90782,"Delta":74064491},{"NoteNumber":74,"Velocity":61,"Duration":60392,"SoundDuration":60392,"Delta":74064491},{"NoteNumber":72,"Velocity":66,"Duration":60693,"SoundDuration":60693,"Delta":74124883},{"NoteNumber":74,"Velocity":59,"Duration":60503,"SoundDuration":60503,"Delta":74185577},{"NoteNumber":87,"Velocity":45,"Duration":90404,"SoundDuration":90404,"Delta":74246080},{"NoteNumber":89,"Velocity":45,"Duration":90404,"SoundDuration":90404,"Delta":74246080},{"NoteNumber":81,"Velocity":45,"Duration":90404,"SoundDuration":90404,"Delta":74246080},{"NoteNumber":72,"Velocity":66,"Duration":60311,"SoundDuration":60311,"Delta":74246080},{"NoteNumber":74,"Velocity":59,"Duration":60123,"SoundDuration":60123,"Delta":74306391},{"NoteNumber":72,"Velocity":62,"Duration":59936,"SoundDuration":59936,"Delta":74366515},{"NoteNumber":89,"Velocity":53,"Duration":89299,"SoundDuration":89299,"Delta":74426451},{"NoteNumber":81,"Velocity":53,"Duration":89299,"SoundDuration":89299,"Delta":74426451},{"NoteNumber":87,"Velocity":53,"Duration":89299,"SoundDuration":89299,"Delta":74426451},{"NoteNumber":74,"Velocity":56,"Duration":59537,"SoundDuration":59537,"Delta":74426451},{"NoteNumber":72,"Velocity":63,"Duration":59523,"SoundDuration":59523,"Delta":74485988},{"NoteNumber":74,"Velocity":55,"Duration":59523,"SoundDuration":59523,"Delta":74545512},{"NoteNumber":87,"Velocity":45,"Duration":89190,"SoundDuration":89190,"Delta":74605036},{"NoteNumber":89,"Velocity":45,"Duration":89190,"SoundDuration":89190,"Delta":74605036},{"NoteNumber":81,"Velocity":45,"Duration":89190,"SoundDuration":89190,"Delta":74605036},{"NoteNumber":72,"Velocity":63,"Duration":59397,"SoundDuration":59397,"Delta":74605036},{"NoteNumber":74,"Velocity":55,"Duration":59679,"SoundDuration":59679,"Delta":74664434},{"NoteNumber":72,"Velocity":63,"Duration":59965,"SoundDuration":59965,"Delta":74724113},{"NoteNumber":89,"Velocity":44,"Duration":90646,"SoundDuration":90646,"Delta":74784079},{"NoteNumber":81,"Velocity":44,"Duration":90646,"SoundDuration":90646,"Delta":74784079},{"NoteNumber":87,"Velocity":44,"Duration":90646,"SoundDuration":90646,"Delta":74784079},{"NoteNumber":74,"Velocity":55,"Duration":60343,"SoundDuration":60343,"Delta":74784079},{"NoteNumber":72,"Velocity":63,"Duration":60606,"SoundDuration":60606,"Delta":74844422},{"NoteNumber":74,"Velocity":59,"Duration":60722,"SoundDuration":60722,"Delta":74905028},{"NoteNumber":65,"Velocity":62,"Duration":92182,"SoundDuration":92182,"Delta":74965751},{"NoteNumber":71,"Velocity":55,"Duration":91619,"SoundDuration":91619,"Delta":75057934},{"NoteNumber":72,"Velocity":58,"Duration":91031,"SoundDuration":91031,"Delta":75149553},{"NoteNumber":74,"Velocity":60,"Duration":90459,"SoundDuration":90459,"Delta":75240585},{"NoteNumber":80,"Velocity":70,"Duration":549482,"SoundDuration":549482,"Delta":75331044},{"NoteNumber":92,"Velocity":83,"Duration":549482,"SoundDuration":549482,"Delta":75331044},{"NoteNumber":72,"Velocity":58,"Duration":95846,"SoundDuration":95846,"Delta":75331044},{"NoteNumber":71,"Velocity":58,"Duration":92189,"SoundDuration":92189,"Delta":75426891},{"NoteNumber":63,"Velocity":61,"Duration":90361,"SoundDuration":90361,"Delta":75519081},{"NoteNumber":72,"Velocity":56,"Duration":90361,"SoundDuration":90361,"Delta":75609442},{"NoteNumber":74,"Velocity":59,"Duration":90361,"SoundDuration":90361,"Delta":75699804},{"NoteNumber":75,"Velocity":61,"Duration":90361,"SoundDuration":90361,"Delta":75790165},{"NoteNumber":79,"Velocity":66,"Duration":186580,"SoundDuration":186580,"Delta":75880527},{"NoteNumber":91,"Velocity":79,"Duration":186580,"SoundDuration":186580,"Delta":75880527},{"NoteNumber":74,"Velocity":57,"Duration":91886,"SoundDuration":91886,"Delta":75880527},{"NoteNumber":72,"Velocity":57,"Duration":94694,"SoundDuration":94694,"Delta":75972413},{"NoteNumber":63,"Velocity":62,"Duration":91883,"SoundDuration":91883,"Delta":76071709},{"NoteNumber":69,"Velocity":55,"Duration":91340,"SoundDuration":91340,"Delta":76159007},{"NoteNumber":70,"Velocity":58,"Duration":90755,"SoundDuration":90755,"Delta":76250348},{"NoteNumber":72,"Velocity":60,"Duration":90338,"SoundDuration":90338,"Delta":76337339},{"NoteNumber":78,"Velocity":69,"Duration":543771,"SoundDuration":543771,"Delta":76431420},{"NoteNumber":90,"Velocity":81,"Duration":543771,"SoundDuration":543771,"Delta":76431420},{"NoteNumber":70,"Velocity":59,"Duration":93457,"SoundDuration":93457,"Delta":76431420},{"NoteNumber":69,"Velocity":59,"Duration":91032,"SoundDuration":91032,"Delta":76524878},{"NoteNumber":62,"Velocity":62,"Duration":89820,"SoundDuration":89820,"Delta":76615911},{"NoteNumber":70,"Velocity":57,"Duration":89820,"SoundDuration":89820,"Delta":76705732},{"NoteNumber":72,"Velocity":61,"Duration":89820,"SoundDuration":89820,"Delta":76795552},{"NoteNumber":74,"Velocity":64,"Duration":89820,"SoundDuration":89820,"Delta":76885372},{"NoteNumber":77,"Velocity":67,"Duration":184079,"SoundDuration":184079,"Delta":76975192},{"NoteNumber":89,"Velocity":80,"Duration":184079,"SoundDuration":184079,"Delta":76975192},{"NoteNumber":72,"Velocity":59,"Duration":90936,"SoundDuration":90936,"Delta":76975192},{"NoteNumber":70,"Velocity":60,"Duration":93143,"SoundDuration":93143,"Delta":77066128},{"NoteNumber":53,"Velocity":65,"Duration":92460,"SoundDuration":92460,"Delta":77163916},{"NoteNumber":59,"Velocity":58,"Duration":91576,"SoundDuration":91576,"Delta":77251775},{"NoteNumber":60,"Velocity":62,"Duration":90612,"SoundDuration":90612,"Delta":77343351},{"NoteNumber":62,"Velocity":64,"Duration":89769,"SoundDuration":89769,"Delta":77430210},{"NoteNumber":68,"Velocity":73,"Duration":543841,"SoundDuration":543841,"Delta":77523711},{"NoteNumber":80,"Velocity":86,"Duration":543841,"SoundDuration":543841,"Delta":77523711},{"NoteNumber":60,"Velocity":62,"Duration":97087,"SoundDuration":97087,"Delta":77523711},{"NoteNumber":59,"Velocity":63,"Duration":89610,"SoundDuration":89610,"Delta":77620798},{"NoteNumber":51,"Velocity":67,"Duration":89285,"SoundDuration":89285,"Delta":77710409},{"NoteNumber":60,"Velocity":61,"Duration":89285,"SoundDuration":89285,"Delta":77799695},{"NoteNumber":62,"Velocity":65,"Duration":89285,"SoundDuration":89285,"Delta":77888980},{"NoteNumber":63,"Velocity":67,"Duration":89285,"SoundDuration":89285,"Delta":77978266},{"NoteNumber":67,"Velocity":71,"Duration":182453,"SoundDuration":182453,"Delta":78067552},{"NoteNumber":79,"Velocity":86,"Duration":182453,"SoundDuration":182453,"Delta":78067552},{"NoteNumber":62,"Velocity":63,"Duration":89285,"SoundDuration":89285,"Delta":78067552},{"NoteNumber":60,"Velocity":63,"Duration":93167,"SoundDuration":93167,"Delta":78156838},{"NoteNumber":51,"Velocity":70,"Duration":91477,"SoundDuration":91477,"Delta":78254470},{"NoteNumber":57,"Velocity":62,"Duration":90788,"SoundDuration":90788,"Delta":78341388},{"NoteNumber":58,"Velocity":66,"Duration":89940,"SoundDuration":89940,"Delta":78432176},{"NoteNumber":60,"Velocity":68,"Duration":89191,"SoundDuration":89191,"Delta":78518385},{"NoteNumber":66,"Velocity":78,"Duration":543055,"SoundDuration":543055,"Delta":78611285},{"NoteNumber":78,"Velocity":92,"Duration":543055,"SoundDuration":543055,"Delta":78611285},{"NoteNumber":58,"Velocity":66,"Duration":94043,"SoundDuration":94043,"Delta":78611285},{"NoteNumber":57,"Velocity":67,"Duration":89730,"SoundDuration":89730,"Delta":78705329},{"NoteNumber":50,"Velocity":70,"Duration":89820,"SoundDuration":89820,"Delta":78795060},{"NoteNumber":58,"Velocity":65,"Duration":89820,"SoundDuration":89820,"Delta":78884880},{"NoteNumber":60,"Velocity":69,"Duration":89820,"SoundDuration":89820,"Delta":78974700},{"NoteNumber":62,"Velocity":71,"Duration":89820,"SoundDuration":89820,"Delta":79064521},{"NoteNumber":65,"Velocity":75,"Duration":182127,"SoundDuration":182127,"Delta":79154341},{"NoteNumber":77,"Velocity":90,"Duration":182127,"SoundDuration":182127,"Delta":79154341},{"NoteNumber":60,"Velocity":67,"Duration":89820,"SoundDuration":89820,"Delta":79154341},{"NoteNumber":58,"Velocity":67,"Duration":92307,"SoundDuration":92307,"Delta":79244161},{"NoteNumber":50,"Velocity":70,"Duration":90090,"SoundDuration":90090,"Delta":79336469},{"NoteNumber":53,"Velocity":62,"Duration":90090,"SoundDuration":90090,"Delta":79426559},{"NoteNumber":70,"Velocity":60,"Duration":90089,"SoundDuration":90089,"Delta":79516649},{"NoteNumber":77,"Velocity":71,"Duration":90089,"SoundDuration":90089,"Delta":79516649},{"NoteNumber":65,"Velocity":60,"Duration":90089,"SoundDuration":90089,"Delta":79516649},{"NoteNumber":58,"Velocity":66,"Duration":90089,"SoundDuration":90089,"Delta":79516649},{"NoteNumber":62,"Velocity":68,"Duration":90090,"SoundDuration":90090,"Delta":79606739},{"NoteNumber":65,"Velocity":57,"Duration":90090,"SoundDuration":90090,"Delta":79696829},{"NoteNumber":77,"Velocity":68,"Duration":90090,"SoundDuration":90090,"Delta":79696829},{"NoteNumber":70,"Velocity":57,"Duration":90090,"SoundDuration":90090,"Delta":79696829},{"NoteNumber":58,"Velocity":66,"Duration":90090,"SoundDuration":90090,"Delta":79696829},{"NoteNumber":53,"Velocity":63,"Duration":94043,"SoundDuration":94043,"Delta":79786919},{"NoteNumber":43,"Velocity":70,"Duration":89820,"SoundDuration":89820,"Delta":79880963},{"NoteNumber":46,"Velocity":65,"Duration":89820,"SoundDuration":89820,"Delta":79970783},{"NoteNumber":70,"Velocity":58,"Duration":89820,"SoundDuration":89820,"Delta":80060603},{"NoteNumber":75,"Velocity":69,"Duration":89820,"SoundDuration":89820,"Delta":80060603},{"NoteNumber":67,"Velocity":58,"Duration":89820,"SoundDuration":89820,"Delta":80060603},{"NoteNumber":50,"Velocity":69,"Duration":89820,"SoundDuration":89820,"Delta":80060603},{"NoteNumber":55,"Velocity":71,"Duration":89820,"SoundDuration":89820,"Delta":80150424},{"NoteNumber":74,"Velocity":65,"Duration":89820,"SoundDuration":89820,"Delta":80240244},{"NoteNumber":67,"Velocity":55,"Duration":89820,"SoundDuration":89820,"Delta":80240244},{"NoteNumber":70,"Velocity":55,"Duration":89820,"SoundDuration":89820,"Delta":80240244},{"NoteNumber":50,"Velocity":67,"Duration":89820,"SoundDuration":89820,"Delta":80240244},{"NoteNumber":46,"Velocity":64,"Duration":89820,"SoundDuration":89820,"Delta":80330064},{"NoteNumber":39,"Velocity":70,"Duration":90090,"SoundDuration":90090,"Delta":80419884},{"NoteNumber":43,"Velocity":62,"Duration":90090,"SoundDuration":90090,"Delta":80509974},{"NoteNumber":63,"Velocity":60,"Duration":90089,"SoundDuration":90089,"Delta":80600064},{"NoteNumber":74,"Velocity":71,"Duration":90089,"SoundDuration":90089,"Delta":80600064},{"NoteNumber":67,"Velocity":60,"Duration":90089,"SoundDuration":90089,"Delta":80600064},{"NoteNumber":48,"Velocity":66,"Duration":90089,"SoundDuration":90089,"Delta":80600064},{"NoteNumber":51,"Velocity":68,"Duration":90090,"SoundDuration":90090,"Delta":80690154},{"NoteNumber":72,"Velocity":68,"Duration":90090,"SoundDuration":90090,"Delta":80780244},{"NoteNumber":67,"Velocity":57,"Duration":90090,"SoundDuration":90090,"Delta":80780244},{"NoteNumber":63,"Velocity":57,"Duration":90090,"SoundDuration":90090,"Delta":80780244},{"NoteNumber":48,"Velocity":66,"Duration":90090,"SoundDuration":90090,"Delta":80780244},{"NoteNumber":43,"Velocity":63,"Duration":94043,"SoundDuration":94043,"Delta":80870334},{"NoteNumber":41,"Velocity":70,"Duration":89820,"SoundDuration":89820,"Delta":80964378},{"NoteNumber":48,"Velocity":65,"Duration":89820,"SoundDuration":89820,"Delta":81054199},{"NoteNumber":70,"Velocity":69,"Duration":89820,"SoundDuration":89820,"Delta":81144019},{"NoteNumber":63,"Velocity":58,"Duration":89820,"SoundDuration":89820,"Delta":81144019},{"NoteNumber":60,"Velocity":58,"Duration":89820,"SoundDuration":89820,"Delta":81144019},{"NoteNumber":51,"Velocity":69,"Duration":89820,"SoundDuration":89820,"Delta":81144019},{"NoteNumber":53,"Velocity":71,"Duration":89820,"SoundDuration":89820,"Delta":81233839},{"NoteNumber":69,"Velocity":65,"Duration":89820,"SoundDuration":89820,"Delta":81323659},{"NoteNumber":63,"Velocity":55,"Duration":89820,"SoundDuration":89820,"Delta":81323659},{"NoteNumber":60,"Velocity":55,"Duration":89820,"SoundDuration":89820,"Delta":81323659},{"NoteNumber":51,"Velocity":67,"Duration":89820,"SoundDuration":89820,"Delta":81323659},{"NoteNumber":48,"Velocity":64,"Duration":89820,"SoundDuration":89820,"Delta":81413480},{"NoteNumber":38,"Velocity":70,"Duration":90090,"SoundDuration":90090,"Delta":81503300},{"NoteNumber":41,"Velocity":62,"Duration":90090,"SoundDuration":90090,"Delta":81593390},{"NoteNumber":70,"Velocity":71,"Duration":90089,"SoundDuration":90089,"Delta":81683480},{"NoteNumber":65,"Velocity":60,"Duration":90089,"SoundDuration":90089,"Delta":81683480},{"NoteNumber":58,"Velocity":60,"Duration":90089,"SoundDuration":90089,"Delta":81683480},{"NoteNumber":46,"Velocity":66,"Duration":90089,"SoundDuration":90089,"Delta":81683480},{"NoteNumber":50,"Velocity":68,"Duration":90090,"SoundDuration":90090,"Delta":81773570},{"NoteNumber":65,"Velocity":69,"Duration":90090,"SoundDuration":90090,"Delta":81863660},{"NoteNumber":62,"Velocity":58,"Duration":90090,"SoundDuration":90090,"Delta":81863660},{"NoteNumber":58,"Velocity":58,"Duration":90090,"SoundDuration":90090,"Delta":81863660},{"NoteNumber":46,"Velocity":67,"Duration":90090,"SoundDuration":90090,"Delta":81863660},{"NoteNumber":41,"Velocity":64,"Duration":94043,"SoundDuration":94043,"Delta":81953750},{"NoteNumber":31,"Velocity":72,"Duration":89820,"SoundDuration":89820,"Delta":82047794},{"NoteNumber":34,"Velocity":67,"Duration":89820,"SoundDuration":89820,"Delta":82137614},{"NoteNumber":55,"Velocity":74,"Duration":89820,"SoundDuration":89820,"Delta":82227434},{"NoteNumber":63,"Velocity":72,"Duration":89820,"SoundDuration":89820,"Delta":82227434},{"NoteNumber":58,"Velocity":60,"Duration":89820,"SoundDuration":89820,"Delta":82227434},{"NoteNumber":38,"Velocity":72,"Duration":89820,"SoundDuration":89820,"Delta":82227434},{"NoteNumber":43,"Velocity":74,"Duration":89820,"SoundDuration":89820,"Delta":82317255},{"NoteNumber":62,"Velocity":68,"Duration":89820,"SoundDuration":89820,"Delta":82407075},{"NoteNumber":58,"Velocity":58,"Duration":89820,"SoundDuration":89820,"Delta":82407075},{"NoteNumber":55,"Velocity":58,"Duration":89820,"SoundDuration":89820,"Delta":82407075},{"NoteNumber":38,"Velocity":71,"Duration":89820,"SoundDuration":89820,"Delta":82407075},{"NoteNumber":34,"Velocity":67,"Duration":89820,"SoundDuration":89820,"Delta":82496895},{"NoteNumber":39,"Velocity":74,"Duration":90090,"SoundDuration":90090,"Delta":82586715},{"NoteNumber":43,"Velocity":66,"Duration":90090,"SoundDuration":90090,"Delta":82676805},{"NoteNumber":62,"Velocity":76,"Duration":90089,"SoundDuration":90089,"Delta":82766895},{"NoteNumber":55,"Velocity":64,"Duration":90089,"SoundDuration":90089,"Delta":82766895},{"NoteNumber":51,"Velocity":64,"Duration":90089,"SoundDuration":90089,"Delta":82766895},{"NoteNumber":48,"Velocity":71,"Duration":90089,"SoundDuration":90089,"Delta":82766895},{"NoteNumber":43,"Velocity":74,"Duration":90090,"SoundDuration":90090,"Delta":82856985},{"NoteNumber":60,"Velocity":74,"Duration":90090,"SoundDuration":90090,"Delta":82947075},{"NoteNumber":55,"Velocity":62,"Duration":90090,"SoundDuration":90090,"Delta":82947075},{"NoteNumber":51,"Velocity":62,"Duration":90090,"SoundDuration":90090,"Delta":82947075},{"NoteNumber":39,"Velocity":72,"Duration":184134,"SoundDuration":184134,"Delta":82947075},{"NoteNumber":29,"Velocity":77,"Duration":89820,"SoundDuration":89820,"Delta":83131209},{"NoteNumber":36,"Velocity":72,"Duration":89820,"SoundDuration":89820,"Delta":83221030},{"NoteNumber":48,"Velocity":79,"Duration":89820,"SoundDuration":89820,"Delta":83310850},{"NoteNumber":51,"Velocity":64,"Duration":89820,"SoundDuration":89820,"Delta":83310850},{"NoteNumber":58,"Velocity":77,"Duration":89820,"SoundDuration":89820,"Delta":83310850},{"NoteNumber":39,"Velocity":77,"Duration":89820,"SoundDuration":89820,"Delta":83310850},{"NoteNumber":41,"Velocity":80,"Duration":89820,"SoundDuration":89820,"Delta":83400670},{"NoteNumber":51,"Velocity":62,"Duration":89820,"SoundDuration":89820,"Delta":83490490},{"NoteNumber":57,"Velocity":73,"Duration":89820,"SoundDuration":89820,"Delta":83490490},{"NoteNumber":48,"Velocity":62,"Duration":89820,"SoundDuration":89820,"Delta":83490490},{"NoteNumber":29,"Velocity":75,"Duration":89820,"SoundDuration":89820,"Delta":83490490},{"NoteNumber":41,"Velocity":72,"Duration":94936,"SoundDuration":94936,"Delta":83580311},{"NoteNumber":46,"Velocity":62,"Duration":90751,"SoundDuration":90751,"Delta":83675247},{"NoteNumber":34,"Velocity":75,"Duration":90751,"SoundDuration":90751,"Delta":83675247},{"NoteNumber":48,"Velocity":63,"Duration":90973,"SoundDuration":90973,"Delta":83765998},{"NoteNumber":50,"Velocity":65,"Duration":90405,"SoundDuration":90405,"Delta":83856972},{"NoteNumber":46,"Velocity":75,"Duration":90405,"SoundDuration":90405,"Delta":83856972},{"NoteNumber":51,"Velocity":66,"Duration":89840,"SoundDuration":89840,"Delta":83947377},{"NoteNumber":53,"Velocity":67,"Duration":59701,"SoundDuration":59701,"Delta":84037218},{"NoteNumber":46,"Velocity":64,"Duration":89552,"SoundDuration":89552,"Delta":84037218},{"NoteNumber":50,"Velocity":77,"Duration":89552,"SoundDuration":89552,"Delta":84037218},{"NoteNumber":55,"Velocity":68,"Duration":59701,"SoundDuration":59701,"Delta":84096920},{"NoteNumber":57,"Velocity":68,"Duration":59701,"SoundDuration":59701,"Delta":84156621},{"NoteNumber":58,"Velocity":69,"Duration":59701,"SoundDuration":59701,"Delta":84216323},{"NoteNumber":46,"Velocity":70,"Duration":363532,"SoundDuration":363532,"Delta":84216323},{"NoteNumber":50,"Velocity":70,"Duration":363532,"SoundDuration":363532,"Delta":84216323},{"NoteNumber":53,"Velocity":83,"Duration":363532,"SoundDuration":363532,"Delta":84216323},{"NoteNumber":60,"Velocity":70,"Duration":61297,"SoundDuration":61297,"Delta":84276024},{"NoteNumber":62,"Velocity":71,"Duration":62893,"SoundDuration":62893,"Delta":84337321},{"NoteNumber":63,"Velocity":72,"Duration":59880,"SoundDuration":59880,"Delta":84400214},{"NoteNumber":65,"Velocity":72,"Duration":59880,"SoundDuration":59880,"Delta":84460095},{"NoteNumber":67,"Velocity":73,"Duration":59880,"SoundDuration":59880,"Delta":84519975},{"NoteNumber":69,"Velocity":85,"Duration":89820,"SoundDuration":89820,"Delta":84579855},{"NoteNumber":48,"Velocity":60,"Duration":89820,"SoundDuration":89820,"Delta":84579855},{"NoteNumber":41,"Velocity":60,"Duration":89820,"SoundDuration":89820,"Delta":84579855},{"NoteNumber":53,"Velocity":71,"Duration":89820,"SoundDuration":89820,"Delta":84579855},{"NoteNumber":57,"Velocity":67,"Duration":100085,"SoundDuration":100085,"Delta":84669675},{"NoteNumber":58,"Velocity":62,"Duration":90607,"SoundDuration":90607,"Delta":84769761},{"NoteNumber":46,"Velocity":67,"Duration":90607,"SoundDuration":90607,"Delta":84769761},{"NoteNumber":53,"Velocity":79,"Duration":90607,"SoundDuration":90607,"Delta":84769761},{"NoteNumber":50,"Velocity":67,"Duration":90607,"SoundDuration":90607,"Delta":84769761},{"NoteNumber":60,"Velocity":63,"Duration":90280,"SoundDuration":90280,"Delta":84860368},{"NoteNumber":62,"Velocity":65,"Duration":89955,"SoundDuration":89955,"Delta":84950648},{"NoteNumber":46,"Velocity":63,"Duration":89955,"SoundDuration":89955,"Delta":84950648},{"NoteNumber":50,"Velocity":63,"Duration":89955,"SoundDuration":89955,"Delta":84950648},{"NoteNumber":53,"Velocity":75,"Duration":89955,"SoundDuration":89955,"Delta":84950648},{"NoteNumber":63,"Velocity":66,"Duration":89632,"SoundDuration":89632,"Delta":85040603},{"NoteNumber":65,"Velocity":67,"Duration":59550,"SoundDuration":59550,"Delta":85130236},{"NoteNumber":53,"Velocity":74,"Duration":89312,"SoundDuration":89312,"Delta":85130236},{"NoteNumber":46,"Velocity":62,"Duration":89312,"SoundDuration":89312,"Delta":85130236},{"NoteNumber":50,"Velocity":62,"Duration":89312,"SoundDuration":89312,"Delta":85130236},{"NoteNumber":67,"Velocity":68,"Duration":59523,"SoundDuration":59523,"Delta":85189786},{"NoteNumber":69,"Velocity":68,"Duration":59523,"SoundDuration":59523,"Delta":85249310},{"NoteNumber":70,"Velocity":69,"Duration":59523,"SoundDuration":59523,"Delta":85308834},{"NoteNumber":46,"Velocity":69,"Duration":361848,"SoundDuration":361848,"Delta":85308834},{"NoteNumber":50,"Velocity":69,"Duration":361848,"SoundDuration":361848,"Delta":85308834},{"NoteNumber":53,"Velocity":82,"Duration":361848,"SoundDuration":361848,"Delta":85308834},{"NoteNumber":72,"Velocity":70,"Duration":60914,"SoundDuration":60914,"Delta":85368358},{"NoteNumber":74,"Velocity":71,"Duration":62305,"SoundDuration":62305,"Delta":85429272},{"NoteNumber":75,"Velocity":72,"Duration":59701,"SoundDuration":59701,"Delta":85491578},{"NoteNumber":77,"Velocity":72,"Duration":59701,"SoundDuration":59701,"Delta":85551279},{"NoteNumber":79,"Velocity":73,"Duration":59701,"SoundDuration":59701,"Delta":85610981},{"NoteNumber":81,"Velocity":85,"Duration":89552,"SoundDuration":89552,"Delta":85670682},{"NoteNumber":48,"Velocity":63,"Duration":89552,"SoundDuration":89552,"Delta":85670682},{"NoteNumber":41,"Velocity":63,"Duration":89552,"SoundDuration":89552,"Delta":85670682},{"NoteNumber":53,"Velocity":75,"Duration":89552,"SoundDuration":89552,"Delta":85670682},{"NoteNumber":69,"Velocity":67,"Duration":99140,"SoundDuration":99140,"Delta":85760235},{"NoteNumber":70,"Velocity":62,"Duration":90563,"SoundDuration":90563,"Delta":85859375},{"NoteNumber":46,"Velocity":64,"Duration":90563,"SoundDuration":90563,"Delta":85859375},{"NoteNumber":53,"Velocity":76,"Duration":90563,"SoundDuration":90563,"Delta":85859375},{"NoteNumber":50,"Velocity":64,"Duration":90563,"SoundDuration":90563,"Delta":85859375},{"NoteNumber":72,"Velocity":63,"Duration":90191,"SoundDuration":90191,"Delta":85949939},{"NoteNumber":74,"Velocity":65,"Duration":89775,"SoundDuration":89775,"Delta":86040131},{"NoteNumber":46,"Velocity":63,"Duration":89775,"SoundDuration":89775,"Delta":86040131},{"NoteNumber":50,"Velocity":63,"Duration":89775,"SoundDuration":89775,"Delta":86040131},{"NoteNumber":53,"Velocity":75,"Duration":89775,"SoundDuration":89775,"Delta":86040131},{"NoteNumber":75,"Velocity":66,"Duration":89407,"SoundDuration":89407,"Delta":86129907},{"NoteNumber":77,"Velocity":68,"Duration":59373,"SoundDuration":59373,"Delta":86219315},{"NoteNumber":53,"Velocity":73,"Duration":89047,"SoundDuration":89047,"Delta":86219315},{"NoteNumber":46,"Velocity":61,"Duration":89047,"SoundDuration":89047,"Delta":86219315},{"NoteNumber":50,"Velocity":61,"Duration":89047,"SoundDuration":89047,"Delta":86219315},{"NoteNumber":79,"Velocity":70,"Duration":59347,"SoundDuration":59347,"Delta":86278688},{"NoteNumber":81,"Velocity":72,"Duration":59347,"SoundDuration":59347,"Delta":86338036},{"NoteNumber":82,"Velocity":74,"Duration":89020,"SoundDuration":89020,"Delta":86397383},{"NoteNumber":46,"Velocity":70,"Duration":360717,"SoundDuration":360717,"Delta":86397383},{"NoteNumber":50,"Velocity":70,"Duration":360717,"SoundDuration":360717,"Delta":86397383},{"NoteNumber":53,"Velocity":83,"Duration":360717,"SoundDuration":360717,"Delta":86397383},{"NoteNumber":84,"Velocity":75,"Duration":92592,"SoundDuration":92592,"Delta":86486403},{"NoteNumber":86,"Velocity":77,"Duration":59701,"SoundDuration":59701,"Delta":86578996},{"NoteNumber":87,"Velocity":79,"Duration":59701,"SoundDuration":59701,"Delta":86638697},{"NoteNumber":89,"Velocity":81,"Duration":59701,"SoundDuration":59701,"Delta":86698399},{"NoteNumber":91,"Velocity":83,"Duration":59701,"SoundDuration":59701,"Delta":86758100},{"NoteNumber":48,"Velocity":63,"Duration":89552,"SoundDuration":89552,"Delta":86758100},{"NoteNumber":41,"Velocity":63,"Duration":89552,"SoundDuration":89552,"Delta":86758100},{"NoteNumber":53,"Velocity":75,"Duration":89552,"SoundDuration":89552,"Delta":86758100},{"NoteNumber":93,"Velocity":92,"Duration":63864,"SoundDuration":63864,"Delta":86817802},{"NoteNumber":81,"Velocity":85,"Duration":68027,"SoundDuration":68027,"Delta":86881666},{"NoteNumber":94,"Velocity":105,"Duration":360360,"SoundDuration":360360,"Delta":86949693},{"NoteNumber":82,"Velocity":89,"Duration":360360,"SoundDuration":360360,"Delta":86949693},{"NoteNumber":46,"Velocity":69,"Duration":360360,"SoundDuration":360360,"Delta":86949693},{"NoteNumber":58,"Velocity":82,"Duration":360360,"SoundDuration":360360,"Delta":86949693},{"NoteNumber":50,"Velocity":69,"Duration":360360,"SoundDuration":360360,"Delta":86949693},{"NoteNumber":53,"Velocity":69,"Duration":360360,"SoundDuration":360360,"Delta":86949693},{"NoteNumber":77,"Velocity":75,"Duration":360359,"SoundDuration":360359,"Delta":87490233},{"NoteNumber":74,"Velocity":75,"Duration":360359,"SoundDuration":360359,"Delta":87490233},{"NoteNumber":82,"Velocity":90,"Duration":360359,"SoundDuration":360359,"Delta":87490233},{"NoteNumber":46,"Velocity":69,"Duration":360359,"SoundDuration":360359,"Delta":87490233},{"NoteNumber":50,"Velocity":69,"Duration":360359,"SoundDuration":360359,"Delta":87490233},{"NoteNumber":58,"Velocity":82,"Duration":360359,"SoundDuration":360359,"Delta":87490233},{"NoteNumber":53,"Velocity":69,"Duration":360359,"SoundDuration":360359,"Delta":87490233},{"NoteNumber":62,"Velocity":74,"Duration":360360,"SoundDuration":360360,"Delta":88030773},{"NoteNumber":70,"Velocity":89,"Duration":360360,"SoundDuration":360360,"Delta":88030773},{"NoteNumber":65,"Velocity":74,"Duration":360360,"SoundDuration":360360,"Delta":88030773},{"NoteNumber":53,"Velocity":69,"Duration":360360,"SoundDuration":360360,"Delta":88030773},{"NoteNumber":58,"Velocity":82,"Duration":360360,"SoundDuration":360360,"Delta":88030773},{"NoteNumber":50,"Velocity":69,"Duration":360360,"SoundDuration":360360,"Delta":88030773},{"NoteNumber":46,"Velocity":69,"Duration":360360,"SoundDuration":360360,"Delta":88030773},{"NoteNumber":82,"Velocity":45,"Duration":180179,"SoundDuration":180179,"Delta":88931673},{"NoteNumber":82,"Velocity":45,"Duration":183486,"SoundDuration":183486,"Delta":89111853},{"NoteNumber":63,"Velocity":34,"Duration":366972,"SoundDuration":366972,"Delta":89111853},{"NoteNumber":67,"Velocity":34,"Duration":366972,"SoundDuration":366972,"Delta":89111853},{"NoteNumber":70,"Velocity":40,"Duration":366972,"SoundDuration":366972,"Delta":89111853},{"NoteNumber":79,"Velocity":45,"Duration":183486,"SoundDuration":183486,"Delta":89295339},{"NoteNumber":75,"Velocity":39,"Duration":183486,"SoundDuration":183486,"Delta":89478825},{"NoteNumber":74,"Velocity":45,"Duration":183485,"SoundDuration":183485,"Delta":89662311},{"NoteNumber":65,"Velocity":28,"Duration":366971,"SoundDuration":366971,"Delta":89662311},{"NoteNumber":68,"Velocity":28,"Duration":366971,"SoundDuration":366971,"Delta":89662311},{"NoteNumber":58,"Velocity":28,"Duration":366971,"SoundDuration":366971,"Delta":89662311},{"NoteNumber":70,"Velocity":34,"Duration":366971,"SoundDuration":366971,"Delta":89662311},{"NoteNumber":77,"Velocity":40,"Duration":183486,"SoundDuration":183486,"Delta":89845797},{"NoteNumber":82,"Velocity":40,"Duration":144230,"SoundDuration":144230,"Delta":90029283},{"NoteNumber":82,"Velocity":45,"Duration":184615,"SoundDuration":184615,"Delta":90221591},{"NoteNumber":63,"Velocity":34,"Duration":369230,"SoundDuration":369230,"Delta":90221591},{"NoteNumber":70,"Velocity":40,"Duration":369230,"SoundDuration":369230,"Delta":90221591},{"NoteNumber":67,"Velocity":34,"Duration":369230,"SoundDuration":369230,"Delta":90221591},{"NoteNumber":79,"Velocity":41,"Duration":184615,"SoundDuration":184615,"Delta":90406206},{"NoteNumber":75,"Velocity":41,"Duration":138461,"SoundDuration":138461,"Delta":90590822},{"NoteNumber":75,"Velocity":45,"Duration":184615,"SoundDuration":184615,"Delta":90775437},{"NoteNumber":79,"Velocity":39,"Duration":184615,"SoundDuration":184615,"Delta":90960053},{"NoteNumber":84,"Velocity":51,"Duration":151780,"SoundDuration":151780,"Delta":91144668},{"NoteNumber":64,"Velocity":28,"Duration":151780,"SoundDuration":151780,"Delta":91144668},{"NoteNumber":67,"Velocity":28,"Duration":151780,"SoundDuration":151780,"Delta":91144668},{"NoteNumber":70,"Velocity":28,"Duration":151780,"SoundDuration":151780,"Delta":91144668},{"NoteNumber":72,"Velocity":34,"Duration":151780,"SoundDuration":151780,"Delta":91144668},{"NoteNumber":84,"Velocity":57,"Duration":183486,"SoundDuration":183486,"Delta":91347043},{"NoteNumber":68,"Velocity":34,"Duration":366972,"SoundDuration":366972,"Delta":91347043},{"NoteNumber":65,"Velocity":34,"Duration":366972,"SoundDuration":366972,"Delta":91347043},{"NoteNumber":72,"Velocity":40,"Duration":366972,"SoundDuration":366972,"Delta":91347043},{"NoteNumber":80,"Velocity":45,"Duration":183486,"SoundDuration":183486,"Delta":91530529},{"NoteNumber":77,"Velocity":45,"Duration":183486,"SoundDuration":183486,"Delta":91714015},{"NoteNumber":76,"Velocity":49,"Duration":183485,"SoundDuration":183485,"Delta":91897501},{"NoteNumber":72,"Velocity":34,"Duration":366971,"SoundDuration":366971,"Delta":91897501},{"NoteNumber":70,"Velocity":28,"Duration":366971,"SoundDuration":366971,"Delta":91897501},{"NoteNumber":60,"Velocity":28,"Duration":366971,"SoundDuration":366971,"Delta":91897501},{"NoteNumber":67,"Velocity":28,"Duration":366971,"SoundDuration":366971,"Delta":91897501},{"NoteNumber":79,"Velocity":44,"Duration":183486,"SoundDuration":183486,"Delta":92080987},{"NoteNumber":84,"Velocity":51,"Duration":142857,"SoundDuration":142857,"Delta":92264473},{"NoteNumber":84,"Velocity":60,"Duration":183486,"SoundDuration":183486,"Delta":92454949},{"NoteNumber":65,"Velocity":34,"Duration":366972,"SoundDuration":366972,"Delta":92454949},{"NoteNumber":68,"Velocity":34,"Duration":366972,"SoundDuration":366972,"Delta":92454949},{"NoteNumber":72,"Velocity":40,"Duration":366972,"SoundDuration":366972,"Delta":92454949},{"NoteNumber":80,"Velocity":45,"Duration":183486,"SoundDuration":183486,"Delta":92638435},{"NoteNumber":77,"Velocity":45,"Duration":183486,"SoundDuration":183486,"Delta":92821921},{"NoteNumber":74,"Velocity":51,"Duration":183485,"SoundDuration":183485,"Delta":93005407},{"NoteNumber":77,"Velocity":45,"Duration":183486,"SoundDuration":183486,"Delta":93188893},{"NoteNumber":82,"Velocity":45,"Duration":144230,"SoundDuration":144230,"Delta":93372379},{"NoteNumber":65,"Velocity":31,"Duration":144230,"SoundDuration":144230,"Delta":93372379},{"NoteNumber":62,"Velocity":31,"Duration":144230,"SoundDuration":144230,"Delta":93372379},{"NoteNumber":68,"Velocity":31,"Duration":144230,"SoundDuration":144230,"Delta":93372379},{"NoteNumber":70,"Velocity":37,"Duration":144230,"SoundDuration":144230,"Delta":93372379},{"NoteNumber":82,"Velocity":50,"Duration":184049,"SoundDuration":184049,"Delta":93564686},{"NoteNumber":67,"Velocity":33,"Duration":368098,"SoundDuration":368098,"Delta":93564686},{"NoteNumber":70,"Velocity":39,"Duration":368098,"SoundDuration":368098,"Delta":93564686},{"NoteNumber":63,"Velocity":33,"Duration":368098,"SoundDuration":368098,"Delta":93564686},{"NoteNumber":79,"Velocity":43,"Duration":184049,"SoundDuration":184049,"Delta":93748735},{"NoteNumber":75,"Velocity":43,"Duration":184049,"SoundDuration":184049,"Delta":93932784},{"NoteNumber":72,"Velocity":45,"Duration":184049,"SoundDuration":184049,"Delta":94116833},{"NoteNumber":56,"Velocity":29,"Duration":368097,"SoundDuration":368097,"Delta":94116833},{"NoteNumber":60,"Velocity":29,"Duration":368097,"SoundDuration":368097,"Delta":94116833},{"NoteNumber":65,"Velocity":35,"Duration":368097,"SoundDuration":368097,"Delta":94116833},{"NoteNumber":77,"Velocity":41,"Duration":184048,"SoundDuration":184048,"Delta":94300882},{"NoteNumber":80,"Velocity":41,"Duration":143770,"SoundDuration":143770,"Delta":94484931},{"NoteNumber":70,"Velocity":47,"Duration":184049,"SoundDuration":184049,"Delta":94676625},{"NoteNumber":63,"Velocity":35,"Duration":368098,"SoundDuration":368098,"Delta":94676625},{"NoteNumber":58,"Velocity":35,"Duration":368098,"SoundDuration":368098,"Delta":94676625},{"NoteNumber":67,"Velocity":42,"Duration":368098,"SoundDuration":368098,"Delta":94676625},{"NoteNumber":75,"Velocity":43,"Duration":184049,"SoundDuration":184049,"Delta":94860674},{"NoteNumber":79,"Velocity":43,"Duration":141955,"SoundDuration":141955,"Delta":95044723},{"NoteNumber":68,"Velocity":48,"Duration":185758,"SoundDuration":185758,"Delta":95233997},{"NoteNumber":58,"Velocity":33,"Duration":371516,"SoundDuration":371516,"Delta":95233997},{"NoteNumber":65,"Velocity":39,"Duration":371516,"SoundDuration":371516,"Delta":95233997},{"NoteNumber":62,"Velocity":33,"Duration":371516,"SoundDuration":371516,"Delta":95233997},{"NoteNumber":74,"Velocity":43,"Duration":185758,"SoundDuration":185758,"Delta":95419756},{"NoteNumber":77,"Velocity":43,"Duration":155709,"SoundDuration":155709,"Delta":95605514},{"NoteNumber":68,"Velocity":43,"Duration":155709,"SoundDuration":155709,"Delta":95605514},{"NoteNumber":58,"Velocity":39,"Duration":155709,"SoundDuration":155709,"Delta":95605514},{"NoteNumber":75,"Velocity":49,"Duration":183486,"SoundDuration":183486,"Delta":95813127},{"NoteNumber":67,"Velocity":49,"Duration":183486,"SoundDuration":183486,"Delta":95813127},{"NoteNumber":58,"Velocity":49,"Duration":183486,"SoundDuration":183486,"Delta":95813127},{"NoteNumber":55,"Velocity":49,"Duration":183486,"SoundDuration":183486,"Delta":95996613},{"NoteNumber":79,"Velocity":49,"Duration":183486,"SoundDuration":183486,"Delta":96180099},{"NoteNumber":51,"Velocity":42,"Duration":183486,"SoundDuration":183486,"Delta":96180099},{"NoteNumber":80,"Velocity":49,"Duration":90634,"SoundDuration":90634,"Delta":96363585},{"NoteNumber":50,"Velocity":49,"Duration":181269,"SoundDuration":181269,"Delta":96363585},{"NoteNumber":79,"Velocity":45,"Duration":90634,"SoundDuration":90634,"Delta":96454219},{"NoteNumber":80,"Velocity":49,"Duration":90634,"SoundDuration":90634,"Delta":96544854},{"NoteNumber":53,"Velocity":45,"Duration":181269,"SoundDuration":181269,"Delta":96544854},{"NoteNumber":77,"Velocity":44,"Duration":90634,"SoundDuration":90634,"Delta":96635488},{"NoteNumber":82,"Velocity":49,"Duration":92024,"SoundDuration":92024,"Delta":96726123},{"NoteNumber":58,"Velocity":45,"Duration":140411,"SoundDuration":140411,"Delta":96726123},{"NoteNumber":80,"Velocity":44,"Duration":96774,"SoundDuration":96774,"Delta":96818147},{"NoteNumber":79,"Velocity":67,"Duration":184615,"SoundDuration":184615,"Delta":96914922},{"NoteNumber":58,"Velocity":51,"Duration":184615,"SoundDuration":184615,"Delta":96914922},{"NoteNumber":94,"Velocity":62,"Duration":183778,"SoundDuration":183778,"Delta":97099537},{"NoteNumber":55,"Velocity":47,"Duration":183778,"SoundDuration":183778,"Delta":97099537},{"NoteNumber":51,"Velocity":47,"Duration":137833,"SoundDuration":137833,"Delta":97283316},{"NoteNumber":51,"Velocity":52,"Duration":183778,"SoundDuration":183778,"Delta":97467094},{"NoteNumber":55,"Velocity":46,"Duration":183778,"SoundDuration":183778,"Delta":97650873},{"NoteNumber":67,"Velocity":49,"Duration":148515,"SoundDuration":148515,"Delta":97834651},{"NoteNumber":52,"Velocity":49,"Duration":148515,"SoundDuration":148515,"Delta":97834651},{"NoteNumber":60,"Velocity":60,"Duration":148515,"SoundDuration":148515,"Delta":97834651},{"NoteNumber":60,"Velocity":66,"Duration":183486,"SoundDuration":183486,"Delta":98032671},{"NoteNumber":53,"Velocity":53,"Duration":183486,"SoundDuration":183486,"Delta":98032671},{"NoteNumber":56,"Velocity":53,"Duration":183486,"SoundDuration":183486,"Delta":98216157},{"NoteNumber":68,"Velocity":49,"Duration":183486,"SoundDuration":183486,"Delta":98399643},{"NoteNumber":53,"Velocity":53,"Duration":183486,"SoundDuration":183486,"Delta":98399643},{"NoteNumber":70,"Velocity":51,"Duration":90908,"SoundDuration":90908,"Delta":98583129},{"NoteNumber":52,"Velocity":59,"Duration":181818,"SoundDuration":181818,"Delta":98583129},{"NoteNumber":68,"Velocity":41,"Duration":90909,"SoundDuration":90909,"Delta":98674038},{"NoteNumber":70,"Velocity":49,"Duration":90908,"SoundDuration":90908,"Delta":98764947},{"NoteNumber":55,"Velocity":53,"Duration":181817,"SoundDuration":181817,"Delta":98764947},{"NoteNumber":67,"Velocity":42,"Duration":90908,"SoundDuration":90908,"Delta":98855856},{"NoteNumber":72,"Velocity":49,"Duration":91463,"SoundDuration":91463,"Delta":98946765},{"NoteNumber":60,"Velocity":58,"Duration":140805,"SoundDuration":140805,"Delta":98946765},{"NoteNumber":70,"Velocity":47,"Duration":98684,"SoundDuration":98684,"Delta":99038229},{"NoteNumber":68,"Velocity":69,"Duration":183486,"SoundDuration":183486,"Delta":99136913},{"NoteNumber":60,"Velocity":70,"Duration":183486,"SoundDuration":183486,"Delta":99136913},{"NoteNumber":84,"Velocity":61,"Duration":183486,"SoundDuration":183486,"Delta":99320399},{"NoteNumber":56,"Velocity":56,"Duration":183486,"SoundDuration":183486,"Delta":99320399},{"NoteNumber":53,"Velocity":57,"Duration":183486,"SoundDuration":183486,"Delta":99503885},{"NoteNumber":50,"Velocity":64,"Duration":183485,"SoundDuration":183485,"Delta":99687371},{"NoteNumber":53,"Velocity":58,"Duration":183486,"SoundDuration":183486,"Delta":99870857},{"NoteNumber":77,"Velocity":55,"Duration":144230,"SoundDuration":144230,"Delta":100054343},{"NoteNumber":50,"Velocity":53,"Duration":144230,"SoundDuration":144230,"Delta":100054343},{"NoteNumber":58,"Velocity":63,"Duration":144230,"SoundDuration":144230,"Delta":100054343},{"NoteNumber":58,"Velocity":72,"Duration":184049,"SoundDuration":184049,"Delta":100246650},{"NoteNumber":51,"Velocity":61,"Duration":184049,"SoundDuration":184049,"Delta":100246650},{"NoteNumber":55,"Velocity":56,"Duration":184049,"SoundDuration":184049,"Delta":100430699},{"NoteNumber":79,"Velocity":53,"Duration":184049,"SoundDuration":184049,"Delta":100614748},{"NoteNumber":51,"Velocity":57,"Duration":184049,"SoundDuration":184049,"Delta":100614748},{"NoteNumber":80,"Velocity":53,"Duration":90634,"SoundDuration":90634,"Delta":100798797},{"NoteNumber":44,"Velocity":50,"Duration":181269,"SoundDuration":181269,"Delta":100798797},{"NoteNumber":48,"Velocity":59,"Duration":181269,"SoundDuration":181269,"Delta":100798797},{"NoteNumber":79,"Velocity":49,"Duration":90634,"SoundDuration":90634,"Delta":100889432},{"NoteNumber":80,"Velocity":55,"Duration":89960,"SoundDuration":89960,"Delta":100980066},{"NoteNumber":53,"Velocity":55,"Duration":179920,"SoundDuration":179920,"Delta":100980066},{"NoteNumber":77,"Velocity":49,"Duration":89960,"SoundDuration":89960,"Delta":101070027},{"NoteNumber":92,"Velocity":74,"Duration":143770,"SoundDuration":143770,"Delta":101159987},{"NoteNumber":56,"Velocity":55,"Duration":143770,"SoundDuration":143770,"Delta":101159987},{"NoteNumber":46,"Velocity":61,"Duration":184049,"SoundDuration":184049,"Delta":101351681},{"NoteNumber":51,"Velocity":56,"Duration":184049,"SoundDuration":184049,"Delta":101535730},{"NoteNumber":75,"Velocity":49,"Duration":141955,"SoundDuration":141955,"Delta":101719779},{"NoteNumber":55,"Velocity":56,"Duration":141955,"SoundDuration":141955,"Delta":101719779},{"NoteNumber":77,"Velocity":57,"Duration":91185,"SoundDuration":91185,"Delta":101909053},{"NoteNumber":46,"Velocity":62,"Duration":182371,"SoundDuration":182371,"Delta":101909053},{"NoteNumber":75,"Velocity":49,"Duration":91185,"SoundDuration":91185,"Delta":102000239},{"NoteNumber":77,"Velocity":56,"Duration":90231,"SoundDuration":90231,"Delta":102091424},{"NoteNumber":50,"Velocity":56,"Duration":180462,"SoundDuration":180462,"Delta":102091424},{"NoteNumber":74,"Velocity":49,"Duration":90231,"SoundDuration":90231,"Delta":102181655},{"NoteNumber":89,"Velocity":72,"Duration":147541,"SoundDuration":147541,"Delta":102271886},{"NoteNumber":58,"Velocity":56,"Duration":147541,"SoundDuration":147541,"Delta":102271886},{"NoteNumber":46,"Velocity":56,"Duration":147541,"SoundDuration":147541,"Delta":102271886},{"NoteNumber":67,"Velocity":81,"Duration":91742,"SoundDuration":91742,"Delta":102468608},{"NoteNumber":46,"Velocity":63,"Duration":183486,"SoundDuration":183486,"Delta":102468608},{"NoteNumber":79,"Velocity":60,"Duration":91743,"SoundDuration":91743,"Delta":102560351},{"NoteNumber":67,"Velocity":69,"Duration":91742,"SoundDuration":91742,"Delta":102652094},{"NoteNumber":43,"Velocity":63,"Duration":183486,"SoundDuration":183486,"Delta":102652094},{"NoteNumber":79,"Velocity":59,"Duration":91743,"SoundDuration":91743,"Delta":102743837},{"NoteNumber":70,"Velocity":67,"Duration":91742,"SoundDuration":91742,"Delta":102835580},{"NoteNumber":39,"Velocity":55,"Duration":183486,"SoundDuration":183486,"Delta":102835580},{"NoteNumber":82,"Velocity":59,"Duration":91743,"SoundDuration":91743,"Delta":102927323},{"NoteNumber":70,"Velocity":77,"Duration":90634,"SoundDuration":90634,"Delta":103019066},{"NoteNumber":38,"Velocity":63,"Duration":181269,"SoundDuration":181269,"Delta":103019066},{"NoteNumber":82,"Velocity":57,"Duration":90634,"SoundDuration":90634,"Delta":103109700},{"NoteNumber":70,"Velocity":63,"Duration":90634,"SoundDuration":90634,"Delta":103200335},{"NoteNumber":41,"Velocity":57,"Duration":181269,"SoundDuration":181269,"Delta":103200335},{"NoteNumber":82,"Velocity":56,"Duration":90634,"SoundDuration":90634,"Delta":103290969},{"NoteNumber":68,"Velocity":63,"Duration":92024,"SoundDuration":92024,"Delta":103381604},{"NoteNumber":46,"Velocity":57,"Duration":140411,"SoundDuration":140411,"Delta":103381604},{"NoteNumber":80,"Velocity":56,"Duration":96774,"SoundDuration":96774,"Delta":103473628},{"NoteNumber":67,"Velocity":73,"Duration":92307,"SoundDuration":92307,"Delta":103570403},{"NoteNumber":46,"Velocity":63,"Duration":184615,"SoundDuration":184615,"Delta":103570403},{"NoteNumber":79,"Velocity":60,"Duration":92307,"SoundDuration":92307,"Delta":103662710},{"NoteNumber":67,"Velocity":66,"Duration":92307,"SoundDuration":92307,"Delta":103755018},{"NoteNumber":43,"Velocity":58,"Duration":184615,"SoundDuration":184615,"Delta":103755018},{"NoteNumber":79,"Velocity":60,"Duration":92307,"SoundDuration":92307,"Delta":103847326},{"NoteNumber":70,"Velocity":66,"Duration":91889,"SoundDuration":91889,"Delta":103939634},{"NoteNumber":39,"Velocity":58,"Duration":137833,"SoundDuration":137833,"Delta":103939634},{"NoteNumber":82,"Velocity":59,"Duration":91889,"SoundDuration":91889,"Delta":104031523},{"NoteNumber":70,"Velocity":73,"Duration":91889,"SoundDuration":91889,"Delta":104123412},{"NoteNumber":39,"Velocity":63,"Duration":183778,"SoundDuration":183778,"Delta":104123412},{"NoteNumber":82,"Velocity":60,"Duration":91889,"SoundDuration":91889,"Delta":104215301},{"NoteNumber":70,"Velocity":63,"Duration":91889,"SoundDuration":91889,"Delta":104307191},{"NoteNumber":43,"Velocity":55,"Duration":183778,"SoundDuration":183778,"Delta":104307191},{"NoteNumber":82,"Velocity":55,"Duration":91889,"SoundDuration":91889,"Delta":104399080},{"NoteNumber":67,"Velocity":66,"Duration":99010,"SoundDuration":99010,"Delta":104490969},{"NoteNumber":40,"Velocity":58,"Duration":148515,"SoundDuration":148515,"Delta":104490969},{"NoteNumber":48,"Velocity":70,"Duration":148515,"SoundDuration":148515,"Delta":104490969},{"NoteNumber":79,"Velocity":60,"Duration":99009,"SoundDuration":99009,"Delta":104589979},{"NoteNumber":68,"Velocity":73,"Duration":91742,"SoundDuration":91742,"Delta":104688989},{"NoteNumber":48,"Velocity":78,"Duration":183486,"SoundDuration":183486,"Delta":104688989},{"NoteNumber":41,"Velocity":63,"Duration":183486,"SoundDuration":183486,"Delta":104688989},{"NoteNumber":80,"Velocity":53,"Duration":91743,"SoundDuration":91743,"Delta":104780732},{"NoteNumber":68,"Velocity":61,"Duration":91742,"SoundDuration":91742,"Delta":104872475},{"NoteNumber":44,"Velocity":63,"Duration":183486,"SoundDuration":183486,"Delta":104872475},{"NoteNumber":80,"Velocity":53,"Duration":91743,"SoundDuration":91743,"Delta":104964218},{"NoteNumber":72,"Velocity":61,"Duration":91742,"SoundDuration":91742,"Delta":105055961},{"NoteNumber":41,"Velocity":63,"Duration":183486,"SoundDuration":183486,"Delta":105055961},{"NoteNumber":84,"Velocity":56,"Duration":91743,"SoundDuration":91743,"Delta":105147704},{"NoteNumber":72,"Velocity":73,"Duration":90503,"SoundDuration":90503,"Delta":105239447},{"NoteNumber":40,"Velocity":69,"Duration":181006,"SoundDuration":181006,"Delta":105239447},{"NoteNumber":84,"Velocity":53,"Duration":90503,"SoundDuration":90503,"Delta":105329950},{"NoteNumber":72,"Velocity":61,"Duration":90503,"SoundDuration":90503,"Delta":105420454},{"NoteNumber":43,"Velocity":62,"Duration":181006,"SoundDuration":181006,"Delta":105420454},{"NoteNumber":84,"Velocity":55,"Duration":90503,"SoundDuration":90503,"Delta":105510957},{"NoteNumber":70,"Velocity":61,"Duration":91463,"SoundDuration":91463,"Delta":105601460},{"NoteNumber":48,"Velocity":73,"Duration":140805,"SoundDuration":140805,"Delta":105601460},{"NoteNumber":82,"Velocity":53,"Duration":98684,"SoundDuration":98684,"Delta":105692924},{"NoteNumber":68,"Velocity":73,"Duration":91742,"SoundDuration":91742,"Delta":105791608},{"NoteNumber":48,"Velocity":86,"Duration":183486,"SoundDuration":183486,"Delta":105791608},{"NoteNumber":80,"Velocity":55,"Duration":91743,"SoundDuration":91743,"Delta":105883351},{"NoteNumber":68,"Velocity":61,"Duration":91742,"SoundDuration":91742,"Delta":105975094},{"NoteNumber":44,"Velocity":63,"Duration":183486,"SoundDuration":183486,"Delta":105975094},{"NoteNumber":80,"Velocity":55,"Duration":91743,"SoundDuration":91743,"Delta":106066837},{"NoteNumber":72,"Velocity":61,"Duration":91742,"SoundDuration":91742,"Delta":106158580},{"NoteNumber":41,"Velocity":63,"Duration":183486,"SoundDuration":183486,"Delta":106158580},{"NoteNumber":84,"Velocity":55,"Duration":91743,"SoundDuration":91743,"Delta":106250323},{"NoteNumber":72,"Velocity":73,"Duration":91052,"SoundDuration":91052,"Delta":106342066},{"NoteNumber":38,"Velocity":72,"Duration":182105,"SoundDuration":182105,"Delta":106342066},{"NoteNumber":84,"Velocity":52,"Duration":91052,"SoundDuration":91052,"Delta":106433118},{"NoteNumber":70,"Velocity":59,"Duration":91052,"SoundDuration":91052,"Delta":106524171},{"NoteNumber":41,"Velocity":63,"Duration":182104,"SoundDuration":182104,"Delta":106524171},{"NoteNumber":82,"Velocity":52,"Duration":91052,"SoundDuration":91052,"Delta":106615223},{"NoteNumber":68,"Velocity":59,"Duration":96153,"SoundDuration":96153,"Delta":106706276},{"NoteNumber":38,"Velocity":58,"Duration":144230,"SoundDuration":144230,"Delta":106706276},{"NoteNumber":46,"Velocity":69,"Duration":144230,"SoundDuration":144230,"Delta":106706276},{"NoteNumber":80,"Velocity":53,"Duration":96153,"SoundDuration":96153,"Delta":106802430},{"NoteNumber":67,"Velocity":73,"Duration":92024,"SoundDuration":92024,"Delta":106898583},{"NoteNumber":39,"Velocity":66,"Duration":184049,"SoundDuration":184049,"Delta":106898583},{"NoteNumber":46,"Velocity":78,"Duration":184049,"SoundDuration":184049,"Delta":106898583},{"NoteNumber":79,"Velocity":53,"Duration":92024,"SoundDuration":92024,"Delta":106990608},{"NoteNumber":70,"Velocity":61,"Duration":92024,"SoundDuration":92024,"Delta":107082632},{"NoteNumber":43,"Velocity":60,"Duration":184049,"SoundDuration":184049,"Delta":107082632},{"NoteNumber":82,"Velocity":55,"Duration":92024,"SoundDuration":92024,"Delta":107174657},{"NoteNumber":75,"Velocity":61,"Duration":92024,"SoundDuration":92024,"Delta":107266681},{"NoteNumber":39,"Velocity":60,"Duration":184049,"SoundDuration":184049,"Delta":107266681},{"NoteNumber":87,"Velocity":55,"Duration":92024,"SoundDuration":92024,"Delta":107358706},{"NoteNumber":75,"Velocity":73,"Duration":90634,"SoundDuration":90634,"Delta":107450730},{"NoteNumber":32,"Velocity":53,"Duration":362538,"SoundDuration":362538,"Delta":107450730},{"NoteNumber":36,"Velocity":63,"Duration":181269,"SoundDuration":181269,"Delta":107450730},{"NoteNumber":87,"Velocity":53,"Duration":90634,"SoundDuration":90634,"Delta":107541365},{"NoteNumber":72,"Velocity":60,"Duration":90634,"SoundDuration":90634,"Delta":107631999},{"NoteNumber":41,"Velocity":58,"Duration":181269,"SoundDuration":181269,"Delta":107631999},{"NoteNumber":84,"Velocity":53,"Duration":90634,"SoundDuration":90634,"Delta":107722634},{"NoteNumber":68,"Velocity":60,"Duration":95846,"SoundDuration":95846,"Delta":107813268},{"NoteNumber":44,"Velocity":63,"Duration":143770,"SoundDuration":143770,"Delta":107813268},{"NoteNumber":80,"Velocity":53,"Duration":95846,"SoundDuration":95846,"Delta":107909115},{"NoteNumber":75,"Velocity":73,"Duration":91329,"SoundDuration":91329,"Delta":108004962},{"NoteNumber":34,"Velocity":69,"Duration":182659,"SoundDuration":182659,"Delta":108004962},{"NoteNumber":87,"Velocity":56,"Duration":91329,"SoundDuration":91329,"Delta":108096292},{"NoteNumber":70,"Velocity":62,"Duration":91329,"SoundDuration":91329,"Delta":108187621},{"NoteNumber":39,"Velocity":58,"Duration":182659,"SoundDuration":182659,"Delta":108187621},{"NoteNumber":82,"Velocity":55,"Duration":91329,"SoundDuration":91329,"Delta":108278951},{"NoteNumber":67,"Velocity":62,"Duration":94637,"SoundDuration":94637,"Delta":108370281},{"NoteNumber":43,"Velocity":58,"Duration":141955,"SoundDuration":141955,"Delta":108370281},{"NoteNumber":79,"Velocity":55,"Duration":94637,"SoundDuration":94637,"Delta":108464918},{"NoteNumber":70,"Velocity":73,"Duration":91185,"SoundDuration":91185,"Delta":108559555},{"NoteNumber":34,"Velocity":63,"Duration":182371,"SoundDuration":182371,"Delta":108559555},{"NoteNumber":82,"Velocity":56,"Duration":91185,"SoundDuration":91185,"Delta":108650741},{"NoteNumber":68,"Velocity":64,"Duration":91185,"SoundDuration":91185,"Delta":108741926},{"NoteNumber":41,"Velocity":57,"Duration":182371,"SoundDuration":182371,"Delta":108741926},{"NoteNumber":80,"Velocity":57,"Duration":91185,"SoundDuration":91185,"Delta":108833112},{"NoteNumber":65,"Velocity":64,"Duration":98360,"SoundDuration":98360,"Delta":108924297},{"NoteNumber":46,"Velocity":57,"Duration":147541,"SoundDuration":147541,"Delta":108924297},{"NoteNumber":77,"Velocity":58,"Duration":98360,"SoundDuration":98360,"Delta":109022658},{"NoteNumber":55,"Velocity":78,"Duration":98360,"SoundDuration":98360,"Delta":109121019},{"NoteNumber":39,"Velocity":73,"Duration":98360,"SoundDuration":98360,"Delta":109121019},{"NoteNumber":63,"Velocity":64,"Duration":98360,"SoundDuration":98360,"Delta":109219380},{"NoteNumber":58,"Velocity":72,"Duration":96462,"SoundDuration":96462,"Delta":109317740},{"NoteNumber":55,"Velocity":62,"Duration":96462,"SoundDuration":96462,"Delta":109317740},{"NoteNumber":51,"Velocity":49,"Duration":96462,"SoundDuration":96462,"Delta":109317740},{"NoteNumber":67,"Velocity":64,"Duration":96462,"SoundDuration":96462,"Delta":109414203},{"NoteNumber":63,"Velocity":74,"Duration":96462,"SoundDuration":96462,"Delta":109510666},{"NoteNumber":58,"Velocity":62,"Duration":96462,"SoundDuration":96462,"Delta":109510666},{"NoteNumber":51,"Velocity":49,"Duration":96462,"SoundDuration":96462,"Delta":109510666},{"NoteNumber":55,"Velocity":49,"Duration":96462,"SoundDuration":96462,"Delta":109510666},{"NoteNumber":70,"Velocity":64,"Duration":96462,"SoundDuration":96462,"Delta":109607129},{"NoteNumber":67,"Velocity":79,"Duration":94339,"SoundDuration":94339,"Delta":109703592},{"NoteNumber":55,"Velocity":49,"Duration":94339,"SoundDuration":94339,"Delta":109703592},{"NoteNumber":63,"Velocity":62,"Duration":94339,"SoundDuration":94339,"Delta":109703592},{"NoteNumber":58,"Velocity":49,"Duration":94339,"SoundDuration":94339,"Delta":109703592},{"NoteNumber":51,"Velocity":49,"Duration":94339,"SoundDuration":94339,"Delta":109703592},{"NoteNumber":75,"Velocity":64,"Duration":94339,"SoundDuration":94339,"Delta":109797932},{"NoteNumber":70,"Velocity":70,"Duration":94339,"SoundDuration":94339,"Delta":109892271},{"NoteNumber":51,"Velocity":49,"Duration":94339,"SoundDuration":94339,"Delta":109892271},{"NoteNumber":63,"Velocity":62,"Duration":94339,"SoundDuration":94339,"Delta":109892271},{"NoteNumber":58,"Velocity":49,"Duration":94339,"SoundDuration":94339,"Delta":109892271},{"NoteNumber":55,"Velocity":49,"Duration":94339,"SoundDuration":94339,"Delta":109892271},{"NoteNumber":79,"Velocity":64,"Duration":94339,"SoundDuration":94339,"Delta":109986611},{"NoteNumber":75,"Velocity":71,"Duration":94339,"SoundDuration":94339,"Delta":110080950},{"NoteNumber":58,"Velocity":49,"Duration":94339,"SoundDuration":94339,"Delta":110080950},{"NoteNumber":63,"Velocity":62,"Duration":94339,"SoundDuration":94339,"Delta":110080950},{"NoteNumber":51,"Velocity":49,"Duration":94339,"SoundDuration":94339,"Delta":110080950},{"NoteNumber":55,"Velocity":49,"Duration":94339,"SoundDuration":94339,"Delta":110080950},{"NoteNumber":82,"Velocity":64,"Duration":94339,"SoundDuration":94339,"Delta":110175290},{"NoteNumber":79,"Velocity":79,"Duration":93318,"SoundDuration":93318,"Delta":110269629},{"NoteNumber":63,"Velocity":70,"Duration":93318,"SoundDuration":93318,"Delta":110269629},{"NoteNumber":55,"Velocity":56,"Duration":93318,"SoundDuration":93318,"Delta":110269629},{"NoteNumber":58,"Velocity":56,"Duration":93318,"SoundDuration":93318,"Delta":110269629},{"NoteNumber":51,"Velocity":56,"Duration":93318,"SoundDuration":93318,"Delta":110269629},{"NoteNumber":87,"Velocity":64,"Duration":93318,"SoundDuration":93318,"Delta":110362948},{"NoteNumber":82,"Velocity":70,"Duration":93318,"SoundDuration":93318,"Delta":110456266},{"NoteNumber":58,"Velocity":49,"Duration":93318,"SoundDuration":93318,"Delta":110456266},{"NoteNumber":63,"Velocity":62,"Duration":93318,"SoundDuration":93318,"Delta":110456266},{"NoteNumber":51,"Velocity":49,"Duration":93318,"SoundDuration":93318,"Delta":110456266},{"NoteNumber":55,"Velocity":49,"Duration":93318,"SoundDuration":93318,"Delta":110456266},{"NoteNumber":91,"Velocity":61,"Duration":93318,"SoundDuration":93318,"Delta":110549585},{"NoteNumber":87,"Velocity":69,"Duration":93318,"SoundDuration":93318,"Delta":110642903},{"NoteNumber":55,"Velocity":49,"Duration":93318,"SoundDuration":93318,"Delta":110642903},{"NoteNumber":63,"Velocity":62,"Duration":93318,"SoundDuration":93318,"Delta":110642903},{"NoteNumber":58,"Velocity":49,"Duration":93318,"SoundDuration":93318,"Delta":110642903},{"NoteNumber":51,"Velocity":49,"Duration":93318,"SoundDuration":93318,"Delta":110642903},{"NoteNumber":94,"Velocity":62,"Duration":93318,"SoundDuration":93318,"Delta":110736222},{"NoteNumber":93,"Velocity":73,"Duration":92307,"SoundDuration":92307,"Delta":110829540},{"NoteNumber":53,"Velocity":49,"Duration":92307,"SoundDuration":92307,"Delta":110829540},{"NoteNumber":62,"Velocity":62,"Duration":92307,"SoundDuration":92307,"Delta":110829540},{"NoteNumber":56,"Velocity":49,"Duration":92307,"SoundDuration":92307,"Delta":110829540},{"NoteNumber":58,"Velocity":49,"Duration":92307,"SoundDuration":92307,"Delta":110829540},{"NoteNumber":51,"Velocity":49,"Duration":92307,"SoundDuration":92307,"Delta":110829540},{"NoteNumber":94,"Velocity":66,"Duration":92307,"SoundDuration":92307,"Delta":110921848},{"NoteNumber":93,"Velocity":70,"Duration":92307,"SoundDuration":92307,"Delta":111014156},{"NoteNumber":53,"Velocity":49,"Duration":92307,"SoundDuration":92307,"Delta":111014156},{"NoteNumber":62,"Velocity":62,"Duration":92307,"SoundDuration":92307,"Delta":111014156},{"NoteNumber":58,"Velocity":49,"Duration":92307,"SoundDuration":92307,"Delta":111014156},{"NoteNumber":56,"Velocity":49,"Duration":92307,"SoundDuration":92307,"Delta":111014156},{"NoteNumber":51,"Velocity":49,"Duration":92307,"SoundDuration":92307,"Delta":111014156},{"NoteNumber":94,"Velocity":64,"Duration":92307,"SoundDuration":92307,"Delta":111106464},{"NoteNumber":93,"Velocity":69,"Duration":92307,"SoundDuration":92307,"Delta":111198771},{"NoteNumber":53,"Velocity":49,"Duration":92307,"SoundDuration":92307,"Delta":111198771},{"NoteNumber":62,"Velocity":62,"Duration":92307,"SoundDuration":92307,"Delta":111198771},{"NoteNumber":58,"Velocity":49,"Duration":92307,"SoundDuration":92307,"Delta":111198771},{"NoteNumber":56,"Velocity":49,"Duration":92307,"SoundDuration":92307,"Delta":111198771},{"NoteNumber":51,"Velocity":49,"Duration":92307,"SoundDuration":92307,"Delta":111198771},{"NoteNumber":94,"Velocity":64,"Duration":101010,"SoundDuration":101010,"Delta":111291079},{"NoteNumber":96,"Velocity":77,"Duration":93750,"SoundDuration":93750,"Delta":111392089},{"NoteNumber":51,"Velocity":57,"Duration":93750,"SoundDuration":93750,"Delta":111392089},{"NoteNumber":63,"Velocity":72,"Duration":93750,"SoundDuration":93750,"Delta":111392089},{"NoteNumber":58,"Velocity":57,"Duration":93750,"SoundDuration":93750,"Delta":111392089},{"NoteNumber":55,"Velocity":57,"Duration":93750,"SoundDuration":93750,"Delta":111392089},{"NoteNumber":94,"Velocity":77,"Duration":93750,"SoundDuration":93750,"Delta":111485839},{"NoteNumber":92,"Velocity":76,"Duration":93457,"SoundDuration":93457,"Delta":111579589},{"NoteNumber":58,"Velocity":49,"Duration":93457,"SoundDuration":93457,"Delta":111579589},{"NoteNumber":63,"Velocity":62,"Duration":93457,"SoundDuration":93457,"Delta":111579589},{"NoteNumber":51,"Velocity":49,"Duration":93457,"SoundDuration":93457,"Delta":111579589},{"NoteNumber":55,"Velocity":49,"Duration":93457,"SoundDuration":93457,"Delta":111579589},{"NoteNumber":91,"Velocity":75,"Duration":93457,"SoundDuration":93457,"Delta":111673047},{"NoteNumber":89,"Velocity":74,"Duration":93457,"SoundDuration":93457,"Delta":111766505},{"NoteNumber":63,"Velocity":62,"Duration":93457,"SoundDuration":93457,"Delta":111766505},{"NoteNumber":55,"Velocity":49,"Duration":93457,"SoundDuration":93457,"Delta":111766505},{"NoteNumber":58,"Velocity":49,"Duration":93457,"SoundDuration":93457,"Delta":111766505},{"NoteNumber":51,"Velocity":49,"Duration":93457,"SoundDuration":93457,"Delta":111766505},{"NoteNumber":87,"Velocity":74,"Duration":93457,"SoundDuration":93457,"Delta":111859963},{"NoteNumber":86,"Velocity":72,"Duration":92171,"SoundDuration":92171,"Delta":111953421},{"NoteNumber":58,"Velocity":49,"Duration":92171,"SoundDuration":92171,"Delta":111953421},{"NoteNumber":63,"Velocity":62,"Duration":92171,"SoundDuration":92171,"Delta":111953421},{"NoteNumber":51,"Velocity":49,"Duration":92171,"SoundDuration":92171,"Delta":111953421},{"NoteNumber":55,"Velocity":49,"Duration":92171,"SoundDuration":92171,"Delta":111953421},{"NoteNumber":84,"Velocity":65,"Duration":92171,"SoundDuration":92171,"Delta":112045593},{"NoteNumber":82,"Velocity":65,"Duration":92171,"SoundDuration":92171,"Delta":112137764},{"NoteNumber":55,"Velocity":49,"Duration":92171,"SoundDuration":92171,"Delta":112137764},{"NoteNumber":63,"Velocity":62,"Duration":92171,"SoundDuration":92171,"Delta":112137764},{"NoteNumber":58,"Velocity":49,"Duration":92171,"SoundDuration":92171,"Delta":112137764},{"NoteNumber":51,"Velocity":49,"Duration":92171,"SoundDuration":92171,"Delta":112137764},{"NoteNumber":80,"Velocity":65,"Duration":92171,"SoundDuration":92171,"Delta":112229936},{"NoteNumber":79,"Velocity":65,"Duration":92171,"SoundDuration":92171,"Delta":112322107},{"NoteNumber":51,"Velocity":49,"Duration":92171,"SoundDuration":92171,"Delta":112322107},{"NoteNumber":63,"Velocity":62,"Duration":92171,"SoundDuration":92171,"Delta":112322107},{"NoteNumber":58,"Velocity":49,"Duration":92171,"SoundDuration":92171,"Delta":112322107},{"NoteNumber":55,"Velocity":49,"Duration":92171,"SoundDuration":92171,"Delta":112322107},{"NoteNumber":77,"Velocity":65,"Duration":101695,"SoundDuration":101695,"Delta":112414279},{"NoteNumber":75,"Velocity":70,"Duration":93750,"SoundDuration":93750,"Delta":112515974},{"NoteNumber":58,"Velocity":55,"Duration":93750,"SoundDuration":93750,"Delta":112515974},{"NoteNumber":63,"Velocity":69,"Duration":93750,"SoundDuration":93750,"Delta":112515974},{"NoteNumber":51,"Velocity":55,"Duration":93750,"SoundDuration":93750,"Delta":112515974},{"NoteNumber":55,"Velocity":55,"Duration":93750,"SoundDuration":93750,"Delta":112515974},{"NoteNumber":74,"Velocity":69,"Duration":93750,"SoundDuration":93750,"Delta":112609724},{"NoteNumber":72,"Velocity":68,"Duration":93750,"SoundDuration":93750,"Delta":112703474},{"NoteNumber":63,"Velocity":61,"Duration":93750,"SoundDuration":93750,"Delta":112703474},{"NoteNumber":55,"Velocity":48,"Duration":93750,"SoundDuration":93750,"Delta":112703474},{"NoteNumber":58,"Velocity":48,"Duration":93750,"SoundDuration":93750,"Delta":112703474},{"NoteNumber":51,"Velocity":48,"Duration":93750,"SoundDuration":93750,"Delta":112703474},{"NoteNumber":70,"Velocity":68,"Duration":93750,"SoundDuration":93750,"Delta":112797224},{"NoteNumber":68,"Velocity":67,"Duration":92592,"SoundDuration":92592,"Delta":112890974},{"NoteNumber":58,"Velocity":48,"Duration":92592,"SoundDuration":92592,"Delta":112890974},{"NoteNumber":63,"Velocity":61,"Duration":92592,"SoundDuration":92592,"Delta":112890974},{"NoteNumber":51,"Velocity":48,"Duration":92592,"SoundDuration":92592,"Delta":112890974},{"NoteNumber":55,"Velocity":48,"Duration":92592,"SoundDuration":92592,"Delta":112890974},{"NoteNumber":67,"Velocity":66,"Duration":92592,"SoundDuration":92592,"Delta":112983566},{"NoteNumber":65,"Velocity":64,"Duration":92171,"SoundDuration":92171,"Delta":113076159},{"NoteNumber":53,"Velocity":48,"Duration":92171,"SoundDuration":92171,"Delta":113076159},{"NoteNumber":58,"Velocity":61,"Duration":92171,"SoundDuration":92171,"Delta":113076159},{"NoteNumber":56,"Velocity":48,"Duration":92171,"SoundDuration":92171,"Delta":113076159},{"NoteNumber":51,"Velocity":48,"Duration":92171,"SoundDuration":92171,"Delta":113076159},{"NoteNumber":63,"Velocity":59,"Duration":92171,"SoundDuration":92171,"Delta":113168330},{"NoteNumber":62,"Velocity":64,"Duration":92171,"SoundDuration":92171,"Delta":113260502},{"NoteNumber":51,"Velocity":48,"Duration":92171,"SoundDuration":92171,"Delta":113260502},{"NoteNumber":58,"Velocity":61,"Duration":92171,"SoundDuration":92171,"Delta":113260502},{"NoteNumber":56,"Velocity":48,"Duration":92171,"SoundDuration":92171,"Delta":113260502},{"NoteNumber":53,"Velocity":48,"Duration":92171,"SoundDuration":92171,"Delta":113260502},{"NoteNumber":65,"Velocity":60,"Duration":92171,"SoundDuration":92171,"Delta":113352673},{"NoteNumber":68,"Velocity":69,"Duration":92171,"SoundDuration":92171,"Delta":113444845},{"NoteNumber":56,"Velocity":48,"Duration":92171,"SoundDuration":92171,"Delta":113444845},{"NoteNumber":58,"Velocity":61,"Duration":92171,"SoundDuration":92171,"Delta":113444845},{"NoteNumber":51,"Velocity":48,"Duration":92171,"SoundDuration":92171,"Delta":113444845},{"NoteNumber":53,"Velocity":48,"Duration":92171,"SoundDuration":92171,"Delta":113444845},{"NoteNumber":62,"Velocity":63,"Duration":109488,"SoundDuration":109488,"Delta":113537016},{"NoteNumber":55,"Velocity":78,"Duration":98360,"SoundDuration":98360,"Delta":113646505},{"NoteNumber":39,"Velocity":73,"Duration":98360,"SoundDuration":98360,"Delta":113646505},{"NoteNumber":63,"Velocity":64,"Duration":98360,"SoundDuration":98360,"Delta":113744866},{"NoteNumber":58,"Velocity":72,"Duration":96462,"SoundDuration":96462,"Delta":113843227},{"NoteNumber":51,"Velocity":49,"Duration":96462,"SoundDuration":96462,"Delta":113843227},{"NoteNumber":55,"Velocity":62,"Duration":96462,"SoundDuration":96462,"Delta":113843227},{"NoteNumber":67,"Velocity":64,"Duration":96462,"SoundDuration":96462,"Delta":113939690},{"NoteNumber":63,"Velocity":74,"Duration":96462,"SoundDuration":96462,"Delta":114036153},{"NoteNumber":51,"Velocity":49,"Duration":96462,"SoundDuration":96462,"Delta":114036153},{"NoteNumber":58,"Velocity":62,"Duration":96462,"SoundDuration":96462,"Delta":114036153},{"NoteNumber":55,"Velocity":49,"Duration":96462,"SoundDuration":96462,"Delta":114036153},{"NoteNumber":70,"Velocity":64,"Duration":96462,"SoundDuration":96462,"Delta":114132616},{"NoteNumber":67,"Velocity":79,"Duration":94339,"SoundDuration":94339,"Delta":114229079},{"NoteNumber":58,"Velocity":49,"Duration":94339,"SoundDuration":94339,"Delta":114229079},{"NoteNumber":63,"Velocity":62,"Duration":94339,"SoundDuration":94339,"Delta":114229079},{"NoteNumber":51,"Velocity":49,"Duration":94339,"SoundDuration":94339,"Delta":114229079},{"NoteNumber":55,"Velocity":49,"Duration":94339,"SoundDuration":94339,"Delta":114229079},{"NoteNumber":75,"Velocity":64,"Duration":94339,"SoundDuration":94339,"Delta":114323418},{"NoteNumber":70,"Velocity":70,"Duration":94339,"SoundDuration":94339,"Delta":114417758},{"NoteNumber":63,"Velocity":62,"Duration":94339,"SoundDuration":94339,"Delta":114417758},{"NoteNumber":55,"Velocity":49,"Duration":94339,"SoundDuration":94339,"Delta":114417758},{"NoteNumber":58,"Velocity":49,"Duration":94339,"SoundDuration":94339,"Delta":114417758},{"NoteNumber":51,"Velocity":49,"Duration":94339,"SoundDuration":94339,"Delta":114417758},{"NoteNumber":79,"Velocity":64,"Duration":94339,"SoundDuration":94339,"Delta":114512097},{"NoteNumber":75,"Velocity":71,"Duration":94339,"SoundDuration":94339,"Delta":114606437},{"NoteNumber":58,"Velocity":49,"Duration":94339,"SoundDuration":94339,"Delta":114606437},{"NoteNumber":63,"Velocity":62,"Duration":94339,"SoundDuration":94339,"Delta":114606437},{"NoteNumber":51,"Velocity":49,"Duration":94339,"SoundDuration":94339,"Delta":114606437},{"NoteNumber":55,"Velocity":49,"Duration":94339,"SoundDuration":94339,"Delta":114606437},{"NoteNumber":82,"Velocity":64,"Duration":94339,"SoundDuration":94339,"Delta":114700776},{"NoteNumber":79,"Velocity":79,"Duration":93609,"SoundDuration":93609,"Delta":114795116},{"NoteNumber":55,"Velocity":56,"Duration":93609,"SoundDuration":93609,"Delta":114795116},{"NoteNumber":63,"Velocity":70,"Duration":93609,"SoundDuration":93609,"Delta":114795116},{"NoteNumber":58,"Velocity":56,"Duration":93609,"SoundDuration":93609,"Delta":114795116},{"NoteNumber":51,"Velocity":56,"Duration":93609,"SoundDuration":93609,"Delta":114795116},{"NoteNumber":87,"Velocity":64,"Duration":93609,"SoundDuration":93609,"Delta":114888725},{"NoteNumber":82,"Velocity":70,"Duration":93609,"SoundDuration":93609,"Delta":114982335},{"NoteNumber":58,"Velocity":49,"Duration":93609,"SoundDuration":93609,"Delta":114982335},{"NoteNumber":51,"Velocity":49,"Duration":93609,"SoundDuration":93609,"Delta":114982335},{"NoteNumber":55,"Velocity":49,"Duration":93609,"SoundDuration":93609,"Delta":114982335},{"NoteNumber":63,"Velocity":62,"Duration":93609,"SoundDuration":93609,"Delta":114982335},{"NoteNumber":91,"Velocity":61,"Duration":93609,"SoundDuration":93609,"Delta":115075944},{"NoteNumber":87,"Velocity":69,"Duration":93609,"SoundDuration":93609,"Delta":115169554},{"NoteNumber":55,"Velocity":49,"Duration":93609,"SoundDuration":93609,"Delta":115169554},{"NoteNumber":51,"Velocity":49,"Duration":93609,"SoundDuration":93609,"Delta":115169554},{"NoteNumber":58,"Velocity":49,"Duration":93609,"SoundDuration":93609,"Delta":115169554},{"NoteNumber":63,"Velocity":62,"Duration":93609,"SoundDuration":93609,"Delta":115169554},{"NoteNumber":94,"Velocity":62,"Duration":93609,"SoundDuration":93609,"Delta":115263163},{"NoteNumber":93,"Velocity":73,"Duration":92307,"SoundDuration":92307,"Delta":115356773},{"NoteNumber":62,"Velocity":62,"Duration":92307,"SoundDuration":92307,"Delta":115356773},{"NoteNumber":53,"Velocity":49,"Duration":92307,"SoundDuration":92307,"Delta":115356773},{"NoteNumber":51,"Velocity":49,"Duration":92307,"SoundDuration":92307,"Delta":115356773},{"NoteNumber":58,"Velocity":49,"Duration":92307,"SoundDuration":92307,"Delta":115356773},{"NoteNumber":56,"Velocity":49,"Duration":92307,"SoundDuration":92307,"Delta":115356773},{"NoteNumber":94,"Velocity":66,"Duration":92307,"SoundDuration":92307,"Delta":115449080},{"NoteNumber":93,"Velocity":70,"Duration":92307,"SoundDuration":92307,"Delta":115541388},{"NoteNumber":62,"Velocity":62,"Duration":92307,"SoundDuration":92307,"Delta":115541388},{"NoteNumber":53,"Velocity":49,"Duration":92307,"SoundDuration":92307,"Delta":115541388},{"NoteNumber":51,"Velocity":49,"Duration":92307,"SoundDuration":92307,"Delta":115541388},{"NoteNumber":56,"Velocity":49,"Duration":92307,"SoundDuration":92307,"Delta":115541388},{"NoteNumber":58,"Velocity":49,"Duration":92307,"SoundDuration":92307,"Delta":115541388},{"NoteNumber":94,"Velocity":64,"Duration":92307,"SoundDuration":92307,"Delta":115633696},{"NoteNumber":93,"Velocity":69,"Duration":92307,"SoundDuration":92307,"Delta":115726004},{"NoteNumber":62,"Velocity":62,"Duration":92307,"SoundDuration":92307,"Delta":115726004},{"NoteNumber":53,"Velocity":49,"Duration":92307,"SoundDuration":92307,"Delta":115726004},{"NoteNumber":51,"Velocity":49,"Duration":92307,"SoundDuration":92307,"Delta":115726004},{"NoteNumber":56,"Velocity":49,"Duration":92307,"SoundDuration":92307,"Delta":115726004},{"NoteNumber":58,"Velocity":49,"Duration":92307,"SoundDuration":92307,"Delta":115726004},{"NoteNumber":94,"Velocity":64,"Duration":101010,"SoundDuration":101010,"Delta":115818311},{"NoteNumber":96,"Velocity":77,"Duration":93750,"SoundDuration":93750,"Delta":115919321},{"NoteNumber":63,"Velocity":72,"Duration":93750,"SoundDuration":93750,"Delta":115919321},{"NoteNumber":51,"Velocity":57,"Duration":93750,"SoundDuration":93750,"Delta":115919321},{"NoteNumber":58,"Velocity":57,"Duration":93750,"SoundDuration":93750,"Delta":115919321},{"NoteNumber":55,"Velocity":57,"Duration":93750,"SoundDuration":93750,"Delta":115919321},{"NoteNumber":94,"Velocity":77,"Duration":93750,"SoundDuration":93750,"Delta":116013071},{"NoteNumber":92,"Velocity":76,"Duration":93457,"SoundDuration":93457,"Delta":116106821},{"NoteNumber":63,"Velocity":62,"Duration":93457,"SoundDuration":93457,"Delta":116106821},{"NoteNumber":58,"Velocity":49,"Duration":93457,"SoundDuration":93457,"Delta":116106821},{"NoteNumber":51,"Velocity":49,"Duration":93457,"SoundDuration":93457,"Delta":116106821},{"NoteNumber":55,"Velocity":49,"Duration":93457,"SoundDuration":93457,"Delta":116106821},{"NoteNumber":91,"Velocity":75,"Duration":93457,"SoundDuration":93457,"Delta":116200279},{"NoteNumber":89,"Velocity":74,"Duration":93457,"SoundDuration":93457,"Delta":116293737},{"NoteNumber":63,"Velocity":62,"Duration":93457,"SoundDuration":93457,"Delta":116293737},{"NoteNumber":58,"Velocity":49,"Duration":93457,"SoundDuration":93457,"Delta":116293737},{"NoteNumber":55,"Velocity":49,"Duration":93457,"SoundDuration":93457,"Delta":116293737},{"NoteNumber":51,"Velocity":49,"Duration":93457,"SoundDuration":93457,"Delta":116293737},{"NoteNumber":87,"Velocity":74,"Duration":93457,"SoundDuration":93457,"Delta":116387195},{"NoteNumber":86,"Velocity":72,"Duration":92455,"SoundDuration":92455,"Delta":116480653},{"NoteNumber":58,"Velocity":49,"Duration":92455,"SoundDuration":92455,"Delta":116480653},{"NoteNumber":51,"Velocity":49,"Duration":92455,"SoundDuration":92455,"Delta":116480653},{"NoteNumber":55,"Velocity":49,"Duration":92455,"SoundDuration":92455,"Delta":116480653},{"NoteNumber":63,"Velocity":62,"Duration":92455,"SoundDuration":92455,"Delta":116480653},{"NoteNumber":84,"Velocity":65,"Duration":92455,"SoundDuration":92455,"Delta":116573109},{"NoteNumber":82,"Velocity":65,"Duration":92455,"SoundDuration":92455,"Delta":116665564},{"NoteNumber":55,"Velocity":49,"Duration":92455,"SoundDuration":92455,"Delta":116665564},{"NoteNumber":51,"Velocity":49,"Duration":92455,"SoundDuration":92455,"Delta":116665564},{"NoteNumber":58,"Velocity":49,"Duration":92455,"SoundDuration":92455,"Delta":116665564},{"NoteNumber":63,"Velocity":62,"Duration":92455,"SoundDuration":92455,"Delta":116665564},{"NoteNumber":80,"Velocity":65,"Duration":92455,"SoundDuration":92455,"Delta":116758020},{"NoteNumber":79,"Velocity":65,"Duration":92455,"SoundDuration":92455,"Delta":116850475},{"NoteNumber":63,"Velocity":62,"Duration":92455,"SoundDuration":92455,"Delta":116850475},{"NoteNumber":51,"Velocity":49,"Duration":92455,"SoundDuration":92455,"Delta":116850475},{"NoteNumber":58,"Velocity":49,"Duration":92455,"SoundDuration":92455,"Delta":116850475},{"NoteNumber":55,"Velocity":49,"Duration":92455,"SoundDuration":92455,"Delta":116850475},{"NoteNumber":77,"Velocity":65,"Duration":101695,"SoundDuration":101695,"Delta":116942931},{"NoteNumber":75,"Velocity":70,"Duration":63281,"SoundDuration":63281,"Delta":117044626},{"NoteNumber":55,"Velocity":55,"Duration":93750,"SoundDuration":93750,"Delta":117044626},{"NoteNumber":51,"Velocity":55,"Duration":93750,"SoundDuration":93750,"Delta":117044626},{"NoteNumber":58,"Velocity":69,"Duration":93750,"SoundDuration":93750,"Delta":117044626},{"NoteNumber":74,"Velocity":69,"Duration":62500,"SoundDuration":62500,"Delta":117107907},{"NoteNumber":72,"Velocity":68,"Duration":62500,"SoundDuration":62500,"Delta":117169626},{"NoteNumber":70,"Velocity":68,"Duration":62500,"SoundDuration":62500,"Delta":117232126},{"NoteNumber":58,"Velocity":61,"Duration":93750,"SoundDuration":93750,"Delta":117232126},{"NoteNumber":55,"Velocity":48,"Duration":93750,"SoundDuration":93750,"Delta":117232126},{"NoteNumber":51,"Velocity":48,"Duration":93750,"SoundDuration":93750,"Delta":117232126},{"NoteNumber":68,"Velocity":67,"Duration":62500,"SoundDuration":62500,"Delta":117294626},{"NoteNumber":67,"Velocity":66,"Duration":62500,"SoundDuration":62500,"Delta":117357126},{"NoteNumber":65,"Velocity":64,"Duration":61728,"SoundDuration":61728,"Delta":117419626},{"NoteNumber":55,"Velocity":48,"Duration":92592,"SoundDuration":92592,"Delta":117419626},{"NoteNumber":58,"Velocity":61,"Duration":92592,"SoundDuration":92592,"Delta":117419626},{"NoteNumber":51,"Velocity":48,"Duration":92592,"SoundDuration":92592,"Delta":117419626},{"NoteNumber":63,"Velocity":59,"Duration":61728,"SoundDuration":61728,"Delta":117481354},{"NoteNumber":62,"Velocity":55,"Duration":61728,"SoundDuration":61728,"Delta":117543083},{"NoteNumber":60,"Velocity":62,"Duration":92592,"SoundDuration":92592,"Delta":117604811},{"NoteNumber":53,"Velocity":61,"Duration":92592,"SoundDuration":92592,"Delta":117604811},{"NoteNumber":51,"Velocity":48,"Duration":92592,"SoundDuration":92592,"Delta":117604811},{"NoteNumber":58,"Velocity":54,"Duration":92592,"SoundDuration":92592,"Delta":117697403},{"NoteNumber":57,"Velocity":60,"Duration":92592,"SoundDuration":92592,"Delta":117789996},{"NoteNumber":51,"Velocity":48,"Duration":92592,"SoundDuration":92592,"Delta":117789996},{"NoteNumber":53,"Velocity":61,"Duration":92592,"SoundDuration":92592,"Delta":117789996},{"NoteNumber":41,"Velocity":48,"Duration":92592,"SoundDuration":92592,"Delta":117789996},{"NoteNumber":60,"Velocity":54,"Duration":92592,"SoundDuration":92592,"Delta":117882588},{"NoteNumber":63,"Velocity":64,"Duration":92592,"SoundDuration":92592,"Delta":117975181},{"NoteNumber":53,"Velocity":61,"Duration":92592,"SoundDuration":92592,"Delta":117975181},{"NoteNumber":41,"Velocity":48,"Duration":92592,"SoundDuration":92592,"Delta":117975181},{"NoteNumber":51,"Velocity":48,"Duration":92592,"SoundDuration":92592,"Delta":117975181},{"NoteNumber":57,"Velocity":54,"Duration":103806,"SoundDuration":103806,"Delta":118067773},{"NoteNumber":58,"Velocity":95,"Duration":194175,"SoundDuration":194175,"Delta":118171580},{"NoteNumber":34,"Velocity":80,"Duration":194175,"SoundDuration":194175,"Delta":118171580},{"NoteNumber":46,"Velocity":80,"Duration":194175,"SoundDuration":194175,"Delta":118171580},{"NoteNumber":70,"Velocity":89,"Duration":191083,"SoundDuration":191083,"Delta":118754105},{"NoteNumber":58,"Velocity":75,"Duration":191083,"SoundDuration":191083,"Delta":118754105},{"NoteNumber":73,"Velocity":96,"Duration":191082,"SoundDuration":191082,"Delta":119327354},{"NoteNumber":61,"Velocity":81,"Duration":191082,"SoundDuration":191082,"Delta":119327354},{"NoteNumber":78,"Velocity":88,"Duration":191083,"SoundDuration":191083,"Delta":119900603},{"NoteNumber":66,"Velocity":74,"Duration":191083,"SoundDuration":191083,"Delta":119900603},{"NoteNumber":73,"Velocity":94,"Duration":187804,"SoundDuration":187804,"Delta":120473852},{"NoteNumber":61,"Velocity":79,"Duration":187804,"SoundDuration":187804,"Delta":120473852},{"NoteNumber":70,"Velocity":88,"Duration":192307,"SoundDuration":192307,"Delta":121037267},{"NoteNumber":58,"Velocity":74,"Duration":192307,"SoundDuration":192307,"Delta":121037267},{"NoteNumber":66,"Velocity":93,"Duration":192307,"SoundDuration":192307,"Delta":121614189},{"NoteNumber":54,"Velocity":78,"Duration":192307,"SoundDuration":192307,"Delta":121614189},{"NoteNumber":61,"Velocity":82,"Duration":197706,"SoundDuration":197706,"Delta":122191112},{"NoteNumber":49,"Velocity":70,"Duration":197706,"SoundDuration":197706,"Delta":122191112},{"NoteNumber":57,"Velocity":95,"Duration":194175,"SoundDuration":194175,"Delta":122784231},{"NoteNumber":45,"Velocity":80,"Duration":194175,"SoundDuration":194175,"Delta":122784231},{"NoteNumber":33,"Velocity":80,"Duration":194175,"SoundDuration":194175,"Delta":122784231},{"NoteNumber":69,"Velocity":89,"Duration":191083,"SoundDuration":191083,"Delta":123366756},{"NoteNumber":57,"Velocity":75,"Duration":191083,"SoundDuration":191083,"Delta":123366756},{"NoteNumber":72,"Velocity":96,"Duration":191082,"SoundDuration":191082,"Delta":123940005},{"NoteNumber":60,"Velocity":81,"Duration":191082,"SoundDuration":191082,"Delta":123940005},{"NoteNumber":77,"Velocity":88,"Duration":191083,"SoundDuration":191083,"Delta":124513254},{"NoteNumber":65,"Velocity":74,"Duration":191083,"SoundDuration":191083,"Delta":124513254},{"NoteNumber":72,"Velocity":94,"Duration":188678,"SoundDuration":188678,"Delta":125086503},{"NoteNumber":60,"Velocity":79,"Duration":188678,"SoundDuration":188678,"Delta":125086503},{"NoteNumber":69,"Velocity":88,"Duration":192307,"SoundDuration":192307,"Delta":125652540},{"NoteNumber":57,"Velocity":74,"Duration":192307,"SoundDuration":192307,"Delta":125652540},{"NoteNumber":65,"Velocity":93,"Duration":192307,"SoundDuration":192307,"Delta":126229463},{"NoteNumber":53,"Velocity":78,"Duration":192307,"SoundDuration":192307,"Delta":126229463},{"NoteNumber":60,"Velocity":82,"Duration":196078,"SoundDuration":196078,"Delta":126806385},{"NoteNumber":48,"Velocity":70,"Duration":196078,"SoundDuration":196078,"Delta":126806385},{"NoteNumber":73,"Velocity":55,"Duration":93750,"SoundDuration":93750,"Delta":127394621},{"NoteNumber":61,"Velocity":34,"Duration":93750,"SoundDuration":93750,"Delta":127394621},{"NoteNumber":66,"Velocity":40,"Duration":93750,"SoundDuration":93750,"Delta":127394621},{"NoteNumber":58,"Velocity":34,"Duration":93750,"SoundDuration":93750,"Delta":127394621},{"NoteNumber":58,"Velocity":29,"Duration":86455,"SoundDuration":86455,"Delta":127582121},{"NoteNumber":61,"Velocity":29,"Duration":86455,"SoundDuration":86455,"Delta":127582121},{"NoteNumber":66,"Velocity":35,"Duration":86455,"SoundDuration":86455,"Delta":127582121},{"NoteNumber":84,"Velocity":51,"Duration":43227,"SoundDuration":43227,"Delta":127711804},{"NoteNumber":82,"Velocity":57,"Duration":86455,"SoundDuration":86455,"Delta":127755031},{"NoteNumber":61,"Velocity":29,"Duration":86455,"SoundDuration":86455,"Delta":127755031},{"NoteNumber":58,"Velocity":29,"Duration":86455,"SoundDuration":86455,"Delta":127755031},{"NoteNumber":66,"Velocity":35,"Duration":86455,"SoundDuration":86455,"Delta":127755031},{"NoteNumber":81,"Velocity":52,"Duration":86455,"SoundDuration":86455,"Delta":127841486},{"NoteNumber":82,"Velocity":57,"Duration":86455,"SoundDuration":86455,"Delta":127927942},{"NoteNumber":58,"Velocity":29,"Duration":86455,"SoundDuration":86455,"Delta":127927942},{"NoteNumber":66,"Velocity":36,"Duration":86455,"SoundDuration":86455,"Delta":127927942},{"NoteNumber":61,"Velocity":29,"Duration":86455,"SoundDuration":86455,"Delta":127927942},{"NoteNumber":58,"Velocity":30,"Duration":85469,"SoundDuration":85469,"Delta":128100852},{"NoteNumber":61,"Velocity":30,"Duration":85469,"SoundDuration":85469,"Delta":128100852},{"NoteNumber":66,"Velocity":36,"Duration":85469,"SoundDuration":85469,"Delta":128100852},{"NoteNumber":87,"Velocity":53,"Duration":42734,"SoundDuration":42734,"Delta":128229057},{"NoteNumber":85,"Velocity":59,"Duration":85469,"SoundDuration":85469,"Delta":128271792},{"NoteNumber":61,"Velocity":30,"Duration":85469,"SoundDuration":85469,"Delta":128271792},{"NoteNumber":66,"Velocity":36,"Duration":85469,"SoundDuration":85469,"Delta":128271792},{"NoteNumber":58,"Velocity":30,"Duration":85469,"SoundDuration":85469,"Delta":128271792},{"NoteNumber":84,"Velocity":52,"Duration":85470,"SoundDuration":85470,"Delta":128357262},{"NoteNumber":85,"Velocity":63,"Duration":93750,"SoundDuration":93750,"Delta":128442732},{"NoteNumber":58,"Velocity":36,"Duration":93750,"SoundDuration":93750,"Delta":128442732},{"NoteNumber":61,"Velocity":36,"Duration":93750,"SoundDuration":93750,"Delta":128442732},{"NoteNumber":66,"Velocity":42,"Duration":93750,"SoundDuration":93750,"Delta":128442732},{"NoteNumber":61,"Velocity":31,"Duration":88757,"SoundDuration":88757,"Delta":128630232},{"NoteNumber":58,"Velocity":31,"Duration":88757,"SoundDuration":88757,"Delta":128630232},{"NoteNumber":66,"Velocity":37,"Duration":88757,"SoundDuration":88757,"Delta":128630232},{"NoteNumber":92,"Velocity":54,"Duration":44378,"SoundDuration":44378,"Delta":128763368},{"NoteNumber":90,"Velocity":60,"Duration":87719,"SoundDuration":87719,"Delta":128807747},{"NoteNumber":58,"Velocity":31,"Duration":87719,"SoundDuration":87719,"Delta":128807747},{"NoteNumber":66,"Velocity":37,"Duration":87719,"SoundDuration":87719,"Delta":128807747},{"NoteNumber":61,"Velocity":31,"Duration":87719,"SoundDuration":87719,"Delta":128807747},{"NoteNumber":89,"Velocity":55,"Duration":87719,"SoundDuration":87719,"Delta":128895466},{"NoteNumber":90,"Velocity":61,"Duration":86455,"SoundDuration":86455,"Delta":128983186},{"NoteNumber":58,"Velocity":31,"Duration":86455,"SoundDuration":86455,"Delta":128983186},{"NoteNumber":61,"Velocity":31,"Duration":86455,"SoundDuration":86455,"Delta":128983186},{"NoteNumber":66,"Velocity":38,"Duration":86455,"SoundDuration":86455,"Delta":128983186},{"NoteNumber":61,"Velocity":29,"Duration":86455,"SoundDuration":86455,"Delta":129156096},{"NoteNumber":66,"Velocity":35,"Duration":86455,"SoundDuration":86455,"Delta":129156096},{"NoteNumber":58,"Velocity":29,"Duration":86455,"SoundDuration":86455,"Delta":129156096},{"NoteNumber":87,"Velocity":51,"Duration":43227,"SoundDuration":43227,"Delta":129285779},{"NoteNumber":85,"Velocity":57,"Duration":91463,"SoundDuration":91463,"Delta":129329007},{"NoteNumber":58,"Velocity":29,"Duration":91463,"SoundDuration":91463,"Delta":129329007},{"NoteNumber":61,"Velocity":29,"Duration":91463,"SoundDuration":91463,"Delta":129329007},{"NoteNumber":66,"Velocity":35,"Duration":91463,"SoundDuration":91463,"Delta":129329007},{"NoteNumber":84,"Velocity":50,"Duration":91463,"SoundDuration":91463,"Delta":129420470},{"NoteNumber":85,"Velocity":60,"Duration":87719,"SoundDuration":87719,"Delta":129511934},{"NoteNumber":61,"Velocity":34,"Duration":87719,"SoundDuration":87719,"Delta":129511934},{"NoteNumber":58,"Velocity":34,"Duration":87719,"SoundDuration":87719,"Delta":129511934},{"NoteNumber":66,"Velocity":40,"Duration":87719,"SoundDuration":87719,"Delta":129511934},{"NoteNumber":58,"Velocity":29,"Duration":87719,"SoundDuration":87719,"Delta":129687372},{"NoteNumber":66,"Velocity":35,"Duration":87719,"SoundDuration":87719,"Delta":129687372},{"NoteNumber":61,"Velocity":29,"Duration":87719,"SoundDuration":87719,"Delta":129687372},{"NoteNumber":84,"Velocity":51,"Duration":43859,"SoundDuration":43859,"Delta":129818951},{"NoteNumber":82,"Velocity":56,"Duration":87719,"SoundDuration":87719,"Delta":129862811},{"NoteNumber":58,"Velocity":29,"Duration":87719,"SoundDuration":87719,"Delta":129862811},{"NoteNumber":61,"Velocity":29,"Duration":87719,"SoundDuration":87719,"Delta":129862811},{"NoteNumber":66,"Velocity":35,"Duration":87719,"SoundDuration":87719,"Delta":129862811},{"NoteNumber":81,"Velocity":51,"Duration":87719,"SoundDuration":87719,"Delta":129950530},{"NoteNumber":82,"Velocity":56,"Duration":86705,"SoundDuration":86705,"Delta":130038249},{"NoteNumber":61,"Velocity":29,"Duration":86705,"SoundDuration":86705,"Delta":130038249},{"NoteNumber":66,"Velocity":35,"Duration":86705,"SoundDuration":86705,"Delta":130038249},{"NoteNumber":58,"Velocity":29,"Duration":86705,"SoundDuration":86705,"Delta":130038249},{"NoteNumber":58,"Velocity":29,"Duration":86705,"SoundDuration":86705,"Delta":130211660},{"NoteNumber":61,"Velocity":29,"Duration":86705,"SoundDuration":86705,"Delta":130211660},{"NoteNumber":66,"Velocity":35,"Duration":86705,"SoundDuration":86705,"Delta":130211660},{"NoteNumber":80,"Velocity":51,"Duration":43352,"SoundDuration":43352,"Delta":130341718},{"NoteNumber":78,"Velocity":57,"Duration":90909,"SoundDuration":90909,"Delta":130385070},{"NoteNumber":61,"Velocity":29,"Duration":90909,"SoundDuration":90909,"Delta":130385070},{"NoteNumber":58,"Velocity":29,"Duration":90909,"SoundDuration":90909,"Delta":130385070},{"NoteNumber":66,"Velocity":35,"Duration":90909,"SoundDuration":90909,"Delta":130385070},{"NoteNumber":77,"Velocity":50,"Duration":90908,"SoundDuration":90908,"Delta":130475979},{"NoteNumber":78,"Velocity":60,"Duration":87463,"SoundDuration":87463,"Delta":130566888},{"NoteNumber":58,"Velocity":34,"Duration":87463,"SoundDuration":87463,"Delta":130566888},{"NoteNumber":66,"Velocity":40,"Duration":87463,"SoundDuration":87463,"Delta":130566888},{"NoteNumber":61,"Velocity":34,"Duration":87463,"SoundDuration":87463,"Delta":130566888},{"NoteNumber":58,"Velocity":29,"Duration":87463,"SoundDuration":87463,"Delta":130741815},{"NoteNumber":61,"Velocity":29,"Duration":87463,"SoundDuration":87463,"Delta":130741815},{"NoteNumber":66,"Velocity":35,"Duration":87463,"SoundDuration":87463,"Delta":130741815},{"NoteNumber":75,"Velocity":51,"Duration":43731,"SoundDuration":43731,"Delta":130873010},{"NoteNumber":73,"Velocity":56,"Duration":87463,"SoundDuration":87463,"Delta":130916742},{"NoteNumber":61,"Velocity":29,"Duration":87463,"SoundDuration":87463,"Delta":130916742},{"NoteNumber":66,"Velocity":35,"Duration":87463,"SoundDuration":87463,"Delta":130916742},{"NoteNumber":58,"Velocity":29,"Duration":87463,"SoundDuration":87463,"Delta":130916742},{"NoteNumber":72,"Velocity":51,"Duration":87463,"SoundDuration":87463,"Delta":131004206},{"NoteNumber":73,"Velocity":56,"Duration":344828,"SoundDuration":344828,"Delta":131091669},{"NoteNumber":58,"Velocity":29,"Duration":86207,"SoundDuration":86207,"Delta":131091669},{"NoteNumber":61,"Velocity":29,"Duration":86207,"SoundDuration":86207,"Delta":131091669},{"NoteNumber":66,"Velocity":35,"Duration":86207,"SoundDuration":86207,"Delta":131091669},{"NoteNumber":61,"Velocity":29,"Duration":86207,"SoundDuration":86207,"Delta":131264083},{"NoteNumber":58,"Velocity":29,"Duration":86207,"SoundDuration":86207,"Delta":131264083},{"NoteNumber":66,"Velocity":35,"Duration":86207,"SoundDuration":86207,"Delta":131264083},{"NoteNumber":58,"Velocity":29,"Duration":86207,"SoundDuration":86207,"Delta":131436497},{"NoteNumber":64,"Velocity":35,"Duration":86207,"SoundDuration":86207,"Delta":131436497},{"NoteNumber":61,"Velocity":29,"Duration":86207,"SoundDuration":86207,"Delta":131436497},{"NoteNumber":72,"Velocity":55,"Duration":93750,"SoundDuration":93750,"Delta":131608911},{"NoteNumber":57,"Velocity":34,"Duration":93750,"SoundDuration":93750,"Delta":131608911},{"NoteNumber":60,"Velocity":34,"Duration":93750,"SoundDuration":93750,"Delta":131608911},{"NoteNumber":65,"Velocity":40,"Duration":93750,"SoundDuration":93750,"Delta":131608911},{"NoteNumber":60,"Velocity":29,"Duration":88235,"SoundDuration":88235,"Delta":131796411},{"NoteNumber":65,"Velocity":35,"Duration":88235,"SoundDuration":88235,"Delta":131796411},{"NoteNumber":57,"Velocity":29,"Duration":88235,"SoundDuration":88235,"Delta":131796411},{"NoteNumber":82,"Velocity":51,"Duration":44117,"SoundDuration":44117,"Delta":131928764},{"NoteNumber":81,"Velocity":57,"Duration":88235,"SoundDuration":88235,"Delta":131972882},{"NoteNumber":65,"Velocity":35,"Duration":88235,"SoundDuration":88235,"Delta":131972882},{"NoteNumber":57,"Velocity":29,"Duration":88235,"SoundDuration":88235,"Delta":131972882},{"NoteNumber":60,"Velocity":29,"Duration":88235,"SoundDuration":88235,"Delta":131972882},{"NoteNumber":79,"Velocity":52,"Duration":88235,"SoundDuration":88235,"Delta":132061117},{"NoteNumber":81,"Velocity":57,"Duration":86455,"SoundDuration":86455,"Delta":132149352},{"NoteNumber":57,"Velocity":29,"Duration":86455,"SoundDuration":86455,"Delta":132149352},{"NoteNumber":60,"Velocity":29,"Duration":86455,"SoundDuration":86455,"Delta":132149352},{"NoteNumber":65,"Velocity":36,"Duration":86455,"SoundDuration":86455,"Delta":132149352},{"NoteNumber":60,"Velocity":30,"Duration":86455,"SoundDuration":86455,"Delta":132322263},{"NoteNumber":57,"Velocity":30,"Duration":86455,"SoundDuration":86455,"Delta":132322263},{"NoteNumber":65,"Velocity":36,"Duration":86455,"SoundDuration":86455,"Delta":132322263},{"NoteNumber":86,"Velocity":53,"Duration":43227,"SoundDuration":43227,"Delta":132451946},{"NoteNumber":84,"Velocity":59,"Duration":86455,"SoundDuration":86455,"Delta":132495173},{"NoteNumber":57,"Velocity":30,"Duration":86455,"SoundDuration":86455,"Delta":132495173},{"NoteNumber":65,"Velocity":36,"Duration":86455,"SoundDuration":86455,"Delta":132495173},{"NoteNumber":60,"Velocity":30,"Duration":86455,"SoundDuration":86455,"Delta":132495173},{"NoteNumber":83,"Velocity":52,"Duration":86455,"SoundDuration":86455,"Delta":132581628},{"NoteNumber":84,"Velocity":63,"Duration":93750,"SoundDuration":93750,"Delta":132668084},{"NoteNumber":57,"Velocity":36,"Duration":93750,"SoundDuration":93750,"Delta":132668084},{"NoteNumber":60,"Velocity":36,"Duration":93750,"SoundDuration":93750,"Delta":132668084},{"NoteNumber":65,"Velocity":42,"Duration":93750,"SoundDuration":93750,"Delta":132668084},{"NoteNumber":65,"Velocity":37,"Duration":88495,"SoundDuration":88495,"Delta":132855584},{"NoteNumber":57,"Velocity":31,"Duration":88495,"SoundDuration":88495,"Delta":132855584},{"NoteNumber":60,"Velocity":31,"Duration":88495,"SoundDuration":88495,"Delta":132855584},{"NoteNumber":90,"Velocity":55,"Duration":44247,"SoundDuration":44247,"Delta":132988327},{"NoteNumber":89,"Velocity":60,"Duration":88495,"SoundDuration":88495,"Delta":133032575},{"NoteNumber":57,"Velocity":31,"Duration":88495,"SoundDuration":88495,"Delta":133032575},{"NoteNumber":60,"Velocity":31,"Duration":88495,"SoundDuration":88495,"Delta":133032575},{"NoteNumber":65,"Velocity":37,"Duration":88495,"SoundDuration":88495,"Delta":133032575},{"NoteNumber":88,"Velocity":55,"Duration":88495,"SoundDuration":88495,"Delta":133121070},{"NoteNumber":89,"Velocity":61,"Duration":88495,"SoundDuration":88495,"Delta":133209566},{"NoteNumber":60,"Velocity":31,"Duration":88495,"SoundDuration":88495,"Delta":133209566},{"NoteNumber":57,"Velocity":31,"Duration":88495,"SoundDuration":88495,"Delta":133209566},{"NoteNumber":65,"Velocity":38,"Duration":88495,"SoundDuration":88495,"Delta":133209566},{"NoteNumber":57,"Velocity":29,"Duration":86705,"SoundDuration":86705,"Delta":133386557},{"NoteNumber":65,"Velocity":35,"Duration":86705,"SoundDuration":86705,"Delta":133386557},{"NoteNumber":60,"Velocity":29,"Duration":86705,"SoundDuration":86705,"Delta":133386557},{"NoteNumber":85,"Velocity":51,"Duration":43352,"SoundDuration":43352,"Delta":133516615},{"NoteNumber":84,"Velocity":57,"Duration":86705,"SoundDuration":86705,"Delta":133559967},{"NoteNumber":57,"Velocity":29,"Duration":86705,"SoundDuration":86705,"Delta":133559967},{"NoteNumber":60,"Velocity":29,"Duration":86705,"SoundDuration":86705,"Delta":133559967},{"NoteNumber":65,"Velocity":35,"Duration":86705,"SoundDuration":86705,"Delta":133559967},{"NoteNumber":83,"Velocity":50,"Duration":86705,"SoundDuration":86705,"Delta":133646672},{"NoteNumber":84,"Velocity":60,"Duration":93750,"SoundDuration":93750,"Delta":133733378},{"NoteNumber":65,"Velocity":40,"Duration":93750,"SoundDuration":93750,"Delta":133733378},{"NoteNumber":57,"Velocity":34,"Duration":93750,"SoundDuration":93750,"Delta":133733378},{"NoteNumber":60,"Velocity":34,"Duration":93750,"SoundDuration":93750,"Delta":133733378},{"NoteNumber":57,"Velocity":29,"Duration":87976,"SoundDuration":87976,"Delta":133920878},{"NoteNumber":60,"Velocity":29,"Duration":87976,"SoundDuration":87976,"Delta":133920878},{"NoteNumber":65,"Velocity":35,"Duration":87976,"SoundDuration":87976,"Delta":133920878},{"NoteNumber":82,"Velocity":51,"Duration":43988,"SoundDuration":43988,"Delta":134052842},{"NoteNumber":81,"Velocity":56,"Duration":87976,"SoundDuration":87976,"Delta":134096831},{"NoteNumber":60,"Velocity":29,"Duration":87976,"SoundDuration":87976,"Delta":134096831},{"NoteNumber":57,"Velocity":29,"Duration":87976,"SoundDuration":87976,"Delta":134096831},{"NoteNumber":65,"Velocity":35,"Duration":87976,"SoundDuration":87976,"Delta":134096831},{"NoteNumber":79,"Velocity":51,"Duration":87976,"SoundDuration":87976,"Delta":134184807},{"NoteNumber":81,"Velocity":56,"Duration":87976,"SoundDuration":87976,"Delta":134272784},{"NoteNumber":57,"Velocity":29,"Duration":87976,"SoundDuration":87976,"Delta":134272784},{"NoteNumber":65,"Velocity":35,"Duration":87976,"SoundDuration":87976,"Delta":134272784},{"NoteNumber":60,"Velocity":29,"Duration":87976,"SoundDuration":87976,"Delta":134272784},{"NoteNumber":57,"Velocity":29,"Duration":87719,"SoundDuration":87719,"Delta":134448737},{"NoteNumber":60,"Velocity":29,"Duration":87719,"SoundDuration":87719,"Delta":134448737},{"NoteNumber":65,"Velocity":35,"Duration":87719,"SoundDuration":87719,"Delta":134448737},{"NoteNumber":78,"Velocity":51,"Duration":43859,"SoundDuration":43859,"Delta":134580316},{"NoteNumber":77,"Velocity":57,"Duration":87719,"SoundDuration":87719,"Delta":134624175},{"NoteNumber":65,"Velocity":35,"Duration":87719,"SoundDuration":87719,"Delta":134624175},{"NoteNumber":57,"Velocity":29,"Duration":87719,"SoundDuration":87719,"Delta":134624175},{"NoteNumber":60,"Velocity":29,"Duration":87719,"SoundDuration":87719,"Delta":134624175},{"NoteNumber":76,"Velocity":50,"Duration":87719,"SoundDuration":87719,"Delta":134711894},{"NoteNumber":77,"Velocity":60,"Duration":93750,"SoundDuration":93750,"Delta":134799614},{"NoteNumber":60,"Velocity":34,"Duration":93750,"SoundDuration":93750,"Delta":134799614},{"NoteNumber":57,"Velocity":34,"Duration":93750,"SoundDuration":93750,"Delta":134799614},{"NoteNumber":65,"Velocity":40,"Duration":93750,"SoundDuration":93750,"Delta":134799614},{"NoteNumber":60,"Velocity":29,"Duration":88235,"SoundDuration":88235,"Delta":134987114},{"NoteNumber":57,"Velocity":29,"Duration":88235,"SoundDuration":88235,"Delta":134987114},{"NoteNumber":65,"Velocity":35,"Duration":88235,"SoundDuration":88235,"Delta":134987114},{"NoteNumber":73,"Velocity":51,"Duration":44117,"SoundDuration":44117,"Delta":135119467},{"NoteNumber":72,"Velocity":56,"Duration":88235,"SoundDuration":88235,"Delta":135163584},{"NoteNumber":57,"Velocity":29,"Duration":88235,"SoundDuration":88235,"Delta":135163584},{"NoteNumber":60,"Velocity":29,"Duration":88235,"SoundDuration":88235,"Delta":135163584},{"NoteNumber":65,"Velocity":35,"Duration":88235,"SoundDuration":88235,"Delta":135163584},{"NoteNumber":71,"Velocity":51,"Duration":88235,"SoundDuration":88235,"Delta":135251819},{"NoteNumber":72,"Velocity":56,"Duration":176470,"SoundDuration":176470,"Delta":135340055},{"NoteNumber":57,"Velocity":29,"Duration":176470,"SoundDuration":176470,"Delta":135340055},{"NoteNumber":60,"Velocity":29,"Duration":176470,"SoundDuration":176470,"Delta":135340055},{"NoteNumber":65,"Velocity":35,"Duration":176470,"SoundDuration":176470,"Delta":135340055},{"NoteNumber":53,"Velocity":35,"Duration":176470,"SoundDuration":176470,"Delta":135516525},{"NoteNumber":73,"Velocity":61,"Duration":186915,"SoundDuration":186915,"Delta":135692996},{"NoteNumber":51,"Velocity":35,"Duration":186915,"SoundDuration":186915,"Delta":135692996},{"NoteNumber":74,"Velocity":56,"Duration":549366,"SoundDuration":549366,"Delta":135879912},{"NoteNumber":65,"Velocity":35,"Duration":92024,"SoundDuration":92024,"Delta":135879912},{"NoteNumber":46,"Velocity":40,"Duration":1093174,"SoundDuration":1093174,"Delta":135879912},{"NoteNumber":50,"Velocity":40,"Duration":368098,"SoundDuration":368098,"Delta":135879912},{"NoteNumber":67,"Velocity":31,"Duration":92024,"SoundDuration":92024,"Delta":135971936},{"NoteNumber":65,"Velocity":35,"Duration":92024,"SoundDuration":92024,"Delta":136063961},{"NoteNumber":67,"Velocity":31,"Duration":92024,"SoundDuration":92024,"Delta":136155985},{"NoteNumber":65,"Velocity":34,"Duration":90634,"SoundDuration":90634,"Delta":136248010},{"NoteNumber":55,"Velocity":33,"Duration":181268,"SoundDuration":181268,"Delta":136248010},{"NoteNumber":67,"Velocity":31,"Duration":90634,"SoundDuration":90634,"Delta":136338644},{"NoteNumber":65,"Velocity":36,"Duration":90634,"SoundDuration":90634,"Delta":136429279},{"NoteNumber":70,"Velocity":55,"Duration":543807,"SoundDuration":543807,"Delta":136429279},{"NoteNumber":53,"Velocity":42,"Duration":362538,"SoundDuration":362538,"Delta":136429279},{"NoteNumber":67,"Velocity":32,"Duration":90634,"SoundDuration":90634,"Delta":136519913},{"NoteNumber":65,"Velocity":36,"Duration":90634,"SoundDuration":90634,"Delta":136610548},{"NoteNumber":67,"Velocity":31,"Duration":90634,"SoundDuration":90634,"Delta":136701182},{"NoteNumber":65,"Velocity":37,"Duration":90634,"SoundDuration":90634,"Delta":136791817},{"NoteNumber":50,"Velocity":39,"Duration":181269,"SoundDuration":181269,"Delta":136791817},{"NoteNumber":67,"Velocity":31,"Duration":90634,"SoundDuration":90634,"Delta":136882451},{"NoteNumber":65,"Velocity":37,"Duration":89552,"SoundDuration":89552,"Delta":136973086},{"NoteNumber":69,"Velocity":59,"Duration":537313,"SoundDuration":537313,"Delta":136973086},{"NoteNumber":41,"Velocity":42,"Duration":1082851,"SoundDuration":1082851,"Delta":136973086},{"NoteNumber":48,"Velocity":42,"Duration":358208,"SoundDuration":358208,"Delta":136973086},{"NoteNumber":67,"Velocity":33,"Duration":89552,"SoundDuration":89552,"Delta":137062638},{"NoteNumber":65,"Velocity":37,"Duration":89552,"SoundDuration":89552,"Delta":137152190},{"NoteNumber":67,"Velocity":33,"Duration":89552,"SoundDuration":89552,"Delta":137241742},{"NoteNumber":65,"Velocity":37,"Duration":89552,"SoundDuration":89552,"Delta":137331295},{"NoteNumber":55,"Velocity":36,"Duration":179104,"SoundDuration":179104,"Delta":137331295},{"NoteNumber":67,"Velocity":34,"Duration":89552,"SoundDuration":89552,"Delta":137420847},{"NoteNumber":65,"Velocity":38,"Duration":89552,"SoundDuration":89552,"Delta":137510399},{"NoteNumber":75,"Velocity":59,"Duration":545537,"SoundDuration":545537,"Delta":137510399},{"NoteNumber":53,"Velocity":45,"Duration":360922,"SoundDuration":360922,"Delta":137510399},{"NoteNumber":67,"Velocity":34,"Duration":89552,"SoundDuration":89552,"Delta":137599951},{"NoteNumber":65,"Velocity":39,"Duration":90909,"SoundDuration":90909,"Delta":137689504},{"NoteNumber":67,"Velocity":33,"Duration":90908,"SoundDuration":90908,"Delta":137780413},{"NoteNumber":65,"Velocity":39,"Duration":92307,"SoundDuration":92307,"Delta":137871322},{"NoteNumber":48,"Velocity":41,"Duration":184615,"SoundDuration":184615,"Delta":137871322},{"NoteNumber":67,"Velocity":34,"Duration":92307,"SoundDuration":92307,"Delta":137963629},{"NoteNumber":65,"Velocity":40,"Duration":91185,"SoundDuration":91185,"Delta":138055937},{"NoteNumber":74,"Velocity":64,"Duration":544382,"SoundDuration":544382,"Delta":138055937},{"NoteNumber":46,"Velocity":46,"Duration":1083303,"SoundDuration":1083303,"Delta":138055937},{"NoteNumber":50,"Velocity":46,"Duration":364742,"SoundDuration":364742,"Delta":138055937},{"NoteNumber":67,"Velocity":35,"Duration":91185,"SoundDuration":91185,"Delta":138147123},{"NoteNumber":65,"Velocity":39,"Duration":91185,"SoundDuration":91185,"Delta":138238308},{"NoteNumber":67,"Velocity":35,"Duration":91185,"SoundDuration":91185,"Delta":138329494},{"NoteNumber":65,"Velocity":38,"Duration":89820,"SoundDuration":89820,"Delta":138420679},{"NoteNumber":55,"Velocity":37,"Duration":179640,"SoundDuration":179640,"Delta":138420679},{"NoteNumber":67,"Velocity":34,"Duration":89820,"SoundDuration":89820,"Delta":138510499},{"NoteNumber":65,"Velocity":39,"Duration":89820,"SoundDuration":89820,"Delta":138600320},{"NoteNumber":70,"Velocity":60,"Duration":538921,"SoundDuration":538921,"Delta":138600320},{"NoteNumber":53,"Velocity":45,"Duration":359280,"SoundDuration":359280,"Delta":138600320},{"NoteNumber":67,"Velocity":34,"Duration":89820,"SoundDuration":89820,"Delta":138690140},{"NoteNumber":65,"Velocity":38,"Duration":89820,"SoundDuration":89820,"Delta":138779960},{"NoteNumber":67,"Velocity":33,"Duration":89820,"SoundDuration":89820,"Delta":138869780},{"NoteNumber":65,"Velocity":38,"Duration":89820,"SoundDuration":89820,"Delta":138959601},{"NoteNumber":50,"Velocity":40,"Duration":179640,"SoundDuration":179640,"Delta":138959601},{"NoteNumber":67,"Velocity":32,"Duration":89820,"SoundDuration":89820,"Delta":139049421},{"NoteNumber":65,"Velocity":37,"Duration":89820,"SoundDuration":89820,"Delta":139139241},{"NoteNumber":69,"Velocity":60,"Duration":538921,"SoundDuration":538921,"Delta":139139241},{"NoteNumber":41,"Velocity":43,"Duration":1082198,"SoundDuration":1082198,"Delta":139139241},{"NoteNumber":48,"Velocity":43,"Duration":359281,"SoundDuration":359281,"Delta":139139241},{"NoteNumber":67,"Velocity":33,"Duration":89820,"SoundDuration":89820,"Delta":139229061},{"NoteNumber":65,"Velocity":37,"Duration":89820,"SoundDuration":89820,"Delta":139318882},{"NoteNumber":67,"Velocity":32,"Duration":89820,"SoundDuration":89820,"Delta":139408702},{"NoteNumber":65,"Velocity":35,"Duration":89820,"SoundDuration":89820,"Delta":139498522},{"NoteNumber":55,"Velocity":34,"Duration":179640,"SoundDuration":179640,"Delta":139498522},{"NoteNumber":67,"Velocity":32,"Duration":89820,"SoundDuration":89820,"Delta":139588342},{"NoteNumber":65,"Velocity":36,"Duration":89820,"SoundDuration":89820,"Delta":139678163},{"NoteNumber":75,"Velocity":56,"Duration":543276,"SoundDuration":543276,"Delta":139678163},{"NoteNumber":53,"Velocity":42,"Duration":361458,"SoundDuration":361458,"Delta":139678163},{"NoteNumber":67,"Velocity":32,"Duration":89820,"SoundDuration":89820,"Delta":139767983},{"NoteNumber":65,"Velocity":36,"Duration":90909,"SoundDuration":90909,"Delta":139857803},{"NoteNumber":67,"Velocity":30,"Duration":90908,"SoundDuration":90908,"Delta":139948712},{"NoteNumber":65,"Velocity":35,"Duration":90909,"SoundDuration":90909,"Delta":140039621},{"NoteNumber":48,"Velocity":37,"Duration":181818,"SoundDuration":181818,"Delta":140039621},{"NoteNumber":67,"Velocity":30,"Duration":90909,"SoundDuration":90909,"Delta":140130530},{"NoteNumber":74,"Velocity":51,"Duration":93750,"SoundDuration":93750,"Delta":140221439},{"NoteNumber":50,"Velocity":40,"Duration":93750,"SoundDuration":93750,"Delta":140221439},{"NoteNumber":46,"Velocity":34,"Duration":93750,"SoundDuration":93750,"Delta":140221439},{"NoteNumber":77,"Velocity":45,"Duration":93750,"SoundDuration":93750,"Delta":140315189},{"NoteNumber":79,"Velocity":48,"Duration":60240,"SoundDuration":60240,"Delta":140408939},{"NoteNumber":50,"Velocity":29,"Duration":90307,"SoundDuration":90307,"Delta":140408939},{"NoteNumber":53,"Velocity":29,"Duration":90307,"SoundDuration":90307,"Delta":140408939},{"NoteNumber":58,"Velocity":35,"Duration":90307,"SoundDuration":90307,"Delta":140408939},{"NoteNumber":81,"Velocity":50,"Duration":60096,"SoundDuration":60096,"Delta":140469180},{"NoteNumber":82,"Velocity":52,"Duration":59909,"SoundDuration":59909,"Delta":140529276},{"NoteNumber":84,"Velocity":54,"Duration":59766,"SoundDuration":59766,"Delta":140589186},{"NoteNumber":50,"Velocity":29,"Duration":89585,"SoundDuration":89585,"Delta":140589186},{"NoteNumber":53,"Velocity":29,"Duration":89585,"SoundDuration":89585,"Delta":140589186},{"NoteNumber":58,"Velocity":35,"Duration":89585,"SoundDuration":89585,"Delta":140589186},{"NoteNumber":86,"Velocity":56,"Duration":59581,"SoundDuration":59581,"Delta":140648952},{"NoteNumber":87,"Velocity":59,"Duration":59395,"SoundDuration":59395,"Delta":140708534},{"NoteNumber":89,"Velocity":61,"Duration":88829,"SoundDuration":88829,"Delta":140767929},{"NoteNumber":50,"Velocity":29,"Duration":88829,"SoundDuration":88829,"Delta":140767929},{"NoteNumber":53,"Velocity":29,"Duration":88829,"SoundDuration":88829,"Delta":140767929},{"NoteNumber":58,"Velocity":35,"Duration":88829,"SoundDuration":88829,"Delta":140767929},{"NoteNumber":87,"Velocity":60,"Duration":88391,"SoundDuration":88391,"Delta":140856759},{"NoteNumber":86,"Velocity":58,"Duration":88391,"SoundDuration":88391,"Delta":140945151},{"NoteNumber":50,"Velocity":29,"Duration":88391,"SoundDuration":88391,"Delta":140945151},{"NoteNumber":53,"Velocity":29,"Duration":88391,"SoundDuration":88391,"Delta":140945151},{"NoteNumber":58,"Velocity":35,"Duration":88391,"SoundDuration":88391,"Delta":140945151},{"NoteNumber":84,"Velocity":57,"Duration":88705,"SoundDuration":88705,"Delta":141033542},{"NoteNumber":82,"Velocity":55,"Duration":89073,"SoundDuration":89073,"Delta":141122247},{"NoteNumber":50,"Velocity":29,"Duration":89073,"SoundDuration":89073,"Delta":141122247},{"NoteNumber":53,"Velocity":29,"Duration":89073,"SoundDuration":89073,"Delta":141122247},{"NoteNumber":58,"Velocity":35,"Duration":89073,"SoundDuration":89073,"Delta":141122247},{"NoteNumber":81,"Velocity":54,"Duration":89392,"SoundDuration":89392,"Delta":141211321},{"NoteNumber":79,"Velocity":51,"Duration":93750,"SoundDuration":93750,"Delta":141300713},{"NoteNumber":81,"Velocity":45,"Duration":93170,"SoundDuration":93170,"Delta":141394463},{"NoteNumber":82,"Velocity":48,"Duration":90036,"SoundDuration":90036,"Delta":141487634},{"NoteNumber":51,"Velocity":29,"Duration":90036,"SoundDuration":90036,"Delta":141487634},{"NoteNumber":55,"Velocity":29,"Duration":90036,"SoundDuration":90036,"Delta":141487634},{"NoteNumber":58,"Velocity":35,"Duration":90036,"SoundDuration":90036,"Delta":141487634},{"NoteNumber":84,"Velocity":50,"Duration":89755,"SoundDuration":89755,"Delta":141577670},{"NoteNumber":86,"Velocity":54,"Duration":59701,"SoundDuration":59701,"Delta":141667425},{"NoteNumber":51,"Velocity":29,"Duration":89476,"SoundDuration":89476,"Delta":141667425},{"NoteNumber":55,"Velocity":29,"Duration":89476,"SoundDuration":89476,"Delta":141667425},{"NoteNumber":58,"Velocity":35,"Duration":89476,"SoundDuration":89476,"Delta":141667425},{"NoteNumber":87,"Velocity":56,"Duration":59537,"SoundDuration":59537,"Delta":141727127},{"NoteNumber":89,"Velocity":59,"Duration":59439,"SoundDuration":59439,"Delta":141786664},{"NoteNumber":91,"Velocity":61,"Duration":88884,"SoundDuration":88884,"Delta":141846104},{"NoteNumber":51,"Velocity":29,"Duration":88884,"SoundDuration":88884,"Delta":141846104},{"NoteNumber":55,"Velocity":29,"Duration":88884,"SoundDuration":88884,"Delta":141846104},{"NoteNumber":58,"Velocity":35,"Duration":88884,"SoundDuration":88884,"Delta":141846104},{"NoteNumber":89,"Velocity":60,"Duration":88757,"SoundDuration":88757,"Delta":141934989},{"NoteNumber":87,"Velocity":58,"Duration":59283,"SoundDuration":59283,"Delta":142023746},{"NoteNumber":51,"Velocity":29,"Duration":88957,"SoundDuration":88957,"Delta":142023746},{"NoteNumber":55,"Velocity":29,"Duration":88957,"SoundDuration":88957,"Delta":142023746},{"NoteNumber":58,"Velocity":35,"Duration":88957,"SoundDuration":88957,"Delta":142023746},{"NoteNumber":86,"Velocity":57,"Duration":59347,"SoundDuration":59347,"Delta":142083030},{"NoteNumber":84,"Velocity":56,"Duration":59389,"SoundDuration":59389,"Delta":142142377},{"NoteNumber":82,"Velocity":55,"Duration":59523,"SoundDuration":59523,"Delta":142201766},{"NoteNumber":51,"Velocity":29,"Duration":89285,"SoundDuration":89285,"Delta":142201766},{"NoteNumber":55,"Velocity":29,"Duration":89285,"SoundDuration":89285,"Delta":142201766},{"NoteNumber":60,"Velocity":35,"Duration":89285,"SoundDuration":89285,"Delta":142201766},{"NoteNumber":81,"Velocity":54,"Duration":59523,"SoundDuration":59523,"Delta":142261290},{"NoteNumber":79,"Velocity":53,"Duration":59672,"SoundDuration":59672,"Delta":142320814},{"NoteNumber":77,"Velocity":57,"Duration":93750,"SoundDuration":93750,"Delta":142380486},{"NoteNumber":86,"Velocity":49,"Duration":93750,"SoundDuration":93750,"Delta":142474236},{"NoteNumber":82,"Velocity":59,"Duration":90350,"SoundDuration":90350,"Delta":142567986},{"NoteNumber":53,"Velocity":29,"Duration":90350,"SoundDuration":90350,"Delta":142567986},{"NoteNumber":58,"Velocity":29,"Duration":90350,"SoundDuration":90350,"Delta":142567986},{"NoteNumber":62,"Velocity":35,"Duration":90350,"SoundDuration":90350,"Delta":142567986},{"NoteNumber":89,"Velocity":55,"Duration":90067,"SoundDuration":90067,"Delta":142658336},{"NoteNumber":86,"Velocity":62,"Duration":89744,"SoundDuration":89744,"Delta":142748404},{"NoteNumber":53,"Velocity":29,"Duration":89744,"SoundDuration":89744,"Delta":142748404},{"NoteNumber":58,"Velocity":29,"Duration":89744,"SoundDuration":89744,"Delta":142748404},{"NoteNumber":62,"Velocity":35,"Duration":89744,"SoundDuration":89744,"Delta":142748404},{"NoteNumber":94,"Velocity":57,"Duration":89467,"SoundDuration":89467,"Delta":142838148},{"NoteNumber":89,"Velocity":62,"Duration":59517,"SoundDuration":59517,"Delta":142927616},{"NoteNumber":53,"Velocity":29,"Duration":89190,"SoundDuration":89190,"Delta":142927616},{"NoteNumber":58,"Velocity":29,"Duration":89190,"SoundDuration":89190,"Delta":142927616},{"NoteNumber":62,"Velocity":35,"Duration":89190,"SoundDuration":89190,"Delta":142927616},{"NoteNumber":98,"Velocity":57,"Duration":59334,"SoundDuration":59334,"Delta":142987133},{"NoteNumber":94,"Velocity":55,"Duration":59193,"SoundDuration":59193,"Delta":143046467},{"NoteNumber":101,"Velocity":61,"Duration":59375,"SoundDuration":59375,"Delta":143105661},{"NoteNumber":53,"Velocity":29,"Duration":89137,"SoundDuration":89137,"Delta":143105661},{"NoteNumber":58,"Velocity":29,"Duration":89137,"SoundDuration":89137,"Delta":143105661},{"NoteNumber":62,"Velocity":35,"Duration":89137,"SoundDuration":89137,"Delta":143105661},{"NoteNumber":98,"Velocity":53,"Duration":59559,"SoundDuration":59559,"Delta":143165037},{"NoteNumber":94,"Velocity":54,"Duration":59743,"SoundDuration":59743,"Delta":143224596},{"NoteNumber":89,"Velocity":59,"Duration":59929,"SoundDuration":59929,"Delta":143284340},{"NoteNumber":53,"Velocity":29,"Duration":89959,"SoundDuration":89959,"Delta":143284340},{"NoteNumber":58,"Velocity":29,"Duration":89959,"SoundDuration":89959,"Delta":143284340},{"NoteNumber":62,"Velocity":35,"Duration":89959,"SoundDuration":89959,"Delta":143284340},{"NoteNumber":86,"Velocity":53,"Duration":60118,"SoundDuration":60118,"Delta":143344270},{"NoteNumber":82,"Velocity":53,"Duration":60306,"SoundDuration":60306,"Delta":143404389},{"NoteNumber":77,"Velocity":59,"Duration":361768,"SoundDuration":361768,"Delta":143464696},{"NoteNumber":62,"Velocity":35,"Duration":90634,"SoundDuration":90634,"Delta":143464696},{"NoteNumber":53,"Velocity":29,"Duration":90634,"SoundDuration":90634,"Delta":143464696},{"NoteNumber":58,"Velocity":29,"Duration":90634,"SoundDuration":90634,"Delta":143464696},{"NoteNumber":53,"Velocity":29,"Duration":90391,"SoundDuration":90391,"Delta":143645965},{"NoteNumber":58,"Velocity":29,"Duration":90391,"SoundDuration":90391,"Delta":143645965},{"NoteNumber":62,"Velocity":35,"Duration":90391,"SoundDuration":90391,"Delta":143645965},{"NoteNumber":62,"Velocity":35,"Duration":89780,"SoundDuration":89780,"Delta":143826464},{"NoteNumber":58,"Velocity":29,"Duration":89780,"SoundDuration":89780,"Delta":143826464},{"NoteNumber":53,"Velocity":29,"Duration":89780,"SoundDuration":89780,"Delta":143826464},{"NoteNumber":84,"Velocity":59,"Duration":61642,"SoundDuration":61642,"Delta":144006399},{"NoteNumber":53,"Velocity":29,"Duration":91897,"SoundDuration":91897,"Delta":144006399},{"NoteNumber":57,"Velocity":29,"Duration":91897,"SoundDuration":91897,"Delta":144006399},{"NoteNumber":63,"Velocity":35,"Duration":91897,"SoundDuration":91897,"Delta":144006399},{"NoteNumber":86,"Velocity":52,"Duration":60130,"SoundDuration":60130,"Delta":144068042},{"NoteNumber":84,"Velocity":59,"Duration":58988,"SoundDuration":58988,"Delta":144128172},{"NoteNumber":86,"Velocity":54,"Duration":59365,"SoundDuration":59365,"Delta":144187161},{"NoteNumber":53,"Velocity":29,"Duration":89158,"SoundDuration":89158,"Delta":144187161},{"NoteNumber":57,"Velocity":29,"Duration":89158,"SoundDuration":89158,"Delta":144187161},{"NoteNumber":63,"Velocity":35,"Duration":89158,"SoundDuration":89158,"Delta":144187161},{"NoteNumber":84,"Velocity":59,"Duration":59679,"SoundDuration":59679,"Delta":144246526},{"NoteNumber":86,"Velocity":53,"Duration":59965,"SoundDuration":59965,"Delta":144306205},{"NoteNumber":84,"Velocity":59,"Duration":60343,"SoundDuration":60343,"Delta":144366171},{"NoteNumber":53,"Velocity":29,"Duration":90646,"SoundDuration":90646,"Delta":144366171},{"NoteNumber":57,"Velocity":29,"Duration":90646,"SoundDuration":90646,"Delta":144366171},{"NoteNumber":63,"Velocity":35,"Duration":90646,"SoundDuration":90646,"Delta":144366171},{"NoteNumber":86,"Velocity":53,"Duration":60605,"SoundDuration":60605,"Delta":144426514},{"NoteNumber":84,"Velocity":56,"Duration":60606,"SoundDuration":60606,"Delta":144487120},{"NoteNumber":86,"Velocity":61,"Duration":549366,"SoundDuration":549366,"Delta":144547726},{"NoteNumber":77,"Velocity":41,"Duration":92024,"SoundDuration":92024,"Delta":144547726},{"NoteNumber":58,"Velocity":40,"Duration":1093174,"SoundDuration":1093174,"Delta":144547726},{"NoteNumber":62,"Velocity":40,"Duration":368098,"SoundDuration":368098,"Delta":144547726},{"NoteNumber":79,"Velocity":31,"Duration":92024,"SoundDuration":92024,"Delta":144639751},{"NoteNumber":77,"Velocity":35,"Duration":92024,"SoundDuration":92024,"Delta":144731775},{"NoteNumber":79,"Velocity":31,"Duration":92024,"SoundDuration":92024,"Delta":144823800},{"NoteNumber":77,"Velocity":34,"Duration":90634,"SoundDuration":90634,"Delta":144915824},{"NoteNumber":67,"Velocity":33,"Duration":181268,"SoundDuration":181268,"Delta":144915824},{"NoteNumber":79,"Velocity":31,"Duration":90634,"SoundDuration":90634,"Delta":145006459},{"NoteNumber":77,"Velocity":36,"Duration":90634,"SoundDuration":90634,"Delta":145097093},{"NoteNumber":82,"Velocity":55,"Duration":543807,"SoundDuration":543807,"Delta":145097093},{"NoteNumber":65,"Velocity":42,"Duration":362538,"SoundDuration":362538,"Delta":145097093},{"NoteNumber":79,"Velocity":32,"Duration":90634,"SoundDuration":90634,"Delta":145187728},{"NoteNumber":77,"Velocity":36,"Duration":90634,"SoundDuration":90634,"Delta":145278362},{"NoteNumber":79,"Velocity":31,"Duration":90634,"SoundDuration":90634,"Delta":145368997},{"NoteNumber":77,"Velocity":37,"Duration":90634,"SoundDuration":90634,"Delta":145459631},{"NoteNumber":62,"Velocity":39,"Duration":181269,"SoundDuration":181269,"Delta":145459631},{"NoteNumber":79,"Velocity":31,"Duration":90634,"SoundDuration":90634,"Delta":145550266},{"NoteNumber":77,"Velocity":37,"Duration":89552,"SoundDuration":89552,"Delta":145640900},{"NoteNumber":81,"Velocity":59,"Duration":535997,"SoundDuration":535997,"Delta":145640900},{"NoteNumber":53,"Velocity":42,"Duration":1080219,"SoundDuration":1080219,"Delta":145640900},{"NoteNumber":60,"Velocity":42,"Duration":358208,"SoundDuration":358208,"Delta":145640900},{"NoteNumber":79,"Velocity":33,"Duration":89552,"SoundDuration":89552,"Delta":145730453},{"NoteNumber":77,"Velocity":37,"Duration":89552,"SoundDuration":89552,"Delta":145820005},{"NoteNumber":79,"Velocity":33,"Duration":89552,"SoundDuration":89552,"Delta":145909557},{"NoteNumber":77,"Velocity":37,"Duration":88894,"SoundDuration":88894,"Delta":145999109},{"NoteNumber":67,"Velocity":36,"Duration":177788,"SoundDuration":177788,"Delta":145999109},{"NoteNumber":79,"Velocity":34,"Duration":88894,"SoundDuration":88894,"Delta":146088004},{"NoteNumber":77,"Velocity":38,"Duration":88894,"SoundDuration":88894,"Delta":146176898},{"NoteNumber":87,"Velocity":59,"Duration":544222,"SoundDuration":544222,"Delta":146176898},{"NoteNumber":65,"Velocity":45,"Duration":359606,"SoundDuration":359606,"Delta":146176898},{"NoteNumber":79,"Velocity":34,"Duration":88894,"SoundDuration":88894,"Delta":146265792},{"NoteNumber":77,"Velocity":39,"Duration":90909,"SoundDuration":90909,"Delta":146354686},{"NoteNumber":79,"Velocity":33,"Duration":90908,"SoundDuration":90908,"Delta":146445595},{"NoteNumber":77,"Velocity":39,"Duration":92307,"SoundDuration":92307,"Delta":146536504},{"NoteNumber":60,"Velocity":41,"Duration":184615,"SoundDuration":184615,"Delta":146536504},{"NoteNumber":79,"Velocity":34,"Duration":92307,"SoundDuration":92307,"Delta":146628812},{"NoteNumber":77,"Velocity":40,"Duration":91185,"SoundDuration":91185,"Delta":146721120},{"NoteNumber":86,"Velocity":64,"Duration":544382,"SoundDuration":544382,"Delta":146721120},{"NoteNumber":58,"Velocity":46,"Duration":1083303,"SoundDuration":1083303,"Delta":146721120},{"NoteNumber":62,"Velocity":46,"Duration":364742,"SoundDuration":364742,"Delta":146721120},{"NoteNumber":79,"Velocity":35,"Duration":91185,"SoundDuration":91185,"Delta":146812305},{"NoteNumber":77,"Velocity":39,"Duration":91185,"SoundDuration":91185,"Delta":146903491},{"NoteNumber":79,"Velocity":35,"Duration":91185,"SoundDuration":91185,"Delta":146994676},{"NoteNumber":77,"Velocity":38,"Duration":89820,"SoundDuration":89820,"Delta":147085862},{"NoteNumber":67,"Velocity":37,"Duration":179640,"SoundDuration":179640,"Delta":147085862},{"NoteNumber":79,"Velocity":34,"Duration":89820,"SoundDuration":89820,"Delta":147175682},{"NoteNumber":82,"Velocity":60,"Duration":538921,"SoundDuration":538921,"Delta":147265502},{"NoteNumber":77,"Velocity":39,"Duration":89820,"SoundDuration":89820,"Delta":147265502},{"NoteNumber":65,"Velocity":45,"Duration":359280,"SoundDuration":359280,"Delta":147265502},{"NoteNumber":79,"Velocity":34,"Duration":89820,"SoundDuration":89820,"Delta":147355323},{"NoteNumber":77,"Velocity":38,"Duration":89820,"SoundDuration":89820,"Delta":147445143},{"NoteNumber":79,"Velocity":33,"Duration":89820,"SoundDuration":89820,"Delta":147534963},{"NoteNumber":77,"Velocity":38,"Duration":89820,"SoundDuration":89820,"Delta":147624783},{"NoteNumber":62,"Velocity":40,"Duration":179640,"SoundDuration":179640,"Delta":147624783},{"NoteNumber":79,"Velocity":32,"Duration":89820,"SoundDuration":89820,"Delta":147714604},{"NoteNumber":77,"Velocity":37,"Duration":89424,"SoundDuration":89424,"Delta":147804424},{"NoteNumber":81,"Velocity":60,"Duration":537617,"SoundDuration":537617,"Delta":147804424},{"NoteNumber":53,"Velocity":43,"Duration":1081174,"SoundDuration":1081174,"Delta":147804424},{"NoteNumber":60,"Velocity":43,"Duration":357696,"SoundDuration":357696,"Delta":147804424},{"NoteNumber":79,"Velocity":33,"Duration":89423,"SoundDuration":89423,"Delta":147893848},{"NoteNumber":77,"Velocity":37,"Duration":89424,"SoundDuration":89424,"Delta":147983272},{"NoteNumber":79,"Velocity":32,"Duration":89424,"SoundDuration":89424,"Delta":148072696},{"NoteNumber":77,"Velocity":35,"Duration":89960,"SoundDuration":89960,"Delta":148162120},{"NoteNumber":67,"Velocity":34,"Duration":179921,"SoundDuration":179921,"Delta":148162120},{"NoteNumber":79,"Velocity":32,"Duration":89960,"SoundDuration":89960,"Delta":148252080},{"NoteNumber":87,"Velocity":56,"Duration":543556,"SoundDuration":543556,"Delta":148342041},{"NoteNumber":77,"Velocity":36,"Duration":89960,"SoundDuration":89960,"Delta":148342041},{"NoteNumber":65,"Velocity":42,"Duration":361738,"SoundDuration":361738,"Delta":148342041},{"NoteNumber":79,"Velocity":32,"Duration":89960,"SoundDuration":89960,"Delta":148432001},{"NoteNumber":77,"Velocity":36,"Duration":90909,"SoundDuration":90909,"Delta":148521962},{"NoteNumber":79,"Velocity":30,"Duration":90908,"SoundDuration":90908,"Delta":148612871},{"NoteNumber":77,"Velocity":35,"Duration":90909,"SoundDuration":90909,"Delta":148703780},{"NoteNumber":60,"Velocity":37,"Duration":181818,"SoundDuration":181818,"Delta":148703780},{"NoteNumber":79,"Velocity":30,"Duration":90909,"SoundDuration":90909,"Delta":148794689},{"NoteNumber":62,"Velocity":51,"Duration":93750,"SoundDuration":93750,"Delta":148885598},{"NoteNumber":65,"Velocity":51,"Duration":93750,"SoundDuration":93750,"Delta":148885598},{"NoteNumber":67,"Velocity":45,"Duration":93750,"SoundDuration":93750,"Delta":148979348},{"NoteNumber":86,"Velocity":45,"Duration":90307,"SoundDuration":90307,"Delta":149073098},{"NoteNumber":82,"Velocity":45,"Duration":90307,"SoundDuration":90307,"Delta":149073098},{"NoteNumber":69,"Velocity":50,"Duration":90307,"SoundDuration":90307,"Delta":149073098},{"NoteNumber":70,"Velocity":52,"Duration":89939,"SoundDuration":89939,"Delta":149163405},{"NoteNumber":86,"Velocity":45,"Duration":89585,"SoundDuration":89585,"Delta":149253345},{"NoteNumber":82,"Velocity":45,"Duration":89585,"SoundDuration":89585,"Delta":149253345},{"NoteNumber":72,"Velocity":54,"Duration":59766,"SoundDuration":59766,"Delta":149253345},{"NoteNumber":74,"Velocity":56,"Duration":59581,"SoundDuration":59581,"Delta":149313111},{"NoteNumber":75,"Velocity":59,"Duration":59395,"SoundDuration":59395,"Delta":149372692},{"NoteNumber":86,"Velocity":48,"Duration":88829,"SoundDuration":88829,"Delta":149432088},{"NoteNumber":82,"Velocity":48,"Duration":88829,"SoundDuration":88829,"Delta":149432088},{"NoteNumber":77,"Velocity":61,"Duration":88829,"SoundDuration":88829,"Delta":149432088},{"NoteNumber":75,"Velocity":60,"Duration":88391,"SoundDuration":88391,"Delta":149520918},{"NoteNumber":86,"Velocity":42,"Duration":88391,"SoundDuration":88391,"Delta":149609309},{"NoteNumber":82,"Velocity":42,"Duration":88391,"SoundDuration":88391,"Delta":149609309},{"NoteNumber":74,"Velocity":58,"Duration":88391,"SoundDuration":88391,"Delta":149609309},{"NoteNumber":72,"Velocity":57,"Duration":88705,"SoundDuration":88705,"Delta":149697701},{"NoteNumber":86,"Velocity":42,"Duration":89073,"SoundDuration":89073,"Delta":149786406},{"NoteNumber":82,"Velocity":42,"Duration":89073,"SoundDuration":89073,"Delta":149786406},{"NoteNumber":70,"Velocity":55,"Duration":89073,"SoundDuration":89073,"Delta":149786406},{"NoteNumber":69,"Velocity":54,"Duration":89392,"SoundDuration":89392,"Delta":149875480},{"NoteNumber":63,"Velocity":51,"Duration":93750,"SoundDuration":93750,"Delta":149964872},{"NoteNumber":67,"Velocity":51,"Duration":93750,"SoundDuration":93750,"Delta":149964872},{"NoteNumber":69,"Velocity":45,"Duration":93170,"SoundDuration":93170,"Delta":150058622},{"NoteNumber":84,"Velocity":45,"Duration":90036,"SoundDuration":90036,"Delta":150151793},{"NoteNumber":82,"Velocity":45,"Duration":90036,"SoundDuration":90036,"Delta":150151793},{"NoteNumber":70,"Velocity":48,"Duration":90036,"SoundDuration":90036,"Delta":150151793},{"NoteNumber":72,"Velocity":50,"Duration":89755,"SoundDuration":89755,"Delta":150241829},{"NoteNumber":82,"Velocity":45,"Duration":89476,"SoundDuration":89476,"Delta":150331584},{"NoteNumber":84,"Velocity":45,"Duration":89476,"SoundDuration":89476,"Delta":150331584},{"NoteNumber":74,"Velocity":55,"Duration":59701,"SoundDuration":59701,"Delta":150331584},{"NoteNumber":75,"Velocity":57,"Duration":59537,"SoundDuration":59537,"Delta":150391286},{"NoteNumber":77,"Velocity":60,"Duration":59439,"SoundDuration":59439,"Delta":150450823},{"NoteNumber":82,"Velocity":49,"Duration":88884,"SoundDuration":88884,"Delta":150510263},{"NoteNumber":84,"Velocity":49,"Duration":88884,"SoundDuration":88884,"Delta":150510263},{"NoteNumber":79,"Velocity":62,"Duration":88884,"SoundDuration":88884,"Delta":150510263},{"NoteNumber":77,"Velocity":62,"Duration":88757,"SoundDuration":88757,"Delta":150599147},{"NoteNumber":84,"Velocity":44,"Duration":88957,"SoundDuration":88957,"Delta":150687905},{"NoteNumber":82,"Velocity":44,"Duration":88957,"SoundDuration":88957,"Delta":150687905},{"NoteNumber":75,"Velocity":60,"Duration":59283,"SoundDuration":59283,"Delta":150687905},{"NoteNumber":74,"Velocity":59,"Duration":59347,"SoundDuration":59347,"Delta":150747188},{"NoteNumber":72,"Velocity":58,"Duration":59389,"SoundDuration":59389,"Delta":150806536},{"NoteNumber":84,"Velocity":46,"Duration":89285,"SoundDuration":89285,"Delta":150865925},{"NoteNumber":82,"Velocity":46,"Duration":89285,"SoundDuration":89285,"Delta":150865925},{"NoteNumber":70,"Velocity":58,"Duration":59523,"SoundDuration":59523,"Delta":150865925},{"NoteNumber":69,"Velocity":57,"Duration":59523,"SoundDuration":59523,"Delta":150925449},{"NoteNumber":67,"Velocity":56,"Duration":59672,"SoundDuration":59672,"Delta":150984972},{"NoteNumber":65,"Velocity":60,"Duration":93750,"SoundDuration":93750,"Delta":151044645},{"NoteNumber":53,"Velocity":52,"Duration":93750,"SoundDuration":93750,"Delta":151138395},{"NoteNumber":86,"Velocity":48,"Duration":90350,"SoundDuration":90350,"Delta":151232145},{"NoteNumber":82,"Velocity":48,"Duration":90350,"SoundDuration":90350,"Delta":151232145},{"NoteNumber":58,"Velocity":63,"Duration":90350,"SoundDuration":90350,"Delta":151232145},{"NoteNumber":62,"Velocity":59,"Duration":90067,"SoundDuration":90067,"Delta":151322495},{"NoteNumber":86,"Velocity":49,"Duration":89744,"SoundDuration":89744,"Delta":151412563},{"NoteNumber":82,"Velocity":49,"Duration":89744,"SoundDuration":89744,"Delta":151412563},{"NoteNumber":65,"Velocity":68,"Duration":89744,"SoundDuration":89744,"Delta":151412563},{"NoteNumber":70,"Velocity":62,"Duration":89467,"SoundDuration":89467,"Delta":151502307},{"NoteNumber":86,"Velocity":52,"Duration":93750,"SoundDuration":93750,"Delta":151591775},{"NoteNumber":82,"Velocity":52,"Duration":93750,"SoundDuration":93750,"Delta":151591775},{"NoteNumber":74,"Velocity":63,"Duration":93750,"SoundDuration":93750,"Delta":151591775},{"NoteNumber":70,"Velocity":54,"Duration":93750,"SoundDuration":93750,"Delta":151685525},{"NoteNumber":86,"Velocity":47,"Duration":90350,"SoundDuration":90350,"Delta":151779275},{"NoteNumber":82,"Velocity":47,"Duration":90350,"SoundDuration":90350,"Delta":151779275},{"NoteNumber":77,"Velocity":66,"Duration":90350,"SoundDuration":90350,"Delta":151779275},{"NoteNumber":74,"Velocity":62,"Duration":90067,"SoundDuration":90067,"Delta":151869625},{"NoteNumber":89,"Velocity":48,"Duration":89744,"SoundDuration":89744,"Delta":151959693},{"NoteNumber":82,"Velocity":48,"Duration":89744,"SoundDuration":89744,"Delta":151959693},{"NoteNumber":86,"Velocity":48,"Duration":89744,"SoundDuration":89744,"Delta":151959693},{"NoteNumber":70,"Velocity":70,"Duration":89744,"SoundDuration":89744,"Delta":151959693},{"NoteNumber":74,"Velocity":64,"Duration":89467,"SoundDuration":89467,"Delta":152049437},{"NoteNumber":87,"Velocity":59,"Duration":89285,"SoundDuration":89285,"Delta":152138905},{"NoteNumber":81,"Velocity":59,"Duration":89285,"SoundDuration":89285,"Delta":152138905},{"NoteNumber":89,"Velocity":59,"Duration":89285,"SoundDuration":89285,"Delta":152138905},{"NoteNumber":72,"Velocity":67,"Duration":59523,"SoundDuration":59523,"Delta":152138905},{"NoteNumber":65,"Velocity":60,"Duration":178571,"SoundDuration":178571,"Delta":152138905},{"NoteNumber":74,"Velocity":59,"Duration":59523,"SoundDuration":59523,"Delta":152198429},{"NoteNumber":72,"Velocity":67,"Duration":59523,"SoundDuration":59523,"Delta":152257952},{"NoteNumber":89,"Velocity":46,"Duration":90782,"SoundDuration":90782,"Delta":152317476},{"NoteNumber":81,"Velocity":46,"Duration":90782,"SoundDuration":90782,"Delta":152317476},{"NoteNumber":87,"Velocity":46,"Duration":90782,"SoundDuration":90782,"Delta":152317476},{"NoteNumber":74,"Velocity":61,"Duration":60392,"SoundDuration":60392,"Delta":152317476},{"NoteNumber":72,"Velocity":66,"Duration":60693,"SoundDuration":60693,"Delta":152377869},{"NoteNumber":74,"Velocity":59,"Duration":60503,"SoundDuration":60503,"Delta":152438562},{"NoteNumber":87,"Velocity":45,"Duration":90404,"SoundDuration":90404,"Delta":152499065},{"NoteNumber":89,"Velocity":45,"Duration":90404,"SoundDuration":90404,"Delta":152499065},{"NoteNumber":81,"Velocity":45,"Duration":90404,"SoundDuration":90404,"Delta":152499065},{"NoteNumber":72,"Velocity":66,"Duration":60311,"SoundDuration":60311,"Delta":152499065},{"NoteNumber":74,"Velocity":59,"Duration":60123,"SoundDuration":60123,"Delta":152559377},{"NoteNumber":72,"Velocity":62,"Duration":59936,"SoundDuration":59936,"Delta":152619500},{"NoteNumber":89,"Velocity":53,"Duration":89299,"SoundDuration":89299,"Delta":152679436},{"NoteNumber":81,"Velocity":53,"Duration":89299,"SoundDuration":89299,"Delta":152679436},{"NoteNumber":87,"Velocity":53,"Duration":89299,"SoundDuration":89299,"Delta":152679436},{"NoteNumber":74,"Velocity":56,"Duration":59537,"SoundDuration":59537,"Delta":152679436},{"NoteNumber":72,"Velocity":63,"Duration":59523,"SoundDuration":59523,"Delta":152738974},{"NoteNumber":74,"Velocity":55,"Duration":59523,"SoundDuration":59523,"Delta":152798497},{"NoteNumber":87,"Velocity":45,"Duration":89190,"SoundDuration":89190,"Delta":152858021},{"NoteNumber":89,"Velocity":45,"Duration":89190,"SoundDuration":89190,"Delta":152858021},{"NoteNumber":81,"Velocity":45,"Duration":89190,"SoundDuration":89190,"Delta":152858021},{"NoteNumber":72,"Velocity":63,"Duration":59397,"SoundDuration":59397,"Delta":152858021},{"NoteNumber":74,"Velocity":55,"Duration":59679,"SoundDuration":59679,"Delta":152917419},{"NoteNumber":72,"Velocity":63,"Duration":59965,"SoundDuration":59965,"Delta":152977099},{"NoteNumber":89,"Velocity":44,"Duration":90646,"SoundDuration":90646,"Delta":153037064},{"NoteNumber":81,"Velocity":44,"Duration":90646,"SoundDuration":90646,"Delta":153037064},{"NoteNumber":87,"Velocity":44,"Duration":90646,"SoundDuration":90646,"Delta":153037064},{"NoteNumber":74,"Velocity":55,"Duration":60343,"SoundDuration":60343,"Delta":153037064},{"NoteNumber":72,"Velocity":63,"Duration":60605,"SoundDuration":60605,"Delta":153097408},{"NoteNumber":74,"Velocity":59,"Duration":60722,"SoundDuration":60722,"Delta":153158014},{"NoteNumber":65,"Velocity":62,"Duration":92182,"SoundDuration":92182,"Delta":153218736},{"NoteNumber":71,"Velocity":55,"Duration":91619,"SoundDuration":91619,"Delta":153310919},{"NoteNumber":72,"Velocity":58,"Duration":91031,"SoundDuration":91031,"Delta":153402539},{"NoteNumber":74,"Velocity":60,"Duration":90459,"SoundDuration":90459,"Delta":153493570},{"NoteNumber":80,"Velocity":70,"Duration":551776,"SoundDuration":551776,"Delta":153584029},{"NoteNumber":92,"Velocity":83,"Duration":551776,"SoundDuration":551776,"Delta":153584029},{"NoteNumber":72,"Velocity":58,"Duration":97567,"SoundDuration":97567,"Delta":153584029},{"NoteNumber":71,"Velocity":58,"Duration":92763,"SoundDuration":92763,"Delta":153681596},{"NoteNumber":63,"Velocity":61,"Duration":90361,"SoundDuration":90361,"Delta":153774360},{"NoteNumber":72,"Velocity":56,"Duration":90361,"SoundDuration":90361,"Delta":153864721},{"NoteNumber":74,"Velocity":59,"Duration":90361,"SoundDuration":90361,"Delta":153955083},{"NoteNumber":75,"Velocity":61,"Duration":90361,"SoundDuration":90361,"Delta":154045444},{"NoteNumber":79,"Velocity":66,"Duration":186580,"SoundDuration":186580,"Delta":154135806},{"NoteNumber":91,"Velocity":79,"Duration":186580,"SoundDuration":186580,"Delta":154135806},{"NoteNumber":74,"Velocity":57,"Duration":91886,"SoundDuration":91886,"Delta":154135806},{"NoteNumber":72,"Velocity":57,"Duration":94694,"SoundDuration":94694,"Delta":154227692},{"NoteNumber":63,"Velocity":62,"Duration":91883,"SoundDuration":91883,"Delta":154326988},{"NoteNumber":69,"Velocity":55,"Duration":91340,"SoundDuration":91340,"Delta":154414287},{"NoteNumber":70,"Velocity":58,"Duration":90755,"SoundDuration":90755,"Delta":154505628},{"NoteNumber":72,"Velocity":60,"Duration":90338,"SoundDuration":90338,"Delta":154592618},{"NoteNumber":78,"Velocity":69,"Duration":544757,"SoundDuration":544757,"Delta":154686700},{"NoteNumber":90,"Velocity":81,"Duration":544757,"SoundDuration":544757,"Delta":154686700},{"NoteNumber":70,"Velocity":59,"Duration":94197,"SoundDuration":94197,"Delta":154686700},{"NoteNumber":69,"Velocity":59,"Duration":91279,"SoundDuration":91279,"Delta":154780897},{"NoteNumber":62,"Velocity":62,"Duration":89820,"SoundDuration":89820,"Delta":154872177},{"NoteNumber":70,"Velocity":57,"Duration":89820,"SoundDuration":89820,"Delta":154961997},{"NoteNumber":72,"Velocity":61,"Duration":89820,"SoundDuration":89820,"Delta":155051817},{"NoteNumber":74,"Velocity":64,"Duration":89820,"SoundDuration":89820,"Delta":155141637},{"NoteNumber":77,"Velocity":67,"Duration":184079,"SoundDuration":184079,"Delta":155231458},{"NoteNumber":89,"Velocity":80,"Duration":184079,"SoundDuration":184079,"Delta":155231458},{"NoteNumber":72,"Velocity":59,"Duration":90936,"SoundDuration":90936,"Delta":155231458},{"NoteNumber":70,"Velocity":60,"Duration":93143,"SoundDuration":93143,"Delta":155322394},{"NoteNumber":53,"Velocity":65,"Duration":92460,"SoundDuration":92460,"Delta":155420181},{"NoteNumber":59,"Velocity":58,"Duration":91576,"SoundDuration":91576,"Delta":155508040},{"NoteNumber":60,"Velocity":62,"Duration":90612,"SoundDuration":90612,"Delta":155599616},{"NoteNumber":62,"Velocity":64,"Duration":89769,"SoundDuration":89769,"Delta":155686475},{"NoteNumber":68,"Velocity":73,"Duration":543841,"SoundDuration":543841,"Delta":155779976},{"NoteNumber":80,"Velocity":86,"Duration":543841,"SoundDuration":543841,"Delta":155779976},{"NoteNumber":60,"Velocity":62,"Duration":97087,"SoundDuration":97087,"Delta":155779976},{"NoteNumber":59,"Velocity":63,"Duration":89610,"SoundDuration":89610,"Delta":155877063},{"NoteNumber":51,"Velocity":67,"Duration":89285,"SoundDuration":89285,"Delta":155966674},{"NoteNumber":60,"Velocity":61,"Duration":89285,"SoundDuration":89285,"Delta":156055960},{"NoteNumber":62,"Velocity":65,"Duration":89285,"SoundDuration":89285,"Delta":156145246},{"NoteNumber":63,"Velocity":67,"Duration":89285,"SoundDuration":89285,"Delta":156234531},{"NoteNumber":67,"Velocity":71,"Duration":182453,"SoundDuration":182453,"Delta":156323817},{"NoteNumber":79,"Velocity":86,"Duration":182453,"SoundDuration":182453,"Delta":156323817},{"NoteNumber":62,"Velocity":63,"Duration":89285,"SoundDuration":89285,"Delta":156323817},{"NoteNumber":60,"Velocity":63,"Duration":93167,"SoundDuration":93167,"Delta":156413103},{"NoteNumber":51,"Velocity":70,"Duration":91477,"SoundDuration":91477,"Delta":156510735},{"NoteNumber":57,"Velocity":62,"Duration":90788,"SoundDuration":90788,"Delta":156597653},{"NoteNumber":58,"Velocity":66,"Duration":89940,"SoundDuration":89940,"Delta":156688441},{"NoteNumber":60,"Velocity":68,"Duration":89191,"SoundDuration":89191,"Delta":156774650},{"NoteNumber":66,"Velocity":78,"Duration":543055,"SoundDuration":543055,"Delta":156867550},{"NoteNumber":78,"Velocity":92,"Duration":543055,"SoundDuration":543055,"Delta":156867550},{"NoteNumber":58,"Velocity":66,"Duration":94043,"SoundDuration":94043,"Delta":156867550},{"NoteNumber":57,"Velocity":67,"Duration":89730,"SoundDuration":89730,"Delta":156961594},{"NoteNumber":50,"Velocity":70,"Duration":89820,"SoundDuration":89820,"Delta":157051325},{"NoteNumber":58,"Velocity":65,"Duration":89820,"SoundDuration":89820,"Delta":157141145},{"NoteNumber":60,"Velocity":69,"Duration":89820,"SoundDuration":89820,"Delta":157230966},{"NoteNumber":62,"Velocity":71,"Duration":89820,"SoundDuration":89820,"Delta":157320786},{"NoteNumber":65,"Velocity":75,"Duration":182128,"SoundDuration":182128,"Delta":157410606},{"NoteNumber":77,"Velocity":90,"Duration":182128,"SoundDuration":182128,"Delta":157410606},{"NoteNumber":60,"Velocity":67,"Duration":89820,"SoundDuration":89820,"Delta":157410606},{"NoteNumber":58,"Velocity":67,"Duration":92307,"SoundDuration":92307,"Delta":157500426},{"NoteNumber":50,"Velocity":70,"Duration":90090,"SoundDuration":90090,"Delta":157592734},{"NoteNumber":53,"Velocity":62,"Duration":90090,"SoundDuration":90090,"Delta":157682824},{"NoteNumber":70,"Velocity":60,"Duration":89424,"SoundDuration":89424,"Delta":157772914},{"NoteNumber":77,"Velocity":71,"Duration":89424,"SoundDuration":89424,"Delta":157772914},{"NoteNumber":65,"Velocity":60,"Duration":89424,"SoundDuration":89424,"Delta":157772914},{"NoteNumber":58,"Velocity":66,"Duration":89424,"SoundDuration":89424,"Delta":157772914},{"NoteNumber":62,"Velocity":68,"Duration":89423,"SoundDuration":89423,"Delta":157862338},{"NoteNumber":65,"Velocity":57,"Duration":89424,"SoundDuration":89424,"Delta":157951762},{"NoteNumber":77,"Velocity":68,"Duration":89424,"SoundDuration":89424,"Delta":157951762},{"NoteNumber":70,"Velocity":57,"Duration":89424,"SoundDuration":89424,"Delta":157951762},{"NoteNumber":58,"Velocity":66,"Duration":89424,"SoundDuration":89424,"Delta":157951762},{"NoteNumber":53,"Velocity":63,"Duration":94043,"SoundDuration":94043,"Delta":158041186},{"NoteNumber":43,"Velocity":70,"Duration":89691,"SoundDuration":89691,"Delta":158135230},{"NoteNumber":46,"Velocity":65,"Duration":89691,"SoundDuration":89691,"Delta":158224922},{"NoteNumber":70,"Velocity":58,"Duration":89691,"SoundDuration":89691,"Delta":158314613},{"NoteNumber":75,"Velocity":69,"Duration":89691,"SoundDuration":89691,"Delta":158314613},{"NoteNumber":67,"Velocity":58,"Duration":89691,"SoundDuration":89691,"Delta":158314613},{"NoteNumber":50,"Velocity":69,"Duration":89691,"SoundDuration":89691,"Delta":158314613},{"NoteNumber":55,"Velocity":71,"Duration":89691,"SoundDuration":89691,"Delta":158404305},{"NoteNumber":74,"Velocity":65,"Duration":89691,"SoundDuration":89691,"Delta":158493996},{"NoteNumber":67,"Velocity":55,"Duration":89691,"SoundDuration":89691,"Delta":158493996},{"NoteNumber":70,"Velocity":55,"Duration":89691,"SoundDuration":89691,"Delta":158493996},{"NoteNumber":50,"Velocity":67,"Duration":89691,"SoundDuration":89691,"Delta":158493996},{"NoteNumber":46,"Velocity":64,"Duration":89691,"SoundDuration":89691,"Delta":158583688},{"NoteNumber":39,"Velocity":70,"Duration":90090,"SoundDuration":90090,"Delta":158673379},{"NoteNumber":43,"Velocity":62,"Duration":90090,"SoundDuration":90090,"Delta":158763469},{"NoteNumber":63,"Velocity":60,"Duration":90090,"SoundDuration":90090,"Delta":158853559},{"NoteNumber":74,"Velocity":71,"Duration":90090,"SoundDuration":90090,"Delta":158853559},{"NoteNumber":67,"Velocity":60,"Duration":90090,"SoundDuration":90090,"Delta":158853559},{"NoteNumber":48,"Velocity":66,"Duration":90090,"SoundDuration":90090,"Delta":158853559},{"NoteNumber":51,"Velocity":68,"Duration":90089,"SoundDuration":90089,"Delta":158943649},{"NoteNumber":72,"Velocity":68,"Duration":90090,"SoundDuration":90090,"Delta":159033739},{"NoteNumber":67,"Velocity":57,"Duration":90090,"SoundDuration":90090,"Delta":159033739},{"NoteNumber":63,"Velocity":57,"Duration":90090,"SoundDuration":90090,"Delta":159033739},{"NoteNumber":48,"Velocity":66,"Duration":90090,"SoundDuration":90090,"Delta":159033739},{"NoteNumber":43,"Velocity":63,"Duration":94043,"SoundDuration":94043,"Delta":159123829},{"NoteNumber":41,"Velocity":70,"Duration":89820,"SoundDuration":89820,"Delta":159217873},{"NoteNumber":48,"Velocity":65,"Duration":89820,"SoundDuration":89820,"Delta":159307693},{"NoteNumber":70,"Velocity":69,"Duration":89820,"SoundDuration":89820,"Delta":159397514},{"NoteNumber":63,"Velocity":58,"Duration":89820,"SoundDuration":89820,"Delta":159397514},{"NoteNumber":60,"Velocity":58,"Duration":89820,"SoundDuration":89820,"Delta":159397514},{"NoteNumber":51,"Velocity":69,"Duration":89820,"SoundDuration":89820,"Delta":159397514},{"NoteNumber":53,"Velocity":71,"Duration":89820,"SoundDuration":89820,"Delta":159487334},{"NoteNumber":69,"Velocity":65,"Duration":89820,"SoundDuration":89820,"Delta":159577154},{"NoteNumber":63,"Velocity":55,"Duration":89820,"SoundDuration":89820,"Delta":159577154},{"NoteNumber":60,"Velocity":55,"Duration":89820,"SoundDuration":89820,"Delta":159577154},{"NoteNumber":51,"Velocity":67,"Duration":89820,"SoundDuration":89820,"Delta":159577154},{"NoteNumber":48,"Velocity":64,"Duration":89820,"SoundDuration":89820,"Delta":159666974},{"NoteNumber":38,"Velocity":70,"Duration":89424,"SoundDuration":89424,"Delta":159756795},{"NoteNumber":41,"Velocity":62,"Duration":89423,"SoundDuration":89423,"Delta":159846219},{"NoteNumber":70,"Velocity":71,"Duration":89424,"SoundDuration":89424,"Delta":159935643},{"NoteNumber":65,"Velocity":60,"Duration":89424,"SoundDuration":89424,"Delta":159935643},{"NoteNumber":58,"Velocity":60,"Duration":89424,"SoundDuration":89424,"Delta":159935643},{"NoteNumber":46,"Velocity":66,"Duration":89424,"SoundDuration":89424,"Delta":159935643},{"NoteNumber":50,"Velocity":68,"Duration":89424,"SoundDuration":89424,"Delta":160025067},{"NoteNumber":65,"Velocity":69,"Duration":89424,"SoundDuration":89424,"Delta":160114491},{"NoteNumber":62,"Velocity":58,"Duration":89424,"SoundDuration":89424,"Delta":160114491},{"NoteNumber":58,"Velocity":58,"Duration":89424,"SoundDuration":89424,"Delta":160114491},{"NoteNumber":46,"Velocity":67,"Duration":89424,"SoundDuration":89424,"Delta":160114491},{"NoteNumber":41,"Velocity":64,"Duration":94043,"SoundDuration":94043,"Delta":160203915},{"NoteNumber":31,"Velocity":72,"Duration":89820,"SoundDuration":89820,"Delta":160297959},{"NoteNumber":34,"Velocity":67,"Duration":89820,"SoundDuration":89820,"Delta":160387779},{"NoteNumber":55,"Velocity":74,"Duration":89820,"SoundDuration":89820,"Delta":160477599},{"NoteNumber":63,"Velocity":72,"Duration":89820,"SoundDuration":89820,"Delta":160477599},{"NoteNumber":58,"Velocity":60,"Duration":89820,"SoundDuration":89820,"Delta":160477599},{"NoteNumber":38,"Velocity":72,"Duration":89820,"SoundDuration":89820,"Delta":160477599},{"NoteNumber":43,"Velocity":74,"Duration":89820,"SoundDuration":89820,"Delta":160567419},{"NoteNumber":62,"Velocity":68,"Duration":89820,"SoundDuration":89820,"Delta":160657240},{"NoteNumber":58,"Velocity":58,"Duration":89820,"SoundDuration":89820,"Delta":160657240},{"NoteNumber":55,"Velocity":58,"Duration":89820,"SoundDuration":89820,"Delta":160657240},{"NoteNumber":38,"Velocity":71,"Duration":89820,"SoundDuration":89820,"Delta":160657240},{"NoteNumber":34,"Velocity":67,"Duration":89820,"SoundDuration":89820,"Delta":160747060},{"NoteNumber":39,"Velocity":74,"Duration":90090,"SoundDuration":90090,"Delta":160836880},{"NoteNumber":43,"Velocity":66,"Duration":90090,"SoundDuration":90090,"Delta":160926970},{"NoteNumber":62,"Velocity":76,"Duration":90090,"SoundDuration":90090,"Delta":161017060},{"NoteNumber":55,"Velocity":64,"Duration":90090,"SoundDuration":90090,"Delta":161017060},{"NoteNumber":51,"Velocity":64,"Duration":90090,"SoundDuration":90090,"Delta":161017060},{"NoteNumber":48,"Velocity":71,"Duration":90090,"SoundDuration":90090,"Delta":161017060},{"NoteNumber":43,"Velocity":74,"Duration":90090,"SoundDuration":90090,"Delta":161107150},{"NoteNumber":60,"Velocity":74,"Duration":90089,"SoundDuration":90089,"Delta":161197240},{"NoteNumber":55,"Velocity":62,"Duration":90089,"SoundDuration":90089,"Delta":161197240},{"NoteNumber":51,"Velocity":62,"Duration":90089,"SoundDuration":90089,"Delta":161197240},{"NoteNumber":39,"Velocity":72,"Duration":184133,"SoundDuration":184133,"Delta":161197240},{"NoteNumber":29,"Velocity":77,"Duration":89820,"SoundDuration":89820,"Delta":161381374},{"NoteNumber":36,"Velocity":72,"Duration":89820,"SoundDuration":89820,"Delta":161471194},{"NoteNumber":48,"Velocity":79,"Duration":89820,"SoundDuration":89820,"Delta":161561015},{"NoteNumber":51,"Velocity":64,"Duration":89820,"SoundDuration":89820,"Delta":161561015},{"NoteNumber":58,"Velocity":77,"Duration":89820,"SoundDuration":89820,"Delta":161561015},{"NoteNumber":39,"Velocity":77,"Duration":89820,"SoundDuration":89820,"Delta":161561015},{"NoteNumber":41,"Velocity":80,"Duration":89820,"SoundDuration":89820,"Delta":161650835},{"NoteNumber":51,"Velocity":62,"Duration":89820,"SoundDuration":89820,"Delta":161740655},{"NoteNumber":57,"Velocity":73,"Duration":89820,"SoundDuration":89820,"Delta":161740655},{"NoteNumber":48,"Velocity":62,"Duration":89820,"SoundDuration":89820,"Delta":161740655},{"NoteNumber":29,"Velocity":75,"Duration":89820,"SoundDuration":89820,"Delta":161740655},{"NoteNumber":41,"Velocity":72,"Duration":94936,"SoundDuration":94936,"Delta":161830475},{"NoteNumber":46,"Velocity":62,"Duration":90751,"SoundDuration":90751,"Delta":161925412},{"NoteNumber":34,"Velocity":75,"Duration":90751,"SoundDuration":90751,"Delta":161925412},{"NoteNumber":48,"Velocity":63,"Duration":90973,"SoundDuration":90973,"Delta":162016163},{"NoteNumber":50,"Velocity":65,"Duration":90405,"SoundDuration":90405,"Delta":162107137},{"NoteNumber":46,"Velocity":75,"Duration":90405,"SoundDuration":90405,"Delta":162107137},{"NoteNumber":51,"Velocity":66,"Duration":89840,"SoundDuration":89840,"Delta":162197542},{"NoteNumber":53,"Velocity":67,"Duration":59616,"SoundDuration":59616,"Delta":162287383},{"NoteNumber":46,"Velocity":64,"Duration":89424,"SoundDuration":89424,"Delta":162287383},{"NoteNumber":50,"Velocity":77,"Duration":89424,"SoundDuration":89424,"Delta":162287383},{"NoteNumber":55,"Velocity":68,"Duration":59616,"SoundDuration":59616,"Delta":162346999},{"NoteNumber":57,"Velocity":68,"Duration":59615,"SoundDuration":59615,"Delta":162406615},{"NoteNumber":58,"Velocity":69,"Duration":59616,"SoundDuration":59616,"Delta":162466231},{"NoteNumber":46,"Velocity":70,"Duration":363404,"SoundDuration":363404,"Delta":162466231},{"NoteNumber":50,"Velocity":70,"Duration":363404,"SoundDuration":363404,"Delta":162466231},{"NoteNumber":53,"Velocity":83,"Duration":363404,"SoundDuration":363404,"Delta":162466231},{"NoteNumber":60,"Velocity":70,"Duration":61254,"SoundDuration":61254,"Delta":162525847},{"NoteNumber":62,"Velocity":71,"Duration":62893,"SoundDuration":62893,"Delta":162587101},{"NoteNumber":63,"Velocity":72,"Duration":59880,"SoundDuration":59880,"Delta":162649994},{"NoteNumber":65,"Velocity":72,"Duration":59880,"SoundDuration":59880,"Delta":162709875},{"NoteNumber":67,"Velocity":73,"Duration":59880,"SoundDuration":59880,"Delta":162769755},{"NoteNumber":69,"Velocity":85,"Duration":89820,"SoundDuration":89820,"Delta":162829635},{"NoteNumber":48,"Velocity":60,"Duration":89820,"SoundDuration":89820,"Delta":162829635},{"NoteNumber":41,"Velocity":60,"Duration":89820,"SoundDuration":89820,"Delta":162829635},{"NoteNumber":53,"Velocity":71,"Duration":89820,"SoundDuration":89820,"Delta":162829635},{"NoteNumber":57,"Velocity":67,"Duration":100085,"SoundDuration":100085,"Delta":162919455},{"NoteNumber":58,"Velocity":62,"Duration":90607,"SoundDuration":90607,"Delta":163019541},{"NoteNumber":46,"Velocity":67,"Duration":90607,"SoundDuration":90607,"Delta":163019541},{"NoteNumber":53,"Velocity":79,"Duration":90607,"SoundDuration":90607,"Delta":163019541},{"NoteNumber":50,"Velocity":67,"Duration":90607,"SoundDuration":90607,"Delta":163019541},{"NoteNumber":60,"Velocity":63,"Duration":90280,"SoundDuration":90280,"Delta":163110148},{"NoteNumber":62,"Velocity":65,"Duration":89955,"SoundDuration":89955,"Delta":163200428},{"NoteNumber":46,"Velocity":63,"Duration":89955,"SoundDuration":89955,"Delta":163200428},{"NoteNumber":50,"Velocity":63,"Duration":89955,"SoundDuration":89955,"Delta":163200428},{"NoteNumber":53,"Velocity":75,"Duration":89955,"SoundDuration":89955,"Delta":163200428},{"NoteNumber":63,"Velocity":66,"Duration":89632,"SoundDuration":89632,"Delta":163290383},{"NoteNumber":65,"Velocity":67,"Duration":59550,"SoundDuration":59550,"Delta":163380016},{"NoteNumber":53,"Velocity":74,"Duration":89312,"SoundDuration":89312,"Delta":163380016},{"NoteNumber":46,"Velocity":62,"Duration":89312,"SoundDuration":89312,"Delta":163380016},{"NoteNumber":50,"Velocity":62,"Duration":89312,"SoundDuration":89312,"Delta":163380016},{"NoteNumber":67,"Velocity":68,"Duration":59523,"SoundDuration":59523,"Delta":163439566},{"NoteNumber":69,"Velocity":68,"Duration":59523,"SoundDuration":59523,"Delta":163499090},{"NoteNumber":70,"Velocity":69,"Duration":59523,"SoundDuration":59523,"Delta":163558614},{"NoteNumber":46,"Velocity":69,"Duration":361848,"SoundDuration":361848,"Delta":163558614},{"NoteNumber":50,"Velocity":69,"Duration":361848,"SoundDuration":361848,"Delta":163558614},{"NoteNumber":53,"Velocity":82,"Duration":361848,"SoundDuration":361848,"Delta":163558614},{"NoteNumber":72,"Velocity":70,"Duration":60914,"SoundDuration":60914,"Delta":163618138},{"NoteNumber":74,"Velocity":71,"Duration":62305,"SoundDuration":62305,"Delta":163679053},{"NoteNumber":75,"Velocity":72,"Duration":59701,"SoundDuration":59701,"Delta":163741358},{"NoteNumber":77,"Velocity":72,"Duration":59701,"SoundDuration":59701,"Delta":163801059},{"NoteNumber":79,"Velocity":73,"Duration":59701,"SoundDuration":59701,"Delta":163860761},{"NoteNumber":81,"Velocity":85,"Duration":89552,"SoundDuration":89552,"Delta":163920462},{"NoteNumber":48,"Velocity":63,"Duration":89552,"SoundDuration":89552,"Delta":163920462},{"NoteNumber":41,"Velocity":63,"Duration":89552,"SoundDuration":89552,"Delta":163920462},{"NoteNumber":53,"Velocity":75,"Duration":89552,"SoundDuration":89552,"Delta":163920462},{"NoteNumber":69,"Velocity":67,"Duration":99140,"SoundDuration":99140,"Delta":164010015},{"NoteNumber":70,"Velocity":62,"Duration":90563,"SoundDuration":90563,"Delta":164109155},{"NoteNumber":46,"Velocity":64,"Duration":90563,"SoundDuration":90563,"Delta":164109155},{"NoteNumber":53,"Velocity":76,"Duration":90563,"SoundDuration":90563,"Delta":164109155},{"NoteNumber":50,"Velocity":64,"Duration":90563,"SoundDuration":90563,"Delta":164109155},{"NoteNumber":72,"Velocity":63,"Duration":90191,"SoundDuration":90191,"Delta":164199719},{"NoteNumber":74,"Velocity":65,"Duration":89775,"SoundDuration":89775,"Delta":164289911},{"NoteNumber":46,"Velocity":63,"Duration":89775,"SoundDuration":89775,"Delta":164289911},{"NoteNumber":50,"Velocity":63,"Duration":89775,"SoundDuration":89775,"Delta":164289911},{"NoteNumber":53,"Velocity":75,"Duration":89775,"SoundDuration":89775,"Delta":164289911},{"NoteNumber":75,"Velocity":66,"Duration":89407,"SoundDuration":89407,"Delta":164379687},{"NoteNumber":77,"Velocity":68,"Duration":59373,"SoundDuration":59373,"Delta":164469095},{"NoteNumber":53,"Velocity":73,"Duration":89047,"SoundDuration":89047,"Delta":164469095},{"NoteNumber":46,"Velocity":61,"Duration":89047,"SoundDuration":89047,"Delta":164469095},{"NoteNumber":50,"Velocity":61,"Duration":89047,"SoundDuration":89047,"Delta":164469095},{"NoteNumber":79,"Velocity":70,"Duration":59347,"SoundDuration":59347,"Delta":164528468},{"NoteNumber":81,"Velocity":72,"Duration":59347,"SoundDuration":59347,"Delta":164587816},{"NoteNumber":82,"Velocity":74,"Duration":89020,"SoundDuration":89020,"Delta":164647163},{"NoteNumber":46,"Velocity":70,"Duration":360717,"SoundDuration":360717,"Delta":164647163},{"NoteNumber":50,"Velocity":70,"Duration":360717,"SoundDuration":360717,"Delta":164647163},{"NoteNumber":53,"Velocity":83,"Duration":360717,"SoundDuration":360717,"Delta":164647163},{"NoteNumber":84,"Velocity":75,"Duration":92592,"SoundDuration":92592,"Delta":164736183},{"NoteNumber":86,"Velocity":77,"Duration":59701,"SoundDuration":59701,"Delta":164828776},{"NoteNumber":87,"Velocity":79,"Duration":59701,"SoundDuration":59701,"Delta":164888477},{"NoteNumber":89,"Velocity":81,"Duration":59701,"SoundDuration":59701,"Delta":164948179},{"NoteNumber":91,"Velocity":83,"Duration":59701,"SoundDuration":59701,"Delta":165007880},{"NoteNumber":48,"Velocity":63,"Duration":89552,"SoundDuration":89552,"Delta":165007880},{"NoteNumber":41,"Velocity":63,"Duration":89552,"SoundDuration":89552,"Delta":165007880},{"NoteNumber":53,"Velocity":75,"Duration":89552,"SoundDuration":89552,"Delta":165007880},{"NoteNumber":93,"Velocity":92,"Duration":63864,"SoundDuration":63864,"Delta":165067582},{"NoteNumber":81,"Velocity":85,"Duration":68027,"SoundDuration":68027,"Delta":165131446},{"NoteNumber":82,"Velocity":89,"Duration":408163,"SoundDuration":408163,"Delta":165199473},{"NoteNumber":94,"Velocity":105,"Duration":408163,"SoundDuration":408163,"Delta":165199473},{"NoteNumber":46,"Velocity":69,"Duration":408163,"SoundDuration":408163,"Delta":165199473},{"NoteNumber":58,"Velocity":82,"Duration":408163,"SoundDuration":408163,"Delta":165199473},{"NoteNumber":50,"Velocity":69,"Duration":408163,"SoundDuration":408163,"Delta":165199473},{"NoteNumber":53,"Velocity":69,"Duration":408163,"SoundDuration":408163,"Delta":165199473},{"NoteNumber":82,"Velocity":90,"Duration":408163,"SoundDuration":408163,"Delta":165811718},{"NoteNumber":77,"Velocity":75,"Duration":408163,"SoundDuration":408163,"Delta":165811718},{"NoteNumber":74,"Velocity":75,"Duration":408163,"SoundDuration":408163,"Delta":165811718},{"NoteNumber":46,"Velocity":69,"Duration":408163,"SoundDuration":408163,"Delta":165811718},{"NoteNumber":50,"Velocity":69,"Duration":408163,"SoundDuration":408163,"Delta":165811718},{"NoteNumber":58,"Velocity":82,"Duration":408163,"SoundDuration":408163,"Delta":165811718},{"NoteNumber":53,"Velocity":69,"Duration":408163,"SoundDuration":408163,"Delta":165811718},{"NoteNumber":62,"Velocity":74,"Duration":408163,"SoundDuration":408163,"Delta":166423962},{"NoteNumber":65,"Velocity":74,"Duration":408163,"SoundDuration":408163,"Delta":166423962},{"NoteNumber":70,"Velocity":89,"Duration":408163,"SoundDuration":408163,"Delta":166423962},{"NoteNumber":46,"Velocity":69,"Duration":408163,"SoundDuration":408163,"Delta":166423962},{"NoteNumber":50,"Velocity":69,"Duration":408163,"SoundDuration":408163,"Delta":166423962},{"NoteNumber":53,"Velocity":69,"Duration":408163,"SoundDuration":408163,"Delta":166423962},{"NoteNumber":58,"Velocity":82,"Duration":408163,"SoundDuration":408163,"Delta":166423962},{"NoteNumber":70,"Velocity":45,"Duration":102040,"SoundDuration":102040,"Delta":167444370},{"NoteNumber":70,"Velocity":57,"Duration":130813,"SoundDuration":130813,"Delta":167648451},{"NoteNumber":66,"Velocity":45,"Duration":87719,"SoundDuration":87719,"Delta":167822870},{"NoteNumber":63,"Velocity":45,"Duration":90361,"SoundDuration":90361,"Delta":167998308},{"NoteNumber":58,"Velocity":56,"Duration":130813,"SoundDuration":130813,"Delta":168179031},{"NoteNumber":54,"Velocity":45,"Duration":88235,"SoundDuration":88235,"Delta":168353450},{"NoteNumber":51,"Velocity":45,"Duration":90634,"SoundDuration":90634,"Delta":168529920},{"NoteNumber":46,"Velocity":51,"Duration":131457,"SoundDuration":131457,"Delta":168711189},{"NoteNumber":42,"Velocity":45,"Duration":88495,"SoundDuration":88495,"Delta":168886894},{"NoteNumber":39,"Velocity":45,"Duration":88495,"SoundDuration":88495,"Delta":169063885},{"NoteNumber":82,"Velocity":58,"Duration":176991,"SoundDuration":176991,"Delta":169594858},{"NoteNumber":70,"Velocity":49,"Duration":176991,"SoundDuration":176991,"Delta":169594858},{"NoteNumber":82,"Velocity":59,"Duration":530972,"SoundDuration":530972,"Delta":169771849},{"NoteNumber":70,"Velocity":49,"Duration":530972,"SoundDuration":530972,"Delta":169771849},{"NoteNumber":66,"Velocity":51,"Duration":88495,"SoundDuration":88495,"Delta":169948840},{"NoteNumber":63,"Velocity":43,"Duration":88495,"SoundDuration":88495,"Delta":169948840},{"NoteNumber":66,"Velocity":51,"Duration":88495,"SoundDuration":88495,"Delta":170125831},{"NoteNumber":63,"Velocity":43,"Duration":88495,"SoundDuration":88495,"Delta":170125831},{"NoteNumber":71,"Velocity":52,"Duration":541694,"SoundDuration":541694,"Delta":170302822},{"NoteNumber":83,"Velocity":62,"Duration":541694,"SoundDuration":541694,"Delta":170302822},{"NoteNumber":63,"Velocity":46,"Duration":89552,"SoundDuration":89552,"Delta":170302822},{"NoteNumber":66,"Velocity":55,"Duration":89552,"SoundDuration":89552,"Delta":170302822},{"NoteNumber":63,"Velocity":43,"Duration":89552,"SoundDuration":89552,"Delta":170481927},{"NoteNumber":66,"Velocity":51,"Duration":89552,"SoundDuration":89552,"Delta":170481927},{"NoteNumber":66,"Velocity":51,"Duration":91743,"SoundDuration":91743,"Delta":170661031},{"NoteNumber":63,"Velocity":43,"Duration":91743,"SoundDuration":91743,"Delta":170661031},{"NoteNumber":72,"Velocity":59,"Duration":529411,"SoundDuration":529411,"Delta":170844517},{"NoteNumber":84,"Velocity":70,"Duration":529411,"SoundDuration":529411,"Delta":170844517},{"NoteNumber":66,"Velocity":50,"Duration":88235,"SoundDuration":88235,"Delta":170844517},{"NoteNumber":63,"Velocity":50,"Duration":88235,"SoundDuration":88235,"Delta":170844517},{"NoteNumber":68,"Velocity":59,"Duration":88235,"SoundDuration":88235,"Delta":170844517},{"NoteNumber":66,"Velocity":43,"Duration":88235,"SoundDuration":88235,"Delta":171020988},{"NoteNumber":63,"Velocity":43,"Duration":88235,"SoundDuration":88235,"Delta":171020988},{"NoteNumber":68,"Velocity":51,"Duration":88235,"SoundDuration":88235,"Delta":171020988},{"NoteNumber":63,"Velocity":43,"Duration":88235,"SoundDuration":88235,"Delta":171197458},{"NoteNumber":68,"Velocity":51,"Duration":88235,"SoundDuration":88235,"Delta":171197458},{"NoteNumber":66,"Velocity":43,"Duration":88235,"SoundDuration":88235,"Delta":171197458},{"NoteNumber":85,"Velocity":60,"Duration":352940,"SoundDuration":352940,"Delta":171373929},{"NoteNumber":73,"Velocity":50,"Duration":352940,"SoundDuration":352940,"Delta":171373929},{"NoteNumber":61,"Velocity":47,"Duration":88235,"SoundDuration":88235,"Delta":171373929},{"NoteNumber":68,"Velocity":56,"Duration":88235,"SoundDuration":88235,"Delta":171373929},{"NoteNumber":65,"Velocity":47,"Duration":88235,"SoundDuration":88235,"Delta":171373929},{"NoteNumber":65,"Velocity":44,"Duration":88235,"SoundDuration":88235,"Delta":171550399},{"NoteNumber":68,"Velocity":52,"Duration":88235,"SoundDuration":88235,"Delta":171550399},{"NoteNumber":61,"Velocity":44,"Duration":88235,"SoundDuration":88235,"Delta":171550399},{"NoteNumber":73,"Velocity":45,"Duration":88235,"SoundDuration":88235,"Delta":171726870},{"NoteNumber":65,"Velocity":28,"Duration":88235,"SoundDuration":88235,"Delta":171726870},{"NoteNumber":61,"Velocity":28,"Duration":88235,"SoundDuration":88235,"Delta":171726870},{"NoteNumber":68,"Velocity":32,"Duration":88235,"SoundDuration":88235,"Delta":171726870},{"NoteNumber":73,"Velocity":59,"Duration":130434,"SoundDuration":130434,"Delta":171903340},{"NoteNumber":70,"Velocity":45,"Duration":88235,"SoundDuration":88235,"Delta":172077253},{"NoteNumber":66,"Velocity":45,"Duration":90361,"SoundDuration":90361,"Delta":172253724},{"NoteNumber":61,"Velocity":56,"Duration":130813,"SoundDuration":130813,"Delta":172434447},{"NoteNumber":58,"Velocity":45,"Duration":88235,"SoundDuration":88235,"Delta":172608865},{"NoteNumber":54,"Velocity":45,"Duration":90634,"SoundDuration":90634,"Delta":172785336},{"NoteNumber":49,"Velocity":51,"Duration":130813,"SoundDuration":130813,"Delta":172966605},{"NoteNumber":46,"Velocity":45,"Duration":87976,"SoundDuration":87976,"Delta":173141023},{"NoteNumber":42,"Velocity":45,"Duration":87976,"SoundDuration":87976,"Delta":173316976},{"NoteNumber":73,"Velocity":49,"Duration":174486,"SoundDuration":174486,"Delta":173844835},{"NoteNumber":85,"Velocity":58,"Duration":174486,"SoundDuration":174486,"Delta":173844835},{"NoteNumber":85,"Velocity":59,"Duration":527859,"SoundDuration":527859,"Delta":174020788},{"NoteNumber":73,"Velocity":49,"Duration":527859,"SoundDuration":527859,"Delta":174020788},{"NoteNumber":66,"Velocity":43,"Duration":87976,"SoundDuration":87976,"Delta":174196741},{"NoteNumber":70,"Velocity":51,"Duration":87976,"SoundDuration":87976,"Delta":174196741},{"NoteNumber":66,"Velocity":43,"Duration":87976,"SoundDuration":87976,"Delta":174372694},{"NoteNumber":70,"Velocity":51,"Duration":87976,"SoundDuration":87976,"Delta":174372694},{"NoteNumber":75,"Velocity":52,"Duration":1054703,"SoundDuration":1054703,"Delta":174548647},{"NoteNumber":87,"Velocity":62,"Duration":1054703,"SoundDuration":1054703,"Delta":174548647},{"NoteNumber":71,"Velocity":55,"Duration":87976,"SoundDuration":87976,"Delta":174548647},{"NoteNumber":66,"Velocity":46,"Duration":87976,"SoundDuration":87976,"Delta":174548647},{"NoteNumber":71,"Velocity":51,"Duration":87976,"SoundDuration":87976,"Delta":174724600},{"NoteNumber":66,"Velocity":43,"Duration":87976,"SoundDuration":87976,"Delta":174724600},{"NoteNumber":71,"Velocity":51,"Duration":87976,"SoundDuration":87976,"Delta":174900553},{"NoteNumber":66,"Velocity":43,"Duration":87976,"SoundDuration":87976,"Delta":174900553},{"NoteNumber":66,"Velocity":43,"Duration":87463,"SoundDuration":87463,"Delta":175076506},{"NoteNumber":72,"Velocity":59,"Duration":87463,"SoundDuration":87463,"Delta":175076506},{"NoteNumber":66,"Velocity":43,"Duration":87463,"SoundDuration":87463,"Delta":175251433},{"NoteNumber":72,"Velocity":51,"Duration":87463,"SoundDuration":87463,"Delta":175251433},{"NoteNumber":72,"Velocity":51,"Duration":88495,"SoundDuration":88495,"Delta":175426360},{"NoteNumber":66,"Velocity":46,"Duration":88495,"SoundDuration":88495,"Delta":175426360},{"NoteNumber":76,"Velocity":50,"Duration":1052676,"SoundDuration":1052676,"Delta":175603351},{"NoteNumber":88,"Velocity":60,"Duration":1052676,"SoundDuration":1052676,"Delta":175603351},{"NoteNumber":73,"Velocity":56,"Duration":87463,"SoundDuration":87463,"Delta":175603351},{"NoteNumber":66,"Velocity":47,"Duration":87463,"SoundDuration":87463,"Delta":175603351},{"NoteNumber":73,"Velocity":52,"Duration":87463,"SoundDuration":87463,"Delta":175778278},{"NoteNumber":66,"Velocity":44,"Duration":87463,"SoundDuration":87463,"Delta":175778278},{"NoteNumber":66,"Velocity":44,"Duration":87463,"SoundDuration":87463,"Delta":175953205},{"NoteNumber":73,"Velocity":53,"Duration":87463,"SoundDuration":87463,"Delta":175953205},{"NoteNumber":66,"Velocity":48,"Duration":87463,"SoundDuration":87463,"Delta":176128132},{"NoteNumber":73,"Velocity":58,"Duration":87463,"SoundDuration":87463,"Delta":176128132},{"NoteNumber":73,"Velocity":52,"Duration":87463,"SoundDuration":87463,"Delta":176303059},{"NoteNumber":66,"Velocity":44,"Duration":87463,"SoundDuration":87463,"Delta":176303059},{"NoteNumber":73,"Velocity":54,"Duration":89020,"SoundDuration":89020,"Delta":176477986},{"NoteNumber":66,"Velocity":45,"Duration":89020,"SoundDuration":89020,"Delta":176477986},{"NoteNumber":90,"Velocity":64,"Duration":537941,"SoundDuration":537941,"Delta":176656028},{"NoteNumber":78,"Velocity":55,"Duration":537941,"SoundDuration":537941,"Delta":176656028},{"NoteNumber":75,"Velocity":60,"Duration":87463,"SoundDuration":87463,"Delta":176656028},{"NoteNumber":66,"Velocity":50,"Duration":87463,"SoundDuration":87463,"Delta":176656028},{"NoteNumber":66,"Velocity":44,"Duration":87463,"SoundDuration":87463,"Delta":176830955},{"NoteNumber":75,"Velocity":53,"Duration":87463,"SoundDuration":87463,"Delta":176830955},{"NoteNumber":66,"Velocity":45,"Duration":94043,"SoundDuration":94043,"Delta":177005882},{"NoteNumber":75,"Velocity":53,"Duration":94043,"SoundDuration":94043,"Delta":177005882},{"NoteNumber":91,"Velocity":67,"Duration":567994,"SoundDuration":567994,"Delta":177193970},{"NoteNumber":79,"Velocity":57,"Duration":567994,"SoundDuration":567994,"Delta":177193970},{"NoteNumber":76,"Velocity":62,"Duration":88235,"SoundDuration":88235,"Delta":177193970},{"NoteNumber":66,"Velocity":52,"Duration":88235,"SoundDuration":88235,"Delta":177193970},{"NoteNumber":76,"Velocity":56,"Duration":88235,"SoundDuration":88235,"Delta":177370440},{"NoteNumber":66,"Velocity":47,"Duration":88235,"SoundDuration":88235,"Delta":177370440},{"NoteNumber":76,"Velocity":57,"Duration":107527,"SoundDuration":107527,"Delta":177546911},{"NoteNumber":66,"Velocity":47,"Duration":107527,"SoundDuration":107527,"Delta":177546911},{"NoteNumber":92,"Velocity":69,"Duration":1049127,"SoundDuration":1049127,"Delta":177761965},{"NoteNumber":80,"Velocity":59,"Duration":1049127,"SoundDuration":1049127,"Delta":177761965},{"NoteNumber":66,"Velocity":54,"Duration":88235,"SoundDuration":88235,"Delta":177761965},{"NoteNumber":76,"Velocity":64,"Duration":88235,"SoundDuration":88235,"Delta":177761965},{"NoteNumber":66,"Velocity":49,"Duration":88235,"SoundDuration":88235,"Delta":177938435},{"NoteNumber":76,"Velocity":58,"Duration":88235,"SoundDuration":88235,"Delta":177938435},{"NoteNumber":76,"Velocity":59,"Duration":87719,"SoundDuration":87719,"Delta":178114906},{"NoteNumber":66,"Velocity":49,"Duration":87719,"SoundDuration":87719,"Delta":178114906},{"NoteNumber":76,"Velocity":67,"Duration":87463,"SoundDuration":87463,"Delta":178290344},{"NoteNumber":66,"Velocity":56,"Duration":87463,"SoundDuration":87463,"Delta":178290344},{"NoteNumber":76,"Velocity":56,"Duration":86455,"SoundDuration":86455,"Delta":178465271},{"NoteNumber":66,"Velocity":47,"Duration":86455,"SoundDuration":86455,"Delta":178465271},{"NoteNumber":66,"Velocity":46,"Duration":86455,"SoundDuration":86455,"Delta":178638182},{"NoteNumber":76,"Velocity":55,"Duration":86455,"SoundDuration":86455,"Delta":178638182},{"NoteNumber":90,"Velocity":67,"Duration":568512,"SoundDuration":568512,"Delta":178811092},{"NoteNumber":78,"Velocity":57,"Duration":568512,"SoundDuration":568512,"Delta":178811092},{"NoteNumber":66,"Velocity":53,"Duration":87976,"SoundDuration":87976,"Delta":178811092},{"NoteNumber":75,"Velocity":63,"Duration":87976,"SoundDuration":87976,"Delta":178811092},{"NoteNumber":75,"Velocity":57,"Duration":87976,"SoundDuration":87976,"Delta":178987045},{"NoteNumber":66,"Velocity":48,"Duration":87976,"SoundDuration":87976,"Delta":178987045},{"NoteNumber":75,"Velocity":56,"Duration":108303,"SoundDuration":108303,"Delta":179162998},{"NoteNumber":66,"Velocity":47,"Duration":108303,"SoundDuration":108303,"Delta":179162998},{"NoteNumber":76,"Velocity":63,"Duration":538921,"SoundDuration":538921,"Delta":179379605},{"NoteNumber":88,"Velocity":63,"Duration":538921,"SoundDuration":538921,"Delta":179379605},{"NoteNumber":73,"Velocity":58,"Duration":89820,"SoundDuration":89820,"Delta":179379605},{"NoteNumber":66,"Velocity":49,"Duration":89820,"SoundDuration":89820,"Delta":179379605},{"NoteNumber":66,"Velocity":43,"Duration":89820,"SoundDuration":89820,"Delta":179559245},{"NoteNumber":73,"Velocity":51,"Duration":89820,"SoundDuration":89820,"Delta":179559245},{"NoteNumber":66,"Velocity":42,"Duration":89820,"SoundDuration":89820,"Delta":179738886},{"NoteNumber":73,"Velocity":50,"Duration":89820,"SoundDuration":89820,"Delta":179738886},{"NoteNumber":73,"Velocity":49,"Duration":538921,"SoundDuration":538921,"Delta":179918526},{"NoteNumber":85,"Velocity":58,"Duration":538921,"SoundDuration":538921,"Delta":179918526},{"NoteNumber":66,"Velocity":41,"Duration":89820,"SoundDuration":89820,"Delta":179918526},{"NoteNumber":64,"Velocity":41,"Duration":89820,"SoundDuration":89820,"Delta":179918526},{"NoteNumber":70,"Velocity":48,"Duration":89820,"SoundDuration":89820,"Delta":179918526},{"NoteNumber":64,"Velocity":36,"Duration":89820,"SoundDuration":89820,"Delta":180098167},{"NoteNumber":70,"Velocity":43,"Duration":89820,"SoundDuration":89820,"Delta":180098167},{"NoteNumber":66,"Velocity":36,"Duration":89820,"SoundDuration":89820,"Delta":180098167},{"NoteNumber":64,"Velocity":35,"Duration":89820,"SoundDuration":89820,"Delta":180277807},{"NoteNumber":70,"Velocity":42,"Duration":89820,"SoundDuration":89820,"Delta":180277807},{"NoteNumber":66,"Velocity":35,"Duration":89820,"SoundDuration":89820,"Delta":180277807},{"NoteNumber":75,"Velocity":54,"Duration":368098,"SoundDuration":368098,"Delta":180457448},{"NoteNumber":87,"Velocity":54,"Duration":1093174,"SoundDuration":1093174,"Delta":180457448},{"NoteNumber":66,"Velocity":46,"Duration":92024,"SoundDuration":92024,"Delta":180457448},{"NoteNumber":63,"Velocity":38,"Duration":549366,"SoundDuration":549366,"Delta":180457448},{"NoteNumber":68,"Velocity":31,"Duration":92024,"SoundDuration":92024,"Delta":180549472},{"NoteNumber":66,"Velocity":36,"Duration":92024,"SoundDuration":92024,"Delta":180641497},{"NoteNumber":68,"Velocity":32,"Duration":92024,"SoundDuration":92024,"Delta":180733521},{"NoteNumber":80,"Velocity":52,"Duration":181268,"SoundDuration":181268,"Delta":180825546},{"NoteNumber":66,"Velocity":36,"Duration":90634,"SoundDuration":90634,"Delta":180825546},{"NoteNumber":68,"Velocity":33,"Duration":90634,"SoundDuration":90634,"Delta":180916180},{"NoteNumber":78,"Velocity":62,"Duration":362538,"SoundDuration":362538,"Delta":181006815},{"NoteNumber":66,"Velocity":48,"Duration":90634,"SoundDuration":90634,"Delta":181006815},{"NoteNumber":59,"Velocity":41,"Duration":543807,"SoundDuration":543807,"Delta":181006815},{"NoteNumber":68,"Velocity":35,"Duration":90634,"SoundDuration":90634,"Delta":181097449},{"NoteNumber":66,"Velocity":40,"Duration":90634,"SoundDuration":90634,"Delta":181188084},{"NoteNumber":68,"Velocity":35,"Duration":90634,"SoundDuration":90634,"Delta":181278718},{"NoteNumber":75,"Velocity":55,"Duration":181269,"SoundDuration":181269,"Delta":181369353},{"NoteNumber":66,"Velocity":42,"Duration":90634,"SoundDuration":90634,"Delta":181369353},{"NoteNumber":68,"Velocity":36,"Duration":90634,"SoundDuration":90634,"Delta":181459987},{"NoteNumber":85,"Velocity":62,"Duration":1093174,"SoundDuration":1093174,"Delta":181550622},{"NoteNumber":73,"Velocity":62,"Duration":368098,"SoundDuration":368098,"Delta":181550622},{"NoteNumber":66,"Velocity":52,"Duration":92024,"SoundDuration":92024,"Delta":181550622},{"NoteNumber":58,"Velocity":43,"Duration":549366,"SoundDuration":549366,"Delta":181550622},{"NoteNumber":68,"Velocity":35,"Duration":92024,"SoundDuration":92024,"Delta":181642646},{"NoteNumber":66,"Velocity":39,"Duration":92024,"SoundDuration":92024,"Delta":181734671},{"NoteNumber":68,"Velocity":34,"Duration":92024,"SoundDuration":92024,"Delta":181826695},{"NoteNumber":80,"Velocity":54,"Duration":181268,"SoundDuration":181268,"Delta":181918720},{"NoteNumber":66,"Velocity":37,"Duration":90634,"SoundDuration":90634,"Delta":181918720},{"NoteNumber":68,"Velocity":33,"Duration":90634,"SoundDuration":90634,"Delta":182009354},{"NoteNumber":78,"Velocity":61,"Duration":362538,"SoundDuration":362538,"Delta":182099989},{"NoteNumber":66,"Velocity":47,"Duration":90634,"SoundDuration":90634,"Delta":182099989},{"NoteNumber":64,"Velocity":41,"Duration":543807,"SoundDuration":543807,"Delta":182099989},{"NoteNumber":68,"Velocity":34,"Duration":90634,"SoundDuration":90634,"Delta":182190623},{"NoteNumber":66,"Velocity":37,"Duration":90634,"SoundDuration":90634,"Delta":182281258},{"NoteNumber":68,"Velocity":32,"Duration":90634,"SoundDuration":90634,"Delta":182371892},{"NoteNumber":73,"Velocity":49,"Duration":181269,"SoundDuration":181269,"Delta":182462527},{"NoteNumber":66,"Velocity":38,"Duration":90634,"SoundDuration":90634,"Delta":182462527},{"NoteNumber":68,"Velocity":31,"Duration":90634,"SoundDuration":90634,"Delta":182553161},{"NoteNumber":87,"Velocity":41,"Duration":549366,"SoundDuration":549366,"Delta":182643796},{"NoteNumber":78,"Velocity":50,"Duration":92024,"SoundDuration":92024,"Delta":182643796},{"NoteNumber":59,"Velocity":48,"Duration":1093174,"SoundDuration":1093174,"Delta":182643796},{"NoteNumber":63,"Velocity":48,"Duration":368098,"SoundDuration":368098,"Delta":182643796},{"NoteNumber":80,"Velocity":34,"Duration":92024,"SoundDuration":92024,"Delta":182735820},{"NoteNumber":78,"Velocity":39,"Duration":92024,"SoundDuration":92024,"Delta":182827845},{"NoteNumber":80,"Velocity":35,"Duration":92024,"SoundDuration":92024,"Delta":182919869},{"NoteNumber":78,"Velocity":39,"Duration":90634,"SoundDuration":90634,"Delta":183011894},{"NoteNumber":68,"Velocity":45,"Duration":181268,"SoundDuration":181268,"Delta":183011894},{"NoteNumber":80,"Velocity":36,"Duration":90634,"SoundDuration":90634,"Delta":183102528},{"NoteNumber":78,"Velocity":52,"Duration":90634,"SoundDuration":90634,"Delta":183193163},{"NoteNumber":83,"Velocity":45,"Duration":543807,"SoundDuration":543807,"Delta":183193163},{"NoteNumber":66,"Velocity":54,"Duration":362538,"SoundDuration":362538,"Delta":183193163},{"NoteNumber":80,"Velocity":38,"Duration":90634,"SoundDuration":90634,"Delta":183283797},{"NoteNumber":78,"Velocity":44,"Duration":90634,"SoundDuration":90634,"Delta":183374432},{"NoteNumber":80,"Velocity":38,"Duration":90634,"SoundDuration":90634,"Delta":183465066},{"NoteNumber":78,"Velocity":46,"Duration":90634,"SoundDuration":90634,"Delta":183555701},{"NoteNumber":63,"Velocity":49,"Duration":181269,"SoundDuration":181269,"Delta":183555701},{"NoteNumber":80,"Velocity":39,"Duration":90634,"SoundDuration":90634,"Delta":183646335},{"NoteNumber":82,"Velocity":47,"Duration":549366,"SoundDuration":549366,"Delta":183736970},{"NoteNumber":78,"Velocity":57,"Duration":92024,"SoundDuration":92024,"Delta":183736970},{"NoteNumber":54,"Velocity":46,"Duration":549366,"SoundDuration":549366,"Delta":183736970},{"NoteNumber":61,"Velocity":55,"Duration":368098,"SoundDuration":368098,"Delta":183736970},{"NoteNumber":80,"Velocity":38,"Duration":92024,"SoundDuration":92024,"Delta":183828994},{"NoteNumber":78,"Velocity":42,"Duration":92024,"SoundDuration":92024,"Delta":183921019},{"NoteNumber":80,"Velocity":37,"Duration":92024,"SoundDuration":92024,"Delta":184013043},{"NoteNumber":78,"Velocity":40,"Duration":90634,"SoundDuration":90634,"Delta":184105068},{"NoteNumber":68,"Velocity":46,"Duration":181268,"SoundDuration":181268,"Delta":184105068},{"NoteNumber":80,"Velocity":36,"Duration":90634,"SoundDuration":90634,"Delta":184195702},{"NoteNumber":90,"Velocity":45,"Duration":550625,"SoundDuration":550625,"Delta":184286337},{"NoteNumber":78,"Velocity":51,"Duration":90634,"SoundDuration":90634,"Delta":184286337},{"NoteNumber":52,"Velocity":45,"Duration":550625,"SoundDuration":550625,"Delta":184286337},{"NoteNumber":66,"Velocity":53,"Duration":362538,"SoundDuration":362538,"Delta":184286337},{"NoteNumber":80,"Velocity":37,"Duration":90634,"SoundDuration":90634,"Delta":184376971},{"NoteNumber":78,"Velocity":40,"Duration":90634,"SoundDuration":90634,"Delta":184467606},{"NoteNumber":80,"Velocity":35,"Duration":90634,"SoundDuration":90634,"Delta":184558240},{"NoteNumber":78,"Velocity":41,"Duration":94043,"SoundDuration":94043,"Delta":184648875},{"NoteNumber":61,"Velocity":44,"Duration":188087,"SoundDuration":188087,"Delta":184648875},{"NoteNumber":80,"Velocity":34,"Duration":94043,"SoundDuration":94043,"Delta":184742919},{"NoteNumber":90,"Velocity":50,"Duration":542631,"SoundDuration":542631,"Delta":184836963},{"NoteNumber":78,"Velocity":45,"Duration":542631,"SoundDuration":542631,"Delta":184836963},{"NoteNumber":51,"Velocity":35,"Duration":90634,"SoundDuration":90634,"Delta":184836963},{"NoteNumber":59,"Velocity":27,"Duration":90634,"SoundDuration":90634,"Delta":184927597},{"NoteNumber":51,"Velocity":31,"Duration":90634,"SoundDuration":90634,"Delta":185018232},{"NoteNumber":59,"Velocity":26,"Duration":90561,"SoundDuration":90561,"Delta":185108866},{"NoteNumber":51,"Velocity":31,"Duration":90090,"SoundDuration":90090,"Delta":185199428},{"NoteNumber":59,"Velocity":27,"Duration":90076,"SoundDuration":90076,"Delta":185289518},{"NoteNumber":78,"Velocity":47,"Duration":542084,"SoundDuration":542084,"Delta":185379595},{"NoteNumber":66,"Velocity":40,"Duration":542084,"SoundDuration":542084,"Delta":185379595},{"NoteNumber":50,"Velocity":37,"Duration":89820,"SoundDuration":89820,"Delta":185379595},{"NoteNumber":60,"Velocity":27,"Duration":89784,"SoundDuration":89784,"Delta":185469415},{"NoteNumber":50,"Velocity":31,"Duration":92307,"SoundDuration":92307,"Delta":185559199},{"NoteNumber":60,"Velocity":27,"Duration":91678,"SoundDuration":91678,"Delta":185651507},{"NoteNumber":50,"Velocity":31,"Duration":89285,"SoundDuration":89285,"Delta":185743185},{"NoteNumber":60,"Velocity":27,"Duration":89208,"SoundDuration":89208,"Delta":185832471},{"NoteNumber":66,"Velocity":41,"Duration":537313,"SoundDuration":537313,"Delta":185921680},{"NoteNumber":74,"Velocity":41,"Duration":537313,"SoundDuration":537313,"Delta":185921680},{"NoteNumber":78,"Velocity":46,"Duration":537313,"SoundDuration":537313,"Delta":185921680},{"NoteNumber":48,"Velocity":35,"Duration":89552,"SoundDuration":89552,"Delta":185921680},{"NoteNumber":57,"Velocity":27,"Duration":89552,"SoundDuration":89552,"Delta":186011232},{"NoteNumber":48,"Velocity":31,"Duration":89552,"SoundDuration":89552,"Delta":186100784},{"NoteNumber":57,"Velocity":26,"Duration":89552,"SoundDuration":89552,"Delta":186190336},{"NoteNumber":48,"Velocity":31,"Duration":89552,"SoundDuration":89552,"Delta":186279889},{"NoteNumber":57,"Velocity":27,"Duration":89552,"SoundDuration":89552,"Delta":186369441},{"NoteNumber":79,"Velocity":45,"Duration":357143,"SoundDuration":357143,"Delta":186458993},{"NoteNumber":67,"Velocity":45,"Duration":357143,"SoundDuration":357143,"Delta":186458993},{"NoteNumber":74,"Velocity":45,"Duration":357143,"SoundDuration":357143,"Delta":186458993},{"NoteNumber":47,"Velocity":37,"Duration":89285,"SoundDuration":89285,"Delta":186458993},{"NoteNumber":55,"Velocity":27,"Duration":89285,"SoundDuration":89285,"Delta":186548279},{"NoteNumber":47,"Velocity":31,"Duration":89285,"SoundDuration":89285,"Delta":186637565},{"NoteNumber":55,"Velocity":27,"Duration":89285,"SoundDuration":89285,"Delta":186726850},{"NoteNumber":81,"Velocity":43,"Duration":178571,"SoundDuration":178571,"Delta":186816136},{"NoteNumber":69,"Velocity":43,"Duration":178571,"SoundDuration":178571,"Delta":186816136},{"NoteNumber":74,"Velocity":43,"Duration":178571,"SoundDuration":178571,"Delta":186816136},{"NoteNumber":45,"Velocity":31,"Duration":89285,"SoundDuration":89285,"Delta":186816136},{"NoteNumber":54,"Velocity":27,"Duration":89285,"SoundDuration":89285,"Delta":186905422},{"NoteNumber":74,"Velocity":54,"Duration":360373,"SoundDuration":360373,"Delta":186994708},{"NoteNumber":71,"Velocity":54,"Duration":360373,"SoundDuration":360373,"Delta":186994708},{"NoteNumber":83,"Velocity":54,"Duration":360373,"SoundDuration":360373,"Delta":186994708},{"NoteNumber":43,"Velocity":36,"Duration":181268,"SoundDuration":181268,"Delta":186994708},{"NoteNumber":55,"Velocity":36,"Duration":181268,"SoundDuration":181268,"Delta":186994708},{"NoteNumber":59,"Velocity":38,"Duration":89552,"SoundDuration":89552,"Delta":187175977},{"NoteNumber":55,"Velocity":32,"Duration":89552,"SoundDuration":89552,"Delta":187175977},{"NoteNumber":62,"Velocity":39,"Duration":89552,"SoundDuration":89552,"Delta":187265529},{"NoteNumber":76,"Velocity":51,"Duration":179104,"SoundDuration":179104,"Delta":187355081},{"NoteNumber":88,"Velocity":51,"Duration":179104,"SoundDuration":179104,"Delta":187355081},{"NoteNumber":59,"Velocity":40,"Duration":89552,"SoundDuration":89552,"Delta":187355081},{"NoteNumber":55,"Velocity":34,"Duration":89552,"SoundDuration":89552,"Delta":187355081},{"NoteNumber":62,"Velocity":36,"Duration":89552,"SoundDuration":89552,"Delta":187444633},{"NoteNumber":74,"Velocity":58,"Duration":358209,"SoundDuration":358209,"Delta":187534186},{"NoteNumber":86,"Velocity":58,"Duration":358209,"SoundDuration":358209,"Delta":187534186},{"NoteNumber":59,"Velocity":42,"Duration":89552,"SoundDuration":89552,"Delta":187534186},{"NoteNumber":55,"Velocity":35,"Duration":89552,"SoundDuration":89552,"Delta":187534186},{"NoteNumber":62,"Velocity":40,"Duration":89552,"SoundDuration":89552,"Delta":187623738},{"NoteNumber":59,"Velocity":44,"Duration":89552,"SoundDuration":89552,"Delta":187713290},{"NoteNumber":55,"Velocity":37,"Duration":89552,"SoundDuration":89552,"Delta":187713290},{"NoteNumber":62,"Velocity":42,"Duration":89552,"SoundDuration":89552,"Delta":187802842},{"NoteNumber":83,"Velocity":50,"Duration":189274,"SoundDuration":189274,"Delta":187892395},{"NoteNumber":71,"Velocity":50,"Duration":189274,"SoundDuration":189274,"Delta":187892395},{"NoteNumber":59,"Velocity":46,"Duration":94637,"SoundDuration":94637,"Delta":187892395},{"NoteNumber":55,"Velocity":39,"Duration":94637,"SoundDuration":94637,"Delta":187892395},{"NoteNumber":62,"Velocity":44,"Duration":94637,"SoundDuration":94637,"Delta":187987032},{"NoteNumber":69,"Velocity":62,"Duration":357143,"SoundDuration":357143,"Delta":188081669},{"NoteNumber":81,"Velocity":62,"Duration":357143,"SoundDuration":357143,"Delta":188081669},{"NoteNumber":54,"Velocity":40,"Duration":89285,"SoundDuration":89285,"Delta":188081669},{"NoteNumber":60,"Velocity":48,"Duration":89285,"SoundDuration":89285,"Delta":188081669},{"NoteNumber":62,"Velocity":42,"Duration":89285,"SoundDuration":89285,"Delta":188170955},{"NoteNumber":54,"Velocity":35,"Duration":89285,"SoundDuration":89285,"Delta":188260241},{"NoteNumber":60,"Velocity":42,"Duration":89285,"SoundDuration":89285,"Delta":188260241},{"NoteNumber":62,"Velocity":42,"Duration":89285,"SoundDuration":89285,"Delta":188349526},{"NoteNumber":88,"Velocity":50,"Duration":178571,"SoundDuration":178571,"Delta":188438812},{"NoteNumber":76,"Velocity":50,"Duration":178571,"SoundDuration":178571,"Delta":188438812},{"NoteNumber":54,"Velocity":40,"Duration":89285,"SoundDuration":89285,"Delta":188438812},{"NoteNumber":60,"Velocity":48,"Duration":89285,"SoundDuration":89285,"Delta":188438812},{"NoteNumber":62,"Velocity":44,"Duration":89285,"SoundDuration":89285,"Delta":188528098},{"NoteNumber":86,"Velocity":58,"Duration":357142,"SoundDuration":357142,"Delta":188617384},{"NoteNumber":74,"Velocity":58,"Duration":357142,"SoundDuration":357142,"Delta":188617384},{"NoteNumber":54,"Velocity":39,"Duration":89285,"SoundDuration":89285,"Delta":188617384},{"NoteNumber":60,"Velocity":46,"Duration":89285,"SoundDuration":89285,"Delta":188617384},{"NoteNumber":62,"Velocity":41,"Duration":89285,"SoundDuration":89285,"Delta":188706669},{"NoteNumber":54,"Velocity":37,"Duration":89285,"SoundDuration":89285,"Delta":188795955},{"NoteNumber":60,"Velocity":44,"Duration":89285,"SoundDuration":89285,"Delta":188795955},{"NoteNumber":62,"Velocity":39,"Duration":89285,"SoundDuration":89285,"Delta":188885241},{"NoteNumber":81,"Velocity":53,"Duration":192925,"SoundDuration":192925,"Delta":188974527},{"NoteNumber":69,"Velocity":53,"Duration":192925,"SoundDuration":192925,"Delta":188974527},{"NoteNumber":54,"Velocity":35,"Duration":96462,"SoundDuration":96462,"Delta":188974527},{"NoteNumber":60,"Velocity":42,"Duration":96462,"SoundDuration":96462,"Delta":188974527},{"NoteNumber":62,"Velocity":36,"Duration":96462,"SoundDuration":96462,"Delta":189070990},{"NoteNumber":83,"Velocity":38,"Duration":548278,"SoundDuration":548278,"Delta":189167453},{"NoteNumber":74,"Velocity":46,"Duration":92024,"SoundDuration":92024,"Delta":189167453},{"NoteNumber":55,"Velocity":48,"Duration":1088818,"SoundDuration":1088818,"Delta":189167453},{"NoteNumber":59,"Velocity":48,"Duration":368098,"SoundDuration":368098,"Delta":189167453},{"NoteNumber":76,"Velocity":31,"Duration":92024,"SoundDuration":92024,"Delta":189259477},{"NoteNumber":74,"Velocity":36,"Duration":92024,"SoundDuration":92024,"Delta":189351502},{"NoteNumber":76,"Velocity":32,"Duration":92024,"SoundDuration":92024,"Delta":189443526},{"NoteNumber":74,"Velocity":36,"Duration":90090,"SoundDuration":90090,"Delta":189535551},{"NoteNumber":64,"Velocity":45,"Duration":180180,"SoundDuration":180180,"Delta":189535551},{"NoteNumber":76,"Velocity":33,"Duration":90090,"SoundDuration":90090,"Delta":189625641},{"NoteNumber":74,"Velocity":48,"Duration":90090,"SoundDuration":90090,"Delta":189715731},{"NoteNumber":79,"Velocity":41,"Duration":540539,"SoundDuration":540539,"Delta":189715731},{"NoteNumber":62,"Velocity":54,"Duration":360359,"SoundDuration":360359,"Delta":189715731},{"NoteNumber":76,"Velocity":35,"Duration":90089,"SoundDuration":90089,"Delta":189805821},{"NoteNumber":74,"Velocity":40,"Duration":90090,"SoundDuration":90090,"Delta":189895911},{"NoteNumber":76,"Velocity":35,"Duration":90090,"SoundDuration":90090,"Delta":189986001},{"NoteNumber":74,"Velocity":42,"Duration":90090,"SoundDuration":90090,"Delta":190076091},{"NoteNumber":59,"Velocity":49,"Duration":180180,"SoundDuration":180180,"Delta":190076091},{"NoteNumber":76,"Velocity":36,"Duration":90090,"SoundDuration":90090,"Delta":190166181},{"NoteNumber":78,"Velocity":43,"Duration":549366,"SoundDuration":549366,"Delta":190256271},{"NoteNumber":74,"Velocity":52,"Duration":92024,"SoundDuration":92024,"Delta":190256271},{"NoteNumber":50,"Velocity":46,"Duration":1096735,"SoundDuration":1096735,"Delta":190256271},{"NoteNumber":57,"Velocity":55,"Duration":368098,"SoundDuration":368098,"Delta":190256271},{"NoteNumber":76,"Velocity":35,"Duration":92024,"SoundDuration":92024,"Delta":190348295},{"NoteNumber":74,"Velocity":39,"Duration":92024,"SoundDuration":92024,"Delta":190440320},{"NoteNumber":76,"Velocity":34,"Duration":92024,"SoundDuration":92024,"Delta":190532344},{"NoteNumber":74,"Velocity":37,"Duration":90634,"SoundDuration":90634,"Delta":190624369},{"NoteNumber":64,"Velocity":46,"Duration":181268,"SoundDuration":181268,"Delta":190624369},{"NoteNumber":76,"Velocity":33,"Duration":90634,"SoundDuration":90634,"Delta":190715003},{"NoteNumber":84,"Velocity":41,"Duration":547369,"SoundDuration":547369,"Delta":190805638},{"NoteNumber":74,"Velocity":47,"Duration":89820,"SoundDuration":89820,"Delta":190805638},{"NoteNumber":62,"Velocity":53,"Duration":359281,"SoundDuration":359281,"Delta":190805638},{"NoteNumber":76,"Velocity":34,"Duration":89820,"SoundDuration":89820,"Delta":190895458},{"NoteNumber":74,"Velocity":37,"Duration":89820,"SoundDuration":89820,"Delta":190985278},{"NoteNumber":76,"Velocity":32,"Duration":89820,"SoundDuration":89820,"Delta":191075098},{"NoteNumber":74,"Velocity":38,"Duration":188087,"SoundDuration":188087,"Delta":191164919},{"NoteNumber":57,"Velocity":44,"Duration":188087,"SoundDuration":188087,"Delta":191164919},{"NoteNumber":74,"Velocity":42,"Duration":183485,"SoundDuration":183485,"Delta":191353007},{"NoteNumber":83,"Velocity":50,"Duration":183485,"SoundDuration":183485,"Delta":191353007},{"NoteNumber":62,"Velocity":44,"Duration":366972,"SoundDuration":366972,"Delta":191353007},{"NoteNumber":59,"Velocity":37,"Duration":366972,"SoundDuration":366972,"Delta":191353007},{"NoteNumber":55,"Velocity":37,"Duration":366972,"SoundDuration":366972,"Delta":191353007},{"NoteNumber":71,"Velocity":44,"Duration":183486,"SoundDuration":183486,"Delta":191536493},{"NoteNumber":86,"Velocity":50,"Duration":93167,"SoundDuration":93167,"Delta":191719979},{"NoteNumber":67,"Velocity":42,"Duration":93167,"SoundDuration":93167,"Delta":191719979},{"NoteNumber":86,"Velocity":54,"Duration":181817,"SoundDuration":181817,"Delta":191906314},{"NoteNumber":66,"Velocity":45,"Duration":181817,"SoundDuration":181817,"Delta":191906314},{"NoteNumber":83,"Velocity":46,"Duration":181818,"SoundDuration":181818,"Delta":192088132},{"NoteNumber":67,"Velocity":39,"Duration":181818,"SoundDuration":181818,"Delta":192088132},{"NoteNumber":71,"Velocity":38,"Duration":94043,"SoundDuration":94043,"Delta":192269950},{"NoteNumber":79,"Velocity":45,"Duration":94043,"SoundDuration":94043,"Delta":192269950},{"NoteNumber":62,"Velocity":44,"Duration":94043,"SoundDuration":94043,"Delta":192269950},{"NoteNumber":62,"Velocity":44,"Duration":182370,"SoundDuration":182370,"Delta":192458038},{"NoteNumber":71,"Velocity":46,"Duration":182371,"SoundDuration":182371,"Delta":192640409},{"NoteNumber":59,"Velocity":38,"Duration":182371,"SoundDuration":182371,"Delta":192640409},{"NoteNumber":74,"Velocity":46,"Duration":185758,"SoundDuration":185758,"Delta":192822780},{"NoteNumber":55,"Velocity":38,"Duration":185758,"SoundDuration":185758,"Delta":192822780},{"NoteNumber":79,"Velocity":50,"Duration":180723,"SoundDuration":180723,"Delta":193008539},{"NoteNumber":53,"Velocity":44,"Duration":180723,"SoundDuration":180723,"Delta":193008539},{"NoteNumber":83,"Velocity":50,"Duration":180723,"SoundDuration":180723,"Delta":193189262},{"NoteNumber":50,"Velocity":44,"Duration":180723,"SoundDuration":180723,"Delta":193189262},{"NoteNumber":79,"Velocity":43,"Duration":93457,"SoundDuration":93457,"Delta":193369985},{"NoteNumber":86,"Velocity":53,"Duration":93457,"SoundDuration":93457,"Delta":193369985},{"NoteNumber":47,"Velocity":44,"Duration":93457,"SoundDuration":93457,"Delta":193369985},{"NoteNumber":88,"Velocity":57,"Duration":361446,"SoundDuration":361446,"Delta":193556901},{"NoteNumber":79,"Velocity":45,"Duration":180723,"SoundDuration":180723,"Delta":193556901},{"NoteNumber":48,"Velocity":44,"Duration":361446,"SoundDuration":361446,"Delta":193556901},{"NoteNumber":76,"Velocity":46,"Duration":180723,"SoundDuration":180723,"Delta":193737624},{"NoteNumber":72,"Velocity":46,"Duration":186335,"SoundDuration":186335,"Delta":193918347},{"NoteNumber":67,"Velocity":40,"Duration":184006,"SoundDuration":184006,"Delta":193918347},{"NoteNumber":71,"Velocity":53,"Duration":181817,"SoundDuration":181817,"Delta":194104682},{"NoteNumber":67,"Velocity":44,"Duration":181817,"SoundDuration":181817,"Delta":194104682},{"NoteNumber":72,"Velocity":46,"Duration":181818,"SoundDuration":181818,"Delta":194286500},{"NoteNumber":64,"Velocity":40,"Duration":181818,"SoundDuration":181818,"Delta":194286500},{"NoteNumber":76,"Velocity":46,"Duration":187500,"SoundDuration":187500,"Delta":194468318},{"NoteNumber":55,"Velocity":34,"Duration":185937,"SoundDuration":185937,"Delta":194468318},{"NoteNumber":60,"Velocity":40,"Duration":185937,"SoundDuration":185937,"Delta":194468318},{"NoteNumber":55,"Velocity":44,"Duration":183485,"SoundDuration":183485,"Delta":194655818},{"NoteNumber":79,"Velocity":50,"Duration":182370,"SoundDuration":182370,"Delta":194839304},{"NoteNumber":52,"Velocity":40,"Duration":182370,"SoundDuration":182370,"Delta":194839304},{"NoteNumber":84,"Velocity":54,"Duration":186335,"SoundDuration":186335,"Delta":195021675},{"NoteNumber":48,"Velocity":40,"Duration":186335,"SoundDuration":186335,"Delta":195021675},{"NoteNumber":76,"Velocity":51,"Duration":363636,"SoundDuration":363636,"Delta":195208011},{"NoteNumber":88,"Velocity":60,"Duration":363636,"SoundDuration":363636,"Delta":195208011},{"NoteNumber":43,"Velocity":44,"Duration":181817,"SoundDuration":181817,"Delta":195208011},{"NoteNumber":36,"Velocity":39,"Duration":181818,"SoundDuration":181818,"Delta":195389829},{"NoteNumber":75,"Velocity":52,"Duration":194175,"SoundDuration":194175,"Delta":195571647},{"NoteNumber":87,"Velocity":62,"Duration":194175,"SoundDuration":194175,"Delta":195571647},{"NoteNumber":48,"Velocity":39,"Duration":192556,"SoundDuration":192556,"Delta":195571647},{"NoteNumber":87,"Velocity":60,"Duration":181817,"SoundDuration":181817,"Delta":195765822},{"NoteNumber":48,"Velocity":39,"Duration":90909,"SoundDuration":90909,"Delta":195765822},{"NoteNumber":51,"Velocity":31,"Duration":90908,"SoundDuration":90908,"Delta":195856731},{"NoteNumber":84,"Velocity":55,"Duration":181818,"SoundDuration":181818,"Delta":195947640},{"NoteNumber":56,"Velocity":31,"Duration":90909,"SoundDuration":90909,"Delta":195947640},{"NoteNumber":51,"Velocity":31,"Duration":90909,"SoundDuration":90909,"Delta":196038549},{"NoteNumber":80,"Velocity":55,"Duration":136363,"SoundDuration":136363,"Delta":196129458},{"NoteNumber":56,"Velocity":30,"Duration":90908,"SoundDuration":90908,"Delta":196129458},{"NoteNumber":51,"Velocity":32,"Duration":90909,"SoundDuration":90909,"Delta":196220367},{"NoteNumber":79,"Velocity":60,"Duration":181817,"SoundDuration":181817,"Delta":196311276},{"NoteNumber":49,"Velocity":41,"Duration":90908,"SoundDuration":90908,"Delta":196311276},{"NoteNumber":51,"Velocity":32,"Duration":90909,"SoundDuration":90909,"Delta":196402185},{"NoteNumber":82,"Velocity":57,"Duration":181817,"SoundDuration":181817,"Delta":196493094},{"NoteNumber":55,"Velocity":33,"Duration":90909,"SoundDuration":90909,"Delta":196493094},{"NoteNumber":58,"Velocity":33,"Duration":90908,"SoundDuration":90908,"Delta":196584003},{"NoteNumber":75,"Velocity":50,"Duration":141955,"SoundDuration":141955,"Delta":196674912},{"NoteNumber":87,"Velocity":57,"Duration":141955,"SoundDuration":141955,"Delta":196674912},{"NoteNumber":61,"Velocity":33,"Duration":94637,"SoundDuration":94637,"Delta":196674912},{"NoteNumber":55,"Velocity":33,"Duration":94637,"SoundDuration":94637,"Delta":196769549},{"NoteNumber":75,"Velocity":58,"Duration":181817,"SoundDuration":181817,"Delta":196864186},{"NoteNumber":56,"Velocity":40,"Duration":90909,"SoundDuration":90909,"Delta":196864186},{"NoteNumber":60,"Velocity":32,"Duration":90908,"SoundDuration":90908,"Delta":196955095},{"NoteNumber":72,"Velocity":50,"Duration":181818,"SoundDuration":181818,"Delta":197046004},{"NoteNumber":63,"Velocity":33,"Duration":90909,"SoundDuration":90909,"Delta":197046004},{"NoteNumber":60,"Velocity":33,"Duration":90909,"SoundDuration":90909,"Delta":197136913},{"NoteNumber":68,"Velocity":50,"Duration":136363,"SoundDuration":136363,"Delta":197227822},{"NoteNumber":63,"Velocity":34,"Duration":90908,"SoundDuration":90908,"Delta":197227822},{"NoteNumber":60,"Velocity":34,"Duration":90909,"SoundDuration":90909,"Delta":197318731},{"NoteNumber":75,"Velocity":58,"Duration":181817,"SoundDuration":181817,"Delta":197409640},{"NoteNumber":55,"Velocity":42,"Duration":90908,"SoundDuration":90908,"Delta":197409640},{"NoteNumber":58,"Velocity":33,"Duration":90909,"SoundDuration":90909,"Delta":197500549},{"NoteNumber":70,"Velocity":51,"Duration":181817,"SoundDuration":181817,"Delta":197591458},{"NoteNumber":63,"Velocity":33,"Duration":90909,"SoundDuration":90909,"Delta":197591458},{"NoteNumber":58,"Velocity":33,"Duration":90908,"SoundDuration":90908,"Delta":197682367},{"NoteNumber":82,"Velocity":51,"Duration":143770,"SoundDuration":143770,"Delta":197773276},{"NoteNumber":70,"Velocity":51,"Duration":143770,"SoundDuration":143770,"Delta":197773276},{"NoteNumber":55,"Velocity":33,"Duration":95846,"SoundDuration":95846,"Delta":197773276},{"NoteNumber":58,"Velocity":33,"Duration":95846,"SoundDuration":95846,"Delta":197869123},{"NoteNumber":70,"Velocity":50,"Duration":182370,"SoundDuration":182370,"Delta":197964970},{"NoteNumber":82,"Velocity":59,"Duration":182370,"SoundDuration":182370,"Delta":197964970},{"NoteNumber":51,"Velocity":41,"Duration":91185,"SoundDuration":91185,"Delta":197964970},{"NoteNumber":55,"Velocity":33,"Duration":91185,"SoundDuration":91185,"Delta":198056155},{"NoteNumber":67,"Velocity":43,"Duration":182371,"SoundDuration":182371,"Delta":198147341},{"NoteNumber":79,"Velocity":51,"Duration":182371,"SoundDuration":182371,"Delta":198147341},{"NoteNumber":58,"Velocity":34,"Duration":91185,"SoundDuration":91185,"Delta":198147341},{"NoteNumber":55,"Velocity":35,"Duration":91185,"SoundDuration":91185,"Delta":198238526},{"NoteNumber":63,"Velocity":39,"Duration":182370,"SoundDuration":182370,"Delta":198329712},{"NoteNumber":75,"Velocity":47,"Duration":182370,"SoundDuration":182370,"Delta":198329712},{"NoteNumber":58,"Velocity":35,"Duration":91185,"SoundDuration":91185,"Delta":198329712},{"NoteNumber":55,"Velocity":35,"Duration":91185,"SoundDuration":91185,"Delta":198420897},{"NoteNumber":62,"Velocity":45,"Duration":182371,"SoundDuration":182371,"Delta":198512083},{"NoteNumber":74,"Velocity":54,"Duration":182371,"SoundDuration":182371,"Delta":198512083},{"NoteNumber":46,"Velocity":43,"Duration":91185,"SoundDuration":91185,"Delta":198512083},{"NoteNumber":56,"Velocity":34,"Duration":91185,"SoundDuration":91185,"Delta":198603268},{"NoteNumber":77,"Velocity":49,"Duration":182370,"SoundDuration":182370,"Delta":198694454},{"NoteNumber":65,"Velocity":41,"Duration":182370,"SoundDuration":182370,"Delta":198694454},{"NoteNumber":58,"Velocity":34,"Duration":91185,"SoundDuration":91185,"Delta":198694454},{"NoteNumber":56,"Velocity":34,"Duration":91185,"SoundDuration":91185,"Delta":198785639},{"NoteNumber":82,"Velocity":50,"Duration":144230,"SoundDuration":144230,"Delta":198876825},{"NoteNumber":70,"Velocity":42,"Duration":144230,"SoundDuration":144230,"Delta":198876825},{"NoteNumber":58,"Velocity":34,"Duration":96153,"SoundDuration":96153,"Delta":198876825},{"NoteNumber":56,"Velocity":34,"Duration":96153,"SoundDuration":96153,"Delta":198972978},{"NoteNumber":70,"Velocity":46,"Duration":182927,"SoundDuration":182927,"Delta":199069132},{"NoteNumber":82,"Velocity":55,"Duration":182927,"SoundDuration":182927,"Delta":199069132},{"NoteNumber":51,"Velocity":42,"Duration":91463,"SoundDuration":91463,"Delta":199069132},{"NoteNumber":55,"Velocity":34,"Duration":91463,"SoundDuration":91463,"Delta":199160596},{"NoteNumber":67,"Velocity":43,"Duration":182927,"SoundDuration":182927,"Delta":199252059},{"NoteNumber":79,"Velocity":51,"Duration":182927,"SoundDuration":182927,"Delta":199252059},{"NoteNumber":58,"Velocity":36,"Duration":91463,"SoundDuration":91463,"Delta":199252059},{"NoteNumber":55,"Velocity":36,"Duration":91463,"SoundDuration":91463,"Delta":199343523},{"NoteNumber":63,"Velocity":43,"Duration":137195,"SoundDuration":137195,"Delta":199434986},{"NoteNumber":75,"Velocity":51,"Duration":137195,"SoundDuration":137195,"Delta":199434986},{"NoteNumber":58,"Velocity":36,"Duration":91463,"SoundDuration":91463,"Delta":199434986},{"NoteNumber":55,"Velocity":36,"Duration":91463,"SoundDuration":91463,"Delta":199526450},{"NoteNumber":63,"Velocity":47,"Duration":182927,"SoundDuration":182927,"Delta":199617913},{"NoteNumber":75,"Velocity":56,"Duration":182927,"SoundDuration":182927,"Delta":199617913},{"NoteNumber":58,"Velocity":45,"Duration":91463,"SoundDuration":91463,"Delta":199617913},{"NoteNumber":55,"Velocity":35,"Duration":91463,"SoundDuration":91463,"Delta":199709377},{"NoteNumber":79,"Velocity":48,"Duration":182927,"SoundDuration":182927,"Delta":199800840},{"NoteNumber":67,"Velocity":40,"Duration":182927,"SoundDuration":182927,"Delta":199800840},{"NoteNumber":58,"Velocity":35,"Duration":91463,"SoundDuration":91463,"Delta":199800840},{"NoteNumber":55,"Velocity":35,"Duration":91463,"SoundDuration":91463,"Delta":199892304},{"NoteNumber":84,"Velocity":58,"Duration":148515,"SoundDuration":148515,"Delta":199983767},{"NoteNumber":72,"Velocity":49,"Duration":148515,"SoundDuration":148515,"Delta":199983767},{"NoteNumber":52,"Velocity":35,"Duration":99009,"SoundDuration":99009,"Delta":199983767},{"NoteNumber":55,"Velocity":35,"Duration":99010,"SoundDuration":99010,"Delta":200082777},{"NoteNumber":72,"Velocity":53,"Duration":181817,"SoundDuration":181817,"Delta":200181787},{"NoteNumber":84,"Velocity":63,"Duration":181817,"SoundDuration":181817,"Delta":200181787},{"NoteNumber":53,"Velocity":43,"Duration":90909,"SoundDuration":90909,"Delta":200181787},{"NoteNumber":56,"Velocity":36,"Duration":90908,"SoundDuration":90908,"Delta":200272696},{"NoteNumber":68,"Velocity":48,"Duration":181818,"SoundDuration":181818,"Delta":200363605},{"NoteNumber":80,"Velocity":57,"Duration":181818,"SoundDuration":181818,"Delta":200363605},{"NoteNumber":60,"Velocity":37,"Duration":90909,"SoundDuration":90909,"Delta":200363605},{"NoteNumber":56,"Velocity":37,"Duration":90909,"SoundDuration":90909,"Delta":200454514},{"NoteNumber":65,"Velocity":48,"Duration":181817,"SoundDuration":181817,"Delta":200545423},{"NoteNumber":77,"Velocity":57,"Duration":181817,"SoundDuration":181817,"Delta":200545423},{"NoteNumber":60,"Velocity":37,"Duration":90908,"SoundDuration":90908,"Delta":200545423},{"NoteNumber":56,"Velocity":37,"Duration":90909,"SoundDuration":90909,"Delta":200636332},{"NoteNumber":64,"Velocity":53,"Duration":181817,"SoundDuration":181817,"Delta":200727241},{"NoteNumber":76,"Velocity":63,"Duration":181817,"SoundDuration":181817,"Delta":200727241},{"NoteNumber":48,"Velocity":46,"Duration":90908,"SoundDuration":90908,"Delta":200727241},{"NoteNumber":58,"Velocity":36,"Duration":90909,"SoundDuration":90909,"Delta":200818150},{"NoteNumber":67,"Velocity":48,"Duration":181817,"SoundDuration":181817,"Delta":200909059},{"NoteNumber":79,"Velocity":57,"Duration":181817,"SoundDuration":181817,"Delta":200909059},{"NoteNumber":60,"Velocity":36,"Duration":90909,"SoundDuration":90909,"Delta":200909059},{"NoteNumber":58,"Velocity":36,"Duration":90908,"SoundDuration":90908,"Delta":200999968},{"NoteNumber":72,"Velocity":52,"Duration":142856,"SoundDuration":142856,"Delta":201090877},{"NoteNumber":84,"Velocity":62,"Duration":142856,"SoundDuration":142856,"Delta":201090877},{"NoteNumber":60,"Velocity":36,"Duration":95237,"SoundDuration":95237,"Delta":201090877},{"NoteNumber":58,"Velocity":36,"Duration":95237,"SoundDuration":95237,"Delta":201186115},{"NoteNumber":84,"Velocity":73,"Duration":181817,"SoundDuration":181817,"Delta":201281353},{"NoteNumber":72,"Velocity":62,"Duration":181817,"SoundDuration":181817,"Delta":201281353},{"NoteNumber":53,"Velocity":44,"Duration":90909,"SoundDuration":90909,"Delta":201281353},{"NoteNumber":56,"Velocity":37,"Duration":90908,"SoundDuration":90908,"Delta":201372262},{"NoteNumber":68,"Velocity":50,"Duration":181818,"SoundDuration":181818,"Delta":201463171},{"NoteNumber":80,"Velocity":59,"Duration":181818,"SoundDuration":181818,"Delta":201463171},{"NoteNumber":60,"Velocity":38,"Duration":90909,"SoundDuration":90909,"Delta":201463171},{"NoteNumber":56,"Velocity":38,"Duration":90909,"SoundDuration":90909,"Delta":201554080},{"NoteNumber":77,"Velocity":59,"Duration":181817,"SoundDuration":181817,"Delta":201644989},{"NoteNumber":65,"Velocity":50,"Duration":181817,"SoundDuration":181817,"Delta":201644989},{"NoteNumber":60,"Velocity":38,"Duration":90908,"SoundDuration":90908,"Delta":201644989},{"NoteNumber":56,"Velocity":38,"Duration":90909,"SoundDuration":90909,"Delta":201735898},{"NoteNumber":74,"Velocity":67,"Duration":181817,"SoundDuration":181817,"Delta":201826807},{"NoteNumber":62,"Velocity":56,"Duration":181817,"SoundDuration":181817,"Delta":201826807},{"NoteNumber":58,"Velocity":47,"Duration":90908,"SoundDuration":90908,"Delta":201826807},{"NoteNumber":56,"Velocity":37,"Duration":90909,"SoundDuration":90909,"Delta":201917716},{"NoteNumber":65,"Velocity":51,"Duration":181817,"SoundDuration":181817,"Delta":202008625},{"NoteNumber":77,"Velocity":60,"Duration":181817,"SoundDuration":181817,"Delta":202008625},{"NoteNumber":58,"Velocity":37,"Duration":90909,"SoundDuration":90909,"Delta":202008625},{"NoteNumber":56,"Velocity":37,"Duration":90908,"SoundDuration":90908,"Delta":202099534},{"NoteNumber":70,"Velocity":51,"Duration":149501,"SoundDuration":149501,"Delta":202190443},{"NoteNumber":82,"Velocity":60,"Duration":149501,"SoundDuration":149501,"Delta":202190443},{"NoteNumber":50,"Velocity":37,"Duration":99667,"SoundDuration":99667,"Delta":202190443},{"NoteNumber":56,"Velocity":37,"Duration":99667,"SoundDuration":99667,"Delta":202290111},{"NoteNumber":70,"Velocity":56,"Duration":181817,"SoundDuration":181817,"Delta":202389779},{"NoteNumber":82,"Velocity":67,"Duration":181817,"SoundDuration":181817,"Delta":202389779},{"NoteNumber":51,"Velocity":46,"Duration":90909,"SoundDuration":90909,"Delta":202389779},{"NoteNumber":55,"Velocity":38,"Duration":90908,"SoundDuration":90908,"Delta":202480688},{"NoteNumber":67,"Velocity":49,"Duration":181818,"SoundDuration":181818,"Delta":202571597},{"NoteNumber":79,"Velocity":58,"Duration":181818,"SoundDuration":181818,"Delta":202571597},{"NoteNumber":58,"Velocity":39,"Duration":90909,"SoundDuration":90909,"Delta":202571597},{"NoteNumber":55,"Velocity":39,"Duration":90909,"SoundDuration":90909,"Delta":202662506},{"NoteNumber":63,"Velocity":49,"Duration":181817,"SoundDuration":181817,"Delta":202753415},{"NoteNumber":75,"Velocity":58,"Duration":181817,"SoundDuration":181817,"Delta":202753415},{"NoteNumber":58,"Velocity":39,"Duration":90908,"SoundDuration":90908,"Delta":202753415},{"NoteNumber":55,"Velocity":39,"Duration":90909,"SoundDuration":90909,"Delta":202844324},{"NoteNumber":60,"Velocity":51,"Duration":181817,"SoundDuration":181817,"Delta":202935233},{"NoteNumber":72,"Velocity":61,"Duration":181817,"SoundDuration":181817,"Delta":202935233},{"NoteNumber":44,"Velocity":49,"Duration":90908,"SoundDuration":90908,"Delta":202935233},{"NoteNumber":53,"Velocity":38,"Duration":90909,"SoundDuration":90909,"Delta":203026142},{"NoteNumber":77,"Velocity":56,"Duration":181817,"SoundDuration":181817,"Delta":203117051},{"NoteNumber":65,"Velocity":47,"Duration":181817,"SoundDuration":181817,"Delta":203117051},{"NoteNumber":56,"Velocity":38,"Duration":90909,"SoundDuration":90909,"Delta":203117051},{"NoteNumber":53,"Velocity":38,"Duration":90908,"SoundDuration":90908,"Delta":203207960},{"NoteNumber":80,"Velocity":56,"Duration":147058,"SoundDuration":147058,"Delta":203298869},{"NoteNumber":68,"Velocity":47,"Duration":147058,"SoundDuration":147058,"Delta":203298869},{"NoteNumber":56,"Velocity":38,"Duration":98039,"SoundDuration":98039,"Delta":203298869},{"NoteNumber":53,"Velocity":39,"Duration":98039,"SoundDuration":98039,"Delta":203396908},{"NoteNumber":70,"Velocity":65,"Duration":181268,"SoundDuration":181268,"Delta":203494947},{"NoteNumber":58,"Velocity":55,"Duration":181268,"SoundDuration":181268,"Delta":203494947},{"NoteNumber":46,"Velocity":47,"Duration":90634,"SoundDuration":90634,"Delta":203494947},{"NoteNumber":51,"Velocity":39,"Duration":90634,"SoundDuration":90634,"Delta":203585582},{"NoteNumber":75,"Velocity":59,"Duration":181269,"SoundDuration":181269,"Delta":203676216},{"NoteNumber":63,"Velocity":50,"Duration":181269,"SoundDuration":181269,"Delta":203676216},{"NoteNumber":55,"Velocity":40,"Duration":90634,"SoundDuration":90634,"Delta":203676216},{"NoteNumber":51,"Velocity":40,"Duration":90634,"SoundDuration":90634,"Delta":203766851},{"NoteNumber":79,"Velocity":60,"Duration":141955,"SoundDuration":141955,"Delta":203857485},{"NoteNumber":67,"Velocity":51,"Duration":141955,"SoundDuration":141955,"Delta":203857485},{"NoteNumber":55,"Velocity":40,"Duration":94637,"SoundDuration":94637,"Delta":203857485},{"NoteNumber":51,"Velocity":40,"Duration":94637,"SoundDuration":94637,"Delta":203952122},{"NoteNumber":70,"Velocity":67,"Duration":182370,"SoundDuration":182370,"Delta":204046760},{"NoteNumber":58,"Velocity":56,"Duration":182370,"SoundDuration":182370,"Delta":204046760},{"NoteNumber":46,"Velocity":50,"Duration":91185,"SoundDuration":91185,"Delta":204046760},{"NoteNumber":50,"Velocity":39,"Duration":91185,"SoundDuration":91185,"Delta":204137945},{"NoteNumber":74,"Velocity":60,"Duration":182371,"SoundDuration":182371,"Delta":204229131},{"NoteNumber":62,"Velocity":51,"Duration":182371,"SoundDuration":182371,"Delta":204229131},{"NoteNumber":53,"Velocity":39,"Duration":91185,"SoundDuration":91185,"Delta":204229131},{"NoteNumber":50,"Velocity":39,"Duration":91185,"SoundDuration":91185,"Delta":204320316},{"NoteNumber":68,"Velocity":60,"Duration":103806,"SoundDuration":103806,"Delta":204411502},{"NoteNumber":46,"Velocity":39,"Duration":207612,"SoundDuration":207612,"Delta":204411502},{"NoteNumber":58,"Velocity":39,"Duration":207612,"SoundDuration":207612,"Delta":204411502},{"NoteNumber":77,"Velocity":60,"Duration":103806,"SoundDuration":103806,"Delta":204515308},{"NoteNumber":46,"Velocity":57,"Duration":90909,"SoundDuration":90909,"Delta":204619114},{"NoteNumber":58,"Velocity":67,"Duration":90909,"SoundDuration":90909,"Delta":204619114},{"NoteNumber":79,"Velocity":55,"Duration":90908,"SoundDuration":90908,"Delta":204710023},{"NoteNumber":82,"Velocity":59,"Duration":90909,"SoundDuration":90909,"Delta":204800932},{"NoteNumber":43,"Velocity":49,"Duration":90909,"SoundDuration":90909,"Delta":204800932},{"NoteNumber":55,"Velocity":58,"Duration":90909,"SoundDuration":90909,"Delta":204800932},{"NoteNumber":87,"Velocity":55,"Duration":90909,"SoundDuration":90909,"Delta":204891841},{"NoteNumber":91,"Velocity":61,"Duration":90908,"SoundDuration":90908,"Delta":204982750},{"NoteNumber":39,"Velocity":44,"Duration":90908,"SoundDuration":90908,"Delta":204982750},{"NoteNumber":51,"Velocity":54,"Duration":90908,"SoundDuration":90908,"Delta":204982750},{"NoteNumber":79,"Velocity":55,"Duration":90909,"SoundDuration":90909,"Delta":205073659},{"NoteNumber":38,"Velocity":51,"Duration":90908,"SoundDuration":90908,"Delta":205164568},{"NoteNumber":50,"Velocity":62,"Duration":90908,"SoundDuration":90908,"Delta":205164568},{"NoteNumber":80,"Velocity":55,"Duration":90909,"SoundDuration":90909,"Delta":205255477},{"NoteNumber":82,"Velocity":59,"Duration":90909,"SoundDuration":90909,"Delta":205346386},{"NoteNumber":41,"Velocity":47,"Duration":90909,"SoundDuration":90909,"Delta":205346386},{"NoteNumber":53,"Velocity":56,"Duration":90909,"SoundDuration":90909,"Delta":205346386},{"NoteNumber":89,"Velocity":55,"Duration":90908,"SoundDuration":90908,"Delta":205437295},{"NoteNumber":92,"Velocity":61,"Duration":96153,"SoundDuration":96153,"Delta":205528204},{"NoteNumber":46,"Velocity":48,"Duration":96955,"SoundDuration":96955,"Delta":205528204},{"NoteNumber":58,"Velocity":57,"Duration":96955,"SoundDuration":96955,"Delta":205528204},{"NoteNumber":80,"Velocity":56,"Duration":96153,"SoundDuration":96153,"Delta":205624358},{"NoteNumber":46,"Velocity":52,"Duration":90909,"SoundDuration":90909,"Delta":205720512},{"NoteNumber":58,"Velocity":63,"Duration":90909,"SoundDuration":90909,"Delta":205720512},{"NoteNumber":79,"Velocity":56,"Duration":90908,"SoundDuration":90908,"Delta":205811421},{"NoteNumber":82,"Velocity":60,"Duration":90909,"SoundDuration":90909,"Delta":205902330},{"NoteNumber":43,"Velocity":49,"Duration":90909,"SoundDuration":90909,"Delta":205902330},{"NoteNumber":55,"Velocity":58,"Duration":90909,"SoundDuration":90909,"Delta":205902330},{"NoteNumber":87,"Velocity":56,"Duration":90909,"SoundDuration":90909,"Delta":205993239},{"NoteNumber":91,"Velocity":62,"Duration":90908,"SoundDuration":90908,"Delta":206084148},{"NoteNumber":39,"Velocity":49,"Duration":91666,"SoundDuration":91666,"Delta":206084148},{"NoteNumber":51,"Velocity":58,"Duration":91666,"SoundDuration":91666,"Delta":206084148},{"NoteNumber":79,"Velocity":56,"Duration":90909,"SoundDuration":90909,"Delta":206175057},{"NoteNumber":39,"Velocity":54,"Duration":90908,"SoundDuration":90908,"Delta":206265966},{"NoteNumber":51,"Velocity":64,"Duration":90908,"SoundDuration":90908,"Delta":206265966},{"NoteNumber":79,"Velocity":56,"Duration":90909,"SoundDuration":90909,"Delta":206356875},{"NoteNumber":82,"Velocity":61,"Duration":90909,"SoundDuration":90909,"Delta":206447784},{"NoteNumber":43,"Velocity":46,"Duration":90909,"SoundDuration":90909,"Delta":206447784},{"NoteNumber":55,"Velocity":55,"Duration":90909,"SoundDuration":90909,"Delta":206447784},{"NoteNumber":87,"Velocity":57,"Duration":90908,"SoundDuration":90908,"Delta":206538693},{"NoteNumber":91,"Velocity":63,"Duration":99009,"SoundDuration":99009,"Delta":206629602},{"NoteNumber":48,"Velocity":56,"Duration":99835,"SoundDuration":99835,"Delta":206629602},{"NoteNumber":60,"Velocity":66,"Duration":99835,"SoundDuration":99835,"Delta":206629602},{"NoteNumber":88,"Velocity":57,"Duration":99010,"SoundDuration":99010,"Delta":206728612},{"NoteNumber":48,"Velocity":60,"Duration":90634,"SoundDuration":90634,"Delta":206827622},{"NoteNumber":60,"Velocity":72,"Duration":90634,"SoundDuration":90634,"Delta":206827622},{"NoteNumber":80,"Velocity":57,"Duration":90634,"SoundDuration":90634,"Delta":206918256},{"NoteNumber":84,"Velocity":61,"Duration":90634,"SoundDuration":90634,"Delta":207008891},{"NoteNumber":44,"Velocity":55,"Duration":90634,"SoundDuration":90634,"Delta":207008891},{"NoteNumber":56,"Velocity":65,"Duration":90634,"SoundDuration":90634,"Delta":207008891},{"NoteNumber":89,"Velocity":57,"Duration":90634,"SoundDuration":90634,"Delta":207099525},{"NoteNumber":92,"Velocity":63,"Duration":90634,"SoundDuration":90634,"Delta":207190160},{"NoteNumber":41,"Velocity":55,"Duration":90634,"SoundDuration":90634,"Delta":207190160},{"NoteNumber":53,"Velocity":65,"Duration":90634,"SoundDuration":90634,"Delta":207190160},{"NoteNumber":80,"Velocity":57,"Duration":90634,"SoundDuration":90634,"Delta":207280794},{"NoteNumber":40,"Velocity":60,"Duration":90634,"SoundDuration":90634,"Delta":207371429},{"NoteNumber":52,"Velocity":72,"Duration":90634,"SoundDuration":90634,"Delta":207371429},{"NoteNumber":82,"Velocity":58,"Duration":90634,"SoundDuration":90634,"Delta":207462063},{"NoteNumber":84,"Velocity":62,"Duration":90634,"SoundDuration":90634,"Delta":207552698},{"NoteNumber":43,"Velocity":55,"Duration":90634,"SoundDuration":90634,"Delta":207552698},{"NoteNumber":55,"Velocity":65,"Duration":90634,"SoundDuration":90634,"Delta":207552698},{"NoteNumber":91,"Velocity":58,"Duration":90634,"SoundDuration":90634,"Delta":207643332},{"NoteNumber":94,"Velocity":64,"Duration":95237,"SoundDuration":95237,"Delta":207733967},{"NoteNumber":48,"Velocity":59,"Duration":96031,"SoundDuration":96031,"Delta":207733967},{"NoteNumber":60,"Velocity":71,"Duration":96031,"SoundDuration":96031,"Delta":207733967},{"NoteNumber":82,"Velocity":58,"Duration":95237,"SoundDuration":95237,"Delta":207829205},{"NoteNumber":48,"Velocity":71,"Duration":90090,"SoundDuration":90090,"Delta":207924443},{"NoteNumber":60,"Velocity":83,"Duration":90090,"SoundDuration":90090,"Delta":207924443},{"NoteNumber":80,"Velocity":58,"Duration":90090,"SoundDuration":90090,"Delta":208014533},{"NoteNumber":84,"Velocity":62,"Duration":90090,"SoundDuration":90090,"Delta":208104623},{"NoteNumber":44,"Velocity":57,"Duration":90090,"SoundDuration":90090,"Delta":208104623},{"NoteNumber":56,"Velocity":67,"Duration":90090,"SoundDuration":90090,"Delta":208104623},{"NoteNumber":89,"Velocity":59,"Duration":90090,"SoundDuration":90090,"Delta":208194713},{"NoteNumber":92,"Velocity":66,"Duration":90089,"SoundDuration":90089,"Delta":208284803},{"NoteNumber":41,"Velocity":57,"Duration":90089,"SoundDuration":90089,"Delta":208284803},{"NoteNumber":53,"Velocity":67,"Duration":90089,"SoundDuration":90089,"Delta":208284803},{"NoteNumber":80,"Velocity":59,"Duration":90090,"SoundDuration":90090,"Delta":208374893},{"NoteNumber":38,"Velocity":64,"Duration":90090,"SoundDuration":90090,"Delta":208464983},{"NoteNumber":50,"Velocity":77,"Duration":90090,"SoundDuration":90090,"Delta":208464983},{"NoteNumber":80,"Velocity":59,"Duration":90090,"SoundDuration":90090,"Delta":208555073},{"NoteNumber":82,"Velocity":63,"Duration":90090,"SoundDuration":90090,"Delta":208645163},{"NoteNumber":41,"Velocity":58,"Duration":90090,"SoundDuration":90090,"Delta":208645163},{"NoteNumber":53,"Velocity":69,"Duration":90090,"SoundDuration":90090,"Delta":208645163},{"NoteNumber":89,"Velocity":59,"Duration":90090,"SoundDuration":90090,"Delta":208735253},{"NoteNumber":92,"Velocity":67,"Duration":99667,"SoundDuration":99667,"Delta":208825343},{"NoteNumber":46,"Velocity":58,"Duration":100498,"SoundDuration":100498,"Delta":208825343},{"NoteNumber":58,"Velocity":69,"Duration":100498,"SoundDuration":100498,"Delta":208825343},{"NoteNumber":80,"Velocity":59,"Duration":99667,"SoundDuration":99667,"Delta":208925010},{"NoteNumber":46,"Velocity":64,"Duration":90090,"SoundDuration":90090,"Delta":209024678},{"NoteNumber":58,"Velocity":77,"Duration":90090,"SoundDuration":90090,"Delta":209024678},{"NoteNumber":79,"Velocity":60,"Duration":90090,"SoundDuration":90090,"Delta":209114768},{"NoteNumber":82,"Velocity":64,"Duration":90090,"SoundDuration":90090,"Delta":209204858},{"NoteNumber":43,"Velocity":56,"Duration":90090,"SoundDuration":90090,"Delta":209204858},{"NoteNumber":55,"Velocity":66,"Duration":90090,"SoundDuration":90090,"Delta":209204858},{"NoteNumber":87,"Velocity":60,"Duration":90090,"SoundDuration":90090,"Delta":209294948},{"NoteNumber":91,"Velocity":68,"Duration":90089,"SoundDuration":90089,"Delta":209385038},{"NoteNumber":39,"Velocity":56,"Duration":90089,"SoundDuration":90089,"Delta":209385038},{"NoteNumber":51,"Velocity":66,"Duration":90089,"SoundDuration":90089,"Delta":209385038},{"NoteNumber":79,"Velocity":61,"Duration":90090,"SoundDuration":90090,"Delta":209475128},{"NoteNumber":36,"Velocity":58,"Duration":90090,"SoundDuration":90090,"Delta":209565218},{"NoteNumber":48,"Velocity":70,"Duration":90090,"SoundDuration":90090,"Delta":209565218},{"NoteNumber":92,"Velocity":62,"Duration":90090,"SoundDuration":90090,"Delta":209655308},{"NoteNumber":89,"Velocity":68,"Duration":90090,"SoundDuration":90090,"Delta":209745398},{"NoteNumber":41,"Velocity":54,"Duration":90090,"SoundDuration":90090,"Delta":209745398},{"NoteNumber":53,"Velocity":64,"Duration":90090,"SoundDuration":90090,"Delta":209745398},{"NoteNumber":87,"Velocity":63,"Duration":90090,"SoundDuration":90090,"Delta":209835488},{"NoteNumber":80,"Velocity":72,"Duration":98039,"SoundDuration":98039,"Delta":209925578},{"NoteNumber":44,"Velocity":54,"Duration":98856,"SoundDuration":98856,"Delta":209925578},{"NoteNumber":56,"Velocity":64,"Duration":98856,"SoundDuration":98856,"Delta":209925578},{"NoteNumber":92,"Velocity":66,"Duration":98039,"SoundDuration":98039,"Delta":210023617},{"NoteNumber":34,"Velocity":63,"Duration":90361,"SoundDuration":90361,"Delta":210121657},{"NoteNumber":46,"Velocity":74,"Duration":90361,"SoundDuration":90361,"Delta":210121657},{"NoteNumber":94,"Velocity":67,"Duration":90361,"SoundDuration":90361,"Delta":210212018},{"NoteNumber":91,"Velocity":72,"Duration":90361,"SoundDuration":90361,"Delta":210302380},{"NoteNumber":39,"Velocity":57,"Duration":90361,"SoundDuration":90361,"Delta":210302380},{"NoteNumber":51,"Velocity":67,"Duration":90361,"SoundDuration":90361,"Delta":210302380},{"NoteNumber":87,"Velocity":68,"Duration":90361,"SoundDuration":90361,"Delta":210392741},{"NoteNumber":82,"Velocity":78,"Duration":94637,"SoundDuration":94637,"Delta":210483103},{"NoteNumber":43,"Velocity":58,"Duration":95425,"SoundDuration":95425,"Delta":210483103},{"NoteNumber":55,"Velocity":69,"Duration":95425,"SoundDuration":95425,"Delta":210483103},{"NoteNumber":94,"Velocity":69,"Duration":94637,"SoundDuration":94637,"Delta":210577740},{"NoteNumber":34,"Velocity":64,"Duration":90909,"SoundDuration":90909,"Delta":210672377},{"NoteNumber":46,"Velocity":77,"Duration":90909,"SoundDuration":90909,"Delta":210672377},{"NoteNumber":94,"Velocity":70,"Duration":90908,"SoundDuration":90908,"Delta":210763286},{"NoteNumber":89,"Velocity":77,"Duration":90909,"SoundDuration":90909,"Delta":210854195},{"NoteNumber":38,"Velocity":58,"Duration":90909,"SoundDuration":90909,"Delta":210854195},{"NoteNumber":50,"Velocity":69,"Duration":90909,"SoundDuration":90909,"Delta":210854195},{"NoteNumber":86,"Velocity":72,"Duration":90909,"SoundDuration":90909,"Delta":210945104},{"NoteNumber":82,"Velocity":81,"Duration":122950,"SoundDuration":122950,"Delta":211036013},{"NoteNumber":46,"Velocity":58,"Duration":122950,"SoundDuration":122950,"Delta":211036013},{"NoteNumber":58,"Velocity":69,"Duration":122950,"SoundDuration":122950,"Delta":211036013},{"NoteNumber":94,"Velocity":73,"Duration":122950,"SoundDuration":122950,"Delta":211158964},{"NoteNumber":55,"Velocity":85,"Duration":98360,"SoundDuration":98360,"Delta":211281915},{"NoteNumber":39,"Velocity":73,"Duration":98360,"SoundDuration":98360,"Delta":211281915},{"NoteNumber":63,"Velocity":70,"Duration":98360,"SoundDuration":98360,"Delta":211380275},{"NoteNumber":58,"Velocity":79,"Duration":96462,"SoundDuration":96462,"Delta":211478636},{"NoteNumber":55,"Velocity":62,"Duration":96462,"SoundDuration":96462,"Delta":211478636},{"NoteNumber":51,"Velocity":49,"Duration":96462,"SoundDuration":96462,"Delta":211478636},{"NoteNumber":67,"Velocity":70,"Duration":96462,"SoundDuration":96462,"Delta":211575099},{"NoteNumber":63,"Velocity":81,"Duration":96462,"SoundDuration":96462,"Delta":211671562},{"NoteNumber":58,"Velocity":62,"Duration":96462,"SoundDuration":96462,"Delta":211671562},{"NoteNumber":55,"Velocity":49,"Duration":96462,"SoundDuration":96462,"Delta":211671562},{"NoteNumber":51,"Velocity":49,"Duration":96462,"SoundDuration":96462,"Delta":211671562},{"NoteNumber":70,"Velocity":70,"Duration":96462,"SoundDuration":96462,"Delta":211768025},{"NoteNumber":67,"Velocity":86,"Duration":94339,"SoundDuration":94339,"Delta":211864488},{"NoteNumber":63,"Velocity":62,"Duration":94339,"SoundDuration":94339,"Delta":211864488},{"NoteNumber":58,"Velocity":49,"Duration":94339,"SoundDuration":94339,"Delta":211864488},{"NoteNumber":55,"Velocity":49,"Duration":94339,"SoundDuration":94339,"Delta":211864488},{"NoteNumber":51,"Velocity":49,"Duration":94339,"SoundDuration":94339,"Delta":211864488},{"NoteNumber":75,"Velocity":70,"Duration":94339,"SoundDuration":94339,"Delta":211958828},{"NoteNumber":70,"Velocity":77,"Duration":94339,"SoundDuration":94339,"Delta":212053167},{"NoteNumber":63,"Velocity":62,"Duration":94339,"SoundDuration":94339,"Delta":212053167},{"NoteNumber":58,"Velocity":49,"Duration":94339,"SoundDuration":94339,"Delta":212053167},{"NoteNumber":55,"Velocity":49,"Duration":94339,"SoundDuration":94339,"Delta":212053167},{"NoteNumber":51,"Velocity":49,"Duration":94339,"SoundDuration":94339,"Delta":212053167},{"NoteNumber":79,"Velocity":70,"Duration":94339,"SoundDuration":94339,"Delta":212147507},{"NoteNumber":75,"Velocity":78,"Duration":94339,"SoundDuration":94339,"Delta":212241846},{"NoteNumber":63,"Velocity":62,"Duration":94339,"SoundDuration":94339,"Delta":212241846},{"NoteNumber":58,"Velocity":49,"Duration":94339,"SoundDuration":94339,"Delta":212241846},{"NoteNumber":55,"Velocity":49,"Duration":94339,"SoundDuration":94339,"Delta":212241846},{"NoteNumber":51,"Velocity":49,"Duration":94339,"SoundDuration":94339,"Delta":212241846},{"NoteNumber":82,"Velocity":70,"Duration":94339,"SoundDuration":94339,"Delta":212336186},{"NoteNumber":79,"Velocity":86,"Duration":94339,"SoundDuration":94339,"Delta":212430525},{"NoteNumber":63,"Velocity":70,"Duration":94339,"SoundDuration":94339,"Delta":212430525},{"NoteNumber":58,"Velocity":56,"Duration":94339,"SoundDuration":94339,"Delta":212430525},{"NoteNumber":55,"Velocity":56,"Duration":94339,"SoundDuration":94339,"Delta":212430525},{"NoteNumber":51,"Velocity":56,"Duration":94339,"SoundDuration":94339,"Delta":212430525},{"NoteNumber":87,"Velocity":70,"Duration":94339,"SoundDuration":94339,"Delta":212524865},{"NoteNumber":82,"Velocity":77,"Duration":94339,"SoundDuration":94339,"Delta":212619204},{"NoteNumber":63,"Velocity":62,"Duration":94339,"SoundDuration":94339,"Delta":212619204},{"NoteNumber":58,"Velocity":49,"Duration":94339,"SoundDuration":94339,"Delta":212619204},{"NoteNumber":55,"Velocity":49,"Duration":94339,"SoundDuration":94339,"Delta":212619204},{"NoteNumber":51,"Velocity":49,"Duration":94339,"SoundDuration":94339,"Delta":212619204},{"NoteNumber":91,"Velocity":67,"Duration":94339,"SoundDuration":94339,"Delta":212713544},{"NoteNumber":87,"Velocity":75,"Duration":94339,"SoundDuration":94339,"Delta":212807883},{"NoteNumber":63,"Velocity":62,"Duration":94339,"SoundDuration":94339,"Delta":212807883},{"NoteNumber":58,"Velocity":49,"Duration":94339,"SoundDuration":94339,"Delta":212807883},{"NoteNumber":55,"Velocity":49,"Duration":94339,"SoundDuration":94339,"Delta":212807883},{"NoteNumber":51,"Velocity":49,"Duration":94339,"SoundDuration":94339,"Delta":212807883},{"NoteNumber":94,"Velocity":68,"Duration":94339,"SoundDuration":94339,"Delta":212902223},{"NoteNumber":93,"Velocity":80,"Duration":92307,"SoundDuration":92307,"Delta":212996562},{"NoteNumber":62,"Velocity":62,"Duration":92307,"SoundDuration":92307,"Delta":212996562},{"NoteNumber":56,"Velocity":49,"Duration":92307,"SoundDuration":92307,"Delta":212996562},{"NoteNumber":58,"Velocity":49,"Duration":92307,"SoundDuration":92307,"Delta":212996562},{"NoteNumber":53,"Velocity":49,"Duration":92307,"SoundDuration":92307,"Delta":212996562},{"NoteNumber":51,"Velocity":49,"Duration":92307,"SoundDuration":92307,"Delta":212996562},{"NoteNumber":94,"Velocity":72,"Duration":92307,"SoundDuration":92307,"Delta":213088870},{"NoteNumber":93,"Velocity":77,"Duration":92307,"SoundDuration":92307,"Delta":213181178},{"NoteNumber":62,"Velocity":62,"Duration":92307,"SoundDuration":92307,"Delta":213181178},{"NoteNumber":58,"Velocity":49,"Duration":92307,"SoundDuration":92307,"Delta":213181178},{"NoteNumber":56,"Velocity":49,"Duration":92307,"SoundDuration":92307,"Delta":213181178},{"NoteNumber":53,"Velocity":49,"Duration":92307,"SoundDuration":92307,"Delta":213181178},{"NoteNumber":51,"Velocity":49,"Duration":92307,"SoundDuration":92307,"Delta":213181178},{"NoteNumber":94,"Velocity":70,"Duration":92307,"SoundDuration":92307,"Delta":213273485},{"NoteNumber":93,"Velocity":75,"Duration":92307,"SoundDuration":92307,"Delta":213365793},{"NoteNumber":62,"Velocity":62,"Duration":92307,"SoundDuration":92307,"Delta":213365793},{"NoteNumber":58,"Velocity":49,"Duration":92307,"SoundDuration":92307,"Delta":213365793},{"NoteNumber":56,"Velocity":49,"Duration":92307,"SoundDuration":92307,"Delta":213365793},{"NoteNumber":53,"Velocity":49,"Duration":92307,"SoundDuration":92307,"Delta":213365793},{"NoteNumber":51,"Velocity":49,"Duration":92307,"SoundDuration":92307,"Delta":213365793},{"NoteNumber":94,"Velocity":70,"Duration":101010,"SoundDuration":101010,"Delta":213458101},{"NoteNumber":96,"Velocity":84,"Duration":93750,"SoundDuration":93750,"Delta":213559111},{"NoteNumber":63,"Velocity":72,"Duration":93750,"SoundDuration":93750,"Delta":213559111},{"NoteNumber":58,"Velocity":57,"Duration":93750,"SoundDuration":93750,"Delta":213559111},{"NoteNumber":55,"Velocity":57,"Duration":93750,"SoundDuration":93750,"Delta":213559111},{"NoteNumber":51,"Velocity":57,"Duration":93750,"SoundDuration":93750,"Delta":213559111},{"NoteNumber":94,"Velocity":84,"Duration":93750,"SoundDuration":93750,"Delta":213652861},{"NoteNumber":92,"Velocity":83,"Duration":93457,"SoundDuration":93457,"Delta":213746611},{"NoteNumber":63,"Velocity":62,"Duration":93457,"SoundDuration":93457,"Delta":213746611},{"NoteNumber":58,"Velocity":49,"Duration":93457,"SoundDuration":93457,"Delta":213746611},{"NoteNumber":55,"Velocity":49,"Duration":93457,"SoundDuration":93457,"Delta":213746611},{"NoteNumber":51,"Velocity":49,"Duration":93457,"SoundDuration":93457,"Delta":213746611},{"NoteNumber":91,"Velocity":82,"Duration":93457,"SoundDuration":93457,"Delta":213840069},{"NoteNumber":89,"Velocity":81,"Duration":93457,"SoundDuration":93457,"Delta":213933527},{"NoteNumber":63,"Velocity":62,"Duration":93457,"SoundDuration":93457,"Delta":213933527},{"NoteNumber":58,"Velocity":49,"Duration":93457,"SoundDuration":93457,"Delta":213933527},{"NoteNumber":55,"Velocity":49,"Duration":93457,"SoundDuration":93457,"Delta":213933527},{"NoteNumber":51,"Velocity":49,"Duration":93457,"SoundDuration":93457,"Delta":213933527},{"NoteNumber":87,"Velocity":81,"Duration":93457,"SoundDuration":93457,"Delta":214026985},{"NoteNumber":86,"Velocity":79,"Duration":93457,"SoundDuration":93457,"Delta":214120443},{"NoteNumber":63,"Velocity":62,"Duration":93457,"SoundDuration":93457,"Delta":214120443},{"NoteNumber":58,"Velocity":49,"Duration":93457,"SoundDuration":93457,"Delta":214120443},{"NoteNumber":55,"Velocity":49,"Duration":93457,"SoundDuration":93457,"Delta":214120443},{"NoteNumber":51,"Velocity":49,"Duration":93457,"SoundDuration":93457,"Delta":214120443},{"NoteNumber":84,"Velocity":71,"Duration":93457,"SoundDuration":93457,"Delta":214213901},{"NoteNumber":82,"Velocity":71,"Duration":93457,"SoundDuration":93457,"Delta":214307359},{"NoteNumber":63,"Velocity":62,"Duration":93457,"SoundDuration":93457,"Delta":214307359},{"NoteNumber":58,"Velocity":49,"Duration":93457,"SoundDuration":93457,"Delta":214307359},{"NoteNumber":55,"Velocity":49,"Duration":93457,"SoundDuration":93457,"Delta":214307359},{"NoteNumber":51,"Velocity":49,"Duration":93457,"SoundDuration":93457,"Delta":214307359},{"NoteNumber":80,"Velocity":71,"Duration":93457,"SoundDuration":93457,"Delta":214400817},{"NoteNumber":79,"Velocity":71,"Duration":93458,"SoundDuration":93458,"Delta":214494275},{"NoteNumber":63,"Velocity":62,"Duration":93458,"SoundDuration":93458,"Delta":214494275},{"NoteNumber":58,"Velocity":49,"Duration":93458,"SoundDuration":93458,"Delta":214494275},{"NoteNumber":55,"Velocity":49,"Duration":93458,"SoundDuration":93458,"Delta":214494275},{"NoteNumber":51,"Velocity":49,"Duration":93458,"SoundDuration":93458,"Delta":214494275},{"NoteNumber":77,"Velocity":71,"Duration":101695,"SoundDuration":101695,"Delta":214587733},{"NoteNumber":75,"Velocity":77,"Duration":93750,"SoundDuration":93750,"Delta":214689428},{"NoteNumber":63,"Velocity":69,"Duration":93750,"SoundDuration":93750,"Delta":214689428},{"NoteNumber":58,"Velocity":55,"Duration":93750,"SoundDuration":93750,"Delta":214689428},{"NoteNumber":55,"Velocity":55,"Duration":93750,"SoundDuration":93750,"Delta":214689428},{"NoteNumber":51,"Velocity":55,"Duration":93750,"SoundDuration":93750,"Delta":214689428},{"NoteNumber":74,"Velocity":75,"Duration":93750,"SoundDuration":93750,"Delta":214783178},{"NoteNumber":72,"Velocity":74,"Duration":93750,"SoundDuration":93750,"Delta":214876928},{"NoteNumber":63,"Velocity":61,"Duration":93750,"SoundDuration":93750,"Delta":214876928},{"NoteNumber":58,"Velocity":48,"Duration":93750,"SoundDuration":93750,"Delta":214876928},{"NoteNumber":55,"Velocity":48,"Duration":93750,"SoundDuration":93750,"Delta":214876928},{"NoteNumber":51,"Velocity":48,"Duration":93750,"SoundDuration":93750,"Delta":214876928},{"NoteNumber":70,"Velocity":74,"Duration":93750,"SoundDuration":93750,"Delta":214970678},{"NoteNumber":68,"Velocity":73,"Duration":92592,"SoundDuration":92592,"Delta":215064428},{"NoteNumber":63,"Velocity":61,"Duration":92592,"SoundDuration":92592,"Delta":215064428},{"NoteNumber":58,"Velocity":48,"Duration":92592,"SoundDuration":92592,"Delta":215064428},{"NoteNumber":55,"Velocity":48,"Duration":92592,"SoundDuration":92592,"Delta":215064428},{"NoteNumber":51,"Velocity":48,"Duration":92592,"SoundDuration":92592,"Delta":215064428},{"NoteNumber":67,"Velocity":72,"Duration":92592,"SoundDuration":92592,"Delta":215157020},{"NoteNumber":65,"Velocity":70,"Duration":92592,"SoundDuration":92592,"Delta":215249613},{"NoteNumber":58,"Velocity":61,"Duration":92592,"SoundDuration":92592,"Delta":215249613},{"NoteNumber":56,"Velocity":48,"Duration":92592,"SoundDuration":92592,"Delta":215249613},{"NoteNumber":53,"Velocity":48,"Duration":92592,"SoundDuration":92592,"Delta":215249613},{"NoteNumber":51,"Velocity":48,"Duration":92592,"SoundDuration":92592,"Delta":215249613},{"NoteNumber":63,"Velocity":64,"Duration":92592,"SoundDuration":92592,"Delta":215342205},{"NoteNumber":62,"Velocity":70,"Duration":92592,"SoundDuration":92592,"Delta":215434798},{"NoteNumber":58,"Velocity":61,"Duration":92592,"SoundDuration":92592,"Delta":215434798},{"NoteNumber":56,"Velocity":48,"Duration":92592,"SoundDuration":92592,"Delta":215434798},{"NoteNumber":53,"Velocity":48,"Duration":92592,"SoundDuration":92592,"Delta":215434798},{"NoteNumber":51,"Velocity":48,"Duration":92592,"SoundDuration":92592,"Delta":215434798},{"NoteNumber":65,"Velocity":66,"Duration":92592,"SoundDuration":92592,"Delta":215527390},{"NoteNumber":68,"Velocity":75,"Duration":92592,"SoundDuration":92592,"Delta":215619983},{"NoteNumber":58,"Velocity":61,"Duration":92592,"SoundDuration":92592,"Delta":215619983},{"NoteNumber":56,"Velocity":48,"Duration":92592,"SoundDuration":92592,"Delta":215619983},{"NoteNumber":53,"Velocity":48,"Duration":92592,"SoundDuration":92592,"Delta":215619983},{"NoteNumber":51,"Velocity":48,"Duration":92592,"SoundDuration":92592,"Delta":215619983},{"NoteNumber":62,"Velocity":69,"Duration":109488,"SoundDuration":109488,"Delta":215712575},{"NoteNumber":55,"Velocity":85,"Duration":98360,"SoundDuration":98360,"Delta":215822064},{"NoteNumber":39,"Velocity":73,"Duration":98360,"SoundDuration":98360,"Delta":215822064},{"NoteNumber":63,"Velocity":70,"Duration":98360,"SoundDuration":98360,"Delta":215920425},{"NoteNumber":58,"Velocity":79,"Duration":96462,"SoundDuration":96462,"Delta":216018786},{"NoteNumber":55,"Velocity":62,"Duration":96462,"SoundDuration":96462,"Delta":216018786},{"NoteNumber":51,"Velocity":49,"Duration":96462,"SoundDuration":96462,"Delta":216018786},{"NoteNumber":67,"Velocity":70,"Duration":96462,"SoundDuration":96462,"Delta":216115249},{"NoteNumber":63,"Velocity":81,"Duration":96462,"SoundDuration":96462,"Delta":216211712},{"NoteNumber":58,"Velocity":62,"Duration":96462,"SoundDuration":96462,"Delta":216211712},{"NoteNumber":55,"Velocity":49,"Duration":96462,"SoundDuration":96462,"Delta":216211712},{"NoteNumber":51,"Velocity":49,"Duration":96462,"SoundDuration":96462,"Delta":216211712},{"NoteNumber":70,"Velocity":70,"Duration":96462,"SoundDuration":96462,"Delta":216308175},{"NoteNumber":67,"Velocity":86,"Duration":94339,"SoundDuration":94339,"Delta":216404638},{"NoteNumber":63,"Velocity":62,"Duration":94339,"SoundDuration":94339,"Delta":216404638},{"NoteNumber":58,"Velocity":49,"Duration":94339,"SoundDuration":94339,"Delta":216404638},{"NoteNumber":55,"Velocity":49,"Duration":94339,"SoundDuration":94339,"Delta":216404638},{"NoteNumber":51,"Velocity":49,"Duration":94339,"SoundDuration":94339,"Delta":216404638},{"NoteNumber":75,"Velocity":70,"Duration":94339,"SoundDuration":94339,"Delta":216498977},{"NoteNumber":70,"Velocity":77,"Duration":94339,"SoundDuration":94339,"Delta":216593317},{"NoteNumber":63,"Velocity":62,"Duration":94339,"SoundDuration":94339,"Delta":216593317},{"NoteNumber":58,"Velocity":49,"Duration":94339,"SoundDuration":94339,"Delta":216593317},{"NoteNumber":55,"Velocity":49,"Duration":94339,"SoundDuration":94339,"Delta":216593317},{"NoteNumber":51,"Velocity":49,"Duration":94339,"SoundDuration":94339,"Delta":216593317},{"NoteNumber":79,"Velocity":70,"Duration":94339,"SoundDuration":94339,"Delta":216687656},{"NoteNumber":75,"Velocity":78,"Duration":94339,"SoundDuration":94339,"Delta":216781996},{"NoteNumber":63,"Velocity":62,"Duration":94339,"SoundDuration":94339,"Delta":216781996},{"NoteNumber":58,"Velocity":49,"Duration":94339,"SoundDuration":94339,"Delta":216781996},{"NoteNumber":55,"Velocity":49,"Duration":94339,"SoundDuration":94339,"Delta":216781996},{"NoteNumber":51,"Velocity":49,"Duration":94339,"SoundDuration":94339,"Delta":216781996},{"NoteNumber":82,"Velocity":70,"Duration":94339,"SoundDuration":94339,"Delta":216876335},{"NoteNumber":79,"Velocity":86,"Duration":94339,"SoundDuration":94339,"Delta":216970675},{"NoteNumber":63,"Velocity":70,"Duration":94339,"SoundDuration":94339,"Delta":216970675},{"NoteNumber":58,"Velocity":56,"Duration":94339,"SoundDuration":94339,"Delta":216970675},{"NoteNumber":55,"Velocity":56,"Duration":94339,"SoundDuration":94339,"Delta":216970675},{"NoteNumber":51,"Velocity":56,"Duration":94339,"SoundDuration":94339,"Delta":216970675},{"NoteNumber":87,"Velocity":70,"Duration":94339,"SoundDuration":94339,"Delta":217065014},{"NoteNumber":82,"Velocity":77,"Duration":94339,"SoundDuration":94339,"Delta":217159354},{"NoteNumber":63,"Velocity":62,"Duration":94339,"SoundDuration":94339,"Delta":217159354},{"NoteNumber":58,"Velocity":49,"Duration":94339,"SoundDuration":94339,"Delta":217159354},{"NoteNumber":55,"Velocity":49,"Duration":94339,"SoundDuration":94339,"Delta":217159354},{"NoteNumber":51,"Velocity":49,"Duration":94339,"SoundDuration":94339,"Delta":217159354},{"NoteNumber":91,"Velocity":67,"Duration":94339,"SoundDuration":94339,"Delta":217253693},{"NoteNumber":87,"Velocity":75,"Duration":94339,"SoundDuration":94339,"Delta":217348033},{"NoteNumber":63,"Velocity":62,"Duration":94339,"SoundDuration":94339,"Delta":217348033},{"NoteNumber":58,"Velocity":49,"Duration":94339,"SoundDuration":94339,"Delta":217348033},{"NoteNumber":55,"Velocity":49,"Duration":94339,"SoundDuration":94339,"Delta":217348033},{"NoteNumber":51,"Velocity":49,"Duration":94339,"SoundDuration":94339,"Delta":217348033},{"NoteNumber":94,"Velocity":68,"Duration":94339,"SoundDuration":94339,"Delta":217442372},{"NoteNumber":93,"Velocity":80,"Duration":92307,"SoundDuration":92307,"Delta":217536712},{"NoteNumber":61,"Velocity":62,"Duration":92307,"SoundDuration":92307,"Delta":217536712},{"NoteNumber":58,"Velocity":49,"Duration":92307,"SoundDuration":92307,"Delta":217536712},{"NoteNumber":55,"Velocity":49,"Duration":92307,"SoundDuration":92307,"Delta":217536712},{"NoteNumber":51,"Velocity":49,"Duration":92307,"SoundDuration":92307,"Delta":217536712},{"NoteNumber":94,"Velocity":72,"Duration":92307,"SoundDuration":92307,"Delta":217629020},{"NoteNumber":93,"Velocity":77,"Duration":92307,"SoundDuration":92307,"Delta":217721327},{"NoteNumber":61,"Velocity":62,"Duration":92307,"SoundDuration":92307,"Delta":217721327},{"NoteNumber":58,"Velocity":49,"Duration":92307,"SoundDuration":92307,"Delta":217721327},{"NoteNumber":55,"Velocity":49,"Duration":92307,"SoundDuration":92307,"Delta":217721327},{"NoteNumber":51,"Velocity":49,"Duration":92307,"SoundDuration":92307,"Delta":217721327},{"NoteNumber":94,"Velocity":70,"Duration":92307,"SoundDuration":92307,"Delta":217813635},{"NoteNumber":93,"Velocity":75,"Duration":92307,"SoundDuration":92307,"Delta":217905943},{"NoteNumber":61,"Velocity":62,"Duration":92307,"SoundDuration":92307,"Delta":217905943},{"NoteNumber":58,"Velocity":49,"Duration":92307,"SoundDuration":92307,"Delta":217905943},{"NoteNumber":55,"Velocity":49,"Duration":92307,"SoundDuration":92307,"Delta":217905943},{"NoteNumber":51,"Velocity":49,"Duration":92307,"SoundDuration":92307,"Delta":217905943},{"NoteNumber":94,"Velocity":70,"Duration":101010,"SoundDuration":101010,"Delta":217998251},{"NoteNumber":96,"Velocity":84,"Duration":93750,"SoundDuration":93750,"Delta":218099261},{"NoteNumber":61,"Velocity":72,"Duration":93750,"SoundDuration":93750,"Delta":218099261},{"NoteNumber":58,"Velocity":57,"Duration":93750,"SoundDuration":93750,"Delta":218099261},{"NoteNumber":55,"Velocity":57,"Duration":93750,"SoundDuration":93750,"Delta":218099261},{"NoteNumber":51,"Velocity":57,"Duration":93750,"SoundDuration":93750,"Delta":218099261},{"NoteNumber":94,"Velocity":84,"Duration":93750,"SoundDuration":93750,"Delta":218193011},{"NoteNumber":92,"Velocity":83,"Duration":93457,"SoundDuration":93457,"Delta":218286761},{"NoteNumber":61,"Velocity":62,"Duration":93457,"SoundDuration":93457,"Delta":218286761},{"NoteNumber":58,"Velocity":49,"Duration":93457,"SoundDuration":93457,"Delta":218286761},{"NoteNumber":55,"Velocity":49,"Duration":93457,"SoundDuration":93457,"Delta":218286761},{"NoteNumber":51,"Velocity":49,"Duration":93457,"SoundDuration":93457,"Delta":218286761},{"NoteNumber":91,"Velocity":82,"Duration":93457,"SoundDuration":93457,"Delta":218380219},{"NoteNumber":89,"Velocity":81,"Duration":93457,"SoundDuration":93457,"Delta":218473677},{"NoteNumber":61,"Velocity":62,"Duration":93457,"SoundDuration":93457,"Delta":218473677},{"NoteNumber":58,"Velocity":49,"Duration":93457,"SoundDuration":93457,"Delta":218473677},{"NoteNumber":55,"Velocity":49,"Duration":93457,"SoundDuration":93457,"Delta":218473677},{"NoteNumber":51,"Velocity":49,"Duration":93457,"SoundDuration":93457,"Delta":218473677},{"NoteNumber":87,"Velocity":81,"Duration":93457,"SoundDuration":93457,"Delta":218567135},{"NoteNumber":85,"Velocity":79,"Duration":93457,"SoundDuration":93457,"Delta":218660593},{"NoteNumber":61,"Velocity":62,"Duration":93457,"SoundDuration":93457,"Delta":218660593},{"NoteNumber":58,"Velocity":49,"Duration":93457,"SoundDuration":93457,"Delta":218660593},{"NoteNumber":55,"Velocity":49,"Duration":93457,"SoundDuration":93457,"Delta":218660593},{"NoteNumber":51,"Velocity":49,"Duration":93457,"SoundDuration":93457,"Delta":218660593},{"NoteNumber":84,"Velocity":71,"Duration":93457,"SoundDuration":93457,"Delta":218754051},{"NoteNumber":82,"Velocity":71,"Duration":93457,"SoundDuration":93457,"Delta":218847509},{"NoteNumber":61,"Velocity":62,"Duration":93457,"SoundDuration":93457,"Delta":218847509},{"NoteNumber":58,"Velocity":49,"Duration":93457,"SoundDuration":93457,"Delta":218847509},{"NoteNumber":55,"Velocity":49,"Duration":93457,"SoundDuration":93457,"Delta":218847509},{"NoteNumber":51,"Velocity":49,"Duration":93457,"SoundDuration":93457,"Delta":218847509},{"NoteNumber":80,"Velocity":71,"Duration":93457,"SoundDuration":93457,"Delta":218940967},{"NoteNumber":79,"Velocity":71,"Duration":93458,"SoundDuration":93458,"Delta":219034425},{"NoteNumber":61,"Velocity":62,"Duration":93458,"SoundDuration":93458,"Delta":219034425},{"NoteNumber":58,"Velocity":49,"Duration":93458,"SoundDuration":93458,"Delta":219034425},{"NoteNumber":55,"Velocity":49,"Duration":93458,"SoundDuration":93458,"Delta":219034425},{"NoteNumber":51,"Velocity":49,"Duration":93458,"SoundDuration":93458,"Delta":219034425},{"NoteNumber":77,"Velocity":71,"Duration":101695,"SoundDuration":101695,"Delta":219127883},{"NoteNumber":75,"Velocity":77,"Duration":94531,"SoundDuration":94531,"Delta":219229578},{"NoteNumber":58,"Velocity":55,"Duration":93750,"SoundDuration":93750,"Delta":219229578},{"NoteNumber":61,"Velocity":69,"Duration":93750,"SoundDuration":93750,"Delta":219229578},{"NoteNumber":55,"Velocity":55,"Duration":93750,"SoundDuration":93750,"Delta":219229578},{"NoteNumber":51,"Velocity":55,"Duration":93750,"SoundDuration":93750,"Delta":219229578},{"NoteNumber":73,"Velocity":75,"Duration":94531,"SoundDuration":94531,"Delta":219323328},{"NoteNumber":72,"Velocity":74,"Duration":93750,"SoundDuration":93750,"Delta":219417078},{"NoteNumber":58,"Velocity":48,"Duration":93750,"SoundDuration":93750,"Delta":219417078},{"NoteNumber":61,"Velocity":61,"Duration":93750,"SoundDuration":93750,"Delta":219417078},{"NoteNumber":55,"Velocity":48,"Duration":93750,"SoundDuration":93750,"Delta":219417078},{"NoteNumber":51,"Velocity":48,"Duration":93750,"SoundDuration":93750,"Delta":219417078},{"NoteNumber":70,"Velocity":74,"Duration":93750,"SoundDuration":93750,"Delta":219510828},{"NoteNumber":68,"Velocity":73,"Duration":92592,"SoundDuration":92592,"Delta":219604578},{"NoteNumber":56,"Velocity":48,"Duration":92592,"SoundDuration":92592,"Delta":219604578},{"NoteNumber":60,"Velocity":61,"Duration":92592,"SoundDuration":92592,"Delta":219604578},{"NoteNumber":51,"Velocity":48,"Duration":92592,"SoundDuration":92592,"Delta":219604578},{"NoteNumber":67,"Velocity":72,"Duration":92592,"SoundDuration":92592,"Delta":219697170},{"NoteNumber":65,"Velocity":68,"Duration":92592,"SoundDuration":92592,"Delta":219789763},{"NoteNumber":51,"Velocity":48,"Duration":92592,"SoundDuration":92592,"Delta":219789763},{"NoteNumber":53,"Velocity":48,"Duration":92592,"SoundDuration":92592,"Delta":219789763},{"NoteNumber":59,"Velocity":61,"Duration":92592,"SoundDuration":92592,"Delta":219789763},{"NoteNumber":56,"Velocity":48,"Duration":92592,"SoundDuration":92592,"Delta":219789763},{"NoteNumber":63,"Velocity":59,"Duration":92592,"SoundDuration":92592,"Delta":219882355},{"NoteNumber":62,"Velocity":66,"Duration":92592,"SoundDuration":92592,"Delta":219974948},{"NoteNumber":51,"Velocity":48,"Duration":92592,"SoundDuration":92592,"Delta":219974948},{"NoteNumber":59,"Velocity":61,"Duration":92592,"SoundDuration":92592,"Delta":219974948},{"NoteNumber":56,"Velocity":48,"Duration":92592,"SoundDuration":92592,"Delta":219974948},{"NoteNumber":53,"Velocity":48,"Duration":92592,"SoundDuration":92592,"Delta":219974948},{"NoteNumber":65,"Velocity":59,"Duration":92592,"SoundDuration":92592,"Delta":220067540},{"NoteNumber":68,"Velocity":64,"Duration":92592,"SoundDuration":92592,"Delta":220160133},{"NoteNumber":51,"Velocity":48,"Duration":92592,"SoundDuration":92592,"Delta":220160133},{"NoteNumber":58,"Velocity":61,"Duration":92592,"SoundDuration":92592,"Delta":220160133},{"NoteNumber":56,"Velocity":48,"Duration":92592,"SoundDuration":92592,"Delta":220160133},{"NoteNumber":53,"Velocity":48,"Duration":92592,"SoundDuration":92592,"Delta":220160133},{"NoteNumber":62,"Velocity":59,"Duration":103806,"SoundDuration":103806,"Delta":220252725},{"NoteNumber":63,"Velocity":95,"Duration":194175,"SoundDuration":194175,"Delta":220356531},{"NoteNumber":39,"Velocity":80,"Duration":194175,"SoundDuration":194175,"Delta":220356531},{"NoteNumber":51,"Velocity":80,"Duration":194175,"SoundDuration":194175,"Delta":220356531},{"NoteNumber":75,"Velocity":89,"Duration":191082,"SoundDuration":191082,"Delta":220939056},{"NoteNumber":63,"Velocity":75,"Duration":191082,"SoundDuration":191082,"Delta":220939056},{"NoteNumber":78,"Velocity":96,"Duration":191082,"SoundDuration":191082,"Delta":221512305},{"NoteNumber":66,"Velocity":81,"Duration":191082,"SoundDuration":191082,"Delta":221512305},{"NoteNumber":83,"Velocity":88,"Duration":191082,"SoundDuration":191082,"Delta":222085554},{"NoteNumber":71,"Velocity":74,"Duration":191082,"SoundDuration":191082,"Delta":222085554},{"NoteNumber":78,"Velocity":94,"Duration":188679,"SoundDuration":188679,"Delta":222658803},{"NoteNumber":66,"Velocity":79,"Duration":188679,"SoundDuration":188679,"Delta":222658803},{"NoteNumber":75,"Velocity":88,"Duration":192307,"SoundDuration":192307,"Delta":223224840},{"NoteNumber":63,"Velocity":74,"Duration":192307,"SoundDuration":192307,"Delta":223224840},{"NoteNumber":71,"Velocity":93,"Duration":192307,"SoundDuration":192307,"Delta":223801763},{"NoteNumber":59,"Velocity":78,"Duration":192307,"SoundDuration":192307,"Delta":223801763},{"NoteNumber":66,"Velocity":82,"Duration":196078,"SoundDuration":196078,"Delta":224378685},{"NoteNumber":54,"Velocity":70,"Duration":196078,"SoundDuration":196078,"Delta":224378685},{"NoteNumber":62,"Velocity":95,"Duration":194175,"SoundDuration":194175,"Delta":224966921},{"NoteNumber":38,"Velocity":80,"Duration":194175,"SoundDuration":194175,"Delta":224966921},{"NoteNumber":50,"Velocity":80,"Duration":194175,"SoundDuration":194175,"Delta":224966921},{"NoteNumber":74,"Velocity":89,"Duration":191082,"SoundDuration":191082,"Delta":225549446},{"NoteNumber":62,"Velocity":75,"Duration":191082,"SoundDuration":191082,"Delta":225549446},{"NoteNumber":77,"Velocity":96,"Duration":191082,"SoundDuration":191082,"Delta":226122695},{"NoteNumber":65,"Velocity":81,"Duration":191082,"SoundDuration":191082,"Delta":226122695},{"NoteNumber":82,"Velocity":88,"Duration":191082,"SoundDuration":191082,"Delta":226695944},{"NoteNumber":70,"Velocity":74,"Duration":191082,"SoundDuration":191082,"Delta":226695944},{"NoteNumber":77,"Velocity":94,"Duration":188679,"SoundDuration":188679,"Delta":227269193},{"NoteNumber":65,"Velocity":79,"Duration":188679,"SoundDuration":188679,"Delta":227269193},{"NoteNumber":74,"Velocity":88,"Duration":192307,"SoundDuration":192307,"Delta":227835230},{"NoteNumber":62,"Velocity":74,"Duration":192307,"SoundDuration":192307,"Delta":227835230},{"NoteNumber":70,"Velocity":93,"Duration":192307,"SoundDuration":192307,"Delta":228412152},{"NoteNumber":58,"Velocity":78,"Duration":192307,"SoundDuration":192307,"Delta":228412152},{"NoteNumber":65,"Velocity":82,"Duration":196078,"SoundDuration":196078,"Delta":228989075},{"NoteNumber":53,"Velocity":70,"Duration":196078,"SoundDuration":196078,"Delta":228989075},{"NoteNumber":78,"Velocity":55,"Duration":93750,"SoundDuration":93750,"Delta":229577310},{"NoteNumber":63,"Velocity":34,"Duration":93750,"SoundDuration":93750,"Delta":229577310},{"NoteNumber":66,"Velocity":34,"Duration":93750,"SoundDuration":93750,"Delta":229577310},{"NoteNumber":71,"Velocity":40,"Duration":93750,"SoundDuration":93750,"Delta":229577310},{"NoteNumber":63,"Velocity":29,"Duration":85960,"SoundDuration":85960,"Delta":229764810},{"NoteNumber":66,"Velocity":29,"Duration":85960,"SoundDuration":85960,"Delta":229764810},{"NoteNumber":71,"Velocity":35,"Duration":85960,"SoundDuration":85960,"Delta":229764810},{"NoteNumber":89,"Velocity":51,"Duration":42980,"SoundDuration":42980,"Delta":229893750},{"NoteNumber":87,"Velocity":56,"Duration":85960,"SoundDuration":85960,"Delta":229936730},{"NoteNumber":63,"Velocity":29,"Duration":85960,"SoundDuration":85960,"Delta":229936730},{"NoteNumber":66,"Velocity":29,"Duration":85960,"SoundDuration":85960,"Delta":229936730},{"NoteNumber":71,"Velocity":35,"Duration":85960,"SoundDuration":85960,"Delta":229936730},{"NoteNumber":86,"Velocity":51,"Duration":85960,"SoundDuration":85960,"Delta":230022690},{"NoteNumber":87,"Velocity":56,"Duration":171920,"SoundDuration":171920,"Delta":230108650},{"NoteNumber":63,"Velocity":29,"Duration":85960,"SoundDuration":85960,"Delta":230108650},{"NoteNumber":66,"Velocity":29,"Duration":85960,"SoundDuration":85960,"Delta":230108650},{"NoteNumber":71,"Velocity":35,"Duration":85960,"SoundDuration":85960,"Delta":230108650},{"NoteNumber":63,"Velocity":29,"Duration":85960,"SoundDuration":85960,"Delta":230280570},{"NoteNumber":66,"Velocity":29,"Duration":85960,"SoundDuration":85960,"Delta":230280570},{"NoteNumber":71,"Velocity":35,"Duration":85960,"SoundDuration":85960,"Delta":230280570},{"NoteNumber":92,"Velocity":51,"Duration":42980,"SoundDuration":42980,"Delta":230409510},{"NoteNumber":90,"Velocity":57,"Duration":85960,"SoundDuration":85960,"Delta":230452490},{"NoteNumber":63,"Velocity":29,"Duration":85960,"SoundDuration":85960,"Delta":230452490},{"NoteNumber":66,"Velocity":29,"Duration":85960,"SoundDuration":85960,"Delta":230452490},{"NoteNumber":71,"Velocity":35,"Duration":85960,"SoundDuration":85960,"Delta":230452490},{"NoteNumber":89,"Velocity":50,"Duration":85960,"SoundDuration":85960,"Delta":230538450},{"NoteNumber":90,"Velocity":60,"Duration":93750,"SoundDuration":93750,"Delta":230624410},{"NoteNumber":63,"Velocity":34,"Duration":93750,"SoundDuration":93750,"Delta":230624410},{"NoteNumber":66,"Velocity":34,"Duration":93750,"SoundDuration":93750,"Delta":230624410},{"NoteNumber":71,"Velocity":40,"Duration":93750,"SoundDuration":93750,"Delta":230624410},{"NoteNumber":63,"Velocity":29,"Duration":88235,"SoundDuration":88235,"Delta":230811910},{"NoteNumber":66,"Velocity":29,"Duration":88235,"SoundDuration":88235,"Delta":230811910},{"NoteNumber":71,"Velocity":35,"Duration":88235,"SoundDuration":88235,"Delta":230811910},{"NoteNumber":97,"Velocity":51,"Duration":44117,"SoundDuration":44117,"Delta":230944263},{"NoteNumber":95,"Velocity":56,"Duration":86455,"SoundDuration":86455,"Delta":230988381},{"NoteNumber":63,"Velocity":29,"Duration":86455,"SoundDuration":86455,"Delta":230988381},{"NoteNumber":66,"Velocity":29,"Duration":86455,"SoundDuration":86455,"Delta":230988381},{"NoteNumber":71,"Velocity":35,"Duration":86455,"SoundDuration":86455,"Delta":230988381},{"NoteNumber":94,"Velocity":51,"Duration":86455,"SoundDuration":86455,"Delta":231074836},{"NoteNumber":95,"Velocity":56,"Duration":172910,"SoundDuration":172910,"Delta":231161291},{"NoteNumber":63,"Velocity":29,"Duration":86455,"SoundDuration":86455,"Delta":231161291},{"NoteNumber":66,"Velocity":29,"Duration":86455,"SoundDuration":86455,"Delta":231161291},{"NoteNumber":71,"Velocity":35,"Duration":86455,"SoundDuration":86455,"Delta":231161291},{"NoteNumber":63,"Velocity":29,"Duration":86455,"SoundDuration":86455,"Delta":231334202},{"NoteNumber":66,"Velocity":29,"Duration":86455,"SoundDuration":86455,"Delta":231334202},{"NoteNumber":71,"Velocity":35,"Duration":86455,"SoundDuration":86455,"Delta":231334202},{"NoteNumber":92,"Velocity":51,"Duration":43227,"SoundDuration":43227,"Delta":231463885},{"NoteNumber":90,"Velocity":57,"Duration":91463,"SoundDuration":91463,"Delta":231507112},{"NoteNumber":63,"Velocity":29,"Duration":91463,"SoundDuration":91463,"Delta":231507112},{"NoteNumber":66,"Velocity":29,"Duration":91463,"SoundDuration":91463,"Delta":231507112},{"NoteNumber":71,"Velocity":35,"Duration":91463,"SoundDuration":91463,"Delta":231507112},{"NoteNumber":89,"Velocity":50,"Duration":91463,"SoundDuration":91463,"Delta":231598576},{"NoteNumber":90,"Velocity":60,"Duration":86705,"SoundDuration":86705,"Delta":231690039},{"NoteNumber":63,"Velocity":34,"Duration":86705,"SoundDuration":86705,"Delta":231690039},{"NoteNumber":66,"Velocity":34,"Duration":86705,"SoundDuration":86705,"Delta":231690039},{"NoteNumber":71,"Velocity":40,"Duration":86705,"SoundDuration":86705,"Delta":231690039},{"NoteNumber":63,"Velocity":29,"Duration":86705,"SoundDuration":86705,"Delta":231863450},{"NoteNumber":66,"Velocity":29,"Duration":86705,"SoundDuration":86705,"Delta":231863450},{"NoteNumber":71,"Velocity":35,"Duration":86705,"SoundDuration":86705,"Delta":231863450},{"NoteNumber":89,"Velocity":51,"Duration":43352,"SoundDuration":43352,"Delta":231993508},{"NoteNumber":87,"Velocity":56,"Duration":86705,"SoundDuration":86705,"Delta":232036860},{"NoteNumber":63,"Velocity":29,"Duration":86705,"SoundDuration":86705,"Delta":232036860},{"NoteNumber":66,"Velocity":29,"Duration":86705,"SoundDuration":86705,"Delta":232036860},{"NoteNumber":71,"Velocity":35,"Duration":86705,"SoundDuration":86705,"Delta":232036860},{"NoteNumber":86,"Velocity":51,"Duration":86705,"SoundDuration":86705,"Delta":232123566},{"NoteNumber":87,"Velocity":56,"Duration":173410,"SoundDuration":173410,"Delta":232210271},{"NoteNumber":63,"Velocity":29,"Duration":86705,"SoundDuration":86705,"Delta":232210271},{"NoteNumber":66,"Velocity":29,"Duration":86705,"SoundDuration":86705,"Delta":232210271},{"NoteNumber":71,"Velocity":35,"Duration":86705,"SoundDuration":86705,"Delta":232210271},{"NoteNumber":63,"Velocity":29,"Duration":86705,"SoundDuration":86705,"Delta":232383681},{"NoteNumber":66,"Velocity":29,"Duration":86705,"SoundDuration":86705,"Delta":232383681},{"NoteNumber":71,"Velocity":35,"Duration":86705,"SoundDuration":86705,"Delta":232383681},{"NoteNumber":85,"Velocity":51,"Duration":43352,"SoundDuration":43352,"Delta":232513739},{"NoteNumber":83,"Velocity":57,"Duration":90909,"SoundDuration":90909,"Delta":232557092},{"NoteNumber":63,"Velocity":29,"Duration":90909,"SoundDuration":90909,"Delta":232557092},{"NoteNumber":66,"Velocity":29,"Duration":90909,"SoundDuration":90909,"Delta":232557092},{"NoteNumber":71,"Velocity":35,"Duration":90909,"SoundDuration":90909,"Delta":232557092},{"NoteNumber":82,"Velocity":50,"Duration":90908,"SoundDuration":90908,"Delta":232648001},{"NoteNumber":83,"Velocity":60,"Duration":86455,"SoundDuration":86455,"Delta":232738910},{"NoteNumber":63,"Velocity":34,"Duration":86455,"SoundDuration":86455,"Delta":232738910},{"NoteNumber":66,"Velocity":34,"Duration":86455,"SoundDuration":86455,"Delta":232738910},{"NoteNumber":71,"Velocity":40,"Duration":86455,"SoundDuration":86455,"Delta":232738910},{"NoteNumber":63,"Velocity":29,"Duration":86455,"SoundDuration":86455,"Delta":232911820},{"NoteNumber":66,"Velocity":29,"Duration":86455,"SoundDuration":86455,"Delta":232911820},{"NoteNumber":71,"Velocity":35,"Duration":86455,"SoundDuration":86455,"Delta":232911820},{"NoteNumber":80,"Velocity":51,"Duration":43227,"SoundDuration":43227,"Delta":233041503},{"NoteNumber":78,"Velocity":56,"Duration":86455,"SoundDuration":86455,"Delta":233084731},{"NoteNumber":63,"Velocity":29,"Duration":86455,"SoundDuration":86455,"Delta":233084731},{"NoteNumber":66,"Velocity":29,"Duration":86455,"SoundDuration":86455,"Delta":233084731},{"NoteNumber":71,"Velocity":35,"Duration":86455,"SoundDuration":86455,"Delta":233084731},{"NoteNumber":77,"Velocity":51,"Duration":86455,"SoundDuration":86455,"Delta":233171186},{"NoteNumber":78,"Velocity":56,"Duration":345821,"SoundDuration":345821,"Delta":233257641},{"NoteNumber":63,"Velocity":29,"Duration":86455,"SoundDuration":86455,"Delta":233257641},{"NoteNumber":66,"Velocity":29,"Duration":86455,"SoundDuration":86455,"Delta":233257641},{"NoteNumber":71,"Velocity":35,"Duration":86455,"SoundDuration":86455,"Delta":233257641},{"NoteNumber":63,"Velocity":29,"Duration":86455,"SoundDuration":86455,"Delta":233430552},{"NoteNumber":66,"Velocity":29,"Duration":86455,"SoundDuration":86455,"Delta":233430552},{"NoteNumber":71,"Velocity":35,"Duration":86455,"SoundDuration":86455,"Delta":233430552},{"NoteNumber":63,"Velocity":29,"Duration":86455,"SoundDuration":86455,"Delta":233603462},{"NoteNumber":66,"Velocity":29,"Duration":86455,"SoundDuration":86455,"Delta":233603462},{"NoteNumber":69,"Velocity":35,"Duration":86455,"SoundDuration":86455,"Delta":233603462},{"NoteNumber":77,"Velocity":55,"Duration":93750,"SoundDuration":93750,"Delta":233776373},{"NoteNumber":62,"Velocity":34,"Duration":93750,"SoundDuration":93750,"Delta":233776373},{"NoteNumber":65,"Velocity":34,"Duration":93750,"SoundDuration":93750,"Delta":233776373},{"NoteNumber":70,"Velocity":40,"Duration":93750,"SoundDuration":93750,"Delta":233776373},{"NoteNumber":62,"Velocity":29,"Duration":86207,"SoundDuration":86207,"Delta":233963873},{"NoteNumber":65,"Velocity":29,"Duration":86207,"SoundDuration":86207,"Delta":233963873},{"NoteNumber":70,"Velocity":35,"Duration":86207,"SoundDuration":86207,"Delta":233963873},{"NoteNumber":87,"Velocity":51,"Duration":43103,"SoundDuration":43103,"Delta":234093183},{"NoteNumber":86,"Velocity":56,"Duration":86207,"SoundDuration":86207,"Delta":234136287},{"NoteNumber":62,"Velocity":29,"Duration":86207,"SoundDuration":86207,"Delta":234136287},{"NoteNumber":65,"Velocity":29,"Duration":86207,"SoundDuration":86207,"Delta":234136287},{"NoteNumber":70,"Velocity":35,"Duration":86207,"SoundDuration":86207,"Delta":234136287},{"NoteNumber":84,"Velocity":51,"Duration":86207,"SoundDuration":86207,"Delta":234222494},{"NoteNumber":86,"Velocity":56,"Duration":172414,"SoundDuration":172414,"Delta":234308701},{"NoteNumber":62,"Velocity":29,"Duration":86207,"SoundDuration":86207,"Delta":234308701},{"NoteNumber":65,"Velocity":29,"Duration":86207,"SoundDuration":86207,"Delta":234308701},{"NoteNumber":70,"Velocity":35,"Duration":86207,"SoundDuration":86207,"Delta":234308701},{"NoteNumber":62,"Velocity":29,"Duration":86207,"SoundDuration":86207,"Delta":234481115},{"NoteNumber":65,"Velocity":29,"Duration":86207,"SoundDuration":86207,"Delta":234481115},{"NoteNumber":70,"Velocity":35,"Duration":86207,"SoundDuration":86207,"Delta":234481115},{"NoteNumber":90,"Velocity":51,"Duration":43103,"SoundDuration":43103,"Delta":234610425},{"NoteNumber":89,"Velocity":57,"Duration":86206,"SoundDuration":86206,"Delta":234653529},{"NoteNumber":62,"Velocity":29,"Duration":86206,"SoundDuration":86206,"Delta":234653529},{"NoteNumber":65,"Velocity":29,"Duration":86206,"SoundDuration":86206,"Delta":234653529},{"NoteNumber":70,"Velocity":35,"Duration":86206,"SoundDuration":86206,"Delta":234653529},{"NoteNumber":88,"Velocity":50,"Duration":86207,"SoundDuration":86207,"Delta":234739736},{"NoteNumber":89,"Velocity":60,"Duration":93750,"SoundDuration":93750,"Delta":234825943},{"NoteNumber":62,"Velocity":34,"Duration":93750,"SoundDuration":93750,"Delta":234825943},{"NoteNumber":65,"Velocity":34,"Duration":93750,"SoundDuration":93750,"Delta":234825943},{"NoteNumber":70,"Velocity":40,"Duration":93750,"SoundDuration":93750,"Delta":234825943},{"NoteNumber":62,"Velocity":29,"Duration":86956,"SoundDuration":86956,"Delta":235013443},{"NoteNumber":65,"Velocity":29,"Duration":86956,"SoundDuration":86956,"Delta":235013443},{"NoteNumber":70,"Velocity":35,"Duration":86956,"SoundDuration":86956,"Delta":235013443},{"NoteNumber":95,"Velocity":51,"Duration":43478,"SoundDuration":43478,"Delta":235143878},{"NoteNumber":94,"Velocity":56,"Duration":86956,"SoundDuration":86956,"Delta":235187356},{"NoteNumber":62,"Velocity":29,"Duration":86956,"SoundDuration":86956,"Delta":235187356},{"NoteNumber":65,"Velocity":29,"Duration":86956,"SoundDuration":86956,"Delta":235187356},{"NoteNumber":70,"Velocity":35,"Duration":86956,"SoundDuration":86956,"Delta":235187356},{"NoteNumber":93,"Velocity":51,"Duration":86956,"SoundDuration":86956,"Delta":235274312},{"NoteNumber":94,"Velocity":56,"Duration":173912,"SoundDuration":173912,"Delta":235361269},{"NoteNumber":62,"Velocity":29,"Duration":86956,"SoundDuration":86956,"Delta":235361269},{"NoteNumber":65,"Velocity":29,"Duration":86956,"SoundDuration":86956,"Delta":235361269},{"NoteNumber":70,"Velocity":35,"Duration":86956,"SoundDuration":86956,"Delta":235361269},{"NoteNumber":62,"Velocity":29,"Duration":86956,"SoundDuration":86956,"Delta":235535182},{"NoteNumber":65,"Velocity":29,"Duration":86956,"SoundDuration":86956,"Delta":235535182},{"NoteNumber":70,"Velocity":35,"Duration":86956,"SoundDuration":86956,"Delta":235535182},{"NoteNumber":90,"Velocity":51,"Duration":43478,"SoundDuration":43478,"Delta":235665617},{"NoteNumber":89,"Velocity":57,"Duration":86956,"SoundDuration":86956,"Delta":235709095},{"NoteNumber":62,"Velocity":29,"Duration":86956,"SoundDuration":86956,"Delta":235709095},{"NoteNumber":65,"Velocity":29,"Duration":86956,"SoundDuration":86956,"Delta":235709095},{"NoteNumber":70,"Velocity":35,"Duration":86956,"SoundDuration":86956,"Delta":235709095},{"NoteNumber":88,"Velocity":50,"Duration":86956,"SoundDuration":86956,"Delta":235796051},{"NoteNumber":89,"Velocity":60,"Duration":93750,"SoundDuration":93750,"Delta":235883008},{"NoteNumber":62,"Velocity":34,"Duration":93750,"SoundDuration":93750,"Delta":235883008},{"NoteNumber":65,"Velocity":34,"Duration":93750,"SoundDuration":93750,"Delta":235883008},{"NoteNumber":70,"Velocity":40,"Duration":93750,"SoundDuration":93750,"Delta":235883008},{"NoteNumber":62,"Velocity":29,"Duration":86956,"SoundDuration":86956,"Delta":236070508},{"NoteNumber":65,"Velocity":29,"Duration":86956,"SoundDuration":86956,"Delta":236070508},{"NoteNumber":70,"Velocity":35,"Duration":86956,"SoundDuration":86956,"Delta":236070508},{"NoteNumber":87,"Velocity":51,"Duration":43478,"SoundDuration":43478,"Delta":236200943},{"NoteNumber":86,"Velocity":56,"Duration":86956,"SoundDuration":86956,"Delta":236244421},{"NoteNumber":62,"Velocity":29,"Duration":86956,"SoundDuration":86956,"Delta":236244421},{"NoteNumber":65,"Velocity":29,"Duration":86956,"SoundDuration":86956,"Delta":236244421},{"NoteNumber":70,"Velocity":35,"Duration":86956,"SoundDuration":86956,"Delta":236244421},{"NoteNumber":84,"Velocity":51,"Duration":86956,"SoundDuration":86956,"Delta":236331377},{"NoteNumber":86,"Velocity":56,"Duration":173912,"SoundDuration":173912,"Delta":236418334},{"NoteNumber":62,"Velocity":29,"Duration":86956,"SoundDuration":86956,"Delta":236418334},{"NoteNumber":65,"Velocity":29,"Duration":86956,"SoundDuration":86956,"Delta":236418334},{"NoteNumber":70,"Velocity":35,"Duration":86956,"SoundDuration":86956,"Delta":236418334},{"NoteNumber":62,"Velocity":29,"Duration":86956,"SoundDuration":86956,"Delta":236592247},{"NoteNumber":65,"Velocity":29,"Duration":86956,"SoundDuration":86956,"Delta":236592247},{"NoteNumber":70,"Velocity":35,"Duration":86956,"SoundDuration":86956,"Delta":236592247},{"NoteNumber":83,"Velocity":51,"Duration":43478,"SoundDuration":43478,"Delta":236722682},{"NoteNumber":82,"Velocity":57,"Duration":86956,"SoundDuration":86956,"Delta":236766160},{"NoteNumber":62,"Velocity":29,"Duration":86956,"SoundDuration":86956,"Delta":236766160},{"NoteNumber":65,"Velocity":29,"Duration":86956,"SoundDuration":86956,"Delta":236766160},{"NoteNumber":70,"Velocity":35,"Duration":86956,"SoundDuration":86956,"Delta":236766160},{"NoteNumber":81,"Velocity":50,"Duration":86956,"SoundDuration":86956,"Delta":236853116},{"NoteNumber":82,"Velocity":60,"Duration":93750,"SoundDuration":93750,"Delta":236940073},{"NoteNumber":62,"Velocity":34,"Duration":93750,"SoundDuration":93750,"Delta":236940073},{"NoteNumber":65,"Velocity":34,"Duration":93750,"SoundDuration":93750,"Delta":236940073},{"NoteNumber":70,"Velocity":40,"Duration":93750,"SoundDuration":93750,"Delta":236940073},{"NoteNumber":62,"Velocity":29,"Duration":87209,"SoundDuration":87209,"Delta":237127573},{"NoteNumber":65,"Velocity":29,"Duration":87209,"SoundDuration":87209,"Delta":237127573},{"NoteNumber":70,"Velocity":35,"Duration":87209,"SoundDuration":87209,"Delta":237127573},{"NoteNumber":78,"Velocity":51,"Duration":43604,"SoundDuration":43604,"Delta":237258387},{"NoteNumber":77,"Velocity":56,"Duration":87209,"SoundDuration":87209,"Delta":237301991},{"NoteNumber":62,"Velocity":29,"Duration":87209,"SoundDuration":87209,"Delta":237301991},{"NoteNumber":65,"Velocity":29,"Duration":87209,"SoundDuration":87209,"Delta":237301991},{"NoteNumber":70,"Velocity":35,"Duration":87209,"SoundDuration":87209,"Delta":237301991},{"NoteNumber":76,"Velocity":51,"Duration":87209,"SoundDuration":87209,"Delta":237389201},{"NoteNumber":77,"Velocity":56,"Duration":174418,"SoundDuration":174418,"Delta":237476410},{"NoteNumber":62,"Velocity":29,"Duration":174418,"SoundDuration":174418,"Delta":237476410},{"NoteNumber":65,"Velocity":29,"Duration":174418,"SoundDuration":174418,"Delta":237476410},{"NoteNumber":70,"Velocity":35,"Duration":174418,"SoundDuration":174418,"Delta":237476410},{"NoteNumber":58,"Velocity":35,"Duration":174418,"SoundDuration":174418,"Delta":237650828},{"NoteNumber":78,"Velocity":52,"Duration":186915,"SoundDuration":186915,"Delta":237825247},{"NoteNumber":56,"Velocity":35,"Duration":186915,"SoundDuration":186915,"Delta":237825247},{"NoteNumber":79,"Velocity":56,"Duration":542783,"SoundDuration":542783,"Delta":238012163},{"NoteNumber":70,"Velocity":35,"Duration":91185,"SoundDuration":91185,"Delta":238012163},{"NoteNumber":51,"Velocity":40,"Duration":1076908,"SoundDuration":1076908,"Delta":238012163},{"NoteNumber":55,"Velocity":40,"Duration":364742,"SoundDuration":364742,"Delta":238012163},{"NoteNumber":72,"Velocity":31,"Duration":91185,"SoundDuration":91185,"Delta":238103348},{"NoteNumber":70,"Velocity":35,"Duration":91185,"SoundDuration":91185,"Delta":238194534},{"NoteNumber":72,"Velocity":31,"Duration":91185,"SoundDuration":91185,"Delta":238285719},{"NoteNumber":70,"Velocity":34,"Duration":89020,"SoundDuration":89020,"Delta":238376905},{"NoteNumber":60,"Velocity":33,"Duration":178041,"SoundDuration":178041,"Delta":238376905},{"NoteNumber":72,"Velocity":31,"Duration":89020,"SoundDuration":89020,"Delta":238465926},{"NoteNumber":70,"Velocity":36,"Duration":89020,"SoundDuration":89020,"Delta":238554946},{"NoteNumber":75,"Velocity":55,"Duration":534124,"SoundDuration":534124,"Delta":238554946},{"NoteNumber":58,"Velocity":42,"Duration":356082,"SoundDuration":356082,"Delta":238554946},{"NoteNumber":72,"Velocity":32,"Duration":89020,"SoundDuration":89020,"Delta":238643967},{"NoteNumber":70,"Velocity":36,"Duration":89020,"SoundDuration":89020,"Delta":238732988},{"NoteNumber":72,"Velocity":31,"Duration":89020,"SoundDuration":89020,"Delta":238822009},{"NoteNumber":70,"Velocity":37,"Duration":89020,"SoundDuration":89020,"Delta":238911029},{"NoteNumber":55,"Velocity":39,"Duration":178041,"SoundDuration":178041,"Delta":238911029},{"NoteNumber":72,"Velocity":31,"Duration":89020,"SoundDuration":89020,"Delta":239000050},{"NoteNumber":74,"Velocity":59,"Duration":526315,"SoundDuration":526315,"Delta":239089071},{"NoteNumber":70,"Velocity":37,"Duration":87719,"SoundDuration":87719,"Delta":239089071},{"NoteNumber":46,"Velocity":42,"Duration":1064941,"SoundDuration":1064941,"Delta":239089071},{"NoteNumber":53,"Velocity":42,"Duration":350876,"SoundDuration":350876,"Delta":239089071},{"NoteNumber":72,"Velocity":33,"Duration":87719,"SoundDuration":87719,"Delta":239176790},{"NoteNumber":70,"Velocity":37,"Duration":87719,"SoundDuration":87719,"Delta":239264509},{"NoteNumber":72,"Velocity":33,"Duration":87719,"SoundDuration":87719,"Delta":239352229},{"NoteNumber":70,"Velocity":37,"Duration":87719,"SoundDuration":87719,"Delta":239439948},{"NoteNumber":60,"Velocity":36,"Duration":175438,"SoundDuration":175438,"Delta":239439948},{"NoteNumber":72,"Velocity":34,"Duration":87719,"SoundDuration":87719,"Delta":239527667},{"NoteNumber":70,"Velocity":38,"Duration":87719,"SoundDuration":87719,"Delta":239615386},{"NoteNumber":80,"Velocity":59,"Duration":538625,"SoundDuration":538625,"Delta":239615386},{"NoteNumber":58,"Velocity":45,"Duration":354009,"SoundDuration":354009,"Delta":239615386},{"NoteNumber":72,"Velocity":34,"Duration":87719,"SoundDuration":87719,"Delta":239703106},{"NoteNumber":70,"Velocity":39,"Duration":89285,"SoundDuration":89285,"Delta":239790825},{"NoteNumber":72,"Velocity":33,"Duration":89285,"SoundDuration":89285,"Delta":239880111},{"NoteNumber":70,"Velocity":39,"Duration":92307,"SoundDuration":92307,"Delta":239969396},{"NoteNumber":53,"Velocity":41,"Duration":184615,"SoundDuration":184615,"Delta":239969396},{"NoteNumber":72,"Velocity":34,"Duration":92307,"SoundDuration":92307,"Delta":240061704},{"NoteNumber":70,"Velocity":40,"Duration":90634,"SoundDuration":90634,"Delta":240154012},{"NoteNumber":79,"Velocity":64,"Duration":539528,"SoundDuration":539528,"Delta":240154012},{"NoteNumber":51,"Velocity":46,"Duration":1070502,"SoundDuration":1070502,"Delta":240154012},{"NoteNumber":55,"Velocity":46,"Duration":362538,"SoundDuration":362538,"Delta":240154012},{"NoteNumber":72,"Velocity":35,"Duration":90634,"SoundDuration":90634,"Delta":240244646},{"NoteNumber":70,"Velocity":39,"Duration":90634,"SoundDuration":90634,"Delta":240335281},{"NoteNumber":72,"Velocity":35,"Duration":90634,"SoundDuration":90634,"Delta":240425915},{"NoteNumber":70,"Velocity":38,"Duration":88495,"SoundDuration":88495,"Delta":240516550},{"NoteNumber":60,"Velocity":37,"Duration":176990,"SoundDuration":176990,"Delta":240516550},{"NoteNumber":72,"Velocity":34,"Duration":88495,"SoundDuration":88495,"Delta":240605045},{"NoteNumber":75,"Velocity":60,"Duration":530973,"SoundDuration":530973,"Delta":240693541},{"NoteNumber":70,"Velocity":39,"Duration":88495,"SoundDuration":88495,"Delta":240693541},{"NoteNumber":58,"Velocity":45,"Duration":353982,"SoundDuration":353982,"Delta":240693541},{"NoteNumber":72,"Velocity":34,"Duration":88495,"SoundDuration":88495,"Delta":240782036},{"NoteNumber":70,"Velocity":38,"Duration":88495,"SoundDuration":88495,"Delta":240870532},{"NoteNumber":72,"Velocity":33,"Duration":88495,"SoundDuration":88495,"Delta":240959027},{"NoteNumber":70,"Velocity":38,"Duration":88495,"SoundDuration":88495,"Delta":241047523},{"NoteNumber":55,"Velocity":40,"Duration":176991,"SoundDuration":176991,"Delta":241047523},{"NoteNumber":72,"Velocity":32,"Duration":88495,"SoundDuration":88495,"Delta":241136018},{"NoteNumber":70,"Velocity":37,"Duration":88495,"SoundDuration":88495,"Delta":241224514},{"NoteNumber":74,"Velocity":60,"Duration":530972,"SoundDuration":530972,"Delta":241224514},{"NoteNumber":46,"Velocity":43,"Duration":1066172,"SoundDuration":1066172,"Delta":241224514},{"NoteNumber":53,"Velocity":43,"Duration":353982,"SoundDuration":353982,"Delta":241224514},{"NoteNumber":72,"Velocity":33,"Duration":88495,"SoundDuration":88495,"Delta":241313009},{"NoteNumber":70,"Velocity":37,"Duration":88495,"SoundDuration":88495,"Delta":241401505},{"NoteNumber":72,"Velocity":32,"Duration":88495,"SoundDuration":88495,"Delta":241490000},{"NoteNumber":70,"Velocity":35,"Duration":88495,"SoundDuration":88495,"Delta":241578496},{"NoteNumber":60,"Velocity":34,"Duration":176990,"SoundDuration":176990,"Delta":241578496},{"NoteNumber":72,"Velocity":32,"Duration":88495,"SoundDuration":88495,"Delta":241666991},{"NoteNumber":80,"Velocity":56,"Duration":535200,"SoundDuration":535200,"Delta":241755487},{"NoteNumber":70,"Velocity":36,"Duration":88495,"SoundDuration":88495,"Delta":241755487},{"NoteNumber":58,"Velocity":42,"Duration":356095,"SoundDuration":356095,"Delta":241755487},{"NoteNumber":72,"Velocity":32,"Duration":88495,"SoundDuration":88495,"Delta":241843982},{"NoteNumber":70,"Velocity":36,"Duration":89552,"SoundDuration":89552,"Delta":241932478},{"NoteNumber":72,"Velocity":30,"Duration":89552,"SoundDuration":89552,"Delta":242022030},{"NoteNumber":70,"Velocity":35,"Duration":89552,"SoundDuration":89552,"Delta":242111582},{"NoteNumber":53,"Velocity":37,"Duration":179104,"SoundDuration":179104,"Delta":242111582},{"NoteNumber":72,"Velocity":30,"Duration":89552,"SoundDuration":89552,"Delta":242201135},{"NoteNumber":70,"Velocity":48,"Duration":93750,"SoundDuration":93750,"Delta":242290687},{"NoteNumber":79,"Velocity":51,"Duration":93750,"SoundDuration":93750,"Delta":242290687},{"NoteNumber":58,"Velocity":40,"Duration":93750,"SoundDuration":93750,"Delta":242290687},{"NoteNumber":51,"Velocity":34,"Duration":93750,"SoundDuration":93750,"Delta":242290687},{"NoteNumber":72,"Velocity":45,"Duration":93750,"SoundDuration":93750,"Delta":242384437},{"NoteNumber":74,"Velocity":50,"Duration":90307,"SoundDuration":90307,"Delta":242478187},{"NoteNumber":55,"Velocity":29,"Duration":90307,"SoundDuration":90307,"Delta":242478187},{"NoteNumber":58,"Velocity":29,"Duration":90307,"SoundDuration":90307,"Delta":242478187},{"NoteNumber":63,"Velocity":35,"Duration":90307,"SoundDuration":90307,"Delta":242478187},{"NoteNumber":75,"Velocity":52,"Duration":89939,"SoundDuration":89939,"Delta":242568494},{"NoteNumber":77,"Velocity":54,"Duration":59766,"SoundDuration":59766,"Delta":242658433},{"NoteNumber":55,"Velocity":29,"Duration":89585,"SoundDuration":89585,"Delta":242658433},{"NoteNumber":58,"Velocity":29,"Duration":89585,"SoundDuration":89585,"Delta":242658433},{"NoteNumber":63,"Velocity":35,"Duration":89585,"SoundDuration":89585,"Delta":242658433},{"NoteNumber":79,"Velocity":56,"Duration":59581,"SoundDuration":59581,"Delta":242718200},{"NoteNumber":80,"Velocity":59,"Duration":59395,"SoundDuration":59395,"Delta":242777781},{"NoteNumber":82,"Velocity":61,"Duration":88829,"SoundDuration":88829,"Delta":242837177},{"NoteNumber":55,"Velocity":29,"Duration":88829,"SoundDuration":88829,"Delta":242837177},{"NoteNumber":58,"Velocity":29,"Duration":88829,"SoundDuration":88829,"Delta":242837177},{"NoteNumber":63,"Velocity":35,"Duration":88829,"SoundDuration":88829,"Delta":242837177},{"NoteNumber":80,"Velocity":60,"Duration":88391,"SoundDuration":88391,"Delta":242926007},{"NoteNumber":79,"Velocity":58,"Duration":58892,"SoundDuration":58892,"Delta":243014398},{"NoteNumber":55,"Velocity":29,"Duration":88391,"SoundDuration":88391,"Delta":243014398},{"NoteNumber":58,"Velocity":29,"Duration":88391,"SoundDuration":88391,"Delta":243014398},{"NoteNumber":63,"Velocity":35,"Duration":88391,"SoundDuration":88391,"Delta":243014398},{"NoteNumber":77,"Velocity":56,"Duration":59031,"SoundDuration":59031,"Delta":243073291},{"NoteNumber":75,"Velocity":54,"Duration":59171,"SoundDuration":59171,"Delta":243132323},{"NoteNumber":74,"Velocity":53,"Duration":59347,"SoundDuration":59347,"Delta":243191495},{"NoteNumber":55,"Velocity":29,"Duration":89073,"SoundDuration":89073,"Delta":243191495},{"NoteNumber":59,"Velocity":29,"Duration":89073,"SoundDuration":89073,"Delta":243191495},{"NoteNumber":63,"Velocity":35,"Duration":89073,"SoundDuration":89073,"Delta":243191495},{"NoteNumber":72,"Velocity":51,"Duration":59488,"SoundDuration":59488,"Delta":243250842},{"NoteNumber":71,"Velocity":49,"Duration":59630,"SoundDuration":59630,"Delta":243310330},{"NoteNumber":72,"Velocity":54,"Duration":93750,"SoundDuration":93750,"Delta":243369961},{"NoteNumber":75,"Velocity":45,"Duration":93170,"SoundDuration":93170,"Delta":243463711},{"NoteNumber":77,"Velocity":48,"Duration":90036,"SoundDuration":90036,"Delta":243556881},{"NoteNumber":56,"Velocity":29,"Duration":90036,"SoundDuration":90036,"Delta":243556881},{"NoteNumber":60,"Velocity":29,"Duration":90036,"SoundDuration":90036,"Delta":243556881},{"NoteNumber":63,"Velocity":35,"Duration":90036,"SoundDuration":90036,"Delta":243556881},{"NoteNumber":79,"Velocity":50,"Duration":89755,"SoundDuration":89755,"Delta":243646917},{"NoteNumber":80,"Velocity":56,"Duration":89476,"SoundDuration":89476,"Delta":243736673},{"NoteNumber":56,"Velocity":29,"Duration":89476,"SoundDuration":89476,"Delta":243736673},{"NoteNumber":60,"Velocity":29,"Duration":89476,"SoundDuration":89476,"Delta":243736673},{"NoteNumber":63,"Velocity":35,"Duration":89476,"SoundDuration":89476,"Delta":243736673},{"NoteNumber":82,"Velocity":59,"Duration":89201,"SoundDuration":89201,"Delta":243826150},{"NoteNumber":84,"Velocity":61,"Duration":88884,"SoundDuration":88884,"Delta":243915351},{"NoteNumber":56,"Velocity":29,"Duration":88884,"SoundDuration":88884,"Delta":243915351},{"NoteNumber":60,"Velocity":29,"Duration":88884,"SoundDuration":88884,"Delta":243915351},{"NoteNumber":63,"Velocity":35,"Duration":88884,"SoundDuration":88884,"Delta":243915351},{"NoteNumber":82,"Velocity":60,"Duration":88757,"SoundDuration":88757,"Delta":244004236},{"NoteNumber":80,"Velocity":58,"Duration":59283,"SoundDuration":59283,"Delta":244092994},{"NoteNumber":56,"Velocity":29,"Duration":88957,"SoundDuration":88957,"Delta":244092994},{"NoteNumber":60,"Velocity":29,"Duration":88957,"SoundDuration":88957,"Delta":244092994},{"NoteNumber":63,"Velocity":35,"Duration":88957,"SoundDuration":88957,"Delta":244092994},{"NoteNumber":79,"Velocity":57,"Duration":59347,"SoundDuration":59347,"Delta":244152277},{"NoteNumber":77,"Velocity":56,"Duration":59389,"SoundDuration":59389,"Delta":244211624},{"NoteNumber":75,"Velocity":55,"Duration":59523,"SoundDuration":59523,"Delta":244271014},{"NoteNumber":57,"Velocity":29,"Duration":89285,"SoundDuration":89285,"Delta":244271014},{"NoteNumber":63,"Velocity":29,"Duration":89285,"SoundDuration":89285,"Delta":244271014},{"NoteNumber":65,"Velocity":35,"Duration":89285,"SoundDuration":89285,"Delta":244271014},{"NoteNumber":74,"Velocity":54,"Duration":59523,"SoundDuration":59523,"Delta":244330537},{"NoteNumber":72,"Velocity":53,"Duration":59672,"SoundDuration":59672,"Delta":244390061},{"NoteNumber":70,"Velocity":57,"Duration":93750,"SoundDuration":93750,"Delta":244449734},{"NoteNumber":79,"Velocity":49,"Duration":93750,"SoundDuration":93750,"Delta":244543484},{"NoteNumber":75,"Velocity":59,"Duration":90350,"SoundDuration":90350,"Delta":244637234},{"NoteNumber":58,"Velocity":29,"Duration":90350,"SoundDuration":90350,"Delta":244637234},{"NoteNumber":63,"Velocity":29,"Duration":90350,"SoundDuration":90350,"Delta":244637234},{"NoteNumber":67,"Velocity":35,"Duration":90350,"SoundDuration":90350,"Delta":244637234},{"NoteNumber":82,"Velocity":55,"Duration":90067,"SoundDuration":90067,"Delta":244727584},{"NoteNumber":79,"Velocity":62,"Duration":89744,"SoundDuration":89744,"Delta":244817652},{"NoteNumber":58,"Velocity":29,"Duration":89744,"SoundDuration":89744,"Delta":244817652},{"NoteNumber":63,"Velocity":29,"Duration":89744,"SoundDuration":89744,"Delta":244817652},{"NoteNumber":67,"Velocity":35,"Duration":89744,"SoundDuration":89744,"Delta":244817652},{"NoteNumber":87,"Velocity":57,"Duration":89467,"SoundDuration":89467,"Delta":244907396},{"NoteNumber":82,"Velocity":62,"Duration":89190,"SoundDuration":89190,"Delta":244996864},{"NoteNumber":58,"Velocity":29,"Duration":89190,"SoundDuration":89190,"Delta":244996864},{"NoteNumber":63,"Velocity":29,"Duration":89190,"SoundDuration":89190,"Delta":244996864},{"NoteNumber":67,"Velocity":35,"Duration":89190,"SoundDuration":89190,"Delta":244996864},{"NoteNumber":91,"Velocity":57,"Duration":88854,"SoundDuration":88854,"Delta":245086055},{"NoteNumber":87,"Velocity":55,"Duration":89137,"SoundDuration":89137,"Delta":245174909},{"NoteNumber":58,"Velocity":29,"Duration":89137,"SoundDuration":89137,"Delta":245174909},{"NoteNumber":63,"Velocity":29,"Duration":89137,"SoundDuration":89137,"Delta":245174909},{"NoteNumber":67,"Velocity":35,"Duration":89137,"SoundDuration":89137,"Delta":245174909},{"NoteNumber":94,"Velocity":61,"Duration":89510,"SoundDuration":89510,"Delta":245258838},{"NoteNumber":91,"Velocity":53,"Duration":89959,"SoundDuration":89959,"Delta":245353588},{"NoteNumber":58,"Velocity":29,"Duration":89959,"SoundDuration":89959,"Delta":245353588},{"NoteNumber":63,"Velocity":29,"Duration":89959,"SoundDuration":89959,"Delta":245353588},{"NoteNumber":67,"Velocity":35,"Duration":89959,"SoundDuration":89959,"Delta":245353588},{"NoteNumber":87,"Velocity":54,"Duration":90395,"SoundDuration":90395,"Delta":245443547},{"NoteNumber":82,"Velocity":59,"Duration":361768,"SoundDuration":361768,"Delta":245533943},{"NoteNumber":67,"Velocity":35,"Duration":90634,"SoundDuration":90634,"Delta":245533943},{"NoteNumber":58,"Velocity":29,"Duration":90634,"SoundDuration":90634,"Delta":245533943},{"NoteNumber":63,"Velocity":29,"Duration":90634,"SoundDuration":90634,"Delta":245533943},{"NoteNumber":58,"Velocity":29,"Duration":90391,"SoundDuration":90391,"Delta":245715212},{"NoteNumber":63,"Velocity":29,"Duration":90391,"SoundDuration":90391,"Delta":245715212},{"NoteNumber":67,"Velocity":35,"Duration":90391,"SoundDuration":90391,"Delta":245715212},{"NoteNumber":58,"Velocity":29,"Duration":89780,"SoundDuration":89780,"Delta":245895711},{"NoteNumber":63,"Velocity":29,"Duration":89780,"SoundDuration":89780,"Delta":245895711},{"NoteNumber":67,"Velocity":35,"Duration":89780,"SoundDuration":89780,"Delta":245895711},{"NoteNumber":89,"Velocity":59,"Duration":60438,"SoundDuration":60438,"Delta":246074988},{"NoteNumber":58,"Velocity":29,"Duration":90686,"SoundDuration":90686,"Delta":246074988},{"NoteNumber":62,"Velocity":29,"Duration":90686,"SoundDuration":90686,"Delta":246074988},{"NoteNumber":68,"Velocity":35,"Duration":90686,"SoundDuration":90686,"Delta":246074988},{"NoteNumber":91,"Velocity":52,"Duration":60400,"SoundDuration":60400,"Delta":246135427},{"NoteNumber":89,"Velocity":59,"Duration":60024,"SoundDuration":60024,"Delta":246195827},{"NoteNumber":91,"Velocity":54,"Duration":59442,"SoundDuration":59442,"Delta":246255852},{"NoteNumber":58,"Velocity":29,"Duration":89235,"SoundDuration":89235,"Delta":246255852},{"NoteNumber":62,"Velocity":29,"Duration":89235,"SoundDuration":89235,"Delta":246255852},{"NoteNumber":68,"Velocity":35,"Duration":89235,"SoundDuration":89235,"Delta":246255852},{"NoteNumber":89,"Velocity":59,"Duration":59679,"SoundDuration":59679,"Delta":246315294},{"NoteNumber":91,"Velocity":53,"Duration":59965,"SoundDuration":59965,"Delta":246374974},{"NoteNumber":89,"Velocity":59,"Duration":60343,"SoundDuration":60343,"Delta":246434939},{"NoteNumber":58,"Velocity":29,"Duration":90646,"SoundDuration":90646,"Delta":246434939},{"NoteNumber":62,"Velocity":29,"Duration":90646,"SoundDuration":90646,"Delta":246434939},{"NoteNumber":68,"Velocity":35,"Duration":90646,"SoundDuration":90646,"Delta":246434939},{"NoteNumber":91,"Velocity":53,"Duration":60605,"SoundDuration":60605,"Delta":246495283},{"NoteNumber":89,"Velocity":56,"Duration":60605,"SoundDuration":60605,"Delta":246555889},{"NoteNumber":91,"Velocity":67,"Duration":549366,"SoundDuration":549366,"Delta":246616495},{"NoteNumber":82,"Velocity":45,"Duration":92024,"SoundDuration":92024,"Delta":246616495},{"NoteNumber":63,"Velocity":40,"Duration":1093174,"SoundDuration":1093174,"Delta":246616495},{"NoteNumber":67,"Velocity":40,"Duration":368098,"SoundDuration":368098,"Delta":246616495},{"NoteNumber":84,"Velocity":34,"Duration":92024,"SoundDuration":92024,"Delta":246708519},{"NoteNumber":82,"Velocity":38,"Duration":92024,"SoundDuration":92024,"Delta":246800544},{"NoteNumber":84,"Velocity":34,"Duration":92024,"SoundDuration":92024,"Delta":246892568},{"NoteNumber":82,"Velocity":37,"Duration":90634,"SoundDuration":90634,"Delta":246984593},{"NoteNumber":72,"Velocity":33,"Duration":181268,"SoundDuration":181268,"Delta":246984593},{"NoteNumber":84,"Velocity":34,"Duration":90634,"SoundDuration":90634,"Delta":247075227},{"NoteNumber":87,"Velocity":60,"Duration":543807,"SoundDuration":543807,"Delta":247165862},{"NoteNumber":82,"Velocity":39,"Duration":90634,"SoundDuration":90634,"Delta":247165862},{"NoteNumber":70,"Velocity":42,"Duration":362538,"SoundDuration":362538,"Delta":247165862},{"NoteNumber":84,"Velocity":35,"Duration":90634,"SoundDuration":90634,"Delta":247256496},{"NoteNumber":82,"Velocity":39,"Duration":90634,"SoundDuration":90634,"Delta":247347131},{"NoteNumber":84,"Velocity":34,"Duration":90634,"SoundDuration":90634,"Delta":247437765},{"NoteNumber":82,"Velocity":40,"Duration":90634,"SoundDuration":90634,"Delta":247528400},{"NoteNumber":67,"Velocity":39,"Duration":181269,"SoundDuration":181269,"Delta":247528400},{"NoteNumber":84,"Velocity":34,"Duration":90634,"SoundDuration":90634,"Delta":247619034},{"NoteNumber":82,"Velocity":40,"Duration":89020,"SoundDuration":89020,"Delta":247709669},{"NoteNumber":86,"Velocity":64,"Duration":534124,"SoundDuration":534124,"Delta":247709669},{"NoteNumber":58,"Velocity":42,"Duration":1078599,"SoundDuration":1078599,"Delta":247709669},{"NoteNumber":65,"Velocity":42,"Duration":356083,"SoundDuration":356083,"Delta":247709669},{"NoteNumber":84,"Velocity":36,"Duration":89020,"SoundDuration":89020,"Delta":247798689},{"NoteNumber":82,"Velocity":40,"Duration":89020,"SoundDuration":89020,"Delta":247887710},{"NoteNumber":84,"Velocity":36,"Duration":89020,"SoundDuration":89020,"Delta":247976731},{"NoteNumber":82,"Velocity":40,"Duration":89020,"SoundDuration":89020,"Delta":248065752},{"NoteNumber":72,"Velocity":36,"Duration":178041,"SoundDuration":178041,"Delta":248065752},{"NoteNumber":84,"Velocity":37,"Duration":89020,"SoundDuration":89020,"Delta":248154772},{"NoteNumber":92,"Velocity":64,"Duration":544475,"SoundDuration":544475,"Delta":248243793},{"NoteNumber":82,"Velocity":41,"Duration":89020,"SoundDuration":89020,"Delta":248243793},{"NoteNumber":70,"Velocity":45,"Duration":359859,"SoundDuration":359859,"Delta":248243793},{"NoteNumber":84,"Velocity":37,"Duration":89020,"SoundDuration":89020,"Delta":248332814},{"NoteNumber":82,"Velocity":42,"Duration":90909,"SoundDuration":90909,"Delta":248421835},{"NoteNumber":84,"Velocity":36,"Duration":90908,"SoundDuration":90908,"Delta":248512744},{"NoteNumber":82,"Velocity":42,"Duration":92307,"SoundDuration":92307,"Delta":248603653},{"NoteNumber":65,"Velocity":41,"Duration":184615,"SoundDuration":184615,"Delta":248603653},{"NoteNumber":84,"Velocity":37,"Duration":92307,"SoundDuration":92307,"Delta":248695960},{"NoteNumber":91,"Velocity":70,"Duration":544382,"SoundDuration":544382,"Delta":248788268},{"NoteNumber":82,"Velocity":44,"Duration":91185,"SoundDuration":91185,"Delta":248788268},{"NoteNumber":63,"Velocity":46,"Duration":1083303,"SoundDuration":1083303,"Delta":248788268},{"NoteNumber":67,"Velocity":46,"Duration":364742,"SoundDuration":364742,"Delta":248788268},{"NoteNumber":84,"Velocity":38,"Duration":91185,"SoundDuration":91185,"Delta":248879454},{"NoteNumber":82,"Velocity":42,"Duration":91185,"SoundDuration":91185,"Delta":248970639},{"NoteNumber":84,"Velocity":38,"Duration":91185,"SoundDuration":91185,"Delta":249061825},{"NoteNumber":82,"Velocity":41,"Duration":89820,"SoundDuration":89820,"Delta":249153010},{"NoteNumber":72,"Velocity":37,"Duration":179640,"SoundDuration":179640,"Delta":249153010},{"NoteNumber":84,"Velocity":37,"Duration":89820,"SoundDuration":89820,"Delta":249242830},{"NoteNumber":82,"Velocity":42,"Duration":89820,"SoundDuration":89820,"Delta":249332651},{"NoteNumber":87,"Velocity":66,"Duration":538921,"SoundDuration":538921,"Delta":249332651},{"NoteNumber":70,"Velocity":45,"Duration":359280,"SoundDuration":359280,"Delta":249332651},{"NoteNumber":84,"Velocity":37,"Duration":89820,"SoundDuration":89820,"Delta":249422471},{"NoteNumber":82,"Velocity":41,"Duration":89820,"SoundDuration":89820,"Delta":249512291},{"NoteNumber":84,"Velocity":36,"Duration":89820,"SoundDuration":89820,"Delta":249602111},{"NoteNumber":82,"Velocity":41,"Duration":89820,"SoundDuration":89820,"Delta":249691932},{"NoteNumber":67,"Velocity":40,"Duration":179640,"SoundDuration":179640,"Delta":249691932},{"NoteNumber":84,"Velocity":35,"Duration":89820,"SoundDuration":89820,"Delta":249781752},{"NoteNumber":86,"Velocity":66,"Duration":537313,"SoundDuration":537313,"Delta":249871572},{"NoteNumber":82,"Velocity":40,"Duration":89552,"SoundDuration":89552,"Delta":249871572},{"NoteNumber":58,"Velocity":43,"Duration":1080054,"SoundDuration":1080054,"Delta":249871572},{"NoteNumber":65,"Velocity":43,"Duration":358208,"SoundDuration":358208,"Delta":249871572},{"NoteNumber":84,"Velocity":36,"Duration":89552,"SoundDuration":89552,"Delta":249961124},{"NoteNumber":82,"Velocity":40,"Duration":89552,"SoundDuration":89552,"Delta":250050677},{"NoteNumber":84,"Velocity":35,"Duration":89552,"SoundDuration":89552,"Delta":250140229},{"NoteNumber":82,"Velocity":38,"Duration":89552,"SoundDuration":89552,"Delta":250229781},{"NoteNumber":72,"Velocity":34,"Duration":179104,"SoundDuration":179104,"Delta":250229781},{"NoteNumber":84,"Velocity":35,"Duration":89552,"SoundDuration":89552,"Delta":250319333},{"NoteNumber":82,"Velocity":39,"Duration":89552,"SoundDuration":89552,"Delta":250408886},{"NoteNumber":92,"Velocity":61,"Duration":542740,"SoundDuration":542740,"Delta":250408886},{"NoteNumber":70,"Velocity":42,"Duration":360922,"SoundDuration":360922,"Delta":250408886},{"NoteNumber":84,"Velocity":35,"Duration":89552,"SoundDuration":89552,"Delta":250498438},{"NoteNumber":82,"Velocity":39,"Duration":90909,"SoundDuration":90909,"Delta":250587990},{"NoteNumber":84,"Velocity":33,"Duration":90908,"SoundDuration":90908,"Delta":250678899},{"NoteNumber":82,"Velocity":38,"Duration":90909,"SoundDuration":90909,"Delta":250769808},{"NoteNumber":65,"Velocity":37,"Duration":181818,"SoundDuration":181818,"Delta":250769808},{"NoteNumber":84,"Velocity":33,"Duration":90909,"SoundDuration":90909,"Delta":250860717},{"NoteNumber":63,"Velocity":51,"Duration":93750,"SoundDuration":93750,"Delta":250951626},{"NoteNumber":67,"Velocity":45,"Duration":93750,"SoundDuration":93750,"Delta":251045376},{"NoteNumber":87,"Velocity":49,"Duration":90307,"SoundDuration":90307,"Delta":251139126},{"NoteNumber":91,"Velocity":49,"Duration":90307,"SoundDuration":90307,"Delta":251139126},{"NoteNumber":68,"Velocity":50,"Duration":90307,"SoundDuration":90307,"Delta":251139126},{"NoteNumber":70,"Velocity":52,"Duration":89939,"SoundDuration":89939,"Delta":251229433},{"NoteNumber":91,"Velocity":49,"Duration":89585,"SoundDuration":89585,"Delta":251319373},{"NoteNumber":87,"Velocity":49,"Duration":89585,"SoundDuration":89585,"Delta":251319373},{"NoteNumber":72,"Velocity":54,"Duration":89585,"SoundDuration":89585,"Delta":251319373},{"NoteNumber":74,"Velocity":56,"Duration":89157,"SoundDuration":89157,"Delta":251408959},{"NoteNumber":87,"Velocity":52,"Duration":88829,"SoundDuration":88829,"Delta":251498116},{"NoteNumber":91,"Velocity":52,"Duration":88829,"SoundDuration":88829,"Delta":251498116},{"NoteNumber":75,"Velocity":61,"Duration":88829,"SoundDuration":88829,"Delta":251498116},{"NoteNumber":74,"Velocity":60,"Duration":88391,"SoundDuration":88391,"Delta":251586946},{"NoteNumber":87,"Velocity":46,"Duration":88391,"SoundDuration":88391,"Delta":251675338},{"NoteNumber":91,"Velocity":46,"Duration":88391,"SoundDuration":88391,"Delta":251675338},{"NoteNumber":72,"Velocity":58,"Duration":88391,"SoundDuration":88391,"Delta":251675338},{"NoteNumber":70,"Velocity":57,"Duration":88705,"SoundDuration":88705,"Delta":251763729},{"NoteNumber":87,"Velocity":46,"Duration":89073,"SoundDuration":89073,"Delta":251852434},{"NoteNumber":91,"Velocity":46,"Duration":89073,"SoundDuration":89073,"Delta":251852434},{"NoteNumber":68,"Velocity":55,"Duration":89073,"SoundDuration":89073,"Delta":251852434},{"NoteNumber":67,"Velocity":54,"Duration":89392,"SoundDuration":89392,"Delta":251941508},{"NoteNumber":68,"Velocity":51,"Duration":93750,"SoundDuration":93750,"Delta":252030900},{"NoteNumber":72,"Velocity":45,"Duration":93170,"SoundDuration":93170,"Delta":252124650},{"NoteNumber":87,"Velocity":49,"Duration":90036,"SoundDuration":90036,"Delta":252217821},{"NoteNumber":89,"Velocity":49,"Duration":90036,"SoundDuration":90036,"Delta":252217821},{"NoteNumber":74,"Velocity":48,"Duration":90036,"SoundDuration":90036,"Delta":252217821},{"NoteNumber":75,"Velocity":50,"Duration":89755,"SoundDuration":89755,"Delta":252307857},{"NoteNumber":89,"Velocity":49,"Duration":89476,"SoundDuration":89476,"Delta":252397612},{"NoteNumber":87,"Velocity":49,"Duration":89476,"SoundDuration":89476,"Delta":252397612},{"NoteNumber":77,"Velocity":55,"Duration":89476,"SoundDuration":89476,"Delta":252397612},{"NoteNumber":79,"Velocity":57,"Duration":89201,"SoundDuration":89201,"Delta":252487089},{"NoteNumber":89,"Velocity":53,"Duration":88884,"SoundDuration":88884,"Delta":252576291},{"NoteNumber":87,"Velocity":53,"Duration":88884,"SoundDuration":88884,"Delta":252576291},{"NoteNumber":80,"Velocity":62,"Duration":88884,"SoundDuration":88884,"Delta":252576291},{"NoteNumber":79,"Velocity":60,"Duration":88757,"SoundDuration":88757,"Delta":252665176},{"NoteNumber":89,"Velocity":48,"Duration":88957,"SoundDuration":88957,"Delta":252753933},{"NoteNumber":87,"Velocity":48,"Duration":88957,"SoundDuration":88957,"Delta":252753933},{"NoteNumber":77,"Velocity":59,"Duration":88957,"SoundDuration":88957,"Delta":252753933},{"NoteNumber":75,"Velocity":58,"Duration":89062,"SoundDuration":89062,"Delta":252842890},{"NoteNumber":89,"Velocity":50,"Duration":89285,"SoundDuration":89285,"Delta":252931953},{"NoteNumber":87,"Velocity":50,"Duration":89285,"SoundDuration":89285,"Delta":252931953},{"NoteNumber":74,"Velocity":57,"Duration":89285,"SoundDuration":89285,"Delta":252931953},{"NoteNumber":72,"Velocity":55,"Duration":89434,"SoundDuration":89434,"Delta":253021239},{"NoteNumber":70,"Velocity":60,"Duration":93750,"SoundDuration":93750,"Delta":253110673},{"NoteNumber":58,"Velocity":52,"Duration":93750,"SoundDuration":93750,"Delta":253204423},{"NoteNumber":91,"Velocity":52,"Duration":90350,"SoundDuration":90350,"Delta":253298173},{"NoteNumber":87,"Velocity":52,"Duration":90350,"SoundDuration":90350,"Delta":253298173},{"NoteNumber":63,"Velocity":63,"Duration":90350,"SoundDuration":90350,"Delta":253298173},{"NoteNumber":67,"Velocity":59,"Duration":90067,"SoundDuration":90067,"Delta":253388523},{"NoteNumber":91,"Velocity":53,"Duration":89744,"SoundDuration":89744,"Delta":253478591},{"NoteNumber":87,"Velocity":53,"Duration":89744,"SoundDuration":89744,"Delta":253478591},{"NoteNumber":70,"Velocity":68,"Duration":89744,"SoundDuration":89744,"Delta":253478591},{"NoteNumber":75,"Velocity":62,"Duration":89467,"SoundDuration":89467,"Delta":253568335},{"NoteNumber":91,"Velocity":57,"Duration":93750,"SoundDuration":93750,"Delta":253657803},{"NoteNumber":87,"Velocity":57,"Duration":93750,"SoundDuration":93750,"Delta":253657803},{"NoteNumber":79,"Velocity":63,"Duration":93750,"SoundDuration":93750,"Delta":253657803},{"NoteNumber":75,"Velocity":54,"Duration":93750,"SoundDuration":93750,"Delta":253751553},{"NoteNumber":91,"Velocity":51,"Duration":90350,"SoundDuration":90350,"Delta":253845303},{"NoteNumber":87,"Velocity":51,"Duration":90350,"SoundDuration":90350,"Delta":253845303},{"NoteNumber":82,"Velocity":66,"Duration":90350,"SoundDuration":90350,"Delta":253845303},{"NoteNumber":79,"Velocity":62,"Duration":90067,"SoundDuration":90067,"Delta":253935653},{"NoteNumber":91,"Velocity":52,"Duration":89744,"SoundDuration":89744,"Delta":254025721},{"NoteNumber":87,"Velocity":52,"Duration":89744,"SoundDuration":89744,"Delta":254025721},{"NoteNumber":75,"Velocity":70,"Duration":89744,"SoundDuration":89744,"Delta":254025721},{"NoteNumber":70,"Velocity":64,"Duration":89467,"SoundDuration":89467,"Delta":254115465},{"NoteNumber":89,"Velocity":64,"Duration":89285,"SoundDuration":89285,"Delta":254204933},{"NoteNumber":86,"Velocity":64,"Duration":89285,"SoundDuration":89285,"Delta":254204933},{"NoteNumber":70,"Velocity":60,"Duration":178571,"SoundDuration":178571,"Delta":254204933},{"NoteNumber":77,"Velocity":67,"Duration":59523,"SoundDuration":59523,"Delta":254204933},{"NoteNumber":79,"Velocity":59,"Duration":59523,"SoundDuration":59523,"Delta":254264457},{"NoteNumber":77,"Velocity":67,"Duration":59523,"SoundDuration":59523,"Delta":254323981},{"NoteNumber":89,"Velocity":50,"Duration":90782,"SoundDuration":90782,"Delta":254383505},{"NoteNumber":86,"Velocity":50,"Duration":90782,"SoundDuration":90782,"Delta":254383505},{"NoteNumber":79,"Velocity":61,"Duration":60392,"SoundDuration":60392,"Delta":254383505},{"NoteNumber":77,"Velocity":66,"Duration":60693,"SoundDuration":60693,"Delta":254443897},{"NoteNumber":79,"Velocity":59,"Duration":60503,"SoundDuration":60503,"Delta":254504590},{"NoteNumber":89,"Velocity":49,"Duration":90404,"SoundDuration":90404,"Delta":254565093},{"NoteNumber":86,"Velocity":49,"Duration":90404,"SoundDuration":90404,"Delta":254565093},{"NoteNumber":77,"Velocity":66,"Duration":60311,"SoundDuration":60311,"Delta":254565093},{"NoteNumber":79,"Velocity":59,"Duration":60123,"SoundDuration":60123,"Delta":254625405},{"NoteNumber":77,"Velocity":62,"Duration":59936,"SoundDuration":59936,"Delta":254685528},{"NoteNumber":86,"Velocity":58,"Duration":89299,"SoundDuration":89299,"Delta":254745465},{"NoteNumber":89,"Velocity":58,"Duration":89299,"SoundDuration":89299,"Delta":254745465},{"NoteNumber":79,"Velocity":56,"Duration":59537,"SoundDuration":59537,"Delta":254745465},{"NoteNumber":77,"Velocity":63,"Duration":59523,"SoundDuration":59523,"Delta":254805002},{"NoteNumber":79,"Velocity":55,"Duration":59523,"SoundDuration":59523,"Delta":254864526},{"NoteNumber":86,"Velocity":49,"Duration":89190,"SoundDuration":89190,"Delta":254924050},{"NoteNumber":89,"Velocity":49,"Duration":89190,"SoundDuration":89190,"Delta":254924050},{"NoteNumber":77,"Velocity":63,"Duration":59397,"SoundDuration":59397,"Delta":254924050},{"NoteNumber":79,"Velocity":55,"Duration":59679,"SoundDuration":59679,"Delta":254983447},{"NoteNumber":77,"Velocity":63,"Duration":59965,"SoundDuration":59965,"Delta":255043127},{"NoteNumber":86,"Velocity":48,"Duration":90646,"SoundDuration":90646,"Delta":255103093},{"NoteNumber":89,"Velocity":48,"Duration":90646,"SoundDuration":90646,"Delta":255103093},{"NoteNumber":79,"Velocity":55,"Duration":60343,"SoundDuration":60343,"Delta":255103093},{"NoteNumber":77,"Velocity":63,"Duration":60605,"SoundDuration":60605,"Delta":255163436},{"NoteNumber":79,"Velocity":59,"Duration":60722,"SoundDuration":60722,"Delta":255224042},{"NoteNumber":70,"Velocity":62,"Duration":92182,"SoundDuration":92182,"Delta":255284765},{"NoteNumber":76,"Velocity":55,"Duration":91619,"SoundDuration":91619,"Delta":255376947},{"NoteNumber":77,"Velocity":58,"Duration":91031,"SoundDuration":91031,"Delta":255468567},{"NoteNumber":79,"Velocity":60,"Duration":90459,"SoundDuration":90459,"Delta":255559598},{"NoteNumber":85,"Velocity":68,"Duration":549482,"SoundDuration":549482,"Delta":255650057},{"NoteNumber":97,"Velocity":80,"Duration":549482,"SoundDuration":549482,"Delta":255650057},{"NoteNumber":77,"Velocity":58,"Duration":95846,"SoundDuration":95846,"Delta":255650057},{"NoteNumber":76,"Velocity":58,"Duration":92189,"SoundDuration":92189,"Delta":255745904},{"NoteNumber":68,"Velocity":61,"Duration":90361,"SoundDuration":90361,"Delta":255838094},{"NoteNumber":77,"Velocity":56,"Duration":90361,"SoundDuration":90361,"Delta":255928456},{"NoteNumber":79,"Velocity":59,"Duration":90361,"SoundDuration":90361,"Delta":256018817},{"NoteNumber":80,"Velocity":61,"Duration":90361,"SoundDuration":90361,"Delta":256109179},{"NoteNumber":96,"Velocity":77,"Duration":186580,"SoundDuration":186580,"Delta":256199540},{"NoteNumber":84,"Velocity":64,"Duration":186580,"SoundDuration":186580,"Delta":256199540},{"NoteNumber":79,"Velocity":57,"Duration":91886,"SoundDuration":91886,"Delta":256199540},{"NoteNumber":77,"Velocity":57,"Duration":94694,"SoundDuration":94694,"Delta":256291427},{"NoteNumber":56,"Velocity":62,"Duration":91883,"SoundDuration":91883,"Delta":256390722},{"NoteNumber":62,"Velocity":55,"Duration":91340,"SoundDuration":91340,"Delta":256478021},{"NoteNumber":63,"Velocity":58,"Duration":90755,"SoundDuration":90755,"Delta":256569362},{"NoteNumber":65,"Velocity":60,"Duration":90338,"SoundDuration":90338,"Delta":256656352},{"NoteNumber":71,"Velocity":69,"Duration":543771,"SoundDuration":543771,"Delta":256750434},{"NoteNumber":83,"Velocity":81,"Duration":543771,"SoundDuration":543771,"Delta":256750434},{"NoteNumber":63,"Velocity":59,"Duration":93457,"SoundDuration":93457,"Delta":256750434},{"NoteNumber":62,"Velocity":59,"Duration":91032,"SoundDuration":91032,"Delta":256843892},{"NoteNumber":55,"Velocity":62,"Duration":89820,"SoundDuration":89820,"Delta":256934925},{"NoteNumber":63,"Velocity":57,"Duration":89820,"SoundDuration":89820,"Delta":257024745},{"NoteNumber":65,"Velocity":61,"Duration":89820,"SoundDuration":89820,"Delta":257114565},{"NoteNumber":67,"Velocity":64,"Duration":89820,"SoundDuration":89820,"Delta":257204386},{"NoteNumber":70,"Velocity":67,"Duration":184079,"SoundDuration":184079,"Delta":257294206},{"NoteNumber":82,"Velocity":80,"Duration":184079,"SoundDuration":184079,"Delta":257294206},{"NoteNumber":65,"Velocity":59,"Duration":90936,"SoundDuration":90936,"Delta":257294206},{"NoteNumber":63,"Velocity":60,"Duration":93143,"SoundDuration":93143,"Delta":257385142},{"NoteNumber":46,"Velocity":65,"Duration":92460,"SoundDuration":92460,"Delta":257482930},{"NoteNumber":52,"Velocity":58,"Duration":91576,"SoundDuration":91576,"Delta":257570789},{"NoteNumber":53,"Velocity":62,"Duration":90612,"SoundDuration":90612,"Delta":257662365},{"NoteNumber":55,"Velocity":64,"Duration":89769,"SoundDuration":89769,"Delta":257749223},{"NoteNumber":61,"Velocity":73,"Duration":543841,"SoundDuration":543841,"Delta":257842724},{"NoteNumber":73,"Velocity":86,"Duration":543841,"SoundDuration":543841,"Delta":257842724},{"NoteNumber":53,"Velocity":62,"Duration":97087,"SoundDuration":97087,"Delta":257842724},{"NoteNumber":52,"Velocity":63,"Duration":89610,"SoundDuration":89610,"Delta":257939812},{"NoteNumber":44,"Velocity":67,"Duration":89285,"SoundDuration":89285,"Delta":258029422},{"NoteNumber":53,"Velocity":61,"Duration":89285,"SoundDuration":89285,"Delta":258118708},{"NoteNumber":55,"Velocity":65,"Duration":89285,"SoundDuration":89285,"Delta":258207994},{"NoteNumber":56,"Velocity":67,"Duration":89285,"SoundDuration":89285,"Delta":258297280},{"NoteNumber":60,"Velocity":63,"Duration":182453,"SoundDuration":182453,"Delta":258386565},{"NoteNumber":72,"Velocity":77,"Duration":182453,"SoundDuration":182453,"Delta":258386565},{"NoteNumber":55,"Velocity":63,"Duration":89285,"SoundDuration":89285,"Delta":258386565},{"NoteNumber":53,"Velocity":63,"Duration":93167,"SoundDuration":93167,"Delta":258475851},{"NoteNumber":32,"Velocity":70,"Duration":91477,"SoundDuration":91477,"Delta":258573483},{"NoteNumber":38,"Velocity":62,"Duration":90788,"SoundDuration":90788,"Delta":258660401},{"NoteNumber":39,"Velocity":66,"Duration":89940,"SoundDuration":89940,"Delta":258751190},{"NoteNumber":41,"Velocity":68,"Duration":89191,"SoundDuration":89191,"Delta":258837398},{"NoteNumber":47,"Velocity":78,"Duration":543055,"SoundDuration":543055,"Delta":258930299},{"NoteNumber":59,"Velocity":92,"Duration":543055,"SoundDuration":543055,"Delta":258930299},{"NoteNumber":39,"Velocity":66,"Duration":94043,"SoundDuration":94043,"Delta":258930299},{"NoteNumber":38,"Velocity":67,"Duration":89730,"SoundDuration":89730,"Delta":259024343},{"NoteNumber":31,"Velocity":70,"Duration":89820,"SoundDuration":89820,"Delta":259114073},{"NoteNumber":39,"Velocity":65,"Duration":89820,"SoundDuration":89820,"Delta":259203894},{"NoteNumber":41,"Velocity":69,"Duration":89820,"SoundDuration":89820,"Delta":259293714},{"NoteNumber":43,"Velocity":71,"Duration":89820,"SoundDuration":89820,"Delta":259383534},{"NoteNumber":46,"Velocity":75,"Duration":182127,"SoundDuration":182127,"Delta":259473354},{"NoteNumber":58,"Velocity":90,"Duration":182127,"SoundDuration":182127,"Delta":259473354},{"NoteNumber":41,"Velocity":67,"Duration":89820,"SoundDuration":89820,"Delta":259473354},{"NoteNumber":39,"Velocity":67,"Duration":92307,"SoundDuration":92307,"Delta":259563175},{"NoteNumber":31,"Velocity":70,"Duration":90089,"SoundDuration":90089,"Delta":259655482},{"NoteNumber":34,"Velocity":62,"Duration":90090,"SoundDuration":90090,"Delta":259745572},{"NoteNumber":70,"Velocity":71,"Duration":90089,"SoundDuration":90089,"Delta":259835662},{"NoteNumber":58,"Velocity":60,"Duration":90089,"SoundDuration":90089,"Delta":259835662},{"NoteNumber":39,"Velocity":66,"Duration":90089,"SoundDuration":90089,"Delta":259835662},{"NoteNumber":43,"Velocity":68,"Duration":90090,"SoundDuration":90090,"Delta":259925752},{"NoteNumber":70,"Velocity":68,"Duration":90089,"SoundDuration":90089,"Delta":260015842},{"NoteNumber":58,"Velocity":57,"Duration":90089,"SoundDuration":90089,"Delta":260015842},{"NoteNumber":39,"Velocity":66,"Duration":90089,"SoundDuration":90089,"Delta":260015842},{"NoteNumber":34,"Velocity":63,"Duration":94043,"SoundDuration":94043,"Delta":260105932},{"NoteNumber":36,"Velocity":70,"Duration":89820,"SoundDuration":89820,"Delta":260199976},{"NoteNumber":39,"Velocity":65,"Duration":89820,"SoundDuration":89820,"Delta":260289797},{"NoteNumber":68,"Velocity":69,"Duration":89820,"SoundDuration":89820,"Delta":260379617},{"NoteNumber":56,"Velocity":58,"Duration":89820,"SoundDuration":89820,"Delta":260379617},{"NoteNumber":43,"Velocity":69,"Duration":89820,"SoundDuration":89820,"Delta":260379617},{"NoteNumber":48,"Velocity":71,"Duration":89820,"SoundDuration":89820,"Delta":260469437},{"NoteNumber":67,"Velocity":65,"Duration":89820,"SoundDuration":89820,"Delta":260559257},{"NoteNumber":55,"Velocity":55,"Duration":89820,"SoundDuration":89820,"Delta":260559257},{"NoteNumber":43,"Velocity":67,"Duration":89820,"SoundDuration":89820,"Delta":260559257},{"NoteNumber":39,"Velocity":64,"Duration":89820,"SoundDuration":89820,"Delta":260649078},{"NoteNumber":32,"Velocity":70,"Duration":90089,"SoundDuration":90089,"Delta":260738898},{"NoteNumber":36,"Velocity":62,"Duration":90090,"SoundDuration":90090,"Delta":260828988},{"NoteNumber":67,"Velocity":71,"Duration":90089,"SoundDuration":90089,"Delta":260919078},{"NoteNumber":55,"Velocity":60,"Duration":90089,"SoundDuration":90089,"Delta":260919078},{"NoteNumber":41,"Velocity":66,"Duration":90089,"SoundDuration":90089,"Delta":260919078},{"NoteNumber":44,"Velocity":68,"Duration":90090,"SoundDuration":90090,"Delta":261009168},{"NoteNumber":65,"Velocity":68,"Duration":90089,"SoundDuration":90089,"Delta":261099258},{"NoteNumber":53,"Velocity":57,"Duration":90089,"SoundDuration":90089,"Delta":261099258},{"NoteNumber":41,"Velocity":66,"Duration":90089,"SoundDuration":90089,"Delta":261099258},{"NoteNumber":36,"Velocity":63,"Duration":94043,"SoundDuration":94043,"Delta":261189348},{"NoteNumber":34,"Velocity":70,"Duration":89820,"SoundDuration":89820,"Delta":261283392},{"NoteNumber":41,"Velocity":65,"Duration":89820,"SoundDuration":89820,"Delta":261373212},{"NoteNumber":63,"Velocity":69,"Duration":89820,"SoundDuration":89820,"Delta":261463032},{"NoteNumber":51,"Velocity":58,"Duration":89820,"SoundDuration":89820,"Delta":261463032},{"NoteNumber":44,"Velocity":69,"Duration":89820,"SoundDuration":89820,"Delta":261463032},{"NoteNumber":46,"Velocity":71,"Duration":89820,"SoundDuration":89820,"Delta":261552853},{"NoteNumber":62,"Velocity":65,"Duration":89820,"SoundDuration":89820,"Delta":261642673},{"NoteNumber":50,"Velocity":55,"Duration":89820,"SoundDuration":89820,"Delta":261642673},{"NoteNumber":44,"Velocity":67,"Duration":89820,"SoundDuration":89820,"Delta":261642673},{"NoteNumber":41,"Velocity":64,"Duration":89820,"SoundDuration":89820,"Delta":261732493},{"NoteNumber":43,"Velocity":70,"Duration":89820,"SoundDuration":89820,"Delta":261822313},{"NoteNumber":46,"Velocity":62,"Duration":89820,"SoundDuration":89820,"Delta":261912134},{"NoteNumber":82,"Velocity":71,"Duration":89820,"SoundDuration":89820,"Delta":262001954},{"NoteNumber":70,"Velocity":60,"Duration":89820,"SoundDuration":89820,"Delta":262001954},{"NoteNumber":51,"Velocity":66,"Duration":89820,"SoundDuration":89820,"Delta":262001954},{"NoteNumber":55,"Velocity":68,"Duration":89820,"SoundDuration":89820,"Delta":262091774},{"NoteNumber":82,"Velocity":68,"Duration":89820,"SoundDuration":89820,"Delta":262181594},{"NoteNumber":70,"Velocity":57,"Duration":89820,"SoundDuration":89820,"Delta":262181594},{"NoteNumber":51,"Velocity":66,"Duration":89820,"SoundDuration":89820,"Delta":262181594},{"NoteNumber":46,"Velocity":63,"Duration":94043,"SoundDuration":94043,"Delta":262271415},{"NoteNumber":48,"Velocity":70,"Duration":89820,"SoundDuration":89820,"Delta":262365459},{"NoteNumber":51,"Velocity":65,"Duration":89820,"SoundDuration":89820,"Delta":262455279},{"NoteNumber":80,"Velocity":69,"Duration":89820,"SoundDuration":89820,"Delta":262545099},{"NoteNumber":68,"Velocity":58,"Duration":89820,"SoundDuration":89820,"Delta":262545099},{"NoteNumber":55,"Velocity":69,"Duration":89820,"SoundDuration":89820,"Delta":262545099},{"NoteNumber":60,"Velocity":71,"Duration":89820,"SoundDuration":89820,"Delta":262634919},{"NoteNumber":79,"Velocity":65,"Duration":89820,"SoundDuration":89820,"Delta":262724740},{"NoteNumber":67,"Velocity":55,"Duration":89820,"SoundDuration":89820,"Delta":262724740},{"NoteNumber":55,"Velocity":67,"Duration":89820,"SoundDuration":89820,"Delta":262724740},{"NoteNumber":51,"Velocity":64,"Duration":89820,"SoundDuration":89820,"Delta":262814560},{"NoteNumber":44,"Velocity":70,"Duration":90089,"SoundDuration":90089,"Delta":262904380},{"NoteNumber":48,"Velocity":62,"Duration":90090,"SoundDuration":90090,"Delta":262994470},{"NoteNumber":79,"Velocity":71,"Duration":90089,"SoundDuration":90089,"Delta":263084560},{"NoteNumber":67,"Velocity":60,"Duration":90089,"SoundDuration":90089,"Delta":263084560},{"NoteNumber":53,"Velocity":66,"Duration":90089,"SoundDuration":90089,"Delta":263084560},{"NoteNumber":56,"Velocity":68,"Duration":90090,"SoundDuration":90090,"Delta":263174650},{"NoteNumber":77,"Velocity":68,"Duration":90089,"SoundDuration":90089,"Delta":263264740},{"NoteNumber":65,"Velocity":57,"Duration":90089,"SoundDuration":90089,"Delta":263264740},{"NoteNumber":53,"Velocity":66,"Duration":90089,"SoundDuration":90089,"Delta":263264740},{"NoteNumber":48,"Velocity":63,"Duration":94043,"SoundDuration":94043,"Delta":263354830},{"NoteNumber":34,"Velocity":70,"Duration":89820,"SoundDuration":89820,"Delta":263448874},{"NoteNumber":41,"Velocity":65,"Duration":89820,"SoundDuration":89820,"Delta":263538694},{"NoteNumber":75,"Velocity":69,"Duration":89820,"SoundDuration":89820,"Delta":263628515},{"NoteNumber":63,"Velocity":58,"Duration":89820,"SoundDuration":89820,"Delta":263628515},{"NoteNumber":44,"Velocity":69,"Duration":89820,"SoundDuration":89820,"Delta":263628515},{"NoteNumber":46,"Velocity":71,"Duration":89820,"SoundDuration":89820,"Delta":263718335},{"NoteNumber":74,"Velocity":65,"Duration":89820,"SoundDuration":89820,"Delta":263808155},{"NoteNumber":62,"Velocity":55,"Duration":89820,"SoundDuration":89820,"Delta":263808155},{"NoteNumber":44,"Velocity":67,"Duration":89820,"SoundDuration":89820,"Delta":263808155},{"NoteNumber":41,"Velocity":64,"Duration":89820,"SoundDuration":89820,"Delta":263897975},{"NoteNumber":31,"Velocity":70,"Duration":90089,"SoundDuration":90089,"Delta":263987796},{"NoteNumber":34,"Velocity":62,"Duration":90090,"SoundDuration":90090,"Delta":264077886},{"NoteNumber":75,"Velocity":71,"Duration":90089,"SoundDuration":90089,"Delta":264167976},{"NoteNumber":67,"Velocity":60,"Duration":90089,"SoundDuration":90089,"Delta":264167976},{"NoteNumber":63,"Velocity":60,"Duration":90089,"SoundDuration":90089,"Delta":264167976},{"NoteNumber":39,"Velocity":66,"Duration":90089,"SoundDuration":90089,"Delta":264167976},{"NoteNumber":43,"Velocity":68,"Duration":90090,"SoundDuration":90090,"Delta":264258066},{"NoteNumber":70,"Velocity":69,"Duration":90089,"SoundDuration":90089,"Delta":264348156},{"NoteNumber":67,"Velocity":58,"Duration":90089,"SoundDuration":90089,"Delta":264348156},{"NoteNumber":63,"Velocity":58,"Duration":90089,"SoundDuration":90089,"Delta":264348156},{"NoteNumber":39,"Velocity":67,"Duration":90089,"SoundDuration":90089,"Delta":264348156},{"NoteNumber":34,"Velocity":64,"Duration":94043,"SoundDuration":94043,"Delta":264438246},{"NoteNumber":36,"Velocity":72,"Duration":89820,"SoundDuration":89820,"Delta":264532290},{"NoteNumber":39,"Velocity":67,"Duration":89820,"SoundDuration":89820,"Delta":264622110},{"NoteNumber":60,"Velocity":74,"Duration":89820,"SoundDuration":89820,"Delta":264711930},{"NoteNumber":68,"Velocity":72,"Duration":89820,"SoundDuration":89820,"Delta":264711930},{"NoteNumber":63,"Velocity":60,"Duration":89820,"SoundDuration":89820,"Delta":264711930},{"NoteNumber":43,"Velocity":72,"Duration":89820,"SoundDuration":89820,"Delta":264711930},{"NoteNumber":48,"Velocity":74,"Duration":89820,"SoundDuration":89820,"Delta":264801750},{"NoteNumber":67,"Velocity":68,"Duration":89820,"SoundDuration":89820,"Delta":264891571},{"NoteNumber":63,"Velocity":58,"Duration":89820,"SoundDuration":89820,"Delta":264891571},{"NoteNumber":60,"Velocity":58,"Duration":89820,"SoundDuration":89820,"Delta":264891571},{"NoteNumber":43,"Velocity":71,"Duration":89820,"SoundDuration":89820,"Delta":264891571},{"NoteNumber":39,"Velocity":67,"Duration":89820,"SoundDuration":89820,"Delta":264981391},{"NoteNumber":32,"Velocity":74,"Duration":90089,"SoundDuration":90089,"Delta":265071211},{"NoteNumber":36,"Velocity":66,"Duration":90090,"SoundDuration":90090,"Delta":265161301},{"NoteNumber":67,"Velocity":76,"Duration":90089,"SoundDuration":90089,"Delta":265251391},{"NoteNumber":60,"Velocity":64,"Duration":90089,"SoundDuration":90089,"Delta":265251391},{"NoteNumber":56,"Velocity":64,"Duration":90089,"SoundDuration":90089,"Delta":265251391},{"NoteNumber":41,"Velocity":71,"Duration":90089,"SoundDuration":90089,"Delta":265251391},{"NoteNumber":44,"Velocity":74,"Duration":90090,"SoundDuration":90090,"Delta":265341481},{"NoteNumber":65,"Velocity":74,"Duration":90089,"SoundDuration":90089,"Delta":265431571},{"NoteNumber":60,"Velocity":62,"Duration":90089,"SoundDuration":90089,"Delta":265431571},{"NoteNumber":56,"Velocity":62,"Duration":90089,"SoundDuration":90089,"Delta":265431571},{"NoteNumber":41,"Velocity":72,"Duration":90089,"SoundDuration":90089,"Delta":265431571},{"NoteNumber":36,"Velocity":67,"Duration":94043,"SoundDuration":94043,"Delta":265521661},{"NoteNumber":34,"Velocity":77,"Duration":89820,"SoundDuration":89820,"Delta":265615705},{"NoteNumber":41,"Velocity":72,"Duration":89820,"SoundDuration":89820,"Delta":265705525},{"NoteNumber":53,"Velocity":79,"Duration":89820,"SoundDuration":89820,"Delta":265795346},{"NoteNumber":63,"Velocity":77,"Duration":89820,"SoundDuration":89820,"Delta":265795346},{"NoteNumber":56,"Velocity":64,"Duration":89820,"SoundDuration":89820,"Delta":265795346},{"NoteNumber":44,"Velocity":77,"Duration":89820,"SoundDuration":89820,"Delta":265795346},{"NoteNumber":46,"Velocity":80,"Duration":89820,"SoundDuration":89820,"Delta":265885166},{"NoteNumber":62,"Velocity":73,"Duration":89820,"SoundDuration":89820,"Delta":265974986},{"NoteNumber":56,"Velocity":62,"Duration":89820,"SoundDuration":89820,"Delta":265974986},{"NoteNumber":53,"Velocity":62,"Duration":89820,"SoundDuration":89820,"Delta":265974986},{"NoteNumber":34,"Velocity":75,"Duration":89820,"SoundDuration":89820,"Delta":265974986},{"NoteNumber":46,"Velocity":72,"Duration":94936,"SoundDuration":94936,"Delta":266064806},{"NoteNumber":51,"Velocity":62,"Duration":90751,"SoundDuration":90751,"Delta":266159743},{"NoteNumber":39,"Velocity":75,"Duration":90751,"SoundDuration":90751,"Delta":266159743},{"NoteNumber":53,"Velocity":63,"Duration":90973,"SoundDuration":90973,"Delta":266250494},{"NoteNumber":55,"Velocity":65,"Duration":90405,"SoundDuration":90405,"Delta":266341468},{"NoteNumber":51,"Velocity":75,"Duration":90405,"SoundDuration":90405,"Delta":266341468},{"NoteNumber":56,"Velocity":66,"Duration":89840,"SoundDuration":89840,"Delta":266431873},{"NoteNumber":58,"Velocity":67,"Duration":59701,"SoundDuration":59701,"Delta":266521714},{"NoteNumber":55,"Velocity":77,"Duration":89552,"SoundDuration":89552,"Delta":266521714},{"NoteNumber":51,"Velocity":64,"Duration":89552,"SoundDuration":89552,"Delta":266521714},{"NoteNumber":60,"Velocity":68,"Duration":59701,"SoundDuration":59701,"Delta":266581415},{"NoteNumber":62,"Velocity":68,"Duration":59701,"SoundDuration":59701,"Delta":266641117},{"NoteNumber":63,"Velocity":69,"Duration":59701,"SoundDuration":59701,"Delta":266700818},{"NoteNumber":51,"Velocity":70,"Duration":363532,"SoundDuration":363532,"Delta":266700818},{"NoteNumber":55,"Velocity":70,"Duration":363532,"SoundDuration":363532,"Delta":266700818},{"NoteNumber":58,"Velocity":83,"Duration":363532,"SoundDuration":363532,"Delta":266700818},{"NoteNumber":65,"Velocity":70,"Duration":61297,"SoundDuration":61297,"Delta":266760520},{"NoteNumber":67,"Velocity":71,"Duration":62892,"SoundDuration":62892,"Delta":266821817},{"NoteNumber":68,"Velocity":72,"Duration":59880,"SoundDuration":59880,"Delta":266884710},{"NoteNumber":70,"Velocity":72,"Duration":59880,"SoundDuration":59880,"Delta":266944590},{"NoteNumber":72,"Velocity":73,"Duration":59880,"SoundDuration":59880,"Delta":267004470},{"NoteNumber":74,"Velocity":85,"Duration":89820,"SoundDuration":89820,"Delta":267064351},{"NoteNumber":46,"Velocity":60,"Duration":89820,"SoundDuration":89820,"Delta":267064351},{"NoteNumber":53,"Velocity":60,"Duration":89820,"SoundDuration":89820,"Delta":267064351},{"NoteNumber":58,"Velocity":71,"Duration":89820,"SoundDuration":89820,"Delta":267064351},{"NoteNumber":62,"Velocity":67,"Duration":100085,"SoundDuration":100085,"Delta":267154171},{"NoteNumber":63,"Velocity":62,"Duration":90607,"SoundDuration":90607,"Delta":267254257},{"NoteNumber":51,"Velocity":67,"Duration":90607,"SoundDuration":90607,"Delta":267254257},{"NoteNumber":55,"Velocity":67,"Duration":90607,"SoundDuration":90607,"Delta":267254257},{"NoteNumber":58,"Velocity":79,"Duration":90607,"SoundDuration":90607,"Delta":267254257},{"NoteNumber":65,"Velocity":63,"Duration":90280,"SoundDuration":90280,"Delta":267344864},{"NoteNumber":67,"Velocity":65,"Duration":89955,"SoundDuration":89955,"Delta":267435144},{"NoteNumber":51,"Velocity":63,"Duration":89955,"SoundDuration":89955,"Delta":267435144},{"NoteNumber":55,"Velocity":63,"Duration":89955,"SoundDuration":89955,"Delta":267435144},{"NoteNumber":58,"Velocity":75,"Duration":89955,"SoundDuration":89955,"Delta":267435144},{"NoteNumber":68,"Velocity":66,"Duration":89632,"SoundDuration":89632,"Delta":267525099},{"NoteNumber":70,"Velocity":67,"Duration":59550,"SoundDuration":59550,"Delta":267614732},{"NoteNumber":51,"Velocity":62,"Duration":89312,"SoundDuration":89312,"Delta":267614732},{"NoteNumber":55,"Velocity":62,"Duration":89312,"SoundDuration":89312,"Delta":267614732},{"NoteNumber":58,"Velocity":74,"Duration":89312,"SoundDuration":89312,"Delta":267614732},{"NoteNumber":72,"Velocity":68,"Duration":59523,"SoundDuration":59523,"Delta":267674282},{"NoteNumber":74,"Velocity":68,"Duration":59523,"SoundDuration":59523,"Delta":267733806},{"NoteNumber":75,"Velocity":69,"Duration":59523,"SoundDuration":59523,"Delta":267793330},{"NoteNumber":51,"Velocity":69,"Duration":361848,"SoundDuration":361848,"Delta":267793330},{"NoteNumber":55,"Velocity":69,"Duration":361848,"SoundDuration":361848,"Delta":267793330},{"NoteNumber":58,"Velocity":82,"Duration":361848,"SoundDuration":361848,"Delta":267793330},{"NoteNumber":77,"Velocity":70,"Duration":60914,"SoundDuration":60914,"Delta":267852854},{"NoteNumber":79,"Velocity":71,"Duration":62305,"SoundDuration":62305,"Delta":267913768},{"NoteNumber":80,"Velocity":72,"Duration":59701,"SoundDuration":59701,"Delta":267976074},{"NoteNumber":82,"Velocity":72,"Duration":59701,"SoundDuration":59701,"Delta":268035775},{"NoteNumber":84,"Velocity":73,"Duration":59701,"SoundDuration":59701,"Delta":268095477},{"NoteNumber":86,"Velocity":85,"Duration":89552,"SoundDuration":89552,"Delta":268155178},{"NoteNumber":46,"Velocity":63,"Duration":89552,"SoundDuration":89552,"Delta":268155178},{"NoteNumber":53,"Velocity":63,"Duration":89552,"SoundDuration":89552,"Delta":268155178},{"NoteNumber":58,"Velocity":75,"Duration":89552,"SoundDuration":89552,"Delta":268155178},{"NoteNumber":74,"Velocity":67,"Duration":99140,"SoundDuration":99140,"Delta":268244730},{"NoteNumber":75,"Velocity":62,"Duration":90563,"SoundDuration":90563,"Delta":268343871},{"NoteNumber":51,"Velocity":64,"Duration":90563,"SoundDuration":90563,"Delta":268343871},{"NoteNumber":55,"Velocity":64,"Duration":90563,"SoundDuration":90563,"Delta":268343871},{"NoteNumber":58,"Velocity":76,"Duration":90563,"SoundDuration":90563,"Delta":268343871},{"NoteNumber":77,"Velocity":63,"Duration":90191,"SoundDuration":90191,"Delta":268434435},{"NoteNumber":79,"Velocity":65,"Duration":89775,"SoundDuration":89775,"Delta":268524627},{"NoteNumber":51,"Velocity":63,"Duration":89775,"SoundDuration":89775,"Delta":268524627},{"NoteNumber":55,"Velocity":63,"Duration":89775,"SoundDuration":89775,"Delta":268524627},{"NoteNumber":58,"Velocity":75,"Duration":89775,"SoundDuration":89775,"Delta":268524627},{"NoteNumber":80,"Velocity":66,"Duration":89407,"SoundDuration":89407,"Delta":268614403},{"NoteNumber":82,"Velocity":68,"Duration":59373,"SoundDuration":59373,"Delta":268703810},{"NoteNumber":51,"Velocity":61,"Duration":89047,"SoundDuration":89047,"Delta":268703810},{"NoteNumber":55,"Velocity":61,"Duration":89047,"SoundDuration":89047,"Delta":268703810},{"NoteNumber":58,"Velocity":73,"Duration":89047,"SoundDuration":89047,"Delta":268703810},{"NoteNumber":84,"Velocity":70,"Duration":59347,"SoundDuration":59347,"Delta":268763184},{"NoteNumber":86,"Velocity":72,"Duration":59347,"SoundDuration":59347,"Delta":268822531},{"NoteNumber":87,"Velocity":74,"Duration":89020,"SoundDuration":89020,"Delta":268881878},{"NoteNumber":51,"Velocity":70,"Duration":360717,"SoundDuration":360717,"Delta":268881878},{"NoteNumber":55,"Velocity":70,"Duration":360717,"SoundDuration":360717,"Delta":268881878},{"NoteNumber":58,"Velocity":83,"Duration":360717,"SoundDuration":360717,"Delta":268881878},{"NoteNumber":89,"Velocity":78,"Duration":92592,"SoundDuration":92592,"Delta":268970899},{"NoteNumber":91,"Velocity":82,"Duration":89552,"SoundDuration":89552,"Delta":269063492},{"NoteNumber":92,"Velocity":86,"Duration":89552,"SoundDuration":89552,"Delta":269153044},{"NoteNumber":94,"Velocity":90,"Duration":59701,"SoundDuration":59701,"Delta":269242596},{"NoteNumber":46,"Velocity":63,"Duration":89552,"SoundDuration":89552,"Delta":269242596},{"NoteNumber":53,"Velocity":63,"Duration":89552,"SoundDuration":89552,"Delta":269242596},{"NoteNumber":58,"Velocity":75,"Duration":89552,"SoundDuration":89552,"Delta":269242596},{"NoteNumber":96,"Velocity":92,"Duration":63864,"SoundDuration":63864,"Delta":269302298},{"NoteNumber":98,"Velocity":95,"Duration":68027,"SoundDuration":68027,"Delta":269366162},{"NoteNumber":99,"Velocity":103,"Duration":360360,"SoundDuration":360360,"Delta":269434189},{"NoteNumber":51,"Velocity":69,"Duration":360360,"SoundDuration":360360,"Delta":269434189},{"NoteNumber":55,"Velocity":69,"Duration":360360,"SoundDuration":360360,"Delta":269434189},{"NoteNumber":58,"Velocity":82,"Duration":360360,"SoundDuration":360360,"Delta":269434189},{"NoteNumber":67,"Velocity":75,"Duration":360359,"SoundDuration":360359,"Delta":269974729},{"NoteNumber":70,"Velocity":75,"Duration":360359,"SoundDuration":360359,"Delta":269974729},{"NoteNumber":75,"Velocity":90,"Duration":360359,"SoundDuration":360359,"Delta":269974729},{"NoteNumber":39,"Velocity":69,"Duration":360359,"SoundDuration":360359,"Delta":269974729},{"NoteNumber":51,"Velocity":82,"Duration":360359,"SoundDuration":360359,"Delta":269974729},{"NoteNumber":55,"Velocity":74,"Duration":487804,"SoundDuration":487804,"Delta":270515269},{"NoteNumber":58,"Velocity":74,"Duration":487804,"SoundDuration":487804,"Delta":270515269},{"NoteNumber":63,"Velocity":89,"Duration":487804,"SoundDuration":487804,"Delta":270515269},{"NoteNumber":39,"Velocity":69,"Duration":487804,"SoundDuration":487804,"Delta":270515269},{"NoteNumber":51,"Velocity":82,"Duration":487804,"SoundDuration":487804,"Delta":270515269},{"NoteNumber":70,"Velocity":70,"Duration":465116,"SoundDuration":465116,"Delta":271246977},{"NoteNumber":70,"Velocity":60,"Duration":258620,"SoundDuration":258620,"Delta":271712093},{"NoteNumber":70,"Velocity":45,"Duration":219780,"SoundDuration":219780,"Delta":271970713},{"NoteNumber":51,"Velocity":34,"Duration":430306,"SoundDuration":430306,"Delta":271970713},{"NoteNumber":55,"Velocity":34,"Duration":430306,"SoundDuration":430306,"Delta":271970713},{"NoteNumber":58,"Velocity":40,"Duration":430306,"SoundDuration":430306,"Delta":271970713},{"NoteNumber":67,"Velocity":45,"Duration":210526,"SoundDuration":210526,"Delta":272190493},{"NoteNumber":63,"Velocity":39,"Duration":210526,"SoundDuration":210526,"Delta":272401020},{"NoteNumber":62,"Velocity":45,"Duration":210526,"SoundDuration":210526,"Delta":272611546},{"NoteNumber":53,"Velocity":28,"Duration":421053,"SoundDuration":421053,"Delta":272611546},{"NoteNumber":56,"Velocity":28,"Duration":421053,"SoundDuration":421053,"Delta":272611546},{"NoteNumber":46,"Velocity":28,"Duration":421053,"SoundDuration":421053,"Delta":272611546},{"NoteNumber":58,"Velocity":34,"Duration":421053,"SoundDuration":421053,"Delta":272611546},{"NoteNumber":65,"Velocity":40,"Duration":210526,"SoundDuration":210526,"Delta":272822073},{"NoteNumber":70,"Velocity":40,"Duration":172413,"SoundDuration":172413,"Delta":273032599},{"NoteNumber":70,"Velocity":45,"Duration":217391,"SoundDuration":217391,"Delta":273262484},{"NoteNumber":51,"Velocity":34,"Duration":427181,"SoundDuration":427181,"Delta":273262484},{"NoteNumber":58,"Velocity":40,"Duration":427181,"SoundDuration":427181,"Delta":273262484},{"NoteNumber":55,"Velocity":34,"Duration":427181,"SoundDuration":427181,"Delta":273262484},{"NoteNumber":67,"Velocity":41,"Duration":209789,"SoundDuration":209789,"Delta":273479876},{"NoteNumber":63,"Velocity":41,"Duration":209789,"SoundDuration":209789,"Delta":273689666},{"NoteNumber":64,"Velocity":45,"Duration":209789,"SoundDuration":209789,"Delta":273899456},{"NoteNumber":48,"Velocity":28,"Duration":209789,"SoundDuration":209789,"Delta":273899456},{"NoteNumber":55,"Velocity":28,"Duration":209789,"SoundDuration":209789,"Delta":273899456},{"NoteNumber":60,"Velocity":34,"Duration":209789,"SoundDuration":209789,"Delta":273899456},{"NoteNumber":67,"Velocity":39,"Duration":209789,"SoundDuration":209789,"Delta":274109246},{"NoteNumber":72,"Velocity":46,"Duration":175097,"SoundDuration":175097,"Delta":274319036},{"NoteNumber":52,"Velocity":28,"Duration":175097,"SoundDuration":175097,"Delta":274319036},{"NoteNumber":55,"Velocity":28,"Duration":175097,"SoundDuration":175097,"Delta":274319036},{"NoteNumber":58,"Velocity":28,"Duration":175097,"SoundDuration":175097,"Delta":274319036},{"NoteNumber":60,"Velocity":34,"Duration":175097,"SoundDuration":175097,"Delta":274319036},{"NoteNumber":72,"Velocity":50,"Duration":217391,"SoundDuration":217391,"Delta":274552499},{"NoteNumber":56,"Velocity":34,"Duration":429405,"SoundDuration":429405,"Delta":274552499},{"NoteNumber":53,"Velocity":34,"Duration":429405,"SoundDuration":429405,"Delta":274552499},{"NoteNumber":60,"Velocity":40,"Duration":429405,"SoundDuration":429405,"Delta":274552499},{"NoteNumber":68,"Velocity":45,"Duration":212014,"SoundDuration":212014,"Delta":274769890},{"NoteNumber":65,"Velocity":45,"Duration":212014,"SoundDuration":212014,"Delta":274981904},{"NoteNumber":66,"Velocity":49,"Duration":212013,"SoundDuration":212013,"Delta":275193918},{"NoteNumber":62,"Velocity":34,"Duration":212013,"SoundDuration":212013,"Delta":275193918},{"NoteNumber":50,"Velocity":28,"Duration":212013,"SoundDuration":212013,"Delta":275193918},{"NoteNumber":57,"Velocity":28,"Duration":212013,"SoundDuration":212013,"Delta":275193918},{"NoteNumber":69,"Velocity":44,"Duration":212014,"SoundDuration":212014,"Delta":275405932},{"NoteNumber":74,"Velocity":47,"Duration":180000,"SoundDuration":180000,"Delta":275617946},{"NoteNumber":54,"Velocity":28,"Duration":180000,"SoundDuration":180000,"Delta":275617946},{"NoteNumber":57,"Velocity":28,"Duration":180000,"SoundDuration":180000,"Delta":275617946},{"NoteNumber":62,"Velocity":34,"Duration":180000,"SoundDuration":180000,"Delta":275617946},{"NoteNumber":74,"Velocity":56,"Duration":219780,"SoundDuration":219780,"Delta":275857946},{"NoteNumber":55,"Velocity":34,"Duration":433303,"SoundDuration":433303,"Delta":275857946},{"NoteNumber":58,"Velocity":34,"Duration":433303,"SoundDuration":433303,"Delta":275857946},{"NoteNumber":62,"Velocity":40,"Duration":433303,"SoundDuration":433303,"Delta":275857946},{"NoteNumber":70,"Velocity":45,"Duration":213523,"SoundDuration":213523,"Delta":276077726},{"NoteNumber":67,"Velocity":45,"Duration":213523,"SoundDuration":213523,"Delta":276291249},{"NoteNumber":68,"Velocity":51,"Duration":213523,"SoundDuration":213523,"Delta":276504772},{"NoteNumber":53,"Velocity":34,"Duration":427045,"SoundDuration":427045,"Delta":276504772},{"NoteNumber":56,"Velocity":34,"Duration":427045,"SoundDuration":427045,"Delta":276504772},{"NoteNumber":58,"Velocity":34,"Duration":427045,"SoundDuration":427045,"Delta":276504772},{"NoteNumber":62,"Velocity":40,"Duration":427045,"SoundDuration":427045,"Delta":276504772},{"NoteNumber":70,"Velocity":45,"Duration":213522,"SoundDuration":213522,"Delta":276718295},{"NoteNumber":74,"Velocity":45,"Duration":178571,"SoundDuration":178571,"Delta":276931818},{"NoteNumber":75,"Velocity":50,"Duration":223880,"SoundDuration":223880,"Delta":277169913},{"NoteNumber":58,"Velocity":33,"Duration":441272,"SoundDuration":441272,"Delta":277169913},{"NoteNumber":55,"Velocity":33,"Duration":441272,"SoundDuration":441272,"Delta":277169913},{"NoteNumber":63,"Velocity":39,"Duration":441272,"SoundDuration":441272,"Delta":277169913},{"NoteNumber":51,"Velocity":33,"Duration":441272,"SoundDuration":441272,"Delta":277169913},{"NoteNumber":70,"Velocity":43,"Duration":217391,"SoundDuration":217391,"Delta":277393794},{"NoteNumber":67,"Velocity":43,"Duration":163043,"SoundDuration":163043,"Delta":277611185},{"NoteNumber":67,"Velocity":45,"Duration":217391,"SoundDuration":217391,"Delta":277828577},{"NoteNumber":70,"Velocity":41,"Duration":217391,"SoundDuration":217391,"Delta":278045968},{"NoteNumber":75,"Velocity":41,"Duration":185950,"SoundDuration":185950,"Delta":278263360},{"NoteNumber":79,"Velocity":50,"Duration":232557,"SoundDuration":232557,"Delta":278511294},{"NoteNumber":63,"Velocity":42,"Duration":232557,"SoundDuration":232557,"Delta":278511294},{"NoteNumber":75,"Velocity":43,"Duration":225564,"SoundDuration":225564,"Delta":278743852},{"NoteNumber":58,"Velocity":36,"Duration":225564,"SoundDuration":225564,"Delta":278743852},{"NoteNumber":70,"Velocity":44,"Duration":177865,"SoundDuration":177865,"Delta":278969416},{"NoteNumber":55,"Velocity":37,"Duration":177865,"SoundDuration":177865,"Delta":278969416},{"NoteNumber":70,"Velocity":47,"Duration":223048,"SoundDuration":223048,"Delta":279206570},{"NoteNumber":55,"Velocity":39,"Duration":223048,"SoundDuration":223048,"Delta":279206570},{"NoteNumber":75,"Velocity":43,"Duration":223048,"SoundDuration":223048,"Delta":279429618},{"NoteNumber":58,"Velocity":36,"Duration":223048,"SoundDuration":223048,"Delta":279429618},{"NoteNumber":79,"Velocity":44,"Duration":195652,"SoundDuration":195652,"Delta":279652667},{"NoteNumber":63,"Velocity":36,"Duration":195652,"SoundDuration":195652,"Delta":279652667},{"NoteNumber":79,"Velocity":46,"Duration":243902,"SoundDuration":243902,"Delta":279913536},{"NoteNumber":82,"Velocity":55,"Duration":243902,"SoundDuration":243902,"Delta":279913536},{"NoteNumber":39,"Velocity":38,"Duration":243902,"SoundDuration":243902,"Delta":279913536},{"NoteNumber":43,"Velocity":46,"Duration":243902,"SoundDuration":243902,"Delta":279913536},{"NoteNumber":75,"Velocity":39,"Duration":226414,"SoundDuration":226414,"Delta":280157439},{"NoteNumber":79,"Velocity":47,"Duration":226414,"SoundDuration":226414,"Delta":280157439},{"NoteNumber":46,"Velocity":39,"Duration":226414,"SoundDuration":226414,"Delta":280157439},{"NoteNumber":43,"Velocity":33,"Duration":226414,"SoundDuration":226414,"Delta":280157439},{"NoteNumber":75,"Velocity":48,"Duration":226415,"SoundDuration":226415,"Delta":280383854},{"NoteNumber":70,"Velocity":40,"Duration":226415,"SoundDuration":226415,"Delta":280383854},{"NoteNumber":46,"Velocity":33,"Duration":226415,"SoundDuration":226415,"Delta":280383854},{"NoteNumber":51,"Velocity":40,"Duration":226415,"SoundDuration":226415,"Delta":280383854},{"NoteNumber":79,"Velocity":51,"Duration":226414,"SoundDuration":226414,"Delta":280610269},{"NoteNumber":75,"Velocity":43,"Duration":226414,"SoundDuration":226414,"Delta":280610269},{"NoteNumber":46,"Velocity":43,"Duration":226414,"SoundDuration":226414,"Delta":280610269},{"NoteNumber":43,"Velocity":36,"Duration":226414,"SoundDuration":226414,"Delta":280610269},{"NoteNumber":70,"Velocity":39,"Duration":226415,"SoundDuration":226415,"Delta":280836684},{"NoteNumber":75,"Velocity":47,"Duration":226415,"SoundDuration":226415,"Delta":280836684},{"NoteNumber":46,"Velocity":32,"Duration":226415,"SoundDuration":226415,"Delta":280836684},{"NoteNumber":51,"Velocity":39,"Duration":226415,"SoundDuration":226415,"Delta":280836684},{"NoteNumber":67,"Velocity":40,"Duration":187500,"SoundDuration":187500,"Delta":281063099},{"NoteNumber":70,"Velocity":48,"Duration":187500,"SoundDuration":187500,"Delta":281063099},{"NoteNumber":51,"Velocity":33,"Duration":187500,"SoundDuration":187500,"Delta":281063099},{"NoteNumber":55,"Velocity":40,"Duration":187500,"SoundDuration":187500,"Delta":281063099},{"NoteNumber":70,"Velocity":50,"Duration":232557,"SoundDuration":232557,"Delta":281313099},{"NoteNumber":75,"Velocity":60,"Duration":232557,"SoundDuration":232557,"Delta":281313099},{"NoteNumber":46,"Velocity":42,"Duration":232557,"SoundDuration":232557,"Delta":281313099},{"NoteNumber":51,"Velocity":50,"Duration":232557,"SoundDuration":232557,"Delta":281313099},{"NoteNumber":67,"Velocity":43,"Duration":232558,"SoundDuration":232558,"Delta":281545657},{"NoteNumber":70,"Velocity":52,"Duration":232558,"SoundDuration":232558,"Delta":281545657},{"NoteNumber":55,"Velocity":43,"Duration":232558,"SoundDuration":232558,"Delta":281545657},{"NoteNumber":51,"Velocity":36,"Duration":232558,"SoundDuration":232558,"Delta":281545657},{"NoteNumber":67,"Velocity":52,"Duration":292683,"SoundDuration":292683,"Delta":281778215},{"NoteNumber":63,"Velocity":44,"Duration":292683,"SoundDuration":292683,"Delta":281778215},{"NoteNumber":55,"Velocity":36,"Duration":292683,"SoundDuration":292683,"Delta":281778215},{"NoteNumber":58,"Velocity":44,"Duration":292683,"SoundDuration":292683,"Delta":281778215},{"NoteNumber":70,"Velocity":54,"Duration":264317,"SoundDuration":264317,"Delta":282070898},{"NoteNumber":60,"Velocity":38,"Duration":264317,"SoundDuration":264317,"Delta":282335215},{"NoteNumber":68,"Velocity":46,"Duration":264317,"SoundDuration":264317,"Delta":282335215},{"NoteNumber":46,"Velocity":31,"Duration":264317,"SoundDuration":264317,"Delta":282335215},{"NoteNumber":53,"Velocity":38,"Duration":264317,"SoundDuration":264317,"Delta":282335215},{"NoteNumber":62,"Velocity":36,"Duration":266272,"SoundDuration":266272,"Delta":282599532},{"NoteNumber":65,"Velocity":43,"Duration":266272,"SoundDuration":266272,"Delta":282599532},{"NoteNumber":46,"Velocity":29,"Duration":266272,"SoundDuration":266272,"Delta":282599532},{"NoteNumber":58,"Velocity":36,"Duration":266272,"SoundDuration":266272,"Delta":282599532},{"NoteNumber":67,"Velocity":54,"Duration":147783,"SoundDuration":147783,"Delta":282954561},{"NoteNumber":75,"Velocity":54,"Duration":147783,"SoundDuration":147783,"Delta":282954561},{"NoteNumber":51,"Velocity":30,"Duration":591133,"SoundDuration":591133,"Delta":282954561},{"NoteNumber":55,"Velocity":30,"Duration":591133,"SoundDuration":591133,"Delta":282954561},{"NoteNumber":58,"Velocity":36,"Duration":591133,"SoundDuration":591133,"Delta":282954561},{"NoteNumber":74,"Velocity":46,"Duration":147783,"SoundDuration":147783,"Delta":283102344},{"NoteNumber":75,"Velocity":46,"Duration":147783,"SoundDuration":147783,"Delta":283250128},{"NoteNumber":70,"Velocity":42,"Duration":147783,"SoundDuration":147783,"Delta":283397911},{"NoteNumber":67,"Velocity":54,"Duration":159574,"SoundDuration":159574,"Delta":283545694},{"NoteNumber":68,"Velocity":47,"Duration":79787,"SoundDuration":79787,"Delta":283785056},{"NoteNumber":67,"Velocity":54,"Duration":149999,"SoundDuration":149999,"Delta":283864843},{"NoteNumber":66,"Velocity":43,"Duration":150000,"SoundDuration":150000,"Delta":284014843},{"NoteNumber":67,"Velocity":48,"Duration":149999,"SoundDuration":149999,"Delta":284164843},{"NoteNumber":70,"Velocity":43,"Duration":150000,"SoundDuration":150000,"Delta":284314843},{"NoteNumber":75,"Velocity":56,"Duration":171428,"SoundDuration":171428,"Delta":284464843},{"NoteNumber":67,"Velocity":48,"Duration":924324,"SoundDuration":924324,"Delta":284807700},{"NoteNumber":79,"Velocity":54,"Duration":149999,"SoundDuration":149999,"Delta":284807700},{"NoteNumber":51,"Velocity":40,"Duration":924324,"SoundDuration":924324,"Delta":284807700},{"NoteNumber":63,"Velocity":45,"Duration":149999,"SoundDuration":149999,"Delta":284807700},{"NoteNumber":78,"Velocity":46,"Duration":150000,"SoundDuration":150000,"Delta":284957700},{"NoteNumber":62,"Velocity":39,"Duration":150000,"SoundDuration":150000,"Delta":284957700},{"NoteNumber":79,"Velocity":46,"Duration":149999,"SoundDuration":149999,"Delta":285107700},{"NoteNumber":63,"Velocity":39,"Duration":149999,"SoundDuration":149999,"Delta":285107700},{"NoteNumber":75,"Velocity":42,"Duration":150000,"SoundDuration":150000,"Delta":285257700},{"NoteNumber":58,"Velocity":35,"Duration":150000,"SoundDuration":150000,"Delta":285257700},{"NoteNumber":70,"Velocity":54,"Duration":162162,"SoundDuration":162162,"Delta":285407700},{"NoteNumber":55,"Velocity":45,"Duration":162162,"SoundDuration":162162,"Delta":285407700},{"NoteNumber":72,"Velocity":47,"Duration":81081,"SoundDuration":81081,"Delta":285650944},{"NoteNumber":56,"Velocity":39,"Duration":81081,"SoundDuration":81081,"Delta":285650944},{"NoteNumber":70,"Velocity":54,"Duration":150753,"SoundDuration":150753,"Delta":285732025},{"NoteNumber":55,"Velocity":45,"Duration":150753,"SoundDuration":150753,"Delta":285732025},{"NoteNumber":69,"Velocity":43,"Duration":150753,"SoundDuration":150753,"Delta":285882778},{"NoteNumber":54,"Velocity":36,"Duration":150753,"SoundDuration":150753,"Delta":285882778},{"NoteNumber":70,"Velocity":48,"Duration":150753,"SoundDuration":150753,"Delta":286033532},{"NoteNumber":55,"Velocity":40,"Duration":150753,"SoundDuration":150753,"Delta":286033532},{"NoteNumber":75,"Velocity":43,"Duration":150753,"SoundDuration":150753,"Delta":286184286},{"NoteNumber":58,"Velocity":36,"Duration":150753,"SoundDuration":150753,"Delta":286184286},{"NoteNumber":79,"Velocity":56,"Duration":157067,"SoundDuration":157067,"Delta":286335040},{"NoteNumber":63,"Velocity":47,"Duration":157067,"SoundDuration":157067,"Delta":286335040},{"NoteNumber":82,"Velocity":54,"Duration":160427,"SoundDuration":160427,"Delta":286649176},{"NoteNumber":79,"Velocity":45,"Duration":160427,"SoundDuration":160427,"Delta":286649176},{"NoteNumber":39,"Velocity":45,"Duration":160427,"SoundDuration":160427,"Delta":286649176},{"NoteNumber":84,"Velocity":50,"Duration":160427,"SoundDuration":160427,"Delta":286809603},{"NoteNumber":80,"Velocity":42,"Duration":160427,"SoundDuration":160427,"Delta":286809603},{"NoteNumber":38,"Velocity":36,"Duration":160427,"SoundDuration":160427,"Delta":286809603},{"NoteNumber":82,"Velocity":55,"Duration":155440,"SoundDuration":155440,"Delta":286970031},{"NoteNumber":79,"Velocity":45,"Duration":155440,"SoundDuration":155440,"Delta":286970031},{"NoteNumber":39,"Velocity":41,"Duration":155440,"SoundDuration":155440,"Delta":286970031},{"NoteNumber":79,"Velocity":49,"Duration":155440,"SoundDuration":155440,"Delta":287125472},{"NoteNumber":75,"Velocity":41,"Duration":155440,"SoundDuration":155440,"Delta":287125472},{"NoteNumber":43,"Velocity":37,"Duration":155440,"SoundDuration":155440,"Delta":287125472},{"NoteNumber":67,"Velocity":47,"Duration":324324,"SoundDuration":324324,"Delta":287280912},{"NoteNumber":75,"Velocity":56,"Duration":324324,"SoundDuration":324324,"Delta":287280912},{"NoteNumber":46,"Velocity":47,"Duration":324324,"SoundDuration":324324,"Delta":287280912},{"NoteNumber":79,"Velocity":57,"Duration":155440,"SoundDuration":155440,"Delta":287605237},{"NoteNumber":75,"Velocity":48,"Duration":155440,"SoundDuration":155440,"Delta":287605237},{"NoteNumber":43,"Velocity":48,"Duration":155440,"SoundDuration":155440,"Delta":287605237},{"NoteNumber":80,"Velocity":54,"Duration":155440,"SoundDuration":155440,"Delta":287760677},{"NoteNumber":41,"Velocity":38,"Duration":155440,"SoundDuration":155440,"Delta":287760677},{"NoteNumber":79,"Velocity":59,"Duration":155440,"SoundDuration":155440,"Delta":287916118},{"NoteNumber":75,"Velocity":49,"Duration":155440,"SoundDuration":155440,"Delta":287916118},{"NoteNumber":43,"Velocity":45,"Duration":155440,"SoundDuration":155440,"Delta":287916118},{"NoteNumber":75,"Velocity":53,"Duration":155440,"SoundDuration":155440,"Delta":288071558},{"NoteNumber":70,"Velocity":44,"Duration":155440,"SoundDuration":155440,"Delta":288071558},{"NoteNumber":46,"Velocity":39,"Duration":155440,"SoundDuration":155440,"Delta":288071558},{"NoteNumber":67,"Velocity":50,"Duration":337078,"SoundDuration":337078,"Delta":288226999},{"NoteNumber":70,"Velocity":60,"Duration":337078,"SoundDuration":337078,"Delta":288226999},{"NoteNumber":51,"Velocity":50,"Duration":337078,"SoundDuration":337078,"Delta":288226999},{"NoteNumber":75,"Velocity":62,"Duration":158730,"SoundDuration":158730,"Delta":288564077},{"NoteNumber":67,"Velocity":51,"Duration":158730,"SoundDuration":158730,"Delta":288564077},{"NoteNumber":46,"Velocity":51,"Duration":158730,"SoundDuration":158730,"Delta":288564077},{"NoteNumber":77,"Velocity":56,"Duration":158730,"SoundDuration":158730,"Delta":288722807},{"NoteNumber":45,"Velocity":40,"Duration":158730,"SoundDuration":158730,"Delta":288722807},{"NoteNumber":75,"Velocity":59,"Duration":158730,"SoundDuration":158730,"Delta":288881538},{"NoteNumber":67,"Velocity":49,"Duration":158730,"SoundDuration":158730,"Delta":288881538},{"NoteNumber":46,"Velocity":45,"Duration":158730,"SoundDuration":158730,"Delta":288881538},{"NoteNumber":70,"Velocity":51,"Duration":158730,"SoundDuration":158730,"Delta":289040268},{"NoteNumber":67,"Velocity":43,"Duration":158730,"SoundDuration":158730,"Delta":289040268},{"NoteNumber":51,"Velocity":38,"Duration":158730,"SoundDuration":158730,"Delta":289040268},{"NoteNumber":63,"Velocity":47,"Duration":340909,"SoundDuration":340909,"Delta":289198998},{"NoteNumber":67,"Velocity":56,"Duration":340909,"SoundDuration":340909,"Delta":289198998},{"NoteNumber":55,"Velocity":47,"Duration":340909,"SoundDuration":340909,"Delta":289198998},{"NoteNumber":70,"Velocity":54,"Duration":322580,"SoundDuration":322580,"Delta":289539907},{"NoteNumber":60,"Velocity":38,"Duration":322580,"SoundDuration":322580,"Delta":289862488},{"NoteNumber":68,"Velocity":46,"Duration":322580,"SoundDuration":322580,"Delta":289862488},{"NoteNumber":46,"Velocity":31,"Duration":322580,"SoundDuration":322580,"Delta":289862488},{"NoteNumber":53,"Velocity":38,"Duration":322580,"SoundDuration":322580,"Delta":289862488},{"NoteNumber":62,"Velocity":36,"Duration":294117,"SoundDuration":294117,"Delta":290185068},{"NoteNumber":65,"Velocity":43,"Duration":294117,"SoundDuration":294117,"Delta":290185068},{"NoteNumber":46,"Velocity":29,"Duration":294117,"SoundDuration":294117,"Delta":290185068},{"NoteNumber":58,"Velocity":36,"Duration":294117,"SoundDuration":294117,"Delta":290185068},{"NoteNumber":39,"Velocity":38,"Duration":333333,"SoundDuration":333333,"Delta":290577225},{"NoteNumber":43,"Velocity":46,"Duration":333333,"SoundDuration":333333,"Delta":290577225},{"NoteNumber":79,"Velocity":46,"Duration":333333,"SoundDuration":333333,"Delta":290743892},{"NoteNumber":82,"Velocity":55,"Duration":333333,"SoundDuration":333333,"Delta":290743892},{"NoteNumber":46,"Velocity":39,"Duration":333333,"SoundDuration":333333,"Delta":290910559},{"NoteNumber":43,"Velocity":33,"Duration":333333,"SoundDuration":333333,"Delta":290910559},{"NoteNumber":75,"Velocity":39,"Duration":330555,"SoundDuration":330555,"Delta":291077225},{"NoteNumber":79,"Velocity":47,"Duration":330555,"SoundDuration":330555,"Delta":291077225},{"NoteNumber":46,"Velocity":33,"Duration":333333,"SoundDuration":333333,"Delta":291243892},{"NoteNumber":51,"Velocity":40,"Duration":333333,"SoundDuration":333333,"Delta":291243892},{"NoteNumber":75,"Velocity":48,"Duration":330555,"SoundDuration":330555,"Delta":291410559},{"NoteNumber":70,"Velocity":40,"Duration":330555,"SoundDuration":330555,"Delta":291410559},{"NoteNumber":46,"Velocity":43,"Duration":333333,"SoundDuration":333333,"Delta":291577226},{"NoteNumber":43,"Velocity":36,"Duration":333333,"SoundDuration":333333,"Delta":291577226},{"NoteNumber":79,"Velocity":51,"Duration":330555,"SoundDuration":330555,"Delta":291743892},{"NoteNumber":75,"Velocity":43,"Duration":330555,"SoundDuration":330555,"Delta":291743892},{"NoteNumber":46,"Velocity":32,"Duration":333333,"SoundDuration":333333,"Delta":291910559},{"NoteNumber":51,"Velocity":39,"Duration":333333,"SoundDuration":333333,"Delta":291910559},{"NoteNumber":70,"Velocity":39,"Duration":352201,"SoundDuration":352201,"Delta":292077226},{"NoteNumber":75,"Velocity":47,"Duration":352201,"SoundDuration":352201,"Delta":292077226},{"NoteNumber":51,"Velocity":33,"Duration":361635,"SoundDuration":361635,"Delta":292243893},{"NoteNumber":55,"Velocity":40,"Duration":361635,"SoundDuration":361635,"Delta":292243893},{"NoteNumber":67,"Velocity":40,"Duration":355345,"SoundDuration":355345,"Delta":292432572},{"NoteNumber":70,"Velocity":48,"Duration":355345,"SoundDuration":355345,"Delta":292432572},{"NoteNumber":46,"Velocity":42,"Duration":338982,"SoundDuration":338982,"Delta":292621251},{"NoteNumber":51,"Velocity":50,"Duration":338982,"SoundDuration":338982,"Delta":292621251},{"NoteNumber":70,"Velocity":50,"Duration":336158,"SoundDuration":336158,"Delta":292790743},{"NoteNumber":75,"Velocity":60,"Duration":336158,"SoundDuration":336158,"Delta":292790743},{"NoteNumber":55,"Velocity":43,"Duration":338983,"SoundDuration":338983,"Delta":292960234},{"NoteNumber":51,"Velocity":36,"Duration":338983,"SoundDuration":338983,"Delta":292960234},{"NoteNumber":67,"Velocity":43,"Duration":349369,"SoundDuration":349369,"Delta":293129726},{"NoteNumber":70,"Velocity":52,"Duration":349369,"SoundDuration":349369,"Delta":293129726},{"NoteNumber":46,"Velocity":36,"Duration":362804,"SoundDuration":362804,"Delta":293299217},{"NoteNumber":51,"Velocity":36,"Duration":362804,"SoundDuration":362804,"Delta":293299217},{"NoteNumber":58,"Velocity":44,"Duration":362804,"SoundDuration":362804,"Delta":293299217},{"NoteNumber":67,"Velocity":52,"Duration":377005,"SoundDuration":377005,"Delta":293482144},{"NoteNumber":46,"Velocity":42,"Duration":391447,"SoundDuration":391447,"Delta":293665071},{"NoteNumber":53,"Velocity":42,"Duration":391447,"SoundDuration":391447,"Delta":293665071},{"NoteNumber":58,"Velocity":50,"Duration":391447,"SoundDuration":391447,"Delta":293665071},{"NoteNumber":62,"Velocity":46,"Duration":391447,"SoundDuration":391447,"Delta":293862439},{"NoteNumber":70,"Velocity":54,"Duration":391447,"SoundDuration":391447,"Delta":293862439},{"NoteNumber":53,"Velocity":31,"Duration":391447,"SoundDuration":391447,"Delta":294059808},{"NoteNumber":46,"Velocity":31,"Duration":391447,"SoundDuration":391447,"Delta":294059808},{"NoteNumber":58,"Velocity":38,"Duration":391447,"SoundDuration":391447,"Delta":294059808},{"NoteNumber":62,"Velocity":38,"Duration":409598,"SoundDuration":409598,"Delta":294257176},{"NoteNumber":68,"Velocity":46,"Duration":409598,"SoundDuration":409598,"Delta":294257176},{"NoteNumber":56,"Velocity":36,"Duration":798577,"SoundDuration":798577,"Delta":294454545},{"NoteNumber":46,"Velocity":29,"Duration":798577,"SoundDuration":798577,"Delta":294454545},{"NoteNumber":58,"Velocity":36,"Duration":798577,"SoundDuration":798577,"Delta":294454545},{"NoteNumber":62,"Velocity":36,"Duration":582750,"SoundDuration":582750,"Delta":294670372},{"NoteNumber":65,"Velocity":43,"Duration":582750,"SoundDuration":582750,"Delta":294670372},{"NoteNumber":82,"Velocity":80,"Duration":81195,"SoundDuration":81195,"Delta":295253122},{"NoteNumber":70,"Velocity":80,"Duration":81195,"SoundDuration":81195,"Delta":295253122},{"NoteNumber":94,"Velocity":63,"Duration":81195,"SoundDuration":81195,"Delta":295334318},{"NoteNumber":79,"Velocity":69,"Duration":81195,"SoundDuration":81195,"Delta":295415513},{"NoteNumber":67,"Velocity":67,"Duration":81195,"SoundDuration":81195,"Delta":295415513},{"NoteNumber":91,"Velocity":64,"Duration":81195,"SoundDuration":81195,"Delta":295496708},{"NoteNumber":75,"Velocity":69,"Duration":81195,"SoundDuration":81195,"Delta":295577903},{"NoteNumber":63,"Velocity":67,"Duration":81195,"SoundDuration":81195,"Delta":295577903},{"NoteNumber":87,"Velocity":64,"Duration":87087,"SoundDuration":87087,"Delta":295659099},{"NoteNumber":79,"Velocity":80,"Duration":80976,"SoundDuration":80976,"Delta":295746186},{"NoteNumber":67,"Velocity":80,"Duration":80976,"SoundDuration":80976,"Delta":295746186},{"NoteNumber":91,"Velocity":64,"Duration":80975,"SoundDuration":80975,"Delta":295827162},{"NoteNumber":75,"Velocity":69,"Duration":80976,"SoundDuration":80976,"Delta":295908138},{"NoteNumber":63,"Velocity":70,"Duration":80976,"SoundDuration":80976,"Delta":295908138},{"NoteNumber":87,"Velocity":64,"Duration":80976,"SoundDuration":80976,"Delta":295989114},{"NoteNumber":70,"Velocity":69,"Duration":80975,"SoundDuration":80975,"Delta":296070090},{"NoteNumber":58,"Velocity":70,"Duration":80975,"SoundDuration":80975,"Delta":296070090},{"NoteNumber":82,"Velocity":65,"Duration":86585,"SoundDuration":86585,"Delta":296151066},{"NoteNumber":75,"Velocity":80,"Duration":80758,"SoundDuration":80758,"Delta":296237651},{"NoteNumber":63,"Velocity":80,"Duration":80758,"SoundDuration":80758,"Delta":296237651},{"NoteNumber":87,"Velocity":65,"Duration":80758,"SoundDuration":80758,"Delta":296318409},{"NoteNumber":70,"Velocity":70,"Duration":80758,"SoundDuration":80758,"Delta":296399167},{"NoteNumber":58,"Velocity":71,"Duration":80758,"SoundDuration":80758,"Delta":296399167},{"NoteNumber":82,"Velocity":65,"Duration":80758,"SoundDuration":80758,"Delta":296479925},{"NoteNumber":67,"Velocity":70,"Duration":80758,"SoundDuration":80758,"Delta":296560683},{"NoteNumber":55,"Velocity":71,"Duration":80758,"SoundDuration":80758,"Delta":296560683},{"NoteNumber":79,"Velocity":66,"Duration":85841,"SoundDuration":85841,"Delta":296641441},{"NoteNumber":70,"Velocity":80,"Duration":80758,"SoundDuration":80758,"Delta":296727283},{"NoteNumber":58,"Velocity":80,"Duration":80758,"SoundDuration":80758,"Delta":296727283},{"NoteNumber":82,"Velocity":64,"Duration":80758,"SoundDuration":80758,"Delta":296808041},{"NoteNumber":68,"Velocity":69,"Duration":80758,"SoundDuration":80758,"Delta":296888799},{"NoteNumber":56,"Velocity":69,"Duration":80758,"SoundDuration":80758,"Delta":296888799},{"NoteNumber":80,"Velocity":65,"Duration":80758,"SoundDuration":80758,"Delta":296969557},{"NoteNumber":65,"Velocity":69,"Duration":80758,"SoundDuration":80758,"Delta":297050315},{"NoteNumber":46,"Velocity":55,"Duration":80758,"SoundDuration":80758,"Delta":297050315},{"NoteNumber":53,"Velocity":69,"Duration":80758,"SoundDuration":80758,"Delta":297050315},{"NoteNumber":77,"Velocity":66,"Duration":85841,"SoundDuration":85841,"Delta":297131073},{"NoteNumber":63,"Velocity":80,"Duration":80541,"SoundDuration":80541,"Delta":297216915},{"NoteNumber":39,"Velocity":65,"Duration":80541,"SoundDuration":80541,"Delta":297216915},{"NoteNumber":51,"Velocity":82,"Duration":80541,"SoundDuration":80541,"Delta":297216915},{"NoteNumber":75,"Velocity":65,"Duration":80541,"SoundDuration":80541,"Delta":297297456},{"NoteNumber":67,"Velocity":70,"Duration":80541,"SoundDuration":80541,"Delta":297377997},{"NoteNumber":51,"Velocity":51,"Duration":80541,"SoundDuration":80541,"Delta":297377997},{"NoteNumber":55,"Velocity":51,"Duration":80541,"SoundDuration":80541,"Delta":297377997},{"NoteNumber":58,"Velocity":51,"Duration":80541,"SoundDuration":80541,"Delta":297377997},{"NoteNumber":63,"Velocity":64,"Duration":80541,"SoundDuration":80541,"Delta":297377997},{"NoteNumber":79,"Velocity":66,"Duration":80541,"SoundDuration":80541,"Delta":297458539},{"NoteNumber":67,"Velocity":71,"Duration":80541,"SoundDuration":80541,"Delta":297539080},{"NoteNumber":51,"Velocity":51,"Duration":80541,"SoundDuration":80541,"Delta":297539080},{"NoteNumber":55,"Velocity":51,"Duration":80541,"SoundDuration":80541,"Delta":297539080},{"NoteNumber":58,"Velocity":51,"Duration":80541,"SoundDuration":80541,"Delta":297539080},{"NoteNumber":63,"Velocity":64,"Duration":80541,"SoundDuration":80541,"Delta":297539080},{"NoteNumber":79,"Velocity":67,"Duration":80541,"SoundDuration":80541,"Delta":297619621},{"NoteNumber":67,"Velocity":82,"Duration":80541,"SoundDuration":80541,"Delta":297700162},{"NoteNumber":51,"Velocity":51,"Duration":80541,"SoundDuration":80541,"Delta":297700162},{"NoteNumber":55,"Velocity":51,"Duration":80541,"SoundDuration":80541,"Delta":297700162},{"NoteNumber":58,"Velocity":51,"Duration":80541,"SoundDuration":80541,"Delta":297700162},{"NoteNumber":63,"Velocity":64,"Duration":80541,"SoundDuration":80541,"Delta":297700162},{"NoteNumber":79,"Velocity":66,"Duration":80541,"SoundDuration":80541,"Delta":297780704},{"NoteNumber":70,"Velocity":72,"Duration":80541,"SoundDuration":80541,"Delta":297861245},{"NoteNumber":51,"Velocity":51,"Duration":80541,"SoundDuration":80541,"Delta":297861245},{"NoteNumber":55,"Velocity":51,"Duration":80541,"SoundDuration":80541,"Delta":297861245},{"NoteNumber":58,"Velocity":51,"Duration":80541,"SoundDuration":80541,"Delta":297861245},{"NoteNumber":63,"Velocity":64,"Duration":80541,"SoundDuration":80541,"Delta":297861245},{"NoteNumber":82,"Velocity":68,"Duration":80541,"SoundDuration":80541,"Delta":297941786},{"NoteNumber":70,"Velocity":73,"Duration":80541,"SoundDuration":80541,"Delta":298022327},{"NoteNumber":51,"Velocity":51,"Duration":80541,"SoundDuration":80541,"Delta":298022327},{"NoteNumber":55,"Velocity":51,"Duration":80541,"SoundDuration":80541,"Delta":298022327},{"NoteNumber":58,"Velocity":51,"Duration":80541,"SoundDuration":80541,"Delta":298022327},{"NoteNumber":63,"Velocity":64,"Duration":80541,"SoundDuration":80541,"Delta":298022327},{"NoteNumber":82,"Velocity":69,"Duration":82763,"SoundDuration":82763,"Delta":298102869},{"NoteNumber":70,"Velocity":85,"Duration":80325,"SoundDuration":80325,"Delta":298185632},{"NoteNumber":51,"Velocity":59,"Duration":80325,"SoundDuration":80325,"Delta":298185632},{"NoteNumber":55,"Velocity":59,"Duration":80325,"SoundDuration":80325,"Delta":298185632},{"NoteNumber":58,"Velocity":59,"Duration":80325,"SoundDuration":80325,"Delta":298185632},{"NoteNumber":63,"Velocity":74,"Duration":80325,"SoundDuration":80325,"Delta":298185632},{"NoteNumber":82,"Velocity":70,"Duration":80325,"SoundDuration":80325,"Delta":298265957},{"NoteNumber":75,"Velocity":75,"Duration":80325,"SoundDuration":80325,"Delta":298346283},{"NoteNumber":51,"Velocity":48,"Duration":80325,"SoundDuration":80325,"Delta":298346283},{"NoteNumber":55,"Velocity":48,"Duration":80325,"SoundDuration":80325,"Delta":298346283},{"NoteNumber":58,"Velocity":48,"Duration":80325,"SoundDuration":80325,"Delta":298346283},{"NoteNumber":63,"Velocity":61,"Duration":80325,"SoundDuration":80325,"Delta":298346283},{"NoteNumber":87,"Velocity":70,"Duration":80325,"SoundDuration":80325,"Delta":298426608},{"NoteNumber":75,"Velocity":76,"Duration":80325,"SoundDuration":80325,"Delta":298506934},{"NoteNumber":51,"Velocity":49,"Duration":80325,"SoundDuration":80325,"Delta":298506934},{"NoteNumber":55,"Velocity":49,"Duration":80325,"SoundDuration":80325,"Delta":298506934},{"NoteNumber":58,"Velocity":49,"Duration":80325,"SoundDuration":80325,"Delta":298506934},{"NoteNumber":63,"Velocity":62,"Duration":80325,"SoundDuration":80325,"Delta":298506934},{"NoteNumber":87,"Velocity":72,"Duration":80325,"SoundDuration":80325,"Delta":298587259},{"NoteNumber":75,"Velocity":88,"Duration":80325,"SoundDuration":80325,"Delta":298667585},{"NoteNumber":51,"Velocity":50,"Duration":80325,"SoundDuration":80325,"Delta":298667585},{"NoteNumber":55,"Velocity":50,"Duration":80325,"SoundDuration":80325,"Delta":298667585},{"NoteNumber":58,"Velocity":50,"Duration":80325,"SoundDuration":80325,"Delta":298667585},{"NoteNumber":63,"Velocity":63,"Duration":80325,"SoundDuration":80325,"Delta":298667585},{"NoteNumber":87,"Velocity":77,"Duration":80325,"SoundDuration":80325,"Delta":298747910},{"NoteNumber":79,"Velocity":88,"Duration":80325,"SoundDuration":80325,"Delta":298828236},{"NoteNumber":51,"Velocity":51,"Duration":80325,"SoundDuration":80325,"Delta":298828236},{"NoteNumber":55,"Velocity":51,"Duration":80325,"SoundDuration":80325,"Delta":298828236},{"NoteNumber":58,"Velocity":51,"Duration":80325,"SoundDuration":80325,"Delta":298828236},{"NoteNumber":63,"Velocity":64,"Duration":80325,"SoundDuration":80325,"Delta":298828236},{"NoteNumber":91,"Velocity":81,"Duration":80325,"SoundDuration":80325,"Delta":298908561},{"NoteNumber":82,"Velocity":92,"Duration":81637,"SoundDuration":81637,"Delta":298988887},{"NoteNumber":51,"Velocity":51,"Duration":81637,"SoundDuration":81637,"Delta":298988887},{"NoteNumber":55,"Velocity":51,"Duration":81637,"SoundDuration":81637,"Delta":298988887},{"NoteNumber":58,"Velocity":51,"Duration":81637,"SoundDuration":81637,"Delta":298988887},{"NoteNumber":63,"Velocity":64,"Duration":81637,"SoundDuration":81637,"Delta":298988887},{"NoteNumber":94,"Velocity":84,"Duration":86336,"SoundDuration":86336,"Delta":299070524},{"NoteNumber":87,"Velocity":101,"Duration":350385,"SoundDuration":350385,"Delta":299156860},{"NoteNumber":99,"Velocity":109,"Duration":350385,"SoundDuration":350385,"Delta":299156860},{"NoteNumber":51,"Velocity":59,"Duration":350385,"SoundDuration":350385,"Delta":299156860},{"NoteNumber":55,"Velocity":59,"Duration":350385,"SoundDuration":350385,"Delta":299156860},{"NoteNumber":58,"Velocity":59,"Duration":350385,"SoundDuration":350385,"Delta":299156860},{"NoteNumber":63,"Velocity":74,"Duration":350385,"SoundDuration":350385,"Delta":299156860},{"NoteNumber":74,"Velocity":88,"Duration":367556,"SoundDuration":367556,"Delta":299682437},{"NoteNumber":68,"Velocity":74,"Duration":367556,"SoundDuration":367556,"Delta":299682437},{"NoteNumber":65,"Velocity":74,"Duration":367556,"SoundDuration":367556,"Delta":299682437},{"NoteNumber":70,"Velocity":74,"Duration":367556,"SoundDuration":367556,"Delta":299682437},{"NoteNumber":46,"Velocity":57,"Duration":367556,"SoundDuration":367556,"Delta":299682437},{"NoteNumber":58,"Velocity":68,"Duration":367556,"SoundDuration":367556,"Delta":299682437},{"NoteNumber":67,"Velocity":77,"Duration":367557,"SoundDuration":367557,"Delta":300233773},{"NoteNumber":70,"Velocity":80,"Duration":367557,"SoundDuration":367557,"Delta":300233773},{"NoteNumber":75,"Velocity":95,"Duration":367557,"SoundDuration":367557,"Delta":300233773},{"NoteNumber":39,"Velocity":61,"Duration":367557,"SoundDuration":367557,"Delta":300233773},{"NoteNumber":51,"Velocity":74,"Duration":367557,"SoundDuration":367557,"Delta":300233773}],"license":{"name":"Creative Commons Attribution-ShareAlike 3.0 Germany","url":"http://creativecommons.org/licenses/by-sa/3.0/de/deed.en","text":"The MIDI files in this folder were downloaded from http://www.piano-midi.de and are licensed under the Creative Commons Attribution-ShareAlike 3.0 Germany license by Bernd Krueger.\n\nThe MIDI, audio(MP3, OGG) and video files of Bernd Krueger are licensed under the cc-by-sa Germany License . This means, that you can use and adapt the files, as long as you attribute to the copyright holder Name: Bernd Krueger Source: http://www.piano-midi.de The distribution or public playback of the files is only allowed under identical license conditions . The scores are open source.","attribution":"Bernd Krueger","attributionUrl":"http://www.piano-midi.de"}}