{"title":"Piano Sonata No. 8 in C minor, Op. 13 'Pathétique': III. Rondo: Allegro","artist":"Beethoven","durationMs":255649,"midiSha256":"71af287608337e8849dfb5683867f872108902afd73fe2426b29a51a8bf68055","midiObject":[{"NoteNumber":67,"Velocity":48,"Duration":74150,"SoundDuration":74150,"Delta":0},{"NoteNumber":72,"Velocity":49,"Duration":74150,"SoundDuration":74150,"Delta":148302},{"NoteNumber":74,"Velocity":51,"Duration":78905,"SoundDuration":78905,"Delta":296604},{"NoteNumber":75,"Velocity":52,"Duration":437846,"SoundDuration":437846,"Delta":454416},{"NoteNumber":48,"Velocity":40,"Duration":144934,"SoundDuration":144934,"Delta":454416},{"NoteNumber":51,"Velocity":36,"Duration":146455,"SoundDuration":146455,"Delta":599350},{"NoteNumber":55,"Velocity":36,"Duration":146456,"SoundDuration":146456,"Delta":745806},{"NoteNumber":77,"Velocity":50,"Duration":154910,"SoundDuration":154910,"Delta":892262},{"NoteNumber":60,"Velocity":36,"Duration":154910,"SoundDuration":154910,"Delta":892262},{"NoteNumber":74,"Velocity":53,"Duration":437574,"SoundDuration":437574,"Delta":1047173},{"NoteNumber":48,"Velocity":40,"Duration":144662,"SoundDuration":144662,"Delta":1047173},{"NoteNumber":53,"Velocity":40,"Duration":146455,"SoundDuration":146455,"Delta":1191835},{"NoteNumber":55,"Velocity":36,"Duration":146456,"SoundDuration":146456,"Delta":1338290},{"NoteNumber":75,"Velocity":50,"Duration":154115,"SoundDuration":154115,"Delta":1484747},{"NoteNumber":59,"Velocity":36,"Duration":154115,"SoundDuration":154115,"Delta":1484747},{"NoteNumber":72,"Velocity":52,"Duration":546610,"SoundDuration":546610,"Delta":1638862},{"NoteNumber":48,"Velocity":40,"Duration":144934,"SoundDuration":144934,"Delta":1638862},{"NoteNumber":51,"Velocity":40,"Duration":144934,"SoundDuration":144934,"Delta":1783796},{"NoteNumber":55,"Velocity":36,"Duration":144934,"SoundDuration":144934,"Delta":1928731},{"NoteNumber":60,"Velocity":36,"Duration":148385,"SoundDuration":148385,"Delta":2073665},{"NoteNumber":74,"Velocity":48,"Duration":36578,"SoundDuration":36578,"Delta":2185472},{"NoteNumber":72,"Velocity":52,"Duration":144934,"SoundDuration":144934,"Delta":2222050},{"NoteNumber":63,"Velocity":40,"Duration":144934,"SoundDuration":144934,"Delta":2222050},{"NoteNumber":71,"Velocity":51,"Duration":144934,"SoundDuration":144934,"Delta":2366985},{"NoteNumber":67,"Velocity":36,"Duration":144934,"SoundDuration":144934,"Delta":2366985},{"NoteNumber":72,"Velocity":51,"Duration":144934,"SoundDuration":144934,"Delta":2511919},{"NoteNumber":63,"Velocity":36,"Duration":144934,"SoundDuration":144934,"Delta":2511919},{"NoteNumber":74,"Velocity":50,"Duration":108700,"SoundDuration":108700,"Delta":2656854},{"NoteNumber":62,"Velocity":36,"Duration":144934,"SoundDuration":144934,"Delta":2656854},{"NoteNumber":77,"Velocity":49,"Duration":36233,"SoundDuration":36233,"Delta":2765555},{"NoteNumber":75,"Velocity":56,"Duration":144934,"SoundDuration":144934,"Delta":2801788},{"NoteNumber":60,"Velocity":40,"Duration":144934,"SoundDuration":144934,"Delta":2801788},{"NoteNumber":74,"Velocity":52,"Duration":144934,"SoundDuration":144934,"Delta":2946723},{"NoteNumber":67,"Velocity":36,"Duration":144934,"SoundDuration":144934,"Delta":2946723},{"NoteNumber":75,"Velocity":52,"Duration":144934,"SoundDuration":144934,"Delta":3091657},{"NoteNumber":60,"Velocity":36,"Duration":144934,"SoundDuration":144934,"Delta":3091657},{"NoteNumber":63,"Velocity":36,"Duration":144934,"SoundDuration":144934,"Delta":3091657},{"NoteNumber":77,"Velocity":52,"Duration":157397,"SoundDuration":157397,"Delta":3236592},{"NoteNumber":67,"Velocity":36,"Duration":157397,"SoundDuration":157397,"Delta":3236592},{"NoteNumber":79,"Velocity":56,"Duration":155731,"SoundDuration":155731,"Delta":3393989},{"NoteNumber":59,"Velocity":41,"Duration":155731,"SoundDuration":155731,"Delta":3393989},{"NoteNumber":62,"Velocity":41,"Duration":155731,"SoundDuration":155731,"Delta":3393989},{"NoteNumber":67,"Velocity":36,"Duration":155730,"SoundDuration":155730,"Delta":3549720},{"NoteNumber":79,"Velocity":55,"Duration":155731,"SoundDuration":155731,"Delta":3705451},{"NoteNumber":60,"Velocity":36,"Duration":155731,"SoundDuration":155731,"Delta":3705451},{"NoteNumber":56,"Velocity":36,"Duration":155731,"SoundDuration":155731,"Delta":3705451},{"NoteNumber":67,"Velocity":36,"Duration":155731,"SoundDuration":155731,"Delta":3861182},{"NoteNumber":79,"Velocity":57,"Duration":912792,"SoundDuration":912792,"Delta":4016913},{"NoteNumber":55,"Velocity":40,"Duration":155730,"SoundDuration":155730,"Delta":4016913},{"NoteNumber":59,"Velocity":29,"Duration":155731,"SoundDuration":155731,"Delta":4172644},{"NoteNumber":62,"Velocity":28,"Duration":155731,"SoundDuration":155731,"Delta":4328375},{"NoteNumber":67,"Velocity":28,"Duration":155730,"SoundDuration":155730,"Delta":4484106},{"NoteNumber":55,"Velocity":40,"Duration":144934,"SoundDuration":144934,"Delta":4639837},{"NoteNumber":59,"Velocity":31,"Duration":144934,"SoundDuration":144934,"Delta":4784772},{"NoteNumber":77,"Velocity":51,"Duration":144934,"SoundDuration":144934,"Delta":4929706},{"NoteNumber":62,"Velocity":31,"Duration":144934,"SoundDuration":144934,"Delta":4929706},{"NoteNumber":79,"Velocity":53,"Duration":80274,"SoundDuration":80274,"Delta":5074641},{"NoteNumber":67,"Velocity":31,"Duration":154388,"SoundDuration":154388,"Delta":5074641},{"NoteNumber":77,"Velocity":48,"Duration":37057,"SoundDuration":37057,"Delta":5154915},{"NoteNumber":79,"Velocity":48,"Duration":37057,"SoundDuration":37057,"Delta":5191972},{"NoteNumber":80,"Velocity":56,"Duration":585398,"SoundDuration":585398,"Delta":5229029},{"NoteNumber":53,"Velocity":40,"Duration":144934,"SoundDuration":144934,"Delta":5229029},{"NoteNumber":56,"Velocity":36,"Duration":146821,"SoundDuration":146821,"Delta":5373964},{"NoteNumber":59,"Velocity":37,"Duration":146821,"SoundDuration":146821,"Delta":5520785},{"NoteNumber":62,"Velocity":37,"Duration":146821,"SoundDuration":146821,"Delta":5667607},{"NoteNumber":74,"Velocity":52,"Duration":288628,"SoundDuration":288628,"Delta":5814428},{"NoteNumber":53,"Velocity":40,"Duration":144313,"SoundDuration":144313,"Delta":5814428},{"NoteNumber":56,"Velocity":36,"Duration":144314,"SoundDuration":144314,"Delta":5958742},{"NoteNumber":75,"Velocity":51,"Duration":144313,"SoundDuration":144313,"Delta":6103056},{"NoteNumber":59,"Velocity":36,"Duration":144313,"SoundDuration":144313,"Delta":6103056},{"NoteNumber":77,"Velocity":53,"Duration":79537,"SoundDuration":79537,"Delta":6247370},{"NoteNumber":62,"Velocity":36,"Duration":153651,"SoundDuration":153651,"Delta":6247370},{"NoteNumber":75,"Velocity":50,"Duration":37057,"SoundDuration":37057,"Delta":6326908},{"NoteNumber":77,"Velocity":50,"Duration":37057,"SoundDuration":37057,"Delta":6363965},{"NoteNumber":79,"Velocity":56,"Duration":585398,"SoundDuration":585398,"Delta":6401022},{"NoteNumber":51,"Velocity":40,"Duration":144934,"SoundDuration":144934,"Delta":6401022},{"NoteNumber":55,"Velocity":34,"Duration":146821,"SoundDuration":146821,"Delta":6545956},{"NoteNumber":60,"Velocity":34,"Duration":146821,"SoundDuration":146821,"Delta":6692778},{"NoteNumber":63,"Velocity":33,"Duration":146821,"SoundDuration":146821,"Delta":6839599},{"NoteNumber":72,"Velocity":52,"Duration":285707,"SoundDuration":285707,"Delta":6986421},{"NoteNumber":56,"Velocity":41,"Duration":144662,"SoundDuration":144662,"Delta":6986421},{"NoteNumber":60,"Velocity":35,"Duration":144662,"SoundDuration":144662,"Delta":7131083},{"NoteNumber":72,"Velocity":53,"Duration":144661,"SoundDuration":144661,"Delta":7275745},{"NoteNumber":63,"Velocity":35,"Duration":144661,"SoundDuration":144661,"Delta":7275745},{"NoteNumber":74,"Velocity":54,"Duration":149075,"SoundDuration":149075,"Delta":7420407},{"NoteNumber":66,"Velocity":35,"Duration":149075,"SoundDuration":149075,"Delta":7420407},{"NoteNumber":75,"Velocity":57,"Duration":144934,"SoundDuration":144934,"Delta":7569482},{"NoteNumber":55,"Velocity":40,"Duration":144934,"SoundDuration":144934,"Delta":7569482},{"NoteNumber":60,"Velocity":40,"Duration":146456,"SoundDuration":146456,"Delta":7714417},{"NoteNumber":75,"Velocity":53,"Duration":146455,"SoundDuration":146455,"Delta":7860873},{"NoteNumber":63,"Velocity":35,"Duration":146455,"SoundDuration":146455,"Delta":7860873},{"NoteNumber":77,"Velocity":46,"Duration":146456,"SoundDuration":146456,"Delta":8007329},{"NoteNumber":67,"Velocity":35,"Duration":146456,"SoundDuration":146456,"Delta":8007329},{"NoteNumber":74,"Velocity":57,"Duration":144662,"SoundDuration":144662,"Delta":8153785},{"NoteNumber":55,"Velocity":40,"Duration":144662,"SoundDuration":144662,"Delta":8153785},{"NoteNumber":59,"Velocity":36,"Duration":146098,"SoundDuration":146098,"Delta":8298447},{"NoteNumber":74,"Velocity":51,"Duration":146099,"SoundDuration":146099,"Delta":8444546},{"NoteNumber":62,"Velocity":36,"Duration":146099,"SoundDuration":146099,"Delta":8444546},{"NoteNumber":75,"Velocity":54,"Duration":149932,"SoundDuration":149932,"Delta":8590645},{"NoteNumber":67,"Velocity":36,"Duration":149932,"SoundDuration":149932,"Delta":8590645},{"NoteNumber":72,"Velocity":57,"Duration":301958,"SoundDuration":301958,"Delta":8740577},{"NoteNumber":48,"Velocity":38,"Duration":148647,"SoundDuration":148647,"Delta":8893889},{"NoteNumber":51,"Velocity":42,"Duration":153452,"SoundDuration":153452,"Delta":9042536},{"NoteNumber":55,"Velocity":45,"Duration":153452,"SoundDuration":153452,"Delta":9195989},{"NoteNumber":60,"Velocity":49,"Duration":290051,"SoundDuration":290051,"Delta":9349441},{"NoteNumber":77,"Velocity":56,"Duration":145025,"SoundDuration":145025,"Delta":9639492},{"NoteNumber":79,"Velocity":58,"Duration":154388,"SoundDuration":154388,"Delta":9784518},{"NoteNumber":68,"Velocity":51,"Duration":585398,"SoundDuration":585398,"Delta":9938906},{"NoteNumber":80,"Velocity":61,"Duration":585398,"SoundDuration":585398,"Delta":9938906},{"NoteNumber":41,"Velocity":43,"Duration":146821,"SoundDuration":146821,"Delta":10083841},{"NoteNumber":47,"Velocity":45,"Duration":146821,"SoundDuration":146821,"Delta":10230662},{"NoteNumber":50,"Velocity":47,"Duration":146821,"SoundDuration":146821,"Delta":10377484},{"NoteNumber":74,"Velocity":57,"Duration":288627,"SoundDuration":288627,"Delta":10524305},{"NoteNumber":53,"Velocity":49,"Duration":144313,"SoundDuration":144313,"Delta":10524305},{"NoteNumber":56,"Velocity":43,"Duration":144313,"SoundDuration":144313,"Delta":10668619},{"NoteNumber":75,"Velocity":56,"Duration":144314,"SoundDuration":144314,"Delta":10812933},{"NoteNumber":55,"Velocity":43,"Duration":144314,"SoundDuration":144314,"Delta":10812933},{"NoteNumber":77,"Velocity":58,"Duration":153651,"SoundDuration":153651,"Delta":10957247},{"NoteNumber":53,"Velocity":43,"Duration":153651,"SoundDuration":153651,"Delta":10957247},{"NoteNumber":67,"Velocity":51,"Duration":585398,"SoundDuration":585398,"Delta":11110899},{"NoteNumber":79,"Velocity":61,"Duration":585398,"SoundDuration":585398,"Delta":11110899},{"NoteNumber":39,"Velocity":40,"Duration":146821,"SoundDuration":146821,"Delta":11255833},{"NoteNumber":43,"Velocity":42,"Duration":146821,"SoundDuration":146821,"Delta":11402655},{"NoteNumber":48,"Velocity":45,"Duration":146821,"SoundDuration":146821,"Delta":11549476},{"NoteNumber":72,"Velocity":57,"Duration":289324,"SoundDuration":289324,"Delta":11696298},{"NoteNumber":51,"Velocity":48,"Duration":144662,"SoundDuration":144662,"Delta":11696298},{"NoteNumber":55,"Velocity":40,"Duration":144662,"SoundDuration":144662,"Delta":11840960},{"NoteNumber":72,"Velocity":58,"Duration":144661,"SoundDuration":144661,"Delta":11985622},{"NoteNumber":56,"Velocity":39,"Duration":144661,"SoundDuration":144661,"Delta":11985622},{"NoteNumber":74,"Velocity":59,"Duration":149075,"SoundDuration":149075,"Delta":12130284},{"NoteNumber":54,"Velocity":39,"Duration":149075,"SoundDuration":149075,"Delta":12130284},{"NoteNumber":75,"Velocity":62,"Duration":144934,"SoundDuration":144934,"Delta":12279359},{"NoteNumber":43,"Velocity":48,"Duration":144934,"SoundDuration":144934,"Delta":12279359},{"NoteNumber":55,"Velocity":44,"Duration":146456,"SoundDuration":146456,"Delta":12424294},{"NoteNumber":75,"Velocity":58,"Duration":146455,"SoundDuration":146455,"Delta":12570750},{"NoteNumber":60,"Velocity":38,"Duration":146455,"SoundDuration":146455,"Delta":12570750},{"NoteNumber":77,"Velocity":60,"Duration":146456,"SoundDuration":146456,"Delta":12717206},{"NoteNumber":55,"Velocity":38,"Duration":146456,"SoundDuration":146456,"Delta":12717206},{"NoteNumber":74,"Velocity":62,"Duration":144662,"SoundDuration":144662,"Delta":12863662},{"NoteNumber":43,"Velocity":48,"Duration":144662,"SoundDuration":144662,"Delta":12863662},{"NoteNumber":55,"Velocity":39,"Duration":146098,"SoundDuration":146098,"Delta":13008324},{"NoteNumber":74,"Velocity":56,"Duration":146099,"SoundDuration":146099,"Delta":13154423},{"NoteNumber":59,"Velocity":39,"Duration":146099,"SoundDuration":146099,"Delta":13154423},{"NoteNumber":75,"Velocity":59,"Duration":149932,"SoundDuration":149932,"Delta":13300522},{"NoteNumber":55,"Velocity":39,"Duration":149932,"SoundDuration":149932,"Delta":13300522},{"NoteNumber":72,"Velocity":62,"Duration":153311,"SoundDuration":153311,"Delta":13450454},{"NoteNumber":48,"Velocity":52,"Duration":153311,"SoundDuration":153311,"Delta":13450454},{"NoteNumber":60,"Velocity":45,"Duration":148647,"SoundDuration":148647,"Delta":13603766},{"NoteNumber":82,"Velocity":74,"Duration":613810,"SoundDuration":613810,"Delta":13752413},{"NoteNumber":59,"Velocity":45,"Duration":153452,"SoundDuration":153452,"Delta":13752413},{"NoteNumber":60,"Velocity":45,"Duration":153452,"SoundDuration":153452,"Delta":13905866},{"NoteNumber":52,"Velocity":52,"Duration":153452,"SoundDuration":153452,"Delta":14059318},{"NoteNumber":60,"Velocity":48,"Duration":153452,"SoundDuration":153452,"Delta":14212771},{"NoteNumber":82,"Velocity":73,"Duration":460357,"SoundDuration":460357,"Delta":14366223},{"NoteNumber":55,"Velocity":48,"Duration":153452,"SoundDuration":153452,"Delta":14366223},{"NoteNumber":60,"Velocity":48,"Duration":153452,"SoundDuration":153452,"Delta":14519676},{"NoteNumber":53,"Velocity":53,"Duration":153452,"SoundDuration":153452,"Delta":14673128},{"NoteNumber":80,"Velocity":71,"Duration":153452,"SoundDuration":153452,"Delta":14826581},{"NoteNumber":60,"Velocity":49,"Duration":153452,"SoundDuration":153452,"Delta":14826581},{"NoteNumber":79,"Velocity":72,"Duration":144934,"SoundDuration":144934,"Delta":14980033},{"NoteNumber":56,"Velocity":50,"Duration":144934,"SoundDuration":144934,"Delta":14980033},{"NoteNumber":77,"Velocity":72,"Duration":144934,"SoundDuration":144934,"Delta":15124968},{"NoteNumber":60,"Velocity":49,"Duration":144934,"SoundDuration":144934,"Delta":15124968},{"NoteNumber":75,"Velocity":71,"Duration":144934,"SoundDuration":144934,"Delta":15269902},{"NoteNumber":55,"Velocity":54,"Duration":144934,"SoundDuration":144934,"Delta":15269902},{"NoteNumber":74,"Velocity":71,"Duration":144934,"SoundDuration":144934,"Delta":15414837},{"NoteNumber":65,"Velocity":52,"Duration":144934,"SoundDuration":144934,"Delta":15414837},{"NoteNumber":72,"Velocity":71,"Duration":144934,"SoundDuration":144934,"Delta":15559771},{"NoteNumber":59,"Velocity":46,"Duration":144934,"SoundDuration":144934,"Delta":15559771},{"NoteNumber":71,"Velocity":71,"Duration":144934,"SoundDuration":144934,"Delta":15704706},{"NoteNumber":65,"Velocity":50,"Duration":144934,"SoundDuration":144934,"Delta":15704706},{"NoteNumber":72,"Velocity":73,"Duration":153311,"SoundDuration":153311,"Delta":15849640},{"NoteNumber":56,"Velocity":54,"Duration":153311,"SoundDuration":153311,"Delta":15849640},{"NoteNumber":63,"Velocity":47,"Duration":148647,"SoundDuration":148647,"Delta":16002952},{"NoteNumber":72,"Velocity":67,"Duration":613810,"SoundDuration":613810,"Delta":16151599},{"NoteNumber":84,"Velocity":79,"Duration":613810,"SoundDuration":613810,"Delta":16151599},{"NoteNumber":60,"Velocity":47,"Duration":153452,"SoundDuration":153452,"Delta":16151599},{"NoteNumber":63,"Velocity":47,"Duration":153452,"SoundDuration":153452,"Delta":16305052},{"NoteNumber":55,"Velocity":62,"Duration":153452,"SoundDuration":153452,"Delta":16458504},{"NoteNumber":64,"Velocity":54,"Duration":153452,"SoundDuration":153452,"Delta":16611957},{"NoteNumber":82,"Velocity":80,"Duration":460357,"SoundDuration":460357,"Delta":16765409},{"NoteNumber":60,"Velocity":55,"Duration":153452,"SoundDuration":153452,"Delta":16765409},{"NoteNumber":64,"Velocity":55,"Duration":153452,"SoundDuration":153452,"Delta":16918862},{"NoteNumber":53,"Velocity":64,"Duration":153452,"SoundDuration":153452,"Delta":17072314},{"NoteNumber":80,"Velocity":81,"Duration":153452,"SoundDuration":153452,"Delta":17225767},{"NoteNumber":65,"Velocity":57,"Duration":153452,"SoundDuration":153452,"Delta":17225767},{"NoteNumber":79,"Velocity":82,"Duration":144934,"SoundDuration":144934,"Delta":17379219},{"NoteNumber":60,"Velocity":58,"Duration":144934,"SoundDuration":144934,"Delta":17379219},{"NoteNumber":77,"Velocity":81,"Duration":144934,"SoundDuration":144934,"Delta":17524154},{"NoteNumber":65,"Velocity":57,"Duration":144934,"SoundDuration":144934,"Delta":17524154},{"NoteNumber":75,"Velocity":79,"Duration":144934,"SoundDuration":144934,"Delta":17669088},{"NoteNumber":55,"Velocity":63,"Duration":144934,"SoundDuration":144934,"Delta":17669088},{"NoteNumber":74,"Velocity":79,"Duration":144934,"SoundDuration":144934,"Delta":17814023},{"NoteNumber":67,"Velocity":57,"Duration":144934,"SoundDuration":144934,"Delta":17814023},{"NoteNumber":72,"Velocity":79,"Duration":144934,"SoundDuration":144934,"Delta":17958957},{"NoteNumber":55,"Velocity":57,"Duration":144934,"SoundDuration":144934,"Delta":17958957},{"NoteNumber":71,"Velocity":78,"Duration":144934,"SoundDuration":144934,"Delta":18103892},{"NoteNumber":67,"Velocity":56,"Duration":144934,"SoundDuration":144934,"Delta":18103892},{"NoteNumber":72,"Velocity":89,"Duration":150187,"SoundDuration":150187,"Delta":18248826},{"NoteNumber":60,"Velocity":68,"Duration":150187,"SoundDuration":150187,"Delta":18248826},{"NoteNumber":74,"Velocity":81,"Duration":50838,"SoundDuration":50838,"Delta":18549201},{"NoteNumber":55,"Velocity":62,"Duration":152516,"SoundDuration":152516,"Delta":18549201},{"NoteNumber":59,"Velocity":62,"Duration":152516,"SoundDuration":152516,"Delta":18549201},{"NoteNumber":75,"Velocity":81,"Duration":50838,"SoundDuration":50838,"Delta":18600040},{"NoteNumber":74,"Velocity":81,"Duration":50838,"SoundDuration":50838,"Delta":18650879},{"NoteNumber":75,"Velocity":81,"Duration":38129,"SoundDuration":38129,"Delta":18701718},{"NoteNumber":74,"Velocity":81,"Duration":38129,"SoundDuration":38129,"Delta":18739847},{"NoteNumber":72,"Velocity":80,"Duration":38129,"SoundDuration":38129,"Delta":18777976},{"NoteNumber":74,"Velocity":80,"Duration":38129,"SoundDuration":38129,"Delta":18816105},{"NoteNumber":75,"Velocity":92,"Duration":153704,"SoundDuration":153704,"Delta":18854234},{"NoteNumber":48,"Velocity":62,"Duration":153704,"SoundDuration":153704,"Delta":18854234},{"NoteNumber":60,"Velocity":62,"Duration":153704,"SoundDuration":153704,"Delta":18854234},{"NoteNumber":71,"Velocity":92,"Duration":159531,"SoundDuration":159531,"Delta":19161643},{"NoteNumber":74,"Velocity":92,"Duration":159531,"SoundDuration":159531,"Delta":19161643},{"NoteNumber":83,"Velocity":92,"Duration":159531,"SoundDuration":159531,"Delta":19161643},{"NoteNumber":43,"Velocity":62,"Duration":159531,"SoundDuration":159531,"Delta":19161643},{"NoteNumber":55,"Velocity":62,"Duration":159531,"SoundDuration":159531,"Delta":19161643},{"NoteNumber":72,"Velocity":92,"Duration":159531,"SoundDuration":159531,"Delta":19480707},{"NoteNumber":75,"Velocity":92,"Duration":159531,"SoundDuration":159531,"Delta":19480707},{"NoteNumber":84,"Velocity":92,"Duration":159531,"SoundDuration":159531,"Delta":19480707},{"NoteNumber":36,"Velocity":69,"Duration":159531,"SoundDuration":159531,"Delta":19480707},{"NoteNumber":48,"Velocity":69,"Duration":159531,"SoundDuration":159531,"Delta":19480707},{"NoteNumber":55,"Velocity":73,"Duration":1174572,"SoundDuration":1174572,"Delta":20756963},{"NoteNumber":60,"Velocity":73,"Duration":1174572,"SoundDuration":1174572,"Delta":20756963},{"NoteNumber":64,"Velocity":86,"Duration":1174572,"SoundDuration":1174572,"Delta":20756963},{"NoteNumber":34,"Velocity":58,"Duration":1174572,"SoundDuration":1174572,"Delta":20756963},{"NoteNumber":46,"Velocity":69,"Duration":1174572,"SoundDuration":1174572,"Delta":20756963},{"NoteNumber":65,"Velocity":50,"Duration":147558,"SoundDuration":147558,"Delta":21931535},{"NoteNumber":32,"Velocity":57,"Duration":294746,"SoundDuration":294746,"Delta":21931535},{"NoteNumber":44,"Velocity":68,"Duration":294746,"SoundDuration":294746,"Delta":21931535},{"NoteNumber":72,"Velocity":51,"Duration":147188,"SoundDuration":147188,"Delta":22079093},{"NoteNumber":68,"Velocity":53,"Duration":146821,"SoundDuration":146821,"Delta":22226282},{"NoteNumber":77,"Velocity":54,"Duration":146456,"SoundDuration":146456,"Delta":22373103},{"NoteNumber":72,"Velocity":55,"Duration":146098,"SoundDuration":146098,"Delta":22519559},{"NoteNumber":80,"Velocity":56,"Duration":145737,"SoundDuration":145737,"Delta":22665658},{"NoteNumber":77,"Velocity":57,"Duration":145383,"SoundDuration":145383,"Delta":22811395},{"NoteNumber":84,"Velocity":59,"Duration":144964,"SoundDuration":144964,"Delta":22956779},{"NoteNumber":82,"Velocity":59,"Duration":144662,"SoundDuration":144662,"Delta":23101744},{"NoteNumber":79,"Velocity":59,"Duration":144662,"SoundDuration":144662,"Delta":23246406},{"NoteNumber":76,"Velocity":58,"Duration":144662,"SoundDuration":144662,"Delta":23391068},{"NoteNumber":52,"Velocity":46,"Duration":289324,"SoundDuration":289324,"Delta":23391068},{"NoteNumber":60,"Velocity":55,"Duration":289324,"SoundDuration":289324,"Delta":23391068},{"NoteNumber":72,"Velocity":57,"Duration":144662,"SoundDuration":144662,"Delta":23535730},{"NoteNumber":70,"Velocity":56,"Duration":150187,"SoundDuration":150187,"Delta":23680392},{"NoteNumber":52,"Velocity":46,"Duration":300374,"SoundDuration":300374,"Delta":23680392},{"NoteNumber":60,"Velocity":55,"Duration":300374,"SoundDuration":300374,"Delta":23680392},{"NoteNumber":71,"Velocity":55,"Duration":150187,"SoundDuration":150187,"Delta":23830580},{"NoteNumber":72,"Velocity":55,"Duration":152516,"SoundDuration":152516,"Delta":23980767},{"NoteNumber":52,"Velocity":46,"Duration":310328,"SoundDuration":310328,"Delta":23980767},{"NoteNumber":60,"Velocity":55,"Duration":310328,"SoundDuration":310328,"Delta":23980767},{"NoteNumber":67,"Velocity":54,"Duration":157811,"SoundDuration":157811,"Delta":24133284},{"NoteNumber":70,"Velocity":60,"Duration":632943,"SoundDuration":632943,"Delta":24291095},{"NoteNumber":53,"Velocity":46,"Duration":949415,"SoundDuration":949415,"Delta":24291095},{"NoteNumber":60,"Velocity":55,"Duration":949415,"SoundDuration":949415,"Delta":24291095},{"NoteNumber":68,"Velocity":56,"Duration":316472,"SoundDuration":316472,"Delta":24924039},{"NoteNumber":53,"Velocity":73,"Duration":1174572,"SoundDuration":1174572,"Delta":25556983},{"NoteNumber":58,"Velocity":73,"Duration":1174572,"SoundDuration":1174572,"Delta":25556983},{"NoteNumber":62,"Velocity":86,"Duration":1174572,"SoundDuration":1174572,"Delta":25556983},{"NoteNumber":32,"Velocity":58,"Duration":1174572,"SoundDuration":1174572,"Delta":25556983},{"NoteNumber":44,"Velocity":69,"Duration":1174572,"SoundDuration":1174572,"Delta":25556983},{"NoteNumber":63,"Velocity":50,"Duration":147558,"SoundDuration":147558,"Delta":26731555},{"NoteNumber":31,"Velocity":57,"Duration":294746,"SoundDuration":294746,"Delta":26731555},{"NoteNumber":43,"Velocity":68,"Duration":294746,"SoundDuration":294746,"Delta":26731555},{"NoteNumber":70,"Velocity":51,"Duration":147188,"SoundDuration":147188,"Delta":26879113},{"NoteNumber":67,"Velocity":53,"Duration":146821,"SoundDuration":146821,"Delta":27026302},{"NoteNumber":75,"Velocity":54,"Duration":146456,"SoundDuration":146456,"Delta":27173123},{"NoteNumber":70,"Velocity":55,"Duration":146098,"SoundDuration":146098,"Delta":27319579},{"NoteNumber":79,"Velocity":56,"Duration":145737,"SoundDuration":145737,"Delta":27465678},{"NoteNumber":75,"Velocity":57,"Duration":145383,"SoundDuration":145383,"Delta":27611415},{"NoteNumber":82,"Velocity":59,"Duration":144964,"SoundDuration":144964,"Delta":27756799},{"NoteNumber":80,"Velocity":59,"Duration":144662,"SoundDuration":144662,"Delta":27901764},{"NoteNumber":79,"Velocity":59,"Duration":144662,"SoundDuration":144662,"Delta":28046426},{"NoteNumber":77,"Velocity":58,"Duration":144662,"SoundDuration":144662,"Delta":28191088},{"NoteNumber":50,"Velocity":46,"Duration":289324,"SoundDuration":289324,"Delta":28191088},{"NoteNumber":58,"Velocity":55,"Duration":289324,"SoundDuration":289324,"Delta":28191088},{"NoteNumber":75,"Velocity":57,"Duration":144662,"SoundDuration":144662,"Delta":28335750},{"NoteNumber":74,"Velocity":56,"Duration":150187,"SoundDuration":150187,"Delta":28480412},{"NoteNumber":50,"Velocity":46,"Duration":300374,"SoundDuration":300374,"Delta":28480412},{"NoteNumber":58,"Velocity":55,"Duration":300374,"SoundDuration":300374,"Delta":28480412},{"NoteNumber":72,"Velocity":55,"Duration":150187,"SoundDuration":150187,"Delta":28630600},{"NoteNumber":70,"Velocity":55,"Duration":152516,"SoundDuration":152516,"Delta":28780787},{"NoteNumber":50,"Velocity":46,"Duration":310328,"SoundDuration":310328,"Delta":28780787},{"NoteNumber":58,"Velocity":55,"Duration":310328,"SoundDuration":310328,"Delta":28780787},{"NoteNumber":68,"Velocity":54,"Duration":157811,"SoundDuration":157811,"Delta":28933304},{"NoteNumber":67,"Velocity":60,"Duration":158235,"SoundDuration":158235,"Delta":29091115},{"NoteNumber":51,"Velocity":46,"Duration":158235,"SoundDuration":158235,"Delta":29091115},{"NoteNumber":58,"Velocity":31,"Duration":158236,"SoundDuration":158236,"Delta":29249351},{"NoteNumber":70,"Velocity":60,"Duration":596213,"SoundDuration":596213,"Delta":29407587},{"NoteNumber":63,"Velocity":31,"Duration":149053,"SoundDuration":149053,"Delta":29407587},{"NoteNumber":58,"Velocity":31,"Duration":149053,"SoundDuration":149053,"Delta":29556641},{"NoteNumber":56,"Velocity":42,"Duration":149053,"SoundDuration":149053,"Delta":29705694},{"NoteNumber":58,"Velocity":30,"Duration":149053,"SoundDuration":149053,"Delta":29854748},{"NoteNumber":70,"Velocity":56,"Duration":447531,"SoundDuration":447531,"Delta":30003801},{"NoteNumber":62,"Velocity":30,"Duration":149053,"SoundDuration":149053,"Delta":30003801},{"NoteNumber":58,"Velocity":30,"Duration":149053,"SoundDuration":149053,"Delta":30152855},{"NoteNumber":55,"Velocity":42,"Duration":149424,"SoundDuration":149424,"Delta":30301908},{"NoteNumber":72,"Velocity":54,"Duration":149237,"SoundDuration":149237,"Delta":30451333},{"NoteNumber":58,"Velocity":33,"Duration":149237,"SoundDuration":149237,"Delta":30451333},{"NoteNumber":74,"Velocity":55,"Duration":148177,"SoundDuration":148177,"Delta":30600570},{"NoteNumber":63,"Velocity":33,"Duration":148177,"SoundDuration":148177,"Delta":30600570},{"NoteNumber":75,"Velocity":57,"Duration":147743,"SoundDuration":147743,"Delta":30748748},{"NoteNumber":58,"Velocity":34,"Duration":147743,"SoundDuration":147743,"Delta":30748748},{"NoteNumber":77,"Velocity":58,"Duration":147311,"SoundDuration":147311,"Delta":30896491},{"NoteNumber":50,"Velocity":41,"Duration":147311,"SoundDuration":147311,"Delta":30896491},{"NoteNumber":79,"Velocity":60,"Duration":147188,"SoundDuration":147188,"Delta":31043803},{"NoteNumber":58,"Velocity":33,"Duration":147188,"SoundDuration":147188,"Delta":31043803},{"NoteNumber":80,"Velocity":61,"Duration":147188,"SoundDuration":147188,"Delta":31190991},{"NoteNumber":62,"Velocity":33,"Duration":147188,"SoundDuration":147188,"Delta":31190991},{"NoteNumber":77,"Velocity":58,"Duration":152912,"SoundDuration":152912,"Delta":31338180},{"NoteNumber":58,"Velocity":33,"Duration":152912,"SoundDuration":152912,"Delta":31338180},{"NoteNumber":80,"Velocity":61,"Duration":148302,"SoundDuration":148302,"Delta":31491093},{"NoteNumber":51,"Velocity":40,"Duration":148302,"SoundDuration":148302,"Delta":31491093},{"NoteNumber":79,"Velocity":60,"Duration":148302,"SoundDuration":148302,"Delta":31639395},{"NoteNumber":58,"Velocity":35,"Duration":148302,"SoundDuration":148302,"Delta":31639395},{"NoteNumber":77,"Velocity":59,"Duration":148302,"SoundDuration":148302,"Delta":31787697},{"NoteNumber":63,"Velocity":35,"Duration":148302,"SoundDuration":148302,"Delta":31787697},{"NoteNumber":75,"Velocity":58,"Duration":140895,"SoundDuration":140895,"Delta":31935999},{"NoteNumber":58,"Velocity":35,"Duration":153704,"SoundDuration":153704,"Delta":31935999},{"NoteNumber":75,"Velocity":60,"Duration":150564,"SoundDuration":150564,"Delta":32089703},{"NoteNumber":56,"Velocity":40,"Duration":150564,"SoundDuration":150564,"Delta":32089703},{"NoteNumber":74,"Velocity":58,"Duration":150564,"SoundDuration":150564,"Delta":32240268},{"NoteNumber":58,"Velocity":35,"Duration":150564,"SoundDuration":150564,"Delta":32240268},{"NoteNumber":72,"Velocity":58,"Duration":150564,"SoundDuration":150564,"Delta":32390832},{"NoteNumber":65,"Velocity":36,"Duration":150564,"SoundDuration":150564,"Delta":32390832},{"NoteNumber":74,"Velocity":58,"Duration":150564,"SoundDuration":150564,"Delta":32541397},{"NoteNumber":58,"Velocity":36,"Duration":150564,"SoundDuration":150564,"Delta":32541397},{"NoteNumber":77,"Velocity":63,"Duration":149053,"SoundDuration":149053,"Delta":32691961},{"NoteNumber":55,"Velocity":40,"Duration":149053,"SoundDuration":149053,"Delta":32691961},{"NoteNumber":75,"Velocity":57,"Duration":149053,"SoundDuration":149053,"Delta":32841015},{"NoteNumber":58,"Velocity":35,"Duration":149053,"SoundDuration":149053,"Delta":32841015},{"NoteNumber":74,"Velocity":57,"Duration":149053,"SoundDuration":149053,"Delta":32990068},{"NoteNumber":63,"Velocity":36,"Duration":149053,"SoundDuration":149053,"Delta":32990068},{"NoteNumber":72,"Velocity":57,"Duration":149053,"SoundDuration":149053,"Delta":33139122},{"NoteNumber":58,"Velocity":36,"Duration":149053,"SoundDuration":149053,"Delta":33139122},{"NoteNumber":68,"Velocity":60,"Duration":268296,"SoundDuration":268296,"Delta":33288175},{"NoteNumber":70,"Velocity":60,"Duration":268296,"SoundDuration":268296,"Delta":33288175},{"NoteNumber":50,"Velocity":40,"Duration":149053,"SoundDuration":149053,"Delta":33288175},{"NoteNumber":58,"Velocity":34,"Duration":149053,"SoundDuration":149053,"Delta":33437229},{"NoteNumber":68,"Velocity":60,"Duration":268296,"SoundDuration":268296,"Delta":33586282},{"NoteNumber":70,"Velocity":60,"Duration":268296,"SoundDuration":268296,"Delta":33586282},{"NoteNumber":50,"Velocity":34,"Duration":149053,"SoundDuration":149053,"Delta":33586282},{"NoteNumber":58,"Velocity":34,"Duration":149053,"SoundDuration":149053,"Delta":33735336},{"NoteNumber":68,"Velocity":60,"Duration":148055,"SoundDuration":148055,"Delta":33884389},{"NoteNumber":70,"Velocity":60,"Duration":1323163,"SoundDuration":1323163,"Delta":33884389},{"NoteNumber":51,"Velocity":41,"Duration":148055,"SoundDuration":148055,"Delta":33884389},{"NoteNumber":67,"Velocity":53,"Duration":148053,"SoundDuration":148053,"Delta":34032445},{"NoteNumber":58,"Velocity":34,"Duration":148053,"SoundDuration":148053,"Delta":34032445},{"NoteNumber":65,"Velocity":53,"Duration":147743,"SoundDuration":147743,"Delta":34180498},{"NoteNumber":51,"Velocity":34,"Duration":147743,"SoundDuration":147743,"Delta":34180498},{"NoteNumber":63,"Velocity":53,"Duration":135107,"SoundDuration":135107,"Delta":34328242},{"NoteNumber":58,"Velocity":34,"Duration":147373,"SoundDuration":147373,"Delta":34328242},{"NoteNumber":63,"Velocity":57,"Duration":147066,"SoundDuration":147066,"Delta":34475615},{"NoteNumber":56,"Velocity":40,"Duration":147066,"SoundDuration":147066,"Delta":34475615},{"NoteNumber":62,"Velocity":52,"Duration":146699,"SoundDuration":146699,"Delta":34622681},{"NoteNumber":58,"Velocity":34,"Duration":146699,"SoundDuration":146699,"Delta":34622681},{"NoteNumber":60,"Velocity":52,"Duration":146396,"SoundDuration":146396,"Delta":34769381},{"NoteNumber":56,"Velocity":34,"Duration":146396,"SoundDuration":146396,"Delta":34769381},{"NoteNumber":62,"Velocity":52,"Duration":146038,"SoundDuration":146038,"Delta":34915777},{"NoteNumber":58,"Velocity":34,"Duration":146038,"SoundDuration":146038,"Delta":34915777},{"NoteNumber":63,"Velocity":55,"Duration":145736,"SoundDuration":145736,"Delta":35061816},{"NoteNumber":54,"Velocity":40,"Duration":145736,"SoundDuration":145736,"Delta":35061816},{"NoteNumber":72,"Velocity":56,"Duration":145737,"SoundDuration":145737,"Delta":35207553},{"NoteNumber":58,"Velocity":36,"Duration":145737,"SoundDuration":145737,"Delta":35207553},{"NoteNumber":74,"Velocity":58,"Duration":145736,"SoundDuration":145736,"Delta":35353290},{"NoteNumber":54,"Velocity":37,"Duration":145736,"SoundDuration":145736,"Delta":35353290},{"NoteNumber":75,"Velocity":59,"Duration":145737,"SoundDuration":145737,"Delta":35499027},{"NoteNumber":58,"Velocity":37,"Duration":145737,"SoundDuration":145737,"Delta":35499027},{"NoteNumber":77,"Velocity":61,"Duration":145736,"SoundDuration":145736,"Delta":35644764},{"NoteNumber":50,"Velocity":41,"Duration":145736,"SoundDuration":145736,"Delta":35644764},{"NoteNumber":78,"Velocity":63,"Duration":145736,"SoundDuration":145736,"Delta":35790501},{"NoteNumber":58,"Velocity":36,"Duration":145736,"SoundDuration":145736,"Delta":35790501},{"NoteNumber":80,"Velocity":64,"Duration":145737,"SoundDuration":145737,"Delta":35936238},{"NoteNumber":50,"Velocity":36,"Duration":145737,"SoundDuration":145737,"Delta":35936238},{"NoteNumber":77,"Velocity":62,"Duration":145678,"SoundDuration":145678,"Delta":36081975},{"NoteNumber":58,"Velocity":36,"Duration":145678,"SoundDuration":145678,"Delta":36081975},{"NoteNumber":78,"Velocity":65,"Duration":290108,"SoundDuration":290108,"Delta":36227653},{"NoteNumber":51,"Velocity":39,"Duration":145264,"SoundDuration":145264,"Delta":36227653},{"NoteNumber":58,"Velocity":39,"Duration":144843,"SoundDuration":144843,"Delta":36372917},{"NoteNumber":82,"Velocity":72,"Duration":569621,"SoundDuration":569621,"Delta":36517761},{"NoteNumber":54,"Velocity":41,"Duration":144430,"SoundDuration":144430,"Delta":36517761},{"NoteNumber":58,"Velocity":41,"Duration":143956,"SoundDuration":143956,"Delta":36662191},{"NoteNumber":46,"Velocity":42,"Duration":143609,"SoundDuration":143609,"Delta":36806148},{"NoteNumber":58,"Velocity":43,"Duration":143609,"SoundDuration":143609,"Delta":36949757},{"NoteNumber":82,"Velocity":74,"Duration":582334,"SoundDuration":582334,"Delta":37093367},{"NoteNumber":50,"Velocity":44,"Duration":143609,"SoundDuration":143609,"Delta":37093367},{"NoteNumber":58,"Velocity":45,"Duration":143609,"SoundDuration":143609,"Delta":37236976},{"NoteNumber":47,"Velocity":45,"Duration":147557,"SoundDuration":147557,"Delta":37380586},{"NoteNumber":58,"Velocity":47,"Duration":147558,"SoundDuration":147558,"Delta":37528144},{"NoteNumber":87,"Velocity":91,"Duration":577451,"SoundDuration":577451,"Delta":37675702},{"NoteNumber":51,"Velocity":51,"Duration":143609,"SoundDuration":143609,"Delta":37675702},{"NoteNumber":58,"Velocity":54,"Duration":143609,"SoundDuration":143609,"Delta":37819311},{"NoteNumber":47,"Velocity":58,"Duration":144313,"SoundDuration":144313,"Delta":37962921},{"NoteNumber":57,"Velocity":49,"Duration":145919,"SoundDuration":145919,"Delta":38107234},{"NoteNumber":81,"Velocity":78,"Duration":296799,"SoundDuration":296799,"Delta":38253153},{"NoteNumber":51,"Velocity":49,"Duration":147559,"SoundDuration":147559,"Delta":38253153},{"NoteNumber":57,"Velocity":49,"Duration":149240,"SoundDuration":149240,"Delta":38400713},{"NoteNumber":82,"Velocity":60,"Duration":692092,"SoundDuration":692092,"Delta":38549953},{"NoteNumber":46,"Velocity":60,"Duration":303458,"SoundDuration":303458,"Delta":38549953},{"NoteNumber":58,"Velocity":46,"Duration":143609,"SoundDuration":143609,"Delta":38853412},{"NoteNumber":62,"Velocity":46,"Duration":143609,"SoundDuration":143609,"Delta":38853412},{"NoteNumber":65,"Velocity":55,"Duration":143609,"SoundDuration":143609,"Delta":38853412},{"NoteNumber":58,"Velocity":59,"Duration":580113,"SoundDuration":580113,"Delta":39140631},{"NoteNumber":66,"Velocity":70,"Duration":580113,"SoundDuration":580113,"Delta":39140631},{"NoteNumber":63,"Velocity":59,"Duration":580113,"SoundDuration":580113,"Delta":39140631},{"NoteNumber":81,"Velocity":49,"Duration":95739,"SoundDuration":95739,"Delta":39242046},{"NoteNumber":82,"Velocity":51,"Duration":95739,"SoundDuration":95739,"Delta":39337785},{"NoteNumber":84,"Velocity":53,"Duration":95739,"SoundDuration":95739,"Delta":39433525},{"NoteNumber":82,"Velocity":50,"Duration":95739,"SoundDuration":95739,"Delta":39529265},{"NoteNumber":81,"Velocity":50,"Duration":95739,"SoundDuration":95739,"Delta":39625004},{"NoteNumber":82,"Velocity":50,"Duration":691605,"SoundDuration":691605,"Delta":39720744},{"NoteNumber":58,"Velocity":46,"Duration":143609,"SoundDuration":143609,"Delta":40022661},{"NoteNumber":62,"Velocity":46,"Duration":143609,"SoundDuration":143609,"Delta":40022661},{"NoteNumber":65,"Velocity":55,"Duration":143609,"SoundDuration":143609,"Delta":40022661},{"NoteNumber":58,"Velocity":59,"Duration":581168,"SoundDuration":581168,"Delta":40309880},{"NoteNumber":66,"Velocity":70,"Duration":581168,"SoundDuration":581168,"Delta":40309880},{"NoteNumber":63,"Velocity":59,"Duration":581168,"SoundDuration":581168,"Delta":40309880},{"NoteNumber":81,"Velocity":49,"Duration":95739,"SoundDuration":95739,"Delta":40412350},{"NoteNumber":82,"Velocity":51,"Duration":95739,"SoundDuration":95739,"Delta":40508089},{"NoteNumber":84,"Velocity":53,"Duration":95739,"SoundDuration":95739,"Delta":40603829},{"NoteNumber":82,"Velocity":50,"Duration":95739,"SoundDuration":95739,"Delta":40699569},{"NoteNumber":81,"Velocity":50,"Duration":95739,"SoundDuration":95739,"Delta":40795308},{"NoteNumber":58,"Velocity":46,"Duration":298700,"SoundDuration":298700,"Delta":40891048},{"NoteNumber":62,"Velocity":46,"Duration":298700,"SoundDuration":298700,"Delta":40891048},{"NoteNumber":65,"Velocity":55,"Duration":298700,"SoundDuration":298700,"Delta":40891048},{"NoteNumber":82,"Velocity":54,"Duration":95739,"SoundDuration":95739,"Delta":40998269},{"NoteNumber":84,"Velocity":56,"Duration":95739,"SoundDuration":95739,"Delta":41094009},{"NoteNumber":86,"Velocity":58,"Duration":95739,"SoundDuration":95739,"Delta":41189749},{"NoteNumber":84,"Velocity":55,"Duration":95739,"SoundDuration":95739,"Delta":41285488},{"NoteNumber":82,"Velocity":52,"Duration":95739,"SoundDuration":95739,"Delta":41381228},{"NoteNumber":58,"Velocity":46,"Duration":298700,"SoundDuration":298700,"Delta":41476968},{"NoteNumber":65,"Velocity":46,"Duration":298700,"SoundDuration":298700,"Delta":41476968},{"NoteNumber":68,"Velocity":55,"Duration":298700,"SoundDuration":298700,"Delta":41476968},{"NoteNumber":86,"Velocity":54,"Duration":95739,"SoundDuration":95739,"Delta":41584189},{"NoteNumber":87,"Velocity":57,"Duration":95739,"SoundDuration":95739,"Delta":41679929},{"NoteNumber":89,"Velocity":59,"Duration":95739,"SoundDuration":95739,"Delta":41775668},{"NoteNumber":87,"Velocity":57,"Duration":95739,"SoundDuration":95739,"Delta":41871408},{"NoteNumber":86,"Velocity":55,"Duration":95739,"SoundDuration":95739,"Delta":41967148},{"NoteNumber":89,"Velocity":63,"Duration":95739,"SoundDuration":95739,"Delta":42062887},{"NoteNumber":58,"Velocity":46,"Duration":287219,"SoundDuration":287219,"Delta":42062887},{"NoteNumber":62,"Velocity":46,"Duration":287219,"SoundDuration":287219,"Delta":42062887},{"NoteNumber":65,"Velocity":46,"Duration":287219,"SoundDuration":287219,"Delta":42062887},{"NoteNumber":68,"Velocity":55,"Duration":287219,"SoundDuration":287219,"Delta":42062887},{"NoteNumber":87,"Velocity":63,"Duration":95739,"SoundDuration":95739,"Delta":42158627},{"NoteNumber":86,"Velocity":62,"Duration":95739,"SoundDuration":95739,"Delta":42254367},{"NoteNumber":84,"Velocity":61,"Duration":95739,"SoundDuration":95739,"Delta":42350106},{"NoteNumber":82,"Velocity":60,"Duration":95739,"SoundDuration":95739,"Delta":42445846},{"NoteNumber":80,"Velocity":59,"Duration":95681,"SoundDuration":95681,"Delta":42541586},{"NoteNumber":79,"Velocity":59,"Duration":95856,"SoundDuration":95856,"Delta":42637267},{"NoteNumber":77,"Velocity":58,"Duration":96564,"SoundDuration":96564,"Delta":42733123},{"NoteNumber":75,"Velocity":57,"Duration":97279,"SoundDuration":97279,"Delta":42829688},{"NoteNumber":74,"Velocity":56,"Duration":73411,"SoundDuration":73411,"Delta":42926967},{"NoteNumber":72,"Velocity":56,"Duration":73840,"SoundDuration":73840,"Delta":43000378},{"NoteNumber":70,"Velocity":55,"Duration":74273,"SoundDuration":74273,"Delta":43074219},{"NoteNumber":68,"Velocity":54,"Duration":74035,"SoundDuration":74035,"Delta":43148492},{"NoteNumber":67,"Velocity":59,"Duration":103156,"SoundDuration":103156,"Delta":43222528},{"NoteNumber":51,"Velocity":55,"Duration":290524,"SoundDuration":290524,"Delta":43222528},{"NoteNumber":63,"Velocity":55,"Duration":102905,"SoundDuration":102905,"Delta":43319627},{"NoteNumber":65,"Velocity":55,"Duration":102590,"SoundDuration":102590,"Delta":43416490},{"NoteNumber":67,"Velocity":59,"Duration":102338,"SoundDuration":102338,"Delta":43513053},{"NoteNumber":65,"Velocity":55,"Duration":102027,"SoundDuration":102027,"Delta":43609378},{"NoteNumber":63,"Velocity":55,"Duration":101766,"SoundDuration":101766,"Delta":43705407},{"NoteNumber":68,"Velocity":59,"Duration":574672,"SoundDuration":574672,"Delta":43801204},{"NoteNumber":58,"Velocity":45,"Duration":101359,"SoundDuration":101359,"Delta":43896595},{"NoteNumber":60,"Velocity":48,"Duration":101606,"SoundDuration":101606,"Delta":43991985},{"NoteNumber":62,"Velocity":50,"Duration":101852,"SoundDuration":101852,"Delta":44087608},{"NoteNumber":60,"Velocity":48,"Duration":102102,"SoundDuration":102102,"Delta":44183463},{"NoteNumber":58,"Velocity":45,"Duration":102368,"SoundDuration":102368,"Delta":44279552},{"NoteNumber":67,"Velocity":59,"Duration":102726,"SoundDuration":102726,"Delta":44375877},{"NoteNumber":63,"Velocity":55,"Duration":289510,"SoundDuration":289510,"Delta":44375877},{"NoteNumber":75,"Velocity":55,"Duration":102529,"SoundDuration":102529,"Delta":44472561},{"NoteNumber":77,"Velocity":55,"Duration":102338,"SoundDuration":102338,"Delta":44569063},{"NoteNumber":79,"Velocity":59,"Duration":102147,"SoundDuration":102147,"Delta":44665388},{"NoteNumber":77,"Velocity":55,"Duration":101953,"SoundDuration":101953,"Delta":44761537},{"NoteNumber":75,"Velocity":55,"Duration":101708,"SoundDuration":101708,"Delta":44857507},{"NoteNumber":80,"Velocity":59,"Duration":576489,"SoundDuration":576489,"Delta":44953246},{"NoteNumber":58,"Velocity":43,"Duration":101737,"SoundDuration":101737,"Delta":45048753},{"NoteNumber":60,"Velocity":47,"Duration":101982,"SoundDuration":101982,"Delta":45144492},{"NoteNumber":62,"Velocity":50,"Duration":102236,"SoundDuration":102236,"Delta":45240462},{"NoteNumber":60,"Velocity":48,"Duration":102484,"SoundDuration":102484,"Delta":45336671},{"NoteNumber":58,"Velocity":45,"Duration":102650,"SoundDuration":102650,"Delta":45433112},{"NoteNumber":79,"Velocity":59,"Duration":96441,"SoundDuration":96441,"Delta":45529736},{"NoteNumber":63,"Velocity":55,"Duration":288857,"SoundDuration":288857,"Delta":45529736},{"NoteNumber":75,"Velocity":59,"Duration":96267,"SoundDuration":96267,"Delta":45626177},{"NoteNumber":77,"Velocity":59,"Duration":96149,"SoundDuration":96149,"Delta":45722444},{"NoteNumber":79,"Velocity":64,"Duration":95969,"SoundDuration":95969,"Delta":45818594},{"NoteNumber":77,"Velocity":57,"Duration":95797,"SoundDuration":95797,"Delta":45914563},{"NoteNumber":75,"Velocity":58,"Duration":95681,"SoundDuration":95681,"Delta":46010360},{"NoteNumber":82,"Velocity":67,"Duration":95506,"SoundDuration":95506,"Delta":46106041},{"NoteNumber":63,"Velocity":55,"Duration":286518,"SoundDuration":286518,"Delta":46106041},{"NoteNumber":79,"Velocity":59,"Duration":95506,"SoundDuration":95506,"Delta":46201548},{"NoteNumber":80,"Velocity":59,"Duration":95506,"SoundDuration":95506,"Delta":46297054},{"NoteNumber":82,"Velocity":62,"Duration":95506,"SoundDuration":95506,"Delta":46392560},{"NoteNumber":80,"Velocity":65,"Duration":95506,"SoundDuration":95506,"Delta":46488067},{"NoteNumber":79,"Velocity":67,"Duration":101414,"SoundDuration":101414,"Delta":46583573},{"NoteNumber":85,"Velocity":69,"Duration":101475,"SoundDuration":101475,"Delta":46684988},{"NoteNumber":61,"Velocity":55,"Duration":286518,"SoundDuration":286518,"Delta":46684988},{"NoteNumber":55,"Velocity":55,"Duration":286518,"SoundDuration":286518,"Delta":46684988},{"NoteNumber":58,"Velocity":55,"Duration":286518,"SoundDuration":286518,"Delta":46684988},{"NoteNumber":63,"Velocity":55,"Duration":286518,"SoundDuration":286518,"Delta":46684988},{"NoteNumber":84,"Velocity":68,"Duration":101475,"SoundDuration":101475,"Delta":46780494},{"NoteNumber":82,"Velocity":67,"Duration":101475,"SoundDuration":101475,"Delta":46876000},{"NoteNumber":80,"Velocity":66,"Duration":101475,"SoundDuration":101475,"Delta":46971507},{"NoteNumber":79,"Velocity":65,"Duration":101475,"SoundDuration":101475,"Delta":47067013},{"NoteNumber":77,"Velocity":63,"Duration":101475,"SoundDuration":101475,"Delta":47162519},{"NoteNumber":75,"Velocity":59,"Duration":101475,"SoundDuration":101475,"Delta":47258026},{"NoteNumber":74,"Velocity":55,"Duration":101606,"SoundDuration":101606,"Delta":47353532},{"NoteNumber":75,"Velocity":55,"Duration":101795,"SoundDuration":101795,"Delta":47449155},{"NoteNumber":76,"Velocity":59,"Duration":101967,"SoundDuration":101967,"Delta":47544952},{"NoteNumber":77,"Velocity":56,"Duration":102162,"SoundDuration":102162,"Delta":47640921},{"NoteNumber":73,"Velocity":56,"Duration":102503,"SoundDuration":102503,"Delta":47737071},{"NoteNumber":44,"Velocity":52,"Duration":96922,"SoundDuration":96922,"Delta":47833516},{"NoteNumber":48,"Velocity":54,"Duration":96743,"SoundDuration":96743,"Delta":47930439},{"NoteNumber":51,"Velocity":56,"Duration":96623,"SoundDuration":96623,"Delta":48027182},{"NoteNumber":60,"Velocity":57,"Duration":96441,"SoundDuration":96441,"Delta":48123805},{"NoteNumber":56,"Velocity":59,"Duration":288917,"SoundDuration":288917,"Delta":48123805},{"NoteNumber":63,"Velocity":59,"Duration":96267,"SoundDuration":96267,"Delta":48220247},{"NoteNumber":68,"Velocity":62,"Duration":96209,"SoundDuration":96209,"Delta":48316514},{"NoteNumber":72,"Velocity":64,"Duration":96209,"SoundDuration":96209,"Delta":48412723},{"NoteNumber":75,"Velocity":66,"Duration":96209,"SoundDuration":96209,"Delta":48508933},{"NoteNumber":80,"Velocity":68,"Duration":96209,"SoundDuration":96209,"Delta":48605142},{"NoteNumber":84,"Velocity":70,"Duration":74526,"SoundDuration":74526,"Delta":48701351},{"NoteNumber":84,"Velocity":70,"Duration":74526,"SoundDuration":74526,"Delta":48850405},{"NoteNumber":84,"Velocity":70,"Duration":147557,"SoundDuration":147557,"Delta":48999458},{"NoteNumber":58,"Velocity":48,"Duration":295116,"SoundDuration":295116,"Delta":48999458},{"NoteNumber":63,"Velocity":48,"Duration":295116,"SoundDuration":295116,"Delta":48999458},{"NoteNumber":67,"Velocity":57,"Duration":295116,"SoundDuration":295116,"Delta":48999458},{"NoteNumber":82,"Velocity":68,"Duration":147558,"SoundDuration":147558,"Delta":49147016},{"NoteNumber":80,"Velocity":66,"Duration":73779,"SoundDuration":73779,"Delta":49294574},{"NoteNumber":79,"Velocity":64,"Duration":79118,"SoundDuration":79118,"Delta":49442132},{"NoteNumber":79,"Velocity":65,"Duration":149812,"SoundDuration":149812,"Delta":49600368},{"NoteNumber":58,"Velocity":49,"Duration":299624,"SoundDuration":299624,"Delta":49600368},{"NoteNumber":65,"Velocity":49,"Duration":299624,"SoundDuration":299624,"Delta":49600368},{"NoteNumber":68,"Velocity":58,"Duration":299624,"SoundDuration":299624,"Delta":49600368},{"NoteNumber":77,"Velocity":63,"Duration":149812,"SoundDuration":149812,"Delta":49750181},{"NoteNumber":75,"Velocity":61,"Duration":74906,"SoundDuration":74906,"Delta":49899993},{"NoteNumber":74,"Velocity":59,"Duration":81752,"SoundDuration":81752,"Delta":50049806},{"NoteNumber":75,"Velocity":63,"Duration":317343,"SoundDuration":317343,"Delta":50213311},{"NoteNumber":63,"Velocity":49,"Duration":317343,"SoundDuration":317343,"Delta":50213311},{"NoteNumber":67,"Velocity":58,"Duration":317343,"SoundDuration":317343,"Delta":50213311},{"NoteNumber":58,"Velocity":45,"Duration":310678,"SoundDuration":310678,"Delta":51165340},{"NoteNumber":62,"Velocity":37,"Duration":157362,"SoundDuration":157362,"Delta":51482577},{"NoteNumber":65,"Velocity":45,"Duration":157362,"SoundDuration":157362,"Delta":51482577},{"NoteNumber":58,"Velocity":39,"Duration":157362,"SoundDuration":157362,"Delta":51482577},{"NoteNumber":56,"Velocity":33,"Duration":157362,"SoundDuration":157362,"Delta":51482577},{"NoteNumber":62,"Velocity":38,"Duration":156533,"SoundDuration":156533,"Delta":51796883},{"NoteNumber":65,"Velocity":45,"Duration":156533,"SoundDuration":156533,"Delta":51796883},{"NoteNumber":56,"Velocity":34,"Duration":156533,"SoundDuration":156533,"Delta":51796883},{"NoteNumber":58,"Velocity":40,"Duration":156533,"SoundDuration":156533,"Delta":51796883},{"NoteNumber":62,"Velocity":38,"Duration":155697,"SoundDuration":155697,"Delta":52109534},{"NoteNumber":65,"Velocity":45,"Duration":155697,"SoundDuration":155697,"Delta":52109534},{"NoteNumber":58,"Velocity":42,"Duration":155697,"SoundDuration":155697,"Delta":52109534},{"NoteNumber":56,"Velocity":35,"Duration":155697,"SoundDuration":155697,"Delta":52109534},{"NoteNumber":62,"Velocity":39,"Duration":164862,"SoundDuration":164862,"Delta":52420524},{"NoteNumber":65,"Velocity":46,"Duration":164862,"SoundDuration":164862,"Delta":52420524},{"NoteNumber":56,"Velocity":36,"Duration":164862,"SoundDuration":164862,"Delta":52420524},{"NoteNumber":58,"Velocity":43,"Duration":164862,"SoundDuration":164862,"Delta":52420524},{"NoteNumber":63,"Velocity":40,"Duration":946868,"SoundDuration":946868,"Delta":52750249},{"NoteNumber":70,"Velocity":47,"Duration":946868,"SoundDuration":946868,"Delta":52750249},{"NoteNumber":55,"Velocity":37,"Duration":946868,"SoundDuration":946868,"Delta":52750249},{"NoteNumber":58,"Velocity":45,"Duration":946868,"SoundDuration":946868,"Delta":52750249},{"NoteNumber":63,"Velocity":46,"Duration":315623,"SoundDuration":315623,"Delta":53697118},{"NoteNumber":70,"Velocity":46,"Duration":315623,"SoundDuration":315623,"Delta":53697118},{"NoteNumber":55,"Velocity":42,"Duration":315623,"SoundDuration":315623,"Delta":53697118},{"NoteNumber":63,"Velocity":40,"Duration":625443,"SoundDuration":625443,"Delta":54012741},{"NoteNumber":68,"Velocity":48,"Duration":625443,"SoundDuration":625443,"Delta":54012741},{"NoteNumber":60,"Velocity":45,"Duration":625443,"SoundDuration":625443,"Delta":54012741},{"NoteNumber":65,"Velocity":37,"Duration":632103,"SoundDuration":632103,"Delta":54638185},{"NoteNumber":63,"Velocity":37,"Duration":632103,"SoundDuration":632103,"Delta":54638185},{"NoteNumber":69,"Velocity":45,"Duration":632103,"SoundDuration":632103,"Delta":54638185},{"NoteNumber":59,"Velocity":43,"Duration":632103,"SoundDuration":632103,"Delta":54638185},{"NoteNumber":62,"Velocity":39,"Duration":939408,"SoundDuration":939408,"Delta":55270288},{"NoteNumber":65,"Velocity":39,"Duration":939408,"SoundDuration":939408,"Delta":55270288},{"NoteNumber":70,"Velocity":46,"Duration":939408,"SoundDuration":939408,"Delta":55270288},{"NoteNumber":58,"Velocity":43,"Duration":939408,"SoundDuration":939408,"Delta":55270288},{"NoteNumber":70,"Velocity":50,"Duration":306612,"SoundDuration":306612,"Delta":56209696},{"NoteNumber":70,"Velocity":42,"Duration":156568,"SoundDuration":156568,"Delta":56522832},{"NoteNumber":77,"Velocity":50,"Duration":156568,"SoundDuration":156568,"Delta":56522832},{"NoteNumber":62,"Velocity":44,"Duration":156568,"SoundDuration":156568,"Delta":56522832},{"NoteNumber":56,"Velocity":37,"Duration":156568,"SoundDuration":156568,"Delta":56522832},{"NoteNumber":70,"Velocity":45,"Duration":156772,"SoundDuration":156772,"Delta":56836036},{"NoteNumber":77,"Velocity":53,"Duration":156772,"SoundDuration":156772,"Delta":56836036},{"NoteNumber":56,"Velocity":39,"Duration":156772,"SoundDuration":156772,"Delta":56836036},{"NoteNumber":62,"Velocity":47,"Duration":156772,"SoundDuration":156772,"Delta":56836036},{"NoteNumber":70,"Velocity":47,"Duration":155529,"SoundDuration":155529,"Delta":57148961},{"NoteNumber":77,"Velocity":56,"Duration":155529,"SoundDuration":155529,"Delta":57148961},{"NoteNumber":62,"Velocity":51,"Duration":155529,"SoundDuration":155529,"Delta":57148961},{"NoteNumber":56,"Velocity":42,"Duration":155529,"SoundDuration":155529,"Delta":57148961},{"NoteNumber":70,"Velocity":50,"Duration":154511,"SoundDuration":154511,"Delta":57459403},{"NoteNumber":77,"Velocity":59,"Duration":154511,"SoundDuration":154511,"Delta":57459403},{"NoteNumber":56,"Velocity":46,"Duration":154511,"SoundDuration":154511,"Delta":57459403},{"NoteNumber":62,"Velocity":55,"Duration":154511,"SoundDuration":154511,"Delta":57459403},{"NoteNumber":70,"Velocity":73,"Duration":646291,"SoundDuration":646291,"Delta":57768426},{"NoteNumber":82,"Velocity":73,"Duration":966206,"SoundDuration":966206,"Delta":57768426},{"NoteNumber":55,"Velocity":50,"Duration":1286121,"SoundDuration":1286121,"Delta":57768426},{"NoteNumber":63,"Velocity":60,"Duration":1286121,"SoundDuration":1286121,"Delta":57768426},{"NoteNumber":73,"Velocity":80,"Duration":639830,"SoundDuration":639830,"Delta":58414717},{"NoteNumber":83,"Velocity":72,"Duration":319915,"SoundDuration":319915,"Delta":58734632},{"NoteNumber":72,"Velocity":74,"Duration":313136,"SoundDuration":313136,"Delta":59054547},{"NoteNumber":84,"Velocity":87,"Duration":313136,"SoundDuration":313136,"Delta":59054547},{"NoteNumber":56,"Velocity":61,"Duration":313136,"SoundDuration":313136,"Delta":59054547},{"NoteNumber":63,"Velocity":72,"Duration":313136,"SoundDuration":313136,"Delta":59054547},{"NoteNumber":65,"Velocity":74,"Duration":313136,"SoundDuration":313136,"Delta":59680819},{"NoteNumber":68,"Velocity":74,"Duration":313136,"SoundDuration":313136,"Delta":59680819},{"NoteNumber":74,"Velocity":87,"Duration":313136,"SoundDuration":313136,"Delta":59680819},{"NoteNumber":46,"Velocity":61,"Duration":313136,"SoundDuration":313136,"Delta":59680819},{"NoteNumber":58,"Velocity":72,"Duration":313136,"SoundDuration":313136,"Delta":59680819},{"NoteNumber":67,"Velocity":49,"Duration":290977,"SoundDuration":290977,"Delta":60307091},{"NoteNumber":75,"Velocity":55,"Duration":290977,"SoundDuration":290977,"Delta":60307091},{"NoteNumber":63,"Velocity":55,"Duration":102905,"SoundDuration":102905,"Delta":60404643},{"NoteNumber":65,"Velocity":55,"Duration":102590,"SoundDuration":102590,"Delta":60501506},{"NoteNumber":67,"Velocity":59,"Duration":102338,"SoundDuration":102338,"Delta":60598069},{"NoteNumber":65,"Velocity":55,"Duration":102027,"SoundDuration":102027,"Delta":60694394},{"NoteNumber":63,"Velocity":55,"Duration":101766,"SoundDuration":101766,"Delta":60790423},{"NoteNumber":68,"Velocity":59,"Duration":578396,"SoundDuration":578396,"Delta":60886220},{"NoteNumber":70,"Velocity":54,"Duration":101359,"SoundDuration":101359,"Delta":60981611},{"NoteNumber":72,"Velocity":56,"Duration":101606,"SoundDuration":101606,"Delta":61077001},{"NoteNumber":74,"Velocity":57,"Duration":101852,"SoundDuration":101852,"Delta":61172624},{"NoteNumber":72,"Velocity":54,"Duration":102578,"SoundDuration":102578,"Delta":61268479},{"NoteNumber":70,"Velocity":51,"Duration":105810,"SoundDuration":105810,"Delta":61364924},{"NoteNumber":75,"Velocity":55,"Duration":290616,"SoundDuration":290616,"Delta":61464617},{"NoteNumber":67,"Velocity":59,"Duration":103413,"SoundDuration":103413,"Delta":61464617},{"NoteNumber":63,"Velocity":55,"Duration":102726,"SoundDuration":102726,"Delta":61561987},{"NoteNumber":65,"Velocity":55,"Duration":102590,"SoundDuration":102590,"Delta":61658671},{"NoteNumber":67,"Velocity":59,"Duration":102338,"SoundDuration":102338,"Delta":61755233},{"NoteNumber":65,"Velocity":55,"Duration":102027,"SoundDuration":102027,"Delta":61851559},{"NoteNumber":63,"Velocity":55,"Duration":101766,"SoundDuration":101766,"Delta":61947588},{"NoteNumber":68,"Velocity":59,"Duration":582367,"SoundDuration":582367,"Delta":62043385},{"NoteNumber":70,"Velocity":54,"Duration":101359,"SoundDuration":101359,"Delta":62138775},{"NoteNumber":72,"Velocity":56,"Duration":101649,"SoundDuration":101649,"Delta":62234166},{"NoteNumber":74,"Velocity":57,"Duration":102920,"SoundDuration":102920,"Delta":62329817},{"NoteNumber":72,"Velocity":54,"Duration":104846,"SoundDuration":104846,"Delta":62426620},{"NoteNumber":70,"Velocity":51,"Duration":106613,"SoundDuration":106613,"Delta":62525241},{"NoteNumber":75,"Velocity":56,"Duration":97548,"SoundDuration":97548,"Delta":62625753},{"NoteNumber":67,"Velocity":55,"Duration":145830,"SoundDuration":145830,"Delta":62625753},{"NoteNumber":63,"Velocity":55,"Duration":145830,"SoundDuration":145830,"Delta":62625753},{"NoteNumber":79,"Velocity":59,"Duration":96386,"SoundDuration":96386,"Delta":62723301},{"NoteNumber":77,"Velocity":52,"Duration":96149,"SoundDuration":96149,"Delta":62819688},{"NoteNumber":75,"Velocity":59,"Duration":95969,"SoundDuration":95969,"Delta":62915837},{"NoteNumber":60,"Velocity":52,"Duration":143887,"SoundDuration":143887,"Delta":62919436},{"NoteNumber":74,"Velocity":57,"Duration":95797,"SoundDuration":95797,"Delta":63011807},{"NoteNumber":72,"Velocity":58,"Duration":95681,"SoundDuration":95681,"Delta":63107604},{"NoteNumber":71,"Velocity":54,"Duration":95506,"SoundDuration":95506,"Delta":63203285},{"NoteNumber":56,"Velocity":52,"Duration":143259,"SoundDuration":143259,"Delta":63203285},{"NoteNumber":72,"Velocity":54,"Duration":95506,"SoundDuration":95506,"Delta":63298791},{"NoteNumber":70,"Velocity":53,"Duration":95506,"SoundDuration":95506,"Delta":63394298},{"NoteNumber":68,"Velocity":53,"Duration":95506,"SoundDuration":95506,"Delta":63489804},{"NoteNumber":58,"Velocity":52,"Duration":143259,"SoundDuration":143259,"Delta":63489804},{"NoteNumber":67,"Velocity":52,"Duration":95506,"SoundDuration":95506,"Delta":63585310},{"NoteNumber":65,"Velocity":52,"Duration":101414,"SoundDuration":101414,"Delta":63680817},{"NoteNumber":63,"Velocity":55,"Duration":290977,"SoundDuration":290977,"Delta":63782231},{"NoteNumber":39,"Velocity":49,"Duration":102905,"SoundDuration":102905,"Delta":63879783},{"NoteNumber":41,"Velocity":49,"Duration":102590,"SoundDuration":102590,"Delta":63976646},{"NoteNumber":43,"Velocity":53,"Duration":102338,"SoundDuration":102338,"Delta":64073209},{"NoteNumber":41,"Velocity":49,"Duration":102027,"SoundDuration":102027,"Delta":64169534},{"NoteNumber":39,"Velocity":49,"Duration":101766,"SoundDuration":101766,"Delta":64265563},{"NoteNumber":44,"Velocity":70,"Duration":578396,"SoundDuration":578396,"Delta":64361360},{"NoteNumber":58,"Velocity":54,"Duration":101359,"SoundDuration":101359,"Delta":64456751},{"NoteNumber":60,"Velocity":56,"Duration":101606,"SoundDuration":101606,"Delta":64552141},{"NoteNumber":62,"Velocity":57,"Duration":101852,"SoundDuration":101852,"Delta":64647764},{"NoteNumber":60,"Velocity":54,"Duration":102578,"SoundDuration":102578,"Delta":64743618},{"NoteNumber":58,"Velocity":51,"Duration":105810,"SoundDuration":105810,"Delta":64840064},{"NoteNumber":63,"Velocity":55,"Duration":290616,"SoundDuration":290616,"Delta":64939757},{"NoteNumber":43,"Velocity":53,"Duration":103413,"SoundDuration":103413,"Delta":64939757},{"NoteNumber":39,"Velocity":49,"Duration":102726,"SoundDuration":102726,"Delta":65037127},{"NoteNumber":41,"Velocity":49,"Duration":102590,"SoundDuration":102590,"Delta":65133811},{"NoteNumber":43,"Velocity":53,"Duration":102338,"SoundDuration":102338,"Delta":65230373},{"NoteNumber":41,"Velocity":49,"Duration":102027,"SoundDuration":102027,"Delta":65326699},{"NoteNumber":39,"Velocity":49,"Duration":101766,"SoundDuration":101766,"Delta":65422728},{"NoteNumber":44,"Velocity":70,"Duration":582367,"SoundDuration":582367,"Delta":65518525},{"NoteNumber":58,"Velocity":54,"Duration":101359,"SoundDuration":101359,"Delta":65613915},{"NoteNumber":60,"Velocity":56,"Duration":101649,"SoundDuration":101649,"Delta":65709306},{"NoteNumber":62,"Velocity":57,"Duration":102920,"SoundDuration":102920,"Delta":65804957},{"NoteNumber":60,"Velocity":54,"Duration":104846,"SoundDuration":104846,"Delta":65901760},{"NoteNumber":58,"Velocity":51,"Duration":106629,"SoundDuration":106629,"Delta":66000381},{"NoteNumber":63,"Velocity":55,"Duration":290616,"SoundDuration":290616,"Delta":66100892},{"NoteNumber":43,"Velocity":53,"Duration":103413,"SoundDuration":103413,"Delta":66100892},{"NoteNumber":39,"Velocity":49,"Duration":102726,"SoundDuration":102726,"Delta":66198263},{"NoteNumber":41,"Velocity":49,"Duration":102590,"SoundDuration":102590,"Delta":66294946},{"NoteNumber":43,"Velocity":53,"Duration":102338,"SoundDuration":102338,"Delta":66391509},{"NoteNumber":41,"Velocity":49,"Duration":102027,"SoundDuration":102027,"Delta":66487834},{"NoteNumber":39,"Velocity":49,"Duration":101766,"SoundDuration":101766,"Delta":66583864},{"NoteNumber":44,"Velocity":70,"Duration":1746629,"SoundDuration":1746629,"Delta":66679661},{"NoteNumber":59,"Velocity":54,"Duration":101359,"SoundDuration":101359,"Delta":66775051},{"NoteNumber":60,"Velocity":56,"Duration":101649,"SoundDuration":101649,"Delta":66870441},{"NoteNumber":62,"Velocity":57,"Duration":102920,"SoundDuration":102920,"Delta":66966093},{"NoteNumber":60,"Velocity":54,"Duration":104846,"SoundDuration":104846,"Delta":67062896},{"NoteNumber":59,"Velocity":51,"Duration":106509,"SoundDuration":106509,"Delta":67161517},{"NoteNumber":65,"Velocity":64,"Duration":101967,"SoundDuration":101967,"Delta":67262028},{"NoteNumber":63,"Velocity":54,"Duration":101967,"SoundDuration":101967,"Delta":67359197},{"NoteNumber":62,"Velocity":58,"Duration":95969,"SoundDuration":95969,"Delta":67454567},{"NoteNumber":68,"Velocity":66,"Duration":101967,"SoundDuration":101967,"Delta":67545737},{"NoteNumber":67,"Velocity":58,"Duration":101967,"SoundDuration":101967,"Delta":67647105},{"NoteNumber":65,"Velocity":61,"Duration":95908,"SoundDuration":95908,"Delta":67742475},{"NoteNumber":74,"Velocity":70,"Duration":101678,"SoundDuration":101678,"Delta":67837786},{"NoteNumber":72,"Velocity":60,"Duration":102172,"SoundDuration":102172,"Delta":67932867},{"NoteNumber":71,"Velocity":64,"Duration":96627,"SoundDuration":96627,"Delta":68030218},{"NoteNumber":77,"Velocity":74,"Duration":104275,"SoundDuration":104275,"Delta":68129882},{"NoteNumber":75,"Velocity":64,"Duration":106308,"SoundDuration":106308,"Delta":68223628},{"NoteNumber":74,"Velocity":68,"Duration":102053,"SoundDuration":102053,"Delta":68324879},{"NoteNumber":89,"Velocity":100,"Duration":925359,"SoundDuration":925359,"Delta":68426290},{"NoteNumber":31,"Velocity":75,"Duration":2454126,"SoundDuration":2454126,"Delta":68426290},{"NoteNumber":43,"Velocity":80,"Duration":2454126,"SoundDuration":2454126,"Delta":68426290},{"NoteNumber":87,"Velocity":86,"Duration":106786,"SoundDuration":106786,"Delta":69351650},{"NoteNumber":86,"Velocity":85,"Duration":104516,"SoundDuration":104516,"Delta":69458437},{"NoteNumber":84,"Velocity":83,"Duration":102342,"SoundDuration":102342,"Delta":69562954},{"NoteNumber":83,"Velocity":82,"Duration":99714,"SoundDuration":99714,"Delta":69665296},{"NoteNumber":80,"Velocity":81,"Duration":97853,"SoundDuration":97853,"Delta":69765011},{"NoteNumber":79,"Velocity":79,"Duration":96093,"SoundDuration":96093,"Delta":69862865},{"NoteNumber":77,"Velocity":78,"Duration":94701,"SoundDuration":94701,"Delta":69958958},{"NoteNumber":75,"Velocity":77,"Duration":94191,"SoundDuration":94191,"Delta":70053660},{"NoteNumber":74,"Velocity":75,"Duration":93688,"SoundDuration":93688,"Delta":70147851},{"NoteNumber":72,"Velocity":74,"Duration":93466,"SoundDuration":93466,"Delta":70241539},{"NoteNumber":71,"Velocity":72,"Duration":93466,"SoundDuration":93466,"Delta":70335006},{"NoteNumber":68,"Velocity":71,"Duration":93466,"SoundDuration":93466,"Delta":70428473},{"NoteNumber":67,"Velocity":70,"Duration":57206,"SoundDuration":57206,"Delta":70521939},{"NoteNumber":65,"Velocity":68,"Duration":58296,"SoundDuration":58296,"Delta":70579145},{"NoteNumber":63,"Velocity":69,"Duration":62067,"SoundDuration":62067,"Delta":70637442},{"NoteNumber":62,"Velocity":70,"Duration":69998,"SoundDuration":69998,"Delta":70699509},{"NoteNumber":60,"Velocity":71,"Duration":110908,"SoundDuration":110908,"Delta":70769508},{"NoteNumber":59,"Velocity":93,"Duration":2470830,"SoundDuration":2470830,"Delta":70880417},{"NoteNumber":43,"Velocity":69,"Duration":2470830,"SoundDuration":2470830,"Delta":70880417},{"NoteNumber":50,"Velocity":69,"Duration":2470830,"SoundDuration":2470830,"Delta":70880417},{"NoteNumber":53,"Velocity":82,"Duration":2470830,"SoundDuration":2470830,"Delta":70880417},{"NoteNumber":67,"Velocity":48,"Duration":74151,"SoundDuration":74151,"Delta":73557150},{"NoteNumber":72,"Velocity":49,"Duration":74151,"SoundDuration":74151,"Delta":73705452},{"NoteNumber":74,"Velocity":51,"Duration":78905,"SoundDuration":78905,"Delta":73853754},{"NoteNumber":75,"Velocity":52,"Duration":439692,"SoundDuration":439692,"Delta":74011565},{"NoteNumber":48,"Velocity":40,"Duration":144934,"SoundDuration":144934,"Delta":74011565},{"NoteNumber":51,"Velocity":36,"Duration":146456,"SoundDuration":146456,"Delta":74156500},{"NoteNumber":55,"Velocity":36,"Duration":148302,"SoundDuration":148302,"Delta":74302956},{"NoteNumber":77,"Velocity":50,"Duration":154910,"SoundDuration":154910,"Delta":74451258},{"NoteNumber":60,"Velocity":36,"Duration":154910,"SoundDuration":154910,"Delta":74451258},{"NoteNumber":74,"Velocity":53,"Duration":437573,"SoundDuration":437573,"Delta":74606168},{"NoteNumber":48,"Velocity":40,"Duration":144661,"SoundDuration":144661,"Delta":74606168},{"NoteNumber":53,"Velocity":40,"Duration":146456,"SoundDuration":146456,"Delta":74750830},{"NoteNumber":55,"Velocity":36,"Duration":146456,"SoundDuration":146456,"Delta":74897286},{"NoteNumber":75,"Velocity":50,"Duration":154115,"SoundDuration":154115,"Delta":75043742},{"NoteNumber":59,"Velocity":36,"Duration":154115,"SoundDuration":154115,"Delta":75043742},{"NoteNumber":72,"Velocity":52,"Duration":546610,"SoundDuration":546610,"Delta":75197857},{"NoteNumber":48,"Velocity":40,"Duration":144934,"SoundDuration":144934,"Delta":75197857},{"NoteNumber":51,"Velocity":40,"Duration":144934,"SoundDuration":144934,"Delta":75342792},{"NoteNumber":55,"Velocity":36,"Duration":144934,"SoundDuration":144934,"Delta":75487726},{"NoteNumber":60,"Velocity":36,"Duration":148385,"SoundDuration":148385,"Delta":75632661},{"NoteNumber":74,"Velocity":48,"Duration":36578,"SoundDuration":36578,"Delta":75744467},{"NoteNumber":72,"Velocity":52,"Duration":144934,"SoundDuration":144934,"Delta":75781046},{"NoteNumber":63,"Velocity":40,"Duration":144934,"SoundDuration":144934,"Delta":75781046},{"NoteNumber":71,"Velocity":51,"Duration":144934,"SoundDuration":144934,"Delta":75925980},{"NoteNumber":67,"Velocity":36,"Duration":144934,"SoundDuration":144934,"Delta":75925980},{"NoteNumber":72,"Velocity":51,"Duration":144934,"SoundDuration":144934,"Delta":76070915},{"NoteNumber":63,"Velocity":36,"Duration":144934,"SoundDuration":144934,"Delta":76070915},{"NoteNumber":74,"Velocity":50,"Duration":108700,"SoundDuration":108700,"Delta":76215849},{"NoteNumber":62,"Velocity":36,"Duration":144934,"SoundDuration":144934,"Delta":76215849},{"NoteNumber":77,"Velocity":49,"Duration":36233,"SoundDuration":36233,"Delta":76324550},{"NoteNumber":75,"Velocity":56,"Duration":144934,"SoundDuration":144934,"Delta":76360784},{"NoteNumber":60,"Velocity":40,"Duration":144934,"SoundDuration":144934,"Delta":76360784},{"NoteNumber":74,"Velocity":52,"Duration":144934,"SoundDuration":144934,"Delta":76505718},{"NoteNumber":67,"Velocity":36,"Duration":144934,"SoundDuration":144934,"Delta":76505718},{"NoteNumber":75,"Velocity":52,"Duration":144934,"SoundDuration":144934,"Delta":76650653},{"NoteNumber":60,"Velocity":36,"Duration":144934,"SoundDuration":144934,"Delta":76650653},{"NoteNumber":63,"Velocity":36,"Duration":144934,"SoundDuration":144934,"Delta":76650653},{"NoteNumber":77,"Velocity":52,"Duration":157397,"SoundDuration":157397,"Delta":76795587},{"NoteNumber":67,"Velocity":36,"Duration":157397,"SoundDuration":157397,"Delta":76795587},{"NoteNumber":79,"Velocity":56,"Duration":155731,"SoundDuration":155731,"Delta":76952985},{"NoteNumber":59,"Velocity":41,"Duration":155731,"SoundDuration":155731,"Delta":76952985},{"NoteNumber":62,"Velocity":41,"Duration":155731,"SoundDuration":155731,"Delta":76952985},{"NoteNumber":67,"Velocity":36,"Duration":155731,"SoundDuration":155731,"Delta":77108716},{"NoteNumber":79,"Velocity":55,"Duration":155730,"SoundDuration":155730,"Delta":77264447},{"NoteNumber":60,"Velocity":36,"Duration":155730,"SoundDuration":155730,"Delta":77264447},{"NoteNumber":56,"Velocity":36,"Duration":155730,"SoundDuration":155730,"Delta":77264447},{"NoteNumber":67,"Velocity":36,"Duration":155731,"SoundDuration":155731,"Delta":77420178},{"NoteNumber":79,"Velocity":57,"Duration":912792,"SoundDuration":912792,"Delta":77575909},{"NoteNumber":55,"Velocity":40,"Duration":155731,"SoundDuration":155731,"Delta":77575909},{"NoteNumber":59,"Velocity":29,"Duration":155731,"SoundDuration":155731,"Delta":77731640},{"NoteNumber":62,"Velocity":28,"Duration":155731,"SoundDuration":155731,"Delta":77887371},{"NoteNumber":67,"Velocity":28,"Duration":155730,"SoundDuration":155730,"Delta":78043102},{"NoteNumber":55,"Velocity":40,"Duration":144934,"SoundDuration":144934,"Delta":78198833},{"NoteNumber":59,"Velocity":31,"Duration":144934,"SoundDuration":144934,"Delta":78343767},{"NoteNumber":77,"Velocity":51,"Duration":144934,"SoundDuration":144934,"Delta":78488702},{"NoteNumber":62,"Velocity":31,"Duration":144934,"SoundDuration":144934,"Delta":78488702},{"NoteNumber":79,"Velocity":53,"Duration":80274,"SoundDuration":80274,"Delta":78633636},{"NoteNumber":67,"Velocity":31,"Duration":154388,"SoundDuration":154388,"Delta":78633636},{"NoteNumber":77,"Velocity":48,"Duration":37057,"SoundDuration":37057,"Delta":78713910},{"NoteNumber":79,"Velocity":48,"Duration":37057,"SoundDuration":37057,"Delta":78750967},{"NoteNumber":80,"Velocity":56,"Duration":585399,"SoundDuration":585399,"Delta":78788025},{"NoteNumber":53,"Velocity":40,"Duration":144934,"SoundDuration":144934,"Delta":78788025},{"NoteNumber":56,"Velocity":36,"Duration":146821,"SoundDuration":146821,"Delta":78932959},{"NoteNumber":59,"Velocity":37,"Duration":146821,"SoundDuration":146821,"Delta":79079781},{"NoteNumber":62,"Velocity":37,"Duration":146821,"SoundDuration":146821,"Delta":79226602},{"NoteNumber":74,"Velocity":52,"Duration":288628,"SoundDuration":288628,"Delta":79373424},{"NoteNumber":53,"Velocity":40,"Duration":144313,"SoundDuration":144313,"Delta":79373424},{"NoteNumber":56,"Velocity":36,"Duration":144314,"SoundDuration":144314,"Delta":79517738},{"NoteNumber":75,"Velocity":51,"Duration":144313,"SoundDuration":144313,"Delta":79662052},{"NoteNumber":59,"Velocity":36,"Duration":144313,"SoundDuration":144313,"Delta":79662052},{"NoteNumber":77,"Velocity":53,"Duration":79537,"SoundDuration":79537,"Delta":79806366},{"NoteNumber":62,"Velocity":36,"Duration":153651,"SoundDuration":153651,"Delta":79806366},{"NoteNumber":75,"Velocity":50,"Duration":37057,"SoundDuration":37057,"Delta":79885903},{"NoteNumber":77,"Velocity":50,"Duration":37057,"SoundDuration":37057,"Delta":79922960},{"NoteNumber":79,"Velocity":56,"Duration":585399,"SoundDuration":585399,"Delta":79960017},{"NoteNumber":51,"Velocity":40,"Duration":144934,"SoundDuration":144934,"Delta":79960017},{"NoteNumber":55,"Velocity":34,"Duration":146821,"SoundDuration":146821,"Delta":80104952},{"NoteNumber":60,"Velocity":34,"Duration":146821,"SoundDuration":146821,"Delta":80251773},{"NoteNumber":63,"Velocity":33,"Duration":146821,"SoundDuration":146821,"Delta":80398595},{"NoteNumber":72,"Velocity":52,"Duration":283296,"SoundDuration":283296,"Delta":80545416},{"NoteNumber":56,"Velocity":41,"Duration":144661,"SoundDuration":144661,"Delta":80545416},{"NoteNumber":60,"Velocity":35,"Duration":144661,"SoundDuration":144661,"Delta":80690078},{"NoteNumber":72,"Velocity":53,"Duration":144662,"SoundDuration":144662,"Delta":80834740},{"NoteNumber":63,"Velocity":35,"Duration":144662,"SoundDuration":144662,"Delta":80834740},{"NoteNumber":74,"Velocity":54,"Duration":149075,"SoundDuration":149075,"Delta":80979402},{"NoteNumber":66,"Velocity":35,"Duration":149075,"SoundDuration":149075,"Delta":80979402},{"NoteNumber":75,"Velocity":57,"Duration":144934,"SoundDuration":144934,"Delta":81128478},{"NoteNumber":55,"Velocity":40,"Duration":144934,"SoundDuration":144934,"Delta":81128478},{"NoteNumber":60,"Velocity":40,"Duration":146456,"SoundDuration":146456,"Delta":81273412},{"NoteNumber":75,"Velocity":53,"Duration":146456,"SoundDuration":146456,"Delta":81419868},{"NoteNumber":63,"Velocity":35,"Duration":146456,"SoundDuration":146456,"Delta":81419868},{"NoteNumber":77,"Velocity":55,"Duration":146456,"SoundDuration":146456,"Delta":81566324},{"NoteNumber":67,"Velocity":35,"Duration":146456,"SoundDuration":146456,"Delta":81566324},{"NoteNumber":74,"Velocity":57,"Duration":144661,"SoundDuration":144661,"Delta":81712780},{"NoteNumber":55,"Velocity":40,"Duration":144661,"SoundDuration":144661,"Delta":81712780},{"NoteNumber":59,"Velocity":36,"Duration":146099,"SoundDuration":146099,"Delta":81857442},{"NoteNumber":74,"Velocity":51,"Duration":146098,"SoundDuration":146098,"Delta":82003541},{"NoteNumber":62,"Velocity":36,"Duration":146098,"SoundDuration":146098,"Delta":82003541},{"NoteNumber":75,"Velocity":54,"Duration":149932,"SoundDuration":149932,"Delta":82149640},{"NoteNumber":67,"Velocity":36,"Duration":149932,"SoundDuration":149932,"Delta":82149640},{"NoteNumber":72,"Velocity":57,"Duration":301958,"SoundDuration":301958,"Delta":82299573},{"NoteNumber":48,"Velocity":38,"Duration":148647,"SoundDuration":148647,"Delta":82452884},{"NoteNumber":51,"Velocity":42,"Duration":153452,"SoundDuration":153452,"Delta":82601532},{"NoteNumber":55,"Velocity":45,"Duration":153452,"SoundDuration":153452,"Delta":82754984},{"NoteNumber":60,"Velocity":49,"Duration":290051,"SoundDuration":290051,"Delta":82908437},{"NoteNumber":77,"Velocity":56,"Duration":145025,"SoundDuration":145025,"Delta":83198488},{"NoteNumber":79,"Velocity":58,"Duration":154388,"SoundDuration":154388,"Delta":83343513},{"NoteNumber":68,"Velocity":51,"Duration":585399,"SoundDuration":585399,"Delta":83497902},{"NoteNumber":80,"Velocity":61,"Duration":585399,"SoundDuration":585399,"Delta":83497902},{"NoteNumber":41,"Velocity":43,"Duration":146821,"SoundDuration":146821,"Delta":83642836},{"NoteNumber":47,"Velocity":45,"Duration":146821,"SoundDuration":146821,"Delta":83789658},{"NoteNumber":50,"Velocity":47,"Duration":146821,"SoundDuration":146821,"Delta":83936479},{"NoteNumber":74,"Velocity":57,"Duration":288628,"SoundDuration":288628,"Delta":84083301},{"NoteNumber":53,"Velocity":49,"Duration":144313,"SoundDuration":144313,"Delta":84083301},{"NoteNumber":56,"Velocity":43,"Duration":144314,"SoundDuration":144314,"Delta":84227615},{"NoteNumber":75,"Velocity":56,"Duration":144313,"SoundDuration":144313,"Delta":84371929},{"NoteNumber":55,"Velocity":43,"Duration":144313,"SoundDuration":144313,"Delta":84371929},{"NoteNumber":77,"Velocity":58,"Duration":153651,"SoundDuration":153651,"Delta":84516243},{"NoteNumber":53,"Velocity":43,"Duration":153651,"SoundDuration":153651,"Delta":84516243},{"NoteNumber":67,"Velocity":51,"Duration":585399,"SoundDuration":585399,"Delta":84669894},{"NoteNumber":79,"Velocity":61,"Duration":585399,"SoundDuration":585399,"Delta":84669894},{"NoteNumber":39,"Velocity":40,"Duration":146821,"SoundDuration":146821,"Delta":84814829},{"NoteNumber":43,"Velocity":42,"Duration":146821,"SoundDuration":146821,"Delta":84961650},{"NoteNumber":48,"Velocity":45,"Duration":146821,"SoundDuration":146821,"Delta":85108472},{"NoteNumber":72,"Velocity":57,"Duration":283296,"SoundDuration":283296,"Delta":85255293},{"NoteNumber":51,"Velocity":48,"Duration":144661,"SoundDuration":144661,"Delta":85255293},{"NoteNumber":55,"Velocity":40,"Duration":144661,"SoundDuration":144661,"Delta":85399955},{"NoteNumber":72,"Velocity":58,"Duration":144662,"SoundDuration":144662,"Delta":85544617},{"NoteNumber":56,"Velocity":39,"Duration":144662,"SoundDuration":144662,"Delta":85544617},{"NoteNumber":74,"Velocity":59,"Duration":149075,"SoundDuration":149075,"Delta":85689279},{"NoteNumber":54,"Velocity":39,"Duration":149075,"SoundDuration":149075,"Delta":85689279},{"NoteNumber":75,"Velocity":62,"Duration":144934,"SoundDuration":144934,"Delta":85838355},{"NoteNumber":43,"Velocity":48,"Duration":144934,"SoundDuration":144934,"Delta":85838355},{"NoteNumber":55,"Velocity":44,"Duration":146456,"SoundDuration":146456,"Delta":85983289},{"NoteNumber":75,"Velocity":58,"Duration":146456,"SoundDuration":146456,"Delta":86129745},{"NoteNumber":60,"Velocity":38,"Duration":146456,"SoundDuration":146456,"Delta":86129745},{"NoteNumber":77,"Velocity":60,"Duration":146456,"SoundDuration":146456,"Delta":86276201},{"NoteNumber":55,"Velocity":38,"Duration":146456,"SoundDuration":146456,"Delta":86276201},{"NoteNumber":74,"Velocity":62,"Duration":144661,"SoundDuration":144661,"Delta":86422657},{"NoteNumber":43,"Velocity":48,"Duration":144661,"SoundDuration":144661,"Delta":86422657},{"NoteNumber":55,"Velocity":39,"Duration":146099,"SoundDuration":146099,"Delta":86567319},{"NoteNumber":74,"Velocity":56,"Duration":146098,"SoundDuration":146098,"Delta":86713418},{"NoteNumber":59,"Velocity":39,"Duration":146098,"SoundDuration":146098,"Delta":86713418},{"NoteNumber":75,"Velocity":59,"Duration":149932,"SoundDuration":149932,"Delta":86859517},{"NoteNumber":55,"Velocity":39,"Duration":149932,"SoundDuration":149932,"Delta":86859517},{"NoteNumber":72,"Velocity":62,"Duration":153311,"SoundDuration":153311,"Delta":87009450},{"NoteNumber":48,"Velocity":52,"Duration":153311,"SoundDuration":153311,"Delta":87009450},{"NoteNumber":60,"Velocity":45,"Duration":148647,"SoundDuration":148647,"Delta":87162761},{"NoteNumber":82,"Velocity":74,"Duration":613810,"SoundDuration":613810,"Delta":87311409},{"NoteNumber":59,"Velocity":45,"Duration":153452,"SoundDuration":153452,"Delta":87311409},{"NoteNumber":60,"Velocity":45,"Duration":153452,"SoundDuration":153452,"Delta":87464861},{"NoteNumber":52,"Velocity":52,"Duration":153452,"SoundDuration":153452,"Delta":87618314},{"NoteNumber":60,"Velocity":48,"Duration":153452,"SoundDuration":153452,"Delta":87771766},{"NoteNumber":82,"Velocity":73,"Duration":460357,"SoundDuration":460357,"Delta":87925219},{"NoteNumber":55,"Velocity":48,"Duration":153452,"SoundDuration":153452,"Delta":87925219},{"NoteNumber":60,"Velocity":48,"Duration":153452,"SoundDuration":153452,"Delta":88078671},{"NoteNumber":53,"Velocity":53,"Duration":153452,"SoundDuration":153452,"Delta":88232124},{"NoteNumber":80,"Velocity":71,"Duration":153452,"SoundDuration":153452,"Delta":88385576},{"NoteNumber":60,"Velocity":49,"Duration":153452,"SoundDuration":153452,"Delta":88385576},{"NoteNumber":79,"Velocity":72,"Duration":144934,"SoundDuration":144934,"Delta":88539029},{"NoteNumber":56,"Velocity":50,"Duration":144934,"SoundDuration":144934,"Delta":88539029},{"NoteNumber":77,"Velocity":72,"Duration":144934,"SoundDuration":144934,"Delta":88683963},{"NoteNumber":60,"Velocity":49,"Duration":144934,"SoundDuration":144934,"Delta":88683963},{"NoteNumber":75,"Velocity":71,"Duration":144934,"SoundDuration":144934,"Delta":88828898},{"NoteNumber":55,"Velocity":54,"Duration":144934,"SoundDuration":144934,"Delta":88828898},{"NoteNumber":74,"Velocity":71,"Duration":144934,"SoundDuration":144934,"Delta":88973832},{"NoteNumber":65,"Velocity":52,"Duration":144934,"SoundDuration":144934,"Delta":88973832},{"NoteNumber":72,"Velocity":71,"Duration":144934,"SoundDuration":144934,"Delta":89118767},{"NoteNumber":59,"Velocity":43,"Duration":144934,"SoundDuration":144934,"Delta":89118767},{"NoteNumber":71,"Velocity":71,"Duration":144934,"SoundDuration":144934,"Delta":89263701},{"NoteNumber":65,"Velocity":50,"Duration":144934,"SoundDuration":144934,"Delta":89263701},{"NoteNumber":72,"Velocity":73,"Duration":153311,"SoundDuration":153311,"Delta":89408636},{"NoteNumber":56,"Velocity":54,"Duration":153311,"SoundDuration":153311,"Delta":89408636},{"NoteNumber":63,"Velocity":47,"Duration":148647,"SoundDuration":148647,"Delta":89561947},{"NoteNumber":72,"Velocity":67,"Duration":613810,"SoundDuration":613810,"Delta":89710595},{"NoteNumber":84,"Velocity":79,"Duration":613810,"SoundDuration":613810,"Delta":89710595},{"NoteNumber":60,"Velocity":47,"Duration":153452,"SoundDuration":153452,"Delta":89710595},{"NoteNumber":63,"Velocity":47,"Duration":153452,"SoundDuration":153452,"Delta":89864047},{"NoteNumber":55,"Velocity":62,"Duration":153452,"SoundDuration":153452,"Delta":90017500},{"NoteNumber":64,"Velocity":54,"Duration":153452,"SoundDuration":153452,"Delta":90170952},{"NoteNumber":82,"Velocity":80,"Duration":460357,"SoundDuration":460357,"Delta":90324405},{"NoteNumber":60,"Velocity":55,"Duration":153452,"SoundDuration":153452,"Delta":90324405},{"NoteNumber":64,"Velocity":55,"Duration":153452,"SoundDuration":153452,"Delta":90477857},{"NoteNumber":53,"Velocity":64,"Duration":153452,"SoundDuration":153452,"Delta":90631310},{"NoteNumber":80,"Velocity":81,"Duration":153452,"SoundDuration":153452,"Delta":90784762},{"NoteNumber":65,"Velocity":57,"Duration":153452,"SoundDuration":153452,"Delta":90784762},{"NoteNumber":79,"Velocity":82,"Duration":144934,"SoundDuration":144934,"Delta":90938215},{"NoteNumber":60,"Velocity":58,"Duration":144934,"SoundDuration":144934,"Delta":90938215},{"NoteNumber":77,"Velocity":81,"Duration":144934,"SoundDuration":144934,"Delta":91083149},{"NoteNumber":65,"Velocity":57,"Duration":144934,"SoundDuration":144934,"Delta":91083149},{"NoteNumber":75,"Velocity":79,"Duration":144934,"SoundDuration":144934,"Delta":91228084},{"NoteNumber":55,"Velocity":63,"Duration":144934,"SoundDuration":144934,"Delta":91228084},{"NoteNumber":74,"Velocity":79,"Duration":144934,"SoundDuration":144934,"Delta":91373018},{"NoteNumber":67,"Velocity":57,"Duration":144934,"SoundDuration":144934,"Delta":91373018},{"NoteNumber":72,"Velocity":79,"Duration":144934,"SoundDuration":144934,"Delta":91517953},{"NoteNumber":55,"Velocity":57,"Duration":144934,"SoundDuration":144934,"Delta":91517953},{"NoteNumber":71,"Velocity":78,"Duration":144934,"SoundDuration":144934,"Delta":91662887},{"NoteNumber":67,"Velocity":56,"Duration":144934,"SoundDuration":144934,"Delta":91662887},{"NoteNumber":72,"Velocity":89,"Duration":150187,"SoundDuration":150187,"Delta":91807822},{"NoteNumber":60,"Velocity":68,"Duration":150187,"SoundDuration":150187,"Delta":91807822},{"NoteNumber":74,"Velocity":81,"Duration":50838,"SoundDuration":50838,"Delta":92108197},{"NoteNumber":55,"Velocity":62,"Duration":152516,"SoundDuration":152516,"Delta":92108197},{"NoteNumber":59,"Velocity":62,"Duration":152516,"SoundDuration":152516,"Delta":92108197},{"NoteNumber":75,"Velocity":81,"Duration":50838,"SoundDuration":50838,"Delta":92159036},{"NoteNumber":74,"Velocity":81,"Duration":50838,"SoundDuration":50838,"Delta":92209875},{"NoteNumber":75,"Velocity":81,"Duration":38129,"SoundDuration":38129,"Delta":92260713},{"NoteNumber":74,"Velocity":81,"Duration":38129,"SoundDuration":38129,"Delta":92298842},{"NoteNumber":72,"Velocity":80,"Duration":38129,"SoundDuration":38129,"Delta":92336972},{"NoteNumber":74,"Velocity":80,"Duration":38129,"SoundDuration":38129,"Delta":92375101},{"NoteNumber":75,"Velocity":92,"Duration":153704,"SoundDuration":153704,"Delta":92413230},{"NoteNumber":48,"Velocity":62,"Duration":153704,"SoundDuration":153704,"Delta":92413230},{"NoteNumber":60,"Velocity":62,"Duration":153704,"SoundDuration":153704,"Delta":92413230},{"NoteNumber":71,"Velocity":92,"Duration":159531,"SoundDuration":159531,"Delta":92720639},{"NoteNumber":74,"Velocity":92,"Duration":159531,"SoundDuration":159531,"Delta":92720639},{"NoteNumber":83,"Velocity":92,"Duration":159531,"SoundDuration":159531,"Delta":92720639},{"NoteNumber":43,"Velocity":62,"Duration":159531,"SoundDuration":159531,"Delta":92720639},{"NoteNumber":55,"Velocity":62,"Duration":159531,"SoundDuration":159531,"Delta":92720639},{"NoteNumber":72,"Velocity":92,"Duration":159531,"SoundDuration":159531,"Delta":93039703},{"NoteNumber":75,"Velocity":92,"Duration":159531,"SoundDuration":159531,"Delta":93039703},{"NoteNumber":84,"Velocity":92,"Duration":159531,"SoundDuration":159531,"Delta":93039703},{"NoteNumber":36,"Velocity":69,"Duration":159531,"SoundDuration":159531,"Delta":93039703},{"NoteNumber":48,"Velocity":69,"Duration":159531,"SoundDuration":159531,"Delta":93039703},{"NoteNumber":44,"Velocity":46,"Duration":159531,"SoundDuration":159531,"Delta":93837363},{"NoteNumber":48,"Velocity":48,"Duration":159531,"SoundDuration":159531,"Delta":93996895},{"NoteNumber":51,"Velocity":50,"Duration":159531,"SoundDuration":159531,"Delta":94156427},{"NoteNumber":60,"Velocity":53,"Duration":638127,"SoundDuration":638127,"Delta":94315959},{"NoteNumber":56,"Velocity":51,"Duration":638127,"SoundDuration":638127,"Delta":94315959},{"NoteNumber":65,"Velocity":48,"Duration":638128,"SoundDuration":638128,"Delta":94954087},{"NoteNumber":49,"Velocity":48,"Duration":638128,"SoundDuration":638128,"Delta":94954087},{"NoteNumber":58,"Velocity":51,"Duration":638127,"SoundDuration":638127,"Delta":95592215},{"NoteNumber":55,"Velocity":48,"Duration":638127,"SoundDuration":638127,"Delta":95592215},{"NoteNumber":63,"Velocity":48,"Duration":638127,"SoundDuration":638127,"Delta":96230343},{"NoteNumber":48,"Velocity":45,"Duration":638127,"SoundDuration":638127,"Delta":96230343},{"NoteNumber":56,"Velocity":52,"Duration":638128,"SoundDuration":638128,"Delta":96868471},{"NoteNumber":53,"Velocity":48,"Duration":319064,"SoundDuration":319064,"Delta":96868471},{"NoteNumber":46,"Velocity":48,"Duration":638127,"SoundDuration":638127,"Delta":97187535},{"NoteNumber":61,"Velocity":48,"Duration":319063,"SoundDuration":319063,"Delta":97506599},{"NoteNumber":60,"Velocity":48,"Duration":319063,"SoundDuration":319063,"Delta":97825663},{"NoteNumber":48,"Velocity":48,"Duration":319063,"SoundDuration":319063,"Delta":97825663},{"NoteNumber":58,"Velocity":53,"Duration":319063,"SoundDuration":319063,"Delta":98144727},{"NoteNumber":49,"Velocity":51,"Duration":319063,"SoundDuration":319063,"Delta":98144727},{"NoteNumber":56,"Velocity":48,"Duration":319064,"SoundDuration":319064,"Delta":98463791},{"NoteNumber":50,"Velocity":46,"Duration":319064,"SoundDuration":319064,"Delta":98463791},{"NoteNumber":55,"Velocity":48,"Duration":319063,"SoundDuration":319063,"Delta":98782855},{"NoteNumber":51,"Velocity":46,"Duration":319063,"SoundDuration":319063,"Delta":98782855},{"NoteNumber":39,"Velocity":42,"Duration":319063,"SoundDuration":319063,"Delta":99101919},{"NoteNumber":44,"Velocity":51,"Duration":638127,"SoundDuration":638127,"Delta":99420983},{"NoteNumber":72,"Velocity":55,"Duration":638127,"SoundDuration":638127,"Delta":99740047},{"NoteNumber":49,"Velocity":49,"Duration":638128,"SoundDuration":638128,"Delta":100059111},{"NoteNumber":65,"Velocity":53,"Duration":638128,"SoundDuration":638128,"Delta":100378175},{"NoteNumber":43,"Velocity":51,"Duration":638127,"SoundDuration":638127,"Delta":100697239},{"NoteNumber":70,"Velocity":56,"Duration":638127,"SoundDuration":638127,"Delta":101016303},{"NoteNumber":48,"Velocity":49,"Duration":638128,"SoundDuration":638128,"Delta":101335367},{"NoteNumber":63,"Velocity":53,"Duration":638128,"SoundDuration":638128,"Delta":101654431},{"NoteNumber":41,"Velocity":52,"Duration":638127,"SoundDuration":638127,"Delta":101973495},{"NoteNumber":68,"Velocity":53,"Duration":319063,"SoundDuration":319063,"Delta":102292559},{"NoteNumber":67,"Velocity":51,"Duration":319063,"SoundDuration":319063,"Delta":102611623},{"NoteNumber":43,"Velocity":51,"Duration":319063,"SoundDuration":319063,"Delta":102611623},{"NoteNumber":65,"Velocity":51,"Duration":319063,"SoundDuration":319063,"Delta":102930687},{"NoteNumber":44,"Velocity":49,"Duration":319063,"SoundDuration":319063,"Delta":102930687},{"NoteNumber":63,"Velocity":53,"Duration":319063,"SoundDuration":319063,"Delta":103249751},{"NoteNumber":45,"Velocity":53,"Duration":319063,"SoundDuration":319063,"Delta":103249751},{"NoteNumber":62,"Velocity":49,"Duration":319063,"SoundDuration":319063,"Delta":103568815},{"NoteNumber":46,"Velocity":50,"Duration":319063,"SoundDuration":319063,"Delta":103568815},{"NoteNumber":65,"Velocity":53,"Duration":319064,"SoundDuration":319064,"Delta":103887879},{"NoteNumber":39,"Velocity":49,"Duration":319064,"SoundDuration":319064,"Delta":103887879},{"NoteNumber":63,"Velocity":49,"Duration":319063,"SoundDuration":319063,"Delta":104206943},{"NoteNumber":72,"Velocity":57,"Duration":638127,"SoundDuration":638127,"Delta":104526007},{"NoteNumber":56,"Velocity":43,"Duration":638128,"SoundDuration":638128,"Delta":104845071},{"NoteNumber":60,"Velocity":51,"Duration":638128,"SoundDuration":638128,"Delta":104845071},{"NoteNumber":65,"Velocity":40,"Duration":638128,"SoundDuration":638128,"Delta":105164135},{"NoteNumber":77,"Velocity":48,"Duration":638128,"SoundDuration":638128,"Delta":105164135},{"NoteNumber":49,"Velocity":40,"Duration":638127,"SoundDuration":638127,"Delta":105483199},{"NoteNumber":53,"Velocity":48,"Duration":638127,"SoundDuration":638127,"Delta":105483199},{"NoteNumber":70,"Velocity":57,"Duration":638127,"SoundDuration":638127,"Delta":105802263},{"NoteNumber":55,"Velocity":43,"Duration":638127,"SoundDuration":638127,"Delta":106121327},{"NoteNumber":58,"Velocity":51,"Duration":638127,"SoundDuration":638127,"Delta":106121327},{"NoteNumber":63,"Velocity":40,"Duration":957192,"SoundDuration":957192,"Delta":106440391},{"NoteNumber":75,"Velocity":48,"Duration":638127,"SoundDuration":638127,"Delta":106440391},{"NoteNumber":48,"Velocity":40,"Duration":638128,"SoundDuration":638128,"Delta":106759455},{"NoteNumber":51,"Velocity":48,"Duration":638128,"SoundDuration":638128,"Delta":106759455},{"NoteNumber":68,"Velocity":52,"Duration":638128,"SoundDuration":638128,"Delta":107078519},{"NoteNumber":60,"Velocity":48,"Duration":319063,"SoundDuration":319063,"Delta":107397583},{"NoteNumber":53,"Velocity":43,"Duration":319063,"SoundDuration":319063,"Delta":107397583},{"NoteNumber":56,"Velocity":51,"Duration":319063,"SoundDuration":319063,"Delta":107397583},{"NoteNumber":65,"Velocity":45,"Duration":319063,"SoundDuration":319063,"Delta":107716647},{"NoteNumber":73,"Velocity":53,"Duration":319063,"SoundDuration":319063,"Delta":107716647},{"NoteNumber":46,"Velocity":51,"Duration":319063,"SoundDuration":319063,"Delta":107716647},{"NoteNumber":63,"Velocity":40,"Duration":319063,"SoundDuration":319063,"Delta":108035711},{"NoteNumber":72,"Velocity":48,"Duration":319063,"SoundDuration":319063,"Delta":108035711},{"NoteNumber":48,"Velocity":51,"Duration":319063,"SoundDuration":319063,"Delta":108035711},{"NoteNumber":61,"Velocity":40,"Duration":319063,"SoundDuration":319063,"Delta":108354775},{"NoteNumber":70,"Velocity":53,"Duration":319063,"SoundDuration":319063,"Delta":108354775},{"NoteNumber":49,"Velocity":49,"Duration":319063,"SoundDuration":319063,"Delta":108354775},{"NoteNumber":60,"Velocity":40,"Duration":319064,"SoundDuration":319064,"Delta":108673839},{"NoteNumber":68,"Velocity":48,"Duration":319064,"SoundDuration":319064,"Delta":108673839},{"NoteNumber":50,"Velocity":49,"Duration":319064,"SoundDuration":319064,"Delta":108673839},{"NoteNumber":58,"Velocity":40,"Duration":319063,"SoundDuration":319063,"Delta":108992903},{"NoteNumber":67,"Velocity":48,"Duration":319063,"SoundDuration":319063,"Delta":108992903},{"NoteNumber":51,"Velocity":49,"Duration":319063,"SoundDuration":319063,"Delta":108992903},{"NoteNumber":63,"Velocity":48,"Duration":319063,"SoundDuration":319063,"Delta":109311967},{"NoteNumber":60,"Velocity":51,"Duration":638127,"SoundDuration":638127,"Delta":109631031},{"NoteNumber":56,"Velocity":43,"Duration":638127,"SoundDuration":638127,"Delta":109631031},{"NoteNumber":72,"Velocity":46,"Duration":638127,"SoundDuration":638127,"Delta":109950095},{"NoteNumber":84,"Velocity":55,"Duration":638127,"SoundDuration":638127,"Delta":109950095},{"NoteNumber":65,"Velocity":50,"Duration":638128,"SoundDuration":638128,"Delta":110269159},{"NoteNumber":61,"Velocity":42,"Duration":638128,"SoundDuration":638128,"Delta":110269159},{"NoteNumber":77,"Velocity":55,"Duration":638128,"SoundDuration":638128,"Delta":110588223},{"NoteNumber":58,"Velocity":54,"Duration":638127,"SoundDuration":638127,"Delta":110907287},{"NoteNumber":55,"Velocity":46,"Duration":638127,"SoundDuration":638127,"Delta":110907287},{"NoteNumber":70,"Velocity":51,"Duration":638127,"SoundDuration":638127,"Delta":111226351},{"NoteNumber":82,"Velocity":61,"Duration":638127,"SoundDuration":638127,"Delta":111226351},{"NoteNumber":63,"Velocity":54,"Duration":638128,"SoundDuration":638128,"Delta":111545415},{"NoteNumber":60,"Velocity":45,"Duration":638128,"SoundDuration":638128,"Delta":111545415},{"NoteNumber":75,"Velocity":59,"Duration":638128,"SoundDuration":638128,"Delta":111864479},{"NoteNumber":72,"Velocity":51,"Duration":638127,"SoundDuration":638127,"Delta":112183543},{"NoteNumber":53,"Velocity":59,"Duration":638127,"SoundDuration":638127,"Delta":112183543},{"NoteNumber":80,"Velocity":61,"Duration":319063,"SoundDuration":319063,"Delta":112502607},{"NoteNumber":70,"Velocity":50,"Duration":319063,"SoundDuration":319063,"Delta":112821671},{"NoteNumber":79,"Velocity":60,"Duration":319063,"SoundDuration":319063,"Delta":112821671},{"NoteNumber":55,"Velocity":60,"Duration":319063,"SoundDuration":319063,"Delta":112821671},{"NoteNumber":68,"Velocity":51,"Duration":319063,"SoundDuration":319063,"Delta":113140735},{"NoteNumber":77,"Velocity":61,"Duration":319063,"SoundDuration":319063,"Delta":113140735},{"NoteNumber":56,"Velocity":58,"Duration":319063,"SoundDuration":319063,"Delta":113140735},{"NoteNumber":67,"Velocity":54,"Duration":319063,"SoundDuration":319063,"Delta":113459799},{"NoteNumber":75,"Velocity":64,"Duration":319063,"SoundDuration":319063,"Delta":113459799},{"NoteNumber":57,"Velocity":64,"Duration":319063,"SoundDuration":319063,"Delta":113459799},{"NoteNumber":65,"Velocity":50,"Duration":319063,"SoundDuration":319063,"Delta":113778863},{"NoteNumber":74,"Velocity":60,"Duration":319063,"SoundDuration":319063,"Delta":113778863},{"NoteNumber":58,"Velocity":62,"Duration":319063,"SoundDuration":319063,"Delta":113778863},{"NoteNumber":68,"Velocity":56,"Duration":319064,"SoundDuration":319064,"Delta":114097927},{"NoteNumber":77,"Velocity":66,"Duration":319064,"SoundDuration":319064,"Delta":114097927},{"NoteNumber":51,"Velocity":61,"Duration":319064,"SoundDuration":319064,"Delta":114097927},{"NoteNumber":67,"Velocity":52,"Duration":319063,"SoundDuration":319063,"Delta":114416991},{"NoteNumber":75,"Velocity":62,"Duration":319063,"SoundDuration":319063,"Delta":114416991},{"NoteNumber":63,"Velocity":64,"Duration":319063,"SoundDuration":319063,"Delta":114416991},{"NoteNumber":62,"Velocity":65,"Duration":319063,"SoundDuration":319063,"Delta":114736055},{"NoteNumber":63,"Velocity":65,"Duration":319063,"SoundDuration":319063,"Delta":115055119},{"NoteNumber":66,"Velocity":65,"Duration":319064,"SoundDuration":319064,"Delta":115374183},{"NoteNumber":75,"Velocity":65,"Duration":319063,"SoundDuration":319063,"Delta":115693247},{"NoteNumber":57,"Velocity":61,"Duration":319063,"SoundDuration":319063,"Delta":115693247},{"NoteNumber":72,"Velocity":68,"Duration":319063,"SoundDuration":319063,"Delta":116012311},{"NoteNumber":58,"Velocity":62,"Duration":159531,"SoundDuration":159531,"Delta":116012311},{"NoteNumber":73,"Velocity":65,"Duration":319063,"SoundDuration":319063,"Delta":116331375},{"NoteNumber":77,"Velocity":67,"Duration":319063,"SoundDuration":319063,"Delta":116650439},{"NoteNumber":67,"Velocity":63,"Duration":319063,"SoundDuration":319063,"Delta":116969503},{"NoteNumber":61,"Velocity":65,"Duration":319063,"SoundDuration":319063,"Delta":116969503},{"NoteNumber":51,"Velocity":54,"Duration":319063,"SoundDuration":319063,"Delta":116969503},{"NoteNumber":70,"Velocity":68,"Duration":319063,"SoundDuration":319063,"Delta":117288567},{"NoteNumber":60,"Velocity":62,"Duration":319063,"SoundDuration":319063,"Delta":117288567},{"NoteNumber":56,"Velocity":62,"Duration":319063,"SoundDuration":319063,"Delta":117288567},{"NoteNumber":68,"Velocity":65,"Duration":319064,"SoundDuration":319064,"Delta":117607631},{"NoteNumber":72,"Velocity":67,"Duration":319063,"SoundDuration":319063,"Delta":117926695},{"NoteNumber":62,"Velocity":65,"Duration":319063,"SoundDuration":319063,"Delta":118245759},{"NoteNumber":46,"Velocity":53,"Duration":319063,"SoundDuration":319063,"Delta":118245759},{"NoteNumber":56,"Velocity":63,"Duration":319063,"SoundDuration":319063,"Delta":118245759},{"NoteNumber":63,"Velocity":65,"Duration":159531,"SoundDuration":159531,"Delta":118564823},{"NoteNumber":51,"Velocity":63,"Duration":319064,"SoundDuration":319064,"Delta":118564823},{"NoteNumber":55,"Velocity":63,"Duration":319064,"SoundDuration":319064,"Delta":118564823},{"NoteNumber":82,"Velocity":61,"Duration":319063,"SoundDuration":319063,"Delta":118883887},{"NoteNumber":87,"Velocity":66,"Duration":311964,"SoundDuration":311964,"Delta":119202951},{"NoteNumber":75,"Velocity":49,"Duration":77991,"SoundDuration":77991,"Delta":119358933},{"NoteNumber":85,"Velocity":62,"Duration":311964,"SoundDuration":311964,"Delta":119514915},{"NoteNumber":77,"Velocity":49,"Duration":77990,"SoundDuration":77990,"Delta":119514915},{"NoteNumber":79,"Velocity":49,"Duration":77990,"SoundDuration":77990,"Delta":119670897},{"NoteNumber":84,"Velocity":69,"Duration":619240,"SoundDuration":619240,"Delta":119826879},{"NoteNumber":80,"Velocity":49,"Duration":155198,"SoundDuration":155198,"Delta":119826879},{"NoteNumber":79,"Velocity":49,"Duration":154937,"SoundDuration":154937,"Delta":119982078},{"NoteNumber":77,"Velocity":49,"Duration":154679,"SoundDuration":154679,"Delta":120137015},{"NoteNumber":75,"Velocity":49,"Duration":154424,"SoundDuration":154424,"Delta":120291694},{"NoteNumber":89,"Velocity":70,"Duration":614555,"SoundDuration":614555,"Delta":120446119},{"NoteNumber":73,"Velocity":49,"Duration":154035,"SoundDuration":154035,"Delta":120446119},{"NoteNumber":72,"Velocity":49,"Duration":153777,"SoundDuration":153777,"Delta":120600154},{"NoteNumber":70,"Velocity":49,"Duration":153525,"SoundDuration":153525,"Delta":120753932},{"NoteNumber":68,"Velocity":49,"Duration":153216,"SoundDuration":153216,"Delta":120907458},{"NoteNumber":82,"Velocity":70,"Duration":611590,"SoundDuration":611590,"Delta":121060674},{"NoteNumber":67,"Velocity":49,"Duration":152897,"SoundDuration":152897,"Delta":121060674},{"NoteNumber":65,"Velocity":49,"Duration":152897,"SoundDuration":152897,"Delta":121213572},{"NoteNumber":63,"Velocity":49,"Duration":152897,"SoundDuration":152897,"Delta":121366469},{"NoteNumber":61,"Velocity":49,"Duration":152897,"SoundDuration":152897,"Delta":121519367},{"NoteNumber":87,"Velocity":67,"Duration":611589,"SoundDuration":611589,"Delta":121672264},{"NoteNumber":60,"Velocity":49,"Duration":152897,"SoundDuration":152897,"Delta":121672264},{"NoteNumber":58,"Velocity":49,"Duration":152897,"SoundDuration":152897,"Delta":121825162},{"NoteNumber":56,"Velocity":49,"Duration":152897,"SoundDuration":152897,"Delta":121978059},{"NoteNumber":55,"Velocity":49,"Duration":152897,"SoundDuration":152897,"Delta":122130957},{"NoteNumber":80,"Velocity":70,"Duration":605165,"SoundDuration":605165,"Delta":122283854},{"NoteNumber":53,"Velocity":51,"Duration":152897,"SoundDuration":152897,"Delta":122283854},{"NoteNumber":51,"Velocity":51,"Duration":152403,"SoundDuration":152403,"Delta":122436752},{"NoteNumber":49,"Velocity":52,"Duration":149932,"SoundDuration":149932,"Delta":122589155},{"NoteNumber":48,"Velocity":53,"Duration":149932,"SoundDuration":149932,"Delta":122739088},{"NoteNumber":73,"Velocity":72,"Duration":149932,"SoundDuration":149932,"Delta":122889020},{"NoteNumber":85,"Velocity":72,"Duration":149932,"SoundDuration":149932,"Delta":122889020},{"NoteNumber":46,"Velocity":53,"Duration":149932,"SoundDuration":149932,"Delta":122889020},{"NoteNumber":45,"Velocity":54,"Duration":149932,"SoundDuration":149932,"Delta":123038953},{"NoteNumber":84,"Velocity":73,"Duration":149932,"SoundDuration":149932,"Delta":123188885},{"NoteNumber":72,"Velocity":73,"Duration":149932,"SoundDuration":149932,"Delta":123188885},{"NoteNumber":46,"Velocity":55,"Duration":149932,"SoundDuration":149932,"Delta":123188885},{"NoteNumber":48,"Velocity":55,"Duration":149932,"SoundDuration":149932,"Delta":123338818},{"NoteNumber":70,"Velocity":75,"Duration":149932,"SoundDuration":149932,"Delta":123488750},{"NoteNumber":82,"Velocity":75,"Duration":149932,"SoundDuration":149932,"Delta":123488750},{"NoteNumber":49,"Velocity":55,"Duration":149932,"SoundDuration":149932,"Delta":123488750},{"NoteNumber":48,"Velocity":56,"Duration":149932,"SoundDuration":149932,"Delta":123638683},{"NoteNumber":80,"Velocity":77,"Duration":149932,"SoundDuration":149932,"Delta":123788615},{"NoteNumber":68,"Velocity":77,"Duration":149932,"SoundDuration":149932,"Delta":123788615},{"NoteNumber":49,"Velocity":57,"Duration":149932,"SoundDuration":149932,"Delta":123788615},{"NoteNumber":50,"Velocity":58,"Duration":149932,"SoundDuration":149932,"Delta":123938548},{"NoteNumber":67,"Velocity":79,"Duration":149932,"SoundDuration":149932,"Delta":124088480},{"NoteNumber":79,"Velocity":79,"Duration":149932,"SoundDuration":149932,"Delta":124088480},{"NoteNumber":51,"Velocity":59,"Duration":149932,"SoundDuration":149932,"Delta":124088480},{"NoteNumber":53,"Velocity":60,"Duration":149932,"SoundDuration":149932,"Delta":124238413},{"NoteNumber":73,"Velocity":80,"Duration":149932,"SoundDuration":149932,"Delta":124388345},{"NoteNumber":54,"Velocity":61,"Duration":149932,"SoundDuration":149932,"Delta":124388345},{"NoteNumber":55,"Velocity":62,"Duration":149871,"SoundDuration":149871,"Delta":124538278},{"NoteNumber":84,"Velocity":80,"Duration":149202,"SoundDuration":149202,"Delta":124688149},{"NoteNumber":44,"Velocity":76,"Duration":596807,"SoundDuration":596807,"Delta":124688149},{"NoteNumber":82,"Velocity":79,"Duration":149202,"SoundDuration":149202,"Delta":124837351},{"NoteNumber":80,"Velocity":79,"Duration":149201,"SoundDuration":149201,"Delta":124986553},{"NoteNumber":79,"Velocity":78,"Duration":149202,"SoundDuration":149202,"Delta":125135755},{"NoteNumber":77,"Velocity":77,"Duration":149202,"SoundDuration":149202,"Delta":125284957},{"NoteNumber":49,"Velocity":72,"Duration":595809,"SoundDuration":595809,"Delta":125284957},{"NoteNumber":75,"Velocity":76,"Duration":148929,"SoundDuration":148929,"Delta":125434159},{"NoteNumber":73,"Velocity":76,"Duration":148839,"SoundDuration":148839,"Delta":125583089},{"NoteNumber":72,"Velocity":76,"Duration":148838,"SoundDuration":148838,"Delta":125731928},{"NoteNumber":70,"Velocity":77,"Duration":148838,"SoundDuration":148838,"Delta":125880767},{"NoteNumber":43,"Velocity":77,"Duration":594796,"SoundDuration":594796,"Delta":125880767},{"NoteNumber":68,"Velocity":77,"Duration":148839,"SoundDuration":148839,"Delta":126029606},{"NoteNumber":67,"Velocity":77,"Duration":148632,"SoundDuration":148632,"Delta":126178445},{"NoteNumber":65,"Velocity":77,"Duration":148485,"SoundDuration":148485,"Delta":126327078},{"NoteNumber":64,"Velocity":77,"Duration":148485,"SoundDuration":148485,"Delta":126475563},{"NoteNumber":48,"Velocity":71,"Duration":593852,"SoundDuration":593852,"Delta":126475563},{"NoteNumber":61,"Velocity":76,"Duration":148485,"SoundDuration":148485,"Delta":126624049},{"NoteNumber":60,"Velocity":76,"Duration":148485,"SoundDuration":148485,"Delta":126772534},{"NoteNumber":58,"Velocity":75,"Duration":148395,"SoundDuration":148395,"Delta":126921020},{"NoteNumber":56,"Velocity":75,"Duration":148126,"SoundDuration":148126,"Delta":127069416},{"NoteNumber":41,"Velocity":76,"Duration":592503,"SoundDuration":592503,"Delta":127069416},{"NoteNumber":55,"Velocity":74,"Duration":148126,"SoundDuration":148126,"Delta":127217542},{"NoteNumber":53,"Velocity":73,"Duration":148125,"SoundDuration":148125,"Delta":127365668},{"NoteNumber":52,"Velocity":71,"Duration":148125,"SoundDuration":148125,"Delta":127513794},{"NoteNumber":53,"Velocity":70,"Duration":148096,"SoundDuration":148096,"Delta":127661920},{"NoteNumber":29,"Velocity":76,"Duration":1181865,"SoundDuration":1181865,"Delta":127661920},{"NoteNumber":41,"Velocity":76,"Duration":1181865,"SoundDuration":1181865,"Delta":127661920},{"NoteNumber":55,"Velocity":72,"Duration":147768,"SoundDuration":147768,"Delta":127810016},{"NoteNumber":56,"Velocity":74,"Duration":147768,"SoundDuration":147768,"Delta":127957784},{"NoteNumber":55,"Velocity":71,"Duration":147768,"SoundDuration":147768,"Delta":128105553},{"NoteNumber":53,"Velocity":73,"Duration":147768,"SoundDuration":147768,"Delta":128253321},{"NoteNumber":51,"Velocity":72,"Duration":147768,"SoundDuration":147768,"Delta":128401090},{"NoteNumber":50,"Velocity":71,"Duration":147507,"SoundDuration":147507,"Delta":128548858},{"NoteNumber":48,"Velocity":70,"Duration":147419,"SoundDuration":147419,"Delta":128696365},{"NoteNumber":47,"Velocity":67,"Duration":147420,"SoundDuration":147420,"Delta":128843785},{"NoteNumber":30,"Velocity":75,"Duration":589386,"SoundDuration":589386,"Delta":128843785},{"NoteNumber":42,"Velocity":75,"Duration":589386,"SoundDuration":589386,"Delta":128843785},{"NoteNumber":48,"Velocity":69,"Duration":147420,"SoundDuration":147420,"Delta":128991205},{"NoteNumber":50,"Velocity":71,"Duration":147419,"SoundDuration":147419,"Delta":129138625},{"NoteNumber":48,"Velocity":70,"Duration":147126,"SoundDuration":147126,"Delta":129286045},{"NoteNumber":31,"Velocity":75,"Duration":289973,"SoundDuration":289973,"Delta":129433172},{"NoteNumber":43,"Velocity":56,"Duration":72670,"SoundDuration":72670,"Delta":129506100},{"NoteNumber":47,"Velocity":56,"Duration":72328,"SoundDuration":72328,"Delta":129578770},{"NoteNumber":50,"Velocity":56,"Duration":72048,"SoundDuration":72048,"Delta":129651098},{"NoteNumber":55,"Velocity":69,"Duration":71908,"SoundDuration":71908,"Delta":129723146},{"NoteNumber":38,"Velocity":54,"Duration":72413,"SoundDuration":72413,"Delta":129867214},{"NoteNumber":35,"Velocity":55,"Duration":72813,"SoundDuration":72813,"Delta":129939627},{"NoteNumber":31,"Velocity":67,"Duration":72840,"SoundDuration":72840,"Delta":130012441},{"NoteNumber":43,"Velocity":58,"Duration":72584,"SoundDuration":72584,"Delta":130085282},{"NoteNumber":48,"Velocity":58,"Duration":72328,"SoundDuration":72328,"Delta":130157867},{"NoteNumber":51,"Velocity":58,"Duration":72048,"SoundDuration":72048,"Delta":130230195},{"NoteNumber":55,"Velocity":70,"Duration":71936,"SoundDuration":71936,"Delta":130302243},{"NoteNumber":39,"Velocity":55,"Duration":72613,"SoundDuration":72613,"Delta":130446452},{"NoteNumber":36,"Velocity":55,"Duration":72956,"SoundDuration":72956,"Delta":130519065},{"NoteNumber":31,"Velocity":69,"Duration":73101,"SoundDuration":73101,"Delta":130592021},{"NoteNumber":43,"Velocity":60,"Duration":72840,"SoundDuration":72840,"Delta":130665123},{"NoteNumber":50,"Velocity":60,"Duration":72584,"SoundDuration":72584,"Delta":130737964},{"NoteNumber":53,"Velocity":60,"Duration":72299,"SoundDuration":72299,"Delta":130810549},{"NoteNumber":55,"Velocity":71,"Duration":72103,"SoundDuration":72103,"Delta":130882849},{"NoteNumber":41,"Velocity":57,"Duration":72784,"SoundDuration":72784,"Delta":131027394},{"NoteNumber":38,"Velocity":57,"Duration":73159,"SoundDuration":73159,"Delta":131100178},{"NoteNumber":31,"Velocity":70,"Duration":73101,"SoundDuration":73101,"Delta":131173338},{"NoteNumber":43,"Velocity":61,"Duration":72840,"SoundDuration":72840,"Delta":131246439},{"NoteNumber":48,"Velocity":61,"Duration":72498,"SoundDuration":72498,"Delta":131319280},{"NoteNumber":51,"Velocity":61,"Duration":72188,"SoundDuration":72188,"Delta":131391779},{"NoteNumber":55,"Velocity":71,"Duration":71908,"SoundDuration":71908,"Delta":131463967},{"NoteNumber":39,"Velocity":59,"Duration":72556,"SoundDuration":72556,"Delta":131608091},{"NoteNumber":36,"Velocity":59,"Duration":72898,"SoundDuration":72898,"Delta":131680647},{"NoteNumber":31,"Velocity":81,"Duration":72927,"SoundDuration":72927,"Delta":131753546},{"NoteNumber":55,"Velocity":60,"Duration":72670,"SoundDuration":72670,"Delta":131826473},{"NoteNumber":59,"Velocity":60,"Duration":72413,"SoundDuration":72413,"Delta":131899144},{"NoteNumber":62,"Velocity":60,"Duration":72160,"SoundDuration":72160,"Delta":131971557},{"NoteNumber":67,"Velocity":76,"Duration":71880,"SoundDuration":71880,"Delta":132043717},{"NoteNumber":50,"Velocity":59,"Duration":72498,"SoundDuration":72498,"Delta":132187757},{"NoteNumber":47,"Velocity":59,"Duration":72898,"SoundDuration":72898,"Delta":132260256},{"NoteNumber":43,"Velocity":74,"Duration":73014,"SoundDuration":73014,"Delta":132333155},{"NoteNumber":55,"Velocity":64,"Duration":72840,"SoundDuration":72840,"Delta":132406169},{"NoteNumber":60,"Velocity":64,"Duration":72584,"SoundDuration":72584,"Delta":132479010},{"NoteNumber":63,"Velocity":64,"Duration":72328,"SoundDuration":72328,"Delta":132551595},{"NoteNumber":67,"Velocity":76,"Duration":72272,"SoundDuration":72272,"Delta":132623923},{"NoteNumber":51,"Velocity":59,"Duration":73014,"SoundDuration":73014,"Delta":132768809},{"NoteNumber":48,"Velocity":59,"Duration":73331,"SoundDuration":73331,"Delta":132841823},{"NoteNumber":43,"Velocity":76,"Duration":73188,"SoundDuration":73188,"Delta":132915155},{"NoteNumber":55,"Velocity":66,"Duration":72840,"SoundDuration":72840,"Delta":132988343},{"NoteNumber":62,"Velocity":66,"Duration":72556,"SoundDuration":72556,"Delta":133061184},{"NoteNumber":65,"Velocity":66,"Duration":72215,"SoundDuration":72215,"Delta":133133740},{"NoteNumber":67,"Velocity":77,"Duration":72019,"SoundDuration":72019,"Delta":133205956},{"NoteNumber":53,"Velocity":62,"Duration":72498,"SoundDuration":72498,"Delta":133350219},{"NoteNumber":50,"Velocity":62,"Duration":72813,"SoundDuration":72813,"Delta":133422718},{"NoteNumber":43,"Velocity":76,"Duration":73159,"SoundDuration":73159,"Delta":133495532},{"NoteNumber":55,"Velocity":67,"Duration":72927,"SoundDuration":72927,"Delta":133568691},{"NoteNumber":60,"Velocity":67,"Duration":72670,"SoundDuration":72670,"Delta":133641618},{"NoteNumber":63,"Velocity":67,"Duration":72413,"SoundDuration":72413,"Delta":133714289},{"NoteNumber":67,"Velocity":77,"Duration":72216,"SoundDuration":72216,"Delta":133786702},{"NoteNumber":51,"Velocity":65,"Duration":72784,"SoundDuration":72784,"Delta":133931360},{"NoteNumber":48,"Velocity":65,"Duration":73129,"SoundDuration":73129,"Delta":134004144},{"NoteNumber":43,"Velocity":88,"Duration":73331,"SoundDuration":73331,"Delta":134077274},{"NoteNumber":67,"Velocity":72,"Duration":73072,"SoundDuration":73072,"Delta":134150606},{"NoteNumber":71,"Velocity":72,"Duration":72726,"SoundDuration":72726,"Delta":134223678},{"NoteNumber":74,"Velocity":72,"Duration":72385,"SoundDuration":72385,"Delta":134296405},{"NoteNumber":79,"Velocity":89,"Duration":72272,"SoundDuration":72272,"Delta":134368791},{"NoteNumber":62,"Velocity":70,"Duration":73100,"SoundDuration":73100,"Delta":134513790},{"NoteNumber":59,"Velocity":70,"Duration":73533,"SoundDuration":73533,"Delta":134586891},{"NoteNumber":55,"Velocity":86,"Duration":73621,"SoundDuration":73621,"Delta":134660425},{"NoteNumber":67,"Velocity":75,"Duration":73303,"SoundDuration":73303,"Delta":134734046},{"NoteNumber":72,"Velocity":75,"Duration":73014,"SoundDuration":73014,"Delta":134807349},{"NoteNumber":75,"Velocity":75,"Duration":72614,"SoundDuration":72614,"Delta":134880364},{"NoteNumber":79,"Velocity":88,"Duration":72272,"SoundDuration":72272,"Delta":134952978},{"NoteNumber":63,"Velocity":68,"Duration":73014,"SoundDuration":73014,"Delta":135097863},{"NoteNumber":60,"Velocity":68,"Duration":73418,"SoundDuration":73418,"Delta":135170877},{"NoteNumber":55,"Velocity":86,"Duration":73532,"SoundDuration":73532,"Delta":135244296},{"NoteNumber":67,"Velocity":75,"Duration":73274,"SoundDuration":73274,"Delta":135317829},{"NoteNumber":74,"Velocity":75,"Duration":72840,"SoundDuration":72840,"Delta":135391103},{"NoteNumber":77,"Velocity":75,"Duration":72413,"SoundDuration":72413,"Delta":135463944},{"NoteNumber":79,"Velocity":87,"Duration":72047,"SoundDuration":72047,"Delta":135536358},{"NoteNumber":65,"Velocity":70,"Duration":72784,"SoundDuration":72784,"Delta":135680819},{"NoteNumber":62,"Velocity":70,"Duration":73274,"SoundDuration":73274,"Delta":135753604},{"NoteNumber":55,"Velocity":86,"Duration":73446,"SoundDuration":73446,"Delta":135826878},{"NoteNumber":67,"Velocity":75,"Duration":73129,"SoundDuration":73129,"Delta":135900325},{"NoteNumber":72,"Velocity":75,"Duration":72784,"SoundDuration":72784,"Delta":135973454},{"NoteNumber":75,"Velocity":75,"Duration":72441,"SoundDuration":72441,"Delta":136046239},{"NoteNumber":79,"Velocity":86,"Duration":72556,"SoundDuration":72556,"Delta":136118681},{"NoteNumber":63,"Velocity":71,"Duration":73245,"SoundDuration":73245,"Delta":136264136},{"NoteNumber":60,"Velocity":71,"Duration":73621,"SoundDuration":73621,"Delta":136337382},{"NoteNumber":55,"Velocity":80,"Duration":73797,"SoundDuration":73797,"Delta":136411003},{"NoteNumber":67,"Velocity":66,"Duration":97871,"SoundDuration":97871,"Delta":136509341},{"NoteNumber":66,"Velocity":68,"Duration":97410,"SoundDuration":97410,"Delta":136607213},{"NoteNumber":67,"Velocity":70,"Duration":96950,"SoundDuration":96950,"Delta":136704623},{"NoteNumber":71,"Velocity":72,"Duration":96494,"SoundDuration":96494,"Delta":136801573},{"NoteNumber":74,"Velocity":75,"Duration":95907,"SoundDuration":95907,"Delta":136898068},{"NoteNumber":79,"Velocity":84,"Duration":95822,"SoundDuration":95822,"Delta":136993975},{"NoteNumber":74,"Velocity":72,"Duration":96297,"SoundDuration":96297,"Delta":137089798},{"NoteNumber":71,"Velocity":64,"Duration":96836,"SoundDuration":96836,"Delta":137186095},{"NoteNumber":67,"Velocity":70,"Duration":72927,"SoundDuration":72927,"Delta":137282932},{"NoteNumber":55,"Velocity":67,"Duration":97294,"SoundDuration":97294,"Delta":137282932},{"NoteNumber":50,"Velocity":67,"Duration":97871,"SoundDuration":97871,"Delta":137380226},{"NoteNumber":47,"Velocity":66,"Duration":98367,"SoundDuration":98367,"Delta":137478098},{"NoteNumber":43,"Velocity":80,"Duration":294638,"SoundDuration":294638,"Delta":137576465},{"NoteNumber":71,"Velocity":66,"Duration":98220,"SoundDuration":98220,"Delta":137675127},{"NoteNumber":70,"Velocity":68,"Duration":97756,"SoundDuration":97756,"Delta":137773347},{"NoteNumber":71,"Velocity":70,"Duration":97294,"SoundDuration":97294,"Delta":137871104},{"NoteNumber":74,"Velocity":72,"Duration":96836,"SoundDuration":96836,"Delta":137968398},{"NoteNumber":79,"Velocity":75,"Duration":96381,"SoundDuration":96381,"Delta":138065235},{"NoteNumber":83,"Velocity":84,"Duration":96100,"SoundDuration":96100,"Delta":138161617},{"NoteNumber":79,"Velocity":72,"Duration":96494,"SoundDuration":96494,"Delta":138257717},{"NoteNumber":74,"Velocity":64,"Duration":96950,"SoundDuration":96950,"Delta":138354212},{"NoteNumber":71,"Velocity":70,"Duration":73072,"SoundDuration":73072,"Delta":138451162},{"NoteNumber":55,"Velocity":67,"Duration":97497,"SoundDuration":97497,"Delta":138451162},{"NoteNumber":50,"Velocity":67,"Duration":97987,"SoundDuration":97987,"Delta":138548660},{"NoteNumber":47,"Velocity":66,"Duration":98455,"SoundDuration":98455,"Delta":138646647},{"NoteNumber":43,"Velocity":80,"Duration":293968,"SoundDuration":293968,"Delta":138745102},{"NoteNumber":74,"Velocity":66,"Duration":97987,"SoundDuration":97987,"Delta":138843557},{"NoteNumber":73,"Velocity":68,"Duration":97526,"SoundDuration":97526,"Delta":138941544},{"NoteNumber":74,"Velocity":70,"Duration":97064,"SoundDuration":97064,"Delta":139039070},{"NoteNumber":77,"Velocity":72,"Duration":96608,"SoundDuration":96608,"Delta":139136135},{"NoteNumber":83,"Velocity":75,"Duration":96156,"SoundDuration":96156,"Delta":139232743},{"NoteNumber":86,"Velocity":84,"Duration":96015,"SoundDuration":96015,"Delta":139328900},{"NoteNumber":83,"Velocity":72,"Duration":96381,"SoundDuration":96381,"Delta":139424916},{"NoteNumber":77,"Velocity":64,"Duration":96836,"SoundDuration":96836,"Delta":139521298},{"NoteNumber":74,"Velocity":70,"Duration":72927,"SoundDuration":72927,"Delta":139618134},{"NoteNumber":43,"Velocity":67,"Duration":97294,"SoundDuration":97294,"Delta":139618134},{"NoteNumber":38,"Velocity":67,"Duration":97756,"SoundDuration":97756,"Delta":139715428},{"NoteNumber":35,"Velocity":66,"Duration":98278,"SoundDuration":98278,"Delta":139813185},{"NoteNumber":31,"Velocity":80,"Duration":294139,"SoundDuration":294139,"Delta":139911464},{"NoteNumber":77,"Velocity":66,"Duration":98044,"SoundDuration":98044,"Delta":140009831},{"NoteNumber":76,"Velocity":68,"Duration":97728,"SoundDuration":97728,"Delta":140107876},{"NoteNumber":77,"Velocity":70,"Duration":97439,"SoundDuration":97439,"Delta":140205604},{"NoteNumber":83,"Velocity":72,"Duration":97121,"SoundDuration":97121,"Delta":140303043},{"NoteNumber":86,"Velocity":75,"Duration":96865,"SoundDuration":96865,"Delta":140400164},{"NoteNumber":89,"Velocity":84,"Duration":97583,"SoundDuration":97583,"Delta":140497030},{"NoteNumber":86,"Velocity":72,"Duration":98515,"SoundDuration":98515,"Delta":140594613},{"NoteNumber":83,"Velocity":64,"Duration":99469,"SoundDuration":99469,"Delta":140693128},{"NoteNumber":89,"Velocity":84,"Duration":100438,"SoundDuration":100438,"Delta":140792597},{"NoteNumber":86,"Velocity":72,"Duration":101429,"SoundDuration":101429,"Delta":140893036},{"NoteNumber":83,"Velocity":64,"Duration":102469,"SoundDuration":102469,"Delta":140994465},{"NoteNumber":89,"Velocity":100,"Duration":924889,"SoundDuration":924889,"Delta":141096934},{"NoteNumber":31,"Velocity":75,"Duration":2453656,"SoundDuration":2453656,"Delta":141096934},{"NoteNumber":43,"Velocity":80,"Duration":2453656,"SoundDuration":2453656,"Delta":141096934},{"NoteNumber":87,"Velocity":86,"Duration":106786,"SoundDuration":106786,"Delta":142021824},{"NoteNumber":86,"Velocity":85,"Duration":104516,"SoundDuration":104516,"Delta":142128611},{"NoteNumber":84,"Velocity":83,"Duration":102342,"SoundDuration":102342,"Delta":142233127},{"NoteNumber":83,"Velocity":82,"Duration":99714,"SoundDuration":99714,"Delta":142335469},{"NoteNumber":80,"Velocity":81,"Duration":97853,"SoundDuration":97853,"Delta":142435184},{"NoteNumber":79,"Velocity":79,"Duration":96093,"SoundDuration":96093,"Delta":142533038},{"NoteNumber":77,"Velocity":78,"Duration":94701,"SoundDuration":94701,"Delta":142629131},{"NoteNumber":75,"Velocity":77,"Duration":94191,"SoundDuration":94191,"Delta":142723833},{"NoteNumber":74,"Velocity":75,"Duration":93688,"SoundDuration":93688,"Delta":142818025},{"NoteNumber":72,"Velocity":74,"Duration":93466,"SoundDuration":93466,"Delta":142911713},{"NoteNumber":71,"Velocity":72,"Duration":93466,"SoundDuration":93466,"Delta":143005179},{"NoteNumber":68,"Velocity":71,"Duration":93466,"SoundDuration":93466,"Delta":143098646},{"NoteNumber":67,"Velocity":70,"Duration":57206,"SoundDuration":57206,"Delta":143192113},{"NoteNumber":65,"Velocity":68,"Duration":58296,"SoundDuration":58296,"Delta":143249319},{"NoteNumber":63,"Velocity":69,"Duration":62067,"SoundDuration":62067,"Delta":143307616},{"NoteNumber":62,"Velocity":70,"Duration":69998,"SoundDuration":69998,"Delta":143369683},{"NoteNumber":60,"Velocity":71,"Duration":110908,"SoundDuration":110908,"Delta":143439682},{"NoteNumber":59,"Velocity":93,"Duration":2470830,"SoundDuration":2470830,"Delta":143550591},{"NoteNumber":43,"Velocity":69,"Duration":2470830,"SoundDuration":2470830,"Delta":143550591},{"NoteNumber":53,"Velocity":82,"Duration":2470830,"SoundDuration":2470830,"Delta":143550591},{"NoteNumber":50,"Velocity":69,"Duration":2470830,"SoundDuration":2470830,"Delta":143550591},{"NoteNumber":67,"Velocity":48,"Duration":74151,"SoundDuration":74151,"Delta":146330285},{"NoteNumber":72,"Velocity":49,"Duration":74151,"SoundDuration":74151,"Delta":146478587},{"NoteNumber":74,"Velocity":51,"Duration":78905,"SoundDuration":78905,"Delta":146626889},{"NoteNumber":75,"Velocity":52,"Duration":439692,"SoundDuration":439692,"Delta":146784701},{"NoteNumber":48,"Velocity":40,"Duration":144934,"SoundDuration":144934,"Delta":146784701},{"NoteNumber":51,"Velocity":36,"Duration":146456,"SoundDuration":146456,"Delta":146929635},{"NoteNumber":55,"Velocity":36,"Duration":148302,"SoundDuration":148302,"Delta":147076091},{"NoteNumber":77,"Velocity":50,"Duration":154910,"SoundDuration":154910,"Delta":147224393},{"NoteNumber":60,"Velocity":36,"Duration":154910,"SoundDuration":154910,"Delta":147224393},{"NoteNumber":74,"Velocity":53,"Duration":437574,"SoundDuration":437574,"Delta":147379304},{"NoteNumber":48,"Velocity":40,"Duration":144662,"SoundDuration":144662,"Delta":147379304},{"NoteNumber":53,"Velocity":40,"Duration":146456,"SoundDuration":146456,"Delta":147523966},{"NoteNumber":55,"Velocity":36,"Duration":146456,"SoundDuration":146456,"Delta":147670422},{"NoteNumber":75,"Velocity":50,"Duration":154114,"SoundDuration":154114,"Delta":147816878},{"NoteNumber":59,"Velocity":36,"Duration":154114,"SoundDuration":154114,"Delta":147816878},{"NoteNumber":72,"Velocity":52,"Duration":546610,"SoundDuration":546610,"Delta":147970993},{"NoteNumber":48,"Velocity":40,"Duration":144934,"SoundDuration":144934,"Delta":147970993},{"NoteNumber":51,"Velocity":40,"Duration":144934,"SoundDuration":144934,"Delta":148115927},{"NoteNumber":55,"Velocity":36,"Duration":144934,"SoundDuration":144934,"Delta":148260862},{"NoteNumber":60,"Velocity":36,"Duration":148385,"SoundDuration":148385,"Delta":148405796},{"NoteNumber":74,"Velocity":48,"Duration":36578,"SoundDuration":36578,"Delta":148517603},{"NoteNumber":72,"Velocity":52,"Duration":144934,"SoundDuration":144934,"Delta":148554181},{"NoteNumber":63,"Velocity":40,"Duration":144934,"SoundDuration":144934,"Delta":148554181},{"NoteNumber":71,"Velocity":51,"Duration":144934,"SoundDuration":144934,"Delta":148699116},{"NoteNumber":67,"Velocity":36,"Duration":144934,"SoundDuration":144934,"Delta":148699116},{"NoteNumber":72,"Velocity":51,"Duration":144934,"SoundDuration":144934,"Delta":148844050},{"NoteNumber":63,"Velocity":36,"Duration":144934,"SoundDuration":144934,"Delta":148844050},{"NoteNumber":74,"Velocity":50,"Duration":108700,"SoundDuration":108700,"Delta":148988985},{"NoteNumber":62,"Velocity":36,"Duration":144934,"SoundDuration":144934,"Delta":148988985},{"NoteNumber":77,"Velocity":49,"Duration":36233,"SoundDuration":36233,"Delta":149097686},{"NoteNumber":75,"Velocity":56,"Duration":144934,"SoundDuration":144934,"Delta":149133919},{"NoteNumber":60,"Velocity":40,"Duration":144934,"SoundDuration":144934,"Delta":149133919},{"NoteNumber":74,"Velocity":52,"Duration":144934,"SoundDuration":144934,"Delta":149278854},{"NoteNumber":67,"Velocity":36,"Duration":144934,"SoundDuration":144934,"Delta":149278854},{"NoteNumber":75,"Velocity":52,"Duration":144934,"SoundDuration":144934,"Delta":149423788},{"NoteNumber":60,"Velocity":36,"Duration":144934,"SoundDuration":144934,"Delta":149423788},{"NoteNumber":63,"Velocity":36,"Duration":144934,"SoundDuration":144934,"Delta":149423788},{"NoteNumber":77,"Velocity":52,"Duration":157397,"SoundDuration":157397,"Delta":149568723},{"NoteNumber":67,"Velocity":36,"Duration":157397,"SoundDuration":157397,"Delta":149568723},{"NoteNumber":79,"Velocity":56,"Duration":155731,"SoundDuration":155731,"Delta":149726120},{"NoteNumber":59,"Velocity":41,"Duration":155731,"SoundDuration":155731,"Delta":149726120},{"NoteNumber":62,"Velocity":41,"Duration":155731,"SoundDuration":155731,"Delta":149726120},{"NoteNumber":67,"Velocity":36,"Duration":155731,"SoundDuration":155731,"Delta":149881851},{"NoteNumber":79,"Velocity":55,"Duration":155731,"SoundDuration":155731,"Delta":150037582},{"NoteNumber":60,"Velocity":36,"Duration":155731,"SoundDuration":155731,"Delta":150037582},{"NoteNumber":56,"Velocity":36,"Duration":155731,"SoundDuration":155731,"Delta":150037582},{"NoteNumber":67,"Velocity":36,"Duration":155731,"SoundDuration":155731,"Delta":150193313},{"NoteNumber":79,"Velocity":57,"Duration":912792,"SoundDuration":912792,"Delta":150349044},{"NoteNumber":55,"Velocity":40,"Duration":155730,"SoundDuration":155730,"Delta":150349044},{"NoteNumber":59,"Velocity":29,"Duration":155731,"SoundDuration":155731,"Delta":150504775},{"NoteNumber":62,"Velocity":28,"Duration":155731,"SoundDuration":155731,"Delta":150660506},{"NoteNumber":67,"Velocity":28,"Duration":155731,"SoundDuration":155731,"Delta":150816237},{"NoteNumber":55,"Velocity":40,"Duration":144934,"SoundDuration":144934,"Delta":150971968},{"NoteNumber":59,"Velocity":31,"Duration":144934,"SoundDuration":144934,"Delta":151116903},{"NoteNumber":77,"Velocity":51,"Duration":144934,"SoundDuration":144934,"Delta":151261837},{"NoteNumber":62,"Velocity":31,"Duration":144934,"SoundDuration":144934,"Delta":151261837},{"NoteNumber":79,"Velocity":53,"Duration":80274,"SoundDuration":80274,"Delta":151406772},{"NoteNumber":67,"Velocity":31,"Duration":154388,"SoundDuration":154388,"Delta":151406772},{"NoteNumber":77,"Velocity":48,"Duration":37057,"SoundDuration":37057,"Delta":151487046},{"NoteNumber":79,"Velocity":48,"Duration":37057,"SoundDuration":37057,"Delta":151524103},{"NoteNumber":80,"Velocity":56,"Duration":585398,"SoundDuration":585398,"Delta":151561160},{"NoteNumber":53,"Velocity":40,"Duration":144934,"SoundDuration":144934,"Delta":151561160},{"NoteNumber":56,"Velocity":36,"Duration":146821,"SoundDuration":146821,"Delta":151706095},{"NoteNumber":59,"Velocity":37,"Duration":146821,"SoundDuration":146821,"Delta":151852916},{"NoteNumber":62,"Velocity":37,"Duration":146821,"SoundDuration":146821,"Delta":151999738},{"NoteNumber":74,"Velocity":52,"Duration":288627,"SoundDuration":288627,"Delta":152146559},{"NoteNumber":53,"Velocity":40,"Duration":144314,"SoundDuration":144314,"Delta":152146559},{"NoteNumber":56,"Velocity":36,"Duration":144313,"SoundDuration":144313,"Delta":152290873},{"NoteNumber":75,"Velocity":51,"Duration":144314,"SoundDuration":144314,"Delta":152435187},{"NoteNumber":59,"Velocity":36,"Duration":144314,"SoundDuration":144314,"Delta":152435187},{"NoteNumber":77,"Velocity":53,"Duration":79537,"SoundDuration":79537,"Delta":152579501},{"NoteNumber":62,"Velocity":36,"Duration":153651,"SoundDuration":153651,"Delta":152579501},{"NoteNumber":75,"Velocity":50,"Duration":37057,"SoundDuration":37057,"Delta":152659039},{"NoteNumber":77,"Velocity":50,"Duration":37057,"SoundDuration":37057,"Delta":152696096},{"NoteNumber":79,"Velocity":56,"Duration":585398,"SoundDuration":585398,"Delta":152733153},{"NoteNumber":51,"Velocity":40,"Duration":144934,"SoundDuration":144934,"Delta":152733153},{"NoteNumber":55,"Velocity":34,"Duration":146821,"SoundDuration":146821,"Delta":152878087},{"NoteNumber":60,"Velocity":34,"Duration":146821,"SoundDuration":146821,"Delta":153024909},{"NoteNumber":63,"Velocity":33,"Duration":146821,"SoundDuration":146821,"Delta":153171730},{"NoteNumber":72,"Velocity":52,"Duration":283296,"SoundDuration":283296,"Delta":153318552},{"NoteNumber":56,"Velocity":41,"Duration":144662,"SoundDuration":144662,"Delta":153318552},{"NoteNumber":60,"Velocity":35,"Duration":144661,"SoundDuration":144661,"Delta":153463214},{"NoteNumber":72,"Velocity":53,"Duration":144662,"SoundDuration":144662,"Delta":153607876},{"NoteNumber":63,"Velocity":35,"Duration":144662,"SoundDuration":144662,"Delta":153607876},{"NoteNumber":74,"Velocity":54,"Duration":149075,"SoundDuration":149075,"Delta":153752538},{"NoteNumber":66,"Velocity":35,"Duration":149075,"SoundDuration":149075,"Delta":153752538},{"NoteNumber":75,"Velocity":57,"Duration":144934,"SoundDuration":144934,"Delta":153901613},{"NoteNumber":55,"Velocity":40,"Duration":144934,"SoundDuration":144934,"Delta":153901613},{"NoteNumber":60,"Velocity":40,"Duration":146456,"SoundDuration":146456,"Delta":154046548},{"NoteNumber":75,"Velocity":53,"Duration":146456,"SoundDuration":146456,"Delta":154193004},{"NoteNumber":63,"Velocity":35,"Duration":146456,"SoundDuration":146456,"Delta":154193004},{"NoteNumber":77,"Velocity":55,"Duration":146456,"SoundDuration":146456,"Delta":154339460},{"NoteNumber":67,"Velocity":35,"Duration":146456,"SoundDuration":146456,"Delta":154339460},{"NoteNumber":74,"Velocity":57,"Duration":144662,"SoundDuration":144662,"Delta":154485916},{"NoteNumber":55,"Velocity":40,"Duration":144662,"SoundDuration":144662,"Delta":154485916},{"NoteNumber":59,"Velocity":36,"Duration":146098,"SoundDuration":146098,"Delta":154630578},{"NoteNumber":74,"Velocity":51,"Duration":146099,"SoundDuration":146099,"Delta":154776677},{"NoteNumber":62,"Velocity":36,"Duration":146099,"SoundDuration":146099,"Delta":154776677},{"NoteNumber":75,"Velocity":54,"Duration":149932,"SoundDuration":149932,"Delta":154922776},{"NoteNumber":67,"Velocity":36,"Duration":149932,"SoundDuration":149932,"Delta":154922776},{"NoteNumber":72,"Velocity":57,"Duration":301959,"SoundDuration":301959,"Delta":155072708},{"NoteNumber":36,"Velocity":38,"Duration":148647,"SoundDuration":148647,"Delta":155226020},{"NoteNumber":39,"Velocity":42,"Duration":153452,"SoundDuration":153452,"Delta":155374667},{"NoteNumber":43,"Velocity":45,"Duration":153452,"SoundDuration":153452,"Delta":155528120},{"NoteNumber":48,"Velocity":45,"Duration":153452,"SoundDuration":153452,"Delta":155681572},{"NoteNumber":51,"Velocity":45,"Duration":153452,"SoundDuration":153452,"Delta":155835025},{"NoteNumber":53,"Velocity":50,"Duration":153452,"SoundDuration":153452,"Delta":155988477},{"NoteNumber":55,"Velocity":52,"Duration":160548,"SoundDuration":160548,"Delta":156141930},{"NoteNumber":56,"Velocity":54,"Duration":585398,"SoundDuration":585398,"Delta":156302478},{"NoteNumber":59,"Velocity":47,"Duration":146821,"SoundDuration":146821,"Delta":156447412},{"NoteNumber":62,"Velocity":49,"Duration":146821,"SoundDuration":146821,"Delta":156594234},{"NoteNumber":65,"Velocity":51,"Duration":146821,"SoundDuration":146821,"Delta":156741055},{"NoteNumber":50,"Velocity":51,"Duration":288627,"SoundDuration":288627,"Delta":156887877},{"NoteNumber":77,"Velocity":51,"Duration":144313,"SoundDuration":144313,"Delta":157032191},{"NoteNumber":74,"Velocity":50,"Duration":150655,"SoundDuration":150655,"Delta":157176505},{"NoteNumber":51,"Velocity":50,"Duration":150655,"SoundDuration":150655,"Delta":157176505},{"NoteNumber":71,"Velocity":48,"Duration":159075,"SoundDuration":159075,"Delta":157327160},{"NoteNumber":53,"Velocity":52,"Duration":159075,"SoundDuration":159075,"Delta":157327160},{"NoteNumber":55,"Velocity":54,"Duration":585398,"SoundDuration":585398,"Delta":157486235},{"NoteNumber":60,"Velocity":44,"Duration":146821,"SoundDuration":146821,"Delta":157631170},{"NoteNumber":63,"Velocity":46,"Duration":146821,"SoundDuration":146821,"Delta":157777991},{"NoteNumber":67,"Velocity":49,"Duration":146821,"SoundDuration":146821,"Delta":157924813},{"NoteNumber":48,"Velocity":51,"Duration":289323,"SoundDuration":289323,"Delta":158071634},{"NoteNumber":79,"Velocity":48,"Duration":144661,"SoundDuration":144661,"Delta":158216296},{"NoteNumber":75,"Velocity":47,"Duration":144662,"SoundDuration":144662,"Delta":158360958},{"NoteNumber":58,"Velocity":50,"Duration":144662,"SoundDuration":144662,"Delta":158360958},{"NoteNumber":72,"Velocity":45,"Duration":144661,"SoundDuration":144661,"Delta":158505620},{"NoteNumber":60,"Velocity":52,"Duration":144661,"SoundDuration":144661,"Delta":158505620},{"NoteNumber":61,"Velocity":54,"Duration":585398,"SoundDuration":585398,"Delta":158650282},{"NoteNumber":64,"Velocity":47,"Duration":146821,"SoundDuration":146821,"Delta":158795217},{"NoteNumber":67,"Velocity":49,"Duration":146821,"SoundDuration":146821,"Delta":158942038},{"NoteNumber":70,"Velocity":51,"Duration":146821,"SoundDuration":146821,"Delta":159088860},{"NoteNumber":55,"Velocity":51,"Duration":288627,"SoundDuration":288627,"Delta":159235681},{"NoteNumber":82,"Velocity":51,"Duration":144313,"SoundDuration":144313,"Delta":159379995},{"NoteNumber":79,"Velocity":50,"Duration":150655,"SoundDuration":150655,"Delta":159524309},{"NoteNumber":56,"Velocity":50,"Duration":150655,"SoundDuration":150655,"Delta":159524309},{"NoteNumber":76,"Velocity":48,"Duration":159075,"SoundDuration":159075,"Delta":159674965},{"NoteNumber":58,"Velocity":52,"Duration":159075,"SoundDuration":159075,"Delta":159674965},{"NoteNumber":60,"Velocity":54,"Duration":585398,"SoundDuration":585398,"Delta":159834040},{"NoteNumber":65,"Velocity":48,"Duration":146821,"SoundDuration":146821,"Delta":159978974},{"NoteNumber":68,"Velocity":50,"Duration":146821,"SoundDuration":146821,"Delta":160125796},{"NoteNumber":72,"Velocity":53,"Duration":146821,"SoundDuration":146821,"Delta":160272617},{"NoteNumber":77,"Velocity":55,"Duration":144662,"SoundDuration":144662,"Delta":160419439},{"NoteNumber":53,"Velocity":51,"Duration":289323,"SoundDuration":289323,"Delta":160419439},{"NoteNumber":80,"Velocity":58,"Duration":144661,"SoundDuration":144661,"Delta":160564101},{"NoteNumber":84,"Velocity":60,"Duration":153183,"SoundDuration":153183,"Delta":160708763},{"NoteNumber":89,"Velocity":69,"Duration":465686,"SoundDuration":465686,"Delta":160861946},{"NoteNumber":60,"Velocity":54,"Duration":296971,"SoundDuration":296971,"Delta":161030662},{"NoteNumber":56,"Velocity":54,"Duration":593941,"SoundDuration":593941,"Delta":161030662},{"NoteNumber":87,"Velocity":63,"Duration":296970,"SoundDuration":296970,"Delta":161327633},{"NoteNumber":65,"Velocity":54,"Duration":296970,"SoundDuration":296970,"Delta":161327633},{"NoteNumber":86,"Velocity":61,"Duration":296971,"SoundDuration":296971,"Delta":161624604},{"NoteNumber":60,"Velocity":54,"Duration":296971,"SoundDuration":296971,"Delta":161624604},{"NoteNumber":56,"Velocity":54,"Duration":593941,"SoundDuration":593941,"Delta":161624604},{"NoteNumber":84,"Velocity":60,"Duration":296970,"SoundDuration":296970,"Delta":161921575},{"NoteNumber":66,"Velocity":54,"Duration":296970,"SoundDuration":296970,"Delta":161921575},{"NoteNumber":83,"Velocity":60,"Duration":158235,"SoundDuration":158235,"Delta":162218546},{"NoteNumber":55,"Velocity":46,"Duration":316472,"SoundDuration":316472,"Delta":162218546},{"NoteNumber":79,"Velocity":60,"Duration":596214,"SoundDuration":596214,"Delta":162535018},{"NoteNumber":67,"Velocity":31,"Duration":298106,"SoundDuration":298106,"Delta":162535018},{"NoteNumber":65,"Velocity":42,"Duration":298107,"SoundDuration":298107,"Delta":162833125},{"NoteNumber":79,"Velocity":56,"Duration":447531,"SoundDuration":447531,"Delta":163131232},{"NoteNumber":67,"Velocity":30,"Duration":298106,"SoundDuration":298106,"Delta":163131232},{"NoteNumber":64,"Velocity":42,"Duration":298661,"SoundDuration":298661,"Delta":163429339},{"NoteNumber":81,"Velocity":54,"Duration":149237,"SoundDuration":149237,"Delta":163578763},{"NoteNumber":83,"Velocity":55,"Duration":148177,"SoundDuration":148177,"Delta":163728001},{"NoteNumber":67,"Velocity":33,"Duration":295921,"SoundDuration":295921,"Delta":163728001},{"NoteNumber":84,"Velocity":57,"Duration":147743,"SoundDuration":147743,"Delta":163876178},{"NoteNumber":86,"Velocity":58,"Duration":147311,"SoundDuration":147311,"Delta":164023922},{"NoteNumber":59,"Velocity":41,"Duration":294500,"SoundDuration":294500,"Delta":164023922},{"NoteNumber":88,"Velocity":60,"Duration":147188,"SoundDuration":147188,"Delta":164171234},{"NoteNumber":89,"Velocity":61,"Duration":147188,"SoundDuration":147188,"Delta":164318422},{"NoteNumber":67,"Velocity":33,"Duration":300101,"SoundDuration":300101,"Delta":164318422},{"NoteNumber":86,"Velocity":58,"Duration":152913,"SoundDuration":152913,"Delta":164465611},{"NoteNumber":89,"Velocity":61,"Duration":148302,"SoundDuration":148302,"Delta":164618524},{"NoteNumber":60,"Velocity":40,"Duration":296604,"SoundDuration":296604,"Delta":164618524},{"NoteNumber":88,"Velocity":60,"Duration":148302,"SoundDuration":148302,"Delta":164766826},{"NoteNumber":86,"Velocity":59,"Duration":148302,"SoundDuration":148302,"Delta":164915128},{"NoteNumber":67,"Velocity":35,"Duration":302006,"SoundDuration":302006,"Delta":164915128},{"NoteNumber":84,"Velocity":58,"Duration":140895,"SoundDuration":140895,"Delta":165063430},{"NoteNumber":84,"Velocity":60,"Duration":150564,"SoundDuration":150564,"Delta":165217134},{"NoteNumber":74,"Velocity":40,"Duration":602258,"SoundDuration":602258,"Delta":165217134},{"NoteNumber":65,"Velocity":40,"Duration":301129,"SoundDuration":301129,"Delta":165217134},{"NoteNumber":83,"Velocity":58,"Duration":150564,"SoundDuration":150564,"Delta":165367699},{"NoteNumber":81,"Velocity":58,"Duration":150564,"SoundDuration":150564,"Delta":165518263},{"NoteNumber":67,"Velocity":36,"Duration":301129,"SoundDuration":301129,"Delta":165518263},{"NoteNumber":83,"Velocity":58,"Duration":150564,"SoundDuration":150564,"Delta":165668828},{"NoteNumber":86,"Velocity":63,"Duration":149053,"SoundDuration":149053,"Delta":165819392},{"NoteNumber":72,"Velocity":40,"Duration":596214,"SoundDuration":596214,"Delta":165819392},{"NoteNumber":64,"Velocity":40,"Duration":298106,"SoundDuration":298106,"Delta":165819392},{"NoteNumber":84,"Velocity":57,"Duration":149053,"SoundDuration":149053,"Delta":165968446},{"NoteNumber":83,"Velocity":57,"Duration":149053,"SoundDuration":149053,"Delta":166117499},{"NoteNumber":67,"Velocity":36,"Duration":298107,"SoundDuration":298107,"Delta":166117499},{"NoteNumber":81,"Velocity":57,"Duration":149053,"SoundDuration":149053,"Delta":166266553},{"NoteNumber":77,"Velocity":48,"Duration":268296,"SoundDuration":268296,"Delta":166415606},{"NoteNumber":79,"Velocity":60,"Duration":268296,"SoundDuration":268296,"Delta":166415606},{"NoteNumber":59,"Velocity":40,"Duration":298106,"SoundDuration":298106,"Delta":166415606},{"NoteNumber":77,"Velocity":48,"Duration":268296,"SoundDuration":268296,"Delta":166713713},{"NoteNumber":79,"Velocity":60,"Duration":268296,"SoundDuration":268296,"Delta":166713713},{"NoteNumber":67,"Velocity":34,"Duration":298107,"SoundDuration":298107,"Delta":166713713},{"NoteNumber":77,"Velocity":60,"Duration":148055,"SoundDuration":148055,"Delta":167011820},{"NoteNumber":79,"Velocity":60,"Duration":1339436,"SoundDuration":1339436,"Delta":167011820},{"NoteNumber":60,"Velocity":41,"Duration":296357,"SoundDuration":296357,"Delta":167011820},{"NoteNumber":76,"Velocity":53,"Duration":148302,"SoundDuration":148302,"Delta":167159875},{"NoteNumber":74,"Velocity":53,"Duration":148302,"SoundDuration":148302,"Delta":167308177},{"NoteNumber":67,"Velocity":34,"Duration":296604,"SoundDuration":296604,"Delta":167308177},{"NoteNumber":72,"Velocity":53,"Duration":135943,"SoundDuration":135943,"Delta":167456479},{"NoteNumber":72,"Velocity":57,"Duration":148302,"SoundDuration":148302,"Delta":167604781},{"NoteNumber":65,"Velocity":40,"Duration":296604,"SoundDuration":296604,"Delta":167604781},{"NoteNumber":71,"Velocity":52,"Duration":148302,"SoundDuration":148302,"Delta":167753083},{"NoteNumber":69,"Velocity":52,"Duration":148302,"SoundDuration":148302,"Delta":167901385},{"NoteNumber":67,"Velocity":34,"Duration":300446,"SoundDuration":300446,"Delta":167901385},{"NoteNumber":71,"Velocity":52,"Duration":152144,"SoundDuration":152144,"Delta":168049687},{"NoteNumber":72,"Velocity":52,"Duration":298661,"SoundDuration":298661,"Delta":168201832},{"NoteNumber":64,"Velocity":42,"Duration":298661,"SoundDuration":298661,"Delta":168201832},{"NoteNumber":81,"Velocity":54,"Duration":149237,"SoundDuration":149237,"Delta":168351257},{"NoteNumber":83,"Velocity":55,"Duration":148177,"SoundDuration":148177,"Delta":168500494},{"NoteNumber":67,"Velocity":33,"Duration":295921,"SoundDuration":295921,"Delta":168500494},{"NoteNumber":84,"Velocity":57,"Duration":147743,"SoundDuration":147743,"Delta":168648672},{"NoteNumber":86,"Velocity":58,"Duration":147311,"SoundDuration":147311,"Delta":168796415},{"NoteNumber":59,"Velocity":41,"Duration":294500,"SoundDuration":294500,"Delta":168796415},{"NoteNumber":88,"Velocity":60,"Duration":147188,"SoundDuration":147188,"Delta":168943727},{"NoteNumber":89,"Velocity":61,"Duration":147188,"SoundDuration":147188,"Delta":169090916},{"NoteNumber":67,"Velocity":33,"Duration":300101,"SoundDuration":300101,"Delta":169090916},{"NoteNumber":86,"Velocity":58,"Duration":152913,"SoundDuration":152913,"Delta":169238104},{"NoteNumber":89,"Velocity":61,"Duration":148302,"SoundDuration":148302,"Delta":169391017},{"NoteNumber":60,"Velocity":40,"Duration":296604,"SoundDuration":296604,"Delta":169391017},{"NoteNumber":88,"Velocity":60,"Duration":148302,"SoundDuration":148302,"Delta":169539319},{"NoteNumber":86,"Velocity":59,"Duration":148302,"SoundDuration":148302,"Delta":169687621},{"NoteNumber":67,"Velocity":35,"Duration":302006,"SoundDuration":302006,"Delta":169687621},{"NoteNumber":84,"Velocity":58,"Duration":153704,"SoundDuration":153704,"Delta":169835923},{"NoteNumber":83,"Velocity":60,"Duration":150564,"SoundDuration":150564,"Delta":169989628},{"NoteNumber":64,"Velocity":40,"Duration":602258,"SoundDuration":602258,"Delta":169989628},{"NoteNumber":72,"Velocity":40,"Duration":301129,"SoundDuration":301129,"Delta":169989628},{"NoteNumber":84,"Velocity":58,"Duration":150564,"SoundDuration":150564,"Delta":170140192},{"NoteNumber":88,"Velocity":59,"Duration":150564,"SoundDuration":150564,"Delta":170290757},{"NoteNumber":67,"Velocity":36,"Duration":301129,"SoundDuration":301129,"Delta":170290757},{"NoteNumber":84,"Velocity":59,"Duration":150564,"SoundDuration":150564,"Delta":170441321},{"NoteNumber":83,"Velocity":66,"Duration":146721,"SoundDuration":146721,"Delta":170591886},{"NoteNumber":65,"Velocity":38,"Duration":585247,"SoundDuration":585247,"Delta":170591886},{"NoteNumber":72,"Velocity":42,"Duration":293441,"SoundDuration":293441,"Delta":170591886},{"NoteNumber":81,"Velocity":57,"Duration":146720,"SoundDuration":146720,"Delta":170738607},{"NoteNumber":84,"Velocity":58,"Duration":146721,"SoundDuration":146721,"Delta":170885328},{"NoteNumber":69,"Velocity":38,"Duration":298114,"SoundDuration":298114,"Delta":170885328},{"NoteNumber":81,"Velocity":59,"Duration":151393,"SoundDuration":151393,"Delta":171032049},{"NoteNumber":79,"Velocity":69,"Duration":145680,"SoundDuration":145680,"Delta":171183442},{"NoteNumber":65,"Velocity":37,"Duration":588434,"SoundDuration":588434,"Delta":171183442},{"NoteNumber":73,"Velocity":44,"Duration":291360,"SoundDuration":291360,"Delta":171183442},{"NoteNumber":77,"Velocity":63,"Duration":145680,"SoundDuration":145680,"Delta":171329122},{"NoteNumber":81,"Velocity":63,"Duration":145680,"SoundDuration":145680,"Delta":171474803},{"NoteNumber":69,"Velocity":38,"Duration":297073,"SoundDuration":297073,"Delta":171474803},{"NoteNumber":77,"Velocity":64,"Duration":151393,"SoundDuration":151393,"Delta":171620483},{"NoteNumber":76,"Velocity":72,"Duration":145341,"SoundDuration":145341,"Delta":171771876},{"NoteNumber":65,"Velocity":46,"Duration":290683,"SoundDuration":290683,"Delta":171771876},{"NoteNumber":74,"Velocity":46,"Duration":290683,"SoundDuration":290683,"Delta":171771876},{"NoteNumber":74,"Velocity":62,"Duration":145341,"SoundDuration":145341,"Delta":171917218},{"NoteNumber":77,"Velocity":64,"Duration":145341,"SoundDuration":145341,"Delta":172062560},{"NoteNumber":69,"Velocity":42,"Duration":301722,"SoundDuration":301722,"Delta":172062560},{"NoteNumber":74,"Velocity":64,"Duration":156380,"SoundDuration":156380,"Delta":172207902},{"NoteNumber":81,"Velocity":75,"Duration":147420,"SoundDuration":147420,"Delta":172364283},{"NoteNumber":65,"Velocity":48,"Duration":294839,"SoundDuration":294839,"Delta":172364283},{"NoteNumber":77,"Velocity":67,"Duration":147419,"SoundDuration":147419,"Delta":172511703},{"NoteNumber":74,"Velocity":67,"Duration":147420,"SoundDuration":147420,"Delta":172659123},{"NoteNumber":66,"Velocity":41,"Duration":305398,"SoundDuration":305398,"Delta":172659123},{"NoteNumber":72,"Velocity":67,"Duration":157978,"SoundDuration":157978,"Delta":172806543},{"NoteNumber":71,"Velocity":59,"Duration":103821,"SoundDuration":103821,"Delta":172964521},{"NoteNumber":67,"Velocity":55,"Duration":91705,"SoundDuration":91705,"Delta":172964521},{"NoteNumber":67,"Velocity":55,"Duration":102905,"SoundDuration":102905,"Delta":173062284},{"NoteNumber":69,"Velocity":55,"Duration":102590,"SoundDuration":102590,"Delta":173159147},{"NoteNumber":71,"Velocity":59,"Duration":102338,"SoundDuration":102338,"Delta":173255710},{"NoteNumber":69,"Velocity":55,"Duration":102027,"SoundDuration":102027,"Delta":173352035},{"NoteNumber":67,"Velocity":55,"Duration":101766,"SoundDuration":101766,"Delta":173448064},{"NoteNumber":72,"Velocity":59,"Duration":574672,"SoundDuration":574672,"Delta":173543861},{"NoteNumber":62,"Velocity":45,"Duration":101359,"SoundDuration":101359,"Delta":173639252},{"NoteNumber":64,"Velocity":48,"Duration":101606,"SoundDuration":101606,"Delta":173734642},{"NoteNumber":66,"Velocity":50,"Duration":101852,"SoundDuration":101852,"Delta":173830265},{"NoteNumber":64,"Velocity":48,"Duration":102102,"SoundDuration":102102,"Delta":173926120},{"NoteNumber":62,"Velocity":45,"Duration":102368,"SoundDuration":102368,"Delta":174022209},{"NoteNumber":71,"Velocity":59,"Duration":102726,"SoundDuration":102726,"Delta":174118534},{"NoteNumber":67,"Velocity":55,"Duration":90640,"SoundDuration":90640,"Delta":174118534},{"NoteNumber":67,"Velocity":55,"Duration":102529,"SoundDuration":102529,"Delta":174215218},{"NoteNumber":69,"Velocity":55,"Duration":102338,"SoundDuration":102338,"Delta":174311720},{"NoteNumber":71,"Velocity":59,"Duration":102147,"SoundDuration":102147,"Delta":174408045},{"NoteNumber":69,"Velocity":55,"Duration":101953,"SoundDuration":101953,"Delta":174504195},{"NoteNumber":67,"Velocity":55,"Duration":101708,"SoundDuration":101708,"Delta":174600164},{"NoteNumber":72,"Velocity":59,"Duration":576489,"SoundDuration":576489,"Delta":174695904},{"NoteNumber":62,"Velocity":43,"Duration":101737,"SoundDuration":101737,"Delta":174791410},{"NoteNumber":64,"Velocity":47,"Duration":101982,"SoundDuration":101982,"Delta":174887150},{"NoteNumber":66,"Velocity":50,"Duration":102236,"SoundDuration":102236,"Delta":174983119},{"NoteNumber":64,"Velocity":48,"Duration":102484,"SoundDuration":102484,"Delta":175079328},{"NoteNumber":62,"Velocity":45,"Duration":102650,"SoundDuration":102650,"Delta":175175770},{"NoteNumber":71,"Velocity":59,"Duration":96441,"SoundDuration":96441,"Delta":175272393},{"NoteNumber":67,"Velocity":55,"Duration":90413,"SoundDuration":90413,"Delta":175272393},{"NoteNumber":67,"Velocity":59,"Duration":96267,"SoundDuration":96267,"Delta":175368834},{"NoteNumber":69,"Velocity":59,"Duration":96149,"SoundDuration":96149,"Delta":175465101},{"NoteNumber":71,"Velocity":64,"Duration":95969,"SoundDuration":95969,"Delta":175561251},{"NoteNumber":69,"Velocity":57,"Duration":95797,"SoundDuration":95797,"Delta":175657220},{"NoteNumber":67,"Velocity":58,"Duration":95681,"SoundDuration":95681,"Delta":175753017},{"NoteNumber":74,"Velocity":67,"Duration":95506,"SoundDuration":95506,"Delta":175848698},{"NoteNumber":67,"Velocity":55,"Duration":286518,"SoundDuration":286518,"Delta":175848698},{"NoteNumber":71,"Velocity":59,"Duration":95506,"SoundDuration":95506,"Delta":175944205},{"NoteNumber":72,"Velocity":59,"Duration":95506,"SoundDuration":95506,"Delta":176039711},{"NoteNumber":74,"Velocity":62,"Duration":95506,"SoundDuration":95506,"Delta":176135217},{"NoteNumber":72,"Velocity":65,"Duration":95506,"SoundDuration":95506,"Delta":176230724},{"NoteNumber":71,"Velocity":67,"Duration":101414,"SoundDuration":101414,"Delta":176326230},{"NoteNumber":77,"Velocity":69,"Duration":101475,"SoundDuration":101475,"Delta":176427645},{"NoteNumber":62,"Velocity":46,"Duration":286518,"SoundDuration":286518,"Delta":176427645},{"NoteNumber":55,"Velocity":46,"Duration":286518,"SoundDuration":286518,"Delta":176427645},{"NoteNumber":59,"Velocity":46,"Duration":286518,"SoundDuration":286518,"Delta":176427645},{"NoteNumber":65,"Velocity":55,"Duration":286518,"SoundDuration":286518,"Delta":176427645},{"NoteNumber":76,"Velocity":68,"Duration":101475,"SoundDuration":101475,"Delta":176523151},{"NoteNumber":74,"Velocity":67,"Duration":101475,"SoundDuration":101475,"Delta":176618657},{"NoteNumber":72,"Velocity":66,"Duration":101475,"SoundDuration":101475,"Delta":176714164},{"NoteNumber":71,"Velocity":65,"Duration":101475,"SoundDuration":101475,"Delta":176809670},{"NoteNumber":69,"Velocity":63,"Duration":101475,"SoundDuration":101475,"Delta":176905176},{"NoteNumber":67,"Velocity":59,"Duration":101475,"SoundDuration":101475,"Delta":177000683},{"NoteNumber":69,"Velocity":55,"Duration":101606,"SoundDuration":101606,"Delta":177096189},{"NoteNumber":67,"Velocity":55,"Duration":101795,"SoundDuration":101795,"Delta":177191812},{"NoteNumber":65,"Velocity":59,"Duration":101967,"SoundDuration":101967,"Delta":177287609},{"NoteNumber":64,"Velocity":56,"Duration":102162,"SoundDuration":102162,"Delta":177383578},{"NoteNumber":62,"Velocity":56,"Duration":102573,"SoundDuration":102573,"Delta":177479728},{"NoteNumber":64,"Velocity":59,"Duration":103821,"SoundDuration":103821,"Delta":177576173},{"NoteNumber":48,"Velocity":55,"Duration":291189,"SoundDuration":291189,"Delta":177576173},{"NoteNumber":60,"Velocity":55,"Duration":102905,"SoundDuration":102905,"Delta":177673937},{"NoteNumber":62,"Velocity":55,"Duration":102590,"SoundDuration":102590,"Delta":177770800},{"NoteNumber":64,"Velocity":59,"Duration":102338,"SoundDuration":102338,"Delta":177867363},{"NoteNumber":62,"Velocity":55,"Duration":102027,"SoundDuration":102027,"Delta":177963688},{"NoteNumber":60,"Velocity":55,"Duration":101766,"SoundDuration":101766,"Delta":178059717},{"NoteNumber":65,"Velocity":59,"Duration":574672,"SoundDuration":574672,"Delta":178155514},{"NoteNumber":55,"Velocity":45,"Duration":101359,"SoundDuration":101359,"Delta":178250905},{"NoteNumber":57,"Velocity":48,"Duration":101606,"SoundDuration":101606,"Delta":178346295},{"NoteNumber":59,"Velocity":50,"Duration":101852,"SoundDuration":101852,"Delta":178441918},{"NoteNumber":57,"Velocity":48,"Duration":102102,"SoundDuration":102102,"Delta":178537772},{"NoteNumber":55,"Velocity":45,"Duration":102368,"SoundDuration":102368,"Delta":178633862},{"NoteNumber":64,"Velocity":59,"Duration":102726,"SoundDuration":102726,"Delta":178730187},{"NoteNumber":60,"Velocity":55,"Duration":289510,"SoundDuration":289510,"Delta":178730187},{"NoteNumber":72,"Velocity":55,"Duration":102529,"SoundDuration":102529,"Delta":178826871},{"NoteNumber":74,"Velocity":55,"Duration":102338,"SoundDuration":102338,"Delta":178923373},{"NoteNumber":76,"Velocity":59,"Duration":102147,"SoundDuration":102147,"Delta":179019698},{"NoteNumber":74,"Velocity":55,"Duration":101953,"SoundDuration":101953,"Delta":179115847},{"NoteNumber":72,"Velocity":55,"Duration":101708,"SoundDuration":101708,"Delta":179211817},{"NoteNumber":77,"Velocity":59,"Duration":576489,"SoundDuration":576489,"Delta":179307556},{"NoteNumber":55,"Velocity":43,"Duration":101737,"SoundDuration":101737,"Delta":179403063},{"NoteNumber":57,"Velocity":47,"Duration":101982,"SoundDuration":101982,"Delta":179498802},{"NoteNumber":59,"Velocity":50,"Duration":102236,"SoundDuration":102236,"Delta":179594772},{"NoteNumber":57,"Velocity":48,"Duration":102484,"SoundDuration":102484,"Delta":179690981},{"NoteNumber":55,"Velocity":45,"Duration":102650,"SoundDuration":102650,"Delta":179787422},{"NoteNumber":76,"Velocity":59,"Duration":96441,"SoundDuration":96441,"Delta":179884045},{"NoteNumber":60,"Velocity":55,"Duration":288858,"SoundDuration":288858,"Delta":179884045},{"NoteNumber":72,"Velocity":59,"Duration":96267,"SoundDuration":96267,"Delta":179980487},{"NoteNumber":74,"Velocity":59,"Duration":96149,"SoundDuration":96149,"Delta":180076754},{"NoteNumber":76,"Velocity":64,"Duration":95969,"SoundDuration":95969,"Delta":180172903},{"NoteNumber":74,"Velocity":57,"Duration":95797,"SoundDuration":95797,"Delta":180268873},{"NoteNumber":72,"Velocity":58,"Duration":95681,"SoundDuration":95681,"Delta":180364670},{"NoteNumber":79,"Velocity":67,"Duration":95506,"SoundDuration":95506,"Delta":180460351},{"NoteNumber":60,"Velocity":55,"Duration":286518,"SoundDuration":286518,"Delta":180460351},{"NoteNumber":76,"Velocity":59,"Duration":95506,"SoundDuration":95506,"Delta":180555858},{"NoteNumber":77,"Velocity":59,"Duration":95506,"SoundDuration":95506,"Delta":180651364},{"NoteNumber":79,"Velocity":62,"Duration":95506,"SoundDuration":95506,"Delta":180746870},{"NoteNumber":77,"Velocity":65,"Duration":95506,"SoundDuration":95506,"Delta":180842377},{"NoteNumber":76,"Velocity":67,"Duration":101414,"SoundDuration":101414,"Delta":180937883},{"NoteNumber":82,"Velocity":69,"Duration":101475,"SoundDuration":101475,"Delta":181039298},{"NoteNumber":58,"Velocity":46,"Duration":286518,"SoundDuration":286518,"Delta":181039298},{"NoteNumber":52,"Velocity":46,"Duration":286518,"SoundDuration":286518,"Delta":181039298},{"NoteNumber":55,"Velocity":46,"Duration":286518,"SoundDuration":286518,"Delta":181039298},{"NoteNumber":60,"Velocity":55,"Duration":286518,"SoundDuration":286518,"Delta":181039298},{"NoteNumber":81,"Velocity":68,"Duration":101475,"SoundDuration":101475,"Delta":181134804},{"NoteNumber":79,"Velocity":67,"Duration":101475,"SoundDuration":101475,"Delta":181230310},{"NoteNumber":77,"Velocity":66,"Duration":101475,"SoundDuration":101475,"Delta":181325817},{"NoteNumber":76,"Velocity":65,"Duration":101475,"SoundDuration":101475,"Delta":181421323},{"NoteNumber":74,"Velocity":63,"Duration":101475,"SoundDuration":101475,"Delta":181516829},{"NoteNumber":72,"Velocity":59,"Duration":101475,"SoundDuration":101475,"Delta":181612336},{"NoteNumber":71,"Velocity":55,"Duration":101606,"SoundDuration":101606,"Delta":181707842},{"NoteNumber":72,"Velocity":55,"Duration":101795,"SoundDuration":101795,"Delta":181803465},{"NoteNumber":73,"Velocity":59,"Duration":101967,"SoundDuration":101967,"Delta":181899262},{"NoteNumber":74,"Velocity":56,"Duration":102162,"SoundDuration":102162,"Delta":181995231},{"NoteNumber":70,"Velocity":56,"Duration":102515,"SoundDuration":102515,"Delta":182091381},{"NoteNumber":41,"Velocity":52,"Duration":97120,"SoundDuration":97120,"Delta":182187826},{"NoteNumber":45,"Velocity":54,"Duration":96792,"SoundDuration":96792,"Delta":182284947},{"NoteNumber":48,"Velocity":56,"Duration":96623,"SoundDuration":96623,"Delta":182381739},{"NoteNumber":57,"Velocity":57,"Duration":96441,"SoundDuration":96441,"Delta":182478363},{"NoteNumber":53,"Velocity":59,"Duration":288917,"SoundDuration":288917,"Delta":182478363},{"NoteNumber":60,"Velocity":59,"Duration":96267,"SoundDuration":96267,"Delta":182574804},{"NoteNumber":65,"Velocity":62,"Duration":96209,"SoundDuration":96209,"Delta":182671071},{"NoteNumber":69,"Velocity":64,"Duration":96209,"SoundDuration":96209,"Delta":182767281},{"NoteNumber":72,"Velocity":66,"Duration":96209,"SoundDuration":96209,"Delta":182863490},{"NoteNumber":77,"Velocity":68,"Duration":96209,"SoundDuration":96209,"Delta":182959699},{"NoteNumber":81,"Velocity":70,"Duration":74526,"SoundDuration":74526,"Delta":183055909},{"NoteNumber":81,"Velocity":70,"Duration":74526,"SoundDuration":74526,"Delta":183204962},{"NoteNumber":81,"Velocity":70,"Duration":147558,"SoundDuration":147558,"Delta":183354016},{"NoteNumber":55,"Velocity":48,"Duration":295116,"SoundDuration":295116,"Delta":183354016},{"NoteNumber":60,"Velocity":48,"Duration":295116,"SoundDuration":295116,"Delta":183354016},{"NoteNumber":64,"Velocity":57,"Duration":295116,"SoundDuration":295116,"Delta":183354016},{"NoteNumber":79,"Velocity":68,"Duration":147558,"SoundDuration":147558,"Delta":183501574},{"NoteNumber":77,"Velocity":66,"Duration":73779,"SoundDuration":73779,"Delta":183649132},{"NoteNumber":76,"Velocity":64,"Duration":79117,"SoundDuration":79117,"Delta":183796690},{"NoteNumber":76,"Velocity":65,"Duration":149812,"SoundDuration":149812,"Delta":183954926},{"NoteNumber":55,"Velocity":49,"Duration":299624,"SoundDuration":299624,"Delta":183954926},{"NoteNumber":62,"Velocity":49,"Duration":299624,"SoundDuration":299624,"Delta":183954926},{"NoteNumber":65,"Velocity":58,"Duration":299624,"SoundDuration":299624,"Delta":183954926},{"NoteNumber":74,"Velocity":63,"Duration":149812,"SoundDuration":149812,"Delta":184104738},{"NoteNumber":72,"Velocity":61,"Duration":74906,"SoundDuration":74906,"Delta":184254551},{"NoteNumber":71,"Velocity":59,"Duration":81752,"SoundDuration":81752,"Delta":184404363},{"NoteNumber":72,"Velocity":63,"Duration":317342,"SoundDuration":317342,"Delta":184567869},{"NoteNumber":60,"Velocity":49,"Duration":317342,"SoundDuration":317342,"Delta":184567869},{"NoteNumber":64,"Velocity":58,"Duration":317342,"SoundDuration":317342,"Delta":184567869},{"NoteNumber":67,"Velocity":45,"Duration":310678,"SoundDuration":310678,"Delta":185519898},{"NoteNumber":71,"Velocity":37,"Duration":157362,"SoundDuration":157362,"Delta":185837134},{"NoteNumber":74,"Velocity":45,"Duration":157362,"SoundDuration":157362,"Delta":185837134},{"NoteNumber":67,"Velocity":39,"Duration":157362,"SoundDuration":157362,"Delta":185837134},{"NoteNumber":65,"Velocity":33,"Duration":157362,"SoundDuration":157362,"Delta":185837134},{"NoteNumber":71,"Velocity":38,"Duration":156533,"SoundDuration":156533,"Delta":186151440},{"NoteNumber":74,"Velocity":45,"Duration":156533,"SoundDuration":156533,"Delta":186151440},{"NoteNumber":65,"Velocity":34,"Duration":156533,"SoundDuration":156533,"Delta":186151440},{"NoteNumber":67,"Velocity":40,"Duration":156533,"SoundDuration":156533,"Delta":186151440},{"NoteNumber":71,"Velocity":38,"Duration":155697,"SoundDuration":155697,"Delta":186464091},{"NoteNumber":74,"Velocity":45,"Duration":155697,"SoundDuration":155697,"Delta":186464091},{"NoteNumber":67,"Velocity":42,"Duration":155697,"SoundDuration":155697,"Delta":186464091},{"NoteNumber":65,"Velocity":35,"Duration":155697,"SoundDuration":155697,"Delta":186464091},{"NoteNumber":71,"Velocity":39,"Duration":164862,"SoundDuration":164862,"Delta":186775081},{"NoteNumber":74,"Velocity":46,"Duration":164862,"SoundDuration":164862,"Delta":186775081},{"NoteNumber":65,"Velocity":36,"Duration":164862,"SoundDuration":164862,"Delta":186775081},{"NoteNumber":67,"Velocity":43,"Duration":164862,"SoundDuration":164862,"Delta":186775081},{"NoteNumber":72,"Velocity":40,"Duration":946868,"SoundDuration":946868,"Delta":187104806},{"NoteNumber":79,"Velocity":47,"Duration":946868,"SoundDuration":946868,"Delta":187104806},{"NoteNumber":64,"Velocity":37,"Duration":940293,"SoundDuration":940293,"Delta":187104806},{"NoteNumber":67,"Velocity":45,"Duration":940293,"SoundDuration":940293,"Delta":187104806},{"NoteNumber":72,"Velocity":46,"Duration":315623,"SoundDuration":315623,"Delta":188051675},{"NoteNumber":79,"Velocity":46,"Duration":315623,"SoundDuration":315623,"Delta":188051675},{"NoteNumber":64,"Velocity":42,"Duration":315623,"SoundDuration":315623,"Delta":188051675},{"NoteNumber":75,"Velocity":40,"Duration":613180,"SoundDuration":613180,"Delta":188367298},{"NoteNumber":72,"Velocity":40,"Duration":613180,"SoundDuration":613180,"Delta":188367298},{"NoteNumber":78,"Velocity":48,"Duration":613180,"SoundDuration":613180,"Delta":188367298},{"NoteNumber":69,"Velocity":45,"Duration":613180,"SoundDuration":613180,"Delta":188367298},{"NoteNumber":74,"Velocity":37,"Duration":619301,"SoundDuration":619301,"Delta":188992742},{"NoteNumber":72,"Velocity":37,"Duration":619301,"SoundDuration":619301,"Delta":188992742},{"NoteNumber":78,"Velocity":45,"Duration":619301,"SoundDuration":619301,"Delta":188992742},{"NoteNumber":69,"Velocity":43,"Duration":619301,"SoundDuration":619301,"Delta":188992742},{"NoteNumber":71,"Velocity":39,"Duration":313135,"SoundDuration":313135,"Delta":189624845},{"NoteNumber":74,"Velocity":39,"Duration":313135,"SoundDuration":313135,"Delta":189624845},{"NoteNumber":79,"Velocity":46,"Duration":313135,"SoundDuration":313135,"Delta":189624845},{"NoteNumber":67,"Velocity":43,"Duration":313135,"SoundDuration":313135,"Delta":189624845},{"NoteNumber":55,"Velocity":45,"Duration":313527,"SoundDuration":313527,"Delta":190564253},{"NoteNumber":59,"Velocity":37,"Duration":157362,"SoundDuration":157362,"Delta":190881715},{"NoteNumber":62,"Velocity":45,"Duration":157362,"SoundDuration":157362,"Delta":190881715},{"NoteNumber":55,"Velocity":39,"Duration":157362,"SoundDuration":157362,"Delta":190881715},{"NoteNumber":53,"Velocity":33,"Duration":157362,"SoundDuration":157362,"Delta":190881715},{"NoteNumber":59,"Velocity":38,"Duration":156533,"SoundDuration":156533,"Delta":191196021},{"NoteNumber":62,"Velocity":45,"Duration":156533,"SoundDuration":156533,"Delta":191196021},{"NoteNumber":53,"Velocity":34,"Duration":156533,"SoundDuration":156533,"Delta":191196021},{"NoteNumber":55,"Velocity":40,"Duration":156533,"SoundDuration":156533,"Delta":191196021},{"NoteNumber":59,"Velocity":38,"Duration":155697,"SoundDuration":155697,"Delta":191508672},{"NoteNumber":62,"Velocity":45,"Duration":155697,"SoundDuration":155697,"Delta":191508672},{"NoteNumber":55,"Velocity":42,"Duration":155697,"SoundDuration":155697,"Delta":191508672},{"NoteNumber":53,"Velocity":35,"Duration":155697,"SoundDuration":155697,"Delta":191508672},{"NoteNumber":59,"Velocity":39,"Duration":164862,"SoundDuration":164862,"Delta":191819662},{"NoteNumber":62,"Velocity":46,"Duration":164862,"SoundDuration":164862,"Delta":191819662},{"NoteNumber":53,"Velocity":36,"Duration":164862,"SoundDuration":164862,"Delta":191819662},{"NoteNumber":55,"Velocity":43,"Duration":164862,"SoundDuration":164862,"Delta":191819662},{"NoteNumber":67,"Velocity":47,"Duration":946868,"SoundDuration":946868,"Delta":192149387},{"NoteNumber":51,"Velocity":37,"Duration":946868,"SoundDuration":946868,"Delta":192149387},{"NoteNumber":55,"Velocity":45,"Duration":946868,"SoundDuration":946868,"Delta":192149387},{"NoteNumber":59,"Velocity":40,"Duration":315623,"SoundDuration":315623,"Delta":192465010},{"NoteNumber":60,"Velocity":40,"Duration":790447,"SoundDuration":790447,"Delta":192780633},{"NoteNumber":67,"Velocity":45,"Duration":317462,"SoundDuration":317462,"Delta":193096256},{"NoteNumber":51,"Velocity":41,"Duration":317462,"SoundDuration":317462,"Delta":193096256},{"NoteNumber":65,"Velocity":50,"Duration":157362,"SoundDuration":157362,"Delta":193413718},{"NoteNumber":56,"Velocity":39,"Duration":157362,"SoundDuration":157362,"Delta":193413718},{"NoteNumber":60,"Velocity":49,"Duration":156533,"SoundDuration":156533,"Delta":193728024},{"NoteNumber":65,"Velocity":49,"Duration":156533,"SoundDuration":156533,"Delta":193728024},{"NoteNumber":56,"Velocity":44,"Duration":156533,"SoundDuration":156533,"Delta":193728024},{"NoteNumber":62,"Velocity":49,"Duration":155697,"SoundDuration":155697,"Delta":194040675},{"NoteNumber":65,"Velocity":49,"Duration":155697,"SoundDuration":155697,"Delta":194040675},{"NoteNumber":58,"Velocity":44,"Duration":155697,"SoundDuration":155697,"Delta":194040675},{"NoteNumber":56,"Velocity":44,"Duration":155697,"SoundDuration":155697,"Delta":194040675},{"NoteNumber":62,"Velocity":49,"Duration":645347,"SoundDuration":645347,"Delta":194351665},{"NoteNumber":65,"Velocity":49,"Duration":164862,"SoundDuration":164862,"Delta":194351665},{"NoteNumber":56,"Velocity":46,"Duration":164862,"SoundDuration":164862,"Delta":194351665},{"NoteNumber":58,"Velocity":46,"Duration":164862,"SoundDuration":164862,"Delta":194351665},{"NoteNumber":70,"Velocity":54,"Duration":946868,"SoundDuration":946868,"Delta":194681390},{"NoteNumber":55,"Velocity":50,"Duration":946868,"SoundDuration":946868,"Delta":194681390},{"NoteNumber":58,"Velocity":50,"Duration":946868,"SoundDuration":946868,"Delta":194681390},{"NoteNumber":62,"Velocity":51,"Duration":315623,"SoundDuration":315623,"Delta":194997013},{"NoteNumber":63,"Velocity":51,"Duration":947390,"SoundDuration":947390,"Delta":195312636},{"NoteNumber":70,"Velocity":53,"Duration":317462,"SoundDuration":317462,"Delta":195628259},{"NoteNumber":55,"Velocity":51,"Duration":317462,"SoundDuration":317462,"Delta":195628259},{"NoteNumber":69,"Velocity":59,"Duration":157362,"SoundDuration":157362,"Delta":195945721},{"NoteNumber":60,"Velocity":47,"Duration":157362,"SoundDuration":157362,"Delta":195945721},{"NoteNumber":66,"Velocity":56,"Duration":156533,"SoundDuration":156533,"Delta":196260027},{"NoteNumber":69,"Velocity":56,"Duration":156533,"SoundDuration":156533,"Delta":196260027},{"NoteNumber":60,"Velocity":48,"Duration":156533,"SoundDuration":156533,"Delta":196260027},{"NoteNumber":63,"Velocity":48,"Duration":156533,"SoundDuration":156533,"Delta":196260027},{"NoteNumber":66,"Velocity":56,"Duration":155697,"SoundDuration":155697,"Delta":196572678},{"NoteNumber":69,"Velocity":56,"Duration":155697,"SoundDuration":155697,"Delta":196572678},{"NoteNumber":63,"Velocity":50,"Duration":155697,"SoundDuration":155697,"Delta":196572678},{"NoteNumber":60,"Velocity":50,"Duration":155697,"SoundDuration":155697,"Delta":196572678},{"NoteNumber":66,"Velocity":55,"Duration":645347,"SoundDuration":645347,"Delta":196883668},{"NoteNumber":69,"Velocity":55,"Duration":164862,"SoundDuration":164862,"Delta":196883668},{"NoteNumber":60,"Velocity":51,"Duration":164862,"SoundDuration":164862,"Delta":196883668},{"NoteNumber":63,"Velocity":51,"Duration":164862,"SoundDuration":164862,"Delta":196883668},{"NoteNumber":74,"Velocity":61,"Duration":946868,"SoundDuration":946868,"Delta":197213393},{"NoteNumber":59,"Velocity":54,"Duration":946868,"SoundDuration":946868,"Delta":197213393},{"NoteNumber":62,"Velocity":54,"Duration":946868,"SoundDuration":946868,"Delta":197213393},{"NoteNumber":66,"Velocity":54,"Duration":315623,"SoundDuration":315623,"Delta":197529016},{"NoteNumber":67,"Velocity":54,"Duration":315622,"SoundDuration":315622,"Delta":197844639},{"NoteNumber":66,"Velocity":62,"Duration":645347,"SoundDuration":645347,"Delta":198160262},{"NoteNumber":69,"Velocity":62,"Duration":329724,"SoundDuration":329724,"Delta":198160262},{"NoteNumber":60,"Velocity":53,"Duration":329724,"SoundDuration":329724,"Delta":198160262},{"NoteNumber":63,"Velocity":53,"Duration":329724,"SoundDuration":329724,"Delta":198160262},{"NoteNumber":74,"Velocity":63,"Duration":946868,"SoundDuration":946868,"Delta":198489987},{"NoteNumber":59,"Velocity":55,"Duration":946868,"SoundDuration":946868,"Delta":198489987},{"NoteNumber":62,"Velocity":55,"Duration":946868,"SoundDuration":946868,"Delta":198489987},{"NoteNumber":66,"Velocity":55,"Duration":315623,"SoundDuration":315623,"Delta":198805610},{"NoteNumber":67,"Velocity":50,"Duration":315622,"SoundDuration":315622,"Delta":199121233},{"NoteNumber":71,"Velocity":54,"Duration":645347,"SoundDuration":645347,"Delta":199436856},{"NoteNumber":74,"Velocity":54,"Duration":329724,"SoundDuration":329724,"Delta":199436856},{"NoteNumber":65,"Velocity":54,"Duration":329724,"SoundDuration":329724,"Delta":199436856},{"NoteNumber":68,"Velocity":54,"Duration":329724,"SoundDuration":329724,"Delta":199436856},{"NoteNumber":79,"Velocity":58,"Duration":946868,"SoundDuration":946868,"Delta":199766581},{"NoteNumber":63,"Velocity":56,"Duration":946868,"SoundDuration":946868,"Delta":199766581},{"NoteNumber":67,"Velocity":56,"Duration":946868,"SoundDuration":946868,"Delta":199766581},{"NoteNumber":71,"Velocity":52,"Duration":315623,"SoundDuration":315623,"Delta":200082204},{"NoteNumber":72,"Velocity":55,"Duration":315622,"SoundDuration":315622,"Delta":200397827},{"NoteNumber":71,"Velocity":57,"Duration":645347,"SoundDuration":645347,"Delta":200713450},{"NoteNumber":74,"Velocity":57,"Duration":329724,"SoundDuration":329724,"Delta":200713450},{"NoteNumber":65,"Velocity":49,"Duration":329724,"SoundDuration":329724,"Delta":200713450},{"NoteNumber":68,"Velocity":49,"Duration":329724,"SoundDuration":329724,"Delta":200713450},{"NoteNumber":79,"Velocity":63,"Duration":946868,"SoundDuration":946868,"Delta":201043175},{"NoteNumber":63,"Velocity":52,"Duration":946868,"SoundDuration":946868,"Delta":201043175},{"NoteNumber":67,"Velocity":52,"Duration":946868,"SoundDuration":946868,"Delta":201043175},{"NoteNumber":71,"Velocity":55,"Duration":315623,"SoundDuration":315623,"Delta":201358798},{"NoteNumber":72,"Velocity":55,"Duration":315622,"SoundDuration":315622,"Delta":201674421},{"NoteNumber":71,"Velocity":60,"Duration":645347,"SoundDuration":645347,"Delta":201990044},{"NoteNumber":74,"Velocity":60,"Duration":329724,"SoundDuration":329724,"Delta":201990044},{"NoteNumber":65,"Velocity":36,"Duration":329724,"SoundDuration":329724,"Delta":201990044},{"NoteNumber":68,"Velocity":43,"Duration":329724,"SoundDuration":329724,"Delta":201990044},{"NoteNumber":80,"Velocity":69,"Duration":946868,"SoundDuration":946868,"Delta":202319769},{"NoteNumber":70,"Velocity":49,"Duration":315623,"SoundDuration":315623,"Delta":202635392},{"NoteNumber":71,"Velocity":49,"Duration":315622,"SoundDuration":315622,"Delta":202951015},{"NoteNumber":74,"Velocity":56,"Duration":328551,"SoundDuration":328551,"Delta":203266638},{"NoteNumber":79,"Velocity":65,"Duration":950319,"SoundDuration":950319,"Delta":203595189},{"NoteNumber":70,"Velocity":47,"Duration":316772,"SoundDuration":316772,"Delta":203911962},{"NoteNumber":71,"Velocity":48,"Duration":316773,"SoundDuration":316773,"Delta":204228735},{"NoteNumber":74,"Velocity":54,"Duration":329434,"SoundDuration":329434,"Delta":204545508},{"NoteNumber":78,"Velocity":60,"Duration":967114,"SoundDuration":967114,"Delta":204874943},{"NoteNumber":70,"Velocity":38,"Duration":318404,"SoundDuration":318404,"Delta":205193347},{"NoteNumber":71,"Velocity":38,"Duration":330306,"SoundDuration":330306,"Delta":205511751},{"NoteNumber":74,"Velocity":40,"Duration":653703,"SoundDuration":653703,"Delta":205842057},{"NoteNumber":77,"Velocity":47,"Duration":1027904,"SoundDuration":1027904,"Delta":206172363},{"NoteNumber":70,"Velocity":37,"Duration":337534,"SoundDuration":337534,"Delta":206495761},{"NoteNumber":71,"Velocity":37,"Duration":702168,"SoundDuration":702168,"Delta":206833295},{"NoteNumber":43,"Velocity":42,"Duration":335195,"SoundDuration":335195,"Delta":207200267},{"NoteNumber":67,"Velocity":44,"Duration":437846,"SoundDuration":437846,"Delta":207535463},{"NoteNumber":72,"Velocity":44,"Duration":437846,"SoundDuration":437846,"Delta":207535463},{"NoteNumber":75,"Velocity":52,"Duration":437846,"SoundDuration":437846,"Delta":207535463},{"NoteNumber":48,"Velocity":40,"Duration":144934,"SoundDuration":144934,"Delta":207535463},{"NoteNumber":51,"Velocity":36,"Duration":146456,"SoundDuration":146456,"Delta":207680397},{"NoteNumber":55,"Velocity":36,"Duration":146456,"SoundDuration":146456,"Delta":207826853},{"NoteNumber":77,"Velocity":50,"Duration":154910,"SoundDuration":154910,"Delta":207973309},{"NoteNumber":60,"Velocity":36,"Duration":154910,"SoundDuration":154910,"Delta":207973309},{"NoteNumber":74,"Velocity":53,"Duration":437574,"SoundDuration":437574,"Delta":208128220},{"NoteNumber":48,"Velocity":40,"Duration":144662,"SoundDuration":144662,"Delta":208128220},{"NoteNumber":53,"Velocity":40,"Duration":146456,"SoundDuration":146456,"Delta":208272882},{"NoteNumber":55,"Velocity":36,"Duration":146456,"SoundDuration":146456,"Delta":208419338},{"NoteNumber":75,"Velocity":50,"Duration":154114,"SoundDuration":154114,"Delta":208565794},{"NoteNumber":59,"Velocity":36,"Duration":154114,"SoundDuration":154114,"Delta":208565794},{"NoteNumber":72,"Velocity":52,"Duration":546610,"SoundDuration":546610,"Delta":208719909},{"NoteNumber":48,"Velocity":40,"Duration":144934,"SoundDuration":144934,"Delta":208719909},{"NoteNumber":51,"Velocity":40,"Duration":144934,"SoundDuration":144934,"Delta":208864843},{"NoteNumber":55,"Velocity":36,"Duration":144934,"SoundDuration":144934,"Delta":209009778},{"NoteNumber":60,"Velocity":36,"Duration":148385,"SoundDuration":148385,"Delta":209154712},{"NoteNumber":74,"Velocity":48,"Duration":36578,"SoundDuration":36578,"Delta":209266519},{"NoteNumber":72,"Velocity":52,"Duration":144934,"SoundDuration":144934,"Delta":209303097},{"NoteNumber":63,"Velocity":40,"Duration":144934,"SoundDuration":144934,"Delta":209303097},{"NoteNumber":71,"Velocity":51,"Duration":144934,"SoundDuration":144934,"Delta":209448032},{"NoteNumber":67,"Velocity":36,"Duration":144934,"SoundDuration":144934,"Delta":209448032},{"NoteNumber":72,"Velocity":51,"Duration":144934,"SoundDuration":144934,"Delta":209592966},{"NoteNumber":63,"Velocity":36,"Duration":144934,"SoundDuration":144934,"Delta":209592966},{"NoteNumber":74,"Velocity":50,"Duration":108700,"SoundDuration":108700,"Delta":209737901},{"NoteNumber":62,"Velocity":36,"Duration":144934,"SoundDuration":144934,"Delta":209737901},{"NoteNumber":77,"Velocity":49,"Duration":36233,"SoundDuration":36233,"Delta":209846602},{"NoteNumber":75,"Velocity":56,"Duration":144934,"SoundDuration":144934,"Delta":209882835},{"NoteNumber":60,"Velocity":40,"Duration":144934,"SoundDuration":144934,"Delta":209882835},{"NoteNumber":74,"Velocity":52,"Duration":144934,"SoundDuration":144934,"Delta":210027770},{"NoteNumber":67,"Velocity":36,"Duration":144934,"SoundDuration":144934,"Delta":210027770},{"NoteNumber":75,"Velocity":52,"Duration":144934,"SoundDuration":144934,"Delta":210172704},{"NoteNumber":60,"Velocity":36,"Duration":144934,"SoundDuration":144934,"Delta":210172704},{"NoteNumber":63,"Velocity":36,"Duration":144934,"SoundDuration":144934,"Delta":210172704},{"NoteNumber":77,"Velocity":52,"Duration":157397,"SoundDuration":157397,"Delta":210317639},{"NoteNumber":67,"Velocity":36,"Duration":157397,"SoundDuration":157397,"Delta":210317639},{"NoteNumber":79,"Velocity":56,"Duration":155731,"SoundDuration":155731,"Delta":210475036},{"NoteNumber":59,"Velocity":41,"Duration":155731,"SoundDuration":155731,"Delta":210475036},{"NoteNumber":62,"Velocity":41,"Duration":155731,"SoundDuration":155731,"Delta":210475036},{"NoteNumber":67,"Velocity":36,"Duration":155731,"SoundDuration":155731,"Delta":210630767},{"NoteNumber":79,"Velocity":55,"Duration":155731,"SoundDuration":155731,"Delta":210786498},{"NoteNumber":60,"Velocity":36,"Duration":155731,"SoundDuration":155731,"Delta":210786498},{"NoteNumber":56,"Velocity":36,"Duration":155731,"SoundDuration":155731,"Delta":210786498},{"NoteNumber":67,"Velocity":36,"Duration":155731,"SoundDuration":155731,"Delta":210942229},{"NoteNumber":79,"Velocity":57,"Duration":912792,"SoundDuration":912792,"Delta":211097960},{"NoteNumber":55,"Velocity":40,"Duration":155730,"SoundDuration":155730,"Delta":211097960},{"NoteNumber":59,"Velocity":29,"Duration":155731,"SoundDuration":155731,"Delta":211253691},{"NoteNumber":62,"Velocity":28,"Duration":155731,"SoundDuration":155731,"Delta":211409422},{"NoteNumber":67,"Velocity":28,"Duration":155731,"SoundDuration":155731,"Delta":211565153},{"NoteNumber":55,"Velocity":40,"Duration":144934,"SoundDuration":144934,"Delta":211720884},{"NoteNumber":59,"Velocity":31,"Duration":144934,"SoundDuration":144934,"Delta":211865819},{"NoteNumber":77,"Velocity":51,"Duration":144934,"SoundDuration":144934,"Delta":212010753},{"NoteNumber":62,"Velocity":31,"Duration":144934,"SoundDuration":144934,"Delta":212010753},{"NoteNumber":79,"Velocity":53,"Duration":80274,"SoundDuration":80274,"Delta":212155688},{"NoteNumber":67,"Velocity":31,"Duration":154388,"SoundDuration":154388,"Delta":212155688},{"NoteNumber":77,"Velocity":48,"Duration":37057,"SoundDuration":37057,"Delta":212235962},{"NoteNumber":79,"Velocity":48,"Duration":37057,"SoundDuration":37057,"Delta":212273019},{"NoteNumber":80,"Velocity":56,"Duration":585398,"SoundDuration":585398,"Delta":212310076},{"NoteNumber":53,"Velocity":40,"Duration":144934,"SoundDuration":144934,"Delta":212310076},{"NoteNumber":56,"Velocity":36,"Duration":146821,"SoundDuration":146821,"Delta":212455011},{"NoteNumber":59,"Velocity":37,"Duration":146821,"SoundDuration":146821,"Delta":212601832},{"NoteNumber":62,"Velocity":37,"Duration":146821,"SoundDuration":146821,"Delta":212748654},{"NoteNumber":74,"Velocity":52,"Duration":288627,"SoundDuration":288627,"Delta":212895475},{"NoteNumber":53,"Velocity":40,"Duration":144314,"SoundDuration":144314,"Delta":212895475},{"NoteNumber":56,"Velocity":36,"Duration":144313,"SoundDuration":144313,"Delta":213039789},{"NoteNumber":75,"Velocity":51,"Duration":144314,"SoundDuration":144314,"Delta":213184103},{"NoteNumber":59,"Velocity":36,"Duration":144314,"SoundDuration":144314,"Delta":213184103},{"NoteNumber":77,"Velocity":53,"Duration":79537,"SoundDuration":79537,"Delta":213328417},{"NoteNumber":62,"Velocity":36,"Duration":153651,"SoundDuration":153651,"Delta":213328417},{"NoteNumber":75,"Velocity":50,"Duration":37057,"SoundDuration":37057,"Delta":213407955},{"NoteNumber":77,"Velocity":50,"Duration":37057,"SoundDuration":37057,"Delta":213445012},{"NoteNumber":79,"Velocity":56,"Duration":585398,"SoundDuration":585398,"Delta":213482069},{"NoteNumber":51,"Velocity":40,"Duration":144934,"SoundDuration":144934,"Delta":213482069},{"NoteNumber":55,"Velocity":34,"Duration":146821,"SoundDuration":146821,"Delta":213627003},{"NoteNumber":60,"Velocity":34,"Duration":146821,"SoundDuration":146821,"Delta":213773825},{"NoteNumber":63,"Velocity":33,"Duration":146821,"SoundDuration":146821,"Delta":213920646},{"NoteNumber":72,"Velocity":52,"Duration":283296,"SoundDuration":283296,"Delta":214067468},{"NoteNumber":56,"Velocity":41,"Duration":144662,"SoundDuration":144662,"Delta":214067468},{"NoteNumber":60,"Velocity":35,"Duration":144661,"SoundDuration":144661,"Delta":214212130},{"NoteNumber":72,"Velocity":53,"Duration":144662,"SoundDuration":144662,"Delta":214356792},{"NoteNumber":63,"Velocity":35,"Duration":144662,"SoundDuration":144662,"Delta":214356792},{"NoteNumber":74,"Velocity":54,"Duration":149075,"SoundDuration":149075,"Delta":214501454},{"NoteNumber":66,"Velocity":35,"Duration":149075,"SoundDuration":149075,"Delta":214501454},{"NoteNumber":75,"Velocity":57,"Duration":144934,"SoundDuration":144934,"Delta":214650529},{"NoteNumber":55,"Velocity":40,"Duration":144934,"SoundDuration":144934,"Delta":214650529},{"NoteNumber":60,"Velocity":40,"Duration":146456,"SoundDuration":146456,"Delta":214795464},{"NoteNumber":75,"Velocity":53,"Duration":146456,"SoundDuration":146456,"Delta":214941920},{"NoteNumber":63,"Velocity":35,"Duration":146456,"SoundDuration":146456,"Delta":214941920},{"NoteNumber":77,"Velocity":55,"Duration":146456,"SoundDuration":146456,"Delta":215088376},{"NoteNumber":67,"Velocity":35,"Duration":146456,"SoundDuration":146456,"Delta":215088376},{"NoteNumber":74,"Velocity":57,"Duration":144662,"SoundDuration":144662,"Delta":215234832},{"NoteNumber":55,"Velocity":40,"Duration":144662,"SoundDuration":144662,"Delta":215234832},{"NoteNumber":59,"Velocity":36,"Duration":146098,"SoundDuration":146098,"Delta":215379494},{"NoteNumber":74,"Velocity":51,"Duration":146099,"SoundDuration":146099,"Delta":215525593},{"NoteNumber":62,"Velocity":36,"Duration":146099,"SoundDuration":146099,"Delta":215525593},{"NoteNumber":75,"Velocity":54,"Duration":149932,"SoundDuration":149932,"Delta":215671692},{"NoteNumber":67,"Velocity":36,"Duration":149932,"SoundDuration":149932,"Delta":215671692},{"NoteNumber":72,"Velocity":57,"Duration":145926,"SoundDuration":145926,"Delta":215821624},{"NoteNumber":60,"Velocity":57,"Duration":291439,"SoundDuration":291439,"Delta":215821624},{"NoteNumber":71,"Velocity":52,"Duration":145513,"SoundDuration":145513,"Delta":215967551},{"NoteNumber":72,"Velocity":53,"Duration":145102,"SoundDuration":145102,"Delta":216113064},{"NoteNumber":74,"Velocity":54,"Duration":144694,"SoundDuration":144694,"Delta":216258167},{"NoteNumber":75,"Velocity":55,"Duration":144578,"SoundDuration":144578,"Delta":216402862},{"NoteNumber":76,"Velocity":56,"Duration":144636,"SoundDuration":144636,"Delta":216547441},{"NoteNumber":77,"Velocity":58,"Duration":144927,"SoundDuration":144927,"Delta":216692077},{"NoteNumber":79,"Velocity":59,"Duration":148883,"SoundDuration":148883,"Delta":216837005},{"NoteNumber":80,"Velocity":60,"Duration":144578,"SoundDuration":144578,"Delta":216985888},{"NoteNumber":41,"Velocity":58,"Duration":144578,"SoundDuration":144578,"Delta":216985888},{"NoteNumber":79,"Velocity":57,"Duration":144578,"SoundDuration":144578,"Delta":217130467},{"NoteNumber":44,"Velocity":48,"Duration":144578,"SoundDuration":144578,"Delta":217130467},{"NoteNumber":82,"Velocity":63,"Duration":144578,"SoundDuration":144578,"Delta":217275045},{"NoteNumber":47,"Velocity":49,"Duration":144578,"SoundDuration":144578,"Delta":217275045},{"NoteNumber":80,"Velocity":62,"Duration":144578,"SoundDuration":144578,"Delta":217419624},{"NoteNumber":50,"Velocity":51,"Duration":144578,"SoundDuration":144578,"Delta":217419624},{"NoteNumber":79,"Velocity":62,"Duration":144578,"SoundDuration":144578,"Delta":217564202},{"NoteNumber":41,"Velocity":53,"Duration":144578,"SoundDuration":144578,"Delta":217564202},{"NoteNumber":77,"Velocity":61,"Duration":144578,"SoundDuration":144578,"Delta":217708781},{"NoteNumber":44,"Velocity":54,"Duration":144578,"SoundDuration":144578,"Delta":217708781},{"NoteNumber":75,"Velocity":60,"Duration":144578,"SoundDuration":144578,"Delta":217853359},{"NoteNumber":47,"Velocity":56,"Duration":144578,"SoundDuration":144578,"Delta":217853359},{"NoteNumber":74,"Velocity":58,"Duration":148883,"SoundDuration":148883,"Delta":217997938},{"NoteNumber":50,"Velocity":57,"Duration":148883,"SoundDuration":148883,"Delta":217997938},{"NoteNumber":79,"Velocity":66,"Duration":144578,"SoundDuration":144578,"Delta":218146821},{"NoteNumber":39,"Velocity":58,"Duration":144578,"SoundDuration":144578,"Delta":218146821},{"NoteNumber":78,"Velocity":60,"Duration":144578,"SoundDuration":144578,"Delta":218291400},{"NoteNumber":43,"Velocity":57,"Duration":144578,"SoundDuration":144578,"Delta":218291400},{"NoteNumber":80,"Velocity":67,"Duration":144578,"SoundDuration":144578,"Delta":218435978},{"NoteNumber":48,"Velocity":55,"Duration":144578,"SoundDuration":144578,"Delta":218435978},{"NoteNumber":79,"Velocity":66,"Duration":144578,"SoundDuration":144578,"Delta":218580557},{"NoteNumber":51,"Velocity":56,"Duration":144578,"SoundDuration":144578,"Delta":218580557},{"NoteNumber":77,"Velocity":66,"Duration":144578,"SoundDuration":144578,"Delta":218725135},{"NoteNumber":44,"Velocity":57,"Duration":144578,"SoundDuration":144578,"Delta":218725135},{"NoteNumber":75,"Velocity":65,"Duration":144578,"SoundDuration":144578,"Delta":218869714},{"NoteNumber":48,"Velocity":57,"Duration":144578,"SoundDuration":144578,"Delta":218869714},{"NoteNumber":74,"Velocity":65,"Duration":144578,"SoundDuration":144578,"Delta":219014292},{"NoteNumber":51,"Velocity":58,"Duration":144578,"SoundDuration":144578,"Delta":219014292},{"NoteNumber":72,"Velocity":64,"Duration":148883,"SoundDuration":148883,"Delta":219158871},{"NoteNumber":54,"Velocity":60,"Duration":148883,"SoundDuration":148883,"Delta":219158871},{"NoteNumber":75,"Velocity":71,"Duration":144578,"SoundDuration":144578,"Delta":219307754},{"NoteNumber":43,"Velocity":64,"Duration":144578,"SoundDuration":144578,"Delta":219307754},{"NoteNumber":74,"Velocity":64,"Duration":144578,"SoundDuration":144578,"Delta":219452333},{"NoteNumber":48,"Velocity":58,"Duration":144578,"SoundDuration":144578,"Delta":219452333},{"NoteNumber":77,"Velocity":70,"Duration":144578,"SoundDuration":144578,"Delta":219596911},{"NoteNumber":51,"Velocity":63,"Duration":144578,"SoundDuration":144578,"Delta":219596911},{"NoteNumber":75,"Velocity":62,"Duration":144578,"SoundDuration":144578,"Delta":219741490},{"NoteNumber":55,"Velocity":63,"Duration":144578,"SoundDuration":144578,"Delta":219741490},{"NoteNumber":74,"Velocity":69,"Duration":144578,"SoundDuration":144578,"Delta":219886068},{"NoteNumber":43,"Velocity":62,"Duration":144578,"SoundDuration":144578,"Delta":219886068},{"NoteNumber":73,"Velocity":66,"Duration":144578,"SoundDuration":144578,"Delta":220030647},{"NoteNumber":55,"Velocity":61,"Duration":144578,"SoundDuration":144578,"Delta":220030647},{"NoteNumber":75,"Velocity":64,"Duration":144578,"SoundDuration":144578,"Delta":220175225},{"NoteNumber":43,"Velocity":58,"Duration":144578,"SoundDuration":144578,"Delta":220175225},{"NoteNumber":74,"Velocity":60,"Duration":144578,"SoundDuration":144578,"Delta":220319804},{"NoteNumber":55,"Velocity":57,"Duration":144578,"SoundDuration":144578,"Delta":220319804},{"NoteNumber":72,"Velocity":66,"Duration":298070,"SoundDuration":298070,"Delta":220464382},{"NoteNumber":48,"Velocity":67,"Duration":151729,"SoundDuration":151729,"Delta":220464382},{"NoteNumber":60,"Velocity":52,"Duration":146341,"SoundDuration":146341,"Delta":220616112},{"NoteNumber":59,"Velocity":60,"Duration":143609,"SoundDuration":143609,"Delta":220762453},{"NoteNumber":60,"Velocity":52,"Duration":143609,"SoundDuration":143609,"Delta":220906063},{"NoteNumber":58,"Velocity":64,"Duration":149284,"SoundDuration":149284,"Delta":221049672},{"NoteNumber":84,"Velocity":68,"Duration":95739,"SoundDuration":95739,"Delta":221151087},{"NoteNumber":60,"Velocity":51,"Duration":143609,"SoundDuration":143609,"Delta":221198957},{"NoteNumber":86,"Velocity":70,"Duration":95739,"SoundDuration":95739,"Delta":221246827},{"NoteNumber":88,"Velocity":73,"Duration":95739,"SoundDuration":95739,"Delta":221342566},{"NoteNumber":55,"Velocity":57,"Duration":143609,"SoundDuration":143609,"Delta":221342566},{"NoteNumber":86,"Velocity":70,"Duration":95739,"SoundDuration":95739,"Delta":221438306},{"NoteNumber":60,"Velocity":50,"Duration":143609,"SoundDuration":143609,"Delta":221486176},{"NoteNumber":84,"Velocity":66,"Duration":95739,"SoundDuration":95739,"Delta":221534046},{"NoteNumber":89,"Velocity":77,"Duration":151729,"SoundDuration":151729,"Delta":221629785},{"NoteNumber":56,"Velocity":63,"Duration":151729,"SoundDuration":151729,"Delta":221629785},{"NoteNumber":60,"Velocity":50,"Duration":146341,"SoundDuration":146341,"Delta":221781515},{"NoteNumber":53,"Velocity":57,"Duration":143609,"SoundDuration":143609,"Delta":221927856},{"NoteNumber":60,"Velocity":50,"Duration":143609,"SoundDuration":143609,"Delta":222071466},{"NoteNumber":58,"Velocity":59,"Duration":149284,"SoundDuration":149284,"Delta":222215075},{"NoteNumber":84,"Velocity":66,"Duration":95739,"SoundDuration":95739,"Delta":222316490},{"NoteNumber":60,"Velocity":50,"Duration":143609,"SoundDuration":143609,"Delta":222364360},{"NoteNumber":86,"Velocity":69,"Duration":95739,"SoundDuration":95739,"Delta":222412230},{"NoteNumber":88,"Velocity":72,"Duration":95739,"SoundDuration":95739,"Delta":222507969},{"NoteNumber":55,"Velocity":55,"Duration":143609,"SoundDuration":143609,"Delta":222507969},{"NoteNumber":86,"Velocity":70,"Duration":95739,"SoundDuration":95739,"Delta":222603709},{"NoteNumber":60,"Velocity":50,"Duration":143609,"SoundDuration":143609,"Delta":222651579},{"NoteNumber":84,"Velocity":67,"Duration":95739,"SoundDuration":95739,"Delta":222699449},{"NoteNumber":89,"Velocity":77,"Duration":151729,"SoundDuration":151729,"Delta":222795188},{"NoteNumber":56,"Velocity":63,"Duration":151729,"SoundDuration":151729,"Delta":222795188},{"NoteNumber":60,"Velocity":50,"Duration":146341,"SoundDuration":146341,"Delta":222946918},{"NoteNumber":53,"Velocity":57,"Duration":143609,"SoundDuration":143609,"Delta":223093259},{"NoteNumber":60,"Velocity":50,"Duration":143609,"SoundDuration":143609,"Delta":223236869},{"NoteNumber":58,"Velocity":59,"Duration":149284,"SoundDuration":149284,"Delta":223380478},{"NoteNumber":84,"Velocity":66,"Duration":95739,"SoundDuration":95739,"Delta":223481893},{"NoteNumber":60,"Velocity":50,"Duration":143609,"SoundDuration":143609,"Delta":223529763},{"NoteNumber":86,"Velocity":69,"Duration":95739,"SoundDuration":95739,"Delta":223577633},{"NoteNumber":88,"Velocity":72,"Duration":95739,"SoundDuration":95739,"Delta":223673372},{"NoteNumber":55,"Velocity":55,"Duration":143609,"SoundDuration":143609,"Delta":223673372},{"NoteNumber":86,"Velocity":70,"Duration":95739,"SoundDuration":95739,"Delta":223769112},{"NoteNumber":60,"Velocity":50,"Duration":143609,"SoundDuration":143609,"Delta":223816982},{"NoteNumber":84,"Velocity":67,"Duration":95739,"SoundDuration":95739,"Delta":223864852},{"NoteNumber":89,"Velocity":86,"Duration":147420,"SoundDuration":147420,"Delta":223960591},{"NoteNumber":56,"Velocity":77,"Duration":147420,"SoundDuration":147420,"Delta":223960591},{"NoteNumber":72,"Velocity":76,"Duration":154639,"SoundDuration":154639,"Delta":224256033},{"NoteNumber":75,"Velocity":76,"Duration":154639,"SoundDuration":154639,"Delta":224256033},{"NoteNumber":78,"Velocity":76,"Duration":154639,"SoundDuration":154639,"Delta":224256033},{"NoteNumber":84,"Velocity":90,"Duration":154639,"SoundDuration":154639,"Delta":224256033},{"NoteNumber":44,"Velocity":62,"Duration":154639,"SoundDuration":154639,"Delta":224256033},{"NoteNumber":48,"Velocity":62,"Duration":154639,"SoundDuration":154639,"Delta":224256033},{"NoteNumber":51,"Velocity":62,"Duration":154639,"SoundDuration":154639,"Delta":224256033},{"NoteNumber":56,"Velocity":73,"Duration":154639,"SoundDuration":154639,"Delta":224256033},{"NoteNumber":72,"Velocity":76,"Duration":154638,"SoundDuration":154638,"Delta":224565311},{"NoteNumber":75,"Velocity":76,"Duration":154638,"SoundDuration":154638,"Delta":224565311},{"NoteNumber":79,"Velocity":76,"Duration":154638,"SoundDuration":154638,"Delta":224565311},{"NoteNumber":84,"Velocity":90,"Duration":154638,"SoundDuration":154638,"Delta":224565311},{"NoteNumber":43,"Velocity":62,"Duration":154638,"SoundDuration":154638,"Delta":224565311},{"NoteNumber":48,"Velocity":62,"Duration":154638,"SoundDuration":154638,"Delta":224565311},{"NoteNumber":51,"Velocity":62,"Duration":154638,"SoundDuration":154638,"Delta":224565311},{"NoteNumber":55,"Velocity":73,"Duration":154638,"SoundDuration":154638,"Delta":224565311},{"NoteNumber":71,"Velocity":76,"Duration":154639,"SoundDuration":154639,"Delta":224874589},{"NoteNumber":74,"Velocity":76,"Duration":154639,"SoundDuration":154639,"Delta":224874589},{"NoteNumber":79,"Velocity":76,"Duration":154639,"SoundDuration":154639,"Delta":224874589},{"NoteNumber":83,"Velocity":90,"Duration":154639,"SoundDuration":154639,"Delta":224874589},{"NoteNumber":43,"Velocity":62,"Duration":154639,"SoundDuration":154639,"Delta":224874589},{"NoteNumber":47,"Velocity":62,"Duration":154639,"SoundDuration":154639,"Delta":224874589},{"NoteNumber":50,"Velocity":62,"Duration":154639,"SoundDuration":154639,"Delta":224874589},{"NoteNumber":55,"Velocity":73,"Duration":154639,"SoundDuration":154639,"Delta":224874589},{"NoteNumber":72,"Velocity":76,"Duration":151729,"SoundDuration":151729,"Delta":225183867},{"NoteNumber":75,"Velocity":76,"Duration":151729,"SoundDuration":151729,"Delta":225183867},{"NoteNumber":79,"Velocity":76,"Duration":151729,"SoundDuration":151729,"Delta":225183867},{"NoteNumber":84,"Velocity":90,"Duration":151729,"SoundDuration":151729,"Delta":225183867},{"NoteNumber":36,"Velocity":76,"Duration":151729,"SoundDuration":151729,"Delta":225183867},{"NoteNumber":48,"Velocity":52,"Duration":146341,"SoundDuration":146341,"Delta":225335596},{"NoteNumber":47,"Velocity":60,"Duration":143609,"SoundDuration":143609,"Delta":225481938},{"NoteNumber":48,"Velocity":52,"Duration":143609,"SoundDuration":143609,"Delta":225625547},{"NoteNumber":46,"Velocity":64,"Duration":149284,"SoundDuration":149284,"Delta":225769157},{"NoteNumber":72,"Velocity":68,"Duration":95739,"SoundDuration":95739,"Delta":225870572},{"NoteNumber":48,"Velocity":51,"Duration":143609,"SoundDuration":143609,"Delta":225918441},{"NoteNumber":74,"Velocity":70,"Duration":95739,"SoundDuration":95739,"Delta":225966311},{"NoteNumber":76,"Velocity":73,"Duration":95739,"SoundDuration":95739,"Delta":226062051},{"NoteNumber":43,"Velocity":57,"Duration":143609,"SoundDuration":143609,"Delta":226062051},{"NoteNumber":74,"Velocity":70,"Duration":95739,"SoundDuration":95739,"Delta":226157791},{"NoteNumber":48,"Velocity":50,"Duration":143609,"SoundDuration":143609,"Delta":226205660},{"NoteNumber":72,"Velocity":66,"Duration":95739,"SoundDuration":95739,"Delta":226253530},{"NoteNumber":77,"Velocity":77,"Duration":151729,"SoundDuration":151729,"Delta":226349270},{"NoteNumber":44,"Velocity":63,"Duration":151729,"SoundDuration":151729,"Delta":226349270},{"NoteNumber":48,"Velocity":50,"Duration":146341,"SoundDuration":146341,"Delta":226500999},{"NoteNumber":41,"Velocity":57,"Duration":143609,"SoundDuration":143609,"Delta":226647341},{"NoteNumber":48,"Velocity":50,"Duration":143609,"SoundDuration":143609,"Delta":226790950},{"NoteNumber":46,"Velocity":59,"Duration":149284,"SoundDuration":149284,"Delta":226934560},{"NoteNumber":72,"Velocity":66,"Duration":95739,"SoundDuration":95739,"Delta":227035975},{"NoteNumber":48,"Velocity":50,"Duration":143609,"SoundDuration":143609,"Delta":227083844},{"NoteNumber":74,"Velocity":69,"Duration":95739,"SoundDuration":95739,"Delta":227131714},{"NoteNumber":76,"Velocity":72,"Duration":95739,"SoundDuration":95739,"Delta":227227454},{"NoteNumber":43,"Velocity":55,"Duration":143609,"SoundDuration":143609,"Delta":227227454},{"NoteNumber":74,"Velocity":70,"Duration":95739,"SoundDuration":95739,"Delta":227323194},{"NoteNumber":48,"Velocity":50,"Duration":143609,"SoundDuration":143609,"Delta":227371063},{"NoteNumber":72,"Velocity":67,"Duration":95739,"SoundDuration":95739,"Delta":227418933},{"NoteNumber":77,"Velocity":77,"Duration":151729,"SoundDuration":151729,"Delta":227514673},{"NoteNumber":44,"Velocity":63,"Duration":151729,"SoundDuration":151729,"Delta":227514673},{"NoteNumber":48,"Velocity":50,"Duration":146341,"SoundDuration":146341,"Delta":227666402},{"NoteNumber":41,"Velocity":57,"Duration":143609,"SoundDuration":143609,"Delta":227812744},{"NoteNumber":48,"Velocity":50,"Duration":143609,"SoundDuration":143609,"Delta":227956353},{"NoteNumber":46,"Velocity":59,"Duration":149284,"SoundDuration":149284,"Delta":228099963},{"NoteNumber":60,"Velocity":66,"Duration":95739,"SoundDuration":95739,"Delta":228201378},{"NoteNumber":48,"Velocity":50,"Duration":143609,"SoundDuration":143609,"Delta":228249247},{"NoteNumber":62,"Velocity":69,"Duration":95739,"SoundDuration":95739,"Delta":228297117},{"NoteNumber":64,"Velocity":72,"Duration":95739,"SoundDuration":95739,"Delta":228392857},{"NoteNumber":43,"Velocity":55,"Duration":143609,"SoundDuration":143609,"Delta":228392857},{"NoteNumber":62,"Velocity":70,"Duration":95739,"SoundDuration":95739,"Delta":228488597},{"NoteNumber":48,"Velocity":50,"Duration":147620,"SoundDuration":147620,"Delta":228536466},{"NoteNumber":60,"Velocity":67,"Duration":99750,"SoundDuration":99750,"Delta":228584336},{"NoteNumber":65,"Velocity":63,"Duration":95693,"SoundDuration":95693,"Delta":228684087},{"NoteNumber":44,"Velocity":45,"Duration":287081,"SoundDuration":287081,"Delta":228684087},{"NoteNumber":60,"Velocity":50,"Duration":95693,"SoundDuration":95693,"Delta":228779781},{"NoteNumber":62,"Velocity":50,"Duration":95693,"SoundDuration":95693,"Delta":228875474},{"NoteNumber":63,"Velocity":63,"Duration":95693,"SoundDuration":95693,"Delta":228971168},{"NoteNumber":44,"Velocity":45,"Duration":290889,"SoundDuration":290889,"Delta":228971168},{"NoteNumber":56,"Velocity":45,"Duration":290889,"SoundDuration":290889,"Delta":228971168},{"NoteNumber":62,"Velocity":50,"Duration":95693,"SoundDuration":95693,"Delta":229066862},{"NoteNumber":60,"Velocity":50,"Duration":99502,"SoundDuration":99502,"Delta":229162555},{"NoteNumber":66,"Velocity":68,"Duration":95465,"SoundDuration":95465,"Delta":229262058},{"NoteNumber":60,"Velocity":52,"Duration":95465,"SoundDuration":95465,"Delta":229357523},{"NoteNumber":62,"Velocity":53,"Duration":95465,"SoundDuration":95465,"Delta":229452988},{"NoteNumber":63,"Velocity":60,"Duration":95465,"SoundDuration":95465,"Delta":229548454},{"NoteNumber":44,"Velocity":41,"Duration":143198,"SoundDuration":143198,"Delta":229548454},{"NoteNumber":48,"Velocity":41,"Duration":143198,"SoundDuration":143198,"Delta":229548454},{"NoteNumber":51,"Velocity":41,"Duration":143198,"SoundDuration":143198,"Delta":229548454},{"NoteNumber":56,"Velocity":49,"Duration":143198,"SoundDuration":143198,"Delta":229548454},{"NoteNumber":62,"Velocity":50,"Duration":95465,"SoundDuration":95465,"Delta":229643919},{"NoteNumber":60,"Velocity":50,"Duration":99502,"SoundDuration":99502,"Delta":229739384},{"NoteNumber":67,"Velocity":69,"Duration":95465,"SoundDuration":95465,"Delta":229838887},{"NoteNumber":60,"Velocity":51,"Duration":95465,"SoundDuration":95465,"Delta":229934352},{"NoteNumber":62,"Velocity":52,"Duration":95465,"SoundDuration":95465,"Delta":230029817},{"NoteNumber":63,"Velocity":58,"Duration":95465,"SoundDuration":95465,"Delta":230125283},{"NoteNumber":43,"Velocity":44,"Duration":143198,"SoundDuration":143198,"Delta":230125283},{"NoteNumber":48,"Velocity":44,"Duration":143198,"SoundDuration":143198,"Delta":230125283},{"NoteNumber":51,"Velocity":44,"Duration":143198,"SoundDuration":143198,"Delta":230125283},{"NoteNumber":55,"Velocity":52,"Duration":143198,"SoundDuration":143198,"Delta":230125283},{"NoteNumber":62,"Velocity":51,"Duration":95465,"SoundDuration":95465,"Delta":230220748},{"NoteNumber":60,"Velocity":52,"Duration":99255,"SoundDuration":99255,"Delta":230316213},{"NoteNumber":69,"Velocity":69,"Duration":95011,"SoundDuration":95011,"Delta":230415469},{"NoteNumber":60,"Velocity":54,"Duration":95011,"SoundDuration":95011,"Delta":230510481},{"NoteNumber":62,"Velocity":55,"Duration":95011,"SoundDuration":95011,"Delta":230605493},{"NoteNumber":63,"Velocity":62,"Duration":95011,"SoundDuration":95011,"Delta":230700505},{"NoteNumber":42,"Velocity":46,"Duration":142517,"SoundDuration":142517,"Delta":230700505},{"NoteNumber":48,"Velocity":46,"Duration":142517,"SoundDuration":142517,"Delta":230700505},{"NoteNumber":51,"Velocity":46,"Duration":142517,"SoundDuration":142517,"Delta":230700505},{"NoteNumber":54,"Velocity":55,"Duration":142517,"SoundDuration":142517,"Delta":230700505},{"NoteNumber":62,"Velocity":55,"Duration":95011,"SoundDuration":95011,"Delta":230795517},{"NoteNumber":60,"Velocity":55,"Duration":99750,"SoundDuration":99750,"Delta":230890529},{"NoteNumber":71,"Velocity":70,"Duration":94786,"SoundDuration":94786,"Delta":230990280},{"NoteNumber":59,"Velocity":55,"Duration":94786,"SoundDuration":94786,"Delta":231085066},{"NoteNumber":60,"Velocity":55,"Duration":94786,"SoundDuration":94786,"Delta":231179853},{"NoteNumber":62,"Velocity":61,"Duration":94786,"SoundDuration":94786,"Delta":231274640},{"NoteNumber":41,"Velocity":48,"Duration":142179,"SoundDuration":142179,"Delta":231274640},{"NoteNumber":47,"Velocity":48,"Duration":142179,"SoundDuration":142179,"Delta":231274640},{"NoteNumber":50,"Velocity":48,"Duration":142179,"SoundDuration":142179,"Delta":231274640},{"NoteNumber":53,"Velocity":57,"Duration":142179,"SoundDuration":142179,"Delta":231274640},{"NoteNumber":60,"Velocity":55,"Duration":94786,"SoundDuration":94786,"Delta":231369426},{"NoteNumber":59,"Velocity":54,"Duration":98522,"SoundDuration":98522,"Delta":231464213},{"NoteNumber":72,"Velocity":72,"Duration":94562,"SoundDuration":94562,"Delta":231562735},{"NoteNumber":60,"Velocity":55,"Duration":94562,"SoundDuration":94562,"Delta":231657298},{"NoteNumber":62,"Velocity":55,"Duration":94562,"SoundDuration":94562,"Delta":231751861},{"NoteNumber":63,"Velocity":63,"Duration":94562,"SoundDuration":94562,"Delta":231846423},{"NoteNumber":39,"Velocity":51,"Duration":141843,"SoundDuration":141843,"Delta":231846423},{"NoteNumber":43,"Velocity":51,"Duration":141843,"SoundDuration":141843,"Delta":231846423},{"NoteNumber":48,"Velocity":51,"Duration":141843,"SoundDuration":141843,"Delta":231846423},{"NoteNumber":51,"Velocity":60,"Duration":141843,"SoundDuration":141843,"Delta":231846423},{"NoteNumber":62,"Velocity":56,"Duration":94562,"SoundDuration":94562,"Delta":231940986},{"NoteNumber":60,"Velocity":58,"Duration":97793,"SoundDuration":97793,"Delta":232035549},{"NoteNumber":74,"Velocity":74,"Duration":94144,"SoundDuration":94144,"Delta":232133342},{"NoteNumber":62,"Velocity":56,"Duration":94144,"SoundDuration":94144,"Delta":232227487},{"NoteNumber":63,"Velocity":56,"Duration":94144,"SoundDuration":94144,"Delta":232321631},{"NoteNumber":65,"Velocity":62,"Duration":94144,"SoundDuration":94144,"Delta":232415775},{"NoteNumber":41,"Velocity":53,"Duration":141216,"SoundDuration":141216,"Delta":232415775},{"NoteNumber":44,"Velocity":53,"Duration":141216,"SoundDuration":141216,"Delta":232415775},{"NoteNumber":50,"Velocity":53,"Duration":141216,"SoundDuration":141216,"Delta":232415775},{"NoteNumber":53,"Velocity":63,"Duration":141216,"SoundDuration":141216,"Delta":232415775},{"NoteNumber":63,"Velocity":54,"Duration":94144,"SoundDuration":94144,"Delta":232509920},{"NoteNumber":62,"Velocity":54,"Duration":99255,"SoundDuration":99255,"Delta":232604064},{"NoteNumber":71,"Velocity":75,"Duration":94339,"SoundDuration":94339,"Delta":232703320},{"NoteNumber":59,"Velocity":53,"Duration":94339,"SoundDuration":94339,"Delta":232797659},{"NoteNumber":60,"Velocity":53,"Duration":94339,"SoundDuration":94339,"Delta":232891999},{"NoteNumber":62,"Velocity":65,"Duration":94339,"SoundDuration":94339,"Delta":232986339},{"NoteNumber":43,"Velocity":56,"Duration":141509,"SoundDuration":141509,"Delta":232986339},{"NoteNumber":47,"Velocity":56,"Duration":141509,"SoundDuration":141509,"Delta":232986339},{"NoteNumber":50,"Velocity":56,"Duration":141509,"SoundDuration":141509,"Delta":232986339},{"NoteNumber":55,"Velocity":66,"Duration":141509,"SoundDuration":141509,"Delta":232986339},{"NoteNumber":60,"Velocity":55,"Duration":94339,"SoundDuration":94339,"Delta":233080678},{"NoteNumber":59,"Velocity":55,"Duration":99010,"SoundDuration":99010,"Delta":233175018},{"NoteNumber":60,"Velocity":67,"Duration":300751,"SoundDuration":300751,"Delta":233274028},{"NoteNumber":72,"Velocity":79,"Duration":300751,"SoundDuration":300751,"Delta":233274028},{"NoteNumber":36,"Velocity":65,"Duration":150375,"SoundDuration":150375,"Delta":233274028},{"NoteNumber":48,"Velocity":77,"Duration":150375,"SoundDuration":150375,"Delta":233274028},{"NoteNumber":51,"Velocity":70,"Duration":863398,"SoundDuration":863398,"Delta":233574780},{"NoteNumber":55,"Velocity":70,"Duration":863398,"SoundDuration":863398,"Delta":233574780},{"NoteNumber":60,"Velocity":83,"Duration":863398,"SoundDuration":863398,"Delta":233574780},{"NoteNumber":79,"Velocity":84,"Duration":285714,"SoundDuration":285714,"Delta":233866751},{"NoteNumber":77,"Velocity":80,"Duration":71428,"SoundDuration":71428,"Delta":234152465},{"NoteNumber":75,"Velocity":79,"Duration":71428,"SoundDuration":71428,"Delta":234223893},{"NoteNumber":74,"Velocity":78,"Duration":71428,"SoundDuration":71428,"Delta":234295322},{"NoteNumber":72,"Velocity":77,"Duration":71428,"SoundDuration":71428,"Delta":234366750},{"NoteNumber":74,"Velocity":79,"Duration":150375,"SoundDuration":150375,"Delta":234438179},{"NoteNumber":53,"Velocity":65,"Duration":150375,"SoundDuration":150375,"Delta":234438179},{"NoteNumber":56,"Velocity":65,"Duration":150375,"SoundDuration":150375,"Delta":234438179},{"NoteNumber":60,"Velocity":65,"Duration":150375,"SoundDuration":150375,"Delta":234438179},{"NoteNumber":62,"Velocity":77,"Duration":150375,"SoundDuration":150375,"Delta":234438179},{"NoteNumber":55,"Velocity":70,"Duration":863348,"SoundDuration":863348,"Delta":234738931},{"NoteNumber":59,"Velocity":70,"Duration":863348,"SoundDuration":863348,"Delta":234738931},{"NoteNumber":62,"Velocity":83,"Duration":863348,"SoundDuration":863348,"Delta":234738931},{"NoteNumber":77,"Velocity":84,"Duration":286395,"SoundDuration":286395,"Delta":235029488},{"NoteNumber":75,"Velocity":80,"Duration":71598,"SoundDuration":71598,"Delta":235315884},{"NoteNumber":74,"Velocity":79,"Duration":71599,"SoundDuration":71599,"Delta":235387483},{"NoteNumber":72,"Velocity":78,"Duration":71598,"SoundDuration":71598,"Delta":235459082},{"NoteNumber":71,"Velocity":77,"Duration":71598,"SoundDuration":71598,"Delta":235530681},{"NoteNumber":72,"Velocity":79,"Duration":150375,"SoundDuration":150375,"Delta":235602280},{"NoteNumber":51,"Velocity":65,"Duration":150375,"SoundDuration":150375,"Delta":235602280},{"NoteNumber":55,"Velocity":65,"Duration":150375,"SoundDuration":150375,"Delta":235602280},{"NoteNumber":60,"Velocity":77,"Duration":150375,"SoundDuration":150375,"Delta":235602280},{"NoteNumber":51,"Velocity":70,"Duration":861985,"SoundDuration":861985,"Delta":235903032},{"NoteNumber":55,"Velocity":70,"Duration":861985,"SoundDuration":861985,"Delta":235903032},{"NoteNumber":60,"Velocity":83,"Duration":861985,"SoundDuration":861985,"Delta":235903032},{"NoteNumber":79,"Velocity":84,"Duration":285714,"SoundDuration":285714,"Delta":236193589},{"NoteNumber":77,"Velocity":80,"Duration":71428,"SoundDuration":71428,"Delta":236479303},{"NoteNumber":75,"Velocity":79,"Duration":71428,"SoundDuration":71428,"Delta":236550731},{"NoteNumber":74,"Velocity":78,"Duration":71428,"SoundDuration":71428,"Delta":236622160},{"NoteNumber":72,"Velocity":77,"Duration":71428,"SoundDuration":71428,"Delta":236693588},{"NoteNumber":74,"Velocity":79,"Duration":150375,"SoundDuration":150375,"Delta":236765017},{"NoteNumber":53,"Velocity":65,"Duration":150375,"SoundDuration":150375,"Delta":236765017},{"NoteNumber":56,"Velocity":65,"Duration":150375,"SoundDuration":150375,"Delta":236765017},{"NoteNumber":60,"Velocity":65,"Duration":150375,"SoundDuration":150375,"Delta":236765017},{"NoteNumber":62,"Velocity":77,"Duration":150375,"SoundDuration":150375,"Delta":236765017},{"NoteNumber":55,"Velocity":70,"Duration":861985,"SoundDuration":861985,"Delta":237065769},{"NoteNumber":59,"Velocity":70,"Duration":861985,"SoundDuration":861985,"Delta":237065769},{"NoteNumber":62,"Velocity":83,"Duration":861985,"SoundDuration":861985,"Delta":237065769},{"NoteNumber":77,"Velocity":84,"Duration":285714,"SoundDuration":285714,"Delta":237356326},{"NoteNumber":75,"Velocity":80,"Duration":71428,"SoundDuration":71428,"Delta":237642040},{"NoteNumber":74,"Velocity":79,"Duration":71428,"SoundDuration":71428,"Delta":237713468},{"NoteNumber":72,"Velocity":78,"Duration":71428,"SoundDuration":71428,"Delta":237784897},{"NoteNumber":71,"Velocity":77,"Duration":71428,"SoundDuration":71428,"Delta":237856325},{"NoteNumber":72,"Velocity":79,"Duration":150375,"SoundDuration":150375,"Delta":237927754},{"NoteNumber":51,"Velocity":65,"Duration":150375,"SoundDuration":150375,"Delta":237927754},{"NoteNumber":55,"Velocity":65,"Duration":150375,"SoundDuration":150375,"Delta":237927754},{"NoteNumber":60,"Velocity":77,"Duration":150375,"SoundDuration":150375,"Delta":237927754},{"NoteNumber":51,"Velocity":70,"Duration":863348,"SoundDuration":863348,"Delta":238228506},{"NoteNumber":55,"Velocity":70,"Duration":863348,"SoundDuration":863348,"Delta":238228506},{"NoteNumber":60,"Velocity":83,"Duration":863348,"SoundDuration":863348,"Delta":238228506},{"NoteNumber":79,"Velocity":84,"Duration":286395,"SoundDuration":286395,"Delta":238519063},{"NoteNumber":77,"Velocity":80,"Duration":71598,"SoundDuration":71598,"Delta":238805459},{"NoteNumber":75,"Velocity":79,"Duration":71599,"SoundDuration":71599,"Delta":238877058},{"NoteNumber":74,"Velocity":78,"Duration":71598,"SoundDuration":71598,"Delta":238948657},{"NoteNumber":72,"Velocity":77,"Duration":71598,"SoundDuration":71598,"Delta":239020256},{"NoteNumber":73,"Velocity":79,"Duration":175952,"SoundDuration":175952,"Delta":239091855},{"NoteNumber":53,"Velocity":65,"Duration":175952,"SoundDuration":175952,"Delta":239091855},{"NoteNumber":56,"Velocity":65,"Duration":175952,"SoundDuration":175952,"Delta":239091855},{"NoteNumber":61,"Velocity":77,"Duration":175952,"SoundDuration":175952,"Delta":239091855},{"NoteNumber":53,"Velocity":70,"Duration":636604,"SoundDuration":636604,"Delta":239443761},{"NoteNumber":56,"Velocity":70,"Duration":636604,"SoundDuration":636604,"Delta":239443761},{"NoteNumber":61,"Velocity":83,"Duration":636604,"SoundDuration":636604,"Delta":239443761},{"NoteNumber":89,"Velocity":100,"Duration":2103928,"SoundDuration":2103928,"Delta":239762063},{"NoteNumber":53,"Velocity":71,"Duration":240963,"SoundDuration":240963,"Delta":240080365},{"NoteNumber":56,"Velocity":71,"Duration":240963,"SoundDuration":240963,"Delta":240080365},{"NoteNumber":61,"Velocity":84,"Duration":240963,"SoundDuration":240963,"Delta":240080365},{"NoteNumber":55,"Velocity":77,"Duration":2193587,"SoundDuration":2193587,"Delta":240562293},{"NoteNumber":58,"Velocity":77,"Duration":2193587,"SoundDuration":2193587,"Delta":240562293},{"NoteNumber":61,"Velocity":77,"Duration":2193587,"SoundDuration":2193587,"Delta":240562293},{"NoteNumber":63,"Velocity":91,"Duration":2193587,"SoundDuration":2193587,"Delta":240562293},{"NoteNumber":87,"Velocity":86,"Duration":106786,"SoundDuration":106786,"Delta":241865991},{"NoteNumber":85,"Velocity":85,"Duration":104516,"SoundDuration":104516,"Delta":241972778},{"NoteNumber":84,"Velocity":83,"Duration":102342,"SoundDuration":102342,"Delta":242077295},{"NoteNumber":82,"Velocity":82,"Duration":99714,"SoundDuration":99714,"Delta":242179637},{"NoteNumber":80,"Velocity":81,"Duration":97853,"SoundDuration":97853,"Delta":242279352},{"NoteNumber":79,"Velocity":79,"Duration":96093,"SoundDuration":96093,"Delta":242377206},{"NoteNumber":77,"Velocity":78,"Duration":94701,"SoundDuration":94701,"Delta":242473299},{"NoteNumber":75,"Velocity":77,"Duration":94191,"SoundDuration":94191,"Delta":242568001},{"NoteNumber":73,"Velocity":75,"Duration":93688,"SoundDuration":93688,"Delta":242662192},{"NoteNumber":72,"Velocity":74,"Duration":46733,"SoundDuration":46733,"Delta":242755880},{"NoteNumber":70,"Velocity":72,"Duration":46733,"SoundDuration":46733,"Delta":242802614},{"NoteNumber":68,"Velocity":71,"Duration":46733,"SoundDuration":46733,"Delta":242849347},{"NoteNumber":67,"Velocity":70,"Duration":46733,"SoundDuration":46733,"Delta":242896080},{"NoteNumber":65,"Velocity":68,"Duration":46733,"SoundDuration":46733,"Delta":242942814},{"NoteNumber":63,"Velocity":69,"Duration":46733,"SoundDuration":46733,"Delta":242989547},{"NoteNumber":61,"Velocity":70,"Duration":41064,"SoundDuration":41064,"Delta":243036280},{"NoteNumber":60,"Velocity":71,"Duration":42930,"SoundDuration":42930,"Delta":243077345},{"NoteNumber":58,"Velocity":71,"Duration":44933,"SoundDuration":44933,"Delta":243120276},{"NoteNumber":56,"Velocity":71,"Duration":47100,"SoundDuration":47100,"Delta":243165209},{"NoteNumber":55,"Velocity":71,"Duration":49573,"SoundDuration":49573,"Delta":243212310},{"NoteNumber":53,"Velocity":71,"Duration":52939,"SoundDuration":52939,"Delta":243261883},{"NoteNumber":51,"Velocity":71,"Duration":61643,"SoundDuration":61643,"Delta":243314823},{"NoteNumber":49,"Velocity":93,"Duration":2834645,"SoundDuration":2834645,"Delta":243376467},{"NoteNumber":31,"Velocity":69,"Duration":2834645,"SoundDuration":2834645,"Delta":243376467},{"NoteNumber":39,"Velocity":69,"Duration":2834645,"SoundDuration":2834645,"Delta":243376467},{"NoteNumber":43,"Velocity":82,"Duration":2834645,"SoundDuration":2834645,"Delta":243376467},{"NoteNumber":56,"Velocity":49,"Duration":151133,"SoundDuration":151133,"Delta":246513380},{"NoteNumber":58,"Velocity":51,"Duration":157811,"SoundDuration":157811,"Delta":246664513},{"NoteNumber":60,"Velocity":52,"Duration":454544,"SoundDuration":454544,"Delta":246822325},{"NoteNumber":44,"Velocity":40,"Duration":1226446,"SoundDuration":1226446,"Delta":246822325},{"NoteNumber":51,"Velocity":40,"Duration":612439,"SoundDuration":612439,"Delta":246822325},{"NoteNumber":61,"Velocity":50,"Duration":157894,"SoundDuration":157894,"Delta":247276870},{"NoteNumber":58,"Velocity":53,"Duration":455695,"SoundDuration":455695,"Delta":247434764},{"NoteNumber":49,"Velocity":40,"Duration":614006,"SoundDuration":614006,"Delta":247434764},{"NoteNumber":60,"Velocity":50,"Duration":158311,"SoundDuration":158311,"Delta":247890460},{"NoteNumber":56,"Velocity":52,"Duration":304568,"SoundDuration":304568,"Delta":248048771},{"NoteNumber":44,"Velocity":40,"Duration":304568,"SoundDuration":304568,"Delta":248048771},{"NoteNumber":48,"Velocity":40,"Duration":304568,"SoundDuration":304568,"Delta":248048771},{"NoteNumber":68,"Velocity":46,"Duration":151898,"SoundDuration":151898,"Delta":248962478},{"NoteNumber":70,"Velocity":48,"Duration":157811,"SoundDuration":157811,"Delta":249114377},{"NoteNumber":72,"Velocity":49,"Duration":454544,"SoundDuration":454544,"Delta":249272188},{"NoteNumber":56,"Velocity":38,"Duration":1226446,"SoundDuration":1226446,"Delta":249272188},{"NoteNumber":63,"Velocity":38,"Duration":612439,"SoundDuration":612439,"Delta":249272188},{"NoteNumber":73,"Velocity":47,"Duration":157894,"SoundDuration":157894,"Delta":249726733},{"NoteNumber":70,"Velocity":49,"Duration":455695,"SoundDuration":455695,"Delta":249884628},{"NoteNumber":61,"Velocity":37,"Duration":614006,"SoundDuration":614006,"Delta":249884628},{"NoteNumber":72,"Velocity":46,"Duration":158311,"SoundDuration":158311,"Delta":250340323},{"NoteNumber":68,"Velocity":47,"Duration":303797,"SoundDuration":303797,"Delta":250498635},{"NoteNumber":56,"Velocity":36,"Duration":303797,"SoundDuration":303797,"Delta":250498635},{"NoteNumber":60,"Velocity":36,"Duration":303797,"SoundDuration":303797,"Delta":250498635},{"NoteNumber":72,"Velocity":40,"Duration":310880,"SoundDuration":310880,"Delta":251410026},{"NoteNumber":78,"Velocity":40,"Duration":310880,"SoundDuration":310880,"Delta":251720907},{"NoteNumber":75,"Velocity":40,"Duration":310880,"SoundDuration":310880,"Delta":251720907},{"NoteNumber":68,"Velocity":35,"Duration":310880,"SoundDuration":310880,"Delta":251720907},{"NoteNumber":72,"Velocity":40,"Duration":310880,"SoundDuration":310880,"Delta":252653550},{"NoteNumber":79,"Velocity":40,"Duration":310880,"SoundDuration":310880,"Delta":252964431},{"NoteNumber":75,"Velocity":40,"Duration":310880,"SoundDuration":310880,"Delta":252964431},{"NoteNumber":67,"Velocity":34,"Duration":310880,"SoundDuration":310880,"Delta":252964431},{"NoteNumber":87,"Velocity":97,"Duration":97561,"SoundDuration":97561,"Delta":253897074},{"NoteNumber":86,"Velocity":90,"Duration":97560,"SoundDuration":97560,"Delta":253994635},{"NoteNumber":84,"Velocity":90,"Duration":97561,"SoundDuration":97561,"Delta":254092196},{"NoteNumber":89,"Velocity":96,"Duration":96679,"SoundDuration":96679,"Delta":254189757},{"NoteNumber":43,"Velocity":67,"Duration":289683,"SoundDuration":289683,"Delta":254189757},{"NoteNumber":47,"Velocity":67,"Duration":289683,"SoundDuration":289683,"Delta":254189757},{"NoteNumber":50,"Velocity":67,"Duration":289683,"SoundDuration":289683,"Delta":254189757},{"NoteNumber":55,"Velocity":79,"Duration":289683,"SoundDuration":289683,"Delta":254189757},{"NoteNumber":87,"Velocity":89,"Duration":96385,"SoundDuration":96385,"Delta":254286436},{"NoteNumber":86,"Velocity":90,"Duration":96618,"SoundDuration":96618,"Delta":254382822},{"NoteNumber":84,"Velocity":97,"Duration":96735,"SoundDuration":96735,"Delta":254479440},{"NoteNumber":83,"Velocity":92,"Duration":96852,"SoundDuration":96852,"Delta":254576176},{"NoteNumber":80,"Velocity":92,"Duration":97028,"SoundDuration":97028,"Delta":254673028},{"NoteNumber":79,"Velocity":90,"Duration":97146,"SoundDuration":97146,"Delta":254770057},{"NoteNumber":77,"Velocity":92,"Duration":97323,"SoundDuration":97323,"Delta":254867203},{"NoteNumber":75,"Velocity":93,"Duration":97442,"SoundDuration":97442,"Delta":254964527},{"NoteNumber":74,"Velocity":95,"Duration":97561,"SoundDuration":97561,"Delta":255061969},{"NoteNumber":72,"Velocity":97,"Duration":97799,"SoundDuration":97799,"Delta":255159530},{"NoteNumber":71,"Velocity":99,"Duration":97919,"SoundDuration":97919,"Delta":255257330},{"NoteNumber":72,"Velocity":101,"Duration":294118,"SoundDuration":294118,"Delta":255355249},{"NoteNumber":36,"Velocity":69,"Duration":294118,"SoundDuration":294118,"Delta":255355249},{"NoteNumber":39,"Velocity":69,"Duration":294118,"SoundDuration":294118,"Delta":255355249},{"NoteNumber":43,"Velocity":69,"Duration":294118,"SoundDuration":294118,"Delta":255355249},{"NoteNumber":48,"Velocity":82,"Duration":294118,"SoundDuration":294118,"Delta":255355249}],"license":{"name":"Creative Commons Attribution-ShareAlike 3.0 Germany","url":"http://creativecommons.org/licenses/by-sa/3.0/de/deed.en","text":"The MIDI files in this folder were downloaded from http://www.piano-midi.de and are licensed under the Creative Commons Attribution-ShareAlike 3.0 Germany license by Bernd Krueger.\n\nThe MIDI, audio(MP3, OGG) and video files of Bernd Krueger are licensed under the cc-by-sa Germany License . This means, that you can use and adapt the files, as long as you attribute to the copyright holder Name: Bernd Krueger Source: http://www.piano-midi.de The distribution or public playback of the files is only allowed under identical license conditions . The scores are open source.","attribution":"Bernd Krueger","attributionUrl":"http://www.piano-midi.de"}}