{"title":"Piano Sonata No. 26 in E-flat major, Op. 81a 'Les Adieux': II. Abwesenheit","artist":"Beethoven","durationMs":173542,"midiSha256":"227bced92fbf1bae3afb3e9909d1828cf084d55fb17827f24720f415cfe2475b","midiObject":[{"NoteNumber":67,"Velocity":40,"Duration":800000,"SoundDuration":800000,"Delta":0},{"NoteNumber":48,"Velocity":30,"Duration":4266668,"SoundDuration":4266668,"Delta":0},{"NoteNumber":63,"Velocity":30,"Duration":4266668,"SoundDuration":4266668,"Delta":0},{"NoteNumber":66,"Velocity":36,"Duration":266666,"SoundDuration":266666,"Delta":800000},{"NoteNumber":69,"Velocity":40,"Duration":3200001,"SoundDuration":3200001,"Delta":1066667},{"NoteNumber":54,"Velocity":23,"Duration":1066667,"SoundDuration":1066667,"Delta":1066667},{"NoteNumber":57,"Velocity":29,"Duration":1066667,"SoundDuration":1066667,"Delta":2133334},{"NoteNumber":54,"Velocity":23,"Duration":1066666,"SoundDuration":1066666,"Delta":3200001},{"NoteNumber":67,"Velocity":40,"Duration":800000,"SoundDuration":800000,"Delta":4266668},{"NoteNumber":48,"Velocity":30,"Duration":4280968,"SoundDuration":4280968,"Delta":4266668},{"NoteNumber":63,"Velocity":30,"Duration":4280968,"SoundDuration":4280968,"Delta":4266668},{"NoteNumber":66,"Velocity":36,"Duration":266666,"SoundDuration":266666,"Delta":5066668},{"NoteNumber":69,"Velocity":40,"Duration":2951879,"SoundDuration":2951879,"Delta":5333335},{"NoteNumber":54,"Velocity":23,"Duration":1066666,"SoundDuration":1066666,"Delta":5333335},{"NoteNumber":57,"Velocity":29,"Duration":1097949,"SoundDuration":1097949,"Delta":6400002},{"NoteNumber":69,"Velocity":46,"Duration":1049685,"SoundDuration":1049685,"Delta":7497951},{"NoteNumber":54,"Velocity":23,"Duration":1049685,"SoundDuration":1049685,"Delta":7497951},{"NoteNumber":75,"Velocity":42,"Duration":249300,"SoundDuration":249300,"Delta":8285214},{"NoteNumber":75,"Velocity":52,"Duration":1049685,"SoundDuration":1049685,"Delta":8547636},{"NoteNumber":62,"Velocity":29,"Duration":1061331,"SoundDuration":1061331,"Delta":9597321},{"NoteNumber":74,"Velocity":40,"Duration":781114,"SoundDuration":781114,"Delta":9597321},{"NoteNumber":47,"Velocity":24,"Duration":1061331,"SoundDuration":1061331,"Delta":9597321},{"NoteNumber":55,"Velocity":29,"Duration":1061331,"SoundDuration":1061331,"Delta":9597321},{"NoteNumber":67,"Velocity":36,"Duration":266205,"SoundDuration":266205,"Delta":10378435},{"NoteNumber":67,"Velocity":41,"Duration":1033236,"SoundDuration":1033236,"Delta":10658652},{"NoteNumber":60,"Velocity":29,"Duration":1038128,"SoundDuration":1038128,"Delta":11691888},{"NoteNumber":66,"Velocity":40,"Duration":771462,"SoundDuration":771462,"Delta":11691888},{"NoteNumber":50,"Velocity":24,"Duration":1038128,"SoundDuration":1038128,"Delta":11691888},{"NoteNumber":57,"Velocity":29,"Duration":1038128,"SoundDuration":1038128,"Delta":11691888},{"NoteNumber":69,"Velocity":36,"Duration":253333,"SoundDuration":253333,"Delta":12463350},{"NoteNumber":69,"Velocity":44,"Duration":774139,"SoundDuration":774139,"Delta":12730017},{"NoteNumber":71,"Velocity":40,"Duration":2177348,"SoundDuration":2177348,"Delta":13504157},{"NoteNumber":59,"Velocity":25,"Duration":1025290,"SoundDuration":1025290,"Delta":13770823},{"NoteNumber":62,"Velocity":30,"Duration":1025290,"SoundDuration":1025290,"Delta":13770823},{"NoteNumber":43,"Velocity":20,"Duration":1025290,"SoundDuration":1025290,"Delta":13770823},{"NoteNumber":55,"Velocity":24,"Duration":1025290,"SoundDuration":1025290,"Delta":13770823},{"NoteNumber":59,"Velocity":20,"Duration":1003902,"SoundDuration":1003902,"Delta":14796113},{"NoteNumber":62,"Velocity":24,"Duration":1003902,"SoundDuration":1003902,"Delta":14796113},{"NoteNumber":43,"Velocity":20,"Duration":1003902,"SoundDuration":1003902,"Delta":14796113},{"NoteNumber":55,"Velocity":24,"Duration":1003902,"SoundDuration":1003902,"Delta":14796113},{"NoteNumber":72,"Velocity":34,"Duration":118511,"SoundDuration":118511,"Delta":15444482},{"NoteNumber":71,"Velocity":30,"Duration":237022,"SoundDuration":237022,"Delta":15562993},{"NoteNumber":69,"Velocity":30,"Duration":118511,"SoundDuration":118511,"Delta":15681505},{"NoteNumber":71,"Velocity":39,"Duration":508733,"SoundDuration":508733,"Delta":15800016},{"NoteNumber":72,"Velocity":46,"Duration":508733,"SoundDuration":508733,"Delta":16308750},{"NoteNumber":75,"Velocity":58,"Duration":800000,"SoundDuration":800000,"Delta":16817483},{"NoteNumber":53,"Velocity":30,"Duration":4266667,"SoundDuration":4266667,"Delta":16817483},{"NoteNumber":68,"Velocity":30,"Duration":4266667,"SoundDuration":4266667,"Delta":16817483},{"NoteNumber":74,"Velocity":52,"Duration":266666,"SoundDuration":266666,"Delta":17617484},{"NoteNumber":77,"Velocity":60,"Duration":2933334,"SoundDuration":2933334,"Delta":17884150},{"NoteNumber":59,"Velocity":31,"Duration":1066666,"SoundDuration":1066666,"Delta":17884150},{"NoteNumber":62,"Velocity":36,"Duration":1066667,"SoundDuration":1066667,"Delta":18950817},{"NoteNumber":59,"Velocity":32,"Duration":1066666,"SoundDuration":1066666,"Delta":20017484},{"NoteNumber":74,"Velocity":41,"Duration":133333,"SoundDuration":133333,"Delta":20817485},{"NoteNumber":77,"Velocity":42,"Duration":133333,"SoundDuration":133333,"Delta":20950818},{"NoteNumber":75,"Velocity":58,"Duration":800000,"SoundDuration":800000,"Delta":21084151},{"NoteNumber":53,"Velocity":34,"Duration":4280968,"SoundDuration":4280968,"Delta":21084151},{"NoteNumber":68,"Velocity":34,"Duration":4280968,"SoundDuration":4280968,"Delta":21084151},{"NoteNumber":74,"Velocity":53,"Duration":266666,"SoundDuration":266666,"Delta":21884152},{"NoteNumber":77,"Velocity":61,"Duration":3214301,"SoundDuration":3214301,"Delta":22150818},{"NoteNumber":59,"Velocity":36,"Duration":1066667,"SoundDuration":1066667,"Delta":22150818},{"NoteNumber":62,"Velocity":40,"Duration":1097949,"SoundDuration":1097949,"Delta":23217485},{"NoteNumber":74,"Velocity":63,"Duration":787263,"SoundDuration":787263,"Delta":24315434},{"NoteNumber":59,"Velocity":34,"Duration":1049685,"SoundDuration":1049685,"Delta":24315434},{"NoteNumber":80,"Velocity":61,"Duration":249300,"SoundDuration":249300,"Delta":25102698},{"NoteNumber":80,"Velocity":70,"Duration":1049685,"SoundDuration":1049685,"Delta":25365119},{"NoteNumber":67,"Velocity":33,"Duration":1061331,"SoundDuration":1061331,"Delta":26414804},{"NoteNumber":79,"Velocity":48,"Duration":781114,"SoundDuration":781114,"Delta":26414804},{"NoteNumber":51,"Velocity":27,"Duration":1061331,"SoundDuration":1061331,"Delta":26414804},{"NoteNumber":60,"Velocity":33,"Duration":1061331,"SoundDuration":1061331,"Delta":26414804},{"NoteNumber":72,"Velocity":41,"Duration":266205,"SoundDuration":266205,"Delta":27195919},{"NoteNumber":72,"Velocity":47,"Duration":1033235,"SoundDuration":1033235,"Delta":27476136},{"NoteNumber":65,"Velocity":33,"Duration":1038129,"SoundDuration":1038129,"Delta":28509372},{"NoteNumber":71,"Velocity":46,"Duration":771462,"SoundDuration":771462,"Delta":28509372},{"NoteNumber":55,"Velocity":27,"Duration":1038129,"SoundDuration":1038129,"Delta":28509372},{"NoteNumber":62,"Velocity":33,"Duration":1038129,"SoundDuration":1038129,"Delta":28509372},{"NoteNumber":74,"Velocity":41,"Duration":253333,"SoundDuration":253333,"Delta":29280834},{"NoteNumber":74,"Velocity":50,"Duration":774139,"SoundDuration":774139,"Delta":29547501},{"NoteNumber":75,"Velocity":46,"Duration":2490783,"SoundDuration":2490783,"Delta":30321640},{"NoteNumber":63,"Velocity":36,"Duration":1025289,"SoundDuration":1025289,"Delta":30588307},{"NoteNumber":48,"Velocity":24,"Duration":1025289,"SoundDuration":1025289,"Delta":30588307},{"NoteNumber":60,"Velocity":29,"Duration":1025289,"SoundDuration":1025289,"Delta":30588307},{"NoteNumber":63,"Velocity":29,"Duration":648368,"SoundDuration":648368,"Delta":31613597},{"NoteNumber":48,"Velocity":33,"Duration":648368,"SoundDuration":648368,"Delta":31613597},{"NoteNumber":60,"Velocity":33,"Duration":648368,"SoundDuration":648368,"Delta":31613597},{"NoteNumber":68,"Velocity":38,"Duration":550458,"SoundDuration":550458,"Delta":32261966},{"NoteNumber":63,"Velocity":35,"Duration":550458,"SoundDuration":550458,"Delta":32261966},{"NoteNumber":60,"Velocity":29,"Duration":550458,"SoundDuration":550458,"Delta":32261966},{"NoteNumber":67,"Velocity":43,"Duration":508474,"SoundDuration":508474,"Delta":32812424},{"NoteNumber":58,"Velocity":31,"Duration":508474,"SoundDuration":508474,"Delta":32812424},{"NoteNumber":61,"Velocity":31,"Duration":508474,"SoundDuration":508474,"Delta":32812424},{"NoteNumber":63,"Velocity":37,"Duration":508474,"SoundDuration":508474,"Delta":32812424},{"NoteNumber":68,"Velocity":49,"Duration":560747,"SoundDuration":560747,"Delta":33320898},{"NoteNumber":63,"Velocity":40,"Duration":560747,"SoundDuration":560747,"Delta":33320898},{"NoteNumber":60,"Velocity":34,"Duration":560747,"SoundDuration":560747,"Delta":33320898},{"NoteNumber":56,"Velocity":34,"Duration":560747,"SoundDuration":560747,"Delta":33320898},{"NoteNumber":72,"Velocity":59,"Duration":750000,"SoundDuration":750000,"Delta":33881646},{"NoteNumber":55,"Velocity":38,"Duration":1175531,"SoundDuration":1175531,"Delta":33881646},{"NoteNumber":58,"Velocity":38,"Duration":1175531,"SoundDuration":1175531,"Delta":33881646},{"NoteNumber":63,"Velocity":46,"Duration":1175531,"SoundDuration":1175531,"Delta":33881646},{"NoteNumber":70,"Velocity":44,"Duration":106383,"SoundDuration":106383,"Delta":34631646},{"NoteNumber":72,"Velocity":44,"Duration":106383,"SoundDuration":106383,"Delta":34738029},{"NoteNumber":70,"Velocity":44,"Duration":106383,"SoundDuration":106383,"Delta":34844412},{"NoteNumber":69,"Velocity":44,"Duration":106382,"SoundDuration":106382,"Delta":34950795},{"NoteNumber":70,"Velocity":52,"Duration":776928,"SoundDuration":776928,"Delta":35057178},{"NoteNumber":55,"Velocity":36,"Duration":1558130,"SoundDuration":1558130,"Delta":35057178},{"NoteNumber":58,"Velocity":36,"Duration":1558130,"SoundDuration":1558130,"Delta":35057178},{"NoteNumber":64,"Velocity":43,"Duration":1558130,"SoundDuration":1558130,"Delta":35057178},{"NoteNumber":72,"Velocity":55,"Duration":272727,"SoundDuration":272727,"Delta":35834107},{"NoteNumber":73,"Velocity":61,"Duration":1280106,"SoundDuration":1280106,"Delta":36106834},{"NoteNumber":53,"Velocity":34,"Duration":508474,"SoundDuration":508474,"Delta":36615308},{"NoteNumber":56,"Velocity":34,"Duration":508474,"SoundDuration":508474,"Delta":36615308},{"NoteNumber":61,"Velocity":40,"Duration":508474,"SoundDuration":508474,"Delta":36615308},{"NoteNumber":52,"Velocity":42,"Duration":526316,"SoundDuration":526316,"Delta":37123783},{"NoteNumber":55,"Velocity":42,"Duration":526316,"SoundDuration":526316,"Delta":37123783},{"NoteNumber":60,"Velocity":50,"Duration":526316,"SoundDuration":526316,"Delta":37123783},{"NoteNumber":72,"Velocity":56,"Duration":263158,"SoundDuration":263158,"Delta":37386941},{"NoteNumber":82,"Velocity":64,"Duration":288461,"SoundDuration":288461,"Delta":37650099},{"NoteNumber":52,"Velocity":34,"Duration":576923,"SoundDuration":576923,"Delta":37650099},{"NoteNumber":55,"Velocity":34,"Duration":576923,"SoundDuration":576923,"Delta":37650099},{"NoteNumber":60,"Velocity":40,"Duration":576923,"SoundDuration":576923,"Delta":37650099},{"NoteNumber":79,"Velocity":58,"Duration":274038,"SoundDuration":274038,"Delta":37938560},{"NoteNumber":79,"Velocity":67,"Duration":1637466,"SoundDuration":1637466,"Delta":38227022},{"NoteNumber":52,"Velocity":34,"Duration":1071429,"SoundDuration":1071429,"Delta":38227022},{"NoteNumber":55,"Velocity":34,"Duration":1071429,"SoundDuration":1071429,"Delta":38227022},{"NoteNumber":60,"Velocity":40,"Duration":1071429,"SoundDuration":1071429,"Delta":38227022},{"NoteNumber":53,"Velocity":24,"Duration":1132075,"SoundDuration":1132075,"Delta":39298451},{"NoteNumber":56,"Velocity":24,"Duration":1132075,"SoundDuration":1132075,"Delta":39298451},{"NoteNumber":60,"Velocity":29,"Duration":1132075,"SoundDuration":1132075,"Delta":39298451},{"NoteNumber":82,"Velocity":45,"Duration":283018,"SoundDuration":283018,"Delta":39864488},{"NoteNumber":80,"Velocity":45,"Duration":283018,"SoundDuration":283018,"Delta":40147507},{"NoteNumber":68,"Velocity":45,"Duration":517241,"SoundDuration":517241,"Delta":41562601},{"NoteNumber":67,"Velocity":39,"Duration":506465,"SoundDuration":506465,"Delta":42079842},{"NoteNumber":57,"Velocity":37,"Duration":3005051,"SoundDuration":3005051,"Delta":42597084},{"NoteNumber":60,"Velocity":37,"Duration":3005051,"SoundDuration":3005051,"Delta":42597084},{"NoteNumber":67,"Velocity":52,"Duration":743802,"SoundDuration":743802,"Delta":42597084},{"NoteNumber":38,"Velocity":27,"Duration":3005051,"SoundDuration":3005051,"Delta":42597084},{"NoteNumber":51,"Velocity":38,"Duration":1021579,"SoundDuration":1021579,"Delta":42597084},{"NoteNumber":66,"Velocity":45,"Duration":277777,"SoundDuration":277777,"Delta":43340886},{"NoteNumber":69,"Velocity":58,"Duration":1983471,"SoundDuration":1983471,"Delta":43618664},{"NoteNumber":42,"Velocity":43,"Duration":991736,"SoundDuration":991736,"Delta":43618664},{"NoteNumber":45,"Velocity":43,"Duration":991735,"SoundDuration":991735,"Delta":44610400},{"NoteNumber":62,"Velocity":51,"Duration":1019031,"SoundDuration":1019031,"Delta":45602136},{"NoteNumber":69,"Velocity":60,"Duration":743802,"SoundDuration":743802,"Delta":45602136},{"NoteNumber":46,"Velocity":32,"Duration":1019031,"SoundDuration":1019031,"Delta":45602136},{"NoteNumber":50,"Velocity":32,"Duration":1019031,"SoundDuration":1019031,"Delta":45602136},{"NoteNumber":58,"Velocity":45,"Duration":1019031,"SoundDuration":1019031,"Delta":45602136},{"NoteNumber":67,"Velocity":52,"Duration":261467,"SoundDuration":261467,"Delta":46345938},{"NoteNumber":60,"Velocity":52,"Duration":984556,"SoundDuration":984556,"Delta":46621167},{"NoteNumber":62,"Velocity":52,"Duration":984556,"SoundDuration":984556,"Delta":46621167},{"NoteNumber":67,"Velocity":62,"Duration":714285,"SoundDuration":714285,"Delta":46621167},{"NoteNumber":45,"Velocity":32,"Duration":984556,"SoundDuration":984556,"Delta":46621167},{"NoteNumber":50,"Velocity":32,"Duration":984556,"SoundDuration":984556,"Delta":46621167},{"NoteNumber":57,"Velocity":45,"Duration":984556,"SoundDuration":984556,"Delta":46621167},{"NoteNumber":66,"Velocity":50,"Duration":270270,"SoundDuration":270270,"Delta":47335453},{"NoteNumber":58,"Velocity":54,"Duration":985486,"SoundDuration":985486,"Delta":47605723},{"NoteNumber":62,"Velocity":54,"Duration":985486,"SoundDuration":985486,"Delta":47605723},{"NoteNumber":69,"Velocity":64,"Duration":719999,"SoundDuration":719999,"Delta":47605723},{"NoteNumber":43,"Velocity":32,"Duration":985486,"SoundDuration":985486,"Delta":47605723},{"NoteNumber":50,"Velocity":32,"Duration":985486,"SoundDuration":985486,"Delta":47605723},{"NoteNumber":55,"Velocity":45,"Duration":985486,"SoundDuration":985486,"Delta":47605723},{"NoteNumber":67,"Velocity":54,"Duration":265486,"SoundDuration":265486,"Delta":48325723},{"NoteNumber":57,"Velocity":58,"Duration":978931,"SoundDuration":978931,"Delta":48591210},{"NoteNumber":62,"Velocity":58,"Duration":978931,"SoundDuration":978931,"Delta":48591210},{"NoteNumber":70,"Velocity":69,"Duration":708661,"SoundDuration":708661,"Delta":48591210},{"NoteNumber":42,"Velocity":32,"Duration":978931,"SoundDuration":978931,"Delta":48591210},{"NoteNumber":50,"Velocity":32,"Duration":978931,"SoundDuration":978931,"Delta":48591210},{"NoteNumber":54,"Velocity":45,"Duration":978931,"SoundDuration":978931,"Delta":48591210},{"NoteNumber":69,"Velocity":45,"Duration":270270,"SoundDuration":270270,"Delta":49299871},{"NoteNumber":66,"Velocity":51,"Duration":236892,"SoundDuration":236892,"Delta":49570142},{"NoteNumber":69,"Velocity":46,"Duration":239911,"SoundDuration":239911,"Delta":49807034},{"NoteNumber":72,"Velocity":42,"Duration":243115,"SoundDuration":243115,"Delta":50046946},{"NoteNumber":75,"Velocity":48,"Duration":246783,"SoundDuration":246783,"Delta":50290061},{"NoteNumber":74,"Velocity":54,"Duration":240000,"SoundDuration":240000,"Delta":50536845},{"NoteNumber":72,"Velocity":43,"Duration":239999,"SoundDuration":239999,"Delta":50776845},{"NoteNumber":70,"Velocity":43,"Duration":240000,"SoundDuration":240000,"Delta":51016845},{"NoteNumber":69,"Velocity":43,"Duration":254896,"SoundDuration":254896,"Delta":51256845},{"NoteNumber":72,"Velocity":53,"Duration":240000,"SoundDuration":240000,"Delta":51511742},{"NoteNumber":78,"Velocity":45,"Duration":240000,"SoundDuration":240000,"Delta":51751742},{"NoteNumber":81,"Velocity":45,"Duration":240000,"SoundDuration":240000,"Delta":51991742},{"NoteNumber":84,"Velocity":45,"Duration":256410,"SoundDuration":256410,"Delta":52231742},{"NoteNumber":82,"Velocity":54,"Duration":236220,"SoundDuration":236220,"Delta":52488152},{"NoteNumber":81,"Velocity":45,"Duration":236220,"SoundDuration":236220,"Delta":52724373},{"NoteNumber":79,"Velocity":45,"Duration":236220,"SoundDuration":236220,"Delta":52960593},{"NoteNumber":78,"Velocity":45,"Duration":252100,"SoundDuration":252100,"Delta":53196814},{"NoteNumber":81,"Velocity":51,"Duration":236220,"SoundDuration":236220,"Delta":53448914},{"NoteNumber":84,"Velocity":53,"Duration":236220,"SoundDuration":236220,"Delta":53685135},{"NoteNumber":86,"Velocity":55,"Duration":236220,"SoundDuration":236220,"Delta":53921355},{"NoteNumber":87,"Velocity":57,"Duration":260869,"SoundDuration":260869,"Delta":54157576},{"NoteNumber":86,"Velocity":60,"Duration":234375,"SoundDuration":234375,"Delta":54418445},{"NoteNumber":84,"Velocity":51,"Duration":234375,"SoundDuration":234375,"Delta":54652820},{"NoteNumber":82,"Velocity":52,"Duration":234375,"SoundDuration":234375,"Delta":54887195},{"NoteNumber":81,"Velocity":52,"Duration":243902,"SoundDuration":243902,"Delta":55121570},{"NoteNumber":84,"Velocity":58,"Duration":234375,"SoundDuration":234375,"Delta":55365473},{"NoteNumber":81,"Velocity":48,"Duration":234375,"SoundDuration":234375,"Delta":55599848},{"NoteNumber":79,"Velocity":49,"Duration":234375,"SoundDuration":234375,"Delta":55834223},{"NoteNumber":78,"Velocity":49,"Duration":254237,"SoundDuration":254237,"Delta":56068598},{"NoteNumber":84,"Velocity":60,"Duration":252528,"SoundDuration":252528,"Delta":56322835},{"NoteNumber":81,"Velocity":53,"Duration":255450,"SoundDuration":255450,"Delta":56575363},{"NoteNumber":79,"Velocity":55,"Duration":258348,"SoundDuration":258348,"Delta":56830814},{"NoteNumber":78,"Velocity":56,"Duration":271580,"SoundDuration":271580,"Delta":57089162},{"NoteNumber":81,"Velocity":69,"Duration":201789,"SoundDuration":201789,"Delta":57360743},{"NoteNumber":78,"Velocity":59,"Duration":210764,"SoundDuration":210764,"Delta":57631300},{"NoteNumber":75,"Velocity":63,"Duration":219664,"SoundDuration":219664,"Delta":57913699},{"NoteNumber":74,"Velocity":65,"Duration":299999,"SoundDuration":299999,"Delta":58206894},{"NoteNumber":74,"Velocity":64,"Duration":1040727,"SoundDuration":1040727,"Delta":58606894},{"NoteNumber":54,"Velocity":38,"Duration":285069,"SoundDuration":285069,"Delta":58606894},{"NoteNumber":57,"Velocity":45,"Duration":285069,"SoundDuration":285069,"Delta":58606894},{"NoteNumber":62,"Velocity":31,"Duration":256879,"SoundDuration":256879,"Delta":58891964},{"NoteNumber":54,"Velocity":26,"Duration":252039,"SoundDuration":252039,"Delta":59148843},{"NoteNumber":57,"Velocity":31,"Duration":252039,"SoundDuration":252039,"Delta":59148843},{"NoteNumber":62,"Velocity":31,"Duration":246738,"SoundDuration":246738,"Delta":59400882},{"NoteNumber":69,"Velocity":58,"Duration":1951219,"SoundDuration":1951219,"Delta":59647621},{"NoteNumber":54,"Velocity":36,"Duration":243902,"SoundDuration":243902,"Delta":59647621},{"NoteNumber":57,"Velocity":43,"Duration":243902,"SoundDuration":243902,"Delta":59647621},{"NoteNumber":62,"Velocity":32,"Duration":243902,"SoundDuration":243902,"Delta":59891523},{"NoteNumber":54,"Velocity":27,"Duration":243902,"SoundDuration":243902,"Delta":60135426},{"NoteNumber":57,"Velocity":32,"Duration":243902,"SoundDuration":243902,"Delta":60135426},{"NoteNumber":62,"Velocity":32,"Duration":243902,"SoundDuration":243902,"Delta":60379328},{"NoteNumber":54,"Velocity":35,"Duration":243902,"SoundDuration":243902,"Delta":60623231},{"NoteNumber":57,"Velocity":42,"Duration":243902,"SoundDuration":243902,"Delta":60623231},{"NoteNumber":62,"Velocity":33,"Duration":243902,"SoundDuration":243902,"Delta":60867133},{"NoteNumber":54,"Velocity":28,"Duration":243902,"SoundDuration":243902,"Delta":61111036},{"NoteNumber":57,"Velocity":33,"Duration":243902,"SoundDuration":243902,"Delta":61111036},{"NoteNumber":62,"Velocity":33,"Duration":243902,"SoundDuration":243902,"Delta":61354938},{"NoteNumber":71,"Velocity":64,"Duration":479094,"SoundDuration":479094,"Delta":61598841},{"NoteNumber":55,"Velocity":36,"Duration":240998,"SoundDuration":240998,"Delta":61598841},{"NoteNumber":59,"Velocity":43,"Duration":240998,"SoundDuration":240998,"Delta":61598841},{"NoteNumber":62,"Velocity":30,"Duration":238095,"SoundDuration":238095,"Delta":61839840},{"NoteNumber":67,"Velocity":53,"Duration":515217,"SoundDuration":515217,"Delta":62077935},{"NoteNumber":55,"Velocity":25,"Duration":260869,"SoundDuration":260869,"Delta":62077935},{"NoteNumber":59,"Velocity":30,"Duration":260869,"SoundDuration":260869,"Delta":62077935},{"NoteNumber":62,"Velocity":30,"Duration":260869,"SoundDuration":260869,"Delta":62338804},{"NoteNumber":67,"Velocity":64,"Duration":491803,"SoundDuration":491803,"Delta":62599674},{"NoteNumber":57,"Velocity":38,"Duration":245901,"SoundDuration":245901,"Delta":62599674},{"NoteNumber":60,"Velocity":45,"Duration":245901,"SoundDuration":245901,"Delta":62599674},{"NoteNumber":62,"Velocity":32,"Duration":245901,"SoundDuration":245901,"Delta":62845576},{"NoteNumber":66,"Velocity":55,"Duration":118110,"SoundDuration":118110,"Delta":63091477},{"NoteNumber":57,"Velocity":27,"Duration":236220,"SoundDuration":236220,"Delta":63091477},{"NoteNumber":60,"Velocity":32,"Duration":236220,"SoundDuration":236220,"Delta":63091477},{"NoteNumber":67,"Velocity":55,"Duration":118110,"SoundDuration":118110,"Delta":63209588},{"NoteNumber":66,"Velocity":55,"Duration":118110,"SoundDuration":118110,"Delta":63327698},{"NoteNumber":62,"Velocity":32,"Duration":236220,"SoundDuration":236220,"Delta":63327698},{"NoteNumber":64,"Velocity":55,"Duration":118110,"SoundDuration":118110,"Delta":63445808},{"NoteNumber":66,"Velocity":64,"Duration":480000,"SoundDuration":480000,"Delta":63563918},{"NoteNumber":57,"Velocity":38,"Duration":240000,"SoundDuration":240000,"Delta":63563918},{"NoteNumber":60,"Velocity":45,"Duration":240000,"SoundDuration":240000,"Delta":63563918},{"NoteNumber":62,"Velocity":31,"Duration":240000,"SoundDuration":240000,"Delta":63803918},{"NoteNumber":67,"Velocity":59,"Duration":507931,"SoundDuration":507931,"Delta":64043918},{"NoteNumber":57,"Velocity":26,"Duration":249310,"SoundDuration":249310,"Delta":64043918},{"NoteNumber":60,"Velocity":31,"Duration":249310,"SoundDuration":249310,"Delta":64043918},{"NoteNumber":62,"Velocity":31,"Duration":258620,"SoundDuration":258620,"Delta":64293229},{"NoteNumber":69,"Velocity":57,"Duration":495868,"SoundDuration":495868,"Delta":64551849},{"NoteNumber":57,"Velocity":38,"Duration":247934,"SoundDuration":247934,"Delta":64551849},{"NoteNumber":60,"Velocity":45,"Duration":247934,"SoundDuration":247934,"Delta":64551849},{"NoteNumber":62,"Velocity":33,"Duration":247934,"SoundDuration":247934,"Delta":64799783},{"NoteNumber":71,"Velocity":62,"Duration":533648,"SoundDuration":533648,"Delta":65047717},{"NoteNumber":55,"Velocity":28,"Duration":247934,"SoundDuration":247934,"Delta":65047717},{"NoteNumber":59,"Velocity":33,"Duration":247934,"SoundDuration":247934,"Delta":65047717},{"NoteNumber":62,"Velocity":33,"Duration":285714,"SoundDuration":285714,"Delta":65295651},{"NoteNumber":72,"Velocity":64,"Duration":238095,"SoundDuration":238095,"Delta":65581366},{"NoteNumber":54,"Velocity":38,"Duration":238095,"SoundDuration":238095,"Delta":65581366},{"NoteNumber":57,"Velocity":45,"Duration":238095,"SoundDuration":238095,"Delta":65581366},{"NoteNumber":73,"Velocity":57,"Duration":241596,"SoundDuration":241596,"Delta":65819461},{"NoteNumber":62,"Velocity":33,"Duration":252100,"SoundDuration":252100,"Delta":65819461},{"NoteNumber":73,"Velocity":64,"Duration":236220,"SoundDuration":236220,"Delta":66071562},{"NoteNumber":54,"Velocity":28,"Duration":236220,"SoundDuration":236220,"Delta":66071562},{"NoteNumber":57,"Velocity":33,"Duration":236220,"SoundDuration":236220,"Delta":66071562},{"NoteNumber":74,"Velocity":59,"Duration":252100,"SoundDuration":252100,"Delta":66307782},{"NoteNumber":62,"Velocity":33,"Duration":252100,"SoundDuration":252100,"Delta":66307782},{"NoteNumber":73,"Velocity":64,"Duration":238095,"SoundDuration":238095,"Delta":66559883},{"NoteNumber":54,"Velocity":38,"Duration":238095,"SoundDuration":238095,"Delta":66559883},{"NoteNumber":57,"Velocity":45,"Duration":238095,"SoundDuration":238095,"Delta":66559883},{"NoteNumber":74,"Velocity":57,"Duration":238095,"SoundDuration":238095,"Delta":66797978},{"NoteNumber":62,"Velocity":34,"Duration":238095,"SoundDuration":238095,"Delta":66797978},{"NoteNumber":76,"Velocity":57,"Duration":238095,"SoundDuration":238095,"Delta":67036073},{"NoteNumber":54,"Velocity":28,"Duration":238095,"SoundDuration":238095,"Delta":67036073},{"NoteNumber":57,"Velocity":34,"Duration":238095,"SoundDuration":238095,"Delta":67036073},{"NoteNumber":74,"Velocity":57,"Duration":294117,"SoundDuration":294117,"Delta":67274169},{"NoteNumber":62,"Velocity":34,"Duration":294117,"SoundDuration":294117,"Delta":67274169},{"NoteNumber":69,"Velocity":64,"Duration":1211660,"SoundDuration":1211660,"Delta":67568286},{"NoteNumber":54,"Velocity":37,"Duration":241935,"SoundDuration":241935,"Delta":67568286},{"NoteNumber":57,"Velocity":44,"Duration":241935,"SoundDuration":241935,"Delta":67568286},{"NoteNumber":62,"Velocity":33,"Duration":241935,"SoundDuration":241935,"Delta":67810222},{"NoteNumber":54,"Velocity":28,"Duration":241935,"SoundDuration":241935,"Delta":68052157},{"NoteNumber":57,"Velocity":33,"Duration":241935,"SoundDuration":241935,"Delta":68052157},{"NoteNumber":62,"Velocity":33,"Duration":241935,"SoundDuration":241935,"Delta":68294093},{"NoteNumber":54,"Velocity":38,"Duration":243918,"SoundDuration":243918,"Delta":68536028},{"NoteNumber":57,"Velocity":45,"Duration":243918,"SoundDuration":243918,"Delta":68536028},{"NoteNumber":71,"Velocity":64,"Duration":119047,"SoundDuration":119047,"Delta":68779947},{"NoteNumber":62,"Velocity":34,"Duration":238095,"SoundDuration":238095,"Delta":68779947},{"NoteNumber":69,"Velocity":55,"Duration":119047,"SoundDuration":119047,"Delta":68898995},{"NoteNumber":71,"Velocity":64,"Duration":119047,"SoundDuration":119047,"Delta":69018042},{"NoteNumber":54,"Velocity":28,"Duration":238095,"SoundDuration":238095,"Delta":69018042},{"NoteNumber":57,"Velocity":34,"Duration":238095,"SoundDuration":238095,"Delta":69018042},{"NoteNumber":69,"Velocity":54,"Duration":119047,"SoundDuration":119047,"Delta":69137090},{"NoteNumber":72,"Velocity":64,"Duration":119047,"SoundDuration":119047,"Delta":69256138},{"NoteNumber":62,"Velocity":34,"Duration":238095,"SoundDuration":238095,"Delta":69256138},{"NoteNumber":71,"Velocity":55,"Duration":119047,"SoundDuration":119047,"Delta":69375185},{"NoteNumber":72,"Velocity":64,"Duration":117187,"SoundDuration":117187,"Delta":69494233},{"NoteNumber":55,"Velocity":38,"Duration":234375,"SoundDuration":234375,"Delta":69494233},{"NoteNumber":59,"Velocity":45,"Duration":234375,"SoundDuration":234375,"Delta":69494233},{"NoteNumber":71,"Velocity":56,"Duration":117187,"SoundDuration":117187,"Delta":69611420},{"NoteNumber":74,"Velocity":64,"Duration":117187,"SoundDuration":117187,"Delta":69728608},{"NoteNumber":62,"Velocity":34,"Duration":241154,"SoundDuration":241154,"Delta":69728608},{"NoteNumber":73,"Velocity":57,"Duration":123966,"SoundDuration":123966,"Delta":69845795},{"NoteNumber":74,"Velocity":52,"Duration":61983,"SoundDuration":61983,"Delta":69969762},{"NoteNumber":55,"Velocity":28,"Duration":247934,"SoundDuration":247934,"Delta":69969762},{"NoteNumber":59,"Velocity":34,"Duration":247934,"SoundDuration":247934,"Delta":69969762},{"NoteNumber":73,"Velocity":52,"Duration":61983,"SoundDuration":61983,"Delta":70031746},{"NoteNumber":76,"Velocity":52,"Duration":61983,"SoundDuration":61983,"Delta":70093729},{"NoteNumber":74,"Velocity":52,"Duration":61983,"SoundDuration":61983,"Delta":70155713},{"NoteNumber":67,"Velocity":60,"Duration":263513,"SoundDuration":263513,"Delta":70217696},{"NoteNumber":62,"Velocity":34,"Duration":270270,"SoundDuration":270270,"Delta":70217696},{"NoteNumber":67,"Velocity":64,"Duration":967742,"SoundDuration":967742,"Delta":70487967},{"NoteNumber":57,"Velocity":38,"Duration":241935,"SoundDuration":241935,"Delta":70487967},{"NoteNumber":60,"Velocity":45,"Duration":241935,"SoundDuration":241935,"Delta":70487967},{"NoteNumber":62,"Velocity":33,"Duration":241935,"SoundDuration":241935,"Delta":70729902},{"NoteNumber":57,"Velocity":28,"Duration":241935,"SoundDuration":241935,"Delta":70971838},{"NoteNumber":60,"Velocity":33,"Duration":241935,"SoundDuration":241935,"Delta":70971838},{"NoteNumber":62,"Velocity":34,"Duration":241935,"SoundDuration":241935,"Delta":71213773},{"NoteNumber":66,"Velocity":56,"Duration":67999,"SoundDuration":67999,"Delta":71455709},{"NoteNumber":57,"Velocity":39,"Duration":239999,"SoundDuration":239999,"Delta":71455709},{"NoteNumber":60,"Velocity":46,"Duration":239999,"SoundDuration":239999,"Delta":71455709},{"NoteNumber":67,"Velocity":50,"Duration":67999,"SoundDuration":67999,"Delta":71523709},{"NoteNumber":66,"Velocity":56,"Duration":67999,"SoundDuration":67999,"Delta":71593709},{"NoteNumber":67,"Velocity":49,"Duration":67999,"SoundDuration":67999,"Delta":71661709},{"NoteNumber":62,"Velocity":35,"Duration":240000,"SoundDuration":240000,"Delta":71695709},{"NoteNumber":66,"Velocity":56,"Duration":67999,"SoundDuration":67999,"Delta":71729709},{"NoteNumber":64,"Velocity":51,"Duration":67999,"SoundDuration":67999,"Delta":71797709},{"NoteNumber":66,"Velocity":51,"Duration":67999,"SoundDuration":67999,"Delta":71865709},{"NoteNumber":67,"Velocity":57,"Duration":498620,"SoundDuration":498620,"Delta":71935709},{"NoteNumber":57,"Velocity":29,"Duration":239999,"SoundDuration":239999,"Delta":71935709},{"NoteNumber":60,"Velocity":35,"Duration":239999,"SoundDuration":239999,"Delta":71935709},{"NoteNumber":62,"Velocity":35,"Duration":258620,"SoundDuration":258620,"Delta":72175709},{"NoteNumber":69,"Velocity":59,"Duration":480000,"SoundDuration":480000,"Delta":72434329},{"NoteNumber":57,"Velocity":38,"Duration":239999,"SoundDuration":239999,"Delta":72434329},{"NoteNumber":60,"Velocity":45,"Duration":239999,"SoundDuration":239999,"Delta":72434329},{"NoteNumber":62,"Velocity":35,"Duration":240000,"SoundDuration":240000,"Delta":72674329},{"NoteNumber":70,"Velocity":64,"Duration":479999,"SoundDuration":479999,"Delta":72914329},{"NoteNumber":55,"Velocity":29,"Duration":239999,"SoundDuration":239999,"Delta":72914329},{"NoteNumber":58,"Velocity":35,"Duration":239999,"SoundDuration":239999,"Delta":72914329},{"NoteNumber":62,"Velocity":35,"Duration":239999,"SoundDuration":239999,"Delta":73154329},{"NoteNumber":72,"Velocity":64,"Duration":238095,"SoundDuration":238095,"Delta":73394329},{"NoteNumber":54,"Velocity":39,"Duration":238095,"SoundDuration":238095,"Delta":73394329},{"NoteNumber":57,"Velocity":47,"Duration":238095,"SoundDuration":238095,"Delta":73394329},{"NoteNumber":73,"Velocity":58,"Duration":243697,"SoundDuration":243697,"Delta":73632425},{"NoteNumber":62,"Velocity":36,"Duration":252100,"SoundDuration":252100,"Delta":73632425},{"NoteNumber":73,"Velocity":64,"Duration":236220,"SoundDuration":236220,"Delta":73884525},{"NoteNumber":54,"Velocity":30,"Duration":236220,"SoundDuration":236220,"Delta":73884525},{"NoteNumber":57,"Velocity":36,"Duration":236220,"SoundDuration":236220,"Delta":73884525},{"NoteNumber":74,"Velocity":56,"Duration":247844,"SoundDuration":247844,"Delta":74120746},{"NoteNumber":62,"Velocity":36,"Duration":258620,"SoundDuration":258620,"Delta":74120746},{"NoteNumber":74,"Velocity":71,"Duration":488687,"SoundDuration":488687,"Delta":74379367},{"NoteNumber":58,"Velocity":56,"Duration":117647,"SoundDuration":117647,"Delta":74379367},{"NoteNumber":55,"Velocity":56,"Duration":117647,"SoundDuration":117647,"Delta":74379367},{"NoteNumber":62,"Velocity":47,"Duration":117647,"SoundDuration":117647,"Delta":74614661},{"NoteNumber":82,"Velocity":76,"Duration":495746,"SoundDuration":495746,"Delta":74868054},{"NoteNumber":74,"Velocity":64,"Duration":495746,"SoundDuration":495746,"Delta":74868054},{"NoteNumber":66,"Velocity":47,"Duration":135746,"SoundDuration":135746,"Delta":74868054},{"NoteNumber":67,"Velocity":47,"Duration":119999,"SoundDuration":119999,"Delta":75123801},{"NoteNumber":62,"Velocity":56,"Duration":120000,"SoundDuration":120000,"Delta":75363801},{"NoteNumber":58,"Velocity":42,"Duration":120000,"SoundDuration":120000,"Delta":75603801},{"NoteNumber":82,"Velocity":73,"Duration":491045,"SoundDuration":491045,"Delta":75843801},{"NoteNumber":74,"Velocity":62,"Duration":491045,"SoundDuration":491045,"Delta":75843801},{"NoteNumber":57,"Velocity":42,"Duration":119999,"SoundDuration":119999,"Delta":75843801},{"NoteNumber":55,"Velocity":42,"Duration":125523,"SoundDuration":125523,"Delta":76089324},{"NoteNumber":50,"Velocity":47,"Duration":119999,"SoundDuration":119999,"Delta":76334847},{"NoteNumber":54,"Velocity":56,"Duration":119999,"SoundDuration":119999,"Delta":76334847},{"NoteNumber":57,"Velocity":40,"Duration":120000,"SoundDuration":120000,"Delta":76574847},{"NoteNumber":81,"Velocity":67,"Duration":480000,"SoundDuration":480000,"Delta":76814847},{"NoteNumber":72,"Velocity":56,"Duration":480000,"SoundDuration":480000,"Delta":76814847},{"NoteNumber":60,"Velocity":40,"Duration":120000,"SoundDuration":120000,"Delta":76814847},{"NoteNumber":50,"Velocity":40,"Duration":119999,"SoundDuration":119999,"Delta":77054847},{"NoteNumber":51,"Velocity":52,"Duration":120000,"SoundDuration":120000,"Delta":77294847},{"NoteNumber":55,"Velocity":36,"Duration":120000,"SoundDuration":120000,"Delta":77534847},{"NoteNumber":79,"Velocity":61,"Duration":496710,"SoundDuration":496710,"Delta":77774847},{"NoteNumber":70,"Velocity":51,"Duration":496710,"SoundDuration":496710,"Delta":77774847},{"NoteNumber":58,"Velocity":36,"Duration":120000,"SoundDuration":120000,"Delta":77774847},{"NoteNumber":55,"Velocity":36,"Duration":132743,"SoundDuration":132743,"Delta":78014847},{"NoteNumber":51,"Velocity":44,"Duration":117647,"SoundDuration":117647,"Delta":78271557},{"NoteNumber":55,"Velocity":48,"Duration":117647,"SoundDuration":117647,"Delta":78271557},{"NoteNumber":58,"Velocity":36,"Duration":126582,"SoundDuration":126582,"Delta":78506851},{"NoteNumber":79,"Velocity":66,"Duration":474308,"SoundDuration":474308,"Delta":78760016},{"NoteNumber":70,"Velocity":56,"Duration":474308,"SoundDuration":474308,"Delta":78760016},{"NoteNumber":67,"Velocity":56,"Duration":474308,"SoundDuration":474308,"Delta":78760016},{"NoteNumber":62,"Velocity":35,"Duration":118577,"SoundDuration":118577,"Delta":78760016},{"NoteNumber":63,"Velocity":35,"Duration":118577,"SoundDuration":118577,"Delta":78997170},{"NoteNumber":58,"Velocity":43,"Duration":118577,"SoundDuration":118577,"Delta":79234324},{"NoteNumber":55,"Velocity":30,"Duration":118577,"SoundDuration":118577,"Delta":79471478},{"NoteNumber":79,"Velocity":64,"Duration":482052,"SoundDuration":482052,"Delta":79708633},{"NoteNumber":75,"Velocity":54,"Duration":482052,"SoundDuration":482052,"Delta":79708633},{"NoteNumber":67,"Velocity":54,"Duration":482052,"SoundDuration":482052,"Delta":79708633},{"NoteNumber":53,"Velocity":30,"Duration":118577,"SoundDuration":118577,"Delta":79708633},{"NoteNumber":51,"Velocity":30,"Duration":122449,"SoundDuration":122449,"Delta":79945787},{"NoteNumber":43,"Velocity":39,"Duration":120967,"SoundDuration":120967,"Delta":80190685},{"NoteNumber":47,"Velocity":39,"Duration":120967,"SoundDuration":120967,"Delta":80190685},{"NoteNumber":50,"Velocity":29,"Duration":125000,"SoundDuration":125000,"Delta":80436239},{"NoteNumber":77,"Velocity":56,"Duration":504212,"SoundDuration":504212,"Delta":80686239},{"NoteNumber":74,"Velocity":47,"Duration":504212,"SoundDuration":504212,"Delta":80686239},{"NoteNumber":67,"Velocity":47,"Duration":504212,"SoundDuration":504212,"Delta":80686239},{"NoteNumber":55,"Velocity":29,"Duration":125420,"SoundDuration":125420,"Delta":80686239},{"NoteNumber":47,"Velocity":29,"Duration":126050,"SoundDuration":126050,"Delta":80937710},{"NoteNumber":48,"Velocity":38,"Duration":127118,"SoundDuration":127118,"Delta":81190452},{"NoteNumber":51,"Velocity":28,"Duration":127553,"SoundDuration":127553,"Delta":81444689},{"NoteNumber":75,"Velocity":48,"Duration":548335,"SoundDuration":548335,"Delta":81700447},{"NoteNumber":72,"Velocity":40,"Duration":548335,"SoundDuration":548335,"Delta":81700447},{"NoteNumber":67,"Velocity":35,"Duration":548335,"SoundDuration":548335,"Delta":81700447},{"NoteNumber":55,"Velocity":29,"Duration":128205,"SoundDuration":128205,"Delta":81700447},{"NoteNumber":48,"Velocity":26,"Duration":145631,"SoundDuration":145631,"Delta":81957521},{"NoteNumber":73,"Velocity":30,"Duration":4266667,"SoundDuration":4266667,"Delta":82248783},{"NoteNumber":70,"Velocity":30,"Duration":4266667,"SoundDuration":4266667,"Delta":82248783},{"NoteNumber":67,"Velocity":30,"Duration":4266667,"SoundDuration":4266667,"Delta":82248783},{"NoteNumber":77,"Velocity":50,"Duration":800000,"SoundDuration":800000,"Delta":82248783},{"NoteNumber":46,"Velocity":30,"Duration":4266667,"SoundDuration":4266667,"Delta":82248783},{"NoteNumber":61,"Velocity":30,"Duration":4266667,"SoundDuration":4266667,"Delta":82248783},{"NoteNumber":76,"Velocity":45,"Duration":266666,"SoundDuration":266666,"Delta":83048783},{"NoteNumber":79,"Velocity":50,"Duration":3200001,"SoundDuration":3200001,"Delta":83315450},{"NoteNumber":52,"Velocity":23,"Duration":1066666,"SoundDuration":1066666,"Delta":83315450},{"NoteNumber":55,"Velocity":29,"Duration":1066667,"SoundDuration":1066667,"Delta":84382117},{"NoteNumber":52,"Velocity":23,"Duration":1066666,"SoundDuration":1066666,"Delta":85448784},{"NoteNumber":73,"Velocity":30,"Duration":3231283,"SoundDuration":3231283,"Delta":86515451},{"NoteNumber":70,"Velocity":30,"Duration":3231283,"SoundDuration":3231283,"Delta":86515451},{"NoteNumber":67,"Velocity":30,"Duration":3231283,"SoundDuration":3231283,"Delta":86515451},{"NoteNumber":77,"Velocity":50,"Duration":800000,"SoundDuration":800000,"Delta":86515451},{"NoteNumber":46,"Velocity":30,"Duration":3231283,"SoundDuration":3231283,"Delta":86515451},{"NoteNumber":61,"Velocity":30,"Duration":4280968,"SoundDuration":4280968,"Delta":86515451},{"NoteNumber":76,"Velocity":45,"Duration":266666,"SoundDuration":266666,"Delta":87315451},{"NoteNumber":79,"Velocity":50,"Duration":2951879,"SoundDuration":2951879,"Delta":87582118},{"NoteNumber":52,"Velocity":23,"Duration":1066667,"SoundDuration":1066667,"Delta":87582118},{"NoteNumber":55,"Velocity":29,"Duration":1097949,"SoundDuration":1097949,"Delta":88648785},{"NoteNumber":73,"Velocity":30,"Duration":1049684,"SoundDuration":1049684,"Delta":89746734},{"NoteNumber":79,"Velocity":60,"Duration":1049684,"SoundDuration":1049684,"Delta":89746734},{"NoteNumber":46,"Velocity":30,"Duration":1049684,"SoundDuration":1049684,"Delta":89746734},{"NoteNumber":52,"Velocity":23,"Duration":1049684,"SoundDuration":1049684,"Delta":89746734},{"NoteNumber":85,"Velocity":52,"Duration":253673,"SoundDuration":253673,"Delta":90533998},{"NoteNumber":85,"Velocity":65,"Duration":1049684,"SoundDuration":1049684,"Delta":90796419},{"NoteNumber":72,"Velocity":29,"Duration":1061331,"SoundDuration":1061331,"Delta":91846104},{"NoteNumber":84,"Velocity":50,"Duration":781114,"SoundDuration":781114,"Delta":91846104},{"NoteNumber":48,"Velocity":24,"Duration":1061331,"SoundDuration":1061331,"Delta":91846104},{"NoteNumber":44,"Velocity":24,"Duration":1061331,"SoundDuration":1061331,"Delta":91846104},{"NoteNumber":53,"Velocity":29,"Duration":1061331,"SoundDuration":1061331,"Delta":91846104},{"NoteNumber":77,"Velocity":45,"Duration":266205,"SoundDuration":266205,"Delta":92627219},{"NoteNumber":77,"Velocity":51,"Duration":1033236,"SoundDuration":1033236,"Delta":92907435},{"NoteNumber":70,"Velocity":29,"Duration":1038128,"SoundDuration":1038128,"Delta":93940671},{"NoteNumber":76,"Velocity":50,"Duration":771462,"SoundDuration":771462,"Delta":93940671},{"NoteNumber":64,"Velocity":29,"Duration":1038128,"SoundDuration":1038128,"Delta":93940671},{"NoteNumber":48,"Velocity":24,"Duration":1038128,"SoundDuration":1038128,"Delta":93940671},{"NoteNumber":55,"Velocity":29,"Duration":1038128,"SoundDuration":1038128,"Delta":93940671},{"NoteNumber":79,"Velocity":45,"Duration":253333,"SoundDuration":253333,"Delta":94712134},{"NoteNumber":79,"Velocity":55,"Duration":774139,"SoundDuration":774139,"Delta":94978800},{"NoteNumber":80,"Velocity":50,"Duration":2218410,"SoundDuration":2218410,"Delta":95752940},{"NoteNumber":72,"Velocity":30,"Duration":1025289,"SoundDuration":1025289,"Delta":96019607},{"NoteNumber":53,"Velocity":20,"Duration":1025289,"SoundDuration":1025289,"Delta":96019607},{"NoteNumber":65,"Velocity":24,"Duration":1025289,"SoundDuration":1025289,"Delta":96019607},{"NoteNumber":72,"Velocity":24,"Duration":648368,"SoundDuration":648368,"Delta":97044897},{"NoteNumber":53,"Velocity":20,"Duration":648368,"SoundDuration":648368,"Delta":97044897},{"NoteNumber":65,"Velocity":24,"Duration":648368,"SoundDuration":648368,"Delta":97044897},{"NoteNumber":73,"Velocity":38,"Duration":552906,"SoundDuration":552906,"Delta":97695967},{"NoteNumber":68,"Velocity":35,"Duration":552906,"SoundDuration":552906,"Delta":97695967},{"NoteNumber":65,"Velocity":29,"Duration":552906,"SoundDuration":552906,"Delta":97695967},{"NoteNumber":72,"Velocity":43,"Duration":509524,"SoundDuration":509524,"Delta":98248873},{"NoteNumber":63,"Velocity":31,"Duration":509524,"SoundDuration":509524,"Delta":98248873},{"NoteNumber":66,"Velocity":31,"Duration":509524,"SoundDuration":509524,"Delta":98248873},{"NoteNumber":68,"Velocity":37,"Duration":509524,"SoundDuration":509524,"Delta":98248873},{"NoteNumber":73,"Velocity":49,"Duration":559440,"SoundDuration":559440,"Delta":98758397},{"NoteNumber":68,"Velocity":40,"Duration":559440,"SoundDuration":559440,"Delta":98758397},{"NoteNumber":65,"Velocity":34,"Duration":559440,"SoundDuration":559440,"Delta":98758397},{"NoteNumber":61,"Velocity":34,"Duration":559440,"SoundDuration":559440,"Delta":98758397},{"NoteNumber":77,"Velocity":59,"Duration":745268,"SoundDuration":745268,"Delta":99317838},{"NoteNumber":60,"Velocity":38,"Duration":1178912,"SoundDuration":1178912,"Delta":99317838},{"NoteNumber":63,"Velocity":38,"Duration":1178912,"SoundDuration":1178912,"Delta":99317838},{"NoteNumber":68,"Velocity":46,"Duration":1178912,"SoundDuration":1178912,"Delta":99317838},{"NoteNumber":75,"Velocity":44,"Duration":114494,"SoundDuration":114494,"Delta":100063106},{"NoteNumber":77,"Velocity":44,"Duration":106383,"SoundDuration":106383,"Delta":100177601},{"NoteNumber":75,"Velocity":44,"Duration":106382,"SoundDuration":106382,"Delta":100283984},{"NoteNumber":74,"Velocity":44,"Duration":106382,"SoundDuration":106382,"Delta":100390367},{"NoteNumber":75,"Velocity":52,"Duration":773930,"SoundDuration":773930,"Delta":100496750},{"NoteNumber":60,"Velocity":36,"Duration":1556056,"SoundDuration":1556056,"Delta":100496750},{"NoteNumber":63,"Velocity":36,"Duration":1556056,"SoundDuration":1556056,"Delta":100496750},{"NoteNumber":69,"Velocity":43,"Duration":1556056,"SoundDuration":1556056,"Delta":100496750},{"NoteNumber":77,"Velocity":55,"Duration":272727,"SoundDuration":272727,"Delta":101270681},{"NoteNumber":78,"Velocity":61,"Duration":1280585,"SoundDuration":1280585,"Delta":101543408},{"NoteNumber":58,"Velocity":34,"Duration":508474,"SoundDuration":508474,"Delta":102052807},{"NoteNumber":61,"Velocity":34,"Duration":508474,"SoundDuration":508474,"Delta":102052807},{"NoteNumber":66,"Velocity":40,"Duration":508474,"SoundDuration":508474,"Delta":102052807},{"NoteNumber":57,"Velocity":42,"Duration":525869,"SoundDuration":525869,"Delta":102561282},{"NoteNumber":60,"Velocity":42,"Duration":525869,"SoundDuration":525869,"Delta":102561282},{"NoteNumber":65,"Velocity":50,"Duration":525869,"SoundDuration":525869,"Delta":102561282},{"NoteNumber":77,"Velocity":56,"Duration":263158,"SoundDuration":263158,"Delta":102823994},{"NoteNumber":87,"Velocity":64,"Duration":287196,"SoundDuration":287196,"Delta":103087152},{"NoteNumber":57,"Velocity":34,"Duration":575657,"SoundDuration":575657,"Delta":103087152},{"NoteNumber":60,"Velocity":34,"Duration":575657,"SoundDuration":575657,"Delta":103087152},{"NoteNumber":65,"Velocity":40,"Duration":575657,"SoundDuration":575657,"Delta":103087152},{"NoteNumber":84,"Velocity":58,"Duration":283653,"SoundDuration":283653,"Delta":103374348},{"NoteNumber":84,"Velocity":67,"Duration":1637738,"SoundDuration":1637738,"Delta":103662809},{"NoteNumber":57,"Velocity":34,"Duration":1072459,"SoundDuration":1072459,"Delta":103662809},{"NoteNumber":60,"Velocity":34,"Duration":1072459,"SoundDuration":1072459,"Delta":103662809},{"NoteNumber":65,"Velocity":40,"Duration":1072459,"SoundDuration":1072459,"Delta":103662809},{"NoteNumber":58,"Velocity":24,"Duration":1131316,"SoundDuration":1131316,"Delta":104735269},{"NoteNumber":61,"Velocity":24,"Duration":1131316,"SoundDuration":1131316,"Delta":104735269},{"NoteNumber":65,"Velocity":29,"Duration":1131316,"SoundDuration":1131316,"Delta":104735269},{"NoteNumber":87,"Velocity":45,"Duration":283018,"SoundDuration":283018,"Delta":105300548},{"NoteNumber":85,"Velocity":45,"Duration":283018,"SoundDuration":283018,"Delta":105583567},{"NoteNumber":66,"Velocity":45,"Duration":518461,"SoundDuration":518461,"Delta":106998661},{"NoteNumber":65,"Velocity":39,"Duration":517241,"SoundDuration":517241,"Delta":107517122},{"NoteNumber":61,"Velocity":37,"Duration":1518071,"SoundDuration":1518071,"Delta":108032208},{"NoteNumber":65,"Velocity":52,"Duration":744336,"SoundDuration":744336,"Delta":108034363},{"NoteNumber":55,"Velocity":32,"Duration":1517982,"SoundDuration":1517982,"Delta":108034363},{"NoteNumber":58,"Velocity":32,"Duration":1517982,"SoundDuration":1517982,"Delta":108034363},{"NoteNumber":36,"Velocity":32,"Duration":3005586,"SoundDuration":3005586,"Delta":108034363},{"NoteNumber":49,"Velocity":38,"Duration":1020621,"SoundDuration":1020621,"Delta":108034363},{"NoteNumber":64,"Velocity":45,"Duration":276036,"SoundDuration":276036,"Delta":108776634},{"NoteNumber":40,"Velocity":43,"Duration":993476,"SoundDuration":993476,"Delta":109052670},{"NoteNumber":67,"Velocity":58,"Duration":1984964,"SoundDuration":1984964,"Delta":109054985},{"NoteNumber":43,"Velocity":43,"Duration":991735,"SoundDuration":991735,"Delta":110048213},{"NoteNumber":56,"Velocity":39,"Duration":1017439,"SoundDuration":1017439,"Delta":111037883},{"NoteNumber":60,"Velocity":51,"Duration":1017666,"SoundDuration":1017666,"Delta":111039949},{"NoteNumber":67,"Velocity":60,"Duration":743802,"SoundDuration":743802,"Delta":111039949},{"NoteNumber":32,"Velocity":32,"Duration":1017666,"SoundDuration":1017666,"Delta":111039949},{"NoteNumber":36,"Velocity":32,"Duration":1017666,"SoundDuration":1017666,"Delta":111039949},{"NoteNumber":44,"Velocity":45,"Duration":1017666,"SoundDuration":1017666,"Delta":111039949},{"NoteNumber":65,"Velocity":52,"Duration":260103,"SoundDuration":260103,"Delta":111783751},{"NoteNumber":58,"Velocity":52,"Duration":984803,"SoundDuration":984803,"Delta":112057616},{"NoteNumber":60,"Velocity":52,"Duration":984803,"SoundDuration":984803,"Delta":112057616},{"NoteNumber":65,"Velocity":62,"Duration":716142,"SoundDuration":716142,"Delta":112057616},{"NoteNumber":31,"Velocity":32,"Duration":984803,"SoundDuration":984803,"Delta":112057616},{"NoteNumber":36,"Velocity":32,"Duration":984803,"SoundDuration":984803,"Delta":112057616},{"NoteNumber":43,"Velocity":45,"Duration":984803,"SoundDuration":984803,"Delta":112057616},{"NoteNumber":64,"Velocity":50,"Duration":254879,"SoundDuration":254879,"Delta":112771774},{"NoteNumber":56,"Velocity":54,"Duration":985725,"SoundDuration":985725,"Delta":113042420},{"NoteNumber":60,"Velocity":54,"Duration":985725,"SoundDuration":985725,"Delta":113042420},{"NoteNumber":67,"Velocity":64,"Duration":721513,"SoundDuration":721513,"Delta":113042420},{"NoteNumber":29,"Velocity":32,"Duration":985725,"SoundDuration":985725,"Delta":113042420},{"NoteNumber":36,"Velocity":32,"Duration":985725,"SoundDuration":985725,"Delta":113042420},{"NoteNumber":41,"Velocity":45,"Duration":985725,"SoundDuration":985725,"Delta":113042420},{"NoteNumber":65,"Velocity":54,"Duration":250938,"SoundDuration":250938,"Delta":113763933},{"NoteNumber":40,"Velocity":45,"Duration":978652,"SoundDuration":978652,"Delta":114025933},{"NoteNumber":28,"Velocity":32,"Duration":978652,"SoundDuration":978652,"Delta":114025933},{"NoteNumber":55,"Velocity":58,"Duration":978692,"SoundDuration":978692,"Delta":114028146},{"NoteNumber":60,"Velocity":58,"Duration":978692,"SoundDuration":978692,"Delta":114028146},{"NoteNumber":68,"Velocity":69,"Duration":710124,"SoundDuration":710124,"Delta":114028146},{"NoteNumber":36,"Velocity":32,"Duration":978692,"SoundDuration":978692,"Delta":114028146},{"NoteNumber":67,"Velocity":45,"Duration":255054,"SoundDuration":255054,"Delta":114738271},{"NoteNumber":64,"Velocity":51,"Duration":238769,"SoundDuration":238769,"Delta":115004586},{"NoteNumber":67,"Velocity":46,"Duration":239751,"SoundDuration":239751,"Delta":115245339},{"NoteNumber":70,"Velocity":42,"Duration":243017,"SoundDuration":243017,"Delta":115485091},{"NoteNumber":73,"Velocity":48,"Duration":246599,"SoundDuration":246599,"Delta":115728109},{"NoteNumber":72,"Velocity":54,"Duration":240396,"SoundDuration":240396,"Delta":115974708},{"NoteNumber":70,"Velocity":43,"Duration":240000,"SoundDuration":240000,"Delta":116215105},{"NoteNumber":68,"Velocity":43,"Duration":239999,"SoundDuration":239999,"Delta":116455105},{"NoteNumber":67,"Velocity":43,"Duration":254896,"SoundDuration":254896,"Delta":116695105},{"NoteNumber":70,"Velocity":53,"Duration":240000,"SoundDuration":240000,"Delta":116950001},{"NoteNumber":76,"Velocity":45,"Duration":240000,"SoundDuration":240000,"Delta":117188001},{"NoteNumber":79,"Velocity":45,"Duration":239999,"SoundDuration":239999,"Delta":117430001},{"NoteNumber":82,"Velocity":45,"Duration":255589,"SoundDuration":255589,"Delta":117670001},{"NoteNumber":80,"Velocity":54,"Duration":237229,"SoundDuration":237229,"Delta":117925591},{"NoteNumber":79,"Velocity":45,"Duration":236220,"SoundDuration":236220,"Delta":118162821},{"NoteNumber":77,"Velocity":45,"Duration":236220,"SoundDuration":236220,"Delta":118399041},{"NoteNumber":76,"Velocity":45,"Duration":251174,"SoundDuration":251174,"Delta":118633293},{"NoteNumber":79,"Velocity":51,"Duration":237014,"SoundDuration":237014,"Delta":118886569},{"NoteNumber":82,"Velocity":53,"Duration":236220,"SoundDuration":236220,"Delta":119123583},{"NoteNumber":84,"Velocity":55,"Duration":236220,"SoundDuration":236220,"Delta":119359804},{"NoteNumber":85,"Velocity":57,"Duration":259637,"SoundDuration":259637,"Delta":119596024},{"NoteNumber":84,"Velocity":60,"Duration":235699,"SoundDuration":235699,"Delta":119855661},{"NoteNumber":82,"Velocity":51,"Duration":234375,"SoundDuration":234375,"Delta":120091361},{"NoteNumber":80,"Velocity":52,"Duration":234375,"SoundDuration":234375,"Delta":120325736},{"NoteNumber":79,"Velocity":52,"Duration":243426,"SoundDuration":243426,"Delta":120560111},{"NoteNumber":82,"Velocity":58,"Duration":234851,"SoundDuration":234851,"Delta":120803537},{"NoteNumber":79,"Velocity":48,"Duration":234375,"SoundDuration":234375,"Delta":121038388},{"NoteNumber":77,"Velocity":49,"Duration":234375,"SoundDuration":234375,"Delta":121272763},{"NoteNumber":76,"Velocity":49,"Duration":253078,"SoundDuration":253078,"Delta":121505185},{"NoteNumber":82,"Velocity":60,"Duration":252528,"SoundDuration":252528,"Delta":121760383},{"NoteNumber":79,"Velocity":53,"Duration":255341,"SoundDuration":255341,"Delta":122012911},{"NoteNumber":77,"Velocity":55,"Duration":258144,"SoundDuration":258144,"Delta":122268252},{"NoteNumber":76,"Velocity":56,"Duration":271311,"SoundDuration":271311,"Delta":122524223},{"NoteNumber":91,"Velocity":69,"Duration":201407,"SoundDuration":201407,"Delta":122795535},{"NoteNumber":79,"Velocity":69,"Duration":201467,"SoundDuration":201467,"Delta":122797747},{"NoteNumber":88,"Velocity":59,"Duration":210280,"SoundDuration":210280,"Delta":123065478},{"NoteNumber":76,"Velocity":59,"Duration":210280,"SoundDuration":210280,"Delta":123065478},{"NoteNumber":85,"Velocity":63,"Duration":219358,"SoundDuration":219358,"Delta":123347256},{"NoteNumber":73,"Velocity":63,"Duration":219405,"SoundDuration":219405,"Delta":123349660},{"NoteNumber":84,"Velocity":65,"Duration":293823,"SoundDuration":293823,"Delta":123640144},{"NoteNumber":72,"Velocity":65,"Duration":294705,"SoundDuration":294705,"Delta":123642595},{"NoteNumber":84,"Velocity":64,"Duration":1040727,"SoundDuration":1040727,"Delta":124033967},{"NoteNumber":72,"Velocity":54,"Duration":1040727,"SoundDuration":1040727,"Delta":124033967},{"NoteNumber":52,"Velocity":38,"Duration":285069,"SoundDuration":285069,"Delta":124033967},{"NoteNumber":55,"Velocity":45,"Duration":285069,"SoundDuration":285069,"Delta":124033967},{"NoteNumber":60,"Velocity":31,"Duration":256879,"SoundDuration":256879,"Delta":124319037},{"NoteNumber":52,"Velocity":26,"Duration":252039,"SoundDuration":252039,"Delta":124575917},{"NoteNumber":55,"Velocity":31,"Duration":252039,"SoundDuration":252039,"Delta":124575917},{"NoteNumber":60,"Velocity":31,"Duration":246738,"SoundDuration":246738,"Delta":124827956},{"NoteNumber":79,"Velocity":58,"Duration":1951219,"SoundDuration":1951219,"Delta":125074694},{"NoteNumber":67,"Velocity":49,"Duration":1951219,"SoundDuration":1951219,"Delta":125074694},{"NoteNumber":52,"Velocity":36,"Duration":243902,"SoundDuration":243902,"Delta":125074694},{"NoteNumber":55,"Velocity":43,"Duration":243902,"SoundDuration":243902,"Delta":125074694},{"NoteNumber":60,"Velocity":32,"Duration":243902,"SoundDuration":243902,"Delta":125318597},{"NoteNumber":52,"Velocity":27,"Duration":243902,"SoundDuration":243902,"Delta":125562499},{"NoteNumber":55,"Velocity":32,"Duration":243902,"SoundDuration":243902,"Delta":125562499},{"NoteNumber":60,"Velocity":32,"Duration":243902,"SoundDuration":243902,"Delta":125806402},{"NoteNumber":52,"Velocity":35,"Duration":243902,"SoundDuration":243902,"Delta":126050304},{"NoteNumber":55,"Velocity":42,"Duration":243902,"SoundDuration":243902,"Delta":126050304},{"NoteNumber":60,"Velocity":33,"Duration":243902,"SoundDuration":243902,"Delta":126294207},{"NoteNumber":52,"Velocity":28,"Duration":243902,"SoundDuration":243902,"Delta":126538109},{"NoteNumber":55,"Velocity":33,"Duration":243902,"SoundDuration":243902,"Delta":126538109},{"NoteNumber":60,"Velocity":33,"Duration":243902,"SoundDuration":243902,"Delta":126782012},{"NoteNumber":81,"Velocity":64,"Duration":479094,"SoundDuration":479094,"Delta":127025914},{"NoteNumber":69,"Velocity":54,"Duration":479094,"SoundDuration":479094,"Delta":127025914},{"NoteNumber":53,"Velocity":36,"Duration":240998,"SoundDuration":240998,"Delta":127025914},{"NoteNumber":57,"Velocity":43,"Duration":240998,"SoundDuration":240998,"Delta":127025914},{"NoteNumber":60,"Velocity":30,"Duration":238095,"SoundDuration":238095,"Delta":127266913},{"NoteNumber":77,"Velocity":53,"Duration":510869,"SoundDuration":510869,"Delta":127505009},{"NoteNumber":65,"Velocity":45,"Duration":510869,"SoundDuration":510869,"Delta":127505009},{"NoteNumber":53,"Velocity":25,"Duration":260869,"SoundDuration":260869,"Delta":127505009},{"NoteNumber":57,"Velocity":30,"Duration":260869,"SoundDuration":260869,"Delta":127505009},{"NoteNumber":60,"Velocity":30,"Duration":260869,"SoundDuration":260869,"Delta":127765878},{"NoteNumber":77,"Velocity":64,"Duration":491803,"SoundDuration":491803,"Delta":128026748},{"NoteNumber":65,"Velocity":54,"Duration":964244,"SoundDuration":964244,"Delta":128026748},{"NoteNumber":55,"Velocity":38,"Duration":245901,"SoundDuration":245901,"Delta":128026748},{"NoteNumber":58,"Velocity":45,"Duration":245901,"SoundDuration":245901,"Delta":128026748},{"NoteNumber":60,"Velocity":32,"Duration":245901,"SoundDuration":245901,"Delta":128272649},{"NoteNumber":76,"Velocity":55,"Duration":118110,"SoundDuration":118110,"Delta":128518551},{"NoteNumber":55,"Velocity":27,"Duration":236220,"SoundDuration":236220,"Delta":128518551},{"NoteNumber":58,"Velocity":32,"Duration":236220,"SoundDuration":236220,"Delta":128518551},{"NoteNumber":77,"Velocity":55,"Duration":118110,"SoundDuration":118110,"Delta":128636661},{"NoteNumber":76,"Velocity":55,"Duration":118110,"SoundDuration":118110,"Delta":128754772},{"NoteNumber":60,"Velocity":32,"Duration":236220,"SoundDuration":236220,"Delta":128754772},{"NoteNumber":74,"Velocity":55,"Duration":118110,"SoundDuration":118110,"Delta":128872882},{"NoteNumber":76,"Velocity":64,"Duration":479999,"SoundDuration":479999,"Delta":128990992},{"NoteNumber":64,"Velocity":54,"Duration":479999,"SoundDuration":479999,"Delta":128990992},{"NoteNumber":55,"Velocity":38,"Duration":240000,"SoundDuration":240000,"Delta":128990992},{"NoteNumber":58,"Velocity":45,"Duration":240000,"SoundDuration":240000,"Delta":128990992},{"NoteNumber":60,"Velocity":31,"Duration":239999,"SoundDuration":239999,"Delta":129230992},{"NoteNumber":77,"Velocity":59,"Duration":507931,"SoundDuration":507931,"Delta":129470992},{"NoteNumber":65,"Velocity":50,"Duration":507931,"SoundDuration":507931,"Delta":129470992},{"NoteNumber":55,"Velocity":26,"Duration":249310,"SoundDuration":249310,"Delta":129470992},{"NoteNumber":58,"Velocity":31,"Duration":249310,"SoundDuration":249310,"Delta":129470992},{"NoteNumber":60,"Velocity":31,"Duration":258620,"SoundDuration":258620,"Delta":129720302},{"NoteNumber":79,"Velocity":62,"Duration":495868,"SoundDuration":495868,"Delta":129978923},{"NoteNumber":67,"Velocity":48,"Duration":495868,"SoundDuration":495868,"Delta":129978923},{"NoteNumber":55,"Velocity":38,"Duration":247933,"SoundDuration":247933,"Delta":129978923},{"NoteNumber":58,"Velocity":45,"Duration":247933,"SoundDuration":247933,"Delta":129978923},{"NoteNumber":60,"Velocity":33,"Duration":247934,"SoundDuration":247934,"Delta":130226857},{"NoteNumber":81,"Velocity":62,"Duration":533648,"SoundDuration":533648,"Delta":130474791},{"NoteNumber":69,"Velocity":52,"Duration":533648,"SoundDuration":533648,"Delta":130474791},{"NoteNumber":53,"Velocity":28,"Duration":247933,"SoundDuration":247933,"Delta":130474791},{"NoteNumber":57,"Velocity":33,"Duration":247933,"SoundDuration":247933,"Delta":130474791},{"NoteNumber":60,"Velocity":33,"Duration":285714,"SoundDuration":285714,"Delta":130722725},{"NoteNumber":82,"Velocity":64,"Duration":238095,"SoundDuration":238095,"Delta":131008439},{"NoteNumber":70,"Velocity":54,"Duration":238095,"SoundDuration":238095,"Delta":131008439},{"NoteNumber":52,"Velocity":38,"Duration":238095,"SoundDuration":238095,"Delta":131008439},{"NoteNumber":55,"Velocity":45,"Duration":238095,"SoundDuration":238095,"Delta":131008439},{"NoteNumber":83,"Velocity":57,"Duration":239495,"SoundDuration":239495,"Delta":131246535},{"NoteNumber":71,"Velocity":48,"Duration":239495,"SoundDuration":239495,"Delta":131246535},{"NoteNumber":60,"Velocity":33,"Duration":252100,"SoundDuration":252100,"Delta":131246535},{"NoteNumber":83,"Velocity":64,"Duration":236220,"SoundDuration":236220,"Delta":131498635},{"NoteNumber":71,"Velocity":54,"Duration":236220,"SoundDuration":236220,"Delta":131498635},{"NoteNumber":52,"Velocity":28,"Duration":236220,"SoundDuration":236220,"Delta":131498635},{"NoteNumber":55,"Velocity":33,"Duration":236220,"SoundDuration":236220,"Delta":131498635},{"NoteNumber":84,"Velocity":59,"Duration":252100,"SoundDuration":252100,"Delta":131734856},{"NoteNumber":72,"Velocity":50,"Duration":252100,"SoundDuration":252100,"Delta":131734856},{"NoteNumber":60,"Velocity":33,"Duration":252100,"SoundDuration":252100,"Delta":131734856},{"NoteNumber":83,"Velocity":64,"Duration":238095,"SoundDuration":238095,"Delta":131986957},{"NoteNumber":52,"Velocity":38,"Duration":238095,"SoundDuration":238095,"Delta":131986957},{"NoteNumber":55,"Velocity":45,"Duration":238095,"SoundDuration":238095,"Delta":131986957},{"NoteNumber":84,"Velocity":57,"Duration":238095,"SoundDuration":238095,"Delta":132225052},{"NoteNumber":60,"Velocity":34,"Duration":238095,"SoundDuration":238095,"Delta":132225052},{"NoteNumber":86,"Velocity":57,"Duration":238095,"SoundDuration":238095,"Delta":132463147},{"NoteNumber":52,"Velocity":28,"Duration":238095,"SoundDuration":238095,"Delta":132463147},{"NoteNumber":55,"Velocity":34,"Duration":238095,"SoundDuration":238095,"Delta":132463147},{"NoteNumber":84,"Velocity":57,"Duration":294117,"SoundDuration":294117,"Delta":132701242},{"NoteNumber":60,"Velocity":34,"Duration":294117,"SoundDuration":294117,"Delta":132701242},{"NoteNumber":79,"Velocity":64,"Duration":1211660,"SoundDuration":1211660,"Delta":132995360},{"NoteNumber":52,"Velocity":37,"Duration":241935,"SoundDuration":241935,"Delta":132995360},{"NoteNumber":55,"Velocity":44,"Duration":241935,"SoundDuration":241935,"Delta":132995360},{"NoteNumber":60,"Velocity":33,"Duration":241935,"SoundDuration":241935,"Delta":133237296},{"NoteNumber":52,"Velocity":28,"Duration":241935,"SoundDuration":241935,"Delta":133479231},{"NoteNumber":55,"Velocity":33,"Duration":241935,"SoundDuration":241935,"Delta":133479231},{"NoteNumber":60,"Velocity":33,"Duration":241935,"SoundDuration":241935,"Delta":133721167},{"NoteNumber":52,"Velocity":38,"Duration":243918,"SoundDuration":243918,"Delta":133963102},{"NoteNumber":55,"Velocity":45,"Duration":243918,"SoundDuration":243918,"Delta":133963102},{"NoteNumber":81,"Velocity":64,"Duration":119047,"SoundDuration":119047,"Delta":134207021},{"NoteNumber":60,"Velocity":34,"Duration":238095,"SoundDuration":238095,"Delta":134207021},{"NoteNumber":79,"Velocity":55,"Duration":119047,"SoundDuration":119047,"Delta":134326068},{"NoteNumber":81,"Velocity":64,"Duration":119047,"SoundDuration":119047,"Delta":134445116},{"NoteNumber":52,"Velocity":28,"Duration":238095,"SoundDuration":238095,"Delta":134445116},{"NoteNumber":55,"Velocity":34,"Duration":238095,"SoundDuration":238095,"Delta":134445116},{"NoteNumber":79,"Velocity":54,"Duration":119047,"SoundDuration":119047,"Delta":134564164},{"NoteNumber":82,"Velocity":64,"Duration":119047,"SoundDuration":119047,"Delta":134683211},{"NoteNumber":60,"Velocity":34,"Duration":238095,"SoundDuration":238095,"Delta":134683211},{"NoteNumber":81,"Velocity":55,"Duration":119047,"SoundDuration":119047,"Delta":134802259},{"NoteNumber":82,"Velocity":64,"Duration":117187,"SoundDuration":117187,"Delta":134921307},{"NoteNumber":53,"Velocity":38,"Duration":234375,"SoundDuration":234375,"Delta":134921307},{"NoteNumber":57,"Velocity":45,"Duration":234375,"SoundDuration":234375,"Delta":134921307},{"NoteNumber":81,"Velocity":56,"Duration":117187,"SoundDuration":117187,"Delta":135038494},{"NoteNumber":84,"Velocity":64,"Duration":117187,"SoundDuration":117187,"Delta":135155682},{"NoteNumber":60,"Velocity":34,"Duration":236709,"SoundDuration":236709,"Delta":135155682},{"NoteNumber":83,"Velocity":57,"Duration":119521,"SoundDuration":119521,"Delta":135272869},{"NoteNumber":84,"Velocity":52,"Duration":59760,"SoundDuration":59760,"Delta":135392391},{"NoteNumber":53,"Velocity":28,"Duration":239043,"SoundDuration":239043,"Delta":135392391},{"NoteNumber":57,"Velocity":34,"Duration":239043,"SoundDuration":239043,"Delta":135392391},{"NoteNumber":83,"Velocity":45,"Duration":59760,"SoundDuration":59760,"Delta":135452152},{"NoteNumber":86,"Velocity":52,"Duration":59760,"SoundDuration":59760,"Delta":135511913},{"NoteNumber":84,"Velocity":48,"Duration":59760,"SoundDuration":59760,"Delta":135571674},{"NoteNumber":89,"Velocity":60,"Duration":127659,"SoundDuration":127659,"Delta":135631435},{"NoteNumber":60,"Velocity":34,"Duration":265908,"SoundDuration":265908,"Delta":135631435},{"NoteNumber":77,"Velocity":54,"Duration":131336,"SoundDuration":131336,"Delta":135759094},{"NoteNumber":77,"Velocity":64,"Duration":483870,"SoundDuration":483870,"Delta":135897343},{"NoteNumber":65,"Velocity":54,"Duration":967741,"SoundDuration":967741,"Delta":135897343},{"NoteNumber":55,"Velocity":38,"Duration":241935,"SoundDuration":241935,"Delta":135897343},{"NoteNumber":58,"Velocity":45,"Duration":241935,"SoundDuration":241935,"Delta":135897343},{"NoteNumber":60,"Velocity":33,"Duration":241935,"SoundDuration":241935,"Delta":136139279},{"NoteNumber":76,"Velocity":55,"Duration":120967,"SoundDuration":120967,"Delta":136381214},{"NoteNumber":55,"Velocity":28,"Duration":241935,"SoundDuration":241935,"Delta":136381214},{"NoteNumber":58,"Velocity":33,"Duration":241935,"SoundDuration":241935,"Delta":136381214},{"NoteNumber":77,"Velocity":55,"Duration":120967,"SoundDuration":120967,"Delta":136502182},{"NoteNumber":76,"Velocity":55,"Duration":120967,"SoundDuration":120967,"Delta":136623150},{"NoteNumber":60,"Velocity":34,"Duration":241935,"SoundDuration":241935,"Delta":136623150},{"NoteNumber":74,"Velocity":55,"Duration":120967,"SoundDuration":120967,"Delta":136744117},{"NoteNumber":76,"Velocity":64,"Duration":479999,"SoundDuration":479999,"Delta":136865085},{"NoteNumber":64,"Velocity":54,"Duration":479999,"SoundDuration":479999,"Delta":136865085},{"NoteNumber":55,"Velocity":39,"Duration":240000,"SoundDuration":240000,"Delta":136865085},{"NoteNumber":58,"Velocity":46,"Duration":240000,"SoundDuration":240000,"Delta":136865085},{"NoteNumber":60,"Velocity":35,"Duration":239999,"SoundDuration":239999,"Delta":137105085},{"NoteNumber":77,"Velocity":59,"Duration":498620,"SoundDuration":498620,"Delta":137345085},{"NoteNumber":65,"Velocity":50,"Duration":498620,"SoundDuration":498620,"Delta":137345085},{"NoteNumber":55,"Velocity":29,"Duration":240000,"SoundDuration":240000,"Delta":137345085},{"NoteNumber":58,"Velocity":35,"Duration":240000,"SoundDuration":240000,"Delta":137345085},{"NoteNumber":60,"Velocity":35,"Duration":258620,"SoundDuration":258620,"Delta":137585085},{"NoteNumber":79,"Velocity":59,"Duration":479999,"SoundDuration":479999,"Delta":137843706},{"NoteNumber":67,"Velocity":50,"Duration":479999,"SoundDuration":479999,"Delta":137843706},{"NoteNumber":55,"Velocity":38,"Duration":240000,"SoundDuration":240000,"Delta":137843706},{"NoteNumber":58,"Velocity":45,"Duration":240000,"SoundDuration":240000,"Delta":137843706},{"NoteNumber":60,"Velocity":35,"Duration":239999,"SoundDuration":239999,"Delta":138083706},{"NoteNumber":80,"Velocity":64,"Duration":480000,"SoundDuration":480000,"Delta":138323706},{"NoteNumber":68,"Velocity":54,"Duration":480000,"SoundDuration":480000,"Delta":138323706},{"NoteNumber":53,"Velocity":29,"Duration":240000,"SoundDuration":240000,"Delta":138323706},{"NoteNumber":56,"Velocity":35,"Duration":240000,"SoundDuration":240000,"Delta":138323706},{"NoteNumber":60,"Velocity":35,"Duration":240000,"SoundDuration":240000,"Delta":138563706},{"NoteNumber":82,"Velocity":64,"Duration":238095,"SoundDuration":238095,"Delta":138803706},{"NoteNumber":70,"Velocity":54,"Duration":238095,"SoundDuration":238095,"Delta":138803706},{"NoteNumber":52,"Velocity":39,"Duration":238095,"SoundDuration":238095,"Delta":138803706},{"NoteNumber":55,"Velocity":47,"Duration":238095,"SoundDuration":238095,"Delta":138803706},{"NoteNumber":83,"Velocity":58,"Duration":239495,"SoundDuration":239495,"Delta":139041801},{"NoteNumber":71,"Velocity":49,"Duration":239495,"SoundDuration":239495,"Delta":139041801},{"NoteNumber":60,"Velocity":36,"Duration":252100,"SoundDuration":252100,"Delta":139041801},{"NoteNumber":83,"Velocity":64,"Duration":236220,"SoundDuration":236220,"Delta":139293902},{"NoteNumber":71,"Velocity":54,"Duration":236220,"SoundDuration":236220,"Delta":139293902},{"NoteNumber":52,"Velocity":30,"Duration":236220,"SoundDuration":236220,"Delta":139293902},{"NoteNumber":55,"Velocity":36,"Duration":236220,"SoundDuration":236220,"Delta":139293902},{"NoteNumber":84,"Velocity":56,"Duration":245689,"SoundDuration":245689,"Delta":139530122},{"NoteNumber":72,"Velocity":47,"Duration":245689,"SoundDuration":245689,"Delta":139530122},{"NoteNumber":60,"Velocity":36,"Duration":258620,"SoundDuration":258620,"Delta":139530122},{"NoteNumber":84,"Velocity":71,"Duration":488782,"SoundDuration":488782,"Delta":139788743},{"NoteNumber":80,"Velocity":60,"Duration":488782,"SoundDuration":488782,"Delta":139788743},{"NoteNumber":72,"Velocity":60,"Duration":488782,"SoundDuration":488782,"Delta":139788743},{"NoteNumber":56,"Velocity":56,"Duration":116731,"SoundDuration":116731,"Delta":139788743},{"NoteNumber":53,"Velocity":56,"Duration":116731,"SoundDuration":116731,"Delta":139788743},{"NoteNumber":60,"Velocity":47,"Duration":127659,"SoundDuration":127659,"Delta":140022206},{"NoteNumber":84,"Velocity":64,"Duration":479521,"SoundDuration":479521,"Delta":140277525},{"NoteNumber":80,"Velocity":64,"Duration":479521,"SoundDuration":479521,"Delta":140277525},{"NoteNumber":92,"Velocity":76,"Duration":479521,"SoundDuration":479521,"Delta":140277525},{"NoteNumber":64,"Velocity":47,"Duration":119521,"SoundDuration":119521,"Delta":140277525},{"NoteNumber":65,"Velocity":47,"Duration":120000,"SoundDuration":120000,"Delta":140517047},{"NoteNumber":60,"Velocity":56,"Duration":119999,"SoundDuration":119999,"Delta":140757047},{"NoteNumber":56,"Velocity":42,"Duration":120000,"SoundDuration":120000,"Delta":140997047},{"NoteNumber":80,"Velocity":73,"Duration":493164,"SoundDuration":493164,"Delta":141237047},{"NoteNumber":72,"Velocity":62,"Duration":493164,"SoundDuration":493164,"Delta":141237047},{"NoteNumber":55,"Velocity":42,"Duration":120000,"SoundDuration":120000,"Delta":141237047},{"NoteNumber":53,"Velocity":42,"Duration":126582,"SoundDuration":126582,"Delta":141483630},{"NoteNumber":48,"Velocity":56,"Duration":115830,"SoundDuration":115830,"Delta":141730212},{"NoteNumber":52,"Velocity":56,"Duration":115830,"SoundDuration":115830,"Delta":141730212},{"NoteNumber":55,"Velocity":40,"Duration":123456,"SoundDuration":123456,"Delta":141961872},{"NoteNumber":79,"Velocity":67,"Duration":481927,"SoundDuration":481927,"Delta":142208786},{"NoteNumber":70,"Velocity":56,"Duration":481927,"SoundDuration":481927,"Delta":142208786},{"NoteNumber":58,"Velocity":40,"Duration":120481,"SoundDuration":120481,"Delta":142208786},{"NoteNumber":48,"Velocity":40,"Duration":120481,"SoundDuration":120481,"Delta":142449749},{"NoteNumber":49,"Velocity":52,"Duration":120481,"SoundDuration":120481,"Delta":142690713},{"NoteNumber":53,"Velocity":36,"Duration":120481,"SoundDuration":120481,"Delta":142931677},{"NoteNumber":68,"Velocity":51,"Duration":497674,"SoundDuration":497674,"Delta":143172641},{"NoteNumber":77,"Velocity":61,"Duration":497674,"SoundDuration":497674,"Delta":143172641},{"NoteNumber":56,"Velocity":36,"Duration":120481,"SoundDuration":120481,"Delta":143172641},{"NoteNumber":53,"Velocity":36,"Duration":132743,"SoundDuration":132743,"Delta":143413604},{"NoteNumber":77,"Velocity":71,"Duration":486627,"SoundDuration":486627,"Delta":143670315},{"NoteNumber":68,"Velocity":63,"Duration":486627,"SoundDuration":486627,"Delta":143670315},{"NoteNumber":49,"Velocity":51,"Duration":116731,"SoundDuration":116731,"Delta":143670315},{"NoteNumber":53,"Velocity":51,"Duration":116731,"SoundDuration":116731,"Delta":143670315},{"NoteNumber":56,"Velocity":38,"Duration":126582,"SoundDuration":126582,"Delta":143903778},{"NoteNumber":80,"Velocity":64,"Duration":470587,"SoundDuration":470587,"Delta":144156942},{"NoteNumber":77,"Velocity":64,"Duration":470587,"SoundDuration":470587,"Delta":144156942},{"NoteNumber":89,"Velocity":76,"Duration":470587,"SoundDuration":470587,"Delta":144156942},{"NoteNumber":60,"Velocity":38,"Duration":117647,"SoundDuration":117647,"Delta":144156942},{"NoteNumber":61,"Velocity":38,"Duration":117646,"SoundDuration":117646,"Delta":144392236},{"NoteNumber":56,"Velocity":47,"Duration":117647,"SoundDuration":117647,"Delta":144627530},{"NoteNumber":53,"Velocity":33,"Duration":117647,"SoundDuration":117647,"Delta":144862824},{"NoteNumber":65,"Velocity":59,"Duration":486339,"SoundDuration":486339,"Delta":145098118},{"NoteNumber":77,"Velocity":70,"Duration":486339,"SoundDuration":486339,"Delta":145098118},{"NoteNumber":68,"Velocity":59,"Duration":486339,"SoundDuration":486339,"Delta":145098118},{"NoteNumber":51,"Velocity":33,"Duration":117646,"SoundDuration":117646,"Delta":145098118},{"NoteNumber":49,"Velocity":33,"Duration":125522,"SoundDuration":125522,"Delta":145333412},{"NoteNumber":41,"Velocity":44,"Duration":120967,"SoundDuration":120967,"Delta":145584458},{"NoteNumber":45,"Velocity":44,"Duration":120967,"SoundDuration":120967,"Delta":145584458},{"NoteNumber":48,"Velocity":33,"Duration":125000,"SoundDuration":125000,"Delta":145830013},{"NoteNumber":65,"Velocity":53,"Duration":504212,"SoundDuration":504212,"Delta":146080013},{"NoteNumber":75,"Velocity":63,"Duration":504212,"SoundDuration":504212,"Delta":146080013},{"NoteNumber":72,"Velocity":53,"Duration":504212,"SoundDuration":504212,"Delta":146080013},{"NoteNumber":53,"Velocity":33,"Duration":125420,"SoundDuration":125420,"Delta":146080013},{"NoteNumber":45,"Velocity":33,"Duration":126050,"SoundDuration":126050,"Delta":146331483},{"NoteNumber":46,"Velocity":44,"Duration":127118,"SoundDuration":127118,"Delta":146584225},{"NoteNumber":49,"Velocity":33,"Duration":127553,"SoundDuration":127553,"Delta":146838462},{"NoteNumber":65,"Velocity":47,"Duration":548335,"SoundDuration":548335,"Delta":147094221},{"NoteNumber":73,"Velocity":56,"Duration":548335,"SoundDuration":548335,"Delta":147094221},{"NoteNumber":70,"Velocity":47,"Duration":548335,"SoundDuration":548335,"Delta":147094221},{"NoteNumber":53,"Velocity":34,"Duration":128205,"SoundDuration":128205,"Delta":147094221},{"NoteNumber":46,"Velocity":34,"Duration":145631,"SoundDuration":145631,"Delta":147351294},{"NoteNumber":68,"Velocity":30,"Duration":4266667,"SoundDuration":4266667,"Delta":147642556},{"NoteNumber":65,"Velocity":30,"Duration":4266667,"SoundDuration":4266667,"Delta":147642556},{"NoteNumber":62,"Velocity":30,"Duration":4266667,"SoundDuration":4266667,"Delta":147642556},{"NoteNumber":72,"Velocity":50,"Duration":800000,"SoundDuration":800000,"Delta":147642556},{"NoteNumber":43,"Velocity":30,"Duration":4266667,"SoundDuration":4266667,"Delta":147642556},{"NoteNumber":56,"Velocity":30,"Duration":1066666,"SoundDuration":1066666,"Delta":147642556},{"NoteNumber":71,"Velocity":45,"Duration":266666,"SoundDuration":266666,"Delta":148442556},{"NoteNumber":74,"Velocity":50,"Duration":3200000,"SoundDuration":3200000,"Delta":148709223},{"NoteNumber":47,"Velocity":23,"Duration":1066666,"SoundDuration":1066666,"Delta":148709223},{"NoteNumber":50,"Velocity":29,"Duration":1066666,"SoundDuration":1066666,"Delta":149775890},{"NoteNumber":47,"Velocity":23,"Duration":1066666,"SoundDuration":1066666,"Delta":150842557},{"NoteNumber":72,"Velocity":50,"Duration":786026,"SoundDuration":786026,"Delta":151909224},{"NoteNumber":71,"Velocity":45,"Duration":262008,"SoundDuration":262008,"Delta":152695250},{"NoteNumber":74,"Velocity":50,"Duration":533333,"SoundDuration":533333,"Delta":152957259},{"NoteNumber":74,"Velocity":50,"Duration":792951,"SoundDuration":792951,"Delta":154023926},{"NoteNumber":72,"Velocity":45,"Duration":264317,"SoundDuration":264317,"Delta":154816878},{"NoteNumber":75,"Velocity":50,"Duration":533333,"SoundDuration":533333,"Delta":155081195},{"NoteNumber":68,"Velocity":30,"Duration":4206476,"SoundDuration":4206476,"Delta":156147862},{"NoteNumber":65,"Velocity":30,"Duration":4206476,"SoundDuration":4206476,"Delta":156147862},{"NoteNumber":75,"Velocity":50,"Duration":786026,"SoundDuration":786026,"Delta":156147862},{"NoteNumber":47,"Velocity":30,"Duration":4206476,"SoundDuration":4206476,"Delta":156147862},{"NoteNumber":62,"Velocity":30,"Duration":1048034,"SoundDuration":1048034,"Delta":156147862},{"NoteNumber":74,"Velocity":45,"Duration":262008,"SoundDuration":262008,"Delta":156933888},{"NoteNumber":77,"Velocity":50,"Duration":3158441,"SoundDuration":3158441,"Delta":157195897},{"NoteNumber":53,"Velocity":23,"Duration":1052813,"SoundDuration":1052813,"Delta":157195897},{"NoteNumber":56,"Velocity":29,"Duration":1038961,"SoundDuration":1038961,"Delta":158248711},{"NoteNumber":53,"Velocity":23,"Duration":1066666,"SoundDuration":1066666,"Delta":159287672},{"NoteNumber":75,"Velocity":50,"Duration":792951,"SoundDuration":792951,"Delta":160354339},{"NoteNumber":74,"Velocity":45,"Duration":264317,"SoundDuration":264317,"Delta":161147291},{"NoteNumber":77,"Velocity":50,"Duration":533333,"SoundDuration":533333,"Delta":161411608},{"NoteNumber":77,"Velocity":50,"Duration":792951,"SoundDuration":792951,"Delta":162478275},{"NoteNumber":75,"Velocity":45,"Duration":264317,"SoundDuration":264317,"Delta":163271227},{"NoteNumber":79,"Velocity":50,"Duration":533333,"SoundDuration":533333,"Delta":163535544},{"NoteNumber":46,"Velocity":33,"Duration":133333,"SoundDuration":133333,"Delta":164468878},{"NoteNumber":68,"Velocity":40,"Duration":792951,"SoundDuration":792951,"Delta":164602211},{"NoteNumber":74,"Velocity":40,"Duration":792951,"SoundDuration":792951,"Delta":164602211},{"NoteNumber":79,"Velocity":50,"Duration":792951,"SoundDuration":792951,"Delta":164602211},{"NoteNumber":62,"Velocity":33,"Duration":1057268,"SoundDuration":1057268,"Delta":164602211},{"NoteNumber":77,"Velocity":45,"Duration":264317,"SoundDuration":264317,"Delta":165395163},{"NoteNumber":80,"Velocity":50,"Duration":1881146,"SoundDuration":1881146,"Delta":165659480},{"NoteNumber":53,"Velocity":26,"Duration":1066666,"SoundDuration":1066666,"Delta":165659480},{"NoteNumber":62,"Velocity":31,"Duration":1085972,"SoundDuration":1085972,"Delta":166726147},{"NoteNumber":77,"Velocity":45,"Duration":271493,"SoundDuration":271493,"Delta":167540627},{"NoteNumber":86,"Velocity":50,"Duration":1923182,"SoundDuration":1923182,"Delta":167812120},{"NoteNumber":53,"Velocity":25,"Duration":1085972,"SoundDuration":1085972,"Delta":167812120},{"NoteNumber":65,"Velocity":33,"Duration":1116278,"SoundDuration":1116278,"Delta":168898093},{"NoteNumber":80,"Velocity":45,"Duration":279069,"SoundDuration":279069,"Delta":169735302},{"NoteNumber":89,"Velocity":50,"Duration":2020801,"SoundDuration":2020801,"Delta":170014372},{"NoteNumber":62,"Velocity":28,"Duration":1116279,"SoundDuration":1116279,"Delta":170014372},{"NoteNumber":68,"Velocity":28,"Duration":1206029,"SoundDuration":1206029,"Delta":171130651},{"NoteNumber":86,"Velocity":45,"Duration":301507,"SoundDuration":301507,"Delta":172035174},{"NoteNumber":92,"Velocity":53,"Duration":1206029,"SoundDuration":1206029,"Delta":172336681},{"NoteNumber":65,"Velocity":28,"Duration":1206029,"SoundDuration":1206029,"Delta":172336681}],"license":{"name":"Creative Commons Attribution-ShareAlike 3.0 Germany","url":"http://creativecommons.org/licenses/by-sa/3.0/de/deed.en","text":"The MIDI files in this folder were downloaded from http://www.piano-midi.de and are licensed under the Creative Commons Attribution-ShareAlike 3.0 Germany license by Bernd Krueger.\n\nThe MIDI, audio(MP3, OGG) and video files of Bernd Krueger are licensed under the cc-by-sa Germany License . This means, that you can use and adapt the files, as long as you attribute to the copyright holder Name: Bernd Krueger Source: http://www.piano-midi.de The distribution or public playback of the files is only allowed under identical license conditions . The scores are open source.","attribution":"Bernd Krueger","attributionUrl":"http://www.piano-midi.de"}}