{"title":"Piano Sonata No. 11 in B-flat major, Op. 22: II. Adagio con molta espressione","artist":"Beethoven","durationMs":321130,"midiSha256":"7c95cdf647fbf6deadb870013f39bf21f9cf2104f1187e6b883002ee44e40452","midiObject":[{"NoteNumber":51,"Velocity":18,"Duration":414746,"SoundDuration":414746,"Delta":0},{"NoteNumber":55,"Velocity":18,"Duration":414746,"SoundDuration":414746,"Delta":0},{"NoteNumber":58,"Velocity":22,"Duration":414746,"SoundDuration":414746,"Delta":0},{"NoteNumber":51,"Velocity":15,"Duration":414746,"SoundDuration":414746,"Delta":460829},{"NoteNumber":55,"Velocity":15,"Duration":414746,"SoundDuration":414746,"Delta":460829},{"NoteNumber":58,"Velocity":18,"Duration":414746,"SoundDuration":414746,"Delta":460829},{"NoteNumber":51,"Velocity":15,"Duration":414746,"SoundDuration":414746,"Delta":921658},{"NoteNumber":55,"Velocity":15,"Duration":414746,"SoundDuration":414746,"Delta":921658},{"NoteNumber":58,"Velocity":18,"Duration":414746,"SoundDuration":414746,"Delta":921658},{"NoteNumber":51,"Velocity":17,"Duration":414746,"SoundDuration":414746,"Delta":1382488},{"NoteNumber":55,"Velocity":17,"Duration":414746,"SoundDuration":414746,"Delta":1382488},{"NoteNumber":58,"Velocity":20,"Duration":414746,"SoundDuration":414746,"Delta":1382488},{"NoteNumber":51,"Velocity":15,"Duration":414746,"SoundDuration":414746,"Delta":1843317},{"NoteNumber":55,"Velocity":15,"Duration":414746,"SoundDuration":414746,"Delta":1843317},{"NoteNumber":58,"Velocity":18,"Duration":414746,"SoundDuration":414746,"Delta":1843317},{"NoteNumber":51,"Velocity":15,"Duration":414746,"SoundDuration":414746,"Delta":2304147},{"NoteNumber":55,"Velocity":15,"Duration":414746,"SoundDuration":414746,"Delta":2304147},{"NoteNumber":58,"Velocity":18,"Duration":414746,"SoundDuration":414746,"Delta":2304147},{"NoteNumber":67,"Velocity":38,"Duration":345622,"SoundDuration":345622,"Delta":2764976},{"NoteNumber":51,"Velocity":18,"Duration":414746,"SoundDuration":414746,"Delta":2764976},{"NoteNumber":55,"Velocity":18,"Duration":414746,"SoundDuration":414746,"Delta":2764976},{"NoteNumber":58,"Velocity":21,"Duration":414746,"SoundDuration":414746,"Delta":2764976},{"NoteNumber":68,"Velocity":36,"Duration":115207,"SoundDuration":115207,"Delta":3110599},{"NoteNumber":67,"Velocity":39,"Duration":230414,"SoundDuration":230414,"Delta":3225806},{"NoteNumber":51,"Velocity":15,"Duration":414746,"SoundDuration":414746,"Delta":3225806},{"NoteNumber":55,"Velocity":15,"Duration":414746,"SoundDuration":414746,"Delta":3225806},{"NoteNumber":58,"Velocity":18,"Duration":414746,"SoundDuration":414746,"Delta":3225806},{"NoteNumber":65,"Velocity":36,"Duration":230414,"SoundDuration":230414,"Delta":3456221},{"NoteNumber":67,"Velocity":40,"Duration":230414,"SoundDuration":230414,"Delta":3686635},{"NoteNumber":51,"Velocity":15,"Duration":430081,"SoundDuration":430081,"Delta":3686635},{"NoteNumber":55,"Velocity":15,"Duration":430081,"SoundDuration":430081,"Delta":3686635},{"NoteNumber":58,"Velocity":18,"Duration":430081,"SoundDuration":430081,"Delta":3686635},{"NoteNumber":68,"Velocity":36,"Duration":249583,"SoundDuration":249583,"Delta":3917050},{"NoteNumber":69,"Velocity":44,"Duration":1371951,"SoundDuration":1371951,"Delta":4166634},{"NoteNumber":51,"Velocity":18,"Duration":411585,"SoundDuration":411585,"Delta":4166634},{"NoteNumber":55,"Velocity":18,"Duration":411585,"SoundDuration":411585,"Delta":4166634},{"NoteNumber":58,"Velocity":22,"Duration":411585,"SoundDuration":411585,"Delta":4166634},{"NoteNumber":51,"Velocity":15,"Duration":411585,"SoundDuration":411585,"Delta":4623951},{"NoteNumber":55,"Velocity":15,"Duration":411585,"SoundDuration":411585,"Delta":4623951},{"NoteNumber":58,"Velocity":18,"Duration":411585,"SoundDuration":411585,"Delta":4623951},{"NoteNumber":51,"Velocity":15,"Duration":411585,"SoundDuration":411585,"Delta":5081268},{"NoteNumber":55,"Velocity":15,"Duration":411585,"SoundDuration":411585,"Delta":5081268},{"NoteNumber":58,"Velocity":18,"Duration":411585,"SoundDuration":411585,"Delta":5081268},{"NoteNumber":70,"Velocity":51,"Duration":1714938,"SoundDuration":1714938,"Delta":5538585},{"NoteNumber":51,"Velocity":17,"Duration":411585,"SoundDuration":411585,"Delta":5538585},{"NoteNumber":55,"Velocity":17,"Duration":411585,"SoundDuration":411585,"Delta":5538585},{"NoteNumber":58,"Velocity":20,"Duration":411585,"SoundDuration":411585,"Delta":5538585},{"NoteNumber":51,"Velocity":15,"Duration":411585,"SoundDuration":411585,"Delta":5995902},{"NoteNumber":55,"Velocity":15,"Duration":411585,"SoundDuration":411585,"Delta":5995902},{"NoteNumber":58,"Velocity":18,"Duration":411585,"SoundDuration":411585,"Delta":5995902},{"NoteNumber":51,"Velocity":15,"Duration":411585,"SoundDuration":411585,"Delta":6453219},{"NoteNumber":55,"Velocity":15,"Duration":411585,"SoundDuration":411585,"Delta":6453219},{"NoteNumber":58,"Velocity":18,"Duration":411585,"SoundDuration":411585,"Delta":6453219},{"NoteNumber":51,"Velocity":18,"Duration":411585,"SoundDuration":411585,"Delta":6910536},{"NoteNumber":55,"Velocity":18,"Duration":411585,"SoundDuration":411585,"Delta":6910536},{"NoteNumber":58,"Velocity":21,"Duration":411585,"SoundDuration":411585,"Delta":6910536},{"NoteNumber":72,"Velocity":39,"Duration":114329,"SoundDuration":114329,"Delta":7253524},{"NoteNumber":70,"Velocity":49,"Duration":221893,"SoundDuration":221893,"Delta":7367853},{"NoteNumber":51,"Velocity":15,"Duration":399408,"SoundDuration":399408,"Delta":7367853},{"NoteNumber":55,"Velocity":15,"Duration":399408,"SoundDuration":399408,"Delta":7367853},{"NoteNumber":58,"Velocity":18,"Duration":399408,"SoundDuration":399408,"Delta":7367853},{"NoteNumber":69,"Velocity":42,"Duration":221893,"SoundDuration":221893,"Delta":7589747},{"NoteNumber":70,"Velocity":51,"Duration":221893,"SoundDuration":221893,"Delta":7811640},{"NoteNumber":51,"Velocity":15,"Duration":418292,"SoundDuration":418292,"Delta":7811640},{"NoteNumber":55,"Velocity":15,"Duration":418292,"SoundDuration":418292,"Delta":7811640},{"NoteNumber":58,"Velocity":18,"Duration":418292,"SoundDuration":418292,"Delta":7811640},{"NoteNumber":71,"Velocity":46,"Duration":245499,"SoundDuration":245499,"Delta":8033534},{"NoteNumber":71,"Velocity":50,"Duration":790919,"SoundDuration":790919,"Delta":8279033},{"NoteNumber":50,"Velocity":18,"Duration":408472,"SoundDuration":408472,"Delta":8279033},{"NoteNumber":56,"Velocity":18,"Duration":408472,"SoundDuration":408472,"Delta":8279033},{"NoteNumber":58,"Velocity":22,"Duration":408472,"SoundDuration":408472,"Delta":8279033},{"NoteNumber":50,"Velocity":15,"Duration":403140,"SoundDuration":403140,"Delta":8732891},{"NoteNumber":56,"Velocity":15,"Duration":403140,"SoundDuration":403140,"Delta":8732891},{"NoteNumber":58,"Velocity":18,"Duration":403140,"SoundDuration":403140,"Delta":8732891},{"NoteNumber":72,"Velocity":39,"Duration":55066,"SoundDuration":55066,"Delta":8959820},{"NoteNumber":71,"Velocity":33,"Duration":55066,"SoundDuration":55066,"Delta":9014886},{"NoteNumber":69,"Velocity":41,"Duration":55066,"SoundDuration":55066,"Delta":9069952},{"NoteNumber":71,"Velocity":37,"Duration":55066,"SoundDuration":55066,"Delta":9125018},{"NoteNumber":74,"Velocity":53,"Duration":330396,"SoundDuration":330396,"Delta":9180084},{"NoteNumber":50,"Velocity":15,"Duration":396475,"SoundDuration":396475,"Delta":9180084},{"NoteNumber":56,"Velocity":15,"Duration":396475,"SoundDuration":396475,"Delta":9180084},{"NoteNumber":58,"Velocity":18,"Duration":396475,"SoundDuration":396475,"Delta":9180084},{"NoteNumber":72,"Velocity":44,"Duration":110132,"SoundDuration":110132,"Delta":9510481},{"NoteNumber":65,"Velocity":55,"Duration":1714938,"SoundDuration":1714938,"Delta":9620613},{"NoteNumber":50,"Velocity":17,"Duration":411585,"SoundDuration":411585,"Delta":9620613},{"NoteNumber":56,"Velocity":17,"Duration":411585,"SoundDuration":411585,"Delta":9620613},{"NoteNumber":58,"Velocity":20,"Duration":411585,"SoundDuration":411585,"Delta":9620613},{"NoteNumber":50,"Velocity":15,"Duration":411585,"SoundDuration":411585,"Delta":10077930},{"NoteNumber":56,"Velocity":15,"Duration":411585,"SoundDuration":411585,"Delta":10077930},{"NoteNumber":58,"Velocity":18,"Duration":411585,"SoundDuration":411585,"Delta":10077930},{"NoteNumber":50,"Velocity":15,"Duration":411585,"SoundDuration":411585,"Delta":10535247},{"NoteNumber":56,"Velocity":15,"Duration":411585,"SoundDuration":411585,"Delta":10535247},{"NoteNumber":58,"Velocity":18,"Duration":411585,"SoundDuration":411585,"Delta":10535247},{"NoteNumber":50,"Velocity":18,"Duration":411585,"SoundDuration":411585,"Delta":10992564},{"NoteNumber":56,"Velocity":18,"Duration":411585,"SoundDuration":411585,"Delta":10992564},{"NoteNumber":58,"Velocity":21,"Duration":411585,"SoundDuration":411585,"Delta":10992564},{"NoteNumber":67,"Velocity":39,"Duration":114329,"SoundDuration":114329,"Delta":11335552},{"NoteNumber":65,"Velocity":46,"Duration":228658,"SoundDuration":228658,"Delta":11449881},{"NoteNumber":50,"Velocity":15,"Duration":411585,"SoundDuration":411585,"Delta":11449881},{"NoteNumber":56,"Velocity":15,"Duration":411585,"SoundDuration":411585,"Delta":11449881},{"NoteNumber":58,"Velocity":18,"Duration":411585,"SoundDuration":411585,"Delta":11449881},{"NoteNumber":64,"Velocity":42,"Duration":228658,"SoundDuration":228658,"Delta":11678539},{"NoteNumber":65,"Velocity":49,"Duration":228658,"SoundDuration":228658,"Delta":11907198},{"NoteNumber":50,"Velocity":15,"Duration":421895,"SoundDuration":421895,"Delta":11907198},{"NoteNumber":56,"Velocity":15,"Duration":421895,"SoundDuration":421895,"Delta":11907198},{"NoteNumber":58,"Velocity":18,"Duration":421895,"SoundDuration":421895,"Delta":11907198},{"NoteNumber":67,"Velocity":46,"Duration":241545,"SoundDuration":241545,"Delta":12135856},{"NoteNumber":68,"Velocity":55,"Duration":1588503,"SoundDuration":1588503,"Delta":12377402},{"NoteNumber":53,"Velocity":18,"Duration":408472,"SoundDuration":408472,"Delta":12377402},{"NoteNumber":50,"Velocity":18,"Duration":408472,"SoundDuration":408472,"Delta":12377402},{"NoteNumber":56,"Velocity":18,"Duration":408472,"SoundDuration":408472,"Delta":12377402},{"NoteNumber":58,"Velocity":22,"Duration":408472,"SoundDuration":408472,"Delta":12377402},{"NoteNumber":53,"Velocity":15,"Duration":408472,"SoundDuration":408472,"Delta":12831260},{"NoteNumber":50,"Velocity":15,"Duration":408472,"SoundDuration":408472,"Delta":12831260},{"NoteNumber":56,"Velocity":15,"Duration":408472,"SoundDuration":408472,"Delta":12831260},{"NoteNumber":58,"Velocity":18,"Duration":408472,"SoundDuration":408472,"Delta":12831260},{"NoteNumber":53,"Velocity":15,"Duration":408472,"SoundDuration":408472,"Delta":13285118},{"NoteNumber":50,"Velocity":15,"Duration":408472,"SoundDuration":408472,"Delta":13285118},{"NoteNumber":56,"Velocity":15,"Duration":408472,"SoundDuration":408472,"Delta":13285118},{"NoteNumber":58,"Velocity":18,"Duration":408472,"SoundDuration":408472,"Delta":13285118},{"NoteNumber":53,"Velocity":17,"Duration":408472,"SoundDuration":408472,"Delta":13738976},{"NoteNumber":50,"Velocity":17,"Duration":408472,"SoundDuration":408472,"Delta":13738976},{"NoteNumber":56,"Velocity":17,"Duration":408472,"SoundDuration":408472,"Delta":13738976},{"NoteNumber":58,"Velocity":20,"Duration":408472,"SoundDuration":408472,"Delta":13738976},{"NoteNumber":67,"Velocity":47,"Duration":226928,"SoundDuration":226928,"Delta":13965905},{"NoteNumber":65,"Velocity":48,"Duration":226929,"SoundDuration":226929,"Delta":14192834},{"NoteNumber":53,"Velocity":15,"Duration":408472,"SoundDuration":408472,"Delta":14192834},{"NoteNumber":50,"Velocity":15,"Duration":408472,"SoundDuration":408472,"Delta":14192834},{"NoteNumber":56,"Velocity":15,"Duration":408472,"SoundDuration":408472,"Delta":14192834},{"NoteNumber":58,"Velocity":18,"Duration":408472,"SoundDuration":408472,"Delta":14192834},{"NoteNumber":64,"Velocity":44,"Duration":226929,"SoundDuration":226929,"Delta":14419763},{"NoteNumber":65,"Velocity":49,"Duration":226929,"SoundDuration":226929,"Delta":14646692},{"NoteNumber":53,"Velocity":15,"Duration":405766,"SoundDuration":405766,"Delta":14646692},{"NoteNumber":50,"Velocity":15,"Duration":405766,"SoundDuration":405766,"Delta":14646692},{"NoteNumber":56,"Velocity":15,"Duration":405766,"SoundDuration":405766,"Delta":14646692},{"NoteNumber":58,"Velocity":18,"Duration":405766,"SoundDuration":405766,"Delta":14646692},{"NoteNumber":67,"Velocity":44,"Duration":223546,"SoundDuration":223546,"Delta":14873621},{"NoteNumber":68,"Velocity":50,"Duration":223546,"SoundDuration":223546,"Delta":15097168},{"NoteNumber":53,"Velocity":18,"Duration":402384,"SoundDuration":402384,"Delta":15097168},{"NoteNumber":50,"Velocity":18,"Duration":402384,"SoundDuration":402384,"Delta":15097168},{"NoteNumber":56,"Velocity":18,"Duration":402384,"SoundDuration":402384,"Delta":15097168},{"NoteNumber":58,"Velocity":21,"Duration":402384,"SoundDuration":402384,"Delta":15097168},{"NoteNumber":70,"Velocity":45,"Duration":223546,"SoundDuration":223546,"Delta":15320715},{"NoteNumber":72,"Velocity":54,"Duration":223546,"SoundDuration":223546,"Delta":15544262},{"NoteNumber":53,"Velocity":15,"Duration":402384,"SoundDuration":402384,"Delta":15544262},{"NoteNumber":50,"Velocity":15,"Duration":402384,"SoundDuration":402384,"Delta":15544262},{"NoteNumber":56,"Velocity":15,"Duration":402384,"SoundDuration":402384,"Delta":15544262},{"NoteNumber":58,"Velocity":18,"Duration":402384,"SoundDuration":402384,"Delta":15544262},{"NoteNumber":71,"Velocity":45,"Duration":223546,"SoundDuration":223546,"Delta":15767809},{"NoteNumber":72,"Velocity":48,"Duration":223547,"SoundDuration":223547,"Delta":15991356},{"NoteNumber":53,"Velocity":15,"Duration":423214,"SoundDuration":423214,"Delta":15991356},{"NoteNumber":50,"Velocity":15,"Duration":423214,"SoundDuration":423214,"Delta":15991356},{"NoteNumber":56,"Velocity":15,"Duration":423214,"SoundDuration":423214,"Delta":15991356},{"NoteNumber":58,"Velocity":18,"Duration":423214,"SoundDuration":423214,"Delta":15991356},{"NoteNumber":68,"Velocity":39,"Duration":249583,"SoundDuration":249583,"Delta":16214903},{"NoteNumber":66,"Velocity":58,"Duration":1361574,"SoundDuration":1361574,"Delta":16464487},{"NoteNumber":51,"Velocity":18,"Duration":408472,"SoundDuration":408472,"Delta":16464487},{"NoteNumber":56,"Velocity":18,"Duration":408472,"SoundDuration":408472,"Delta":16464487},{"NoteNumber":58,"Velocity":22,"Duration":408472,"SoundDuration":408472,"Delta":16464487},{"NoteNumber":51,"Velocity":15,"Duration":408472,"SoundDuration":408472,"Delta":16918345},{"NoteNumber":56,"Velocity":15,"Duration":408472,"SoundDuration":408472,"Delta":16918345},{"NoteNumber":58,"Velocity":18,"Duration":408472,"SoundDuration":408472,"Delta":16918345},{"NoteNumber":51,"Velocity":15,"Duration":408472,"SoundDuration":408472,"Delta":17372203},{"NoteNumber":56,"Velocity":15,"Duration":408472,"SoundDuration":408472,"Delta":17372203},{"NoteNumber":58,"Velocity":18,"Duration":408472,"SoundDuration":408472,"Delta":17372203},{"NoteNumber":67,"Velocity":55,"Duration":1588502,"SoundDuration":1588502,"Delta":17826061},{"NoteNumber":51,"Velocity":17,"Duration":408472,"SoundDuration":408472,"Delta":17826061},{"NoteNumber":55,"Velocity":17,"Duration":408472,"SoundDuration":408472,"Delta":17826061},{"NoteNumber":58,"Velocity":20,"Duration":408472,"SoundDuration":408472,"Delta":17826061},{"NoteNumber":51,"Velocity":15,"Duration":408472,"SoundDuration":408472,"Delta":18279919},{"NoteNumber":55,"Velocity":15,"Duration":408472,"SoundDuration":408472,"Delta":18279919},{"NoteNumber":58,"Velocity":18,"Duration":408472,"SoundDuration":408472,"Delta":18279919},{"NoteNumber":51,"Velocity":15,"Duration":408472,"SoundDuration":408472,"Delta":18733777},{"NoteNumber":55,"Velocity":15,"Duration":408472,"SoundDuration":408472,"Delta":18733777},{"NoteNumber":58,"Velocity":18,"Duration":408472,"SoundDuration":408472,"Delta":18733777},{"NoteNumber":51,"Velocity":36,"Duration":447193,"SoundDuration":447193,"Delta":19187635},{"NoteNumber":63,"Velocity":55,"Duration":220264,"SoundDuration":220264,"Delta":19414564},{"NoteNumber":67,"Velocity":59,"Duration":220264,"SoundDuration":220264,"Delta":19634829},{"NoteNumber":46,"Velocity":40,"Duration":440528,"SoundDuration":440528,"Delta":19634829},{"NoteNumber":70,"Velocity":62,"Duration":220264,"SoundDuration":220264,"Delta":19855093},{"NoteNumber":75,"Velocity":66,"Duration":220264,"SoundDuration":220264,"Delta":20075357},{"NoteNumber":44,"Velocity":43,"Duration":463770,"SoundDuration":463770,"Delta":20075357},{"NoteNumber":79,"Velocity":69,"Duration":243506,"SoundDuration":243506,"Delta":20295621},{"NoteNumber":82,"Velocity":72,"Duration":1801801,"SoundDuration":1801801,"Delta":20539128},{"NoteNumber":43,"Velocity":48,"Duration":450450,"SoundDuration":450450,"Delta":20539128},{"NoteNumber":43,"Velocity":29,"Duration":405405,"SoundDuration":405405,"Delta":20989578},{"NoteNumber":46,"Velocity":29,"Duration":405405,"SoundDuration":405405,"Delta":20989578},{"NoteNumber":51,"Velocity":35,"Duration":405405,"SoundDuration":405405,"Delta":20989578},{"NoteNumber":43,"Velocity":29,"Duration":405405,"SoundDuration":405405,"Delta":21440029},{"NoteNumber":46,"Velocity":29,"Duration":405405,"SoundDuration":405405,"Delta":21440029},{"NoteNumber":51,"Velocity":35,"Duration":405405,"SoundDuration":405405,"Delta":21440029},{"NoteNumber":43,"Velocity":29,"Duration":405405,"SoundDuration":405405,"Delta":21890479},{"NoteNumber":46,"Velocity":29,"Duration":405405,"SoundDuration":405405,"Delta":21890479},{"NoteNumber":51,"Velocity":35,"Duration":405405,"SoundDuration":405405,"Delta":21890479},{"NoteNumber":79,"Velocity":69,"Duration":450450,"SoundDuration":450450,"Delta":22340930},{"NoteNumber":43,"Velocity":27,"Duration":405405,"SoundDuration":405405,"Delta":22340930},{"NoteNumber":46,"Velocity":27,"Duration":405405,"SoundDuration":405405,"Delta":22340930},{"NoteNumber":51,"Velocity":32,"Duration":405405,"SoundDuration":405405,"Delta":22340930},{"NoteNumber":75,"Velocity":65,"Duration":450450,"SoundDuration":450450,"Delta":22791380},{"NoteNumber":43,"Velocity":27,"Duration":405405,"SoundDuration":405405,"Delta":22791380},{"NoteNumber":46,"Velocity":27,"Duration":405405,"SoundDuration":405405,"Delta":22791380},{"NoteNumber":51,"Velocity":32,"Duration":405405,"SoundDuration":405405,"Delta":22791380},{"NoteNumber":70,"Velocity":65,"Duration":450450,"SoundDuration":450450,"Delta":23241831},{"NoteNumber":43,"Velocity":29,"Duration":405405,"SoundDuration":405405,"Delta":23241831},{"NoteNumber":46,"Velocity":29,"Duration":405405,"SoundDuration":405405,"Delta":23241831},{"NoteNumber":51,"Velocity":35,"Duration":405405,"SoundDuration":405405,"Delta":23241831},{"NoteNumber":67,"Velocity":68,"Duration":450450,"SoundDuration":450450,"Delta":23692281},{"NoteNumber":43,"Velocity":25,"Duration":405405,"SoundDuration":405405,"Delta":23692281},{"NoteNumber":46,"Velocity":25,"Duration":405405,"SoundDuration":405405,"Delta":23692281},{"NoteNumber":51,"Velocity":30,"Duration":405405,"SoundDuration":405405,"Delta":23692281},{"NoteNumber":63,"Velocity":66,"Duration":461538,"SoundDuration":461538,"Delta":24142732},{"NoteNumber":43,"Velocity":25,"Duration":415384,"SoundDuration":415384,"Delta":24142732},{"NoteNumber":46,"Velocity":25,"Duration":415384,"SoundDuration":415384,"Delta":24142732},{"NoteNumber":51,"Velocity":30,"Duration":415384,"SoundDuration":415384,"Delta":24142732},{"NoteNumber":60,"Velocity":72,"Duration":1360638,"SoundDuration":1360638,"Delta":24604270},{"NoteNumber":44,"Velocity":31,"Duration":402984,"SoundDuration":402984,"Delta":24604270},{"NoteNumber":48,"Velocity":31,"Duration":402984,"SoundDuration":402984,"Delta":24604270},{"NoteNumber":51,"Velocity":38,"Duration":402984,"SoundDuration":402984,"Delta":24604270},{"NoteNumber":44,"Velocity":27,"Duration":402984,"SoundDuration":402984,"Delta":25052031},{"NoteNumber":48,"Velocity":27,"Duration":402984,"SoundDuration":402984,"Delta":25052031},{"NoteNumber":51,"Velocity":33,"Duration":402984,"SoundDuration":402984,"Delta":25052031},{"NoteNumber":44,"Velocity":27,"Duration":418604,"SoundDuration":418604,"Delta":25499792},{"NoteNumber":48,"Velocity":27,"Duration":418604,"SoundDuration":418604,"Delta":25499792},{"NoteNumber":51,"Velocity":33,"Duration":418604,"SoundDuration":418604,"Delta":25499792},{"NoteNumber":84,"Velocity":72,"Duration":1777778,"SoundDuration":1777778,"Delta":25964909},{"NoteNumber":44,"Velocity":31,"Duration":400000,"SoundDuration":400000,"Delta":25964909},{"NoteNumber":48,"Velocity":31,"Duration":400000,"SoundDuration":400000,"Delta":25964909},{"NoteNumber":52,"Velocity":38,"Duration":400000,"SoundDuration":400000,"Delta":25964909},{"NoteNumber":44,"Velocity":27,"Duration":400000,"SoundDuration":400000,"Delta":26409353},{"NoteNumber":48,"Velocity":27,"Duration":400000,"SoundDuration":400000,"Delta":26409353},{"NoteNumber":52,"Velocity":33,"Duration":400000,"SoundDuration":400000,"Delta":26409353},{"NoteNumber":44,"Velocity":27,"Duration":400000,"SoundDuration":400000,"Delta":26853798},{"NoteNumber":48,"Velocity":27,"Duration":400000,"SoundDuration":400000,"Delta":26853798},{"NoteNumber":52,"Velocity":33,"Duration":400000,"SoundDuration":400000,"Delta":26853798},{"NoteNumber":44,"Velocity":31,"Duration":400000,"SoundDuration":400000,"Delta":27298242},{"NoteNumber":48,"Velocity":31,"Duration":400000,"SoundDuration":400000,"Delta":27298242},{"NoteNumber":53,"Velocity":38,"Duration":400000,"SoundDuration":400000,"Delta":27298242},{"NoteNumber":82,"Velocity":67,"Duration":222222,"SoundDuration":222222,"Delta":27742687},{"NoteNumber":44,"Velocity":25,"Duration":400000,"SoundDuration":400000,"Delta":27742687},{"NoteNumber":48,"Velocity":25,"Duration":400000,"SoundDuration":400000,"Delta":27742687},{"NoteNumber":53,"Velocity":30,"Duration":400000,"SoundDuration":400000,"Delta":27742687},{"NoteNumber":80,"Velocity":61,"Duration":222222,"SoundDuration":222222,"Delta":27964909},{"NoteNumber":79,"Velocity":67,"Duration":222222,"SoundDuration":222222,"Delta":28187131},{"NoteNumber":44,"Velocity":25,"Duration":430917,"SoundDuration":430917,"Delta":28187131},{"NoteNumber":48,"Velocity":25,"Duration":430917,"SoundDuration":430917,"Delta":28187131},{"NoteNumber":53,"Velocity":30,"Duration":430917,"SoundDuration":430917,"Delta":28187131},{"NoteNumber":77,"Velocity":60,"Duration":239130,"SoundDuration":239130,"Delta":28409353},{"NoteNumber":77,"Velocity":67,"Duration":458015,"SoundDuration":458015,"Delta":28670223},{"NoteNumber":46,"Velocity":29,"Duration":412213,"SoundDuration":412213,"Delta":28670223},{"NoteNumber":51,"Velocity":29,"Duration":412213,"SoundDuration":412213,"Delta":28670223},{"NoteNumber":55,"Velocity":35,"Duration":412213,"SoundDuration":412213,"Delta":28670223},{"NoteNumber":75,"Velocity":60,"Duration":1323529,"SoundDuration":1323529,"Delta":29128238},{"NoteNumber":46,"Velocity":23,"Duration":397058,"SoundDuration":397058,"Delta":29128238},{"NoteNumber":51,"Velocity":23,"Duration":397058,"SoundDuration":397058,"Delta":29128238},{"NoteNumber":55,"Velocity":28,"Duration":397058,"SoundDuration":397058,"Delta":29128238},{"NoteNumber":46,"Velocity":23,"Duration":397058,"SoundDuration":397058,"Delta":29569415},{"NoteNumber":51,"Velocity":23,"Duration":397058,"SoundDuration":397058,"Delta":29569415},{"NoteNumber":55,"Velocity":28,"Duration":397058,"SoundDuration":397058,"Delta":29569415},{"NoteNumber":46,"Velocity":20,"Duration":397058,"SoundDuration":397058,"Delta":30010591},{"NoteNumber":51,"Velocity":20,"Duration":397058,"SoundDuration":397058,"Delta":30010591},{"NoteNumber":55,"Velocity":25,"Duration":397058,"SoundDuration":397058,"Delta":30010591},{"NoteNumber":75,"Velocity":56,"Duration":441176,"SoundDuration":441176,"Delta":30451768},{"NoteNumber":46,"Velocity":18,"Duration":397058,"SoundDuration":397058,"Delta":30451768},{"NoteNumber":51,"Velocity":18,"Duration":397058,"SoundDuration":397058,"Delta":30451768},{"NoteNumber":55,"Velocity":21,"Duration":397058,"SoundDuration":397058,"Delta":30451768},{"NoteNumber":75,"Velocity":54,"Duration":441176,"SoundDuration":441176,"Delta":30892944},{"NoteNumber":46,"Velocity":17,"Duration":397058,"SoundDuration":397058,"Delta":30892944},{"NoteNumber":51,"Velocity":17,"Duration":397058,"SoundDuration":397058,"Delta":30892944},{"NoteNumber":55,"Velocity":21,"Duration":397058,"SoundDuration":397058,"Delta":30892944},{"NoteNumber":75,"Velocity":53,"Duration":57251,"SoundDuration":57251,"Delta":31334121},{"NoteNumber":46,"Velocity":20,"Duration":412213,"SoundDuration":412213,"Delta":31334121},{"NoteNumber":53,"Velocity":20,"Duration":412213,"SoundDuration":412213,"Delta":31334121},{"NoteNumber":56,"Velocity":24,"Duration":412213,"SoundDuration":412213,"Delta":31334121},{"NoteNumber":77,"Velocity":43,"Duration":57251,"SoundDuration":57251,"Delta":31391373},{"NoteNumber":75,"Velocity":54,"Duration":57251,"SoundDuration":57251,"Delta":31448625},{"NoteNumber":77,"Velocity":46,"Duration":57251,"SoundDuration":57251,"Delta":31505877},{"NoteNumber":75,"Velocity":52,"Duration":57251,"SoundDuration":57251,"Delta":31563129},{"NoteNumber":77,"Velocity":44,"Duration":57251,"SoundDuration":57251,"Delta":31620381},{"NoteNumber":75,"Velocity":51,"Duration":38167,"SoundDuration":38167,"Delta":31677633},{"NoteNumber":74,"Velocity":43,"Duration":38167,"SoundDuration":38167,"Delta":31715801},{"NoteNumber":75,"Velocity":43,"Duration":38167,"SoundDuration":38167,"Delta":31753969},{"NoteNumber":77,"Velocity":54,"Duration":437956,"SoundDuration":437956,"Delta":31792136},{"NoteNumber":46,"Velocity":17,"Duration":394160,"SoundDuration":394160,"Delta":31792136},{"NoteNumber":53,"Velocity":17,"Duration":394160,"SoundDuration":394160,"Delta":31792136},{"NoteNumber":56,"Velocity":20,"Duration":394160,"SoundDuration":394160,"Delta":31792136},{"NoteNumber":74,"Velocity":47,"Duration":476190,"SoundDuration":476190,"Delta":32230092},{"NoteNumber":46,"Velocity":16,"Duration":428571,"SoundDuration":428571,"Delta":32230092},{"NoteNumber":53,"Velocity":16,"Duration":428571,"SoundDuration":428571,"Delta":32230092},{"NoteNumber":56,"Velocity":20,"Duration":428571,"SoundDuration":428571,"Delta":32230092},{"NoteNumber":75,"Velocity":47,"Duration":451127,"SoundDuration":451127,"Delta":32706283},{"NoteNumber":51,"Velocity":26,"Duration":889083,"SoundDuration":889083,"Delta":32706283},{"NoteNumber":55,"Velocity":31,"Duration":889083,"SoundDuration":889083,"Delta":32706283},{"NoteNumber":70,"Velocity":43,"Duration":394160,"SoundDuration":394160,"Delta":33157411},{"NoteNumber":70,"Velocity":43,"Duration":394160,"SoundDuration":394160,"Delta":33595367},{"NoteNumber":70,"Velocity":49,"Duration":437955,"SoundDuration":437955,"Delta":34033323},{"NoteNumber":72,"Velocity":41,"Duration":437955,"SoundDuration":437955,"Delta":34471279},{"NoteNumber":68,"Velocity":32,"Duration":444444,"SoundDuration":444444,"Delta":34909235},{"NoteNumber":63,"Velocity":36,"Duration":869565,"SoundDuration":869565,"Delta":35353680},{"NoteNumber":67,"Velocity":43,"Duration":434782,"SoundDuration":434782,"Delta":35353680},{"NoteNumber":46,"Velocity":26,"Duration":1324110,"SoundDuration":1324110,"Delta":35353680},{"NoteNumber":58,"Velocity":31,"Duration":869565,"SoundDuration":869565,"Delta":35353680},{"NoteNumber":68,"Velocity":37,"Duration":434782,"SoundDuration":434782,"Delta":35788462},{"NoteNumber":62,"Velocity":27,"Duration":454545,"SoundDuration":454545,"Delta":36223245},{"NoteNumber":65,"Velocity":32,"Duration":454545,"SoundDuration":454545,"Delta":36223245},{"NoteNumber":56,"Velocity":29,"Duration":454545,"SoundDuration":454545,"Delta":36223245},{"NoteNumber":63,"Velocity":47,"Duration":465116,"SoundDuration":465116,"Delta":36677790},{"NoteNumber":51,"Velocity":26,"Duration":906292,"SoundDuration":906292,"Delta":36677790},{"NoteNumber":55,"Velocity":31,"Duration":906292,"SoundDuration":906292,"Delta":36677790},{"NoteNumber":58,"Velocity":38,"Duration":397058,"SoundDuration":397058,"Delta":37142907},{"NoteNumber":58,"Velocity":38,"Duration":397058,"SoundDuration":397058,"Delta":37584083},{"NoteNumber":58,"Velocity":34,"Duration":57251,"SoundDuration":57251,"Delta":38025260},{"NoteNumber":60,"Velocity":27,"Duration":57251,"SoundDuration":57251,"Delta":38082511},{"NoteNumber":58,"Velocity":34,"Duration":57251,"SoundDuration":57251,"Delta":38139763},{"NoteNumber":60,"Velocity":29,"Duration":57251,"SoundDuration":57251,"Delta":38197015},{"NoteNumber":58,"Velocity":33,"Duration":57251,"SoundDuration":57251,"Delta":38254267},{"NoteNumber":60,"Velocity":27,"Duration":57251,"SoundDuration":57251,"Delta":38311519},{"NoteNumber":58,"Velocity":32,"Duration":38167,"SoundDuration":38167,"Delta":38368771},{"NoteNumber":57,"Velocity":27,"Duration":38167,"SoundDuration":38167,"Delta":38406939},{"NoteNumber":58,"Velocity":27,"Duration":38167,"SoundDuration":38167,"Delta":38445107},{"NoteNumber":60,"Velocity":34,"Duration":437955,"SoundDuration":437955,"Delta":38483275},{"NoteNumber":56,"Velocity":28,"Duration":438414,"SoundDuration":438414,"Delta":38921231},{"NoteNumber":51,"Velocity":28,"Duration":895553,"SoundDuration":895553,"Delta":39359645},{"NoteNumber":55,"Velocity":34,"Duration":57251,"SoundDuration":57251,"Delta":39359645},{"NoteNumber":46,"Velocity":31,"Duration":895553,"SoundDuration":895553,"Delta":39359645},{"NoteNumber":34,"Velocity":26,"Duration":1353569,"SoundDuration":1353569,"Delta":39359645},{"NoteNumber":56,"Velocity":27,"Duration":57251,"SoundDuration":57251,"Delta":39416897},{"NoteNumber":55,"Velocity":34,"Duration":57251,"SoundDuration":57251,"Delta":39474149},{"NoteNumber":56,"Velocity":29,"Duration":57251,"SoundDuration":57251,"Delta":39531401},{"NoteNumber":55,"Velocity":33,"Duration":57251,"SoundDuration":57251,"Delta":39588653},{"NoteNumber":56,"Velocity":27,"Duration":57251,"SoundDuration":57251,"Delta":39645905},{"NoteNumber":55,"Velocity":32,"Duration":38167,"SoundDuration":38167,"Delta":39703157},{"NoteNumber":53,"Velocity":27,"Duration":38167,"SoundDuration":38167,"Delta":39741325},{"NoteNumber":55,"Velocity":27,"Duration":37750,"SoundDuration":37750,"Delta":39779493},{"NoteNumber":56,"Velocity":34,"Duration":437955,"SoundDuration":437955,"Delta":39817243},{"NoteNumber":53,"Velocity":28,"Duration":457597,"SoundDuration":457597,"Delta":40246075},{"NoteNumber":44,"Velocity":22,"Duration":458015,"SoundDuration":458015,"Delta":40255199},{"NoteNumber":53,"Velocity":27,"Duration":458015,"SoundDuration":458015,"Delta":40255199},{"NoteNumber":51,"Velocity":28,"Duration":916030,"SoundDuration":916030,"Delta":40713214},{"NoteNumber":39,"Velocity":20,"Duration":916030,"SoundDuration":916030,"Delta":40713214},{"NoteNumber":43,"Velocity":24,"Duration":916030,"SoundDuration":916030,"Delta":40713214},{"NoteNumber":50,"Velocity":33,"Duration":483871,"SoundDuration":483871,"Delta":41629245},{"NoteNumber":53,"Velocity":39,"Duration":483871,"SoundDuration":483871,"Delta":41629245},{"NoteNumber":34,"Velocity":27,"Duration":483871,"SoundDuration":483871,"Delta":41629245},{"NoteNumber":44,"Velocity":32,"Duration":483871,"SoundDuration":483871,"Delta":41629245},{"NoteNumber":51,"Velocity":28,"Duration":909090,"SoundDuration":909090,"Delta":42113116},{"NoteNumber":39,"Velocity":22,"Duration":909090,"SoundDuration":909090,"Delta":42113116},{"NoteNumber":43,"Velocity":26,"Duration":909090,"SoundDuration":909090,"Delta":42113116},{"NoteNumber":50,"Velocity":34,"Duration":476190,"SoundDuration":476190,"Delta":43022207},{"NoteNumber":53,"Velocity":40,"Duration":476190,"SoundDuration":476190,"Delta":43022207},{"NoteNumber":34,"Velocity":28,"Duration":476190,"SoundDuration":476190,"Delta":43022207},{"NoteNumber":44,"Velocity":34,"Duration":476190,"SoundDuration":476190,"Delta":43022207},{"NoteNumber":51,"Velocity":28,"Duration":916030,"SoundDuration":916030,"Delta":43498398},{"NoteNumber":39,"Velocity":21,"Duration":916030,"SoundDuration":916030,"Delta":43498398},{"NoteNumber":43,"Velocity":25,"Duration":916030,"SoundDuration":916030,"Delta":43498398},{"NoteNumber":50,"Velocity":36,"Duration":624999,"SoundDuration":624999,"Delta":44414429},{"NoteNumber":53,"Velocity":36,"Duration":624999,"SoundDuration":624999,"Delta":44414429},{"NoteNumber":58,"Velocity":43,"Duration":624999,"SoundDuration":624999,"Delta":44414429},{"NoteNumber":34,"Velocity":29,"Duration":624999,"SoundDuration":624999,"Delta":44414429},{"NoteNumber":44,"Velocity":35,"Duration":624999,"SoundDuration":624999,"Delta":44414429},{"NoteNumber":50,"Velocity":23,"Duration":1894736,"SoundDuration":1894736,"Delta":45096247},{"NoteNumber":53,"Velocity":23,"Duration":1894736,"SoundDuration":1894736,"Delta":45096247},{"NoteNumber":58,"Velocity":28,"Duration":1894736,"SoundDuration":1894736,"Delta":45096247},{"NoteNumber":39,"Velocity":21,"Duration":1868421,"SoundDuration":1868421,"Delta":45096247},{"NoteNumber":44,"Velocity":25,"Duration":1894736,"SoundDuration":1894736,"Delta":45096247},{"NoteNumber":51,"Velocity":25,"Duration":1263158,"SoundDuration":1263158,"Delta":46990984},{"NoteNumber":39,"Velocity":19,"Duration":1263158,"SoundDuration":1263158,"Delta":46990984},{"NoteNumber":43,"Velocity":23,"Duration":1263158,"SoundDuration":1263158,"Delta":46990984},{"NoteNumber":55,"Velocity":32,"Duration":483871,"SoundDuration":483871,"Delta":48885721},{"NoteNumber":58,"Velocity":37,"Duration":483871,"SoundDuration":483871,"Delta":49369592},{"NoteNumber":63,"Velocity":42,"Duration":463709,"SoundDuration":463709,"Delta":49853463},{"NoteNumber":55,"Velocity":38,"Duration":1896330,"SoundDuration":1896330,"Delta":50337334},{"NoteNumber":58,"Velocity":38,"Duration":1896330,"SoundDuration":1896330,"Delta":50337334},{"NoteNumber":63,"Velocity":38,"Duration":1896330,"SoundDuration":1896330,"Delta":50337334},{"NoteNumber":67,"Velocity":45,"Duration":1896330,"SoundDuration":1896330,"Delta":50337334},{"NoteNumber":39,"Velocity":32,"Duration":483871,"SoundDuration":483871,"Delta":50337334},{"NoteNumber":43,"Velocity":32,"Duration":468750,"SoundDuration":468750,"Delta":50821205},{"NoteNumber":46,"Velocity":32,"Duration":479999,"SoundDuration":479999,"Delta":51289955},{"NoteNumber":51,"Velocity":36,"Duration":483871,"SoundDuration":483871,"Delta":51769955},{"NoteNumber":58,"Velocity":36,"Duration":452755,"SoundDuration":452755,"Delta":52253826},{"NoteNumber":63,"Velocity":36,"Duration":452755,"SoundDuration":452755,"Delta":52253826},{"NoteNumber":67,"Velocity":43,"Duration":452755,"SoundDuration":452755,"Delta":52253826},{"NoteNumber":55,"Velocity":38,"Duration":472441,"SoundDuration":472441,"Delta":52253826},{"NoteNumber":63,"Velocity":35,"Duration":463709,"SoundDuration":463709,"Delta":52726267},{"NoteNumber":67,"Velocity":42,"Duration":463709,"SoundDuration":463709,"Delta":52726267},{"NoteNumber":58,"Velocity":40,"Duration":463709,"SoundDuration":463709,"Delta":52726267},{"NoteNumber":63,"Velocity":23,"Duration":933669,"SoundDuration":933669,"Delta":53210138},{"NoteNumber":67,"Velocity":34,"Duration":56818,"SoundDuration":56818,"Delta":53210138},{"NoteNumber":46,"Velocity":36,"Duration":933669,"SoundDuration":933669,"Delta":53210138},{"NoteNumber":58,"Velocity":43,"Duration":933669,"SoundDuration":933669,"Delta":53210138},{"NoteNumber":68,"Velocity":27,"Duration":56818,"SoundDuration":56818,"Delta":53266956},{"NoteNumber":67,"Velocity":34,"Duration":56818,"SoundDuration":56818,"Delta":53323774},{"NoteNumber":68,"Velocity":29,"Duration":56818,"SoundDuration":56818,"Delta":53380592},{"NoteNumber":67,"Velocity":33,"Duration":56818,"SoundDuration":56818,"Delta":53437411},{"NoteNumber":68,"Velocity":27,"Duration":56818,"SoundDuration":56818,"Delta":53494229},{"NoteNumber":67,"Velocity":32,"Duration":37878,"SoundDuration":37878,"Delta":53551047},{"NoteNumber":65,"Velocity":27,"Duration":37878,"SoundDuration":37878,"Delta":53588926},{"NoteNumber":67,"Velocity":27,"Duration":37878,"SoundDuration":37878,"Delta":53626804},{"NoteNumber":65,"Velocity":38,"Duration":479124,"SoundDuration":479124,"Delta":53664683},{"NoteNumber":68,"Velocity":45,"Duration":479124,"SoundDuration":479124,"Delta":53664683},{"NoteNumber":58,"Velocity":32,"Duration":552884,"SoundDuration":552884,"Delta":54143807},{"NoteNumber":62,"Velocity":32,"Duration":552884,"SoundDuration":552884,"Delta":54143807},{"NoteNumber":65,"Velocity":38,"Duration":552884,"SoundDuration":552884,"Delta":54143807},{"NoteNumber":46,"Velocity":33,"Duration":552884,"SoundDuration":552884,"Delta":54143807},{"NoteNumber":56,"Velocity":39,"Duration":552884,"SoundDuration":552884,"Delta":54143807},{"NoteNumber":58,"Velocity":28,"Duration":1904761,"SoundDuration":1904761,"Delta":54720730},{"NoteNumber":62,"Velocity":28,"Duration":1428571,"SoundDuration":1428571,"Delta":54720730},{"NoteNumber":65,"Velocity":34,"Duration":1428571,"SoundDuration":1428571,"Delta":54720730},{"NoteNumber":51,"Velocity":32,"Duration":1904761,"SoundDuration":1904761,"Delta":54720730},{"NoteNumber":56,"Velocity":38,"Duration":1428571,"SoundDuration":1428571,"Delta":54720730},{"NoteNumber":63,"Velocity":32,"Duration":476190,"SoundDuration":476190,"Delta":56149302},{"NoteNumber":55,"Velocity":30,"Duration":476190,"SoundDuration":476190,"Delta":56149302},{"NoteNumber":55,"Velocity":36,"Duration":483871,"SoundDuration":483871,"Delta":57577873},{"NoteNumber":58,"Velocity":43,"Duration":483871,"SoundDuration":483871,"Delta":57577873},{"NoteNumber":58,"Velocity":40,"Duration":483871,"SoundDuration":483871,"Delta":58061744},{"NoteNumber":63,"Velocity":48,"Duration":483871,"SoundDuration":483871,"Delta":58061744},{"NoteNumber":63,"Velocity":45,"Duration":483871,"SoundDuration":483871,"Delta":58545615},{"NoteNumber":67,"Velocity":54,"Duration":463709,"SoundDuration":463709,"Delta":58545615},{"NoteNumber":67,"Velocity":51,"Duration":3345245,"SoundDuration":3345245,"Delta":59029486},{"NoteNumber":70,"Velocity":60,"Duration":3345245,"SoundDuration":3345245,"Delta":59029486},{"NoteNumber":39,"Velocity":37,"Duration":483871,"SoundDuration":483871,"Delta":59029486},{"NoteNumber":43,"Velocity":40,"Duration":468750,"SoundDuration":468750,"Delta":59513357},{"NoteNumber":46,"Velocity":44,"Duration":479999,"SoundDuration":479999,"Delta":59982107},{"NoteNumber":51,"Velocity":49,"Duration":483871,"SoundDuration":483871,"Delta":60462107},{"NoteNumber":75,"Velocity":70,"Duration":431102,"SoundDuration":431102,"Delta":60945978},{"NoteNumber":55,"Velocity":53,"Duration":472441,"SoundDuration":472441,"Delta":60945978},{"NoteNumber":75,"Velocity":64,"Duration":441532,"SoundDuration":441532,"Delta":61418419},{"NoteNumber":58,"Velocity":57,"Duration":463709,"SoundDuration":463709,"Delta":61418419},{"NoteNumber":75,"Velocity":67,"Duration":448818,"SoundDuration":448818,"Delta":61902290},{"NoteNumber":63,"Velocity":62,"Duration":472441,"SoundDuration":472441,"Delta":61902290},{"NoteNumber":66,"Velocity":44,"Duration":479124,"SoundDuration":479124,"Delta":62374731},{"NoteNumber":69,"Velocity":44,"Duration":479124,"SoundDuration":479124,"Delta":62374731},{"NoteNumber":75,"Velocity":57,"Duration":456000,"SoundDuration":456000,"Delta":62374731},{"NoteNumber":60,"Velocity":58,"Duration":479124,"SoundDuration":479124,"Delta":62374731},{"NoteNumber":75,"Velocity":64,"Duration":467213,"SoundDuration":467213,"Delta":62853855},{"NoteNumber":66,"Velocity":50,"Duration":471311,"SoundDuration":471311,"Delta":62853855},{"NoteNumber":70,"Velocity":50,"Duration":471311,"SoundDuration":471311,"Delta":62853855},{"NoteNumber":58,"Velocity":54,"Duration":471311,"SoundDuration":471311,"Delta":62853855},{"NoteNumber":66,"Velocity":45,"Duration":952380,"SoundDuration":952380,"Delta":63345659},{"NoteNumber":72,"Velocity":45,"Duration":1428571,"SoundDuration":1428571,"Delta":63345659},{"NoteNumber":75,"Velocity":68,"Duration":1428571,"SoundDuration":1428571,"Delta":63345659},{"NoteNumber":57,"Velocity":53,"Duration":1428571,"SoundDuration":1428571,"Delta":63345659},{"NoteNumber":65,"Velocity":38,"Duration":476190,"SoundDuration":476190,"Delta":64298040},{"NoteNumber":56,"Velocity":43,"Duration":1368092,"SoundDuration":1368092,"Delta":64774230},{"NoteNumber":66,"Velocity":34,"Duration":448430,"SoundDuration":448430,"Delta":65239347},{"NoteNumber":72,"Velocity":34,"Duration":902975,"SoundDuration":902975,"Delta":65239347},{"NoteNumber":75,"Velocity":40,"Duration":902975,"SoundDuration":902975,"Delta":65239347},{"NoteNumber":65,"Velocity":29,"Duration":454545,"SoundDuration":454545,"Delta":65687777},{"NoteNumber":58,"Velocity":40,"Duration":1364674,"SoundDuration":1364674,"Delta":66142323},{"NoteNumber":66,"Velocity":34,"Duration":448430,"SoundDuration":448430,"Delta":66607439},{"NoteNumber":70,"Velocity":34,"Duration":899558,"SoundDuration":899558,"Delta":66607439},{"NoteNumber":73,"Velocity":40,"Duration":899558,"SoundDuration":899558,"Delta":66607439},{"NoteNumber":65,"Velocity":27,"Duration":451127,"SoundDuration":451127,"Delta":67055870},{"NoteNumber":51,"Velocity":35,"Duration":1364981,"SoundDuration":1364981,"Delta":67506998},{"NoteNumber":73,"Velocity":34,"Duration":445104,"SoundDuration":445104,"Delta":67975748},{"NoteNumber":63,"Velocity":34,"Duration":896231,"SoundDuration":896231,"Delta":67975748},{"NoteNumber":66,"Velocity":40,"Duration":896231,"SoundDuration":896231,"Delta":67975748},{"NoteNumber":71,"Velocity":34,"Duration":451127,"SoundDuration":451127,"Delta":68420852},{"NoteNumber":52,"Velocity":35,"Duration":1353744,"SoundDuration":1353744,"Delta":68871980},{"NoteNumber":71,"Velocity":34,"Duration":444444,"SoundDuration":444444,"Delta":69333518},{"NoteNumber":61,"Velocity":34,"Duration":892205,"SoundDuration":892205,"Delta":69333518},{"NoteNumber":67,"Velocity":40,"Duration":892205,"SoundDuration":892205,"Delta":69333518},{"NoteNumber":70,"Velocity":34,"Duration":447760,"SoundDuration":447760,"Delta":69777963},{"NoteNumber":53,"Velocity":35,"Duration":1371758,"SoundDuration":1371758,"Delta":70225724},{"NoteNumber":70,"Velocity":34,"Duration":445104,"SoundDuration":445104,"Delta":70690840},{"NoteNumber":60,"Velocity":34,"Duration":906642,"SoundDuration":906642,"Delta":70690840},{"NoteNumber":63,"Velocity":40,"Duration":906642,"SoundDuration":906642,"Delta":70690840},{"NoteNumber":69,"Velocity":34,"Duration":461538,"SoundDuration":461538,"Delta":71135944},{"NoteNumber":62,"Velocity":34,"Duration":923076,"SoundDuration":923076,"Delta":71597483},{"NoteNumber":70,"Velocity":34,"Duration":923076,"SoundDuration":923076,"Delta":71597483},{"NoteNumber":34,"Velocity":35,"Duration":4157305,"SoundDuration":4157305,"Delta":71597483},{"NoteNumber":46,"Velocity":29,"Duration":415384,"SoundDuration":415384,"Delta":72059021},{"NoteNumber":46,"Velocity":29,"Duration":415384,"SoundDuration":415384,"Delta":72520560},{"NoteNumber":46,"Velocity":32,"Duration":415384,"SoundDuration":415384,"Delta":72982098},{"NoteNumber":46,"Velocity":29,"Duration":415384,"SoundDuration":415384,"Delta":73443637},{"NoteNumber":46,"Velocity":29,"Duration":428571,"SoundDuration":428571,"Delta":73905175},{"NoteNumber":74,"Velocity":57,"Duration":916031,"SoundDuration":916031,"Delta":74381366},{"NoteNumber":46,"Velocity":32,"Duration":412213,"SoundDuration":412213,"Delta":74381366},{"NoteNumber":46,"Velocity":27,"Duration":412213,"SoundDuration":412213,"Delta":74839381},{"NoteNumber":72,"Velocity":48,"Duration":217391,"SoundDuration":217391,"Delta":75297397},{"NoteNumber":46,"Velocity":27,"Duration":409391,"SoundDuration":409391,"Delta":75297397},{"NoteNumber":70,"Velocity":47,"Duration":239999,"SoundDuration":239999,"Delta":75514788},{"NoteNumber":60,"Velocity":30,"Duration":916031,"SoundDuration":916031,"Delta":75754788},{"NoteNumber":63,"Velocity":35,"Duration":896947,"SoundDuration":896947,"Delta":75754788},{"NoteNumber":70,"Velocity":54,"Duration":458015,"SoundDuration":458015,"Delta":75754788},{"NoteNumber":46,"Velocity":32,"Duration":412213,"SoundDuration":412213,"Delta":75754788},{"NoteNumber":69,"Velocity":47,"Duration":458015,"SoundDuration":458015,"Delta":76212804},{"NoteNumber":46,"Velocity":28,"Duration":412213,"SoundDuration":412213,"Delta":76212804},{"NoteNumber":58,"Velocity":43,"Duration":220588,"SoundDuration":220588,"Delta":76670819},{"NoteNumber":63,"Velocity":37,"Duration":433766,"SoundDuration":433766,"Delta":76670819},{"NoteNumber":67,"Velocity":51,"Duration":220588,"SoundDuration":220588,"Delta":76670819},{"NoteNumber":46,"Velocity":28,"Duration":406634,"SoundDuration":406634,"Delta":76670819},{"NoteNumber":57,"Velocity":36,"Duration":213178,"SoundDuration":213178,"Delta":76891407},{"NoteNumber":65,"Velocity":43,"Duration":213178,"SoundDuration":213178,"Delta":76891407},{"NoteNumber":57,"Velocity":48,"Duration":916031,"SoundDuration":916031,"Delta":77123966},{"NoteNumber":63,"Velocity":35,"Duration":2762695,"SoundDuration":2762695,"Delta":77123966},{"NoteNumber":65,"Velocity":50,"Duration":1836012,"SoundDuration":1836012,"Delta":77123966},{"NoteNumber":46,"Velocity":32,"Duration":412213,"SoundDuration":412213,"Delta":77123966},{"NoteNumber":46,"Velocity":28,"Duration":412213,"SoundDuration":412213,"Delta":77581981},{"NoteNumber":55,"Velocity":45,"Duration":222222,"SoundDuration":222222,"Delta":78039997},{"NoteNumber":46,"Velocity":28,"Duration":411198,"SoundDuration":411198,"Delta":78039997},{"NoteNumber":53,"Velocity":38,"Duration":216535,"SoundDuration":216535,"Delta":78262219},{"NoteNumber":53,"Velocity":51,"Duration":692307,"SoundDuration":692307,"Delta":78498439},{"NoteNumber":46,"Velocity":32,"Duration":415384,"SoundDuration":415384,"Delta":78498439},{"NoteNumber":67,"Velocity":44,"Duration":461538,"SoundDuration":461538,"Delta":78959978},{"NoteNumber":46,"Velocity":28,"Duration":415384,"SoundDuration":415384,"Delta":78959978},{"NoteNumber":51,"Velocity":38,"Duration":230769,"SoundDuration":230769,"Delta":79190747},{"NoteNumber":50,"Velocity":38,"Duration":230769,"SoundDuration":230769,"Delta":79421516},{"NoteNumber":69,"Velocity":46,"Duration":465144,"SoundDuration":465144,"Delta":79421516},{"NoteNumber":46,"Velocity":28,"Duration":418269,"SoundDuration":418269,"Delta":79421516},{"NoteNumber":51,"Velocity":38,"Duration":234375,"SoundDuration":234375,"Delta":79652286},{"NoteNumber":70,"Velocity":51,"Duration":229007,"SoundDuration":229007,"Delta":79886661},{"NoteNumber":50,"Velocity":51,"Duration":916031,"SoundDuration":916031,"Delta":79886661},{"NoteNumber":46,"Velocity":32,"Duration":412213,"SoundDuration":412213,"Delta":79886661},{"NoteNumber":72,"Velocity":44,"Duration":76335,"SoundDuration":76335,"Delta":80115668},{"NoteNumber":70,"Velocity":38,"Duration":76335,"SoundDuration":76335,"Delta":80192004},{"NoteNumber":69,"Velocity":38,"Duration":76335,"SoundDuration":76335,"Delta":80268340},{"NoteNumber":70,"Velocity":51,"Duration":229007,"SoundDuration":229007,"Delta":80344676},{"NoteNumber":46,"Velocity":28,"Duration":412213,"SoundDuration":412213,"Delta":80344676},{"NoteNumber":72,"Velocity":47,"Duration":229007,"SoundDuration":229007,"Delta":80573684},{"NoteNumber":74,"Velocity":49,"Duration":229007,"SoundDuration":229007,"Delta":80802692},{"NoteNumber":46,"Velocity":28,"Duration":419483,"SoundDuration":419483,"Delta":80802692},{"NoteNumber":75,"Velocity":50,"Duration":178571,"SoundDuration":178571,"Delta":81031699},{"NoteNumber":74,"Velocity":48,"Duration":59523,"SoundDuration":59523,"Delta":81210271},{"NoteNumber":77,"Velocity":57,"Duration":1374046,"SoundDuration":1374046,"Delta":81269795},{"NoteNumber":46,"Velocity":32,"Duration":412213,"SoundDuration":412213,"Delta":81269795},{"NoteNumber":46,"Velocity":28,"Duration":412213,"SoundDuration":412213,"Delta":81727810},{"NoteNumber":46,"Velocity":28,"Duration":412213,"SoundDuration":412213,"Delta":82185826},{"NoteNumber":76,"Velocity":47,"Duration":229007,"SoundDuration":229007,"Delta":82643841},{"NoteNumber":46,"Velocity":32,"Duration":412213,"SoundDuration":412213,"Delta":82643841},{"NoteNumber":77,"Velocity":52,"Duration":229007,"SoundDuration":229007,"Delta":82872849},{"NoteNumber":79,"Velocity":53,"Duration":229007,"SoundDuration":229007,"Delta":83101857},{"NoteNumber":46,"Velocity":28,"Duration":412213,"SoundDuration":412213,"Delta":83101857},{"NoteNumber":77,"Velocity":51,"Duration":229007,"SoundDuration":229007,"Delta":83330864},{"NoteNumber":75,"Velocity":53,"Duration":229007,"SoundDuration":229007,"Delta":83559872},{"NoteNumber":46,"Velocity":28,"Duration":421007,"SoundDuration":421007,"Delta":83559872},{"NoteNumber":74,"Velocity":51,"Duration":219999,"SoundDuration":219999,"Delta":83788880},{"NoteNumber":63,"Velocity":30,"Duration":916031,"SoundDuration":916031,"Delta":84028880},{"NoteNumber":67,"Velocity":35,"Duration":896947,"SoundDuration":896947,"Delta":84028880},{"NoteNumber":74,"Velocity":57,"Duration":458015,"SoundDuration":458015,"Delta":84028880},{"NoteNumber":46,"Velocity":32,"Duration":412213,"SoundDuration":412213,"Delta":84028880},{"NoteNumber":72,"Velocity":47,"Duration":458015,"SoundDuration":458015,"Delta":84486895},{"NoteNumber":46,"Velocity":28,"Duration":412213,"SoundDuration":412213,"Delta":84486895},{"NoteNumber":62,"Velocity":36,"Duration":220588,"SoundDuration":220588,"Delta":84944911},{"NoteNumber":70,"Velocity":51,"Duration":220588,"SoundDuration":220588,"Delta":84944911},{"NoteNumber":65,"Velocity":43,"Duration":220588,"SoundDuration":220588,"Delta":84944911},{"NoteNumber":46,"Velocity":28,"Duration":411064,"SoundDuration":411064,"Delta":84944911},{"NoteNumber":60,"Velocity":30,"Duration":218253,"SoundDuration":218253,"Delta":85165499},{"NoteNumber":69,"Velocity":43,"Duration":218253,"SoundDuration":218253,"Delta":85165499},{"NoteNumber":63,"Velocity":36,"Duration":218253,"SoundDuration":218253,"Delta":85165499},{"NoteNumber":60,"Velocity":40,"Duration":923077,"SoundDuration":923077,"Delta":85403594},{"NoteNumber":69,"Velocity":50,"Duration":923077,"SoundDuration":923077,"Delta":85403594},{"NoteNumber":63,"Velocity":35,"Duration":903846,"SoundDuration":903846,"Delta":85403594},{"NoteNumber":46,"Velocity":32,"Duration":415384,"SoundDuration":415384,"Delta":85403594},{"NoteNumber":46,"Velocity":28,"Duration":415384,"SoundDuration":415384,"Delta":85865133},{"NoteNumber":63,"Velocity":35,"Duration":440415,"SoundDuration":440415,"Delta":86326671},{"NoteNumber":58,"Velocity":45,"Duration":223880,"SoundDuration":223880,"Delta":86326671},{"NoteNumber":67,"Velocity":51,"Duration":223880,"SoundDuration":223880,"Delta":86326671},{"NoteNumber":46,"Velocity":28,"Duration":412856,"SoundDuration":412856,"Delta":86326671},{"NoteNumber":65,"Velocity":43,"Duration":236220,"SoundDuration":236220,"Delta":86550552},{"NoteNumber":57,"Velocity":38,"Duration":216535,"SoundDuration":216535,"Delta":86550552},{"NoteNumber":63,"Velocity":35,"Duration":1393846,"SoundDuration":1393846,"Delta":86786772},{"NoteNumber":65,"Velocity":54,"Duration":461538,"SoundDuration":461538,"Delta":86786772},{"NoteNumber":57,"Velocity":51,"Duration":230769,"SoundDuration":230769,"Delta":86786772},{"NoteNumber":46,"Velocity":32,"Duration":415384,"SoundDuration":415384,"Delta":86786772},{"NoteNumber":55,"Velocity":38,"Duration":230769,"SoundDuration":230769,"Delta":87017542},{"NoteNumber":53,"Velocity":38,"Duration":230769,"SoundDuration":230769,"Delta":87248311},{"NoteNumber":67,"Velocity":44,"Duration":461538,"SoundDuration":461538,"Delta":87248311},{"NoteNumber":46,"Velocity":28,"Duration":415384,"SoundDuration":415384,"Delta":87248311},{"NoteNumber":51,"Velocity":38,"Duration":230769,"SoundDuration":230769,"Delta":87479080},{"NoteNumber":50,"Velocity":38,"Duration":230769,"SoundDuration":230769,"Delta":87709849},{"NoteNumber":69,"Velocity":46,"Duration":470769,"SoundDuration":470769,"Delta":87709849},{"NoteNumber":46,"Velocity":28,"Duration":422769,"SoundDuration":422769,"Delta":87709849},{"NoteNumber":48,"Velocity":38,"Duration":239999,"SoundDuration":239999,"Delta":87940619},{"NoteNumber":62,"Velocity":54,"Duration":461538,"SoundDuration":461538,"Delta":88180619},{"NoteNumber":70,"Velocity":54,"Duration":461538,"SoundDuration":461538,"Delta":88180619},{"NoteNumber":46,"Velocity":32,"Duration":937729,"SoundDuration":937729,"Delta":88180619},{"NoteNumber":73,"Velocity":40,"Duration":476190,"SoundDuration":476190,"Delta":88642157},{"NoteNumber":74,"Velocity":44,"Duration":476190,"SoundDuration":476190,"Delta":89118348},{"NoteNumber":58,"Velocity":28,"Duration":937729,"SoundDuration":937729,"Delta":89594538},{"NoteNumber":53,"Velocity":23,"Duration":937729,"SoundDuration":937729,"Delta":89594538},{"NoteNumber":50,"Velocity":23,"Duration":937729,"SoundDuration":937729,"Delta":89594538},{"NoteNumber":76,"Velocity":41,"Duration":476190,"SoundDuration":476190,"Delta":90056077},{"NoteNumber":77,"Velocity":44,"Duration":476190,"SoundDuration":476190,"Delta":90532267},{"NoteNumber":62,"Velocity":23,"Duration":923131,"SoundDuration":923131,"Delta":91008458},{"NoteNumber":65,"Velocity":23,"Duration":923131,"SoundDuration":923131,"Delta":91008458},{"NoteNumber":70,"Velocity":28,"Duration":923131,"SoundDuration":923131,"Delta":91008458},{"NoteNumber":81,"Velocity":40,"Duration":465116,"SoundDuration":465116,"Delta":91466473},{"NoteNumber":82,"Velocity":44,"Duration":465116,"SoundDuration":465116,"Delta":91931590},{"NoteNumber":63,"Velocity":23,"Duration":933979,"SoundDuration":933979,"Delta":92396706},{"NoteNumber":67,"Velocity":23,"Duration":933979,"SoundDuration":933979,"Delta":92396706},{"NoteNumber":70,"Velocity":28,"Duration":933979,"SoundDuration":933979,"Delta":92396706},{"NoteNumber":78,"Velocity":41,"Duration":472441,"SoundDuration":472441,"Delta":92858245},{"NoteNumber":79,"Velocity":44,"Duration":472441,"SoundDuration":472441,"Delta":93330686},{"NoteNumber":63,"Velocity":28,"Duration":937729,"SoundDuration":937729,"Delta":93803127},{"NoteNumber":58,"Velocity":23,"Duration":937729,"SoundDuration":937729,"Delta":93803127},{"NoteNumber":55,"Velocity":23,"Duration":937729,"SoundDuration":937729,"Delta":93803127},{"NoteNumber":74,"Velocity":40,"Duration":476190,"SoundDuration":476190,"Delta":94264665},{"NoteNumber":75,"Velocity":42,"Duration":476190,"SoundDuration":476190,"Delta":94740856},{"NoteNumber":52,"Velocity":23,"Duration":933979,"SoundDuration":933979,"Delta":95217046},{"NoteNumber":60,"Velocity":28,"Duration":933979,"SoundDuration":933979,"Delta":95217046},{"NoteNumber":58,"Velocity":23,"Duration":933979,"SoundDuration":933979,"Delta":95217046},{"NoteNumber":71,"Velocity":38,"Duration":472441,"SoundDuration":472441,"Delta":95678585},{"NoteNumber":72,"Velocity":42,"Duration":472441,"SoundDuration":472441,"Delta":96151026},{"NoteNumber":53,"Velocity":35,"Duration":2746370,"SoundDuration":2746370,"Delta":96623467},{"NoteNumber":77,"Velocity":59,"Duration":1158756,"SoundDuration":1158756,"Delta":97085005},{"NoteNumber":62,"Velocity":29,"Duration":461538,"SoundDuration":461538,"Delta":97085005},{"NoteNumber":58,"Velocity":24,"Duration":461538,"SoundDuration":461538,"Delta":97085005},{"NoteNumber":62,"Velocity":31,"Duration":461720,"SoundDuration":461720,"Delta":97546544},{"NoteNumber":58,"Velocity":25,"Duration":461720,"SoundDuration":461720,"Delta":97546544},{"NoteNumber":58,"Velocity":32,"Duration":467730,"SoundDuration":467730,"Delta":98008264},{"NoteNumber":62,"Velocity":39,"Duration":467730,"SoundDuration":467730,"Delta":98008264},{"NoteNumber":79,"Velocity":60,"Duration":116445,"SoundDuration":116445,"Delta":98243762},{"NoteNumber":81,"Velocity":62,"Duration":115787,"SoundDuration":115787,"Delta":98360207},{"NoteNumber":82,"Velocity":64,"Duration":114870,"SoundDuration":114870,"Delta":98475994},{"NoteNumber":58,"Velocity":35,"Duration":454911,"SoundDuration":454911,"Delta":98475994},{"NoteNumber":62,"Velocity":42,"Duration":454911,"SoundDuration":454911,"Delta":98475994},{"NoteNumber":84,"Velocity":66,"Duration":114243,"SoundDuration":114243,"Delta":98590865},{"NoteNumber":86,"Velocity":68,"Duration":113337,"SoundDuration":113337,"Delta":98705109},{"NoteNumber":87,"Velocity":70,"Duration":112459,"SoundDuration":112459,"Delta":98818446},{"NoteNumber":89,"Velocity":72,"Duration":916031,"SoundDuration":916031,"Delta":98930906},{"NoteNumber":58,"Velocity":39,"Duration":458015,"SoundDuration":458015,"Delta":98930906},{"NoteNumber":62,"Velocity":46,"Duration":458015,"SoundDuration":458015,"Delta":98930906},{"NoteNumber":53,"Velocity":37,"Duration":1395572,"SoundDuration":1395572,"Delta":99388921},{"NoteNumber":63,"Velocity":44,"Duration":458015,"SoundDuration":458015,"Delta":99388921},{"NoteNumber":57,"Velocity":37,"Duration":458015,"SoundDuration":458015,"Delta":99388921},{"NoteNumber":87,"Velocity":70,"Duration":465116,"SoundDuration":465116,"Delta":99846937},{"NoteNumber":57,"Velocity":33,"Duration":465116,"SoundDuration":465116,"Delta":99846937},{"NoteNumber":63,"Velocity":39,"Duration":465116,"SoundDuration":465116,"Delta":99846937},{"NoteNumber":84,"Velocity":66,"Duration":472441,"SoundDuration":472441,"Delta":100312053},{"NoteNumber":57,"Velocity":32,"Duration":472441,"SoundDuration":472441,"Delta":100312053},{"NoteNumber":63,"Velocity":38,"Duration":472441,"SoundDuration":472441,"Delta":100312053},{"NoteNumber":82,"Velocity":58,"Duration":572519,"SoundDuration":572519,"Delta":100784494},{"NoteNumber":62,"Velocity":40,"Duration":908242,"SoundDuration":908242,"Delta":100784494},{"NoteNumber":58,"Velocity":38,"Duration":908242,"SoundDuration":908242,"Delta":100784494},{"NoteNumber":81,"Velocity":50,"Duration":114503,"SoundDuration":114503,"Delta":101357013},{"NoteNumber":86,"Velocity":57,"Duration":123340,"SoundDuration":123340,"Delta":101471517},{"NoteNumber":84,"Velocity":54,"Duration":119697,"SoundDuration":119697,"Delta":101583988},{"NoteNumber":82,"Velocity":53,"Duration":120598,"SoundDuration":120598,"Delta":101692737},{"NoteNumber":81,"Velocity":51,"Duration":121527,"SoundDuration":121527,"Delta":101802306},{"NoteNumber":79,"Velocity":49,"Duration":122457,"SoundDuration":122457,"Delta":101912723},{"NoteNumber":77,"Velocity":47,"Duration":123400,"SoundDuration":123400,"Delta":102023986},{"NoteNumber":76,"Velocity":53,"Duration":124373,"SoundDuration":124373,"Delta":102136109},{"NoteNumber":77,"Velocity":51,"Duration":122532,"SoundDuration":122532,"Delta":102249119},{"NoteNumber":82,"Velocity":59,"Duration":119631,"SoundDuration":119631,"Delta":102360807},{"NoteNumber":81,"Velocity":54,"Duration":120572,"SoundDuration":120572,"Delta":102469490},{"NoteNumber":79,"Velocity":54,"Duration":121486,"SoundDuration":121486,"Delta":102579033},{"NoteNumber":77,"Velocity":52,"Duration":122429,"SoundDuration":122429,"Delta":102689408},{"NoteNumber":75,"Velocity":50,"Duration":123372,"SoundDuration":123372,"Delta":102800644},{"NoteNumber":74,"Velocity":50,"Duration":124330,"SoundDuration":124330,"Delta":102912738},{"NoteNumber":73,"Velocity":52,"Duration":125318,"SoundDuration":125318,"Delta":103025706},{"NoteNumber":74,"Velocity":46,"Duration":126306,"SoundDuration":126306,"Delta":103139573},{"NoteNumber":79,"Velocity":56,"Duration":123214,"SoundDuration":123214,"Delta":103254341},{"NoteNumber":77,"Velocity":55,"Duration":118229,"SoundDuration":118229,"Delta":103366841},{"NoteNumber":75,"Velocity":54,"Duration":119109,"SoundDuration":119109,"Delta":103474280},{"NoteNumber":74,"Velocity":52,"Duration":120014,"SoundDuration":120014,"Delta":103582519},{"NoteNumber":72,"Velocity":50,"Duration":121175,"SoundDuration":121175,"Delta":103691585},{"NoteNumber":70,"Velocity":48,"Duration":122113,"SoundDuration":122113,"Delta":103801732},{"NoteNumber":69,"Velocity":46,"Duration":123093,"SoundDuration":123093,"Delta":103912734},{"NoteNumber":70,"Velocity":45,"Duration":124359,"SoundDuration":124359,"Delta":104024591},{"NoteNumber":75,"Velocity":52,"Duration":122776,"SoundDuration":122776,"Delta":104137587},{"NoteNumber":74,"Velocity":51,"Duration":119948,"SoundDuration":119948,"Delta":104249494},{"NoteNumber":72,"Velocity":49,"Duration":121285,"SoundDuration":121285,"Delta":104358494},{"NoteNumber":70,"Velocity":47,"Duration":122692,"SoundDuration":122692,"Delta":104468669},{"NoteNumber":69,"Velocity":44,"Duration":124147,"SoundDuration":124147,"Delta":104580167},{"NoteNumber":67,"Velocity":42,"Duration":127922,"SoundDuration":127922,"Delta":104692951},{"NoteNumber":64,"Velocity":39,"Duration":121951,"SoundDuration":121951,"Delta":104808678},{"NoteNumber":41,"Velocity":35,"Duration":2857235,"SoundDuration":2857235,"Delta":104808678},{"NoteNumber":65,"Velocity":39,"Duration":121951,"SoundDuration":121951,"Delta":104930629},{"NoteNumber":66,"Velocity":40,"Duration":121295,"SoundDuration":121295,"Delta":105052581},{"NoteNumber":67,"Velocity":41,"Duration":120967,"SoundDuration":120967,"Delta":105173876},{"NoteNumber":68,"Velocity":42,"Duration":120870,"SoundDuration":120870,"Delta":105294844},{"NoteNumber":50,"Velocity":29,"Duration":480347,"SoundDuration":480347,"Delta":105294844},{"NoteNumber":46,"Velocity":24,"Duration":480347,"SoundDuration":480347,"Delta":105294844},{"NoteNumber":69,"Velocity":42,"Duration":120000,"SoundDuration":120000,"Delta":105415715},{"NoteNumber":70,"Velocity":43,"Duration":119999,"SoundDuration":119999,"Delta":105535715},{"NoteNumber":71,"Velocity":44,"Duration":119476,"SoundDuration":119476,"Delta":105655715},{"NoteNumber":72,"Velocity":45,"Duration":119047,"SoundDuration":119047,"Delta":105775191},{"NoteNumber":50,"Velocity":30,"Duration":474331,"SoundDuration":474331,"Delta":105775191},{"NoteNumber":46,"Velocity":25,"Duration":474331,"SoundDuration":474331,"Delta":105775191},{"NoteNumber":73,"Velocity":45,"Duration":119047,"SoundDuration":119047,"Delta":105894239},{"NoteNumber":74,"Velocity":46,"Duration":118125,"SoundDuration":118125,"Delta":106013286},{"NoteNumber":75,"Velocity":47,"Duration":118110,"SoundDuration":118110,"Delta":106131412},{"NoteNumber":76,"Velocity":49,"Duration":117725,"SoundDuration":117725,"Delta":106249523},{"NoteNumber":46,"Velocity":31,"Duration":468501,"SoundDuration":468501,"Delta":106249523},{"NoteNumber":50,"Velocity":38,"Duration":468501,"SoundDuration":468501,"Delta":106249523},{"NoteNumber":77,"Velocity":50,"Duration":117187,"SoundDuration":117187,"Delta":106367248},{"NoteNumber":78,"Velocity":52,"Duration":117187,"SoundDuration":117187,"Delta":106484436},{"NoteNumber":79,"Velocity":54,"Duration":116400,"SoundDuration":116400,"Delta":106601623},{"NoteNumber":80,"Velocity":56,"Duration":116279,"SoundDuration":116279,"Delta":106718024},{"NoteNumber":46,"Velocity":34,"Duration":462942,"SoundDuration":462942,"Delta":106718024},{"NoteNumber":50,"Velocity":41,"Duration":462942,"SoundDuration":462942,"Delta":106718024},{"NoteNumber":81,"Velocity":58,"Duration":116010,"SoundDuration":116010,"Delta":106834303},{"NoteNumber":82,"Velocity":60,"Duration":115384,"SoundDuration":115384,"Delta":106950313},{"NoteNumber":83,"Velocity":61,"Duration":115268,"SoundDuration":115268,"Delta":107065698},{"NoteNumber":84,"Velocity":64,"Duration":91097,"SoundDuration":91097,"Delta":107180966},{"NoteNumber":46,"Velocity":38,"Duration":512725,"SoundDuration":512725,"Delta":107180966},{"NoteNumber":50,"Velocity":45,"Duration":512725,"SoundDuration":512725,"Delta":107180966},{"NoteNumber":85,"Velocity":65,"Duration":91940,"SoundDuration":91940,"Delta":107272063},{"NoteNumber":86,"Velocity":67,"Duration":92799,"SoundDuration":92799,"Delta":107364004},{"NoteNumber":87,"Velocity":69,"Duration":103554,"SoundDuration":103554,"Delta":107456804},{"NoteNumber":88,"Velocity":70,"Duration":133333,"SoundDuration":133333,"Delta":107560359},{"NoteNumber":89,"Velocity":80,"Duration":564764,"SoundDuration":564764,"Delta":107693692},{"NoteNumber":41,"Velocity":45,"Duration":1397476,"SoundDuration":1397476,"Delta":107693692},{"NoteNumber":51,"Velocity":54,"Duration":451127,"SoundDuration":451127,"Delta":107693692},{"NoteNumber":45,"Velocity":45,"Duration":451127,"SoundDuration":451127,"Delta":107693692},{"NoteNumber":48,"Velocity":33,"Duration":454545,"SoundDuration":454545,"Delta":108144820},{"NoteNumber":51,"Velocity":39,"Duration":454545,"SoundDuration":454545,"Delta":108144820},{"NoteNumber":87,"Velocity":69,"Duration":113636,"SoundDuration":113636,"Delta":108258456},{"NoteNumber":84,"Velocity":66,"Duration":113636,"SoundDuration":113636,"Delta":108372093},{"NoteNumber":81,"Velocity":63,"Duration":113636,"SoundDuration":113636,"Delta":108485729},{"NoteNumber":77,"Velocity":60,"Duration":122950,"SoundDuration":122950,"Delta":108599365},{"NoteNumber":48,"Velocity":32,"Duration":491803,"SoundDuration":491803,"Delta":108599365},{"NoteNumber":51,"Velocity":38,"Duration":491803,"SoundDuration":491803,"Delta":108599365},{"NoteNumber":75,"Velocity":57,"Duration":122950,"SoundDuration":122950,"Delta":108722316},{"NoteNumber":72,"Velocity":54,"Duration":122950,"SoundDuration":122950,"Delta":108845267},{"NoteNumber":69,"Velocity":51,"Duration":122950,"SoundDuration":122950,"Delta":108968218},{"NoteNumber":70,"Velocity":56,"Duration":902255,"SoundDuration":902255,"Delta":109091169},{"NoteNumber":46,"Velocity":44,"Duration":451127,"SoundDuration":451127,"Delta":109091169},{"NoteNumber":50,"Velocity":39,"Duration":451127,"SoundDuration":451127,"Delta":109542297},{"NoteNumber":53,"Velocity":39,"Duration":451128,"SoundDuration":451128,"Delta":109993425},{"NoteNumber":58,"Velocity":44,"Duration":451127,"SoundDuration":451127,"Delta":110444553},{"NoteNumber":62,"Velocity":38,"Duration":451127,"SoundDuration":451127,"Delta":110895681},{"NoteNumber":70,"Velocity":56,"Duration":1336844,"SoundDuration":1336844,"Delta":111346809},{"NoteNumber":73,"Velocity":67,"Duration":885716,"SoundDuration":885716,"Delta":111346809},{"NoteNumber":64,"Velocity":38,"Duration":447760,"SoundDuration":447760,"Delta":111346809},{"NoteNumber":65,"Velocity":44,"Duration":889083,"SoundDuration":889083,"Delta":111794570},{"NoteNumber":74,"Velocity":54,"Duration":451127,"SoundDuration":451127,"Delta":112232526},{"NoteNumber":69,"Velocity":50,"Duration":468750,"SoundDuration":468750,"Delta":112683654},{"NoteNumber":75,"Velocity":59,"Duration":351562,"SoundDuration":351562,"Delta":112683654},{"NoteNumber":60,"Velocity":44,"Duration":351562,"SoundDuration":351562,"Delta":112683654},{"NoteNumber":53,"Velocity":37,"Duration":468750,"SoundDuration":468750,"Delta":112683654},{"NoteNumber":72,"Velocity":53,"Duration":117187,"SoundDuration":117187,"Delta":113035216},{"NoteNumber":63,"Velocity":40,"Duration":117187,"SoundDuration":117187,"Delta":113035216},{"NoteNumber":62,"Velocity":46,"Duration":902255,"SoundDuration":902255,"Delta":113152404},{"NoteNumber":70,"Velocity":56,"Duration":902255,"SoundDuration":902255,"Delta":113152404},{"NoteNumber":34,"Velocity":44,"Duration":451127,"SoundDuration":451127,"Delta":113152404},{"NoteNumber":38,"Velocity":39,"Duration":451127,"SoundDuration":451127,"Delta":113603532},{"NoteNumber":41,"Velocity":39,"Duration":451128,"SoundDuration":451128,"Delta":114054660},{"NoteNumber":46,"Velocity":44,"Duration":451127,"SoundDuration":451127,"Delta":114505788},{"NoteNumber":50,"Velocity":38,"Duration":451127,"SoundDuration":451127,"Delta":114956916},{"NoteNumber":61,"Velocity":60,"Duration":885716,"SoundDuration":885716,"Delta":115408044},{"NoteNumber":58,"Velocity":50,"Duration":1336844,"SoundDuration":1336844,"Delta":115408044},{"NoteNumber":52,"Velocity":34,"Duration":447760,"SoundDuration":447760,"Delta":115408044},{"NoteNumber":53,"Velocity":39,"Duration":889083,"SoundDuration":889083,"Delta":115855805},{"NoteNumber":62,"Velocity":48,"Duration":451127,"SoundDuration":451127,"Delta":116293761},{"NoteNumber":63,"Velocity":53,"Duration":351562,"SoundDuration":351562,"Delta":116744889},{"NoteNumber":57,"Velocity":45,"Duration":469672,"SoundDuration":469672,"Delta":116744889},{"NoteNumber":48,"Velocity":39,"Duration":351562,"SoundDuration":351562,"Delta":116744889},{"NoteNumber":41,"Velocity":33,"Duration":469672,"SoundDuration":469672,"Delta":116744889},{"NoteNumber":60,"Velocity":43,"Duration":118110,"SoundDuration":118110,"Delta":117096451},{"NoteNumber":51,"Velocity":36,"Duration":118110,"SoundDuration":118110,"Delta":117096451},{"NoteNumber":58,"Velocity":48,"Duration":472441,"SoundDuration":472441,"Delta":117214562},{"NoteNumber":46,"Velocity":34,"Duration":472441,"SoundDuration":472441,"Delta":117214562},{"NoteNumber":50,"Velocity":40,"Duration":472441,"SoundDuration":472441,"Delta":117214562},{"NoteNumber":57,"Velocity":43,"Duration":895521,"SoundDuration":895521,"Delta":117687003},{"NoteNumber":63,"Velocity":51,"Duration":671641,"SoundDuration":671641,"Delta":117687003},{"NoteNumber":41,"Velocity":33,"Duration":895521,"SoundDuration":895521,"Delta":117687003},{"NoteNumber":48,"Velocity":39,"Duration":671641,"SoundDuration":671641,"Delta":117687003},{"NoteNumber":60,"Velocity":44,"Duration":223880,"SoundDuration":223880,"Delta":118358644},{"NoteNumber":51,"Velocity":34,"Duration":223880,"SoundDuration":223880,"Delta":118358644},{"NoteNumber":58,"Velocity":48,"Duration":483870,"SoundDuration":483870,"Delta":118582525},{"NoteNumber":46,"Velocity":34,"Duration":483870,"SoundDuration":483870,"Delta":118582525},{"NoteNumber":50,"Velocity":40,"Duration":483870,"SoundDuration":483870,"Delta":118582525},{"NoteNumber":57,"Velocity":43,"Duration":916031,"SoundDuration":916031,"Delta":119066396},{"NoteNumber":63,"Velocity":51,"Duration":687023,"SoundDuration":687023,"Delta":119066396},{"NoteNumber":41,"Velocity":33,"Duration":916031,"SoundDuration":916031,"Delta":119066396},{"NoteNumber":48,"Velocity":39,"Duration":687023,"SoundDuration":687023,"Delta":119066396},{"NoteNumber":60,"Velocity":44,"Duration":229007,"SoundDuration":229007,"Delta":119753419},{"NoteNumber":51,"Velocity":34,"Duration":229007,"SoundDuration":229007,"Delta":119753419},{"NoteNumber":58,"Velocity":48,"Duration":500000,"SoundDuration":500000,"Delta":119982427},{"NoteNumber":46,"Velocity":34,"Duration":500000,"SoundDuration":500000,"Delta":119982427},{"NoteNumber":50,"Velocity":40,"Duration":500000,"SoundDuration":500000,"Delta":119982427},{"NoteNumber":63,"Velocity":59,"Duration":234375,"SoundDuration":234375,"Delta":120482427},{"NoteNumber":57,"Velocity":50,"Duration":468750,"SoundDuration":468750,"Delta":120482427},{"NoteNumber":41,"Velocity":38,"Duration":468750,"SoundDuration":468750,"Delta":120482427},{"NoteNumber":48,"Velocity":45,"Duration":234375,"SoundDuration":234375,"Delta":120482427},{"NoteNumber":62,"Velocity":55,"Duration":234375,"SoundDuration":234375,"Delta":120716802},{"NoteNumber":47,"Velocity":42,"Duration":234375,"SoundDuration":234375,"Delta":120716802},{"NoteNumber":63,"Velocity":69,"Duration":239999,"SoundDuration":239999,"Delta":120951177},{"NoteNumber":57,"Velocity":51,"Duration":534117,"SoundDuration":534117,"Delta":120951177},{"NoteNumber":41,"Velocity":39,"Duration":534117,"SoundDuration":534117,"Delta":120951177},{"NoteNumber":48,"Velocity":52,"Duration":239999,"SoundDuration":239999,"Delta":120951177},{"NoteNumber":60,"Velocity":62,"Duration":294117,"SoundDuration":294117,"Delta":121191177},{"NoteNumber":51,"Velocity":48,"Duration":294117,"SoundDuration":294117,"Delta":121191177},{"NoteNumber":59,"Velocity":39,"Duration":109890,"SoundDuration":109890,"Delta":121485294},{"NoteNumber":60,"Velocity":38,"Duration":109890,"SoundDuration":109890,"Delta":121595184},{"NoteNumber":62,"Velocity":32,"Duration":109890,"SoundDuration":109890,"Delta":121705075},{"NoteNumber":60,"Velocity":42,"Duration":1515151,"SoundDuration":1515151,"Delta":121814965},{"NoteNumber":57,"Velocity":35,"Duration":1515151,"SoundDuration":1515151,"Delta":121814965},{"NoteNumber":46,"Velocity":29,"Duration":2727272,"SoundDuration":2727272,"Delta":121814965},{"NoteNumber":51,"Velocity":35,"Duration":1515151,"SoundDuration":1515151,"Delta":121814965},{"NoteNumber":58,"Velocity":39,"Duration":1212120,"SoundDuration":1212120,"Delta":123330116},{"NoteNumber":50,"Velocity":35,"Duration":1212120,"SoundDuration":1212120,"Delta":123330116},{"NoteNumber":43,"Velocity":25,"Duration":425196,"SoundDuration":425196,"Delta":126623708},{"NoteNumber":31,"Velocity":21,"Duration":425196,"SoundDuration":425196,"Delta":126623708},{"NoteNumber":31,"Velocity":17,"Duration":425196,"SoundDuration":425196,"Delta":127096149},{"NoteNumber":43,"Velocity":21,"Duration":425196,"SoundDuration":425196,"Delta":127096149},{"NoteNumber":31,"Velocity":17,"Duration":425196,"SoundDuration":425196,"Delta":127568590},{"NoteNumber":43,"Velocity":21,"Duration":425196,"SoundDuration":425196,"Delta":127568590},{"NoteNumber":31,"Velocity":17,"Duration":425196,"SoundDuration":425196,"Delta":128041031},{"NoteNumber":43,"Velocity":21,"Duration":425196,"SoundDuration":425196,"Delta":128041031},{"NoteNumber":31,"Velocity":17,"Duration":425196,"SoundDuration":425196,"Delta":128513472},{"NoteNumber":43,"Velocity":21,"Duration":425196,"SoundDuration":425196,"Delta":128513472},{"NoteNumber":31,"Velocity":17,"Duration":425196,"SoundDuration":425196,"Delta":128985913},{"NoteNumber":43,"Velocity":21,"Duration":425196,"SoundDuration":425196,"Delta":128985913},{"NoteNumber":59,"Velocity":33,"Duration":354330,"SoundDuration":354330,"Delta":129458354},{"NoteNumber":31,"Velocity":17,"Duration":425196,"SoundDuration":425196,"Delta":129458354},{"NoteNumber":43,"Velocity":21,"Duration":425196,"SoundDuration":425196,"Delta":129458354},{"NoteNumber":60,"Velocity":28,"Duration":118110,"SoundDuration":118110,"Delta":129812685},{"NoteNumber":59,"Velocity":34,"Duration":227272,"SoundDuration":227272,"Delta":129930795},{"NoteNumber":31,"Velocity":17,"Duration":409090,"SoundDuration":409090,"Delta":129930795},{"NoteNumber":43,"Velocity":21,"Duration":409090,"SoundDuration":409090,"Delta":129930795},{"NoteNumber":57,"Velocity":29,"Duration":227272,"SoundDuration":227272,"Delta":130158068},{"NoteNumber":59,"Velocity":38,"Duration":238095,"SoundDuration":238095,"Delta":130385340},{"NoteNumber":31,"Velocity":17,"Duration":436442,"SoundDuration":436442,"Delta":130385340},{"NoteNumber":43,"Velocity":21,"Duration":436442,"SoundDuration":436442,"Delta":130385340},{"NoteNumber":60,"Velocity":37,"Duration":247933,"SoundDuration":247933,"Delta":130623436},{"NoteNumber":53,"Velocity":25,"Duration":2380952,"SoundDuration":2380952,"Delta":130871370},{"NoteNumber":61,"Velocity":34,"Duration":1428571,"SoundDuration":1428571,"Delta":130871370},{"NoteNumber":56,"Velocity":25,"Duration":2380952,"SoundDuration":2380952,"Delta":130871370},{"NoteNumber":59,"Velocity":25,"Duration":2380952,"SoundDuration":2380952,"Delta":130871370},{"NoteNumber":43,"Velocity":25,"Duration":428571,"SoundDuration":428571,"Delta":130871370},{"NoteNumber":31,"Velocity":21,"Duration":428571,"SoundDuration":428571,"Delta":130871370},{"NoteNumber":31,"Velocity":17,"Duration":428571,"SoundDuration":428571,"Delta":131347560},{"NoteNumber":43,"Velocity":21,"Duration":428571,"SoundDuration":428571,"Delta":131347560},{"NoteNumber":31,"Velocity":17,"Duration":428571,"SoundDuration":428571,"Delta":131823751},{"NoteNumber":43,"Velocity":21,"Duration":428571,"SoundDuration":428571,"Delta":131823751},{"NoteNumber":62,"Velocity":34,"Duration":952381,"SoundDuration":952381,"Delta":132299941},{"NoteNumber":31,"Velocity":17,"Duration":428571,"SoundDuration":428571,"Delta":132299941},{"NoteNumber":43,"Velocity":21,"Duration":428571,"SoundDuration":428571,"Delta":132299941},{"NoteNumber":31,"Velocity":17,"Duration":428571,"SoundDuration":428571,"Delta":132776132},{"NoteNumber":43,"Velocity":21,"Duration":428571,"SoundDuration":428571,"Delta":132776132},{"NoteNumber":31,"Velocity":17,"Duration":428571,"SoundDuration":428571,"Delta":133252322},{"NoteNumber":43,"Velocity":21,"Duration":428571,"SoundDuration":428571,"Delta":133252322},{"NoteNumber":31,"Velocity":17,"Duration":428009,"SoundDuration":428009,"Delta":133728513},{"NoteNumber":43,"Velocity":21,"Duration":428009,"SoundDuration":428009,"Delta":133728513},{"NoteNumber":63,"Velocity":28,"Duration":118110,"SoundDuration":118110,"Delta":134085656},{"NoteNumber":62,"Velocity":38,"Duration":227272,"SoundDuration":227272,"Delta":134203766},{"NoteNumber":31,"Velocity":17,"Duration":409090,"SoundDuration":409090,"Delta":134203766},{"NoteNumber":43,"Velocity":21,"Duration":409090,"SoundDuration":409090,"Delta":134203766},{"NoteNumber":61,"Velocity":33,"Duration":227272,"SoundDuration":227272,"Delta":134431039},{"NoteNumber":62,"Velocity":39,"Duration":230769,"SoundDuration":230769,"Delta":134658311},{"NoteNumber":31,"Velocity":17,"Duration":425891,"SoundDuration":425891,"Delta":134658311},{"NoteNumber":43,"Velocity":21,"Duration":425891,"SoundDuration":425891,"Delta":134658311},{"NoteNumber":63,"Velocity":41,"Duration":243902,"SoundDuration":243902,"Delta":134889081},{"NoteNumber":62,"Velocity":25,"Duration":2362204,"SoundDuration":2362204,"Delta":135132983},{"NoteNumber":64,"Velocity":34,"Duration":1417323,"SoundDuration":1417323,"Delta":135132983},{"NoteNumber":56,"Velocity":25,"Duration":2362204,"SoundDuration":2362204,"Delta":135132983},{"NoteNumber":59,"Velocity":25,"Duration":2362204,"SoundDuration":2362204,"Delta":135132983},{"NoteNumber":43,"Velocity":25,"Duration":425196,"SoundDuration":425196,"Delta":135132983},{"NoteNumber":31,"Velocity":21,"Duration":425196,"SoundDuration":425196,"Delta":135132983},{"NoteNumber":31,"Velocity":17,"Duration":425196,"SoundDuration":425196,"Delta":135605424},{"NoteNumber":43,"Velocity":21,"Duration":425196,"SoundDuration":425196,"Delta":135605424},{"NoteNumber":31,"Velocity":17,"Duration":425196,"SoundDuration":425196,"Delta":136077865},{"NoteNumber":43,"Velocity":21,"Duration":425196,"SoundDuration":425196,"Delta":136077865},{"NoteNumber":65,"Velocity":34,"Duration":944881,"SoundDuration":944881,"Delta":136550306},{"NoteNumber":31,"Velocity":17,"Duration":425196,"SoundDuration":425196,"Delta":136550306},{"NoteNumber":43,"Velocity":21,"Duration":425196,"SoundDuration":425196,"Delta":136550306},{"NoteNumber":31,"Velocity":17,"Duration":425196,"SoundDuration":425196,"Delta":137022747},{"NoteNumber":43,"Velocity":21,"Duration":425196,"SoundDuration":425196,"Delta":137022747},{"NoteNumber":31,"Velocity":17,"Duration":425196,"SoundDuration":425196,"Delta":137495188},{"NoteNumber":43,"Velocity":21,"Duration":425196,"SoundDuration":425196,"Delta":137495188},{"NoteNumber":31,"Velocity":17,"Duration":425196,"SoundDuration":425196,"Delta":137967629},{"NoteNumber":43,"Velocity":21,"Duration":425196,"SoundDuration":425196,"Delta":137967629},{"NoteNumber":72,"Velocity":45,"Duration":118110,"SoundDuration":118110,"Delta":138321960},{"NoteNumber":60,"Velocity":38,"Duration":118110,"SoundDuration":118110,"Delta":138321960},{"NoteNumber":59,"Velocity":44,"Duration":229007,"SoundDuration":229007,"Delta":138440070},{"NoteNumber":71,"Velocity":52,"Duration":229007,"SoundDuration":229007,"Delta":138440070},{"NoteNumber":31,"Velocity":17,"Duration":412213,"SoundDuration":412213,"Delta":138440070},{"NoteNumber":43,"Velocity":21,"Duration":412213,"SoundDuration":412213,"Delta":138440070},{"NoteNumber":57,"Velocity":43,"Duration":229007,"SoundDuration":229007,"Delta":138669078},{"NoteNumber":69,"Velocity":51,"Duration":229007,"SoundDuration":229007,"Delta":138669078},{"NoteNumber":59,"Velocity":50,"Duration":232558,"SoundDuration":232558,"Delta":138898086},{"NoteNumber":71,"Velocity":59,"Duration":232558,"SoundDuration":232558,"Delta":138898086},{"NoteNumber":31,"Velocity":17,"Duration":427680,"SoundDuration":427680,"Delta":138898086},{"NoteNumber":43,"Velocity":21,"Duration":427680,"SoundDuration":427680,"Delta":138898086},{"NoteNumber":72,"Velocity":61,"Duration":243902,"SoundDuration":243902,"Delta":139130644},{"NoteNumber":60,"Velocity":51,"Duration":243902,"SoundDuration":243902,"Delta":139130644},{"NoteNumber":73,"Velocity":70,"Duration":1406250,"SoundDuration":1406250,"Delta":139374546},{"NoteNumber":61,"Velocity":59,"Duration":1406250,"SoundDuration":1406250,"Delta":139374546},{"NoteNumber":31,"Velocity":48,"Duration":468750,"SoundDuration":468750,"Delta":139374546},{"NoteNumber":43,"Velocity":60,"Duration":468750,"SoundDuration":468750,"Delta":139374546},{"NoteNumber":43,"Velocity":20,"Duration":421875,"SoundDuration":421875,"Delta":139843296},{"NoteNumber":47,"Velocity":20,"Duration":421875,"SoundDuration":421875,"Delta":139843296},{"NoteNumber":50,"Velocity":20,"Duration":421875,"SoundDuration":421875,"Delta":139843296},{"NoteNumber":53,"Velocity":26,"Duration":421875,"SoundDuration":421875,"Delta":139843296},{"NoteNumber":43,"Velocity":20,"Duration":421875,"SoundDuration":421875,"Delta":140312046},{"NoteNumber":47,"Velocity":20,"Duration":421875,"SoundDuration":421875,"Delta":140312046},{"NoteNumber":50,"Velocity":20,"Duration":421875,"SoundDuration":421875,"Delta":140312046},{"NoteNumber":53,"Velocity":26,"Duration":421875,"SoundDuration":421875,"Delta":140312046},{"NoteNumber":62,"Velocity":41,"Duration":351562,"SoundDuration":351562,"Delta":140780796},{"NoteNumber":74,"Velocity":49,"Duration":351562,"SoundDuration":351562,"Delta":140780796},{"NoteNumber":43,"Velocity":23,"Duration":421875,"SoundDuration":421875,"Delta":140780796},{"NoteNumber":47,"Velocity":23,"Duration":421875,"SoundDuration":421875,"Delta":140780796},{"NoteNumber":50,"Velocity":23,"Duration":421875,"SoundDuration":421875,"Delta":140780796},{"NoteNumber":53,"Velocity":29,"Duration":421875,"SoundDuration":421875,"Delta":140780796},{"NoteNumber":75,"Velocity":52,"Duration":117187,"SoundDuration":117187,"Delta":141132359},{"NoteNumber":74,"Velocity":57,"Duration":230769,"SoundDuration":230769,"Delta":141249546},{"NoteNumber":43,"Velocity":20,"Duration":415384,"SoundDuration":415384,"Delta":141249546},{"NoteNumber":47,"Velocity":20,"Duration":415384,"SoundDuration":415384,"Delta":141249546},{"NoteNumber":50,"Velocity":20,"Duration":415384,"SoundDuration":415384,"Delta":141249546},{"NoteNumber":53,"Velocity":26,"Duration":415384,"SoundDuration":415384,"Delta":141249546},{"NoteNumber":73,"Velocity":52,"Duration":230769,"SoundDuration":230769,"Delta":141480316},{"NoteNumber":74,"Velocity":52,"Duration":225563,"SoundDuration":225563,"Delta":141711085},{"NoteNumber":43,"Velocity":20,"Duration":406015,"SoundDuration":406015,"Delta":141711085},{"NoteNumber":47,"Velocity":20,"Duration":406015,"SoundDuration":406015,"Delta":141711085},{"NoteNumber":50,"Velocity":20,"Duration":406015,"SoundDuration":406015,"Delta":141711085},{"NoteNumber":53,"Velocity":26,"Duration":406015,"SoundDuration":406015,"Delta":141711085},{"NoteNumber":75,"Velocity":52,"Duration":225564,"SoundDuration":225564,"Delta":141936649},{"NoteNumber":77,"Velocity":58,"Duration":222222,"SoundDuration":222222,"Delta":142162213},{"NoteNumber":43,"Velocity":24,"Duration":400000,"SoundDuration":400000,"Delta":142162213},{"NoteNumber":47,"Velocity":24,"Duration":400000,"SoundDuration":400000,"Delta":142162213},{"NoteNumber":50,"Velocity":24,"Duration":400000,"SoundDuration":400000,"Delta":142162213},{"NoteNumber":53,"Velocity":30,"Duration":400000,"SoundDuration":400000,"Delta":142162213},{"NoteNumber":79,"Velocity":55,"Duration":222222,"SoundDuration":222222,"Delta":142384435},{"NoteNumber":80,"Velocity":62,"Duration":222222,"SoundDuration":222222,"Delta":142606657},{"NoteNumber":43,"Velocity":23,"Duration":414222,"SoundDuration":414222,"Delta":142606657},{"NoteNumber":47,"Velocity":23,"Duration":414222,"SoundDuration":414222,"Delta":142606657},{"NoteNumber":50,"Velocity":23,"Duration":414222,"SoundDuration":414222,"Delta":142606657},{"NoteNumber":53,"Velocity":30,"Duration":414222,"SoundDuration":414222,"Delta":142606657},{"NoteNumber":79,"Velocity":55,"Duration":240000,"SoundDuration":240000,"Delta":142828880},{"NoteNumber":80,"Velocity":66,"Duration":229007,"SoundDuration":229007,"Delta":143068880},{"NoteNumber":43,"Velocity":24,"Duration":421007,"SoundDuration":421007,"Delta":143068880},{"NoteNumber":47,"Velocity":24,"Duration":421007,"SoundDuration":421007,"Delta":143068880},{"NoteNumber":50,"Velocity":24,"Duration":421007,"SoundDuration":421007,"Delta":143068880},{"NoteNumber":53,"Velocity":31,"Duration":421007,"SoundDuration":421007,"Delta":143068880},{"NoteNumber":77,"Velocity":60,"Duration":240000,"SoundDuration":240000,"Delta":143297887},{"NoteNumber":77,"Velocity":70,"Duration":1406250,"SoundDuration":1406250,"Delta":143537887},{"NoteNumber":36,"Velocity":48,"Duration":468750,"SoundDuration":468750,"Delta":143537887},{"NoteNumber":48,"Velocity":60,"Duration":468750,"SoundDuration":468750,"Delta":143537887},{"NoteNumber":48,"Velocity":20,"Duration":421875,"SoundDuration":421875,"Delta":144006637},{"NoteNumber":55,"Velocity":20,"Duration":421875,"SoundDuration":421875,"Delta":144006637},{"NoteNumber":58,"Velocity":26,"Duration":421875,"SoundDuration":421875,"Delta":144006637},{"NoteNumber":48,"Velocity":20,"Duration":421875,"SoundDuration":421875,"Delta":144475387},{"NoteNumber":55,"Velocity":20,"Duration":421875,"SoundDuration":421875,"Delta":144475387},{"NoteNumber":58,"Velocity":26,"Duration":421875,"SoundDuration":421875,"Delta":144475387},{"NoteNumber":67,"Velocity":41,"Duration":351562,"SoundDuration":351562,"Delta":144944137},{"NoteNumber":76,"Velocity":49,"Duration":351562,"SoundDuration":351562,"Delta":144944137},{"NoteNumber":48,"Velocity":23,"Duration":421875,"SoundDuration":421875,"Delta":144944137},{"NoteNumber":55,"Velocity":23,"Duration":421875,"SoundDuration":421875,"Delta":144944137},{"NoteNumber":58,"Velocity":29,"Duration":421875,"SoundDuration":421875,"Delta":144944137},{"NoteNumber":68,"Velocity":48,"Duration":117187,"SoundDuration":117187,"Delta":145295700},{"NoteNumber":67,"Velocity":52,"Duration":230769,"SoundDuration":230769,"Delta":145412887},{"NoteNumber":48,"Velocity":20,"Duration":415384,"SoundDuration":415384,"Delta":145412887},{"NoteNumber":55,"Velocity":20,"Duration":415384,"SoundDuration":415384,"Delta":145412887},{"NoteNumber":58,"Velocity":26,"Duration":415384,"SoundDuration":415384,"Delta":145412887},{"NoteNumber":66,"Velocity":48,"Duration":230769,"SoundDuration":230769,"Delta":145643657},{"NoteNumber":67,"Velocity":48,"Duration":225563,"SoundDuration":225563,"Delta":145874426},{"NoteNumber":48,"Velocity":20,"Duration":406015,"SoundDuration":406015,"Delta":145874426},{"NoteNumber":55,"Velocity":20,"Duration":406015,"SoundDuration":406015,"Delta":145874426},{"NoteNumber":58,"Velocity":26,"Duration":406015,"SoundDuration":406015,"Delta":145874426},{"NoteNumber":69,"Velocity":48,"Duration":225564,"SoundDuration":225564,"Delta":146099990},{"NoteNumber":70,"Velocity":55,"Duration":222222,"SoundDuration":222222,"Delta":146325554},{"NoteNumber":48,"Velocity":24,"Duration":400000,"SoundDuration":400000,"Delta":146325554},{"NoteNumber":55,"Velocity":24,"Duration":400000,"SoundDuration":400000,"Delta":146325554},{"NoteNumber":58,"Velocity":30,"Duration":400000,"SoundDuration":400000,"Delta":146325554},{"NoteNumber":72,"Velocity":50,"Duration":222222,"SoundDuration":222222,"Delta":146547776},{"NoteNumber":73,"Velocity":64,"Duration":222222,"SoundDuration":222222,"Delta":146769998},{"NoteNumber":48,"Velocity":23,"Duration":414222,"SoundDuration":414222,"Delta":146769998},{"NoteNumber":55,"Velocity":23,"Duration":414222,"SoundDuration":414222,"Delta":146769998},{"NoteNumber":58,"Velocity":30,"Duration":414222,"SoundDuration":414222,"Delta":146769998},{"NoteNumber":72,"Velocity":60,"Duration":240000,"SoundDuration":240000,"Delta":146992221},{"NoteNumber":73,"Velocity":68,"Duration":229007,"SoundDuration":229007,"Delta":147232221},{"NoteNumber":48,"Velocity":24,"Duration":421007,"SoundDuration":421007,"Delta":147232221},{"NoteNumber":55,"Velocity":24,"Duration":421007,"SoundDuration":421007,"Delta":147232221},{"NoteNumber":58,"Velocity":31,"Duration":421007,"SoundDuration":421007,"Delta":147232221},{"NoteNumber":70,"Velocity":64,"Duration":240000,"SoundDuration":240000,"Delta":147461228},{"NoteNumber":70,"Velocity":70,"Duration":1406250,"SoundDuration":1406250,"Delta":147701228},{"NoteNumber":41,"Velocity":48,"Duration":468750,"SoundDuration":468750,"Delta":147701228},{"NoteNumber":53,"Velocity":60,"Duration":468750,"SoundDuration":468750,"Delta":147701228},{"NoteNumber":53,"Velocity":20,"Duration":421875,"SoundDuration":421875,"Delta":148169978},{"NoteNumber":60,"Velocity":20,"Duration":421875,"SoundDuration":421875,"Delta":148169978},{"NoteNumber":63,"Velocity":26,"Duration":421875,"SoundDuration":421875,"Delta":148169978},{"NoteNumber":53,"Velocity":20,"Duration":421875,"SoundDuration":421875,"Delta":148638728},{"NoteNumber":60,"Velocity":20,"Duration":421875,"SoundDuration":421875,"Delta":148638728},{"NoteNumber":63,"Velocity":26,"Duration":421875,"SoundDuration":421875,"Delta":148638728},{"NoteNumber":72,"Velocity":49,"Duration":351562,"SoundDuration":351562,"Delta":149107478},{"NoteNumber":69,"Velocity":41,"Duration":351562,"SoundDuration":351562,"Delta":149107478},{"NoteNumber":53,"Velocity":23,"Duration":421875,"SoundDuration":421875,"Delta":149107478},{"NoteNumber":60,"Velocity":23,"Duration":421875,"SoundDuration":421875,"Delta":149107478},{"NoteNumber":63,"Velocity":29,"Duration":421875,"SoundDuration":421875,"Delta":149107478},{"NoteNumber":73,"Velocity":48,"Duration":117187,"SoundDuration":117187,"Delta":149459041},{"NoteNumber":72,"Velocity":52,"Duration":230769,"SoundDuration":230769,"Delta":149576228},{"NoteNumber":53,"Velocity":20,"Duration":415384,"SoundDuration":415384,"Delta":149576228},{"NoteNumber":60,"Velocity":20,"Duration":415384,"SoundDuration":415384,"Delta":149576228},{"NoteNumber":63,"Velocity":26,"Duration":415384,"SoundDuration":415384,"Delta":149576228},{"NoteNumber":71,"Velocity":48,"Duration":230769,"SoundDuration":230769,"Delta":149806998},{"NoteNumber":72,"Velocity":48,"Duration":225563,"SoundDuration":225563,"Delta":150037767},{"NoteNumber":53,"Velocity":20,"Duration":406015,"SoundDuration":406015,"Delta":150037767},{"NoteNumber":60,"Velocity":20,"Duration":406015,"SoundDuration":406015,"Delta":150037767},{"NoteNumber":63,"Velocity":26,"Duration":406015,"SoundDuration":406015,"Delta":150037767},{"NoteNumber":74,"Velocity":48,"Duration":225564,"SoundDuration":225564,"Delta":150263331},{"NoteNumber":75,"Velocity":60,"Duration":222222,"SoundDuration":222222,"Delta":150488895},{"NoteNumber":53,"Velocity":24,"Duration":400000,"SoundDuration":400000,"Delta":150488895},{"NoteNumber":60,"Velocity":24,"Duration":400000,"SoundDuration":400000,"Delta":150488895},{"NoteNumber":63,"Velocity":30,"Duration":400000,"SoundDuration":400000,"Delta":150488895},{"NoteNumber":77,"Velocity":56,"Duration":222222,"SoundDuration":222222,"Delta":150711117},{"NoteNumber":78,"Velocity":64,"Duration":222222,"SoundDuration":222222,"Delta":150933339},{"NoteNumber":53,"Velocity":24,"Duration":414222,"SoundDuration":414222,"Delta":150933339},{"NoteNumber":60,"Velocity":24,"Duration":414222,"SoundDuration":414222,"Delta":150933339},{"NoteNumber":63,"Velocity":31,"Duration":414222,"SoundDuration":414222,"Delta":150933339},{"NoteNumber":77,"Velocity":58,"Duration":240000,"SoundDuration":240000,"Delta":151155562},{"NoteNumber":78,"Velocity":67,"Duration":229007,"SoundDuration":229007,"Delta":151395562},{"NoteNumber":53,"Velocity":26,"Duration":421007,"SoundDuration":421007,"Delta":151395562},{"NoteNumber":60,"Velocity":26,"Duration":421007,"SoundDuration":421007,"Delta":151395562},{"NoteNumber":63,"Velocity":33,"Duration":421007,"SoundDuration":421007,"Delta":151395562},{"NoteNumber":75,"Velocity":64,"Duration":240000,"SoundDuration":240000,"Delta":151624569},{"NoteNumber":75,"Velocity":70,"Duration":1406250,"SoundDuration":1406250,"Delta":151864569},{"NoteNumber":34,"Velocity":48,"Duration":468750,"SoundDuration":468750,"Delta":151864569},{"NoteNumber":46,"Velocity":60,"Duration":468750,"SoundDuration":468750,"Delta":151864569},{"NoteNumber":46,"Velocity":20,"Duration":421875,"SoundDuration":421875,"Delta":152333319},{"NoteNumber":53,"Velocity":20,"Duration":421875,"SoundDuration":421875,"Delta":152333319},{"NoteNumber":56,"Velocity":26,"Duration":421875,"SoundDuration":421875,"Delta":152333319},{"NoteNumber":46,"Velocity":20,"Duration":421875,"SoundDuration":421875,"Delta":152802069},{"NoteNumber":53,"Velocity":20,"Duration":421875,"SoundDuration":421875,"Delta":152802069},{"NoteNumber":56,"Velocity":26,"Duration":421875,"SoundDuration":421875,"Delta":152802069},{"NoteNumber":65,"Velocity":41,"Duration":351562,"SoundDuration":351562,"Delta":153270819},{"NoteNumber":74,"Velocity":49,"Duration":351562,"SoundDuration":351562,"Delta":153270819},{"NoteNumber":46,"Velocity":23,"Duration":421875,"SoundDuration":421875,"Delta":153270819},{"NoteNumber":53,"Velocity":23,"Duration":421875,"SoundDuration":421875,"Delta":153270819},{"NoteNumber":56,"Velocity":29,"Duration":421875,"SoundDuration":421875,"Delta":153270819},{"NoteNumber":66,"Velocity":48,"Duration":117187,"SoundDuration":117187,"Delta":153622382},{"NoteNumber":65,"Velocity":52,"Duration":230769,"SoundDuration":230769,"Delta":153739569},{"NoteNumber":46,"Velocity":20,"Duration":415384,"SoundDuration":415384,"Delta":153739569},{"NoteNumber":53,"Velocity":20,"Duration":415384,"SoundDuration":415384,"Delta":153739569},{"NoteNumber":56,"Velocity":26,"Duration":415384,"SoundDuration":415384,"Delta":153739569},{"NoteNumber":64,"Velocity":48,"Duration":230769,"SoundDuration":230769,"Delta":153970339},{"NoteNumber":65,"Velocity":48,"Duration":225563,"SoundDuration":225563,"Delta":154201108},{"NoteNumber":46,"Velocity":20,"Duration":406015,"SoundDuration":406015,"Delta":154201108},{"NoteNumber":53,"Velocity":20,"Duration":406015,"SoundDuration":406015,"Delta":154201108},{"NoteNumber":56,"Velocity":26,"Duration":406015,"SoundDuration":406015,"Delta":154201108},{"NoteNumber":67,"Velocity":48,"Duration":225564,"SoundDuration":225564,"Delta":154426672},{"NoteNumber":68,"Velocity":60,"Duration":222222,"SoundDuration":222222,"Delta":154652236},{"NoteNumber":46,"Velocity":24,"Duration":400000,"SoundDuration":400000,"Delta":154652236},{"NoteNumber":53,"Velocity":24,"Duration":400000,"SoundDuration":400000,"Delta":154652236},{"NoteNumber":56,"Velocity":30,"Duration":400000,"SoundDuration":400000,"Delta":154652236},{"NoteNumber":70,"Velocity":54,"Duration":222222,"SoundDuration":222222,"Delta":154874458},{"NoteNumber":71,"Velocity":64,"Duration":222222,"SoundDuration":222222,"Delta":155096680},{"NoteNumber":46,"Velocity":23,"Duration":414222,"SoundDuration":414222,"Delta":155096680},{"NoteNumber":53,"Velocity":23,"Duration":414222,"SoundDuration":414222,"Delta":155096680},{"NoteNumber":56,"Velocity":30,"Duration":414222,"SoundDuration":414222,"Delta":155096680},{"NoteNumber":70,"Velocity":56,"Duration":240000,"SoundDuration":240000,"Delta":155318903},{"NoteNumber":71,"Velocity":67,"Duration":229007,"SoundDuration":229007,"Delta":155558903},{"NoteNumber":46,"Velocity":24,"Duration":421007,"SoundDuration":421007,"Delta":155558903},{"NoteNumber":53,"Velocity":24,"Duration":421007,"SoundDuration":421007,"Delta":155558903},{"NoteNumber":56,"Velocity":31,"Duration":421007,"SoundDuration":421007,"Delta":155558903},{"NoteNumber":68,"Velocity":59,"Duration":240000,"SoundDuration":240000,"Delta":155787910},{"NoteNumber":68,"Velocity":70,"Duration":1406250,"SoundDuration":1406250,"Delta":156027910},{"NoteNumber":39,"Velocity":48,"Duration":468750,"SoundDuration":468750,"Delta":156027910},{"NoteNumber":51,"Velocity":60,"Duration":468750,"SoundDuration":468750,"Delta":156027910},{"NoteNumber":51,"Velocity":20,"Duration":421875,"SoundDuration":421875,"Delta":156496660},{"NoteNumber":58,"Velocity":20,"Duration":421875,"SoundDuration":421875,"Delta":156496660},{"NoteNumber":61,"Velocity":26,"Duration":421875,"SoundDuration":421875,"Delta":156496660},{"NoteNumber":51,"Velocity":20,"Duration":421875,"SoundDuration":421875,"Delta":156965410},{"NoteNumber":58,"Velocity":20,"Duration":421875,"SoundDuration":421875,"Delta":156965410},{"NoteNumber":61,"Velocity":26,"Duration":421875,"SoundDuration":421875,"Delta":156965410},{"NoteNumber":67,"Velocity":41,"Duration":1807342,"SoundDuration":1807342,"Delta":157434160},{"NoteNumber":70,"Velocity":49,"Duration":351562,"SoundDuration":351562,"Delta":157434160},{"NoteNumber":51,"Velocity":23,"Duration":421875,"SoundDuration":421875,"Delta":157434160},{"NoteNumber":58,"Velocity":23,"Duration":421875,"SoundDuration":421875,"Delta":157434160},{"NoteNumber":61,"Velocity":29,"Duration":421875,"SoundDuration":421875,"Delta":157434160},{"NoteNumber":71,"Velocity":48,"Duration":117187,"SoundDuration":117187,"Delta":157785723},{"NoteNumber":70,"Velocity":53,"Duration":230769,"SoundDuration":230769,"Delta":157902910},{"NoteNumber":51,"Velocity":20,"Duration":415384,"SoundDuration":415384,"Delta":157902910},{"NoteNumber":58,"Velocity":20,"Duration":415384,"SoundDuration":415384,"Delta":157902910},{"NoteNumber":61,"Velocity":26,"Duration":415384,"SoundDuration":415384,"Delta":157902910},{"NoteNumber":69,"Velocity":49,"Duration":230769,"SoundDuration":230769,"Delta":158133680},{"NoteNumber":70,"Velocity":50,"Duration":225563,"SoundDuration":225563,"Delta":158364449},{"NoteNumber":51,"Velocity":21,"Duration":406015,"SoundDuration":406015,"Delta":158364449},{"NoteNumber":58,"Velocity":21,"Duration":406015,"SoundDuration":406015,"Delta":158364449},{"NoteNumber":61,"Velocity":27,"Duration":406015,"SoundDuration":406015,"Delta":158364449},{"NoteNumber":71,"Velocity":50,"Duration":225564,"SoundDuration":225564,"Delta":158590013},{"NoteNumber":73,"Velocity":64,"Duration":222222,"SoundDuration":222222,"Delta":158815577},{"NoteNumber":51,"Velocity":26,"Duration":400000,"SoundDuration":400000,"Delta":158815577},{"NoteNumber":58,"Velocity":26,"Duration":400000,"SoundDuration":400000,"Delta":158815577},{"NoteNumber":61,"Velocity":33,"Duration":400000,"SoundDuration":400000,"Delta":158815577},{"NoteNumber":75,"Velocity":60,"Duration":222222,"SoundDuration":222222,"Delta":159037799},{"NoteNumber":76,"Velocity":70,"Duration":222222,"SoundDuration":222222,"Delta":159260021},{"NoteNumber":67,"Velocity":45,"Duration":414222,"SoundDuration":414222,"Delta":159260021},{"NoteNumber":51,"Velocity":27,"Duration":414222,"SoundDuration":414222,"Delta":159260021},{"NoteNumber":58,"Velocity":27,"Duration":414222,"SoundDuration":414222,"Delta":159260021},{"NoteNumber":61,"Velocity":35,"Duration":414222,"SoundDuration":414222,"Delta":159260021},{"NoteNumber":75,"Velocity":64,"Duration":240000,"SoundDuration":240000,"Delta":159482244},{"NoteNumber":67,"Velocity":45,"Duration":469007,"SoundDuration":469007,"Delta":159722244},{"NoteNumber":76,"Velocity":75,"Duration":229007,"SoundDuration":229007,"Delta":159722244},{"NoteNumber":51,"Velocity":29,"Duration":421007,"SoundDuration":421007,"Delta":159722244},{"NoteNumber":58,"Velocity":29,"Duration":421007,"SoundDuration":421007,"Delta":159722244},{"NoteNumber":61,"Velocity":39,"Duration":421007,"SoundDuration":421007,"Delta":159722244},{"NoteNumber":73,"Velocity":69,"Duration":240000,"SoundDuration":240000,"Delta":159951251},{"NoteNumber":68,"Velocity":49,"Duration":898989,"SoundDuration":898989,"Delta":160191251},{"NoteNumber":71,"Velocity":49,"Duration":227272,"SoundDuration":227272,"Delta":160191251},{"NoteNumber":51,"Velocity":24,"Duration":898989,"SoundDuration":898989,"Delta":160191251},{"NoteNumber":59,"Velocity":24,"Duration":898989,"SoundDuration":898989,"Delta":160191251},{"NoteNumber":63,"Velocity":29,"Duration":898989,"SoundDuration":898989,"Delta":160191251},{"NoteNumber":73,"Velocity":46,"Duration":227272,"SoundDuration":227272,"Delta":160418524},{"NoteNumber":75,"Velocity":52,"Duration":222222,"SoundDuration":222222,"Delta":160645797},{"NoteNumber":73,"Velocity":45,"Duration":222222,"SoundDuration":222222,"Delta":160868019},{"NoteNumber":75,"Velocity":51,"Duration":222222,"SoundDuration":222222,"Delta":161090241},{"NoteNumber":71,"Velocity":48,"Duration":234375,"SoundDuration":234375,"Delta":161312464},{"NoteNumber":70,"Velocity":49,"Duration":227272,"SoundDuration":227272,"Delta":161546839},{"NoteNumber":61,"Velocity":41,"Duration":227272,"SoundDuration":227272,"Delta":161546839},{"NoteNumber":71,"Velocity":44,"Duration":227272,"SoundDuration":227272,"Delta":161774111},{"NoteNumber":63,"Velocity":34,"Duration":227272,"SoundDuration":227272,"Delta":161774111},{"NoteNumber":73,"Velocity":52,"Duration":222222,"SoundDuration":222222,"Delta":162001384},{"NoteNumber":64,"Velocity":41,"Duration":222222,"SoundDuration":222222,"Delta":162001384},{"NoteNumber":71,"Velocity":46,"Duration":222222,"SoundDuration":222222,"Delta":162223606},{"NoteNumber":63,"Velocity":36,"Duration":222222,"SoundDuration":222222,"Delta":162223606},{"NoteNumber":73,"Velocity":49,"Duration":222222,"SoundDuration":222222,"Delta":162445829},{"NoteNumber":64,"Velocity":41,"Duration":222222,"SoundDuration":222222,"Delta":162445829},{"NoteNumber":70,"Velocity":42,"Duration":232558,"SoundDuration":232558,"Delta":162668051},{"NoteNumber":61,"Velocity":37,"Duration":232558,"SoundDuration":232558,"Delta":162668051},{"NoteNumber":68,"Velocity":49,"Duration":225563,"SoundDuration":225563,"Delta":162900609},{"NoteNumber":59,"Velocity":41,"Duration":225563,"SoundDuration":225563,"Delta":162900609},{"NoteNumber":70,"Velocity":45,"Duration":225564,"SoundDuration":225564,"Delta":163126173},{"NoteNumber":61,"Velocity":38,"Duration":225564,"SoundDuration":225564,"Delta":163126173},{"NoteNumber":71,"Velocity":49,"Duration":222222,"SoundDuration":222222,"Delta":163351737},{"NoteNumber":75,"Velocity":60,"Duration":425925,"SoundDuration":425925,"Delta":163351737},{"NoteNumber":63,"Velocity":41,"Duration":222222,"SoundDuration":222222,"Delta":163351737},{"NoteNumber":70,"Velocity":45,"Duration":222222,"SoundDuration":222222,"Delta":163573959},{"NoteNumber":61,"Velocity":35,"Duration":222222,"SoundDuration":222222,"Delta":163573959},{"NoteNumber":71,"Velocity":49,"Duration":222222,"SoundDuration":222222,"Delta":163796182},{"NoteNumber":75,"Velocity":60,"Duration":456597,"SoundDuration":456597,"Delta":163796182},{"NoteNumber":63,"Velocity":41,"Duration":222222,"SoundDuration":222222,"Delta":163796182},{"NoteNumber":68,"Velocity":45,"Duration":234375,"SoundDuration":234375,"Delta":164018404},{"NoteNumber":59,"Velocity":35,"Duration":234375,"SoundDuration":234375,"Delta":164018404},{"NoteNumber":76,"Velocity":65,"Duration":898989,"SoundDuration":898989,"Delta":164252779},{"NoteNumber":67,"Velocity":44,"Duration":227272,"SoundDuration":227272,"Delta":164252779},{"NoteNumber":58,"Velocity":41,"Duration":227272,"SoundDuration":227272,"Delta":164252779},{"NoteNumber":68,"Velocity":41,"Duration":227272,"SoundDuration":227272,"Delta":164480052},{"NoteNumber":59,"Velocity":34,"Duration":227272,"SoundDuration":227272,"Delta":164480052},{"NoteNumber":70,"Velocity":46,"Duration":222222,"SoundDuration":222222,"Delta":164707324},{"NoteNumber":61,"Velocity":41,"Duration":222222,"SoundDuration":222222,"Delta":164707324},{"NoteNumber":68,"Velocity":40,"Duration":222222,"SoundDuration":222222,"Delta":164929547},{"NoteNumber":59,"Velocity":36,"Duration":222222,"SoundDuration":222222,"Delta":164929547},{"NoteNumber":70,"Velocity":45,"Duration":222222,"SoundDuration":222222,"Delta":165151769},{"NoteNumber":75,"Velocity":60,"Duration":456597,"SoundDuration":456597,"Delta":165151769},{"NoteNumber":61,"Velocity":41,"Duration":222222,"SoundDuration":222222,"Delta":165151769},{"NoteNumber":67,"Velocity":43,"Duration":234375,"SoundDuration":234375,"Delta":165373991},{"NoteNumber":58,"Velocity":37,"Duration":234375,"SoundDuration":234375,"Delta":165373991},{"NoteNumber":68,"Velocity":44,"Duration":227272,"SoundDuration":227272,"Delta":165608366},{"NoteNumber":59,"Velocity":41,"Duration":227272,"SoundDuration":227272,"Delta":165608366},{"NoteNumber":70,"Velocity":39,"Duration":227272,"SoundDuration":227272,"Delta":165835639},{"NoteNumber":61,"Velocity":34,"Duration":227272,"SoundDuration":227272,"Delta":165835639},{"NoteNumber":71,"Velocity":46,"Duration":222222,"SoundDuration":222222,"Delta":166062912},{"NoteNumber":63,"Velocity":41,"Duration":222222,"SoundDuration":222222,"Delta":166062912},{"NoteNumber":70,"Velocity":41,"Duration":222222,"SoundDuration":222222,"Delta":166285134},{"NoteNumber":61,"Velocity":36,"Duration":222222,"SoundDuration":222222,"Delta":166285134},{"NoteNumber":71,"Velocity":44,"Duration":222222,"SoundDuration":222222,"Delta":166507356},{"NoteNumber":63,"Velocity":41,"Duration":222222,"SoundDuration":222222,"Delta":166507356},{"NoteNumber":68,"Velocity":37,"Duration":232558,"SoundDuration":232558,"Delta":166729578},{"NoteNumber":59,"Velocity":37,"Duration":232558,"SoundDuration":232558,"Delta":166729578},{"NoteNumber":65,"Velocity":44,"Duration":225563,"SoundDuration":225563,"Delta":166962137},{"NoteNumber":56,"Velocity":41,"Duration":225563,"SoundDuration":225563,"Delta":166962137},{"NoteNumber":66,"Velocity":40,"Duration":225564,"SoundDuration":225564,"Delta":167187701},{"NoteNumber":58,"Velocity":38,"Duration":225564,"SoundDuration":225564,"Delta":167187701},{"NoteNumber":74,"Velocity":60,"Duration":425925,"SoundDuration":425925,"Delta":167413265},{"NoteNumber":68,"Velocity":44,"Duration":222222,"SoundDuration":222222,"Delta":167413265},{"NoteNumber":59,"Velocity":41,"Duration":222222,"SoundDuration":222222,"Delta":167413265},{"NoteNumber":66,"Velocity":40,"Duration":222222,"SoundDuration":222222,"Delta":167635487},{"NoteNumber":58,"Velocity":35,"Duration":222222,"SoundDuration":222222,"Delta":167635487},{"NoteNumber":74,"Velocity":60,"Duration":456597,"SoundDuration":456597,"Delta":167857709},{"NoteNumber":68,"Velocity":44,"Duration":222222,"SoundDuration":222222,"Delta":167857709},{"NoteNumber":59,"Velocity":41,"Duration":222222,"SoundDuration":222222,"Delta":167857709},{"NoteNumber":65,"Velocity":40,"Duration":234375,"SoundDuration":234375,"Delta":168079931},{"NoteNumber":56,"Velocity":35,"Duration":234375,"SoundDuration":234375,"Delta":168079931},{"NoteNumber":75,"Velocity":65,"Duration":898989,"SoundDuration":898989,"Delta":168314306},{"NoteNumber":63,"Velocity":44,"Duration":227272,"SoundDuration":227272,"Delta":168314306},{"NoteNumber":54,"Velocity":41,"Duration":227272,"SoundDuration":227272,"Delta":168314306},{"NoteNumber":65,"Velocity":41,"Duration":227272,"SoundDuration":227272,"Delta":168541579},{"NoteNumber":56,"Velocity":34,"Duration":227272,"SoundDuration":227272,"Delta":168541579},{"NoteNumber":66,"Velocity":46,"Duration":222222,"SoundDuration":222222,"Delta":168768852},{"NoteNumber":58,"Velocity":41,"Duration":222222,"SoundDuration":222222,"Delta":168768852},{"NoteNumber":65,"Velocity":40,"Duration":222222,"SoundDuration":222222,"Delta":168991074},{"NoteNumber":56,"Velocity":36,"Duration":222222,"SoundDuration":222222,"Delta":168991074},{"NoteNumber":70,"Velocity":60,"Duration":456597,"SoundDuration":456597,"Delta":169213296},{"NoteNumber":66,"Velocity":45,"Duration":222222,"SoundDuration":222222,"Delta":169213296},{"NoteNumber":58,"Velocity":41,"Duration":222222,"SoundDuration":222222,"Delta":169213296},{"NoteNumber":63,"Velocity":43,"Duration":234375,"SoundDuration":234375,"Delta":169435519},{"NoteNumber":54,"Velocity":37,"Duration":234375,"SoundDuration":234375,"Delta":169435519},{"NoteNumber":62,"Velocity":44,"Duration":227272,"SoundDuration":227272,"Delta":169669894},{"NoteNumber":53,"Velocity":41,"Duration":227272,"SoundDuration":227272,"Delta":169669894},{"NoteNumber":63,"Velocity":39,"Duration":227272,"SoundDuration":227272,"Delta":169897166},{"NoteNumber":54,"Velocity":34,"Duration":227272,"SoundDuration":227272,"Delta":169897166},{"NoteNumber":65,"Velocity":46,"Duration":222222,"SoundDuration":222222,"Delta":170124439},{"NoteNumber":56,"Velocity":41,"Duration":222222,"SoundDuration":222222,"Delta":170124439},{"NoteNumber":63,"Velocity":41,"Duration":222222,"SoundDuration":222222,"Delta":170346661},{"NoteNumber":54,"Velocity":36,"Duration":222222,"SoundDuration":222222,"Delta":170346661},{"NoteNumber":65,"Velocity":44,"Duration":222222,"SoundDuration":222222,"Delta":170568884},{"NoteNumber":56,"Velocity":41,"Duration":222222,"SoundDuration":222222,"Delta":170568884},{"NoteNumber":62,"Velocity":37,"Duration":232558,"SoundDuration":232558,"Delta":170791106},{"NoteNumber":53,"Velocity":37,"Duration":232558,"SoundDuration":232558,"Delta":170791106},{"NoteNumber":63,"Velocity":44,"Duration":225563,"SoundDuration":225563,"Delta":171023664},{"NoteNumber":54,"Velocity":41,"Duration":225563,"SoundDuration":225563,"Delta":171023664},{"NoteNumber":65,"Velocity":40,"Duration":225564,"SoundDuration":225564,"Delta":171249228},{"NoteNumber":56,"Velocity":38,"Duration":225564,"SoundDuration":225564,"Delta":171249228},{"NoteNumber":66,"Velocity":44,"Duration":222222,"SoundDuration":222222,"Delta":171474792},{"NoteNumber":70,"Velocity":60,"Duration":425925,"SoundDuration":425925,"Delta":171474792},{"NoteNumber":58,"Velocity":41,"Duration":222222,"SoundDuration":222222,"Delta":171474792},{"NoteNumber":65,"Velocity":40,"Duration":222222,"SoundDuration":222222,"Delta":171697014},{"NoteNumber":56,"Velocity":35,"Duration":222222,"SoundDuration":222222,"Delta":171697014},{"NoteNumber":70,"Velocity":60,"Duration":456597,"SoundDuration":456597,"Delta":171919237},{"NoteNumber":66,"Velocity":44,"Duration":222222,"SoundDuration":222222,"Delta":171919237},{"NoteNumber":58,"Velocity":41,"Duration":222222,"SoundDuration":222222,"Delta":171919237},{"NoteNumber":63,"Velocity":40,"Duration":234375,"SoundDuration":234375,"Delta":172141459},{"NoteNumber":54,"Velocity":35,"Duration":234375,"SoundDuration":234375,"Delta":172141459},{"NoteNumber":71,"Velocity":65,"Duration":898989,"SoundDuration":898989,"Delta":172375834},{"NoteNumber":65,"Velocity":44,"Duration":227272,"SoundDuration":227272,"Delta":172375834},{"NoteNumber":50,"Velocity":41,"Duration":227272,"SoundDuration":227272,"Delta":172375834},{"NoteNumber":66,"Velocity":41,"Duration":227272,"SoundDuration":227272,"Delta":172603107},{"NoteNumber":51,"Velocity":34,"Duration":227272,"SoundDuration":227272,"Delta":172603107},{"NoteNumber":68,"Velocity":46,"Duration":222222,"SoundDuration":222222,"Delta":172830379},{"NoteNumber":53,"Velocity":41,"Duration":222222,"SoundDuration":222222,"Delta":172830379},{"NoteNumber":66,"Velocity":40,"Duration":222222,"SoundDuration":222222,"Delta":173052602},{"NoteNumber":51,"Velocity":36,"Duration":222222,"SoundDuration":222222,"Delta":173052602},{"NoteNumber":70,"Velocity":60,"Duration":456597,"SoundDuration":456597,"Delta":173274824},{"NoteNumber":68,"Velocity":45,"Duration":222222,"SoundDuration":222222,"Delta":173274824},{"NoteNumber":53,"Velocity":41,"Duration":222222,"SoundDuration":222222,"Delta":173274824},{"NoteNumber":65,"Velocity":43,"Duration":234375,"SoundDuration":234375,"Delta":173497046},{"NoteNumber":50,"Velocity":37,"Duration":234375,"SoundDuration":234375,"Delta":173497046},{"NoteNumber":66,"Velocity":44,"Duration":227272,"SoundDuration":227272,"Delta":173731421},{"NoteNumber":51,"Velocity":41,"Duration":227272,"SoundDuration":227272,"Delta":173731421},{"NoteNumber":68,"Velocity":39,"Duration":227272,"SoundDuration":227272,"Delta":173958694},{"NoteNumber":53,"Velocity":34,"Duration":227272,"SoundDuration":227272,"Delta":173958694},{"NoteNumber":70,"Velocity":46,"Duration":222222,"SoundDuration":222222,"Delta":174185967},{"NoteNumber":54,"Velocity":41,"Duration":222222,"SoundDuration":222222,"Delta":174185967},{"NoteNumber":68,"Velocity":41,"Duration":222222,"SoundDuration":222222,"Delta":174408189},{"NoteNumber":53,"Velocity":36,"Duration":222222,"SoundDuration":222222,"Delta":174408189},{"NoteNumber":70,"Velocity":44,"Duration":222222,"SoundDuration":222222,"Delta":174630411},{"NoteNumber":54,"Velocity":41,"Duration":222222,"SoundDuration":222222,"Delta":174630411},{"NoteNumber":66,"Velocity":37,"Duration":232558,"SoundDuration":232558,"Delta":174852633},{"NoteNumber":51,"Velocity":37,"Duration":232558,"SoundDuration":232558,"Delta":174852633},{"NoteNumber":63,"Velocity":44,"Duration":225563,"SoundDuration":225563,"Delta":175085192},{"NoteNumber":48,"Velocity":41,"Duration":225563,"SoundDuration":225563,"Delta":175085192},{"NoteNumber":65,"Velocity":40,"Duration":225564,"SoundDuration":225564,"Delta":175310756},{"NoteNumber":50,"Velocity":38,"Duration":225564,"SoundDuration":225564,"Delta":175310756},{"NoteNumber":66,"Velocity":44,"Duration":222222,"SoundDuration":222222,"Delta":175536320},{"NoteNumber":69,"Velocity":60,"Duration":425925,"SoundDuration":425925,"Delta":175536320},{"NoteNumber":51,"Velocity":41,"Duration":222222,"SoundDuration":222222,"Delta":175536320},{"NoteNumber":65,"Velocity":40,"Duration":222222,"SoundDuration":222222,"Delta":175758542},{"NoteNumber":50,"Velocity":35,"Duration":222222,"SoundDuration":222222,"Delta":175758542},{"NoteNumber":66,"Velocity":44,"Duration":222222,"SoundDuration":222222,"Delta":175980764},{"NoteNumber":69,"Velocity":60,"Duration":456597,"SoundDuration":456597,"Delta":175980764},{"NoteNumber":51,"Velocity":41,"Duration":222222,"SoundDuration":222222,"Delta":175980764},{"NoteNumber":63,"Velocity":40,"Duration":234375,"SoundDuration":234375,"Delta":176202986},{"NoteNumber":47,"Velocity":35,"Duration":234375,"SoundDuration":234375,"Delta":176202986},{"NoteNumber":70,"Velocity":65,"Duration":3160485,"SoundDuration":3160485,"Delta":176437361},{"NoteNumber":62,"Velocity":44,"Duration":227272,"SoundDuration":227272,"Delta":176437361},{"NoteNumber":46,"Velocity":41,"Duration":1121212,"SoundDuration":1121212,"Delta":176437361},{"NoteNumber":63,"Velocity":41,"Duration":227272,"SoundDuration":227272,"Delta":176664634},{"NoteNumber":48,"Velocity":34,"Duration":227272,"SoundDuration":227272,"Delta":176664634},{"NoteNumber":65,"Velocity":46,"Duration":222222,"SoundDuration":222222,"Delta":176891907},{"NoteNumber":50,"Velocity":41,"Duration":222222,"SoundDuration":222222,"Delta":176891907},{"NoteNumber":63,"Velocity":40,"Duration":222222,"SoundDuration":222222,"Delta":177114129},{"NoteNumber":48,"Velocity":36,"Duration":222222,"SoundDuration":222222,"Delta":177114129},{"NoteNumber":62,"Velocity":45,"Duration":222222,"SoundDuration":222222,"Delta":177336351},{"NoteNumber":46,"Velocity":41,"Duration":2242698,"SoundDuration":2242698,"Delta":177336351},{"NoteNumber":63,"Velocity":43,"Duration":234375,"SoundDuration":234375,"Delta":177558574},{"NoteNumber":48,"Velocity":37,"Duration":234375,"SoundDuration":234375,"Delta":177558574},{"NoteNumber":65,"Velocity":44,"Duration":227272,"SoundDuration":227272,"Delta":177792949},{"NoteNumber":50,"Velocity":41,"Duration":227272,"SoundDuration":227272,"Delta":177792949},{"NoteNumber":66,"Velocity":39,"Duration":227272,"SoundDuration":227272,"Delta":178020221},{"NoteNumber":51,"Velocity":34,"Duration":227272,"SoundDuration":227272,"Delta":178020221},{"NoteNumber":68,"Velocity":46,"Duration":222222,"SoundDuration":222222,"Delta":178247494},{"NoteNumber":53,"Velocity":41,"Duration":222222,"SoundDuration":222222,"Delta":178247494},{"NoteNumber":66,"Velocity":41,"Duration":222222,"SoundDuration":222222,"Delta":178469716},{"NoteNumber":51,"Velocity":36,"Duration":222222,"SoundDuration":222222,"Delta":178469716},{"NoteNumber":65,"Velocity":44,"Duration":222222,"SoundDuration":222222,"Delta":178691939},{"NoteNumber":50,"Velocity":41,"Duration":222222,"SoundDuration":222222,"Delta":178691939},{"NoteNumber":68,"Velocity":37,"Duration":232558,"SoundDuration":232558,"Delta":178914161},{"NoteNumber":53,"Velocity":37,"Duration":232558,"SoundDuration":232558,"Delta":178914161},{"NoteNumber":66,"Velocity":44,"Duration":225563,"SoundDuration":225563,"Delta":179146719},{"NoteNumber":51,"Velocity":41,"Duration":225563,"SoundDuration":225563,"Delta":179146719},{"NoteNumber":65,"Velocity":40,"Duration":225564,"SoundDuration":225564,"Delta":179372283},{"NoteNumber":50,"Velocity":38,"Duration":225564,"SoundDuration":225564,"Delta":179372283},{"NoteNumber":69,"Velocity":60,"Duration":425925,"SoundDuration":425925,"Delta":179597847},{"NoteNumber":63,"Velocity":44,"Duration":222222,"SoundDuration":222222,"Delta":179597847},{"NoteNumber":46,"Velocity":39,"Duration":425925,"SoundDuration":425925,"Delta":179597847},{"NoteNumber":48,"Velocity":41,"Duration":222222,"SoundDuration":222222,"Delta":179597847},{"NoteNumber":65,"Velocity":40,"Duration":222222,"SoundDuration":222222,"Delta":179820069},{"NoteNumber":50,"Velocity":35,"Duration":222222,"SoundDuration":222222,"Delta":179820069},{"NoteNumber":69,"Velocity":60,"Duration":456597,"SoundDuration":456597,"Delta":180042292},{"NoteNumber":66,"Velocity":44,"Duration":222222,"SoundDuration":222222,"Delta":180042292},{"NoteNumber":46,"Velocity":39,"Duration":437065,"SoundDuration":437065,"Delta":180042292},{"NoteNumber":51,"Velocity":41,"Duration":222222,"SoundDuration":222222,"Delta":180042292},{"NoteNumber":63,"Velocity":40,"Duration":234375,"SoundDuration":234375,"Delta":180264514},{"NoteNumber":48,"Velocity":35,"Duration":234375,"SoundDuration":234375,"Delta":180264514},{"NoteNumber":58,"Velocity":44,"Duration":227272,"SoundDuration":227272,"Delta":180498889},{"NoteNumber":70,"Velocity":65,"Duration":3160485,"SoundDuration":3160485,"Delta":180498889},{"NoteNumber":50,"Velocity":41,"Duration":227272,"SoundDuration":227272,"Delta":180498889},{"NoteNumber":46,"Velocity":41,"Duration":3141688,"SoundDuration":3141688,"Delta":180498889},{"NoteNumber":60,"Velocity":41,"Duration":227272,"SoundDuration":227272,"Delta":180726162},{"NoteNumber":51,"Velocity":34,"Duration":227272,"SoundDuration":227272,"Delta":180726162},{"NoteNumber":62,"Velocity":46,"Duration":222222,"SoundDuration":222222,"Delta":180953434},{"NoteNumber":53,"Velocity":41,"Duration":222222,"SoundDuration":222222,"Delta":180953434},{"NoteNumber":60,"Velocity":40,"Duration":222222,"SoundDuration":222222,"Delta":181175657},{"NoteNumber":51,"Velocity":36,"Duration":222222,"SoundDuration":222222,"Delta":181175657},{"NoteNumber":58,"Velocity":45,"Duration":222222,"SoundDuration":222222,"Delta":181397879},{"NoteNumber":50,"Velocity":41,"Duration":222222,"SoundDuration":222222,"Delta":181397879},{"NoteNumber":60,"Velocity":43,"Duration":234375,"SoundDuration":234375,"Delta":181620101},{"NoteNumber":51,"Velocity":37,"Duration":234375,"SoundDuration":234375,"Delta":181620101},{"NoteNumber":62,"Velocity":44,"Duration":227272,"SoundDuration":227272,"Delta":181854476},{"NoteNumber":53,"Velocity":41,"Duration":227272,"SoundDuration":227272,"Delta":181854476},{"NoteNumber":63,"Velocity":39,"Duration":227272,"SoundDuration":227272,"Delta":182081749},{"NoteNumber":54,"Velocity":34,"Duration":227272,"SoundDuration":227272,"Delta":182081749},{"NoteNumber":65,"Velocity":46,"Duration":222222,"SoundDuration":222222,"Delta":182309022},{"NoteNumber":56,"Velocity":41,"Duration":222222,"SoundDuration":222222,"Delta":182309022},{"NoteNumber":63,"Velocity":41,"Duration":222222,"SoundDuration":222222,"Delta":182531244},{"NoteNumber":54,"Velocity":36,"Duration":222222,"SoundDuration":222222,"Delta":182531244},{"NoteNumber":62,"Velocity":44,"Duration":222222,"SoundDuration":222222,"Delta":182753466},{"NoteNumber":53,"Velocity":41,"Duration":222222,"SoundDuration":222222,"Delta":182753466},{"NoteNumber":65,"Velocity":37,"Duration":232558,"SoundDuration":232558,"Delta":182975688},{"NoteNumber":56,"Velocity":37,"Duration":232558,"SoundDuration":232558,"Delta":182975688},{"NoteNumber":63,"Velocity":44,"Duration":225563,"SoundDuration":225563,"Delta":183208247},{"NoteNumber":54,"Velocity":41,"Duration":225563,"SoundDuration":225563,"Delta":183208247},{"NoteNumber":62,"Velocity":40,"Duration":225564,"SoundDuration":225564,"Delta":183433811},{"NoteNumber":53,"Velocity":38,"Duration":225564,"SoundDuration":225564,"Delta":183433811},{"NoteNumber":69,"Velocity":60,"Duration":425925,"SoundDuration":425925,"Delta":183659375},{"NoteNumber":60,"Velocity":44,"Duration":222222,"SoundDuration":222222,"Delta":183659375},{"NoteNumber":46,"Velocity":39,"Duration":425925,"SoundDuration":425925,"Delta":183659375},{"NoteNumber":51,"Velocity":41,"Duration":222222,"SoundDuration":222222,"Delta":183659375},{"NoteNumber":62,"Velocity":40,"Duration":222222,"SoundDuration":222222,"Delta":183881597},{"NoteNumber":53,"Velocity":35,"Duration":222222,"SoundDuration":222222,"Delta":183881597},{"NoteNumber":63,"Velocity":44,"Duration":222222,"SoundDuration":222222,"Delta":184103819},{"NoteNumber":69,"Velocity":60,"Duration":456597,"SoundDuration":456597,"Delta":184103819},{"NoteNumber":46,"Velocity":39,"Duration":437065,"SoundDuration":437065,"Delta":184103819},{"NoteNumber":54,"Velocity":41,"Duration":222222,"SoundDuration":222222,"Delta":184103819},{"NoteNumber":60,"Velocity":40,"Duration":234375,"SoundDuration":234375,"Delta":184326041},{"NoteNumber":51,"Velocity":35,"Duration":234375,"SoundDuration":234375,"Delta":184326041},{"NoteNumber":58,"Velocity":44,"Duration":230769,"SoundDuration":230769,"Delta":184560416},{"NoteNumber":46,"Velocity":39,"Duration":923077,"SoundDuration":923077,"Delta":184560416},{"NoteNumber":50,"Velocity":39,"Duration":923077,"SoundDuration":923077,"Delta":184560416},{"NoteNumber":53,"Velocity":39,"Duration":923077,"SoundDuration":923077,"Delta":184560416},{"NoteNumber":60,"Velocity":37,"Duration":230769,"SoundDuration":230769,"Delta":184791186},{"NoteNumber":62,"Velocity":44,"Duration":230769,"SoundDuration":230769,"Delta":185021955},{"NoteNumber":61,"Velocity":38,"Duration":230769,"SoundDuration":230769,"Delta":185252724},{"NoteNumber":62,"Velocity":41,"Duration":230769,"SoundDuration":230769,"Delta":185483493},{"NoteNumber":58,"Velocity":34,"Duration":238095,"SoundDuration":238095,"Delta":185714263},{"NoteNumber":62,"Velocity":44,"Duration":253846,"SoundDuration":253846,"Delta":185952358},{"NoteNumber":64,"Velocity":39,"Duration":253846,"SoundDuration":253846,"Delta":186183127},{"NoteNumber":65,"Velocity":40,"Duration":253846,"SoundDuration":253846,"Delta":186413896},{"NoteNumber":64,"Velocity":33,"Duration":253846,"SoundDuration":253846,"Delta":186644666},{"NoteNumber":65,"Velocity":39,"Duration":254391,"SoundDuration":254391,"Delta":186875435},{"NoteNumber":62,"Velocity":34,"Duration":259121,"SoundDuration":259121,"Delta":187106204},{"NoteNumber":65,"Velocity":47,"Duration":251908,"SoundDuration":251908,"Delta":187342425},{"NoteNumber":67,"Velocity":43,"Duration":251908,"SoundDuration":251908,"Delta":187571432},{"NoteNumber":68,"Velocity":50,"Duration":251908,"SoundDuration":251908,"Delta":187800440},{"NoteNumber":67,"Velocity":42,"Duration":251908,"SoundDuration":251908,"Delta":188029448},{"NoteNumber":68,"Velocity":53,"Duration":253801,"SoundDuration":253801,"Delta":188258456},{"NoteNumber":65,"Velocity":37,"Duration":270490,"SoundDuration":270490,"Delta":188487463},{"NoteNumber":68,"Velocity":41,"Duration":248120,"SoundDuration":248120,"Delta":188735397},{"NoteNumber":71,"Velocity":36,"Duration":248120,"SoundDuration":248120,"Delta":188960961},{"NoteNumber":72,"Velocity":41,"Duration":249186,"SoundDuration":249186,"Delta":189186525},{"NoteNumber":71,"Velocity":37,"Duration":258776,"SoundDuration":258776,"Delta":189412089},{"NoteNumber":74,"Velocity":41,"Duration":248120,"SoundDuration":248120,"Delta":189648310},{"NoteNumber":72,"Velocity":36,"Duration":248120,"SoundDuration":248120,"Delta":189873874},{"NoteNumber":70,"Velocity":41,"Duration":248120,"SoundDuration":248120,"Delta":190099438},{"NoteNumber":68,"Velocity":36,"Duration":248120,"SoundDuration":248120,"Delta":190325002},{"NoteNumber":67,"Velocity":41,"Duration":248120,"SoundDuration":248120,"Delta":190550566},{"NoteNumber":65,"Velocity":35,"Duration":248120,"SoundDuration":248120,"Delta":190776130},{"NoteNumber":64,"Velocity":35,"Duration":248819,"SoundDuration":248819,"Delta":191001694},{"NoteNumber":65,"Velocity":29,"Duration":255285,"SoundDuration":255285,"Delta":191227258},{"NoteNumber":67,"Velocity":41,"Duration":250710,"SoundDuration":250710,"Delta":191459816},{"NoteNumber":65,"Velocity":36,"Duration":257451,"SoundDuration":257451,"Delta":191687089},{"NoteNumber":68,"Velocity":41,"Duration":253846,"SoundDuration":253846,"Delta":191921464},{"NoteNumber":65,"Velocity":32,"Duration":254206,"SoundDuration":254206,"Delta":192152233},{"NoteNumber":60,"Velocity":38,"Duration":259798,"SoundDuration":259798,"Delta":192383002},{"NoteNumber":62,"Velocity":32,"Duration":254237,"SoundDuration":254237,"Delta":192617377},{"NoteNumber":63,"Velocity":38,"Duration":921659,"SoundDuration":921659,"Delta":192871615},{"NoteNumber":39,"Velocity":25,"Duration":414746,"SoundDuration":414746,"Delta":192871615},{"NoteNumber":58,"Velocity":20,"Duration":414746,"SoundDuration":414746,"Delta":193332444},{"NoteNumber":55,"Velocity":17,"Duration":414746,"SoundDuration":414746,"Delta":193332444},{"NoteNumber":51,"Velocity":17,"Duration":414746,"SoundDuration":414746,"Delta":193332444},{"NoteNumber":51,"Velocity":17,"Duration":414746,"SoundDuration":414746,"Delta":193793274},{"NoteNumber":55,"Velocity":17,"Duration":414746,"SoundDuration":414746,"Delta":193793274},{"NoteNumber":58,"Velocity":20,"Duration":414746,"SoundDuration":414746,"Delta":193793274},{"NoteNumber":51,"Velocity":19,"Duration":414746,"SoundDuration":414746,"Delta":194254103},{"NoteNumber":55,"Velocity":19,"Duration":414746,"SoundDuration":414746,"Delta":194254103},{"NoteNumber":58,"Velocity":23,"Duration":414746,"SoundDuration":414746,"Delta":194254103},{"NoteNumber":55,"Velocity":17,"Duration":414746,"SoundDuration":414746,"Delta":194714933},{"NoteNumber":51,"Velocity":17,"Duration":414746,"SoundDuration":414746,"Delta":194714933},{"NoteNumber":58,"Velocity":20,"Duration":414746,"SoundDuration":414746,"Delta":194714933},{"NoteNumber":51,"Velocity":17,"Duration":414746,"SoundDuration":414746,"Delta":195175762},{"NoteNumber":55,"Velocity":17,"Duration":414746,"SoundDuration":414746,"Delta":195175762},{"NoteNumber":58,"Velocity":20,"Duration":414746,"SoundDuration":414746,"Delta":195175762},{"NoteNumber":67,"Velocity":38,"Duration":345622,"SoundDuration":345622,"Delta":195636592},{"NoteNumber":58,"Velocity":24,"Duration":414746,"SoundDuration":414746,"Delta":195636592},{"NoteNumber":55,"Velocity":20,"Duration":414746,"SoundDuration":414746,"Delta":195636592},{"NoteNumber":51,"Velocity":20,"Duration":414746,"SoundDuration":414746,"Delta":195636592},{"NoteNumber":68,"Velocity":36,"Duration":115207,"SoundDuration":115207,"Delta":195982214},{"NoteNumber":67,"Velocity":39,"Duration":230414,"SoundDuration":230414,"Delta":196097421},{"NoteNumber":51,"Velocity":17,"Duration":414746,"SoundDuration":414746,"Delta":196097421},{"NoteNumber":55,"Velocity":17,"Duration":414746,"SoundDuration":414746,"Delta":196097421},{"NoteNumber":58,"Velocity":21,"Duration":414746,"SoundDuration":414746,"Delta":196097421},{"NoteNumber":65,"Velocity":36,"Duration":230414,"SoundDuration":230414,"Delta":196327836},{"NoteNumber":67,"Velocity":40,"Duration":230414,"SoundDuration":230414,"Delta":196558251},{"NoteNumber":51,"Velocity":17,"Duration":430081,"SoundDuration":430081,"Delta":196558251},{"NoteNumber":55,"Velocity":17,"Duration":430081,"SoundDuration":430081,"Delta":196558251},{"NoteNumber":58,"Velocity":21,"Duration":430081,"SoundDuration":430081,"Delta":196558251},{"NoteNumber":68,"Velocity":36,"Duration":249583,"SoundDuration":249583,"Delta":196788665},{"NoteNumber":69,"Velocity":44,"Duration":1371950,"SoundDuration":1371950,"Delta":197038249},{"NoteNumber":55,"Velocity":21,"Duration":411585,"SoundDuration":411585,"Delta":197038249},{"NoteNumber":51,"Velocity":21,"Duration":411585,"SoundDuration":411585,"Delta":197038249},{"NoteNumber":58,"Velocity":25,"Duration":411585,"SoundDuration":411585,"Delta":197038249},{"NoteNumber":51,"Velocity":17,"Duration":411585,"SoundDuration":411585,"Delta":197495566},{"NoteNumber":55,"Velocity":17,"Duration":411585,"SoundDuration":411585,"Delta":197495566},{"NoteNumber":58,"Velocity":20,"Duration":411585,"SoundDuration":411585,"Delta":197495566},{"NoteNumber":58,"Velocity":20,"Duration":411585,"SoundDuration":411585,"Delta":197952883},{"NoteNumber":55,"Velocity":17,"Duration":411585,"SoundDuration":411585,"Delta":197952883},{"NoteNumber":51,"Velocity":17,"Duration":411585,"SoundDuration":411585,"Delta":197952883},{"NoteNumber":70,"Velocity":51,"Duration":1714938,"SoundDuration":1714938,"Delta":198410200},{"NoteNumber":51,"Velocity":19,"Duration":411585,"SoundDuration":411585,"Delta":198410200},{"NoteNumber":55,"Velocity":19,"Duration":411585,"SoundDuration":411585,"Delta":198410200},{"NoteNumber":58,"Velocity":23,"Duration":411585,"SoundDuration":411585,"Delta":198410200},{"NoteNumber":51,"Velocity":17,"Duration":411585,"SoundDuration":411585,"Delta":198867517},{"NoteNumber":55,"Velocity":17,"Duration":411585,"SoundDuration":411585,"Delta":198867517},{"NoteNumber":58,"Velocity":20,"Duration":411585,"SoundDuration":411585,"Delta":198867517},{"NoteNumber":55,"Velocity":17,"Duration":411585,"SoundDuration":411585,"Delta":199324834},{"NoteNumber":51,"Velocity":17,"Duration":411585,"SoundDuration":411585,"Delta":199324834},{"NoteNumber":58,"Velocity":20,"Duration":411585,"SoundDuration":411585,"Delta":199324834},{"NoteNumber":51,"Velocity":20,"Duration":411585,"SoundDuration":411585,"Delta":199782151},{"NoteNumber":55,"Velocity":20,"Duration":411585,"SoundDuration":411585,"Delta":199782151},{"NoteNumber":58,"Velocity":24,"Duration":411585,"SoundDuration":411585,"Delta":199782151},{"NoteNumber":72,"Velocity":39,"Duration":114329,"SoundDuration":114329,"Delta":200125139},{"NoteNumber":70,"Velocity":49,"Duration":221893,"SoundDuration":221893,"Delta":200239468},{"NoteNumber":58,"Velocity":21,"Duration":399408,"SoundDuration":399408,"Delta":200239468},{"NoteNumber":55,"Velocity":17,"Duration":399408,"SoundDuration":399408,"Delta":200239468},{"NoteNumber":51,"Velocity":17,"Duration":399408,"SoundDuration":399408,"Delta":200239468},{"NoteNumber":69,"Velocity":42,"Duration":221893,"SoundDuration":221893,"Delta":200461362},{"NoteNumber":70,"Velocity":51,"Duration":221893,"SoundDuration":221893,"Delta":200683255},{"NoteNumber":51,"Velocity":17,"Duration":418292,"SoundDuration":418292,"Delta":200683255},{"NoteNumber":55,"Velocity":17,"Duration":418292,"SoundDuration":418292,"Delta":200683255},{"NoteNumber":58,"Velocity":21,"Duration":418292,"SoundDuration":418292,"Delta":200683255},{"NoteNumber":71,"Velocity":46,"Duration":245499,"SoundDuration":245499,"Delta":200905149},{"NoteNumber":71,"Velocity":50,"Duration":790919,"SoundDuration":790919,"Delta":201150648},{"NoteNumber":50,"Velocity":21,"Duration":408472,"SoundDuration":408472,"Delta":201150648},{"NoteNumber":56,"Velocity":21,"Duration":408472,"SoundDuration":408472,"Delta":201150648},{"NoteNumber":58,"Velocity":25,"Duration":408472,"SoundDuration":408472,"Delta":201150648},{"NoteNumber":56,"Velocity":17,"Duration":403140,"SoundDuration":403140,"Delta":201604506},{"NoteNumber":50,"Velocity":17,"Duration":403140,"SoundDuration":403140,"Delta":201604506},{"NoteNumber":58,"Velocity":20,"Duration":403140,"SoundDuration":403140,"Delta":201604506},{"NoteNumber":72,"Velocity":39,"Duration":55066,"SoundDuration":55066,"Delta":201831435},{"NoteNumber":71,"Velocity":33,"Duration":55066,"SoundDuration":55066,"Delta":201886501},{"NoteNumber":69,"Velocity":41,"Duration":55066,"SoundDuration":55066,"Delta":201941567},{"NoteNumber":71,"Velocity":37,"Duration":55066,"SoundDuration":55066,"Delta":201996633},{"NoteNumber":74,"Velocity":53,"Duration":330396,"SoundDuration":330396,"Delta":202051699},{"NoteNumber":50,"Velocity":17,"Duration":396475,"SoundDuration":396475,"Delta":202051699},{"NoteNumber":56,"Velocity":17,"Duration":396475,"SoundDuration":396475,"Delta":202051699},{"NoteNumber":58,"Velocity":20,"Duration":396475,"SoundDuration":396475,"Delta":202051699},{"NoteNumber":72,"Velocity":44,"Duration":110132,"SoundDuration":110132,"Delta":202382096},{"NoteNumber":65,"Velocity":55,"Duration":1714938,"SoundDuration":1714938,"Delta":202492228},{"NoteNumber":58,"Velocity":23,"Duration":411585,"SoundDuration":411585,"Delta":202492228},{"NoteNumber":56,"Velocity":19,"Duration":411585,"SoundDuration":411585,"Delta":202492228},{"NoteNumber":50,"Velocity":19,"Duration":411585,"SoundDuration":411585,"Delta":202492228},{"NoteNumber":50,"Velocity":17,"Duration":411585,"SoundDuration":411585,"Delta":202949545},{"NoteNumber":56,"Velocity":17,"Duration":411585,"SoundDuration":411585,"Delta":202949545},{"NoteNumber":58,"Velocity":20,"Duration":411585,"SoundDuration":411585,"Delta":202949545},{"NoteNumber":50,"Velocity":17,"Duration":411585,"SoundDuration":411585,"Delta":203406862},{"NoteNumber":56,"Velocity":17,"Duration":411585,"SoundDuration":411585,"Delta":203406862},{"NoteNumber":58,"Velocity":20,"Duration":411585,"SoundDuration":411585,"Delta":203406862},{"NoteNumber":56,"Velocity":20,"Duration":411585,"SoundDuration":411585,"Delta":203864179},{"NoteNumber":50,"Velocity":20,"Duration":411585,"SoundDuration":411585,"Delta":203864179},{"NoteNumber":58,"Velocity":24,"Duration":411585,"SoundDuration":411585,"Delta":203864179},{"NoteNumber":67,"Velocity":39,"Duration":114329,"SoundDuration":114329,"Delta":204207167},{"NoteNumber":65,"Velocity":46,"Duration":228658,"SoundDuration":228658,"Delta":204321496},{"NoteNumber":50,"Velocity":17,"Duration":411585,"SoundDuration":411585,"Delta":204321496},{"NoteNumber":56,"Velocity":17,"Duration":411585,"SoundDuration":411585,"Delta":204321496},{"NoteNumber":58,"Velocity":21,"Duration":411585,"SoundDuration":411585,"Delta":204321496},{"NoteNumber":64,"Velocity":42,"Duration":228658,"SoundDuration":228658,"Delta":204550154},{"NoteNumber":65,"Velocity":49,"Duration":228658,"SoundDuration":228658,"Delta":204778813},{"NoteNumber":58,"Velocity":21,"Duration":421895,"SoundDuration":421895,"Delta":204778813},{"NoteNumber":56,"Velocity":17,"Duration":421895,"SoundDuration":421895,"Delta":204778813},{"NoteNumber":50,"Velocity":17,"Duration":421895,"SoundDuration":421895,"Delta":204778813},{"NoteNumber":67,"Velocity":46,"Duration":241545,"SoundDuration":241545,"Delta":205007471},{"NoteNumber":68,"Velocity":55,"Duration":1475038,"SoundDuration":1475038,"Delta":205249017},{"NoteNumber":53,"Velocity":21,"Duration":408472,"SoundDuration":408472,"Delta":205249017},{"NoteNumber":50,"Velocity":21,"Duration":408472,"SoundDuration":408472,"Delta":205249017},{"NoteNumber":56,"Velocity":21,"Duration":408472,"SoundDuration":408472,"Delta":205249017},{"NoteNumber":58,"Velocity":25,"Duration":408472,"SoundDuration":408472,"Delta":205249017},{"NoteNumber":58,"Velocity":20,"Duration":408472,"SoundDuration":408472,"Delta":205702875},{"NoteNumber":53,"Velocity":17,"Duration":408472,"SoundDuration":408472,"Delta":205702875},{"NoteNumber":50,"Velocity":17,"Duration":408472,"SoundDuration":408472,"Delta":205702875},{"NoteNumber":56,"Velocity":17,"Duration":408472,"SoundDuration":408472,"Delta":205702875},{"NoteNumber":53,"Velocity":17,"Duration":408472,"SoundDuration":408472,"Delta":206156733},{"NoteNumber":50,"Velocity":17,"Duration":408472,"SoundDuration":408472,"Delta":206156733},{"NoteNumber":56,"Velocity":17,"Duration":408472,"SoundDuration":408472,"Delta":206156733},{"NoteNumber":58,"Velocity":20,"Duration":408472,"SoundDuration":408472,"Delta":206156733},{"NoteNumber":56,"Velocity":20,"Duration":408472,"SoundDuration":408472,"Delta":206610591},{"NoteNumber":58,"Velocity":25,"Duration":408472,"SoundDuration":408472,"Delta":206610591},{"NoteNumber":53,"Velocity":20,"Duration":408472,"SoundDuration":408472,"Delta":206610591},{"NoteNumber":50,"Velocity":20,"Duration":408472,"SoundDuration":408472,"Delta":206610591},{"NoteNumber":67,"Velocity":47,"Duration":113464,"SoundDuration":113464,"Delta":206724056},{"NoteNumber":65,"Velocity":48,"Duration":113464,"SoundDuration":113464,"Delta":206837520},{"NoteNumber":64,"Velocity":48,"Duration":113464,"SoundDuration":113464,"Delta":206950985},{"NoteNumber":65,"Velocity":49,"Duration":113464,"SoundDuration":113464,"Delta":207064449},{"NoteNumber":53,"Velocity":19,"Duration":408472,"SoundDuration":408472,"Delta":207064449},{"NoteNumber":50,"Velocity":19,"Duration":408472,"SoundDuration":408472,"Delta":207064449},{"NoteNumber":56,"Velocity":19,"Duration":408472,"SoundDuration":408472,"Delta":207064449},{"NoteNumber":58,"Velocity":23,"Duration":408472,"SoundDuration":408472,"Delta":207064449},{"NoteNumber":67,"Velocity":50,"Duration":113464,"SoundDuration":113464,"Delta":207177914},{"NoteNumber":68,"Velocity":50,"Duration":113464,"SoundDuration":113464,"Delta":207291378},{"NoteNumber":70,"Velocity":51,"Duration":113464,"SoundDuration":113464,"Delta":207404843},{"NoteNumber":72,"Velocity":52,"Duration":113464,"SoundDuration":113464,"Delta":207518307},{"NoteNumber":56,"Velocity":20,"Duration":405766,"SoundDuration":405766,"Delta":207518307},{"NoteNumber":53,"Velocity":20,"Duration":405766,"SoundDuration":405766,"Delta":207518307},{"NoteNumber":50,"Velocity":20,"Duration":405766,"SoundDuration":405766,"Delta":207518307},{"NoteNumber":58,"Velocity":24,"Duration":405766,"SoundDuration":405766,"Delta":207518307},{"NoteNumber":74,"Velocity":51,"Duration":113464,"SoundDuration":113464,"Delta":207631772},{"NoteNumber":75,"Velocity":53,"Duration":111773,"SoundDuration":111773,"Delta":207745236},{"NoteNumber":76,"Velocity":54,"Duration":111773,"SoundDuration":111773,"Delta":207857010},{"NoteNumber":77,"Velocity":56,"Duration":111773,"SoundDuration":111773,"Delta":207968783},{"NoteNumber":53,"Velocity":25,"Duration":402384,"SoundDuration":402384,"Delta":207968783},{"NoteNumber":50,"Velocity":25,"Duration":402384,"SoundDuration":402384,"Delta":207968783},{"NoteNumber":58,"Velocity":30,"Duration":402384,"SoundDuration":402384,"Delta":207968783},{"NoteNumber":56,"Velocity":25,"Duration":402384,"SoundDuration":402384,"Delta":207968783},{"NoteNumber":79,"Velocity":57,"Duration":111773,"SoundDuration":111773,"Delta":208080557},{"NoteNumber":80,"Velocity":59,"Duration":111773,"SoundDuration":111773,"Delta":208192330},{"NoteNumber":82,"Velocity":60,"Duration":111773,"SoundDuration":111773,"Delta":208304104},{"NoteNumber":84,"Velocity":63,"Duration":111773,"SoundDuration":111773,"Delta":208415877},{"NoteNumber":56,"Velocity":22,"Duration":402384,"SoundDuration":402384,"Delta":208415877},{"NoteNumber":50,"Velocity":22,"Duration":402384,"SoundDuration":402384,"Delta":208415877},{"NoteNumber":53,"Velocity":22,"Duration":402384,"SoundDuration":402384,"Delta":208415877},{"NoteNumber":58,"Velocity":27,"Duration":402384,"SoundDuration":402384,"Delta":208415877},{"NoteNumber":83,"Velocity":59,"Duration":111773,"SoundDuration":111773,"Delta":208527651},{"NoteNumber":86,"Velocity":63,"Duration":111773,"SoundDuration":111773,"Delta":208639424},{"NoteNumber":84,"Velocity":61,"Duration":111773,"SoundDuration":111773,"Delta":208751198},{"NoteNumber":82,"Velocity":60,"Duration":111773,"SoundDuration":111773,"Delta":208862971},{"NoteNumber":53,"Velocity":22,"Duration":423214,"SoundDuration":423214,"Delta":208862971},{"NoteNumber":50,"Velocity":22,"Duration":423214,"SoundDuration":423214,"Delta":208862971},{"NoteNumber":56,"Velocity":22,"Duration":423214,"SoundDuration":423214,"Delta":208862971},{"NoteNumber":58,"Velocity":28,"Duration":423214,"SoundDuration":423214,"Delta":208862971},{"NoteNumber":80,"Velocity":58,"Duration":111773,"SoundDuration":111773,"Delta":208974745},{"NoteNumber":79,"Velocity":56,"Duration":124792,"SoundDuration":124792,"Delta":209086518},{"NoteNumber":77,"Velocity":53,"Duration":124791,"SoundDuration":124791,"Delta":209211310},{"NoteNumber":78,"Velocity":58,"Duration":1361573,"SoundDuration":1361573,"Delta":209336102},{"NoteNumber":56,"Velocity":21,"Duration":408472,"SoundDuration":408472,"Delta":209336102},{"NoteNumber":51,"Velocity":21,"Duration":408472,"SoundDuration":408472,"Delta":209336102},{"NoteNumber":58,"Velocity":25,"Duration":408472,"SoundDuration":408472,"Delta":209336102},{"NoteNumber":51,"Velocity":17,"Duration":408472,"SoundDuration":408472,"Delta":209789960},{"NoteNumber":56,"Velocity":17,"Duration":408472,"SoundDuration":408472,"Delta":209789960},{"NoteNumber":58,"Velocity":20,"Duration":408472,"SoundDuration":408472,"Delta":209789960},{"NoteNumber":58,"Velocity":20,"Duration":408472,"SoundDuration":408472,"Delta":210243818},{"NoteNumber":56,"Velocity":17,"Duration":408472,"SoundDuration":408472,"Delta":210243818},{"NoteNumber":51,"Velocity":17,"Duration":408472,"SoundDuration":408472,"Delta":210243818},{"NoteNumber":79,"Velocity":55,"Duration":1588503,"SoundDuration":1588503,"Delta":210697676},{"NoteNumber":51,"Velocity":19,"Duration":408472,"SoundDuration":408472,"Delta":210697676},{"NoteNumber":55,"Velocity":19,"Duration":408472,"SoundDuration":408472,"Delta":210697676},{"NoteNumber":58,"Velocity":23,"Duration":408472,"SoundDuration":408472,"Delta":210697676},{"NoteNumber":51,"Velocity":17,"Duration":408472,"SoundDuration":408472,"Delta":211151534},{"NoteNumber":55,"Velocity":17,"Duration":408472,"SoundDuration":408472,"Delta":211151534},{"NoteNumber":58,"Velocity":20,"Duration":408472,"SoundDuration":408472,"Delta":211151534},{"NoteNumber":55,"Velocity":17,"Duration":408472,"SoundDuration":408472,"Delta":211605392},{"NoteNumber":51,"Velocity":17,"Duration":408472,"SoundDuration":408472,"Delta":211605392},{"NoteNumber":58,"Velocity":20,"Duration":408472,"SoundDuration":408472,"Delta":211605392},{"NoteNumber":51,"Velocity":36,"Duration":447193,"SoundDuration":447193,"Delta":212059250},{"NoteNumber":63,"Velocity":55,"Duration":220264,"SoundDuration":220264,"Delta":212286179},{"NoteNumber":67,"Velocity":59,"Duration":220264,"SoundDuration":220264,"Delta":212506444},{"NoteNumber":46,"Velocity":40,"Duration":440528,"SoundDuration":440528,"Delta":212506444},{"NoteNumber":70,"Velocity":62,"Duration":220264,"SoundDuration":220264,"Delta":212726708},{"NoteNumber":75,"Velocity":66,"Duration":220264,"SoundDuration":220264,"Delta":212946972},{"NoteNumber":44,"Velocity":43,"Duration":463770,"SoundDuration":463770,"Delta":212946972},{"NoteNumber":79,"Velocity":69,"Duration":243506,"SoundDuration":243506,"Delta":213167236},{"NoteNumber":82,"Velocity":72,"Duration":1576576,"SoundDuration":1576576,"Delta":213410743},{"NoteNumber":43,"Velocity":48,"Duration":450450,"SoundDuration":450450,"Delta":213410743},{"NoteNumber":51,"Velocity":35,"Duration":405405,"SoundDuration":405405,"Delta":213861193},{"NoteNumber":46,"Velocity":29,"Duration":405405,"SoundDuration":405405,"Delta":213861193},{"NoteNumber":43,"Velocity":29,"Duration":405405,"SoundDuration":405405,"Delta":213861193},{"NoteNumber":43,"Velocity":29,"Duration":405405,"SoundDuration":405405,"Delta":214311644},{"NoteNumber":46,"Velocity":29,"Duration":405405,"SoundDuration":405405,"Delta":214311644},{"NoteNumber":51,"Velocity":35,"Duration":405405,"SoundDuration":405405,"Delta":214311644},{"NoteNumber":51,"Velocity":35,"Duration":405405,"SoundDuration":405405,"Delta":214762094},{"NoteNumber":43,"Velocity":29,"Duration":405405,"SoundDuration":405405,"Delta":214762094},{"NoteNumber":46,"Velocity":29,"Duration":405405,"SoundDuration":405405,"Delta":214762094},{"NoteNumber":78,"Velocity":55,"Duration":225225,"SoundDuration":225225,"Delta":214987320},{"NoteNumber":79,"Velocity":62,"Duration":225225,"SoundDuration":225225,"Delta":215212545},{"NoteNumber":43,"Velocity":27,"Duration":405405,"SoundDuration":405405,"Delta":215212545},{"NoteNumber":46,"Velocity":27,"Duration":405405,"SoundDuration":405405,"Delta":215212545},{"NoteNumber":51,"Velocity":32,"Duration":405405,"SoundDuration":405405,"Delta":215212545},{"NoteNumber":74,"Velocity":57,"Duration":225225,"SoundDuration":225225,"Delta":215437770},{"NoteNumber":75,"Velocity":64,"Duration":225225,"SoundDuration":225225,"Delta":215662995},{"NoteNumber":43,"Velocity":27,"Duration":405405,"SoundDuration":405405,"Delta":215662995},{"NoteNumber":51,"Velocity":32,"Duration":405405,"SoundDuration":405405,"Delta":215662995},{"NoteNumber":46,"Velocity":27,"Duration":405405,"SoundDuration":405405,"Delta":215662995},{"NoteNumber":69,"Velocity":57,"Duration":225225,"SoundDuration":225225,"Delta":215888221},{"NoteNumber":70,"Velocity":66,"Duration":225225,"SoundDuration":225225,"Delta":216113446},{"NoteNumber":51,"Velocity":35,"Duration":405405,"SoundDuration":405405,"Delta":216113446},{"NoteNumber":46,"Velocity":29,"Duration":405405,"SoundDuration":405405,"Delta":216113446},{"NoteNumber":43,"Velocity":29,"Duration":405405,"SoundDuration":405405,"Delta":216113446},{"NoteNumber":66,"Velocity":57,"Duration":225225,"SoundDuration":225225,"Delta":216338671},{"NoteNumber":67,"Velocity":68,"Duration":225225,"SoundDuration":225225,"Delta":216563896},{"NoteNumber":43,"Velocity":25,"Duration":405405,"SoundDuration":405405,"Delta":216563896},{"NoteNumber":46,"Velocity":25,"Duration":405405,"SoundDuration":405405,"Delta":216563896},{"NoteNumber":51,"Velocity":30,"Duration":405405,"SoundDuration":405405,"Delta":216563896},{"NoteNumber":62,"Velocity":59,"Duration":225225,"SoundDuration":225225,"Delta":216789122},{"NoteNumber":63,"Velocity":69,"Duration":230769,"SoundDuration":230769,"Delta":217014347},{"NoteNumber":51,"Velocity":30,"Duration":415384,"SoundDuration":415384,"Delta":217014347},{"NoteNumber":43,"Velocity":25,"Duration":415384,"SoundDuration":415384,"Delta":217014347},{"NoteNumber":46,"Velocity":25,"Duration":415384,"SoundDuration":415384,"Delta":217014347},{"NoteNumber":67,"Velocity":57,"Duration":230769,"SoundDuration":230769,"Delta":217245116},{"NoteNumber":67,"Velocity":69,"Duration":461538,"SoundDuration":461538,"Delta":217475885},{"NoteNumber":44,"Velocity":32,"Duration":461538,"SoundDuration":461538,"Delta":217475885},{"NoteNumber":48,"Velocity":34,"Duration":461538,"SoundDuration":461538,"Delta":217475885},{"NoteNumber":51,"Velocity":48,"Duration":461538,"SoundDuration":461538,"Delta":217475885},{"NoteNumber":60,"Velocity":63,"Duration":1340401,"SoundDuration":1340401,"Delta":217937424},{"NoteNumber":44,"Velocity":29,"Duration":400000,"SoundDuration":400000,"Delta":217937424},{"NoteNumber":51,"Velocity":35,"Duration":400000,"SoundDuration":400000,"Delta":217937424},{"NoteNumber":48,"Velocity":29,"Duration":400000,"SoundDuration":400000,"Delta":217937424},{"NoteNumber":51,"Velocity":35,"Duration":408268,"SoundDuration":408268,"Delta":218381868},{"NoteNumber":48,"Velocity":29,"Duration":408268,"SoundDuration":408268,"Delta":218381868},{"NoteNumber":44,"Velocity":29,"Duration":408268,"SoundDuration":408268,"Delta":218381868},{"NoteNumber":44,"Velocity":34,"Duration":397058,"SoundDuration":397058,"Delta":218836649},{"NoteNumber":48,"Velocity":34,"Duration":397058,"SoundDuration":397058,"Delta":218836649},{"NoteNumber":52,"Velocity":41,"Duration":397058,"SoundDuration":397058,"Delta":218836649},{"NoteNumber":72,"Velocity":69,"Duration":1323529,"SoundDuration":1323529,"Delta":219277825},{"NoteNumber":52,"Velocity":35,"Duration":397058,"SoundDuration":397058,"Delta":219277825},{"NoteNumber":44,"Velocity":29,"Duration":397058,"SoundDuration":397058,"Delta":219277825},{"NoteNumber":48,"Velocity":29,"Duration":397058,"SoundDuration":397058,"Delta":219277825},{"NoteNumber":44,"Velocity":33,"Duration":397058,"SoundDuration":397058,"Delta":219719002},{"NoteNumber":48,"Velocity":33,"Duration":397058,"SoundDuration":397058,"Delta":219719002},{"NoteNumber":52,"Velocity":39,"Duration":397058,"SoundDuration":397058,"Delta":219719002},{"NoteNumber":44,"Velocity":37,"Duration":397058,"SoundDuration":397058,"Delta":220160178},{"NoteNumber":53,"Velocity":44,"Duration":397058,"SoundDuration":397058,"Delta":220160178},{"NoteNumber":48,"Velocity":37,"Duration":397058,"SoundDuration":397058,"Delta":220160178},{"NoteNumber":84,"Velocity":69,"Duration":105342,"SoundDuration":105342,"Delta":220601355},{"NoteNumber":53,"Velocity":36,"Duration":386105,"SoundDuration":386105,"Delta":220601355},{"NoteNumber":48,"Velocity":30,"Duration":386105,"SoundDuration":386105,"Delta":220601355},{"NoteNumber":44,"Velocity":30,"Duration":386105,"SoundDuration":386105,"Delta":220601355},{"NoteNumber":83,"Velocity":62,"Duration":106737,"SoundDuration":106737,"Delta":220706697},{"NoteNumber":86,"Velocity":69,"Duration":108278,"SoundDuration":108278,"Delta":220813435},{"NoteNumber":84,"Velocity":68,"Duration":109864,"SoundDuration":109864,"Delta":220921713},{"NoteNumber":82,"Velocity":67,"Duration":111498,"SoundDuration":111498,"Delta":221031578},{"NoteNumber":44,"Velocity":30,"Duration":416679,"SoundDuration":416679,"Delta":221031578},{"NoteNumber":48,"Velocity":30,"Duration":416679,"SoundDuration":416679,"Delta":221031578},{"NoteNumber":53,"Velocity":36,"Duration":416679,"SoundDuration":416679,"Delta":221031578},{"NoteNumber":80,"Velocity":65,"Duration":113180,"SoundDuration":113180,"Delta":221143077},{"NoteNumber":79,"Velocity":64,"Duration":120000,"SoundDuration":120000,"Delta":221256257},{"NoteNumber":77,"Velocity":62,"Duration":99999,"SoundDuration":99999,"Delta":221376257},{"NoteNumber":77,"Velocity":67,"Duration":458015,"SoundDuration":458015,"Delta":221496257},{"NoteNumber":55,"Velocity":35,"Duration":412213,"SoundDuration":412213,"Delta":221496257},{"NoteNumber":46,"Velocity":29,"Duration":412213,"SoundDuration":412213,"Delta":221496257},{"NoteNumber":51,"Velocity":29,"Duration":412213,"SoundDuration":412213,"Delta":221496257},{"NoteNumber":75,"Velocity":60,"Duration":1323529,"SoundDuration":1323529,"Delta":221954273},{"NoteNumber":46,"Velocity":23,"Duration":397058,"SoundDuration":397058,"Delta":221954273},{"NoteNumber":51,"Velocity":23,"Duration":397058,"SoundDuration":397058,"Delta":221954273},{"NoteNumber":55,"Velocity":28,"Duration":397058,"SoundDuration":397058,"Delta":221954273},{"NoteNumber":46,"Velocity":23,"Duration":397058,"SoundDuration":397058,"Delta":222395449},{"NoteNumber":55,"Velocity":28,"Duration":397058,"SoundDuration":397058,"Delta":222395449},{"NoteNumber":51,"Velocity":23,"Duration":397058,"SoundDuration":397058,"Delta":222395449},{"NoteNumber":55,"Velocity":32,"Duration":397058,"SoundDuration":397058,"Delta":222836626},{"NoteNumber":51,"Velocity":26,"Duration":397058,"SoundDuration":397058,"Delta":222836626},{"NoteNumber":46,"Velocity":26,"Duration":397058,"SoundDuration":397058,"Delta":222836626},{"NoteNumber":75,"Velocity":56,"Duration":441176,"SoundDuration":441176,"Delta":223277802},{"NoteNumber":46,"Velocity":23,"Duration":397058,"SoundDuration":397058,"Delta":223277802},{"NoteNumber":51,"Velocity":23,"Duration":397058,"SoundDuration":397058,"Delta":223277802},{"NoteNumber":55,"Velocity":27,"Duration":397058,"SoundDuration":397058,"Delta":223277802},{"NoteNumber":75,"Velocity":54,"Duration":441176,"SoundDuration":441176,"Delta":223718979},{"NoteNumber":55,"Velocity":27,"Duration":397058,"SoundDuration":397058,"Delta":223718979},{"NoteNumber":46,"Velocity":22,"Duration":397058,"SoundDuration":397058,"Delta":223718979},{"NoteNumber":51,"Velocity":22,"Duration":397058,"SoundDuration":397058,"Delta":223718979},{"NoteNumber":75,"Velocity":53,"Duration":57251,"SoundDuration":57251,"Delta":224160155},{"NoteNumber":46,"Velocity":25,"Duration":412213,"SoundDuration":412213,"Delta":224160155},{"NoteNumber":53,"Velocity":25,"Duration":412213,"SoundDuration":412213,"Delta":224160155},{"NoteNumber":56,"Velocity":31,"Duration":412213,"SoundDuration":412213,"Delta":224160155},{"NoteNumber":77,"Velocity":43,"Duration":57251,"SoundDuration":57251,"Delta":224217407},{"NoteNumber":75,"Velocity":54,"Duration":57251,"SoundDuration":57251,"Delta":224274659},{"NoteNumber":77,"Velocity":46,"Duration":57251,"SoundDuration":57251,"Delta":224331911},{"NoteNumber":75,"Velocity":52,"Duration":57251,"SoundDuration":57251,"Delta":224389163},{"NoteNumber":77,"Velocity":44,"Duration":57251,"SoundDuration":57251,"Delta":224446415},{"NoteNumber":75,"Velocity":51,"Duration":38167,"SoundDuration":38167,"Delta":224503667},{"NoteNumber":74,"Velocity":43,"Duration":38167,"SoundDuration":38167,"Delta":224541835},{"NoteNumber":75,"Velocity":43,"Duration":38167,"SoundDuration":38167,"Delta":224580003},{"NoteNumber":77,"Velocity":54,"Duration":437956,"SoundDuration":437956,"Delta":224618171},{"NoteNumber":46,"Velocity":22,"Duration":394160,"SoundDuration":394160,"Delta":224618171},{"NoteNumber":56,"Velocity":26,"Duration":394160,"SoundDuration":394160,"Delta":224618171},{"NoteNumber":53,"Velocity":22,"Duration":394160,"SoundDuration":394160,"Delta":224618171},{"NoteNumber":74,"Velocity":47,"Duration":476190,"SoundDuration":476190,"Delta":225056127},{"NoteNumber":56,"Velocity":26,"Duration":428571,"SoundDuration":428571,"Delta":225056127},{"NoteNumber":53,"Velocity":21,"Duration":428571,"SoundDuration":428571,"Delta":225056127},{"NoteNumber":46,"Velocity":21,"Duration":428571,"SoundDuration":428571,"Delta":225056127},{"NoteNumber":75,"Velocity":47,"Duration":451128,"SoundDuration":451128,"Delta":225532317},{"NoteNumber":51,"Velocity":26,"Duration":889084,"SoundDuration":889084,"Delta":225532317},{"NoteNumber":55,"Velocity":31,"Duration":889084,"SoundDuration":889084,"Delta":225532317},{"NoteNumber":70,"Velocity":43,"Duration":394160,"SoundDuration":394160,"Delta":225983445},{"NoteNumber":70,"Velocity":43,"Duration":394160,"SoundDuration":394160,"Delta":226421401},{"NoteNumber":70,"Velocity":49,"Duration":437956,"SoundDuration":437956,"Delta":226859357},{"NoteNumber":72,"Velocity":41,"Duration":437955,"SoundDuration":437955,"Delta":227297313},{"NoteNumber":68,"Velocity":32,"Duration":444444,"SoundDuration":444444,"Delta":227735269},{"NoteNumber":67,"Velocity":43,"Duration":434782,"SoundDuration":434782,"Delta":228179714},{"NoteNumber":63,"Velocity":36,"Duration":869564,"SoundDuration":869564,"Delta":228179714},{"NoteNumber":46,"Velocity":26,"Duration":1324110,"SoundDuration":1324110,"Delta":228179714},{"NoteNumber":58,"Velocity":31,"Duration":869564,"SoundDuration":869564,"Delta":228179714},{"NoteNumber":68,"Velocity":37,"Duration":434782,"SoundDuration":434782,"Delta":228614496},{"NoteNumber":65,"Velocity":32,"Duration":454545,"SoundDuration":454545,"Delta":229049279},{"NoteNumber":62,"Velocity":27,"Duration":454545,"SoundDuration":454545,"Delta":229049279},{"NoteNumber":56,"Velocity":29,"Duration":454545,"SoundDuration":454545,"Delta":229049279},{"NoteNumber":63,"Velocity":47,"Duration":465116,"SoundDuration":465116,"Delta":229503824},{"NoteNumber":55,"Velocity":31,"Duration":906293,"SoundDuration":906293,"Delta":229503824},{"NoteNumber":51,"Velocity":26,"Duration":906293,"SoundDuration":906293,"Delta":229503824},{"NoteNumber":58,"Velocity":38,"Duration":397058,"SoundDuration":397058,"Delta":229968941},{"NoteNumber":58,"Velocity":38,"Duration":397058,"SoundDuration":397058,"Delta":230410117},{"NoteNumber":58,"Velocity":34,"Duration":57251,"SoundDuration":57251,"Delta":230851294},{"NoteNumber":60,"Velocity":27,"Duration":57251,"SoundDuration":57251,"Delta":230908546},{"NoteNumber":58,"Velocity":34,"Duration":57251,"SoundDuration":57251,"Delta":230965798},{"NoteNumber":60,"Velocity":29,"Duration":57251,"SoundDuration":57251,"Delta":231023050},{"NoteNumber":58,"Velocity":33,"Duration":57251,"SoundDuration":57251,"Delta":231080302},{"NoteNumber":60,"Velocity":27,"Duration":57251,"SoundDuration":57251,"Delta":231137554},{"NoteNumber":58,"Velocity":32,"Duration":38167,"SoundDuration":38167,"Delta":231194806},{"NoteNumber":57,"Velocity":27,"Duration":38167,"SoundDuration":38167,"Delta":231232974},{"NoteNumber":58,"Velocity":27,"Duration":38167,"SoundDuration":38167,"Delta":231271142},{"NoteNumber":60,"Velocity":34,"Duration":437956,"SoundDuration":437956,"Delta":231309309},{"NoteNumber":56,"Velocity":28,"Duration":438414,"SoundDuration":438414,"Delta":231747265},{"NoteNumber":51,"Velocity":28,"Duration":895553,"SoundDuration":895553,"Delta":232185680},{"NoteNumber":55,"Velocity":34,"Duration":57251,"SoundDuration":57251,"Delta":232185680},{"NoteNumber":46,"Velocity":31,"Duration":895553,"SoundDuration":895553,"Delta":232185680},{"NoteNumber":34,"Velocity":26,"Duration":1353569,"SoundDuration":1353569,"Delta":232185680},{"NoteNumber":56,"Velocity":27,"Duration":57251,"SoundDuration":57251,"Delta":232242932},{"NoteNumber":55,"Velocity":34,"Duration":57251,"SoundDuration":57251,"Delta":232300184},{"NoteNumber":56,"Velocity":29,"Duration":57251,"SoundDuration":57251,"Delta":232357435},{"NoteNumber":55,"Velocity":33,"Duration":57251,"SoundDuration":57251,"Delta":232414687},{"NoteNumber":56,"Velocity":27,"Duration":57251,"SoundDuration":57251,"Delta":232471939},{"NoteNumber":55,"Velocity":32,"Duration":38167,"SoundDuration":38167,"Delta":232529191},{"NoteNumber":53,"Velocity":27,"Duration":38167,"SoundDuration":38167,"Delta":232567359},{"NoteNumber":55,"Velocity":27,"Duration":37750,"SoundDuration":37750,"Delta":232605527},{"NoteNumber":56,"Velocity":34,"Duration":437955,"SoundDuration":437955,"Delta":232643277},{"NoteNumber":53,"Velocity":28,"Duration":457597,"SoundDuration":457597,"Delta":233072109},{"NoteNumber":44,"Velocity":22,"Duration":458015,"SoundDuration":458015,"Delta":233081233},{"NoteNumber":53,"Velocity":27,"Duration":458015,"SoundDuration":458015,"Delta":233081233},{"NoteNumber":51,"Velocity":30,"Duration":448430,"SoundDuration":448430,"Delta":233539249},{"NoteNumber":39,"Velocity":27,"Duration":896861,"SoundDuration":896861,"Delta":233539249},{"NoteNumber":43,"Velocity":27,"Duration":896861,"SoundDuration":896861,"Delta":233539249},{"NoteNumber":55,"Velocity":28,"Duration":448430,"SoundDuration":448430,"Delta":233987679},{"NoteNumber":58,"Velocity":29,"Duration":461538,"SoundDuration":461538,"Delta":234436110},{"NoteNumber":55,"Velocity":34,"Duration":458015,"SoundDuration":458015,"Delta":234897648},{"NoteNumber":58,"Velocity":31,"Duration":458015,"SoundDuration":458015,"Delta":235355664},{"NoteNumber":63,"Velocity":31,"Duration":468750,"SoundDuration":468750,"Delta":235813679},{"NoteNumber":58,"Velocity":32,"Duration":448430,"SoundDuration":448430,"Delta":236282429},{"NoteNumber":63,"Velocity":37,"Duration":448430,"SoundDuration":448430,"Delta":236730860},{"NoteNumber":67,"Velocity":42,"Duration":442989,"SoundDuration":442989,"Delta":237179290},{"NoteNumber":67,"Velocity":45,"Duration":1846570,"SoundDuration":1846570,"Delta":237641540},{"NoteNumber":58,"Velocity":38,"Duration":1846570,"SoundDuration":1846570,"Delta":237641540},{"NoteNumber":63,"Velocity":38,"Duration":1846570,"SoundDuration":1846570,"Delta":237641540},{"NoteNumber":55,"Velocity":38,"Duration":1846570,"SoundDuration":1846570,"Delta":237641540},{"NoteNumber":39,"Velocity":32,"Duration":451128,"SoundDuration":451128,"Delta":237641540},{"NoteNumber":43,"Velocity":32,"Duration":462249,"SoundDuration":462249,"Delta":238092668},{"NoteNumber":46,"Velocity":32,"Duration":469483,"SoundDuration":469483,"Delta":238554917},{"NoteNumber":51,"Velocity":36,"Duration":483870,"SoundDuration":483870,"Delta":239024401},{"NoteNumber":67,"Velocity":43,"Duration":445736,"SoundDuration":445736,"Delta":239508272},{"NoteNumber":63,"Velocity":36,"Duration":445736,"SoundDuration":445736,"Delta":239508272},{"NoteNumber":58,"Velocity":36,"Duration":445736,"SoundDuration":445736,"Delta":239508272},{"NoteNumber":55,"Velocity":38,"Duration":465116,"SoundDuration":465116,"Delta":239508272},{"NoteNumber":63,"Velocity":35,"Duration":463709,"SoundDuration":463709,"Delta":239973388},{"NoteNumber":67,"Velocity":42,"Duration":463709,"SoundDuration":463709,"Delta":239973388},{"NoteNumber":58,"Velocity":40,"Duration":463709,"SoundDuration":463709,"Delta":239973388},{"NoteNumber":63,"Velocity":23,"Duration":933669,"SoundDuration":933669,"Delta":240457259},{"NoteNumber":67,"Velocity":34,"Duration":56818,"SoundDuration":56818,"Delta":240457259},{"NoteNumber":46,"Velocity":36,"Duration":933669,"SoundDuration":933669,"Delta":240457259},{"NoteNumber":58,"Velocity":43,"Duration":933669,"SoundDuration":933669,"Delta":240457259},{"NoteNumber":68,"Velocity":27,"Duration":56818,"SoundDuration":56818,"Delta":240514077},{"NoteNumber":67,"Velocity":34,"Duration":56818,"SoundDuration":56818,"Delta":240570896},{"NoteNumber":68,"Velocity":29,"Duration":56818,"SoundDuration":56818,"Delta":240627714},{"NoteNumber":67,"Velocity":33,"Duration":56818,"SoundDuration":56818,"Delta":240684532},{"NoteNumber":68,"Velocity":27,"Duration":56818,"SoundDuration":56818,"Delta":240741350},{"NoteNumber":67,"Velocity":32,"Duration":37878,"SoundDuration":37878,"Delta":240798168},{"NoteNumber":65,"Velocity":27,"Duration":37878,"SoundDuration":37878,"Delta":240836047},{"NoteNumber":67,"Velocity":27,"Duration":37878,"SoundDuration":37878,"Delta":240873926},{"NoteNumber":65,"Velocity":38,"Duration":479124,"SoundDuration":479124,"Delta":240911805},{"NoteNumber":68,"Velocity":45,"Duration":479124,"SoundDuration":479124,"Delta":240911805},{"NoteNumber":62,"Velocity":32,"Duration":552884,"SoundDuration":552884,"Delta":241390929},{"NoteNumber":65,"Velocity":38,"Duration":552884,"SoundDuration":552884,"Delta":241390929},{"NoteNumber":58,"Velocity":32,"Duration":552884,"SoundDuration":552884,"Delta":241390929},{"NoteNumber":46,"Velocity":33,"Duration":552884,"SoundDuration":552884,"Delta":241390929},{"NoteNumber":56,"Velocity":39,"Duration":552884,"SoundDuration":552884,"Delta":241390929},{"NoteNumber":62,"Velocity":28,"Duration":1386748,"SoundDuration":1386748,"Delta":241967852},{"NoteNumber":65,"Velocity":34,"Duration":1386748,"SoundDuration":1386748,"Delta":241967852},{"NoteNumber":58,"Velocity":28,"Duration":1848997,"SoundDuration":1848997,"Delta":241967852},{"NoteNumber":56,"Velocity":38,"Duration":1386748,"SoundDuration":1386748,"Delta":241967852},{"NoteNumber":51,"Velocity":32,"Duration":1848997,"SoundDuration":1848997,"Delta":241967852},{"NoteNumber":63,"Velocity":32,"Duration":462249,"SoundDuration":462249,"Delta":243354600},{"NoteNumber":55,"Velocity":30,"Duration":462249,"SoundDuration":462249,"Delta":243354600},{"NoteNumber":58,"Velocity":43,"Duration":469483,"SoundDuration":469483,"Delta":244741349},{"NoteNumber":54,"Velocity":36,"Duration":469483,"SoundDuration":469483,"Delta":244741349},{"NoteNumber":58,"Velocity":40,"Duration":469483,"SoundDuration":469483,"Delta":245210832},{"NoteNumber":63,"Velocity":48,"Duration":469483,"SoundDuration":469483,"Delta":245210832},{"NoteNumber":66,"Velocity":54,"Duration":449921,"SoundDuration":449921,"Delta":245680316},{"NoteNumber":63,"Velocity":45,"Duration":469483,"SoundDuration":469483,"Delta":245680316},{"NoteNumber":66,"Velocity":51,"Duration":3286589,"SoundDuration":3286589,"Delta":246149799},{"NoteNumber":70,"Velocity":60,"Duration":3286589,"SoundDuration":3286589,"Delta":246149799},{"NoteNumber":39,"Velocity":37,"Duration":469483,"SoundDuration":469483,"Delta":246149799},{"NoteNumber":42,"Velocity":40,"Duration":458715,"SoundDuration":458715,"Delta":246619283},{"NoteNumber":46,"Velocity":44,"Duration":469483,"SoundDuration":469483,"Delta":247077998},{"NoteNumber":51,"Velocity":49,"Duration":476947,"SoundDuration":476947,"Delta":247547482},{"NoteNumber":75,"Velocity":70,"Duration":421802,"SoundDuration":421802,"Delta":248024429},{"NoteNumber":54,"Velocity":53,"Duration":462249,"SoundDuration":462249,"Delta":248024429},{"NoteNumber":75,"Velocity":64,"Duration":441532,"SoundDuration":441532,"Delta":248486679},{"NoteNumber":58,"Velocity":57,"Duration":463709,"SoundDuration":463709,"Delta":248486679},{"NoteNumber":75,"Velocity":67,"Duration":442546,"SoundDuration":442546,"Delta":248970550},{"NoteNumber":63,"Velocity":62,"Duration":465838,"SoundDuration":465838,"Delta":248970550},{"NoteNumber":68,"Velocity":44,"Duration":479124,"SoundDuration":479124,"Delta":249436388},{"NoteNumber":75,"Velocity":57,"Duration":455999,"SoundDuration":455999,"Delta":249436388},{"NoteNumber":59,"Velocity":58,"Duration":479124,"SoundDuration":479124,"Delta":249436388},{"NoteNumber":70,"Velocity":50,"Duration":471311,"SoundDuration":471311,"Delta":249915512},{"NoteNumber":66,"Velocity":50,"Duration":471311,"SoundDuration":471311,"Delta":249915512},{"NoteNumber":75,"Velocity":64,"Duration":467213,"SoundDuration":467213,"Delta":249915512},{"NoteNumber":58,"Velocity":54,"Duration":471311,"SoundDuration":471311,"Delta":249915512},{"NoteNumber":75,"Velocity":68,"Duration":952381,"SoundDuration":952381,"Delta":250407316},{"NoteNumber":71,"Velocity":45,"Duration":1428571,"SoundDuration":1428571,"Delta":250407316},{"NoteNumber":65,"Velocity":45,"Duration":1428571,"SoundDuration":1428571,"Delta":250407316},{"NoteNumber":56,"Velocity":53,"Duration":1428571,"SoundDuration":1428571,"Delta":250407316},{"NoteNumber":73,"Velocity":38,"Duration":476190,"SoundDuration":476190,"Delta":251359697},{"NoteNumber":53,"Velocity":43,"Duration":1364765,"SoundDuration":1364765,"Delta":251835887},{"NoteNumber":68,"Velocity":34,"Duration":899649,"SoundDuration":899649,"Delta":252301004},{"NoteNumber":75,"Velocity":40,"Duration":445103,"SoundDuration":445103,"Delta":252301004},{"NoteNumber":71,"Velocity":34,"Duration":899649,"SoundDuration":899649,"Delta":252301004},{"NoteNumber":73,"Velocity":29,"Duration":454545,"SoundDuration":454545,"Delta":252746108},{"NoteNumber":54,"Velocity":40,"Duration":1361348,"SoundDuration":1361348,"Delta":253200653},{"NoteNumber":75,"Velocity":40,"Duration":445103,"SoundDuration":445103,"Delta":253665770},{"NoteNumber":66,"Velocity":34,"Duration":896231,"SoundDuration":896231,"Delta":253665770},{"NoteNumber":70,"Velocity":34,"Duration":896231,"SoundDuration":896231,"Delta":253665770},{"NoteNumber":73,"Velocity":27,"Duration":451128,"SoundDuration":451128,"Delta":254110874},{"NoteNumber":47,"Velocity":32,"Duration":1361348,"SoundDuration":1361348,"Delta":254562002},{"NoteNumber":73,"Velocity":40,"Duration":445103,"SoundDuration":445103,"Delta":255027118},{"NoteNumber":68,"Velocity":34,"Duration":896231,"SoundDuration":896231,"Delta":255027118},{"NoteNumber":63,"Velocity":34,"Duration":896231,"SoundDuration":896231,"Delta":255027118},{"NoteNumber":71,"Velocity":27,"Duration":451128,"SoundDuration":451128,"Delta":255472222},{"NoteNumber":49,"Velocity":32,"Duration":1361348,"SoundDuration":1361348,"Delta":255923350},{"NoteNumber":61,"Velocity":34,"Duration":896231,"SoundDuration":896231,"Delta":256388467},{"NoteNumber":71,"Velocity":40,"Duration":445104,"SoundDuration":445104,"Delta":256388467},{"NoteNumber":66,"Velocity":34,"Duration":896231,"SoundDuration":896231,"Delta":256388467},{"NoteNumber":70,"Velocity":27,"Duration":451127,"SoundDuration":451127,"Delta":256833571},{"NoteNumber":37,"Velocity":32,"Duration":1360688,"SoundDuration":1360688,"Delta":257284699},{"NoteNumber":70,"Velocity":40,"Duration":444444,"SoundDuration":444444,"Delta":257749815},{"NoteNumber":65,"Velocity":34,"Duration":876775,"SoundDuration":876775,"Delta":257749815},{"NoteNumber":59,"Velocity":34,"Duration":895572,"SoundDuration":895572,"Delta":257749815},{"NoteNumber":68,"Velocity":27,"Duration":451127,"SoundDuration":451127,"Delta":258194260},{"NoteNumber":68,"Velocity":45,"Duration":1428571,"SoundDuration":1428571,"Delta":258645388},{"NoteNumber":59,"Velocity":68,"Duration":952381,"SoundDuration":952381,"Delta":258645388},{"NoteNumber":65,"Velocity":45,"Duration":1428571,"SoundDuration":1428571,"Delta":258645388},{"NoteNumber":38,"Velocity":53,"Duration":1428571,"SoundDuration":1428571,"Delta":258645388},{"NoteNumber":58,"Velocity":38,"Duration":476190,"SoundDuration":476190,"Delta":259597769},{"NoteNumber":50,"Velocity":43,"Duration":1364766,"SoundDuration":1364766,"Delta":260073959},{"NoteNumber":68,"Velocity":34,"Duration":899649,"SoundDuration":899649,"Delta":260539076},{"NoteNumber":59,"Velocity":40,"Duration":445104,"SoundDuration":445104,"Delta":260539076},{"NoteNumber":65,"Velocity":34,"Duration":899649,"SoundDuration":899649,"Delta":260539076},{"NoteNumber":58,"Velocity":29,"Duration":454545,"SoundDuration":454545,"Delta":260984180},{"NoteNumber":51,"Velocity":40,"Duration":1361348,"SoundDuration":1361348,"Delta":261438725},{"NoteNumber":66,"Velocity":34,"Duration":896231,"SoundDuration":896231,"Delta":261903842},{"NoteNumber":59,"Velocity":40,"Duration":445104,"SoundDuration":445104,"Delta":261903842},{"NoteNumber":63,"Velocity":34,"Duration":896231,"SoundDuration":896231,"Delta":261903842},{"NoteNumber":58,"Velocity":27,"Duration":451127,"SoundDuration":451127,"Delta":262348946},{"NoteNumber":44,"Velocity":32,"Duration":1358070,"SoundDuration":1358070,"Delta":262800074},{"NoteNumber":66,"Velocity":40,"Duration":441825,"SoundDuration":441825,"Delta":263265190},{"NoteNumber":56,"Velocity":34,"Duration":892953,"SoundDuration":892953,"Delta":263265190},{"NoteNumber":59,"Velocity":34,"Duration":892953,"SoundDuration":892953,"Delta":263265190},{"NoteNumber":64,"Velocity":27,"Duration":451127,"SoundDuration":451127,"Delta":263707016},{"NoteNumber":45,"Velocity":32,"Duration":1358070,"SoundDuration":1358070,"Delta":264158144},{"NoteNumber":54,"Velocity":34,"Duration":892953,"SoundDuration":892953,"Delta":264623261},{"NoteNumber":64,"Velocity":40,"Duration":441825,"SoundDuration":441825,"Delta":264623261},{"NoteNumber":60,"Velocity":34,"Duration":892953,"SoundDuration":892953,"Delta":264623261},{"NoteNumber":63,"Velocity":27,"Duration":451127,"SoundDuration":451127,"Delta":265065087},{"NoteNumber":46,"Velocity":32,"Duration":1360688,"SoundDuration":1360688,"Delta":265516215},{"NoteNumber":53,"Velocity":34,"Duration":895572,"SoundDuration":895572,"Delta":265981331},{"NoteNumber":63,"Velocity":40,"Duration":444444,"SoundDuration":444444,"Delta":265981331},{"NoteNumber":56,"Velocity":34,"Duration":895572,"SoundDuration":895572,"Delta":265981331},{"NoteNumber":62,"Velocity":27,"Duration":451127,"SoundDuration":451127,"Delta":266425776},{"NoteNumber":63,"Velocity":34,"Duration":923076,"SoundDuration":923076,"Delta":266876904},{"NoteNumber":55,"Velocity":34,"Duration":923076,"SoundDuration":923076,"Delta":266876904},{"NoteNumber":39,"Velocity":35,"Duration":4157305,"SoundDuration":4157305,"Delta":266876904},{"NoteNumber":51,"Velocity":29,"Duration":415384,"SoundDuration":415384,"Delta":267338442},{"NoteNumber":51,"Velocity":29,"Duration":415384,"SoundDuration":415384,"Delta":267799981},{"NoteNumber":51,"Velocity":32,"Duration":415384,"SoundDuration":415384,"Delta":268261519},{"NoteNumber":51,"Velocity":29,"Duration":415384,"SoundDuration":415384,"Delta":268723058},{"NoteNumber":51,"Velocity":29,"Duration":428571,"SoundDuration":428571,"Delta":269184596},{"NoteNumber":79,"Velocity":57,"Duration":916030,"SoundDuration":916030,"Delta":269660787},{"NoteNumber":51,"Velocity":32,"Duration":412213,"SoundDuration":412213,"Delta":269660787},{"NoteNumber":51,"Velocity":27,"Duration":412213,"SoundDuration":412213,"Delta":270118802},{"NoteNumber":77,"Velocity":48,"Duration":217391,"SoundDuration":217391,"Delta":270576818},{"NoteNumber":51,"Velocity":27,"Duration":409391,"SoundDuration":409391,"Delta":270576818},{"NoteNumber":75,"Velocity":47,"Duration":240000,"SoundDuration":240000,"Delta":270794209},{"NoteNumber":65,"Velocity":30,"Duration":916030,"SoundDuration":916030,"Delta":271034209},{"NoteNumber":75,"Velocity":54,"Duration":458015,"SoundDuration":458015,"Delta":271034209},{"NoteNumber":68,"Velocity":35,"Duration":896947,"SoundDuration":896947,"Delta":271034209},{"NoteNumber":51,"Velocity":32,"Duration":412213,"SoundDuration":412213,"Delta":271034209},{"NoteNumber":74,"Velocity":47,"Duration":458015,"SoundDuration":458015,"Delta":271492225},{"NoteNumber":51,"Velocity":28,"Duration":412213,"SoundDuration":412213,"Delta":271492225},{"NoteNumber":72,"Velocity":51,"Duration":220588,"SoundDuration":220588,"Delta":271950240},{"NoteNumber":68,"Velocity":37,"Duration":433766,"SoundDuration":433766,"Delta":271950240},{"NoteNumber":63,"Velocity":43,"Duration":220588,"SoundDuration":220588,"Delta":271950240},{"NoteNumber":51,"Velocity":28,"Duration":406634,"SoundDuration":406634,"Delta":271950240},{"NoteNumber":70,"Velocity":43,"Duration":213178,"SoundDuration":213178,"Delta":272170828},{"NoteNumber":62,"Velocity":36,"Duration":213178,"SoundDuration":213178,"Delta":272170828},{"NoteNumber":68,"Velocity":35,"Duration":2762695,"SoundDuration":2762695,"Delta":272403387},{"NoteNumber":70,"Velocity":50,"Duration":1836012,"SoundDuration":1836012,"Delta":272403387},{"NoteNumber":62,"Velocity":48,"Duration":916030,"SoundDuration":916030,"Delta":272403387},{"NoteNumber":51,"Velocity":32,"Duration":412213,"SoundDuration":412213,"Delta":272403387},{"NoteNumber":51,"Velocity":28,"Duration":412213,"SoundDuration":412213,"Delta":272861402},{"NoteNumber":60,"Velocity":45,"Duration":222222,"SoundDuration":222222,"Delta":273319418},{"NoteNumber":51,"Velocity":28,"Duration":411198,"SoundDuration":411198,"Delta":273319418},{"NoteNumber":58,"Velocity":38,"Duration":216535,"SoundDuration":216535,"Delta":273541640},{"NoteNumber":58,"Velocity":51,"Duration":692307,"SoundDuration":692307,"Delta":273777860},{"NoteNumber":51,"Velocity":32,"Duration":415384,"SoundDuration":415384,"Delta":273777860},{"NoteNumber":72,"Velocity":44,"Duration":461538,"SoundDuration":461538,"Delta":274239399},{"NoteNumber":51,"Velocity":28,"Duration":415384,"SoundDuration":415384,"Delta":274239399},{"NoteNumber":56,"Velocity":38,"Duration":230769,"SoundDuration":230769,"Delta":274470168},{"NoteNumber":55,"Velocity":38,"Duration":230769,"SoundDuration":230769,"Delta":274700937},{"NoteNumber":74,"Velocity":46,"Duration":465144,"SoundDuration":465144,"Delta":274700937},{"NoteNumber":51,"Velocity":28,"Duration":418269,"SoundDuration":418269,"Delta":274700937},{"NoteNumber":56,"Velocity":38,"Duration":234375,"SoundDuration":234375,"Delta":274931707},{"NoteNumber":55,"Velocity":51,"Duration":916030,"SoundDuration":916030,"Delta":275166082},{"NoteNumber":75,"Velocity":51,"Duration":229007,"SoundDuration":229007,"Delta":275166082},{"NoteNumber":51,"Velocity":32,"Duration":412213,"SoundDuration":412213,"Delta":275166082},{"NoteNumber":77,"Velocity":44,"Duration":76335,"SoundDuration":76335,"Delta":275395089},{"NoteNumber":75,"Velocity":38,"Duration":76335,"SoundDuration":76335,"Delta":275471425},{"NoteNumber":74,"Velocity":38,"Duration":76335,"SoundDuration":76335,"Delta":275547761},{"NoteNumber":75,"Velocity":51,"Duration":229007,"SoundDuration":229007,"Delta":275624097},{"NoteNumber":51,"Velocity":28,"Duration":412213,"SoundDuration":412213,"Delta":275624097},{"NoteNumber":77,"Velocity":47,"Duration":229007,"SoundDuration":229007,"Delta":275853105},{"NoteNumber":79,"Velocity":49,"Duration":229007,"SoundDuration":229007,"Delta":276082113},{"NoteNumber":51,"Velocity":28,"Duration":419483,"SoundDuration":419483,"Delta":276082113},{"NoteNumber":80,"Velocity":50,"Duration":178571,"SoundDuration":178571,"Delta":276311120},{"NoteNumber":79,"Velocity":48,"Duration":59523,"SoundDuration":59523,"Delta":276489692},{"NoteNumber":82,"Velocity":57,"Duration":1374046,"SoundDuration":1374046,"Delta":276549216},{"NoteNumber":51,"Velocity":32,"Duration":412213,"SoundDuration":412213,"Delta":276549216},{"NoteNumber":51,"Velocity":28,"Duration":412213,"SoundDuration":412213,"Delta":277007231},{"NoteNumber":51,"Velocity":28,"Duration":412213,"SoundDuration":412213,"Delta":277465247},{"NoteNumber":81,"Velocity":47,"Duration":231124,"SoundDuration":231124,"Delta":277923262},{"NoteNumber":51,"Velocity":32,"Duration":411847,"SoundDuration":411847,"Delta":277923262},{"NoteNumber":82,"Velocity":52,"Duration":225903,"SoundDuration":225903,"Delta":278154387},{"NoteNumber":84,"Velocity":53,"Duration":225903,"SoundDuration":225903,"Delta":278380290},{"NoteNumber":51,"Velocity":28,"Duration":406626,"SoundDuration":406626,"Delta":278380290},{"NoteNumber":82,"Velocity":51,"Duration":225903,"SoundDuration":225903,"Delta":278606194},{"NoteNumber":80,"Velocity":53,"Duration":225903,"SoundDuration":225903,"Delta":278832097},{"NoteNumber":51,"Velocity":28,"Duration":417903,"SoundDuration":417903,"Delta":278832097},{"NoteNumber":79,"Velocity":51,"Duration":220000,"SoundDuration":220000,"Delta":279058001},{"NoteNumber":68,"Velocity":30,"Duration":916030,"SoundDuration":916030,"Delta":279298001},{"NoteNumber":72,"Velocity":35,"Duration":896947,"SoundDuration":896947,"Delta":279298001},{"NoteNumber":79,"Velocity":57,"Duration":458015,"SoundDuration":458015,"Delta":279298001},{"NoteNumber":51,"Velocity":32,"Duration":412213,"SoundDuration":412213,"Delta":279298001},{"NoteNumber":77,"Velocity":47,"Duration":458015,"SoundDuration":458015,"Delta":279756016},{"NoteNumber":51,"Velocity":28,"Duration":412213,"SoundDuration":412213,"Delta":279756016},{"NoteNumber":70,"Velocity":43,"Duration":220588,"SoundDuration":220588,"Delta":280214032},{"NoteNumber":75,"Velocity":51,"Duration":220588,"SoundDuration":220588,"Delta":280214032},{"NoteNumber":67,"Velocity":36,"Duration":220588,"SoundDuration":220588,"Delta":280214032},{"NoteNumber":51,"Velocity":28,"Duration":411064,"SoundDuration":411064,"Delta":280214032},{"NoteNumber":74,"Velocity":43,"Duration":238095,"SoundDuration":238095,"Delta":280434620},{"NoteNumber":65,"Velocity":30,"Duration":238095,"SoundDuration":238095,"Delta":280434620},{"NoteNumber":68,"Velocity":36,"Duration":218253,"SoundDuration":218253,"Delta":280434620},{"NoteNumber":65,"Velocity":40,"Duration":923076,"SoundDuration":923076,"Delta":280672715},{"NoteNumber":74,"Velocity":50,"Duration":923076,"SoundDuration":923076,"Delta":280672715},{"NoteNumber":68,"Velocity":35,"Duration":903846,"SoundDuration":903846,"Delta":280672715},{"NoteNumber":51,"Velocity":32,"Duration":415384,"SoundDuration":415384,"Delta":280672715},{"NoteNumber":51,"Velocity":28,"Duration":415384,"SoundDuration":415384,"Delta":281134254},{"NoteNumber":63,"Velocity":45,"Duration":223880,"SoundDuration":223880,"Delta":281595792},{"NoteNumber":72,"Velocity":51,"Duration":223880,"SoundDuration":223880,"Delta":281595792},{"NoteNumber":68,"Velocity":35,"Duration":440415,"SoundDuration":440415,"Delta":281595792},{"NoteNumber":51,"Velocity":28,"Duration":412856,"SoundDuration":412856,"Delta":281595792},{"NoteNumber":70,"Velocity":43,"Duration":236220,"SoundDuration":236220,"Delta":281819673},{"NoteNumber":62,"Velocity":38,"Duration":216535,"SoundDuration":216535,"Delta":281819673},{"NoteNumber":68,"Velocity":35,"Duration":1393846,"SoundDuration":1393846,"Delta":282055893},{"NoteNumber":62,"Velocity":51,"Duration":230769,"SoundDuration":230769,"Delta":282055893},{"NoteNumber":70,"Velocity":54,"Duration":461538,"SoundDuration":461538,"Delta":282055893},{"NoteNumber":51,"Velocity":32,"Duration":415384,"SoundDuration":415384,"Delta":282055893},{"NoteNumber":60,"Velocity":38,"Duration":230769,"SoundDuration":230769,"Delta":282286663},{"NoteNumber":58,"Velocity":38,"Duration":230769,"SoundDuration":230769,"Delta":282517432},{"NoteNumber":72,"Velocity":44,"Duration":461538,"SoundDuration":461538,"Delta":282517432},{"NoteNumber":51,"Velocity":28,"Duration":415384,"SoundDuration":415384,"Delta":282517432},{"NoteNumber":56,"Velocity":38,"Duration":230769,"SoundDuration":230769,"Delta":282748201},{"NoteNumber":74,"Velocity":46,"Duration":470769,"SoundDuration":470769,"Delta":282978970},{"NoteNumber":55,"Velocity":38,"Duration":230769,"SoundDuration":230769,"Delta":282978970},{"NoteNumber":51,"Velocity":28,"Duration":422769,"SoundDuration":422769,"Delta":282978970},{"NoteNumber":53,"Velocity":38,"Duration":240000,"SoundDuration":240000,"Delta":283209740},{"NoteNumber":75,"Velocity":54,"Duration":461538,"SoundDuration":461538,"Delta":283449740},{"NoteNumber":67,"Velocity":54,"Duration":461538,"SoundDuration":461538,"Delta":283449740},{"NoteNumber":51,"Velocity":32,"Duration":937728,"SoundDuration":937728,"Delta":283449740},{"NoteNumber":78,"Velocity":40,"Duration":476190,"SoundDuration":476190,"Delta":283911278},{"NoteNumber":79,"Velocity":44,"Duration":476190,"SoundDuration":476190,"Delta":284387469},{"NoteNumber":63,"Velocity":28,"Duration":937728,"SoundDuration":937728,"Delta":284863659},{"NoteNumber":58,"Velocity":23,"Duration":937728,"SoundDuration":937728,"Delta":284863659},{"NoteNumber":55,"Velocity":23,"Duration":937728,"SoundDuration":937728,"Delta":284863659},{"NoteNumber":81,"Velocity":41,"Duration":476190,"SoundDuration":476190,"Delta":285325198},{"NoteNumber":82,"Velocity":44,"Duration":476190,"SoundDuration":476190,"Delta":285801388},{"NoteNumber":67,"Velocity":23,"Duration":923132,"SoundDuration":923132,"Delta":286277579},{"NoteNumber":70,"Velocity":23,"Duration":923132,"SoundDuration":923132,"Delta":286277579},{"NoteNumber":75,"Velocity":28,"Duration":923132,"SoundDuration":923132,"Delta":286277579},{"NoteNumber":86,"Velocity":40,"Duration":465116,"SoundDuration":465116,"Delta":286735594},{"NoteNumber":87,"Velocity":44,"Duration":465116,"SoundDuration":465116,"Delta":287200711},{"NoteNumber":68,"Velocity":23,"Duration":933979,"SoundDuration":933979,"Delta":287665827},{"NoteNumber":72,"Velocity":23,"Duration":933979,"SoundDuration":933979,"Delta":287665827},{"NoteNumber":75,"Velocity":28,"Duration":933979,"SoundDuration":933979,"Delta":287665827},{"NoteNumber":83,"Velocity":41,"Duration":472441,"SoundDuration":472441,"Delta":288127366},{"NoteNumber":84,"Velocity":44,"Duration":472441,"SoundDuration":472441,"Delta":288599807},{"NoteNumber":63,"Velocity":28,"Duration":937728,"SoundDuration":937728,"Delta":289072248},{"NoteNumber":60,"Velocity":23,"Duration":937728,"SoundDuration":937728,"Delta":289072248},{"NoteNumber":56,"Velocity":23,"Duration":937728,"SoundDuration":937728,"Delta":289072248},{"NoteNumber":71,"Velocity":40,"Duration":476190,"SoundDuration":476190,"Delta":289533786},{"NoteNumber":72,"Velocity":42,"Duration":476190,"SoundDuration":476190,"Delta":290009977},{"NoteNumber":57,"Velocity":23,"Duration":933979,"SoundDuration":933979,"Delta":290486167},{"NoteNumber":63,"Velocity":28,"Duration":933979,"SoundDuration":933979,"Delta":290486167},{"NoteNumber":60,"Velocity":23,"Duration":933979,"SoundDuration":933979,"Delta":290486167},{"NoteNumber":64,"Velocity":38,"Duration":472441,"SoundDuration":472441,"Delta":290947706},{"NoteNumber":65,"Velocity":42,"Duration":472441,"SoundDuration":472441,"Delta":291420147},{"NoteNumber":58,"Velocity":35,"Duration":2746370,"SoundDuration":2746370,"Delta":291892588},{"NoteNumber":70,"Velocity":59,"Duration":1158756,"SoundDuration":1158756,"Delta":292354126},{"NoteNumber":67,"Velocity":29,"Duration":461538,"SoundDuration":461538,"Delta":292354126},{"NoteNumber":63,"Velocity":24,"Duration":461538,"SoundDuration":461538,"Delta":292354126},{"NoteNumber":67,"Velocity":30,"Duration":461720,"SoundDuration":461720,"Delta":292815665},{"NoteNumber":63,"Velocity":25,"Duration":461720,"SoundDuration":461720,"Delta":292815665},{"NoteNumber":63,"Velocity":31,"Duration":467730,"SoundDuration":467730,"Delta":293277385},{"NoteNumber":67,"Velocity":38,"Duration":467730,"SoundDuration":467730,"Delta":293277385},{"NoteNumber":72,"Velocity":60,"Duration":116445,"SoundDuration":116445,"Delta":293512883},{"NoteNumber":74,"Velocity":62,"Duration":115787,"SoundDuration":115787,"Delta":293629328},{"NoteNumber":75,"Velocity":64,"Duration":114870,"SoundDuration":114870,"Delta":293745115},{"NoteNumber":63,"Velocity":35,"Duration":454911,"SoundDuration":454911,"Delta":293745115},{"NoteNumber":67,"Velocity":42,"Duration":454911,"SoundDuration":454911,"Delta":293745115},{"NoteNumber":77,"Velocity":66,"Duration":114243,"SoundDuration":114243,"Delta":293859986},{"NoteNumber":79,"Velocity":68,"Duration":113337,"SoundDuration":113337,"Delta":293974230},{"NoteNumber":80,"Velocity":70,"Duration":112459,"SoundDuration":112459,"Delta":294087567},{"NoteNumber":82,"Velocity":72,"Duration":916030,"SoundDuration":916030,"Delta":294200027},{"NoteNumber":63,"Velocity":39,"Duration":458015,"SoundDuration":458015,"Delta":294200027},{"NoteNumber":67,"Velocity":46,"Duration":458015,"SoundDuration":458015,"Delta":294200027},{"NoteNumber":58,"Velocity":37,"Duration":1395573,"SoundDuration":1395573,"Delta":294658042},{"NoteNumber":68,"Velocity":44,"Duration":458015,"SoundDuration":458015,"Delta":294658042},{"NoteNumber":62,"Velocity":37,"Duration":458015,"SoundDuration":458015,"Delta":294658042},{"NoteNumber":80,"Velocity":70,"Duration":465116,"SoundDuration":465116,"Delta":295116058},{"NoteNumber":62,"Velocity":33,"Duration":465116,"SoundDuration":465116,"Delta":295116058},{"NoteNumber":68,"Velocity":39,"Duration":465116,"SoundDuration":465116,"Delta":295116058},{"NoteNumber":77,"Velocity":66,"Duration":472441,"SoundDuration":472441,"Delta":295581174},{"NoteNumber":62,"Velocity":32,"Duration":472441,"SoundDuration":472441,"Delta":295581174},{"NoteNumber":68,"Velocity":38,"Duration":472441,"SoundDuration":472441,"Delta":295581174},{"NoteNumber":75,"Velocity":58,"Duration":572519,"SoundDuration":572519,"Delta":296053615},{"NoteNumber":67,"Velocity":40,"Duration":908242,"SoundDuration":908242,"Delta":296053615},{"NoteNumber":63,"Velocity":38,"Duration":908242,"SoundDuration":908242,"Delta":296053615},{"NoteNumber":74,"Velocity":50,"Duration":114503,"SoundDuration":114503,"Delta":296626134},{"NoteNumber":79,"Velocity":57,"Duration":123340,"SoundDuration":123340,"Delta":296740638},{"NoteNumber":77,"Velocity":54,"Duration":119697,"SoundDuration":119697,"Delta":296853109},{"NoteNumber":75,"Velocity":53,"Duration":120598,"SoundDuration":120598,"Delta":296961858},{"NoteNumber":74,"Velocity":51,"Duration":121527,"SoundDuration":121527,"Delta":297071427},{"NoteNumber":72,"Velocity":49,"Duration":122457,"SoundDuration":122457,"Delta":297181844},{"NoteNumber":70,"Velocity":47,"Duration":123400,"SoundDuration":123400,"Delta":297293107},{"NoteNumber":69,"Velocity":53,"Duration":124373,"SoundDuration":124373,"Delta":297405230},{"NoteNumber":70,"Velocity":51,"Duration":122532,"SoundDuration":122532,"Delta":297518240},{"NoteNumber":75,"Velocity":59,"Duration":119631,"SoundDuration":119631,"Delta":297629928},{"NoteNumber":74,"Velocity":54,"Duration":120572,"SoundDuration":120572,"Delta":297738611},{"NoteNumber":72,"Velocity":54,"Duration":121486,"SoundDuration":121486,"Delta":297848154},{"NoteNumber":70,"Velocity":52,"Duration":122429,"SoundDuration":122429,"Delta":297958529},{"NoteNumber":68,"Velocity":50,"Duration":123372,"SoundDuration":123372,"Delta":298069765},{"NoteNumber":67,"Velocity":50,"Duration":124330,"SoundDuration":124330,"Delta":298181859},{"NoteNumber":66,"Velocity":52,"Duration":125318,"SoundDuration":125318,"Delta":298294827},{"NoteNumber":67,"Velocity":46,"Duration":126306,"SoundDuration":126306,"Delta":298408694},{"NoteNumber":72,"Velocity":56,"Duration":123214,"SoundDuration":123214,"Delta":298523462},{"NoteNumber":70,"Velocity":55,"Duration":118229,"SoundDuration":118229,"Delta":298635962},{"NoteNumber":68,"Velocity":54,"Duration":119109,"SoundDuration":119109,"Delta":298743401},{"NoteNumber":67,"Velocity":52,"Duration":120014,"SoundDuration":120014,"Delta":298851640},{"NoteNumber":65,"Velocity":50,"Duration":121175,"SoundDuration":121175,"Delta":298960706},{"NoteNumber":63,"Velocity":48,"Duration":122113,"SoundDuration":122113,"Delta":299070853},{"NoteNumber":62,"Velocity":46,"Duration":123093,"SoundDuration":123093,"Delta":299181855},{"NoteNumber":63,"Velocity":45,"Duration":124359,"SoundDuration":124359,"Delta":299293712},{"NoteNumber":68,"Velocity":52,"Duration":122776,"SoundDuration":122776,"Delta":299406708},{"NoteNumber":67,"Velocity":51,"Duration":119948,"SoundDuration":119948,"Delta":299518615},{"NoteNumber":65,"Velocity":49,"Duration":121285,"SoundDuration":121285,"Delta":299627615},{"NoteNumber":63,"Velocity":47,"Duration":122692,"SoundDuration":122692,"Delta":299737790},{"NoteNumber":62,"Velocity":44,"Duration":124147,"SoundDuration":124147,"Delta":299849288},{"NoteNumber":60,"Velocity":42,"Duration":127922,"SoundDuration":127922,"Delta":299962072},{"NoteNumber":57,"Velocity":39,"Duration":121951,"SoundDuration":121951,"Delta":300077799},{"NoteNumber":46,"Velocity":35,"Duration":2857235,"SoundDuration":2857235,"Delta":300077799},{"NoteNumber":58,"Velocity":39,"Duration":121951,"SoundDuration":121951,"Delta":300199750},{"NoteNumber":59,"Velocity":40,"Duration":121295,"SoundDuration":121295,"Delta":300321702},{"NoteNumber":60,"Velocity":41,"Duration":120967,"SoundDuration":120967,"Delta":300442997},{"NoteNumber":61,"Velocity":42,"Duration":120870,"SoundDuration":120870,"Delta":300563965},{"NoteNumber":55,"Velocity":29,"Duration":480347,"SoundDuration":480347,"Delta":300563965},{"NoteNumber":51,"Velocity":24,"Duration":480347,"SoundDuration":480347,"Delta":300563965},{"NoteNumber":62,"Velocity":42,"Duration":120000,"SoundDuration":120000,"Delta":300684836},{"NoteNumber":63,"Velocity":43,"Duration":120000,"SoundDuration":120000,"Delta":300804836},{"NoteNumber":64,"Velocity":44,"Duration":119476,"SoundDuration":119476,"Delta":300924836},{"NoteNumber":65,"Velocity":45,"Duration":119047,"SoundDuration":119047,"Delta":301044312},{"NoteNumber":55,"Velocity":32,"Duration":474331,"SoundDuration":474331,"Delta":301044312},{"NoteNumber":51,"Velocity":27,"Duration":474331,"SoundDuration":474331,"Delta":301044312},{"NoteNumber":66,"Velocity":45,"Duration":119047,"SoundDuration":119047,"Delta":301163360},{"NoteNumber":67,"Velocity":46,"Duration":118125,"SoundDuration":118125,"Delta":301282407},{"NoteNumber":68,"Velocity":47,"Duration":118110,"SoundDuration":118110,"Delta":301400533},{"NoteNumber":69,"Velocity":49,"Duration":117725,"SoundDuration":117725,"Delta":301518644},{"NoteNumber":51,"Velocity":35,"Duration":468501,"SoundDuration":468501,"Delta":301518644},{"NoteNumber":55,"Velocity":43,"Duration":468501,"SoundDuration":468501,"Delta":301518644},{"NoteNumber":70,"Velocity":50,"Duration":117187,"SoundDuration":117187,"Delta":301636369},{"NoteNumber":71,"Velocity":52,"Duration":117187,"SoundDuration":117187,"Delta":301753557},{"NoteNumber":72,"Velocity":54,"Duration":116400,"SoundDuration":116400,"Delta":301870744},{"NoteNumber":73,"Velocity":56,"Duration":116279,"SoundDuration":116279,"Delta":301987145},{"NoteNumber":51,"Velocity":41,"Duration":462942,"SoundDuration":462942,"Delta":301987145},{"NoteNumber":55,"Velocity":49,"Duration":462942,"SoundDuration":462942,"Delta":301987145},{"NoteNumber":74,"Velocity":58,"Duration":116010,"SoundDuration":116010,"Delta":302103424},{"NoteNumber":75,"Velocity":60,"Duration":115384,"SoundDuration":115384,"Delta":302219434},{"NoteNumber":76,"Velocity":61,"Duration":115268,"SoundDuration":115268,"Delta":302334819},{"NoteNumber":77,"Velocity":64,"Duration":91097,"SoundDuration":91097,"Delta":302450087},{"NoteNumber":51,"Velocity":47,"Duration":512725,"SoundDuration":512725,"Delta":302450087},{"NoteNumber":55,"Velocity":55,"Duration":512725,"SoundDuration":512725,"Delta":302450087},{"NoteNumber":78,"Velocity":65,"Duration":91940,"SoundDuration":91940,"Delta":302541184},{"NoteNumber":79,"Velocity":67,"Duration":92799,"SoundDuration":92799,"Delta":302633125},{"NoteNumber":80,"Velocity":69,"Duration":103554,"SoundDuration":103554,"Delta":302725925},{"NoteNumber":81,"Velocity":70,"Duration":133333,"SoundDuration":133333,"Delta":302829480},{"NoteNumber":82,"Velocity":80,"Duration":564764,"SoundDuration":564764,"Delta":302962813},{"NoteNumber":46,"Velocity":45,"Duration":1397476,"SoundDuration":1397476,"Delta":302962813},{"NoteNumber":56,"Velocity":62,"Duration":451127,"SoundDuration":451127,"Delta":302962813},{"NoteNumber":50,"Velocity":52,"Duration":451127,"SoundDuration":451127,"Delta":302962813},{"NoteNumber":50,"Velocity":33,"Duration":454545,"SoundDuration":454545,"Delta":303413941},{"NoteNumber":56,"Velocity":39,"Duration":454545,"SoundDuration":454545,"Delta":303413941},{"NoteNumber":80,"Velocity":69,"Duration":113636,"SoundDuration":113636,"Delta":303527577},{"NoteNumber":77,"Velocity":66,"Duration":113636,"SoundDuration":113636,"Delta":303641214},{"NoteNumber":74,"Velocity":63,"Duration":113636,"SoundDuration":113636,"Delta":303754850},{"NoteNumber":70,"Velocity":60,"Duration":122950,"SoundDuration":122950,"Delta":303868486},{"NoteNumber":50,"Velocity":32,"Duration":491803,"SoundDuration":491803,"Delta":303868486},{"NoteNumber":56,"Velocity":38,"Duration":491803,"SoundDuration":491803,"Delta":303868486},{"NoteNumber":68,"Velocity":57,"Duration":122950,"SoundDuration":122950,"Delta":303991437},{"NoteNumber":65,"Velocity":54,"Duration":122950,"SoundDuration":122950,"Delta":304114388},{"NoteNumber":62,"Velocity":51,"Duration":122950,"SoundDuration":122950,"Delta":304237339},{"NoteNumber":63,"Velocity":56,"Duration":902256,"SoundDuration":902256,"Delta":304360290},{"NoteNumber":51,"Velocity":44,"Duration":451127,"SoundDuration":451127,"Delta":304360290},{"NoteNumber":55,"Velocity":39,"Duration":451128,"SoundDuration":451128,"Delta":304811418},{"NoteNumber":58,"Velocity":39,"Duration":451127,"SoundDuration":451127,"Delta":305262546},{"NoteNumber":63,"Velocity":44,"Duration":451127,"SoundDuration":451127,"Delta":305713674},{"NoteNumber":67,"Velocity":38,"Duration":451128,"SoundDuration":451128,"Delta":306164802},{"NoteNumber":75,"Velocity":56,"Duration":1336844,"SoundDuration":1336844,"Delta":306615930},{"NoteNumber":78,"Velocity":67,"Duration":885716,"SoundDuration":885716,"Delta":306615930},{"NoteNumber":69,"Velocity":38,"Duration":447761,"SoundDuration":447761,"Delta":306615930},{"NoteNumber":70,"Velocity":44,"Duration":889083,"SoundDuration":889083,"Delta":307063691},{"NoteNumber":79,"Velocity":54,"Duration":451127,"SoundDuration":451127,"Delta":307501647},{"NoteNumber":80,"Velocity":59,"Duration":351562,"SoundDuration":351562,"Delta":307952775},{"NoteNumber":74,"Velocity":50,"Duration":468750,"SoundDuration":468750,"Delta":307952775},{"NoteNumber":65,"Velocity":44,"Duration":351562,"SoundDuration":351562,"Delta":307952775},{"NoteNumber":58,"Velocity":37,"Duration":468750,"SoundDuration":468750,"Delta":307952775},{"NoteNumber":77,"Velocity":53,"Duration":117187,"SoundDuration":117187,"Delta":308304337},{"NoteNumber":68,"Velocity":40,"Duration":117187,"SoundDuration":117187,"Delta":308304337},{"NoteNumber":67,"Velocity":48,"Duration":902256,"SoundDuration":902256,"Delta":308421525},{"NoteNumber":75,"Velocity":56,"Duration":902256,"SoundDuration":902256,"Delta":308421525},{"NoteNumber":39,"Velocity":44,"Duration":451127,"SoundDuration":451127,"Delta":308421525},{"NoteNumber":43,"Velocity":39,"Duration":451128,"SoundDuration":451128,"Delta":308872653},{"NoteNumber":46,"Velocity":39,"Duration":451127,"SoundDuration":451127,"Delta":309323781},{"NoteNumber":51,"Velocity":44,"Duration":451127,"SoundDuration":451127,"Delta":309774909},{"NoteNumber":55,"Velocity":38,"Duration":451128,"SoundDuration":451128,"Delta":310226037},{"NoteNumber":66,"Velocity":60,"Duration":885716,"SoundDuration":885716,"Delta":310677165},{"NoteNumber":63,"Velocity":50,"Duration":1336844,"SoundDuration":1336844,"Delta":310677165},{"NoteNumber":57,"Velocity":34,"Duration":447761,"SoundDuration":447761,"Delta":310677165},{"NoteNumber":58,"Velocity":39,"Duration":889083,"SoundDuration":889083,"Delta":311124926},{"NoteNumber":67,"Velocity":48,"Duration":451127,"SoundDuration":451127,"Delta":311562882},{"NoteNumber":68,"Velocity":53,"Duration":351562,"SoundDuration":351562,"Delta":312014010},{"NoteNumber":62,"Velocity":45,"Duration":469672,"SoundDuration":469672,"Delta":312014010},{"NoteNumber":53,"Velocity":39,"Duration":351562,"SoundDuration":351562,"Delta":312014010},{"NoteNumber":46,"Velocity":33,"Duration":469672,"SoundDuration":469672,"Delta":312014010},{"NoteNumber":65,"Velocity":43,"Duration":118110,"SoundDuration":118110,"Delta":312365572},{"NoteNumber":56,"Velocity":36,"Duration":118110,"SoundDuration":118110,"Delta":312365572},{"NoteNumber":63,"Velocity":48,"Duration":472441,"SoundDuration":472441,"Delta":312483683},{"NoteNumber":51,"Velocity":34,"Duration":472441,"SoundDuration":472441,"Delta":312483683},{"NoteNumber":55,"Velocity":40,"Duration":472441,"SoundDuration":472441,"Delta":312483683},{"NoteNumber":68,"Velocity":51,"Duration":671641,"SoundDuration":671641,"Delta":312956124},{"NoteNumber":62,"Velocity":43,"Duration":895522,"SoundDuration":895522,"Delta":312956124},{"NoteNumber":46,"Velocity":33,"Duration":895522,"SoundDuration":895522,"Delta":312956124},{"NoteNumber":53,"Velocity":39,"Duration":671641,"SoundDuration":671641,"Delta":312956124},{"NoteNumber":65,"Velocity":44,"Duration":223880,"SoundDuration":223880,"Delta":313627765},{"NoteNumber":56,"Velocity":34,"Duration":223880,"SoundDuration":223880,"Delta":313627765},{"NoteNumber":63,"Velocity":48,"Duration":483871,"SoundDuration":483871,"Delta":313851646},{"NoteNumber":51,"Velocity":34,"Duration":483871,"SoundDuration":483871,"Delta":313851646},{"NoteNumber":55,"Velocity":40,"Duration":483871,"SoundDuration":483871,"Delta":313851646},{"NoteNumber":68,"Velocity":51,"Duration":687023,"SoundDuration":687023,"Delta":314335517},{"NoteNumber":62,"Velocity":43,"Duration":916030,"SoundDuration":916030,"Delta":314335517},{"NoteNumber":46,"Velocity":33,"Duration":916030,"SoundDuration":916030,"Delta":314335517},{"NoteNumber":53,"Velocity":39,"Duration":687023,"SoundDuration":687023,"Delta":314335517},{"NoteNumber":65,"Velocity":44,"Duration":229007,"SoundDuration":229007,"Delta":315022540},{"NoteNumber":56,"Velocity":34,"Duration":229007,"SoundDuration":229007,"Delta":315022540},{"NoteNumber":63,"Velocity":48,"Duration":500000,"SoundDuration":500000,"Delta":315251548},{"NoteNumber":51,"Velocity":34,"Duration":500000,"SoundDuration":500000,"Delta":315251548},{"NoteNumber":55,"Velocity":40,"Duration":500000,"SoundDuration":500000,"Delta":315251548},{"NoteNumber":68,"Velocity":60,"Duration":241935,"SoundDuration":241935,"Delta":315751548},{"NoteNumber":56,"Velocity":50,"Duration":463709,"SoundDuration":463709,"Delta":315751548},{"NoteNumber":46,"Velocity":38,"Duration":483871,"SoundDuration":483871,"Delta":315751548},{"NoteNumber":53,"Velocity":46,"Duration":241935,"SoundDuration":241935,"Delta":315751548},{"NoteNumber":67,"Velocity":56,"Duration":241935,"SoundDuration":241935,"Delta":315993483},{"NoteNumber":52,"Velocity":43,"Duration":241935,"SoundDuration":241935,"Delta":315993483},{"NoteNumber":56,"Velocity":49,"Duration":582150,"SoundDuration":582150,"Delta":316235419},{"NoteNumber":68,"Velocity":66,"Duration":258620,"SoundDuration":258620,"Delta":316235419},{"NoteNumber":46,"Velocity":38,"Duration":611561,"SoundDuration":611561,"Delta":316235419},{"NoteNumber":53,"Velocity":51,"Duration":258620,"SoundDuration":258620,"Delta":316235419},{"NoteNumber":65,"Velocity":61,"Duration":352941,"SoundDuration":352941,"Delta":316494039},{"NoteNumber":50,"Velocity":47,"Duration":352941,"SoundDuration":352941,"Delta":316494039},{"NoteNumber":64,"Velocity":35,"Duration":123456,"SoundDuration":123456,"Delta":316846981},{"NoteNumber":65,"Velocity":34,"Duration":123456,"SoundDuration":123456,"Delta":316970437},{"NoteNumber":67,"Velocity":28,"Duration":123456,"SoundDuration":123456,"Delta":317093894},{"NoteNumber":56,"Velocity":31,"Duration":2173912,"SoundDuration":2173912,"Delta":317217351},{"NoteNumber":65,"Velocity":37,"Duration":2173912,"SoundDuration":2173912,"Delta":317217351},{"NoteNumber":39,"Velocity":26,"Duration":3913042,"SoundDuration":3913042,"Delta":317217351},{"NoteNumber":50,"Velocity":31,"Duration":2173912,"SoundDuration":2173912,"Delta":317217351},{"NoteNumber":46,"Velocity":26,"Duration":3913042,"SoundDuration":3913042,"Delta":317217351},{"NoteNumber":55,"Velocity":27,"Duration":1739130,"SoundDuration":1739130,"Delta":319391263},{"NoteNumber":63,"Velocity":27,"Duration":1739130,"SoundDuration":1739130,"Delta":319391263},{"NoteNumber":51,"Velocity":25,"Duration":1739130,"SoundDuration":1739130,"Delta":319391263}],"license":{"name":"Creative Commons Attribution-ShareAlike 3.0 Germany","url":"http://creativecommons.org/licenses/by-sa/3.0/de/deed.en","text":"The MIDI files in this folder were downloaded from http://www.piano-midi.de and are licensed under the Creative Commons Attribution-ShareAlike 3.0 Germany license by Bernd Krueger.\n\nThe MIDI, audio(MP3, OGG) and video files of Bernd Krueger are licensed under the cc-by-sa Germany License . This means, that you can use and adapt the files, as long as you attribute to the copyright holder Name: Bernd Krueger Source: http://www.piano-midi.de The distribution or public playback of the files is only allowed under identical license conditions . The scores are open source.","attribution":"Bernd Krueger","attributionUrl":"http://www.piano-midi.de"}}