{"title":"Piano Sonata No. 23 in F minor, Op. 57 'Appassionata': II. Andante con moto","artist":"Beethoven","durationMs":369883,"midiSha256":"886b80e9e555f7344d6bcfed53be8f6c77d5b4b3d21444e33e5c107f24bc8ab7","midiObject":[{"NoteNumber":49,"Velocity":39,"Duration":1419782,"SoundDuration":1419782,"Delta":0},{"NoteNumber":53,"Velocity":39,"Duration":1419782,"SoundDuration":1419782,"Delta":0},{"NoteNumber":56,"Velocity":47,"Duration":1419782,"SoundDuration":1419782,"Delta":0},{"NoteNumber":37,"Velocity":47,"Duration":1419782,"SoundDuration":1419782,"Delta":0},{"NoteNumber":49,"Velocity":37,"Duration":1447527,"SoundDuration":1447527,"Delta":1419782},{"NoteNumber":58,"Velocity":44,"Duration":1447527,"SoundDuration":1447527,"Delta":1419782},{"NoteNumber":54,"Velocity":44,"Duration":1447527,"SoundDuration":1447527,"Delta":1419782},{"NoteNumber":30,"Velocity":35,"Duration":1447527,"SoundDuration":1447527,"Delta":1419782},{"NoteNumber":49,"Velocity":37,"Duration":1943844,"SoundDuration":1943844,"Delta":2867309},{"NoteNumber":53,"Velocity":37,"Duration":1943844,"SoundDuration":1943844,"Delta":2867309},{"NoteNumber":56,"Velocity":44,"Duration":1943844,"SoundDuration":1943844,"Delta":2867309},{"NoteNumber":37,"Velocity":37,"Duration":1943844,"SoundDuration":1943844,"Delta":2867309},{"NoteNumber":58,"Velocity":44,"Duration":685400,"SoundDuration":685400,"Delta":4811153},{"NoteNumber":51,"Velocity":37,"Duration":685400,"SoundDuration":685400,"Delta":4811153},{"NoteNumber":49,"Velocity":37,"Duration":685400,"SoundDuration":685400,"Delta":4811153},{"NoteNumber":30,"Velocity":35,"Duration":685400,"SoundDuration":685400,"Delta":4811153},{"NoteNumber":49,"Velocity":39,"Duration":1419781,"SoundDuration":1419781,"Delta":5496554},{"NoteNumber":51,"Velocity":39,"Duration":1419781,"SoundDuration":1419781,"Delta":5496554},{"NoteNumber":56,"Velocity":47,"Duration":1419781,"SoundDuration":1419781,"Delta":5496554},{"NoteNumber":32,"Velocity":40,"Duration":1419781,"SoundDuration":1419781,"Delta":5496554},{"NoteNumber":56,"Velocity":46,"Duration":1355320,"SoundDuration":1355320,"Delta":6916335},{"NoteNumber":48,"Velocity":38,"Duration":1355320,"SoundDuration":1355320,"Delta":6916335},{"NoteNumber":51,"Velocity":38,"Duration":1355320,"SoundDuration":1355320,"Delta":6916335},{"NoteNumber":44,"Velocity":40,"Duration":1185905,"SoundDuration":1185905,"Delta":6916335},{"NoteNumber":42,"Velocity":36,"Duration":169415,"SoundDuration":169415,"Delta":8102240},{"NoteNumber":49,"Velocity":39,"Duration":2563310,"SoundDuration":2563310,"Delta":8271656},{"NoteNumber":53,"Velocity":39,"Duration":2563310,"SoundDuration":2563310,"Delta":8271656},{"NoteNumber":56,"Velocity":47,"Duration":2563310,"SoundDuration":2563310,"Delta":8271656},{"NoteNumber":41,"Velocity":43,"Duration":849056,"SoundDuration":849056,"Delta":8271656},{"NoteNumber":42,"Velocity":36,"Duration":314136,"SoundDuration":314136,"Delta":9120712},{"NoteNumber":44,"Velocity":41,"Duration":492880,"SoundDuration":492880,"Delta":9434848},{"NoteNumber":42,"Velocity":37,"Duration":164293,"SoundDuration":164293,"Delta":9927729},{"NoteNumber":41,"Velocity":40,"Duration":541655,"SoundDuration":541655,"Delta":10092022},{"NoteNumber":39,"Velocity":40,"Duration":201288,"SoundDuration":201288,"Delta":10633678},{"NoteNumber":61,"Velocity":54,"Duration":1361470,"SoundDuration":1361470,"Delta":10834966},{"NoteNumber":56,"Velocity":45,"Duration":1361470,"SoundDuration":1361470,"Delta":10834966},{"NoteNumber":53,"Velocity":45,"Duration":1361470,"SoundDuration":1361470,"Delta":10834966},{"NoteNumber":37,"Velocity":39,"Duration":1361470,"SoundDuration":1361470,"Delta":10834966},{"NoteNumber":49,"Velocity":46,"Duration":1361470,"SoundDuration":1361470,"Delta":10834966},{"NoteNumber":54,"Velocity":47,"Duration":1545595,"SoundDuration":1545595,"Delta":12196436},{"NoteNumber":58,"Velocity":47,"Duration":1545595,"SoundDuration":1545595,"Delta":12196436},{"NoteNumber":61,"Velocity":56,"Duration":1545595,"SoundDuration":1545595,"Delta":12196436},{"NoteNumber":42,"Velocity":48,"Duration":1545595,"SoundDuration":1545595,"Delta":12196436},{"NoteNumber":30,"Velocity":40,"Duration":1545595,"SoundDuration":1545595,"Delta":12196436},{"NoteNumber":56,"Velocity":36,"Duration":1926683,"SoundDuration":1926683,"Delta":13742031},{"NoteNumber":53,"Velocity":36,"Duration":1926683,"SoundDuration":1926683,"Delta":13742031},{"NoteNumber":61,"Velocity":44,"Duration":1926683,"SoundDuration":1926683,"Delta":13742031},{"NoteNumber":37,"Velocity":27,"Duration":1926683,"SoundDuration":1926683,"Delta":13742031},{"NoteNumber":49,"Velocity":32,"Duration":1926683,"SoundDuration":1926683,"Delta":13742031},{"NoteNumber":52,"Velocity":37,"Duration":709891,"SoundDuration":709891,"Delta":15668714},{"NoteNumber":61,"Velocity":44,"Duration":709891,"SoundDuration":709891,"Delta":15668714},{"NoteNumber":55,"Velocity":37,"Duration":709891,"SoundDuration":709891,"Delta":15668714},{"NoteNumber":33,"Velocity":30,"Duration":709891,"SoundDuration":709891,"Delta":15668714},{"NoteNumber":45,"Velocity":36,"Duration":709891,"SoundDuration":709891,"Delta":15668714},{"NoteNumber":54,"Velocity":39,"Duration":1419781,"SoundDuration":1419781,"Delta":16378605},{"NoteNumber":51,"Velocity":39,"Duration":1419781,"SoundDuration":1419781,"Delta":16378605},{"NoteNumber":61,"Velocity":47,"Duration":1419781,"SoundDuration":1419781,"Delta":16378605},{"NoteNumber":32,"Velocity":31,"Duration":1419781,"SoundDuration":1419781,"Delta":16378605},{"NoteNumber":44,"Velocity":37,"Duration":1419781,"SoundDuration":1419781,"Delta":16378605},{"NoteNumber":51,"Velocity":37,"Duration":1466276,"SoundDuration":1466276,"Delta":17798387},{"NoteNumber":60,"Velocity":43,"Duration":1466276,"SoundDuration":1466276,"Delta":17798387},{"NoteNumber":54,"Velocity":37,"Duration":1466276,"SoundDuration":1466276,"Delta":17798387},{"NoteNumber":44,"Velocity":34,"Duration":1959156,"SoundDuration":1959156,"Delta":17798387},{"NoteNumber":49,"Velocity":37,"Duration":2071174,"SoundDuration":2071174,"Delta":19264663},{"NoteNumber":53,"Velocity":37,"Duration":2071174,"SoundDuration":2071174,"Delta":19264663},{"NoteNumber":61,"Velocity":43,"Duration":2071174,"SoundDuration":2071174,"Delta":19264663},{"NoteNumber":42,"Velocity":28,"Duration":168220,"SoundDuration":168220,"Delta":19757544},{"NoteNumber":41,"Velocity":32,"Duration":536138,"SoundDuration":536138,"Delta":19925764},{"NoteNumber":39,"Velocity":27,"Duration":193199,"SoundDuration":193199,"Delta":20461903},{"NoteNumber":37,"Velocity":27,"Duration":680734,"SoundDuration":680734,"Delta":20655102},{"NoteNumber":49,"Velocity":39,"Duration":1419782,"SoundDuration":1419782,"Delta":22016572},{"NoteNumber":53,"Velocity":39,"Duration":1419782,"SoundDuration":1419782,"Delta":22016572},{"NoteNumber":56,"Velocity":47,"Duration":1419782,"SoundDuration":1419782,"Delta":22016572},{"NoteNumber":37,"Velocity":47,"Duration":1419782,"SoundDuration":1419782,"Delta":22016572},{"NoteNumber":49,"Velocity":37,"Duration":1466276,"SoundDuration":1466276,"Delta":23436354},{"NoteNumber":54,"Velocity":44,"Duration":1466276,"SoundDuration":1466276,"Delta":23436354},{"NoteNumber":58,"Velocity":44,"Duration":1466276,"SoundDuration":1466276,"Delta":23436354},{"NoteNumber":30,"Velocity":35,"Duration":1466276,"SoundDuration":1466276,"Delta":23436354},{"NoteNumber":49,"Velocity":37,"Duration":1908141,"SoundDuration":1908141,"Delta":24902630},{"NoteNumber":53,"Velocity":37,"Duration":1908141,"SoundDuration":1908141,"Delta":24902630},{"NoteNumber":56,"Velocity":44,"Duration":1908141,"SoundDuration":1908141,"Delta":24902630},{"NoteNumber":37,"Velocity":37,"Duration":1908141,"SoundDuration":1908141,"Delta":24902630},{"NoteNumber":49,"Velocity":37,"Duration":659340,"SoundDuration":659340,"Delta":26810771},{"NoteNumber":51,"Velocity":37,"Duration":659340,"SoundDuration":659340,"Delta":26810771},{"NoteNumber":58,"Velocity":44,"Duration":659340,"SoundDuration":659340,"Delta":26810771},{"NoteNumber":30,"Velocity":35,"Duration":659340,"SoundDuration":659340,"Delta":26810771},{"NoteNumber":49,"Velocity":39,"Duration":1419782,"SoundDuration":1419782,"Delta":27470112},{"NoteNumber":51,"Velocity":39,"Duration":1419782,"SoundDuration":1419782,"Delta":27470112},{"NoteNumber":56,"Velocity":47,"Duration":1419782,"SoundDuration":1419782,"Delta":27470112},{"NoteNumber":32,"Velocity":40,"Duration":1419782,"SoundDuration":1419782,"Delta":27470112},{"NoteNumber":48,"Velocity":38,"Duration":1355319,"SoundDuration":1355319,"Delta":28889894},{"NoteNumber":51,"Velocity":38,"Duration":1355319,"SoundDuration":1355319,"Delta":28889894},{"NoteNumber":56,"Velocity":46,"Duration":1355319,"SoundDuration":1355319,"Delta":28889894},{"NoteNumber":44,"Velocity":40,"Duration":1185905,"SoundDuration":1185905,"Delta":28889894},{"NoteNumber":42,"Velocity":36,"Duration":169414,"SoundDuration":169414,"Delta":30075799},{"NoteNumber":49,"Velocity":39,"Duration":2549174,"SoundDuration":2549174,"Delta":30245214},{"NoteNumber":53,"Velocity":39,"Duration":2549174,"SoundDuration":2549174,"Delta":30245214},{"NoteNumber":56,"Velocity":47,"Duration":2549174,"SoundDuration":2549174,"Delta":30245214},{"NoteNumber":41,"Velocity":43,"Duration":849056,"SoundDuration":849056,"Delta":30245214},{"NoteNumber":42,"Velocity":36,"Duration":300000,"SoundDuration":300000,"Delta":31094270},{"NoteNumber":44,"Velocity":41,"Duration":492880,"SoundDuration":492880,"Delta":31394270},{"NoteNumber":42,"Velocity":37,"Duration":164293,"SoundDuration":164293,"Delta":31887150},{"NoteNumber":41,"Velocity":40,"Duration":541655,"SoundDuration":541655,"Delta":32051444},{"NoteNumber":39,"Velocity":40,"Duration":201288,"SoundDuration":201288,"Delta":32593100},{"NoteNumber":53,"Velocity":45,"Duration":1318680,"SoundDuration":1318680,"Delta":32794388},{"NoteNumber":56,"Velocity":45,"Duration":1318680,"SoundDuration":1318680,"Delta":32794388},{"NoteNumber":61,"Velocity":54,"Duration":1318680,"SoundDuration":1318680,"Delta":32794388},{"NoteNumber":37,"Velocity":39,"Duration":1318680,"SoundDuration":1318680,"Delta":32794388},{"NoteNumber":49,"Velocity":46,"Duration":1318680,"SoundDuration":1318680,"Delta":32794388},{"NoteNumber":54,"Velocity":47,"Duration":1578946,"SoundDuration":1578946,"Delta":34113069},{"NoteNumber":58,"Velocity":47,"Duration":1578946,"SoundDuration":1578946,"Delta":34113069},{"NoteNumber":61,"Velocity":56,"Duration":1578946,"SoundDuration":1578946,"Delta":34113069},{"NoteNumber":30,"Velocity":40,"Duration":1578946,"SoundDuration":1578946,"Delta":34113069},{"NoteNumber":42,"Velocity":48,"Duration":1578946,"SoundDuration":1578946,"Delta":34113069},{"NoteNumber":53,"Velocity":34,"Duration":1926682,"SoundDuration":1926682,"Delta":35692016},{"NoteNumber":56,"Velocity":34,"Duration":1926682,"SoundDuration":1926682,"Delta":35692016},{"NoteNumber":61,"Velocity":41,"Duration":1926682,"SoundDuration":1926682,"Delta":35692016},{"NoteNumber":37,"Velocity":25,"Duration":1926682,"SoundDuration":1926682,"Delta":35692016},{"NoteNumber":49,"Velocity":30,"Duration":1926682,"SoundDuration":1926682,"Delta":35692016},{"NoteNumber":52,"Velocity":37,"Duration":709890,"SoundDuration":709890,"Delta":37618699},{"NoteNumber":55,"Velocity":37,"Duration":709890,"SoundDuration":709890,"Delta":37618699},{"NoteNumber":61,"Velocity":44,"Duration":709890,"SoundDuration":709890,"Delta":37618699},{"NoteNumber":33,"Velocity":30,"Duration":709890,"SoundDuration":709890,"Delta":37618699},{"NoteNumber":45,"Velocity":36,"Duration":709890,"SoundDuration":709890,"Delta":37618699},{"NoteNumber":51,"Velocity":39,"Duration":1419782,"SoundDuration":1419782,"Delta":38328590},{"NoteNumber":54,"Velocity":39,"Duration":1419782,"SoundDuration":1419782,"Delta":38328590},{"NoteNumber":61,"Velocity":47,"Duration":1419782,"SoundDuration":1419782,"Delta":38328590},{"NoteNumber":32,"Velocity":31,"Duration":1419782,"SoundDuration":1419782,"Delta":38328590},{"NoteNumber":44,"Velocity":37,"Duration":1419782,"SoundDuration":1419782,"Delta":38328590},{"NoteNumber":51,"Velocity":37,"Duration":1466276,"SoundDuration":1466276,"Delta":39748372},{"NoteNumber":54,"Velocity":37,"Duration":1466276,"SoundDuration":1466276,"Delta":39748372},{"NoteNumber":60,"Velocity":43,"Duration":1466276,"SoundDuration":1466276,"Delta":39748372},{"NoteNumber":44,"Velocity":34,"Duration":1959156,"SoundDuration":1959156,"Delta":39748372},{"NoteNumber":49,"Velocity":37,"Duration":2071174,"SoundDuration":2071174,"Delta":41214648},{"NoteNumber":53,"Velocity":37,"Duration":2071174,"SoundDuration":2071174,"Delta":41214648},{"NoteNumber":61,"Velocity":43,"Duration":2071174,"SoundDuration":2071174,"Delta":41214648},{"NoteNumber":42,"Velocity":28,"Duration":168220,"SoundDuration":168220,"Delta":41707528},{"NoteNumber":41,"Velocity":31,"Duration":536138,"SoundDuration":536138,"Delta":41875749},{"NoteNumber":39,"Velocity":27,"Duration":193199,"SoundDuration":193199,"Delta":42411888},{"NoteNumber":37,"Velocity":27,"Duration":680734,"SoundDuration":680734,"Delta":42605087},{"NoteNumber":48,"Velocity":39,"Duration":1419781,"SoundDuration":1419781,"Delta":43966557},{"NoteNumber":51,"Velocity":39,"Duration":1419781,"SoundDuration":1419781,"Delta":43966557},{"NoteNumber":56,"Velocity":47,"Duration":1419781,"SoundDuration":1419781,"Delta":43966557},{"NoteNumber":42,"Velocity":40,"Duration":1419781,"SoundDuration":1419781,"Delta":43966557},{"NoteNumber":44,"Velocity":40,"Duration":1419781,"SoundDuration":1419781,"Delta":43966557},{"NoteNumber":48,"Velocity":37,"Duration":1210256,"SoundDuration":1210256,"Delta":45386339},{"NoteNumber":54,"Velocity":44,"Duration":1210256,"SoundDuration":1210256,"Delta":45386339},{"NoteNumber":56,"Velocity":44,"Duration":1210256,"SoundDuration":1210256,"Delta":45386339},{"NoteNumber":39,"Velocity":35,"Duration":1210256,"SoundDuration":1210256,"Delta":45386339},{"NoteNumber":44,"Velocity":35,"Duration":1210256,"SoundDuration":1210256,"Delta":45386339},{"NoteNumber":48,"Velocity":37,"Duration":201288,"SoundDuration":201288,"Delta":46596595},{"NoteNumber":51,"Velocity":44,"Duration":201288,"SoundDuration":201288,"Delta":46596595},{"NoteNumber":56,"Velocity":44,"Duration":201288,"SoundDuration":201288,"Delta":46596595},{"NoteNumber":42,"Velocity":35,"Duration":201288,"SoundDuration":201288,"Delta":46596595},{"NoteNumber":44,"Velocity":35,"Duration":201288,"SoundDuration":201288,"Delta":46596595},{"NoteNumber":49,"Velocity":39,"Duration":1033295,"SoundDuration":1033295,"Delta":46797884},{"NoteNumber":53,"Velocity":39,"Duration":1033295,"SoundDuration":1033295,"Delta":46797884},{"NoteNumber":56,"Velocity":47,"Duration":1033295,"SoundDuration":1033295,"Delta":46797884},{"NoteNumber":41,"Velocity":33,"Duration":1033295,"SoundDuration":1033295,"Delta":46797884},{"NoteNumber":44,"Velocity":39,"Duration":1033295,"SoundDuration":1033295,"Delta":46797884},{"NoteNumber":53,"Velocity":45,"Duration":324815,"SoundDuration":324815,"Delta":47831179},{"NoteNumber":56,"Velocity":45,"Duration":324815,"SoundDuration":324815,"Delta":47831179},{"NoteNumber":61,"Velocity":53,"Duration":324815,"SoundDuration":324815,"Delta":47831179},{"NoteNumber":37,"Velocity":39,"Duration":324815,"SoundDuration":324815,"Delta":47831179},{"NoteNumber":44,"Velocity":46,"Duration":324815,"SoundDuration":324815,"Delta":47831179},{"NoteNumber":56,"Velocity":41,"Duration":714626,"SoundDuration":714626,"Delta":48155995},{"NoteNumber":54,"Velocity":41,"Duration":714626,"SoundDuration":714626,"Delta":48155995},{"NoteNumber":60,"Velocity":49,"Duration":714626,"SoundDuration":714626,"Delta":48155995},{"NoteNumber":39,"Velocity":37,"Duration":714626,"SoundDuration":714626,"Delta":48155995},{"NoteNumber":44,"Velocity":44,"Duration":714626,"SoundDuration":714626,"Delta":48155995},{"NoteNumber":53,"Velocity":31,"Duration":685400,"SoundDuration":685400,"Delta":48870621},{"NoteNumber":56,"Velocity":31,"Duration":685400,"SoundDuration":685400,"Delta":48870621},{"NoteNumber":61,"Velocity":37,"Duration":685400,"SoundDuration":685400,"Delta":48870621},{"NoteNumber":37,"Velocity":28,"Duration":685400,"SoundDuration":685400,"Delta":48870621},{"NoteNumber":44,"Velocity":34,"Duration":685400,"SoundDuration":685400,"Delta":48870621},{"NoteNumber":48,"Velocity":39,"Duration":1419781,"SoundDuration":1419781,"Delta":49556022},{"NoteNumber":51,"Velocity":39,"Duration":1419781,"SoundDuration":1419781,"Delta":49556022},{"NoteNumber":56,"Velocity":47,"Duration":1419781,"SoundDuration":1419781,"Delta":49556022},{"NoteNumber":42,"Velocity":40,"Duration":1419781,"SoundDuration":1419781,"Delta":49556022},{"NoteNumber":44,"Velocity":40,"Duration":1419781,"SoundDuration":1419781,"Delta":49556022},{"NoteNumber":48,"Velocity":37,"Duration":1210256,"SoundDuration":1210256,"Delta":50975804},{"NoteNumber":54,"Velocity":44,"Duration":1210256,"SoundDuration":1210256,"Delta":50975804},{"NoteNumber":56,"Velocity":44,"Duration":1210256,"SoundDuration":1210256,"Delta":50975804},{"NoteNumber":39,"Velocity":35,"Duration":1210256,"SoundDuration":1210256,"Delta":50975804},{"NoteNumber":44,"Velocity":35,"Duration":1210256,"SoundDuration":1210256,"Delta":50975804},{"NoteNumber":48,"Velocity":37,"Duration":201288,"SoundDuration":201288,"Delta":52186060},{"NoteNumber":51,"Velocity":44,"Duration":201288,"SoundDuration":201288,"Delta":52186060},{"NoteNumber":56,"Velocity":44,"Duration":201288,"SoundDuration":201288,"Delta":52186060},{"NoteNumber":42,"Velocity":35,"Duration":201288,"SoundDuration":201288,"Delta":52186060},{"NoteNumber":44,"Velocity":35,"Duration":201288,"SoundDuration":201288,"Delta":52186060},{"NoteNumber":49,"Velocity":39,"Duration":1091439,"SoundDuration":1091439,"Delta":52387349},{"NoteNumber":53,"Velocity":39,"Duration":1091439,"SoundDuration":1091439,"Delta":52387349},{"NoteNumber":56,"Velocity":47,"Duration":1091439,"SoundDuration":1091439,"Delta":52387349},{"NoteNumber":41,"Velocity":33,"Duration":1091439,"SoundDuration":1091439,"Delta":52387349},{"NoteNumber":44,"Velocity":39,"Duration":1091439,"SoundDuration":1091439,"Delta":52387349},{"NoteNumber":53,"Velocity":45,"Duration":352941,"SoundDuration":352941,"Delta":53478789},{"NoteNumber":56,"Velocity":45,"Duration":352941,"SoundDuration":352941,"Delta":53478789},{"NoteNumber":65,"Velocity":55,"Duration":352941,"SoundDuration":352941,"Delta":53478789},{"NoteNumber":37,"Velocity":39,"Duration":352941,"SoundDuration":352941,"Delta":53478789},{"NoteNumber":44,"Velocity":46,"Duration":352941,"SoundDuration":352941,"Delta":53478789},{"NoteNumber":56,"Velocity":45,"Duration":673490,"SoundDuration":673490,"Delta":53831730},{"NoteNumber":54,"Velocity":45,"Duration":673490,"SoundDuration":673490,"Delta":53831730},{"NoteNumber":65,"Velocity":58,"Duration":324815,"SoundDuration":324815,"Delta":53831730},{"NoteNumber":36,"Velocity":37,"Duration":673490,"SoundDuration":673490,"Delta":53831730},{"NoteNumber":44,"Velocity":44,"Duration":673490,"SoundDuration":673490,"Delta":53831730},{"NoteNumber":63,"Velocity":51,"Duration":348675,"SoundDuration":348675,"Delta":54156546},{"NoteNumber":53,"Velocity":31,"Duration":733137,"SoundDuration":733137,"Delta":54505221},{"NoteNumber":56,"Velocity":31,"Duration":733137,"SoundDuration":733137,"Delta":54505221},{"NoteNumber":61,"Velocity":37,"Duration":733137,"SoundDuration":733137,"Delta":54505221},{"NoteNumber":37,"Velocity":28,"Duration":733137,"SoundDuration":733137,"Delta":54505221},{"NoteNumber":44,"Velocity":34,"Duration":733137,"SoundDuration":733137,"Delta":54505221},{"NoteNumber":48,"Velocity":46,"Duration":1419781,"SoundDuration":1419781,"Delta":55238359},{"NoteNumber":51,"Velocity":46,"Duration":1419781,"SoundDuration":1419781,"Delta":55238359},{"NoteNumber":56,"Velocity":56,"Duration":1419781,"SoundDuration":1419781,"Delta":55238359},{"NoteNumber":42,"Velocity":48,"Duration":1419781,"SoundDuration":1419781,"Delta":55238359},{"NoteNumber":44,"Velocity":48,"Duration":1419781,"SoundDuration":1419781,"Delta":55238359},{"NoteNumber":48,"Velocity":52,"Duration":1300995,"SoundDuration":1300995,"Delta":56658141},{"NoteNumber":54,"Velocity":62,"Duration":1300995,"SoundDuration":1300995,"Delta":56658141},{"NoteNumber":56,"Velocity":62,"Duration":1300995,"SoundDuration":1300995,"Delta":56658141},{"NoteNumber":39,"Velocity":49,"Duration":1300995,"SoundDuration":1300995,"Delta":56658141},{"NoteNumber":44,"Velocity":49,"Duration":1300995,"SoundDuration":1300995,"Delta":56658141},{"NoteNumber":48,"Velocity":57,"Duration":201288,"SoundDuration":201288,"Delta":57959136},{"NoteNumber":51,"Velocity":68,"Duration":201288,"SoundDuration":201288,"Delta":57959136},{"NoteNumber":56,"Velocity":68,"Duration":201288,"SoundDuration":201288,"Delta":57959136},{"NoteNumber":42,"Velocity":55,"Duration":201288,"SoundDuration":201288,"Delta":57959136},{"NoteNumber":44,"Velocity":55,"Duration":201288,"SoundDuration":201288,"Delta":57959136},{"NoteNumber":56,"Velocity":70,"Duration":1055432,"SoundDuration":1055432,"Delta":58160424},{"NoteNumber":61,"Velocity":70,"Duration":1055432,"SoundDuration":1055432,"Delta":58160424},{"NoteNumber":68,"Velocity":87,"Duration":1055432,"SoundDuration":1055432,"Delta":58160424},{"NoteNumber":41,"Velocity":73,"Duration":1055432,"SoundDuration":1055432,"Delta":58160424},{"NoteNumber":53,"Velocity":73,"Duration":1055432,"SoundDuration":1055432,"Delta":58160424},{"NoteNumber":61,"Velocity":60,"Duration":352941,"SoundDuration":352941,"Delta":59215857},{"NoteNumber":65,"Velocity":60,"Duration":352941,"SoundDuration":352941,"Delta":59215857},{"NoteNumber":68,"Velocity":72,"Duration":352941,"SoundDuration":352941,"Delta":59215857},{"NoteNumber":37,"Velocity":48,"Duration":352941,"SoundDuration":352941,"Delta":59215857},{"NoteNumber":49,"Velocity":53,"Duration":352941,"SoundDuration":352941,"Delta":59215857},{"NoteNumber":63,"Velocity":61,"Duration":661566,"SoundDuration":661566,"Delta":59568798},{"NoteNumber":60,"Velocity":61,"Duration":661566,"SoundDuration":661566,"Delta":59568798},{"NoteNumber":68,"Velocity":79,"Duration":321199,"SoundDuration":321199,"Delta":59568798},{"NoteNumber":39,"Velocity":52,"Duration":661566,"SoundDuration":661566,"Delta":59568798},{"NoteNumber":51,"Velocity":62,"Duration":661566,"SoundDuration":661566,"Delta":59568798},{"NoteNumber":66,"Velocity":66,"Duration":340367,"SoundDuration":340367,"Delta":59889997},{"NoteNumber":56,"Velocity":44,"Duration":685400,"SoundDuration":685400,"Delta":60230365},{"NoteNumber":61,"Velocity":44,"Duration":685400,"SoundDuration":685400,"Delta":60230365},{"NoteNumber":65,"Velocity":55,"Duration":685400,"SoundDuration":685400,"Delta":60230365},{"NoteNumber":41,"Velocity":36,"Duration":685400,"SoundDuration":685400,"Delta":60230365},{"NoteNumber":53,"Velocity":42,"Duration":685400,"SoundDuration":685400,"Delta":60230365},{"NoteNumber":54,"Velocity":39,"Duration":1429251,"SoundDuration":1429251,"Delta":60915766},{"NoteNumber":58,"Velocity":39,"Duration":1429251,"SoundDuration":1429251,"Delta":60915766},{"NoteNumber":63,"Velocity":47,"Duration":1429251,"SoundDuration":1429251,"Delta":60915766},{"NoteNumber":42,"Velocity":37,"Duration":1429251,"SoundDuration":1429251,"Delta":60915766},{"NoteNumber":48,"Velocity":37,"Duration":1466276,"SoundDuration":1466276,"Delta":62345018},{"NoteNumber":51,"Velocity":37,"Duration":1466276,"SoundDuration":1466276,"Delta":62345018},{"NoteNumber":56,"Velocity":43,"Duration":1466276,"SoundDuration":1466276,"Delta":62345018},{"NoteNumber":44,"Velocity":34,"Duration":1959156,"SoundDuration":1959156,"Delta":62345018},{"NoteNumber":49,"Velocity":37,"Duration":2071174,"SoundDuration":2071174,"Delta":63811294},{"NoteNumber":53,"Velocity":37,"Duration":2071174,"SoundDuration":2071174,"Delta":63811294},{"NoteNumber":61,"Velocity":43,"Duration":2071174,"SoundDuration":2071174,"Delta":63811294},{"NoteNumber":42,"Velocity":28,"Duration":168220,"SoundDuration":168220,"Delta":64304174},{"NoteNumber":41,"Velocity":30,"Duration":536138,"SoundDuration":536138,"Delta":64472395},{"NoteNumber":39,"Velocity":27,"Duration":193199,"SoundDuration":193199,"Delta":65008534},{"NoteNumber":37,"Velocity":26,"Duration":680734,"SoundDuration":680734,"Delta":65201733},{"NoteNumber":48,"Velocity":39,"Duration":1419781,"SoundDuration":1419781,"Delta":66563203},{"NoteNumber":51,"Velocity":39,"Duration":1419781,"SoundDuration":1419781,"Delta":66563203},{"NoteNumber":56,"Velocity":47,"Duration":1419781,"SoundDuration":1419781,"Delta":66563203},{"NoteNumber":42,"Velocity":40,"Duration":1419781,"SoundDuration":1419781,"Delta":66563203},{"NoteNumber":44,"Velocity":40,"Duration":1419781,"SoundDuration":1419781,"Delta":66563203},{"NoteNumber":48,"Velocity":37,"Duration":1210256,"SoundDuration":1210256,"Delta":67982985},{"NoteNumber":54,"Velocity":44,"Duration":1210256,"SoundDuration":1210256,"Delta":67982985},{"NoteNumber":56,"Velocity":44,"Duration":1210256,"SoundDuration":1210256,"Delta":67982985},{"NoteNumber":39,"Velocity":35,"Duration":1210256,"SoundDuration":1210256,"Delta":67982985},{"NoteNumber":44,"Velocity":35,"Duration":1210256,"SoundDuration":1210256,"Delta":67982985},{"NoteNumber":48,"Velocity":37,"Duration":201288,"SoundDuration":201288,"Delta":69193242},{"NoteNumber":51,"Velocity":44,"Duration":201288,"SoundDuration":201288,"Delta":69193242},{"NoteNumber":56,"Velocity":44,"Duration":201288,"SoundDuration":201288,"Delta":69193242},{"NoteNumber":42,"Velocity":35,"Duration":201288,"SoundDuration":201288,"Delta":69193242},{"NoteNumber":44,"Velocity":35,"Duration":201288,"SoundDuration":201288,"Delta":69193242},{"NoteNumber":49,"Velocity":39,"Duration":1058823,"SoundDuration":1058823,"Delta":69394530},{"NoteNumber":53,"Velocity":39,"Duration":1058823,"SoundDuration":1058823,"Delta":69394530},{"NoteNumber":56,"Velocity":47,"Duration":1058823,"SoundDuration":1058823,"Delta":69394530},{"NoteNumber":41,"Velocity":33,"Duration":1058823,"SoundDuration":1058823,"Delta":69394530},{"NoteNumber":44,"Velocity":39,"Duration":1058823,"SoundDuration":1058823,"Delta":69394530},{"NoteNumber":53,"Velocity":45,"Duration":333333,"SoundDuration":333333,"Delta":70453353},{"NoteNumber":56,"Velocity":45,"Duration":333333,"SoundDuration":333333,"Delta":70453353},{"NoteNumber":61,"Velocity":53,"Duration":333333,"SoundDuration":333333,"Delta":70453353},{"NoteNumber":37,"Velocity":39,"Duration":333333,"SoundDuration":333333,"Delta":70453353},{"NoteNumber":44,"Velocity":46,"Duration":333333,"SoundDuration":333333,"Delta":70453353},{"NoteNumber":56,"Velocity":41,"Duration":714625,"SoundDuration":714625,"Delta":70786687},{"NoteNumber":54,"Velocity":41,"Duration":714625,"SoundDuration":714625,"Delta":70786687},{"NoteNumber":60,"Velocity":49,"Duration":714625,"SoundDuration":714625,"Delta":70786687},{"NoteNumber":39,"Velocity":37,"Duration":714625,"SoundDuration":714625,"Delta":70786687},{"NoteNumber":44,"Velocity":44,"Duration":714625,"SoundDuration":714625,"Delta":70786687},{"NoteNumber":53,"Velocity":31,"Duration":685400,"SoundDuration":685400,"Delta":71501313},{"NoteNumber":56,"Velocity":31,"Duration":685400,"SoundDuration":685400,"Delta":71501313},{"NoteNumber":61,"Velocity":37,"Duration":685400,"SoundDuration":685400,"Delta":71501313},{"NoteNumber":37,"Velocity":28,"Duration":685400,"SoundDuration":685400,"Delta":71501313},{"NoteNumber":44,"Velocity":34,"Duration":685400,"SoundDuration":685400,"Delta":71501313},{"NoteNumber":48,"Velocity":39,"Duration":1419781,"SoundDuration":1419781,"Delta":72186714},{"NoteNumber":51,"Velocity":39,"Duration":1419781,"SoundDuration":1419781,"Delta":72186714},{"NoteNumber":56,"Velocity":47,"Duration":1419781,"SoundDuration":1419781,"Delta":72186714},{"NoteNumber":42,"Velocity":40,"Duration":1419781,"SoundDuration":1419781,"Delta":72186714},{"NoteNumber":44,"Velocity":40,"Duration":1419781,"SoundDuration":1419781,"Delta":72186714},{"NoteNumber":48,"Velocity":37,"Duration":1210256,"SoundDuration":1210256,"Delta":73606496},{"NoteNumber":54,"Velocity":44,"Duration":1210256,"SoundDuration":1210256,"Delta":73606496},{"NoteNumber":56,"Velocity":44,"Duration":1210256,"SoundDuration":1210256,"Delta":73606496},{"NoteNumber":39,"Velocity":35,"Duration":1210256,"SoundDuration":1210256,"Delta":73606496},{"NoteNumber":44,"Velocity":35,"Duration":1210256,"SoundDuration":1210256,"Delta":73606496},{"NoteNumber":48,"Velocity":37,"Duration":201288,"SoundDuration":201288,"Delta":74816752},{"NoteNumber":51,"Velocity":44,"Duration":201288,"SoundDuration":201288,"Delta":74816752},{"NoteNumber":56,"Velocity":44,"Duration":201288,"SoundDuration":201288,"Delta":74816752},{"NoteNumber":42,"Velocity":35,"Duration":201288,"SoundDuration":201288,"Delta":74816752},{"NoteNumber":44,"Velocity":35,"Duration":201288,"SoundDuration":201288,"Delta":74816752},{"NoteNumber":49,"Velocity":39,"Duration":1091439,"SoundDuration":1091439,"Delta":75018040},{"NoteNumber":53,"Velocity":39,"Duration":1091439,"SoundDuration":1091439,"Delta":75018040},{"NoteNumber":56,"Velocity":47,"Duration":1091439,"SoundDuration":1091439,"Delta":75018040},{"NoteNumber":41,"Velocity":33,"Duration":1091439,"SoundDuration":1091439,"Delta":75018040},{"NoteNumber":44,"Velocity":39,"Duration":1091439,"SoundDuration":1091439,"Delta":75018040},{"NoteNumber":53,"Velocity":45,"Duration":361445,"SoundDuration":361445,"Delta":76109480},{"NoteNumber":56,"Velocity":45,"Duration":361445,"SoundDuration":361445,"Delta":76109480},{"NoteNumber":65,"Velocity":55,"Duration":361445,"SoundDuration":361445,"Delta":76109480},{"NoteNumber":37,"Velocity":39,"Duration":361445,"SoundDuration":361445,"Delta":76109480},{"NoteNumber":44,"Velocity":46,"Duration":361445,"SoundDuration":361445,"Delta":76109480},{"NoteNumber":56,"Velocity":45,"Duration":673490,"SoundDuration":673490,"Delta":76470926},{"NoteNumber":54,"Velocity":45,"Duration":673490,"SoundDuration":673490,"Delta":76470926},{"NoteNumber":65,"Velocity":58,"Duration":324815,"SoundDuration":324815,"Delta":76470926},{"NoteNumber":36,"Velocity":37,"Duration":673490,"SoundDuration":673490,"Delta":76470926},{"NoteNumber":44,"Velocity":44,"Duration":673490,"SoundDuration":673490,"Delta":76470926},{"NoteNumber":63,"Velocity":51,"Duration":348675,"SoundDuration":348675,"Delta":76795742},{"NoteNumber":53,"Velocity":31,"Duration":733137,"SoundDuration":733137,"Delta":77144417},{"NoteNumber":56,"Velocity":31,"Duration":733137,"SoundDuration":733137,"Delta":77144417},{"NoteNumber":61,"Velocity":37,"Duration":733137,"SoundDuration":733137,"Delta":77144417},{"NoteNumber":37,"Velocity":28,"Duration":733137,"SoundDuration":733137,"Delta":77144417},{"NoteNumber":44,"Velocity":34,"Duration":733137,"SoundDuration":733137,"Delta":77144417},{"NoteNumber":48,"Velocity":46,"Duration":1419781,"SoundDuration":1419781,"Delta":77877555},{"NoteNumber":51,"Velocity":46,"Duration":1419781,"SoundDuration":1419781,"Delta":77877555},{"NoteNumber":56,"Velocity":56,"Duration":1419781,"SoundDuration":1419781,"Delta":77877555},{"NoteNumber":42,"Velocity":48,"Duration":1419781,"SoundDuration":1419781,"Delta":77877555},{"NoteNumber":44,"Velocity":48,"Duration":1419781,"SoundDuration":1419781,"Delta":77877555},{"NoteNumber":48,"Velocity":52,"Duration":1305186,"SoundDuration":1305186,"Delta":79297337},{"NoteNumber":54,"Velocity":62,"Duration":1305186,"SoundDuration":1305186,"Delta":79297337},{"NoteNumber":56,"Velocity":62,"Duration":1305186,"SoundDuration":1305186,"Delta":79297337},{"NoteNumber":39,"Velocity":49,"Duration":1305186,"SoundDuration":1305186,"Delta":79297337},{"NoteNumber":44,"Velocity":49,"Duration":1305186,"SoundDuration":1305186,"Delta":79297337},{"NoteNumber":48,"Velocity":57,"Duration":205479,"SoundDuration":205479,"Delta":80602524},{"NoteNumber":51,"Velocity":68,"Duration":205479,"SoundDuration":205479,"Delta":80602524},{"NoteNumber":56,"Velocity":68,"Duration":205479,"SoundDuration":205479,"Delta":80602524},{"NoteNumber":42,"Velocity":55,"Duration":205479,"SoundDuration":205479,"Delta":80602524},{"NoteNumber":44,"Velocity":55,"Duration":205479,"SoundDuration":205479,"Delta":80602524},{"NoteNumber":56,"Velocity":70,"Duration":1107309,"SoundDuration":1107309,"Delta":80808003},{"NoteNumber":61,"Velocity":70,"Duration":1107309,"SoundDuration":1107309,"Delta":80808003},{"NoteNumber":68,"Velocity":87,"Duration":1107309,"SoundDuration":1107309,"Delta":80808003},{"NoteNumber":41,"Velocity":73,"Duration":1107309,"SoundDuration":1107309,"Delta":80808003},{"NoteNumber":53,"Velocity":73,"Duration":1107309,"SoundDuration":1107309,"Delta":80808003},{"NoteNumber":61,"Velocity":61,"Duration":352941,"SoundDuration":352941,"Delta":81915313},{"NoteNumber":65,"Velocity":61,"Duration":352941,"SoundDuration":352941,"Delta":81915313},{"NoteNumber":68,"Velocity":73,"Duration":352941,"SoundDuration":352941,"Delta":81915313},{"NoteNumber":37,"Velocity":49,"Duration":352941,"SoundDuration":352941,"Delta":81915313},{"NoteNumber":49,"Velocity":55,"Duration":352941,"SoundDuration":352941,"Delta":81915313},{"NoteNumber":63,"Velocity":61,"Duration":661566,"SoundDuration":661566,"Delta":82268254},{"NoteNumber":60,"Velocity":61,"Duration":661566,"SoundDuration":661566,"Delta":82268254},{"NoteNumber":68,"Velocity":79,"Duration":321199,"SoundDuration":321199,"Delta":82268254},{"NoteNumber":39,"Velocity":52,"Duration":661566,"SoundDuration":661566,"Delta":82268254},{"NoteNumber":51,"Velocity":62,"Duration":661566,"SoundDuration":661566,"Delta":82268254},{"NoteNumber":66,"Velocity":66,"Duration":340367,"SoundDuration":340367,"Delta":82589453},{"NoteNumber":56,"Velocity":44,"Duration":685400,"SoundDuration":685400,"Delta":82929821},{"NoteNumber":61,"Velocity":44,"Duration":685400,"SoundDuration":685400,"Delta":82929821},{"NoteNumber":65,"Velocity":55,"Duration":685400,"SoundDuration":685400,"Delta":82929821},{"NoteNumber":41,"Velocity":36,"Duration":685400,"SoundDuration":685400,"Delta":82929821},{"NoteNumber":53,"Velocity":42,"Duration":685400,"SoundDuration":685400,"Delta":82929821},{"NoteNumber":54,"Velocity":39,"Duration":1429252,"SoundDuration":1429252,"Delta":83615222},{"NoteNumber":58,"Velocity":39,"Duration":1429252,"SoundDuration":1429252,"Delta":83615222},{"NoteNumber":63,"Velocity":47,"Duration":1429252,"SoundDuration":1429252,"Delta":83615222},{"NoteNumber":42,"Velocity":37,"Duration":1429252,"SoundDuration":1429252,"Delta":83615222},{"NoteNumber":48,"Velocity":37,"Duration":1466275,"SoundDuration":1466275,"Delta":85044474},{"NoteNumber":51,"Velocity":37,"Duration":1466275,"SoundDuration":1466275,"Delta":85044474},{"NoteNumber":56,"Velocity":43,"Duration":1466275,"SoundDuration":1466275,"Delta":85044474},{"NoteNumber":44,"Velocity":34,"Duration":1959156,"SoundDuration":1959156,"Delta":85044474},{"NoteNumber":49,"Velocity":37,"Duration":2071174,"SoundDuration":2071174,"Delta":86510750},{"NoteNumber":53,"Velocity":37,"Duration":2071174,"SoundDuration":2071174,"Delta":86510750},{"NoteNumber":61,"Velocity":43,"Duration":2071174,"SoundDuration":2071174,"Delta":86510750},{"NoteNumber":42,"Velocity":28,"Duration":168220,"SoundDuration":168220,"Delta":87003630},{"NoteNumber":41,"Velocity":30,"Duration":536138,"SoundDuration":536138,"Delta":87171851},{"NoteNumber":39,"Velocity":28,"Duration":193199,"SoundDuration":193199,"Delta":87707989},{"NoteNumber":37,"Velocity":26,"Duration":680734,"SoundDuration":680734,"Delta":87901189},{"NoteNumber":49,"Velocity":39,"Duration":649631,"SoundDuration":649631,"Delta":89262659},{"NoteNumber":53,"Velocity":39,"Duration":649631,"SoundDuration":649631,"Delta":89262659},{"NoteNumber":56,"Velocity":47,"Duration":649631,"SoundDuration":649631,"Delta":89262659},{"NoteNumber":37,"Velocity":40,"Duration":1363056,"SoundDuration":1363056,"Delta":89912291},{"NoteNumber":49,"Velocity":37,"Duration":657173,"SoundDuration":657173,"Delta":90618173},{"NoteNumber":54,"Velocity":37,"Duration":657173,"SoundDuration":657173,"Delta":90618173},{"NoteNumber":58,"Velocity":44,"Duration":657173,"SoundDuration":657173,"Delta":90618173},{"NoteNumber":30,"Velocity":31,"Duration":1309007,"SoundDuration":1309007,"Delta":91275347},{"NoteNumber":49,"Velocity":39,"Duration":628272,"SoundDuration":628272,"Delta":91956082},{"NoteNumber":53,"Velocity":39,"Duration":628272,"SoundDuration":628272,"Delta":91956082},{"NoteNumber":56,"Velocity":47,"Duration":628272,"SoundDuration":628272,"Delta":91956082},{"NoteNumber":32,"Velocity":39,"Duration":1284796,"SoundDuration":1284796,"Delta":92584355},{"NoteNumber":49,"Velocity":37,"Duration":642398,"SoundDuration":642398,"Delta":93226753},{"NoteNumber":51,"Velocity":37,"Duration":642398,"SoundDuration":642398,"Delta":93226753},{"NoteNumber":58,"Velocity":44,"Duration":642398,"SoundDuration":642398,"Delta":93226753},{"NoteNumber":31,"Velocity":35,"Duration":1300217,"SoundDuration":1300217,"Delta":93869152},{"NoteNumber":49,"Velocity":39,"Duration":635323,"SoundDuration":635323,"Delta":94534045},{"NoteNumber":51,"Velocity":39,"Duration":635323,"SoundDuration":635323,"Delta":94534045},{"NoteNumber":56,"Velocity":47,"Duration":635323,"SoundDuration":635323,"Delta":94534045},{"NoteNumber":32,"Velocity":40,"Duration":1307292,"SoundDuration":1307292,"Delta":95169369},{"NoteNumber":48,"Velocity":38,"Duration":642398,"SoundDuration":642398,"Delta":95834263},{"NoteNumber":51,"Velocity":38,"Duration":642398,"SoundDuration":642398,"Delta":95834263},{"NoteNumber":56,"Velocity":46,"Duration":642398,"SoundDuration":642398,"Delta":95834263},{"NoteNumber":42,"Velocity":38,"Duration":907566,"SoundDuration":907566,"Delta":96476661},{"NoteNumber":54,"Velocity":38,"Duration":289731,"SoundDuration":289731,"Delta":97094497},{"NoteNumber":41,"Velocity":31,"Duration":590435,"SoundDuration":590435,"Delta":97384228},{"NoteNumber":53,"Velocity":37,"Duration":297230,"SoundDuration":297230,"Delta":97677433},{"NoteNumber":39,"Velocity":29,"Duration":607737,"SoundDuration":607737,"Delta":97974663},{"NoteNumber":51,"Velocity":36,"Duration":305756,"SoundDuration":305756,"Delta":98276644},{"NoteNumber":37,"Velocity":28,"Duration":624325,"SoundDuration":624325,"Delta":98582401},{"NoteNumber":49,"Velocity":35,"Duration":314136,"SoundDuration":314136,"Delta":98892590},{"NoteNumber":36,"Velocity":26,"Duration":935640,"SoundDuration":935640,"Delta":99206726},{"NoteNumber":53,"Velocity":40,"Duration":621504,"SoundDuration":621504,"Delta":99520863},{"NoteNumber":56,"Velocity":40,"Duration":621504,"SoundDuration":621504,"Delta":99520863},{"NoteNumber":61,"Velocity":49,"Duration":621504,"SoundDuration":621504,"Delta":99520863},{"NoteNumber":37,"Velocity":42,"Duration":1307292,"SoundDuration":1307292,"Delta":100142367},{"NoteNumber":54,"Velocity":38,"Duration":642398,"SoundDuration":642398,"Delta":100807260},{"NoteNumber":58,"Velocity":46,"Duration":642398,"SoundDuration":642398,"Delta":100807260},{"NoteNumber":61,"Velocity":46,"Duration":642398,"SoundDuration":642398,"Delta":100807260},{"NoteNumber":42,"Velocity":32,"Duration":1309007,"SoundDuration":1309007,"Delta":101449659},{"NoteNumber":53,"Velocity":40,"Duration":628272,"SoundDuration":628272,"Delta":102130394},{"NoteNumber":56,"Velocity":40,"Duration":628272,"SoundDuration":628272,"Delta":102130394},{"NoteNumber":61,"Velocity":49,"Duration":628272,"SoundDuration":628272,"Delta":102130394},{"NoteNumber":44,"Velocity":40,"Duration":1284796,"SoundDuration":1284796,"Delta":102758666},{"NoteNumber":52,"Velocity":38,"Duration":642398,"SoundDuration":642398,"Delta":103401065},{"NoteNumber":55,"Velocity":38,"Duration":642398,"SoundDuration":642398,"Delta":103401065},{"NoteNumber":61,"Velocity":46,"Duration":642398,"SoundDuration":642398,"Delta":103401065},{"NoteNumber":45,"Velocity":36,"Duration":1300217,"SoundDuration":1300217,"Delta":104043463},{"NoteNumber":51,"Velocity":39,"Duration":635323,"SoundDuration":635323,"Delta":104708357},{"NoteNumber":54,"Velocity":39,"Duration":635323,"SoundDuration":635323,"Delta":104708357},{"NoteNumber":61,"Velocity":47,"Duration":635323,"SoundDuration":635323,"Delta":104708357},{"NoteNumber":44,"Velocity":40,"Duration":1307292,"SoundDuration":1307292,"Delta":105343681},{"NoteNumber":51,"Velocity":38,"Duration":642398,"SoundDuration":642398,"Delta":106008574},{"NoteNumber":54,"Velocity":38,"Duration":642398,"SoundDuration":642398,"Delta":106008574},{"NoteNumber":60,"Velocity":46,"Duration":642398,"SoundDuration":642398,"Delta":106008574},{"NoteNumber":32,"Velocity":38,"Duration":907566,"SoundDuration":907566,"Delta":106650973},{"NoteNumber":49,"Velocity":35,"Duration":289731,"SoundDuration":289731,"Delta":107268808},{"NoteNumber":53,"Velocity":35,"Duration":289731,"SoundDuration":289731,"Delta":107268808},{"NoteNumber":61,"Velocity":42,"Duration":289731,"SoundDuration":289731,"Delta":107268808},{"NoteNumber":37,"Velocity":34,"Duration":590435,"SoundDuration":590435,"Delta":107558539},{"NoteNumber":56,"Velocity":39,"Duration":297230,"SoundDuration":297230,"Delta":107851744},{"NoteNumber":44,"Velocity":30,"Duration":607737,"SoundDuration":607737,"Delta":108148975},{"NoteNumber":53,"Velocity":42,"Duration":305756,"SoundDuration":305756,"Delta":108450955},{"NoteNumber":41,"Velocity":34,"Duration":625500,"SoundDuration":625500,"Delta":108756712},{"NoteNumber":51,"Velocity":39,"Duration":315311,"SoundDuration":315311,"Delta":109066901},{"NoteNumber":39,"Velocity":31,"Duration":949241,"SoundDuration":949241,"Delta":109382213},{"NoteNumber":49,"Velocity":39,"Duration":631579,"SoundDuration":631579,"Delta":109699875},{"NoteNumber":53,"Velocity":39,"Duration":631579,"SoundDuration":631579,"Delta":109699875},{"NoteNumber":56,"Velocity":47,"Duration":631579,"SoundDuration":631579,"Delta":109699875},{"NoteNumber":37,"Velocity":40,"Duration":1270730,"SoundDuration":1270730,"Delta":110331454},{"NoteNumber":49,"Velocity":37,"Duration":618556,"SoundDuration":618556,"Delta":110983628},{"NoteNumber":54,"Velocity":37,"Duration":618556,"SoundDuration":618556,"Delta":110983628},{"NoteNumber":58,"Velocity":44,"Duration":618556,"SoundDuration":618556,"Delta":110983628},{"NoteNumber":30,"Velocity":31,"Duration":1264419,"SoundDuration":1264419,"Delta":111602184},{"NoteNumber":49,"Velocity":39,"Duration":612245,"SoundDuration":612245,"Delta":112254358},{"NoteNumber":53,"Velocity":39,"Duration":612245,"SoundDuration":612245,"Delta":112254358},{"NoteNumber":56,"Velocity":47,"Duration":612245,"SoundDuration":612245,"Delta":112254358},{"NoteNumber":32,"Velocity":39,"Duration":1263158,"SoundDuration":1263158,"Delta":112866603},{"NoteNumber":49,"Velocity":37,"Duration":631579,"SoundDuration":631579,"Delta":113498182},{"NoteNumber":51,"Velocity":37,"Duration":631579,"SoundDuration":631579,"Delta":113498182},{"NoteNumber":58,"Velocity":44,"Duration":631579,"SoundDuration":631579,"Delta":113498182},{"NoteNumber":31,"Velocity":35,"Duration":1300217,"SoundDuration":1300217,"Delta":114129761},{"NoteNumber":49,"Velocity":39,"Duration":635323,"SoundDuration":635323,"Delta":114794655},{"NoteNumber":51,"Velocity":39,"Duration":635323,"SoundDuration":635323,"Delta":114794655},{"NoteNumber":56,"Velocity":47,"Duration":635323,"SoundDuration":635323,"Delta":114794655},{"NoteNumber":32,"Velocity":40,"Duration":1283753,"SoundDuration":1283753,"Delta":115429979},{"NoteNumber":48,"Velocity":38,"Duration":631579,"SoundDuration":631579,"Delta":116082153},{"NoteNumber":51,"Velocity":38,"Duration":631579,"SoundDuration":631579,"Delta":116082153},{"NoteNumber":56,"Velocity":46,"Duration":631579,"SoundDuration":631579,"Delta":116082153},{"NoteNumber":42,"Velocity":38,"Duration":903549,"SoundDuration":903549,"Delta":116713732},{"NoteNumber":54,"Velocity":39,"Duration":285714,"SoundDuration":285714,"Delta":117331567},{"NoteNumber":41,"Velocity":31,"Duration":579723,"SoundDuration":579723,"Delta":117617281},{"NoteNumber":53,"Velocity":38,"Duration":291262,"SoundDuration":291262,"Delta":117905743},{"NoteNumber":39,"Velocity":30,"Duration":595377,"SoundDuration":595377,"Delta":118197005},{"NoteNumber":51,"Velocity":38,"Duration":301259,"SoundDuration":301259,"Delta":118491123},{"NoteNumber":37,"Velocity":29,"Duration":619227,"SoundDuration":619227,"Delta":118792383},{"NoteNumber":49,"Velocity":37,"Duration":314136,"SoundDuration":314136,"Delta":119097475},{"NoteNumber":36,"Velocity":28,"Duration":935640,"SoundDuration":935640,"Delta":119411611},{"NoteNumber":53,"Velocity":40,"Duration":621504,"SoundDuration":621504,"Delta":119725747},{"NoteNumber":56,"Velocity":40,"Duration":621504,"SoundDuration":621504,"Delta":119725747},{"NoteNumber":61,"Velocity":49,"Duration":621504,"SoundDuration":621504,"Delta":119725747},{"NoteNumber":37,"Velocity":42,"Duration":1270161,"SoundDuration":1270161,"Delta":120347251},{"NoteNumber":54,"Velocity":38,"Duration":625000,"SoundDuration":625000,"Delta":120992413},{"NoteNumber":58,"Velocity":46,"Duration":625000,"SoundDuration":625000,"Delta":120992413},{"NoteNumber":61,"Velocity":46,"Duration":625000,"SoundDuration":625000,"Delta":120992413},{"NoteNumber":42,"Velocity":32,"Duration":1264419,"SoundDuration":1264419,"Delta":121617413},{"NoteNumber":53,"Velocity":40,"Duration":612245,"SoundDuration":612245,"Delta":122269587},{"NoteNumber":56,"Velocity":40,"Duration":612245,"SoundDuration":612245,"Delta":122269587},{"NoteNumber":61,"Velocity":49,"Duration":612245,"SoundDuration":612245,"Delta":122269587},{"NoteNumber":44,"Velocity":40,"Duration":1263158,"SoundDuration":1263158,"Delta":122881832},{"NoteNumber":52,"Velocity":38,"Duration":631579,"SoundDuration":631579,"Delta":123513411},{"NoteNumber":55,"Velocity":38,"Duration":631579,"SoundDuration":631579,"Delta":123513411},{"NoteNumber":61,"Velocity":46,"Duration":631579,"SoundDuration":631579,"Delta":123513411},{"NoteNumber":45,"Velocity":36,"Duration":1289893,"SoundDuration":1289893,"Delta":124144990},{"NoteNumber":51,"Velocity":39,"Duration":625000,"SoundDuration":625000,"Delta":124809883},{"NoteNumber":54,"Velocity":39,"Duration":625000,"SoundDuration":625000,"Delta":124809883},{"NoteNumber":61,"Velocity":47,"Duration":625000,"SoundDuration":625000,"Delta":124809883},{"NoteNumber":44,"Velocity":40,"Duration":1307292,"SoundDuration":1307292,"Delta":125434883},{"NoteNumber":51,"Velocity":38,"Duration":642398,"SoundDuration":642398,"Delta":126099777},{"NoteNumber":54,"Velocity":38,"Duration":642398,"SoundDuration":642398,"Delta":126099777},{"NoteNumber":60,"Velocity":46,"Duration":642398,"SoundDuration":642398,"Delta":126099777},{"NoteNumber":32,"Velocity":38,"Duration":907566,"SoundDuration":907566,"Delta":126742175},{"NoteNumber":49,"Velocity":35,"Duration":289731,"SoundDuration":289731,"Delta":127360010},{"NoteNumber":53,"Velocity":35,"Duration":289731,"SoundDuration":289731,"Delta":127360010},{"NoteNumber":61,"Velocity":42,"Duration":289731,"SoundDuration":289731,"Delta":127360010},{"NoteNumber":37,"Velocity":34,"Duration":590435,"SoundDuration":590435,"Delta":127649742},{"NoteNumber":56,"Velocity":39,"Duration":297230,"SoundDuration":297230,"Delta":127942947},{"NoteNumber":44,"Velocity":30,"Duration":607737,"SoundDuration":607737,"Delta":128240177},{"NoteNumber":53,"Velocity":42,"Duration":305756,"SoundDuration":305756,"Delta":128542158},{"NoteNumber":41,"Velocity":34,"Duration":624325,"SoundDuration":624325,"Delta":128847914},{"NoteNumber":49,"Velocity":39,"Duration":314136,"SoundDuration":314136,"Delta":129158104},{"NoteNumber":37,"Velocity":31,"Duration":314136,"SoundDuration":314136,"Delta":129472240},{"NoteNumber":48,"Velocity":39,"Duration":601805,"SoundDuration":601805,"Delta":129786376},{"NoteNumber":51,"Velocity":39,"Duration":601805,"SoundDuration":601805,"Delta":129786376},{"NoteNumber":56,"Velocity":47,"Duration":601805,"SoundDuration":601805,"Delta":129786376},{"NoteNumber":42,"Velocity":40,"Duration":1243596,"SoundDuration":1243596,"Delta":130388182},{"NoteNumber":48,"Velocity":38,"Duration":608272,"SoundDuration":608272,"Delta":131023506},{"NoteNumber":51,"Velocity":38,"Duration":608272,"SoundDuration":608272,"Delta":131023506},{"NoteNumber":56,"Velocity":46,"Duration":608272,"SoundDuration":608272,"Delta":131023506},{"NoteNumber":66,"Velocity":57,"Duration":889509,"SoundDuration":889509,"Delta":131631778},{"NoteNumber":49,"Velocity":42,"Duration":581446,"SoundDuration":581446,"Delta":132231557},{"NoteNumber":53,"Velocity":42,"Duration":581446,"SoundDuration":581446,"Delta":132231557},{"NoteNumber":56,"Velocity":42,"Duration":581446,"SoundDuration":581446,"Delta":132231557},{"NoteNumber":65,"Velocity":38,"Duration":291715,"SoundDuration":291715,"Delta":132521288},{"NoteNumber":53,"Velocity":45,"Duration":291715,"SoundDuration":291715,"Delta":132813003},{"NoteNumber":49,"Velocity":38,"Duration":291715,"SoundDuration":291715,"Delta":133104718},{"NoteNumber":54,"Velocity":52,"Duration":291715,"SoundDuration":291715,"Delta":133396434},{"NoteNumber":51,"Velocity":45,"Duration":291715,"SoundDuration":291715,"Delta":133688149},{"NoteNumber":56,"Velocity":54,"Duration":291715,"SoundDuration":291715,"Delta":133979864},{"NoteNumber":53,"Velocity":45,"Duration":291715,"SoundDuration":291715,"Delta":134271579},{"NoteNumber":48,"Velocity":50,"Duration":601805,"SoundDuration":601805,"Delta":134563295},{"NoteNumber":51,"Velocity":50,"Duration":601805,"SoundDuration":601805,"Delta":134563295},{"NoteNumber":56,"Velocity":61,"Duration":601805,"SoundDuration":601805,"Delta":134563295},{"NoteNumber":42,"Velocity":59,"Duration":1243596,"SoundDuration":1243596,"Delta":135165100},{"NoteNumber":51,"Velocity":49,"Duration":608272,"SoundDuration":608272,"Delta":135800424},{"NoteNumber":56,"Velocity":49,"Duration":608272,"SoundDuration":608272,"Delta":135800424},{"NoteNumber":60,"Velocity":60,"Duration":608272,"SoundDuration":608272,"Delta":135800424},{"NoteNumber":68,"Velocity":63,"Duration":888517,"SoundDuration":888517,"Delta":136408697},{"NoteNumber":66,"Velocity":52,"Duration":888517,"SoundDuration":888517,"Delta":136408697},{"NoteNumber":53,"Velocity":60,"Duration":577478,"SoundDuration":577478,"Delta":137008475},{"NoteNumber":56,"Velocity":60,"Duration":577478,"SoundDuration":577478,"Delta":137008475},{"NoteNumber":61,"Velocity":60,"Duration":577478,"SoundDuration":577478,"Delta":137008475},{"NoteNumber":65,"Velocity":60,"Duration":288739,"SoundDuration":288739,"Delta":137297214},{"NoteNumber":56,"Velocity":67,"Duration":288739,"SoundDuration":288739,"Delta":137585953},{"NoteNumber":53,"Velocity":55,"Duration":288739,"SoundDuration":288739,"Delta":137874693},{"NoteNumber":49,"Velocity":45,"Duration":288739,"SoundDuration":288739,"Delta":137874693},{"NoteNumber":60,"Velocity":73,"Duration":288739,"SoundDuration":288739,"Delta":138163432},{"NoteNumber":54,"Velocity":63,"Duration":288739,"SoundDuration":288739,"Delta":138452171},{"NoteNumber":51,"Velocity":52,"Duration":288739,"SoundDuration":288739,"Delta":138452171},{"NoteNumber":61,"Velocity":75,"Duration":288739,"SoundDuration":288739,"Delta":138740910},{"NoteNumber":56,"Velocity":62,"Duration":315845,"SoundDuration":315845,"Delta":139029650},{"NoteNumber":53,"Velocity":51,"Duration":315845,"SoundDuration":315845,"Delta":139029650},{"NoteNumber":48,"Velocity":77,"Duration":601805,"SoundDuration":601805,"Delta":139350849},{"NoteNumber":51,"Velocity":77,"Duration":601805,"SoundDuration":601805,"Delta":139350849},{"NoteNumber":56,"Velocity":91,"Duration":601805,"SoundDuration":601805,"Delta":139350849},{"NoteNumber":30,"Velocity":61,"Duration":1243596,"SoundDuration":1243596,"Delta":139952654},{"NoteNumber":42,"Velocity":73,"Duration":1243596,"SoundDuration":1243596,"Delta":139952654},{"NoteNumber":54,"Velocity":57,"Duration":608272,"SoundDuration":608272,"Delta":140587978},{"NoteNumber":60,"Velocity":57,"Duration":608272,"SoundDuration":608272,"Delta":140587978},{"NoteNumber":63,"Velocity":84,"Duration":608272,"SoundDuration":608272,"Delta":140587978},{"NoteNumber":75,"Velocity":85,"Duration":888517,"SoundDuration":888517,"Delta":141196251},{"NoteNumber":72,"Velocity":58,"Duration":888517,"SoundDuration":888517,"Delta":141196251},{"NoteNumber":53,"Velocity":74,"Duration":577478,"SoundDuration":577478,"Delta":141796029},{"NoteNumber":61,"Velocity":74,"Duration":577478,"SoundDuration":577478,"Delta":141796029},{"NoteNumber":65,"Velocity":89,"Duration":577478,"SoundDuration":577478,"Delta":141796029},{"NoteNumber":73,"Velocity":61,"Duration":288739,"SoundDuration":288739,"Delta":142084768},{"NoteNumber":77,"Velocity":72,"Duration":288739,"SoundDuration":288739,"Delta":142084768},{"NoteNumber":65,"Velocity":73,"Duration":288739,"SoundDuration":288739,"Delta":142373508},{"NoteNumber":53,"Velocity":61,"Duration":288739,"SoundDuration":288739,"Delta":142373508},{"NoteNumber":49,"Velocity":66,"Duration":288739,"SoundDuration":288739,"Delta":142662247},{"NoteNumber":37,"Velocity":55,"Duration":288739,"SoundDuration":288739,"Delta":142662247},{"NoteNumber":66,"Velocity":78,"Duration":288739,"SoundDuration":288739,"Delta":142950986},{"NoteNumber":54,"Velocity":66,"Duration":288739,"SoundDuration":288739,"Delta":142950986},{"NoteNumber":51,"Velocity":70,"Duration":288739,"SoundDuration":288739,"Delta":143239725},{"NoteNumber":39,"Velocity":58,"Duration":288739,"SoundDuration":288739,"Delta":143239725},{"NoteNumber":68,"Velocity":75,"Duration":288739,"SoundDuration":288739,"Delta":143528465},{"NoteNumber":56,"Velocity":65,"Duration":288739,"SoundDuration":288739,"Delta":143528465},{"NoteNumber":53,"Velocity":66,"Duration":946849,"SoundDuration":946849,"Delta":143817204},{"NoteNumber":41,"Velocity":45,"Duration":946849,"SoundDuration":946849,"Delta":143817204},{"NoteNumber":58,"Velocity":58,"Duration":610526,"SoundDuration":610526,"Delta":144153527},{"NoteNumber":70,"Velocity":58,"Duration":610526,"SoundDuration":610526,"Delta":144153527},{"NoteNumber":42,"Velocity":42,"Duration":1250078,"SoundDuration":1250078,"Delta":144764053},{"NoteNumber":48,"Velocity":38,"Duration":614754,"SoundDuration":614754,"Delta":145399377},{"NoteNumber":51,"Velocity":38,"Duration":614754,"SoundDuration":614754,"Delta":145399377},{"NoteNumber":56,"Velocity":46,"Duration":614754,"SoundDuration":614754,"Delta":145399377},{"NoteNumber":44,"Velocity":38,"Duration":878129,"SoundDuration":878129,"Delta":146014131},{"NoteNumber":54,"Velocity":40,"Duration":289731,"SoundDuration":289731,"Delta":146602530},{"NoteNumber":42,"Velocity":31,"Duration":590435,"SoundDuration":590435,"Delta":146892261},{"NoteNumber":53,"Velocity":39,"Duration":297230,"SoundDuration":297230,"Delta":147185466},{"NoteNumber":41,"Velocity":30,"Duration":607737,"SoundDuration":607737,"Delta":147482697},{"NoteNumber":51,"Velocity":38,"Duration":305756,"SoundDuration":305756,"Delta":147784677},{"NoteNumber":39,"Velocity":28,"Duration":624325,"SoundDuration":624325,"Delta":148090434},{"NoteNumber":49,"Velocity":37,"Duration":314136,"SoundDuration":314136,"Delta":148400623},{"NoteNumber":37,"Velocity":27,"Duration":314136,"SoundDuration":314136,"Delta":148714760},{"NoteNumber":48,"Velocity":39,"Duration":601805,"SoundDuration":601805,"Delta":149028896},{"NoteNumber":51,"Velocity":39,"Duration":601805,"SoundDuration":601805,"Delta":149028896},{"NoteNumber":56,"Velocity":47,"Duration":601805,"SoundDuration":601805,"Delta":149028896},{"NoteNumber":42,"Velocity":40,"Duration":1243596,"SoundDuration":1243596,"Delta":149630701},{"NoteNumber":48,"Velocity":38,"Duration":608272,"SoundDuration":608272,"Delta":150266025},{"NoteNumber":51,"Velocity":38,"Duration":608272,"SoundDuration":608272,"Delta":150266025},{"NoteNumber":56,"Velocity":46,"Duration":608272,"SoundDuration":608272,"Delta":150266025},{"NoteNumber":66,"Velocity":57,"Duration":889509,"SoundDuration":889509,"Delta":150874298},{"NoteNumber":49,"Velocity":42,"Duration":581446,"SoundDuration":581446,"Delta":151474076},{"NoteNumber":53,"Velocity":42,"Duration":581446,"SoundDuration":581446,"Delta":151474076},{"NoteNumber":56,"Velocity":42,"Duration":581446,"SoundDuration":581446,"Delta":151474076},{"NoteNumber":65,"Velocity":38,"Duration":291715,"SoundDuration":291715,"Delta":151763807},{"NoteNumber":53,"Velocity":45,"Duration":291715,"SoundDuration":291715,"Delta":152055523},{"NoteNumber":49,"Velocity":38,"Duration":291715,"SoundDuration":291715,"Delta":152347238},{"NoteNumber":54,"Velocity":52,"Duration":288461,"SoundDuration":288461,"Delta":152638953},{"NoteNumber":51,"Velocity":45,"Duration":288461,"SoundDuration":288461,"Delta":152927415},{"NoteNumber":56,"Velocity":54,"Duration":288461,"SoundDuration":288461,"Delta":153215876},{"NoteNumber":53,"Velocity":45,"Duration":288461,"SoundDuration":288461,"Delta":153504338},{"NoteNumber":48,"Velocity":50,"Duration":601805,"SoundDuration":601805,"Delta":153792799},{"NoteNumber":51,"Velocity":50,"Duration":601805,"SoundDuration":601805,"Delta":153792799},{"NoteNumber":56,"Velocity":61,"Duration":601805,"SoundDuration":601805,"Delta":153792799},{"NoteNumber":42,"Velocity":59,"Duration":1243596,"SoundDuration":1243596,"Delta":154394605},{"NoteNumber":51,"Velocity":49,"Duration":608272,"SoundDuration":608272,"Delta":155029929},{"NoteNumber":56,"Velocity":49,"Duration":608272,"SoundDuration":608272,"Delta":155029929},{"NoteNumber":60,"Velocity":60,"Duration":608272,"SoundDuration":608272,"Delta":155029929},{"NoteNumber":68,"Velocity":63,"Duration":888517,"SoundDuration":888517,"Delta":155638201},{"NoteNumber":66,"Velocity":52,"Duration":888517,"SoundDuration":888517,"Delta":155638201},{"NoteNumber":53,"Velocity":60,"Duration":577478,"SoundDuration":577478,"Delta":156237979},{"NoteNumber":56,"Velocity":60,"Duration":577478,"SoundDuration":577478,"Delta":156237979},{"NoteNumber":61,"Velocity":60,"Duration":577478,"SoundDuration":577478,"Delta":156237979},{"NoteNumber":65,"Velocity":60,"Duration":288739,"SoundDuration":288739,"Delta":156526719},{"NoteNumber":56,"Velocity":67,"Duration":288739,"SoundDuration":288739,"Delta":156815458},{"NoteNumber":53,"Velocity":55,"Duration":288739,"SoundDuration":288739,"Delta":157104197},{"NoteNumber":49,"Velocity":45,"Duration":288739,"SoundDuration":288739,"Delta":157104197},{"NoteNumber":60,"Velocity":73,"Duration":283018,"SoundDuration":283018,"Delta":157392936},{"NoteNumber":54,"Velocity":63,"Duration":283018,"SoundDuration":283018,"Delta":157675955},{"NoteNumber":51,"Velocity":52,"Duration":283018,"SoundDuration":283018,"Delta":157675955},{"NoteNumber":61,"Velocity":75,"Duration":283018,"SoundDuration":283018,"Delta":157958974},{"NoteNumber":56,"Velocity":62,"Duration":324175,"SoundDuration":324175,"Delta":158241993},{"NoteNumber":53,"Velocity":51,"Duration":324175,"SoundDuration":324175,"Delta":158241993},{"NoteNumber":48,"Velocity":77,"Duration":601805,"SoundDuration":601805,"Delta":158571663},{"NoteNumber":51,"Velocity":77,"Duration":601805,"SoundDuration":601805,"Delta":158571663},{"NoteNumber":56,"Velocity":91,"Duration":601805,"SoundDuration":601805,"Delta":158571663},{"NoteNumber":30,"Velocity":61,"Duration":1243596,"SoundDuration":1243596,"Delta":159173468},{"NoteNumber":42,"Velocity":73,"Duration":1243596,"SoundDuration":1243596,"Delta":159173468},{"NoteNumber":54,"Velocity":57,"Duration":608272,"SoundDuration":608272,"Delta":159808792},{"NoteNumber":60,"Velocity":57,"Duration":608272,"SoundDuration":608272,"Delta":159808792},{"NoteNumber":63,"Velocity":84,"Duration":608272,"SoundDuration":608272,"Delta":159808792},{"NoteNumber":75,"Velocity":85,"Duration":888517,"SoundDuration":888517,"Delta":160417065},{"NoteNumber":72,"Velocity":58,"Duration":888517,"SoundDuration":888517,"Delta":160417065},{"NoteNumber":53,"Velocity":74,"Duration":577478,"SoundDuration":577478,"Delta":161016843},{"NoteNumber":61,"Velocity":74,"Duration":577478,"SoundDuration":577478,"Delta":161016843},{"NoteNumber":65,"Velocity":89,"Duration":577478,"SoundDuration":577478,"Delta":161016843},{"NoteNumber":73,"Velocity":61,"Duration":288739,"SoundDuration":288739,"Delta":161305582},{"NoteNumber":77,"Velocity":72,"Duration":288739,"SoundDuration":288739,"Delta":161305582},{"NoteNumber":65,"Velocity":73,"Duration":288739,"SoundDuration":288739,"Delta":161594322},{"NoteNumber":53,"Velocity":61,"Duration":288739,"SoundDuration":288739,"Delta":161594322},{"NoteNumber":49,"Velocity":66,"Duration":288739,"SoundDuration":288739,"Delta":161883061},{"NoteNumber":37,"Velocity":55,"Duration":288739,"SoundDuration":288739,"Delta":161883061},{"NoteNumber":66,"Velocity":78,"Duration":283018,"SoundDuration":283018,"Delta":162171800},{"NoteNumber":54,"Velocity":66,"Duration":283018,"SoundDuration":283018,"Delta":162171800},{"NoteNumber":51,"Velocity":70,"Duration":283018,"SoundDuration":283018,"Delta":162454819},{"NoteNumber":39,"Velocity":58,"Duration":283018,"SoundDuration":283018,"Delta":162454819},{"NoteNumber":68,"Velocity":75,"Duration":283018,"SoundDuration":283018,"Delta":162737838},{"NoteNumber":56,"Velocity":65,"Duration":283018,"SoundDuration":283018,"Delta":162737838},{"NoteNumber":53,"Velocity":66,"Duration":947605,"SoundDuration":947605,"Delta":163020856},{"NoteNumber":41,"Velocity":45,"Duration":947605,"SoundDuration":947605,"Delta":163020856},{"NoteNumber":58,"Velocity":58,"Duration":610526,"SoundDuration":610526,"Delta":163357935},{"NoteNumber":70,"Velocity":58,"Duration":610526,"SoundDuration":610526,"Delta":163357935},{"NoteNumber":42,"Velocity":42,"Duration":1250078,"SoundDuration":1250078,"Delta":163968462},{"NoteNumber":48,"Velocity":38,"Duration":614754,"SoundDuration":614754,"Delta":164603786},{"NoteNumber":51,"Velocity":38,"Duration":614754,"SoundDuration":614754,"Delta":164603786},{"NoteNumber":56,"Velocity":46,"Duration":614754,"SoundDuration":614754,"Delta":164603786},{"NoteNumber":44,"Velocity":38,"Duration":878129,"SoundDuration":878129,"Delta":165218540},{"NoteNumber":53,"Velocity":42,"Duration":289731,"SoundDuration":289731,"Delta":165806938},{"NoteNumber":41,"Velocity":30,"Duration":590435,"SoundDuration":590435,"Delta":166096669},{"NoteNumber":51,"Velocity":39,"Duration":297230,"SoundDuration":297230,"Delta":166389875},{"NoteNumber":39,"Velocity":27,"Duration":917926,"SoundDuration":917926,"Delta":166687105},{"NoteNumber":49,"Velocity":37,"Duration":305756,"SoundDuration":305756,"Delta":166989086},{"NoteNumber":37,"Velocity":26,"Duration":628272,"SoundDuration":628272,"Delta":167605032},{"NoteNumber":68,"Velocity":47,"Duration":280269,"SoundDuration":280269,"Delta":168233304},{"NoteNumber":49,"Velocity":51,"Duration":1138021,"SoundDuration":1138021,"Delta":168233304},{"NoteNumber":65,"Velocity":40,"Duration":291715,"SoundDuration":291715,"Delta":168513573},{"NoteNumber":61,"Velocity":43,"Duration":283018,"SoundDuration":283018,"Delta":168805289},{"NoteNumber":68,"Velocity":39,"Duration":283018,"SoundDuration":283018,"Delta":169088307},{"NoteNumber":61,"Velocity":44,"Duration":283018,"SoundDuration":283018,"Delta":169371326},{"NoteNumber":42,"Velocity":38,"Duration":1158164,"SoundDuration":1158164,"Delta":169371326},{"NoteNumber":70,"Velocity":40,"Duration":291715,"SoundDuration":291715,"Delta":169654345},{"NoteNumber":66,"Velocity":40,"Duration":291715,"SoundDuration":291715,"Delta":169946060},{"NoteNumber":61,"Velocity":38,"Duration":291715,"SoundDuration":291715,"Delta":170237775},{"NoteNumber":68,"Velocity":47,"Duration":283018,"SoundDuration":283018,"Delta":170529491},{"NoteNumber":49,"Velocity":42,"Duration":1712638,"SoundDuration":1712638,"Delta":170529491},{"NoteNumber":65,"Velocity":43,"Duration":291715,"SoundDuration":291715,"Delta":170812509},{"NoteNumber":61,"Velocity":43,"Duration":283018,"SoundDuration":283018,"Delta":171104225},{"NoteNumber":68,"Velocity":44,"Duration":288739,"SoundDuration":288739,"Delta":171387243},{"NoteNumber":61,"Velocity":42,"Duration":280269,"SoundDuration":280269,"Delta":171675983},{"NoteNumber":68,"Velocity":39,"Duration":285877,"SoundDuration":285877,"Delta":171956252},{"NoteNumber":61,"Velocity":44,"Duration":285877,"SoundDuration":285877,"Delta":172242129},{"NoteNumber":63,"Velocity":44,"Duration":285877,"SoundDuration":285877,"Delta":172242129},{"NoteNumber":42,"Velocity":38,"Duration":586780,"SoundDuration":586780,"Delta":172242129},{"NoteNumber":70,"Velocity":40,"Duration":300902,"SoundDuration":300902,"Delta":172528007},{"NoteNumber":68,"Velocity":47,"Duration":291715,"SoundDuration":291715,"Delta":172828910},{"NoteNumber":44,"Velocity":44,"Duration":1157933,"SoundDuration":1157933,"Delta":172828910},{"NoteNumber":63,"Velocity":43,"Duration":288739,"SoundDuration":288739,"Delta":173120625},{"NoteNumber":61,"Velocity":40,"Duration":288739,"SoundDuration":288739,"Delta":173409364},{"NoteNumber":68,"Velocity":40,"Duration":288739,"SoundDuration":288739,"Delta":173698104},{"NoteNumber":60,"Velocity":46,"Duration":299003,"SoundDuration":299003,"Delta":173986843},{"NoteNumber":56,"Velocity":44,"Duration":1728621,"SoundDuration":1728621,"Delta":173986843},{"NoteNumber":68,"Velocity":40,"Duration":285877,"SoundDuration":285877,"Delta":174285847},{"NoteNumber":63,"Velocity":43,"Duration":285877,"SoundDuration":285877,"Delta":174571724},{"NoteNumber":60,"Velocity":43,"Duration":285877,"SoundDuration":285877,"Delta":174857602},{"NoteNumber":68,"Velocity":47,"Duration":291715,"SoundDuration":291715,"Delta":175143480},{"NoteNumber":65,"Velocity":44,"Duration":280269,"SoundDuration":280269,"Delta":175435195},{"NoteNumber":61,"Velocity":43,"Duration":280269,"SoundDuration":280269,"Delta":175715464},{"NoteNumber":54,"Velocity":39,"Duration":280269,"SoundDuration":280269,"Delta":175715464},{"NoteNumber":68,"Velocity":43,"Duration":291715,"SoundDuration":291715,"Delta":175995733},{"NoteNumber":53,"Velocity":39,"Duration":291715,"SoundDuration":291715,"Delta":175995733},{"NoteNumber":65,"Velocity":47,"Duration":283018,"SoundDuration":283018,"Delta":176287448},{"NoteNumber":51,"Velocity":41,"Duration":563287,"SoundDuration":563287,"Delta":176287448},{"NoteNumber":73,"Velocity":44,"Duration":280269,"SoundDuration":280269,"Delta":176570467},{"NoteNumber":68,"Velocity":41,"Duration":291262,"SoundDuration":291262,"Delta":176850736},{"NoteNumber":49,"Velocity":38,"Duration":591262,"SoundDuration":591262,"Delta":176850736},{"NoteNumber":65,"Velocity":38,"Duration":300000,"SoundDuration":300000,"Delta":177141998},{"NoteNumber":73,"Velocity":47,"Duration":280269,"SoundDuration":280269,"Delta":177441998},{"NoteNumber":61,"Velocity":51,"Duration":1143968,"SoundDuration":1143968,"Delta":177441998},{"NoteNumber":68,"Velocity":43,"Duration":291715,"SoundDuration":291715,"Delta":177722267},{"NoteNumber":65,"Velocity":43,"Duration":280269,"SoundDuration":280269,"Delta":178013983},{"NoteNumber":73,"Velocity":39,"Duration":291715,"SoundDuration":291715,"Delta":178294252},{"NoteNumber":66,"Velocity":64,"Duration":291715,"SoundDuration":291715,"Delta":178585967},{"NoteNumber":54,"Velocity":58,"Duration":1166860,"SoundDuration":1166860,"Delta":178585967},{"NoteNumber":73,"Velocity":43,"Duration":291715,"SoundDuration":291715,"Delta":178877682},{"NoteNumber":70,"Velocity":47,"Duration":291715,"SoundDuration":291715,"Delta":179169397},{"NoteNumber":66,"Velocity":38,"Duration":291715,"SoundDuration":291715,"Delta":179461113},{"NoteNumber":73,"Velocity":47,"Duration":283018,"SoundDuration":283018,"Delta":179752828},{"NoteNumber":61,"Velocity":42,"Duration":1736017,"SoundDuration":1736017,"Delta":179752828},{"NoteNumber":68,"Velocity":43,"Duration":288739,"SoundDuration":288739,"Delta":180035847},{"NoteNumber":65,"Velocity":43,"Duration":288739,"SoundDuration":288739,"Delta":180324586},{"NoteNumber":73,"Velocity":44,"Duration":288739,"SoundDuration":288739,"Delta":180613325},{"NoteNumber":65,"Velocity":42,"Duration":300902,"SoundDuration":300902,"Delta":180902064},{"NoteNumber":73,"Velocity":39,"Duration":285877,"SoundDuration":285877,"Delta":181202967},{"NoteNumber":64,"Velocity":44,"Duration":285877,"SoundDuration":285877,"Delta":181488845},{"NoteNumber":67,"Velocity":44,"Duration":285877,"SoundDuration":285877,"Delta":181488845},{"NoteNumber":57,"Velocity":38,"Duration":586780,"SoundDuration":586780,"Delta":181488845},{"NoteNumber":73,"Velocity":40,"Duration":300902,"SoundDuration":300902,"Delta":181774723},{"NoteNumber":63,"Velocity":47,"Duration":291715,"SoundDuration":291715,"Delta":182075625},{"NoteNumber":56,"Velocity":44,"Duration":1157933,"SoundDuration":1157933,"Delta":182075625},{"NoteNumber":73,"Velocity":43,"Duration":288739,"SoundDuration":288739,"Delta":182367341},{"NoteNumber":66,"Velocity":43,"Duration":288739,"SoundDuration":288739,"Delta":182656080},{"NoteNumber":63,"Velocity":39,"Duration":288739,"SoundDuration":288739,"Delta":182944819},{"NoteNumber":72,"Velocity":46,"Duration":299003,"SoundDuration":299003,"Delta":183233558},{"NoteNumber":44,"Velocity":44,"Duration":1728621,"SoundDuration":1728621,"Delta":183233558},{"NoteNumber":66,"Velocity":43,"Duration":285877,"SoundDuration":285877,"Delta":183532562},{"NoteNumber":63,"Velocity":43,"Duration":285877,"SoundDuration":285877,"Delta":183818440},{"NoteNumber":72,"Velocity":39,"Duration":285877,"SoundDuration":285877,"Delta":184104318},{"NoteNumber":73,"Velocity":47,"Duration":291715,"SoundDuration":291715,"Delta":184390196},{"NoteNumber":68,"Velocity":44,"Duration":280269,"SoundDuration":280269,"Delta":184681911},{"NoteNumber":65,"Velocity":43,"Duration":280269,"SoundDuration":280269,"Delta":184962180},{"NoteNumber":37,"Velocity":36,"Duration":280269,"SoundDuration":280269,"Delta":184962180},{"NoteNumber":73,"Velocity":43,"Duration":283018,"SoundDuration":283018,"Delta":185242449},{"NoteNumber":41,"Velocity":36,"Duration":283018,"SoundDuration":283018,"Delta":185242449},{"NoteNumber":68,"Velocity":47,"Duration":288808,"SoundDuration":288808,"Delta":185525468},{"NoteNumber":44,"Velocity":38,"Duration":288808,"SoundDuration":288808,"Delta":185525468},{"NoteNumber":65,"Velocity":40,"Duration":294715,"SoundDuration":294715,"Delta":185814276},{"NoteNumber":49,"Velocity":34,"Duration":294715,"SoundDuration":294715,"Delta":185814276},{"NoteNumber":61,"Velocity":41,"Duration":302532,"SoundDuration":302532,"Delta":186108992},{"NoteNumber":53,"Velocity":35,"Duration":302532,"SoundDuration":302532,"Delta":186108992},{"NoteNumber":68,"Velocity":38,"Duration":311881,"SoundDuration":311881,"Delta":186411524},{"NoteNumber":51,"Velocity":30,"Duration":311881,"SoundDuration":311881,"Delta":186411524},{"NoteNumber":68,"Velocity":47,"Duration":280269,"SoundDuration":280269,"Delta":186723405},{"NoteNumber":49,"Velocity":51,"Duration":1138021,"SoundDuration":1138021,"Delta":186723405},{"NoteNumber":65,"Velocity":40,"Duration":291715,"SoundDuration":291715,"Delta":187003674},{"NoteNumber":61,"Velocity":43,"Duration":283018,"SoundDuration":283018,"Delta":187295390},{"NoteNumber":68,"Velocity":39,"Duration":283018,"SoundDuration":283018,"Delta":187578408},{"NoteNumber":61,"Velocity":44,"Duration":283018,"SoundDuration":283018,"Delta":187861427},{"NoteNumber":42,"Velocity":38,"Duration":1158164,"SoundDuration":1158164,"Delta":187861427},{"NoteNumber":70,"Velocity":40,"Duration":291715,"SoundDuration":291715,"Delta":188144446},{"NoteNumber":66,"Velocity":40,"Duration":291715,"SoundDuration":291715,"Delta":188436161},{"NoteNumber":61,"Velocity":38,"Duration":291715,"SoundDuration":291715,"Delta":188727876},{"NoteNumber":68,"Velocity":47,"Duration":283018,"SoundDuration":283018,"Delta":189019592},{"NoteNumber":49,"Velocity":42,"Duration":1702237,"SoundDuration":1702237,"Delta":189019592},{"NoteNumber":65,"Velocity":43,"Duration":291715,"SoundDuration":291715,"Delta":189302610},{"NoteNumber":61,"Velocity":43,"Duration":283018,"SoundDuration":283018,"Delta":189594326},{"NoteNumber":68,"Velocity":44,"Duration":288739,"SoundDuration":288739,"Delta":189877344},{"NoteNumber":61,"Velocity":42,"Duration":272727,"SoundDuration":272727,"Delta":190166084},{"NoteNumber":68,"Velocity":39,"Duration":283018,"SoundDuration":283018,"Delta":190438811},{"NoteNumber":61,"Velocity":44,"Duration":283018,"SoundDuration":283018,"Delta":190721830},{"NoteNumber":63,"Velocity":44,"Duration":283018,"SoundDuration":283018,"Delta":190721830},{"NoteNumber":42,"Velocity":38,"Duration":583921,"SoundDuration":583921,"Delta":190721830},{"NoteNumber":70,"Velocity":40,"Duration":300902,"SoundDuration":300902,"Delta":191004848},{"NoteNumber":68,"Velocity":47,"Duration":280373,"SoundDuration":280373,"Delta":191305751},{"NoteNumber":44,"Velocity":44,"Duration":1145758,"SoundDuration":1145758,"Delta":191305751},{"NoteNumber":63,"Velocity":43,"Duration":288461,"SoundDuration":288461,"Delta":191586125},{"NoteNumber":61,"Velocity":40,"Duration":288461,"SoundDuration":288461,"Delta":191874586},{"NoteNumber":68,"Velocity":40,"Duration":288461,"SoundDuration":288461,"Delta":192163048},{"NoteNumber":60,"Velocity":46,"Duration":296215,"SoundDuration":296215,"Delta":192451509},{"NoteNumber":56,"Velocity":44,"Duration":1725832,"SoundDuration":1725832,"Delta":192451509},{"NoteNumber":68,"Velocity":40,"Duration":285877,"SoundDuration":285877,"Delta":192747725},{"NoteNumber":63,"Velocity":43,"Duration":285877,"SoundDuration":285877,"Delta":193033603},{"NoteNumber":60,"Velocity":43,"Duration":285877,"SoundDuration":285877,"Delta":193319480},{"NoteNumber":68,"Velocity":47,"Duration":291715,"SoundDuration":291715,"Delta":193605358},{"NoteNumber":65,"Velocity":44,"Duration":280269,"SoundDuration":280269,"Delta":193897073},{"NoteNumber":61,"Velocity":43,"Duration":270270,"SoundDuration":270270,"Delta":194177342},{"NoteNumber":54,"Velocity":39,"Duration":270270,"SoundDuration":270270,"Delta":194177342},{"NoteNumber":68,"Velocity":43,"Duration":291715,"SoundDuration":291715,"Delta":194447613},{"NoteNumber":53,"Velocity":39,"Duration":291715,"SoundDuration":291715,"Delta":194447613},{"NoteNumber":65,"Velocity":47,"Duration":283018,"SoundDuration":283018,"Delta":194739328},{"NoteNumber":51,"Velocity":41,"Duration":563287,"SoundDuration":563287,"Delta":194739328},{"NoteNumber":73,"Velocity":44,"Duration":280269,"SoundDuration":280269,"Delta":195022347},{"NoteNumber":68,"Velocity":41,"Duration":291262,"SoundDuration":291262,"Delta":195302616},{"NoteNumber":49,"Velocity":38,"Duration":591262,"SoundDuration":591262,"Delta":195302616},{"NoteNumber":65,"Velocity":38,"Duration":300000,"SoundDuration":300000,"Delta":195593878},{"NoteNumber":73,"Velocity":47,"Duration":280269,"SoundDuration":280269,"Delta":195893878},{"NoteNumber":61,"Velocity":51,"Duration":1143968,"SoundDuration":1143968,"Delta":195893878},{"NoteNumber":68,"Velocity":43,"Duration":291715,"SoundDuration":291715,"Delta":196174147},{"NoteNumber":65,"Velocity":43,"Duration":280269,"SoundDuration":280269,"Delta":196465862},{"NoteNumber":73,"Velocity":39,"Duration":291715,"SoundDuration":291715,"Delta":196746131},{"NoteNumber":66,"Velocity":59,"Duration":291715,"SoundDuration":291715,"Delta":197037846},{"NoteNumber":54,"Velocity":58,"Duration":1166860,"SoundDuration":1166860,"Delta":197037846},{"NoteNumber":73,"Velocity":43,"Duration":291715,"SoundDuration":291715,"Delta":197329562},{"NoteNumber":70,"Velocity":47,"Duration":291715,"SoundDuration":291715,"Delta":197621277},{"NoteNumber":66,"Velocity":38,"Duration":291715,"SoundDuration":291715,"Delta":197912992},{"NoteNumber":73,"Velocity":47,"Duration":283018,"SoundDuration":283018,"Delta":198204707},{"NoteNumber":61,"Velocity":42,"Duration":1736017,"SoundDuration":1736017,"Delta":198204707},{"NoteNumber":68,"Velocity":43,"Duration":288739,"SoundDuration":288739,"Delta":198487726},{"NoteNumber":65,"Velocity":43,"Duration":288739,"SoundDuration":288739,"Delta":198776465},{"NoteNumber":73,"Velocity":44,"Duration":288739,"SoundDuration":288739,"Delta":199065205},{"NoteNumber":65,"Velocity":42,"Duration":300902,"SoundDuration":300902,"Delta":199353944},{"NoteNumber":73,"Velocity":39,"Duration":285877,"SoundDuration":285877,"Delta":199654847},{"NoteNumber":64,"Velocity":44,"Duration":275229,"SoundDuration":275229,"Delta":199940724},{"NoteNumber":67,"Velocity":44,"Duration":275229,"SoundDuration":275229,"Delta":199940724},{"NoteNumber":57,"Velocity":38,"Duration":576132,"SoundDuration":576132,"Delta":199940724},{"NoteNumber":73,"Velocity":40,"Duration":300902,"SoundDuration":300902,"Delta":200215954},{"NoteNumber":63,"Velocity":47,"Duration":280373,"SoundDuration":280373,"Delta":200516856},{"NoteNumber":56,"Velocity":44,"Duration":1145758,"SoundDuration":1145758,"Delta":200516856},{"NoteNumber":73,"Velocity":43,"Duration":288461,"SoundDuration":288461,"Delta":200797230},{"NoteNumber":66,"Velocity":43,"Duration":288461,"SoundDuration":288461,"Delta":201085692},{"NoteNumber":63,"Velocity":39,"Duration":288461,"SoundDuration":288461,"Delta":201374153},{"NoteNumber":72,"Velocity":46,"Duration":298911,"SoundDuration":298911,"Delta":201662615},{"NoteNumber":44,"Velocity":44,"Duration":1728528,"SoundDuration":1728528,"Delta":201662615},{"NoteNumber":66,"Velocity":43,"Duration":285877,"SoundDuration":285877,"Delta":201961526},{"NoteNumber":63,"Velocity":43,"Duration":285877,"SoundDuration":285877,"Delta":202247404},{"NoteNumber":72,"Velocity":39,"Duration":285877,"SoundDuration":285877,"Delta":202533281},{"NoteNumber":73,"Velocity":47,"Duration":291715,"SoundDuration":291715,"Delta":202819159},{"NoteNumber":68,"Velocity":44,"Duration":280269,"SoundDuration":280269,"Delta":203110874},{"NoteNumber":65,"Velocity":43,"Duration":280269,"SoundDuration":280269,"Delta":203391143},{"NoteNumber":49,"Velocity":36,"Duration":280269,"SoundDuration":280269,"Delta":203391143},{"NoteNumber":73,"Velocity":43,"Duration":283018,"SoundDuration":283018,"Delta":203671412},{"NoteNumber":53,"Velocity":36,"Duration":283018,"SoundDuration":283018,"Delta":203671412},{"NoteNumber":68,"Velocity":47,"Duration":288808,"SoundDuration":288808,"Delta":203954431},{"NoteNumber":53,"Velocity":38,"Duration":288808,"SoundDuration":288808,"Delta":203954431},{"NoteNumber":65,"Velocity":40,"Duration":294715,"SoundDuration":294715,"Delta":204243239},{"NoteNumber":49,"Velocity":34,"Duration":294715,"SoundDuration":294715,"Delta":204243239},{"NoteNumber":61,"Velocity":41,"Duration":302532,"SoundDuration":302532,"Delta":204537955},{"NoteNumber":53,"Velocity":35,"Duration":302532,"SoundDuration":302532,"Delta":204537955},{"NoteNumber":68,"Velocity":38,"Duration":311881,"SoundDuration":311881,"Delta":204840487},{"NoteNumber":56,"Velocity":30,"Duration":311881,"SoundDuration":311881,"Delta":204840487},{"NoteNumber":68,"Velocity":47,"Duration":280269,"SoundDuration":280269,"Delta":205152369},{"NoteNumber":56,"Velocity":51,"Duration":2296186,"SoundDuration":2296186,"Delta":205152369},{"NoteNumber":54,"Velocity":51,"Duration":1138021,"SoundDuration":1138021,"Delta":205152369},{"NoteNumber":63,"Velocity":40,"Duration":291715,"SoundDuration":291715,"Delta":205432638},{"NoteNumber":60,"Velocity":43,"Duration":283018,"SoundDuration":283018,"Delta":205724353},{"NoteNumber":68,"Velocity":39,"Duration":283018,"SoundDuration":283018,"Delta":206007372},{"NoteNumber":60,"Velocity":44,"Duration":283018,"SoundDuration":283018,"Delta":206290391},{"NoteNumber":51,"Velocity":38,"Duration":1158164,"SoundDuration":1158164,"Delta":206290391},{"NoteNumber":68,"Velocity":40,"Duration":291715,"SoundDuration":291715,"Delta":206573410},{"NoteNumber":66,"Velocity":40,"Duration":291715,"SoundDuration":291715,"Delta":206865125},{"NoteNumber":60,"Velocity":38,"Duration":291715,"SoundDuration":291715,"Delta":207156840},{"NoteNumber":61,"Velocity":49,"Duration":283018,"SoundDuration":283018,"Delta":207448555},{"NoteNumber":53,"Velocity":38,"Duration":574734,"SoundDuration":574734,"Delta":207448555},{"NoteNumber":56,"Velocity":46,"Duration":574734,"SoundDuration":574734,"Delta":207448555},{"NoteNumber":65,"Velocity":49,"Duration":291715,"SoundDuration":291715,"Delta":207731574},{"NoteNumber":68,"Velocity":53,"Duration":283018,"SoundDuration":283018,"Delta":208023289},{"NoteNumber":51,"Velocity":41,"Duration":283018,"SoundDuration":283018,"Delta":208023289},{"NoteNumber":56,"Velocity":49,"Duration":283018,"SoundDuration":283018,"Delta":208023289},{"NoteNumber":73,"Velocity":57,"Duration":297737,"SoundDuration":297737,"Delta":208306308},{"NoteNumber":53,"Velocity":45,"Duration":297737,"SoundDuration":297737,"Delta":208306308},{"NoteNumber":56,"Velocity":54,"Duration":297737,"SoundDuration":297737,"Delta":208306308},{"NoteNumber":72,"Velocity":62,"Duration":280269,"SoundDuration":280269,"Delta":208604045},{"NoteNumber":51,"Velocity":49,"Duration":566146,"SoundDuration":566146,"Delta":208604045},{"NoteNumber":56,"Velocity":59,"Duration":566146,"SoundDuration":566146,"Delta":208604045},{"NoteNumber":66,"Velocity":49,"Duration":285877,"SoundDuration":285877,"Delta":208884314},{"NoteNumber":73,"Velocity":55,"Duration":285877,"SoundDuration":285877,"Delta":209170192},{"NoteNumber":49,"Velocity":42,"Duration":586780,"SoundDuration":586780,"Delta":209170192},{"NoteNumber":56,"Velocity":50,"Duration":586780,"SoundDuration":586780,"Delta":209170192},{"NoteNumber":65,"Velocity":43,"Duration":300902,"SoundDuration":300902,"Delta":209456070},{"NoteNumber":68,"Velocity":47,"Duration":280269,"SoundDuration":280269,"Delta":209756973},{"NoteNumber":56,"Velocity":51,"Duration":2296186,"SoundDuration":2296186,"Delta":209756973},{"NoteNumber":54,"Velocity":51,"Duration":1138021,"SoundDuration":1138021,"Delta":209756973},{"NoteNumber":63,"Velocity":40,"Duration":291715,"SoundDuration":291715,"Delta":210037242},{"NoteNumber":60,"Velocity":43,"Duration":283018,"SoundDuration":283018,"Delta":210328957},{"NoteNumber":68,"Velocity":39,"Duration":283018,"SoundDuration":283018,"Delta":210611976},{"NoteNumber":60,"Velocity":44,"Duration":283018,"SoundDuration":283018,"Delta":210894994},{"NoteNumber":51,"Velocity":38,"Duration":1158164,"SoundDuration":1158164,"Delta":210894994},{"NoteNumber":68,"Velocity":40,"Duration":291715,"SoundDuration":291715,"Delta":211178013},{"NoteNumber":66,"Velocity":40,"Duration":291715,"SoundDuration":291715,"Delta":211469728},{"NoteNumber":60,"Velocity":38,"Duration":291715,"SoundDuration":291715,"Delta":211761444},{"NoteNumber":61,"Velocity":49,"Duration":283018,"SoundDuration":283018,"Delta":212053159},{"NoteNumber":53,"Velocity":38,"Duration":574734,"SoundDuration":574734,"Delta":212053159},{"NoteNumber":56,"Velocity":46,"Duration":574734,"SoundDuration":574734,"Delta":212053159},{"NoteNumber":65,"Velocity":49,"Duration":291715,"SoundDuration":291715,"Delta":212336178},{"NoteNumber":68,"Velocity":53,"Duration":283018,"SoundDuration":283018,"Delta":212627893},{"NoteNumber":51,"Velocity":41,"Duration":283018,"SoundDuration":283018,"Delta":212627893},{"NoteNumber":56,"Velocity":49,"Duration":283018,"SoundDuration":283018,"Delta":212627893},{"NoteNumber":77,"Velocity":55,"Duration":300902,"SoundDuration":300902,"Delta":212910912},{"NoteNumber":49,"Velocity":45,"Duration":300902,"SoundDuration":300902,"Delta":212910912},{"NoteNumber":56,"Velocity":54,"Duration":300902,"SoundDuration":300902,"Delta":212910912},{"NoteNumber":75,"Velocity":62,"Duration":280269,"SoundDuration":280269,"Delta":213211814},{"NoteNumber":48,"Velocity":49,"Duration":566146,"SoundDuration":566146,"Delta":213211814},{"NoteNumber":56,"Velocity":59,"Duration":566146,"SoundDuration":566146,"Delta":213211814},{"NoteNumber":66,"Velocity":49,"Duration":285877,"SoundDuration":285877,"Delta":213492083},{"NoteNumber":73,"Velocity":55,"Duration":285877,"SoundDuration":285877,"Delta":213777961},{"NoteNumber":49,"Velocity":42,"Duration":586780,"SoundDuration":586780,"Delta":213777961},{"NoteNumber":56,"Velocity":50,"Duration":586780,"SoundDuration":586780,"Delta":213777961},{"NoteNumber":65,"Velocity":43,"Duration":300902,"SoundDuration":300902,"Delta":214063839},{"NoteNumber":68,"Velocity":58,"Duration":280269,"SoundDuration":280269,"Delta":214364742},{"NoteNumber":56,"Velocity":58,"Duration":2296186,"SoundDuration":2296186,"Delta":214364742},{"NoteNumber":54,"Velocity":58,"Duration":1138021,"SoundDuration":1138021,"Delta":214364742},{"NoteNumber":63,"Velocity":50,"Duration":291715,"SoundDuration":291715,"Delta":214645011},{"NoteNumber":60,"Velocity":58,"Duration":283018,"SoundDuration":283018,"Delta":214936726},{"NoteNumber":68,"Velocity":53,"Duration":283018,"SoundDuration":283018,"Delta":215219745},{"NoteNumber":60,"Velocity":67,"Duration":283018,"SoundDuration":283018,"Delta":215502763},{"NoteNumber":51,"Velocity":62,"Duration":1158164,"SoundDuration":1158164,"Delta":215502763},{"NoteNumber":68,"Velocity":62,"Duration":291715,"SoundDuration":291715,"Delta":215785782},{"NoteNumber":66,"Velocity":67,"Duration":291715,"SoundDuration":291715,"Delta":216077497},{"NoteNumber":60,"Velocity":63,"Duration":291715,"SoundDuration":291715,"Delta":216369213},{"NoteNumber":53,"Velocity":59,"Duration":574734,"SoundDuration":574734,"Delta":216660928},{"NoteNumber":56,"Velocity":59,"Duration":574734,"SoundDuration":574734,"Delta":216660928},{"NoteNumber":61,"Velocity":73,"Duration":574734,"SoundDuration":574734,"Delta":216660928},{"NoteNumber":80,"Velocity":73,"Duration":291715,"SoundDuration":291715,"Delta":216943947},{"NoteNumber":68,"Velocity":74,"Duration":283018,"SoundDuration":283018,"Delta":217235662},{"NoteNumber":54,"Velocity":55,"Duration":283018,"SoundDuration":283018,"Delta":217235662},{"NoteNumber":51,"Velocity":55,"Duration":283018,"SoundDuration":283018,"Delta":217235662},{"NoteNumber":61,"Velocity":65,"Duration":283018,"SoundDuration":283018,"Delta":217235662},{"NoteNumber":80,"Velocity":65,"Duration":304136,"SoundDuration":304136,"Delta":217518681},{"NoteNumber":49,"Velocity":49,"Duration":304136,"SoundDuration":304136,"Delta":217518681},{"NoteNumber":53,"Velocity":49,"Duration":304136,"SoundDuration":304136,"Delta":217518681},{"NoteNumber":61,"Velocity":59,"Duration":304136,"SoundDuration":304136,"Delta":217518681},{"NoteNumber":78,"Velocity":70,"Duration":280269,"SoundDuration":280269,"Delta":217822817},{"NoteNumber":54,"Velocity":56,"Duration":566146,"SoundDuration":566146,"Delta":217822817},{"NoteNumber":51,"Velocity":56,"Duration":566146,"SoundDuration":566146,"Delta":217822817},{"NoteNumber":60,"Velocity":66,"Duration":566146,"SoundDuration":566146,"Delta":217822817},{"NoteNumber":68,"Velocity":58,"Duration":285877,"SoundDuration":285877,"Delta":218103086},{"NoteNumber":77,"Velocity":63,"Duration":285877,"SoundDuration":285877,"Delta":218388964},{"NoteNumber":56,"Velocity":40,"Duration":586780,"SoundDuration":586780,"Delta":218388964},{"NoteNumber":53,"Velocity":40,"Duration":586780,"SoundDuration":586780,"Delta":218388964},{"NoteNumber":61,"Velocity":58,"Duration":586780,"SoundDuration":586780,"Delta":218388964},{"NoteNumber":68,"Velocity":48,"Duration":300902,"SoundDuration":300902,"Delta":218674841},{"NoteNumber":75,"Velocity":47,"Duration":291715,"SoundDuration":291715,"Delta":218975744},{"NoteNumber":54,"Velocity":34,"Duration":1157933,"SoundDuration":1157933,"Delta":218975744},{"NoteNumber":58,"Velocity":34,"Duration":1157933,"SoundDuration":1157933,"Delta":218975744},{"NoteNumber":63,"Velocity":40,"Duration":1157933,"SoundDuration":1157933,"Delta":218975744},{"NoteNumber":70,"Velocity":43,"Duration":288739,"SoundDuration":288739,"Delta":219267459},{"NoteNumber":66,"Velocity":43,"Duration":288739,"SoundDuration":288739,"Delta":219556199},{"NoteNumber":75,"Velocity":39,"Duration":288739,"SoundDuration":288739,"Delta":219844938},{"NoteNumber":68,"Velocity":46,"Duration":299003,"SoundDuration":299003,"Delta":220133677},{"NoteNumber":56,"Velocity":34,"Duration":1156637,"SoundDuration":1156637,"Delta":220133677},{"NoteNumber":60,"Velocity":40,"Duration":1156637,"SoundDuration":1156637,"Delta":220133677},{"NoteNumber":66,"Velocity":43,"Duration":285877,"SoundDuration":285877,"Delta":220432681},{"NoteNumber":63,"Velocity":43,"Duration":285877,"SoundDuration":285877,"Delta":220718559},{"NoteNumber":68,"Velocity":39,"Duration":285877,"SoundDuration":285877,"Delta":221004436},{"NoteNumber":65,"Velocity":47,"Duration":291715,"SoundDuration":291715,"Delta":221290314},{"NoteNumber":56,"Velocity":34,"Duration":571984,"SoundDuration":571984,"Delta":221290314},{"NoteNumber":61,"Velocity":40,"Duration":571984,"SoundDuration":571984,"Delta":221290314},{"NoteNumber":73,"Velocity":44,"Duration":280269,"SoundDuration":280269,"Delta":221582029},{"NoteNumber":68,"Velocity":43,"Duration":280269,"SoundDuration":280269,"Delta":221862298},{"NoteNumber":49,"Velocity":36,"Duration":280269,"SoundDuration":280269,"Delta":221862298},{"NoteNumber":65,"Velocity":43,"Duration":291715,"SoundDuration":291715,"Delta":222142567},{"NoteNumber":51,"Velocity":36,"Duration":291715,"SoundDuration":291715,"Delta":222142567},{"NoteNumber":61,"Velocity":47,"Duration":288808,"SoundDuration":288808,"Delta":222434283},{"NoteNumber":53,"Velocity":38,"Duration":288808,"SoundDuration":288808,"Delta":222434283},{"NoteNumber":49,"Velocity":28,"Duration":294715,"SoundDuration":294715,"Delta":222723091},{"NoteNumber":56,"Velocity":34,"Duration":294715,"SoundDuration":294715,"Delta":222723091},{"NoteNumber":51,"Velocity":29,"Duration":302532,"SoundDuration":302532,"Delta":223017807},{"NoteNumber":56,"Velocity":35,"Duration":302532,"SoundDuration":302532,"Delta":223017807},{"NoteNumber":53,"Velocity":25,"Duration":311881,"SoundDuration":311881,"Delta":223320339},{"NoteNumber":56,"Velocity":30,"Duration":311881,"SoundDuration":311881,"Delta":223320339},{"NoteNumber":68,"Velocity":47,"Duration":280269,"SoundDuration":280269,"Delta":223632221},{"NoteNumber":56,"Velocity":51,"Duration":2296186,"SoundDuration":2296186,"Delta":223632221},{"NoteNumber":54,"Velocity":51,"Duration":1138021,"SoundDuration":1138021,"Delta":223632221},{"NoteNumber":63,"Velocity":40,"Duration":291715,"SoundDuration":291715,"Delta":223912490},{"NoteNumber":60,"Velocity":43,"Duration":283018,"SoundDuration":283018,"Delta":224204205},{"NoteNumber":68,"Velocity":39,"Duration":283018,"SoundDuration":283018,"Delta":224487224},{"NoteNumber":60,"Velocity":44,"Duration":283018,"SoundDuration":283018,"Delta":224770242},{"NoteNumber":51,"Velocity":38,"Duration":1158164,"SoundDuration":1158164,"Delta":224770242},{"NoteNumber":68,"Velocity":40,"Duration":291715,"SoundDuration":291715,"Delta":225053261},{"NoteNumber":66,"Velocity":40,"Duration":291715,"SoundDuration":291715,"Delta":225344976},{"NoteNumber":60,"Velocity":38,"Duration":291715,"SoundDuration":291715,"Delta":225636692},{"NoteNumber":61,"Velocity":49,"Duration":283018,"SoundDuration":283018,"Delta":225928407},{"NoteNumber":53,"Velocity":38,"Duration":553289,"SoundDuration":553289,"Delta":225928407},{"NoteNumber":56,"Velocity":46,"Duration":553289,"SoundDuration":553289,"Delta":225928407},{"NoteNumber":65,"Velocity":49,"Duration":270270,"SoundDuration":270270,"Delta":226211426},{"NoteNumber":68,"Velocity":53,"Duration":291262,"SoundDuration":291262,"Delta":226481696},{"NoteNumber":51,"Velocity":41,"Duration":291262,"SoundDuration":291262,"Delta":226481696},{"NoteNumber":56,"Velocity":49,"Duration":291262,"SoundDuration":291262,"Delta":226481696},{"NoteNumber":73,"Velocity":57,"Duration":297737,"SoundDuration":297737,"Delta":226772958},{"NoteNumber":53,"Velocity":45,"Duration":297737,"SoundDuration":297737,"Delta":226772958},{"NoteNumber":56,"Velocity":54,"Duration":297737,"SoundDuration":297737,"Delta":226772958},{"NoteNumber":72,"Velocity":62,"Duration":275229,"SoundDuration":275229,"Delta":227070695},{"NoteNumber":51,"Velocity":49,"Duration":561106,"SoundDuration":561106,"Delta":227070695},{"NoteNumber":56,"Velocity":59,"Duration":561106,"SoundDuration":561106,"Delta":227070695},{"NoteNumber":66,"Velocity":49,"Duration":285877,"SoundDuration":285877,"Delta":227345925},{"NoteNumber":73,"Velocity":55,"Duration":285877,"SoundDuration":285877,"Delta":227631802},{"NoteNumber":49,"Velocity":42,"Duration":586780,"SoundDuration":586780,"Delta":227631802},{"NoteNumber":56,"Velocity":50,"Duration":586780,"SoundDuration":586780,"Delta":227631802},{"NoteNumber":65,"Velocity":43,"Duration":300902,"SoundDuration":300902,"Delta":227917680},{"NoteNumber":68,"Velocity":47,"Duration":280269,"SoundDuration":280269,"Delta":228218583},{"NoteNumber":56,"Velocity":51,"Duration":2288396,"SoundDuration":2288396,"Delta":228218583},{"NoteNumber":54,"Velocity":51,"Duration":1130232,"SoundDuration":1130232,"Delta":228218583},{"NoteNumber":63,"Velocity":40,"Duration":291715,"SoundDuration":291715,"Delta":228498852},{"NoteNumber":60,"Velocity":43,"Duration":275229,"SoundDuration":275229,"Delta":228790567},{"NoteNumber":68,"Velocity":39,"Duration":283018,"SoundDuration":283018,"Delta":229065796},{"NoteNumber":60,"Velocity":44,"Duration":283018,"SoundDuration":283018,"Delta":229348815},{"NoteNumber":51,"Velocity":38,"Duration":1158164,"SoundDuration":1158164,"Delta":229348815},{"NoteNumber":68,"Velocity":40,"Duration":291715,"SoundDuration":291715,"Delta":229631834},{"NoteNumber":66,"Velocity":40,"Duration":291715,"SoundDuration":291715,"Delta":229923549},{"NoteNumber":60,"Velocity":38,"Duration":291715,"SoundDuration":291715,"Delta":230215264},{"NoteNumber":61,"Velocity":49,"Duration":283018,"SoundDuration":283018,"Delta":230506980},{"NoteNumber":53,"Velocity":38,"Duration":553289,"SoundDuration":553289,"Delta":230506980},{"NoteNumber":56,"Velocity":46,"Duration":553289,"SoundDuration":553289,"Delta":230506980},{"NoteNumber":65,"Velocity":49,"Duration":270270,"SoundDuration":270270,"Delta":230789998},{"NoteNumber":68,"Velocity":53,"Duration":283018,"SoundDuration":283018,"Delta":231060269},{"NoteNumber":51,"Velocity":41,"Duration":283018,"SoundDuration":283018,"Delta":231060269},{"NoteNumber":56,"Velocity":49,"Duration":283018,"SoundDuration":283018,"Delta":231060269},{"NoteNumber":77,"Velocity":54,"Duration":300902,"SoundDuration":300902,"Delta":231343287},{"NoteNumber":49,"Velocity":45,"Duration":300902,"SoundDuration":300902,"Delta":231343287},{"NoteNumber":56,"Velocity":54,"Duration":300902,"SoundDuration":300902,"Delta":231343287},{"NoteNumber":75,"Velocity":62,"Duration":280269,"SoundDuration":280269,"Delta":231644190},{"NoteNumber":48,"Velocity":49,"Duration":566146,"SoundDuration":566146,"Delta":231644190},{"NoteNumber":56,"Velocity":59,"Duration":566146,"SoundDuration":566146,"Delta":231644190},{"NoteNumber":66,"Velocity":49,"Duration":285877,"SoundDuration":285877,"Delta":231924459},{"NoteNumber":73,"Velocity":55,"Duration":285877,"SoundDuration":285877,"Delta":232210337},{"NoteNumber":49,"Velocity":42,"Duration":586780,"SoundDuration":586780,"Delta":232210337},{"NoteNumber":56,"Velocity":50,"Duration":586780,"SoundDuration":586780,"Delta":232210337},{"NoteNumber":65,"Velocity":43,"Duration":300902,"SoundDuration":300902,"Delta":232496215},{"NoteNumber":68,"Velocity":58,"Duration":280269,"SoundDuration":280269,"Delta":232797117},{"NoteNumber":56,"Velocity":58,"Duration":2282248,"SoundDuration":2282248,"Delta":232797117},{"NoteNumber":54,"Velocity":58,"Duration":1138021,"SoundDuration":1138021,"Delta":232797117},{"NoteNumber":63,"Velocity":50,"Duration":291715,"SoundDuration":291715,"Delta":233077386},{"NoteNumber":60,"Velocity":58,"Duration":283018,"SoundDuration":283018,"Delta":233369102},{"NoteNumber":68,"Velocity":53,"Duration":283018,"SoundDuration":283018,"Delta":233652120},{"NoteNumber":60,"Velocity":67,"Duration":283018,"SoundDuration":283018,"Delta":233935139},{"NoteNumber":51,"Velocity":62,"Duration":1144227,"SoundDuration":1144227,"Delta":233935139},{"NoteNumber":68,"Velocity":62,"Duration":291715,"SoundDuration":291715,"Delta":234218158},{"NoteNumber":66,"Velocity":67,"Duration":291715,"SoundDuration":291715,"Delta":234509873},{"NoteNumber":60,"Velocity":64,"Duration":277777,"SoundDuration":277777,"Delta":234801588},{"NoteNumber":53,"Velocity":59,"Duration":561985,"SoundDuration":561985,"Delta":235079366},{"NoteNumber":56,"Velocity":59,"Duration":561985,"SoundDuration":561985,"Delta":235079366},{"NoteNumber":61,"Velocity":73,"Duration":561985,"SoundDuration":561985,"Delta":235079366},{"NoteNumber":80,"Velocity":74,"Duration":291715,"SoundDuration":291715,"Delta":235349636},{"NoteNumber":68,"Velocity":74,"Duration":277777,"SoundDuration":277777,"Delta":235641352},{"NoteNumber":54,"Velocity":55,"Duration":277777,"SoundDuration":277777,"Delta":235641352},{"NoteNumber":51,"Velocity":55,"Duration":277777,"SoundDuration":277777,"Delta":235641352},{"NoteNumber":61,"Velocity":65,"Duration":277777,"SoundDuration":277777,"Delta":235641352},{"NoteNumber":80,"Velocity":66,"Duration":304136,"SoundDuration":304136,"Delta":235919129},{"NoteNumber":49,"Velocity":49,"Duration":304136,"SoundDuration":304136,"Delta":235919129},{"NoteNumber":53,"Velocity":49,"Duration":304136,"SoundDuration":304136,"Delta":235919129},{"NoteNumber":61,"Velocity":59,"Duration":304136,"SoundDuration":304136,"Delta":235919129},{"NoteNumber":78,"Velocity":73,"Duration":280269,"SoundDuration":280269,"Delta":236223266},{"NoteNumber":54,"Velocity":56,"Duration":566146,"SoundDuration":566146,"Delta":236223266},{"NoteNumber":51,"Velocity":56,"Duration":566146,"SoundDuration":566146,"Delta":236223266},{"NoteNumber":60,"Velocity":66,"Duration":566146,"SoundDuration":566146,"Delta":236223266},{"NoteNumber":68,"Velocity":58,"Duration":285877,"SoundDuration":285877,"Delta":236503535},{"NoteNumber":77,"Velocity":63,"Duration":285877,"SoundDuration":285877,"Delta":236789412},{"NoteNumber":56,"Velocity":40,"Duration":586780,"SoundDuration":586780,"Delta":236789412},{"NoteNumber":53,"Velocity":40,"Duration":586780,"SoundDuration":586780,"Delta":236789412},{"NoteNumber":61,"Velocity":58,"Duration":586780,"SoundDuration":586780,"Delta":236789412},{"NoteNumber":68,"Velocity":48,"Duration":300902,"SoundDuration":300902,"Delta":237075290},{"NoteNumber":75,"Velocity":47,"Duration":291715,"SoundDuration":291715,"Delta":237376193},{"NoteNumber":54,"Velocity":34,"Duration":1157933,"SoundDuration":1157933,"Delta":237376193},{"NoteNumber":58,"Velocity":34,"Duration":1157933,"SoundDuration":1157933,"Delta":237376193},{"NoteNumber":63,"Velocity":40,"Duration":1157933,"SoundDuration":1157933,"Delta":237376193},{"NoteNumber":70,"Velocity":43,"Duration":288739,"SoundDuration":288739,"Delta":237667908},{"NoteNumber":66,"Velocity":43,"Duration":288739,"SoundDuration":288739,"Delta":237956647},{"NoteNumber":75,"Velocity":39,"Duration":288739,"SoundDuration":288739,"Delta":238245387},{"NoteNumber":68,"Velocity":46,"Duration":299003,"SoundDuration":299003,"Delta":238534126},{"NoteNumber":56,"Velocity":34,"Duration":1156637,"SoundDuration":1156637,"Delta":238534126},{"NoteNumber":60,"Velocity":40,"Duration":1156637,"SoundDuration":1156637,"Delta":238534126},{"NoteNumber":66,"Velocity":43,"Duration":285877,"SoundDuration":285877,"Delta":238833130},{"NoteNumber":63,"Velocity":43,"Duration":285877,"SoundDuration":285877,"Delta":239119007},{"NoteNumber":68,"Velocity":39,"Duration":285877,"SoundDuration":285877,"Delta":239404885},{"NoteNumber":65,"Velocity":47,"Duration":291715,"SoundDuration":291715,"Delta":239690763},{"NoteNumber":56,"Velocity":34,"Duration":571984,"SoundDuration":571984,"Delta":239690763},{"NoteNumber":61,"Velocity":40,"Duration":571984,"SoundDuration":571984,"Delta":239690763},{"NoteNumber":73,"Velocity":44,"Duration":280269,"SoundDuration":280269,"Delta":239982478},{"NoteNumber":68,"Velocity":43,"Duration":280269,"SoundDuration":280269,"Delta":240262747},{"NoteNumber":49,"Velocity":36,"Duration":571984,"SoundDuration":571984,"Delta":240262747},{"NoteNumber":65,"Velocity":43,"Duration":291715,"SoundDuration":291715,"Delta":240543016},{"NoteNumber":61,"Velocity":47,"Duration":288808,"SoundDuration":288808,"Delta":240834731},{"NoteNumber":68,"Velocity":40,"Duration":143892,"SoundDuration":143892,"Delta":240979647},{"NoteNumber":65,"Velocity":37,"Duration":146354,"SoundDuration":146354,"Delta":241123540},{"NoteNumber":68,"Velocity":37,"Duration":148361,"SoundDuration":148361,"Delta":241269894},{"NoteNumber":64,"Velocity":40,"Duration":149923,"SoundDuration":149923,"Delta":241418256},{"NoteNumber":68,"Velocity":37,"Duration":152608,"SoundDuration":152608,"Delta":241568179},{"NoteNumber":65,"Velocity":37,"Duration":154813,"SoundDuration":154813,"Delta":241720788},{"NoteNumber":68,"Velocity":37,"Duration":157068,"SoundDuration":157068,"Delta":241875601},{"NoteNumber":61,"Velocity":40,"Duration":150451,"SoundDuration":150451,"Delta":242032669},{"NoteNumber":68,"Velocity":36,"Duration":150451,"SoundDuration":150451,"Delta":242183121},{"NoteNumber":65,"Velocity":36,"Duration":147347,"SoundDuration":147347,"Delta":242333572},{"NoteNumber":68,"Velocity":36,"Duration":147347,"SoundDuration":147347,"Delta":242480920},{"NoteNumber":80,"Velocity":72,"Duration":1198222,"SoundDuration":1198222,"Delta":242628268},{"NoteNumber":73,"Velocity":40,"Duration":147347,"SoundDuration":147347,"Delta":242628268},{"NoteNumber":68,"Velocity":36,"Duration":147347,"SoundDuration":147347,"Delta":242775615},{"NoteNumber":65,"Velocity":36,"Duration":147347,"SoundDuration":147347,"Delta":242922963},{"NoteNumber":68,"Velocity":36,"Duration":147347,"SoundDuration":147347,"Delta":243070311},{"NoteNumber":61,"Velocity":40,"Duration":147347,"SoundDuration":147347,"Delta":243217659},{"NoteNumber":70,"Velocity":35,"Duration":147347,"SoundDuration":147347,"Delta":243365006},{"NoteNumber":66,"Velocity":37,"Duration":157068,"SoundDuration":157068,"Delta":243512354},{"NoteNumber":70,"Velocity":37,"Duration":157068,"SoundDuration":157068,"Delta":243669422},{"NoteNumber":82,"Velocity":74,"Duration":1178782,"SoundDuration":1178782,"Delta":243826490},{"NoteNumber":73,"Velocity":40,"Duration":147347,"SoundDuration":147347,"Delta":243826490},{"NoteNumber":70,"Velocity":37,"Duration":147347,"SoundDuration":147347,"Delta":243973838},{"NoteNumber":66,"Velocity":37,"Duration":147347,"SoundDuration":147347,"Delta":244121186},{"NoteNumber":70,"Velocity":37,"Duration":147347,"SoundDuration":147347,"Delta":244268534},{"NoteNumber":61,"Velocity":40,"Duration":147347,"SoundDuration":147347,"Delta":244415881},{"NoteNumber":68,"Velocity":37,"Duration":147347,"SoundDuration":147347,"Delta":244563229},{"NoteNumber":65,"Velocity":37,"Duration":147347,"SoundDuration":147347,"Delta":244710577},{"NoteNumber":68,"Velocity":37,"Duration":147347,"SoundDuration":147347,"Delta":244857925},{"NoteNumber":80,"Velocity":72,"Duration":1178781,"SoundDuration":1178781,"Delta":245005272},{"NoteNumber":73,"Velocity":40,"Duration":147347,"SoundDuration":147347,"Delta":245005272},{"NoteNumber":68,"Velocity":37,"Duration":147347,"SoundDuration":147347,"Delta":245152620},{"NoteNumber":65,"Velocity":37,"Duration":147347,"SoundDuration":147347,"Delta":245299968},{"NoteNumber":68,"Velocity":37,"Duration":147347,"SoundDuration":147347,"Delta":245447316},{"NoteNumber":61,"Velocity":40,"Duration":147347,"SoundDuration":147347,"Delta":245594663},{"NoteNumber":68,"Velocity":37,"Duration":147347,"SoundDuration":147347,"Delta":245742011},{"NoteNumber":65,"Velocity":37,"Duration":147347,"SoundDuration":147347,"Delta":245889359},{"NoteNumber":68,"Velocity":37,"Duration":147347,"SoundDuration":147347,"Delta":246036707},{"NoteNumber":73,"Velocity":65,"Duration":571755,"SoundDuration":571755,"Delta":246184054},{"NoteNumber":75,"Velocity":65,"Duration":571755,"SoundDuration":571755,"Delta":246184054},{"NoteNumber":82,"Velocity":77,"Duration":571755,"SoundDuration":571755,"Delta":246184054},{"NoteNumber":54,"Velocity":52,"Duration":142938,"SoundDuration":142938,"Delta":246184054},{"NoteNumber":66,"Velocity":46,"Duration":142938,"SoundDuration":142938,"Delta":246326993},{"NoteNumber":63,"Velocity":46,"Duration":142938,"SoundDuration":142938,"Delta":246469932},{"NoteNumber":66,"Velocity":46,"Duration":142938,"SoundDuration":142938,"Delta":246612871},{"NoteNumber":73,"Velocity":68,"Duration":571428,"SoundDuration":571428,"Delta":246755810},{"NoteNumber":75,"Velocity":68,"Duration":571428,"SoundDuration":571428,"Delta":246755810},{"NoteNumber":80,"Velocity":80,"Duration":571428,"SoundDuration":571428,"Delta":246755810},{"NoteNumber":56,"Velocity":57,"Duration":142857,"SoundDuration":142857,"Delta":246755810},{"NoteNumber":66,"Velocity":46,"Duration":142857,"SoundDuration":142857,"Delta":246898667},{"NoteNumber":63,"Velocity":46,"Duration":142857,"SoundDuration":142857,"Delta":247041524},{"NoteNumber":66,"Velocity":46,"Duration":142857,"SoundDuration":142857,"Delta":247184381},{"NoteNumber":73,"Velocity":65,"Duration":571428,"SoundDuration":571428,"Delta":247327238},{"NoteNumber":75,"Velocity":65,"Duration":571428,"SoundDuration":571428,"Delta":247327238},{"NoteNumber":80,"Velocity":77,"Duration":571428,"SoundDuration":571428,"Delta":247327238},{"NoteNumber":56,"Velocity":57,"Duration":142857,"SoundDuration":142857,"Delta":247327238},{"NoteNumber":66,"Velocity":46,"Duration":142857,"SoundDuration":142857,"Delta":247470095},{"NoteNumber":63,"Velocity":46,"Duration":142857,"SoundDuration":142857,"Delta":247612953},{"NoteNumber":66,"Velocity":46,"Duration":142857,"SoundDuration":142857,"Delta":247755810},{"NoteNumber":72,"Velocity":69,"Duration":576922,"SoundDuration":576922,"Delta":247898667},{"NoteNumber":75,"Velocity":69,"Duration":576922,"SoundDuration":576922,"Delta":247898667},{"NoteNumber":80,"Velocity":81,"Duration":576922,"SoundDuration":576922,"Delta":247898667},{"NoteNumber":56,"Velocity":59,"Duration":144230,"SoundDuration":144230,"Delta":247898667},{"NoteNumber":66,"Velocity":46,"Duration":144230,"SoundDuration":144230,"Delta":248042898},{"NoteNumber":63,"Velocity":46,"Duration":144230,"SoundDuration":144230,"Delta":248187128},{"NoteNumber":66,"Velocity":46,"Duration":144230,"SoundDuration":144230,"Delta":248331359},{"NoteNumber":72,"Velocity":65,"Duration":576922,"SoundDuration":576922,"Delta":248475590},{"NoteNumber":75,"Velocity":65,"Duration":576922,"SoundDuration":576922,"Delta":248475590},{"NoteNumber":80,"Velocity":76,"Duration":576922,"SoundDuration":576922,"Delta":248475590},{"NoteNumber":56,"Velocity":58,"Duration":144230,"SoundDuration":144230,"Delta":248475590},{"NoteNumber":66,"Velocity":46,"Duration":144230,"SoundDuration":144230,"Delta":248619821},{"NoteNumber":63,"Velocity":46,"Duration":144230,"SoundDuration":144230,"Delta":248764051},{"NoteNumber":66,"Velocity":46,"Duration":144230,"SoundDuration":144230,"Delta":248908282},{"NoteNumber":73,"Velocity":68,"Duration":592432,"SoundDuration":592432,"Delta":249052513},{"NoteNumber":77,"Velocity":68,"Duration":592432,"SoundDuration":592432,"Delta":249052513},{"NoteNumber":80,"Velocity":80,"Duration":592432,"SoundDuration":592432,"Delta":249052513},{"NoteNumber":61,"Velocity":46,"Duration":148868,"SoundDuration":148868,"Delta":249052513},{"NoteNumber":63,"Velocity":47,"Duration":148868,"SoundDuration":148868,"Delta":249201381},{"NoteNumber":65,"Velocity":48,"Duration":147347,"SoundDuration":147347,"Delta":249350250},{"NoteNumber":66,"Velocity":49,"Duration":147347,"SoundDuration":147347,"Delta":249497598},{"NoteNumber":68,"Velocity":52,"Duration":145857,"SoundDuration":145857,"Delta":249644946},{"NoteNumber":70,"Velocity":49,"Duration":145857,"SoundDuration":145857,"Delta":249790803},{"NoteNumber":68,"Velocity":51,"Duration":144369,"SoundDuration":144369,"Delta":249936661},{"NoteNumber":66,"Velocity":50,"Duration":143892,"SoundDuration":143892,"Delta":250081030},{"NoteNumber":65,"Velocity":45,"Duration":142938,"SoundDuration":142938,"Delta":250224923},{"NoteNumber":66,"Velocity":47,"Duration":143892,"SoundDuration":143892,"Delta":250367862},{"NoteNumber":68,"Velocity":48,"Duration":145857,"SoundDuration":145857,"Delta":250511755},{"NoteNumber":70,"Velocity":49,"Duration":147854,"SoundDuration":147854,"Delta":250657612},{"NoteNumber":72,"Velocity":54,"Duration":149396,"SoundDuration":149396,"Delta":250805467},{"NoteNumber":73,"Velocity":46,"Duration":151529,"SoundDuration":151529,"Delta":250954863},{"NoteNumber":68,"Velocity":50,"Duration":153148,"SoundDuration":153148,"Delta":251106392},{"NoteNumber":66,"Velocity":46,"Duration":155940,"SoundDuration":155940,"Delta":251259541},{"NoteNumber":65,"Velocity":40,"Duration":150451,"SoundDuration":150451,"Delta":251415481},{"NoteNumber":73,"Velocity":36,"Duration":150451,"SoundDuration":150451,"Delta":251565932},{"NoteNumber":68,"Velocity":36,"Duration":147347,"SoundDuration":147347,"Delta":251716384},{"NoteNumber":73,"Velocity":36,"Duration":147347,"SoundDuration":147347,"Delta":251863731},{"NoteNumber":85,"Velocity":72,"Duration":1198222,"SoundDuration":1198222,"Delta":252011079},{"NoteNumber":80,"Velocity":60,"Duration":1198222,"SoundDuration":1198222,"Delta":252011079},{"NoteNumber":77,"Velocity":40,"Duration":147347,"SoundDuration":147347,"Delta":252011079},{"NoteNumber":73,"Velocity":36,"Duration":147347,"SoundDuration":147347,"Delta":252158427},{"NoteNumber":68,"Velocity":36,"Duration":147347,"SoundDuration":147347,"Delta":252305775},{"NoteNumber":73,"Velocity":36,"Duration":147347,"SoundDuration":147347,"Delta":252453122},{"NoteNumber":66,"Velocity":40,"Duration":147347,"SoundDuration":147347,"Delta":252600470},{"NoteNumber":73,"Velocity":35,"Duration":147347,"SoundDuration":147347,"Delta":252747818},{"NoteNumber":70,"Velocity":37,"Duration":157068,"SoundDuration":157068,"Delta":252895166},{"NoteNumber":73,"Velocity":37,"Duration":157068,"SoundDuration":157068,"Delta":253052234},{"NoteNumber":85,"Velocity":73,"Duration":1178782,"SoundDuration":1178782,"Delta":253209302},{"NoteNumber":82,"Velocity":61,"Duration":1178782,"SoundDuration":1178782,"Delta":253209302},{"NoteNumber":78,"Velocity":40,"Duration":147347,"SoundDuration":147347,"Delta":253209302},{"NoteNumber":73,"Velocity":37,"Duration":147347,"SoundDuration":147347,"Delta":253356650},{"NoteNumber":70,"Velocity":37,"Duration":147347,"SoundDuration":147347,"Delta":253503997},{"NoteNumber":73,"Velocity":37,"Duration":147347,"SoundDuration":147347,"Delta":253651345},{"NoteNumber":65,"Velocity":40,"Duration":147347,"SoundDuration":147347,"Delta":253798693},{"NoteNumber":73,"Velocity":37,"Duration":147347,"SoundDuration":147347,"Delta":253946041},{"NoteNumber":68,"Velocity":37,"Duration":147347,"SoundDuration":147347,"Delta":254093388},{"NoteNumber":73,"Velocity":37,"Duration":147347,"SoundDuration":147347,"Delta":254240736},{"NoteNumber":85,"Velocity":74,"Duration":1178781,"SoundDuration":1178781,"Delta":254388084},{"NoteNumber":80,"Velocity":63,"Duration":1178781,"SoundDuration":1178781,"Delta":254388084},{"NoteNumber":77,"Velocity":40,"Duration":147347,"SoundDuration":147347,"Delta":254388084},{"NoteNumber":73,"Velocity":37,"Duration":147347,"SoundDuration":147347,"Delta":254535432},{"NoteNumber":68,"Velocity":37,"Duration":147347,"SoundDuration":147347,"Delta":254682779},{"NoteNumber":73,"Velocity":37,"Duration":147347,"SoundDuration":147347,"Delta":254830127},{"NoteNumber":65,"Velocity":40,"Duration":147347,"SoundDuration":147347,"Delta":254977475},{"NoteNumber":73,"Velocity":37,"Duration":147347,"SoundDuration":147347,"Delta":255124823},{"NoteNumber":68,"Velocity":37,"Duration":147347,"SoundDuration":147347,"Delta":255272170},{"NoteNumber":73,"Velocity":37,"Duration":147347,"SoundDuration":147347,"Delta":255419518},{"NoteNumber":73,"Velocity":65,"Duration":577478,"SoundDuration":577478,"Delta":255566866},{"NoteNumber":79,"Velocity":65,"Duration":577478,"SoundDuration":577478,"Delta":255566866},{"NoteNumber":85,"Velocity":77,"Duration":577478,"SoundDuration":577478,"Delta":255566866},{"NoteNumber":64,"Velocity":52,"Duration":144369,"SoundDuration":144369,"Delta":255566866},{"NoteNumber":70,"Velocity":46,"Duration":144369,"SoundDuration":144369,"Delta":255711236},{"NoteNumber":67,"Velocity":46,"Duration":144369,"SoundDuration":144369,"Delta":255855605},{"NoteNumber":70,"Velocity":46,"Duration":144369,"SoundDuration":144369,"Delta":255999975},{"NoteNumber":73,"Velocity":68,"Duration":566037,"SoundDuration":566037,"Delta":256144344},{"NoteNumber":78,"Velocity":68,"Duration":566037,"SoundDuration":566037,"Delta":256144344},{"NoteNumber":85,"Velocity":80,"Duration":566037,"SoundDuration":566037,"Delta":256144344},{"NoteNumber":63,"Velocity":57,"Duration":141509,"SoundDuration":141509,"Delta":256144344},{"NoteNumber":69,"Velocity":46,"Duration":141509,"SoundDuration":141509,"Delta":256285854},{"NoteNumber":66,"Velocity":46,"Duration":141509,"SoundDuration":141509,"Delta":256427363},{"NoteNumber":69,"Velocity":46,"Duration":141509,"SoundDuration":141509,"Delta":256568873},{"NoteNumber":73,"Velocity":65,"Duration":577478,"SoundDuration":577478,"Delta":256710382},{"NoteNumber":78,"Velocity":65,"Duration":577478,"SoundDuration":577478,"Delta":256710382},{"NoteNumber":85,"Velocity":77,"Duration":577478,"SoundDuration":577478,"Delta":256710382},{"NoteNumber":63,"Velocity":57,"Duration":144369,"SoundDuration":144369,"Delta":256710382},{"NoteNumber":69,"Velocity":46,"Duration":144369,"SoundDuration":144369,"Delta":256854752},{"NoteNumber":66,"Velocity":46,"Duration":144369,"SoundDuration":144369,"Delta":256999121},{"NoteNumber":69,"Velocity":46,"Duration":144369,"SoundDuration":144369,"Delta":257143491},{"NoteNumber":72,"Velocity":69,"Duration":583430,"SoundDuration":583430,"Delta":257287860},{"NoteNumber":78,"Velocity":69,"Duration":583430,"SoundDuration":583430,"Delta":257287860},{"NoteNumber":84,"Velocity":81,"Duration":583430,"SoundDuration":583430,"Delta":257287860},{"NoteNumber":63,"Velocity":59,"Duration":145857,"SoundDuration":145857,"Delta":257287860},{"NoteNumber":68,"Velocity":46,"Duration":145857,"SoundDuration":145857,"Delta":257433718},{"NoteNumber":66,"Velocity":46,"Duration":145857,"SoundDuration":145857,"Delta":257579576},{"NoteNumber":68,"Velocity":46,"Duration":145857,"SoundDuration":145857,"Delta":257725433},{"NoteNumber":72,"Velocity":65,"Duration":583430,"SoundDuration":583430,"Delta":257871291},{"NoteNumber":78,"Velocity":65,"Duration":583430,"SoundDuration":583430,"Delta":257871291},{"NoteNumber":84,"Velocity":76,"Duration":583430,"SoundDuration":583430,"Delta":257871291},{"NoteNumber":63,"Velocity":58,"Duration":145857,"SoundDuration":145857,"Delta":257871291},{"NoteNumber":68,"Velocity":46,"Duration":145857,"SoundDuration":145857,"Delta":258017149},{"NoteNumber":66,"Velocity":46,"Duration":145857,"SoundDuration":145857,"Delta":258163006},{"NoteNumber":68,"Velocity":46,"Duration":145857,"SoundDuration":145857,"Delta":258308864},{"NoteNumber":85,"Velocity":66,"Duration":147864,"SoundDuration":147864,"Delta":258454721},{"NoteNumber":61,"Velocity":68,"Duration":592949,"SoundDuration":592949,"Delta":258454721},{"NoteNumber":65,"Velocity":68,"Duration":592949,"SoundDuration":592949,"Delta":258454721},{"NoteNumber":68,"Velocity":80,"Duration":592949,"SoundDuration":592949,"Delta":258454721},{"NoteNumber":87,"Velocity":57,"Duration":148868,"SoundDuration":148868,"Delta":258602586},{"NoteNumber":89,"Velocity":59,"Duration":148868,"SoundDuration":148868,"Delta":258751455},{"NoteNumber":84,"Velocity":60,"Duration":147347,"SoundDuration":147347,"Delta":258900324},{"NoteNumber":85,"Velocity":66,"Duration":147347,"SoundDuration":147347,"Delta":259047671},{"NoteNumber":80,"Velocity":56,"Duration":146354,"SoundDuration":146354,"Delta":259195019},{"NoteNumber":82,"Velocity":58,"Duration":145857,"SoundDuration":145857,"Delta":259341373},{"NoteNumber":78,"Velocity":57,"Duration":145361,"SoundDuration":145361,"Delta":259487231},{"NoteNumber":77,"Velocity":51,"Duration":144369,"SoundDuration":144369,"Delta":259632593},{"NoteNumber":80,"Velocity":54,"Duration":145857,"SoundDuration":145857,"Delta":259776962},{"NoteNumber":78,"Velocity":55,"Duration":146851,"SoundDuration":146851,"Delta":259922820},{"NoteNumber":75,"Velocity":56,"Duration":147854,"SoundDuration":147854,"Delta":260069671},{"NoteNumber":73,"Velocity":63,"Duration":148868,"SoundDuration":148868,"Delta":260217526},{"NoteNumber":77,"Velocity":53,"Duration":150451,"SoundDuration":150451,"Delta":260366394},{"NoteNumber":75,"Velocity":57,"Duration":151529,"SoundDuration":151529,"Delta":260516846},{"NoteNumber":72,"Velocity":53,"Duration":153148,"SoundDuration":153148,"Delta":260668375},{"NoteNumber":73,"Velocity":52,"Duration":150451,"SoundDuration":150451,"Delta":260821523},{"NoteNumber":75,"Velocity":46,"Duration":150451,"SoundDuration":150451,"Delta":260971975},{"NoteNumber":73,"Velocity":46,"Duration":147347,"SoundDuration":147347,"Delta":261122426},{"NoteNumber":72,"Velocity":46,"Duration":147347,"SoundDuration":147347,"Delta":261269774},{"NoteNumber":73,"Velocity":52,"Duration":147347,"SoundDuration":147347,"Delta":261417122},{"NoteNumber":61,"Velocity":52,"Duration":1198222,"SoundDuration":1198222,"Delta":261417122},{"NoteNumber":68,"Velocity":62,"Duration":1198222,"SoundDuration":1198222,"Delta":261417122},{"NoteNumber":65,"Velocity":52,"Duration":1198222,"SoundDuration":1198222,"Delta":261417122},{"NoteNumber":80,"Velocity":46,"Duration":147347,"SoundDuration":147347,"Delta":261564469},{"NoteNumber":79,"Velocity":46,"Duration":147347,"SoundDuration":147347,"Delta":261711817},{"NoteNumber":80,"Velocity":46,"Duration":147347,"SoundDuration":147347,"Delta":261859165},{"NoteNumber":73,"Velocity":52,"Duration":147347,"SoundDuration":147347,"Delta":262006513},{"NoteNumber":75,"Velocity":45,"Duration":147347,"SoundDuration":147347,"Delta":262153860},{"NoteNumber":73,"Velocity":48,"Duration":157068,"SoundDuration":157068,"Delta":262301208},{"NoteNumber":72,"Velocity":48,"Duration":157068,"SoundDuration":157068,"Delta":262458276},{"NoteNumber":73,"Velocity":52,"Duration":147347,"SoundDuration":147347,"Delta":262615344},{"NoteNumber":61,"Velocity":53,"Duration":1178782,"SoundDuration":1178782,"Delta":262615344},{"NoteNumber":70,"Velocity":63,"Duration":1178782,"SoundDuration":1178782,"Delta":262615344},{"NoteNumber":66,"Velocity":53,"Duration":1178782,"SoundDuration":1178782,"Delta":262615344},{"NoteNumber":82,"Velocity":48,"Duration":147347,"SoundDuration":147347,"Delta":262762692},{"NoteNumber":81,"Velocity":48,"Duration":147347,"SoundDuration":147347,"Delta":262910040},{"NoteNumber":82,"Velocity":48,"Duration":147347,"SoundDuration":147347,"Delta":263057388},{"NoteNumber":73,"Velocity":52,"Duration":147347,"SoundDuration":147347,"Delta":263204735},{"NoteNumber":75,"Velocity":48,"Duration":147347,"SoundDuration":147347,"Delta":263352083},{"NoteNumber":73,"Velocity":48,"Duration":147347,"SoundDuration":147347,"Delta":263499431},{"NoteNumber":72,"Velocity":48,"Duration":147347,"SoundDuration":147347,"Delta":263646779},{"NoteNumber":73,"Velocity":52,"Duration":147347,"SoundDuration":147347,"Delta":263794126},{"NoteNumber":61,"Velocity":54,"Duration":1178782,"SoundDuration":1178782,"Delta":263794126},{"NoteNumber":68,"Velocity":63,"Duration":1178782,"SoundDuration":1178782,"Delta":263794126},{"NoteNumber":65,"Velocity":54,"Duration":1178782,"SoundDuration":1178782,"Delta":263794126},{"NoteNumber":80,"Velocity":48,"Duration":147347,"SoundDuration":147347,"Delta":263941474},{"NoteNumber":79,"Velocity":48,"Duration":147347,"SoundDuration":147347,"Delta":264088822},{"NoteNumber":80,"Velocity":48,"Duration":147347,"SoundDuration":147347,"Delta":264236170},{"NoteNumber":73,"Velocity":52,"Duration":147347,"SoundDuration":147347,"Delta":264383517},{"NoteNumber":80,"Velocity":48,"Duration":147347,"SoundDuration":147347,"Delta":264530865},{"NoteNumber":79,"Velocity":48,"Duration":147347,"SoundDuration":147347,"Delta":264678213},{"NoteNumber":80,"Velocity":48,"Duration":147347,"SoundDuration":147347,"Delta":264825561},{"NoteNumber":73,"Velocity":73,"Duration":141509,"SoundDuration":141509,"Delta":264972908},{"NoteNumber":63,"Velocity":58,"Duration":566037,"SoundDuration":566037,"Delta":264972908},{"NoteNumber":54,"Velocity":58,"Duration":566037,"SoundDuration":566037,"Delta":264972908},{"NoteNumber":61,"Velocity":58,"Duration":566037,"SoundDuration":566037,"Delta":264972908},{"NoteNumber":66,"Velocity":71,"Duration":566037,"SoundDuration":566037,"Delta":264972908},{"NoteNumber":82,"Velocity":63,"Duration":141509,"SoundDuration":141509,"Delta":265114418},{"NoteNumber":81,"Velocity":63,"Duration":141509,"SoundDuration":141509,"Delta":265255927},{"NoteNumber":82,"Velocity":63,"Duration":141509,"SoundDuration":141509,"Delta":265397436},{"NoteNumber":73,"Velocity":80,"Duration":144230,"SoundDuration":144230,"Delta":265538946},{"NoteNumber":61,"Velocity":62,"Duration":576923,"SoundDuration":576923,"Delta":265538946},{"NoteNumber":56,"Velocity":62,"Duration":576923,"SoundDuration":576923,"Delta":265538946},{"NoteNumber":63,"Velocity":62,"Duration":576923,"SoundDuration":576923,"Delta":265538946},{"NoteNumber":66,"Velocity":75,"Duration":576923,"SoundDuration":576923,"Delta":265538946},{"NoteNumber":80,"Velocity":66,"Duration":144230,"SoundDuration":144230,"Delta":265683177},{"NoteNumber":79,"Velocity":67,"Duration":144230,"SoundDuration":144230,"Delta":265827407},{"NoteNumber":80,"Velocity":67,"Duration":144230,"SoundDuration":144230,"Delta":265971638},{"NoteNumber":73,"Velocity":80,"Duration":144230,"SoundDuration":144230,"Delta":266115869},{"NoteNumber":61,"Velocity":58,"Duration":576922,"SoundDuration":576922,"Delta":266115869},{"NoteNumber":56,"Velocity":58,"Duration":576922,"SoundDuration":576922,"Delta":266115869},{"NoteNumber":63,"Velocity":58,"Duration":576922,"SoundDuration":576922,"Delta":266115869},{"NoteNumber":66,"Velocity":71,"Duration":576922,"SoundDuration":576922,"Delta":266115869},{"NoteNumber":80,"Velocity":66,"Duration":144230,"SoundDuration":144230,"Delta":266260100},{"NoteNumber":79,"Velocity":66,"Duration":144230,"SoundDuration":144230,"Delta":266404330},{"NoteNumber":80,"Velocity":66,"Duration":144230,"SoundDuration":144230,"Delta":266548561},{"NoteNumber":72,"Velocity":83,"Duration":144230,"SoundDuration":144230,"Delta":266692792},{"NoteNumber":60,"Velocity":55,"Duration":576923,"SoundDuration":576923,"Delta":266692792},{"NoteNumber":56,"Velocity":54,"Duration":576923,"SoundDuration":576923,"Delta":266692792},{"NoteNumber":63,"Velocity":60,"Duration":576923,"SoundDuration":576923,"Delta":266692792},{"NoteNumber":66,"Velocity":73,"Duration":576923,"SoundDuration":576923,"Delta":266692792},{"NoteNumber":80,"Velocity":67,"Duration":144230,"SoundDuration":144230,"Delta":266837023},{"NoteNumber":79,"Velocity":67,"Duration":144230,"SoundDuration":144230,"Delta":266981253},{"NoteNumber":80,"Velocity":67,"Duration":144230,"SoundDuration":144230,"Delta":267125484},{"NoteNumber":72,"Velocity":81,"Duration":144230,"SoundDuration":144230,"Delta":267269715},{"NoteNumber":60,"Velocity":53,"Duration":576922,"SoundDuration":576922,"Delta":267269715},{"NoteNumber":56,"Velocity":52,"Duration":576922,"SoundDuration":576922,"Delta":267269715},{"NoteNumber":63,"Velocity":57,"Duration":576922,"SoundDuration":576922,"Delta":267269715},{"NoteNumber":66,"Velocity":67,"Duration":576922,"SoundDuration":576922,"Delta":267269715},{"NoteNumber":80,"Velocity":63,"Duration":144230,"SoundDuration":144230,"Delta":267413946},{"NoteNumber":79,"Velocity":63,"Duration":144230,"SoundDuration":144230,"Delta":267558176},{"NoteNumber":80,"Velocity":63,"Duration":144230,"SoundDuration":144230,"Delta":267702407},{"NoteNumber":80,"Velocity":53,"Duration":147322,"SoundDuration":147322,"Delta":267846638},{"NoteNumber":61,"Velocity":65,"Duration":592407,"SoundDuration":592407,"Delta":267846638},{"NoteNumber":65,"Velocity":76,"Duration":592407,"SoundDuration":592407,"Delta":267846638},{"NoteNumber":78,"Velocity":54,"Duration":148868,"SoundDuration":148868,"Delta":267993960},{"NoteNumber":77,"Velocity":55,"Duration":148868,"SoundDuration":148868,"Delta":268142829},{"NoteNumber":75,"Velocity":56,"Duration":147347,"SoundDuration":147347,"Delta":268291698},{"NoteNumber":73,"Velocity":60,"Duration":147347,"SoundDuration":147347,"Delta":268439045},{"NoteNumber":75,"Velocity":56,"Duration":146354,"SoundDuration":146354,"Delta":268586393},{"NoteNumber":77,"Velocity":58,"Duration":145857,"SoundDuration":145857,"Delta":268732748},{"NoteNumber":78,"Velocity":57,"Duration":145361,"SoundDuration":145361,"Delta":268878605},{"NoteNumber":80,"Velocity":51,"Duration":144369,"SoundDuration":144369,"Delta":269023967},{"NoteNumber":78,"Velocity":54,"Duration":145857,"SoundDuration":145857,"Delta":269168336},{"NoteNumber":77,"Velocity":55,"Duration":146851,"SoundDuration":146851,"Delta":269314194},{"NoteNumber":78,"Velocity":56,"Duration":147854,"SoundDuration":147854,"Delta":269461045},{"NoteNumber":80,"Velocity":63,"Duration":148868,"SoundDuration":148868,"Delta":269608900},{"NoteNumber":82,"Velocity":53,"Duration":150451,"SoundDuration":150451,"Delta":269757768},{"NoteNumber":84,"Velocity":57,"Duration":151529,"SoundDuration":151529,"Delta":269908220},{"NoteNumber":85,"Velocity":53,"Duration":153148,"SoundDuration":153148,"Delta":270059749},{"NoteNumber":77,"Velocity":52,"Duration":150451,"SoundDuration":150451,"Delta":270212897},{"NoteNumber":78,"Velocity":46,"Duration":150451,"SoundDuration":150451,"Delta":270363349},{"NoteNumber":77,"Velocity":46,"Duration":147347,"SoundDuration":147347,"Delta":270513800},{"NoteNumber":76,"Velocity":46,"Duration":147347,"SoundDuration":147347,"Delta":270661148},{"NoteNumber":77,"Velocity":52,"Duration":147347,"SoundDuration":147347,"Delta":270808496},{"NoteNumber":73,"Velocity":62,"Duration":1198222,"SoundDuration":1198222,"Delta":270808496},{"NoteNumber":68,"Velocity":52,"Duration":1198222,"SoundDuration":1198222,"Delta":270808496},{"NoteNumber":85,"Velocity":46,"Duration":147347,"SoundDuration":147347,"Delta":270955843},{"NoteNumber":84,"Velocity":46,"Duration":147347,"SoundDuration":147347,"Delta":271103191},{"NoteNumber":85,"Velocity":46,"Duration":147347,"SoundDuration":147347,"Delta":271250539},{"NoteNumber":78,"Velocity":52,"Duration":147347,"SoundDuration":147347,"Delta":271397887},{"NoteNumber":80,"Velocity":45,"Duration":147347,"SoundDuration":147347,"Delta":271545234},{"NoteNumber":78,"Velocity":48,"Duration":157068,"SoundDuration":157068,"Delta":271692582},{"NoteNumber":77,"Velocity":48,"Duration":157068,"SoundDuration":157068,"Delta":271849650},{"NoteNumber":78,"Velocity":52,"Duration":147347,"SoundDuration":147347,"Delta":272006718},{"NoteNumber":73,"Velocity":63,"Duration":1178782,"SoundDuration":1178782,"Delta":272006718},{"NoteNumber":70,"Velocity":53,"Duration":1178782,"SoundDuration":1178782,"Delta":272006718},{"NoteNumber":85,"Velocity":48,"Duration":147347,"SoundDuration":147347,"Delta":272154066},{"NoteNumber":84,"Velocity":48,"Duration":147347,"SoundDuration":147347,"Delta":272301414},{"NoteNumber":85,"Velocity":48,"Duration":147347,"SoundDuration":147347,"Delta":272448762},{"NoteNumber":77,"Velocity":52,"Duration":147347,"SoundDuration":147347,"Delta":272596109},{"NoteNumber":78,"Velocity":48,"Duration":147347,"SoundDuration":147347,"Delta":272743457},{"NoteNumber":77,"Velocity":48,"Duration":147347,"SoundDuration":147347,"Delta":272890805},{"NoteNumber":76,"Velocity":48,"Duration":147347,"SoundDuration":147347,"Delta":273038153},{"NoteNumber":77,"Velocity":52,"Duration":147347,"SoundDuration":147347,"Delta":273185500},{"NoteNumber":73,"Velocity":63,"Duration":1178782,"SoundDuration":1178782,"Delta":273185500},{"NoteNumber":68,"Velocity":54,"Duration":1178782,"SoundDuration":1178782,"Delta":273185500},{"NoteNumber":85,"Velocity":48,"Duration":147347,"SoundDuration":147347,"Delta":273332848},{"NoteNumber":84,"Velocity":48,"Duration":147347,"SoundDuration":147347,"Delta":273480196},{"NoteNumber":85,"Velocity":48,"Duration":147347,"SoundDuration":147347,"Delta":273627544},{"NoteNumber":77,"Velocity":52,"Duration":147347,"SoundDuration":147347,"Delta":273774891},{"NoteNumber":85,"Velocity":48,"Duration":147347,"SoundDuration":147347,"Delta":273922239},{"NoteNumber":84,"Velocity":48,"Duration":147347,"SoundDuration":147347,"Delta":274069587},{"NoteNumber":85,"Velocity":48,"Duration":147347,"SoundDuration":147347,"Delta":274216935},{"NoteNumber":79,"Velocity":73,"Duration":142938,"SoundDuration":142938,"Delta":274364282},{"NoteNumber":76,"Velocity":60,"Duration":142938,"SoundDuration":142938,"Delta":274364282},{"NoteNumber":69,"Velocity":71,"Duration":571755,"SoundDuration":571755,"Delta":274364282},{"NoteNumber":85,"Velocity":63,"Duration":142938,"SoundDuration":142938,"Delta":274507221},{"NoteNumber":84,"Velocity":63,"Duration":142938,"SoundDuration":142938,"Delta":274650160},{"NoteNumber":85,"Velocity":63,"Duration":142938,"SoundDuration":142938,"Delta":274793099},{"NoteNumber":78,"Velocity":80,"Duration":145857,"SoundDuration":145857,"Delta":274936038},{"NoteNumber":75,"Velocity":66,"Duration":145857,"SoundDuration":145857,"Delta":274936038},{"NoteNumber":68,"Velocity":75,"Duration":583430,"SoundDuration":583430,"Delta":274936038},{"NoteNumber":85,"Velocity":66,"Duration":145857,"SoundDuration":145857,"Delta":275081895},{"NoteNumber":84,"Velocity":66,"Duration":145857,"SoundDuration":145857,"Delta":275227753},{"NoteNumber":85,"Velocity":66,"Duration":145857,"SoundDuration":145857,"Delta":275373611},{"NoteNumber":78,"Velocity":80,"Duration":145857,"SoundDuration":145857,"Delta":275519468},{"NoteNumber":75,"Velocity":66,"Duration":145857,"SoundDuration":145857,"Delta":275519468},{"NoteNumber":68,"Velocity":71,"Duration":583430,"SoundDuration":583430,"Delta":275519468},{"NoteNumber":85,"Velocity":67,"Duration":145857,"SoundDuration":145857,"Delta":275665326},{"NoteNumber":84,"Velocity":67,"Duration":145857,"SoundDuration":145857,"Delta":275811184},{"NoteNumber":85,"Velocity":67,"Duration":145857,"SoundDuration":145857,"Delta":275957041},{"NoteNumber":78,"Velocity":83,"Duration":145857,"SoundDuration":145857,"Delta":276102899},{"NoteNumber":75,"Velocity":68,"Duration":145857,"SoundDuration":145857,"Delta":276102899},{"NoteNumber":56,"Velocity":76,"Duration":583430,"SoundDuration":583430,"Delta":276102899},{"NoteNumber":84,"Velocity":67,"Duration":145857,"SoundDuration":145857,"Delta":276248756},{"NoteNumber":83,"Velocity":67,"Duration":145857,"SoundDuration":145857,"Delta":276394614},{"NoteNumber":84,"Velocity":67,"Duration":145857,"SoundDuration":145857,"Delta":276540472},{"NoteNumber":78,"Velocity":81,"Duration":148868,"SoundDuration":148868,"Delta":276686329},{"NoteNumber":75,"Velocity":68,"Duration":148868,"SoundDuration":148868,"Delta":276686329},{"NoteNumber":56,"Velocity":70,"Duration":595474,"SoundDuration":595474,"Delta":276686329},{"NoteNumber":84,"Velocity":67,"Duration":148868,"SoundDuration":148868,"Delta":276835198},{"NoteNumber":83,"Velocity":67,"Duration":148868,"SoundDuration":148868,"Delta":276984067},{"NoteNumber":84,"Velocity":67,"Duration":148868,"SoundDuration":148868,"Delta":277132935},{"NoteNumber":73,"Velocity":74,"Duration":592432,"SoundDuration":592432,"Delta":277281804},{"NoteNumber":77,"Velocity":74,"Duration":592432,"SoundDuration":592432,"Delta":277281804},{"NoteNumber":85,"Velocity":87,"Duration":592432,"SoundDuration":592432,"Delta":277281804},{"NoteNumber":56,"Velocity":54,"Duration":148868,"SoundDuration":148868,"Delta":277281804},{"NoteNumber":58,"Velocity":55,"Duration":148868,"SoundDuration":148868,"Delta":277430672},{"NoteNumber":60,"Velocity":57,"Duration":147347,"SoundDuration":147347,"Delta":277579541},{"NoteNumber":61,"Velocity":58,"Duration":147347,"SoundDuration":147347,"Delta":277726889},{"NoteNumber":60,"Velocity":59,"Duration":145857,"SoundDuration":145857,"Delta":277874237},{"NoteNumber":61,"Velocity":53,"Duration":145857,"SoundDuration":145857,"Delta":278020094},{"NoteNumber":63,"Velocity":56,"Duration":144369,"SoundDuration":144369,"Delta":278165952},{"NoteNumber":65,"Velocity":53,"Duration":143892,"SoundDuration":143892,"Delta":278310321},{"NoteNumber":63,"Velocity":48,"Duration":142938,"SoundDuration":142938,"Delta":278454214},{"NoteNumber":65,"Velocity":49,"Duration":143892,"SoundDuration":143892,"Delta":278597153},{"NoteNumber":66,"Velocity":50,"Duration":145857,"SoundDuration":145857,"Delta":278741046},{"NoteNumber":68,"Velocity":51,"Duration":147854,"SoundDuration":147854,"Delta":278886903},{"NoteNumber":70,"Velocity":54,"Duration":149396,"SoundDuration":149396,"Delta":279034758},{"NoteNumber":72,"Velocity":46,"Duration":151529,"SoundDuration":151529,"Delta":279184154},{"NoteNumber":73,"Velocity":50,"Duration":153148,"SoundDuration":153148,"Delta":279335684},{"NoteNumber":68,"Velocity":46,"Duration":155940,"SoundDuration":155940,"Delta":279488832},{"NoteNumber":66,"Velocity":40,"Duration":150451,"SoundDuration":150451,"Delta":279644772},{"NoteNumber":75,"Velocity":36,"Duration":150451,"SoundDuration":150451,"Delta":279795223},{"NoteNumber":72,"Velocity":36,"Duration":147347,"SoundDuration":147347,"Delta":279945675},{"NoteNumber":75,"Velocity":36,"Duration":147347,"SoundDuration":147347,"Delta":280093022},{"NoteNumber":80,"Velocity":69,"Duration":1149929,"SoundDuration":1149929,"Delta":280240370},{"NoteNumber":71,"Velocity":40,"Duration":147347,"SoundDuration":147347,"Delta":280240370},{"NoteNumber":75,"Velocity":36,"Duration":147347,"SoundDuration":147347,"Delta":280387718},{"NoteNumber":72,"Velocity":36,"Duration":147347,"SoundDuration":147347,"Delta":280535066},{"NoteNumber":75,"Velocity":36,"Duration":147347,"SoundDuration":147347,"Delta":280682413},{"NoteNumber":78,"Velocity":57,"Duration":140134,"SoundDuration":140134,"Delta":280829761},{"NoteNumber":75,"Velocity":35,"Duration":140134,"SoundDuration":140134,"Delta":280969896},{"NoteNumber":72,"Velocity":37,"Duration":140134,"SoundDuration":140134,"Delta":281110030},{"NoteNumber":75,"Velocity":37,"Duration":140134,"SoundDuration":140134,"Delta":281250165},{"NoteNumber":80,"Velocity":59,"Duration":589390,"SoundDuration":589390,"Delta":281390299},{"NoteNumber":66,"Velocity":40,"Duration":147347,"SoundDuration":147347,"Delta":281390299},{"NoteNumber":75,"Velocity":37,"Duration":147347,"SoundDuration":147347,"Delta":281537647},{"NoteNumber":72,"Velocity":37,"Duration":147347,"SoundDuration":147347,"Delta":281684995},{"NoteNumber":75,"Velocity":37,"Duration":147347,"SoundDuration":147347,"Delta":281832342},{"NoteNumber":80,"Velocity":59,"Duration":571755,"SoundDuration":571755,"Delta":281979690},{"NoteNumber":65,"Velocity":40,"Duration":142938,"SoundDuration":142938,"Delta":281979690},{"NoteNumber":73,"Velocity":37,"Duration":142938,"SoundDuration":142938,"Delta":282122629},{"NoteNumber":68,"Velocity":37,"Duration":142938,"SoundDuration":142938,"Delta":282265568},{"NoteNumber":73,"Velocity":37,"Duration":142938,"SoundDuration":142938,"Delta":282408507},{"NoteNumber":80,"Velocity":55,"Duration":589390,"SoundDuration":589390,"Delta":282551446},{"NoteNumber":65,"Velocity":40,"Duration":147347,"SoundDuration":147347,"Delta":282551446},{"NoteNumber":73,"Velocity":37,"Duration":147347,"SoundDuration":147347,"Delta":282698793},{"NoteNumber":68,"Velocity":37,"Duration":147347,"SoundDuration":147347,"Delta":282846141},{"NoteNumber":73,"Velocity":37,"Duration":147347,"SoundDuration":147347,"Delta":282993489},{"NoteNumber":80,"Velocity":59,"Duration":571755,"SoundDuration":571755,"Delta":283140837},{"NoteNumber":63,"Velocity":40,"Duration":142938,"SoundDuration":142938,"Delta":283140837},{"NoteNumber":72,"Velocity":37,"Duration":142938,"SoundDuration":142938,"Delta":283283776},{"NoteNumber":66,"Velocity":37,"Duration":142938,"SoundDuration":142938,"Delta":283426714},{"NoteNumber":72,"Velocity":37,"Duration":142938,"SoundDuration":142938,"Delta":283569653},{"NoteNumber":80,"Velocity":56,"Duration":589390,"SoundDuration":589390,"Delta":283712592},{"NoteNumber":61,"Velocity":40,"Duration":147347,"SoundDuration":147347,"Delta":283712592},{"NoteNumber":73,"Velocity":38,"Duration":147347,"SoundDuration":147347,"Delta":283859940},{"NoteNumber":65,"Velocity":38,"Duration":147347,"SoundDuration":147347,"Delta":284007288},{"NoteNumber":73,"Velocity":38,"Duration":147347,"SoundDuration":147347,"Delta":284154635},{"NoteNumber":66,"Velocity":40,"Duration":138760,"SoundDuration":138760,"Delta":284301983},{"NoteNumber":75,"Velocity":36,"Duration":138760,"SoundDuration":138760,"Delta":284440744},{"NoteNumber":72,"Velocity":36,"Duration":147347,"SoundDuration":147347,"Delta":284579504},{"NoteNumber":75,"Velocity":36,"Duration":147347,"SoundDuration":147347,"Delta":284726852},{"NoteNumber":80,"Velocity":69,"Duration":1149929,"SoundDuration":1149929,"Delta":284874199},{"NoteNumber":71,"Velocity":40,"Duration":147347,"SoundDuration":147347,"Delta":284874199},{"NoteNumber":75,"Velocity":36,"Duration":147347,"SoundDuration":147347,"Delta":285021547},{"NoteNumber":72,"Velocity":36,"Duration":147347,"SoundDuration":147347,"Delta":285168895},{"NoteNumber":75,"Velocity":36,"Duration":147347,"SoundDuration":147347,"Delta":285316243},{"NoteNumber":78,"Velocity":58,"Duration":140134,"SoundDuration":140134,"Delta":285463590},{"NoteNumber":75,"Velocity":35,"Duration":140134,"SoundDuration":140134,"Delta":285603725},{"NoteNumber":72,"Velocity":37,"Duration":140134,"SoundDuration":140134,"Delta":285743859},{"NoteNumber":75,"Velocity":37,"Duration":140134,"SoundDuration":140134,"Delta":285883994},{"NoteNumber":80,"Velocity":57,"Duration":589390,"SoundDuration":589390,"Delta":286024128},{"NoteNumber":66,"Velocity":40,"Duration":147347,"SoundDuration":147347,"Delta":286024128},{"NoteNumber":75,"Velocity":37,"Duration":147347,"SoundDuration":147347,"Delta":286171476},{"NoteNumber":72,"Velocity":37,"Duration":147347,"SoundDuration":147347,"Delta":286318824},{"NoteNumber":75,"Velocity":37,"Duration":147347,"SoundDuration":147347,"Delta":286466172},{"NoteNumber":80,"Velocity":60,"Duration":571755,"SoundDuration":571755,"Delta":286613519},{"NoteNumber":65,"Velocity":40,"Duration":142938,"SoundDuration":142938,"Delta":286613519},{"NoteNumber":77,"Velocity":37,"Duration":142938,"SoundDuration":142938,"Delta":286756458},{"NoteNumber":73,"Velocity":37,"Duration":142938,"SoundDuration":142938,"Delta":286899397},{"NoteNumber":77,"Velocity":37,"Duration":142938,"SoundDuration":142938,"Delta":287042336},{"NoteNumber":80,"Velocity":56,"Duration":589390,"SoundDuration":589390,"Delta":287185275},{"NoteNumber":68,"Velocity":40,"Duration":147347,"SoundDuration":147347,"Delta":287185275},{"NoteNumber":77,"Velocity":37,"Duration":147347,"SoundDuration":147347,"Delta":287332623},{"NoteNumber":73,"Velocity":37,"Duration":147347,"SoundDuration":147347,"Delta":287479970},{"NoteNumber":77,"Velocity":37,"Duration":147347,"SoundDuration":147347,"Delta":287627318},{"NoteNumber":80,"Velocity":59,"Duration":571755,"SoundDuration":571755,"Delta":287774666},{"NoteNumber":66,"Velocity":40,"Duration":142938,"SoundDuration":142938,"Delta":287774666},{"NoteNumber":75,"Velocity":37,"Duration":142938,"SoundDuration":142938,"Delta":287917605},{"NoteNumber":72,"Velocity":37,"Duration":142938,"SoundDuration":142938,"Delta":288060544},{"NoteNumber":75,"Velocity":37,"Duration":142938,"SoundDuration":142938,"Delta":288203483},{"NoteNumber":80,"Velocity":56,"Duration":589390,"SoundDuration":589390,"Delta":288346421},{"NoteNumber":65,"Velocity":40,"Duration":147347,"SoundDuration":147347,"Delta":288346421},{"NoteNumber":73,"Velocity":38,"Duration":147347,"SoundDuration":147347,"Delta":288493769},{"NoteNumber":68,"Velocity":38,"Duration":147347,"SoundDuration":147347,"Delta":288641117},{"NoteNumber":73,"Velocity":38,"Duration":147347,"SoundDuration":147347,"Delta":288788465},{"NoteNumber":72,"Velocity":48,"Duration":144369,"SoundDuration":144369,"Delta":288935812},{"NoteNumber":78,"Velocity":47,"Duration":144369,"SoundDuration":144369,"Delta":289080182},{"NoteNumber":75,"Velocity":47,"Duration":144369,"SoundDuration":144369,"Delta":289224552},{"NoteNumber":78,"Velocity":47,"Duration":144369,"SoundDuration":144369,"Delta":289368921},{"NoteNumber":84,"Velocity":67,"Duration":577478,"SoundDuration":577478,"Delta":289513291},{"NoteNumber":80,"Velocity":53,"Duration":144369,"SoundDuration":144369,"Delta":289513291},{"NoteNumber":78,"Velocity":48,"Duration":144369,"SoundDuration":144369,"Delta":289657661},{"NoteNumber":75,"Velocity":48,"Duration":144369,"SoundDuration":144369,"Delta":289802030},{"NoteNumber":78,"Velocity":48,"Duration":144369,"SoundDuration":144369,"Delta":289946400},{"NoteNumber":83,"Velocity":72,"Duration":560538,"SoundDuration":560538,"Delta":290090769},{"NoteNumber":80,"Velocity":55,"Duration":140134,"SoundDuration":140134,"Delta":290090769},{"NoteNumber":78,"Velocity":48,"Duration":140134,"SoundDuration":140134,"Delta":290230904},{"NoteNumber":75,"Velocity":50,"Duration":140134,"SoundDuration":140134,"Delta":290371038},{"NoteNumber":78,"Velocity":50,"Duration":140134,"SoundDuration":140134,"Delta":290511173},{"NoteNumber":84,"Velocity":70,"Duration":582524,"SoundDuration":582524,"Delta":290651307},{"NoteNumber":80,"Velocity":56,"Duration":145631,"SoundDuration":145631,"Delta":290651307},{"NoteNumber":78,"Velocity":52,"Duration":145631,"SoundDuration":145631,"Delta":290796939},{"NoteNumber":75,"Velocity":52,"Duration":145631,"SoundDuration":145631,"Delta":290942570},{"NoteNumber":78,"Velocity":53,"Duration":145631,"SoundDuration":145631,"Delta":291088201},{"NoteNumber":85,"Velocity":77,"Duration":565982,"SoundDuration":565982,"Delta":291233832},{"NoteNumber":77,"Velocity":57,"Duration":138760,"SoundDuration":138760,"Delta":291233832},{"NoteNumber":80,"Velocity":52,"Duration":138760,"SoundDuration":138760,"Delta":291372592},{"NoteNumber":77,"Velocity":53,"Duration":144230,"SoundDuration":144230,"Delta":291511353},{"NoteNumber":80,"Velocity":53,"Duration":144230,"SoundDuration":144230,"Delta":291655583},{"NoteNumber":89,"Velocity":75,"Duration":576923,"SoundDuration":576923,"Delta":291799814},{"NoteNumber":85,"Velocity":60,"Duration":144230,"SoundDuration":144230,"Delta":291799814},{"NoteNumber":80,"Velocity":53,"Duration":144230,"SoundDuration":144230,"Delta":291944045},{"NoteNumber":85,"Velocity":55,"Duration":144230,"SoundDuration":144230,"Delta":292088276},{"NoteNumber":80,"Velocity":55,"Duration":144230,"SoundDuration":144230,"Delta":292232506},{"NoteNumber":87,"Velocity":86,"Duration":560538,"SoundDuration":560538,"Delta":292376737},{"NoteNumber":84,"Velocity":61,"Duration":140134,"SoundDuration":140134,"Delta":292376737},{"NoteNumber":78,"Velocity":53,"Duration":140134,"SoundDuration":140134,"Delta":292516872},{"NoteNumber":84,"Velocity":57,"Duration":140134,"SoundDuration":140134,"Delta":292657006},{"NoteNumber":78,"Velocity":57,"Duration":140134,"SoundDuration":140134,"Delta":292797141},{"NoteNumber":85,"Velocity":82,"Duration":589390,"SoundDuration":589390,"Delta":292937275},{"NoteNumber":77,"Velocity":67,"Duration":147347,"SoundDuration":147347,"Delta":292937275},{"NoteNumber":80,"Velocity":62,"Duration":147347,"SoundDuration":147347,"Delta":293084623},{"NoteNumber":77,"Velocity":62,"Duration":147347,"SoundDuration":147347,"Delta":293231971},{"NoteNumber":80,"Velocity":62,"Duration":147347,"SoundDuration":147347,"Delta":293379318},{"NoteNumber":90,"Velocity":94,"Duration":1178782,"SoundDuration":1178782,"Delta":293526666},{"NoteNumber":82,"Velocity":81,"Duration":147347,"SoundDuration":147347,"Delta":293526666},{"NoteNumber":78,"Velocity":69,"Duration":147347,"SoundDuration":147347,"Delta":293674014},{"NoteNumber":82,"Velocity":74,"Duration":147347,"SoundDuration":147347,"Delta":293821362},{"NoteNumber":80,"Velocity":61,"Duration":147347,"SoundDuration":147347,"Delta":293968709},{"NoteNumber":78,"Velocity":68,"Duration":147347,"SoundDuration":147347,"Delta":294116057},{"NoteNumber":77,"Velocity":60,"Duration":147347,"SoundDuration":147347,"Delta":294263405},{"NoteNumber":75,"Velocity":63,"Duration":147347,"SoundDuration":147347,"Delta":294410753},{"NoteNumber":73,"Velocity":61,"Duration":147347,"SoundDuration":147347,"Delta":294558100},{"NoteNumber":75,"Velocity":69,"Duration":1178782,"SoundDuration":1178782,"Delta":294705448},{"NoteNumber":78,"Velocity":69,"Duration":1178782,"SoundDuration":1178782,"Delta":294705448},{"NoteNumber":80,"Velocity":81,"Duration":1178782,"SoundDuration":1178782,"Delta":294705448},{"NoteNumber":72,"Velocity":60,"Duration":147347,"SoundDuration":147347,"Delta":294705448},{"NoteNumber":70,"Velocity":59,"Duration":147347,"SoundDuration":147347,"Delta":294852796},{"NoteNumber":68,"Velocity":57,"Duration":147347,"SoundDuration":147347,"Delta":295000144},{"NoteNumber":66,"Velocity":56,"Duration":147347,"SoundDuration":147347,"Delta":295147491},{"NoteNumber":65,"Velocity":55,"Duration":147347,"SoundDuration":147347,"Delta":295294839},{"NoteNumber":63,"Velocity":52,"Duration":147347,"SoundDuration":147347,"Delta":295442187},{"NoteNumber":61,"Velocity":51,"Duration":147347,"SoundDuration":147347,"Delta":295589535},{"NoteNumber":60,"Velocity":49,"Duration":147347,"SoundDuration":147347,"Delta":295736882},{"NoteNumber":77,"Velocity":50,"Duration":148868,"SoundDuration":148868,"Delta":295884230},{"NoteNumber":80,"Velocity":50,"Duration":148868,"SoundDuration":148868,"Delta":295884230},{"NoteNumber":61,"Velocity":55,"Duration":592432,"SoundDuration":592432,"Delta":295884230},{"NoteNumber":82,"Velocity":45,"Duration":148868,"SoundDuration":148868,"Delta":296033099},{"NoteNumber":80,"Velocity":45,"Duration":147347,"SoundDuration":147347,"Delta":296181967},{"NoteNumber":78,"Velocity":44,"Duration":147347,"SoundDuration":147347,"Delta":296329315},{"NoteNumber":77,"Velocity":41,"Duration":145857,"SoundDuration":145857,"Delta":296476663},{"NoteNumber":78,"Velocity":45,"Duration":145857,"SoundDuration":145857,"Delta":296622521},{"NoteNumber":80,"Velocity":47,"Duration":144369,"SoundDuration":144369,"Delta":296768378},{"NoteNumber":82,"Velocity":50,"Duration":143892,"SoundDuration":143892,"Delta":296912748},{"NoteNumber":84,"Velocity":52,"Duration":142938,"SoundDuration":142938,"Delta":297056641},{"NoteNumber":85,"Velocity":50,"Duration":143892,"SoundDuration":143892,"Delta":297199579},{"NoteNumber":80,"Velocity":48,"Duration":145857,"SoundDuration":145857,"Delta":297343472},{"NoteNumber":78,"Velocity":49,"Duration":147854,"SoundDuration":147854,"Delta":297489330},{"NoteNumber":77,"Velocity":50,"Duration":149396,"SoundDuration":149396,"Delta":297637184},{"NoteNumber":80,"Velocity":45,"Duration":151529,"SoundDuration":151529,"Delta":297786581},{"NoteNumber":77,"Velocity":46,"Duration":153148,"SoundDuration":153148,"Delta":297938110},{"NoteNumber":73,"Velocity":46,"Duration":155940,"SoundDuration":155940,"Delta":298091258},{"NoteNumber":72,"Velocity":55,"Duration":150451,"SoundDuration":150451,"Delta":298247198},{"NoteNumber":80,"Velocity":42,"Duration":150451,"SoundDuration":150451,"Delta":298397650},{"NoteNumber":82,"Velocity":42,"Duration":141509,"SoundDuration":141509,"Delta":298548101},{"NoteNumber":80,"Velocity":42,"Duration":141509,"SoundDuration":141509,"Delta":298689610},{"NoteNumber":84,"Velocity":51,"Duration":142857,"SoundDuration":142857,"Delta":298831120},{"NoteNumber":54,"Velocity":66,"Duration":1159890,"SoundDuration":1159890,"Delta":298831120},{"NoteNumber":80,"Velocity":42,"Duration":142857,"SoundDuration":142857,"Delta":298973977},{"NoteNumber":82,"Velocity":42,"Duration":142857,"SoundDuration":142857,"Delta":299116834},{"NoteNumber":80,"Velocity":42,"Duration":142857,"SoundDuration":142857,"Delta":299259691},{"NoteNumber":87,"Velocity":55,"Duration":149999,"SoundDuration":149999,"Delta":299402548},{"NoteNumber":80,"Velocity":41,"Duration":150000,"SoundDuration":150000,"Delta":299552548},{"NoteNumber":82,"Velocity":44,"Duration":144230,"SoundDuration":144230,"Delta":299702548},{"NoteNumber":80,"Velocity":44,"Duration":144230,"SoundDuration":144230,"Delta":299846779},{"NoteNumber":84,"Velocity":48,"Duration":144230,"SoundDuration":144230,"Delta":299991010},{"NoteNumber":66,"Velocity":55,"Duration":1142906,"SoundDuration":1142906,"Delta":299991010},{"NoteNumber":68,"Velocity":55,"Duration":1142906,"SoundDuration":1142906,"Delta":299991010},{"NoteNumber":75,"Velocity":66,"Duration":1142906,"SoundDuration":1142906,"Delta":299991010},{"NoteNumber":80,"Velocity":44,"Duration":144230,"SoundDuration":144230,"Delta":300135241},{"NoteNumber":82,"Velocity":44,"Duration":144230,"SoundDuration":144230,"Delta":300279471},{"NoteNumber":80,"Velocity":44,"Duration":144230,"SoundDuration":144230,"Delta":300423702},{"NoteNumber":85,"Velocity":53,"Duration":142857,"SoundDuration":142857,"Delta":300567933},{"NoteNumber":80,"Velocity":44,"Duration":142857,"SoundDuration":142857,"Delta":300710790},{"NoteNumber":82,"Velocity":44,"Duration":140134,"SoundDuration":140134,"Delta":300853647},{"NoteNumber":80,"Velocity":44,"Duration":140134,"SoundDuration":140134,"Delta":300993782},{"NoteNumber":85,"Velocity":55,"Duration":141509,"SoundDuration":141509,"Delta":301133916},{"NoteNumber":65,"Velocity":49,"Duration":283018,"SoundDuration":283018,"Delta":301133916},{"NoteNumber":68,"Velocity":49,"Duration":283018,"SoundDuration":283018,"Delta":301133916},{"NoteNumber":73,"Velocity":58,"Duration":283018,"SoundDuration":283018,"Delta":301133916},{"NoteNumber":80,"Velocity":44,"Duration":141509,"SoundDuration":141509,"Delta":301275425},{"NoteNumber":82,"Velocity":44,"Duration":141509,"SoundDuration":141509,"Delta":301416935},{"NoteNumber":80,"Velocity":44,"Duration":141509,"SoundDuration":141509,"Delta":301558444},{"NoteNumber":78,"Velocity":48,"Duration":140134,"SoundDuration":140134,"Delta":301699954},{"NoteNumber":63,"Velocity":46,"Duration":280268,"SoundDuration":280268,"Delta":301699954},{"NoteNumber":68,"Velocity":46,"Duration":280268,"SoundDuration":280268,"Delta":301699954},{"NoteNumber":72,"Velocity":56,"Duration":280268,"SoundDuration":280268,"Delta":301699954},{"NoteNumber":80,"Velocity":44,"Duration":140134,"SoundDuration":140134,"Delta":301840088},{"NoteNumber":82,"Velocity":44,"Duration":140134,"SoundDuration":140134,"Delta":301980223},{"NoteNumber":80,"Velocity":44,"Duration":140134,"SoundDuration":140134,"Delta":302120357},{"NoteNumber":77,"Velocity":48,"Duration":147347,"SoundDuration":147347,"Delta":302260492},{"NoteNumber":61,"Velocity":42,"Duration":294695,"SoundDuration":294695,"Delta":302260492},{"NoteNumber":68,"Velocity":42,"Duration":294695,"SoundDuration":294695,"Delta":302260492},{"NoteNumber":73,"Velocity":50,"Duration":294695,"SoundDuration":294695,"Delta":302260492},{"NoteNumber":80,"Velocity":45,"Duration":147347,"SoundDuration":147347,"Delta":302407839},{"NoteNumber":82,"Velocity":45,"Duration":147347,"SoundDuration":147347,"Delta":302555187},{"NoteNumber":80,"Velocity":45,"Duration":147347,"SoundDuration":147347,"Delta":302702535},{"NoteNumber":72,"Velocity":55,"Duration":150451,"SoundDuration":150451,"Delta":302849883},{"NoteNumber":80,"Velocity":42,"Duration":150451,"SoundDuration":150451,"Delta":303000334},{"NoteNumber":82,"Velocity":42,"Duration":141509,"SoundDuration":141509,"Delta":303150785},{"NoteNumber":80,"Velocity":42,"Duration":141509,"SoundDuration":141509,"Delta":303292295},{"NoteNumber":84,"Velocity":51,"Duration":144230,"SoundDuration":144230,"Delta":303433804},{"NoteNumber":54,"Velocity":66,"Duration":1156755,"SoundDuration":1156755,"Delta":303433804},{"NoteNumber":80,"Velocity":42,"Duration":144230,"SoundDuration":144230,"Delta":303578035},{"NoteNumber":82,"Velocity":42,"Duration":144230,"SoundDuration":144230,"Delta":303722266},{"NoteNumber":80,"Velocity":42,"Duration":144230,"SoundDuration":144230,"Delta":303866496},{"NoteNumber":87,"Velocity":55,"Duration":147058,"SoundDuration":147058,"Delta":304010727},{"NoteNumber":80,"Velocity":41,"Duration":147058,"SoundDuration":147058,"Delta":304157786},{"NoteNumber":82,"Velocity":44,"Duration":142857,"SoundDuration":142857,"Delta":304304845},{"NoteNumber":80,"Velocity":44,"Duration":142857,"SoundDuration":142857,"Delta":304447702},{"NoteNumber":82,"Velocity":48,"Duration":142857,"SoundDuration":142857,"Delta":304590559},{"NoteNumber":72,"Velocity":55,"Duration":1137411,"SoundDuration":1137411,"Delta":304590559},{"NoteNumber":75,"Velocity":55,"Duration":1137411,"SoundDuration":1137411,"Delta":304590559},{"NoteNumber":78,"Velocity":66,"Duration":1137411,"SoundDuration":1137411,"Delta":304590559},{"NoteNumber":80,"Velocity":44,"Duration":142857,"SoundDuration":142857,"Delta":304733416},{"NoteNumber":82,"Velocity":44,"Duration":142857,"SoundDuration":142857,"Delta":304876273},{"NoteNumber":80,"Velocity":44,"Duration":142857,"SoundDuration":142857,"Delta":305019130},{"NoteNumber":82,"Velocity":53,"Duration":142857,"SoundDuration":142857,"Delta":305161988},{"NoteNumber":80,"Velocity":44,"Duration":142857,"SoundDuration":142857,"Delta":305304845},{"NoteNumber":82,"Velocity":44,"Duration":140134,"SoundDuration":140134,"Delta":305447702},{"NoteNumber":80,"Velocity":44,"Duration":140134,"SoundDuration":140134,"Delta":305587836},{"NoteNumber":85,"Velocity":55,"Duration":140186,"SoundDuration":140186,"Delta":305727971},{"NoteNumber":68,"Velocity":42,"Duration":280373,"SoundDuration":280373,"Delta":305727971},{"NoteNumber":73,"Velocity":42,"Duration":280373,"SoundDuration":280373,"Delta":305727971},{"NoteNumber":77,"Velocity":61,"Duration":280373,"SoundDuration":280373,"Delta":305727971},{"NoteNumber":80,"Velocity":44,"Duration":140186,"SoundDuration":140186,"Delta":305868158},{"NoteNumber":82,"Velocity":44,"Duration":140186,"SoundDuration":140186,"Delta":306008345},{"NoteNumber":80,"Velocity":44,"Duration":140186,"SoundDuration":140186,"Delta":306148531},{"NoteNumber":87,"Velocity":59,"Duration":140134,"SoundDuration":140134,"Delta":306288718},{"NoteNumber":66,"Velocity":48,"Duration":280268,"SoundDuration":280268,"Delta":306288718},{"NoteNumber":72,"Velocity":48,"Duration":280268,"SoundDuration":280268,"Delta":306288718},{"NoteNumber":75,"Velocity":58,"Duration":280268,"SoundDuration":280268,"Delta":306288718},{"NoteNumber":80,"Velocity":47,"Duration":140134,"SoundDuration":140134,"Delta":306428853},{"NoteNumber":82,"Velocity":47,"Duration":140134,"SoundDuration":140134,"Delta":306568987},{"NoteNumber":80,"Velocity":44,"Duration":140134,"SoundDuration":140134,"Delta":306709122},{"NoteNumber":89,"Velocity":57,"Duration":147347,"SoundDuration":147347,"Delta":306849256},{"NoteNumber":65,"Velocity":45,"Duration":294695,"SoundDuration":294695,"Delta":306849256},{"NoteNumber":68,"Velocity":45,"Duration":294695,"SoundDuration":294695,"Delta":306849256},{"NoteNumber":73,"Velocity":53,"Duration":294695,"SoundDuration":294695,"Delta":306849256},{"NoteNumber":80,"Velocity":47,"Duration":147347,"SoundDuration":147347,"Delta":306996604},{"NoteNumber":82,"Velocity":47,"Duration":147347,"SoundDuration":147347,"Delta":307143952},{"NoteNumber":80,"Velocity":48,"Duration":147347,"SoundDuration":147347,"Delta":307291300},{"NoteNumber":87,"Velocity":71,"Duration":150451,"SoundDuration":150451,"Delta":307438647},{"NoteNumber":84,"Velocity":58,"Duration":150451,"SoundDuration":150451,"Delta":307589099},{"NoteNumber":85,"Velocity":58,"Duration":141509,"SoundDuration":141509,"Delta":307739550},{"NoteNumber":84,"Velocity":58,"Duration":141509,"SoundDuration":141509,"Delta":307881059},{"NoteNumber":87,"Velocity":72,"Duration":147347,"SoundDuration":147347,"Delta":308022569},{"NoteNumber":66,"Velocity":74,"Duration":1188483,"SoundDuration":1188483,"Delta":308022569},{"NoteNumber":72,"Velocity":74,"Duration":1188483,"SoundDuration":1188483,"Delta":308022569},{"NoteNumber":75,"Velocity":74,"Duration":1188483,"SoundDuration":1188483,"Delta":308022569},{"NoteNumber":84,"Velocity":58,"Duration":147347,"SoundDuration":147347,"Delta":308169917},{"NoteNumber":85,"Velocity":59,"Duration":147347,"SoundDuration":147347,"Delta":308317264},{"NoteNumber":84,"Velocity":61,"Duration":147347,"SoundDuration":147347,"Delta":308464612},{"NoteNumber":92,"Velocity":75,"Duration":153688,"SoundDuration":153688,"Delta":308611960},{"NoteNumber":84,"Velocity":57,"Duration":153688,"SoundDuration":153688,"Delta":308765648},{"NoteNumber":85,"Velocity":61,"Duration":145857,"SoundDuration":145857,"Delta":308919337},{"NoteNumber":84,"Velocity":61,"Duration":145857,"SoundDuration":145857,"Delta":309065194},{"NoteNumber":92,"Velocity":78,"Duration":147347,"SoundDuration":147347,"Delta":309211052},{"NoteNumber":75,"Velocity":68,"Duration":1177036,"SoundDuration":1177036,"Delta":309211052},{"NoteNumber":78,"Velocity":68,"Duration":1177036,"SoundDuration":1177036,"Delta":309211052},{"NoteNumber":80,"Velocity":81,"Duration":1177036,"SoundDuration":1177036,"Delta":309211052},{"NoteNumber":84,"Velocity":68,"Duration":147347,"SoundDuration":147347,"Delta":309358400},{"NoteNumber":85,"Velocity":69,"Duration":147347,"SoundDuration":147347,"Delta":309505748},{"NoteNumber":84,"Velocity":70,"Duration":147347,"SoundDuration":147347,"Delta":309653095},{"NoteNumber":92,"Velocity":82,"Duration":153688,"SoundDuration":153688,"Delta":309800443},{"NoteNumber":84,"Velocity":72,"Duration":153688,"SoundDuration":153688,"Delta":309954132},{"NoteNumber":85,"Velocity":73,"Duration":140134,"SoundDuration":140134,"Delta":310107820},{"NoteNumber":84,"Velocity":74,"Duration":140134,"SoundDuration":140134,"Delta":310247955},{"NoteNumber":92,"Velocity":90,"Duration":147347,"SoundDuration":147347,"Delta":310388089},{"NoteNumber":73,"Velocity":52,"Duration":294695,"SoundDuration":294695,"Delta":310388089},{"NoteNumber":77,"Velocity":52,"Duration":294695,"SoundDuration":294695,"Delta":310388089},{"NoteNumber":80,"Velocity":75,"Duration":294695,"SoundDuration":294695,"Delta":310388089},{"NoteNumber":85,"Velocity":78,"Duration":147347,"SoundDuration":147347,"Delta":310535437},{"NoteNumber":87,"Velocity":78,"Duration":147347,"SoundDuration":147347,"Delta":310682785},{"NoteNumber":85,"Velocity":80,"Duration":147347,"SoundDuration":147347,"Delta":310830132},{"NoteNumber":92,"Velocity":97,"Duration":142938,"SoundDuration":142938,"Delta":310977480},{"NoteNumber":72,"Velocity":61,"Duration":285877,"SoundDuration":285877,"Delta":310977480},{"NoteNumber":66,"Velocity":61,"Duration":285877,"SoundDuration":285877,"Delta":310977480},{"NoteNumber":75,"Velocity":61,"Duration":285877,"SoundDuration":285877,"Delta":310977480},{"NoteNumber":78,"Velocity":74,"Duration":285877,"SoundDuration":285877,"Delta":310977480},{"NoteNumber":87,"Velocity":81,"Duration":142938,"SoundDuration":142938,"Delta":311120419},{"NoteNumber":89,"Velocity":82,"Duration":142938,"SoundDuration":142938,"Delta":311263358},{"NoteNumber":87,"Velocity":84,"Duration":142938,"SoundDuration":142938,"Delta":311406297},{"NoteNumber":92,"Velocity":99,"Duration":148361,"SoundDuration":148361,"Delta":311549236},{"NoteNumber":68,"Velocity":60,"Duration":297757,"SoundDuration":297757,"Delta":311549236},{"NoteNumber":65,"Velocity":60,"Duration":297757,"SoundDuration":297757,"Delta":311549236},{"NoteNumber":73,"Velocity":60,"Duration":297757,"SoundDuration":297757,"Delta":311549236},{"NoteNumber":77,"Velocity":72,"Duration":297757,"SoundDuration":297757,"Delta":311549236},{"NoteNumber":89,"Velocity":84,"Duration":149396,"SoundDuration":149396,"Delta":311697597},{"NoteNumber":90,"Velocity":85,"Duration":150451,"SoundDuration":150451,"Delta":311846993},{"NoteNumber":89,"Velocity":88,"Duration":152068,"SoundDuration":152068,"Delta":311997445},{"NoteNumber":94,"Velocity":104,"Duration":145857,"SoundDuration":145857,"Delta":312149513},{"NoteNumber":90,"Velocity":92,"Duration":174337,"SoundDuration":174337,"Delta":312295371},{"NoteNumber":94,"Velocity":97,"Duration":153688,"SoundDuration":153688,"Delta":312469708},{"NoteNumber":92,"Velocity":86,"Duration":148868,"SoundDuration":148868,"Delta":312623397},{"NoteNumber":90,"Velocity":97,"Duration":153688,"SoundDuration":153688,"Delta":312772265},{"NoteNumber":63,"Velocity":68,"Duration":307376,"SoundDuration":307376,"Delta":312772265},{"NoteNumber":66,"Velocity":68,"Duration":307376,"SoundDuration":307376,"Delta":312772265},{"NoteNumber":70,"Velocity":68,"Duration":307376,"SoundDuration":307376,"Delta":312772265},{"NoteNumber":73,"Velocity":81,"Duration":307376,"SoundDuration":307376,"Delta":312772265},{"NoteNumber":89,"Velocity":83,"Duration":153688,"SoundDuration":153688,"Delta":312925954},{"NoteNumber":87,"Velocity":90,"Duration":153688,"SoundDuration":153688,"Delta":313079642},{"NoteNumber":85,"Velocity":78,"Duration":153688,"SoundDuration":153688,"Delta":313233331},{"NoteNumber":84,"Velocity":86,"Duration":153688,"SoundDuration":153688,"Delta":313387019},{"NoteNumber":82,"Velocity":79,"Duration":153688,"SoundDuration":153688,"Delta":313540708},{"NoteNumber":80,"Velocity":82,"Duration":153688,"SoundDuration":153688,"Delta":313694396},{"NoteNumber":78,"Velocity":75,"Duration":153688,"SoundDuration":153688,"Delta":313848085},{"NoteNumber":77,"Velocity":79,"Duration":153688,"SoundDuration":153688,"Delta":314001773},{"NoteNumber":56,"Velocity":69,"Duration":307376,"SoundDuration":307376,"Delta":314001773},{"NoteNumber":60,"Velocity":69,"Duration":307376,"SoundDuration":307376,"Delta":314001773},{"NoteNumber":63,"Velocity":69,"Duration":307376,"SoundDuration":307376,"Delta":314001773},{"NoteNumber":66,"Velocity":82,"Duration":307376,"SoundDuration":307376,"Delta":314001773},{"NoteNumber":75,"Velocity":72,"Duration":153688,"SoundDuration":153688,"Delta":314155462},{"NoteNumber":73,"Velocity":75,"Duration":153688,"SoundDuration":153688,"Delta":314309150},{"NoteNumber":72,"Velocity":69,"Duration":153688,"SoundDuration":153688,"Delta":314462839},{"NoteNumber":73,"Velocity":72,"Duration":157068,"SoundDuration":157068,"Delta":314616527},{"NoteNumber":70,"Velocity":70,"Duration":157068,"SoundDuration":157068,"Delta":314773595},{"NoteNumber":68,"Velocity":69,"Duration":157068,"SoundDuration":157068,"Delta":314930663},{"NoteNumber":66,"Velocity":67,"Duration":157068,"SoundDuration":157068,"Delta":315087732},{"NoteNumber":65,"Velocity":64,"Duration":158831,"SoundDuration":158831,"Delta":315244800},{"NoteNumber":63,"Velocity":63,"Duration":158830,"SoundDuration":158830,"Delta":315403631},{"NoteNumber":61,"Velocity":61,"Duration":158831,"SoundDuration":158831,"Delta":315562462},{"NoteNumber":60,"Velocity":60,"Duration":160023,"SoundDuration":160023,"Delta":315721293},{"NoteNumber":58,"Velocity":54,"Duration":160612,"SoundDuration":160612,"Delta":315881316},{"NoteNumber":56,"Velocity":53,"Duration":166226,"SoundDuration":166226,"Delta":316041929},{"NoteNumber":54,"Velocity":51,"Duration":174341,"SoundDuration":174341,"Delta":316208155},{"NoteNumber":53,"Velocity":50,"Duration":180960,"SoundDuration":180960,"Delta":316382496},{"NoteNumber":51,"Velocity":48,"Duration":193258,"SoundDuration":193258,"Delta":316563457},{"NoteNumber":49,"Velocity":47,"Duration":204192,"SoundDuration":204192,"Delta":316756716},{"NoteNumber":44,"Velocity":45,"Duration":219876,"SoundDuration":219876,"Delta":316960908},{"NoteNumber":41,"Velocity":44,"Duration":269784,"SoundDuration":269784,"Delta":317180785},{"NoteNumber":49,"Velocity":39,"Duration":1485148,"SoundDuration":1485148,"Delta":317450569},{"NoteNumber":53,"Velocity":39,"Duration":1485148,"SoundDuration":1485148,"Delta":317450569},{"NoteNumber":56,"Velocity":47,"Duration":1485148,"SoundDuration":1485148,"Delta":317450569},{"NoteNumber":37,"Velocity":47,"Duration":1485148,"SoundDuration":1485148,"Delta":317450569},{"NoteNumber":49,"Velocity":37,"Duration":1610305,"SoundDuration":1610305,"Delta":318935718},{"NoteNumber":54,"Velocity":44,"Duration":1610305,"SoundDuration":1610305,"Delta":318935718},{"NoteNumber":58,"Velocity":44,"Duration":1610305,"SoundDuration":1610305,"Delta":318935718},{"NoteNumber":30,"Velocity":35,"Duration":1610305,"SoundDuration":1610305,"Delta":318935718},{"NoteNumber":49,"Velocity":37,"Duration":1994680,"SoundDuration":1994680,"Delta":320546024},{"NoteNumber":53,"Velocity":37,"Duration":1994680,"SoundDuration":1994680,"Delta":320546024},{"NoteNumber":56,"Velocity":44,"Duration":1994680,"SoundDuration":1994680,"Delta":320546024},{"NoteNumber":37,"Velocity":37,"Duration":1994680,"SoundDuration":1994680,"Delta":320546024},{"NoteNumber":61,"Velocity":37,"Duration":688863,"SoundDuration":688863,"Delta":322540705},{"NoteNumber":63,"Velocity":37,"Duration":688863,"SoundDuration":688863,"Delta":322540705},{"NoteNumber":70,"Velocity":44,"Duration":688863,"SoundDuration":688863,"Delta":322540705},{"NoteNumber":54,"Velocity":35,"Duration":688863,"SoundDuration":688863,"Delta":322540705},{"NoteNumber":61,"Velocity":39,"Duration":1419781,"SoundDuration":1419781,"Delta":323229568},{"NoteNumber":63,"Velocity":39,"Duration":1419781,"SoundDuration":1419781,"Delta":323229568},{"NoteNumber":68,"Velocity":47,"Duration":1419781,"SoundDuration":1419781,"Delta":323229568},{"NoteNumber":56,"Velocity":40,"Duration":1748369,"SoundDuration":1748369,"Delta":323229568},{"NoteNumber":60,"Velocity":38,"Duration":1314347,"SoundDuration":1314347,"Delta":324649350},{"NoteNumber":63,"Velocity":38,"Duration":1314347,"SoundDuration":1314347,"Delta":324649350},{"NoteNumber":68,"Velocity":46,"Duration":1314347,"SoundDuration":1314347,"Delta":324649350},{"NoteNumber":54,"Velocity":38,"Duration":328586,"SoundDuration":328586,"Delta":324977937},{"NoteNumber":53,"Velocity":38,"Duration":328587,"SoundDuration":328587,"Delta":325306524},{"NoteNumber":51,"Velocity":38,"Duration":328586,"SoundDuration":328586,"Delta":325635111},{"NoteNumber":61,"Velocity":39,"Duration":649631,"SoundDuration":649631,"Delta":325963698},{"NoteNumber":65,"Velocity":39,"Duration":649631,"SoundDuration":649631,"Delta":325963698},{"NoteNumber":68,"Velocity":47,"Duration":649631,"SoundDuration":649631,"Delta":325963698},{"NoteNumber":49,"Velocity":40,"Duration":324815,"SoundDuration":324815,"Delta":325963698},{"NoteNumber":46,"Velocity":37,"Duration":324815,"SoundDuration":324815,"Delta":326288514},{"NoteNumber":44,"Velocity":37,"Duration":324815,"SoundDuration":324815,"Delta":326613330},{"NoteNumber":42,"Velocity":37,"Duration":324815,"SoundDuration":324815,"Delta":326938146},{"NoteNumber":41,"Velocity":40,"Duration":335058,"SoundDuration":335058,"Delta":327262962},{"NoteNumber":44,"Velocity":38,"Duration":346587,"SoundDuration":346587,"Delta":327598021},{"NoteNumber":42,"Velocity":38,"Duration":359649,"SoundDuration":359649,"Delta":327944608},{"NoteNumber":39,"Velocity":38,"Duration":392656,"SoundDuration":392656,"Delta":328304258},{"NoteNumber":53,"Velocity":45,"Duration":1504890,"SoundDuration":1504890,"Delta":328696915},{"NoteNumber":56,"Velocity":45,"Duration":1504890,"SoundDuration":1504890,"Delta":328696915},{"NoteNumber":61,"Velocity":54,"Duration":1504890,"SoundDuration":1504890,"Delta":328696915},{"NoteNumber":37,"Velocity":39,"Duration":1504890,"SoundDuration":1504890,"Delta":328696915},{"NoteNumber":49,"Velocity":46,"Duration":1504890,"SoundDuration":1504890,"Delta":328696915},{"NoteNumber":54,"Velocity":47,"Duration":1681614,"SoundDuration":1681614,"Delta":330201806},{"NoteNumber":58,"Velocity":47,"Duration":1681614,"SoundDuration":1681614,"Delta":330201806},{"NoteNumber":61,"Velocity":56,"Duration":1681614,"SoundDuration":1681614,"Delta":330201806},{"NoteNumber":30,"Velocity":40,"Duration":1681614,"SoundDuration":1681614,"Delta":330201806},{"NoteNumber":42,"Velocity":48,"Duration":1681614,"SoundDuration":1681614,"Delta":330201806},{"NoteNumber":53,"Velocity":36,"Duration":2087618,"SoundDuration":2087618,"Delta":331883420},{"NoteNumber":56,"Velocity":36,"Duration":2087618,"SoundDuration":2087618,"Delta":331883420},{"NoteNumber":61,"Velocity":44,"Duration":2087618,"SoundDuration":2087618,"Delta":331883420},{"NoteNumber":37,"Velocity":27,"Duration":2087618,"SoundDuration":2087618,"Delta":331883420},{"NoteNumber":49,"Velocity":32,"Duration":2087618,"SoundDuration":2087618,"Delta":331883420},{"NoteNumber":64,"Velocity":37,"Duration":709890,"SoundDuration":709890,"Delta":333971038},{"NoteNumber":67,"Velocity":37,"Duration":709890,"SoundDuration":709890,"Delta":333971038},{"NoteNumber":73,"Velocity":44,"Duration":709890,"SoundDuration":709890,"Delta":333971038},{"NoteNumber":57,"Velocity":36,"Duration":709890,"SoundDuration":709890,"Delta":333971038},{"NoteNumber":63,"Velocity":39,"Duration":1419781,"SoundDuration":1419781,"Delta":334680929},{"NoteNumber":66,"Velocity":39,"Duration":1419781,"SoundDuration":1419781,"Delta":334680929},{"NoteNumber":73,"Velocity":47,"Duration":1419781,"SoundDuration":1419781,"Delta":334680929},{"NoteNumber":56,"Velocity":37,"Duration":1764213,"SoundDuration":1764213,"Delta":334680929},{"NoteNumber":63,"Velocity":37,"Duration":1377726,"SoundDuration":1377726,"Delta":336100711},{"NoteNumber":66,"Velocity":37,"Duration":1377726,"SoundDuration":1377726,"Delta":336100711},{"NoteNumber":72,"Velocity":43,"Duration":1377726,"SoundDuration":1377726,"Delta":336100711},{"NoteNumber":54,"Velocity":37,"Duration":344431,"SoundDuration":344431,"Delta":336445143},{"NoteNumber":51,"Velocity":37,"Duration":344431,"SoundDuration":344431,"Delta":336789574},{"NoteNumber":48,"Velocity":37,"Duration":344431,"SoundDuration":344431,"Delta":337134006},{"NoteNumber":61,"Velocity":37,"Duration":697349,"SoundDuration":697349,"Delta":337478438},{"NoteNumber":65,"Velocity":37,"Duration":697349,"SoundDuration":697349,"Delta":337478438},{"NoteNumber":73,"Velocity":43,"Duration":697349,"SoundDuration":697349,"Delta":337478438},{"NoteNumber":44,"Velocity":40,"Duration":348675,"SoundDuration":348675,"Delta":337478438},{"NoteNumber":41,"Velocity":37,"Duration":348674,"SoundDuration":348674,"Delta":337827113},{"NoteNumber":39,"Velocity":37,"Duration":348675,"SoundDuration":348675,"Delta":338175788},{"NoteNumber":37,"Velocity":37,"Duration":347967,"SoundDuration":347967,"Delta":338524463},{"NoteNumber":36,"Velocity":40,"Duration":343076,"SoundDuration":343076,"Delta":338872431},{"NoteNumber":37,"Velocity":37,"Duration":358941,"SoundDuration":358941,"Delta":339215508},{"NoteNumber":41,"Velocity":37,"Duration":382986,"SoundDuration":382986,"Delta":339574449},{"NoteNumber":37,"Velocity":37,"Duration":408573,"SoundDuration":408573,"Delta":339957435},{"NoteNumber":48,"Velocity":39,"Duration":1504890,"SoundDuration":1504890,"Delta":340366009},{"NoteNumber":51,"Velocity":39,"Duration":1504890,"SoundDuration":1504890,"Delta":340366009},{"NoteNumber":56,"Velocity":47,"Duration":1504890,"SoundDuration":1504890,"Delta":340366009},{"NoteNumber":42,"Velocity":40,"Duration":1504890,"SoundDuration":1504890,"Delta":340366009},{"NoteNumber":44,"Velocity":40,"Duration":1504890,"SoundDuration":1504890,"Delta":340366009},{"NoteNumber":48,"Velocity":37,"Duration":1273227,"SoundDuration":1273227,"Delta":341870900},{"NoteNumber":54,"Velocity":44,"Duration":1273227,"SoundDuration":1273227,"Delta":341870900},{"NoteNumber":56,"Velocity":44,"Duration":1273227,"SoundDuration":1273227,"Delta":341870900},{"NoteNumber":39,"Velocity":35,"Duration":1273227,"SoundDuration":1273227,"Delta":341870900},{"NoteNumber":44,"Velocity":35,"Duration":1273227,"SoundDuration":1273227,"Delta":341870900},{"NoteNumber":48,"Velocity":37,"Duration":201288,"SoundDuration":201288,"Delta":343144127},{"NoteNumber":51,"Velocity":44,"Duration":201288,"SoundDuration":201288,"Delta":343144127},{"NoteNumber":56,"Velocity":44,"Duration":201288,"SoundDuration":201288,"Delta":343144127},{"NoteNumber":42,"Velocity":35,"Duration":201288,"SoundDuration":201288,"Delta":343144127},{"NoteNumber":44,"Velocity":35,"Duration":201288,"SoundDuration":201288,"Delta":343144127},{"NoteNumber":49,"Velocity":39,"Duration":1159196,"SoundDuration":1159196,"Delta":343345415},{"NoteNumber":53,"Velocity":39,"Duration":1159196,"SoundDuration":1159196,"Delta":343345415},{"NoteNumber":56,"Velocity":47,"Duration":1159196,"SoundDuration":1159196,"Delta":343345415},{"NoteNumber":41,"Velocity":33,"Duration":1159196,"SoundDuration":1159196,"Delta":343345415},{"NoteNumber":44,"Velocity":39,"Duration":1159196,"SoundDuration":1159196,"Delta":343345415},{"NoteNumber":65,"Velocity":45,"Duration":371287,"SoundDuration":371287,"Delta":344504611},{"NoteNumber":68,"Velocity":45,"Duration":371287,"SoundDuration":371287,"Delta":344504611},{"NoteNumber":73,"Velocity":53,"Duration":371287,"SoundDuration":371287,"Delta":344504611},{"NoteNumber":61,"Velocity":46,"Duration":371287,"SoundDuration":371287,"Delta":344504611},{"NoteNumber":68,"Velocity":41,"Duration":783085,"SoundDuration":783085,"Delta":344875899},{"NoteNumber":66,"Velocity":41,"Duration":783085,"SoundDuration":783085,"Delta":344875899},{"NoteNumber":72,"Velocity":49,"Duration":783085,"SoundDuration":783085,"Delta":344875899},{"NoteNumber":63,"Velocity":44,"Duration":783085,"SoundDuration":783085,"Delta":344875899},{"NoteNumber":65,"Velocity":31,"Duration":742574,"SoundDuration":742574,"Delta":345658984},{"NoteNumber":68,"Velocity":31,"Duration":742574,"SoundDuration":742574,"Delta":345658984},{"NoteNumber":73,"Velocity":37,"Duration":742574,"SoundDuration":742574,"Delta":345658984},{"NoteNumber":61,"Velocity":34,"Duration":742574,"SoundDuration":742574,"Delta":345658984},{"NoteNumber":48,"Velocity":39,"Duration":1524778,"SoundDuration":1524778,"Delta":346401559},{"NoteNumber":51,"Velocity":39,"Duration":1524778,"SoundDuration":1524778,"Delta":346401559},{"NoteNumber":56,"Velocity":47,"Duration":1524778,"SoundDuration":1524778,"Delta":346401559},{"NoteNumber":42,"Velocity":40,"Duration":1524778,"SoundDuration":1524778,"Delta":346401559},{"NoteNumber":44,"Velocity":40,"Duration":1524778,"SoundDuration":1524778,"Delta":346401559},{"NoteNumber":48,"Velocity":37,"Duration":1300995,"SoundDuration":1300995,"Delta":347926337},{"NoteNumber":54,"Velocity":44,"Duration":1300995,"SoundDuration":1300995,"Delta":347926337},{"NoteNumber":56,"Velocity":44,"Duration":1300995,"SoundDuration":1300995,"Delta":347926337},{"NoteNumber":39,"Velocity":35,"Duration":1300995,"SoundDuration":1300995,"Delta":347926337},{"NoteNumber":44,"Velocity":35,"Duration":1300995,"SoundDuration":1300995,"Delta":347926337},{"NoteNumber":48,"Velocity":37,"Duration":201288,"SoundDuration":201288,"Delta":349227332},{"NoteNumber":51,"Velocity":44,"Duration":201288,"SoundDuration":201288,"Delta":349227332},{"NoteNumber":56,"Velocity":44,"Duration":201288,"SoundDuration":201288,"Delta":349227332},{"NoteNumber":42,"Velocity":35,"Duration":201288,"SoundDuration":201288,"Delta":349227332},{"NoteNumber":44,"Velocity":35,"Duration":201288,"SoundDuration":201288,"Delta":349227332},{"NoteNumber":49,"Velocity":39,"Duration":1145150,"SoundDuration":1145150,"Delta":349428620},{"NoteNumber":53,"Velocity":39,"Duration":1145150,"SoundDuration":1145150,"Delta":349428620},{"NoteNumber":56,"Velocity":47,"Duration":1145150,"SoundDuration":1145150,"Delta":349428620},{"NoteNumber":41,"Velocity":33,"Duration":1145150,"SoundDuration":1145150,"Delta":349428620},{"NoteNumber":44,"Velocity":39,"Duration":1145150,"SoundDuration":1145150,"Delta":349428620},{"NoteNumber":65,"Velocity":45,"Duration":361881,"SoundDuration":361881,"Delta":350573771},{"NoteNumber":68,"Velocity":45,"Duration":361881,"SoundDuration":361881,"Delta":350573771},{"NoteNumber":77,"Velocity":55,"Duration":361881,"SoundDuration":361881,"Delta":350573771},{"NoteNumber":61,"Velocity":46,"Duration":361881,"SoundDuration":361881,"Delta":350573771},{"NoteNumber":68,"Velocity":45,"Duration":693635,"SoundDuration":693635,"Delta":350935653},{"NoteNumber":66,"Velocity":45,"Duration":693635,"SoundDuration":693635,"Delta":350935653},{"NoteNumber":77,"Velocity":58,"Duration":336322,"SoundDuration":336322,"Delta":350935653},{"NoteNumber":60,"Velocity":44,"Duration":693635,"SoundDuration":693635,"Delta":350935653},{"NoteNumber":75,"Velocity":51,"Duration":357312,"SoundDuration":357312,"Delta":351271976},{"NoteNumber":65,"Velocity":31,"Duration":762388,"SoundDuration":762388,"Delta":351629289},{"NoteNumber":68,"Velocity":31,"Duration":762388,"SoundDuration":762388,"Delta":351629289},{"NoteNumber":73,"Velocity":37,"Duration":762388,"SoundDuration":762388,"Delta":351629289},{"NoteNumber":61,"Velocity":34,"Duration":762388,"SoundDuration":762388,"Delta":351629289},{"NoteNumber":48,"Velocity":53,"Duration":1466275,"SoundDuration":1466275,"Delta":352391678},{"NoteNumber":51,"Velocity":53,"Duration":1466275,"SoundDuration":1466275,"Delta":352391678},{"NoteNumber":56,"Velocity":66,"Duration":1466275,"SoundDuration":1466275,"Delta":352391678},{"NoteNumber":42,"Velocity":56,"Duration":1466275,"SoundDuration":1466275,"Delta":352391678},{"NoteNumber":44,"Velocity":56,"Duration":1466275,"SoundDuration":1466275,"Delta":352391678},{"NoteNumber":48,"Velocity":61,"Duration":1375916,"SoundDuration":1375916,"Delta":353857954},{"NoteNumber":54,"Velocity":72,"Duration":1375916,"SoundDuration":1375916,"Delta":353857954},{"NoteNumber":56,"Velocity":72,"Duration":1375916,"SoundDuration":1375916,"Delta":353857954},{"NoteNumber":39,"Velocity":57,"Duration":1375916,"SoundDuration":1375916,"Delta":353857954},{"NoteNumber":44,"Velocity":57,"Duration":1375916,"SoundDuration":1375916,"Delta":353857954},{"NoteNumber":48,"Velocity":65,"Duration":201288,"SoundDuration":201288,"Delta":355233870},{"NoteNumber":51,"Velocity":77,"Duration":201288,"SoundDuration":201288,"Delta":355233870},{"NoteNumber":56,"Velocity":77,"Duration":201288,"SoundDuration":201288,"Delta":355233870},{"NoteNumber":42,"Velocity":62,"Duration":201288,"SoundDuration":201288,"Delta":355233870},{"NoteNumber":44,"Velocity":62,"Duration":201288,"SoundDuration":201288,"Delta":355233870},{"NoteNumber":68,"Velocity":80,"Duration":1099707,"SoundDuration":1099707,"Delta":355435158},{"NoteNumber":73,"Velocity":80,"Duration":1099707,"SoundDuration":1099707,"Delta":355435158},{"NoteNumber":80,"Velocity":98,"Duration":1099707,"SoundDuration":1099707,"Delta":355435158},{"NoteNumber":65,"Velocity":82,"Duration":1099707,"SoundDuration":1099707,"Delta":355435158},{"NoteNumber":73,"Velocity":70,"Duration":352941,"SoundDuration":352941,"Delta":356534865},{"NoteNumber":77,"Velocity":70,"Duration":352941,"SoundDuration":352941,"Delta":356534865},{"NoteNumber":80,"Velocity":83,"Duration":352941,"SoundDuration":352941,"Delta":356534865},{"NoteNumber":61,"Velocity":56,"Duration":352941,"SoundDuration":352941,"Delta":356534865},{"NoteNumber":65,"Velocity":63,"Duration":352941,"SoundDuration":352941,"Delta":356534865},{"NoteNumber":75,"Velocity":70,"Duration":680735,"SoundDuration":680735,"Delta":356887807},{"NoteNumber":72,"Velocity":70,"Duration":680735,"SoundDuration":680735,"Delta":356887807},{"NoteNumber":80,"Velocity":87,"Duration":340367,"SoundDuration":340367,"Delta":356887807},{"NoteNumber":63,"Velocity":59,"Duration":680735,"SoundDuration":680735,"Delta":356887807},{"NoteNumber":66,"Velocity":71,"Duration":680735,"SoundDuration":680735,"Delta":356887807},{"NoteNumber":78,"Velocity":68,"Duration":340367,"SoundDuration":340367,"Delta":357228174},{"NoteNumber":73,"Velocity":57,"Duration":718923,"SoundDuration":718923,"Delta":357568542},{"NoteNumber":77,"Velocity":71,"Duration":718923,"SoundDuration":718923,"Delta":357568542},{"NoteNumber":65,"Velocity":47,"Duration":342700,"SoundDuration":342700,"Delta":357568542},{"NoteNumber":68,"Velocity":53,"Duration":342700,"SoundDuration":342700,"Delta":357568542},{"NoteNumber":61,"Velocity":37,"Duration":376222,"SoundDuration":376222,"Delta":357911242},{"NoteNumber":65,"Velocity":50,"Duration":376222,"SoundDuration":376222,"Delta":357911242},{"NoteNumber":66,"Velocity":39,"Duration":1485148,"SoundDuration":1485148,"Delta":358287465},{"NoteNumber":70,"Velocity":39,"Duration":1485148,"SoundDuration":1485148,"Delta":358287465},{"NoteNumber":75,"Velocity":47,"Duration":1485148,"SoundDuration":1485148,"Delta":358287465},{"NoteNumber":54,"Velocity":37,"Duration":1485148,"SoundDuration":1485148,"Delta":358287465},{"NoteNumber":58,"Velocity":37,"Duration":1485148,"SoundDuration":1485148,"Delta":358287465},{"NoteNumber":63,"Velocity":37,"Duration":1587721,"SoundDuration":1587721,"Delta":359772614},{"NoteNumber":68,"Velocity":43,"Duration":1587721,"SoundDuration":1587721,"Delta":359772614},{"NoteNumber":60,"Velocity":34,"Duration":1587721,"SoundDuration":1587721,"Delta":359772614},{"NoteNumber":56,"Velocity":34,"Duration":1587721,"SoundDuration":1587721,"Delta":359772614},{"NoteNumber":46,"Velocity":27,"Duration":3766930,"SoundDuration":3766930,"Delta":361360336},{"NoteNumber":49,"Velocity":28,"Duration":3576332,"SoundDuration":3576332,"Delta":361550933},{"NoteNumber":52,"Velocity":30,"Duration":3385735,"SoundDuration":3385735,"Delta":361741530},{"NoteNumber":55,"Velocity":31,"Duration":3195138,"SoundDuration":3195138,"Delta":361932128},{"NoteNumber":58,"Velocity":34,"Duration":3004541,"SoundDuration":3004541,"Delta":362122725},{"NoteNumber":61,"Velocity":30,"Duration":2813943,"SoundDuration":2813943,"Delta":362313322},{"NoteNumber":64,"Velocity":32,"Duration":2623346,"SoundDuration":2623346,"Delta":362503919},{"NoteNumber":67,"Velocity":34,"Duration":2432749,"SoundDuration":2432749,"Delta":362694517},{"NoteNumber":73,"Velocity":38,"Duration":2242151,"SoundDuration":2242151,"Delta":362885114},{"NoteNumber":58,"Velocity":74,"Duration":4756286,"SoundDuration":4756286,"Delta":365127266},{"NoteNumber":61,"Velocity":79,"Duration":4639153,"SoundDuration":4639153,"Delta":365244398},{"NoteNumber":64,"Velocity":82,"Duration":4522021,"SoundDuration":4522021,"Delta":365361531},{"NoteNumber":67,"Velocity":86,"Duration":4404888,"SoundDuration":4404888,"Delta":365478664},{"NoteNumber":85,"Velocity":102,"Duration":4287756,"SoundDuration":4287756,"Delta":365595796},{"NoteNumber":79,"Velocity":86,"Duration":4287756,"SoundDuration":4287756,"Delta":365595796},{"NoteNumber":76,"Velocity":86,"Duration":4287756,"SoundDuration":4287756,"Delta":365595796},{"NoteNumber":73,"Velocity":86,"Duration":4287756,"SoundDuration":4287756,"Delta":365595796},{"NoteNumber":70,"Velocity":90,"Duration":4287756,"SoundDuration":4287756,"Delta":365595796}],"license":{"name":"Creative Commons Attribution-ShareAlike 3.0 Germany","url":"http://creativecommons.org/licenses/by-sa/3.0/de/deed.en","text":"The MIDI files in this folder were downloaded from http://www.piano-midi.de and are licensed under the Creative Commons Attribution-ShareAlike 3.0 Germany license by Bernd Krueger.\n\nThe MIDI, audio(MP3, OGG) and video files of Bernd Krueger are licensed under the cc-by-sa Germany License . This means, that you can use and adapt the files, as long as you attribute to the copyright holder Name: Bernd Krueger Source: http://www.piano-midi.de The distribution or public playback of the files is only allowed under identical license conditions . The scores are open source.","attribution":"Bernd Krueger","attributionUrl":"http://www.piano-midi.de"}}