{"title":"Piano Sonata No. 11 in B-flat major, Op. 22: I. Allegro con brio","artist":"Beethoven","durationMs":398349,"midiSha256":"c47f51485f0178547b58dffb373c0d8b5d109b5d4f8fc02f40588a2f2c9f43d8","midiObject":[{"NoteNumber":58,"Velocity":42,"Duration":83240,"SoundDuration":83240,"Delta":0},{"NoteNumber":62,"Velocity":50,"Duration":366727,"SoundDuration":366727,"Delta":0},{"NoteNumber":57,"Velocity":40,"Duration":83240,"SoundDuration":83240,"Delta":83240},{"NoteNumber":58,"Velocity":45,"Duration":83240,"SoundDuration":83240,"Delta":166481},{"NoteNumber":53,"Velocity":39,"Duration":117004,"SoundDuration":117004,"Delta":249722},{"NoteNumber":62,"Velocity":35,"Duration":75402,"SoundDuration":75402,"Delta":366727},{"NoteNumber":65,"Velocity":42,"Duration":75402,"SoundDuration":75402,"Delta":366727},{"NoteNumber":34,"Velocity":30,"Duration":75402,"SoundDuration":75402,"Delta":366727},{"NoteNumber":46,"Velocity":36,"Duration":75402,"SoundDuration":75402,"Delta":366727},{"NoteNumber":58,"Velocity":32,"Duration":75402,"SoundDuration":75402,"Delta":768872},{"NoteNumber":62,"Velocity":38,"Duration":75402,"SoundDuration":75402,"Delta":768872},{"NoteNumber":34,"Velocity":27,"Duration":75402,"SoundDuration":75402,"Delta":768872},{"NoteNumber":46,"Velocity":32,"Duration":75402,"SoundDuration":75402,"Delta":768872},{"NoteNumber":58,"Velocity":42,"Duration":83240,"SoundDuration":83240,"Delta":1573162},{"NoteNumber":62,"Velocity":50,"Duration":366727,"SoundDuration":366727,"Delta":1573162},{"NoteNumber":57,"Velocity":40,"Duration":83240,"SoundDuration":83240,"Delta":1656402},{"NoteNumber":58,"Velocity":45,"Duration":83240,"SoundDuration":83240,"Delta":1739643},{"NoteNumber":53,"Velocity":39,"Duration":117004,"SoundDuration":117004,"Delta":1822884},{"NoteNumber":62,"Velocity":35,"Duration":75402,"SoundDuration":75402,"Delta":1939889},{"NoteNumber":65,"Velocity":42,"Duration":75402,"SoundDuration":75402,"Delta":1939889},{"NoteNumber":34,"Velocity":30,"Duration":75402,"SoundDuration":75402,"Delta":1939889},{"NoteNumber":46,"Velocity":36,"Duration":75402,"SoundDuration":75402,"Delta":1939889},{"NoteNumber":58,"Velocity":32,"Duration":75402,"SoundDuration":75402,"Delta":2342034},{"NoteNumber":62,"Velocity":38,"Duration":75402,"SoundDuration":75402,"Delta":2342034},{"NoteNumber":34,"Velocity":27,"Duration":75402,"SoundDuration":75402,"Delta":2342034},{"NoteNumber":46,"Velocity":32,"Duration":75402,"SoundDuration":75402,"Delta":2342034},{"NoteNumber":62,"Velocity":50,"Duration":188442,"SoundDuration":188442,"Delta":3146324},{"NoteNumber":58,"Velocity":42,"Duration":103643,"SoundDuration":103643,"Delta":3146324},{"NoteNumber":57,"Velocity":40,"Duration":103643,"SoundDuration":103643,"Delta":3240545},{"NoteNumber":58,"Velocity":46,"Duration":103643,"SoundDuration":103643,"Delta":3334766},{"NoteNumber":53,"Velocity":40,"Duration":94221,"SoundDuration":94221,"Delta":3428987},{"NoteNumber":65,"Velocity":53,"Duration":183823,"SoundDuration":183823,"Delta":3523208},{"NoteNumber":62,"Velocity":44,"Duration":101102,"SoundDuration":101102,"Delta":3523208},{"NoteNumber":61,"Velocity":42,"Duration":101102,"SoundDuration":101102,"Delta":3615119},{"NoteNumber":62,"Velocity":49,"Duration":101102,"SoundDuration":101102,"Delta":3707031},{"NoteNumber":58,"Velocity":42,"Duration":91911,"SoundDuration":91911,"Delta":3798943},{"NoteNumber":65,"Velocity":47,"Duration":99577,"SoundDuration":99577,"Delta":3890855},{"NoteNumber":70,"Velocity":56,"Duration":181049,"SoundDuration":181049,"Delta":3890855},{"NoteNumber":64,"Velocity":45,"Duration":99577,"SoundDuration":99577,"Delta":3981380},{"NoteNumber":65,"Velocity":51,"Duration":99577,"SoundDuration":99577,"Delta":4071905},{"NoteNumber":62,"Velocity":45,"Duration":90524,"SoundDuration":90524,"Delta":4162430},{"NoteNumber":70,"Velocity":49,"Duration":98390,"SoundDuration":98390,"Delta":4252955},{"NoteNumber":74,"Velocity":59,"Duration":178891,"SoundDuration":178891,"Delta":4252955},{"NoteNumber":69,"Velocity":47,"Duration":98390,"SoundDuration":98390,"Delta":4342400},{"NoteNumber":70,"Velocity":54,"Duration":98390,"SoundDuration":98390,"Delta":4431846},{"NoteNumber":65,"Velocity":47,"Duration":89445,"SoundDuration":89445,"Delta":4521291},{"NoteNumber":74,"Velocity":52,"Duration":100182,"SoundDuration":100182,"Delta":4610737},{"NoteNumber":77,"Velocity":62,"Duration":182149,"SoundDuration":182149,"Delta":4610737},{"NoteNumber":73,"Velocity":50,"Duration":100182,"SoundDuration":100182,"Delta":4701811},{"NoteNumber":74,"Velocity":57,"Duration":102252,"SoundDuration":102252,"Delta":4792886},{"NoteNumber":70,"Velocity":49,"Duration":111773,"SoundDuration":111773,"Delta":4883961},{"NoteNumber":82,"Velocity":72,"Duration":1099572,"SoundDuration":1099572,"Delta":4995734},{"NoteNumber":46,"Velocity":44,"Duration":91630,"SoundDuration":91630,"Delta":4995734},{"NoteNumber":50,"Velocity":31,"Duration":91631,"SoundDuration":91631,"Delta":5087365},{"NoteNumber":53,"Velocity":31,"Duration":91630,"SoundDuration":91630,"Delta":5178996},{"NoteNumber":58,"Velocity":31,"Duration":91631,"SoundDuration":91631,"Delta":5270627},{"NoteNumber":46,"Velocity":44,"Duration":91630,"SoundDuration":91630,"Delta":5362258},{"NoteNumber":50,"Velocity":32,"Duration":91631,"SoundDuration":91631,"Delta":5453889},{"NoteNumber":53,"Velocity":32,"Duration":91630,"SoundDuration":91630,"Delta":5545520},{"NoteNumber":58,"Velocity":32,"Duration":91631,"SoundDuration":91631,"Delta":5637151},{"NoteNumber":46,"Velocity":44,"Duration":91630,"SoundDuration":91630,"Delta":5728782},{"NoteNumber":50,"Velocity":33,"Duration":91631,"SoundDuration":91631,"Delta":5820413},{"NoteNumber":53,"Velocity":33,"Duration":91630,"SoundDuration":91630,"Delta":5912044},{"NoteNumber":58,"Velocity":33,"Duration":91631,"SoundDuration":91631,"Delta":6003675},{"NoteNumber":81,"Velocity":60,"Duration":91630,"SoundDuration":91630,"Delta":6095306},{"NoteNumber":46,"Velocity":44,"Duration":91630,"SoundDuration":91630,"Delta":6095306},{"NoteNumber":82,"Velocity":57,"Duration":91631,"SoundDuration":91631,"Delta":6186937},{"NoteNumber":50,"Velocity":33,"Duration":91631,"SoundDuration":91631,"Delta":6186937},{"NoteNumber":84,"Velocity":60,"Duration":91630,"SoundDuration":91630,"Delta":6278568},{"NoteNumber":53,"Velocity":33,"Duration":91630,"SoundDuration":91630,"Delta":6278568},{"NoteNumber":82,"Velocity":54,"Duration":102599,"SoundDuration":102599,"Delta":6370199},{"NoteNumber":58,"Velocity":33,"Duration":102599,"SoundDuration":102599,"Delta":6370199},{"NoteNumber":81,"Velocity":60,"Duration":188442,"SoundDuration":188442,"Delta":6472799},{"NoteNumber":46,"Velocity":44,"Duration":94221,"SoundDuration":94221,"Delta":6472799},{"NoteNumber":51,"Velocity":31,"Duration":94221,"SoundDuration":94221,"Delta":6567020},{"NoteNumber":79,"Velocity":51,"Duration":188442,"SoundDuration":188442,"Delta":6661241},{"NoteNumber":55,"Velocity":31,"Duration":94220,"SoundDuration":94220,"Delta":6661241},{"NoteNumber":58,"Velocity":31,"Duration":94221,"SoundDuration":94221,"Delta":6755461},{"NoteNumber":77,"Velocity":54,"Duration":188442,"SoundDuration":188442,"Delta":6849683},{"NoteNumber":46,"Velocity":42,"Duration":94220,"SoundDuration":94220,"Delta":6849683},{"NoteNumber":51,"Velocity":28,"Duration":94221,"SoundDuration":94221,"Delta":6943904},{"NoteNumber":75,"Velocity":50,"Duration":188441,"SoundDuration":188441,"Delta":7038125},{"NoteNumber":55,"Velocity":28,"Duration":94220,"SoundDuration":94220,"Delta":7038125},{"NoteNumber":58,"Velocity":28,"Duration":94220,"SoundDuration":94220,"Delta":7132346},{"NoteNumber":74,"Velocity":59,"Duration":188442,"SoundDuration":188442,"Delta":7226567},{"NoteNumber":46,"Velocity":41,"Duration":94221,"SoundDuration":94221,"Delta":7226567},{"NoteNumber":51,"Velocity":29,"Duration":94220,"SoundDuration":94220,"Delta":7320788},{"NoteNumber":72,"Velocity":48,"Duration":188442,"SoundDuration":188442,"Delta":7415009},{"NoteNumber":53,"Velocity":29,"Duration":94221,"SoundDuration":94221,"Delta":7415009},{"NoteNumber":57,"Velocity":29,"Duration":94220,"SoundDuration":94220,"Delta":7509230},{"NoteNumber":79,"Velocity":56,"Duration":188442,"SoundDuration":188442,"Delta":7603451},{"NoteNumber":46,"Velocity":41,"Duration":94221,"SoundDuration":94221,"Delta":7603451},{"NoteNumber":51,"Velocity":31,"Duration":94220,"SoundDuration":94220,"Delta":7697672},{"NoteNumber":77,"Velocity":47,"Duration":203950,"SoundDuration":203950,"Delta":7791893},{"NoteNumber":53,"Velocity":31,"Duration":94220,"SoundDuration":94220,"Delta":7791893},{"NoteNumber":57,"Velocity":31,"Duration":109729,"SoundDuration":109729,"Delta":7886114},{"NoteNumber":75,"Velocity":54,"Duration":400802,"SoundDuration":400802,"Delta":7995843},{"NoteNumber":46,"Velocity":44,"Duration":100200,"SoundDuration":100200,"Delta":7995843},{"NoteNumber":50,"Velocity":31,"Duration":100200,"SoundDuration":100200,"Delta":8096043},{"NoteNumber":53,"Velocity":31,"Duration":100200,"SoundDuration":100200,"Delta":8196244},{"NoteNumber":58,"Velocity":31,"Duration":100200,"SoundDuration":100200,"Delta":8296444},{"NoteNumber":74,"Velocity":47,"Duration":400801,"SoundDuration":400801,"Delta":8396645},{"NoteNumber":46,"Velocity":44,"Duration":100200,"SoundDuration":100200,"Delta":8396645},{"NoteNumber":50,"Velocity":32,"Duration":100200,"SoundDuration":100200,"Delta":8496845},{"NoteNumber":53,"Velocity":32,"Duration":100200,"SoundDuration":100200,"Delta":8597046},{"NoteNumber":58,"Velocity":32,"Duration":100200,"SoundDuration":100200,"Delta":8697246},{"NoteNumber":46,"Velocity":44,"Duration":98879,"SoundDuration":98879,"Delta":8797447},{"NoteNumber":50,"Velocity":32,"Duration":98879,"SoundDuration":98879,"Delta":8896326},{"NoteNumber":53,"Velocity":32,"Duration":98879,"SoundDuration":98879,"Delta":8995205},{"NoteNumber":56,"Velocity":32,"Duration":98879,"SoundDuration":98879,"Delta":9094084},{"NoteNumber":69,"Velocity":58,"Duration":98879,"SoundDuration":98879,"Delta":9192964},{"NoteNumber":46,"Velocity":44,"Duration":98879,"SoundDuration":98879,"Delta":9192964},{"NoteNumber":70,"Velocity":54,"Duration":98879,"SoundDuration":98879,"Delta":9291843},{"NoteNumber":50,"Velocity":32,"Duration":98879,"SoundDuration":98879,"Delta":9291843},{"NoteNumber":72,"Velocity":58,"Duration":98879,"SoundDuration":98879,"Delta":9390722},{"NoteNumber":53,"Velocity":32,"Duration":98879,"SoundDuration":98879,"Delta":9390722},{"NoteNumber":70,"Velocity":54,"Duration":98879,"SoundDuration":98879,"Delta":9489601},{"NoteNumber":56,"Velocity":32,"Duration":98879,"SoundDuration":98879,"Delta":9489601},{"NoteNumber":68,"Velocity":60,"Duration":189035,"SoundDuration":189035,"Delta":9588481},{"NoteNumber":46,"Velocity":44,"Duration":94518,"SoundDuration":94518,"Delta":9588481},{"NoteNumber":51,"Velocity":32,"Duration":94517,"SoundDuration":94517,"Delta":9682999},{"NoteNumber":67,"Velocity":54,"Duration":189035,"SoundDuration":189035,"Delta":9777517},{"NoteNumber":55,"Velocity":32,"Duration":94518,"SoundDuration":94518,"Delta":9777517},{"NoteNumber":51,"Velocity":32,"Duration":94517,"SoundDuration":94517,"Delta":9872035},{"NoteNumber":65,"Velocity":66,"Duration":189035,"SoundDuration":189035,"Delta":9966553},{"NoteNumber":46,"Velocity":44,"Duration":94518,"SoundDuration":94518,"Delta":9966553},{"NoteNumber":51,"Velocity":36,"Duration":94517,"SoundDuration":94517,"Delta":10061071},{"NoteNumber":63,"Velocity":61,"Duration":195392,"SoundDuration":195392,"Delta":10155589},{"NoteNumber":55,"Velocity":36,"Duration":94518,"SoundDuration":94518,"Delta":10155589},{"NoteNumber":51,"Velocity":36,"Duration":100874,"SoundDuration":100874,"Delta":10250107},{"NoteNumber":62,"Velocity":69,"Duration":189035,"SoundDuration":189035,"Delta":10350981},{"NoteNumber":46,"Velocity":48,"Duration":94518,"SoundDuration":94518,"Delta":10350981},{"NoteNumber":48,"Velocity":37,"Duration":94517,"SoundDuration":94517,"Delta":10445499},{"NoteNumber":60,"Velocity":62,"Duration":189035,"SoundDuration":189035,"Delta":10540017},{"NoteNumber":51,"Velocity":38,"Duration":94518,"SoundDuration":94518,"Delta":10540017},{"NoteNumber":53,"Velocity":40,"Duration":94517,"SoundDuration":94517,"Delta":10634535},{"NoteNumber":63,"Velocity":73,"Duration":189035,"SoundDuration":189035,"Delta":10729053},{"NoteNumber":46,"Velocity":50,"Duration":94518,"SoundDuration":94518,"Delta":10729053},{"NoteNumber":48,"Velocity":40,"Duration":94517,"SoundDuration":94517,"Delta":10823571},{"NoteNumber":57,"Velocity":63,"Duration":203847,"SoundDuration":203847,"Delta":10918089},{"NoteNumber":51,"Velocity":39,"Duration":94518,"SoundDuration":94518,"Delta":10918089},{"NoteNumber":53,"Velocity":43,"Duration":109329,"SoundDuration":109329,"Delta":11012607},{"NoteNumber":58,"Velocity":79,"Duration":104748,"SoundDuration":104748,"Delta":11121936},{"NoteNumber":46,"Velocity":60,"Duration":104748,"SoundDuration":104748,"Delta":11121936},{"NoteNumber":62,"Velocity":68,"Duration":89445,"SoundDuration":89445,"Delta":11331433},{"NoteNumber":60,"Velocity":65,"Duration":89445,"SoundDuration":89445,"Delta":11420879},{"NoteNumber":58,"Velocity":71,"Duration":89445,"SoundDuration":89445,"Delta":11510324},{"NoteNumber":46,"Velocity":53,"Duration":89445,"SoundDuration":89445,"Delta":11510324},{"NoteNumber":57,"Velocity":65,"Duration":89445,"SoundDuration":89445,"Delta":11599770},{"NoteNumber":45,"Velocity":46,"Duration":89445,"SoundDuration":89445,"Delta":11599770},{"NoteNumber":58,"Velocity":71,"Duration":89445,"SoundDuration":89445,"Delta":11689215},{"NoteNumber":46,"Velocity":53,"Duration":89445,"SoundDuration":89445,"Delta":11689215},{"NoteNumber":55,"Velocity":65,"Duration":89445,"SoundDuration":89445,"Delta":11778661},{"NoteNumber":43,"Velocity":46,"Duration":89445,"SoundDuration":89445,"Delta":11778661},{"NoteNumber":53,"Velocity":79,"Duration":108538,"SoundDuration":108538,"Delta":11868106},{"NoteNumber":41,"Velocity":60,"Duration":108538,"SoundDuration":108538,"Delta":11868106},{"NoteNumber":67,"Velocity":68,"Duration":89445,"SoundDuration":89445,"Delta":12081029},{"NoteNumber":65,"Velocity":65,"Duration":89445,"SoundDuration":89445,"Delta":12170475},{"NoteNumber":63,"Velocity":71,"Duration":89445,"SoundDuration":89445,"Delta":12259920},{"NoteNumber":51,"Velocity":53,"Duration":89445,"SoundDuration":89445,"Delta":12259920},{"NoteNumber":62,"Velocity":65,"Duration":89445,"SoundDuration":89445,"Delta":12349366},{"NoteNumber":50,"Velocity":46,"Duration":89445,"SoundDuration":89445,"Delta":12349366},{"NoteNumber":63,"Velocity":71,"Duration":89445,"SoundDuration":89445,"Delta":12438811},{"NoteNumber":51,"Velocity":53,"Duration":89445,"SoundDuration":89445,"Delta":12438811},{"NoteNumber":60,"Velocity":65,"Duration":89445,"SoundDuration":89445,"Delta":12528257},{"NoteNumber":48,"Velocity":46,"Duration":89445,"SoundDuration":89445,"Delta":12528257},{"NoteNumber":58,"Velocity":79,"Duration":108538,"SoundDuration":108538,"Delta":12617702},{"NoteNumber":46,"Velocity":60,"Duration":108538,"SoundDuration":108538,"Delta":12617702},{"NoteNumber":74,"Velocity":68,"Duration":89445,"SoundDuration":89445,"Delta":12830263},{"NoteNumber":72,"Velocity":65,"Duration":89445,"SoundDuration":89445,"Delta":12919708},{"NoteNumber":70,"Velocity":71,"Duration":89445,"SoundDuration":89445,"Delta":13009154},{"NoteNumber":58,"Velocity":53,"Duration":89445,"SoundDuration":89445,"Delta":13009154},{"NoteNumber":69,"Velocity":65,"Duration":89445,"SoundDuration":89445,"Delta":13098599},{"NoteNumber":57,"Velocity":46,"Duration":89445,"SoundDuration":89445,"Delta":13098599},{"NoteNumber":70,"Velocity":71,"Duration":89445,"SoundDuration":89445,"Delta":13188045},{"NoteNumber":58,"Velocity":53,"Duration":89445,"SoundDuration":89445,"Delta":13188045},{"NoteNumber":67,"Velocity":65,"Duration":89445,"SoundDuration":89445,"Delta":13277490},{"NoteNumber":55,"Velocity":46,"Duration":89445,"SoundDuration":89445,"Delta":13277490},{"NoteNumber":65,"Velocity":79,"Duration":108538,"SoundDuration":108538,"Delta":13366936},{"NoteNumber":53,"Velocity":60,"Duration":108538,"SoundDuration":108538,"Delta":13366936},{"NoteNumber":79,"Velocity":78,"Duration":89445,"SoundDuration":89445,"Delta":13579496},{"NoteNumber":77,"Velocity":74,"Duration":89445,"SoundDuration":89445,"Delta":13668942},{"NoteNumber":75,"Velocity":81,"Duration":89445,"SoundDuration":89445,"Delta":13758387},{"NoteNumber":63,"Velocity":60,"Duration":89445,"SoundDuration":89445,"Delta":13758387},{"NoteNumber":74,"Velocity":74,"Duration":89445,"SoundDuration":89445,"Delta":13847833},{"NoteNumber":62,"Velocity":52,"Duration":89445,"SoundDuration":89445,"Delta":13847833},{"NoteNumber":75,"Velocity":81,"Duration":89445,"SoundDuration":89445,"Delta":13937278},{"NoteNumber":63,"Velocity":60,"Duration":89445,"SoundDuration":89445,"Delta":13937278},{"NoteNumber":72,"Velocity":74,"Duration":89445,"SoundDuration":89445,"Delta":14026724},{"NoteNumber":60,"Velocity":52,"Duration":89445,"SoundDuration":89445,"Delta":14026724},{"NoteNumber":70,"Velocity":90,"Duration":108538,"SoundDuration":108538,"Delta":14116169},{"NoteNumber":58,"Velocity":69,"Duration":108538,"SoundDuration":108538,"Delta":14116169},{"NoteNumber":72,"Velocity":68,"Duration":92764,"SoundDuration":92764,"Delta":14333246},{"NoteNumber":60,"Velocity":53,"Duration":92764,"SoundDuration":92764,"Delta":14333246},{"NoteNumber":74,"Velocity":68,"Duration":92764,"SoundDuration":92764,"Delta":14426010},{"NoteNumber":62,"Velocity":48,"Duration":92764,"SoundDuration":92764,"Delta":14426010},{"NoteNumber":75,"Velocity":77,"Duration":92764,"SoundDuration":92764,"Delta":14518775},{"NoteNumber":63,"Velocity":54,"Duration":92764,"SoundDuration":92764,"Delta":14518775},{"NoteNumber":77,"Velocity":70,"Duration":92764,"SoundDuration":92764,"Delta":14611539},{"NoteNumber":65,"Velocity":48,"Duration":92764,"SoundDuration":92764,"Delta":14611539},{"NoteNumber":79,"Velocity":70,"Duration":92764,"SoundDuration":92764,"Delta":14704304},{"NoteNumber":67,"Velocity":48,"Duration":92764,"SoundDuration":92764,"Delta":14704304},{"NoteNumber":81,"Velocity":71,"Duration":92807,"SoundDuration":92807,"Delta":14797068},{"NoteNumber":69,"Velocity":49,"Duration":92807,"SoundDuration":92807,"Delta":14797068},{"NoteNumber":82,"Velocity":73,"Duration":23335,"SoundDuration":23335,"Delta":14889876},{"NoteNumber":70,"Velocity":56,"Duration":93136,"SoundDuration":93136,"Delta":14889876},{"NoteNumber":84,"Velocity":65,"Duration":23308,"SoundDuration":23308,"Delta":14913211},{"NoteNumber":82,"Velocity":81,"Duration":46492,"SoundDuration":46492,"Delta":14936520},{"NoteNumber":81,"Velocity":72,"Duration":92540,"SoundDuration":92540,"Delta":14983013},{"NoteNumber":69,"Velocity":50,"Duration":92540,"SoundDuration":92540,"Delta":14983013},{"NoteNumber":82,"Velocity":73,"Duration":91860,"SoundDuration":91860,"Delta":15075553},{"NoteNumber":70,"Velocity":50,"Duration":91860,"SoundDuration":91860,"Delta":15075553},{"NoteNumber":84,"Velocity":74,"Duration":91170,"SoundDuration":91170,"Delta":15167414},{"NoteNumber":72,"Velocity":51,"Duration":91170,"SoundDuration":91170,"Delta":15167414},{"NoteNumber":86,"Velocity":74,"Duration":22791,"SoundDuration":22791,"Delta":15258584},{"NoteNumber":74,"Velocity":58,"Duration":91926,"SoundDuration":91926,"Delta":15258584},{"NoteNumber":87,"Velocity":66,"Duration":22977,"SoundDuration":22977,"Delta":15281376},{"NoteNumber":86,"Velocity":83,"Duration":92646,"SoundDuration":92646,"Delta":15304354},{"NoteNumber":84,"Velocity":75,"Duration":93297,"SoundDuration":93297,"Delta":15350511},{"NoteNumber":72,"Velocity":52,"Duration":93297,"SoundDuration":93297,"Delta":15350511},{"NoteNumber":86,"Velocity":76,"Duration":94678,"SoundDuration":94678,"Delta":15443808},{"NoteNumber":74,"Velocity":52,"Duration":94678,"SoundDuration":94678,"Delta":15443808},{"NoteNumber":88,"Velocity":76,"Duration":108538,"SoundDuration":108538,"Delta":15538487},{"NoteNumber":76,"Velocity":53,"Duration":108538,"SoundDuration":108538,"Delta":15538487},{"NoteNumber":89,"Velocity":92,"Duration":99206,"SoundDuration":99206,"Delta":15647025},{"NoteNumber":77,"Velocity":73,"Duration":99206,"SoundDuration":99206,"Delta":15647025},{"NoteNumber":65,"Velocity":79,"Duration":99206,"SoundDuration":99206,"Delta":16043850},{"NoteNumber":53,"Velocity":60,"Duration":99206,"SoundDuration":99206,"Delta":16043850},{"NoteNumber":46,"Velocity":65,"Duration":90252,"SoundDuration":90252,"Delta":16837500},{"NoteNumber":45,"Velocity":57,"Duration":90252,"SoundDuration":90252,"Delta":16927753},{"NoteNumber":46,"Velocity":62,"Duration":90252,"SoundDuration":90252,"Delta":17018006},{"NoteNumber":41,"Velocity":55,"Duration":94816,"SoundDuration":94816,"Delta":17108258},{"NoteNumber":50,"Velocity":65,"Duration":90252,"SoundDuration":90252,"Delta":17203075},{"NoteNumber":49,"Velocity":58,"Duration":90252,"SoundDuration":90252,"Delta":17293328},{"NoteNumber":50,"Velocity":63,"Duration":90252,"SoundDuration":90252,"Delta":17383581},{"NoteNumber":46,"Velocity":57,"Duration":94816,"SoundDuration":94816,"Delta":17473833},{"NoteNumber":53,"Velocity":65,"Duration":90252,"SoundDuration":90252,"Delta":17568650},{"NoteNumber":52,"Velocity":58,"Duration":90252,"SoundDuration":90252,"Delta":17658903},{"NoteNumber":53,"Velocity":63,"Duration":90252,"SoundDuration":90252,"Delta":17749156},{"NoteNumber":50,"Velocity":57,"Duration":94816,"SoundDuration":94816,"Delta":17839408},{"NoteNumber":58,"Velocity":65,"Duration":89981,"SoundDuration":89981,"Delta":17934225},{"NoteNumber":57,"Velocity":58,"Duration":89981,"SoundDuration":89981,"Delta":18024207},{"NoteNumber":58,"Velocity":63,"Duration":89982,"SoundDuration":89982,"Delta":18114189},{"NoteNumber":53,"Velocity":57,"Duration":94816,"SoundDuration":94816,"Delta":18204171},{"NoteNumber":62,"Velocity":63,"Duration":89981,"SoundDuration":89981,"Delta":18298988},{"NoteNumber":61,"Velocity":58,"Duration":89981,"SoundDuration":89981,"Delta":18388970},{"NoteNumber":62,"Velocity":62,"Duration":89982,"SoundDuration":89982,"Delta":18478952},{"NoteNumber":58,"Velocity":57,"Duration":112191,"SoundDuration":112191,"Delta":18568934},{"NoteNumber":65,"Velocity":72,"Duration":646362,"SoundDuration":646362,"Delta":18681125},{"NoteNumber":63,"Velocity":63,"Duration":95117,"SoundDuration":95117,"Delta":19327488},{"NoteNumber":77,"Velocity":75,"Duration":1499304,"SoundDuration":1499304,"Delta":19422605},{"NoteNumber":62,"Velocity":71,"Duration":274892,"SoundDuration":274892,"Delta":19422605},{"NoteNumber":60,"Velocity":63,"Duration":91630,"SoundDuration":91630,"Delta":19697498},{"NoteNumber":58,"Velocity":72,"Duration":274893,"SoundDuration":274893,"Delta":19789129},{"NoteNumber":56,"Velocity":63,"Duration":99206,"SoundDuration":99206,"Delta":20064022},{"NoteNumber":55,"Velocity":72,"Duration":758680,"SoundDuration":758680,"Delta":20163229},{"NoteNumber":71,"Velocity":56,"Duration":392157,"SoundDuration":392157,"Delta":20529753},{"NoteNumber":72,"Velocity":44,"Duration":377358,"SoundDuration":377358,"Delta":20921910},{"NoteNumber":75,"Velocity":53,"Duration":377358,"SoundDuration":377358,"Delta":20921910},{"NoteNumber":56,"Velocity":48,"Duration":377358,"SoundDuration":377358,"Delta":20921910},{"NoteNumber":69,"Velocity":41,"Duration":389105,"SoundDuration":389105,"Delta":21299268},{"NoteNumber":74,"Velocity":49,"Duration":759475,"SoundDuration":759475,"Delta":21299268},{"NoteNumber":54,"Velocity":42,"Duration":389105,"SoundDuration":389105,"Delta":21299268},{"NoteNumber":70,"Velocity":55,"Duration":370370,"SoundDuration":370370,"Delta":21688373},{"NoteNumber":55,"Velocity":51,"Duration":370370,"SoundDuration":370370,"Delta":21688373},{"NoteNumber":67,"Velocity":41,"Duration":370369,"SoundDuration":370369,"Delta":22058743},{"NoteNumber":72,"Velocity":49,"Duration":740739,"SoundDuration":740739,"Delta":22058743},{"NoteNumber":52,"Velocity":44,"Duration":370369,"SoundDuration":370369,"Delta":22058743},{"NoteNumber":69,"Velocity":55,"Duration":370370,"SoundDuration":370370,"Delta":22429113},{"NoteNumber":53,"Velocity":52,"Duration":370370,"SoundDuration":370370,"Delta":22429113},{"NoteNumber":65,"Velocity":42,"Duration":388349,"SoundDuration":388349,"Delta":22799483},{"NoteNumber":71,"Velocity":50,"Duration":388349,"SoundDuration":388349,"Delta":22799483},{"NoteNumber":50,"Velocity":34,"Duration":388349,"SoundDuration":388349,"Delta":22799483},{"NoteNumber":72,"Velocity":68,"Duration":89981,"SoundDuration":89981,"Delta":23187833},{"NoteNumber":36,"Velocity":51,"Duration":179963,"SoundDuration":179963,"Delta":23187833},{"NoteNumber":48,"Velocity":51,"Duration":179963,"SoundDuration":179963,"Delta":23187833},{"NoteNumber":64,"Velocity":34,"Duration":89981,"SoundDuration":89981,"Delta":23277815},{"NoteNumber":67,"Velocity":40,"Duration":89981,"SoundDuration":89981,"Delta":23277815},{"NoteNumber":72,"Velocity":62,"Duration":89982,"SoundDuration":89982,"Delta":23367797},{"NoteNumber":60,"Velocity":42,"Duration":102729,"SoundDuration":102729,"Delta":23367797},{"NoteNumber":64,"Velocity":33,"Duration":89981,"SoundDuration":89981,"Delta":23457779},{"NoteNumber":67,"Velocity":39,"Duration":89981,"SoundDuration":89981,"Delta":23457779},{"NoteNumber":72,"Velocity":64,"Duration":89981,"SoundDuration":89981,"Delta":23547761},{"NoteNumber":60,"Velocity":42,"Duration":102729,"SoundDuration":102729,"Delta":23547761},{"NoteNumber":64,"Velocity":34,"Duration":89981,"SoundDuration":89981,"Delta":23637743},{"NoteNumber":67,"Velocity":41,"Duration":89981,"SoundDuration":89981,"Delta":23637743},{"NoteNumber":74,"Velocity":68,"Duration":89982,"SoundDuration":89982,"Delta":23727725},{"NoteNumber":60,"Velocity":42,"Duration":103329,"SoundDuration":103329,"Delta":23727725},{"NoteNumber":64,"Velocity":34,"Duration":94221,"SoundDuration":94221,"Delta":23817707},{"NoteNumber":67,"Velocity":40,"Duration":94221,"SoundDuration":94221,"Delta":23817707},{"NoteNumber":76,"Velocity":62,"Duration":89712,"SoundDuration":89712,"Delta":23911928},{"NoteNumber":60,"Velocity":51,"Duration":102422,"SoundDuration":102422,"Delta":23911928},{"NoteNumber":67,"Velocity":38,"Duration":89712,"SoundDuration":89712,"Delta":24001641},{"NoteNumber":70,"Velocity":45,"Duration":89712,"SoundDuration":89712,"Delta":24001641},{"NoteNumber":72,"Velocity":68,"Duration":89712,"SoundDuration":89712,"Delta":24091354},{"NoteNumber":60,"Velocity":43,"Duration":102422,"SoundDuration":102422,"Delta":24091354},{"NoteNumber":67,"Velocity":38,"Duration":89712,"SoundDuration":89712,"Delta":24181067},{"NoteNumber":70,"Velocity":45,"Duration":89712,"SoundDuration":89712,"Delta":24181067},{"NoteNumber":74,"Velocity":68,"Duration":89712,"SoundDuration":89712,"Delta":24270780},{"NoteNumber":60,"Velocity":43,"Duration":102422,"SoundDuration":102422,"Delta":24270780},{"NoteNumber":67,"Velocity":38,"Duration":89712,"SoundDuration":89712,"Delta":24360493},{"NoteNumber":70,"Velocity":45,"Duration":89712,"SoundDuration":89712,"Delta":24360493},{"NoteNumber":76,"Velocity":70,"Duration":89713,"SoundDuration":89713,"Delta":24450206},{"NoteNumber":60,"Velocity":43,"Duration":103019,"SoundDuration":103019,"Delta":24450206},{"NoteNumber":67,"Velocity":38,"Duration":93925,"SoundDuration":93925,"Delta":24539919},{"NoteNumber":70,"Velocity":45,"Duration":93925,"SoundDuration":93925,"Delta":24539919},{"NoteNumber":77,"Velocity":68,"Duration":89981,"SoundDuration":89981,"Delta":24633845},{"NoteNumber":60,"Velocity":51,"Duration":102729,"SoundDuration":102729,"Delta":24633845},{"NoteNumber":65,"Velocity":34,"Duration":89981,"SoundDuration":89981,"Delta":24723827},{"NoteNumber":69,"Velocity":40,"Duration":89981,"SoundDuration":89981,"Delta":24723827},{"NoteNumber":77,"Velocity":62,"Duration":89982,"SoundDuration":89982,"Delta":24813809},{"NoteNumber":60,"Velocity":42,"Duration":102729,"SoundDuration":102729,"Delta":24813809},{"NoteNumber":65,"Velocity":33,"Duration":89981,"SoundDuration":89981,"Delta":24903791},{"NoteNumber":69,"Velocity":39,"Duration":89981,"SoundDuration":89981,"Delta":24903791},{"NoteNumber":77,"Velocity":64,"Duration":89981,"SoundDuration":89981,"Delta":24993773},{"NoteNumber":60,"Velocity":42,"Duration":102729,"SoundDuration":102729,"Delta":24993773},{"NoteNumber":65,"Velocity":34,"Duration":89981,"SoundDuration":89981,"Delta":25083755},{"NoteNumber":69,"Velocity":41,"Duration":89981,"SoundDuration":89981,"Delta":25083755},{"NoteNumber":76,"Velocity":68,"Duration":89982,"SoundDuration":89982,"Delta":25173737},{"NoteNumber":60,"Velocity":42,"Duration":103329,"SoundDuration":103329,"Delta":25173737},{"NoteNumber":65,"Velocity":34,"Duration":94221,"SoundDuration":94221,"Delta":25263719},{"NoteNumber":69,"Velocity":40,"Duration":94221,"SoundDuration":94221,"Delta":25263719},{"NoteNumber":74,"Velocity":62,"Duration":89712,"SoundDuration":89712,"Delta":25357940},{"NoteNumber":60,"Velocity":51,"Duration":102422,"SoundDuration":102422,"Delta":25357940},{"NoteNumber":65,"Velocity":38,"Duration":89712,"SoundDuration":89712,"Delta":25447653},{"NoteNumber":68,"Velocity":45,"Duration":89712,"SoundDuration":89712,"Delta":25447653},{"NoteNumber":72,"Velocity":68,"Duration":89712,"SoundDuration":89712,"Delta":25537366},{"NoteNumber":60,"Velocity":43,"Duration":102422,"SoundDuration":102422,"Delta":25537366},{"NoteNumber":65,"Velocity":38,"Duration":89712,"SoundDuration":89712,"Delta":25627079},{"NoteNumber":68,"Velocity":45,"Duration":89712,"SoundDuration":89712,"Delta":25627079},{"NoteNumber":71,"Velocity":68,"Duration":89712,"SoundDuration":89712,"Delta":25716792},{"NoteNumber":60,"Velocity":43,"Duration":102422,"SoundDuration":102422,"Delta":25716792},{"NoteNumber":65,"Velocity":38,"Duration":89712,"SoundDuration":89712,"Delta":25806505},{"NoteNumber":68,"Velocity":45,"Duration":89712,"SoundDuration":89712,"Delta":25806505},{"NoteNumber":74,"Velocity":70,"Duration":89713,"SoundDuration":89713,"Delta":25896218},{"NoteNumber":60,"Velocity":43,"Duration":108498,"SoundDuration":108498,"Delta":25896218},{"NoteNumber":65,"Velocity":38,"Duration":93925,"SoundDuration":93925,"Delta":25985931},{"NoteNumber":68,"Velocity":45,"Duration":93925,"SoundDuration":93925,"Delta":25985931},{"NoteNumber":72,"Velocity":68,"Duration":89981,"SoundDuration":89981,"Delta":26079857},{"NoteNumber":36,"Velocity":51,"Duration":179963,"SoundDuration":179963,"Delta":26079857},{"NoteNumber":48,"Velocity":51,"Duration":179963,"SoundDuration":179963,"Delta":26079857},{"NoteNumber":64,"Velocity":34,"Duration":89981,"SoundDuration":89981,"Delta":26169839},{"NoteNumber":67,"Velocity":40,"Duration":89981,"SoundDuration":89981,"Delta":26169839},{"NoteNumber":71,"Velocity":62,"Duration":89982,"SoundDuration":89982,"Delta":26259821},{"NoteNumber":60,"Velocity":42,"Duration":102729,"SoundDuration":102729,"Delta":26259821},{"NoteNumber":64,"Velocity":33,"Duration":89981,"SoundDuration":89981,"Delta":26349803},{"NoteNumber":67,"Velocity":39,"Duration":89981,"SoundDuration":89981,"Delta":26349803},{"NoteNumber":72,"Velocity":64,"Duration":89981,"SoundDuration":89981,"Delta":26439785},{"NoteNumber":60,"Velocity":42,"Duration":102729,"SoundDuration":102729,"Delta":26439785},{"NoteNumber":64,"Velocity":34,"Duration":89981,"SoundDuration":89981,"Delta":26529767},{"NoteNumber":67,"Velocity":41,"Duration":89981,"SoundDuration":89981,"Delta":26529767},{"NoteNumber":74,"Velocity":68,"Duration":89982,"SoundDuration":89982,"Delta":26619749},{"NoteNumber":60,"Velocity":42,"Duration":103329,"SoundDuration":103329,"Delta":26619749},{"NoteNumber":64,"Velocity":34,"Duration":94221,"SoundDuration":94221,"Delta":26709731},{"NoteNumber":67,"Velocity":40,"Duration":94221,"SoundDuration":94221,"Delta":26709731},{"NoteNumber":76,"Velocity":62,"Duration":89712,"SoundDuration":89712,"Delta":26803952},{"NoteNumber":60,"Velocity":51,"Duration":102422,"SoundDuration":102422,"Delta":26803952},{"NoteNumber":67,"Velocity":38,"Duration":89712,"SoundDuration":89712,"Delta":26893665},{"NoteNumber":70,"Velocity":45,"Duration":89712,"SoundDuration":89712,"Delta":26893665},{"NoteNumber":72,"Velocity":68,"Duration":89712,"SoundDuration":89712,"Delta":26983378},{"NoteNumber":60,"Velocity":43,"Duration":102422,"SoundDuration":102422,"Delta":26983378},{"NoteNumber":67,"Velocity":38,"Duration":89712,"SoundDuration":89712,"Delta":27073091},{"NoteNumber":70,"Velocity":45,"Duration":89712,"SoundDuration":89712,"Delta":27073091},{"NoteNumber":74,"Velocity":68,"Duration":89712,"SoundDuration":89712,"Delta":27162804},{"NoteNumber":60,"Velocity":43,"Duration":102422,"SoundDuration":102422,"Delta":27162804},{"NoteNumber":67,"Velocity":38,"Duration":89712,"SoundDuration":89712,"Delta":27252517},{"NoteNumber":70,"Velocity":45,"Duration":89712,"SoundDuration":89712,"Delta":27252517},{"NoteNumber":76,"Velocity":70,"Duration":89713,"SoundDuration":89713,"Delta":27342230},{"NoteNumber":60,"Velocity":43,"Duration":103019,"SoundDuration":103019,"Delta":27342230},{"NoteNumber":67,"Velocity":38,"Duration":93925,"SoundDuration":93925,"Delta":27431943},{"NoteNumber":70,"Velocity":45,"Duration":93925,"SoundDuration":93925,"Delta":27431943},{"NoteNumber":77,"Velocity":68,"Duration":89981,"SoundDuration":89981,"Delta":27525869},{"NoteNumber":60,"Velocity":51,"Duration":102729,"SoundDuration":102729,"Delta":27525869},{"NoteNumber":65,"Velocity":34,"Duration":89981,"SoundDuration":89981,"Delta":27615851},{"NoteNumber":69,"Velocity":40,"Duration":89981,"SoundDuration":89981,"Delta":27615851},{"NoteNumber":77,"Velocity":62,"Duration":89982,"SoundDuration":89982,"Delta":27705833},{"NoteNumber":60,"Velocity":42,"Duration":102729,"SoundDuration":102729,"Delta":27705833},{"NoteNumber":65,"Velocity":33,"Duration":89981,"SoundDuration":89981,"Delta":27795815},{"NoteNumber":69,"Velocity":39,"Duration":89981,"SoundDuration":89981,"Delta":27795815},{"NoteNumber":77,"Velocity":64,"Duration":89981,"SoundDuration":89981,"Delta":27885797},{"NoteNumber":60,"Velocity":42,"Duration":102729,"SoundDuration":102729,"Delta":27885797},{"NoteNumber":65,"Velocity":34,"Duration":89981,"SoundDuration":89981,"Delta":27975779},{"NoteNumber":69,"Velocity":41,"Duration":89981,"SoundDuration":89981,"Delta":27975779},{"NoteNumber":76,"Velocity":68,"Duration":89982,"SoundDuration":89982,"Delta":28065761},{"NoteNumber":60,"Velocity":42,"Duration":103329,"SoundDuration":103329,"Delta":28065761},{"NoteNumber":65,"Velocity":34,"Duration":94221,"SoundDuration":94221,"Delta":28155743},{"NoteNumber":69,"Velocity":40,"Duration":94221,"SoundDuration":94221,"Delta":28155743},{"NoteNumber":74,"Velocity":62,"Duration":89712,"SoundDuration":89712,"Delta":28249964},{"NoteNumber":60,"Velocity":51,"Duration":102422,"SoundDuration":102422,"Delta":28249964},{"NoteNumber":65,"Velocity":38,"Duration":89712,"SoundDuration":89712,"Delta":28339677},{"NoteNumber":68,"Velocity":45,"Duration":89712,"SoundDuration":89712,"Delta":28339677},{"NoteNumber":72,"Velocity":68,"Duration":89712,"SoundDuration":89712,"Delta":28429390},{"NoteNumber":60,"Velocity":43,"Duration":102422,"SoundDuration":102422,"Delta":28429390},{"NoteNumber":65,"Velocity":38,"Duration":89712,"SoundDuration":89712,"Delta":28519103},{"NoteNumber":68,"Velocity":45,"Duration":89712,"SoundDuration":89712,"Delta":28519103},{"NoteNumber":71,"Velocity":68,"Duration":89712,"SoundDuration":89712,"Delta":28608816},{"NoteNumber":60,"Velocity":43,"Duration":102422,"SoundDuration":102422,"Delta":28608816},{"NoteNumber":65,"Velocity":38,"Duration":89712,"SoundDuration":89712,"Delta":28698529},{"NoteNumber":68,"Velocity":45,"Duration":89712,"SoundDuration":89712,"Delta":28698529},{"NoteNumber":74,"Velocity":70,"Duration":89713,"SoundDuration":89713,"Delta":28788242},{"NoteNumber":60,"Velocity":43,"Duration":108498,"SoundDuration":108498,"Delta":28788242},{"NoteNumber":65,"Velocity":38,"Duration":93925,"SoundDuration":93925,"Delta":28877955},{"NoteNumber":68,"Velocity":45,"Duration":93925,"SoundDuration":93925,"Delta":28877955},{"NoteNumber":72,"Velocity":78,"Duration":89712,"SoundDuration":89712,"Delta":28971881},{"NoteNumber":48,"Velocity":51,"Duration":170454,"SoundDuration":170454,"Delta":28971881},{"NoteNumber":64,"Velocity":38,"Duration":89712,"SoundDuration":89712,"Delta":29061594},{"NoteNumber":67,"Velocity":45,"Duration":89712,"SoundDuration":89712,"Delta":29061594},{"NoteNumber":72,"Velocity":68,"Duration":89712,"SoundDuration":89712,"Delta":29151307},{"NoteNumber":60,"Velocity":43,"Duration":102422,"SoundDuration":102422,"Delta":29151307},{"NoteNumber":64,"Velocity":38,"Duration":89712,"SoundDuration":89712,"Delta":29241020},{"NoteNumber":67,"Velocity":45,"Duration":89712,"SoundDuration":89712,"Delta":29241020},{"NoteNumber":71,"Velocity":68,"Duration":89712,"SoundDuration":89712,"Delta":29330733},{"NoteNumber":60,"Velocity":43,"Duration":102422,"SoundDuration":102422,"Delta":29330733},{"NoteNumber":65,"Velocity":38,"Duration":89713,"SoundDuration":89713,"Delta":29420446},{"NoteNumber":68,"Velocity":45,"Duration":89713,"SoundDuration":89713,"Delta":29420446},{"NoteNumber":74,"Velocity":70,"Duration":89712,"SoundDuration":89712,"Delta":29510159},{"NoteNumber":60,"Velocity":43,"Duration":108498,"SoundDuration":108498,"Delta":29510159},{"NoteNumber":65,"Velocity":38,"Duration":93925,"SoundDuration":93925,"Delta":29599872},{"NoteNumber":68,"Velocity":45,"Duration":93925,"SoundDuration":93925,"Delta":29599872},{"NoteNumber":72,"Velocity":76,"Duration":89712,"SoundDuration":89712,"Delta":29693798},{"NoteNumber":48,"Velocity":51,"Duration":170454,"SoundDuration":170454,"Delta":29693798},{"NoteNumber":64,"Velocity":38,"Duration":89712,"SoundDuration":89712,"Delta":29783511},{"NoteNumber":67,"Velocity":45,"Duration":89712,"SoundDuration":89712,"Delta":29783511},{"NoteNumber":72,"Velocity":68,"Duration":89712,"SoundDuration":89712,"Delta":29873224},{"NoteNumber":60,"Velocity":43,"Duration":102422,"SoundDuration":102422,"Delta":29873224},{"NoteNumber":64,"Velocity":38,"Duration":89712,"SoundDuration":89712,"Delta":29962937},{"NoteNumber":67,"Velocity":45,"Duration":89712,"SoundDuration":89712,"Delta":29962937},{"NoteNumber":71,"Velocity":68,"Duration":89712,"SoundDuration":89712,"Delta":30052650},{"NoteNumber":60,"Velocity":43,"Duration":102422,"SoundDuration":102422,"Delta":30052650},{"NoteNumber":65,"Velocity":38,"Duration":89712,"SoundDuration":89712,"Delta":30142363},{"NoteNumber":68,"Velocity":45,"Duration":89712,"SoundDuration":89712,"Delta":30142363},{"NoteNumber":74,"Velocity":70,"Duration":89713,"SoundDuration":89713,"Delta":30232076},{"NoteNumber":60,"Velocity":43,"Duration":110232,"SoundDuration":110232,"Delta":30232076},{"NoteNumber":65,"Velocity":38,"Duration":102599,"SoundDuration":102599,"Delta":30321789},{"NoteNumber":68,"Velocity":45,"Duration":102599,"SoundDuration":102599,"Delta":30321789},{"NoteNumber":64,"Velocity":59,"Duration":93925,"SoundDuration":93925,"Delta":30424388},{"NoteNumber":67,"Velocity":59,"Duration":93925,"SoundDuration":93925,"Delta":30424388},{"NoteNumber":72,"Velocity":70,"Duration":93925,"SoundDuration":93925,"Delta":30424388},{"NoteNumber":48,"Velocity":51,"Duration":370329,"SoundDuration":370329,"Delta":30424388},{"NoteNumber":60,"Velocity":35,"Duration":102978,"SoundDuration":102978,"Delta":30518314},{"NoteNumber":62,"Velocity":40,"Duration":100383,"SoundDuration":100383,"Delta":30612240},{"NoteNumber":64,"Velocity":35,"Duration":100359,"SoundDuration":100359,"Delta":30703476},{"NoteNumber":65,"Velocity":40,"Duration":100009,"SoundDuration":100009,"Delta":30794718},{"NoteNumber":67,"Velocity":35,"Duration":99650,"SoundDuration":99650,"Delta":30885664},{"NoteNumber":69,"Velocity":40,"Duration":99194,"SoundDuration":99194,"Delta":30976278},{"NoteNumber":71,"Velocity":33,"Duration":98829,"SoundDuration":98829,"Delta":31066490},{"NoteNumber":72,"Velocity":40,"Duration":99099,"SoundDuration":99099,"Delta":31156310},{"NoteNumber":71,"Velocity":33,"Duration":99320,"SoundDuration":99320,"Delta":31246400},{"NoteNumber":72,"Velocity":40,"Duration":99397,"SoundDuration":99397,"Delta":31336685},{"NoteNumber":71,"Velocity":33,"Duration":99397,"SoundDuration":99397,"Delta":31427047},{"NoteNumber":72,"Velocity":40,"Duration":99397,"SoundDuration":99397,"Delta":31517408},{"NoteNumber":71,"Velocity":34,"Duration":99397,"SoundDuration":99397,"Delta":31607770},{"NoteNumber":72,"Velocity":40,"Duration":100887,"SoundDuration":100887,"Delta":31698131},{"NoteNumber":71,"Velocity":33,"Duration":105263,"SoundDuration":105263,"Delta":31788493},{"NoteNumber":69,"Velocity":38,"Duration":741244,"SoundDuration":741244,"Delta":31893756},{"NoteNumber":72,"Velocity":43,"Duration":741244,"SoundDuration":741244,"Delta":31893756},{"NoteNumber":53,"Velocity":31,"Duration":100733,"SoundDuration":100733,"Delta":31985724},{"NoteNumber":55,"Velocity":36,"Duration":100311,"SoundDuration":100311,"Delta":32077311},{"NoteNumber":57,"Velocity":31,"Duration":99885,"SoundDuration":99885,"Delta":32168531},{"NoteNumber":58,"Velocity":36,"Duration":99486,"SoundDuration":99486,"Delta":32259353},{"NoteNumber":60,"Velocity":31,"Duration":99043,"SoundDuration":99043,"Delta":32349804},{"NoteNumber":62,"Velocity":36,"Duration":100260,"SoundDuration":100260,"Delta":32439865},{"NoteNumber":64,"Velocity":29,"Duration":114485,"SoundDuration":114485,"Delta":32529524},{"NoteNumber":69,"Velocity":49,"Duration":358257,"SoundDuration":358257,"Delta":32635001},{"NoteNumber":65,"Velocity":36,"Duration":98287,"SoundDuration":98287,"Delta":32635001},{"NoteNumber":64,"Velocity":29,"Duration":98717,"SoundDuration":98717,"Delta":32724386},{"NoteNumber":65,"Velocity":36,"Duration":98628,"SoundDuration":98628,"Delta":32814228},{"NoteNumber":64,"Velocity":29,"Duration":98402,"SoundDuration":98402,"Delta":32903793},{"NoteNumber":77,"Velocity":47,"Duration":359085,"SoundDuration":359085,"Delta":32993258},{"NoteNumber":65,"Velocity":36,"Duration":99620,"SoundDuration":99620,"Delta":32993258},{"NoteNumber":64,"Velocity":27,"Duration":98606,"SoundDuration":98606,"Delta":33083769},{"NoteNumber":65,"Velocity":34,"Duration":97636,"SoundDuration":97636,"Delta":33173535},{"NoteNumber":64,"Velocity":26,"Duration":90100,"SoundDuration":90100,"Delta":33262243},{"NoteNumber":69,"Velocity":41,"Duration":359269,"SoundDuration":359269,"Delta":33352344},{"NoteNumber":72,"Velocity":49,"Duration":359269,"SoundDuration":359269,"Delta":33352344},{"NoteNumber":65,"Velocity":30,"Duration":98898,"SoundDuration":98898,"Delta":33352344},{"NoteNumber":64,"Velocity":25,"Duration":98968,"SoundDuration":98968,"Delta":33442375},{"NoteNumber":65,"Velocity":30,"Duration":97581,"SoundDuration":97581,"Delta":33532494},{"NoteNumber":64,"Velocity":25,"Duration":99621,"SoundDuration":99621,"Delta":33621138},{"NoteNumber":81,"Velocity":43,"Duration":373095,"SoundDuration":373095,"Delta":33711613},{"NoteNumber":77,"Velocity":36,"Duration":373095,"SoundDuration":373095,"Delta":33711613},{"NoteNumber":65,"Velocity":30,"Duration":99657,"SoundDuration":99657,"Delta":33711613},{"NoteNumber":64,"Velocity":25,"Duration":99662,"SoundDuration":99662,"Delta":33802252},{"NoteNumber":65,"Velocity":30,"Duration":100304,"SoundDuration":100304,"Delta":33892878},{"NoteNumber":64,"Velocity":25,"Duration":110686,"SoundDuration":110686,"Delta":33983013},{"NoteNumber":69,"Velocity":42,"Duration":357936,"SoundDuration":357936,"Delta":34084708},{"NoteNumber":72,"Velocity":50,"Duration":357936,"SoundDuration":357936,"Delta":34084708},{"NoteNumber":65,"Velocity":30,"Duration":97559,"SoundDuration":97559,"Delta":34084708},{"NoteNumber":64,"Velocity":25,"Duration":99637,"SoundDuration":99637,"Delta":34173313},{"NoteNumber":65,"Velocity":30,"Duration":97698,"SoundDuration":97698,"Delta":34263922},{"NoteNumber":64,"Velocity":25,"Duration":98819,"SoundDuration":98819,"Delta":34352745},{"NoteNumber":84,"Velocity":43,"Duration":370399,"SoundDuration":370399,"Delta":34442645},{"NoteNumber":81,"Velocity":36,"Duration":370399,"SoundDuration":370399,"Delta":34442645},{"NoteNumber":65,"Velocity":30,"Duration":98257,"SoundDuration":98257,"Delta":34442645},{"NoteNumber":64,"Velocity":25,"Duration":98930,"SoundDuration":98930,"Delta":34531866},{"NoteNumber":65,"Velocity":30,"Duration":99650,"SoundDuration":99650,"Delta":34621868},{"NoteNumber":64,"Velocity":25,"Duration":101694,"SoundDuration":101694,"Delta":34711350},{"NoteNumber":69,"Velocity":38,"Duration":741244,"SoundDuration":741244,"Delta":34813045},{"NoteNumber":72,"Velocity":43,"Duration":741244,"SoundDuration":741244,"Delta":34813045},{"NoteNumber":65,"Velocity":30,"Duration":91968,"SoundDuration":91968,"Delta":34813045},{"NoteNumber":53,"Velocity":31,"Duration":100733,"SoundDuration":100733,"Delta":34905013},{"NoteNumber":55,"Velocity":36,"Duration":100311,"SoundDuration":100311,"Delta":34996600},{"NoteNumber":57,"Velocity":31,"Duration":99885,"SoundDuration":99885,"Delta":35087820},{"NoteNumber":58,"Velocity":36,"Duration":99486,"SoundDuration":99486,"Delta":35178642},{"NoteNumber":60,"Velocity":31,"Duration":99043,"SoundDuration":99043,"Delta":35269092},{"NoteNumber":62,"Velocity":36,"Duration":100260,"SoundDuration":100260,"Delta":35359153},{"NoteNumber":64,"Velocity":29,"Duration":114485,"SoundDuration":114485,"Delta":35448813},{"NoteNumber":69,"Velocity":49,"Duration":358257,"SoundDuration":358257,"Delta":35554289},{"NoteNumber":65,"Velocity":36,"Duration":98287,"SoundDuration":98287,"Delta":35554289},{"NoteNumber":64,"Velocity":29,"Duration":98717,"SoundDuration":98717,"Delta":35643674},{"NoteNumber":65,"Velocity":36,"Duration":98628,"SoundDuration":98628,"Delta":35733517},{"NoteNumber":64,"Velocity":29,"Duration":98402,"SoundDuration":98402,"Delta":35823082},{"NoteNumber":77,"Velocity":46,"Duration":359085,"SoundDuration":359085,"Delta":35912547},{"NoteNumber":65,"Velocity":36,"Duration":99620,"SoundDuration":99620,"Delta":35912547},{"NoteNumber":64,"Velocity":27,"Duration":98606,"SoundDuration":98606,"Delta":36003058},{"NoteNumber":65,"Velocity":34,"Duration":97636,"SoundDuration":97636,"Delta":36092824},{"NoteNumber":64,"Velocity":26,"Duration":90100,"SoundDuration":90100,"Delta":36181532},{"NoteNumber":69,"Velocity":41,"Duration":359269,"SoundDuration":359269,"Delta":36271632},{"NoteNumber":72,"Velocity":49,"Duration":359269,"SoundDuration":359269,"Delta":36271632},{"NoteNumber":65,"Velocity":30,"Duration":98898,"SoundDuration":98898,"Delta":36271632},{"NoteNumber":64,"Velocity":25,"Duration":98968,"SoundDuration":98968,"Delta":36361664},{"NoteNumber":65,"Velocity":30,"Duration":97581,"SoundDuration":97581,"Delta":36451783},{"NoteNumber":64,"Velocity":25,"Duration":99621,"SoundDuration":99621,"Delta":36540427},{"NoteNumber":81,"Velocity":43,"Duration":373095,"SoundDuration":373095,"Delta":36630902},{"NoteNumber":77,"Velocity":36,"Duration":373095,"SoundDuration":373095,"Delta":36630902},{"NoteNumber":65,"Velocity":30,"Duration":99657,"SoundDuration":99657,"Delta":36630902},{"NoteNumber":64,"Velocity":25,"Duration":99662,"SoundDuration":99662,"Delta":36721541},{"NoteNumber":65,"Velocity":30,"Duration":100304,"SoundDuration":100304,"Delta":36812167},{"NoteNumber":64,"Velocity":25,"Duration":110686,"SoundDuration":110686,"Delta":36902302},{"NoteNumber":69,"Velocity":42,"Duration":357936,"SoundDuration":357936,"Delta":37003997},{"NoteNumber":72,"Velocity":50,"Duration":357936,"SoundDuration":357936,"Delta":37003997},{"NoteNumber":65,"Velocity":30,"Duration":97559,"SoundDuration":97559,"Delta":37003997},{"NoteNumber":64,"Velocity":25,"Duration":99637,"SoundDuration":99637,"Delta":37092601},{"NoteNumber":65,"Velocity":30,"Duration":97698,"SoundDuration":97698,"Delta":37183211},{"NoteNumber":64,"Velocity":25,"Duration":98819,"SoundDuration":98819,"Delta":37272033},{"NoteNumber":84,"Velocity":43,"Duration":370399,"SoundDuration":370399,"Delta":37361934},{"NoteNumber":81,"Velocity":36,"Duration":370399,"SoundDuration":370399,"Delta":37361934},{"NoteNumber":65,"Velocity":30,"Duration":98257,"SoundDuration":98257,"Delta":37361934},{"NoteNumber":63,"Velocity":25,"Duration":98930,"SoundDuration":98930,"Delta":37451155},{"NoteNumber":65,"Velocity":30,"Duration":99650,"SoundDuration":99650,"Delta":37541157},{"NoteNumber":63,"Velocity":25,"Duration":101694,"SoundDuration":101694,"Delta":37630638},{"NoteNumber":69,"Velocity":41,"Duration":728935,"SoundDuration":728935,"Delta":37732333},{"NoteNumber":72,"Velocity":41,"Duration":728935,"SoundDuration":728935,"Delta":37732333},{"NoteNumber":74,"Velocity":49,"Duration":728935,"SoundDuration":728935,"Delta":37732333},{"NoteNumber":78,"Velocity":49,"Duration":728935,"SoundDuration":728935,"Delta":37732333},{"NoteNumber":61,"Velocity":39,"Duration":137195,"SoundDuration":137195,"Delta":37732333},{"NoteNumber":62,"Velocity":34,"Duration":91463,"SoundDuration":91463,"Delta":37823797},{"NoteNumber":61,"Velocity":39,"Duration":136918,"SoundDuration":136918,"Delta":37915260},{"NoteNumber":62,"Velocity":35,"Duration":90909,"SoundDuration":90909,"Delta":38006724},{"NoteNumber":59,"Velocity":41,"Duration":136363,"SoundDuration":136363,"Delta":38097633},{"NoteNumber":60,"Velocity":35,"Duration":90909,"SoundDuration":90909,"Delta":38188542},{"NoteNumber":59,"Velocity":42,"Duration":136363,"SoundDuration":136363,"Delta":38279451},{"NoteNumber":60,"Velocity":36,"Duration":90909,"SoundDuration":90909,"Delta":38370360},{"NoteNumber":56,"Velocity":44,"Duration":135951,"SoundDuration":135951,"Delta":38461269},{"NoteNumber":57,"Velocity":37,"Duration":90634,"SoundDuration":90634,"Delta":38551903},{"NoteNumber":56,"Velocity":45,"Duration":135951,"SoundDuration":135951,"Delta":38642538},{"NoteNumber":57,"Velocity":37,"Duration":90634,"SoundDuration":90634,"Delta":38733172},{"NoteNumber":53,"Velocity":44,"Duration":135951,"SoundDuration":135951,"Delta":38823807},{"NoteNumber":54,"Velocity":38,"Duration":90634,"SoundDuration":90634,"Delta":38914441},{"NoteNumber":53,"Velocity":44,"Duration":135951,"SoundDuration":135951,"Delta":39005076},{"NoteNumber":54,"Velocity":39,"Duration":90634,"SoundDuration":90634,"Delta":39095710},{"NoteNumber":49,"Velocity":45,"Duration":135542,"SoundDuration":135542,"Delta":39186345},{"NoteNumber":50,"Velocity":39,"Duration":90361,"SoundDuration":90361,"Delta":39276706},{"NoteNumber":49,"Velocity":46,"Duration":135542,"SoundDuration":135542,"Delta":39367068},{"NoteNumber":50,"Velocity":40,"Duration":90361,"SoundDuration":90361,"Delta":39457429},{"NoteNumber":78,"Velocity":70,"Duration":357143,"SoundDuration":357143,"Delta":39547791},{"NoteNumber":47,"Velocity":48,"Duration":133928,"SoundDuration":133928,"Delta":39547791},{"NoteNumber":48,"Velocity":41,"Duration":89285,"SoundDuration":89285,"Delta":39637077},{"NoteNumber":47,"Velocity":48,"Duration":133928,"SoundDuration":133928,"Delta":39726362},{"NoteNumber":48,"Velocity":41,"Duration":89285,"SoundDuration":89285,"Delta":39815648},{"NoteNumber":81,"Velocity":68,"Duration":353991,"SoundDuration":353991,"Delta":39904934},{"NoteNumber":44,"Velocity":54,"Duration":133403,"SoundDuration":133403,"Delta":39904934},{"NoteNumber":45,"Velocity":42,"Duration":88235,"SoundDuration":88235,"Delta":39994220},{"NoteNumber":44,"Velocity":52,"Duration":132352,"SoundDuration":132352,"Delta":40082455},{"NoteNumber":45,"Velocity":43,"Duration":88235,"SoundDuration":88235,"Delta":40170690},{"NoteNumber":84,"Velocity":66,"Duration":712191,"SoundDuration":712191,"Delta":40258925},{"NoteNumber":41,"Velocity":55,"Duration":134328,"SoundDuration":134328,"Delta":40258925},{"NoteNumber":42,"Velocity":44,"Duration":89552,"SoundDuration":89552,"Delta":40348478},{"NoteNumber":41,"Velocity":51,"Duration":134328,"SoundDuration":134328,"Delta":40438030},{"NoteNumber":42,"Velocity":44,"Duration":89552,"SoundDuration":89552,"Delta":40527582},{"NoteNumber":78,"Velocity":72,"Duration":717618,"SoundDuration":717618,"Delta":40617134},{"NoteNumber":37,"Velocity":57,"Duration":132743,"SoundDuration":132743,"Delta":40617134},{"NoteNumber":38,"Velocity":44,"Duration":88495,"SoundDuration":88495,"Delta":40705630},{"NoteNumber":37,"Velocity":51,"Duration":132743,"SoundDuration":132743,"Delta":40794125},{"NoteNumber":38,"Velocity":44,"Duration":88495,"SoundDuration":88495,"Delta":40882621},{"NoteNumber":82,"Velocity":73,"Duration":1426835,"SoundDuration":1426835,"Delta":40971116},{"NoteNumber":37,"Velocity":56,"Duration":136363,"SoundDuration":136363,"Delta":40971116},{"NoteNumber":38,"Velocity":50,"Duration":90908,"SoundDuration":90908,"Delta":41062025},{"NoteNumber":37,"Velocity":57,"Duration":136363,"SoundDuration":136363,"Delta":41152934},{"NoteNumber":38,"Velocity":44,"Duration":83333,"SoundDuration":83333,"Delta":41243843},{"NoteNumber":79,"Velocity":75,"Duration":1063199,"SoundDuration":1063199,"Delta":41334752},{"NoteNumber":38,"Velocity":61,"Duration":131578,"SoundDuration":131578,"Delta":41334752},{"NoteNumber":39,"Velocity":52,"Duration":87719,"SoundDuration":87719,"Delta":41422472},{"NoteNumber":38,"Velocity":58,"Duration":131578,"SoundDuration":131578,"Delta":41510191},{"NoteNumber":39,"Velocity":52,"Duration":87719,"SoundDuration":87719,"Delta":41597910},{"NoteNumber":73,"Velocity":66,"Duration":361446,"SoundDuration":361446,"Delta":41685629},{"NoteNumber":39,"Velocity":58,"Duration":135542,"SoundDuration":135542,"Delta":41685629},{"NoteNumber":40,"Velocity":44,"Duration":90361,"SoundDuration":90361,"Delta":41775991},{"NoteNumber":39,"Velocity":54,"Duration":135542,"SoundDuration":135542,"Delta":41866352},{"NoteNumber":40,"Velocity":44,"Duration":90361,"SoundDuration":90361,"Delta":41956714},{"NoteNumber":72,"Velocity":74,"Duration":715618,"SoundDuration":715618,"Delta":42047075},{"NoteNumber":40,"Velocity":56,"Duration":131578,"SoundDuration":131578,"Delta":42047075},{"NoteNumber":41,"Velocity":48,"Duration":87719,"SoundDuration":87719,"Delta":42134795},{"NoteNumber":40,"Velocity":51,"Duration":131578,"SoundDuration":131578,"Delta":42222514},{"NoteNumber":41,"Velocity":44,"Duration":87719,"SoundDuration":87719,"Delta":42310233},{"NoteNumber":81,"Velocity":67,"Duration":364741,"SoundDuration":364741,"Delta":42397952},{"NoteNumber":77,"Velocity":57,"Duration":364741,"SoundDuration":364741,"Delta":42397952},{"NoteNumber":40,"Velocity":51,"Duration":136778,"SoundDuration":136778,"Delta":42397952},{"NoteNumber":41,"Velocity":44,"Duration":91185,"SoundDuration":91185,"Delta":42489138},{"NoteNumber":40,"Velocity":51,"Duration":136778,"SoundDuration":136778,"Delta":42580323},{"NoteNumber":41,"Velocity":44,"Duration":83586,"SoundDuration":83586,"Delta":42671509},{"NoteNumber":70,"Velocity":61,"Duration":356082,"SoundDuration":356082,"Delta":42762694},{"NoteNumber":74,"Velocity":61,"Duration":356082,"SoundDuration":356082,"Delta":42762694},{"NoteNumber":79,"Velocity":72,"Duration":356082,"SoundDuration":356082,"Delta":42762694},{"NoteNumber":33,"Velocity":51,"Duration":133531,"SoundDuration":133531,"Delta":42762694},{"NoteNumber":34,"Velocity":44,"Duration":89020,"SoundDuration":89020,"Delta":42851715},{"NoteNumber":33,"Velocity":51,"Duration":133531,"SoundDuration":133531,"Delta":42940736},{"NoteNumber":34,"Velocity":44,"Duration":81602,"SoundDuration":81602,"Delta":43029757},{"NoteNumber":67,"Velocity":53,"Duration":393581,"SoundDuration":393581,"Delta":43118777},{"NoteNumber":70,"Velocity":53,"Duration":393581,"SoundDuration":393581,"Delta":43118777},{"NoteNumber":76,"Velocity":64,"Duration":393581,"SoundDuration":393581,"Delta":43118777},{"NoteNumber":35,"Velocity":51,"Duration":140186,"SoundDuration":140186,"Delta":43118777},{"NoteNumber":36,"Velocity":44,"Duration":93457,"SoundDuration":93457,"Delta":43212235},{"NoteNumber":35,"Velocity":51,"Duration":150061,"SoundDuration":150061,"Delta":43305693},{"NoteNumber":36,"Velocity":44,"Duration":103773,"SoundDuration":103773,"Delta":43399151},{"NoteNumber":65,"Velocity":64,"Duration":179104,"SoundDuration":179104,"Delta":43512359},{"NoteNumber":69,"Velocity":64,"Duration":179104,"SoundDuration":179104,"Delta":43512359},{"NoteNumber":77,"Velocity":77,"Duration":179104,"SoundDuration":179104,"Delta":43512359},{"NoteNumber":29,"Velocity":48,"Duration":179104,"SoundDuration":179104,"Delta":43512359},{"NoteNumber":65,"Velocity":73,"Duration":725174,"SoundDuration":725174,"Delta":44228777},{"NoteNumber":69,"Velocity":88,"Duration":732866,"SoundDuration":732866,"Delta":44228777},{"NoteNumber":53,"Velocity":54,"Duration":725174,"SoundDuration":725174,"Delta":44228777},{"NoteNumber":57,"Velocity":64,"Duration":732866,"SoundDuration":732866,"Delta":44228777},{"NoteNumber":62,"Velocity":57,"Duration":364907,"SoundDuration":364907,"Delta":44961644},{"NoteNumber":65,"Velocity":68,"Duration":372670,"SoundDuration":372670,"Delta":44961644},{"NoteNumber":50,"Velocity":41,"Duration":364907,"SoundDuration":364907,"Delta":44961644},{"NoteNumber":53,"Velocity":49,"Duration":372670,"SoundDuration":372670,"Delta":44961644},{"NoteNumber":58,"Velocity":59,"Duration":194805,"SoundDuration":194805,"Delta":45334315},{"NoteNumber":62,"Velocity":70,"Duration":194805,"SoundDuration":194805,"Delta":45334315},{"NoteNumber":46,"Velocity":41,"Duration":194805,"SoundDuration":194805,"Delta":45334315},{"NoteNumber":50,"Velocity":49,"Duration":194805,"SoundDuration":194805,"Delta":45334315},{"NoteNumber":67,"Velocity":73,"Duration":547113,"SoundDuration":547113,"Delta":45723925},{"NoteNumber":70,"Velocity":88,"Duration":547113,"SoundDuration":547113,"Delta":45723925},{"NoteNumber":55,"Velocity":54,"Duration":547113,"SoundDuration":547113,"Delta":45723925},{"NoteNumber":58,"Velocity":64,"Duration":547113,"SoundDuration":547113,"Delta":45723925},{"NoteNumber":65,"Velocity":57,"Duration":182370,"SoundDuration":182370,"Delta":46271038},{"NoteNumber":69,"Velocity":68,"Duration":182370,"SoundDuration":182370,"Delta":46271038},{"NoteNumber":53,"Velocity":41,"Duration":182370,"SoundDuration":182370,"Delta":46271038},{"NoteNumber":57,"Velocity":49,"Duration":182370,"SoundDuration":182370,"Delta":46271038},{"NoteNumber":67,"Velocity":77,"Duration":372670,"SoundDuration":372670,"Delta":46453409},{"NoteNumber":64,"Velocity":64,"Duration":364907,"SoundDuration":364907,"Delta":46453409},{"NoteNumber":52,"Velocity":49,"Duration":364907,"SoundDuration":364907,"Delta":46453409},{"NoteNumber":55,"Velocity":58,"Duration":372670,"SoundDuration":372670,"Delta":46453409},{"NoteNumber":60,"Velocity":57,"Duration":186335,"SoundDuration":186335,"Delta":46826080},{"NoteNumber":64,"Velocity":68,"Duration":186335,"SoundDuration":186335,"Delta":46826080},{"NoteNumber":48,"Velocity":44,"Duration":186335,"SoundDuration":186335,"Delta":46826080},{"NoteNumber":52,"Velocity":52,"Duration":186335,"SoundDuration":186335,"Delta":46826080},{"NoteNumber":69,"Velocity":73,"Duration":721864,"SoundDuration":721864,"Delta":47198751},{"NoteNumber":72,"Velocity":88,"Duration":729509,"SoundDuration":729509,"Delta":47198751},{"NoteNumber":57,"Velocity":54,"Duration":721864,"SoundDuration":721864,"Delta":47198751},{"NoteNumber":60,"Velocity":64,"Duration":729509,"SoundDuration":729509,"Delta":47198751},{"NoteNumber":65,"Velocity":57,"Duration":364907,"SoundDuration":364907,"Delta":47928261},{"NoteNumber":69,"Velocity":68,"Duration":372670,"SoundDuration":372670,"Delta":47928261},{"NoteNumber":53,"Velocity":41,"Duration":364907,"SoundDuration":364907,"Delta":47928261},{"NoteNumber":57,"Velocity":49,"Duration":372670,"SoundDuration":372670,"Delta":47928261},{"NoteNumber":62,"Velocity":59,"Duration":194175,"SoundDuration":194175,"Delta":48300932},{"NoteNumber":65,"Velocity":70,"Duration":194175,"SoundDuration":194175,"Delta":48300932},{"NoteNumber":50,"Velocity":41,"Duration":194175,"SoundDuration":194175,"Delta":48300932},{"NoteNumber":53,"Velocity":49,"Duration":194175,"SoundDuration":194175,"Delta":48300932},{"NoteNumber":70,"Velocity":73,"Duration":547113,"SoundDuration":547113,"Delta":48689282},{"NoteNumber":74,"Velocity":88,"Duration":547113,"SoundDuration":547113,"Delta":48689282},{"NoteNumber":58,"Velocity":54,"Duration":547113,"SoundDuration":547113,"Delta":48689282},{"NoteNumber":62,"Velocity":64,"Duration":547113,"SoundDuration":547113,"Delta":48689282},{"NoteNumber":69,"Velocity":57,"Duration":182370,"SoundDuration":182370,"Delta":49236395},{"NoteNumber":72,"Velocity":68,"Duration":182370,"SoundDuration":182370,"Delta":49236395},{"NoteNumber":57,"Velocity":41,"Duration":182370,"SoundDuration":182370,"Delta":49236395},{"NoteNumber":60,"Velocity":49,"Duration":182370,"SoundDuration":182370,"Delta":49236395},{"NoteNumber":70,"Velocity":77,"Duration":372670,"SoundDuration":372670,"Delta":49418766},{"NoteNumber":67,"Velocity":64,"Duration":364907,"SoundDuration":364907,"Delta":49418766},{"NoteNumber":55,"Velocity":49,"Duration":364907,"SoundDuration":364907,"Delta":49418766},{"NoteNumber":58,"Velocity":58,"Duration":372670,"SoundDuration":372670,"Delta":49418766},{"NoteNumber":64,"Velocity":57,"Duration":186335,"SoundDuration":186335,"Delta":49791437},{"NoteNumber":67,"Velocity":68,"Duration":186335,"SoundDuration":186335,"Delta":49791437},{"NoteNumber":52,"Velocity":44,"Duration":186335,"SoundDuration":186335,"Delta":49791437},{"NoteNumber":55,"Velocity":52,"Duration":186335,"SoundDuration":186335,"Delta":49791437},{"NoteNumber":70,"Velocity":73,"Duration":545453,"SoundDuration":545453,"Delta":50164108},{"NoteNumber":79,"Velocity":88,"Duration":545453,"SoundDuration":545453,"Delta":50164108},{"NoteNumber":58,"Velocity":54,"Duration":545453,"SoundDuration":545453,"Delta":50164108},{"NoteNumber":67,"Velocity":64,"Duration":545453,"SoundDuration":545453,"Delta":50164108},{"NoteNumber":69,"Velocity":57,"Duration":188088,"SoundDuration":188088,"Delta":50709562},{"NoteNumber":77,"Velocity":68,"Duration":188088,"SoundDuration":188088,"Delta":50709562},{"NoteNumber":57,"Velocity":41,"Duration":188088,"SoundDuration":188088,"Delta":50709562},{"NoteNumber":65,"Velocity":49,"Duration":188088,"SoundDuration":188088,"Delta":50709562},{"NoteNumber":67,"Velocity":73,"Duration":542169,"SoundDuration":542169,"Delta":50897650},{"NoteNumber":76,"Velocity":88,"Duration":542169,"SoundDuration":542169,"Delta":50897650},{"NoteNumber":55,"Velocity":54,"Duration":542169,"SoundDuration":542169,"Delta":50897650},{"NoteNumber":64,"Velocity":64,"Duration":542169,"SoundDuration":542169,"Delta":50897650},{"NoteNumber":65,"Velocity":57,"Duration":188679,"SoundDuration":188679,"Delta":51439819},{"NoteNumber":74,"Velocity":68,"Duration":188679,"SoundDuration":188679,"Delta":51439819},{"NoteNumber":53,"Velocity":41,"Duration":188679,"SoundDuration":188679,"Delta":51439819},{"NoteNumber":62,"Velocity":41,"Duration":188679,"SoundDuration":188679,"Delta":51439819},{"NoteNumber":64,"Velocity":51,"Duration":361446,"SoundDuration":361446,"Delta":51628498},{"NoteNumber":72,"Velocity":60,"Duration":361446,"SoundDuration":361446,"Delta":51628498},{"NoteNumber":52,"Velocity":41,"Duration":361446,"SoundDuration":361446,"Delta":51628498},{"NoteNumber":60,"Velocity":49,"Duration":361446,"SoundDuration":361446,"Delta":51628498},{"NoteNumber":58,"Velocity":44,"Duration":361446,"SoundDuration":361446,"Delta":51989944},{"NoteNumber":70,"Velocity":52,"Duration":361446,"SoundDuration":361446,"Delta":51989944},{"NoteNumber":50,"Velocity":34,"Duration":361446,"SoundDuration":361446,"Delta":51989944},{"NoteNumber":53,"Velocity":41,"Duration":361446,"SoundDuration":361446,"Delta":51989944},{"NoteNumber":57,"Velocity":49,"Duration":364741,"SoundDuration":364741,"Delta":52351390},{"NoteNumber":69,"Velocity":58,"Duration":364741,"SoundDuration":364741,"Delta":52351390},{"NoteNumber":49,"Velocity":36,"Duration":364741,"SoundDuration":364741,"Delta":52351390},{"NoteNumber":52,"Velocity":43,"Duration":364741,"SoundDuration":364741,"Delta":52351390},{"NoteNumber":61,"Velocity":39,"Duration":364741,"SoundDuration":364741,"Delta":52716132},{"NoteNumber":67,"Velocity":46,"Duration":364741,"SoundDuration":364741,"Delta":52716132},{"NoteNumber":45,"Velocity":27,"Duration":364741,"SoundDuration":364741,"Delta":52716132},{"NoteNumber":52,"Velocity":32,"Duration":364741,"SoundDuration":364741,"Delta":52716132},{"NoteNumber":62,"Velocity":45,"Duration":364741,"SoundDuration":364741,"Delta":53080874},{"NoteNumber":65,"Velocity":53,"Duration":364741,"SoundDuration":364741,"Delta":53080874},{"NoteNumber":46,"Velocity":33,"Duration":364741,"SoundDuration":364741,"Delta":53080874},{"NoteNumber":50,"Velocity":39,"Duration":364741,"SoundDuration":364741,"Delta":53080874},{"NoteNumber":53,"Velocity":40,"Duration":385851,"SoundDuration":385851,"Delta":53445616},{"NoteNumber":55,"Velocity":40,"Duration":385851,"SoundDuration":385851,"Delta":53445616},{"NoteNumber":62,"Velocity":48,"Duration":385851,"SoundDuration":385851,"Delta":53445616},{"NoteNumber":47,"Velocity":31,"Duration":385851,"SoundDuration":385851,"Delta":53445616},{"NoteNumber":48,"Velocity":38,"Duration":736306,"SoundDuration":736306,"Delta":53831468},{"NoteNumber":53,"Velocity":32,"Duration":186335,"SoundDuration":186335,"Delta":54195104},{"NoteNumber":57,"Velocity":32,"Duration":186335,"SoundDuration":186335,"Delta":54195104},{"NoteNumber":60,"Velocity":38,"Duration":186335,"SoundDuration":186335,"Delta":54195104},{"NoteNumber":36,"Velocity":32,"Duration":748128,"SoundDuration":748128,"Delta":54567775},{"NoteNumber":48,"Velocity":31,"Duration":191693,"SoundDuration":191693,"Delta":54932517},{"NoteNumber":52,"Velocity":31,"Duration":191693,"SoundDuration":191693,"Delta":54932517},{"NoteNumber":55,"Velocity":31,"Duration":191693,"SoundDuration":191693,"Delta":54932517},{"NoteNumber":60,"Velocity":37,"Duration":191693,"SoundDuration":191693,"Delta":54932517},{"NoteNumber":29,"Velocity":35,"Duration":750000,"SoundDuration":750000,"Delta":55315904},{"NoteNumber":57,"Velocity":35,"Duration":351562,"SoundDuration":351562,"Delta":55690904},{"NoteNumber":53,"Velocity":29,"Duration":351562,"SoundDuration":351562,"Delta":55690904},{"NoteNumber":48,"Velocity":29,"Duration":351562,"SoundDuration":351562,"Delta":55690904},{"NoteNumber":57,"Velocity":66,"Duration":549402,"SoundDuration":549402,"Delta":56065904},{"NoteNumber":53,"Velocity":55,"Duration":549402,"SoundDuration":549402,"Delta":56065904},{"NoteNumber":65,"Velocity":55,"Duration":384112,"SoundDuration":384112,"Delta":56231193},{"NoteNumber":69,"Velocity":66,"Duration":384112,"SoundDuration":384112,"Delta":56231193},{"NoteNumber":65,"Velocity":43,"Duration":97719,"SoundDuration":97719,"Delta":56615306},{"NoteNumber":69,"Velocity":51,"Duration":97719,"SoundDuration":97719,"Delta":56615306},{"NoteNumber":53,"Velocity":37,"Duration":97719,"SoundDuration":97719,"Delta":56615306},{"NoteNumber":57,"Velocity":44,"Duration":97719,"SoundDuration":97719,"Delta":56615306},{"NoteNumber":50,"Velocity":45,"Duration":90634,"SoundDuration":90634,"Delta":56810746},{"NoteNumber":53,"Velocity":53,"Duration":90634,"SoundDuration":90634,"Delta":56810746},{"NoteNumber":62,"Velocity":41,"Duration":90634,"SoundDuration":90634,"Delta":56992015},{"NoteNumber":65,"Velocity":49,"Duration":90634,"SoundDuration":90634,"Delta":56992015},{"NoteNumber":46,"Velocity":39,"Duration":91463,"SoundDuration":91463,"Delta":57173284},{"NoteNumber":50,"Velocity":47,"Duration":91463,"SoundDuration":91463,"Delta":57173284},{"NoteNumber":58,"Velocity":38,"Duration":102040,"SoundDuration":102040,"Delta":57356211},{"NoteNumber":62,"Velocity":45,"Duration":102040,"SoundDuration":102040,"Delta":57356211},{"NoteNumber":58,"Velocity":66,"Duration":540817,"SoundDuration":540817,"Delta":57560292},{"NoteNumber":55,"Velocity":55,"Duration":540817,"SoundDuration":540817,"Delta":57560292},{"NoteNumber":67,"Velocity":60,"Duration":375528,"SoundDuration":375528,"Delta":57725582},{"NoteNumber":70,"Velocity":73,"Duration":375528,"SoundDuration":375528,"Delta":57725582},{"NoteNumber":65,"Velocity":43,"Duration":97719,"SoundDuration":97719,"Delta":58101110},{"NoteNumber":69,"Velocity":51,"Duration":97719,"SoundDuration":97719,"Delta":58101110},{"NoteNumber":53,"Velocity":37,"Duration":97719,"SoundDuration":97719,"Delta":58101110},{"NoteNumber":57,"Velocity":44,"Duration":97719,"SoundDuration":97719,"Delta":58101110},{"NoteNumber":52,"Velocity":45,"Duration":90634,"SoundDuration":90634,"Delta":58296549},{"NoteNumber":55,"Velocity":53,"Duration":90634,"SoundDuration":90634,"Delta":58296549},{"NoteNumber":64,"Velocity":41,"Duration":90634,"SoundDuration":90634,"Delta":58477818},{"NoteNumber":67,"Velocity":49,"Duration":90634,"SoundDuration":90634,"Delta":58477818},{"NoteNumber":48,"Velocity":39,"Duration":91743,"SoundDuration":91743,"Delta":58659087},{"NoteNumber":52,"Velocity":47,"Duration":91743,"SoundDuration":91743,"Delta":58659087},{"NoteNumber":60,"Velocity":38,"Duration":100671,"SoundDuration":100671,"Delta":58842573},{"NoteNumber":64,"Velocity":45,"Duration":100671,"SoundDuration":100671,"Delta":58842573},{"NoteNumber":60,"Velocity":72,"Duration":540817,"SoundDuration":540817,"Delta":59043916},{"NoteNumber":57,"Velocity":60,"Duration":540817,"SoundDuration":540817,"Delta":59043916},{"NoteNumber":69,"Velocity":60,"Duration":375528,"SoundDuration":375528,"Delta":59209205},{"NoteNumber":72,"Velocity":72,"Duration":375528,"SoundDuration":375528,"Delta":59209205},{"NoteNumber":69,"Velocity":47,"Duration":97719,"SoundDuration":97719,"Delta":59584733},{"NoteNumber":72,"Velocity":56,"Duration":97719,"SoundDuration":97719,"Delta":59584733},{"NoteNumber":57,"Velocity":40,"Duration":97719,"SoundDuration":97719,"Delta":59584733},{"NoteNumber":60,"Velocity":48,"Duration":97719,"SoundDuration":97719,"Delta":59584733},{"NoteNumber":53,"Velocity":49,"Duration":90634,"SoundDuration":90634,"Delta":59780173},{"NoteNumber":57,"Velocity":58,"Duration":90634,"SoundDuration":90634,"Delta":59780173},{"NoteNumber":65,"Velocity":45,"Duration":90634,"SoundDuration":90634,"Delta":59961442},{"NoteNumber":69,"Velocity":53,"Duration":90634,"SoundDuration":90634,"Delta":59961442},{"NoteNumber":50,"Velocity":42,"Duration":91463,"SoundDuration":91463,"Delta":60142711},{"NoteNumber":53,"Velocity":51,"Duration":91463,"SoundDuration":91463,"Delta":60142711},{"NoteNumber":62,"Velocity":41,"Duration":102040,"SoundDuration":102040,"Delta":60325638},{"NoteNumber":65,"Velocity":49,"Duration":102040,"SoundDuration":102040,"Delta":60325638},{"NoteNumber":62,"Velocity":75,"Duration":540817,"SoundDuration":540817,"Delta":60529719},{"NoteNumber":58,"Velocity":62,"Duration":540817,"SoundDuration":540817,"Delta":60529719},{"NoteNumber":70,"Velocity":68,"Duration":375528,"SoundDuration":375528,"Delta":60695009},{"NoteNumber":74,"Velocity":84,"Duration":375528,"SoundDuration":375528,"Delta":60695009},{"NoteNumber":69,"Velocity":49,"Duration":97719,"SoundDuration":97719,"Delta":61070537},{"NoteNumber":72,"Velocity":58,"Duration":97719,"SoundDuration":97719,"Delta":61070537},{"NoteNumber":57,"Velocity":42,"Duration":97719,"SoundDuration":97719,"Delta":61070537},{"NoteNumber":60,"Velocity":50,"Duration":97719,"SoundDuration":97719,"Delta":61070537},{"NoteNumber":55,"Velocity":51,"Duration":90634,"SoundDuration":90634,"Delta":61265976},{"NoteNumber":58,"Velocity":60,"Duration":90634,"SoundDuration":90634,"Delta":61265976},{"NoteNumber":67,"Velocity":47,"Duration":90634,"SoundDuration":90634,"Delta":61447245},{"NoteNumber":70,"Velocity":55,"Duration":90634,"SoundDuration":90634,"Delta":61447245},{"NoteNumber":52,"Velocity":44,"Duration":91743,"SoundDuration":91743,"Delta":61628514},{"NoteNumber":55,"Velocity":53,"Duration":91743,"SoundDuration":91743,"Delta":61628514},{"NoteNumber":64,"Velocity":43,"Duration":106006,"SoundDuration":106006,"Delta":61812000},{"NoteNumber":67,"Velocity":51,"Duration":106006,"SoundDuration":106006,"Delta":61812000},{"NoteNumber":67,"Velocity":79,"Duration":540817,"SoundDuration":540817,"Delta":62024014},{"NoteNumber":58,"Velocity":66,"Duration":540817,"SoundDuration":540817,"Delta":62024014},{"NoteNumber":70,"Velocity":79,"Duration":375528,"SoundDuration":375528,"Delta":62189304},{"NoteNumber":79,"Velocity":96,"Duration":375528,"SoundDuration":375528,"Delta":62189304},{"NoteNumber":69,"Velocity":56,"Duration":105263,"SoundDuration":105263,"Delta":62564832},{"NoteNumber":77,"Velocity":67,"Duration":105263,"SoundDuration":105263,"Delta":62564832},{"NoteNumber":57,"Velocity":44,"Duration":105263,"SoundDuration":105263,"Delta":62564832},{"NoteNumber":65,"Velocity":52,"Duration":105263,"SoundDuration":105263,"Delta":62564832},{"NoteNumber":64,"Velocity":79,"Duration":540817,"SoundDuration":540817,"Delta":62775358},{"NoteNumber":55,"Velocity":66,"Duration":540817,"SoundDuration":540817,"Delta":62775358},{"NoteNumber":67,"Velocity":79,"Duration":375528,"SoundDuration":375528,"Delta":62940648},{"NoteNumber":76,"Velocity":96,"Duration":375528,"SoundDuration":375528,"Delta":62940648},{"NoteNumber":65,"Velocity":56,"Duration":97719,"SoundDuration":97719,"Delta":63316176},{"NoteNumber":74,"Velocity":67,"Duration":97719,"SoundDuration":97719,"Delta":63316176},{"NoteNumber":53,"Velocity":44,"Duration":97719,"SoundDuration":97719,"Delta":63316176},{"NoteNumber":62,"Velocity":52,"Duration":97719,"SoundDuration":97719,"Delta":63316176},{"NoteNumber":52,"Velocity":49,"Duration":101010,"SoundDuration":101010,"Delta":63511615},{"NoteNumber":60,"Velocity":58,"Duration":101010,"SoundDuration":101010,"Delta":63511615},{"NoteNumber":64,"Velocity":44,"Duration":101010,"SoundDuration":101010,"Delta":63713635},{"NoteNumber":72,"Velocity":52,"Duration":101010,"SoundDuration":101010,"Delta":63713635},{"NoteNumber":50,"Velocity":40,"Duration":103806,"SoundDuration":103806,"Delta":63915655},{"NoteNumber":53,"Velocity":49,"Duration":103806,"SoundDuration":103806,"Delta":63915655},{"NoteNumber":58,"Velocity":39,"Duration":109091,"SoundDuration":109091,"Delta":64123268},{"NoteNumber":70,"Velocity":46,"Duration":109091,"SoundDuration":109091,"Delta":64123268},{"NoteNumber":69,"Velocity":54,"Duration":98039,"SoundDuration":98039,"Delta":64341450},{"NoteNumber":49,"Velocity":34,"Duration":1570740,"SoundDuration":1570740,"Delta":64341450},{"NoteNumber":52,"Velocity":34,"Duration":1570740,"SoundDuration":1570740,"Delta":64341450},{"NoteNumber":55,"Velocity":40,"Duration":1570740,"SoundDuration":1570740,"Delta":64341450},{"NoteNumber":57,"Velocity":46,"Duration":98039,"SoundDuration":98039,"Delta":64439489},{"NoteNumber":61,"Velocity":43,"Duration":98039,"SoundDuration":98039,"Delta":64537528},{"NoteNumber":64,"Velocity":43,"Duration":98039,"SoundDuration":98039,"Delta":64635568},{"NoteNumber":69,"Velocity":53,"Duration":97935,"SoundDuration":97935,"Delta":64733607},{"NoteNumber":73,"Velocity":42,"Duration":97616,"SoundDuration":97616,"Delta":64831542},{"NoteNumber":76,"Velocity":42,"Duration":97300,"SoundDuration":97300,"Delta":64929159},{"NoteNumber":80,"Velocity":42,"Duration":96985,"SoundDuration":96985,"Delta":65026459},{"NoteNumber":81,"Velocity":49,"Duration":96673,"SoundDuration":96673,"Delta":65123445},{"NoteNumber":80,"Velocity":39,"Duration":96300,"SoundDuration":96300,"Delta":65220118},{"NoteNumber":81,"Velocity":42,"Duration":96416,"SoundDuration":96416,"Delta":65316418},{"NoteNumber":80,"Velocity":38,"Duration":96876,"SoundDuration":96876,"Delta":65412835},{"NoteNumber":81,"Velocity":48,"Duration":97315,"SoundDuration":97315,"Delta":65509711},{"NoteNumber":76,"Velocity":38,"Duration":97799,"SoundDuration":97799,"Delta":65607027},{"NoteNumber":73,"Velocity":38,"Duration":98272,"SoundDuration":98272,"Delta":65704827},{"NoteNumber":69,"Velocity":38,"Duration":109091,"SoundDuration":109091,"Delta":65803099},{"NoteNumber":50,"Velocity":34,"Duration":1558068,"SoundDuration":1558068,"Delta":65912190},{"NoteNumber":53,"Velocity":40,"Duration":1558068,"SoundDuration":1558068,"Delta":65912190},{"NoteNumber":57,"Velocity":46,"Duration":97363,"SoundDuration":97363,"Delta":66009593},{"NoteNumber":62,"Velocity":43,"Duration":97087,"SoundDuration":97087,"Delta":66106956},{"NoteNumber":65,"Velocity":43,"Duration":96860,"SoundDuration":96860,"Delta":66204043},{"NoteNumber":69,"Velocity":53,"Duration":96673,"SoundDuration":96673,"Delta":66300904},{"NoteNumber":74,"Velocity":42,"Duration":96462,"SoundDuration":96462,"Delta":66397577},{"NoteNumber":77,"Velocity":42,"Duration":96176,"SoundDuration":96176,"Delta":66494040},{"NoteNumber":80,"Velocity":42,"Duration":95992,"SoundDuration":95992,"Delta":66590217},{"NoteNumber":81,"Velocity":49,"Duration":95846,"SoundDuration":95846,"Delta":66686209},{"NoteNumber":80,"Velocity":39,"Duration":96069,"SoundDuration":96069,"Delta":66782056},{"NoteNumber":81,"Velocity":42,"Duration":96153,"SoundDuration":96153,"Delta":66878126},{"NoteNumber":80,"Velocity":38,"Duration":96439,"SoundDuration":96439,"Delta":66974279},{"NoteNumber":81,"Velocity":48,"Duration":96501,"SoundDuration":96501,"Delta":67070719},{"NoteNumber":77,"Velocity":38,"Duration":96774,"SoundDuration":96774,"Delta":67167221},{"NoteNumber":74,"Velocity":38,"Duration":96774,"SoundDuration":96774,"Delta":67263995},{"NoteNumber":69,"Velocity":38,"Duration":109488,"SoundDuration":109488,"Delta":67360770},{"NoteNumber":47,"Velocity":34,"Duration":1547621,"SoundDuration":1547621,"Delta":67470259},{"NoteNumber":50,"Velocity":34,"Duration":1547621,"SoundDuration":1547621,"Delta":67470259},{"NoteNumber":53,"Velocity":40,"Duration":1547621,"SoundDuration":1547621,"Delta":67470259},{"NoteNumber":56,"Velocity":46,"Duration":96462,"SoundDuration":96462,"Delta":67566722},{"NoteNumber":59,"Velocity":43,"Duration":96462,"SoundDuration":96462,"Delta":67663185},{"NoteNumber":62,"Velocity":43,"Duration":95794,"SoundDuration":95794,"Delta":67759648},{"NoteNumber":65,"Velocity":50,"Duration":95541,"SoundDuration":95541,"Delta":67855442},{"NoteNumber":68,"Velocity":42,"Duration":95503,"SoundDuration":95503,"Delta":67950984},{"NoteNumber":71,"Velocity":42,"Duration":95237,"SoundDuration":95237,"Delta":68046487},{"NoteNumber":74,"Velocity":42,"Duration":95238,"SoundDuration":95238,"Delta":68141725},{"NoteNumber":77,"Velocity":49,"Duration":94922,"SoundDuration":94922,"Delta":68236963},{"NoteNumber":74,"Velocity":41,"Duration":94794,"SoundDuration":94794,"Delta":68331886},{"NoteNumber":80,"Velocity":48,"Duration":95094,"SoundDuration":95094,"Delta":68426681},{"NoteNumber":77,"Velocity":41,"Duration":95397,"SoundDuration":95397,"Delta":68521775},{"NoteNumber":74,"Velocity":48,"Duration":95701,"SoundDuration":95701,"Delta":68617173},{"NoteNumber":71,"Velocity":45,"Duration":96069,"SoundDuration":96069,"Delta":68712875},{"NoteNumber":68,"Velocity":42,"Duration":96153,"SoundDuration":96153,"Delta":68808944},{"NoteNumber":65,"Velocity":39,"Duration":112781,"SoundDuration":112781,"Delta":68905098},{"NoteNumber":46,"Velocity":57,"Duration":950918,"SoundDuration":950918,"Delta":69017880},{"NoteNumber":49,"Velocity":57,"Duration":950918,"SoundDuration":950918,"Delta":69017880},{"NoteNumber":52,"Velocity":57,"Duration":950918,"SoundDuration":950918,"Delta":69017880},{"NoteNumber":55,"Velocity":68,"Duration":950918,"SoundDuration":950918,"Delta":69017880},{"NoteNumber":64,"Velocity":48,"Duration":95767,"SoundDuration":95767,"Delta":69114060},{"NoteNumber":67,"Velocity":50,"Duration":95523,"SoundDuration":95523,"Delta":69209828},{"NoteNumber":70,"Velocity":51,"Duration":95238,"SoundDuration":95238,"Delta":69305352},{"NoteNumber":73,"Velocity":53,"Duration":94979,"SoundDuration":94979,"Delta":69400590},{"NoteNumber":76,"Velocity":55,"Duration":94679,"SoundDuration":94679,"Delta":69495569},{"NoteNumber":79,"Velocity":57,"Duration":94637,"SoundDuration":94637,"Delta":69590249},{"NoteNumber":82,"Velocity":59,"Duration":94637,"SoundDuration":94637,"Delta":69684886},{"NoteNumber":85,"Velocity":65,"Duration":94637,"SoundDuration":94637,"Delta":69779524},{"NoteNumber":88,"Velocity":57,"Duration":94637,"SoundDuration":94637,"Delta":69874161},{"NoteNumber":76,"Velocity":64,"Duration":91742,"SoundDuration":91742,"Delta":69968798},{"NoteNumber":46,"Velocity":50,"Duration":91742,"SoundDuration":91742,"Delta":69968798},{"NoteNumber":48,"Velocity":50,"Duration":91742,"SoundDuration":91742,"Delta":69968798},{"NoteNumber":55,"Velocity":60,"Duration":91742,"SoundDuration":91742,"Delta":69968798},{"NoteNumber":88,"Velocity":56,"Duration":91743,"SoundDuration":91743,"Delta":70060541},{"NoteNumber":76,"Velocity":64,"Duration":91742,"SoundDuration":91742,"Delta":70152284},{"NoteNumber":46,"Velocity":61,"Duration":91742,"SoundDuration":91742,"Delta":70152284},{"NoteNumber":48,"Velocity":61,"Duration":91742,"SoundDuration":91742,"Delta":70152284},{"NoteNumber":55,"Velocity":72,"Duration":91742,"SoundDuration":91742,"Delta":70152284},{"NoteNumber":88,"Velocity":58,"Duration":91743,"SoundDuration":91743,"Delta":70244027},{"NoteNumber":76,"Velocity":64,"Duration":91742,"SoundDuration":91742,"Delta":70335770},{"NoteNumber":46,"Velocity":51,"Duration":91742,"SoundDuration":91742,"Delta":70335770},{"NoteNumber":48,"Velocity":51,"Duration":91742,"SoundDuration":91742,"Delta":70335770},{"NoteNumber":55,"Velocity":61,"Duration":91742,"SoundDuration":91742,"Delta":70335770},{"NoteNumber":88,"Velocity":59,"Duration":97719,"SoundDuration":97719,"Delta":70427513},{"NoteNumber":77,"Velocity":74,"Duration":91742,"SoundDuration":91742,"Delta":70525233},{"NoteNumber":45,"Velocity":73,"Duration":366972,"SoundDuration":366972,"Delta":70525233},{"NoteNumber":48,"Velocity":73,"Duration":366972,"SoundDuration":366972,"Delta":70525233},{"NoteNumber":53,"Velocity":73,"Duration":366972,"SoundDuration":366972,"Delta":70525233},{"NoteNumber":89,"Velocity":59,"Duration":91743,"SoundDuration":91743,"Delta":70616976},{"NoteNumber":76,"Velocity":67,"Duration":91742,"SoundDuration":91742,"Delta":70708719},{"NoteNumber":88,"Velocity":54,"Duration":91743,"SoundDuration":91743,"Delta":70800462},{"NoteNumber":77,"Velocity":66,"Duration":91742,"SoundDuration":91742,"Delta":70892205},{"NoteNumber":89,"Velocity":57,"Duration":91743,"SoundDuration":91743,"Delta":70983948},{"NoteNumber":70,"Velocity":59,"Duration":91742,"SoundDuration":91742,"Delta":71075691},{"NoteNumber":40,"Velocity":57,"Duration":91742,"SoundDuration":91742,"Delta":71075691},{"NoteNumber":48,"Velocity":68,"Duration":91742,"SoundDuration":91742,"Delta":71075691},{"NoteNumber":82,"Velocity":50,"Duration":98039,"SoundDuration":98039,"Delta":71167434},{"NoteNumber":69,"Velocity":79,"Duration":91463,"SoundDuration":91463,"Delta":71265473},{"NoteNumber":41,"Velocity":63,"Duration":91463,"SoundDuration":91463,"Delta":71265473},{"NoteNumber":48,"Velocity":75,"Duration":91463,"SoundDuration":91463,"Delta":71265473},{"NoteNumber":81,"Velocity":54,"Duration":91463,"SoundDuration":91463,"Delta":71356937},{"NoteNumber":76,"Velocity":65,"Duration":91463,"SoundDuration":91463,"Delta":71448400},{"NoteNumber":46,"Velocity":56,"Duration":91463,"SoundDuration":91463,"Delta":71448400},{"NoteNumber":48,"Velocity":67,"Duration":91463,"SoundDuration":91463,"Delta":71448400},{"NoteNumber":88,"Velocity":57,"Duration":91463,"SoundDuration":91463,"Delta":71539864},{"NoteNumber":77,"Velocity":68,"Duration":91463,"SoundDuration":91463,"Delta":71631327},{"NoteNumber":45,"Velocity":63,"Duration":91463,"SoundDuration":91463,"Delta":71631327},{"NoteNumber":48,"Velocity":75,"Duration":91463,"SoundDuration":91463,"Delta":71631327},{"NoteNumber":89,"Velocity":60,"Duration":91463,"SoundDuration":91463,"Delta":71722791},{"NoteNumber":70,"Velocity":67,"Duration":91463,"SoundDuration":91463,"Delta":71814254},{"NoteNumber":40,"Velocity":56,"Duration":91463,"SoundDuration":91463,"Delta":71814254},{"NoteNumber":48,"Velocity":67,"Duration":91463,"SoundDuration":91463,"Delta":71814254},{"NoteNumber":82,"Velocity":58,"Duration":95846,"SoundDuration":95846,"Delta":71905718},{"NoteNumber":69,"Velocity":81,"Duration":91463,"SoundDuration":91463,"Delta":72001564},{"NoteNumber":41,"Velocity":63,"Duration":91463,"SoundDuration":91463,"Delta":72001564},{"NoteNumber":48,"Velocity":75,"Duration":91463,"SoundDuration":91463,"Delta":72001564},{"NoteNumber":81,"Velocity":58,"Duration":91463,"SoundDuration":91463,"Delta":72093028},{"NoteNumber":76,"Velocity":64,"Duration":91463,"SoundDuration":91463,"Delta":72184491},{"NoteNumber":46,"Velocity":56,"Duration":91463,"SoundDuration":91463,"Delta":72184491},{"NoteNumber":48,"Velocity":67,"Duration":91463,"SoundDuration":91463,"Delta":72184491},{"NoteNumber":88,"Velocity":59,"Duration":91463,"SoundDuration":91463,"Delta":72275955},{"NoteNumber":77,"Velocity":67,"Duration":91463,"SoundDuration":91463,"Delta":72367418},{"NoteNumber":45,"Velocity":63,"Duration":91463,"SoundDuration":91463,"Delta":72367418},{"NoteNumber":48,"Velocity":75,"Duration":91463,"SoundDuration":91463,"Delta":72367418},{"NoteNumber":89,"Velocity":55,"Duration":91463,"SoundDuration":91463,"Delta":72458882},{"NoteNumber":70,"Velocity":62,"Duration":91463,"SoundDuration":91463,"Delta":72550345},{"NoteNumber":40,"Velocity":56,"Duration":91463,"SoundDuration":91463,"Delta":72550345},{"NoteNumber":48,"Velocity":67,"Duration":91463,"SoundDuration":91463,"Delta":72550345},{"NoteNumber":82,"Velocity":51,"Duration":98039,"SoundDuration":98039,"Delta":72641809},{"NoteNumber":69,"Velocity":72,"Duration":91463,"SoundDuration":91463,"Delta":72739848},{"NoteNumber":41,"Velocity":63,"Duration":91463,"SoundDuration":91463,"Delta":72739848},{"NoteNumber":48,"Velocity":75,"Duration":91463,"SoundDuration":91463,"Delta":72739848},{"NoteNumber":81,"Velocity":52,"Duration":91463,"SoundDuration":91463,"Delta":72831312},{"NoteNumber":76,"Velocity":64,"Duration":91463,"SoundDuration":91463,"Delta":72922775},{"NoteNumber":46,"Velocity":56,"Duration":91463,"SoundDuration":91463,"Delta":72922775},{"NoteNumber":48,"Velocity":67,"Duration":91463,"SoundDuration":91463,"Delta":72922775},{"NoteNumber":88,"Velocity":54,"Duration":91463,"SoundDuration":91463,"Delta":73014239},{"NoteNumber":77,"Velocity":64,"Duration":91463,"SoundDuration":91463,"Delta":73105702},{"NoteNumber":45,"Velocity":63,"Duration":91463,"SoundDuration":91463,"Delta":73105702},{"NoteNumber":48,"Velocity":75,"Duration":91463,"SoundDuration":91463,"Delta":73105702},{"NoteNumber":89,"Velocity":51,"Duration":91463,"SoundDuration":91463,"Delta":73197166},{"NoteNumber":70,"Velocity":60,"Duration":91463,"SoundDuration":91463,"Delta":73288629},{"NoteNumber":40,"Velocity":57,"Duration":91463,"SoundDuration":91463,"Delta":73288629},{"NoteNumber":48,"Velocity":68,"Duration":91463,"SoundDuration":91463,"Delta":73288629},{"NoteNumber":82,"Velocity":51,"Duration":99010,"SoundDuration":99010,"Delta":73380093},{"NoteNumber":69,"Velocity":83,"Duration":91463,"SoundDuration":91463,"Delta":73479103},{"NoteNumber":41,"Velocity":89,"Duration":734881,"SoundDuration":734881,"Delta":73479103},{"NoteNumber":81,"Velocity":53,"Duration":91463,"SoundDuration":91463,"Delta":73570566},{"NoteNumber":67,"Velocity":62,"Duration":91463,"SoundDuration":91463,"Delta":73662030},{"NoteNumber":79,"Velocity":54,"Duration":91463,"SoundDuration":91463,"Delta":73753493},{"NoteNumber":65,"Velocity":62,"Duration":91463,"SoundDuration":91463,"Delta":73844957},{"NoteNumber":77,"Velocity":54,"Duration":91463,"SoundDuration":91463,"Delta":73936420},{"NoteNumber":64,"Velocity":62,"Duration":91463,"SoundDuration":91463,"Delta":74027884},{"NoteNumber":76,"Velocity":53,"Duration":94637,"SoundDuration":94637,"Delta":74119347},{"NoteNumber":62,"Velocity":81,"Duration":91185,"SoundDuration":91185,"Delta":74213984},{"NoteNumber":38,"Velocity":80,"Duration":733235,"SoundDuration":733235,"Delta":74213984},{"NoteNumber":74,"Velocity":53,"Duration":91185,"SoundDuration":91185,"Delta":74305170},{"NoteNumber":60,"Velocity":60,"Duration":91185,"SoundDuration":91185,"Delta":74396355},{"NoteNumber":72,"Velocity":52,"Duration":91185,"SoundDuration":91185,"Delta":74487541},{"NoteNumber":58,"Velocity":59,"Duration":91185,"SoundDuration":91185,"Delta":74578726},{"NoteNumber":70,"Velocity":52,"Duration":91185,"SoundDuration":91185,"Delta":74669912},{"NoteNumber":57,"Velocity":59,"Duration":91185,"SoundDuration":91185,"Delta":74761097},{"NoteNumber":69,"Velocity":50,"Duration":94936,"SoundDuration":94936,"Delta":74852283},{"NoteNumber":55,"Velocity":79,"Duration":91463,"SoundDuration":91463,"Delta":74947220},{"NoteNumber":34,"Velocity":88,"Duration":738928,"SoundDuration":738928,"Delta":74947220},{"NoteNumber":67,"Velocity":50,"Duration":91463,"SoundDuration":91463,"Delta":75038683},{"NoteNumber":53,"Velocity":59,"Duration":91463,"SoundDuration":91463,"Delta":75130147},{"NoteNumber":65,"Velocity":49,"Duration":91463,"SoundDuration":91463,"Delta":75221610},{"NoteNumber":52,"Velocity":59,"Duration":91463,"SoundDuration":91463,"Delta":75313074},{"NoteNumber":64,"Velocity":49,"Duration":91463,"SoundDuration":91463,"Delta":75404537},{"NoteNumber":50,"Velocity":59,"Duration":91463,"SoundDuration":91463,"Delta":75496001},{"NoteNumber":62,"Velocity":51,"Duration":98684,"SoundDuration":98684,"Delta":75587464},{"NoteNumber":48,"Velocity":79,"Duration":92024,"SoundDuration":92024,"Delta":75686148},{"NoteNumber":36,"Velocity":84,"Duration":752867,"SoundDuration":752867,"Delta":75686148},{"NoteNumber":60,"Velocity":49,"Duration":92024,"SoundDuration":92024,"Delta":75778173},{"NoteNumber":46,"Velocity":59,"Duration":92024,"SoundDuration":92024,"Delta":75870197},{"NoteNumber":58,"Velocity":50,"Duration":92024,"SoundDuration":92024,"Delta":75962222},{"NoteNumber":45,"Velocity":59,"Duration":92024,"SoundDuration":92024,"Delta":76054246},{"NoteNumber":57,"Velocity":48,"Duration":92024,"SoundDuration":92024,"Delta":76146271},{"NoteNumber":43,"Velocity":58,"Duration":92024,"SoundDuration":92024,"Delta":76238295},{"NoteNumber":55,"Velocity":49,"Duration":108695,"SoundDuration":108695,"Delta":76330320},{"NoteNumber":53,"Velocity":76,"Duration":92307,"SoundDuration":92307,"Delta":76439016},{"NoteNumber":41,"Velocity":64,"Duration":92307,"SoundDuration":92307,"Delta":76439016},{"NoteNumber":29,"Velocity":81,"Duration":92307,"SoundDuration":92307,"Delta":76439016},{"NoteNumber":52,"Velocity":49,"Duration":92307,"SoundDuration":92307,"Delta":76623631},{"NoteNumber":46,"Velocity":54,"Duration":92307,"SoundDuration":92307,"Delta":76623631},{"NoteNumber":60,"Velocity":42,"Duration":92307,"SoundDuration":92307,"Delta":76715939},{"NoteNumber":53,"Velocity":49,"Duration":91185,"SoundDuration":91185,"Delta":76808247},{"NoteNumber":45,"Velocity":60,"Duration":91185,"SoundDuration":91185,"Delta":76808247},{"NoteNumber":60,"Velocity":41,"Duration":91185,"SoundDuration":91185,"Delta":76899432},{"NoteNumber":58,"Velocity":49,"Duration":91185,"SoundDuration":91185,"Delta":76990618},{"NoteNumber":40,"Velocity":54,"Duration":91185,"SoundDuration":91185,"Delta":76990618},{"NoteNumber":60,"Velocity":42,"Duration":91185,"SoundDuration":91185,"Delta":77081803},{"NoteNumber":57,"Velocity":49,"Duration":91185,"SoundDuration":91185,"Delta":77172989},{"NoteNumber":41,"Velocity":60,"Duration":91185,"SoundDuration":91185,"Delta":77172989},{"NoteNumber":60,"Velocity":41,"Duration":91185,"SoundDuration":91185,"Delta":77264174},{"NoteNumber":52,"Velocity":49,"Duration":91185,"SoundDuration":91185,"Delta":77355360},{"NoteNumber":46,"Velocity":52,"Duration":91185,"SoundDuration":91185,"Delta":77355360},{"NoteNumber":60,"Velocity":42,"Duration":91185,"SoundDuration":91185,"Delta":77446545},{"NoteNumber":53,"Velocity":49,"Duration":91185,"SoundDuration":91185,"Delta":77537731},{"NoteNumber":45,"Velocity":60,"Duration":91185,"SoundDuration":91185,"Delta":77537731},{"NoteNumber":60,"Velocity":43,"Duration":91185,"SoundDuration":91185,"Delta":77628916},{"NoteNumber":58,"Velocity":49,"Duration":91185,"SoundDuration":91185,"Delta":77720102},{"NoteNumber":40,"Velocity":58,"Duration":91185,"SoundDuration":91185,"Delta":77720102},{"NoteNumber":60,"Velocity":40,"Duration":91185,"SoundDuration":91185,"Delta":77811287},{"NoteNumber":57,"Velocity":49,"Duration":92024,"SoundDuration":92024,"Delta":77902473},{"NoteNumber":41,"Velocity":60,"Duration":92024,"SoundDuration":92024,"Delta":77902473},{"NoteNumber":60,"Velocity":41,"Duration":92024,"SoundDuration":92024,"Delta":77994497},{"NoteNumber":52,"Velocity":49,"Duration":92024,"SoundDuration":92024,"Delta":78086522},{"NoteNumber":46,"Velocity":52,"Duration":92024,"SoundDuration":92024,"Delta":78086522},{"NoteNumber":60,"Velocity":42,"Duration":92024,"SoundDuration":92024,"Delta":78178546},{"NoteNumber":53,"Velocity":49,"Duration":92024,"SoundDuration":92024,"Delta":78270571},{"NoteNumber":45,"Velocity":60,"Duration":92024,"SoundDuration":92024,"Delta":78270571},{"NoteNumber":60,"Velocity":43,"Duration":92024,"SoundDuration":92024,"Delta":78362595},{"NoteNumber":58,"Velocity":49,"Duration":92024,"SoundDuration":92024,"Delta":78454620},{"NoteNumber":40,"Velocity":58,"Duration":92024,"SoundDuration":92024,"Delta":78454620},{"NoteNumber":60,"Velocity":40,"Duration":92024,"SoundDuration":92024,"Delta":78546644},{"NoteNumber":57,"Velocity":56,"Duration":91185,"SoundDuration":91185,"Delta":78638669},{"NoteNumber":41,"Velocity":67,"Duration":91185,"SoundDuration":91185,"Delta":78638669},{"NoteNumber":60,"Velocity":45,"Duration":91185,"SoundDuration":91185,"Delta":78729854},{"NoteNumber":49,"Velocity":60,"Duration":91185,"SoundDuration":91185,"Delta":78821040},{"NoteNumber":43,"Velocity":59,"Duration":91185,"SoundDuration":91185,"Delta":78821040},{"NoteNumber":61,"Velocity":52,"Duration":91185,"SoundDuration":91185,"Delta":78912225},{"NoteNumber":50,"Velocity":61,"Duration":91185,"SoundDuration":91185,"Delta":79003411},{"NoteNumber":41,"Velocity":72,"Duration":91185,"SoundDuration":91185,"Delta":79003411},{"NoteNumber":62,"Velocity":49,"Duration":91185,"SoundDuration":91185,"Delta":79094596},{"NoteNumber":52,"Velocity":67,"Duration":91185,"SoundDuration":91185,"Delta":79185782},{"NoteNumber":40,"Velocity":67,"Duration":91185,"SoundDuration":91185,"Delta":79185782},{"NoteNumber":64,"Velocity":60,"Duration":91742,"SoundDuration":91742,"Delta":79276967},{"NoteNumber":53,"Velocity":71,"Duration":91743,"SoundDuration":91743,"Delta":79368710},{"NoteNumber":38,"Velocity":75,"Duration":91743,"SoundDuration":91743,"Delta":79368710},{"NoteNumber":65,"Velocity":62,"Duration":91742,"SoundDuration":91742,"Delta":79460453},{"NoteNumber":54,"Velocity":70,"Duration":91743,"SoundDuration":91743,"Delta":79552196},{"NoteNumber":36,"Velocity":77,"Duration":91743,"SoundDuration":91743,"Delta":79552196},{"NoteNumber":66,"Velocity":64,"Duration":91742,"SoundDuration":91742,"Delta":79643939},{"NoteNumber":55,"Velocity":70,"Duration":91743,"SoundDuration":91743,"Delta":79735682},{"NoteNumber":34,"Velocity":80,"Duration":91743,"SoundDuration":91743,"Delta":79735682},{"NoteNumber":67,"Velocity":64,"Duration":91742,"SoundDuration":91742,"Delta":79827425},{"NoteNumber":57,"Velocity":74,"Duration":91742,"SoundDuration":91742,"Delta":79919168},{"NoteNumber":33,"Velocity":82,"Duration":91742,"SoundDuration":91742,"Delta":79919168},{"NoteNumber":69,"Velocity":65,"Duration":91743,"SoundDuration":91743,"Delta":80010911},{"NoteNumber":58,"Velocity":82,"Duration":91742,"SoundDuration":91742,"Delta":80102654},{"NoteNumber":31,"Velocity":94,"Duration":1466247,"SoundDuration":1466247,"Delta":80102654},{"NoteNumber":70,"Velocity":71,"Duration":91743,"SoundDuration":91743,"Delta":80194397},{"NoteNumber":60,"Velocity":79,"Duration":91742,"SoundDuration":91742,"Delta":80286140},{"NoteNumber":72,"Velocity":70,"Duration":91743,"SoundDuration":91743,"Delta":80377883},{"NoteNumber":62,"Velocity":83,"Duration":91742,"SoundDuration":91742,"Delta":80469626},{"NoteNumber":74,"Velocity":72,"Duration":91742,"SoundDuration":91742,"Delta":80561369},{"NoteNumber":60,"Velocity":81,"Duration":91743,"SoundDuration":91743,"Delta":80653112},{"NoteNumber":72,"Velocity":69,"Duration":96774,"SoundDuration":96774,"Delta":80744855},{"NoteNumber":58,"Velocity":84,"Duration":90908,"SoundDuration":90908,"Delta":80841629},{"NoteNumber":70,"Velocity":69,"Duration":90909,"SoundDuration":90909,"Delta":80932538},{"NoteNumber":57,"Velocity":81,"Duration":90908,"SoundDuration":90908,"Delta":81023447},{"NoteNumber":69,"Velocity":69,"Duration":90908,"SoundDuration":90908,"Delta":81114356},{"NoteNumber":55,"Velocity":79,"Duration":90908,"SoundDuration":90908,"Delta":81205265},{"NoteNumber":67,"Velocity":69,"Duration":90909,"SoundDuration":90909,"Delta":81296174},{"NoteNumber":53,"Velocity":78,"Duration":90908,"SoundDuration":90908,"Delta":81387083},{"NoteNumber":65,"Velocity":65,"Duration":90908,"SoundDuration":90908,"Delta":81477992},{"NoteNumber":52,"Velocity":79,"Duration":91742,"SoundDuration":91742,"Delta":81568901},{"NoteNumber":36,"Velocity":87,"Duration":739173,"SoundDuration":739173,"Delta":81568901},{"NoteNumber":64,"Velocity":69,"Duration":91743,"SoundDuration":91743,"Delta":81660644},{"NoteNumber":50,"Velocity":77,"Duration":91742,"SoundDuration":91742,"Delta":81752387},{"NoteNumber":62,"Velocity":65,"Duration":95846,"SoundDuration":95846,"Delta":81844130},{"NoteNumber":48,"Velocity":77,"Duration":92024,"SoundDuration":92024,"Delta":81939977},{"NoteNumber":60,"Velocity":67,"Duration":92024,"SoundDuration":92024,"Delta":82032002},{"NoteNumber":52,"Velocity":75,"Duration":92024,"SoundDuration":92024,"Delta":82124026},{"NoteNumber":64,"Velocity":66,"Duration":92024,"SoundDuration":92024,"Delta":82216051},{"NoteNumber":65,"Velocity":79,"Duration":368098,"SoundDuration":368098,"Delta":82308075},{"NoteNumber":53,"Velocity":79,"Duration":368098,"SoundDuration":368098,"Delta":82308075},{"NoteNumber":29,"Velocity":30,"Duration":92024,"SoundDuration":92024,"Delta":82308075},{"NoteNumber":41,"Velocity":26,"Duration":92024,"SoundDuration":92024,"Delta":82400100},{"NoteNumber":29,"Velocity":30,"Duration":92024,"SoundDuration":92024,"Delta":82492124},{"NoteNumber":41,"Velocity":25,"Duration":92024,"SoundDuration":92024,"Delta":82584149},{"NoteNumber":29,"Velocity":30,"Duration":92024,"SoundDuration":92024,"Delta":82676173},{"NoteNumber":41,"Velocity":26,"Duration":92024,"SoundDuration":92024,"Delta":82768198},{"NoteNumber":29,"Velocity":30,"Duration":92024,"SoundDuration":92024,"Delta":82860222},{"NoteNumber":41,"Velocity":27,"Duration":92024,"SoundDuration":92024,"Delta":82952247},{"NoteNumber":60,"Velocity":40,"Duration":750360,"SoundDuration":750360,"Delta":83044271},{"NoteNumber":57,"Velocity":34,"Duration":750360,"SoundDuration":750360,"Delta":83044271},{"NoteNumber":29,"Velocity":30,"Duration":92592,"SoundDuration":92592,"Delta":83044271},{"NoteNumber":41,"Velocity":27,"Duration":92592,"SoundDuration":92592,"Delta":83136864},{"NoteNumber":29,"Velocity":30,"Duration":92592,"SoundDuration":92592,"Delta":83229456},{"NoteNumber":41,"Velocity":25,"Duration":92592,"SoundDuration":92592,"Delta":83322049},{"NoteNumber":29,"Velocity":30,"Duration":92592,"SoundDuration":92592,"Delta":83414641},{"NoteNumber":41,"Velocity":26,"Duration":92592,"SoundDuration":92592,"Delta":83507234},{"NoteNumber":53,"Velocity":39,"Duration":194805,"SoundDuration":194805,"Delta":83599826},{"NoteNumber":29,"Velocity":30,"Duration":97402,"SoundDuration":97402,"Delta":83599826},{"NoteNumber":41,"Velocity":26,"Duration":97402,"SoundDuration":97402,"Delta":83697229},{"NoteNumber":61,"Velocity":46,"Duration":741891,"SoundDuration":741891,"Delta":83794631},{"NoteNumber":58,"Velocity":39,"Duration":741891,"SoundDuration":741891,"Delta":83794631},{"NoteNumber":29,"Velocity":30,"Duration":92024,"SoundDuration":92024,"Delta":83794631},{"NoteNumber":41,"Velocity":26,"Duration":92024,"SoundDuration":92024,"Delta":83886656},{"NoteNumber":29,"Velocity":30,"Duration":92024,"SoundDuration":92024,"Delta":83978680},{"NoteNumber":41,"Velocity":25,"Duration":92024,"SoundDuration":92024,"Delta":84070705},{"NoteNumber":29,"Velocity":30,"Duration":92024,"SoundDuration":92024,"Delta":84162729},{"NoteNumber":41,"Velocity":26,"Duration":92024,"SoundDuration":92024,"Delta":84254754},{"NoteNumber":56,"Velocity":40,"Duration":189744,"SoundDuration":189744,"Delta":84346778},{"NoteNumber":29,"Velocity":30,"Duration":92024,"SoundDuration":92024,"Delta":84346778},{"NoteNumber":41,"Velocity":27,"Duration":97719,"SoundDuration":97719,"Delta":84438803},{"NoteNumber":60,"Velocity":32,"Duration":365853,"SoundDuration":365853,"Delta":84536522},{"NoteNumber":58,"Velocity":32,"Duration":365853,"SoundDuration":365853,"Delta":84536522},{"NoteNumber":54,"Velocity":45,"Duration":182927,"SoundDuration":182927,"Delta":84536522},{"NoteNumber":29,"Velocity":30,"Duration":91463,"SoundDuration":91463,"Delta":84536522},{"NoteNumber":41,"Velocity":27,"Duration":91463,"SoundDuration":91463,"Delta":84627986},{"NoteNumber":53,"Velocity":40,"Duration":182926,"SoundDuration":182926,"Delta":84719449},{"NoteNumber":29,"Velocity":30,"Duration":91463,"SoundDuration":91463,"Delta":84719449},{"NoteNumber":41,"Velocity":25,"Duration":91463,"SoundDuration":91463,"Delta":84810913},{"NoteNumber":60,"Velocity":33,"Duration":378366,"SoundDuration":378366,"Delta":84902376},{"NoteNumber":58,"Velocity":33,"Duration":378366,"SoundDuration":378366,"Delta":84902376},{"NoteNumber":54,"Velocity":46,"Duration":182927,"SoundDuration":182927,"Delta":84902376},{"NoteNumber":29,"Velocity":30,"Duration":91463,"SoundDuration":91463,"Delta":84902376},{"NoteNumber":41,"Velocity":26,"Duration":91463,"SoundDuration":91463,"Delta":84993840},{"NoteNumber":52,"Velocity":40,"Duration":195439,"SoundDuration":195439,"Delta":85085303},{"NoteNumber":29,"Velocity":30,"Duration":97719,"SoundDuration":97719,"Delta":85085303},{"NoteNumber":41,"Velocity":26,"Duration":97719,"SoundDuration":97719,"Delta":85183023},{"NoteNumber":60,"Velocity":46,"Duration":550458,"SoundDuration":550458,"Delta":85280743},{"NoteNumber":57,"Velocity":39,"Duration":550458,"SoundDuration":550458,"Delta":85280743},{"NoteNumber":53,"Velocity":39,"Duration":550458,"SoundDuration":550458,"Delta":85280743},{"NoteNumber":29,"Velocity":30,"Duration":91742,"SoundDuration":91742,"Delta":85280743},{"NoteNumber":41,"Velocity":26,"Duration":91743,"SoundDuration":91743,"Delta":85372486},{"NoteNumber":29,"Velocity":30,"Duration":91742,"SoundDuration":91742,"Delta":85464229},{"NoteNumber":41,"Velocity":25,"Duration":91743,"SoundDuration":91743,"Delta":85555972},{"NoteNumber":29,"Velocity":30,"Duration":91742,"SoundDuration":91742,"Delta":85647715},{"NoteNumber":41,"Velocity":26,"Duration":91743,"SoundDuration":91743,"Delta":85739458},{"NoteNumber":29,"Velocity":30,"Duration":91742,"SoundDuration":91742,"Delta":85831201},{"NoteNumber":41,"Velocity":27,"Duration":91742,"SoundDuration":91742,"Delta":85922944},{"NoteNumber":69,"Velocity":52,"Duration":555554,"SoundDuration":555554,"Delta":86014687},{"NoteNumber":60,"Velocity":52,"Duration":750360,"SoundDuration":750360,"Delta":86014687},{"NoteNumber":57,"Velocity":44,"Duration":750360,"SoundDuration":750360,"Delta":86014687},{"NoteNumber":29,"Velocity":30,"Duration":92592,"SoundDuration":92592,"Delta":86014687},{"NoteNumber":41,"Velocity":27,"Duration":92592,"SoundDuration":92592,"Delta":86107279},{"NoteNumber":29,"Velocity":35,"Duration":92592,"SoundDuration":92592,"Delta":86199872},{"NoteNumber":41,"Velocity":29,"Duration":92592,"SoundDuration":92592,"Delta":86292464},{"NoteNumber":29,"Velocity":34,"Duration":92592,"SoundDuration":92592,"Delta":86385057},{"NoteNumber":41,"Velocity":26,"Duration":92592,"SoundDuration":92592,"Delta":86477649},{"NoteNumber":65,"Velocity":50,"Duration":194805,"SoundDuration":194805,"Delta":86570242},{"NoteNumber":29,"Velocity":35,"Duration":97402,"SoundDuration":97402,"Delta":86570242},{"NoteNumber":41,"Velocity":31,"Duration":97402,"SoundDuration":97402,"Delta":86667644},{"NoteNumber":70,"Velocity":52,"Duration":552147,"SoundDuration":552147,"Delta":86765047},{"NoteNumber":61,"Velocity":59,"Duration":741891,"SoundDuration":741891,"Delta":86765047},{"NoteNumber":58,"Velocity":50,"Duration":741891,"SoundDuration":741891,"Delta":86765047},{"NoteNumber":29,"Velocity":38,"Duration":92024,"SoundDuration":92024,"Delta":86765047},{"NoteNumber":41,"Velocity":30,"Duration":92024,"SoundDuration":92024,"Delta":86857071},{"NoteNumber":29,"Velocity":34,"Duration":92024,"SoundDuration":92024,"Delta":86949096},{"NoteNumber":41,"Velocity":25,"Duration":92024,"SoundDuration":92024,"Delta":87041120},{"NoteNumber":29,"Velocity":33,"Duration":92024,"SoundDuration":92024,"Delta":87133145},{"NoteNumber":41,"Velocity":26,"Duration":92024,"SoundDuration":92024,"Delta":87225169},{"NoteNumber":68,"Velocity":52,"Duration":189744,"SoundDuration":189744,"Delta":87317194},{"NoteNumber":29,"Velocity":30,"Duration":92024,"SoundDuration":92024,"Delta":87317194},{"NoteNumber":41,"Velocity":27,"Duration":97719,"SoundDuration":97719,"Delta":87409218},{"NoteNumber":61,"Velocity":41,"Duration":365853,"SoundDuration":365853,"Delta":87506938},{"NoteNumber":58,"Velocity":41,"Duration":365853,"SoundDuration":365853,"Delta":87506938},{"NoteNumber":66,"Velocity":58,"Duration":182927,"SoundDuration":182927,"Delta":87506938},{"NoteNumber":29,"Velocity":30,"Duration":91463,"SoundDuration":91463,"Delta":87506938},{"NoteNumber":41,"Velocity":27,"Duration":91463,"SoundDuration":91463,"Delta":87598402},{"NoteNumber":65,"Velocity":52,"Duration":182926,"SoundDuration":182926,"Delta":87689865},{"NoteNumber":29,"Velocity":30,"Duration":91463,"SoundDuration":91463,"Delta":87689865},{"NoteNumber":41,"Velocity":25,"Duration":91463,"SoundDuration":91463,"Delta":87781329},{"NoteNumber":61,"Velocity":42,"Duration":378366,"SoundDuration":378366,"Delta":87872792},{"NoteNumber":58,"Velocity":42,"Duration":378366,"SoundDuration":378366,"Delta":87872792},{"NoteNumber":66,"Velocity":59,"Duration":182927,"SoundDuration":182927,"Delta":87872792},{"NoteNumber":29,"Velocity":30,"Duration":91463,"SoundDuration":91463,"Delta":87872792},{"NoteNumber":41,"Velocity":26,"Duration":91463,"SoundDuration":91463,"Delta":87964256},{"NoteNumber":64,"Velocity":52,"Duration":195439,"SoundDuration":195439,"Delta":88055719},{"NoteNumber":29,"Velocity":30,"Duration":97719,"SoundDuration":97719,"Delta":88055719},{"NoteNumber":41,"Velocity":26,"Duration":97719,"SoundDuration":97719,"Delta":88153439},{"NoteNumber":65,"Velocity":59,"Duration":550458,"SoundDuration":550458,"Delta":88251159},{"NoteNumber":60,"Velocity":50,"Duration":550458,"SoundDuration":550458,"Delta":88251159},{"NoteNumber":57,"Velocity":50,"Duration":550458,"SoundDuration":550458,"Delta":88251159},{"NoteNumber":29,"Velocity":30,"Duration":91742,"SoundDuration":91742,"Delta":88251159},{"NoteNumber":41,"Velocity":25,"Duration":91743,"SoundDuration":91743,"Delta":88342902},{"NoteNumber":29,"Velocity":29,"Duration":91742,"SoundDuration":91742,"Delta":88434645},{"NoteNumber":41,"Velocity":24,"Duration":91743,"SoundDuration":91743,"Delta":88526388},{"NoteNumber":29,"Velocity":28,"Duration":91742,"SoundDuration":91742,"Delta":88618131},{"NoteNumber":41,"Velocity":24,"Duration":91743,"SoundDuration":91743,"Delta":88709874},{"NoteNumber":29,"Velocity":28,"Duration":91742,"SoundDuration":91742,"Delta":88801617},{"NoteNumber":41,"Velocity":25,"Duration":91726,"SoundDuration":91726,"Delta":88893360},{"NoteNumber":61,"Velocity":37,"Duration":365853,"SoundDuration":365853,"Delta":88985086},{"NoteNumber":58,"Velocity":37,"Duration":365853,"SoundDuration":365853,"Delta":88985086},{"NoteNumber":67,"Velocity":53,"Duration":182926,"SoundDuration":182926,"Delta":88985086},{"NoteNumber":29,"Velocity":27,"Duration":91463,"SoundDuration":91463,"Delta":88985086},{"NoteNumber":41,"Velocity":24,"Duration":91463,"SoundDuration":91463,"Delta":89076550},{"NoteNumber":65,"Velocity":46,"Duration":182927,"SoundDuration":182927,"Delta":89168013},{"NoteNumber":29,"Velocity":27,"Duration":91463,"SoundDuration":91463,"Delta":89168013},{"NoteNumber":41,"Velocity":22,"Duration":91463,"SoundDuration":91463,"Delta":89259477},{"NoteNumber":61,"Velocity":36,"Duration":378382,"SoundDuration":378382,"Delta":89350940},{"NoteNumber":58,"Velocity":36,"Duration":378382,"SoundDuration":378382,"Delta":89350940},{"NoteNumber":67,"Velocity":51,"Duration":183291,"SoundDuration":183291,"Delta":89350940},{"NoteNumber":29,"Velocity":26,"Duration":91463,"SoundDuration":91463,"Delta":89350940},{"NoteNumber":41,"Velocity":22,"Duration":91828,"SoundDuration":91828,"Delta":89442404},{"NoteNumber":64,"Velocity":44,"Duration":195090,"SoundDuration":195090,"Delta":89534232},{"NoteNumber":29,"Velocity":25,"Duration":97719,"SoundDuration":97719,"Delta":89534232},{"NoteNumber":41,"Velocity":22,"Duration":97371,"SoundDuration":97371,"Delta":89631952},{"NoteNumber":65,"Velocity":49,"Duration":550458,"SoundDuration":550458,"Delta":89729323},{"NoteNumber":60,"Velocity":42,"Duration":550458,"SoundDuration":550458,"Delta":89729323},{"NoteNumber":57,"Velocity":42,"Duration":550458,"SoundDuration":550458,"Delta":89729323},{"NoteNumber":29,"Velocity":25,"Duration":91742,"SoundDuration":91742,"Delta":89729323},{"NoteNumber":41,"Velocity":21,"Duration":91743,"SoundDuration":91743,"Delta":89821066},{"NoteNumber":29,"Velocity":24,"Duration":91742,"SoundDuration":91742,"Delta":89912809},{"NoteNumber":41,"Velocity":20,"Duration":91743,"SoundDuration":91743,"Delta":90004552},{"NoteNumber":29,"Velocity":24,"Duration":91742,"SoundDuration":91742,"Delta":90096295},{"NoteNumber":41,"Velocity":20,"Duration":91743,"SoundDuration":91743,"Delta":90188038},{"NoteNumber":29,"Velocity":23,"Duration":91742,"SoundDuration":91742,"Delta":90279781},{"NoteNumber":41,"Velocity":20,"Duration":91742,"SoundDuration":91742,"Delta":90371524},{"NoteNumber":61,"Velocity":30,"Duration":365886,"SoundDuration":365886,"Delta":90463267},{"NoteNumber":58,"Velocity":30,"Duration":365886,"SoundDuration":365886,"Delta":90463267},{"NoteNumber":66,"Velocity":43,"Duration":182959,"SoundDuration":182959,"Delta":90463267},{"NoteNumber":29,"Velocity":22,"Duration":91496,"SoundDuration":91496,"Delta":90463267},{"NoteNumber":41,"Velocity":20,"Duration":91463,"SoundDuration":91463,"Delta":90554763},{"NoteNumber":65,"Velocity":39,"Duration":182926,"SoundDuration":182926,"Delta":90646227},{"NoteNumber":29,"Velocity":22,"Duration":91463,"SoundDuration":91463,"Delta":90646227},{"NoteNumber":41,"Velocity":18,"Duration":91463,"SoundDuration":91463,"Delta":90737690},{"NoteNumber":61,"Velocity":31,"Duration":377636,"SoundDuration":377636,"Delta":90829154},{"NoteNumber":58,"Velocity":31,"Duration":377636,"SoundDuration":377636,"Delta":90829154},{"NoteNumber":66,"Velocity":44,"Duration":182927,"SoundDuration":182927,"Delta":90829154},{"NoteNumber":29,"Velocity":22,"Duration":91463,"SoundDuration":91463,"Delta":90829154},{"NoteNumber":41,"Velocity":19,"Duration":91463,"SoundDuration":91463,"Delta":90920617},{"NoteNumber":64,"Velocity":39,"Duration":194709,"SoundDuration":194709,"Delta":91012081},{"NoteNumber":29,"Velocity":22,"Duration":96989,"SoundDuration":96989,"Delta":91012081},{"NoteNumber":41,"Velocity":19,"Duration":97719,"SoundDuration":97719,"Delta":91109070},{"NoteNumber":53,"Velocity":74,"Duration":551155,"SoundDuration":551155,"Delta":91206790},{"NoteNumber":65,"Velocity":88,"Duration":551155,"SoundDuration":551155,"Delta":91206790},{"NoteNumber":29,"Velocity":56,"Duration":551155,"SoundDuration":551155,"Delta":91206790},{"NoteNumber":41,"Velocity":66,"Duration":551155,"SoundDuration":551155,"Delta":91206790},{"NoteNumber":55,"Velocity":67,"Duration":99337,"SoundDuration":99337,"Delta":91757946},{"NoteNumber":67,"Velocity":79,"Duration":99337,"SoundDuration":99337,"Delta":91757946},{"NoteNumber":31,"Velocity":49,"Duration":99337,"SoundDuration":99337,"Delta":91757946},{"NoteNumber":43,"Velocity":59,"Duration":99337,"SoundDuration":99337,"Delta":91757946},{"NoteNumber":57,"Velocity":74,"Duration":548781,"SoundDuration":548781,"Delta":91956621},{"NoteNumber":69,"Velocity":89,"Duration":548781,"SoundDuration":548781,"Delta":91956621},{"NoteNumber":33,"Velocity":56,"Duration":548781,"SoundDuration":548781,"Delta":91956621},{"NoteNumber":45,"Velocity":66,"Duration":548781,"SoundDuration":548781,"Delta":91956621},{"NoteNumber":58,"Velocity":68,"Duration":98684,"SoundDuration":98684,"Delta":92505402},{"NoteNumber":70,"Velocity":81,"Duration":98684,"SoundDuration":98684,"Delta":92505402},{"NoteNumber":34,"Velocity":50,"Duration":98684,"SoundDuration":98684,"Delta":92505402},{"NoteNumber":46,"Velocity":60,"Duration":98684,"SoundDuration":98684,"Delta":92505402},{"NoteNumber":60,"Velocity":77,"Duration":547112,"SoundDuration":547112,"Delta":92702771},{"NoteNumber":72,"Velocity":91,"Duration":547112,"SoundDuration":547112,"Delta":92702771},{"NoteNumber":36,"Velocity":57,"Duration":547112,"SoundDuration":547112,"Delta":92702771},{"NoteNumber":48,"Velocity":68,"Duration":547112,"SoundDuration":547112,"Delta":92702771},{"NoteNumber":62,"Velocity":62,"Duration":98684,"SoundDuration":98684,"Delta":93249884},{"NoteNumber":74,"Velocity":74,"Duration":98684,"SoundDuration":98684,"Delta":93249884},{"NoteNumber":38,"Velocity":47,"Duration":98684,"SoundDuration":98684,"Delta":93249884},{"NoteNumber":50,"Velocity":56,"Duration":98684,"SoundDuration":98684,"Delta":93249884},{"NoteNumber":64,"Velocity":71,"Duration":91463,"SoundDuration":91463,"Delta":93447252},{"NoteNumber":76,"Velocity":84,"Duration":91463,"SoundDuration":91463,"Delta":93447252},{"NoteNumber":40,"Velocity":53,"Duration":91463,"SoundDuration":91463,"Delta":93447252},{"NoteNumber":52,"Velocity":63,"Duration":91463,"SoundDuration":91463,"Delta":93447252},{"NoteNumber":65,"Velocity":68,"Duration":91463,"SoundDuration":91463,"Delta":93630179},{"NoteNumber":77,"Velocity":81,"Duration":91463,"SoundDuration":91463,"Delta":93630179},{"NoteNumber":41,"Velocity":50,"Duration":91463,"SoundDuration":91463,"Delta":93630179},{"NoteNumber":53,"Velocity":60,"Duration":91463,"SoundDuration":91463,"Delta":93630179},{"NoteNumber":67,"Velocity":74,"Duration":91463,"SoundDuration":91463,"Delta":93813106},{"NoteNumber":79,"Velocity":87,"Duration":91463,"SoundDuration":91463,"Delta":93813106},{"NoteNumber":43,"Velocity":55,"Duration":91463,"SoundDuration":91463,"Delta":93813106},{"NoteNumber":55,"Velocity":65,"Duration":91463,"SoundDuration":91463,"Delta":93813106},{"NoteNumber":69,"Velocity":69,"Duration":111110,"SoundDuration":111110,"Delta":93996033},{"NoteNumber":81,"Velocity":83,"Duration":111110,"SoundDuration":111110,"Delta":93996033},{"NoteNumber":45,"Velocity":51,"Duration":111110,"SoundDuration":111110,"Delta":93996033},{"NoteNumber":57,"Velocity":61,"Duration":111110,"SoundDuration":111110,"Delta":93996033},{"NoteNumber":70,"Velocity":81,"Duration":551155,"SoundDuration":551155,"Delta":94218255},{"NoteNumber":82,"Velocity":96,"Duration":551155,"SoundDuration":551155,"Delta":94218255},{"NoteNumber":46,"Velocity":61,"Duration":551155,"SoundDuration":551155,"Delta":94218255},{"NoteNumber":58,"Velocity":72,"Duration":551155,"SoundDuration":551155,"Delta":94218255},{"NoteNumber":69,"Velocity":71,"Duration":99337,"SoundDuration":99337,"Delta":94769410},{"NoteNumber":81,"Velocity":84,"Duration":99337,"SoundDuration":99337,"Delta":94769410},{"NoteNumber":45,"Velocity":52,"Duration":99337,"SoundDuration":99337,"Delta":94769410},{"NoteNumber":57,"Velocity":63,"Duration":99337,"SoundDuration":99337,"Delta":94769410},{"NoteNumber":67,"Velocity":78,"Duration":548781,"SoundDuration":548781,"Delta":94968086},{"NoteNumber":79,"Velocity":94,"Duration":548781,"SoundDuration":548781,"Delta":94968086},{"NoteNumber":43,"Velocity":59,"Duration":548781,"SoundDuration":548781,"Delta":94968086},{"NoteNumber":55,"Velocity":69,"Duration":548781,"SoundDuration":548781,"Delta":94968086},{"NoteNumber":65,"Velocity":70,"Duration":98684,"SoundDuration":98684,"Delta":95516867},{"NoteNumber":77,"Velocity":83,"Duration":98684,"SoundDuration":98684,"Delta":95516867},{"NoteNumber":41,"Velocity":51,"Duration":98684,"SoundDuration":98684,"Delta":95516867},{"NoteNumber":53,"Velocity":61,"Duration":98684,"SoundDuration":98684,"Delta":95516867},{"NoteNumber":64,"Velocity":78,"Duration":547112,"SoundDuration":547112,"Delta":95714235},{"NoteNumber":76,"Velocity":92,"Duration":547112,"SoundDuration":547112,"Delta":95714235},{"NoteNumber":40,"Velocity":58,"Duration":547112,"SoundDuration":547112,"Delta":95714235},{"NoteNumber":52,"Velocity":69,"Duration":547112,"SoundDuration":547112,"Delta":95714235},{"NoteNumber":62,"Velocity":62,"Duration":98684,"SoundDuration":98684,"Delta":96261348},{"NoteNumber":74,"Velocity":74,"Duration":98684,"SoundDuration":98684,"Delta":96261348},{"NoteNumber":38,"Velocity":47,"Duration":98684,"SoundDuration":98684,"Delta":96261348},{"NoteNumber":50,"Velocity":56,"Duration":98684,"SoundDuration":98684,"Delta":96261348},{"NoteNumber":60,"Velocity":70,"Duration":91463,"SoundDuration":91463,"Delta":96458717},{"NoteNumber":72,"Velocity":83,"Duration":91463,"SoundDuration":91463,"Delta":96458717},{"NoteNumber":36,"Velocity":52,"Duration":91463,"SoundDuration":91463,"Delta":96458717},{"NoteNumber":48,"Velocity":62,"Duration":91463,"SoundDuration":91463,"Delta":96458717},{"NoteNumber":58,"Velocity":66,"Duration":91463,"SoundDuration":91463,"Delta":96641644},{"NoteNumber":70,"Velocity":78,"Duration":91463,"SoundDuration":91463,"Delta":96641644},{"NoteNumber":34,"Velocity":49,"Duration":91463,"SoundDuration":91463,"Delta":96641644},{"NoteNumber":46,"Velocity":58,"Duration":91463,"SoundDuration":91463,"Delta":96641644},{"NoteNumber":57,"Velocity":70,"Duration":91463,"SoundDuration":91463,"Delta":96824571},{"NoteNumber":69,"Velocity":83,"Duration":91463,"SoundDuration":91463,"Delta":96824571},{"NoteNumber":33,"Velocity":52,"Duration":91463,"SoundDuration":91463,"Delta":96824571},{"NoteNumber":45,"Velocity":62,"Duration":91463,"SoundDuration":91463,"Delta":96824571},{"NoteNumber":55,"Velocity":64,"Duration":99667,"SoundDuration":99667,"Delta":97007498},{"NoteNumber":67,"Velocity":77,"Duration":99667,"SoundDuration":99667,"Delta":97007498},{"NoteNumber":31,"Velocity":48,"Duration":99667,"SoundDuration":99667,"Delta":97007498},{"NoteNumber":43,"Velocity":57,"Duration":99667,"SoundDuration":99667,"Delta":97007498},{"NoteNumber":53,"Velocity":78,"Duration":99667,"SoundDuration":99667,"Delta":97206833},{"NoteNumber":65,"Velocity":90,"Duration":99667,"SoundDuration":99667,"Delta":97206833},{"NoteNumber":29,"Velocity":58,"Duration":99667,"SoundDuration":99667,"Delta":97206833},{"NoteNumber":41,"Velocity":69,"Duration":99667,"SoundDuration":99667,"Delta":97206833},{"NoteNumber":64,"Velocity":53,"Duration":91185,"SoundDuration":91185,"Delta":97605504},{"NoteNumber":48,"Velocity":34,"Duration":91185,"SoundDuration":91185,"Delta":97605504},{"NoteNumber":55,"Velocity":34,"Duration":91185,"SoundDuration":91185,"Delta":97605504},{"NoteNumber":58,"Velocity":41,"Duration":91185,"SoundDuration":91185,"Delta":97605504},{"NoteNumber":63,"Velocity":45,"Duration":91185,"SoundDuration":91185,"Delta":97696690},{"NoteNumber":64,"Velocity":53,"Duration":91185,"SoundDuration":91185,"Delta":97787875},{"NoteNumber":60,"Velocity":43,"Duration":99337,"SoundDuration":99337,"Delta":97879061},{"NoteNumber":65,"Velocity":57,"Duration":91463,"SoundDuration":91463,"Delta":97978399},{"NoteNumber":53,"Velocity":41,"Duration":91463,"SoundDuration":91463,"Delta":97978399},{"NoteNumber":57,"Velocity":49,"Duration":91463,"SoundDuration":91463,"Delta":97978399},{"NoteNumber":76,"Velocity":53,"Duration":90908,"SoundDuration":90908,"Delta":98344253},{"NoteNumber":60,"Velocity":34,"Duration":90908,"SoundDuration":90908,"Delta":98344253},{"NoteNumber":67,"Velocity":34,"Duration":90908,"SoundDuration":90908,"Delta":98344253},{"NoteNumber":70,"Velocity":41,"Duration":90908,"SoundDuration":90908,"Delta":98344253},{"NoteNumber":75,"Velocity":45,"Duration":90909,"SoundDuration":90909,"Delta":98435162},{"NoteNumber":76,"Velocity":53,"Duration":90908,"SoundDuration":90908,"Delta":98526071},{"NoteNumber":72,"Velocity":43,"Duration":99999,"SoundDuration":99999,"Delta":98616980},{"NoteNumber":77,"Velocity":57,"Duration":102389,"SoundDuration":102389,"Delta":98716980},{"NoteNumber":65,"Velocity":41,"Duration":102389,"SoundDuration":102389,"Delta":98716980},{"NoteNumber":69,"Velocity":49,"Duration":102389,"SoundDuration":102389,"Delta":98716980},{"NoteNumber":88,"Velocity":91,"Duration":437955,"SoundDuration":437955,"Delta":99536092},{"NoteNumber":84,"Velocity":77,"Duration":437955,"SoundDuration":437955,"Delta":99536092},{"NoteNumber":82,"Velocity":77,"Duration":437955,"SoundDuration":437955,"Delta":99536092},{"NoteNumber":79,"Velocity":77,"Duration":437955,"SoundDuration":437955,"Delta":99536092},{"NoteNumber":76,"Velocity":77,"Duration":437955,"SoundDuration":437955,"Delta":99536092},{"NoteNumber":48,"Velocity":56,"Duration":437955,"SoundDuration":437955,"Delta":99536092},{"NoteNumber":60,"Velocity":67,"Duration":437955,"SoundDuration":437955,"Delta":99536092},{"NoteNumber":89,"Velocity":97,"Duration":437955,"SoundDuration":437955,"Delta":100412004},{"NoteNumber":84,"Velocity":82,"Duration":437955,"SoundDuration":437955,"Delta":100412004},{"NoteNumber":81,"Velocity":82,"Duration":437955,"SoundDuration":437955,"Delta":100412004},{"NoteNumber":77,"Velocity":82,"Duration":437955,"SoundDuration":437955,"Delta":100412004},{"NoteNumber":41,"Velocity":64,"Duration":437955,"SoundDuration":437955,"Delta":100412004},{"NoteNumber":53,"Velocity":76,"Duration":437955,"SoundDuration":437955,"Delta":100412004},{"NoteNumber":58,"Velocity":42,"Duration":83240,"SoundDuration":83240,"Delta":101725872},{"NoteNumber":62,"Velocity":50,"Duration":366727,"SoundDuration":366727,"Delta":101725872},{"NoteNumber":57,"Velocity":40,"Duration":83240,"SoundDuration":83240,"Delta":101809112},{"NoteNumber":58,"Velocity":45,"Duration":83240,"SoundDuration":83240,"Delta":101892353},{"NoteNumber":53,"Velocity":39,"Duration":117004,"SoundDuration":117004,"Delta":101975594},{"NoteNumber":62,"Velocity":35,"Duration":75402,"SoundDuration":75402,"Delta":102092599},{"NoteNumber":65,"Velocity":42,"Duration":75402,"SoundDuration":75402,"Delta":102092599},{"NoteNumber":34,"Velocity":30,"Duration":75402,"SoundDuration":75402,"Delta":102092599},{"NoteNumber":46,"Velocity":36,"Duration":75402,"SoundDuration":75402,"Delta":102092599},{"NoteNumber":58,"Velocity":32,"Duration":75402,"SoundDuration":75402,"Delta":102494744},{"NoteNumber":62,"Velocity":38,"Duration":75402,"SoundDuration":75402,"Delta":102494744},{"NoteNumber":34,"Velocity":27,"Duration":75402,"SoundDuration":75402,"Delta":102494744},{"NoteNumber":46,"Velocity":32,"Duration":75402,"SoundDuration":75402,"Delta":102494744},{"NoteNumber":58,"Velocity":42,"Duration":83240,"SoundDuration":83240,"Delta":103299034},{"NoteNumber":62,"Velocity":50,"Duration":366727,"SoundDuration":366727,"Delta":103299034},{"NoteNumber":57,"Velocity":40,"Duration":83240,"SoundDuration":83240,"Delta":103382274},{"NoteNumber":58,"Velocity":45,"Duration":83240,"SoundDuration":83240,"Delta":103465515},{"NoteNumber":53,"Velocity":39,"Duration":117004,"SoundDuration":117004,"Delta":103548756},{"NoteNumber":62,"Velocity":35,"Duration":75402,"SoundDuration":75402,"Delta":103665761},{"NoteNumber":65,"Velocity":42,"Duration":75402,"SoundDuration":75402,"Delta":103665761},{"NoteNumber":34,"Velocity":30,"Duration":75402,"SoundDuration":75402,"Delta":103665761},{"NoteNumber":46,"Velocity":36,"Duration":75402,"SoundDuration":75402,"Delta":103665761},{"NoteNumber":58,"Velocity":32,"Duration":75402,"SoundDuration":75402,"Delta":104067906},{"NoteNumber":62,"Velocity":38,"Duration":75402,"SoundDuration":75402,"Delta":104067906},{"NoteNumber":34,"Velocity":27,"Duration":75402,"SoundDuration":75402,"Delta":104067906},{"NoteNumber":46,"Velocity":32,"Duration":75402,"SoundDuration":75402,"Delta":104067906},{"NoteNumber":62,"Velocity":50,"Duration":188441,"SoundDuration":188441,"Delta":104872196},{"NoteNumber":58,"Velocity":42,"Duration":103643,"SoundDuration":103643,"Delta":104872196},{"NoteNumber":57,"Velocity":40,"Duration":103643,"SoundDuration":103643,"Delta":104966417},{"NoteNumber":58,"Velocity":46,"Duration":103643,"SoundDuration":103643,"Delta":105060638},{"NoteNumber":53,"Velocity":40,"Duration":94221,"SoundDuration":94221,"Delta":105154859},{"NoteNumber":65,"Velocity":53,"Duration":183823,"SoundDuration":183823,"Delta":105249080},{"NoteNumber":62,"Velocity":44,"Duration":101102,"SoundDuration":101102,"Delta":105249080},{"NoteNumber":61,"Velocity":42,"Duration":101102,"SoundDuration":101102,"Delta":105340991},{"NoteNumber":62,"Velocity":49,"Duration":101102,"SoundDuration":101102,"Delta":105432903},{"NoteNumber":58,"Velocity":42,"Duration":91911,"SoundDuration":91911,"Delta":105524815},{"NoteNumber":65,"Velocity":47,"Duration":98713,"SoundDuration":98713,"Delta":105616727},{"NoteNumber":70,"Velocity":56,"Duration":179479,"SoundDuration":179479,"Delta":105616727},{"NoteNumber":64,"Velocity":45,"Duration":98713,"SoundDuration":98713,"Delta":105706466},{"NoteNumber":65,"Velocity":51,"Duration":98713,"SoundDuration":98713,"Delta":105796206},{"NoteNumber":62,"Velocity":45,"Duration":89739,"SoundDuration":89739,"Delta":105885946},{"NoteNumber":70,"Velocity":49,"Duration":96689,"SoundDuration":96689,"Delta":105975686},{"NoteNumber":74,"Velocity":59,"Duration":175798,"SoundDuration":175798,"Delta":105975686},{"NoteNumber":69,"Velocity":47,"Duration":96689,"SoundDuration":96689,"Delta":106063585},{"NoteNumber":70,"Velocity":54,"Duration":96689,"SoundDuration":96689,"Delta":106151484},{"NoteNumber":65,"Velocity":47,"Duration":87899,"SoundDuration":87899,"Delta":106239383},{"NoteNumber":74,"Velocity":52,"Duration":100212,"SoundDuration":100212,"Delta":106327283},{"NoteNumber":77,"Velocity":62,"Duration":182204,"SoundDuration":182204,"Delta":106327283},{"NoteNumber":73,"Velocity":50,"Duration":100212,"SoundDuration":100212,"Delta":106418385},{"NoteNumber":74,"Velocity":57,"Duration":102279,"SoundDuration":102279,"Delta":106509487},{"NoteNumber":70,"Velocity":49,"Duration":111773,"SoundDuration":111773,"Delta":106600589},{"NoteNumber":82,"Velocity":72,"Duration":1099571,"SoundDuration":1099571,"Delta":106712363},{"NoteNumber":46,"Velocity":44,"Duration":91631,"SoundDuration":91631,"Delta":106712363},{"NoteNumber":50,"Velocity":31,"Duration":91630,"SoundDuration":91630,"Delta":106803994},{"NoteNumber":53,"Velocity":31,"Duration":91631,"SoundDuration":91631,"Delta":106895625},{"NoteNumber":58,"Velocity":31,"Duration":91630,"SoundDuration":91630,"Delta":106987256},{"NoteNumber":46,"Velocity":44,"Duration":91631,"SoundDuration":91631,"Delta":107078887},{"NoteNumber":50,"Velocity":32,"Duration":91630,"SoundDuration":91630,"Delta":107170518},{"NoteNumber":53,"Velocity":32,"Duration":91631,"SoundDuration":91631,"Delta":107262149},{"NoteNumber":58,"Velocity":32,"Duration":91630,"SoundDuration":91630,"Delta":107353780},{"NoteNumber":46,"Velocity":44,"Duration":91631,"SoundDuration":91631,"Delta":107445411},{"NoteNumber":50,"Velocity":33,"Duration":91630,"SoundDuration":91630,"Delta":107537042},{"NoteNumber":53,"Velocity":33,"Duration":91631,"SoundDuration":91631,"Delta":107628673},{"NoteNumber":58,"Velocity":33,"Duration":91630,"SoundDuration":91630,"Delta":107720304},{"NoteNumber":81,"Velocity":60,"Duration":91631,"SoundDuration":91631,"Delta":107811935},{"NoteNumber":46,"Velocity":44,"Duration":91631,"SoundDuration":91631,"Delta":107811935},{"NoteNumber":82,"Velocity":57,"Duration":91630,"SoundDuration":91630,"Delta":107903566},{"NoteNumber":50,"Velocity":33,"Duration":91630,"SoundDuration":91630,"Delta":107903566},{"NoteNumber":84,"Velocity":60,"Duration":91631,"SoundDuration":91631,"Delta":107995197},{"NoteNumber":53,"Velocity":33,"Duration":91631,"SoundDuration":91631,"Delta":107995197},{"NoteNumber":82,"Velocity":54,"Duration":102599,"SoundDuration":102599,"Delta":108086828},{"NoteNumber":58,"Velocity":33,"Duration":102599,"SoundDuration":102599,"Delta":108086828},{"NoteNumber":81,"Velocity":60,"Duration":188441,"SoundDuration":188441,"Delta":108189427},{"NoteNumber":46,"Velocity":44,"Duration":94221,"SoundDuration":94221,"Delta":108189427},{"NoteNumber":51,"Velocity":31,"Duration":94220,"SoundDuration":94220,"Delta":108283648},{"NoteNumber":79,"Velocity":51,"Duration":188442,"SoundDuration":188442,"Delta":108377869},{"NoteNumber":55,"Velocity":31,"Duration":94221,"SoundDuration":94221,"Delta":108377869},{"NoteNumber":58,"Velocity":31,"Duration":94221,"SoundDuration":94221,"Delta":108472090},{"NoteNumber":77,"Velocity":54,"Duration":188441,"SoundDuration":188441,"Delta":108566311},{"NoteNumber":46,"Velocity":42,"Duration":94220,"SoundDuration":94220,"Delta":108566311},{"NoteNumber":51,"Velocity":28,"Duration":94221,"SoundDuration":94221,"Delta":108660532},{"NoteNumber":75,"Velocity":50,"Duration":188441,"SoundDuration":188441,"Delta":108754753},{"NoteNumber":55,"Velocity":28,"Duration":94221,"SoundDuration":94221,"Delta":108754753},{"NoteNumber":58,"Velocity":28,"Duration":94220,"SoundDuration":94220,"Delta":108848974},{"NoteNumber":74,"Velocity":59,"Duration":188442,"SoundDuration":188442,"Delta":108943195},{"NoteNumber":46,"Velocity":41,"Duration":94221,"SoundDuration":94221,"Delta":108943195},{"NoteNumber":51,"Velocity":29,"Duration":94221,"SoundDuration":94221,"Delta":109037416},{"NoteNumber":72,"Velocity":48,"Duration":188441,"SoundDuration":188441,"Delta":109131637},{"NoteNumber":53,"Velocity":29,"Duration":94220,"SoundDuration":94220,"Delta":109131637},{"NoteNumber":57,"Velocity":29,"Duration":94221,"SoundDuration":94221,"Delta":109225858},{"NoteNumber":79,"Velocity":56,"Duration":188442,"SoundDuration":188442,"Delta":109320079},{"NoteNumber":46,"Velocity":41,"Duration":94221,"SoundDuration":94221,"Delta":109320079},{"NoteNumber":51,"Velocity":31,"Duration":94221,"SoundDuration":94221,"Delta":109414300},{"NoteNumber":77,"Velocity":47,"Duration":203950,"SoundDuration":203950,"Delta":109508521},{"NoteNumber":53,"Velocity":31,"Duration":94220,"SoundDuration":94220,"Delta":109508521},{"NoteNumber":57,"Velocity":31,"Duration":109729,"SoundDuration":109729,"Delta":109602742},{"NoteNumber":75,"Velocity":54,"Duration":400801,"SoundDuration":400801,"Delta":109712471},{"NoteNumber":46,"Velocity":44,"Duration":100200,"SoundDuration":100200,"Delta":109712471},{"NoteNumber":50,"Velocity":31,"Duration":100200,"SoundDuration":100200,"Delta":109812672},{"NoteNumber":53,"Velocity":31,"Duration":100200,"SoundDuration":100200,"Delta":109912872},{"NoteNumber":58,"Velocity":31,"Duration":100200,"SoundDuration":100200,"Delta":110013073},{"NoteNumber":74,"Velocity":47,"Duration":400801,"SoundDuration":400801,"Delta":110113273},{"NoteNumber":46,"Velocity":44,"Duration":100200,"SoundDuration":100200,"Delta":110113273},{"NoteNumber":50,"Velocity":32,"Duration":100200,"SoundDuration":100200,"Delta":110213474},{"NoteNumber":53,"Velocity":32,"Duration":100200,"SoundDuration":100200,"Delta":110313674},{"NoteNumber":58,"Velocity":32,"Duration":100200,"SoundDuration":100200,"Delta":110413875},{"NoteNumber":46,"Velocity":44,"Duration":98879,"SoundDuration":98879,"Delta":110514075},{"NoteNumber":50,"Velocity":32,"Duration":98879,"SoundDuration":98879,"Delta":110612955},{"NoteNumber":53,"Velocity":32,"Duration":98879,"SoundDuration":98879,"Delta":110711834},{"NoteNumber":56,"Velocity":32,"Duration":98879,"SoundDuration":98879,"Delta":110810713},{"NoteNumber":69,"Velocity":58,"Duration":98879,"SoundDuration":98879,"Delta":110909592},{"NoteNumber":46,"Velocity":44,"Duration":98879,"SoundDuration":98879,"Delta":110909592},{"NoteNumber":70,"Velocity":54,"Duration":98879,"SoundDuration":98879,"Delta":111008472},{"NoteNumber":50,"Velocity":32,"Duration":98879,"SoundDuration":98879,"Delta":111008472},{"NoteNumber":72,"Velocity":58,"Duration":98879,"SoundDuration":98879,"Delta":111107351},{"NoteNumber":53,"Velocity":32,"Duration":98879,"SoundDuration":98879,"Delta":111107351},{"NoteNumber":70,"Velocity":54,"Duration":98879,"SoundDuration":98879,"Delta":111206230},{"NoteNumber":56,"Velocity":32,"Duration":98879,"SoundDuration":98879,"Delta":111206230},{"NoteNumber":68,"Velocity":60,"Duration":189036,"SoundDuration":189036,"Delta":111305109},{"NoteNumber":46,"Velocity":44,"Duration":94517,"SoundDuration":94517,"Delta":111305109},{"NoteNumber":51,"Velocity":32,"Duration":94518,"SoundDuration":94518,"Delta":111399627},{"NoteNumber":67,"Velocity":54,"Duration":189036,"SoundDuration":189036,"Delta":111494145},{"NoteNumber":55,"Velocity":32,"Duration":94517,"SoundDuration":94517,"Delta":111494145},{"NoteNumber":51,"Velocity":32,"Duration":94518,"SoundDuration":94518,"Delta":111588663},{"NoteNumber":65,"Velocity":66,"Duration":189036,"SoundDuration":189036,"Delta":111683181},{"NoteNumber":46,"Velocity":44,"Duration":94517,"SoundDuration":94517,"Delta":111683181},{"NoteNumber":51,"Velocity":36,"Duration":94518,"SoundDuration":94518,"Delta":111777699},{"NoteNumber":63,"Velocity":61,"Duration":195392,"SoundDuration":195392,"Delta":111872217},{"NoteNumber":55,"Velocity":36,"Duration":94517,"SoundDuration":94517,"Delta":111872217},{"NoteNumber":51,"Velocity":36,"Duration":100874,"SoundDuration":100874,"Delta":111966735},{"NoteNumber":62,"Velocity":69,"Duration":189036,"SoundDuration":189036,"Delta":112067610},{"NoteNumber":46,"Velocity":48,"Duration":94517,"SoundDuration":94517,"Delta":112067610},{"NoteNumber":48,"Velocity":37,"Duration":94518,"SoundDuration":94518,"Delta":112162128},{"NoteNumber":60,"Velocity":62,"Duration":189036,"SoundDuration":189036,"Delta":112256646},{"NoteNumber":51,"Velocity":38,"Duration":94517,"SoundDuration":94517,"Delta":112256646},{"NoteNumber":53,"Velocity":40,"Duration":94518,"SoundDuration":94518,"Delta":112351164},{"NoteNumber":63,"Velocity":73,"Duration":186161,"SoundDuration":186161,"Delta":112445682},{"NoteNumber":46,"Velocity":50,"Duration":93080,"SoundDuration":93080,"Delta":112445682},{"NoteNumber":48,"Velocity":40,"Duration":93080,"SoundDuration":93080,"Delta":112538763},{"NoteNumber":57,"Velocity":63,"Duration":202410,"SoundDuration":202410,"Delta":112631844},{"NoteNumber":51,"Velocity":39,"Duration":93080,"SoundDuration":93080,"Delta":112631844},{"NoteNumber":53,"Velocity":43,"Duration":109329,"SoundDuration":109329,"Delta":112724925},{"NoteNumber":58,"Velocity":79,"Duration":104748,"SoundDuration":104748,"Delta":112834254},{"NoteNumber":46,"Velocity":60,"Duration":104748,"SoundDuration":104748,"Delta":112834254},{"NoteNumber":62,"Velocity":68,"Duration":89445,"SoundDuration":89445,"Delta":113043751},{"NoteNumber":60,"Velocity":65,"Duration":89445,"SoundDuration":89445,"Delta":113133197},{"NoteNumber":58,"Velocity":71,"Duration":89445,"SoundDuration":89445,"Delta":113222642},{"NoteNumber":46,"Velocity":53,"Duration":89445,"SoundDuration":89445,"Delta":113222642},{"NoteNumber":57,"Velocity":65,"Duration":89445,"SoundDuration":89445,"Delta":113312088},{"NoteNumber":45,"Velocity":46,"Duration":89445,"SoundDuration":89445,"Delta":113312088},{"NoteNumber":58,"Velocity":71,"Duration":89445,"SoundDuration":89445,"Delta":113401533},{"NoteNumber":46,"Velocity":53,"Duration":89445,"SoundDuration":89445,"Delta":113401533},{"NoteNumber":55,"Velocity":65,"Duration":89445,"SoundDuration":89445,"Delta":113490979},{"NoteNumber":43,"Velocity":46,"Duration":89445,"SoundDuration":89445,"Delta":113490979},{"NoteNumber":53,"Velocity":79,"Duration":108538,"SoundDuration":108538,"Delta":113580424},{"NoteNumber":41,"Velocity":60,"Duration":108538,"SoundDuration":108538,"Delta":113580424},{"NoteNumber":67,"Velocity":68,"Duration":89445,"SoundDuration":89445,"Delta":113793347},{"NoteNumber":65,"Velocity":65,"Duration":89445,"SoundDuration":89445,"Delta":113882792},{"NoteNumber":63,"Velocity":71,"Duration":89445,"SoundDuration":89445,"Delta":113972238},{"NoteNumber":51,"Velocity":53,"Duration":89445,"SoundDuration":89445,"Delta":113972238},{"NoteNumber":62,"Velocity":65,"Duration":89445,"SoundDuration":89445,"Delta":114061683},{"NoteNumber":50,"Velocity":46,"Duration":89445,"SoundDuration":89445,"Delta":114061683},{"NoteNumber":63,"Velocity":71,"Duration":89445,"SoundDuration":89445,"Delta":114151129},{"NoteNumber":51,"Velocity":53,"Duration":89445,"SoundDuration":89445,"Delta":114151129},{"NoteNumber":60,"Velocity":65,"Duration":89445,"SoundDuration":89445,"Delta":114240574},{"NoteNumber":48,"Velocity":46,"Duration":89445,"SoundDuration":89445,"Delta":114240574},{"NoteNumber":58,"Velocity":79,"Duration":108538,"SoundDuration":108538,"Delta":114330020},{"NoteNumber":46,"Velocity":60,"Duration":108538,"SoundDuration":108538,"Delta":114330020},{"NoteNumber":74,"Velocity":68,"Duration":89445,"SoundDuration":89445,"Delta":114542580},{"NoteNumber":72,"Velocity":65,"Duration":89445,"SoundDuration":89445,"Delta":114632026},{"NoteNumber":70,"Velocity":71,"Duration":88157,"SoundDuration":88157,"Delta":114721471},{"NoteNumber":58,"Velocity":53,"Duration":88157,"SoundDuration":88157,"Delta":114721471},{"NoteNumber":69,"Velocity":65,"Duration":88157,"SoundDuration":88157,"Delta":114809629},{"NoteNumber":57,"Velocity":46,"Duration":88157,"SoundDuration":88157,"Delta":114809629},{"NoteNumber":70,"Velocity":71,"Duration":88157,"SoundDuration":88157,"Delta":114897786},{"NoteNumber":58,"Velocity":53,"Duration":88157,"SoundDuration":88157,"Delta":114897786},{"NoteNumber":67,"Velocity":65,"Duration":88157,"SoundDuration":88157,"Delta":114985944},{"NoteNumber":55,"Velocity":46,"Duration":88157,"SoundDuration":88157,"Delta":114985944},{"NoteNumber":65,"Velocity":79,"Duration":108538,"SoundDuration":108538,"Delta":115074101},{"NoteNumber":53,"Velocity":60,"Duration":108538,"SoundDuration":108538,"Delta":115074101},{"NoteNumber":79,"Velocity":78,"Duration":89445,"SoundDuration":89445,"Delta":115286662},{"NoteNumber":77,"Velocity":74,"Duration":89445,"SoundDuration":89445,"Delta":115376107},{"NoteNumber":75,"Velocity":81,"Duration":88157,"SoundDuration":88157,"Delta":115465553},{"NoteNumber":63,"Velocity":60,"Duration":88157,"SoundDuration":88157,"Delta":115465553},{"NoteNumber":74,"Velocity":74,"Duration":88157,"SoundDuration":88157,"Delta":115553710},{"NoteNumber":62,"Velocity":52,"Duration":88157,"SoundDuration":88157,"Delta":115553710},{"NoteNumber":75,"Velocity":81,"Duration":88157,"SoundDuration":88157,"Delta":115641868},{"NoteNumber":63,"Velocity":60,"Duration":88157,"SoundDuration":88157,"Delta":115641868},{"NoteNumber":72,"Velocity":74,"Duration":88157,"SoundDuration":88157,"Delta":115730025},{"NoteNumber":60,"Velocity":52,"Duration":88157,"SoundDuration":88157,"Delta":115730025},{"NoteNumber":70,"Velocity":90,"Duration":108538,"SoundDuration":108538,"Delta":115818183},{"NoteNumber":58,"Velocity":69,"Duration":108538,"SoundDuration":108538,"Delta":115818183},{"NoteNumber":72,"Velocity":68,"Duration":92764,"SoundDuration":92764,"Delta":116035259},{"NoteNumber":60,"Velocity":53,"Duration":92764,"SoundDuration":92764,"Delta":116035259},{"NoteNumber":74,"Velocity":68,"Duration":92764,"SoundDuration":92764,"Delta":116128024},{"NoteNumber":62,"Velocity":48,"Duration":92764,"SoundDuration":92764,"Delta":116128024},{"NoteNumber":75,"Velocity":77,"Duration":92764,"SoundDuration":92764,"Delta":116220788},{"NoteNumber":63,"Velocity":54,"Duration":92764,"SoundDuration":92764,"Delta":116220788},{"NoteNumber":77,"Velocity":70,"Duration":92764,"SoundDuration":92764,"Delta":116313553},{"NoteNumber":65,"Velocity":48,"Duration":92764,"SoundDuration":92764,"Delta":116313553},{"NoteNumber":79,"Velocity":70,"Duration":92764,"SoundDuration":92764,"Delta":116406317},{"NoteNumber":67,"Velocity":48,"Duration":92764,"SoundDuration":92764,"Delta":116406317},{"NoteNumber":81,"Velocity":71,"Duration":92807,"SoundDuration":92807,"Delta":116499082},{"NoteNumber":69,"Velocity":49,"Duration":92807,"SoundDuration":92807,"Delta":116499082},{"NoteNumber":82,"Velocity":73,"Duration":23335,"SoundDuration":23335,"Delta":116591889},{"NoteNumber":70,"Velocity":56,"Duration":93136,"SoundDuration":93136,"Delta":116591889},{"NoteNumber":84,"Velocity":65,"Duration":23308,"SoundDuration":23308,"Delta":116615225},{"NoteNumber":82,"Velocity":81,"Duration":46492,"SoundDuration":46492,"Delta":116638534},{"NoteNumber":81,"Velocity":72,"Duration":92540,"SoundDuration":92540,"Delta":116685026},{"NoteNumber":69,"Velocity":50,"Duration":92540,"SoundDuration":92540,"Delta":116685026},{"NoteNumber":82,"Velocity":73,"Duration":91860,"SoundDuration":91860,"Delta":116777567},{"NoteNumber":70,"Velocity":50,"Duration":91860,"SoundDuration":91860,"Delta":116777567},{"NoteNumber":84,"Velocity":74,"Duration":91170,"SoundDuration":91170,"Delta":116869427},{"NoteNumber":72,"Velocity":51,"Duration":91170,"SoundDuration":91170,"Delta":116869427},{"NoteNumber":86,"Velocity":74,"Duration":22791,"SoundDuration":22791,"Delta":116960598},{"NoteNumber":74,"Velocity":58,"Duration":91926,"SoundDuration":91926,"Delta":116960598},{"NoteNumber":87,"Velocity":66,"Duration":22977,"SoundDuration":22977,"Delta":116983390},{"NoteNumber":86,"Velocity":83,"Duration":92646,"SoundDuration":92646,"Delta":117006368},{"NoteNumber":84,"Velocity":75,"Duration":93297,"SoundDuration":93297,"Delta":117052524},{"NoteNumber":72,"Velocity":52,"Duration":93297,"SoundDuration":93297,"Delta":117052524},{"NoteNumber":86,"Velocity":76,"Duration":94678,"SoundDuration":94678,"Delta":117145822},{"NoteNumber":74,"Velocity":52,"Duration":94678,"SoundDuration":94678,"Delta":117145822},{"NoteNumber":88,"Velocity":76,"Duration":108538,"SoundDuration":108538,"Delta":117240500},{"NoteNumber":76,"Velocity":53,"Duration":108538,"SoundDuration":108538,"Delta":117240500},{"NoteNumber":89,"Velocity":97,"Duration":99206,"SoundDuration":99206,"Delta":117349039},{"NoteNumber":77,"Velocity":73,"Duration":99206,"SoundDuration":99206,"Delta":117349039},{"NoteNumber":65,"Velocity":79,"Duration":99206,"SoundDuration":99206,"Delta":117745864},{"NoteNumber":53,"Velocity":60,"Duration":99206,"SoundDuration":99206,"Delta":117745864},{"NoteNumber":46,"Velocity":65,"Duration":90252,"SoundDuration":90252,"Delta":118539514},{"NoteNumber":45,"Velocity":57,"Duration":90252,"SoundDuration":90252,"Delta":118629766},{"NoteNumber":46,"Velocity":62,"Duration":90252,"SoundDuration":90252,"Delta":118720019},{"NoteNumber":41,"Velocity":55,"Duration":94816,"SoundDuration":94816,"Delta":118810272},{"NoteNumber":50,"Velocity":65,"Duration":90279,"SoundDuration":90279,"Delta":118905089},{"NoteNumber":49,"Velocity":58,"Duration":90279,"SoundDuration":90279,"Delta":118995368},{"NoteNumber":50,"Velocity":63,"Duration":90279,"SoundDuration":90279,"Delta":119085648},{"NoteNumber":46,"Velocity":57,"Duration":94816,"SoundDuration":94816,"Delta":119175928},{"NoteNumber":53,"Velocity":65,"Duration":90252,"SoundDuration":90252,"Delta":119270745},{"NoteNumber":52,"Velocity":58,"Duration":90252,"SoundDuration":90252,"Delta":119360997},{"NoteNumber":53,"Velocity":63,"Duration":90252,"SoundDuration":90252,"Delta":119451250},{"NoteNumber":50,"Velocity":57,"Duration":94816,"SoundDuration":94816,"Delta":119541503},{"NoteNumber":58,"Velocity":65,"Duration":88941,"SoundDuration":88941,"Delta":119636320},{"NoteNumber":57,"Velocity":58,"Duration":88941,"SoundDuration":88941,"Delta":119725261},{"NoteNumber":58,"Velocity":63,"Duration":88941,"SoundDuration":88941,"Delta":119814203},{"NoteNumber":53,"Velocity":57,"Duration":94816,"SoundDuration":94816,"Delta":119903144},{"NoteNumber":62,"Velocity":63,"Duration":88941,"SoundDuration":88941,"Delta":119997961},{"NoteNumber":61,"Velocity":58,"Duration":88941,"SoundDuration":88941,"Delta":120086902},{"NoteNumber":62,"Velocity":62,"Duration":88941,"SoundDuration":88941,"Delta":120175844},{"NoteNumber":58,"Velocity":57,"Duration":112191,"SoundDuration":112191,"Delta":120264785},{"NoteNumber":65,"Velocity":72,"Duration":646362,"SoundDuration":646362,"Delta":120376977},{"NoteNumber":63,"Velocity":63,"Duration":95117,"SoundDuration":95117,"Delta":121023340},{"NoteNumber":77,"Velocity":75,"Duration":1499304,"SoundDuration":1499304,"Delta":121118457},{"NoteNumber":62,"Velocity":71,"Duration":274893,"SoundDuration":274893,"Delta":121118457},{"NoteNumber":60,"Velocity":63,"Duration":91630,"SoundDuration":91630,"Delta":121393350},{"NoteNumber":58,"Velocity":72,"Duration":274893,"SoundDuration":274893,"Delta":121484981},{"NoteNumber":56,"Velocity":63,"Duration":99206,"SoundDuration":99206,"Delta":121759874},{"NoteNumber":55,"Velocity":72,"Duration":758680,"SoundDuration":758680,"Delta":121859080},{"NoteNumber":71,"Velocity":56,"Duration":392156,"SoundDuration":392156,"Delta":122225604},{"NoteNumber":72,"Velocity":44,"Duration":377358,"SoundDuration":377358,"Delta":122617761},{"NoteNumber":75,"Velocity":53,"Duration":377358,"SoundDuration":377358,"Delta":122617761},{"NoteNumber":56,"Velocity":48,"Duration":377358,"SoundDuration":377358,"Delta":122617761},{"NoteNumber":69,"Velocity":41,"Duration":389105,"SoundDuration":389105,"Delta":122995119},{"NoteNumber":74,"Velocity":49,"Duration":759474,"SoundDuration":759474,"Delta":122995119},{"NoteNumber":54,"Velocity":42,"Duration":389105,"SoundDuration":389105,"Delta":122995119},{"NoteNumber":70,"Velocity":55,"Duration":370369,"SoundDuration":370369,"Delta":123384224},{"NoteNumber":55,"Velocity":51,"Duration":370369,"SoundDuration":370369,"Delta":123384224},{"NoteNumber":67,"Velocity":41,"Duration":370370,"SoundDuration":370370,"Delta":123754594},{"NoteNumber":72,"Velocity":49,"Duration":740740,"SoundDuration":740740,"Delta":123754594},{"NoteNumber":52,"Velocity":44,"Duration":370370,"SoundDuration":370370,"Delta":123754594},{"NoteNumber":69,"Velocity":55,"Duration":370369,"SoundDuration":370369,"Delta":124124964},{"NoteNumber":53,"Velocity":52,"Duration":370369,"SoundDuration":370369,"Delta":124124964},{"NoteNumber":65,"Velocity":42,"Duration":388350,"SoundDuration":388350,"Delta":124495334},{"NoteNumber":71,"Velocity":50,"Duration":388350,"SoundDuration":388350,"Delta":124495334},{"NoteNumber":50,"Velocity":34,"Duration":388350,"SoundDuration":388350,"Delta":124495334},{"NoteNumber":72,"Velocity":68,"Duration":89982,"SoundDuration":89982,"Delta":124883684},{"NoteNumber":36,"Velocity":51,"Duration":179963,"SoundDuration":179963,"Delta":124883684},{"NoteNumber":48,"Velocity":51,"Duration":179963,"SoundDuration":179963,"Delta":124883684},{"NoteNumber":64,"Velocity":34,"Duration":89981,"SoundDuration":89981,"Delta":124973666},{"NoteNumber":67,"Velocity":40,"Duration":89981,"SoundDuration":89981,"Delta":124973666},{"NoteNumber":72,"Velocity":62,"Duration":89982,"SoundDuration":89982,"Delta":125063648},{"NoteNumber":60,"Velocity":42,"Duration":102729,"SoundDuration":102729,"Delta":125063648},{"NoteNumber":64,"Velocity":33,"Duration":89981,"SoundDuration":89981,"Delta":125153630},{"NoteNumber":67,"Velocity":39,"Duration":89981,"SoundDuration":89981,"Delta":125153630},{"NoteNumber":72,"Velocity":64,"Duration":89982,"SoundDuration":89982,"Delta":125243612},{"NoteNumber":60,"Velocity":42,"Duration":102729,"SoundDuration":102729,"Delta":125243612},{"NoteNumber":64,"Velocity":34,"Duration":89981,"SoundDuration":89981,"Delta":125333594},{"NoteNumber":67,"Velocity":41,"Duration":89981,"SoundDuration":89981,"Delta":125333594},{"NoteNumber":74,"Velocity":68,"Duration":89982,"SoundDuration":89982,"Delta":125423576},{"NoteNumber":60,"Velocity":42,"Duration":103329,"SoundDuration":103329,"Delta":125423576},{"NoteNumber":64,"Velocity":34,"Duration":94221,"SoundDuration":94221,"Delta":125513558},{"NoteNumber":67,"Velocity":40,"Duration":94221,"SoundDuration":94221,"Delta":125513558},{"NoteNumber":76,"Velocity":62,"Duration":89713,"SoundDuration":89713,"Delta":125607779},{"NoteNumber":60,"Velocity":51,"Duration":102422,"SoundDuration":102422,"Delta":125607779},{"NoteNumber":67,"Velocity":38,"Duration":89713,"SoundDuration":89713,"Delta":125697492},{"NoteNumber":70,"Velocity":45,"Duration":89713,"SoundDuration":89713,"Delta":125697492},{"NoteNumber":72,"Velocity":68,"Duration":89712,"SoundDuration":89712,"Delta":125787205},{"NoteNumber":60,"Velocity":43,"Duration":102422,"SoundDuration":102422,"Delta":125787205},{"NoteNumber":67,"Velocity":38,"Duration":89713,"SoundDuration":89713,"Delta":125876918},{"NoteNumber":70,"Velocity":45,"Duration":89713,"SoundDuration":89713,"Delta":125876918},{"NoteNumber":74,"Velocity":68,"Duration":88678,"SoundDuration":88678,"Delta":125966631},{"NoteNumber":60,"Velocity":43,"Duration":101241,"SoundDuration":101241,"Delta":125966631},{"NoteNumber":67,"Velocity":38,"Duration":88678,"SoundDuration":88678,"Delta":126055310},{"NoteNumber":70,"Velocity":45,"Duration":88678,"SoundDuration":88678,"Delta":126055310},{"NoteNumber":76,"Velocity":70,"Duration":88678,"SoundDuration":88678,"Delta":126143989},{"NoteNumber":60,"Velocity":43,"Duration":101984,"SoundDuration":101984,"Delta":126143989},{"NoteNumber":67,"Velocity":38,"Duration":93925,"SoundDuration":93925,"Delta":126232667},{"NoteNumber":70,"Velocity":45,"Duration":93925,"SoundDuration":93925,"Delta":126232667},{"NoteNumber":77,"Velocity":68,"Duration":89982,"SoundDuration":89982,"Delta":126326593},{"NoteNumber":60,"Velocity":51,"Duration":102729,"SoundDuration":102729,"Delta":126326593},{"NoteNumber":65,"Velocity":34,"Duration":89981,"SoundDuration":89981,"Delta":126416575},{"NoteNumber":69,"Velocity":40,"Duration":89981,"SoundDuration":89981,"Delta":126416575},{"NoteNumber":77,"Velocity":62,"Duration":89982,"SoundDuration":89982,"Delta":126506557},{"NoteNumber":60,"Velocity":42,"Duration":102729,"SoundDuration":102729,"Delta":126506557},{"NoteNumber":65,"Velocity":33,"Duration":89981,"SoundDuration":89981,"Delta":126596539},{"NoteNumber":69,"Velocity":39,"Duration":89981,"SoundDuration":89981,"Delta":126596539},{"NoteNumber":77,"Velocity":64,"Duration":89982,"SoundDuration":89982,"Delta":126686521},{"NoteNumber":60,"Velocity":42,"Duration":102729,"SoundDuration":102729,"Delta":126686521},{"NoteNumber":65,"Velocity":34,"Duration":89981,"SoundDuration":89981,"Delta":126776503},{"NoteNumber":69,"Velocity":41,"Duration":89981,"SoundDuration":89981,"Delta":126776503},{"NoteNumber":76,"Velocity":68,"Duration":89981,"SoundDuration":89981,"Delta":126866485},{"NoteNumber":60,"Velocity":42,"Duration":103329,"SoundDuration":103329,"Delta":126866485},{"NoteNumber":65,"Velocity":34,"Duration":94221,"SoundDuration":94221,"Delta":126956467},{"NoteNumber":69,"Velocity":40,"Duration":94221,"SoundDuration":94221,"Delta":126956467},{"NoteNumber":74,"Velocity":62,"Duration":89712,"SoundDuration":89712,"Delta":127050688},{"NoteNumber":60,"Velocity":51,"Duration":102422,"SoundDuration":102422,"Delta":127050688},{"NoteNumber":65,"Velocity":38,"Duration":89713,"SoundDuration":89713,"Delta":127140401},{"NoteNumber":68,"Velocity":45,"Duration":89713,"SoundDuration":89713,"Delta":127140401},{"NoteNumber":72,"Velocity":68,"Duration":89712,"SoundDuration":89712,"Delta":127230114},{"NoteNumber":60,"Velocity":43,"Duration":102422,"SoundDuration":102422,"Delta":127230114},{"NoteNumber":65,"Velocity":38,"Duration":89713,"SoundDuration":89713,"Delta":127319827},{"NoteNumber":68,"Velocity":45,"Duration":89713,"SoundDuration":89713,"Delta":127319827},{"NoteNumber":71,"Velocity":68,"Duration":89712,"SoundDuration":89712,"Delta":127409540},{"NoteNumber":60,"Velocity":43,"Duration":102422,"SoundDuration":102422,"Delta":127409540},{"NoteNumber":65,"Velocity":38,"Duration":89712,"SoundDuration":89712,"Delta":127499253},{"NoteNumber":68,"Velocity":45,"Duration":89712,"SoundDuration":89712,"Delta":127499253},{"NoteNumber":74,"Velocity":70,"Duration":89713,"SoundDuration":89713,"Delta":127588966},{"NoteNumber":60,"Velocity":43,"Duration":108498,"SoundDuration":108498,"Delta":127588966},{"NoteNumber":65,"Velocity":38,"Duration":93926,"SoundDuration":93926,"Delta":127678679},{"NoteNumber":68,"Velocity":45,"Duration":93926,"SoundDuration":93926,"Delta":127678679},{"NoteNumber":72,"Velocity":68,"Duration":90552,"SoundDuration":90552,"Delta":127772605},{"NoteNumber":36,"Velocity":51,"Duration":181104,"SoundDuration":181104,"Delta":127772605},{"NoteNumber":48,"Velocity":51,"Duration":181104,"SoundDuration":181104,"Delta":127772605},{"NoteNumber":64,"Velocity":34,"Duration":90552,"SoundDuration":90552,"Delta":127863158},{"NoteNumber":67,"Velocity":40,"Duration":90552,"SoundDuration":90552,"Delta":127863158},{"NoteNumber":71,"Velocity":62,"Duration":90552,"SoundDuration":90552,"Delta":127953710},{"NoteNumber":60,"Velocity":42,"Duration":103380,"SoundDuration":103380,"Delta":127953710},{"NoteNumber":64,"Velocity":33,"Duration":90552,"SoundDuration":90552,"Delta":128044262},{"NoteNumber":67,"Velocity":39,"Duration":90552,"SoundDuration":90552,"Delta":128044262},{"NoteNumber":72,"Velocity":64,"Duration":90009,"SoundDuration":90009,"Delta":128134814},{"NoteNumber":60,"Velocity":42,"Duration":102760,"SoundDuration":102760,"Delta":128134814},{"NoteNumber":64,"Velocity":34,"Duration":90008,"SoundDuration":90008,"Delta":128224823},{"NoteNumber":67,"Velocity":41,"Duration":90008,"SoundDuration":90008,"Delta":128224823},{"NoteNumber":74,"Velocity":68,"Duration":90009,"SoundDuration":90009,"Delta":128314832},{"NoteNumber":60,"Velocity":42,"Duration":103356,"SoundDuration":103356,"Delta":128314832},{"NoteNumber":64,"Velocity":34,"Duration":94221,"SoundDuration":94221,"Delta":128404841},{"NoteNumber":67,"Velocity":40,"Duration":94221,"SoundDuration":94221,"Delta":128404841},{"NoteNumber":76,"Velocity":62,"Duration":89712,"SoundDuration":89712,"Delta":128499062},{"NoteNumber":60,"Velocity":51,"Duration":102422,"SoundDuration":102422,"Delta":128499062},{"NoteNumber":67,"Velocity":38,"Duration":89713,"SoundDuration":89713,"Delta":128588775},{"NoteNumber":70,"Velocity":45,"Duration":89713,"SoundDuration":89713,"Delta":128588775},{"NoteNumber":72,"Velocity":68,"Duration":89712,"SoundDuration":89712,"Delta":128678488},{"NoteNumber":60,"Velocity":43,"Duration":102422,"SoundDuration":102422,"Delta":128678488},{"NoteNumber":67,"Velocity":38,"Duration":89713,"SoundDuration":89713,"Delta":128768201},{"NoteNumber":70,"Velocity":45,"Duration":89713,"SoundDuration":89713,"Delta":128768201},{"NoteNumber":74,"Velocity":68,"Duration":89205,"SoundDuration":89205,"Delta":128857914},{"NoteNumber":60,"Velocity":43,"Duration":101843,"SoundDuration":101843,"Delta":128857914},{"NoteNumber":67,"Velocity":38,"Duration":89206,"SoundDuration":89206,"Delta":128947120},{"NoteNumber":70,"Velocity":45,"Duration":89206,"SoundDuration":89206,"Delta":128947120},{"NoteNumber":76,"Velocity":70,"Duration":89205,"SoundDuration":89205,"Delta":129036326},{"NoteNumber":60,"Velocity":43,"Duration":102512,"SoundDuration":102512,"Delta":129036326},{"NoteNumber":67,"Velocity":38,"Duration":93926,"SoundDuration":93926,"Delta":129125532},{"NoteNumber":70,"Velocity":45,"Duration":93926,"SoundDuration":93926,"Delta":129125532},{"NoteNumber":77,"Velocity":68,"Duration":89981,"SoundDuration":89981,"Delta":129219458},{"NoteNumber":60,"Velocity":51,"Duration":102729,"SoundDuration":102729,"Delta":129219458},{"NoteNumber":65,"Velocity":34,"Duration":89982,"SoundDuration":89982,"Delta":129309440},{"NoteNumber":69,"Velocity":40,"Duration":89982,"SoundDuration":89982,"Delta":129309440},{"NoteNumber":77,"Velocity":62,"Duration":89981,"SoundDuration":89981,"Delta":129399422},{"NoteNumber":60,"Velocity":42,"Duration":102729,"SoundDuration":102729,"Delta":129399422},{"NoteNumber":65,"Velocity":33,"Duration":89981,"SoundDuration":89981,"Delta":129489404},{"NoteNumber":69,"Velocity":39,"Duration":89981,"SoundDuration":89981,"Delta":129489404},{"NoteNumber":77,"Velocity":64,"Duration":88417,"SoundDuration":88417,"Delta":129579386},{"NoteNumber":60,"Velocity":42,"Duration":100943,"SoundDuration":100943,"Delta":129579386},{"NoteNumber":65,"Velocity":34,"Duration":88417,"SoundDuration":88417,"Delta":129667804},{"NoteNumber":69,"Velocity":41,"Duration":88417,"SoundDuration":88417,"Delta":129667804},{"NoteNumber":76,"Velocity":68,"Duration":88417,"SoundDuration":88417,"Delta":129756221},{"NoteNumber":60,"Velocity":42,"Duration":101765,"SoundDuration":101765,"Delta":129756221},{"NoteNumber":65,"Velocity":34,"Duration":94221,"SoundDuration":94221,"Delta":129844638},{"NoteNumber":69,"Velocity":40,"Duration":94221,"SoundDuration":94221,"Delta":129844638},{"NoteNumber":74,"Velocity":62,"Duration":89712,"SoundDuration":89712,"Delta":129938859},{"NoteNumber":60,"Velocity":51,"Duration":102422,"SoundDuration":102422,"Delta":129938859},{"NoteNumber":65,"Velocity":38,"Duration":89713,"SoundDuration":89713,"Delta":130028572},{"NoteNumber":68,"Velocity":45,"Duration":89713,"SoundDuration":89713,"Delta":130028572},{"NoteNumber":72,"Velocity":68,"Duration":89712,"SoundDuration":89712,"Delta":130118285},{"NoteNumber":60,"Velocity":43,"Duration":102422,"SoundDuration":102422,"Delta":130118285},{"NoteNumber":65,"Velocity":38,"Duration":89713,"SoundDuration":89713,"Delta":130207998},{"NoteNumber":68,"Velocity":45,"Duration":89713,"SoundDuration":89713,"Delta":130207998},{"NoteNumber":71,"Velocity":68,"Duration":89712,"SoundDuration":89712,"Delta":130297711},{"NoteNumber":60,"Velocity":43,"Duration":102422,"SoundDuration":102422,"Delta":130297711},{"NoteNumber":65,"Velocity":38,"Duration":89712,"SoundDuration":89712,"Delta":130387424},{"NoteNumber":68,"Velocity":45,"Duration":89712,"SoundDuration":89712,"Delta":130387424},{"NoteNumber":74,"Velocity":70,"Duration":89713,"SoundDuration":89713,"Delta":130477137},{"NoteNumber":60,"Velocity":43,"Duration":108498,"SoundDuration":108498,"Delta":130477137},{"NoteNumber":65,"Velocity":38,"Duration":93926,"SoundDuration":93926,"Delta":130566850},{"NoteNumber":68,"Velocity":45,"Duration":93926,"SoundDuration":93926,"Delta":130566850},{"NoteNumber":72,"Velocity":78,"Duration":89712,"SoundDuration":89712,"Delta":130660776},{"NoteNumber":48,"Velocity":51,"Duration":170454,"SoundDuration":170454,"Delta":130660776},{"NoteNumber":64,"Velocity":38,"Duration":89713,"SoundDuration":89713,"Delta":130750489},{"NoteNumber":67,"Velocity":45,"Duration":89713,"SoundDuration":89713,"Delta":130750489},{"NoteNumber":72,"Velocity":68,"Duration":89712,"SoundDuration":89712,"Delta":130840202},{"NoteNumber":60,"Velocity":43,"Duration":102422,"SoundDuration":102422,"Delta":130840202},{"NoteNumber":64,"Velocity":38,"Duration":89713,"SoundDuration":89713,"Delta":130929915},{"NoteNumber":67,"Velocity":45,"Duration":89713,"SoundDuration":89713,"Delta":130929915},{"NoteNumber":71,"Velocity":68,"Duration":88941,"SoundDuration":88941,"Delta":131019628},{"NoteNumber":60,"Velocity":43,"Duration":101541,"SoundDuration":101541,"Delta":131019628},{"NoteNumber":65,"Velocity":38,"Duration":88941,"SoundDuration":88941,"Delta":131108570},{"NoteNumber":68,"Velocity":45,"Duration":88941,"SoundDuration":88941,"Delta":131108570},{"NoteNumber":74,"Velocity":70,"Duration":88941,"SoundDuration":88941,"Delta":131197511},{"NoteNumber":60,"Velocity":43,"Duration":107726,"SoundDuration":107726,"Delta":131197511},{"NoteNumber":65,"Velocity":38,"Duration":93926,"SoundDuration":93926,"Delta":131286453},{"NoteNumber":68,"Velocity":45,"Duration":93926,"SoundDuration":93926,"Delta":131286453},{"NoteNumber":72,"Velocity":76,"Duration":89712,"SoundDuration":89712,"Delta":131380379},{"NoteNumber":48,"Velocity":51,"Duration":170454,"SoundDuration":170454,"Delta":131380379},{"NoteNumber":64,"Velocity":38,"Duration":89713,"SoundDuration":89713,"Delta":131470092},{"NoteNumber":67,"Velocity":45,"Duration":89713,"SoundDuration":89713,"Delta":131470092},{"NoteNumber":72,"Velocity":68,"Duration":89712,"SoundDuration":89712,"Delta":131559805},{"NoteNumber":60,"Velocity":43,"Duration":102422,"SoundDuration":102422,"Delta":131559805},{"NoteNumber":64,"Velocity":38,"Duration":89713,"SoundDuration":89713,"Delta":131649518},{"NoteNumber":67,"Velocity":45,"Duration":89713,"SoundDuration":89713,"Delta":131649518},{"NoteNumber":71,"Velocity":68,"Duration":88941,"SoundDuration":88941,"Delta":131739231},{"NoteNumber":60,"Velocity":43,"Duration":101541,"SoundDuration":101541,"Delta":131739231},{"NoteNumber":65,"Velocity":38,"Duration":88941,"SoundDuration":88941,"Delta":131828172},{"NoteNumber":68,"Velocity":45,"Duration":88941,"SoundDuration":88941,"Delta":131828172},{"NoteNumber":74,"Velocity":70,"Duration":88941,"SoundDuration":88941,"Delta":131917114},{"NoteNumber":60,"Velocity":43,"Duration":110045,"SoundDuration":110045,"Delta":131917114},{"NoteNumber":65,"Velocity":38,"Duration":105522,"SoundDuration":105522,"Delta":132006055},{"NoteNumber":68,"Velocity":45,"Duration":105522,"SoundDuration":105522,"Delta":132006055},{"NoteNumber":64,"Velocity":59,"Duration":93926,"SoundDuration":93926,"Delta":132111577},{"NoteNumber":67,"Velocity":59,"Duration":93926,"SoundDuration":93926,"Delta":132111577},{"NoteNumber":72,"Velocity":70,"Duration":93926,"SoundDuration":93926,"Delta":132111577},{"NoteNumber":48,"Velocity":51,"Duration":370329,"SoundDuration":370329,"Delta":132111577},{"NoteNumber":60,"Velocity":35,"Duration":102978,"SoundDuration":102978,"Delta":132205503},{"NoteNumber":62,"Velocity":40,"Duration":100383,"SoundDuration":100383,"Delta":132299429},{"NoteNumber":64,"Velocity":35,"Duration":100359,"SoundDuration":100359,"Delta":132390666},{"NoteNumber":65,"Velocity":40,"Duration":100009,"SoundDuration":100009,"Delta":132481907},{"NoteNumber":67,"Velocity":35,"Duration":99650,"SoundDuration":99650,"Delta":132572853},{"NoteNumber":69,"Velocity":40,"Duration":99194,"SoundDuration":99194,"Delta":132663467},{"NoteNumber":71,"Velocity":33,"Duration":98829,"SoundDuration":98829,"Delta":132753680},{"NoteNumber":72,"Velocity":40,"Duration":99098,"SoundDuration":99098,"Delta":132843500},{"NoteNumber":71,"Velocity":33,"Duration":99320,"SoundDuration":99320,"Delta":132933590},{"NoteNumber":72,"Velocity":40,"Duration":99397,"SoundDuration":99397,"Delta":133023875},{"NoteNumber":71,"Velocity":33,"Duration":99397,"SoundDuration":99397,"Delta":133114236},{"NoteNumber":72,"Velocity":40,"Duration":99397,"SoundDuration":99397,"Delta":133204598},{"NoteNumber":71,"Velocity":34,"Duration":99397,"SoundDuration":99397,"Delta":133294959},{"NoteNumber":72,"Velocity":40,"Duration":100887,"SoundDuration":100887,"Delta":133385321},{"NoteNumber":71,"Velocity":33,"Duration":105263,"SoundDuration":105263,"Delta":133475682},{"NoteNumber":69,"Velocity":38,"Duration":741244,"SoundDuration":741244,"Delta":133580945},{"NoteNumber":72,"Velocity":43,"Duration":741244,"SoundDuration":741244,"Delta":133580945},{"NoteNumber":53,"Velocity":31,"Duration":100733,"SoundDuration":100733,"Delta":133672914},{"NoteNumber":55,"Velocity":36,"Duration":100311,"SoundDuration":100311,"Delta":133764500},{"NoteNumber":57,"Velocity":31,"Duration":99885,"SoundDuration":99885,"Delta":133855721},{"NoteNumber":58,"Velocity":36,"Duration":99486,"SoundDuration":99486,"Delta":133946543},{"NoteNumber":60,"Velocity":31,"Duration":99043,"SoundDuration":99043,"Delta":134036993},{"NoteNumber":62,"Velocity":36,"Duration":100260,"SoundDuration":100260,"Delta":134127054},{"NoteNumber":64,"Velocity":29,"Duration":114485,"SoundDuration":114485,"Delta":134216714},{"NoteNumber":69,"Velocity":49,"Duration":356318,"SoundDuration":356318,"Delta":134322190},{"NoteNumber":65,"Velocity":36,"Duration":97983,"SoundDuration":97983,"Delta":134322190},{"NoteNumber":64,"Velocity":29,"Duration":98386,"SoundDuration":98386,"Delta":134411332},{"NoteNumber":65,"Velocity":36,"Duration":97308,"SoundDuration":97308,"Delta":134500745},{"NoteNumber":64,"Velocity":29,"Duration":98271,"SoundDuration":98271,"Delta":134589203},{"NoteNumber":77,"Velocity":47,"Duration":355631,"SoundDuration":355631,"Delta":134678509},{"NoteNumber":65,"Velocity":36,"Duration":97688,"SoundDuration":97688,"Delta":134678509},{"NoteNumber":64,"Velocity":27,"Duration":97768,"SoundDuration":97768,"Delta":134767356},{"NoteNumber":65,"Velocity":34,"Duration":98003,"SoundDuration":98003,"Delta":134856133},{"NoteNumber":64,"Velocity":26,"Duration":88819,"SoundDuration":88819,"Delta":134945321},{"NoteNumber":69,"Velocity":41,"Duration":358473,"SoundDuration":358473,"Delta":135034140},{"NoteNumber":72,"Velocity":49,"Duration":358473,"SoundDuration":358473,"Delta":135034140},{"NoteNumber":65,"Velocity":30,"Duration":99553,"SoundDuration":99553,"Delta":135034140},{"NoteNumber":64,"Velocity":25,"Duration":97664,"SoundDuration":97664,"Delta":135124692},{"NoteNumber":65,"Velocity":30,"Duration":97699,"SoundDuration":97699,"Delta":135213436},{"NoteNumber":64,"Velocity":25,"Duration":99599,"SoundDuration":99599,"Delta":135302161},{"NoteNumber":81,"Velocity":43,"Duration":373095,"SoundDuration":373095,"Delta":135392614},{"NoteNumber":77,"Velocity":36,"Duration":373095,"SoundDuration":373095,"Delta":135392614},{"NoteNumber":65,"Velocity":30,"Duration":99657,"SoundDuration":99657,"Delta":135392614},{"NoteNumber":64,"Velocity":25,"Duration":99662,"SoundDuration":99662,"Delta":135483253},{"NoteNumber":65,"Velocity":30,"Duration":100304,"SoundDuration":100304,"Delta":135573879},{"NoteNumber":64,"Velocity":25,"Duration":110686,"SoundDuration":110686,"Delta":135664014},{"NoteNumber":69,"Velocity":42,"Duration":357014,"SoundDuration":357014,"Delta":135765709},{"NoteNumber":72,"Velocity":50,"Duration":357014,"SoundDuration":357014,"Delta":135765709},{"NoteNumber":65,"Velocity":30,"Duration":97559,"SoundDuration":97559,"Delta":135765709},{"NoteNumber":64,"Velocity":25,"Duration":98908,"SoundDuration":98908,"Delta":135854314},{"NoteNumber":65,"Velocity":30,"Duration":97648,"SoundDuration":97648,"Delta":135944248},{"NoteNumber":64,"Velocity":25,"Duration":98485,"SoundDuration":98485,"Delta":136033020},{"NoteNumber":84,"Velocity":43,"Duration":369525,"SoundDuration":369525,"Delta":136122724},{"NoteNumber":81,"Velocity":36,"Duration":369525,"SoundDuration":369525,"Delta":136122724},{"NoteNumber":65,"Velocity":30,"Duration":97698,"SoundDuration":97698,"Delta":136122724},{"NoteNumber":64,"Velocity":25,"Duration":98629,"SoundDuration":98629,"Delta":136211385},{"NoteNumber":65,"Velocity":30,"Duration":99647,"SoundDuration":99647,"Delta":136301077},{"NoteNumber":64,"Velocity":25,"Duration":101695,"SoundDuration":101695,"Delta":136390555},{"NoteNumber":69,"Velocity":38,"Duration":741244,"SoundDuration":741244,"Delta":136492250},{"NoteNumber":72,"Velocity":43,"Duration":741244,"SoundDuration":741244,"Delta":136492250},{"NoteNumber":65,"Velocity":30,"Duration":91968,"SoundDuration":91968,"Delta":136492250},{"NoteNumber":53,"Velocity":31,"Duration":100733,"SoundDuration":100733,"Delta":136584218},{"NoteNumber":55,"Velocity":36,"Duration":100311,"SoundDuration":100311,"Delta":136675805},{"NoteNumber":57,"Velocity":31,"Duration":99885,"SoundDuration":99885,"Delta":136767025},{"NoteNumber":58,"Velocity":36,"Duration":99486,"SoundDuration":99486,"Delta":136857847},{"NoteNumber":60,"Velocity":31,"Duration":99043,"SoundDuration":99043,"Delta":136948297},{"NoteNumber":62,"Velocity":36,"Duration":100260,"SoundDuration":100260,"Delta":137038358},{"NoteNumber":64,"Velocity":29,"Duration":114438,"SoundDuration":114438,"Delta":137128018},{"NoteNumber":69,"Velocity":49,"Duration":356160,"SoundDuration":356160,"Delta":137233494},{"NoteNumber":65,"Velocity":36,"Duration":97518,"SoundDuration":97518,"Delta":137233494},{"NoteNumber":64,"Velocity":29,"Duration":98502,"SoundDuration":98502,"Delta":137322154},{"NoteNumber":65,"Velocity":36,"Duration":97206,"SoundDuration":97206,"Delta":137411823},{"NoteNumber":64,"Velocity":29,"Duration":98467,"SoundDuration":98467,"Delta":137500055},{"NoteNumber":77,"Velocity":46,"Duration":356516,"SoundDuration":356516,"Delta":137589654},{"NoteNumber":65,"Velocity":36,"Duration":97302,"SoundDuration":97302,"Delta":137589654},{"NoteNumber":64,"Velocity":27,"Duration":99289,"SoundDuration":99289,"Delta":137678115},{"NoteNumber":65,"Velocity":34,"Duration":97648,"SoundDuration":97648,"Delta":137768403},{"NoteNumber":64,"Velocity":26,"Duration":88935,"SoundDuration":88935,"Delta":137857236},{"NoteNumber":69,"Velocity":41,"Duration":353364,"SoundDuration":353364,"Delta":137946171},{"NoteNumber":72,"Velocity":49,"Duration":353364,"SoundDuration":353364,"Delta":137946171},{"NoteNumber":65,"Velocity":30,"Duration":96207,"SoundDuration":96207,"Delta":137946171},{"NoteNumber":64,"Velocity":25,"Duration":96717,"SoundDuration":96717,"Delta":138033666},{"NoteNumber":65,"Velocity":30,"Duration":97897,"SoundDuration":97897,"Delta":138121577},{"NoteNumber":64,"Velocity":25,"Duration":98035,"SoundDuration":98035,"Delta":138210500},{"NoteNumber":81,"Velocity":43,"Duration":372101,"SoundDuration":372101,"Delta":138299535},{"NoteNumber":77,"Velocity":36,"Duration":372101,"SoundDuration":372101,"Delta":138299535},{"NoteNumber":65,"Velocity":30,"Duration":98663,"SoundDuration":98663,"Delta":138299535},{"NoteNumber":64,"Velocity":25,"Duration":99639,"SoundDuration":99639,"Delta":138389204},{"NoteNumber":65,"Velocity":30,"Duration":100304,"SoundDuration":100304,"Delta":138479807},{"NoteNumber":64,"Velocity":25,"Duration":110686,"SoundDuration":110686,"Delta":138569942},{"NoteNumber":69,"Velocity":42,"Duration":355661,"SoundDuration":355661,"Delta":138671637},{"NoteNumber":72,"Velocity":50,"Duration":355661,"SoundDuration":355661,"Delta":138671637},{"NoteNumber":65,"Velocity":30,"Duration":97471,"SoundDuration":97471,"Delta":138671637},{"NoteNumber":64,"Velocity":25,"Duration":99458,"SoundDuration":99458,"Delta":138760188},{"NoteNumber":65,"Velocity":30,"Duration":96886,"SoundDuration":96886,"Delta":138850626},{"NoteNumber":64,"Velocity":25,"Duration":97495,"SoundDuration":97495,"Delta":138938697},{"NoteNumber":84,"Velocity":43,"Duration":368565,"SoundDuration":368565,"Delta":139027298},{"NoteNumber":81,"Velocity":36,"Duration":368565,"SoundDuration":368565,"Delta":139027298},{"NoteNumber":65,"Velocity":30,"Duration":97410,"SoundDuration":97410,"Delta":139027298},{"NoteNumber":63,"Velocity":25,"Duration":97792,"SoundDuration":97792,"Delta":139115824},{"NoteNumber":65,"Velocity":30,"Duration":99650,"SoundDuration":99650,"Delta":139204688},{"NoteNumber":63,"Velocity":25,"Duration":101695,"SoundDuration":101695,"Delta":139294169},{"NoteNumber":69,"Velocity":41,"Duration":728935,"SoundDuration":728935,"Delta":139395864},{"NoteNumber":72,"Velocity":41,"Duration":728935,"SoundDuration":728935,"Delta":139395864},{"NoteNumber":74,"Velocity":49,"Duration":728935,"SoundDuration":728935,"Delta":139395864},{"NoteNumber":78,"Velocity":49,"Duration":728935,"SoundDuration":728935,"Delta":139395864},{"NoteNumber":61,"Velocity":39,"Duration":137195,"SoundDuration":137195,"Delta":139395864},{"NoteNumber":62,"Velocity":34,"Duration":91463,"SoundDuration":91463,"Delta":139487328},{"NoteNumber":61,"Velocity":39,"Duration":136918,"SoundDuration":136918,"Delta":139578791},{"NoteNumber":62,"Velocity":35,"Duration":90909,"SoundDuration":90909,"Delta":139670255},{"NoteNumber":59,"Velocity":41,"Duration":136363,"SoundDuration":136363,"Delta":139761164},{"NoteNumber":60,"Velocity":35,"Duration":90909,"SoundDuration":90909,"Delta":139852073},{"NoteNumber":59,"Velocity":42,"Duration":136363,"SoundDuration":136363,"Delta":139942982},{"NoteNumber":60,"Velocity":36,"Duration":90908,"SoundDuration":90908,"Delta":140033891},{"NoteNumber":56,"Velocity":44,"Duration":135951,"SoundDuration":135951,"Delta":140124800},{"NoteNumber":57,"Velocity":37,"Duration":90634,"SoundDuration":90634,"Delta":140215434},{"NoteNumber":56,"Velocity":45,"Duration":135951,"SoundDuration":135951,"Delta":140306069},{"NoteNumber":57,"Velocity":37,"Duration":90634,"SoundDuration":90634,"Delta":140396703},{"NoteNumber":53,"Velocity":44,"Duration":135951,"SoundDuration":135951,"Delta":140487338},{"NoteNumber":54,"Velocity":38,"Duration":90634,"SoundDuration":90634,"Delta":140577972},{"NoteNumber":53,"Velocity":44,"Duration":135951,"SoundDuration":135951,"Delta":140668607},{"NoteNumber":54,"Velocity":39,"Duration":90634,"SoundDuration":90634,"Delta":140759241},{"NoteNumber":49,"Velocity":45,"Duration":135542,"SoundDuration":135542,"Delta":140849876},{"NoteNumber":50,"Velocity":39,"Duration":90361,"SoundDuration":90361,"Delta":140940237},{"NoteNumber":49,"Velocity":46,"Duration":135542,"SoundDuration":135542,"Delta":141030599},{"NoteNumber":50,"Velocity":40,"Duration":90361,"SoundDuration":90361,"Delta":141120960},{"NoteNumber":78,"Velocity":70,"Duration":357143,"SoundDuration":357143,"Delta":141211322},{"NoteNumber":47,"Velocity":48,"Duration":133928,"SoundDuration":133928,"Delta":141211322},{"NoteNumber":48,"Velocity":41,"Duration":89285,"SoundDuration":89285,"Delta":141300607},{"NoteNumber":47,"Velocity":48,"Duration":133928,"SoundDuration":133928,"Delta":141389893},{"NoteNumber":48,"Velocity":41,"Duration":89285,"SoundDuration":89285,"Delta":141479179},{"NoteNumber":81,"Velocity":68,"Duration":353991,"SoundDuration":353991,"Delta":141568465},{"NoteNumber":44,"Velocity":54,"Duration":133403,"SoundDuration":133403,"Delta":141568465},{"NoteNumber":45,"Velocity":42,"Duration":88235,"SoundDuration":88235,"Delta":141657750},{"NoteNumber":44,"Velocity":52,"Duration":132352,"SoundDuration":132352,"Delta":141745986},{"NoteNumber":45,"Velocity":43,"Duration":88235,"SoundDuration":88235,"Delta":141834221},{"NoteNumber":84,"Velocity":66,"Duration":712190,"SoundDuration":712190,"Delta":141922456},{"NoteNumber":41,"Velocity":55,"Duration":134328,"SoundDuration":134328,"Delta":141922456},{"NoteNumber":42,"Velocity":44,"Duration":89552,"SoundDuration":89552,"Delta":142012008},{"NoteNumber":41,"Velocity":51,"Duration":134328,"SoundDuration":134328,"Delta":142101561},{"NoteNumber":42,"Velocity":44,"Duration":89552,"SoundDuration":89552,"Delta":142191113},{"NoteNumber":78,"Velocity":72,"Duration":717618,"SoundDuration":717618,"Delta":142280665},{"NoteNumber":37,"Velocity":57,"Duration":132743,"SoundDuration":132743,"Delta":142280665},{"NoteNumber":38,"Velocity":44,"Duration":88495,"SoundDuration":88495,"Delta":142369161},{"NoteNumber":37,"Velocity":51,"Duration":132743,"SoundDuration":132743,"Delta":142457656},{"NoteNumber":38,"Velocity":44,"Duration":88495,"SoundDuration":88495,"Delta":142546152},{"NoteNumber":82,"Velocity":73,"Duration":1423023,"SoundDuration":1423023,"Delta":142634647},{"NoteNumber":37,"Velocity":56,"Duration":136363,"SoundDuration":136363,"Delta":142634647},{"NoteNumber":38,"Velocity":50,"Duration":90908,"SoundDuration":90908,"Delta":142725556},{"NoteNumber":37,"Velocity":57,"Duration":136363,"SoundDuration":136363,"Delta":142816465},{"NoteNumber":38,"Velocity":44,"Duration":83333,"SoundDuration":83333,"Delta":142907374},{"NoteNumber":79,"Velocity":75,"Duration":1059387,"SoundDuration":1059387,"Delta":142998283},{"NoteNumber":38,"Velocity":61,"Duration":131578,"SoundDuration":131578,"Delta":142998283},{"NoteNumber":39,"Velocity":52,"Duration":87719,"SoundDuration":87719,"Delta":143086002},{"NoteNumber":38,"Velocity":58,"Duration":131578,"SoundDuration":131578,"Delta":143173722},{"NoteNumber":39,"Velocity":52,"Duration":87719,"SoundDuration":87719,"Delta":143261441},{"NoteNumber":73,"Velocity":66,"Duration":361446,"SoundDuration":361446,"Delta":143349160},{"NoteNumber":39,"Velocity":58,"Duration":135542,"SoundDuration":135542,"Delta":143349160},{"NoteNumber":40,"Velocity":44,"Duration":90361,"SoundDuration":90361,"Delta":143439522},{"NoteNumber":39,"Velocity":54,"Duration":135542,"SoundDuration":135542,"Delta":143529883},{"NoteNumber":40,"Velocity":44,"Duration":90361,"SoundDuration":90361,"Delta":143620245},{"NoteNumber":72,"Velocity":74,"Duration":711806,"SoundDuration":711806,"Delta":143710606},{"NoteNumber":40,"Velocity":56,"Duration":130489,"SoundDuration":130489,"Delta":143710606},{"NoteNumber":41,"Velocity":48,"Duration":86629,"SoundDuration":86629,"Delta":143797781},{"NoteNumber":40,"Velocity":51,"Duration":129945,"SoundDuration":129945,"Delta":143884411},{"NoteNumber":41,"Velocity":44,"Duration":86629,"SoundDuration":86629,"Delta":143971041},{"NoteNumber":81,"Velocity":67,"Duration":364742,"SoundDuration":364742,"Delta":144057671},{"NoteNumber":77,"Velocity":57,"Duration":364742,"SoundDuration":364742,"Delta":144057671},{"NoteNumber":40,"Velocity":51,"Duration":136778,"SoundDuration":136778,"Delta":144057671},{"NoteNumber":41,"Velocity":44,"Duration":91185,"SoundDuration":91185,"Delta":144148856},{"NoteNumber":40,"Velocity":51,"Duration":136778,"SoundDuration":136778,"Delta":144240042},{"NoteNumber":41,"Velocity":44,"Duration":83586,"SoundDuration":83586,"Delta":144331227},{"NoteNumber":70,"Velocity":61,"Duration":356083,"SoundDuration":356083,"Delta":144422413},{"NoteNumber":74,"Velocity":61,"Duration":356083,"SoundDuration":356083,"Delta":144422413},{"NoteNumber":79,"Velocity":72,"Duration":356083,"SoundDuration":356083,"Delta":144422413},{"NoteNumber":33,"Velocity":51,"Duration":133531,"SoundDuration":133531,"Delta":144422413},{"NoteNumber":34,"Velocity":44,"Duration":89020,"SoundDuration":89020,"Delta":144511434},{"NoteNumber":33,"Velocity":51,"Duration":133531,"SoundDuration":133531,"Delta":144600454},{"NoteNumber":34,"Velocity":44,"Duration":81602,"SoundDuration":81602,"Delta":144689475},{"NoteNumber":67,"Velocity":53,"Duration":393581,"SoundDuration":393581,"Delta":144778496},{"NoteNumber":70,"Velocity":53,"Duration":393581,"SoundDuration":393581,"Delta":144778496},{"NoteNumber":76,"Velocity":64,"Duration":393581,"SoundDuration":393581,"Delta":144778496},{"NoteNumber":35,"Velocity":51,"Duration":140186,"SoundDuration":140186,"Delta":144778496},{"NoteNumber":36,"Velocity":44,"Duration":93457,"SoundDuration":93457,"Delta":144871954},{"NoteNumber":35,"Velocity":51,"Duration":150061,"SoundDuration":150061,"Delta":144965412},{"NoteNumber":36,"Velocity":44,"Duration":103773,"SoundDuration":103773,"Delta":145058870},{"NoteNumber":65,"Velocity":64,"Duration":179104,"SoundDuration":179104,"Delta":145172077},{"NoteNumber":69,"Velocity":64,"Duration":179104,"SoundDuration":179104,"Delta":145172077},{"NoteNumber":77,"Velocity":77,"Duration":179104,"SoundDuration":179104,"Delta":145172077},{"NoteNumber":29,"Velocity":48,"Duration":179104,"SoundDuration":179104,"Delta":145172077},{"NoteNumber":65,"Velocity":73,"Duration":725174,"SoundDuration":725174,"Delta":145888495},{"NoteNumber":69,"Velocity":88,"Duration":732867,"SoundDuration":732867,"Delta":145888495},{"NoteNumber":53,"Velocity":54,"Duration":725174,"SoundDuration":725174,"Delta":145888495},{"NoteNumber":57,"Velocity":64,"Duration":732867,"SoundDuration":732867,"Delta":145888495},{"NoteNumber":62,"Velocity":57,"Duration":364907,"SoundDuration":364907,"Delta":146621362},{"NoteNumber":65,"Velocity":68,"Duration":372670,"SoundDuration":372670,"Delta":146621362},{"NoteNumber":50,"Velocity":41,"Duration":364907,"SoundDuration":364907,"Delta":146621362},{"NoteNumber":53,"Velocity":49,"Duration":372670,"SoundDuration":372670,"Delta":146621362},{"NoteNumber":58,"Velocity":59,"Duration":194805,"SoundDuration":194805,"Delta":146994033},{"NoteNumber":62,"Velocity":70,"Duration":194805,"SoundDuration":194805,"Delta":146994033},{"NoteNumber":46,"Velocity":41,"Duration":194805,"SoundDuration":194805,"Delta":146994033},{"NoteNumber":50,"Velocity":49,"Duration":194805,"SoundDuration":194805,"Delta":146994033},{"NoteNumber":67,"Velocity":73,"Duration":547112,"SoundDuration":547112,"Delta":147383643},{"NoteNumber":70,"Velocity":88,"Duration":547112,"SoundDuration":547112,"Delta":147383643},{"NoteNumber":55,"Velocity":54,"Duration":547112,"SoundDuration":547112,"Delta":147383643},{"NoteNumber":58,"Velocity":64,"Duration":547112,"SoundDuration":547112,"Delta":147383643},{"NoteNumber":65,"Velocity":57,"Duration":182371,"SoundDuration":182371,"Delta":147930756},{"NoteNumber":69,"Velocity":68,"Duration":182371,"SoundDuration":182371,"Delta":147930756},{"NoteNumber":53,"Velocity":41,"Duration":182371,"SoundDuration":182371,"Delta":147930756},{"NoteNumber":57,"Velocity":49,"Duration":182371,"SoundDuration":182371,"Delta":147930756},{"NoteNumber":67,"Velocity":77,"Duration":372670,"SoundDuration":372670,"Delta":148113127},{"NoteNumber":64,"Velocity":64,"Duration":364907,"SoundDuration":364907,"Delta":148113127},{"NoteNumber":52,"Velocity":49,"Duration":364907,"SoundDuration":364907,"Delta":148113127},{"NoteNumber":55,"Velocity":58,"Duration":372670,"SoundDuration":372670,"Delta":148113127},{"NoteNumber":60,"Velocity":57,"Duration":186335,"SoundDuration":186335,"Delta":148485798},{"NoteNumber":64,"Velocity":68,"Duration":186335,"SoundDuration":186335,"Delta":148485798},{"NoteNumber":48,"Velocity":44,"Duration":186335,"SoundDuration":186335,"Delta":148485798},{"NoteNumber":52,"Velocity":52,"Duration":186335,"SoundDuration":186335,"Delta":148485798},{"NoteNumber":69,"Velocity":73,"Duration":721864,"SoundDuration":721864,"Delta":148858469},{"NoteNumber":72,"Velocity":88,"Duration":729510,"SoundDuration":729510,"Delta":148858469},{"NoteNumber":57,"Velocity":54,"Duration":721864,"SoundDuration":721864,"Delta":148858469},{"NoteNumber":60,"Velocity":64,"Duration":729510,"SoundDuration":729510,"Delta":148858469},{"NoteNumber":65,"Velocity":57,"Duration":364907,"SoundDuration":364907,"Delta":149587979},{"NoteNumber":69,"Velocity":68,"Duration":372670,"SoundDuration":372670,"Delta":149587979},{"NoteNumber":53,"Velocity":41,"Duration":364907,"SoundDuration":364907,"Delta":149587979},{"NoteNumber":57,"Velocity":49,"Duration":372670,"SoundDuration":372670,"Delta":149587979},{"NoteNumber":62,"Velocity":59,"Duration":194175,"SoundDuration":194175,"Delta":149960650},{"NoteNumber":65,"Velocity":70,"Duration":194175,"SoundDuration":194175,"Delta":149960650},{"NoteNumber":50,"Velocity":41,"Duration":194175,"SoundDuration":194175,"Delta":149960650},{"NoteNumber":53,"Velocity":49,"Duration":194175,"SoundDuration":194175,"Delta":149960650},{"NoteNumber":70,"Velocity":73,"Duration":547112,"SoundDuration":547112,"Delta":150349000},{"NoteNumber":74,"Velocity":88,"Duration":547112,"SoundDuration":547112,"Delta":150349000},{"NoteNumber":58,"Velocity":54,"Duration":547112,"SoundDuration":547112,"Delta":150349000},{"NoteNumber":62,"Velocity":64,"Duration":547112,"SoundDuration":547112,"Delta":150349000},{"NoteNumber":69,"Velocity":57,"Duration":182371,"SoundDuration":182371,"Delta":150896113},{"NoteNumber":72,"Velocity":68,"Duration":182371,"SoundDuration":182371,"Delta":150896113},{"NoteNumber":57,"Velocity":41,"Duration":182371,"SoundDuration":182371,"Delta":150896113},{"NoteNumber":60,"Velocity":49,"Duration":182371,"SoundDuration":182371,"Delta":150896113},{"NoteNumber":70,"Velocity":77,"Duration":372670,"SoundDuration":372670,"Delta":151078484},{"NoteNumber":67,"Velocity":64,"Duration":364907,"SoundDuration":364907,"Delta":151078484},{"NoteNumber":55,"Velocity":49,"Duration":364907,"SoundDuration":364907,"Delta":151078484},{"NoteNumber":58,"Velocity":58,"Duration":372670,"SoundDuration":372670,"Delta":151078484},{"NoteNumber":64,"Velocity":57,"Duration":186335,"SoundDuration":186335,"Delta":151451155},{"NoteNumber":67,"Velocity":68,"Duration":186335,"SoundDuration":186335,"Delta":151451155},{"NoteNumber":52,"Velocity":44,"Duration":186335,"SoundDuration":186335,"Delta":151451155},{"NoteNumber":55,"Velocity":52,"Duration":186335,"SoundDuration":186335,"Delta":151451155},{"NoteNumber":70,"Velocity":73,"Duration":545454,"SoundDuration":545454,"Delta":151823826},{"NoteNumber":79,"Velocity":88,"Duration":545454,"SoundDuration":545454,"Delta":151823826},{"NoteNumber":58,"Velocity":54,"Duration":545454,"SoundDuration":545454,"Delta":151823826},{"NoteNumber":67,"Velocity":64,"Duration":545454,"SoundDuration":545454,"Delta":151823826},{"NoteNumber":69,"Velocity":57,"Duration":188087,"SoundDuration":188087,"Delta":152369280},{"NoteNumber":77,"Velocity":68,"Duration":188087,"SoundDuration":188087,"Delta":152369280},{"NoteNumber":57,"Velocity":41,"Duration":188087,"SoundDuration":188087,"Delta":152369280},{"NoteNumber":65,"Velocity":49,"Duration":188087,"SoundDuration":188087,"Delta":152369280},{"NoteNumber":67,"Velocity":73,"Duration":542169,"SoundDuration":542169,"Delta":152557368},{"NoteNumber":76,"Velocity":88,"Duration":542169,"SoundDuration":542169,"Delta":152557368},{"NoteNumber":55,"Velocity":54,"Duration":542169,"SoundDuration":542169,"Delta":152557368},{"NoteNumber":64,"Velocity":64,"Duration":542169,"SoundDuration":542169,"Delta":152557368},{"NoteNumber":65,"Velocity":57,"Duration":188679,"SoundDuration":188679,"Delta":153099537},{"NoteNumber":74,"Velocity":68,"Duration":188679,"SoundDuration":188679,"Delta":153099537},{"NoteNumber":53,"Velocity":41,"Duration":188679,"SoundDuration":188679,"Delta":153099537},{"NoteNumber":62,"Velocity":41,"Duration":188679,"SoundDuration":188679,"Delta":153099537},{"NoteNumber":64,"Velocity":51,"Duration":361446,"SoundDuration":361446,"Delta":153288216},{"NoteNumber":72,"Velocity":60,"Duration":361446,"SoundDuration":361446,"Delta":153288216},{"NoteNumber":52,"Velocity":41,"Duration":361446,"SoundDuration":361446,"Delta":153288216},{"NoteNumber":60,"Velocity":49,"Duration":361446,"SoundDuration":361446,"Delta":153288216},{"NoteNumber":58,"Velocity":44,"Duration":361446,"SoundDuration":361446,"Delta":153649662},{"NoteNumber":70,"Velocity":52,"Duration":361446,"SoundDuration":361446,"Delta":153649662},{"NoteNumber":50,"Velocity":34,"Duration":361446,"SoundDuration":361446,"Delta":153649662},{"NoteNumber":53,"Velocity":41,"Duration":361446,"SoundDuration":361446,"Delta":153649662},{"NoteNumber":57,"Velocity":49,"Duration":364742,"SoundDuration":364742,"Delta":154011108},{"NoteNumber":69,"Velocity":58,"Duration":364742,"SoundDuration":364742,"Delta":154011108},{"NoteNumber":49,"Velocity":36,"Duration":364742,"SoundDuration":364742,"Delta":154011108},{"NoteNumber":52,"Velocity":43,"Duration":364742,"SoundDuration":364742,"Delta":154011108},{"NoteNumber":61,"Velocity":39,"Duration":364742,"SoundDuration":364742,"Delta":154375850},{"NoteNumber":67,"Velocity":46,"Duration":364742,"SoundDuration":364742,"Delta":154375850},{"NoteNumber":45,"Velocity":27,"Duration":364742,"SoundDuration":364742,"Delta":154375850},{"NoteNumber":52,"Velocity":32,"Duration":364742,"SoundDuration":364742,"Delta":154375850},{"NoteNumber":62,"Velocity":45,"Duration":364741,"SoundDuration":364741,"Delta":154740592},{"NoteNumber":65,"Velocity":53,"Duration":364741,"SoundDuration":364741,"Delta":154740592},{"NoteNumber":46,"Velocity":33,"Duration":364741,"SoundDuration":364741,"Delta":154740592},{"NoteNumber":50,"Velocity":39,"Duration":364741,"SoundDuration":364741,"Delta":154740592},{"NoteNumber":53,"Velocity":40,"Duration":385851,"SoundDuration":385851,"Delta":155105334},{"NoteNumber":55,"Velocity":40,"Duration":385851,"SoundDuration":385851,"Delta":155105334},{"NoteNumber":62,"Velocity":48,"Duration":385851,"SoundDuration":385851,"Delta":155105334},{"NoteNumber":47,"Velocity":31,"Duration":385851,"SoundDuration":385851,"Delta":155105334},{"NoteNumber":48,"Velocity":38,"Duration":736307,"SoundDuration":736307,"Delta":155491186},{"NoteNumber":53,"Velocity":32,"Duration":186335,"SoundDuration":186335,"Delta":155854822},{"NoteNumber":57,"Velocity":32,"Duration":186335,"SoundDuration":186335,"Delta":155854822},{"NoteNumber":60,"Velocity":38,"Duration":186335,"SoundDuration":186335,"Delta":155854822},{"NoteNumber":36,"Velocity":32,"Duration":748129,"SoundDuration":748129,"Delta":156227493},{"NoteNumber":48,"Velocity":31,"Duration":191693,"SoundDuration":191693,"Delta":156592235},{"NoteNumber":52,"Velocity":31,"Duration":191693,"SoundDuration":191693,"Delta":156592235},{"NoteNumber":55,"Velocity":31,"Duration":191693,"SoundDuration":191693,"Delta":156592235},{"NoteNumber":60,"Velocity":37,"Duration":191693,"SoundDuration":191693,"Delta":156592235},{"NoteNumber":29,"Velocity":35,"Duration":750000,"SoundDuration":750000,"Delta":156975622},{"NoteNumber":57,"Velocity":35,"Duration":351562,"SoundDuration":351562,"Delta":157350622},{"NoteNumber":53,"Velocity":29,"Duration":351562,"SoundDuration":351562,"Delta":157350622},{"NoteNumber":48,"Velocity":29,"Duration":351562,"SoundDuration":351562,"Delta":157350622},{"NoteNumber":57,"Velocity":66,"Duration":545740,"SoundDuration":545740,"Delta":157725622},{"NoteNumber":53,"Velocity":55,"Duration":545740,"SoundDuration":545740,"Delta":157725622},{"NoteNumber":65,"Velocity":55,"Duration":380451,"SoundDuration":380451,"Delta":157890912},{"NoteNumber":69,"Velocity":66,"Duration":380451,"SoundDuration":380451,"Delta":157890912},{"NoteNumber":65,"Velocity":43,"Duration":97719,"SoundDuration":97719,"Delta":158271363},{"NoteNumber":69,"Velocity":51,"Duration":97719,"SoundDuration":97719,"Delta":158271363},{"NoteNumber":53,"Velocity":37,"Duration":97719,"SoundDuration":97719,"Delta":158271363},{"NoteNumber":57,"Velocity":44,"Duration":97719,"SoundDuration":97719,"Delta":158271363},{"NoteNumber":50,"Velocity":45,"Duration":90634,"SoundDuration":90634,"Delta":158466803},{"NoteNumber":53,"Velocity":53,"Duration":90634,"SoundDuration":90634,"Delta":158466803},{"NoteNumber":62,"Velocity":41,"Duration":90634,"SoundDuration":90634,"Delta":158648072},{"NoteNumber":65,"Velocity":49,"Duration":90634,"SoundDuration":90634,"Delta":158648072},{"NoteNumber":46,"Velocity":39,"Duration":91463,"SoundDuration":91463,"Delta":158829341},{"NoteNumber":50,"Velocity":47,"Duration":91463,"SoundDuration":91463,"Delta":158829341},{"NoteNumber":58,"Velocity":38,"Duration":102040,"SoundDuration":102040,"Delta":159012268},{"NoteNumber":62,"Velocity":45,"Duration":102040,"SoundDuration":102040,"Delta":159012268},{"NoteNumber":58,"Velocity":66,"Duration":538143,"SoundDuration":538143,"Delta":159216349},{"NoteNumber":55,"Velocity":55,"Duration":538143,"SoundDuration":538143,"Delta":159216349},{"NoteNumber":67,"Velocity":60,"Duration":372853,"SoundDuration":372853,"Delta":159381639},{"NoteNumber":70,"Velocity":73,"Duration":372853,"SoundDuration":372853,"Delta":159381639},{"NoteNumber":65,"Velocity":43,"Duration":97719,"SoundDuration":97719,"Delta":159754492},{"NoteNumber":69,"Velocity":51,"Duration":97719,"SoundDuration":97719,"Delta":159754492},{"NoteNumber":53,"Velocity":37,"Duration":97719,"SoundDuration":97719,"Delta":159754492},{"NoteNumber":57,"Velocity":44,"Duration":97719,"SoundDuration":97719,"Delta":159754492},{"NoteNumber":52,"Velocity":45,"Duration":90634,"SoundDuration":90634,"Delta":159949932},{"NoteNumber":55,"Velocity":53,"Duration":90634,"SoundDuration":90634,"Delta":159949932},{"NoteNumber":64,"Velocity":41,"Duration":90634,"SoundDuration":90634,"Delta":160131201},{"NoteNumber":67,"Velocity":49,"Duration":90634,"SoundDuration":90634,"Delta":160131201},{"NoteNumber":48,"Velocity":39,"Duration":91743,"SoundDuration":91743,"Delta":160312470},{"NoteNumber":52,"Velocity":47,"Duration":91743,"SoundDuration":91743,"Delta":160312470},{"NoteNumber":60,"Velocity":38,"Duration":100671,"SoundDuration":100671,"Delta":160495956},{"NoteNumber":64,"Velocity":45,"Duration":100671,"SoundDuration":100671,"Delta":160495956},{"NoteNumber":60,"Velocity":72,"Duration":538930,"SoundDuration":538930,"Delta":160697298},{"NoteNumber":57,"Velocity":60,"Duration":538930,"SoundDuration":538930,"Delta":160697298},{"NoteNumber":69,"Velocity":60,"Duration":373640,"SoundDuration":373640,"Delta":160862588},{"NoteNumber":72,"Velocity":72,"Duration":373640,"SoundDuration":373640,"Delta":160862588},{"NoteNumber":69,"Velocity":47,"Duration":97719,"SoundDuration":97719,"Delta":161236228},{"NoteNumber":72,"Velocity":56,"Duration":97719,"SoundDuration":97719,"Delta":161236228},{"NoteNumber":57,"Velocity":40,"Duration":97719,"SoundDuration":97719,"Delta":161236228},{"NoteNumber":60,"Velocity":48,"Duration":97719,"SoundDuration":97719,"Delta":161236228},{"NoteNumber":53,"Velocity":49,"Duration":90634,"SoundDuration":90634,"Delta":161431668},{"NoteNumber":57,"Velocity":58,"Duration":90634,"SoundDuration":90634,"Delta":161431668},{"NoteNumber":65,"Velocity":45,"Duration":90634,"SoundDuration":90634,"Delta":161612937},{"NoteNumber":69,"Velocity":53,"Duration":90634,"SoundDuration":90634,"Delta":161612937},{"NoteNumber":50,"Velocity":42,"Duration":91463,"SoundDuration":91463,"Delta":161794206},{"NoteNumber":53,"Velocity":51,"Duration":91463,"SoundDuration":91463,"Delta":161794206},{"NoteNumber":62,"Velocity":41,"Duration":102040,"SoundDuration":102040,"Delta":161977133},{"NoteNumber":65,"Velocity":49,"Duration":102040,"SoundDuration":102040,"Delta":161977133},{"NoteNumber":62,"Velocity":75,"Duration":540817,"SoundDuration":540817,"Delta":162181214},{"NoteNumber":58,"Velocity":62,"Duration":540817,"SoundDuration":540817,"Delta":162181214},{"NoteNumber":70,"Velocity":68,"Duration":375528,"SoundDuration":375528,"Delta":162346504},{"NoteNumber":74,"Velocity":84,"Duration":375528,"SoundDuration":375528,"Delta":162346504},{"NoteNumber":69,"Velocity":49,"Duration":97719,"SoundDuration":97719,"Delta":162722032},{"NoteNumber":72,"Velocity":58,"Duration":97719,"SoundDuration":97719,"Delta":162722032},{"NoteNumber":57,"Velocity":42,"Duration":97719,"SoundDuration":97719,"Delta":162722032},{"NoteNumber":60,"Velocity":50,"Duration":97719,"SoundDuration":97719,"Delta":162722032},{"NoteNumber":55,"Velocity":51,"Duration":90634,"SoundDuration":90634,"Delta":162917471},{"NoteNumber":58,"Velocity":60,"Duration":90634,"SoundDuration":90634,"Delta":162917471},{"NoteNumber":67,"Velocity":47,"Duration":90634,"SoundDuration":90634,"Delta":163098740},{"NoteNumber":70,"Velocity":55,"Duration":90634,"SoundDuration":90634,"Delta":163098740},{"NoteNumber":52,"Velocity":44,"Duration":91743,"SoundDuration":91743,"Delta":163280009},{"NoteNumber":55,"Velocity":53,"Duration":91743,"SoundDuration":91743,"Delta":163280009},{"NoteNumber":64,"Velocity":43,"Duration":106007,"SoundDuration":106007,"Delta":163463495},{"NoteNumber":67,"Velocity":51,"Duration":106007,"SoundDuration":106007,"Delta":163463495},{"NoteNumber":67,"Velocity":79,"Duration":540817,"SoundDuration":540817,"Delta":163675509},{"NoteNumber":58,"Velocity":66,"Duration":540817,"SoundDuration":540817,"Delta":163675509},{"NoteNumber":70,"Velocity":79,"Duration":375528,"SoundDuration":375528,"Delta":163840799},{"NoteNumber":79,"Velocity":96,"Duration":375528,"SoundDuration":375528,"Delta":163840799},{"NoteNumber":69,"Velocity":56,"Duration":105263,"SoundDuration":105263,"Delta":164216327},{"NoteNumber":77,"Velocity":67,"Duration":105263,"SoundDuration":105263,"Delta":164216327},{"NoteNumber":57,"Velocity":44,"Duration":105263,"SoundDuration":105263,"Delta":164216327},{"NoteNumber":65,"Velocity":52,"Duration":105263,"SoundDuration":105263,"Delta":164216327},{"NoteNumber":64,"Velocity":79,"Duration":540817,"SoundDuration":540817,"Delta":164426853},{"NoteNumber":55,"Velocity":66,"Duration":540817,"SoundDuration":540817,"Delta":164426853},{"NoteNumber":67,"Velocity":79,"Duration":375528,"SoundDuration":375528,"Delta":164592143},{"NoteNumber":76,"Velocity":96,"Duration":375528,"SoundDuration":375528,"Delta":164592143},{"NoteNumber":65,"Velocity":56,"Duration":97719,"SoundDuration":97719,"Delta":164967671},{"NoteNumber":74,"Velocity":67,"Duration":97719,"SoundDuration":97719,"Delta":164967671},{"NoteNumber":53,"Velocity":44,"Duration":97719,"SoundDuration":97719,"Delta":164967671},{"NoteNumber":62,"Velocity":52,"Duration":97719,"SoundDuration":97719,"Delta":164967671},{"NoteNumber":52,"Velocity":49,"Duration":101010,"SoundDuration":101010,"Delta":165163110},{"NoteNumber":60,"Velocity":58,"Duration":101010,"SoundDuration":101010,"Delta":165163110},{"NoteNumber":64,"Velocity":44,"Duration":101010,"SoundDuration":101010,"Delta":165365130},{"NoteNumber":72,"Velocity":52,"Duration":101010,"SoundDuration":101010,"Delta":165365130},{"NoteNumber":50,"Velocity":40,"Duration":104348,"SoundDuration":104348,"Delta":165567150},{"NoteNumber":53,"Velocity":49,"Duration":104348,"SoundDuration":104348,"Delta":165567150},{"NoteNumber":58,"Velocity":39,"Duration":113372,"SoundDuration":113372,"Delta":165775920},{"NoteNumber":70,"Velocity":46,"Duration":113372,"SoundDuration":113372,"Delta":165775920},{"NoteNumber":69,"Velocity":54,"Duration":98039,"SoundDuration":98039,"Delta":166003231},{"NoteNumber":49,"Velocity":34,"Duration":1570740,"SoundDuration":1570740,"Delta":166003231},{"NoteNumber":52,"Velocity":34,"Duration":1570740,"SoundDuration":1570740,"Delta":166003231},{"NoteNumber":55,"Velocity":40,"Duration":1570740,"SoundDuration":1570740,"Delta":166003231},{"NoteNumber":57,"Velocity":46,"Duration":98039,"SoundDuration":98039,"Delta":166101270},{"NoteNumber":61,"Velocity":43,"Duration":98039,"SoundDuration":98039,"Delta":166199310},{"NoteNumber":64,"Velocity":43,"Duration":98039,"SoundDuration":98039,"Delta":166297349},{"NoteNumber":69,"Velocity":53,"Duration":97935,"SoundDuration":97935,"Delta":166395388},{"NoteNumber":73,"Velocity":42,"Duration":97616,"SoundDuration":97616,"Delta":166493324},{"NoteNumber":76,"Velocity":42,"Duration":97300,"SoundDuration":97300,"Delta":166590940},{"NoteNumber":80,"Velocity":42,"Duration":96985,"SoundDuration":96985,"Delta":166688240},{"NoteNumber":81,"Velocity":49,"Duration":96673,"SoundDuration":96673,"Delta":166785226},{"NoteNumber":80,"Velocity":39,"Duration":96300,"SoundDuration":96300,"Delta":166881899},{"NoteNumber":81,"Velocity":42,"Duration":96416,"SoundDuration":96416,"Delta":166978200},{"NoteNumber":80,"Velocity":38,"Duration":96876,"SoundDuration":96876,"Delta":167074617},{"NoteNumber":81,"Velocity":48,"Duration":97315,"SoundDuration":97315,"Delta":167171493},{"NoteNumber":76,"Velocity":38,"Duration":97799,"SoundDuration":97799,"Delta":167268809},{"NoteNumber":73,"Velocity":38,"Duration":98272,"SoundDuration":98272,"Delta":167366608},{"NoteNumber":69,"Velocity":38,"Duration":109091,"SoundDuration":109091,"Delta":167464881},{"NoteNumber":50,"Velocity":34,"Duration":1544482,"SoundDuration":1544482,"Delta":167573972},{"NoteNumber":53,"Velocity":40,"Duration":1544482,"SoundDuration":1544482,"Delta":167573972},{"NoteNumber":57,"Velocity":46,"Duration":97363,"SoundDuration":97363,"Delta":167671374},{"NoteNumber":62,"Velocity":43,"Duration":97087,"SoundDuration":97087,"Delta":167768737},{"NoteNumber":65,"Velocity":43,"Duration":96587,"SoundDuration":96587,"Delta":167865825},{"NoteNumber":69,"Velocity":53,"Duration":95673,"SoundDuration":95673,"Delta":167962412},{"NoteNumber":74,"Velocity":42,"Duration":95067,"SoundDuration":95067,"Delta":168058086},{"NoteNumber":77,"Velocity":42,"Duration":94468,"SoundDuration":94468,"Delta":168153153},{"NoteNumber":80,"Velocity":42,"Duration":93765,"SoundDuration":93765,"Delta":168247622},{"NoteNumber":81,"Velocity":49,"Duration":93740,"SoundDuration":93740,"Delta":168341388},{"NoteNumber":80,"Velocity":39,"Duration":94330,"SoundDuration":94330,"Delta":168435129},{"NoteNumber":81,"Velocity":42,"Duration":94927,"SoundDuration":94927,"Delta":168529459},{"NoteNumber":80,"Velocity":38,"Duration":95414,"SoundDuration":95414,"Delta":168624386},{"NoteNumber":81,"Velocity":48,"Duration":95615,"SoundDuration":95615,"Delta":168719801},{"NoteNumber":77,"Velocity":38,"Duration":96774,"SoundDuration":96774,"Delta":168815417},{"NoteNumber":74,"Velocity":38,"Duration":96774,"SoundDuration":96774,"Delta":168912191},{"NoteNumber":69,"Velocity":38,"Duration":109488,"SoundDuration":109488,"Delta":169008965},{"NoteNumber":47,"Velocity":34,"Duration":1547621,"SoundDuration":1547621,"Delta":169118454},{"NoteNumber":50,"Velocity":34,"Duration":1547621,"SoundDuration":1547621,"Delta":169118454},{"NoteNumber":53,"Velocity":40,"Duration":1547621,"SoundDuration":1547621,"Delta":169118454},{"NoteNumber":56,"Velocity":46,"Duration":96462,"SoundDuration":96462,"Delta":169214917},{"NoteNumber":59,"Velocity":43,"Duration":96462,"SoundDuration":96462,"Delta":169311380},{"NoteNumber":62,"Velocity":43,"Duration":95794,"SoundDuration":95794,"Delta":169407843},{"NoteNumber":65,"Velocity":50,"Duration":95541,"SoundDuration":95541,"Delta":169503638},{"NoteNumber":68,"Velocity":42,"Duration":95503,"SoundDuration":95503,"Delta":169599180},{"NoteNumber":71,"Velocity":42,"Duration":95237,"SoundDuration":95237,"Delta":169694683},{"NoteNumber":74,"Velocity":42,"Duration":95237,"SoundDuration":95237,"Delta":169789921},{"NoteNumber":77,"Velocity":49,"Duration":94922,"SoundDuration":94922,"Delta":169885159},{"NoteNumber":74,"Velocity":41,"Duration":94794,"SoundDuration":94794,"Delta":169980082},{"NoteNumber":80,"Velocity":48,"Duration":95094,"SoundDuration":95094,"Delta":170074876},{"NoteNumber":77,"Velocity":41,"Duration":95397,"SoundDuration":95397,"Delta":170169971},{"NoteNumber":74,"Velocity":48,"Duration":95701,"SoundDuration":95701,"Delta":170265368},{"NoteNumber":71,"Velocity":45,"Duration":96069,"SoundDuration":96069,"Delta":170361070},{"NoteNumber":68,"Velocity":42,"Duration":96153,"SoundDuration":96153,"Delta":170457140},{"NoteNumber":65,"Velocity":39,"Duration":112782,"SoundDuration":112782,"Delta":170553293},{"NoteNumber":46,"Velocity":57,"Duration":950918,"SoundDuration":950918,"Delta":170666075},{"NoteNumber":49,"Velocity":57,"Duration":950918,"SoundDuration":950918,"Delta":170666075},{"NoteNumber":52,"Velocity":57,"Duration":950918,"SoundDuration":950918,"Delta":170666075},{"NoteNumber":55,"Velocity":68,"Duration":950918,"SoundDuration":950918,"Delta":170666075},{"NoteNumber":64,"Velocity":48,"Duration":95767,"SoundDuration":95767,"Delta":170762256},{"NoteNumber":67,"Velocity":50,"Duration":95523,"SoundDuration":95523,"Delta":170858024},{"NoteNumber":70,"Velocity":51,"Duration":95237,"SoundDuration":95237,"Delta":170953548},{"NoteNumber":73,"Velocity":53,"Duration":94979,"SoundDuration":94979,"Delta":171048786},{"NoteNumber":76,"Velocity":55,"Duration":94679,"SoundDuration":94679,"Delta":171143765},{"NoteNumber":79,"Velocity":57,"Duration":94637,"SoundDuration":94637,"Delta":171238445},{"NoteNumber":82,"Velocity":59,"Duration":94637,"SoundDuration":94637,"Delta":171333082},{"NoteNumber":85,"Velocity":65,"Duration":94637,"SoundDuration":94637,"Delta":171427719},{"NoteNumber":88,"Velocity":57,"Duration":94637,"SoundDuration":94637,"Delta":171522356},{"NoteNumber":76,"Velocity":64,"Duration":91743,"SoundDuration":91743,"Delta":171616994},{"NoteNumber":46,"Velocity":50,"Duration":91743,"SoundDuration":91743,"Delta":171616994},{"NoteNumber":48,"Velocity":50,"Duration":91743,"SoundDuration":91743,"Delta":171616994},{"NoteNumber":55,"Velocity":60,"Duration":91743,"SoundDuration":91743,"Delta":171616994},{"NoteNumber":88,"Velocity":56,"Duration":91742,"SoundDuration":91742,"Delta":171708737},{"NoteNumber":76,"Velocity":64,"Duration":91743,"SoundDuration":91743,"Delta":171800480},{"NoteNumber":46,"Velocity":61,"Duration":91743,"SoundDuration":91743,"Delta":171800480},{"NoteNumber":48,"Velocity":61,"Duration":91743,"SoundDuration":91743,"Delta":171800480},{"NoteNumber":55,"Velocity":72,"Duration":91743,"SoundDuration":91743,"Delta":171800480},{"NoteNumber":88,"Velocity":58,"Duration":91743,"SoundDuration":91743,"Delta":171892223},{"NoteNumber":76,"Velocity":64,"Duration":91743,"SoundDuration":91743,"Delta":171983966},{"NoteNumber":46,"Velocity":51,"Duration":91743,"SoundDuration":91743,"Delta":171983966},{"NoteNumber":48,"Velocity":51,"Duration":91743,"SoundDuration":91743,"Delta":171983966},{"NoteNumber":55,"Velocity":61,"Duration":91743,"SoundDuration":91743,"Delta":171983966},{"NoteNumber":88,"Velocity":59,"Duration":97719,"SoundDuration":97719,"Delta":172075709},{"NoteNumber":77,"Velocity":74,"Duration":91743,"SoundDuration":91743,"Delta":172173428},{"NoteNumber":45,"Velocity":73,"Duration":366972,"SoundDuration":366972,"Delta":172173428},{"NoteNumber":48,"Velocity":73,"Duration":366972,"SoundDuration":366972,"Delta":172173428},{"NoteNumber":53,"Velocity":73,"Duration":366972,"SoundDuration":366972,"Delta":172173428},{"NoteNumber":89,"Velocity":59,"Duration":91742,"SoundDuration":91742,"Delta":172265171},{"NoteNumber":76,"Velocity":67,"Duration":91743,"SoundDuration":91743,"Delta":172356914},{"NoteNumber":88,"Velocity":54,"Duration":91743,"SoundDuration":91743,"Delta":172448657},{"NoteNumber":77,"Velocity":66,"Duration":91743,"SoundDuration":91743,"Delta":172540400},{"NoteNumber":89,"Velocity":57,"Duration":91742,"SoundDuration":91742,"Delta":172632143},{"NoteNumber":70,"Velocity":59,"Duration":91743,"SoundDuration":91743,"Delta":172723886},{"NoteNumber":40,"Velocity":57,"Duration":91743,"SoundDuration":91743,"Delta":172723886},{"NoteNumber":48,"Velocity":68,"Duration":91743,"SoundDuration":91743,"Delta":172723886},{"NoteNumber":82,"Velocity":50,"Duration":98039,"SoundDuration":98039,"Delta":172815629},{"NoteNumber":69,"Velocity":79,"Duration":91463,"SoundDuration":91463,"Delta":172913669},{"NoteNumber":41,"Velocity":63,"Duration":91463,"SoundDuration":91463,"Delta":172913669},{"NoteNumber":48,"Velocity":75,"Duration":91463,"SoundDuration":91463,"Delta":172913669},{"NoteNumber":81,"Velocity":54,"Duration":91463,"SoundDuration":91463,"Delta":173005132},{"NoteNumber":76,"Velocity":65,"Duration":91463,"SoundDuration":91463,"Delta":173096596},{"NoteNumber":46,"Velocity":56,"Duration":91463,"SoundDuration":91463,"Delta":173096596},{"NoteNumber":48,"Velocity":67,"Duration":91463,"SoundDuration":91463,"Delta":173096596},{"NoteNumber":88,"Velocity":57,"Duration":90905,"SoundDuration":90905,"Delta":173188059},{"NoteNumber":77,"Velocity":68,"Duration":90009,"SoundDuration":90009,"Delta":173278965},{"NoteNumber":45,"Velocity":63,"Duration":90009,"SoundDuration":90009,"Delta":173278965},{"NoteNumber":48,"Velocity":75,"Duration":90009,"SoundDuration":90009,"Delta":173278965},{"NoteNumber":89,"Velocity":60,"Duration":90009,"SoundDuration":90009,"Delta":173368974},{"NoteNumber":70,"Velocity":67,"Duration":90009,"SoundDuration":90009,"Delta":173458983},{"NoteNumber":40,"Velocity":56,"Duration":90009,"SoundDuration":90009,"Delta":173458983},{"NoteNumber":48,"Velocity":67,"Duration":90009,"SoundDuration":90009,"Delta":173458983},{"NoteNumber":82,"Velocity":58,"Duration":95846,"SoundDuration":95846,"Delta":173548992},{"NoteNumber":69,"Velocity":81,"Duration":91463,"SoundDuration":91463,"Delta":173644839},{"NoteNumber":41,"Velocity":63,"Duration":91463,"SoundDuration":91463,"Delta":173644839},{"NoteNumber":48,"Velocity":75,"Duration":91463,"SoundDuration":91463,"Delta":173644839},{"NoteNumber":81,"Velocity":58,"Duration":91463,"SoundDuration":91463,"Delta":173736302},{"NoteNumber":76,"Velocity":64,"Duration":91463,"SoundDuration":91463,"Delta":173827766},{"NoteNumber":46,"Velocity":56,"Duration":91463,"SoundDuration":91463,"Delta":173827766},{"NoteNumber":48,"Velocity":67,"Duration":91463,"SoundDuration":91463,"Delta":173827766},{"NoteNumber":88,"Velocity":59,"Duration":91463,"SoundDuration":91463,"Delta":173919229},{"NoteNumber":77,"Velocity":67,"Duration":91009,"SoundDuration":91009,"Delta":174010693},{"NoteNumber":45,"Velocity":63,"Duration":91009,"SoundDuration":91009,"Delta":174010693},{"NoteNumber":48,"Velocity":75,"Duration":91009,"SoundDuration":91009,"Delta":174010693},{"NoteNumber":89,"Velocity":55,"Duration":90279,"SoundDuration":90279,"Delta":174101703},{"NoteNumber":70,"Velocity":62,"Duration":90279,"SoundDuration":90279,"Delta":174191982},{"NoteNumber":40,"Velocity":56,"Duration":90279,"SoundDuration":90279,"Delta":174191982},{"NoteNumber":48,"Velocity":67,"Duration":90279,"SoundDuration":90279,"Delta":174191982},{"NoteNumber":82,"Velocity":51,"Duration":98039,"SoundDuration":98039,"Delta":174282262},{"NoteNumber":69,"Velocity":72,"Duration":91463,"SoundDuration":91463,"Delta":174380301},{"NoteNumber":41,"Velocity":63,"Duration":91463,"SoundDuration":91463,"Delta":174380301},{"NoteNumber":48,"Velocity":75,"Duration":91463,"SoundDuration":91463,"Delta":174380301},{"NoteNumber":81,"Velocity":52,"Duration":91463,"SoundDuration":91463,"Delta":174471765},{"NoteNumber":76,"Velocity":64,"Duration":91463,"SoundDuration":91463,"Delta":174563228},{"NoteNumber":46,"Velocity":56,"Duration":91463,"SoundDuration":91463,"Delta":174563228},{"NoteNumber":48,"Velocity":67,"Duration":91463,"SoundDuration":91463,"Delta":174563228},{"NoteNumber":88,"Velocity":54,"Duration":91305,"SoundDuration":91305,"Delta":174654692},{"NoteNumber":77,"Velocity":64,"Duration":90520,"SoundDuration":90520,"Delta":174745997},{"NoteNumber":45,"Velocity":63,"Duration":90520,"SoundDuration":90520,"Delta":174745997},{"NoteNumber":48,"Velocity":75,"Duration":90520,"SoundDuration":90520,"Delta":174745997},{"NoteNumber":89,"Velocity":51,"Duration":90552,"SoundDuration":90552,"Delta":174836518},{"NoteNumber":70,"Velocity":60,"Duration":90552,"SoundDuration":90552,"Delta":174927070},{"NoteNumber":40,"Velocity":57,"Duration":90552,"SoundDuration":90552,"Delta":174927070},{"NoteNumber":48,"Velocity":68,"Duration":90552,"SoundDuration":90552,"Delta":174927070},{"NoteNumber":82,"Velocity":51,"Duration":99009,"SoundDuration":99009,"Delta":175017622},{"NoteNumber":69,"Velocity":83,"Duration":91463,"SoundDuration":91463,"Delta":175116632},{"NoteNumber":41,"Velocity":89,"Duration":731764,"SoundDuration":731764,"Delta":175116632},{"NoteNumber":81,"Velocity":53,"Duration":91463,"SoundDuration":91463,"Delta":175208096},{"NoteNumber":67,"Velocity":62,"Duration":91463,"SoundDuration":91463,"Delta":175299559},{"NoteNumber":79,"Velocity":54,"Duration":91463,"SoundDuration":91463,"Delta":175391023},{"NoteNumber":65,"Velocity":62,"Duration":90713,"SoundDuration":90713,"Delta":175482486},{"NoteNumber":77,"Velocity":54,"Duration":90279,"SoundDuration":90279,"Delta":175573200},{"NoteNumber":64,"Velocity":62,"Duration":90279,"SoundDuration":90279,"Delta":175663480},{"NoteNumber":76,"Velocity":53,"Duration":94637,"SoundDuration":94637,"Delta":175753760},{"NoteNumber":62,"Velocity":81,"Duration":91185,"SoundDuration":91185,"Delta":175848397},{"NoteNumber":38,"Velocity":80,"Duration":733235,"SoundDuration":733235,"Delta":175848397},{"NoteNumber":74,"Velocity":53,"Duration":91185,"SoundDuration":91185,"Delta":175939582},{"NoteNumber":60,"Velocity":60,"Duration":91185,"SoundDuration":91185,"Delta":176030768},{"NoteNumber":72,"Velocity":52,"Duration":91185,"SoundDuration":91185,"Delta":176121953},{"NoteNumber":58,"Velocity":59,"Duration":91185,"SoundDuration":91185,"Delta":176213139},{"NoteNumber":70,"Velocity":52,"Duration":91185,"SoundDuration":91185,"Delta":176304324},{"NoteNumber":57,"Velocity":59,"Duration":91185,"SoundDuration":91185,"Delta":176395510},{"NoteNumber":69,"Velocity":50,"Duration":94936,"SoundDuration":94936,"Delta":176486695},{"NoteNumber":55,"Velocity":79,"Duration":91463,"SoundDuration":91463,"Delta":176581632},{"NoteNumber":34,"Velocity":88,"Duration":738928,"SoundDuration":738928,"Delta":176581632},{"NoteNumber":67,"Velocity":50,"Duration":91463,"SoundDuration":91463,"Delta":176673096},{"NoteNumber":53,"Velocity":59,"Duration":91463,"SoundDuration":91463,"Delta":176764559},{"NoteNumber":65,"Velocity":49,"Duration":91463,"SoundDuration":91463,"Delta":176856023},{"NoteNumber":52,"Velocity":59,"Duration":91463,"SoundDuration":91463,"Delta":176947486},{"NoteNumber":64,"Velocity":49,"Duration":91463,"SoundDuration":91463,"Delta":177038950},{"NoteNumber":50,"Velocity":59,"Duration":91463,"SoundDuration":91463,"Delta":177130413},{"NoteNumber":62,"Velocity":51,"Duration":98684,"SoundDuration":98684,"Delta":177221877},{"NoteNumber":48,"Velocity":79,"Duration":92024,"SoundDuration":92024,"Delta":177320561},{"NoteNumber":36,"Velocity":84,"Duration":752867,"SoundDuration":752867,"Delta":177320561},{"NoteNumber":60,"Velocity":49,"Duration":92024,"SoundDuration":92024,"Delta":177412585},{"NoteNumber":46,"Velocity":59,"Duration":92024,"SoundDuration":92024,"Delta":177504610},{"NoteNumber":58,"Velocity":50,"Duration":92024,"SoundDuration":92024,"Delta":177596634},{"NoteNumber":45,"Velocity":59,"Duration":92024,"SoundDuration":92024,"Delta":177688659},{"NoteNumber":57,"Velocity":48,"Duration":92024,"SoundDuration":92024,"Delta":177780683},{"NoteNumber":43,"Velocity":58,"Duration":92024,"SoundDuration":92024,"Delta":177872708},{"NoteNumber":55,"Velocity":49,"Duration":108695,"SoundDuration":108695,"Delta":177964732},{"NoteNumber":53,"Velocity":76,"Duration":92307,"SoundDuration":92307,"Delta":178073428},{"NoteNumber":41,"Velocity":64,"Duration":92307,"SoundDuration":92307,"Delta":178073428},{"NoteNumber":29,"Velocity":81,"Duration":92307,"SoundDuration":92307,"Delta":178073428},{"NoteNumber":52,"Velocity":49,"Duration":92307,"SoundDuration":92307,"Delta":178258044},{"NoteNumber":46,"Velocity":54,"Duration":92307,"SoundDuration":92307,"Delta":178258044},{"NoteNumber":60,"Velocity":42,"Duration":92307,"SoundDuration":92307,"Delta":178350351},{"NoteNumber":53,"Velocity":49,"Duration":91185,"SoundDuration":91185,"Delta":178442659},{"NoteNumber":45,"Velocity":60,"Duration":91185,"SoundDuration":91185,"Delta":178442659},{"NoteNumber":60,"Velocity":41,"Duration":91185,"SoundDuration":91185,"Delta":178533845},{"NoteNumber":58,"Velocity":49,"Duration":91185,"SoundDuration":91185,"Delta":178625030},{"NoteNumber":40,"Velocity":54,"Duration":91185,"SoundDuration":91185,"Delta":178625030},{"NoteNumber":60,"Velocity":42,"Duration":91185,"SoundDuration":91185,"Delta":178716216},{"NoteNumber":57,"Velocity":49,"Duration":91185,"SoundDuration":91185,"Delta":178807401},{"NoteNumber":41,"Velocity":60,"Duration":91185,"SoundDuration":91185,"Delta":178807401},{"NoteNumber":60,"Velocity":41,"Duration":91185,"SoundDuration":91185,"Delta":178898587},{"NoteNumber":52,"Velocity":49,"Duration":91185,"SoundDuration":91185,"Delta":178989772},{"NoteNumber":46,"Velocity":52,"Duration":91185,"SoundDuration":91185,"Delta":178989772},{"NoteNumber":60,"Velocity":42,"Duration":91185,"SoundDuration":91185,"Delta":179080958},{"NoteNumber":53,"Velocity":49,"Duration":91185,"SoundDuration":91185,"Delta":179172143},{"NoteNumber":45,"Velocity":60,"Duration":91185,"SoundDuration":91185,"Delta":179172143},{"NoteNumber":60,"Velocity":43,"Duration":91185,"SoundDuration":91185,"Delta":179263329},{"NoteNumber":58,"Velocity":49,"Duration":91185,"SoundDuration":91185,"Delta":179354514},{"NoteNumber":40,"Velocity":58,"Duration":91185,"SoundDuration":91185,"Delta":179354514},{"NoteNumber":60,"Velocity":40,"Duration":91185,"SoundDuration":91185,"Delta":179445700},{"NoteNumber":57,"Velocity":49,"Duration":92024,"SoundDuration":92024,"Delta":179536885},{"NoteNumber":41,"Velocity":60,"Duration":92024,"SoundDuration":92024,"Delta":179536885},{"NoteNumber":60,"Velocity":41,"Duration":92024,"SoundDuration":92024,"Delta":179628910},{"NoteNumber":52,"Velocity":49,"Duration":92024,"SoundDuration":92024,"Delta":179720934},{"NoteNumber":46,"Velocity":52,"Duration":92024,"SoundDuration":92024,"Delta":179720934},{"NoteNumber":60,"Velocity":42,"Duration":92024,"SoundDuration":92024,"Delta":179812959},{"NoteNumber":53,"Velocity":49,"Duration":92024,"SoundDuration":92024,"Delta":179904983},{"NoteNumber":45,"Velocity":60,"Duration":92024,"SoundDuration":92024,"Delta":179904983},{"NoteNumber":60,"Velocity":43,"Duration":92024,"SoundDuration":92024,"Delta":179997008},{"NoteNumber":58,"Velocity":49,"Duration":92024,"SoundDuration":92024,"Delta":180089032},{"NoteNumber":40,"Velocity":58,"Duration":92024,"SoundDuration":92024,"Delta":180089032},{"NoteNumber":60,"Velocity":40,"Duration":92024,"SoundDuration":92024,"Delta":180181057},{"NoteNumber":57,"Velocity":56,"Duration":91185,"SoundDuration":91185,"Delta":180273081},{"NoteNumber":41,"Velocity":67,"Duration":91185,"SoundDuration":91185,"Delta":180273081},{"NoteNumber":60,"Velocity":45,"Duration":91185,"SoundDuration":91185,"Delta":180364267},{"NoteNumber":49,"Velocity":60,"Duration":91185,"SoundDuration":91185,"Delta":180455452},{"NoteNumber":43,"Velocity":59,"Duration":91185,"SoundDuration":91185,"Delta":180455452},{"NoteNumber":61,"Velocity":52,"Duration":91185,"SoundDuration":91185,"Delta":180546638},{"NoteNumber":50,"Velocity":61,"Duration":91185,"SoundDuration":91185,"Delta":180637823},{"NoteNumber":41,"Velocity":72,"Duration":91185,"SoundDuration":91185,"Delta":180637823},{"NoteNumber":62,"Velocity":49,"Duration":91185,"SoundDuration":91185,"Delta":180729009},{"NoteNumber":52,"Velocity":67,"Duration":91185,"SoundDuration":91185,"Delta":180820194},{"NoteNumber":40,"Velocity":67,"Duration":91185,"SoundDuration":91185,"Delta":180820194},{"NoteNumber":64,"Velocity":60,"Duration":91743,"SoundDuration":91743,"Delta":180911380},{"NoteNumber":53,"Velocity":71,"Duration":91742,"SoundDuration":91742,"Delta":181003123},{"NoteNumber":38,"Velocity":75,"Duration":91742,"SoundDuration":91742,"Delta":181003123},{"NoteNumber":65,"Velocity":62,"Duration":91743,"SoundDuration":91743,"Delta":181094866},{"NoteNumber":54,"Velocity":70,"Duration":91743,"SoundDuration":91743,"Delta":181186609},{"NoteNumber":36,"Velocity":77,"Duration":91743,"SoundDuration":91743,"Delta":181186609},{"NoteNumber":66,"Velocity":64,"Duration":91743,"SoundDuration":91743,"Delta":181278352},{"NoteNumber":55,"Velocity":70,"Duration":91742,"SoundDuration":91742,"Delta":181370095},{"NoteNumber":34,"Velocity":80,"Duration":91742,"SoundDuration":91742,"Delta":181370095},{"NoteNumber":67,"Velocity":64,"Duration":91743,"SoundDuration":91743,"Delta":181461838},{"NoteNumber":57,"Velocity":74,"Duration":91743,"SoundDuration":91743,"Delta":181553581},{"NoteNumber":33,"Velocity":82,"Duration":91743,"SoundDuration":91743,"Delta":181553581},{"NoteNumber":69,"Velocity":65,"Duration":91742,"SoundDuration":91742,"Delta":181645324},{"NoteNumber":58,"Velocity":82,"Duration":91743,"SoundDuration":91743,"Delta":181737067},{"NoteNumber":31,"Velocity":94,"Duration":1466247,"SoundDuration":1466247,"Delta":181737067},{"NoteNumber":70,"Velocity":71,"Duration":91743,"SoundDuration":91743,"Delta":181828810},{"NoteNumber":60,"Velocity":79,"Duration":91743,"SoundDuration":91743,"Delta":181920553},{"NoteNumber":72,"Velocity":70,"Duration":91742,"SoundDuration":91742,"Delta":182012296},{"NoteNumber":62,"Velocity":83,"Duration":91743,"SoundDuration":91743,"Delta":182104039},{"NoteNumber":74,"Velocity":72,"Duration":91743,"SoundDuration":91743,"Delta":182195782},{"NoteNumber":60,"Velocity":81,"Duration":91742,"SoundDuration":91742,"Delta":182287525},{"NoteNumber":72,"Velocity":69,"Duration":96774,"SoundDuration":96774,"Delta":182379268},{"NoteNumber":58,"Velocity":84,"Duration":90909,"SoundDuration":90909,"Delta":182476042},{"NoteNumber":70,"Velocity":69,"Duration":90908,"SoundDuration":90908,"Delta":182566951},{"NoteNumber":57,"Velocity":81,"Duration":90909,"SoundDuration":90909,"Delta":182657860},{"NoteNumber":69,"Velocity":69,"Duration":90909,"SoundDuration":90909,"Delta":182748769},{"NoteNumber":55,"Velocity":79,"Duration":90908,"SoundDuration":90908,"Delta":182839678},{"NoteNumber":67,"Velocity":69,"Duration":90909,"SoundDuration":90909,"Delta":182930587},{"NoteNumber":53,"Velocity":78,"Duration":90908,"SoundDuration":90908,"Delta":183021496},{"NoteNumber":65,"Velocity":65,"Duration":90909,"SoundDuration":90909,"Delta":183112405},{"NoteNumber":52,"Velocity":79,"Duration":91743,"SoundDuration":91743,"Delta":183203314},{"NoteNumber":36,"Velocity":87,"Duration":739173,"SoundDuration":739173,"Delta":183203314},{"NoteNumber":64,"Velocity":69,"Duration":91742,"SoundDuration":91742,"Delta":183295057},{"NoteNumber":50,"Velocity":77,"Duration":91743,"SoundDuration":91743,"Delta":183386800},{"NoteNumber":62,"Velocity":65,"Duration":95846,"SoundDuration":95846,"Delta":183478543},{"NoteNumber":48,"Velocity":77,"Duration":92024,"SoundDuration":92024,"Delta":183574390},{"NoteNumber":60,"Velocity":67,"Duration":92024,"SoundDuration":92024,"Delta":183666414},{"NoteNumber":52,"Velocity":75,"Duration":92024,"SoundDuration":92024,"Delta":183758439},{"NoteNumber":64,"Velocity":66,"Duration":92024,"SoundDuration":92024,"Delta":183850463},{"NoteNumber":65,"Velocity":79,"Duration":368098,"SoundDuration":368098,"Delta":183942488},{"NoteNumber":53,"Velocity":79,"Duration":368098,"SoundDuration":368098,"Delta":183942488},{"NoteNumber":29,"Velocity":30,"Duration":92024,"SoundDuration":92024,"Delta":183942488},{"NoteNumber":41,"Velocity":26,"Duration":92024,"SoundDuration":92024,"Delta":184034512},{"NoteNumber":29,"Velocity":30,"Duration":92024,"SoundDuration":92024,"Delta":184126537},{"NoteNumber":41,"Velocity":25,"Duration":92024,"SoundDuration":92024,"Delta":184218561},{"NoteNumber":29,"Velocity":30,"Duration":92024,"SoundDuration":92024,"Delta":184310586},{"NoteNumber":41,"Velocity":26,"Duration":92024,"SoundDuration":92024,"Delta":184402610},{"NoteNumber":29,"Velocity":30,"Duration":92024,"SoundDuration":92024,"Delta":184494635},{"NoteNumber":41,"Velocity":27,"Duration":92024,"SoundDuration":92024,"Delta":184586659},{"NoteNumber":60,"Velocity":40,"Duration":750360,"SoundDuration":750360,"Delta":184678684},{"NoteNumber":57,"Velocity":34,"Duration":750360,"SoundDuration":750360,"Delta":184678684},{"NoteNumber":29,"Velocity":30,"Duration":92592,"SoundDuration":92592,"Delta":184678684},{"NoteNumber":41,"Velocity":27,"Duration":92592,"SoundDuration":92592,"Delta":184771276},{"NoteNumber":29,"Velocity":30,"Duration":92592,"SoundDuration":92592,"Delta":184863869},{"NoteNumber":41,"Velocity":25,"Duration":92592,"SoundDuration":92592,"Delta":184956461},{"NoteNumber":29,"Velocity":30,"Duration":92592,"SoundDuration":92592,"Delta":185049054},{"NoteNumber":41,"Velocity":26,"Duration":92592,"SoundDuration":92592,"Delta":185141646},{"NoteNumber":53,"Velocity":39,"Duration":194805,"SoundDuration":194805,"Delta":185234239},{"NoteNumber":29,"Velocity":30,"Duration":97402,"SoundDuration":97402,"Delta":185234239},{"NoteNumber":41,"Velocity":26,"Duration":97402,"SoundDuration":97402,"Delta":185331641},{"NoteNumber":61,"Velocity":46,"Duration":741891,"SoundDuration":741891,"Delta":185429044},{"NoteNumber":58,"Velocity":39,"Duration":741891,"SoundDuration":741891,"Delta":185429044},{"NoteNumber":29,"Velocity":30,"Duration":92024,"SoundDuration":92024,"Delta":185429044},{"NoteNumber":41,"Velocity":26,"Duration":92024,"SoundDuration":92024,"Delta":185521068},{"NoteNumber":29,"Velocity":30,"Duration":92024,"SoundDuration":92024,"Delta":185613093},{"NoteNumber":41,"Velocity":25,"Duration":92024,"SoundDuration":92024,"Delta":185705117},{"NoteNumber":29,"Velocity":30,"Duration":92024,"SoundDuration":92024,"Delta":185797142},{"NoteNumber":41,"Velocity":26,"Duration":92024,"SoundDuration":92024,"Delta":185889166},{"NoteNumber":56,"Velocity":40,"Duration":189744,"SoundDuration":189744,"Delta":185981191},{"NoteNumber":29,"Velocity":30,"Duration":92024,"SoundDuration":92024,"Delta":185981191},{"NoteNumber":41,"Velocity":27,"Duration":97719,"SoundDuration":97719,"Delta":186073215},{"NoteNumber":60,"Velocity":32,"Duration":365854,"SoundDuration":365854,"Delta":186170935},{"NoteNumber":58,"Velocity":32,"Duration":365854,"SoundDuration":365854,"Delta":186170935},{"NoteNumber":54,"Velocity":45,"Duration":182927,"SoundDuration":182927,"Delta":186170935},{"NoteNumber":29,"Velocity":30,"Duration":91463,"SoundDuration":91463,"Delta":186170935},{"NoteNumber":41,"Velocity":27,"Duration":91463,"SoundDuration":91463,"Delta":186262398},{"NoteNumber":53,"Velocity":40,"Duration":182927,"SoundDuration":182927,"Delta":186353862},{"NoteNumber":29,"Velocity":30,"Duration":91463,"SoundDuration":91463,"Delta":186353862},{"NoteNumber":41,"Velocity":25,"Duration":91463,"SoundDuration":91463,"Delta":186445325},{"NoteNumber":60,"Velocity":33,"Duration":378366,"SoundDuration":378366,"Delta":186536789},{"NoteNumber":58,"Velocity":33,"Duration":378366,"SoundDuration":378366,"Delta":186536789},{"NoteNumber":54,"Velocity":46,"Duration":182926,"SoundDuration":182926,"Delta":186536789},{"NoteNumber":29,"Velocity":30,"Duration":91463,"SoundDuration":91463,"Delta":186536789},{"NoteNumber":41,"Velocity":26,"Duration":91463,"SoundDuration":91463,"Delta":186628252},{"NoteNumber":52,"Velocity":40,"Duration":195439,"SoundDuration":195439,"Delta":186719716},{"NoteNumber":29,"Velocity":30,"Duration":97719,"SoundDuration":97719,"Delta":186719716},{"NoteNumber":41,"Velocity":26,"Duration":97719,"SoundDuration":97719,"Delta":186817436},{"NoteNumber":60,"Velocity":46,"Duration":550457,"SoundDuration":550457,"Delta":186915155},{"NoteNumber":57,"Velocity":39,"Duration":550457,"SoundDuration":550457,"Delta":186915155},{"NoteNumber":53,"Velocity":39,"Duration":550457,"SoundDuration":550457,"Delta":186915155},{"NoteNumber":29,"Velocity":30,"Duration":91743,"SoundDuration":91743,"Delta":186915155},{"NoteNumber":41,"Velocity":26,"Duration":91742,"SoundDuration":91742,"Delta":187006898},{"NoteNumber":29,"Velocity":30,"Duration":91743,"SoundDuration":91743,"Delta":187098641},{"NoteNumber":41,"Velocity":25,"Duration":91743,"SoundDuration":91743,"Delta":187190384},{"NoteNumber":29,"Velocity":30,"Duration":91743,"SoundDuration":91743,"Delta":187282127},{"NoteNumber":41,"Velocity":26,"Duration":91742,"SoundDuration":91742,"Delta":187373870},{"NoteNumber":29,"Velocity":30,"Duration":91743,"SoundDuration":91743,"Delta":187465613},{"NoteNumber":41,"Velocity":27,"Duration":91743,"SoundDuration":91743,"Delta":187557356},{"NoteNumber":69,"Velocity":52,"Duration":556386,"SoundDuration":556386,"Delta":187649099},{"NoteNumber":60,"Velocity":52,"Duration":758203,"SoundDuration":758203,"Delta":187649099},{"NoteNumber":57,"Velocity":44,"Duration":758203,"SoundDuration":758203,"Delta":187649099},{"NoteNumber":29,"Velocity":30,"Duration":92592,"SoundDuration":92592,"Delta":187649099},{"NoteNumber":41,"Velocity":27,"Duration":92592,"SoundDuration":92592,"Delta":187741692},{"NoteNumber":29,"Velocity":35,"Duration":92592,"SoundDuration":92592,"Delta":187834284},{"NoteNumber":41,"Velocity":29,"Duration":92592,"SoundDuration":92592,"Delta":187926877},{"NoteNumber":29,"Velocity":34,"Duration":92592,"SoundDuration":92592,"Delta":188019469},{"NoteNumber":41,"Velocity":26,"Duration":93424,"SoundDuration":93424,"Delta":188112062},{"NoteNumber":65,"Velocity":50,"Duration":201816,"SoundDuration":201816,"Delta":188205486},{"NoteNumber":29,"Velocity":35,"Duration":100908,"SoundDuration":100908,"Delta":188205486},{"NoteNumber":41,"Velocity":31,"Duration":100908,"SoundDuration":100908,"Delta":188306394},{"NoteNumber":70,"Velocity":52,"Duration":552146,"SoundDuration":552146,"Delta":188407303},{"NoteNumber":61,"Velocity":59,"Duration":741891,"SoundDuration":741891,"Delta":188407303},{"NoteNumber":58,"Velocity":50,"Duration":741891,"SoundDuration":741891,"Delta":188407303},{"NoteNumber":29,"Velocity":38,"Duration":92024,"SoundDuration":92024,"Delta":188407303},{"NoteNumber":41,"Velocity":30,"Duration":92024,"SoundDuration":92024,"Delta":188499327},{"NoteNumber":29,"Velocity":34,"Duration":92024,"SoundDuration":92024,"Delta":188591352},{"NoteNumber":41,"Velocity":25,"Duration":92024,"SoundDuration":92024,"Delta":188683376},{"NoteNumber":29,"Velocity":33,"Duration":92024,"SoundDuration":92024,"Delta":188775401},{"NoteNumber":41,"Velocity":26,"Duration":92024,"SoundDuration":92024,"Delta":188867425},{"NoteNumber":68,"Velocity":52,"Duration":189744,"SoundDuration":189744,"Delta":188959450},{"NoteNumber":29,"Velocity":30,"Duration":92024,"SoundDuration":92024,"Delta":188959450},{"NoteNumber":41,"Velocity":27,"Duration":97719,"SoundDuration":97719,"Delta":189051474},{"NoteNumber":61,"Velocity":41,"Duration":365854,"SoundDuration":365854,"Delta":189149194},{"NoteNumber":58,"Velocity":41,"Duration":365854,"SoundDuration":365854,"Delta":189149194},{"NoteNumber":66,"Velocity":58,"Duration":182927,"SoundDuration":182927,"Delta":189149194},{"NoteNumber":29,"Velocity":30,"Duration":91463,"SoundDuration":91463,"Delta":189149194},{"NoteNumber":41,"Velocity":27,"Duration":91463,"SoundDuration":91463,"Delta":189240657},{"NoteNumber":65,"Velocity":52,"Duration":182927,"SoundDuration":182927,"Delta":189332121},{"NoteNumber":29,"Velocity":30,"Duration":91463,"SoundDuration":91463,"Delta":189332121},{"NoteNumber":41,"Velocity":25,"Duration":91463,"SoundDuration":91463,"Delta":189423584},{"NoteNumber":61,"Velocity":42,"Duration":378366,"SoundDuration":378366,"Delta":189515048},{"NoteNumber":58,"Velocity":42,"Duration":378366,"SoundDuration":378366,"Delta":189515048},{"NoteNumber":66,"Velocity":59,"Duration":182926,"SoundDuration":182926,"Delta":189515048},{"NoteNumber":29,"Velocity":30,"Duration":91463,"SoundDuration":91463,"Delta":189515048},{"NoteNumber":41,"Velocity":26,"Duration":91463,"SoundDuration":91463,"Delta":189606511},{"NoteNumber":64,"Velocity":52,"Duration":195439,"SoundDuration":195439,"Delta":189697975},{"NoteNumber":29,"Velocity":30,"Duration":97719,"SoundDuration":97719,"Delta":189697975},{"NoteNumber":41,"Velocity":26,"Duration":97719,"SoundDuration":97719,"Delta":189795695},{"NoteNumber":65,"Velocity":59,"Duration":550457,"SoundDuration":550457,"Delta":189893414},{"NoteNumber":60,"Velocity":50,"Duration":550457,"SoundDuration":550457,"Delta":189893414},{"NoteNumber":57,"Velocity":50,"Duration":550457,"SoundDuration":550457,"Delta":189893414},{"NoteNumber":29,"Velocity":30,"Duration":91743,"SoundDuration":91743,"Delta":189893414},{"NoteNumber":41,"Velocity":25,"Duration":91742,"SoundDuration":91742,"Delta":189985157},{"NoteNumber":29,"Velocity":29,"Duration":91743,"SoundDuration":91743,"Delta":190076900},{"NoteNumber":41,"Velocity":24,"Duration":91743,"SoundDuration":91743,"Delta":190168643},{"NoteNumber":29,"Velocity":28,"Duration":91743,"SoundDuration":91743,"Delta":190260386},{"NoteNumber":41,"Velocity":24,"Duration":91742,"SoundDuration":91742,"Delta":190352129},{"NoteNumber":29,"Velocity":28,"Duration":91743,"SoundDuration":91743,"Delta":190443872},{"NoteNumber":41,"Velocity":25,"Duration":91726,"SoundDuration":91726,"Delta":190535615},{"NoteNumber":61,"Velocity":37,"Duration":362345,"SoundDuration":362345,"Delta":190627342},{"NoteNumber":58,"Velocity":37,"Duration":362345,"SoundDuration":362345,"Delta":190627342},{"NoteNumber":67,"Velocity":53,"Duration":181241,"SoundDuration":181241,"Delta":190627342},{"NoteNumber":29,"Velocity":27,"Duration":90688,"SoundDuration":90688,"Delta":190627342},{"NoteNumber":41,"Velocity":24,"Duration":90552,"SoundDuration":90552,"Delta":190718031},{"NoteNumber":65,"Velocity":46,"Duration":181104,"SoundDuration":181104,"Delta":190808583},{"NoteNumber":29,"Velocity":27,"Duration":90552,"SoundDuration":90552,"Delta":190808583},{"NoteNumber":41,"Velocity":22,"Duration":90552,"SoundDuration":90552,"Delta":190899135},{"NoteNumber":61,"Velocity":36,"Duration":378596,"SoundDuration":378596,"Delta":190989688},{"NoteNumber":58,"Velocity":36,"Duration":378596,"SoundDuration":378596,"Delta":190989688},{"NoteNumber":67,"Velocity":51,"Duration":183505,"SoundDuration":183505,"Delta":190989688},{"NoteNumber":29,"Velocity":26,"Duration":91492,"SoundDuration":91492,"Delta":190989688},{"NoteNumber":41,"Velocity":22,"Duration":92012,"SoundDuration":92012,"Delta":191081181},{"NoteNumber":64,"Velocity":44,"Duration":195090,"SoundDuration":195090,"Delta":191173193},{"NoteNumber":29,"Velocity":25,"Duration":97719,"SoundDuration":97719,"Delta":191173193},{"NoteNumber":41,"Velocity":22,"Duration":97371,"SoundDuration":97371,"Delta":191270913},{"NoteNumber":65,"Velocity":49,"Duration":550458,"SoundDuration":550458,"Delta":191368284},{"NoteNumber":60,"Velocity":42,"Duration":550458,"SoundDuration":550458,"Delta":191368284},{"NoteNumber":57,"Velocity":42,"Duration":550458,"SoundDuration":550458,"Delta":191368284},{"NoteNumber":29,"Velocity":25,"Duration":91743,"SoundDuration":91743,"Delta":191368284},{"NoteNumber":41,"Velocity":21,"Duration":91743,"SoundDuration":91743,"Delta":191460027},{"NoteNumber":29,"Velocity":24,"Duration":91743,"SoundDuration":91743,"Delta":191551770},{"NoteNumber":41,"Velocity":20,"Duration":91742,"SoundDuration":91742,"Delta":191643513},{"NoteNumber":29,"Velocity":24,"Duration":91743,"SoundDuration":91743,"Delta":191735256},{"NoteNumber":41,"Velocity":20,"Duration":91743,"SoundDuration":91743,"Delta":191826999},{"NoteNumber":29,"Velocity":23,"Duration":91742,"SoundDuration":91742,"Delta":191918742},{"NoteNumber":41,"Velocity":20,"Duration":91743,"SoundDuration":91743,"Delta":192010485},{"NoteNumber":61,"Velocity":30,"Duration":365886,"SoundDuration":365886,"Delta":192102228},{"NoteNumber":58,"Velocity":30,"Duration":365886,"SoundDuration":365886,"Delta":192102228},{"NoteNumber":66,"Velocity":43,"Duration":182959,"SoundDuration":182959,"Delta":192102228},{"NoteNumber":29,"Velocity":22,"Duration":91496,"SoundDuration":91496,"Delta":192102228},{"NoteNumber":41,"Velocity":20,"Duration":91463,"SoundDuration":91463,"Delta":192193724},{"NoteNumber":65,"Velocity":39,"Duration":182927,"SoundDuration":182927,"Delta":192285188},{"NoteNumber":29,"Velocity":22,"Duration":91463,"SoundDuration":91463,"Delta":192285188},{"NoteNumber":41,"Velocity":18,"Duration":91463,"SoundDuration":91463,"Delta":192376651},{"NoteNumber":61,"Velocity":31,"Duration":377636,"SoundDuration":377636,"Delta":192468115},{"NoteNumber":58,"Velocity":31,"Duration":377636,"SoundDuration":377636,"Delta":192468115},{"NoteNumber":66,"Velocity":44,"Duration":182927,"SoundDuration":182927,"Delta":192468115},{"NoteNumber":29,"Velocity":22,"Duration":91463,"SoundDuration":91463,"Delta":192468115},{"NoteNumber":41,"Velocity":19,"Duration":91463,"SoundDuration":91463,"Delta":192559578},{"NoteNumber":64,"Velocity":39,"Duration":194709,"SoundDuration":194709,"Delta":192651042},{"NoteNumber":29,"Velocity":22,"Duration":96989,"SoundDuration":96989,"Delta":192651042},{"NoteNumber":41,"Velocity":19,"Duration":97719,"SoundDuration":97719,"Delta":192748032},{"NoteNumber":53,"Velocity":74,"Duration":551155,"SoundDuration":551155,"Delta":192845751},{"NoteNumber":65,"Velocity":88,"Duration":551155,"SoundDuration":551155,"Delta":192845751},{"NoteNumber":29,"Velocity":56,"Duration":551155,"SoundDuration":551155,"Delta":192845751},{"NoteNumber":41,"Velocity":66,"Duration":551155,"SoundDuration":551155,"Delta":192845751},{"NoteNumber":55,"Velocity":67,"Duration":99337,"SoundDuration":99337,"Delta":193396907},{"NoteNumber":67,"Velocity":79,"Duration":99337,"SoundDuration":99337,"Delta":193396907},{"NoteNumber":31,"Velocity":49,"Duration":99337,"SoundDuration":99337,"Delta":193396907},{"NoteNumber":43,"Velocity":59,"Duration":99337,"SoundDuration":99337,"Delta":193396907},{"NoteNumber":57,"Velocity":74,"Duration":548780,"SoundDuration":548780,"Delta":193595582},{"NoteNumber":69,"Velocity":89,"Duration":548780,"SoundDuration":548780,"Delta":193595582},{"NoteNumber":33,"Velocity":56,"Duration":548780,"SoundDuration":548780,"Delta":193595582},{"NoteNumber":45,"Velocity":66,"Duration":548780,"SoundDuration":548780,"Delta":193595582},{"NoteNumber":58,"Velocity":68,"Duration":98684,"SoundDuration":98684,"Delta":194144363},{"NoteNumber":70,"Velocity":81,"Duration":98684,"SoundDuration":98684,"Delta":194144363},{"NoteNumber":34,"Velocity":50,"Duration":98684,"SoundDuration":98684,"Delta":194144363},{"NoteNumber":46,"Velocity":60,"Duration":98684,"SoundDuration":98684,"Delta":194144363},{"NoteNumber":60,"Velocity":77,"Duration":549882,"SoundDuration":549882,"Delta":194341732},{"NoteNumber":72,"Velocity":91,"Duration":549882,"SoundDuration":549882,"Delta":194341732},{"NoteNumber":36,"Velocity":57,"Duration":549882,"SoundDuration":549882,"Delta":194341732},{"NoteNumber":48,"Velocity":68,"Duration":549882,"SoundDuration":549882,"Delta":194341732},{"NoteNumber":62,"Velocity":62,"Duration":98684,"SoundDuration":98684,"Delta":194891615},{"NoteNumber":74,"Velocity":74,"Duration":98684,"SoundDuration":98684,"Delta":194891615},{"NoteNumber":38,"Velocity":47,"Duration":98684,"SoundDuration":98684,"Delta":194891615},{"NoteNumber":50,"Velocity":56,"Duration":98684,"SoundDuration":98684,"Delta":194891615},{"NoteNumber":64,"Velocity":71,"Duration":91463,"SoundDuration":91463,"Delta":195088983},{"NoteNumber":76,"Velocity":84,"Duration":91463,"SoundDuration":91463,"Delta":195088983},{"NoteNumber":40,"Velocity":53,"Duration":91463,"SoundDuration":91463,"Delta":195088983},{"NoteNumber":52,"Velocity":63,"Duration":91463,"SoundDuration":91463,"Delta":195088983},{"NoteNumber":65,"Velocity":68,"Duration":91463,"SoundDuration":91463,"Delta":195271910},{"NoteNumber":77,"Velocity":81,"Duration":91463,"SoundDuration":91463,"Delta":195271910},{"NoteNumber":41,"Velocity":50,"Duration":91463,"SoundDuration":91463,"Delta":195271910},{"NoteNumber":53,"Velocity":60,"Duration":91463,"SoundDuration":91463,"Delta":195271910},{"NoteNumber":67,"Velocity":74,"Duration":91463,"SoundDuration":91463,"Delta":195454837},{"NoteNumber":79,"Velocity":87,"Duration":91463,"SoundDuration":91463,"Delta":195454837},{"NoteNumber":43,"Velocity":55,"Duration":91463,"SoundDuration":91463,"Delta":195454837},{"NoteNumber":55,"Velocity":65,"Duration":91463,"SoundDuration":91463,"Delta":195454837},{"NoteNumber":69,"Velocity":69,"Duration":111110,"SoundDuration":111110,"Delta":195637764},{"NoteNumber":81,"Velocity":83,"Duration":111110,"SoundDuration":111110,"Delta":195637764},{"NoteNumber":45,"Velocity":51,"Duration":111110,"SoundDuration":111110,"Delta":195637764},{"NoteNumber":57,"Velocity":61,"Duration":111110,"SoundDuration":111110,"Delta":195637764},{"NoteNumber":70,"Velocity":81,"Duration":553335,"SoundDuration":553335,"Delta":195858097},{"NoteNumber":82,"Velocity":96,"Duration":553335,"SoundDuration":553335,"Delta":195858097},{"NoteNumber":46,"Velocity":61,"Duration":553335,"SoundDuration":553335,"Delta":195858097},{"NoteNumber":58,"Velocity":72,"Duration":553335,"SoundDuration":553335,"Delta":195858097},{"NoteNumber":69,"Velocity":71,"Duration":99337,"SoundDuration":99337,"Delta":196411432},{"NoteNumber":81,"Velocity":84,"Duration":99337,"SoundDuration":99337,"Delta":196411432},{"NoteNumber":45,"Velocity":52,"Duration":99337,"SoundDuration":99337,"Delta":196411432},{"NoteNumber":57,"Velocity":63,"Duration":99337,"SoundDuration":99337,"Delta":196411432},{"NoteNumber":67,"Velocity":78,"Duration":548780,"SoundDuration":548780,"Delta":196610108},{"NoteNumber":79,"Velocity":94,"Duration":548780,"SoundDuration":548780,"Delta":196610108},{"NoteNumber":43,"Velocity":59,"Duration":548780,"SoundDuration":548780,"Delta":196610108},{"NoteNumber":55,"Velocity":69,"Duration":548780,"SoundDuration":548780,"Delta":196610108},{"NoteNumber":65,"Velocity":70,"Duration":98684,"SoundDuration":98684,"Delta":197158889},{"NoteNumber":77,"Velocity":83,"Duration":98684,"SoundDuration":98684,"Delta":197158889},{"NoteNumber":41,"Velocity":51,"Duration":98684,"SoundDuration":98684,"Delta":197158889},{"NoteNumber":53,"Velocity":61,"Duration":98684,"SoundDuration":98684,"Delta":197158889},{"NoteNumber":64,"Velocity":78,"Duration":547112,"SoundDuration":547112,"Delta":197356257},{"NoteNumber":76,"Velocity":92,"Duration":547112,"SoundDuration":547112,"Delta":197356257},{"NoteNumber":40,"Velocity":58,"Duration":547112,"SoundDuration":547112,"Delta":197356257},{"NoteNumber":52,"Velocity":69,"Duration":547112,"SoundDuration":547112,"Delta":197356257},{"NoteNumber":62,"Velocity":62,"Duration":98684,"SoundDuration":98684,"Delta":197903370},{"NoteNumber":74,"Velocity":74,"Duration":98684,"SoundDuration":98684,"Delta":197903370},{"NoteNumber":38,"Velocity":47,"Duration":98684,"SoundDuration":98684,"Delta":197903370},{"NoteNumber":50,"Velocity":56,"Duration":98684,"SoundDuration":98684,"Delta":197903370},{"NoteNumber":60,"Velocity":70,"Duration":91463,"SoundDuration":91463,"Delta":198100739},{"NoteNumber":72,"Velocity":83,"Duration":91463,"SoundDuration":91463,"Delta":198100739},{"NoteNumber":36,"Velocity":52,"Duration":91463,"SoundDuration":91463,"Delta":198100739},{"NoteNumber":48,"Velocity":62,"Duration":91463,"SoundDuration":91463,"Delta":198100739},{"NoteNumber":58,"Velocity":66,"Duration":91463,"SoundDuration":91463,"Delta":198283666},{"NoteNumber":70,"Velocity":78,"Duration":91463,"SoundDuration":91463,"Delta":198283666},{"NoteNumber":34,"Velocity":49,"Duration":91463,"SoundDuration":91463,"Delta":198283666},{"NoteNumber":46,"Velocity":58,"Duration":91463,"SoundDuration":91463,"Delta":198283666},{"NoteNumber":57,"Velocity":70,"Duration":91463,"SoundDuration":91463,"Delta":198466593},{"NoteNumber":69,"Velocity":83,"Duration":91463,"SoundDuration":91463,"Delta":198466593},{"NoteNumber":33,"Velocity":52,"Duration":91463,"SoundDuration":91463,"Delta":198466593},{"NoteNumber":45,"Velocity":62,"Duration":91463,"SoundDuration":91463,"Delta":198466593},{"NoteNumber":55,"Velocity":64,"Duration":99667,"SoundDuration":99667,"Delta":198649520},{"NoteNumber":67,"Velocity":77,"Duration":99667,"SoundDuration":99667,"Delta":198649520},{"NoteNumber":31,"Velocity":48,"Duration":99667,"SoundDuration":99667,"Delta":198649520},{"NoteNumber":43,"Velocity":57,"Duration":99667,"SoundDuration":99667,"Delta":198649520},{"NoteNumber":53,"Velocity":78,"Duration":99667,"SoundDuration":99667,"Delta":198848855},{"NoteNumber":65,"Velocity":90,"Duration":99667,"SoundDuration":99667,"Delta":198848855},{"NoteNumber":29,"Velocity":58,"Duration":99667,"SoundDuration":99667,"Delta":198848855},{"NoteNumber":41,"Velocity":69,"Duration":99667,"SoundDuration":99667,"Delta":198848855},{"NoteNumber":64,"Velocity":53,"Duration":91185,"SoundDuration":91185,"Delta":199247526},{"NoteNumber":48,"Velocity":34,"Duration":91185,"SoundDuration":91185,"Delta":199247526},{"NoteNumber":55,"Velocity":34,"Duration":91185,"SoundDuration":91185,"Delta":199247526},{"NoteNumber":58,"Velocity":41,"Duration":91185,"SoundDuration":91185,"Delta":199247526},{"NoteNumber":63,"Velocity":45,"Duration":91185,"SoundDuration":91185,"Delta":199338712},{"NoteNumber":64,"Velocity":53,"Duration":91185,"SoundDuration":91185,"Delta":199429897},{"NoteNumber":60,"Velocity":43,"Duration":99337,"SoundDuration":99337,"Delta":199521083},{"NoteNumber":65,"Velocity":57,"Duration":91463,"SoundDuration":91463,"Delta":199620420},{"NoteNumber":53,"Velocity":41,"Duration":91463,"SoundDuration":91463,"Delta":199620420},{"NoteNumber":57,"Velocity":49,"Duration":91463,"SoundDuration":91463,"Delta":199620420},{"NoteNumber":76,"Velocity":53,"Duration":90909,"SoundDuration":90909,"Delta":199986274},{"NoteNumber":60,"Velocity":34,"Duration":90909,"SoundDuration":90909,"Delta":199986274},{"NoteNumber":67,"Velocity":34,"Duration":90909,"SoundDuration":90909,"Delta":199986274},{"NoteNumber":70,"Velocity":41,"Duration":90909,"SoundDuration":90909,"Delta":199986274},{"NoteNumber":75,"Velocity":45,"Duration":90908,"SoundDuration":90908,"Delta":200077183},{"NoteNumber":76,"Velocity":53,"Duration":90909,"SoundDuration":90909,"Delta":200168092},{"NoteNumber":72,"Velocity":43,"Duration":99999,"SoundDuration":99999,"Delta":200259001},{"NoteNumber":77,"Velocity":57,"Duration":102388,"SoundDuration":102388,"Delta":200359001},{"NoteNumber":65,"Velocity":41,"Duration":102388,"SoundDuration":102388,"Delta":200359001},{"NoteNumber":69,"Velocity":49,"Duration":102388,"SoundDuration":102388,"Delta":200359001},{"NoteNumber":88,"Velocity":91,"Duration":437956,"SoundDuration":437956,"Delta":201178113},{"NoteNumber":84,"Velocity":77,"Duration":437956,"SoundDuration":437956,"Delta":201178113},{"NoteNumber":82,"Velocity":77,"Duration":437956,"SoundDuration":437956,"Delta":201178113},{"NoteNumber":79,"Velocity":77,"Duration":437956,"SoundDuration":437956,"Delta":201178113},{"NoteNumber":76,"Velocity":77,"Duration":437956,"SoundDuration":437956,"Delta":201178113},{"NoteNumber":48,"Velocity":56,"Duration":437956,"SoundDuration":437956,"Delta":201178113},{"NoteNumber":60,"Velocity":67,"Duration":437956,"SoundDuration":437956,"Delta":201178113},{"NoteNumber":89,"Velocity":97,"Duration":442151,"SoundDuration":442151,"Delta":202054025},{"NoteNumber":84,"Velocity":82,"Duration":442151,"SoundDuration":442151,"Delta":202054025},{"NoteNumber":81,"Velocity":82,"Duration":442151,"SoundDuration":442151,"Delta":202054025},{"NoteNumber":77,"Velocity":82,"Duration":442151,"SoundDuration":442151,"Delta":202054025},{"NoteNumber":41,"Velocity":64,"Duration":442151,"SoundDuration":442151,"Delta":202054025},{"NoteNumber":53,"Velocity":76,"Duration":442151,"SoundDuration":442151,"Delta":202054025},{"NoteNumber":60,"Velocity":42,"Duration":83240,"SoundDuration":83240,"Delta":203380807},{"NoteNumber":59,"Velocity":40,"Duration":83240,"SoundDuration":83240,"Delta":203464048},{"NoteNumber":60,"Velocity":45,"Duration":83240,"SoundDuration":83240,"Delta":203547288},{"NoteNumber":57,"Velocity":39,"Duration":117004,"SoundDuration":117004,"Delta":203630529},{"NoteNumber":65,"Velocity":50,"Duration":90909,"SoundDuration":90909,"Delta":203747534},{"NoteNumber":48,"Velocity":42,"Duration":83240,"SoundDuration":83240,"Delta":204111170},{"NoteNumber":47,"Velocity":40,"Duration":83240,"SoundDuration":83240,"Delta":204194411},{"NoteNumber":48,"Velocity":45,"Duration":83240,"SoundDuration":83240,"Delta":204277651},{"NoteNumber":45,"Velocity":39,"Duration":117004,"SoundDuration":117004,"Delta":204360892},{"NoteNumber":53,"Velocity":50,"Duration":100536,"SoundDuration":100536,"Delta":204477897},{"NoteNumber":60,"Velocity":42,"Duration":83240,"SoundDuration":83240,"Delta":204880042},{"NoteNumber":59,"Velocity":40,"Duration":83240,"SoundDuration":83240,"Delta":204963283},{"NoteNumber":60,"Velocity":45,"Duration":83240,"SoundDuration":83240,"Delta":205046523},{"NoteNumber":57,"Velocity":39,"Duration":117004,"SoundDuration":117004,"Delta":205129764},{"NoteNumber":65,"Velocity":50,"Duration":90361,"SoundDuration":90361,"Delta":205246769},{"NoteNumber":48,"Velocity":42,"Duration":83240,"SoundDuration":83240,"Delta":205608215},{"NoteNumber":47,"Velocity":40,"Duration":83240,"SoundDuration":83240,"Delta":205691456},{"NoteNumber":48,"Velocity":45,"Duration":83240,"SoundDuration":83240,"Delta":205774696},{"NoteNumber":45,"Velocity":39,"Duration":117004,"SoundDuration":117004,"Delta":205857937},{"NoteNumber":53,"Velocity":50,"Duration":100536,"SoundDuration":100536,"Delta":205974942},{"NoteNumber":60,"Velocity":70,"Duration":83240,"SoundDuration":83240,"Delta":206377087},{"NoteNumber":59,"Velocity":66,"Duration":83240,"SoundDuration":83240,"Delta":206460328},{"NoteNumber":60,"Velocity":77,"Duration":83240,"SoundDuration":83240,"Delta":206543568},{"NoteNumber":57,"Velocity":71,"Duration":117004,"SoundDuration":117004,"Delta":206626809},{"NoteNumber":65,"Velocity":92,"Duration":551155,"SoundDuration":551155,"Delta":206743814},{"NoteNumber":41,"Velocity":56,"Duration":551155,"SoundDuration":551155,"Delta":206743814},{"NoteNumber":53,"Velocity":66,"Duration":551155,"SoundDuration":551155,"Delta":206743814},{"NoteNumber":67,"Velocity":82,"Duration":99337,"SoundDuration":99337,"Delta":207294969},{"NoteNumber":43,"Velocity":49,"Duration":99337,"SoundDuration":99337,"Delta":207294969},{"NoteNumber":55,"Velocity":59,"Duration":99337,"SoundDuration":99337,"Delta":207294969},{"NoteNumber":69,"Velocity":93,"Duration":548780,"SoundDuration":548780,"Delta":207493645},{"NoteNumber":45,"Velocity":56,"Duration":548780,"SoundDuration":548780,"Delta":207493645},{"NoteNumber":57,"Velocity":66,"Duration":548780,"SoundDuration":548780,"Delta":207493645},{"NoteNumber":70,"Velocity":86,"Duration":98684,"SoundDuration":98684,"Delta":208042426},{"NoteNumber":46,"Velocity":50,"Duration":98684,"SoundDuration":98684,"Delta":208042426},{"NoteNumber":58,"Velocity":60,"Duration":98684,"SoundDuration":98684,"Delta":208042426},{"NoteNumber":72,"Velocity":97,"Duration":547112,"SoundDuration":547112,"Delta":208239794},{"NoteNumber":48,"Velocity":57,"Duration":547112,"SoundDuration":547112,"Delta":208239794},{"NoteNumber":60,"Velocity":68,"Duration":547112,"SoundDuration":547112,"Delta":208239794},{"NoteNumber":74,"Velocity":82,"Duration":98684,"SoundDuration":98684,"Delta":208786907},{"NoteNumber":50,"Velocity":47,"Duration":98684,"SoundDuration":98684,"Delta":208786907},{"NoteNumber":62,"Velocity":56,"Duration":98684,"SoundDuration":98684,"Delta":208786907},{"NoteNumber":75,"Velocity":90,"Duration":91463,"SoundDuration":91463,"Delta":208984276},{"NoteNumber":51,"Velocity":53,"Duration":91463,"SoundDuration":91463,"Delta":208984276},{"NoteNumber":63,"Velocity":63,"Duration":91463,"SoundDuration":91463,"Delta":208984276},{"NoteNumber":74,"Velocity":85,"Duration":91463,"SoundDuration":91463,"Delta":209167203},{"NoteNumber":50,"Velocity":50,"Duration":91463,"SoundDuration":91463,"Delta":209167203},{"NoteNumber":62,"Velocity":60,"Duration":91463,"SoundDuration":91463,"Delta":209167203},{"NoteNumber":72,"Velocity":93,"Duration":91463,"SoundDuration":91463,"Delta":209350130},{"NoteNumber":48,"Velocity":55,"Duration":91463,"SoundDuration":91463,"Delta":209350130},{"NoteNumber":60,"Velocity":65,"Duration":91463,"SoundDuration":91463,"Delta":209350130},{"NoteNumber":74,"Velocity":86,"Duration":113883,"SoundDuration":113883,"Delta":209533057},{"NoteNumber":50,"Velocity":51,"Duration":113883,"SoundDuration":113883,"Delta":209533057},{"NoteNumber":62,"Velocity":61,"Duration":113883,"SoundDuration":113883,"Delta":209533057},{"NoteNumber":75,"Velocity":97,"Duration":547112,"SoundDuration":547112,"Delta":209761313},{"NoteNumber":51,"Velocity":57,"Duration":547112,"SoundDuration":547112,"Delta":209761313},{"NoteNumber":63,"Velocity":68,"Duration":547112,"SoundDuration":547112,"Delta":209761313},{"NoteNumber":74,"Velocity":77,"Duration":98684,"SoundDuration":98684,"Delta":210308426},{"NoteNumber":50,"Velocity":44,"Duration":98684,"SoundDuration":98684,"Delta":210308426},{"NoteNumber":62,"Velocity":53,"Duration":98684,"SoundDuration":98684,"Delta":210308426},{"NoteNumber":72,"Velocity":85,"Duration":91463,"SoundDuration":91463,"Delta":210505795},{"NoteNumber":48,"Velocity":50,"Duration":91463,"SoundDuration":91463,"Delta":210505795},{"NoteNumber":60,"Velocity":59,"Duration":91463,"SoundDuration":91463,"Delta":210505795},{"NoteNumber":70,"Velocity":80,"Duration":91463,"SoundDuration":91463,"Delta":210688722},{"NoteNumber":46,"Velocity":47,"Duration":91463,"SoundDuration":91463,"Delta":210688722},{"NoteNumber":58,"Velocity":57,"Duration":91463,"SoundDuration":91463,"Delta":210688722},{"NoteNumber":69,"Velocity":88,"Duration":91463,"SoundDuration":91463,"Delta":210871649},{"NoteNumber":45,"Velocity":52,"Duration":91463,"SoundDuration":91463,"Delta":210871649},{"NoteNumber":57,"Velocity":61,"Duration":91463,"SoundDuration":91463,"Delta":210871649},{"NoteNumber":70,"Velocity":81,"Duration":111110,"SoundDuration":111110,"Delta":211054576},{"NoteNumber":46,"Velocity":48,"Duration":111110,"SoundDuration":111110,"Delta":211054576},{"NoteNumber":58,"Velocity":57,"Duration":111110,"SoundDuration":111110,"Delta":211054576},{"NoteNumber":72,"Velocity":92,"Duration":547112,"SoundDuration":547112,"Delta":211276798},{"NoteNumber":48,"Velocity":54,"Duration":547112,"SoundDuration":547112,"Delta":211276798},{"NoteNumber":60,"Velocity":64,"Duration":547112,"SoundDuration":547112,"Delta":211276798},{"NoteNumber":70,"Velocity":76,"Duration":98684,"SoundDuration":98684,"Delta":211823911},{"NoteNumber":46,"Velocity":43,"Duration":98684,"SoundDuration":98684,"Delta":211823911},{"NoteNumber":58,"Velocity":52,"Duration":98684,"SoundDuration":98684,"Delta":211823911},{"NoteNumber":69,"Velocity":81,"Duration":91463,"SoundDuration":91463,"Delta":212021279},{"NoteNumber":45,"Velocity":47,"Duration":91463,"SoundDuration":91463,"Delta":212021279},{"NoteNumber":57,"Velocity":56,"Duration":91463,"SoundDuration":91463,"Delta":212021279},{"NoteNumber":67,"Velocity":74,"Duration":91463,"SoundDuration":91463,"Delta":212204206},{"NoteNumber":43,"Velocity":44,"Duration":91463,"SoundDuration":91463,"Delta":212204206},{"NoteNumber":55,"Velocity":52,"Duration":91463,"SoundDuration":91463,"Delta":212204206},{"NoteNumber":66,"Velocity":79,"Duration":91463,"SoundDuration":91463,"Delta":212387133},{"NoteNumber":42,"Velocity":46,"Duration":91463,"SoundDuration":91463,"Delta":212387133},{"NoteNumber":54,"Velocity":55,"Duration":91463,"SoundDuration":91463,"Delta":212387133},{"NoteNumber":64,"Velocity":71,"Duration":111110,"SoundDuration":111110,"Delta":212570060},{"NoteNumber":40,"Velocity":42,"Duration":111110,"SoundDuration":111110,"Delta":212570060},{"NoteNumber":52,"Velocity":50,"Duration":111110,"SoundDuration":111110,"Delta":212570060},{"NoteNumber":62,"Velocity":75,"Duration":736196,"SoundDuration":736196,"Delta":212792282},{"NoteNumber":38,"Velocity":30,"Duration":92024,"SoundDuration":92024,"Delta":212792282},{"NoteNumber":50,"Velocity":26,"Duration":92024,"SoundDuration":92024,"Delta":212884307},{"NoteNumber":38,"Velocity":30,"Duration":92024,"SoundDuration":92024,"Delta":212976331},{"NoteNumber":50,"Velocity":25,"Duration":92024,"SoundDuration":92024,"Delta":213068356},{"NoteNumber":38,"Velocity":30,"Duration":92024,"SoundDuration":92024,"Delta":213160380},{"NoteNumber":50,"Velocity":26,"Duration":92024,"SoundDuration":92024,"Delta":213252405},{"NoteNumber":38,"Velocity":30,"Duration":92024,"SoundDuration":92024,"Delta":213344429},{"NoteNumber":50,"Velocity":27,"Duration":92024,"SoundDuration":92024,"Delta":213436454},{"NoteNumber":57,"Velocity":40,"Duration":750360,"SoundDuration":750360,"Delta":213528478},{"NoteNumber":60,"Velocity":40,"Duration":750360,"SoundDuration":750360,"Delta":213528478},{"NoteNumber":66,"Velocity":34,"Duration":555554,"SoundDuration":555554,"Delta":213528478},{"NoteNumber":38,"Velocity":30,"Duration":92592,"SoundDuration":92592,"Delta":213528478},{"NoteNumber":50,"Velocity":27,"Duration":92592,"SoundDuration":92592,"Delta":213621071},{"NoteNumber":38,"Velocity":30,"Duration":92592,"SoundDuration":92592,"Delta":213713663},{"NoteNumber":50,"Velocity":25,"Duration":92592,"SoundDuration":92592,"Delta":213806256},{"NoteNumber":38,"Velocity":30,"Duration":92592,"SoundDuration":92592,"Delta":213898848},{"NoteNumber":50,"Velocity":26,"Duration":92592,"SoundDuration":92592,"Delta":213991441},{"NoteNumber":62,"Velocity":39,"Duration":194805,"SoundDuration":194805,"Delta":214084033},{"NoteNumber":38,"Velocity":30,"Duration":97402,"SoundDuration":97402,"Delta":214084033},{"NoteNumber":50,"Velocity":26,"Duration":97402,"SoundDuration":97402,"Delta":214181436},{"NoteNumber":55,"Velocity":39,"Duration":741891,"SoundDuration":741891,"Delta":214278838},{"NoteNumber":67,"Velocity":46,"Duration":552146,"SoundDuration":552146,"Delta":214278838},{"NoteNumber":58,"Velocity":39,"Duration":741891,"SoundDuration":741891,"Delta":214278838},{"NoteNumber":38,"Velocity":30,"Duration":92024,"SoundDuration":92024,"Delta":214278838},{"NoteNumber":50,"Velocity":26,"Duration":92024,"SoundDuration":92024,"Delta":214370863},{"NoteNumber":38,"Velocity":30,"Duration":92024,"SoundDuration":92024,"Delta":214462887},{"NoteNumber":50,"Velocity":25,"Duration":92024,"SoundDuration":92024,"Delta":214554912},{"NoteNumber":38,"Velocity":30,"Duration":92024,"SoundDuration":92024,"Delta":214646936},{"NoteNumber":50,"Velocity":26,"Duration":92024,"SoundDuration":92024,"Delta":214738961},{"NoteNumber":65,"Velocity":40,"Duration":189744,"SoundDuration":189744,"Delta":214830985},{"NoteNumber":38,"Velocity":30,"Duration":92024,"SoundDuration":92024,"Delta":214830985},{"NoteNumber":50,"Velocity":27,"Duration":97719,"SoundDuration":97719,"Delta":214923010},{"NoteNumber":58,"Velocity":32,"Duration":365854,"SoundDuration":365854,"Delta":215020729},{"NoteNumber":55,"Velocity":32,"Duration":365854,"SoundDuration":365854,"Delta":215020729},{"NoteNumber":63,"Velocity":45,"Duration":182927,"SoundDuration":182927,"Delta":215020729},{"NoteNumber":38,"Velocity":30,"Duration":91463,"SoundDuration":91463,"Delta":215020729},{"NoteNumber":50,"Velocity":27,"Duration":91463,"SoundDuration":91463,"Delta":215112193},{"NoteNumber":62,"Velocity":40,"Duration":182927,"SoundDuration":182927,"Delta":215203656},{"NoteNumber":38,"Velocity":30,"Duration":91463,"SoundDuration":91463,"Delta":215203656},{"NoteNumber":50,"Velocity":25,"Duration":91463,"SoundDuration":91463,"Delta":215295120},{"NoteNumber":58,"Velocity":33,"Duration":378366,"SoundDuration":378366,"Delta":215386583},{"NoteNumber":55,"Velocity":33,"Duration":378366,"SoundDuration":378366,"Delta":215386583},{"NoteNumber":63,"Velocity":46,"Duration":182926,"SoundDuration":182926,"Delta":215386583},{"NoteNumber":38,"Velocity":30,"Duration":91463,"SoundDuration":91463,"Delta":215386583},{"NoteNumber":50,"Velocity":26,"Duration":91463,"SoundDuration":91463,"Delta":215478047},{"NoteNumber":61,"Velocity":40,"Duration":195439,"SoundDuration":195439,"Delta":215569510},{"NoteNumber":38,"Velocity":30,"Duration":97719,"SoundDuration":97719,"Delta":215569510},{"NoteNumber":50,"Velocity":26,"Duration":97719,"SoundDuration":97719,"Delta":215667230},{"NoteNumber":62,"Velocity":46,"Duration":550457,"SoundDuration":550457,"Delta":215764950},{"NoteNumber":57,"Velocity":39,"Duration":550457,"SoundDuration":550457,"Delta":215764950},{"NoteNumber":54,"Velocity":39,"Duration":550457,"SoundDuration":550457,"Delta":215764950},{"NoteNumber":38,"Velocity":30,"Duration":91743,"SoundDuration":91743,"Delta":215764950},{"NoteNumber":50,"Velocity":26,"Duration":91742,"SoundDuration":91742,"Delta":215856693},{"NoteNumber":38,"Velocity":30,"Duration":91743,"SoundDuration":91743,"Delta":215948436},{"NoteNumber":50,"Velocity":25,"Duration":91743,"SoundDuration":91743,"Delta":216040179},{"NoteNumber":38,"Velocity":30,"Duration":91743,"SoundDuration":91743,"Delta":216131922},{"NoteNumber":50,"Velocity":26,"Duration":91742,"SoundDuration":91742,"Delta":216223665},{"NoteNumber":38,"Velocity":30,"Duration":91743,"SoundDuration":91743,"Delta":216315408},{"NoteNumber":50,"Velocity":27,"Duration":91743,"SoundDuration":91743,"Delta":216407151},{"NoteNumber":78,"Velocity":41,"Duration":555554,"SoundDuration":555554,"Delta":216498894},{"NoteNumber":69,"Velocity":40,"Duration":750360,"SoundDuration":750360,"Delta":216498894},{"NoteNumber":72,"Velocity":40,"Duration":750360,"SoundDuration":750360,"Delta":216498894},{"NoteNumber":38,"Velocity":30,"Duration":92592,"SoundDuration":92592,"Delta":216498894},{"NoteNumber":50,"Velocity":27,"Duration":92592,"SoundDuration":92592,"Delta":216591486},{"NoteNumber":38,"Velocity":30,"Duration":92592,"SoundDuration":92592,"Delta":216684079},{"NoteNumber":50,"Velocity":25,"Duration":92592,"SoundDuration":92592,"Delta":216776671},{"NoteNumber":38,"Velocity":30,"Duration":92592,"SoundDuration":92592,"Delta":216869264},{"NoteNumber":50,"Velocity":26,"Duration":92592,"SoundDuration":92592,"Delta":216961856},{"NoteNumber":74,"Velocity":42,"Duration":194805,"SoundDuration":194805,"Delta":217054449},{"NoteNumber":38,"Velocity":30,"Duration":97402,"SoundDuration":97402,"Delta":217054449},{"NoteNumber":50,"Velocity":26,"Duration":97402,"SoundDuration":97402,"Delta":217151851},{"NoteNumber":79,"Velocity":53,"Duration":552146,"SoundDuration":552146,"Delta":217249254},{"NoteNumber":67,"Velocity":39,"Duration":741891,"SoundDuration":741891,"Delta":217249254},{"NoteNumber":70,"Velocity":39,"Duration":741891,"SoundDuration":741891,"Delta":217249254},{"NoteNumber":38,"Velocity":30,"Duration":92024,"SoundDuration":92024,"Delta":217249254},{"NoteNumber":50,"Velocity":26,"Duration":92024,"SoundDuration":92024,"Delta":217341278},{"NoteNumber":38,"Velocity":30,"Duration":92024,"SoundDuration":92024,"Delta":217433303},{"NoteNumber":50,"Velocity":25,"Duration":92024,"SoundDuration":92024,"Delta":217525327},{"NoteNumber":38,"Velocity":30,"Duration":92024,"SoundDuration":92024,"Delta":217617352},{"NoteNumber":50,"Velocity":26,"Duration":92024,"SoundDuration":92024,"Delta":217709376},{"NoteNumber":77,"Velocity":44,"Duration":189744,"SoundDuration":189744,"Delta":217801401},{"NoteNumber":38,"Velocity":30,"Duration":92024,"SoundDuration":92024,"Delta":217801401},{"NoteNumber":50,"Velocity":27,"Duration":97719,"SoundDuration":97719,"Delta":217893425},{"NoteNumber":70,"Velocity":32,"Duration":365535,"SoundDuration":365535,"Delta":217991145},{"NoteNumber":67,"Velocity":32,"Duration":365535,"SoundDuration":365535,"Delta":217991145},{"NoteNumber":75,"Velocity":49,"Duration":182927,"SoundDuration":182927,"Delta":217991145},{"NoteNumber":38,"Velocity":30,"Duration":91463,"SoundDuration":91463,"Delta":217991145},{"NoteNumber":50,"Velocity":27,"Duration":91463,"SoundDuration":91463,"Delta":218082609},{"NoteNumber":74,"Velocity":44,"Duration":182608,"SoundDuration":182608,"Delta":218174072},{"NoteNumber":38,"Velocity":30,"Duration":91463,"SoundDuration":91463,"Delta":218174072},{"NoteNumber":50,"Velocity":25,"Duration":91144,"SoundDuration":91144,"Delta":218265536},{"NoteNumber":70,"Velocity":33,"Duration":376543,"SoundDuration":376543,"Delta":218356680},{"NoteNumber":67,"Velocity":33,"Duration":376543,"SoundDuration":376543,"Delta":218356680},{"NoteNumber":75,"Velocity":50,"Duration":181104,"SoundDuration":181104,"Delta":218356680},{"NoteNumber":38,"Velocity":30,"Duration":90552,"SoundDuration":90552,"Delta":218356680},{"NoteNumber":50,"Velocity":26,"Duration":90552,"SoundDuration":90552,"Delta":218447232},{"NoteNumber":73,"Velocity":44,"Duration":195439,"SoundDuration":195439,"Delta":218537785},{"NoteNumber":38,"Velocity":30,"Duration":97719,"SoundDuration":97719,"Delta":218537785},{"NoteNumber":50,"Velocity":26,"Duration":97719,"SoundDuration":97719,"Delta":218635504},{"NoteNumber":74,"Velocity":50,"Duration":550457,"SoundDuration":550457,"Delta":218733224},{"NoteNumber":69,"Velocity":39,"Duration":550457,"SoundDuration":550457,"Delta":218733224},{"NoteNumber":66,"Velocity":39,"Duration":550457,"SoundDuration":550457,"Delta":218733224},{"NoteNumber":38,"Velocity":30,"Duration":91743,"SoundDuration":91743,"Delta":218733224},{"NoteNumber":50,"Velocity":26,"Duration":91742,"SoundDuration":91742,"Delta":218824967},{"NoteNumber":38,"Velocity":30,"Duration":91743,"SoundDuration":91743,"Delta":218916710},{"NoteNumber":50,"Velocity":25,"Duration":91743,"SoundDuration":91743,"Delta":219008453},{"NoteNumber":38,"Velocity":30,"Duration":91743,"SoundDuration":91743,"Delta":219100196},{"NoteNumber":50,"Velocity":26,"Duration":91742,"SoundDuration":91742,"Delta":219191939},{"NoteNumber":38,"Velocity":30,"Duration":91743,"SoundDuration":91743,"Delta":219283682},{"NoteNumber":50,"Velocity":27,"Duration":91743,"SoundDuration":91743,"Delta":219375425},{"NoteNumber":70,"Velocity":32,"Duration":365854,"SoundDuration":365854,"Delta":219467168},{"NoteNumber":67,"Velocity":32,"Duration":365854,"SoundDuration":365854,"Delta":219467168},{"NoteNumber":76,"Velocity":49,"Duration":182927,"SoundDuration":182927,"Delta":219467168},{"NoteNumber":38,"Velocity":30,"Duration":91463,"SoundDuration":91463,"Delta":219467168},{"NoteNumber":50,"Velocity":27,"Duration":91463,"SoundDuration":91463,"Delta":219558632},{"NoteNumber":74,"Velocity":44,"Duration":182927,"SoundDuration":182927,"Delta":219650095},{"NoteNumber":38,"Velocity":30,"Duration":91463,"SoundDuration":91463,"Delta":219650095},{"NoteNumber":50,"Velocity":25,"Duration":91463,"SoundDuration":91463,"Delta":219741559},{"NoteNumber":70,"Velocity":33,"Duration":378366,"SoundDuration":378366,"Delta":219833022},{"NoteNumber":67,"Velocity":33,"Duration":378366,"SoundDuration":378366,"Delta":219833022},{"NoteNumber":76,"Velocity":50,"Duration":182926,"SoundDuration":182926,"Delta":219833022},{"NoteNumber":38,"Velocity":30,"Duration":91463,"SoundDuration":91463,"Delta":219833022},{"NoteNumber":50,"Velocity":26,"Duration":91463,"SoundDuration":91463,"Delta":219924486},{"NoteNumber":73,"Velocity":44,"Duration":195439,"SoundDuration":195439,"Delta":220015949},{"NoteNumber":38,"Velocity":30,"Duration":97719,"SoundDuration":97719,"Delta":220015949},{"NoteNumber":50,"Velocity":26,"Duration":97719,"SoundDuration":97719,"Delta":220113669},{"NoteNumber":74,"Velocity":50,"Duration":550457,"SoundDuration":550457,"Delta":220211389},{"NoteNumber":69,"Velocity":39,"Duration":550457,"SoundDuration":550457,"Delta":220211389},{"NoteNumber":66,"Velocity":39,"Duration":550457,"SoundDuration":550457,"Delta":220211389},{"NoteNumber":38,"Velocity":30,"Duration":91743,"SoundDuration":91743,"Delta":220211389},{"NoteNumber":50,"Velocity":26,"Duration":91742,"SoundDuration":91742,"Delta":220303132},{"NoteNumber":38,"Velocity":30,"Duration":91743,"SoundDuration":91743,"Delta":220394875},{"NoteNumber":50,"Velocity":25,"Duration":91743,"SoundDuration":91743,"Delta":220486618},{"NoteNumber":38,"Velocity":30,"Duration":91743,"SoundDuration":91743,"Delta":220578361},{"NoteNumber":50,"Velocity":26,"Duration":91742,"SoundDuration":91742,"Delta":220670104},{"NoteNumber":38,"Velocity":30,"Duration":91743,"SoundDuration":91743,"Delta":220761847},{"NoteNumber":50,"Velocity":27,"Duration":91743,"SoundDuration":91743,"Delta":220853590},{"NoteNumber":70,"Velocity":25,"Duration":365854,"SoundDuration":365854,"Delta":220945333},{"NoteNumber":67,"Velocity":25,"Duration":365854,"SoundDuration":365854,"Delta":220945333},{"NoteNumber":75,"Velocity":39,"Duration":182927,"SoundDuration":182927,"Delta":220945333},{"NoteNumber":38,"Velocity":24,"Duration":91463,"SoundDuration":91463,"Delta":220945333},{"NoteNumber":50,"Velocity":21,"Duration":91463,"SoundDuration":91463,"Delta":221036796},{"NoteNumber":74,"Velocity":35,"Duration":182927,"SoundDuration":182927,"Delta":221128260},{"NoteNumber":38,"Velocity":24,"Duration":91463,"SoundDuration":91463,"Delta":221128260},{"NoteNumber":50,"Velocity":20,"Duration":91463,"SoundDuration":91463,"Delta":221219723},{"NoteNumber":70,"Velocity":26,"Duration":377656,"SoundDuration":377656,"Delta":221311187},{"NoteNumber":67,"Velocity":26,"Duration":377656,"SoundDuration":377656,"Delta":221311187},{"NoteNumber":75,"Velocity":40,"Duration":182926,"SoundDuration":182926,"Delta":221311187},{"NoteNumber":38,"Velocity":24,"Duration":91463,"SoundDuration":91463,"Delta":221311187},{"NoteNumber":50,"Velocity":20,"Duration":91463,"SoundDuration":91463,"Delta":221402650},{"NoteNumber":73,"Velocity":35,"Duration":194729,"SoundDuration":194729,"Delta":221494114},{"NoteNumber":38,"Velocity":24,"Duration":97719,"SoundDuration":97719,"Delta":221494114},{"NoteNumber":50,"Velocity":20,"Duration":97009,"SoundDuration":97009,"Delta":221591833},{"NoteNumber":74,"Velocity":50,"Duration":558529,"SoundDuration":558529,"Delta":221688843},{"NoteNumber":69,"Velocity":39,"Duration":558529,"SoundDuration":558529,"Delta":221688843},{"NoteNumber":66,"Velocity":39,"Duration":558529,"SoundDuration":558529,"Delta":221688843},{"NoteNumber":38,"Velocity":97,"Duration":558529,"SoundDuration":558529,"Delta":221688843},{"NoteNumber":40,"Velocity":70,"Duration":99337,"SoundDuration":99337,"Delta":222247373},{"NoteNumber":42,"Velocity":68,"Duration":548780,"SoundDuration":548780,"Delta":222446048},{"NoteNumber":50,"Velocity":81,"Duration":548780,"SoundDuration":548780,"Delta":222446048},{"NoteNumber":43,"Velocity":57,"Duration":98684,"SoundDuration":98684,"Delta":222994829},{"NoteNumber":52,"Velocity":68,"Duration":98684,"SoundDuration":98684,"Delta":222994829},{"NoteNumber":48,"Velocity":64,"Duration":553257,"SoundDuration":553257,"Delta":223192198},{"NoteNumber":45,"Velocity":64,"Duration":553257,"SoundDuration":553257,"Delta":223192198},{"NoteNumber":54,"Velocity":76,"Duration":553257,"SoundDuration":553257,"Delta":223192198},{"NoteNumber":75,"Velocity":86,"Duration":92222,"SoundDuration":92222,"Delta":223561010},{"NoteNumber":74,"Velocity":75,"Duration":98684,"SoundDuration":98684,"Delta":223745455},{"NoteNumber":50,"Velocity":54,"Duration":98684,"SoundDuration":98684,"Delta":223745455},{"NoteNumber":46,"Velocity":54,"Duration":98684,"SoundDuration":98684,"Delta":223745455},{"NoteNumber":55,"Velocity":64,"Duration":98684,"SoundDuration":98684,"Delta":223745455},{"NoteNumber":72,"Velocity":84,"Duration":91463,"SoundDuration":91463,"Delta":223942823},{"NoteNumber":54,"Velocity":61,"Duration":91463,"SoundDuration":91463,"Delta":223942823},{"NoteNumber":57,"Velocity":72,"Duration":91463,"SoundDuration":91463,"Delta":223942823},{"NoteNumber":70,"Velocity":74,"Duration":91463,"SoundDuration":91463,"Delta":224125750},{"NoteNumber":55,"Velocity":56,"Duration":91463,"SoundDuration":91463,"Delta":224125750},{"NoteNumber":58,"Velocity":66,"Duration":91463,"SoundDuration":91463,"Delta":224125750},{"NoteNumber":69,"Velocity":84,"Duration":91463,"SoundDuration":91463,"Delta":224308677},{"NoteNumber":57,"Velocity":62,"Duration":91463,"SoundDuration":91463,"Delta":224308677},{"NoteNumber":60,"Velocity":73,"Duration":91463,"SoundDuration":91463,"Delta":224308677},{"NoteNumber":67,"Velocity":75,"Duration":111110,"SoundDuration":111110,"Delta":224491604},{"NoteNumber":58,"Velocity":56,"Duration":111110,"SoundDuration":111110,"Delta":224491604},{"NoteNumber":62,"Velocity":66,"Duration":111110,"SoundDuration":111110,"Delta":224491604},{"NoteNumber":66,"Velocity":84,"Duration":91185,"SoundDuration":91185,"Delta":224713826},{"NoteNumber":60,"Velocity":64,"Duration":91185,"SoundDuration":91185,"Delta":224713826},{"NoteNumber":63,"Velocity":76,"Duration":91185,"SoundDuration":91185,"Delta":224713826},{"NoteNumber":81,"Velocity":61,"Duration":91185,"SoundDuration":91185,"Delta":225078568},{"NoteNumber":80,"Velocity":50,"Duration":91185,"SoundDuration":91185,"Delta":225169754},{"NoteNumber":81,"Velocity":54,"Duration":91185,"SoundDuration":91185,"Delta":225260939},{"NoteNumber":78,"Velocity":50,"Duration":95846,"SoundDuration":95846,"Delta":225352125},{"NoteNumber":84,"Velocity":61,"Duration":91185,"SoundDuration":91185,"Delta":225447972},{"NoteNumber":83,"Velocity":50,"Duration":91185,"SoundDuration":91185,"Delta":225539157},{"NoteNumber":84,"Velocity":54,"Duration":91185,"SoundDuration":91185,"Delta":225630343},{"NoteNumber":81,"Velocity":50,"Duration":99337,"SoundDuration":99337,"Delta":225721528},{"NoteNumber":87,"Velocity":63,"Duration":91185,"SoundDuration":91185,"Delta":225820866},{"NoteNumber":86,"Velocity":50,"Duration":91185,"SoundDuration":91185,"Delta":225912051},{"NoteNumber":84,"Velocity":57,"Duration":91185,"SoundDuration":91185,"Delta":226003237},{"NoteNumber":82,"Velocity":50,"Duration":91185,"SoundDuration":91185,"Delta":226094422},{"NoteNumber":81,"Velocity":58,"Duration":90909,"SoundDuration":90909,"Delta":226185608},{"NoteNumber":82,"Velocity":50,"Duration":90908,"SoundDuration":90908,"Delta":226276517},{"NoteNumber":84,"Velocity":59,"Duration":90909,"SoundDuration":90909,"Delta":226367426},{"NoteNumber":82,"Velocity":49,"Duration":90909,"SoundDuration":90909,"Delta":226458335},{"NoteNumber":81,"Velocity":58,"Duration":90908,"SoundDuration":90908,"Delta":226549244},{"NoteNumber":79,"Velocity":50,"Duration":90909,"SoundDuration":90909,"Delta":226640153},{"NoteNumber":78,"Velocity":55,"Duration":90908,"SoundDuration":90908,"Delta":226731062},{"NoteNumber":79,"Velocity":50,"Duration":98039,"SoundDuration":98039,"Delta":226821971},{"NoteNumber":81,"Velocity":60,"Duration":90909,"SoundDuration":90909,"Delta":226920010},{"NoteNumber":79,"Velocity":47,"Duration":90925,"SoundDuration":90925,"Delta":227010919},{"NoteNumber":78,"Velocity":53,"Duration":91185,"SoundDuration":91185,"Delta":227101844},{"NoteNumber":75,"Velocity":46,"Duration":91424,"SoundDuration":91424,"Delta":227193030},{"NoteNumber":74,"Velocity":64,"Duration":91647,"SoundDuration":91647,"Delta":227284454},{"NoteNumber":72,"Velocity":51,"Duration":91872,"SoundDuration":91872,"Delta":227376101},{"NoteNumber":71,"Velocity":57,"Duration":92097,"SoundDuration":92097,"Delta":227467973},{"NoteNumber":72,"Velocity":52,"Duration":106680,"SoundDuration":106680,"Delta":227560071},{"NoteNumber":71,"Velocity":72,"Duration":371528,"SoundDuration":371528,"Delta":227666751},{"NoteNumber":43,"Velocity":97,"Duration":557114,"SoundDuration":557114,"Delta":227666751},{"NoteNumber":45,"Velocity":70,"Duration":99337,"SoundDuration":99337,"Delta":228223865},{"NoteNumber":47,"Velocity":68,"Duration":548780,"SoundDuration":548780,"Delta":228422541},{"NoteNumber":55,"Velocity":81,"Duration":548780,"SoundDuration":548780,"Delta":228422541},{"NoteNumber":48,"Velocity":57,"Duration":98684,"SoundDuration":98684,"Delta":228971322},{"NoteNumber":57,"Velocity":68,"Duration":98684,"SoundDuration":98684,"Delta":228971322},{"NoteNumber":53,"Velocity":64,"Duration":547112,"SoundDuration":547112,"Delta":229168690},{"NoteNumber":50,"Velocity":64,"Duration":547112,"SoundDuration":547112,"Delta":229168690},{"NoteNumber":59,"Velocity":76,"Duration":547112,"SoundDuration":547112,"Delta":229168690},{"NoteNumber":80,"Velocity":81,"Duration":91185,"SoundDuration":91185,"Delta":229533432},{"NoteNumber":79,"Velocity":75,"Duration":98684,"SoundDuration":98684,"Delta":229715803},{"NoteNumber":55,"Velocity":54,"Duration":98684,"SoundDuration":98684,"Delta":229715803},{"NoteNumber":51,"Velocity":54,"Duration":98684,"SoundDuration":98684,"Delta":229715803},{"NoteNumber":60,"Velocity":64,"Duration":98684,"SoundDuration":98684,"Delta":229715803},{"NoteNumber":77,"Velocity":84,"Duration":91463,"SoundDuration":91463,"Delta":229913172},{"NoteNumber":59,"Velocity":61,"Duration":91463,"SoundDuration":91463,"Delta":229913172},{"NoteNumber":62,"Velocity":72,"Duration":91463,"SoundDuration":91463,"Delta":229913172},{"NoteNumber":75,"Velocity":74,"Duration":91463,"SoundDuration":91463,"Delta":230096099},{"NoteNumber":60,"Velocity":56,"Duration":91463,"SoundDuration":91463,"Delta":230096099},{"NoteNumber":63,"Velocity":66,"Duration":91463,"SoundDuration":91463,"Delta":230096099},{"NoteNumber":74,"Velocity":84,"Duration":91463,"SoundDuration":91463,"Delta":230279026},{"NoteNumber":62,"Velocity":62,"Duration":91463,"SoundDuration":91463,"Delta":230279026},{"NoteNumber":65,"Velocity":73,"Duration":91463,"SoundDuration":91463,"Delta":230279026},{"NoteNumber":72,"Velocity":75,"Duration":111110,"SoundDuration":111110,"Delta":230461953},{"NoteNumber":63,"Velocity":56,"Duration":111110,"SoundDuration":111110,"Delta":230461953},{"NoteNumber":67,"Velocity":66,"Duration":111110,"SoundDuration":111110,"Delta":230461953},{"NoteNumber":71,"Velocity":84,"Duration":91185,"SoundDuration":91185,"Delta":230684175},{"NoteNumber":65,"Velocity":64,"Duration":91185,"SoundDuration":91185,"Delta":230684175},{"NoteNumber":68,"Velocity":76,"Duration":91185,"SoundDuration":91185,"Delta":230684175},{"NoteNumber":74,"Velocity":61,"Duration":91185,"SoundDuration":91185,"Delta":231048917},{"NoteNumber":73,"Velocity":50,"Duration":91185,"SoundDuration":91185,"Delta":231140102},{"NoteNumber":74,"Velocity":54,"Duration":91185,"SoundDuration":91185,"Delta":231231288},{"NoteNumber":71,"Velocity":50,"Duration":95846,"SoundDuration":95846,"Delta":231322473},{"NoteNumber":77,"Velocity":61,"Duration":91185,"SoundDuration":91185,"Delta":231418320},{"NoteNumber":76,"Velocity":50,"Duration":91185,"SoundDuration":91185,"Delta":231509506},{"NoteNumber":77,"Velocity":54,"Duration":91185,"SoundDuration":91185,"Delta":231600691},{"NoteNumber":74,"Velocity":50,"Duration":99337,"SoundDuration":99337,"Delta":231691877},{"NoteNumber":80,"Velocity":63,"Duration":91185,"SoundDuration":91185,"Delta":231791214},{"NoteNumber":79,"Velocity":50,"Duration":91185,"SoundDuration":91185,"Delta":231882400},{"NoteNumber":77,"Velocity":57,"Duration":91185,"SoundDuration":91185,"Delta":231973585},{"NoteNumber":75,"Velocity":50,"Duration":91185,"SoundDuration":91185,"Delta":232064771},{"NoteNumber":74,"Velocity":58,"Duration":90909,"SoundDuration":90909,"Delta":232155956},{"NoteNumber":75,"Velocity":50,"Duration":90908,"SoundDuration":90908,"Delta":232246865},{"NoteNumber":77,"Velocity":59,"Duration":90909,"SoundDuration":90909,"Delta":232337774},{"NoteNumber":75,"Velocity":49,"Duration":90909,"SoundDuration":90909,"Delta":232428683},{"NoteNumber":74,"Velocity":62,"Duration":90908,"SoundDuration":90908,"Delta":232519592},{"NoteNumber":72,"Velocity":50,"Duration":90909,"SoundDuration":90909,"Delta":232610501},{"NoteNumber":71,"Velocity":55,"Duration":90908,"SoundDuration":90908,"Delta":232701410},{"NoteNumber":72,"Velocity":50,"Duration":98039,"SoundDuration":98039,"Delta":232792319},{"NoteNumber":74,"Velocity":62,"Duration":90909,"SoundDuration":90909,"Delta":232890359},{"NoteNumber":72,"Velocity":51,"Duration":90925,"SoundDuration":90925,"Delta":232981268},{"NoteNumber":71,"Velocity":55,"Duration":91185,"SoundDuration":91185,"Delta":233072193},{"NoteNumber":68,"Velocity":46,"Duration":91424,"SoundDuration":91424,"Delta":233163378},{"NoteNumber":67,"Velocity":65,"Duration":91647,"SoundDuration":91647,"Delta":233254802},{"NoteNumber":65,"Velocity":47,"Duration":91872,"SoundDuration":91872,"Delta":233346450},{"NoteNumber":64,"Velocity":55,"Duration":92097,"SoundDuration":92097,"Delta":233438322},{"NoteNumber":65,"Velocity":50,"Duration":107745,"SoundDuration":107745,"Delta":233530419},{"NoteNumber":64,"Velocity":71,"Duration":374752,"SoundDuration":374752,"Delta":233638165},{"NoteNumber":36,"Velocity":97,"Duration":561493,"SoundDuration":561493,"Delta":233638165},{"NoteNumber":38,"Velocity":70,"Duration":99337,"SoundDuration":99337,"Delta":234199659},{"NoteNumber":40,"Velocity":68,"Duration":548780,"SoundDuration":548780,"Delta":234398335},{"NoteNumber":48,"Velocity":81,"Duration":548780,"SoundDuration":548780,"Delta":234398335},{"NoteNumber":41,"Velocity":57,"Duration":98684,"SoundDuration":98684,"Delta":234947116},{"NoteNumber":50,"Velocity":68,"Duration":98684,"SoundDuration":98684,"Delta":234947116},{"NoteNumber":46,"Velocity":64,"Duration":547112,"SoundDuration":547112,"Delta":235144484},{"NoteNumber":43,"Velocity":64,"Duration":547112,"SoundDuration":547112,"Delta":235144484},{"NoteNumber":52,"Velocity":76,"Duration":547112,"SoundDuration":547112,"Delta":235144484},{"NoteNumber":73,"Velocity":86,"Duration":91185,"SoundDuration":91185,"Delta":235509226},{"NoteNumber":72,"Velocity":75,"Duration":98684,"SoundDuration":98684,"Delta":235691597},{"NoteNumber":48,"Velocity":54,"Duration":98684,"SoundDuration":98684,"Delta":235691597},{"NoteNumber":44,"Velocity":54,"Duration":98684,"SoundDuration":98684,"Delta":235691597},{"NoteNumber":53,"Velocity":64,"Duration":98684,"SoundDuration":98684,"Delta":235691597},{"NoteNumber":70,"Velocity":84,"Duration":91463,"SoundDuration":91463,"Delta":235888966},{"NoteNumber":52,"Velocity":61,"Duration":91463,"SoundDuration":91463,"Delta":235888966},{"NoteNumber":55,"Velocity":72,"Duration":91463,"SoundDuration":91463,"Delta":235888966},{"NoteNumber":68,"Velocity":74,"Duration":91463,"SoundDuration":91463,"Delta":236071893},{"NoteNumber":53,"Velocity":56,"Duration":91463,"SoundDuration":91463,"Delta":236071893},{"NoteNumber":56,"Velocity":66,"Duration":91463,"SoundDuration":91463,"Delta":236071893},{"NoteNumber":67,"Velocity":84,"Duration":91463,"SoundDuration":91463,"Delta":236254820},{"NoteNumber":55,"Velocity":62,"Duration":91463,"SoundDuration":91463,"Delta":236254820},{"NoteNumber":58,"Velocity":73,"Duration":91463,"SoundDuration":91463,"Delta":236254820},{"NoteNumber":65,"Velocity":75,"Duration":111110,"SoundDuration":111110,"Delta":236437747},{"NoteNumber":56,"Velocity":56,"Duration":111110,"SoundDuration":111110,"Delta":236437747},{"NoteNumber":60,"Velocity":66,"Duration":111110,"SoundDuration":111110,"Delta":236437747},{"NoteNumber":64,"Velocity":84,"Duration":91185,"SoundDuration":91185,"Delta":236659969},{"NoteNumber":58,"Velocity":64,"Duration":91185,"SoundDuration":91185,"Delta":236659969},{"NoteNumber":61,"Velocity":76,"Duration":91185,"SoundDuration":91185,"Delta":236659969},{"NoteNumber":79,"Velocity":67,"Duration":91185,"SoundDuration":91185,"Delta":237024711},{"NoteNumber":78,"Velocity":55,"Duration":91185,"SoundDuration":91185,"Delta":237115896},{"NoteNumber":79,"Velocity":59,"Duration":91185,"SoundDuration":91185,"Delta":237207082},{"NoteNumber":76,"Velocity":55,"Duration":95846,"SoundDuration":95846,"Delta":237298267},{"NoteNumber":82,"Velocity":67,"Duration":91185,"SoundDuration":91185,"Delta":237394114},{"NoteNumber":81,"Velocity":55,"Duration":91185,"SoundDuration":91185,"Delta":237485299},{"NoteNumber":82,"Velocity":59,"Duration":91185,"SoundDuration":91185,"Delta":237576485},{"NoteNumber":79,"Velocity":55,"Duration":99337,"SoundDuration":99337,"Delta":237667670},{"NoteNumber":85,"Velocity":69,"Duration":91185,"SoundDuration":91185,"Delta":237767008},{"NoteNumber":84,"Velocity":55,"Duration":91185,"SoundDuration":91185,"Delta":237858194},{"NoteNumber":85,"Velocity":62,"Duration":91185,"SoundDuration":91185,"Delta":237949379},{"NoteNumber":84,"Velocity":55,"Duration":91185,"SoundDuration":91185,"Delta":238040565},{"NoteNumber":85,"Velocity":73,"Duration":90909,"SoundDuration":90909,"Delta":238131750},{"NoteNumber":46,"Velocity":76,"Duration":1468167,"SoundDuration":1468167,"Delta":238131750},{"NoteNumber":82,"Velocity":55,"Duration":90908,"SoundDuration":90908,"Delta":238222659},{"NoteNumber":79,"Velocity":64,"Duration":90909,"SoundDuration":90909,"Delta":238313568},{"NoteNumber":76,"Velocity":53,"Duration":90909,"SoundDuration":90909,"Delta":238404477},{"NoteNumber":82,"Velocity":71,"Duration":90908,"SoundDuration":90908,"Delta":238495386},{"NoteNumber":49,"Velocity":67,"Duration":1104531,"SoundDuration":1104531,"Delta":238495386},{"NoteNumber":79,"Velocity":55,"Duration":90909,"SoundDuration":90909,"Delta":238586295},{"NoteNumber":76,"Velocity":64,"Duration":90908,"SoundDuration":90908,"Delta":238677204},{"NoteNumber":73,"Velocity":55,"Duration":98039,"SoundDuration":98039,"Delta":238768113},{"NoteNumber":79,"Velocity":71,"Duration":90909,"SoundDuration":90909,"Delta":238866152},{"NoteNumber":52,"Velocity":67,"Duration":733765,"SoundDuration":733765,"Delta":238866152},{"NoteNumber":76,"Velocity":51,"Duration":90909,"SoundDuration":90909,"Delta":238957061},{"NoteNumber":73,"Velocity":63,"Duration":90908,"SoundDuration":90908,"Delta":239047970},{"NoteNumber":70,"Velocity":50,"Duration":90909,"SoundDuration":90909,"Delta":239138879},{"NoteNumber":76,"Velocity":69,"Duration":90909,"SoundDuration":90909,"Delta":239229788},{"NoteNumber":55,"Velocity":67,"Duration":370129,"SoundDuration":370129,"Delta":239229788},{"NoteNumber":73,"Velocity":51,"Duration":90908,"SoundDuration":90908,"Delta":239320697},{"NoteNumber":70,"Velocity":60,"Duration":90908,"SoundDuration":90908,"Delta":239411606},{"NoteNumber":67,"Velocity":50,"Duration":97402,"SoundDuration":97402,"Delta":239502515},{"NoteNumber":44,"Velocity":76,"Duration":1469577,"SoundDuration":1469577,"Delta":239599918},{"NoteNumber":77,"Velocity":67,"Duration":91185,"SoundDuration":91185,"Delta":239962456},{"NoteNumber":48,"Velocity":67,"Duration":1107039,"SoundDuration":1107039,"Delta":239962456},{"NoteNumber":76,"Velocity":55,"Duration":91185,"SoundDuration":91185,"Delta":240053641},{"NoteNumber":77,"Velocity":59,"Duration":91185,"SoundDuration":91185,"Delta":240144827},{"NoteNumber":72,"Velocity":55,"Duration":95846,"SoundDuration":95846,"Delta":240236012},{"NoteNumber":80,"Velocity":67,"Duration":91185,"SoundDuration":91185,"Delta":240331859},{"NoteNumber":53,"Velocity":67,"Duration":737636,"SoundDuration":737636,"Delta":240331859},{"NoteNumber":79,"Velocity":55,"Duration":91185,"SoundDuration":91185,"Delta":240423045},{"NoteNumber":80,"Velocity":59,"Duration":91185,"SoundDuration":91185,"Delta":240514230},{"NoteNumber":77,"Velocity":55,"Duration":99337,"SoundDuration":99337,"Delta":240605416},{"NoteNumber":84,"Velocity":69,"Duration":91185,"SoundDuration":91185,"Delta":240704753},{"NoteNumber":56,"Velocity":67,"Duration":364742,"SoundDuration":364742,"Delta":240704753},{"NoteNumber":83,"Velocity":55,"Duration":91185,"SoundDuration":91185,"Delta":240795939},{"NoteNumber":84,"Velocity":62,"Duration":91185,"SoundDuration":91185,"Delta":240887124},{"NoteNumber":80,"Velocity":55,"Duration":91185,"SoundDuration":91185,"Delta":240978310},{"NoteNumber":89,"Velocity":73,"Duration":90909,"SoundDuration":90909,"Delta":241069495},{"NoteNumber":44,"Velocity":76,"Duration":1468167,"SoundDuration":1468167,"Delta":241069495},{"NoteNumber":84,"Velocity":55,"Duration":90908,"SoundDuration":90908,"Delta":241160404},{"NoteNumber":80,"Velocity":64,"Duration":90909,"SoundDuration":90909,"Delta":241251313},{"NoteNumber":77,"Velocity":53,"Duration":90909,"SoundDuration":90909,"Delta":241342222},{"NoteNumber":84,"Velocity":71,"Duration":90908,"SoundDuration":90908,"Delta":241433131},{"NoteNumber":48,"Velocity":67,"Duration":1104531,"SoundDuration":1104531,"Delta":241433131},{"NoteNumber":80,"Velocity":55,"Duration":90909,"SoundDuration":90909,"Delta":241524040},{"NoteNumber":77,"Velocity":64,"Duration":90908,"SoundDuration":90908,"Delta":241614949},{"NoteNumber":72,"Velocity":55,"Duration":98039,"SoundDuration":98039,"Delta":241705858},{"NoteNumber":80,"Velocity":71,"Duration":90909,"SoundDuration":90909,"Delta":241803898},{"NoteNumber":53,"Velocity":67,"Duration":733765,"SoundDuration":733765,"Delta":241803898},{"NoteNumber":77,"Velocity":51,"Duration":90909,"SoundDuration":90909,"Delta":241894807},{"NoteNumber":72,"Velocity":63,"Duration":90908,"SoundDuration":90908,"Delta":241985716},{"NoteNumber":68,"Velocity":50,"Duration":90909,"SoundDuration":90909,"Delta":242076625},{"NoteNumber":77,"Velocity":69,"Duration":90909,"SoundDuration":90909,"Delta":242167534},{"NoteNumber":56,"Velocity":67,"Duration":370129,"SoundDuration":370129,"Delta":242167534},{"NoteNumber":72,"Velocity":51,"Duration":90908,"SoundDuration":90908,"Delta":242258443},{"NoteNumber":68,"Velocity":60,"Duration":90908,"SoundDuration":90908,"Delta":242349352},{"NoteNumber":65,"Velocity":50,"Duration":97402,"SoundDuration":97402,"Delta":242440261},{"NoteNumber":43,"Velocity":76,"Duration":1476724,"SoundDuration":1476724,"Delta":242537663},{"NoteNumber":77,"Velocity":67,"Duration":91185,"SoundDuration":91185,"Delta":242900201},{"NoteNumber":50,"Velocity":67,"Duration":1114186,"SoundDuration":1114186,"Delta":242900201},{"NoteNumber":76,"Velocity":55,"Duration":91185,"SoundDuration":91185,"Delta":242991387},{"NoteNumber":77,"Velocity":59,"Duration":91185,"SoundDuration":91185,"Delta":243082572},{"NoteNumber":74,"Velocity":55,"Duration":95846,"SoundDuration":95846,"Delta":243173758},{"NoteNumber":83,"Velocity":67,"Duration":91185,"SoundDuration":91185,"Delta":243269604},{"NoteNumber":53,"Velocity":67,"Duration":744783,"SoundDuration":744783,"Delta":243269604},{"NoteNumber":82,"Velocity":55,"Duration":91185,"SoundDuration":91185,"Delta":243360790},{"NoteNumber":83,"Velocity":59,"Duration":91185,"SoundDuration":91185,"Delta":243451975},{"NoteNumber":77,"Velocity":55,"Duration":99337,"SoundDuration":99337,"Delta":243543161},{"NoteNumber":86,"Velocity":69,"Duration":91185,"SoundDuration":91185,"Delta":243642499},{"NoteNumber":55,"Velocity":67,"Duration":371889,"SoundDuration":371889,"Delta":243642499},{"NoteNumber":85,"Velocity":55,"Duration":91185,"SoundDuration":91185,"Delta":243733684},{"NoteNumber":86,"Velocity":62,"Duration":91185,"SoundDuration":91185,"Delta":243824870},{"NoteNumber":83,"Velocity":55,"Duration":98332,"SoundDuration":98332,"Delta":243916055},{"NoteNumber":89,"Velocity":73,"Duration":90909,"SoundDuration":90909,"Delta":244014388},{"NoteNumber":43,"Velocity":76,"Duration":1468167,"SoundDuration":1468167,"Delta":244014388},{"NoteNumber":86,"Velocity":55,"Duration":90908,"SoundDuration":90908,"Delta":244105297},{"NoteNumber":83,"Velocity":64,"Duration":90909,"SoundDuration":90909,"Delta":244196206},{"NoteNumber":77,"Velocity":53,"Duration":90909,"SoundDuration":90909,"Delta":244287115},{"NoteNumber":86,"Velocity":71,"Duration":90908,"SoundDuration":90908,"Delta":244378024},{"NoteNumber":47,"Velocity":67,"Duration":1104531,"SoundDuration":1104531,"Delta":244378024},{"NoteNumber":83,"Velocity":55,"Duration":90909,"SoundDuration":90909,"Delta":244468933},{"NoteNumber":77,"Velocity":64,"Duration":90908,"SoundDuration":90908,"Delta":244559842},{"NoteNumber":74,"Velocity":55,"Duration":98039,"SoundDuration":98039,"Delta":244650751},{"NoteNumber":83,"Velocity":71,"Duration":90909,"SoundDuration":90909,"Delta":244748790},{"NoteNumber":50,"Velocity":67,"Duration":733765,"SoundDuration":733765,"Delta":244748790},{"NoteNumber":77,"Velocity":51,"Duration":90909,"SoundDuration":90909,"Delta":244839699},{"NoteNumber":74,"Velocity":63,"Duration":90908,"SoundDuration":90908,"Delta":244930608},{"NoteNumber":71,"Velocity":50,"Duration":90909,"SoundDuration":90909,"Delta":245021517},{"NoteNumber":77,"Velocity":69,"Duration":90909,"SoundDuration":90909,"Delta":245112426},{"NoteNumber":55,"Velocity":67,"Duration":370129,"SoundDuration":370129,"Delta":245112426},{"NoteNumber":74,"Velocity":51,"Duration":90908,"SoundDuration":90908,"Delta":245203335},{"NoteNumber":71,"Velocity":60,"Duration":90908,"SoundDuration":90908,"Delta":245294244},{"NoteNumber":65,"Velocity":50,"Duration":97402,"SoundDuration":97402,"Delta":245385153},{"NoteNumber":43,"Velocity":76,"Duration":1469577,"SoundDuration":1469577,"Delta":245482555},{"NoteNumber":75,"Velocity":67,"Duration":91185,"SoundDuration":91185,"Delta":245845093},{"NoteNumber":48,"Velocity":67,"Duration":1107039,"SoundDuration":1107039,"Delta":245845093},{"NoteNumber":74,"Velocity":54,"Duration":91185,"SoundDuration":91185,"Delta":245936279},{"NoteNumber":75,"Velocity":58,"Duration":91185,"SoundDuration":91185,"Delta":246027464},{"NoteNumber":72,"Velocity":54,"Duration":95846,"SoundDuration":95846,"Delta":246118650},{"NoteNumber":79,"Velocity":66,"Duration":91185,"SoundDuration":91185,"Delta":246214497},{"NoteNumber":51,"Velocity":66,"Duration":737636,"SoundDuration":737636,"Delta":246214497},{"NoteNumber":78,"Velocity":53,"Duration":91185,"SoundDuration":91185,"Delta":246305682},{"NoteNumber":79,"Velocity":57,"Duration":91185,"SoundDuration":91185,"Delta":246396868},{"NoteNumber":75,"Velocity":53,"Duration":99337,"SoundDuration":99337,"Delta":246488053},{"NoteNumber":84,"Velocity":67,"Duration":91185,"SoundDuration":91185,"Delta":246587391},{"NoteNumber":55,"Velocity":65,"Duration":364742,"SoundDuration":364742,"Delta":246587391},{"NoteNumber":83,"Velocity":53,"Duration":91185,"SoundDuration":91185,"Delta":246678576},{"NoteNumber":84,"Velocity":60,"Duration":91185,"SoundDuration":91185,"Delta":246769762},{"NoteNumber":79,"Velocity":53,"Duration":91185,"SoundDuration":91185,"Delta":246860947},{"NoteNumber":87,"Velocity":70,"Duration":90909,"SoundDuration":90909,"Delta":246952133},{"NoteNumber":42,"Velocity":73,"Duration":1468167,"SoundDuration":1468167,"Delta":246952133},{"NoteNumber":84,"Velocity":53,"Duration":90908,"SoundDuration":90908,"Delta":247043042},{"NoteNumber":81,"Velocity":61,"Duration":90909,"SoundDuration":90909,"Delta":247133951},{"NoteNumber":75,"Velocity":50,"Duration":90909,"SoundDuration":90909,"Delta":247224860},{"NoteNumber":84,"Velocity":68,"Duration":90908,"SoundDuration":90908,"Delta":247315769},{"NoteNumber":48,"Velocity":64,"Duration":1104531,"SoundDuration":1104531,"Delta":247315769},{"NoteNumber":81,"Velocity":52,"Duration":90909,"SoundDuration":90909,"Delta":247406678},{"NoteNumber":75,"Velocity":60,"Duration":90908,"SoundDuration":90908,"Delta":247497587},{"NoteNumber":72,"Velocity":52,"Duration":98039,"SoundDuration":98039,"Delta":247588496},{"NoteNumber":81,"Velocity":67,"Duration":90909,"SoundDuration":90909,"Delta":247686535},{"NoteNumber":51,"Velocity":63,"Duration":733765,"SoundDuration":733765,"Delta":247686535},{"NoteNumber":75,"Velocity":48,"Duration":90909,"SoundDuration":90909,"Delta":247777444},{"NoteNumber":72,"Velocity":59,"Duration":90908,"SoundDuration":90908,"Delta":247868353},{"NoteNumber":69,"Velocity":47,"Duration":90909,"SoundDuration":90909,"Delta":247959262},{"NoteNumber":75,"Velocity":64,"Duration":90909,"SoundDuration":90909,"Delta":248050171},{"NoteNumber":54,"Velocity":62,"Duration":370129,"SoundDuration":370129,"Delta":248050171},{"NoteNumber":72,"Velocity":47,"Duration":90908,"SoundDuration":90908,"Delta":248141080},{"NoteNumber":69,"Velocity":55,"Duration":90908,"SoundDuration":90908,"Delta":248231989},{"NoteNumber":63,"Velocity":46,"Duration":97402,"SoundDuration":97402,"Delta":248322898},{"NoteNumber":41,"Velocity":70,"Duration":1494308,"SoundDuration":1494308,"Delta":248420301},{"NoteNumber":75,"Velocity":61,"Duration":91185,"SoundDuration":91185,"Delta":248782839},{"NoteNumber":48,"Velocity":61,"Duration":1131770,"SoundDuration":1131770,"Delta":248782839},{"NoteNumber":74,"Velocity":50,"Duration":91185,"SoundDuration":91185,"Delta":248874024},{"NoteNumber":75,"Velocity":54,"Duration":91185,"SoundDuration":91185,"Delta":248965210},{"NoteNumber":72,"Velocity":50,"Duration":95846,"SoundDuration":95846,"Delta":249056395},{"NoteNumber":81,"Velocity":60,"Duration":91185,"SoundDuration":91185,"Delta":249152242},{"NoteNumber":51,"Velocity":60,"Duration":762367,"SoundDuration":762367,"Delta":249152242},{"NoteNumber":80,"Velocity":50,"Duration":91185,"SoundDuration":91185,"Delta":249243427},{"NoteNumber":81,"Velocity":53,"Duration":91185,"SoundDuration":91185,"Delta":249334613},{"NoteNumber":75,"Velocity":49,"Duration":99337,"SoundDuration":99337,"Delta":249425798},{"NoteNumber":84,"Velocity":62,"Duration":91185,"SoundDuration":91185,"Delta":249525136},{"NoteNumber":53,"Velocity":60,"Duration":389473,"SoundDuration":389473,"Delta":249525136},{"NoteNumber":83,"Velocity":49,"Duration":91185,"SoundDuration":91185,"Delta":249616322},{"NoteNumber":84,"Velocity":55,"Duration":94868,"SoundDuration":94868,"Delta":249707507},{"NoteNumber":81,"Velocity":48,"Duration":112233,"SoundDuration":112233,"Delta":249802376},{"NoteNumber":87,"Velocity":64,"Duration":90909,"SoundDuration":90909,"Delta":249914610},{"NoteNumber":41,"Velocity":67,"Duration":1468167,"SoundDuration":1468167,"Delta":249914610},{"NoteNumber":84,"Velocity":48,"Duration":90908,"SoundDuration":90908,"Delta":250005519},{"NoteNumber":81,"Velocity":56,"Duration":90909,"SoundDuration":90909,"Delta":250096428},{"NoteNumber":75,"Velocity":47,"Duration":90909,"SoundDuration":90909,"Delta":250187337},{"NoteNumber":84,"Velocity":62,"Duration":90908,"SoundDuration":90908,"Delta":250278246},{"NoteNumber":45,"Velocity":58,"Duration":1104531,"SoundDuration":1104531,"Delta":250278246},{"NoteNumber":81,"Velocity":48,"Duration":90909,"SoundDuration":90909,"Delta":250369155},{"NoteNumber":75,"Velocity":56,"Duration":90908,"SoundDuration":90908,"Delta":250460064},{"NoteNumber":72,"Velocity":48,"Duration":98039,"SoundDuration":98039,"Delta":250550973},{"NoteNumber":81,"Velocity":61,"Duration":90909,"SoundDuration":90909,"Delta":250649012},{"NoteNumber":48,"Velocity":58,"Duration":733765,"SoundDuration":733765,"Delta":250649012},{"NoteNumber":75,"Velocity":44,"Duration":90909,"SoundDuration":90909,"Delta":250739921},{"NoteNumber":72,"Velocity":54,"Duration":90908,"SoundDuration":90908,"Delta":250830830},{"NoteNumber":69,"Velocity":43,"Duration":90909,"SoundDuration":90909,"Delta":250921739},{"NoteNumber":75,"Velocity":59,"Duration":90909,"SoundDuration":90909,"Delta":251012648},{"NoteNumber":53,"Velocity":57,"Duration":370129,"SoundDuration":370129,"Delta":251012648},{"NoteNumber":72,"Velocity":43,"Duration":90908,"SoundDuration":90908,"Delta":251103557},{"NoteNumber":69,"Velocity":51,"Duration":90908,"SoundDuration":90908,"Delta":251194466},{"NoteNumber":63,"Velocity":43,"Duration":97402,"SoundDuration":97402,"Delta":251285375},{"NoteNumber":41,"Velocity":64,"Duration":1490013,"SoundDuration":1490013,"Delta":251382777},{"NoteNumber":73,"Velocity":56,"Duration":91185,"SoundDuration":91185,"Delta":251745315},{"NoteNumber":46,"Velocity":56,"Duration":1127475,"SoundDuration":1127475,"Delta":251745315},{"NoteNumber":72,"Velocity":46,"Duration":91185,"SoundDuration":91185,"Delta":251836501},{"NoteNumber":73,"Velocity":49,"Duration":91185,"SoundDuration":91185,"Delta":251927686},{"NoteNumber":70,"Velocity":46,"Duration":95846,"SoundDuration":95846,"Delta":252018872},{"NoteNumber":77,"Velocity":56,"Duration":91185,"SoundDuration":91185,"Delta":252114719},{"NoteNumber":49,"Velocity":56,"Duration":758072,"SoundDuration":758072,"Delta":252114719},{"NoteNumber":76,"Velocity":45,"Duration":91185,"SoundDuration":91185,"Delta":252205904},{"NoteNumber":77,"Velocity":48,"Duration":91185,"SoundDuration":91185,"Delta":252297090},{"NoteNumber":73,"Velocity":45,"Duration":99337,"SoundDuration":99337,"Delta":252388275},{"NoteNumber":82,"Velocity":57,"Duration":91185,"SoundDuration":91185,"Delta":252487613},{"NoteNumber":53,"Velocity":55,"Duration":385177,"SoundDuration":385177,"Delta":252487613},{"NoteNumber":81,"Velocity":45,"Duration":91185,"SoundDuration":91185,"Delta":252578798},{"NoteNumber":82,"Velocity":50,"Duration":94229,"SoundDuration":94229,"Delta":252669984},{"NoteNumber":77,"Velocity":45,"Duration":108577,"SoundDuration":108577,"Delta":252764213},{"NoteNumber":85,"Velocity":59,"Duration":90832,"SoundDuration":90832,"Delta":252872791},{"NoteNumber":40,"Velocity":62,"Duration":1467596,"SoundDuration":1467596,"Delta":252872791},{"NoteNumber":82,"Velocity":44,"Duration":90826,"SoundDuration":90826,"Delta":252963623},{"NoteNumber":79,"Velocity":51,"Duration":90826,"SoundDuration":90826,"Delta":253054450},{"NoteNumber":73,"Velocity":42,"Duration":90826,"SoundDuration":90826,"Delta":253145276},{"NoteNumber":82,"Velocity":57,"Duration":90826,"SoundDuration":90826,"Delta":253236103},{"NoteNumber":46,"Velocity":54,"Duration":1104284,"SoundDuration":1104284,"Delta":253236103},{"NoteNumber":79,"Velocity":44,"Duration":90826,"SoundDuration":90826,"Delta":253326929},{"NoteNumber":73,"Velocity":51,"Duration":90826,"SoundDuration":90826,"Delta":253417756},{"NoteNumber":70,"Velocity":44,"Duration":98039,"SoundDuration":98039,"Delta":253508582},{"NoteNumber":79,"Velocity":56,"Duration":90909,"SoundDuration":90909,"Delta":253606622},{"NoteNumber":49,"Velocity":53,"Duration":733765,"SoundDuration":733765,"Delta":253606622},{"NoteNumber":73,"Velocity":40,"Duration":90909,"SoundDuration":90909,"Delta":253697531},{"NoteNumber":70,"Velocity":49,"Duration":90908,"SoundDuration":90908,"Delta":253788440},{"NoteNumber":67,"Velocity":39,"Duration":90909,"SoundDuration":90909,"Delta":253879349},{"NoteNumber":73,"Velocity":54,"Duration":90909,"SoundDuration":90909,"Delta":253970258},{"NoteNumber":52,"Velocity":52,"Duration":370129,"SoundDuration":370129,"Delta":253970258},{"NoteNumber":70,"Velocity":40,"Duration":90908,"SoundDuration":90908,"Delta":254061167},{"NoteNumber":67,"Velocity":46,"Duration":90908,"SoundDuration":90908,"Delta":254152076},{"NoteNumber":61,"Velocity":39,"Duration":97402,"SoundDuration":97402,"Delta":254242985},{"NoteNumber":39,"Velocity":59,"Duration":1469593,"SoundDuration":1469593,"Delta":254340387},{"NoteNumber":73,"Velocity":51,"Duration":91185,"SoundDuration":91185,"Delta":254702925},{"NoteNumber":46,"Velocity":51,"Duration":1107055,"SoundDuration":1107055,"Delta":254702925},{"NoteNumber":72,"Velocity":42,"Duration":91185,"SoundDuration":91185,"Delta":254794111},{"NoteNumber":73,"Velocity":45,"Duration":91185,"SoundDuration":91185,"Delta":254885296},{"NoteNumber":70,"Velocity":41,"Duration":95846,"SoundDuration":95846,"Delta":254976482},{"NoteNumber":79,"Velocity":50,"Duration":91185,"SoundDuration":91185,"Delta":255072328},{"NoteNumber":49,"Velocity":50,"Duration":737652,"SoundDuration":737652,"Delta":255072328},{"NoteNumber":78,"Velocity":41,"Duration":91185,"SoundDuration":91185,"Delta":255163514},{"NoteNumber":79,"Velocity":44,"Duration":91185,"SoundDuration":91185,"Delta":255254699},{"NoteNumber":73,"Velocity":41,"Duration":99337,"SoundDuration":99337,"Delta":255345885},{"NoteNumber":82,"Velocity":51,"Duration":91185,"SoundDuration":91185,"Delta":255445223},{"NoteNumber":51,"Velocity":50,"Duration":364758,"SoundDuration":364758,"Delta":255445223},{"NoteNumber":81,"Velocity":41,"Duration":91185,"SoundDuration":91185,"Delta":255536408},{"NoteNumber":82,"Velocity":46,"Duration":91185,"SoundDuration":91185,"Delta":255627594},{"NoteNumber":79,"Velocity":40,"Duration":91201,"SoundDuration":91201,"Delta":255718779},{"NoteNumber":85,"Velocity":54,"Duration":91463,"SoundDuration":91463,"Delta":255809981},{"NoteNumber":39,"Velocity":56,"Duration":1513752,"SoundDuration":1513752,"Delta":255809981},{"NoteNumber":82,"Velocity":40,"Duration":91463,"SoundDuration":91463,"Delta":255901444},{"NoteNumber":79,"Velocity":47,"Duration":91463,"SoundDuration":91463,"Delta":255992908},{"NoteNumber":73,"Velocity":38,"Duration":91463,"SoundDuration":91463,"Delta":256084371},{"NoteNumber":82,"Velocity":51,"Duration":91463,"SoundDuration":91463,"Delta":256175835},{"NoteNumber":46,"Velocity":48,"Duration":1147898,"SoundDuration":1147898,"Delta":256175835},{"NoteNumber":79,"Velocity":40,"Duration":91463,"SoundDuration":91463,"Delta":256267298},{"NoteNumber":73,"Velocity":46,"Duration":91463,"SoundDuration":91463,"Delta":256358762},{"NoteNumber":70,"Velocity":40,"Duration":98039,"SoundDuration":98039,"Delta":256450225},{"NoteNumber":79,"Velocity":51,"Duration":92109,"SoundDuration":92109,"Delta":256548265},{"NoteNumber":49,"Velocity":48,"Duration":775468,"SoundDuration":775468,"Delta":256548265},{"NoteNumber":73,"Velocity":36,"Duration":92568,"SoundDuration":92568,"Delta":256640374},{"NoteNumber":70,"Velocity":45,"Duration":92953,"SoundDuration":92953,"Delta":256732943},{"NoteNumber":67,"Velocity":36,"Duration":93300,"SoundDuration":93300,"Delta":256825897},{"NoteNumber":73,"Velocity":48,"Duration":93650,"SoundDuration":93650,"Delta":256919198},{"NoteNumber":51,"Velocity":47,"Duration":404535,"SoundDuration":404535,"Delta":256919198},{"NoteNumber":70,"Velocity":36,"Duration":94019,"SoundDuration":94019,"Delta":257012848},{"NoteNumber":67,"Velocity":42,"Duration":94416,"SoundDuration":94416,"Delta":257106867},{"NoteNumber":61,"Velocity":35,"Duration":122449,"SoundDuration":122449,"Delta":257201284},{"NoteNumber":70,"Velocity":37,"Duration":92440,"SoundDuration":92440,"Delta":257323733},{"NoteNumber":39,"Velocity":49,"Duration":551155,"SoundDuration":551155,"Delta":257323733},{"NoteNumber":67,"Velocity":28,"Duration":91743,"SoundDuration":91743,"Delta":257416173},{"NoteNumber":61,"Velocity":28,"Duration":91743,"SoundDuration":91743,"Delta":257507916},{"NoteNumber":58,"Velocity":28,"Duration":91743,"SoundDuration":91743,"Delta":257599659},{"NoteNumber":67,"Velocity":35,"Duration":91743,"SoundDuration":91743,"Delta":257691402},{"NoteNumber":61,"Velocity":28,"Duration":91742,"SoundDuration":91742,"Delta":257783145},{"NoteNumber":58,"Velocity":28,"Duration":95846,"SoundDuration":95846,"Delta":257874888},{"NoteNumber":41,"Velocity":44,"Duration":191693,"SoundDuration":191693,"Delta":257874888},{"NoteNumber":55,"Velocity":28,"Duration":95846,"SoundDuration":95846,"Delta":257970735},{"NoteNumber":63,"Velocity":34,"Duration":91463,"SoundDuration":91463,"Delta":258066582},{"NoteNumber":43,"Velocity":49,"Duration":548781,"SoundDuration":548781,"Delta":258066582},{"NoteNumber":61,"Velocity":29,"Duration":91463,"SoundDuration":91463,"Delta":258158045},{"NoteNumber":58,"Velocity":29,"Duration":91463,"SoundDuration":91463,"Delta":258249509},{"NoteNumber":55,"Velocity":28,"Duration":91463,"SoundDuration":91463,"Delta":258340972},{"NoteNumber":63,"Velocity":34,"Duration":91463,"SoundDuration":91463,"Delta":258432436},{"NoteNumber":61,"Velocity":28,"Duration":91463,"SoundDuration":91463,"Delta":258523899},{"NoteNumber":58,"Velocity":28,"Duration":95237,"SoundDuration":95237,"Delta":258615363},{"NoteNumber":44,"Velocity":44,"Duration":190475,"SoundDuration":190475,"Delta":258615363},{"NoteNumber":55,"Velocity":28,"Duration":95237,"SoundDuration":95237,"Delta":258710601},{"NoteNumber":63,"Velocity":37,"Duration":92440,"SoundDuration":92440,"Delta":258805839},{"NoteNumber":46,"Velocity":47,"Duration":551155,"SoundDuration":551155,"Delta":258805839},{"NoteNumber":61,"Velocity":28,"Duration":91743,"SoundDuration":91743,"Delta":258898279},{"NoteNumber":58,"Velocity":28,"Duration":91743,"SoundDuration":91743,"Delta":258990022},{"NoteNumber":55,"Velocity":28,"Duration":91743,"SoundDuration":91743,"Delta":259081765},{"NoteNumber":63,"Velocity":35,"Duration":91743,"SoundDuration":91743,"Delta":259173508},{"NoteNumber":61,"Velocity":28,"Duration":91742,"SoundDuration":91742,"Delta":259265251},{"NoteNumber":58,"Velocity":28,"Duration":95846,"SoundDuration":95846,"Delta":259356994},{"NoteNumber":48,"Velocity":44,"Duration":191693,"SoundDuration":191693,"Delta":259356994},{"NoteNumber":55,"Velocity":28,"Duration":95846,"SoundDuration":95846,"Delta":259452841},{"NoteNumber":63,"Velocity":34,"Duration":91463,"SoundDuration":91463,"Delta":259548687},{"NoteNumber":49,"Velocity":46,"Duration":182927,"SoundDuration":182927,"Delta":259548687},{"NoteNumber":61,"Velocity":29,"Duration":91463,"SoundDuration":91463,"Delta":259640151},{"NoteNumber":58,"Velocity":29,"Duration":91463,"SoundDuration":91463,"Delta":259731614},{"NoteNumber":48,"Velocity":44,"Duration":182927,"SoundDuration":182927,"Delta":259731614},{"NoteNumber":55,"Velocity":28,"Duration":91463,"SoundDuration":91463,"Delta":259823078},{"NoteNumber":63,"Velocity":34,"Duration":91463,"SoundDuration":91463,"Delta":259914541},{"NoteNumber":46,"Velocity":46,"Duration":182927,"SoundDuration":182927,"Delta":259914541},{"NoteNumber":61,"Velocity":28,"Duration":91463,"SoundDuration":91463,"Delta":260006005},{"NoteNumber":58,"Velocity":28,"Duration":95237,"SoundDuration":95237,"Delta":260097468},{"NoteNumber":44,"Velocity":38,"Duration":190475,"SoundDuration":190475,"Delta":260097468},{"NoteNumber":55,"Velocity":28,"Duration":95237,"SoundDuration":95237,"Delta":260192706},{"NoteNumber":63,"Velocity":37,"Duration":92440,"SoundDuration":92440,"Delta":260287944},{"NoteNumber":43,"Velocity":47,"Duration":551155,"SoundDuration":551155,"Delta":260287944},{"NoteNumber":61,"Velocity":28,"Duration":91743,"SoundDuration":91743,"Delta":260380385},{"NoteNumber":58,"Velocity":28,"Duration":91743,"SoundDuration":91743,"Delta":260472128},{"NoteNumber":55,"Velocity":28,"Duration":91743,"SoundDuration":91743,"Delta":260563871},{"NoteNumber":63,"Velocity":35,"Duration":91743,"SoundDuration":91743,"Delta":260655614},{"NoteNumber":61,"Velocity":28,"Duration":91742,"SoundDuration":91742,"Delta":260747357},{"NoteNumber":58,"Velocity":28,"Duration":95846,"SoundDuration":95846,"Delta":260839100},{"NoteNumber":44,"Velocity":44,"Duration":191693,"SoundDuration":191693,"Delta":260839100},{"NoteNumber":55,"Velocity":28,"Duration":95846,"SoundDuration":95846,"Delta":260934947},{"NoteNumber":63,"Velocity":34,"Duration":91463,"SoundDuration":91463,"Delta":261030793},{"NoteNumber":46,"Velocity":46,"Duration":182927,"SoundDuration":182927,"Delta":261030793},{"NoteNumber":61,"Velocity":29,"Duration":91463,"SoundDuration":91463,"Delta":261122257},{"NoteNumber":58,"Velocity":29,"Duration":91463,"SoundDuration":91463,"Delta":261213720},{"NoteNumber":44,"Velocity":44,"Duration":182927,"SoundDuration":182927,"Delta":261213720},{"NoteNumber":55,"Velocity":28,"Duration":91463,"SoundDuration":91463,"Delta":261305184},{"NoteNumber":63,"Velocity":34,"Duration":91463,"SoundDuration":91463,"Delta":261396647},{"NoteNumber":43,"Velocity":46,"Duration":182927,"SoundDuration":182927,"Delta":261396647},{"NoteNumber":61,"Velocity":28,"Duration":91463,"SoundDuration":91463,"Delta":261488111},{"NoteNumber":58,"Velocity":28,"Duration":95237,"SoundDuration":95237,"Delta":261579574},{"NoteNumber":41,"Velocity":38,"Duration":190475,"SoundDuration":190475,"Delta":261579574},{"NoteNumber":55,"Velocity":28,"Duration":95237,"SoundDuration":95237,"Delta":261674812},{"NoteNumber":63,"Velocity":37,"Duration":92440,"SoundDuration":92440,"Delta":261770050},{"NoteNumber":39,"Velocity":47,"Duration":551077,"SoundDuration":551077,"Delta":261774122},{"NoteNumber":61,"Velocity":27,"Duration":91743,"SoundDuration":91743,"Delta":261862491},{"NoteNumber":58,"Velocity":27,"Duration":91743,"SoundDuration":91743,"Delta":261954234},{"NoteNumber":55,"Velocity":27,"Duration":91743,"SoundDuration":91743,"Delta":262045977},{"NoteNumber":63,"Velocity":32,"Duration":91743,"SoundDuration":91743,"Delta":262137720},{"NoteNumber":61,"Velocity":25,"Duration":91742,"SoundDuration":91742,"Delta":262229463},{"NoteNumber":58,"Velocity":24,"Duration":95846,"SoundDuration":95846,"Delta":262321206},{"NoteNumber":55,"Velocity":24,"Duration":95846,"SoundDuration":95846,"Delta":262417052},{"NoteNumber":63,"Velocity":32,"Duration":91463,"SoundDuration":91463,"Delta":262512899},{"NoteNumber":61,"Velocity":23,"Duration":91463,"SoundDuration":91463,"Delta":262604363},{"NoteNumber":58,"Velocity":23,"Duration":91463,"SoundDuration":91463,"Delta":262695826},{"NoteNumber":55,"Velocity":21,"Duration":91463,"SoundDuration":91463,"Delta":262787290},{"NoteNumber":63,"Velocity":27,"Duration":91463,"SoundDuration":91463,"Delta":262878753},{"NoteNumber":61,"Velocity":20,"Duration":91463,"SoundDuration":91463,"Delta":262970217},{"NoteNumber":58,"Velocity":20,"Duration":95237,"SoundDuration":95237,"Delta":263061680},{"NoteNumber":55,"Velocity":19,"Duration":95237,"SoundDuration":95237,"Delta":263156918},{"NoteNumber":64,"Velocity":29,"Duration":92976,"SoundDuration":92976,"Delta":263252156},{"NoteNumber":36,"Velocity":39,"Duration":556941,"SoundDuration":556941,"Delta":263252156},{"NoteNumber":61,"Velocity":22,"Duration":92793,"SoundDuration":92793,"Delta":263345132},{"NoteNumber":58,"Velocity":22,"Duration":92792,"SoundDuration":92792,"Delta":263437925},{"NoteNumber":55,"Velocity":22,"Duration":92793,"SoundDuration":92793,"Delta":263530718},{"NoteNumber":64,"Velocity":27,"Duration":92792,"SoundDuration":92792,"Delta":263623511},{"NoteNumber":61,"Velocity":22,"Duration":92793,"SoundDuration":92793,"Delta":263716304},{"NoteNumber":58,"Velocity":22,"Duration":95846,"SoundDuration":95846,"Delta":263809097},{"NoteNumber":38,"Velocity":35,"Duration":191693,"SoundDuration":191693,"Delta":263809097},{"NoteNumber":55,"Velocity":22,"Duration":95846,"SoundDuration":95846,"Delta":263904944},{"NoteNumber":64,"Velocity":27,"Duration":91463,"SoundDuration":91463,"Delta":264000791},{"NoteNumber":40,"Velocity":39,"Duration":548781,"SoundDuration":548781,"Delta":264000791},{"NoteNumber":61,"Velocity":23,"Duration":91463,"SoundDuration":91463,"Delta":264092254},{"NoteNumber":58,"Velocity":23,"Duration":91463,"SoundDuration":91463,"Delta":264183718},{"NoteNumber":55,"Velocity":22,"Duration":91463,"SoundDuration":91463,"Delta":264275181},{"NoteNumber":64,"Velocity":27,"Duration":91463,"SoundDuration":91463,"Delta":264366645},{"NoteNumber":61,"Velocity":22,"Duration":91463,"SoundDuration":91463,"Delta":264458108},{"NoteNumber":58,"Velocity":22,"Duration":95237,"SoundDuration":95237,"Delta":264549572},{"NoteNumber":41,"Velocity":35,"Duration":190475,"SoundDuration":190475,"Delta":264549572},{"NoteNumber":55,"Velocity":22,"Duration":95237,"SoundDuration":95237,"Delta":264644810},{"NoteNumber":64,"Velocity":29,"Duration":92440,"SoundDuration":92440,"Delta":264740048},{"NoteNumber":43,"Velocity":37,"Duration":551155,"SoundDuration":551155,"Delta":264740048},{"NoteNumber":61,"Velocity":22,"Duration":91743,"SoundDuration":91743,"Delta":264832488},{"NoteNumber":58,"Velocity":22,"Duration":91743,"SoundDuration":91743,"Delta":264924231},{"NoteNumber":55,"Velocity":22,"Duration":91743,"SoundDuration":91743,"Delta":265015974},{"NoteNumber":64,"Velocity":27,"Duration":91743,"SoundDuration":91743,"Delta":265107717},{"NoteNumber":61,"Velocity":22,"Duration":91742,"SoundDuration":91742,"Delta":265199460},{"NoteNumber":58,"Velocity":22,"Duration":95846,"SoundDuration":95846,"Delta":265291203},{"NoteNumber":44,"Velocity":35,"Duration":191693,"SoundDuration":191693,"Delta":265291203},{"NoteNumber":55,"Velocity":22,"Duration":95846,"SoundDuration":95846,"Delta":265387050},{"NoteNumber":64,"Velocity":27,"Duration":91463,"SoundDuration":91463,"Delta":265482897},{"NoteNumber":46,"Velocity":36,"Duration":182927,"SoundDuration":182927,"Delta":265482897},{"NoteNumber":61,"Velocity":23,"Duration":91463,"SoundDuration":91463,"Delta":265574360},{"NoteNumber":58,"Velocity":23,"Duration":91463,"SoundDuration":91463,"Delta":265665824},{"NoteNumber":44,"Velocity":35,"Duration":182927,"SoundDuration":182927,"Delta":265665824},{"NoteNumber":55,"Velocity":22,"Duration":91463,"SoundDuration":91463,"Delta":265757287},{"NoteNumber":64,"Velocity":27,"Duration":91463,"SoundDuration":91463,"Delta":265848751},{"NoteNumber":43,"Velocity":36,"Duration":182927,"SoundDuration":182927,"Delta":265848751},{"NoteNumber":61,"Velocity":22,"Duration":91463,"SoundDuration":91463,"Delta":265940214},{"NoteNumber":58,"Velocity":22,"Duration":95237,"SoundDuration":95237,"Delta":266031678},{"NoteNumber":41,"Velocity":30,"Duration":190475,"SoundDuration":190475,"Delta":266031678},{"NoteNumber":55,"Velocity":22,"Duration":95237,"SoundDuration":95237,"Delta":266126916},{"NoteNumber":64,"Velocity":29,"Duration":92440,"SoundDuration":92440,"Delta":266222154},{"NoteNumber":40,"Velocity":37,"Duration":551155,"SoundDuration":551155,"Delta":266222154},{"NoteNumber":61,"Velocity":22,"Duration":91743,"SoundDuration":91743,"Delta":266314594},{"NoteNumber":58,"Velocity":22,"Duration":91743,"SoundDuration":91743,"Delta":266406337},{"NoteNumber":55,"Velocity":22,"Duration":91743,"SoundDuration":91743,"Delta":266498080},{"NoteNumber":64,"Velocity":27,"Duration":91743,"SoundDuration":91743,"Delta":266589823},{"NoteNumber":61,"Velocity":22,"Duration":91742,"SoundDuration":91742,"Delta":266681566},{"NoteNumber":58,"Velocity":22,"Duration":95846,"SoundDuration":95846,"Delta":266773309},{"NoteNumber":41,"Velocity":35,"Duration":191693,"SoundDuration":191693,"Delta":266773309},{"NoteNumber":55,"Velocity":22,"Duration":95846,"SoundDuration":95846,"Delta":266869156},{"NoteNumber":64,"Velocity":27,"Duration":91463,"SoundDuration":91463,"Delta":266965003},{"NoteNumber":43,"Velocity":36,"Duration":182927,"SoundDuration":182927,"Delta":266965003},{"NoteNumber":61,"Velocity":23,"Duration":91463,"SoundDuration":91463,"Delta":267056466},{"NoteNumber":58,"Velocity":23,"Duration":91463,"SoundDuration":91463,"Delta":267147930},{"NoteNumber":41,"Velocity":35,"Duration":182927,"SoundDuration":182927,"Delta":267147930},{"NoteNumber":55,"Velocity":22,"Duration":91463,"SoundDuration":91463,"Delta":267239393},{"NoteNumber":64,"Velocity":27,"Duration":91463,"SoundDuration":91463,"Delta":267330857},{"NoteNumber":40,"Velocity":36,"Duration":182927,"SoundDuration":182927,"Delta":267330857},{"NoteNumber":61,"Velocity":22,"Duration":91463,"SoundDuration":91463,"Delta":267422320},{"NoteNumber":58,"Velocity":22,"Duration":95237,"SoundDuration":95237,"Delta":267513784},{"NoteNumber":38,"Velocity":30,"Duration":190475,"SoundDuration":190475,"Delta":267513784},{"NoteNumber":55,"Velocity":22,"Duration":95237,"SoundDuration":95237,"Delta":267609022},{"NoteNumber":64,"Velocity":29,"Duration":92440,"SoundDuration":92440,"Delta":267704260},{"NoteNumber":36,"Velocity":37,"Duration":551155,"SoundDuration":551155,"Delta":267704260},{"NoteNumber":61,"Velocity":22,"Duration":91743,"SoundDuration":91743,"Delta":267796700},{"NoteNumber":58,"Velocity":22,"Duration":91743,"SoundDuration":91743,"Delta":267888443},{"NoteNumber":55,"Velocity":22,"Duration":91743,"SoundDuration":91743,"Delta":267980186},{"NoteNumber":64,"Velocity":27,"Duration":91743,"SoundDuration":91743,"Delta":268071929},{"NoteNumber":61,"Velocity":22,"Duration":91742,"SoundDuration":91742,"Delta":268163672},{"NoteNumber":58,"Velocity":22,"Duration":95846,"SoundDuration":95846,"Delta":268255415},{"NoteNumber":55,"Velocity":22,"Duration":95846,"SoundDuration":95846,"Delta":268351262},{"NoteNumber":64,"Velocity":27,"Duration":92165,"SoundDuration":92165,"Delta":268447108},{"NoteNumber":61,"Velocity":23,"Duration":92222,"SoundDuration":92222,"Delta":268539274},{"NoteNumber":58,"Velocity":23,"Duration":92222,"SoundDuration":92222,"Delta":268631496},{"NoteNumber":55,"Velocity":22,"Duration":92222,"SoundDuration":92222,"Delta":268723719},{"NoteNumber":64,"Velocity":27,"Duration":92222,"SoundDuration":92222,"Delta":268815941},{"NoteNumber":61,"Velocity":22,"Duration":92222,"SoundDuration":92222,"Delta":268908164},{"NoteNumber":58,"Velocity":22,"Duration":95237,"SoundDuration":95237,"Delta":269000386},{"NoteNumber":55,"Velocity":22,"Duration":95237,"SoundDuration":95237,"Delta":269095624},{"NoteNumber":63,"Velocity":29,"Duration":92440,"SoundDuration":92440,"Delta":269190862},{"NoteNumber":29,"Velocity":39,"Duration":551155,"SoundDuration":551155,"Delta":269190862},{"NoteNumber":60,"Velocity":22,"Duration":91743,"SoundDuration":91743,"Delta":269283303},{"NoteNumber":57,"Velocity":22,"Duration":91743,"SoundDuration":91743,"Delta":269375046},{"NoteNumber":54,"Velocity":22,"Duration":91743,"SoundDuration":91743,"Delta":269466789},{"NoteNumber":63,"Velocity":27,"Duration":91743,"SoundDuration":91743,"Delta":269558532},{"NoteNumber":60,"Velocity":22,"Duration":91742,"SoundDuration":91742,"Delta":269650275},{"NoteNumber":57,"Velocity":22,"Duration":95846,"SoundDuration":95846,"Delta":269742018},{"NoteNumber":31,"Velocity":35,"Duration":191693,"SoundDuration":191693,"Delta":269742018},{"NoteNumber":54,"Velocity":22,"Duration":95846,"SoundDuration":95846,"Delta":269837864},{"NoteNumber":63,"Velocity":27,"Duration":91463,"SoundDuration":91463,"Delta":269933711},{"NoteNumber":33,"Velocity":39,"Duration":548781,"SoundDuration":548781,"Delta":269933711},{"NoteNumber":60,"Velocity":23,"Duration":91463,"SoundDuration":91463,"Delta":270025175},{"NoteNumber":57,"Velocity":23,"Duration":91463,"SoundDuration":91463,"Delta":270116638},{"NoteNumber":54,"Velocity":22,"Duration":91463,"SoundDuration":91463,"Delta":270208102},{"NoteNumber":63,"Velocity":27,"Duration":91463,"SoundDuration":91463,"Delta":270299565},{"NoteNumber":60,"Velocity":22,"Duration":91463,"SoundDuration":91463,"Delta":270391029},{"NoteNumber":57,"Velocity":22,"Duration":95237,"SoundDuration":95237,"Delta":270482492},{"NoteNumber":34,"Velocity":35,"Duration":190475,"SoundDuration":190475,"Delta":270482492},{"NoteNumber":54,"Velocity":22,"Duration":95237,"SoundDuration":95237,"Delta":270577730},{"NoteNumber":63,"Velocity":29,"Duration":92440,"SoundDuration":92440,"Delta":270672968},{"NoteNumber":36,"Velocity":37,"Duration":551155,"SoundDuration":551155,"Delta":270672968},{"NoteNumber":60,"Velocity":22,"Duration":91743,"SoundDuration":91743,"Delta":270765408},{"NoteNumber":57,"Velocity":22,"Duration":91743,"SoundDuration":91743,"Delta":270857151},{"NoteNumber":54,"Velocity":22,"Duration":91743,"SoundDuration":91743,"Delta":270948894},{"NoteNumber":63,"Velocity":27,"Duration":91743,"SoundDuration":91743,"Delta":271040637},{"NoteNumber":60,"Velocity":22,"Duration":91742,"SoundDuration":91742,"Delta":271132380},{"NoteNumber":57,"Velocity":22,"Duration":95846,"SoundDuration":95846,"Delta":271224123},{"NoteNumber":37,"Velocity":35,"Duration":191693,"SoundDuration":191693,"Delta":271224123},{"NoteNumber":54,"Velocity":22,"Duration":95846,"SoundDuration":95846,"Delta":271319970},{"NoteNumber":63,"Velocity":27,"Duration":91463,"SoundDuration":91463,"Delta":271415817},{"NoteNumber":39,"Velocity":36,"Duration":182927,"SoundDuration":182927,"Delta":271415817},{"NoteNumber":60,"Velocity":23,"Duration":91463,"SoundDuration":91463,"Delta":271507280},{"NoteNumber":57,"Velocity":23,"Duration":91463,"SoundDuration":91463,"Delta":271598744},{"NoteNumber":37,"Velocity":35,"Duration":182927,"SoundDuration":182927,"Delta":271598744},{"NoteNumber":54,"Velocity":22,"Duration":91463,"SoundDuration":91463,"Delta":271690207},{"NoteNumber":63,"Velocity":27,"Duration":91463,"SoundDuration":91463,"Delta":271781671},{"NoteNumber":36,"Velocity":36,"Duration":182927,"SoundDuration":182927,"Delta":271781671},{"NoteNumber":60,"Velocity":22,"Duration":91463,"SoundDuration":91463,"Delta":271873134},{"NoteNumber":57,"Velocity":22,"Duration":95237,"SoundDuration":95237,"Delta":271964598},{"NoteNumber":34,"Velocity":30,"Duration":190475,"SoundDuration":190475,"Delta":271964598},{"NoteNumber":54,"Velocity":22,"Duration":95237,"SoundDuration":95237,"Delta":272059836},{"NoteNumber":63,"Velocity":29,"Duration":92440,"SoundDuration":92440,"Delta":272155074},{"NoteNumber":33,"Velocity":37,"Duration":551155,"SoundDuration":551155,"Delta":272155074},{"NoteNumber":60,"Velocity":22,"Duration":91743,"SoundDuration":91743,"Delta":272247514},{"NoteNumber":57,"Velocity":22,"Duration":91743,"SoundDuration":91743,"Delta":272339257},{"NoteNumber":54,"Velocity":22,"Duration":91743,"SoundDuration":91743,"Delta":272431000},{"NoteNumber":63,"Velocity":27,"Duration":91743,"SoundDuration":91743,"Delta":272522743},{"NoteNumber":60,"Velocity":22,"Duration":91742,"SoundDuration":91742,"Delta":272614486},{"NoteNumber":57,"Velocity":22,"Duration":95846,"SoundDuration":95846,"Delta":272706229},{"NoteNumber":34,"Velocity":35,"Duration":191693,"SoundDuration":191693,"Delta":272706229},{"NoteNumber":54,"Velocity":22,"Duration":95846,"SoundDuration":95846,"Delta":272802076},{"NoteNumber":63,"Velocity":27,"Duration":91463,"SoundDuration":91463,"Delta":272897923},{"NoteNumber":36,"Velocity":36,"Duration":182927,"SoundDuration":182927,"Delta":272897923},{"NoteNumber":60,"Velocity":23,"Duration":91463,"SoundDuration":91463,"Delta":272989386},{"NoteNumber":57,"Velocity":23,"Duration":91463,"SoundDuration":91463,"Delta":273080850},{"NoteNumber":34,"Velocity":35,"Duration":182927,"SoundDuration":182927,"Delta":273080850},{"NoteNumber":54,"Velocity":22,"Duration":91463,"SoundDuration":91463,"Delta":273172313},{"NoteNumber":63,"Velocity":27,"Duration":91463,"SoundDuration":91463,"Delta":273263777},{"NoteNumber":33,"Velocity":36,"Duration":182927,"SoundDuration":182927,"Delta":273263777},{"NoteNumber":60,"Velocity":22,"Duration":91463,"SoundDuration":91463,"Delta":273355240},{"NoteNumber":57,"Velocity":22,"Duration":95237,"SoundDuration":95237,"Delta":273446704},{"NoteNumber":31,"Velocity":30,"Duration":190475,"SoundDuration":190475,"Delta":273446704},{"NoteNumber":54,"Velocity":22,"Duration":95237,"SoundDuration":95237,"Delta":273541942},{"NoteNumber":63,"Velocity":29,"Duration":92440,"SoundDuration":92440,"Delta":273637180},{"NoteNumber":29,"Velocity":37,"Duration":2224954,"SoundDuration":2224954,"Delta":273637180},{"NoteNumber":60,"Velocity":22,"Duration":91743,"SoundDuration":91743,"Delta":273729620},{"NoteNumber":57,"Velocity":22,"Duration":91743,"SoundDuration":91743,"Delta":273821363},{"NoteNumber":54,"Velocity":22,"Duration":91743,"SoundDuration":91743,"Delta":273913106},{"NoteNumber":63,"Velocity":27,"Duration":91743,"SoundDuration":91743,"Delta":274004849},{"NoteNumber":60,"Velocity":22,"Duration":91742,"SoundDuration":91742,"Delta":274096592},{"NoteNumber":57,"Velocity":22,"Duration":95846,"SoundDuration":95846,"Delta":274188335},{"NoteNumber":54,"Velocity":22,"Duration":95846,"SoundDuration":95846,"Delta":274284182},{"NoteNumber":63,"Velocity":27,"Duration":91463,"SoundDuration":91463,"Delta":274380029},{"NoteNumber":60,"Velocity":23,"Duration":91463,"SoundDuration":91463,"Delta":274471492},{"NoteNumber":57,"Velocity":23,"Duration":91463,"SoundDuration":91463,"Delta":274562956},{"NoteNumber":53,"Velocity":22,"Duration":91463,"SoundDuration":91463,"Delta":274654419},{"NoteNumber":63,"Velocity":27,"Duration":91463,"SoundDuration":91463,"Delta":274745883},{"NoteNumber":60,"Velocity":22,"Duration":91463,"SoundDuration":91463,"Delta":274837346},{"NoteNumber":57,"Velocity":22,"Duration":95237,"SoundDuration":95237,"Delta":274928810},{"NoteNumber":53,"Velocity":22,"Duration":95237,"SoundDuration":95237,"Delta":275024048},{"NoteNumber":63,"Velocity":29,"Duration":92440,"SoundDuration":92440,"Delta":275119286},{"NoteNumber":60,"Velocity":22,"Duration":91743,"SoundDuration":91743,"Delta":275211726},{"NoteNumber":57,"Velocity":22,"Duration":91743,"SoundDuration":91743,"Delta":275303469},{"NoteNumber":53,"Velocity":22,"Duration":91743,"SoundDuration":91743,"Delta":275395212},{"NoteNumber":63,"Velocity":27,"Duration":91743,"SoundDuration":91743,"Delta":275486955},{"NoteNumber":60,"Velocity":22,"Duration":91742,"SoundDuration":91742,"Delta":275578698},{"NoteNumber":57,"Velocity":22,"Duration":95846,"SoundDuration":95846,"Delta":275670441},{"NoteNumber":53,"Velocity":22,"Duration":95846,"SoundDuration":95846,"Delta":275766288},{"NoteNumber":63,"Velocity":27,"Duration":91463,"SoundDuration":91463,"Delta":275862134},{"NoteNumber":36,"Velocity":36,"Duration":182927,"SoundDuration":182927,"Delta":275862134},{"NoteNumber":60,"Velocity":23,"Duration":91463,"SoundDuration":91463,"Delta":275953598},{"NoteNumber":57,"Velocity":23,"Duration":91463,"SoundDuration":91463,"Delta":276045061},{"NoteNumber":34,"Velocity":35,"Duration":182927,"SoundDuration":182927,"Delta":276045061},{"NoteNumber":53,"Velocity":22,"Duration":91463,"SoundDuration":91463,"Delta":276136525},{"NoteNumber":63,"Velocity":27,"Duration":91463,"SoundDuration":91463,"Delta":276227988},{"NoteNumber":33,"Velocity":36,"Duration":182927,"SoundDuration":182927,"Delta":276227988},{"NoteNumber":60,"Velocity":22,"Duration":91463,"SoundDuration":91463,"Delta":276319452},{"NoteNumber":57,"Velocity":22,"Duration":95237,"SoundDuration":95237,"Delta":276410915},{"NoteNumber":31,"Velocity":30,"Duration":190475,"SoundDuration":190475,"Delta":276410915},{"NoteNumber":53,"Velocity":22,"Duration":95237,"SoundDuration":95237,"Delta":276506153},{"NoteNumber":63,"Velocity":29,"Duration":92440,"SoundDuration":92440,"Delta":276601391},{"NoteNumber":29,"Velocity":37,"Duration":2224954,"SoundDuration":2224954,"Delta":276601391},{"NoteNumber":60,"Velocity":22,"Duration":91743,"SoundDuration":91743,"Delta":276693832},{"NoteNumber":57,"Velocity":22,"Duration":91743,"SoundDuration":91743,"Delta":276785575},{"NoteNumber":53,"Velocity":22,"Duration":91743,"SoundDuration":91743,"Delta":276877318},{"NoteNumber":63,"Velocity":27,"Duration":91743,"SoundDuration":91743,"Delta":276969061},{"NoteNumber":60,"Velocity":22,"Duration":91742,"SoundDuration":91742,"Delta":277060804},{"NoteNumber":57,"Velocity":22,"Duration":95846,"SoundDuration":95846,"Delta":277152547},{"NoteNumber":53,"Velocity":22,"Duration":95846,"SoundDuration":95846,"Delta":277248393},{"NoteNumber":63,"Velocity":27,"Duration":91463,"SoundDuration":91463,"Delta":277344240},{"NoteNumber":60,"Velocity":23,"Duration":91463,"SoundDuration":91463,"Delta":277435704},{"NoteNumber":57,"Velocity":23,"Duration":91463,"SoundDuration":91463,"Delta":277527167},{"NoteNumber":53,"Velocity":22,"Duration":91463,"SoundDuration":91463,"Delta":277618631},{"NoteNumber":63,"Velocity":27,"Duration":91463,"SoundDuration":91463,"Delta":277710094},{"NoteNumber":60,"Velocity":22,"Duration":91463,"SoundDuration":91463,"Delta":277801558},{"NoteNumber":57,"Velocity":22,"Duration":95237,"SoundDuration":95237,"Delta":277893021},{"NoteNumber":53,"Velocity":22,"Duration":95237,"SoundDuration":95237,"Delta":277988259},{"NoteNumber":63,"Velocity":29,"Duration":92440,"SoundDuration":92440,"Delta":278083497},{"NoteNumber":60,"Velocity":22,"Duration":91743,"SoundDuration":91743,"Delta":278175937},{"NoteNumber":57,"Velocity":22,"Duration":91743,"SoundDuration":91743,"Delta":278267680},{"NoteNumber":53,"Velocity":22,"Duration":91743,"SoundDuration":91743,"Delta":278359423},{"NoteNumber":63,"Velocity":28,"Duration":91743,"SoundDuration":91743,"Delta":278451166},{"NoteNumber":60,"Velocity":23,"Duration":91742,"SoundDuration":91742,"Delta":278542909},{"NoteNumber":57,"Velocity":23,"Duration":95846,"SoundDuration":95846,"Delta":278634652},{"NoteNumber":53,"Velocity":23,"Duration":95846,"SoundDuration":95846,"Delta":278730499},{"NoteNumber":63,"Velocity":28,"Duration":91463,"SoundDuration":91463,"Delta":278826346},{"NoteNumber":36,"Velocity":41,"Duration":182927,"SoundDuration":182927,"Delta":278826346},{"NoteNumber":60,"Velocity":24,"Duration":91463,"SoundDuration":91463,"Delta":278917809},{"NoteNumber":57,"Velocity":24,"Duration":91463,"SoundDuration":91463,"Delta":279009273},{"NoteNumber":34,"Velocity":40,"Duration":182927,"SoundDuration":182927,"Delta":279009273},{"NoteNumber":53,"Velocity":24,"Duration":91463,"SoundDuration":91463,"Delta":279100736},{"NoteNumber":63,"Velocity":29,"Duration":91463,"SoundDuration":91463,"Delta":279192200},{"NoteNumber":33,"Velocity":41,"Duration":182927,"SoundDuration":182927,"Delta":279192200},{"NoteNumber":60,"Velocity":24,"Duration":91463,"SoundDuration":91463,"Delta":279283663},{"NoteNumber":57,"Velocity":24,"Duration":95237,"SoundDuration":95237,"Delta":279375127},{"NoteNumber":31,"Velocity":34,"Duration":190475,"SoundDuration":190475,"Delta":279375127},{"NoteNumber":53,"Velocity":24,"Duration":95237,"SoundDuration":95237,"Delta":279470365},{"NoteNumber":63,"Velocity":33,"Duration":92440,"SoundDuration":92440,"Delta":279565603},{"NoteNumber":29,"Velocity":42,"Duration":742848,"SoundDuration":742848,"Delta":279565603},{"NoteNumber":60,"Velocity":25,"Duration":91743,"SoundDuration":91743,"Delta":279658043},{"NoteNumber":57,"Velocity":25,"Duration":91743,"SoundDuration":91743,"Delta":279749786},{"NoteNumber":53,"Velocity":25,"Duration":91743,"SoundDuration":91743,"Delta":279841529},{"NoteNumber":63,"Velocity":32,"Duration":91743,"SoundDuration":91743,"Delta":279933272},{"NoteNumber":60,"Velocity":26,"Duration":91742,"SoundDuration":91742,"Delta":280025015},{"NoteNumber":57,"Velocity":26,"Duration":95846,"SoundDuration":95846,"Delta":280116758},{"NoteNumber":53,"Velocity":26,"Duration":95846,"SoundDuration":95846,"Delta":280212605},{"NoteNumber":63,"Velocity":32,"Duration":91463,"SoundDuration":91463,"Delta":280308452},{"NoteNumber":36,"Velocity":43,"Duration":182927,"SoundDuration":182927,"Delta":280308452},{"NoteNumber":60,"Velocity":28,"Duration":91463,"SoundDuration":91463,"Delta":280399915},{"NoteNumber":57,"Velocity":28,"Duration":91463,"SoundDuration":91463,"Delta":280491379},{"NoteNumber":34,"Velocity":43,"Duration":182927,"SoundDuration":182927,"Delta":280491379},{"NoteNumber":53,"Velocity":27,"Duration":91463,"SoundDuration":91463,"Delta":280582842},{"NoteNumber":63,"Velocity":33,"Duration":91463,"SoundDuration":91463,"Delta":280674306},{"NoteNumber":33,"Velocity":46,"Duration":182927,"SoundDuration":182927,"Delta":280674306},{"NoteNumber":60,"Velocity":28,"Duration":91463,"SoundDuration":91463,"Delta":280765769},{"NoteNumber":57,"Velocity":28,"Duration":95237,"SoundDuration":95237,"Delta":280857233},{"NoteNumber":31,"Velocity":39,"Duration":190475,"SoundDuration":190475,"Delta":280857233},{"NoteNumber":53,"Velocity":28,"Duration":95237,"SoundDuration":95237,"Delta":280952471},{"NoteNumber":63,"Velocity":38,"Duration":92440,"SoundDuration":92440,"Delta":281047709},{"NoteNumber":29,"Velocity":48,"Duration":742848,"SoundDuration":742848,"Delta":281047709},{"NoteNumber":60,"Velocity":29,"Duration":91743,"SoundDuration":91743,"Delta":281140149},{"NoteNumber":57,"Velocity":29,"Duration":91743,"SoundDuration":91743,"Delta":281231892},{"NoteNumber":53,"Velocity":29,"Duration":91743,"SoundDuration":91743,"Delta":281323635},{"NoteNumber":63,"Velocity":37,"Duration":91743,"SoundDuration":91743,"Delta":281415378},{"NoteNumber":60,"Velocity":30,"Duration":91742,"SoundDuration":91742,"Delta":281507121},{"NoteNumber":57,"Velocity":30,"Duration":95846,"SoundDuration":95846,"Delta":281598864},{"NoteNumber":53,"Velocity":30,"Duration":95846,"SoundDuration":95846,"Delta":281694711},{"NoteNumber":63,"Velocity":37,"Duration":91463,"SoundDuration":91463,"Delta":281790557},{"NoteNumber":36,"Velocity":51,"Duration":182927,"SoundDuration":182927,"Delta":281790557},{"NoteNumber":60,"Velocity":32,"Duration":91463,"SoundDuration":91463,"Delta":281882021},{"NoteNumber":57,"Velocity":33,"Duration":91463,"SoundDuration":91463,"Delta":281973484},{"NoteNumber":34,"Velocity":50,"Duration":182927,"SoundDuration":182927,"Delta":281973484},{"NoteNumber":53,"Velocity":32,"Duration":91463,"SoundDuration":91463,"Delta":282064948},{"NoteNumber":63,"Velocity":38,"Duration":91463,"SoundDuration":91463,"Delta":282156411},{"NoteNumber":33,"Velocity":52,"Duration":182927,"SoundDuration":182927,"Delta":282156411},{"NoteNumber":60,"Velocity":32,"Duration":91463,"SoundDuration":91463,"Delta":282247875},{"NoteNumber":57,"Velocity":33,"Duration":95237,"SoundDuration":95237,"Delta":282339338},{"NoteNumber":31,"Velocity":44,"Duration":190475,"SoundDuration":190475,"Delta":282339338},{"NoteNumber":53,"Velocity":33,"Duration":95237,"SoundDuration":95237,"Delta":282434576},{"NoteNumber":63,"Velocity":44,"Duration":92440,"SoundDuration":92440,"Delta":282529814},{"NoteNumber":29,"Velocity":56,"Duration":551155,"SoundDuration":551155,"Delta":282529814},{"NoteNumber":60,"Velocity":33,"Duration":91743,"SoundDuration":91743,"Delta":282622255},{"NoteNumber":57,"Velocity":34,"Duration":91743,"SoundDuration":91743,"Delta":282713998},{"NoteNumber":53,"Velocity":34,"Duration":91743,"SoundDuration":91743,"Delta":282805741},{"NoteNumber":63,"Velocity":43,"Duration":91743,"SoundDuration":91743,"Delta":282897484},{"NoteNumber":60,"Velocity":36,"Duration":91742,"SoundDuration":91742,"Delta":282989227},{"NoteNumber":57,"Velocity":39,"Duration":95846,"SoundDuration":95846,"Delta":283080970},{"NoteNumber":31,"Velocity":54,"Duration":191693,"SoundDuration":191693,"Delta":283080970},{"NoteNumber":53,"Velocity":41,"Duration":95846,"SoundDuration":95846,"Delta":283176816},{"NoteNumber":63,"Velocity":53,"Duration":91743,"SoundDuration":91743,"Delta":283272663},{"NoteNumber":33,"Velocity":59,"Duration":183486,"SoundDuration":183486,"Delta":283272663},{"NoteNumber":60,"Velocity":43,"Duration":91743,"SoundDuration":91743,"Delta":283364406},{"NoteNumber":57,"Velocity":44,"Duration":95846,"SoundDuration":95846,"Delta":283456149},{"NoteNumber":34,"Velocity":54,"Duration":191693,"SoundDuration":191693,"Delta":283456149},{"NoteNumber":53,"Velocity":44,"Duration":95846,"SoundDuration":95846,"Delta":283551996},{"NoteNumber":63,"Velocity":55,"Duration":91743,"SoundDuration":91743,"Delta":283647843},{"NoteNumber":36,"Velocity":62,"Duration":183486,"SoundDuration":183486,"Delta":283647843},{"NoteNumber":60,"Velocity":45,"Duration":91743,"SoundDuration":91743,"Delta":283739586},{"NoteNumber":57,"Velocity":45,"Duration":95846,"SoundDuration":95846,"Delta":283831329},{"NoteNumber":38,"Velocity":54,"Duration":191693,"SoundDuration":191693,"Delta":283831329},{"NoteNumber":53,"Velocity":45,"Duration":95846,"SoundDuration":95846,"Delta":283927175},{"NoteNumber":63,"Velocity":56,"Duration":91743,"SoundDuration":91743,"Delta":284023022},{"NoteNumber":39,"Velocity":59,"Duration":183486,"SoundDuration":183486,"Delta":284023022},{"NoteNumber":60,"Velocity":46,"Duration":91743,"SoundDuration":91743,"Delta":284114765},{"NoteNumber":57,"Velocity":46,"Duration":95846,"SoundDuration":95846,"Delta":284206508},{"NoteNumber":40,"Velocity":54,"Duration":191693,"SoundDuration":191693,"Delta":284206508},{"NoteNumber":53,"Velocity":46,"Duration":95846,"SoundDuration":95846,"Delta":284302355},{"NoteNumber":63,"Velocity":57,"Duration":91743,"SoundDuration":91743,"Delta":284398202},{"NoteNumber":41,"Velocity":64,"Duration":183486,"SoundDuration":183486,"Delta":284398202},{"NoteNumber":60,"Velocity":47,"Duration":91743,"SoundDuration":91743,"Delta":284489945},{"NoteNumber":57,"Velocity":47,"Duration":95846,"SoundDuration":95846,"Delta":284581688},{"NoteNumber":43,"Velocity":57,"Duration":191693,"SoundDuration":191693,"Delta":284581688},{"NoteNumber":53,"Velocity":47,"Duration":95846,"SoundDuration":95846,"Delta":284677534},{"NoteNumber":63,"Velocity":59,"Duration":91743,"SoundDuration":91743,"Delta":284773381},{"NoteNumber":45,"Velocity":59,"Duration":183486,"SoundDuration":183486,"Delta":284773381},{"NoteNumber":60,"Velocity":48,"Duration":91743,"SoundDuration":91743,"Delta":284865124},{"NoteNumber":57,"Velocity":48,"Duration":95846,"SoundDuration":95846,"Delta":284956867},{"NoteNumber":46,"Velocity":55,"Duration":191693,"SoundDuration":191693,"Delta":284956867},{"NoteNumber":53,"Velocity":49,"Duration":95846,"SoundDuration":95846,"Delta":285052714},{"NoteNumber":63,"Velocity":60,"Duration":91743,"SoundDuration":91743,"Delta":285148561},{"NoteNumber":48,"Velocity":66,"Duration":183486,"SoundDuration":183486,"Delta":285148561},{"NoteNumber":60,"Velocity":49,"Duration":91743,"SoundDuration":91743,"Delta":285240304},{"NoteNumber":57,"Velocity":49,"Duration":95846,"SoundDuration":95846,"Delta":285332047},{"NoteNumber":50,"Velocity":60,"Duration":213034,"SoundDuration":213034,"Delta":285332047},{"NoteNumber":53,"Velocity":50,"Duration":117187,"SoundDuration":117187,"Delta":285427893},{"NoteNumber":51,"Velocity":63,"Duration":1486190,"SoundDuration":1486190,"Delta":285545081},{"NoteNumber":41,"Velocity":63,"Duration":1486190,"SoundDuration":1486190,"Delta":285545081},{"NoteNumber":52,"Velocity":54,"Duration":195046,"SoundDuration":195046,"Delta":285730839},{"NoteNumber":53,"Velocity":44,"Duration":195046,"SoundDuration":195046,"Delta":285916598},{"NoteNumber":55,"Velocity":44,"Duration":195046,"SoundDuration":195046,"Delta":286102356},{"NoteNumber":57,"Velocity":53,"Duration":195046,"SoundDuration":195046,"Delta":286288115},{"NoteNumber":58,"Velocity":40,"Duration":195046,"SoundDuration":195046,"Delta":286473873},{"NoteNumber":60,"Velocity":40,"Duration":195046,"SoundDuration":195046,"Delta":286659632},{"NoteNumber":62,"Velocity":40,"Duration":195197,"SoundDuration":195197,"Delta":286845390},{"NoteNumber":63,"Velocity":52,"Duration":195978,"SoundDuration":195978,"Delta":287031272},{"NoteNumber":41,"Velocity":50,"Duration":752330,"SoundDuration":752330,"Delta":287031272},{"NoteNumber":48,"Velocity":50,"Duration":752330,"SoundDuration":752330,"Delta":287031272},{"NoteNumber":64,"Velocity":45,"Duration":197037,"SoundDuration":197037,"Delta":287217905},{"NoteNumber":65,"Velocity":43,"Duration":198039,"SoundDuration":198039,"Delta":287405537},{"NoteNumber":67,"Velocity":41,"Duration":198955,"SoundDuration":198955,"Delta":287594113},{"NoteNumber":69,"Velocity":45,"Duration":201808,"SoundDuration":201808,"Delta":287783602},{"NoteNumber":41,"Velocity":42,"Duration":927543,"SoundDuration":927543,"Delta":287783602},{"NoteNumber":46,"Velocity":42,"Duration":927543,"SoundDuration":927543,"Delta":287783602},{"NoteNumber":70,"Velocity":41,"Duration":207340,"SoundDuration":207340,"Delta":287975669},{"NoteNumber":72,"Velocity":38,"Duration":219704,"SoundDuration":219704,"Delta":288173006},{"NoteNumber":74,"Velocity":38,"Duration":344892,"SoundDuration":344892,"Delta":288375951},{"NoteNumber":63,"Velocity":38,"Duration":2521337,"SoundDuration":2521337,"Delta":288711146},{"NoteNumber":72,"Velocity":38,"Duration":2521337,"SoundDuration":2521337,"Delta":288711146},{"NoteNumber":75,"Velocity":45,"Duration":2521337,"SoundDuration":2521337,"Delta":288711146},{"NoteNumber":41,"Velocity":20,"Duration":2521337,"SoundDuration":2521337,"Delta":288711146},{"NoteNumber":45,"Velocity":20,"Duration":2521337,"SoundDuration":2521337,"Delta":288711146},{"NoteNumber":53,"Velocity":25,"Duration":2521337,"SoundDuration":2521337,"Delta":288711146},{"NoteNumber":58,"Velocity":42,"Duration":83240,"SoundDuration":83240,"Delta":291426432},{"NoteNumber":62,"Velocity":50,"Duration":366726,"SoundDuration":366726,"Delta":291426432},{"NoteNumber":57,"Velocity":40,"Duration":83240,"SoundDuration":83240,"Delta":291509673},{"NoteNumber":58,"Velocity":45,"Duration":83240,"SoundDuration":83240,"Delta":291592914},{"NoteNumber":53,"Velocity":39,"Duration":117004,"SoundDuration":117004,"Delta":291676155},{"NoteNumber":62,"Velocity":35,"Duration":75402,"SoundDuration":75402,"Delta":291793159},{"NoteNumber":65,"Velocity":42,"Duration":75402,"SoundDuration":75402,"Delta":291793159},{"NoteNumber":34,"Velocity":30,"Duration":75402,"SoundDuration":75402,"Delta":291793159},{"NoteNumber":46,"Velocity":36,"Duration":75402,"SoundDuration":75402,"Delta":291793159},{"NoteNumber":58,"Velocity":32,"Duration":75402,"SoundDuration":75402,"Delta":292195304},{"NoteNumber":62,"Velocity":38,"Duration":75402,"SoundDuration":75402,"Delta":292195304},{"NoteNumber":34,"Velocity":27,"Duration":75402,"SoundDuration":75402,"Delta":292195304},{"NoteNumber":46,"Velocity":32,"Duration":75402,"SoundDuration":75402,"Delta":292195304},{"NoteNumber":58,"Velocity":42,"Duration":83240,"SoundDuration":83240,"Delta":292999594},{"NoteNumber":62,"Velocity":50,"Duration":366726,"SoundDuration":366726,"Delta":292999594},{"NoteNumber":57,"Velocity":40,"Duration":83240,"SoundDuration":83240,"Delta":293082835},{"NoteNumber":58,"Velocity":45,"Duration":83240,"SoundDuration":83240,"Delta":293166076},{"NoteNumber":53,"Velocity":39,"Duration":117004,"SoundDuration":117004,"Delta":293249317},{"NoteNumber":62,"Velocity":35,"Duration":75402,"SoundDuration":75402,"Delta":293366321},{"NoteNumber":65,"Velocity":42,"Duration":75402,"SoundDuration":75402,"Delta":293366321},{"NoteNumber":34,"Velocity":30,"Duration":75402,"SoundDuration":75402,"Delta":293366321},{"NoteNumber":46,"Velocity":36,"Duration":75402,"SoundDuration":75402,"Delta":293366321},{"NoteNumber":58,"Velocity":32,"Duration":75402,"SoundDuration":75402,"Delta":293768466},{"NoteNumber":62,"Velocity":38,"Duration":75402,"SoundDuration":75402,"Delta":293768466},{"NoteNumber":34,"Velocity":27,"Duration":75402,"SoundDuration":75402,"Delta":293768466},{"NoteNumber":46,"Velocity":32,"Duration":75402,"SoundDuration":75402,"Delta":293768466},{"NoteNumber":62,"Velocity":50,"Duration":188442,"SoundDuration":188442,"Delta":294572756},{"NoteNumber":58,"Velocity":42,"Duration":103643,"SoundDuration":103643,"Delta":294572756},{"NoteNumber":57,"Velocity":40,"Duration":103643,"SoundDuration":103643,"Delta":294666977},{"NoteNumber":58,"Velocity":46,"Duration":103643,"SoundDuration":103643,"Delta":294761198},{"NoteNumber":53,"Velocity":40,"Duration":94221,"SoundDuration":94221,"Delta":294855419},{"NoteNumber":65,"Velocity":53,"Duration":183823,"SoundDuration":183823,"Delta":294949640},{"NoteNumber":62,"Velocity":44,"Duration":101102,"SoundDuration":101102,"Delta":294949640},{"NoteNumber":61,"Velocity":42,"Duration":101102,"SoundDuration":101102,"Delta":295041552},{"NoteNumber":62,"Velocity":49,"Duration":101102,"SoundDuration":101102,"Delta":295133464},{"NoteNumber":58,"Velocity":42,"Duration":91911,"SoundDuration":91911,"Delta":295225376},{"NoteNumber":65,"Velocity":47,"Duration":99577,"SoundDuration":99577,"Delta":295317287},{"NoteNumber":70,"Velocity":56,"Duration":181050,"SoundDuration":181050,"Delta":295317287},{"NoteNumber":64,"Velocity":45,"Duration":99577,"SoundDuration":99577,"Delta":295407812},{"NoteNumber":65,"Velocity":51,"Duration":99577,"SoundDuration":99577,"Delta":295498337},{"NoteNumber":62,"Velocity":45,"Duration":90525,"SoundDuration":90525,"Delta":295588862},{"NoteNumber":70,"Velocity":49,"Duration":97069,"SoundDuration":97069,"Delta":295679387},{"NoteNumber":74,"Velocity":59,"Duration":176411,"SoundDuration":176411,"Delta":295679387},{"NoteNumber":69,"Velocity":47,"Duration":96973,"SoundDuration":96973,"Delta":295767642},{"NoteNumber":70,"Velocity":54,"Duration":96973,"SoundDuration":96973,"Delta":295855799},{"NoteNumber":65,"Velocity":47,"Duration":88157,"SoundDuration":88157,"Delta":295943957},{"NoteNumber":74,"Velocity":52,"Duration":100182,"SoundDuration":100182,"Delta":296032114},{"NoteNumber":77,"Velocity":62,"Duration":182149,"SoundDuration":182149,"Delta":296032114},{"NoteNumber":73,"Velocity":50,"Duration":100182,"SoundDuration":100182,"Delta":296123189},{"NoteNumber":74,"Velocity":57,"Duration":102252,"SoundDuration":102252,"Delta":296214264},{"NoteNumber":70,"Velocity":49,"Duration":111773,"SoundDuration":111773,"Delta":296305338},{"NoteNumber":82,"Velocity":72,"Duration":1099572,"SoundDuration":1099572,"Delta":296417112},{"NoteNumber":46,"Velocity":44,"Duration":91631,"SoundDuration":91631,"Delta":296417112},{"NoteNumber":50,"Velocity":31,"Duration":91631,"SoundDuration":91631,"Delta":296508743},{"NoteNumber":53,"Velocity":31,"Duration":91631,"SoundDuration":91631,"Delta":296600374},{"NoteNumber":58,"Velocity":31,"Duration":91631,"SoundDuration":91631,"Delta":296692005},{"NoteNumber":46,"Velocity":44,"Duration":91630,"SoundDuration":91630,"Delta":296783636},{"NoteNumber":50,"Velocity":32,"Duration":91631,"SoundDuration":91631,"Delta":296875267},{"NoteNumber":53,"Velocity":32,"Duration":91631,"SoundDuration":91631,"Delta":296966898},{"NoteNumber":58,"Velocity":32,"Duration":91631,"SoundDuration":91631,"Delta":297058529},{"NoteNumber":46,"Velocity":44,"Duration":91631,"SoundDuration":91631,"Delta":297150160},{"NoteNumber":50,"Velocity":33,"Duration":91631,"SoundDuration":91631,"Delta":297241791},{"NoteNumber":53,"Velocity":33,"Duration":91631,"SoundDuration":91631,"Delta":297333422},{"NoteNumber":58,"Velocity":33,"Duration":91631,"SoundDuration":91631,"Delta":297425053},{"NoteNumber":81,"Velocity":60,"Duration":91630,"SoundDuration":91630,"Delta":297516684},{"NoteNumber":46,"Velocity":44,"Duration":91630,"SoundDuration":91630,"Delta":297516684},{"NoteNumber":82,"Velocity":57,"Duration":91631,"SoundDuration":91631,"Delta":297608315},{"NoteNumber":50,"Velocity":33,"Duration":91631,"SoundDuration":91631,"Delta":297608315},{"NoteNumber":84,"Velocity":60,"Duration":91631,"SoundDuration":91631,"Delta":297699946},{"NoteNumber":53,"Velocity":33,"Duration":91631,"SoundDuration":91631,"Delta":297699946},{"NoteNumber":82,"Velocity":54,"Duration":102599,"SoundDuration":102599,"Delta":297791577},{"NoteNumber":58,"Velocity":33,"Duration":102599,"SoundDuration":102599,"Delta":297791577},{"NoteNumber":81,"Velocity":60,"Duration":188442,"SoundDuration":188442,"Delta":297894176},{"NoteNumber":46,"Velocity":44,"Duration":94221,"SoundDuration":94221,"Delta":297894176},{"NoteNumber":51,"Velocity":31,"Duration":94221,"SoundDuration":94221,"Delta":297988397},{"NoteNumber":79,"Velocity":51,"Duration":188442,"SoundDuration":188442,"Delta":298082618},{"NoteNumber":55,"Velocity":31,"Duration":94221,"SoundDuration":94221,"Delta":298082618},{"NoteNumber":58,"Velocity":31,"Duration":94221,"SoundDuration":94221,"Delta":298176839},{"NoteNumber":77,"Velocity":54,"Duration":188442,"SoundDuration":188442,"Delta":298271060},{"NoteNumber":46,"Velocity":42,"Duration":94221,"SoundDuration":94221,"Delta":298271060},{"NoteNumber":51,"Velocity":28,"Duration":94221,"SoundDuration":94221,"Delta":298365281},{"NoteNumber":75,"Velocity":50,"Duration":188441,"SoundDuration":188441,"Delta":298459502},{"NoteNumber":55,"Velocity":28,"Duration":94220,"SoundDuration":94220,"Delta":298459502},{"NoteNumber":58,"Velocity":28,"Duration":94221,"SoundDuration":94221,"Delta":298553723},{"NoteNumber":74,"Velocity":59,"Duration":188442,"SoundDuration":188442,"Delta":298647944},{"NoteNumber":46,"Velocity":41,"Duration":94221,"SoundDuration":94221,"Delta":298647944},{"NoteNumber":51,"Velocity":29,"Duration":94221,"SoundDuration":94221,"Delta":298742165},{"NoteNumber":72,"Velocity":48,"Duration":188442,"SoundDuration":188442,"Delta":298836386},{"NoteNumber":53,"Velocity":29,"Duration":94221,"SoundDuration":94221,"Delta":298836386},{"NoteNumber":57,"Velocity":29,"Duration":94221,"SoundDuration":94221,"Delta":298930607},{"NoteNumber":79,"Velocity":56,"Duration":188442,"SoundDuration":188442,"Delta":299024828},{"NoteNumber":46,"Velocity":41,"Duration":94221,"SoundDuration":94221,"Delta":299024828},{"NoteNumber":51,"Velocity":31,"Duration":94221,"SoundDuration":94221,"Delta":299119049},{"NoteNumber":77,"Velocity":47,"Duration":203950,"SoundDuration":203950,"Delta":299213270},{"NoteNumber":53,"Velocity":31,"Duration":94221,"SoundDuration":94221,"Delta":299213270},{"NoteNumber":57,"Velocity":31,"Duration":109729,"SoundDuration":109729,"Delta":299307491},{"NoteNumber":75,"Velocity":54,"Duration":400801,"SoundDuration":400801,"Delta":299417220},{"NoteNumber":46,"Velocity":44,"Duration":100200,"SoundDuration":100200,"Delta":299417220},{"NoteNumber":50,"Velocity":31,"Duration":100200,"SoundDuration":100200,"Delta":299517421},{"NoteNumber":53,"Velocity":31,"Duration":100200,"SoundDuration":100200,"Delta":299617621},{"NoteNumber":58,"Velocity":31,"Duration":100200,"SoundDuration":100200,"Delta":299717822},{"NoteNumber":74,"Velocity":47,"Duration":400801,"SoundDuration":400801,"Delta":299818022},{"NoteNumber":46,"Velocity":44,"Duration":100200,"SoundDuration":100200,"Delta":299818022},{"NoteNumber":50,"Velocity":32,"Duration":100200,"SoundDuration":100200,"Delta":299918223},{"NoteNumber":53,"Velocity":32,"Duration":100200,"SoundDuration":100200,"Delta":300018423},{"NoteNumber":58,"Velocity":32,"Duration":100200,"SoundDuration":100200,"Delta":300118624},{"NoteNumber":46,"Velocity":44,"Duration":98879,"SoundDuration":98879,"Delta":300218824},{"NoteNumber":50,"Velocity":32,"Duration":98879,"SoundDuration":98879,"Delta":300317704},{"NoteNumber":53,"Velocity":32,"Duration":98879,"SoundDuration":98879,"Delta":300416583},{"NoteNumber":56,"Velocity":32,"Duration":98879,"SoundDuration":98879,"Delta":300515462},{"NoteNumber":69,"Velocity":58,"Duration":98879,"SoundDuration":98879,"Delta":300614341},{"NoteNumber":46,"Velocity":44,"Duration":98879,"SoundDuration":98879,"Delta":300614341},{"NoteNumber":70,"Velocity":54,"Duration":98879,"SoundDuration":98879,"Delta":300713221},{"NoteNumber":50,"Velocity":32,"Duration":98879,"SoundDuration":98879,"Delta":300713221},{"NoteNumber":72,"Velocity":58,"Duration":98879,"SoundDuration":98879,"Delta":300812100},{"NoteNumber":53,"Velocity":32,"Duration":98879,"SoundDuration":98879,"Delta":300812100},{"NoteNumber":70,"Velocity":54,"Duration":98879,"SoundDuration":98879,"Delta":300910979},{"NoteNumber":56,"Velocity":32,"Duration":98879,"SoundDuration":98879,"Delta":300910979},{"NoteNumber":68,"Velocity":60,"Duration":189035,"SoundDuration":189035,"Delta":301009858},{"NoteNumber":46,"Velocity":44,"Duration":94517,"SoundDuration":94517,"Delta":301009858},{"NoteNumber":51,"Velocity":32,"Duration":94517,"SoundDuration":94517,"Delta":301104376},{"NoteNumber":67,"Velocity":54,"Duration":189035,"SoundDuration":189035,"Delta":301198894},{"NoteNumber":55,"Velocity":32,"Duration":94517,"SoundDuration":94517,"Delta":301198894},{"NoteNumber":51,"Velocity":32,"Duration":94517,"SoundDuration":94517,"Delta":301293412},{"NoteNumber":65,"Velocity":66,"Duration":189036,"SoundDuration":189036,"Delta":301387930},{"NoteNumber":46,"Velocity":44,"Duration":94518,"SoundDuration":94518,"Delta":301387930},{"NoteNumber":51,"Velocity":36,"Duration":94517,"SoundDuration":94517,"Delta":301482448},{"NoteNumber":63,"Velocity":61,"Duration":195392,"SoundDuration":195392,"Delta":301576966},{"NoteNumber":55,"Velocity":36,"Duration":94517,"SoundDuration":94517,"Delta":301576966},{"NoteNumber":51,"Velocity":36,"Duration":100874,"SoundDuration":100874,"Delta":301671484},{"NoteNumber":62,"Velocity":69,"Duration":189035,"SoundDuration":189035,"Delta":301772359},{"NoteNumber":46,"Velocity":48,"Duration":94517,"SoundDuration":94517,"Delta":301772359},{"NoteNumber":48,"Velocity":37,"Duration":94517,"SoundDuration":94517,"Delta":301866877},{"NoteNumber":60,"Velocity":62,"Duration":189035,"SoundDuration":189035,"Delta":301961395},{"NoteNumber":51,"Velocity":38,"Duration":94517,"SoundDuration":94517,"Delta":301961395},{"NoteNumber":53,"Velocity":40,"Duration":94517,"SoundDuration":94517,"Delta":302055913},{"NoteNumber":63,"Velocity":73,"Duration":189036,"SoundDuration":189036,"Delta":302150431},{"NoteNumber":46,"Velocity":50,"Duration":94518,"SoundDuration":94518,"Delta":302150431},{"NoteNumber":48,"Velocity":40,"Duration":94517,"SoundDuration":94517,"Delta":302244949},{"NoteNumber":57,"Velocity":63,"Duration":203847,"SoundDuration":203847,"Delta":302339467},{"NoteNumber":51,"Velocity":39,"Duration":94517,"SoundDuration":94517,"Delta":302339467},{"NoteNumber":53,"Velocity":43,"Duration":109329,"SoundDuration":109329,"Delta":302433985},{"NoteNumber":58,"Velocity":79,"Duration":104748,"SoundDuration":104748,"Delta":302543314},{"NoteNumber":46,"Velocity":60,"Duration":104748,"SoundDuration":104748,"Delta":302543314},{"NoteNumber":62,"Velocity":68,"Duration":89445,"SoundDuration":89445,"Delta":302752811},{"NoteNumber":60,"Velocity":65,"Duration":89445,"SoundDuration":89445,"Delta":302842257},{"NoteNumber":58,"Velocity":71,"Duration":89445,"SoundDuration":89445,"Delta":302931702},{"NoteNumber":46,"Velocity":53,"Duration":89445,"SoundDuration":89445,"Delta":302931702},{"NoteNumber":57,"Velocity":65,"Duration":89445,"SoundDuration":89445,"Delta":303021148},{"NoteNumber":45,"Velocity":46,"Duration":89445,"SoundDuration":89445,"Delta":303021148},{"NoteNumber":58,"Velocity":71,"Duration":89445,"SoundDuration":89445,"Delta":303110593},{"NoteNumber":46,"Velocity":53,"Duration":89445,"SoundDuration":89445,"Delta":303110593},{"NoteNumber":55,"Velocity":65,"Duration":89445,"SoundDuration":89445,"Delta":303200039},{"NoteNumber":43,"Velocity":46,"Duration":89445,"SoundDuration":89445,"Delta":303200039},{"NoteNumber":53,"Velocity":79,"Duration":108538,"SoundDuration":108538,"Delta":303289484},{"NoteNumber":41,"Velocity":60,"Duration":108538,"SoundDuration":108538,"Delta":303289484},{"NoteNumber":67,"Velocity":68,"Duration":89445,"SoundDuration":89445,"Delta":303502407},{"NoteNumber":65,"Velocity":65,"Duration":89445,"SoundDuration":89445,"Delta":303591852},{"NoteNumber":63,"Velocity":71,"Duration":89445,"SoundDuration":89445,"Delta":303681298},{"NoteNumber":51,"Velocity":53,"Duration":89445,"SoundDuration":89445,"Delta":303681298},{"NoteNumber":62,"Velocity":65,"Duration":89445,"SoundDuration":89445,"Delta":303770743},{"NoteNumber":50,"Velocity":46,"Duration":89445,"SoundDuration":89445,"Delta":303770743},{"NoteNumber":63,"Velocity":71,"Duration":89445,"SoundDuration":89445,"Delta":303860189},{"NoteNumber":51,"Velocity":53,"Duration":89445,"SoundDuration":89445,"Delta":303860189},{"NoteNumber":60,"Velocity":65,"Duration":89445,"SoundDuration":89445,"Delta":303949634},{"NoteNumber":48,"Velocity":46,"Duration":89445,"SoundDuration":89445,"Delta":303949634},{"NoteNumber":58,"Velocity":79,"Duration":108538,"SoundDuration":108538,"Delta":304039080},{"NoteNumber":46,"Velocity":60,"Duration":108538,"SoundDuration":108538,"Delta":304039080},{"NoteNumber":74,"Velocity":68,"Duration":89445,"SoundDuration":89445,"Delta":304251640},{"NoteNumber":72,"Velocity":65,"Duration":89445,"SoundDuration":89445,"Delta":304341086},{"NoteNumber":70,"Velocity":71,"Duration":89445,"SoundDuration":89445,"Delta":304430531},{"NoteNumber":58,"Velocity":53,"Duration":89445,"SoundDuration":89445,"Delta":304430531},{"NoteNumber":69,"Velocity":65,"Duration":89445,"SoundDuration":89445,"Delta":304519977},{"NoteNumber":57,"Velocity":46,"Duration":89445,"SoundDuration":89445,"Delta":304519977},{"NoteNumber":70,"Velocity":71,"Duration":89445,"SoundDuration":89445,"Delta":304609422},{"NoteNumber":58,"Velocity":53,"Duration":89445,"SoundDuration":89445,"Delta":304609422},{"NoteNumber":67,"Velocity":65,"Duration":89445,"SoundDuration":89445,"Delta":304698868},{"NoteNumber":55,"Velocity":46,"Duration":89445,"SoundDuration":89445,"Delta":304698868},{"NoteNumber":65,"Velocity":79,"Duration":108538,"SoundDuration":108538,"Delta":304788313},{"NoteNumber":53,"Velocity":60,"Duration":108538,"SoundDuration":108538,"Delta":304788313},{"NoteNumber":79,"Velocity":78,"Duration":89445,"SoundDuration":89445,"Delta":305000874},{"NoteNumber":77,"Velocity":74,"Duration":89445,"SoundDuration":89445,"Delta":305090319},{"NoteNumber":75,"Velocity":81,"Duration":89445,"SoundDuration":89445,"Delta":305179765},{"NoteNumber":63,"Velocity":60,"Duration":89445,"SoundDuration":89445,"Delta":305179765},{"NoteNumber":74,"Velocity":74,"Duration":89445,"SoundDuration":89445,"Delta":305269210},{"NoteNumber":62,"Velocity":52,"Duration":89445,"SoundDuration":89445,"Delta":305269210},{"NoteNumber":75,"Velocity":81,"Duration":89445,"SoundDuration":89445,"Delta":305358656},{"NoteNumber":63,"Velocity":60,"Duration":89445,"SoundDuration":89445,"Delta":305358656},{"NoteNumber":72,"Velocity":74,"Duration":89445,"SoundDuration":89445,"Delta":305448101},{"NoteNumber":60,"Velocity":52,"Duration":89445,"SoundDuration":89445,"Delta":305448101},{"NoteNumber":70,"Velocity":90,"Duration":108538,"SoundDuration":108538,"Delta":305537547},{"NoteNumber":58,"Velocity":69,"Duration":108538,"SoundDuration":108538,"Delta":305537547},{"NoteNumber":72,"Velocity":68,"Duration":92764,"SoundDuration":92764,"Delta":305754623},{"NoteNumber":60,"Velocity":53,"Duration":92764,"SoundDuration":92764,"Delta":305754623},{"NoteNumber":74,"Velocity":68,"Duration":92764,"SoundDuration":92764,"Delta":305847388},{"NoteNumber":62,"Velocity":48,"Duration":92764,"SoundDuration":92764,"Delta":305847388},{"NoteNumber":75,"Velocity":77,"Duration":92764,"SoundDuration":92764,"Delta":305940152},{"NoteNumber":63,"Velocity":54,"Duration":92764,"SoundDuration":92764,"Delta":305940152},{"NoteNumber":77,"Velocity":70,"Duration":92764,"SoundDuration":92764,"Delta":306032917},{"NoteNumber":65,"Velocity":48,"Duration":92764,"SoundDuration":92764,"Delta":306032917},{"NoteNumber":79,"Velocity":70,"Duration":92764,"SoundDuration":92764,"Delta":306125681},{"NoteNumber":67,"Velocity":48,"Duration":92764,"SoundDuration":92764,"Delta":306125681},{"NoteNumber":81,"Velocity":71,"Duration":92807,"SoundDuration":92807,"Delta":306218446},{"NoteNumber":69,"Velocity":49,"Duration":92807,"SoundDuration":92807,"Delta":306218446},{"NoteNumber":82,"Velocity":73,"Duration":23335,"SoundDuration":23335,"Delta":306311253},{"NoteNumber":70,"Velocity":56,"Duration":93136,"SoundDuration":93136,"Delta":306311253},{"NoteNumber":84,"Velocity":65,"Duration":23308,"SoundDuration":23308,"Delta":306334589},{"NoteNumber":82,"Velocity":81,"Duration":46492,"SoundDuration":46492,"Delta":306357898},{"NoteNumber":81,"Velocity":72,"Duration":92540,"SoundDuration":92540,"Delta":306404390},{"NoteNumber":69,"Velocity":50,"Duration":92540,"SoundDuration":92540,"Delta":306404390},{"NoteNumber":82,"Velocity":73,"Duration":91860,"SoundDuration":91860,"Delta":306496931},{"NoteNumber":70,"Velocity":50,"Duration":91860,"SoundDuration":91860,"Delta":306496931},{"NoteNumber":84,"Velocity":74,"Duration":91170,"SoundDuration":91170,"Delta":306588791},{"NoteNumber":72,"Velocity":51,"Duration":91170,"SoundDuration":91170,"Delta":306588791},{"NoteNumber":86,"Velocity":74,"Duration":22791,"SoundDuration":22791,"Delta":306679962},{"NoteNumber":74,"Velocity":58,"Duration":91926,"SoundDuration":91926,"Delta":306679962},{"NoteNumber":87,"Velocity":66,"Duration":22977,"SoundDuration":22977,"Delta":306702754},{"NoteNumber":86,"Velocity":83,"Duration":92646,"SoundDuration":92646,"Delta":306725732},{"NoteNumber":84,"Velocity":75,"Duration":93297,"SoundDuration":93297,"Delta":306771888},{"NoteNumber":72,"Velocity":52,"Duration":93297,"SoundDuration":93297,"Delta":306771888},{"NoteNumber":86,"Velocity":76,"Duration":94678,"SoundDuration":94678,"Delta":306865186},{"NoteNumber":74,"Velocity":52,"Duration":94678,"SoundDuration":94678,"Delta":306865186},{"NoteNumber":88,"Velocity":76,"Duration":108538,"SoundDuration":108538,"Delta":306959864},{"NoteNumber":76,"Velocity":53,"Duration":108538,"SoundDuration":108538,"Delta":306959864},{"NoteNumber":89,"Velocity":94,"Duration":99206,"SoundDuration":99206,"Delta":307068403},{"NoteNumber":77,"Velocity":73,"Duration":99206,"SoundDuration":99206,"Delta":307068403},{"NoteNumber":65,"Velocity":79,"Duration":99206,"SoundDuration":99206,"Delta":307465228},{"NoteNumber":53,"Velocity":60,"Duration":99206,"SoundDuration":99206,"Delta":307465228},{"NoteNumber":46,"Velocity":54,"Duration":83240,"SoundDuration":83240,"Delta":308258878},{"NoteNumber":50,"Velocity":65,"Duration":366726,"SoundDuration":366726,"Delta":308258878},{"NoteNumber":45,"Velocity":52,"Duration":83240,"SoundDuration":83240,"Delta":308342118},{"NoteNumber":46,"Velocity":58,"Duration":83240,"SoundDuration":83240,"Delta":308425359},{"NoteNumber":41,"Velocity":50,"Duration":117004,"SoundDuration":117004,"Delta":308508600},{"NoteNumber":50,"Velocity":65,"Duration":100536,"SoundDuration":100536,"Delta":308625605},{"NoteNumber":53,"Velocity":65,"Duration":100536,"SoundDuration":100536,"Delta":308625605},{"NoteNumber":62,"Velocity":54,"Duration":83481,"SoundDuration":83481,"Delta":309027750},{"NoteNumber":65,"Velocity":65,"Duration":367013,"SoundDuration":367013,"Delta":309027750},{"NoteNumber":46,"Velocity":58,"Duration":83481,"SoundDuration":83481,"Delta":309027750},{"NoteNumber":50,"Velocity":58,"Duration":83481,"SoundDuration":83481,"Delta":309027750},{"NoteNumber":61,"Velocity":52,"Duration":83481,"SoundDuration":83481,"Delta":309111231},{"NoteNumber":62,"Velocity":58,"Duration":83481,"SoundDuration":83481,"Delta":309194713},{"NoteNumber":58,"Velocity":50,"Duration":116568,"SoundDuration":116568,"Delta":309278195},{"NoteNumber":65,"Velocity":65,"Duration":100213,"SoundDuration":100213,"Delta":309394763},{"NoteNumber":74,"Velocity":65,"Duration":100213,"SoundDuration":100213,"Delta":309394763},{"NoteNumber":62,"Velocity":58,"Duration":83240,"SoundDuration":83240,"Delta":309795618},{"NoteNumber":70,"Velocity":58,"Duration":83240,"SoundDuration":83240,"Delta":309795618},{"NoteNumber":46,"Velocity":54,"Duration":83240,"SoundDuration":83240,"Delta":309795618},{"NoteNumber":50,"Velocity":65,"Duration":366726,"SoundDuration":366726,"Delta":309795618},{"NoteNumber":45,"Velocity":52,"Duration":83240,"SoundDuration":83240,"Delta":309878859},{"NoteNumber":46,"Velocity":58,"Duration":83240,"SoundDuration":83240,"Delta":309962100},{"NoteNumber":41,"Velocity":50,"Duration":117004,"SoundDuration":117004,"Delta":310045340},{"NoteNumber":50,"Velocity":65,"Duration":100536,"SoundDuration":100536,"Delta":310162345},{"NoteNumber":53,"Velocity":65,"Duration":100536,"SoundDuration":100536,"Delta":310162345},{"NoteNumber":62,"Velocity":54,"Duration":83481,"SoundDuration":83481,"Delta":310564490},{"NoteNumber":65,"Velocity":65,"Duration":367013,"SoundDuration":367013,"Delta":310564490},{"NoteNumber":46,"Velocity":58,"Duration":83481,"SoundDuration":83481,"Delta":310564490},{"NoteNumber":50,"Velocity":58,"Duration":83481,"SoundDuration":83481,"Delta":310564490},{"NoteNumber":61,"Velocity":52,"Duration":83481,"SoundDuration":83481,"Delta":310647972},{"NoteNumber":62,"Velocity":58,"Duration":83481,"SoundDuration":83481,"Delta":310731454},{"NoteNumber":58,"Velocity":50,"Duration":116568,"SoundDuration":116568,"Delta":310814935},{"NoteNumber":65,"Velocity":65,"Duration":100213,"SoundDuration":100213,"Delta":310931504},{"NoteNumber":74,"Velocity":65,"Duration":100213,"SoundDuration":100213,"Delta":310931504},{"NoteNumber":62,"Velocity":58,"Duration":90252,"SoundDuration":90252,"Delta":311332359},{"NoteNumber":70,"Velocity":58,"Duration":90252,"SoundDuration":90252,"Delta":311332359},{"NoteNumber":50,"Velocity":65,"Duration":90252,"SoundDuration":90252,"Delta":311332359},{"NoteNumber":49,"Velocity":57,"Duration":90252,"SoundDuration":90252,"Delta":311422611},{"NoteNumber":50,"Velocity":62,"Duration":90252,"SoundDuration":90252,"Delta":311512864},{"NoteNumber":46,"Velocity":55,"Duration":94816,"SoundDuration":94816,"Delta":311603117},{"NoteNumber":53,"Velocity":65,"Duration":90252,"SoundDuration":90252,"Delta":311697934},{"NoteNumber":52,"Velocity":58,"Duration":90252,"SoundDuration":90252,"Delta":311788186},{"NoteNumber":53,"Velocity":63,"Duration":90252,"SoundDuration":90252,"Delta":311878439},{"NoteNumber":50,"Velocity":57,"Duration":94816,"SoundDuration":94816,"Delta":311968692},{"NoteNumber":58,"Velocity":65,"Duration":90252,"SoundDuration":90252,"Delta":312063509},{"NoteNumber":57,"Velocity":58,"Duration":90252,"SoundDuration":90252,"Delta":312153761},{"NoteNumber":58,"Velocity":63,"Duration":90252,"SoundDuration":90252,"Delta":312244014},{"NoteNumber":53,"Velocity":57,"Duration":94816,"SoundDuration":94816,"Delta":312334267},{"NoteNumber":62,"Velocity":65,"Duration":89982,"SoundDuration":89982,"Delta":312429084},{"NoteNumber":61,"Velocity":58,"Duration":89981,"SoundDuration":89981,"Delta":312519066},{"NoteNumber":62,"Velocity":63,"Duration":89982,"SoundDuration":89982,"Delta":312609048},{"NoteNumber":58,"Velocity":57,"Duration":94816,"SoundDuration":94816,"Delta":312699030},{"NoteNumber":65,"Velocity":63,"Duration":89982,"SoundDuration":89982,"Delta":312793846},{"NoteNumber":64,"Velocity":58,"Duration":89981,"SoundDuration":89981,"Delta":312883828},{"NoteNumber":65,"Velocity":62,"Duration":89982,"SoundDuration":89982,"Delta":312973810},{"NoteNumber":62,"Velocity":57,"Duration":112191,"SoundDuration":112191,"Delta":313063792},{"NoteNumber":68,"Velocity":75,"Duration":646362,"SoundDuration":646362,"Delta":313175984},{"NoteNumber":67,"Velocity":63,"Duration":95117,"SoundDuration":95117,"Delta":313822347},{"NoteNumber":80,"Velocity":75,"Duration":1499304,"SoundDuration":1499304,"Delta":313917464},{"NoteNumber":65,"Velocity":71,"Duration":274893,"SoundDuration":274893,"Delta":313917464},{"NoteNumber":63,"Velocity":63,"Duration":91631,"SoundDuration":91631,"Delta":314192357},{"NoteNumber":62,"Velocity":72,"Duration":274892,"SoundDuration":274892,"Delta":314283988},{"NoteNumber":60,"Velocity":63,"Duration":99206,"SoundDuration":99206,"Delta":314558881},{"NoteNumber":74,"Velocity":56,"Duration":758681,"SoundDuration":758681,"Delta":314658087},{"NoteNumber":59,"Velocity":72,"Duration":758681,"SoundDuration":758681,"Delta":314658087},{"NoteNumber":79,"Velocity":53,"Duration":769515,"SoundDuration":769515,"Delta":315024611},{"NoteNumber":75,"Velocity":44,"Duration":377358,"SoundDuration":377358,"Delta":315416768},{"NoteNumber":60,"Velocity":48,"Duration":377358,"SoundDuration":377358,"Delta":315416768},{"NoteNumber":72,"Velocity":41,"Duration":389104,"SoundDuration":389104,"Delta":315794126},{"NoteNumber":77,"Velocity":49,"Duration":759474,"SoundDuration":759474,"Delta":315794126},{"NoteNumber":57,"Velocity":42,"Duration":389104,"SoundDuration":389104,"Delta":315794126},{"NoteNumber":74,"Velocity":55,"Duration":370369,"SoundDuration":370369,"Delta":316183231},{"NoteNumber":58,"Velocity":51,"Duration":370369,"SoundDuration":370369,"Delta":316183231},{"NoteNumber":71,"Velocity":41,"Duration":370370,"SoundDuration":370370,"Delta":316553601},{"NoteNumber":75,"Velocity":49,"Duration":740740,"SoundDuration":740740,"Delta":316553601},{"NoteNumber":55,"Velocity":44,"Duration":370370,"SoundDuration":370370,"Delta":316553601},{"NoteNumber":72,"Velocity":55,"Duration":370369,"SoundDuration":370369,"Delta":316923971},{"NoteNumber":56,"Velocity":52,"Duration":370369,"SoundDuration":370369,"Delta":316923971},{"NoteNumber":69,"Velocity":42,"Duration":388350,"SoundDuration":388350,"Delta":317294341},{"NoteNumber":74,"Velocity":50,"Duration":758719,"SoundDuration":758719,"Delta":317294341},{"NoteNumber":54,"Velocity":34,"Duration":388350,"SoundDuration":388350,"Delta":317294341},{"NoteNumber":70,"Velocity":55,"Duration":370369,"SoundDuration":370369,"Delta":317682691},{"NoteNumber":55,"Velocity":51,"Duration":370369,"SoundDuration":370369,"Delta":317682691},{"NoteNumber":67,"Velocity":41,"Duration":370370,"SoundDuration":370370,"Delta":318053061},{"NoteNumber":72,"Velocity":49,"Duration":740740,"SoundDuration":740740,"Delta":318053061},{"NoteNumber":52,"Velocity":44,"Duration":370370,"SoundDuration":370370,"Delta":318053061},{"NoteNumber":68,"Velocity":55,"Duration":370369,"SoundDuration":370369,"Delta":318423431},{"NoteNumber":53,"Velocity":52,"Duration":370369,"SoundDuration":370369,"Delta":318423431},{"NoteNumber":65,"Velocity":42,"Duration":388350,"SoundDuration":388350,"Delta":318793801},{"NoteNumber":70,"Velocity":50,"Duration":758719,"SoundDuration":758719,"Delta":318793801},{"NoteNumber":50,"Velocity":34,"Duration":388350,"SoundDuration":388350,"Delta":318793801},{"NoteNumber":67,"Velocity":55,"Duration":370369,"SoundDuration":370369,"Delta":319182151},{"NoteNumber":51,"Velocity":51,"Duration":370369,"SoundDuration":370369,"Delta":319182151},{"NoteNumber":63,"Velocity":41,"Duration":370370,"SoundDuration":370370,"Delta":319552521},{"NoteNumber":69,"Velocity":49,"Duration":370370,"SoundDuration":370370,"Delta":319552521},{"NoteNumber":48,"Velocity":44,"Duration":370370,"SoundDuration":370370,"Delta":319552521},{"NoteNumber":70,"Velocity":50,"Duration":370369,"SoundDuration":370369,"Delta":319922891},{"NoteNumber":62,"Velocity":55,"Duration":362653,"SoundDuration":362653,"Delta":319922891},{"NoteNumber":50,"Velocity":52,"Duration":370369,"SoundDuration":370369,"Delta":319922891},{"NoteNumber":58,"Velocity":42,"Duration":388350,"SoundDuration":388350,"Delta":320293261},{"NoteNumber":62,"Velocity":42,"Duration":388350,"SoundDuration":388350,"Delta":320293261},{"NoteNumber":52,"Velocity":34,"Duration":388350,"SoundDuration":388350,"Delta":320293261},{"NoteNumber":57,"Velocity":60,"Duration":179963,"SoundDuration":179963,"Delta":320681611},{"NoteNumber":60,"Velocity":68,"Duration":179963,"SoundDuration":179963,"Delta":320681611},{"NoteNumber":41,"Velocity":51,"Duration":179963,"SoundDuration":179963,"Delta":320681611},{"NoteNumber":65,"Velocity":62,"Duration":89982,"SoundDuration":89982,"Delta":320861575},{"NoteNumber":53,"Velocity":42,"Duration":102729,"SoundDuration":102729,"Delta":320861575},{"NoteNumber":57,"Velocity":33,"Duration":89982,"SoundDuration":89982,"Delta":320951557},{"NoteNumber":60,"Velocity":39,"Duration":89982,"SoundDuration":89982,"Delta":320951557},{"NoteNumber":65,"Velocity":64,"Duration":89981,"SoundDuration":89981,"Delta":321041539},{"NoteNumber":53,"Velocity":42,"Duration":102729,"SoundDuration":102729,"Delta":321041539},{"NoteNumber":57,"Velocity":34,"Duration":89982,"SoundDuration":89982,"Delta":321131521},{"NoteNumber":60,"Velocity":41,"Duration":89982,"SoundDuration":89982,"Delta":321131521},{"NoteNumber":67,"Velocity":68,"Duration":89981,"SoundDuration":89981,"Delta":321221503},{"NoteNumber":53,"Velocity":42,"Duration":103329,"SoundDuration":103329,"Delta":321221503},{"NoteNumber":57,"Velocity":34,"Duration":94221,"SoundDuration":94221,"Delta":321311485},{"NoteNumber":60,"Velocity":40,"Duration":94221,"SoundDuration":94221,"Delta":321311485},{"NoteNumber":69,"Velocity":62,"Duration":89713,"SoundDuration":89713,"Delta":321405706},{"NoteNumber":53,"Velocity":51,"Duration":102422,"SoundDuration":102422,"Delta":321405706},{"NoteNumber":60,"Velocity":38,"Duration":89712,"SoundDuration":89712,"Delta":321495419},{"NoteNumber":63,"Velocity":45,"Duration":89712,"SoundDuration":89712,"Delta":321495419},{"NoteNumber":65,"Velocity":68,"Duration":89713,"SoundDuration":89713,"Delta":321585132},{"NoteNumber":53,"Velocity":43,"Duration":102422,"SoundDuration":102422,"Delta":321585132},{"NoteNumber":60,"Velocity":38,"Duration":89713,"SoundDuration":89713,"Delta":321674845},{"NoteNumber":63,"Velocity":45,"Duration":89713,"SoundDuration":89713,"Delta":321674845},{"NoteNumber":67,"Velocity":68,"Duration":89712,"SoundDuration":89712,"Delta":321764558},{"NoteNumber":53,"Velocity":43,"Duration":102422,"SoundDuration":102422,"Delta":321764558},{"NoteNumber":60,"Velocity":38,"Duration":89713,"SoundDuration":89713,"Delta":321854271},{"NoteNumber":63,"Velocity":45,"Duration":89713,"SoundDuration":89713,"Delta":321854271},{"NoteNumber":69,"Velocity":70,"Duration":89713,"SoundDuration":89713,"Delta":321943984},{"NoteNumber":53,"Velocity":43,"Duration":103019,"SoundDuration":103019,"Delta":321943984},{"NoteNumber":60,"Velocity":38,"Duration":93926,"SoundDuration":93926,"Delta":322033697},{"NoteNumber":63,"Velocity":45,"Duration":93926,"SoundDuration":93926,"Delta":322033697},{"NoteNumber":70,"Velocity":68,"Duration":89982,"SoundDuration":89982,"Delta":322127623},{"NoteNumber":53,"Velocity":51,"Duration":102729,"SoundDuration":102729,"Delta":322127623},{"NoteNumber":58,"Velocity":34,"Duration":89981,"SoundDuration":89981,"Delta":322217605},{"NoteNumber":61,"Velocity":40,"Duration":89981,"SoundDuration":89981,"Delta":322217605},{"NoteNumber":70,"Velocity":62,"Duration":89982,"SoundDuration":89982,"Delta":322307587},{"NoteNumber":53,"Velocity":42,"Duration":102729,"SoundDuration":102729,"Delta":322307587},{"NoteNumber":58,"Velocity":33,"Duration":89982,"SoundDuration":89982,"Delta":322397569},{"NoteNumber":61,"Velocity":39,"Duration":89982,"SoundDuration":89982,"Delta":322397569},{"NoteNumber":70,"Velocity":64,"Duration":89981,"SoundDuration":89981,"Delta":322487551},{"NoteNumber":53,"Velocity":42,"Duration":102729,"SoundDuration":102729,"Delta":322487551},{"NoteNumber":58,"Velocity":34,"Duration":89982,"SoundDuration":89982,"Delta":322577533},{"NoteNumber":61,"Velocity":41,"Duration":89982,"SoundDuration":89982,"Delta":322577533},{"NoteNumber":68,"Velocity":68,"Duration":89981,"SoundDuration":89981,"Delta":322667515},{"NoteNumber":53,"Velocity":42,"Duration":103329,"SoundDuration":103329,"Delta":322667515},{"NoteNumber":58,"Velocity":34,"Duration":94221,"SoundDuration":94221,"Delta":322757497},{"NoteNumber":61,"Velocity":40,"Duration":94221,"SoundDuration":94221,"Delta":322757497},{"NoteNumber":67,"Velocity":62,"Duration":89713,"SoundDuration":89713,"Delta":322851718},{"NoteNumber":53,"Velocity":51,"Duration":102422,"SoundDuration":102422,"Delta":322851718},{"NoteNumber":58,"Velocity":38,"Duration":89712,"SoundDuration":89712,"Delta":322941431},{"NoteNumber":61,"Velocity":45,"Duration":89712,"SoundDuration":89712,"Delta":322941431},{"NoteNumber":65,"Velocity":68,"Duration":89713,"SoundDuration":89713,"Delta":323031144},{"NoteNumber":53,"Velocity":43,"Duration":102422,"SoundDuration":102422,"Delta":323031144},{"NoteNumber":58,"Velocity":38,"Duration":89713,"SoundDuration":89713,"Delta":323120857},{"NoteNumber":61,"Velocity":45,"Duration":89713,"SoundDuration":89713,"Delta":323120857},{"NoteNumber":64,"Velocity":68,"Duration":89712,"SoundDuration":89712,"Delta":323210570},{"NoteNumber":53,"Velocity":43,"Duration":102422,"SoundDuration":102422,"Delta":323210570},{"NoteNumber":58,"Velocity":38,"Duration":89713,"SoundDuration":89713,"Delta":323300283},{"NoteNumber":61,"Velocity":45,"Duration":89713,"SoundDuration":89713,"Delta":323300283},{"NoteNumber":67,"Velocity":70,"Duration":89713,"SoundDuration":89713,"Delta":323389996},{"NoteNumber":53,"Velocity":43,"Duration":108498,"SoundDuration":108498,"Delta":323389996},{"NoteNumber":58,"Velocity":38,"Duration":93926,"SoundDuration":93926,"Delta":323479709},{"NoteNumber":61,"Velocity":45,"Duration":93926,"SoundDuration":93926,"Delta":323479709},{"NoteNumber":60,"Velocity":60,"Duration":179963,"SoundDuration":179963,"Delta":323573635},{"NoteNumber":57,"Velocity":60,"Duration":179963,"SoundDuration":179963,"Delta":323573635},{"NoteNumber":65,"Velocity":68,"Duration":179963,"SoundDuration":179963,"Delta":323573635},{"NoteNumber":41,"Velocity":46,"Duration":179963,"SoundDuration":179963,"Delta":323573635},{"NoteNumber":53,"Velocity":51,"Duration":179963,"SoundDuration":179963,"Delta":323573635},{"NoteNumber":77,"Velocity":62,"Duration":89982,"SoundDuration":89982,"Delta":323753599},{"NoteNumber":65,"Velocity":42,"Duration":102729,"SoundDuration":102729,"Delta":323753599},{"NoteNumber":69,"Velocity":33,"Duration":89982,"SoundDuration":89982,"Delta":323843581},{"NoteNumber":72,"Velocity":39,"Duration":89982,"SoundDuration":89982,"Delta":323843581},{"NoteNumber":77,"Velocity":64,"Duration":89981,"SoundDuration":89981,"Delta":323933563},{"NoteNumber":65,"Velocity":42,"Duration":102729,"SoundDuration":102729,"Delta":323933563},{"NoteNumber":69,"Velocity":34,"Duration":89982,"SoundDuration":89982,"Delta":324023545},{"NoteNumber":72,"Velocity":41,"Duration":89982,"SoundDuration":89982,"Delta":324023545},{"NoteNumber":79,"Velocity":68,"Duration":89981,"SoundDuration":89981,"Delta":324113527},{"NoteNumber":65,"Velocity":42,"Duration":103329,"SoundDuration":103329,"Delta":324113527},{"NoteNumber":69,"Velocity":34,"Duration":94221,"SoundDuration":94221,"Delta":324203509},{"NoteNumber":72,"Velocity":40,"Duration":94221,"SoundDuration":94221,"Delta":324203509},{"NoteNumber":81,"Velocity":62,"Duration":89713,"SoundDuration":89713,"Delta":324297730},{"NoteNumber":65,"Velocity":51,"Duration":102422,"SoundDuration":102422,"Delta":324297730},{"NoteNumber":72,"Velocity":38,"Duration":89712,"SoundDuration":89712,"Delta":324387443},{"NoteNumber":75,"Velocity":45,"Duration":89712,"SoundDuration":89712,"Delta":324387443},{"NoteNumber":77,"Velocity":68,"Duration":89713,"SoundDuration":89713,"Delta":324477156},{"NoteNumber":65,"Velocity":43,"Duration":102422,"SoundDuration":102422,"Delta":324477156},{"NoteNumber":72,"Velocity":38,"Duration":89713,"SoundDuration":89713,"Delta":324566869},{"NoteNumber":75,"Velocity":45,"Duration":89713,"SoundDuration":89713,"Delta":324566869},{"NoteNumber":79,"Velocity":68,"Duration":88300,"SoundDuration":88300,"Delta":324656582},{"NoteNumber":65,"Velocity":43,"Duration":100789,"SoundDuration":100789,"Delta":324656582},{"NoteNumber":72,"Velocity":38,"Duration":88157,"SoundDuration":88157,"Delta":324744882},{"NoteNumber":75,"Velocity":45,"Duration":88157,"SoundDuration":88157,"Delta":324744882},{"NoteNumber":81,"Velocity":70,"Duration":88157,"SoundDuration":88157,"Delta":324833040},{"NoteNumber":65,"Velocity":43,"Duration":101463,"SoundDuration":101463,"Delta":324833040},{"NoteNumber":72,"Velocity":38,"Duration":93926,"SoundDuration":93926,"Delta":324921197},{"NoteNumber":75,"Velocity":45,"Duration":93926,"SoundDuration":93926,"Delta":324921197},{"NoteNumber":82,"Velocity":68,"Duration":89982,"SoundDuration":89982,"Delta":325015123},{"NoteNumber":65,"Velocity":51,"Duration":102729,"SoundDuration":102729,"Delta":325015123},{"NoteNumber":70,"Velocity":34,"Duration":89981,"SoundDuration":89981,"Delta":325105105},{"NoteNumber":73,"Velocity":40,"Duration":89981,"SoundDuration":89981,"Delta":325105105},{"NoteNumber":82,"Velocity":62,"Duration":89982,"SoundDuration":89982,"Delta":325195087},{"NoteNumber":65,"Velocity":42,"Duration":102729,"SoundDuration":102729,"Delta":325195087},{"NoteNumber":70,"Velocity":33,"Duration":89982,"SoundDuration":89982,"Delta":325285069},{"NoteNumber":73,"Velocity":39,"Duration":89982,"SoundDuration":89982,"Delta":325285069},{"NoteNumber":82,"Velocity":64,"Duration":89981,"SoundDuration":89981,"Delta":325375051},{"NoteNumber":65,"Velocity":42,"Duration":102729,"SoundDuration":102729,"Delta":325375051},{"NoteNumber":70,"Velocity":34,"Duration":89982,"SoundDuration":89982,"Delta":325465033},{"NoteNumber":73,"Velocity":41,"Duration":89982,"SoundDuration":89982,"Delta":325465033},{"NoteNumber":80,"Velocity":68,"Duration":89981,"SoundDuration":89981,"Delta":325555015},{"NoteNumber":65,"Velocity":42,"Duration":103329,"SoundDuration":103329,"Delta":325555015},{"NoteNumber":70,"Velocity":34,"Duration":94221,"SoundDuration":94221,"Delta":325644997},{"NoteNumber":73,"Velocity":40,"Duration":94221,"SoundDuration":94221,"Delta":325644997},{"NoteNumber":79,"Velocity":62,"Duration":89713,"SoundDuration":89713,"Delta":325739218},{"NoteNumber":65,"Velocity":51,"Duration":102422,"SoundDuration":102422,"Delta":325739218},{"NoteNumber":70,"Velocity":38,"Duration":89712,"SoundDuration":89712,"Delta":325828931},{"NoteNumber":73,"Velocity":45,"Duration":89712,"SoundDuration":89712,"Delta":325828931},{"NoteNumber":77,"Velocity":68,"Duration":89713,"SoundDuration":89713,"Delta":325918644},{"NoteNumber":65,"Velocity":43,"Duration":102422,"SoundDuration":102422,"Delta":325918644},{"NoteNumber":70,"Velocity":38,"Duration":89507,"SoundDuration":89507,"Delta":326008357},{"NoteNumber":73,"Velocity":45,"Duration":89507,"SoundDuration":89507,"Delta":326008357},{"NoteNumber":76,"Velocity":68,"Duration":88417,"SoundDuration":88417,"Delta":326097865},{"NoteNumber":65,"Velocity":43,"Duration":100943,"SoundDuration":100943,"Delta":326097865},{"NoteNumber":70,"Velocity":38,"Duration":88417,"SoundDuration":88417,"Delta":326186282},{"NoteNumber":73,"Velocity":45,"Duration":88417,"SoundDuration":88417,"Delta":326186282},{"NoteNumber":79,"Velocity":70,"Duration":88417,"SoundDuration":88417,"Delta":326274700},{"NoteNumber":65,"Velocity":43,"Duration":107202,"SoundDuration":107202,"Delta":326274700},{"NoteNumber":70,"Velocity":38,"Duration":93926,"SoundDuration":93926,"Delta":326363117},{"NoteNumber":73,"Velocity":45,"Duration":93926,"SoundDuration":93926,"Delta":326363117},{"NoteNumber":77,"Velocity":78,"Duration":89713,"SoundDuration":89713,"Delta":326457043},{"NoteNumber":53,"Velocity":51,"Duration":170454,"SoundDuration":170454,"Delta":326457043},{"NoteNumber":69,"Velocity":38,"Duration":89712,"SoundDuration":89712,"Delta":326546756},{"NoteNumber":72,"Velocity":45,"Duration":89712,"SoundDuration":89712,"Delta":326546756},{"NoteNumber":77,"Velocity":68,"Duration":89713,"SoundDuration":89713,"Delta":326636469},{"NoteNumber":65,"Velocity":43,"Duration":102422,"SoundDuration":102422,"Delta":326636469},{"NoteNumber":69,"Velocity":38,"Duration":89713,"SoundDuration":89713,"Delta":326726182},{"NoteNumber":72,"Velocity":45,"Duration":89713,"SoundDuration":89713,"Delta":326726182},{"NoteNumber":76,"Velocity":68,"Duration":89712,"SoundDuration":89712,"Delta":326815895},{"NoteNumber":65,"Velocity":43,"Duration":102422,"SoundDuration":102422,"Delta":326815895},{"NoteNumber":70,"Velocity":38,"Duration":89713,"SoundDuration":89713,"Delta":326905608},{"NoteNumber":73,"Velocity":45,"Duration":89713,"SoundDuration":89713,"Delta":326905608},{"NoteNumber":79,"Velocity":70,"Duration":89713,"SoundDuration":89713,"Delta":326995321},{"NoteNumber":65,"Velocity":43,"Duration":108498,"SoundDuration":108498,"Delta":326995321},{"NoteNumber":70,"Velocity":38,"Duration":93926,"SoundDuration":93926,"Delta":327085034},{"NoteNumber":73,"Velocity":45,"Duration":93926,"SoundDuration":93926,"Delta":327085034},{"NoteNumber":77,"Velocity":76,"Duration":89713,"SoundDuration":89713,"Delta":327178960},{"NoteNumber":53,"Velocity":51,"Duration":170454,"SoundDuration":170454,"Delta":327178960},{"NoteNumber":69,"Velocity":38,"Duration":89712,"SoundDuration":89712,"Delta":327268673},{"NoteNumber":72,"Velocity":45,"Duration":89712,"SoundDuration":89712,"Delta":327268673},{"NoteNumber":77,"Velocity":68,"Duration":89713,"SoundDuration":89713,"Delta":327358386},{"NoteNumber":65,"Velocity":43,"Duration":102422,"SoundDuration":102422,"Delta":327358386},{"NoteNumber":69,"Velocity":38,"Duration":89713,"SoundDuration":89713,"Delta":327448099},{"NoteNumber":72,"Velocity":45,"Duration":89713,"SoundDuration":89713,"Delta":327448099},{"NoteNumber":76,"Velocity":68,"Duration":89712,"SoundDuration":89712,"Delta":327537812},{"NoteNumber":65,"Velocity":43,"Duration":102422,"SoundDuration":102422,"Delta":327537812},{"NoteNumber":70,"Velocity":38,"Duration":89713,"SoundDuration":89713,"Delta":327627525},{"NoteNumber":73,"Velocity":45,"Duration":89713,"SoundDuration":89713,"Delta":327627525},{"NoteNumber":79,"Velocity":70,"Duration":89713,"SoundDuration":89713,"Delta":327717238},{"NoteNumber":65,"Velocity":43,"Duration":110232,"SoundDuration":110232,"Delta":327717238},{"NoteNumber":70,"Velocity":38,"Duration":102599,"SoundDuration":102599,"Delta":327806951},{"NoteNumber":73,"Velocity":45,"Duration":102599,"SoundDuration":102599,"Delta":327806951},{"NoteNumber":69,"Velocity":59,"Duration":93926,"SoundDuration":93926,"Delta":327909550},{"NoteNumber":72,"Velocity":59,"Duration":93926,"SoundDuration":93926,"Delta":327909550},{"NoteNumber":77,"Velocity":70,"Duration":93926,"SoundDuration":93926,"Delta":327909550},{"NoteNumber":53,"Velocity":51,"Duration":370329,"SoundDuration":370329,"Delta":327909550},{"NoteNumber":65,"Velocity":35,"Duration":102978,"SoundDuration":102978,"Delta":328003476},{"NoteNumber":67,"Velocity":40,"Duration":100383,"SoundDuration":100383,"Delta":328097402},{"NoteNumber":69,"Velocity":35,"Duration":100359,"SoundDuration":100359,"Delta":328188639},{"NoteNumber":70,"Velocity":40,"Duration":100009,"SoundDuration":100009,"Delta":328279880},{"NoteNumber":72,"Velocity":35,"Duration":99650,"SoundDuration":99650,"Delta":328370826},{"NoteNumber":74,"Velocity":40,"Duration":99194,"SoundDuration":99194,"Delta":328461440},{"NoteNumber":76,"Velocity":33,"Duration":98829,"SoundDuration":98829,"Delta":328551652},{"NoteNumber":77,"Velocity":40,"Duration":99099,"SoundDuration":99099,"Delta":328641473},{"NoteNumber":76,"Velocity":33,"Duration":99320,"SoundDuration":99320,"Delta":328731563},{"NoteNumber":77,"Velocity":40,"Duration":99397,"SoundDuration":99397,"Delta":328821847},{"NoteNumber":76,"Velocity":33,"Duration":99397,"SoundDuration":99397,"Delta":328912209},{"NoteNumber":77,"Velocity":40,"Duration":99397,"SoundDuration":99397,"Delta":329002570},{"NoteNumber":76,"Velocity":34,"Duration":99397,"SoundDuration":99397,"Delta":329092932},{"NoteNumber":77,"Velocity":40,"Duration":100887,"SoundDuration":100887,"Delta":329183293},{"NoteNumber":76,"Velocity":33,"Duration":105263,"SoundDuration":105263,"Delta":329273655},{"NoteNumber":74,"Velocity":38,"Duration":741244,"SoundDuration":741244,"Delta":329378918},{"NoteNumber":77,"Velocity":43,"Duration":741244,"SoundDuration":741244,"Delta":329378918},{"NoteNumber":58,"Velocity":31,"Duration":100733,"SoundDuration":100733,"Delta":329470886},{"NoteNumber":60,"Velocity":36,"Duration":100311,"SoundDuration":100311,"Delta":329562473},{"NoteNumber":62,"Velocity":31,"Duration":99885,"SoundDuration":99885,"Delta":329653694},{"NoteNumber":63,"Velocity":36,"Duration":99486,"SoundDuration":99486,"Delta":329744516},{"NoteNumber":65,"Velocity":31,"Duration":99043,"SoundDuration":99043,"Delta":329834966},{"NoteNumber":67,"Velocity":36,"Duration":100260,"SoundDuration":100260,"Delta":329925027},{"NoteNumber":69,"Velocity":29,"Duration":114485,"SoundDuration":114485,"Delta":330014686},{"NoteNumber":74,"Velocity":49,"Duration":358257,"SoundDuration":358257,"Delta":330120163},{"NoteNumber":70,"Velocity":36,"Duration":98287,"SoundDuration":98287,"Delta":330120163},{"NoteNumber":69,"Velocity":29,"Duration":98717,"SoundDuration":98717,"Delta":330209548},{"NoteNumber":70,"Velocity":36,"Duration":98628,"SoundDuration":98628,"Delta":330299390},{"NoteNumber":69,"Velocity":29,"Duration":98401,"SoundDuration":98401,"Delta":330388955},{"NoteNumber":82,"Velocity":47,"Duration":359028,"SoundDuration":359028,"Delta":330478420},{"NoteNumber":70,"Velocity":36,"Duration":99614,"SoundDuration":99614,"Delta":330478420},{"NoteNumber":69,"Velocity":27,"Duration":98663,"SoundDuration":98663,"Delta":330568925},{"NoteNumber":70,"Velocity":34,"Duration":97636,"SoundDuration":97636,"Delta":330658748},{"NoteNumber":69,"Velocity":26,"Duration":89993,"SoundDuration":89993,"Delta":330747455},{"NoteNumber":74,"Velocity":41,"Duration":359269,"SoundDuration":359269,"Delta":330837449},{"NoteNumber":77,"Velocity":49,"Duration":359269,"SoundDuration":359269,"Delta":330837449},{"NoteNumber":70,"Velocity":30,"Duration":98898,"SoundDuration":98898,"Delta":330837449},{"NoteNumber":69,"Velocity":25,"Duration":98968,"SoundDuration":98968,"Delta":330927480},{"NoteNumber":70,"Velocity":30,"Duration":97581,"SoundDuration":97581,"Delta":331017599},{"NoteNumber":69,"Velocity":25,"Duration":99621,"SoundDuration":99621,"Delta":331106243},{"NoteNumber":86,"Velocity":43,"Duration":373095,"SoundDuration":373095,"Delta":331196718},{"NoteNumber":82,"Velocity":36,"Duration":373095,"SoundDuration":373095,"Delta":331196718},{"NoteNumber":70,"Velocity":30,"Duration":99657,"SoundDuration":99657,"Delta":331196718},{"NoteNumber":69,"Velocity":25,"Duration":99662,"SoundDuration":99662,"Delta":331287357},{"NoteNumber":70,"Velocity":30,"Duration":100304,"SoundDuration":100304,"Delta":331377983},{"NoteNumber":69,"Velocity":25,"Duration":110686,"SoundDuration":110686,"Delta":331468119},{"NoteNumber":74,"Velocity":42,"Duration":357936,"SoundDuration":357936,"Delta":331569814},{"NoteNumber":77,"Velocity":50,"Duration":357936,"SoundDuration":357936,"Delta":331569814},{"NoteNumber":70,"Velocity":30,"Duration":97559,"SoundDuration":97559,"Delta":331569814},{"NoteNumber":69,"Velocity":25,"Duration":99637,"SoundDuration":99637,"Delta":331658418},{"NoteNumber":70,"Velocity":30,"Duration":97698,"SoundDuration":97698,"Delta":331749027},{"NoteNumber":69,"Velocity":25,"Duration":98819,"SoundDuration":98819,"Delta":331837850},{"NoteNumber":89,"Velocity":43,"Duration":370399,"SoundDuration":370399,"Delta":331927750},{"NoteNumber":86,"Velocity":36,"Duration":370399,"SoundDuration":370399,"Delta":331927750},{"NoteNumber":70,"Velocity":30,"Duration":98257,"SoundDuration":98257,"Delta":331927750},{"NoteNumber":69,"Velocity":25,"Duration":98930,"SoundDuration":98930,"Delta":332016971},{"NoteNumber":70,"Velocity":30,"Duration":99650,"SoundDuration":99650,"Delta":332106973},{"NoteNumber":69,"Velocity":25,"Duration":101695,"SoundDuration":101695,"Delta":332196455},{"NoteNumber":74,"Velocity":38,"Duration":741244,"SoundDuration":741244,"Delta":332298150},{"NoteNumber":77,"Velocity":43,"Duration":741244,"SoundDuration":741244,"Delta":332298150},{"NoteNumber":70,"Velocity":30,"Duration":91968,"SoundDuration":91968,"Delta":332298150},{"NoteNumber":58,"Velocity":31,"Duration":100733,"SoundDuration":100733,"Delta":332390118},{"NoteNumber":60,"Velocity":36,"Duration":100311,"SoundDuration":100311,"Delta":332481705},{"NoteNumber":62,"Velocity":31,"Duration":99885,"SoundDuration":99885,"Delta":332572925},{"NoteNumber":63,"Velocity":36,"Duration":99486,"SoundDuration":99486,"Delta":332663747},{"NoteNumber":65,"Velocity":31,"Duration":99043,"SoundDuration":99043,"Delta":332754198},{"NoteNumber":67,"Velocity":36,"Duration":100260,"SoundDuration":100260,"Delta":332844259},{"NoteNumber":69,"Velocity":29,"Duration":114485,"SoundDuration":114485,"Delta":332933918},{"NoteNumber":74,"Velocity":49,"Duration":358165,"SoundDuration":358165,"Delta":333039394},{"NoteNumber":70,"Velocity":36,"Duration":98287,"SoundDuration":98287,"Delta":333039394},{"NoteNumber":69,"Velocity":29,"Duration":98717,"SoundDuration":98717,"Delta":333128780},{"NoteNumber":70,"Velocity":36,"Duration":98628,"SoundDuration":98628,"Delta":333218622},{"NoteNumber":69,"Velocity":29,"Duration":98200,"SoundDuration":98200,"Delta":333308187},{"NoteNumber":82,"Velocity":46,"Duration":358976,"SoundDuration":358976,"Delta":333397560},{"NoteNumber":70,"Velocity":36,"Duration":99511,"SoundDuration":99511,"Delta":333397560},{"NoteNumber":69,"Velocity":27,"Duration":98606,"SoundDuration":98606,"Delta":333487962},{"NoteNumber":70,"Velocity":34,"Duration":97636,"SoundDuration":97636,"Delta":333577728},{"NoteNumber":69,"Velocity":26,"Duration":90100,"SoundDuration":90100,"Delta":333666436},{"NoteNumber":74,"Velocity":41,"Duration":356578,"SoundDuration":356578,"Delta":333756536},{"NoteNumber":77,"Velocity":49,"Duration":356578,"SoundDuration":356578,"Delta":333756536},{"NoteNumber":70,"Velocity":30,"Duration":98898,"SoundDuration":98898,"Delta":333756536},{"NoteNumber":69,"Velocity":25,"Duration":98932,"SoundDuration":98932,"Delta":333846567},{"NoteNumber":70,"Velocity":30,"Duration":96467,"SoundDuration":96467,"Delta":333936686},{"NoteNumber":69,"Velocity":25,"Duration":97578,"SoundDuration":97578,"Delta":334024379},{"NoteNumber":86,"Velocity":43,"Duration":371973,"SoundDuration":371973,"Delta":334113115},{"NoteNumber":82,"Velocity":36,"Duration":371973,"SoundDuration":371973,"Delta":334113115},{"NoteNumber":70,"Velocity":30,"Duration":98535,"SoundDuration":98535,"Delta":334113115},{"NoteNumber":69,"Velocity":25,"Duration":99662,"SoundDuration":99662,"Delta":334202632},{"NoteNumber":70,"Velocity":30,"Duration":100304,"SoundDuration":100304,"Delta":334293258},{"NoteNumber":69,"Velocity":25,"Duration":110686,"SoundDuration":110686,"Delta":334383394},{"NoteNumber":74,"Velocity":42,"Duration":353546,"SoundDuration":353546,"Delta":334485089},{"NoteNumber":77,"Velocity":50,"Duration":353546,"SoundDuration":353546,"Delta":334485089},{"NoteNumber":70,"Velocity":30,"Duration":97170,"SoundDuration":97170,"Delta":334485089},{"NoteNumber":69,"Velocity":25,"Duration":98229,"SoundDuration":98229,"Delta":334573338},{"NoteNumber":70,"Velocity":30,"Duration":96432,"SoundDuration":96432,"Delta":334662726},{"NoteNumber":69,"Velocity":25,"Duration":97083,"SoundDuration":97083,"Delta":334750445},{"NoteNumber":89,"Velocity":43,"Duration":369651,"SoundDuration":369651,"Delta":334838635},{"NoteNumber":86,"Velocity":36,"Duration":369651,"SoundDuration":369651,"Delta":334838635},{"NoteNumber":70,"Velocity":30,"Duration":97924,"SoundDuration":97924,"Delta":334838635},{"NoteNumber":68,"Velocity":25,"Duration":98411,"SoundDuration":98411,"Delta":334927628},{"NoteNumber":70,"Velocity":30,"Duration":99650,"SoundDuration":99650,"Delta":335017111},{"NoteNumber":68,"Velocity":25,"Duration":101695,"SoundDuration":101695,"Delta":335106592},{"NoteNumber":74,"Velocity":49,"Duration":728935,"SoundDuration":728935,"Delta":335208287},{"NoteNumber":77,"Velocity":49,"Duration":728935,"SoundDuration":728935,"Delta":335208287},{"NoteNumber":79,"Velocity":49,"Duration":728935,"SoundDuration":728935,"Delta":335208287},{"NoteNumber":83,"Velocity":49,"Duration":728935,"SoundDuration":728935,"Delta":335208287},{"NoteNumber":66,"Velocity":39,"Duration":137195,"SoundDuration":137195,"Delta":335208287},{"NoteNumber":67,"Velocity":34,"Duration":91463,"SoundDuration":91463,"Delta":335299750},{"NoteNumber":66,"Velocity":39,"Duration":136917,"SoundDuration":136917,"Delta":335391214},{"NoteNumber":67,"Velocity":35,"Duration":90909,"SoundDuration":90909,"Delta":335482677},{"NoteNumber":64,"Velocity":41,"Duration":136363,"SoundDuration":136363,"Delta":335573586},{"NoteNumber":65,"Velocity":35,"Duration":90908,"SoundDuration":90908,"Delta":335664495},{"NoteNumber":64,"Velocity":42,"Duration":136363,"SoundDuration":136363,"Delta":335755404},{"NoteNumber":65,"Velocity":36,"Duration":90909,"SoundDuration":90909,"Delta":335846313},{"NoteNumber":61,"Velocity":44,"Duration":135951,"SoundDuration":135951,"Delta":335937222},{"NoteNumber":62,"Velocity":37,"Duration":90634,"SoundDuration":90634,"Delta":336027857},{"NoteNumber":61,"Velocity":45,"Duration":135951,"SoundDuration":135951,"Delta":336118491},{"NoteNumber":62,"Velocity":37,"Duration":90634,"SoundDuration":90634,"Delta":336209126},{"NoteNumber":58,"Velocity":44,"Duration":135951,"SoundDuration":135951,"Delta":336299760},{"NoteNumber":59,"Velocity":38,"Duration":90634,"SoundDuration":90634,"Delta":336390395},{"NoteNumber":58,"Velocity":44,"Duration":135951,"SoundDuration":135951,"Delta":336481029},{"NoteNumber":59,"Velocity":39,"Duration":90634,"SoundDuration":90634,"Delta":336571664},{"NoteNumber":54,"Velocity":45,"Duration":135542,"SoundDuration":135542,"Delta":336662298},{"NoteNumber":55,"Velocity":39,"Duration":90361,"SoundDuration":90361,"Delta":336752660},{"NoteNumber":54,"Velocity":46,"Duration":135542,"SoundDuration":135542,"Delta":336843021},{"NoteNumber":55,"Velocity":40,"Duration":90361,"SoundDuration":90361,"Delta":336933383},{"NoteNumber":83,"Velocity":70,"Duration":357143,"SoundDuration":357143,"Delta":337023744},{"NoteNumber":52,"Velocity":48,"Duration":133928,"SoundDuration":133928,"Delta":337023744},{"NoteNumber":53,"Velocity":41,"Duration":89285,"SoundDuration":89285,"Delta":337113030},{"NoteNumber":52,"Velocity":48,"Duration":133928,"SoundDuration":133928,"Delta":337202316},{"NoteNumber":53,"Velocity":41,"Duration":89285,"SoundDuration":89285,"Delta":337291602},{"NoteNumber":86,"Velocity":70,"Duration":353991,"SoundDuration":353991,"Delta":337380887},{"NoteNumber":49,"Velocity":54,"Duration":133403,"SoundDuration":133403,"Delta":337380887},{"NoteNumber":50,"Velocity":42,"Duration":88235,"SoundDuration":88235,"Delta":337470173},{"NoteNumber":49,"Velocity":52,"Duration":132352,"SoundDuration":132352,"Delta":337558408},{"NoteNumber":50,"Velocity":43,"Duration":88235,"SoundDuration":88235,"Delta":337646644},{"NoteNumber":89,"Velocity":66,"Duration":712190,"SoundDuration":712190,"Delta":337734879},{"NoteNumber":46,"Velocity":55,"Duration":134328,"SoundDuration":134328,"Delta":337734879},{"NoteNumber":47,"Velocity":44,"Duration":89552,"SoundDuration":89552,"Delta":337824431},{"NoteNumber":46,"Velocity":51,"Duration":134328,"SoundDuration":134328,"Delta":337913983},{"NoteNumber":47,"Velocity":44,"Duration":89552,"SoundDuration":89552,"Delta":338003536},{"NoteNumber":83,"Velocity":72,"Duration":717617,"SoundDuration":717617,"Delta":338093088},{"NoteNumber":42,"Velocity":57,"Duration":132743,"SoundDuration":132743,"Delta":338093088},{"NoteNumber":43,"Velocity":44,"Duration":88495,"SoundDuration":88495,"Delta":338181583},{"NoteNumber":42,"Velocity":51,"Duration":132743,"SoundDuration":132743,"Delta":338270079},{"NoteNumber":43,"Velocity":44,"Duration":88495,"SoundDuration":88495,"Delta":338358574},{"NoteNumber":87,"Velocity":75,"Duration":1426836,"SoundDuration":1426836,"Delta":338447070},{"NoteNumber":42,"Velocity":56,"Duration":136363,"SoundDuration":136363,"Delta":338447070},{"NoteNumber":43,"Velocity":50,"Duration":90909,"SoundDuration":90909,"Delta":338537979},{"NoteNumber":42,"Velocity":57,"Duration":136363,"SoundDuration":136363,"Delta":338628888},{"NoteNumber":43,"Velocity":44,"Duration":83333,"SoundDuration":83333,"Delta":338719797},{"NoteNumber":84,"Velocity":75,"Duration":1063200,"SoundDuration":1063200,"Delta":338810706},{"NoteNumber":43,"Velocity":61,"Duration":131578,"SoundDuration":131578,"Delta":338810706},{"NoteNumber":44,"Velocity":52,"Duration":87719,"SoundDuration":87719,"Delta":338898425},{"NoteNumber":43,"Velocity":58,"Duration":131578,"SoundDuration":131578,"Delta":338986144},{"NoteNumber":44,"Velocity":52,"Duration":87719,"SoundDuration":87719,"Delta":339073864},{"NoteNumber":78,"Velocity":66,"Duration":361446,"SoundDuration":361446,"Delta":339161583},{"NoteNumber":44,"Velocity":58,"Duration":135542,"SoundDuration":135542,"Delta":339161583},{"NoteNumber":45,"Velocity":44,"Duration":90361,"SoundDuration":90361,"Delta":339251944},{"NoteNumber":44,"Velocity":54,"Duration":135542,"SoundDuration":135542,"Delta":339342306},{"NoteNumber":45,"Velocity":44,"Duration":90361,"SoundDuration":90361,"Delta":339432667},{"NoteNumber":77,"Velocity":74,"Duration":715619,"SoundDuration":715619,"Delta":339523029},{"NoteNumber":45,"Velocity":56,"Duration":131578,"SoundDuration":131578,"Delta":339523029},{"NoteNumber":46,"Velocity":48,"Duration":87719,"SoundDuration":87719,"Delta":339610748},{"NoteNumber":45,"Velocity":51,"Duration":131578,"SoundDuration":131578,"Delta":339698467},{"NoteNumber":46,"Velocity":44,"Duration":87719,"SoundDuration":87719,"Delta":339786187},{"NoteNumber":86,"Velocity":70,"Duration":364741,"SoundDuration":364741,"Delta":339873906},{"NoteNumber":82,"Velocity":57,"Duration":364741,"SoundDuration":364741,"Delta":339873906},{"NoteNumber":45,"Velocity":51,"Duration":136778,"SoundDuration":136778,"Delta":339873906},{"NoteNumber":46,"Velocity":44,"Duration":91185,"SoundDuration":91185,"Delta":339965091},{"NoteNumber":45,"Velocity":51,"Duration":136778,"SoundDuration":136778,"Delta":340056277},{"NoteNumber":46,"Velocity":44,"Duration":83586,"SoundDuration":83586,"Delta":340147462},{"NoteNumber":75,"Velocity":61,"Duration":356083,"SoundDuration":356083,"Delta":340238648},{"NoteNumber":79,"Velocity":61,"Duration":356083,"SoundDuration":356083,"Delta":340238648},{"NoteNumber":84,"Velocity":70,"Duration":356083,"SoundDuration":356083,"Delta":340238648},{"NoteNumber":38,"Velocity":51,"Duration":133531,"SoundDuration":133531,"Delta":340238648},{"NoteNumber":39,"Velocity":44,"Duration":89020,"SoundDuration":89020,"Delta":340327669},{"NoteNumber":38,"Velocity":51,"Duration":133531,"SoundDuration":133531,"Delta":340416689},{"NoteNumber":39,"Velocity":44,"Duration":81602,"SoundDuration":81602,"Delta":340505710},{"NoteNumber":72,"Velocity":53,"Duration":393581,"SoundDuration":393581,"Delta":340594731},{"NoteNumber":75,"Velocity":53,"Duration":393581,"SoundDuration":393581,"Delta":340594731},{"NoteNumber":81,"Velocity":64,"Duration":393581,"SoundDuration":393581,"Delta":340594731},{"NoteNumber":40,"Velocity":51,"Duration":140187,"SoundDuration":140187,"Delta":340594731},{"NoteNumber":41,"Velocity":44,"Duration":93457,"SoundDuration":93457,"Delta":340688189},{"NoteNumber":40,"Velocity":51,"Duration":150061,"SoundDuration":150061,"Delta":340781647},{"NoteNumber":41,"Velocity":44,"Duration":103773,"SoundDuration":103773,"Delta":340875105},{"NoteNumber":70,"Velocity":64,"Duration":179104,"SoundDuration":179104,"Delta":340988312},{"NoteNumber":74,"Velocity":64,"Duration":179104,"SoundDuration":179104,"Delta":340988312},{"NoteNumber":82,"Velocity":77,"Duration":179104,"SoundDuration":179104,"Delta":340988312},{"NoteNumber":34,"Velocity":48,"Duration":179104,"SoundDuration":179104,"Delta":340988312},{"NoteNumber":70,"Velocity":73,"Duration":725174,"SoundDuration":725174,"Delta":341704730},{"NoteNumber":74,"Velocity":88,"Duration":732866,"SoundDuration":732866,"Delta":341704730},{"NoteNumber":58,"Velocity":54,"Duration":725174,"SoundDuration":725174,"Delta":341704730},{"NoteNumber":62,"Velocity":64,"Duration":732866,"SoundDuration":732866,"Delta":341704730},{"NoteNumber":67,"Velocity":57,"Duration":364907,"SoundDuration":364907,"Delta":342437597},{"NoteNumber":70,"Velocity":68,"Duration":372671,"SoundDuration":372671,"Delta":342437597},{"NoteNumber":55,"Velocity":41,"Duration":364907,"SoundDuration":364907,"Delta":342437597},{"NoteNumber":58,"Velocity":49,"Duration":372671,"SoundDuration":372671,"Delta":342437597},{"NoteNumber":63,"Velocity":59,"Duration":194804,"SoundDuration":194804,"Delta":342810268},{"NoteNumber":67,"Velocity":70,"Duration":194804,"SoundDuration":194804,"Delta":342810268},{"NoteNumber":51,"Velocity":41,"Duration":194804,"SoundDuration":194804,"Delta":342810268},{"NoteNumber":55,"Velocity":49,"Duration":194804,"SoundDuration":194804,"Delta":342810268},{"NoteNumber":72,"Velocity":73,"Duration":547113,"SoundDuration":547113,"Delta":343199878},{"NoteNumber":75,"Velocity":88,"Duration":547113,"SoundDuration":547113,"Delta":343199878},{"NoteNumber":60,"Velocity":54,"Duration":547113,"SoundDuration":547113,"Delta":343199878},{"NoteNumber":63,"Velocity":64,"Duration":547113,"SoundDuration":547113,"Delta":343199878},{"NoteNumber":70,"Velocity":57,"Duration":182370,"SoundDuration":182370,"Delta":343746991},{"NoteNumber":74,"Velocity":68,"Duration":182370,"SoundDuration":182370,"Delta":343746991},{"NoteNumber":58,"Velocity":41,"Duration":182370,"SoundDuration":182370,"Delta":343746991},{"NoteNumber":62,"Velocity":49,"Duration":182370,"SoundDuration":182370,"Delta":343746991},{"NoteNumber":72,"Velocity":77,"Duration":372671,"SoundDuration":372671,"Delta":343929362},{"NoteNumber":69,"Velocity":64,"Duration":364907,"SoundDuration":364907,"Delta":343929362},{"NoteNumber":57,"Velocity":49,"Duration":364907,"SoundDuration":364907,"Delta":343929362},{"NoteNumber":60,"Velocity":58,"Duration":372671,"SoundDuration":372671,"Delta":343929362},{"NoteNumber":65,"Velocity":57,"Duration":186335,"SoundDuration":186335,"Delta":344302033},{"NoteNumber":69,"Velocity":68,"Duration":186335,"SoundDuration":186335,"Delta":344302033},{"NoteNumber":53,"Velocity":44,"Duration":186335,"SoundDuration":186335,"Delta":344302033},{"NoteNumber":57,"Velocity":52,"Duration":186335,"SoundDuration":186335,"Delta":344302033},{"NoteNumber":74,"Velocity":73,"Duration":721864,"SoundDuration":721864,"Delta":344674704},{"NoteNumber":77,"Velocity":88,"Duration":729509,"SoundDuration":729509,"Delta":344674704},{"NoteNumber":62,"Velocity":54,"Duration":721864,"SoundDuration":721864,"Delta":344674704},{"NoteNumber":65,"Velocity":64,"Duration":729509,"SoundDuration":729509,"Delta":344674704},{"NoteNumber":70,"Velocity":57,"Duration":364907,"SoundDuration":364907,"Delta":345404214},{"NoteNumber":74,"Velocity":68,"Duration":372671,"SoundDuration":372671,"Delta":345404214},{"NoteNumber":58,"Velocity":41,"Duration":364907,"SoundDuration":364907,"Delta":345404214},{"NoteNumber":62,"Velocity":49,"Duration":372671,"SoundDuration":372671,"Delta":345404214},{"NoteNumber":67,"Velocity":59,"Duration":194174,"SoundDuration":194174,"Delta":345776885},{"NoteNumber":70,"Velocity":70,"Duration":194174,"SoundDuration":194174,"Delta":345776885},{"NoteNumber":55,"Velocity":41,"Duration":194174,"SoundDuration":194174,"Delta":345776885},{"NoteNumber":58,"Velocity":49,"Duration":194174,"SoundDuration":194174,"Delta":345776885},{"NoteNumber":75,"Velocity":73,"Duration":547113,"SoundDuration":547113,"Delta":346165235},{"NoteNumber":79,"Velocity":88,"Duration":547113,"SoundDuration":547113,"Delta":346165235},{"NoteNumber":63,"Velocity":54,"Duration":547113,"SoundDuration":547113,"Delta":346165235},{"NoteNumber":67,"Velocity":64,"Duration":547113,"SoundDuration":547113,"Delta":346165235},{"NoteNumber":74,"Velocity":57,"Duration":182370,"SoundDuration":182370,"Delta":346712348},{"NoteNumber":77,"Velocity":68,"Duration":182370,"SoundDuration":182370,"Delta":346712348},{"NoteNumber":62,"Velocity":41,"Duration":182370,"SoundDuration":182370,"Delta":346712348},{"NoteNumber":65,"Velocity":49,"Duration":182370,"SoundDuration":182370,"Delta":346712348},{"NoteNumber":75,"Velocity":77,"Duration":372671,"SoundDuration":372671,"Delta":346894719},{"NoteNumber":72,"Velocity":64,"Duration":364907,"SoundDuration":364907,"Delta":346894719},{"NoteNumber":60,"Velocity":49,"Duration":364907,"SoundDuration":364907,"Delta":346894719},{"NoteNumber":63,"Velocity":58,"Duration":372671,"SoundDuration":372671,"Delta":346894719},{"NoteNumber":69,"Velocity":57,"Duration":186335,"SoundDuration":186335,"Delta":347267390},{"NoteNumber":72,"Velocity":68,"Duration":186335,"SoundDuration":186335,"Delta":347267390},{"NoteNumber":57,"Velocity":44,"Duration":186335,"SoundDuration":186335,"Delta":347267390},{"NoteNumber":60,"Velocity":52,"Duration":186335,"SoundDuration":186335,"Delta":347267390},{"NoteNumber":75,"Velocity":73,"Duration":545454,"SoundDuration":545454,"Delta":347640061},{"NoteNumber":84,"Velocity":88,"Duration":545454,"SoundDuration":545454,"Delta":347640061},{"NoteNumber":63,"Velocity":54,"Duration":545454,"SoundDuration":545454,"Delta":347640061},{"NoteNumber":72,"Velocity":64,"Duration":545454,"SoundDuration":545454,"Delta":347640061},{"NoteNumber":74,"Velocity":57,"Duration":188087,"SoundDuration":188087,"Delta":348185515},{"NoteNumber":82,"Velocity":68,"Duration":188087,"SoundDuration":188087,"Delta":348185515},{"NoteNumber":62,"Velocity":41,"Duration":188087,"SoundDuration":188087,"Delta":348185515},{"NoteNumber":70,"Velocity":49,"Duration":188087,"SoundDuration":188087,"Delta":348185515},{"NoteNumber":72,"Velocity":73,"Duration":542169,"SoundDuration":542169,"Delta":348373603},{"NoteNumber":81,"Velocity":88,"Duration":542169,"SoundDuration":542169,"Delta":348373603},{"NoteNumber":60,"Velocity":54,"Duration":542169,"SoundDuration":542169,"Delta":348373603},{"NoteNumber":69,"Velocity":64,"Duration":542169,"SoundDuration":542169,"Delta":348373603},{"NoteNumber":70,"Velocity":57,"Duration":188678,"SoundDuration":188678,"Delta":348915772},{"NoteNumber":79,"Velocity":68,"Duration":188678,"SoundDuration":188678,"Delta":348915772},{"NoteNumber":58,"Velocity":41,"Duration":188678,"SoundDuration":188678,"Delta":348915772},{"NoteNumber":67,"Velocity":41,"Duration":188678,"SoundDuration":188678,"Delta":348915772},{"NoteNumber":69,"Velocity":51,"Duration":361446,"SoundDuration":361446,"Delta":349104451},{"NoteNumber":77,"Velocity":60,"Duration":361446,"SoundDuration":361446,"Delta":349104451},{"NoteNumber":57,"Velocity":41,"Duration":361446,"SoundDuration":361446,"Delta":349104451},{"NoteNumber":65,"Velocity":49,"Duration":361446,"SoundDuration":361446,"Delta":349104451},{"NoteNumber":63,"Velocity":44,"Duration":361446,"SoundDuration":361446,"Delta":349465897},{"NoteNumber":75,"Velocity":52,"Duration":361446,"SoundDuration":361446,"Delta":349465897},{"NoteNumber":55,"Velocity":34,"Duration":361446,"SoundDuration":361446,"Delta":349465897},{"NoteNumber":58,"Velocity":41,"Duration":361446,"SoundDuration":361446,"Delta":349465897},{"NoteNumber":62,"Velocity":49,"Duration":364741,"SoundDuration":364741,"Delta":349827343},{"NoteNumber":74,"Velocity":58,"Duration":364741,"SoundDuration":364741,"Delta":349827343},{"NoteNumber":54,"Velocity":36,"Duration":364741,"SoundDuration":364741,"Delta":349827343},{"NoteNumber":57,"Velocity":43,"Duration":364741,"SoundDuration":364741,"Delta":349827343},{"NoteNumber":66,"Velocity":39,"Duration":364742,"SoundDuration":364742,"Delta":350192085},{"NoteNumber":72,"Velocity":46,"Duration":364742,"SoundDuration":364742,"Delta":350192085},{"NoteNumber":50,"Velocity":27,"Duration":364742,"SoundDuration":364742,"Delta":350192085},{"NoteNumber":57,"Velocity":32,"Duration":364742,"SoundDuration":364742,"Delta":350192085},{"NoteNumber":67,"Velocity":45,"Duration":364741,"SoundDuration":364741,"Delta":350556827},{"NoteNumber":70,"Velocity":53,"Duration":364741,"SoundDuration":364741,"Delta":350556827},{"NoteNumber":51,"Velocity":33,"Duration":364741,"SoundDuration":364741,"Delta":350556827},{"NoteNumber":55,"Velocity":39,"Duration":364741,"SoundDuration":364741,"Delta":350556827},{"NoteNumber":60,"Velocity":40,"Duration":385851,"SoundDuration":385851,"Delta":350921569},{"NoteNumber":67,"Velocity":48,"Duration":385851,"SoundDuration":385851,"Delta":350921569},{"NoteNumber":58,"Velocity":40,"Duration":385851,"SoundDuration":385851,"Delta":350921569},{"NoteNumber":52,"Velocity":31,"Duration":385851,"SoundDuration":385851,"Delta":350921569},{"NoteNumber":53,"Velocity":38,"Duration":736307,"SoundDuration":736307,"Delta":351307421},{"NoteNumber":58,"Velocity":32,"Duration":186335,"SoundDuration":186335,"Delta":351671057},{"NoteNumber":62,"Velocity":32,"Duration":186335,"SoundDuration":186335,"Delta":351671057},{"NoteNumber":65,"Velocity":38,"Duration":186335,"SoundDuration":186335,"Delta":351671057},{"NoteNumber":41,"Velocity":32,"Duration":748129,"SoundDuration":748129,"Delta":352043728},{"NoteNumber":57,"Velocity":31,"Duration":191693,"SoundDuration":191693,"Delta":352408470},{"NoteNumber":60,"Velocity":31,"Duration":191693,"SoundDuration":191693,"Delta":352408470},{"NoteNumber":65,"Velocity":37,"Duration":191693,"SoundDuration":191693,"Delta":352408470},{"NoteNumber":34,"Velocity":35,"Duration":750000,"SoundDuration":750000,"Delta":352791857},{"NoteNumber":62,"Velocity":35,"Duration":351562,"SoundDuration":351562,"Delta":353166857},{"NoteNumber":58,"Velocity":29,"Duration":351562,"SoundDuration":351562,"Delta":353166857},{"NoteNumber":53,"Velocity":29,"Duration":351562,"SoundDuration":351562,"Delta":353166857},{"NoteNumber":62,"Velocity":66,"Duration":549402,"SoundDuration":549402,"Delta":353541857},{"NoteNumber":58,"Velocity":55,"Duration":549402,"SoundDuration":549402,"Delta":353541857},{"NoteNumber":70,"Velocity":60,"Duration":384113,"SoundDuration":384113,"Delta":353707147},{"NoteNumber":74,"Velocity":72,"Duration":384113,"SoundDuration":384113,"Delta":353707147},{"NoteNumber":70,"Velocity":47,"Duration":97719,"SoundDuration":97719,"Delta":354091260},{"NoteNumber":74,"Velocity":56,"Duration":97719,"SoundDuration":97719,"Delta":354091260},{"NoteNumber":58,"Velocity":37,"Duration":97719,"SoundDuration":97719,"Delta":354091260},{"NoteNumber":62,"Velocity":44,"Duration":97719,"SoundDuration":97719,"Delta":354091260},{"NoteNumber":55,"Velocity":45,"Duration":90634,"SoundDuration":90634,"Delta":354286699},{"NoteNumber":58,"Velocity":53,"Duration":90634,"SoundDuration":90634,"Delta":354286699},{"NoteNumber":67,"Velocity":41,"Duration":90634,"SoundDuration":90634,"Delta":354467968},{"NoteNumber":70,"Velocity":49,"Duration":90634,"SoundDuration":90634,"Delta":354467968},{"NoteNumber":51,"Velocity":39,"Duration":91463,"SoundDuration":91463,"Delta":354649237},{"NoteNumber":55,"Velocity":47,"Duration":91463,"SoundDuration":91463,"Delta":354649237},{"NoteNumber":63,"Velocity":38,"Duration":102040,"SoundDuration":102040,"Delta":354832164},{"NoteNumber":67,"Velocity":45,"Duration":102040,"SoundDuration":102040,"Delta":354832164},{"NoteNumber":63,"Velocity":66,"Duration":536928,"SoundDuration":536928,"Delta":355036246},{"NoteNumber":60,"Velocity":55,"Duration":536928,"SoundDuration":536928,"Delta":355036246},{"NoteNumber":72,"Velocity":60,"Duration":371639,"SoundDuration":371639,"Delta":355201535},{"NoteNumber":75,"Velocity":73,"Duration":371639,"SoundDuration":371639,"Delta":355201535},{"NoteNumber":70,"Velocity":43,"Duration":97719,"SoundDuration":97719,"Delta":355573175},{"NoteNumber":74,"Velocity":51,"Duration":97719,"SoundDuration":97719,"Delta":355573175},{"NoteNumber":58,"Velocity":37,"Duration":97719,"SoundDuration":97719,"Delta":355573175},{"NoteNumber":62,"Velocity":44,"Duration":97719,"SoundDuration":97719,"Delta":355573175},{"NoteNumber":57,"Velocity":45,"Duration":90634,"SoundDuration":90634,"Delta":355768614},{"NoteNumber":60,"Velocity":53,"Duration":90634,"SoundDuration":90634,"Delta":355768614},{"NoteNumber":69,"Velocity":41,"Duration":90634,"SoundDuration":90634,"Delta":355949883},{"NoteNumber":72,"Velocity":49,"Duration":90634,"SoundDuration":90634,"Delta":355949883},{"NoteNumber":53,"Velocity":39,"Duration":91743,"SoundDuration":91743,"Delta":356131152},{"NoteNumber":57,"Velocity":47,"Duration":91743,"SoundDuration":91743,"Delta":356131152},{"NoteNumber":65,"Velocity":38,"Duration":100671,"SoundDuration":100671,"Delta":356314638},{"NoteNumber":69,"Velocity":45,"Duration":100671,"SoundDuration":100671,"Delta":356314638},{"NoteNumber":65,"Velocity":72,"Duration":540817,"SoundDuration":540817,"Delta":356515981},{"NoteNumber":62,"Velocity":60,"Duration":540817,"SoundDuration":540817,"Delta":356515981},{"NoteNumber":74,"Velocity":60,"Duration":375527,"SoundDuration":375527,"Delta":356681270},{"NoteNumber":77,"Velocity":72,"Duration":375527,"SoundDuration":375527,"Delta":356681270},{"NoteNumber":74,"Velocity":47,"Duration":97719,"SoundDuration":97719,"Delta":357056798},{"NoteNumber":77,"Velocity":56,"Duration":97719,"SoundDuration":97719,"Delta":357056798},{"NoteNumber":62,"Velocity":40,"Duration":97719,"SoundDuration":97719,"Delta":357056798},{"NoteNumber":65,"Velocity":48,"Duration":97719,"SoundDuration":97719,"Delta":357056798},{"NoteNumber":58,"Velocity":49,"Duration":90634,"SoundDuration":90634,"Delta":357252238},{"NoteNumber":62,"Velocity":58,"Duration":90634,"SoundDuration":90634,"Delta":357252238},{"NoteNumber":70,"Velocity":45,"Duration":90634,"SoundDuration":90634,"Delta":357433507},{"NoteNumber":74,"Velocity":53,"Duration":90634,"SoundDuration":90634,"Delta":357433507},{"NoteNumber":55,"Velocity":42,"Duration":91463,"SoundDuration":91463,"Delta":357614776},{"NoteNumber":58,"Velocity":51,"Duration":91463,"SoundDuration":91463,"Delta":357614776},{"NoteNumber":67,"Velocity":41,"Duration":102040,"SoundDuration":102040,"Delta":357797703},{"NoteNumber":70,"Velocity":49,"Duration":102040,"SoundDuration":102040,"Delta":357797703},{"NoteNumber":67,"Velocity":75,"Duration":536409,"SoundDuration":536409,"Delta":358001784},{"NoteNumber":63,"Velocity":62,"Duration":536409,"SoundDuration":536409,"Delta":358001784},{"NoteNumber":75,"Velocity":68,"Duration":371119,"SoundDuration":371119,"Delta":358167074},{"NoteNumber":79,"Velocity":84,"Duration":371119,"SoundDuration":371119,"Delta":358167074},{"NoteNumber":74,"Velocity":49,"Duration":97719,"SoundDuration":97719,"Delta":358538194},{"NoteNumber":77,"Velocity":58,"Duration":97719,"SoundDuration":97719,"Delta":358538194},{"NoteNumber":62,"Velocity":42,"Duration":97719,"SoundDuration":97719,"Delta":358538194},{"NoteNumber":65,"Velocity":50,"Duration":97719,"SoundDuration":97719,"Delta":358538194},{"NoteNumber":60,"Velocity":51,"Duration":90634,"SoundDuration":90634,"Delta":358733633},{"NoteNumber":63,"Velocity":60,"Duration":90634,"SoundDuration":90634,"Delta":358733633},{"NoteNumber":72,"Velocity":47,"Duration":90634,"SoundDuration":90634,"Delta":358914902},{"NoteNumber":75,"Velocity":55,"Duration":90634,"SoundDuration":90634,"Delta":358914902},{"NoteNumber":57,"Velocity":44,"Duration":91743,"SoundDuration":91743,"Delta":359096171},{"NoteNumber":60,"Velocity":53,"Duration":91743,"SoundDuration":91743,"Delta":359096171},{"NoteNumber":69,"Velocity":43,"Duration":106006,"SoundDuration":106006,"Delta":359279657},{"NoteNumber":72,"Velocity":51,"Duration":106006,"SoundDuration":106006,"Delta":359279657},{"NoteNumber":72,"Velocity":79,"Duration":540817,"SoundDuration":540817,"Delta":359491671},{"NoteNumber":63,"Velocity":66,"Duration":540817,"SoundDuration":540817,"Delta":359491671},{"NoteNumber":75,"Velocity":75,"Duration":375527,"SoundDuration":375527,"Delta":359656961},{"NoteNumber":84,"Velocity":93,"Duration":375527,"SoundDuration":375527,"Delta":359656961},{"NoteNumber":74,"Velocity":56,"Duration":105263,"SoundDuration":105263,"Delta":360032489},{"NoteNumber":82,"Velocity":67,"Duration":105263,"SoundDuration":105263,"Delta":360032489},{"NoteNumber":62,"Velocity":44,"Duration":105263,"SoundDuration":105263,"Delta":360032489},{"NoteNumber":70,"Velocity":52,"Duration":105263,"SoundDuration":105263,"Delta":360032489},{"NoteNumber":69,"Velocity":79,"Duration":540817,"SoundDuration":540817,"Delta":360243015},{"NoteNumber":60,"Velocity":66,"Duration":540817,"SoundDuration":540817,"Delta":360243015},{"NoteNumber":72,"Velocity":71,"Duration":375527,"SoundDuration":375527,"Delta":360408305},{"NoteNumber":81,"Velocity":82,"Duration":375527,"SoundDuration":375527,"Delta":360408305},{"NoteNumber":70,"Velocity":56,"Duration":97719,"SoundDuration":97719,"Delta":360783833},{"NoteNumber":79,"Velocity":67,"Duration":97719,"SoundDuration":97719,"Delta":360783833},{"NoteNumber":58,"Velocity":44,"Duration":97719,"SoundDuration":97719,"Delta":360783833},{"NoteNumber":67,"Velocity":52,"Duration":97719,"SoundDuration":97719,"Delta":360783833},{"NoteNumber":57,"Velocity":49,"Duration":101009,"SoundDuration":101009,"Delta":360979272},{"NoteNumber":65,"Velocity":58,"Duration":101009,"SoundDuration":101009,"Delta":360979272},{"NoteNumber":69,"Velocity":44,"Duration":101009,"SoundDuration":101009,"Delta":361181292},{"NoteNumber":77,"Velocity":52,"Duration":101009,"SoundDuration":101009,"Delta":361181292},{"NoteNumber":55,"Velocity":40,"Duration":106647,"SoundDuration":106647,"Delta":361383312},{"NoteNumber":58,"Velocity":49,"Duration":106647,"SoundDuration":106647,"Delta":361383312},{"NoteNumber":63,"Velocity":39,"Duration":109090,"SoundDuration":109090,"Delta":361596608},{"NoteNumber":75,"Velocity":46,"Duration":109090,"SoundDuration":109090,"Delta":361596608},{"NoteNumber":74,"Velocity":54,"Duration":98039,"SoundDuration":98039,"Delta":361814790},{"NoteNumber":54,"Velocity":34,"Duration":1570740,"SoundDuration":1570740,"Delta":361814790},{"NoteNumber":57,"Velocity":34,"Duration":1570740,"SoundDuration":1570740,"Delta":361814790},{"NoteNumber":60,"Velocity":40,"Duration":1570740,"SoundDuration":1570740,"Delta":361814790},{"NoteNumber":62,"Velocity":46,"Duration":98039,"SoundDuration":98039,"Delta":361912829},{"NoteNumber":66,"Velocity":43,"Duration":98039,"SoundDuration":98039,"Delta":362010868},{"NoteNumber":69,"Velocity":43,"Duration":98039,"SoundDuration":98039,"Delta":362108908},{"NoteNumber":74,"Velocity":53,"Duration":97935,"SoundDuration":97935,"Delta":362206947},{"NoteNumber":78,"Velocity":42,"Duration":97616,"SoundDuration":97616,"Delta":362304882},{"NoteNumber":81,"Velocity":42,"Duration":97300,"SoundDuration":97300,"Delta":362402499},{"NoteNumber":85,"Velocity":42,"Duration":96985,"SoundDuration":96985,"Delta":362499799},{"NoteNumber":86,"Velocity":49,"Duration":96673,"SoundDuration":96673,"Delta":362596785},{"NoteNumber":85,"Velocity":39,"Duration":96300,"SoundDuration":96300,"Delta":362693458},{"NoteNumber":86,"Velocity":42,"Duration":96416,"SoundDuration":96416,"Delta":362789759},{"NoteNumber":85,"Velocity":38,"Duration":96876,"SoundDuration":96876,"Delta":362886175},{"NoteNumber":86,"Velocity":48,"Duration":97315,"SoundDuration":97315,"Delta":362983052},{"NoteNumber":81,"Velocity":38,"Duration":97799,"SoundDuration":97799,"Delta":363080367},{"NoteNumber":78,"Velocity":38,"Duration":98272,"SoundDuration":98272,"Delta":363178167},{"NoteNumber":74,"Velocity":38,"Duration":109090,"SoundDuration":109090,"Delta":363276440},{"NoteNumber":55,"Velocity":34,"Duration":1558068,"SoundDuration":1558068,"Delta":363385531},{"NoteNumber":58,"Velocity":40,"Duration":1558068,"SoundDuration":1558068,"Delta":363385531},{"NoteNumber":62,"Velocity":46,"Duration":97363,"SoundDuration":97363,"Delta":363482933},{"NoteNumber":67,"Velocity":43,"Duration":97087,"SoundDuration":97087,"Delta":363580296},{"NoteNumber":70,"Velocity":43,"Duration":96860,"SoundDuration":96860,"Delta":363677384},{"NoteNumber":74,"Velocity":53,"Duration":96673,"SoundDuration":96673,"Delta":363774244},{"NoteNumber":79,"Velocity":42,"Duration":96462,"SoundDuration":96462,"Delta":363870917},{"NoteNumber":82,"Velocity":42,"Duration":96176,"SoundDuration":96176,"Delta":363967380},{"NoteNumber":85,"Velocity":42,"Duration":95992,"SoundDuration":95992,"Delta":364063557},{"NoteNumber":86,"Velocity":49,"Duration":95846,"SoundDuration":95846,"Delta":364159550},{"NoteNumber":85,"Velocity":39,"Duration":96069,"SoundDuration":96069,"Delta":364255396},{"NoteNumber":86,"Velocity":42,"Duration":96153,"SoundDuration":96153,"Delta":364351466},{"NoteNumber":85,"Velocity":38,"Duration":96439,"SoundDuration":96439,"Delta":364447619},{"NoteNumber":86,"Velocity":48,"Duration":96501,"SoundDuration":96501,"Delta":364544059},{"NoteNumber":82,"Velocity":38,"Duration":96774,"SoundDuration":96774,"Delta":364640561},{"NoteNumber":79,"Velocity":38,"Duration":96774,"SoundDuration":96774,"Delta":364737335},{"NoteNumber":74,"Velocity":38,"Duration":109488,"SoundDuration":109488,"Delta":364834110},{"NoteNumber":52,"Velocity":34,"Duration":1547621,"SoundDuration":1547621,"Delta":364943599},{"NoteNumber":55,"Velocity":40,"Duration":1547621,"SoundDuration":1547621,"Delta":364943599},{"NoteNumber":61,"Velocity":46,"Duration":96462,"SoundDuration":96462,"Delta":365040062},{"NoteNumber":64,"Velocity":43,"Duration":96463,"SoundDuration":96463,"Delta":365136525},{"NoteNumber":67,"Velocity":43,"Duration":95794,"SoundDuration":95794,"Delta":365232988},{"NoteNumber":70,"Velocity":50,"Duration":95541,"SoundDuration":95541,"Delta":365328783},{"NoteNumber":73,"Velocity":42,"Duration":95503,"SoundDuration":95503,"Delta":365424324},{"NoteNumber":76,"Velocity":42,"Duration":95237,"SoundDuration":95237,"Delta":365519828},{"NoteNumber":79,"Velocity":42,"Duration":95237,"SoundDuration":95237,"Delta":365615066},{"NoteNumber":82,"Velocity":49,"Duration":94922,"SoundDuration":94922,"Delta":365710304},{"NoteNumber":79,"Velocity":41,"Duration":94794,"SoundDuration":94794,"Delta":365805226},{"NoteNumber":85,"Velocity":48,"Duration":95094,"SoundDuration":95094,"Delta":365900021},{"NoteNumber":82,"Velocity":41,"Duration":95397,"SoundDuration":95397,"Delta":365995116},{"NoteNumber":79,"Velocity":48,"Duration":95701,"SoundDuration":95701,"Delta":366090513},{"NoteNumber":76,"Velocity":45,"Duration":96069,"SoundDuration":96069,"Delta":366186215},{"NoteNumber":73,"Velocity":42,"Duration":96153,"SoundDuration":96153,"Delta":366282284},{"NoteNumber":70,"Velocity":39,"Duration":112781,"SoundDuration":112781,"Delta":366378438},{"NoteNumber":51,"Velocity":57,"Duration":950918,"SoundDuration":950918,"Delta":366491220},{"NoteNumber":54,"Velocity":68,"Duration":950918,"SoundDuration":950918,"Delta":366491220},{"NoteNumber":57,"Velocity":48,"Duration":95767,"SoundDuration":95767,"Delta":366587400},{"NoteNumber":60,"Velocity":50,"Duration":95523,"SoundDuration":95523,"Delta":366683168},{"NoteNumber":63,"Velocity":51,"Duration":95237,"SoundDuration":95237,"Delta":366778692},{"NoteNumber":66,"Velocity":53,"Duration":94979,"SoundDuration":94979,"Delta":366873930},{"NoteNumber":69,"Velocity":55,"Duration":94679,"SoundDuration":94679,"Delta":366968910},{"NoteNumber":72,"Velocity":57,"Duration":94637,"SoundDuration":94637,"Delta":367063589},{"NoteNumber":75,"Velocity":59,"Duration":94637,"SoundDuration":94637,"Delta":367158226},{"NoteNumber":78,"Velocity":65,"Duration":94637,"SoundDuration":94637,"Delta":367252864},{"NoteNumber":81,"Velocity":57,"Duration":94637,"SoundDuration":94637,"Delta":367347501},{"NoteNumber":69,"Velocity":64,"Duration":91743,"SoundDuration":91743,"Delta":367442138},{"NoteNumber":51,"Velocity":50,"Duration":91743,"SoundDuration":91743,"Delta":367442138},{"NoteNumber":53,"Velocity":50,"Duration":91743,"SoundDuration":91743,"Delta":367442138},{"NoteNumber":60,"Velocity":60,"Duration":91743,"SoundDuration":91743,"Delta":367442138},{"NoteNumber":81,"Velocity":56,"Duration":91743,"SoundDuration":91743,"Delta":367533881},{"NoteNumber":69,"Velocity":64,"Duration":91743,"SoundDuration":91743,"Delta":367625624},{"NoteNumber":51,"Velocity":61,"Duration":91743,"SoundDuration":91743,"Delta":367625624},{"NoteNumber":53,"Velocity":61,"Duration":91743,"SoundDuration":91743,"Delta":367625624},{"NoteNumber":60,"Velocity":72,"Duration":91743,"SoundDuration":91743,"Delta":367625624},{"NoteNumber":81,"Velocity":58,"Duration":91742,"SoundDuration":91742,"Delta":367717367},{"NoteNumber":69,"Velocity":64,"Duration":91743,"SoundDuration":91743,"Delta":367809110},{"NoteNumber":51,"Velocity":51,"Duration":91743,"SoundDuration":91743,"Delta":367809110},{"NoteNumber":53,"Velocity":51,"Duration":91743,"SoundDuration":91743,"Delta":367809110},{"NoteNumber":60,"Velocity":61,"Duration":91743,"SoundDuration":91743,"Delta":367809110},{"NoteNumber":81,"Velocity":59,"Duration":97719,"SoundDuration":97719,"Delta":367900853},{"NoteNumber":70,"Velocity":74,"Duration":91743,"SoundDuration":91743,"Delta":367998573},{"NoteNumber":50,"Velocity":73,"Duration":366971,"SoundDuration":366971,"Delta":367998573},{"NoteNumber":53,"Velocity":73,"Duration":366971,"SoundDuration":366971,"Delta":367998573},{"NoteNumber":58,"Velocity":73,"Duration":366971,"SoundDuration":366971,"Delta":367998573},{"NoteNumber":82,"Velocity":59,"Duration":91743,"SoundDuration":91743,"Delta":368090316},{"NoteNumber":69,"Velocity":67,"Duration":91743,"SoundDuration":91743,"Delta":368182059},{"NoteNumber":81,"Velocity":54,"Duration":91742,"SoundDuration":91742,"Delta":368273802},{"NoteNumber":70,"Velocity":66,"Duration":91743,"SoundDuration":91743,"Delta":368365545},{"NoteNumber":82,"Velocity":57,"Duration":91743,"SoundDuration":91743,"Delta":368457288},{"NoteNumber":63,"Velocity":59,"Duration":91743,"SoundDuration":91743,"Delta":368549031},{"NoteNumber":45,"Velocity":57,"Duration":91743,"SoundDuration":91743,"Delta":368549031},{"NoteNumber":53,"Velocity":68,"Duration":91743,"SoundDuration":91743,"Delta":368549031},{"NoteNumber":75,"Velocity":50,"Duration":98039,"SoundDuration":98039,"Delta":368640774},{"NoteNumber":62,"Velocity":79,"Duration":91463,"SoundDuration":91463,"Delta":368738813},{"NoteNumber":46,"Velocity":63,"Duration":91463,"SoundDuration":91463,"Delta":368738813},{"NoteNumber":53,"Velocity":75,"Duration":91463,"SoundDuration":91463,"Delta":368738813},{"NoteNumber":74,"Velocity":54,"Duration":91463,"SoundDuration":91463,"Delta":368830277},{"NoteNumber":69,"Velocity":65,"Duration":91463,"SoundDuration":91463,"Delta":368921740},{"NoteNumber":51,"Velocity":56,"Duration":91463,"SoundDuration":91463,"Delta":368921740},{"NoteNumber":53,"Velocity":67,"Duration":91463,"SoundDuration":91463,"Delta":368921740},{"NoteNumber":81,"Velocity":57,"Duration":91463,"SoundDuration":91463,"Delta":369013204},{"NoteNumber":70,"Velocity":68,"Duration":91463,"SoundDuration":91463,"Delta":369104667},{"NoteNumber":50,"Velocity":63,"Duration":91463,"SoundDuration":91463,"Delta":369104667},{"NoteNumber":53,"Velocity":75,"Duration":91463,"SoundDuration":91463,"Delta":369104667},{"NoteNumber":82,"Velocity":60,"Duration":91463,"SoundDuration":91463,"Delta":369196131},{"NoteNumber":63,"Velocity":67,"Duration":91463,"SoundDuration":91463,"Delta":369287594},{"NoteNumber":45,"Velocity":56,"Duration":91463,"SoundDuration":91463,"Delta":369287594},{"NoteNumber":53,"Velocity":67,"Duration":91463,"SoundDuration":91463,"Delta":369287594},{"NoteNumber":75,"Velocity":58,"Duration":95846,"SoundDuration":95846,"Delta":369379058},{"NoteNumber":62,"Velocity":81,"Duration":91463,"SoundDuration":91463,"Delta":369474904},{"NoteNumber":46,"Velocity":63,"Duration":91463,"SoundDuration":91463,"Delta":369474904},{"NoteNumber":53,"Velocity":75,"Duration":91463,"SoundDuration":91463,"Delta":369474904},{"NoteNumber":74,"Velocity":58,"Duration":91463,"SoundDuration":91463,"Delta":369566368},{"NoteNumber":69,"Velocity":64,"Duration":91463,"SoundDuration":91463,"Delta":369657831},{"NoteNumber":51,"Velocity":56,"Duration":91463,"SoundDuration":91463,"Delta":369657831},{"NoteNumber":53,"Velocity":67,"Duration":91463,"SoundDuration":91463,"Delta":369657831},{"NoteNumber":81,"Velocity":59,"Duration":91463,"SoundDuration":91463,"Delta":369749295},{"NoteNumber":70,"Velocity":67,"Duration":91463,"SoundDuration":91463,"Delta":369840758},{"NoteNumber":50,"Velocity":63,"Duration":91463,"SoundDuration":91463,"Delta":369840758},{"NoteNumber":53,"Velocity":75,"Duration":91463,"SoundDuration":91463,"Delta":369840758},{"NoteNumber":82,"Velocity":55,"Duration":91463,"SoundDuration":91463,"Delta":369932222},{"NoteNumber":63,"Velocity":62,"Duration":91463,"SoundDuration":91463,"Delta":370023685},{"NoteNumber":45,"Velocity":56,"Duration":91463,"SoundDuration":91463,"Delta":370023685},{"NoteNumber":53,"Velocity":67,"Duration":91463,"SoundDuration":91463,"Delta":370023685},{"NoteNumber":75,"Velocity":51,"Duration":98039,"SoundDuration":98039,"Delta":370115149},{"NoteNumber":62,"Velocity":72,"Duration":91463,"SoundDuration":91463,"Delta":370213188},{"NoteNumber":46,"Velocity":63,"Duration":91463,"SoundDuration":91463,"Delta":370213188},{"NoteNumber":53,"Velocity":75,"Duration":91463,"SoundDuration":91463,"Delta":370213188},{"NoteNumber":74,"Velocity":52,"Duration":91463,"SoundDuration":91463,"Delta":370304652},{"NoteNumber":69,"Velocity":64,"Duration":91463,"SoundDuration":91463,"Delta":370396115},{"NoteNumber":51,"Velocity":56,"Duration":91463,"SoundDuration":91463,"Delta":370396115},{"NoteNumber":53,"Velocity":67,"Duration":91463,"SoundDuration":91463,"Delta":370396115},{"NoteNumber":81,"Velocity":54,"Duration":91463,"SoundDuration":91463,"Delta":370487579},{"NoteNumber":70,"Velocity":64,"Duration":90552,"SoundDuration":90552,"Delta":370579042},{"NoteNumber":50,"Velocity":63,"Duration":90552,"SoundDuration":90552,"Delta":370579042},{"NoteNumber":53,"Velocity":75,"Duration":90552,"SoundDuration":90552,"Delta":370579042},{"NoteNumber":82,"Velocity":51,"Duration":90552,"SoundDuration":90552,"Delta":370669594},{"NoteNumber":63,"Velocity":60,"Duration":90552,"SoundDuration":90552,"Delta":370760147},{"NoteNumber":45,"Velocity":57,"Duration":90552,"SoundDuration":90552,"Delta":370760147},{"NoteNumber":53,"Velocity":68,"Duration":90552,"SoundDuration":90552,"Delta":370760147},{"NoteNumber":75,"Velocity":51,"Duration":99010,"SoundDuration":99010,"Delta":370850699},{"NoteNumber":62,"Velocity":83,"Duration":91463,"SoundDuration":91463,"Delta":370949709},{"NoteNumber":46,"Velocity":89,"Duration":734881,"SoundDuration":734881,"Delta":370949709},{"NoteNumber":74,"Velocity":53,"Duration":91463,"SoundDuration":91463,"Delta":371041172},{"NoteNumber":69,"Velocity":62,"Duration":91463,"SoundDuration":91463,"Delta":371132636},{"NoteNumber":81,"Velocity":54,"Duration":91463,"SoundDuration":91463,"Delta":371224099},{"NoteNumber":70,"Velocity":62,"Duration":91463,"SoundDuration":91463,"Delta":371315563},{"NoteNumber":82,"Velocity":54,"Duration":91463,"SoundDuration":91463,"Delta":371407026},{"NoteNumber":69,"Velocity":62,"Duration":91463,"SoundDuration":91463,"Delta":371498490},{"NoteNumber":81,"Velocity":53,"Duration":94637,"SoundDuration":94637,"Delta":371589953},{"NoteNumber":67,"Velocity":81,"Duration":91185,"SoundDuration":91185,"Delta":371684591},{"NoteNumber":43,"Velocity":80,"Duration":730517,"SoundDuration":730517,"Delta":371684591},{"NoteNumber":79,"Velocity":53,"Duration":91185,"SoundDuration":91185,"Delta":371775776},{"NoteNumber":65,"Velocity":60,"Duration":91185,"SoundDuration":91185,"Delta":371866962},{"NoteNumber":77,"Velocity":52,"Duration":91185,"SoundDuration":91185,"Delta":371958147},{"NoteNumber":63,"Velocity":59,"Duration":90279,"SoundDuration":90279,"Delta":372049333},{"NoteNumber":75,"Velocity":52,"Duration":90279,"SoundDuration":90279,"Delta":372139612},{"NoteNumber":62,"Velocity":59,"Duration":90279,"SoundDuration":90279,"Delta":372229892},{"NoteNumber":74,"Velocity":50,"Duration":94936,"SoundDuration":94936,"Delta":372320172},{"NoteNumber":60,"Velocity":79,"Duration":91463,"SoundDuration":91463,"Delta":372415109},{"NoteNumber":39,"Velocity":88,"Duration":738928,"SoundDuration":738928,"Delta":372415109},{"NoteNumber":72,"Velocity":50,"Duration":91463,"SoundDuration":91463,"Delta":372506572},{"NoteNumber":58,"Velocity":59,"Duration":91463,"SoundDuration":91463,"Delta":372598036},{"NoteNumber":70,"Velocity":49,"Duration":91463,"SoundDuration":91463,"Delta":372689499},{"NoteNumber":57,"Velocity":59,"Duration":91463,"SoundDuration":91463,"Delta":372780963},{"NoteNumber":69,"Velocity":49,"Duration":91463,"SoundDuration":91463,"Delta":372872426},{"NoteNumber":55,"Velocity":59,"Duration":91463,"SoundDuration":91463,"Delta":372963890},{"NoteNumber":67,"Velocity":51,"Duration":98684,"SoundDuration":98684,"Delta":373055353},{"NoteNumber":53,"Velocity":79,"Duration":92024,"SoundDuration":92024,"Delta":373154037},{"NoteNumber":41,"Velocity":84,"Duration":752867,"SoundDuration":752867,"Delta":373154037},{"NoteNumber":65,"Velocity":49,"Duration":92024,"SoundDuration":92024,"Delta":373246062},{"NoteNumber":51,"Velocity":59,"Duration":92024,"SoundDuration":92024,"Delta":373338086},{"NoteNumber":63,"Velocity":50,"Duration":92024,"SoundDuration":92024,"Delta":373430111},{"NoteNumber":50,"Velocity":59,"Duration":92024,"SoundDuration":92024,"Delta":373522135},{"NoteNumber":62,"Velocity":48,"Duration":92024,"SoundDuration":92024,"Delta":373614160},{"NoteNumber":48,"Velocity":58,"Duration":92024,"SoundDuration":92024,"Delta":373706184},{"NoteNumber":60,"Velocity":49,"Duration":108695,"SoundDuration":108695,"Delta":373798209},{"NoteNumber":58,"Velocity":76,"Duration":92307,"SoundDuration":92307,"Delta":373906905},{"NoteNumber":46,"Velocity":64,"Duration":92307,"SoundDuration":92307,"Delta":373906905},{"NoteNumber":34,"Velocity":81,"Duration":92307,"SoundDuration":92307,"Delta":373906905},{"NoteNumber":57,"Velocity":49,"Duration":92307,"SoundDuration":92307,"Delta":374091520},{"NoteNumber":51,"Velocity":54,"Duration":92307,"SoundDuration":92307,"Delta":374091520},{"NoteNumber":53,"Velocity":42,"Duration":92307,"SoundDuration":92307,"Delta":374183828},{"NoteNumber":58,"Velocity":49,"Duration":91185,"SoundDuration":91185,"Delta":374276136},{"NoteNumber":50,"Velocity":60,"Duration":91185,"SoundDuration":91185,"Delta":374276136},{"NoteNumber":53,"Velocity":41,"Duration":91185,"SoundDuration":91185,"Delta":374367321},{"NoteNumber":63,"Velocity":49,"Duration":91185,"SoundDuration":91185,"Delta":374458507},{"NoteNumber":45,"Velocity":54,"Duration":91185,"SoundDuration":91185,"Delta":374458507},{"NoteNumber":53,"Velocity":42,"Duration":91185,"SoundDuration":91185,"Delta":374549692},{"NoteNumber":62,"Velocity":49,"Duration":91185,"SoundDuration":91185,"Delta":374640878},{"NoteNumber":46,"Velocity":60,"Duration":91185,"SoundDuration":91185,"Delta":374640878},{"NoteNumber":53,"Velocity":41,"Duration":91185,"SoundDuration":91185,"Delta":374732063},{"NoteNumber":57,"Velocity":49,"Duration":91185,"SoundDuration":91185,"Delta":374823249},{"NoteNumber":51,"Velocity":52,"Duration":91185,"SoundDuration":91185,"Delta":374823249},{"NoteNumber":53,"Velocity":42,"Duration":91185,"SoundDuration":91185,"Delta":374914434},{"NoteNumber":58,"Velocity":49,"Duration":91185,"SoundDuration":91185,"Delta":375005620},{"NoteNumber":50,"Velocity":60,"Duration":91185,"SoundDuration":91185,"Delta":375005620},{"NoteNumber":53,"Velocity":43,"Duration":91185,"SoundDuration":91185,"Delta":375096805},{"NoteNumber":63,"Velocity":49,"Duration":91185,"SoundDuration":91185,"Delta":375187991},{"NoteNumber":45,"Velocity":58,"Duration":91185,"SoundDuration":91185,"Delta":375187991},{"NoteNumber":53,"Velocity":40,"Duration":91185,"SoundDuration":91185,"Delta":375279176},{"NoteNumber":62,"Velocity":49,"Duration":92024,"SoundDuration":92024,"Delta":375370362},{"NoteNumber":46,"Velocity":60,"Duration":92024,"SoundDuration":92024,"Delta":375370362},{"NoteNumber":53,"Velocity":41,"Duration":92024,"SoundDuration":92024,"Delta":375462386},{"NoteNumber":57,"Velocity":49,"Duration":92024,"SoundDuration":92024,"Delta":375554411},{"NoteNumber":51,"Velocity":52,"Duration":92024,"SoundDuration":92024,"Delta":375554411},{"NoteNumber":53,"Velocity":42,"Duration":92024,"SoundDuration":92024,"Delta":375646435},{"NoteNumber":58,"Velocity":49,"Duration":92024,"SoundDuration":92024,"Delta":375738460},{"NoteNumber":50,"Velocity":60,"Duration":92024,"SoundDuration":92024,"Delta":375738460},{"NoteNumber":53,"Velocity":43,"Duration":92024,"SoundDuration":92024,"Delta":375830484},{"NoteNumber":63,"Velocity":49,"Duration":92024,"SoundDuration":92024,"Delta":375922509},{"NoteNumber":45,"Velocity":58,"Duration":92024,"SoundDuration":92024,"Delta":375922509},{"NoteNumber":53,"Velocity":40,"Duration":92024,"SoundDuration":92024,"Delta":376014533},{"NoteNumber":62,"Velocity":56,"Duration":182370,"SoundDuration":182370,"Delta":376106558},{"NoteNumber":46,"Velocity":67,"Duration":91185,"SoundDuration":91185,"Delta":376106558},{"NoteNumber":54,"Velocity":60,"Duration":91185,"SoundDuration":91185,"Delta":376288929},{"NoteNumber":48,"Velocity":59,"Duration":91185,"SoundDuration":91185,"Delta":376288929},{"NoteNumber":66,"Velocity":52,"Duration":91185,"SoundDuration":91185,"Delta":376380114},{"NoteNumber":55,"Velocity":61,"Duration":91185,"SoundDuration":91185,"Delta":376471300},{"NoteNumber":46,"Velocity":72,"Duration":91185,"SoundDuration":91185,"Delta":376471300},{"NoteNumber":67,"Velocity":49,"Duration":91185,"SoundDuration":91185,"Delta":376562485},{"NoteNumber":57,"Velocity":67,"Duration":91185,"SoundDuration":91185,"Delta":376653671},{"NoteNumber":45,"Velocity":67,"Duration":91185,"SoundDuration":91185,"Delta":376653671},{"NoteNumber":69,"Velocity":60,"Duration":91743,"SoundDuration":91743,"Delta":376744856},{"NoteNumber":58,"Velocity":71,"Duration":91743,"SoundDuration":91743,"Delta":376836599},{"NoteNumber":43,"Velocity":75,"Duration":91743,"SoundDuration":91743,"Delta":376836599},{"NoteNumber":70,"Velocity":62,"Duration":91743,"SoundDuration":91743,"Delta":376928342},{"NoteNumber":59,"Velocity":70,"Duration":91742,"SoundDuration":91742,"Delta":377020085},{"NoteNumber":41,"Velocity":77,"Duration":91742,"SoundDuration":91742,"Delta":377020085},{"NoteNumber":71,"Velocity":64,"Duration":91743,"SoundDuration":91743,"Delta":377111828},{"NoteNumber":60,"Velocity":70,"Duration":91743,"SoundDuration":91743,"Delta":377203571},{"NoteNumber":39,"Velocity":80,"Duration":91743,"SoundDuration":91743,"Delta":377203571},{"NoteNumber":72,"Velocity":64,"Duration":91743,"SoundDuration":91743,"Delta":377295314},{"NoteNumber":62,"Velocity":74,"Duration":91743,"SoundDuration":91743,"Delta":377387057},{"NoteNumber":38,"Velocity":82,"Duration":91743,"SoundDuration":91743,"Delta":377387057},{"NoteNumber":74,"Velocity":65,"Duration":91743,"SoundDuration":91743,"Delta":377478800},{"NoteNumber":63,"Velocity":82,"Duration":91743,"SoundDuration":91743,"Delta":377570543},{"NoteNumber":36,"Velocity":94,"Duration":1466247,"SoundDuration":1466247,"Delta":377570543},{"NoteNumber":75,"Velocity":71,"Duration":91742,"SoundDuration":91742,"Delta":377662286},{"NoteNumber":65,"Velocity":79,"Duration":91743,"SoundDuration":91743,"Delta":377754029},{"NoteNumber":77,"Velocity":70,"Duration":91743,"SoundDuration":91743,"Delta":377845772},{"NoteNumber":67,"Velocity":83,"Duration":91743,"SoundDuration":91743,"Delta":377937515},{"NoteNumber":79,"Velocity":72,"Duration":91743,"SoundDuration":91743,"Delta":378029258},{"NoteNumber":65,"Velocity":81,"Duration":91743,"SoundDuration":91743,"Delta":378121001},{"NoteNumber":77,"Velocity":69,"Duration":96774,"SoundDuration":96774,"Delta":378212744},{"NoteNumber":63,"Velocity":84,"Duration":90909,"SoundDuration":90909,"Delta":378309518},{"NoteNumber":75,"Velocity":69,"Duration":90909,"SoundDuration":90909,"Delta":378400427},{"NoteNumber":62,"Velocity":81,"Duration":90908,"SoundDuration":90908,"Delta":378491336},{"NoteNumber":74,"Velocity":69,"Duration":90909,"SoundDuration":90909,"Delta":378582245},{"NoteNumber":60,"Velocity":79,"Duration":90909,"SoundDuration":90909,"Delta":378673154},{"NoteNumber":72,"Velocity":69,"Duration":90909,"SoundDuration":90909,"Delta":378764063},{"NoteNumber":58,"Velocity":78,"Duration":90909,"SoundDuration":90909,"Delta":378854972},{"NoteNumber":70,"Velocity":65,"Duration":90909,"SoundDuration":90909,"Delta":378945881},{"NoteNumber":57,"Velocity":79,"Duration":91743,"SoundDuration":91743,"Delta":379036790},{"NoteNumber":29,"Velocity":73,"Duration":739173,"SoundDuration":739173,"Delta":379036790},{"NoteNumber":41,"Velocity":87,"Duration":739173,"SoundDuration":739173,"Delta":379036790},{"NoteNumber":69,"Velocity":69,"Duration":91743,"SoundDuration":91743,"Delta":379128533},{"NoteNumber":55,"Velocity":77,"Duration":91743,"SoundDuration":91743,"Delta":379220276},{"NoteNumber":67,"Velocity":65,"Duration":95846,"SoundDuration":95846,"Delta":379312019},{"NoteNumber":53,"Velocity":77,"Duration":92024,"SoundDuration":92024,"Delta":379407866},{"NoteNumber":65,"Velocity":67,"Duration":92024,"SoundDuration":92024,"Delta":379499891},{"NoteNumber":57,"Velocity":75,"Duration":92024,"SoundDuration":92024,"Delta":379591915},{"NoteNumber":69,"Velocity":66,"Duration":92024,"SoundDuration":92024,"Delta":379683940},{"NoteNumber":70,"Velocity":79,"Duration":368098,"SoundDuration":368098,"Delta":379775964},{"NoteNumber":58,"Velocity":79,"Duration":368098,"SoundDuration":368098,"Delta":379775964},{"NoteNumber":34,"Velocity":30,"Duration":92024,"SoundDuration":92024,"Delta":379775964},{"NoteNumber":46,"Velocity":26,"Duration":92024,"SoundDuration":92024,"Delta":379867989},{"NoteNumber":34,"Velocity":30,"Duration":92024,"SoundDuration":92024,"Delta":379960013},{"NoteNumber":46,"Velocity":25,"Duration":92024,"SoundDuration":92024,"Delta":380052038},{"NoteNumber":34,"Velocity":30,"Duration":92024,"SoundDuration":92024,"Delta":380144062},{"NoteNumber":46,"Velocity":26,"Duration":92024,"SoundDuration":92024,"Delta":380236087},{"NoteNumber":34,"Velocity":30,"Duration":92024,"SoundDuration":92024,"Delta":380328111},{"NoteNumber":46,"Velocity":27,"Duration":92024,"SoundDuration":92024,"Delta":380420136},{"NoteNumber":65,"Velocity":40,"Duration":750360,"SoundDuration":750360,"Delta":380512160},{"NoteNumber":62,"Velocity":34,"Duration":750360,"SoundDuration":750360,"Delta":380512160},{"NoteNumber":34,"Velocity":30,"Duration":92592,"SoundDuration":92592,"Delta":380512160},{"NoteNumber":46,"Velocity":27,"Duration":92592,"SoundDuration":92592,"Delta":380604753},{"NoteNumber":34,"Velocity":30,"Duration":92592,"SoundDuration":92592,"Delta":380697345},{"NoteNumber":46,"Velocity":25,"Duration":92592,"SoundDuration":92592,"Delta":380789938},{"NoteNumber":34,"Velocity":30,"Duration":92592,"SoundDuration":92592,"Delta":380882530},{"NoteNumber":46,"Velocity":26,"Duration":92592,"SoundDuration":92592,"Delta":380975123},{"NoteNumber":58,"Velocity":39,"Duration":194804,"SoundDuration":194804,"Delta":381067715},{"NoteNumber":34,"Velocity":30,"Duration":97402,"SoundDuration":97402,"Delta":381067715},{"NoteNumber":46,"Velocity":26,"Duration":97402,"SoundDuration":97402,"Delta":381165118},{"NoteNumber":66,"Velocity":46,"Duration":741891,"SoundDuration":741891,"Delta":381262520},{"NoteNumber":63,"Velocity":39,"Duration":741891,"SoundDuration":741891,"Delta":381262520},{"NoteNumber":34,"Velocity":30,"Duration":92024,"SoundDuration":92024,"Delta":381262520},{"NoteNumber":46,"Velocity":26,"Duration":92024,"SoundDuration":92024,"Delta":381354545},{"NoteNumber":34,"Velocity":30,"Duration":92024,"SoundDuration":92024,"Delta":381446569},{"NoteNumber":46,"Velocity":25,"Duration":92024,"SoundDuration":92024,"Delta":381538594},{"NoteNumber":34,"Velocity":30,"Duration":92024,"SoundDuration":92024,"Delta":381630618},{"NoteNumber":46,"Velocity":26,"Duration":92024,"SoundDuration":92024,"Delta":381722643},{"NoteNumber":61,"Velocity":40,"Duration":189744,"SoundDuration":189744,"Delta":381814667},{"NoteNumber":34,"Velocity":30,"Duration":92024,"SoundDuration":92024,"Delta":381814667},{"NoteNumber":46,"Velocity":27,"Duration":97719,"SoundDuration":97719,"Delta":381906692},{"NoteNumber":66,"Velocity":32,"Duration":365854,"SoundDuration":365854,"Delta":382004411},{"NoteNumber":63,"Velocity":32,"Duration":365854,"SoundDuration":365854,"Delta":382004411},{"NoteNumber":59,"Velocity":45,"Duration":182927,"SoundDuration":182927,"Delta":382004411},{"NoteNumber":34,"Velocity":30,"Duration":91463,"SoundDuration":91463,"Delta":382004411},{"NoteNumber":46,"Velocity":27,"Duration":91463,"SoundDuration":91463,"Delta":382095875},{"NoteNumber":58,"Velocity":40,"Duration":182927,"SoundDuration":182927,"Delta":382187338},{"NoteNumber":34,"Velocity":30,"Duration":91463,"SoundDuration":91463,"Delta":382187338},{"NoteNumber":46,"Velocity":25,"Duration":91463,"SoundDuration":91463,"Delta":382278802},{"NoteNumber":66,"Velocity":33,"Duration":378366,"SoundDuration":378366,"Delta":382370265},{"NoteNumber":63,"Velocity":33,"Duration":378366,"SoundDuration":378366,"Delta":382370265},{"NoteNumber":59,"Velocity":46,"Duration":182927,"SoundDuration":182927,"Delta":382370265},{"NoteNumber":34,"Velocity":30,"Duration":91463,"SoundDuration":91463,"Delta":382370265},{"NoteNumber":46,"Velocity":26,"Duration":91463,"SoundDuration":91463,"Delta":382461729},{"NoteNumber":57,"Velocity":40,"Duration":195439,"SoundDuration":195439,"Delta":382553192},{"NoteNumber":34,"Velocity":30,"Duration":97719,"SoundDuration":97719,"Delta":382553192},{"NoteNumber":46,"Velocity":26,"Duration":97719,"SoundDuration":97719,"Delta":382650912},{"NoteNumber":65,"Velocity":46,"Duration":550457,"SoundDuration":550457,"Delta":382748632},{"NoteNumber":62,"Velocity":39,"Duration":550457,"SoundDuration":550457,"Delta":382748632},{"NoteNumber":58,"Velocity":39,"Duration":550457,"SoundDuration":550457,"Delta":382748632},{"NoteNumber":34,"Velocity":30,"Duration":91743,"SoundDuration":91743,"Delta":382748632},{"NoteNumber":46,"Velocity":26,"Duration":91743,"SoundDuration":91743,"Delta":382840375},{"NoteNumber":34,"Velocity":30,"Duration":91743,"SoundDuration":91743,"Delta":382932118},{"NoteNumber":46,"Velocity":25,"Duration":91742,"SoundDuration":91742,"Delta":383023861},{"NoteNumber":34,"Velocity":30,"Duration":91743,"SoundDuration":91743,"Delta":383115604},{"NoteNumber":46,"Velocity":26,"Duration":91743,"SoundDuration":91743,"Delta":383207347},{"NoteNumber":34,"Velocity":30,"Duration":91743,"SoundDuration":91743,"Delta":383299090},{"NoteNumber":46,"Velocity":27,"Duration":91743,"SoundDuration":91743,"Delta":383390833},{"NoteNumber":74,"Velocity":52,"Duration":555555,"SoundDuration":555555,"Delta":383482576},{"NoteNumber":65,"Velocity":52,"Duration":750360,"SoundDuration":750360,"Delta":383482576},{"NoteNumber":62,"Velocity":44,"Duration":750360,"SoundDuration":750360,"Delta":383482576},{"NoteNumber":34,"Velocity":30,"Duration":92592,"SoundDuration":92592,"Delta":383482576},{"NoteNumber":46,"Velocity":27,"Duration":92592,"SoundDuration":92592,"Delta":383575168},{"NoteNumber":34,"Velocity":35,"Duration":92592,"SoundDuration":92592,"Delta":383667761},{"NoteNumber":46,"Velocity":29,"Duration":92592,"SoundDuration":92592,"Delta":383760353},{"NoteNumber":34,"Velocity":34,"Duration":92592,"SoundDuration":92592,"Delta":383852946},{"NoteNumber":46,"Velocity":26,"Duration":92592,"SoundDuration":92592,"Delta":383945538},{"NoteNumber":70,"Velocity":50,"Duration":194804,"SoundDuration":194804,"Delta":384038131},{"NoteNumber":34,"Velocity":35,"Duration":97402,"SoundDuration":97402,"Delta":384038131},{"NoteNumber":46,"Velocity":31,"Duration":97402,"SoundDuration":97402,"Delta":384135533},{"NoteNumber":75,"Velocity":52,"Duration":552146,"SoundDuration":552146,"Delta":384232936},{"NoteNumber":66,"Velocity":59,"Duration":741891,"SoundDuration":741891,"Delta":384232936},{"NoteNumber":63,"Velocity":50,"Duration":741891,"SoundDuration":741891,"Delta":384232936},{"NoteNumber":34,"Velocity":38,"Duration":92024,"SoundDuration":92024,"Delta":384232936},{"NoteNumber":46,"Velocity":30,"Duration":92024,"SoundDuration":92024,"Delta":384324960},{"NoteNumber":34,"Velocity":34,"Duration":92024,"SoundDuration":92024,"Delta":384416985},{"NoteNumber":46,"Velocity":25,"Duration":92024,"SoundDuration":92024,"Delta":384509009},{"NoteNumber":34,"Velocity":33,"Duration":92024,"SoundDuration":92024,"Delta":384601034},{"NoteNumber":46,"Velocity":26,"Duration":92024,"SoundDuration":92024,"Delta":384693058},{"NoteNumber":73,"Velocity":52,"Duration":189744,"SoundDuration":189744,"Delta":384785083},{"NoteNumber":34,"Velocity":30,"Duration":92024,"SoundDuration":92024,"Delta":384785083},{"NoteNumber":46,"Velocity":27,"Duration":97719,"SoundDuration":97719,"Delta":384877107},{"NoteNumber":66,"Velocity":41,"Duration":365854,"SoundDuration":365854,"Delta":384974827},{"NoteNumber":63,"Velocity":41,"Duration":365854,"SoundDuration":365854,"Delta":384974827},{"NoteNumber":71,"Velocity":58,"Duration":182927,"SoundDuration":182927,"Delta":384974827},{"NoteNumber":34,"Velocity":30,"Duration":91463,"SoundDuration":91463,"Delta":384974827},{"NoteNumber":46,"Velocity":27,"Duration":91463,"SoundDuration":91463,"Delta":385066291},{"NoteNumber":70,"Velocity":52,"Duration":182927,"SoundDuration":182927,"Delta":385157754},{"NoteNumber":34,"Velocity":30,"Duration":91463,"SoundDuration":91463,"Delta":385157754},{"NoteNumber":46,"Velocity":25,"Duration":91463,"SoundDuration":91463,"Delta":385249218},{"NoteNumber":66,"Velocity":42,"Duration":378366,"SoundDuration":378366,"Delta":385340681},{"NoteNumber":63,"Velocity":42,"Duration":378366,"SoundDuration":378366,"Delta":385340681},{"NoteNumber":71,"Velocity":59,"Duration":182927,"SoundDuration":182927,"Delta":385340681},{"NoteNumber":34,"Velocity":30,"Duration":91463,"SoundDuration":91463,"Delta":385340681},{"NoteNumber":46,"Velocity":26,"Duration":91463,"SoundDuration":91463,"Delta":385432145},{"NoteNumber":69,"Velocity":52,"Duration":195439,"SoundDuration":195439,"Delta":385523608},{"NoteNumber":34,"Velocity":30,"Duration":97719,"SoundDuration":97719,"Delta":385523608},{"NoteNumber":46,"Velocity":26,"Duration":97719,"SoundDuration":97719,"Delta":385621328},{"NoteNumber":70,"Velocity":59,"Duration":550457,"SoundDuration":550457,"Delta":385719048},{"NoteNumber":65,"Velocity":50,"Duration":550457,"SoundDuration":550457,"Delta":385719048},{"NoteNumber":62,"Velocity":50,"Duration":550457,"SoundDuration":550457,"Delta":385719048},{"NoteNumber":34,"Velocity":30,"Duration":91743,"SoundDuration":91743,"Delta":385719048},{"NoteNumber":46,"Velocity":25,"Duration":91743,"SoundDuration":91743,"Delta":385810791},{"NoteNumber":34,"Velocity":29,"Duration":91743,"SoundDuration":91743,"Delta":385902534},{"NoteNumber":46,"Velocity":24,"Duration":91742,"SoundDuration":91742,"Delta":385994277},{"NoteNumber":34,"Velocity":28,"Duration":91743,"SoundDuration":91743,"Delta":386086020},{"NoteNumber":46,"Velocity":24,"Duration":91743,"SoundDuration":91743,"Delta":386177763},{"NoteNumber":34,"Velocity":28,"Duration":91743,"SoundDuration":91743,"Delta":386269506},{"NoteNumber":46,"Velocity":25,"Duration":91726,"SoundDuration":91726,"Delta":386361249},{"NoteNumber":66,"Velocity":37,"Duration":365854,"SoundDuration":365854,"Delta":386452975},{"NoteNumber":63,"Velocity":37,"Duration":365854,"SoundDuration":365854,"Delta":386452975},{"NoteNumber":72,"Velocity":53,"Duration":182927,"SoundDuration":182927,"Delta":386452975},{"NoteNumber":34,"Velocity":27,"Duration":91463,"SoundDuration":91463,"Delta":386452975},{"NoteNumber":46,"Velocity":24,"Duration":91463,"SoundDuration":91463,"Delta":386544439},{"NoteNumber":70,"Velocity":46,"Duration":182927,"SoundDuration":182927,"Delta":386635902},{"NoteNumber":34,"Velocity":27,"Duration":91463,"SoundDuration":91463,"Delta":386635902},{"NoteNumber":46,"Velocity":22,"Duration":91463,"SoundDuration":91463,"Delta":386727366},{"NoteNumber":66,"Velocity":36,"Duration":378382,"SoundDuration":378382,"Delta":386818829},{"NoteNumber":63,"Velocity":36,"Duration":378382,"SoundDuration":378382,"Delta":386818829},{"NoteNumber":72,"Velocity":51,"Duration":183291,"SoundDuration":183291,"Delta":386818829},{"NoteNumber":34,"Velocity":26,"Duration":91463,"SoundDuration":91463,"Delta":386818829},{"NoteNumber":46,"Velocity":22,"Duration":91828,"SoundDuration":91828,"Delta":386910293},{"NoteNumber":69,"Velocity":44,"Duration":195090,"SoundDuration":195090,"Delta":387002121},{"NoteNumber":34,"Velocity":25,"Duration":97719,"SoundDuration":97719,"Delta":387002121},{"NoteNumber":46,"Velocity":22,"Duration":97371,"SoundDuration":97371,"Delta":387099841},{"NoteNumber":70,"Velocity":49,"Duration":550457,"SoundDuration":550457,"Delta":387197212},{"NoteNumber":65,"Velocity":42,"Duration":550457,"SoundDuration":550457,"Delta":387197212},{"NoteNumber":62,"Velocity":42,"Duration":550457,"SoundDuration":550457,"Delta":387197212},{"NoteNumber":34,"Velocity":25,"Duration":91743,"SoundDuration":91743,"Delta":387197212},{"NoteNumber":46,"Velocity":21,"Duration":91743,"SoundDuration":91743,"Delta":387288955},{"NoteNumber":34,"Velocity":24,"Duration":91743,"SoundDuration":91743,"Delta":387380698},{"NoteNumber":46,"Velocity":20,"Duration":91743,"SoundDuration":91743,"Delta":387472441},{"NoteNumber":34,"Velocity":24,"Duration":91743,"SoundDuration":91743,"Delta":387564184},{"NoteNumber":46,"Velocity":20,"Duration":91742,"SoundDuration":91742,"Delta":387655927},{"NoteNumber":34,"Velocity":23,"Duration":91743,"SoundDuration":91743,"Delta":387747670},{"NoteNumber":46,"Velocity":20,"Duration":91743,"SoundDuration":91743,"Delta":387839413},{"NoteNumber":66,"Velocity":30,"Duration":365886,"SoundDuration":365886,"Delta":387931156},{"NoteNumber":63,"Velocity":30,"Duration":365886,"SoundDuration":365886,"Delta":387931156},{"NoteNumber":71,"Velocity":43,"Duration":182959,"SoundDuration":182959,"Delta":387931156},{"NoteNumber":34,"Velocity":22,"Duration":91496,"SoundDuration":91496,"Delta":387931156},{"NoteNumber":46,"Velocity":20,"Duration":91463,"SoundDuration":91463,"Delta":388022652},{"NoteNumber":70,"Velocity":39,"Duration":182927,"SoundDuration":182927,"Delta":388114116},{"NoteNumber":34,"Velocity":22,"Duration":91463,"SoundDuration":91463,"Delta":388114116},{"NoteNumber":46,"Velocity":18,"Duration":91463,"SoundDuration":91463,"Delta":388205579},{"NoteNumber":66,"Velocity":31,"Duration":374557,"SoundDuration":374557,"Delta":388297043},{"NoteNumber":63,"Velocity":31,"Duration":374557,"SoundDuration":374557,"Delta":388297043},{"NoteNumber":71,"Velocity":44,"Duration":180018,"SoundDuration":180018,"Delta":388297043},{"NoteNumber":34,"Velocity":22,"Duration":90009,"SoundDuration":90009,"Delta":388297043},{"NoteNumber":46,"Velocity":19,"Duration":90009,"SoundDuration":90009,"Delta":388387052},{"NoteNumber":69,"Velocity":39,"Duration":194539,"SoundDuration":194539,"Delta":388477061},{"NoteNumber":34,"Velocity":22,"Duration":96820,"SoundDuration":96820,"Delta":388477061},{"NoteNumber":46,"Velocity":19,"Duration":97719,"SoundDuration":97719,"Delta":388573881},{"NoteNumber":58,"Velocity":74,"Duration":551155,"SoundDuration":551155,"Delta":388671601},{"NoteNumber":70,"Velocity":88,"Duration":551155,"SoundDuration":551155,"Delta":388671601},{"NoteNumber":34,"Velocity":56,"Duration":551155,"SoundDuration":551155,"Delta":388671601},{"NoteNumber":46,"Velocity":66,"Duration":551155,"SoundDuration":551155,"Delta":388671601},{"NoteNumber":60,"Velocity":67,"Duration":99337,"SoundDuration":99337,"Delta":389222756},{"NoteNumber":72,"Velocity":79,"Duration":99337,"SoundDuration":99337,"Delta":389222756},{"NoteNumber":36,"Velocity":49,"Duration":99337,"SoundDuration":99337,"Delta":389222756},{"NoteNumber":48,"Velocity":59,"Duration":99337,"SoundDuration":99337,"Delta":389222756},{"NoteNumber":62,"Velocity":74,"Duration":548781,"SoundDuration":548781,"Delta":389421431},{"NoteNumber":74,"Velocity":89,"Duration":548781,"SoundDuration":548781,"Delta":389421431},{"NoteNumber":38,"Velocity":56,"Duration":548781,"SoundDuration":548781,"Delta":389421431},{"NoteNumber":50,"Velocity":66,"Duration":548781,"SoundDuration":548781,"Delta":389421431},{"NoteNumber":63,"Velocity":68,"Duration":98684,"SoundDuration":98684,"Delta":389970212},{"NoteNumber":75,"Velocity":81,"Duration":98684,"SoundDuration":98684,"Delta":389970212},{"NoteNumber":39,"Velocity":50,"Duration":98684,"SoundDuration":98684,"Delta":389970212},{"NoteNumber":51,"Velocity":60,"Duration":98684,"SoundDuration":98684,"Delta":389970212},{"NoteNumber":65,"Velocity":77,"Duration":547113,"SoundDuration":547113,"Delta":390167581},{"NoteNumber":77,"Velocity":91,"Duration":547113,"SoundDuration":547113,"Delta":390167581},{"NoteNumber":41,"Velocity":57,"Duration":547113,"SoundDuration":547113,"Delta":390167581},{"NoteNumber":53,"Velocity":68,"Duration":547113,"SoundDuration":547113,"Delta":390167581},{"NoteNumber":67,"Velocity":62,"Duration":98684,"SoundDuration":98684,"Delta":390714694},{"NoteNumber":79,"Velocity":74,"Duration":98684,"SoundDuration":98684,"Delta":390714694},{"NoteNumber":43,"Velocity":47,"Duration":98684,"SoundDuration":98684,"Delta":390714694},{"NoteNumber":55,"Velocity":56,"Duration":98684,"SoundDuration":98684,"Delta":390714694},{"NoteNumber":69,"Velocity":71,"Duration":91463,"SoundDuration":91463,"Delta":390912062},{"NoteNumber":81,"Velocity":84,"Duration":91463,"SoundDuration":91463,"Delta":390912062},{"NoteNumber":45,"Velocity":53,"Duration":91463,"SoundDuration":91463,"Delta":390912062},{"NoteNumber":57,"Velocity":63,"Duration":91463,"SoundDuration":91463,"Delta":390912062},{"NoteNumber":70,"Velocity":68,"Duration":91463,"SoundDuration":91463,"Delta":391094989},{"NoteNumber":82,"Velocity":81,"Duration":91463,"SoundDuration":91463,"Delta":391094989},{"NoteNumber":46,"Velocity":50,"Duration":91463,"SoundDuration":91463,"Delta":391094989},{"NoteNumber":58,"Velocity":60,"Duration":91463,"SoundDuration":91463,"Delta":391094989},{"NoteNumber":72,"Velocity":74,"Duration":91463,"SoundDuration":91463,"Delta":391277916},{"NoteNumber":84,"Velocity":87,"Duration":91463,"SoundDuration":91463,"Delta":391277916},{"NoteNumber":48,"Velocity":55,"Duration":91463,"SoundDuration":91463,"Delta":391277916},{"NoteNumber":60,"Velocity":65,"Duration":91463,"SoundDuration":91463,"Delta":391277916},{"NoteNumber":74,"Velocity":69,"Duration":111110,"SoundDuration":111110,"Delta":391460843},{"NoteNumber":86,"Velocity":83,"Duration":111110,"SoundDuration":111110,"Delta":391460843},{"NoteNumber":50,"Velocity":51,"Duration":111110,"SoundDuration":111110,"Delta":391460843},{"NoteNumber":62,"Velocity":61,"Duration":111110,"SoundDuration":111110,"Delta":391460843},{"NoteNumber":75,"Velocity":81,"Duration":551155,"SoundDuration":551155,"Delta":391683065},{"NoteNumber":87,"Velocity":96,"Duration":551155,"SoundDuration":551155,"Delta":391683065},{"NoteNumber":51,"Velocity":61,"Duration":551155,"SoundDuration":551155,"Delta":391683065},{"NoteNumber":63,"Velocity":72,"Duration":551155,"SoundDuration":551155,"Delta":391683065},{"NoteNumber":74,"Velocity":71,"Duration":99337,"SoundDuration":99337,"Delta":392234221},{"NoteNumber":86,"Velocity":84,"Duration":99337,"SoundDuration":99337,"Delta":392234221},{"NoteNumber":50,"Velocity":52,"Duration":99337,"SoundDuration":99337,"Delta":392234221},{"NoteNumber":62,"Velocity":63,"Duration":99337,"SoundDuration":99337,"Delta":392234221},{"NoteNumber":72,"Velocity":78,"Duration":548781,"SoundDuration":548781,"Delta":392432896},{"NoteNumber":84,"Velocity":94,"Duration":548781,"SoundDuration":548781,"Delta":392432896},{"NoteNumber":48,"Velocity":59,"Duration":548781,"SoundDuration":548781,"Delta":392432896},{"NoteNumber":60,"Velocity":69,"Duration":548781,"SoundDuration":548781,"Delta":392432896},{"NoteNumber":70,"Velocity":70,"Duration":98684,"SoundDuration":98684,"Delta":392981677},{"NoteNumber":82,"Velocity":83,"Duration":98684,"SoundDuration":98684,"Delta":392981677},{"NoteNumber":46,"Velocity":51,"Duration":98684,"SoundDuration":98684,"Delta":392981677},{"NoteNumber":58,"Velocity":61,"Duration":98684,"SoundDuration":98684,"Delta":392981677},{"NoteNumber":69,"Velocity":78,"Duration":547113,"SoundDuration":547113,"Delta":393179046},{"NoteNumber":81,"Velocity":92,"Duration":547113,"SoundDuration":547113,"Delta":393179046},{"NoteNumber":45,"Velocity":58,"Duration":547113,"SoundDuration":547113,"Delta":393179046},{"NoteNumber":57,"Velocity":69,"Duration":547113,"SoundDuration":547113,"Delta":393179046},{"NoteNumber":67,"Velocity":62,"Duration":98684,"SoundDuration":98684,"Delta":393726159},{"NoteNumber":79,"Velocity":74,"Duration":98684,"SoundDuration":98684,"Delta":393726159},{"NoteNumber":43,"Velocity":47,"Duration":98684,"SoundDuration":98684,"Delta":393726159},{"NoteNumber":55,"Velocity":56,"Duration":98684,"SoundDuration":98684,"Delta":393726159},{"NoteNumber":65,"Velocity":70,"Duration":91463,"SoundDuration":91463,"Delta":393923527},{"NoteNumber":77,"Velocity":83,"Duration":91463,"SoundDuration":91463,"Delta":393923527},{"NoteNumber":41,"Velocity":52,"Duration":91463,"SoundDuration":91463,"Delta":393923527},{"NoteNumber":53,"Velocity":62,"Duration":91463,"SoundDuration":91463,"Delta":393923527},{"NoteNumber":63,"Velocity":66,"Duration":91463,"SoundDuration":91463,"Delta":394106454},{"NoteNumber":75,"Velocity":78,"Duration":91463,"SoundDuration":91463,"Delta":394106454},{"NoteNumber":39,"Velocity":49,"Duration":91463,"SoundDuration":91463,"Delta":394106454},{"NoteNumber":51,"Velocity":58,"Duration":91463,"SoundDuration":91463,"Delta":394106454},{"NoteNumber":62,"Velocity":70,"Duration":91463,"SoundDuration":91463,"Delta":394289381},{"NoteNumber":74,"Velocity":83,"Duration":91463,"SoundDuration":91463,"Delta":394289381},{"NoteNumber":38,"Velocity":52,"Duration":91463,"SoundDuration":91463,"Delta":394289381},{"NoteNumber":50,"Velocity":62,"Duration":91463,"SoundDuration":91463,"Delta":394289381},{"NoteNumber":60,"Velocity":64,"Duration":99667,"SoundDuration":99667,"Delta":394472308},{"NoteNumber":72,"Velocity":77,"Duration":99667,"SoundDuration":99667,"Delta":394472308},{"NoteNumber":36,"Velocity":48,"Duration":99667,"SoundDuration":99667,"Delta":394472308},{"NoteNumber":48,"Velocity":57,"Duration":99667,"SoundDuration":99667,"Delta":394472308},{"NoteNumber":58,"Velocity":78,"Duration":99667,"SoundDuration":99667,"Delta":394671644},{"NoteNumber":70,"Velocity":90,"Duration":99667,"SoundDuration":99667,"Delta":394671644},{"NoteNumber":34,"Velocity":58,"Duration":99667,"SoundDuration":99667,"Delta":394671644},{"NoteNumber":46,"Velocity":69,"Duration":99667,"SoundDuration":99667,"Delta":394671644},{"NoteNumber":69,"Velocity":53,"Duration":91185,"SoundDuration":91185,"Delta":395070315},{"NoteNumber":53,"Velocity":34,"Duration":91185,"SoundDuration":91185,"Delta":395070315},{"NoteNumber":60,"Velocity":34,"Duration":91185,"SoundDuration":91185,"Delta":395070315},{"NoteNumber":63,"Velocity":41,"Duration":91185,"SoundDuration":91185,"Delta":395070315},{"NoteNumber":68,"Velocity":45,"Duration":91185,"SoundDuration":91185,"Delta":395161500},{"NoteNumber":69,"Velocity":53,"Duration":91185,"SoundDuration":91185,"Delta":395252686},{"NoteNumber":65,"Velocity":43,"Duration":99337,"SoundDuration":99337,"Delta":395343871},{"NoteNumber":70,"Velocity":57,"Duration":91463,"SoundDuration":91463,"Delta":395443209},{"NoteNumber":58,"Velocity":41,"Duration":91463,"SoundDuration":91463,"Delta":395443209},{"NoteNumber":62,"Velocity":49,"Duration":91463,"SoundDuration":91463,"Delta":395443209},{"NoteNumber":81,"Velocity":53,"Duration":90909,"SoundDuration":90909,"Delta":395809063},{"NoteNumber":65,"Velocity":34,"Duration":90909,"SoundDuration":90909,"Delta":395809063},{"NoteNumber":72,"Velocity":34,"Duration":90909,"SoundDuration":90909,"Delta":395809063},{"NoteNumber":75,"Velocity":41,"Duration":90909,"SoundDuration":90909,"Delta":395809063},{"NoteNumber":80,"Velocity":45,"Duration":90909,"SoundDuration":90909,"Delta":395899972},{"NoteNumber":81,"Velocity":53,"Duration":90908,"SoundDuration":90908,"Delta":395990881},{"NoteNumber":77,"Velocity":43,"Duration":100000,"SoundDuration":100000,"Delta":396081790},{"NoteNumber":82,"Velocity":57,"Duration":102389,"SoundDuration":102389,"Delta":396181790},{"NoteNumber":70,"Velocity":41,"Duration":102389,"SoundDuration":102389,"Delta":396181790},{"NoteNumber":74,"Velocity":49,"Duration":102389,"SoundDuration":102389,"Delta":396181790},{"NoteNumber":81,"Velocity":91,"Duration":449437,"SoundDuration":449437,"Delta":397000902},{"NoteNumber":77,"Velocity":77,"Duration":449437,"SoundDuration":449437,"Delta":397000902},{"NoteNumber":75,"Velocity":77,"Duration":449437,"SoundDuration":449437,"Delta":397000902},{"NoteNumber":72,"Velocity":77,"Duration":449437,"SoundDuration":449437,"Delta":397000902},{"NoteNumber":69,"Velocity":77,"Duration":449437,"SoundDuration":449437,"Delta":397000902},{"NoteNumber":41,"Velocity":56,"Duration":449437,"SoundDuration":449437,"Delta":397000902},{"NoteNumber":53,"Velocity":67,"Duration":449437,"SoundDuration":449437,"Delta":397000902},{"NoteNumber":82,"Velocity":97,"Duration":449438,"SoundDuration":449438,"Delta":397899778},{"NoteNumber":77,"Velocity":82,"Duration":449438,"SoundDuration":449438,"Delta":397899778},{"NoteNumber":74,"Velocity":82,"Duration":449438,"SoundDuration":449438,"Delta":397899778},{"NoteNumber":70,"Velocity":82,"Duration":449438,"SoundDuration":449438,"Delta":397899778},{"NoteNumber":34,"Velocity":64,"Duration":449438,"SoundDuration":449438,"Delta":397899778},{"NoteNumber":46,"Velocity":76,"Duration":449438,"SoundDuration":449438,"Delta":397899778}],"license":{"name":"Creative Commons Attribution-ShareAlike 3.0 Germany","url":"http://creativecommons.org/licenses/by-sa/3.0/de/deed.en","text":"The MIDI files in this folder were downloaded from http://www.piano-midi.de and are licensed under the Creative Commons Attribution-ShareAlike 3.0 Germany license by Bernd Krueger.\n\nThe MIDI, audio(MP3, OGG) and video files of Bernd Krueger are licensed under the cc-by-sa Germany License . This means, that you can use and adapt the files, as long as you attribute to the copyright holder Name: Bernd Krueger Source: http://www.piano-midi.de The distribution or public playback of the files is only allowed under identical license conditions . The scores are open source.","attribution":"Bernd Krueger","attributionUrl":"http://www.piano-midi.de"}}