{"title":"Piano Sonata No. 23 in F minor, Op. 57 'Appassionata': I. Allegro assai","artist":"Beethoven","durationMs":557270,"midiSha256":"e273424456db4a083862b3dea14f87a6ede9f031028cef56bbdc662709c365c3","midiObject":[{"NoteNumber":60,"Velocity":35,"Duration":518639,"SoundDuration":518639,"Delta":0},{"NoteNumber":36,"Velocity":27,"Duration":518639,"SoundDuration":518639,"Delta":0},{"NoteNumber":56,"Velocity":31,"Duration":136599,"SoundDuration":136599,"Delta":518639},{"NoteNumber":32,"Velocity":25,"Duration":136599,"SoundDuration":136599,"Delta":518639},{"NoteNumber":53,"Velocity":28,"Duration":1669347,"SoundDuration":1669347,"Delta":655239},{"NoteNumber":29,"Velocity":22,"Duration":1669347,"SoundDuration":1669347,"Delta":655239},{"NoteNumber":56,"Velocity":35,"Duration":477330,"SoundDuration":477330,"Delta":2324586},{"NoteNumber":32,"Velocity":27,"Duration":477330,"SoundDuration":477330,"Delta":2324586},{"NoteNumber":60,"Velocity":30,"Duration":107426,"SoundDuration":107426,"Delta":2801916},{"NoteNumber":36,"Velocity":24,"Duration":107426,"SoundDuration":107426,"Delta":2801916},{"NoteNumber":65,"Velocity":35,"Duration":528292,"SoundDuration":528292,"Delta":2909343},{"NoteNumber":41,"Velocity":27,"Duration":528292,"SoundDuration":528292,"Delta":2909343},{"NoteNumber":68,"Velocity":35,"Duration":468092,"SoundDuration":468092,"Delta":3437636},{"NoteNumber":44,"Velocity":27,"Duration":468092,"SoundDuration":468092,"Delta":3437636},{"NoteNumber":72,"Velocity":30,"Duration":101550,"SoundDuration":101550,"Delta":3905728},{"NoteNumber":48,"Velocity":24,"Duration":101550,"SoundDuration":101550,"Delta":3905728},{"NoteNumber":77,"Velocity":35,"Duration":558751,"SoundDuration":558751,"Delta":4007279},{"NoteNumber":53,"Velocity":27,"Duration":558751,"SoundDuration":558751,"Delta":4007279},{"NoteNumber":65,"Velocity":33,"Duration":556448,"SoundDuration":556448,"Delta":4574195},{"NoteNumber":56,"Velocity":26,"Duration":556448,"SoundDuration":556448,"Delta":4574195},{"NoteNumber":72,"Velocity":35,"Duration":927414,"SoundDuration":927414,"Delta":5130644},{"NoteNumber":55,"Velocity":26,"Duration":1126156,"SoundDuration":1126156,"Delta":5130644},{"NoteNumber":60,"Velocity":26,"Duration":1126156,"SoundDuration":1126156,"Delta":5130644},{"NoteNumber":52,"Velocity":26,"Duration":1126156,"SoundDuration":1126156,"Delta":5130644},{"NoteNumber":74,"Velocity":33,"Duration":149056,"SoundDuration":149056,"Delta":6058059},{"NoteNumber":72,"Velocity":31,"Duration":49685,"SoundDuration":49685,"Delta":6207115},{"NoteNumber":74,"Velocity":32,"Duration":57720,"SoundDuration":57720,"Delta":6256801},{"NoteNumber":53,"Velocity":26,"Duration":1095769,"SoundDuration":1095769,"Delta":6256801},{"NoteNumber":59,"Velocity":26,"Duration":1095769,"SoundDuration":1095769,"Delta":6256801},{"NoteNumber":56,"Velocity":26,"Duration":1095769,"SoundDuration":1095769,"Delta":6256801},{"NoteNumber":76,"Velocity":28,"Duration":57306,"SoundDuration":57306,"Delta":6314521},{"NoteNumber":74,"Velocity":32,"Duration":56939,"SoundDuration":56939,"Delta":6371828},{"NoteNumber":76,"Velocity":28,"Duration":56537,"SoundDuration":56537,"Delta":6428767},{"NoteNumber":74,"Velocity":32,"Duration":56180,"SoundDuration":56180,"Delta":6485305},{"NoteNumber":76,"Velocity":29,"Duration":55749,"SoundDuration":55749,"Delta":6541485},{"NoteNumber":74,"Velocity":32,"Duration":55788,"SoundDuration":55788,"Delta":6597234},{"NoteNumber":76,"Velocity":28,"Duration":55944,"SoundDuration":55944,"Delta":6653022},{"NoteNumber":74,"Velocity":31,"Duration":56258,"SoundDuration":56258,"Delta":6708967},{"NoteNumber":76,"Velocity":29,"Duration":56417,"SoundDuration":56417,"Delta":6765225},{"NoteNumber":74,"Velocity":27,"Duration":56737,"SoundDuration":56737,"Delta":6821643},{"NoteNumber":76,"Velocity":32,"Duration":56899,"SoundDuration":56899,"Delta":6878381},{"NoteNumber":74,"Velocity":27,"Duration":91047,"SoundDuration":91047,"Delta":6935280},{"NoteNumber":72,"Velocity":28,"Duration":105389,"SoundDuration":105389,"Delta":7026327},{"NoteNumber":76,"Velocity":31,"Duration":105388,"SoundDuration":105388,"Delta":7131716},{"NoteNumber":74,"Velocity":28,"Duration":115464,"SoundDuration":115464,"Delta":7237105},{"NoteNumber":72,"Velocity":35,"Duration":461857,"SoundDuration":461857,"Delta":7352570},{"NoteNumber":55,"Velocity":22,"Duration":461857,"SoundDuration":461857,"Delta":7352570},{"NoteNumber":52,"Velocity":19,"Duration":461857,"SoundDuration":461857,"Delta":7352570},{"NoteNumber":60,"Velocity":26,"Duration":461857,"SoundDuration":461857,"Delta":7352570},{"NoteNumber":61,"Velocity":35,"Duration":498262,"SoundDuration":498262,"Delta":9430931},{"NoteNumber":37,"Velocity":27,"Duration":498262,"SoundDuration":498262,"Delta":9430931},{"NoteNumber":58,"Velocity":31,"Duration":136029,"SoundDuration":136029,"Delta":9929193},{"NoteNumber":34,"Velocity":25,"Duration":136029,"SoundDuration":136029,"Delta":9929193},{"NoteNumber":54,"Velocity":28,"Duration":1688566,"SoundDuration":1688566,"Delta":10065223},{"NoteNumber":30,"Velocity":22,"Duration":1688566,"SoundDuration":1688566,"Delta":10065223},{"NoteNumber":58,"Velocity":35,"Duration":489016,"SoundDuration":489016,"Delta":11753789},{"NoteNumber":34,"Velocity":27,"Duration":489016,"SoundDuration":489016,"Delta":11753789},{"NoteNumber":61,"Velocity":30,"Duration":107426,"SoundDuration":107426,"Delta":12242806},{"NoteNumber":37,"Velocity":24,"Duration":107426,"SoundDuration":107426,"Delta":12242806},{"NoteNumber":66,"Velocity":35,"Duration":528292,"SoundDuration":528292,"Delta":12350233},{"NoteNumber":42,"Velocity":27,"Duration":528292,"SoundDuration":528292,"Delta":12350233},{"NoteNumber":70,"Velocity":35,"Duration":465664,"SoundDuration":465664,"Delta":12878525},{"NoteNumber":46,"Velocity":27,"Duration":465664,"SoundDuration":465664,"Delta":12878525},{"NoteNumber":73,"Velocity":30,"Duration":101550,"SoundDuration":101550,"Delta":13344190},{"NoteNumber":49,"Velocity":24,"Duration":101550,"SoundDuration":101550,"Delta":13344190},{"NoteNumber":78,"Velocity":34,"Duration":566916,"SoundDuration":566916,"Delta":13445741},{"NoteNumber":54,"Velocity":29,"Duration":566916,"SoundDuration":566916,"Delta":13445741},{"NoteNumber":66,"Velocity":33,"Duration":556449,"SoundDuration":556449,"Delta":14012657},{"NoteNumber":58,"Velocity":26,"Duration":556449,"SoundDuration":556449,"Delta":14012657},{"NoteNumber":73,"Velocity":35,"Duration":927414,"SoundDuration":927414,"Delta":14569106},{"NoteNumber":53,"Velocity":26,"Duration":1124087,"SoundDuration":1124087,"Delta":14569106},{"NoteNumber":61,"Velocity":26,"Duration":1124087,"SoundDuration":1124087,"Delta":14569106},{"NoteNumber":56,"Velocity":26,"Duration":1124087,"SoundDuration":1124087,"Delta":14569106},{"NoteNumber":75,"Velocity":32,"Duration":149056,"SoundDuration":149056,"Delta":15496521},{"NoteNumber":73,"Velocity":31,"Duration":47616,"SoundDuration":47616,"Delta":15645577},{"NoteNumber":75,"Velocity":30,"Duration":58867,"SoundDuration":58867,"Delta":15693194},{"NoteNumber":57,"Velocity":26,"Duration":1099845,"SoundDuration":1099845,"Delta":15693194},{"NoteNumber":60,"Velocity":26,"Duration":1099845,"SoundDuration":1099845,"Delta":15693194},{"NoteNumber":54,"Velocity":26,"Duration":1099845,"SoundDuration":1099845,"Delta":15693194},{"NoteNumber":77,"Velocity":27,"Duration":58224,"SoundDuration":58224,"Delta":15752061},{"NoteNumber":75,"Velocity":30,"Duration":57678,"SoundDuration":57678,"Delta":15810286},{"NoteNumber":77,"Velocity":27,"Duration":57061,"SoundDuration":57061,"Delta":15867964},{"NoteNumber":75,"Velocity":30,"Duration":56537,"SoundDuration":56537,"Delta":15925026},{"NoteNumber":77,"Velocity":27,"Duration":55944,"SoundDuration":55944,"Delta":15981564},{"NoteNumber":75,"Velocity":29,"Duration":55594,"SoundDuration":55594,"Delta":16037508},{"NoteNumber":77,"Velocity":27,"Duration":55632,"SoundDuration":55632,"Delta":16093102},{"NoteNumber":75,"Velocity":29,"Duration":55944,"SoundDuration":55944,"Delta":16148735},{"NoteNumber":77,"Velocity":28,"Duration":56179,"SoundDuration":56179,"Delta":16204680},{"NoteNumber":75,"Velocity":30,"Duration":56417,"SoundDuration":56417,"Delta":16260859},{"NoteNumber":77,"Velocity":28,"Duration":57438,"SoundDuration":57438,"Delta":16317277},{"NoteNumber":75,"Velocity":26,"Duration":92081,"SoundDuration":92081,"Delta":16374715},{"NoteNumber":73,"Velocity":28,"Duration":105388,"SoundDuration":105388,"Delta":16466797},{"NoteNumber":77,"Velocity":31,"Duration":105389,"SoundDuration":105389,"Delta":16572186},{"NoteNumber":75,"Velocity":29,"Duration":115464,"SoundDuration":115464,"Delta":16677575},{"NoteNumber":73,"Velocity":35,"Duration":372531,"SoundDuration":372531,"Delta":16793039},{"NoteNumber":53,"Velocity":19,"Duration":372531,"SoundDuration":372531,"Delta":16793039},{"NoteNumber":56,"Velocity":22,"Duration":372531,"SoundDuration":372531,"Delta":16793039},{"NoteNumber":61,"Velocity":26,"Duration":372531,"SoundDuration":372531,"Delta":16793039},{"NoteNumber":72,"Velocity":35,"Duration":926040,"SoundDuration":926040,"Delta":19028231},{"NoteNumber":67,"Velocity":26,"Duration":1124781,"SoundDuration":1124781,"Delta":19028231},{"NoteNumber":64,"Velocity":26,"Duration":1124781,"SoundDuration":1124781,"Delta":19028231},{"NoteNumber":74,"Velocity":42,"Duration":149056,"SoundDuration":149056,"Delta":19954271},{"NoteNumber":72,"Velocity":38,"Duration":49685,"SoundDuration":49685,"Delta":20103327},{"NoteNumber":74,"Velocity":43,"Duration":56497,"SoundDuration":56497,"Delta":20153013},{"NoteNumber":68,"Velocity":26,"Duration":1091759,"SoundDuration":1091759,"Delta":20153013},{"NoteNumber":71,"Velocity":26,"Duration":1091759,"SoundDuration":1091759,"Delta":20153013},{"NoteNumber":65,"Velocity":26,"Duration":1091759,"SoundDuration":1091759,"Delta":20153013},{"NoteNumber":76,"Velocity":35,"Duration":56338,"SoundDuration":56338,"Delta":20209510},{"NoteNumber":74,"Velocity":40,"Duration":56101,"SoundDuration":56101,"Delta":20265848},{"NoteNumber":76,"Velocity":36,"Duration":55944,"SoundDuration":55944,"Delta":20321949},{"NoteNumber":74,"Velocity":39,"Duration":55710,"SoundDuration":55710,"Delta":20377893},{"NoteNumber":76,"Velocity":36,"Duration":55478,"SoundDuration":55478,"Delta":20433604},{"NoteNumber":74,"Velocity":41,"Duration":55478,"SoundDuration":55478,"Delta":20489082},{"NoteNumber":76,"Velocity":37,"Duration":55710,"SoundDuration":55710,"Delta":20544561},{"NoteNumber":74,"Velocity":40,"Duration":55944,"SoundDuration":55944,"Delta":20600271},{"NoteNumber":76,"Velocity":35,"Duration":56179,"SoundDuration":56179,"Delta":20656215},{"NoteNumber":74,"Velocity":31,"Duration":56417,"SoundDuration":56417,"Delta":20712395},{"NoteNumber":76,"Velocity":37,"Duration":57646,"SoundDuration":57646,"Delta":20768813},{"NoteNumber":74,"Velocity":33,"Duration":92071,"SoundDuration":92071,"Delta":20826459},{"NoteNumber":72,"Velocity":33,"Duration":105388,"SoundDuration":105388,"Delta":20918530},{"NoteNumber":76,"Velocity":37,"Duration":105389,"SoundDuration":105389,"Delta":21023919},{"NoteNumber":74,"Velocity":33,"Duration":115464,"SoundDuration":115464,"Delta":21129308},{"NoteNumber":72,"Velocity":35,"Duration":345085,"SoundDuration":345085,"Delta":21244773},{"NoteNumber":64,"Velocity":22,"Duration":345085,"SoundDuration":345085,"Delta":21244773},{"NoteNumber":67,"Velocity":26,"Duration":345085,"SoundDuration":345085,"Delta":21244773},{"NoteNumber":37,"Velocity":27,"Duration":95808,"SoundDuration":95808,"Delta":21762400},{"NoteNumber":37,"Velocity":26,"Duration":95237,"SoundDuration":95237,"Delta":21952253},{"NoteNumber":37,"Velocity":26,"Duration":96462,"SoundDuration":96462,"Delta":22142729},{"NoteNumber":36,"Velocity":26,"Duration":186265,"SoundDuration":186265,"Delta":22335655},{"NoteNumber":76,"Velocity":35,"Duration":926040,"SoundDuration":926040,"Delta":23453251},{"NoteNumber":67,"Velocity":26,"Duration":1123992,"SoundDuration":1123992,"Delta":23453251},{"NoteNumber":73,"Velocity":26,"Duration":1123992,"SoundDuration":1123992,"Delta":23453251},{"NoteNumber":70,"Velocity":26,"Duration":1123992,"SoundDuration":1123992,"Delta":23453251},{"NoteNumber":77,"Velocity":38,"Duration":197952,"SoundDuration":197952,"Delta":24379291},{"NoteNumber":77,"Velocity":39,"Duration":55710,"SoundDuration":55710,"Delta":24577243},{"NoteNumber":70,"Velocity":26,"Duration":1073581,"SoundDuration":1073581,"Delta":24577243},{"NoteNumber":73,"Velocity":26,"Duration":1073581,"SoundDuration":1073581,"Delta":24577243},{"NoteNumber":68,"Velocity":26,"Duration":1073581,"SoundDuration":1073581,"Delta":24577243},{"NoteNumber":79,"Velocity":34,"Duration":55555,"SoundDuration":55555,"Delta":24632954},{"NoteNumber":77,"Velocity":39,"Duration":55401,"SoundDuration":55401,"Delta":24688509},{"NoteNumber":79,"Velocity":35,"Duration":55248,"SoundDuration":55248,"Delta":24743911},{"NoteNumber":77,"Velocity":39,"Duration":55096,"SoundDuration":55096,"Delta":24799159},{"NoteNumber":79,"Velocity":35,"Duration":54945,"SoundDuration":54945,"Delta":24854256},{"NoteNumber":77,"Velocity":39,"Duration":54794,"SoundDuration":54794,"Delta":24909201},{"NoteNumber":79,"Velocity":35,"Duration":54944,"SoundDuration":54944,"Delta":24963995},{"NoteNumber":77,"Velocity":39,"Duration":55172,"SoundDuration":55172,"Delta":25018940},{"NoteNumber":79,"Velocity":36,"Duration":55325,"SoundDuration":55325,"Delta":25074113},{"NoteNumber":77,"Velocity":33,"Duration":55478,"SoundDuration":55478,"Delta":25129438},{"NoteNumber":79,"Velocity":39,"Duration":55710,"SoundDuration":55710,"Delta":25184917},{"NoteNumber":77,"Velocity":33,"Duration":83955,"SoundDuration":83955,"Delta":25240627},{"NoteNumber":76,"Velocity":34,"Duration":105388,"SoundDuration":105388,"Delta":25324582},{"NoteNumber":79,"Velocity":40,"Duration":105389,"SoundDuration":105389,"Delta":25429971},{"NoteNumber":77,"Velocity":35,"Duration":115464,"SoundDuration":115464,"Delta":25535360},{"NoteNumber":76,"Velocity":35,"Duration":346001,"SoundDuration":346001,"Delta":25650825},{"NoteNumber":67,"Velocity":22,"Duration":346001,"SoundDuration":346001,"Delta":25650825},{"NoteNumber":70,"Velocity":22,"Duration":346001,"SoundDuration":346001,"Delta":25650825},{"NoteNumber":73,"Velocity":26,"Duration":346001,"SoundDuration":346001,"Delta":25650825},{"NoteNumber":37,"Velocity":27,"Duration":94637,"SoundDuration":94637,"Delta":26169826},{"NoteNumber":37,"Velocity":26,"Duration":95541,"SoundDuration":95541,"Delta":26359101},{"NoteNumber":37,"Velocity":26,"Duration":97087,"SoundDuration":97087,"Delta":26550184},{"NoteNumber":36,"Velocity":26,"Duration":185735,"SoundDuration":185735,"Delta":26744359},{"NoteNumber":76,"Velocity":35,"Duration":246487,"SoundDuration":246487,"Delta":27301565},{"NoteNumber":79,"Velocity":35,"Duration":246487,"SoundDuration":246487,"Delta":27301565},{"NoteNumber":79,"Velocity":31,"Duration":246487,"SoundDuration":246487,"Delta":27548053},{"NoteNumber":76,"Velocity":31,"Duration":246487,"SoundDuration":246487,"Delta":27548053},{"NoteNumber":76,"Velocity":35,"Duration":267594,"SoundDuration":267594,"Delta":27794540},{"NoteNumber":79,"Velocity":35,"Duration":267594,"SoundDuration":267594,"Delta":27794540},{"NoteNumber":79,"Velocity":35,"Duration":446096,"SoundDuration":446096,"Delta":28062135},{"NoteNumber":82,"Velocity":35,"Duration":446096,"SoundDuration":446096,"Delta":28062135},{"NoteNumber":37,"Velocity":27,"Duration":265439,"SoundDuration":265439,"Delta":28731280},{"NoteNumber":37,"Velocity":26,"Duration":279018,"SoundDuration":279018,"Delta":28996720},{"NoteNumber":37,"Velocity":26,"Duration":302144,"SoundDuration":302144,"Delta":29275738},{"NoteNumber":36,"Velocity":26,"Duration":596262,"SoundDuration":596262,"Delta":29577883},{"NoteNumber":82,"Velocity":83,"Duration":238095,"SoundDuration":238095,"Delta":30468263},{"NoteNumber":79,"Velocity":83,"Duration":238095,"SoundDuration":238095,"Delta":30468263},{"NoteNumber":82,"Velocity":77,"Duration":248962,"SoundDuration":248962,"Delta":30706358},{"NoteNumber":79,"Velocity":77,"Duration":248962,"SoundDuration":248962,"Delta":30706358},{"NoteNumber":79,"Velocity":83,"Duration":262008,"SoundDuration":262008,"Delta":30955320},{"NoteNumber":82,"Velocity":83,"Duration":262008,"SoundDuration":262008,"Delta":30955320},{"NoteNumber":88,"Velocity":85,"Duration":82872,"SoundDuration":82872,"Delta":31217329},{"NoteNumber":82,"Velocity":76,"Duration":82796,"SoundDuration":82796,"Delta":31300202},{"NoteNumber":91,"Velocity":85,"Duration":82644,"SoundDuration":82644,"Delta":31382999},{"NoteNumber":88,"Velocity":75,"Duration":82417,"SoundDuration":82417,"Delta":31465644},{"NoteNumber":94,"Velocity":85,"Duration":82342,"SoundDuration":82342,"Delta":31548061},{"NoteNumber":91,"Velocity":76,"Duration":82191,"SoundDuration":82191,"Delta":31630403},{"NoteNumber":88,"Velocity":85,"Duration":81967,"SoundDuration":81967,"Delta":31712595},{"NoteNumber":91,"Velocity":76,"Duration":81892,"SoundDuration":81892,"Delta":31794562},{"NoteNumber":82,"Velocity":83,"Duration":81743,"SoundDuration":81743,"Delta":31876455},{"NoteNumber":88,"Velocity":75,"Duration":81521,"SoundDuration":81521,"Delta":31958199},{"NoteNumber":79,"Velocity":83,"Duration":81448,"SoundDuration":81448,"Delta":32039721},{"NoteNumber":82,"Velocity":74,"Duration":81300,"SoundDuration":81300,"Delta":32121169},{"NoteNumber":76,"Velocity":81,"Duration":81080,"SoundDuration":81080,"Delta":32202469},{"NoteNumber":79,"Velocity":74,"Duration":81081,"SoundDuration":81081,"Delta":32283550},{"NoteNumber":70,"Velocity":81,"Duration":81080,"SoundDuration":81080,"Delta":32364631},{"NoteNumber":76,"Velocity":71,"Duration":81080,"SoundDuration":81080,"Delta":32445712},{"NoteNumber":67,"Velocity":80,"Duration":81081,"SoundDuration":81081,"Delta":32526793},{"NoteNumber":70,"Velocity":73,"Duration":81080,"SoundDuration":81080,"Delta":32607874},{"NoteNumber":64,"Velocity":80,"Duration":81080,"SoundDuration":81080,"Delta":32688955},{"NoteNumber":67,"Velocity":70,"Duration":81081,"SoundDuration":81081,"Delta":32770036},{"NoteNumber":58,"Velocity":79,"Duration":81080,"SoundDuration":81080,"Delta":32851117},{"NoteNumber":64,"Velocity":71,"Duration":81080,"SoundDuration":81080,"Delta":32932198},{"NoteNumber":55,"Velocity":75,"Duration":81081,"SoundDuration":81081,"Delta":33013279},{"NoteNumber":58,"Velocity":63,"Duration":81080,"SoundDuration":81080,"Delta":33094360},{"NoteNumber":52,"Velocity":75,"Duration":81154,"SoundDuration":81154,"Delta":33175441},{"NoteNumber":55,"Velocity":64,"Duration":81448,"SoundDuration":81448,"Delta":33256596},{"NoteNumber":46,"Velocity":75,"Duration":85227,"SoundDuration":85227,"Delta":33338044},{"NoteNumber":52,"Velocity":60,"Duration":98360,"SoundDuration":98360,"Delta":33423271},{"NoteNumber":31,"Velocity":73,"Duration":82417,"SoundDuration":82417,"Delta":33521632},{"NoteNumber":34,"Velocity":67,"Duration":82644,"SoundDuration":82644,"Delta":33604049},{"NoteNumber":40,"Velocity":77,"Duration":82949,"SoundDuration":82949,"Delta":33686694},{"NoteNumber":43,"Velocity":67,"Duration":83256,"SoundDuration":83256,"Delta":33769644},{"NoteNumber":46,"Velocity":77,"Duration":83488,"SoundDuration":83488,"Delta":33852900},{"NoteNumber":49,"Velocity":67,"Duration":83877,"SoundDuration":83877,"Delta":33936388},{"NoteNumber":52,"Velocity":82,"Duration":84190,"SoundDuration":84190,"Delta":34020265},{"NoteNumber":55,"Velocity":73,"Duration":84427,"SoundDuration":84427,"Delta":34104456},{"NoteNumber":58,"Velocity":89,"Duration":170717,"SoundDuration":170717,"Delta":34188884},{"NoteNumber":41,"Velocity":72,"Duration":244897,"SoundDuration":244897,"Delta":34849398},{"NoteNumber":29,"Velocity":72,"Duration":244897,"SoundDuration":244897,"Delta":34849398},{"NoteNumber":56,"Velocity":86,"Duration":244897,"SoundDuration":244897,"Delta":34849398},{"NoteNumber":61,"Velocity":86,"Duration":244897,"SoundDuration":244897,"Delta":34849398},{"NoteNumber":49,"Velocity":86,"Duration":244897,"SoundDuration":244897,"Delta":34849398},{"NoteNumber":40,"Velocity":40,"Duration":2386365,"SoundDuration":2386365,"Delta":35736007},{"NoteNumber":52,"Velocity":48,"Duration":2386365,"SoundDuration":2386365,"Delta":35736007},{"NoteNumber":48,"Velocity":40,"Duration":2386365,"SoundDuration":2386365,"Delta":35736007},{"NoteNumber":60,"Velocity":48,"Duration":2386365,"SoundDuration":2386365,"Delta":35736007},{"NoteNumber":55,"Velocity":48,"Duration":2386365,"SoundDuration":2386365,"Delta":35736007},{"NoteNumber":60,"Velocity":35,"Duration":537068,"SoundDuration":537068,"Delta":38190554},{"NoteNumber":36,"Velocity":27,"Duration":537068,"SoundDuration":537068,"Delta":38190554},{"NoteNumber":56,"Velocity":31,"Duration":95541,"SoundDuration":95541,"Delta":38727623},{"NoteNumber":32,"Velocity":25,"Duration":95541,"SoundDuration":95541,"Delta":38727623},{"NoteNumber":53,"Velocity":103,"Duration":223880,"SoundDuration":223880,"Delta":38823164},{"NoteNumber":29,"Velocity":81,"Duration":223880,"SoundDuration":223880,"Delta":38823164},{"NoteNumber":60,"Velocity":85,"Duration":323569,"SoundDuration":323569,"Delta":39047045},{"NoteNumber":65,"Velocity":101,"Duration":323569,"SoundDuration":323569,"Delta":39047045},{"NoteNumber":56,"Velocity":75,"Duration":323569,"SoundDuration":323569,"Delta":39047045},{"NoteNumber":53,"Velocity":75,"Duration":323569,"SoundDuration":323569,"Delta":39047045},{"NoteNumber":32,"Velocity":61,"Duration":323569,"SoundDuration":323569,"Delta":39210532},{"NoteNumber":29,"Velocity":61,"Duration":323569,"SoundDuration":323569,"Delta":39210532},{"NoteNumber":41,"Velocity":81,"Duration":323569,"SoundDuration":323569,"Delta":39210532},{"NoteNumber":36,"Velocity":69,"Duration":323569,"SoundDuration":323569,"Delta":39210532},{"NoteNumber":60,"Velocity":72,"Duration":323569,"SoundDuration":323569,"Delta":39374020},{"NoteNumber":56,"Velocity":72,"Duration":323569,"SoundDuration":323569,"Delta":39374020},{"NoteNumber":65,"Velocity":81,"Duration":323569,"SoundDuration":323569,"Delta":39374020},{"NoteNumber":68,"Velocity":96,"Duration":323569,"SoundDuration":323569,"Delta":39374020},{"NoteNumber":32,"Velocity":57,"Duration":323569,"SoundDuration":323569,"Delta":39537507},{"NoteNumber":36,"Velocity":64,"Duration":323569,"SoundDuration":323569,"Delta":39537507},{"NoteNumber":41,"Velocity":76,"Duration":323569,"SoundDuration":323569,"Delta":39537507},{"NoteNumber":29,"Velocity":57,"Duration":323569,"SoundDuration":323569,"Delta":39537507},{"NoteNumber":60,"Velocity":71,"Duration":323569,"SoundDuration":323569,"Delta":39700995},{"NoteNumber":72,"Velocity":96,"Duration":323569,"SoundDuration":323569,"Delta":39700995},{"NoteNumber":65,"Velocity":71,"Duration":323569,"SoundDuration":323569,"Delta":39700995},{"NoteNumber":68,"Velocity":79,"Duration":323569,"SoundDuration":323569,"Delta":39700995},{"NoteNumber":32,"Velocity":55,"Duration":323569,"SoundDuration":323569,"Delta":39864482},{"NoteNumber":36,"Velocity":63,"Duration":323569,"SoundDuration":323569,"Delta":39864482},{"NoteNumber":41,"Velocity":73,"Duration":323569,"SoundDuration":323569,"Delta":39864482},{"NoteNumber":29,"Velocity":55,"Duration":323569,"SoundDuration":323569,"Delta":39864482},{"NoteNumber":72,"Velocity":80,"Duration":323569,"SoundDuration":323569,"Delta":40027970},{"NoteNumber":77,"Velocity":95,"Duration":323569,"SoundDuration":323569,"Delta":40027970},{"NoteNumber":65,"Velocity":72,"Duration":323569,"SoundDuration":323569,"Delta":40027970},{"NoteNumber":68,"Velocity":72,"Duration":323569,"SoundDuration":323569,"Delta":40027970},{"NoteNumber":32,"Velocity":61,"Duration":323569,"SoundDuration":323569,"Delta":40191457},{"NoteNumber":29,"Velocity":61,"Duration":323569,"SoundDuration":323569,"Delta":40191457},{"NoteNumber":41,"Velocity":81,"Duration":323569,"SoundDuration":323569,"Delta":40191457},{"NoteNumber":36,"Velocity":69,"Duration":323569,"SoundDuration":323569,"Delta":40191457},{"NoteNumber":77,"Velocity":86,"Duration":323569,"SoundDuration":323569,"Delta":40354945},{"NoteNumber":68,"Velocity":76,"Duration":323569,"SoundDuration":323569,"Delta":40354945},{"NoteNumber":72,"Velocity":76,"Duration":323569,"SoundDuration":323569,"Delta":40354945},{"NoteNumber":80,"Velocity":103,"Duration":323569,"SoundDuration":323569,"Delta":40354945},{"NoteNumber":32,"Velocity":55,"Duration":338338,"SoundDuration":338338,"Delta":40518432},{"NoteNumber":36,"Velocity":63,"Duration":338338,"SoundDuration":338338,"Delta":40518432},{"NoteNumber":41,"Velocity":73,"Duration":338338,"SoundDuration":338338,"Delta":40518432},{"NoteNumber":29,"Velocity":55,"Duration":338338,"SoundDuration":338338,"Delta":40518432},{"NoteNumber":77,"Velocity":78,"Duration":177083,"SoundDuration":177083,"Delta":40681920},{"NoteNumber":84,"Velocity":94,"Duration":177083,"SoundDuration":177083,"Delta":40681920},{"NoteNumber":80,"Velocity":78,"Duration":177083,"SoundDuration":177083,"Delta":40681920},{"NoteNumber":72,"Velocity":71,"Duration":177083,"SoundDuration":177083,"Delta":40681920},{"NoteNumber":89,"Velocity":103,"Duration":1607143,"SoundDuration":1607143,"Delta":40860491},{"NoteNumber":77,"Velocity":76,"Duration":1607143,"SoundDuration":1607143,"Delta":40860491},{"NoteNumber":84,"Velocity":86,"Duration":1607143,"SoundDuration":1607143,"Delta":40860491},{"NoteNumber":80,"Velocity":86,"Duration":1607143,"SoundDuration":1607143,"Delta":40860491},{"NoteNumber":29,"Velocity":61,"Duration":1607143,"SoundDuration":1607143,"Delta":40860491},{"NoteNumber":36,"Velocity":69,"Duration":1607143,"SoundDuration":1607143,"Delta":40860491},{"NoteNumber":41,"Velocity":81,"Duration":1607143,"SoundDuration":1607143,"Delta":40860491},{"NoteNumber":32,"Velocity":61,"Duration":1607143,"SoundDuration":1607143,"Delta":40860491},{"NoteNumber":56,"Velocity":41,"Duration":444084,"SoundDuration":444084,"Delta":42467635},{"NoteNumber":32,"Velocity":33,"Duration":444084,"SoundDuration":444084,"Delta":42467635},{"NoteNumber":60,"Velocity":35,"Duration":98309,"SoundDuration":98309,"Delta":42911720},{"NoteNumber":36,"Velocity":28,"Duration":98309,"SoundDuration":98309,"Delta":42911720},{"NoteNumber":65,"Velocity":39,"Duration":483481,"SoundDuration":483481,"Delta":43010029},{"NoteNumber":41,"Velocity":33,"Duration":483481,"SoundDuration":483481,"Delta":43010029},{"NoteNumber":68,"Velocity":41,"Duration":428371,"SoundDuration":428371,"Delta":43493510},{"NoteNumber":44,"Velocity":33,"Duration":428371,"SoundDuration":428371,"Delta":43493510},{"NoteNumber":72,"Velocity":36,"Duration":92931,"SoundDuration":92931,"Delta":43921882},{"NoteNumber":48,"Velocity":28,"Duration":92931,"SoundDuration":92931,"Delta":43921882},{"NoteNumber":77,"Velocity":39,"Duration":515083,"SoundDuration":515083,"Delta":44014813},{"NoteNumber":53,"Velocity":33,"Duration":515083,"SoundDuration":515083,"Delta":44014813},{"NoteNumber":65,"Velocity":39,"Duration":525836,"SoundDuration":525836,"Delta":44533632},{"NoteNumber":41,"Velocity":30,"Duration":525836,"SoundDuration":525836,"Delta":44533632},{"NoteNumber":60,"Velocity":103,"Duration":223880,"SoundDuration":223880,"Delta":45059469},{"NoteNumber":55,"Velocity":81,"Duration":223880,"SoundDuration":223880,"Delta":45059469},{"NoteNumber":52,"Velocity":81,"Duration":223880,"SoundDuration":223880,"Delta":45059469},{"NoteNumber":60,"Velocity":85,"Duration":323569,"SoundDuration":323569,"Delta":45283349},{"NoteNumber":64,"Velocity":101,"Duration":323569,"SoundDuration":323569,"Delta":45283349},{"NoteNumber":55,"Velocity":75,"Duration":323569,"SoundDuration":323569,"Delta":45283349},{"NoteNumber":43,"Velocity":69,"Duration":323569,"SoundDuration":323569,"Delta":45446837},{"NoteNumber":48,"Velocity":81,"Duration":323569,"SoundDuration":323569,"Delta":45446837},{"NoteNumber":40,"Velocity":61,"Duration":323569,"SoundDuration":323569,"Delta":45446837},{"NoteNumber":64,"Velocity":81,"Duration":323569,"SoundDuration":323569,"Delta":45610324},{"NoteNumber":67,"Velocity":96,"Duration":323569,"SoundDuration":323569,"Delta":45610324},{"NoteNumber":60,"Velocity":72,"Duration":323569,"SoundDuration":323569,"Delta":45610324},{"NoteNumber":40,"Velocity":57,"Duration":323569,"SoundDuration":323569,"Delta":45773812},{"NoteNumber":48,"Velocity":76,"Duration":323569,"SoundDuration":323569,"Delta":45773812},{"NoteNumber":43,"Velocity":64,"Duration":323569,"SoundDuration":323569,"Delta":45773812},{"NoteNumber":72,"Velocity":96,"Duration":323569,"SoundDuration":323569,"Delta":45937299},{"NoteNumber":64,"Velocity":71,"Duration":323569,"SoundDuration":323569,"Delta":45937299},{"NoteNumber":67,"Velocity":79,"Duration":323569,"SoundDuration":323569,"Delta":45937299},{"NoteNumber":43,"Velocity":63,"Duration":323569,"SoundDuration":323569,"Delta":46100787},{"NoteNumber":40,"Velocity":55,"Duration":323569,"SoundDuration":323569,"Delta":46100787},{"NoteNumber":48,"Velocity":73,"Duration":323569,"SoundDuration":323569,"Delta":46100787},{"NoteNumber":76,"Velocity":95,"Duration":323569,"SoundDuration":323569,"Delta":46264274},{"NoteNumber":67,"Velocity":72,"Duration":323569,"SoundDuration":323569,"Delta":46264274},{"NoteNumber":72,"Velocity":80,"Duration":323569,"SoundDuration":323569,"Delta":46264274},{"NoteNumber":40,"Velocity":61,"Duration":323569,"SoundDuration":323569,"Delta":46427762},{"NoteNumber":48,"Velocity":81,"Duration":323569,"SoundDuration":323569,"Delta":46427762},{"NoteNumber":43,"Velocity":69,"Duration":323569,"SoundDuration":323569,"Delta":46427762},{"NoteNumber":79,"Velocity":103,"Duration":323569,"SoundDuration":323569,"Delta":46591249},{"NoteNumber":72,"Velocity":76,"Duration":323569,"SoundDuration":323569,"Delta":46591249},{"NoteNumber":76,"Velocity":86,"Duration":323569,"SoundDuration":323569,"Delta":46591249},{"NoteNumber":43,"Velocity":63,"Duration":460204,"SoundDuration":460204,"Delta":46754737},{"NoteNumber":48,"Velocity":73,"Duration":460204,"SoundDuration":460204,"Delta":46754737},{"NoteNumber":40,"Velocity":55,"Duration":460204,"SoundDuration":460204,"Delta":46754737},{"NoteNumber":84,"Velocity":94,"Duration":300505,"SoundDuration":300505,"Delta":46918224},{"NoteNumber":76,"Velocity":78,"Duration":300505,"SoundDuration":300505,"Delta":46918224},{"NoteNumber":79,"Velocity":78,"Duration":300505,"SoundDuration":300505,"Delta":46918224},{"NoteNumber":72,"Velocity":41,"Duration":847457,"SoundDuration":847457,"Delta":47221255},{"NoteNumber":67,"Velocity":30,"Duration":1029341,"SoundDuration":1029341,"Delta":47221255},{"NoteNumber":64,"Velocity":30,"Duration":1029341,"SoundDuration":1029341,"Delta":47221255},{"NoteNumber":74,"Velocity":45,"Duration":181884,"SoundDuration":181884,"Delta":48068712},{"NoteNumber":74,"Velocity":39,"Duration":56963,"SoundDuration":56963,"Delta":48250597},{"NoteNumber":68,"Velocity":30,"Duration":1064352,"SoundDuration":1064352,"Delta":48250597},{"NoteNumber":71,"Velocity":30,"Duration":1064352,"SoundDuration":1064352,"Delta":48250597},{"NoteNumber":65,"Velocity":30,"Duration":1064352,"SoundDuration":1064352,"Delta":48250597},{"NoteNumber":76,"Velocity":35,"Duration":85064,"SoundDuration":85064,"Delta":48307560},{"NoteNumber":74,"Velocity":39,"Duration":56583,"SoundDuration":56583,"Delta":48364333},{"NoteNumber":76,"Velocity":36,"Duration":56395,"SoundDuration":56395,"Delta":48420917},{"NoteNumber":74,"Velocity":38,"Duration":56211,"SoundDuration":56211,"Delta":48477312},{"NoteNumber":76,"Velocity":36,"Duration":56022,"SoundDuration":56022,"Delta":48533523},{"NoteNumber":74,"Velocity":38,"Duration":55792,"SoundDuration":55792,"Delta":48589546},{"NoteNumber":76,"Velocity":36,"Duration":55477,"SoundDuration":55477,"Delta":48645338},{"NoteNumber":74,"Velocity":39,"Duration":56162,"SoundDuration":56162,"Delta":48700816},{"NoteNumber":76,"Velocity":37,"Duration":56725,"SoundDuration":56725,"Delta":48756979},{"NoteNumber":74,"Velocity":35,"Duration":57300,"SoundDuration":57300,"Delta":48813705},{"NoteNumber":76,"Velocity":39,"Duration":57886,"SoundDuration":57886,"Delta":48871006},{"NoteNumber":74,"Velocity":35,"Duration":87499,"SoundDuration":87499,"Delta":48928892},{"NoteNumber":72,"Velocity":36,"Duration":96450,"SoundDuration":96450,"Delta":49016392},{"NoteNumber":76,"Velocity":41,"Duration":96450,"SoundDuration":96450,"Delta":49112842},{"NoteNumber":74,"Velocity":38,"Duration":105656,"SoundDuration":105656,"Delta":49209293},{"NoteNumber":60,"Velocity":103,"Duration":222014,"SoundDuration":222014,"Delta":49314949},{"NoteNumber":55,"Velocity":81,"Duration":222014,"SoundDuration":222014,"Delta":49314949},{"NoteNumber":52,"Velocity":81,"Duration":222014,"SoundDuration":222014,"Delta":49314949},{"NoteNumber":60,"Velocity":85,"Duration":323569,"SoundDuration":323569,"Delta":49538829},{"NoteNumber":64,"Velocity":101,"Duration":323569,"SoundDuration":323569,"Delta":49538829},{"NoteNumber":55,"Velocity":75,"Duration":323569,"SoundDuration":323569,"Delta":49538829},{"NoteNumber":43,"Velocity":69,"Duration":323569,"SoundDuration":323569,"Delta":49702317},{"NoteNumber":48,"Velocity":81,"Duration":323569,"SoundDuration":323569,"Delta":49702317},{"NoteNumber":40,"Velocity":61,"Duration":323569,"SoundDuration":323569,"Delta":49702317},{"NoteNumber":60,"Velocity":72,"Duration":323569,"SoundDuration":323569,"Delta":49865804},{"NoteNumber":64,"Velocity":81,"Duration":323569,"SoundDuration":323569,"Delta":49865804},{"NoteNumber":67,"Velocity":96,"Duration":323569,"SoundDuration":323569,"Delta":49865804},{"NoteNumber":40,"Velocity":57,"Duration":323569,"SoundDuration":323569,"Delta":50029292},{"NoteNumber":48,"Velocity":76,"Duration":323569,"SoundDuration":323569,"Delta":50029292},{"NoteNumber":43,"Velocity":64,"Duration":323569,"SoundDuration":323569,"Delta":50029292},{"NoteNumber":64,"Velocity":71,"Duration":323569,"SoundDuration":323569,"Delta":50192779},{"NoteNumber":67,"Velocity":79,"Duration":323569,"SoundDuration":323569,"Delta":50192779},{"NoteNumber":72,"Velocity":96,"Duration":323569,"SoundDuration":323569,"Delta":50192779},{"NoteNumber":43,"Velocity":63,"Duration":323569,"SoundDuration":323569,"Delta":50356267},{"NoteNumber":40,"Velocity":55,"Duration":323569,"SoundDuration":323569,"Delta":50356267},{"NoteNumber":48,"Velocity":73,"Duration":323569,"SoundDuration":323569,"Delta":50356267},{"NoteNumber":67,"Velocity":72,"Duration":323569,"SoundDuration":323569,"Delta":50519754},{"NoteNumber":72,"Velocity":80,"Duration":323569,"SoundDuration":323569,"Delta":50519754},{"NoteNumber":76,"Velocity":95,"Duration":323569,"SoundDuration":323569,"Delta":50519754},{"NoteNumber":40,"Velocity":61,"Duration":323569,"SoundDuration":323569,"Delta":50683242},{"NoteNumber":48,"Velocity":81,"Duration":323569,"SoundDuration":323569,"Delta":50683242},{"NoteNumber":43,"Velocity":69,"Duration":323569,"SoundDuration":323569,"Delta":50683242},{"NoteNumber":72,"Velocity":76,"Duration":323569,"SoundDuration":323569,"Delta":50846729},{"NoteNumber":76,"Velocity":86,"Duration":323569,"SoundDuration":323569,"Delta":50846729},{"NoteNumber":79,"Velocity":103,"Duration":323569,"SoundDuration":323569,"Delta":50846729},{"NoteNumber":43,"Velocity":63,"Duration":458713,"SoundDuration":458713,"Delta":51010217},{"NoteNumber":48,"Velocity":73,"Duration":458713,"SoundDuration":458713,"Delta":51010217},{"NoteNumber":40,"Velocity":55,"Duration":458713,"SoundDuration":458713,"Delta":51010217},{"NoteNumber":76,"Velocity":78,"Duration":298994,"SoundDuration":298994,"Delta":51173704},{"NoteNumber":84,"Velocity":94,"Duration":298994,"SoundDuration":298994,"Delta":51173704},{"NoteNumber":79,"Velocity":78,"Duration":298994,"SoundDuration":298994,"Delta":51173704},{"NoteNumber":72,"Velocity":48,"Duration":847457,"SoundDuration":847457,"Delta":51475212},{"NoteNumber":67,"Velocity":36,"Duration":1029341,"SoundDuration":1029341,"Delta":51475212},{"NoteNumber":64,"Velocity":36,"Duration":1029341,"SoundDuration":1029341,"Delta":51475212},{"NoteNumber":73,"Velocity":52,"Duration":136413,"SoundDuration":136413,"Delta":52322669},{"NoteNumber":72,"Velocity":48,"Duration":45471,"SoundDuration":45471,"Delta":52459083},{"NoteNumber":73,"Velocity":46,"Duration":56963,"SoundDuration":56963,"Delta":52504554},{"NoteNumber":67,"Velocity":36,"Duration":1228286,"SoundDuration":1228286,"Delta":52504554},{"NoteNumber":63,"Velocity":36,"Duration":1228286,"SoundDuration":1228286,"Delta":52504554},{"NoteNumber":75,"Velocity":41,"Duration":56773,"SoundDuration":56773,"Delta":52561517},{"NoteNumber":73,"Velocity":46,"Duration":56583,"SoundDuration":56583,"Delta":52618290},{"NoteNumber":75,"Velocity":41,"Duration":56395,"SoundDuration":56395,"Delta":52674874},{"NoteNumber":73,"Velocity":44,"Duration":56211,"SoundDuration":56211,"Delta":52731269},{"NoteNumber":75,"Velocity":41,"Duration":56022,"SoundDuration":56022,"Delta":52787480},{"NoteNumber":73,"Velocity":46,"Duration":55792,"SoundDuration":55792,"Delta":52843503},{"NoteNumber":75,"Velocity":42,"Duration":55477,"SoundDuration":55477,"Delta":52899296},{"NoteNumber":73,"Velocity":46,"Duration":56162,"SoundDuration":56162,"Delta":52954774},{"NoteNumber":75,"Velocity":43,"Duration":85303,"SoundDuration":85303,"Delta":53010936},{"NoteNumber":73,"Velocity":40,"Duration":86609,"SoundDuration":86609,"Delta":53096240},{"NoteNumber":75,"Velocity":46,"Duration":87499,"SoundDuration":87499,"Delta":53182849},{"NoteNumber":73,"Velocity":42,"Duration":96450,"SoundDuration":96450,"Delta":53270349},{"NoteNumber":72,"Velocity":48,"Duration":96450,"SoundDuration":96450,"Delta":53366799},{"NoteNumber":73,"Velocity":44,"Duration":105656,"SoundDuration":105656,"Delta":53463250},{"NoteNumber":79,"Velocity":58,"Duration":489137,"SoundDuration":489137,"Delta":53568906},{"NoteNumber":82,"Velocity":58,"Duration":489137,"SoundDuration":489137,"Delta":53568906},{"NoteNumber":75,"Velocity":36,"Duration":149051,"SoundDuration":149051,"Delta":53732840},{"NoteNumber":75,"Velocity":36,"Duration":149051,"SoundDuration":149051,"Delta":53895442},{"NoteNumber":75,"Velocity":39,"Duration":150273,"SoundDuration":150273,"Delta":54058043},{"NoteNumber":75,"Velocity":37,"Duration":150273,"SoundDuration":150273,"Delta":54221978},{"NoteNumber":75,"Velocity":36,"Duration":150273,"SoundDuration":150273,"Delta":54385912},{"NoteNumber":75,"Velocity":39,"Duration":150273,"SoundDuration":150273,"Delta":54549847},{"NoteNumber":75,"Velocity":35,"Duration":149051,"SoundDuration":149051,"Delta":54713781},{"NoteNumber":75,"Velocity":35,"Duration":149051,"SoundDuration":149051,"Delta":54876383},{"NoteNumber":75,"Velocity":39,"Duration":150273,"SoundDuration":150273,"Delta":55038984},{"NoteNumber":75,"Velocity":36,"Duration":150273,"SoundDuration":150273,"Delta":55202919},{"NoteNumber":75,"Velocity":36,"Duration":150273,"SoundDuration":150273,"Delta":55366853},{"NoteNumber":83,"Velocity":56,"Duration":487384,"SoundDuration":487384,"Delta":55530788},{"NoteNumber":80,"Velocity":56,"Duration":487384,"SoundDuration":487384,"Delta":55530788},{"NoteNumber":75,"Velocity":38,"Duration":148247,"SoundDuration":148247,"Delta":55694722},{"NoteNumber":75,"Velocity":38,"Duration":148247,"SoundDuration":148247,"Delta":55856447},{"NoteNumber":71,"Velocity":39,"Duration":163934,"SoundDuration":163934,"Delta":56018172},{"NoteNumber":68,"Velocity":39,"Duration":163934,"SoundDuration":163934,"Delta":56018172},{"NoteNumber":75,"Velocity":37,"Duration":150273,"SoundDuration":150273,"Delta":56182107},{"NoteNumber":75,"Velocity":37,"Duration":150273,"SoundDuration":150273,"Delta":56346041},{"NoteNumber":75,"Velocity":41,"Duration":150273,"SoundDuration":150273,"Delta":56509976},{"NoteNumber":75,"Velocity":37,"Duration":149051,"SoundDuration":149051,"Delta":56673910},{"NoteNumber":75,"Velocity":38,"Duration":149051,"SoundDuration":149051,"Delta":56836512},{"NoteNumber":75,"Velocity":46,"Duration":150273,"SoundDuration":150273,"Delta":56999113},{"NoteNumber":75,"Velocity":40,"Duration":150273,"SoundDuration":150273,"Delta":57163048},{"NoteNumber":75,"Velocity":40,"Duration":150273,"SoundDuration":150273,"Delta":57326982},{"NoteNumber":88,"Velocity":75,"Duration":1960549,"SoundDuration":1960549,"Delta":57490917},{"NoteNumber":80,"Velocity":75,"Duration":1960549,"SoundDuration":1960549,"Delta":57490917},{"NoteNumber":83,"Velocity":75,"Duration":1960549,"SoundDuration":1960549,"Delta":57490917},{"NoteNumber":75,"Velocity":38,"Duration":149051,"SoundDuration":149051,"Delta":57654851},{"NoteNumber":75,"Velocity":38,"Duration":149051,"SoundDuration":149051,"Delta":57817453},{"NoteNumber":68,"Velocity":40,"Duration":162601,"SoundDuration":162601,"Delta":57980054},{"NoteNumber":71,"Velocity":40,"Duration":162601,"SoundDuration":162601,"Delta":57980054},{"NoteNumber":75,"Velocity":37,"Duration":149051,"SoundDuration":149051,"Delta":58142656},{"NoteNumber":75,"Velocity":37,"Duration":149051,"SoundDuration":149051,"Delta":58305257},{"NoteNumber":68,"Velocity":37,"Duration":163934,"SoundDuration":163934,"Delta":58467859},{"NoteNumber":71,"Velocity":37,"Duration":163934,"SoundDuration":163934,"Delta":58467859},{"NoteNumber":75,"Velocity":37,"Duration":150273,"SoundDuration":150273,"Delta":58631793},{"NoteNumber":75,"Velocity":37,"Duration":150273,"SoundDuration":150273,"Delta":58795728},{"NoteNumber":68,"Velocity":37,"Duration":163934,"SoundDuration":163934,"Delta":58959662},{"NoteNumber":71,"Velocity":37,"Duration":163934,"SoundDuration":163934,"Delta":58959662},{"NoteNumber":75,"Velocity":37,"Duration":150273,"SoundDuration":150273,"Delta":59123597},{"NoteNumber":75,"Velocity":37,"Duration":150273,"SoundDuration":150273,"Delta":59287531},{"NoteNumber":82,"Velocity":52,"Duration":326978,"SoundDuration":326978,"Delta":59451466},{"NoteNumber":87,"Velocity":52,"Duration":326978,"SoundDuration":326978,"Delta":59451466},{"NoteNumber":79,"Velocity":52,"Duration":326978,"SoundDuration":326978,"Delta":59451466},{"NoteNumber":67,"Velocity":39,"Duration":163934,"SoundDuration":163934,"Delta":59451466},{"NoteNumber":70,"Velocity":39,"Duration":163934,"SoundDuration":163934,"Delta":59451466},{"NoteNumber":63,"Velocity":37,"Duration":149456,"SoundDuration":149456,"Delta":59615400},{"NoteNumber":63,"Velocity":37,"Duration":149456,"SoundDuration":149456,"Delta":59778444},{"NoteNumber":63,"Velocity":38,"Duration":150273,"SoundDuration":150273,"Delta":59941487},{"NoteNumber":63,"Velocity":37,"Duration":150273,"SoundDuration":150273,"Delta":60105422},{"NoteNumber":63,"Velocity":37,"Duration":150273,"SoundDuration":150273,"Delta":60269356},{"NoteNumber":63,"Velocity":37,"Duration":150273,"SoundDuration":150273,"Delta":60433291},{"NoteNumber":63,"Velocity":37,"Duration":149051,"SoundDuration":149051,"Delta":60597225},{"NoteNumber":63,"Velocity":37,"Duration":149051,"SoundDuration":149051,"Delta":60759827},{"NoteNumber":79,"Velocity":56,"Duration":403296,"SoundDuration":403296,"Delta":60922428},{"NoteNumber":82,"Velocity":56,"Duration":403296,"SoundDuration":403296,"Delta":60922428},{"NoteNumber":63,"Velocity":38,"Duration":150273,"SoundDuration":150273,"Delta":60922428},{"NoteNumber":63,"Velocity":37,"Duration":146276,"SoundDuration":146276,"Delta":61086363},{"NoteNumber":63,"Velocity":37,"Duration":162295,"SoundDuration":162295,"Delta":61245937},{"NoteNumber":82,"Velocity":52,"Duration":99009,"SoundDuration":99009,"Delta":61325725},{"NoteNumber":79,"Velocity":52,"Duration":99009,"SoundDuration":99009,"Delta":61325725},{"NoteNumber":83,"Velocity":58,"Duration":327868,"SoundDuration":327868,"Delta":61424735},{"NoteNumber":80,"Velocity":58,"Duration":327868,"SoundDuration":327868,"Delta":61424735},{"NoteNumber":63,"Velocity":39,"Duration":150273,"SoundDuration":150273,"Delta":61424735},{"NoteNumber":63,"Velocity":37,"Duration":150273,"SoundDuration":150273,"Delta":61588669},{"NoteNumber":79,"Velocity":52,"Duration":160857,"SoundDuration":160857,"Delta":61752604},{"NoteNumber":82,"Velocity":52,"Duration":160857,"SoundDuration":160857,"Delta":61752604},{"NoteNumber":63,"Velocity":37,"Duration":147453,"SoundDuration":147453,"Delta":61752604},{"NoteNumber":63,"Velocity":38,"Duration":147453,"SoundDuration":147453,"Delta":61913462},{"NoteNumber":63,"Velocity":37,"Duration":147453,"SoundDuration":147453,"Delta":62074320},{"NoteNumber":70,"Velocity":50,"Duration":163934,"SoundDuration":163934,"Delta":62235178},{"NoteNumber":67,"Velocity":50,"Duration":163934,"SoundDuration":163934,"Delta":62235178},{"NoteNumber":63,"Velocity":37,"Duration":150273,"SoundDuration":150273,"Delta":62235178},{"NoteNumber":63,"Velocity":38,"Duration":149051,"SoundDuration":149051,"Delta":62399112},{"NoteNumber":63,"Velocity":39,"Duration":149051,"SoundDuration":149051,"Delta":62561714},{"NoteNumber":58,"Velocity":49,"Duration":162601,"SoundDuration":162601,"Delta":62724315},{"NoteNumber":55,"Velocity":49,"Duration":162601,"SoundDuration":162601,"Delta":62724315},{"NoteNumber":63,"Velocity":37,"Duration":149051,"SoundDuration":149051,"Delta":62724315},{"NoteNumber":58,"Velocity":44,"Duration":162601,"SoundDuration":162601,"Delta":62886917},{"NoteNumber":61,"Velocity":44,"Duration":162601,"SoundDuration":162601,"Delta":62886917},{"NoteNumber":63,"Velocity":37,"Duration":150684,"SoundDuration":150684,"Delta":63049518},{"NoteNumber":63,"Velocity":37,"Duration":155971,"SoundDuration":155971,"Delta":63213902},{"NoteNumber":79,"Velocity":58,"Duration":92097,"SoundDuration":92097,"Delta":63294116},{"NoteNumber":82,"Velocity":58,"Duration":92097,"SoundDuration":92097,"Delta":63294116},{"NoteNumber":85,"Velocity":61,"Duration":327869,"SoundDuration":327869,"Delta":63386213},{"NoteNumber":82,"Velocity":61,"Duration":327869,"SoundDuration":327869,"Delta":63386213},{"NoteNumber":63,"Velocity":39,"Duration":150273,"SoundDuration":150273,"Delta":63386213},{"NoteNumber":63,"Velocity":37,"Duration":150273,"SoundDuration":150273,"Delta":63550148},{"NoteNumber":83,"Velocity":52,"Duration":161290,"SoundDuration":161290,"Delta":63714082},{"NoteNumber":80,"Velocity":52,"Duration":161290,"SoundDuration":161290,"Delta":63714082},{"NoteNumber":63,"Velocity":37,"Duration":147849,"SoundDuration":147849,"Delta":63714082},{"NoteNumber":63,"Velocity":37,"Duration":147849,"SoundDuration":147849,"Delta":63875373},{"NoteNumber":63,"Velocity":37,"Duration":147849,"SoundDuration":147849,"Delta":64036663},{"NoteNumber":71,"Velocity":49,"Duration":163934,"SoundDuration":163934,"Delta":64197954},{"NoteNumber":68,"Velocity":49,"Duration":163934,"SoundDuration":163934,"Delta":64197954},{"NoteNumber":63,"Velocity":37,"Duration":150273,"SoundDuration":150273,"Delta":64197954},{"NoteNumber":63,"Velocity":38,"Duration":150273,"SoundDuration":150273,"Delta":64361888},{"NoteNumber":63,"Velocity":37,"Duration":148648,"SoundDuration":148648,"Delta":64525823},{"NoteNumber":59,"Velocity":47,"Duration":158783,"SoundDuration":158783,"Delta":64687985},{"NoteNumber":56,"Velocity":47,"Duration":158783,"SoundDuration":158783,"Delta":64687985},{"NoteNumber":63,"Velocity":37,"Duration":148648,"SoundDuration":148648,"Delta":64687985},{"NoteNumber":59,"Velocity":48,"Duration":162161,"SoundDuration":162161,"Delta":64850147},{"NoteNumber":56,"Velocity":44,"Duration":162161,"SoundDuration":162161,"Delta":64850147},{"NoteNumber":63,"Velocity":37,"Duration":150684,"SoundDuration":150684,"Delta":65012309},{"NoteNumber":63,"Velocity":37,"Duration":166937,"SoundDuration":166937,"Delta":65176692},{"NoteNumber":80,"Velocity":52,"Duration":101695,"SoundDuration":101695,"Delta":65258884},{"NoteNumber":83,"Velocity":52,"Duration":101695,"SoundDuration":101695,"Delta":65258884},{"NoteNumber":80,"Velocity":75,"Duration":1964548,"SoundDuration":1964548,"Delta":65360579},{"NoteNumber":88,"Velocity":75,"Duration":1964548,"SoundDuration":1964548,"Delta":65360579},{"NoteNumber":83,"Velocity":75,"Duration":1964548,"SoundDuration":1964548,"Delta":65360579},{"NoteNumber":63,"Velocity":38,"Duration":149051,"SoundDuration":149051,"Delta":65524513},{"NoteNumber":63,"Velocity":38,"Duration":149051,"SoundDuration":149051,"Delta":65687115},{"NoteNumber":56,"Velocity":40,"Duration":163934,"SoundDuration":163934,"Delta":65849716},{"NoteNumber":59,"Velocity":40,"Duration":163934,"SoundDuration":163934,"Delta":65849716},{"NoteNumber":63,"Velocity":37,"Duration":150273,"SoundDuration":150273,"Delta":66013651},{"NoteNumber":63,"Velocity":37,"Duration":150273,"SoundDuration":150273,"Delta":66177585},{"NoteNumber":59,"Velocity":37,"Duration":163934,"SoundDuration":163934,"Delta":66341520},{"NoteNumber":56,"Velocity":37,"Duration":163934,"SoundDuration":163934,"Delta":66341520},{"NoteNumber":63,"Velocity":37,"Duration":150273,"SoundDuration":150273,"Delta":66505454},{"NoteNumber":63,"Velocity":37,"Duration":150273,"SoundDuration":150273,"Delta":66669389},{"NoteNumber":59,"Velocity":36,"Duration":163934,"SoundDuration":163934,"Delta":66833323},{"NoteNumber":56,"Velocity":36,"Duration":163934,"SoundDuration":163934,"Delta":66833323},{"NoteNumber":63,"Velocity":37,"Duration":150273,"SoundDuration":150273,"Delta":66997258},{"NoteNumber":63,"Velocity":37,"Duration":150273,"SoundDuration":150273,"Delta":67161192},{"NoteNumber":79,"Velocity":61,"Duration":326535,"SoundDuration":326535,"Delta":67325127},{"NoteNumber":87,"Velocity":61,"Duration":326535,"SoundDuration":326535,"Delta":67325127},{"NoteNumber":82,"Velocity":61,"Duration":326535,"SoundDuration":326535,"Delta":67325127},{"NoteNumber":63,"Velocity":38,"Duration":149051,"SoundDuration":149051,"Delta":67489061},{"NoteNumber":63,"Velocity":38,"Duration":149051,"SoundDuration":149051,"Delta":67651663},{"NoteNumber":58,"Velocity":40,"Duration":163934,"SoundDuration":163934,"Delta":67814264},{"NoteNumber":55,"Velocity":40,"Duration":163934,"SoundDuration":163934,"Delta":67814264},{"NoteNumber":63,"Velocity":37,"Duration":150273,"SoundDuration":150273,"Delta":67978199},{"NoteNumber":63,"Velocity":37,"Duration":150273,"SoundDuration":150273,"Delta":68142133},{"NoteNumber":75,"Velocity":52,"Duration":980941,"SoundDuration":980941,"Delta":68306068},{"NoteNumber":66,"Velocity":52,"Duration":980941,"SoundDuration":980941,"Delta":68306068},{"NoteNumber":69,"Velocity":52,"Duration":980941,"SoundDuration":980941,"Delta":68306068},{"NoteNumber":63,"Velocity":37,"Duration":149051,"SoundDuration":149051,"Delta":68470002},{"NoteNumber":63,"Velocity":37,"Duration":149051,"SoundDuration":149051,"Delta":68632604},{"NoteNumber":54,"Velocity":36,"Duration":163934,"SoundDuration":163934,"Delta":68795205},{"NoteNumber":57,"Velocity":36,"Duration":163934,"SoundDuration":163934,"Delta":68795205},{"NoteNumber":63,"Velocity":37,"Duration":150273,"SoundDuration":150273,"Delta":68959140},{"NoteNumber":63,"Velocity":37,"Duration":150273,"SoundDuration":150273,"Delta":69123074},{"NoteNumber":74,"Velocity":52,"Duration":330588,"SoundDuration":330588,"Delta":69287009},{"NoteNumber":65,"Velocity":52,"Duration":330588,"SoundDuration":330588,"Delta":69287009},{"NoteNumber":68,"Velocity":52,"Duration":330588,"SoundDuration":330588,"Delta":69287009},{"NoteNumber":63,"Velocity":37,"Duration":150684,"SoundDuration":150684,"Delta":69453214},{"NoteNumber":63,"Velocity":36,"Duration":150684,"SoundDuration":150684,"Delta":69617597},{"NoteNumber":56,"Velocity":38,"Duration":166666,"SoundDuration":166666,"Delta":69781981},{"NoteNumber":53,"Velocity":38,"Duration":166666,"SoundDuration":166666,"Delta":69781981},{"NoteNumber":63,"Velocity":34,"Duration":152777,"SoundDuration":152777,"Delta":69948647},{"NoteNumber":63,"Velocity":34,"Duration":152777,"SoundDuration":152777,"Delta":70115314},{"NoteNumber":73,"Velocity":46,"Duration":332432,"SoundDuration":332432,"Delta":70281980},{"NoteNumber":64,"Velocity":46,"Duration":332432,"SoundDuration":332432,"Delta":70281980},{"NoteNumber":67,"Velocity":46,"Duration":332432,"SoundDuration":332432,"Delta":70281980},{"NoteNumber":63,"Velocity":32,"Duration":151098,"SoundDuration":151098,"Delta":70449578},{"NoteNumber":63,"Velocity":32,"Duration":151098,"SoundDuration":151098,"Delta":70614413},{"NoteNumber":52,"Velocity":30,"Duration":164835,"SoundDuration":164835,"Delta":70779248},{"NoteNumber":55,"Velocity":30,"Duration":164835,"SoundDuration":164835,"Delta":70779248},{"NoteNumber":63,"Velocity":31,"Duration":151098,"SoundDuration":151098,"Delta":70944083},{"NoteNumber":63,"Velocity":30,"Duration":158501,"SoundDuration":158501,"Delta":71108918},{"NoteNumber":73,"Velocity":41,"Duration":503262,"SoundDuration":503262,"Delta":71281829},{"NoteNumber":63,"Velocity":41,"Duration":503262,"SoundDuration":503262,"Delta":71281829},{"NoteNumber":67,"Velocity":41,"Duration":503262,"SoundDuration":503262,"Delta":71281829},{"NoteNumber":51,"Velocity":25,"Duration":153631,"SoundDuration":153631,"Delta":71449427},{"NoteNumber":51,"Velocity":26,"Duration":154061,"SoundDuration":154061,"Delta":71617025},{"NoteNumber":51,"Velocity":28,"Duration":154061,"SoundDuration":154061,"Delta":71785092},{"NoteNumber":51,"Velocity":26,"Duration":154494,"SoundDuration":154494,"Delta":71953159},{"NoteNumber":51,"Velocity":26,"Duration":154494,"SoundDuration":154494,"Delta":72121698},{"NoteNumber":51,"Velocity":28,"Duration":154929,"SoundDuration":154929,"Delta":72290238},{"NoteNumber":51,"Velocity":26,"Duration":154929,"SoundDuration":154929,"Delta":72459252},{"NoteNumber":51,"Velocity":26,"Duration":155367,"SoundDuration":155367,"Delta":72628266},{"NoteNumber":51,"Velocity":28,"Duration":155367,"SoundDuration":155367,"Delta":72797757},{"NoteNumber":51,"Velocity":26,"Duration":155807,"SoundDuration":155807,"Delta":72967249},{"NoteNumber":51,"Velocity":27,"Duration":155807,"SoundDuration":155807,"Delta":73137220},{"NoteNumber":58,"Velocity":41,"Duration":520244,"SoundDuration":520244,"Delta":73307192},{"NoteNumber":61,"Velocity":41,"Duration":520244,"SoundDuration":520244,"Delta":73307192},{"NoteNumber":55,"Velocity":41,"Duration":520244,"SoundDuration":520244,"Delta":73307192},{"NoteNumber":39,"Velocity":25,"Duration":156249,"SoundDuration":156249,"Delta":73486203},{"NoteNumber":39,"Velocity":26,"Duration":156533,"SoundDuration":156533,"Delta":73656658},{"NoteNumber":39,"Velocity":28,"Duration":156735,"SoundDuration":156735,"Delta":73827436},{"NoteNumber":39,"Velocity":26,"Duration":157142,"SoundDuration":157142,"Delta":73998457},{"NoteNumber":39,"Velocity":26,"Duration":157429,"SoundDuration":157429,"Delta":74169886},{"NoteNumber":39,"Velocity":28,"Duration":157634,"SoundDuration":157634,"Delta":74341642},{"NoteNumber":39,"Velocity":26,"Duration":158752,"SoundDuration":158752,"Delta":74513644},{"NoteNumber":39,"Velocity":26,"Duration":160436,"SoundDuration":160436,"Delta":74686890},{"NoteNumber":39,"Velocity":28,"Duration":162113,"SoundDuration":162113,"Delta":74861989},{"NoteNumber":39,"Velocity":26,"Duration":163868,"SoundDuration":163868,"Delta":75038895},{"NoteNumber":39,"Velocity":27,"Duration":165663,"SoundDuration":165663,"Delta":75217734},{"NoteNumber":32,"Velocity":28,"Duration":190937,"SoundDuration":190937,"Delta":75398549},{"NoteNumber":44,"Velocity":25,"Duration":181608,"SoundDuration":181608,"Delta":75589486},{"NoteNumber":36,"Velocity":20,"Duration":181608,"SoundDuration":181608,"Delta":75589486},{"NoteNumber":39,"Velocity":20,"Duration":181608,"SoundDuration":181608,"Delta":75589486},{"NoteNumber":32,"Velocity":26,"Duration":181609,"SoundDuration":181609,"Delta":75771095},{"NoteNumber":44,"Velocity":28,"Duration":181608,"SoundDuration":181608,"Delta":75952704},{"NoteNumber":36,"Velocity":22,"Duration":181608,"SoundDuration":181608,"Delta":75952704},{"NoteNumber":39,"Velocity":22,"Duration":181608,"SoundDuration":181608,"Delta":75952704},{"NoteNumber":32,"Velocity":26,"Duration":181609,"SoundDuration":181609,"Delta":76134313},{"NoteNumber":44,"Velocity":26,"Duration":181608,"SoundDuration":181608,"Delta":76315922},{"NoteNumber":36,"Velocity":20,"Duration":181608,"SoundDuration":181608,"Delta":76315922},{"NoteNumber":39,"Velocity":20,"Duration":181608,"SoundDuration":181608,"Delta":76315922},{"NoteNumber":32,"Velocity":28,"Duration":181608,"SoundDuration":181608,"Delta":76497531},{"NoteNumber":44,"Velocity":26,"Duration":181609,"SoundDuration":181609,"Delta":76679140},{"NoteNumber":39,"Velocity":20,"Duration":181609,"SoundDuration":181609,"Delta":76679140},{"NoteNumber":36,"Velocity":20,"Duration":181609,"SoundDuration":181609,"Delta":76679140},{"NoteNumber":32,"Velocity":26,"Duration":181608,"SoundDuration":181608,"Delta":76860749},{"NoteNumber":60,"Velocity":44,"Duration":468014,"SoundDuration":468014,"Delta":77042358},{"NoteNumber":36,"Velocity":22,"Duration":181608,"SoundDuration":181608,"Delta":77042358},{"NoteNumber":48,"Velocity":40,"Duration":468014,"SoundDuration":468014,"Delta":77042358},{"NoteNumber":44,"Velocity":28,"Duration":181608,"SoundDuration":181608,"Delta":77042358},{"NoteNumber":39,"Velocity":22,"Duration":181608,"SoundDuration":181608,"Delta":77042358},{"NoteNumber":32,"Velocity":26,"Duration":190937,"SoundDuration":190937,"Delta":77223967},{"NoteNumber":36,"Velocity":21,"Duration":216543,"SoundDuration":216543,"Delta":77414904},{"NoteNumber":39,"Velocity":21,"Duration":216543,"SoundDuration":216543,"Delta":77414904},{"NoteNumber":44,"Velocity":27,"Duration":216543,"SoundDuration":216543,"Delta":77414904},{"NoteNumber":63,"Velocity":40,"Duration":121075,"SoundDuration":121075,"Delta":77510373},{"NoteNumber":51,"Velocity":37,"Duration":121075,"SoundDuration":121075,"Delta":77510373},{"NoteNumber":56,"Velocity":38,"Duration":514868,"SoundDuration":514868,"Delta":77631448},{"NoteNumber":68,"Velocity":41,"Duration":514868,"SoundDuration":514868,"Delta":77631448},{"NoteNumber":32,"Velocity":28,"Duration":171402,"SoundDuration":171402,"Delta":77631448},{"NoteNumber":44,"Velocity":25,"Duration":171732,"SoundDuration":171732,"Delta":77802850},{"NoteNumber":36,"Velocity":20,"Duration":171732,"SoundDuration":171732,"Delta":77802850},{"NoteNumber":39,"Velocity":20,"Duration":171732,"SoundDuration":171732,"Delta":77802850},{"NoteNumber":32,"Velocity":26,"Duration":171733,"SoundDuration":171733,"Delta":77974583},{"NoteNumber":72,"Velocity":44,"Duration":455633,"SoundDuration":455633,"Delta":78146316},{"NoteNumber":60,"Velocity":40,"Duration":455633,"SoundDuration":455633,"Delta":78146316},{"NoteNumber":44,"Velocity":28,"Duration":180050,"SoundDuration":180050,"Delta":78146316},{"NoteNumber":36,"Velocity":22,"Duration":180050,"SoundDuration":180050,"Delta":78146316},{"NoteNumber":39,"Velocity":22,"Duration":180050,"SoundDuration":180050,"Delta":78146316},{"NoteNumber":32,"Velocity":26,"Duration":183722,"SoundDuration":183722,"Delta":78326367},{"NoteNumber":36,"Velocity":20,"Duration":196844,"SoundDuration":196844,"Delta":78510089},{"NoteNumber":39,"Velocity":20,"Duration":196844,"SoundDuration":196844,"Delta":78510089},{"NoteNumber":44,"Velocity":26,"Duration":196844,"SoundDuration":196844,"Delta":78510089},{"NoteNumber":56,"Velocity":36,"Duration":104983,"SoundDuration":104983,"Delta":78601950},{"NoteNumber":68,"Velocity":39,"Duration":104983,"SoundDuration":104983,"Delta":78601950},{"NoteNumber":67,"Velocity":41,"Duration":530997,"SoundDuration":530997,"Delta":78706933},{"NoteNumber":55,"Velocity":38,"Duration":530997,"SoundDuration":530997,"Delta":78706933},{"NoteNumber":34,"Velocity":28,"Duration":180877,"SoundDuration":180877,"Delta":78706933},{"NoteNumber":46,"Velocity":26,"Duration":175060,"SoundDuration":175060,"Delta":78887811},{"NoteNumber":39,"Velocity":20,"Duration":175060,"SoundDuration":175060,"Delta":78887811},{"NoteNumber":37,"Velocity":20,"Duration":175060,"SoundDuration":175060,"Delta":78887811},{"NoteNumber":34,"Velocity":26,"Duration":175060,"SoundDuration":175060,"Delta":79062871},{"NoteNumber":58,"Velocity":40,"Duration":459866,"SoundDuration":459866,"Delta":79237931},{"NoteNumber":70,"Velocity":44,"Duration":459866,"SoundDuration":459866,"Delta":79237931},{"NoteNumber":39,"Velocity":22,"Duration":178528,"SoundDuration":178528,"Delta":79237931},{"NoteNumber":46,"Velocity":28,"Duration":178528,"SoundDuration":178528,"Delta":79237931},{"NoteNumber":37,"Velocity":22,"Duration":178528,"SoundDuration":178528,"Delta":79237931},{"NoteNumber":34,"Velocity":26,"Duration":187558,"SoundDuration":187558,"Delta":79416460},{"NoteNumber":37,"Velocity":21,"Duration":206637,"SoundDuration":206637,"Delta":79604018},{"NoteNumber":46,"Velocity":27,"Duration":206637,"SoundDuration":206637,"Delta":79604018},{"NoteNumber":39,"Velocity":21,"Duration":206637,"SoundDuration":206637,"Delta":79604018},{"NoteNumber":55,"Velocity":36,"Duration":112858,"SoundDuration":112858,"Delta":79697798},{"NoteNumber":67,"Velocity":39,"Duration":112858,"SoundDuration":112858,"Delta":79697798},{"NoteNumber":68,"Velocity":41,"Duration":515198,"SoundDuration":515198,"Delta":79810656},{"NoteNumber":56,"Velocity":38,"Duration":515198,"SoundDuration":515198,"Delta":79810656},{"NoteNumber":36,"Velocity":28,"Duration":171733,"SoundDuration":171733,"Delta":79810656},{"NoteNumber":39,"Velocity":20,"Duration":171733,"SoundDuration":171733,"Delta":79982389},{"NoteNumber":44,"Velocity":20,"Duration":171733,"SoundDuration":171733,"Delta":79982389},{"NoteNumber":48,"Velocity":25,"Duration":171733,"SoundDuration":171733,"Delta":79982389},{"NoteNumber":36,"Velocity":26,"Duration":171732,"SoundDuration":171732,"Delta":80154122},{"NoteNumber":63,"Velocity":40,"Duration":1059197,"SoundDuration":1059197,"Delta":80325855},{"NoteNumber":39,"Velocity":22,"Duration":176533,"SoundDuration":176533,"Delta":80325855},{"NoteNumber":51,"Velocity":40,"Duration":1059197,"SoundDuration":1059197,"Delta":80325855},{"NoteNumber":44,"Velocity":22,"Duration":176533,"SoundDuration":176533,"Delta":80325855},{"NoteNumber":48,"Velocity":28,"Duration":176533,"SoundDuration":176533,"Delta":80325855},{"NoteNumber":36,"Velocity":26,"Duration":176532,"SoundDuration":176532,"Delta":80502388},{"NoteNumber":44,"Velocity":20,"Duration":176533,"SoundDuration":176533,"Delta":80678921},{"NoteNumber":48,"Velocity":26,"Duration":176533,"SoundDuration":176533,"Delta":80678921},{"NoteNumber":39,"Velocity":20,"Duration":176533,"SoundDuration":176533,"Delta":80678921},{"NoteNumber":36,"Velocity":28,"Duration":176532,"SoundDuration":176532,"Delta":80855454},{"NoteNumber":39,"Velocity":20,"Duration":176533,"SoundDuration":176533,"Delta":81031987},{"NoteNumber":44,"Velocity":20,"Duration":176533,"SoundDuration":176533,"Delta":81031987},{"NoteNumber":48,"Velocity":26,"Duration":176533,"SoundDuration":176533,"Delta":81031987},{"NoteNumber":36,"Velocity":26,"Duration":176532,"SoundDuration":176532,"Delta":81208520},{"NoteNumber":65,"Velocity":44,"Duration":457870,"SoundDuration":457870,"Delta":81385053},{"NoteNumber":53,"Velocity":40,"Duration":457870,"SoundDuration":457870,"Delta":81385053},{"NoteNumber":44,"Velocity":28,"Duration":176533,"SoundDuration":176533,"Delta":81385053},{"NoteNumber":37,"Velocity":26,"Duration":187558,"SoundDuration":187558,"Delta":81561586},{"NoteNumber":44,"Velocity":27,"Duration":206231,"SoundDuration":206231,"Delta":81749144},{"NoteNumber":61,"Velocity":40,"Duration":112452,"SoundDuration":112452,"Delta":81842924},{"NoteNumber":49,"Velocity":37,"Duration":112452,"SoundDuration":112452,"Delta":81842924},{"NoteNumber":60,"Velocity":44,"Duration":513816,"SoundDuration":513816,"Delta":81955376},{"NoteNumber":48,"Velocity":40,"Duration":513816,"SoundDuration":513816,"Delta":81955376},{"NoteNumber":39,"Velocity":28,"Duration":171272,"SoundDuration":171272,"Delta":81955376},{"NoteNumber":44,"Velocity":25,"Duration":171272,"SoundDuration":171272,"Delta":82126648},{"NoteNumber":39,"Velocity":26,"Duration":171272,"SoundDuration":171272,"Delta":82297920},{"NoteNumber":63,"Velocity":44,"Duration":456949,"SoundDuration":456949,"Delta":82469192},{"NoteNumber":44,"Velocity":28,"Duration":180570,"SoundDuration":180570,"Delta":82469192},{"NoteNumber":51,"Velocity":40,"Duration":456949,"SoundDuration":456949,"Delta":82469192},{"NoteNumber":39,"Velocity":25,"Duration":184252,"SoundDuration":184252,"Delta":82649762},{"NoteNumber":44,"Velocity":25,"Duration":197109,"SoundDuration":197109,"Delta":82834015},{"NoteNumber":60,"Velocity":39,"Duration":104983,"SoundDuration":104983,"Delta":82926141},{"NoteNumber":48,"Velocity":36,"Duration":104983,"SoundDuration":104983,"Delta":82926141},{"NoteNumber":58,"Velocity":44,"Duration":530997,"SoundDuration":530997,"Delta":83031124},{"NoteNumber":46,"Velocity":40,"Duration":530997,"SoundDuration":530997,"Delta":83031124},{"NoteNumber":39,"Velocity":28,"Duration":180877,"SoundDuration":180877,"Delta":83031124},{"NoteNumber":43,"Velocity":25,"Duration":175060,"SoundDuration":175060,"Delta":83212002},{"NoteNumber":39,"Velocity":25,"Duration":175060,"SoundDuration":175060,"Delta":83387062},{"NoteNumber":63,"Velocity":44,"Duration":466676,"SoundDuration":466676,"Delta":83562122},{"NoteNumber":51,"Velocity":40,"Duration":466676,"SoundDuration":466676,"Delta":83562122},{"NoteNumber":43,"Velocity":28,"Duration":178528,"SoundDuration":178528,"Delta":83562122},{"NoteNumber":39,"Velocity":25,"Duration":192098,"SoundDuration":192098,"Delta":83740651},{"NoteNumber":43,"Velocity":25,"Duration":213955,"SoundDuration":213955,"Delta":83932750},{"NoteNumber":61,"Velocity":39,"Duration":117906,"SoundDuration":117906,"Delta":84028799},{"NoteNumber":49,"Velocity":36,"Duration":117906,"SoundDuration":117906,"Delta":84028799},{"NoteNumber":60,"Velocity":42,"Duration":551165,"SoundDuration":551165,"Delta":84146705},{"NoteNumber":44,"Velocity":28,"Duration":183722,"SoundDuration":183722,"Delta":84146705},{"NoteNumber":56,"Velocity":25,"Duration":183722,"SoundDuration":183722,"Delta":84330427},{"NoteNumber":48,"Velocity":20,"Duration":183722,"SoundDuration":183722,"Delta":84330427},{"NoteNumber":51,"Velocity":20,"Duration":183722,"SoundDuration":183722,"Delta":84330427},{"NoteNumber":44,"Velocity":27,"Duration":183721,"SoundDuration":183721,"Delta":84514149},{"NoteNumber":63,"Velocity":42,"Duration":1077263,"SoundDuration":1077263,"Delta":84697871},{"NoteNumber":56,"Velocity":29,"Duration":179544,"SoundDuration":179544,"Delta":84697871},{"NoteNumber":48,"Velocity":23,"Duration":179544,"SoundDuration":179544,"Delta":84697871},{"NoteNumber":51,"Velocity":23,"Duration":179544,"SoundDuration":179544,"Delta":84697871},{"NoteNumber":44,"Velocity":28,"Duration":179543,"SoundDuration":179543,"Delta":84877415},{"NoteNumber":56,"Velocity":29,"Duration":179544,"SoundDuration":179544,"Delta":85056959},{"NoteNumber":48,"Velocity":22,"Duration":179544,"SoundDuration":179544,"Delta":85056959},{"NoteNumber":51,"Velocity":22,"Duration":179544,"SoundDuration":179544,"Delta":85056959},{"NoteNumber":44,"Velocity":32,"Duration":179543,"SoundDuration":179543,"Delta":85236503},{"NoteNumber":56,"Velocity":31,"Duration":179544,"SoundDuration":179544,"Delta":85416047},{"NoteNumber":51,"Velocity":24,"Duration":179544,"SoundDuration":179544,"Delta":85416047},{"NoteNumber":48,"Velocity":24,"Duration":179544,"SoundDuration":179544,"Delta":85416047},{"NoteNumber":44,"Velocity":31,"Duration":179543,"SoundDuration":179543,"Delta":85595591},{"NoteNumber":72,"Velocity":55,"Duration":460881,"SoundDuration":460881,"Delta":85775135},{"NoteNumber":48,"Velocity":27,"Duration":179544,"SoundDuration":179544,"Delta":85775135},{"NoteNumber":51,"Velocity":27,"Duration":179544,"SoundDuration":179544,"Delta":85775135},{"NoteNumber":56,"Velocity":35,"Duration":179544,"SoundDuration":179544,"Delta":85775135},{"NoteNumber":60,"Velocity":51,"Duration":460881,"SoundDuration":460881,"Delta":85775135},{"NoteNumber":44,"Velocity":33,"Duration":187558,"SoundDuration":187558,"Delta":85954679},{"NoteNumber":48,"Velocity":27,"Duration":215315,"SoundDuration":215315,"Delta":86142237},{"NoteNumber":51,"Velocity":27,"Duration":215315,"SoundDuration":215315,"Delta":86142237},{"NoteNumber":56,"Velocity":34,"Duration":215315,"SoundDuration":215315,"Delta":86142237},{"NoteNumber":75,"Velocity":53,"Duration":121536,"SoundDuration":121536,"Delta":86236017},{"NoteNumber":63,"Velocity":49,"Duration":121536,"SoundDuration":121536,"Delta":86236017},{"NoteNumber":80,"Velocity":56,"Duration":531067,"SoundDuration":531067,"Delta":86357553},{"NoteNumber":68,"Velocity":51,"Duration":531067,"SoundDuration":531067,"Delta":86357553},{"NoteNumber":44,"Velocity":37,"Duration":177022,"SoundDuration":177022,"Delta":86357553},{"NoteNumber":56,"Velocity":34,"Duration":177022,"SoundDuration":177022,"Delta":86534575},{"NoteNumber":51,"Velocity":27,"Duration":177022,"SoundDuration":177022,"Delta":86534575},{"NoteNumber":48,"Velocity":27,"Duration":177022,"SoundDuration":177022,"Delta":86534575},{"NoteNumber":44,"Velocity":36,"Duration":177022,"SoundDuration":177022,"Delta":86711598},{"NoteNumber":72,"Velocity":57,"Duration":451208,"SoundDuration":451208,"Delta":86888620},{"NoteNumber":84,"Velocity":62,"Duration":451208,"SoundDuration":451208,"Delta":86888620},{"NoteNumber":56,"Velocity":39,"Duration":178794,"SoundDuration":178794,"Delta":86888620},{"NoteNumber":51,"Velocity":30,"Duration":178794,"SoundDuration":178794,"Delta":86888620},{"NoteNumber":48,"Velocity":30,"Duration":178794,"SoundDuration":178794,"Delta":86888620},{"NoteNumber":44,"Velocity":37,"Duration":181608,"SoundDuration":181608,"Delta":87067415},{"NoteNumber":48,"Velocity":29,"Duration":195787,"SoundDuration":195787,"Delta":87249024},{"NoteNumber":56,"Velocity":38,"Duration":195787,"SoundDuration":195787,"Delta":87249024},{"NoteNumber":51,"Velocity":29,"Duration":195787,"SoundDuration":195787,"Delta":87249024},{"NoteNumber":80,"Velocity":58,"Duration":104983,"SoundDuration":104983,"Delta":87339829},{"NoteNumber":68,"Velocity":53,"Duration":104983,"SoundDuration":104983,"Delta":87339829},{"NoteNumber":67,"Velocity":57,"Duration":530997,"SoundDuration":530997,"Delta":87444812},{"NoteNumber":79,"Velocity":61,"Duration":530997,"SoundDuration":530997,"Delta":87444812},{"NoteNumber":46,"Velocity":40,"Duration":180877,"SoundDuration":180877,"Delta":87444812},{"NoteNumber":58,"Velocity":38,"Duration":175060,"SoundDuration":175060,"Delta":87625690},{"NoteNumber":51,"Velocity":29,"Duration":175060,"SoundDuration":175060,"Delta":87625690},{"NoteNumber":49,"Velocity":29,"Duration":175060,"SoundDuration":175060,"Delta":87625690},{"NoteNumber":46,"Velocity":39,"Duration":175060,"SoundDuration":175060,"Delta":87800750},{"NoteNumber":70,"Velocity":62,"Duration":464521,"SoundDuration":464521,"Delta":87975810},{"NoteNumber":82,"Velocity":68,"Duration":464521,"SoundDuration":464521,"Delta":87975810},{"NoteNumber":51,"Velocity":34,"Duration":183183,"SoundDuration":183183,"Delta":87975810},{"NoteNumber":58,"Velocity":42,"Duration":183183,"SoundDuration":183183,"Delta":87975810},{"NoteNumber":49,"Velocity":34,"Duration":183183,"SoundDuration":183183,"Delta":87975810},{"NoteNumber":46,"Velocity":40,"Duration":187558,"SoundDuration":187558,"Delta":88158993},{"NoteNumber":49,"Velocity":33,"Duration":229525,"SoundDuration":229525,"Delta":88346552},{"NoteNumber":58,"Velocity":42,"Duration":229525,"SoundDuration":229525,"Delta":88346552},{"NoteNumber":51,"Velocity":33,"Duration":229525,"SoundDuration":229525,"Delta":88346552},{"NoteNumber":79,"Velocity":63,"Duration":135746,"SoundDuration":135746,"Delta":88440331},{"NoteNumber":67,"Velocity":58,"Duration":135746,"SoundDuration":135746,"Delta":88440331},{"NoteNumber":68,"Velocity":51,"Duration":538632,"SoundDuration":538632,"Delta":88576078},{"NoteNumber":80,"Velocity":57,"Duration":538632,"SoundDuration":538632,"Delta":88576078},{"NoteNumber":60,"Velocity":36,"Duration":2101221,"SoundDuration":2101221,"Delta":88576078},{"NoteNumber":51,"Velocity":28,"Duration":2101221,"SoundDuration":2101221,"Delta":88576078},{"NoteNumber":48,"Velocity":28,"Duration":2101221,"SoundDuration":2101221,"Delta":88576078},{"NoteNumber":56,"Velocity":36,"Duration":2101221,"SoundDuration":2101221,"Delta":88576078},{"NoteNumber":63,"Velocity":45,"Duration":1562589,"SoundDuration":1562589,"Delta":89114710},{"NoteNumber":75,"Velocity":52,"Duration":1562589,"SoundDuration":1562589,"Delta":89114710},{"NoteNumber":76,"Velocity":85,"Duration":543807,"SoundDuration":543807,"Delta":90677299},{"NoteNumber":64,"Velocity":72,"Duration":543807,"SoundDuration":543807,"Delta":90677299},{"NoteNumber":56,"Velocity":59,"Duration":543807,"SoundDuration":543807,"Delta":90677299},{"NoteNumber":49,"Velocity":50,"Duration":2023258,"SoundDuration":2023258,"Delta":90677299},{"NoteNumber":52,"Velocity":50,"Duration":2023258,"SoundDuration":2023258,"Delta":90677299},{"NoteNumber":61,"Velocity":69,"Duration":1479451,"SoundDuration":1479451,"Delta":91221106},{"NoteNumber":73,"Velocity":81,"Duration":1479451,"SoundDuration":1479451,"Delta":91221106},{"NoteNumber":57,"Velocity":57,"Duration":1479451,"SoundDuration":1479451,"Delta":91221106},{"NoteNumber":71,"Velocity":58,"Duration":1504178,"SoundDuration":1504178,"Delta":92700557},{"NoteNumber":56,"Velocity":36,"Duration":2046533,"SoundDuration":2046533,"Delta":92700557},{"NoteNumber":51,"Velocity":28,"Duration":2046533,"SoundDuration":2046533,"Delta":92700557},{"NoteNumber":59,"Velocity":36,"Duration":2046533,"SoundDuration":2046533,"Delta":92700557},{"NoteNumber":70,"Velocity":51,"Duration":345821,"SoundDuration":345821,"Delta":94204736},{"NoteNumber":68,"Velocity":49,"Duration":148515,"SoundDuration":148515,"Delta":94550557},{"NoteNumber":69,"Velocity":38,"Duration":48018,"SoundDuration":48018,"Delta":94699072},{"NoteNumber":70,"Velocity":44,"Duration":89686,"SoundDuration":89686,"Delta":94747091},{"NoteNumber":55,"Velocity":31,"Duration":2071518,"SoundDuration":2071518,"Delta":94747091},{"NoteNumber":61,"Velocity":31,"Duration":2071518,"SoundDuration":2071518,"Delta":94747091},{"NoteNumber":51,"Velocity":25,"Duration":2071518,"SoundDuration":2071518,"Delta":94747091},{"NoteNumber":71,"Velocity":38,"Duration":88889,"SoundDuration":88889,"Delta":94836777},{"NoteNumber":70,"Velocity":46,"Duration":87210,"SoundDuration":87210,"Delta":94925667},{"NoteNumber":71,"Velocity":40,"Duration":88238,"SoundDuration":88238,"Delta":95012877},{"NoteNumber":70,"Velocity":47,"Duration":87886,"SoundDuration":87886,"Delta":95101115},{"NoteNumber":71,"Velocity":40,"Duration":86207,"SoundDuration":86207,"Delta":95189002},{"NoteNumber":70,"Velocity":48,"Duration":85865,"SoundDuration":85865,"Delta":95275209},{"NoteNumber":71,"Velocity":41,"Duration":84900,"SoundDuration":84900,"Delta":95361075},{"NoteNumber":70,"Velocity":49,"Duration":85261,"SoundDuration":85261,"Delta":95445976},{"NoteNumber":71,"Velocity":42,"Duration":84246,"SoundDuration":84246,"Delta":95531237},{"NoteNumber":70,"Velocity":50,"Duration":85010,"SoundDuration":85010,"Delta":95615484},{"NoteNumber":71,"Velocity":42,"Duration":84948,"SoundDuration":84948,"Delta":95700494},{"NoteNumber":70,"Velocity":51,"Duration":85028,"SoundDuration":85028,"Delta":95785443},{"NoteNumber":71,"Velocity":44,"Duration":85350,"SoundDuration":85350,"Delta":95870472},{"NoteNumber":70,"Velocity":51,"Duration":85432,"SoundDuration":85432,"Delta":95955822},{"NoteNumber":71,"Velocity":45,"Duration":85389,"SoundDuration":85389,"Delta":96041255},{"NoteNumber":70,"Velocity":52,"Duration":85927,"SoundDuration":85927,"Delta":96126644},{"NoteNumber":71,"Velocity":46,"Duration":85221,"SoundDuration":85221,"Delta":96212572},{"NoteNumber":70,"Velocity":53,"Duration":86531,"SoundDuration":86531,"Delta":96297793},{"NoteNumber":71,"Velocity":48,"Duration":85970,"SoundDuration":85970,"Delta":96384324},{"NoteNumber":70,"Velocity":55,"Duration":86124,"SoundDuration":86124,"Delta":96470294},{"NoteNumber":71,"Velocity":48,"Duration":86705,"SoundDuration":86705,"Delta":96556419},{"NoteNumber":70,"Velocity":56,"Duration":87506,"SoundDuration":87506,"Delta":96643124},{"NoteNumber":71,"Velocity":48,"Duration":87977,"SoundDuration":87977,"Delta":96730631},{"NoteNumber":76,"Velocity":46,"Duration":98564,"SoundDuration":98564,"Delta":96818609},{"NoteNumber":75,"Velocity":39,"Duration":86523,"SoundDuration":86523,"Delta":96917173},{"NoteNumber":76,"Velocity":46,"Duration":86147,"SoundDuration":86147,"Delta":97003696},{"NoteNumber":75,"Velocity":40,"Duration":86191,"SoundDuration":86191,"Delta":97089843},{"NoteNumber":76,"Velocity":48,"Duration":85123,"SoundDuration":85123,"Delta":97176035},{"NoteNumber":75,"Velocity":41,"Duration":84895,"SoundDuration":84895,"Delta":97261159},{"NoteNumber":76,"Velocity":50,"Duration":85018,"SoundDuration":85018,"Delta":97346054},{"NoteNumber":75,"Velocity":44,"Duration":84239,"SoundDuration":84239,"Delta":97431073},{"NoteNumber":76,"Velocity":51,"Duration":84128,"SoundDuration":84128,"Delta":97515312},{"NoteNumber":75,"Velocity":45,"Duration":84349,"SoundDuration":84349,"Delta":97599441},{"NoteNumber":76,"Velocity":53,"Duration":84278,"SoundDuration":84278,"Delta":97683790},{"NoteNumber":75,"Velocity":47,"Duration":84475,"SoundDuration":84475,"Delta":97768068},{"NoteNumber":76,"Velocity":56,"Duration":84421,"SoundDuration":84421,"Delta":97852544},{"NoteNumber":75,"Velocity":48,"Duration":84953,"SoundDuration":84953,"Delta":97936966},{"NoteNumber":76,"Velocity":56,"Duration":84802,"SoundDuration":84802,"Delta":98021920},{"NoteNumber":75,"Velocity":47,"Duration":84922,"SoundDuration":84922,"Delta":98106722},{"NoteNumber":76,"Velocity":56,"Duration":85260,"SoundDuration":85260,"Delta":98191644},{"NoteNumber":75,"Velocity":48,"Duration":85204,"SoundDuration":85204,"Delta":98276905},{"NoteNumber":76,"Velocity":56,"Duration":85600,"SoundDuration":85600,"Delta":98362109},{"NoteNumber":75,"Velocity":49,"Duration":85993,"SoundDuration":85993,"Delta":98447709},{"NoteNumber":76,"Velocity":56,"Duration":85690,"SoundDuration":85690,"Delta":98533703},{"NoteNumber":75,"Velocity":49,"Duration":86751,"SoundDuration":86751,"Delta":98619394},{"NoteNumber":74,"Velocity":56,"Duration":86999,"SoundDuration":86999,"Delta":98706145},{"NoteNumber":75,"Velocity":48,"Duration":87463,"SoundDuration":87463,"Delta":98793145},{"NoteNumber":88,"Velocity":55,"Duration":98221,"SoundDuration":98221,"Delta":98880608},{"NoteNumber":87,"Velocity":46,"Duration":86122,"SoundDuration":86122,"Delta":98978830},{"NoteNumber":88,"Velocity":55,"Duration":84739,"SoundDuration":84739,"Delta":99064952},{"NoteNumber":87,"Velocity":48,"Duration":83959,"SoundDuration":83959,"Delta":99149691},{"NoteNumber":88,"Velocity":57,"Duration":82910,"SoundDuration":82910,"Delta":99233650},{"NoteNumber":87,"Velocity":50,"Duration":82061,"SoundDuration":82061,"Delta":99316561},{"NoteNumber":88,"Velocity":60,"Duration":81303,"SoundDuration":81303,"Delta":99398623},{"NoteNumber":87,"Velocity":51,"Duration":81588,"SoundDuration":81588,"Delta":99479926},{"NoteNumber":88,"Velocity":62,"Duration":81060,"SoundDuration":81060,"Delta":99561515},{"NoteNumber":87,"Velocity":52,"Duration":80972,"SoundDuration":80972,"Delta":99642576},{"NoteNumber":88,"Velocity":63,"Duration":81037,"SoundDuration":81037,"Delta":99723549},{"NoteNumber":87,"Velocity":55,"Duration":81135,"SoundDuration":81135,"Delta":99804587},{"NoteNumber":88,"Velocity":67,"Duration":81826,"SoundDuration":81826,"Delta":99885722},{"NoteNumber":87,"Velocity":56,"Duration":81186,"SoundDuration":81186,"Delta":99967548},{"NoteNumber":88,"Velocity":68,"Duration":81119,"SoundDuration":81119,"Delta":100048734},{"NoteNumber":87,"Velocity":57,"Duration":82075,"SoundDuration":82075,"Delta":100129854},{"NoteNumber":88,"Velocity":67,"Duration":82808,"SoundDuration":82808,"Delta":100211929},{"NoteNumber":87,"Velocity":56,"Duration":84176,"SoundDuration":84176,"Delta":100294738},{"NoteNumber":88,"Velocity":67,"Duration":84428,"SoundDuration":84428,"Delta":100378914},{"NoteNumber":87,"Velocity":58,"Duration":85260,"SoundDuration":85260,"Delta":100463343},{"NoteNumber":88,"Velocity":67,"Duration":86012,"SoundDuration":86012,"Delta":100548603},{"NoteNumber":87,"Velocity":58,"Duration":86159,"SoundDuration":86159,"Delta":100634616},{"NoteNumber":86,"Velocity":67,"Duration":87506,"SoundDuration":87506,"Delta":100720776},{"NoteNumber":87,"Velocity":56,"Duration":87463,"SoundDuration":87463,"Delta":100808282},{"NoteNumber":88,"Velocity":64,"Duration":180723,"SoundDuration":180723,"Delta":100895746},{"NoteNumber":87,"Velocity":55,"Duration":180723,"SoundDuration":180723,"Delta":101076469},{"NoteNumber":85,"Velocity":48,"Duration":180723,"SoundDuration":180723,"Delta":101257192},{"NoteNumber":83,"Velocity":49,"Duration":180723,"SoundDuration":180723,"Delta":101437915},{"NoteNumber":82,"Velocity":48,"Duration":180723,"SoundDuration":180723,"Delta":101618638},{"NoteNumber":80,"Velocity":48,"Duration":180723,"SoundDuration":180723,"Delta":101799361},{"NoteNumber":79,"Velocity":49,"Duration":180723,"SoundDuration":180723,"Delta":101980084},{"NoteNumber":78,"Velocity":47,"Duration":180723,"SoundDuration":180723,"Delta":102160807},{"NoteNumber":76,"Velocity":47,"Duration":180723,"SoundDuration":180723,"Delta":102341530},{"NoteNumber":75,"Velocity":48,"Duration":180723,"SoundDuration":180723,"Delta":102522253},{"NoteNumber":73,"Velocity":48,"Duration":180723,"SoundDuration":180723,"Delta":102702976},{"NoteNumber":71,"Velocity":45,"Duration":180677,"SoundDuration":180677,"Delta":102883699},{"NoteNumber":70,"Velocity":48,"Duration":180723,"SoundDuration":180723,"Delta":103064377},{"NoteNumber":68,"Velocity":44,"Duration":182187,"SoundDuration":182187,"Delta":103245101},{"NoteNumber":67,"Velocity":44,"Duration":183674,"SoundDuration":183674,"Delta":103427288},{"NoteNumber":66,"Velocity":45,"Duration":185186,"SoundDuration":185186,"Delta":103610963},{"NoteNumber":64,"Velocity":45,"Duration":186335,"SoundDuration":186335,"Delta":103796149},{"NoteNumber":63,"Velocity":45,"Duration":186335,"SoundDuration":186335,"Delta":103982485},{"NoteNumber":61,"Velocity":45,"Duration":186335,"SoundDuration":186335,"Delta":104168820},{"NoteNumber":59,"Velocity":44,"Duration":186335,"SoundDuration":186335,"Delta":104355156},{"NoteNumber":58,"Velocity":42,"Duration":186335,"SoundDuration":186335,"Delta":104541491},{"NoteNumber":56,"Velocity":42,"Duration":186335,"SoundDuration":186335,"Delta":104727827},{"NoteNumber":55,"Velocity":41,"Duration":186335,"SoundDuration":186335,"Delta":104914162},{"NoteNumber":54,"Velocity":39,"Duration":186335,"SoundDuration":186335,"Delta":105100498},{"NoteNumber":52,"Velocity":42,"Duration":185758,"SoundDuration":185758,"Delta":105286833},{"NoteNumber":51,"Velocity":41,"Duration":186335,"SoundDuration":186335,"Delta":105472592},{"NoteNumber":49,"Velocity":41,"Duration":186915,"SoundDuration":186915,"Delta":105658927},{"NoteNumber":47,"Velocity":40,"Duration":187500,"SoundDuration":187500,"Delta":105845843},{"NoteNumber":46,"Velocity":39,"Duration":188087,"SoundDuration":188087,"Delta":106033343},{"NoteNumber":44,"Velocity":39,"Duration":188728,"SoundDuration":188728,"Delta":106221431},{"NoteNumber":43,"Velocity":42,"Duration":189274,"SoundDuration":189274,"Delta":106410160},{"NoteNumber":42,"Velocity":41,"Duration":189274,"SoundDuration":189274,"Delta":106599434},{"NoteNumber":41,"Velocity":41,"Duration":189274,"SoundDuration":189274,"Delta":106788709},{"NoteNumber":39,"Velocity":41,"Duration":189274,"SoundDuration":189274,"Delta":106977983},{"NoteNumber":37,"Velocity":41,"Duration":189274,"SoundDuration":189274,"Delta":107167258},{"NoteNumber":35,"Velocity":41,"Duration":200669,"SoundDuration":200669,"Delta":107356532},{"NoteNumber":34,"Velocity":42,"Duration":192925,"SoundDuration":192925,"Delta":107557201},{"NoteNumber":35,"Velocity":42,"Duration":192925,"SoundDuration":192925,"Delta":107750127},{"NoteNumber":37,"Velocity":42,"Duration":192925,"SoundDuration":192925,"Delta":107943053},{"NoteNumber":39,"Velocity":42,"Duration":192925,"SoundDuration":192925,"Delta":108135979},{"NoteNumber":40,"Velocity":41,"Duration":192925,"SoundDuration":192925,"Delta":108328905},{"NoteNumber":39,"Velocity":39,"Duration":201342,"SoundDuration":201342,"Delta":108521831},{"NoteNumber":37,"Velocity":42,"Duration":193834,"SoundDuration":193834,"Delta":108723174},{"NoteNumber":35,"Velocity":40,"Duration":194806,"SoundDuration":194806,"Delta":108917009},{"NoteNumber":34,"Velocity":40,"Duration":196615,"SoundDuration":196615,"Delta":109111815},{"NoteNumber":39,"Velocity":45,"Duration":198349,"SoundDuration":198349,"Delta":109308430},{"NoteNumber":37,"Velocity":42,"Duration":200335,"SoundDuration":200335,"Delta":109506779},{"NoteNumber":39,"Velocity":40,"Duration":209789,"SoundDuration":209789,"Delta":109707115},{"NoteNumber":56,"Velocity":83,"Duration":91446,"SoundDuration":91446,"Delta":109916905},{"NoteNumber":32,"Velocity":64,"Duration":91446,"SoundDuration":91446,"Delta":109916905},{"NoteNumber":51,"Velocity":66,"Duration":91446,"SoundDuration":91446,"Delta":110008352},{"NoteNumber":39,"Velocity":52,"Duration":91446,"SoundDuration":91446,"Delta":110008352},{"NoteNumber":47,"Velocity":66,"Duration":91446,"SoundDuration":91446,"Delta":110099799},{"NoteNumber":44,"Velocity":52,"Duration":91446,"SoundDuration":91446,"Delta":110099799},{"NoteNumber":51,"Velocity":66,"Duration":91446,"SoundDuration":91446,"Delta":110191246},{"NoteNumber":39,"Velocity":52,"Duration":91446,"SoundDuration":91446,"Delta":110191246},{"NoteNumber":56,"Velocity":80,"Duration":97244,"SoundDuration":97244,"Delta":110282692},{"NoteNumber":32,"Velocity":58,"Duration":97244,"SoundDuration":97244,"Delta":110282692},{"NoteNumber":51,"Velocity":64,"Duration":97244,"SoundDuration":97244,"Delta":110379937},{"NoteNumber":39,"Velocity":51,"Duration":97244,"SoundDuration":97244,"Delta":110379937},{"NoteNumber":59,"Velocity":84,"Duration":91742,"SoundDuration":91742,"Delta":110477182},{"NoteNumber":32,"Velocity":68,"Duration":91742,"SoundDuration":91742,"Delta":110477182},{"NoteNumber":51,"Velocity":66,"Duration":91743,"SoundDuration":91743,"Delta":110568925},{"NoteNumber":39,"Velocity":52,"Duration":91743,"SoundDuration":91743,"Delta":110568925},{"NoteNumber":58,"Velocity":83,"Duration":91742,"SoundDuration":91742,"Delta":110660668},{"NoteNumber":32,"Velocity":64,"Duration":91742,"SoundDuration":91742,"Delta":110660668},{"NoteNumber":51,"Velocity":66,"Duration":91743,"SoundDuration":91743,"Delta":110752411},{"NoteNumber":39,"Velocity":52,"Duration":91743,"SoundDuration":91743,"Delta":110752411},{"NoteNumber":56,"Velocity":81,"Duration":93679,"SoundDuration":93679,"Delta":110844154},{"NoteNumber":32,"Velocity":62,"Duration":93679,"SoundDuration":93679,"Delta":110844154},{"NoteNumber":51,"Velocity":66,"Duration":93679,"SoundDuration":93679,"Delta":110937834},{"NoteNumber":39,"Velocity":52,"Duration":93679,"SoundDuration":93679,"Delta":110937834},{"NoteNumber":56,"Velocity":83,"Duration":90367,"SoundDuration":90367,"Delta":111031513},{"NoteNumber":32,"Velocity":64,"Duration":90367,"SoundDuration":90367,"Delta":111031513},{"NoteNumber":51,"Velocity":63,"Duration":90367,"SoundDuration":90367,"Delta":111121880},{"NoteNumber":39,"Velocity":52,"Duration":90367,"SoundDuration":90367,"Delta":111121880},{"NoteNumber":47,"Velocity":63,"Duration":90367,"SoundDuration":90367,"Delta":111212247},{"NoteNumber":44,"Velocity":52,"Duration":90367,"SoundDuration":90367,"Delta":111212247},{"NoteNumber":51,"Velocity":63,"Duration":90367,"SoundDuration":90367,"Delta":111302614},{"NoteNumber":39,"Velocity":52,"Duration":90367,"SoundDuration":90367,"Delta":111302614},{"NoteNumber":56,"Velocity":79,"Duration":95913,"SoundDuration":95913,"Delta":111392981},{"NoteNumber":32,"Velocity":58,"Duration":95913,"SoundDuration":95913,"Delta":111392981},{"NoteNumber":51,"Velocity":62,"Duration":95914,"SoundDuration":95914,"Delta":111488895},{"NoteNumber":39,"Velocity":51,"Duration":95914,"SoundDuration":95914,"Delta":111488895},{"NoteNumber":59,"Velocity":83,"Duration":91185,"SoundDuration":91185,"Delta":111584809},{"NoteNumber":32,"Velocity":68,"Duration":91185,"SoundDuration":91185,"Delta":111584809},{"NoteNumber":51,"Velocity":63,"Duration":91185,"SoundDuration":91185,"Delta":111675995},{"NoteNumber":39,"Velocity":52,"Duration":91185,"SoundDuration":91185,"Delta":111675995},{"NoteNumber":58,"Velocity":80,"Duration":91185,"SoundDuration":91185,"Delta":111767180},{"NoteNumber":32,"Velocity":64,"Duration":91185,"SoundDuration":91185,"Delta":111767180},{"NoteNumber":51,"Velocity":66,"Duration":91185,"SoundDuration":91185,"Delta":111858366},{"NoteNumber":39,"Velocity":52,"Duration":91185,"SoundDuration":91185,"Delta":111858366},{"NoteNumber":56,"Velocity":80,"Duration":97586,"SoundDuration":97586,"Delta":111949551},{"NoteNumber":32,"Velocity":62,"Duration":97586,"SoundDuration":97586,"Delta":111949551},{"NoteNumber":51,"Velocity":64,"Duration":97586,"SoundDuration":97586,"Delta":112047138},{"NoteNumber":39,"Velocity":52,"Duration":97586,"SoundDuration":97586,"Delta":112047138},{"NoteNumber":64,"Velocity":83,"Duration":90367,"SoundDuration":90367,"Delta":112144724},{"NoteNumber":32,"Velocity":64,"Duration":90367,"SoundDuration":90367,"Delta":112144724},{"NoteNumber":59,"Velocity":66,"Duration":90367,"SoundDuration":90367,"Delta":112235091},{"NoteNumber":40,"Velocity":52,"Duration":90367,"SoundDuration":90367,"Delta":112235091},{"NoteNumber":56,"Velocity":66,"Duration":90367,"SoundDuration":90367,"Delta":112325458},{"NoteNumber":44,"Velocity":52,"Duration":90367,"SoundDuration":90367,"Delta":112325458},{"NoteNumber":59,"Velocity":66,"Duration":90367,"SoundDuration":90367,"Delta":112415825},{"NoteNumber":40,"Velocity":52,"Duration":90367,"SoundDuration":90367,"Delta":112415825},{"NoteNumber":64,"Velocity":80,"Duration":97244,"SoundDuration":97244,"Delta":112506192},{"NoteNumber":32,"Velocity":58,"Duration":97244,"SoundDuration":97244,"Delta":112506192},{"NoteNumber":59,"Velocity":64,"Duration":97244,"SoundDuration":97244,"Delta":112603437},{"NoteNumber":40,"Velocity":51,"Duration":97244,"SoundDuration":97244,"Delta":112603437},{"NoteNumber":68,"Velocity":84,"Duration":91742,"SoundDuration":91742,"Delta":112700681},{"NoteNumber":32,"Velocity":68,"Duration":91742,"SoundDuration":91742,"Delta":112700681},{"NoteNumber":59,"Velocity":66,"Duration":91743,"SoundDuration":91743,"Delta":112792424},{"NoteNumber":40,"Velocity":52,"Duration":91743,"SoundDuration":91743,"Delta":112792424},{"NoteNumber":66,"Velocity":83,"Duration":91742,"SoundDuration":91742,"Delta":112884167},{"NoteNumber":32,"Velocity":64,"Duration":91742,"SoundDuration":91742,"Delta":112884167},{"NoteNumber":59,"Velocity":66,"Duration":91743,"SoundDuration":91743,"Delta":112975910},{"NoteNumber":40,"Velocity":52,"Duration":91743,"SoundDuration":91743,"Delta":112975910},{"NoteNumber":64,"Velocity":81,"Duration":93679,"SoundDuration":93679,"Delta":113067653},{"NoteNumber":32,"Velocity":62,"Duration":93679,"SoundDuration":93679,"Delta":113067653},{"NoteNumber":59,"Velocity":66,"Duration":93679,"SoundDuration":93679,"Delta":113161333},{"NoteNumber":40,"Velocity":52,"Duration":93679,"SoundDuration":93679,"Delta":113161333},{"NoteNumber":64,"Velocity":83,"Duration":90367,"SoundDuration":90367,"Delta":113255013},{"NoteNumber":32,"Velocity":64,"Duration":90367,"SoundDuration":90367,"Delta":113255013},{"NoteNumber":59,"Velocity":63,"Duration":90367,"SoundDuration":90367,"Delta":113345380},{"NoteNumber":40,"Velocity":52,"Duration":90367,"SoundDuration":90367,"Delta":113345380},{"NoteNumber":56,"Velocity":63,"Duration":90367,"SoundDuration":90367,"Delta":113435747},{"NoteNumber":44,"Velocity":52,"Duration":90367,"SoundDuration":90367,"Delta":113435747},{"NoteNumber":59,"Velocity":63,"Duration":90367,"SoundDuration":90367,"Delta":113526114},{"NoteNumber":40,"Velocity":52,"Duration":90367,"SoundDuration":90367,"Delta":113526114},{"NoteNumber":64,"Velocity":80,"Duration":95913,"SoundDuration":95913,"Delta":113616481},{"NoteNumber":32,"Velocity":58,"Duration":95913,"SoundDuration":95913,"Delta":113616481},{"NoteNumber":59,"Velocity":62,"Duration":95914,"SoundDuration":95914,"Delta":113712395},{"NoteNumber":40,"Velocity":51,"Duration":95914,"SoundDuration":95914,"Delta":113712395},{"NoteNumber":68,"Velocity":83,"Duration":91742,"SoundDuration":91742,"Delta":113808309},{"NoteNumber":32,"Velocity":68,"Duration":91742,"SoundDuration":91742,"Delta":113808309},{"NoteNumber":59,"Velocity":63,"Duration":91743,"SoundDuration":91743,"Delta":113900052},{"NoteNumber":40,"Velocity":52,"Duration":91743,"SoundDuration":91743,"Delta":113900052},{"NoteNumber":66,"Velocity":80,"Duration":91742,"SoundDuration":91742,"Delta":113991795},{"NoteNumber":32,"Velocity":64,"Duration":91742,"SoundDuration":91742,"Delta":113991795},{"NoteNumber":59,"Velocity":66,"Duration":91743,"SoundDuration":91743,"Delta":114083538},{"NoteNumber":40,"Velocity":52,"Duration":91743,"SoundDuration":91743,"Delta":114083538},{"NoteNumber":64,"Velocity":80,"Duration":94942,"SoundDuration":94942,"Delta":114175281},{"NoteNumber":32,"Velocity":62,"Duration":94942,"SoundDuration":94942,"Delta":114175281},{"NoteNumber":59,"Velocity":64,"Duration":94942,"SoundDuration":94942,"Delta":114270224},{"NoteNumber":40,"Velocity":52,"Duration":94942,"SoundDuration":94942,"Delta":114270224},{"NoteNumber":73,"Velocity":92,"Duration":89474,"SoundDuration":89474,"Delta":114365166},{"NoteNumber":33,"Velocity":90,"Duration":1620431,"SoundDuration":1620431,"Delta":114365166},{"NoteNumber":45,"Velocity":106,"Duration":1620431,"SoundDuration":1620431,"Delta":114365166},{"NoteNumber":76,"Velocity":67,"Duration":90013,"SoundDuration":90013,"Delta":114454641},{"NoteNumber":73,"Velocity":77,"Duration":89783,"SoundDuration":89783,"Delta":114544655},{"NoteNumber":76,"Velocity":67,"Duration":91070,"SoundDuration":91070,"Delta":114634438},{"NoteNumber":73,"Velocity":74,"Duration":89693,"SoundDuration":89693,"Delta":114725509},{"NoteNumber":76,"Velocity":67,"Duration":89783,"SoundDuration":89783,"Delta":114815202},{"NoteNumber":73,"Velocity":73,"Duration":89920,"SoundDuration":89920,"Delta":114904986},{"NoteNumber":76,"Velocity":67,"Duration":90104,"SoundDuration":90104,"Delta":114994907},{"NoteNumber":73,"Velocity":73,"Duration":90193,"SoundDuration":90193,"Delta":115085011},{"NoteNumber":76,"Velocity":67,"Duration":89785,"SoundDuration":89785,"Delta":115175204},{"NoteNumber":73,"Velocity":73,"Duration":90700,"SoundDuration":90700,"Delta":115264990},{"NoteNumber":76,"Velocity":67,"Duration":90239,"SoundDuration":90239,"Delta":115355690},{"NoteNumber":73,"Velocity":73,"Duration":90013,"SoundDuration":90013,"Delta":115445930},{"NoteNumber":76,"Velocity":67,"Duration":90238,"SoundDuration":90238,"Delta":115535943},{"NoteNumber":73,"Velocity":73,"Duration":89196,"SoundDuration":89196,"Delta":115626181},{"NoteNumber":76,"Velocity":67,"Duration":90561,"SoundDuration":90561,"Delta":115715378},{"NoteNumber":73,"Velocity":72,"Duration":89556,"SoundDuration":89556,"Delta":115805939},{"NoteNumber":76,"Velocity":67,"Duration":90102,"SoundDuration":90102,"Delta":115895496},{"NoteNumber":73,"Velocity":95,"Duration":91446,"SoundDuration":91446,"Delta":115985598},{"NoteNumber":46,"Velocity":88,"Duration":182893,"SoundDuration":182893,"Delta":115985598},{"NoteNumber":34,"Velocity":74,"Duration":182893,"SoundDuration":182893,"Delta":115985598},{"NoteNumber":76,"Velocity":78,"Duration":91446,"SoundDuration":91446,"Delta":116077045},{"NoteNumber":70,"Velocity":89,"Duration":91446,"SoundDuration":91446,"Delta":116168492},{"NoteNumber":37,"Velocity":72,"Duration":182893,"SoundDuration":182893,"Delta":116168492},{"NoteNumber":73,"Velocity":78,"Duration":91446,"SoundDuration":91446,"Delta":116259938},{"NoteNumber":67,"Velocity":84,"Duration":93463,"SoundDuration":93463,"Delta":116351385},{"NoteNumber":40,"Velocity":82,"Duration":186927,"SoundDuration":186927,"Delta":116351385},{"NoteNumber":70,"Velocity":77,"Duration":93463,"SoundDuration":93463,"Delta":116444849},{"NoteNumber":64,"Velocity":82,"Duration":90328,"SoundDuration":90328,"Delta":116538313},{"NoteNumber":43,"Velocity":95,"Duration":180657,"SoundDuration":180657,"Delta":116538313},{"NoteNumber":67,"Velocity":70,"Duration":90328,"SoundDuration":90328,"Delta":116628641},{"NoteNumber":61,"Velocity":81,"Duration":90328,"SoundDuration":90328,"Delta":116718970},{"NoteNumber":46,"Velocity":82,"Duration":180657,"SoundDuration":180657,"Delta":116718970},{"NoteNumber":64,"Velocity":71,"Duration":90328,"SoundDuration":90328,"Delta":116809299},{"NoteNumber":58,"Velocity":82,"Duration":90328,"SoundDuration":90328,"Delta":116899628},{"NoteNumber":49,"Velocity":82,"Duration":180657,"SoundDuration":180657,"Delta":116899628},{"NoteNumber":61,"Velocity":68,"Duration":90328,"SoundDuration":90328,"Delta":116989956},{"NoteNumber":56,"Velocity":81,"Duration":90328,"SoundDuration":90328,"Delta":117080285},{"NoteNumber":52,"Velocity":85,"Duration":173130,"SoundDuration":173130,"Delta":117080285},{"NoteNumber":58,"Velocity":70,"Duration":90328,"SoundDuration":90328,"Delta":117170614},{"NoteNumber":61,"Velocity":80,"Duration":90328,"SoundDuration":90328,"Delta":117260943},{"NoteNumber":52,"Velocity":83,"Duration":173130,"SoundDuration":173130,"Delta":117260943},{"NoteNumber":58,"Velocity":70,"Duration":90328,"SoundDuration":90328,"Delta":117351271},{"NoteNumber":56,"Velocity":80,"Duration":97144,"SoundDuration":97144,"Delta":117441600},{"NoteNumber":52,"Velocity":83,"Duration":186192,"SoundDuration":186192,"Delta":117441600},{"NoteNumber":58,"Velocity":69,"Duration":97144,"SoundDuration":97144,"Delta":117538744},{"NoteNumber":52,"Velocity":97,"Duration":541972,"SoundDuration":541972,"Delta":117635888},{"NoteNumber":56,"Velocity":70,"Duration":90328,"SoundDuration":90328,"Delta":117726217},{"NoteNumber":61,"Velocity":80,"Duration":90328,"SoundDuration":90328,"Delta":117816546},{"NoteNumber":58,"Velocity":69,"Duration":90328,"SoundDuration":90328,"Delta":117906874},{"NoteNumber":56,"Velocity":77,"Duration":90328,"SoundDuration":90328,"Delta":117997203},{"NoteNumber":61,"Velocity":70,"Duration":90328,"SoundDuration":90328,"Delta":118087532},{"NoteNumber":51,"Velocity":89,"Duration":541972,"SoundDuration":541972,"Delta":118177861},{"NoteNumber":55,"Velocity":69,"Duration":90328,"SoundDuration":90328,"Delta":118268189},{"NoteNumber":61,"Velocity":80,"Duration":90328,"SoundDuration":90328,"Delta":118358518},{"NoteNumber":58,"Velocity":69,"Duration":90328,"SoundDuration":90328,"Delta":118448847},{"NoteNumber":55,"Velocity":78,"Duration":90328,"SoundDuration":90328,"Delta":118539176},{"NoteNumber":61,"Velocity":69,"Duration":90328,"SoundDuration":90328,"Delta":118629504},{"NoteNumber":68,"Velocity":83,"Duration":91446,"SoundDuration":91446,"Delta":118719833},{"NoteNumber":44,"Velocity":64,"Duration":91446,"SoundDuration":91446,"Delta":118719833},{"NoteNumber":63,"Velocity":66,"Duration":91446,"SoundDuration":91446,"Delta":118811280},{"NoteNumber":51,"Velocity":52,"Duration":91446,"SoundDuration":91446,"Delta":118811280},{"NoteNumber":59,"Velocity":66,"Duration":91446,"SoundDuration":91446,"Delta":118902727},{"NoteNumber":56,"Velocity":52,"Duration":91446,"SoundDuration":91446,"Delta":118902727},{"NoteNumber":63,"Velocity":66,"Duration":91446,"SoundDuration":91446,"Delta":118994173},{"NoteNumber":51,"Velocity":52,"Duration":91446,"SoundDuration":91446,"Delta":118994173},{"NoteNumber":68,"Velocity":80,"Duration":97244,"SoundDuration":97244,"Delta":119085620},{"NoteNumber":44,"Velocity":58,"Duration":97244,"SoundDuration":97244,"Delta":119085620},{"NoteNumber":63,"Velocity":64,"Duration":97244,"SoundDuration":97244,"Delta":119182865},{"NoteNumber":51,"Velocity":51,"Duration":97244,"SoundDuration":97244,"Delta":119182865},{"NoteNumber":71,"Velocity":84,"Duration":91097,"SoundDuration":91097,"Delta":119280110},{"NoteNumber":44,"Velocity":68,"Duration":91097,"SoundDuration":91097,"Delta":119280110},{"NoteNumber":63,"Velocity":66,"Duration":91463,"SoundDuration":91463,"Delta":119371208},{"NoteNumber":51,"Velocity":52,"Duration":91463,"SoundDuration":91463,"Delta":119371208},{"NoteNumber":70,"Velocity":83,"Duration":91463,"SoundDuration":91463,"Delta":119462671},{"NoteNumber":44,"Velocity":64,"Duration":91463,"SoundDuration":91463,"Delta":119462671},{"NoteNumber":63,"Velocity":66,"Duration":91463,"SoundDuration":91463,"Delta":119554135},{"NoteNumber":51,"Velocity":52,"Duration":91463,"SoundDuration":91463,"Delta":119554135},{"NoteNumber":68,"Velocity":81,"Duration":93679,"SoundDuration":93679,"Delta":119645598},{"NoteNumber":44,"Velocity":62,"Duration":93679,"SoundDuration":93679,"Delta":119645598},{"NoteNumber":63,"Velocity":66,"Duration":93679,"SoundDuration":93679,"Delta":119739278},{"NoteNumber":51,"Velocity":52,"Duration":93679,"SoundDuration":93679,"Delta":119739278},{"NoteNumber":68,"Velocity":83,"Duration":90367,"SoundDuration":90367,"Delta":119832958},{"NoteNumber":44,"Velocity":64,"Duration":90367,"SoundDuration":90367,"Delta":119832958},{"NoteNumber":63,"Velocity":63,"Duration":90367,"SoundDuration":90367,"Delta":119923325},{"NoteNumber":51,"Velocity":52,"Duration":90367,"SoundDuration":90367,"Delta":119923325},{"NoteNumber":59,"Velocity":63,"Duration":90367,"SoundDuration":90367,"Delta":120013692},{"NoteNumber":56,"Velocity":52,"Duration":90367,"SoundDuration":90367,"Delta":120013692},{"NoteNumber":63,"Velocity":63,"Duration":90367,"SoundDuration":90367,"Delta":120104059},{"NoteNumber":51,"Velocity":52,"Duration":90367,"SoundDuration":90367,"Delta":120104059},{"NoteNumber":68,"Velocity":80,"Duration":95913,"SoundDuration":95913,"Delta":120194426},{"NoteNumber":44,"Velocity":58,"Duration":95913,"SoundDuration":95913,"Delta":120194426},{"NoteNumber":63,"Velocity":62,"Duration":95914,"SoundDuration":95914,"Delta":120290340},{"NoteNumber":51,"Velocity":51,"Duration":95914,"SoundDuration":95914,"Delta":120290340},{"NoteNumber":71,"Velocity":83,"Duration":91463,"SoundDuration":91463,"Delta":120386254},{"NoteNumber":44,"Velocity":68,"Duration":91463,"SoundDuration":91463,"Delta":120386254},{"NoteNumber":63,"Velocity":63,"Duration":91463,"SoundDuration":91463,"Delta":120477717},{"NoteNumber":51,"Velocity":52,"Duration":91463,"SoundDuration":91463,"Delta":120477717},{"NoteNumber":70,"Velocity":80,"Duration":91463,"SoundDuration":91463,"Delta":120569181},{"NoteNumber":44,"Velocity":64,"Duration":91463,"SoundDuration":91463,"Delta":120569181},{"NoteNumber":63,"Velocity":66,"Duration":91463,"SoundDuration":91463,"Delta":120660644},{"NoteNumber":51,"Velocity":52,"Duration":91463,"SoundDuration":91463,"Delta":120660644},{"NoteNumber":68,"Velocity":80,"Duration":97586,"SoundDuration":97586,"Delta":120752108},{"NoteNumber":44,"Velocity":62,"Duration":97586,"SoundDuration":97586,"Delta":120752108},{"NoteNumber":63,"Velocity":64,"Duration":97586,"SoundDuration":97586,"Delta":120849694},{"NoteNumber":51,"Velocity":52,"Duration":97586,"SoundDuration":97586,"Delta":120849694},{"NoteNumber":76,"Velocity":83,"Duration":90367,"SoundDuration":90367,"Delta":120947280},{"NoteNumber":44,"Velocity":64,"Duration":90367,"SoundDuration":90367,"Delta":120947280},{"NoteNumber":71,"Velocity":66,"Duration":90367,"SoundDuration":90367,"Delta":121037647},{"NoteNumber":52,"Velocity":52,"Duration":90367,"SoundDuration":90367,"Delta":121037647},{"NoteNumber":68,"Velocity":66,"Duration":90367,"SoundDuration":90367,"Delta":121128014},{"NoteNumber":56,"Velocity":52,"Duration":90367,"SoundDuration":90367,"Delta":121128014},{"NoteNumber":71,"Velocity":66,"Duration":90367,"SoundDuration":90367,"Delta":121218381},{"NoteNumber":52,"Velocity":52,"Duration":90367,"SoundDuration":90367,"Delta":121218381},{"NoteNumber":76,"Velocity":80,"Duration":97244,"SoundDuration":97244,"Delta":121308748},{"NoteNumber":44,"Velocity":58,"Duration":97244,"SoundDuration":97244,"Delta":121308748},{"NoteNumber":71,"Velocity":64,"Duration":97244,"SoundDuration":97244,"Delta":121405993},{"NoteNumber":52,"Velocity":51,"Duration":97244,"SoundDuration":97244,"Delta":121405993},{"NoteNumber":80,"Velocity":84,"Duration":91463,"SoundDuration":91463,"Delta":121503238},{"NoteNumber":44,"Velocity":68,"Duration":91463,"SoundDuration":91463,"Delta":121503238},{"NoteNumber":71,"Velocity":66,"Duration":91463,"SoundDuration":91463,"Delta":121594701},{"NoteNumber":52,"Velocity":52,"Duration":91463,"SoundDuration":91463,"Delta":121594701},{"NoteNumber":78,"Velocity":83,"Duration":91463,"SoundDuration":91463,"Delta":121686165},{"NoteNumber":44,"Velocity":64,"Duration":91463,"SoundDuration":91463,"Delta":121686165},{"NoteNumber":71,"Velocity":66,"Duration":91463,"SoundDuration":91463,"Delta":121777628},{"NoteNumber":52,"Velocity":52,"Duration":91463,"SoundDuration":91463,"Delta":121777628},{"NoteNumber":76,"Velocity":81,"Duration":93679,"SoundDuration":93679,"Delta":121869092},{"NoteNumber":44,"Velocity":62,"Duration":93679,"SoundDuration":93679,"Delta":121869092},{"NoteNumber":71,"Velocity":66,"Duration":93679,"SoundDuration":93679,"Delta":121962771},{"NoteNumber":52,"Velocity":52,"Duration":93679,"SoundDuration":93679,"Delta":121962771},{"NoteNumber":76,"Velocity":83,"Duration":90367,"SoundDuration":90367,"Delta":122056451},{"NoteNumber":44,"Velocity":64,"Duration":90367,"SoundDuration":90367,"Delta":122056451},{"NoteNumber":71,"Velocity":63,"Duration":90367,"SoundDuration":90367,"Delta":122146818},{"NoteNumber":52,"Velocity":52,"Duration":90367,"SoundDuration":90367,"Delta":122146818},{"NoteNumber":68,"Velocity":63,"Duration":90367,"SoundDuration":90367,"Delta":122237185},{"NoteNumber":56,"Velocity":52,"Duration":90367,"SoundDuration":90367,"Delta":122237185},{"NoteNumber":71,"Velocity":63,"Duration":90367,"SoundDuration":90367,"Delta":122327552},{"NoteNumber":52,"Velocity":52,"Duration":90367,"SoundDuration":90367,"Delta":122327552},{"NoteNumber":76,"Velocity":80,"Duration":95913,"SoundDuration":95913,"Delta":122417919},{"NoteNumber":44,"Velocity":58,"Duration":95913,"SoundDuration":95913,"Delta":122417919},{"NoteNumber":71,"Velocity":62,"Duration":95914,"SoundDuration":95914,"Delta":122513833},{"NoteNumber":52,"Velocity":51,"Duration":95914,"SoundDuration":95914,"Delta":122513833},{"NoteNumber":80,"Velocity":83,"Duration":91463,"SoundDuration":91463,"Delta":122609747},{"NoteNumber":44,"Velocity":68,"Duration":91463,"SoundDuration":91463,"Delta":122609747},{"NoteNumber":71,"Velocity":63,"Duration":91463,"SoundDuration":91463,"Delta":122701211},{"NoteNumber":52,"Velocity":52,"Duration":91463,"SoundDuration":91463,"Delta":122701211},{"NoteNumber":78,"Velocity":80,"Duration":91463,"SoundDuration":91463,"Delta":122792674},{"NoteNumber":44,"Velocity":64,"Duration":91463,"SoundDuration":91463,"Delta":122792674},{"NoteNumber":71,"Velocity":66,"Duration":91463,"SoundDuration":91463,"Delta":122884138},{"NoteNumber":52,"Velocity":52,"Duration":91463,"SoundDuration":91463,"Delta":122884138},{"NoteNumber":76,"Velocity":80,"Duration":94942,"SoundDuration":94942,"Delta":122975601},{"NoteNumber":44,"Velocity":62,"Duration":94942,"SoundDuration":94942,"Delta":122975601},{"NoteNumber":71,"Velocity":64,"Duration":94942,"SoundDuration":94942,"Delta":123070544},{"NoteNumber":52,"Velocity":52,"Duration":94942,"SoundDuration":94942,"Delta":123070544},{"NoteNumber":85,"Velocity":94,"Duration":89474,"SoundDuration":89474,"Delta":123165487},{"NoteNumber":57,"Velocity":106,"Duration":1620431,"SoundDuration":1620431,"Delta":123165487},{"NoteNumber":45,"Velocity":90,"Duration":1620431,"SoundDuration":1620431,"Delta":123165487},{"NoteNumber":88,"Velocity":77,"Duration":90013,"SoundDuration":90013,"Delta":123254961},{"NoteNumber":85,"Velocity":78,"Duration":89783,"SoundDuration":89783,"Delta":123344975},{"NoteNumber":88,"Velocity":69,"Duration":91070,"SoundDuration":91070,"Delta":123434759},{"NoteNumber":85,"Velocity":75,"Duration":89693,"SoundDuration":89693,"Delta":123525829},{"NoteNumber":88,"Velocity":69,"Duration":89783,"SoundDuration":89783,"Delta":123615523},{"NoteNumber":85,"Velocity":75,"Duration":89920,"SoundDuration":89920,"Delta":123705306},{"NoteNumber":88,"Velocity":69,"Duration":90104,"SoundDuration":90104,"Delta":123795227},{"NoteNumber":85,"Velocity":74,"Duration":90193,"SoundDuration":90193,"Delta":123885331},{"NoteNumber":88,"Velocity":69,"Duration":89785,"SoundDuration":89785,"Delta":123975525},{"NoteNumber":85,"Velocity":71,"Duration":90700,"SoundDuration":90700,"Delta":124065310},{"NoteNumber":88,"Velocity":69,"Duration":90239,"SoundDuration":90239,"Delta":124156010},{"NoteNumber":85,"Velocity":71,"Duration":90013,"SoundDuration":90013,"Delta":124246250},{"NoteNumber":88,"Velocity":69,"Duration":90238,"SoundDuration":90238,"Delta":124336263},{"NoteNumber":85,"Velocity":71,"Duration":89196,"SoundDuration":89196,"Delta":124426501},{"NoteNumber":88,"Velocity":69,"Duration":90561,"SoundDuration":90561,"Delta":124515698},{"NoteNumber":85,"Velocity":73,"Duration":89556,"SoundDuration":89556,"Delta":124606260},{"NoteNumber":88,"Velocity":69,"Duration":90102,"SoundDuration":90102,"Delta":124695816},{"NoteNumber":85,"Velocity":76,"Duration":91446,"SoundDuration":91446,"Delta":124785918},{"NoteNumber":46,"Velocity":59,"Duration":182893,"SoundDuration":182893,"Delta":124785918},{"NoteNumber":58,"Velocity":88,"Duration":182893,"SoundDuration":182893,"Delta":124785918},{"NoteNumber":88,"Velocity":69,"Duration":91446,"SoundDuration":91446,"Delta":124877365},{"NoteNumber":85,"Velocity":77,"Duration":91446,"SoundDuration":91446,"Delta":124968812},{"NoteNumber":61,"Velocity":72,"Duration":182893,"SoundDuration":182893,"Delta":124968812},{"NoteNumber":49,"Velocity":58,"Duration":182893,"SoundDuration":182893,"Delta":124968812},{"NoteNumber":88,"Velocity":69,"Duration":91446,"SoundDuration":91446,"Delta":125060259},{"NoteNumber":85,"Velocity":77,"Duration":93463,"SoundDuration":93463,"Delta":125151705},{"NoteNumber":64,"Velocity":82,"Duration":186927,"SoundDuration":186927,"Delta":125151705},{"NoteNumber":52,"Velocity":63,"Duration":186927,"SoundDuration":186927,"Delta":125151705},{"NoteNumber":88,"Velocity":69,"Duration":93463,"SoundDuration":93463,"Delta":125245169},{"NoteNumber":85,"Velocity":82,"Duration":90328,"SoundDuration":90328,"Delta":125338633},{"NoteNumber":67,"Velocity":95,"Duration":180657,"SoundDuration":180657,"Delta":125338633},{"NoteNumber":55,"Velocity":75,"Duration":180657,"SoundDuration":180657,"Delta":125338633},{"NoteNumber":88,"Velocity":70,"Duration":90328,"SoundDuration":90328,"Delta":125428962},{"NoteNumber":82,"Velocity":81,"Duration":90328,"SoundDuration":90328,"Delta":125519290},{"NoteNumber":70,"Velocity":82,"Duration":180657,"SoundDuration":180657,"Delta":125519290},{"NoteNumber":58,"Velocity":63,"Duration":180657,"SoundDuration":180657,"Delta":125519290},{"NoteNumber":85,"Velocity":71,"Duration":90328,"SoundDuration":90328,"Delta":125609619},{"NoteNumber":80,"Velocity":82,"Duration":90328,"SoundDuration":90328,"Delta":125699948},{"NoteNumber":73,"Velocity":82,"Duration":180657,"SoundDuration":180657,"Delta":125699948},{"NoteNumber":61,"Velocity":63,"Duration":180657,"SoundDuration":180657,"Delta":125699948},{"NoteNumber":82,"Velocity":68,"Duration":90328,"SoundDuration":90328,"Delta":125790277},{"NoteNumber":80,"Velocity":81,"Duration":90328,"SoundDuration":90328,"Delta":125880605},{"NoteNumber":64,"Velocity":68,"Duration":173130,"SoundDuration":173130,"Delta":125880605},{"NoteNumber":76,"Velocity":85,"Duration":173130,"SoundDuration":173130,"Delta":125880605},{"NoteNumber":82,"Velocity":70,"Duration":90328,"SoundDuration":90328,"Delta":125970934},{"NoteNumber":85,"Velocity":80,"Duration":90328,"SoundDuration":90328,"Delta":126061263},{"NoteNumber":76,"Velocity":83,"Duration":173130,"SoundDuration":173130,"Delta":126061263},{"NoteNumber":64,"Velocity":64,"Duration":173130,"SoundDuration":173130,"Delta":126061263},{"NoteNumber":82,"Velocity":70,"Duration":90328,"SoundDuration":90328,"Delta":126151592},{"NoteNumber":80,"Velocity":80,"Duration":97144,"SoundDuration":97144,"Delta":126241920},{"NoteNumber":76,"Velocity":83,"Duration":186192,"SoundDuration":186192,"Delta":126241920},{"NoteNumber":64,"Velocity":64,"Duration":186192,"SoundDuration":186192,"Delta":126241920},{"NoteNumber":82,"Velocity":69,"Duration":97143,"SoundDuration":97143,"Delta":126339064},{"NoteNumber":64,"Velocity":80,"Duration":541972,"SoundDuration":541972,"Delta":126436208},{"NoteNumber":76,"Velocity":102,"Duration":541972,"SoundDuration":541972,"Delta":126436208},{"NoteNumber":80,"Velocity":72,"Duration":90328,"SoundDuration":90328,"Delta":126526537},{"NoteNumber":85,"Velocity":77,"Duration":90328,"SoundDuration":90328,"Delta":126616866},{"NoteNumber":82,"Velocity":70,"Duration":90328,"SoundDuration":90328,"Delta":126707195},{"NoteNumber":80,"Velocity":74,"Duration":90328,"SoundDuration":90328,"Delta":126797523},{"NoteNumber":85,"Velocity":69,"Duration":90328,"SoundDuration":90328,"Delta":126887852},{"NoteNumber":75,"Velocity":86,"Duration":547708,"SoundDuration":547708,"Delta":126978181},{"NoteNumber":63,"Velocity":69,"Duration":547708,"SoundDuration":547708,"Delta":126978181},{"NoteNumber":79,"Velocity":67,"Duration":90328,"SoundDuration":90328,"Delta":127068510},{"NoteNumber":85,"Velocity":71,"Duration":90328,"SoundDuration":90328,"Delta":127158838},{"NoteNumber":82,"Velocity":64,"Duration":90328,"SoundDuration":90328,"Delta":127249167},{"NoteNumber":79,"Velocity":68,"Duration":93196,"SoundDuration":93196,"Delta":127339496},{"NoteNumber":85,"Velocity":62,"Duration":93196,"SoundDuration":93196,"Delta":127432693},{"NoteNumber":68,"Velocity":102,"Duration":541972,"SoundDuration":541972,"Delta":127525889},{"NoteNumber":76,"Velocity":72,"Duration":90328,"SoundDuration":90328,"Delta":127616218},{"NoteNumber":85,"Velocity":78,"Duration":90328,"SoundDuration":90328,"Delta":127706547},{"NoteNumber":82,"Velocity":70,"Duration":90328,"SoundDuration":90328,"Delta":127796876},{"NoteNumber":76,"Velocity":77,"Duration":90328,"SoundDuration":90328,"Delta":127887204},{"NoteNumber":85,"Velocity":69,"Duration":90328,"SoundDuration":90328,"Delta":127977533},{"NoteNumber":67,"Velocity":86,"Duration":547107,"SoundDuration":547107,"Delta":128067862},{"NoteNumber":75,"Velocity":67,"Duration":90328,"SoundDuration":90328,"Delta":128158191},{"NoteNumber":85,"Velocity":74,"Duration":90328,"SoundDuration":90328,"Delta":128248519},{"NoteNumber":82,"Velocity":64,"Duration":90328,"SoundDuration":90328,"Delta":128338848},{"NoteNumber":75,"Velocity":70,"Duration":92896,"SoundDuration":92896,"Delta":128429177},{"NoteNumber":85,"Velocity":62,"Duration":92896,"SoundDuration":92896,"Delta":128522073},{"NoteNumber":76,"Velocity":102,"Duration":541972,"SoundDuration":541972,"Delta":128614970},{"NoteNumber":80,"Velocity":72,"Duration":90328,"SoundDuration":90328,"Delta":128705299},{"NoteNumber":85,"Velocity":78,"Duration":90328,"SoundDuration":90328,"Delta":128795627},{"NoteNumber":82,"Velocity":70,"Duration":90328,"SoundDuration":90328,"Delta":128885956},{"NoteNumber":80,"Velocity":76,"Duration":90328,"SoundDuration":90328,"Delta":128976285},{"NoteNumber":85,"Velocity":69,"Duration":90328,"SoundDuration":90328,"Delta":129066614},{"NoteNumber":75,"Velocity":86,"Duration":541972,"SoundDuration":541972,"Delta":129156942},{"NoteNumber":79,"Velocity":67,"Duration":90328,"SoundDuration":90328,"Delta":129247271},{"NoteNumber":85,"Velocity":73,"Duration":90328,"SoundDuration":90328,"Delta":129337600},{"NoteNumber":82,"Velocity":64,"Duration":90328,"SoundDuration":90328,"Delta":129427929},{"NoteNumber":79,"Velocity":70,"Duration":90328,"SoundDuration":90328,"Delta":129518257},{"NoteNumber":85,"Velocity":62,"Duration":90328,"SoundDuration":90328,"Delta":129608586},{"NoteNumber":74,"Velocity":97,"Duration":1064243,"SoundDuration":1064243,"Delta":129698915},{"NoteNumber":77,"Velocity":91,"Duration":974261,"SoundDuration":974261,"Delta":129788897},{"NoteNumber":80,"Velocity":97,"Duration":884465,"SoundDuration":884465,"Delta":129878692},{"NoteNumber":83,"Velocity":79,"Duration":89331,"SoundDuration":89331,"Delta":129968209},{"NoteNumber":86,"Velocity":83,"Duration":89054,"SoundDuration":89054,"Delta":130057541},{"NoteNumber":89,"Velocity":74,"Duration":88776,"SoundDuration":88776,"Delta":130146596},{"NoteNumber":92,"Velocity":85,"Duration":88594,"SoundDuration":88594,"Delta":130235372},{"NoteNumber":89,"Velocity":81,"Duration":88323,"SoundDuration":88323,"Delta":130323967},{"NoteNumber":86,"Velocity":86,"Duration":88053,"SoundDuration":88053,"Delta":130412291},{"NoteNumber":95,"Velocity":83,"Duration":87872,"SoundDuration":87872,"Delta":130500345},{"NoteNumber":94,"Velocity":86,"Duration":87603,"SoundDuration":87603,"Delta":130588217},{"NoteNumber":92,"Velocity":78,"Duration":87338,"SoundDuration":87338,"Delta":130675820},{"NoteNumber":91,"Velocity":83,"Duration":87250,"SoundDuration":87250,"Delta":130763158},{"NoteNumber":75,"Velocity":85,"Duration":1074495,"SoundDuration":1074495,"Delta":130763158},{"NoteNumber":94,"Velocity":81,"Duration":87249,"SoundDuration":87249,"Delta":130850408},{"NoteNumber":79,"Velocity":77,"Duration":987245,"SoundDuration":987245,"Delta":130850408},{"NoteNumber":92,"Velocity":84,"Duration":87250,"SoundDuration":87250,"Delta":130937658},{"NoteNumber":91,"Velocity":82,"Duration":87250,"SoundDuration":87250,"Delta":131024908},{"NoteNumber":88,"Velocity":81,"Duration":87514,"SoundDuration":87514,"Delta":131112158},{"NoteNumber":87,"Velocity":74,"Duration":87514,"SoundDuration":87514,"Delta":131199673},{"NoteNumber":85,"Velocity":78,"Duration":87692,"SoundDuration":87692,"Delta":131287187},{"NoteNumber":88,"Velocity":75,"Duration":87780,"SoundDuration":87780,"Delta":131374880},{"NoteNumber":87,"Velocity":74,"Duration":87963,"SoundDuration":87963,"Delta":131462661},{"NoteNumber":85,"Velocity":72,"Duration":88053,"SoundDuration":88053,"Delta":131550624},{"NoteNumber":83,"Velocity":71,"Duration":88143,"SoundDuration":88143,"Delta":131638678},{"NoteNumber":82,"Velocity":66,"Duration":110831,"SoundDuration":110831,"Delta":131726821},{"NoteNumber":68,"Velocity":45,"Duration":534213,"SoundDuration":534213,"Delta":131837653},{"NoteNumber":71,"Velocity":45,"Duration":534213,"SoundDuration":534213,"Delta":131837653},{"NoteNumber":80,"Velocity":42,"Duration":92592,"SoundDuration":92592,"Delta":131930437},{"NoteNumber":83,"Velocity":45,"Duration":87209,"SoundDuration":87209,"Delta":132023030},{"NoteNumber":87,"Velocity":47,"Duration":87209,"SoundDuration":87209,"Delta":132110239},{"NoteNumber":92,"Velocity":49,"Duration":87209,"SoundDuration":87209,"Delta":132197448},{"NoteNumber":80,"Velocity":45,"Duration":87209,"SoundDuration":87209,"Delta":132284657},{"NoteNumber":73,"Velocity":44,"Duration":526878,"SoundDuration":526878,"Delta":132371867},{"NoteNumber":76,"Velocity":44,"Duration":526878,"SoundDuration":526878,"Delta":132371867},{"NoteNumber":92,"Velocity":49,"Duration":87209,"SoundDuration":87209,"Delta":132637117},{"NoteNumber":80,"Velocity":45,"Duration":87209,"SoundDuration":87209,"Delta":132724327},{"NoteNumber":92,"Velocity":49,"Duration":87209,"SoundDuration":87209,"Delta":132811536},{"NoteNumber":71,"Velocity":45,"Duration":525867,"SoundDuration":525867,"Delta":132898745},{"NoteNumber":75,"Velocity":45,"Duration":525867,"SoundDuration":525867,"Delta":132898745},{"NoteNumber":92,"Velocity":48,"Duration":86956,"SoundDuration":86956,"Delta":133163743},{"NoteNumber":80,"Velocity":45,"Duration":86956,"SoundDuration":86956,"Delta":133250700},{"NoteNumber":92,"Velocity":48,"Duration":86956,"SoundDuration":86956,"Delta":133337656},{"NoteNumber":75,"Velocity":60,"Duration":514030,"SoundDuration":514030,"Delta":133424613},{"NoteNumber":70,"Velocity":60,"Duration":514030,"SoundDuration":514030,"Delta":133424613},{"NoteNumber":73,"Velocity":60,"Duration":514030,"SoundDuration":514030,"Delta":133424613},{"NoteNumber":91,"Velocity":48,"Duration":86956,"SoundDuration":86956,"Delta":133677774},{"NoteNumber":79,"Velocity":45,"Duration":86956,"SoundDuration":86956,"Delta":133764731},{"NoteNumber":91,"Velocity":49,"Duration":86956,"SoundDuration":86956,"Delta":133851687},{"NoteNumber":68,"Velocity":45,"Duration":534213,"SoundDuration":534213,"Delta":133938644},{"NoteNumber":71,"Velocity":45,"Duration":534213,"SoundDuration":534213,"Delta":133938644},{"NoteNumber":80,"Velocity":42,"Duration":92592,"SoundDuration":92592,"Delta":134031427},{"NoteNumber":83,"Velocity":45,"Duration":87209,"SoundDuration":87209,"Delta":134124020},{"NoteNumber":87,"Velocity":47,"Duration":87209,"SoundDuration":87209,"Delta":134211229},{"NoteNumber":92,"Velocity":49,"Duration":87209,"SoundDuration":87209,"Delta":134298438},{"NoteNumber":80,"Velocity":45,"Duration":87209,"SoundDuration":87209,"Delta":134385647},{"NoteNumber":61,"Velocity":44,"Duration":526878,"SoundDuration":526878,"Delta":134472857},{"NoteNumber":64,"Velocity":44,"Duration":526878,"SoundDuration":526878,"Delta":134472857},{"NoteNumber":80,"Velocity":49,"Duration":87209,"SoundDuration":87209,"Delta":134738107},{"NoteNumber":68,"Velocity":45,"Duration":87209,"SoundDuration":87209,"Delta":134825317},{"NoteNumber":80,"Velocity":49,"Duration":87209,"SoundDuration":87209,"Delta":134912526},{"NoteNumber":59,"Velocity":45,"Duration":525867,"SoundDuration":525867,"Delta":134999735},{"NoteNumber":63,"Velocity":45,"Duration":525867,"SoundDuration":525867,"Delta":134999735},{"NoteNumber":80,"Velocity":48,"Duration":86956,"SoundDuration":86956,"Delta":135264733},{"NoteNumber":68,"Velocity":45,"Duration":86956,"SoundDuration":86956,"Delta":135351690},{"NoteNumber":80,"Velocity":48,"Duration":86956,"SoundDuration":86956,"Delta":135438646},{"NoteNumber":58,"Velocity":60,"Duration":514030,"SoundDuration":514030,"Delta":135525603},{"NoteNumber":61,"Velocity":60,"Duration":514030,"SoundDuration":514030,"Delta":135525603},{"NoteNumber":63,"Velocity":60,"Duration":514030,"SoundDuration":514030,"Delta":135525603},{"NoteNumber":79,"Velocity":48,"Duration":86956,"SoundDuration":86956,"Delta":135778764},{"NoteNumber":67,"Velocity":45,"Duration":86956,"SoundDuration":86956,"Delta":135865721},{"NoteNumber":79,"Velocity":49,"Duration":86956,"SoundDuration":86956,"Delta":135952677},{"NoteNumber":59,"Velocity":45,"Duration":534213,"SoundDuration":534213,"Delta":136039634},{"NoteNumber":56,"Velocity":45,"Duration":534213,"SoundDuration":534213,"Delta":136039634},{"NoteNumber":80,"Velocity":42,"Duration":92592,"SoundDuration":92592,"Delta":136132417},{"NoteNumber":83,"Velocity":45,"Duration":87209,"SoundDuration":87209,"Delta":136225010},{"NoteNumber":87,"Velocity":47,"Duration":87209,"SoundDuration":87209,"Delta":136312219},{"NoteNumber":92,"Velocity":49,"Duration":87209,"SoundDuration":87209,"Delta":136399428},{"NoteNumber":80,"Velocity":45,"Duration":87209,"SoundDuration":87209,"Delta":136486638},{"NoteNumber":52,"Velocity":44,"Duration":526878,"SoundDuration":526878,"Delta":136573847},{"NoteNumber":49,"Velocity":44,"Duration":526878,"SoundDuration":526878,"Delta":136573847},{"NoteNumber":92,"Velocity":49,"Duration":87209,"SoundDuration":87209,"Delta":136839098},{"NoteNumber":80,"Velocity":45,"Duration":87209,"SoundDuration":87209,"Delta":136926307},{"NoteNumber":92,"Velocity":49,"Duration":87209,"SoundDuration":87209,"Delta":137013516},{"NoteNumber":51,"Velocity":45,"Duration":525867,"SoundDuration":525867,"Delta":137100725},{"NoteNumber":47,"Velocity":45,"Duration":525867,"SoundDuration":525867,"Delta":137100725},{"NoteNumber":92,"Velocity":48,"Duration":86956,"SoundDuration":86956,"Delta":137365723},{"NoteNumber":80,"Velocity":45,"Duration":86956,"SoundDuration":86956,"Delta":137452680},{"NoteNumber":92,"Velocity":48,"Duration":86956,"SoundDuration":86956,"Delta":137539636},{"NoteNumber":51,"Velocity":60,"Duration":527033,"SoundDuration":527033,"Delta":137626593},{"NoteNumber":49,"Velocity":60,"Duration":527033,"SoundDuration":527033,"Delta":137626593},{"NoteNumber":46,"Velocity":60,"Duration":527033,"SoundDuration":527033,"Delta":137626593},{"NoteNumber":91,"Velocity":48,"Duration":86956,"SoundDuration":86956,"Delta":137879754},{"NoteNumber":79,"Velocity":45,"Duration":93457,"SoundDuration":93457,"Delta":137966711},{"NoteNumber":91,"Velocity":49,"Duration":93457,"SoundDuration":93457,"Delta":138060169},{"NoteNumber":92,"Velocity":48,"Duration":87636,"SoundDuration":87636,"Delta":138153627},{"NoteNumber":44,"Velocity":48,"Duration":1089188,"SoundDuration":1089188,"Delta":138153627},{"NoteNumber":87,"Velocity":45,"Duration":88148,"SoundDuration":88148,"Delta":138241263},{"NoteNumber":83,"Velocity":44,"Duration":88408,"SoundDuration":88408,"Delta":138329412},{"NoteNumber":87,"Velocity":39,"Duration":88670,"SoundDuration":88670,"Delta":138417821},{"NoteNumber":92,"Velocity":42,"Duration":88933,"SoundDuration":88933,"Delta":138506491},{"NoteNumber":87,"Velocity":39,"Duration":89197,"SoundDuration":89197,"Delta":138595424},{"NoteNumber":83,"Velocity":46,"Duration":89463,"SoundDuration":89463,"Delta":138684622},{"NoteNumber":87,"Velocity":41,"Duration":89730,"SoundDuration":89730,"Delta":138774085},{"NoteNumber":92,"Velocity":41,"Duration":90090,"SoundDuration":90090,"Delta":138863816},{"NoteNumber":87,"Velocity":37,"Duration":90090,"SoundDuration":90090,"Delta":138953906},{"NoteNumber":83,"Velocity":40,"Duration":99009,"SoundDuration":99009,"Delta":139043996},{"NoteNumber":87,"Velocity":36,"Duration":99809,"SoundDuration":99809,"Delta":139143006},{"NoteNumber":92,"Velocity":42,"Duration":104348,"SoundDuration":104348,"Delta":139242815},{"NoteNumber":39,"Velocity":38,"Duration":643552,"SoundDuration":643552,"Delta":139242815},{"NoteNumber":87,"Velocity":39,"Duration":105449,"SoundDuration":105449,"Delta":139347164},{"NoteNumber":83,"Velocity":39,"Duration":106573,"SoundDuration":106573,"Delta":139452614},{"NoteNumber":87,"Velocity":35,"Duration":107721,"SoundDuration":107721,"Delta":139559187},{"NoteNumber":92,"Velocity":38,"Duration":108961,"SoundDuration":108961,"Delta":139666908},{"NoteNumber":87,"Velocity":34,"Duration":110498,"SoundDuration":110498,"Delta":139775869},{"NoteNumber":92,"Velocity":39,"Duration":111733,"SoundDuration":111733,"Delta":139886368},{"NoteNumber":35,"Velocity":30,"Duration":697099,"SoundDuration":697099,"Delta":139886368},{"NoteNumber":87,"Velocity":35,"Duration":112995,"SoundDuration":112995,"Delta":139998101},{"NoteNumber":92,"Velocity":37,"Duration":114287,"SoundDuration":114287,"Delta":140111097},{"NoteNumber":87,"Velocity":31,"Duration":115986,"SoundDuration":115986,"Delta":140225384},{"NoteNumber":92,"Velocity":36,"Duration":118292,"SoundDuration":118292,"Delta":140341370},{"NoteNumber":87,"Velocity":30,"Duration":123804,"SoundDuration":123804,"Delta":140459662},{"NoteNumber":92,"Velocity":33,"Duration":1677019,"SoundDuration":1677019,"Delta":140583467},{"NoteNumber":32,"Velocity":27,"Duration":1677019,"SoundDuration":1677019,"Delta":140583467},{"NoteNumber":59,"Velocity":35,"Duration":515879,"SoundDuration":515879,"Delta":142260486},{"NoteNumber":47,"Velocity":27,"Duration":515879,"SoundDuration":515879,"Delta":142260486},{"NoteNumber":56,"Velocity":31,"Duration":135869,"SoundDuration":135869,"Delta":142776366},{"NoteNumber":44,"Velocity":25,"Duration":135869,"SoundDuration":135869,"Delta":142776366},{"NoteNumber":51,"Velocity":28,"Duration":1660517,"SoundDuration":1660517,"Delta":142912235},{"NoteNumber":39,"Velocity":22,"Duration":1660517,"SoundDuration":1660517,"Delta":142912235},{"NoteNumber":59,"Velocity":35,"Duration":509505,"SoundDuration":509505,"Delta":144572753},{"NoteNumber":47,"Velocity":27,"Duration":509505,"SoundDuration":509505,"Delta":144572753},{"NoteNumber":56,"Velocity":31,"Duration":135869,"SoundDuration":135869,"Delta":145082259},{"NoteNumber":44,"Velocity":25,"Duration":135869,"SoundDuration":135869,"Delta":145082259},{"NoteNumber":52,"Velocity":28,"Duration":1679640,"SoundDuration":1679640,"Delta":145218128},{"NoteNumber":40,"Velocity":22,"Duration":1679640,"SoundDuration":1679640,"Delta":145218128},{"NoteNumber":56,"Velocity":35,"Duration":481179,"SoundDuration":481179,"Delta":146897768},{"NoteNumber":44,"Velocity":27,"Duration":481179,"SoundDuration":481179,"Delta":146897768},{"NoteNumber":59,"Velocity":30,"Duration":106860,"SoundDuration":106860,"Delta":147378948},{"NoteNumber":47,"Velocity":24,"Duration":106860,"SoundDuration":106860,"Delta":147378948},{"NoteNumber":64,"Velocity":35,"Duration":525486,"SoundDuration":525486,"Delta":147485809},{"NoteNumber":52,"Velocity":27,"Duration":525486,"SoundDuration":525486,"Delta":147485809},{"NoteNumber":68,"Velocity":36,"Duration":465611,"SoundDuration":465611,"Delta":148011295},{"NoteNumber":56,"Velocity":28,"Duration":465611,"SoundDuration":465611,"Delta":148011295},{"NoteNumber":71,"Velocity":31,"Duration":101017,"SoundDuration":101017,"Delta":148476906},{"NoteNumber":59,"Velocity":25,"Duration":101017,"SoundDuration":101017,"Delta":148476906},{"NoteNumber":76,"Velocity":36,"Duration":559862,"SoundDuration":559862,"Delta":148577923},{"NoteNumber":64,"Velocity":28,"Duration":559862,"SoundDuration":559862,"Delta":148577923},{"NoteNumber":64,"Velocity":34,"Duration":553505,"SoundDuration":553505,"Delta":149141846},{"NoteNumber":52,"Velocity":27,"Duration":553505,"SoundDuration":553505,"Delta":149141846},{"NoteNumber":71,"Velocity":35,"Duration":922509,"SoundDuration":922509,"Delta":149695352},{"NoteNumber":54,"Velocity":26,"Duration":1118014,"SoundDuration":1118014,"Delta":149695352},{"NoteNumber":51,"Velocity":26,"Duration":1118014,"SoundDuration":1118014,"Delta":149695352},{"NoteNumber":59,"Velocity":26,"Duration":1118014,"SoundDuration":1118014,"Delta":149695352},{"NoteNumber":73,"Velocity":33,"Duration":148270,"SoundDuration":148270,"Delta":150617862},{"NoteNumber":71,"Velocity":34,"Duration":47234,"SoundDuration":47234,"Delta":150766133},{"NoteNumber":73,"Velocity":31,"Duration":56980,"SoundDuration":56980,"Delta":150813367},{"NoteNumber":52,"Velocity":26,"Duration":1083648,"SoundDuration":1083648,"Delta":150813367},{"NoteNumber":58,"Velocity":26,"Duration":1083648,"SoundDuration":1083648,"Delta":150813367},{"NoteNumber":55,"Velocity":26,"Duration":1083648,"SoundDuration":1083648,"Delta":150813367},{"NoteNumber":75,"Velocity":27,"Duration":56657,"SoundDuration":56657,"Delta":150870347},{"NoteNumber":73,"Velocity":31,"Duration":56338,"SoundDuration":56338,"Delta":150927005},{"NoteNumber":75,"Velocity":27,"Duration":56022,"SoundDuration":56022,"Delta":150983343},{"NoteNumber":73,"Velocity":31,"Duration":55710,"SoundDuration":55710,"Delta":151039366},{"NoteNumber":75,"Velocity":28,"Duration":55363,"SoundDuration":55363,"Delta":151095076},{"NoteNumber":73,"Velocity":31,"Duration":54869,"SoundDuration":54869,"Delta":151150440},{"NoteNumber":75,"Velocity":27,"Duration":55172,"SoundDuration":55172,"Delta":151205310},{"NoteNumber":73,"Velocity":31,"Duration":55555,"SoundDuration":55555,"Delta":151260482},{"NoteNumber":75,"Velocity":28,"Duration":55944,"SoundDuration":55944,"Delta":151316038},{"NoteNumber":73,"Velocity":26,"Duration":56338,"SoundDuration":56338,"Delta":151371982},{"NoteNumber":75,"Velocity":31,"Duration":56737,"SoundDuration":56737,"Delta":151428321},{"NoteNumber":73,"Velocity":26,"Duration":85714,"SoundDuration":85714,"Delta":151485059},{"NoteNumber":71,"Velocity":30,"Duration":105389,"SoundDuration":105389,"Delta":151570773},{"NoteNumber":75,"Velocity":35,"Duration":105389,"SoundDuration":105389,"Delta":151676162},{"NoteNumber":73,"Velocity":31,"Duration":115464,"SoundDuration":115464,"Delta":151781551},{"NoteNumber":71,"Velocity":35,"Duration":372670,"SoundDuration":372670,"Delta":151897015},{"NoteNumber":54,"Velocity":22,"Duration":372670,"SoundDuration":372670,"Delta":151897015},{"NoteNumber":51,"Velocity":19,"Duration":372670,"SoundDuration":372670,"Delta":151897015},{"NoteNumber":59,"Velocity":26,"Duration":372670,"SoundDuration":372670,"Delta":151897015},{"NoteNumber":78,"Velocity":35,"Duration":921490,"SoundDuration":921490,"Delta":154133041},{"NoteNumber":73,"Velocity":26,"Duration":1119183,"SoundDuration":1119183,"Delta":154133041},{"NoteNumber":69,"Velocity":26,"Duration":1119183,"SoundDuration":1119183,"Delta":154133041},{"NoteNumber":80,"Velocity":35,"Duration":197693,"SoundDuration":197693,"Delta":155054531},{"NoteNumber":77,"Velocity":35,"Duration":1077463,"SoundDuration":1077463,"Delta":155252225},{"NoteNumber":80,"Velocity":44,"Duration":56338,"SoundDuration":56338,"Delta":155252225},{"NoteNumber":71,"Velocity":28,"Duration":1077463,"SoundDuration":1077463,"Delta":155252225},{"NoteNumber":74,"Velocity":28,"Duration":1077463,"SoundDuration":1077463,"Delta":155252225},{"NoteNumber":81,"Velocity":35,"Duration":56101,"SoundDuration":56101,"Delta":155308563},{"NoteNumber":80,"Velocity":40,"Duration":55788,"SoundDuration":55788,"Delta":155364664},{"NoteNumber":81,"Velocity":36,"Duration":55555,"SoundDuration":55555,"Delta":155420452},{"NoteNumber":80,"Velocity":39,"Duration":55325,"SoundDuration":55325,"Delta":155476008},{"NoteNumber":81,"Velocity":36,"Duration":55020,"SoundDuration":55020,"Delta":155531333},{"NoteNumber":80,"Velocity":38,"Duration":54794,"SoundDuration":54794,"Delta":155586354},{"NoteNumber":81,"Velocity":34,"Duration":55020,"SoundDuration":55020,"Delta":155641148},{"NoteNumber":80,"Velocity":37,"Duration":55325,"SoundDuration":55325,"Delta":155696169},{"NoteNumber":81,"Velocity":35,"Duration":55555,"SoundDuration":55555,"Delta":155751494},{"NoteNumber":80,"Velocity":31,"Duration":55788,"SoundDuration":55788,"Delta":155807049},{"NoteNumber":81,"Velocity":36,"Duration":56101,"SoundDuration":56101,"Delta":155862838},{"NoteNumber":80,"Velocity":33,"Duration":84507,"SoundDuration":84507,"Delta":155918939},{"NoteNumber":78,"Velocity":33,"Duration":105389,"SoundDuration":105389,"Delta":156003446},{"NoteNumber":81,"Velocity":37,"Duration":105389,"SoundDuration":105389,"Delta":156108835},{"NoteNumber":80,"Velocity":33,"Duration":115464,"SoundDuration":115464,"Delta":156214224},{"NoteNumber":78,"Velocity":35,"Duration":372670,"SoundDuration":372670,"Delta":156329688},{"NoteNumber":69,"Velocity":22,"Duration":372670,"SoundDuration":372670,"Delta":156329688},{"NoteNumber":73,"Velocity":26,"Duration":372670,"SoundDuration":372670,"Delta":156329688},{"NoteNumber":64,"Velocity":35,"Duration":952380,"SoundDuration":952380,"Delta":158565714},{"NoteNumber":59,"Velocity":26,"Duration":1150073,"SoundDuration":1150073,"Delta":158565714},{"NoteNumber":56,"Velocity":26,"Duration":1150073,"SoundDuration":1150073,"Delta":158565714},{"NoteNumber":66,"Velocity":35,"Duration":197693,"SoundDuration":197693,"Delta":159518094},{"NoteNumber":63,"Velocity":35,"Duration":1087464,"SoundDuration":1087464,"Delta":159715788},{"NoteNumber":66,"Velocity":44,"Duration":55866,"SoundDuration":55866,"Delta":159715788},{"NoteNumber":57,"Velocity":28,"Duration":1087464,"SoundDuration":1087464,"Delta":159715788},{"NoteNumber":60,"Velocity":28,"Duration":1087464,"SoundDuration":1087464,"Delta":159715788},{"NoteNumber":68,"Velocity":35,"Duration":55710,"SoundDuration":55710,"Delta":159771654},{"NoteNumber":66,"Velocity":40,"Duration":55555,"SoundDuration":55555,"Delta":159827364},{"NoteNumber":68,"Velocity":36,"Duration":55401,"SoundDuration":55401,"Delta":159882920},{"NoteNumber":66,"Velocity":39,"Duration":55248,"SoundDuration":55248,"Delta":159938321},{"NoteNumber":68,"Velocity":36,"Duration":55096,"SoundDuration":55096,"Delta":159993570},{"NoteNumber":66,"Velocity":39,"Duration":54869,"SoundDuration":54869,"Delta":160048666},{"NoteNumber":68,"Velocity":35,"Duration":54869,"SoundDuration":54869,"Delta":160103536},{"NoteNumber":66,"Velocity":39,"Duration":55020,"SoundDuration":55020,"Delta":160158406},{"NoteNumber":68,"Velocity":35,"Duration":55172,"SoundDuration":55172,"Delta":160213427},{"NoteNumber":66,"Velocity":31,"Duration":55325,"SoundDuration":55325,"Delta":160268599},{"NoteNumber":68,"Velocity":36,"Duration":57470,"SoundDuration":57470,"Delta":160323924},{"NoteNumber":66,"Velocity":33,"Duration":95614,"SoundDuration":95614,"Delta":160381395},{"NoteNumber":64,"Velocity":33,"Duration":105389,"SoundDuration":105389,"Delta":160477010},{"NoteNumber":68,"Velocity":37,"Duration":105389,"SoundDuration":105389,"Delta":160582399},{"NoteNumber":66,"Velocity":33,"Duration":115464,"SoundDuration":115464,"Delta":160687788},{"NoteNumber":64,"Velocity":35,"Duration":542169,"SoundDuration":542169,"Delta":160803252},{"NoteNumber":56,"Velocity":22,"Duration":542169,"SoundDuration":542169,"Delta":160803252},{"NoteNumber":59,"Velocity":26,"Duration":542169,"SoundDuration":542169,"Delta":160803252},{"NoteNumber":57,"Velocity":45,"Duration":1097562,"SoundDuration":1097562,"Delta":161345421},{"NoteNumber":61,"Velocity":45,"Duration":1097562,"SoundDuration":1097562,"Delta":161345421},{"NoteNumber":69,"Velocity":53,"Duration":1097562,"SoundDuration":1097562,"Delta":161345421},{"NoteNumber":42,"Velocity":44,"Duration":1097562,"SoundDuration":1097562,"Delta":161345421},{"NoteNumber":57,"Velocity":36,"Duration":559040,"SoundDuration":559040,"Delta":162442983},{"NoteNumber":61,"Velocity":36,"Duration":559040,"SoundDuration":559040,"Delta":162442983},{"NoteNumber":66,"Velocity":44,"Duration":462447,"SoundDuration":462447,"Delta":162442983},{"NoteNumber":45,"Velocity":40,"Duration":559040,"SoundDuration":559040,"Delta":162442983},{"NoteNumber":68,"Velocity":39,"Duration":96593,"SoundDuration":96593,"Delta":162905431},{"NoteNumber":64,"Velocity":42,"Duration":1112691,"SoundDuration":1112691,"Delta":163002024},{"NoteNumber":56,"Velocity":35,"Duration":1112691,"SoundDuration":1112691,"Delta":163002024},{"NoteNumber":59,"Velocity":35,"Duration":1112691,"SoundDuration":1112691,"Delta":163002024},{"NoteNumber":47,"Velocity":35,"Duration":1112691,"SoundDuration":1112691,"Delta":163002024},{"NoteNumber":63,"Velocity":36,"Duration":1112690,"SoundDuration":1112690,"Delta":164114715},{"NoteNumber":57,"Velocity":30,"Duration":1112690,"SoundDuration":1112690,"Delta":164114715},{"NoteNumber":54,"Velocity":30,"Duration":1112690,"SoundDuration":1112690,"Delta":164114715},{"NoteNumber":35,"Velocity":30,"Duration":1112690,"SoundDuration":1112690,"Delta":164114715},{"NoteNumber":76,"Velocity":35,"Duration":921490,"SoundDuration":921490,"Delta":165227406},{"NoteNumber":71,"Velocity":26,"Duration":1119183,"SoundDuration":1119183,"Delta":165227406},{"NoteNumber":68,"Velocity":26,"Duration":1119183,"SoundDuration":1119183,"Delta":165227406},{"NoteNumber":78,"Velocity":35,"Duration":197693,"SoundDuration":197693,"Delta":166148896},{"NoteNumber":78,"Velocity":36,"Duration":56179,"SoundDuration":56179,"Delta":166346590},{"NoteNumber":75,"Velocity":29,"Duration":1073792,"SoundDuration":1073792,"Delta":166346590},{"NoteNumber":69,"Velocity":28,"Duration":1073792,"SoundDuration":1073792,"Delta":166346590},{"NoteNumber":72,"Velocity":28,"Duration":1073792,"SoundDuration":1073792,"Delta":166346590},{"NoteNumber":80,"Velocity":33,"Duration":55944,"SoundDuration":55944,"Delta":166402769},{"NoteNumber":78,"Velocity":36,"Duration":55632,"SoundDuration":55632,"Delta":166458714},{"NoteNumber":80,"Velocity":34,"Duration":55478,"SoundDuration":55478,"Delta":166514347},{"NoteNumber":78,"Velocity":36,"Duration":55172,"SoundDuration":55172,"Delta":166569825},{"NoteNumber":80,"Velocity":34,"Duration":54869,"SoundDuration":54869,"Delta":166624998},{"NoteNumber":78,"Velocity":36,"Duration":54869,"SoundDuration":54869,"Delta":166679867},{"NoteNumber":80,"Velocity":32,"Duration":55020,"SoundDuration":55020,"Delta":166734737},{"NoteNumber":78,"Velocity":36,"Duration":55248,"SoundDuration":55248,"Delta":166789758},{"NoteNumber":80,"Velocity":33,"Duration":55401,"SoundDuration":55401,"Delta":166845007},{"NoteNumber":78,"Velocity":30,"Duration":55632,"SoundDuration":55632,"Delta":166900408},{"NoteNumber":80,"Velocity":34,"Duration":55788,"SoundDuration":55788,"Delta":166956041},{"NoteNumber":78,"Velocity":31,"Duration":84033,"SoundDuration":84033,"Delta":167011829},{"NoteNumber":76,"Velocity":33,"Duration":104836,"SoundDuration":104836,"Delta":167095863},{"NoteNumber":80,"Velocity":37,"Duration":104836,"SoundDuration":104836,"Delta":167200699},{"NoteNumber":78,"Velocity":33,"Duration":114845,"SoundDuration":114845,"Delta":167305536},{"NoteNumber":76,"Velocity":35,"Duration":541288,"SoundDuration":541288,"Delta":167420382},{"NoteNumber":68,"Velocity":22,"Duration":541288,"SoundDuration":541288,"Delta":167420382},{"NoteNumber":71,"Velocity":26,"Duration":541288,"SoundDuration":541288,"Delta":167420382},{"NoteNumber":69,"Velocity":45,"Duration":1099100,"SoundDuration":1099100,"Delta":167961670},{"NoteNumber":73,"Velocity":45,"Duration":1099100,"SoundDuration":1099100,"Delta":167961670},{"NoteNumber":81,"Velocity":53,"Duration":1099100,"SoundDuration":1099100,"Delta":167961670},{"NoteNumber":66,"Velocity":44,"Duration":1099100,"SoundDuration":1099100,"Delta":167961670},{"NoteNumber":54,"Velocity":38,"Duration":1099100,"SoundDuration":1099100,"Delta":167961670},{"NoteNumber":69,"Velocity":36,"Duration":559553,"SoundDuration":559553,"Delta":169060771},{"NoteNumber":73,"Velocity":36,"Duration":559553,"SoundDuration":559553,"Delta":169060771},{"NoteNumber":78,"Velocity":44,"Duration":462960,"SoundDuration":462960,"Delta":169060771},{"NoteNumber":57,"Velocity":40,"Duration":559553,"SoundDuration":559553,"Delta":169060771},{"NoteNumber":80,"Velocity":39,"Duration":96593,"SoundDuration":96593,"Delta":169523732},{"NoteNumber":68,"Velocity":35,"Duration":1112691,"SoundDuration":1112691,"Delta":169620325},{"NoteNumber":76,"Velocity":42,"Duration":1112691,"SoundDuration":1112691,"Delta":169620325},{"NoteNumber":71,"Velocity":35,"Duration":1112691,"SoundDuration":1112691,"Delta":169620325},{"NoteNumber":59,"Velocity":35,"Duration":1112691,"SoundDuration":1112691,"Delta":169620325},{"NoteNumber":75,"Velocity":36,"Duration":370896,"SoundDuration":370896,"Delta":170733016},{"NoteNumber":69,"Velocity":30,"Duration":370896,"SoundDuration":370896,"Delta":170733016},{"NoteNumber":66,"Velocity":30,"Duration":370896,"SoundDuration":370896,"Delta":170733016},{"NoteNumber":47,"Velocity":30,"Duration":370896,"SoundDuration":370896,"Delta":170733016},{"NoteNumber":47,"Velocity":83,"Duration":455250,"SoundDuration":455250,"Delta":171289362},{"NoteNumber":43,"Velocity":75,"Duration":100671,"SoundDuration":100671,"Delta":171744612},{"NoteNumber":71,"Velocity":70,"Duration":85276,"SoundDuration":85276,"Delta":171845284},{"NoteNumber":40,"Velocity":80,"Duration":1548031,"SoundDuration":1548031,"Delta":171845284},{"NoteNumber":67,"Velocity":61,"Duration":85868,"SoundDuration":85868,"Delta":171930560},{"NoteNumber":71,"Velocity":70,"Duration":84959,"SoundDuration":84959,"Delta":172016429},{"NoteNumber":67,"Velocity":60,"Duration":86456,"SoundDuration":86456,"Delta":172101388},{"NoteNumber":71,"Velocity":70,"Duration":84797,"SoundDuration":84797,"Delta":172187844},{"NoteNumber":67,"Velocity":61,"Duration":86520,"SoundDuration":86520,"Delta":172272641},{"NoteNumber":71,"Velocity":70,"Duration":85609,"SoundDuration":85609,"Delta":172359162},{"NoteNumber":67,"Velocity":60,"Duration":85674,"SoundDuration":85674,"Delta":172444771},{"NoteNumber":71,"Velocity":70,"Duration":86045,"SoundDuration":86045,"Delta":172530446},{"NoteNumber":67,"Velocity":60,"Duration":84975,"SoundDuration":84975,"Delta":172616491},{"NoteNumber":71,"Velocity":70,"Duration":85972,"SoundDuration":85972,"Delta":172701467},{"NoteNumber":67,"Velocity":59,"Duration":85905,"SoundDuration":85905,"Delta":172787439},{"NoteNumber":71,"Velocity":70,"Duration":88305,"SoundDuration":88305,"Delta":172873345},{"NoteNumber":67,"Velocity":61,"Duration":85912,"SoundDuration":85912,"Delta":172961651},{"NoteNumber":71,"Velocity":70,"Duration":86743,"SoundDuration":86743,"Delta":173047563},{"NoteNumber":67,"Velocity":60,"Duration":87105,"SoundDuration":87105,"Delta":173134307},{"NoteNumber":71,"Velocity":70,"Duration":85840,"SoundDuration":85840,"Delta":173221412},{"NoteNumber":67,"Velocity":61,"Duration":86062,"SoundDuration":86062,"Delta":173307253},{"NoteNumber":71,"Velocity":70,"Duration":86345,"SoundDuration":86345,"Delta":173393315},{"NoteNumber":43,"Velocity":81,"Duration":426383,"SoundDuration":426383,"Delta":173393315},{"NoteNumber":67,"Velocity":60,"Duration":87002,"SoundDuration":87002,"Delta":173479660},{"NoteNumber":71,"Velocity":70,"Duration":84345,"SoundDuration":84345,"Delta":173566662},{"NoteNumber":67,"Velocity":60,"Duration":84345,"SoundDuration":84345,"Delta":173651008},{"NoteNumber":71,"Velocity":70,"Duration":84345,"SoundDuration":84345,"Delta":173735353},{"NoteNumber":67,"Velocity":59,"Duration":86157,"SoundDuration":86157,"Delta":173819699},{"NoteNumber":47,"Velocity":73,"Duration":86157,"SoundDuration":86157,"Delta":173819699},{"NoteNumber":71,"Velocity":70,"Duration":81240,"SoundDuration":81240,"Delta":173905856},{"NoteNumber":52,"Velocity":81,"Duration":489427,"SoundDuration":489427,"Delta":173905856},{"NoteNumber":67,"Velocity":61,"Duration":81681,"SoundDuration":81681,"Delta":173987096},{"NoteNumber":71,"Velocity":70,"Duration":81387,"SoundDuration":81387,"Delta":174068778},{"NoteNumber":67,"Velocity":60,"Duration":81407,"SoundDuration":81407,"Delta":174150166},{"NoteNumber":71,"Velocity":70,"Duration":81792,"SoundDuration":81792,"Delta":174231574},{"NoteNumber":67,"Velocity":61,"Duration":81917,"SoundDuration":81917,"Delta":174313366},{"NoteNumber":71,"Velocity":70,"Duration":84094,"SoundDuration":84094,"Delta":174395284},{"NoteNumber":55,"Velocity":83,"Duration":426399,"SoundDuration":426399,"Delta":174395284},{"NoteNumber":67,"Velocity":60,"Duration":84094,"SoundDuration":84094,"Delta":174479378},{"NoteNumber":71,"Velocity":70,"Duration":86017,"SoundDuration":86017,"Delta":174563473},{"NoteNumber":67,"Velocity":60,"Duration":85956,"SoundDuration":85956,"Delta":174649490},{"NoteNumber":71,"Velocity":70,"Duration":86237,"SoundDuration":86237,"Delta":174735446},{"NoteNumber":67,"Velocity":59,"Duration":91196,"SoundDuration":91196,"Delta":174821683},{"NoteNumber":59,"Velocity":73,"Duration":91196,"SoundDuration":91196,"Delta":174821683},{"NoteNumber":71,"Velocity":70,"Duration":84597,"SoundDuration":84597,"Delta":174912880},{"NoteNumber":64,"Velocity":82,"Duration":507585,"SoundDuration":507585,"Delta":174912880},{"NoteNumber":67,"Velocity":61,"Duration":84597,"SoundDuration":84597,"Delta":174997477},{"NoteNumber":71,"Velocity":70,"Duration":84597,"SoundDuration":84597,"Delta":175082075},{"NoteNumber":67,"Velocity":60,"Duration":84597,"SoundDuration":84597,"Delta":175166672},{"NoteNumber":71,"Velocity":70,"Duration":84597,"SoundDuration":84597,"Delta":175251270},{"NoteNumber":67,"Velocity":61,"Duration":84597,"SoundDuration":84597,"Delta":175335867},{"NoteNumber":71,"Velocity":70,"Duration":83565,"SoundDuration":83565,"Delta":175420465},{"NoteNumber":64,"Velocity":79,"Duration":503275,"SoundDuration":503275,"Delta":175420465},{"NoteNumber":67,"Velocity":60,"Duration":83565,"SoundDuration":83565,"Delta":175504030},{"NoteNumber":71,"Velocity":70,"Duration":83565,"SoundDuration":83565,"Delta":175587596},{"NoteNumber":67,"Velocity":60,"Duration":83565,"SoundDuration":83565,"Delta":175671161},{"NoteNumber":71,"Velocity":70,"Duration":84507,"SoundDuration":84507,"Delta":175754727},{"NoteNumber":67,"Velocity":59,"Duration":84507,"SoundDuration":84507,"Delta":175839234},{"NoteNumber":65,"Velocity":83,"Duration":97560,"SoundDuration":97560,"Delta":175923741},{"NoteNumber":67,"Velocity":67,"Duration":97560,"SoundDuration":97560,"Delta":176021302},{"NoteNumber":71,"Velocity":70,"Duration":97560,"SoundDuration":97560,"Delta":176118863},{"NoteNumber":67,"Velocity":68,"Duration":99057,"SoundDuration":99057,"Delta":176216424},{"NoteNumber":65,"Velocity":68,"Duration":101408,"SoundDuration":101408,"Delta":176315481},{"NoteNumber":62,"Velocity":81,"Duration":100278,"SoundDuration":100278,"Delta":176416889},{"NoteNumber":65,"Velocity":67,"Duration":100278,"SoundDuration":100278,"Delta":176517168},{"NoteNumber":67,"Velocity":70,"Duration":100278,"SoundDuration":100278,"Delta":176617446},{"NoteNumber":65,"Velocity":68,"Duration":100702,"SoundDuration":100702,"Delta":176717725},{"NoteNumber":62,"Velocity":68,"Duration":100913,"SoundDuration":100913,"Delta":176818427},{"NoteNumber":59,"Velocity":77,"Duration":99711,"SoundDuration":99711,"Delta":176919341},{"NoteNumber":62,"Velocity":62,"Duration":99711,"SoundDuration":99711,"Delta":177019053},{"NoteNumber":65,"Velocity":67,"Duration":99711,"SoundDuration":99711,"Delta":177118764},{"NoteNumber":62,"Velocity":63,"Duration":99711,"SoundDuration":99711,"Delta":177218476},{"NoteNumber":59,"Velocity":63,"Duration":99711,"SoundDuration":99711,"Delta":177318188},{"NoteNumber":71,"Velocity":89,"Duration":415466,"SoundDuration":415466,"Delta":177417900},{"NoteNumber":55,"Velocity":70,"Duration":99711,"SoundDuration":99711,"Delta":177417900},{"NoteNumber":59,"Velocity":59,"Duration":99711,"SoundDuration":99711,"Delta":177517612},{"NoteNumber":62,"Velocity":62,"Duration":99711,"SoundDuration":99711,"Delta":177617324},{"NoteNumber":59,"Velocity":60,"Duration":99711,"SoundDuration":99711,"Delta":177717036},{"NoteNumber":55,"Velocity":60,"Duration":102509,"SoundDuration":102509,"Delta":177816748},{"NoteNumber":74,"Velocity":80,"Duration":85891,"SoundDuration":85891,"Delta":177833366},{"NoteNumber":79,"Velocity":89,"Duration":489427,"SoundDuration":489427,"Delta":177919257},{"NoteNumber":53,"Velocity":70,"Duration":97522,"SoundDuration":97522,"Delta":177919257},{"NoteNumber":55,"Velocity":59,"Duration":97799,"SoundDuration":97799,"Delta":178016780},{"NoteNumber":59,"Velocity":62,"Duration":97616,"SoundDuration":97616,"Delta":178114579},{"NoteNumber":55,"Velocity":60,"Duration":98099,"SoundDuration":98099,"Delta":178212196},{"NoteNumber":53,"Velocity":60,"Duration":98390,"SoundDuration":98390,"Delta":178310295},{"NoteNumber":83,"Velocity":91,"Duration":428079,"SoundDuration":428079,"Delta":178408685},{"NoteNumber":50,"Velocity":70,"Duration":101827,"SoundDuration":101827,"Delta":178408685},{"NoteNumber":53,"Velocity":59,"Duration":102479,"SoundDuration":102479,"Delta":178510512},{"NoteNumber":55,"Velocity":62,"Duration":103282,"SoundDuration":103282,"Delta":178612992},{"NoteNumber":53,"Velocity":60,"Duration":103206,"SoundDuration":103206,"Delta":178716274},{"NoteNumber":50,"Velocity":60,"Duration":108480,"SoundDuration":108480,"Delta":178819481},{"NoteNumber":86,"Velocity":80,"Duration":91196,"SoundDuration":91196,"Delta":178836765},{"NoteNumber":79,"Velocity":82,"Duration":508174,"SoundDuration":508174,"Delta":178927961},{"NoteNumber":91,"Velocity":90,"Duration":508174,"SoundDuration":508174,"Delta":178927961},{"NoteNumber":47,"Velocity":70,"Duration":83565,"SoundDuration":83565,"Delta":178927961},{"NoteNumber":50,"Velocity":59,"Duration":83565,"SoundDuration":83565,"Delta":179011527},{"NoteNumber":53,"Velocity":60,"Duration":83565,"SoundDuration":83565,"Delta":179095092},{"NoteNumber":50,"Velocity":66,"Duration":83565,"SoundDuration":83565,"Delta":179178658},{"NoteNumber":47,"Velocity":59,"Duration":86956,"SoundDuration":86956,"Delta":179262223},{"NoteNumber":43,"Velocity":60,"Duration":86956,"SoundDuration":86956,"Delta":179349180},{"NoteNumber":91,"Velocity":86,"Duration":499118,"SoundDuration":499118,"Delta":179436136},{"NoteNumber":79,"Velocity":79,"Duration":499118,"SoundDuration":499118,"Delta":179436136},{"NoteNumber":41,"Velocity":70,"Duration":82644,"SoundDuration":82644,"Delta":179436136},{"NoteNumber":43,"Velocity":60,"Duration":82644,"SoundDuration":82644,"Delta":179518781},{"NoteNumber":47,"Velocity":60,"Duration":82644,"SoundDuration":82644,"Delta":179601426},{"NoteNumber":43,"Velocity":66,"Duration":82644,"SoundDuration":82644,"Delta":179684070},{"NoteNumber":41,"Velocity":66,"Duration":84269,"SoundDuration":84269,"Delta":179766715},{"NoteNumber":38,"Velocity":60,"Duration":84269,"SoundDuration":84269,"Delta":179850985},{"NoteNumber":79,"Velocity":91,"Duration":96968,"SoundDuration":96968,"Delta":179935255},{"NoteNumber":91,"Velocity":91,"Duration":96968,"SoundDuration":96968,"Delta":179935255},{"NoteNumber":36,"Velocity":80,"Duration":1470518,"SoundDuration":1470518,"Delta":179935255},{"NoteNumber":87,"Velocity":73,"Duration":96297,"SoundDuration":96297,"Delta":180032223},{"NoteNumber":91,"Velocity":77,"Duration":96297,"SoundDuration":96297,"Delta":180128521},{"NoteNumber":87,"Velocity":74,"Duration":96297,"SoundDuration":96297,"Delta":180224819},{"NoteNumber":84,"Velocity":74,"Duration":96297,"SoundDuration":96297,"Delta":180321116},{"NoteNumber":79,"Velocity":91,"Duration":98835,"SoundDuration":98835,"Delta":180417414},{"NoteNumber":84,"Velocity":73,"Duration":98835,"SoundDuration":98835,"Delta":180516250},{"NoteNumber":87,"Velocity":77,"Duration":98835,"SoundDuration":98835,"Delta":180615086},{"NoteNumber":84,"Velocity":74,"Duration":98835,"SoundDuration":98835,"Delta":180713922},{"NoteNumber":79,"Velocity":74,"Duration":98835,"SoundDuration":98835,"Delta":180812758},{"NoteNumber":75,"Velocity":91,"Duration":98835,"SoundDuration":98835,"Delta":180911594},{"NoteNumber":79,"Velocity":73,"Duration":98835,"SoundDuration":98835,"Delta":181010430},{"NoteNumber":84,"Velocity":77,"Duration":98835,"SoundDuration":98835,"Delta":181109266},{"NoteNumber":79,"Velocity":74,"Duration":98835,"SoundDuration":98835,"Delta":181208102},{"NoteNumber":75,"Velocity":74,"Duration":98835,"SoundDuration":98835,"Delta":181306937},{"NoteNumber":72,"Velocity":91,"Duration":98835,"SoundDuration":98835,"Delta":181405773},{"NoteNumber":39,"Velocity":81,"Duration":411816,"SoundDuration":411816,"Delta":181405773},{"NoteNumber":75,"Velocity":73,"Duration":98835,"SoundDuration":98835,"Delta":181504609},{"NoteNumber":79,"Velocity":77,"Duration":98835,"SoundDuration":98835,"Delta":181603445},{"NoteNumber":75,"Velocity":74,"Duration":98835,"SoundDuration":98835,"Delta":181702281},{"NoteNumber":72,"Velocity":74,"Duration":106790,"SoundDuration":106790,"Delta":181801117},{"NoteNumber":43,"Velocity":73,"Duration":90317,"SoundDuration":90317,"Delta":181817590},{"NoteNumber":67,"Velocity":91,"Duration":97522,"SoundDuration":97522,"Delta":181907908},{"NoteNumber":48,"Velocity":81,"Duration":489427,"SoundDuration":489427,"Delta":181907908},{"NoteNumber":72,"Velocity":73,"Duration":97799,"SoundDuration":97799,"Delta":182005430},{"NoteNumber":75,"Velocity":77,"Duration":97616,"SoundDuration":97616,"Delta":182103229},{"NoteNumber":72,"Velocity":74,"Duration":98099,"SoundDuration":98099,"Delta":182200846},{"NoteNumber":67,"Velocity":74,"Duration":98390,"SoundDuration":98390,"Delta":182298945},{"NoteNumber":63,"Velocity":91,"Duration":101827,"SoundDuration":101827,"Delta":182397335},{"NoteNumber":51,"Velocity":83,"Duration":428079,"SoundDuration":428079,"Delta":182397335},{"NoteNumber":67,"Velocity":73,"Duration":102479,"SoundDuration":102479,"Delta":182499162},{"NoteNumber":72,"Velocity":77,"Duration":103282,"SoundDuration":103282,"Delta":182601642},{"NoteNumber":67,"Velocity":74,"Duration":103206,"SoundDuration":103206,"Delta":182704924},{"NoteNumber":63,"Velocity":74,"Duration":108480,"SoundDuration":108480,"Delta":182808131},{"NoteNumber":55,"Velocity":73,"Duration":91196,"SoundDuration":91196,"Delta":182825415},{"NoteNumber":63,"Velocity":91,"Duration":99723,"SoundDuration":99723,"Delta":182916611},{"NoteNumber":60,"Velocity":82,"Duration":498615,"SoundDuration":498615,"Delta":182916611},{"NoteNumber":67,"Velocity":73,"Duration":99722,"SoundDuration":99722,"Delta":183016334},{"NoteNumber":72,"Velocity":77,"Duration":99723,"SoundDuration":99723,"Delta":183116057},{"NoteNumber":67,"Velocity":74,"Duration":99722,"SoundDuration":99722,"Delta":183215780},{"NoteNumber":63,"Velocity":74,"Duration":99723,"SoundDuration":99723,"Delta":183315503},{"NoteNumber":63,"Velocity":91,"Duration":100010,"SoundDuration":100010,"Delta":183415226},{"NoteNumber":60,"Velocity":79,"Duration":502384,"SoundDuration":502384,"Delta":183415226},{"NoteNumber":67,"Velocity":73,"Duration":100010,"SoundDuration":100010,"Delta":183515237},{"NoteNumber":72,"Velocity":77,"Duration":100011,"SoundDuration":100011,"Delta":183615248},{"NoteNumber":67,"Velocity":74,"Duration":100942,"SoundDuration":100942,"Delta":183715259},{"NoteNumber":63,"Velocity":74,"Duration":101408,"SoundDuration":101408,"Delta":183816202},{"NoteNumber":61,"Velocity":83,"Duration":97693,"SoundDuration":97693,"Delta":183917610},{"NoteNumber":63,"Velocity":67,"Duration":97693,"SoundDuration":97693,"Delta":184015304},{"NoteNumber":67,"Velocity":70,"Duration":97693,"SoundDuration":97693,"Delta":184112997},{"NoteNumber":63,"Velocity":68,"Duration":100449,"SoundDuration":100449,"Delta":184210691},{"NoteNumber":61,"Velocity":68,"Duration":101827,"SoundDuration":101827,"Delta":184311140},{"NoteNumber":58,"Velocity":81,"Duration":100010,"SoundDuration":100010,"Delta":184412967},{"NoteNumber":61,"Velocity":67,"Duration":100010,"SoundDuration":100010,"Delta":184512978},{"NoteNumber":63,"Velocity":70,"Duration":100011,"SoundDuration":100011,"Delta":184612989},{"NoteNumber":61,"Velocity":68,"Duration":100612,"SoundDuration":100612,"Delta":184713000},{"NoteNumber":58,"Velocity":68,"Duration":100913,"SoundDuration":100913,"Delta":184813613},{"NoteNumber":55,"Velocity":77,"Duration":99711,"SoundDuration":99711,"Delta":184914527},{"NoteNumber":58,"Velocity":62,"Duration":99711,"SoundDuration":99711,"Delta":185014239},{"NoteNumber":61,"Velocity":67,"Duration":99711,"SoundDuration":99711,"Delta":185113951},{"NoteNumber":58,"Velocity":63,"Duration":99711,"SoundDuration":99711,"Delta":185213662},{"NoteNumber":55,"Velocity":63,"Duration":99711,"SoundDuration":99711,"Delta":185313374},{"NoteNumber":67,"Velocity":89,"Duration":409836,"SoundDuration":409836,"Delta":185413086},{"NoteNumber":51,"Velocity":70,"Duration":98360,"SoundDuration":98360,"Delta":185413086},{"NoteNumber":55,"Velocity":59,"Duration":98360,"SoundDuration":98360,"Delta":185511447},{"NoteNumber":58,"Velocity":62,"Duration":98360,"SoundDuration":98360,"Delta":185609808},{"NoteNumber":55,"Velocity":60,"Duration":98360,"SoundDuration":98360,"Delta":185708168},{"NoteNumber":51,"Velocity":60,"Duration":102848,"SoundDuration":102848,"Delta":185806529},{"NoteNumber":70,"Velocity":80,"Duration":86455,"SoundDuration":86455,"Delta":185822923},{"NoteNumber":75,"Velocity":89,"Duration":489427,"SoundDuration":489427,"Delta":185909378},{"NoteNumber":49,"Velocity":70,"Duration":97522,"SoundDuration":97522,"Delta":185909378},{"NoteNumber":51,"Velocity":59,"Duration":97799,"SoundDuration":97799,"Delta":186006900},{"NoteNumber":55,"Velocity":62,"Duration":97616,"SoundDuration":97616,"Delta":186104700},{"NoteNumber":51,"Velocity":60,"Duration":98099,"SoundDuration":98099,"Delta":186202316},{"NoteNumber":49,"Velocity":60,"Duration":98390,"SoundDuration":98390,"Delta":186300415},{"NoteNumber":79,"Velocity":91,"Duration":428079,"SoundDuration":428079,"Delta":186398805},{"NoteNumber":46,"Velocity":70,"Duration":101827,"SoundDuration":101827,"Delta":186398805},{"NoteNumber":49,"Velocity":59,"Duration":102479,"SoundDuration":102479,"Delta":186500632},{"NoteNumber":51,"Velocity":62,"Duration":103282,"SoundDuration":103282,"Delta":186603112},{"NoteNumber":49,"Velocity":60,"Duration":103206,"SoundDuration":103206,"Delta":186706394},{"NoteNumber":46,"Velocity":60,"Duration":108480,"SoundDuration":108480,"Delta":186809601},{"NoteNumber":82,"Velocity":80,"Duration":91196,"SoundDuration":91196,"Delta":186826885},{"NoteNumber":75,"Velocity":82,"Duration":512005,"SoundDuration":512005,"Delta":186918081},{"NoteNumber":87,"Velocity":90,"Duration":512005,"SoundDuration":512005,"Delta":186918081},{"NoteNumber":43,"Velocity":70,"Duration":84269,"SoundDuration":84269,"Delta":186918081},{"NoteNumber":46,"Velocity":59,"Duration":84269,"SoundDuration":84269,"Delta":187002351},{"NoteNumber":49,"Velocity":60,"Duration":84269,"SoundDuration":84269,"Delta":187086621},{"NoteNumber":46,"Velocity":66,"Duration":84269,"SoundDuration":84269,"Delta":187170891},{"NoteNumber":43,"Velocity":59,"Duration":87463,"SoundDuration":87463,"Delta":187255160},{"NoteNumber":39,"Velocity":60,"Duration":87463,"SoundDuration":87463,"Delta":187342624},{"NoteNumber":75,"Velocity":79,"Duration":504129,"SoundDuration":504129,"Delta":187430087},{"NoteNumber":87,"Velocity":86,"Duration":504129,"SoundDuration":504129,"Delta":187430087},{"NoteNumber":37,"Velocity":70,"Duration":83333,"SoundDuration":83333,"Delta":187430087},{"NoteNumber":39,"Velocity":60,"Duration":83333,"SoundDuration":83333,"Delta":187513421},{"NoteNumber":43,"Velocity":60,"Duration":83333,"SoundDuration":83333,"Delta":187596754},{"NoteNumber":39,"Velocity":66,"Duration":83333,"SoundDuration":83333,"Delta":187680087},{"NoteNumber":37,"Velocity":66,"Duration":83333,"SoundDuration":83333,"Delta":187763420},{"NoteNumber":34,"Velocity":60,"Duration":87463,"SoundDuration":87463,"Delta":187846754},{"NoteNumber":87,"Velocity":100,"Duration":99173,"SoundDuration":99173,"Delta":187934217},{"NoteNumber":32,"Velocity":80,"Duration":1469673,"SoundDuration":1469673,"Delta":187934217},{"NoteNumber":92,"Velocity":80,"Duration":98460,"SoundDuration":98460,"Delta":188033391},{"NoteNumber":96,"Velocity":83,"Duration":97035,"SoundDuration":97035,"Delta":188131852},{"NoteNumber":92,"Velocity":81,"Duration":97035,"SoundDuration":97035,"Delta":188228887},{"NoteNumber":87,"Velocity":80,"Duration":97035,"SoundDuration":97035,"Delta":188325922},{"NoteNumber":84,"Velocity":97,"Duration":97826,"SoundDuration":97826,"Delta":188422957},{"NoteNumber":87,"Velocity":78,"Duration":97826,"SoundDuration":97826,"Delta":188520783},{"NoteNumber":92,"Velocity":81,"Duration":97826,"SoundDuration":97826,"Delta":188618609},{"NoteNumber":87,"Velocity":79,"Duration":97826,"SoundDuration":97826,"Delta":188716435},{"NoteNumber":84,"Velocity":75,"Duration":97826,"SoundDuration":97826,"Delta":188814261},{"NoteNumber":80,"Velocity":95,"Duration":98360,"SoundDuration":98360,"Delta":188912087},{"NoteNumber":84,"Velocity":77,"Duration":98360,"SoundDuration":98360,"Delta":189010448},{"NoteNumber":87,"Velocity":79,"Duration":98360,"SoundDuration":98360,"Delta":189108809},{"NoteNumber":84,"Velocity":77,"Duration":98360,"SoundDuration":98360,"Delta":189207169},{"NoteNumber":80,"Velocity":77,"Duration":98360,"SoundDuration":98360,"Delta":189305530},{"NoteNumber":75,"Velocity":93,"Duration":98360,"SoundDuration":98360,"Delta":189403891},{"NoteNumber":36,"Velocity":81,"Duration":409836,"SoundDuration":409836,"Delta":189403891},{"NoteNumber":80,"Velocity":74,"Duration":98360,"SoundDuration":98360,"Delta":189502251},{"NoteNumber":84,"Velocity":78,"Duration":98360,"SoundDuration":98360,"Delta":189600612},{"NoteNumber":80,"Velocity":74,"Duration":98360,"SoundDuration":98360,"Delta":189698973},{"NoteNumber":75,"Velocity":74,"Duration":106711,"SoundDuration":106711,"Delta":189797333},{"NoteNumber":39,"Velocity":73,"Duration":90317,"SoundDuration":90317,"Delta":189813727},{"NoteNumber":72,"Velocity":91,"Duration":97522,"SoundDuration":97522,"Delta":189904045},{"NoteNumber":44,"Velocity":81,"Duration":489427,"SoundDuration":489427,"Delta":189904045},{"NoteNumber":75,"Velocity":73,"Duration":97799,"SoundDuration":97799,"Delta":190001567},{"NoteNumber":80,"Velocity":77,"Duration":97616,"SoundDuration":97616,"Delta":190099367},{"NoteNumber":75,"Velocity":74,"Duration":98099,"SoundDuration":98099,"Delta":190196983},{"NoteNumber":72,"Velocity":74,"Duration":98390,"SoundDuration":98390,"Delta":190295082},{"NoteNumber":68,"Velocity":91,"Duration":101827,"SoundDuration":101827,"Delta":190393472},{"NoteNumber":48,"Velocity":83,"Duration":428079,"SoundDuration":428079,"Delta":190393472},{"NoteNumber":72,"Velocity":73,"Duration":102479,"SoundDuration":102479,"Delta":190495300},{"NoteNumber":75,"Velocity":77,"Duration":103282,"SoundDuration":103282,"Delta":190597779},{"NoteNumber":72,"Velocity":74,"Duration":103206,"SoundDuration":103206,"Delta":190701062},{"NoteNumber":68,"Velocity":74,"Duration":108480,"SoundDuration":108480,"Delta":190804268},{"NoteNumber":51,"Velocity":73,"Duration":91196,"SoundDuration":91196,"Delta":190821552},{"NoteNumber":63,"Velocity":91,"Duration":98092,"SoundDuration":98092,"Delta":190912749},{"NoteNumber":56,"Velocity":82,"Duration":490462,"SoundDuration":490462,"Delta":190912749},{"NoteNumber":68,"Velocity":73,"Duration":98092,"SoundDuration":98092,"Delta":191010841},{"NoteNumber":72,"Velocity":77,"Duration":98092,"SoundDuration":98092,"Delta":191108934},{"NoteNumber":68,"Velocity":74,"Duration":98092,"SoundDuration":98092,"Delta":191207026},{"NoteNumber":63,"Velocity":74,"Duration":98092,"SoundDuration":98092,"Delta":191305119},{"NoteNumber":60,"Velocity":91,"Duration":100010,"SoundDuration":100010,"Delta":191403211},{"NoteNumber":56,"Velocity":79,"Duration":500055,"SoundDuration":500055,"Delta":191403211},{"NoteNumber":63,"Velocity":73,"Duration":100010,"SoundDuration":100010,"Delta":191503222},{"NoteNumber":68,"Velocity":77,"Duration":100011,"SoundDuration":100011,"Delta":191603233},{"NoteNumber":63,"Velocity":74,"Duration":100010,"SoundDuration":100010,"Delta":191703244},{"NoteNumber":60,"Velocity":74,"Duration":100010,"SoundDuration":100010,"Delta":191803255},{"NoteNumber":66,"Velocity":83,"Duration":1492333,"SoundDuration":1492333,"Delta":191903266},{"NoteNumber":57,"Velocity":83,"Duration":97693,"SoundDuration":97693,"Delta":191903266},{"NoteNumber":60,"Velocity":67,"Duration":97693,"SoundDuration":97693,"Delta":192000960},{"NoteNumber":63,"Velocity":70,"Duration":97693,"SoundDuration":97693,"Delta":192098653},{"NoteNumber":60,"Velocity":68,"Duration":100449,"SoundDuration":100449,"Delta":192196347},{"NoteNumber":57,"Velocity":68,"Duration":101827,"SoundDuration":101827,"Delta":192296796},{"NoteNumber":54,"Velocity":81,"Duration":100010,"SoundDuration":100010,"Delta":192398623},{"NoteNumber":57,"Velocity":67,"Duration":100010,"SoundDuration":100010,"Delta":192498634},{"NoteNumber":60,"Velocity":70,"Duration":100011,"SoundDuration":100011,"Delta":192598645},{"NoteNumber":57,"Velocity":68,"Duration":100612,"SoundDuration":100612,"Delta":192698656},{"NoteNumber":54,"Velocity":68,"Duration":100913,"SoundDuration":100913,"Delta":192799269},{"NoteNumber":51,"Velocity":77,"Duration":99711,"SoundDuration":99711,"Delta":192900183},{"NoteNumber":54,"Velocity":62,"Duration":99711,"SoundDuration":99711,"Delta":192999894},{"NoteNumber":57,"Velocity":67,"Duration":99711,"SoundDuration":99711,"Delta":193099606},{"NoteNumber":54,"Velocity":63,"Duration":98454,"SoundDuration":98454,"Delta":193199318},{"NoteNumber":51,"Velocity":63,"Duration":97826,"SoundDuration":97826,"Delta":193297773},{"NoteNumber":72,"Velocity":89,"Duration":417827,"SoundDuration":417827,"Delta":193395599},{"NoteNumber":48,"Velocity":70,"Duration":100278,"SoundDuration":100278,"Delta":193395599},{"NoteNumber":51,"Velocity":59,"Duration":100278,"SoundDuration":100278,"Delta":193495878},{"NoteNumber":54,"Velocity":62,"Duration":100278,"SoundDuration":100278,"Delta":193596156},{"NoteNumber":51,"Velocity":60,"Duration":100278,"SoundDuration":100278,"Delta":193696435},{"NoteNumber":48,"Velocity":60,"Duration":108456,"SoundDuration":108456,"Delta":193796713},{"NoteNumber":75,"Velocity":85,"Duration":91743,"SoundDuration":91743,"Delta":193813427},{"NoteNumber":78,"Velocity":92,"Duration":489427,"SoundDuration":489427,"Delta":193905170},{"NoteNumber":45,"Velocity":70,"Duration":97522,"SoundDuration":97522,"Delta":193905170},{"NoteNumber":48,"Velocity":59,"Duration":97799,"SoundDuration":97799,"Delta":194002692},{"NoteNumber":51,"Velocity":62,"Duration":97616,"SoundDuration":97616,"Delta":194100491},{"NoteNumber":48,"Velocity":60,"Duration":98099,"SoundDuration":98099,"Delta":194198108},{"NoteNumber":45,"Velocity":60,"Duration":98390,"SoundDuration":98390,"Delta":194296207},{"NoteNumber":84,"Velocity":95,"Duration":428079,"SoundDuration":428079,"Delta":194394597},{"NoteNumber":42,"Velocity":70,"Duration":101827,"SoundDuration":101827,"Delta":194394597},{"NoteNumber":45,"Velocity":59,"Duration":102479,"SoundDuration":102479,"Delta":194496424},{"NoteNumber":48,"Velocity":62,"Duration":103282,"SoundDuration":103282,"Delta":194598904},{"NoteNumber":45,"Velocity":60,"Duration":103206,"SoundDuration":103206,"Delta":194702186},{"NoteNumber":42,"Velocity":60,"Duration":116951,"SoundDuration":116951,"Delta":194805393},{"NoteNumber":87,"Velocity":84,"Duration":99667,"SoundDuration":99667,"Delta":194822677},{"NoteNumber":90,"Velocity":96,"Duration":527233,"SoundDuration":527233,"Delta":194922344},{"NoteNumber":39,"Velocity":70,"Duration":86251,"SoundDuration":86251,"Delta":194922344},{"NoteNumber":42,"Velocity":59,"Duration":86251,"SoundDuration":86251,"Delta":195008596},{"NoteNumber":45,"Velocity":60,"Duration":86251,"SoundDuration":86251,"Delta":195094847},{"NoteNumber":42,"Velocity":66,"Duration":86251,"SoundDuration":86251,"Delta":195181099},{"NoteNumber":39,"Velocity":59,"Duration":91113,"SoundDuration":91113,"Delta":195267350},{"NoteNumber":36,"Velocity":60,"Duration":91113,"SoundDuration":91113,"Delta":195358464},{"NoteNumber":90,"Velocity":93,"Duration":517508,"SoundDuration":517508,"Delta":195449577},{"NoteNumber":33,"Velocity":70,"Duration":86251,"SoundDuration":86251,"Delta":195449577},{"NoteNumber":36,"Velocity":60,"Duration":86251,"SoundDuration":86251,"Delta":195535829},{"NoteNumber":39,"Velocity":60,"Duration":86251,"SoundDuration":86251,"Delta":195622080},{"NoteNumber":42,"Velocity":66,"Duration":86251,"SoundDuration":86251,"Delta":195708332},{"NoteNumber":39,"Velocity":66,"Duration":86251,"SoundDuration":86251,"Delta":195794583},{"NoteNumber":36,"Velocity":60,"Duration":86251,"SoundDuration":86251,"Delta":195880835},{"NoteNumber":90,"Velocity":105,"Duration":670391,"SoundDuration":670391,"Delta":195967086},{"NoteNumber":32,"Velocity":70,"Duration":83798,"SoundDuration":83798,"Delta":195967086},{"NoteNumber":36,"Velocity":60,"Duration":83798,"SoundDuration":83798,"Delta":196050885},{"NoteNumber":39,"Velocity":60,"Duration":83798,"SoundDuration":83798,"Delta":196134684},{"NoteNumber":42,"Velocity":66,"Duration":83798,"SoundDuration":83798,"Delta":196218483},{"NoteNumber":39,"Velocity":66,"Duration":83798,"SoundDuration":83798,"Delta":196302282},{"NoteNumber":36,"Velocity":60,"Duration":83798,"SoundDuration":83798,"Delta":196386081},{"NoteNumber":33,"Velocity":70,"Duration":83798,"SoundDuration":83798,"Delta":196469880},{"NoteNumber":36,"Velocity":60,"Duration":83798,"SoundDuration":83798,"Delta":196553679},{"NoteNumber":90,"Velocity":77,"Duration":86207,"SoundDuration":86207,"Delta":196637478},{"NoteNumber":39,"Velocity":60,"Duration":86207,"SoundDuration":86207,"Delta":196637478},{"NoteNumber":87,"Velocity":76,"Duration":86207,"SoundDuration":86207,"Delta":196723685},{"NoteNumber":42,"Velocity":66,"Duration":86207,"SoundDuration":86207,"Delta":196723685},{"NoteNumber":84,"Velocity":75,"Duration":86207,"SoundDuration":86207,"Delta":196809892},{"NoteNumber":39,"Velocity":66,"Duration":86207,"SoundDuration":86207,"Delta":196809892},{"NoteNumber":78,"Velocity":75,"Duration":86207,"SoundDuration":86207,"Delta":196896099},{"NoteNumber":36,"Velocity":60,"Duration":86207,"SoundDuration":86207,"Delta":196896099},{"NoteNumber":90,"Velocity":103,"Duration":668523,"SoundDuration":668523,"Delta":196982306},{"NoteNumber":32,"Velocity":70,"Duration":83565,"SoundDuration":83565,"Delta":196982306},{"NoteNumber":36,"Velocity":60,"Duration":83565,"SoundDuration":83565,"Delta":197065872},{"NoteNumber":39,"Velocity":60,"Duration":83565,"SoundDuration":83565,"Delta":197149437},{"NoteNumber":42,"Velocity":66,"Duration":83565,"SoundDuration":83565,"Delta":197233003},{"NoteNumber":39,"Velocity":66,"Duration":83565,"SoundDuration":83565,"Delta":197316568},{"NoteNumber":36,"Velocity":60,"Duration":83565,"SoundDuration":83565,"Delta":197400134},{"NoteNumber":33,"Velocity":70,"Duration":83565,"SoundDuration":83565,"Delta":197483699},{"NoteNumber":36,"Velocity":60,"Duration":83565,"SoundDuration":83565,"Delta":197567265},{"NoteNumber":78,"Velocity":77,"Duration":85469,"SoundDuration":85469,"Delta":197650830},{"NoteNumber":39,"Velocity":60,"Duration":85469,"SoundDuration":85469,"Delta":197650830},{"NoteNumber":75,"Velocity":76,"Duration":85470,"SoundDuration":85470,"Delta":197736300},{"NoteNumber":42,"Velocity":66,"Duration":85470,"SoundDuration":85470,"Delta":197736300},{"NoteNumber":72,"Velocity":75,"Duration":85469,"SoundDuration":85469,"Delta":197821770},{"NoteNumber":39,"Velocity":66,"Duration":85469,"SoundDuration":85469,"Delta":197821770},{"NoteNumber":66,"Velocity":75,"Duration":85470,"SoundDuration":85470,"Delta":197907240},{"NoteNumber":36,"Velocity":60,"Duration":85470,"SoundDuration":85470,"Delta":197907240},{"NoteNumber":78,"Velocity":94,"Duration":670391,"SoundDuration":670391,"Delta":197992710},{"NoteNumber":32,"Velocity":70,"Duration":83798,"SoundDuration":83798,"Delta":197992710},{"NoteNumber":36,"Velocity":60,"Duration":83798,"SoundDuration":83798,"Delta":198076509},{"NoteNumber":39,"Velocity":60,"Duration":83798,"SoundDuration":83798,"Delta":198160308},{"NoteNumber":42,"Velocity":60,"Duration":83798,"SoundDuration":83798,"Delta":198244107},{"NoteNumber":39,"Velocity":66,"Duration":83798,"SoundDuration":83798,"Delta":198327906},{"NoteNumber":36,"Velocity":60,"Duration":83798,"SoundDuration":83798,"Delta":198411705},{"NoteNumber":33,"Velocity":70,"Duration":83798,"SoundDuration":83798,"Delta":198495504},{"NoteNumber":36,"Velocity":60,"Duration":83798,"SoundDuration":83798,"Delta":198579303},{"NoteNumber":66,"Velocity":72,"Duration":86207,"SoundDuration":86207,"Delta":198663102},{"NoteNumber":39,"Velocity":60,"Duration":86207,"SoundDuration":86207,"Delta":198663102},{"NoteNumber":63,"Velocity":71,"Duration":86207,"SoundDuration":86207,"Delta":198749309},{"NoteNumber":42,"Velocity":61,"Duration":86207,"SoundDuration":86207,"Delta":198749309},{"NoteNumber":60,"Velocity":69,"Duration":86207,"SoundDuration":86207,"Delta":198835516},{"NoteNumber":39,"Velocity":66,"Duration":86207,"SoundDuration":86207,"Delta":198835516},{"NoteNumber":54,"Velocity":69,"Duration":86207,"SoundDuration":86207,"Delta":198921723},{"NoteNumber":36,"Velocity":60,"Duration":86207,"SoundDuration":86207,"Delta":198921723},{"NoteNumber":66,"Velocity":91,"Duration":167131,"SoundDuration":167131,"Delta":199007930},{"NoteNumber":32,"Velocity":70,"Duration":83565,"SoundDuration":83565,"Delta":199007930},{"NoteNumber":36,"Velocity":60,"Duration":83565,"SoundDuration":83565,"Delta":199091496},{"NoteNumber":66,"Velocity":74,"Duration":86207,"SoundDuration":86207,"Delta":199175061},{"NoteNumber":39,"Velocity":60,"Duration":86207,"SoundDuration":86207,"Delta":199175061},{"NoteNumber":63,"Velocity":70,"Duration":86207,"SoundDuration":86207,"Delta":199261268},{"NoteNumber":42,"Velocity":61,"Duration":86207,"SoundDuration":86207,"Delta":199261268},{"NoteNumber":60,"Velocity":70,"Duration":86207,"SoundDuration":86207,"Delta":199347475},{"NoteNumber":39,"Velocity":66,"Duration":86207,"SoundDuration":86207,"Delta":199347475},{"NoteNumber":54,"Velocity":69,"Duration":86207,"SoundDuration":86207,"Delta":199433682},{"NoteNumber":36,"Velocity":60,"Duration":86207,"SoundDuration":86207,"Delta":199433682},{"NoteNumber":66,"Velocity":89,"Duration":168067,"SoundDuration":168067,"Delta":199519889},{"NoteNumber":33,"Velocity":70,"Duration":84033,"SoundDuration":84033,"Delta":199519889},{"NoteNumber":36,"Velocity":60,"Duration":84033,"SoundDuration":84033,"Delta":199603923},{"NoteNumber":66,"Velocity":74,"Duration":86455,"SoundDuration":86455,"Delta":199687956},{"NoteNumber":39,"Velocity":60,"Duration":86455,"SoundDuration":86455,"Delta":199687956},{"NoteNumber":63,"Velocity":72,"Duration":86455,"SoundDuration":86455,"Delta":199774412},{"NoteNumber":42,"Velocity":60,"Duration":86455,"SoundDuration":86455,"Delta":199774412},{"NoteNumber":60,"Velocity":72,"Duration":86455,"SoundDuration":86455,"Delta":199860867},{"NoteNumber":39,"Velocity":66,"Duration":86455,"SoundDuration":86455,"Delta":199860867},{"NoteNumber":54,"Velocity":71,"Duration":86455,"SoundDuration":86455,"Delta":199947322},{"NoteNumber":36,"Velocity":60,"Duration":86455,"SoundDuration":86455,"Delta":199947322},{"NoteNumber":66,"Velocity":84,"Duration":493742,"SoundDuration":493742,"Delta":200033777},{"NoteNumber":32,"Velocity":60,"Duration":168539,"SoundDuration":168539,"Delta":200033777},{"NoteNumber":44,"Velocity":60,"Duration":168539,"SoundDuration":168539,"Delta":200033777},{"NoteNumber":56,"Velocity":36,"Duration":149051,"SoundDuration":149051,"Delta":200202317},{"NoteNumber":56,"Velocity":36,"Duration":149051,"SoundDuration":149051,"Delta":200364918},{"NoteNumber":56,"Velocity":39,"Duration":150273,"SoundDuration":150273,"Delta":200527520},{"NoteNumber":56,"Velocity":37,"Duration":150273,"SoundDuration":150273,"Delta":200691454},{"NoteNumber":56,"Velocity":36,"Duration":150273,"SoundDuration":150273,"Delta":200855389},{"NoteNumber":56,"Velocity":39,"Duration":150273,"SoundDuration":150273,"Delta":201019323},{"NoteNumber":56,"Velocity":35,"Duration":149051,"SoundDuration":149051,"Delta":201183258},{"NoteNumber":56,"Velocity":35,"Duration":149051,"SoundDuration":149051,"Delta":201345859},{"NoteNumber":56,"Velocity":39,"Duration":150273,"SoundDuration":150273,"Delta":201508461},{"NoteNumber":56,"Velocity":36,"Duration":150273,"SoundDuration":150273,"Delta":201672395},{"NoteNumber":56,"Velocity":36,"Duration":150273,"SoundDuration":150273,"Delta":201836330},{"NoteNumber":63,"Velocity":58,"Duration":493742,"SoundDuration":493742,"Delta":202000264},{"NoteNumber":60,"Velocity":58,"Duration":493742,"SoundDuration":493742,"Delta":202000264},{"NoteNumber":56,"Velocity":36,"Duration":149051,"SoundDuration":149051,"Delta":202168804},{"NoteNumber":56,"Velocity":36,"Duration":149051,"SoundDuration":149051,"Delta":202331405},{"NoteNumber":56,"Velocity":39,"Duration":150273,"SoundDuration":150273,"Delta":202494007},{"NoteNumber":56,"Velocity":37,"Duration":150273,"SoundDuration":150273,"Delta":202657941},{"NoteNumber":56,"Velocity":36,"Duration":150273,"SoundDuration":150273,"Delta":202821876},{"NoteNumber":72,"Velocity":59,"Duration":489137,"SoundDuration":489137,"Delta":202985810},{"NoteNumber":75,"Velocity":59,"Duration":489137,"SoundDuration":489137,"Delta":202985810},{"NoteNumber":54,"Velocity":39,"Duration":163934,"SoundDuration":163934,"Delta":202985810},{"NoteNumber":56,"Velocity":35,"Duration":149051,"SoundDuration":149051,"Delta":203149745},{"NoteNumber":56,"Velocity":35,"Duration":149051,"SoundDuration":149051,"Delta":203312346},{"NoteNumber":56,"Velocity":39,"Duration":150273,"SoundDuration":150273,"Delta":203474948},{"NoteNumber":56,"Velocity":36,"Duration":150273,"SoundDuration":150273,"Delta":203638882},{"NoteNumber":56,"Velocity":36,"Duration":150273,"SoundDuration":150273,"Delta":203802817},{"NoteNumber":65,"Velocity":55,"Duration":493742,"SoundDuration":493742,"Delta":203966751},{"NoteNumber":61,"Velocity":55,"Duration":493742,"SoundDuration":493742,"Delta":203966751},{"NoteNumber":56,"Velocity":36,"Duration":149051,"SoundDuration":149051,"Delta":204135291},{"NoteNumber":56,"Velocity":36,"Duration":149051,"SoundDuration":149051,"Delta":204297892},{"NoteNumber":56,"Velocity":39,"Duration":150273,"SoundDuration":150273,"Delta":204460494},{"NoteNumber":56,"Velocity":37,"Duration":150273,"SoundDuration":150273,"Delta":204624428},{"NoteNumber":56,"Velocity":36,"Duration":150273,"SoundDuration":150273,"Delta":204788363},{"NoteNumber":73,"Velocity":58,"Duration":489137,"SoundDuration":489137,"Delta":204952297},{"NoteNumber":77,"Velocity":58,"Duration":489137,"SoundDuration":489137,"Delta":204952297},{"NoteNumber":53,"Velocity":39,"Duration":163934,"SoundDuration":163934,"Delta":204952297},{"NoteNumber":56,"Velocity":35,"Duration":149051,"SoundDuration":149051,"Delta":205116232},{"NoteNumber":56,"Velocity":35,"Duration":149051,"SoundDuration":149051,"Delta":205278833},{"NoteNumber":56,"Velocity":39,"Duration":150273,"SoundDuration":150273,"Delta":205441435},{"NoteNumber":56,"Velocity":36,"Duration":150273,"SoundDuration":150273,"Delta":205605369},{"NoteNumber":56,"Velocity":36,"Duration":150273,"SoundDuration":150273,"Delta":205769304},{"NoteNumber":61,"Velocity":61,"Duration":1960549,"SoundDuration":1960549,"Delta":205933238},{"NoteNumber":70,"Velocity":61,"Duration":1960549,"SoundDuration":1960549,"Delta":205933238},{"NoteNumber":65,"Velocity":61,"Duration":1960549,"SoundDuration":1960549,"Delta":205933238},{"NoteNumber":56,"Velocity":38,"Duration":149051,"SoundDuration":149051,"Delta":206097173},{"NoteNumber":56,"Velocity":38,"Duration":149051,"SoundDuration":149051,"Delta":206259774},{"NoteNumber":53,"Velocity":40,"Duration":162601,"SoundDuration":162601,"Delta":206422376},{"NoteNumber":49,"Velocity":40,"Duration":162601,"SoundDuration":162601,"Delta":206422376},{"NoteNumber":56,"Velocity":37,"Duration":149051,"SoundDuration":149051,"Delta":206584977},{"NoteNumber":56,"Velocity":37,"Duration":149051,"SoundDuration":149051,"Delta":206747579},{"NoteNumber":49,"Velocity":37,"Duration":163934,"SoundDuration":163934,"Delta":206910180},{"NoteNumber":53,"Velocity":37,"Duration":163934,"SoundDuration":163934,"Delta":206910180},{"NoteNumber":56,"Velocity":37,"Duration":150273,"SoundDuration":150273,"Delta":207074115},{"NoteNumber":56,"Velocity":37,"Duration":150273,"SoundDuration":150273,"Delta":207238049},{"NoteNumber":49,"Velocity":37,"Duration":163934,"SoundDuration":163934,"Delta":207401984},{"NoteNumber":53,"Velocity":37,"Duration":163934,"SoundDuration":163934,"Delta":207401984},{"NoteNumber":56,"Velocity":37,"Duration":150273,"SoundDuration":150273,"Delta":207565918},{"NoteNumber":56,"Velocity":37,"Duration":150273,"SoundDuration":150273,"Delta":207729853},{"NoteNumber":60,"Velocity":52,"Duration":326977,"SoundDuration":326977,"Delta":207893787},{"NoteNumber":63,"Velocity":52,"Duration":326977,"SoundDuration":326977,"Delta":207893787},{"NoteNumber":68,"Velocity":52,"Duration":326977,"SoundDuration":326977,"Delta":207893787},{"NoteNumber":48,"Velocity":39,"Duration":163934,"SoundDuration":163934,"Delta":207893787},{"NoteNumber":51,"Velocity":39,"Duration":163934,"SoundDuration":163934,"Delta":207893787},{"NoteNumber":56,"Velocity":37,"Duration":149456,"SoundDuration":149456,"Delta":208057722},{"NoteNumber":56,"Velocity":37,"Duration":149456,"SoundDuration":149456,"Delta":208220765},{"NoteNumber":56,"Velocity":38,"Duration":150273,"SoundDuration":150273,"Delta":208383809},{"NoteNumber":56,"Velocity":37,"Duration":150273,"SoundDuration":150273,"Delta":208547743},{"NoteNumber":56,"Velocity":37,"Duration":150273,"SoundDuration":150273,"Delta":208711678},{"NoteNumber":56,"Velocity":37,"Duration":150273,"SoundDuration":150273,"Delta":208875612},{"NoteNumber":56,"Velocity":37,"Duration":149051,"SoundDuration":149051,"Delta":209039547},{"NoteNumber":56,"Velocity":37,"Duration":149051,"SoundDuration":149051,"Delta":209202148},{"NoteNumber":60,"Velocity":55,"Duration":403296,"SoundDuration":403296,"Delta":209364750},{"NoteNumber":63,"Velocity":55,"Duration":403296,"SoundDuration":403296,"Delta":209364750},{"NoteNumber":56,"Velocity":38,"Duration":150273,"SoundDuration":150273,"Delta":209364750},{"NoteNumber":56,"Velocity":37,"Duration":146276,"SoundDuration":146276,"Delta":209528684},{"NoteNumber":56,"Velocity":37,"Duration":162295,"SoundDuration":162295,"Delta":209688259},{"NoteNumber":60,"Velocity":50,"Duration":99009,"SoundDuration":99009,"Delta":209768046},{"NoteNumber":63,"Velocity":50,"Duration":99009,"SoundDuration":99009,"Delta":209768046},{"NoteNumber":61,"Velocity":55,"Duration":327868,"SoundDuration":327868,"Delta":209867056},{"NoteNumber":65,"Velocity":55,"Duration":327868,"SoundDuration":327868,"Delta":209867056},{"NoteNumber":56,"Velocity":39,"Duration":150273,"SoundDuration":150273,"Delta":209867056},{"NoteNumber":56,"Velocity":37,"Duration":150273,"SoundDuration":150273,"Delta":210030991},{"NoteNumber":60,"Velocity":50,"Duration":160857,"SoundDuration":160857,"Delta":210194925},{"NoteNumber":63,"Velocity":50,"Duration":160857,"SoundDuration":160857,"Delta":210194925},{"NoteNumber":56,"Velocity":37,"Duration":147453,"SoundDuration":147453,"Delta":210194925},{"NoteNumber":56,"Velocity":38,"Duration":147453,"SoundDuration":147453,"Delta":210355783},{"NoteNumber":56,"Velocity":37,"Duration":147453,"SoundDuration":147453,"Delta":210516641},{"NoteNumber":72,"Velocity":58,"Duration":163934,"SoundDuration":163934,"Delta":210677499},{"NoteNumber":75,"Velocity":58,"Duration":163934,"SoundDuration":163934,"Delta":210677499},{"NoteNumber":56,"Velocity":37,"Duration":150273,"SoundDuration":150273,"Delta":210677499},{"NoteNumber":56,"Velocity":38,"Duration":149051,"SoundDuration":149051,"Delta":210841434},{"NoteNumber":56,"Velocity":39,"Duration":149051,"SoundDuration":149051,"Delta":211004035},{"NoteNumber":87,"Velocity":56,"Duration":162601,"SoundDuration":162601,"Delta":211166637},{"NoteNumber":84,"Velocity":56,"Duration":162601,"SoundDuration":162601,"Delta":211166637},{"NoteNumber":54,"Velocity":44,"Duration":162601,"SoundDuration":162601,"Delta":211329238},{"NoteNumber":51,"Velocity":44,"Duration":162601,"SoundDuration":162601,"Delta":211329238},{"NoteNumber":56,"Velocity":37,"Duration":150684,"SoundDuration":150684,"Delta":211491840},{"NoteNumber":56,"Velocity":37,"Duration":155971,"SoundDuration":155971,"Delta":211656223},{"NoteNumber":60,"Velocity":53,"Duration":92097,"SoundDuration":92097,"Delta":211736437},{"NoteNumber":63,"Velocity":53,"Duration":92097,"SoundDuration":92097,"Delta":211736437},{"NoteNumber":63,"Velocity":57,"Duration":327868,"SoundDuration":327868,"Delta":211828535},{"NoteNumber":66,"Velocity":57,"Duration":327868,"SoundDuration":327868,"Delta":211828535},{"NoteNumber":56,"Velocity":39,"Duration":150273,"SoundDuration":150273,"Delta":211828535},{"NoteNumber":56,"Velocity":37,"Duration":150273,"SoundDuration":150273,"Delta":211992469},{"NoteNumber":65,"Velocity":52,"Duration":161290,"SoundDuration":161290,"Delta":212156404},{"NoteNumber":61,"Velocity":52,"Duration":161290,"SoundDuration":161290,"Delta":212156404},{"NoteNumber":56,"Velocity":37,"Duration":147849,"SoundDuration":147849,"Delta":212156404},{"NoteNumber":56,"Velocity":37,"Duration":147849,"SoundDuration":147849,"Delta":212317694},{"NoteNumber":56,"Velocity":37,"Duration":147849,"SoundDuration":147849,"Delta":212478985},{"NoteNumber":73,"Velocity":60,"Duration":163934,"SoundDuration":163934,"Delta":212640275},{"NoteNumber":77,"Velocity":60,"Duration":163934,"SoundDuration":163934,"Delta":212640275},{"NoteNumber":56,"Velocity":37,"Duration":150273,"SoundDuration":150273,"Delta":212640275},{"NoteNumber":56,"Velocity":38,"Duration":150273,"SoundDuration":150273,"Delta":212804210},{"NoteNumber":56,"Velocity":37,"Duration":148648,"SoundDuration":148648,"Delta":212968144},{"NoteNumber":89,"Velocity":56,"Duration":158783,"SoundDuration":158783,"Delta":213130306},{"NoteNumber":85,"Velocity":56,"Duration":158783,"SoundDuration":158783,"Delta":213130306},{"NoteNumber":56,"Velocity":37,"Duration":148648,"SoundDuration":148648,"Delta":213130306},{"NoteNumber":49,"Velocity":44,"Duration":162162,"SoundDuration":162162,"Delta":213292468},{"NoteNumber":53,"Velocity":48,"Duration":162162,"SoundDuration":162162,"Delta":213292468},{"NoteNumber":56,"Velocity":37,"Duration":150684,"SoundDuration":150684,"Delta":213454630},{"NoteNumber":56,"Velocity":37,"Duration":166937,"SoundDuration":166937,"Delta":213619014},{"NoteNumber":65,"Velocity":52,"Duration":101695,"SoundDuration":101695,"Delta":213701205},{"NoteNumber":61,"Velocity":52,"Duration":101695,"SoundDuration":101695,"Delta":213701205},{"NoteNumber":61,"Velocity":61,"Duration":1964548,"SoundDuration":1964548,"Delta":213802900},{"NoteNumber":65,"Velocity":61,"Duration":1964548,"SoundDuration":1964548,"Delta":213802900},{"NoteNumber":70,"Velocity":61,"Duration":1964548,"SoundDuration":1964548,"Delta":213802900},{"NoteNumber":56,"Velocity":38,"Duration":149051,"SoundDuration":149051,"Delta":213966835},{"NoteNumber":56,"Velocity":38,"Duration":149051,"SoundDuration":149051,"Delta":214129436},{"NoteNumber":53,"Velocity":40,"Duration":163934,"SoundDuration":163934,"Delta":214292038},{"NoteNumber":49,"Velocity":40,"Duration":163934,"SoundDuration":163934,"Delta":214292038},{"NoteNumber":56,"Velocity":37,"Duration":150273,"SoundDuration":150273,"Delta":214455972},{"NoteNumber":56,"Velocity":37,"Duration":150273,"SoundDuration":150273,"Delta":214619907},{"NoteNumber":49,"Velocity":37,"Duration":163934,"SoundDuration":163934,"Delta":214783841},{"NoteNumber":53,"Velocity":37,"Duration":163934,"SoundDuration":163934,"Delta":214783841},{"NoteNumber":56,"Velocity":37,"Duration":150273,"SoundDuration":150273,"Delta":214947776},{"NoteNumber":56,"Velocity":37,"Duration":150273,"SoundDuration":150273,"Delta":215111710},{"NoteNumber":49,"Velocity":36,"Duration":163934,"SoundDuration":163934,"Delta":215275645},{"NoteNumber":53,"Velocity":36,"Duration":163934,"SoundDuration":163934,"Delta":215275645},{"NoteNumber":56,"Velocity":37,"Duration":150273,"SoundDuration":150273,"Delta":215439579},{"NoteNumber":56,"Velocity":37,"Duration":150273,"SoundDuration":150273,"Delta":215603514},{"NoteNumber":60,"Velocity":56,"Duration":326536,"SoundDuration":326536,"Delta":215767448},{"NoteNumber":63,"Velocity":56,"Duration":326536,"SoundDuration":326536,"Delta":215767448},{"NoteNumber":68,"Velocity":56,"Duration":326536,"SoundDuration":326536,"Delta":215767448},{"NoteNumber":56,"Velocity":38,"Duration":149051,"SoundDuration":149051,"Delta":215931383},{"NoteNumber":56,"Velocity":38,"Duration":149051,"SoundDuration":149051,"Delta":216093984},{"NoteNumber":51,"Velocity":40,"Duration":163934,"SoundDuration":163934,"Delta":216256586},{"NoteNumber":48,"Velocity":40,"Duration":163934,"SoundDuration":163934,"Delta":216256586},{"NoteNumber":56,"Velocity":37,"Duration":150273,"SoundDuration":150273,"Delta":216420520},{"NoteNumber":56,"Velocity":37,"Duration":150273,"SoundDuration":150273,"Delta":216584455},{"NoteNumber":61,"Velocity":52,"Duration":980941,"SoundDuration":980941,"Delta":216748389},{"NoteNumber":64,"Velocity":52,"Duration":980941,"SoundDuration":980941,"Delta":216748389},{"NoteNumber":69,"Velocity":52,"Duration":980941,"SoundDuration":980941,"Delta":216748389},{"NoteNumber":56,"Velocity":37,"Duration":149051,"SoundDuration":149051,"Delta":216912324},{"NoteNumber":56,"Velocity":37,"Duration":149051,"SoundDuration":149051,"Delta":217074925},{"NoteNumber":49,"Velocity":36,"Duration":163934,"SoundDuration":163934,"Delta":217237527},{"NoteNumber":52,"Velocity":36,"Duration":163934,"SoundDuration":163934,"Delta":217237527},{"NoteNumber":56,"Velocity":37,"Duration":150273,"SoundDuration":150273,"Delta":217401461},{"NoteNumber":56,"Velocity":37,"Duration":150273,"SoundDuration":150273,"Delta":217565396},{"NoteNumber":60,"Velocity":57,"Duration":326536,"SoundDuration":326536,"Delta":217729330},{"NoteNumber":68,"Velocity":57,"Duration":326536,"SoundDuration":326536,"Delta":217729330},{"NoteNumber":63,"Velocity":57,"Duration":326536,"SoundDuration":326536,"Delta":217729330},{"NoteNumber":56,"Velocity":38,"Duration":149051,"SoundDuration":149051,"Delta":217893265},{"NoteNumber":56,"Velocity":38,"Duration":149051,"SoundDuration":149051,"Delta":218055866},{"NoteNumber":51,"Velocity":40,"Duration":163934,"SoundDuration":163934,"Delta":218218468},{"NoteNumber":48,"Velocity":40,"Duration":163934,"SoundDuration":163934,"Delta":218218468},{"NoteNumber":56,"Velocity":37,"Duration":150273,"SoundDuration":150273,"Delta":218382402},{"NoteNumber":56,"Velocity":37,"Duration":150273,"SoundDuration":150273,"Delta":218546337},{"NoteNumber":73,"Velocity":58,"Duration":980941,"SoundDuration":980941,"Delta":218710271},{"NoteNumber":81,"Velocity":58,"Duration":980941,"SoundDuration":980941,"Delta":218710271},{"NoteNumber":76,"Velocity":58,"Duration":980941,"SoundDuration":980941,"Delta":218710271},{"NoteNumber":56,"Velocity":37,"Duration":149051,"SoundDuration":149051,"Delta":218874206},{"NoteNumber":56,"Velocity":37,"Duration":149051,"SoundDuration":149051,"Delta":219036807},{"NoteNumber":49,"Velocity":36,"Duration":163934,"SoundDuration":163934,"Delta":219199409},{"NoteNumber":52,"Velocity":36,"Duration":163934,"SoundDuration":163934,"Delta":219199409},{"NoteNumber":56,"Velocity":37,"Duration":150273,"SoundDuration":150273,"Delta":219363343},{"NoteNumber":56,"Velocity":37,"Duration":150273,"SoundDuration":150273,"Delta":219527278},{"NoteNumber":75,"Velocity":56,"Duration":328318,"SoundDuration":328318,"Delta":219691212},{"NoteNumber":80,"Velocity":56,"Duration":328318,"SoundDuration":328318,"Delta":219691212},{"NoteNumber":72,"Velocity":56,"Duration":328318,"SoundDuration":328318,"Delta":219691212},{"NoteNumber":56,"Velocity":37,"Duration":150684,"SoundDuration":150684,"Delta":219855147},{"NoteNumber":56,"Velocity":36,"Duration":150684,"SoundDuration":150684,"Delta":220019530},{"NoteNumber":51,"Velocity":38,"Duration":166666,"SoundDuration":166666,"Delta":220183914},{"NoteNumber":48,"Velocity":38,"Duration":166666,"SoundDuration":166666,"Delta":220183914},{"NoteNumber":56,"Velocity":34,"Duration":152777,"SoundDuration":152777,"Delta":220350580},{"NoteNumber":56,"Velocity":34,"Duration":152777,"SoundDuration":152777,"Delta":220517247},{"NoteNumber":62,"Velocity":46,"Duration":332433,"SoundDuration":332433,"Delta":220683913},{"NoteNumber":59,"Velocity":46,"Duration":332433,"SoundDuration":332433,"Delta":220683913},{"NoteNumber":68,"Velocity":46,"Duration":332433,"SoundDuration":332433,"Delta":220683913},{"NoteNumber":56,"Velocity":32,"Duration":151098,"SoundDuration":151098,"Delta":220851511},{"NoteNumber":56,"Velocity":32,"Duration":151098,"SoundDuration":151098,"Delta":221016346},{"NoteNumber":47,"Velocity":30,"Duration":164835,"SoundDuration":164835,"Delta":221181181},{"NoteNumber":50,"Velocity":30,"Duration":164835,"SoundDuration":164835,"Delta":221181181},{"NoteNumber":56,"Velocity":31,"Duration":151098,"SoundDuration":151098,"Delta":221346016},{"NoteNumber":56,"Velocity":30,"Duration":158501,"SoundDuration":158501,"Delta":221510851},{"NoteNumber":61,"Velocity":44,"Duration":332420,"SoundDuration":332420,"Delta":221683762},{"NoteNumber":58,"Velocity":44,"Duration":332420,"SoundDuration":332420,"Delta":221683762},{"NoteNumber":67,"Velocity":44,"Duration":332420,"SoundDuration":332420,"Delta":221683762},{"NoteNumber":56,"Velocity":31,"Duration":153203,"SoundDuration":153203,"Delta":221849051},{"NoteNumber":56,"Velocity":30,"Duration":153203,"SoundDuration":153203,"Delta":222016182},{"NoteNumber":49,"Velocity":32,"Duration":166666,"SoundDuration":166666,"Delta":222183313},{"NoteNumber":46,"Velocity":32,"Duration":166666,"SoundDuration":166666,"Delta":222183313},{"NoteNumber":56,"Velocity":28,"Duration":152777,"SoundDuration":152777,"Delta":222349980},{"NoteNumber":56,"Velocity":28,"Duration":157142,"SoundDuration":157142,"Delta":222516646},{"NoteNumber":57,"Velocity":39,"Duration":335913,"SoundDuration":335913,"Delta":222688075},{"NoteNumber":60,"Velocity":39,"Duration":335913,"SoundDuration":335913,"Delta":222688075},{"NoteNumber":66,"Velocity":39,"Duration":335913,"SoundDuration":335913,"Delta":222688075},{"NoteNumber":56,"Velocity":27,"Duration":152971,"SoundDuration":152971,"Delta":222857089},{"NoteNumber":56,"Velocity":27,"Duration":153514,"SoundDuration":153514,"Delta":223023988},{"NoteNumber":48,"Velocity":25,"Duration":168461,"SoundDuration":168461,"Delta":223191509},{"NoteNumber":45,"Velocity":25,"Duration":168461,"SoundDuration":168461,"Delta":223191509},{"NoteNumber":56,"Velocity":26,"Duration":155248,"SoundDuration":155248,"Delta":223359970},{"NoteNumber":56,"Velocity":25,"Duration":158501,"SoundDuration":158501,"Delta":223529382},{"NoteNumber":66,"Velocity":47,"Duration":346948,"SoundDuration":346948,"Delta":223702293},{"NoteNumber":60,"Velocity":47,"Duration":346948,"SoundDuration":346948,"Delta":223702293},{"NoteNumber":56,"Velocity":47,"Duration":346948,"SoundDuration":346948,"Delta":223702293},{"NoteNumber":44,"Velocity":44,"Duration":342857,"SoundDuration":342857,"Delta":223877731},{"NoteNumber":43,"Velocity":39,"Duration":171347,"SoundDuration":171347,"Delta":224049241},{"NoteNumber":44,"Velocity":44,"Duration":341556,"SoundDuration":341556,"Delta":224220589},{"NoteNumber":46,"Velocity":41,"Duration":170616,"SoundDuration":170616,"Delta":224391529},{"NoteNumber":44,"Velocity":45,"Duration":338913,"SoundDuration":338913,"Delta":224562145},{"NoteNumber":75,"Velocity":67,"Duration":168539,"SoundDuration":168539,"Delta":224732519},{"NoteNumber":42,"Velocity":41,"Duration":168539,"SoundDuration":168539,"Delta":224732519},{"NoteNumber":77,"Velocity":61,"Duration":165289,"SoundDuration":165289,"Delta":224901058},{"NoteNumber":44,"Velocity":41,"Duration":829697,"SoundDuration":829697,"Delta":224901058},{"NoteNumber":75,"Velocity":59,"Duration":165289,"SoundDuration":165289,"Delta":225066348},{"NoteNumber":42,"Velocity":48,"Duration":165289,"SoundDuration":165289,"Delta":225066348},{"NoteNumber":73,"Velocity":69,"Duration":168539,"SoundDuration":168539,"Delta":225231637},{"NoteNumber":41,"Velocity":42,"Duration":168539,"SoundDuration":168539,"Delta":225231637},{"NoteNumber":75,"Velocity":66,"Duration":165289,"SoundDuration":165289,"Delta":225400177},{"NoteNumber":42,"Velocity":42,"Duration":165289,"SoundDuration":165289,"Delta":225400177},{"NoteNumber":73,"Velocity":64,"Duration":165289,"SoundDuration":165289,"Delta":225565466},{"NoteNumber":41,"Velocity":47,"Duration":165289,"SoundDuration":165289,"Delta":225565466},{"NoteNumber":72,"Velocity":70,"Duration":174418,"SoundDuration":174418,"Delta":225730756},{"NoteNumber":39,"Velocity":55,"Duration":174418,"SoundDuration":174418,"Delta":225730756},{"NoteNumber":78,"Velocity":66,"Duration":169971,"SoundDuration":169971,"Delta":225905174},{"NoteNumber":44,"Velocity":48,"Duration":339943,"SoundDuration":339943,"Delta":225905174},{"NoteNumber":43,"Velocity":42,"Duration":169971,"SoundDuration":169971,"Delta":226075146},{"NoteNumber":44,"Velocity":48,"Duration":339943,"SoundDuration":339943,"Delta":226245117},{"NoteNumber":46,"Velocity":45,"Duration":169971,"SoundDuration":169971,"Delta":226415089},{"NoteNumber":44,"Velocity":49,"Duration":1163573,"SoundDuration":1163573,"Delta":226585060},{"NoteNumber":78,"Velocity":73,"Duration":167131,"SoundDuration":167131,"Delta":226755032},{"NoteNumber":39,"Velocity":46,"Duration":167131,"SoundDuration":167131,"Delta":226755032},{"NoteNumber":80,"Velocity":70,"Duration":164835,"SoundDuration":164835,"Delta":226922163},{"NoteNumber":41,"Velocity":46,"Duration":164835,"SoundDuration":164835,"Delta":226922163},{"NoteNumber":78,"Velocity":70,"Duration":164834,"SoundDuration":164834,"Delta":227086998},{"NoteNumber":39,"Velocity":50,"Duration":164834,"SoundDuration":164834,"Delta":227086998},{"NoteNumber":77,"Velocity":74,"Duration":167131,"SoundDuration":167131,"Delta":227251833},{"NoteNumber":37,"Velocity":47,"Duration":167131,"SoundDuration":167131,"Delta":227251833},{"NoteNumber":78,"Velocity":71,"Duration":164835,"SoundDuration":164835,"Delta":227418964},{"NoteNumber":39,"Velocity":47,"Duration":164835,"SoundDuration":164835,"Delta":227418964},{"NoteNumber":77,"Velocity":68,"Duration":164834,"SoundDuration":164834,"Delta":227583799},{"NoteNumber":37,"Velocity":51,"Duration":164834,"SoundDuration":164834,"Delta":227583799},{"NoteNumber":75,"Velocity":81,"Duration":172414,"SoundDuration":172414,"Delta":227748634},{"NoteNumber":36,"Velocity":57,"Duration":172414,"SoundDuration":172414,"Delta":227748634},{"NoteNumber":87,"Velocity":72,"Duration":169014,"SoundDuration":169014,"Delta":227921048},{"NoteNumber":44,"Velocity":52,"Duration":338028,"SoundDuration":338028,"Delta":227921048},{"NoteNumber":43,"Velocity":47,"Duration":169014,"SoundDuration":169014,"Delta":228090062},{"NoteNumber":44,"Velocity":52,"Duration":338027,"SoundDuration":338027,"Delta":228259076},{"NoteNumber":46,"Velocity":49,"Duration":169013,"SoundDuration":169013,"Delta":228428090},{"NoteNumber":44,"Velocity":53,"Duration":1176097,"SoundDuration":1176097,"Delta":228597104},{"NoteNumber":87,"Velocity":83,"Duration":167131,"SoundDuration":167131,"Delta":228766118},{"NoteNumber":36,"Velocity":50,"Duration":167131,"SoundDuration":167131,"Delta":228766118},{"NoteNumber":89,"Velocity":77,"Duration":167130,"SoundDuration":167130,"Delta":228933249},{"NoteNumber":37,"Velocity":50,"Duration":167130,"SoundDuration":167130,"Delta":228933249},{"NoteNumber":87,"Velocity":73,"Duration":167131,"SoundDuration":167131,"Delta":229100380},{"NoteNumber":36,"Velocity":54,"Duration":167131,"SoundDuration":167131,"Delta":229100380},{"NoteNumber":85,"Velocity":77,"Duration":167130,"SoundDuration":167130,"Delta":229267511},{"NoteNumber":34,"Velocity":50,"Duration":167130,"SoundDuration":167130,"Delta":229267511},{"NoteNumber":87,"Velocity":75,"Duration":167131,"SoundDuration":167131,"Delta":229434642},{"NoteNumber":36,"Velocity":51,"Duration":167131,"SoundDuration":167131,"Delta":229434642},{"NoteNumber":85,"Velocity":73,"Duration":171428,"SoundDuration":171428,"Delta":229601773},{"NoteNumber":34,"Velocity":51,"Duration":171428,"SoundDuration":171428,"Delta":229601773},{"NoteNumber":84,"Velocity":76,"Duration":169971,"SoundDuration":169971,"Delta":229773201},{"NoteNumber":32,"Velocity":55,"Duration":169971,"SoundDuration":169971,"Delta":229773201},{"NoteNumber":85,"Velocity":75,"Duration":168067,"SoundDuration":168067,"Delta":229943173},{"NoteNumber":31,"Velocity":49,"Duration":168067,"SoundDuration":168067,"Delta":229943173},{"NoteNumber":84,"Velocity":72,"Duration":168066,"SoundDuration":168066,"Delta":230111240},{"NoteNumber":32,"Velocity":49,"Duration":168066,"SoundDuration":168066,"Delta":230111240},{"NoteNumber":82,"Velocity":76,"Duration":168067,"SoundDuration":168067,"Delta":230279307},{"NoteNumber":34,"Velocity":53,"Duration":168067,"SoundDuration":168067,"Delta":230279307},{"NoteNumber":84,"Velocity":73,"Duration":168067,"SoundDuration":168067,"Delta":230447374},{"NoteNumber":32,"Velocity":46,"Duration":168067,"SoundDuration":168067,"Delta":230447374},{"NoteNumber":82,"Velocity":69,"Duration":165752,"SoundDuration":165752,"Delta":230615441},{"NoteNumber":34,"Velocity":45,"Duration":165752,"SoundDuration":165752,"Delta":230615441},{"NoteNumber":80,"Velocity":74,"Duration":168461,"SoundDuration":168461,"Delta":230781193},{"NoteNumber":35,"Velocity":50,"Duration":168461,"SoundDuration":168461,"Delta":230781193},{"NoteNumber":82,"Velocity":70,"Duration":169412,"SoundDuration":169412,"Delta":230949654},{"NoteNumber":34,"Velocity":44,"Duration":169412,"SoundDuration":169412,"Delta":230949654},{"NoteNumber":80,"Velocity":67,"Duration":170374,"SoundDuration":170374,"Delta":231119067},{"NoteNumber":35,"Velocity":42,"Duration":170374,"SoundDuration":170374,"Delta":231119067},{"NoteNumber":78,"Velocity":72,"Duration":171347,"SoundDuration":171347,"Delta":231289441},{"NoteNumber":36,"Velocity":47,"Duration":171347,"SoundDuration":171347,"Delta":231289441},{"NoteNumber":80,"Velocity":66,"Duration":172332,"SoundDuration":172332,"Delta":231460789},{"NoteNumber":35,"Velocity":40,"Duration":172332,"SoundDuration":172332,"Delta":231460789},{"NoteNumber":78,"Velocity":63,"Duration":173411,"SoundDuration":173411,"Delta":231633121},{"NoteNumber":36,"Velocity":40,"Duration":173411,"SoundDuration":173411,"Delta":231633121},{"NoteNumber":77,"Velocity":73,"Duration":372545,"SoundDuration":372545,"Delta":231806532},{"NoteNumber":37,"Velocity":36,"Duration":190936,"SoundDuration":190936,"Delta":231806532},{"NoteNumber":49,"Velocity":32,"Duration":181609,"SoundDuration":181609,"Delta":231997469},{"NoteNumber":41,"Velocity":26,"Duration":181609,"SoundDuration":181609,"Delta":231997469},{"NoteNumber":44,"Velocity":26,"Duration":181609,"SoundDuration":181609,"Delta":231997469},{"NoteNumber":37,"Velocity":33,"Duration":181608,"SoundDuration":181608,"Delta":232179078},{"NoteNumber":49,"Velocity":36,"Duration":181609,"SoundDuration":181609,"Delta":232360687},{"NoteNumber":41,"Velocity":28,"Duration":181609,"SoundDuration":181609,"Delta":232360687},{"NoteNumber":44,"Velocity":28,"Duration":181609,"SoundDuration":181609,"Delta":232360687},{"NoteNumber":37,"Velocity":33,"Duration":181609,"SoundDuration":181609,"Delta":232542296},{"NoteNumber":49,"Velocity":33,"Duration":181608,"SoundDuration":181608,"Delta":232723905},{"NoteNumber":44,"Velocity":26,"Duration":181608,"SoundDuration":181608,"Delta":232723905},{"NoteNumber":41,"Velocity":26,"Duration":181608,"SoundDuration":181608,"Delta":232723905},{"NoteNumber":37,"Velocity":36,"Duration":181609,"SoundDuration":181609,"Delta":232905514},{"NoteNumber":49,"Velocity":33,"Duration":181609,"SoundDuration":181609,"Delta":233087123},{"NoteNumber":41,"Velocity":26,"Duration":181609,"SoundDuration":181609,"Delta":233087123},{"NoteNumber":44,"Velocity":26,"Duration":181609,"SoundDuration":181609,"Delta":233087123},{"NoteNumber":37,"Velocity":33,"Duration":181609,"SoundDuration":181609,"Delta":233268732},{"NoteNumber":65,"Velocity":55,"Duration":468014,"SoundDuration":468014,"Delta":233450341},{"NoteNumber":53,"Velocity":44,"Duration":468014,"SoundDuration":468014,"Delta":233450341},{"NoteNumber":44,"Velocity":28,"Duration":181608,"SoundDuration":181608,"Delta":233450341},{"NoteNumber":41,"Velocity":28,"Duration":181608,"SoundDuration":181608,"Delta":233450341},{"NoteNumber":49,"Velocity":36,"Duration":181608,"SoundDuration":181608,"Delta":233450341},{"NoteNumber":37,"Velocity":33,"Duration":190936,"SoundDuration":190936,"Delta":233631950},{"NoteNumber":49,"Velocity":35,"Duration":216543,"SoundDuration":216543,"Delta":233822887},{"NoteNumber":41,"Velocity":27,"Duration":216543,"SoundDuration":216543,"Delta":233822887},{"NoteNumber":44,"Velocity":27,"Duration":216543,"SoundDuration":216543,"Delta":233822887},{"NoteNumber":68,"Velocity":49,"Duration":121075,"SoundDuration":121075,"Delta":233918356},{"NoteNumber":56,"Velocity":39,"Duration":121075,"SoundDuration":121075,"Delta":233918356},{"NoteNumber":73,"Velocity":53,"Duration":514868,"SoundDuration":514868,"Delta":234039431},{"NoteNumber":61,"Velocity":49,"Duration":514868,"SoundDuration":514868,"Delta":234039431},{"NoteNumber":37,"Velocity":36,"Duration":171402,"SoundDuration":171402,"Delta":234039431},{"NoteNumber":49,"Velocity":32,"Duration":171732,"SoundDuration":171732,"Delta":234210833},{"NoteNumber":44,"Velocity":26,"Duration":171732,"SoundDuration":171732,"Delta":234210833},{"NoteNumber":41,"Velocity":26,"Duration":171732,"SoundDuration":171732,"Delta":234210833},{"NoteNumber":37,"Velocity":33,"Duration":171732,"SoundDuration":171732,"Delta":234382566},{"NoteNumber":77,"Velocity":57,"Duration":455633,"SoundDuration":455633,"Delta":234554299},{"NoteNumber":65,"Velocity":52,"Duration":455633,"SoundDuration":455633,"Delta":234554299},{"NoteNumber":49,"Velocity":36,"Duration":180050,"SoundDuration":180050,"Delta":234554299},{"NoteNumber":44,"Velocity":28,"Duration":180050,"SoundDuration":180050,"Delta":234554299},{"NoteNumber":41,"Velocity":28,"Duration":180050,"SoundDuration":180050,"Delta":234554299},{"NoteNumber":37,"Velocity":33,"Duration":183721,"SoundDuration":183721,"Delta":234734350},{"NoteNumber":41,"Velocity":26,"Duration":196844,"SoundDuration":196844,"Delta":234918072},{"NoteNumber":49,"Velocity":33,"Duration":196844,"SoundDuration":196844,"Delta":234918072},{"NoteNumber":44,"Velocity":26,"Duration":196844,"SoundDuration":196844,"Delta":234918072},{"NoteNumber":73,"Velocity":50,"Duration":104983,"SoundDuration":104983,"Delta":235009933},{"NoteNumber":61,"Velocity":46,"Duration":104983,"SoundDuration":104983,"Delta":235009933},{"NoteNumber":72,"Velocity":53,"Duration":530997,"SoundDuration":530997,"Delta":235114916},{"NoteNumber":60,"Velocity":49,"Duration":530997,"SoundDuration":530997,"Delta":235114916},{"NoteNumber":39,"Velocity":36,"Duration":180877,"SoundDuration":180877,"Delta":235114916},{"NoteNumber":51,"Velocity":33,"Duration":175060,"SoundDuration":175060,"Delta":235295794},{"NoteNumber":42,"Velocity":26,"Duration":175060,"SoundDuration":175060,"Delta":235295794},{"NoteNumber":44,"Velocity":26,"Duration":175060,"SoundDuration":175060,"Delta":235295794},{"NoteNumber":39,"Velocity":33,"Duration":175060,"SoundDuration":175060,"Delta":235470854},{"NoteNumber":63,"Velocity":52,"Duration":459866,"SoundDuration":459866,"Delta":235645914},{"NoteNumber":75,"Velocity":57,"Duration":459866,"SoundDuration":459866,"Delta":235645914},{"NoteNumber":44,"Velocity":28,"Duration":178528,"SoundDuration":178528,"Delta":235645914},{"NoteNumber":42,"Velocity":28,"Duration":178528,"SoundDuration":178528,"Delta":235645914},{"NoteNumber":51,"Velocity":36,"Duration":178528,"SoundDuration":178528,"Delta":235645914},{"NoteNumber":39,"Velocity":33,"Duration":187558,"SoundDuration":187558,"Delta":235824443},{"NoteNumber":42,"Velocity":27,"Duration":206637,"SoundDuration":206637,"Delta":236012001},{"NoteNumber":44,"Velocity":27,"Duration":206637,"SoundDuration":206637,"Delta":236012001},{"NoteNumber":51,"Velocity":35,"Duration":206637,"SoundDuration":206637,"Delta":236012001},{"NoteNumber":60,"Velocity":46,"Duration":112858,"SoundDuration":112858,"Delta":236105781},{"NoteNumber":72,"Velocity":50,"Duration":112858,"SoundDuration":112858,"Delta":236105781},{"NoteNumber":73,"Velocity":53,"Duration":515198,"SoundDuration":515198,"Delta":236218639},{"NoteNumber":61,"Velocity":49,"Duration":515198,"SoundDuration":515198,"Delta":236218639},{"NoteNumber":41,"Velocity":36,"Duration":171732,"SoundDuration":171732,"Delta":236218639},{"NoteNumber":44,"Velocity":26,"Duration":171733,"SoundDuration":171733,"Delta":236390372},{"NoteNumber":53,"Velocity":32,"Duration":171733,"SoundDuration":171733,"Delta":236390372},{"NoteNumber":49,"Velocity":26,"Duration":171733,"SoundDuration":171733,"Delta":236390372},{"NoteNumber":41,"Velocity":33,"Duration":171732,"SoundDuration":171732,"Delta":236562105},{"NoteNumber":56,"Velocity":52,"Duration":1059198,"SoundDuration":1059198,"Delta":236733838},{"NoteNumber":68,"Velocity":52,"Duration":1059198,"SoundDuration":1059198,"Delta":236733838},{"NoteNumber":53,"Velocity":36,"Duration":176533,"SoundDuration":176533,"Delta":236733838},{"NoteNumber":49,"Velocity":28,"Duration":176533,"SoundDuration":176533,"Delta":236733838},{"NoteNumber":44,"Velocity":28,"Duration":176533,"SoundDuration":176533,"Delta":236733838},{"NoteNumber":41,"Velocity":33,"Duration":176533,"SoundDuration":176533,"Delta":236910371},{"NoteNumber":44,"Velocity":26,"Duration":176532,"SoundDuration":176532,"Delta":237086904},{"NoteNumber":53,"Velocity":33,"Duration":176532,"SoundDuration":176532,"Delta":237086904},{"NoteNumber":49,"Velocity":26,"Duration":176532,"SoundDuration":176532,"Delta":237086904},{"NoteNumber":41,"Velocity":36,"Duration":176533,"SoundDuration":176533,"Delta":237263437},{"NoteNumber":53,"Velocity":33,"Duration":176533,"SoundDuration":176533,"Delta":237439970},{"NoteNumber":44,"Velocity":26,"Duration":176533,"SoundDuration":176533,"Delta":237439970},{"NoteNumber":49,"Velocity":26,"Duration":176533,"SoundDuration":176533,"Delta":237439970},{"NoteNumber":41,"Velocity":33,"Duration":176533,"SoundDuration":176533,"Delta":237616503},{"NoteNumber":58,"Velocity":52,"Duration":457870,"SoundDuration":457870,"Delta":237793036},{"NoteNumber":70,"Velocity":57,"Duration":457870,"SoundDuration":457870,"Delta":237793036},{"NoteNumber":49,"Velocity":28,"Duration":176532,"SoundDuration":176532,"Delta":237793036},{"NoteNumber":54,"Velocity":36,"Duration":176532,"SoundDuration":176532,"Delta":237793036},{"NoteNumber":51,"Velocity":28,"Duration":176532,"SoundDuration":176532,"Delta":237793036},{"NoteNumber":42,"Velocity":33,"Duration":187558,"SoundDuration":187558,"Delta":237969569},{"NoteNumber":49,"Velocity":27,"Duration":206231,"SoundDuration":206231,"Delta":238157127},{"NoteNumber":54,"Velocity":35,"Duration":206231,"SoundDuration":206231,"Delta":238157127},{"NoteNumber":51,"Velocity":27,"Duration":206231,"SoundDuration":206231,"Delta":238157127},{"NoteNumber":66,"Velocity":53,"Duration":112452,"SoundDuration":112452,"Delta":238250907},{"NoteNumber":65,"Velocity":59,"Duration":513815,"SoundDuration":513815,"Delta":238363359},{"NoteNumber":44,"Velocity":37,"Duration":171271,"SoundDuration":171271,"Delta":238363359},{"NoteNumber":49,"Velocity":27,"Duration":171272,"SoundDuration":171272,"Delta":238534631},{"NoteNumber":56,"Velocity":33,"Duration":171272,"SoundDuration":171272,"Delta":238534631},{"NoteNumber":53,"Velocity":27,"Duration":171272,"SoundDuration":171272,"Delta":238534631},{"NoteNumber":44,"Velocity":34,"Duration":171271,"SoundDuration":171271,"Delta":238705903},{"NoteNumber":68,"Velocity":61,"Duration":456949,"SoundDuration":456949,"Delta":238877175},{"NoteNumber":49,"Velocity":30,"Duration":180570,"SoundDuration":180570,"Delta":238877175},{"NoteNumber":56,"Velocity":38,"Duration":180570,"SoundDuration":180570,"Delta":238877175},{"NoteNumber":53,"Velocity":30,"Duration":180570,"SoundDuration":180570,"Delta":238877175},{"NoteNumber":44,"Velocity":34,"Duration":184252,"SoundDuration":184252,"Delta":239057745},{"NoteNumber":49,"Velocity":28,"Duration":197109,"SoundDuration":197109,"Delta":239241998},{"NoteNumber":56,"Velocity":35,"Duration":197109,"SoundDuration":197109,"Delta":239241998},{"NoteNumber":53,"Velocity":28,"Duration":197109,"SoundDuration":197109,"Delta":239241998},{"NoteNumber":65,"Velocity":55,"Duration":104983,"SoundDuration":104983,"Delta":239334124},{"NoteNumber":63,"Velocity":63,"Duration":530997,"SoundDuration":530997,"Delta":239439107},{"NoteNumber":44,"Velocity":40,"Duration":180877,"SoundDuration":180877,"Delta":239439107},{"NoteNumber":48,"Velocity":29,"Duration":175060,"SoundDuration":175060,"Delta":239619985},{"NoteNumber":56,"Velocity":36,"Duration":175060,"SoundDuration":175060,"Delta":239619985},{"NoteNumber":51,"Velocity":29,"Duration":175060,"SoundDuration":175060,"Delta":239619985},{"NoteNumber":44,"Velocity":36,"Duration":175060,"SoundDuration":175060,"Delta":239795045},{"NoteNumber":66,"Velocity":66,"Duration":466676,"SoundDuration":466676,"Delta":239970105},{"NoteNumber":48,"Velocity":32,"Duration":178528,"SoundDuration":178528,"Delta":239970105},{"NoteNumber":56,"Velocity":41,"Duration":178528,"SoundDuration":178528,"Delta":239970105},{"NoteNumber":51,"Velocity":32,"Duration":178528,"SoundDuration":178528,"Delta":239970105},{"NoteNumber":44,"Velocity":37,"Duration":192098,"SoundDuration":192098,"Delta":240148634},{"NoteNumber":48,"Velocity":30,"Duration":213955,"SoundDuration":213955,"Delta":240340733},{"NoteNumber":56,"Velocity":37,"Duration":213955,"SoundDuration":213955,"Delta":240340733},{"NoteNumber":51,"Velocity":30,"Duration":213955,"SoundDuration":213955,"Delta":240340733},{"NoteNumber":63,"Velocity":59,"Duration":117906,"SoundDuration":117906,"Delta":240436782},{"NoteNumber":60,"Velocity":72,"Duration":551165,"SoundDuration":551165,"Delta":240554688},{"NoteNumber":45,"Velocity":51,"Duration":183721,"SoundDuration":183721,"Delta":240554688},{"NoteNumber":48,"Velocity":33,"Duration":183722,"SoundDuration":183722,"Delta":240738410},{"NoteNumber":53,"Velocity":33,"Duration":183722,"SoundDuration":183722,"Delta":240738410},{"NoteNumber":57,"Velocity":41,"Duration":183722,"SoundDuration":183722,"Delta":240738410},{"NoteNumber":45,"Velocity":45,"Duration":183721,"SoundDuration":183721,"Delta":240922132},{"NoteNumber":65,"Velocity":63,"Duration":1077264,"SoundDuration":1077264,"Delta":241105854},{"NoteNumber":48,"Velocity":29,"Duration":179543,"SoundDuration":179543,"Delta":241105854},{"NoteNumber":53,"Velocity":29,"Duration":179543,"SoundDuration":179543,"Delta":241105854},{"NoteNumber":57,"Velocity":38,"Duration":179543,"SoundDuration":179543,"Delta":241105854},{"NoteNumber":45,"Velocity":36,"Duration":179544,"SoundDuration":179544,"Delta":241285398},{"NoteNumber":48,"Velocity":28,"Duration":179543,"SoundDuration":179543,"Delta":241464942},{"NoteNumber":53,"Velocity":28,"Duration":179543,"SoundDuration":179543,"Delta":241464942},{"NoteNumber":57,"Velocity":38,"Duration":179543,"SoundDuration":179543,"Delta":241464942},{"NoteNumber":45,"Velocity":39,"Duration":179543,"SoundDuration":179543,"Delta":241644486},{"NoteNumber":48,"Velocity":28,"Duration":179543,"SoundDuration":179543,"Delta":241824030},{"NoteNumber":53,"Velocity":28,"Duration":179543,"SoundDuration":179543,"Delta":241824030},{"NoteNumber":57,"Velocity":36,"Duration":179543,"SoundDuration":179543,"Delta":241824030},{"NoteNumber":45,"Velocity":39,"Duration":179544,"SoundDuration":179544,"Delta":242003574},{"NoteNumber":73,"Velocity":60,"Duration":460881,"SoundDuration":460881,"Delta":242183118},{"NoteNumber":61,"Velocity":56,"Duration":460881,"SoundDuration":460881,"Delta":242183118},{"NoteNumber":53,"Velocity":27,"Duration":179543,"SoundDuration":179543,"Delta":242183118},{"NoteNumber":58,"Velocity":35,"Duration":179543,"SoundDuration":179543,"Delta":242183118},{"NoteNumber":49,"Velocity":27,"Duration":179543,"SoundDuration":179543,"Delta":242183118},{"NoteNumber":46,"Velocity":33,"Duration":187558,"SoundDuration":187558,"Delta":242362662},{"NoteNumber":49,"Velocity":27,"Duration":215315,"SoundDuration":215315,"Delta":242550220},{"NoteNumber":53,"Velocity":27,"Duration":215315,"SoundDuration":215315,"Delta":242550220},{"NoteNumber":58,"Velocity":34,"Duration":215315,"SoundDuration":215315,"Delta":242550220},{"NoteNumber":77,"Velocity":58,"Duration":121536,"SoundDuration":121536,"Delta":242644000},{"NoteNumber":65,"Velocity":53,"Duration":121536,"SoundDuration":121536,"Delta":242644000},{"NoteNumber":82,"Velocity":60,"Duration":531067,"SoundDuration":531067,"Delta":242765536},{"NoteNumber":70,"Velocity":51,"Duration":531067,"SoundDuration":531067,"Delta":242765536},{"NoteNumber":46,"Velocity":37,"Duration":177022,"SoundDuration":177022,"Delta":242765536},{"NoteNumber":49,"Velocity":27,"Duration":177022,"SoundDuration":177022,"Delta":242942558},{"NoteNumber":53,"Velocity":27,"Duration":177022,"SoundDuration":177022,"Delta":242942558},{"NoteNumber":58,"Velocity":34,"Duration":177022,"SoundDuration":177022,"Delta":242942558},{"NoteNumber":46,"Velocity":36,"Duration":177022,"SoundDuration":177022,"Delta":243119581},{"NoteNumber":85,"Velocity":62,"Duration":451208,"SoundDuration":451208,"Delta":243296603},{"NoteNumber":73,"Velocity":57,"Duration":451208,"SoundDuration":451208,"Delta":243296603},{"NoteNumber":49,"Velocity":30,"Duration":178795,"SoundDuration":178795,"Delta":243296603},{"NoteNumber":53,"Velocity":30,"Duration":178795,"SoundDuration":178795,"Delta":243296603},{"NoteNumber":58,"Velocity":39,"Duration":178795,"SoundDuration":178795,"Delta":243296603},{"NoteNumber":46,"Velocity":37,"Duration":181609,"SoundDuration":181609,"Delta":243475398},{"NoteNumber":53,"Velocity":29,"Duration":195787,"SoundDuration":195787,"Delta":243657007},{"NoteNumber":58,"Velocity":38,"Duration":195787,"SoundDuration":195787,"Delta":243657007},{"NoteNumber":49,"Velocity":29,"Duration":195787,"SoundDuration":195787,"Delta":243657007},{"NoteNumber":70,"Velocity":53,"Duration":104983,"SoundDuration":104983,"Delta":243747812},{"NoteNumber":82,"Velocity":58,"Duration":104983,"SoundDuration":104983,"Delta":243747812},{"NoteNumber":81,"Velocity":61,"Duration":530997,"SoundDuration":530997,"Delta":243852795},{"NoteNumber":69,"Velocity":57,"Duration":530997,"SoundDuration":530997,"Delta":243852795},{"NoteNumber":48,"Velocity":40,"Duration":180877,"SoundDuration":180877,"Delta":243852795},{"NoteNumber":51,"Velocity":29,"Duration":175060,"SoundDuration":175060,"Delta":244033673},{"NoteNumber":53,"Velocity":29,"Duration":175060,"SoundDuration":175060,"Delta":244033673},{"NoteNumber":60,"Velocity":38,"Duration":175060,"SoundDuration":175060,"Delta":244033673},{"NoteNumber":48,"Velocity":39,"Duration":175059,"SoundDuration":175059,"Delta":244208733},{"NoteNumber":72,"Velocity":59,"Duration":464521,"SoundDuration":464521,"Delta":244383793},{"NoteNumber":84,"Velocity":65,"Duration":464521,"SoundDuration":464521,"Delta":244383793},{"NoteNumber":51,"Velocity":34,"Duration":183183,"SoundDuration":183183,"Delta":244383793},{"NoteNumber":60,"Velocity":42,"Duration":183183,"SoundDuration":183183,"Delta":244383793},{"NoteNumber":53,"Velocity":34,"Duration":183183,"SoundDuration":183183,"Delta":244383793},{"NoteNumber":48,"Velocity":40,"Duration":187558,"SoundDuration":187558,"Delta":244566976},{"NoteNumber":53,"Velocity":33,"Duration":229525,"SoundDuration":229525,"Delta":244754535},{"NoteNumber":60,"Velocity":42,"Duration":229525,"SoundDuration":229525,"Delta":244754535},{"NoteNumber":51,"Velocity":33,"Duration":229525,"SoundDuration":229525,"Delta":244754535},{"NoteNumber":69,"Velocity":58,"Duration":135746,"SoundDuration":135746,"Delta":244848314},{"NoteNumber":81,"Velocity":63,"Duration":135746,"SoundDuration":135746,"Delta":244848314},{"NoteNumber":70,"Velocity":51,"Duration":531067,"SoundDuration":531067,"Delta":244984061},{"NoteNumber":82,"Velocity":57,"Duration":531067,"SoundDuration":531067,"Delta":244984061},{"NoteNumber":49,"Velocity":37,"Duration":177022,"SoundDuration":177022,"Delta":244984061},{"NoteNumber":53,"Velocity":27,"Duration":177022,"SoundDuration":177022,"Delta":245161083},{"NoteNumber":58,"Velocity":27,"Duration":177022,"SoundDuration":177022,"Delta":245161083},{"NoteNumber":61,"Velocity":34,"Duration":177022,"SoundDuration":177022,"Delta":245161083},{"NoteNumber":49,"Velocity":36,"Duration":177022,"SoundDuration":177022,"Delta":245338106},{"NoteNumber":77,"Velocity":52,"Duration":1087189,"SoundDuration":1087189,"Delta":245515128},{"NoteNumber":65,"Velocity":52,"Duration":1087189,"SoundDuration":1087189,"Delta":245515128},{"NoteNumber":53,"Velocity":30,"Duration":178795,"SoundDuration":178795,"Delta":245515128},{"NoteNumber":58,"Velocity":30,"Duration":178795,"SoundDuration":178795,"Delta":245515128},{"NoteNumber":61,"Velocity":39,"Duration":178795,"SoundDuration":178795,"Delta":245515128},{"NoteNumber":49,"Velocity":37,"Duration":181609,"SoundDuration":181609,"Delta":245693923},{"NoteNumber":58,"Velocity":29,"Duration":195787,"SoundDuration":195787,"Delta":245875532},{"NoteNumber":61,"Velocity":38,"Duration":195787,"SoundDuration":195787,"Delta":245875532},{"NoteNumber":53,"Velocity":29,"Duration":195787,"SoundDuration":195787,"Delta":245875532},{"NoteNumber":49,"Velocity":40,"Duration":180877,"SoundDuration":180877,"Delta":246071320},{"NoteNumber":53,"Velocity":29,"Duration":175060,"SoundDuration":175060,"Delta":246252198},{"NoteNumber":58,"Velocity":29,"Duration":175060,"SoundDuration":175060,"Delta":246252198},{"NoteNumber":61,"Velocity":38,"Duration":175060,"SoundDuration":175060,"Delta":246252198},{"NoteNumber":49,"Velocity":39,"Duration":175060,"SoundDuration":175060,"Delta":246427258},{"NoteNumber":78,"Velocity":68,"Duration":456397,"SoundDuration":456397,"Delta":246602318},{"NoteNumber":66,"Velocity":62,"Duration":568849,"SoundDuration":568849,"Delta":246602318},{"NoteNumber":54,"Velocity":28,"Duration":175059,"SoundDuration":175059,"Delta":246602318},{"NoteNumber":63,"Velocity":36,"Duration":175059,"SoundDuration":175059,"Delta":246602318},{"NoteNumber":58,"Velocity":28,"Duration":175059,"SoundDuration":175059,"Delta":246602318},{"NoteNumber":51,"Velocity":33,"Duration":187558,"SoundDuration":187558,"Delta":246777378},{"NoteNumber":54,"Velocity":27,"Duration":206231,"SoundDuration":206231,"Delta":246964936},{"NoteNumber":63,"Velocity":35,"Duration":206231,"SoundDuration":206231,"Delta":246964936},{"NoteNumber":58,"Velocity":27,"Duration":206231,"SoundDuration":206231,"Delta":246964936},{"NoteNumber":75,"Velocity":63,"Duration":112452,"SoundDuration":112452,"Delta":247058715},{"NoteNumber":73,"Velocity":70,"Duration":513815,"SoundDuration":513815,"Delta":247171168},{"NoteNumber":53,"Velocity":37,"Duration":171271,"SoundDuration":171271,"Delta":247171168},{"NoteNumber":58,"Velocity":27,"Duration":171272,"SoundDuration":171272,"Delta":247342440},{"NoteNumber":65,"Velocity":33,"Duration":171272,"SoundDuration":171272,"Delta":247342440},{"NoteNumber":61,"Velocity":27,"Duration":171272,"SoundDuration":171272,"Delta":247342440},{"NoteNumber":53,"Velocity":34,"Duration":171271,"SoundDuration":171271,"Delta":247513712},{"NoteNumber":77,"Velocity":67,"Duration":456949,"SoundDuration":456949,"Delta":247684984},{"NoteNumber":58,"Velocity":30,"Duration":180570,"SoundDuration":180570,"Delta":247684984},{"NoteNumber":65,"Velocity":38,"Duration":180570,"SoundDuration":180570,"Delta":247684984},{"NoteNumber":61,"Velocity":30,"Duration":180570,"SoundDuration":180570,"Delta":247684984},{"NoteNumber":53,"Velocity":34,"Duration":184252,"SoundDuration":184252,"Delta":247865554},{"NoteNumber":61,"Velocity":28,"Duration":197109,"SoundDuration":197109,"Delta":248049807},{"NoteNumber":65,"Velocity":35,"Duration":197109,"SoundDuration":197109,"Delta":248049807},{"NoteNumber":58,"Velocity":28,"Duration":197109,"SoundDuration":197109,"Delta":248049807},{"NoteNumber":73,"Velocity":61,"Duration":104983,"SoundDuration":104983,"Delta":248141933},{"NoteNumber":72,"Velocity":70,"Duration":530997,"SoundDuration":530997,"Delta":248246916},{"NoteNumber":53,"Velocity":40,"Duration":180877,"SoundDuration":180877,"Delta":248246916},{"NoteNumber":60,"Velocity":29,"Duration":175060,"SoundDuration":175060,"Delta":248427794},{"NoteNumber":57,"Velocity":29,"Duration":175060,"SoundDuration":175060,"Delta":248427794},{"NoteNumber":63,"Velocity":37,"Duration":175060,"SoundDuration":175060,"Delta":248427794},{"NoteNumber":53,"Velocity":37,"Duration":175059,"SoundDuration":175059,"Delta":248602854},{"NoteNumber":75,"Velocity":71,"Duration":466676,"SoundDuration":466676,"Delta":248777914},{"NoteNumber":60,"Velocity":33,"Duration":178528,"SoundDuration":178528,"Delta":248777914},{"NoteNumber":57,"Velocity":33,"Duration":178528,"SoundDuration":178528,"Delta":248777914},{"NoteNumber":63,"Velocity":42,"Duration":178528,"SoundDuration":178528,"Delta":248777914},{"NoteNumber":53,"Velocity":38,"Duration":192098,"SoundDuration":192098,"Delta":248956443},{"NoteNumber":60,"Velocity":31,"Duration":213955,"SoundDuration":213955,"Delta":249148541},{"NoteNumber":57,"Velocity":31,"Duration":213955,"SoundDuration":213955,"Delta":249148541},{"NoteNumber":63,"Velocity":38,"Duration":213955,"SoundDuration":213955,"Delta":249148541},{"NoteNumber":72,"Velocity":67,"Duration":117906,"SoundDuration":117906,"Delta":249244591},{"NoteNumber":70,"Velocity":78,"Duration":551165,"SoundDuration":551165,"Delta":249362497},{"NoteNumber":54,"Velocity":53,"Duration":183721,"SoundDuration":183721,"Delta":249362497},{"NoteNumber":66,"Velocity":43,"Duration":183722,"SoundDuration":183722,"Delta":249546219},{"NoteNumber":61,"Velocity":34,"Duration":183722,"SoundDuration":183722,"Delta":249546219},{"NoteNumber":58,"Velocity":34,"Duration":183722,"SoundDuration":183722,"Delta":249546219},{"NoteNumber":54,"Velocity":47,"Duration":183721,"SoundDuration":183721,"Delta":249729941},{"NoteNumber":73,"Velocity":73,"Duration":1077264,"SoundDuration":1077264,"Delta":249913663},{"NoteNumber":66,"Velocity":46,"Duration":179543,"SoundDuration":179543,"Delta":249913663},{"NoteNumber":61,"Velocity":35,"Duration":179543,"SoundDuration":179543,"Delta":249913663},{"NoteNumber":58,"Velocity":35,"Duration":179543,"SoundDuration":179543,"Delta":249913663},{"NoteNumber":54,"Velocity":43,"Duration":179544,"SoundDuration":179544,"Delta":250093207},{"NoteNumber":66,"Velocity":46,"Duration":179543,"SoundDuration":179543,"Delta":250272751},{"NoteNumber":61,"Velocity":34,"Duration":179543,"SoundDuration":179543,"Delta":250272751},{"NoteNumber":58,"Velocity":34,"Duration":179543,"SoundDuration":179543,"Delta":250272751},{"NoteNumber":54,"Velocity":47,"Duration":179543,"SoundDuration":179543,"Delta":250452295},{"NoteNumber":66,"Velocity":44,"Duration":179543,"SoundDuration":179543,"Delta":250631839},{"NoteNumber":61,"Velocity":34,"Duration":179543,"SoundDuration":179543,"Delta":250631839},{"NoteNumber":58,"Velocity":34,"Duration":179543,"SoundDuration":179543,"Delta":250631839},{"NoteNumber":54,"Velocity":47,"Duration":179544,"SoundDuration":179544,"Delta":250811383},{"NoteNumber":70,"Velocity":73,"Duration":453227,"SoundDuration":453227,"Delta":250990927},{"NoteNumber":82,"Velocity":79,"Duration":453227,"SoundDuration":453227,"Delta":250990927},{"NoteNumber":58,"Velocity":35,"Duration":179543,"SoundDuration":179543,"Delta":250990927},{"NoteNumber":61,"Velocity":35,"Duration":179543,"SoundDuration":179543,"Delta":250990927},{"NoteNumber":66,"Velocity":46,"Duration":179543,"SoundDuration":179543,"Delta":250990927},{"NoteNumber":54,"Velocity":42,"Duration":182774,"SoundDuration":182774,"Delta":251170471},{"NoteNumber":66,"Velocity":44,"Duration":194715,"SoundDuration":194715,"Delta":251353245},{"NoteNumber":58,"Velocity":35,"Duration":194715,"SoundDuration":194715,"Delta":251353245},{"NoteNumber":61,"Velocity":35,"Duration":194715,"SoundDuration":194715,"Delta":251353245},{"NoteNumber":85,"Velocity":75,"Duration":103806,"SoundDuration":103806,"Delta":251444154},{"NoteNumber":73,"Velocity":69,"Duration":103806,"SoundDuration":103806,"Delta":251444154},{"NoteNumber":78,"Velocity":71,"Duration":531067,"SoundDuration":531067,"Delta":251547961},{"NoteNumber":90,"Velocity":80,"Duration":531067,"SoundDuration":531067,"Delta":251547961},{"NoteNumber":54,"Velocity":48,"Duration":177022,"SoundDuration":177022,"Delta":251547961},{"NoteNumber":66,"Velocity":44,"Duration":177022,"SoundDuration":177022,"Delta":251724983},{"NoteNumber":61,"Velocity":35,"Duration":177022,"SoundDuration":177022,"Delta":251724983},{"NoteNumber":58,"Velocity":35,"Duration":177022,"SoundDuration":177022,"Delta":251724983},{"NoteNumber":54,"Velocity":47,"Duration":177022,"SoundDuration":177022,"Delta":251902006},{"NoteNumber":82,"Velocity":74,"Duration":451208,"SoundDuration":451208,"Delta":252079028},{"NoteNumber":94,"Velocity":81,"Duration":451208,"SoundDuration":451208,"Delta":252079028},{"NoteNumber":66,"Velocity":50,"Duration":178795,"SoundDuration":178795,"Delta":252079028},{"NoteNumber":61,"Velocity":39,"Duration":178795,"SoundDuration":178795,"Delta":252079028},{"NoteNumber":58,"Velocity":39,"Duration":178795,"SoundDuration":178795,"Delta":252079028},{"NoteNumber":54,"Velocity":48,"Duration":181609,"SoundDuration":181609,"Delta":252257823},{"NoteNumber":58,"Velocity":37,"Duration":195787,"SoundDuration":195787,"Delta":252439432},{"NoteNumber":66,"Velocity":49,"Duration":195787,"SoundDuration":195787,"Delta":252439432},{"NoteNumber":61,"Velocity":37,"Duration":195787,"SoundDuration":195787,"Delta":252439432},{"NoteNumber":90,"Velocity":75,"Duration":104983,"SoundDuration":104983,"Delta":252530237},{"NoteNumber":78,"Velocity":69,"Duration":104983,"SoundDuration":104983,"Delta":252530237},{"NoteNumber":77,"Velocity":74,"Duration":530997,"SoundDuration":530997,"Delta":252635220},{"NoteNumber":89,"Velocity":80,"Duration":530997,"SoundDuration":530997,"Delta":252635220},{"NoteNumber":56,"Velocity":52,"Duration":180877,"SoundDuration":180877,"Delta":252635220},{"NoteNumber":68,"Velocity":49,"Duration":175060,"SoundDuration":175060,"Delta":252816098},{"NoteNumber":59,"Velocity":37,"Duration":175060,"SoundDuration":175060,"Delta":252816098},{"NoteNumber":61,"Velocity":37,"Duration":175060,"SoundDuration":175060,"Delta":252816098},{"NoteNumber":56,"Velocity":50,"Duration":175060,"SoundDuration":175060,"Delta":252991158},{"NoteNumber":80,"Velocity":77,"Duration":457957,"SoundDuration":457957,"Delta":253166218},{"NoteNumber":92,"Velocity":85,"Duration":457957,"SoundDuration":457957,"Delta":253166218},{"NoteNumber":61,"Velocity":44,"Duration":180180,"SoundDuration":180180,"Delta":253166218},{"NoteNumber":68,"Velocity":55,"Duration":180180,"SoundDuration":180180,"Delta":253166218},{"NoteNumber":59,"Velocity":44,"Duration":180180,"SoundDuration":180180,"Delta":253166218},{"NoteNumber":56,"Velocity":52,"Duration":185184,"SoundDuration":185184,"Delta":253346398},{"NoteNumber":59,"Velocity":42,"Duration":202081,"SoundDuration":202081,"Delta":253531583},{"NoteNumber":68,"Velocity":55,"Duration":202081,"SoundDuration":202081,"Delta":253531583},{"NoteNumber":61,"Velocity":42,"Duration":202081,"SoundDuration":202081,"Delta":253531583},{"NoteNumber":77,"Velocity":75,"Duration":109488,"SoundDuration":109488,"Delta":253624175},{"NoteNumber":89,"Velocity":82,"Duration":109488,"SoundDuration":109488,"Delta":253624175},{"NoteNumber":78,"Velocity":80,"Duration":531067,"SoundDuration":531067,"Delta":253733664},{"NoteNumber":90,"Velocity":89,"Duration":531067,"SoundDuration":531067,"Delta":253733664},{"NoteNumber":58,"Velocity":48,"Duration":177022,"SoundDuration":177022,"Delta":253733664},{"NoteNumber":70,"Velocity":44,"Duration":177022,"SoundDuration":177022,"Delta":253910687},{"NoteNumber":61,"Velocity":35,"Duration":177022,"SoundDuration":177022,"Delta":253910687},{"NoteNumber":66,"Velocity":35,"Duration":177022,"SoundDuration":177022,"Delta":253910687},{"NoteNumber":58,"Velocity":47,"Duration":177022,"SoundDuration":177022,"Delta":254087709},{"NoteNumber":73,"Velocity":68,"Duration":1630491,"SoundDuration":1630491,"Delta":254264732},{"NoteNumber":85,"Velocity":81,"Duration":1630491,"SoundDuration":1630491,"Delta":254264732},{"NoteNumber":70,"Velocity":42,"Duration":178794,"SoundDuration":178794,"Delta":254264732},{"NoteNumber":61,"Velocity":33,"Duration":178794,"SoundDuration":178794,"Delta":254264732},{"NoteNumber":66,"Velocity":33,"Duration":178794,"SoundDuration":178794,"Delta":254264732},{"NoteNumber":58,"Velocity":40,"Duration":181608,"SoundDuration":181608,"Delta":254443527},{"NoteNumber":61,"Velocity":33,"Duration":181609,"SoundDuration":181609,"Delta":254625136},{"NoteNumber":66,"Velocity":33,"Duration":181609,"SoundDuration":181609,"Delta":254625136},{"NoteNumber":70,"Velocity":44,"Duration":181609,"SoundDuration":181609,"Delta":254625136},{"NoteNumber":58,"Velocity":50,"Duration":173745,"SoundDuration":173745,"Delta":254806745},{"NoteNumber":70,"Velocity":49,"Duration":172994,"SoundDuration":172994,"Delta":254980490},{"NoteNumber":66,"Velocity":37,"Duration":172994,"SoundDuration":172994,"Delta":254980490},{"NoteNumber":61,"Velocity":37,"Duration":172994,"SoundDuration":172994,"Delta":254980490},{"NoteNumber":58,"Velocity":52,"Duration":172167,"SoundDuration":172167,"Delta":255153485},{"NoteNumber":66,"Velocity":38,"Duration":171347,"SoundDuration":171347,"Delta":255325652},{"NoteNumber":70,"Velocity":51,"Duration":171347,"SoundDuration":171347,"Delta":255325652},{"NoteNumber":61,"Velocity":38,"Duration":171347,"SoundDuration":171347,"Delta":255325652},{"NoteNumber":58,"Velocity":48,"Duration":187558,"SoundDuration":187558,"Delta":255496999},{"NoteNumber":66,"Velocity":41,"Duration":210665,"SoundDuration":210665,"Delta":255684558},{"NoteNumber":70,"Velocity":55,"Duration":210665,"SoundDuration":210665,"Delta":255684558},{"NoteNumber":61,"Velocity":41,"Duration":210665,"SoundDuration":210665,"Delta":255684558},{"NoteNumber":90,"Velocity":89,"Duration":531067,"SoundDuration":531067,"Delta":255895223},{"NoteNumber":78,"Velocity":80,"Duration":531067,"SoundDuration":531067,"Delta":255895223},{"NoteNumber":59,"Velocity":57,"Duration":177022,"SoundDuration":177022,"Delta":255895223},{"NoteNumber":71,"Velocity":44,"Duration":177022,"SoundDuration":177022,"Delta":256072246},{"NoteNumber":62,"Velocity":35,"Duration":177022,"SoundDuration":177022,"Delta":256072246},{"NoteNumber":66,"Velocity":35,"Duration":177022,"SoundDuration":177022,"Delta":256072246},{"NoteNumber":59,"Velocity":47,"Duration":177022,"SoundDuration":177022,"Delta":256249268},{"NoteNumber":86,"Velocity":83,"Duration":1620521,"SoundDuration":1620521,"Delta":256426291},{"NoteNumber":74,"Velocity":70,"Duration":1620521,"SoundDuration":1620521,"Delta":256426291},{"NoteNumber":71,"Velocity":42,"Duration":178794,"SoundDuration":178794,"Delta":256426291},{"NoteNumber":62,"Velocity":33,"Duration":178794,"SoundDuration":178794,"Delta":256426291},{"NoteNumber":66,"Velocity":33,"Duration":178794,"SoundDuration":178794,"Delta":256426291},{"NoteNumber":59,"Velocity":40,"Duration":181608,"SoundDuration":181608,"Delta":256605086},{"NoteNumber":62,"Velocity":33,"Duration":181609,"SoundDuration":181609,"Delta":256786695},{"NoteNumber":66,"Velocity":33,"Duration":181609,"SoundDuration":181609,"Delta":256786695},{"NoteNumber":71,"Velocity":44,"Duration":181609,"SoundDuration":181609,"Delta":256786695},{"NoteNumber":59,"Velocity":50,"Duration":174084,"SoundDuration":174084,"Delta":256968304},{"NoteNumber":71,"Velocity":49,"Duration":171677,"SoundDuration":171677,"Delta":257142388},{"NoteNumber":66,"Velocity":37,"Duration":171677,"SoundDuration":171677,"Delta":257142388},{"NoteNumber":62,"Velocity":37,"Duration":171677,"SoundDuration":171677,"Delta":257142388},{"NoteNumber":59,"Velocity":53,"Duration":169256,"SoundDuration":169256,"Delta":257314066},{"NoteNumber":66,"Velocity":38,"Duration":167499,"SoundDuration":167499,"Delta":257483322},{"NoteNumber":71,"Velocity":52,"Duration":167499,"SoundDuration":167499,"Delta":257483322},{"NoteNumber":62,"Velocity":38,"Duration":167499,"SoundDuration":167499,"Delta":257483322},{"NoteNumber":59,"Velocity":49,"Duration":187558,"SoundDuration":187558,"Delta":257650822},{"NoteNumber":66,"Velocity":42,"Duration":208431,"SoundDuration":208431,"Delta":257838380},{"NoteNumber":71,"Velocity":56,"Duration":208431,"SoundDuration":208431,"Delta":257838380},{"NoteNumber":62,"Velocity":42,"Duration":208431,"SoundDuration":208431,"Delta":257838380},{"NoteNumber":79,"Velocity":96,"Duration":524781,"SoundDuration":524781,"Delta":258046812},{"NoteNumber":91,"Velocity":96,"Duration":524781,"SoundDuration":524781,"Delta":258046812},{"NoteNumber":59,"Velocity":60,"Duration":174927,"SoundDuration":174927,"Delta":258046812},{"NoteNumber":62,"Velocity":36,"Duration":174926,"SoundDuration":174926,"Delta":258221739},{"NoteNumber":67,"Velocity":36,"Duration":174926,"SoundDuration":174926,"Delta":258221739},{"NoteNumber":71,"Velocity":46,"Duration":174926,"SoundDuration":174926,"Delta":258221739},{"NoteNumber":59,"Velocity":49,"Duration":174927,"SoundDuration":174927,"Delta":258396666},{"NoteNumber":74,"Velocity":74,"Duration":1612224,"SoundDuration":1612224,"Delta":258571593},{"NoteNumber":86,"Velocity":89,"Duration":1612224,"SoundDuration":1612224,"Delta":258571593},{"NoteNumber":62,"Velocity":34,"Duration":178794,"SoundDuration":178794,"Delta":258571593},{"NoteNumber":67,"Velocity":34,"Duration":178794,"SoundDuration":178794,"Delta":258571593},{"NoteNumber":71,"Velocity":45,"Duration":178794,"SoundDuration":178794,"Delta":258571593},{"NoteNumber":59,"Velocity":42,"Duration":181608,"SoundDuration":181608,"Delta":258750388},{"NoteNumber":67,"Velocity":35,"Duration":181609,"SoundDuration":181609,"Delta":258931997},{"NoteNumber":71,"Velocity":47,"Duration":181609,"SoundDuration":181609,"Delta":258931997},{"NoteNumber":62,"Velocity":35,"Duration":181609,"SoundDuration":181609,"Delta":258931997},{"NoteNumber":59,"Velocity":53,"Duration":171757,"SoundDuration":171757,"Delta":259113606},{"NoteNumber":62,"Velocity":39,"Duration":169573,"SoundDuration":169573,"Delta":259285363},{"NoteNumber":67,"Velocity":39,"Duration":169573,"SoundDuration":169573,"Delta":259285363},{"NoteNumber":71,"Velocity":51,"Duration":169573,"SoundDuration":169573,"Delta":259285363},{"NoteNumber":59,"Velocity":56,"Duration":167522,"SoundDuration":167522,"Delta":259454937},{"NoteNumber":62,"Velocity":40,"Duration":165367,"SoundDuration":165367,"Delta":259622459},{"NoteNumber":71,"Velocity":55,"Duration":165367,"SoundDuration":165367,"Delta":259622459},{"NoteNumber":67,"Velocity":40,"Duration":165367,"SoundDuration":165367,"Delta":259622459},{"NoteNumber":59,"Velocity":51,"Duration":187558,"SoundDuration":187558,"Delta":259787827},{"NoteNumber":62,"Velocity":44,"Duration":208431,"SoundDuration":208431,"Delta":259975385},{"NoteNumber":71,"Velocity":59,"Duration":208431,"SoundDuration":208431,"Delta":259975385},{"NoteNumber":67,"Velocity":44,"Duration":208431,"SoundDuration":208431,"Delta":259975385},{"NoteNumber":79,"Velocity":102,"Duration":523255,"SoundDuration":523255,"Delta":260183817},{"NoteNumber":91,"Velocity":102,"Duration":523255,"SoundDuration":523255,"Delta":260183817},{"NoteNumber":60,"Velocity":64,"Duration":174418,"SoundDuration":174418,"Delta":260183817},{"NoteNumber":64,"Velocity":38,"Duration":174418,"SoundDuration":174418,"Delta":260358236},{"NoteNumber":67,"Velocity":38,"Duration":174418,"SoundDuration":174418,"Delta":260358236},{"NoteNumber":72,"Velocity":48,"Duration":174418,"SoundDuration":174418,"Delta":260358236},{"NoteNumber":60,"Velocity":51,"Duration":174418,"SoundDuration":174418,"Delta":260532654},{"NoteNumber":88,"Velocity":94,"Duration":1603520,"SoundDuration":1603520,"Delta":260707073},{"NoteNumber":76,"Velocity":80,"Duration":1603520,"SoundDuration":1603520,"Delta":260707073},{"NoteNumber":64,"Velocity":37,"Duration":178794,"SoundDuration":178794,"Delta":260707073},{"NoteNumber":67,"Velocity":37,"Duration":178794,"SoundDuration":178794,"Delta":260707073},{"NoteNumber":72,"Velocity":48,"Duration":178794,"SoundDuration":178794,"Delta":260707073},{"NoteNumber":60,"Velocity":47,"Duration":181608,"SoundDuration":181608,"Delta":260885868},{"NoteNumber":67,"Velocity":37,"Duration":181609,"SoundDuration":181609,"Delta":261067477},{"NoteNumber":72,"Velocity":50,"Duration":181609,"SoundDuration":181609,"Delta":261067477},{"NoteNumber":64,"Velocity":37,"Duration":181609,"SoundDuration":181609,"Delta":261067477},{"NoteNumber":60,"Velocity":57,"Duration":171105,"SoundDuration":171105,"Delta":261249086},{"NoteNumber":64,"Velocity":41,"Duration":168780,"SoundDuration":168780,"Delta":261420191},{"NoteNumber":67,"Velocity":41,"Duration":168780,"SoundDuration":168780,"Delta":261420191},{"NoteNumber":72,"Velocity":55,"Duration":168780,"SoundDuration":168780,"Delta":261420191},{"NoteNumber":60,"Velocity":59,"Duration":166439,"SoundDuration":166439,"Delta":261588972},{"NoteNumber":64,"Velocity":44,"Duration":164861,"SoundDuration":164861,"Delta":261755411},{"NoteNumber":72,"Velocity":58,"Duration":164861,"SoundDuration":164861,"Delta":261755411},{"NoteNumber":67,"Velocity":44,"Duration":164861,"SoundDuration":164861,"Delta":261755411},{"NoteNumber":60,"Velocity":55,"Duration":183486,"SoundDuration":183486,"Delta":261920272},{"NoteNumber":64,"Velocity":47,"Duration":206835,"SoundDuration":206835,"Delta":262103758},{"NoteNumber":72,"Velocity":61,"Duration":206835,"SoundDuration":206835,"Delta":262103758},{"NoteNumber":67,"Velocity":47,"Duration":206835,"SoundDuration":206835,"Delta":262103758},{"NoteNumber":61,"Velocity":102,"Duration":1020330,"SoundDuration":1020330,"Delta":262310593},{"NoteNumber":64,"Velocity":78,"Duration":938363,"SoundDuration":938363,"Delta":262392561},{"NoteNumber":67,"Velocity":78,"Duration":856396,"SoundDuration":856396,"Delta":262474528},{"NoteNumber":70,"Velocity":78,"Duration":774428,"SoundDuration":774428,"Delta":262556495},{"NoteNumber":73,"Velocity":78,"Duration":692461,"SoundDuration":692461,"Delta":262638462},{"NoteNumber":79,"Velocity":75,"Duration":412087,"SoundDuration":412087,"Delta":262825378},{"NoteNumber":82,"Velocity":71,"Duration":247252,"SoundDuration":247252,"Delta":262907796},{"NoteNumber":85,"Velocity":70,"Duration":82417,"SoundDuration":82417,"Delta":262990213},{"NoteNumber":88,"Velocity":70,"Duration":164834,"SoundDuration":164834,"Delta":263072631},{"NoteNumber":91,"Velocity":73,"Duration":82417,"SoundDuration":82417,"Delta":263155048},{"NoteNumber":79,"Velocity":71,"Duration":93457,"SoundDuration":93457,"Delta":263237466},{"NoteNumber":64,"Velocity":101,"Duration":1022459,"SoundDuration":1022459,"Delta":263330924},{"NoteNumber":67,"Velocity":78,"Duration":939815,"SoundDuration":939815,"Delta":263413569},{"NoteNumber":70,"Velocity":78,"Duration":857170,"SoundDuration":857170,"Delta":263496213},{"NoteNumber":73,"Velocity":78,"Duration":774525,"SoundDuration":774525,"Delta":263578858},{"NoteNumber":76,"Velocity":79,"Duration":691880,"SoundDuration":691880,"Delta":263661503},{"NoteNumber":79,"Velocity":77,"Duration":412087,"SoundDuration":412087,"Delta":263847838},{"NoteNumber":82,"Velocity":72,"Duration":247252,"SoundDuration":247252,"Delta":263930256},{"NoteNumber":85,"Velocity":72,"Duration":82417,"SoundDuration":82417,"Delta":264012673},{"NoteNumber":88,"Velocity":70,"Duration":164834,"SoundDuration":164834,"Delta":264095091},{"NoteNumber":91,"Velocity":74,"Duration":82417,"SoundDuration":82417,"Delta":264177508},{"NoteNumber":79,"Velocity":72,"Duration":93457,"SoundDuration":93457,"Delta":264259926},{"NoteNumber":67,"Velocity":101,"Duration":988556,"SoundDuration":988556,"Delta":264353384},{"NoteNumber":70,"Velocity":84,"Duration":905911,"SoundDuration":905911,"Delta":264436029},{"NoteNumber":73,"Velocity":84,"Duration":823266,"SoundDuration":823266,"Delta":264518673},{"NoteNumber":76,"Velocity":84,"Duration":740622,"SoundDuration":740622,"Delta":264601318},{"NoteNumber":79,"Velocity":77,"Duration":413003,"SoundDuration":413003,"Delta":264845604},{"NoteNumber":82,"Velocity":71,"Duration":247252,"SoundDuration":247252,"Delta":264928021},{"NoteNumber":85,"Velocity":71,"Duration":82417,"SoundDuration":82417,"Delta":265010439},{"NoteNumber":88,"Velocity":70,"Duration":165750,"SoundDuration":165750,"Delta":265092856},{"NoteNumber":91,"Velocity":76,"Duration":83333,"SoundDuration":83333,"Delta":265175274},{"NoteNumber":79,"Velocity":71,"Duration":83333,"SoundDuration":83333,"Delta":265258607},{"NoteNumber":70,"Velocity":100,"Duration":993235,"SoundDuration":993235,"Delta":265341940},{"NoteNumber":73,"Velocity":84,"Duration":912806,"SoundDuration":912806,"Delta":265422369},{"NoteNumber":76,"Velocity":86,"Duration":832377,"SoundDuration":832377,"Delta":265502798},{"NoteNumber":79,"Velocity":77,"Duration":420167,"SoundDuration":420167,"Delta":265821551},{"NoteNumber":82,"Velocity":71,"Duration":252100,"SoundDuration":252100,"Delta":265905584},{"NoteNumber":85,"Velocity":73,"Duration":84033,"SoundDuration":84033,"Delta":265989618},{"NoteNumber":88,"Velocity":70,"Duration":168067,"SoundDuration":168067,"Delta":266073651},{"NoteNumber":91,"Velocity":76,"Duration":84033,"SoundDuration":84033,"Delta":266157685},{"NoteNumber":79,"Velocity":71,"Duration":93457,"SoundDuration":93457,"Delta":266241718},{"NoteNumber":73,"Velocity":96,"Duration":490366,"SoundDuration":490366,"Delta":266335176},{"NoteNumber":76,"Velocity":84,"Duration":408768,"SoundDuration":408768,"Delta":266416774},{"NoteNumber":82,"Velocity":77,"Duration":327467,"SoundDuration":327467,"Delta":266498075},{"NoteNumber":79,"Velocity":84,"Duration":327467,"SoundDuration":327467,"Delta":266498075},{"NoteNumber":85,"Velocity":71,"Duration":246167,"SoundDuration":246167,"Delta":266579375},{"NoteNumber":88,"Velocity":74,"Duration":81300,"SoundDuration":81300,"Delta":266660676},{"NoteNumber":91,"Velocity":70,"Duration":83565,"SoundDuration":83565,"Delta":266741977},{"NoteNumber":76,"Velocity":98,"Duration":489837,"SoundDuration":489837,"Delta":266825542},{"NoteNumber":79,"Velocity":84,"Duration":408536,"SoundDuration":408536,"Delta":266906843},{"NoteNumber":85,"Velocity":77,"Duration":327235,"SoundDuration":327235,"Delta":266988144},{"NoteNumber":82,"Velocity":84,"Duration":327235,"SoundDuration":327235,"Delta":266988144},{"NoteNumber":88,"Velocity":72,"Duration":245934,"SoundDuration":245934,"Delta":267069445},{"NoteNumber":91,"Velocity":74,"Duration":81300,"SoundDuration":81300,"Delta":267150745},{"NoteNumber":94,"Velocity":70,"Duration":83333,"SoundDuration":83333,"Delta":267232046},{"NoteNumber":79,"Velocity":100,"Duration":81521,"SoundDuration":81521,"Delta":267315379},{"NoteNumber":82,"Velocity":84,"Duration":81521,"SoundDuration":81521,"Delta":267396901},{"NoteNumber":85,"Velocity":84,"Duration":81521,"SoundDuration":81521,"Delta":267478423},{"NoteNumber":88,"Velocity":73,"Duration":81521,"SoundDuration":81521,"Delta":267559945},{"NoteNumber":91,"Velocity":74,"Duration":81521,"SoundDuration":81521,"Delta":267641466},{"NoteNumber":94,"Velocity":73,"Duration":83565,"SoundDuration":83565,"Delta":267722988},{"NoteNumber":82,"Velocity":100,"Duration":81521,"SoundDuration":81521,"Delta":267806554},{"NoteNumber":85,"Velocity":84,"Duration":81521,"SoundDuration":81521,"Delta":267888075},{"NoteNumber":88,"Velocity":84,"Duration":81521,"SoundDuration":81521,"Delta":267969597},{"NoteNumber":88,"Velocity":73,"Duration":81521,"SoundDuration":81521,"Delta":268051119},{"NoteNumber":91,"Velocity":74,"Duration":81521,"SoundDuration":81521,"Delta":268132641},{"NoteNumber":94,"Velocity":73,"Duration":85714,"SoundDuration":85714,"Delta":268214162},{"NoteNumber":85,"Velocity":102,"Duration":80645,"SoundDuration":80645,"Delta":268299877},{"NoteNumber":88,"Velocity":84,"Duration":76612,"SoundDuration":76612,"Delta":268380522},{"NoteNumber":88,"Velocity":77,"Duration":80645,"SoundDuration":80645,"Delta":268461167},{"NoteNumber":91,"Velocity":75,"Duration":80645,"SoundDuration":80645,"Delta":268541812},{"NoteNumber":94,"Velocity":74,"Duration":161290,"SoundDuration":161290,"Delta":268622458},{"NoteNumber":82,"Velocity":97,"Duration":79575,"SoundDuration":79575,"Delta":268783748},{"NoteNumber":85,"Velocity":84,"Duration":75596,"SoundDuration":75596,"Delta":268863324},{"NoteNumber":85,"Velocity":77,"Duration":79435,"SoundDuration":79435,"Delta":268942899},{"NoteNumber":88,"Velocity":75,"Duration":79364,"SoundDuration":79364,"Delta":269022334},{"NoteNumber":91,"Velocity":74,"Duration":158451,"SoundDuration":158451,"Delta":269101699},{"NoteNumber":79,"Velocity":96,"Duration":79155,"SoundDuration":79155,"Delta":269260150},{"NoteNumber":82,"Velocity":84,"Duration":74999,"SoundDuration":74999,"Delta":269339306},{"NoteNumber":82,"Velocity":77,"Duration":78947,"SoundDuration":78947,"Delta":269418253},{"NoteNumber":85,"Velocity":75,"Duration":78809,"SoundDuration":78809,"Delta":269497201},{"NoteNumber":88,"Velocity":74,"Duration":157411,"SoundDuration":157411,"Delta":269576010},{"NoteNumber":76,"Velocity":96,"Duration":78533,"SoundDuration":78533,"Delta":269733422},{"NoteNumber":79,"Velocity":84,"Duration":74607,"SoundDuration":74607,"Delta":269811956},{"NoteNumber":79,"Velocity":77,"Duration":78328,"SoundDuration":78328,"Delta":269890490},{"NoteNumber":82,"Velocity":75,"Duration":78328,"SoundDuration":78328,"Delta":269968819},{"NoteNumber":85,"Velocity":74,"Duration":156317,"SoundDuration":156317,"Delta":270047148},{"NoteNumber":73,"Velocity":96,"Duration":78057,"SoundDuration":78057,"Delta":270203466},{"NoteNumber":76,"Velocity":84,"Duration":74025,"SoundDuration":74025,"Delta":270281523},{"NoteNumber":76,"Velocity":77,"Duration":77922,"SoundDuration":77922,"Delta":270359445},{"NoteNumber":79,"Velocity":72,"Duration":77720,"SoundDuration":77720,"Delta":270437367},{"NoteNumber":82,"Velocity":74,"Duration":155306,"SoundDuration":155306,"Delta":270515087},{"NoteNumber":70,"Velocity":96,"Duration":77519,"SoundDuration":77519,"Delta":270670394},{"NoteNumber":73,"Velocity":84,"Duration":73586,"SoundDuration":73586,"Delta":270747913},{"NoteNumber":73,"Velocity":77,"Duration":77720,"SoundDuration":77720,"Delta":270825366},{"NoteNumber":76,"Velocity":75,"Duration":77720,"SoundDuration":77720,"Delta":270903086},{"NoteNumber":79,"Velocity":74,"Duration":155440,"SoundDuration":155440,"Delta":270980807},{"NoteNumber":67,"Velocity":96,"Duration":77720,"SoundDuration":77720,"Delta":271136247},{"NoteNumber":70,"Velocity":84,"Duration":73834,"SoundDuration":73834,"Delta":271213967},{"NoteNumber":70,"Velocity":77,"Duration":77720,"SoundDuration":77720,"Delta":271291688},{"NoteNumber":73,"Velocity":75,"Duration":77720,"SoundDuration":77720,"Delta":271369408},{"NoteNumber":76,"Velocity":74,"Duration":155440,"SoundDuration":155440,"Delta":271447128},{"NoteNumber":64,"Velocity":96,"Duration":77720,"SoundDuration":77720,"Delta":271602569},{"NoteNumber":67,"Velocity":84,"Duration":73834,"SoundDuration":73834,"Delta":271680289},{"NoteNumber":67,"Velocity":77,"Duration":77720,"SoundDuration":77720,"Delta":271758009},{"NoteNumber":70,"Velocity":75,"Duration":77720,"SoundDuration":77720,"Delta":271835729},{"NoteNumber":73,"Velocity":74,"Duration":155440,"SoundDuration":155440,"Delta":271913450},{"NoteNumber":61,"Velocity":91,"Duration":77720,"SoundDuration":77720,"Delta":272068890},{"NoteNumber":64,"Velocity":80,"Duration":73834,"SoundDuration":73834,"Delta":272146610},{"NoteNumber":64,"Velocity":72,"Duration":77720,"SoundDuration":77720,"Delta":272224331},{"NoteNumber":67,"Velocity":71,"Duration":77720,"SoundDuration":77720,"Delta":272302051},{"NoteNumber":70,"Velocity":70,"Duration":155440,"SoundDuration":155440,"Delta":272379771},{"NoteNumber":58,"Velocity":91,"Duration":77720,"SoundDuration":77720,"Delta":272535212},{"NoteNumber":61,"Velocity":80,"Duration":73834,"SoundDuration":73834,"Delta":272612932},{"NoteNumber":61,"Velocity":72,"Duration":77720,"SoundDuration":77720,"Delta":272690652},{"NoteNumber":64,"Velocity":71,"Duration":77720,"SoundDuration":77720,"Delta":272768372},{"NoteNumber":67,"Velocity":70,"Duration":155440,"SoundDuration":155440,"Delta":272846093},{"NoteNumber":55,"Velocity":91,"Duration":77720,"SoundDuration":77720,"Delta":273001533},{"NoteNumber":58,"Velocity":80,"Duration":73834,"SoundDuration":73834,"Delta":273079253},{"NoteNumber":58,"Velocity":72,"Duration":77720,"SoundDuration":77720,"Delta":273156974},{"NoteNumber":61,"Velocity":71,"Duration":77720,"SoundDuration":77720,"Delta":273234694},{"NoteNumber":64,"Velocity":70,"Duration":155440,"SoundDuration":155440,"Delta":273312414},{"NoteNumber":52,"Velocity":91,"Duration":77720,"SoundDuration":77720,"Delta":273467855},{"NoteNumber":55,"Velocity":80,"Duration":73834,"SoundDuration":73834,"Delta":273545575},{"NoteNumber":55,"Velocity":72,"Duration":77720,"SoundDuration":77720,"Delta":273623295},{"NoteNumber":58,"Velocity":71,"Duration":77720,"SoundDuration":77720,"Delta":273701015},{"NoteNumber":61,"Velocity":70,"Duration":155642,"SoundDuration":155642,"Delta":273778736},{"NoteNumber":49,"Velocity":91,"Duration":78192,"SoundDuration":78192,"Delta":273934378},{"NoteNumber":52,"Velocity":80,"Duration":74538,"SoundDuration":74538,"Delta":274012571},{"NoteNumber":52,"Velocity":72,"Duration":78809,"SoundDuration":78809,"Delta":274091037},{"NoteNumber":55,"Velocity":71,"Duration":79086,"SoundDuration":79086,"Delta":274169846},{"NoteNumber":58,"Velocity":70,"Duration":159151,"SoundDuration":159151,"Delta":274248932},{"NoteNumber":46,"Velocity":91,"Duration":80071,"SoundDuration":80071,"Delta":274408084},{"NoteNumber":49,"Velocity":80,"Duration":76264,"SoundDuration":76264,"Delta":274488155},{"NoteNumber":49,"Velocity":72,"Duration":80573,"SoundDuration":80573,"Delta":274568441},{"NoteNumber":52,"Velocity":71,"Duration":80935,"SoundDuration":80935,"Delta":274649014},{"NoteNumber":55,"Velocity":70,"Duration":162823,"SoundDuration":162823,"Delta":274729949},{"NoteNumber":43,"Velocity":91,"Duration":81892,"SoundDuration":81892,"Delta":274892773},{"NoteNumber":46,"Velocity":80,"Duration":78146,"SoundDuration":78146,"Delta":274974665},{"NoteNumber":46,"Velocity":72,"Duration":82569,"SoundDuration":82569,"Delta":275056932},{"NoteNumber":49,"Velocity":71,"Duration":82796,"SoundDuration":82796,"Delta":275139501},{"NoteNumber":52,"Velocity":70,"Duration":166667,"SoundDuration":166667,"Delta":275222298},{"NoteNumber":40,"Velocity":91,"Duration":83877,"SoundDuration":83877,"Delta":275388966},{"NoteNumber":43,"Velocity":80,"Duration":79977,"SoundDuration":79977,"Delta":275472843},{"NoteNumber":43,"Velocity":72,"Duration":84586,"SoundDuration":84586,"Delta":275557034},{"NoteNumber":46,"Velocity":71,"Duration":84905,"SoundDuration":84905,"Delta":275641621},{"NoteNumber":49,"Velocity":70,"Duration":170215,"SoundDuration":170215,"Delta":275726526},{"NoteNumber":46,"Velocity":71,"Duration":89900,"SoundDuration":89900,"Delta":275896742},{"NoteNumber":43,"Velocity":71,"Duration":89900,"SoundDuration":89900,"Delta":275896742},{"NoteNumber":37,"Velocity":104,"Duration":359603,"SoundDuration":359603,"Delta":275896742},{"NoteNumber":52,"Velocity":63,"Duration":89900,"SoundDuration":89900,"Delta":275986643},{"NoteNumber":46,"Velocity":71,"Duration":89900,"SoundDuration":89900,"Delta":276076544},{"NoteNumber":43,"Velocity":71,"Duration":89900,"SoundDuration":89900,"Delta":276076544},{"NoteNumber":52,"Velocity":63,"Duration":89900,"SoundDuration":89900,"Delta":276166445},{"NoteNumber":46,"Velocity":71,"Duration":89900,"SoundDuration":89900,"Delta":276256346},{"NoteNumber":43,"Velocity":71,"Duration":89900,"SoundDuration":89900,"Delta":276256346},{"NoteNumber":52,"Velocity":63,"Duration":89900,"SoundDuration":89900,"Delta":276346247},{"NoteNumber":46,"Velocity":71,"Duration":87976,"SoundDuration":87976,"Delta":276436148},{"NoteNumber":43,"Velocity":71,"Duration":87976,"SoundDuration":87976,"Delta":276436148},{"NoteNumber":73,"Velocity":106,"Duration":175952,"SoundDuration":175952,"Delta":276436148},{"NoteNumber":52,"Velocity":63,"Duration":87976,"SoundDuration":87976,"Delta":276524124},{"NoteNumber":46,"Velocity":71,"Duration":87976,"SoundDuration":87976,"Delta":276612101},{"NoteNumber":43,"Velocity":71,"Duration":87976,"SoundDuration":87976,"Delta":276612101},{"NoteNumber":73,"Velocity":100,"Duration":175952,"SoundDuration":175952,"Delta":276612101},{"NoteNumber":52,"Velocity":63,"Duration":87976,"SoundDuration":87976,"Delta":276700077},{"NoteNumber":43,"Velocity":71,"Duration":87976,"SoundDuration":87976,"Delta":276788054},{"NoteNumber":46,"Velocity":71,"Duration":87976,"SoundDuration":87976,"Delta":276788054},{"NoteNumber":73,"Velocity":100,"Duration":175952,"SoundDuration":175952,"Delta":276788054},{"NoteNumber":52,"Velocity":63,"Duration":87976,"SoundDuration":87976,"Delta":276876030},{"NoteNumber":46,"Velocity":71,"Duration":87976,"SoundDuration":87976,"Delta":276964007},{"NoteNumber":43,"Velocity":71,"Duration":87976,"SoundDuration":87976,"Delta":276964007},{"NoteNumber":73,"Velocity":105,"Duration":351906,"SoundDuration":351906,"Delta":276964007},{"NoteNumber":52,"Velocity":63,"Duration":87976,"SoundDuration":87976,"Delta":277051983},{"NoteNumber":43,"Velocity":71,"Duration":87976,"SoundDuration":87976,"Delta":277139960},{"NoteNumber":46,"Velocity":71,"Duration":87976,"SoundDuration":87976,"Delta":277139960},{"NoteNumber":52,"Velocity":63,"Duration":87976,"SoundDuration":87976,"Delta":277227936},{"NoteNumber":46,"Velocity":71,"Duration":90182,"SoundDuration":90182,"Delta":277315913},{"NoteNumber":43,"Velocity":71,"Duration":90182,"SoundDuration":90182,"Delta":277315913},{"NoteNumber":52,"Velocity":63,"Duration":90182,"SoundDuration":90182,"Delta":277406095},{"NoteNumber":46,"Velocity":71,"Duration":87976,"SoundDuration":87976,"Delta":277496277},{"NoteNumber":43,"Velocity":71,"Duration":87976,"SoundDuration":87976,"Delta":277496277},{"NoteNumber":37,"Velocity":98,"Duration":175952,"SoundDuration":175952,"Delta":277496277},{"NoteNumber":52,"Velocity":63,"Duration":87976,"SoundDuration":87976,"Delta":277584254},{"NoteNumber":46,"Velocity":71,"Duration":87976,"SoundDuration":87976,"Delta":277672230},{"NoteNumber":43,"Velocity":71,"Duration":87976,"SoundDuration":87976,"Delta":277672230},{"NoteNumber":37,"Velocity":93,"Duration":175952,"SoundDuration":175952,"Delta":277672230},{"NoteNumber":52,"Velocity":63,"Duration":87976,"SoundDuration":87976,"Delta":277760207},{"NoteNumber":43,"Velocity":71,"Duration":87976,"SoundDuration":87976,"Delta":277848183},{"NoteNumber":46,"Velocity":71,"Duration":87976,"SoundDuration":87976,"Delta":277848183},{"NoteNumber":37,"Velocity":93,"Duration":175952,"SoundDuration":175952,"Delta":277848183},{"NoteNumber":52,"Velocity":63,"Duration":87976,"SoundDuration":87976,"Delta":277936160},{"NoteNumber":43,"Velocity":71,"Duration":89900,"SoundDuration":89900,"Delta":278024136},{"NoteNumber":46,"Velocity":71,"Duration":89900,"SoundDuration":89900,"Delta":278024136},{"NoteNumber":37,"Velocity":100,"Duration":359603,"SoundDuration":359603,"Delta":278024136},{"NoteNumber":52,"Velocity":63,"Duration":89900,"SoundDuration":89900,"Delta":278114037},{"NoteNumber":46,"Velocity":71,"Duration":89900,"SoundDuration":89900,"Delta":278203938},{"NoteNumber":43,"Velocity":71,"Duration":89900,"SoundDuration":89900,"Delta":278203938},{"NoteNumber":52,"Velocity":63,"Duration":89900,"SoundDuration":89900,"Delta":278293839},{"NoteNumber":43,"Velocity":71,"Duration":89900,"SoundDuration":89900,"Delta":278383740},{"NoteNumber":46,"Velocity":71,"Duration":89900,"SoundDuration":89900,"Delta":278383740},{"NoteNumber":52,"Velocity":63,"Duration":89900,"SoundDuration":89900,"Delta":278473641},{"NoteNumber":43,"Velocity":71,"Duration":87976,"SoundDuration":87976,"Delta":278563542},{"NoteNumber":46,"Velocity":71,"Duration":87976,"SoundDuration":87976,"Delta":278563542},{"NoteNumber":73,"Velocity":106,"Duration":175952,"SoundDuration":175952,"Delta":278563542},{"NoteNumber":52,"Velocity":63,"Duration":87976,"SoundDuration":87976,"Delta":278651519},{"NoteNumber":46,"Velocity":71,"Duration":87976,"SoundDuration":87976,"Delta":278739495},{"NoteNumber":43,"Velocity":71,"Duration":87976,"SoundDuration":87976,"Delta":278739495},{"NoteNumber":73,"Velocity":100,"Duration":175952,"SoundDuration":175952,"Delta":278739495},{"NoteNumber":52,"Velocity":63,"Duration":87976,"SoundDuration":87976,"Delta":278827472},{"NoteNumber":43,"Velocity":71,"Duration":87976,"SoundDuration":87976,"Delta":278915448},{"NoteNumber":46,"Velocity":71,"Duration":87976,"SoundDuration":87976,"Delta":278915448},{"NoteNumber":73,"Velocity":100,"Duration":175952,"SoundDuration":175952,"Delta":278915448},{"NoteNumber":52,"Velocity":63,"Duration":87976,"SoundDuration":87976,"Delta":279003425},{"NoteNumber":43,"Velocity":71,"Duration":87976,"SoundDuration":87976,"Delta":279091401},{"NoteNumber":46,"Velocity":71,"Duration":87976,"SoundDuration":87976,"Delta":279091401},{"NoteNumber":73,"Velocity":105,"Duration":351906,"SoundDuration":351906,"Delta":279091401},{"NoteNumber":52,"Velocity":63,"Duration":87976,"SoundDuration":87976,"Delta":279179378},{"NoteNumber":43,"Velocity":71,"Duration":87976,"SoundDuration":87976,"Delta":279267354},{"NoteNumber":46,"Velocity":71,"Duration":87976,"SoundDuration":87976,"Delta":279267354},{"NoteNumber":52,"Velocity":63,"Duration":87976,"SoundDuration":87976,"Delta":279355331},{"NoteNumber":43,"Velocity":71,"Duration":90182,"SoundDuration":90182,"Delta":279443307},{"NoteNumber":46,"Velocity":71,"Duration":90182,"SoundDuration":90182,"Delta":279443307},{"NoteNumber":52,"Velocity":63,"Duration":90182,"SoundDuration":90182,"Delta":279533489},{"NoteNumber":46,"Velocity":71,"Duration":87976,"SoundDuration":87976,"Delta":279623672},{"NoteNumber":43,"Velocity":71,"Duration":87976,"SoundDuration":87976,"Delta":279623672},{"NoteNumber":37,"Velocity":98,"Duration":175952,"SoundDuration":175952,"Delta":279623672},{"NoteNumber":52,"Velocity":63,"Duration":87976,"SoundDuration":87976,"Delta":279711648},{"NoteNumber":43,"Velocity":71,"Duration":87976,"SoundDuration":87976,"Delta":279799625},{"NoteNumber":46,"Velocity":71,"Duration":87976,"SoundDuration":87976,"Delta":279799625},{"NoteNumber":37,"Velocity":93,"Duration":175952,"SoundDuration":175952,"Delta":279799625},{"NoteNumber":52,"Velocity":63,"Duration":87976,"SoundDuration":87976,"Delta":279887601},{"NoteNumber":46,"Velocity":71,"Duration":87976,"SoundDuration":87976,"Delta":279975578},{"NoteNumber":43,"Velocity":71,"Duration":87976,"SoundDuration":87976,"Delta":279975578},{"NoteNumber":37,"Velocity":93,"Duration":175952,"SoundDuration":175952,"Delta":279975578},{"NoteNumber":52,"Velocity":63,"Duration":87976,"SoundDuration":87976,"Delta":280063554},{"NoteNumber":46,"Velocity":71,"Duration":89900,"SoundDuration":89900,"Delta":280151531},{"NoteNumber":43,"Velocity":71,"Duration":89900,"SoundDuration":89900,"Delta":280151531},{"NoteNumber":36,"Velocity":100,"Duration":359603,"SoundDuration":359603,"Delta":280151531},{"NoteNumber":52,"Velocity":63,"Duration":89900,"SoundDuration":89900,"Delta":280241432},{"NoteNumber":43,"Velocity":71,"Duration":89900,"SoundDuration":89900,"Delta":280331333},{"NoteNumber":46,"Velocity":71,"Duration":89900,"SoundDuration":89900,"Delta":280331333},{"NoteNumber":52,"Velocity":63,"Duration":89900,"SoundDuration":89900,"Delta":280421234},{"NoteNumber":43,"Velocity":71,"Duration":89900,"SoundDuration":89900,"Delta":280511135},{"NoteNumber":46,"Velocity":71,"Duration":89900,"SoundDuration":89900,"Delta":280511135},{"NoteNumber":52,"Velocity":63,"Duration":89900,"SoundDuration":89900,"Delta":280601036},{"NoteNumber":46,"Velocity":71,"Duration":87976,"SoundDuration":87976,"Delta":280690937},{"NoteNumber":43,"Velocity":71,"Duration":87976,"SoundDuration":87976,"Delta":280690937},{"NoteNumber":73,"Velocity":106,"Duration":175952,"SoundDuration":175952,"Delta":280690937},{"NoteNumber":52,"Velocity":63,"Duration":87976,"SoundDuration":87976,"Delta":280778913},{"NoteNumber":43,"Velocity":71,"Duration":87976,"SoundDuration":87976,"Delta":280866890},{"NoteNumber":46,"Velocity":71,"Duration":87976,"SoundDuration":87976,"Delta":280866890},{"NoteNumber":73,"Velocity":100,"Duration":175952,"SoundDuration":175952,"Delta":280866890},{"NoteNumber":52,"Velocity":63,"Duration":87976,"SoundDuration":87976,"Delta":280954866},{"NoteNumber":46,"Velocity":71,"Duration":87976,"SoundDuration":87976,"Delta":281042843},{"NoteNumber":43,"Velocity":71,"Duration":87976,"SoundDuration":87976,"Delta":281042843},{"NoteNumber":73,"Velocity":100,"Duration":175952,"SoundDuration":175952,"Delta":281042843},{"NoteNumber":52,"Velocity":63,"Duration":87976,"SoundDuration":87976,"Delta":281130819},{"NoteNumber":46,"Velocity":71,"Duration":87976,"SoundDuration":87976,"Delta":281218796},{"NoteNumber":43,"Velocity":71,"Duration":87976,"SoundDuration":87976,"Delta":281218796},{"NoteNumber":72,"Velocity":105,"Duration":351906,"SoundDuration":351906,"Delta":281218796},{"NoteNumber":52,"Velocity":63,"Duration":87976,"SoundDuration":87976,"Delta":281306772},{"NoteNumber":43,"Velocity":71,"Duration":87976,"SoundDuration":87976,"Delta":281394749},{"NoteNumber":46,"Velocity":71,"Duration":87976,"SoundDuration":87976,"Delta":281394749},{"NoteNumber":52,"Velocity":63,"Duration":87976,"SoundDuration":87976,"Delta":281482725},{"NoteNumber":43,"Velocity":71,"Duration":90182,"SoundDuration":90182,"Delta":281570702},{"NoteNumber":46,"Velocity":71,"Duration":90182,"SoundDuration":90182,"Delta":281570702},{"NoteNumber":52,"Velocity":63,"Duration":90182,"SoundDuration":90182,"Delta":281660884},{"NoteNumber":46,"Velocity":71,"Duration":87976,"SoundDuration":87976,"Delta":281751066},{"NoteNumber":43,"Velocity":71,"Duration":87976,"SoundDuration":87976,"Delta":281751066},{"NoteNumber":37,"Velocity":98,"Duration":175952,"SoundDuration":175952,"Delta":281751066},{"NoteNumber":52,"Velocity":63,"Duration":87976,"SoundDuration":87976,"Delta":281839043},{"NoteNumber":43,"Velocity":71,"Duration":87976,"SoundDuration":87976,"Delta":281927019},{"NoteNumber":46,"Velocity":71,"Duration":87976,"SoundDuration":87976,"Delta":281927019},{"NoteNumber":37,"Velocity":93,"Duration":175952,"SoundDuration":175952,"Delta":281927019},{"NoteNumber":52,"Velocity":63,"Duration":87976,"SoundDuration":87976,"Delta":282014996},{"NoteNumber":43,"Velocity":71,"Duration":87976,"SoundDuration":87976,"Delta":282102972},{"NoteNumber":46,"Velocity":71,"Duration":87976,"SoundDuration":87976,"Delta":282102972},{"NoteNumber":37,"Velocity":93,"Duration":175952,"SoundDuration":175952,"Delta":282102972},{"NoteNumber":52,"Velocity":63,"Duration":87976,"SoundDuration":87976,"Delta":282190949},{"NoteNumber":43,"Velocity":71,"Duration":89900,"SoundDuration":89900,"Delta":282278925},{"NoteNumber":46,"Velocity":71,"Duration":89900,"SoundDuration":89900,"Delta":282278925},{"NoteNumber":36,"Velocity":100,"Duration":359603,"SoundDuration":359603,"Delta":282278925},{"NoteNumber":52,"Velocity":63,"Duration":89900,"SoundDuration":89900,"Delta":282368826},{"NoteNumber":43,"Velocity":71,"Duration":89900,"SoundDuration":89900,"Delta":282458727},{"NoteNumber":46,"Velocity":71,"Duration":89900,"SoundDuration":89900,"Delta":282458727},{"NoteNumber":52,"Velocity":63,"Duration":89900,"SoundDuration":89900,"Delta":282548628},{"NoteNumber":43,"Velocity":71,"Duration":89900,"SoundDuration":89900,"Delta":282638529},{"NoteNumber":46,"Velocity":71,"Duration":89900,"SoundDuration":89900,"Delta":282638529},{"NoteNumber":52,"Velocity":63,"Duration":89900,"SoundDuration":89900,"Delta":282728430},{"NoteNumber":46,"Velocity":71,"Duration":87976,"SoundDuration":87976,"Delta":282818331},{"NoteNumber":43,"Velocity":71,"Duration":87976,"SoundDuration":87976,"Delta":282818331},{"NoteNumber":73,"Velocity":106,"Duration":175952,"SoundDuration":175952,"Delta":282818331},{"NoteNumber":52,"Velocity":63,"Duration":87976,"SoundDuration":87976,"Delta":282906308},{"NoteNumber":43,"Velocity":71,"Duration":87976,"SoundDuration":87976,"Delta":282994284},{"NoteNumber":46,"Velocity":71,"Duration":87976,"SoundDuration":87976,"Delta":282994284},{"NoteNumber":73,"Velocity":100,"Duration":175952,"SoundDuration":175952,"Delta":282994284},{"NoteNumber":52,"Velocity":63,"Duration":87976,"SoundDuration":87976,"Delta":283082261},{"NoteNumber":46,"Velocity":71,"Duration":87976,"SoundDuration":87976,"Delta":283170237},{"NoteNumber":43,"Velocity":71,"Duration":87976,"SoundDuration":87976,"Delta":283170237},{"NoteNumber":73,"Velocity":100,"Duration":175952,"SoundDuration":175952,"Delta":283170237},{"NoteNumber":52,"Velocity":63,"Duration":87976,"SoundDuration":87976,"Delta":283258214},{"NoteNumber":46,"Velocity":71,"Duration":87976,"SoundDuration":87976,"Delta":283346190},{"NoteNumber":43,"Velocity":71,"Duration":87976,"SoundDuration":87976,"Delta":283346190},{"NoteNumber":72,"Velocity":105,"Duration":351906,"SoundDuration":351906,"Delta":283346190},{"NoteNumber":52,"Velocity":63,"Duration":87976,"SoundDuration":87976,"Delta":283434167},{"NoteNumber":43,"Velocity":71,"Duration":87976,"SoundDuration":87976,"Delta":283522143},{"NoteNumber":46,"Velocity":71,"Duration":87976,"SoundDuration":87976,"Delta":283522143},{"NoteNumber":52,"Velocity":63,"Duration":87976,"SoundDuration":87976,"Delta":283610120},{"NoteNumber":43,"Velocity":71,"Duration":90182,"SoundDuration":90182,"Delta":283698096},{"NoteNumber":46,"Velocity":71,"Duration":90182,"SoundDuration":90182,"Delta":283698096},{"NoteNumber":52,"Velocity":63,"Duration":90182,"SoundDuration":90182,"Delta":283788278},{"NoteNumber":43,"Velocity":71,"Duration":96568,"SoundDuration":96568,"Delta":283878461},{"NoteNumber":46,"Velocity":71,"Duration":96568,"SoundDuration":96568,"Delta":283878461},{"NoteNumber":37,"Velocity":110,"Duration":193136,"SoundDuration":193136,"Delta":283878461},{"NoteNumber":52,"Velocity":63,"Duration":96568,"SoundDuration":96568,"Delta":283975029},{"NoteNumber":46,"Velocity":71,"Duration":96568,"SoundDuration":96568,"Delta":284071598},{"NoteNumber":43,"Velocity":71,"Duration":96568,"SoundDuration":96568,"Delta":284071598},{"NoteNumber":37,"Velocity":105,"Duration":193137,"SoundDuration":193137,"Delta":284071598},{"NoteNumber":52,"Velocity":63,"Duration":96568,"SoundDuration":96568,"Delta":284168166},{"NoteNumber":43,"Velocity":71,"Duration":101812,"SoundDuration":101812,"Delta":284264735},{"NoteNumber":46,"Velocity":71,"Duration":101812,"SoundDuration":101812,"Delta":284264735},{"NoteNumber":37,"Velocity":105,"Duration":203624,"SoundDuration":203624,"Delta":284264735},{"NoteNumber":52,"Velocity":63,"Duration":101812,"SoundDuration":101812,"Delta":284366547},{"NoteNumber":43,"Velocity":65,"Duration":366971,"SoundDuration":366971,"Delta":284468359},{"NoteNumber":52,"Velocity":65,"Duration":366971,"SoundDuration":366971,"Delta":284468359},{"NoteNumber":46,"Velocity":65,"Duration":366971,"SoundDuration":366971,"Delta":284468359},{"NoteNumber":36,"Velocity":59,"Duration":168195,"SoundDuration":168195,"Delta":284468359},{"NoteNumber":36,"Velocity":30,"Duration":168195,"SoundDuration":168195,"Delta":284651845},{"NoteNumber":36,"Velocity":30,"Duration":168195,"SoundDuration":168195,"Delta":284835331},{"NoteNumber":36,"Velocity":32,"Duration":168195,"SoundDuration":168195,"Delta":285018817},{"NoteNumber":36,"Velocity":27,"Duration":168195,"SoundDuration":168195,"Delta":285202303},{"NoteNumber":36,"Velocity":27,"Duration":168195,"SoundDuration":168195,"Delta":285385789},{"NoteNumber":36,"Velocity":30,"Duration":168195,"SoundDuration":168195,"Delta":285569275},{"NoteNumber":36,"Velocity":24,"Duration":168195,"SoundDuration":168195,"Delta":285752761},{"NoteNumber":36,"Velocity":24,"Duration":168195,"SoundDuration":168195,"Delta":285936247},{"NoteNumber":36,"Velocity":28,"Duration":168195,"SoundDuration":168195,"Delta":286119733},{"NoteNumber":36,"Velocity":22,"Duration":168195,"SoundDuration":168195,"Delta":286303219},{"NoteNumber":36,"Velocity":22,"Duration":168195,"SoundDuration":168195,"Delta":286486705},{"NoteNumber":36,"Velocity":24,"Duration":168195,"SoundDuration":168195,"Delta":286670191},{"NoteNumber":36,"Velocity":22,"Duration":168195,"SoundDuration":168195,"Delta":286853677},{"NoteNumber":36,"Velocity":22,"Duration":168195,"SoundDuration":168195,"Delta":287037163},{"NoteNumber":36,"Velocity":24,"Duration":168195,"SoundDuration":168195,"Delta":287220649},{"NoteNumber":36,"Velocity":20,"Duration":168195,"SoundDuration":168195,"Delta":287404135},{"NoteNumber":36,"Velocity":20,"Duration":168195,"SoundDuration":168195,"Delta":287587621},{"NoteNumber":36,"Velocity":23,"Duration":168195,"SoundDuration":168195,"Delta":287771107},{"NoteNumber":36,"Velocity":18,"Duration":168195,"SoundDuration":168195,"Delta":287954593},{"NoteNumber":36,"Velocity":23,"Duration":168195,"SoundDuration":168195,"Delta":288138079},{"NoteNumber":48,"Velocity":27,"Duration":458715,"SoundDuration":458715,"Delta":288321565},{"NoteNumber":60,"Velocity":35,"Duration":458715,"SoundDuration":458715,"Delta":288321565},{"NoteNumber":36,"Velocity":23,"Duration":168195,"SoundDuration":168195,"Delta":288321565},{"NoteNumber":36,"Velocity":20,"Duration":168195,"SoundDuration":168195,"Delta":288505051},{"NoteNumber":36,"Velocity":22,"Duration":168195,"SoundDuration":168195,"Delta":288688537},{"NoteNumber":56,"Velocity":31,"Duration":91743,"SoundDuration":91743,"Delta":288780280},{"NoteNumber":44,"Velocity":25,"Duration":91743,"SoundDuration":91743,"Delta":288780280},{"NoteNumber":41,"Velocity":22,"Duration":1672744,"SoundDuration":1672744,"Delta":288872023},{"NoteNumber":53,"Velocity":28,"Duration":1672744,"SoundDuration":1672744,"Delta":288872023},{"NoteNumber":36,"Velocity":23,"Duration":168195,"SoundDuration":168195,"Delta":288872023},{"NoteNumber":36,"Velocity":20,"Duration":168195,"SoundDuration":168195,"Delta":289055509},{"NoteNumber":36,"Velocity":22,"Duration":168195,"SoundDuration":168195,"Delta":289238995},{"NoteNumber":36,"Velocity":23,"Duration":168195,"SoundDuration":168195,"Delta":289422481},{"NoteNumber":36,"Velocity":20,"Duration":168195,"SoundDuration":168195,"Delta":289605967},{"NoteNumber":36,"Velocity":22,"Duration":168195,"SoundDuration":168195,"Delta":289789453},{"NoteNumber":36,"Velocity":23,"Duration":174725,"SoundDuration":174725,"Delta":289972939},{"NoteNumber":36,"Velocity":20,"Duration":174725,"SoundDuration":174725,"Delta":290163549},{"NoteNumber":36,"Velocity":22,"Duration":174725,"SoundDuration":174725,"Delta":290354158},{"NoteNumber":56,"Velocity":35,"Duration":480520,"SoundDuration":480520,"Delta":290544768},{"NoteNumber":44,"Velocity":27,"Duration":480520,"SoundDuration":480520,"Delta":290544768},{"NoteNumber":36,"Velocity":23,"Duration":174725,"SoundDuration":174725,"Delta":290544768},{"NoteNumber":36,"Velocity":20,"Duration":177167,"SoundDuration":177167,"Delta":290735377},{"NoteNumber":36,"Velocity":22,"Duration":185560,"SoundDuration":185560,"Delta":290928651},{"NoteNumber":48,"Velocity":24,"Duration":106708,"SoundDuration":106708,"Delta":291025288},{"NoteNumber":60,"Velocity":30,"Duration":106708,"SoundDuration":106708,"Delta":291025288},{"NoteNumber":65,"Velocity":35,"Duration":524781,"SoundDuration":524781,"Delta":291131997},{"NoteNumber":53,"Velocity":27,"Duration":524781,"SoundDuration":524781,"Delta":291131997},{"NoteNumber":36,"Velocity":23,"Duration":160349,"SoundDuration":160349,"Delta":291131997},{"NoteNumber":36,"Velocity":20,"Duration":160349,"SoundDuration":160349,"Delta":291306924},{"NoteNumber":36,"Velocity":22,"Duration":160349,"SoundDuration":160349,"Delta":291481851},{"NoteNumber":68,"Velocity":36,"Duration":464976,"SoundDuration":464976,"Delta":291656778},{"NoteNumber":56,"Velocity":28,"Duration":464976,"SoundDuration":464976,"Delta":291656778},{"NoteNumber":36,"Velocity":23,"Duration":168898,"SoundDuration":168898,"Delta":291656778},{"NoteNumber":36,"Velocity":20,"Duration":171553,"SoundDuration":171553,"Delta":291841030},{"NoteNumber":36,"Velocity":22,"Duration":177636,"SoundDuration":177636,"Delta":292028179},{"NoteNumber":72,"Velocity":31,"Duration":100874,"SoundDuration":100874,"Delta":292121754},{"NoteNumber":60,"Velocity":25,"Duration":100874,"SoundDuration":100874,"Delta":292121754},{"NoteNumber":77,"Velocity":40,"Duration":559090,"SoundDuration":559090,"Delta":292222628},{"NoteNumber":65,"Velocity":31,"Duration":559090,"SoundDuration":559090,"Delta":292222628},{"NoteNumber":36,"Velocity":23,"Duration":168898,"SoundDuration":168898,"Delta":292222628},{"NoteNumber":36,"Velocity":20,"Duration":168898,"SoundDuration":168898,"Delta":292406880},{"NoteNumber":36,"Velocity":22,"Duration":178420,"SoundDuration":178420,"Delta":292591133},{"NoteNumber":65,"Velocity":33,"Duration":552757,"SoundDuration":552757,"Delta":292785774},{"NoteNumber":53,"Velocity":26,"Duration":552757,"SoundDuration":552757,"Delta":292785774},{"NoteNumber":36,"Velocity":23,"Duration":168898,"SoundDuration":168898,"Delta":292785774},{"NoteNumber":36,"Velocity":20,"Duration":168898,"SoundDuration":168898,"Delta":292970026},{"NoteNumber":36,"Velocity":22,"Duration":168898,"SoundDuration":168898,"Delta":293154279},{"NoteNumber":67,"Velocity":26,"Duration":1118683,"SoundDuration":1118683,"Delta":293338531},{"NoteNumber":64,"Velocity":26,"Duration":1118683,"SoundDuration":1118683,"Delta":293338531},{"NoteNumber":72,"Velocity":35,"Duration":921262,"SoundDuration":921262,"Delta":293338531},{"NoteNumber":36,"Velocity":23,"Duration":168898,"SoundDuration":168898,"Delta":293338531},{"NoteNumber":36,"Velocity":20,"Duration":168898,"SoundDuration":168898,"Delta":293522784},{"NoteNumber":36,"Velocity":22,"Duration":168898,"SoundDuration":168898,"Delta":293707036},{"NoteNumber":36,"Velocity":23,"Duration":168898,"SoundDuration":168898,"Delta":293891289},{"NoteNumber":36,"Velocity":20,"Duration":168898,"SoundDuration":168898,"Delta":294075541},{"NoteNumber":74,"Velocity":33,"Duration":197420,"SoundDuration":197420,"Delta":294259794},{"NoteNumber":36,"Velocity":22,"Duration":180968,"SoundDuration":180968,"Delta":294259794},{"NoteNumber":65,"Velocity":26,"Duration":1085504,"SoundDuration":1085504,"Delta":294457214},{"NoteNumber":71,"Velocity":26,"Duration":1085504,"SoundDuration":1085504,"Delta":294457214},{"NoteNumber":74,"Velocity":33,"Duration":55865,"SoundDuration":55865,"Delta":294457214},{"NoteNumber":36,"Velocity":23,"Duration":153242,"SoundDuration":153242,"Delta":294457214},{"NoteNumber":76,"Velocity":29,"Duration":55710,"SoundDuration":55710,"Delta":294513080},{"NoteNumber":74,"Velocity":33,"Duration":55555,"SoundDuration":55555,"Delta":294568791},{"NoteNumber":76,"Velocity":29,"Duration":55325,"SoundDuration":55325,"Delta":294624346},{"NoteNumber":36,"Velocity":20,"Duration":151782,"SoundDuration":151782,"Delta":294624346},{"NoteNumber":74,"Velocity":33,"Duration":55172,"SoundDuration":55172,"Delta":294679671},{"NoteNumber":76,"Velocity":30,"Duration":55020,"SoundDuration":55020,"Delta":294734844},{"NoteNumber":74,"Velocity":33,"Duration":54794,"SoundDuration":54794,"Delta":294789865},{"NoteNumber":36,"Velocity":22,"Duration":151175,"SoundDuration":151175,"Delta":294789865},{"NoteNumber":76,"Velocity":29,"Duration":55020,"SoundDuration":55020,"Delta":294844659},{"NoteNumber":74,"Velocity":33,"Duration":55172,"SoundDuration":55172,"Delta":294899680},{"NoteNumber":76,"Velocity":30,"Duration":55478,"SoundDuration":55478,"Delta":294954853},{"NoteNumber":36,"Velocity":23,"Duration":153050,"SoundDuration":153050,"Delta":294954853},{"NoteNumber":74,"Velocity":28,"Duration":55632,"SoundDuration":55632,"Delta":295010331},{"NoteNumber":76,"Velocity":33,"Duration":57714,"SoundDuration":57714,"Delta":295065964},{"NoteNumber":74,"Velocity":28,"Duration":94972,"SoundDuration":94972,"Delta":295123678},{"NoteNumber":36,"Velocity":20,"Duration":182214,"SoundDuration":182214,"Delta":295123678},{"NoteNumber":72,"Velocity":30,"Duration":104690,"SoundDuration":104690,"Delta":295218651},{"NoteNumber":76,"Velocity":35,"Duration":104690,"SoundDuration":104690,"Delta":295323341},{"NoteNumber":36,"Velocity":22,"Duration":200263,"SoundDuration":200263,"Delta":295323341},{"NoteNumber":74,"Velocity":31,"Duration":114687,"SoundDuration":114687,"Delta":295428031},{"NoteNumber":72,"Velocity":35,"Duration":373831,"SoundDuration":373831,"Delta":295542719},{"NoteNumber":64,"Velocity":19,"Duration":373831,"SoundDuration":373831,"Delta":295542719},{"NoteNumber":67,"Velocity":22,"Duration":373831,"SoundDuration":373831,"Delta":295542719},{"NoteNumber":36,"Velocity":23,"Duration":171339,"SoundDuration":171339,"Delta":295542719},{"NoteNumber":36,"Velocity":20,"Duration":171339,"SoundDuration":171339,"Delta":295729635},{"NoteNumber":36,"Velocity":22,"Duration":171339,"SoundDuration":171339,"Delta":295916551},{"NoteNumber":36,"Velocity":23,"Duration":171339,"SoundDuration":171339,"Delta":296103467},{"NoteNumber":36,"Velocity":20,"Duration":171339,"SoundDuration":171339,"Delta":296290383},{"NoteNumber":36,"Velocity":22,"Duration":171339,"SoundDuration":171339,"Delta":296477299},{"NoteNumber":36,"Velocity":23,"Duration":193894,"SoundDuration":193894,"Delta":296664215},{"NoteNumber":37,"Velocity":20,"Duration":178189,"SoundDuration":178189,"Delta":296875736},{"NoteNumber":37,"Velocity":22,"Duration":178189,"SoundDuration":178189,"Delta":297070124},{"NoteNumber":61,"Velocity":35,"Duration":494931,"SoundDuration":494931,"Delta":297264513},{"NoteNumber":49,"Velocity":27,"Duration":494931,"SoundDuration":494931,"Delta":297264513},{"NoteNumber":37,"Velocity":23,"Duration":174725,"SoundDuration":174725,"Delta":297264513},{"NoteNumber":37,"Velocity":20,"Duration":185974,"SoundDuration":185974,"Delta":297455122},{"NoteNumber":37,"Velocity":22,"Duration":214043,"SoundDuration":214043,"Delta":297658003},{"NoteNumber":58,"Velocity":31,"Duration":135123,"SoundDuration":135123,"Delta":297759444},{"NoteNumber":46,"Velocity":25,"Duration":135123,"SoundDuration":135123,"Delta":297759444},{"NoteNumber":54,"Velocity":28,"Duration":1677343,"SoundDuration":1677343,"Delta":297894567},{"NoteNumber":42,"Velocity":22,"Duration":1677343,"SoundDuration":1677343,"Delta":297894567},{"NoteNumber":37,"Velocity":23,"Duration":168898,"SoundDuration":168898,"Delta":297894567},{"NoteNumber":37,"Velocity":20,"Duration":168898,"SoundDuration":168898,"Delta":298078819},{"NoteNumber":37,"Velocity":22,"Duration":168898,"SoundDuration":168898,"Delta":298263072},{"NoteNumber":37,"Velocity":23,"Duration":168898,"SoundDuration":168898,"Delta":298447324},{"NoteNumber":37,"Velocity":20,"Duration":168898,"SoundDuration":168898,"Delta":298631577},{"NoteNumber":37,"Velocity":22,"Duration":168898,"SoundDuration":168898,"Delta":298815829},{"NoteNumber":37,"Velocity":23,"Duration":174725,"SoundDuration":174725,"Delta":299000082},{"NoteNumber":37,"Velocity":20,"Duration":174725,"SoundDuration":174725,"Delta":299190691},{"NoteNumber":37,"Velocity":22,"Duration":174725,"SoundDuration":174725,"Delta":299381301},{"NoteNumber":46,"Velocity":27,"Duration":485749,"SoundDuration":485749,"Delta":299571910},{"NoteNumber":58,"Velocity":35,"Duration":485749,"SoundDuration":485749,"Delta":299571910},{"NoteNumber":37,"Velocity":23,"Duration":174725,"SoundDuration":174725,"Delta":299571910},{"NoteNumber":37,"Velocity":20,"Duration":180363,"SoundDuration":180363,"Delta":299762520},{"NoteNumber":37,"Velocity":22,"Duration":187303,"SoundDuration":187303,"Delta":299959280},{"NoteNumber":61,"Velocity":30,"Duration":106708,"SoundDuration":106708,"Delta":300057660},{"NoteNumber":49,"Velocity":24,"Duration":106708,"SoundDuration":106708,"Delta":300057660},{"NoteNumber":54,"Velocity":27,"Duration":524781,"SoundDuration":524781,"Delta":300164368},{"NoteNumber":66,"Velocity":35,"Duration":524781,"SoundDuration":524781,"Delta":300164368},{"NoteNumber":37,"Velocity":23,"Duration":160349,"SoundDuration":160349,"Delta":300164368},{"NoteNumber":37,"Velocity":20,"Duration":160349,"SoundDuration":160349,"Delta":300339295},{"NoteNumber":37,"Velocity":22,"Duration":160349,"SoundDuration":160349,"Delta":300514222},{"NoteNumber":70,"Velocity":36,"Duration":462562,"SoundDuration":462562,"Delta":300689149},{"NoteNumber":58,"Velocity":28,"Duration":462562,"SoundDuration":462562,"Delta":300689149},{"NoteNumber":37,"Velocity":23,"Duration":168898,"SoundDuration":168898,"Delta":300689149},{"NoteNumber":37,"Velocity":20,"Duration":170078,"SoundDuration":170078,"Delta":300873402},{"NoteNumber":37,"Velocity":22,"Duration":176831,"SoundDuration":176831,"Delta":301058942},{"NoteNumber":61,"Velocity":25,"Duration":100874,"SoundDuration":100874,"Delta":301151712},{"NoteNumber":73,"Velocity":31,"Duration":100874,"SoundDuration":100874,"Delta":301151712},{"NoteNumber":78,"Velocity":40,"Duration":563146,"SoundDuration":563146,"Delta":301252586},{"NoteNumber":66,"Velocity":31,"Duration":563146,"SoundDuration":563146,"Delta":301252586},{"NoteNumber":37,"Velocity":23,"Duration":168898,"SoundDuration":168898,"Delta":301252586},{"NoteNumber":37,"Velocity":20,"Duration":168898,"SoundDuration":168898,"Delta":301436839},{"NoteNumber":37,"Velocity":22,"Duration":178420,"SoundDuration":178420,"Delta":301621091},{"NoteNumber":54,"Velocity":26,"Duration":552757,"SoundDuration":552757,"Delta":301815732},{"NoteNumber":66,"Velocity":33,"Duration":552757,"SoundDuration":552757,"Delta":301815732},{"NoteNumber":37,"Velocity":23,"Duration":168898,"SoundDuration":168898,"Delta":301815732},{"NoteNumber":37,"Velocity":20,"Duration":168898,"SoundDuration":168898,"Delta":301999985},{"NoteNumber":37,"Velocity":22,"Duration":168898,"SoundDuration":168898,"Delta":302184237},{"NoteNumber":65,"Velocity":26,"Duration":1118683,"SoundDuration":1118683,"Delta":302368490},{"NoteNumber":68,"Velocity":26,"Duration":1118683,"SoundDuration":1118683,"Delta":302368490},{"NoteNumber":73,"Velocity":35,"Duration":921262,"SoundDuration":921262,"Delta":302368490},{"NoteNumber":37,"Velocity":23,"Duration":168898,"SoundDuration":168898,"Delta":302368490},{"NoteNumber":37,"Velocity":20,"Duration":168898,"SoundDuration":168898,"Delta":302552742},{"NoteNumber":37,"Velocity":22,"Duration":168898,"SoundDuration":168898,"Delta":302736995},{"NoteNumber":37,"Velocity":23,"Duration":168898,"SoundDuration":168898,"Delta":302921247},{"NoteNumber":37,"Velocity":20,"Duration":168898,"SoundDuration":168898,"Delta":303105500},{"NoteNumber":75,"Velocity":33,"Duration":197420,"SoundDuration":197420,"Delta":303289752},{"NoteNumber":37,"Velocity":22,"Duration":180968,"SoundDuration":180968,"Delta":303289752},{"NoteNumber":75,"Velocity":28,"Duration":56179,"SoundDuration":56179,"Delta":303487173},{"NoteNumber":66,"Velocity":26,"Duration":1088285,"SoundDuration":1088285,"Delta":303487173},{"NoteNumber":72,"Velocity":26,"Duration":1088285,"SoundDuration":1088285,"Delta":303487173},{"NoteNumber":37,"Velocity":23,"Duration":154062,"SoundDuration":154062,"Delta":303487173},{"NoteNumber":77,"Velocity":25,"Duration":56022,"SoundDuration":56022,"Delta":303543353},{"NoteNumber":75,"Velocity":28,"Duration":55788,"SoundDuration":55788,"Delta":303599375},{"NoteNumber":77,"Velocity":25,"Duration":55632,"SoundDuration":55632,"Delta":303655163},{"NoteNumber":37,"Velocity":20,"Duration":152548,"SoundDuration":152548,"Delta":303655163},{"NoteNumber":75,"Velocity":28,"Duration":55478,"SoundDuration":55478,"Delta":303710796},{"NoteNumber":77,"Velocity":25,"Duration":55248,"SoundDuration":55248,"Delta":303766275},{"NoteNumber":75,"Velocity":29,"Duration":55020,"SoundDuration":55020,"Delta":303821523},{"NoteNumber":37,"Velocity":22,"Duration":151516,"SoundDuration":151516,"Delta":303821523},{"NoteNumber":77,"Velocity":25,"Duration":55020,"SoundDuration":55020,"Delta":303876544},{"NoteNumber":75,"Velocity":29,"Duration":55325,"SoundDuration":55325,"Delta":303931565},{"NoteNumber":77,"Velocity":26,"Duration":55632,"SoundDuration":55632,"Delta":303986890},{"NoteNumber":37,"Velocity":23,"Duration":153751,"SoundDuration":153751,"Delta":303986890},{"NoteNumber":75,"Velocity":29,"Duration":55944,"SoundDuration":55944,"Delta":304042523},{"NoteNumber":77,"Velocity":27,"Duration":57950,"SoundDuration":57950,"Delta":304098467},{"NoteNumber":75,"Velocity":24,"Duration":94972,"SoundDuration":94972,"Delta":304156417},{"NoteNumber":37,"Velocity":20,"Duration":182214,"SoundDuration":182214,"Delta":304156417},{"NoteNumber":73,"Velocity":30,"Duration":104690,"SoundDuration":104690,"Delta":304251390},{"NoteNumber":77,"Velocity":35,"Duration":104690,"SoundDuration":104690,"Delta":304356080},{"NoteNumber":37,"Velocity":22,"Duration":200263,"SoundDuration":200263,"Delta":304356080},{"NoteNumber":75,"Velocity":31,"Duration":114687,"SoundDuration":114687,"Delta":304460770},{"NoteNumber":73,"Velocity":35,"Duration":370027,"SoundDuration":370027,"Delta":304575458},{"NoteNumber":65,"Velocity":19,"Duration":370027,"SoundDuration":370027,"Delta":304575458},{"NoteNumber":68,"Velocity":22,"Duration":370027,"SoundDuration":370027,"Delta":304575458},{"NoteNumber":37,"Velocity":23,"Duration":169596,"SoundDuration":169596,"Delta":304575458},{"NoteNumber":41,"Velocity":20,"Duration":169596,"SoundDuration":169596,"Delta":304760472},{"NoteNumber":35,"Velocity":15,"Duration":169596,"SoundDuration":169596,"Delta":304760472},{"NoteNumber":41,"Velocity":22,"Duration":169596,"SoundDuration":169596,"Delta":304945486},{"NoteNumber":35,"Velocity":16,"Duration":169596,"SoundDuration":169596,"Delta":304945486},{"NoteNumber":41,"Velocity":23,"Duration":169596,"SoundDuration":169596,"Delta":305130500},{"NoteNumber":35,"Velocity":17,"Duration":169596,"SoundDuration":169596,"Delta":305130500},{"NoteNumber":41,"Velocity":20,"Duration":169596,"SoundDuration":169596,"Delta":305315514},{"NoteNumber":35,"Velocity":15,"Duration":169596,"SoundDuration":169596,"Delta":305315514},{"NoteNumber":41,"Velocity":22,"Duration":169596,"SoundDuration":169596,"Delta":305500528},{"NoteNumber":35,"Velocity":16,"Duration":169596,"SoundDuration":169596,"Delta":305500528},{"NoteNumber":41,"Velocity":23,"Duration":169596,"SoundDuration":169596,"Delta":305685542},{"NoteNumber":35,"Velocity":17,"Duration":169596,"SoundDuration":169596,"Delta":305685542},{"NoteNumber":35,"Velocity":15,"Duration":169596,"SoundDuration":169596,"Delta":305870556},{"NoteNumber":41,"Velocity":20,"Duration":169596,"SoundDuration":169596,"Delta":305870556},{"NoteNumber":35,"Velocity":16,"Duration":169596,"SoundDuration":169596,"Delta":306055570},{"NoteNumber":41,"Velocity":22,"Duration":169596,"SoundDuration":169596,"Delta":306055570},{"NoteNumber":35,"Velocity":17,"Duration":169596,"SoundDuration":169596,"Delta":306240584},{"NoteNumber":41,"Velocity":23,"Duration":169596,"SoundDuration":169596,"Delta":306240584},{"NoteNumber":35,"Velocity":15,"Duration":169596,"SoundDuration":169596,"Delta":306425598},{"NoteNumber":41,"Velocity":20,"Duration":169596,"SoundDuration":169596,"Delta":306425598},{"NoteNumber":35,"Velocity":16,"Duration":169596,"SoundDuration":169596,"Delta":306610612},{"NoteNumber":41,"Velocity":22,"Duration":169596,"SoundDuration":169596,"Delta":306610612},{"NoteNumber":72,"Velocity":35,"Duration":919849,"SoundDuration":919849,"Delta":306795626},{"NoteNumber":40,"Velocity":26,"Duration":1117270,"SoundDuration":1117270,"Delta":306795626},{"NoteNumber":36,"Velocity":20,"Duration":168639,"SoundDuration":168639,"Delta":306979596},{"NoteNumber":36,"Velocity":22,"Duration":168639,"SoundDuration":168639,"Delta":307163566},{"NoteNumber":36,"Velocity":23,"Duration":168639,"SoundDuration":168639,"Delta":307347536},{"NoteNumber":36,"Velocity":20,"Duration":168639,"SoundDuration":168639,"Delta":307531506},{"NoteNumber":74,"Velocity":38,"Duration":148065,"SoundDuration":148065,"Delta":307715476},{"NoteNumber":36,"Velocity":22,"Duration":180968,"SoundDuration":180968,"Delta":307715476},{"NoteNumber":72,"Velocity":38,"Duration":49355,"SoundDuration":49355,"Delta":307863541},{"NoteNumber":74,"Velocity":37,"Duration":56179,"SoundDuration":56179,"Delta":307912896},{"NoteNumber":41,"Velocity":26,"Duration":1075642,"SoundDuration":1075642,"Delta":307912896},{"NoteNumber":76,"Velocity":32,"Duration":56022,"SoundDuration":56022,"Delta":307969076},{"NoteNumber":74,"Velocity":37,"Duration":55865,"SoundDuration":55865,"Delta":308025098},{"NoteNumber":76,"Velocity":33,"Duration":55632,"SoundDuration":55632,"Delta":308080964},{"NoteNumber":36,"Velocity":20,"Duration":152624,"SoundDuration":152624,"Delta":308080964},{"NoteNumber":74,"Velocity":37,"Duration":55478,"SoundDuration":55478,"Delta":308136597},{"NoteNumber":76,"Velocity":33,"Duration":55325,"SoundDuration":55325,"Delta":308192076},{"NoteNumber":74,"Velocity":37,"Duration":55096,"SoundDuration":55096,"Delta":308247401},{"NoteNumber":36,"Velocity":22,"Duration":151896,"SoundDuration":151896,"Delta":308247401},{"NoteNumber":76,"Velocity":33,"Duration":55248,"SoundDuration":55248,"Delta":308302498},{"NoteNumber":74,"Velocity":37,"Duration":55401,"SoundDuration":55401,"Delta":308357746},{"NoteNumber":76,"Velocity":34,"Duration":55555,"SoundDuration":55555,"Delta":308413148},{"NoteNumber":36,"Velocity":23,"Duration":153165,"SoundDuration":153165,"Delta":308413148},{"NoteNumber":74,"Velocity":31,"Duration":55710,"SoundDuration":55710,"Delta":308468703},{"NoteNumber":76,"Velocity":37,"Duration":55865,"SoundDuration":55865,"Delta":308524414},{"NoteNumber":74,"Velocity":31,"Duration":84190,"SoundDuration":84190,"Delta":308580280},{"NoteNumber":36,"Velocity":20,"Duration":171432,"SoundDuration":171432,"Delta":308580280},{"NoteNumber":72,"Velocity":34,"Duration":104690,"SoundDuration":104690,"Delta":308664471},{"NoteNumber":76,"Velocity":40,"Duration":104690,"SoundDuration":104690,"Delta":308769161},{"NoteNumber":36,"Velocity":22,"Duration":200263,"SoundDuration":200263,"Delta":308769161},{"NoteNumber":74,"Velocity":35,"Duration":114687,"SoundDuration":114687,"Delta":308873851},{"NoteNumber":72,"Velocity":35,"Duration":378549,"SoundDuration":378549,"Delta":308988539},{"NoteNumber":40,"Velocity":26,"Duration":173501,"SoundDuration":173501,"Delta":308988539},{"NoteNumber":36,"Velocity":20,"Duration":173501,"SoundDuration":173501,"Delta":309177813},{"NoteNumber":36,"Velocity":22,"Duration":173501,"SoundDuration":173501,"Delta":309367088},{"NoteNumber":49,"Velocity":27,"Duration":175719,"SoundDuration":175719,"Delta":309556362},{"NoteNumber":36,"Velocity":23,"Duration":175719,"SoundDuration":175719,"Delta":309556362},{"NoteNumber":36,"Velocity":20,"Duration":179738,"SoundDuration":179738,"Delta":309748056},{"NoteNumber":49,"Velocity":26,"Duration":179738,"SoundDuration":179738,"Delta":309748056},{"NoteNumber":49,"Velocity":26,"Duration":186440,"SoundDuration":186440,"Delta":309944134},{"NoteNumber":36,"Velocity":22,"Duration":186440,"SoundDuration":186440,"Delta":309944134},{"NoteNumber":48,"Velocity":26,"Duration":370027,"SoundDuration":370027,"Delta":310147524},{"NoteNumber":36,"Velocity":26,"Duration":169596,"SoundDuration":169596,"Delta":310147524},{"NoteNumber":36,"Velocity":20,"Duration":169596,"SoundDuration":169596,"Delta":310332538},{"NoteNumber":36,"Velocity":22,"Duration":169596,"SoundDuration":169596,"Delta":310517552},{"NoteNumber":36,"Velocity":23,"Duration":169596,"SoundDuration":169596,"Delta":310702566},{"NoteNumber":36,"Velocity":20,"Duration":169596,"SoundDuration":169596,"Delta":310887580},{"NoteNumber":36,"Velocity":22,"Duration":169596,"SoundDuration":169596,"Delta":311072594},{"NoteNumber":76,"Velocity":40,"Duration":919849,"SoundDuration":919849,"Delta":311257608},{"NoteNumber":43,"Velocity":26,"Duration":1117270,"SoundDuration":1117270,"Delta":311257608},{"NoteNumber":36,"Velocity":20,"Duration":168639,"SoundDuration":168639,"Delta":311441578},{"NoteNumber":36,"Velocity":22,"Duration":168639,"SoundDuration":168639,"Delta":311625548},{"NoteNumber":36,"Velocity":23,"Duration":168639,"SoundDuration":168639,"Delta":311809518},{"NoteNumber":36,"Velocity":20,"Duration":168639,"SoundDuration":168639,"Delta":311993488},{"NoteNumber":77,"Velocity":38,"Duration":148065,"SoundDuration":148065,"Delta":312177458},{"NoteNumber":36,"Velocity":22,"Duration":180968,"SoundDuration":180968,"Delta":312177458},{"NoteNumber":76,"Velocity":38,"Duration":49355,"SoundDuration":49355,"Delta":312325523},{"NoteNumber":77,"Velocity":37,"Duration":56179,"SoundDuration":56179,"Delta":312374879},{"NoteNumber":44,"Velocity":26,"Duration":1077503,"SoundDuration":1077503,"Delta":312374879},{"NoteNumber":79,"Velocity":32,"Duration":56022,"SoundDuration":56022,"Delta":312431058},{"NoteNumber":77,"Velocity":37,"Duration":55865,"SoundDuration":55865,"Delta":312487081},{"NoteNumber":79,"Velocity":33,"Duration":55710,"SoundDuration":55710,"Delta":312542947},{"NoteNumber":36,"Velocity":20,"Duration":152778,"SoundDuration":152778,"Delta":312542947},{"NoteNumber":77,"Velocity":37,"Duration":55555,"SoundDuration":55555,"Delta":312598657},{"NoteNumber":79,"Velocity":33,"Duration":55325,"SoundDuration":55325,"Delta":312654213},{"NoteNumber":77,"Velocity":37,"Duration":55325,"SoundDuration":55325,"Delta":312709538},{"NoteNumber":36,"Velocity":22,"Duration":152509,"SoundDuration":152509,"Delta":312709538},{"NoteNumber":79,"Velocity":33,"Duration":55478,"SoundDuration":55478,"Delta":312764863},{"NoteNumber":77,"Velocity":37,"Duration":55632,"SoundDuration":55632,"Delta":312820341},{"NoteNumber":79,"Velocity":34,"Duration":55788,"SoundDuration":55788,"Delta":312875974},{"NoteNumber":36,"Velocity":23,"Duration":153788,"SoundDuration":153788,"Delta":312875974},{"NoteNumber":77,"Velocity":31,"Duration":55944,"SoundDuration":55944,"Delta":312931763},{"NoteNumber":79,"Velocity":37,"Duration":56101,"SoundDuration":56101,"Delta":312987707},{"NoteNumber":77,"Velocity":31,"Duration":84506,"SoundDuration":84506,"Delta":313043808},{"NoteNumber":36,"Velocity":20,"Duration":171748,"SoundDuration":171748,"Delta":313043808},{"NoteNumber":76,"Velocity":34,"Duration":104690,"SoundDuration":104690,"Delta":313128315},{"NoteNumber":79,"Velocity":40,"Duration":104690,"SoundDuration":104690,"Delta":313233005},{"NoteNumber":36,"Velocity":22,"Duration":200263,"SoundDuration":200263,"Delta":313233005},{"NoteNumber":77,"Velocity":35,"Duration":114687,"SoundDuration":114687,"Delta":313337695},{"NoteNumber":76,"Velocity":35,"Duration":368097,"SoundDuration":368097,"Delta":313452383},{"NoteNumber":43,"Velocity":26,"Duration":168711,"SoundDuration":168711,"Delta":313452383},{"NoteNumber":36,"Velocity":20,"Duration":168711,"SoundDuration":168711,"Delta":313636432},{"NoteNumber":36,"Velocity":22,"Duration":168711,"SoundDuration":168711,"Delta":313820481},{"NoteNumber":36,"Velocity":23,"Duration":176281,"SoundDuration":176281,"Delta":314004530},{"NoteNumber":49,"Velocity":27,"Duration":176281,"SoundDuration":176281,"Delta":314004530},{"NoteNumber":49,"Velocity":26,"Duration":180921,"SoundDuration":180921,"Delta":314196837},{"NoteNumber":36,"Velocity":20,"Duration":180921,"SoundDuration":180921,"Delta":314196837},{"NoteNumber":49,"Velocity":26,"Duration":186440,"SoundDuration":186440,"Delta":314394206},{"NoteNumber":36,"Velocity":22,"Duration":186440,"SoundDuration":186440,"Delta":314394206},{"NoteNumber":48,"Velocity":26,"Duration":368981,"SoundDuration":368981,"Delta":314597596},{"NoteNumber":36,"Velocity":26,"Duration":169116,"SoundDuration":169116,"Delta":314597596},{"NoteNumber":36,"Velocity":20,"Duration":169116,"SoundDuration":169116,"Delta":314782086},{"NoteNumber":36,"Velocity":22,"Duration":169116,"SoundDuration":169116,"Delta":314966577},{"NoteNumber":76,"Velocity":35,"Duration":191693,"SoundDuration":191693,"Delta":315151067},{"NoteNumber":79,"Velocity":35,"Duration":191693,"SoundDuration":191693,"Delta":315151067},{"NoteNumber":36,"Velocity":23,"Duration":175719,"SoundDuration":175719,"Delta":315151067},{"NoteNumber":76,"Velocity":31,"Duration":199335,"SoundDuration":199335,"Delta":315342761},{"NoteNumber":79,"Velocity":31,"Duration":199335,"SoundDuration":199335,"Delta":315342761},{"NoteNumber":36,"Velocity":20,"Duration":182724,"SoundDuration":182724,"Delta":315342761},{"NoteNumber":79,"Velocity":35,"Duration":206185,"SoundDuration":206185,"Delta":315542096},{"NoteNumber":76,"Velocity":35,"Duration":206185,"SoundDuration":206185,"Delta":315542096},{"NoteNumber":36,"Velocity":22,"Duration":189003,"SoundDuration":189003,"Delta":315542096},{"NoteNumber":82,"Velocity":35,"Duration":370369,"SoundDuration":370369,"Delta":315748282},{"NoteNumber":79,"Velocity":35,"Duration":370369,"SoundDuration":370369,"Delta":315748282},{"NoteNumber":36,"Velocity":26,"Duration":169752,"SoundDuration":169752,"Delta":315748282},{"NoteNumber":36,"Velocity":20,"Duration":169752,"SoundDuration":169752,"Delta":315933467},{"NoteNumber":36,"Velocity":22,"Duration":169752,"SoundDuration":169752,"Delta":316118652},{"NoteNumber":49,"Velocity":27,"Duration":177993,"SoundDuration":177993,"Delta":316303837},{"NoteNumber":36,"Velocity":23,"Duration":177993,"SoundDuration":177993,"Delta":316303837},{"NoteNumber":36,"Velocity":20,"Duration":182724,"SoundDuration":182724,"Delta":316498012},{"NoteNumber":49,"Velocity":26,"Duration":182724,"SoundDuration":182724,"Delta":316498012},{"NoteNumber":36,"Velocity":22,"Duration":190311,"SoundDuration":190311,"Delta":316697347},{"NoteNumber":49,"Velocity":26,"Duration":190311,"SoundDuration":190311,"Delta":316697347},{"NoteNumber":48,"Velocity":26,"Duration":372674,"SoundDuration":372674,"Delta":316904960},{"NoteNumber":36,"Velocity":26,"Duration":171339,"SoundDuration":171339,"Delta":316904960},{"NoteNumber":36,"Velocity":20,"Duration":170278,"SoundDuration":170278,"Delta":317091876},{"NoteNumber":36,"Velocity":22,"Duration":170278,"SoundDuration":170278,"Delta":317277634},{"NoteNumber":79,"Velocity":66,"Duration":195439,"SoundDuration":195439,"Delta":317463393},{"NoteNumber":82,"Velocity":66,"Duration":195439,"SoundDuration":195439,"Delta":317463393},{"NoteNumber":36,"Velocity":43,"Duration":179152,"SoundDuration":179152,"Delta":317463393},{"NoteNumber":79,"Velocity":62,"Duration":200669,"SoundDuration":200669,"Delta":317658832},{"NoteNumber":82,"Velocity":62,"Duration":200669,"SoundDuration":200669,"Delta":317658832},{"NoteNumber":36,"Velocity":38,"Duration":183946,"SoundDuration":183946,"Delta":317658832},{"NoteNumber":82,"Velocity":68,"Duration":205479,"SoundDuration":205479,"Delta":317859501},{"NoteNumber":79,"Velocity":68,"Duration":205479,"SoundDuration":205479,"Delta":317859501},{"NoteNumber":36,"Velocity":41,"Duration":188356,"SoundDuration":188356,"Delta":317859501},{"NoteNumber":88,"Velocity":71,"Duration":82873,"SoundDuration":82873,"Delta":318064981},{"NoteNumber":36,"Velocity":50,"Duration":151895,"SoundDuration":151895,"Delta":318064981},{"NoteNumber":82,"Velocity":64,"Duration":82796,"SoundDuration":82796,"Delta":318147854},{"NoteNumber":91,"Velocity":72,"Duration":82644,"SoundDuration":82644,"Delta":318230650},{"NoteNumber":36,"Velocity":40,"Duration":151326,"SoundDuration":151326,"Delta":318230650},{"NoteNumber":88,"Velocity":64,"Duration":82417,"SoundDuration":82417,"Delta":318313295},{"NoteNumber":94,"Velocity":73,"Duration":82342,"SoundDuration":82342,"Delta":318395713},{"NoteNumber":36,"Velocity":43,"Duration":150835,"SoundDuration":150835,"Delta":318395713},{"NoteNumber":91,"Velocity":66,"Duration":82191,"SoundDuration":82191,"Delta":318478055},{"NoteNumber":88,"Velocity":74,"Duration":81967,"SoundDuration":81967,"Delta":318560247},{"NoteNumber":36,"Velocity":47,"Duration":150236,"SoundDuration":150236,"Delta":318560247},{"NoteNumber":91,"Velocity":67,"Duration":81892,"SoundDuration":81892,"Delta":318642214},{"NoteNumber":82,"Velocity":74,"Duration":81743,"SoundDuration":81743,"Delta":318724107},{"NoteNumber":36,"Velocity":43,"Duration":149678,"SoundDuration":149678,"Delta":318724107},{"NoteNumber":88,"Velocity":68,"Duration":81521,"SoundDuration":81521,"Delta":318805850},{"NoteNumber":79,"Velocity":75,"Duration":81448,"SoundDuration":81448,"Delta":318887372},{"NoteNumber":36,"Velocity":45,"Duration":149198,"SoundDuration":149198,"Delta":318887372},{"NoteNumber":82,"Velocity":68,"Duration":81300,"SoundDuration":81300,"Delta":318968820},{"NoteNumber":76,"Velocity":75,"Duration":81080,"SoundDuration":81080,"Delta":319050121},{"NoteNumber":36,"Velocity":55,"Duration":148648,"SoundDuration":148648,"Delta":319050121},{"NoteNumber":79,"Velocity":69,"Duration":81081,"SoundDuration":81081,"Delta":319131202},{"NoteNumber":70,"Velocity":76,"Duration":81080,"SoundDuration":81080,"Delta":319212283},{"NoteNumber":36,"Velocity":45,"Duration":148648,"SoundDuration":148648,"Delta":319212283},{"NoteNumber":76,"Velocity":67,"Duration":81080,"SoundDuration":81080,"Delta":319293364},{"NoteNumber":67,"Velocity":76,"Duration":81080,"SoundDuration":81080,"Delta":319374445},{"NoteNumber":36,"Velocity":48,"Duration":148648,"SoundDuration":148648,"Delta":319374445},{"NoteNumber":70,"Velocity":70,"Duration":81081,"SoundDuration":81081,"Delta":319455526},{"NoteNumber":64,"Velocity":77,"Duration":81080,"SoundDuration":81080,"Delta":319536607},{"NoteNumber":36,"Velocity":52,"Duration":148648,"SoundDuration":148648,"Delta":319536607},{"NoteNumber":67,"Velocity":68,"Duration":81080,"SoundDuration":81080,"Delta":319617688},{"NoteNumber":58,"Velocity":78,"Duration":81081,"SoundDuration":81081,"Delta":319698769},{"NoteNumber":36,"Velocity":47,"Duration":148648,"SoundDuration":148648,"Delta":319698769},{"NoteNumber":64,"Velocity":71,"Duration":81080,"SoundDuration":81080,"Delta":319779850},{"NoteNumber":55,"Velocity":75,"Duration":81080,"SoundDuration":81080,"Delta":319860931},{"NoteNumber":36,"Velocity":50,"Duration":148648,"SoundDuration":148648,"Delta":319860931},{"NoteNumber":58,"Velocity":63,"Duration":81080,"SoundDuration":81080,"Delta":319942012},{"NoteNumber":36,"Velocity":61,"Duration":149015,"SoundDuration":149015,"Delta":320023093},{"NoteNumber":52,"Velocity":76,"Duration":81154,"SoundDuration":81154,"Delta":320023093},{"NoteNumber":55,"Velocity":65,"Duration":81448,"SoundDuration":81448,"Delta":320104247},{"NoteNumber":36,"Velocity":49,"Duration":167194,"SoundDuration":167194,"Delta":320185695},{"NoteNumber":46,"Velocity":77,"Duration":85227,"SoundDuration":85227,"Delta":320185695},{"NoteNumber":52,"Velocity":62,"Duration":98360,"SoundDuration":98360,"Delta":320270923},{"NoteNumber":43,"Velocity":76,"Duration":82417,"SoundDuration":82417,"Delta":320369283},{"NoteNumber":36,"Velocity":52,"Duration":151288,"SoundDuration":151288,"Delta":320369283},{"NoteNumber":46,"Velocity":69,"Duration":82644,"SoundDuration":82644,"Delta":320451701},{"NoteNumber":36,"Velocity":57,"Duration":152316,"SoundDuration":152316,"Delta":320534346},{"NoteNumber":49,"Velocity":80,"Duration":82949,"SoundDuration":82949,"Delta":320534346},{"NoteNumber":46,"Velocity":70,"Duration":83256,"SoundDuration":83256,"Delta":320617295},{"NoteNumber":52,"Velocity":81,"Duration":83488,"SoundDuration":83488,"Delta":320700551},{"NoteNumber":36,"Velocity":51,"Duration":153359,"SoundDuration":153359,"Delta":320700551},{"NoteNumber":49,"Velocity":71,"Duration":83877,"SoundDuration":83877,"Delta":320784040},{"NoteNumber":36,"Velocity":54,"Duration":154534,"SoundDuration":154534,"Delta":320867917},{"NoteNumber":55,"Velocity":86,"Duration":84191,"SoundDuration":84191,"Delta":320867917},{"NoteNumber":52,"Velocity":78,"Duration":84427,"SoundDuration":84427,"Delta":320952108},{"NoteNumber":58,"Velocity":94,"Duration":170717,"SoundDuration":170717,"Delta":321036536},{"NoteNumber":43,"Velocity":66,"Duration":170717,"SoundDuration":170717,"Delta":321036536},{"NoteNumber":31,"Velocity":61,"Duration":170717,"SoundDuration":170717,"Delta":321036536},{"NoteNumber":36,"Velocity":58,"Duration":244897,"SoundDuration":244897,"Delta":321207254},{"NoteNumber":36,"Velocity":57,"Duration":244898,"SoundDuration":244898,"Delta":321452152},{"NoteNumber":49,"Velocity":93,"Duration":266690,"SoundDuration":266690,"Delta":321697050},{"NoteNumber":61,"Velocity":93,"Duration":266690,"SoundDuration":266690,"Delta":321697050},{"NoteNumber":56,"Velocity":93,"Duration":266690,"SoundDuration":266690,"Delta":321697050},{"NoteNumber":41,"Velocity":68,"Duration":266690,"SoundDuration":266690,"Delta":321697050},{"NoteNumber":29,"Velocity":62,"Duration":266690,"SoundDuration":266690,"Delta":321697050},{"NoteNumber":36,"Velocity":78,"Duration":320855,"SoundDuration":320855,"Delta":321963740},{"NoteNumber":36,"Velocity":66,"Duration":346860,"SoundDuration":346860,"Delta":322284596},{"NoteNumber":52,"Velocity":48,"Duration":2386365,"SoundDuration":2386365,"Delta":322631457},{"NoteNumber":36,"Velocity":40,"Duration":2386365,"SoundDuration":2386365,"Delta":322631457},{"NoteNumber":60,"Velocity":48,"Duration":2386365,"SoundDuration":2386365,"Delta":322631457},{"NoteNumber":40,"Velocity":40,"Duration":2386365,"SoundDuration":2386365,"Delta":322631457},{"NoteNumber":55,"Velocity":48,"Duration":2386365,"SoundDuration":2386365,"Delta":322631457},{"NoteNumber":60,"Velocity":35,"Duration":562068,"SoundDuration":562068,"Delta":325086004},{"NoteNumber":36,"Velocity":27,"Duration":562068,"SoundDuration":562068,"Delta":325086004},{"NoteNumber":57,"Velocity":31,"Duration":95541,"SoundDuration":95541,"Delta":325648072},{"NoteNumber":33,"Velocity":25,"Duration":95541,"SoundDuration":95541,"Delta":325648072},{"NoteNumber":53,"Velocity":103,"Duration":222014,"SoundDuration":222014,"Delta":325743614},{"NoteNumber":29,"Velocity":81,"Duration":223880,"SoundDuration":223880,"Delta":325743614},{"NoteNumber":57,"Velocity":75,"Duration":323569,"SoundDuration":323569,"Delta":325967494},{"NoteNumber":53,"Velocity":75,"Duration":323569,"SoundDuration":323569,"Delta":325967494},{"NoteNumber":60,"Velocity":85,"Duration":323569,"SoundDuration":323569,"Delta":325967494},{"NoteNumber":65,"Velocity":101,"Duration":323569,"SoundDuration":323569,"Delta":325967494},{"NoteNumber":33,"Velocity":61,"Duration":323569,"SoundDuration":323569,"Delta":326130982},{"NoteNumber":29,"Velocity":61,"Duration":323569,"SoundDuration":323569,"Delta":326130982},{"NoteNumber":41,"Velocity":81,"Duration":323569,"SoundDuration":323569,"Delta":326130982},{"NoteNumber":36,"Velocity":69,"Duration":323569,"SoundDuration":323569,"Delta":326130982},{"NoteNumber":60,"Velocity":72,"Duration":323569,"SoundDuration":323569,"Delta":326294469},{"NoteNumber":65,"Velocity":81,"Duration":323569,"SoundDuration":323569,"Delta":326294469},{"NoteNumber":69,"Velocity":96,"Duration":323569,"SoundDuration":323569,"Delta":326294469},{"NoteNumber":57,"Velocity":72,"Duration":323569,"SoundDuration":323569,"Delta":326294469},{"NoteNumber":33,"Velocity":57,"Duration":323569,"SoundDuration":323569,"Delta":326457957},{"NoteNumber":36,"Velocity":64,"Duration":323569,"SoundDuration":323569,"Delta":326457957},{"NoteNumber":41,"Velocity":76,"Duration":323569,"SoundDuration":323569,"Delta":326457957},{"NoteNumber":29,"Velocity":57,"Duration":323569,"SoundDuration":323569,"Delta":326457957},{"NoteNumber":60,"Velocity":71,"Duration":323569,"SoundDuration":323569,"Delta":326621444},{"NoteNumber":65,"Velocity":71,"Duration":323569,"SoundDuration":323569,"Delta":326621444},{"NoteNumber":72,"Velocity":96,"Duration":323569,"SoundDuration":323569,"Delta":326621444},{"NoteNumber":69,"Velocity":79,"Duration":323569,"SoundDuration":323569,"Delta":326621444},{"NoteNumber":33,"Velocity":55,"Duration":323569,"SoundDuration":323569,"Delta":326784932},{"NoteNumber":29,"Velocity":55,"Duration":323569,"SoundDuration":323569,"Delta":326784932},{"NoteNumber":41,"Velocity":73,"Duration":323569,"SoundDuration":323569,"Delta":326784932},{"NoteNumber":36,"Velocity":63,"Duration":323569,"SoundDuration":323569,"Delta":326784932},{"NoteNumber":69,"Velocity":72,"Duration":323569,"SoundDuration":323569,"Delta":326948419},{"NoteNumber":77,"Velocity":95,"Duration":323569,"SoundDuration":323569,"Delta":326948419},{"NoteNumber":72,"Velocity":80,"Duration":323569,"SoundDuration":323569,"Delta":326948419},{"NoteNumber":65,"Velocity":72,"Duration":323569,"SoundDuration":323569,"Delta":326948419},{"NoteNumber":33,"Velocity":61,"Duration":323569,"SoundDuration":323569,"Delta":327111907},{"NoteNumber":36,"Velocity":69,"Duration":323569,"SoundDuration":323569,"Delta":327111907},{"NoteNumber":41,"Velocity":81,"Duration":323569,"SoundDuration":323569,"Delta":327111907},{"NoteNumber":29,"Velocity":61,"Duration":323569,"SoundDuration":323569,"Delta":327111907},{"NoteNumber":77,"Velocity":86,"Duration":323569,"SoundDuration":323569,"Delta":327275394},{"NoteNumber":69,"Velocity":76,"Duration":323569,"SoundDuration":323569,"Delta":327275394},{"NoteNumber":72,"Velocity":76,"Duration":323569,"SoundDuration":323569,"Delta":327275394},{"NoteNumber":81,"Velocity":103,"Duration":323569,"SoundDuration":323569,"Delta":327275394},{"NoteNumber":33,"Velocity":55,"Duration":338338,"SoundDuration":338338,"Delta":327438882},{"NoteNumber":29,"Velocity":55,"Duration":338338,"SoundDuration":338338,"Delta":327438882},{"NoteNumber":41,"Velocity":73,"Duration":338338,"SoundDuration":338338,"Delta":327438882},{"NoteNumber":36,"Velocity":63,"Duration":338338,"SoundDuration":338338,"Delta":327438882},{"NoteNumber":77,"Velocity":78,"Duration":177083,"SoundDuration":177083,"Delta":327602369},{"NoteNumber":84,"Velocity":94,"Duration":177083,"SoundDuration":177083,"Delta":327602369},{"NoteNumber":72,"Velocity":71,"Duration":177083,"SoundDuration":177083,"Delta":327602369},{"NoteNumber":81,"Velocity":78,"Duration":177083,"SoundDuration":177083,"Delta":327602369},{"NoteNumber":81,"Velocity":86,"Duration":1607143,"SoundDuration":1607143,"Delta":327780941},{"NoteNumber":84,"Velocity":86,"Duration":1607143,"SoundDuration":1607143,"Delta":327780941},{"NoteNumber":89,"Velocity":103,"Duration":1607143,"SoundDuration":1607143,"Delta":327780941},{"NoteNumber":77,"Velocity":76,"Duration":1607143,"SoundDuration":1607143,"Delta":327780941},{"NoteNumber":29,"Velocity":61,"Duration":1607143,"SoundDuration":1607143,"Delta":327780941},{"NoteNumber":33,"Velocity":61,"Duration":1607143,"SoundDuration":1607143,"Delta":327780941},{"NoteNumber":36,"Velocity":69,"Duration":1607143,"SoundDuration":1607143,"Delta":327780941},{"NoteNumber":41,"Velocity":81,"Duration":1607143,"SoundDuration":1607143,"Delta":327780941},{"NoteNumber":57,"Velocity":41,"Duration":444084,"SoundDuration":444084,"Delta":329388084},{"NoteNumber":33,"Velocity":33,"Duration":444084,"SoundDuration":444084,"Delta":329388084},{"NoteNumber":60,"Velocity":35,"Duration":98308,"SoundDuration":98308,"Delta":329832169},{"NoteNumber":36,"Velocity":28,"Duration":98308,"SoundDuration":98308,"Delta":329832169},{"NoteNumber":65,"Velocity":40,"Duration":483481,"SoundDuration":483481,"Delta":329930478},{"NoteNumber":41,"Velocity":34,"Duration":483481,"SoundDuration":483481,"Delta":329930478},{"NoteNumber":69,"Velocity":43,"Duration":428371,"SoundDuration":428371,"Delta":330413959},{"NoteNumber":45,"Velocity":34,"Duration":428371,"SoundDuration":428371,"Delta":330413959},{"NoteNumber":72,"Velocity":37,"Duration":92931,"SoundDuration":92931,"Delta":330842331},{"NoteNumber":48,"Velocity":29,"Duration":92931,"SoundDuration":92931,"Delta":330842331},{"NoteNumber":77,"Velocity":40,"Duration":515083,"SoundDuration":515083,"Delta":330935262},{"NoteNumber":53,"Velocity":34,"Duration":515083,"SoundDuration":515083,"Delta":330935262},{"NoteNumber":65,"Velocity":40,"Duration":525836,"SoundDuration":525836,"Delta":331454081},{"NoteNumber":41,"Velocity":31,"Duration":525836,"SoundDuration":525836,"Delta":331454081},{"NoteNumber":60,"Velocity":103,"Duration":222014,"SoundDuration":222014,"Delta":331979918},{"NoteNumber":52,"Velocity":81,"Duration":222014,"SoundDuration":222014,"Delta":331979918},{"NoteNumber":55,"Velocity":81,"Duration":222014,"SoundDuration":222014,"Delta":331979918},{"NoteNumber":60,"Velocity":85,"Duration":323569,"SoundDuration":323569,"Delta":332203798},{"NoteNumber":64,"Velocity":101,"Duration":323569,"SoundDuration":323569,"Delta":332203798},{"NoteNumber":55,"Velocity":75,"Duration":323569,"SoundDuration":323569,"Delta":332203798},{"NoteNumber":40,"Velocity":61,"Duration":323569,"SoundDuration":323569,"Delta":332367286},{"NoteNumber":48,"Velocity":81,"Duration":323569,"SoundDuration":323569,"Delta":332367286},{"NoteNumber":43,"Velocity":69,"Duration":323569,"SoundDuration":323569,"Delta":332367286},{"NoteNumber":60,"Velocity":72,"Duration":323569,"SoundDuration":323569,"Delta":332530773},{"NoteNumber":67,"Velocity":96,"Duration":323569,"SoundDuration":323569,"Delta":332530773},{"NoteNumber":64,"Velocity":81,"Duration":323569,"SoundDuration":323569,"Delta":332530773},{"NoteNumber":43,"Velocity":64,"Duration":323569,"SoundDuration":323569,"Delta":332694261},{"NoteNumber":40,"Velocity":57,"Duration":323569,"SoundDuration":323569,"Delta":332694261},{"NoteNumber":48,"Velocity":76,"Duration":323569,"SoundDuration":323569,"Delta":332694261},{"NoteNumber":67,"Velocity":81,"Duration":323569,"SoundDuration":323569,"Delta":332857748},{"NoteNumber":72,"Velocity":98,"Duration":323569,"SoundDuration":323569,"Delta":332857748},{"NoteNumber":64,"Velocity":72,"Duration":323569,"SoundDuration":323569,"Delta":332857748},{"NoteNumber":40,"Velocity":55,"Duration":323569,"SoundDuration":323569,"Delta":333021236},{"NoteNumber":48,"Velocity":73,"Duration":323569,"SoundDuration":323569,"Delta":333021236},{"NoteNumber":43,"Velocity":63,"Duration":323569,"SoundDuration":323569,"Delta":333021236},{"NoteNumber":76,"Velocity":95,"Duration":323569,"SoundDuration":323569,"Delta":333184723},{"NoteNumber":67,"Velocity":72,"Duration":323569,"SoundDuration":323569,"Delta":333184723},{"NoteNumber":72,"Velocity":80,"Duration":323569,"SoundDuration":323569,"Delta":333184723},{"NoteNumber":43,"Velocity":69,"Duration":323569,"SoundDuration":323569,"Delta":333348211},{"NoteNumber":48,"Velocity":81,"Duration":323569,"SoundDuration":323569,"Delta":333348211},{"NoteNumber":40,"Velocity":61,"Duration":323569,"SoundDuration":323569,"Delta":333348211},{"NoteNumber":79,"Velocity":103,"Duration":323569,"SoundDuration":323569,"Delta":333511698},{"NoteNumber":72,"Velocity":76,"Duration":323569,"SoundDuration":323569,"Delta":333511698},{"NoteNumber":76,"Velocity":86,"Duration":323569,"SoundDuration":323569,"Delta":333511698},{"NoteNumber":40,"Velocity":55,"Duration":460204,"SoundDuration":460204,"Delta":333675186},{"NoteNumber":48,"Velocity":73,"Duration":460204,"SoundDuration":460204,"Delta":333675186},{"NoteNumber":43,"Velocity":63,"Duration":460204,"SoundDuration":460204,"Delta":333675186},{"NoteNumber":84,"Velocity":94,"Duration":300505,"SoundDuration":300505,"Delta":333838673},{"NoteNumber":76,"Velocity":78,"Duration":300505,"SoundDuration":300505,"Delta":333838673},{"NoteNumber":79,"Velocity":78,"Duration":300505,"SoundDuration":300505,"Delta":333838673},{"NoteNumber":72,"Velocity":41,"Duration":847457,"SoundDuration":847457,"Delta":334141704},{"NoteNumber":64,"Velocity":30,"Duration":1029342,"SoundDuration":1029342,"Delta":334141704},{"NoteNumber":67,"Velocity":30,"Duration":1029342,"SoundDuration":1029342,"Delta":334141704},{"NoteNumber":74,"Velocity":45,"Duration":181884,"SoundDuration":181884,"Delta":334989161},{"NoteNumber":74,"Velocity":38,"Duration":56963,"SoundDuration":56963,"Delta":335171046},{"NoteNumber":65,"Velocity":30,"Duration":1064352,"SoundDuration":1064352,"Delta":335171046},{"NoteNumber":71,"Velocity":30,"Duration":1064352,"SoundDuration":1064352,"Delta":335171046},{"NoteNumber":68,"Velocity":30,"Duration":1064352,"SoundDuration":1064352,"Delta":335171046},{"NoteNumber":76,"Velocity":35,"Duration":85064,"SoundDuration":85064,"Delta":335228010},{"NoteNumber":74,"Velocity":38,"Duration":56583,"SoundDuration":56583,"Delta":335284783},{"NoteNumber":76,"Velocity":36,"Duration":56395,"SoundDuration":56395,"Delta":335341366},{"NoteNumber":74,"Velocity":39,"Duration":56211,"SoundDuration":56211,"Delta":335397761},{"NoteNumber":76,"Velocity":36,"Duration":56022,"SoundDuration":56022,"Delta":335453973},{"NoteNumber":74,"Velocity":38,"Duration":55792,"SoundDuration":55792,"Delta":335509995},{"NoteNumber":76,"Velocity":36,"Duration":55477,"SoundDuration":55477,"Delta":335565788},{"NoteNumber":74,"Velocity":39,"Duration":56162,"SoundDuration":56162,"Delta":335621266},{"NoteNumber":76,"Velocity":37,"Duration":56725,"SoundDuration":56725,"Delta":335677429},{"NoteNumber":74,"Velocity":35,"Duration":57300,"SoundDuration":57300,"Delta":335734154},{"NoteNumber":76,"Velocity":39,"Duration":57886,"SoundDuration":57886,"Delta":335791455},{"NoteNumber":74,"Velocity":35,"Duration":87499,"SoundDuration":87499,"Delta":335849342},{"NoteNumber":72,"Velocity":36,"Duration":96450,"SoundDuration":96450,"Delta":335936841},{"NoteNumber":76,"Velocity":41,"Duration":96450,"SoundDuration":96450,"Delta":336033291},{"NoteNumber":74,"Velocity":38,"Duration":105656,"SoundDuration":105656,"Delta":336129742},{"NoteNumber":60,"Velocity":103,"Duration":222014,"SoundDuration":222014,"Delta":336235398},{"NoteNumber":55,"Velocity":81,"Duration":222014,"SoundDuration":222014,"Delta":336235398},{"NoteNumber":52,"Velocity":81,"Duration":222014,"SoundDuration":222014,"Delta":336235398},{"NoteNumber":64,"Velocity":101,"Duration":323569,"SoundDuration":323569,"Delta":336459278},{"NoteNumber":60,"Velocity":85,"Duration":323569,"SoundDuration":323569,"Delta":336459278},{"NoteNumber":55,"Velocity":75,"Duration":323569,"SoundDuration":323569,"Delta":336459278},{"NoteNumber":43,"Velocity":69,"Duration":323569,"SoundDuration":323569,"Delta":336622766},{"NoteNumber":40,"Velocity":61,"Duration":323569,"SoundDuration":323569,"Delta":336622766},{"NoteNumber":48,"Velocity":81,"Duration":323569,"SoundDuration":323569,"Delta":336622766},{"NoteNumber":64,"Velocity":81,"Duration":323569,"SoundDuration":323569,"Delta":336786253},{"NoteNumber":67,"Velocity":96,"Duration":323569,"SoundDuration":323569,"Delta":336786253},{"NoteNumber":60,"Velocity":72,"Duration":323569,"SoundDuration":323569,"Delta":336786253},{"NoteNumber":40,"Velocity":57,"Duration":323569,"SoundDuration":323569,"Delta":336949741},{"NoteNumber":48,"Velocity":76,"Duration":323569,"SoundDuration":323569,"Delta":336949741},{"NoteNumber":43,"Velocity":64,"Duration":323569,"SoundDuration":323569,"Delta":336949741},{"NoteNumber":72,"Velocity":98,"Duration":323569,"SoundDuration":323569,"Delta":337113228},{"NoteNumber":64,"Velocity":72,"Duration":323569,"SoundDuration":323569,"Delta":337113228},{"NoteNumber":67,"Velocity":81,"Duration":323569,"SoundDuration":323569,"Delta":337113228},{"NoteNumber":43,"Velocity":63,"Duration":323569,"SoundDuration":323569,"Delta":337276716},{"NoteNumber":48,"Velocity":73,"Duration":323569,"SoundDuration":323569,"Delta":337276716},{"NoteNumber":40,"Velocity":55,"Duration":323569,"SoundDuration":323569,"Delta":337276716},{"NoteNumber":76,"Velocity":95,"Duration":323569,"SoundDuration":323569,"Delta":337440203},{"NoteNumber":67,"Velocity":72,"Duration":323569,"SoundDuration":323569,"Delta":337440203},{"NoteNumber":72,"Velocity":80,"Duration":323569,"SoundDuration":323569,"Delta":337440203},{"NoteNumber":40,"Velocity":61,"Duration":323569,"SoundDuration":323569,"Delta":337603691},{"NoteNumber":48,"Velocity":81,"Duration":323569,"SoundDuration":323569,"Delta":337603691},{"NoteNumber":43,"Velocity":69,"Duration":323569,"SoundDuration":323569,"Delta":337603691},{"NoteNumber":79,"Velocity":103,"Duration":323569,"SoundDuration":323569,"Delta":337767178},{"NoteNumber":72,"Velocity":76,"Duration":323569,"SoundDuration":323569,"Delta":337767178},{"NoteNumber":76,"Velocity":86,"Duration":323569,"SoundDuration":323569,"Delta":337767178},{"NoteNumber":43,"Velocity":63,"Duration":458713,"SoundDuration":458713,"Delta":337930666},{"NoteNumber":48,"Velocity":73,"Duration":458713,"SoundDuration":458713,"Delta":337930666},{"NoteNumber":40,"Velocity":55,"Duration":458713,"SoundDuration":458713,"Delta":337930666},{"NoteNumber":76,"Velocity":78,"Duration":298994,"SoundDuration":298994,"Delta":338094153},{"NoteNumber":84,"Velocity":94,"Duration":298994,"SoundDuration":298994,"Delta":338094153},{"NoteNumber":79,"Velocity":78,"Duration":298994,"SoundDuration":298994,"Delta":338094153},{"NoteNumber":72,"Velocity":41,"Duration":847457,"SoundDuration":847457,"Delta":338395661},{"NoteNumber":67,"Velocity":30,"Duration":1029342,"SoundDuration":1029342,"Delta":338395661},{"NoteNumber":64,"Velocity":30,"Duration":1029342,"SoundDuration":1029342,"Delta":338395661},{"NoteNumber":74,"Velocity":45,"Duration":181884,"SoundDuration":181884,"Delta":339243118},{"NoteNumber":74,"Velocity":44,"Duration":56963,"SoundDuration":56963,"Delta":339425003},{"NoteNumber":68,"Velocity":29,"Duration":1064352,"SoundDuration":1064352,"Delta":339425003},{"NoteNumber":65,"Velocity":30,"Duration":1064352,"SoundDuration":1064352,"Delta":339425003},{"NoteNumber":76,"Velocity":39,"Duration":56773,"SoundDuration":56773,"Delta":339481967},{"NoteNumber":74,"Velocity":42,"Duration":56583,"SoundDuration":56583,"Delta":339538740},{"NoteNumber":76,"Velocity":37,"Duration":56395,"SoundDuration":56395,"Delta":339595323},{"NoteNumber":74,"Velocity":41,"Duration":56211,"SoundDuration":56211,"Delta":339651718},{"NoteNumber":76,"Velocity":36,"Duration":56022,"SoundDuration":56022,"Delta":339707930},{"NoteNumber":74,"Velocity":40,"Duration":55792,"SoundDuration":55792,"Delta":339763952},{"NoteNumber":76,"Velocity":37,"Duration":55477,"SoundDuration":55477,"Delta":339819745},{"NoteNumber":74,"Velocity":41,"Duration":56162,"SoundDuration":56162,"Delta":339875223},{"NoteNumber":76,"Velocity":38,"Duration":85303,"SoundDuration":85303,"Delta":339931386},{"NoteNumber":74,"Velocity":37,"Duration":86609,"SoundDuration":86609,"Delta":340016690},{"NoteNumber":76,"Velocity":42,"Duration":87499,"SoundDuration":87499,"Delta":340103299},{"NoteNumber":74,"Velocity":41,"Duration":96450,"SoundDuration":96450,"Delta":340190798},{"NoteNumber":72,"Velocity":48,"Duration":96450,"SoundDuration":96450,"Delta":340287249},{"NoteNumber":74,"Velocity":44,"Duration":105656,"SoundDuration":105656,"Delta":340383699},{"NoteNumber":55,"Velocity":81,"Duration":222014,"SoundDuration":222014,"Delta":340489355},{"NoteNumber":64,"Velocity":103,"Duration":222014,"SoundDuration":222014,"Delta":340489355},{"NoteNumber":58,"Velocity":81,"Duration":222014,"SoundDuration":222014,"Delta":340489355},{"NoteNumber":64,"Velocity":85,"Duration":323569,"SoundDuration":323569,"Delta":340713236},{"NoteNumber":58,"Velocity":85,"Duration":323569,"SoundDuration":323569,"Delta":340713236},{"NoteNumber":67,"Velocity":101,"Duration":323569,"SoundDuration":323569,"Delta":340713236},{"NoteNumber":43,"Velocity":61,"Duration":323569,"SoundDuration":323569,"Delta":340876723},{"NoteNumber":52,"Velocity":81,"Duration":323569,"SoundDuration":323569,"Delta":340876723},{"NoteNumber":46,"Velocity":69,"Duration":323569,"SoundDuration":323569,"Delta":340876723},{"NoteNumber":67,"Velocity":81,"Duration":323569,"SoundDuration":323569,"Delta":341040211},{"NoteNumber":70,"Velocity":96,"Duration":323569,"SoundDuration":323569,"Delta":341040211},{"NoteNumber":64,"Velocity":72,"Duration":323569,"SoundDuration":323569,"Delta":341040211},{"NoteNumber":46,"Velocity":64,"Duration":323569,"SoundDuration":323569,"Delta":341203698},{"NoteNumber":43,"Velocity":57,"Duration":323569,"SoundDuration":323569,"Delta":341203698},{"NoteNumber":52,"Velocity":76,"Duration":323569,"SoundDuration":323569,"Delta":341203698},{"NoteNumber":70,"Velocity":85,"Duration":323569,"SoundDuration":323569,"Delta":341367186},{"NoteNumber":76,"Velocity":101,"Duration":323569,"SoundDuration":323569,"Delta":341367186},{"NoteNumber":67,"Velocity":75,"Duration":323569,"SoundDuration":323569,"Delta":341367186},{"NoteNumber":43,"Velocity":55,"Duration":323569,"SoundDuration":323569,"Delta":341530673},{"NoteNumber":52,"Velocity":73,"Duration":323569,"SoundDuration":323569,"Delta":341530673},{"NoteNumber":46,"Velocity":63,"Duration":323569,"SoundDuration":323569,"Delta":341530673},{"NoteNumber":70,"Velocity":72,"Duration":323569,"SoundDuration":323569,"Delta":341694161},{"NoteNumber":79,"Velocity":95,"Duration":323569,"SoundDuration":323569,"Delta":341694161},{"NoteNumber":76,"Velocity":80,"Duration":323569,"SoundDuration":323569,"Delta":341694161},{"NoteNumber":46,"Velocity":69,"Duration":323569,"SoundDuration":323569,"Delta":341857648},{"NoteNumber":52,"Velocity":81,"Duration":323569,"SoundDuration":323569,"Delta":341857648},{"NoteNumber":43,"Velocity":61,"Duration":323569,"SoundDuration":323569,"Delta":341857648},{"NoteNumber":76,"Velocity":76,"Duration":323569,"SoundDuration":323569,"Delta":342021136},{"NoteNumber":82,"Velocity":103,"Duration":323569,"SoundDuration":323569,"Delta":342021136},{"NoteNumber":79,"Velocity":86,"Duration":323569,"SoundDuration":323569,"Delta":342021136},{"NoteNumber":43,"Velocity":55,"Duration":458713,"SoundDuration":458713,"Delta":342184623},{"NoteNumber":52,"Velocity":73,"Duration":458713,"SoundDuration":458713,"Delta":342184623},{"NoteNumber":46,"Velocity":63,"Duration":458713,"SoundDuration":458713,"Delta":342184623},{"NoteNumber":79,"Velocity":78,"Duration":298994,"SoundDuration":298994,"Delta":342348111},{"NoteNumber":88,"Velocity":94,"Duration":298994,"SoundDuration":298994,"Delta":342348111},{"NoteNumber":82,"Velocity":78,"Duration":298994,"SoundDuration":298994,"Delta":342348111},{"NoteNumber":76,"Velocity":48,"Duration":847457,"SoundDuration":847457,"Delta":342649618},{"NoteNumber":67,"Velocity":36,"Duration":1029342,"SoundDuration":1029342,"Delta":342649618},{"NoteNumber":70,"Velocity":36,"Duration":1029342,"SoundDuration":1029342,"Delta":342649618},{"NoteNumber":77,"Velocity":52,"Duration":181884,"SoundDuration":181884,"Delta":343497076},{"NoteNumber":77,"Velocity":46,"Duration":56963,"SoundDuration":56963,"Delta":343678960},{"NoteNumber":68,"Velocity":36,"Duration":1064352,"SoundDuration":1064352,"Delta":343678960},{"NoteNumber":72,"Velocity":36,"Duration":1064352,"SoundDuration":1064352,"Delta":343678960},{"NoteNumber":79,"Velocity":41,"Duration":56773,"SoundDuration":56773,"Delta":343735924},{"NoteNumber":77,"Velocity":46,"Duration":56583,"SoundDuration":56583,"Delta":343792697},{"NoteNumber":79,"Velocity":41,"Duration":56395,"SoundDuration":56395,"Delta":343849280},{"NoteNumber":77,"Velocity":46,"Duration":56211,"SoundDuration":56211,"Delta":343905676},{"NoteNumber":79,"Velocity":41,"Duration":56022,"SoundDuration":56022,"Delta":343961887},{"NoteNumber":77,"Velocity":46,"Duration":55792,"SoundDuration":55792,"Delta":344017909},{"NoteNumber":79,"Velocity":42,"Duration":55477,"SoundDuration":55477,"Delta":344073702},{"NoteNumber":77,"Velocity":46,"Duration":56162,"SoundDuration":56162,"Delta":344129180},{"NoteNumber":79,"Velocity":43,"Duration":85303,"SoundDuration":85303,"Delta":344185343},{"NoteNumber":77,"Velocity":40,"Duration":86609,"SoundDuration":86609,"Delta":344270647},{"NoteNumber":79,"Velocity":46,"Duration":87499,"SoundDuration":87499,"Delta":344357256},{"NoteNumber":77,"Velocity":42,"Duration":96450,"SoundDuration":96450,"Delta":344444755},{"NoteNumber":76,"Velocity":48,"Duration":96450,"SoundDuration":96450,"Delta":344541206},{"NoteNumber":77,"Velocity":44,"Duration":105656,"SoundDuration":105656,"Delta":344637656},{"NoteNumber":67,"Velocity":103,"Duration":222014,"SoundDuration":222014,"Delta":344743312},{"NoteNumber":64,"Velocity":81,"Duration":222014,"SoundDuration":222014,"Delta":344743312},{"NoteNumber":76,"Velocity":101,"Duration":323569,"SoundDuration":323569,"Delta":344967193},{"NoteNumber":73,"Velocity":85,"Duration":323569,"SoundDuration":323569,"Delta":344967193},{"NoteNumber":46,"Velocity":61,"Duration":323569,"SoundDuration":323569,"Delta":345130680},{"NoteNumber":52,"Velocity":69,"Duration":323569,"SoundDuration":323569,"Delta":345130680},{"NoteNumber":55,"Velocity":81,"Duration":323569,"SoundDuration":323569,"Delta":345130680},{"NoteNumber":49,"Velocity":61,"Duration":323569,"SoundDuration":323569,"Delta":345130680},{"NoteNumber":76,"Velocity":81,"Duration":323569,"SoundDuration":323569,"Delta":345294168},{"NoteNumber":79,"Velocity":96,"Duration":323569,"SoundDuration":323569,"Delta":345294168},{"NoteNumber":58,"Velocity":57,"Duration":323569,"SoundDuration":323569,"Delta":345457655},{"NoteNumber":64,"Velocity":64,"Duration":323569,"SoundDuration":323569,"Delta":345457655},{"NoteNumber":61,"Velocity":57,"Duration":323569,"SoundDuration":323569,"Delta":345457655},{"NoteNumber":67,"Velocity":76,"Duration":323569,"SoundDuration":323569,"Delta":345457655},{"NoteNumber":82,"Velocity":101,"Duration":323569,"SoundDuration":323569,"Delta":345621143},{"NoteNumber":79,"Velocity":85,"Duration":323569,"SoundDuration":323569,"Delta":345621143},{"NoteNumber":58,"Velocity":55,"Duration":323569,"SoundDuration":323569,"Delta":345784630},{"NoteNumber":64,"Velocity":63,"Duration":323569,"SoundDuration":323569,"Delta":345784630},{"NoteNumber":67,"Velocity":73,"Duration":323569,"SoundDuration":323569,"Delta":345784630},{"NoteNumber":61,"Velocity":55,"Duration":323569,"SoundDuration":323569,"Delta":345784630},{"NoteNumber":82,"Velocity":80,"Duration":323569,"SoundDuration":323569,"Delta":345948118},{"NoteNumber":85,"Velocity":95,"Duration":323569,"SoundDuration":323569,"Delta":345948118},{"NoteNumber":61,"Velocity":61,"Duration":323569,"SoundDuration":323569,"Delta":346111605},{"NoteNumber":64,"Velocity":69,"Duration":323569,"SoundDuration":323569,"Delta":346111605},{"NoteNumber":67,"Velocity":81,"Duration":323569,"SoundDuration":323569,"Delta":346111605},{"NoteNumber":58,"Velocity":61,"Duration":323569,"SoundDuration":323569,"Delta":346111605},{"NoteNumber":85,"Velocity":86,"Duration":323569,"SoundDuration":323569,"Delta":346275093},{"NoteNumber":88,"Velocity":103,"Duration":323569,"SoundDuration":323569,"Delta":346275093},{"NoteNumber":61,"Velocity":55,"Duration":458713,"SoundDuration":458713,"Delta":346438580},{"NoteNumber":58,"Velocity":55,"Duration":458713,"SoundDuration":458713,"Delta":346438580},{"NoteNumber":67,"Velocity":73,"Duration":458713,"SoundDuration":458713,"Delta":346438580},{"NoteNumber":64,"Velocity":63,"Duration":458713,"SoundDuration":458713,"Delta":346438580},{"NoteNumber":88,"Velocity":78,"Duration":298994,"SoundDuration":298994,"Delta":346602068},{"NoteNumber":91,"Velocity":94,"Duration":298994,"SoundDuration":298994,"Delta":346602068},{"NoteNumber":79,"Velocity":79,"Duration":847457,"SoundDuration":847457,"Delta":346903575},{"NoteNumber":76,"Velocity":59,"Duration":1033676,"SoundDuration":1033676,"Delta":346903575},{"NoteNumber":70,"Velocity":59,"Duration":1033676,"SoundDuration":1033676,"Delta":346903575},{"NoteNumber":73,"Velocity":59,"Duration":1033676,"SoundDuration":1033676,"Delta":346903575},{"NoteNumber":80,"Velocity":87,"Duration":186219,"SoundDuration":186219,"Delta":347751033},{"NoteNumber":77,"Velocity":64,"Duration":1069661,"SoundDuration":1069661,"Delta":347937252},{"NoteNumber":80,"Velocity":76,"Duration":89337,"SoundDuration":89337,"Delta":347937252},{"NoteNumber":71,"Velocity":59,"Duration":1069661,"SoundDuration":1069661,"Delta":347937252},{"NoteNumber":74,"Velocity":59,"Duration":1069661,"SoundDuration":1069661,"Delta":347937252},{"NoteNumber":82,"Velocity":68,"Duration":85760,"SoundDuration":85760,"Delta":348026589},{"NoteNumber":80,"Velocity":76,"Duration":84986,"SoundDuration":84986,"Delta":348112350},{"NoteNumber":82,"Velocity":68,"Duration":84270,"SoundDuration":84270,"Delta":348197336},{"NoteNumber":80,"Velocity":76,"Duration":83301,"SoundDuration":83301,"Delta":348281606},{"NoteNumber":82,"Velocity":68,"Duration":84036,"SoundDuration":84036,"Delta":348364907},{"NoteNumber":80,"Velocity":76,"Duration":85303,"SoundDuration":85303,"Delta":348448944},{"NoteNumber":82,"Velocity":67,"Duration":86609,"SoundDuration":86609,"Delta":348534248},{"NoteNumber":80,"Velocity":67,"Duration":87499,"SoundDuration":87499,"Delta":348620857},{"NoteNumber":79,"Velocity":70,"Duration":96450,"SoundDuration":96450,"Delta":348708356},{"NoteNumber":82,"Velocity":79,"Duration":96450,"SoundDuration":96450,"Delta":348804807},{"NoteNumber":80,"Velocity":73,"Duration":105656,"SoundDuration":105656,"Delta":348901257},{"NoteNumber":76,"Velocity":58,"Duration":489137,"SoundDuration":489137,"Delta":349006913},{"NoteNumber":79,"Velocity":58,"Duration":489137,"SoundDuration":489137,"Delta":349006913},{"NoteNumber":60,"Velocity":39,"Duration":163934,"SoundDuration":163934,"Delta":349006913},{"NoteNumber":72,"Velocity":36,"Duration":149051,"SoundDuration":149051,"Delta":349170848},{"NoteNumber":72,"Velocity":36,"Duration":149051,"SoundDuration":149051,"Delta":349333449},{"NoteNumber":72,"Velocity":39,"Duration":150273,"SoundDuration":150273,"Delta":349496051},{"NoteNumber":72,"Velocity":37,"Duration":150273,"SoundDuration":150273,"Delta":349659985},{"NoteNumber":72,"Velocity":36,"Duration":150273,"SoundDuration":150273,"Delta":349823920},{"NoteNumber":72,"Velocity":39,"Duration":150273,"SoundDuration":150273,"Delta":349987854},{"NoteNumber":72,"Velocity":35,"Duration":149051,"SoundDuration":149051,"Delta":350151789},{"NoteNumber":72,"Velocity":35,"Duration":149051,"SoundDuration":149051,"Delta":350314390},{"NoteNumber":72,"Velocity":39,"Duration":150273,"SoundDuration":150273,"Delta":350476992},{"NoteNumber":72,"Velocity":36,"Duration":150273,"SoundDuration":150273,"Delta":350640926},{"NoteNumber":72,"Velocity":36,"Duration":150273,"SoundDuration":150273,"Delta":350804861},{"NoteNumber":77,"Velocity":56,"Duration":487384,"SoundDuration":487384,"Delta":350968795},{"NoteNumber":80,"Velocity":56,"Duration":487384,"SoundDuration":487384,"Delta":350968795},{"NoteNumber":72,"Velocity":38,"Duration":148247,"SoundDuration":148247,"Delta":351132730},{"NoteNumber":72,"Velocity":38,"Duration":148247,"SoundDuration":148247,"Delta":351294455},{"NoteNumber":68,"Velocity":39,"Duration":163934,"SoundDuration":163934,"Delta":351456180},{"NoteNumber":65,"Velocity":39,"Duration":163934,"SoundDuration":163934,"Delta":351456180},{"NoteNumber":72,"Velocity":37,"Duration":150273,"SoundDuration":150273,"Delta":351620114},{"NoteNumber":72,"Velocity":37,"Duration":150273,"SoundDuration":150273,"Delta":351784049},{"NoteNumber":72,"Velocity":41,"Duration":150273,"SoundDuration":150273,"Delta":351947983},{"NoteNumber":72,"Velocity":37,"Duration":149051,"SoundDuration":149051,"Delta":352111918},{"NoteNumber":72,"Velocity":38,"Duration":149051,"SoundDuration":149051,"Delta":352274519},{"NoteNumber":72,"Velocity":46,"Duration":150273,"SoundDuration":150273,"Delta":352437121},{"NoteNumber":72,"Velocity":40,"Duration":150273,"SoundDuration":150273,"Delta":352601055},{"NoteNumber":72,"Velocity":40,"Duration":150273,"SoundDuration":150273,"Delta":352764990},{"NoteNumber":80,"Velocity":75,"Duration":1960548,"SoundDuration":1960548,"Delta":352928924},{"NoteNumber":77,"Velocity":75,"Duration":1960548,"SoundDuration":1960548,"Delta":352928924},{"NoteNumber":85,"Velocity":75,"Duration":1960548,"SoundDuration":1960548,"Delta":352928924},{"NoteNumber":72,"Velocity":38,"Duration":149051,"SoundDuration":149051,"Delta":353092859},{"NoteNumber":72,"Velocity":38,"Duration":149051,"SoundDuration":149051,"Delta":353255460},{"NoteNumber":68,"Velocity":40,"Duration":162601,"SoundDuration":162601,"Delta":353418062},{"NoteNumber":65,"Velocity":40,"Duration":162601,"SoundDuration":162601,"Delta":353418062},{"NoteNumber":72,"Velocity":37,"Duration":149051,"SoundDuration":149051,"Delta":353580663},{"NoteNumber":72,"Velocity":37,"Duration":149051,"SoundDuration":149051,"Delta":353743265},{"NoteNumber":65,"Velocity":37,"Duration":163934,"SoundDuration":163934,"Delta":353905866},{"NoteNumber":68,"Velocity":37,"Duration":163934,"SoundDuration":163934,"Delta":353905866},{"NoteNumber":72,"Velocity":37,"Duration":150273,"SoundDuration":150273,"Delta":354069801},{"NoteNumber":72,"Velocity":37,"Duration":150273,"SoundDuration":150273,"Delta":354233735},{"NoteNumber":65,"Velocity":37,"Duration":163934,"SoundDuration":163934,"Delta":354397670},{"NoteNumber":68,"Velocity":37,"Duration":163934,"SoundDuration":163934,"Delta":354397670},{"NoteNumber":72,"Velocity":37,"Duration":150273,"SoundDuration":150273,"Delta":354561604},{"NoteNumber":72,"Velocity":37,"Duration":150273,"SoundDuration":150273,"Delta":354725539},{"NoteNumber":79,"Velocity":52,"Duration":326977,"SoundDuration":326977,"Delta":354889473},{"NoteNumber":76,"Velocity":52,"Duration":326977,"SoundDuration":326977,"Delta":354889473},{"NoteNumber":84,"Velocity":52,"Duration":326977,"SoundDuration":326977,"Delta":354889473},{"NoteNumber":64,"Velocity":39,"Duration":163934,"SoundDuration":163934,"Delta":354889473},{"NoteNumber":67,"Velocity":39,"Duration":163934,"SoundDuration":163934,"Delta":354889473},{"NoteNumber":60,"Velocity":37,"Duration":149456,"SoundDuration":149456,"Delta":355053408},{"NoteNumber":60,"Velocity":37,"Duration":149456,"SoundDuration":149456,"Delta":355216451},{"NoteNumber":60,"Velocity":38,"Duration":150273,"SoundDuration":150273,"Delta":355379495},{"NoteNumber":60,"Velocity":37,"Duration":150273,"SoundDuration":150273,"Delta":355543429},{"NoteNumber":60,"Velocity":37,"Duration":150273,"SoundDuration":150273,"Delta":355707364},{"NoteNumber":60,"Velocity":37,"Duration":150273,"SoundDuration":150273,"Delta":355871298},{"NoteNumber":60,"Velocity":37,"Duration":149051,"SoundDuration":149051,"Delta":356035233},{"NoteNumber":60,"Velocity":37,"Duration":149051,"SoundDuration":149051,"Delta":356197834},{"NoteNumber":76,"Velocity":56,"Duration":403296,"SoundDuration":403296,"Delta":356360436},{"NoteNumber":79,"Velocity":56,"Duration":403296,"SoundDuration":403296,"Delta":356360436},{"NoteNumber":60,"Velocity":38,"Duration":150273,"SoundDuration":150273,"Delta":356360436},{"NoteNumber":60,"Velocity":37,"Duration":146276,"SoundDuration":146276,"Delta":356524370},{"NoteNumber":60,"Velocity":37,"Duration":162295,"SoundDuration":162295,"Delta":356683945},{"NoteNumber":79,"Velocity":52,"Duration":99010,"SoundDuration":99010,"Delta":356763732},{"NoteNumber":76,"Velocity":52,"Duration":99010,"SoundDuration":99010,"Delta":356763732},{"NoteNumber":80,"Velocity":58,"Duration":327869,"SoundDuration":327869,"Delta":356862742},{"NoteNumber":77,"Velocity":58,"Duration":327869,"SoundDuration":327869,"Delta":356862742},{"NoteNumber":60,"Velocity":39,"Duration":150273,"SoundDuration":150273,"Delta":356862742},{"NoteNumber":60,"Velocity":37,"Duration":150273,"SoundDuration":150273,"Delta":357026677},{"NoteNumber":79,"Velocity":52,"Duration":160858,"SoundDuration":160858,"Delta":357190611},{"NoteNumber":76,"Velocity":52,"Duration":160858,"SoundDuration":160858,"Delta":357190611},{"NoteNumber":60,"Velocity":37,"Duration":147453,"SoundDuration":147453,"Delta":357190611},{"NoteNumber":60,"Velocity":38,"Duration":147453,"SoundDuration":147453,"Delta":357351469},{"NoteNumber":60,"Velocity":37,"Duration":147453,"SoundDuration":147453,"Delta":357512327},{"NoteNumber":67,"Velocity":50,"Duration":163934,"SoundDuration":163934,"Delta":357673185},{"NoteNumber":64,"Velocity":50,"Duration":163934,"SoundDuration":163934,"Delta":357673185},{"NoteNumber":60,"Velocity":37,"Duration":150273,"SoundDuration":150273,"Delta":357673185},{"NoteNumber":60,"Velocity":38,"Duration":149051,"SoundDuration":149051,"Delta":357837120},{"NoteNumber":60,"Velocity":39,"Duration":149051,"SoundDuration":149051,"Delta":357999721},{"NoteNumber":55,"Velocity":49,"Duration":162601,"SoundDuration":162601,"Delta":358162323},{"NoteNumber":52,"Velocity":49,"Duration":162601,"SoundDuration":162601,"Delta":358162323},{"NoteNumber":60,"Velocity":37,"Duration":149051,"SoundDuration":149051,"Delta":358162323},{"NoteNumber":55,"Velocity":44,"Duration":162601,"SoundDuration":162601,"Delta":358324924},{"NoteNumber":58,"Velocity":44,"Duration":162601,"SoundDuration":162601,"Delta":358324924},{"NoteNumber":60,"Velocity":37,"Duration":150684,"SoundDuration":150684,"Delta":358487526},{"NoteNumber":60,"Velocity":37,"Duration":155971,"SoundDuration":155971,"Delta":358651909},{"NoteNumber":79,"Velocity":58,"Duration":92097,"SoundDuration":92097,"Delta":358732123},{"NoteNumber":76,"Velocity":58,"Duration":92097,"SoundDuration":92097,"Delta":358732123},{"NoteNumber":82,"Velocity":61,"Duration":327869,"SoundDuration":327869,"Delta":358824221},{"NoteNumber":79,"Velocity":61,"Duration":327869,"SoundDuration":327869,"Delta":358824221},{"NoteNumber":60,"Velocity":39,"Duration":150273,"SoundDuration":150273,"Delta":358824221},{"NoteNumber":60,"Velocity":37,"Duration":150273,"SoundDuration":150273,"Delta":358988155},{"NoteNumber":77,"Velocity":52,"Duration":161290,"SoundDuration":161290,"Delta":359152090},{"NoteNumber":80,"Velocity":52,"Duration":161290,"SoundDuration":161290,"Delta":359152090},{"NoteNumber":60,"Velocity":37,"Duration":147849,"SoundDuration":147849,"Delta":359152090},{"NoteNumber":60,"Velocity":37,"Duration":147849,"SoundDuration":147849,"Delta":359313380},{"NoteNumber":60,"Velocity":37,"Duration":147849,"SoundDuration":147849,"Delta":359474671},{"NoteNumber":65,"Velocity":49,"Duration":163934,"SoundDuration":163934,"Delta":359635961},{"NoteNumber":68,"Velocity":49,"Duration":163934,"SoundDuration":163934,"Delta":359635961},{"NoteNumber":60,"Velocity":37,"Duration":150273,"SoundDuration":150273,"Delta":359635961},{"NoteNumber":60,"Velocity":38,"Duration":150273,"SoundDuration":150273,"Delta":359799896},{"NoteNumber":60,"Velocity":37,"Duration":148648,"SoundDuration":148648,"Delta":359963830},{"NoteNumber":53,"Velocity":47,"Duration":158783,"SoundDuration":158783,"Delta":360125992},{"NoteNumber":56,"Velocity":47,"Duration":158783,"SoundDuration":158783,"Delta":360125992},{"NoteNumber":60,"Velocity":37,"Duration":148648,"SoundDuration":148648,"Delta":360125992},{"NoteNumber":56,"Velocity":48,"Duration":162162,"SoundDuration":162162,"Delta":360288154},{"NoteNumber":53,"Velocity":44,"Duration":162162,"SoundDuration":162162,"Delta":360288154},{"NoteNumber":60,"Velocity":37,"Duration":150684,"SoundDuration":150684,"Delta":360450316},{"NoteNumber":60,"Velocity":37,"Duration":166937,"SoundDuration":166937,"Delta":360614700},{"NoteNumber":77,"Velocity":52,"Duration":101695,"SoundDuration":101695,"Delta":360696891},{"NoteNumber":80,"Velocity":52,"Duration":101695,"SoundDuration":101695,"Delta":360696891},{"NoteNumber":80,"Velocity":75,"Duration":1964547,"SoundDuration":1964547,"Delta":360798586},{"NoteNumber":77,"Velocity":75,"Duration":1964547,"SoundDuration":1964547,"Delta":360798586},{"NoteNumber":85,"Velocity":75,"Duration":1964547,"SoundDuration":1964547,"Delta":360798586},{"NoteNumber":60,"Velocity":38,"Duration":149051,"SoundDuration":149051,"Delta":360962521},{"NoteNumber":60,"Velocity":38,"Duration":149051,"SoundDuration":149051,"Delta":361125122},{"NoteNumber":53,"Velocity":40,"Duration":163934,"SoundDuration":163934,"Delta":361287724},{"NoteNumber":56,"Velocity":40,"Duration":163934,"SoundDuration":163934,"Delta":361287724},{"NoteNumber":60,"Velocity":37,"Duration":150273,"SoundDuration":150273,"Delta":361451658},{"NoteNumber":60,"Velocity":37,"Duration":150273,"SoundDuration":150273,"Delta":361615593},{"NoteNumber":56,"Velocity":37,"Duration":163934,"SoundDuration":163934,"Delta":361779527},{"NoteNumber":53,"Velocity":37,"Duration":163934,"SoundDuration":163934,"Delta":361779527},{"NoteNumber":60,"Velocity":37,"Duration":150273,"SoundDuration":150273,"Delta":361943462},{"NoteNumber":60,"Velocity":37,"Duration":150273,"SoundDuration":150273,"Delta":362107396},{"NoteNumber":56,"Velocity":36,"Duration":163934,"SoundDuration":163934,"Delta":362271331},{"NoteNumber":53,"Velocity":36,"Duration":163934,"SoundDuration":163934,"Delta":362271331},{"NoteNumber":60,"Velocity":37,"Duration":150273,"SoundDuration":150273,"Delta":362435265},{"NoteNumber":60,"Velocity":37,"Duration":150273,"SoundDuration":150273,"Delta":362599200},{"NoteNumber":79,"Velocity":61,"Duration":326535,"SoundDuration":326535,"Delta":362763134},{"NoteNumber":76,"Velocity":61,"Duration":326535,"SoundDuration":326535,"Delta":362763134},{"NoteNumber":84,"Velocity":61,"Duration":326535,"SoundDuration":326535,"Delta":362763134},{"NoteNumber":60,"Velocity":38,"Duration":149051,"SoundDuration":149051,"Delta":362927069},{"NoteNumber":60,"Velocity":38,"Duration":149051,"SoundDuration":149051,"Delta":363089670},{"NoteNumber":52,"Velocity":40,"Duration":163934,"SoundDuration":163934,"Delta":363252272},{"NoteNumber":55,"Velocity":40,"Duration":163934,"SoundDuration":163934,"Delta":363252272},{"NoteNumber":60,"Velocity":37,"Duration":150273,"SoundDuration":150273,"Delta":363416206},{"NoteNumber":60,"Velocity":37,"Duration":150273,"SoundDuration":150273,"Delta":363580141},{"NoteNumber":66,"Velocity":52,"Duration":980940,"SoundDuration":980940,"Delta":363744075},{"NoteNumber":63,"Velocity":52,"Duration":980940,"SoundDuration":980940,"Delta":363744075},{"NoteNumber":72,"Velocity":52,"Duration":980940,"SoundDuration":980940,"Delta":363744075},{"NoteNumber":60,"Velocity":37,"Duration":149051,"SoundDuration":149051,"Delta":363908010},{"NoteNumber":60,"Velocity":37,"Duration":149051,"SoundDuration":149051,"Delta":364070611},{"NoteNumber":54,"Velocity":36,"Duration":163934,"SoundDuration":163934,"Delta":364233213},{"NoteNumber":51,"Velocity":36,"Duration":163934,"SoundDuration":163934,"Delta":364233213},{"NoteNumber":60,"Velocity":37,"Duration":150273,"SoundDuration":150273,"Delta":364397147},{"NoteNumber":60,"Velocity":37,"Duration":150273,"SoundDuration":150273,"Delta":364561082},{"NoteNumber":65,"Velocity":52,"Duration":330588,"SoundDuration":330588,"Delta":364725016},{"NoteNumber":71,"Velocity":52,"Duration":330588,"SoundDuration":330588,"Delta":364725016},{"NoteNumber":62,"Velocity":52,"Duration":330588,"SoundDuration":330588,"Delta":364725016},{"NoteNumber":60,"Velocity":37,"Duration":150684,"SoundDuration":150684,"Delta":364891221},{"NoteNumber":60,"Velocity":36,"Duration":150684,"SoundDuration":150684,"Delta":365055605},{"NoteNumber":50,"Velocity":38,"Duration":166666,"SoundDuration":166666,"Delta":365219988},{"NoteNumber":53,"Velocity":38,"Duration":166666,"SoundDuration":166666,"Delta":365219988},{"NoteNumber":60,"Velocity":34,"Duration":152777,"SoundDuration":152777,"Delta":365386655},{"NoteNumber":60,"Velocity":34,"Duration":152777,"SoundDuration":152777,"Delta":365553321},{"NoteNumber":61,"Velocity":46,"Duration":332432,"SoundDuration":332432,"Delta":365719988},{"NoteNumber":70,"Velocity":46,"Duration":332432,"SoundDuration":332432,"Delta":365719988},{"NoteNumber":65,"Velocity":46,"Duration":332432,"SoundDuration":332432,"Delta":365719988},{"NoteNumber":60,"Velocity":32,"Duration":151098,"SoundDuration":151098,"Delta":365887586},{"NoteNumber":60,"Velocity":32,"Duration":151098,"SoundDuration":151098,"Delta":366052421},{"NoteNumber":53,"Velocity":30,"Duration":164834,"SoundDuration":164834,"Delta":366217256},{"NoteNumber":49,"Velocity":30,"Duration":164834,"SoundDuration":164834,"Delta":366217256},{"NoteNumber":60,"Velocity":31,"Duration":151098,"SoundDuration":151098,"Delta":366382091},{"NoteNumber":60,"Velocity":30,"Duration":158501,"SoundDuration":158501,"Delta":366546926},{"NoteNumber":60,"Velocity":41,"Duration":503263,"SoundDuration":503263,"Delta":366719836},{"NoteNumber":68,"Velocity":41,"Duration":503263,"SoundDuration":503263,"Delta":366719836},{"NoteNumber":65,"Velocity":41,"Duration":503263,"SoundDuration":503263,"Delta":366719836},{"NoteNumber":48,"Velocity":25,"Duration":153631,"SoundDuration":153631,"Delta":366887434},{"NoteNumber":48,"Velocity":26,"Duration":154061,"SoundDuration":154061,"Delta":367055032},{"NoteNumber":48,"Velocity":28,"Duration":154061,"SoundDuration":154061,"Delta":367223099},{"NoteNumber":48,"Velocity":26,"Duration":154494,"SoundDuration":154494,"Delta":367391166},{"NoteNumber":48,"Velocity":26,"Duration":154494,"SoundDuration":154494,"Delta":367559706},{"NoteNumber":48,"Velocity":28,"Duration":154929,"SoundDuration":154929,"Delta":367728245},{"NoteNumber":48,"Velocity":26,"Duration":154929,"SoundDuration":154929,"Delta":367897259},{"NoteNumber":48,"Velocity":26,"Duration":155367,"SoundDuration":155367,"Delta":368066273},{"NoteNumber":48,"Velocity":28,"Duration":155367,"SoundDuration":155367,"Delta":368235765},{"NoteNumber":48,"Velocity":26,"Duration":155807,"SoundDuration":155807,"Delta":368405256},{"NoteNumber":48,"Velocity":27,"Duration":155807,"SoundDuration":155807,"Delta":368575228},{"NoteNumber":55,"Velocity":41,"Duration":520244,"SoundDuration":520244,"Delta":368745199},{"NoteNumber":46,"Velocity":41,"Duration":520244,"SoundDuration":520244,"Delta":368745199},{"NoteNumber":52,"Velocity":41,"Duration":520244,"SoundDuration":520244,"Delta":368745199},{"NoteNumber":48,"Velocity":41,"Duration":520244,"SoundDuration":520244,"Delta":368745199},{"NoteNumber":36,"Velocity":25,"Duration":170454,"SoundDuration":170454,"Delta":368924211},{"NoteNumber":36,"Velocity":26,"Duration":170778,"SoundDuration":170778,"Delta":369094665},{"NoteNumber":36,"Velocity":28,"Duration":171021,"SoundDuration":171021,"Delta":369265444},{"NoteNumber":36,"Velocity":26,"Duration":171428,"SoundDuration":171428,"Delta":369436465},{"NoteNumber":36,"Velocity":26,"Duration":171756,"SoundDuration":171756,"Delta":369607893},{"NoteNumber":36,"Velocity":28,"Duration":172002,"SoundDuration":172002,"Delta":369779650},{"NoteNumber":36,"Velocity":26,"Duration":173245,"SoundDuration":173245,"Delta":369951652},{"NoteNumber":36,"Velocity":26,"Duration":175099,"SoundDuration":175099,"Delta":370124897},{"NoteNumber":36,"Velocity":28,"Duration":176905,"SoundDuration":176905,"Delta":370299996},{"NoteNumber":36,"Velocity":26,"Duration":178838,"SoundDuration":178838,"Delta":370476902},{"NoteNumber":36,"Velocity":27,"Duration":180815,"SoundDuration":180815,"Delta":370655741},{"NoteNumber":29,"Velocity":28,"Duration":190937,"SoundDuration":190937,"Delta":370836557},{"NoteNumber":33,"Velocity":20,"Duration":181608,"SoundDuration":181608,"Delta":371027494},{"NoteNumber":36,"Velocity":20,"Duration":181608,"SoundDuration":181608,"Delta":371027494},{"NoteNumber":41,"Velocity":25,"Duration":181608,"SoundDuration":181608,"Delta":371027494},{"NoteNumber":29,"Velocity":26,"Duration":181609,"SoundDuration":181609,"Delta":371209103},{"NoteNumber":33,"Velocity":22,"Duration":181608,"SoundDuration":181608,"Delta":371390712},{"NoteNumber":36,"Velocity":22,"Duration":181608,"SoundDuration":181608,"Delta":371390712},{"NoteNumber":41,"Velocity":28,"Duration":181608,"SoundDuration":181608,"Delta":371390712},{"NoteNumber":29,"Velocity":26,"Duration":181608,"SoundDuration":181608,"Delta":371572321},{"NoteNumber":33,"Velocity":20,"Duration":181609,"SoundDuration":181609,"Delta":371753930},{"NoteNumber":36,"Velocity":20,"Duration":181609,"SoundDuration":181609,"Delta":371753930},{"NoteNumber":41,"Velocity":26,"Duration":181609,"SoundDuration":181609,"Delta":371753930},{"NoteNumber":29,"Velocity":28,"Duration":181608,"SoundDuration":181608,"Delta":371935539},{"NoteNumber":33,"Velocity":20,"Duration":181608,"SoundDuration":181608,"Delta":372117148},{"NoteNumber":36,"Velocity":20,"Duration":181608,"SoundDuration":181608,"Delta":372117148},{"NoteNumber":41,"Velocity":26,"Duration":181608,"SoundDuration":181608,"Delta":372117148},{"NoteNumber":29,"Velocity":26,"Duration":181609,"SoundDuration":181609,"Delta":372298757},{"NoteNumber":57,"Velocity":44,"Duration":468014,"SoundDuration":468014,"Delta":372480366},{"NoteNumber":45,"Velocity":40,"Duration":468014,"SoundDuration":468014,"Delta":372480366},{"NoteNumber":36,"Velocity":22,"Duration":181608,"SoundDuration":181608,"Delta":372480366},{"NoteNumber":33,"Velocity":22,"Duration":181608,"SoundDuration":181608,"Delta":372480366},{"NoteNumber":41,"Velocity":28,"Duration":181608,"SoundDuration":181608,"Delta":372480366},{"NoteNumber":29,"Velocity":26,"Duration":190937,"SoundDuration":190937,"Delta":372661975},{"NoteNumber":41,"Velocity":27,"Duration":216543,"SoundDuration":216543,"Delta":372852912},{"NoteNumber":33,"Velocity":21,"Duration":216543,"SoundDuration":216543,"Delta":372852912},{"NoteNumber":36,"Velocity":21,"Duration":216543,"SoundDuration":216543,"Delta":372852912},{"NoteNumber":60,"Velocity":40,"Duration":121075,"SoundDuration":121075,"Delta":372948380},{"NoteNumber":48,"Velocity":37,"Duration":121075,"SoundDuration":121075,"Delta":372948380},{"NoteNumber":53,"Velocity":38,"Duration":514868,"SoundDuration":514868,"Delta":373069455},{"NoteNumber":65,"Velocity":41,"Duration":514868,"SoundDuration":514868,"Delta":373069455},{"NoteNumber":29,"Velocity":28,"Duration":171402,"SoundDuration":171402,"Delta":373069455},{"NoteNumber":33,"Velocity":20,"Duration":171733,"SoundDuration":171733,"Delta":373240858},{"NoteNumber":36,"Velocity":20,"Duration":171733,"SoundDuration":171733,"Delta":373240858},{"NoteNumber":41,"Velocity":25,"Duration":171733,"SoundDuration":171733,"Delta":373240858},{"NoteNumber":29,"Velocity":26,"Duration":171733,"SoundDuration":171733,"Delta":373412591},{"NoteNumber":57,"Velocity":40,"Duration":455633,"SoundDuration":455633,"Delta":373584324},{"NoteNumber":69,"Velocity":44,"Duration":455633,"SoundDuration":455633,"Delta":373584324},{"NoteNumber":41,"Velocity":28,"Duration":180050,"SoundDuration":180050,"Delta":373584324},{"NoteNumber":36,"Velocity":22,"Duration":180050,"SoundDuration":180050,"Delta":373584324},{"NoteNumber":33,"Velocity":22,"Duration":180050,"SoundDuration":180050,"Delta":373584324},{"NoteNumber":29,"Velocity":26,"Duration":183721,"SoundDuration":183721,"Delta":373764374},{"NoteNumber":36,"Velocity":20,"Duration":196844,"SoundDuration":196844,"Delta":373948096},{"NoteNumber":41,"Velocity":26,"Duration":196844,"SoundDuration":196844,"Delta":373948096},{"NoteNumber":33,"Velocity":20,"Duration":196844,"SoundDuration":196844,"Delta":373948096},{"NoteNumber":65,"Velocity":39,"Duration":104983,"SoundDuration":104983,"Delta":374039957},{"NoteNumber":53,"Velocity":36,"Duration":104983,"SoundDuration":104983,"Delta":374039957},{"NoteNumber":64,"Velocity":41,"Duration":530997,"SoundDuration":530997,"Delta":374144941},{"NoteNumber":52,"Velocity":38,"Duration":530997,"SoundDuration":530997,"Delta":374144941},{"NoteNumber":31,"Velocity":28,"Duration":180877,"SoundDuration":180877,"Delta":374144941},{"NoteNumber":34,"Velocity":20,"Duration":175059,"SoundDuration":175059,"Delta":374325818},{"NoteNumber":40,"Velocity":20,"Duration":175059,"SoundDuration":175059,"Delta":374325818},{"NoteNumber":43,"Velocity":26,"Duration":175059,"SoundDuration":175059,"Delta":374325818},{"NoteNumber":31,"Velocity":26,"Duration":175060,"SoundDuration":175060,"Delta":374500878},{"NoteNumber":67,"Velocity":44,"Duration":459866,"SoundDuration":459866,"Delta":374675938},{"NoteNumber":55,"Velocity":40,"Duration":459866,"SoundDuration":459866,"Delta":374675938},{"NoteNumber":34,"Velocity":22,"Duration":178529,"SoundDuration":178529,"Delta":374675938},{"NoteNumber":43,"Velocity":28,"Duration":178529,"SoundDuration":178529,"Delta":374675938},{"NoteNumber":40,"Velocity":22,"Duration":178529,"SoundDuration":178529,"Delta":374675938},{"NoteNumber":31,"Velocity":26,"Duration":187558,"SoundDuration":187558,"Delta":374854467},{"NoteNumber":40,"Velocity":21,"Duration":206637,"SoundDuration":206637,"Delta":375042026},{"NoteNumber":43,"Velocity":27,"Duration":206637,"SoundDuration":206637,"Delta":375042026},{"NoteNumber":34,"Velocity":21,"Duration":206637,"SoundDuration":206637,"Delta":375042026},{"NoteNumber":64,"Velocity":39,"Duration":112858,"SoundDuration":112858,"Delta":375135805},{"NoteNumber":52,"Velocity":36,"Duration":112858,"SoundDuration":112858,"Delta":375135805},{"NoteNumber":53,"Velocity":38,"Duration":515198,"SoundDuration":515198,"Delta":375248663},{"NoteNumber":65,"Velocity":41,"Duration":515198,"SoundDuration":515198,"Delta":375248663},{"NoteNumber":33,"Velocity":28,"Duration":171733,"SoundDuration":171733,"Delta":375248663},{"NoteNumber":41,"Velocity":20,"Duration":171732,"SoundDuration":171732,"Delta":375420396},{"NoteNumber":45,"Velocity":25,"Duration":171732,"SoundDuration":171732,"Delta":375420396},{"NoteNumber":36,"Velocity":20,"Duration":171732,"SoundDuration":171732,"Delta":375420396},{"NoteNumber":33,"Velocity":26,"Duration":171733,"SoundDuration":171733,"Delta":375592129},{"NoteNumber":60,"Velocity":40,"Duration":1059197,"SoundDuration":1059197,"Delta":375763862},{"NoteNumber":48,"Velocity":40,"Duration":1059197,"SoundDuration":1059197,"Delta":375763862},{"NoteNumber":45,"Velocity":28,"Duration":176533,"SoundDuration":176533,"Delta":375763862},{"NoteNumber":41,"Velocity":22,"Duration":176533,"SoundDuration":176533,"Delta":375763862},{"NoteNumber":36,"Velocity":22,"Duration":176533,"SoundDuration":176533,"Delta":375763862},{"NoteNumber":33,"Velocity":26,"Duration":176533,"SoundDuration":176533,"Delta":375940395},{"NoteNumber":36,"Velocity":20,"Duration":176533,"SoundDuration":176533,"Delta":376116928},{"NoteNumber":45,"Velocity":26,"Duration":176533,"SoundDuration":176533,"Delta":376116928},{"NoteNumber":41,"Velocity":20,"Duration":176533,"SoundDuration":176533,"Delta":376116928},{"NoteNumber":33,"Velocity":28,"Duration":176533,"SoundDuration":176533,"Delta":376293461},{"NoteNumber":45,"Velocity":26,"Duration":176532,"SoundDuration":176532,"Delta":376469994},{"NoteNumber":36,"Velocity":20,"Duration":176532,"SoundDuration":176532,"Delta":376469994},{"NoteNumber":41,"Velocity":20,"Duration":176532,"SoundDuration":176532,"Delta":376469994},{"NoteNumber":33,"Velocity":26,"Duration":176533,"SoundDuration":176533,"Delta":376646527},{"NoteNumber":62,"Velocity":44,"Duration":457870,"SoundDuration":457870,"Delta":376823060},{"NoteNumber":41,"Velocity":28,"Duration":176533,"SoundDuration":176533,"Delta":376823060},{"NoteNumber":50,"Velocity":40,"Duration":457870,"SoundDuration":457870,"Delta":376823060},{"NoteNumber":34,"Velocity":26,"Duration":187558,"SoundDuration":187558,"Delta":376999593},{"NoteNumber":41,"Velocity":27,"Duration":206231,"SoundDuration":206231,"Delta":377187152},{"NoteNumber":58,"Velocity":40,"Duration":112452,"SoundDuration":112452,"Delta":377280931},{"NoteNumber":46,"Velocity":37,"Duration":112452,"SoundDuration":112452,"Delta":377280931},{"NoteNumber":57,"Velocity":44,"Duration":513816,"SoundDuration":513816,"Delta":377393383},{"NoteNumber":45,"Velocity":40,"Duration":513816,"SoundDuration":513816,"Delta":377393383},{"NoteNumber":36,"Velocity":28,"Duration":171271,"SoundDuration":171271,"Delta":377393383},{"NoteNumber":41,"Velocity":25,"Duration":171271,"SoundDuration":171271,"Delta":377564655},{"NoteNumber":36,"Velocity":26,"Duration":171272,"SoundDuration":171272,"Delta":377735927},{"NoteNumber":60,"Velocity":44,"Duration":456949,"SoundDuration":456949,"Delta":377907199},{"NoteNumber":41,"Velocity":28,"Duration":180570,"SoundDuration":180570,"Delta":377907199},{"NoteNumber":48,"Velocity":40,"Duration":456949,"SoundDuration":456949,"Delta":377907199},{"NoteNumber":36,"Velocity":25,"Duration":184252,"SoundDuration":184252,"Delta":378087770},{"NoteNumber":41,"Velocity":25,"Duration":197109,"SoundDuration":197109,"Delta":378272022},{"NoteNumber":57,"Velocity":39,"Duration":104983,"SoundDuration":104983,"Delta":378364149},{"NoteNumber":45,"Velocity":36,"Duration":104983,"SoundDuration":104983,"Delta":378364149},{"NoteNumber":55,"Velocity":44,"Duration":530997,"SoundDuration":530997,"Delta":378469132},{"NoteNumber":43,"Velocity":40,"Duration":530997,"SoundDuration":530997,"Delta":378469132},{"NoteNumber":36,"Velocity":28,"Duration":180877,"SoundDuration":180877,"Delta":378469132},{"NoteNumber":40,"Velocity":25,"Duration":175059,"SoundDuration":175059,"Delta":378650010},{"NoteNumber":36,"Velocity":25,"Duration":175060,"SoundDuration":175060,"Delta":378825070},{"NoteNumber":60,"Velocity":44,"Duration":466676,"SoundDuration":466676,"Delta":379000130},{"NoteNumber":48,"Velocity":40,"Duration":466676,"SoundDuration":466676,"Delta":379000130},{"NoteNumber":40,"Velocity":28,"Duration":178529,"SoundDuration":178529,"Delta":379000130},{"NoteNumber":36,"Velocity":25,"Duration":192098,"SoundDuration":192098,"Delta":379178659},{"NoteNumber":40,"Velocity":25,"Duration":213955,"SoundDuration":213955,"Delta":379370757},{"NoteNumber":58,"Velocity":39,"Duration":117906,"SoundDuration":117906,"Delta":379466806},{"NoteNumber":46,"Velocity":36,"Duration":117906,"SoundDuration":117906,"Delta":379466806},{"NoteNumber":57,"Velocity":42,"Duration":551166,"SoundDuration":551166,"Delta":379584712},{"NoteNumber":41,"Velocity":28,"Duration":183721,"SoundDuration":183721,"Delta":379584712},{"NoteNumber":45,"Velocity":20,"Duration":183721,"SoundDuration":183721,"Delta":379768434},{"NoteNumber":48,"Velocity":20,"Duration":183721,"SoundDuration":183721,"Delta":379768434},{"NoteNumber":53,"Velocity":25,"Duration":183721,"SoundDuration":183721,"Delta":379768434},{"NoteNumber":41,"Velocity":27,"Duration":183722,"SoundDuration":183722,"Delta":379952156},{"NoteNumber":60,"Velocity":42,"Duration":1077264,"SoundDuration":1077264,"Delta":380135878},{"NoteNumber":45,"Velocity":23,"Duration":179544,"SoundDuration":179544,"Delta":380135878},{"NoteNumber":48,"Velocity":23,"Duration":179544,"SoundDuration":179544,"Delta":380135878},{"NoteNumber":53,"Velocity":29,"Duration":179544,"SoundDuration":179544,"Delta":380135878},{"NoteNumber":41,"Velocity":28,"Duration":179543,"SoundDuration":179543,"Delta":380315422},{"NoteNumber":45,"Velocity":22,"Duration":179544,"SoundDuration":179544,"Delta":380494966},{"NoteNumber":48,"Velocity":22,"Duration":179544,"SoundDuration":179544,"Delta":380494966},{"NoteNumber":53,"Velocity":29,"Duration":179544,"SoundDuration":179544,"Delta":380494966},{"NoteNumber":41,"Velocity":32,"Duration":179544,"SoundDuration":179544,"Delta":380674510},{"NoteNumber":45,"Velocity":24,"Duration":179543,"SoundDuration":179543,"Delta":380854054},{"NoteNumber":48,"Velocity":24,"Duration":179543,"SoundDuration":179543,"Delta":380854054},{"NoteNumber":53,"Velocity":31,"Duration":179543,"SoundDuration":179543,"Delta":380854054},{"NoteNumber":41,"Velocity":31,"Duration":179544,"SoundDuration":179544,"Delta":381033598},{"NoteNumber":69,"Velocity":55,"Duration":460881,"SoundDuration":460881,"Delta":381213142},{"NoteNumber":57,"Velocity":51,"Duration":460881,"SoundDuration":460881,"Delta":381213142},{"NoteNumber":48,"Velocity":27,"Duration":179543,"SoundDuration":179543,"Delta":381213142},{"NoteNumber":45,"Velocity":27,"Duration":179543,"SoundDuration":179543,"Delta":381213142},{"NoteNumber":53,"Velocity":35,"Duration":179543,"SoundDuration":179543,"Delta":381213142},{"NoteNumber":41,"Velocity":33,"Duration":187558,"SoundDuration":187558,"Delta":381392686},{"NoteNumber":53,"Velocity":34,"Duration":215315,"SoundDuration":215315,"Delta":381580245},{"NoteNumber":45,"Velocity":27,"Duration":215315,"SoundDuration":215315,"Delta":381580245},{"NoteNumber":48,"Velocity":27,"Duration":215315,"SoundDuration":215315,"Delta":381580245},{"NoteNumber":72,"Velocity":53,"Duration":121536,"SoundDuration":121536,"Delta":381674024},{"NoteNumber":60,"Velocity":49,"Duration":121536,"SoundDuration":121536,"Delta":381674024},{"NoteNumber":65,"Velocity":51,"Duration":531067,"SoundDuration":531067,"Delta":381795560},{"NoteNumber":77,"Velocity":56,"Duration":531067,"SoundDuration":531067,"Delta":381795560},{"NoteNumber":41,"Velocity":37,"Duration":177022,"SoundDuration":177022,"Delta":381795560},{"NoteNumber":45,"Velocity":27,"Duration":177022,"SoundDuration":177022,"Delta":381972583},{"NoteNumber":48,"Velocity":27,"Duration":177022,"SoundDuration":177022,"Delta":381972583},{"NoteNumber":53,"Velocity":34,"Duration":177022,"SoundDuration":177022,"Delta":381972583},{"NoteNumber":41,"Velocity":36,"Duration":177022,"SoundDuration":177022,"Delta":382149605},{"NoteNumber":81,"Velocity":62,"Duration":451208,"SoundDuration":451208,"Delta":382326628},{"NoteNumber":69,"Velocity":57,"Duration":451208,"SoundDuration":451208,"Delta":382326628},{"NoteNumber":45,"Velocity":30,"Duration":178794,"SoundDuration":178794,"Delta":382326628},{"NoteNumber":48,"Velocity":30,"Duration":178794,"SoundDuration":178794,"Delta":382326628},{"NoteNumber":53,"Velocity":39,"Duration":178794,"SoundDuration":178794,"Delta":382326628},{"NoteNumber":41,"Velocity":37,"Duration":181608,"SoundDuration":181608,"Delta":382505423},{"NoteNumber":48,"Velocity":29,"Duration":195787,"SoundDuration":195787,"Delta":382687032},{"NoteNumber":53,"Velocity":38,"Duration":195787,"SoundDuration":195787,"Delta":382687032},{"NoteNumber":45,"Velocity":29,"Duration":195787,"SoundDuration":195787,"Delta":382687032},{"NoteNumber":77,"Velocity":58,"Duration":104983,"SoundDuration":104983,"Delta":382777836},{"NoteNumber":65,"Velocity":53,"Duration":104983,"SoundDuration":104983,"Delta":382777836},{"NoteNumber":76,"Velocity":61,"Duration":530997,"SoundDuration":530997,"Delta":382882820},{"NoteNumber":64,"Velocity":57,"Duration":530997,"SoundDuration":530997,"Delta":382882820},{"NoteNumber":43,"Velocity":40,"Duration":180877,"SoundDuration":180877,"Delta":382882820},{"NoteNumber":46,"Velocity":29,"Duration":175059,"SoundDuration":175059,"Delta":383063697},{"NoteNumber":48,"Velocity":29,"Duration":175059,"SoundDuration":175059,"Delta":383063697},{"NoteNumber":55,"Velocity":38,"Duration":175059,"SoundDuration":175059,"Delta":383063697},{"NoteNumber":43,"Velocity":39,"Duration":175060,"SoundDuration":175060,"Delta":383238757},{"NoteNumber":79,"Velocity":68,"Duration":464521,"SoundDuration":464521,"Delta":383413817},{"NoteNumber":67,"Velocity":62,"Duration":464521,"SoundDuration":464521,"Delta":383413817},{"NoteNumber":46,"Velocity":34,"Duration":183183,"SoundDuration":183183,"Delta":383413817},{"NoteNumber":55,"Velocity":42,"Duration":183183,"SoundDuration":183183,"Delta":383413817},{"NoteNumber":48,"Velocity":34,"Duration":183183,"SoundDuration":183183,"Delta":383413817},{"NoteNumber":43,"Velocity":40,"Duration":187558,"SoundDuration":187558,"Delta":383597001},{"NoteNumber":48,"Velocity":33,"Duration":229525,"SoundDuration":229525,"Delta":383784559},{"NoteNumber":55,"Velocity":42,"Duration":229525,"SoundDuration":229525,"Delta":383784559},{"NoteNumber":46,"Velocity":33,"Duration":229525,"SoundDuration":229525,"Delta":383784559},{"NoteNumber":76,"Velocity":63,"Duration":135746,"SoundDuration":135746,"Delta":383878339},{"NoteNumber":64,"Velocity":58,"Duration":135746,"SoundDuration":135746,"Delta":383878339},{"NoteNumber":77,"Velocity":57,"Duration":538632,"SoundDuration":538632,"Delta":384014085},{"NoteNumber":65,"Velocity":51,"Duration":538632,"SoundDuration":538632,"Delta":384014085},{"NoteNumber":57,"Velocity":36,"Duration":2101221,"SoundDuration":2101221,"Delta":384014085},{"NoteNumber":48,"Velocity":28,"Duration":2101221,"SoundDuration":2101221,"Delta":384014085},{"NoteNumber":45,"Velocity":28,"Duration":2101221,"SoundDuration":2101221,"Delta":384014085},{"NoteNumber":53,"Velocity":36,"Duration":2101221,"SoundDuration":2101221,"Delta":384014085},{"NoteNumber":60,"Velocity":48,"Duration":1562589,"SoundDuration":1562589,"Delta":384552717},{"NoteNumber":72,"Velocity":52,"Duration":1562589,"SoundDuration":1562589,"Delta":384552717},{"NoteNumber":61,"Velocity":72,"Duration":543807,"SoundDuration":543807,"Delta":386115306},{"NoteNumber":73,"Velocity":85,"Duration":543807,"SoundDuration":543807,"Delta":386115306},{"NoteNumber":49,"Velocity":50,"Duration":2023258,"SoundDuration":2023258,"Delta":386115306},{"NoteNumber":53,"Velocity":59,"Duration":543807,"SoundDuration":543807,"Delta":386115306},{"NoteNumber":46,"Velocity":50,"Duration":2023258,"SoundDuration":2023258,"Delta":386115306},{"NoteNumber":58,"Velocity":69,"Duration":1479451,"SoundDuration":1479451,"Delta":386659113},{"NoteNumber":70,"Velocity":81,"Duration":1479451,"SoundDuration":1479451,"Delta":386659113},{"NoteNumber":54,"Velocity":57,"Duration":1479451,"SoundDuration":1479451,"Delta":386659113},{"NoteNumber":68,"Velocity":58,"Duration":1504179,"SoundDuration":1504179,"Delta":388138565},{"NoteNumber":48,"Velocity":28,"Duration":2046533,"SoundDuration":2046533,"Delta":388138565},{"NoteNumber":56,"Velocity":36,"Duration":2046533,"SoundDuration":2046533,"Delta":388138565},{"NoteNumber":53,"Velocity":36,"Duration":2046533,"SoundDuration":2046533,"Delta":388138565},{"NoteNumber":67,"Velocity":51,"Duration":345821,"SoundDuration":345821,"Delta":389642744},{"NoteNumber":65,"Velocity":49,"Duration":196533,"SoundDuration":196533,"Delta":389988565},{"NoteNumber":67,"Velocity":46,"Duration":89686,"SoundDuration":89686,"Delta":390185098},{"NoteNumber":48,"Velocity":25,"Duration":2071518,"SoundDuration":2071518,"Delta":390185098},{"NoteNumber":52,"Velocity":31,"Duration":2071518,"SoundDuration":2071518,"Delta":390185098},{"NoteNumber":58,"Velocity":31,"Duration":2071518,"SoundDuration":2071518,"Delta":390185098},{"NoteNumber":68,"Velocity":39,"Duration":88889,"SoundDuration":88889,"Delta":390274785},{"NoteNumber":67,"Velocity":46,"Duration":87210,"SoundDuration":87210,"Delta":390363674},{"NoteNumber":68,"Velocity":40,"Duration":88238,"SoundDuration":88238,"Delta":390450885},{"NoteNumber":67,"Velocity":47,"Duration":87886,"SoundDuration":87886,"Delta":390539123},{"NoteNumber":68,"Velocity":40,"Duration":86207,"SoundDuration":86207,"Delta":390627009},{"NoteNumber":67,"Velocity":48,"Duration":85865,"SoundDuration":85865,"Delta":390713217},{"NoteNumber":68,"Velocity":41,"Duration":84900,"SoundDuration":84900,"Delta":390799083},{"NoteNumber":67,"Velocity":49,"Duration":85261,"SoundDuration":85261,"Delta":390883983},{"NoteNumber":68,"Velocity":42,"Duration":84246,"SoundDuration":84246,"Delta":390969245},{"NoteNumber":67,"Velocity":50,"Duration":85010,"SoundDuration":85010,"Delta":391053491},{"NoteNumber":68,"Velocity":42,"Duration":84948,"SoundDuration":84948,"Delta":391138502},{"NoteNumber":67,"Velocity":51,"Duration":85028,"SoundDuration":85028,"Delta":391223451},{"NoteNumber":68,"Velocity":44,"Duration":85350,"SoundDuration":85350,"Delta":391308479},{"NoteNumber":67,"Velocity":51,"Duration":85432,"SoundDuration":85432,"Delta":391393830},{"NoteNumber":68,"Velocity":45,"Duration":85389,"SoundDuration":85389,"Delta":391479262},{"NoteNumber":67,"Velocity":52,"Duration":85927,"SoundDuration":85927,"Delta":391564652},{"NoteNumber":68,"Velocity":46,"Duration":85221,"SoundDuration":85221,"Delta":391650579},{"NoteNumber":67,"Velocity":53,"Duration":86531,"SoundDuration":86531,"Delta":391735800},{"NoteNumber":68,"Velocity":48,"Duration":85970,"SoundDuration":85970,"Delta":391822332},{"NoteNumber":67,"Velocity":55,"Duration":86124,"SoundDuration":86124,"Delta":391908302},{"NoteNumber":68,"Velocity":48,"Duration":86705,"SoundDuration":86705,"Delta":391994427},{"NoteNumber":67,"Velocity":56,"Duration":87506,"SoundDuration":87506,"Delta":392081132},{"NoteNumber":68,"Velocity":48,"Duration":87977,"SoundDuration":87977,"Delta":392168639},{"NoteNumber":73,"Velocity":46,"Duration":98564,"SoundDuration":98564,"Delta":392256616},{"NoteNumber":72,"Velocity":39,"Duration":86523,"SoundDuration":86523,"Delta":392355181},{"NoteNumber":73,"Velocity":46,"Duration":86147,"SoundDuration":86147,"Delta":392441704},{"NoteNumber":72,"Velocity":40,"Duration":86191,"SoundDuration":86191,"Delta":392527851},{"NoteNumber":73,"Velocity":48,"Duration":85123,"SoundDuration":85123,"Delta":392614043},{"NoteNumber":72,"Velocity":41,"Duration":84895,"SoundDuration":84895,"Delta":392699167},{"NoteNumber":73,"Velocity":50,"Duration":85018,"SoundDuration":85018,"Delta":392784062},{"NoteNumber":72,"Velocity":44,"Duration":84239,"SoundDuration":84239,"Delta":392869080},{"NoteNumber":73,"Velocity":51,"Duration":84128,"SoundDuration":84128,"Delta":392953320},{"NoteNumber":72,"Velocity":45,"Duration":84349,"SoundDuration":84349,"Delta":393037448},{"NoteNumber":73,"Velocity":53,"Duration":84278,"SoundDuration":84278,"Delta":393121798},{"NoteNumber":72,"Velocity":47,"Duration":84475,"SoundDuration":84475,"Delta":393206076},{"NoteNumber":73,"Velocity":56,"Duration":84421,"SoundDuration":84421,"Delta":393290552},{"NoteNumber":72,"Velocity":48,"Duration":84953,"SoundDuration":84953,"Delta":393374973},{"NoteNumber":73,"Velocity":56,"Duration":84802,"SoundDuration":84802,"Delta":393459927},{"NoteNumber":72,"Velocity":47,"Duration":84922,"SoundDuration":84922,"Delta":393544730},{"NoteNumber":73,"Velocity":56,"Duration":85260,"SoundDuration":85260,"Delta":393629652},{"NoteNumber":72,"Velocity":48,"Duration":85204,"SoundDuration":85204,"Delta":393714912},{"NoteNumber":73,"Velocity":56,"Duration":85600,"SoundDuration":85600,"Delta":393800116},{"NoteNumber":72,"Velocity":49,"Duration":85993,"SoundDuration":85993,"Delta":393885717},{"NoteNumber":73,"Velocity":56,"Duration":85690,"SoundDuration":85690,"Delta":393971711},{"NoteNumber":72,"Velocity":49,"Duration":86751,"SoundDuration":86751,"Delta":394057401},{"NoteNumber":71,"Velocity":56,"Duration":86999,"SoundDuration":86999,"Delta":394144152},{"NoteNumber":72,"Velocity":48,"Duration":87463,"SoundDuration":87463,"Delta":394231152},{"NoteNumber":85,"Velocity":49,"Duration":98221,"SoundDuration":98221,"Delta":394318616},{"NoteNumber":84,"Velocity":41,"Duration":86122,"SoundDuration":86122,"Delta":394416837},{"NoteNumber":85,"Velocity":49,"Duration":84739,"SoundDuration":84739,"Delta":394502959},{"NoteNumber":84,"Velocity":43,"Duration":83959,"SoundDuration":83959,"Delta":394587699},{"NoteNumber":85,"Velocity":51,"Duration":82910,"SoundDuration":82910,"Delta":394671658},{"NoteNumber":84,"Velocity":45,"Duration":82061,"SoundDuration":82061,"Delta":394754568},{"NoteNumber":85,"Velocity":54,"Duration":81303,"SoundDuration":81303,"Delta":394836630},{"NoteNumber":84,"Velocity":45,"Duration":81588,"SoundDuration":81588,"Delta":394917934},{"NoteNumber":85,"Velocity":55,"Duration":81060,"SoundDuration":81060,"Delta":394999523},{"NoteNumber":84,"Velocity":46,"Duration":80972,"SoundDuration":80972,"Delta":395080584},{"NoteNumber":85,"Velocity":56,"Duration":81037,"SoundDuration":81037,"Delta":395161557},{"NoteNumber":84,"Velocity":49,"Duration":81135,"SoundDuration":81135,"Delta":395242594},{"NoteNumber":85,"Velocity":60,"Duration":81826,"SoundDuration":81826,"Delta":395323730},{"NoteNumber":84,"Velocity":49,"Duration":81186,"SoundDuration":81186,"Delta":395405556},{"NoteNumber":85,"Velocity":58,"Duration":81119,"SoundDuration":81119,"Delta":395486742},{"NoteNumber":84,"Velocity":48,"Duration":82075,"SoundDuration":82075,"Delta":395567862},{"NoteNumber":85,"Velocity":55,"Duration":82808,"SoundDuration":82808,"Delta":395649937},{"NoteNumber":84,"Velocity":45,"Duration":84176,"SoundDuration":84176,"Delta":395732745},{"NoteNumber":85,"Velocity":54,"Duration":84428,"SoundDuration":84428,"Delta":395816922},{"NoteNumber":84,"Velocity":45,"Duration":85260,"SoundDuration":85260,"Delta":395901350},{"NoteNumber":85,"Velocity":52,"Duration":86012,"SoundDuration":86012,"Delta":395986611},{"NoteNumber":84,"Velocity":44,"Duration":86159,"SoundDuration":86159,"Delta":396072624},{"NoteNumber":83,"Velocity":50,"Duration":90420,"SoundDuration":90420,"Delta":396158783},{"NoteNumber":84,"Velocity":40,"Duration":94637,"SoundDuration":94637,"Delta":396249204},{"NoteNumber":85,"Velocity":47,"Duration":180723,"SoundDuration":180723,"Delta":396343841},{"NoteNumber":84,"Velocity":47,"Duration":180723,"SoundDuration":180723,"Delta":396524564},{"NoteNumber":82,"Velocity":45,"Duration":180723,"SoundDuration":180723,"Delta":396705287},{"NoteNumber":80,"Velocity":42,"Duration":180723,"SoundDuration":180723,"Delta":396886010},{"NoteNumber":79,"Velocity":43,"Duration":180723,"SoundDuration":180723,"Delta":397066733},{"NoteNumber":78,"Velocity":42,"Duration":180723,"SoundDuration":180723,"Delta":397247456},{"NoteNumber":77,"Velocity":42,"Duration":180723,"SoundDuration":180723,"Delta":397428179},{"NoteNumber":76,"Velocity":42,"Duration":180723,"SoundDuration":180723,"Delta":397608902},{"NoteNumber":75,"Velocity":42,"Duration":180723,"SoundDuration":180723,"Delta":397789625},{"NoteNumber":73,"Velocity":42,"Duration":180723,"SoundDuration":180723,"Delta":397970348},{"NoteNumber":72,"Velocity":41,"Duration":180723,"SoundDuration":180723,"Delta":398151071},{"NoteNumber":70,"Velocity":41,"Duration":180677,"SoundDuration":180677,"Delta":398331794},{"NoteNumber":68,"Velocity":41,"Duration":175308,"SoundDuration":175308,"Delta":398512472},{"NoteNumber":67,"Velocity":39,"Duration":182187,"SoundDuration":182187,"Delta":398687781},{"NoteNumber":66,"Velocity":39,"Duration":183674,"SoundDuration":183674,"Delta":398869968},{"NoteNumber":65,"Velocity":38,"Duration":185186,"SoundDuration":185186,"Delta":399053643},{"NoteNumber":64,"Velocity":37,"Duration":186335,"SoundDuration":186335,"Delta":399238829},{"NoteNumber":63,"Velocity":36,"Duration":186335,"SoundDuration":186335,"Delta":399425165},{"NoteNumber":61,"Velocity":36,"Duration":186335,"SoundDuration":186335,"Delta":399611500},{"NoteNumber":60,"Velocity":36,"Duration":186335,"SoundDuration":186335,"Delta":399797836},{"NoteNumber":58,"Velocity":35,"Duration":186335,"SoundDuration":186335,"Delta":399984171},{"NoteNumber":56,"Velocity":34,"Duration":186335,"SoundDuration":186335,"Delta":400170507},{"NoteNumber":55,"Velocity":35,"Duration":186335,"SoundDuration":186335,"Delta":400356842},{"NoteNumber":54,"Velocity":33,"Duration":186335,"SoundDuration":186335,"Delta":400543178},{"NoteNumber":53,"Velocity":34,"Duration":185758,"SoundDuration":185758,"Delta":400729513},{"NoteNumber":52,"Velocity":33,"Duration":186335,"SoundDuration":186335,"Delta":400915272},{"NoteNumber":51,"Velocity":33,"Duration":186915,"SoundDuration":186915,"Delta":401101607},{"NoteNumber":49,"Velocity":33,"Duration":187500,"SoundDuration":187500,"Delta":401288523},{"NoteNumber":48,"Velocity":32,"Duration":188087,"SoundDuration":188087,"Delta":401476023},{"NoteNumber":46,"Velocity":32,"Duration":188728,"SoundDuration":188728,"Delta":401664111},{"NoteNumber":44,"Velocity":34,"Duration":189274,"SoundDuration":189274,"Delta":401852840},{"NoteNumber":43,"Velocity":33,"Duration":189274,"SoundDuration":189274,"Delta":402042114},{"NoteNumber":42,"Velocity":33,"Duration":189274,"SoundDuration":189274,"Delta":402231389},{"NoteNumber":41,"Velocity":33,"Duration":189274,"SoundDuration":189274,"Delta":402420663},{"NoteNumber":40,"Velocity":33,"Duration":189274,"SoundDuration":189274,"Delta":402609938},{"NoteNumber":39,"Velocity":33,"Duration":200669,"SoundDuration":200669,"Delta":402799212},{"NoteNumber":37,"Velocity":34,"Duration":192925,"SoundDuration":192925,"Delta":402999881},{"NoteNumber":36,"Velocity":34,"Duration":192925,"SoundDuration":192925,"Delta":403192807},{"NoteNumber":34,"Velocity":34,"Duration":192925,"SoundDuration":192925,"Delta":403385733},{"NoteNumber":32,"Velocity":34,"Duration":192925,"SoundDuration":192925,"Delta":403578659},{"NoteNumber":31,"Velocity":33,"Duration":192925,"SoundDuration":192925,"Delta":403771585},{"NoteNumber":32,"Velocity":31,"Duration":201342,"SoundDuration":201342,"Delta":403964511},{"NoteNumber":34,"Velocity":34,"Duration":193834,"SoundDuration":193834,"Delta":404165854},{"NoteNumber":36,"Velocity":33,"Duration":194806,"SoundDuration":194806,"Delta":404359689},{"NoteNumber":35,"Velocity":33,"Duration":196615,"SoundDuration":196615,"Delta":404554495},{"NoteNumber":36,"Velocity":36,"Duration":198349,"SoundDuration":198349,"Delta":404751110},{"NoteNumber":35,"Velocity":34,"Duration":200335,"SoundDuration":200335,"Delta":404949459},{"NoteNumber":36,"Velocity":33,"Duration":209789,"SoundDuration":209789,"Delta":405149795},{"NoteNumber":53,"Velocity":83,"Duration":91329,"SoundDuration":91329,"Delta":405359585},{"NoteNumber":29,"Velocity":64,"Duration":91329,"SoundDuration":91329,"Delta":405359585},{"NoteNumber":48,"Velocity":66,"Duration":91329,"SoundDuration":91329,"Delta":405450915},{"NoteNumber":36,"Velocity":52,"Duration":91329,"SoundDuration":91329,"Delta":405450915},{"NoteNumber":44,"Velocity":66,"Duration":91329,"SoundDuration":91329,"Delta":405542245},{"NoteNumber":41,"Velocity":52,"Duration":91329,"SoundDuration":91329,"Delta":405542245},{"NoteNumber":48,"Velocity":66,"Duration":91329,"SoundDuration":91329,"Delta":405633574},{"NoteNumber":36,"Velocity":52,"Duration":91329,"SoundDuration":91329,"Delta":405633574},{"NoteNumber":53,"Velocity":72,"Duration":97125,"SoundDuration":97125,"Delta":405724904},{"NoteNumber":29,"Velocity":58,"Duration":97125,"SoundDuration":97125,"Delta":405724904},{"NoteNumber":48,"Velocity":64,"Duration":97125,"SoundDuration":97125,"Delta":405822029},{"NoteNumber":36,"Velocity":51,"Duration":97125,"SoundDuration":97125,"Delta":405822029},{"NoteNumber":56,"Velocity":84,"Duration":91463,"SoundDuration":91463,"Delta":405919154},{"NoteNumber":29,"Velocity":68,"Duration":91463,"SoundDuration":91463,"Delta":405919154},{"NoteNumber":48,"Velocity":66,"Duration":91463,"SoundDuration":91463,"Delta":406010618},{"NoteNumber":36,"Velocity":52,"Duration":91463,"SoundDuration":91463,"Delta":406010618},{"NoteNumber":55,"Velocity":83,"Duration":91463,"SoundDuration":91463,"Delta":406102081},{"NoteNumber":29,"Velocity":64,"Duration":91463,"SoundDuration":91463,"Delta":406102081},{"NoteNumber":48,"Velocity":66,"Duration":91463,"SoundDuration":91463,"Delta":406193545},{"NoteNumber":36,"Velocity":52,"Duration":91463,"SoundDuration":91463,"Delta":406193545},{"NoteNumber":53,"Velocity":81,"Duration":93556,"SoundDuration":93556,"Delta":406285008},{"NoteNumber":29,"Velocity":62,"Duration":93556,"SoundDuration":93556,"Delta":406285008},{"NoteNumber":48,"Velocity":66,"Duration":93557,"SoundDuration":93557,"Delta":406378565},{"NoteNumber":36,"Velocity":52,"Duration":93557,"SoundDuration":93557,"Delta":406378565},{"NoteNumber":53,"Velocity":83,"Duration":90252,"SoundDuration":90252,"Delta":406472122},{"NoteNumber":29,"Velocity":64,"Duration":90252,"SoundDuration":90252,"Delta":406472122},{"NoteNumber":48,"Velocity":63,"Duration":90252,"SoundDuration":90252,"Delta":406562375},{"NoteNumber":36,"Velocity":52,"Duration":90252,"SoundDuration":90252,"Delta":406562375},{"NoteNumber":44,"Velocity":63,"Duration":90252,"SoundDuration":90252,"Delta":406652628},{"NoteNumber":41,"Velocity":52,"Duration":90252,"SoundDuration":90252,"Delta":406652628},{"NoteNumber":48,"Velocity":63,"Duration":90252,"SoundDuration":90252,"Delta":406742880},{"NoteNumber":36,"Velocity":52,"Duration":90252,"SoundDuration":90252,"Delta":406742880},{"NoteNumber":53,"Velocity":66,"Duration":95791,"SoundDuration":95791,"Delta":406833133},{"NoteNumber":29,"Velocity":58,"Duration":95791,"SoundDuration":95791,"Delta":406833133},{"NoteNumber":48,"Velocity":62,"Duration":95791,"SoundDuration":95791,"Delta":406928925},{"NoteNumber":36,"Velocity":51,"Duration":95791,"SoundDuration":95791,"Delta":406928925},{"NoteNumber":56,"Velocity":83,"Duration":91463,"SoundDuration":91463,"Delta":407024716},{"NoteNumber":29,"Velocity":68,"Duration":91463,"SoundDuration":91463,"Delta":407024716},{"NoteNumber":48,"Velocity":63,"Duration":91463,"SoundDuration":91463,"Delta":407116180},{"NoteNumber":36,"Velocity":52,"Duration":91463,"SoundDuration":91463,"Delta":407116180},{"NoteNumber":55,"Velocity":80,"Duration":91463,"SoundDuration":91463,"Delta":407207643},{"NoteNumber":29,"Velocity":64,"Duration":91463,"SoundDuration":91463,"Delta":407207643},{"NoteNumber":48,"Velocity":66,"Duration":91463,"SoundDuration":91463,"Delta":407299107},{"NoteNumber":36,"Velocity":52,"Duration":91463,"SoundDuration":91463,"Delta":407299107},{"NoteNumber":53,"Velocity":80,"Duration":97459,"SoundDuration":97459,"Delta":407390570},{"NoteNumber":29,"Velocity":62,"Duration":97459,"SoundDuration":97459,"Delta":407390570},{"NoteNumber":48,"Velocity":64,"Duration":97459,"SoundDuration":97459,"Delta":407488030},{"NoteNumber":36,"Velocity":52,"Duration":97459,"SoundDuration":97459,"Delta":407488030},{"NoteNumber":61,"Velocity":83,"Duration":90252,"SoundDuration":90252,"Delta":407585489},{"NoteNumber":29,"Velocity":64,"Duration":90252,"SoundDuration":90252,"Delta":407585489},{"NoteNumber":56,"Velocity":66,"Duration":90252,"SoundDuration":90252,"Delta":407675742},{"NoteNumber":37,"Velocity":52,"Duration":90252,"SoundDuration":90252,"Delta":407675742},{"NoteNumber":53,"Velocity":66,"Duration":90252,"SoundDuration":90252,"Delta":407765995},{"NoteNumber":41,"Velocity":52,"Duration":90252,"SoundDuration":90252,"Delta":407765995},{"NoteNumber":56,"Velocity":66,"Duration":90252,"SoundDuration":90252,"Delta":407856247},{"NoteNumber":37,"Velocity":52,"Duration":90252,"SoundDuration":90252,"Delta":407856247},{"NoteNumber":61,"Velocity":77,"Duration":97125,"SoundDuration":97125,"Delta":407946500},{"NoteNumber":29,"Velocity":58,"Duration":97125,"SoundDuration":97125,"Delta":407946500},{"NoteNumber":56,"Velocity":64,"Duration":97125,"SoundDuration":97125,"Delta":408043625},{"NoteNumber":37,"Velocity":51,"Duration":97125,"SoundDuration":97125,"Delta":408043625},{"NoteNumber":65,"Velocity":84,"Duration":91185,"SoundDuration":91185,"Delta":408140750},{"NoteNumber":29,"Velocity":68,"Duration":91185,"SoundDuration":91185,"Delta":408140750},{"NoteNumber":56,"Velocity":66,"Duration":91185,"SoundDuration":91185,"Delta":408231936},{"NoteNumber":37,"Velocity":52,"Duration":91185,"SoundDuration":91185,"Delta":408231936},{"NoteNumber":63,"Velocity":83,"Duration":91185,"SoundDuration":91185,"Delta":408323121},{"NoteNumber":29,"Velocity":64,"Duration":91185,"SoundDuration":91185,"Delta":408323121},{"NoteNumber":56,"Velocity":66,"Duration":91185,"SoundDuration":91185,"Delta":408414307},{"NoteNumber":37,"Velocity":52,"Duration":91185,"SoundDuration":91185,"Delta":408414307},{"NoteNumber":61,"Velocity":81,"Duration":93556,"SoundDuration":93556,"Delta":408505492},{"NoteNumber":29,"Velocity":62,"Duration":93556,"SoundDuration":93556,"Delta":408505492},{"NoteNumber":56,"Velocity":66,"Duration":93557,"SoundDuration":93557,"Delta":408599049},{"NoteNumber":37,"Velocity":52,"Duration":93557,"SoundDuration":93557,"Delta":408599049},{"NoteNumber":61,"Velocity":83,"Duration":90252,"SoundDuration":90252,"Delta":408692606},{"NoteNumber":29,"Velocity":64,"Duration":90252,"SoundDuration":90252,"Delta":408692606},{"NoteNumber":56,"Velocity":63,"Duration":90252,"SoundDuration":90252,"Delta":408782859},{"NoteNumber":37,"Velocity":52,"Duration":90252,"SoundDuration":90252,"Delta":408782859},{"NoteNumber":53,"Velocity":63,"Duration":90252,"SoundDuration":90252,"Delta":408873112},{"NoteNumber":41,"Velocity":52,"Duration":90252,"SoundDuration":90252,"Delta":408873112},{"NoteNumber":56,"Velocity":63,"Duration":90252,"SoundDuration":90252,"Delta":408963364},{"NoteNumber":37,"Velocity":52,"Duration":90252,"SoundDuration":90252,"Delta":408963364},{"NoteNumber":61,"Velocity":75,"Duration":95791,"SoundDuration":95791,"Delta":409053617},{"NoteNumber":29,"Velocity":58,"Duration":95791,"SoundDuration":95791,"Delta":409053617},{"NoteNumber":56,"Velocity":62,"Duration":95791,"SoundDuration":95791,"Delta":409149409},{"NoteNumber":37,"Velocity":51,"Duration":95791,"SoundDuration":95791,"Delta":409149409},{"NoteNumber":65,"Velocity":83,"Duration":91463,"SoundDuration":91463,"Delta":409245200},{"NoteNumber":29,"Velocity":68,"Duration":91463,"SoundDuration":91463,"Delta":409245200},{"NoteNumber":56,"Velocity":63,"Duration":91463,"SoundDuration":91463,"Delta":409336664},{"NoteNumber":37,"Velocity":52,"Duration":91463,"SoundDuration":91463,"Delta":409336664},{"NoteNumber":63,"Velocity":80,"Duration":91463,"SoundDuration":91463,"Delta":409428127},{"NoteNumber":29,"Velocity":64,"Duration":91463,"SoundDuration":91463,"Delta":409428127},{"NoteNumber":56,"Velocity":66,"Duration":91463,"SoundDuration":91463,"Delta":409519591},{"NoteNumber":37,"Velocity":52,"Duration":91463,"SoundDuration":91463,"Delta":409519591},{"NoteNumber":61,"Velocity":80,"Duration":94822,"SoundDuration":94822,"Delta":409611054},{"NoteNumber":29,"Velocity":62,"Duration":94822,"SoundDuration":94822,"Delta":409611054},{"NoteNumber":56,"Velocity":64,"Duration":94822,"SoundDuration":94822,"Delta":409705877},{"NoteNumber":37,"Velocity":52,"Duration":94822,"SoundDuration":94822,"Delta":409705877},{"NoteNumber":70,"Velocity":93,"Duration":89361,"SoundDuration":89361,"Delta":409800700},{"NoteNumber":42,"Velocity":107,"Duration":1618363,"SoundDuration":1618363,"Delta":409800700},{"NoteNumber":30,"Velocity":91,"Duration":1618363,"SoundDuration":1618363,"Delta":409800700},{"NoteNumber":73,"Velocity":74,"Duration":89897,"SoundDuration":89897,"Delta":409890062},{"NoteNumber":70,"Velocity":76,"Duration":89668,"SoundDuration":89668,"Delta":409979960},{"NoteNumber":73,"Velocity":67,"Duration":90956,"SoundDuration":90956,"Delta":410069628},{"NoteNumber":70,"Velocity":72,"Duration":89579,"SoundDuration":89579,"Delta":410160585},{"NoteNumber":73,"Velocity":67,"Duration":89671,"SoundDuration":89671,"Delta":410250165},{"NoteNumber":70,"Velocity":72,"Duration":89805,"SoundDuration":89805,"Delta":410339836},{"NoteNumber":73,"Velocity":67,"Duration":89987,"SoundDuration":89987,"Delta":410429641},{"NoteNumber":70,"Velocity":72,"Duration":90077,"SoundDuration":90077,"Delta":410519628},{"NoteNumber":73,"Velocity":67,"Duration":89672,"SoundDuration":89672,"Delta":410609706},{"NoteNumber":70,"Velocity":72,"Duration":90581,"SoundDuration":90581,"Delta":410699378},{"NoteNumber":73,"Velocity":67,"Duration":90123,"SoundDuration":90123,"Delta":410789960},{"NoteNumber":70,"Velocity":76,"Duration":89896,"SoundDuration":89896,"Delta":410880083},{"NoteNumber":73,"Velocity":67,"Duration":90122,"SoundDuration":90122,"Delta":410969979},{"NoteNumber":70,"Velocity":76,"Duration":89085,"SoundDuration":89085,"Delta":411060102},{"NoteNumber":73,"Velocity":67,"Duration":90445,"SoundDuration":90445,"Delta":411149187},{"NoteNumber":70,"Velocity":76,"Duration":89442,"SoundDuration":89442,"Delta":411239632},{"NoteNumber":73,"Velocity":67,"Duration":89987,"SoundDuration":89987,"Delta":411329075},{"NoteNumber":70,"Velocity":95,"Duration":91329,"SoundDuration":91329,"Delta":411419063},{"NoteNumber":31,"Velocity":74,"Duration":182659,"SoundDuration":182659,"Delta":411419063},{"NoteNumber":43,"Velocity":88,"Duration":182659,"SoundDuration":182659,"Delta":411419063},{"NoteNumber":73,"Velocity":78,"Duration":91329,"SoundDuration":91329,"Delta":411510393},{"NoteNumber":67,"Velocity":89,"Duration":91329,"SoundDuration":91329,"Delta":411601722},{"NoteNumber":34,"Velocity":72,"Duration":182659,"SoundDuration":182659,"Delta":411601722},{"NoteNumber":70,"Velocity":78,"Duration":91329,"SoundDuration":91329,"Delta":411693052},{"NoteNumber":64,"Velocity":84,"Duration":93347,"SoundDuration":93347,"Delta":411784382},{"NoteNumber":37,"Velocity":82,"Duration":186694,"SoundDuration":186694,"Delta":411784382},{"NoteNumber":67,"Velocity":77,"Duration":93347,"SoundDuration":93347,"Delta":411877729},{"NoteNumber":61,"Velocity":82,"Duration":90214,"SoundDuration":90214,"Delta":411971077},{"NoteNumber":40,"Velocity":95,"Duration":180429,"SoundDuration":180429,"Delta":411971077},{"NoteNumber":64,"Velocity":70,"Duration":90214,"SoundDuration":90214,"Delta":412061292},{"NoteNumber":58,"Velocity":81,"Duration":90214,"SoundDuration":90214,"Delta":412151506},{"NoteNumber":43,"Velocity":82,"Duration":180429,"SoundDuration":180429,"Delta":412151506},{"NoteNumber":61,"Velocity":71,"Duration":90214,"SoundDuration":90214,"Delta":412241721},{"NoteNumber":55,"Velocity":82,"Duration":90214,"SoundDuration":90214,"Delta":412331936},{"NoteNumber":46,"Velocity":82,"Duration":180429,"SoundDuration":180429,"Delta":412331936},{"NoteNumber":58,"Velocity":68,"Duration":90214,"SoundDuration":90214,"Delta":412422151},{"NoteNumber":53,"Velocity":81,"Duration":90214,"SoundDuration":90214,"Delta":412512365},{"NoteNumber":49,"Velocity":85,"Duration":172911,"SoundDuration":172911,"Delta":412512365},{"NoteNumber":55,"Velocity":70,"Duration":90214,"SoundDuration":90214,"Delta":412602580},{"NoteNumber":58,"Velocity":80,"Duration":90214,"SoundDuration":90214,"Delta":412692795},{"NoteNumber":49,"Velocity":83,"Duration":172911,"SoundDuration":172911,"Delta":412692795},{"NoteNumber":55,"Velocity":70,"Duration":90214,"SoundDuration":90214,"Delta":412783010},{"NoteNumber":53,"Velocity":80,"Duration":97018,"SoundDuration":97018,"Delta":412873224},{"NoteNumber":49,"Velocity":83,"Duration":185951,"SoundDuration":185951,"Delta":412873224},{"NoteNumber":55,"Velocity":69,"Duration":97018,"SoundDuration":97018,"Delta":412970243},{"NoteNumber":49,"Velocity":97,"Duration":541288,"SoundDuration":541288,"Delta":413067261},{"NoteNumber":53,"Velocity":70,"Duration":90214,"SoundDuration":90214,"Delta":413157476},{"NoteNumber":58,"Velocity":80,"Duration":90214,"SoundDuration":90214,"Delta":413247690},{"NoteNumber":55,"Velocity":69,"Duration":90214,"SoundDuration":90214,"Delta":413337905},{"NoteNumber":53,"Velocity":77,"Duration":90214,"SoundDuration":90214,"Delta":413428120},{"NoteNumber":58,"Velocity":70,"Duration":90214,"SoundDuration":90214,"Delta":413518335},{"NoteNumber":48,"Velocity":89,"Duration":541288,"SoundDuration":541288,"Delta":413608549},{"NoteNumber":52,"Velocity":69,"Duration":90214,"SoundDuration":90214,"Delta":413698764},{"NoteNumber":58,"Velocity":80,"Duration":90214,"SoundDuration":90214,"Delta":413788979},{"NoteNumber":55,"Velocity":69,"Duration":90214,"SoundDuration":90214,"Delta":413879194},{"NoteNumber":52,"Velocity":78,"Duration":90214,"SoundDuration":90214,"Delta":413969408},{"NoteNumber":58,"Velocity":69,"Duration":90214,"SoundDuration":90214,"Delta":414059623},{"NoteNumber":65,"Velocity":83,"Duration":91329,"SoundDuration":91329,"Delta":414149838},{"NoteNumber":41,"Velocity":64,"Duration":91329,"SoundDuration":91329,"Delta":414149838},{"NoteNumber":60,"Velocity":66,"Duration":91329,"SoundDuration":91329,"Delta":414241168},{"NoteNumber":48,"Velocity":52,"Duration":91329,"SoundDuration":91329,"Delta":414241168},{"NoteNumber":56,"Velocity":66,"Duration":91329,"SoundDuration":91329,"Delta":414332497},{"NoteNumber":53,"Velocity":52,"Duration":91329,"SoundDuration":91329,"Delta":414332497},{"NoteNumber":60,"Velocity":66,"Duration":91329,"SoundDuration":91329,"Delta":414423827},{"NoteNumber":48,"Velocity":52,"Duration":91329,"SoundDuration":91329,"Delta":414423827},{"NoteNumber":65,"Velocity":80,"Duration":97125,"SoundDuration":97125,"Delta":414515157},{"NoteNumber":41,"Velocity":58,"Duration":97125,"SoundDuration":97125,"Delta":414515157},{"NoteNumber":60,"Velocity":64,"Duration":97125,"SoundDuration":97125,"Delta":414612282},{"NoteNumber":48,"Velocity":51,"Duration":97125,"SoundDuration":97125,"Delta":414612282},{"NoteNumber":68,"Velocity":84,"Duration":91185,"SoundDuration":91185,"Delta":414709407},{"NoteNumber":41,"Velocity":68,"Duration":91185,"SoundDuration":91185,"Delta":414709407},{"NoteNumber":60,"Velocity":66,"Duration":91185,"SoundDuration":91185,"Delta":414800592},{"NoteNumber":48,"Velocity":52,"Duration":91185,"SoundDuration":91185,"Delta":414800592},{"NoteNumber":67,"Velocity":83,"Duration":91185,"SoundDuration":91185,"Delta":414891778},{"NoteNumber":41,"Velocity":64,"Duration":91185,"SoundDuration":91185,"Delta":414891778},{"NoteNumber":60,"Velocity":66,"Duration":91185,"SoundDuration":91185,"Delta":414982963},{"NoteNumber":48,"Velocity":52,"Duration":91185,"SoundDuration":91185,"Delta":414982963},{"NoteNumber":65,"Velocity":81,"Duration":93556,"SoundDuration":93556,"Delta":415074149},{"NoteNumber":41,"Velocity":62,"Duration":93556,"SoundDuration":93556,"Delta":415074149},{"NoteNumber":60,"Velocity":66,"Duration":93557,"SoundDuration":93557,"Delta":415167706},{"NoteNumber":48,"Velocity":52,"Duration":93557,"SoundDuration":93557,"Delta":415167706},{"NoteNumber":65,"Velocity":83,"Duration":90252,"SoundDuration":90252,"Delta":415261263},{"NoteNumber":41,"Velocity":64,"Duration":90252,"SoundDuration":90252,"Delta":415261263},{"NoteNumber":60,"Velocity":63,"Duration":90252,"SoundDuration":90252,"Delta":415351516},{"NoteNumber":48,"Velocity":52,"Duration":90252,"SoundDuration":90252,"Delta":415351516},{"NoteNumber":56,"Velocity":63,"Duration":90252,"SoundDuration":90252,"Delta":415441768},{"NoteNumber":53,"Velocity":52,"Duration":90252,"SoundDuration":90252,"Delta":415441768},{"NoteNumber":60,"Velocity":63,"Duration":90252,"SoundDuration":90252,"Delta":415532021},{"NoteNumber":48,"Velocity":52,"Duration":90252,"SoundDuration":90252,"Delta":415532021},{"NoteNumber":65,"Velocity":80,"Duration":95791,"SoundDuration":95791,"Delta":415622274},{"NoteNumber":41,"Velocity":58,"Duration":95791,"SoundDuration":95791,"Delta":415622274},{"NoteNumber":60,"Velocity":62,"Duration":95791,"SoundDuration":95791,"Delta":415718065},{"NoteNumber":48,"Velocity":51,"Duration":95791,"SoundDuration":95791,"Delta":415718065},{"NoteNumber":68,"Velocity":83,"Duration":91463,"SoundDuration":91463,"Delta":415813857},{"NoteNumber":41,"Velocity":68,"Duration":91463,"SoundDuration":91463,"Delta":415813857},{"NoteNumber":60,"Velocity":63,"Duration":91463,"SoundDuration":91463,"Delta":415905320},{"NoteNumber":48,"Velocity":52,"Duration":91463,"SoundDuration":91463,"Delta":415905320},{"NoteNumber":67,"Velocity":80,"Duration":91463,"SoundDuration":91463,"Delta":415996784},{"NoteNumber":41,"Velocity":64,"Duration":91463,"SoundDuration":91463,"Delta":415996784},{"NoteNumber":60,"Velocity":66,"Duration":91463,"SoundDuration":91463,"Delta":416088247},{"NoteNumber":48,"Velocity":52,"Duration":91463,"SoundDuration":91463,"Delta":416088247},{"NoteNumber":65,"Velocity":80,"Duration":97459,"SoundDuration":97459,"Delta":416179711},{"NoteNumber":41,"Velocity":62,"Duration":97459,"SoundDuration":97459,"Delta":416179711},{"NoteNumber":60,"Velocity":64,"Duration":97459,"SoundDuration":97459,"Delta":416277170},{"NoteNumber":48,"Velocity":52,"Duration":97459,"SoundDuration":97459,"Delta":416277170},{"NoteNumber":73,"Velocity":83,"Duration":90252,"SoundDuration":90252,"Delta":416374630},{"NoteNumber":41,"Velocity":64,"Duration":90252,"SoundDuration":90252,"Delta":416374630},{"NoteNumber":68,"Velocity":66,"Duration":90252,"SoundDuration":90252,"Delta":416464883},{"NoteNumber":49,"Velocity":52,"Duration":90252,"SoundDuration":90252,"Delta":416464883},{"NoteNumber":65,"Velocity":66,"Duration":90252,"SoundDuration":90252,"Delta":416555135},{"NoteNumber":53,"Velocity":52,"Duration":90252,"SoundDuration":90252,"Delta":416555135},{"NoteNumber":68,"Velocity":66,"Duration":90252,"SoundDuration":90252,"Delta":416645388},{"NoteNumber":49,"Velocity":52,"Duration":90252,"SoundDuration":90252,"Delta":416645388},{"NoteNumber":73,"Velocity":80,"Duration":97125,"SoundDuration":97125,"Delta":416735641},{"NoteNumber":41,"Velocity":58,"Duration":97125,"SoundDuration":97125,"Delta":416735641},{"NoteNumber":68,"Velocity":64,"Duration":97125,"SoundDuration":97125,"Delta":416832766},{"NoteNumber":49,"Velocity":51,"Duration":97125,"SoundDuration":97125,"Delta":416832766},{"NoteNumber":77,"Velocity":84,"Duration":91463,"SoundDuration":91463,"Delta":416929891},{"NoteNumber":41,"Velocity":68,"Duration":91463,"SoundDuration":91463,"Delta":416929891},{"NoteNumber":68,"Velocity":66,"Duration":91463,"SoundDuration":91463,"Delta":417021354},{"NoteNumber":49,"Velocity":52,"Duration":91463,"SoundDuration":91463,"Delta":417021354},{"NoteNumber":75,"Velocity":83,"Duration":91463,"SoundDuration":91463,"Delta":417112818},{"NoteNumber":41,"Velocity":64,"Duration":91463,"SoundDuration":91463,"Delta":417112818},{"NoteNumber":68,"Velocity":66,"Duration":91463,"SoundDuration":91463,"Delta":417204281},{"NoteNumber":49,"Velocity":52,"Duration":91463,"SoundDuration":91463,"Delta":417204281},{"NoteNumber":73,"Velocity":81,"Duration":93556,"SoundDuration":93556,"Delta":417295745},{"NoteNumber":41,"Velocity":62,"Duration":93556,"SoundDuration":93556,"Delta":417295745},{"NoteNumber":68,"Velocity":66,"Duration":93557,"SoundDuration":93557,"Delta":417389302},{"NoteNumber":49,"Velocity":52,"Duration":93557,"SoundDuration":93557,"Delta":417389302},{"NoteNumber":73,"Velocity":83,"Duration":90252,"SoundDuration":90252,"Delta":417482859},{"NoteNumber":41,"Velocity":64,"Duration":90252,"SoundDuration":90252,"Delta":417482859},{"NoteNumber":68,"Velocity":63,"Duration":90252,"SoundDuration":90252,"Delta":417573112},{"NoteNumber":49,"Velocity":52,"Duration":90252,"SoundDuration":90252,"Delta":417573112},{"NoteNumber":65,"Velocity":63,"Duration":90252,"SoundDuration":90252,"Delta":417663364},{"NoteNumber":53,"Velocity":52,"Duration":90252,"SoundDuration":90252,"Delta":417663364},{"NoteNumber":68,"Velocity":63,"Duration":90252,"SoundDuration":90252,"Delta":417753617},{"NoteNumber":49,"Velocity":52,"Duration":90252,"SoundDuration":90252,"Delta":417753617},{"NoteNumber":73,"Velocity":80,"Duration":95791,"SoundDuration":95791,"Delta":417843870},{"NoteNumber":41,"Velocity":58,"Duration":95791,"SoundDuration":95791,"Delta":417843870},{"NoteNumber":68,"Velocity":62,"Duration":95791,"SoundDuration":95791,"Delta":417939661},{"NoteNumber":49,"Velocity":51,"Duration":95791,"SoundDuration":95791,"Delta":417939661},{"NoteNumber":77,"Velocity":83,"Duration":91185,"SoundDuration":91185,"Delta":418035453},{"NoteNumber":41,"Velocity":68,"Duration":91185,"SoundDuration":91185,"Delta":418035453},{"NoteNumber":68,"Velocity":63,"Duration":91185,"SoundDuration":91185,"Delta":418126638},{"NoteNumber":49,"Velocity":52,"Duration":91185,"SoundDuration":91185,"Delta":418126638},{"NoteNumber":75,"Velocity":80,"Duration":91185,"SoundDuration":91185,"Delta":418217824},{"NoteNumber":41,"Velocity":64,"Duration":91185,"SoundDuration":91185,"Delta":418217824},{"NoteNumber":68,"Velocity":66,"Duration":91185,"SoundDuration":91185,"Delta":418309009},{"NoteNumber":49,"Velocity":52,"Duration":91185,"SoundDuration":91185,"Delta":418309009},{"NoteNumber":73,"Velocity":80,"Duration":94822,"SoundDuration":94822,"Delta":418400195},{"NoteNumber":41,"Velocity":62,"Duration":94822,"SoundDuration":94822,"Delta":418400195},{"NoteNumber":68,"Velocity":64,"Duration":94822,"SoundDuration":94822,"Delta":418495018},{"NoteNumber":49,"Velocity":52,"Duration":94822,"SoundDuration":94822,"Delta":418495018},{"NoteNumber":82,"Velocity":93,"Duration":89361,"SoundDuration":89361,"Delta":418589840},{"NoteNumber":42,"Velocity":90,"Duration":1618363,"SoundDuration":1618363,"Delta":418589840},{"NoteNumber":54,"Velocity":106,"Duration":1618363,"SoundDuration":1618363,"Delta":418589840},{"NoteNumber":85,"Velocity":75,"Duration":89897,"SoundDuration":89897,"Delta":418679202},{"NoteNumber":82,"Velocity":80,"Duration":89668,"SoundDuration":89668,"Delta":418769100},{"NoteNumber":85,"Velocity":69,"Duration":90956,"SoundDuration":90956,"Delta":418858769},{"NoteNumber":82,"Velocity":77,"Duration":89579,"SoundDuration":89579,"Delta":418949725},{"NoteNumber":85,"Velocity":69,"Duration":89671,"SoundDuration":89671,"Delta":419039305},{"NoteNumber":82,"Velocity":78,"Duration":89805,"SoundDuration":89805,"Delta":419128976},{"NoteNumber":85,"Velocity":69,"Duration":89987,"SoundDuration":89987,"Delta":419218782},{"NoteNumber":82,"Velocity":74,"Duration":90077,"SoundDuration":90077,"Delta":419308769},{"NoteNumber":85,"Velocity":69,"Duration":89672,"SoundDuration":89672,"Delta":419398846},{"NoteNumber":82,"Velocity":74,"Duration":90581,"SoundDuration":90581,"Delta":419488519},{"NoteNumber":85,"Velocity":69,"Duration":90123,"SoundDuration":90123,"Delta":419579100},{"NoteNumber":82,"Velocity":74,"Duration":89896,"SoundDuration":89896,"Delta":419669224},{"NoteNumber":85,"Velocity":69,"Duration":90122,"SoundDuration":90122,"Delta":419759120},{"NoteNumber":82,"Velocity":74,"Duration":89085,"SoundDuration":89085,"Delta":419849242},{"NoteNumber":85,"Velocity":69,"Duration":90445,"SoundDuration":90445,"Delta":419938328},{"NoteNumber":82,"Velocity":74,"Duration":89442,"SoundDuration":89442,"Delta":420028773},{"NoteNumber":85,"Velocity":69,"Duration":89987,"SoundDuration":89987,"Delta":420118216},{"NoteNumber":82,"Velocity":75,"Duration":91329,"SoundDuration":91329,"Delta":420208203},{"NoteNumber":55,"Velocity":88,"Duration":182659,"SoundDuration":182659,"Delta":420208203},{"NoteNumber":43,"Velocity":59,"Duration":182659,"SoundDuration":182659,"Delta":420208203},{"NoteNumber":85,"Velocity":69,"Duration":91329,"SoundDuration":91329,"Delta":420299533},{"NoteNumber":82,"Velocity":77,"Duration":91329,"SoundDuration":91329,"Delta":420390863},{"NoteNumber":46,"Velocity":58,"Duration":182659,"SoundDuration":182659,"Delta":420390863},{"NoteNumber":58,"Velocity":72,"Duration":182659,"SoundDuration":182659,"Delta":420390863},{"NoteNumber":85,"Velocity":69,"Duration":91329,"SoundDuration":91329,"Delta":420482193},{"NoteNumber":82,"Velocity":77,"Duration":93347,"SoundDuration":93347,"Delta":420573522},{"NoteNumber":49,"Velocity":63,"Duration":186694,"SoundDuration":186694,"Delta":420573522},{"NoteNumber":61,"Velocity":82,"Duration":186694,"SoundDuration":186694,"Delta":420573522},{"NoteNumber":85,"Velocity":69,"Duration":93347,"SoundDuration":93347,"Delta":420666870},{"NoteNumber":82,"Velocity":82,"Duration":90214,"SoundDuration":90214,"Delta":420760217},{"NoteNumber":64,"Velocity":95,"Duration":180429,"SoundDuration":180429,"Delta":420760217},{"NoteNumber":52,"Velocity":75,"Duration":180429,"SoundDuration":180429,"Delta":420760217},{"NoteNumber":85,"Velocity":70,"Duration":90214,"SoundDuration":90214,"Delta":420850432},{"NoteNumber":79,"Velocity":81,"Duration":90214,"SoundDuration":90214,"Delta":420940647},{"NoteNumber":55,"Velocity":63,"Duration":180429,"SoundDuration":180429,"Delta":420940647},{"NoteNumber":67,"Velocity":82,"Duration":180429,"SoundDuration":180429,"Delta":420940647},{"NoteNumber":82,"Velocity":71,"Duration":90214,"SoundDuration":90214,"Delta":421030862},{"NoteNumber":77,"Velocity":82,"Duration":90214,"SoundDuration":90214,"Delta":421121076},{"NoteNumber":58,"Velocity":63,"Duration":180429,"SoundDuration":180429,"Delta":421121076},{"NoteNumber":70,"Velocity":82,"Duration":180429,"SoundDuration":180429,"Delta":421121076},{"NoteNumber":79,"Velocity":68,"Duration":90214,"SoundDuration":90214,"Delta":421211291},{"NoteNumber":77,"Velocity":81,"Duration":90214,"SoundDuration":90214,"Delta":421301506},{"NoteNumber":73,"Velocity":85,"Duration":172911,"SoundDuration":172911,"Delta":421301506},{"NoteNumber":61,"Velocity":68,"Duration":172911,"SoundDuration":172911,"Delta":421301506},{"NoteNumber":79,"Velocity":70,"Duration":90214,"SoundDuration":90214,"Delta":421391721},{"NoteNumber":82,"Velocity":80,"Duration":90214,"SoundDuration":90214,"Delta":421481935},{"NoteNumber":61,"Velocity":64,"Duration":172911,"SoundDuration":172911,"Delta":421481935},{"NoteNumber":73,"Velocity":83,"Duration":172911,"SoundDuration":172911,"Delta":421481935},{"NoteNumber":79,"Velocity":70,"Duration":90214,"SoundDuration":90214,"Delta":421572150},{"NoteNumber":77,"Velocity":80,"Duration":97018,"SoundDuration":97018,"Delta":421662365},{"NoteNumber":61,"Velocity":64,"Duration":185951,"SoundDuration":185951,"Delta":421662365},{"NoteNumber":73,"Velocity":83,"Duration":185951,"SoundDuration":185951,"Delta":421662365},{"NoteNumber":79,"Velocity":69,"Duration":97018,"SoundDuration":97018,"Delta":421759383},{"NoteNumber":73,"Velocity":102,"Duration":541288,"SoundDuration":541288,"Delta":421856401},{"NoteNumber":61,"Velocity":80,"Duration":541288,"SoundDuration":541288,"Delta":421856401},{"NoteNumber":77,"Velocity":72,"Duration":90214,"SoundDuration":90214,"Delta":421946616},{"NoteNumber":82,"Velocity":82,"Duration":90214,"SoundDuration":90214,"Delta":422036831},{"NoteNumber":79,"Velocity":70,"Duration":90214,"SoundDuration":90214,"Delta":422127046},{"NoteNumber":77,"Velocity":77,"Duration":90214,"SoundDuration":90214,"Delta":422217260},{"NoteNumber":82,"Velocity":69,"Duration":90214,"SoundDuration":90214,"Delta":422307475},{"NoteNumber":60,"Velocity":69,"Duration":547021,"SoundDuration":547021,"Delta":422397690},{"NoteNumber":72,"Velocity":86,"Duration":547021,"SoundDuration":547021,"Delta":422397690},{"NoteNumber":76,"Velocity":67,"Duration":90214,"SoundDuration":90214,"Delta":422487905},{"NoteNumber":82,"Velocity":75,"Duration":90214,"SoundDuration":90214,"Delta":422578119},{"NoteNumber":79,"Velocity":64,"Duration":90214,"SoundDuration":90214,"Delta":422668334},{"NoteNumber":76,"Velocity":72,"Duration":93080,"SoundDuration":93080,"Delta":422758549},{"NoteNumber":82,"Velocity":62,"Duration":93081,"SoundDuration":93081,"Delta":422851630},{"NoteNumber":65,"Velocity":102,"Duration":541288,"SoundDuration":541288,"Delta":422944711},{"NoteNumber":73,"Velocity":72,"Duration":90214,"SoundDuration":90214,"Delta":423034926},{"NoteNumber":82,"Velocity":82,"Duration":90214,"SoundDuration":90214,"Delta":423125140},{"NoteNumber":79,"Velocity":70,"Duration":90214,"SoundDuration":90214,"Delta":423215355},{"NoteNumber":73,"Velocity":77,"Duration":90214,"SoundDuration":90214,"Delta":423305570},{"NoteNumber":82,"Velocity":69,"Duration":90214,"SoundDuration":90214,"Delta":423395785},{"NoteNumber":64,"Velocity":86,"Duration":546410,"SoundDuration":546410,"Delta":423485999},{"NoteNumber":72,"Velocity":67,"Duration":90214,"SoundDuration":90214,"Delta":423576214},{"NoteNumber":82,"Velocity":75,"Duration":90214,"SoundDuration":90214,"Delta":423666429},{"NoteNumber":79,"Velocity":64,"Duration":90214,"SoundDuration":90214,"Delta":423756644},{"NoteNumber":72,"Velocity":72,"Duration":92775,"SoundDuration":92775,"Delta":423846858},{"NoteNumber":82,"Velocity":62,"Duration":92775,"SoundDuration":92775,"Delta":423939634},{"NoteNumber":73,"Velocity":102,"Duration":541288,"SoundDuration":541288,"Delta":424032410},{"NoteNumber":77,"Velocity":72,"Duration":90214,"SoundDuration":90214,"Delta":424122625},{"NoteNumber":82,"Velocity":82,"Duration":90214,"SoundDuration":90214,"Delta":424212839},{"NoteNumber":79,"Velocity":70,"Duration":90214,"SoundDuration":90214,"Delta":424303054},{"NoteNumber":77,"Velocity":77,"Duration":90214,"SoundDuration":90214,"Delta":424393269},{"NoteNumber":82,"Velocity":69,"Duration":90214,"SoundDuration":90214,"Delta":424483484},{"NoteNumber":72,"Velocity":86,"Duration":541288,"SoundDuration":541288,"Delta":424573698},{"NoteNumber":76,"Velocity":67,"Duration":90214,"SoundDuration":90214,"Delta":424663913},{"NoteNumber":82,"Velocity":75,"Duration":90214,"SoundDuration":90214,"Delta":424754128},{"NoteNumber":79,"Velocity":64,"Duration":90214,"SoundDuration":90214,"Delta":424844343},{"NoteNumber":76,"Velocity":72,"Duration":90214,"SoundDuration":90214,"Delta":424934557},{"NoteNumber":82,"Velocity":62,"Duration":90214,"SoundDuration":90214,"Delta":425024772},{"NoteNumber":71,"Velocity":97,"Duration":1062898,"SoundDuration":1062898,"Delta":425114987},{"NoteNumber":74,"Velocity":91,"Duration":973029,"SoundDuration":973029,"Delta":425204856},{"NoteNumber":77,"Velocity":95,"Duration":883346,"SoundDuration":883346,"Delta":425294538},{"NoteNumber":80,"Velocity":87,"Duration":793941,"SoundDuration":793941,"Delta":425383943},{"NoteNumber":83,"Velocity":83,"Duration":88939,"SoundDuration":88939,"Delta":425473162},{"NoteNumber":86,"Velocity":79,"Duration":88666,"SoundDuration":88666,"Delta":425562102},{"NoteNumber":89,"Velocity":87,"Duration":88485,"SoundDuration":88485,"Delta":425650768},{"NoteNumber":86,"Velocity":79,"Duration":88209,"SoundDuration":88209,"Delta":425739254},{"NoteNumber":83,"Velocity":86,"Duration":87940,"SoundDuration":87940,"Delta":425827463},{"NoteNumber":92,"Velocity":83,"Duration":87762,"SoundDuration":87762,"Delta":425915403},{"NoteNumber":91,"Velocity":84,"Duration":87492,"SoundDuration":87492,"Delta":426003166},{"NoteNumber":89,"Velocity":79,"Duration":87226,"SoundDuration":87226,"Delta":426090658},{"NoteNumber":88,"Velocity":79,"Duration":87138,"SoundDuration":87138,"Delta":426177885},{"NoteNumber":72,"Velocity":85,"Duration":1073130,"SoundDuration":1073130,"Delta":426177885},{"NoteNumber":91,"Velocity":74,"Duration":87138,"SoundDuration":87138,"Delta":426265023},{"NoteNumber":76,"Velocity":77,"Duration":985991,"SoundDuration":985991,"Delta":426265023},{"NoteNumber":89,"Velocity":79,"Duration":87138,"SoundDuration":87138,"Delta":426352162},{"NoteNumber":79,"Velocity":77,"Duration":898853,"SoundDuration":898853,"Delta":426352162},{"NoteNumber":88,"Velocity":72,"Duration":87138,"SoundDuration":87138,"Delta":426439300},{"NoteNumber":85,"Velocity":73,"Duration":87402,"SoundDuration":87402,"Delta":426526439},{"NoteNumber":84,"Velocity":72,"Duration":87402,"SoundDuration":87402,"Delta":426613841},{"NoteNumber":82,"Velocity":78,"Duration":87582,"SoundDuration":87582,"Delta":426701244},{"NoteNumber":85,"Velocity":73,"Duration":87673,"SoundDuration":87673,"Delta":426788827},{"NoteNumber":84,"Velocity":75,"Duration":87851,"SoundDuration":87851,"Delta":426876500},{"NoteNumber":82,"Velocity":72,"Duration":87940,"SoundDuration":87940,"Delta":426964352},{"NoteNumber":80,"Velocity":71,"Duration":88030,"SoundDuration":88030,"Delta":427052292},{"NoteNumber":79,"Velocity":70,"Duration":110693,"SoundDuration":110693,"Delta":427140322},{"NoteNumber":68,"Velocity":41,"Duration":534213,"SoundDuration":534213,"Delta":427251015},{"NoteNumber":65,"Velocity":41,"Duration":534213,"SoundDuration":534213,"Delta":427251015},{"NoteNumber":77,"Velocity":39,"Duration":92592,"SoundDuration":92592,"Delta":427343799},{"NoteNumber":80,"Velocity":41,"Duration":87209,"SoundDuration":87209,"Delta":427436391},{"NoteNumber":84,"Velocity":43,"Duration":87209,"SoundDuration":87209,"Delta":427523601},{"NoteNumber":89,"Velocity":45,"Duration":87209,"SoundDuration":87209,"Delta":427610810},{"NoteNumber":77,"Velocity":41,"Duration":87209,"SoundDuration":87209,"Delta":427698019},{"NoteNumber":73,"Velocity":40,"Duration":526878,"SoundDuration":526878,"Delta":427785228},{"NoteNumber":70,"Velocity":40,"Duration":526878,"SoundDuration":526878,"Delta":427785228},{"NoteNumber":89,"Velocity":45,"Duration":87209,"SoundDuration":87209,"Delta":428050479},{"NoteNumber":77,"Velocity":41,"Duration":87209,"SoundDuration":87209,"Delta":428137688},{"NoteNumber":89,"Velocity":45,"Duration":87209,"SoundDuration":87209,"Delta":428224898},{"NoteNumber":72,"Velocity":41,"Duration":525867,"SoundDuration":525867,"Delta":428312107},{"NoteNumber":68,"Velocity":41,"Duration":525867,"SoundDuration":525867,"Delta":428312107},{"NoteNumber":89,"Velocity":44,"Duration":86956,"SoundDuration":86956,"Delta":428577105},{"NoteNumber":77,"Velocity":41,"Duration":86956,"SoundDuration":86956,"Delta":428664061},{"NoteNumber":89,"Velocity":44,"Duration":86956,"SoundDuration":86956,"Delta":428751018},{"NoteNumber":72,"Velocity":55,"Duration":514030,"SoundDuration":514030,"Delta":428837974},{"NoteNumber":70,"Velocity":55,"Duration":514030,"SoundDuration":514030,"Delta":428837974},{"NoteNumber":67,"Velocity":55,"Duration":514030,"SoundDuration":514030,"Delta":428837974},{"NoteNumber":88,"Velocity":44,"Duration":86956,"SoundDuration":86956,"Delta":429091136},{"NoteNumber":76,"Velocity":41,"Duration":86956,"SoundDuration":86956,"Delta":429178092},{"NoteNumber":88,"Velocity":45,"Duration":86956,"SoundDuration":86956,"Delta":429265049},{"NoteNumber":65,"Velocity":41,"Duration":534213,"SoundDuration":534213,"Delta":429352005},{"NoteNumber":68,"Velocity":41,"Duration":534213,"SoundDuration":534213,"Delta":429352005},{"NoteNumber":77,"Velocity":39,"Duration":92592,"SoundDuration":92592,"Delta":429444789},{"NoteNumber":80,"Velocity":41,"Duration":87209,"SoundDuration":87209,"Delta":429537382},{"NoteNumber":84,"Velocity":43,"Duration":87209,"SoundDuration":87209,"Delta":429624591},{"NoteNumber":89,"Velocity":45,"Duration":87209,"SoundDuration":87209,"Delta":429711800},{"NoteNumber":77,"Velocity":41,"Duration":87209,"SoundDuration":87209,"Delta":429799009},{"NoteNumber":58,"Velocity":40,"Duration":526878,"SoundDuration":526878,"Delta":429886219},{"NoteNumber":61,"Velocity":40,"Duration":526878,"SoundDuration":526878,"Delta":429886219},{"NoteNumber":77,"Velocity":45,"Duration":87209,"SoundDuration":87209,"Delta":430151469},{"NoteNumber":65,"Velocity":41,"Duration":87209,"SoundDuration":87209,"Delta":430238679},{"NoteNumber":77,"Velocity":45,"Duration":87209,"SoundDuration":87209,"Delta":430325888},{"NoteNumber":56,"Velocity":41,"Duration":525867,"SoundDuration":525867,"Delta":430413097},{"NoteNumber":60,"Velocity":41,"Duration":525867,"SoundDuration":525867,"Delta":430413097},{"NoteNumber":77,"Velocity":44,"Duration":86956,"SoundDuration":86956,"Delta":430678095},{"NoteNumber":65,"Velocity":41,"Duration":86956,"SoundDuration":86956,"Delta":430765052},{"NoteNumber":77,"Velocity":44,"Duration":86956,"SoundDuration":86956,"Delta":430852008},{"NoteNumber":60,"Velocity":55,"Duration":514030,"SoundDuration":514030,"Delta":430938965},{"NoteNumber":58,"Velocity":55,"Duration":514030,"SoundDuration":514030,"Delta":430938965},{"NoteNumber":55,"Velocity":55,"Duration":514030,"SoundDuration":514030,"Delta":430938965},{"NoteNumber":76,"Velocity":44,"Duration":86956,"SoundDuration":86956,"Delta":431192126},{"NoteNumber":64,"Velocity":41,"Duration":86956,"SoundDuration":86956,"Delta":431279083},{"NoteNumber":76,"Velocity":45,"Duration":86956,"SoundDuration":86956,"Delta":431366039},{"NoteNumber":53,"Velocity":41,"Duration":534213,"SoundDuration":534213,"Delta":431452996},{"NoteNumber":56,"Velocity":41,"Duration":534213,"SoundDuration":534213,"Delta":431452996},{"NoteNumber":77,"Velocity":39,"Duration":92592,"SoundDuration":92592,"Delta":431545779},{"NoteNumber":80,"Velocity":41,"Duration":87209,"SoundDuration":87209,"Delta":431638372},{"NoteNumber":84,"Velocity":43,"Duration":87209,"SoundDuration":87209,"Delta":431725581},{"NoteNumber":89,"Velocity":45,"Duration":87209,"SoundDuration":87209,"Delta":431812790},{"NoteNumber":77,"Velocity":41,"Duration":87209,"SoundDuration":87209,"Delta":431899999},{"NoteNumber":46,"Velocity":40,"Duration":526878,"SoundDuration":526878,"Delta":431987209},{"NoteNumber":49,"Velocity":40,"Duration":526878,"SoundDuration":526878,"Delta":431987209},{"NoteNumber":89,"Velocity":45,"Duration":87209,"SoundDuration":87209,"Delta":432252459},{"NoteNumber":77,"Velocity":41,"Duration":87209,"SoundDuration":87209,"Delta":432339669},{"NoteNumber":89,"Velocity":45,"Duration":87209,"SoundDuration":87209,"Delta":432426878},{"NoteNumber":44,"Velocity":41,"Duration":525867,"SoundDuration":525867,"Delta":432514087},{"NoteNumber":48,"Velocity":41,"Duration":525867,"SoundDuration":525867,"Delta":432514087},{"NoteNumber":89,"Velocity":44,"Duration":86956,"SoundDuration":86956,"Delta":432779085},{"NoteNumber":77,"Velocity":41,"Duration":86956,"SoundDuration":86956,"Delta":432866042},{"NoteNumber":89,"Velocity":44,"Duration":86956,"SoundDuration":86956,"Delta":432952998},{"NoteNumber":43,"Velocity":55,"Duration":527034,"SoundDuration":527034,"Delta":433039955},{"NoteNumber":46,"Velocity":55,"Duration":527034,"SoundDuration":527034,"Delta":433039955},{"NoteNumber":48,"Velocity":55,"Duration":527034,"SoundDuration":527034,"Delta":433039955},{"NoteNumber":88,"Velocity":44,"Duration":86956,"SoundDuration":86956,"Delta":433293116},{"NoteNumber":76,"Velocity":41,"Duration":93457,"SoundDuration":93457,"Delta":433380073},{"NoteNumber":88,"Velocity":45,"Duration":93457,"SoundDuration":93457,"Delta":433473531},{"NoteNumber":89,"Velocity":44,"Duration":87636,"SoundDuration":87636,"Delta":433566989},{"NoteNumber":41,"Velocity":44,"Duration":1089188,"SoundDuration":1089188,"Delta":433566989},{"NoteNumber":84,"Velocity":41,"Duration":88149,"SoundDuration":88149,"Delta":433654625},{"NoteNumber":80,"Velocity":40,"Duration":88408,"SoundDuration":88408,"Delta":433742774},{"NoteNumber":84,"Velocity":36,"Duration":88670,"SoundDuration":88670,"Delta":433831183},{"NoteNumber":89,"Velocity":39,"Duration":88932,"SoundDuration":88932,"Delta":433919853},{"NoteNumber":84,"Velocity":36,"Duration":89197,"SoundDuration":89197,"Delta":434008786},{"NoteNumber":80,"Velocity":42,"Duration":89463,"SoundDuration":89463,"Delta":434097984},{"NoteNumber":84,"Velocity":38,"Duration":89730,"SoundDuration":89730,"Delta":434187447},{"NoteNumber":89,"Velocity":38,"Duration":90089,"SoundDuration":90089,"Delta":434277178},{"NoteNumber":84,"Velocity":34,"Duration":90090,"SoundDuration":90090,"Delta":434367268},{"NoteNumber":80,"Velocity":37,"Duration":99010,"SoundDuration":99010,"Delta":434457358},{"NoteNumber":84,"Velocity":33,"Duration":99809,"SoundDuration":99809,"Delta":434556368},{"NoteNumber":89,"Velocity":39,"Duration":100897,"SoundDuration":100897,"Delta":434656177},{"NoteNumber":36,"Velocity":36,"Duration":618879,"SoundDuration":618879,"Delta":434656177},{"NoteNumber":84,"Velocity":36,"Duration":101752,"SoundDuration":101752,"Delta":434757075},{"NoteNumber":80,"Velocity":36,"Duration":102681,"SoundDuration":102681,"Delta":434858828},{"NoteNumber":84,"Velocity":32,"Duration":103568,"SoundDuration":103568,"Delta":434961509},{"NoteNumber":89,"Velocity":35,"Duration":104530,"SoundDuration":104530,"Delta":435065077},{"NoteNumber":84,"Velocity":31,"Duration":105449,"SoundDuration":105449,"Delta":435169608},{"NoteNumber":89,"Velocity":36,"Duration":106383,"SoundDuration":106383,"Delta":435275057},{"NoteNumber":32,"Velocity":30,"Duration":651765,"SoundDuration":651765,"Delta":435275057},{"NoteNumber":84,"Velocity":34,"Duration":107399,"SoundDuration":107399,"Delta":435381441},{"NoteNumber":89,"Velocity":34,"Duration":108369,"SoundDuration":108369,"Delta":435488840},{"NoteNumber":84,"Velocity":30,"Duration":109423,"SoundDuration":109423,"Delta":435597209},{"NoteNumber":89,"Velocity":33,"Duration":110430,"SoundDuration":110430,"Delta":435706633},{"NoteNumber":84,"Velocity":30,"Duration":109760,"SoundDuration":109760,"Delta":435817063},{"NoteNumber":89,"Velocity":38,"Duration":101010,"SoundDuration":101010,"Delta":435926823},{"NoteNumber":29,"Velocity":24,"Duration":1741961,"SoundDuration":1741961,"Delta":435926823},{"NoteNumber":84,"Velocity":30,"Duration":100111,"SoundDuration":100111,"Delta":436027834},{"NoteNumber":80,"Velocity":37,"Duration":99283,"SoundDuration":99283,"Delta":436127946},{"NoteNumber":84,"Velocity":30,"Duration":98414,"SoundDuration":98414,"Delta":436227229},{"NoteNumber":89,"Velocity":33,"Duration":97614,"SoundDuration":97614,"Delta":436325644},{"NoteNumber":84,"Velocity":30,"Duration":96774,"SoundDuration":96774,"Delta":436423259},{"NoteNumber":80,"Velocity":36,"Duration":96153,"SoundDuration":96153,"Delta":436520034},{"NoteNumber":84,"Velocity":30,"Duration":96153,"SoundDuration":96153,"Delta":436616187},{"NoteNumber":89,"Velocity":35,"Duration":96153,"SoundDuration":96153,"Delta":436712341},{"NoteNumber":84,"Velocity":30,"Duration":96153,"SoundDuration":96153,"Delta":436808495},{"NoteNumber":80,"Velocity":31,"Duration":96153,"SoundDuration":96153,"Delta":436904649},{"NoteNumber":84,"Velocity":30,"Duration":96153,"SoundDuration":96153,"Delta":437000802},{"NoteNumber":89,"Velocity":38,"Duration":95304,"SoundDuration":95304,"Delta":437096956},{"NoteNumber":84,"Velocity":30,"Duration":95304,"SoundDuration":95304,"Delta":437192261},{"NoteNumber":80,"Velocity":33,"Duration":95304,"SoundDuration":95304,"Delta":437287566},{"NoteNumber":84,"Velocity":29,"Duration":95304,"SoundDuration":95304,"Delta":437382870},{"NoteNumber":89,"Velocity":33,"Duration":95304,"SoundDuration":95304,"Delta":437478175},{"NoteNumber":84,"Velocity":28,"Duration":95304,"SoundDuration":95304,"Delta":437573480},{"NoteNumber":89,"Velocity":37,"Duration":95304,"SoundDuration":95304,"Delta":437668785},{"NoteNumber":32,"Velocity":29,"Duration":480520,"SoundDuration":480520,"Delta":437668785},{"NoteNumber":84,"Velocity":33,"Duration":95304,"SoundDuration":95304,"Delta":437764089},{"NoteNumber":80,"Velocity":34,"Duration":96636,"SoundDuration":96636,"Delta":437859394},{"NoteNumber":84,"Velocity":29,"Duration":96636,"SoundDuration":96636,"Delta":437956031},{"NoteNumber":89,"Velocity":33,"Duration":96637,"SoundDuration":96637,"Delta":438052668},{"NoteNumber":84,"Velocity":29,"Duration":106708,"SoundDuration":106708,"Delta":438149305},{"NoteNumber":36,"Velocity":26,"Duration":106708,"SoundDuration":106708,"Delta":438149305},{"NoteNumber":89,"Velocity":38,"Duration":89910,"SoundDuration":89910,"Delta":438256014},{"NoteNumber":41,"Velocity":29,"Duration":529491,"SoundDuration":529491,"Delta":438256014},{"NoteNumber":84,"Velocity":30,"Duration":89197,"SoundDuration":89197,"Delta":438345924},{"NoteNumber":80,"Velocity":37,"Duration":88496,"SoundDuration":88496,"Delta":438435122},{"NoteNumber":84,"Velocity":30,"Duration":87805,"SoundDuration":87805,"Delta":438523618},{"NoteNumber":89,"Velocity":33,"Duration":87125,"SoundDuration":87125,"Delta":438611423},{"NoteNumber":84,"Velocity":30,"Duration":86956,"SoundDuration":86956,"Delta":438698548},{"NoteNumber":89,"Velocity":36,"Duration":92126,"SoundDuration":92126,"Delta":438785505},{"NoteNumber":44,"Velocity":29,"Duration":464976,"SoundDuration":464976,"Delta":438785505},{"NoteNumber":84,"Velocity":30,"Duration":92126,"SoundDuration":92126,"Delta":438877631},{"NoteNumber":80,"Velocity":35,"Duration":93574,"SoundDuration":93574,"Delta":438969757},{"NoteNumber":84,"Velocity":30,"Duration":93574,"SoundDuration":93574,"Delta":439063332},{"NoteNumber":89,"Velocity":31,"Duration":93574,"SoundDuration":93574,"Delta":439156906},{"NoteNumber":84,"Velocity":30,"Duration":100874,"SoundDuration":100874,"Delta":439250481},{"NoteNumber":48,"Velocity":26,"Duration":100874,"SoundDuration":100874,"Delta":439250481},{"NoteNumber":89,"Velocity":38,"Duration":92126,"SoundDuration":92126,"Delta":439351355},{"NoteNumber":53,"Velocity":29,"Duration":563146,"SoundDuration":563146,"Delta":439351355},{"NoteNumber":84,"Velocity":30,"Duration":92126,"SoundDuration":92126,"Delta":439443481},{"NoteNumber":80,"Velocity":33,"Duration":92126,"SoundDuration":92126,"Delta":439535608},{"NoteNumber":84,"Velocity":29,"Duration":92126,"SoundDuration":92126,"Delta":439627734},{"NoteNumber":89,"Velocity":33,"Duration":97320,"SoundDuration":97320,"Delta":439719860},{"NoteNumber":84,"Velocity":28,"Duration":97320,"SoundDuration":97320,"Delta":439817181},{"NoteNumber":89,"Velocity":37,"Duration":92126,"SoundDuration":92126,"Delta":439914501},{"NoteNumber":41,"Velocity":28,"Duration":552757,"SoundDuration":552757,"Delta":439914501},{"NoteNumber":84,"Velocity":33,"Duration":92126,"SoundDuration":92126,"Delta":440006627},{"NoteNumber":80,"Velocity":34,"Duration":92126,"SoundDuration":92126,"Delta":440098754},{"NoteNumber":84,"Velocity":29,"Duration":92126,"SoundDuration":92126,"Delta":440190880},{"NoteNumber":89,"Velocity":33,"Duration":92126,"SoundDuration":92126,"Delta":440283006},{"NoteNumber":84,"Velocity":29,"Duration":92126,"SoundDuration":92126,"Delta":440375132},{"NoteNumber":87,"Velocity":38,"Duration":91743,"SoundDuration":91743,"Delta":440467259},{"NoteNumber":42,"Velocity":34,"Duration":1655310,"SoundDuration":1655310,"Delta":440467259},{"NoteNumber":84,"Velocity":30,"Duration":91510,"SoundDuration":91510,"Delta":440559002},{"NoteNumber":80,"Velocity":37,"Duration":91278,"SoundDuration":91278,"Delta":440650512},{"NoteNumber":84,"Velocity":30,"Duration":91001,"SoundDuration":91001,"Delta":440741790},{"NoteNumber":87,"Velocity":33,"Duration":90771,"SoundDuration":90771,"Delta":440832791},{"NoteNumber":84,"Velocity":30,"Duration":90498,"SoundDuration":90498,"Delta":440923563},{"NoteNumber":80,"Velocity":36,"Duration":90543,"SoundDuration":90543,"Delta":441014061},{"NoteNumber":84,"Velocity":30,"Duration":90909,"SoundDuration":90909,"Delta":441104604},{"NoteNumber":87,"Velocity":35,"Duration":91278,"SoundDuration":91278,"Delta":441195514},{"NoteNumber":84,"Velocity":30,"Duration":91603,"SoundDuration":91603,"Delta":441286792},{"NoteNumber":80,"Velocity":31,"Duration":91977,"SoundDuration":91977,"Delta":441378395},{"NoteNumber":84,"Velocity":30,"Duration":92402,"SoundDuration":92402,"Delta":441470373},{"NoteNumber":87,"Velocity":38,"Duration":92592,"SoundDuration":92592,"Delta":441562775},{"NoteNumber":84,"Velocity":30,"Duration":92879,"SoundDuration":92879,"Delta":441655368},{"NoteNumber":80,"Velocity":33,"Duration":93167,"SoundDuration":93167,"Delta":441748247},{"NoteNumber":84,"Velocity":29,"Duration":93457,"SoundDuration":93457,"Delta":441841415},{"NoteNumber":87,"Velocity":33,"Duration":93701,"SoundDuration":93701,"Delta":441934873},{"NoteNumber":84,"Velocity":28,"Duration":93995,"SoundDuration":93995,"Delta":442028574},{"NoteNumber":87,"Velocity":37,"Duration":94290,"SoundDuration":94290,"Delta":442122569},{"NoteNumber":48,"Velocity":33,"Duration":478788,"SoundDuration":478788,"Delta":442122569},{"NoteNumber":84,"Velocity":33,"Duration":94587,"SoundDuration":94587,"Delta":442216859},{"NoteNumber":80,"Velocity":34,"Duration":96636,"SoundDuration":96636,"Delta":442311447},{"NoteNumber":84,"Velocity":29,"Duration":96636,"SoundDuration":96636,"Delta":442408084},{"NoteNumber":87,"Velocity":33,"Duration":96637,"SoundDuration":96637,"Delta":442504721},{"NoteNumber":84,"Velocity":29,"Duration":103938,"SoundDuration":103938,"Delta":442601358},{"NoteNumber":51,"Velocity":28,"Duration":103938,"SoundDuration":103938,"Delta":442601358},{"NoteNumber":87,"Velocity":38,"Duration":89865,"SoundDuration":89865,"Delta":442705297},{"NoteNumber":54,"Velocity":33,"Duration":531332,"SoundDuration":531332,"Delta":442705297},{"NoteNumber":84,"Velocity":30,"Duration":89330,"SoundDuration":89330,"Delta":442795162},{"NoteNumber":80,"Velocity":37,"Duration":88801,"SoundDuration":88801,"Delta":442884493},{"NoteNumber":84,"Velocity":30,"Duration":88278,"SoundDuration":88278,"Delta":442973294},{"NoteNumber":87,"Velocity":33,"Duration":87762,"SoundDuration":87762,"Delta":443061573},{"NoteNumber":84,"Velocity":30,"Duration":87294,"SoundDuration":87294,"Delta":443149335},{"NoteNumber":87,"Velocity":36,"Duration":92126,"SoundDuration":92126,"Delta":443236629},{"NoteNumber":60,"Velocity":33,"Duration":464976,"SoundDuration":464976,"Delta":443236629},{"NoteNumber":84,"Velocity":30,"Duration":92126,"SoundDuration":92126,"Delta":443328756},{"NoteNumber":80,"Velocity":35,"Duration":93574,"SoundDuration":93574,"Delta":443420882},{"NoteNumber":84,"Velocity":30,"Duration":93574,"SoundDuration":93574,"Delta":443514456},{"NoteNumber":87,"Velocity":31,"Duration":93574,"SoundDuration":93574,"Delta":443608031},{"NoteNumber":84,"Velocity":30,"Duration":100874,"SoundDuration":100874,"Delta":443701605},{"NoteNumber":63,"Velocity":28,"Duration":100874,"SoundDuration":100874,"Delta":443701605},{"NoteNumber":87,"Velocity":38,"Duration":92126,"SoundDuration":92126,"Delta":443802480},{"NoteNumber":66,"Velocity":33,"Duration":563146,"SoundDuration":563146,"Delta":443802480},{"NoteNumber":84,"Velocity":30,"Duration":92126,"SoundDuration":92126,"Delta":443894606},{"NoteNumber":80,"Velocity":33,"Duration":92126,"SoundDuration":92126,"Delta":443986732},{"NoteNumber":84,"Velocity":29,"Duration":92126,"SoundDuration":92126,"Delta":444078858},{"NoteNumber":87,"Velocity":33,"Duration":97320,"SoundDuration":97320,"Delta":444170985},{"NoteNumber":84,"Velocity":28,"Duration":97320,"SoundDuration":97320,"Delta":444268305},{"NoteNumber":87,"Velocity":37,"Duration":92126,"SoundDuration":92126,"Delta":444365626},{"NoteNumber":54,"Velocity":30,"Duration":552239,"SoundDuration":552239,"Delta":444365626},{"NoteNumber":84,"Velocity":33,"Duration":92126,"SoundDuration":92126,"Delta":444457752},{"NoteNumber":80,"Velocity":34,"Duration":92126,"SoundDuration":92126,"Delta":444549878},{"NoteNumber":84,"Velocity":29,"Duration":92126,"SoundDuration":92126,"Delta":444642004},{"NoteNumber":87,"Velocity":33,"Duration":92126,"SoundDuration":92126,"Delta":444734131},{"NoteNumber":84,"Velocity":29,"Duration":91608,"SoundDuration":91608,"Delta":444826257},{"NoteNumber":89,"Velocity":38,"Duration":88757,"SoundDuration":88757,"Delta":444917866},{"NoteNumber":53,"Velocity":33,"Duration":525197,"SoundDuration":525197,"Delta":444917866},{"NoteNumber":85,"Velocity":30,"Duration":88106,"SoundDuration":88106,"Delta":445006624},{"NoteNumber":80,"Velocity":37,"Duration":87464,"SoundDuration":87464,"Delta":445094730},{"NoteNumber":85,"Velocity":30,"Duration":86956,"SoundDuration":86956,"Delta":445182194},{"NoteNumber":89,"Velocity":33,"Duration":86956,"SoundDuration":86956,"Delta":445269150},{"NoteNumber":85,"Velocity":31,"Duration":86956,"SoundDuration":86956,"Delta":445356107},{"NoteNumber":89,"Velocity":37,"Duration":92126,"SoundDuration":92126,"Delta":445443063},{"NoteNumber":56,"Velocity":34,"Duration":464976,"SoundDuration":464976,"Delta":445443063},{"NoteNumber":85,"Velocity":30,"Duration":92126,"SoundDuration":92126,"Delta":445535190},{"NoteNumber":80,"Velocity":36,"Duration":93574,"SoundDuration":93574,"Delta":445627316},{"NoteNumber":85,"Velocity":31,"Duration":93574,"SoundDuration":93574,"Delta":445720890},{"NoteNumber":89,"Velocity":34,"Duration":93574,"SoundDuration":93574,"Delta":445814465},{"NoteNumber":85,"Velocity":33,"Duration":100874,"SoundDuration":100874,"Delta":445908039},{"NoteNumber":61,"Velocity":30,"Duration":100874,"SoundDuration":100874,"Delta":445908039},{"NoteNumber":89,"Velocity":40,"Duration":92126,"SoundDuration":92126,"Delta":446008914},{"NoteNumber":65,"Velocity":36,"Duration":563146,"SoundDuration":563146,"Delta":446008914},{"NoteNumber":85,"Velocity":33,"Duration":92126,"SoundDuration":92126,"Delta":446101040},{"NoteNumber":80,"Velocity":35,"Duration":92126,"SoundDuration":92126,"Delta":446193166},{"NoteNumber":85,"Velocity":31,"Duration":92126,"SoundDuration":92126,"Delta":446285292},{"NoteNumber":89,"Velocity":35,"Duration":97320,"SoundDuration":97320,"Delta":446377419},{"NoteNumber":85,"Velocity":30,"Duration":97320,"SoundDuration":97320,"Delta":446474739},{"NoteNumber":89,"Velocity":40,"Duration":91994,"SoundDuration":91994,"Delta":446572060},{"NoteNumber":53,"Velocity":35,"Duration":547789,"SoundDuration":547789,"Delta":446572060},{"NoteNumber":85,"Velocity":36,"Duration":91556,"SoundDuration":91556,"Delta":446664054},{"NoteNumber":80,"Velocity":37,"Duration":91047,"SoundDuration":91047,"Delta":446755611},{"NoteNumber":85,"Velocity":33,"Duration":90680,"SoundDuration":90680,"Delta":446846658},{"NoteNumber":89,"Velocity":36,"Duration":91047,"SoundDuration":91047,"Delta":446937338},{"NoteNumber":85,"Velocity":33,"Duration":91463,"SoundDuration":91463,"Delta":447028386},{"NoteNumber":90,"Velocity":40,"Duration":92126,"SoundDuration":92126,"Delta":447119849},{"NoteNumber":51,"Velocity":40,"Duration":464976,"SoundDuration":464976,"Delta":447119849},{"NoteNumber":84,"Velocity":35,"Duration":92126,"SoundDuration":92126,"Delta":447211976},{"NoteNumber":80,"Velocity":40,"Duration":93574,"SoundDuration":93574,"Delta":447304102},{"NoteNumber":84,"Velocity":35,"Duration":93574,"SoundDuration":93574,"Delta":447397676},{"NoteNumber":90,"Velocity":37,"Duration":93574,"SoundDuration":93574,"Delta":447491251},{"NoteNumber":84,"Velocity":36,"Duration":100874,"SoundDuration":100874,"Delta":447584825},{"NoteNumber":54,"Velocity":36,"Duration":100874,"SoundDuration":100874,"Delta":447584825},{"NoteNumber":90,"Velocity":42,"Duration":92126,"SoundDuration":92126,"Delta":447685700},{"NoteNumber":56,"Velocity":42,"Duration":464976,"SoundDuration":464976,"Delta":447685700},{"NoteNumber":84,"Velocity":35,"Duration":92126,"SoundDuration":92126,"Delta":447777826},{"NoteNumber":80,"Velocity":41,"Duration":93574,"SoundDuration":93574,"Delta":447869952},{"NoteNumber":84,"Velocity":37,"Duration":93574,"SoundDuration":93574,"Delta":447963527},{"NoteNumber":90,"Velocity":38,"Duration":93574,"SoundDuration":93574,"Delta":448057101},{"NoteNumber":84,"Velocity":37,"Duration":100874,"SoundDuration":100874,"Delta":448150676},{"NoteNumber":60,"Velocity":38,"Duration":100874,"SoundDuration":100874,"Delta":448150676},{"NoteNumber":90,"Velocity":44,"Duration":92126,"SoundDuration":92126,"Delta":448251550},{"NoteNumber":63,"Velocity":44,"Duration":464976,"SoundDuration":464976,"Delta":448251550},{"NoteNumber":84,"Velocity":36,"Duration":92126,"SoundDuration":92126,"Delta":448343676},{"NoteNumber":80,"Velocity":44,"Duration":93574,"SoundDuration":93574,"Delta":448435802},{"NoteNumber":84,"Velocity":38,"Duration":93574,"SoundDuration":93574,"Delta":448529377},{"NoteNumber":90,"Velocity":39,"Duration":93574,"SoundDuration":93574,"Delta":448622951},{"NoteNumber":84,"Velocity":38,"Duration":100874,"SoundDuration":100874,"Delta":448716526},{"NoteNumber":66,"Velocity":39,"Duration":100874,"SoundDuration":100874,"Delta":448716526},{"NoteNumber":90,"Velocity":45,"Duration":92126,"SoundDuration":92126,"Delta":448817400},{"NoteNumber":68,"Velocity":47,"Duration":464976,"SoundDuration":464976,"Delta":448817400},{"NoteNumber":87,"Velocity":38,"Duration":92126,"SoundDuration":92126,"Delta":448909526},{"NoteNumber":80,"Velocity":44,"Duration":93574,"SoundDuration":93574,"Delta":449001653},{"NoteNumber":87,"Velocity":39,"Duration":93574,"SoundDuration":93574,"Delta":449095227},{"NoteNumber":90,"Velocity":39,"Duration":93574,"SoundDuration":93574,"Delta":449188802},{"NoteNumber":87,"Velocity":39,"Duration":106761,"SoundDuration":106761,"Delta":449282376},{"NoteNumber":72,"Velocity":42,"Duration":106761,"SoundDuration":106761,"Delta":449282376},{"NoteNumber":89,"Velocity":55,"Duration":372545,"SoundDuration":372545,"Delta":449389138},{"NoteNumber":61,"Velocity":33,"Duration":190937,"SoundDuration":190937,"Delta":449389138},{"NoteNumber":65,"Velocity":24,"Duration":181608,"SoundDuration":181608,"Delta":449580075},{"NoteNumber":68,"Velocity":24,"Duration":181608,"SoundDuration":181608,"Delta":449580075},{"NoteNumber":73,"Velocity":30,"Duration":181608,"SoundDuration":181608,"Delta":449580075},{"NoteNumber":61,"Velocity":31,"Duration":181609,"SoundDuration":181609,"Delta":449761684},{"NoteNumber":65,"Velocity":26,"Duration":181608,"SoundDuration":181608,"Delta":449943293},{"NoteNumber":68,"Velocity":26,"Duration":181608,"SoundDuration":181608,"Delta":449943293},{"NoteNumber":73,"Velocity":33,"Duration":181608,"SoundDuration":181608,"Delta":449943293},{"NoteNumber":61,"Velocity":31,"Duration":181608,"SoundDuration":181608,"Delta":450124902},{"NoteNumber":65,"Velocity":24,"Duration":181609,"SoundDuration":181609,"Delta":450306511},{"NoteNumber":68,"Velocity":24,"Duration":181609,"SoundDuration":181609,"Delta":450306511},{"NoteNumber":73,"Velocity":31,"Duration":181609,"SoundDuration":181609,"Delta":450306511},{"NoteNumber":61,"Velocity":33,"Duration":181608,"SoundDuration":181608,"Delta":450488120},{"NoteNumber":65,"Velocity":24,"Duration":181608,"SoundDuration":181608,"Delta":450669729},{"NoteNumber":68,"Velocity":24,"Duration":181608,"SoundDuration":181608,"Delta":450669729},{"NoteNumber":73,"Velocity":31,"Duration":181608,"SoundDuration":181608,"Delta":450669729},{"NoteNumber":61,"Velocity":31,"Duration":181609,"SoundDuration":181609,"Delta":450851338},{"NoteNumber":77,"Velocity":62,"Duration":468014,"SoundDuration":468014,"Delta":451032947},{"NoteNumber":65,"Velocity":26,"Duration":181608,"SoundDuration":181608,"Delta":451032947},{"NoteNumber":73,"Velocity":33,"Duration":181608,"SoundDuration":181608,"Delta":451032947},{"NoteNumber":68,"Velocity":26,"Duration":181608,"SoundDuration":181608,"Delta":451032947},{"NoteNumber":61,"Velocity":31,"Duration":190937,"SoundDuration":190937,"Delta":451214556},{"NoteNumber":65,"Velocity":25,"Duration":216543,"SoundDuration":216543,"Delta":451405493},{"NoteNumber":68,"Velocity":25,"Duration":216543,"SoundDuration":216543,"Delta":451405493},{"NoteNumber":73,"Velocity":32,"Duration":216543,"SoundDuration":216543,"Delta":451405493},{"NoteNumber":80,"Velocity":57,"Duration":121075,"SoundDuration":121075,"Delta":451500961},{"NoteNumber":85,"Velocity":66,"Duration":514868,"SoundDuration":514868,"Delta":451622036},{"NoteNumber":61,"Velocity":33,"Duration":171402,"SoundDuration":171402,"Delta":451622036},{"NoteNumber":65,"Velocity":24,"Duration":171733,"SoundDuration":171733,"Delta":451793439},{"NoteNumber":68,"Velocity":24,"Duration":171733,"SoundDuration":171733,"Delta":451793439},{"NoteNumber":73,"Velocity":30,"Duration":171733,"SoundDuration":171733,"Delta":451793439},{"NoteNumber":61,"Velocity":31,"Duration":171733,"SoundDuration":171733,"Delta":451965172},{"NoteNumber":89,"Velocity":62,"Duration":455633,"SoundDuration":455633,"Delta":452136905},{"NoteNumber":65,"Velocity":26,"Duration":180050,"SoundDuration":180050,"Delta":452136905},{"NoteNumber":68,"Velocity":26,"Duration":180050,"SoundDuration":180050,"Delta":452136905},{"NoteNumber":73,"Velocity":33,"Duration":180050,"SoundDuration":180050,"Delta":452136905},{"NoteNumber":61,"Velocity":31,"Duration":183721,"SoundDuration":183721,"Delta":452316955},{"NoteNumber":68,"Velocity":24,"Duration":196844,"SoundDuration":196844,"Delta":452500677},{"NoteNumber":73,"Velocity":31,"Duration":196844,"SoundDuration":196844,"Delta":452500677},{"NoteNumber":65,"Velocity":24,"Duration":196844,"SoundDuration":196844,"Delta":452500677},{"NoteNumber":85,"Velocity":55,"Duration":104983,"SoundDuration":104983,"Delta":452592538},{"NoteNumber":84,"Velocity":63,"Duration":530997,"SoundDuration":530997,"Delta":452697522},{"NoteNumber":63,"Velocity":33,"Duration":180877,"SoundDuration":180877,"Delta":452697522},{"NoteNumber":66,"Velocity":24,"Duration":175059,"SoundDuration":175059,"Delta":452878399},{"NoteNumber":68,"Velocity":24,"Duration":175059,"SoundDuration":175059,"Delta":452878399},{"NoteNumber":75,"Velocity":31,"Duration":175059,"SoundDuration":175059,"Delta":452878399},{"NoteNumber":63,"Velocity":31,"Duration":175060,"SoundDuration":175060,"Delta":453053459},{"NoteNumber":87,"Velocity":66,"Duration":459866,"SoundDuration":459866,"Delta":453228519},{"NoteNumber":68,"Velocity":26,"Duration":178529,"SoundDuration":178529,"Delta":453228519},{"NoteNumber":66,"Velocity":26,"Duration":178529,"SoundDuration":178529,"Delta":453228519},{"NoteNumber":75,"Velocity":33,"Duration":178529,"SoundDuration":178529,"Delta":453228519},{"NoteNumber":63,"Velocity":31,"Duration":187558,"SoundDuration":187558,"Delta":453407048},{"NoteNumber":66,"Velocity":25,"Duration":206637,"SoundDuration":206637,"Delta":453594607},{"NoteNumber":68,"Velocity":25,"Duration":206637,"SoundDuration":206637,"Delta":453594607},{"NoteNumber":75,"Velocity":32,"Duration":206637,"SoundDuration":206637,"Delta":453594607},{"NoteNumber":84,"Velocity":55,"Duration":112858,"SoundDuration":112858,"Delta":453688386},{"NoteNumber":85,"Velocity":66,"Duration":515198,"SoundDuration":515198,"Delta":453801244},{"NoteNumber":65,"Velocity":33,"Duration":171733,"SoundDuration":171733,"Delta":453801244},{"NoteNumber":68,"Velocity":24,"Duration":171732,"SoundDuration":171732,"Delta":453972977},{"NoteNumber":77,"Velocity":30,"Duration":171732,"SoundDuration":171732,"Delta":453972977},{"NoteNumber":73,"Velocity":24,"Duration":171732,"SoundDuration":171732,"Delta":453972977},{"NoteNumber":65,"Velocity":31,"Duration":171733,"SoundDuration":171733,"Delta":454144710},{"NoteNumber":80,"Velocity":59,"Duration":1059197,"SoundDuration":1059197,"Delta":454316443},{"NoteNumber":77,"Velocity":33,"Duration":176533,"SoundDuration":176533,"Delta":454316443},{"NoteNumber":73,"Velocity":26,"Duration":176533,"SoundDuration":176533,"Delta":454316443},{"NoteNumber":68,"Velocity":26,"Duration":176533,"SoundDuration":176533,"Delta":454316443},{"NoteNumber":65,"Velocity":31,"Duration":176533,"SoundDuration":176533,"Delta":454492976},{"NoteNumber":68,"Velocity":24,"Duration":176533,"SoundDuration":176533,"Delta":454669509},{"NoteNumber":77,"Velocity":31,"Duration":176533,"SoundDuration":176533,"Delta":454669509},{"NoteNumber":73,"Velocity":24,"Duration":176533,"SoundDuration":176533,"Delta":454669509},{"NoteNumber":65,"Velocity":33,"Duration":176533,"SoundDuration":176533,"Delta":454846042},{"NoteNumber":77,"Velocity":31,"Duration":176532,"SoundDuration":176532,"Delta":455022575},{"NoteNumber":68,"Velocity":24,"Duration":176532,"SoundDuration":176532,"Delta":455022575},{"NoteNumber":73,"Velocity":24,"Duration":176532,"SoundDuration":176532,"Delta":455022575},{"NoteNumber":65,"Velocity":31,"Duration":176533,"SoundDuration":176533,"Delta":455199108},{"NoteNumber":77,"Velocity":68,"Duration":457870,"SoundDuration":457870,"Delta":455375641},{"NoteNumber":73,"Velocity":36,"Duration":176533,"SoundDuration":176533,"Delta":455375641},{"NoteNumber":68,"Velocity":36,"Duration":176533,"SoundDuration":176533,"Delta":455375641},{"NoteNumber":68,"Velocity":34,"Duration":187558,"SoundDuration":187558,"Delta":455552174},{"NoteNumber":68,"Velocity":35,"Duration":206231,"SoundDuration":206231,"Delta":455739733},{"NoteNumber":73,"Velocity":35,"Duration":206231,"SoundDuration":206231,"Delta":455739733},{"NoteNumber":80,"Velocity":62,"Duration":112452,"SoundDuration":112452,"Delta":455833512},{"NoteNumber":85,"Velocity":71,"Duration":513816,"SoundDuration":513816,"Delta":455945964},{"NoteNumber":65,"Velocity":36,"Duration":171271,"SoundDuration":171271,"Delta":455945964},{"NoteNumber":68,"Velocity":26,"Duration":171271,"SoundDuration":171271,"Delta":456117236},{"NoteNumber":73,"Velocity":26,"Duration":171271,"SoundDuration":171271,"Delta":456117236},{"NoteNumber":77,"Velocity":33,"Duration":171271,"SoundDuration":171271,"Delta":456117236},{"NoteNumber":65,"Velocity":34,"Duration":171272,"SoundDuration":171272,"Delta":456288508},{"NoteNumber":89,"Velocity":74,"Duration":456949,"SoundDuration":456949,"Delta":456459780},{"NoteNumber":73,"Velocity":29,"Duration":180570,"SoundDuration":180570,"Delta":456459780},{"NoteNumber":68,"Velocity":29,"Duration":180570,"SoundDuration":180570,"Delta":456459780},{"NoteNumber":77,"Velocity":37,"Duration":180570,"SoundDuration":180570,"Delta":456459780},{"NoteNumber":65,"Velocity":35,"Duration":184252,"SoundDuration":184252,"Delta":456640351},{"NoteNumber":77,"Velocity":36,"Duration":197109,"SoundDuration":197109,"Delta":456824603},{"NoteNumber":73,"Velocity":27,"Duration":197109,"SoundDuration":197109,"Delta":456824603},{"NoteNumber":68,"Velocity":27,"Duration":197109,"SoundDuration":197109,"Delta":456824603},{"NoteNumber":85,"Velocity":64,"Duration":104983,"SoundDuration":104983,"Delta":456916730},{"NoteNumber":84,"Velocity":75,"Duration":530997,"SoundDuration":530997,"Delta":457021713},{"NoteNumber":66,"Velocity":39,"Duration":180877,"SoundDuration":180877,"Delta":457021713},{"NoteNumber":69,"Velocity":28,"Duration":175059,"SoundDuration":175059,"Delta":457202591},{"NoteNumber":75,"Velocity":37,"Duration":175059,"SoundDuration":175059,"Delta":457202591},{"NoteNumber":72,"Velocity":28,"Duration":175059,"SoundDuration":175059,"Delta":457202591},{"NoteNumber":66,"Velocity":38,"Duration":175060,"SoundDuration":175060,"Delta":457377651},{"NoteNumber":87,"Velocity":80,"Duration":466676,"SoundDuration":466676,"Delta":457552711},{"NoteNumber":75,"Velocity":40,"Duration":178529,"SoundDuration":178529,"Delta":457552711},{"NoteNumber":69,"Velocity":40,"Duration":178529,"SoundDuration":178529,"Delta":457552711},{"NoteNumber":72,"Velocity":40,"Duration":178529,"SoundDuration":178529,"Delta":457552711},{"NoteNumber":66,"Velocity":38,"Duration":192098,"SoundDuration":192098,"Delta":457731240},{"NoteNumber":75,"Velocity":40,"Duration":213955,"SoundDuration":213955,"Delta":457923338},{"NoteNumber":69,"Velocity":40,"Duration":213955,"SoundDuration":213955,"Delta":457923338},{"NoteNumber":72,"Velocity":40,"Duration":213955,"SoundDuration":213955,"Delta":457923338},{"NoteNumber":84,"Velocity":71,"Duration":117906,"SoundDuration":117906,"Delta":458019387},{"NoteNumber":83,"Velocity":85,"Duration":521739,"SoundDuration":521739,"Delta":458137293},{"NoteNumber":65,"Velocity":49,"Duration":173913,"SoundDuration":173913,"Delta":458137293},{"NoteNumber":74,"Velocity":39,"Duration":173912,"SoundDuration":173912,"Delta":458311206},{"NoteNumber":71,"Velocity":30,"Duration":173912,"SoundDuration":173912,"Delta":458311206},{"NoteNumber":68,"Velocity":30,"Duration":173912,"SoundDuration":173912,"Delta":458311206},{"NoteNumber":65,"Velocity":41,"Duration":173913,"SoundDuration":173913,"Delta":458485119},{"NoteNumber":86,"Velocity":95,"Duration":1077264,"SoundDuration":1077264,"Delta":458659032},{"NoteNumber":68,"Velocity":35,"Duration":179544,"SoundDuration":179544,"Delta":458659032},{"NoteNumber":74,"Velocity":44,"Duration":179544,"SoundDuration":179544,"Delta":458659032},{"NoteNumber":71,"Velocity":35,"Duration":179544,"SoundDuration":179544,"Delta":458659032},{"NoteNumber":65,"Velocity":42,"Duration":179543,"SoundDuration":179543,"Delta":458838576},{"NoteNumber":68,"Velocity":34,"Duration":179544,"SoundDuration":179544,"Delta":459018120},{"NoteNumber":74,"Velocity":44,"Duration":179544,"SoundDuration":179544,"Delta":459018120},{"NoteNumber":71,"Velocity":34,"Duration":179544,"SoundDuration":179544,"Delta":459018120},{"NoteNumber":65,"Velocity":49,"Duration":179544,"SoundDuration":179544,"Delta":459197664},{"NoteNumber":68,"Velocity":36,"Duration":179543,"SoundDuration":179543,"Delta":459377208},{"NoteNumber":71,"Velocity":36,"Duration":179543,"SoundDuration":179543,"Delta":459377208},{"NoteNumber":74,"Velocity":48,"Duration":179543,"SoundDuration":179543,"Delta":459377208},{"NoteNumber":65,"Velocity":48,"Duration":179544,"SoundDuration":179544,"Delta":459556752},{"NoteNumber":86,"Velocity":84,"Duration":453934,"SoundDuration":453934,"Delta":459736296},{"NoteNumber":71,"Velocity":41,"Duration":179543,"SoundDuration":179543,"Delta":459736296},{"NoteNumber":68,"Velocity":41,"Duration":179543,"SoundDuration":179543,"Delta":459736296},{"NoteNumber":74,"Velocity":55,"Duration":179543,"SoundDuration":179543,"Delta":459736296},{"NoteNumber":65,"Velocity":50,"Duration":182927,"SoundDuration":182927,"Delta":459915840},{"NoteNumber":74,"Velocity":52,"Duration":212999,"SoundDuration":212999,"Delta":460098767},{"NoteNumber":68,"Velocity":41,"Duration":212999,"SoundDuration":212999,"Delta":460098767},{"NoteNumber":71,"Velocity":41,"Duration":212999,"SoundDuration":212999,"Delta":460098767},{"NoteNumber":83,"Velocity":79,"Duration":121536,"SoundDuration":121536,"Delta":460190231},{"NoteNumber":84,"Velocity":85,"Duration":523255,"SoundDuration":523255,"Delta":460311767},{"NoteNumber":64,"Velocity":54,"Duration":174418,"SoundDuration":174418,"Delta":460311767},{"NoteNumber":76,"Velocity":47,"Duration":174418,"SoundDuration":174418,"Delta":460486186},{"NoteNumber":72,"Velocity":37,"Duration":174418,"SoundDuration":174418,"Delta":460486186},{"NoteNumber":67,"Velocity":37,"Duration":174418,"SoundDuration":174418,"Delta":460486186},{"NoteNumber":64,"Velocity":51,"Duration":174418,"SoundDuration":174418,"Delta":460660604},{"NoteNumber":88,"Velocity":97,"Duration":1077264,"SoundDuration":1077264,"Delta":460835023},{"NoteNumber":67,"Velocity":42,"Duration":179544,"SoundDuration":179544,"Delta":460835023},{"NoteNumber":76,"Velocity":53,"Duration":179544,"SoundDuration":179544,"Delta":460835023},{"NoteNumber":72,"Velocity":42,"Duration":179544,"SoundDuration":179544,"Delta":460835023},{"NoteNumber":64,"Velocity":47,"Duration":179543,"SoundDuration":179543,"Delta":461014567},{"NoteNumber":67,"Velocity":41,"Duration":179544,"SoundDuration":179544,"Delta":461194111},{"NoteNumber":76,"Velocity":52,"Duration":179544,"SoundDuration":179544,"Delta":461194111},{"NoteNumber":72,"Velocity":41,"Duration":179544,"SoundDuration":179544,"Delta":461194111},{"NoteNumber":64,"Velocity":49,"Duration":179544,"SoundDuration":179544,"Delta":461373655},{"NoteNumber":67,"Velocity":43,"Duration":179543,"SoundDuration":179543,"Delta":461553199},{"NoteNumber":72,"Velocity":43,"Duration":179543,"SoundDuration":179543,"Delta":461553199},{"NoteNumber":76,"Velocity":54,"Duration":179543,"SoundDuration":179543,"Delta":461553199},{"NoteNumber":64,"Velocity":48,"Duration":179544,"SoundDuration":179544,"Delta":461732743},{"NoteNumber":91,"Velocity":84,"Duration":452270,"SoundDuration":452270,"Delta":461912287},{"NoteNumber":79,"Velocity":71,"Duration":452270,"SoundDuration":452270,"Delta":461912287},{"NoteNumber":72,"Velocity":41,"Duration":179543,"SoundDuration":179543,"Delta":461912287},{"NoteNumber":67,"Velocity":41,"Duration":179543,"SoundDuration":179543,"Delta":461912287},{"NoteNumber":76,"Velocity":55,"Duration":179543,"SoundDuration":179543,"Delta":461912287},{"NoteNumber":64,"Velocity":50,"Duration":181818,"SoundDuration":181818,"Delta":462091831},{"NoteNumber":76,"Velocity":52,"Duration":212445,"SoundDuration":212445,"Delta":462273649},{"NoteNumber":67,"Velocity":41,"Duration":212445,"SoundDuration":212445,"Delta":462273649},{"NoteNumber":72,"Velocity":41,"Duration":212445,"SoundDuration":212445,"Delta":462273649},{"NoteNumber":77,"Velocity":67,"Duration":121536,"SoundDuration":121536,"Delta":462364558},{"NoteNumber":89,"Velocity":79,"Duration":121536,"SoundDuration":121536,"Delta":462364558},{"NoteNumber":88,"Velocity":85,"Duration":523255,"SoundDuration":523255,"Delta":462486094},{"NoteNumber":76,"Velocity":72,"Duration":523255,"SoundDuration":523255,"Delta":462486094},{"NoteNumber":58,"Velocity":54,"Duration":174418,"SoundDuration":174418,"Delta":462486094},{"NoteNumber":67,"Velocity":47,"Duration":174418,"SoundDuration":174418,"Delta":462660512},{"NoteNumber":64,"Velocity":37,"Duration":174418,"SoundDuration":174418,"Delta":462660512},{"NoteNumber":61,"Velocity":37,"Duration":174418,"SoundDuration":174418,"Delta":462660512},{"NoteNumber":58,"Velocity":51,"Duration":174418,"SoundDuration":174418,"Delta":462834931},{"NoteNumber":79,"Velocity":79,"Duration":1077264,"SoundDuration":1077264,"Delta":463009349},{"NoteNumber":91,"Velocity":93,"Duration":1077264,"SoundDuration":1077264,"Delta":463009349},{"NoteNumber":61,"Velocity":42,"Duration":179544,"SoundDuration":179544,"Delta":463009349},{"NoteNumber":67,"Velocity":53,"Duration":179544,"SoundDuration":179544,"Delta":463009349},{"NoteNumber":64,"Velocity":42,"Duration":179544,"SoundDuration":179544,"Delta":463009349},{"NoteNumber":58,"Velocity":47,"Duration":179543,"SoundDuration":179543,"Delta":463188893},{"NoteNumber":61,"Velocity":41,"Duration":179544,"SoundDuration":179544,"Delta":463368437},{"NoteNumber":67,"Velocity":52,"Duration":179544,"SoundDuration":179544,"Delta":463368437},{"NoteNumber":64,"Velocity":41,"Duration":179544,"SoundDuration":179544,"Delta":463368437},{"NoteNumber":58,"Velocity":49,"Duration":179544,"SoundDuration":179544,"Delta":463547981},{"NoteNumber":64,"Velocity":43,"Duration":179543,"SoundDuration":179543,"Delta":463727525},{"NoteNumber":67,"Velocity":54,"Duration":179543,"SoundDuration":179543,"Delta":463727525},{"NoteNumber":61,"Velocity":43,"Duration":179543,"SoundDuration":179543,"Delta":463727525},{"NoteNumber":58,"Velocity":48,"Duration":179544,"SoundDuration":179544,"Delta":463907069},{"NoteNumber":79,"Velocity":74,"Duration":452270,"SoundDuration":452270,"Delta":464086613},{"NoteNumber":91,"Velocity":88,"Duration":452270,"SoundDuration":452270,"Delta":464086613},{"NoteNumber":61,"Velocity":43,"Duration":179543,"SoundDuration":179543,"Delta":464086613},{"NoteNumber":67,"Velocity":57,"Duration":179543,"SoundDuration":179543,"Delta":464086613},{"NoteNumber":64,"Velocity":43,"Duration":179543,"SoundDuration":179543,"Delta":464086613},{"NoteNumber":58,"Velocity":52,"Duration":181818,"SoundDuration":181818,"Delta":464266157},{"NoteNumber":61,"Velocity":43,"Duration":212445,"SoundDuration":212445,"Delta":464447975},{"NoteNumber":64,"Velocity":43,"Duration":212445,"SoundDuration":212445,"Delta":464447975},{"NoteNumber":67,"Velocity":54,"Duration":212445,"SoundDuration":212445,"Delta":464447975},{"NoteNumber":76,"Velocity":70,"Duration":121536,"SoundDuration":121536,"Delta":464538884},{"NoteNumber":88,"Velocity":82,"Duration":121536,"SoundDuration":121536,"Delta":464538884},{"NoteNumber":89,"Velocity":89,"Duration":523255,"SoundDuration":523255,"Delta":464660421},{"NoteNumber":77,"Velocity":75,"Duration":523255,"SoundDuration":523255,"Delta":464660421},{"NoteNumber":56,"Velocity":56,"Duration":174418,"SoundDuration":174418,"Delta":464660421},{"NoteNumber":60,"Velocity":38,"Duration":174418,"SoundDuration":174418,"Delta":464834839},{"NoteNumber":65,"Velocity":38,"Duration":174418,"SoundDuration":174418,"Delta":464834839},{"NoteNumber":68,"Velocity":49,"Duration":174418,"SoundDuration":174418,"Delta":464834839},{"NoteNumber":56,"Velocity":53,"Duration":174418,"SoundDuration":174418,"Delta":465009258},{"NoteNumber":92,"Velocity":96,"Duration":1077264,"SoundDuration":1077264,"Delta":465183676},{"NoteNumber":80,"Velocity":81,"Duration":1077264,"SoundDuration":1077264,"Delta":465183676},{"NoteNumber":65,"Velocity":44,"Duration":179544,"SoundDuration":179544,"Delta":465183676},{"NoteNumber":68,"Velocity":55,"Duration":179544,"SoundDuration":179544,"Delta":465183676},{"NoteNumber":60,"Velocity":44,"Duration":179544,"SoundDuration":179544,"Delta":465183676},{"NoteNumber":56,"Velocity":49,"Duration":179543,"SoundDuration":179543,"Delta":465363220},{"NoteNumber":65,"Velocity":43,"Duration":179544,"SoundDuration":179544,"Delta":465542764},{"NoteNumber":68,"Velocity":54,"Duration":179544,"SoundDuration":179544,"Delta":465542764},{"NoteNumber":60,"Velocity":43,"Duration":179544,"SoundDuration":179544,"Delta":465542764},{"NoteNumber":56,"Velocity":51,"Duration":179544,"SoundDuration":179544,"Delta":465722308},{"NoteNumber":65,"Velocity":45,"Duration":179543,"SoundDuration":179543,"Delta":465901852},{"NoteNumber":68,"Velocity":56,"Duration":179543,"SoundDuration":179543,"Delta":465901852},{"NoteNumber":60,"Velocity":45,"Duration":179543,"SoundDuration":179543,"Delta":465901852},{"NoteNumber":56,"Velocity":50,"Duration":179544,"SoundDuration":179544,"Delta":466081396},{"NoteNumber":92,"Velocity":88,"Duration":460881,"SoundDuration":460881,"Delta":466260940},{"NoteNumber":80,"Velocity":74,"Duration":460881,"SoundDuration":460881,"Delta":466260940},{"NoteNumber":60,"Velocity":43,"Duration":179543,"SoundDuration":179543,"Delta":466260940},{"NoteNumber":68,"Velocity":57,"Duration":179543,"SoundDuration":179543,"Delta":466260940},{"NoteNumber":65,"Velocity":43,"Duration":179543,"SoundDuration":179543,"Delta":466260940},{"NoteNumber":56,"Velocity":52,"Duration":187558,"SoundDuration":187558,"Delta":466440484},{"NoteNumber":60,"Velocity":43,"Duration":215315,"SoundDuration":215315,"Delta":466628043},{"NoteNumber":65,"Velocity":43,"Duration":215315,"SoundDuration":215315,"Delta":466628043},{"NoteNumber":68,"Velocity":54,"Duration":215315,"SoundDuration":215315,"Delta":466628043},{"NoteNumber":89,"Velocity":82,"Duration":121536,"SoundDuration":121536,"Delta":466721822},{"NoteNumber":77,"Velocity":70,"Duration":121536,"SoundDuration":121536,"Delta":466721822},{"NoteNumber":34,"Velocity":101,"Duration":199507,"SoundDuration":199507,"Delta":466843358},{"NoteNumber":46,"Velocity":101,"Duration":199507,"SoundDuration":199507,"Delta":466843358},{"NoteNumber":61,"Velocity":80,"Duration":85871,"SoundDuration":85871,"Delta":466956994},{"NoteNumber":58,"Velocity":77,"Duration":85133,"SoundDuration":85133,"Delta":467042866},{"NoteNumber":66,"Velocity":72,"Duration":84365,"SoundDuration":84365,"Delta":467128000},{"NoteNumber":49,"Velocity":75,"Duration":83756,"SoundDuration":83756,"Delta":467212365},{"NoteNumber":54,"Velocity":69,"Duration":91074,"SoundDuration":91074,"Delta":467296122},{"NoteNumber":58,"Velocity":86,"Duration":167010,"SoundDuration":167010,"Delta":467387197},{"NoteNumber":66,"Velocity":75,"Duration":83505,"SoundDuration":83505,"Delta":467470702},{"NoteNumber":61,"Velocity":78,"Duration":83505,"SoundDuration":83505,"Delta":467554207},{"NoteNumber":70,"Velocity":73,"Duration":83505,"SoundDuration":83505,"Delta":467637712},{"NoteNumber":54,"Velocity":75,"Duration":83505,"SoundDuration":83505,"Delta":467721217},{"NoteNumber":58,"Velocity":73,"Duration":92273,"SoundDuration":92273,"Delta":467804722},{"NoteNumber":61,"Velocity":86,"Duration":167010,"SoundDuration":167010,"Delta":467896995},{"NoteNumber":70,"Velocity":74,"Duration":83505,"SoundDuration":83505,"Delta":467980500},{"NoteNumber":66,"Velocity":80,"Duration":83505,"SoundDuration":83505,"Delta":468064005},{"NoteNumber":73,"Velocity":74,"Duration":83505,"SoundDuration":83505,"Delta":468147510},{"NoteNumber":58,"Velocity":78,"Duration":83505,"SoundDuration":83505,"Delta":468231015},{"NoteNumber":61,"Velocity":73,"Duration":91368,"SoundDuration":91368,"Delta":468314520},{"NoteNumber":66,"Velocity":84,"Duration":165993,"SoundDuration":165993,"Delta":468405889},{"NoteNumber":73,"Velocity":75,"Duration":82996,"SoundDuration":82996,"Delta":468488886},{"NoteNumber":70,"Velocity":80,"Duration":82996,"SoundDuration":82996,"Delta":468571882},{"NoteNumber":78,"Velocity":72,"Duration":82996,"SoundDuration":82996,"Delta":468654879},{"NoteNumber":61,"Velocity":77,"Duration":82996,"SoundDuration":82996,"Delta":468737876},{"NoteNumber":66,"Velocity":71,"Duration":91670,"SoundDuration":91670,"Delta":468820873},{"NoteNumber":70,"Velocity":81,"Duration":165993,"SoundDuration":165993,"Delta":468912543},{"NoteNumber":78,"Velocity":74,"Duration":82996,"SoundDuration":82996,"Delta":468995540},{"NoteNumber":73,"Velocity":77,"Duration":82996,"SoundDuration":82996,"Delta":469078536},{"NoteNumber":82,"Velocity":72,"Duration":82996,"SoundDuration":82996,"Delta":469161533},{"NoteNumber":66,"Velocity":75,"Duration":82996,"SoundDuration":82996,"Delta":469244530},{"NoteNumber":70,"Velocity":74,"Duration":91670,"SoundDuration":91670,"Delta":469327527},{"NoteNumber":73,"Velocity":81,"Duration":165993,"SoundDuration":165993,"Delta":469419197},{"NoteNumber":82,"Velocity":71,"Duration":82996,"SoundDuration":82996,"Delta":469502194},{"NoteNumber":78,"Velocity":75,"Duration":82996,"SoundDuration":82996,"Delta":469585190},{"NoteNumber":85,"Velocity":73,"Duration":82996,"SoundDuration":82996,"Delta":469668187},{"NoteNumber":70,"Velocity":75,"Duration":82996,"SoundDuration":82996,"Delta":469751184},{"NoteNumber":73,"Velocity":73,"Duration":90777,"SoundDuration":90777,"Delta":469834181},{"NoteNumber":78,"Velocity":84,"Duration":167010,"SoundDuration":167010,"Delta":469924958},{"NoteNumber":85,"Velocity":74,"Duration":83505,"SoundDuration":83505,"Delta":470008463},{"NoteNumber":82,"Velocity":80,"Duration":83505,"SoundDuration":83505,"Delta":470091968},{"NoteNumber":90,"Velocity":74,"Duration":83505,"SoundDuration":83505,"Delta":470175473},{"NoteNumber":73,"Velocity":75,"Duration":83505,"SoundDuration":83505,"Delta":470258978},{"NoteNumber":78,"Velocity":74,"Duration":91973,"SoundDuration":91973,"Delta":470342483},{"NoteNumber":82,"Velocity":83,"Duration":170140,"SoundDuration":170140,"Delta":470434456},{"NoteNumber":90,"Velocity":82,"Duration":87700,"SoundDuration":87700,"Delta":470604597},{"NoteNumber":85,"Velocity":79,"Duration":89508,"SoundDuration":89508,"Delta":470692297},{"NoteNumber":94,"Velocity":84,"Duration":277741,"SoundDuration":277741,"Delta":470781806},{"NoteNumber":48,"Velocity":101,"Duration":226137,"SoundDuration":226137,"Delta":471059548},{"NoteNumber":36,"Velocity":101,"Duration":226137,"SoundDuration":226137,"Delta":471059548},{"NoteNumber":63,"Velocity":80,"Duration":85871,"SoundDuration":85871,"Delta":471199813},{"NoteNumber":60,"Velocity":77,"Duration":85133,"SoundDuration":85133,"Delta":471285685},{"NoteNumber":69,"Velocity":72,"Duration":84365,"SoundDuration":84365,"Delta":471370819},{"NoteNumber":51,"Velocity":80,"Duration":83756,"SoundDuration":83756,"Delta":471455184},{"NoteNumber":57,"Velocity":73,"Duration":91074,"SoundDuration":91074,"Delta":471538941},{"NoteNumber":60,"Velocity":89,"Duration":167010,"SoundDuration":167010,"Delta":471630015},{"NoteNumber":69,"Velocity":75,"Duration":83505,"SoundDuration":83505,"Delta":471713520},{"NoteNumber":63,"Velocity":78,"Duration":83505,"SoundDuration":83505,"Delta":471797025},{"NoteNumber":72,"Velocity":73,"Duration":83505,"SoundDuration":83505,"Delta":471880530},{"NoteNumber":57,"Velocity":78,"Duration":83505,"SoundDuration":83505,"Delta":471964035},{"NoteNumber":60,"Velocity":73,"Duration":92273,"SoundDuration":92273,"Delta":472047540},{"NoteNumber":63,"Velocity":86,"Duration":167010,"SoundDuration":167010,"Delta":472139814},{"NoteNumber":72,"Velocity":74,"Duration":83505,"SoundDuration":83505,"Delta":472223319},{"NoteNumber":69,"Velocity":80,"Duration":83505,"SoundDuration":83505,"Delta":472306824},{"NoteNumber":75,"Velocity":74,"Duration":83505,"SoundDuration":83505,"Delta":472390329},{"NoteNumber":60,"Velocity":78,"Duration":83505,"SoundDuration":83505,"Delta":472473834},{"NoteNumber":63,"Velocity":73,"Duration":91368,"SoundDuration":91368,"Delta":472557339},{"NoteNumber":69,"Velocity":84,"Duration":165993,"SoundDuration":165993,"Delta":472648708},{"NoteNumber":75,"Velocity":75,"Duration":82996,"SoundDuration":82996,"Delta":472731704},{"NoteNumber":72,"Velocity":80,"Duration":82996,"SoundDuration":82996,"Delta":472814701},{"NoteNumber":81,"Velocity":72,"Duration":82996,"SoundDuration":82996,"Delta":472897698},{"NoteNumber":63,"Velocity":77,"Duration":82996,"SoundDuration":82996,"Delta":472980695},{"NoteNumber":69,"Velocity":71,"Duration":91670,"SoundDuration":91670,"Delta":473063691},{"NoteNumber":72,"Velocity":82,"Duration":165993,"SoundDuration":165993,"Delta":473155362},{"NoteNumber":81,"Velocity":75,"Duration":82996,"SoundDuration":82996,"Delta":473238358},{"NoteNumber":75,"Velocity":77,"Duration":82996,"SoundDuration":82996,"Delta":473321355},{"NoteNumber":84,"Velocity":72,"Duration":82996,"SoundDuration":82996,"Delta":473404352},{"NoteNumber":69,"Velocity":75,"Duration":82996,"SoundDuration":82996,"Delta":473487349},{"NoteNumber":72,"Velocity":73,"Duration":91670,"SoundDuration":91670,"Delta":473570345},{"NoteNumber":75,"Velocity":85,"Duration":165993,"SoundDuration":165993,"Delta":473662016},{"NoteNumber":84,"Velocity":71,"Duration":82996,"SoundDuration":82996,"Delta":473745012},{"NoteNumber":81,"Velocity":75,"Duration":82996,"SoundDuration":82996,"Delta":473828009},{"NoteNumber":87,"Velocity":73,"Duration":82996,"SoundDuration":82996,"Delta":473911006},{"NoteNumber":72,"Velocity":75,"Duration":82996,"SoundDuration":82996,"Delta":473994003},{"NoteNumber":75,"Velocity":73,"Duration":90777,"SoundDuration":90777,"Delta":474076999},{"NoteNumber":81,"Velocity":84,"Duration":167010,"SoundDuration":167010,"Delta":474167776},{"NoteNumber":87,"Velocity":74,"Duration":83505,"SoundDuration":83505,"Delta":474251281},{"NoteNumber":84,"Velocity":80,"Duration":83505,"SoundDuration":83505,"Delta":474334786},{"NoteNumber":93,"Velocity":74,"Duration":83505,"SoundDuration":83505,"Delta":474418291},{"NoteNumber":75,"Velocity":80,"Duration":83505,"SoundDuration":83505,"Delta":474501796},{"NoteNumber":81,"Velocity":74,"Duration":91973,"SoundDuration":91973,"Delta":474585301},{"NoteNumber":84,"Velocity":85,"Duration":170140,"SoundDuration":170140,"Delta":474677275},{"NoteNumber":93,"Velocity":83,"Duration":87700,"SoundDuration":87700,"Delta":474847415},{"NoteNumber":87,"Velocity":77,"Duration":89508,"SoundDuration":89508,"Delta":474935116},{"NoteNumber":96,"Velocity":83,"Duration":227770,"SoundDuration":227770,"Delta":475024625},{"NoteNumber":37,"Velocity":101,"Duration":172446,"SoundDuration":172446,"Delta":475252395},{"NoteNumber":49,"Velocity":101,"Duration":172446,"SoundDuration":172446,"Delta":475252395},{"NoteNumber":65,"Velocity":74,"Duration":85871,"SoundDuration":85871,"Delta":475338970},{"NoteNumber":61,"Velocity":77,"Duration":85133,"SoundDuration":85133,"Delta":475424842},{"NoteNumber":70,"Velocity":72,"Duration":84365,"SoundDuration":84365,"Delta":475509975},{"NoteNumber":53,"Velocity":78,"Duration":83756,"SoundDuration":83756,"Delta":475594341},{"NoteNumber":58,"Velocity":73,"Duration":91074,"SoundDuration":91074,"Delta":475678097},{"NoteNumber":61,"Velocity":84,"Duration":167010,"SoundDuration":167010,"Delta":475769172},{"NoteNumber":70,"Velocity":75,"Duration":83505,"SoundDuration":83505,"Delta":475936182},{"NoteNumber":65,"Velocity":72,"Duration":83505,"SoundDuration":83505,"Delta":476019687},{"NoteNumber":73,"Velocity":73,"Duration":175778,"SoundDuration":175778,"Delta":476103192},{"NoteNumber":52,"Velocity":101,"Duration":175999,"SoundDuration":175999,"Delta":476278971},{"NoteNumber":40,"Velocity":101,"Duration":175999,"SoundDuration":175999,"Delta":476278971},{"NoteNumber":67,"Velocity":75,"Duration":85871,"SoundDuration":85871,"Delta":476369098},{"NoteNumber":64,"Velocity":77,"Duration":85133,"SoundDuration":85133,"Delta":476454970},{"NoteNumber":72,"Velocity":72,"Duration":84365,"SoundDuration":84365,"Delta":476540104},{"NoteNumber":55,"Velocity":80,"Duration":83756,"SoundDuration":83756,"Delta":476624469},{"NoteNumber":60,"Velocity":73,"Duration":91074,"SoundDuration":91074,"Delta":476708225},{"NoteNumber":64,"Velocity":82,"Duration":167010,"SoundDuration":167010,"Delta":476799300},{"NoteNumber":72,"Velocity":75,"Duration":83505,"SoundDuration":83505,"Delta":476966310},{"NoteNumber":67,"Velocity":72,"Duration":83505,"SoundDuration":83505,"Delta":477049815},{"NoteNumber":76,"Velocity":73,"Duration":175778,"SoundDuration":175778,"Delta":477133320},{"NoteNumber":53,"Velocity":101,"Duration":175999,"SoundDuration":175999,"Delta":477309099},{"NoteNumber":41,"Velocity":101,"Duration":175999,"SoundDuration":175999,"Delta":477309099},{"NoteNumber":68,"Velocity":73,"Duration":85871,"SoundDuration":85871,"Delta":477399226},{"NoteNumber":65,"Velocity":77,"Duration":85133,"SoundDuration":85133,"Delta":477485098},{"NoteNumber":73,"Velocity":72,"Duration":84365,"SoundDuration":84365,"Delta":477570232},{"NoteNumber":56,"Velocity":80,"Duration":83756,"SoundDuration":83756,"Delta":477654597},{"NoteNumber":61,"Velocity":73,"Duration":91074,"SoundDuration":91074,"Delta":477738354},{"NoteNumber":65,"Velocity":86,"Duration":167010,"SoundDuration":167010,"Delta":477829428},{"NoteNumber":73,"Velocity":75,"Duration":83505,"SoundDuration":83505,"Delta":477996438},{"NoteNumber":68,"Velocity":71,"Duration":83505,"SoundDuration":83505,"Delta":478079943},{"NoteNumber":77,"Velocity":73,"Duration":175778,"SoundDuration":175778,"Delta":478163448},{"NoteNumber":43,"Velocity":101,"Duration":175999,"SoundDuration":175999,"Delta":478339227},{"NoteNumber":55,"Velocity":101,"Duration":175999,"SoundDuration":175999,"Delta":478339227},{"NoteNumber":70,"Velocity":80,"Duration":85871,"SoundDuration":85871,"Delta":478429354},{"NoteNumber":67,"Velocity":77,"Duration":85133,"SoundDuration":85133,"Delta":478515226},{"NoteNumber":76,"Velocity":72,"Duration":84365,"SoundDuration":84365,"Delta":478600360},{"NoteNumber":58,"Velocity":80,"Duration":83756,"SoundDuration":83756,"Delta":478684725},{"NoteNumber":64,"Velocity":73,"Duration":91074,"SoundDuration":91074,"Delta":478768482},{"NoteNumber":67,"Velocity":86,"Duration":167010,"SoundDuration":167010,"Delta":478859556},{"NoteNumber":76,"Velocity":75,"Duration":83505,"SoundDuration":83505,"Delta":479026566},{"NoteNumber":70,"Velocity":73,"Duration":83505,"SoundDuration":83505,"Delta":479110071},{"NoteNumber":79,"Velocity":73,"Duration":175778,"SoundDuration":175778,"Delta":479193576},{"NoteNumber":44,"Velocity":75,"Duration":165289,"SoundDuration":165289,"Delta":479369355},{"NoteNumber":72,"Velocity":64,"Duration":82644,"SoundDuration":82644,"Delta":479452000},{"NoteNumber":68,"Velocity":69,"Duration":82644,"SoundDuration":82644,"Delta":479534644},{"NoteNumber":77,"Velocity":64,"Duration":82644,"SoundDuration":82644,"Delta":479617289},{"NoteNumber":56,"Velocity":69,"Duration":82644,"SoundDuration":82644,"Delta":479699934},{"NoteNumber":60,"Velocity":61,"Duration":91670,"SoundDuration":91670,"Delta":479782579},{"NoteNumber":46,"Velocity":77,"Duration":164834,"SoundDuration":164834,"Delta":479874249},{"NoteNumber":73,"Velocity":64,"Duration":82417,"SoundDuration":82417,"Delta":479956666},{"NoteNumber":70,"Velocity":69,"Duration":82417,"SoundDuration":82417,"Delta":480039084},{"NoteNumber":79,"Velocity":67,"Duration":82417,"SoundDuration":82417,"Delta":480121501},{"NoteNumber":58,"Velocity":69,"Duration":82417,"SoundDuration":82417,"Delta":480203919},{"NoteNumber":61,"Velocity":64,"Duration":90777,"SoundDuration":90777,"Delta":480286336},{"NoteNumber":48,"Velocity":78,"Duration":165746,"SoundDuration":165746,"Delta":480377113},{"NoteNumber":75,"Velocity":69,"Duration":82873,"SoundDuration":82873,"Delta":480459986},{"NoteNumber":72,"Velocity":73,"Duration":82873,"SoundDuration":82873,"Delta":480542859},{"NoteNumber":81,"Velocity":69,"Duration":82873,"SoundDuration":82873,"Delta":480625732},{"NoteNumber":60,"Velocity":71,"Duration":82872,"SoundDuration":82872,"Delta":480708605},{"NoteNumber":63,"Velocity":67,"Duration":91973,"SoundDuration":91973,"Delta":480791478},{"NoteNumber":49,"Velocity":81,"Duration":165746,"SoundDuration":165746,"Delta":480883452},{"NoteNumber":77,"Velocity":71,"Duration":82873,"SoundDuration":82873,"Delta":480966325},{"NoteNumber":73,"Velocity":68,"Duration":82873,"SoundDuration":82873,"Delta":481049198},{"NoteNumber":82,"Velocity":70,"Duration":82873,"SoundDuration":82873,"Delta":481132071},{"NoteNumber":61,"Velocity":77,"Duration":82872,"SoundDuration":82872,"Delta":481214944},{"NoteNumber":65,"Velocity":71,"Duration":89285,"SoundDuration":89285,"Delta":481297817},{"NoteNumber":52,"Velocity":80,"Duration":165028,"SoundDuration":165028,"Delta":481387103},{"NoteNumber":79,"Velocity":71,"Duration":82417,"SoundDuration":82417,"Delta":481469713},{"NoteNumber":76,"Velocity":73,"Duration":82417,"SoundDuration":82417,"Delta":481552131},{"NoteNumber":84,"Velocity":70,"Duration":82417,"SoundDuration":82417,"Delta":481634548},{"NoteNumber":64,"Velocity":77,"Duration":82417,"SoundDuration":82417,"Delta":481716966},{"NoteNumber":67,"Velocity":73,"Duration":91670,"SoundDuration":91670,"Delta":481799383},{"NoteNumber":53,"Velocity":83,"Duration":164834,"SoundDuration":164834,"Delta":481891054},{"NoteNumber":80,"Velocity":69,"Duration":82417,"SoundDuration":82417,"Delta":481973471},{"NoteNumber":77,"Velocity":73,"Duration":82417,"SoundDuration":82417,"Delta":482055889},{"NoteNumber":85,"Velocity":72,"Duration":82417,"SoundDuration":82417,"Delta":482138306},{"NoteNumber":65,"Velocity":77,"Duration":82417,"SoundDuration":82417,"Delta":482220724},{"NoteNumber":68,"Velocity":72,"Duration":90777,"SoundDuration":90777,"Delta":482303141},{"NoteNumber":55,"Velocity":84,"Duration":164834,"SoundDuration":164834,"Delta":482393918},{"NoteNumber":82,"Velocity":74,"Duration":82417,"SoundDuration":82417,"Delta":482476336},{"NoteNumber":79,"Velocity":78,"Duration":82417,"SoundDuration":82417,"Delta":482558753},{"NoteNumber":88,"Velocity":74,"Duration":82417,"SoundDuration":82417,"Delta":482641171},{"NoteNumber":67,"Velocity":78,"Duration":82417,"SoundDuration":82417,"Delta":482723588},{"NoteNumber":70,"Velocity":74,"Duration":91973,"SoundDuration":91973,"Delta":482806006},{"NoteNumber":56,"Velocity":85,"Duration":165289,"SoundDuration":165289,"Delta":482897979},{"NoteNumber":84,"Velocity":75,"Duration":82644,"SoundDuration":82644,"Delta":482980624},{"NoteNumber":80,"Velocity":77,"Duration":82644,"SoundDuration":82644,"Delta":483063269},{"NoteNumber":89,"Velocity":75,"Duration":82644,"SoundDuration":82644,"Delta":483145914},{"NoteNumber":68,"Velocity":77,"Duration":82644,"SoundDuration":82644,"Delta":483228558},{"NoteNumber":72,"Velocity":73,"Duration":89820,"SoundDuration":89820,"Delta":483311203},{"NoteNumber":58,"Velocity":86,"Duration":165289,"SoundDuration":165289,"Delta":483401023},{"NoteNumber":85,"Velocity":78,"Duration":82644,"SoundDuration":82644,"Delta":483483668},{"NoteNumber":82,"Velocity":79,"Duration":82644,"SoundDuration":82644,"Delta":483566313},{"NoteNumber":91,"Velocity":74,"Duration":82644,"SoundDuration":82644,"Delta":483648958},{"NoteNumber":70,"Velocity":81,"Duration":82644,"SoundDuration":82644,"Delta":483731602},{"NoteNumber":73,"Velocity":77,"Duration":91670,"SoundDuration":91670,"Delta":483814247},{"NoteNumber":60,"Velocity":89,"Duration":165289,"SoundDuration":165289,"Delta":483905917},{"NoteNumber":87,"Velocity":74,"Duration":82644,"SoundDuration":82644,"Delta":483988562},{"NoteNumber":84,"Velocity":79,"Duration":82644,"SoundDuration":82644,"Delta":484071207},{"NoteNumber":93,"Velocity":74,"Duration":82644,"SoundDuration":82644,"Delta":484153852},{"NoteNumber":72,"Velocity":80,"Duration":82644,"SoundDuration":82644,"Delta":484236496},{"NoteNumber":75,"Velocity":78,"Duration":90777,"SoundDuration":90777,"Delta":484319141},{"NoteNumber":61,"Velocity":89,"Duration":165289,"SoundDuration":165289,"Delta":484409918},{"NoteNumber":89,"Velocity":79,"Duration":82644,"SoundDuration":82644,"Delta":484492563},{"NoteNumber":85,"Velocity":80,"Duration":82644,"SoundDuration":82644,"Delta":484575208},{"NoteNumber":94,"Velocity":79,"Duration":82644,"SoundDuration":82644,"Delta":484657852},{"NoteNumber":73,"Velocity":83,"Duration":82644,"SoundDuration":82644,"Delta":484740497},{"NoteNumber":77,"Velocity":80,"Duration":91973,"SoundDuration":91973,"Delta":484823142},{"NoteNumber":61,"Velocity":92,"Duration":170140,"SoundDuration":170140,"Delta":484915116},{"NoteNumber":89,"Velocity":81,"Duration":85863,"SoundDuration":85863,"Delta":484999392},{"NoteNumber":85,"Velocity":83,"Duration":87700,"SoundDuration":87700,"Delta":485085256},{"NoteNumber":94,"Velocity":80,"Duration":89508,"SoundDuration":89508,"Delta":485172957},{"NoteNumber":73,"Velocity":84,"Duration":91406,"SoundDuration":91406,"Delta":485262465},{"NoteNumber":77,"Velocity":80,"Duration":106121,"SoundDuration":106121,"Delta":485353872},{"NoteNumber":41,"Velocity":108,"Duration":86538,"SoundDuration":86538,"Delta":485459994},{"NoteNumber":53,"Velocity":100,"Duration":86124,"SoundDuration":86124,"Delta":485546532},{"NoteNumber":56,"Velocity":92,"Duration":85714,"SoundDuration":85714,"Delta":485632657},{"NoteNumber":89,"Velocity":78,"Duration":85308,"SoundDuration":85308,"Delta":485718372},{"NoteNumber":85,"Velocity":82,"Duration":84905,"SoundDuration":84905,"Delta":485803680},{"NoteNumber":94,"Velocity":79,"Duration":84427,"SoundDuration":84427,"Delta":485888585},{"NoteNumber":89,"Velocity":89,"Duration":84112,"SoundDuration":84112,"Delta":485973013},{"NoteNumber":85,"Velocity":83,"Duration":83643,"SoundDuration":83643,"Delta":486057126},{"NoteNumber":82,"Velocity":78,"Duration":83256,"SoundDuration":83256,"Delta":486140769},{"NoteNumber":77,"Velocity":78,"Duration":82949,"SoundDuration":82949,"Delta":486224025},{"NoteNumber":73,"Velocity":82,"Duration":82873,"SoundDuration":82873,"Delta":486306975},{"NoteNumber":82,"Velocity":79,"Duration":82873,"SoundDuration":82873,"Delta":486389848},{"NoteNumber":77,"Velocity":86,"Duration":82873,"SoundDuration":82873,"Delta":486472721},{"NoteNumber":73,"Velocity":82,"Duration":82872,"SoundDuration":82872,"Delta":486555594},{"NoteNumber":70,"Velocity":80,"Duration":82873,"SoundDuration":82873,"Delta":486638467},{"NoteNumber":65,"Velocity":74,"Duration":82873,"SoundDuration":82873,"Delta":486721340},{"NoteNumber":61,"Velocity":78,"Duration":82873,"SoundDuration":82873,"Delta":486804213},{"NoteNumber":70,"Velocity":73,"Duration":82873,"SoundDuration":82873,"Delta":486887086},{"NoteNumber":65,"Velocity":81,"Duration":83798,"SoundDuration":83798,"Delta":486969959},{"NoteNumber":61,"Velocity":78,"Duration":83798,"SoundDuration":83798,"Delta":487053758},{"NoteNumber":58,"Velocity":74,"Duration":84033,"SoundDuration":84033,"Delta":487137557},{"NoteNumber":53,"Velocity":74,"Duration":84033,"SoundDuration":84033,"Delta":487221590},{"NoteNumber":49,"Velocity":74,"Duration":84269,"SoundDuration":84269,"Delta":487305624},{"NoteNumber":58,"Velocity":74,"Duration":84269,"SoundDuration":84269,"Delta":487389894},{"NoteNumber":53,"Velocity":79,"Duration":84506,"SoundDuration":84506,"Delta":487474163},{"NoteNumber":49,"Velocity":71,"Duration":84427,"SoundDuration":84427,"Delta":487558670},{"NoteNumber":46,"Velocity":74,"Duration":84269,"SoundDuration":84269,"Delta":487643098},{"NoteNumber":49,"Velocity":71,"Duration":84033,"SoundDuration":84033,"Delta":487727368},{"NoteNumber":53,"Velocity":74,"Duration":83877,"SoundDuration":83877,"Delta":487811401},{"NoteNumber":58,"Velocity":72,"Duration":83721,"SoundDuration":83721,"Delta":487895279},{"NoteNumber":61,"Velocity":80,"Duration":83565,"SoundDuration":83565,"Delta":487979000},{"NoteNumber":65,"Velocity":75,"Duration":83333,"SoundDuration":83333,"Delta":488062565},{"NoteNumber":70,"Velocity":75,"Duration":83179,"SoundDuration":83179,"Delta":488145899},{"NoteNumber":73,"Velocity":75,"Duration":83102,"SoundDuration":83102,"Delta":488229078},{"NoteNumber":77,"Velocity":79,"Duration":83798,"SoundDuration":83798,"Delta":488312180},{"NoteNumber":73,"Velocity":73,"Duration":83798,"SoundDuration":83798,"Delta":488395979},{"NoteNumber":70,"Velocity":80,"Duration":84033,"SoundDuration":84033,"Delta":488479778},{"NoteNumber":73,"Velocity":74,"Duration":84112,"SoundDuration":84112,"Delta":488563812},{"NoteNumber":77,"Velocity":79,"Duration":84269,"SoundDuration":84269,"Delta":488647924},{"NoteNumber":82,"Velocity":74,"Duration":84427,"SoundDuration":84427,"Delta":488732194},{"NoteNumber":85,"Velocity":82,"Duration":84507,"SoundDuration":84507,"Delta":488816622},{"NoteNumber":82,"Velocity":75,"Duration":84626,"SoundDuration":84626,"Delta":488901129},{"NoteNumber":89,"Velocity":83,"Duration":84986,"SoundDuration":84986,"Delta":488985755},{"NoteNumber":85,"Velocity":78,"Duration":85961,"SoundDuration":85961,"Delta":489070742},{"NoteNumber":94,"Velocity":83,"Duration":86999,"SoundDuration":86999,"Delta":489156703},{"NoteNumber":89,"Velocity":78,"Duration":88063,"SoundDuration":88063,"Delta":489243703},{"NoteNumber":85,"Velocity":80,"Duration":89154,"SoundDuration":89154,"Delta":489331767},{"NoteNumber":82,"Velocity":75,"Duration":115384,"SoundDuration":115384,"Delta":489420921},{"NoteNumber":62,"Velocity":105,"Duration":86373,"SoundDuration":86373,"Delta":489536305},{"NoteNumber":74,"Velocity":100,"Duration":85878,"SoundDuration":85878,"Delta":489622679},{"NoteNumber":77,"Velocity":92,"Duration":85551,"SoundDuration":85551,"Delta":489708557},{"NoteNumber":92,"Velocity":78,"Duration":85146,"SoundDuration":85146,"Delta":489794108},{"NoteNumber":89,"Velocity":85,"Duration":84825,"SoundDuration":84825,"Delta":489879255},{"NoteNumber":95,"Velocity":81,"Duration":84427,"SoundDuration":84427,"Delta":489964081},{"NoteNumber":92,"Velocity":92,"Duration":84112,"SoundDuration":84112,"Delta":490048508},{"NoteNumber":89,"Velocity":80,"Duration":83721,"SoundDuration":83721,"Delta":490132621},{"NoteNumber":86,"Velocity":81,"Duration":83410,"SoundDuration":83410,"Delta":490216342},{"NoteNumber":83,"Velocity":77,"Duration":83026,"SoundDuration":83026,"Delta":490299753},{"NoteNumber":80,"Velocity":81,"Duration":82720,"SoundDuration":82720,"Delta":490382779},{"NoteNumber":77,"Velocity":79,"Duration":82644,"SoundDuration":82644,"Delta":490465499},{"NoteNumber":83,"Velocity":85,"Duration":82644,"SoundDuration":82644,"Delta":490548144},{"NoteNumber":80,"Velocity":82,"Duration":82644,"SoundDuration":82644,"Delta":490630789},{"NoteNumber":77,"Velocity":78,"Duration":82644,"SoundDuration":82644,"Delta":490713434},{"NoteNumber":74,"Velocity":74,"Duration":82569,"SoundDuration":82569,"Delta":490796078},{"NoteNumber":71,"Velocity":75,"Duration":82417,"SoundDuration":82417,"Delta":490878647},{"NoteNumber":68,"Velocity":73,"Duration":82568,"SoundDuration":82568,"Delta":490961065},{"NoteNumber":74,"Velocity":81,"Duration":82644,"SoundDuration":82644,"Delta":491043634},{"NoteNumber":71,"Velocity":78,"Duration":82873,"SoundDuration":82873,"Delta":491126279},{"NoteNumber":68,"Velocity":74,"Duration":82949,"SoundDuration":82949,"Delta":491209152},{"NoteNumber":65,"Velocity":74,"Duration":83102,"SoundDuration":83102,"Delta":491292101},{"NoteNumber":62,"Velocity":74,"Duration":83256,"SoundDuration":83256,"Delta":491375204},{"NoteNumber":59,"Velocity":74,"Duration":83566,"SoundDuration":83566,"Delta":491458460},{"NoteNumber":68,"Velocity":79,"Duration":84033,"SoundDuration":84033,"Delta":491542027},{"NoteNumber":65,"Velocity":71,"Duration":83798,"SoundDuration":83798,"Delta":491626060},{"NoteNumber":62,"Velocity":74,"Duration":83565,"SoundDuration":83565,"Delta":491709859},{"NoteNumber":59,"Velocity":71,"Duration":83333,"SoundDuration":83333,"Delta":491793425},{"NoteNumber":56,"Velocity":74,"Duration":83102,"SoundDuration":83102,"Delta":491876758},{"NoteNumber":53,"Velocity":72,"Duration":82873,"SoundDuration":82873,"Delta":491959860},{"NoteNumber":50,"Velocity":80,"Duration":82644,"SoundDuration":82644,"Delta":492042733},{"NoteNumber":47,"Velocity":75,"Duration":82417,"SoundDuration":82417,"Delta":492125378},{"NoteNumber":50,"Velocity":75,"Duration":82191,"SoundDuration":82191,"Delta":492207796},{"NoteNumber":53,"Velocity":75,"Duration":82191,"SoundDuration":82191,"Delta":492289987},{"NoteNumber":56,"Velocity":79,"Duration":82493,"SoundDuration":82493,"Delta":492372179},{"NoteNumber":59,"Velocity":73,"Duration":82720,"SoundDuration":82720,"Delta":492454672},{"NoteNumber":62,"Velocity":80,"Duration":83025,"SoundDuration":83025,"Delta":492537393},{"NoteNumber":65,"Velocity":74,"Duration":83333,"SoundDuration":83333,"Delta":492620419},{"NoteNumber":68,"Velocity":79,"Duration":83643,"SoundDuration":83643,"Delta":492703752},{"NoteNumber":71,"Velocity":74,"Duration":83955,"SoundDuration":83955,"Delta":492787396},{"NoteNumber":74,"Velocity":82,"Duration":84587,"SoundDuration":84587,"Delta":492871351},{"NoteNumber":77,"Velocity":75,"Duration":85633,"SoundDuration":85633,"Delta":492955939},{"NoteNumber":80,"Velocity":83,"Duration":86873,"SoundDuration":86873,"Delta":493041572},{"NoteNumber":83,"Velocity":78,"Duration":88063,"SoundDuration":88063,"Delta":493128446},{"NoteNumber":86,"Velocity":83,"Duration":89287,"SoundDuration":89287,"Delta":493216510},{"NoteNumber":89,"Velocity":78,"Duration":90544,"SoundDuration":90544,"Delta":493305798},{"NoteNumber":92,"Velocity":80,"Duration":91837,"SoundDuration":91837,"Delta":493396342},{"NoteNumber":95,"Velocity":75,"Duration":232594,"SoundDuration":232594,"Delta":493488180},{"NoteNumber":36,"Velocity":125,"Duration":212014,"SoundDuration":212014,"Delta":493720774},{"NoteNumber":92,"Velocity":78,"Duration":120009,"SoundDuration":120009,"Delta":494052797},{"NoteNumber":89,"Velocity":82,"Duration":143554,"SoundDuration":143554,"Delta":494172807},{"NoteNumber":96,"Velocity":79,"Duration":109902,"SoundDuration":109902,"Delta":494316361},{"NoteNumber":92,"Velocity":92,"Duration":89339,"SoundDuration":89339,"Delta":494426264},{"NoteNumber":89,"Velocity":83,"Duration":87807,"SoundDuration":87807,"Delta":494515604},{"NoteNumber":84,"Velocity":82,"Duration":87634,"SoundDuration":87634,"Delta":494603411},{"NoteNumber":80,"Velocity":78,"Duration":87293,"SoundDuration":87293,"Delta":494691045},{"NoteNumber":77,"Velocity":82,"Duration":86872,"SoundDuration":86872,"Delta":494778339},{"NoteNumber":84,"Velocity":79,"Duration":86538,"SoundDuration":86538,"Delta":494865212},{"NoteNumber":80,"Velocity":86,"Duration":86124,"SoundDuration":86124,"Delta":494951750},{"NoteNumber":77,"Velocity":82,"Duration":85796,"SoundDuration":85796,"Delta":495037875},{"NoteNumber":72,"Velocity":80,"Duration":85551,"SoundDuration":85551,"Delta":495123671},{"NoteNumber":68,"Velocity":74,"Duration":85146,"SoundDuration":85146,"Delta":495209222},{"NoteNumber":65,"Velocity":78,"Duration":84825,"SoundDuration":84825,"Delta":495294369},{"NoteNumber":72,"Velocity":73,"Duration":84427,"SoundDuration":84427,"Delta":495379195},{"NoteNumber":68,"Velocity":81,"Duration":84112,"SoundDuration":84112,"Delta":495463623},{"NoteNumber":65,"Velocity":78,"Duration":83721,"SoundDuration":83721,"Delta":495547735},{"NoteNumber":60,"Velocity":74,"Duration":83410,"SoundDuration":83410,"Delta":495631456},{"NoteNumber":56,"Velocity":74,"Duration":83333,"SoundDuration":83333,"Delta":495714867},{"NoteNumber":53,"Velocity":74,"Duration":84269,"SoundDuration":84269,"Delta":495798200},{"NoteNumber":60,"Velocity":74,"Duration":84269,"SoundDuration":84269,"Delta":495882470},{"NoteNumber":56,"Velocity":79,"Duration":84506,"SoundDuration":84506,"Delta":495966740},{"NoteNumber":53,"Velocity":71,"Duration":84427,"SoundDuration":84427,"Delta":496051247},{"NoteNumber":48,"Velocity":74,"Duration":84269,"SoundDuration":84269,"Delta":496135675},{"NoteNumber":44,"Velocity":71,"Duration":84033,"SoundDuration":84033,"Delta":496219944},{"NoteNumber":41,"Velocity":74,"Duration":83877,"SoundDuration":83877,"Delta":496303978},{"NoteNumber":36,"Velocity":72,"Duration":83721,"SoundDuration":83721,"Delta":496387855},{"NoteNumber":41,"Velocity":80,"Duration":83565,"SoundDuration":83565,"Delta":496471576},{"NoteNumber":44,"Velocity":75,"Duration":83333,"SoundDuration":83333,"Delta":496555142},{"NoteNumber":48,"Velocity":75,"Duration":83179,"SoundDuration":83179,"Delta":496638475},{"NoteNumber":53,"Velocity":75,"Duration":83102,"SoundDuration":83102,"Delta":496721654},{"NoteNumber":56,"Velocity":79,"Duration":83798,"SoundDuration":83798,"Delta":496804757},{"NoteNumber":60,"Velocity":73,"Duration":83798,"SoundDuration":83798,"Delta":496888556},{"NoteNumber":65,"Velocity":80,"Duration":84033,"SoundDuration":84033,"Delta":496972355},{"NoteNumber":68,"Velocity":74,"Duration":84112,"SoundDuration":84112,"Delta":497056388},{"NoteNumber":72,"Velocity":79,"Duration":84269,"SoundDuration":84269,"Delta":497140501},{"NoteNumber":77,"Velocity":74,"Duration":84427,"SoundDuration":84427,"Delta":497224770},{"NoteNumber":80,"Velocity":78,"Duration":84507,"SoundDuration":84507,"Delta":497309198},{"NoteNumber":84,"Velocity":75,"Duration":84626,"SoundDuration":84626,"Delta":497393705},{"NoteNumber":89,"Velocity":83,"Duration":84986,"SoundDuration":84986,"Delta":497478332},{"NoteNumber":92,"Velocity":78,"Duration":85961,"SoundDuration":85961,"Delta":497563319},{"NoteNumber":96,"Velocity":83,"Duration":86999,"SoundDuration":86999,"Delta":497649280},{"NoteNumber":92,"Velocity":78,"Duration":88063,"SoundDuration":88063,"Delta":497736279},{"NoteNumber":89,"Velocity":80,"Duration":88932,"SoundDuration":88932,"Delta":497824343},{"NoteNumber":84,"Velocity":75,"Duration":89020,"SoundDuration":89020,"Delta":497913276},{"NoteNumber":36,"Velocity":82,"Duration":86705,"SoundDuration":86705,"Delta":498002297},{"NoteNumber":48,"Velocity":72,"Duration":86372,"SoundDuration":86372,"Delta":498089002},{"NoteNumber":52,"Velocity":73,"Duration":86042,"SoundDuration":86042,"Delta":498175374},{"NoteNumber":91,"Velocity":72,"Duration":85632,"SoundDuration":85632,"Delta":498261417},{"NoteNumber":55,"Velocity":74,"Duration":85632,"SoundDuration":85632,"Delta":498261417},{"NoteNumber":88,"Velocity":77,"Duration":85308,"SoundDuration":85308,"Delta":498347050},{"NoteNumber":58,"Velocity":74,"Duration":170293,"SoundDuration":170293,"Delta":498347050},{"NoteNumber":94,"Velocity":73,"Duration":84985,"SoundDuration":84985,"Delta":498432358},{"NoteNumber":91,"Velocity":78,"Duration":84666,"SoundDuration":84666,"Delta":498517344},{"NoteNumber":88,"Velocity":77,"Duration":84348,"SoundDuration":84348,"Delta":498602010},{"NoteNumber":84,"Velocity":74,"Duration":83955,"SoundDuration":83955,"Delta":498686359},{"NoteNumber":82,"Velocity":72,"Duration":83643,"SoundDuration":83643,"Delta":498770314},{"NoteNumber":79,"Velocity":77,"Duration":83488,"SoundDuration":83488,"Delta":498853957},{"NoteNumber":76,"Velocity":73,"Duration":83565,"SoundDuration":83565,"Delta":498937445},{"NoteNumber":72,"Velocity":78,"Duration":83565,"SoundDuration":83565,"Delta":499021011},{"NoteNumber":70,"Velocity":75,"Duration":83565,"SoundDuration":83565,"Delta":499104576},{"NoteNumber":67,"Velocity":71,"Duration":83565,"SoundDuration":83565,"Delta":499188142},{"NoteNumber":64,"Velocity":70,"Duration":83565,"SoundDuration":83565,"Delta":499271707},{"NoteNumber":60,"Velocity":73,"Duration":83565,"SoundDuration":83565,"Delta":499355273},{"NoteNumber":58,"Velocity":69,"Duration":83565,"SoundDuration":83565,"Delta":499438838},{"NoteNumber":55,"Velocity":74,"Duration":83798,"SoundDuration":83798,"Delta":499522404},{"NoteNumber":52,"Velocity":69,"Duration":83798,"SoundDuration":83798,"Delta":499606203},{"NoteNumber":48,"Velocity":71,"Duration":84033,"SoundDuration":84033,"Delta":499690002},{"NoteNumber":46,"Velocity":70,"Duration":84033,"SoundDuration":84033,"Delta":499774035},{"NoteNumber":43,"Velocity":70,"Duration":84269,"SoundDuration":84269,"Delta":499858069},{"NoteNumber":40,"Velocity":70,"Duration":84269,"SoundDuration":84269,"Delta":499942339},{"NoteNumber":36,"Velocity":75,"Duration":84506,"SoundDuration":84506,"Delta":500026608},{"NoteNumber":40,"Velocity":67,"Duration":84427,"SoundDuration":84427,"Delta":500111115},{"NoteNumber":43,"Velocity":70,"Duration":84269,"SoundDuration":84269,"Delta":500195543},{"NoteNumber":46,"Velocity":67,"Duration":84033,"SoundDuration":84033,"Delta":500279813},{"NoteNumber":48,"Velocity":70,"Duration":83877,"SoundDuration":83877,"Delta":500363846},{"NoteNumber":52,"Velocity":68,"Duration":83721,"SoundDuration":83721,"Delta":500447724},{"NoteNumber":55,"Velocity":76,"Duration":83565,"SoundDuration":83565,"Delta":500531445},{"NoteNumber":58,"Velocity":71,"Duration":83333,"SoundDuration":83333,"Delta":500615010},{"NoteNumber":60,"Velocity":71,"Duration":83179,"SoundDuration":83179,"Delta":500698344},{"NoteNumber":64,"Velocity":71,"Duration":83102,"SoundDuration":83102,"Delta":500781523},{"NoteNumber":67,"Velocity":73,"Duration":83798,"SoundDuration":83798,"Delta":500864625},{"NoteNumber":70,"Velocity":69,"Duration":83798,"SoundDuration":83798,"Delta":500948424},{"NoteNumber":72,"Velocity":73,"Duration":84033,"SoundDuration":84033,"Delta":501032223},{"NoteNumber":76,"Velocity":66,"Duration":84112,"SoundDuration":84112,"Delta":501116257},{"NoteNumber":79,"Velocity":70,"Duration":84269,"SoundDuration":84269,"Delta":501200369},{"NoteNumber":76,"Velocity":66,"Duration":84427,"SoundDuration":84427,"Delta":501284639},{"NoteNumber":72,"Velocity":70,"Duration":84986,"SoundDuration":84986,"Delta":501369067},{"NoteNumber":76,"Velocity":66,"Duration":85961,"SoundDuration":85961,"Delta":501454054},{"NoteNumber":79,"Velocity":70,"Duration":86957,"SoundDuration":86957,"Delta":501540015},{"NoteNumber":76,"Velocity":60,"Duration":87977,"SoundDuration":87977,"Delta":501626973},{"NoteNumber":82,"Velocity":65,"Duration":89022,"SoundDuration":89022,"Delta":501714950},{"NoteNumber":79,"Velocity":58,"Duration":90091,"SoundDuration":90091,"Delta":501803972},{"NoteNumber":76,"Velocity":63,"Duration":91186,"SoundDuration":91186,"Delta":501894064},{"NoteNumber":79,"Velocity":56,"Duration":115384,"SoundDuration":115384,"Delta":501985251},{"NoteNumber":82,"Velocity":57,"Duration":429891,"SoundDuration":429891,"Delta":502100635},{"NoteNumber":49,"Velocity":37,"Duration":283902,"SoundDuration":283902,"Delta":502745473},{"NoteNumber":49,"Velocity":35,"Duration":291177,"SoundDuration":291177,"Delta":503029376},{"NoteNumber":49,"Velocity":35,"Duration":301507,"SoundDuration":301507,"Delta":503320553},{"NoteNumber":48,"Velocity":36,"Duration":424537,"SoundDuration":424537,"Delta":503622061},{"NoteNumber":79,"Velocity":46,"Duration":283902,"SoundDuration":283902,"Delta":504258868},{"NoteNumber":76,"Velocity":46,"Duration":283902,"SoundDuration":283902,"Delta":504258868},{"NoteNumber":76,"Velocity":42,"Duration":283902,"SoundDuration":283902,"Delta":504542770},{"NoteNumber":79,"Velocity":42,"Duration":283902,"SoundDuration":283902,"Delta":504542770},{"NoteNumber":76,"Velocity":46,"Duration":301871,"SoundDuration":301871,"Delta":504826673},{"NoteNumber":79,"Velocity":46,"Duration":301871,"SoundDuration":301871,"Delta":504826673},{"NoteNumber":82,"Velocity":46,"Duration":448262,"SoundDuration":448262,"Delta":505128544},{"NoteNumber":79,"Velocity":46,"Duration":448262,"SoundDuration":448262,"Delta":505128544},{"NoteNumber":49,"Velocity":35,"Duration":285090,"SoundDuration":285090,"Delta":505800939},{"NoteNumber":49,"Velocity":33,"Duration":292425,"SoundDuration":292425,"Delta":506086029},{"NoteNumber":49,"Velocity":33,"Duration":304197,"SoundDuration":304197,"Delta":506378455},{"NoteNumber":48,"Velocity":34,"Duration":473185,"SoundDuration":473185,"Delta":506682653},{"NoteNumber":64,"Velocity":39,"Duration":300180,"SoundDuration":300180,"Delta":507392432},{"NoteNumber":67,"Velocity":39,"Duration":300180,"SoundDuration":300180,"Delta":507392432},{"NoteNumber":64,"Velocity":37,"Duration":300180,"SoundDuration":300180,"Delta":507692612},{"NoteNumber":67,"Velocity":37,"Duration":300180,"SoundDuration":300180,"Delta":507692612},{"NoteNumber":67,"Velocity":37,"Duration":311139,"SoundDuration":311139,"Delta":507992792},{"NoteNumber":64,"Velocity":37,"Duration":311139,"SoundDuration":311139,"Delta":507992792},{"NoteNumber":67,"Velocity":41,"Duration":587372,"SoundDuration":587372,"Delta":508303931},{"NoteNumber":70,"Velocity":41,"Duration":587372,"SoundDuration":587372,"Delta":508303931},{"NoteNumber":37,"Velocity":32,"Duration":343257,"SoundDuration":343257,"Delta":509192820},{"NoteNumber":37,"Velocity":30,"Duration":348528,"SoundDuration":348528,"Delta":509536078},{"NoteNumber":37,"Velocity":30,"Duration":353987,"SoundDuration":353987,"Delta":509884606},{"NoteNumber":36,"Velocity":31,"Duration":1104972,"SoundDuration":1104972,"Delta":510238594},{"NoteNumber":37,"Velocity":31,"Duration":372346,"SoundDuration":372346,"Delta":511343566},{"NoteNumber":37,"Velocity":29,"Duration":372346,"SoundDuration":372346,"Delta":511715913},{"NoteNumber":37,"Velocity":29,"Duration":372346,"SoundDuration":372346,"Delta":512088260},{"NoteNumber":36,"Velocity":29,"Duration":1117040,"SoundDuration":1117040,"Delta":512460607},{"NoteNumber":70,"Velocity":32,"Duration":425592,"SoundDuration":425592,"Delta":513577648},{"NoteNumber":67,"Velocity":32,"Duration":425592,"SoundDuration":425592,"Delta":513577648},{"NoteNumber":76,"Velocity":32,"Duration":425592,"SoundDuration":425592,"Delta":513577648},{"NoteNumber":37,"Velocity":21,"Duration":425592,"SoundDuration":425592,"Delta":513577648},{"NoteNumber":76,"Velocity":36,"Duration":461609,"SoundDuration":461609,"Delta":514003240},{"NoteNumber":70,"Velocity":36,"Duration":461609,"SoundDuration":461609,"Delta":514003240},{"NoteNumber":67,"Velocity":36,"Duration":461609,"SoundDuration":461609,"Delta":514003240},{"NoteNumber":37,"Velocity":24,"Duration":461609,"SoundDuration":461609,"Delta":514003240},{"NoteNumber":76,"Velocity":39,"Duration":625130,"SoundDuration":625130,"Delta":514464850},{"NoteNumber":67,"Velocity":39,"Duration":625130,"SoundDuration":625130,"Delta":514464850},{"NoteNumber":70,"Velocity":39,"Duration":625130,"SoundDuration":625130,"Delta":514464850},{"NoteNumber":37,"Velocity":26,"Duration":625130,"SoundDuration":625130,"Delta":514464850},{"NoteNumber":76,"Velocity":43,"Duration":1578947,"SoundDuration":1578947,"Delta":515089980},{"NoteNumber":70,"Velocity":43,"Duration":1578947,"SoundDuration":1578947,"Delta":515089980},{"NoteNumber":67,"Velocity":43,"Duration":1578947,"SoundDuration":1578947,"Delta":515089980},{"NoteNumber":36,"Velocity":28,"Duration":1578947,"SoundDuration":1578947,"Delta":515089980},{"NoteNumber":84,"Velocity":87,"Duration":163943,"SoundDuration":163943,"Delta":516668928},{"NoteNumber":82,"Velocity":87,"Duration":163943,"SoundDuration":163943,"Delta":516668928},{"NoteNumber":79,"Velocity":87,"Duration":163943,"SoundDuration":163943,"Delta":516668928},{"NoteNumber":76,"Velocity":87,"Duration":163943,"SoundDuration":163943,"Delta":516668928},{"NoteNumber":88,"Velocity":102,"Duration":163943,"SoundDuration":163943,"Delta":516668928},{"NoteNumber":36,"Velocity":70,"Duration":163943,"SoundDuration":163943,"Delta":516668928},{"NoteNumber":48,"Velocity":83,"Duration":163943,"SoundDuration":163943,"Delta":516668928},{"NoteNumber":76,"Velocity":78,"Duration":163943,"SoundDuration":163943,"Delta":516832871},{"NoteNumber":84,"Velocity":78,"Duration":163943,"SoundDuration":163943,"Delta":516832871},{"NoteNumber":79,"Velocity":78,"Duration":163943,"SoundDuration":163943,"Delta":516832871},{"NoteNumber":88,"Velocity":93,"Duration":163943,"SoundDuration":163943,"Delta":516832871},{"NoteNumber":82,"Velocity":78,"Duration":163943,"SoundDuration":163943,"Delta":516832871},{"NoteNumber":48,"Velocity":78,"Duration":163943,"SoundDuration":163943,"Delta":516832871},{"NoteNumber":36,"Velocity":65,"Duration":163943,"SoundDuration":163943,"Delta":516832871},{"NoteNumber":79,"Velocity":78,"Duration":163943,"SoundDuration":163943,"Delta":516996815},{"NoteNumber":76,"Velocity":78,"Duration":163943,"SoundDuration":163943,"Delta":516996815},{"NoteNumber":82,"Velocity":78,"Duration":163943,"SoundDuration":163943,"Delta":516996815},{"NoteNumber":84,"Velocity":78,"Duration":163943,"SoundDuration":163943,"Delta":516996815},{"NoteNumber":88,"Velocity":93,"Duration":163943,"SoundDuration":163943,"Delta":516996815},{"NoteNumber":48,"Velocity":78,"Duration":163943,"SoundDuration":163943,"Delta":516996815},{"NoteNumber":36,"Velocity":65,"Duration":163943,"SoundDuration":163943,"Delta":516996815},{"NoteNumber":84,"Velocity":87,"Duration":296247,"SoundDuration":296247,"Delta":517160758},{"NoteNumber":80,"Velocity":87,"Duration":296247,"SoundDuration":296247,"Delta":517160758},{"NoteNumber":89,"Velocity":102,"Duration":296247,"SoundDuration":296247,"Delta":517160758},{"NoteNumber":77,"Velocity":87,"Duration":296247,"SoundDuration":296247,"Delta":517160758},{"NoteNumber":29,"Velocity":71,"Duration":163943,"SoundDuration":163943,"Delta":517160758},{"NoteNumber":41,"Velocity":85,"Duration":163943,"SoundDuration":163943,"Delta":517160758},{"NoteNumber":65,"Velocity":30,"Duration":132304,"SoundDuration":132304,"Delta":517324702},{"NoteNumber":60,"Velocity":30,"Duration":132304,"SoundDuration":132304,"Delta":517324702},{"NoteNumber":56,"Velocity":37,"Duration":132304,"SoundDuration":132304,"Delta":517457006},{"NoteNumber":65,"Velocity":42,"Duration":132304,"SoundDuration":132304,"Delta":517589311},{"NoteNumber":60,"Velocity":32,"Duration":132304,"SoundDuration":132304,"Delta":517589311},{"NoteNumber":56,"Velocity":37,"Duration":132304,"SoundDuration":132304,"Delta":517721615},{"NoteNumber":60,"Velocity":30,"Duration":132304,"SoundDuration":132304,"Delta":517853920},{"NoteNumber":65,"Velocity":37,"Duration":132304,"SoundDuration":132304,"Delta":517853920},{"NoteNumber":56,"Velocity":42,"Duration":132304,"SoundDuration":132304,"Delta":517986224},{"NoteNumber":65,"Velocity":37,"Duration":132304,"SoundDuration":132304,"Delta":518118529},{"NoteNumber":60,"Velocity":30,"Duration":132304,"SoundDuration":132304,"Delta":518118529},{"NoteNumber":56,"Velocity":37,"Duration":132304,"SoundDuration":132304,"Delta":518250833},{"NoteNumber":68,"Velocity":66,"Duration":340946,"SoundDuration":340946,"Delta":518383138},{"NoteNumber":65,"Velocity":42,"Duration":132304,"SoundDuration":132304,"Delta":518383138},{"NoteNumber":60,"Velocity":32,"Duration":132304,"SoundDuration":132304,"Delta":518383138},{"NoteNumber":56,"Velocity":37,"Duration":139094,"SoundDuration":139094,"Delta":518515442},{"NoteNumber":65,"Velocity":41,"Duration":157751,"SoundDuration":157751,"Delta":518654537},{"NoteNumber":60,"Velocity":31,"Duration":157751,"SoundDuration":157751,"Delta":518654537},{"NoteNumber":72,"Velocity":58,"Duration":88204,"SoundDuration":88204,"Delta":518724085},{"NoteNumber":77,"Velocity":63,"Duration":375071,"SoundDuration":375071,"Delta":518812289},{"NoteNumber":56,"Velocity":42,"Duration":124862,"SoundDuration":124862,"Delta":518812289},{"NoteNumber":60,"Velocity":30,"Duration":125104,"SoundDuration":125104,"Delta":518937152},{"NoteNumber":65,"Velocity":36,"Duration":125104,"SoundDuration":125104,"Delta":518937152},{"NoteNumber":56,"Velocity":37,"Duration":125104,"SoundDuration":125104,"Delta":519062256},{"NoteNumber":80,"Velocity":68,"Duration":331917,"SoundDuration":331917,"Delta":519187361},{"NoteNumber":65,"Velocity":42,"Duration":131159,"SoundDuration":131159,"Delta":519187361},{"NoteNumber":60,"Velocity":32,"Duration":131159,"SoundDuration":131159,"Delta":519187361},{"NoteNumber":56,"Velocity":37,"Duration":133838,"SoundDuration":133838,"Delta":519318520},{"NoteNumber":65,"Velocity":37,"Duration":143403,"SoundDuration":143403,"Delta":519452359},{"NoteNumber":60,"Velocity":30,"Duration":143403,"SoundDuration":143403,"Delta":519452359},{"NoteNumber":77,"Velocity":60,"Duration":76483,"SoundDuration":76483,"Delta":519519278},{"NoteNumber":76,"Velocity":63,"Duration":386828,"SoundDuration":386828,"Delta":519595762},{"NoteNumber":58,"Velocity":42,"Duration":131769,"SoundDuration":131769,"Delta":519595762},{"NoteNumber":67,"Velocity":37,"Duration":127529,"SoundDuration":127529,"Delta":519727531},{"NoteNumber":60,"Velocity":30,"Duration":127529,"SoundDuration":127529,"Delta":519727531},{"NoteNumber":58,"Velocity":37,"Duration":127529,"SoundDuration":127529,"Delta":519855061},{"NoteNumber":79,"Velocity":68,"Duration":335020,"SoundDuration":335020,"Delta":519982590},{"NoteNumber":67,"Velocity":42,"Duration":130055,"SoundDuration":130055,"Delta":519982590},{"NoteNumber":60,"Velocity":32,"Duration":130055,"SoundDuration":130055,"Delta":519982590},{"NoteNumber":58,"Velocity":37,"Duration":136643,"SoundDuration":136643,"Delta":520112646},{"NoteNumber":67,"Velocity":41,"Duration":150535,"SoundDuration":150535,"Delta":520249289},{"NoteNumber":60,"Velocity":31,"Duration":150535,"SoundDuration":150535,"Delta":520249289},{"NoteNumber":76,"Velocity":60,"Duration":82214,"SoundDuration":82214,"Delta":520317611},{"NoteNumber":77,"Velocity":63,"Duration":375313,"SoundDuration":375313,"Delta":520399825},{"NoteNumber":56,"Velocity":42,"Duration":125104,"SoundDuration":125104,"Delta":520399825},{"NoteNumber":60,"Velocity":30,"Duration":125104,"SoundDuration":125104,"Delta":520524930},{"NoteNumber":65,"Velocity":36,"Duration":125104,"SoundDuration":125104,"Delta":520524930},{"NoteNumber":56,"Velocity":37,"Duration":125104,"SoundDuration":125104,"Delta":520650034},{"NoteNumber":72,"Velocity":62,"Duration":771606,"SoundDuration":771606,"Delta":520775139},{"NoteNumber":60,"Velocity":32,"Duration":128601,"SoundDuration":128601,"Delta":520775139},{"NoteNumber":65,"Velocity":42,"Duration":128601,"SoundDuration":128601,"Delta":520775139},{"NoteNumber":56,"Velocity":37,"Duration":128601,"SoundDuration":128601,"Delta":520903740},{"NoteNumber":60,"Velocity":30,"Duration":128601,"SoundDuration":128601,"Delta":521032341},{"NoteNumber":65,"Velocity":37,"Duration":128601,"SoundDuration":128601,"Delta":521032341},{"NoteNumber":56,"Velocity":42,"Duration":128601,"SoundDuration":128601,"Delta":521160942},{"NoteNumber":60,"Velocity":30,"Duration":128601,"SoundDuration":128601,"Delta":521289543},{"NoteNumber":65,"Velocity":37,"Duration":128601,"SoundDuration":128601,"Delta":521289543},{"NoteNumber":56,"Velocity":42,"Duration":128601,"SoundDuration":128601,"Delta":521418144},{"NoteNumber":80,"Velocity":71,"Duration":327575,"SoundDuration":327575,"Delta":521546745},{"NoteNumber":68,"Velocity":60,"Duration":327575,"SoundDuration":327575,"Delta":521546745},{"NoteNumber":60,"Velocity":34,"Duration":128601,"SoundDuration":128601,"Delta":521546745},{"NoteNumber":65,"Velocity":44,"Duration":128601,"SoundDuration":128601,"Delta":521546745},{"NoteNumber":56,"Velocity":40,"Duration":132649,"SoundDuration":132649,"Delta":521675346},{"NoteNumber":60,"Velocity":33,"Duration":154529,"SoundDuration":154529,"Delta":521807995},{"NoteNumber":65,"Velocity":44,"Duration":154529,"SoundDuration":154529,"Delta":521807995},{"NoteNumber":84,"Velocity":62,"Duration":88204,"SoundDuration":88204,"Delta":521874320},{"NoteNumber":72,"Velocity":52,"Duration":88204,"SoundDuration":88204,"Delta":521874320},{"NoteNumber":77,"Velocity":61,"Duration":375071,"SoundDuration":375071,"Delta":521962524},{"NoteNumber":89,"Velocity":73,"Duration":375071,"SoundDuration":375071,"Delta":521962524},{"NoteNumber":56,"Velocity":46,"Duration":124862,"SoundDuration":124862,"Delta":521962524},{"NoteNumber":68,"Velocity":40,"Duration":125104,"SoundDuration":125104,"Delta":522087387},{"NoteNumber":60,"Velocity":34,"Duration":125104,"SoundDuration":125104,"Delta":522087387},{"NoteNumber":65,"Velocity":40,"Duration":125104,"SoundDuration":125104,"Delta":522087387},{"NoteNumber":56,"Velocity":42,"Duration":125104,"SoundDuration":125104,"Delta":522212492},{"NoteNumber":92,"Velocity":78,"Duration":331917,"SoundDuration":331917,"Delta":522337596},{"NoteNumber":80,"Velocity":65,"Duration":331917,"SoundDuration":331917,"Delta":522337596},{"NoteNumber":68,"Velocity":47,"Duration":131159,"SoundDuration":131159,"Delta":522337596},{"NoteNumber":60,"Velocity":36,"Duration":131159,"SoundDuration":131159,"Delta":522337596},{"NoteNumber":65,"Velocity":47,"Duration":131159,"SoundDuration":131159,"Delta":522337596},{"NoteNumber":56,"Velocity":43,"Duration":133838,"SoundDuration":133838,"Delta":522468755},{"NoteNumber":68,"Velocity":44,"Duration":146706,"SoundDuration":146706,"Delta":522602594},{"NoteNumber":65,"Velocity":44,"Duration":146706,"SoundDuration":146706,"Delta":522602594},{"NoteNumber":60,"Velocity":36,"Duration":146706,"SoundDuration":146706,"Delta":522602594},{"NoteNumber":89,"Velocity":71,"Duration":79787,"SoundDuration":79787,"Delta":522669514},{"NoteNumber":77,"Velocity":59,"Duration":79787,"SoundDuration":79787,"Delta":522669514},{"NoteNumber":88,"Velocity":76,"Duration":387929,"SoundDuration":387929,"Delta":522749301},{"NoteNumber":76,"Velocity":64,"Duration":387929,"SoundDuration":387929,"Delta":522749301},{"NoteNumber":58,"Velocity":49,"Duration":132870,"SoundDuration":132870,"Delta":522749301},{"NoteNumber":64,"Velocity":36,"Duration":127529,"SoundDuration":127529,"Delta":522882171},{"NoteNumber":60,"Velocity":36,"Duration":127529,"SoundDuration":127529,"Delta":522882171},{"NoteNumber":67,"Velocity":45,"Duration":127529,"SoundDuration":127529,"Delta":522882171},{"NoteNumber":58,"Velocity":46,"Duration":127529,"SoundDuration":127529,"Delta":523009701},{"NoteNumber":91,"Velocity":82,"Duration":331904,"SoundDuration":331904,"Delta":523137230},{"NoteNumber":79,"Velocity":68,"Duration":331904,"SoundDuration":331904,"Delta":523137230},{"NoteNumber":64,"Velocity":39,"Duration":130055,"SoundDuration":130055,"Delta":523137230},{"NoteNumber":67,"Velocity":51,"Duration":130055,"SoundDuration":130055,"Delta":523137230},{"NoteNumber":60,"Velocity":39,"Duration":130055,"SoundDuration":130055,"Delta":523137230},{"NoteNumber":58,"Velocity":47,"Duration":134565,"SoundDuration":134565,"Delta":523267286},{"NoteNumber":64,"Velocity":38,"Duration":160577,"SoundDuration":160577,"Delta":523401852},{"NoteNumber":67,"Velocity":51,"Duration":160577,"SoundDuration":160577,"Delta":523401852},{"NoteNumber":60,"Velocity":38,"Duration":160577,"SoundDuration":160577,"Delta":523401852},{"NoteNumber":88,"Velocity":77,"Duration":93295,"SoundDuration":93295,"Delta":523469134},{"NoteNumber":76,"Velocity":65,"Duration":93295,"SoundDuration":93295,"Delta":523469134},{"NoteNumber":90,"Velocity":99,"Duration":375313,"SoundDuration":375313,"Delta":523562430},{"NoteNumber":78,"Velocity":82,"Duration":375313,"SoundDuration":375313,"Delta":523562430},{"NoteNumber":57,"Velocity":55,"Duration":125104,"SoundDuration":125104,"Delta":523562430},{"NoteNumber":66,"Velocity":48,"Duration":125104,"SoundDuration":125104,"Delta":523687534},{"NoteNumber":63,"Velocity":48,"Duration":125104,"SoundDuration":125104,"Delta":523687534},{"NoteNumber":60,"Velocity":39,"Duration":125104,"SoundDuration":125104,"Delta":523687534},{"NoteNumber":57,"Velocity":49,"Duration":125104,"SoundDuration":125104,"Delta":523812639},{"NoteNumber":72,"Velocity":63,"Duration":771606,"SoundDuration":771606,"Delta":523937743},{"NoteNumber":84,"Velocity":79,"Duration":771606,"SoundDuration":771606,"Delta":523937743},{"NoteNumber":66,"Velocity":55,"Duration":128601,"SoundDuration":128601,"Delta":523937743},{"NoteNumber":60,"Velocity":41,"Duration":128601,"SoundDuration":128601,"Delta":523937743},{"NoteNumber":63,"Velocity":55,"Duration":128601,"SoundDuration":128601,"Delta":523937743},{"NoteNumber":57,"Velocity":49,"Duration":128601,"SoundDuration":128601,"Delta":524066344},{"NoteNumber":60,"Velocity":39,"Duration":128601,"SoundDuration":128601,"Delta":524194945},{"NoteNumber":63,"Velocity":49,"Duration":128601,"SoundDuration":128601,"Delta":524194945},{"NoteNumber":66,"Velocity":49,"Duration":128601,"SoundDuration":128601,"Delta":524194945},{"NoteNumber":57,"Velocity":55,"Duration":128601,"SoundDuration":128601,"Delta":524323546},{"NoteNumber":66,"Velocity":49,"Duration":128601,"SoundDuration":128601,"Delta":524452147},{"NoteNumber":60,"Velocity":39,"Duration":128601,"SoundDuration":128601,"Delta":524452147},{"NoteNumber":63,"Velocity":49,"Duration":128601,"SoundDuration":128601,"Delta":524452147},{"NoteNumber":57,"Velocity":55,"Duration":128601,"SoundDuration":128601,"Delta":524580748},{"NoteNumber":75,"Velocity":70,"Duration":331904,"SoundDuration":331904,"Delta":524709349},{"NoteNumber":87,"Velocity":84,"Duration":331904,"SoundDuration":331904,"Delta":524709349},{"NoteNumber":63,"Velocity":40,"Duration":130055,"SoundDuration":130055,"Delta":524709349},{"NoteNumber":66,"Velocity":53,"Duration":130055,"SoundDuration":130055,"Delta":524709349},{"NoteNumber":60,"Velocity":40,"Duration":130055,"SoundDuration":130055,"Delta":524709349},{"NoteNumber":57,"Velocity":48,"Duration":134565,"SoundDuration":134565,"Delta":524839405},{"NoteNumber":63,"Velocity":39,"Duration":160577,"SoundDuration":160577,"Delta":524973971},{"NoteNumber":66,"Velocity":52,"Duration":160577,"SoundDuration":160577,"Delta":524973971},{"NoteNumber":60,"Velocity":39,"Duration":160577,"SoundDuration":160577,"Delta":524973971},{"NoteNumber":72,"Velocity":66,"Duration":93295,"SoundDuration":93295,"Delta":525041253},{"NoteNumber":84,"Velocity":78,"Duration":93295,"SoundDuration":93295,"Delta":525041253},{"NoteNumber":89,"Velocity":99,"Duration":375313,"SoundDuration":375313,"Delta":525134549},{"NoteNumber":77,"Velocity":82,"Duration":375313,"SoundDuration":375313,"Delta":525134549},{"NoteNumber":57,"Velocity":55,"Duration":125104,"SoundDuration":125104,"Delta":525134549},{"NoteNumber":65,"Velocity":48,"Duration":125104,"SoundDuration":125104,"Delta":525259653},{"NoteNumber":63,"Velocity":48,"Duration":125104,"SoundDuration":125104,"Delta":525259653},{"NoteNumber":60,"Velocity":39,"Duration":125104,"SoundDuration":125104,"Delta":525259653},{"NoteNumber":57,"Velocity":49,"Duration":125104,"SoundDuration":125104,"Delta":525384758},{"NoteNumber":70,"Velocity":63,"Duration":771606,"SoundDuration":771606,"Delta":525509862},{"NoteNumber":82,"Velocity":79,"Duration":771606,"SoundDuration":771606,"Delta":525509862},{"NoteNumber":65,"Velocity":55,"Duration":128601,"SoundDuration":128601,"Delta":525509862},{"NoteNumber":61,"Velocity":55,"Duration":128601,"SoundDuration":128601,"Delta":525509862},{"NoteNumber":58,"Velocity":49,"Duration":128601,"SoundDuration":128601,"Delta":525638463},{"NoteNumber":61,"Velocity":49,"Duration":128601,"SoundDuration":128601,"Delta":525767064},{"NoteNumber":65,"Velocity":49,"Duration":128601,"SoundDuration":128601,"Delta":525767064},{"NoteNumber":58,"Velocity":55,"Duration":128601,"SoundDuration":128601,"Delta":525895665},{"NoteNumber":65,"Velocity":49,"Duration":128601,"SoundDuration":128601,"Delta":526024266},{"NoteNumber":61,"Velocity":49,"Duration":128601,"SoundDuration":128601,"Delta":526024266},{"NoteNumber":58,"Velocity":55,"Duration":128601,"SoundDuration":128601,"Delta":526152867},{"NoteNumber":73,"Velocity":70,"Duration":331904,"SoundDuration":331904,"Delta":526281468},{"NoteNumber":85,"Velocity":84,"Duration":331904,"SoundDuration":331904,"Delta":526281468},{"NoteNumber":67,"Velocity":53,"Duration":130055,"SoundDuration":130055,"Delta":526281468},{"NoteNumber":64,"Velocity":40,"Duration":130055,"SoundDuration":130055,"Delta":526281468},{"NoteNumber":58,"Velocity":48,"Duration":134565,"SoundDuration":134565,"Delta":526411524},{"NoteNumber":64,"Velocity":39,"Duration":160577,"SoundDuration":160577,"Delta":526546090},{"NoteNumber":67,"Velocity":52,"Duration":160577,"SoundDuration":160577,"Delta":526546090},{"NoteNumber":82,"Velocity":78,"Duration":93295,"SoundDuration":93295,"Delta":526613372},{"NoteNumber":70,"Velocity":66,"Duration":93295,"SoundDuration":93295,"Delta":526613372},{"NoteNumber":68,"Velocity":75,"Duration":375313,"SoundDuration":375313,"Delta":526706668},{"NoteNumber":80,"Velocity":90,"Duration":375313,"SoundDuration":375313,"Delta":526706668},{"NoteNumber":48,"Velocity":55,"Duration":125104,"SoundDuration":125104,"Delta":526706668},{"NoteNumber":53,"Velocity":39,"Duration":125104,"SoundDuration":125104,"Delta":526831772},{"NoteNumber":56,"Velocity":48,"Duration":125104,"SoundDuration":125104,"Delta":526831772},{"NoteNumber":60,"Velocity":48,"Duration":125104,"SoundDuration":125104,"Delta":526831772},{"NoteNumber":48,"Velocity":49,"Duration":125104,"SoundDuration":125104,"Delta":526956877},{"NoteNumber":84,"Velocity":84,"Duration":331904,"SoundDuration":331904,"Delta":527081981},{"NoteNumber":72,"Velocity":70,"Duration":331904,"SoundDuration":331904,"Delta":527081981},{"NoteNumber":56,"Velocity":40,"Duration":130055,"SoundDuration":130055,"Delta":527081981},{"NoteNumber":60,"Velocity":53,"Duration":130055,"SoundDuration":130055,"Delta":527081981},{"NoteNumber":53,"Velocity":40,"Duration":130055,"SoundDuration":130055,"Delta":527081981},{"NoteNumber":48,"Velocity":48,"Duration":134565,"SoundDuration":134565,"Delta":527212037},{"NoteNumber":56,"Velocity":39,"Duration":160577,"SoundDuration":160577,"Delta":527346603},{"NoteNumber":53,"Velocity":39,"Duration":160577,"SoundDuration":160577,"Delta":527346603},{"NoteNumber":60,"Velocity":52,"Duration":160577,"SoundDuration":160577,"Delta":527346603},{"NoteNumber":80,"Velocity":78,"Duration":93295,"SoundDuration":93295,"Delta":527413885},{"NoteNumber":68,"Velocity":66,"Duration":93295,"SoundDuration":93295,"Delta":527413885},{"NoteNumber":79,"Velocity":90,"Duration":375726,"SoundDuration":375726,"Delta":527507181},{"NoteNumber":67,"Velocity":75,"Duration":375726,"SoundDuration":375726,"Delta":527507181},{"NoteNumber":46,"Velocity":55,"Duration":125104,"SoundDuration":125104,"Delta":527507181},{"NoteNumber":48,"Velocity":39,"Duration":125104,"SoundDuration":125104,"Delta":527632285},{"NoteNumber":52,"Velocity":48,"Duration":125104,"SoundDuration":125104,"Delta":527632285},{"NoteNumber":55,"Velocity":48,"Duration":125104,"SoundDuration":125104,"Delta":527632285},{"NoteNumber":46,"Velocity":49,"Duration":125517,"SoundDuration":125517,"Delta":527757390},{"NoteNumber":79,"Velocity":77,"Duration":336615,"SoundDuration":336615,"Delta":527882907},{"NoteNumber":91,"Velocity":92,"Duration":336615,"SoundDuration":336615,"Delta":527882907},{"NoteNumber":52,"Velocity":39,"Duration":130431,"SoundDuration":130431,"Delta":527882907},{"NoteNumber":48,"Velocity":39,"Duration":130431,"SoundDuration":130431,"Delta":527882907},{"NoteNumber":55,"Velocity":51,"Duration":130431,"SoundDuration":130431,"Delta":527882907},{"NoteNumber":46,"Velocity":47,"Duration":134565,"SoundDuration":134565,"Delta":528013339},{"NoteNumber":55,"Velocity":50,"Duration":171335,"SoundDuration":171335,"Delta":528147904},{"NoteNumber":48,"Velocity":38,"Duration":171335,"SoundDuration":171335,"Delta":528147904},{"NoteNumber":52,"Velocity":38,"Duration":171335,"SoundDuration":171335,"Delta":528147904},{"NoteNumber":76,"Velocity":72,"Duration":99717,"SoundDuration":99717,"Delta":528219522},{"NoteNumber":88,"Velocity":85,"Duration":99717,"SoundDuration":99717,"Delta":528219522},{"NoteNumber":78,"Velocity":84,"Duration":375313,"SoundDuration":375313,"Delta":528308814},{"NoteNumber":90,"Velocity":103,"Duration":375313,"SoundDuration":375313,"Delta":528308814},{"NoteNumber":45,"Velocity":53,"Duration":125104,"SoundDuration":125104,"Delta":528319240},{"NoteNumber":51,"Velocity":38,"Duration":125104,"SoundDuration":125104,"Delta":528444344},{"NoteNumber":57,"Velocity":47,"Duration":125104,"SoundDuration":125104,"Delta":528444344},{"NoteNumber":54,"Velocity":47,"Duration":125104,"SoundDuration":125104,"Delta":528444344},{"NoteNumber":45,"Velocity":48,"Duration":125104,"SoundDuration":125104,"Delta":528559023},{"NoteNumber":72,"Velocity":69,"Duration":771606,"SoundDuration":771606,"Delta":528694845},{"NoteNumber":84,"Velocity":86,"Duration":771606,"SoundDuration":771606,"Delta":528694845},{"NoteNumber":51,"Velocity":53,"Duration":128601,"SoundDuration":128601,"Delta":528694845},{"NoteNumber":57,"Velocity":53,"Duration":128601,"SoundDuration":128601,"Delta":528694845},{"NoteNumber":54,"Velocity":53,"Duration":128601,"SoundDuration":128601,"Delta":528694845},{"NoteNumber":45,"Velocity":48,"Duration":128601,"SoundDuration":128601,"Delta":528823446},{"NoteNumber":51,"Velocity":48,"Duration":128601,"SoundDuration":128601,"Delta":528952047},{"NoteNumber":57,"Velocity":48,"Duration":128601,"SoundDuration":128601,"Delta":528952047},{"NoteNumber":54,"Velocity":48,"Duration":128601,"SoundDuration":128601,"Delta":528952047},{"NoteNumber":45,"Velocity":53,"Duration":128601,"SoundDuration":128601,"Delta":529080648},{"NoteNumber":51,"Velocity":48,"Duration":128601,"SoundDuration":128601,"Delta":529209249},{"NoteNumber":57,"Velocity":48,"Duration":128601,"SoundDuration":128601,"Delta":529209249},{"NoteNumber":54,"Velocity":48,"Duration":128601,"SoundDuration":128601,"Delta":529209249},{"NoteNumber":45,"Velocity":53,"Duration":128601,"SoundDuration":128601,"Delta":529337850},{"NoteNumber":87,"Velocity":92,"Duration":331904,"SoundDuration":331904,"Delta":529466451},{"NoteNumber":75,"Velocity":77,"Duration":331904,"SoundDuration":331904,"Delta":529466451},{"NoteNumber":54,"Velocity":45,"Duration":130055,"SoundDuration":130055,"Delta":529466451},{"NoteNumber":57,"Velocity":59,"Duration":130055,"SoundDuration":130055,"Delta":529466451},{"NoteNumber":51,"Velocity":45,"Duration":130055,"SoundDuration":130055,"Delta":529466451},{"NoteNumber":45,"Velocity":49,"Duration":134565,"SoundDuration":134565,"Delta":529596507},{"NoteNumber":54,"Velocity":39,"Duration":167289,"SoundDuration":167289,"Delta":529731072},{"NoteNumber":57,"Velocity":55,"Duration":167289,"SoundDuration":167289,"Delta":529731072},{"NoteNumber":51,"Velocity":39,"Duration":167289,"SoundDuration":167289,"Delta":529731072},{"NoteNumber":72,"Velocity":72,"Duration":100006,"SoundDuration":100006,"Delta":529798355},{"NoteNumber":84,"Velocity":85,"Duration":100006,"SoundDuration":100006,"Delta":529798355},{"NoteNumber":89,"Velocity":103,"Duration":375313,"SoundDuration":375313,"Delta":529898362},{"NoteNumber":77,"Velocity":84,"Duration":375313,"SoundDuration":375313,"Delta":529898362},{"NoteNumber":45,"Velocity":57,"Duration":125104,"SoundDuration":125104,"Delta":529898362},{"NoteNumber":57,"Velocity":49,"Duration":125104,"SoundDuration":125104,"Delta":530023466},{"NoteNumber":53,"Velocity":49,"Duration":125104,"SoundDuration":125104,"Delta":530023466},{"NoteNumber":51,"Velocity":39,"Duration":125104,"SoundDuration":125104,"Delta":530023466},{"NoteNumber":45,"Velocity":49,"Duration":125104,"SoundDuration":125104,"Delta":530148571},{"NoteNumber":82,"Velocity":86,"Duration":771606,"SoundDuration":771606,"Delta":530273675},{"NoteNumber":70,"Velocity":69,"Duration":771606,"SoundDuration":771606,"Delta":530273675},{"NoteNumber":49,"Velocity":57,"Duration":128601,"SoundDuration":128601,"Delta":530273675},{"NoteNumber":53,"Velocity":57,"Duration":128601,"SoundDuration":128601,"Delta":530273675},{"NoteNumber":58,"Velocity":57,"Duration":128601,"SoundDuration":128601,"Delta":530273675},{"NoteNumber":46,"Velocity":49,"Duration":128601,"SoundDuration":128601,"Delta":530402276},{"NoteNumber":49,"Velocity":49,"Duration":128601,"SoundDuration":128601,"Delta":530530877},{"NoteNumber":53,"Velocity":49,"Duration":128601,"SoundDuration":128601,"Delta":530530877},{"NoteNumber":58,"Velocity":49,"Duration":128601,"SoundDuration":128601,"Delta":530530877},{"NoteNumber":46,"Velocity":57,"Duration":128601,"SoundDuration":128601,"Delta":530659478},{"NoteNumber":49,"Velocity":49,"Duration":128601,"SoundDuration":128601,"Delta":530788079},{"NoteNumber":53,"Velocity":49,"Duration":128601,"SoundDuration":128601,"Delta":530788079},{"NoteNumber":58,"Velocity":49,"Duration":128601,"SoundDuration":128601,"Delta":530788079},{"NoteNumber":46,"Velocity":57,"Duration":128601,"SoundDuration":128601,"Delta":530916680},{"NoteNumber":73,"Velocity":77,"Duration":331904,"SoundDuration":331904,"Delta":531045281},{"NoteNumber":85,"Velocity":92,"Duration":331904,"SoundDuration":331904,"Delta":531045281},{"NoteNumber":55,"Velocity":56,"Duration":130055,"SoundDuration":130055,"Delta":531045281},{"NoteNumber":58,"Velocity":56,"Duration":130055,"SoundDuration":130055,"Delta":531045281},{"NoteNumber":52,"Velocity":40,"Duration":130055,"SoundDuration":130055,"Delta":531045281},{"NoteNumber":46,"Velocity":49,"Duration":134565,"SoundDuration":134565,"Delta":531175337},{"NoteNumber":52,"Velocity":39,"Duration":160577,"SoundDuration":160577,"Delta":531309903},{"NoteNumber":58,"Velocity":55,"Duration":160577,"SoundDuration":160577,"Delta":531309903},{"NoteNumber":55,"Velocity":55,"Duration":160577,"SoundDuration":160577,"Delta":531309903},{"NoteNumber":70,"Velocity":72,"Duration":93295,"SoundDuration":93295,"Delta":531377185},{"NoteNumber":82,"Velocity":85,"Duration":93295,"SoundDuration":93295,"Delta":531377185},{"NoteNumber":68,"Velocity":82,"Duration":375313,"SoundDuration":375313,"Delta":531470481},{"NoteNumber":80,"Velocity":99,"Duration":375313,"SoundDuration":375313,"Delta":531470481},{"NoteNumber":48,"Velocity":57,"Duration":125104,"SoundDuration":125104,"Delta":531470481},{"NoteNumber":60,"Velocity":49,"Duration":125104,"SoundDuration":125104,"Delta":531595585},{"NoteNumber":56,"Velocity":49,"Duration":125104,"SoundDuration":125104,"Delta":531595585},{"NoteNumber":53,"Velocity":39,"Duration":125104,"SoundDuration":125104,"Delta":531595585},{"NoteNumber":48,"Velocity":49,"Duration":125104,"SoundDuration":125104,"Delta":531720690},{"NoteNumber":84,"Velocity":92,"Duration":331904,"SoundDuration":331904,"Delta":531845794},{"NoteNumber":72,"Velocity":77,"Duration":331904,"SoundDuration":331904,"Delta":531845794},{"NoteNumber":53,"Velocity":40,"Duration":130055,"SoundDuration":130055,"Delta":531845794},{"NoteNumber":60,"Velocity":56,"Duration":130055,"SoundDuration":130055,"Delta":531845794},{"NoteNumber":56,"Velocity":40,"Duration":130055,"SoundDuration":130055,"Delta":531845794},{"NoteNumber":48,"Velocity":49,"Duration":134565,"SoundDuration":134565,"Delta":531975850},{"NoteNumber":53,"Velocity":39,"Duration":160577,"SoundDuration":160577,"Delta":532110416},{"NoteNumber":60,"Velocity":55,"Duration":160577,"SoundDuration":160577,"Delta":532110416},{"NoteNumber":56,"Velocity":39,"Duration":160577,"SoundDuration":160577,"Delta":532110416},{"NoteNumber":80,"Velocity":85,"Duration":93295,"SoundDuration":93295,"Delta":532177698},{"NoteNumber":68,"Velocity":72,"Duration":93295,"SoundDuration":93295,"Delta":532177698},{"NoteNumber":79,"Velocity":99,"Duration":375726,"SoundDuration":375726,"Delta":532270994},{"NoteNumber":67,"Velocity":82,"Duration":375726,"SoundDuration":375726,"Delta":532270994},{"NoteNumber":48,"Velocity":57,"Duration":125104,"SoundDuration":125104,"Delta":532270994},{"NoteNumber":60,"Velocity":49,"Duration":125104,"SoundDuration":125104,"Delta":532396098},{"NoteNumber":52,"Velocity":49,"Duration":125104,"SoundDuration":125104,"Delta":532396098},{"NoteNumber":55,"Velocity":39,"Duration":125104,"SoundDuration":125104,"Delta":532396098},{"NoteNumber":48,"Velocity":49,"Duration":125517,"SoundDuration":125517,"Delta":532521203},{"NoteNumber":84,"Velocity":101,"Duration":264997,"SoundDuration":264997,"Delta":532646720},{"NoteNumber":72,"Velocity":84,"Duration":264997,"SoundDuration":264997,"Delta":532646720},{"NoteNumber":60,"Velocity":49,"Duration":130431,"SoundDuration":130431,"Delta":532646720},{"NoteNumber":55,"Velocity":37,"Duration":130431,"SoundDuration":130431,"Delta":532646720},{"NoteNumber":52,"Velocity":37,"Duration":130431,"SoundDuration":130431,"Delta":532646720},{"NoteNumber":48,"Velocity":44,"Duration":134565,"SoundDuration":134565,"Delta":532777151},{"NoteNumber":84,"Velocity":95,"Duration":159789,"SoundDuration":159789,"Delta":532911717},{"NoteNumber":72,"Velocity":80,"Duration":159789,"SoundDuration":159789,"Delta":532911717},{"NoteNumber":60,"Velocity":48,"Duration":159789,"SoundDuration":159789,"Delta":532911717},{"NoteNumber":55,"Velocity":36,"Duration":159789,"SoundDuration":159789,"Delta":532911717},{"NoteNumber":52,"Velocity":36,"Duration":159789,"SoundDuration":159789,"Delta":532911717},{"NoteNumber":84,"Velocity":105,"Duration":127806,"SoundDuration":127806,"Delta":533071507},{"NoteNumber":72,"Velocity":87,"Duration":127806,"SoundDuration":127806,"Delta":533071507},{"NoteNumber":41,"Velocity":63,"Duration":255613,"SoundDuration":255613,"Delta":533071507},{"NoteNumber":48,"Velocity":63,"Duration":255613,"SoundDuration":255613,"Delta":533071507},{"NoteNumber":53,"Velocity":75,"Duration":255613,"SoundDuration":255613,"Delta":533071507},{"NoteNumber":44,"Velocity":63,"Duration":255613,"SoundDuration":255613,"Delta":533071507},{"NoteNumber":65,"Velocity":59,"Duration":117155,"SoundDuration":117155,"Delta":533199313},{"NoteNumber":60,"Velocity":59,"Duration":117155,"SoundDuration":117155,"Delta":533199313},{"NoteNumber":72,"Velocity":79,"Duration":117155,"SoundDuration":117155,"Delta":533199313},{"NoteNumber":68,"Velocity":66,"Duration":117155,"SoundDuration":117155,"Delta":533199313},{"NoteNumber":68,"Velocity":66,"Duration":117155,"SoundDuration":117155,"Delta":533327120},{"NoteNumber":72,"Velocity":79,"Duration":117155,"SoundDuration":117155,"Delta":533327120},{"NoteNumber":60,"Velocity":59,"Duration":117155,"SoundDuration":117155,"Delta":533327120},{"NoteNumber":65,"Velocity":59,"Duration":117155,"SoundDuration":117155,"Delta":533327120},{"NoteNumber":68,"Velocity":69,"Duration":392069,"SoundDuration":392069,"Delta":533454926},{"NoteNumber":65,"Velocity":62,"Duration":392069,"SoundDuration":392069,"Delta":533454926},{"NoteNumber":72,"Velocity":84,"Duration":392069,"SoundDuration":392069,"Delta":533454926},{"NoteNumber":60,"Velocity":62,"Duration":392069,"SoundDuration":392069,"Delta":533454926},{"NoteNumber":53,"Velocity":79,"Duration":118391,"SoundDuration":118391,"Delta":533590147},{"NoteNumber":56,"Velocity":79,"Duration":118391,"SoundDuration":118391,"Delta":533590147},{"NoteNumber":53,"Velocity":76,"Duration":117155,"SoundDuration":117155,"Delta":533719189},{"NoteNumber":56,"Velocity":76,"Duration":117155,"SoundDuration":117155,"Delta":533719189},{"NoteNumber":52,"Velocity":80,"Duration":267707,"SoundDuration":267707,"Delta":533846995},{"NoteNumber":55,"Velocity":80,"Duration":267707,"SoundDuration":267707,"Delta":533846995},{"NoteNumber":60,"Velocity":59,"Duration":117425,"SoundDuration":117425,"Delta":533986602},{"NoteNumber":72,"Velocity":79,"Duration":117425,"SoundDuration":117425,"Delta":533986602},{"NoteNumber":64,"Velocity":66,"Duration":117425,"SoundDuration":117425,"Delta":533986602},{"NoteNumber":67,"Velocity":66,"Duration":117425,"SoundDuration":117425,"Delta":533986602},{"NoteNumber":72,"Velocity":79,"Duration":117155,"SoundDuration":117155,"Delta":534114703},{"NoteNumber":60,"Velocity":59,"Duration":117155,"SoundDuration":117155,"Delta":534114703},{"NoteNumber":64,"Velocity":66,"Duration":117155,"SoundDuration":117155,"Delta":534114703},{"NoteNumber":67,"Velocity":66,"Duration":117155,"SoundDuration":117155,"Delta":534114703},{"NoteNumber":72,"Velocity":84,"Duration":389319,"SoundDuration":389319,"Delta":534242509},{"NoteNumber":70,"Velocity":69,"Duration":389319,"SoundDuration":389319,"Delta":534242509},{"NoteNumber":67,"Velocity":62,"Duration":389319,"SoundDuration":389319,"Delta":534242509},{"NoteNumber":60,"Velocity":62,"Duration":389319,"SoundDuration":389319,"Delta":534242509},{"NoteNumber":55,"Velocity":79,"Duration":117155,"SoundDuration":117155,"Delta":534376215},{"NoteNumber":58,"Velocity":79,"Duration":117155,"SoundDuration":117155,"Delta":534376215},{"NoteNumber":55,"Velocity":76,"Duration":117155,"SoundDuration":117155,"Delta":534504022},{"NoteNumber":58,"Velocity":76,"Duration":117155,"SoundDuration":117155,"Delta":534504022},{"NoteNumber":53,"Velocity":80,"Duration":259524,"SoundDuration":259524,"Delta":534631828},{"NoteNumber":56,"Velocity":80,"Duration":259524,"SoundDuration":259524,"Delta":534631828},{"NoteNumber":68,"Velocity":66,"Duration":117155,"SoundDuration":117155,"Delta":534763546},{"NoteNumber":60,"Velocity":59,"Duration":117155,"SoundDuration":117155,"Delta":534763546},{"NoteNumber":65,"Velocity":59,"Duration":117155,"SoundDuration":117155,"Delta":534763546},{"NoteNumber":72,"Velocity":79,"Duration":117155,"SoundDuration":117155,"Delta":534763546},{"NoteNumber":68,"Velocity":66,"Duration":117155,"SoundDuration":117155,"Delta":534891352},{"NoteNumber":72,"Velocity":79,"Duration":117155,"SoundDuration":117155,"Delta":534891352},{"NoteNumber":60,"Velocity":59,"Duration":117155,"SoundDuration":117155,"Delta":534891352},{"NoteNumber":65,"Velocity":59,"Duration":117155,"SoundDuration":117155,"Delta":534891352},{"NoteNumber":60,"Velocity":62,"Duration":390443,"SoundDuration":390443,"Delta":535019159},{"NoteNumber":68,"Velocity":69,"Duration":390443,"SoundDuration":390443,"Delta":535019159},{"NoteNumber":65,"Velocity":62,"Duration":390443,"SoundDuration":390443,"Delta":535019159},{"NoteNumber":72,"Velocity":84,"Duration":390443,"SoundDuration":390443,"Delta":535019159},{"NoteNumber":56,"Velocity":79,"Duration":117697,"SoundDuration":117697,"Delta":535153399},{"NoteNumber":53,"Velocity":79,"Duration":117697,"SoundDuration":117697,"Delta":535153399},{"NoteNumber":56,"Velocity":76,"Duration":117155,"SoundDuration":117155,"Delta":535281796},{"NoteNumber":53,"Velocity":76,"Duration":117155,"SoundDuration":117155,"Delta":535281796},{"NoteNumber":55,"Velocity":80,"Duration":267751,"SoundDuration":267751,"Delta":535409602},{"NoteNumber":52,"Velocity":80,"Duration":267751,"SoundDuration":267751,"Delta":535409602},{"NoteNumber":64,"Velocity":66,"Duration":117155,"SoundDuration":117155,"Delta":535549547},{"NoteNumber":60,"Velocity":59,"Duration":117155,"SoundDuration":117155,"Delta":535549547},{"NoteNumber":72,"Velocity":79,"Duration":117155,"SoundDuration":117155,"Delta":535549547},{"NoteNumber":67,"Velocity":66,"Duration":117155,"SoundDuration":117155,"Delta":535549547},{"NoteNumber":64,"Velocity":66,"Duration":117155,"SoundDuration":117155,"Delta":535677354},{"NoteNumber":67,"Velocity":66,"Duration":117155,"SoundDuration":117155,"Delta":535677354},{"NoteNumber":60,"Velocity":59,"Duration":117155,"SoundDuration":117155,"Delta":535677354},{"NoteNumber":72,"Velocity":79,"Duration":117155,"SoundDuration":117155,"Delta":535677354},{"NoteNumber":72,"Velocity":84,"Duration":401663,"SoundDuration":401663,"Delta":535805160},{"NoteNumber":67,"Velocity":62,"Duration":401663,"SoundDuration":401663,"Delta":535805160},{"NoteNumber":70,"Velocity":69,"Duration":401663,"SoundDuration":401663,"Delta":535805160},{"NoteNumber":60,"Velocity":62,"Duration":401663,"SoundDuration":401663,"Delta":535805160},{"NoteNumber":58,"Velocity":79,"Duration":117155,"SoundDuration":117155,"Delta":535941036},{"NoteNumber":55,"Velocity":79,"Duration":117155,"SoundDuration":117155,"Delta":535941036},{"NoteNumber":55,"Velocity":76,"Duration":126483,"SoundDuration":126483,"Delta":536068842},{"NoteNumber":58,"Velocity":76,"Duration":126483,"SoundDuration":126483,"Delta":536068842},{"NoteNumber":56,"Velocity":80,"Duration":118315,"SoundDuration":118315,"Delta":536206824},{"NoteNumber":53,"Velocity":66,"Duration":118315,"SoundDuration":118315,"Delta":536206824},{"NoteNumber":65,"Velocity":65,"Duration":118315,"SoundDuration":118315,"Delta":536335895},{"NoteNumber":60,"Velocity":65,"Duration":118315,"SoundDuration":118315,"Delta":536335895},{"NoteNumber":72,"Velocity":77,"Duration":118315,"SoundDuration":118315,"Delta":536335895},{"NoteNumber":68,"Velocity":65,"Duration":118315,"SoundDuration":118315,"Delta":536335895},{"NoteNumber":56,"Velocity":76,"Duration":123257,"SoundDuration":123257,"Delta":536464966},{"NoteNumber":53,"Velocity":63,"Duration":123257,"SoundDuration":123257,"Delta":536464966},{"NoteNumber":65,"Velocity":73,"Duration":118051,"SoundDuration":118051,"Delta":536599429},{"NoteNumber":61,"Velocity":73,"Duration":118051,"SoundDuration":118051,"Delta":536599429},{"NoteNumber":73,"Velocity":85,"Duration":118051,"SoundDuration":118051,"Delta":536599429},{"NoteNumber":67,"Velocity":73,"Duration":118051,"SoundDuration":118051,"Delta":536599429},{"NoteNumber":53,"Velocity":59,"Duration":118051,"SoundDuration":118051,"Delta":536728212},{"NoteNumber":46,"Velocity":59,"Duration":118051,"SoundDuration":118051,"Delta":536728212},{"NoteNumber":55,"Velocity":73,"Duration":118051,"SoundDuration":118051,"Delta":536728212},{"NoteNumber":61,"Velocity":65,"Duration":123540,"SoundDuration":123540,"Delta":536856995},{"NoteNumber":65,"Velocity":65,"Duration":123540,"SoundDuration":123540,"Delta":536856995},{"NoteNumber":67,"Velocity":65,"Duration":123540,"SoundDuration":123540,"Delta":536856995},{"NoteNumber":73,"Velocity":77,"Duration":123540,"SoundDuration":123540,"Delta":536856995},{"NoteNumber":53,"Velocity":66,"Duration":117011,"SoundDuration":117011,"Delta":536991766},{"NoteNumber":56,"Velocity":80,"Duration":117011,"SoundDuration":117011,"Delta":536991766},{"NoteNumber":48,"Velocity":66,"Duration":117011,"SoundDuration":117011,"Delta":536991766},{"NoteNumber":60,"Velocity":69,"Duration":117011,"SoundDuration":117011,"Delta":537119415},{"NoteNumber":72,"Velocity":83,"Duration":117011,"SoundDuration":117011,"Delta":537119415},{"NoteNumber":68,"Velocity":69,"Duration":117011,"SoundDuration":117011,"Delta":537119415},{"NoteNumber":65,"Velocity":69,"Duration":117011,"SoundDuration":117011,"Delta":537119415},{"NoteNumber":53,"Velocity":63,"Duration":120735,"SoundDuration":120735,"Delta":537247063},{"NoteNumber":56,"Velocity":76,"Duration":120735,"SoundDuration":120735,"Delta":537247063},{"NoteNumber":48,"Velocity":63,"Duration":120735,"SoundDuration":120735,"Delta":537247063},{"NoteNumber":60,"Velocity":70,"Duration":118315,"SoundDuration":118315,"Delta":537378775},{"NoteNumber":64,"Velocity":70,"Duration":118315,"SoundDuration":118315,"Delta":537378775},{"NoteNumber":72,"Velocity":82,"Duration":118315,"SoundDuration":118315,"Delta":537378775},{"NoteNumber":67,"Velocity":70,"Duration":118315,"SoundDuration":118315,"Delta":537378775},{"NoteNumber":48,"Velocity":63,"Duration":118315,"SoundDuration":118315,"Delta":537507846},{"NoteNumber":55,"Velocity":76,"Duration":118315,"SoundDuration":118315,"Delta":537507846},{"NoteNumber":52,"Velocity":63,"Duration":118315,"SoundDuration":118315,"Delta":537507846},{"NoteNumber":64,"Velocity":59,"Duration":138343,"SoundDuration":138343,"Delta":537636917},{"NoteNumber":67,"Velocity":59,"Duration":138343,"SoundDuration":138343,"Delta":537636917},{"NoteNumber":60,"Velocity":59,"Duration":138343,"SoundDuration":138343,"Delta":537636917},{"NoteNumber":72,"Velocity":71,"Duration":138343,"SoundDuration":138343,"Delta":537636917},{"NoteNumber":65,"Velocity":76,"Duration":127806,"SoundDuration":127806,"Delta":537787838},{"NoteNumber":68,"Velocity":76,"Duration":127806,"SoundDuration":127806,"Delta":537787838},{"NoteNumber":60,"Velocity":76,"Duration":127806,"SoundDuration":127806,"Delta":537787838},{"NoteNumber":72,"Velocity":92,"Duration":127806,"SoundDuration":127806,"Delta":537787838},{"NoteNumber":44,"Velocity":61,"Duration":255613,"SoundDuration":255613,"Delta":537787838},{"NoteNumber":48,"Velocity":61,"Duration":255613,"SoundDuration":255613,"Delta":537787838},{"NoteNumber":53,"Velocity":73,"Duration":255613,"SoundDuration":255613,"Delta":537787838},{"NoteNumber":41,"Velocity":61,"Duration":255613,"SoundDuration":255613,"Delta":537787838},{"NoteNumber":53,"Velocity":59,"Duration":117155,"SoundDuration":117155,"Delta":537915644},{"NoteNumber":48,"Velocity":59,"Duration":117155,"SoundDuration":117155,"Delta":537915644},{"NoteNumber":56,"Velocity":66,"Duration":117155,"SoundDuration":117155,"Delta":537915644},{"NoteNumber":60,"Velocity":79,"Duration":117155,"SoundDuration":117155,"Delta":537915644},{"NoteNumber":48,"Velocity":59,"Duration":117155,"SoundDuration":117155,"Delta":538043451},{"NoteNumber":60,"Velocity":79,"Duration":117155,"SoundDuration":117155,"Delta":538043451},{"NoteNumber":56,"Velocity":66,"Duration":117155,"SoundDuration":117155,"Delta":538043451},{"NoteNumber":53,"Velocity":59,"Duration":117155,"SoundDuration":117155,"Delta":538043451},{"NoteNumber":48,"Velocity":62,"Duration":392069,"SoundDuration":392069,"Delta":538171257},{"NoteNumber":53,"Velocity":62,"Duration":392069,"SoundDuration":392069,"Delta":538171257},{"NoteNumber":60,"Velocity":84,"Duration":392069,"SoundDuration":392069,"Delta":538171257},{"NoteNumber":56,"Velocity":69,"Duration":392069,"SoundDuration":392069,"Delta":538171257},{"NoteNumber":44,"Velocity":75,"Duration":118391,"SoundDuration":118391,"Delta":538306478},{"NoteNumber":41,"Velocity":75,"Duration":118391,"SoundDuration":118391,"Delta":538306478},{"NoteNumber":44,"Velocity":72,"Duration":117155,"SoundDuration":117155,"Delta":538435520},{"NoteNumber":41,"Velocity":72,"Duration":117155,"SoundDuration":117155,"Delta":538435520},{"NoteNumber":43,"Velocity":76,"Duration":267707,"SoundDuration":267707,"Delta":538563326},{"NoteNumber":40,"Velocity":76,"Duration":267707,"SoundDuration":267707,"Delta":538563326},{"NoteNumber":48,"Velocity":59,"Duration":117425,"SoundDuration":117425,"Delta":538702933},{"NoteNumber":55,"Velocity":66,"Duration":117425,"SoundDuration":117425,"Delta":538702933},{"NoteNumber":60,"Velocity":79,"Duration":117425,"SoundDuration":117425,"Delta":538702933},{"NoteNumber":52,"Velocity":66,"Duration":117425,"SoundDuration":117425,"Delta":538702933},{"NoteNumber":55,"Velocity":66,"Duration":117155,"SoundDuration":117155,"Delta":538831034},{"NoteNumber":52,"Velocity":66,"Duration":117155,"SoundDuration":117155,"Delta":538831034},{"NoteNumber":48,"Velocity":59,"Duration":117155,"SoundDuration":117155,"Delta":538831034},{"NoteNumber":60,"Velocity":79,"Duration":117155,"SoundDuration":117155,"Delta":538831034},{"NoteNumber":55,"Velocity":62,"Duration":389319,"SoundDuration":389319,"Delta":538958840},{"NoteNumber":58,"Velocity":69,"Duration":389319,"SoundDuration":389319,"Delta":538958840},{"NoteNumber":60,"Velocity":84,"Duration":389319,"SoundDuration":389319,"Delta":538958840},{"NoteNumber":48,"Velocity":62,"Duration":389319,"SoundDuration":389319,"Delta":538958840},{"NoteNumber":46,"Velocity":75,"Duration":117155,"SoundDuration":117155,"Delta":539092547},{"NoteNumber":43,"Velocity":75,"Duration":117155,"SoundDuration":117155,"Delta":539092547},{"NoteNumber":46,"Velocity":72,"Duration":117155,"SoundDuration":117155,"Delta":539220353},{"NoteNumber":43,"Velocity":72,"Duration":117155,"SoundDuration":117155,"Delta":539220353},{"NoteNumber":44,"Velocity":76,"Duration":259524,"SoundDuration":259524,"Delta":539348160},{"NoteNumber":41,"Velocity":76,"Duration":259524,"SoundDuration":259524,"Delta":539348160},{"NoteNumber":48,"Velocity":59,"Duration":117155,"SoundDuration":117155,"Delta":539479877},{"NoteNumber":53,"Velocity":59,"Duration":117155,"SoundDuration":117155,"Delta":539479877},{"NoteNumber":56,"Velocity":66,"Duration":117155,"SoundDuration":117155,"Delta":539479877},{"NoteNumber":60,"Velocity":79,"Duration":117155,"SoundDuration":117155,"Delta":539479877},{"NoteNumber":48,"Velocity":59,"Duration":117155,"SoundDuration":117155,"Delta":539607684},{"NoteNumber":56,"Velocity":66,"Duration":117155,"SoundDuration":117155,"Delta":539607684},{"NoteNumber":60,"Velocity":79,"Duration":117155,"SoundDuration":117155,"Delta":539607684},{"NoteNumber":53,"Velocity":59,"Duration":117155,"SoundDuration":117155,"Delta":539607684},{"NoteNumber":53,"Velocity":62,"Duration":390443,"SoundDuration":390443,"Delta":539735490},{"NoteNumber":48,"Velocity":62,"Duration":390443,"SoundDuration":390443,"Delta":539735490},{"NoteNumber":56,"Velocity":69,"Duration":390443,"SoundDuration":390443,"Delta":539735490},{"NoteNumber":60,"Velocity":84,"Duration":390443,"SoundDuration":390443,"Delta":539735490},{"NoteNumber":44,"Velocity":75,"Duration":117697,"SoundDuration":117697,"Delta":539869730},{"NoteNumber":41,"Velocity":75,"Duration":117697,"SoundDuration":117697,"Delta":539869730},{"NoteNumber":44,"Velocity":72,"Duration":117155,"SoundDuration":117155,"Delta":539998127},{"NoteNumber":41,"Velocity":72,"Duration":117155,"SoundDuration":117155,"Delta":539998127},{"NoteNumber":43,"Velocity":76,"Duration":267751,"SoundDuration":267751,"Delta":540125934},{"NoteNumber":40,"Velocity":76,"Duration":267751,"SoundDuration":267751,"Delta":540125934},{"NoteNumber":52,"Velocity":66,"Duration":117155,"SoundDuration":117155,"Delta":540265879},{"NoteNumber":55,"Velocity":66,"Duration":117155,"SoundDuration":117155,"Delta":540265879},{"NoteNumber":48,"Velocity":59,"Duration":117155,"SoundDuration":117155,"Delta":540265879},{"NoteNumber":60,"Velocity":79,"Duration":117155,"SoundDuration":117155,"Delta":540265879},{"NoteNumber":55,"Velocity":66,"Duration":117155,"SoundDuration":117155,"Delta":540393685},{"NoteNumber":60,"Velocity":79,"Duration":117155,"SoundDuration":117155,"Delta":540393685},{"NoteNumber":52,"Velocity":66,"Duration":117155,"SoundDuration":117155,"Delta":540393685},{"NoteNumber":48,"Velocity":59,"Duration":117155,"SoundDuration":117155,"Delta":540393685},{"NoteNumber":58,"Velocity":69,"Duration":401663,"SoundDuration":401663,"Delta":540521492},{"NoteNumber":48,"Velocity":62,"Duration":401663,"SoundDuration":401663,"Delta":540521492},{"NoteNumber":55,"Velocity":62,"Duration":401663,"SoundDuration":401663,"Delta":540521492},{"NoteNumber":60,"Velocity":84,"Duration":401663,"SoundDuration":401663,"Delta":540521492},{"NoteNumber":46,"Velocity":75,"Duration":117155,"SoundDuration":117155,"Delta":540657367},{"NoteNumber":43,"Velocity":75,"Duration":117155,"SoundDuration":117155,"Delta":540657367},{"NoteNumber":46,"Velocity":72,"Duration":126483,"SoundDuration":126483,"Delta":540785174},{"NoteNumber":43,"Velocity":72,"Duration":126483,"SoundDuration":126483,"Delta":540785174},{"NoteNumber":41,"Velocity":66,"Duration":118315,"SoundDuration":118315,"Delta":540923156},{"NoteNumber":44,"Velocity":79,"Duration":118315,"SoundDuration":118315,"Delta":540923156},{"NoteNumber":53,"Velocity":63,"Duration":118315,"SoundDuration":118315,"Delta":541052227},{"NoteNumber":56,"Velocity":63,"Duration":118315,"SoundDuration":118315,"Delta":541052227},{"NoteNumber":60,"Velocity":81,"Duration":118315,"SoundDuration":118315,"Delta":541052227},{"NoteNumber":48,"Velocity":63,"Duration":118315,"SoundDuration":118315,"Delta":541052227},{"NoteNumber":44,"Velocity":71,"Duration":123257,"SoundDuration":123257,"Delta":541181298},{"NoteNumber":41,"Velocity":59,"Duration":123257,"SoundDuration":123257,"Delta":541181298},{"NoteNumber":49,"Velocity":69,"Duration":118051,"SoundDuration":118051,"Delta":541315761},{"NoteNumber":61,"Velocity":89,"Duration":118051,"SoundDuration":118051,"Delta":541315761},{"NoteNumber":55,"Velocity":69,"Duration":118051,"SoundDuration":118051,"Delta":541315761},{"NoteNumber":53,"Velocity":69,"Duration":118051,"SoundDuration":118051,"Delta":541315761},{"NoteNumber":34,"Velocity":55,"Duration":118051,"SoundDuration":118051,"Delta":541444544},{"NoteNumber":43,"Velocity":66,"Duration":118051,"SoundDuration":118051,"Delta":541444544},{"NoteNumber":41,"Velocity":55,"Duration":118051,"SoundDuration":118051,"Delta":541444544},{"NoteNumber":49,"Velocity":63,"Duration":123540,"SoundDuration":123540,"Delta":541573327},{"NoteNumber":53,"Velocity":63,"Duration":123540,"SoundDuration":123540,"Delta":541573327},{"NoteNumber":55,"Velocity":63,"Duration":123540,"SoundDuration":123540,"Delta":541573327},{"NoteNumber":61,"Velocity":81,"Duration":123540,"SoundDuration":123540,"Delta":541573327},{"NoteNumber":44,"Velocity":75,"Duration":117011,"SoundDuration":117011,"Delta":541708098},{"NoteNumber":36,"Velocity":62,"Duration":117011,"SoundDuration":117011,"Delta":541708098},{"NoteNumber":41,"Velocity":62,"Duration":117011,"SoundDuration":117011,"Delta":541708098},{"NoteNumber":56,"Velocity":66,"Duration":117011,"SoundDuration":117011,"Delta":541835746},{"NoteNumber":60,"Velocity":87,"Duration":117011,"SoundDuration":117011,"Delta":541835746},{"NoteNumber":48,"Velocity":66,"Duration":117011,"SoundDuration":117011,"Delta":541835746},{"NoteNumber":53,"Velocity":66,"Duration":117011,"SoundDuration":117011,"Delta":541835746},{"NoteNumber":44,"Velocity":71,"Duration":120735,"SoundDuration":120735,"Delta":541963395},{"NoteNumber":36,"Velocity":59,"Duration":120735,"SoundDuration":120735,"Delta":541963395},{"NoteNumber":41,"Velocity":59,"Duration":120735,"SoundDuration":120735,"Delta":541963395},{"NoteNumber":55,"Velocity":66,"Duration":118315,"SoundDuration":118315,"Delta":542095107},{"NoteNumber":52,"Velocity":66,"Duration":118315,"SoundDuration":118315,"Delta":542095107},{"NoteNumber":60,"Velocity":87,"Duration":118315,"SoundDuration":118315,"Delta":542095107},{"NoteNumber":48,"Velocity":66,"Duration":118315,"SoundDuration":118315,"Delta":542095107},{"NoteNumber":40,"Velocity":59,"Duration":118315,"SoundDuration":118315,"Delta":542224178},{"NoteNumber":43,"Velocity":71,"Duration":118315,"SoundDuration":118315,"Delta":542224178},{"NoteNumber":36,"Velocity":59,"Duration":118315,"SoundDuration":118315,"Delta":542224178},{"NoteNumber":52,"Velocity":63,"Duration":131605,"SoundDuration":131605,"Delta":542353249},{"NoteNumber":55,"Velocity":63,"Duration":131605,"SoundDuration":131605,"Delta":542353249},{"NoteNumber":48,"Velocity":63,"Duration":131605,"SoundDuration":131605,"Delta":542353249},{"NoteNumber":60,"Velocity":81,"Duration":131605,"SoundDuration":131605,"Delta":542353249},{"NoteNumber":36,"Velocity":62,"Duration":118315,"SoundDuration":118315,"Delta":542496957},{"NoteNumber":41,"Velocity":62,"Duration":118315,"SoundDuration":118315,"Delta":542496957},{"NoteNumber":44,"Velocity":75,"Duration":118315,"SoundDuration":118315,"Delta":542496957},{"NoteNumber":32,"Velocity":62,"Duration":118315,"SoundDuration":118315,"Delta":542496957},{"NoteNumber":68,"Velocity":63,"Duration":118315,"SoundDuration":118315,"Delta":542626028},{"NoteNumber":72,"Velocity":81,"Duration":118315,"SoundDuration":118315,"Delta":542626028},{"NoteNumber":65,"Velocity":63,"Duration":118315,"SoundDuration":118315,"Delta":542626028},{"NoteNumber":60,"Velocity":63,"Duration":118315,"SoundDuration":118315,"Delta":542626028},{"NoteNumber":32,"Velocity":59,"Duration":123257,"SoundDuration":123257,"Delta":542755099},{"NoteNumber":41,"Velocity":59,"Duration":123257,"SoundDuration":123257,"Delta":542755099},{"NoteNumber":36,"Velocity":59,"Duration":123257,"SoundDuration":123257,"Delta":542755099},{"NoteNumber":44,"Velocity":71,"Duration":123257,"SoundDuration":123257,"Delta":542755099},{"NoteNumber":65,"Velocity":69,"Duration":118051,"SoundDuration":118051,"Delta":542889562},{"NoteNumber":61,"Velocity":69,"Duration":118051,"SoundDuration":118051,"Delta":542889562},{"NoteNumber":73,"Velocity":89,"Duration":118051,"SoundDuration":118051,"Delta":542889562},{"NoteNumber":67,"Velocity":69,"Duration":118051,"SoundDuration":118051,"Delta":542889562},{"NoteNumber":46,"Velocity":66,"Duration":118051,"SoundDuration":118051,"Delta":543018345},{"NoteNumber":41,"Velocity":55,"Duration":118051,"SoundDuration":118051,"Delta":543018345},{"NoteNumber":43,"Velocity":60,"Duration":118051,"SoundDuration":118051,"Delta":543018345},{"NoteNumber":34,"Velocity":55,"Duration":118051,"SoundDuration":118051,"Delta":543018345},{"NoteNumber":65,"Velocity":63,"Duration":123540,"SoundDuration":123540,"Delta":543147128},{"NoteNumber":61,"Velocity":63,"Duration":123540,"SoundDuration":123540,"Delta":543147128},{"NoteNumber":67,"Velocity":63,"Duration":123540,"SoundDuration":123540,"Delta":543147128},{"NoteNumber":73,"Velocity":81,"Duration":123540,"SoundDuration":123540,"Delta":543147128},{"NoteNumber":48,"Velocity":75,"Duration":117011,"SoundDuration":117011,"Delta":543281899},{"NoteNumber":44,"Velocity":69,"Duration":117011,"SoundDuration":117011,"Delta":543281899},{"NoteNumber":41,"Velocity":62,"Duration":117011,"SoundDuration":117011,"Delta":543281899},{"NoteNumber":36,"Velocity":62,"Duration":117011,"SoundDuration":117011,"Delta":543281899},{"NoteNumber":72,"Velocity":87,"Duration":117011,"SoundDuration":117011,"Delta":543409548},{"NoteNumber":65,"Velocity":66,"Duration":117011,"SoundDuration":117011,"Delta":543409548},{"NoteNumber":60,"Velocity":66,"Duration":117011,"SoundDuration":117011,"Delta":543409548},{"NoteNumber":68,"Velocity":66,"Duration":117011,"SoundDuration":117011,"Delta":543409548},{"NoteNumber":48,"Velocity":71,"Duration":120735,"SoundDuration":120735,"Delta":543537196},{"NoteNumber":41,"Velocity":59,"Duration":120735,"SoundDuration":120735,"Delta":543537196},{"NoteNumber":44,"Velocity":66,"Duration":120735,"SoundDuration":120735,"Delta":543537196},{"NoteNumber":36,"Velocity":59,"Duration":120735,"SoundDuration":120735,"Delta":543537196},{"NoteNumber":60,"Velocity":66,"Duration":118315,"SoundDuration":118315,"Delta":543668908},{"NoteNumber":64,"Velocity":66,"Duration":118315,"SoundDuration":118315,"Delta":543668908},{"NoteNumber":72,"Velocity":87,"Duration":118315,"SoundDuration":118315,"Delta":543668908},{"NoteNumber":67,"Velocity":66,"Duration":118315,"SoundDuration":118315,"Delta":543668908},{"NoteNumber":46,"Velocity":71,"Duration":118315,"SoundDuration":118315,"Delta":543797979},{"NoteNumber":40,"Velocity":59,"Duration":118315,"SoundDuration":118315,"Delta":543797979},{"NoteNumber":43,"Velocity":66,"Duration":118315,"SoundDuration":118315,"Delta":543797979},{"NoteNumber":34,"Velocity":59,"Duration":118315,"SoundDuration":118315,"Delta":543797979},{"NoteNumber":64,"Velocity":63,"Duration":134804,"SoundDuration":134804,"Delta":543927050},{"NoteNumber":67,"Velocity":63,"Duration":134804,"SoundDuration":134804,"Delta":543927050},{"NoteNumber":60,"Velocity":63,"Duration":134804,"SoundDuration":134804,"Delta":543927050},{"NoteNumber":72,"Velocity":81,"Duration":134804,"SoundDuration":134804,"Delta":543927050},{"NoteNumber":36,"Velocity":65,"Duration":121951,"SoundDuration":121951,"Delta":544074109},{"NoteNumber":41,"Velocity":65,"Duration":121951,"SoundDuration":121951,"Delta":544074109},{"NoteNumber":44,"Velocity":77,"Duration":121951,"SoundDuration":121951,"Delta":544074109},{"NoteNumber":32,"Velocity":65,"Duration":121951,"SoundDuration":121951,"Delta":544074109},{"NoteNumber":80,"Velocity":72,"Duration":121951,"SoundDuration":121951,"Delta":544207147},{"NoteNumber":84,"Velocity":93,"Duration":121951,"SoundDuration":121951,"Delta":544207147},{"NoteNumber":77,"Velocity":72,"Duration":121951,"SoundDuration":121951,"Delta":544207147},{"NoteNumber":72,"Velocity":72,"Duration":121951,"SoundDuration":121951,"Delta":544207147},{"NoteNumber":32,"Velocity":62,"Duration":129717,"SoundDuration":129717,"Delta":544340184},{"NoteNumber":41,"Velocity":62,"Duration":129717,"SoundDuration":129717,"Delta":544340184},{"NoteNumber":36,"Velocity":62,"Duration":129717,"SoundDuration":129717,"Delta":544340184},{"NoteNumber":44,"Velocity":74,"Duration":129717,"SoundDuration":129717,"Delta":544340184},{"NoteNumber":79,"Velocity":79,"Duration":124434,"SoundDuration":124434,"Delta":544481694},{"NoteNumber":73,"Velocity":79,"Duration":124434,"SoundDuration":124434,"Delta":544481694},{"NoteNumber":77,"Velocity":79,"Duration":124434,"SoundDuration":124434,"Delta":544481694},{"NoteNumber":85,"Velocity":101,"Duration":124434,"SoundDuration":124434,"Delta":544481694},{"NoteNumber":46,"Velocity":69,"Duration":124434,"SoundDuration":124434,"Delta":544617440},{"NoteNumber":41,"Velocity":57,"Duration":124434,"SoundDuration":124434,"Delta":544617440},{"NoteNumber":43,"Velocity":63,"Duration":124434,"SoundDuration":124434,"Delta":544617440},{"NoteNumber":34,"Velocity":57,"Duration":124434,"SoundDuration":124434,"Delta":544617440},{"NoteNumber":85,"Velocity":93,"Duration":130331,"SoundDuration":130331,"Delta":544753187},{"NoteNumber":73,"Velocity":72,"Duration":130331,"SoundDuration":130331,"Delta":544753187},{"NoteNumber":77,"Velocity":72,"Duration":130331,"SoundDuration":130331,"Delta":544753187},{"NoteNumber":79,"Velocity":72,"Duration":130331,"SoundDuration":130331,"Delta":544753187},{"NoteNumber":48,"Velocity":77,"Duration":128204,"SoundDuration":128204,"Delta":544895367},{"NoteNumber":41,"Velocity":65,"Duration":128204,"SoundDuration":128204,"Delta":544895367},{"NoteNumber":36,"Velocity":65,"Duration":128204,"SoundDuration":128204,"Delta":544895367},{"NoteNumber":44,"Velocity":72,"Duration":128204,"SoundDuration":128204,"Delta":544895367},{"NoteNumber":84,"Velocity":99,"Duration":128204,"SoundDuration":128204,"Delta":545035227},{"NoteNumber":80,"Velocity":76,"Duration":128204,"SoundDuration":128204,"Delta":545035227},{"NoteNumber":77,"Velocity":76,"Duration":128204,"SoundDuration":128204,"Delta":545035227},{"NoteNumber":72,"Velocity":76,"Duration":128204,"SoundDuration":128204,"Delta":545035227},{"NoteNumber":44,"Velocity":69,"Duration":139949,"SoundDuration":139949,"Delta":545175087},{"NoteNumber":41,"Velocity":62,"Duration":139949,"SoundDuration":139949,"Delta":545175087},{"NoteNumber":36,"Velocity":62,"Duration":139949,"SoundDuration":139949,"Delta":545175087},{"NoteNumber":48,"Velocity":74,"Duration":139949,"SoundDuration":139949,"Delta":545175087},{"NoteNumber":84,"Velocity":99,"Duration":129717,"SoundDuration":129717,"Delta":545327759},{"NoteNumber":72,"Velocity":75,"Duration":129717,"SoundDuration":129717,"Delta":545327759},{"NoteNumber":76,"Velocity":75,"Duration":129717,"SoundDuration":129717,"Delta":545327759},{"NoteNumber":79,"Velocity":75,"Duration":129717,"SoundDuration":129717,"Delta":545327759},{"NoteNumber":36,"Velocity":62,"Duration":129717,"SoundDuration":129717,"Delta":545469268},{"NoteNumber":48,"Velocity":74,"Duration":129717,"SoundDuration":129717,"Delta":545469268},{"NoteNumber":43,"Velocity":69,"Duration":129717,"SoundDuration":129717,"Delta":545469268},{"NoteNumber":40,"Velocity":62,"Duration":129717,"SoundDuration":129717,"Delta":545469268},{"NoteNumber":84,"Velocity":93,"Duration":153631,"SoundDuration":153631,"Delta":545610778},{"NoteNumber":76,"Velocity":72,"Duration":153631,"SoundDuration":153631,"Delta":545610778},{"NoteNumber":72,"Velocity":72,"Duration":153631,"SoundDuration":153631,"Delta":545610778},{"NoteNumber":79,"Velocity":72,"Duration":153631,"SoundDuration":153631,"Delta":545610778},{"NoteNumber":60,"Velocity":64,"Duration":75585,"SoundDuration":75585,"Delta":545778376},{"NoteNumber":29,"Velocity":82,"Duration":302342,"SoundDuration":302342,"Delta":545778376},{"NoteNumber":41,"Velocity":110,"Duration":302342,"SoundDuration":302342,"Delta":545778376},{"NoteNumber":56,"Velocity":55,"Duration":75585,"SoundDuration":75585,"Delta":545853962},{"NoteNumber":60,"Velocity":59,"Duration":75585,"SoundDuration":75585,"Delta":545929547},{"NoteNumber":56,"Velocity":50,"Duration":75585,"SoundDuration":75585,"Delta":546005133},{"NoteNumber":60,"Velocity":55,"Duration":75585,"SoundDuration":75585,"Delta":546080719},{"NoteNumber":56,"Velocity":48,"Duration":75585,"SoundDuration":75585,"Delta":546156305},{"NoteNumber":60,"Velocity":43,"Duration":75585,"SoundDuration":75585,"Delta":546231890},{"NoteNumber":68,"Velocity":62,"Duration":375217,"SoundDuration":375217,"Delta":546231890},{"NoteNumber":56,"Velocity":37,"Duration":75585,"SoundDuration":75585,"Delta":546307476},{"NoteNumber":60,"Velocity":43,"Duration":74755,"SoundDuration":74755,"Delta":546383062},{"NoteNumber":56,"Velocity":37,"Duration":74645,"SoundDuration":74645,"Delta":546457817},{"NoteNumber":60,"Velocity":43,"Duration":74645,"SoundDuration":74645,"Delta":546532463},{"NoteNumber":56,"Velocity":36,"Duration":92331,"SoundDuration":92331,"Delta":546607108},{"NoteNumber":72,"Velocity":54,"Duration":92331,"SoundDuration":92331,"Delta":546607108},{"NoteNumber":60,"Velocity":43,"Duration":66593,"SoundDuration":66593,"Delta":546699439},{"NoteNumber":77,"Velocity":59,"Duration":398393,"SoundDuration":398393,"Delta":546699439},{"NoteNumber":56,"Velocity":36,"Duration":66360,"SoundDuration":66360,"Delta":546766033},{"NoteNumber":60,"Velocity":42,"Duration":66359,"SoundDuration":66359,"Delta":546832393},{"NoteNumber":56,"Velocity":36,"Duration":66360,"SoundDuration":66360,"Delta":546898753},{"NoteNumber":60,"Velocity":42,"Duration":66360,"SoundDuration":66360,"Delta":546965113},{"NoteNumber":56,"Velocity":35,"Duration":66359,"SoundDuration":66359,"Delta":547031473},{"NoteNumber":60,"Velocity":42,"Duration":66360,"SoundDuration":66360,"Delta":547097833},{"NoteNumber":80,"Velocity":60,"Duration":355689,"SoundDuration":355689,"Delta":547097833},{"NoteNumber":56,"Velocity":35,"Duration":66360,"SoundDuration":66360,"Delta":547164193},{"NoteNumber":60,"Velocity":41,"Duration":73678,"SoundDuration":73678,"Delta":547230553},{"NoteNumber":56,"Velocity":35,"Duration":74645,"SoundDuration":74645,"Delta":547304232},{"NoteNumber":60,"Velocity":41,"Duration":74645,"SoundDuration":74645,"Delta":547378877},{"NoteNumber":56,"Velocity":35,"Duration":92331,"SoundDuration":92331,"Delta":547453523},{"NoteNumber":84,"Velocity":52,"Duration":92331,"SoundDuration":92331,"Delta":547453523},{"NoteNumber":60,"Velocity":41,"Duration":69662,"SoundDuration":69662,"Delta":547545854},{"NoteNumber":89,"Velocity":56,"Duration":401462,"SoundDuration":401462,"Delta":547545854},{"NoteNumber":56,"Velocity":35,"Duration":66360,"SoundDuration":66360,"Delta":547615516},{"NoteNumber":60,"Velocity":41,"Duration":66359,"SoundDuration":66359,"Delta":547681876},{"NoteNumber":56,"Velocity":34,"Duration":66360,"SoundDuration":66360,"Delta":547748236},{"NoteNumber":60,"Velocity":40,"Duration":66360,"SoundDuration":66360,"Delta":547814596},{"NoteNumber":56,"Velocity":34,"Duration":66359,"SoundDuration":66359,"Delta":547880956},{"NoteNumber":60,"Velocity":40,"Duration":66360,"SoundDuration":66360,"Delta":547947316},{"NoteNumber":84,"Velocity":58,"Duration":355689,"SoundDuration":355689,"Delta":547947316},{"NoteNumber":56,"Velocity":34,"Duration":66360,"SoundDuration":66360,"Delta":548013676},{"NoteNumber":60,"Velocity":40,"Duration":73678,"SoundDuration":73678,"Delta":548080036},{"NoteNumber":56,"Velocity":33,"Duration":74645,"SoundDuration":74645,"Delta":548153715},{"NoteNumber":60,"Velocity":40,"Duration":74645,"SoundDuration":74645,"Delta":548228361},{"NoteNumber":56,"Velocity":33,"Duration":92331,"SoundDuration":92331,"Delta":548303006},{"NoteNumber":80,"Velocity":50,"Duration":92331,"SoundDuration":92331,"Delta":548303006},{"NoteNumber":60,"Velocity":40,"Duration":69662,"SoundDuration":69662,"Delta":548395337},{"NoteNumber":77,"Velocity":54,"Duration":401462,"SoundDuration":401462,"Delta":548395337},{"NoteNumber":56,"Velocity":33,"Duration":66360,"SoundDuration":66360,"Delta":548465000},{"NoteNumber":60,"Velocity":39,"Duration":66359,"SoundDuration":66359,"Delta":548531360},{"NoteNumber":56,"Velocity":33,"Duration":66360,"SoundDuration":66360,"Delta":548597720},{"NoteNumber":60,"Velocity":39,"Duration":66360,"SoundDuration":66360,"Delta":548664080},{"NoteNumber":56,"Velocity":33,"Duration":66359,"SoundDuration":66359,"Delta":548730440},{"NoteNumber":60,"Velocity":39,"Duration":66360,"SoundDuration":66360,"Delta":548796800},{"NoteNumber":72,"Velocity":56,"Duration":355689,"SoundDuration":355689,"Delta":548796800},{"NoteNumber":56,"Velocity":32,"Duration":66360,"SoundDuration":66360,"Delta":548863160},{"NoteNumber":60,"Velocity":38,"Duration":73678,"SoundDuration":73678,"Delta":548929520},{"NoteNumber":56,"Velocity":32,"Duration":74645,"SoundDuration":74645,"Delta":549003199},{"NoteNumber":60,"Velocity":38,"Duration":74645,"SoundDuration":74645,"Delta":549077844},{"NoteNumber":56,"Velocity":32,"Duration":92331,"SoundDuration":92331,"Delta":549152490},{"NoteNumber":68,"Velocity":48,"Duration":92331,"SoundDuration":92331,"Delta":549152490},{"NoteNumber":60,"Velocity":38,"Duration":67415,"SoundDuration":67415,"Delta":549244821},{"NoteNumber":65,"Velocity":52,"Duration":404494,"SoundDuration":404494,"Delta":549244821},{"NoteNumber":56,"Velocity":32,"Duration":67415,"SoundDuration":67415,"Delta":549312237},{"NoteNumber":60,"Velocity":37,"Duration":67415,"SoundDuration":67415,"Delta":549379652},{"NoteNumber":56,"Velocity":31,"Duration":67415,"SoundDuration":67415,"Delta":549447068},{"NoteNumber":60,"Velocity":37,"Duration":67415,"SoundDuration":67415,"Delta":549514484},{"NoteNumber":56,"Velocity":31,"Duration":67415,"SoundDuration":67415,"Delta":549581900},{"NoteNumber":72,"Velocity":37,"Duration":67415,"SoundDuration":67415,"Delta":549649315},{"NoteNumber":60,"Velocity":47,"Duration":357924,"SoundDuration":357924,"Delta":549649315},{"NoteNumber":68,"Velocity":31,"Duration":67415,"SoundDuration":67415,"Delta":549716731},{"NoteNumber":72,"Velocity":37,"Duration":73802,"SoundDuration":73802,"Delta":549784147},{"NoteNumber":68,"Velocity":31,"Duration":74645,"SoundDuration":74645,"Delta":549857949},{"NoteNumber":72,"Velocity":36,"Duration":74645,"SoundDuration":74645,"Delta":549932594},{"NoteNumber":68,"Velocity":31,"Duration":92331,"SoundDuration":92331,"Delta":550007240},{"NoteNumber":56,"Velocity":41,"Duration":92331,"SoundDuration":92331,"Delta":550007240},{"NoteNumber":72,"Velocity":36,"Duration":68807,"SoundDuration":68807,"Delta":550099571},{"NoteNumber":53,"Velocity":44,"Duration":412843,"SoundDuration":412843,"Delta":550099571},{"NoteNumber":68,"Velocity":30,"Duration":68807,"SoundDuration":68807,"Delta":550168378},{"NoteNumber":72,"Velocity":36,"Duration":68807,"SoundDuration":68807,"Delta":550237186},{"NoteNumber":68,"Velocity":30,"Duration":68807,"SoundDuration":68807,"Delta":550305993},{"NoteNumber":72,"Velocity":35,"Duration":68807,"SoundDuration":68807,"Delta":550374800},{"NoteNumber":68,"Velocity":30,"Duration":68807,"SoundDuration":68807,"Delta":550443607},{"NoteNumber":72,"Velocity":35,"Duration":68807,"SoundDuration":68807,"Delta":550512415},{"NoteNumber":48,"Velocity":45,"Duration":364314,"SoundDuration":364314,"Delta":550512415},{"NoteNumber":68,"Velocity":30,"Duration":68807,"SoundDuration":68807,"Delta":550581222},{"NoteNumber":72,"Velocity":35,"Duration":75566,"SoundDuration":75566,"Delta":550650029},{"NoteNumber":68,"Velocity":30,"Duration":75566,"SoundDuration":75566,"Delta":550725596},{"NoteNumber":72,"Velocity":34,"Duration":75566,"SoundDuration":75566,"Delta":550801163},{"NoteNumber":68,"Velocity":29,"Duration":92438,"SoundDuration":92438,"Delta":550876729},{"NoteNumber":44,"Velocity":39,"Duration":92438,"SoundDuration":92438,"Delta":550876729},{"NoteNumber":72,"Velocity":34,"Duration":71770,"SoundDuration":71770,"Delta":550969168},{"NoteNumber":41,"Velocity":42,"Duration":430621,"SoundDuration":430621,"Delta":550969168},{"NoteNumber":68,"Velocity":29,"Duration":71770,"SoundDuration":71770,"Delta":551040938},{"NoteNumber":72,"Velocity":34,"Duration":71770,"SoundDuration":71770,"Delta":551112708},{"NoteNumber":68,"Velocity":28,"Duration":71770,"SoundDuration":71770,"Delta":551184479},{"NoteNumber":72,"Velocity":33,"Duration":71770,"SoundDuration":71770,"Delta":551256249},{"NoteNumber":68,"Velocity":27,"Duration":71770,"SoundDuration":71770,"Delta":551328019},{"NoteNumber":72,"Velocity":33,"Duration":71770,"SoundDuration":71770,"Delta":551399789},{"NoteNumber":36,"Velocity":38,"Duration":372548,"SoundDuration":372548,"Delta":551399789},{"NoteNumber":68,"Velocity":27,"Duration":71770,"SoundDuration":71770,"Delta":551471560},{"NoteNumber":72,"Velocity":32,"Duration":76335,"SoundDuration":76335,"Delta":551543330},{"NoteNumber":68,"Velocity":27,"Duration":76336,"SoundDuration":76336,"Delta":551619666},{"NoteNumber":72,"Velocity":31,"Duration":76335,"SoundDuration":76335,"Delta":551696002},{"NoteNumber":68,"Velocity":26,"Duration":92528,"SoundDuration":92528,"Delta":551772338},{"NoteNumber":32,"Velocity":27,"Duration":92528,"SoundDuration":92528,"Delta":551772338},{"NoteNumber":72,"Velocity":31,"Duration":73891,"SoundDuration":73891,"Delta":551864866},{"NoteNumber":29,"Velocity":28,"Duration":443350,"SoundDuration":443350,"Delta":551864866},{"NoteNumber":68,"Velocity":26,"Duration":73891,"SoundDuration":73891,"Delta":551938758},{"NoteNumber":72,"Velocity":31,"Duration":73891,"SoundDuration":73891,"Delta":552012650},{"NoteNumber":68,"Velocity":25,"Duration":73891,"SoundDuration":73891,"Delta":552086542},{"NoteNumber":72,"Velocity":30,"Duration":73891,"SoundDuration":73891,"Delta":552160433},{"NoteNumber":68,"Velocity":25,"Duration":73891,"SoundDuration":73891,"Delta":552234325},{"NoteNumber":72,"Velocity":29,"Duration":73891,"SoundDuration":73891,"Delta":552308217},{"NoteNumber":29,"Velocity":27,"Duration":443230,"SoundDuration":443230,"Delta":552308217},{"NoteNumber":68,"Velocity":25,"Duration":73891,"SoundDuration":73891,"Delta":552382109},{"NoteNumber":72,"Velocity":29,"Duration":73891,"SoundDuration":73891,"Delta":552456000},{"NoteNumber":68,"Velocity":24,"Duration":73891,"SoundDuration":73891,"Delta":552529892},{"NoteNumber":72,"Velocity":29,"Duration":73891,"SoundDuration":73891,"Delta":552603784},{"NoteNumber":68,"Velocity":24,"Duration":73772,"SoundDuration":73772,"Delta":552677676},{"NoteNumber":72,"Velocity":28,"Duration":73824,"SoundDuration":73824,"Delta":552751448},{"NoteNumber":29,"Velocity":27,"Duration":922082,"SoundDuration":922082,"Delta":552751448},{"NoteNumber":68,"Velocity":23,"Duration":74364,"SoundDuration":74364,"Delta":552825272},{"NoteNumber":72,"Velocity":27,"Duration":74885,"SoundDuration":74885,"Delta":552899636},{"NoteNumber":68,"Velocity":23,"Duration":75412,"SoundDuration":75412,"Delta":552974522},{"NoteNumber":72,"Velocity":26,"Duration":75977,"SoundDuration":75977,"Delta":553049935},{"NoteNumber":68,"Velocity":22,"Duration":76502,"SoundDuration":76502,"Delta":553125912},{"NoteNumber":72,"Velocity":26,"Duration":77093,"SoundDuration":77093,"Delta":553202415},{"NoteNumber":68,"Velocity":22,"Duration":77620,"SoundDuration":77620,"Delta":553279508},{"NoteNumber":72,"Velocity":25,"Duration":78221,"SoundDuration":78221,"Delta":553357129},{"NoteNumber":68,"Velocity":21,"Duration":78794,"SoundDuration":78794,"Delta":553435350},{"NoteNumber":72,"Velocity":24,"Duration":79383,"SoundDuration":79383,"Delta":553514145},{"NoteNumber":68,"Velocity":20,"Duration":80001,"SoundDuration":80001,"Delta":553593529},{"NoteNumber":72,"Velocity":23,"Duration":81385,"SoundDuration":81385,"Delta":553673530},{"NoteNumber":29,"Velocity":19,"Duration":1340329,"SoundDuration":1340329,"Delta":553673530},{"NoteNumber":68,"Velocity":20,"Duration":83525,"SoundDuration":83525,"Delta":553754915},{"NoteNumber":72,"Velocity":23,"Duration":85865,"SoundDuration":85865,"Delta":553838440},{"NoteNumber":68,"Velocity":19,"Duration":88279,"SoundDuration":88279,"Delta":553924306},{"NoteNumber":72,"Velocity":22,"Duration":90881,"SoundDuration":90881,"Delta":554012586},{"NoteNumber":68,"Velocity":18,"Duration":93627,"SoundDuration":93627,"Delta":554103467},{"NoteNumber":72,"Velocity":21,"Duration":96492,"SoundDuration":96492,"Delta":554197095},{"NoteNumber":68,"Velocity":18,"Duration":100699,"SoundDuration":100699,"Delta":554293587},{"NoteNumber":72,"Velocity":21,"Duration":108496,"SoundDuration":108496,"Delta":554394286},{"NoteNumber":68,"Velocity":17,"Duration":117797,"SoundDuration":117797,"Delta":554502782},{"NoteNumber":72,"Velocity":20,"Duration":122960,"SoundDuration":122960,"Delta":554620580},{"NoteNumber":68,"Velocity":17,"Duration":270318,"SoundDuration":270318,"Delta":554743541},{"NoteNumber":72,"Velocity":18,"Duration":2257056,"SoundDuration":2257056,"Delta":555013860},{"NoteNumber":68,"Velocity":15,"Duration":2257056,"SoundDuration":2257056,"Delta":555013860},{"NoteNumber":29,"Velocity":12,"Duration":2257056,"SoundDuration":2257056,"Delta":555013860}],"license":{"name":"Creative Commons Attribution-ShareAlike 3.0 Germany","url":"http://creativecommons.org/licenses/by-sa/3.0/de/deed.en","text":"The MIDI files in this folder were downloaded from http://www.piano-midi.de and are licensed under the Creative Commons Attribution-ShareAlike 3.0 Germany license by Bernd Krueger.\n\nThe MIDI, audio(MP3, OGG) and video files of Bernd Krueger are licensed under the cc-by-sa Germany License . This means, that you can use and adapt the files, as long as you attribute to the copyright holder Name: Bernd Krueger Source: http://www.piano-midi.de The distribution or public playback of the files is only allowed under identical license conditions . The scores are open source.","attribution":"Bernd Krueger","attributionUrl":"http://www.piano-midi.de"}}