{"title":"Piano Sonata No. 21 in C major, Op. 53 \"Waldstein\": II. Introduzione (Adagio molto)","artist":"Beethoven","durationMs":246165,"midiSha256":"475aec6539a7db7880369f60c719780af73ba3a56e397c3657c218476191d51e","midiObject":[{"NoteNumber":29,"Velocity":29,"Duration":4541666,"SoundDuration":4541666,"Delta":0},{"NoteNumber":41,"Velocity":35,"Duration":4541666,"SoundDuration":4541666,"Delta":0},{"NoteNumber":48,"Velocity":41,"Duration":1125000,"SoundDuration":1125000,"Delta":1500000},{"NoteNumber":48,"Velocity":41,"Duration":416666,"SoundDuration":416666,"Delta":2625000},{"NoteNumber":57,"Velocity":47,"Duration":1499999,"SoundDuration":1499999,"Delta":3041666},{"NoteNumber":29,"Velocity":29,"Duration":4541666,"SoundDuration":4541666,"Delta":4541666},{"NoteNumber":41,"Velocity":35,"Duration":4541666,"SoundDuration":4541666,"Delta":4541666},{"NoteNumber":57,"Velocity":40,"Duration":1125000,"SoundDuration":1125000,"Delta":6041666},{"NoteNumber":57,"Velocity":40,"Duration":416666,"SoundDuration":416666,"Delta":7166666},{"NoteNumber":63,"Velocity":46,"Duration":1500000,"SoundDuration":1500000,"Delta":7583333},{"NoteNumber":56,"Velocity":36,"Duration":1357142,"SoundDuration":1357142,"Delta":10583333},{"NoteNumber":64,"Velocity":36,"Duration":1357142,"SoundDuration":1357142,"Delta":10583333},{"NoteNumber":40,"Velocity":26,"Duration":1357142,"SoundDuration":1357142,"Delta":10583333},{"NoteNumber":52,"Velocity":31,"Duration":1357142,"SoundDuration":1357142,"Delta":10583333},{"NoteNumber":59,"Velocity":30,"Duration":1425000,"SoundDuration":1425000,"Delta":12011904},{"NoteNumber":56,"Velocity":25,"Duration":1425000,"SoundDuration":1425000,"Delta":12011904},{"NoteNumber":64,"Velocity":30,"Duration":1425000,"SoundDuration":1425000,"Delta":12011904},{"NoteNumber":40,"Velocity":21,"Duration":1425000,"SoundDuration":1425000,"Delta":12011904},{"NoteNumber":52,"Velocity":25,"Duration":1425000,"SoundDuration":1425000,"Delta":12011904},{"NoteNumber":56,"Velocity":24,"Duration":3000000,"SoundDuration":3000000,"Delta":13511904},{"NoteNumber":59,"Velocity":28,"Duration":3000000,"SoundDuration":3000000,"Delta":13511904},{"NoteNumber":64,"Velocity":28,"Duration":3000000,"SoundDuration":3000000,"Delta":13511904},{"NoteNumber":40,"Velocity":20,"Duration":3000000,"SoundDuration":3000000,"Delta":13511904},{"NoteNumber":52,"Velocity":24,"Duration":3000000,"SoundDuration":3000000,"Delta":13511904},{"NoteNumber":40,"Velocity":31,"Duration":4530405,"SoundDuration":4530405,"Delta":18011904},{"NoteNumber":52,"Velocity":38,"Duration":4530405,"SoundDuration":4530405,"Delta":18011904},{"NoteNumber":59,"Velocity":41,"Duration":1125000,"SoundDuration":1125000,"Delta":19511904},{"NoteNumber":59,"Velocity":41,"Duration":405405,"SoundDuration":405405,"Delta":20636904},{"NoteNumber":67,"Velocity":47,"Duration":1500000,"SoundDuration":1500000,"Delta":21042310},{"NoteNumber":40,"Velocity":31,"Duration":4579545,"SoundDuration":4579545,"Delta":22542310},{"NoteNumber":52,"Velocity":38,"Duration":4579545,"SoundDuration":4579545,"Delta":22542310},{"NoteNumber":61,"Velocity":40,"Duration":1125000,"SoundDuration":1125000,"Delta":24042310},{"NoteNumber":61,"Velocity":40,"Duration":454545,"SoundDuration":454545,"Delta":25167310},{"NoteNumber":70,"Velocity":46,"Duration":1500000,"SoundDuration":1500000,"Delta":25621855},{"NoteNumber":66,"Velocity":32,"Duration":1357142,"SoundDuration":1357142,"Delta":28621855},{"NoteNumber":59,"Velocity":36,"Duration":1357142,"SoundDuration":1357142,"Delta":28621855},{"NoteNumber":71,"Velocity":36,"Duration":1357142,"SoundDuration":1357142,"Delta":28621855},{"NoteNumber":47,"Velocity":26,"Duration":1357142,"SoundDuration":1357142,"Delta":28621855},{"NoteNumber":39,"Velocity":26,"Duration":1357142,"SoundDuration":1357142,"Delta":28621855},{"NoteNumber":51,"Velocity":31,"Duration":1357142,"SoundDuration":1357142,"Delta":28621855},{"NoteNumber":66,"Velocity":32,"Duration":1425000,"SoundDuration":1425000,"Delta":30050427},{"NoteNumber":59,"Velocity":27,"Duration":1425000,"SoundDuration":1425000,"Delta":30050427},{"NoteNumber":71,"Velocity":32,"Duration":1425000,"SoundDuration":1425000,"Delta":30050427},{"NoteNumber":47,"Velocity":23,"Duration":1425000,"SoundDuration":1425000,"Delta":30050427},{"NoteNumber":39,"Velocity":23,"Duration":1425000,"SoundDuration":1425000,"Delta":30050427},{"NoteNumber":51,"Velocity":27,"Duration":1425000,"SoundDuration":1425000,"Delta":30050427},{"NoteNumber":59,"Velocity":24,"Duration":3000000,"SoundDuration":3000000,"Delta":31550427},{"NoteNumber":66,"Velocity":28,"Duration":3000000,"SoundDuration":3000000,"Delta":31550427},{"NoteNumber":71,"Velocity":28,"Duration":3000000,"SoundDuration":3000000,"Delta":31550427},{"NoteNumber":47,"Velocity":20,"Duration":3000000,"SoundDuration":3000000,"Delta":31550427},{"NoteNumber":39,"Velocity":20,"Duration":3000000,"SoundDuration":3000000,"Delta":31550427},{"NoteNumber":51,"Velocity":24,"Duration":3000000,"SoundDuration":3000000,"Delta":31550427},{"NoteNumber":38,"Velocity":38,"Duration":4506446,"SoundDuration":4506446,"Delta":36050427},{"NoteNumber":50,"Velocity":45,"Duration":4506446,"SoundDuration":4506446,"Delta":36050427},{"NoteNumber":65,"Velocity":46,"Duration":1098837,"SoundDuration":1098837,"Delta":37550427},{"NoteNumber":65,"Velocity":54,"Duration":407608,"SoundDuration":407608,"Delta":38649264},{"NoteNumber":71,"Velocity":60,"Duration":1500000,"SoundDuration":1500000,"Delta":39056873},{"NoteNumber":37,"Velocity":42,"Duration":4500000,"SoundDuration":4500000,"Delta":40556873},{"NoteNumber":49,"Velocity":50,"Duration":4500000,"SoundDuration":4500000,"Delta":40556873},{"NoteNumber":71,"Velocity":60,"Duration":1071428,"SoundDuration":1071428,"Delta":42056873},{"NoteNumber":71,"Velocity":60,"Duration":428571,"SoundDuration":428571,"Delta":43128301},{"NoteNumber":77,"Velocity":70,"Duration":3000000,"SoundDuration":3000000,"Delta":43556873},{"NoteNumber":36,"Velocity":44,"Duration":1424999,"SoundDuration":1424999,"Delta":45056873},{"NoteNumber":48,"Velocity":52,"Duration":1424999,"SoundDuration":1424999,"Delta":45056873},{"NoteNumber":76,"Velocity":65,"Duration":1395349,"SoundDuration":1395349,"Delta":46556873},{"NoteNumber":36,"Velocity":44,"Duration":1325581,"SoundDuration":1325581,"Delta":46556873},{"NoteNumber":48,"Velocity":52,"Duration":1325581,"SoundDuration":1325581,"Delta":46556873},{"NoteNumber":79,"Velocity":68,"Duration":1578947,"SoundDuration":1578947,"Delta":47952222},{"NoteNumber":36,"Velocity":44,"Duration":1500000,"SoundDuration":1500000,"Delta":47952222},{"NoteNumber":48,"Velocity":52,"Duration":1500000,"SoundDuration":1500000,"Delta":47952222},{"NoteNumber":64,"Velocity":32,"Duration":3000000,"SoundDuration":3000000,"Delta":49531169},{"NoteNumber":70,"Velocity":39,"Duration":3000000,"SoundDuration":3000000,"Delta":49531169},{"NoteNumber":36,"Velocity":31,"Duration":3000000,"SoundDuration":3000000,"Delta":49531169},{"NoteNumber":48,"Velocity":36,"Duration":3000000,"SoundDuration":3000000,"Delta":49531169},{"NoteNumber":65,"Velocity":35,"Duration":1278026,"SoundDuration":1278026,"Delta":55531169},{"NoteNumber":69,"Velocity":42,"Duration":1278026,"SoundDuration":1278026,"Delta":55531169},{"NoteNumber":38,"Velocity":28,"Duration":1278026,"SoundDuration":1278026,"Delta":55531169},{"NoteNumber":50,"Velocity":34,"Duration":1278026,"SoundDuration":1278026,"Delta":55531169},{"NoteNumber":69,"Velocity":40,"Duration":1460256,"SoundDuration":1460256,"Delta":56876461},{"NoteNumber":77,"Velocity":48,"Duration":1460256,"SoundDuration":1460256,"Delta":56876461},{"NoteNumber":38,"Velocity":35,"Duration":1460256,"SoundDuration":1460256,"Delta":56876461},{"NoteNumber":50,"Velocity":42,"Duration":1460256,"SoundDuration":1460256,"Delta":56876461},{"NoteNumber":65,"Velocity":30,"Duration":3000000,"SoundDuration":3000000,"Delta":58411717},{"NoteNumber":69,"Velocity":36,"Duration":3000000,"SoundDuration":3000000,"Delta":58411717},{"NoteNumber":38,"Velocity":24,"Duration":3000000,"SoundDuration":3000000,"Delta":58411717},{"NoteNumber":50,"Velocity":29,"Duration":3000000,"SoundDuration":3000000,"Delta":58411717},{"NoteNumber":34,"Velocity":38,"Duration":1345291,"SoundDuration":1345291,"Delta":62911717},{"NoteNumber":46,"Velocity":45,"Duration":1345291,"SoundDuration":1345291,"Delta":62911717},{"NoteNumber":58,"Velocity":36,"Duration":1500000,"SoundDuration":1500000,"Delta":64257009},{"NoteNumber":62,"Velocity":36,"Duration":1500000,"SoundDuration":1500000,"Delta":64257009},{"NoteNumber":67,"Velocity":43,"Duration":1500000,"SoundDuration":1500000,"Delta":64257009},{"NoteNumber":36,"Velocity":35,"Duration":1428571,"SoundDuration":1428571,"Delta":67257009},{"NoteNumber":48,"Velocity":42,"Duration":1428571,"SoundDuration":1428571,"Delta":67257009},{"NoteNumber":55,"Velocity":34,"Duration":1500000,"SoundDuration":1500000,"Delta":68685580},{"NoteNumber":58,"Velocity":34,"Duration":1500000,"SoundDuration":1500000,"Delta":68685580},{"NoteNumber":64,"Velocity":40,"Duration":1500000,"SoundDuration":1500000,"Delta":68685580},{"NoteNumber":29,"Velocity":32,"Duration":1500000,"SoundDuration":1500000,"Delta":71685580},{"NoteNumber":41,"Velocity":38,"Duration":1500000,"SoundDuration":1500000,"Delta":71685580},{"NoteNumber":57,"Velocity":27,"Duration":1331775,"SoundDuration":1331775,"Delta":73264528},{"NoteNumber":60,"Velocity":27,"Duration":1331775,"SoundDuration":1331775,"Delta":73264528},{"NoteNumber":65,"Velocity":33,"Duration":1331775,"SoundDuration":1331775,"Delta":73264528},{"NoteNumber":29,"Velocity":23,"Duration":1331775,"SoundDuration":1331775,"Delta":73264528},{"NoteNumber":41,"Velocity":27,"Duration":1331775,"SoundDuration":1331775,"Delta":73264528},{"NoteNumber":57,"Velocity":27,"Duration":1331775,"SoundDuration":1331775,"Delta":74666397},{"NoteNumber":60,"Velocity":27,"Duration":1331775,"SoundDuration":1331775,"Delta":74666397},{"NoteNumber":69,"Velocity":33,"Duration":1331775,"SoundDuration":1331775,"Delta":74666397},{"NoteNumber":29,"Velocity":23,"Duration":1331775,"SoundDuration":1331775,"Delta":74666397},{"NoteNumber":41,"Velocity":27,"Duration":1331775,"SoundDuration":1331775,"Delta":74666397},{"NoteNumber":57,"Velocity":27,"Duration":3000000,"SoundDuration":3000000,"Delta":76068266},{"NoteNumber":60,"Velocity":27,"Duration":3000000,"SoundDuration":3000000,"Delta":76068266},{"NoteNumber":65,"Velocity":33,"Duration":3000000,"SoundDuration":3000000,"Delta":76068266},{"NoteNumber":29,"Velocity":23,"Duration":3000000,"SoundDuration":3000000,"Delta":76068266},{"NoteNumber":41,"Velocity":27,"Duration":3000000,"SoundDuration":3000000,"Delta":76068266},{"NoteNumber":48,"Velocity":53,"Duration":1022727,"SoundDuration":1022727,"Delta":79068266},{"NoteNumber":48,"Velocity":53,"Duration":170454,"SoundDuration":170454,"Delta":80090993},{"NoteNumber":48,"Velocity":53,"Duration":159090,"SoundDuration":159090,"Delta":80261447},{"NoteNumber":57,"Velocity":61,"Duration":2045454,"SoundDuration":2045454,"Delta":80431902},{"NoteNumber":41,"Velocity":41,"Duration":2045454,"SoundDuration":2045454,"Delta":80431902},{"NoteNumber":48,"Velocity":49,"Duration":2045454,"SoundDuration":2045454,"Delta":80431902},{"NoteNumber":55,"Velocity":58,"Duration":625000,"SoundDuration":625000,"Delta":82477357},{"NoteNumber":40,"Velocity":39,"Duration":625000,"SoundDuration":625000,"Delta":82477357},{"NoteNumber":48,"Velocity":48,"Duration":625000,"SoundDuration":625000,"Delta":82477357},{"NoteNumber":57,"Velocity":61,"Duration":625000,"SoundDuration":625000,"Delta":83159175},{"NoteNumber":41,"Velocity":42,"Duration":625000,"SoundDuration":625000,"Delta":83159175},{"NoteNumber":48,"Velocity":50,"Duration":625000,"SoundDuration":625000,"Delta":83159175},{"NoteNumber":58,"Velocity":64,"Duration":625000,"SoundDuration":625000,"Delta":83840993},{"NoteNumber":43,"Velocity":45,"Duration":625000,"SoundDuration":625000,"Delta":83840993},{"NoteNumber":48,"Velocity":53,"Duration":625000,"SoundDuration":625000,"Delta":83840993},{"NoteNumber":59,"Velocity":68,"Duration":731707,"SoundDuration":731707,"Delta":84522812},{"NoteNumber":44,"Velocity":48,"Duration":731707,"SoundDuration":731707,"Delta":84522812},{"NoteNumber":48,"Velocity":58,"Duration":731707,"SoundDuration":731707,"Delta":84522812},{"NoteNumber":60,"Velocity":73,"Duration":1333333,"SoundDuration":1333333,"Delta":85254519},{"NoteNumber":45,"Velocity":50,"Duration":1333333,"SoundDuration":1333333,"Delta":85254519},{"NoteNumber":48,"Velocity":60,"Duration":1333333,"SoundDuration":1333333,"Delta":85254519},{"NoteNumber":62,"Velocity":71,"Duration":1363636,"SoundDuration":1363636,"Delta":86587852},{"NoteNumber":46,"Velocity":50,"Duration":1363636,"SoundDuration":1363636,"Delta":86587852},{"NoteNumber":48,"Velocity":61,"Duration":1363636,"SoundDuration":1363636,"Delta":86587852},{"NoteNumber":58,"Velocity":48,"Duration":340909,"SoundDuration":340909,"Delta":87951489},{"NoteNumber":43,"Velocity":40,"Duration":340909,"SoundDuration":340909,"Delta":87951489},{"NoteNumber":48,"Velocity":40,"Duration":681818,"SoundDuration":681818,"Delta":87951489},{"NoteNumber":57,"Velocity":43,"Duration":340909,"SoundDuration":340909,"Delta":88292398},{"NoteNumber":41,"Velocity":35,"Duration":340909,"SoundDuration":340909,"Delta":88292398},{"NoteNumber":55,"Velocity":45,"Duration":681818,"SoundDuration":681818,"Delta":88633307},{"NoteNumber":40,"Velocity":40,"Duration":2045454,"SoundDuration":2045454,"Delta":88633307},{"NoteNumber":48,"Velocity":40,"Duration":2045454,"SoundDuration":2045454,"Delta":88633307},{"NoteNumber":66,"Velocity":48,"Duration":625000,"SoundDuration":625000,"Delta":89315125},{"NoteNumber":67,"Velocity":48,"Duration":625000,"SoundDuration":625000,"Delta":89996944},{"NoteNumber":69,"Velocity":49,"Duration":625000,"SoundDuration":625000,"Delta":90678762},{"NoteNumber":54,"Velocity":35,"Duration":625000,"SoundDuration":625000,"Delta":90678762},{"NoteNumber":60,"Velocity":29,"Duration":625000,"SoundDuration":625000,"Delta":90678762},{"NoteNumber":70,"Velocity":53,"Duration":639534,"SoundDuration":639534,"Delta":91360580},{"NoteNumber":55,"Velocity":38,"Duration":639534,"SoundDuration":639534,"Delta":91360580},{"NoteNumber":60,"Velocity":32,"Duration":639534,"SoundDuration":639534,"Delta":91360580},{"NoteNumber":78,"Velocity":54,"Duration":625000,"SoundDuration":625000,"Delta":92058255},{"NoteNumber":57,"Velocity":40,"Duration":625000,"SoundDuration":625000,"Delta":92058255},{"NoteNumber":60,"Velocity":34,"Duration":625000,"SoundDuration":625000,"Delta":92058255},{"NoteNumber":79,"Velocity":55,"Duration":625000,"SoundDuration":625000,"Delta":92740073},{"NoteNumber":58,"Velocity":51,"Duration":625000,"SoundDuration":625000,"Delta":92740073},{"NoteNumber":60,"Velocity":51,"Duration":625000,"SoundDuration":625000,"Delta":92740073},{"NoteNumber":81,"Velocity":56,"Duration":625000,"SoundDuration":625000,"Delta":93421891},{"NoteNumber":42,"Velocity":51,"Duration":625000,"SoundDuration":625000,"Delta":93421891},{"NoteNumber":82,"Velocity":57,"Duration":625000,"SoundDuration":625000,"Delta":94103709},{"NoteNumber":43,"Velocity":55,"Duration":625000,"SoundDuration":625000,"Delta":94103709},{"NoteNumber":45,"Velocity":51,"Duration":625000,"SoundDuration":625000,"Delta":94785528},{"NoteNumber":48,"Velocity":57,"Duration":1022727,"SoundDuration":1022727,"Delta":95467346},{"NoteNumber":46,"Velocity":57,"Duration":625000,"SoundDuration":625000,"Delta":95467346},{"NoteNumber":43,"Velocity":50,"Duration":669856,"SoundDuration":669856,"Delta":96149164},{"NoteNumber":48,"Velocity":57,"Duration":197368,"SoundDuration":197368,"Delta":96490073},{"NoteNumber":48,"Velocity":53,"Duration":197368,"SoundDuration":197368,"Delta":96687442},{"NoteNumber":58,"Velocity":69,"Duration":2015810,"SoundDuration":2015810,"Delta":96884810},{"NoteNumber":40,"Velocity":41,"Duration":652174,"SoundDuration":652174,"Delta":96884810},{"NoteNumber":43,"Velocity":40,"Duration":1363636,"SoundDuration":1363636,"Delta":97536984},{"NoteNumber":48,"Velocity":46,"Duration":1363636,"SoundDuration":1363636,"Delta":97536984},{"NoteNumber":57,"Velocity":63,"Duration":625000,"SoundDuration":625000,"Delta":98900621},{"NoteNumber":42,"Velocity":42,"Duration":625000,"SoundDuration":625000,"Delta":98900621},{"NoteNumber":48,"Velocity":52,"Duration":625000,"SoundDuration":625000,"Delta":98900621},{"NoteNumber":58,"Velocity":66,"Duration":625000,"SoundDuration":625000,"Delta":99582439},{"NoteNumber":43,"Velocity":46,"Duration":625000,"SoundDuration":625000,"Delta":99582439},{"NoteNumber":48,"Velocity":55,"Duration":625000,"SoundDuration":625000,"Delta":99582439},{"NoteNumber":60,"Velocity":68,"Duration":639534,"SoundDuration":639534,"Delta":100264257},{"NoteNumber":45,"Velocity":49,"Duration":639534,"SoundDuration":639534,"Delta":100264257},{"NoteNumber":48,"Velocity":58,"Duration":639534,"SoundDuration":639534,"Delta":100264257},{"NoteNumber":61,"Velocity":71,"Duration":769230,"SoundDuration":769230,"Delta":100961932},{"NoteNumber":46,"Velocity":52,"Duration":769230,"SoundDuration":769230,"Delta":100961932},{"NoteNumber":48,"Velocity":63,"Duration":2132867,"SoundDuration":2132867,"Delta":100961932},{"NoteNumber":62,"Velocity":69,"Duration":1363636,"SoundDuration":1363636,"Delta":101731162},{"NoteNumber":46,"Velocity":55,"Duration":1363636,"SoundDuration":1363636,"Delta":101731162},{"NoteNumber":60,"Velocity":74,"Duration":1363636,"SoundDuration":1363636,"Delta":103094799},{"NoteNumber":40,"Velocity":50,"Duration":1363636,"SoundDuration":1363636,"Delta":103094799},{"NoteNumber":48,"Velocity":50,"Duration":1363636,"SoundDuration":1363636,"Delta":103094799},{"NoteNumber":55,"Velocity":61,"Duration":1363636,"SoundDuration":1363636,"Delta":103094799},{"NoteNumber":62,"Velocity":55,"Duration":348837,"SoundDuration":348837,"Delta":104458435},{"NoteNumber":36,"Velocity":26,"Duration":697674,"SoundDuration":697674,"Delta":104458435},{"NoteNumber":48,"Velocity":26,"Duration":697674,"SoundDuration":697674,"Delta":104458435},{"NoteNumber":52,"Velocity":37,"Duration":697674,"SoundDuration":697674,"Delta":104458435},{"NoteNumber":58,"Velocity":50,"Duration":348837,"SoundDuration":348837,"Delta":104807273},{"NoteNumber":53,"Velocity":44,"Duration":714285,"SoundDuration":714285,"Delta":105156110},{"NoteNumber":57,"Velocity":44,"Duration":714285,"SoundDuration":714285,"Delta":105156110},{"NoteNumber":41,"Velocity":29,"Duration":2077922,"SoundDuration":2077922,"Delta":105156110},{"NoteNumber":48,"Velocity":38,"Duration":2077922,"SoundDuration":2077922,"Delta":105156110},{"NoteNumber":68,"Velocity":48,"Duration":625000,"SoundDuration":625000,"Delta":105870396},{"NoteNumber":69,"Velocity":48,"Duration":625000,"SoundDuration":625000,"Delta":106552214},{"NoteNumber":71,"Velocity":49,"Duration":625000,"SoundDuration":625000,"Delta":107234032},{"NoteNumber":56,"Velocity":35,"Duration":625000,"SoundDuration":625000,"Delta":107234032},{"NoteNumber":72,"Velocity":49,"Duration":611111,"SoundDuration":611111,"Delta":107915850},{"NoteNumber":57,"Velocity":38,"Duration":611111,"SoundDuration":611111,"Delta":107915850},{"NoteNumber":80,"Velocity":54,"Duration":611111,"SoundDuration":611111,"Delta":108582517},{"NoteNumber":59,"Velocity":40,"Duration":611111,"SoundDuration":611111,"Delta":108582517},{"NoteNumber":81,"Velocity":55,"Duration":611111,"SoundDuration":611111,"Delta":109249184},{"NoteNumber":60,"Velocity":47,"Duration":611111,"SoundDuration":611111,"Delta":109249184},{"NoteNumber":83,"Velocity":56,"Duration":611111,"SoundDuration":611111,"Delta":109915851},{"NoteNumber":44,"Velocity":41,"Duration":611111,"SoundDuration":611111,"Delta":109915851},{"NoteNumber":84,"Velocity":57,"Duration":611111,"SoundDuration":611111,"Delta":110582517},{"NoteNumber":45,"Velocity":50,"Duration":611111,"SoundDuration":611111,"Delta":110582517},{"NoteNumber":47,"Velocity":51,"Duration":611111,"SoundDuration":611111,"Delta":111249184},{"NoteNumber":72,"Velocity":61,"Duration":1000000,"SoundDuration":1000000,"Delta":111915851},{"NoteNumber":48,"Velocity":56,"Duration":611111,"SoundDuration":611111,"Delta":111915851},{"NoteNumber":46,"Velocity":51,"Duration":611111,"SoundDuration":611111,"Delta":112582518},{"NoteNumber":72,"Velocity":61,"Duration":333333,"SoundDuration":333333,"Delta":112915851},{"NoteNumber":65,"Velocity":68,"Duration":2727272,"SoundDuration":2727272,"Delta":113249184},{"NoteNumber":45,"Velocity":56,"Duration":1363636,"SoundDuration":1363636,"Delta":113249184},{"NoteNumber":77,"Velocity":68,"Duration":1022727,"SoundDuration":1022727,"Delta":114612821},{"NoteNumber":60,"Velocity":54,"Duration":1363636,"SoundDuration":1363636,"Delta":114612821},{"NoteNumber":57,"Velocity":45,"Duration":1363636,"SoundDuration":1363636,"Delta":114612821},{"NoteNumber":77,"Velocity":59,"Duration":340909,"SoundDuration":340909,"Delta":115635548},{"NoteNumber":67,"Velocity":58,"Duration":2667984,"SoundDuration":2667984,"Delta":115976457},{"NoteNumber":76,"Velocity":69,"Duration":1304348,"SoundDuration":1304348,"Delta":115976457},{"NoteNumber":60,"Velocity":60,"Duration":2667984,"SoundDuration":2667984,"Delta":115976457},{"NoteNumber":58,"Velocity":51,"Duration":1304348,"SoundDuration":1304348,"Delta":115976457},{"NoteNumber":79,"Velocity":66,"Duration":1363636,"SoundDuration":1363636,"Delta":117280805},{"NoteNumber":52,"Velocity":46,"Duration":1363636,"SoundDuration":1363636,"Delta":117280805},{"NoteNumber":64,"Velocity":53,"Duration":1477272,"SoundDuration":1477272,"Delta":118644442},{"NoteNumber":70,"Velocity":63,"Duration":977272,"SoundDuration":977272,"Delta":118644442},{"NoteNumber":48,"Velocity":46,"Duration":1477272,"SoundDuration":1477272,"Delta":118644442},{"NoteNumber":55,"Velocity":55,"Duration":1477272,"SoundDuration":1477272,"Delta":118644442},{"NoteNumber":70,"Velocity":59,"Duration":189393,"SoundDuration":189393,"Delta":119667169},{"NoteNumber":70,"Velocity":56,"Duration":189393,"SoundDuration":189393,"Delta":119894442},{"NoteNumber":65,"Velocity":43,"Duration":1363636,"SoundDuration":1363636,"Delta":120121715},{"NoteNumber":69,"Velocity":52,"Duration":340909,"SoundDuration":340909,"Delta":120121715},{"NoteNumber":53,"Velocity":45,"Duration":1363636,"SoundDuration":1363636,"Delta":120121715},{"NoteNumber":57,"Velocity":53,"Duration":1363636,"SoundDuration":1363636,"Delta":120121715},{"NoteNumber":68,"Velocity":51,"Duration":340909,"SoundDuration":340909,"Delta":120462624},{"NoteNumber":69,"Velocity":51,"Duration":340909,"SoundDuration":340909,"Delta":120803533},{"NoteNumber":72,"Velocity":47,"Duration":340909,"SoundDuration":340909,"Delta":121144442},{"NoteNumber":65,"Velocity":52,"Duration":2790698,"SoundDuration":2790698,"Delta":121485351},{"NoteNumber":77,"Velocity":62,"Duration":1046511,"SoundDuration":1046511,"Delta":122880700},{"NoteNumber":60,"Velocity":54,"Duration":1395349,"SoundDuration":1395349,"Delta":122880700},{"NoteNumber":57,"Velocity":45,"Duration":1395349,"SoundDuration":1395349,"Delta":122880700},{"NoteNumber":77,"Velocity":54,"Duration":348837,"SoundDuration":348837,"Delta":123927212},{"NoteNumber":67,"Velocity":58,"Duration":2792208,"SoundDuration":2792208,"Delta":124276049},{"NoteNumber":76,"Velocity":69,"Duration":1363636,"SoundDuration":1363636,"Delta":124276049},{"NoteNumber":60,"Velocity":60,"Duration":2792208,"SoundDuration":2792208,"Delta":124276049},{"NoteNumber":58,"Velocity":51,"Duration":1363636,"SoundDuration":1363636,"Delta":124276049},{"NoteNumber":79,"Velocity":60,"Duration":1428571,"SoundDuration":1428571,"Delta":125639686},{"NoteNumber":52,"Velocity":46,"Duration":1428571,"SoundDuration":1428571,"Delta":125639686},{"NoteNumber":64,"Velocity":49,"Duration":1428571,"SoundDuration":1428571,"Delta":127068257},{"NoteNumber":70,"Velocity":58,"Duration":1071428,"SoundDuration":1071428,"Delta":127068257},{"NoteNumber":48,"Velocity":46,"Duration":1428571,"SoundDuration":1428571,"Delta":127068257},{"NoteNumber":55,"Velocity":55,"Duration":1428571,"SoundDuration":1428571,"Delta":127068257},{"NoteNumber":70,"Velocity":49,"Duration":357142,"SoundDuration":357142,"Delta":128139686},{"NoteNumber":65,"Velocity":49,"Duration":1428571,"SoundDuration":1428571,"Delta":128496829},{"NoteNumber":69,"Velocity":58,"Duration":1428571,"SoundDuration":1428571,"Delta":128496829},{"NoteNumber":50,"Velocity":45,"Duration":1428571,"SoundDuration":1428571,"Delta":128496829},{"NoteNumber":53,"Velocity":53,"Duration":1428571,"SoundDuration":1428571,"Delta":128496829},{"NoteNumber":34,"Velocity":38,"Duration":1428571,"SoundDuration":1428571,"Delta":129925400},{"NoteNumber":46,"Velocity":45,"Duration":1428571,"SoundDuration":1428571,"Delta":129925400},{"NoteNumber":58,"Velocity":40,"Duration":1500000,"SoundDuration":1500000,"Delta":131353972},{"NoteNumber":62,"Velocity":40,"Duration":1500000,"SoundDuration":1500000,"Delta":131353972},{"NoteNumber":67,"Velocity":48,"Duration":1500000,"SoundDuration":1500000,"Delta":131353972},{"NoteNumber":36,"Velocity":35,"Duration":1428571,"SoundDuration":1428571,"Delta":134353972},{"NoteNumber":48,"Velocity":42,"Duration":1428571,"SoundDuration":1428571,"Delta":134353972},{"NoteNumber":55,"Velocity":38,"Duration":1500000,"SoundDuration":1500000,"Delta":135782543},{"NoteNumber":58,"Velocity":38,"Duration":1500000,"SoundDuration":1500000,"Delta":135782543},{"NoteNumber":64,"Velocity":45,"Duration":1500000,"SoundDuration":1500000,"Delta":135782543},{"NoteNumber":29,"Velocity":29,"Duration":4543994,"SoundDuration":4543994,"Delta":138782543},{"NoteNumber":41,"Velocity":35,"Duration":4543994,"SoundDuration":4543994,"Delta":138782543},{"NoteNumber":48,"Velocity":41,"Duration":1125000,"SoundDuration":1125000,"Delta":140282543},{"NoteNumber":48,"Velocity":41,"Duration":418994,"SoundDuration":418994,"Delta":141407543},{"NoteNumber":57,"Velocity":47,"Duration":1500000,"SoundDuration":1500000,"Delta":141826538},{"NoteNumber":29,"Velocity":31,"Duration":3076807,"SoundDuration":3076807,"Delta":143326538},{"NoteNumber":41,"Velocity":38,"Duration":3451807,"SoundDuration":3451807,"Delta":143326538},{"NoteNumber":57,"Velocity":40,"Duration":1125000,"SoundDuration":1125000,"Delta":144826538},{"NoteNumber":57,"Velocity":40,"Duration":451807,"SoundDuration":451807,"Delta":145951538},{"NoteNumber":63,"Velocity":50,"Duration":1488823,"SoundDuration":1488823,"Delta":146403345},{"NoteNumber":45,"Velocity":39,"Duration":360576,"SoundDuration":360576,"Delta":146778345},{"NoteNumber":48,"Velocity":44,"Duration":360576,"SoundDuration":360576,"Delta":147138922},{"NoteNumber":45,"Velocity":38,"Duration":392670,"SoundDuration":392670,"Delta":147499499},{"NoteNumber":64,"Velocity":47,"Duration":1425000,"SoundDuration":1425000,"Delta":147892169},{"NoteNumber":40,"Velocity":41,"Duration":1425000,"SoundDuration":1425000,"Delta":147892169},{"NoteNumber":59,"Velocity":36,"Duration":1446700,"SoundDuration":1446700,"Delta":149392169},{"NoteNumber":56,"Velocity":36,"Duration":1446700,"SoundDuration":1446700,"Delta":149392169},{"NoteNumber":64,"Velocity":36,"Duration":1446700,"SoundDuration":1446700,"Delta":149392169},{"NoteNumber":40,"Velocity":26,"Duration":1446700,"SoundDuration":1446700,"Delta":149392169},{"NoteNumber":52,"Velocity":31,"Duration":1446700,"SoundDuration":1446700,"Delta":149392169},{"NoteNumber":59,"Velocity":30,"Duration":1446700,"SoundDuration":1446700,"Delta":150915011},{"NoteNumber":56,"Velocity":25,"Duration":1446700,"SoundDuration":1446700,"Delta":150915011},{"NoteNumber":64,"Velocity":30,"Duration":1446700,"SoundDuration":1446700,"Delta":150915011},{"NoteNumber":40,"Velocity":21,"Duration":1446700,"SoundDuration":1446700,"Delta":150915011},{"NoteNumber":52,"Velocity":25,"Duration":1446700,"SoundDuration":1446700,"Delta":150915011},{"NoteNumber":56,"Velocity":24,"Duration":1446700,"SoundDuration":1446700,"Delta":152437854},{"NoteNumber":59,"Velocity":28,"Duration":1446700,"SoundDuration":1446700,"Delta":152437854},{"NoteNumber":64,"Velocity":28,"Duration":1446700,"SoundDuration":1446700,"Delta":152437854},{"NoteNumber":40,"Velocity":20,"Duration":3022842,"SoundDuration":3022842,"Delta":152437854},{"NoteNumber":52,"Velocity":23,"Duration":3022842,"SoundDuration":3022842,"Delta":152437854},{"NoteNumber":55,"Velocity":58,"Duration":1425000,"SoundDuration":1425000,"Delta":153960696},{"NoteNumber":55,"Velocity":63,"Duration":1532257,"SoundDuration":1532257,"Delta":155460696},{"NoteNumber":55,"Velocity":46,"Duration":4530405,"SoundDuration":4530405,"Delta":157073599},{"NoteNumber":40,"Velocity":27,"Duration":4530405,"SoundDuration":4530405,"Delta":157073599},{"NoteNumber":52,"Velocity":34,"Duration":4530405,"SoundDuration":4530405,"Delta":157073599},{"NoteNumber":59,"Velocity":41,"Duration":1125000,"SoundDuration":1125000,"Delta":158573599},{"NoteNumber":59,"Velocity":41,"Duration":405405,"SoundDuration":405405,"Delta":159698599},{"NoteNumber":67,"Velocity":47,"Duration":1500000,"SoundDuration":1500000,"Delta":160104005},{"NoteNumber":40,"Velocity":31,"Duration":4525231,"SoundDuration":4525231,"Delta":161604005},{"NoteNumber":52,"Velocity":38,"Duration":3396825,"SoundDuration":3396825,"Delta":161604005},{"NoteNumber":61,"Velocity":40,"Duration":1125000,"SoundDuration":1125000,"Delta":163104005},{"NoteNumber":61,"Velocity":40,"Duration":396825,"SoundDuration":396825,"Delta":164229005},{"NoteNumber":70,"Velocity":46,"Duration":1503406,"SoundDuration":1503406,"Delta":164625830},{"NoteNumber":52,"Velocity":38,"Duration":358851,"SoundDuration":358851,"Delta":165000830},{"NoteNumber":55,"Velocity":42,"Duration":376884,"SoundDuration":376884,"Delta":165359682},{"NoteNumber":52,"Velocity":38,"Duration":392670,"SoundDuration":392670,"Delta":165736566},{"NoteNumber":71,"Velocity":47,"Duration":1492146,"SoundDuration":1492146,"Delta":166129236},{"NoteNumber":51,"Velocity":46,"Duration":1492146,"SoundDuration":1492146,"Delta":166129236},{"NoteNumber":66,"Velocity":32,"Duration":1492146,"SoundDuration":1492146,"Delta":167699917},{"NoteNumber":59,"Velocity":36,"Duration":1492146,"SoundDuration":1492146,"Delta":167699917},{"NoteNumber":71,"Velocity":36,"Duration":1492146,"SoundDuration":1492146,"Delta":167699917},{"NoteNumber":47,"Velocity":26,"Duration":1492146,"SoundDuration":1492146,"Delta":167699917},{"NoteNumber":39,"Velocity":26,"Duration":1492146,"SoundDuration":1492146,"Delta":167699917},{"NoteNumber":51,"Velocity":31,"Duration":1492146,"SoundDuration":1492146,"Delta":167699917},{"NoteNumber":66,"Velocity":32,"Duration":1492146,"SoundDuration":1492146,"Delta":169270597},{"NoteNumber":59,"Velocity":27,"Duration":1492146,"SoundDuration":1492146,"Delta":169270597},{"NoteNumber":71,"Velocity":32,"Duration":1492146,"SoundDuration":1492146,"Delta":169270597},{"NoteNumber":47,"Velocity":23,"Duration":1492146,"SoundDuration":1492146,"Delta":169270597},{"NoteNumber":39,"Velocity":23,"Duration":1492146,"SoundDuration":1492146,"Delta":169270597},{"NoteNumber":51,"Velocity":27,"Duration":1492146,"SoundDuration":1492146,"Delta":169270597},{"NoteNumber":59,"Velocity":27,"Duration":1492146,"SoundDuration":1492146,"Delta":170841278},{"NoteNumber":66,"Velocity":32,"Duration":1492146,"SoundDuration":1492146,"Delta":170841278},{"NoteNumber":71,"Velocity":32,"Duration":1492146,"SoundDuration":1492146,"Delta":170841278},{"NoteNumber":47,"Velocity":23,"Duration":1570680,"SoundDuration":1570680,"Delta":170841278},{"NoteNumber":39,"Velocity":23,"Duration":1570680,"SoundDuration":1570680,"Delta":170841278},{"NoteNumber":51,"Velocity":27,"Duration":1570680,"SoundDuration":1570680,"Delta":170841278},{"NoteNumber":50,"Velocity":45,"Duration":1425000,"SoundDuration":1425000,"Delta":172411958},{"NoteNumber":53,"Velocity":55,"Duration":1425000,"SoundDuration":1425000,"Delta":172411958},{"NoteNumber":50,"Velocity":49,"Duration":1548913,"SoundDuration":1548913,"Delta":173911958},{"NoteNumber":53,"Velocity":60,"Duration":1548913,"SoundDuration":1548913,"Delta":173911958},{"NoteNumber":53,"Velocity":37,"Duration":2832849,"SoundDuration":2832849,"Delta":175542393},{"NoteNumber":50,"Velocity":30,"Duration":3178471,"SoundDuration":3178471,"Delta":175542393},{"NoteNumber":65,"Velocity":46,"Duration":1036866,"SoundDuration":1036866,"Delta":176977800},{"NoteNumber":65,"Velocity":48,"Duration":360576,"SoundDuration":360576,"Delta":178014666},{"NoteNumber":71,"Velocity":54,"Duration":2754176,"SoundDuration":2754176,"Delta":178375243},{"NoteNumber":53,"Velocity":40,"Duration":334821,"SoundDuration":334821,"Delta":178720865},{"NoteNumber":56,"Velocity":45,"Duration":345622,"SoundDuration":345622,"Delta":179055686},{"NoteNumber":53,"Velocity":41,"Duration":345622,"SoundDuration":345622,"Delta":179401308},{"NoteNumber":49,"Velocity":52,"Duration":3123828,"SoundDuration":3123828,"Delta":179746931},{"NoteNumber":71,"Velocity":50,"Duration":1036866,"SoundDuration":1036866,"Delta":181129419},{"NoteNumber":71,"Velocity":54,"Duration":358851,"SoundDuration":358851,"Delta":182166285},{"NoteNumber":77,"Velocity":58,"Duration":2746249,"SoundDuration":2746249,"Delta":182525137},{"NoteNumber":53,"Velocity":46,"Duration":334821,"SoundDuration":334821,"Delta":182870759},{"NoteNumber":56,"Velocity":50,"Duration":345622,"SoundDuration":345622,"Delta":183205581},{"NoteNumber":53,"Velocity":46,"Duration":344036,"SoundDuration":344036,"Delta":183551203},{"NoteNumber":48,"Velocity":56,"Duration":3111145,"SoundDuration":3111145,"Delta":183895239},{"NoteNumber":77,"Velocity":51,"Duration":1032110,"SoundDuration":1032110,"Delta":185271386},{"NoteNumber":77,"Velocity":53,"Duration":358851,"SoundDuration":358851,"Delta":186303497},{"NoteNumber":80,"Velocity":66,"Duration":2730689,"SoundDuration":2730689,"Delta":186662348},{"NoteNumber":53,"Velocity":51,"Duration":331858,"SoundDuration":331858,"Delta":187006385},{"NoteNumber":56,"Velocity":55,"Duration":342465,"SoundDuration":342465,"Delta":187338243},{"NoteNumber":53,"Velocity":50,"Duration":342465,"SoundDuration":342465,"Delta":187680709},{"NoteNumber":47,"Velocity":62,"Duration":3093769,"SoundDuration":3093769,"Delta":188023175},{"NoteNumber":77,"Velocity":61,"Duration":1027397,"SoundDuration":1027397,"Delta":189393038},{"NoteNumber":77,"Velocity":61,"Duration":357142,"SoundDuration":357142,"Delta":190420435},{"NoteNumber":86,"Velocity":75,"Duration":2713768,"SoundDuration":2713768,"Delta":190777578},{"NoteNumber":53,"Velocity":58,"Duration":328947,"SoundDuration":328947,"Delta":191116945},{"NoteNumber":56,"Velocity":62,"Duration":340909,"SoundDuration":340909,"Delta":191445892},{"NoteNumber":53,"Velocity":56,"Duration":340909,"SoundDuration":340909,"Delta":191786801},{"NoteNumber":44,"Velocity":70,"Duration":3084778,"SoundDuration":3084778,"Delta":192127710},{"NoteNumber":77,"Velocity":70,"Duration":1022727,"SoundDuration":1022727,"Delta":193491347},{"NoteNumber":77,"Velocity":70,"Duration":360576,"SoundDuration":360576,"Delta":194514074},{"NoteNumber":89,"Velocity":82,"Duration":2706242,"SoundDuration":2706242,"Delta":194874651},{"NoteNumber":53,"Velocity":68,"Duration":331858,"SoundDuration":331858,"Delta":195212489},{"NoteNumber":59,"Velocity":73,"Duration":331858,"SoundDuration":331858,"Delta":195544347},{"NoteNumber":53,"Velocity":68,"Duration":347222,"SoundDuration":347222,"Delta":195876206},{"NoteNumber":43,"Velocity":82,"Duration":3075508,"SoundDuration":3075508,"Delta":196223428},{"NoteNumber":77,"Velocity":73,"Duration":1018099,"SoundDuration":1018099,"Delta":197580894},{"NoteNumber":77,"Velocity":66,"Duration":360576,"SoundDuration":360576,"Delta":198598993},{"NoteNumber":89,"Velocity":88,"Duration":2705962,"SoundDuration":2705962,"Delta":198959570},{"NoteNumber":53,"Velocity":76,"Duration":330396,"SoundDuration":330396,"Delta":199298937},{"NoteNumber":59,"Velocity":80,"Duration":339366,"SoundDuration":339366,"Delta":199629333},{"NoteNumber":53,"Velocity":76,"Duration":339366,"SoundDuration":339366,"Delta":199968700},{"NoteNumber":44,"Velocity":92,"Duration":3073783,"SoundDuration":3073783,"Delta":200308066},{"NoteNumber":77,"Velocity":72,"Duration":1018099,"SoundDuration":1018099,"Delta":201665532},{"NoteNumber":77,"Velocity":74,"Duration":358851,"SoundDuration":358851,"Delta":202683632},{"NoteNumber":89,"Velocity":90,"Duration":2370022,"SoundDuration":2370022,"Delta":203042483},{"NoteNumber":53,"Velocity":75,"Duration":330396,"SoundDuration":330396,"Delta":203381850},{"NoteNumber":59,"Velocity":82,"Duration":330396,"SoundDuration":330396,"Delta":203712246},{"NoteNumber":53,"Velocity":74,"Duration":342465,"SoundDuration":342465,"Delta":204042643},{"NoteNumber":44,"Velocity":90,"Duration":342465,"SoundDuration":342465,"Delta":204385109},{"NoteNumber":53,"Velocity":72,"Duration":342465,"SoundDuration":342465,"Delta":204727574},{"NoteNumber":59,"Velocity":81,"Duration":342465,"SoundDuration":342465,"Delta":205070040},{"NoteNumber":77,"Velocity":79,"Duration":362318,"SoundDuration":362318,"Delta":205412506},{"NoteNumber":53,"Velocity":64,"Duration":362318,"SoundDuration":362318,"Delta":205412506},{"NoteNumber":89,"Velocity":93,"Duration":342465,"SoundDuration":342465,"Delta":205774825},{"NoteNumber":44,"Velocity":71,"Duration":342465,"SoundDuration":342465,"Delta":205774825},{"NoteNumber":53,"Velocity":52,"Duration":342465,"SoundDuration":342465,"Delta":206117290},{"NoteNumber":59,"Velocity":54,"Duration":342465,"SoundDuration":342465,"Delta":206459756},{"NoteNumber":74,"Velocity":74,"Duration":360576,"SoundDuration":360576,"Delta":206802222},{"NoteNumber":53,"Velocity":51,"Duration":360576,"SoundDuration":360576,"Delta":206802222},{"NoteNumber":86,"Velocity":89,"Duration":342465,"SoundDuration":342465,"Delta":207162799},{"NoteNumber":44,"Velocity":57,"Duration":342465,"SoundDuration":342465,"Delta":207162799},{"NoteNumber":53,"Velocity":49,"Duration":342465,"SoundDuration":342465,"Delta":207505265},{"NoteNumber":59,"Velocity":52,"Duration":342465,"SoundDuration":342465,"Delta":207847730},{"NoteNumber":71,"Velocity":64,"Duration":357142,"SoundDuration":357142,"Delta":208190196},{"NoteNumber":53,"Velocity":48,"Duration":357142,"SoundDuration":357142,"Delta":208190196},{"NoteNumber":83,"Velocity":75,"Duration":342465,"SoundDuration":342465,"Delta":208547339},{"NoteNumber":43,"Velocity":55,"Duration":342465,"SoundDuration":342465,"Delta":208547339},{"NoteNumber":53,"Velocity":47,"Duration":342465,"SoundDuration":342465,"Delta":208889805},{"NoteNumber":59,"Velocity":50,"Duration":342465,"SoundDuration":342465,"Delta":209232270},{"NoteNumber":65,"Velocity":63,"Duration":353773,"SoundDuration":353773,"Delta":209574736},{"NoteNumber":53,"Velocity":46,"Duration":353773,"SoundDuration":353773,"Delta":209574736},{"NoteNumber":77,"Velocity":72,"Duration":342465,"SoundDuration":342465,"Delta":209928510},{"NoteNumber":43,"Velocity":53,"Duration":342465,"SoundDuration":342465,"Delta":209928510},{"NoteNumber":50,"Velocity":45,"Duration":342465,"SoundDuration":342465,"Delta":210270976},{"NoteNumber":53,"Velocity":48,"Duration":342465,"SoundDuration":342465,"Delta":210613441},{"NoteNumber":62,"Velocity":52,"Duration":358851,"SoundDuration":358851,"Delta":210955907},{"NoteNumber":50,"Velocity":44,"Duration":358851,"SoundDuration":358851,"Delta":210955907},{"NoteNumber":74,"Velocity":60,"Duration":347222,"SoundDuration":347222,"Delta":211314759},{"NoteNumber":43,"Velocity":51,"Duration":347222,"SoundDuration":347222,"Delta":211314759},{"NoteNumber":47,"Velocity":42,"Duration":347222,"SoundDuration":347222,"Delta":211661981},{"NoteNumber":50,"Velocity":44,"Duration":347222,"SoundDuration":347222,"Delta":212009203},{"NoteNumber":59,"Velocity":47,"Duration":364077,"SoundDuration":364077,"Delta":212356425},{"NoteNumber":47,"Velocity":40,"Duration":364077,"SoundDuration":364077,"Delta":212356425},{"NoteNumber":71,"Velocity":55,"Duration":355450,"SoundDuration":355450,"Delta":212720503},{"NoteNumber":43,"Velocity":45,"Duration":355450,"SoundDuration":355450,"Delta":212720503},{"NoteNumber":47,"Velocity":37,"Duration":355450,"SoundDuration":355450,"Delta":213075953},{"NoteNumber":50,"Velocity":39,"Duration":355450,"SoundDuration":355450,"Delta":213431404},{"NoteNumber":53,"Velocity":42,"Duration":371287,"SoundDuration":371287,"Delta":213786854},{"NoteNumber":47,"Velocity":35,"Duration":371287,"SoundDuration":371287,"Delta":213786854},{"NoteNumber":65,"Velocity":48,"Duration":362318,"SoundDuration":362318,"Delta":214158141},{"NoteNumber":43,"Velocity":42,"Duration":362318,"SoundDuration":362318,"Delta":214158141},{"NoteNumber":47,"Velocity":33,"Duration":362318,"SoundDuration":362318,"Delta":214520460},{"NoteNumber":50,"Velocity":36,"Duration":350241,"SoundDuration":350241,"Delta":214882779},{"NoteNumber":50,"Velocity":38,"Duration":380710,"SoundDuration":380710,"Delta":215245098},{"NoteNumber":47,"Velocity":32,"Duration":380710,"SoundDuration":380710,"Delta":215245098},{"NoteNumber":62,"Velocity":42,"Duration":369458,"SoundDuration":369458,"Delta":215625808},{"NoteNumber":43,"Velocity":37,"Duration":369458,"SoundDuration":369458,"Delta":215625808},{"NoteNumber":38,"Velocity":30,"Duration":369458,"SoundDuration":369458,"Delta":215995266},{"NoteNumber":35,"Velocity":31,"Duration":369458,"SoundDuration":369458,"Delta":216364724},{"NoteNumber":47,"Velocity":32,"Duration":388600,"SoundDuration":388600,"Delta":216734183},{"NoteNumber":38,"Velocity":28,"Duration":388600,"SoundDuration":388600,"Delta":216734183},{"NoteNumber":59,"Velocity":40,"Duration":1454081,"SoundDuration":1454081,"Delta":217122784},{"NoteNumber":31,"Velocity":32,"Duration":1454081,"SoundDuration":1454081,"Delta":217122784},{"NoteNumber":47,"Velocity":25,"Duration":1454081,"SoundDuration":1454081,"Delta":218653396},{"NoteNumber":50,"Velocity":25,"Duration":1454081,"SoundDuration":1454081,"Delta":218653396},{"NoteNumber":53,"Velocity":30,"Duration":1454081,"SoundDuration":1454081,"Delta":218653396},{"NoteNumber":43,"Velocity":25,"Duration":1454081,"SoundDuration":1454081,"Delta":218653396},{"NoteNumber":31,"Velocity":21,"Duration":1454081,"SoundDuration":1454081,"Delta":218653396},{"NoteNumber":47,"Velocity":23,"Duration":1656976,"SoundDuration":1656976,"Delta":220184008},{"NoteNumber":50,"Velocity":23,"Duration":1656976,"SoundDuration":1656976,"Delta":220184008},{"NoteNumber":53,"Velocity":28,"Duration":1656976,"SoundDuration":1656976,"Delta":220184008},{"NoteNumber":43,"Velocity":25,"Duration":1656976,"SoundDuration":1656976,"Delta":220184008},{"NoteNumber":31,"Velocity":21,"Duration":1656976,"SoundDuration":1656976,"Delta":220184008},{"NoteNumber":47,"Velocity":23,"Duration":3076922,"SoundDuration":3076922,"Delta":221928194},{"NoteNumber":50,"Velocity":23,"Duration":3076922,"SoundDuration":3076922,"Delta":221928194},{"NoteNumber":53,"Velocity":28,"Duration":3076922,"SoundDuration":3076922,"Delta":221928194},{"NoteNumber":32,"Velocity":21,"Duration":3076922,"SoundDuration":3076922,"Delta":221928194},{"NoteNumber":44,"Velocity":25,"Duration":3076922,"SoundDuration":3076922,"Delta":221928194},{"NoteNumber":77,"Velocity":40,"Duration":1538461,"SoundDuration":1538461,"Delta":225005117},{"NoteNumber":76,"Velocity":40,"Duration":1538461,"SoundDuration":1538461,"Delta":226543578},{"NoteNumber":48,"Velocity":24,"Duration":1461538,"SoundDuration":1461538,"Delta":228082040},{"NoteNumber":52,"Velocity":28,"Duration":1461538,"SoundDuration":1461538,"Delta":228082040},{"NoteNumber":33,"Velocity":18,"Duration":1461538,"SoundDuration":1461538,"Delta":228082040},{"NoteNumber":45,"Velocity":22,"Duration":1461538,"SoundDuration":1461538,"Delta":228082040},{"NoteNumber":45,"Velocity":21,"Duration":1461538,"SoundDuration":1461538,"Delta":229620501},{"NoteNumber":33,"Velocity":17,"Duration":1461538,"SoundDuration":1461538,"Delta":229620501},{"NoteNumber":52,"Velocity":26,"Duration":1461538,"SoundDuration":1461538,"Delta":229620501},{"NoteNumber":48,"Velocity":22,"Duration":1461538,"SoundDuration":1461538,"Delta":229620501},{"NoteNumber":52,"Velocity":25,"Duration":3076922,"SoundDuration":3076922,"Delta":231158963},{"NoteNumber":48,"Velocity":21,"Duration":3076922,"SoundDuration":3076922,"Delta":231158963},{"NoteNumber":33,"Velocity":17,"Duration":3076922,"SoundDuration":3076922,"Delta":231158963},{"NoteNumber":45,"Velocity":20,"Duration":3076922,"SoundDuration":3076922,"Delta":231158963},{"NoteNumber":76,"Velocity":40,"Duration":1538461,"SoundDuration":1538461,"Delta":234235886},{"NoteNumber":74,"Velocity":40,"Duration":1538461,"SoundDuration":1538461,"Delta":235774347},{"NoteNumber":29,"Velocity":21,"Duration":1538461,"SoundDuration":1538461,"Delta":235774347},{"NoteNumber":41,"Velocity":25,"Duration":1538461,"SoundDuration":1538461,"Delta":235774347},{"NoteNumber":50,"Velocity":20,"Duration":1538461,"SoundDuration":1538461,"Delta":237312809},{"NoteNumber":53,"Velocity":25,"Duration":1538461,"SoundDuration":1538461,"Delta":237312809},{"NoteNumber":57,"Velocity":30,"Duration":1538461,"SoundDuration":1538461,"Delta":237312809},{"NoteNumber":74,"Velocity":40,"Duration":1578947,"SoundDuration":1578947,"Delta":238851270},{"NoteNumber":79,"Velocity":40,"Duration":1538461,"SoundDuration":1538461,"Delta":240430218},{"NoteNumber":31,"Velocity":21,"Duration":1538461,"SoundDuration":1538461,"Delta":240430218},{"NoteNumber":43,"Velocity":25,"Duration":1538461,"SoundDuration":1538461,"Delta":240430218},{"NoteNumber":47,"Velocity":21,"Duration":1675977,"SoundDuration":1675977,"Delta":241968679},{"NoteNumber":50,"Velocity":25,"Duration":1675977,"SoundDuration":1675977,"Delta":241968679},{"NoteNumber":55,"Velocity":30,"Duration":1675977,"SoundDuration":1675977,"Delta":241968679},{"NoteNumber":79,"Velocity":71,"Duration":2521008,"SoundDuration":2521008,"Delta":243644657}],"license":{"name":"Creative Commons Attribution-ShareAlike 3.0 Germany","url":"http://creativecommons.org/licenses/by-sa/3.0/de/deed.en","text":"The MIDI files in this folder were downloaded from http://www.piano-midi.de and are licensed under the Creative Commons Attribution-ShareAlike 3.0 Germany license by Bernd Krueger.\n\nThe MIDI, audio(MP3, OGG) and video files of Bernd Krueger are licensed under the cc-by-sa Germany License . This means, that you can use and adapt the files, as long as you attribute to the copyright holder Name: Bernd Krueger Source: http://www.piano-midi.de The distribution or public playback of the files is only allowed under identical license conditions . The scores are open source.","attribution":"Bernd Krueger","attributionUrl":"http://www.piano-midi.de"}}