{"title":"Piano Sonata No. 27 in E minor, Op. 90: I. Mit Lebhaftigkeit und durchaus mit Empfindung und Ausdruck","artist":"Beethoven","durationMs":292131,"midiSha256":"1fce98552eb3baa54bc0b883d20635d3bb641194baf754a2e496b52417fcc775","midiObject":[{"NoteNumber":67,"Velocity":78,"Duration":102880,"SoundDuration":102880,"Delta":0},{"NoteNumber":64,"Velocity":66,"Duration":102880,"SoundDuration":102880,"Delta":0},{"NoteNumber":59,"Velocity":66,"Duration":102880,"SoundDuration":102880,"Delta":0},{"NoteNumber":55,"Velocity":66,"Duration":102880,"SoundDuration":102880,"Delta":0},{"NoteNumber":52,"Velocity":63,"Duration":102880,"SoundDuration":102880,"Delta":0},{"NoteNumber":40,"Velocity":53,"Duration":102880,"SoundDuration":102880,"Delta":0},{"NoteNumber":55,"Velocity":70,"Duration":801068,"SoundDuration":801068,"Delta":411523},{"NoteNumber":59,"Velocity":70,"Duration":801068,"SoundDuration":801068,"Delta":411523},{"NoteNumber":64,"Velocity":70,"Duration":801068,"SoundDuration":801068,"Delta":411523},{"NoteNumber":67,"Velocity":84,"Duration":600800,"SoundDuration":600800,"Delta":411523},{"NoteNumber":40,"Velocity":61,"Duration":801068,"SoundDuration":801068,"Delta":411523},{"NoteNumber":52,"Velocity":72,"Duration":801068,"SoundDuration":801068,"Delta":411523},{"NoteNumber":66,"Velocity":77,"Duration":200267,"SoundDuration":200267,"Delta":1012324},{"NoteNumber":64,"Velocity":68,"Duration":102529,"SoundDuration":102529,"Delta":1212591},{"NoteNumber":55,"Velocity":57,"Duration":102529,"SoundDuration":102529,"Delta":1212591},{"NoteNumber":52,"Velocity":63,"Duration":102529,"SoundDuration":102529,"Delta":1212591},{"NoteNumber":40,"Velocity":53,"Duration":102529,"SoundDuration":102529,"Delta":1212591},{"NoteNumber":57,"Velocity":70,"Duration":200267,"SoundDuration":200267,"Delta":1622707},{"NoteNumber":66,"Velocity":70,"Duration":200267,"SoundDuration":200267,"Delta":1622707},{"NoteNumber":69,"Velocity":84,"Duration":200267,"SoundDuration":200267,"Delta":1622707},{"NoteNumber":38,"Velocity":61,"Duration":200267,"SoundDuration":200267,"Delta":1622707},{"NoteNumber":50,"Velocity":72,"Duration":200267,"SoundDuration":200267,"Delta":1622707},{"NoteNumber":69,"Velocity":37,"Duration":400534,"SoundDuration":400534,"Delta":2423775},{"NoteNumber":66,"Velocity":31,"Duration":400534,"SoundDuration":400534,"Delta":2423775},{"NoteNumber":62,"Velocity":29,"Duration":400534,"SoundDuration":400534,"Delta":2423775},{"NoteNumber":66,"Velocity":37,"Duration":600800,"SoundDuration":600800,"Delta":2824309},{"NoteNumber":69,"Velocity":45,"Duration":600800,"SoundDuration":600800,"Delta":2824309},{"NoteNumber":60,"Velocity":30,"Duration":600800,"SoundDuration":600800,"Delta":2824309},{"NoteNumber":62,"Velocity":36,"Duration":600800,"SoundDuration":600800,"Delta":2824309},{"NoteNumber":67,"Velocity":40,"Duration":200267,"SoundDuration":200267,"Delta":3425110},{"NoteNumber":62,"Velocity":31,"Duration":200267,"SoundDuration":200267,"Delta":3425110},{"NoteNumber":59,"Velocity":26,"Duration":200267,"SoundDuration":200267,"Delta":3425110},{"NoteNumber":69,"Velocity":41,"Duration":308642,"SoundDuration":308642,"Delta":3625377},{"NoteNumber":66,"Velocity":35,"Duration":308642,"SoundDuration":308642,"Delta":3625377},{"NoteNumber":57,"Velocity":24,"Duration":308642,"SoundDuration":308642,"Delta":3625377},{"NoteNumber":60,"Velocity":28,"Duration":308642,"SoundDuration":308642,"Delta":3625377},{"NoteNumber":71,"Velocity":43,"Duration":300400,"SoundDuration":300400,"Delta":4036900},{"NoteNumber":67,"Velocity":36,"Duration":300400,"SoundDuration":300400,"Delta":4036900},{"NoteNumber":55,"Velocity":30,"Duration":300400,"SoundDuration":300400,"Delta":4036900},{"NoteNumber":59,"Velocity":36,"Duration":300400,"SoundDuration":300400,"Delta":4036900},{"NoteNumber":71,"Velocity":78,"Duration":101833,"SoundDuration":101833,"Delta":4837968},{"NoteNumber":67,"Velocity":66,"Duration":101833,"SoundDuration":101833,"Delta":4837968},{"NoteNumber":62,"Velocity":66,"Duration":101833,"SoundDuration":101833,"Delta":4837968},{"NoteNumber":59,"Velocity":66,"Duration":101833,"SoundDuration":101833,"Delta":4837968},{"NoteNumber":55,"Velocity":63,"Duration":101833,"SoundDuration":101833,"Delta":4837968},{"NoteNumber":43,"Velocity":53,"Duration":101833,"SoundDuration":101833,"Delta":4837968},{"NoteNumber":62,"Velocity":70,"Duration":801067,"SoundDuration":801067,"Delta":5245300},{"NoteNumber":59,"Velocity":70,"Duration":801067,"SoundDuration":801067,"Delta":5245300},{"NoteNumber":67,"Velocity":70,"Duration":801067,"SoundDuration":801067,"Delta":5245300},{"NoteNumber":71,"Velocity":84,"Duration":600800,"SoundDuration":600800,"Delta":5245300},{"NoteNumber":43,"Velocity":61,"Duration":801067,"SoundDuration":801067,"Delta":5245300},{"NoteNumber":55,"Velocity":72,"Duration":801067,"SoundDuration":801067,"Delta":5245300},{"NoteNumber":69,"Velocity":77,"Duration":200267,"SoundDuration":200267,"Delta":5846101},{"NoteNumber":67,"Velocity":68,"Duration":103591,"SoundDuration":103591,"Delta":6046368},{"NoteNumber":59,"Velocity":57,"Duration":103591,"SoundDuration":103591,"Delta":6046368},{"NoteNumber":43,"Velocity":63,"Duration":103591,"SoundDuration":103591,"Delta":6046368},{"NoteNumber":31,"Velocity":53,"Duration":103591,"SoundDuration":103591,"Delta":6046368},{"NoteNumber":61,"Velocity":70,"Duration":199601,"SoundDuration":199601,"Delta":6460733},{"NoteNumber":70,"Velocity":70,"Duration":199601,"SoundDuration":199601,"Delta":6460733},{"NoteNumber":73,"Velocity":84,"Duration":199601,"SoundDuration":199601,"Delta":6460733},{"NoteNumber":30,"Velocity":61,"Duration":199601,"SoundDuration":199601,"Delta":6460733},{"NoteNumber":42,"Velocity":72,"Duration":199601,"SoundDuration":199601,"Delta":6460733},{"NoteNumber":73,"Velocity":37,"Duration":399202,"SoundDuration":399202,"Delta":7259137},{"NoteNumber":70,"Velocity":31,"Duration":399202,"SoundDuration":399202,"Delta":7259137},{"NoteNumber":66,"Velocity":29,"Duration":399202,"SoundDuration":399202,"Delta":7259137},{"NoteNumber":70,"Velocity":37,"Duration":598803,"SoundDuration":598803,"Delta":7658339},{"NoteNumber":73,"Velocity":45,"Duration":598803,"SoundDuration":598803,"Delta":7658339},{"NoteNumber":64,"Velocity":30,"Duration":598803,"SoundDuration":598803,"Delta":7658339},{"NoteNumber":66,"Velocity":36,"Duration":598803,"SoundDuration":598803,"Delta":7658339},{"NoteNumber":71,"Velocity":40,"Duration":199600,"SoundDuration":199600,"Delta":8257142},{"NoteNumber":66,"Velocity":31,"Duration":199600,"SoundDuration":199600,"Delta":8257142},{"NoteNumber":62,"Velocity":26,"Duration":199600,"SoundDuration":199600,"Delta":8257142},{"NoteNumber":73,"Velocity":41,"Duration":303438,"SoundDuration":303438,"Delta":8456743},{"NoteNumber":70,"Velocity":35,"Duration":303438,"SoundDuration":303438,"Delta":8456743},{"NoteNumber":61,"Velocity":24,"Duration":303438,"SoundDuration":303438,"Delta":8456743},{"NoteNumber":64,"Velocity":28,"Duration":303438,"SoundDuration":303438,"Delta":8456743},{"NoteNumber":74,"Velocity":43,"Duration":299401,"SoundDuration":299401,"Delta":8861328},{"NoteNumber":71,"Velocity":36,"Duration":299401,"SoundDuration":299401,"Delta":8861328},{"NoteNumber":59,"Velocity":30,"Duration":299401,"SoundDuration":299401,"Delta":8861328},{"NoteNumber":62,"Velocity":36,"Duration":299401,"SoundDuration":299401,"Delta":8861328},{"NoteNumber":74,"Velocity":70,"Duration":780234,"SoundDuration":780234,"Delta":9659732},{"NoteNumber":62,"Velocity":38,"Duration":773994,"SoundDuration":773994,"Delta":10049849},{"NoteNumber":59,"Velocity":38,"Duration":1174528,"SoundDuration":1174528,"Delta":10049849},{"NoteNumber":67,"Velocity":45,"Duration":1975595,"SoundDuration":1975595,"Delta":10049849},{"NoteNumber":79,"Velocity":70,"Duration":383877,"SoundDuration":383877,"Delta":10439966},{"NoteNumber":76,"Velocity":62,"Duration":400534,"SoundDuration":400534,"Delta":10823843},{"NoteNumber":64,"Velocity":50,"Duration":1201601,"SoundDuration":1201601,"Delta":10823843},{"NoteNumber":74,"Velocity":66,"Duration":400534,"SoundDuration":400534,"Delta":11224377},{"NoteNumber":57,"Velocity":39,"Duration":801067,"SoundDuration":801067,"Delta":11224377},{"NoteNumber":72,"Velocity":56,"Duration":380507,"SoundDuration":380507,"Delta":11624911},{"NoteNumber":72,"Velocity":61,"Duration":777706,"SoundDuration":777706,"Delta":12025445},{"NoteNumber":66,"Velocity":38,"Duration":1159143,"SoundDuration":1159143,"Delta":12025445},{"NoteNumber":63,"Velocity":32,"Duration":388852,"SoundDuration":388852,"Delta":12025445},{"NoteNumber":62,"Velocity":34,"Duration":770290,"SoundDuration":770290,"Delta":12414298},{"NoteNumber":81,"Velocity":61,"Duration":381437,"SoundDuration":381437,"Delta":12803151},{"NoteNumber":72,"Velocity":52,"Duration":802462,"SoundDuration":802462,"Delta":13184588},{"NoteNumber":66,"Velocity":46,"Duration":404584,"SoundDuration":404584,"Delta":13184588},{"NoteNumber":67,"Velocity":46,"Duration":795756,"SoundDuration":795756,"Delta":13589173},{"NoteNumber":71,"Velocity":61,"Duration":377984,"SoundDuration":377984,"Delta":13987051},{"NoteNumber":71,"Velocity":55,"Duration":782778,"SoundDuration":782778,"Delta":14384929},{"NoteNumber":55,"Velocity":45,"Duration":391389,"SoundDuration":391389,"Delta":14384929},{"NoteNumber":52,"Velocity":49,"Duration":790590,"SoundDuration":790590,"Delta":14776318},{"NoteNumber":67,"Velocity":50,"Duration":379241,"SoundDuration":379241,"Delta":15167707},{"NoteNumber":67,"Velocity":44,"Duration":798404,"SoundDuration":798404,"Delta":15566909},{"NoteNumber":64,"Velocity":41,"Duration":399202,"SoundDuration":399202,"Delta":15566909},{"NoteNumber":60,"Velocity":40,"Duration":798403,"SoundDuration":798403,"Delta":15966111},{"NoteNumber":64,"Velocity":43,"Duration":379241,"SoundDuration":379241,"Delta":16365313},{"NoteNumber":64,"Velocity":41,"Duration":782778,"SoundDuration":782778,"Delta":16764515},{"NoteNumber":48,"Velocity":28,"Duration":1640223,"SoundDuration":1640223,"Delta":16764515},{"NoteNumber":36,"Velocity":28,"Duration":1248834,"SoundDuration":1248834,"Delta":17155904},{"NoteNumber":55,"Velocity":36,"Duration":407332,"SoundDuration":407332,"Delta":17547293},{"NoteNumber":52,"Velocity":24,"Duration":450113,"SoundDuration":450113,"Delta":17954625},{"NoteNumber":51,"Velocity":24,"Duration":912932,"SoundDuration":912932,"Delta":18404738},{"NoteNumber":59,"Velocity":28,"Duration":912932,"SoundDuration":912932,"Delta":18404738},{"NoteNumber":47,"Velocity":28,"Duration":912932,"SoundDuration":912932,"Delta":18404738},{"NoteNumber":35,"Velocity":24,"Duration":912932,"SoundDuration":912932,"Delta":18404738},{"NoteNumber":76,"Velocity":51,"Duration":986277,"SoundDuration":986277,"Delta":19419108},{"NoteNumber":88,"Velocity":61,"Duration":986277,"SoundDuration":986277,"Delta":19419108},{"NoteNumber":59,"Velocity":34,"Duration":1206068,"SoundDuration":1206068,"Delta":19811778},{"NoteNumber":43,"Velocity":28,"Duration":1206068,"SoundDuration":1206068,"Delta":19811778},{"NoteNumber":52,"Velocity":28,"Duration":2418659,"SoundDuration":2418659,"Delta":19811778},{"NoteNumber":75,"Velocity":45,"Duration":200937,"SoundDuration":200937,"Delta":20405385},{"NoteNumber":87,"Velocity":53,"Duration":200937,"SoundDuration":200937,"Delta":20405385},{"NoteNumber":76,"Velocity":48,"Duration":411522,"SoundDuration":411522,"Delta":20606323},{"NoteNumber":88,"Velocity":57,"Duration":411522,"SoundDuration":411522,"Delta":20606323},{"NoteNumber":60,"Velocity":51,"Duration":801068,"SoundDuration":801068,"Delta":21017846},{"NoteNumber":64,"Velocity":51,"Duration":801068,"SoundDuration":801068,"Delta":21017846},{"NoteNumber":66,"Velocity":61,"Duration":801068,"SoundDuration":801068,"Delta":21017846},{"NoteNumber":45,"Velocity":39,"Duration":801068,"SoundDuration":801068,"Delta":21017846},{"NoteNumber":66,"Velocity":66,"Duration":411522,"SoundDuration":411522,"Delta":21818914},{"NoteNumber":64,"Velocity":56,"Duration":411522,"SoundDuration":411522,"Delta":21818914},{"NoteNumber":61,"Velocity":56,"Duration":411522,"SoundDuration":411522,"Delta":21818914},{"NoteNumber":46,"Velocity":43,"Duration":411522,"SoundDuration":411522,"Delta":21818914},{"NoteNumber":57,"Velocity":60,"Duration":1218793,"SoundDuration":1218793,"Delta":22230437},{"NoteNumber":63,"Velocity":60,"Duration":1218793,"SoundDuration":1218793,"Delta":22230437},{"NoteNumber":66,"Velocity":71,"Duration":611790,"SoundDuration":611790,"Delta":22230437},{"NoteNumber":47,"Velocity":49,"Duration":1218793,"SoundDuration":1218793,"Delta":22230437},{"NoteNumber":67,"Velocity":51,"Duration":200267,"SoundDuration":200267,"Delta":22842227},{"NoteNumber":69,"Velocity":56,"Duration":200267,"SoundDuration":200267,"Delta":23042494},{"NoteNumber":67,"Velocity":43,"Duration":206469,"SoundDuration":206469,"Delta":23242761},{"NoteNumber":66,"Velocity":47,"Duration":400534,"SoundDuration":400534,"Delta":23449230},{"NoteNumber":55,"Velocity":29,"Duration":813473,"SoundDuration":813473,"Delta":23449230},{"NoteNumber":48,"Velocity":24,"Duration":813473,"SoundDuration":813473,"Delta":23449230},{"NoteNumber":64,"Velocity":39,"Duration":412939,"SoundDuration":412939,"Delta":23849764},{"NoteNumber":76,"Velocity":51,"Duration":987668,"SoundDuration":987668,"Delta":24262703},{"NoteNumber":88,"Velocity":61,"Duration":987668,"SoundDuration":987668,"Delta":24262703},{"NoteNumber":47,"Velocity":32,"Duration":194426,"SoundDuration":194426,"Delta":24262703},{"NoteNumber":45,"Velocity":35,"Duration":194426,"SoundDuration":194426,"Delta":24457130},{"NoteNumber":52,"Velocity":39,"Duration":2439250,"SoundDuration":2439250,"Delta":24651556},{"NoteNumber":43,"Velocity":39,"Duration":799752,"SoundDuration":799752,"Delta":24651556},{"NoteNumber":59,"Velocity":39,"Duration":1216998,"SoundDuration":1216998,"Delta":24651556},{"NoteNumber":75,"Velocity":52,"Duration":200937,"SoundDuration":200937,"Delta":25250372},{"NoteNumber":87,"Velocity":61,"Duration":200937,"SoundDuration":200937,"Delta":25250372},{"NoteNumber":76,"Velocity":56,"Duration":417245,"SoundDuration":417245,"Delta":25451309},{"NoteNumber":88,"Velocity":66,"Duration":417245,"SoundDuration":417245,"Delta":25451309},{"NoteNumber":44,"Velocity":37,"Duration":417245,"SoundDuration":417245,"Delta":25451309},{"NoteNumber":60,"Velocity":51,"Duration":806452,"SoundDuration":806452,"Delta":25868555},{"NoteNumber":64,"Velocity":51,"Duration":806452,"SoundDuration":806452,"Delta":25868555},{"NoteNumber":66,"Velocity":61,"Duration":806452,"SoundDuration":806452,"Delta":25868555},{"NoteNumber":45,"Velocity":39,"Duration":806452,"SoundDuration":806452,"Delta":25868555},{"NoteNumber":66,"Velocity":52,"Duration":415800,"SoundDuration":415800,"Delta":26675007},{"NoteNumber":64,"Velocity":44,"Duration":415800,"SoundDuration":415800,"Delta":26675007},{"NoteNumber":61,"Velocity":44,"Duration":415800,"SoundDuration":415800,"Delta":26675007},{"NoteNumber":46,"Velocity":34,"Duration":415800,"SoundDuration":415800,"Delta":26675007},{"NoteNumber":57,"Velocity":46,"Duration":1350051,"SoundDuration":1350051,"Delta":27090807},{"NoteNumber":63,"Velocity":46,"Duration":1350051,"SoundDuration":1350051,"Delta":27090807},{"NoteNumber":66,"Velocity":55,"Duration":623699,"SoundDuration":623699,"Delta":27090807},{"NoteNumber":35,"Velocity":29,"Duration":1350051,"SoundDuration":1350051,"Delta":27090807},{"NoteNumber":47,"Velocity":38,"Duration":1350051,"SoundDuration":1350051,"Delta":27090807},{"NoteNumber":69,"Velocity":38,"Duration":225903,"SoundDuration":225903,"Delta":27714507},{"NoteNumber":67,"Velocity":41,"Duration":235663,"SoundDuration":235663,"Delta":27940411},{"NoteNumber":66,"Velocity":32,"Duration":264783,"SoundDuration":264783,"Delta":28176075},{"NoteNumber":55,"Velocity":30,"Duration":502933,"SoundDuration":502933,"Delta":28440859},{"NoteNumber":64,"Velocity":36,"Duration":502933,"SoundDuration":502933,"Delta":28440859},{"NoteNumber":52,"Velocity":22,"Duration":502933,"SoundDuration":502933,"Delta":28440859},{"NoteNumber":40,"Velocity":18,"Duration":502933,"SoundDuration":502933,"Delta":28440859},{"NoteNumber":59,"Velocity":30,"Duration":98489,"SoundDuration":98489,"Delta":29446727},{"NoteNumber":71,"Velocity":36,"Duration":98489,"SoundDuration":98489,"Delta":29446727},{"NoteNumber":35,"Velocity":25,"Duration":98489,"SoundDuration":98489,"Delta":29446727},{"NoteNumber":47,"Velocity":30,"Duration":98489,"SoundDuration":98489,"Delta":29446727},{"NoteNumber":71,"Velocity":41,"Duration":793126,"SoundDuration":793126,"Delta":29840686},{"NoteNumber":59,"Velocity":34,"Duration":793126,"SoundDuration":793126,"Delta":29840686},{"NoteNumber":35,"Velocity":28,"Duration":793126,"SoundDuration":793126,"Delta":29840686},{"NoteNumber":47,"Velocity":34,"Duration":793126,"SoundDuration":793126,"Delta":29840686},{"NoteNumber":64,"Velocity":30,"Duration":97847,"SoundDuration":97847,"Delta":30633812},{"NoteNumber":76,"Velocity":36,"Duration":97847,"SoundDuration":97847,"Delta":30633812},{"NoteNumber":40,"Velocity":25,"Duration":97847,"SoundDuration":97847,"Delta":30633812},{"NoteNumber":52,"Velocity":30,"Duration":97847,"SoundDuration":97847,"Delta":30633812},{"NoteNumber":76,"Velocity":42,"Duration":790513,"SoundDuration":790513,"Delta":31025201},{"NoteNumber":64,"Velocity":35,"Duration":790513,"SoundDuration":790513,"Delta":31025201},{"NoteNumber":40,"Velocity":28,"Duration":790513,"SoundDuration":790513,"Delta":31025201},{"NoteNumber":52,"Velocity":34,"Duration":790513,"SoundDuration":790513,"Delta":31025201},{"NoteNumber":71,"Velocity":30,"Duration":97529,"SoundDuration":97529,"Delta":31815715},{"NoteNumber":83,"Velocity":36,"Duration":97529,"SoundDuration":97529,"Delta":31815715},{"NoteNumber":47,"Velocity":25,"Duration":97529,"SoundDuration":97529,"Delta":31815715},{"NoteNumber":59,"Velocity":30,"Duration":97529,"SoundDuration":97529,"Delta":31815715},{"NoteNumber":83,"Velocity":40,"Duration":790514,"SoundDuration":790514,"Delta":32205832},{"NoteNumber":71,"Velocity":34,"Duration":790514,"SoundDuration":790514,"Delta":32205832},{"NoteNumber":47,"Velocity":28,"Duration":790514,"SoundDuration":790514,"Delta":32205832},{"NoteNumber":59,"Velocity":34,"Duration":790514,"SoundDuration":790514,"Delta":32205832},{"NoteNumber":88,"Velocity":36,"Duration":97847,"SoundDuration":97847,"Delta":32996346},{"NoteNumber":76,"Velocity":30,"Duration":97847,"SoundDuration":97847,"Delta":32996346},{"NoteNumber":52,"Velocity":25,"Duration":97847,"SoundDuration":97847,"Delta":32996346},{"NoteNumber":64,"Velocity":30,"Duration":97847,"SoundDuration":97847,"Delta":32996346},{"NoteNumber":76,"Velocity":34,"Duration":806960,"SoundDuration":806960,"Delta":33387735},{"NoteNumber":88,"Velocity":41,"Duration":806960,"SoundDuration":806960,"Delta":33387735},{"NoteNumber":52,"Velocity":28,"Duration":806960,"SoundDuration":806960,"Delta":33387735},{"NoteNumber":64,"Velocity":34,"Duration":806960,"SoundDuration":806960,"Delta":33387735},{"NoteNumber":77,"Velocity":70,"Duration":101832,"SoundDuration":101832,"Delta":34194695},{"NoteNumber":83,"Velocity":70,"Duration":101832,"SoundDuration":101832,"Delta":34194695},{"NoteNumber":86,"Velocity":70,"Duration":101832,"SoundDuration":101832,"Delta":34194695},{"NoteNumber":89,"Velocity":82,"Duration":101832,"SoundDuration":101832,"Delta":34194695},{"NoteNumber":55,"Velocity":54,"Duration":101832,"SoundDuration":101832,"Delta":34194695},{"NoteNumber":59,"Velocity":54,"Duration":101832,"SoundDuration":101832,"Delta":34194695},{"NoteNumber":62,"Velocity":54,"Duration":101832,"SoundDuration":101832,"Delta":34194695},{"NoteNumber":65,"Velocity":65,"Duration":101832,"SoundDuration":101832,"Delta":34194695},{"NoteNumber":77,"Velocity":76,"Duration":600800,"SoundDuration":600800,"Delta":34602027},{"NoteNumber":83,"Velocity":76,"Duration":600800,"SoundDuration":600800,"Delta":34602027},{"NoteNumber":86,"Velocity":76,"Duration":600800,"SoundDuration":600800,"Delta":34602027},{"NoteNumber":89,"Velocity":90,"Duration":600800,"SoundDuration":600800,"Delta":34602027},{"NoteNumber":55,"Velocity":59,"Duration":600800,"SoundDuration":600800,"Delta":34602027},{"NoteNumber":59,"Velocity":59,"Duration":600800,"SoundDuration":600800,"Delta":34602027},{"NoteNumber":62,"Velocity":59,"Duration":600800,"SoundDuration":600800,"Delta":34602027},{"NoteNumber":65,"Velocity":71,"Duration":600800,"SoundDuration":600800,"Delta":34602027},{"NoteNumber":88,"Velocity":70,"Duration":110146,"SoundDuration":110146,"Delta":35202828},{"NoteNumber":86,"Velocity":69,"Duration":108775,"SoundDuration":108775,"Delta":35302961},{"NoteNumber":84,"Velocity":68,"Duration":107631,"SoundDuration":107631,"Delta":35401951},{"NoteNumber":83,"Velocity":68,"Duration":107631,"SoundDuration":107631,"Delta":35499799},{"NoteNumber":81,"Velocity":68,"Duration":107631,"SoundDuration":107631,"Delta":35597646},{"NoteNumber":79,"Velocity":66,"Duration":107744,"SoundDuration":107744,"Delta":35695493},{"NoteNumber":77,"Velocity":64,"Duration":107984,"SoundDuration":107984,"Delta":35793420},{"NoteNumber":76,"Velocity":64,"Duration":107984,"SoundDuration":107984,"Delta":35891588},{"NoteNumber":74,"Velocity":64,"Duration":107984,"SoundDuration":107984,"Delta":35989755},{"NoteNumber":72,"Velocity":64,"Duration":108016,"SoundDuration":108016,"Delta":36087923},{"NoteNumber":71,"Velocity":63,"Duration":72225,"SoundDuration":72225,"Delta":36186090},{"NoteNumber":69,"Velocity":63,"Duration":72225,"SoundDuration":72225,"Delta":36251750},{"NoteNumber":67,"Velocity":63,"Duration":72225,"SoundDuration":72225,"Delta":36317410},{"NoteNumber":65,"Velocity":63,"Duration":72225,"SoundDuration":72225,"Delta":36383070},{"NoteNumber":64,"Velocity":63,"Duration":72225,"SoundDuration":72225,"Delta":36448730},{"NoteNumber":62,"Velocity":63,"Duration":72225,"SoundDuration":72225,"Delta":36514390},{"NoteNumber":60,"Velocity":63,"Duration":87753,"SoundDuration":87753,"Delta":36580049},{"NoteNumber":59,"Velocity":63,"Duration":89635,"SoundDuration":89635,"Delta":36659431},{"NoteNumber":57,"Velocity":63,"Duration":91599,"SoundDuration":91599,"Delta":36740522},{"NoteNumber":55,"Velocity":62,"Duration":93677,"SoundDuration":93677,"Delta":36823399},{"NoteNumber":54,"Velocity":62,"Duration":94812,"SoundDuration":94812,"Delta":36908141},{"NoteNumber":55,"Velocity":89,"Duration":199601,"SoundDuration":199601,"Delta":36994637},{"NoteNumber":65,"Velocity":40,"Duration":97847,"SoundDuration":97847,"Delta":37793041},{"NoteNumber":62,"Velocity":34,"Duration":97847,"SoundDuration":97847,"Delta":37793041},{"NoteNumber":55,"Velocity":34,"Duration":97847,"SoundDuration":97847,"Delta":37793041},{"NoteNumber":47,"Velocity":29,"Duration":97847,"SoundDuration":97847,"Delta":37793041},{"NoteNumber":35,"Velocity":24,"Duration":97847,"SoundDuration":97847,"Delta":37793041},{"NoteNumber":64,"Velocity":45,"Duration":199601,"SoundDuration":199601,"Delta":38184430},{"NoteNumber":60,"Velocity":38,"Duration":199601,"SoundDuration":199601,"Delta":38184430},{"NoteNumber":55,"Velocity":38,"Duration":199601,"SoundDuration":199601,"Delta":38184430},{"NoteNumber":36,"Velocity":29,"Duration":199601,"SoundDuration":199601,"Delta":38184430},{"NoteNumber":48,"Velocity":35,"Duration":199601,"SoundDuration":199601,"Delta":38184430},{"NoteNumber":74,"Velocity":76,"Duration":101832,"SoundDuration":101832,"Delta":38982834},{"NoteNumber":80,"Velocity":76,"Duration":101832,"SoundDuration":101832,"Delta":38982834},{"NoteNumber":83,"Velocity":76,"Duration":101832,"SoundDuration":101832,"Delta":38982834},{"NoteNumber":86,"Velocity":90,"Duration":101832,"SoundDuration":101832,"Delta":38982834},{"NoteNumber":52,"Velocity":59,"Duration":101832,"SoundDuration":101832,"Delta":38982834},{"NoteNumber":56,"Velocity":59,"Duration":101832,"SoundDuration":101832,"Delta":38982834},{"NoteNumber":59,"Velocity":59,"Duration":101832,"SoundDuration":101832,"Delta":38982834},{"NoteNumber":62,"Velocity":71,"Duration":101832,"SoundDuration":101832,"Delta":38982834},{"NoteNumber":74,"Velocity":84,"Duration":600800,"SoundDuration":600800,"Delta":39390166},{"NoteNumber":80,"Velocity":84,"Duration":600800,"SoundDuration":600800,"Delta":39390166},{"NoteNumber":83,"Velocity":84,"Duration":600800,"SoundDuration":600800,"Delta":39390166},{"NoteNumber":86,"Velocity":98,"Duration":600800,"SoundDuration":600800,"Delta":39390166},{"NoteNumber":52,"Velocity":65,"Duration":600800,"SoundDuration":600800,"Delta":39390166},{"NoteNumber":56,"Velocity":65,"Duration":600800,"SoundDuration":600800,"Delta":39390166},{"NoteNumber":59,"Velocity":65,"Duration":600800,"SoundDuration":600800,"Delta":39390166},{"NoteNumber":62,"Velocity":77,"Duration":600800,"SoundDuration":600800,"Delta":39390166},{"NoteNumber":84,"Velocity":70,"Duration":110146,"SoundDuration":110146,"Delta":39990967},{"NoteNumber":83,"Velocity":69,"Duration":108775,"SoundDuration":108775,"Delta":40091101},{"NoteNumber":81,"Velocity":68,"Duration":107631,"SoundDuration":107631,"Delta":40190091},{"NoteNumber":80,"Velocity":68,"Duration":107631,"SoundDuration":107631,"Delta":40287938},{"NoteNumber":78,"Velocity":68,"Duration":107631,"SoundDuration":107631,"Delta":40385786},{"NoteNumber":76,"Velocity":66,"Duration":107744,"SoundDuration":107744,"Delta":40483633},{"NoteNumber":74,"Velocity":64,"Duration":107984,"SoundDuration":107984,"Delta":40581560},{"NoteNumber":72,"Velocity":64,"Duration":107984,"SoundDuration":107984,"Delta":40679728},{"NoteNumber":71,"Velocity":64,"Duration":107984,"SoundDuration":107984,"Delta":40777895},{"NoteNumber":69,"Velocity":64,"Duration":108016,"SoundDuration":108016,"Delta":40876063},{"NoteNumber":68,"Velocity":63,"Duration":72225,"SoundDuration":72225,"Delta":40974230},{"NoteNumber":66,"Velocity":63,"Duration":72225,"SoundDuration":72225,"Delta":41039890},{"NoteNumber":64,"Velocity":63,"Duration":72225,"SoundDuration":72225,"Delta":41105550},{"NoteNumber":62,"Velocity":63,"Duration":72225,"SoundDuration":72225,"Delta":41171210},{"NoteNumber":60,"Velocity":63,"Duration":72225,"SoundDuration":72225,"Delta":41236869},{"NoteNumber":59,"Velocity":63,"Duration":72225,"SoundDuration":72225,"Delta":41302529},{"NoteNumber":57,"Velocity":63,"Duration":87753,"SoundDuration":87753,"Delta":41368189},{"NoteNumber":56,"Velocity":63,"Duration":89635,"SoundDuration":89635,"Delta":41447570},{"NoteNumber":54,"Velocity":63,"Duration":91599,"SoundDuration":91599,"Delta":41528662},{"NoteNumber":52,"Velocity":62,"Duration":93677,"SoundDuration":93677,"Delta":41611539},{"NoteNumber":51,"Velocity":62,"Duration":94812,"SoundDuration":94812,"Delta":41696281},{"NoteNumber":52,"Velocity":89,"Duration":399202,"SoundDuration":399202,"Delta":41782777},{"NoteNumber":62,"Velocity":40,"Duration":97847,"SoundDuration":97847,"Delta":42581181},{"NoteNumber":59,"Velocity":34,"Duration":97847,"SoundDuration":97847,"Delta":42581181},{"NoteNumber":52,"Velocity":34,"Duration":97847,"SoundDuration":97847,"Delta":42581181},{"NoteNumber":44,"Velocity":29,"Duration":97847,"SoundDuration":97847,"Delta":42581181},{"NoteNumber":32,"Velocity":24,"Duration":97847,"SoundDuration":97847,"Delta":42581181},{"NoteNumber":60,"Velocity":45,"Duration":199601,"SoundDuration":199601,"Delta":42972570},{"NoteNumber":57,"Velocity":38,"Duration":199601,"SoundDuration":199601,"Delta":42972570},{"NoteNumber":52,"Velocity":38,"Duration":199601,"SoundDuration":199601,"Delta":42972570},{"NoteNumber":33,"Velocity":29,"Duration":199601,"SoundDuration":199601,"Delta":42972570},{"NoteNumber":45,"Velocity":35,"Duration":199601,"SoundDuration":199601,"Delta":42972570},{"NoteNumber":82,"Velocity":57,"Duration":385802,"SoundDuration":385802,"Delta":43770974},{"NoteNumber":58,"Velocity":50,"Duration":385802,"SoundDuration":385802,"Delta":43770974},{"NoteNumber":82,"Velocity":60,"Duration":594844,"SoundDuration":594844,"Delta":44182497},{"NoteNumber":58,"Velocity":50,"Duration":1554022,"SoundDuration":1554022,"Delta":44182497},{"NoteNumber":81,"Velocity":53,"Duration":106224,"SoundDuration":106224,"Delta":44777341},{"NoteNumber":79,"Velocity":53,"Duration":104660,"SoundDuration":104660,"Delta":44874060},{"NoteNumber":77,"Velocity":51,"Duration":104993,"SoundDuration":104993,"Delta":44969185},{"NoteNumber":75,"Velocity":51,"Duration":105329,"SoundDuration":105329,"Delta":45064613},{"NoteNumber":74,"Velocity":51,"Duration":105666,"SoundDuration":105666,"Delta":45160345},{"NoteNumber":72,"Velocity":51,"Duration":105771,"SoundDuration":105771,"Delta":45256384},{"NoteNumber":70,"Velocity":51,"Duration":105447,"SoundDuration":105447,"Delta":45352583},{"NoteNumber":69,"Velocity":50,"Duration":105633,"SoundDuration":105633,"Delta":45448427},{"NoteNumber":67,"Velocity":49,"Duration":105633,"SoundDuration":105633,"Delta":45544458},{"NoteNumber":65,"Velocity":49,"Duration":105446,"SoundDuration":105446,"Delta":45640488},{"NoteNumber":63,"Velocity":53,"Duration":138104,"SoundDuration":138104,"Delta":45736519},{"NoteNumber":62,"Velocity":49,"Duration":139506,"SoundDuration":139506,"Delta":45862068},{"NoteNumber":60,"Velocity":44,"Duration":152924,"SoundDuration":152924,"Delta":45987618},{"NoteNumber":58,"Velocity":53,"Duration":388439,"SoundDuration":388439,"Delta":46127185},{"NoteNumber":58,"Velocity":53,"Duration":1954467,"SoundDuration":1954467,"Delta":46523886},{"NoteNumber":64,"Velocity":53,"Duration":347714,"SoundDuration":347714,"Delta":47309226},{"NoteNumber":64,"Velocity":62,"Duration":782778,"SoundDuration":782778,"Delta":47695575},{"NoteNumber":67,"Velocity":53,"Duration":348837,"SoundDuration":348837,"Delta":48478353},{"NoteNumber":58,"Velocity":45,"Duration":348837,"SoundDuration":348837,"Delta":48478353},{"NoteNumber":64,"Velocity":53,"Duration":348837,"SoundDuration":348837,"Delta":48478353},{"NoteNumber":67,"Velocity":59,"Duration":782778,"SoundDuration":782778,"Delta":48865950},{"NoteNumber":64,"Velocity":59,"Duration":782778,"SoundDuration":782778,"Delta":48865950},{"NoteNumber":58,"Velocity":50,"Duration":782778,"SoundDuration":782778,"Delta":48865950},{"NoteNumber":67,"Velocity":53,"Duration":349967,"SoundDuration":349967,"Delta":49648728},{"NoteNumber":73,"Velocity":63,"Duration":349967,"SoundDuration":349967,"Delta":49648728},{"NoteNumber":58,"Velocity":45,"Duration":349967,"SoundDuration":349967,"Delta":49648728},{"NoteNumber":64,"Velocity":53,"Duration":349967,"SoundDuration":349967,"Delta":49648728},{"NoteNumber":73,"Velocity":68,"Duration":787917,"SoundDuration":787917,"Delta":50037581},{"NoteNumber":67,"Velocity":57,"Duration":787917,"SoundDuration":787917,"Delta":50037581},{"NoteNumber":64,"Velocity":64,"Duration":787917,"SoundDuration":787917,"Delta":50037581},{"NoteNumber":58,"Velocity":54,"Duration":787917,"SoundDuration":787917,"Delta":50037581},{"NoteNumber":73,"Velocity":58,"Duration":348837,"SoundDuration":348837,"Delta":50825499},{"NoteNumber":76,"Velocity":58,"Duration":348837,"SoundDuration":348837,"Delta":50825499},{"NoteNumber":79,"Velocity":69,"Duration":348837,"SoundDuration":348837,"Delta":50825499},{"NoteNumber":58,"Velocity":49,"Duration":348837,"SoundDuration":348837,"Delta":50825499},{"NoteNumber":61,"Velocity":49,"Duration":348837,"SoundDuration":348837,"Delta":50825499},{"NoteNumber":64,"Velocity":49,"Duration":348837,"SoundDuration":348837,"Delta":50825499},{"NoteNumber":67,"Velocity":59,"Duration":348837,"SoundDuration":348837,"Delta":50825499},{"NoteNumber":73,"Velocity":66,"Duration":1940504,"SoundDuration":1940504,"Delta":51213096},{"NoteNumber":76,"Velocity":66,"Duration":1940504,"SoundDuration":1940504,"Delta":51213096},{"NoteNumber":79,"Velocity":78,"Duration":775193,"SoundDuration":775193,"Delta":51213096},{"NoteNumber":58,"Velocity":58,"Duration":1940504,"SoundDuration":1940504,"Delta":51213096},{"NoteNumber":61,"Velocity":58,"Duration":1940504,"SoundDuration":1940504,"Delta":51213096},{"NoteNumber":64,"Velocity":58,"Duration":1940504,"SoundDuration":1940504,"Delta":51213096},{"NoteNumber":67,"Velocity":69,"Duration":775193,"SoundDuration":775193,"Delta":51213096},{"NoteNumber":78,"Velocity":80,"Duration":390116,"SoundDuration":390116,"Delta":51988290},{"NoteNumber":66,"Velocity":63,"Duration":390116,"SoundDuration":390116,"Delta":51988290},{"NoteNumber":77,"Velocity":84,"Duration":775193,"SoundDuration":775193,"Delta":52378407},{"NoteNumber":65,"Velocity":77,"Duration":775193,"SoundDuration":775193,"Delta":52378407},{"NoteNumber":78,"Velocity":82,"Duration":355731,"SoundDuration":355731,"Delta":53153601},{"NoteNumber":76,"Velocity":69,"Duration":355731,"SoundDuration":355731,"Delta":53153601},{"NoteNumber":73,"Velocity":69,"Duration":355731,"SoundDuration":355731,"Delta":53153601},{"NoteNumber":66,"Velocity":75,"Duration":355731,"SoundDuration":355731,"Delta":53153601},{"NoteNumber":64,"Velocity":63,"Duration":355731,"SoundDuration":355731,"Delta":53153601},{"NoteNumber":61,"Velocity":63,"Duration":355731,"SoundDuration":355731,"Delta":53153601},{"NoteNumber":58,"Velocity":63,"Duration":355731,"SoundDuration":355731,"Delta":53153601},{"NoteNumber":71,"Velocity":80,"Duration":1136300,"SoundDuration":1136300,"Delta":53548858},{"NoteNumber":74,"Velocity":80,"Duration":1136300,"SoundDuration":1136300,"Delta":53548858},{"NoteNumber":78,"Velocity":95,"Duration":1136300,"SoundDuration":1136300,"Delta":53548858},{"NoteNumber":66,"Velocity":48,"Duration":93867,"SoundDuration":93867,"Delta":53548858},{"NoteNumber":62,"Velocity":40,"Duration":93867,"SoundDuration":93867,"Delta":53548858},{"NoteNumber":59,"Velocity":40,"Duration":93867,"SoundDuration":93867,"Delta":53548858},{"NoteNumber":59,"Velocity":33,"Duration":93867,"SoundDuration":93867,"Delta":53736593},{"NoteNumber":62,"Velocity":33,"Duration":93867,"SoundDuration":93867,"Delta":53736593},{"NoteNumber":66,"Velocity":40,"Duration":93867,"SoundDuration":93867,"Delta":53736593},{"NoteNumber":59,"Velocity":33,"Duration":93867,"SoundDuration":93867,"Delta":53924327},{"NoteNumber":62,"Velocity":33,"Duration":93867,"SoundDuration":93867,"Delta":53924327},{"NoteNumber":66,"Velocity":40,"Duration":93867,"SoundDuration":93867,"Delta":53924327},{"NoteNumber":59,"Velocity":33,"Duration":93867,"SoundDuration":93867,"Delta":54112062},{"NoteNumber":62,"Velocity":33,"Duration":93867,"SoundDuration":93867,"Delta":54112062},{"NoteNumber":66,"Velocity":40,"Duration":93867,"SoundDuration":93867,"Delta":54112062},{"NoteNumber":59,"Velocity":33,"Duration":93867,"SoundDuration":93867,"Delta":54299796},{"NoteNumber":62,"Velocity":33,"Duration":93867,"SoundDuration":93867,"Delta":54299796},{"NoteNumber":66,"Velocity":40,"Duration":93867,"SoundDuration":93867,"Delta":54299796},{"NoteNumber":59,"Velocity":33,"Duration":98814,"SoundDuration":98814,"Delta":54487531},{"NoteNumber":62,"Velocity":33,"Duration":98814,"SoundDuration":98814,"Delta":54487531},{"NoteNumber":66,"Velocity":40,"Duration":98814,"SoundDuration":98814,"Delta":54487531},{"NoteNumber":71,"Velocity":80,"Duration":1131227,"SoundDuration":1131227,"Delta":54685159},{"NoteNumber":78,"Velocity":80,"Duration":1131227,"SoundDuration":1131227,"Delta":54685159},{"NoteNumber":83,"Velocity":94,"Duration":1131227,"SoundDuration":1131227,"Delta":54685159},{"NoteNumber":59,"Velocity":48,"Duration":93867,"SoundDuration":93867,"Delta":54685159},{"NoteNumber":54,"Velocity":40,"Duration":93867,"SoundDuration":93867,"Delta":54685159},{"NoteNumber":50,"Velocity":40,"Duration":93867,"SoundDuration":93867,"Delta":54685159},{"NoteNumber":50,"Velocity":34,"Duration":93867,"SoundDuration":93867,"Delta":54872894},{"NoteNumber":54,"Velocity":34,"Duration":93867,"SoundDuration":93867,"Delta":54872894},{"NoteNumber":59,"Velocity":41,"Duration":93867,"SoundDuration":93867,"Delta":54872894},{"NoteNumber":50,"Velocity":34,"Duration":93867,"SoundDuration":93867,"Delta":55060628},{"NoteNumber":54,"Velocity":34,"Duration":93867,"SoundDuration":93867,"Delta":55060628},{"NoteNumber":59,"Velocity":41,"Duration":93867,"SoundDuration":93867,"Delta":55060628},{"NoteNumber":50,"Velocity":34,"Duration":93867,"SoundDuration":93867,"Delta":55248363},{"NoteNumber":54,"Velocity":34,"Duration":93867,"SoundDuration":93867,"Delta":55248363},{"NoteNumber":59,"Velocity":41,"Duration":93867,"SoundDuration":93867,"Delta":55248363},{"NoteNumber":50,"Velocity":34,"Duration":93867,"SoundDuration":93867,"Delta":55436097},{"NoteNumber":54,"Velocity":34,"Duration":93867,"SoundDuration":93867,"Delta":55436097},{"NoteNumber":59,"Velocity":41,"Duration":93867,"SoundDuration":93867,"Delta":55436097},{"NoteNumber":50,"Velocity":34,"Duration":96277,"SoundDuration":96277,"Delta":55623832},{"NoteNumber":54,"Velocity":34,"Duration":96277,"SoundDuration":96277,"Delta":55623832},{"NoteNumber":59,"Velocity":41,"Duration":96277,"SoundDuration":96277,"Delta":55623832},{"NoteNumber":66,"Velocity":41,"Duration":90470,"SoundDuration":90470,"Delta":55816386},{"NoteNumber":71,"Velocity":49,"Duration":90470,"SoundDuration":90470,"Delta":55816386},{"NoteNumber":57,"Velocity":44,"Duration":90470,"SoundDuration":90470,"Delta":55816386},{"NoteNumber":54,"Velocity":37,"Duration":90470,"SoundDuration":90470,"Delta":55816386},{"NoteNumber":51,"Velocity":37,"Duration":90470,"SoundDuration":90470,"Delta":55816386},{"NoteNumber":51,"Velocity":28,"Duration":90470,"SoundDuration":90470,"Delta":55997327},{"NoteNumber":54,"Velocity":28,"Duration":90470,"SoundDuration":90470,"Delta":55997327},{"NoteNumber":57,"Velocity":34,"Duration":90470,"SoundDuration":90470,"Delta":55997327},{"NoteNumber":72,"Velocity":59,"Duration":93283,"SoundDuration":93283,"Delta":56178268},{"NoteNumber":60,"Velocity":49,"Duration":93283,"SoundDuration":93283,"Delta":56178268},{"NoteNumber":55,"Velocity":44,"Duration":93283,"SoundDuration":93283,"Delta":56178268},{"NoteNumber":52,"Velocity":37,"Duration":93283,"SoundDuration":93283,"Delta":56178268},{"NoteNumber":55,"Velocity":37,"Duration":93283,"SoundDuration":93283,"Delta":56364835},{"NoteNumber":52,"Velocity":30,"Duration":93283,"SoundDuration":93283,"Delta":56364835},{"NoteNumber":55,"Velocity":37,"Duration":93283,"SoundDuration":93283,"Delta":56551402},{"NoteNumber":52,"Velocity":30,"Duration":93283,"SoundDuration":93283,"Delta":56551402},{"NoteNumber":55,"Velocity":37,"Duration":93283,"SoundDuration":93283,"Delta":56737969},{"NoteNumber":52,"Velocity":30,"Duration":93283,"SoundDuration":93283,"Delta":56737969},{"NoteNumber":72,"Velocity":56,"Duration":91019,"SoundDuration":91019,"Delta":56924536},{"NoteNumber":67,"Velocity":47,"Duration":91019,"SoundDuration":91019,"Delta":56924536},{"NoteNumber":59,"Velocity":45,"Duration":91019,"SoundDuration":91019,"Delta":56924536},{"NoteNumber":55,"Velocity":37,"Duration":91019,"SoundDuration":91019,"Delta":56924536},{"NoteNumber":52,"Velocity":37,"Duration":91019,"SoundDuration":91019,"Delta":56924536},{"NoteNumber":59,"Velocity":37,"Duration":91019,"SoundDuration":91019,"Delta":57106575},{"NoteNumber":55,"Velocity":30,"Duration":91019,"SoundDuration":91019,"Delta":57106575},{"NoteNumber":52,"Velocity":30,"Duration":91019,"SoundDuration":91019,"Delta":57106575},{"NoteNumber":75,"Velocity":59,"Duration":93283,"SoundDuration":93283,"Delta":57288614},{"NoteNumber":63,"Velocity":49,"Duration":93283,"SoundDuration":93283,"Delta":57288614},{"NoteNumber":57,"Velocity":44,"Duration":93283,"SoundDuration":93283,"Delta":57288614},{"NoteNumber":54,"Velocity":37,"Duration":93283,"SoundDuration":93283,"Delta":57288614},{"NoteNumber":54,"Velocity":31,"Duration":93283,"SoundDuration":93283,"Delta":57475181},{"NoteNumber":57,"Velocity":38,"Duration":93283,"SoundDuration":93283,"Delta":57475181},{"NoteNumber":54,"Velocity":31,"Duration":91019,"SoundDuration":91019,"Delta":57661748},{"NoteNumber":57,"Velocity":38,"Duration":91019,"SoundDuration":91019,"Delta":57661748},{"NoteNumber":54,"Velocity":31,"Duration":91019,"SoundDuration":91019,"Delta":57843787},{"NoteNumber":57,"Velocity":38,"Duration":91019,"SoundDuration":91019,"Delta":57843787},{"NoteNumber":75,"Velocity":57,"Duration":92994,"SoundDuration":92994,"Delta":58025826},{"NoteNumber":69,"Velocity":48,"Duration":92994,"SoundDuration":92994,"Delta":58025826},{"NoteNumber":60,"Velocity":44,"Duration":92994,"SoundDuration":92994,"Delta":58025826},{"NoteNumber":57,"Velocity":37,"Duration":92994,"SoundDuration":92994,"Delta":58025826},{"NoteNumber":54,"Velocity":37,"Duration":92994,"SoundDuration":92994,"Delta":58025826},{"NoteNumber":54,"Velocity":30,"Duration":92994,"SoundDuration":92994,"Delta":58211815},{"NoteNumber":57,"Velocity":30,"Duration":92994,"SoundDuration":92994,"Delta":58211815},{"NoteNumber":60,"Velocity":37,"Duration":92994,"SoundDuration":92994,"Delta":58211815},{"NoteNumber":76,"Velocity":63,"Duration":92994,"SoundDuration":92994,"Delta":58397804},{"NoteNumber":64,"Velocity":53,"Duration":92994,"SoundDuration":92994,"Delta":58397804},{"NoteNumber":59,"Velocity":44,"Duration":92994,"SoundDuration":92994,"Delta":58397804},{"NoteNumber":55,"Velocity":37,"Duration":92994,"SoundDuration":92994,"Delta":58397804},{"NoteNumber":55,"Velocity":33,"Duration":92994,"SoundDuration":92994,"Delta":58583793},{"NoteNumber":59,"Velocity":39,"Duration":92994,"SoundDuration":92994,"Delta":58583793},{"NoteNumber":55,"Velocity":33,"Duration":90744,"SoundDuration":90744,"Delta":58769782},{"NoteNumber":59,"Velocity":39,"Duration":90744,"SoundDuration":90744,"Delta":58769782},{"NoteNumber":55,"Velocity":33,"Duration":90744,"SoundDuration":90744,"Delta":58951270},{"NoteNumber":59,"Velocity":39,"Duration":90744,"SoundDuration":90744,"Delta":58951270},{"NoteNumber":76,"Velocity":60,"Duration":92421,"SoundDuration":92421,"Delta":59132758},{"NoteNumber":71,"Velocity":50,"Duration":92421,"SoundDuration":92421,"Delta":59132758},{"NoteNumber":56,"Velocity":41,"Duration":92421,"SoundDuration":92421,"Delta":59132758},{"NoteNumber":59,"Velocity":49,"Duration":92421,"SoundDuration":92421,"Delta":59132758},{"NoteNumber":56,"Velocity":37,"Duration":92421,"SoundDuration":92421,"Delta":59317601},{"NoteNumber":59,"Velocity":37,"Duration":92421,"SoundDuration":92421,"Delta":59317601},{"NoteNumber":62,"Velocity":44,"Duration":92421,"SoundDuration":92421,"Delta":59317601},{"NoteNumber":77,"Velocity":64,"Duration":92421,"SoundDuration":92421,"Delta":59502444},{"NoteNumber":65,"Velocity":55,"Duration":92421,"SoundDuration":92421,"Delta":59502444},{"NoteNumber":56,"Velocity":39,"Duration":92421,"SoundDuration":92421,"Delta":59502444},{"NoteNumber":59,"Velocity":39,"Duration":92421,"SoundDuration":92421,"Delta":59502444},{"NoteNumber":61,"Velocity":47,"Duration":92421,"SoundDuration":92421,"Delta":59502444},{"NoteNumber":56,"Velocity":35,"Duration":92421,"SoundDuration":92421,"Delta":59687287},{"NoteNumber":59,"Velocity":35,"Duration":92421,"SoundDuration":92421,"Delta":59687287},{"NoteNumber":61,"Velocity":41,"Duration":92421,"SoundDuration":92421,"Delta":59687287},{"NoteNumber":56,"Velocity":36,"Duration":94458,"SoundDuration":94458,"Delta":59872130},{"NoteNumber":59,"Velocity":36,"Duration":94458,"SoundDuration":94458,"Delta":59872130},{"NoteNumber":61,"Velocity":42,"Duration":94458,"SoundDuration":94458,"Delta":59872130},{"NoteNumber":56,"Velocity":36,"Duration":94458,"SoundDuration":94458,"Delta":60061047},{"NoteNumber":59,"Velocity":36,"Duration":94458,"SoundDuration":94458,"Delta":60061047},{"NoteNumber":61,"Velocity":42,"Duration":94458,"SoundDuration":94458,"Delta":60061047},{"NoteNumber":68,"Velocity":39,"Duration":91574,"SoundDuration":91574,"Delta":60249964},{"NoteNumber":71,"Velocity":39,"Duration":91574,"SoundDuration":91574,"Delta":60249964},{"NoteNumber":76,"Velocity":46,"Duration":91574,"SoundDuration":91574,"Delta":60249964},{"NoteNumber":61,"Velocity":34,"Duration":91574,"SoundDuration":91574,"Delta":60249964},{"NoteNumber":77,"Velocity":38,"Duration":91574,"SoundDuration":91574,"Delta":60433114},{"NoteNumber":71,"Velocity":32,"Duration":91574,"SoundDuration":91574,"Delta":60433114},{"NoteNumber":68,"Velocity":32,"Duration":91574,"SoundDuration":91574,"Delta":60433114},{"NoteNumber":61,"Velocity":32,"Duration":91574,"SoundDuration":91574,"Delta":60433114},{"NoteNumber":77,"Velocity":38,"Duration":91574,"SoundDuration":91574,"Delta":60616264},{"NoteNumber":71,"Velocity":32,"Duration":91574,"SoundDuration":91574,"Delta":60616264},{"NoteNumber":68,"Velocity":32,"Duration":91574,"SoundDuration":91574,"Delta":60616264},{"NoteNumber":61,"Velocity":32,"Duration":91574,"SoundDuration":91574,"Delta":60616264},{"NoteNumber":77,"Velocity":38,"Duration":91373,"SoundDuration":91373,"Delta":60799414},{"NoteNumber":71,"Velocity":32,"Duration":91373,"SoundDuration":91373,"Delta":60799414},{"NoteNumber":68,"Velocity":32,"Duration":91373,"SoundDuration":91373,"Delta":60799414},{"NoteNumber":61,"Velocity":32,"Duration":91373,"SoundDuration":91373,"Delta":60799414},{"NoteNumber":77,"Velocity":38,"Duration":91296,"SoundDuration":91296,"Delta":60982084},{"NoteNumber":71,"Velocity":32,"Duration":91296,"SoundDuration":91296,"Delta":60982084},{"NoteNumber":68,"Velocity":32,"Duration":91296,"SoundDuration":91296,"Delta":60982084},{"NoteNumber":61,"Velocity":32,"Duration":91296,"SoundDuration":91296,"Delta":60982084},{"NoteNumber":77,"Velocity":38,"Duration":91296,"SoundDuration":91296,"Delta":61164677},{"NoteNumber":71,"Velocity":32,"Duration":91296,"SoundDuration":91296,"Delta":61164677},{"NoteNumber":68,"Velocity":32,"Duration":91296,"SoundDuration":91296,"Delta":61164677},{"NoteNumber":61,"Velocity":32,"Duration":91296,"SoundDuration":91296,"Delta":61164677},{"NoteNumber":68,"Velocity":39,"Duration":91095,"SoundDuration":91095,"Delta":61347270},{"NoteNumber":71,"Velocity":39,"Duration":91095,"SoundDuration":91095,"Delta":61347270},{"NoteNumber":77,"Velocity":46,"Duration":91095,"SoundDuration":91095,"Delta":61347270},{"NoteNumber":61,"Velocity":40,"Duration":91095,"SoundDuration":91095,"Delta":61347270},{"NoteNumber":77,"Velocity":52,"Duration":91019,"SoundDuration":91019,"Delta":61529385},{"NoteNumber":71,"Velocity":44,"Duration":91019,"SoundDuration":91019,"Delta":61529385},{"NoteNumber":68,"Velocity":44,"Duration":91019,"SoundDuration":91019,"Delta":61529385},{"NoteNumber":61,"Velocity":45,"Duration":91019,"SoundDuration":91019,"Delta":61529385},{"NoteNumber":77,"Velocity":58,"Duration":91019,"SoundDuration":91019,"Delta":61711424},{"NoteNumber":71,"Velocity":48,"Duration":91019,"SoundDuration":91019,"Delta":61711424},{"NoteNumber":68,"Velocity":48,"Duration":91019,"SoundDuration":91019,"Delta":61711424},{"NoteNumber":61,"Velocity":49,"Duration":91019,"SoundDuration":91019,"Delta":61711424},{"NoteNumber":77,"Velocity":63,"Duration":91019,"SoundDuration":91019,"Delta":61893463},{"NoteNumber":71,"Velocity":53,"Duration":91019,"SoundDuration":91019,"Delta":61893463},{"NoteNumber":68,"Velocity":53,"Duration":91019,"SoundDuration":91019,"Delta":61893463},{"NoteNumber":61,"Velocity":52,"Duration":91019,"SoundDuration":91019,"Delta":61893463},{"NoteNumber":77,"Velocity":69,"Duration":91019,"SoundDuration":91019,"Delta":62075502},{"NoteNumber":71,"Velocity":59,"Duration":91019,"SoundDuration":91019,"Delta":62075502},{"NoteNumber":68,"Velocity":59,"Duration":91019,"SoundDuration":91019,"Delta":62075502},{"NoteNumber":61,"Velocity":56,"Duration":91019,"SoundDuration":91019,"Delta":62075502},{"NoteNumber":77,"Velocity":75,"Duration":93574,"SoundDuration":93574,"Delta":62258682},{"NoteNumber":71,"Velocity":63,"Duration":93574,"SoundDuration":93574,"Delta":62258682},{"NoteNumber":68,"Velocity":63,"Duration":93574,"SoundDuration":93574,"Delta":62258682},{"NoteNumber":61,"Velocity":58,"Duration":93574,"SoundDuration":93574,"Delta":62258682},{"NoteNumber":78,"Velocity":77,"Duration":91019,"SoundDuration":91019,"Delta":62445256},{"NoteNumber":82,"Velocity":77,"Duration":91019,"SoundDuration":91019,"Delta":62445256},{"NoteNumber":85,"Velocity":77,"Duration":91019,"SoundDuration":91019,"Delta":62445256},{"NoteNumber":88,"Velocity":91,"Duration":91019,"SoundDuration":91019,"Delta":62445256},{"NoteNumber":90,"Velocity":91,"Duration":91019,"SoundDuration":91019,"Delta":62445256},{"NoteNumber":54,"Velocity":60,"Duration":91019,"SoundDuration":91019,"Delta":62445256},{"NoteNumber":58,"Velocity":60,"Duration":91019,"SoundDuration":91019,"Delta":62445256},{"NoteNumber":61,"Velocity":60,"Duration":91019,"SoundDuration":91019,"Delta":62445256},{"NoteNumber":64,"Velocity":71,"Duration":91019,"SoundDuration":91019,"Delta":62445256},{"NoteNumber":79,"Velocity":70,"Duration":91019,"SoundDuration":91019,"Delta":62627295},{"NoteNumber":82,"Velocity":70,"Duration":91019,"SoundDuration":91019,"Delta":62627295},{"NoteNumber":85,"Velocity":70,"Duration":91019,"SoundDuration":91019,"Delta":62627295},{"NoteNumber":88,"Velocity":83,"Duration":91019,"SoundDuration":91019,"Delta":62627295},{"NoteNumber":91,"Velocity":83,"Duration":91019,"SoundDuration":91019,"Delta":62627295},{"NoteNumber":64,"Velocity":59,"Duration":91019,"SoundDuration":91019,"Delta":62627295},{"NoteNumber":61,"Velocity":49,"Duration":91019,"SoundDuration":91019,"Delta":62627295},{"NoteNumber":58,"Velocity":49,"Duration":91019,"SoundDuration":91019,"Delta":62627295},{"NoteNumber":54,"Velocity":49,"Duration":91019,"SoundDuration":91019,"Delta":62627295},{"NoteNumber":79,"Velocity":70,"Duration":91019,"SoundDuration":91019,"Delta":62809334},{"NoteNumber":82,"Velocity":70,"Duration":91019,"SoundDuration":91019,"Delta":62809334},{"NoteNumber":85,"Velocity":70,"Duration":91019,"SoundDuration":91019,"Delta":62809334},{"NoteNumber":88,"Velocity":83,"Duration":91019,"SoundDuration":91019,"Delta":62809334},{"NoteNumber":91,"Velocity":83,"Duration":91019,"SoundDuration":91019,"Delta":62809334},{"NoteNumber":64,"Velocity":59,"Duration":91019,"SoundDuration":91019,"Delta":62809334},{"NoteNumber":61,"Velocity":49,"Duration":91019,"SoundDuration":91019,"Delta":62809334},{"NoteNumber":58,"Velocity":49,"Duration":91019,"SoundDuration":91019,"Delta":62809334},{"NoteNumber":54,"Velocity":49,"Duration":91019,"SoundDuration":91019,"Delta":62809334},{"NoteNumber":79,"Velocity":70,"Duration":91019,"SoundDuration":91019,"Delta":62991373},{"NoteNumber":82,"Velocity":70,"Duration":91019,"SoundDuration":91019,"Delta":62991373},{"NoteNumber":85,"Velocity":70,"Duration":91019,"SoundDuration":91019,"Delta":62991373},{"NoteNumber":88,"Velocity":83,"Duration":91019,"SoundDuration":91019,"Delta":62991373},{"NoteNumber":91,"Velocity":83,"Duration":91019,"SoundDuration":91019,"Delta":62991373},{"NoteNumber":64,"Velocity":59,"Duration":91019,"SoundDuration":91019,"Delta":62991373},{"NoteNumber":61,"Velocity":49,"Duration":91019,"SoundDuration":91019,"Delta":62991373},{"NoteNumber":58,"Velocity":49,"Duration":91019,"SoundDuration":91019,"Delta":62991373},{"NoteNumber":54,"Velocity":49,"Duration":91019,"SoundDuration":91019,"Delta":62991373},{"NoteNumber":79,"Velocity":70,"Duration":91019,"SoundDuration":91019,"Delta":63173412},{"NoteNumber":82,"Velocity":70,"Duration":91019,"SoundDuration":91019,"Delta":63173412},{"NoteNumber":85,"Velocity":70,"Duration":91019,"SoundDuration":91019,"Delta":63173412},{"NoteNumber":88,"Velocity":83,"Duration":91019,"SoundDuration":91019,"Delta":63173412},{"NoteNumber":91,"Velocity":83,"Duration":91019,"SoundDuration":91019,"Delta":63173412},{"NoteNumber":64,"Velocity":59,"Duration":91019,"SoundDuration":91019,"Delta":63173412},{"NoteNumber":61,"Velocity":49,"Duration":91019,"SoundDuration":91019,"Delta":63173412},{"NoteNumber":58,"Velocity":49,"Duration":91019,"SoundDuration":91019,"Delta":63173412},{"NoteNumber":54,"Velocity":49,"Duration":91019,"SoundDuration":91019,"Delta":63173412},{"NoteNumber":79,"Velocity":70,"Duration":95056,"SoundDuration":95056,"Delta":63355451},{"NoteNumber":82,"Velocity":70,"Duration":95056,"SoundDuration":95056,"Delta":63355451},{"NoteNumber":85,"Velocity":70,"Duration":95056,"SoundDuration":95056,"Delta":63355451},{"NoteNumber":88,"Velocity":83,"Duration":95056,"SoundDuration":95056,"Delta":63355451},{"NoteNumber":91,"Velocity":83,"Duration":95056,"SoundDuration":95056,"Delta":63355451},{"NoteNumber":64,"Velocity":59,"Duration":95056,"SoundDuration":95056,"Delta":63355451},{"NoteNumber":61,"Velocity":49,"Duration":95056,"SoundDuration":95056,"Delta":63355451},{"NoteNumber":58,"Velocity":49,"Duration":95056,"SoundDuration":95056,"Delta":63355451},{"NoteNumber":54,"Velocity":49,"Duration":95056,"SoundDuration":95056,"Delta":63355451},{"NoteNumber":79,"Velocity":71,"Duration":93205,"SoundDuration":93205,"Delta":63545565},{"NoteNumber":82,"Velocity":71,"Duration":93205,"SoundDuration":93205,"Delta":63545565},{"NoteNumber":85,"Velocity":71,"Duration":93205,"SoundDuration":93205,"Delta":63545565},{"NoteNumber":88,"Velocity":85,"Duration":93205,"SoundDuration":93205,"Delta":63545565},{"NoteNumber":91,"Velocity":85,"Duration":93205,"SoundDuration":93205,"Delta":63545565},{"NoteNumber":64,"Velocity":64,"Duration":93205,"SoundDuration":93205,"Delta":63545565},{"NoteNumber":61,"Velocity":53,"Duration":93205,"SoundDuration":93205,"Delta":63545565},{"NoteNumber":58,"Velocity":53,"Duration":93205,"SoundDuration":93205,"Delta":63545565},{"NoteNumber":54,"Velocity":53,"Duration":93205,"SoundDuration":93205,"Delta":63545565},{"NoteNumber":79,"Velocity":65,"Duration":94518,"SoundDuration":94518,"Delta":63732543},{"NoteNumber":82,"Velocity":65,"Duration":94518,"SoundDuration":94518,"Delta":63732543},{"NoteNumber":85,"Velocity":65,"Duration":94518,"SoundDuration":94518,"Delta":63732543},{"NoteNumber":88,"Velocity":77,"Duration":94518,"SoundDuration":94518,"Delta":63732543},{"NoteNumber":91,"Velocity":77,"Duration":94518,"SoundDuration":94518,"Delta":63732543},{"NoteNumber":54,"Velocity":51,"Duration":94518,"SoundDuration":94518,"Delta":63732543},{"NoteNumber":58,"Velocity":51,"Duration":94518,"SoundDuration":94518,"Delta":63732543},{"NoteNumber":61,"Velocity":51,"Duration":94518,"SoundDuration":94518,"Delta":63732543},{"NoteNumber":64,"Velocity":60,"Duration":94518,"SoundDuration":94518,"Delta":63732543},{"NoteNumber":79,"Velocity":63,"Duration":96031,"SoundDuration":96031,"Delta":63922323},{"NoteNumber":82,"Velocity":63,"Duration":96031,"SoundDuration":96031,"Delta":63922323},{"NoteNumber":85,"Velocity":63,"Duration":96031,"SoundDuration":96031,"Delta":63922323},{"NoteNumber":88,"Velocity":74,"Duration":96031,"SoundDuration":96031,"Delta":63922323},{"NoteNumber":91,"Velocity":74,"Duration":96031,"SoundDuration":96031,"Delta":63922323},{"NoteNumber":54,"Velocity":47,"Duration":96031,"SoundDuration":96031,"Delta":63922323},{"NoteNumber":58,"Velocity":47,"Duration":96031,"SoundDuration":96031,"Delta":63922323},{"NoteNumber":61,"Velocity":47,"Duration":96031,"SoundDuration":96031,"Delta":63922323},{"NoteNumber":64,"Velocity":57,"Duration":96031,"SoundDuration":96031,"Delta":63922323},{"NoteNumber":79,"Velocity":57,"Duration":97593,"SoundDuration":97593,"Delta":64115153},{"NoteNumber":82,"Velocity":57,"Duration":97593,"SoundDuration":97593,"Delta":64115153},{"NoteNumber":85,"Velocity":57,"Duration":97593,"SoundDuration":97593,"Delta":64115153},{"NoteNumber":88,"Velocity":67,"Duration":97593,"SoundDuration":97593,"Delta":64115153},{"NoteNumber":91,"Velocity":67,"Duration":97593,"SoundDuration":97593,"Delta":64115153},{"NoteNumber":54,"Velocity":44,"Duration":97593,"SoundDuration":97593,"Delta":64115153},{"NoteNumber":58,"Velocity":44,"Duration":97593,"SoundDuration":97593,"Delta":64115153},{"NoteNumber":61,"Velocity":44,"Duration":97593,"SoundDuration":97593,"Delta":64115153},{"NoteNumber":64,"Velocity":52,"Duration":97593,"SoundDuration":97593,"Delta":64115153},{"NoteNumber":79,"Velocity":51,"Duration":99207,"SoundDuration":99207,"Delta":64311132},{"NoteNumber":82,"Velocity":51,"Duration":99207,"SoundDuration":99207,"Delta":64311132},{"NoteNumber":85,"Velocity":51,"Duration":99207,"SoundDuration":99207,"Delta":64311132},{"NoteNumber":88,"Velocity":60,"Duration":99207,"SoundDuration":99207,"Delta":64311132},{"NoteNumber":91,"Velocity":60,"Duration":99207,"SoundDuration":99207,"Delta":64311132},{"NoteNumber":54,"Velocity":39,"Duration":99207,"SoundDuration":99207,"Delta":64311132},{"NoteNumber":58,"Velocity":39,"Duration":99207,"SoundDuration":99207,"Delta":64311132},{"NoteNumber":61,"Velocity":39,"Duration":99207,"SoundDuration":99207,"Delta":64311132},{"NoteNumber":64,"Velocity":47,"Duration":99207,"SoundDuration":99207,"Delta":64311132},{"NoteNumber":79,"Velocity":47,"Duration":109329,"SoundDuration":109329,"Delta":64510289},{"NoteNumber":82,"Velocity":47,"Duration":109329,"SoundDuration":109329,"Delta":64510289},{"NoteNumber":85,"Velocity":47,"Duration":109329,"SoundDuration":109329,"Delta":64510289},{"NoteNumber":88,"Velocity":56,"Duration":109329,"SoundDuration":109329,"Delta":64510289},{"NoteNumber":91,"Velocity":56,"Duration":109329,"SoundDuration":109329,"Delta":64510289},{"NoteNumber":54,"Velocity":39,"Duration":109329,"SoundDuration":109329,"Delta":64510289},{"NoteNumber":58,"Velocity":39,"Duration":109329,"SoundDuration":109329,"Delta":64510289},{"NoteNumber":61,"Velocity":39,"Duration":109329,"SoundDuration":109329,"Delta":64510289},{"NoteNumber":64,"Velocity":46,"Duration":109329,"SoundDuration":109329,"Delta":64510289},{"NoteNumber":91,"Velocity":56,"Duration":397878,"SoundDuration":397878,"Delta":64728948},{"NoteNumber":79,"Velocity":56,"Duration":397878,"SoundDuration":397878,"Delta":64728948},{"NoteNumber":47,"Velocity":40,"Duration":99469,"SoundDuration":99469,"Delta":64728948},{"NoteNumber":62,"Velocity":34,"Duration":99469,"SoundDuration":99469,"Delta":64828418},{"NoteNumber":54,"Velocity":37,"Duration":99469,"SoundDuration":99469,"Delta":64927887},{"NoteNumber":62,"Velocity":34,"Duration":99469,"SoundDuration":99469,"Delta":65027357},{"NoteNumber":90,"Velocity":56,"Duration":1193633,"SoundDuration":1193633,"Delta":65126826},{"NoteNumber":78,"Velocity":56,"Duration":1193633,"SoundDuration":1193633,"Delta":65126826},{"NoteNumber":49,"Velocity":40,"Duration":99469,"SoundDuration":99469,"Delta":65126826},{"NoteNumber":64,"Velocity":34,"Duration":99469,"SoundDuration":99469,"Delta":65226296},{"NoteNumber":54,"Velocity":37,"Duration":99469,"SoundDuration":99469,"Delta":65325765},{"NoteNumber":64,"Velocity":34,"Duration":99469,"SoundDuration":99469,"Delta":65425235},{"NoteNumber":50,"Velocity":40,"Duration":99469,"SoundDuration":99469,"Delta":65524704},{"NoteNumber":66,"Velocity":35,"Duration":99469,"SoundDuration":99469,"Delta":65624174},{"NoteNumber":54,"Velocity":38,"Duration":99469,"SoundDuration":99469,"Delta":65723643},{"NoteNumber":66,"Velocity":35,"Duration":99469,"SoundDuration":99469,"Delta":65823113},{"NoteNumber":47,"Velocity":40,"Duration":99469,"SoundDuration":99469,"Delta":65922582},{"NoteNumber":62,"Velocity":34,"Duration":99469,"SoundDuration":99469,"Delta":66022052},{"NoteNumber":54,"Velocity":37,"Duration":99469,"SoundDuration":99469,"Delta":66121521},{"NoteNumber":62,"Velocity":34,"Duration":99469,"SoundDuration":99469,"Delta":66220991},{"NoteNumber":71,"Velocity":56,"Duration":1193634,"SoundDuration":1193634,"Delta":66320460},{"NoteNumber":83,"Velocity":56,"Duration":1193634,"SoundDuration":1193634,"Delta":66320460},{"NoteNumber":49,"Velocity":40,"Duration":99469,"SoundDuration":99469,"Delta":66320460},{"NoteNumber":64,"Velocity":34,"Duration":99469,"SoundDuration":99469,"Delta":66419930},{"NoteNumber":54,"Velocity":37,"Duration":99469,"SoundDuration":99469,"Delta":66519399},{"NoteNumber":64,"Velocity":34,"Duration":99469,"SoundDuration":99469,"Delta":66618869},{"NoteNumber":50,"Velocity":40,"Duration":99469,"SoundDuration":99469,"Delta":66718338},{"NoteNumber":66,"Velocity":35,"Duration":99469,"SoundDuration":99469,"Delta":66817808},{"NoteNumber":54,"Velocity":38,"Duration":99469,"SoundDuration":99469,"Delta":66917277},{"NoteNumber":66,"Velocity":35,"Duration":99469,"SoundDuration":99469,"Delta":67016747},{"NoteNumber":47,"Velocity":40,"Duration":99469,"SoundDuration":99469,"Delta":67116216},{"NoteNumber":62,"Velocity":34,"Duration":99469,"SoundDuration":99469,"Delta":67215686},{"NoteNumber":54,"Velocity":37,"Duration":99469,"SoundDuration":99469,"Delta":67315155},{"NoteNumber":62,"Velocity":34,"Duration":99469,"SoundDuration":99469,"Delta":67414625},{"NoteNumber":66,"Velocity":56,"Duration":1193634,"SoundDuration":1193634,"Delta":67514094},{"NoteNumber":78,"Velocity":56,"Duration":1193634,"SoundDuration":1193634,"Delta":67514094},{"NoteNumber":49,"Velocity":40,"Duration":99469,"SoundDuration":99469,"Delta":67514094},{"NoteNumber":64,"Velocity":34,"Duration":99469,"SoundDuration":99469,"Delta":67613564},{"NoteNumber":54,"Velocity":37,"Duration":99469,"SoundDuration":99469,"Delta":67713033},{"NoteNumber":64,"Velocity":34,"Duration":99469,"SoundDuration":99469,"Delta":67812503},{"NoteNumber":50,"Velocity":40,"Duration":99469,"SoundDuration":99469,"Delta":67911972},{"NoteNumber":66,"Velocity":35,"Duration":99469,"SoundDuration":99469,"Delta":68011442},{"NoteNumber":54,"Velocity":38,"Duration":99469,"SoundDuration":99469,"Delta":68110911},{"NoteNumber":66,"Velocity":35,"Duration":99469,"SoundDuration":99469,"Delta":68210381},{"NoteNumber":47,"Velocity":40,"Duration":99469,"SoundDuration":99469,"Delta":68309850},{"NoteNumber":62,"Velocity":34,"Duration":99469,"SoundDuration":99469,"Delta":68409320},{"NoteNumber":54,"Velocity":37,"Duration":99469,"SoundDuration":99469,"Delta":68508789},{"NoteNumber":62,"Velocity":34,"Duration":99469,"SoundDuration":99469,"Delta":68608259},{"NoteNumber":59,"Velocity":56,"Duration":795755,"SoundDuration":795755,"Delta":68707728},{"NoteNumber":71,"Velocity":56,"Duration":1193634,"SoundDuration":1193634,"Delta":68707728},{"NoteNumber":49,"Velocity":40,"Duration":99469,"SoundDuration":99469,"Delta":68707728},{"NoteNumber":64,"Velocity":34,"Duration":99469,"SoundDuration":99469,"Delta":68807198},{"NoteNumber":54,"Velocity":37,"Duration":99469,"SoundDuration":99469,"Delta":68906667},{"NoteNumber":64,"Velocity":34,"Duration":99469,"SoundDuration":99469,"Delta":69006137},{"NoteNumber":50,"Velocity":40,"Duration":99469,"SoundDuration":99469,"Delta":69105606},{"NoteNumber":66,"Velocity":35,"Duration":99469,"SoundDuration":99469,"Delta":69205076},{"NoteNumber":54,"Velocity":38,"Duration":99469,"SoundDuration":99469,"Delta":69304545},{"NoteNumber":66,"Velocity":35,"Duration":99469,"SoundDuration":99469,"Delta":69404015},{"NoteNumber":52,"Velocity":40,"Duration":99469,"SoundDuration":99469,"Delta":69503484},{"NoteNumber":62,"Velocity":34,"Duration":99469,"SoundDuration":99469,"Delta":69602954},{"NoteNumber":59,"Velocity":37,"Duration":99469,"SoundDuration":99469,"Delta":69702423},{"NoteNumber":62,"Velocity":34,"Duration":99469,"SoundDuration":99469,"Delta":69801893},{"NoteNumber":67,"Velocity":63,"Duration":399876,"SoundDuration":399876,"Delta":69901362},{"NoteNumber":53,"Velocity":49,"Duration":99469,"SoundDuration":99469,"Delta":69901362},{"NoteNumber":62,"Velocity":34,"Duration":99469,"SoundDuration":99469,"Delta":70000832},{"NoteNumber":59,"Velocity":42,"Duration":100468,"SoundDuration":100468,"Delta":70100301},{"NoteNumber":62,"Velocity":34,"Duration":100468,"SoundDuration":100468,"Delta":70200770},{"NoteNumber":66,"Velocity":57,"Duration":396782,"SoundDuration":396782,"Delta":70301239},{"NoteNumber":54,"Velocity":48,"Duration":100468,"SoundDuration":100468,"Delta":70301239},{"NoteNumber":62,"Velocity":35,"Duration":100468,"SoundDuration":100468,"Delta":70401708},{"NoteNumber":59,"Velocity":38,"Duration":102179,"SoundDuration":102179,"Delta":70502176},{"NoteNumber":62,"Velocity":38,"Duration":102179,"SoundDuration":102179,"Delta":70604356},{"NoteNumber":66,"Velocity":65,"Duration":795755,"SoundDuration":795755,"Delta":70706536},{"NoteNumber":54,"Velocity":51,"Duration":99469,"SoundDuration":99469,"Delta":70706536},{"NoteNumber":62,"Velocity":39,"Duration":99469,"SoundDuration":99469,"Delta":70806005},{"NoteNumber":59,"Velocity":42,"Duration":99469,"SoundDuration":99469,"Delta":70905475},{"NoteNumber":62,"Velocity":39,"Duration":99469,"SoundDuration":99469,"Delta":71004944},{"NoteNumber":54,"Velocity":48,"Duration":99469,"SoundDuration":99469,"Delta":71104414},{"NoteNumber":62,"Velocity":38,"Duration":99469,"SoundDuration":99469,"Delta":71203883},{"NoteNumber":59,"Velocity":39,"Duration":99469,"SoundDuration":99469,"Delta":71303353},{"NoteNumber":62,"Velocity":38,"Duration":99469,"SoundDuration":99469,"Delta":71402822},{"NoteNumber":70,"Velocity":58,"Duration":415291,"SoundDuration":415291,"Delta":71502292},{"NoteNumber":54,"Velocity":45,"Duration":101488,"SoundDuration":101488,"Delta":71502292},{"NoteNumber":64,"Velocity":41,"Duration":101488,"SoundDuration":101488,"Delta":71603780},{"NoteNumber":61,"Velocity":45,"Duration":106156,"SoundDuration":106156,"Delta":71705269},{"NoteNumber":64,"Velocity":40,"Duration":106157,"SoundDuration":106157,"Delta":71811426},{"NoteNumber":71,"Velocity":56,"Duration":195694,"SoundDuration":195694,"Delta":71917583},{"NoteNumber":47,"Velocity":40,"Duration":97847,"SoundDuration":97847,"Delta":71917583},{"NoteNumber":62,"Velocity":36,"Duration":97847,"SoundDuration":97847,"Delta":72015430},{"NoteNumber":79,"Velocity":68,"Duration":204359,"SoundDuration":204359,"Delta":72113277},{"NoteNumber":54,"Velocity":41,"Duration":102179,"SoundDuration":102179,"Delta":72113277},{"NoteNumber":62,"Velocity":40,"Duration":102179,"SoundDuration":102179,"Delta":72215457},{"NoteNumber":91,"Velocity":74,"Duration":594844,"SoundDuration":594844,"Delta":72317637},{"NoteNumber":49,"Velocity":50,"Duration":99140,"SoundDuration":99140,"Delta":72317637},{"NoteNumber":64,"Velocity":41,"Duration":99140,"SoundDuration":99140,"Delta":72416778},{"NoteNumber":54,"Velocity":44,"Duration":99140,"SoundDuration":99140,"Delta":72515918},{"NoteNumber":64,"Velocity":39,"Duration":99140,"SoundDuration":99140,"Delta":72615059},{"NoteNumber":50,"Velocity":45,"Duration":99140,"SoundDuration":99140,"Delta":72714200},{"NoteNumber":66,"Velocity":38,"Duration":99140,"SoundDuration":99140,"Delta":72813341},{"NoteNumber":90,"Velocity":56,"Duration":198281,"SoundDuration":198281,"Delta":72912481},{"NoteNumber":54,"Velocity":40,"Duration":99140,"SoundDuration":99140,"Delta":72912481},{"NoteNumber":66,"Velocity":36,"Duration":99140,"SoundDuration":99140,"Delta":73011622},{"NoteNumber":47,"Velocity":40,"Duration":96587,"SoundDuration":96587,"Delta":73110763},{"NoteNumber":62,"Velocity":36,"Duration":96587,"SoundDuration":96587,"Delta":73207350},{"NoteNumber":90,"Velocity":69,"Duration":198281,"SoundDuration":198281,"Delta":73303937},{"NoteNumber":54,"Velocity":41,"Duration":99140,"SoundDuration":99140,"Delta":73303937},{"NoteNumber":62,"Velocity":40,"Duration":99140,"SoundDuration":99140,"Delta":73403078},{"NoteNumber":85,"Velocity":66,"Duration":594844,"SoundDuration":594844,"Delta":73502219},{"NoteNumber":49,"Velocity":50,"Duration":99140,"SoundDuration":99140,"Delta":73502219},{"NoteNumber":64,"Velocity":41,"Duration":99140,"SoundDuration":99140,"Delta":73601360},{"NoteNumber":54,"Velocity":44,"Duration":99140,"SoundDuration":99140,"Delta":73700500},{"NoteNumber":64,"Velocity":39,"Duration":99140,"SoundDuration":99140,"Delta":73799641},{"NoteNumber":50,"Velocity":45,"Duration":99140,"SoundDuration":99140,"Delta":73898782},{"NoteNumber":66,"Velocity":38,"Duration":99140,"SoundDuration":99140,"Delta":73997923},{"NoteNumber":83,"Velocity":51,"Duration":198281,"SoundDuration":198281,"Delta":74097063},{"NoteNumber":54,"Velocity":40,"Duration":99140,"SoundDuration":99140,"Delta":74097063},{"NoteNumber":66,"Velocity":36,"Duration":99140,"SoundDuration":99140,"Delta":74196204},{"NoteNumber":47,"Velocity":40,"Duration":96899,"SoundDuration":96899,"Delta":74295345},{"NoteNumber":62,"Velocity":36,"Duration":96899,"SoundDuration":96899,"Delta":74392244},{"NoteNumber":83,"Velocity":73,"Duration":198281,"SoundDuration":198281,"Delta":74489143},{"NoteNumber":54,"Velocity":41,"Duration":99140,"SoundDuration":99140,"Delta":74489143},{"NoteNumber":62,"Velocity":40,"Duration":99140,"SoundDuration":99140,"Delta":74588284},{"NoteNumber":79,"Velocity":70,"Duration":594844,"SoundDuration":594844,"Delta":74687425},{"NoteNumber":49,"Velocity":50,"Duration":99140,"SoundDuration":99140,"Delta":74687425},{"NoteNumber":64,"Velocity":41,"Duration":99140,"SoundDuration":99140,"Delta":74786566},{"NoteNumber":54,"Velocity":44,"Duration":99140,"SoundDuration":99140,"Delta":74885706},{"NoteNumber":64,"Velocity":39,"Duration":99140,"SoundDuration":99140,"Delta":74984847},{"NoteNumber":50,"Velocity":45,"Duration":99140,"SoundDuration":99140,"Delta":75083988},{"NoteNumber":66,"Velocity":38,"Duration":99140,"SoundDuration":99140,"Delta":75183129},{"NoteNumber":78,"Velocity":53,"Duration":198281,"SoundDuration":198281,"Delta":75282269},{"NoteNumber":54,"Velocity":40,"Duration":99140,"SoundDuration":99140,"Delta":75282269},{"NoteNumber":66,"Velocity":36,"Duration":99140,"SoundDuration":99140,"Delta":75381410},{"NoteNumber":47,"Velocity":40,"Duration":96899,"SoundDuration":96899,"Delta":75480551},{"NoteNumber":62,"Velocity":36,"Duration":96899,"SoundDuration":96899,"Delta":75577450},{"NoteNumber":78,"Velocity":70,"Duration":198938,"SoundDuration":198938,"Delta":75674349},{"NoteNumber":54,"Velocity":41,"Duration":99469,"SoundDuration":99469,"Delta":75674349},{"NoteNumber":62,"Velocity":40,"Duration":99469,"SoundDuration":99469,"Delta":75773819},{"NoteNumber":73,"Velocity":65,"Duration":596817,"SoundDuration":596817,"Delta":75873288},{"NoteNumber":49,"Velocity":50,"Duration":99469,"SoundDuration":99469,"Delta":75873288},{"NoteNumber":64,"Velocity":41,"Duration":99469,"SoundDuration":99469,"Delta":75972758},{"NoteNumber":54,"Velocity":44,"Duration":99469,"SoundDuration":99469,"Delta":76072227},{"NoteNumber":64,"Velocity":39,"Duration":99469,"SoundDuration":99469,"Delta":76171697},{"NoteNumber":50,"Velocity":45,"Duration":99469,"SoundDuration":99469,"Delta":76271166},{"NoteNumber":66,"Velocity":38,"Duration":99469,"SoundDuration":99469,"Delta":76370636},{"NoteNumber":71,"Velocity":56,"Duration":197188,"SoundDuration":197188,"Delta":76470105},{"NoteNumber":54,"Velocity":40,"Duration":102880,"SoundDuration":102880,"Delta":76470105},{"NoteNumber":66,"Velocity":36,"Duration":102880,"SoundDuration":102880,"Delta":76572986},{"NoteNumber":71,"Velocity":63,"Duration":397878,"SoundDuration":397878,"Delta":76675867},{"NoteNumber":52,"Velocity":40,"Duration":99469,"SoundDuration":99469,"Delta":76675867},{"NoteNumber":62,"Velocity":34,"Duration":99469,"SoundDuration":99469,"Delta":76775336},{"NoteNumber":59,"Velocity":37,"Duration":99469,"SoundDuration":99469,"Delta":76874806},{"NoteNumber":62,"Velocity":34,"Duration":99469,"SoundDuration":99469,"Delta":76974275},{"NoteNumber":67,"Velocity":63,"Duration":401875,"SoundDuration":401875,"Delta":77073745},{"NoteNumber":53,"Velocity":49,"Duration":100468,"SoundDuration":100468,"Delta":77073745},{"NoteNumber":62,"Velocity":34,"Duration":100468,"SoundDuration":100468,"Delta":77174214},{"NoteNumber":59,"Velocity":42,"Duration":100468,"SoundDuration":100468,"Delta":77274682},{"NoteNumber":62,"Velocity":34,"Duration":100468,"SoundDuration":100468,"Delta":77375151},{"NoteNumber":66,"Velocity":65,"Duration":402949,"SoundDuration":402949,"Delta":77475620},{"NoteNumber":54,"Velocity":48,"Duration":102880,"SoundDuration":102880,"Delta":77475620},{"NoteNumber":62,"Velocity":35,"Duration":102880,"SoundDuration":102880,"Delta":77578501},{"NoteNumber":59,"Velocity":38,"Duration":102880,"SoundDuration":102880,"Delta":77681381},{"NoteNumber":62,"Velocity":38,"Duration":102880,"SoundDuration":102880,"Delta":77784262},{"NoteNumber":66,"Velocity":71,"Duration":196979,"SoundDuration":196979,"Delta":77887143},{"NoteNumber":54,"Velocity":53,"Duration":788763,"SoundDuration":788763,"Delta":77887143},{"NoteNumber":62,"Velocity":65,"Duration":198281,"SoundDuration":198281,"Delta":78084122},{"NoteNumber":59,"Velocity":71,"Duration":200937,"SoundDuration":200937,"Delta":78282404},{"NoteNumber":55,"Velocity":65,"Duration":200937,"SoundDuration":200937,"Delta":78483341},{"NoteNumber":54,"Velocity":70,"Duration":209350,"SoundDuration":209350,"Delta":78684279},{"NoteNumber":42,"Velocity":57,"Duration":422419,"SoundDuration":422419,"Delta":78684279},{"NoteNumber":30,"Velocity":48,"Duration":422419,"SoundDuration":422419,"Delta":78684279},{"NoteNumber":58,"Velocity":76,"Duration":213068,"SoundDuration":213068,"Delta":78893630},{"NoteNumber":59,"Velocity":80,"Duration":385108,"SoundDuration":385108,"Delta":79106698},{"NoteNumber":47,"Velocity":93,"Duration":96277,"SoundDuration":96277,"Delta":79106698},{"NoteNumber":35,"Velocity":79,"Duration":96277,"SoundDuration":96277,"Delta":79106698},{"NoteNumber":49,"Velocity":81,"Duration":96277,"SoundDuration":96277,"Delta":79299252},{"NoteNumber":37,"Velocity":69,"Duration":96277,"SoundDuration":96277,"Delta":79299252},{"NoteNumber":50,"Velocity":81,"Duration":98167,"SoundDuration":98167,"Delta":79491807},{"NoteNumber":38,"Velocity":69,"Duration":98167,"SoundDuration":98167,"Delta":79491807},{"NoteNumber":52,"Velocity":88,"Duration":105782,"SoundDuration":105782,"Delta":79688142},{"NoteNumber":40,"Velocity":72,"Duration":105782,"SoundDuration":105782,"Delta":79688142},{"NoteNumber":54,"Velocity":94,"Duration":1589208,"SoundDuration":1589208,"Delta":79899707},{"NoteNumber":42,"Velocity":80,"Duration":1589208,"SoundDuration":1589208,"Delta":79899707},{"NoteNumber":59,"Velocity":79,"Duration":1181877,"SoundDuration":1181877,"Delta":80307039},{"NoteNumber":55,"Velocity":67,"Duration":1181877,"SoundDuration":1181877,"Delta":80307039},{"NoteNumber":60,"Velocity":34,"Duration":801068,"SoundDuration":801068,"Delta":81488916},{"NoteNumber":55,"Velocity":28,"Duration":1201601,"SoundDuration":1201601,"Delta":81488916},{"NoteNumber":40,"Velocity":37,"Duration":1201601,"SoundDuration":1201601,"Delta":81488916},{"NoteNumber":52,"Velocity":44,"Duration":1201601,"SoundDuration":1201601,"Delta":81488916},{"NoteNumber":67,"Velocity":39,"Duration":1191047,"SoundDuration":1191047,"Delta":82289984},{"NoteNumber":64,"Velocity":27,"Duration":1202037,"SoundDuration":1202037,"Delta":82690518},{"NoteNumber":58,"Velocity":27,"Duration":1202037,"SoundDuration":1202037,"Delta":82690518},{"NoteNumber":61,"Velocity":27,"Duration":1202037,"SoundDuration":1202037,"Delta":82690518},{"NoteNumber":54,"Velocity":43,"Duration":1202037,"SoundDuration":1202037,"Delta":82690518},{"NoteNumber":42,"Velocity":36,"Duration":1202037,"SoundDuration":1202037,"Delta":82690518},{"NoteNumber":66,"Velocity":33,"Duration":402949,"SoundDuration":402949,"Delta":83481032},{"NoteNumber":66,"Velocity":40,"Duration":385108,"SoundDuration":385108,"Delta":83892555},{"NoteNumber":62,"Velocity":34,"Duration":385108,"SoundDuration":385108,"Delta":83892555},{"NoteNumber":59,"Velocity":34,"Duration":385108,"SoundDuration":385108,"Delta":83892555},{"NoteNumber":47,"Velocity":93,"Duration":96277,"SoundDuration":96277,"Delta":83892555},{"NoteNumber":35,"Velocity":79,"Duration":96277,"SoundDuration":96277,"Delta":83892555},{"NoteNumber":49,"Velocity":81,"Duration":96277,"SoundDuration":96277,"Delta":84085110},{"NoteNumber":37,"Velocity":69,"Duration":96277,"SoundDuration":96277,"Delta":84085110},{"NoteNumber":50,"Velocity":81,"Duration":98167,"SoundDuration":98167,"Delta":84277664},{"NoteNumber":38,"Velocity":69,"Duration":98167,"SoundDuration":98167,"Delta":84277664},{"NoteNumber":52,"Velocity":88,"Duration":105782,"SoundDuration":105782,"Delta":84473999},{"NoteNumber":40,"Velocity":72,"Duration":105782,"SoundDuration":105782,"Delta":84473999},{"NoteNumber":54,"Velocity":94,"Duration":1589208,"SoundDuration":1589208,"Delta":84685565},{"NoteNumber":42,"Velocity":80,"Duration":1589208,"SoundDuration":1589208,"Delta":84685565},{"NoteNumber":59,"Velocity":79,"Duration":1181877,"SoundDuration":1181877,"Delta":85092897},{"NoteNumber":55,"Velocity":67,"Duration":1181877,"SoundDuration":1181877,"Delta":85092897},{"NoteNumber":60,"Velocity":34,"Duration":801068,"SoundDuration":801068,"Delta":86274774},{"NoteNumber":55,"Velocity":28,"Duration":1201601,"SoundDuration":1201601,"Delta":86274774},{"NoteNumber":40,"Velocity":37,"Duration":1201601,"SoundDuration":1201601,"Delta":86274774},{"NoteNumber":52,"Velocity":44,"Duration":1201601,"SoundDuration":1201601,"Delta":86274774},{"NoteNumber":67,"Velocity":39,"Duration":1191047,"SoundDuration":1191047,"Delta":87075842},{"NoteNumber":64,"Velocity":27,"Duration":1191047,"SoundDuration":1191047,"Delta":87476376},{"NoteNumber":58,"Velocity":27,"Duration":1191047,"SoundDuration":1191047,"Delta":87476376},{"NoteNumber":61,"Velocity":27,"Duration":1191047,"SoundDuration":1191047,"Delta":87476376},{"NoteNumber":42,"Velocity":24,"Duration":1191047,"SoundDuration":1191047,"Delta":87476376},{"NoteNumber":54,"Velocity":29,"Duration":1191047,"SoundDuration":1191047,"Delta":87476376},{"NoteNumber":66,"Velocity":33,"Duration":392189,"SoundDuration":392189,"Delta":88266890},{"NoteNumber":67,"Velocity":39,"Duration":1197259,"SoundDuration":1197259,"Delta":89491250},{"NoteNumber":59,"Velocity":24,"Duration":1189689,"SoundDuration":1189689,"Delta":89873077},{"NoteNumber":62,"Velocity":24,"Duration":1189689,"SoundDuration":1189689,"Delta":89873077},{"NoteNumber":47,"Velocity":23,"Duration":1189689,"SoundDuration":1189689,"Delta":89873077},{"NoteNumber":35,"Velocity":19,"Duration":1189689,"SoundDuration":1189689,"Delta":89873077},{"NoteNumber":66,"Velocity":33,"Duration":396563,"SoundDuration":396563,"Delta":90688510},{"NoteNumber":67,"Velocity":39,"Duration":1204260,"SoundDuration":1204260,"Delta":91878199},{"NoteNumber":61,"Velocity":24,"Duration":1225153,"SoundDuration":1225153,"Delta":92252455},{"NoteNumber":64,"Velocity":24,"Duration":1225153,"SoundDuration":1225153,"Delta":92252455},{"NoteNumber":42,"Velocity":23,"Duration":1225153,"SoundDuration":1225153,"Delta":92252455},{"NoteNumber":30,"Velocity":19,"Duration":1225153,"SoundDuration":1225153,"Delta":92252455},{"NoteNumber":70,"Velocity":33,"Duration":418701,"SoundDuration":418701,"Delta":93058907},{"NoteNumber":59,"Velocity":28,"Duration":395257,"SoundDuration":395257,"Delta":93477609},{"NoteNumber":62,"Velocity":28,"Duration":395257,"SoundDuration":395257,"Delta":93477609},{"NoteNumber":71,"Velocity":33,"Duration":395257,"SoundDuration":395257,"Delta":93477609},{"NoteNumber":35,"Velocity":19,"Duration":395257,"SoundDuration":395257,"Delta":93477609},{"NoteNumber":47,"Velocity":23,"Duration":395257,"SoundDuration":395257,"Delta":93477609},{"NoteNumber":59,"Velocity":28,"Duration":395257,"SoundDuration":395257,"Delta":94663380},{"NoteNumber":62,"Velocity":28,"Duration":395257,"SoundDuration":395257,"Delta":94663380},{"NoteNumber":71,"Velocity":33,"Duration":395257,"SoundDuration":395257,"Delta":94663380},{"NoteNumber":35,"Velocity":19,"Duration":395257,"SoundDuration":395257,"Delta":94663380},{"NoteNumber":47,"Velocity":23,"Duration":395257,"SoundDuration":395257,"Delta":94663380},{"NoteNumber":59,"Velocity":28,"Duration":395257,"SoundDuration":395257,"Delta":95849151},{"NoteNumber":62,"Velocity":28,"Duration":395257,"SoundDuration":395257,"Delta":95849151},{"NoteNumber":71,"Velocity":33,"Duration":395257,"SoundDuration":395257,"Delta":95849151},{"NoteNumber":35,"Velocity":19,"Duration":395257,"SoundDuration":395257,"Delta":95849151},{"NoteNumber":47,"Velocity":23,"Duration":395257,"SoundDuration":395257,"Delta":95849151},{"NoteNumber":71,"Velocity":33,"Duration":1177536,"SoundDuration":1177536,"Delta":97034922},{"NoteNumber":71,"Velocity":33,"Duration":1177536,"SoundDuration":1177536,"Delta":98220693},{"NoteNumber":71,"Velocity":33,"Duration":782279,"SoundDuration":782279,"Delta":99406464},{"NoteNumber":81,"Velocity":42,"Duration":100468,"SoundDuration":100468,"Delta":100196978},{"NoteNumber":71,"Velocity":34,"Duration":100468,"SoundDuration":100468,"Delta":100196978},{"NoteNumber":69,"Velocity":30,"Duration":100468,"SoundDuration":100468,"Delta":100196978},{"NoteNumber":66,"Velocity":25,"Duration":100468,"SoundDuration":100468,"Delta":100196978},{"NoteNumber":71,"Velocity":33,"Duration":100468,"SoundDuration":100468,"Delta":100397915},{"NoteNumber":71,"Velocity":34,"Duration":95056,"SoundDuration":95056,"Delta":100598853},{"NoteNumber":81,"Velocity":46,"Duration":570341,"SoundDuration":570341,"Delta":100598853},{"NoteNumber":66,"Velocity":28,"Duration":380228,"SoundDuration":380228,"Delta":100598853},{"NoteNumber":69,"Velocity":34,"Duration":380228,"SoundDuration":380228,"Delta":100598853},{"NoteNumber":71,"Velocity":30,"Duration":95057,"SoundDuration":95057,"Delta":100788967},{"NoteNumber":71,"Velocity":30,"Duration":95056,"SoundDuration":95056,"Delta":100979081},{"NoteNumber":71,"Velocity":30,"Duration":95056,"SoundDuration":95056,"Delta":101169195},{"NoteNumber":79,"Velocity":42,"Duration":190114,"SoundDuration":190114,"Delta":101169195},{"NoteNumber":71,"Velocity":30,"Duration":96899,"SoundDuration":96899,"Delta":101359309},{"NoteNumber":78,"Velocity":37,"Duration":96899,"SoundDuration":96899,"Delta":101359309},{"NoteNumber":69,"Velocity":31,"Duration":96899,"SoundDuration":96899,"Delta":101359309},{"NoteNumber":66,"Velocity":26,"Duration":96899,"SoundDuration":96899,"Delta":101359309},{"NoteNumber":71,"Velocity":30,"Duration":100806,"SoundDuration":100806,"Delta":101553107},{"NoteNumber":71,"Velocity":34,"Duration":95663,"SoundDuration":95663,"Delta":101754720},{"NoteNumber":83,"Velocity":46,"Duration":191326,"SoundDuration":191326,"Delta":101754720},{"NoteNumber":79,"Velocity":46,"Duration":191326,"SoundDuration":191326,"Delta":101754720},{"NoteNumber":64,"Velocity":28,"Duration":382653,"SoundDuration":382653,"Delta":101754720},{"NoteNumber":67,"Velocity":34,"Duration":382653,"SoundDuration":382653,"Delta":101754720},{"NoteNumber":71,"Velocity":30,"Duration":95663,"SoundDuration":95663,"Delta":101946047},{"NoteNumber":71,"Velocity":30,"Duration":95663,"SoundDuration":95663,"Delta":102137373},{"NoteNumber":71,"Velocity":30,"Duration":95663,"SoundDuration":95663,"Delta":102328700},{"NoteNumber":71,"Velocity":30,"Duration":95663,"SoundDuration":95663,"Delta":102520026},{"NoteNumber":83,"Velocity":40,"Duration":382653,"SoundDuration":382653,"Delta":102520026},{"NoteNumber":79,"Velocity":22,"Duration":382653,"SoundDuration":382653,"Delta":102520026},{"NoteNumber":67,"Velocity":31,"Duration":382653,"SoundDuration":382653,"Delta":102520026},{"NoteNumber":64,"Velocity":26,"Duration":382653,"SoundDuration":382653,"Delta":102520026},{"NoteNumber":71,"Velocity":30,"Duration":95663,"SoundDuration":95663,"Delta":102711353},{"NoteNumber":71,"Velocity":34,"Duration":95663,"SoundDuration":95663,"Delta":102902679},{"NoteNumber":83,"Velocity":46,"Duration":573979,"SoundDuration":573979,"Delta":102902679},{"NoteNumber":80,"Velocity":27,"Duration":573979,"SoundDuration":573979,"Delta":102902679},{"NoteNumber":62,"Velocity":28,"Duration":382653,"SoundDuration":382653,"Delta":102902679},{"NoteNumber":65,"Velocity":34,"Duration":382653,"SoundDuration":382653,"Delta":102902679},{"NoteNumber":71,"Velocity":30,"Duration":95663,"SoundDuration":95663,"Delta":103094006},{"NoteNumber":71,"Velocity":30,"Duration":95663,"SoundDuration":95663,"Delta":103285332},{"NoteNumber":71,"Velocity":30,"Duration":95663,"SoundDuration":95663,"Delta":103476659},{"NoteNumber":81,"Velocity":40,"Duration":191326,"SoundDuration":191326,"Delta":103476659},{"NoteNumber":71,"Velocity":30,"Duration":96277,"SoundDuration":96277,"Delta":103667985},{"NoteNumber":83,"Velocity":37,"Duration":192554,"SoundDuration":192554,"Delta":103667985},{"NoteNumber":80,"Velocity":24,"Duration":192554,"SoundDuration":192554,"Delta":103667985},{"NoteNumber":65,"Velocity":30,"Duration":192554,"SoundDuration":192554,"Delta":103667985},{"NoteNumber":62,"Velocity":25,"Duration":192554,"SoundDuration":192554,"Delta":103667985},{"NoteNumber":71,"Velocity":30,"Duration":100133,"SoundDuration":100133,"Delta":103860540},{"NoteNumber":72,"Velocity":34,"Duration":383876,"SoundDuration":383876,"Delta":104060807},{"NoteNumber":81,"Velocity":46,"Duration":383876,"SoundDuration":383876,"Delta":104060807},{"NoteNumber":84,"Velocity":25,"Duration":383876,"SoundDuration":383876,"Delta":104060807},{"NoteNumber":60,"Velocity":28,"Duration":191938,"SoundDuration":191938,"Delta":104060807},{"NoteNumber":64,"Velocity":34,"Duration":191938,"SoundDuration":191938,"Delta":104060807},{"NoteNumber":64,"Velocity":30,"Duration":95969,"SoundDuration":95969,"Delta":104252745},{"NoteNumber":64,"Velocity":30,"Duration":95969,"SoundDuration":95969,"Delta":104444684},{"NoteNumber":64,"Velocity":30,"Duration":95969,"SoundDuration":95969,"Delta":104636622},{"NoteNumber":72,"Velocity":48,"Duration":96899,"SoundDuration":96899,"Delta":104828561},{"NoteNumber":84,"Velocity":48,"Duration":96899,"SoundDuration":96899,"Delta":104828561},{"NoteNumber":64,"Velocity":39,"Duration":96899,"SoundDuration":96899,"Delta":104828561},{"NoteNumber":64,"Velocity":37,"Duration":100133,"SoundDuration":100133,"Delta":105022359},{"NoteNumber":72,"Velocity":54,"Duration":570341,"SoundDuration":570341,"Delta":105222626},{"NoteNumber":84,"Velocity":54,"Duration":570341,"SoundDuration":570341,"Delta":105222626},{"NoteNumber":64,"Velocity":40,"Duration":95056,"SoundDuration":95056,"Delta":105222626},{"NoteNumber":57,"Velocity":33,"Duration":380228,"SoundDuration":380228,"Delta":105222626},{"NoteNumber":60,"Velocity":40,"Duration":380228,"SoundDuration":380228,"Delta":105222626},{"NoteNumber":64,"Velocity":36,"Duration":95057,"SoundDuration":95057,"Delta":105412740},{"NoteNumber":64,"Velocity":37,"Duration":95056,"SoundDuration":95056,"Delta":105602854},{"NoteNumber":71,"Velocity":54,"Duration":190114,"SoundDuration":190114,"Delta":105792968},{"NoteNumber":83,"Velocity":54,"Duration":190114,"SoundDuration":190114,"Delta":105792968},{"NoteNumber":64,"Velocity":38,"Duration":95056,"SoundDuration":95056,"Delta":105792968},{"NoteNumber":69,"Velocity":48,"Duration":96899,"SoundDuration":96899,"Delta":105983082},{"NoteNumber":81,"Velocity":48,"Duration":96899,"SoundDuration":96899,"Delta":105983082},{"NoteNumber":64,"Velocity":39,"Duration":96899,"SoundDuration":96899,"Delta":105983082},{"NoteNumber":60,"Velocity":41,"Duration":96899,"SoundDuration":96899,"Delta":105983082},{"NoteNumber":57,"Velocity":34,"Duration":96899,"SoundDuration":96899,"Delta":105983082},{"NoteNumber":64,"Velocity":40,"Duration":100806,"SoundDuration":100806,"Delta":106176881},{"NoteNumber":86,"Velocity":64,"Duration":190113,"SoundDuration":190113,"Delta":106378494},{"NoteNumber":74,"Velocity":64,"Duration":190113,"SoundDuration":190113,"Delta":106378494},{"NoteNumber":65,"Velocity":47,"Duration":95056,"SoundDuration":95056,"Delta":106378494},{"NoteNumber":56,"Velocity":38,"Duration":380228,"SoundDuration":380228,"Delta":106378494},{"NoteNumber":59,"Velocity":47,"Duration":380228,"SoundDuration":380228,"Delta":106378494},{"NoteNumber":65,"Velocity":42,"Duration":95057,"SoundDuration":95057,"Delta":106568608},{"NoteNumber":65,"Velocity":43,"Duration":95056,"SoundDuration":95056,"Delta":106758722},{"NoteNumber":65,"Velocity":45,"Duration":95056,"SoundDuration":95056,"Delta":106948836},{"NoteNumber":74,"Velocity":64,"Duration":96899,"SoundDuration":96899,"Delta":107138950},{"NoteNumber":86,"Velocity":64,"Duration":96899,"SoundDuration":96899,"Delta":107138950},{"NoteNumber":56,"Velocity":47,"Duration":96899,"SoundDuration":96899,"Delta":107138950},{"NoteNumber":59,"Velocity":47,"Duration":96899,"SoundDuration":96899,"Delta":107138950},{"NoteNumber":65,"Velocity":52,"Duration":96899,"SoundDuration":96899,"Delta":107138950},{"NoteNumber":65,"Velocity":50,"Duration":101146,"SoundDuration":101146,"Delta":107332748},{"NoteNumber":74,"Velocity":73,"Duration":566750,"SoundDuration":566750,"Delta":107535041},{"NoteNumber":86,"Velocity":73,"Duration":566750,"SoundDuration":566750,"Delta":107535041},{"NoteNumber":65,"Velocity":53,"Duration":94458,"SoundDuration":94458,"Delta":107535041},{"NoteNumber":56,"Velocity":45,"Duration":377833,"SoundDuration":377833,"Delta":107535041},{"NoteNumber":58,"Velocity":53,"Duration":377833,"SoundDuration":377833,"Delta":107535041},{"NoteNumber":65,"Velocity":49,"Duration":94458,"SoundDuration":94458,"Delta":107723958},{"NoteNumber":65,"Velocity":49,"Duration":94458,"SoundDuration":94458,"Delta":107912875},{"NoteNumber":72,"Velocity":69,"Duration":188917,"SoundDuration":188917,"Delta":108101792},{"NoteNumber":84,"Velocity":69,"Duration":188917,"SoundDuration":188917,"Delta":108101792},{"NoteNumber":65,"Velocity":50,"Duration":94458,"SoundDuration":94458,"Delta":108101792},{"NoteNumber":74,"Velocity":64,"Duration":96899,"SoundDuration":96899,"Delta":108290709},{"NoteNumber":86,"Velocity":64,"Duration":96899,"SoundDuration":96899,"Delta":108290709},{"NoteNumber":65,"Velocity":51,"Duration":96899,"SoundDuration":96899,"Delta":108290709},{"NoteNumber":58,"Velocity":53,"Duration":96899,"SoundDuration":96899,"Delta":108290709},{"NoteNumber":56,"Velocity":44,"Duration":96899,"SoundDuration":96899,"Delta":108290709},{"NoteNumber":65,"Velocity":52,"Duration":100806,"SoundDuration":100806,"Delta":108484507},{"NoteNumber":75,"Velocity":81,"Duration":564971,"SoundDuration":564971,"Delta":108686120},{"NoteNumber":87,"Velocity":97,"Duration":564971,"SoundDuration":564971,"Delta":108686120},{"NoteNumber":55,"Velocity":56,"Duration":94161,"SoundDuration":94161,"Delta":108686120},{"NoteNumber":58,"Velocity":56,"Duration":94161,"SoundDuration":94161,"Delta":108686120},{"NoteNumber":63,"Velocity":67,"Duration":94161,"SoundDuration":94161,"Delta":108686120},{"NoteNumber":63,"Velocity":61,"Duration":94162,"SoundDuration":94162,"Delta":108874444},{"NoteNumber":58,"Velocity":51,"Duration":94162,"SoundDuration":94162,"Delta":108874444},{"NoteNumber":55,"Velocity":51,"Duration":94162,"SoundDuration":94162,"Delta":108874444},{"NoteNumber":63,"Velocity":61,"Duration":94161,"SoundDuration":94161,"Delta":109062768},{"NoteNumber":58,"Velocity":51,"Duration":94161,"SoundDuration":94161,"Delta":109062768},{"NoteNumber":55,"Velocity":51,"Duration":94161,"SoundDuration":94161,"Delta":109062768},{"NoteNumber":74,"Velocity":62,"Duration":188324,"SoundDuration":188324,"Delta":109251092},{"NoteNumber":86,"Velocity":74,"Duration":188324,"SoundDuration":188324,"Delta":109251092},{"NoteNumber":63,"Velocity":61,"Duration":94161,"SoundDuration":94161,"Delta":109251092},{"NoteNumber":58,"Velocity":51,"Duration":94161,"SoundDuration":94161,"Delta":109251092},{"NoteNumber":55,"Velocity":51,"Duration":94161,"SoundDuration":94161,"Delta":109251092},{"NoteNumber":87,"Velocity":84,"Duration":191326,"SoundDuration":191326,"Delta":109439416},{"NoteNumber":75,"Velocity":71,"Duration":191326,"SoundDuration":191326,"Delta":109439416},{"NoteNumber":63,"Velocity":61,"Duration":95663,"SoundDuration":95663,"Delta":109439416},{"NoteNumber":58,"Velocity":51,"Duration":95663,"SoundDuration":95663,"Delta":109439416},{"NoteNumber":55,"Velocity":51,"Duration":95663,"SoundDuration":95663,"Delta":109439416},{"NoteNumber":63,"Velocity":61,"Duration":99469,"SoundDuration":99469,"Delta":109630743},{"NoteNumber":58,"Velocity":51,"Duration":99469,"SoundDuration":99469,"Delta":109630743},{"NoteNumber":55,"Velocity":51,"Duration":99469,"SoundDuration":99469,"Delta":109630743},{"NoteNumber":63,"Velocity":89,"Duration":564971,"SoundDuration":564971,"Delta":109829682},{"NoteNumber":54,"Velocity":56,"Duration":94161,"SoundDuration":94161,"Delta":109829682},{"NoteNumber":58,"Velocity":56,"Duration":94161,"SoundDuration":94161,"Delta":109829682},{"NoteNumber":58,"Velocity":51,"Duration":94162,"SoundDuration":94162,"Delta":110018006},{"NoteNumber":54,"Velocity":51,"Duration":94162,"SoundDuration":94162,"Delta":110018006},{"NoteNumber":58,"Velocity":51,"Duration":94161,"SoundDuration":94161,"Delta":110206330},{"NoteNumber":54,"Velocity":51,"Duration":94161,"SoundDuration":94161,"Delta":110206330},{"NoteNumber":62,"Velocity":62,"Duration":188324,"SoundDuration":188324,"Delta":110394654},{"NoteNumber":58,"Velocity":51,"Duration":94161,"SoundDuration":94161,"Delta":110394654},{"NoteNumber":54,"Velocity":51,"Duration":94161,"SoundDuration":94161,"Delta":110394654},{"NoteNumber":63,"Velocity":71,"Duration":191326,"SoundDuration":191326,"Delta":110582978},{"NoteNumber":58,"Velocity":51,"Duration":95663,"SoundDuration":95663,"Delta":110582978},{"NoteNumber":54,"Velocity":51,"Duration":95663,"SoundDuration":95663,"Delta":110582978},{"NoteNumber":58,"Velocity":52,"Duration":99469,"SoundDuration":99469,"Delta":110774304},{"NoteNumber":54,"Velocity":52,"Duration":99469,"SoundDuration":99469,"Delta":110774304},{"NoteNumber":63,"Velocity":75,"Duration":564971,"SoundDuration":564971,"Delta":110973243},{"NoteNumber":51,"Velocity":47,"Duration":94161,"SoundDuration":94161,"Delta":110973243},{"NoteNumber":54,"Velocity":57,"Duration":94161,"SoundDuration":94161,"Delta":110973243},{"NoteNumber":66,"Velocity":90,"Duration":564971,"SoundDuration":564971,"Delta":110977951},{"NoteNumber":54,"Velocity":52,"Duration":94162,"SoundDuration":94162,"Delta":111161567},{"NoteNumber":51,"Velocity":43,"Duration":94162,"SoundDuration":94162,"Delta":111161567},{"NoteNumber":54,"Velocity":52,"Duration":94161,"SoundDuration":94161,"Delta":111349891},{"NoteNumber":51,"Velocity":44,"Duration":94161,"SoundDuration":94161,"Delta":111349891},{"NoteNumber":65,"Velocity":63,"Duration":188324,"SoundDuration":188324,"Delta":111538215},{"NoteNumber":62,"Velocity":53,"Duration":188324,"SoundDuration":188324,"Delta":111538215},{"NoteNumber":54,"Velocity":52,"Duration":94161,"SoundDuration":94161,"Delta":111538215},{"NoteNumber":51,"Velocity":44,"Duration":94161,"SoundDuration":94161,"Delta":111538215},{"NoteNumber":66,"Velocity":73,"Duration":191326,"SoundDuration":191326,"Delta":111726539},{"NoteNumber":63,"Velocity":62,"Duration":191326,"SoundDuration":191326,"Delta":111726539},{"NoteNumber":54,"Velocity":53,"Duration":95663,"SoundDuration":95663,"Delta":111726539},{"NoteNumber":51,"Velocity":44,"Duration":95663,"SoundDuration":95663,"Delta":111726539},{"NoteNumber":54,"Velocity":53,"Duration":99469,"SoundDuration":99469,"Delta":111917866},{"NoteNumber":51,"Velocity":44,"Duration":99469,"SoundDuration":99469,"Delta":111917866},{"NoteNumber":78,"Velocity":92,"Duration":564971,"SoundDuration":564971,"Delta":112116805},{"NoteNumber":75,"Velocity":78,"Duration":564971,"SoundDuration":564971,"Delta":112116805},{"NoteNumber":51,"Velocity":58,"Duration":94161,"SoundDuration":94161,"Delta":112116805},{"NoteNumber":48,"Velocity":49,"Duration":94161,"SoundDuration":94161,"Delta":112121513},{"NoteNumber":51,"Velocity":53,"Duration":94162,"SoundDuration":94162,"Delta":112305129},{"NoteNumber":48,"Velocity":45,"Duration":94162,"SoundDuration":94162,"Delta":112305129},{"NoteNumber":51,"Velocity":53,"Duration":94161,"SoundDuration":94161,"Delta":112493453},{"NoteNumber":48,"Velocity":45,"Duration":94161,"SoundDuration":94161,"Delta":112493453},{"NoteNumber":77,"Velocity":65,"Duration":188324,"SoundDuration":188324,"Delta":112681777},{"NoteNumber":74,"Velocity":55,"Duration":188324,"SoundDuration":188324,"Delta":112681777},{"NoteNumber":51,"Velocity":54,"Duration":94161,"SoundDuration":94161,"Delta":112681777},{"NoteNumber":48,"Velocity":45,"Duration":94161,"SoundDuration":94161,"Delta":112681777},{"NoteNumber":78,"Velocity":75,"Duration":191326,"SoundDuration":191326,"Delta":112870101},{"NoteNumber":75,"Velocity":63,"Duration":191326,"SoundDuration":191326,"Delta":112870101},{"NoteNumber":51,"Velocity":54,"Duration":95663,"SoundDuration":95663,"Delta":112870101},{"NoteNumber":48,"Velocity":45,"Duration":95663,"SoundDuration":95663,"Delta":112870101},{"NoteNumber":51,"Velocity":54,"Duration":99469,"SoundDuration":99469,"Delta":113061427},{"NoteNumber":48,"Velocity":46,"Duration":99469,"SoundDuration":99469,"Delta":113061427},{"NoteNumber":84,"Velocity":94,"Duration":564971,"SoundDuration":564971,"Delta":113260366},{"NoteNumber":72,"Velocity":79,"Duration":564971,"SoundDuration":564971,"Delta":113260366},{"NoteNumber":45,"Velocity":50,"Duration":94161,"SoundDuration":94161,"Delta":113260366},{"NoteNumber":48,"Velocity":59,"Duration":94161,"SoundDuration":94161,"Delta":113260366},{"NoteNumber":48,"Velocity":54,"Duration":94162,"SoundDuration":94162,"Delta":113448690},{"NoteNumber":45,"Velocity":46,"Duration":94162,"SoundDuration":94162,"Delta":113448690},{"NoteNumber":48,"Velocity":55,"Duration":94161,"SoundDuration":94161,"Delta":113637014},{"NoteNumber":45,"Velocity":46,"Duration":94161,"SoundDuration":94161,"Delta":113637014},{"NoteNumber":83,"Velocity":66,"Duration":188324,"SoundDuration":188324,"Delta":113825338},{"NoteNumber":71,"Velocity":56,"Duration":188324,"SoundDuration":188324,"Delta":113825338},{"NoteNumber":48,"Velocity":55,"Duration":94161,"SoundDuration":94161,"Delta":113825338},{"NoteNumber":45,"Velocity":46,"Duration":94161,"SoundDuration":94161,"Delta":113825338},{"NoteNumber":84,"Velocity":77,"Duration":191326,"SoundDuration":191326,"Delta":114013662},{"NoteNumber":72,"Velocity":65,"Duration":191326,"SoundDuration":191326,"Delta":114013662},{"NoteNumber":48,"Velocity":55,"Duration":95663,"SoundDuration":95663,"Delta":114013662},{"NoteNumber":45,"Velocity":46,"Duration":95663,"SoundDuration":95663,"Delta":114013662},{"NoteNumber":48,"Velocity":55,"Duration":99469,"SoundDuration":99469,"Delta":114204989},{"NoteNumber":45,"Velocity":46,"Duration":99469,"SoundDuration":99469,"Delta":114204989},{"NoteNumber":57,"Velocity":97,"Duration":564971,"SoundDuration":564971,"Delta":114403928},{"NoteNumber":42,"Velocity":61,"Duration":94161,"SoundDuration":94161,"Delta":114403928},{"NoteNumber":45,"Velocity":61,"Duration":94161,"SoundDuration":94161,"Delta":114403928},{"NoteNumber":48,"Velocity":61,"Duration":94161,"SoundDuration":94161,"Delta":114403928},{"NoteNumber":42,"Velocity":56,"Duration":94162,"SoundDuration":94162,"Delta":114592252},{"NoteNumber":48,"Velocity":56,"Duration":94162,"SoundDuration":94162,"Delta":114592252},{"NoteNumber":45,"Velocity":56,"Duration":94162,"SoundDuration":94162,"Delta":114592252},{"NoteNumber":42,"Velocity":56,"Duration":94161,"SoundDuration":94161,"Delta":114780576},{"NoteNumber":48,"Velocity":56,"Duration":94161,"SoundDuration":94161,"Delta":114780576},{"NoteNumber":45,"Velocity":56,"Duration":94161,"SoundDuration":94161,"Delta":114780576},{"NoteNumber":56,"Velocity":68,"Duration":188324,"SoundDuration":188324,"Delta":114968900},{"NoteNumber":42,"Velocity":56,"Duration":94161,"SoundDuration":94161,"Delta":114968900},{"NoteNumber":48,"Velocity":56,"Duration":94161,"SoundDuration":94161,"Delta":114968900},{"NoteNumber":45,"Velocity":56,"Duration":94161,"SoundDuration":94161,"Delta":114968900},{"NoteNumber":57,"Velocity":78,"Duration":191326,"SoundDuration":191326,"Delta":115157224},{"NoteNumber":42,"Velocity":56,"Duration":95663,"SoundDuration":95663,"Delta":115157224},{"NoteNumber":48,"Velocity":56,"Duration":95663,"SoundDuration":95663,"Delta":115157224},{"NoteNumber":45,"Velocity":56,"Duration":95663,"SoundDuration":95663,"Delta":115157224},{"NoteNumber":42,"Velocity":57,"Duration":99469,"SoundDuration":99469,"Delta":115348550},{"NoteNumber":48,"Velocity":57,"Duration":99469,"SoundDuration":99469,"Delta":115348550},{"NoteNumber":45,"Velocity":57,"Duration":99469,"SoundDuration":99469,"Delta":115348550},{"NoteNumber":90,"Velocity":99,"Duration":564971,"SoundDuration":564971,"Delta":115547489},{"NoteNumber":78,"Velocity":82,"Duration":564971,"SoundDuration":564971,"Delta":115547489},{"NoteNumber":39,"Velocity":52,"Duration":94161,"SoundDuration":94161,"Delta":115547489},{"NoteNumber":42,"Velocity":52,"Duration":94161,"SoundDuration":94161,"Delta":115547489},{"NoteNumber":45,"Velocity":52,"Duration":94161,"SoundDuration":94161,"Delta":115547489},{"NoteNumber":48,"Velocity":62,"Duration":94161,"SoundDuration":94161,"Delta":115547489},{"NoteNumber":39,"Velocity":48,"Duration":94162,"SoundDuration":94162,"Delta":115735813},{"NoteNumber":42,"Velocity":48,"Duration":94162,"SoundDuration":94162,"Delta":115735813},{"NoteNumber":48,"Velocity":57,"Duration":94162,"SoundDuration":94162,"Delta":115735813},{"NoteNumber":45,"Velocity":48,"Duration":94162,"SoundDuration":94162,"Delta":115735813},{"NoteNumber":39,"Velocity":48,"Duration":94161,"SoundDuration":94161,"Delta":115924137},{"NoteNumber":42,"Velocity":48,"Duration":94161,"SoundDuration":94161,"Delta":115924137},{"NoteNumber":48,"Velocity":57,"Duration":94161,"SoundDuration":94161,"Delta":115924137},{"NoteNumber":45,"Velocity":48,"Duration":94161,"SoundDuration":94161,"Delta":115924137},{"NoteNumber":89,"Velocity":70,"Duration":188324,"SoundDuration":188324,"Delta":116112461},{"NoteNumber":77,"Velocity":58,"Duration":188324,"SoundDuration":188324,"Delta":116112461},{"NoteNumber":39,"Velocity":48,"Duration":94161,"SoundDuration":94161,"Delta":116112461},{"NoteNumber":42,"Velocity":48,"Duration":94161,"SoundDuration":94161,"Delta":116112461},{"NoteNumber":48,"Velocity":57,"Duration":94161,"SoundDuration":94161,"Delta":116112461},{"NoteNumber":45,"Velocity":48,"Duration":94161,"SoundDuration":94161,"Delta":116112461},{"NoteNumber":90,"Velocity":80,"Duration":191326,"SoundDuration":191326,"Delta":116300785},{"NoteNumber":78,"Velocity":68,"Duration":191326,"SoundDuration":191326,"Delta":116300785},{"NoteNumber":39,"Velocity":49,"Duration":95663,"SoundDuration":95663,"Delta":116300785},{"NoteNumber":42,"Velocity":49,"Duration":95663,"SoundDuration":95663,"Delta":116300785},{"NoteNumber":48,"Velocity":58,"Duration":95663,"SoundDuration":95663,"Delta":116300785},{"NoteNumber":45,"Velocity":49,"Duration":95663,"SoundDuration":95663,"Delta":116300785},{"NoteNumber":39,"Velocity":49,"Duration":99469,"SoundDuration":99469,"Delta":116492112},{"NoteNumber":42,"Velocity":49,"Duration":99469,"SoundDuration":99469,"Delta":116492112},{"NoteNumber":48,"Velocity":58,"Duration":99469,"SoundDuration":99469,"Delta":116492112},{"NoteNumber":45,"Velocity":49,"Duration":99469,"SoundDuration":99469,"Delta":116492112},{"NoteNumber":66,"Velocity":71,"Duration":564971,"SoundDuration":564971,"Delta":116691051},{"NoteNumber":72,"Velocity":85,"Duration":564971,"SoundDuration":564971,"Delta":116691051},{"NoteNumber":69,"Velocity":71,"Duration":564971,"SoundDuration":564971,"Delta":116691051},{"NoteNumber":38,"Velocity":54,"Duration":94161,"SoundDuration":94161,"Delta":116691051},{"NoteNumber":42,"Velocity":54,"Duration":94161,"SoundDuration":94161,"Delta":116691051},{"NoteNumber":45,"Velocity":54,"Duration":94161,"SoundDuration":94161,"Delta":116691051},{"NoteNumber":48,"Velocity":64,"Duration":94161,"SoundDuration":94161,"Delta":116691051},{"NoteNumber":38,"Velocity":49,"Duration":94162,"SoundDuration":94162,"Delta":116879375},{"NoteNumber":42,"Velocity":49,"Duration":94162,"SoundDuration":94162,"Delta":116879375},{"NoteNumber":48,"Velocity":58,"Duration":94162,"SoundDuration":94162,"Delta":116879375},{"NoteNumber":45,"Velocity":49,"Duration":94162,"SoundDuration":94162,"Delta":116879375},{"NoteNumber":38,"Velocity":49,"Duration":94161,"SoundDuration":94161,"Delta":117067699},{"NoteNumber":42,"Velocity":49,"Duration":94161,"SoundDuration":94161,"Delta":117067699},{"NoteNumber":48,"Velocity":58,"Duration":94161,"SoundDuration":94161,"Delta":117067699},{"NoteNumber":45,"Velocity":49,"Duration":94161,"SoundDuration":94161,"Delta":117067699},{"NoteNumber":66,"Velocity":59,"Duration":188324,"SoundDuration":188324,"Delta":117256023},{"NoteNumber":71,"Velocity":71,"Duration":188324,"SoundDuration":188324,"Delta":117256023},{"NoteNumber":69,"Velocity":59,"Duration":188324,"SoundDuration":188324,"Delta":117256023},{"NoteNumber":38,"Velocity":49,"Duration":94161,"SoundDuration":94161,"Delta":117256023},{"NoteNumber":42,"Velocity":49,"Duration":94161,"SoundDuration":94161,"Delta":117256023},{"NoteNumber":48,"Velocity":58,"Duration":94161,"SoundDuration":94161,"Delta":117256023},{"NoteNumber":45,"Velocity":49,"Duration":94161,"SoundDuration":94161,"Delta":117256023},{"NoteNumber":66,"Velocity":69,"Duration":191326,"SoundDuration":191326,"Delta":117444347},{"NoteNumber":72,"Velocity":81,"Duration":191326,"SoundDuration":191326,"Delta":117444347},{"NoteNumber":69,"Velocity":69,"Duration":191326,"SoundDuration":191326,"Delta":117444347},{"NoteNumber":38,"Velocity":49,"Duration":95663,"SoundDuration":95663,"Delta":117444347},{"NoteNumber":42,"Velocity":49,"Duration":95663,"SoundDuration":95663,"Delta":117444347},{"NoteNumber":48,"Velocity":58,"Duration":95663,"SoundDuration":95663,"Delta":117444347},{"NoteNumber":45,"Velocity":49,"Duration":95663,"SoundDuration":95663,"Delta":117444347},{"NoteNumber":38,"Velocity":49,"Duration":99469,"SoundDuration":99469,"Delta":117635673},{"NoteNumber":42,"Velocity":49,"Duration":99469,"SoundDuration":99469,"Delta":117635673},{"NoteNumber":48,"Velocity":58,"Duration":99469,"SoundDuration":99469,"Delta":117635673},{"NoteNumber":45,"Velocity":49,"Duration":99469,"SoundDuration":99469,"Delta":117635673},{"NoteNumber":71,"Velocity":93,"Duration":390877,"SoundDuration":390877,"Delta":117834612},{"NoteNumber":68,"Velocity":80,"Duration":390877,"SoundDuration":390877,"Delta":117834612},{"NoteNumber":65,"Velocity":80,"Duration":390877,"SoundDuration":390877,"Delta":117834612},{"NoteNumber":43,"Velocity":73,"Duration":99469,"SoundDuration":99469,"Delta":117834612},{"NoteNumber":31,"Velocity":57,"Duration":99469,"SoundDuration":99469,"Delta":117834612},{"NoteNumber":31,"Velocity":54,"Duration":95969,"SoundDuration":95969,"Delta":118033551},{"NoteNumber":43,"Velocity":64,"Duration":95969,"SoundDuration":95969,"Delta":118033551},{"NoteNumber":43,"Velocity":69,"Duration":95969,"SoundDuration":95969,"Delta":118225490},{"NoteNumber":31,"Velocity":54,"Duration":95969,"SoundDuration":95969,"Delta":118225490},{"NoteNumber":69,"Velocity":32,"Duration":88915,"SoundDuration":88915,"Delta":118417428},{"NoteNumber":71,"Velocity":32,"Duration":88915,"SoundDuration":88915,"Delta":118417428},{"NoteNumber":77,"Velocity":45,"Duration":88915,"SoundDuration":88915,"Delta":118417428},{"NoteNumber":67,"Velocity":32,"Duration":92478,"SoundDuration":92478,"Delta":118595259},{"NoteNumber":72,"Velocity":32,"Duration":92478,"SoundDuration":92478,"Delta":118595259},{"NoteNumber":76,"Velocity":45,"Duration":92478,"SoundDuration":92478,"Delta":118595259},{"NoteNumber":75,"Velocity":52,"Duration":369914,"SoundDuration":369914,"Delta":118965173},{"NoteNumber":69,"Velocity":37,"Duration":369914,"SoundDuration":369914,"Delta":118965173},{"NoteNumber":66,"Velocity":37,"Duration":369914,"SoundDuration":369914,"Delta":118965173},{"NoteNumber":43,"Velocity":31,"Duration":92478,"SoundDuration":92478,"Delta":119150130},{"NoteNumber":31,"Velocity":22,"Duration":92478,"SoundDuration":92478,"Delta":119150130},{"NoteNumber":31,"Velocity":24,"Duration":92478,"SoundDuration":92478,"Delta":119335087},{"NoteNumber":43,"Velocity":35,"Duration":92478,"SoundDuration":92478,"Delta":119335087},{"NoteNumber":66,"Velocity":32,"Duration":88652,"SoundDuration":88652,"Delta":119520044},{"NoteNumber":69,"Velocity":32,"Duration":88652,"SoundDuration":88652,"Delta":119520044},{"NoteNumber":75,"Velocity":45,"Duration":88652,"SoundDuration":88652,"Delta":119520044},{"NoteNumber":65,"Velocity":32,"Duration":91631,"SoundDuration":91631,"Delta":119697349},{"NoteNumber":71,"Velocity":32,"Duration":91631,"SoundDuration":91631,"Delta":119697349},{"NoteNumber":74,"Velocity":45,"Duration":91631,"SoundDuration":91631,"Delta":119697349},{"NoteNumber":73,"Velocity":50,"Duration":366523,"SoundDuration":366523,"Delta":120063873},{"NoteNumber":67,"Velocity":35,"Duration":366523,"SoundDuration":366523,"Delta":120063873},{"NoteNumber":64,"Velocity":35,"Duration":366523,"SoundDuration":366523,"Delta":120063873},{"NoteNumber":43,"Velocity":31,"Duration":91631,"SoundDuration":91631,"Delta":120247135},{"NoteNumber":31,"Velocity":22,"Duration":91631,"SoundDuration":91631,"Delta":120247135},{"NoteNumber":31,"Velocity":24,"Duration":91631,"SoundDuration":91631,"Delta":120430397},{"NoteNumber":43,"Velocity":35,"Duration":91631,"SoundDuration":91631,"Delta":120430397},{"NoteNumber":63,"Velocity":32,"Duration":87822,"SoundDuration":87822,"Delta":120613659},{"NoteNumber":67,"Velocity":32,"Duration":87822,"SoundDuration":87822,"Delta":120613659},{"NoteNumber":72,"Velocity":45,"Duration":87822,"SoundDuration":87822,"Delta":120613659},{"NoteNumber":62,"Velocity":32,"Duration":91575,"SoundDuration":91575,"Delta":120789303},{"NoteNumber":67,"Velocity":32,"Duration":91575,"SoundDuration":91575,"Delta":120789303},{"NoteNumber":71,"Velocity":45,"Duration":91575,"SoundDuration":91575,"Delta":120789303},{"NoteNumber":61,"Velocity":42,"Duration":90744,"SoundDuration":90744,"Delta":121155547},{"NoteNumber":64,"Velocity":42,"Duration":90744,"SoundDuration":90744,"Delta":121155547},{"NoteNumber":70,"Velocity":50,"Duration":90744,"SoundDuration":90744,"Delta":121155547},{"NoteNumber":31,"Velocity":26,"Duration":90589,"SoundDuration":90589,"Delta":121337035},{"NoteNumber":43,"Velocity":31,"Duration":90589,"SoundDuration":90589,"Delta":121337035},{"NoteNumber":60,"Velocity":42,"Duration":90452,"SoundDuration":90452,"Delta":121518095},{"NoteNumber":64,"Velocity":42,"Duration":90452,"SoundDuration":90452,"Delta":121518095},{"NoteNumber":69,"Velocity":50,"Duration":90452,"SoundDuration":90452,"Delta":121518095},{"NoteNumber":31,"Velocity":26,"Duration":90198,"SoundDuration":90198,"Delta":121698746},{"NoteNumber":43,"Velocity":31,"Duration":90198,"SoundDuration":90198,"Delta":121698746},{"NoteNumber":60,"Velocity":42,"Duration":89928,"SoundDuration":89928,"Delta":121878990},{"NoteNumber":63,"Velocity":42,"Duration":89928,"SoundDuration":89928,"Delta":121878990},{"NoteNumber":68,"Velocity":50,"Duration":89928,"SoundDuration":89928,"Delta":121878990},{"NoteNumber":31,"Velocity":26,"Duration":89659,"SoundDuration":89659,"Delta":122058828},{"NoteNumber":43,"Velocity":31,"Duration":89659,"SoundDuration":89659,"Delta":122058828},{"NoteNumber":67,"Velocity":54,"Duration":89441,"SoundDuration":89441,"Delta":122238146},{"NoteNumber":43,"Velocity":34,"Duration":89308,"SoundDuration":89308,"Delta":122416980},{"NoteNumber":31,"Velocity":28,"Duration":89308,"SoundDuration":89308,"Delta":122416980},{"NoteNumber":66,"Velocity":55,"Duration":89126,"SoundDuration":89126,"Delta":122595414},{"NoteNumber":45,"Velocity":38,"Duration":88862,"SoundDuration":88862,"Delta":122773452},{"NoteNumber":33,"Velocity":32,"Duration":88862,"SoundDuration":88862,"Delta":122773452},{"NoteNumber":65,"Velocity":58,"Duration":88599,"SoundDuration":88599,"Delta":122951093},{"NoteNumber":47,"Velocity":39,"Duration":88387,"SoundDuration":88387,"Delta":123128293},{"NoteNumber":35,"Velocity":33,"Duration":88387,"SoundDuration":88387,"Delta":123128293},{"NoteNumber":64,"Velocity":60,"Duration":88192,"SoundDuration":88192,"Delta":123305020},{"NoteNumber":48,"Velocity":39,"Duration":88079,"SoundDuration":88079,"Delta":123481292},{"NoteNumber":36,"Velocity":33,"Duration":88079,"SoundDuration":88079,"Delta":123481292},{"NoteNumber":63,"Velocity":60,"Duration":88079,"SoundDuration":88079,"Delta":123657451},{"NoteNumber":37,"Velocity":34,"Duration":87578,"SoundDuration":87578,"Delta":123833611},{"NoteNumber":49,"Velocity":40,"Duration":87578,"SoundDuration":87578,"Delta":123833611},{"NoteNumber":62,"Velocity":60,"Duration":87565,"SoundDuration":87565,"Delta":124008755},{"NoteNumber":38,"Velocity":34,"Duration":87565,"SoundDuration":87565,"Delta":124183887},{"NoteNumber":50,"Velocity":41,"Duration":87565,"SoundDuration":87565,"Delta":124183887},{"NoteNumber":61,"Velocity":60,"Duration":87317,"SoundDuration":87317,"Delta":124359018},{"NoteNumber":39,"Velocity":35,"Duration":87368,"SoundDuration":87368,"Delta":124533646},{"NoteNumber":51,"Velocity":42,"Duration":87368,"SoundDuration":87368,"Delta":124533646},{"NoteNumber":60,"Velocity":64,"Duration":87815,"SoundDuration":87815,"Delta":124708580},{"NoteNumber":40,"Velocity":39,"Duration":88203,"SoundDuration":88203,"Delta":124884404},{"NoteNumber":52,"Velocity":46,"Duration":88203,"SoundDuration":88203,"Delta":124884404},{"NoteNumber":59,"Velocity":68,"Duration":88599,"SoundDuration":88599,"Delta":125061005},{"NoteNumber":41,"Velocity":40,"Duration":89053,"SoundDuration":89053,"Delta":125238461},{"NoteNumber":53,"Velocity":48,"Duration":89053,"SoundDuration":89053,"Delta":125238461},{"NoteNumber":58,"Velocity":63,"Duration":89519,"SoundDuration":89519,"Delta":125416768},{"NoteNumber":54,"Velocity":35,"Duration":89659,"SoundDuration":89659,"Delta":125595946},{"NoteNumber":42,"Velocity":29,"Duration":89659,"SoundDuration":89659,"Delta":125595946},{"NoteNumber":57,"Velocity":50,"Duration":91575,"SoundDuration":91575,"Delta":125775265},{"NoteNumber":55,"Velocity":30,"Duration":91575,"SoundDuration":91575,"Delta":125958415},{"NoteNumber":43,"Velocity":25,"Duration":91575,"SoundDuration":91575,"Delta":125958415},{"NoteNumber":56,"Velocity":46,"Duration":95663,"SoundDuration":95663,"Delta":126141565},{"NoteNumber":55,"Velocity":26,"Duration":105041,"SoundDuration":105041,"Delta":126332891},{"NoteNumber":43,"Velocity":22,"Duration":105041,"SoundDuration":105041,"Delta":126332891},{"NoteNumber":56,"Velocity":42,"Duration":196979,"SoundDuration":196979,"Delta":126542975},{"NoteNumber":55,"Velocity":33,"Duration":204498,"SoundDuration":204498,"Delta":126739955},{"NoteNumber":67,"Velocity":43,"Duration":1593918,"SoundDuration":1593918,"Delta":126944454},{"NoteNumber":65,"Velocity":26,"Duration":787466,"SoundDuration":787466,"Delta":127750906},{"NoteNumber":67,"Velocity":43,"Duration":782986,"SoundDuration":782986,"Delta":128546662},{"NoteNumber":59,"Velocity":26,"Duration":397877,"SoundDuration":397877,"Delta":128546662},{"NoteNumber":65,"Velocity":26,"Duration":397877,"SoundDuration":397877,"Delta":128546662},{"NoteNumber":60,"Velocity":33,"Duration":385108,"SoundDuration":385108,"Delta":128944540},{"NoteNumber":64,"Velocity":33,"Duration":385108,"SoundDuration":385108,"Delta":128944540},{"NoteNumber":72,"Velocity":48,"Duration":388853,"SoundDuration":388853,"Delta":129329649},{"NoteNumber":60,"Velocity":26,"Duration":388853,"SoundDuration":388853,"Delta":129329649},{"NoteNumber":69,"Velocity":43,"Duration":393958,"SoundDuration":393958,"Delta":129718502},{"NoteNumber":61,"Velocity":26,"Duration":393958,"SoundDuration":393958,"Delta":129718502},{"NoteNumber":67,"Velocity":47,"Duration":388853,"SoundDuration":388853,"Delta":130112461},{"NoteNumber":62,"Velocity":33,"Duration":388853,"SoundDuration":388853,"Delta":130112461},{"NoteNumber":65,"Velocity":43,"Duration":383235,"SoundDuration":383235,"Delta":130501314},{"NoteNumber":57,"Velocity":26,"Duration":391389,"SoundDuration":391389,"Delta":130501314},{"NoteNumber":65,"Velocity":45,"Duration":774042,"SoundDuration":774042,"Delta":130892703},{"NoteNumber":58,"Velocity":26,"Duration":383235,"SoundDuration":383235,"Delta":130892703},{"NoteNumber":59,"Velocity":32,"Duration":382653,"SoundDuration":382653,"Delta":131284092},{"NoteNumber":74,"Velocity":52,"Duration":387596,"SoundDuration":387596,"Delta":131666745},{"NoteNumber":55,"Velocity":26,"Duration":387596,"SoundDuration":387596,"Delta":131666745},{"NoteNumber":65,"Velocity":46,"Duration":773945,"SoundDuration":773945,"Delta":132054342},{"NoteNumber":62,"Velocity":26,"Duration":387596,"SoundDuration":387596,"Delta":132054342},{"NoteNumber":61,"Velocity":31,"Duration":386348,"SoundDuration":386348,"Delta":132441939},{"NoteNumber":64,"Velocity":43,"Duration":363372,"SoundDuration":363372,"Delta":132828288},{"NoteNumber":60,"Velocity":26,"Duration":363372,"SoundDuration":363372,"Delta":132828288},{"NoteNumber":64,"Velocity":36,"Duration":96899,"SoundDuration":96899,"Delta":133215885},{"NoteNumber":58,"Velocity":26,"Duration":387596,"SoundDuration":387596,"Delta":133215885},{"NoteNumber":60,"Velocity":26,"Duration":766624,"SoundDuration":766624,"Delta":133215885},{"NoteNumber":67,"Velocity":31,"Duration":96899,"SoundDuration":96899,"Delta":133312784},{"NoteNumber":72,"Velocity":32,"Duration":96899,"SoundDuration":96899,"Delta":133409683},{"NoteNumber":76,"Velocity":31,"Duration":96899,"SoundDuration":96899,"Delta":133506582},{"NoteNumber":77,"Velocity":39,"Duration":94756,"SoundDuration":94756,"Delta":133603482},{"NoteNumber":57,"Velocity":43,"Duration":379027,"SoundDuration":379027,"Delta":133603482},{"NoteNumber":72,"Velocity":38,"Duration":94756,"SoundDuration":94756,"Delta":133698238},{"NoteNumber":69,"Velocity":41,"Duration":94756,"SoundDuration":94756,"Delta":133792995},{"NoteNumber":65,"Velocity":47,"Duration":94756,"SoundDuration":94756,"Delta":133887752},{"NoteNumber":69,"Velocity":52,"Duration":95969,"SoundDuration":95969,"Delta":133982509},{"NoteNumber":65,"Velocity":48,"Duration":383877,"SoundDuration":383877,"Delta":133982509},{"NoteNumber":53,"Velocity":48,"Duration":383877,"SoundDuration":383877,"Delta":133982509},{"NoteNumber":72,"Velocity":41,"Duration":95969,"SoundDuration":95969,"Delta":134078478},{"NoteNumber":77,"Velocity":37,"Duration":95969,"SoundDuration":95969,"Delta":134174447},{"NoteNumber":81,"Velocity":35,"Duration":87971,"SoundDuration":87971,"Delta":134270416},{"NoteNumber":81,"Velocity":38,"Duration":96587,"SoundDuration":96587,"Delta":134366386},{"NoteNumber":62,"Velocity":42,"Duration":386348,"SoundDuration":386348,"Delta":134366386},{"NoteNumber":54,"Velocity":42,"Duration":386348,"SoundDuration":386348,"Delta":134366386},{"NoteNumber":74,"Velocity":32,"Duration":96587,"SoundDuration":96587,"Delta":134462973},{"NoteNumber":81,"Velocity":35,"Duration":96587,"SoundDuration":96587,"Delta":134559560},{"NoteNumber":86,"Velocity":35,"Duration":96587,"SoundDuration":96587,"Delta":134656147},{"NoteNumber":81,"Velocity":39,"Duration":95663,"SoundDuration":95663,"Delta":134752735},{"NoteNumber":60,"Velocity":47,"Duration":382653,"SoundDuration":382653,"Delta":134752735},{"NoteNumber":55,"Velocity":47,"Duration":382653,"SoundDuration":382653,"Delta":134752735},{"NoteNumber":74,"Velocity":34,"Duration":95663,"SoundDuration":95663,"Delta":134848398},{"NoteNumber":81,"Velocity":41,"Duration":95663,"SoundDuration":95663,"Delta":134944061},{"NoteNumber":82,"Velocity":48,"Duration":95663,"SoundDuration":95663,"Delta":135039724},{"NoteNumber":79,"Velocity":52,"Duration":95663,"SoundDuration":95663,"Delta":135135388},{"NoteNumber":58,"Velocity":47,"Duration":374681,"SoundDuration":374681,"Delta":135135388},{"NoteNumber":50,"Velocity":47,"Duration":374681,"SoundDuration":374681,"Delta":135135388},{"NoteNumber":74,"Velocity":41,"Duration":95663,"SoundDuration":95663,"Delta":135231051},{"NoteNumber":79,"Velocity":37,"Duration":95663,"SoundDuration":95663,"Delta":135326714},{"NoteNumber":82,"Velocity":34,"Duration":95663,"SoundDuration":95663,"Delta":135422377},{"NoteNumber":79,"Velocity":38,"Duration":95663,"SoundDuration":95663,"Delta":135518041},{"NoteNumber":53,"Velocity":43,"Duration":382652,"SoundDuration":382652,"Delta":135518041},{"NoteNumber":58,"Velocity":43,"Duration":762880,"SoundDuration":762880,"Delta":135518041},{"NoteNumber":73,"Velocity":32,"Duration":95663,"SoundDuration":95663,"Delta":135613704},{"NoteNumber":79,"Velocity":35,"Duration":95663,"SoundDuration":95663,"Delta":135709367},{"NoteNumber":82,"Velocity":35,"Duration":95663,"SoundDuration":95663,"Delta":135805030},{"NoteNumber":79,"Velocity":39,"Duration":95056,"SoundDuration":95056,"Delta":135900694},{"NoteNumber":52,"Velocity":41,"Duration":380227,"SoundDuration":380227,"Delta":135900694},{"NoteNumber":72,"Velocity":38,"Duration":95056,"SoundDuration":95056,"Delta":135995751},{"NoteNumber":79,"Velocity":40,"Duration":95056,"SoundDuration":95056,"Delta":136090808},{"NoteNumber":82,"Velocity":47,"Duration":95056,"SoundDuration":95056,"Delta":136185865},{"NoteNumber":76,"Velocity":54,"Duration":95663,"SoundDuration":95663,"Delta":136280922},{"NoteNumber":67,"Velocity":51,"Duration":382653,"SoundDuration":382653,"Delta":136280922},{"NoteNumber":72,"Velocity":47,"Duration":95663,"SoundDuration":95663,"Delta":136376585},{"NoteNumber":76,"Velocity":45,"Duration":95663,"SoundDuration":95663,"Delta":136472248},{"NoteNumber":79,"Velocity":39,"Duration":87691,"SoundDuration":87691,"Delta":136567911},{"NoteNumber":79,"Velocity":38,"Duration":95663,"SoundDuration":95663,"Delta":136663575},{"NoteNumber":48,"Velocity":44,"Duration":382653,"SoundDuration":382653,"Delta":136663575},{"NoteNumber":58,"Velocity":44,"Duration":760487,"SoundDuration":760487,"Delta":136663575},{"NoteNumber":76,"Velocity":32,"Duration":95663,"SoundDuration":95663,"Delta":136759238},{"NoteNumber":79,"Velocity":35,"Duration":95663,"SoundDuration":95663,"Delta":136854901},{"NoteNumber":84,"Velocity":35,"Duration":95663,"SoundDuration":95663,"Delta":136950564},{"NoteNumber":79,"Velocity":39,"Duration":94458,"SoundDuration":94458,"Delta":137046228},{"NoteNumber":53,"Velocity":49,"Duration":377834,"SoundDuration":377834,"Delta":137046228},{"NoteNumber":76,"Velocity":35,"Duration":94458,"SoundDuration":94458,"Delta":137140686},{"NoteNumber":79,"Velocity":36,"Duration":94458,"SoundDuration":94458,"Delta":137235145},{"NoteNumber":84,"Velocity":41,"Duration":94458,"SoundDuration":94458,"Delta":137329603},{"NoteNumber":81,"Velocity":46,"Duration":95359,"SoundDuration":95359,"Delta":137424062},{"NoteNumber":53,"Velocity":44,"Duration":381437,"SoundDuration":381437,"Delta":137424062},{"NoteNumber":57,"Velocity":44,"Duration":381437,"SoundDuration":381437,"Delta":137424062},{"NoteNumber":77,"Velocity":32,"Duration":95359,"SoundDuration":95359,"Delta":137519421},{"NoteNumber":81,"Velocity":32,"Duration":95359,"SoundDuration":95359,"Delta":137614780},{"NoteNumber":84,"Velocity":32,"Duration":95359,"SoundDuration":95359,"Delta":137710139},{"NoteNumber":81,"Velocity":38,"Duration":95359,"SoundDuration":95359,"Delta":137805499},{"NoteNumber":45,"Velocity":50,"Duration":755735,"SoundDuration":755735,"Delta":137805499},{"NoteNumber":77,"Velocity":32,"Duration":95359,"SoundDuration":95359,"Delta":137900858},{"NoteNumber":81,"Velocity":35,"Duration":95359,"SoundDuration":95359,"Delta":137996217},{"NoteNumber":84,"Velocity":35,"Duration":95359,"SoundDuration":95359,"Delta":138091576},{"NoteNumber":81,"Velocity":46,"Duration":93574,"SoundDuration":93574,"Delta":138186936},{"NoteNumber":77,"Velocity":37,"Duration":93574,"SoundDuration":93574,"Delta":138280510},{"NoteNumber":81,"Velocity":38,"Duration":93574,"SoundDuration":93574,"Delta":138374085},{"NoteNumber":86,"Velocity":37,"Duration":93574,"SoundDuration":93574,"Delta":138467659},{"NoteNumber":81,"Velocity":45,"Duration":95056,"SoundDuration":95056,"Delta":138561234},{"NoteNumber":50,"Velocity":56,"Duration":380227,"SoundDuration":380227,"Delta":138561234},{"NoteNumber":77,"Velocity":38,"Duration":95056,"SoundDuration":95056,"Delta":138656291},{"NoteNumber":81,"Velocity":38,"Duration":95056,"SoundDuration":95056,"Delta":138751348},{"NoteNumber":86,"Velocity":38,"Duration":95056,"SoundDuration":95056,"Delta":138846405},{"NoteNumber":82,"Velocity":45,"Duration":95359,"SoundDuration":95359,"Delta":138941462},{"NoteNumber":46,"Velocity":48,"Duration":381437,"SoundDuration":381437,"Delta":138941462},{"NoteNumber":77,"Velocity":39,"Duration":95359,"SoundDuration":95359,"Delta":139036821},{"NoteNumber":82,"Velocity":43,"Duration":95359,"SoundDuration":95359,"Delta":139132180},{"NoteNumber":86,"Velocity":43,"Duration":95359,"SoundDuration":95359,"Delta":139227539},{"NoteNumber":83,"Velocity":47,"Duration":94756,"SoundDuration":94756,"Delta":139322899},{"NoteNumber":45,"Velocity":58,"Duration":379027,"SoundDuration":379027,"Delta":139322899},{"NoteNumber":77,"Velocity":38,"Duration":94756,"SoundDuration":94756,"Delta":139417655},{"NoteNumber":83,"Velocity":39,"Duration":94756,"SoundDuration":94756,"Delta":139512412},{"NoteNumber":86,"Velocity":38,"Duration":94756,"SoundDuration":94756,"Delta":139607169},{"NoteNumber":83,"Velocity":47,"Duration":95359,"SoundDuration":95359,"Delta":139701926},{"NoteNumber":44,"Velocity":50,"Duration":373490,"SoundDuration":373490,"Delta":139701926},{"NoteNumber":76,"Velocity":39,"Duration":95359,"SoundDuration":95359,"Delta":139797285},{"NoteNumber":83,"Velocity":40,"Duration":95359,"SoundDuration":95359,"Delta":139892644},{"NoteNumber":86,"Velocity":40,"Duration":95359,"SoundDuration":95359,"Delta":139988003},{"NoteNumber":83,"Velocity":47,"Duration":95359,"SoundDuration":95359,"Delta":140083363},{"NoteNumber":44,"Velocity":58,"Duration":756906,"SoundDuration":756906,"Delta":140083363},{"NoteNumber":76,"Velocity":40,"Duration":95359,"SoundDuration":95359,"Delta":140178722},{"NoteNumber":83,"Velocity":45,"Duration":95359,"SoundDuration":95359,"Delta":140274081},{"NoteNumber":86,"Velocity":45,"Duration":95359,"SoundDuration":95359,"Delta":140369440},{"NoteNumber":83,"Velocity":50,"Duration":93867,"SoundDuration":93867,"Delta":140464800},{"NoteNumber":76,"Velocity":40,"Duration":93867,"SoundDuration":93867,"Delta":140558667},{"NoteNumber":83,"Velocity":42,"Duration":93867,"SoundDuration":93867,"Delta":140652534},{"NoteNumber":86,"Velocity":41,"Duration":93867,"SoundDuration":93867,"Delta":140746401},{"NoteNumber":83,"Velocity":50,"Duration":95056,"SoundDuration":95056,"Delta":140840269},{"NoteNumber":52,"Velocity":57,"Duration":762880,"SoundDuration":762880,"Delta":140840269},{"NoteNumber":76,"Velocity":42,"Duration":95056,"SoundDuration":95056,"Delta":140935326},{"NoteNumber":83,"Velocity":42,"Duration":95056,"SoundDuration":95056,"Delta":141030383},{"NoteNumber":86,"Velocity":42,"Duration":95056,"SoundDuration":95056,"Delta":141125440},{"NoteNumber":83,"Velocity":50,"Duration":95663,"SoundDuration":95663,"Delta":141220497},{"NoteNumber":44,"Velocity":50,"Duration":382653,"SoundDuration":382653,"Delta":141220497},{"NoteNumber":76,"Velocity":43,"Duration":95663,"SoundDuration":95663,"Delta":141316160},{"NoteNumber":83,"Velocity":47,"Duration":95663,"SoundDuration":95663,"Delta":141411823},{"NoteNumber":86,"Velocity":48,"Duration":95663,"SoundDuration":95663,"Delta":141507486},{"NoteNumber":83,"Velocity":53,"Duration":95359,"SoundDuration":95359,"Delta":141603150},{"NoteNumber":45,"Velocity":55,"Duration":381437,"SoundDuration":381437,"Delta":141603150},{"NoteNumber":76,"Velocity":44,"Duration":95359,"SoundDuration":95359,"Delta":141698509},{"NoteNumber":83,"Velocity":51,"Duration":95359,"SoundDuration":95359,"Delta":141793868},{"NoteNumber":84,"Velocity":55,"Duration":95359,"SoundDuration":95359,"Delta":141889227},{"NoteNumber":81,"Velocity":52,"Duration":95969,"SoundDuration":95969,"Delta":141984587},{"NoteNumber":52,"Velocity":59,"Duration":767753,"SoundDuration":767753,"Delta":141984587},{"NoteNumber":76,"Velocity":50,"Duration":95969,"SoundDuration":95969,"Delta":142080556},{"NoteNumber":81,"Velocity":48,"Duration":95969,"SoundDuration":95969,"Delta":142176525},{"NoteNumber":84,"Velocity":47,"Duration":95969,"SoundDuration":95969,"Delta":142272494},{"NoteNumber":81,"Velocity":54,"Duration":95969,"SoundDuration":95969,"Delta":142368464},{"NoteNumber":45,"Velocity":51,"Duration":383876,"SoundDuration":383876,"Delta":142368464},{"NoteNumber":76,"Velocity":45,"Duration":95969,"SoundDuration":95969,"Delta":142464433},{"NoteNumber":81,"Velocity":50,"Duration":95969,"SoundDuration":95969,"Delta":142560402},{"NoteNumber":84,"Velocity":48,"Duration":95969,"SoundDuration":95969,"Delta":142656371},{"NoteNumber":81,"Velocity":56,"Duration":94162,"SoundDuration":94162,"Delta":142752341},{"NoteNumber":47,"Velocity":56,"Duration":376647,"SoundDuration":376647,"Delta":142752341},{"NoteNumber":74,"Velocity":48,"Duration":94161,"SoundDuration":94161,"Delta":142846503},{"NoteNumber":81,"Velocity":55,"Duration":94162,"SoundDuration":94162,"Delta":142940665},{"NoteNumber":83,"Velocity":56,"Duration":94161,"SoundDuration":94161,"Delta":143034827},{"NoteNumber":80,"Velocity":59,"Duration":95359,"SoundDuration":95359,"Delta":143128989},{"NoteNumber":52,"Velocity":62,"Duration":762874,"SoundDuration":762874,"Delta":143128989},{"NoteNumber":74,"Velocity":52,"Duration":95359,"SoundDuration":95359,"Delta":143224348},{"NoteNumber":80,"Velocity":51,"Duration":95359,"SoundDuration":95359,"Delta":143319707},{"NoteNumber":83,"Velocity":48,"Duration":95359,"SoundDuration":95359,"Delta":143415066},{"NoteNumber":80,"Velocity":56,"Duration":95359,"SoundDuration":95359,"Delta":143510426},{"NoteNumber":47,"Velocity":57,"Duration":381437,"SoundDuration":381437,"Delta":143510426},{"NoteNumber":74,"Velocity":48,"Duration":95359,"SoundDuration":95359,"Delta":143605785},{"NoteNumber":80,"Velocity":54,"Duration":95359,"SoundDuration":95359,"Delta":143701144},{"NoteNumber":83,"Velocity":51,"Duration":95359,"SoundDuration":95359,"Delta":143796503},{"NoteNumber":80,"Velocity":59,"Duration":94162,"SoundDuration":94162,"Delta":143891863},{"NoteNumber":48,"Velocity":61,"Duration":376647,"SoundDuration":376647,"Delta":143891863},{"NoteNumber":72,"Velocity":56,"Duration":94161,"SoundDuration":94161,"Delta":143986025},{"NoteNumber":80,"Velocity":58,"Duration":94162,"SoundDuration":94162,"Delta":144080187},{"NoteNumber":83,"Velocity":60,"Duration":94161,"SoundDuration":94161,"Delta":144174349},{"NoteNumber":80,"Velocity":61,"Duration":94756,"SoundDuration":94756,"Delta":144268511},{"NoteNumber":52,"Velocity":68,"Duration":759254,"SoundDuration":759254,"Delta":144268511},{"NoteNumber":81,"Velocity":54,"Duration":94756,"SoundDuration":94756,"Delta":144363267},{"NoteNumber":72,"Velocity":50,"Duration":94756,"SoundDuration":94756,"Delta":144458024},{"NoteNumber":81,"Velocity":50,"Duration":94756,"SoundDuration":94756,"Delta":144552781},{"NoteNumber":80,"Velocity":59,"Duration":95056,"SoundDuration":95056,"Delta":144647538},{"NoteNumber":48,"Velocity":59,"Duration":380227,"SoundDuration":380227,"Delta":144647538},{"NoteNumber":81,"Velocity":50,"Duration":95056,"SoundDuration":95056,"Delta":144742595},{"NoteNumber":72,"Velocity":56,"Duration":95056,"SoundDuration":95056,"Delta":144837652},{"NoteNumber":81,"Velocity":53,"Duration":87135,"SoundDuration":87135,"Delta":144932709},{"NoteNumber":81,"Velocity":62,"Duration":92994,"SoundDuration":92994,"Delta":145027766},{"NoteNumber":51,"Velocity":64,"Duration":371978,"SoundDuration":371978,"Delta":145027766},{"NoteNumber":71,"Velocity":52,"Duration":92994,"SoundDuration":92994,"Delta":145120760},{"NoteNumber":81,"Velocity":53,"Duration":92994,"SoundDuration":92994,"Delta":145213755},{"NoteNumber":83,"Velocity":55,"Duration":92994,"SoundDuration":92994,"Delta":145306749},{"NoteNumber":81,"Velocity":60,"Duration":93867,"SoundDuration":93867,"Delta":145399744},{"NoteNumber":59,"Velocity":68,"Duration":752116,"SoundDuration":752116,"Delta":145399744},{"NoteNumber":71,"Velocity":56,"Duration":93867,"SoundDuration":93867,"Delta":145493611},{"NoteNumber":81,"Velocity":49,"Duration":93867,"SoundDuration":93867,"Delta":145587478},{"NoteNumber":83,"Velocity":49,"Duration":93867,"SoundDuration":93867,"Delta":145681345},{"NoteNumber":81,"Velocity":63,"Duration":94162,"SoundDuration":94162,"Delta":145775213},{"NoteNumber":51,"Velocity":63,"Duration":376647,"SoundDuration":376647,"Delta":145775213},{"NoteNumber":71,"Velocity":53,"Duration":94161,"SoundDuration":94161,"Delta":145869375},{"NoteNumber":81,"Velocity":58,"Duration":94162,"SoundDuration":94162,"Delta":145963537},{"NoteNumber":83,"Velocity":58,"Duration":94161,"SoundDuration":94161,"Delta":146057699},{"NoteNumber":81,"Velocity":65,"Duration":92706,"SoundDuration":92706,"Delta":146151861},{"NoteNumber":52,"Velocity":67,"Duration":370827,"SoundDuration":370827,"Delta":146151861},{"NoteNumber":71,"Velocity":54,"Duration":92707,"SoundDuration":92707,"Delta":146244568},{"NoteNumber":81,"Velocity":58,"Duration":92706,"SoundDuration":92706,"Delta":146337275},{"NoteNumber":83,"Velocity":60,"Duration":92706,"SoundDuration":92706,"Delta":146429982},{"NoteNumber":81,"Velocity":62,"Duration":93867,"SoundDuration":93867,"Delta":146522689},{"NoteNumber":60,"Velocity":73,"Duration":753303,"SoundDuration":753303,"Delta":146522689},{"NoteNumber":71,"Velocity":60,"Duration":93867,"SoundDuration":93867,"Delta":146616556},{"NoteNumber":81,"Velocity":56,"Duration":93867,"SoundDuration":93867,"Delta":146710423},{"NoteNumber":83,"Velocity":54,"Duration":93867,"SoundDuration":93867,"Delta":146804290},{"NoteNumber":81,"Velocity":64,"Duration":94458,"SoundDuration":94458,"Delta":146898158},{"NoteNumber":52,"Velocity":63,"Duration":377834,"SoundDuration":377834,"Delta":146898158},{"NoteNumber":71,"Velocity":56,"Duration":94458,"SoundDuration":94458,"Delta":146992616},{"NoteNumber":81,"Velocity":62,"Duration":94458,"SoundDuration":94458,"Delta":147087075},{"NoteNumber":83,"Velocity":58,"Duration":94458,"SoundDuration":94458,"Delta":147181533},{"NoteNumber":81,"Velocity":68,"Duration":93283,"SoundDuration":93283,"Delta":147275992},{"NoteNumber":54,"Velocity":68,"Duration":373133,"SoundDuration":373133,"Delta":147275992},{"NoteNumber":71,"Velocity":59,"Duration":93283,"SoundDuration":93283,"Delta":147369275},{"NoteNumber":81,"Velocity":62,"Duration":93283,"SoundDuration":93283,"Delta":147462559},{"NoteNumber":83,"Velocity":64,"Duration":93283,"SoundDuration":93283,"Delta":147555842},{"NoteNumber":81,"Velocity":67,"Duration":93574,"SoundDuration":93574,"Delta":147649126},{"NoteNumber":63,"Velocity":76,"Duration":749767,"SoundDuration":749767,"Delta":147649126},{"NoteNumber":71,"Velocity":64,"Duration":93574,"SoundDuration":93574,"Delta":147742700},{"NoteNumber":81,"Velocity":62,"Duration":93574,"SoundDuration":93574,"Delta":147836275},{"NoteNumber":83,"Velocity":62,"Duration":93574,"SoundDuration":93574,"Delta":147929849},{"NoteNumber":81,"Velocity":69,"Duration":93867,"SoundDuration":93867,"Delta":148023424},{"NoteNumber":54,"Velocity":70,"Duration":375469,"SoundDuration":375469,"Delta":148023424},{"NoteNumber":71,"Velocity":58,"Duration":93867,"SoundDuration":93867,"Delta":148117291},{"NoteNumber":81,"Velocity":64,"Duration":93867,"SoundDuration":93867,"Delta":148211158},{"NoteNumber":83,"Velocity":61,"Duration":93867,"SoundDuration":93867,"Delta":148305025},{"NoteNumber":79,"Velocity":72,"Duration":92994,"SoundDuration":92994,"Delta":148398893},{"NoteNumber":55,"Velocity":74,"Duration":371978,"SoundDuration":371978,"Delta":148398893},{"NoteNumber":71,"Velocity":62,"Duration":92994,"SoundDuration":92994,"Delta":148491887},{"NoteNumber":79,"Velocity":64,"Duration":92994,"SoundDuration":92994,"Delta":148584882},{"NoteNumber":83,"Velocity":65,"Duration":92994,"SoundDuration":92994,"Delta":148677876},{"NoteNumber":79,"Velocity":70,"Duration":92994,"SoundDuration":92994,"Delta":148770871},{"NoteNumber":64,"Velocity":78,"Duration":743955,"SoundDuration":743955,"Delta":148770871},{"NoteNumber":71,"Velocity":67,"Duration":92994,"SoundDuration":92994,"Delta":148863865},{"NoteNumber":79,"Velocity":65,"Duration":92994,"SoundDuration":92994,"Delta":148956860},{"NoteNumber":83,"Velocity":63,"Duration":85244,"SoundDuration":85244,"Delta":149049854},{"NoteNumber":83,"Velocity":73,"Duration":92994,"SoundDuration":92994,"Delta":149142849},{"NoteNumber":55,"Velocity":75,"Duration":371977,"SoundDuration":371977,"Delta":149142849},{"NoteNumber":76,"Velocity":61,"Duration":92994,"SoundDuration":92994,"Delta":149235843},{"NoteNumber":83,"Velocity":67,"Duration":92994,"SoundDuration":92994,"Delta":149328838},{"NoteNumber":88,"Velocity":64,"Duration":92994,"SoundDuration":92994,"Delta":149421832},{"NoteNumber":84,"Velocity":64,"Duration":92137,"SoundDuration":92137,"Delta":149514827},{"NoteNumber":57,"Velocity":77,"Duration":368549,"SoundDuration":368549,"Delta":149514827},{"NoteNumber":76,"Velocity":66,"Duration":92137,"SoundDuration":92137,"Delta":149606964},{"NoteNumber":84,"Velocity":69,"Duration":92137,"SoundDuration":92137,"Delta":149699102},{"NoteNumber":88,"Velocity":72,"Duration":92137,"SoundDuration":92137,"Delta":149791239},{"NoteNumber":84,"Velocity":78,"Duration":92421,"SoundDuration":92421,"Delta":149883377},{"NoteNumber":66,"Velocity":85,"Duration":739372,"SoundDuration":739372,"Delta":149883377},{"NoteNumber":76,"Velocity":74,"Duration":92421,"SoundDuration":92421,"Delta":149975798},{"NoteNumber":84,"Velocity":67,"Duration":92421,"SoundDuration":92421,"Delta":150068220},{"NoteNumber":88,"Velocity":67,"Duration":92421,"SoundDuration":92421,"Delta":150160641},{"NoteNumber":84,"Velocity":74,"Duration":92421,"SoundDuration":92421,"Delta":150253063},{"NoteNumber":57,"Velocity":81,"Duration":369686,"SoundDuration":369686,"Delta":150253063},{"NoteNumber":76,"Velocity":63,"Duration":92421,"SoundDuration":92421,"Delta":150345484},{"NoteNumber":84,"Velocity":70,"Duration":92421,"SoundDuration":92421,"Delta":150437906},{"NoteNumber":88,"Velocity":67,"Duration":92421,"SoundDuration":92421,"Delta":150530327},{"NoteNumber":85,"Velocity":77,"Duration":91575,"SoundDuration":91575,"Delta":150622749},{"NoteNumber":58,"Velocity":83,"Duration":366299,"SoundDuration":366299,"Delta":150622749},{"NoteNumber":79,"Velocity":67,"Duration":91575,"SoundDuration":91575,"Delta":150714324},{"NoteNumber":85,"Velocity":71,"Duration":91574,"SoundDuration":91574,"Delta":150805899},{"NoteNumber":88,"Velocity":75,"Duration":91575,"SoundDuration":91575,"Delta":150897474},{"NoteNumber":85,"Velocity":77,"Duration":91855,"SoundDuration":91855,"Delta":150989049},{"NoteNumber":67,"Velocity":90,"Duration":741720,"SoundDuration":741720,"Delta":150989049},{"NoteNumber":79,"Velocity":72,"Duration":91855,"SoundDuration":91855,"Delta":151080904},{"NoteNumber":85,"Velocity":72,"Duration":91855,"SoundDuration":91855,"Delta":151172760},{"NoteNumber":88,"Velocity":67,"Duration":91855,"SoundDuration":91855,"Delta":151264615},{"NoteNumber":85,"Velocity":78,"Duration":93574,"SoundDuration":93574,"Delta":151356471},{"NoteNumber":58,"Velocity":88,"Duration":374298,"SoundDuration":374298,"Delta":151356471},{"NoteNumber":79,"Velocity":66,"Duration":93574,"SoundDuration":93574,"Delta":151450045},{"NoteNumber":85,"Velocity":73,"Duration":93574,"SoundDuration":93574,"Delta":151543620},{"NoteNumber":88,"Velocity":66,"Duration":93574,"SoundDuration":93574,"Delta":151637194},{"NoteNumber":83,"Velocity":87,"Duration":92137,"SoundDuration":92137,"Delta":151730769},{"NoteNumber":59,"Velocity":99,"Duration":1105649,"SoundDuration":1105649,"Delta":151730769},{"NoteNumber":79,"Velocity":74,"Duration":92137,"SoundDuration":92137,"Delta":151822906},{"NoteNumber":83,"Velocity":79,"Duration":92137,"SoundDuration":92137,"Delta":151915044},{"NoteNumber":88,"Velocity":74,"Duration":92137,"SoundDuration":92137,"Delta":152007181},{"NoteNumber":91,"Velocity":85,"Duration":92137,"SoundDuration":92137,"Delta":152099319},{"NoteNumber":64,"Velocity":85,"Duration":368549,"SoundDuration":368549,"Delta":152099319},{"NoteNumber":90,"Velocity":75,"Duration":92137,"SoundDuration":92137,"Delta":152191456},{"NoteNumber":88,"Velocity":79,"Duration":92137,"SoundDuration":92137,"Delta":152283594},{"NoteNumber":87,"Velocity":75,"Duration":92137,"SoundDuration":92137,"Delta":152375731},{"NoteNumber":88,"Velocity":86,"Duration":92137,"SoundDuration":92137,"Delta":152467869},{"NoteNumber":67,"Velocity":85,"Duration":368549,"SoundDuration":368549,"Delta":152467869},{"NoteNumber":87,"Velocity":75,"Duration":92137,"SoundDuration":92137,"Delta":152560006},{"NoteNumber":88,"Velocity":79,"Duration":92137,"SoundDuration":92137,"Delta":152652144},{"NoteNumber":90,"Velocity":76,"Duration":92137,"SoundDuration":92137,"Delta":152744281},{"NoteNumber":91,"Velocity":85,"Duration":91855,"SoundDuration":91855,"Delta":152836419},{"NoteNumber":71,"Velocity":96,"Duration":367422,"SoundDuration":367422,"Delta":152836419},{"NoteNumber":90,"Velocity":79,"Duration":91855,"SoundDuration":91855,"Delta":152928274},{"NoteNumber":88,"Velocity":79,"Duration":91855,"SoundDuration":91855,"Delta":153020130},{"NoteNumber":87,"Velocity":75,"Duration":91855,"SoundDuration":91855,"Delta":153111985},{"NoteNumber":91,"Velocity":85,"Duration":91019,"SoundDuration":91019,"Delta":153203841},{"NoteNumber":76,"Velocity":85,"Duration":364078,"SoundDuration":364078,"Delta":153203841},{"NoteNumber":90,"Velocity":79,"Duration":91019,"SoundDuration":91019,"Delta":153294860},{"NoteNumber":88,"Velocity":79,"Duration":91019,"SoundDuration":91019,"Delta":153385880},{"NoteNumber":87,"Velocity":75,"Duration":91019,"SoundDuration":91019,"Delta":153476899},{"NoteNumber":91,"Velocity":85,"Duration":91855,"SoundDuration":91855,"Delta":153567919},{"NoteNumber":79,"Velocity":85,"Duration":370623,"SoundDuration":370623,"Delta":153567919},{"NoteNumber":90,"Velocity":79,"Duration":91855,"SoundDuration":91855,"Delta":153659774},{"NoteNumber":88,"Velocity":79,"Duration":91855,"SoundDuration":91855,"Delta":153751630},{"NoteNumber":87,"Velocity":76,"Duration":95056,"SoundDuration":95056,"Delta":153843485},{"NoteNumber":91,"Velocity":85,"Duration":92421,"SoundDuration":92421,"Delta":153938542},{"NoteNumber":90,"Velocity":79,"Duration":92421,"SoundDuration":92421,"Delta":154030964},{"NoteNumber":88,"Velocity":79,"Duration":92421,"SoundDuration":92421,"Delta":154123385},{"NoteNumber":87,"Velocity":76,"Duration":99469,"SoundDuration":99469,"Delta":154215807},{"NoteNumber":88,"Velocity":88,"Duration":184843,"SoundDuration":184843,"Delta":154315276},{"NoteNumber":79,"Velocity":86,"Duration":92421,"SoundDuration":92421,"Delta":154315276},{"NoteNumber":78,"Velocity":79,"Duration":92421,"SoundDuration":92421,"Delta":154407698},{"NoteNumber":76,"Velocity":79,"Duration":92421,"SoundDuration":92421,"Delta":154500119},{"NoteNumber":75,"Velocity":74,"Duration":100468,"SoundDuration":100468,"Delta":154592541},{"NoteNumber":76,"Velocity":85,"Duration":184843,"SoundDuration":184843,"Delta":154693009},{"NoteNumber":91,"Velocity":50,"Duration":198281,"SoundDuration":198281,"Delta":155062695},{"NoteNumber":90,"Velocity":42,"Duration":198281,"SoundDuration":198281,"Delta":155260977},{"NoteNumber":88,"Velocity":46,"Duration":198281,"SoundDuration":198281,"Delta":155459258},{"NoteNumber":79,"Velocity":50,"Duration":198281,"SoundDuration":198281,"Delta":155459258},{"NoteNumber":87,"Velocity":46,"Duration":198281,"SoundDuration":198281,"Delta":155657540},{"NoteNumber":78,"Velocity":41,"Duration":198281,"SoundDuration":198281,"Delta":155657540},{"NoteNumber":88,"Velocity":50,"Duration":396562,"SoundDuration":396562,"Delta":155855821},{"NoteNumber":76,"Velocity":45,"Duration":198281,"SoundDuration":198281,"Delta":155855821},{"NoteNumber":75,"Velocity":42,"Duration":198281,"SoundDuration":198281,"Delta":156054103},{"NoteNumber":91,"Velocity":50,"Duration":396563,"SoundDuration":396563,"Delta":156252384},{"NoteNumber":76,"Velocity":50,"Duration":396563,"SoundDuration":396563,"Delta":156252384},{"NoteNumber":90,"Velocity":47,"Duration":396562,"SoundDuration":396562,"Delta":156648947},{"NoteNumber":88,"Velocity":50,"Duration":396563,"SoundDuration":396563,"Delta":157045510},{"NoteNumber":79,"Velocity":41,"Duration":396563,"SoundDuration":396563,"Delta":157045510},{"NoteNumber":87,"Velocity":54,"Duration":396562,"SoundDuration":396562,"Delta":157442073},{"NoteNumber":78,"Velocity":46,"Duration":396562,"SoundDuration":396562,"Delta":157442073},{"NoteNumber":88,"Velocity":49,"Duration":396563,"SoundDuration":396563,"Delta":157838636},{"NoteNumber":76,"Velocity":39,"Duration":396563,"SoundDuration":396563,"Delta":157838636},{"NoteNumber":75,"Velocity":39,"Duration":396562,"SoundDuration":396562,"Delta":158235199},{"NoteNumber":91,"Velocity":50,"Duration":793126,"SoundDuration":793126,"Delta":158631762},{"NoteNumber":76,"Velocity":45,"Duration":396563,"SoundDuration":396563,"Delta":158631762},{"NoteNumber":90,"Velocity":50,"Duration":793126,"SoundDuration":793126,"Delta":159424888},{"NoteNumber":79,"Velocity":40,"Duration":793126,"SoundDuration":793126,"Delta":159821451},{"NoteNumber":88,"Velocity":50,"Duration":396563,"SoundDuration":396563,"Delta":160218014},{"NoteNumber":78,"Velocity":37,"Duration":793126,"SoundDuration":793126,"Delta":160614577},{"NoteNumber":67,"Velocity":50,"Duration":793126,"SoundDuration":793126,"Delta":161011140},{"NoteNumber":76,"Velocity":41,"Duration":396562,"SoundDuration":396562,"Delta":161407703},{"NoteNumber":66,"Velocity":56,"Duration":195058,"SoundDuration":195058,"Delta":161804266},{"NoteNumber":64,"Velocity":40,"Duration":195844,"SoundDuration":195844,"Delta":161999325},{"NoteNumber":64,"Velocity":50,"Duration":397877,"SoundDuration":397877,"Delta":162203684},{"NoteNumber":67,"Velocity":51,"Duration":795756,"SoundDuration":795756,"Delta":162203684},{"NoteNumber":66,"Velocity":59,"Duration":195058,"SoundDuration":195058,"Delta":162999440},{"NoteNumber":64,"Velocity":42,"Duration":193212,"SoundDuration":193212,"Delta":163194499},{"NoteNumber":64,"Velocity":50,"Duration":396562,"SoundDuration":396562,"Delta":163396112},{"NoteNumber":67,"Velocity":50,"Duration":388301,"SoundDuration":388301,"Delta":163792675},{"NoteNumber":66,"Velocity":46,"Duration":192554,"SoundDuration":192554,"Delta":164189238},{"NoteNumber":67,"Velocity":39,"Duration":392821,"SoundDuration":392821,"Delta":164189238},{"NoteNumber":64,"Velocity":46,"Duration":191922,"SoundDuration":191922,"Delta":164381792},{"NoteNumber":64,"Velocity":50,"Duration":186325,"SoundDuration":186325,"Delta":164582059},{"NoteNumber":66,"Velocity":39,"Duration":194426,"SoundDuration":194426,"Delta":164582059},{"NoteNumber":64,"Velocity":39,"Duration":186325,"SoundDuration":186325,"Delta":164776486},{"NoteNumber":64,"Velocity":39,"Duration":194426,"SoundDuration":194426,"Delta":164970912},{"NoteNumber":67,"Velocity":53,"Duration":191938,"SoundDuration":191938,"Delta":165165339},{"NoteNumber":66,"Velocity":56,"Duration":191938,"SoundDuration":191938,"Delta":165357277},{"NoteNumber":64,"Velocity":57,"Duration":195694,"SoundDuration":195694,"Delta":165549216},{"NoteNumber":79,"Velocity":55,"Duration":195694,"SoundDuration":195694,"Delta":165549216},{"NoteNumber":78,"Velocity":61,"Duration":195694,"SoundDuration":195694,"Delta":165744910},{"NoteNumber":91,"Velocity":61,"Duration":192554,"SoundDuration":192554,"Delta":165940605},{"NoteNumber":76,"Velocity":56,"Duration":192554,"SoundDuration":192554,"Delta":165940605},{"NoteNumber":90,"Velocity":66,"Duration":193806,"SoundDuration":193806,"Delta":166133159},{"NoteNumber":88,"Velocity":63,"Duration":195694,"SoundDuration":195694,"Delta":166326966},{"NoteNumber":79,"Velocity":58,"Duration":195694,"SoundDuration":195694,"Delta":166326966},{"NoteNumber":78,"Velocity":65,"Duration":192554,"SoundDuration":192554,"Delta":166522660},{"NoteNumber":67,"Velocity":63,"Duration":192554,"SoundDuration":192554,"Delta":166715215},{"NoteNumber":76,"Velocity":61,"Duration":192554,"SoundDuration":192554,"Delta":166715215},{"NoteNumber":66,"Velocity":74,"Duration":191326,"SoundDuration":191326,"Delta":166907769},{"NoteNumber":64,"Velocity":64,"Duration":194426,"SoundDuration":194426,"Delta":167099096},{"NoteNumber":55,"Velocity":71,"Duration":194426,"SoundDuration":194426,"Delta":167099096},{"NoteNumber":54,"Velocity":77,"Duration":207325,"SoundDuration":207325,"Delta":167293522},{"NoteNumber":52,"Velocity":74,"Duration":184071,"SoundDuration":184071,"Delta":167500848},{"NoteNumber":67,"Velocity":78,"Duration":117924,"SoundDuration":117924,"Delta":167868991},{"NoteNumber":64,"Velocity":66,"Duration":117924,"SoundDuration":117924,"Delta":167868991},{"NoteNumber":59,"Velocity":66,"Duration":117924,"SoundDuration":117924,"Delta":167868991},{"NoteNumber":55,"Velocity":66,"Duration":117924,"SoundDuration":117924,"Delta":167868991},{"NoteNumber":40,"Velocity":70,"Duration":117924,"SoundDuration":117924,"Delta":167868991},{"NoteNumber":52,"Velocity":70,"Duration":117924,"SoundDuration":117924,"Delta":167868991},{"NoteNumber":55,"Velocity":70,"Duration":801067,"SoundDuration":801067,"Delta":168340689},{"NoteNumber":59,"Velocity":70,"Duration":801067,"SoundDuration":801067,"Delta":168340689},{"NoteNumber":64,"Velocity":70,"Duration":801067,"SoundDuration":801067,"Delta":168340689},{"NoteNumber":67,"Velocity":84,"Duration":600800,"SoundDuration":600800,"Delta":168340689},{"NoteNumber":40,"Velocity":61,"Duration":801067,"SoundDuration":801067,"Delta":168340689},{"NoteNumber":52,"Velocity":72,"Duration":801067,"SoundDuration":801067,"Delta":168340689},{"NoteNumber":66,"Velocity":77,"Duration":200266,"SoundDuration":200266,"Delta":168941490},{"NoteNumber":64,"Velocity":68,"Duration":102529,"SoundDuration":102529,"Delta":169141757},{"NoteNumber":55,"Velocity":57,"Duration":102529,"SoundDuration":102529,"Delta":169141757},{"NoteNumber":52,"Velocity":63,"Duration":102529,"SoundDuration":102529,"Delta":169141757},{"NoteNumber":40,"Velocity":53,"Duration":102529,"SoundDuration":102529,"Delta":169141757},{"NoteNumber":57,"Velocity":70,"Duration":200266,"SoundDuration":200266,"Delta":169551873},{"NoteNumber":66,"Velocity":70,"Duration":200266,"SoundDuration":200266,"Delta":169551873},{"NoteNumber":69,"Velocity":84,"Duration":200266,"SoundDuration":200266,"Delta":169551873},{"NoteNumber":38,"Velocity":61,"Duration":200266,"SoundDuration":200266,"Delta":169551873},{"NoteNumber":50,"Velocity":72,"Duration":200266,"SoundDuration":200266,"Delta":169551873},{"NoteNumber":69,"Velocity":37,"Duration":400534,"SoundDuration":400534,"Delta":170352941},{"NoteNumber":66,"Velocity":31,"Duration":400534,"SoundDuration":400534,"Delta":170352941},{"NoteNumber":62,"Velocity":29,"Duration":400534,"SoundDuration":400534,"Delta":170352941},{"NoteNumber":66,"Velocity":37,"Duration":600800,"SoundDuration":600800,"Delta":170753475},{"NoteNumber":69,"Velocity":45,"Duration":600800,"SoundDuration":600800,"Delta":170753475},{"NoteNumber":60,"Velocity":30,"Duration":600800,"SoundDuration":600800,"Delta":170753475},{"NoteNumber":62,"Velocity":36,"Duration":600800,"SoundDuration":600800,"Delta":170753475},{"NoteNumber":67,"Velocity":40,"Duration":200266,"SoundDuration":200266,"Delta":171354276},{"NoteNumber":62,"Velocity":31,"Duration":200266,"SoundDuration":200266,"Delta":171354276},{"NoteNumber":59,"Velocity":26,"Duration":200266,"SoundDuration":200266,"Delta":171354276},{"NoteNumber":69,"Velocity":41,"Duration":308642,"SoundDuration":308642,"Delta":171554543},{"NoteNumber":66,"Velocity":35,"Duration":308642,"SoundDuration":308642,"Delta":171554543},{"NoteNumber":57,"Velocity":24,"Duration":308642,"SoundDuration":308642,"Delta":171554543},{"NoteNumber":60,"Velocity":28,"Duration":308642,"SoundDuration":308642,"Delta":171554543},{"NoteNumber":71,"Velocity":43,"Duration":300400,"SoundDuration":300400,"Delta":171966066},{"NoteNumber":67,"Velocity":36,"Duration":300400,"SoundDuration":300400,"Delta":171966066},{"NoteNumber":55,"Velocity":30,"Duration":300400,"SoundDuration":300400,"Delta":171966066},{"NoteNumber":59,"Velocity":36,"Duration":300400,"SoundDuration":300400,"Delta":171966066},{"NoteNumber":71,"Velocity":78,"Duration":101832,"SoundDuration":101832,"Delta":172767134},{"NoteNumber":67,"Velocity":66,"Duration":101832,"SoundDuration":101832,"Delta":172767134},{"NoteNumber":62,"Velocity":66,"Duration":101832,"SoundDuration":101832,"Delta":172767134},{"NoteNumber":59,"Velocity":66,"Duration":101832,"SoundDuration":101832,"Delta":172767134},{"NoteNumber":55,"Velocity":63,"Duration":101832,"SoundDuration":101832,"Delta":172767134},{"NoteNumber":43,"Velocity":53,"Duration":101832,"SoundDuration":101832,"Delta":172767134},{"NoteNumber":62,"Velocity":70,"Duration":801067,"SoundDuration":801067,"Delta":173174466},{"NoteNumber":59,"Velocity":70,"Duration":801067,"SoundDuration":801067,"Delta":173174466},{"NoteNumber":67,"Velocity":70,"Duration":801067,"SoundDuration":801067,"Delta":173174466},{"NoteNumber":71,"Velocity":84,"Duration":600800,"SoundDuration":600800,"Delta":173174466},{"NoteNumber":43,"Velocity":61,"Duration":801067,"SoundDuration":801067,"Delta":173174466},{"NoteNumber":55,"Velocity":72,"Duration":801067,"SoundDuration":801067,"Delta":173174466},{"NoteNumber":69,"Velocity":77,"Duration":200266,"SoundDuration":200266,"Delta":173775267},{"NoteNumber":67,"Velocity":68,"Duration":103591,"SoundDuration":103591,"Delta":173975534},{"NoteNumber":59,"Velocity":57,"Duration":103591,"SoundDuration":103591,"Delta":173975534},{"NoteNumber":43,"Velocity":63,"Duration":103591,"SoundDuration":103591,"Delta":173975534},{"NoteNumber":31,"Velocity":53,"Duration":103591,"SoundDuration":103591,"Delta":173975534},{"NoteNumber":61,"Velocity":70,"Duration":199601,"SoundDuration":199601,"Delta":174389899},{"NoteNumber":70,"Velocity":70,"Duration":199601,"SoundDuration":199601,"Delta":174389899},{"NoteNumber":73,"Velocity":84,"Duration":199601,"SoundDuration":199601,"Delta":174389899},{"NoteNumber":30,"Velocity":61,"Duration":199601,"SoundDuration":199601,"Delta":174389899},{"NoteNumber":42,"Velocity":72,"Duration":199601,"SoundDuration":199601,"Delta":174389899},{"NoteNumber":73,"Velocity":37,"Duration":399202,"SoundDuration":399202,"Delta":175188303},{"NoteNumber":70,"Velocity":31,"Duration":399202,"SoundDuration":399202,"Delta":175188303},{"NoteNumber":66,"Velocity":29,"Duration":399202,"SoundDuration":399202,"Delta":175188303},{"NoteNumber":70,"Velocity":37,"Duration":598803,"SoundDuration":598803,"Delta":175587505},{"NoteNumber":73,"Velocity":45,"Duration":598803,"SoundDuration":598803,"Delta":175587505},{"NoteNumber":64,"Velocity":30,"Duration":598803,"SoundDuration":598803,"Delta":175587505},{"NoteNumber":66,"Velocity":36,"Duration":598803,"SoundDuration":598803,"Delta":175587505},{"NoteNumber":71,"Velocity":40,"Duration":199601,"SoundDuration":199601,"Delta":176186308},{"NoteNumber":66,"Velocity":31,"Duration":199601,"SoundDuration":199601,"Delta":176186308},{"NoteNumber":62,"Velocity":26,"Duration":199601,"SoundDuration":199601,"Delta":176186308},{"NoteNumber":73,"Velocity":41,"Duration":303438,"SoundDuration":303438,"Delta":176385909},{"NoteNumber":70,"Velocity":35,"Duration":303438,"SoundDuration":303438,"Delta":176385909},{"NoteNumber":61,"Velocity":24,"Duration":303438,"SoundDuration":303438,"Delta":176385909},{"NoteNumber":64,"Velocity":28,"Duration":303438,"SoundDuration":303438,"Delta":176385909},{"NoteNumber":74,"Velocity":43,"Duration":299401,"SoundDuration":299401,"Delta":176790494},{"NoteNumber":71,"Velocity":36,"Duration":299401,"SoundDuration":299401,"Delta":176790494},{"NoteNumber":59,"Velocity":30,"Duration":299401,"SoundDuration":299401,"Delta":176790494},{"NoteNumber":62,"Velocity":36,"Duration":299401,"SoundDuration":299401,"Delta":176790494},{"NoteNumber":74,"Velocity":70,"Duration":780234,"SoundDuration":780234,"Delta":177588898},{"NoteNumber":62,"Velocity":38,"Duration":773994,"SoundDuration":773994,"Delta":177979015},{"NoteNumber":59,"Velocity":38,"Duration":1174528,"SoundDuration":1174528,"Delta":177979015},{"NoteNumber":67,"Velocity":45,"Duration":1975596,"SoundDuration":1975596,"Delta":177979015},{"NoteNumber":79,"Velocity":70,"Duration":383877,"SoundDuration":383877,"Delta":178369132},{"NoteNumber":76,"Velocity":62,"Duration":400533,"SoundDuration":400533,"Delta":178753009},{"NoteNumber":64,"Velocity":50,"Duration":1201602,"SoundDuration":1201602,"Delta":178753009},{"NoteNumber":74,"Velocity":66,"Duration":400533,"SoundDuration":400533,"Delta":179153543},{"NoteNumber":57,"Velocity":39,"Duration":801068,"SoundDuration":801068,"Delta":179153543},{"NoteNumber":72,"Velocity":56,"Duration":380507,"SoundDuration":380507,"Delta":179554077},{"NoteNumber":72,"Velocity":61,"Duration":777705,"SoundDuration":777705,"Delta":179954611},{"NoteNumber":66,"Velocity":38,"Duration":1159143,"SoundDuration":1159143,"Delta":179954611},{"NoteNumber":63,"Velocity":32,"Duration":388853,"SoundDuration":388853,"Delta":179954611},{"NoteNumber":62,"Velocity":34,"Duration":770289,"SoundDuration":770289,"Delta":180343464},{"NoteNumber":81,"Velocity":61,"Duration":381437,"SoundDuration":381437,"Delta":180732317},{"NoteNumber":72,"Velocity":52,"Duration":802462,"SoundDuration":802462,"Delta":181113754},{"NoteNumber":66,"Velocity":46,"Duration":404584,"SoundDuration":404584,"Delta":181113754},{"NoteNumber":67,"Velocity":46,"Duration":795756,"SoundDuration":795756,"Delta":181518339},{"NoteNumber":71,"Velocity":61,"Duration":377984,"SoundDuration":377984,"Delta":181916217},{"NoteNumber":71,"Velocity":55,"Duration":782778,"SoundDuration":782778,"Delta":182314095},{"NoteNumber":55,"Velocity":45,"Duration":391389,"SoundDuration":391389,"Delta":182314095},{"NoteNumber":52,"Velocity":49,"Duration":790591,"SoundDuration":790591,"Delta":182705484},{"NoteNumber":67,"Velocity":50,"Duration":379241,"SoundDuration":379241,"Delta":183096873},{"NoteNumber":67,"Velocity":44,"Duration":798404,"SoundDuration":798404,"Delta":183496075},{"NoteNumber":64,"Velocity":41,"Duration":399202,"SoundDuration":399202,"Delta":183496075},{"NoteNumber":60,"Velocity":40,"Duration":798404,"SoundDuration":798404,"Delta":183895277},{"NoteNumber":64,"Velocity":43,"Duration":379241,"SoundDuration":379241,"Delta":184294479},{"NoteNumber":64,"Velocity":40,"Duration":782778,"SoundDuration":782778,"Delta":184693681},{"NoteNumber":48,"Velocity":28,"Duration":1727691,"SoundDuration":1727691,"Delta":184693681},{"NoteNumber":36,"Velocity":28,"Duration":1336302,"SoundDuration":1336302,"Delta":185085070},{"NoteNumber":55,"Velocity":36,"Duration":436395,"SoundDuration":436395,"Delta":185476459},{"NoteNumber":52,"Velocity":24,"Duration":508518,"SoundDuration":508518,"Delta":185912854},{"NoteNumber":51,"Velocity":24,"Duration":1223103,"SoundDuration":1223103,"Delta":186421372},{"NoteNumber":59,"Velocity":28,"Duration":1223103,"SoundDuration":1223103,"Delta":186421372},{"NoteNumber":47,"Velocity":28,"Duration":1223103,"SoundDuration":1223103,"Delta":186421372},{"NoteNumber":35,"Velocity":24,"Duration":1223103,"SoundDuration":1223103,"Delta":186421372},{"NoteNumber":76,"Velocity":51,"Duration":986277,"SoundDuration":986277,"Delta":187780376},{"NoteNumber":88,"Velocity":61,"Duration":986277,"SoundDuration":986277,"Delta":187780376},{"NoteNumber":59,"Velocity":34,"Duration":1206067,"SoundDuration":1206067,"Delta":188173046},{"NoteNumber":43,"Velocity":28,"Duration":1206067,"SoundDuration":1206067,"Delta":188173046},{"NoteNumber":52,"Velocity":28,"Duration":2418658,"SoundDuration":2418658,"Delta":188173046},{"NoteNumber":75,"Velocity":45,"Duration":200937,"SoundDuration":200937,"Delta":188766654},{"NoteNumber":87,"Velocity":53,"Duration":200937,"SoundDuration":200937,"Delta":188766654},{"NoteNumber":76,"Velocity":48,"Duration":411522,"SoundDuration":411522,"Delta":188967591},{"NoteNumber":88,"Velocity":57,"Duration":411522,"SoundDuration":411522,"Delta":188967591},{"NoteNumber":60,"Velocity":51,"Duration":801067,"SoundDuration":801067,"Delta":189379114},{"NoteNumber":64,"Velocity":51,"Duration":801067,"SoundDuration":801067,"Delta":189379114},{"NoteNumber":66,"Velocity":61,"Duration":801067,"SoundDuration":801067,"Delta":189379114},{"NoteNumber":45,"Velocity":39,"Duration":801067,"SoundDuration":801067,"Delta":189379114},{"NoteNumber":66,"Velocity":66,"Duration":411522,"SoundDuration":411522,"Delta":190180182},{"NoteNumber":64,"Velocity":56,"Duration":411522,"SoundDuration":411522,"Delta":190180182},{"NoteNumber":61,"Velocity":56,"Duration":411522,"SoundDuration":411522,"Delta":190180182},{"NoteNumber":46,"Velocity":43,"Duration":411522,"SoundDuration":411522,"Delta":190180182},{"NoteNumber":57,"Velocity":60,"Duration":1218793,"SoundDuration":1218793,"Delta":190591705},{"NoteNumber":63,"Velocity":60,"Duration":1218793,"SoundDuration":1218793,"Delta":190591705},{"NoteNumber":66,"Velocity":71,"Duration":611790,"SoundDuration":611790,"Delta":190591705},{"NoteNumber":47,"Velocity":49,"Duration":1218793,"SoundDuration":1218793,"Delta":190591705},{"NoteNumber":67,"Velocity":51,"Duration":200266,"SoundDuration":200266,"Delta":191203495},{"NoteNumber":69,"Velocity":56,"Duration":200266,"SoundDuration":200266,"Delta":191403762},{"NoteNumber":67,"Velocity":43,"Duration":206469,"SoundDuration":206469,"Delta":191604029},{"NoteNumber":66,"Velocity":47,"Duration":400533,"SoundDuration":400533,"Delta":191810499},{"NoteNumber":55,"Velocity":29,"Duration":813472,"SoundDuration":813472,"Delta":191810499},{"NoteNumber":48,"Velocity":24,"Duration":813472,"SoundDuration":813472,"Delta":191810499},{"NoteNumber":64,"Velocity":39,"Duration":412938,"SoundDuration":412938,"Delta":192211033},{"NoteNumber":76,"Velocity":51,"Duration":987668,"SoundDuration":987668,"Delta":192623972},{"NoteNumber":88,"Velocity":61,"Duration":987668,"SoundDuration":987668,"Delta":192623972},{"NoteNumber":47,"Velocity":32,"Duration":194426,"SoundDuration":194426,"Delta":192623972},{"NoteNumber":45,"Velocity":35,"Duration":194426,"SoundDuration":194426,"Delta":192818398},{"NoteNumber":52,"Velocity":39,"Duration":2439250,"SoundDuration":2439250,"Delta":193012825},{"NoteNumber":43,"Velocity":39,"Duration":799752,"SoundDuration":799752,"Delta":193012825},{"NoteNumber":59,"Velocity":39,"Duration":1216998,"SoundDuration":1216998,"Delta":193012825},{"NoteNumber":75,"Velocity":52,"Duration":200937,"SoundDuration":200937,"Delta":193611640},{"NoteNumber":87,"Velocity":61,"Duration":200937,"SoundDuration":200937,"Delta":193611640},{"NoteNumber":76,"Velocity":56,"Duration":417246,"SoundDuration":417246,"Delta":193812578},{"NoteNumber":88,"Velocity":66,"Duration":417246,"SoundDuration":417246,"Delta":193812578},{"NoteNumber":44,"Velocity":37,"Duration":417246,"SoundDuration":417246,"Delta":193812578},{"NoteNumber":60,"Velocity":51,"Duration":806452,"SoundDuration":806452,"Delta":194229824},{"NoteNumber":64,"Velocity":51,"Duration":806452,"SoundDuration":806452,"Delta":194229824},{"NoteNumber":66,"Velocity":61,"Duration":806452,"SoundDuration":806452,"Delta":194229824},{"NoteNumber":45,"Velocity":39,"Duration":806452,"SoundDuration":806452,"Delta":194229824},{"NoteNumber":66,"Velocity":52,"Duration":415799,"SoundDuration":415799,"Delta":195036276},{"NoteNumber":64,"Velocity":44,"Duration":415799,"SoundDuration":415799,"Delta":195036276},{"NoteNumber":61,"Velocity":44,"Duration":415799,"SoundDuration":415799,"Delta":195036276},{"NoteNumber":46,"Velocity":34,"Duration":415799,"SoundDuration":415799,"Delta":195036276},{"NoteNumber":57,"Velocity":46,"Duration":1335121,"SoundDuration":1335121,"Delta":195452076},{"NoteNumber":63,"Velocity":46,"Duration":1335121,"SoundDuration":1335121,"Delta":195452076},{"NoteNumber":66,"Velocity":55,"Duration":623700,"SoundDuration":623700,"Delta":195452076},{"NoteNumber":35,"Velocity":29,"Duration":1335121,"SoundDuration":1335121,"Delta":195452076},{"NoteNumber":47,"Velocity":38,"Duration":1335121,"SoundDuration":1335121,"Delta":195452076},{"NoteNumber":69,"Velocity":38,"Duration":222205,"SoundDuration":222205,"Delta":196075776},{"NoteNumber":67,"Velocity":41,"Duration":237135,"SoundDuration":237135,"Delta":196297982},{"NoteNumber":66,"Velocity":32,"Duration":252079,"SoundDuration":252079,"Delta":196535117},{"NoteNumber":55,"Velocity":30,"Duration":500834,"SoundDuration":500834,"Delta":196787197},{"NoteNumber":64,"Velocity":36,"Duration":500834,"SoundDuration":500834,"Delta":196787197},{"NoteNumber":52,"Velocity":22,"Duration":500834,"SoundDuration":500834,"Delta":196787197},{"NoteNumber":40,"Velocity":18,"Duration":500834,"SoundDuration":500834,"Delta":196787197},{"NoteNumber":55,"Velocity":30,"Duration":98489,"SoundDuration":98489,"Delta":197788867},{"NoteNumber":67,"Velocity":36,"Duration":98489,"SoundDuration":98489,"Delta":197788867},{"NoteNumber":31,"Velocity":25,"Duration":98489,"SoundDuration":98489,"Delta":197788867},{"NoteNumber":43,"Velocity":30,"Duration":98489,"SoundDuration":98489,"Delta":197788867},{"NoteNumber":67,"Velocity":41,"Duration":793126,"SoundDuration":793126,"Delta":198182826},{"NoteNumber":55,"Velocity":34,"Duration":793126,"SoundDuration":793126,"Delta":198182826},{"NoteNumber":31,"Velocity":28,"Duration":793126,"SoundDuration":793126,"Delta":198182826},{"NoteNumber":43,"Velocity":34,"Duration":793126,"SoundDuration":793126,"Delta":198182826},{"NoteNumber":60,"Velocity":30,"Duration":97847,"SoundDuration":97847,"Delta":198975952},{"NoteNumber":72,"Velocity":36,"Duration":97847,"SoundDuration":97847,"Delta":198975952},{"NoteNumber":36,"Velocity":25,"Duration":97847,"SoundDuration":97847,"Delta":198975952},{"NoteNumber":48,"Velocity":30,"Duration":97847,"SoundDuration":97847,"Delta":198975952},{"NoteNumber":72,"Velocity":42,"Duration":790514,"SoundDuration":790514,"Delta":199367341},{"NoteNumber":60,"Velocity":35,"Duration":790514,"SoundDuration":790514,"Delta":199367341},{"NoteNumber":36,"Velocity":28,"Duration":790514,"SoundDuration":790514,"Delta":199367341},{"NoteNumber":48,"Velocity":34,"Duration":790514,"SoundDuration":790514,"Delta":199367341},{"NoteNumber":67,"Velocity":30,"Duration":97529,"SoundDuration":97529,"Delta":200157855},{"NoteNumber":79,"Velocity":36,"Duration":97529,"SoundDuration":97529,"Delta":200157855},{"NoteNumber":43,"Velocity":25,"Duration":97529,"SoundDuration":97529,"Delta":200157855},{"NoteNumber":55,"Velocity":30,"Duration":97529,"SoundDuration":97529,"Delta":200157855},{"NoteNumber":79,"Velocity":40,"Duration":790514,"SoundDuration":790514,"Delta":200547972},{"NoteNumber":67,"Velocity":34,"Duration":790514,"SoundDuration":790514,"Delta":200547972},{"NoteNumber":43,"Velocity":28,"Duration":790514,"SoundDuration":790514,"Delta":200547972},{"NoteNumber":55,"Velocity":34,"Duration":790514,"SoundDuration":790514,"Delta":200547972},{"NoteNumber":84,"Velocity":36,"Duration":97847,"SoundDuration":97847,"Delta":201338486},{"NoteNumber":72,"Velocity":30,"Duration":97847,"SoundDuration":97847,"Delta":201338486},{"NoteNumber":48,"Velocity":25,"Duration":97847,"SoundDuration":97847,"Delta":201338486},{"NoteNumber":60,"Velocity":30,"Duration":97847,"SoundDuration":97847,"Delta":201338486},{"NoteNumber":72,"Velocity":34,"Duration":809785,"SoundDuration":809785,"Delta":201729875},{"NoteNumber":84,"Velocity":41,"Duration":809785,"SoundDuration":809785,"Delta":201729875},{"NoteNumber":48,"Velocity":28,"Duration":809785,"SoundDuration":809785,"Delta":201729875},{"NoteNumber":60,"Velocity":34,"Duration":809785,"SoundDuration":809785,"Delta":201729875},{"NoteNumber":77,"Velocity":70,"Duration":101832,"SoundDuration":101832,"Delta":202539661},{"NoteNumber":86,"Velocity":70,"Duration":101832,"SoundDuration":101832,"Delta":202539661},{"NoteNumber":89,"Velocity":82,"Duration":101832,"SoundDuration":101832,"Delta":202539661},{"NoteNumber":59,"Velocity":54,"Duration":101832,"SoundDuration":101832,"Delta":202539661},{"NoteNumber":62,"Velocity":54,"Duration":101832,"SoundDuration":101832,"Delta":202539661},{"NoteNumber":65,"Velocity":54,"Duration":101832,"SoundDuration":101832,"Delta":202539661},{"NoteNumber":67,"Velocity":65,"Duration":101832,"SoundDuration":101832,"Delta":202539661},{"NoteNumber":77,"Velocity":76,"Duration":600800,"SoundDuration":600800,"Delta":202946993},{"NoteNumber":86,"Velocity":76,"Duration":600800,"SoundDuration":600800,"Delta":202946993},{"NoteNumber":89,"Velocity":90,"Duration":600800,"SoundDuration":600800,"Delta":202946993},{"NoteNumber":59,"Velocity":59,"Duration":600800,"SoundDuration":600800,"Delta":202946993},{"NoteNumber":62,"Velocity":59,"Duration":600800,"SoundDuration":600800,"Delta":202946993},{"NoteNumber":65,"Velocity":59,"Duration":600800,"SoundDuration":600800,"Delta":202946993},{"NoteNumber":67,"Velocity":71,"Duration":600800,"SoundDuration":600800,"Delta":202946993},{"NoteNumber":88,"Velocity":70,"Duration":110146,"SoundDuration":110146,"Delta":203547794},{"NoteNumber":86,"Velocity":69,"Duration":108775,"SoundDuration":108775,"Delta":203647927},{"NoteNumber":84,"Velocity":68,"Duration":107631,"SoundDuration":107631,"Delta":203746918},{"NoteNumber":83,"Velocity":68,"Duration":107631,"SoundDuration":107631,"Delta":203844765},{"NoteNumber":81,"Velocity":68,"Duration":107631,"SoundDuration":107631,"Delta":203942612},{"NoteNumber":79,"Velocity":66,"Duration":107744,"SoundDuration":107744,"Delta":204040460},{"NoteNumber":77,"Velocity":64,"Duration":107984,"SoundDuration":107984,"Delta":204138387},{"NoteNumber":76,"Velocity":64,"Duration":107984,"SoundDuration":107984,"Delta":204236554},{"NoteNumber":74,"Velocity":64,"Duration":107984,"SoundDuration":107984,"Delta":204334722},{"NoteNumber":72,"Velocity":64,"Duration":108016,"SoundDuration":108016,"Delta":204432889},{"NoteNumber":71,"Velocity":63,"Duration":72225,"SoundDuration":72225,"Delta":204531057},{"NoteNumber":69,"Velocity":63,"Duration":72225,"SoundDuration":72225,"Delta":204596717},{"NoteNumber":67,"Velocity":63,"Duration":72225,"SoundDuration":72225,"Delta":204662376},{"NoteNumber":65,"Velocity":63,"Duration":72225,"SoundDuration":72225,"Delta":204728036},{"NoteNumber":64,"Velocity":63,"Duration":72225,"SoundDuration":72225,"Delta":204793696},{"NoteNumber":62,"Velocity":63,"Duration":72225,"SoundDuration":72225,"Delta":204859356},{"NoteNumber":60,"Velocity":63,"Duration":87753,"SoundDuration":87753,"Delta":204925016},{"NoteNumber":59,"Velocity":63,"Duration":89635,"SoundDuration":89635,"Delta":205004397},{"NoteNumber":57,"Velocity":63,"Duration":91599,"SoundDuration":91599,"Delta":205085488},{"NoteNumber":55,"Velocity":62,"Duration":93677,"SoundDuration":93677,"Delta":205168365},{"NoteNumber":54,"Velocity":62,"Duration":94812,"SoundDuration":94812,"Delta":205253108},{"NoteNumber":55,"Velocity":89,"Duration":199601,"SoundDuration":199601,"Delta":205339604},{"NoteNumber":65,"Velocity":40,"Duration":97847,"SoundDuration":97847,"Delta":206138008},{"NoteNumber":62,"Velocity":34,"Duration":97847,"SoundDuration":97847,"Delta":206138008},{"NoteNumber":55,"Velocity":34,"Duration":97847,"SoundDuration":97847,"Delta":206138008},{"NoteNumber":47,"Velocity":29,"Duration":97847,"SoundDuration":97847,"Delta":206138008},{"NoteNumber":35,"Velocity":24,"Duration":97847,"SoundDuration":97847,"Delta":206138008},{"NoteNumber":64,"Velocity":45,"Duration":199601,"SoundDuration":199601,"Delta":206529397},{"NoteNumber":60,"Velocity":38,"Duration":199601,"SoundDuration":199601,"Delta":206529397},{"NoteNumber":55,"Velocity":38,"Duration":199601,"SoundDuration":199601,"Delta":206529397},{"NoteNumber":36,"Velocity":29,"Duration":199601,"SoundDuration":199601,"Delta":206529397},{"NoteNumber":48,"Velocity":35,"Duration":199601,"SoundDuration":199601,"Delta":206529397},{"NoteNumber":74,"Velocity":76,"Duration":101832,"SoundDuration":101832,"Delta":207327801},{"NoteNumber":80,"Velocity":76,"Duration":101832,"SoundDuration":101832,"Delta":207327801},{"NoteNumber":83,"Velocity":76,"Duration":101832,"SoundDuration":101832,"Delta":207327801},{"NoteNumber":86,"Velocity":90,"Duration":101832,"SoundDuration":101832,"Delta":207327801},{"NoteNumber":52,"Velocity":59,"Duration":101832,"SoundDuration":101832,"Delta":207327801},{"NoteNumber":56,"Velocity":59,"Duration":101832,"SoundDuration":101832,"Delta":207327801},{"NoteNumber":59,"Velocity":59,"Duration":101832,"SoundDuration":101832,"Delta":207327801},{"NoteNumber":62,"Velocity":71,"Duration":101832,"SoundDuration":101832,"Delta":207327801},{"NoteNumber":74,"Velocity":84,"Duration":600800,"SoundDuration":600800,"Delta":207735133},{"NoteNumber":80,"Velocity":84,"Duration":600800,"SoundDuration":600800,"Delta":207735133},{"NoteNumber":83,"Velocity":84,"Duration":600800,"SoundDuration":600800,"Delta":207735133},{"NoteNumber":86,"Velocity":98,"Duration":600800,"SoundDuration":600800,"Delta":207735133},{"NoteNumber":52,"Velocity":65,"Duration":600800,"SoundDuration":600800,"Delta":207735133},{"NoteNumber":56,"Velocity":65,"Duration":600800,"SoundDuration":600800,"Delta":207735133},{"NoteNumber":59,"Velocity":65,"Duration":600800,"SoundDuration":600800,"Delta":207735133},{"NoteNumber":62,"Velocity":77,"Duration":600800,"SoundDuration":600800,"Delta":207735133},{"NoteNumber":84,"Velocity":70,"Duration":110146,"SoundDuration":110146,"Delta":208335934},{"NoteNumber":83,"Velocity":69,"Duration":108775,"SoundDuration":108775,"Delta":208436067},{"NoteNumber":81,"Velocity":68,"Duration":107631,"SoundDuration":107631,"Delta":208535057},{"NoteNumber":80,"Velocity":68,"Duration":107631,"SoundDuration":107631,"Delta":208632905},{"NoteNumber":78,"Velocity":68,"Duration":107631,"SoundDuration":107631,"Delta":208730752},{"NoteNumber":76,"Velocity":66,"Duration":107744,"SoundDuration":107744,"Delta":208828599},{"NoteNumber":74,"Velocity":64,"Duration":107984,"SoundDuration":107984,"Delta":208926526},{"NoteNumber":72,"Velocity":64,"Duration":107984,"SoundDuration":107984,"Delta":209024694},{"NoteNumber":71,"Velocity":64,"Duration":107984,"SoundDuration":107984,"Delta":209122861},{"NoteNumber":69,"Velocity":64,"Duration":108016,"SoundDuration":108016,"Delta":209221029},{"NoteNumber":68,"Velocity":63,"Duration":72225,"SoundDuration":72225,"Delta":209319196},{"NoteNumber":66,"Velocity":63,"Duration":72225,"SoundDuration":72225,"Delta":209384856},{"NoteNumber":64,"Velocity":63,"Duration":72225,"SoundDuration":72225,"Delta":209450516},{"NoteNumber":62,"Velocity":63,"Duration":72225,"SoundDuration":72225,"Delta":209516176},{"NoteNumber":60,"Velocity":63,"Duration":72225,"SoundDuration":72225,"Delta":209581836},{"NoteNumber":59,"Velocity":63,"Duration":72225,"SoundDuration":72225,"Delta":209647496},{"NoteNumber":57,"Velocity":63,"Duration":87753,"SoundDuration":87753,"Delta":209713155},{"NoteNumber":56,"Velocity":63,"Duration":89635,"SoundDuration":89635,"Delta":209792537},{"NoteNumber":54,"Velocity":63,"Duration":91599,"SoundDuration":91599,"Delta":209873628},{"NoteNumber":52,"Velocity":62,"Duration":93677,"SoundDuration":93677,"Delta":209956505},{"NoteNumber":51,"Velocity":62,"Duration":94812,"SoundDuration":94812,"Delta":210041247},{"NoteNumber":52,"Velocity":89,"Duration":399202,"SoundDuration":399202,"Delta":210127743},{"NoteNumber":62,"Velocity":40,"Duration":97847,"SoundDuration":97847,"Delta":210926147},{"NoteNumber":59,"Velocity":34,"Duration":97847,"SoundDuration":97847,"Delta":210926147},{"NoteNumber":52,"Velocity":34,"Duration":97847,"SoundDuration":97847,"Delta":210926147},{"NoteNumber":44,"Velocity":29,"Duration":97847,"SoundDuration":97847,"Delta":210926147},{"NoteNumber":32,"Velocity":24,"Duration":97847,"SoundDuration":97847,"Delta":210926147},{"NoteNumber":60,"Velocity":45,"Duration":199601,"SoundDuration":199601,"Delta":211317536},{"NoteNumber":57,"Velocity":38,"Duration":199601,"SoundDuration":199601,"Delta":211317536},{"NoteNumber":52,"Velocity":38,"Duration":199601,"SoundDuration":199601,"Delta":211317536},{"NoteNumber":33,"Velocity":29,"Duration":199601,"SoundDuration":199601,"Delta":211317536},{"NoteNumber":45,"Velocity":35,"Duration":199601,"SoundDuration":199601,"Delta":211317536},{"NoteNumber":84,"Velocity":43,"Duration":219458,"SoundDuration":219458,"Delta":212115940},{"NoteNumber":41,"Velocity":31,"Duration":219458,"SoundDuration":219458,"Delta":212115940},{"NoteNumber":48,"Velocity":31,"Duration":219458,"SoundDuration":219458,"Delta":212115940},{"NoteNumber":57,"Velocity":37,"Duration":219458,"SoundDuration":219458,"Delta":212115940},{"NoteNumber":84,"Velocity":45,"Duration":607287,"SoundDuration":607287,"Delta":212554857},{"NoteNumber":41,"Velocity":31,"Duration":1954589,"SoundDuration":1954589,"Delta":212554857},{"NoteNumber":48,"Velocity":31,"Duration":1954589,"SoundDuration":1954589,"Delta":212554857},{"NoteNumber":57,"Velocity":37,"Duration":1954589,"SoundDuration":1954589,"Delta":212554857},{"NoteNumber":82,"Velocity":42,"Duration":97289,"SoundDuration":97289,"Delta":213162144},{"NoteNumber":81,"Velocity":42,"Duration":95125,"SoundDuration":95125,"Delta":213259434},{"NoteNumber":79,"Velocity":40,"Duration":95427,"SoundDuration":95427,"Delta":213354559},{"NoteNumber":77,"Velocity":40,"Duration":95732,"SoundDuration":95732,"Delta":213449986},{"NoteNumber":76,"Velocity":40,"Duration":96038,"SoundDuration":96038,"Delta":213545718},{"NoteNumber":74,"Velocity":40,"Duration":96277,"SoundDuration":96277,"Delta":213641757},{"NoteNumber":72,"Velocity":40,"Duration":96579,"SoundDuration":96579,"Delta":213738034},{"NoteNumber":70,"Velocity":40,"Duration":96891,"SoundDuration":96891,"Delta":213834614},{"NoteNumber":69,"Velocity":39,"Duration":97205,"SoundDuration":97205,"Delta":213931505},{"NoteNumber":67,"Velocity":39,"Duration":97521,"SoundDuration":97521,"Delta":214028710},{"NoteNumber":66,"Velocity":37,"Duration":77936,"SoundDuration":77936,"Delta":214126232},{"NoteNumber":64,"Velocity":36,"Duration":77873,"SoundDuration":77873,"Delta":214204169},{"NoteNumber":62,"Velocity":35,"Duration":78142,"SoundDuration":78142,"Delta":214282042},{"NoteNumber":60,"Velocity":35,"Duration":78550,"SoundDuration":78550,"Delta":214360185},{"NoteNumber":58,"Velocity":40,"Duration":78945,"SoundDuration":78945,"Delta":214438735},{"NoteNumber":57,"Velocity":42,"Duration":388293,"SoundDuration":388293,"Delta":214517681},{"NoteNumber":41,"Velocity":31,"Duration":396554,"SoundDuration":396554,"Delta":214517681},{"NoteNumber":48,"Velocity":36,"Duration":396554,"SoundDuration":396554,"Delta":214517681},{"NoteNumber":57,"Velocity":42,"Duration":785339,"SoundDuration":785339,"Delta":214914236},{"NoteNumber":41,"Velocity":31,"Duration":785339,"SoundDuration":785339,"Delta":214914236},{"NoteNumber":48,"Velocity":36,"Duration":785339,"SoundDuration":785339,"Delta":214914236},{"NoteNumber":57,"Velocity":45,"Duration":347714,"SoundDuration":347714,"Delta":215699576},{"NoteNumber":63,"Velocity":53,"Duration":347714,"SoundDuration":347714,"Delta":215699576},{"NoteNumber":48,"Velocity":40,"Duration":347714,"SoundDuration":347714,"Delta":215699576},{"NoteNumber":41,"Velocity":34,"Duration":347714,"SoundDuration":347714,"Delta":215699576},{"NoteNumber":57,"Velocity":45,"Duration":782778,"SoundDuration":782778,"Delta":216085925},{"NoteNumber":63,"Velocity":53,"Duration":782778,"SoundDuration":782778,"Delta":216085925},{"NoteNumber":41,"Velocity":39,"Duration":782778,"SoundDuration":782778,"Delta":216085925},{"NoteNumber":48,"Velocity":46,"Duration":782778,"SoundDuration":782778,"Delta":216085925},{"NoteNumber":63,"Velocity":53,"Duration":348837,"SoundDuration":348837,"Delta":216868703},{"NoteNumber":69,"Velocity":53,"Duration":348837,"SoundDuration":348837,"Delta":216868703},{"NoteNumber":42,"Velocity":45,"Duration":348837,"SoundDuration":348837,"Delta":216868703},{"NoteNumber":48,"Velocity":45,"Duration":348837,"SoundDuration":348837,"Delta":216868703},{"NoteNumber":57,"Velocity":53,"Duration":348837,"SoundDuration":348837,"Delta":216868703},{"NoteNumber":63,"Velocity":59,"Duration":782778,"SoundDuration":782778,"Delta":217256300},{"NoteNumber":69,"Velocity":59,"Duration":782778,"SoundDuration":782778,"Delta":217256300},{"NoteNumber":42,"Velocity":50,"Duration":782778,"SoundDuration":782778,"Delta":217256300},{"NoteNumber":57,"Velocity":59,"Duration":782778,"SoundDuration":782778,"Delta":217256300},{"NoteNumber":48,"Velocity":50,"Duration":782778,"SoundDuration":782778,"Delta":217256300},{"NoteNumber":63,"Velocity":53,"Duration":349967,"SoundDuration":349967,"Delta":218039078},{"NoteNumber":69,"Velocity":53,"Duration":349967,"SoundDuration":349967,"Delta":218039078},{"NoteNumber":75,"Velocity":63,"Duration":349967,"SoundDuration":349967,"Delta":218039078},{"NoteNumber":42,"Velocity":45,"Duration":349967,"SoundDuration":349967,"Delta":218039078},{"NoteNumber":48,"Velocity":45,"Duration":349967,"SoundDuration":349967,"Delta":218039078},{"NoteNumber":57,"Velocity":53,"Duration":349967,"SoundDuration":349967,"Delta":218039078},{"NoteNumber":63,"Velocity":57,"Duration":787917,"SoundDuration":787917,"Delta":218427931},{"NoteNumber":75,"Velocity":68,"Duration":787917,"SoundDuration":787917,"Delta":218427931},{"NoteNumber":69,"Velocity":57,"Duration":787917,"SoundDuration":787917,"Delta":218427931},{"NoteNumber":42,"Velocity":54,"Duration":787917,"SoundDuration":787917,"Delta":218427931},{"NoteNumber":57,"Velocity":64,"Duration":787917,"SoundDuration":787917,"Delta":218427931},{"NoteNumber":48,"Velocity":54,"Duration":787917,"SoundDuration":787917,"Delta":218427931},{"NoteNumber":75,"Velocity":58,"Duration":348837,"SoundDuration":348837,"Delta":219215849},{"NoteNumber":72,"Velocity":58,"Duration":348837,"SoundDuration":348837,"Delta":219215849},{"NoteNumber":81,"Velocity":58,"Duration":348837,"SoundDuration":348837,"Delta":219215849},{"NoteNumber":84,"Velocity":69,"Duration":348837,"SoundDuration":348837,"Delta":219215849},{"NoteNumber":42,"Velocity":49,"Duration":348837,"SoundDuration":348837,"Delta":219215849},{"NoteNumber":48,"Velocity":49,"Duration":348837,"SoundDuration":348837,"Delta":219215849},{"NoteNumber":57,"Velocity":59,"Duration":348837,"SoundDuration":348837,"Delta":219215849},{"NoteNumber":72,"Velocity":66,"Duration":775193,"SoundDuration":775193,"Delta":219603446},{"NoteNumber":75,"Velocity":66,"Duration":775193,"SoundDuration":775193,"Delta":219603446},{"NoteNumber":81,"Velocity":66,"Duration":775193,"SoundDuration":775193,"Delta":219603446},{"NoteNumber":84,"Velocity":78,"Duration":775193,"SoundDuration":775193,"Delta":219603446},{"NoteNumber":42,"Velocity":58,"Duration":1940505,"SoundDuration":1940505,"Delta":219603446},{"NoteNumber":47,"Velocity":58,"Duration":1940505,"SoundDuration":1940505,"Delta":219603446},{"NoteNumber":57,"Velocity":58,"Duration":1940505,"SoundDuration":1940505,"Delta":219603446},{"NoteNumber":71,"Velocity":68,"Duration":390117,"SoundDuration":390117,"Delta":220378640},{"NoteNumber":75,"Velocity":68,"Duration":390117,"SoundDuration":390117,"Delta":220378640},{"NoteNumber":81,"Velocity":68,"Duration":390117,"SoundDuration":390117,"Delta":220378640},{"NoteNumber":83,"Velocity":80,"Duration":390117,"SoundDuration":390117,"Delta":220378640},{"NoteNumber":70,"Velocity":71,"Duration":775193,"SoundDuration":775193,"Delta":220768757},{"NoteNumber":75,"Velocity":71,"Duration":775193,"SoundDuration":775193,"Delta":220768757},{"NoteNumber":82,"Velocity":84,"Duration":775193,"SoundDuration":775193,"Delta":220768757},{"NoteNumber":71,"Velocity":69,"Duration":355731,"SoundDuration":355731,"Delta":221543951},{"NoteNumber":83,"Velocity":82,"Duration":355731,"SoundDuration":355731,"Delta":221543951},{"NoteNumber":81,"Velocity":69,"Duration":355731,"SoundDuration":355731,"Delta":221543951},{"NoteNumber":75,"Velocity":69,"Duration":355731,"SoundDuration":355731,"Delta":221543951},{"NoteNumber":57,"Velocity":75,"Duration":355731,"SoundDuration":355731,"Delta":221543951},{"NoteNumber":47,"Velocity":63,"Duration":355731,"SoundDuration":355731,"Delta":221543951},{"NoteNumber":42,"Velocity":63,"Duration":355731,"SoundDuration":355731,"Delta":221543951},{"NoteNumber":71,"Velocity":80,"Duration":1136301,"SoundDuration":1136301,"Delta":221939208},{"NoteNumber":76,"Velocity":80,"Duration":1136301,"SoundDuration":1136301,"Delta":221939208},{"NoteNumber":83,"Velocity":95,"Duration":1136301,"SoundDuration":1136301,"Delta":221939208},{"NoteNumber":55,"Velocity":48,"Duration":93867,"SoundDuration":93867,"Delta":221939208},{"NoteNumber":47,"Velocity":40,"Duration":93867,"SoundDuration":93867,"Delta":221939208},{"NoteNumber":43,"Velocity":40,"Duration":93867,"SoundDuration":93867,"Delta":221939208},{"NoteNumber":55,"Velocity":33,"Duration":93867,"SoundDuration":93867,"Delta":222126942},{"NoteNumber":59,"Velocity":40,"Duration":93867,"SoundDuration":93867,"Delta":222126942},{"NoteNumber":55,"Velocity":33,"Duration":93867,"SoundDuration":93867,"Delta":222314677},{"NoteNumber":59,"Velocity":40,"Duration":93867,"SoundDuration":93867,"Delta":222314677},{"NoteNumber":55,"Velocity":33,"Duration":93867,"SoundDuration":93867,"Delta":222502411},{"NoteNumber":59,"Velocity":40,"Duration":93867,"SoundDuration":93867,"Delta":222502411},{"NoteNumber":55,"Velocity":33,"Duration":93867,"SoundDuration":93867,"Delta":222690146},{"NoteNumber":59,"Velocity":40,"Duration":93867,"SoundDuration":93867,"Delta":222690146},{"NoteNumber":55,"Velocity":33,"Duration":98814,"SoundDuration":98814,"Delta":222877880},{"NoteNumber":59,"Velocity":40,"Duration":98814,"SoundDuration":98814,"Delta":222877880},{"NoteNumber":76,"Velocity":80,"Duration":1131226,"SoundDuration":1131226,"Delta":223075509},{"NoteNumber":88,"Velocity":94,"Duration":1131226,"SoundDuration":1131226,"Delta":223075509},{"NoteNumber":59,"Velocity":48,"Duration":93867,"SoundDuration":93867,"Delta":223075509},{"NoteNumber":56,"Velocity":40,"Duration":93867,"SoundDuration":93867,"Delta":223075509},{"NoteNumber":56,"Velocity":34,"Duration":93867,"SoundDuration":93867,"Delta":223263243},{"NoteNumber":59,"Velocity":41,"Duration":93867,"SoundDuration":93867,"Delta":223263243},{"NoteNumber":56,"Velocity":34,"Duration":93867,"SoundDuration":93867,"Delta":223450978},{"NoteNumber":59,"Velocity":41,"Duration":93867,"SoundDuration":93867,"Delta":223450978},{"NoteNumber":56,"Velocity":34,"Duration":93867,"SoundDuration":93867,"Delta":223638712},{"NoteNumber":59,"Velocity":41,"Duration":93867,"SoundDuration":93867,"Delta":223638712},{"NoteNumber":56,"Velocity":34,"Duration":93867,"SoundDuration":93867,"Delta":223826447},{"NoteNumber":59,"Velocity":41,"Duration":93867,"SoundDuration":93867,"Delta":223826447},{"NoteNumber":56,"Velocity":34,"Duration":96277,"SoundDuration":96277,"Delta":224014181},{"NoteNumber":59,"Velocity":41,"Duration":96277,"SoundDuration":96277,"Delta":224014181},{"NoteNumber":71,"Velocity":41,"Duration":90470,"SoundDuration":90470,"Delta":224206736},{"NoteNumber":74,"Velocity":41,"Duration":90470,"SoundDuration":90470,"Delta":224206736},{"NoteNumber":76,"Velocity":49,"Duration":90470,"SoundDuration":90470,"Delta":224206736},{"NoteNumber":62,"Velocity":44,"Duration":90470,"SoundDuration":90470,"Delta":224206736},{"NoteNumber":59,"Velocity":37,"Duration":90470,"SoundDuration":90470,"Delta":224206736},{"NoteNumber":56,"Velocity":37,"Duration":90470,"SoundDuration":90470,"Delta":224206736},{"NoteNumber":62,"Velocity":34,"Duration":90470,"SoundDuration":90470,"Delta":224383907},{"NoteNumber":56,"Velocity":28,"Duration":90470,"SoundDuration":90470,"Delta":224387677},{"NoteNumber":59,"Velocity":28,"Duration":90470,"SoundDuration":90470,"Delta":224387677},{"NoteNumber":72,"Velocity":49,"Duration":93283,"SoundDuration":93283,"Delta":224568618},{"NoteNumber":77,"Velocity":59,"Duration":93283,"SoundDuration":93283,"Delta":224568618},{"NoteNumber":65,"Velocity":49,"Duration":93283,"SoundDuration":93283,"Delta":224568618},{"NoteNumber":60,"Velocity":44,"Duration":93283,"SoundDuration":93283,"Delta":224568618},{"NoteNumber":57,"Velocity":37,"Duration":93283,"SoundDuration":93283,"Delta":224568618},{"NoteNumber":60,"Velocity":37,"Duration":93283,"SoundDuration":93283,"Delta":224755185},{"NoteNumber":57,"Velocity":30,"Duration":93283,"SoundDuration":93283,"Delta":224755185},{"NoteNumber":60,"Velocity":37,"Duration":93283,"SoundDuration":93283,"Delta":224941752},{"NoteNumber":57,"Velocity":30,"Duration":93283,"SoundDuration":93283,"Delta":224941752},{"NoteNumber":60,"Velocity":37,"Duration":93283,"SoundDuration":93283,"Delta":225128319},{"NoteNumber":57,"Velocity":30,"Duration":93283,"SoundDuration":93283,"Delta":225128319},{"NoteNumber":76,"Velocity":47,"Duration":91019,"SoundDuration":91019,"Delta":225314886},{"NoteNumber":77,"Velocity":56,"Duration":91019,"SoundDuration":91019,"Delta":225314886},{"NoteNumber":72,"Velocity":47,"Duration":91019,"SoundDuration":91019,"Delta":225314886},{"NoteNumber":64,"Velocity":45,"Duration":91019,"SoundDuration":91019,"Delta":225314886},{"NoteNumber":60,"Velocity":37,"Duration":91019,"SoundDuration":91019,"Delta":225314886},{"NoteNumber":57,"Velocity":37,"Duration":91019,"SoundDuration":91019,"Delta":225314886},{"NoteNumber":64,"Velocity":37,"Duration":91019,"SoundDuration":91019,"Delta":225496925},{"NoteNumber":60,"Velocity":30,"Duration":91019,"SoundDuration":91019,"Delta":225496925},{"NoteNumber":57,"Velocity":30,"Duration":91019,"SoundDuration":91019,"Delta":225496925},{"NoteNumber":74,"Velocity":49,"Duration":93283,"SoundDuration":93283,"Delta":225678964},{"NoteNumber":80,"Velocity":59,"Duration":93283,"SoundDuration":93283,"Delta":225678964},{"NoteNumber":68,"Velocity":49,"Duration":93283,"SoundDuration":93283,"Delta":225678964},{"NoteNumber":62,"Velocity":44,"Duration":93283,"SoundDuration":93283,"Delta":225678964},{"NoteNumber":59,"Velocity":37,"Duration":93283,"SoundDuration":93283,"Delta":225678964},{"NoteNumber":59,"Velocity":31,"Duration":93283,"SoundDuration":93283,"Delta":225865531},{"NoteNumber":62,"Velocity":38,"Duration":93283,"SoundDuration":93283,"Delta":225865531},{"NoteNumber":59,"Velocity":31,"Duration":91019,"SoundDuration":91019,"Delta":226052098},{"NoteNumber":62,"Velocity":38,"Duration":91019,"SoundDuration":91019,"Delta":226052098},{"NoteNumber":59,"Velocity":31,"Duration":91019,"SoundDuration":91019,"Delta":226234137},{"NoteNumber":62,"Velocity":38,"Duration":91019,"SoundDuration":91019,"Delta":226234137},{"NoteNumber":76,"Velocity":48,"Duration":92994,"SoundDuration":92994,"Delta":226416176},{"NoteNumber":74,"Velocity":48,"Duration":92994,"SoundDuration":92994,"Delta":226416176},{"NoteNumber":80,"Velocity":57,"Duration":92994,"SoundDuration":92994,"Delta":226416176},{"NoteNumber":68,"Velocity":48,"Duration":92994,"SoundDuration":92994,"Delta":226416176},{"NoteNumber":64,"Velocity":44,"Duration":92994,"SoundDuration":92994,"Delta":226416176},{"NoteNumber":62,"Velocity":37,"Duration":92994,"SoundDuration":92994,"Delta":226416176},{"NoteNumber":59,"Velocity":37,"Duration":92994,"SoundDuration":92994,"Delta":226416176},{"NoteNumber":59,"Velocity":30,"Duration":92994,"SoundDuration":92994,"Delta":226602165},{"NoteNumber":62,"Velocity":30,"Duration":92994,"SoundDuration":92994,"Delta":226602165},{"NoteNumber":64,"Velocity":37,"Duration":92994,"SoundDuration":92994,"Delta":226602165},{"NoteNumber":76,"Velocity":53,"Duration":92994,"SoundDuration":92994,"Delta":226788154},{"NoteNumber":81,"Velocity":63,"Duration":92994,"SoundDuration":92994,"Delta":226788154},{"NoteNumber":69,"Velocity":53,"Duration":92994,"SoundDuration":92994,"Delta":226788154},{"NoteNumber":64,"Velocity":44,"Duration":92994,"SoundDuration":92994,"Delta":226788154},{"NoteNumber":60,"Velocity":37,"Duration":92994,"SoundDuration":92994,"Delta":226788154},{"NoteNumber":60,"Velocity":33,"Duration":92994,"SoundDuration":92994,"Delta":226974143},{"NoteNumber":64,"Velocity":39,"Duration":92994,"SoundDuration":92994,"Delta":226974143},{"NoteNumber":60,"Velocity":33,"Duration":90744,"SoundDuration":90744,"Delta":227160132},{"NoteNumber":64,"Velocity":39,"Duration":90744,"SoundDuration":90744,"Delta":227160132},{"NoteNumber":60,"Velocity":33,"Duration":90744,"SoundDuration":90744,"Delta":227341620},{"NoteNumber":64,"Velocity":39,"Duration":90744,"SoundDuration":90744,"Delta":227341620},{"NoteNumber":81,"Velocity":60,"Duration":92421,"SoundDuration":92421,"Delta":227523108},{"NoteNumber":76,"Velocity":50,"Duration":92421,"SoundDuration":92421,"Delta":227523108},{"NoteNumber":60,"Velocity":41,"Duration":92421,"SoundDuration":92421,"Delta":227523108},{"NoteNumber":64,"Velocity":49,"Duration":92421,"SoundDuration":92421,"Delta":227523108},{"NoteNumber":61,"Velocity":37,"Duration":92421,"SoundDuration":92421,"Delta":227707951},{"NoteNumber":64,"Velocity":44,"Duration":92421,"SoundDuration":92421,"Delta":227707951},{"NoteNumber":79,"Velocity":55,"Duration":92421,"SoundDuration":92421,"Delta":227892794},{"NoteNumber":76,"Velocity":55,"Duration":92421,"SoundDuration":92421,"Delta":227892794},{"NoteNumber":82,"Velocity":64,"Duration":92421,"SoundDuration":92421,"Delta":227892794},{"NoteNumber":70,"Velocity":55,"Duration":92421,"SoundDuration":92421,"Delta":227892794},{"NoteNumber":61,"Velocity":39,"Duration":92421,"SoundDuration":92421,"Delta":227892794},{"NoteNumber":64,"Velocity":47,"Duration":92421,"SoundDuration":92421,"Delta":227892794},{"NoteNumber":61,"Velocity":35,"Duration":92421,"SoundDuration":92421,"Delta":228077637},{"NoteNumber":64,"Velocity":41,"Duration":92421,"SoundDuration":92421,"Delta":228077637},{"NoteNumber":61,"Velocity":36,"Duration":94458,"SoundDuration":94458,"Delta":228262480},{"NoteNumber":64,"Velocity":42,"Duration":94458,"SoundDuration":94458,"Delta":228262480},{"NoteNumber":61,"Velocity":36,"Duration":94458,"SoundDuration":94458,"Delta":228451397},{"NoteNumber":64,"Velocity":42,"Duration":94458,"SoundDuration":94458,"Delta":228451397},{"NoteNumber":73,"Velocity":39,"Duration":91575,"SoundDuration":91575,"Delta":228640314},{"NoteNumber":76,"Velocity":39,"Duration":91575,"SoundDuration":91575,"Delta":228640314},{"NoteNumber":81,"Velocity":46,"Duration":91575,"SoundDuration":91575,"Delta":228640314},{"NoteNumber":66,"Velocity":34,"Duration":91575,"SoundDuration":91575,"Delta":228640314},{"NoteNumber":82,"Velocity":38,"Duration":91575,"SoundDuration":91575,"Delta":228823464},{"NoteNumber":76,"Velocity":32,"Duration":91575,"SoundDuration":91575,"Delta":228823464},{"NoteNumber":73,"Velocity":32,"Duration":91575,"SoundDuration":91575,"Delta":228823464},{"NoteNumber":66,"Velocity":32,"Duration":91575,"SoundDuration":91575,"Delta":228823464},{"NoteNumber":82,"Velocity":38,"Duration":91575,"SoundDuration":91575,"Delta":229006614},{"NoteNumber":76,"Velocity":32,"Duration":91575,"SoundDuration":91575,"Delta":229006614},{"NoteNumber":73,"Velocity":32,"Duration":91575,"SoundDuration":91575,"Delta":229006614},{"NoteNumber":66,"Velocity":32,"Duration":91575,"SoundDuration":91575,"Delta":229006614},{"NoteNumber":82,"Velocity":38,"Duration":91373,"SoundDuration":91373,"Delta":229189764},{"NoteNumber":76,"Velocity":32,"Duration":91373,"SoundDuration":91373,"Delta":229189764},{"NoteNumber":73,"Velocity":32,"Duration":91373,"SoundDuration":91373,"Delta":229189764},{"NoteNumber":66,"Velocity":32,"Duration":91373,"SoundDuration":91373,"Delta":229189764},{"NoteNumber":82,"Velocity":38,"Duration":91296,"SoundDuration":91296,"Delta":229372433},{"NoteNumber":76,"Velocity":32,"Duration":91296,"SoundDuration":91296,"Delta":229372433},{"NoteNumber":73,"Velocity":32,"Duration":91296,"SoundDuration":91296,"Delta":229372433},{"NoteNumber":66,"Velocity":32,"Duration":91296,"SoundDuration":91296,"Delta":229372433},{"NoteNumber":82,"Velocity":38,"Duration":91296,"SoundDuration":91296,"Delta":229555026},{"NoteNumber":76,"Velocity":32,"Duration":91296,"SoundDuration":91296,"Delta":229555026},{"NoteNumber":73,"Velocity":32,"Duration":91296,"SoundDuration":91296,"Delta":229555026},{"NoteNumber":66,"Velocity":32,"Duration":91296,"SoundDuration":91296,"Delta":229555026},{"NoteNumber":73,"Velocity":39,"Duration":91095,"SoundDuration":91095,"Delta":229737619},{"NoteNumber":76,"Velocity":39,"Duration":91095,"SoundDuration":91095,"Delta":229737619},{"NoteNumber":82,"Velocity":46,"Duration":91095,"SoundDuration":91095,"Delta":229737619},{"NoteNumber":66,"Velocity":40,"Duration":91095,"SoundDuration":91095,"Delta":229737619},{"NoteNumber":82,"Velocity":52,"Duration":91019,"SoundDuration":91019,"Delta":229919735},{"NoteNumber":76,"Velocity":44,"Duration":91019,"SoundDuration":91019,"Delta":229919735},{"NoteNumber":73,"Velocity":44,"Duration":91019,"SoundDuration":91019,"Delta":229919735},{"NoteNumber":66,"Velocity":45,"Duration":91019,"SoundDuration":91019,"Delta":229919735},{"NoteNumber":82,"Velocity":58,"Duration":91019,"SoundDuration":91019,"Delta":230101774},{"NoteNumber":76,"Velocity":48,"Duration":91019,"SoundDuration":91019,"Delta":230101774},{"NoteNumber":73,"Velocity":48,"Duration":91019,"SoundDuration":91019,"Delta":230101774},{"NoteNumber":66,"Velocity":49,"Duration":91019,"SoundDuration":91019,"Delta":230101774},{"NoteNumber":82,"Velocity":63,"Duration":91019,"SoundDuration":91019,"Delta":230283813},{"NoteNumber":76,"Velocity":53,"Duration":91019,"SoundDuration":91019,"Delta":230283813},{"NoteNumber":73,"Velocity":53,"Duration":91019,"SoundDuration":91019,"Delta":230283813},{"NoteNumber":66,"Velocity":52,"Duration":91019,"SoundDuration":91019,"Delta":230283813},{"NoteNumber":82,"Velocity":69,"Duration":91019,"SoundDuration":91019,"Delta":230465852},{"NoteNumber":76,"Velocity":59,"Duration":91019,"SoundDuration":91019,"Delta":230465852},{"NoteNumber":73,"Velocity":59,"Duration":91019,"SoundDuration":91019,"Delta":230465852},{"NoteNumber":66,"Velocity":56,"Duration":91019,"SoundDuration":91019,"Delta":230465852},{"NoteNumber":82,"Velocity":75,"Duration":93574,"SoundDuration":93574,"Delta":230649031},{"NoteNumber":76,"Velocity":63,"Duration":93574,"SoundDuration":93574,"Delta":230649031},{"NoteNumber":73,"Velocity":63,"Duration":93574,"SoundDuration":93574,"Delta":230649031},{"NoteNumber":66,"Velocity":58,"Duration":93574,"SoundDuration":93574,"Delta":230649031},{"NoteNumber":83,"Velocity":91,"Duration":91019,"SoundDuration":91019,"Delta":230835606},{"NoteNumber":59,"Velocity":60,"Duration":91019,"SoundDuration":91019,"Delta":230835606},{"NoteNumber":63,"Velocity":60,"Duration":91019,"SoundDuration":91019,"Delta":230835606},{"NoteNumber":66,"Velocity":60,"Duration":91019,"SoundDuration":91019,"Delta":230835606},{"NoteNumber":69,"Velocity":71,"Duration":91019,"SoundDuration":91019,"Delta":230835606},{"NoteNumber":84,"Velocity":70,"Duration":91019,"SoundDuration":91019,"Delta":231017645},{"NoteNumber":96,"Velocity":83,"Duration":91019,"SoundDuration":91019,"Delta":231017645},{"NoteNumber":69,"Velocity":59,"Duration":91019,"SoundDuration":91019,"Delta":231017645},{"NoteNumber":66,"Velocity":49,"Duration":91019,"SoundDuration":91019,"Delta":231017645},{"NoteNumber":63,"Velocity":49,"Duration":91019,"SoundDuration":91019,"Delta":231017645},{"NoteNumber":59,"Velocity":49,"Duration":91019,"SoundDuration":91019,"Delta":231017645},{"NoteNumber":84,"Velocity":70,"Duration":91019,"SoundDuration":91019,"Delta":231199684},{"NoteNumber":96,"Velocity":83,"Duration":91019,"SoundDuration":91019,"Delta":231199684},{"NoteNumber":69,"Velocity":59,"Duration":91019,"SoundDuration":91019,"Delta":231199684},{"NoteNumber":66,"Velocity":49,"Duration":91019,"SoundDuration":91019,"Delta":231199684},{"NoteNumber":63,"Velocity":49,"Duration":91019,"SoundDuration":91019,"Delta":231199684},{"NoteNumber":59,"Velocity":49,"Duration":91019,"SoundDuration":91019,"Delta":231199684},{"NoteNumber":84,"Velocity":70,"Duration":91019,"SoundDuration":91019,"Delta":231381723},{"NoteNumber":96,"Velocity":83,"Duration":91019,"SoundDuration":91019,"Delta":231381723},{"NoteNumber":69,"Velocity":59,"Duration":91019,"SoundDuration":91019,"Delta":231381723},{"NoteNumber":66,"Velocity":49,"Duration":91019,"SoundDuration":91019,"Delta":231381723},{"NoteNumber":63,"Velocity":49,"Duration":91019,"SoundDuration":91019,"Delta":231381723},{"NoteNumber":59,"Velocity":49,"Duration":91019,"SoundDuration":91019,"Delta":231381723},{"NoteNumber":84,"Velocity":70,"Duration":91019,"SoundDuration":91019,"Delta":231563762},{"NoteNumber":96,"Velocity":83,"Duration":91019,"SoundDuration":91019,"Delta":231563762},{"NoteNumber":69,"Velocity":59,"Duration":91019,"SoundDuration":91019,"Delta":231563762},{"NoteNumber":66,"Velocity":49,"Duration":91019,"SoundDuration":91019,"Delta":231563762},{"NoteNumber":63,"Velocity":49,"Duration":91019,"SoundDuration":91019,"Delta":231563762},{"NoteNumber":59,"Velocity":49,"Duration":91019,"SoundDuration":91019,"Delta":231563762},{"NoteNumber":84,"Velocity":70,"Duration":95056,"SoundDuration":95056,"Delta":231745801},{"NoteNumber":96,"Velocity":83,"Duration":95056,"SoundDuration":95056,"Delta":231745801},{"NoteNumber":69,"Velocity":59,"Duration":95056,"SoundDuration":95056,"Delta":231745801},{"NoteNumber":66,"Velocity":49,"Duration":95056,"SoundDuration":95056,"Delta":231745801},{"NoteNumber":63,"Velocity":49,"Duration":95056,"SoundDuration":95056,"Delta":231745801},{"NoteNumber":59,"Velocity":49,"Duration":95056,"SoundDuration":95056,"Delta":231745801},{"NoteNumber":84,"Velocity":71,"Duration":93205,"SoundDuration":93205,"Delta":231935915},{"NoteNumber":96,"Velocity":85,"Duration":93205,"SoundDuration":93205,"Delta":231935915},{"NoteNumber":69,"Velocity":64,"Duration":93205,"SoundDuration":93205,"Delta":231935915},{"NoteNumber":66,"Velocity":53,"Duration":93205,"SoundDuration":93205,"Delta":231935915},{"NoteNumber":63,"Velocity":53,"Duration":93205,"SoundDuration":93205,"Delta":231935915},{"NoteNumber":59,"Velocity":53,"Duration":93205,"SoundDuration":93205,"Delta":231935915},{"NoteNumber":84,"Velocity":65,"Duration":94518,"SoundDuration":94518,"Delta":232122892},{"NoteNumber":96,"Velocity":77,"Duration":94518,"SoundDuration":94518,"Delta":232122892},{"NoteNumber":59,"Velocity":51,"Duration":94518,"SoundDuration":94518,"Delta":232122892},{"NoteNumber":63,"Velocity":51,"Duration":94518,"SoundDuration":94518,"Delta":232122892},{"NoteNumber":66,"Velocity":51,"Duration":94518,"SoundDuration":94518,"Delta":232122892},{"NoteNumber":69,"Velocity":60,"Duration":94518,"SoundDuration":94518,"Delta":232122892},{"NoteNumber":84,"Velocity":63,"Duration":96031,"SoundDuration":96031,"Delta":232312673},{"NoteNumber":96,"Velocity":74,"Duration":96031,"SoundDuration":96031,"Delta":232312673},{"NoteNumber":59,"Velocity":47,"Duration":96031,"SoundDuration":96031,"Delta":232312673},{"NoteNumber":63,"Velocity":47,"Duration":96031,"SoundDuration":96031,"Delta":232312673},{"NoteNumber":66,"Velocity":47,"Duration":96031,"SoundDuration":96031,"Delta":232312673},{"NoteNumber":69,"Velocity":57,"Duration":96031,"SoundDuration":96031,"Delta":232312673},{"NoteNumber":84,"Velocity":57,"Duration":97593,"SoundDuration":97593,"Delta":232505502},{"NoteNumber":96,"Velocity":67,"Duration":97593,"SoundDuration":97593,"Delta":232505502},{"NoteNumber":59,"Velocity":44,"Duration":97593,"SoundDuration":97593,"Delta":232505502},{"NoteNumber":63,"Velocity":44,"Duration":97593,"SoundDuration":97593,"Delta":232505502},{"NoteNumber":66,"Velocity":44,"Duration":97593,"SoundDuration":97593,"Delta":232505502},{"NoteNumber":69,"Velocity":52,"Duration":97593,"SoundDuration":97593,"Delta":232505502},{"NoteNumber":84,"Velocity":51,"Duration":99207,"SoundDuration":99207,"Delta":232701481},{"NoteNumber":96,"Velocity":60,"Duration":99207,"SoundDuration":99207,"Delta":232701481},{"NoteNumber":59,"Velocity":39,"Duration":99207,"SoundDuration":99207,"Delta":232701481},{"NoteNumber":63,"Velocity":39,"Duration":99207,"SoundDuration":99207,"Delta":232701481},{"NoteNumber":66,"Velocity":39,"Duration":99207,"SoundDuration":99207,"Delta":232701481},{"NoteNumber":69,"Velocity":47,"Duration":99207,"SoundDuration":99207,"Delta":232701481},{"NoteNumber":84,"Velocity":47,"Duration":105857,"SoundDuration":105857,"Delta":232900714},{"NoteNumber":96,"Velocity":56,"Duration":105857,"SoundDuration":105857,"Delta":232900714},{"NoteNumber":59,"Velocity":39,"Duration":105857,"SoundDuration":105857,"Delta":232900714},{"NoteNumber":63,"Velocity":39,"Duration":105857,"SoundDuration":105857,"Delta":232900714},{"NoteNumber":66,"Velocity":39,"Duration":105857,"SoundDuration":105857,"Delta":232900714},{"NoteNumber":69,"Velocity":46,"Duration":105857,"SoundDuration":105857,"Delta":232900714},{"NoteNumber":96,"Velocity":56,"Duration":397877,"SoundDuration":397877,"Delta":233112429},{"NoteNumber":84,"Velocity":56,"Duration":397877,"SoundDuration":397877,"Delta":233112429},{"NoteNumber":52,"Velocity":40,"Duration":99469,"SoundDuration":99469,"Delta":233112429},{"NoteNumber":67,"Velocity":34,"Duration":99469,"SoundDuration":99469,"Delta":233211899},{"NoteNumber":59,"Velocity":37,"Duration":99469,"SoundDuration":99469,"Delta":233311368},{"NoteNumber":67,"Velocity":34,"Duration":99469,"SoundDuration":99469,"Delta":233410838},{"NoteNumber":95,"Velocity":56,"Duration":1193634,"SoundDuration":1193634,"Delta":233510307},{"NoteNumber":83,"Velocity":56,"Duration":1193634,"SoundDuration":1193634,"Delta":233510307},{"NoteNumber":54,"Velocity":40,"Duration":99469,"SoundDuration":99469,"Delta":233510307},{"NoteNumber":69,"Velocity":34,"Duration":99469,"SoundDuration":99469,"Delta":233609777},{"NoteNumber":59,"Velocity":37,"Duration":99469,"SoundDuration":99469,"Delta":233709246},{"NoteNumber":69,"Velocity":34,"Duration":99469,"SoundDuration":99469,"Delta":233808716},{"NoteNumber":55,"Velocity":40,"Duration":99469,"SoundDuration":99469,"Delta":233908185},{"NoteNumber":71,"Velocity":35,"Duration":99469,"SoundDuration":99469,"Delta":234007655},{"NoteNumber":59,"Velocity":38,"Duration":99469,"SoundDuration":99469,"Delta":234107124},{"NoteNumber":71,"Velocity":35,"Duration":99469,"SoundDuration":99469,"Delta":234206594},{"NoteNumber":52,"Velocity":40,"Duration":99469,"SoundDuration":99469,"Delta":234306063},{"NoteNumber":67,"Velocity":34,"Duration":99469,"SoundDuration":99469,"Delta":234405533},{"NoteNumber":59,"Velocity":37,"Duration":99469,"SoundDuration":99469,"Delta":234505002},{"NoteNumber":67,"Velocity":34,"Duration":99469,"SoundDuration":99469,"Delta":234604472},{"NoteNumber":76,"Velocity":56,"Duration":1193634,"SoundDuration":1193634,"Delta":234703941},{"NoteNumber":88,"Velocity":56,"Duration":1193634,"SoundDuration":1193634,"Delta":234703941},{"NoteNumber":54,"Velocity":40,"Duration":99469,"SoundDuration":99469,"Delta":234703941},{"NoteNumber":69,"Velocity":34,"Duration":99469,"SoundDuration":99469,"Delta":234803411},{"NoteNumber":59,"Velocity":37,"Duration":99469,"SoundDuration":99469,"Delta":234902880},{"NoteNumber":69,"Velocity":34,"Duration":99469,"SoundDuration":99469,"Delta":235002350},{"NoteNumber":55,"Velocity":40,"Duration":99469,"SoundDuration":99469,"Delta":235101819},{"NoteNumber":71,"Velocity":35,"Duration":99469,"SoundDuration":99469,"Delta":235201289},{"NoteNumber":59,"Velocity":38,"Duration":99469,"SoundDuration":99469,"Delta":235300758},{"NoteNumber":71,"Velocity":35,"Duration":99469,"SoundDuration":99469,"Delta":235400228},{"NoteNumber":52,"Velocity":40,"Duration":99469,"SoundDuration":99469,"Delta":235499697},{"NoteNumber":67,"Velocity":34,"Duration":99469,"SoundDuration":99469,"Delta":235599167},{"NoteNumber":59,"Velocity":37,"Duration":99469,"SoundDuration":99469,"Delta":235698636},{"NoteNumber":67,"Velocity":34,"Duration":99469,"SoundDuration":99469,"Delta":235798106},{"NoteNumber":71,"Velocity":56,"Duration":1193634,"SoundDuration":1193634,"Delta":235897575},{"NoteNumber":83,"Velocity":56,"Duration":1193634,"SoundDuration":1193634,"Delta":235897575},{"NoteNumber":54,"Velocity":40,"Duration":99469,"SoundDuration":99469,"Delta":235897575},{"NoteNumber":69,"Velocity":34,"Duration":99469,"SoundDuration":99469,"Delta":235997045},{"NoteNumber":59,"Velocity":37,"Duration":99469,"SoundDuration":99469,"Delta":236096514},{"NoteNumber":69,"Velocity":34,"Duration":99469,"SoundDuration":99469,"Delta":236195984},{"NoteNumber":55,"Velocity":40,"Duration":99469,"SoundDuration":99469,"Delta":236295453},{"NoteNumber":71,"Velocity":35,"Duration":99469,"SoundDuration":99469,"Delta":236394923},{"NoteNumber":59,"Velocity":38,"Duration":99469,"SoundDuration":99469,"Delta":236494392},{"NoteNumber":71,"Velocity":35,"Duration":99469,"SoundDuration":99469,"Delta":236593862},{"NoteNumber":52,"Velocity":40,"Duration":99469,"SoundDuration":99469,"Delta":236693331},{"NoteNumber":67,"Velocity":34,"Duration":99469,"SoundDuration":99469,"Delta":236792801},{"NoteNumber":59,"Velocity":37,"Duration":99469,"SoundDuration":99469,"Delta":236892270},{"NoteNumber":67,"Velocity":34,"Duration":99469,"SoundDuration":99469,"Delta":236991740},{"NoteNumber":64,"Velocity":56,"Duration":795756,"SoundDuration":795756,"Delta":237091209},{"NoteNumber":76,"Velocity":56,"Duration":1193634,"SoundDuration":1193634,"Delta":237091209},{"NoteNumber":54,"Velocity":40,"Duration":99469,"SoundDuration":99469,"Delta":237091209},{"NoteNumber":69,"Velocity":34,"Duration":99469,"SoundDuration":99469,"Delta":237190679},{"NoteNumber":59,"Velocity":37,"Duration":99469,"SoundDuration":99469,"Delta":237290148},{"NoteNumber":69,"Velocity":34,"Duration":99469,"SoundDuration":99469,"Delta":237389618},{"NoteNumber":55,"Velocity":40,"Duration":99469,"SoundDuration":99469,"Delta":237489087},{"NoteNumber":71,"Velocity":35,"Duration":99469,"SoundDuration":99469,"Delta":237588557},{"NoteNumber":59,"Velocity":38,"Duration":99469,"SoundDuration":99469,"Delta":237688026},{"NoteNumber":71,"Velocity":35,"Duration":99469,"SoundDuration":99469,"Delta":237787496},{"NoteNumber":57,"Velocity":40,"Duration":99469,"SoundDuration":99469,"Delta":237886965},{"NoteNumber":67,"Velocity":34,"Duration":99469,"SoundDuration":99469,"Delta":237986435},{"NoteNumber":64,"Velocity":37,"Duration":99469,"SoundDuration":99469,"Delta":238085904},{"NoteNumber":67,"Velocity":34,"Duration":99469,"SoundDuration":99469,"Delta":238185374},{"NoteNumber":72,"Velocity":63,"Duration":399876,"SoundDuration":399876,"Delta":238284843},{"NoteNumber":58,"Velocity":49,"Duration":99469,"SoundDuration":99469,"Delta":238284843},{"NoteNumber":67,"Velocity":34,"Duration":99469,"SoundDuration":99469,"Delta":238384313},{"NoteNumber":64,"Velocity":42,"Duration":100468,"SoundDuration":100468,"Delta":238483782},{"NoteNumber":67,"Velocity":34,"Duration":100468,"SoundDuration":100468,"Delta":238584251},{"NoteNumber":71,"Velocity":57,"Duration":396782,"SoundDuration":396782,"Delta":238684720},{"NoteNumber":59,"Velocity":48,"Duration":100468,"SoundDuration":100468,"Delta":238684720},{"NoteNumber":67,"Velocity":35,"Duration":100468,"SoundDuration":100468,"Delta":238785188},{"NoteNumber":64,"Velocity":38,"Duration":102179,"SoundDuration":102179,"Delta":238885657},{"NoteNumber":67,"Velocity":38,"Duration":102179,"SoundDuration":102179,"Delta":238987837},{"NoteNumber":71,"Velocity":65,"Duration":795756,"SoundDuration":795756,"Delta":239090017},{"NoteNumber":59,"Velocity":51,"Duration":99469,"SoundDuration":99469,"Delta":239090017},{"NoteNumber":67,"Velocity":39,"Duration":99469,"SoundDuration":99469,"Delta":239189486},{"NoteNumber":64,"Velocity":42,"Duration":99469,"SoundDuration":99469,"Delta":239288956},{"NoteNumber":67,"Velocity":39,"Duration":99469,"SoundDuration":99469,"Delta":239388425},{"NoteNumber":59,"Velocity":48,"Duration":99469,"SoundDuration":99469,"Delta":239487895},{"NoteNumber":67,"Velocity":38,"Duration":99469,"SoundDuration":99469,"Delta":239587364},{"NoteNumber":64,"Velocity":39,"Duration":99469,"SoundDuration":99469,"Delta":239686834},{"NoteNumber":67,"Velocity":38,"Duration":99469,"SoundDuration":99469,"Delta":239786303},{"NoteNumber":75,"Velocity":58,"Duration":415290,"SoundDuration":415290,"Delta":239885773},{"NoteNumber":59,"Velocity":45,"Duration":101488,"SoundDuration":101488,"Delta":239885773},{"NoteNumber":69,"Velocity":41,"Duration":101488,"SoundDuration":101488,"Delta":239987261},{"NoteNumber":66,"Velocity":45,"Duration":106156,"SoundDuration":106156,"Delta":240088750},{"NoteNumber":69,"Velocity":36,"Duration":106156,"SoundDuration":106156,"Delta":240194907},{"NoteNumber":76,"Velocity":56,"Duration":195694,"SoundDuration":195694,"Delta":240301064},{"NoteNumber":40,"Velocity":36,"Duration":97847,"SoundDuration":97847,"Delta":240301064},{"NoteNumber":55,"Velocity":31,"Duration":97847,"SoundDuration":97847,"Delta":240398911},{"NoteNumber":72,"Velocity":69,"Duration":204359,"SoundDuration":204359,"Delta":240496758},{"NoteNumber":47,"Velocity":36,"Duration":102179,"SoundDuration":102179,"Delta":240496758},{"NoteNumber":55,"Velocity":35,"Duration":102179,"SoundDuration":102179,"Delta":240598938},{"NoteNumber":84,"Velocity":73,"Duration":594844,"SoundDuration":594844,"Delta":240701118},{"NoteNumber":42,"Velocity":45,"Duration":99140,"SoundDuration":99140,"Delta":240701118},{"NoteNumber":57,"Velocity":36,"Duration":99140,"SoundDuration":99140,"Delta":240800258},{"NoteNumber":47,"Velocity":39,"Duration":99140,"SoundDuration":99140,"Delta":240899399},{"NoteNumber":57,"Velocity":34,"Duration":99140,"SoundDuration":99140,"Delta":240998540},{"NoteNumber":43,"Velocity":40,"Duration":99140,"SoundDuration":99140,"Delta":241097681},{"NoteNumber":59,"Velocity":34,"Duration":99140,"SoundDuration":99140,"Delta":241196821},{"NoteNumber":83,"Velocity":56,"Duration":198281,"SoundDuration":198281,"Delta":241295962},{"NoteNumber":47,"Velocity":36,"Duration":99140,"SoundDuration":99140,"Delta":241295962},{"NoteNumber":59,"Velocity":32,"Duration":99140,"SoundDuration":99140,"Delta":241395103},{"NoteNumber":40,"Velocity":36,"Duration":96587,"SoundDuration":96587,"Delta":241494244},{"NoteNumber":55,"Velocity":31,"Duration":96587,"SoundDuration":96587,"Delta":241590831},{"NoteNumber":83,"Velocity":71,"Duration":198281,"SoundDuration":198281,"Delta":241687418},{"NoteNumber":47,"Velocity":36,"Duration":99140,"SoundDuration":99140,"Delta":241687418},{"NoteNumber":55,"Velocity":35,"Duration":99140,"SoundDuration":99140,"Delta":241786559},{"NoteNumber":78,"Velocity":68,"Duration":594844,"SoundDuration":594844,"Delta":241885700},{"NoteNumber":42,"Velocity":45,"Duration":99140,"SoundDuration":99140,"Delta":241885700},{"NoteNumber":57,"Velocity":36,"Duration":99140,"SoundDuration":99140,"Delta":241984840},{"NoteNumber":47,"Velocity":39,"Duration":99140,"SoundDuration":99140,"Delta":242083981},{"NoteNumber":57,"Velocity":34,"Duration":99140,"SoundDuration":99140,"Delta":242183122},{"NoteNumber":43,"Velocity":40,"Duration":99140,"SoundDuration":99140,"Delta":242282263},{"NoteNumber":59,"Velocity":34,"Duration":99140,"SoundDuration":99140,"Delta":242381403},{"NoteNumber":76,"Velocity":51,"Duration":198281,"SoundDuration":198281,"Delta":242480544},{"NoteNumber":47,"Velocity":36,"Duration":99140,"SoundDuration":99140,"Delta":242480544},{"NoteNumber":59,"Velocity":32,"Duration":99140,"SoundDuration":99140,"Delta":242579685},{"NoteNumber":40,"Velocity":36,"Duration":96899,"SoundDuration":96899,"Delta":242678826},{"NoteNumber":55,"Velocity":31,"Duration":96899,"SoundDuration":96899,"Delta":242775725},{"NoteNumber":76,"Velocity":71,"Duration":198281,"SoundDuration":198281,"Delta":242872624},{"NoteNumber":47,"Velocity":36,"Duration":99140,"SoundDuration":99140,"Delta":242872624},{"NoteNumber":55,"Velocity":35,"Duration":99140,"SoundDuration":99140,"Delta":242971765},{"NoteNumber":72,"Velocity":69,"Duration":594844,"SoundDuration":594844,"Delta":243070906},{"NoteNumber":42,"Velocity":45,"Duration":99140,"SoundDuration":99140,"Delta":243070906},{"NoteNumber":57,"Velocity":36,"Duration":99140,"SoundDuration":99140,"Delta":243170046},{"NoteNumber":47,"Velocity":39,"Duration":99140,"SoundDuration":99140,"Delta":243269187},{"NoteNumber":57,"Velocity":34,"Duration":99140,"SoundDuration":99140,"Delta":243368328},{"NoteNumber":43,"Velocity":40,"Duration":99140,"SoundDuration":99140,"Delta":243467469},{"NoteNumber":59,"Velocity":34,"Duration":99140,"SoundDuration":99140,"Delta":243566609},{"NoteNumber":71,"Velocity":53,"Duration":198281,"SoundDuration":198281,"Delta":243665750},{"NoteNumber":47,"Velocity":36,"Duration":99140,"SoundDuration":99140,"Delta":243665750},{"NoteNumber":59,"Velocity":32,"Duration":99140,"SoundDuration":99140,"Delta":243764891},{"NoteNumber":40,"Velocity":36,"Duration":96899,"SoundDuration":96899,"Delta":243864032},{"NoteNumber":55,"Velocity":30,"Duration":96899,"SoundDuration":96899,"Delta":243960931},{"NoteNumber":71,"Velocity":69,"Duration":198938,"SoundDuration":198938,"Delta":244057830},{"NoteNumber":47,"Velocity":33,"Duration":99469,"SoundDuration":99469,"Delta":244057830},{"NoteNumber":55,"Velocity":30,"Duration":99469,"SoundDuration":99469,"Delta":244157300},{"NoteNumber":66,"Velocity":63,"Duration":596817,"SoundDuration":596817,"Delta":244256769},{"NoteNumber":42,"Velocity":36,"Duration":99469,"SoundDuration":99469,"Delta":244256769},{"NoteNumber":57,"Velocity":30,"Duration":99469,"SoundDuration":99469,"Delta":244356239},{"NoteNumber":47,"Velocity":33,"Duration":99469,"SoundDuration":99469,"Delta":244455708},{"NoteNumber":57,"Velocity":30,"Duration":99469,"SoundDuration":99469,"Delta":244555178},{"NoteNumber":43,"Velocity":36,"Duration":99469,"SoundDuration":99469,"Delta":244654647},{"NoteNumber":59,"Velocity":31,"Duration":99469,"SoundDuration":99469,"Delta":244754117},{"NoteNumber":64,"Velocity":56,"Duration":197188,"SoundDuration":197188,"Delta":244853586},{"NoteNumber":47,"Velocity":34,"Duration":102880,"SoundDuration":102880,"Delta":244853586},{"NoteNumber":59,"Velocity":31,"Duration":102880,"SoundDuration":102880,"Delta":244956467},{"NoteNumber":64,"Velocity":63,"Duration":397877,"SoundDuration":397877,"Delta":245059348},{"NoteNumber":45,"Velocity":40,"Duration":99469,"SoundDuration":99469,"Delta":245059348},{"NoteNumber":55,"Velocity":34,"Duration":99469,"SoundDuration":99469,"Delta":245158817},{"NoteNumber":52,"Velocity":37,"Duration":99469,"SoundDuration":99469,"Delta":245258287},{"NoteNumber":55,"Velocity":34,"Duration":99469,"SoundDuration":99469,"Delta":245357756},{"NoteNumber":60,"Velocity":63,"Duration":401874,"SoundDuration":401874,"Delta":245457226},{"NoteNumber":46,"Velocity":49,"Duration":100468,"SoundDuration":100468,"Delta":245457226},{"NoteNumber":55,"Velocity":34,"Duration":100468,"SoundDuration":100468,"Delta":245557694},{"NoteNumber":52,"Velocity":42,"Duration":100468,"SoundDuration":100468,"Delta":245658163},{"NoteNumber":55,"Velocity":34,"Duration":100468,"SoundDuration":100468,"Delta":245758632},{"NoteNumber":59,"Velocity":65,"Duration":402949,"SoundDuration":402949,"Delta":245859101},{"NoteNumber":47,"Velocity":48,"Duration":102880,"SoundDuration":102880,"Delta":245859101},{"NoteNumber":55,"Velocity":35,"Duration":102880,"SoundDuration":102880,"Delta":245961981},{"NoteNumber":52,"Velocity":38,"Duration":102880,"SoundDuration":102880,"Delta":246064862},{"NoteNumber":55,"Velocity":38,"Duration":102880,"SoundDuration":102880,"Delta":246167743},{"NoteNumber":59,"Velocity":71,"Duration":196979,"SoundDuration":196979,"Delta":246270624},{"NoteNumber":47,"Velocity":53,"Duration":788763,"SoundDuration":788763,"Delta":246270624},{"NoteNumber":55,"Velocity":65,"Duration":198281,"SoundDuration":198281,"Delta":246467603},{"NoteNumber":52,"Velocity":71,"Duration":200937,"SoundDuration":200937,"Delta":246665885},{"NoteNumber":48,"Velocity":65,"Duration":200937,"SoundDuration":200937,"Delta":246866822},{"NoteNumber":47,"Velocity":70,"Duration":209350,"SoundDuration":209350,"Delta":247067760},{"NoteNumber":35,"Velocity":57,"Duration":422418,"SoundDuration":422418,"Delta":247067760},{"NoteNumber":51,"Velocity":76,"Duration":213067,"SoundDuration":213067,"Delta":247277111},{"NoteNumber":52,"Velocity":80,"Duration":385108,"SoundDuration":385108,"Delta":247490179},{"NoteNumber":40,"Velocity":79,"Duration":96277,"SoundDuration":96277,"Delta":247490179},{"NoteNumber":54,"Velocity":81,"Duration":96277,"SoundDuration":96277,"Delta":247682733},{"NoteNumber":42,"Velocity":69,"Duration":96277,"SoundDuration":96277,"Delta":247682733},{"NoteNumber":55,"Velocity":81,"Duration":98167,"SoundDuration":98167,"Delta":247875288},{"NoteNumber":43,"Velocity":69,"Duration":98167,"SoundDuration":98167,"Delta":247875288},{"NoteNumber":57,"Velocity":88,"Duration":105782,"SoundDuration":105782,"Delta":248071623},{"NoteNumber":45,"Velocity":72,"Duration":105782,"SoundDuration":105782,"Delta":248071623},{"NoteNumber":59,"Velocity":94,"Duration":1589209,"SoundDuration":1589209,"Delta":248283188},{"NoteNumber":47,"Velocity":80,"Duration":1589209,"SoundDuration":1589209,"Delta":248283188},{"NoteNumber":64,"Velocity":79,"Duration":1181877,"SoundDuration":1181877,"Delta":248690520},{"NoteNumber":60,"Velocity":67,"Duration":1181877,"SoundDuration":1181877,"Delta":248690520},{"NoteNumber":65,"Velocity":34,"Duration":801067,"SoundDuration":801067,"Delta":249872397},{"NoteNumber":60,"Velocity":28,"Duration":1201602,"SoundDuration":1201602,"Delta":249872397},{"NoteNumber":45,"Velocity":37,"Duration":1201602,"SoundDuration":1201602,"Delta":249872397},{"NoteNumber":57,"Velocity":44,"Duration":1201602,"SoundDuration":1201602,"Delta":249872397},{"NoteNumber":72,"Velocity":39,"Duration":1191048,"SoundDuration":1191048,"Delta":250673465},{"NoteNumber":69,"Velocity":27,"Duration":1202036,"SoundDuration":1202036,"Delta":251073999},{"NoteNumber":63,"Velocity":27,"Duration":1202036,"SoundDuration":1202036,"Delta":251073999},{"NoteNumber":66,"Velocity":27,"Duration":1202036,"SoundDuration":1202036,"Delta":251073999},{"NoteNumber":59,"Velocity":43,"Duration":1202036,"SoundDuration":1202036,"Delta":251073999},{"NoteNumber":47,"Velocity":36,"Duration":1202036,"SoundDuration":1202036,"Delta":251073999},{"NoteNumber":71,"Velocity":33,"Duration":402949,"SoundDuration":402949,"Delta":251864513},{"NoteNumber":71,"Velocity":40,"Duration":385108,"SoundDuration":385108,"Delta":252276036},{"NoteNumber":67,"Velocity":34,"Duration":385108,"SoundDuration":385108,"Delta":252276036},{"NoteNumber":64,"Velocity":34,"Duration":385108,"SoundDuration":385108,"Delta":252276036},{"NoteNumber":40,"Velocity":93,"Duration":96277,"SoundDuration":96277,"Delta":252276036},{"NoteNumber":28,"Velocity":79,"Duration":96277,"SoundDuration":96277,"Delta":252276036},{"NoteNumber":42,"Velocity":81,"Duration":96277,"SoundDuration":96277,"Delta":252468591},{"NoteNumber":30,"Velocity":69,"Duration":96277,"SoundDuration":96277,"Delta":252468591},{"NoteNumber":43,"Velocity":81,"Duration":98167,"SoundDuration":98167,"Delta":252661145},{"NoteNumber":31,"Velocity":69,"Duration":98167,"SoundDuration":98167,"Delta":252661145},{"NoteNumber":45,"Velocity":88,"Duration":105782,"SoundDuration":105782,"Delta":252857480},{"NoteNumber":33,"Velocity":72,"Duration":105782,"SoundDuration":105782,"Delta":252857480},{"NoteNumber":47,"Velocity":94,"Duration":1589209,"SoundDuration":1589209,"Delta":253069046},{"NoteNumber":35,"Velocity":80,"Duration":1589209,"SoundDuration":1589209,"Delta":253069046},{"NoteNumber":52,"Velocity":79,"Duration":1181877,"SoundDuration":1181877,"Delta":253476378},{"NoteNumber":48,"Velocity":67,"Duration":1181877,"SoundDuration":1181877,"Delta":253476378},{"NoteNumber":53,"Velocity":34,"Duration":801067,"SoundDuration":801067,"Delta":254658255},{"NoteNumber":48,"Velocity":28,"Duration":1201601,"SoundDuration":1201601,"Delta":254658255},{"NoteNumber":33,"Velocity":37,"Duration":1201601,"SoundDuration":1201601,"Delta":254658255},{"NoteNumber":45,"Velocity":44,"Duration":1201601,"SoundDuration":1201601,"Delta":254658255},{"NoteNumber":60,"Velocity":39,"Duration":1191047,"SoundDuration":1191047,"Delta":255459323},{"NoteNumber":57,"Velocity":27,"Duration":1191047,"SoundDuration":1191047,"Delta":255859857},{"NoteNumber":51,"Velocity":27,"Duration":1191047,"SoundDuration":1191047,"Delta":255859857},{"NoteNumber":54,"Velocity":27,"Duration":1191047,"SoundDuration":1191047,"Delta":255859857},{"NoteNumber":35,"Velocity":24,"Duration":1191047,"SoundDuration":1191047,"Delta":255859857},{"NoteNumber":47,"Velocity":29,"Duration":1191047,"SoundDuration":1191047,"Delta":255859857},{"NoteNumber":59,"Velocity":33,"Duration":392189,"SoundDuration":392189,"Delta":256650371},{"NoteNumber":60,"Velocity":39,"Duration":1197259,"SoundDuration":1197259,"Delta":257874731},{"NoteNumber":52,"Velocity":24,"Duration":1189688,"SoundDuration":1189688,"Delta":258256558},{"NoteNumber":55,"Velocity":24,"Duration":1189688,"SoundDuration":1189688,"Delta":258256558},{"NoteNumber":47,"Velocity":23,"Duration":1189688,"SoundDuration":1189688,"Delta":258256558},{"NoteNumber":40,"Velocity":19,"Duration":1189688,"SoundDuration":1189688,"Delta":258256558},{"NoteNumber":59,"Velocity":33,"Duration":396562,"SoundDuration":396562,"Delta":259071990},{"NoteNumber":60,"Velocity":39,"Duration":1204260,"SoundDuration":1204260,"Delta":260261679},{"NoteNumber":54,"Velocity":24,"Duration":1225153,"SoundDuration":1225153,"Delta":260635936},{"NoteNumber":57,"Velocity":24,"Duration":1225153,"SoundDuration":1225153,"Delta":260635936},{"NoteNumber":47,"Velocity":23,"Duration":1225153,"SoundDuration":1225153,"Delta":260635936},{"NoteNumber":35,"Velocity":19,"Duration":1225153,"SoundDuration":1225153,"Delta":260635936},{"NoteNumber":63,"Velocity":33,"Duration":418701,"SoundDuration":418701,"Delta":261442388},{"NoteNumber":55,"Velocity":28,"Duration":395257,"SoundDuration":395257,"Delta":261861090},{"NoteNumber":64,"Velocity":33,"Duration":395257,"SoundDuration":395257,"Delta":261861090},{"NoteNumber":40,"Velocity":23,"Duration":395257,"SoundDuration":395257,"Delta":261861090},{"NoteNumber":72,"Velocity":35,"Duration":1197259,"SoundDuration":1197259,"Delta":262674362},{"NoteNumber":63,"Velocity":21,"Duration":1189688,"SoundDuration":1189688,"Delta":263056189},{"NoteNumber":66,"Velocity":21,"Duration":1189688,"SoundDuration":1189688,"Delta":263056189},{"NoteNumber":69,"Velocity":21,"Duration":1189688,"SoundDuration":1189688,"Delta":263056189},{"NoteNumber":59,"Velocity":20,"Duration":1189688,"SoundDuration":1189688,"Delta":263056189},{"NoteNumber":47,"Velocity":17,"Duration":1189688,"SoundDuration":1189688,"Delta":263056189},{"NoteNumber":71,"Velocity":29,"Duration":396562,"SoundDuration":396562,"Delta":263871621},{"NoteNumber":72,"Velocity":35,"Duration":1197276,"SoundDuration":1197276,"Delta":265039365},{"NoteNumber":67,"Velocity":21,"Duration":1189689,"SoundDuration":1189689,"Delta":265443515},{"NoteNumber":64,"Velocity":21,"Duration":1189689,"SoundDuration":1189689,"Delta":265443515},{"NoteNumber":59,"Velocity":20,"Duration":1189689,"SoundDuration":1189689,"Delta":265443515},{"NoteNumber":52,"Velocity":17,"Duration":1189689,"SoundDuration":1189689,"Delta":265443515},{"NoteNumber":71,"Velocity":29,"Duration":396563,"SoundDuration":396563,"Delta":266236641},{"NoteNumber":72,"Velocity":35,"Duration":1204260,"SoundDuration":1204260,"Delta":267448637},{"NoteNumber":66,"Velocity":21,"Duration":1225153,"SoundDuration":1225153,"Delta":267822893},{"NoteNumber":69,"Velocity":21,"Duration":1225153,"SoundDuration":1225153,"Delta":267822893},{"NoteNumber":59,"Velocity":20,"Duration":1225153,"SoundDuration":1225153,"Delta":267822893},{"NoteNumber":47,"Velocity":17,"Duration":1225153,"SoundDuration":1225153,"Delta":267822893},{"NoteNumber":75,"Velocity":29,"Duration":418701,"SoundDuration":418701,"Delta":268629345},{"NoteNumber":67,"Velocity":25,"Duration":395257,"SoundDuration":395257,"Delta":269048047},{"NoteNumber":76,"Velocity":29,"Duration":395257,"SoundDuration":395257,"Delta":269048047},{"NoteNumber":52,"Velocity":20,"Duration":395257,"SoundDuration":395257,"Delta":269048047},{"NoteNumber":84,"Velocity":35,"Duration":1197259,"SoundDuration":1197259,"Delta":269861319},{"NoteNumber":75,"Velocity":21,"Duration":1189688,"SoundDuration":1189688,"Delta":270243146},{"NoteNumber":78,"Velocity":21,"Duration":1189688,"SoundDuration":1189688,"Delta":270243146},{"NoteNumber":81,"Velocity":21,"Duration":1189688,"SoundDuration":1189688,"Delta":270243146},{"NoteNumber":71,"Velocity":20,"Duration":1189688,"SoundDuration":1189688,"Delta":270243146},{"NoteNumber":83,"Velocity":29,"Duration":396562,"SoundDuration":396562,"Delta":271058579},{"NoteNumber":72,"Velocity":29,"Duration":777706,"SoundDuration":777706,"Delta":272225961},{"NoteNumber":71,"Velocity":38,"Duration":388852,"SoundDuration":388852,"Delta":273003667},{"NoteNumber":78,"Velocity":31,"Duration":392670,"SoundDuration":392670,"Delta":273392520},{"NoteNumber":75,"Velocity":26,"Duration":392670,"SoundDuration":392670,"Delta":273392520},{"NoteNumber":69,"Velocity":24,"Duration":392670,"SoundDuration":392670,"Delta":273392520},{"NoteNumber":66,"Velocity":19,"Duration":392670,"SoundDuration":392670,"Delta":273392520},{"NoteNumber":76,"Velocity":31,"Duration":600800,"SoundDuration":600800,"Delta":273785190},{"NoteNumber":79,"Velocity":38,"Duration":600800,"SoundDuration":600800,"Delta":273785190},{"NoteNumber":64,"Velocity":25,"Duration":600800,"SoundDuration":600800,"Delta":273785190},{"NoteNumber":67,"Velocity":30,"Duration":600800,"SoundDuration":600800,"Delta":273785190},{"NoteNumber":75,"Velocity":27,"Duration":200266,"SoundDuration":200266,"Delta":274385991},{"NoteNumber":78,"Velocity":34,"Duration":200266,"SoundDuration":200266,"Delta":274385991},{"NoteNumber":69,"Velocity":26,"Duration":200266,"SoundDuration":200266,"Delta":274385991},{"NoteNumber":66,"Velocity":22,"Duration":200266,"SoundDuration":200266,"Delta":274385991},{"NoteNumber":76,"Velocity":34,"Duration":308642,"SoundDuration":308642,"Delta":274586258},{"NoteNumber":67,"Velocity":23,"Duration":308642,"SoundDuration":308642,"Delta":274586258},{"NoteNumber":81,"Velocity":36,"Duration":300400,"SoundDuration":300400,"Delta":274997781},{"NoteNumber":78,"Velocity":30,"Duration":300400,"SoundDuration":300400,"Delta":274997781},{"NoteNumber":62,"Velocity":25,"Duration":300400,"SoundDuration":300400,"Delta":274997781},{"NoteNumber":66,"Velocity":25,"Duration":300400,"SoundDuration":300400,"Delta":274997781},{"NoteNumber":69,"Velocity":30,"Duration":300400,"SoundDuration":300400,"Delta":274997781},{"NoteNumber":81,"Velocity":31,"Duration":373036,"SoundDuration":373036,"Delta":275798849},{"NoteNumber":78,"Velocity":26,"Duration":373036,"SoundDuration":373036,"Delta":275798849},{"NoteNumber":74,"Velocity":24,"Duration":373036,"SoundDuration":373036,"Delta":275798849},{"NoteNumber":78,"Velocity":31,"Duration":612661,"SoundDuration":612661,"Delta":276191519},{"NoteNumber":81,"Velocity":38,"Duration":612661,"SoundDuration":612661,"Delta":276191519},{"NoteNumber":72,"Velocity":25,"Duration":612661,"SoundDuration":612661,"Delta":276191519},{"NoteNumber":74,"Velocity":30,"Duration":612661,"SoundDuration":612661,"Delta":276191519},{"NoteNumber":79,"Velocity":34,"Duration":204220,"SoundDuration":204220,"Delta":276804181},{"NoteNumber":74,"Velocity":26,"Duration":204220,"SoundDuration":204220,"Delta":276804181},{"NoteNumber":71,"Velocity":22,"Duration":204220,"SoundDuration":204220,"Delta":276804181},{"NoteNumber":78,"Velocity":31,"Duration":316233,"SoundDuration":316233,"Delta":277008401},{"NoteNumber":81,"Velocity":34,"Duration":316233,"SoundDuration":316233,"Delta":277008401},{"NoteNumber":69,"Velocity":20,"Duration":316233,"SoundDuration":316233,"Delta":277008401},{"NoteNumber":72,"Velocity":23,"Duration":316233,"SoundDuration":316233,"Delta":277008401},{"NoteNumber":83,"Velocity":36,"Duration":323973,"SoundDuration":323973,"Delta":277430045},{"NoteNumber":79,"Velocity":30,"Duration":323973,"SoundDuration":323973,"Delta":277430045},{"NoteNumber":67,"Velocity":25,"Duration":323973,"SoundDuration":323973,"Delta":277430045},{"NoteNumber":71,"Velocity":30,"Duration":323973,"SoundDuration":323973,"Delta":277430045},{"NoteNumber":83,"Velocity":27,"Duration":430513,"SoundDuration":430513,"Delta":278293975},{"NoteNumber":79,"Velocity":21,"Duration":430513,"SoundDuration":430513,"Delta":278293975},{"NoteNumber":83,"Velocity":34,"Duration":747073,"SoundDuration":747073,"Delta":278747147},{"NoteNumber":79,"Velocity":27,"Duration":747073,"SoundDuration":747073,"Delta":278747147},{"NoteNumber":81,"Velocity":30,"Duration":279147,"SoundDuration":279147,"Delta":279494221},{"NoteNumber":78,"Velocity":23,"Duration":279147,"SoundDuration":279147,"Delta":279494221},{"NoteNumber":79,"Velocity":27,"Duration":484026,"SoundDuration":484026,"Delta":279773368},{"NoteNumber":83,"Velocity":30,"Duration":484026,"SoundDuration":484026,"Delta":279773368},{"NoteNumber":76,"Velocity":20,"Duration":484026,"SoundDuration":484026,"Delta":279773368},{"NoteNumber":84,"Velocity":32,"Duration":550795,"SoundDuration":550795,"Delta":280418737},{"NoteNumber":81,"Velocity":27,"Duration":550795,"SoundDuration":550795,"Delta":280418737},{"NoteNumber":75,"Velocity":27,"Duration":550795,"SoundDuration":550795,"Delta":280418737},{"NoteNumber":76,"Velocity":51,"Duration":986277,"SoundDuration":986277,"Delta":281887525},{"NoteNumber":88,"Velocity":61,"Duration":986277,"SoundDuration":986277,"Delta":281887525},{"NoteNumber":59,"Velocity":34,"Duration":1206068,"SoundDuration":1206068,"Delta":282280195},{"NoteNumber":43,"Velocity":28,"Duration":1206068,"SoundDuration":1206068,"Delta":282280195},{"NoteNumber":52,"Velocity":28,"Duration":1206068,"SoundDuration":1206068,"Delta":282280195},{"NoteNumber":75,"Velocity":51,"Duration":200937,"SoundDuration":200937,"Delta":282873803},{"NoteNumber":87,"Velocity":60,"Duration":200937,"SoundDuration":200937,"Delta":282873803},{"NoteNumber":76,"Velocity":55,"Duration":411522,"SoundDuration":411522,"Delta":283074740},{"NoteNumber":88,"Velocity":65,"Duration":411522,"SoundDuration":411522,"Delta":283074740},{"NoteNumber":60,"Velocity":45,"Duration":801067,"SoundDuration":801067,"Delta":283486263},{"NoteNumber":64,"Velocity":45,"Duration":801067,"SoundDuration":801067,"Delta":283486263},{"NoteNumber":66,"Velocity":54,"Duration":801067,"SoundDuration":801067,"Delta":283486263},{"NoteNumber":45,"Velocity":35,"Duration":801067,"SoundDuration":801067,"Delta":283486263},{"NoteNumber":66,"Velocity":66,"Duration":411522,"SoundDuration":411522,"Delta":284287331},{"NoteNumber":64,"Velocity":56,"Duration":411522,"SoundDuration":411522,"Delta":284287331},{"NoteNumber":61,"Velocity":56,"Duration":411522,"SoundDuration":411522,"Delta":284287331},{"NoteNumber":46,"Velocity":43,"Duration":411522,"SoundDuration":411522,"Delta":284287331},{"NoteNumber":57,"Velocity":60,"Duration":1218793,"SoundDuration":1218793,"Delta":284698854},{"NoteNumber":63,"Velocity":60,"Duration":1218793,"SoundDuration":1218793,"Delta":284698854},{"NoteNumber":66,"Velocity":71,"Duration":611789,"SoundDuration":611789,"Delta":284698854},{"NoteNumber":47,"Velocity":49,"Duration":1218793,"SoundDuration":1218793,"Delta":284698854},{"NoteNumber":67,"Velocity":51,"Duration":200266,"SoundDuration":200266,"Delta":285310644},{"NoteNumber":69,"Velocity":56,"Duration":200266,"SoundDuration":200266,"Delta":285510911},{"NoteNumber":67,"Velocity":43,"Duration":206469,"SoundDuration":206469,"Delta":285711178},{"NoteNumber":66,"Velocity":47,"Duration":400533,"SoundDuration":400533,"Delta":285917648},{"NoteNumber":55,"Velocity":29,"Duration":813472,"SoundDuration":813472,"Delta":285917648},{"NoteNumber":48,"Velocity":24,"Duration":813472,"SoundDuration":813472,"Delta":285917648},{"NoteNumber":64,"Velocity":39,"Duration":412938,"SoundDuration":412938,"Delta":286318182},{"NoteNumber":76,"Velocity":53,"Duration":987668,"SoundDuration":987668,"Delta":286731121},{"NoteNumber":88,"Velocity":64,"Duration":987668,"SoundDuration":987668,"Delta":286731121},{"NoteNumber":35,"Velocity":31,"Duration":194426,"SoundDuration":194426,"Delta":286731121},{"NoteNumber":47,"Velocity":36,"Duration":194426,"SoundDuration":194426,"Delta":286731121},{"NoteNumber":33,"Velocity":33,"Duration":194426,"SoundDuration":194426,"Delta":286925547},{"NoteNumber":45,"Velocity":40,"Duration":194426,"SoundDuration":194426,"Delta":286925547},{"NoteNumber":31,"Velocity":37,"Duration":799753,"SoundDuration":799753,"Delta":287119974},{"NoteNumber":43,"Velocity":44,"Duration":799753,"SoundDuration":799753,"Delta":287119974},{"NoteNumber":75,"Velocity":54,"Duration":200937,"SoundDuration":200937,"Delta":287718789},{"NoteNumber":87,"Velocity":64,"Duration":200937,"SoundDuration":200937,"Delta":287718789},{"NoteNumber":76,"Velocity":56,"Duration":485948,"SoundDuration":485948,"Delta":287919727},{"NoteNumber":88,"Velocity":66,"Duration":485948,"SoundDuration":485948,"Delta":287919727},{"NoteNumber":32,"Velocity":31,"Duration":485948,"SoundDuration":485948,"Delta":287919727},{"NoteNumber":44,"Velocity":37,"Duration":485948,"SoundDuration":485948,"Delta":287919727},{"NoteNumber":60,"Velocity":40,"Duration":909297,"SoundDuration":909297,"Delta":288405675},{"NoteNumber":64,"Velocity":40,"Duration":909297,"SoundDuration":909297,"Delta":288405675},{"NoteNumber":66,"Velocity":48,"Duration":909297,"SoundDuration":909297,"Delta":288405675},{"NoteNumber":33,"Velocity":26,"Duration":909297,"SoundDuration":909297,"Delta":288405675},{"NoteNumber":45,"Velocity":31,"Duration":909297,"SoundDuration":909297,"Delta":288405675},{"NoteNumber":66,"Velocity":41,"Duration":483988,"SoundDuration":483988,"Delta":289314973},{"NoteNumber":64,"Velocity":34,"Duration":483988,"SoundDuration":483988,"Delta":289314973},{"NoteNumber":61,"Velocity":34,"Duration":483988,"SoundDuration":483988,"Delta":289314973},{"NoteNumber":34,"Velocity":22,"Duration":483988,"SoundDuration":483988,"Delta":289314973},{"NoteNumber":46,"Velocity":26,"Duration":483988,"SoundDuration":483988,"Delta":289314973},{"NoteNumber":57,"Velocity":34,"Duration":1787027,"SoundDuration":1787027,"Delta":289798961},{"NoteNumber":63,"Velocity":34,"Duration":1787027,"SoundDuration":1787027,"Delta":289798961},{"NoteNumber":66,"Velocity":41,"Duration":769428,"SoundDuration":769428,"Delta":289798961},{"NoteNumber":35,"Velocity":22,"Duration":1787027,"SoundDuration":1787027,"Delta":289798961},{"NoteNumber":47,"Velocity":28,"Duration":1787027,"SoundDuration":1787027,"Delta":289798961},{"NoteNumber":69,"Velocity":26,"Duration":271567,"SoundDuration":271567,"Delta":290568389},{"NoteNumber":67,"Velocity":28,"Duration":304661,"SoundDuration":304661,"Delta":290839956},{"NoteNumber":66,"Velocity":21,"Duration":441371,"SoundDuration":441371,"Delta":291144617},{"NoteNumber":55,"Velocity":20,"Duration":545951,"SoundDuration":545951,"Delta":291585988},{"NoteNumber":64,"Velocity":24,"Duration":545951,"SoundDuration":545951,"Delta":291585988},{"NoteNumber":40,"Velocity":14,"Duration":545951,"SoundDuration":545951,"Delta":291585988}],"license":{"name":"Creative Commons Attribution-ShareAlike 3.0 Germany","url":"http://creativecommons.org/licenses/by-sa/3.0/de/deed.en","text":"The MIDI files in this folder were downloaded from http://www.piano-midi.de and are licensed under the Creative Commons Attribution-ShareAlike 3.0 Germany license by Bernd Krueger.\n\nThe MIDI, audio(MP3, OGG) and video files of Bernd Krueger are licensed under the cc-by-sa Germany License . This means, that you can use and adapt the files, as long as you attribute to the copyright holder Name: Bernd Krueger Source: http://www.piano-midi.de The distribution or public playback of the files is only allowed under identical license conditions . The scores are open source.","attribution":"Bernd Krueger","attributionUrl":"http://www.piano-midi.de"}}