{"title":"Piano Sonata No. 8 in C minor, Op. 13 'Pathétique': II. Adagio cantabile","artist":"Beethoven","durationMs":304032,"midiSha256":"14f219d149a10dcb744fcd6a9acefaff0a56c399c8053e0eb4fbbec148beca0a","midiObject":[{"NoteNumber":60,"Velocity":50,"Duration":2266216,"SoundDuration":2266216,"Delta":0},{"NoteNumber":44,"Velocity":40,"Duration":2266216,"SoundDuration":2266216,"Delta":0},{"NoteNumber":56,"Velocity":28,"Duration":562429,"SoundDuration":562429,"Delta":0},{"NoteNumber":51,"Velocity":24,"Duration":562429,"SoundDuration":562429,"Delta":562429},{"NoteNumber":56,"Velocity":26,"Duration":562429,"SoundDuration":562429,"Delta":1124859},{"NoteNumber":51,"Velocity":23,"Duration":578927,"SoundDuration":578927,"Delta":1687289},{"NoteNumber":58,"Velocity":46,"Duration":2250970,"SoundDuration":2250970,"Delta":2266216},{"NoteNumber":49,"Velocity":35,"Duration":2250970,"SoundDuration":2250970,"Delta":2266216},{"NoteNumber":55,"Velocity":28,"Duration":572518,"SoundDuration":572518,"Delta":2266216},{"NoteNumber":51,"Velocity":24,"Duration":538986,"SoundDuration":538986,"Delta":2838735},{"NoteNumber":55,"Velocity":26,"Duration":560537,"SoundDuration":560537,"Delta":3377722},{"NoteNumber":51,"Velocity":24,"Duration":578927,"SoundDuration":578927,"Delta":3938259},{"NoteNumber":63,"Velocity":50,"Duration":3260643,"SoundDuration":3260643,"Delta":4517187},{"NoteNumber":48,"Velocity":40,"Duration":2185759,"SoundDuration":2185759,"Delta":4517187},{"NoteNumber":56,"Velocity":28,"Duration":562429,"SoundDuration":562429,"Delta":4517187},{"NoteNumber":51,"Velocity":25,"Duration":530035,"SoundDuration":530035,"Delta":5079616},{"NoteNumber":56,"Velocity":25,"Duration":546647,"SoundDuration":546647,"Delta":5609652},{"NoteNumber":51,"Velocity":25,"Duration":546647,"SoundDuration":546647,"Delta":6156299},{"NoteNumber":43,"Velocity":37,"Duration":2184844,"SoundDuration":2184844,"Delta":6702946},{"NoteNumber":58,"Velocity":28,"Duration":537441,"SoundDuration":537441,"Delta":6702946},{"NoteNumber":51,"Velocity":25,"Duration":537441,"SoundDuration":537441,"Delta":7240388},{"NoteNumber":61,"Velocity":48,"Duration":1109960,"SoundDuration":1109960,"Delta":7777830},{"NoteNumber":58,"Velocity":25,"Duration":537441,"SoundDuration":537441,"Delta":7777830},{"NoteNumber":51,"Velocity":25,"Duration":572518,"SoundDuration":572518,"Delta":8315271},{"NoteNumber":60,"Velocity":47,"Duration":1092464,"SoundDuration":1092464,"Delta":8887790},{"NoteNumber":44,"Velocity":33,"Duration":1092464,"SoundDuration":1092464,"Delta":8887790},{"NoteNumber":56,"Velocity":29,"Duration":562429,"SoundDuration":562429,"Delta":8887790},{"NoteNumber":51,"Velocity":25,"Duration":530035,"SoundDuration":530035,"Delta":9450220},{"NoteNumber":63,"Velocity":49,"Duration":1089324,"SoundDuration":1089324,"Delta":9980255},{"NoteNumber":43,"Velocity":35,"Duration":1089324,"SoundDuration":1089324,"Delta":9980255},{"NoteNumber":58,"Velocity":26,"Duration":544662,"SoundDuration":544662,"Delta":9980255},{"NoteNumber":51,"Velocity":23,"Duration":544662,"SoundDuration":544662,"Delta":10524917},{"NoteNumber":68,"Velocity":51,"Duration":1118650,"SoundDuration":1118650,"Delta":11069580},{"NoteNumber":41,"Velocity":38,"Duration":1118650,"SoundDuration":1118650,"Delta":11069580},{"NoteNumber":60,"Velocity":30,"Duration":554528,"SoundDuration":554528,"Delta":11069580},{"NoteNumber":56,"Velocity":25,"Duration":564121,"SoundDuration":564121,"Delta":11624108},{"NoteNumber":70,"Velocity":56,"Duration":1166323,"SoundDuration":1166323,"Delta":12188230},{"NoteNumber":53,"Velocity":40,"Duration":1166323,"SoundDuration":1166323,"Delta":12188230},{"NoteNumber":62,"Velocity":27,"Duration":576701,"SoundDuration":576701,"Delta":12188230},{"NoteNumber":56,"Velocity":22,"Duration":589622,"SoundDuration":589622,"Delta":12764931},{"NoteNumber":63,"Velocity":50,"Duration":3273512,"SoundDuration":3273512,"Delta":13354554},{"NoteNumber":51,"Velocity":36,"Duration":2185961,"SoundDuration":2185961,"Delta":13354554},{"NoteNumber":55,"Velocity":28,"Duration":562429,"SoundDuration":562429,"Delta":13354554},{"NoteNumber":58,"Velocity":23,"Duration":552486,"SoundDuration":552486,"Delta":13916984},{"NoteNumber":55,"Velocity":23,"Duration":535522,"SoundDuration":535522,"Delta":14469470},{"NoteNumber":58,"Velocity":23,"Duration":535522,"SoundDuration":535522,"Delta":15004993},{"NoteNumber":39,"Velocity":35,"Duration":2247613,"SoundDuration":2247613,"Delta":15540516},{"NoteNumber":55,"Velocity":28,"Duration":542888,"SoundDuration":542888,"Delta":15540516},{"NoteNumber":58,"Velocity":23,"Duration":544662,"SoundDuration":544662,"Delta":16083404},{"NoteNumber":64,"Velocity":46,"Duration":1160063,"SoundDuration":1160063,"Delta":16628067},{"NoteNumber":55,"Velocity":25,"Duration":572518,"SoundDuration":572518,"Delta":16628067},{"NoteNumber":58,"Velocity":24,"Duration":587544,"SoundDuration":587544,"Delta":17200586},{"NoteNumber":65,"Velocity":50,"Duration":2216172,"SoundDuration":2216172,"Delta":17788130},{"NoteNumber":37,"Velocity":40,"Duration":2216172,"SoundDuration":2216172,"Delta":17788130},{"NoteNumber":55,"Velocity":28,"Duration":562429,"SoundDuration":562429,"Delta":17788130},{"NoteNumber":58,"Velocity":24,"Duration":528168,"SoundDuration":528168,"Delta":18350559},{"NoteNumber":55,"Velocity":26,"Duration":546647,"SoundDuration":546647,"Delta":18878728},{"NoteNumber":58,"Velocity":23,"Duration":569278,"SoundDuration":569278,"Delta":19425376},{"NoteNumber":58,"Velocity":50,"Duration":1631818,"SoundDuration":1631818,"Delta":20004303},{"NoteNumber":49,"Velocity":36,"Duration":2210745,"SoundDuration":2210745,"Delta":20004303},{"NoteNumber":55,"Velocity":28,"Duration":562429,"SoundDuration":562429,"Delta":20004303},{"NoteNumber":51,"Velocity":24,"Duration":526500,"SoundDuration":526500,"Delta":20566732},{"NoteNumber":55,"Velocity":24,"Duration":542888,"SoundDuration":542888,"Delta":21093233},{"NoteNumber":60,"Velocity":46,"Duration":289463,"SoundDuration":289463,"Delta":21636121},{"NoteNumber":51,"Velocity":24,"Duration":578927,"SoundDuration":578927,"Delta":21636121},{"NoteNumber":61,"Velocity":46,"Duration":289463,"SoundDuration":289463,"Delta":21925585},{"NoteNumber":63,"Velocity":50,"Duration":2218987,"SoundDuration":2218987,"Delta":22215048},{"NoteNumber":48,"Velocity":40,"Duration":2218987,"SoundDuration":2218987,"Delta":22215048},{"NoteNumber":56,"Velocity":28,"Duration":562429,"SoundDuration":562429,"Delta":22215048},{"NoteNumber":51,"Velocity":27,"Duration":524658,"SoundDuration":524658,"Delta":22777478},{"NoteNumber":56,"Velocity":27,"Duration":546647,"SoundDuration":546647,"Delta":23302137},{"NoteNumber":51,"Velocity":25,"Duration":585251,"SoundDuration":585251,"Delta":23848784},{"NoteNumber":57,"Velocity":48,"Duration":2218747,"SoundDuration":2218747,"Delta":24434036},{"NoteNumber":41,"Velocity":36,"Duration":2218747,"SoundDuration":2218747,"Delta":24434036},{"NoteNumber":51,"Velocity":28,"Duration":562429,"SoundDuration":562429,"Delta":24434036},{"NoteNumber":48,"Velocity":24,"Duration":526500,"SoundDuration":526500,"Delta":24996466},{"NoteNumber":51,"Velocity":26,"Duration":548646,"SoundDuration":548646,"Delta":25522966},{"NoteNumber":48,"Velocity":24,"Duration":581170,"SoundDuration":581170,"Delta":26071613},{"NoteNumber":61,"Velocity":50,"Duration":2216504,"SoundDuration":2216504,"Delta":26652783},{"NoteNumber":34,"Velocity":40,"Duration":2216504,"SoundDuration":2216504,"Delta":26652783},{"NoteNumber":53,"Velocity":29,"Duration":562429,"SoundDuration":562429,"Delta":26652783},{"NoteNumber":49,"Velocity":25,"Duration":526500,"SoundDuration":526500,"Delta":27215213},{"NoteNumber":53,"Velocity":27,"Duration":548646,"SoundDuration":548646,"Delta":27741713},{"NoteNumber":49,"Velocity":24,"Duration":521034,"SoundDuration":521034,"Delta":28290360},{"NoteNumber":60,"Velocity":48,"Duration":565933,"SoundDuration":565933,"Delta":28869287},{"NoteNumber":39,"Velocity":34,"Duration":2293530,"SoundDuration":2293530,"Delta":28869287},{"NoteNumber":49,"Velocity":30,"Duration":509626,"SoundDuration":509626,"Delta":28869287},{"NoteNumber":58,"Velocity":48,"Duration":552486,"SoundDuration":552486,"Delta":29435220},{"NoteNumber":49,"Velocity":26,"Duration":497237,"SoundDuration":497237,"Delta":29435220},{"NoteNumber":56,"Velocity":48,"Duration":578927,"SoundDuration":578927,"Delta":29987706},{"NoteNumber":49,"Velocity":28,"Duration":521034,"SoundDuration":521034,"Delta":29987706},{"NoteNumber":55,"Velocity":48,"Duration":596184,"SoundDuration":596184,"Delta":30566633},{"NoteNumber":49,"Velocity":26,"Duration":536566,"SoundDuration":536566,"Delta":30566633},{"NoteNumber":55,"Velocity":40,"Duration":2375456,"SoundDuration":2375456,"Delta":31162818},{"NoteNumber":58,"Velocity":50,"Duration":2375456,"SoundDuration":2375456,"Delta":31162818},{"NoteNumber":32,"Velocity":37,"Duration":1168549,"SoundDuration":1168549,"Delta":31162818},{"NoteNumber":49,"Velocity":31,"Duration":589622,"SoundDuration":589622,"Delta":31162818},{"NoteNumber":51,"Velocity":26,"Duration":578926,"SoundDuration":578926,"Delta":31752441},{"NoteNumber":44,"Velocity":29,"Duration":1206906,"SoundDuration":1206906,"Delta":32331368},{"NoteNumber":49,"Velocity":28,"Duration":589622,"SoundDuration":589622,"Delta":32331368},{"NoteNumber":51,"Velocity":24,"Duration":617283,"SoundDuration":617283,"Delta":32920990},{"NoteNumber":56,"Velocity":50,"Duration":1234568,"SoundDuration":1234568,"Delta":33538274},{"NoteNumber":48,"Velocity":36,"Duration":308641,"SoundDuration":308641,"Delta":33538274},{"NoteNumber":32,"Velocity":36,"Duration":1234568,"SoundDuration":1234568,"Delta":33538274},{"NoteNumber":51,"Velocity":34,"Duration":308641,"SoundDuration":308641,"Delta":33949797},{"NoteNumber":56,"Velocity":34,"Duration":308641,"SoundDuration":308641,"Delta":34361320},{"NoteNumber":60,"Velocity":36,"Duration":308641,"SoundDuration":308641,"Delta":34772842},{"NoteNumber":63,"Velocity":35,"Duration":308641,"SoundDuration":308641,"Delta":35184365},{"NoteNumber":68,"Velocity":35,"Duration":346580,"SoundDuration":346580,"Delta":35595888},{"NoteNumber":72,"Velocity":50,"Duration":2266216,"SoundDuration":2266216,"Delta":36057995},{"NoteNumber":60,"Velocity":28,"Duration":562429,"SoundDuration":562429,"Delta":36057995},{"NoteNumber":44,"Velocity":40,"Duration":2266216,"SoundDuration":2266216,"Delta":36057995},{"NoteNumber":56,"Velocity":25,"Duration":562429,"SoundDuration":562429,"Delta":36057995},{"NoteNumber":63,"Velocity":24,"Duration":562429,"SoundDuration":562429,"Delta":36620425},{"NoteNumber":51,"Velocity":21,"Duration":562429,"SoundDuration":562429,"Delta":36620425},{"NoteNumber":60,"Velocity":26,"Duration":562429,"SoundDuration":562429,"Delta":37182854},{"NoteNumber":56,"Velocity":23,"Duration":562429,"SoundDuration":562429,"Delta":37182854},{"NoteNumber":63,"Velocity":23,"Duration":578927,"SoundDuration":578927,"Delta":37745284},{"NoteNumber":51,"Velocity":20,"Duration":578927,"SoundDuration":578927,"Delta":37745284},{"NoteNumber":70,"Velocity":46,"Duration":2220038,"SoundDuration":2220038,"Delta":38324211},{"NoteNumber":58,"Velocity":28,"Duration":562429,"SoundDuration":562429,"Delta":38324211},{"NoteNumber":49,"Velocity":35,"Duration":2220038,"SoundDuration":2220038,"Delta":38324211},{"NoteNumber":55,"Velocity":25,"Duration":562429,"SoundDuration":562429,"Delta":38324211},{"NoteNumber":63,"Velocity":24,"Duration":530035,"SoundDuration":530035,"Delta":38886641},{"NoteNumber":51,"Velocity":21,"Duration":530035,"SoundDuration":530035,"Delta":38886641},{"NoteNumber":58,"Velocity":26,"Duration":548646,"SoundDuration":548646,"Delta":39416676},{"NoteNumber":55,"Velocity":23,"Duration":548646,"SoundDuration":548646,"Delta":39416676},{"NoteNumber":63,"Velocity":24,"Duration":578927,"SoundDuration":578927,"Delta":39965323},{"NoteNumber":51,"Velocity":21,"Duration":578927,"SoundDuration":578927,"Delta":39965323},{"NoteNumber":75,"Velocity":50,"Duration":3260642,"SoundDuration":3260642,"Delta":40544250},{"NoteNumber":63,"Velocity":28,"Duration":562429,"SoundDuration":562429,"Delta":40544250},{"NoteNumber":48,"Velocity":40,"Duration":2185759,"SoundDuration":2185759,"Delta":40544250},{"NoteNumber":56,"Velocity":25,"Duration":562429,"SoundDuration":562429,"Delta":40544250},{"NoteNumber":68,"Velocity":25,"Duration":530035,"SoundDuration":530035,"Delta":41106680},{"NoteNumber":51,"Velocity":22,"Duration":530035,"SoundDuration":530035,"Delta":41106680},{"NoteNumber":63,"Velocity":25,"Duration":546647,"SoundDuration":546647,"Delta":41636715},{"NoteNumber":56,"Velocity":22,"Duration":546647,"SoundDuration":546647,"Delta":41636715},{"NoteNumber":68,"Velocity":25,"Duration":546647,"SoundDuration":546647,"Delta":42183362},{"NoteNumber":51,"Velocity":22,"Duration":546647,"SoundDuration":546647,"Delta":42183362},{"NoteNumber":63,"Velocity":28,"Duration":537441,"SoundDuration":537441,"Delta":42730009},{"NoteNumber":43,"Velocity":37,"Duration":2184844,"SoundDuration":2184844,"Delta":42730009},{"NoteNumber":55,"Velocity":25,"Duration":537441,"SoundDuration":537441,"Delta":42730009},{"NoteNumber":70,"Velocity":25,"Duration":537441,"SoundDuration":537441,"Delta":43267451},{"NoteNumber":51,"Velocity":22,"Duration":537441,"SoundDuration":537441,"Delta":43267451},{"NoteNumber":73,"Velocity":48,"Duration":1109960,"SoundDuration":1109960,"Delta":43804893},{"NoteNumber":63,"Velocity":25,"Duration":537441,"SoundDuration":537441,"Delta":43804893},{"NoteNumber":55,"Velocity":22,"Duration":537441,"SoundDuration":537441,"Delta":43804893},{"NoteNumber":70,"Velocity":25,"Duration":572518,"SoundDuration":572518,"Delta":44342335},{"NoteNumber":51,"Velocity":22,"Duration":572518,"SoundDuration":572518,"Delta":44342335},{"NoteNumber":72,"Velocity":47,"Duration":1092464,"SoundDuration":1092464,"Delta":44914854},{"NoteNumber":63,"Velocity":31,"Duration":562429,"SoundDuration":562429,"Delta":44914854},{"NoteNumber":44,"Velocity":41,"Duration":1092464,"SoundDuration":1092464,"Delta":44914854},{"NoteNumber":56,"Velocity":30,"Duration":562429,"SoundDuration":562429,"Delta":44914854},{"NoteNumber":68,"Velocity":31,"Duration":530035,"SoundDuration":530035,"Delta":45477283},{"NoteNumber":51,"Velocity":30,"Duration":530035,"SoundDuration":530035,"Delta":45477283},{"NoteNumber":75,"Velocity":49,"Duration":1089324,"SoundDuration":1089324,"Delta":46007319},{"NoteNumber":63,"Velocity":32,"Duration":544662,"SoundDuration":544662,"Delta":46007319},{"NoteNumber":43,"Velocity":44,"Duration":1089324,"SoundDuration":1089324,"Delta":46007319},{"NoteNumber":55,"Velocity":30,"Duration":544662,"SoundDuration":544662,"Delta":46007319},{"NoteNumber":70,"Velocity":33,"Duration":544662,"SoundDuration":544662,"Delta":46551981},{"NoteNumber":51,"Velocity":31,"Duration":544662,"SoundDuration":544662,"Delta":46551981},{"NoteNumber":80,"Velocity":51,"Duration":1118650,"SoundDuration":1118650,"Delta":47096643},{"NoteNumber":68,"Velocity":33,"Duration":554528,"SoundDuration":554528,"Delta":47096643},{"NoteNumber":41,"Velocity":46,"Duration":1118650,"SoundDuration":1118650,"Delta":47096643},{"NoteNumber":53,"Velocity":31,"Duration":554528,"SoundDuration":554528,"Delta":47096643},{"NoteNumber":72,"Velocity":34,"Duration":564121,"SoundDuration":564121,"Delta":47651172},{"NoteNumber":44,"Velocity":32,"Duration":564121,"SoundDuration":564121,"Delta":47651172},{"NoteNumber":82,"Velocity":56,"Duration":1166323,"SoundDuration":1166323,"Delta":48215294},{"NoteNumber":68,"Velocity":35,"Duration":576701,"SoundDuration":576701,"Delta":48215294},{"NoteNumber":41,"Velocity":49,"Duration":1166323,"SoundDuration":1166323,"Delta":48215294},{"NoteNumber":53,"Velocity":32,"Duration":576701,"SoundDuration":576701,"Delta":48215294},{"NoteNumber":74,"Velocity":35,"Duration":589622,"SoundDuration":589622,"Delta":48791995},{"NoteNumber":44,"Velocity":32,"Duration":589622,"SoundDuration":589622,"Delta":48791995},{"NoteNumber":75,"Velocity":50,"Duration":3273512,"SoundDuration":3273512,"Delta":49381618},{"NoteNumber":67,"Velocity":33,"Duration":562429,"SoundDuration":562429,"Delta":49381618},{"NoteNumber":39,"Velocity":46,"Duration":562429,"SoundDuration":562429,"Delta":49381618},{"NoteNumber":70,"Velocity":25,"Duration":552486,"SoundDuration":552486,"Delta":49944047},{"NoteNumber":43,"Velocity":25,"Duration":552486,"SoundDuration":552486,"Delta":49944047},{"NoteNumber":67,"Velocity":25,"Duration":535522,"SoundDuration":535522,"Delta":50496534},{"NoteNumber":46,"Velocity":25,"Duration":535522,"SoundDuration":535522,"Delta":50496534},{"NoteNumber":70,"Velocity":25,"Duration":535523,"SoundDuration":535523,"Delta":51032057},{"NoteNumber":51,"Velocity":25,"Duration":535523,"SoundDuration":535523,"Delta":51032057},{"NoteNumber":67,"Velocity":29,"Duration":542888,"SoundDuration":542888,"Delta":51567580},{"NoteNumber":55,"Velocity":28,"Duration":542888,"SoundDuration":542888,"Delta":51567580},{"NoteNumber":70,"Velocity":30,"Duration":544662,"SoundDuration":544662,"Delta":52110468},{"NoteNumber":58,"Velocity":30,"Duration":544662,"SoundDuration":544662,"Delta":52110468},{"NoteNumber":76,"Velocity":46,"Duration":1160063,"SoundDuration":1160063,"Delta":52655130},{"NoteNumber":67,"Velocity":33,"Duration":572518,"SoundDuration":572518,"Delta":52655130},{"NoteNumber":55,"Velocity":33,"Duration":572518,"SoundDuration":572518,"Delta":52655130},{"NoteNumber":70,"Velocity":34,"Duration":587544,"SoundDuration":587544,"Delta":53227649},{"NoteNumber":58,"Velocity":35,"Duration":587544,"SoundDuration":587544,"Delta":53227649},{"NoteNumber":77,"Velocity":50,"Duration":2216172,"SoundDuration":2216172,"Delta":53815193},{"NoteNumber":67,"Velocity":30,"Duration":562429,"SoundDuration":562429,"Delta":53815193},{"NoteNumber":37,"Velocity":40,"Duration":562429,"SoundDuration":562429,"Delta":53815193},{"NoteNumber":70,"Velocity":24,"Duration":528168,"SoundDuration":528168,"Delta":54377623},{"NoteNumber":43,"Velocity":24,"Duration":528168,"SoundDuration":528168,"Delta":54377623},{"NoteNumber":67,"Velocity":26,"Duration":546647,"SoundDuration":546647,"Delta":54905792},{"NoteNumber":46,"Velocity":26,"Duration":546647,"SoundDuration":546647,"Delta":54905792},{"NoteNumber":70,"Velocity":23,"Duration":569278,"SoundDuration":569278,"Delta":55452439},{"NoteNumber":49,"Velocity":23,"Duration":578927,"SoundDuration":578927,"Delta":55452439},{"NoteNumber":70,"Velocity":50,"Duration":1631818,"SoundDuration":1631818,"Delta":56031366},{"NoteNumber":67,"Velocity":28,"Duration":562429,"SoundDuration":562429,"Delta":56031366},{"NoteNumber":55,"Velocity":25,"Duration":562429,"SoundDuration":562429,"Delta":56031366},{"NoteNumber":63,"Velocity":24,"Duration":526500,"SoundDuration":526500,"Delta":56593796},{"NoteNumber":58,"Velocity":21,"Duration":526500,"SoundDuration":526500,"Delta":56593796},{"NoteNumber":67,"Velocity":24,"Duration":542888,"SoundDuration":542888,"Delta":57120296},{"NoteNumber":55,"Velocity":21,"Duration":542888,"SoundDuration":542888,"Delta":57120296},{"NoteNumber":72,"Velocity":46,"Duration":289463,"SoundDuration":289463,"Delta":57663185},{"NoteNumber":63,"Velocity":24,"Duration":578927,"SoundDuration":578927,"Delta":57663185},{"NoteNumber":49,"Velocity":21,"Duration":578927,"SoundDuration":578927,"Delta":57663185},{"NoteNumber":73,"Velocity":46,"Duration":289463,"SoundDuration":289463,"Delta":57952648},{"NoteNumber":75,"Velocity":50,"Duration":2218987,"SoundDuration":2218987,"Delta":58242112},{"NoteNumber":68,"Velocity":30,"Duration":562429,"SoundDuration":562429,"Delta":58242112},{"NoteNumber":48,"Velocity":40,"Duration":1087088,"SoundDuration":1087088,"Delta":58242112},{"NoteNumber":63,"Velocity":27,"Duration":524658,"SoundDuration":524658,"Delta":58804541},{"NoteNumber":51,"Velocity":27,"Duration":524658,"SoundDuration":524658,"Delta":58804541},{"NoteNumber":68,"Velocity":27,"Duration":546647,"SoundDuration":546647,"Delta":59329200},{"NoteNumber":48,"Velocity":27,"Duration":1131898,"SoundDuration":1131898,"Delta":59329200},{"NoteNumber":63,"Velocity":25,"Duration":438938,"SoundDuration":438938,"Delta":59875848},{"NoteNumber":51,"Velocity":25,"Duration":585251,"SoundDuration":585251,"Delta":59875848},{"NoteNumber":69,"Velocity":48,"Duration":2218747,"SoundDuration":2218747,"Delta":60461099},{"NoteNumber":63,"Velocity":28,"Duration":562429,"SoundDuration":562429,"Delta":60461099},{"NoteNumber":41,"Velocity":36,"Duration":2218747,"SoundDuration":2218747,"Delta":60461099},{"NoteNumber":48,"Velocity":25,"Duration":562429,"SoundDuration":562429,"Delta":60461099},{"NoteNumber":60,"Velocity":24,"Duration":526500,"SoundDuration":526500,"Delta":61023529},{"NoteNumber":53,"Velocity":21,"Duration":526500,"SoundDuration":526500,"Delta":61023529},{"NoteNumber":63,"Velocity":26,"Duration":548646,"SoundDuration":548646,"Delta":61550030},{"NoteNumber":48,"Velocity":23,"Duration":548646,"SoundDuration":548646,"Delta":61550030},{"NoteNumber":60,"Velocity":24,"Duration":581170,"SoundDuration":581170,"Delta":62098676},{"NoteNumber":53,"Velocity":21,"Duration":581170,"SoundDuration":581170,"Delta":62098676},{"NoteNumber":73,"Velocity":50,"Duration":2216503,"SoundDuration":2216503,"Delta":62679846},{"NoteNumber":65,"Velocity":29,"Duration":562429,"SoundDuration":562429,"Delta":62679846},{"NoteNumber":46,"Velocity":40,"Duration":2216503,"SoundDuration":2216503,"Delta":62679846},{"NoteNumber":49,"Velocity":26,"Duration":562429,"SoundDuration":562429,"Delta":62679846},{"NoteNumber":61,"Velocity":25,"Duration":526500,"SoundDuration":526500,"Delta":63242276},{"NoteNumber":53,"Velocity":22,"Duration":526500,"SoundDuration":526500,"Delta":63242276},{"NoteNumber":65,"Velocity":27,"Duration":548646,"SoundDuration":548646,"Delta":63768777},{"NoteNumber":49,"Velocity":24,"Duration":548646,"SoundDuration":548646,"Delta":63768777},{"NoteNumber":61,"Velocity":24,"Duration":434195,"SoundDuration":434195,"Delta":64317423},{"NoteNumber":53,"Velocity":21,"Duration":578926,"SoundDuration":578926,"Delta":64317423},{"NoteNumber":72,"Velocity":48,"Duration":565933,"SoundDuration":565933,"Delta":64896350},{"NoteNumber":61,"Velocity":30,"Duration":424688,"SoundDuration":424688,"Delta":64896350},{"NoteNumber":39,"Velocity":34,"Duration":2293530,"SoundDuration":2293530,"Delta":64896350},{"NoteNumber":46,"Velocity":27,"Duration":565933,"SoundDuration":565933,"Delta":64896350},{"NoteNumber":70,"Velocity":48,"Duration":552486,"SoundDuration":552486,"Delta":65462283},{"NoteNumber":61,"Velocity":26,"Duration":414364,"SoundDuration":414364,"Delta":65462283},{"NoteNumber":51,"Velocity":23,"Duration":552486,"SoundDuration":552486,"Delta":65462283},{"NoteNumber":68,"Velocity":48,"Duration":578926,"SoundDuration":578926,"Delta":66014770},{"NoteNumber":61,"Velocity":28,"Duration":434195,"SoundDuration":434195,"Delta":66014770},{"NoteNumber":46,"Velocity":25,"Duration":578926,"SoundDuration":578926,"Delta":66014770},{"NoteNumber":67,"Velocity":48,"Duration":596184,"SoundDuration":596184,"Delta":66593697},{"NoteNumber":61,"Velocity":26,"Duration":447138,"SoundDuration":447138,"Delta":66593697},{"NoteNumber":51,"Velocity":23,"Duration":596184,"SoundDuration":596184,"Delta":66593697},{"NoteNumber":70,"Velocity":50,"Duration":2375456,"SoundDuration":2375456,"Delta":67189881},{"NoteNumber":61,"Velocity":30,"Duration":589622,"SoundDuration":589622,"Delta":67189881},{"NoteNumber":44,"Velocity":37,"Duration":3610024,"SoundDuration":3610024,"Delta":67189881},{"NoteNumber":63,"Velocity":26,"Duration":578926,"SoundDuration":578926,"Delta":67779504},{"NoteNumber":51,"Velocity":23,"Duration":578926,"SoundDuration":578926,"Delta":67779504},{"NoteNumber":61,"Velocity":28,"Duration":589622,"SoundDuration":589622,"Delta":68358431},{"NoteNumber":55,"Velocity":25,"Duration":589622,"SoundDuration":589622,"Delta":68358431},{"NoteNumber":63,"Velocity":24,"Duration":617283,"SoundDuration":617283,"Delta":68948054},{"NoteNumber":51,"Velocity":21,"Duration":617283,"SoundDuration":617283,"Delta":68948054},{"NoteNumber":68,"Velocity":50,"Duration":1234567,"SoundDuration":1234567,"Delta":69565338},{"NoteNumber":60,"Velocity":36,"Duration":1234567,"SoundDuration":1234567,"Delta":69565338},{"NoteNumber":56,"Velocity":36,"Duration":1234567,"SoundDuration":1234567,"Delta":69565338},{"NoteNumber":60,"Velocity":45,"Duration":267761,"SoundDuration":267761,"Delta":71603190},{"NoteNumber":72,"Velocity":50,"Duration":2731428,"SoundDuration":2731428,"Delta":71870952},{"NoteNumber":60,"Velocity":25,"Duration":481970,"SoundDuration":481970,"Delta":72433381},{"NoteNumber":60,"Velocity":25,"Duration":481970,"SoundDuration":481970,"Delta":72968904},{"NoteNumber":60,"Velocity":25,"Duration":481970,"SoundDuration":481970,"Delta":73504427},{"NoteNumber":60,"Velocity":29,"Duration":506186,"SoundDuration":506186,"Delta":74039950},{"NoteNumber":80,"Velocity":50,"Duration":537441,"SoundDuration":537441,"Delta":74602380},{"NoteNumber":60,"Velocity":25,"Duration":483697,"SoundDuration":483697,"Delta":74602380},{"NoteNumber":79,"Velocity":51,"Duration":537441,"SoundDuration":537441,"Delta":75139822},{"NoteNumber":60,"Velocity":25,"Duration":483697,"SoundDuration":483697,"Delta":75139822},{"NoteNumber":77,"Velocity":48,"Duration":589622,"SoundDuration":589622,"Delta":75677264},{"NoteNumber":60,"Velocity":25,"Duration":530660,"SoundDuration":530660,"Delta":75677264},{"NoteNumber":84,"Velocity":54,"Duration":2728036,"SoundDuration":2728036,"Delta":76266886},{"NoteNumber":52,"Velocity":24,"Duration":493782,"SoundDuration":493782,"Delta":76266886},{"NoteNumber":55,"Velocity":24,"Duration":493782,"SoundDuration":493782,"Delta":76266886},{"NoteNumber":60,"Velocity":29,"Duration":493782,"SoundDuration":493782,"Delta":76266886},{"NoteNumber":52,"Velocity":21,"Duration":485088,"SoundDuration":485088,"Delta":76815533},{"NoteNumber":55,"Velocity":21,"Duration":485088,"SoundDuration":485088,"Delta":76815533},{"NoteNumber":60,"Velocity":25,"Duration":485088,"SoundDuration":485088,"Delta":76815533},{"NoteNumber":52,"Velocity":21,"Duration":485088,"SoundDuration":485088,"Delta":77354520},{"NoteNumber":55,"Velocity":21,"Duration":485088,"SoundDuration":485088,"Delta":77354520},{"NoteNumber":60,"Velocity":25,"Duration":485088,"SoundDuration":485088,"Delta":77354520},{"NoteNumber":52,"Velocity":21,"Duration":485088,"SoundDuration":485088,"Delta":77893507},{"NoteNumber":55,"Velocity":21,"Duration":485088,"SoundDuration":485088,"Delta":77893507},{"NoteNumber":60,"Velocity":25,"Duration":485088,"SoundDuration":485088,"Delta":77893507},{"NoteNumber":53,"Velocity":24,"Duration":506186,"SoundDuration":506186,"Delta":78432493},{"NoteNumber":56,"Velocity":24,"Duration":506186,"SoundDuration":506186,"Delta":78432493},{"NoteNumber":60,"Velocity":29,"Duration":506186,"SoundDuration":506186,"Delta":78432493},{"NoteNumber":80,"Velocity":50,"Duration":540930,"SoundDuration":540930,"Delta":78994923},{"NoteNumber":53,"Velocity":21,"Duration":486837,"SoundDuration":486837,"Delta":78994923},{"NoteNumber":56,"Velocity":21,"Duration":486837,"SoundDuration":486837,"Delta":78994923},{"NoteNumber":60,"Velocity":25,"Duration":486837,"SoundDuration":486837,"Delta":78994923},{"NoteNumber":79,"Velocity":50,"Duration":540930,"SoundDuration":540930,"Delta":79535854},{"NoteNumber":53,"Velocity":21,"Duration":486837,"SoundDuration":486837,"Delta":79535854},{"NoteNumber":56,"Velocity":21,"Duration":486837,"SoundDuration":486837,"Delta":79535854},{"NoteNumber":60,"Velocity":25,"Duration":486837,"SoundDuration":486837,"Delta":79535854},{"NoteNumber":77,"Velocity":48,"Duration":589622,"SoundDuration":589622,"Delta":80076784},{"NoteNumber":53,"Velocity":21,"Duration":530660,"SoundDuration":530660,"Delta":80076784},{"NoteNumber":56,"Velocity":21,"Duration":530660,"SoundDuration":530660,"Delta":80076784},{"NoteNumber":60,"Velocity":25,"Duration":530660,"SoundDuration":530660,"Delta":80076784},{"NoteNumber":72,"Velocity":52,"Duration":2735680,"SoundDuration":2735680,"Delta":80666407},{"NoteNumber":55,"Velocity":24,"Duration":506186,"SoundDuration":506186,"Delta":80666407},{"NoteNumber":58,"Velocity":24,"Duration":506186,"SoundDuration":506186,"Delta":80666407},{"NoteNumber":64,"Velocity":29,"Duration":506186,"SoundDuration":506186,"Delta":80666407},{"NoteNumber":55,"Velocity":21,"Duration":486837,"SoundDuration":486837,"Delta":81228837},{"NoteNumber":58,"Velocity":21,"Duration":486837,"SoundDuration":486837,"Delta":81228837},{"NoteNumber":64,"Velocity":25,"Duration":486837,"SoundDuration":486837,"Delta":81228837},{"NoteNumber":55,"Velocity":21,"Duration":486837,"SoundDuration":486837,"Delta":81769767},{"NoteNumber":58,"Velocity":21,"Duration":486837,"SoundDuration":486837,"Delta":81769767},{"NoteNumber":64,"Velocity":25,"Duration":486837,"SoundDuration":486837,"Delta":81769767},{"NoteNumber":55,"Velocity":21,"Duration":486837,"SoundDuration":486837,"Delta":82310698},{"NoteNumber":58,"Velocity":21,"Duration":486837,"SoundDuration":486837,"Delta":82310698},{"NoteNumber":64,"Velocity":25,"Duration":486837,"SoundDuration":486837,"Delta":82310698},{"NoteNumber":56,"Velocity":26,"Duration":495412,"SoundDuration":495412,"Delta":82851628},{"NoteNumber":60,"Velocity":26,"Duration":495412,"SoundDuration":495412,"Delta":82851628},{"NoteNumber":65,"Velocity":31,"Duration":495412,"SoundDuration":495412,"Delta":82851628},{"NoteNumber":80,"Velocity":46,"Duration":540930,"SoundDuration":540930,"Delta":83402087},{"NoteNumber":56,"Velocity":23,"Duration":486837,"SoundDuration":486837,"Delta":83402087},{"NoteNumber":60,"Velocity":23,"Duration":486837,"SoundDuration":486837,"Delta":83402087},{"NoteNumber":65,"Velocity":28,"Duration":486837,"SoundDuration":486837,"Delta":83402087},{"NoteNumber":79,"Velocity":49,"Duration":540930,"SoundDuration":540930,"Delta":83943017},{"NoteNumber":56,"Velocity":24,"Duration":486837,"SoundDuration":486837,"Delta":83943017},{"NoteNumber":60,"Velocity":24,"Duration":486837,"SoundDuration":486837,"Delta":83943017},{"NoteNumber":65,"Velocity":29,"Duration":486837,"SoundDuration":486837,"Delta":83943017},{"NoteNumber":77,"Velocity":51,"Duration":587543,"SoundDuration":587543,"Delta":84483948},{"NoteNumber":56,"Velocity":24,"Duration":528789,"SoundDuration":528789,"Delta":84483948},{"NoteNumber":60,"Velocity":24,"Duration":528789,"SoundDuration":528789,"Delta":84483948},{"NoteNumber":65,"Velocity":29,"Duration":528789,"SoundDuration":528789,"Delta":84483948},{"NoteNumber":75,"Velocity":57,"Duration":1120883,"SoundDuration":1120883,"Delta":85071492},{"NoteNumber":58,"Velocity":25,"Duration":511557,"SoundDuration":511557,"Delta":85071492},{"NoteNumber":65,"Velocity":25,"Duration":511557,"SoundDuration":511557,"Delta":85071492},{"NoteNumber":68,"Velocity":30,"Duration":511557,"SoundDuration":511557,"Delta":85071492},{"NoteNumber":58,"Velocity":26,"Duration":497237,"SoundDuration":497237,"Delta":85639889},{"NoteNumber":65,"Velocity":26,"Duration":497237,"SoundDuration":497237,"Delta":85639889},{"NoteNumber":68,"Velocity":31,"Duration":497237,"SoundDuration":497237,"Delta":85639889},{"NoteNumber":74,"Velocity":53,"Duration":1688344,"SoundDuration":1688344,"Delta":86192375},{"NoteNumber":58,"Velocity":28,"Duration":486837,"SoundDuration":486837,"Delta":86192375},{"NoteNumber":65,"Velocity":28,"Duration":486837,"SoundDuration":486837,"Delta":86192375},{"NoteNumber":68,"Velocity":33,"Duration":486837,"SoundDuration":486837,"Delta":86192375},{"NoteNumber":58,"Velocity":30,"Duration":533596,"SoundDuration":533596,"Delta":86733306},{"NoteNumber":65,"Velocity":30,"Duration":533596,"SoundDuration":533596,"Delta":86733306},{"NoteNumber":68,"Velocity":35,"Duration":533596,"SoundDuration":533596,"Delta":86733306},{"NoteNumber":59,"Velocity":32,"Duration":499075,"SoundDuration":499075,"Delta":87326191},{"NoteNumber":65,"Velocity":32,"Duration":499075,"SoundDuration":499075,"Delta":87326191},{"NoteNumber":68,"Velocity":38,"Duration":499075,"SoundDuration":499075,"Delta":87326191},{"NoteNumber":75,"Velocity":55,"Duration":149640,"SoundDuration":149640,"Delta":87880720},{"NoteNumber":59,"Velocity":27,"Duration":538707,"SoundDuration":538707,"Delta":87880720},{"NoteNumber":65,"Velocity":27,"Duration":538707,"SoundDuration":538707,"Delta":87880720},{"NoteNumber":68,"Velocity":33,"Duration":538707,"SoundDuration":538707,"Delta":87880720},{"NoteNumber":74,"Velocity":55,"Duration":149640,"SoundDuration":149640,"Delta":88030361},{"NoteNumber":72,"Velocity":54,"Duration":149640,"SoundDuration":149640,"Delta":88180002},{"NoteNumber":74,"Velocity":54,"Duration":149640,"SoundDuration":149640,"Delta":88329642},{"NoteNumber":77,"Velocity":63,"Duration":858778,"SoundDuration":858778,"Delta":88479283},{"NoteNumber":59,"Velocity":27,"Duration":515267,"SoundDuration":515267,"Delta":88479283},{"NoteNumber":62,"Velocity":27,"Duration":515267,"SoundDuration":515267,"Delta":88479283},{"NoteNumber":68,"Velocity":33,"Duration":515267,"SoundDuration":515267,"Delta":88479283},{"NoteNumber":59,"Velocity":25,"Duration":537095,"SoundDuration":537095,"Delta":89051802},{"NoteNumber":62,"Velocity":25,"Duration":537095,"SoundDuration":537095,"Delta":89051802},{"NoteNumber":68,"Velocity":30,"Duration":537095,"SoundDuration":537095,"Delta":89051802},{"NoteNumber":75,"Velocity":55,"Duration":313545,"SoundDuration":313545,"Delta":89338062},{"NoteNumber":75,"Velocity":62,"Duration":2249718,"SoundDuration":2249718,"Delta":89651607},{"NoteNumber":60,"Velocity":27,"Duration":506186,"SoundDuration":506186,"Delta":89651607},{"NoteNumber":63,"Velocity":27,"Duration":506186,"SoundDuration":506186,"Delta":89651607},{"NoteNumber":67,"Velocity":32,"Duration":506186,"SoundDuration":506186,"Delta":89651607},{"NoteNumber":60,"Velocity":22,"Duration":506186,"SoundDuration":506186,"Delta":90214037},{"NoteNumber":63,"Velocity":22,"Duration":506186,"SoundDuration":506186,"Delta":90214037},{"NoteNumber":67,"Velocity":27,"Duration":506186,"SoundDuration":506186,"Delta":90214037},{"NoteNumber":60,"Velocity":22,"Duration":506186,"SoundDuration":506186,"Delta":90776466},{"NoteNumber":63,"Velocity":22,"Duration":506186,"SoundDuration":506186,"Delta":90776466},{"NoteNumber":67,"Velocity":27,"Duration":506186,"SoundDuration":506186,"Delta":90776466},{"NoteNumber":60,"Velocity":22,"Duration":506186,"SoundDuration":506186,"Delta":91338896},{"NoteNumber":63,"Velocity":22,"Duration":506186,"SoundDuration":506186,"Delta":91338896},{"NoteNumber":67,"Velocity":27,"Duration":506186,"SoundDuration":506186,"Delta":91338896},{"NoteNumber":65,"Velocity":55,"Duration":1389651,"SoundDuration":1389651,"Delta":91901326},{"NoteNumber":56,"Velocity":28,"Duration":491982,"SoundDuration":491982,"Delta":91901326},{"NoteNumber":63,"Velocity":33,"Duration":491982,"SoundDuration":491982,"Delta":91901326},{"NoteNumber":56,"Velocity":25,"Duration":509626,"SoundDuration":509626,"Delta":92447973},{"NoteNumber":63,"Velocity":30,"Duration":509626,"SoundDuration":509626,"Delta":92447973},{"NoteNumber":67,"Velocity":54,"Duration":138376,"SoundDuration":138376,"Delta":93014225},{"NoteNumber":56,"Velocity":25,"Duration":498154,"SoundDuration":498154,"Delta":93014225},{"NoteNumber":63,"Velocity":30,"Duration":498154,"SoundDuration":498154,"Delta":93014225},{"NoteNumber":65,"Velocity":54,"Duration":415129,"SoundDuration":415129,"Delta":93152601},{"NoteNumber":64,"Velocity":53,"Duration":138376,"SoundDuration":138376,"Delta":93290977},{"NoteNumber":65,"Velocity":53,"Duration":138376,"SoundDuration":138376,"Delta":93429354},{"NoteNumber":68,"Velocity":58,"Duration":270465,"SoundDuration":270465,"Delta":93567730},{"NoteNumber":56,"Velocity":25,"Duration":467898,"SoundDuration":467898,"Delta":93567730},{"NoteNumber":63,"Velocity":30,"Duration":467898,"SoundDuration":467898,"Delta":93567730},{"NoteNumber":72,"Velocity":51,"Duration":246791,"SoundDuration":246791,"Delta":93838195},{"NoteNumber":71,"Velocity":45,"Duration":186641,"SoundDuration":186641,"Delta":94084987},{"NoteNumber":72,"Velocity":45,"Duration":194790,"SoundDuration":194790,"Delta":94271628},{"NoteNumber":74,"Velocity":45,"Duration":203866,"SoundDuration":203866,"Delta":94466419},{"NoteNumber":72,"Velocity":49,"Duration":293807,"SoundDuration":293807,"Delta":94670285},{"NoteNumber":70,"Velocity":45,"Duration":309917,"SoundDuration":309917,"Delta":94964092},{"NoteNumber":79,"Velocity":52,"Duration":1145633,"SoundDuration":1145633,"Delta":95274009},{"NoteNumber":58,"Velocity":25,"Duration":524883,"SoundDuration":524883,"Delta":95274009},{"NoteNumber":63,"Velocity":25,"Duration":524883,"SoundDuration":524883,"Delta":95274009},{"NoteNumber":67,"Velocity":30,"Duration":524883,"SoundDuration":524883,"Delta":95274009},{"NoteNumber":58,"Velocity":25,"Duration":506186,"SoundDuration":506186,"Delta":95857213},{"NoteNumber":63,"Velocity":25,"Duration":506186,"SoundDuration":506186,"Delta":95857213},{"NoteNumber":67,"Velocity":30,"Duration":506186,"SoundDuration":506186,"Delta":95857213},{"NoteNumber":77,"Velocity":50,"Duration":281214,"SoundDuration":281214,"Delta":96419643},{"NoteNumber":58,"Velocity":25,"Duration":506186,"SoundDuration":506186,"Delta":96419643},{"NoteNumber":63,"Velocity":25,"Duration":506186,"SoundDuration":506186,"Delta":96419643},{"NoteNumber":67,"Velocity":30,"Duration":506186,"SoundDuration":506186,"Delta":96419643},{"NoteNumber":75,"Velocity":49,"Duration":281214,"SoundDuration":281214,"Delta":96700858},{"NoteNumber":74,"Velocity":47,"Duration":281214,"SoundDuration":281214,"Delta":96982073},{"NoteNumber":72,"Velocity":46,"Duration":281214,"SoundDuration":281214,"Delta":97263288},{"NoteNumber":70,"Velocity":44,"Duration":281214,"SoundDuration":281214,"Delta":97544502},{"NoteNumber":46,"Velocity":25,"Duration":506186,"SoundDuration":506186,"Delta":97544502},{"NoteNumber":50,"Velocity":25,"Duration":506186,"SoundDuration":506186,"Delta":97544502},{"NoteNumber":56,"Velocity":30,"Duration":506186,"SoundDuration":506186,"Delta":97544502},{"NoteNumber":69,"Velocity":43,"Duration":281214,"SoundDuration":281214,"Delta":97825717},{"NoteNumber":72,"Velocity":47,"Duration":281214,"SoundDuration":281214,"Delta":98106932},{"NoteNumber":46,"Velocity":25,"Duration":506186,"SoundDuration":506186,"Delta":98106932},{"NoteNumber":50,"Velocity":25,"Duration":506186,"SoundDuration":506186,"Delta":98106932},{"NoteNumber":56,"Velocity":30,"Duration":506186,"SoundDuration":506186,"Delta":98106932},{"NoteNumber":70,"Velocity":46,"Duration":281214,"SoundDuration":281214,"Delta":98388147},{"NoteNumber":68,"Velocity":45,"Duration":291601,"SoundDuration":291601,"Delta":98669362},{"NoteNumber":46,"Velocity":25,"Duration":524883,"SoundDuration":524883,"Delta":98669362},{"NoteNumber":50,"Velocity":25,"Duration":524883,"SoundDuration":524883,"Delta":98669362},{"NoteNumber":56,"Velocity":30,"Duration":524883,"SoundDuration":524883,"Delta":98669362},{"NoteNumber":65,"Velocity":43,"Duration":291601,"SoundDuration":291601,"Delta":98960964},{"NoteNumber":63,"Velocity":49,"Duration":1124859,"SoundDuration":1124859,"Delta":99252566},{"NoteNumber":51,"Velocity":25,"Duration":1124859,"SoundDuration":1124859,"Delta":99252566},{"NoteNumber":55,"Velocity":33,"Duration":1124859,"SoundDuration":1124859,"Delta":99252566},{"NoteNumber":58,"Velocity":44,"Duration":562429,"SoundDuration":562429,"Delta":100939855},{"NoteNumber":55,"Velocity":49,"Duration":548646,"SoundDuration":548646,"Delta":101502285},{"NoteNumber":58,"Velocity":45,"Duration":548646,"SoundDuration":548646,"Delta":102050931},{"NoteNumber":55,"Velocity":49,"Duration":548646,"SoundDuration":548646,"Delta":102599578},{"NoteNumber":51,"Velocity":45,"Duration":578926,"SoundDuration":578926,"Delta":103148225},{"NoteNumber":53,"Velocity":38,"Duration":1085952,"SoundDuration":1085952,"Delta":103727152},{"NoteNumber":56,"Velocity":45,"Duration":1085952,"SoundDuration":1085952,"Delta":103727152},{"NoteNumber":51,"Velocity":49,"Duration":554528,"SoundDuration":554528,"Delta":103727152},{"NoteNumber":34,"Velocity":33,"Duration":4476545,"SoundDuration":4476545,"Delta":103727152},{"NoteNumber":50,"Velocity":44,"Duration":415896,"SoundDuration":415896,"Delta":104281681},{"NoteNumber":53,"Velocity":39,"Duration":1095145,"SoundDuration":1095145,"Delta":104836209},{"NoteNumber":56,"Velocity":47,"Duration":1095145,"SoundDuration":1095145,"Delta":104836209},{"NoteNumber":50,"Velocity":49,"Duration":554528,"SoundDuration":554528,"Delta":104836209},{"NoteNumber":48,"Velocity":45,"Duration":423091,"SoundDuration":423091,"Delta":105390738},{"NoteNumber":53,"Velocity":42,"Duration":1085952,"SoundDuration":1085952,"Delta":105954860},{"NoteNumber":56,"Velocity":50,"Duration":1085952,"SoundDuration":1085952,"Delta":105954860},{"NoteNumber":48,"Velocity":53,"Duration":554528,"SoundDuration":554528,"Delta":105954860},{"NoteNumber":47,"Velocity":47,"Duration":415896,"SoundDuration":415896,"Delta":106509389},{"NoteNumber":50,"Velocity":36,"Duration":1115395,"SoundDuration":1115395,"Delta":107063917},{"NoteNumber":53,"Velocity":41,"Duration":1115395,"SoundDuration":1115395,"Delta":107063917},{"NoteNumber":56,"Velocity":49,"Duration":1115395,"SoundDuration":1115395,"Delta":107063917},{"NoteNumber":47,"Velocity":53,"Duration":554528,"SoundDuration":554528,"Delta":107063917},{"NoteNumber":46,"Velocity":49,"Duration":585251,"SoundDuration":585251,"Delta":107618446},{"NoteNumber":46,"Velocity":36,"Duration":1121076,"SoundDuration":1121076,"Delta":108203698},{"NoteNumber":51,"Velocity":41,"Duration":1121076,"SoundDuration":1121076,"Delta":108203698},{"NoteNumber":55,"Velocity":49,"Duration":1121076,"SoundDuration":1121076,"Delta":108203698},{"NoteNumber":39,"Velocity":36,"Duration":1121076,"SoundDuration":1121076,"Delta":108203698},{"NoteNumber":46,"Velocity":44,"Duration":560538,"SoundDuration":560538,"Delta":109885312},{"NoteNumber":43,"Velocity":49,"Duration":548646,"SoundDuration":548646,"Delta":110445850},{"NoteNumber":46,"Velocity":45,"Duration":548646,"SoundDuration":548646,"Delta":110994497},{"NoteNumber":58,"Velocity":49,"Duration":838110,"SoundDuration":838110,"Delta":111543143},{"NoteNumber":43,"Velocity":41,"Duration":548646,"SoundDuration":548646,"Delta":111543143},{"NoteNumber":39,"Velocity":38,"Duration":578926,"SoundDuration":578926,"Delta":112091790},{"NoteNumber":63,"Velocity":49,"Duration":289463,"SoundDuration":289463,"Delta":112381254},{"NoteNumber":63,"Velocity":49,"Duration":554528,"SoundDuration":554528,"Delta":112670717},{"NoteNumber":53,"Velocity":38,"Duration":2227707,"SoundDuration":2227707,"Delta":112670717},{"NoteNumber":34,"Velocity":33,"Duration":2227707,"SoundDuration":2227707,"Delta":112670717},{"NoteNumber":56,"Velocity":45,"Duration":2227707,"SoundDuration":2227707,"Delta":112670717},{"NoteNumber":62,"Velocity":44,"Duration":531423,"SoundDuration":531423,"Delta":113225246},{"NoteNumber":62,"Velocity":49,"Duration":554528,"SoundDuration":554528,"Delta":113779775},{"NoteNumber":60,"Velocity":45,"Duration":540616,"SoundDuration":540616,"Delta":114334303},{"NoteNumber":60,"Velocity":53,"Duration":554528,"SoundDuration":554528,"Delta":114898425},{"NoteNumber":46,"Velocity":33,"Duration":2248837,"SoundDuration":2248837,"Delta":114898425},{"NoteNumber":53,"Velocity":42,"Duration":2248837,"SoundDuration":2248837,"Delta":114898425},{"NoteNumber":56,"Velocity":50,"Duration":2248837,"SoundDuration":2248837,"Delta":114898425},{"NoteNumber":59,"Velocity":47,"Duration":531423,"SoundDuration":531423,"Delta":115452954},{"NoteNumber":59,"Velocity":53,"Duration":554528,"SoundDuration":554528,"Delta":116007483},{"NoteNumber":58,"Velocity":49,"Duration":560866,"SoundDuration":560866,"Delta":116562011},{"NoteNumber":55,"Velocity":50,"Duration":9501601,"SoundDuration":9501601,"Delta":117147263},{"NoteNumber":58,"Velocity":50,"Duration":9501601,"SoundDuration":9501601,"Delta":117147263},{"NoteNumber":39,"Velocity":51,"Duration":9501601,"SoundDuration":9501601,"Delta":117147263},{"NoteNumber":53,"Velocity":51,"Duration":568397,"SoundDuration":568397,"Delta":117147263},{"NoteNumber":52,"Velocity":48,"Duration":426297,"SoundDuration":426297,"Delta":117715660},{"NoteNumber":52,"Velocity":53,"Duration":568397,"SoundDuration":568397,"Delta":118284057},{"NoteNumber":51,"Velocity":48,"Duration":426297,"SoundDuration":426297,"Delta":118852454},{"NoteNumber":51,"Velocity":53,"Duration":568396,"SoundDuration":568396,"Delta":119420851},{"NoteNumber":50,"Velocity":49,"Duration":426297,"SoundDuration":426297,"Delta":119989248},{"NoteNumber":50,"Velocity":55,"Duration":568397,"SoundDuration":568397,"Delta":120557645},{"NoteNumber":51,"Velocity":50,"Duration":452352,"SoundDuration":452352,"Delta":121126042},{"NoteNumber":51,"Velocity":55,"Duration":566251,"SoundDuration":566251,"Delta":121729178},{"NoteNumber":52,"Velocity":40,"Duration":424688,"SoundDuration":424688,"Delta":122295430},{"NoteNumber":52,"Velocity":44,"Duration":566251,"SoundDuration":566251,"Delta":122861681},{"NoteNumber":51,"Velocity":37,"Duration":438938,"SoundDuration":438938,"Delta":123427933},{"NoteNumber":51,"Velocity":44,"Duration":603650,"SoundDuration":603650,"Delta":124013185},{"NoteNumber":50,"Velocity":31,"Duration":462553,"SoundDuration":462553,"Delta":124616835},{"NoteNumber":50,"Velocity":37,"Duration":640246,"SoundDuration":640246,"Delta":125235422},{"NoteNumber":49,"Velocity":29,"Duration":773195,"SoundDuration":773195,"Delta":125875668},{"NoteNumber":60,"Velocity":47,"Duration":2309030,"SoundDuration":2309030,"Delta":126648864},{"NoteNumber":32,"Velocity":33,"Duration":2309030,"SoundDuration":2309030,"Delta":126648864},{"NoteNumber":44,"Velocity":37,"Duration":2309030,"SoundDuration":2309030,"Delta":126648864},{"NoteNumber":56,"Velocity":28,"Duration":576701,"SoundDuration":576701,"Delta":126648864},{"NoteNumber":51,"Velocity":24,"Duration":576701,"SoundDuration":576701,"Delta":127225566},{"NoteNumber":56,"Velocity":26,"Duration":576701,"SoundDuration":576701,"Delta":127802267},{"NoteNumber":51,"Velocity":23,"Duration":578926,"SoundDuration":578926,"Delta":128378968},{"NoteNumber":58,"Velocity":46,"Duration":2251077,"SoundDuration":2251077,"Delta":128957895},{"NoteNumber":49,"Velocity":35,"Duration":2251077,"SoundDuration":2251077,"Delta":128957895},{"NoteNumber":55,"Velocity":28,"Duration":574712,"SoundDuration":574712,"Delta":128957895},{"NoteNumber":51,"Velocity":24,"Duration":538986,"SoundDuration":538986,"Delta":129532608},{"NoteNumber":55,"Velocity":26,"Duration":558451,"SoundDuration":558451,"Delta":130071595},{"NoteNumber":51,"Velocity":24,"Duration":578926,"SoundDuration":578926,"Delta":130630046},{"NoteNumber":63,"Velocity":50,"Duration":3260643,"SoundDuration":3260643,"Delta":131208973},{"NoteNumber":48,"Velocity":40,"Duration":2185759,"SoundDuration":2185759,"Delta":131208973},{"NoteNumber":56,"Velocity":28,"Duration":562429,"SoundDuration":562429,"Delta":131208973},{"NoteNumber":51,"Velocity":25,"Duration":530035,"SoundDuration":530035,"Delta":131771403},{"NoteNumber":56,"Velocity":25,"Duration":546647,"SoundDuration":546647,"Delta":132301438},{"NoteNumber":51,"Velocity":25,"Duration":546647,"SoundDuration":546647,"Delta":132848085},{"NoteNumber":43,"Velocity":37,"Duration":2184844,"SoundDuration":2184844,"Delta":133394732},{"NoteNumber":58,"Velocity":28,"Duration":537441,"SoundDuration":537441,"Delta":133394732},{"NoteNumber":51,"Velocity":25,"Duration":537441,"SoundDuration":537441,"Delta":133932174},{"NoteNumber":61,"Velocity":48,"Duration":1109960,"SoundDuration":1109960,"Delta":134469616},{"NoteNumber":58,"Velocity":25,"Duration":537441,"SoundDuration":537441,"Delta":134469616},{"NoteNumber":51,"Velocity":25,"Duration":572518,"SoundDuration":572518,"Delta":135007058},{"NoteNumber":60,"Velocity":47,"Duration":1092465,"SoundDuration":1092465,"Delta":135579577},{"NoteNumber":44,"Velocity":33,"Duration":1092465,"SoundDuration":1092465,"Delta":135579577},{"NoteNumber":56,"Velocity":29,"Duration":562429,"SoundDuration":562429,"Delta":135579577},{"NoteNumber":51,"Velocity":25,"Duration":530035,"SoundDuration":530035,"Delta":136142006},{"NoteNumber":63,"Velocity":49,"Duration":1089324,"SoundDuration":1089324,"Delta":136672042},{"NoteNumber":43,"Velocity":36,"Duration":1089324,"SoundDuration":1089324,"Delta":136672042},{"NoteNumber":58,"Velocity":27,"Duration":544662,"SoundDuration":544662,"Delta":136672042},{"NoteNumber":51,"Velocity":24,"Duration":544662,"SoundDuration":544662,"Delta":137216704},{"NoteNumber":68,"Velocity":51,"Duration":1118650,"SoundDuration":1118650,"Delta":137761366},{"NoteNumber":41,"Velocity":40,"Duration":1118650,"SoundDuration":1118650,"Delta":137761366},{"NoteNumber":60,"Velocity":33,"Duration":554528,"SoundDuration":554528,"Delta":137761366},{"NoteNumber":56,"Velocity":28,"Duration":564121,"SoundDuration":564121,"Delta":138315895},{"NoteNumber":70,"Velocity":56,"Duration":1166324,"SoundDuration":1166324,"Delta":138880017},{"NoteNumber":53,"Velocity":44,"Duration":1166324,"SoundDuration":1166324,"Delta":138880017},{"NoteNumber":62,"Velocity":31,"Duration":576701,"SoundDuration":576701,"Delta":138880017},{"NoteNumber":56,"Velocity":26,"Duration":589622,"SoundDuration":589622,"Delta":139456718},{"NoteNumber":63,"Velocity":50,"Duration":3273512,"SoundDuration":3273512,"Delta":140046341},{"NoteNumber":51,"Velocity":36,"Duration":2185961,"SoundDuration":2185961,"Delta":140046341},{"NoteNumber":55,"Velocity":28,"Duration":562429,"SoundDuration":562429,"Delta":140046341},{"NoteNumber":58,"Velocity":23,"Duration":552486,"SoundDuration":552486,"Delta":140608770},{"NoteNumber":55,"Velocity":23,"Duration":535523,"SoundDuration":535523,"Delta":141161257},{"NoteNumber":58,"Velocity":23,"Duration":535522,"SoundDuration":535522,"Delta":141696780},{"NoteNumber":39,"Velocity":35,"Duration":2247613,"SoundDuration":2247613,"Delta":142232303},{"NoteNumber":55,"Velocity":28,"Duration":542888,"SoundDuration":542888,"Delta":142232303},{"NoteNumber":58,"Velocity":23,"Duration":544662,"SoundDuration":544662,"Delta":142775191},{"NoteNumber":64,"Velocity":46,"Duration":1160063,"SoundDuration":1160063,"Delta":143319853},{"NoteNumber":55,"Velocity":25,"Duration":572518,"SoundDuration":572518,"Delta":143319853},{"NoteNumber":58,"Velocity":24,"Duration":587544,"SoundDuration":587544,"Delta":143892372},{"NoteNumber":65,"Velocity":50,"Duration":2216172,"SoundDuration":2216172,"Delta":144479916},{"NoteNumber":37,"Velocity":40,"Duration":2216172,"SoundDuration":2216172,"Delta":144479916},{"NoteNumber":55,"Velocity":28,"Duration":562429,"SoundDuration":562429,"Delta":144479916},{"NoteNumber":58,"Velocity":24,"Duration":528168,"SoundDuration":528168,"Delta":145042346},{"NoteNumber":55,"Velocity":26,"Duration":546647,"SoundDuration":546647,"Delta":145570515},{"NoteNumber":58,"Velocity":23,"Duration":569278,"SoundDuration":569278,"Delta":146117162},{"NoteNumber":58,"Velocity":50,"Duration":1631818,"SoundDuration":1631818,"Delta":146696089},{"NoteNumber":49,"Velocity":36,"Duration":2210745,"SoundDuration":2210745,"Delta":146696089},{"NoteNumber":55,"Velocity":28,"Duration":562429,"SoundDuration":562429,"Delta":146696089},{"NoteNumber":51,"Velocity":24,"Duration":526500,"SoundDuration":526500,"Delta":147258519},{"NoteNumber":55,"Velocity":24,"Duration":542888,"SoundDuration":542888,"Delta":147785019},{"NoteNumber":60,"Velocity":46,"Duration":289463,"SoundDuration":289463,"Delta":148327908},{"NoteNumber":51,"Velocity":24,"Duration":578926,"SoundDuration":578926,"Delta":148327908},{"NoteNumber":61,"Velocity":46,"Duration":289463,"SoundDuration":289463,"Delta":148617371},{"NoteNumber":63,"Velocity":50,"Duration":2218987,"SoundDuration":2218987,"Delta":148906835},{"NoteNumber":48,"Velocity":40,"Duration":2218987,"SoundDuration":2218987,"Delta":148906835},{"NoteNumber":56,"Velocity":28,"Duration":562429,"SoundDuration":562429,"Delta":148906835},{"NoteNumber":51,"Velocity":27,"Duration":524659,"SoundDuration":524659,"Delta":149469264},{"NoteNumber":56,"Velocity":27,"Duration":546647,"SoundDuration":546647,"Delta":149993923},{"NoteNumber":51,"Velocity":25,"Duration":585251,"SoundDuration":585251,"Delta":150540571},{"NoteNumber":57,"Velocity":48,"Duration":2218746,"SoundDuration":2218746,"Delta":151125822},{"NoteNumber":41,"Velocity":36,"Duration":2218746,"SoundDuration":2218746,"Delta":151125822},{"NoteNumber":51,"Velocity":28,"Duration":562429,"SoundDuration":562429,"Delta":151125822},{"NoteNumber":48,"Velocity":24,"Duration":526500,"SoundDuration":526500,"Delta":151688252},{"NoteNumber":51,"Velocity":26,"Duration":548646,"SoundDuration":548646,"Delta":152214753},{"NoteNumber":48,"Velocity":24,"Duration":581169,"SoundDuration":581169,"Delta":152763399},{"NoteNumber":61,"Velocity":50,"Duration":2216503,"SoundDuration":2216503,"Delta":153344569},{"NoteNumber":34,"Velocity":40,"Duration":2216503,"SoundDuration":2216503,"Delta":153344569},{"NoteNumber":53,"Velocity":29,"Duration":562429,"SoundDuration":562429,"Delta":153344569},{"NoteNumber":49,"Velocity":25,"Duration":526500,"SoundDuration":526500,"Delta":153906999},{"NoteNumber":53,"Velocity":27,"Duration":548646,"SoundDuration":548646,"Delta":154433500},{"NoteNumber":49,"Velocity":24,"Duration":434195,"SoundDuration":434195,"Delta":154982146},{"NoteNumber":60,"Velocity":48,"Duration":565933,"SoundDuration":565933,"Delta":155561073},{"NoteNumber":39,"Velocity":34,"Duration":2293530,"SoundDuration":2293530,"Delta":155561073},{"NoteNumber":49,"Velocity":30,"Duration":424688,"SoundDuration":424688,"Delta":155561073},{"NoteNumber":58,"Velocity":48,"Duration":552486,"SoundDuration":552486,"Delta":156127006},{"NoteNumber":49,"Velocity":26,"Duration":414364,"SoundDuration":414364,"Delta":156127006},{"NoteNumber":56,"Velocity":48,"Duration":578926,"SoundDuration":578926,"Delta":156679493},{"NoteNumber":49,"Velocity":28,"Duration":434195,"SoundDuration":434195,"Delta":156679493},{"NoteNumber":55,"Velocity":48,"Duration":596184,"SoundDuration":596184,"Delta":157258420},{"NoteNumber":49,"Velocity":26,"Duration":447138,"SoundDuration":447138,"Delta":157258420},{"NoteNumber":55,"Velocity":40,"Duration":2375456,"SoundDuration":2375456,"Delta":157854604},{"NoteNumber":58,"Velocity":50,"Duration":2375456,"SoundDuration":2375456,"Delta":157854604},{"NoteNumber":32,"Velocity":37,"Duration":1168549,"SoundDuration":1168549,"Delta":157854604},{"NoteNumber":49,"Velocity":31,"Duration":589622,"SoundDuration":589622,"Delta":157854604},{"NoteNumber":51,"Velocity":26,"Duration":578926,"SoundDuration":578926,"Delta":158444227},{"NoteNumber":44,"Velocity":29,"Duration":1206906,"SoundDuration":1206906,"Delta":159023154},{"NoteNumber":49,"Velocity":28,"Duration":589622,"SoundDuration":589622,"Delta":159023154},{"NoteNumber":51,"Velocity":24,"Duration":617284,"SoundDuration":617284,"Delta":159612777},{"NoteNumber":56,"Velocity":50,"Duration":1234567,"SoundDuration":1234567,"Delta":160230061},{"NoteNumber":32,"Velocity":36,"Duration":1234567,"SoundDuration":1234567,"Delta":160230061},{"NoteNumber":63,"Velocity":47,"Duration":955413,"SoundDuration":955413,"Delta":161464629},{"NoteNumber":68,"Velocity":50,"Duration":849858,"SoundDuration":849858,"Delta":162420043},{"NoteNumber":59,"Velocity":24,"Duration":212464,"SoundDuration":212464,"Delta":162420043},{"NoteNumber":63,"Velocity":29,"Duration":212464,"SoundDuration":212464,"Delta":162420043},{"NoteNumber":44,"Velocity":33,"Duration":1699716,"SoundDuration":1699716,"Delta":162420043},{"NoteNumber":56,"Velocity":33,"Duration":1699716,"SoundDuration":1699716,"Delta":162420043},{"NoteNumber":59,"Velocity":24,"Duration":212464,"SoundDuration":212464,"Delta":162703329},{"NoteNumber":63,"Velocity":29,"Duration":212464,"SoundDuration":212464,"Delta":162703329},{"NoteNumber":59,"Velocity":24,"Duration":212464,"SoundDuration":212464,"Delta":162986615},{"NoteNumber":63,"Velocity":29,"Duration":212464,"SoundDuration":212464,"Delta":162986615},{"NoteNumber":71,"Velocity":47,"Duration":849858,"SoundDuration":849858,"Delta":163269901},{"NoteNumber":59,"Velocity":24,"Duration":212464,"SoundDuration":212464,"Delta":163269901},{"NoteNumber":63,"Velocity":29,"Duration":212464,"SoundDuration":212464,"Delta":163269901},{"NoteNumber":59,"Velocity":25,"Duration":212464,"SoundDuration":212464,"Delta":163553187},{"NoteNumber":63,"Velocity":30,"Duration":212464,"SoundDuration":212464,"Delta":163553187},{"NoteNumber":59,"Velocity":25,"Duration":212464,"SoundDuration":212464,"Delta":163836474},{"NoteNumber":63,"Velocity":30,"Duration":212464,"SoundDuration":212464,"Delta":163836474},{"NoteNumber":70,"Velocity":47,"Duration":831025,"SoundDuration":831025,"Delta":164119760},{"NoteNumber":59,"Velocity":25,"Duration":207756,"SoundDuration":207756,"Delta":164119760},{"NoteNumber":63,"Velocity":30,"Duration":207756,"SoundDuration":207756,"Delta":164119760},{"NoteNumber":59,"Velocity":25,"Duration":207756,"SoundDuration":207756,"Delta":164396768},{"NoteNumber":63,"Velocity":30,"Duration":207756,"SoundDuration":207756,"Delta":164396768},{"NoteNumber":59,"Velocity":25,"Duration":207756,"SoundDuration":207756,"Delta":164673776},{"NoteNumber":63,"Velocity":30,"Duration":207756,"SoundDuration":207756,"Delta":164673776},{"NoteNumber":68,"Velocity":46,"Duration":802139,"SoundDuration":802139,"Delta":164950785},{"NoteNumber":59,"Velocity":25,"Duration":200534,"SoundDuration":200534,"Delta":164950785},{"NoteNumber":63,"Velocity":30,"Duration":200534,"SoundDuration":200534,"Delta":164950785},{"NoteNumber":59,"Velocity":25,"Duration":200534,"SoundDuration":200534,"Delta":165218164},{"NoteNumber":63,"Velocity":30,"Duration":200534,"SoundDuration":200534,"Delta":165218164},{"NoteNumber":59,"Velocity":25,"Duration":200534,"SoundDuration":200534,"Delta":165485544},{"NoteNumber":63,"Velocity":30,"Duration":200534,"SoundDuration":200534,"Delta":165485544},{"NoteNumber":67,"Velocity":51,"Duration":802138,"SoundDuration":802138,"Delta":165752924},{"NoteNumber":61,"Velocity":25,"Duration":200534,"SoundDuration":200534,"Delta":165752924},{"NoteNumber":63,"Velocity":30,"Duration":200534,"SoundDuration":200534,"Delta":165752924},{"NoteNumber":58,"Velocity":36,"Duration":1063235,"SoundDuration":1063235,"Delta":165752924},{"NoteNumber":61,"Velocity":25,"Duration":200534,"SoundDuration":200534,"Delta":166020303},{"NoteNumber":63,"Velocity":30,"Duration":200534,"SoundDuration":200534,"Delta":166020303},{"NoteNumber":61,"Velocity":25,"Duration":200534,"SoundDuration":200534,"Delta":166287683},{"NoteNumber":63,"Velocity":30,"Duration":200534,"SoundDuration":200534,"Delta":166287683},{"NoteNumber":73,"Velocity":47,"Duration":783289,"SoundDuration":783289,"Delta":166555063},{"NoteNumber":61,"Velocity":25,"Duration":195822,"SoundDuration":195822,"Delta":166555063},{"NoteNumber":63,"Velocity":30,"Duration":195822,"SoundDuration":195822,"Delta":166555063},{"NoteNumber":61,"Velocity":25,"Duration":195822,"SoundDuration":195822,"Delta":166816159},{"NoteNumber":63,"Velocity":30,"Duration":195822,"SoundDuration":195822,"Delta":166816159},{"NoteNumber":58,"Velocity":36,"Duration":261096,"SoundDuration":261096,"Delta":166816159},{"NoteNumber":61,"Velocity":25,"Duration":195822,"SoundDuration":195822,"Delta":167077256},{"NoteNumber":63,"Velocity":30,"Duration":195822,"SoundDuration":195822,"Delta":167077256},{"NoteNumber":57,"Velocity":36,"Duration":261096,"SoundDuration":261096,"Delta":167077256},{"NoteNumber":61,"Velocity":25,"Duration":195822,"SoundDuration":195822,"Delta":167338353},{"NoteNumber":63,"Velocity":30,"Duration":195822,"SoundDuration":195822,"Delta":167338353},{"NoteNumber":58,"Velocity":36,"Duration":195822,"SoundDuration":195822,"Delta":167338353},{"NoteNumber":61,"Velocity":25,"Duration":192950,"SoundDuration":192950,"Delta":167598492},{"NoteNumber":63,"Velocity":30,"Duration":192950,"SoundDuration":192950,"Delta":167598492},{"NoteNumber":58,"Velocity":36,"Duration":192950,"SoundDuration":192950,"Delta":167598492},{"NoteNumber":61,"Velocity":25,"Duration":192950,"SoundDuration":192950,"Delta":167855760},{"NoteNumber":63,"Velocity":30,"Duration":192950,"SoundDuration":192950,"Delta":167855760},{"NoteNumber":56,"Velocity":33,"Duration":192950,"SoundDuration":192950,"Delta":167855760},{"NoteNumber":61,"Velocity":25,"Duration":192950,"SoundDuration":192950,"Delta":168113028},{"NoteNumber":63,"Velocity":30,"Duration":192950,"SoundDuration":192950,"Delta":168113028},{"NoteNumber":55,"Velocity":36,"Duration":192950,"SoundDuration":192950,"Delta":168113028},{"NoteNumber":61,"Velocity":25,"Duration":192950,"SoundDuration":192950,"Delta":168370296},{"NoteNumber":63,"Velocity":30,"Duration":192950,"SoundDuration":192950,"Delta":168370296},{"NoteNumber":53,"Velocity":32,"Duration":192950,"SoundDuration":192950,"Delta":168370296},{"NoteNumber":61,"Velocity":25,"Duration":192950,"SoundDuration":192950,"Delta":168627564},{"NoteNumber":63,"Velocity":30,"Duration":192950,"SoundDuration":192950,"Delta":168627564},{"NoteNumber":51,"Velocity":32,"Duration":192950,"SoundDuration":192950,"Delta":168627564},{"NoteNumber":68,"Velocity":50,"Duration":800213,"SoundDuration":800213,"Delta":168884831},{"NoteNumber":59,"Velocity":24,"Duration":200053,"SoundDuration":200053,"Delta":168884831},{"NoteNumber":63,"Velocity":29,"Duration":200053,"SoundDuration":200053,"Delta":168884831},{"NoteNumber":44,"Velocity":33,"Duration":1600426,"SoundDuration":1600426,"Delta":168884831},{"NoteNumber":56,"Velocity":33,"Duration":1600426,"SoundDuration":1600426,"Delta":168884831},{"NoteNumber":59,"Velocity":24,"Duration":200053,"SoundDuration":200053,"Delta":169151569},{"NoteNumber":63,"Velocity":29,"Duration":200053,"SoundDuration":200053,"Delta":169151569},{"NoteNumber":59,"Velocity":24,"Duration":200053,"SoundDuration":200053,"Delta":169418307},{"NoteNumber":63,"Velocity":29,"Duration":200053,"SoundDuration":200053,"Delta":169418307},{"NoteNumber":71,"Velocity":47,"Duration":800213,"SoundDuration":800213,"Delta":169685045},{"NoteNumber":59,"Velocity":24,"Duration":200053,"SoundDuration":200053,"Delta":169685045},{"NoteNumber":63,"Velocity":29,"Duration":200053,"SoundDuration":200053,"Delta":169685045},{"NoteNumber":59,"Velocity":25,"Duration":200053,"SoundDuration":200053,"Delta":169951783},{"NoteNumber":63,"Velocity":30,"Duration":200053,"SoundDuration":200053,"Delta":169951783},{"NoteNumber":59,"Velocity":25,"Duration":200053,"SoundDuration":200053,"Delta":170218521},{"NoteNumber":63,"Velocity":30,"Duration":200053,"SoundDuration":200053,"Delta":170218521},{"NoteNumber":70,"Velocity":47,"Duration":800213,"SoundDuration":800213,"Delta":170485258},{"NoteNumber":59,"Velocity":25,"Duration":200053,"SoundDuration":200053,"Delta":170485258},{"NoteNumber":63,"Velocity":30,"Duration":200053,"SoundDuration":200053,"Delta":170485258},{"NoteNumber":59,"Velocity":25,"Duration":200053,"SoundDuration":200053,"Delta":170751996},{"NoteNumber":63,"Velocity":30,"Duration":200053,"SoundDuration":200053,"Delta":170751996},{"NoteNumber":59,"Velocity":25,"Duration":200053,"SoundDuration":200053,"Delta":171018734},{"NoteNumber":63,"Velocity":30,"Duration":200053,"SoundDuration":200053,"Delta":171018734},{"NoteNumber":68,"Velocity":46,"Duration":800213,"SoundDuration":800213,"Delta":171285472},{"NoteNumber":59,"Velocity":25,"Duration":200053,"SoundDuration":200053,"Delta":171285472},{"NoteNumber":63,"Velocity":30,"Duration":200053,"SoundDuration":200053,"Delta":171285472},{"NoteNumber":59,"Velocity":25,"Duration":200053,"SoundDuration":200053,"Delta":171552210},{"NoteNumber":63,"Velocity":30,"Duration":200053,"SoundDuration":200053,"Delta":171552210},{"NoteNumber":59,"Velocity":25,"Duration":200053,"SoundDuration":200053,"Delta":171818948},{"NoteNumber":63,"Velocity":30,"Duration":200053,"SoundDuration":200053,"Delta":171818948},{"NoteNumber":68,"Velocity":51,"Duration":800213,"SoundDuration":800213,"Delta":172085685},{"NoteNumber":58,"Velocity":25,"Duration":200053,"SoundDuration":200053,"Delta":172085685},{"NoteNumber":63,"Velocity":30,"Duration":200053,"SoundDuration":200053,"Delta":172085685},{"NoteNumber":51,"Velocity":36,"Duration":1061310,"SoundDuration":1061310,"Delta":172085685},{"NoteNumber":58,"Velocity":25,"Duration":200053,"SoundDuration":200053,"Delta":172352423},{"NoteNumber":63,"Velocity":30,"Duration":200053,"SoundDuration":200053,"Delta":172352423},{"NoteNumber":58,"Velocity":25,"Duration":200053,"SoundDuration":200053,"Delta":172619161},{"NoteNumber":63,"Velocity":30,"Duration":200053,"SoundDuration":200053,"Delta":172619161},{"NoteNumber":67,"Velocity":47,"Duration":783289,"SoundDuration":783289,"Delta":172885899},{"NoteNumber":58,"Velocity":25,"Duration":195822,"SoundDuration":195822,"Delta":172885899},{"NoteNumber":63,"Velocity":30,"Duration":195822,"SoundDuration":195822,"Delta":172885899},{"NoteNumber":58,"Velocity":25,"Duration":195822,"SoundDuration":195822,"Delta":173146996},{"NoteNumber":63,"Velocity":30,"Duration":195822,"SoundDuration":195822,"Delta":173146996},{"NoteNumber":51,"Velocity":36,"Duration":261096,"SoundDuration":261096,"Delta":173146996},{"NoteNumber":58,"Velocity":25,"Duration":195822,"SoundDuration":195822,"Delta":173408092},{"NoteNumber":63,"Velocity":30,"Duration":195822,"SoundDuration":195822,"Delta":173408092},{"NoteNumber":50,"Velocity":36,"Duration":261096,"SoundDuration":261096,"Delta":173408092},{"NoteNumber":55,"Velocity":25,"Duration":195822,"SoundDuration":195822,"Delta":173669189},{"NoteNumber":58,"Velocity":25,"Duration":195822,"SoundDuration":195822,"Delta":173669189},{"NoteNumber":63,"Velocity":30,"Duration":195822,"SoundDuration":195822,"Delta":173669189},{"NoteNumber":51,"Velocity":36,"Duration":195822,"SoundDuration":195822,"Delta":173669189},{"NoteNumber":55,"Velocity":25,"Duration":192950,"SoundDuration":192950,"Delta":173929328},{"NoteNumber":58,"Velocity":25,"Duration":192950,"SoundDuration":192950,"Delta":173929328},{"NoteNumber":63,"Velocity":30,"Duration":192950,"SoundDuration":192950,"Delta":173929328},{"NoteNumber":52,"Velocity":36,"Duration":192950,"SoundDuration":192950,"Delta":173929328},{"NoteNumber":55,"Velocity":25,"Duration":192950,"SoundDuration":192950,"Delta":174186596},{"NoteNumber":58,"Velocity":25,"Duration":192950,"SoundDuration":192950,"Delta":174186596},{"NoteNumber":63,"Velocity":30,"Duration":192950,"SoundDuration":192950,"Delta":174186596},{"NoteNumber":51,"Velocity":33,"Duration":192950,"SoundDuration":192950,"Delta":174186596},{"NoteNumber":55,"Velocity":25,"Duration":192950,"SoundDuration":192950,"Delta":174443864},{"NoteNumber":58,"Velocity":25,"Duration":192950,"SoundDuration":192950,"Delta":174443864},{"NoteNumber":63,"Velocity":30,"Duration":192950,"SoundDuration":192950,"Delta":174443864},{"NoteNumber":49,"Velocity":36,"Duration":192950,"SoundDuration":192950,"Delta":174443864},{"NoteNumber":55,"Velocity":25,"Duration":192950,"SoundDuration":192950,"Delta":174701132},{"NoteNumber":58,"Velocity":25,"Duration":192950,"SoundDuration":192950,"Delta":174701132},{"NoteNumber":63,"Velocity":30,"Duration":192950,"SoundDuration":192950,"Delta":174701132},{"NoteNumber":47,"Velocity":32,"Duration":192950,"SoundDuration":192950,"Delta":174701132},{"NoteNumber":55,"Velocity":25,"Duration":192950,"SoundDuration":192950,"Delta":174958400},{"NoteNumber":58,"Velocity":25,"Duration":192950,"SoundDuration":192950,"Delta":174958400},{"NoteNumber":63,"Velocity":30,"Duration":192950,"SoundDuration":192950,"Delta":174958400},{"NoteNumber":46,"Velocity":32,"Duration":192950,"SoundDuration":192950,"Delta":174958400},{"NoteNumber":68,"Velocity":55,"Duration":800213,"SoundDuration":800213,"Delta":175215667},{"NoteNumber":59,"Velocity":26,"Duration":200053,"SoundDuration":200053,"Delta":175215667},{"NoteNumber":63,"Velocity":31,"Duration":200053,"SoundDuration":200053,"Delta":175215667},{"NoteNumber":44,"Velocity":36,"Duration":1600426,"SoundDuration":1600426,"Delta":175215667},{"NoteNumber":56,"Velocity":36,"Duration":1600426,"SoundDuration":1600426,"Delta":175215667},{"NoteNumber":59,"Velocity":26,"Duration":200053,"SoundDuration":200053,"Delta":175482405},{"NoteNumber":63,"Velocity":32,"Duration":200053,"SoundDuration":200053,"Delta":175482405},{"NoteNumber":59,"Velocity":27,"Duration":200053,"SoundDuration":200053,"Delta":175749143},{"NoteNumber":63,"Velocity":32,"Duration":200053,"SoundDuration":200053,"Delta":175749143},{"NoteNumber":71,"Velocity":56,"Duration":800213,"SoundDuration":800213,"Delta":176015881},{"NoteNumber":59,"Velocity":28,"Duration":200053,"SoundDuration":200053,"Delta":176015881},{"NoteNumber":63,"Velocity":34,"Duration":200053,"SoundDuration":200053,"Delta":176015881},{"NoteNumber":59,"Velocity":30,"Duration":200053,"SoundDuration":200053,"Delta":176282619},{"NoteNumber":63,"Velocity":36,"Duration":200053,"SoundDuration":200053,"Delta":176282619},{"NoteNumber":59,"Velocity":31,"Duration":200053,"SoundDuration":200053,"Delta":176549357},{"NoteNumber":63,"Velocity":37,"Duration":200053,"SoundDuration":200053,"Delta":176549357},{"NoteNumber":70,"Velocity":61,"Duration":800213,"SoundDuration":800213,"Delta":176816094},{"NoteNumber":59,"Velocity":33,"Duration":200053,"SoundDuration":200053,"Delta":176816094},{"NoteNumber":63,"Velocity":39,"Duration":200053,"SoundDuration":200053,"Delta":176816094},{"NoteNumber":59,"Velocity":33,"Duration":200053,"SoundDuration":200053,"Delta":177082832},{"NoteNumber":63,"Velocity":39,"Duration":200053,"SoundDuration":200053,"Delta":177082832},{"NoteNumber":59,"Velocity":33,"Duration":200053,"SoundDuration":200053,"Delta":177349570},{"NoteNumber":63,"Velocity":40,"Duration":200053,"SoundDuration":200053,"Delta":177349570},{"NoteNumber":68,"Velocity":65,"Duration":800213,"SoundDuration":800213,"Delta":177616308},{"NoteNumber":59,"Velocity":35,"Duration":200053,"SoundDuration":200053,"Delta":177616308},{"NoteNumber":63,"Velocity":42,"Duration":200053,"SoundDuration":200053,"Delta":177616308},{"NoteNumber":59,"Velocity":35,"Duration":200053,"SoundDuration":200053,"Delta":177883046},{"NoteNumber":63,"Velocity":42,"Duration":200053,"SoundDuration":200053,"Delta":177883046},{"NoteNumber":59,"Velocity":37,"Duration":200053,"SoundDuration":200053,"Delta":178149784},{"NoteNumber":63,"Velocity":44,"Duration":200053,"SoundDuration":200053,"Delta":178149784},{"NoteNumber":66,"Velocity":73,"Duration":801281,"SoundDuration":801281,"Delta":178416521},{"NoteNumber":78,"Velocity":86,"Duration":1072137,"SoundDuration":1072137,"Delta":178416521},{"NoteNumber":45,"Velocity":45,"Duration":200320,"SoundDuration":200320,"Delta":178416521},{"NoteNumber":47,"Velocity":50,"Duration":200320,"SoundDuration":200320,"Delta":178416521},{"NoteNumber":51,"Velocity":54,"Duration":200320,"SoundDuration":200320,"Delta":178416521},{"NoteNumber":54,"Velocity":64,"Duration":200320,"SoundDuration":200320,"Delta":178416521},{"NoteNumber":45,"Velocity":42,"Duration":200320,"SoundDuration":200320,"Delta":178683615},{"NoteNumber":47,"Velocity":50,"Duration":200320,"SoundDuration":200320,"Delta":178683615},{"NoteNumber":51,"Velocity":50,"Duration":200320,"SoundDuration":200320,"Delta":178683615},{"NoteNumber":54,"Velocity":60,"Duration":200320,"SoundDuration":200320,"Delta":178683615},{"NoteNumber":45,"Velocity":42,"Duration":200320,"SoundDuration":200320,"Delta":178950709},{"NoteNumber":47,"Velocity":50,"Duration":200320,"SoundDuration":200320,"Delta":178950709},{"NoteNumber":51,"Velocity":50,"Duration":200320,"SoundDuration":200320,"Delta":178950709},{"NoteNumber":54,"Velocity":60,"Duration":200320,"SoundDuration":200320,"Delta":178950709},{"NoteNumber":45,"Velocity":42,"Duration":203141,"SoundDuration":203141,"Delta":179217803},{"NoteNumber":47,"Velocity":50,"Duration":203141,"SoundDuration":203141,"Delta":179217803},{"NoteNumber":51,"Velocity":50,"Duration":203141,"SoundDuration":203141,"Delta":179217803},{"NoteNumber":54,"Velocity":60,"Duration":203141,"SoundDuration":203141,"Delta":179217803},{"NoteNumber":75,"Velocity":85,"Duration":270855,"SoundDuration":270855,"Delta":179488659},{"NoteNumber":45,"Velocity":42,"Duration":203141,"SoundDuration":203141,"Delta":179488659},{"NoteNumber":47,"Velocity":50,"Duration":203141,"SoundDuration":203141,"Delta":179488659},{"NoteNumber":51,"Velocity":50,"Duration":203141,"SoundDuration":203141,"Delta":179488659},{"NoteNumber":54,"Velocity":60,"Duration":203141,"SoundDuration":203141,"Delta":179488659},{"NoteNumber":71,"Velocity":85,"Duration":270855,"SoundDuration":270855,"Delta":179759515},{"NoteNumber":45,"Velocity":42,"Duration":203141,"SoundDuration":203141,"Delta":179759515},{"NoteNumber":47,"Velocity":50,"Duration":203141,"SoundDuration":203141,"Delta":179759515},{"NoteNumber":51,"Velocity":50,"Duration":203141,"SoundDuration":203141,"Delta":179759515},{"NoteNumber":54,"Velocity":60,"Duration":203141,"SoundDuration":203141,"Delta":179759515},{"NoteNumber":71,"Velocity":81,"Duration":799360,"SoundDuration":799360,"Delta":180030371},{"NoteNumber":83,"Velocity":96,"Duration":1071025,"SoundDuration":1071025,"Delta":180030371},{"NoteNumber":44,"Velocity":46,"Duration":199840,"SoundDuration":199840,"Delta":180030371},{"NoteNumber":47,"Velocity":55,"Duration":199840,"SoundDuration":199840,"Delta":180030371},{"NoteNumber":52,"Velocity":55,"Duration":199840,"SoundDuration":199840,"Delta":180030371},{"NoteNumber":56,"Velocity":66,"Duration":199840,"SoundDuration":199840,"Delta":180030371},{"NoteNumber":44,"Velocity":42,"Duration":199840,"SoundDuration":199840,"Delta":180296824},{"NoteNumber":47,"Velocity":50,"Duration":199840,"SoundDuration":199840,"Delta":180296824},{"NoteNumber":52,"Velocity":50,"Duration":199840,"SoundDuration":199840,"Delta":180296824},{"NoteNumber":56,"Velocity":60,"Duration":199840,"SoundDuration":199840,"Delta":180296824},{"NoteNumber":44,"Velocity":42,"Duration":199840,"SoundDuration":199840,"Delta":180563278},{"NoteNumber":47,"Velocity":50,"Duration":199840,"SoundDuration":199840,"Delta":180563278},{"NoteNumber":52,"Velocity":50,"Duration":199840,"SoundDuration":199840,"Delta":180563278},{"NoteNumber":56,"Velocity":60,"Duration":199840,"SoundDuration":199840,"Delta":180563278},{"NoteNumber":44,"Velocity":42,"Duration":203748,"SoundDuration":203748,"Delta":180829731},{"NoteNumber":47,"Velocity":50,"Duration":203748,"SoundDuration":203748,"Delta":180829731},{"NoteNumber":52,"Velocity":50,"Duration":203748,"SoundDuration":203748,"Delta":180829731},{"NoteNumber":56,"Velocity":60,"Duration":203748,"SoundDuration":203748,"Delta":180829731},{"NoteNumber":80,"Velocity":93,"Duration":271665,"SoundDuration":271665,"Delta":181101397},{"NoteNumber":44,"Velocity":42,"Duration":203748,"SoundDuration":203748,"Delta":181101397},{"NoteNumber":47,"Velocity":49,"Duration":203748,"SoundDuration":203748,"Delta":181101397},{"NoteNumber":52,"Velocity":49,"Duration":203748,"SoundDuration":203748,"Delta":181101397},{"NoteNumber":56,"Velocity":58,"Duration":203748,"SoundDuration":203748,"Delta":181101397},{"NoteNumber":76,"Velocity":93,"Duration":271665,"SoundDuration":271665,"Delta":181373062},{"NoteNumber":44,"Velocity":42,"Duration":203749,"SoundDuration":203749,"Delta":181373062},{"NoteNumber":47,"Velocity":49,"Duration":203749,"SoundDuration":203749,"Delta":181373062},{"NoteNumber":52,"Velocity":49,"Duration":203749,"SoundDuration":203749,"Delta":181373062},{"NoteNumber":56,"Velocity":58,"Duration":203749,"SoundDuration":203749,"Delta":181373062},{"NoteNumber":76,"Velocity":88,"Duration":799360,"SoundDuration":799360,"Delta":181644727},{"NoteNumber":88,"Velocity":104,"Duration":1071025,"SoundDuration":1071025,"Delta":181644727},{"NoteNumber":49,"Velocity":46,"Duration":199840,"SoundDuration":199840,"Delta":181644727},{"NoteNumber":52,"Velocity":55,"Duration":199840,"SoundDuration":199840,"Delta":181644727},{"NoteNumber":54,"Velocity":55,"Duration":199840,"SoundDuration":199840,"Delta":181644727},{"NoteNumber":58,"Velocity":66,"Duration":199840,"SoundDuration":199840,"Delta":181644727},{"NoteNumber":49,"Velocity":40,"Duration":199840,"SoundDuration":199840,"Delta":181911181},{"NoteNumber":52,"Velocity":48,"Duration":199840,"SoundDuration":199840,"Delta":181911181},{"NoteNumber":54,"Velocity":48,"Duration":199840,"SoundDuration":199840,"Delta":181911181},{"NoteNumber":58,"Velocity":57,"Duration":199840,"SoundDuration":199840,"Delta":181911181},{"NoteNumber":49,"Velocity":40,"Duration":199840,"SoundDuration":199840,"Delta":182177634},{"NoteNumber":52,"Velocity":48,"Duration":199840,"SoundDuration":199840,"Delta":182177634},{"NoteNumber":54,"Velocity":48,"Duration":199840,"SoundDuration":199840,"Delta":182177634},{"NoteNumber":58,"Velocity":57,"Duration":199840,"SoundDuration":199840,"Delta":182177634},{"NoteNumber":49,"Velocity":40,"Duration":203748,"SoundDuration":203748,"Delta":182444088},{"NoteNumber":52,"Velocity":48,"Duration":203748,"SoundDuration":203748,"Delta":182444088},{"NoteNumber":54,"Velocity":48,"Duration":203748,"SoundDuration":203748,"Delta":182444088},{"NoteNumber":58,"Velocity":57,"Duration":203748,"SoundDuration":203748,"Delta":182444088},{"NoteNumber":85,"Velocity":92,"Duration":271665,"SoundDuration":271665,"Delta":182715753},{"NoteNumber":49,"Velocity":40,"Duration":203748,"SoundDuration":203748,"Delta":182715753},{"NoteNumber":52,"Velocity":48,"Duration":203748,"SoundDuration":203748,"Delta":182715753},{"NoteNumber":54,"Velocity":48,"Duration":203748,"SoundDuration":203748,"Delta":182715753},{"NoteNumber":58,"Velocity":57,"Duration":203748,"SoundDuration":203748,"Delta":182715753},{"NoteNumber":82,"Velocity":92,"Duration":271665,"SoundDuration":271665,"Delta":182987419},{"NoteNumber":49,"Velocity":40,"Duration":203749,"SoundDuration":203749,"Delta":182987419},{"NoteNumber":52,"Velocity":48,"Duration":203749,"SoundDuration":203749,"Delta":182987419},{"NoteNumber":54,"Velocity":48,"Duration":203749,"SoundDuration":203749,"Delta":182987419},{"NoteNumber":58,"Velocity":57,"Duration":203749,"SoundDuration":203749,"Delta":182987419},{"NoteNumber":71,"Velocity":81,"Duration":407498,"SoundDuration":407498,"Delta":183259084},{"NoteNumber":83,"Velocity":96,"Duration":407498,"SoundDuration":407498,"Delta":183259084},{"NoteNumber":47,"Velocity":51,"Duration":203748,"SoundDuration":203748,"Delta":183259084},{"NoteNumber":52,"Velocity":61,"Duration":203748,"SoundDuration":203748,"Delta":183259084},{"NoteNumber":56,"Velocity":61,"Duration":203748,"SoundDuration":203748,"Delta":183259084},{"NoteNumber":59,"Velocity":73,"Duration":203748,"SoundDuration":203748,"Delta":183259084},{"NoteNumber":47,"Velocity":46,"Duration":203749,"SoundDuration":203749,"Delta":183530749},{"NoteNumber":52,"Velocity":55,"Duration":203749,"SoundDuration":203749,"Delta":183530749},{"NoteNumber":56,"Velocity":55,"Duration":203749,"SoundDuration":203749,"Delta":183530749},{"NoteNumber":59,"Velocity":66,"Duration":203749,"SoundDuration":203749,"Delta":183530749},{"NoteNumber":47,"Velocity":46,"Duration":203748,"SoundDuration":203748,"Delta":183802415},{"NoteNumber":52,"Velocity":55,"Duration":203748,"SoundDuration":203748,"Delta":183802415},{"NoteNumber":56,"Velocity":55,"Duration":203748,"SoundDuration":203748,"Delta":183802415},{"NoteNumber":59,"Velocity":66,"Duration":203748,"SoundDuration":203748,"Delta":183802415},{"NoteNumber":54,"Velocity":73,"Duration":407498,"SoundDuration":407498,"Delta":184074080},{"NoteNumber":57,"Velocity":73,"Duration":407498,"SoundDuration":407498,"Delta":184074080},{"NoteNumber":59,"Velocity":86,"Duration":407498,"SoundDuration":407498,"Delta":184074080},{"NoteNumber":63,"Velocity":86,"Duration":407498,"SoundDuration":407498,"Delta":184074080},{"NoteNumber":35,"Velocity":55,"Duration":203749,"SoundDuration":203749,"Delta":184074080},{"NoteNumber":47,"Velocity":66,"Duration":203749,"SoundDuration":203749,"Delta":184074080},{"NoteNumber":35,"Velocity":55,"Duration":203748,"SoundDuration":203748,"Delta":184345745},{"NoteNumber":47,"Velocity":66,"Duration":203748,"SoundDuration":203748,"Delta":184345745},{"NoteNumber":35,"Velocity":55,"Duration":203748,"SoundDuration":203748,"Delta":184617411},{"NoteNumber":47,"Velocity":66,"Duration":203748,"SoundDuration":203748,"Delta":184617411},{"NoteNumber":64,"Velocity":86,"Duration":405260,"SoundDuration":405260,"Delta":184889076},{"NoteNumber":56,"Velocity":58,"Duration":202812,"SoundDuration":202812,"Delta":184889076},{"NoteNumber":59,"Velocity":58,"Duration":202812,"SoundDuration":202812,"Delta":184889076},{"NoteNumber":40,"Velocity":55,"Duration":809430,"SoundDuration":809430,"Delta":184889076},{"NoteNumber":52,"Velocity":55,"Duration":809430,"SoundDuration":809430,"Delta":184889076},{"NoteNumber":56,"Velocity":35,"Duration":202084,"SoundDuration":202084,"Delta":185159492},{"NoteNumber":59,"Velocity":35,"Duration":202084,"SoundDuration":202084,"Delta":185159492},{"NoteNumber":56,"Velocity":35,"Duration":202085,"SoundDuration":202085,"Delta":185428817},{"NoteNumber":59,"Velocity":35,"Duration":202085,"SoundDuration":202085,"Delta":185428817},{"NoteNumber":56,"Velocity":35,"Duration":204100,"SoundDuration":204100,"Delta":185698506},{"NoteNumber":59,"Velocity":35,"Duration":204100,"SoundDuration":204100,"Delta":185698506},{"NoteNumber":56,"Velocity":35,"Duration":203730,"SoundDuration":203730,"Delta":185970764},{"NoteNumber":59,"Velocity":35,"Duration":203730,"SoundDuration":203730,"Delta":185970764},{"NoteNumber":56,"Velocity":35,"Duration":202812,"SoundDuration":202812,"Delta":186242282},{"NoteNumber":59,"Velocity":35,"Duration":202812,"SoundDuration":202812,"Delta":186242282},{"NoteNumber":56,"Velocity":33,"Duration":201721,"SoundDuration":201721,"Delta":186512698},{"NoteNumber":59,"Velocity":33,"Duration":201721,"SoundDuration":201721,"Delta":186512698},{"NoteNumber":56,"Velocity":33,"Duration":201721,"SoundDuration":201721,"Delta":186781660},{"NoteNumber":59,"Velocity":33,"Duration":201721,"SoundDuration":201721,"Delta":186781660},{"NoteNumber":56,"Velocity":32,"Duration":203179,"SoundDuration":203179,"Delta":187050622},{"NoteNumber":59,"Velocity":32,"Duration":203179,"SoundDuration":203179,"Delta":187050622},{"NoteNumber":56,"Velocity":31,"Duration":204471,"SoundDuration":204471,"Delta":187321774},{"NoteNumber":59,"Velocity":31,"Duration":204471,"SoundDuration":204471,"Delta":187321774},{"NoteNumber":56,"Velocity":30,"Duration":203547,"SoundDuration":203547,"Delta":187594402},{"NoteNumber":59,"Velocity":30,"Duration":203547,"SoundDuration":203547,"Delta":187594402},{"NoteNumber":56,"Velocity":29,"Duration":202812,"SoundDuration":202812,"Delta":187865554},{"NoteNumber":59,"Velocity":29,"Duration":202812,"SoundDuration":202812,"Delta":187865554},{"NoteNumber":64,"Velocity":50,"Duration":823045,"SoundDuration":823045,"Delta":188135970},{"NoteNumber":56,"Velocity":24,"Duration":205761,"SoundDuration":205761,"Delta":188135970},{"NoteNumber":59,"Velocity":29,"Duration":205761,"SoundDuration":205761,"Delta":188135970},{"NoteNumber":40,"Velocity":33,"Duration":1646091,"SoundDuration":1646091,"Delta":188135970},{"NoteNumber":52,"Velocity":33,"Duration":1646091,"SoundDuration":1646091,"Delta":188135970},{"NoteNumber":56,"Velocity":24,"Duration":205761,"SoundDuration":205761,"Delta":188410319},{"NoteNumber":59,"Velocity":29,"Duration":205761,"SoundDuration":205761,"Delta":188410319},{"NoteNumber":56,"Velocity":24,"Duration":205761,"SoundDuration":205761,"Delta":188684667},{"NoteNumber":59,"Velocity":29,"Duration":205761,"SoundDuration":205761,"Delta":188684667},{"NoteNumber":68,"Velocity":47,"Duration":823045,"SoundDuration":823045,"Delta":188959016},{"NoteNumber":56,"Velocity":24,"Duration":205761,"SoundDuration":205761,"Delta":188959016},{"NoteNumber":59,"Velocity":29,"Duration":205761,"SoundDuration":205761,"Delta":188959016},{"NoteNumber":56,"Velocity":25,"Duration":205761,"SoundDuration":205761,"Delta":189233364},{"NoteNumber":59,"Velocity":30,"Duration":205761,"SoundDuration":205761,"Delta":189233364},{"NoteNumber":56,"Velocity":25,"Duration":205761,"SoundDuration":205761,"Delta":189507713},{"NoteNumber":59,"Velocity":30,"Duration":205761,"SoundDuration":205761,"Delta":189507713},{"NoteNumber":66,"Velocity":47,"Duration":800213,"SoundDuration":800213,"Delta":189782061},{"NoteNumber":56,"Velocity":25,"Duration":200053,"SoundDuration":200053,"Delta":189782061},{"NoteNumber":59,"Velocity":30,"Duration":200053,"SoundDuration":200053,"Delta":189782061},{"NoteNumber":56,"Velocity":25,"Duration":200053,"SoundDuration":200053,"Delta":190048799},{"NoteNumber":59,"Velocity":30,"Duration":200053,"SoundDuration":200053,"Delta":190048799},{"NoteNumber":56,"Velocity":25,"Duration":200053,"SoundDuration":200053,"Delta":190315537},{"NoteNumber":59,"Velocity":30,"Duration":200053,"SoundDuration":200053,"Delta":190315537},{"NoteNumber":64,"Velocity":46,"Duration":800213,"SoundDuration":800213,"Delta":190582275},{"NoteNumber":56,"Velocity":25,"Duration":200053,"SoundDuration":200053,"Delta":190582275},{"NoteNumber":59,"Velocity":30,"Duration":200053,"SoundDuration":200053,"Delta":190582275},{"NoteNumber":56,"Velocity":25,"Duration":200053,"SoundDuration":200053,"Delta":190849012},{"NoteNumber":59,"Velocity":30,"Duration":200053,"SoundDuration":200053,"Delta":190849012},{"NoteNumber":56,"Velocity":25,"Duration":200053,"SoundDuration":200053,"Delta":191115750},{"NoteNumber":59,"Velocity":30,"Duration":200053,"SoundDuration":200053,"Delta":191115750},{"NoteNumber":63,"Velocity":51,"Duration":800213,"SoundDuration":800213,"Delta":191382488},{"NoteNumber":57,"Velocity":25,"Duration":200053,"SoundDuration":200053,"Delta":191382488},{"NoteNumber":59,"Velocity":30,"Duration":200053,"SoundDuration":200053,"Delta":191382488},{"NoteNumber":54,"Velocity":36,"Duration":1061310,"SoundDuration":1061310,"Delta":191382488},{"NoteNumber":57,"Velocity":25,"Duration":200053,"SoundDuration":200053,"Delta":191649226},{"NoteNumber":59,"Velocity":30,"Duration":200053,"SoundDuration":200053,"Delta":191649226},{"NoteNumber":57,"Velocity":25,"Duration":200053,"SoundDuration":200053,"Delta":191915964},{"NoteNumber":59,"Velocity":30,"Duration":200053,"SoundDuration":200053,"Delta":191915964},{"NoteNumber":69,"Velocity":47,"Duration":783289,"SoundDuration":783289,"Delta":192182702},{"NoteNumber":57,"Velocity":25,"Duration":195822,"SoundDuration":195822,"Delta":192182702},{"NoteNumber":59,"Velocity":30,"Duration":195822,"SoundDuration":195822,"Delta":192182702},{"NoteNumber":57,"Velocity":25,"Duration":195822,"SoundDuration":195822,"Delta":192443798},{"NoteNumber":59,"Velocity":30,"Duration":195822,"SoundDuration":195822,"Delta":192443798},{"NoteNumber":54,"Velocity":36,"Duration":261096,"SoundDuration":261096,"Delta":192443798},{"NoteNumber":57,"Velocity":25,"Duration":195822,"SoundDuration":195822,"Delta":192704895},{"NoteNumber":59,"Velocity":30,"Duration":195822,"SoundDuration":195822,"Delta":192704895},{"NoteNumber":53,"Velocity":36,"Duration":261096,"SoundDuration":261096,"Delta":192704895},{"NoteNumber":57,"Velocity":25,"Duration":195822,"SoundDuration":195822,"Delta":192965992},{"NoteNumber":59,"Velocity":30,"Duration":195822,"SoundDuration":195822,"Delta":192965992},{"NoteNumber":54,"Velocity":36,"Duration":195822,"SoundDuration":195822,"Delta":192965992},{"NoteNumber":57,"Velocity":25,"Duration":192950,"SoundDuration":192950,"Delta":193226131},{"NoteNumber":59,"Velocity":30,"Duration":192950,"SoundDuration":192950,"Delta":193226131},{"NoteNumber":54,"Velocity":36,"Duration":192950,"SoundDuration":192950,"Delta":193226131},{"NoteNumber":57,"Velocity":25,"Duration":192950,"SoundDuration":192950,"Delta":193483399},{"NoteNumber":59,"Velocity":30,"Duration":192950,"SoundDuration":192950,"Delta":193483399},{"NoteNumber":52,"Velocity":33,"Duration":192950,"SoundDuration":192950,"Delta":193483399},{"NoteNumber":57,"Velocity":25,"Duration":192950,"SoundDuration":192950,"Delta":193740667},{"NoteNumber":59,"Velocity":30,"Duration":192950,"SoundDuration":192950,"Delta":193740667},{"NoteNumber":51,"Velocity":36,"Duration":192950,"SoundDuration":192950,"Delta":193740667},{"NoteNumber":57,"Velocity":25,"Duration":192950,"SoundDuration":192950,"Delta":193997935},{"NoteNumber":59,"Velocity":30,"Duration":192950,"SoundDuration":192950,"Delta":193997935},{"NoteNumber":49,"Velocity":32,"Duration":192950,"SoundDuration":192950,"Delta":193997935},{"NoteNumber":57,"Velocity":25,"Duration":192950,"SoundDuration":192950,"Delta":194255202},{"NoteNumber":59,"Velocity":30,"Duration":192950,"SoundDuration":192950,"Delta":194255202},{"NoteNumber":47,"Velocity":32,"Duration":192950,"SoundDuration":192950,"Delta":194255202},{"NoteNumber":64,"Velocity":50,"Duration":823045,"SoundDuration":823045,"Delta":194512470},{"NoteNumber":56,"Velocity":24,"Duration":205761,"SoundDuration":205761,"Delta":194512470},{"NoteNumber":59,"Velocity":29,"Duration":205761,"SoundDuration":205761,"Delta":194512470},{"NoteNumber":52,"Velocity":33,"Duration":1646091,"SoundDuration":1646091,"Delta":194512470},{"NoteNumber":56,"Velocity":24,"Duration":205761,"SoundDuration":205761,"Delta":194786819},{"NoteNumber":59,"Velocity":29,"Duration":205761,"SoundDuration":205761,"Delta":194786819},{"NoteNumber":56,"Velocity":24,"Duration":205761,"SoundDuration":205761,"Delta":195061167},{"NoteNumber":59,"Velocity":29,"Duration":205761,"SoundDuration":205761,"Delta":195061167},{"NoteNumber":68,"Velocity":47,"Duration":823045,"SoundDuration":823045,"Delta":195335516},{"NoteNumber":56,"Velocity":24,"Duration":205761,"SoundDuration":205761,"Delta":195335516},{"NoteNumber":59,"Velocity":29,"Duration":205761,"SoundDuration":205761,"Delta":195335516},{"NoteNumber":56,"Velocity":25,"Duration":205761,"SoundDuration":205761,"Delta":195609864},{"NoteNumber":59,"Velocity":30,"Duration":205761,"SoundDuration":205761,"Delta":195609864},{"NoteNumber":56,"Velocity":25,"Duration":205761,"SoundDuration":205761,"Delta":195884213},{"NoteNumber":59,"Velocity":30,"Duration":205761,"SoundDuration":205761,"Delta":195884213},{"NoteNumber":64,"Velocity":47,"Duration":800213,"SoundDuration":800213,"Delta":196158561},{"NoteNumber":56,"Velocity":25,"Duration":200053,"SoundDuration":200053,"Delta":196158561},{"NoteNumber":59,"Velocity":30,"Duration":200053,"SoundDuration":200053,"Delta":196158561},{"NoteNumber":56,"Velocity":25,"Duration":200053,"SoundDuration":200053,"Delta":196425299},{"NoteNumber":59,"Velocity":30,"Duration":200053,"SoundDuration":200053,"Delta":196425299},{"NoteNumber":56,"Velocity":25,"Duration":200053,"SoundDuration":200053,"Delta":196692037},{"NoteNumber":59,"Velocity":30,"Duration":200053,"SoundDuration":200053,"Delta":196692037},{"NoteNumber":63,"Velocity":46,"Duration":800213,"SoundDuration":800213,"Delta":196958775},{"NoteNumber":56,"Velocity":25,"Duration":200053,"SoundDuration":200053,"Delta":196958775},{"NoteNumber":59,"Velocity":30,"Duration":200053,"SoundDuration":200053,"Delta":196958775},{"NoteNumber":56,"Velocity":25,"Duration":200053,"SoundDuration":200053,"Delta":197225513},{"NoteNumber":59,"Velocity":30,"Duration":200053,"SoundDuration":200053,"Delta":197225513},{"NoteNumber":56,"Velocity":25,"Duration":200053,"SoundDuration":200053,"Delta":197492250},{"NoteNumber":59,"Velocity":30,"Duration":200053,"SoundDuration":200053,"Delta":197492250},{"NoteNumber":62,"Velocity":54,"Duration":2449847,"SoundDuration":2449847,"Delta":197758988},{"NoteNumber":50,"Velocity":24,"Duration":206043,"SoundDuration":206043,"Delta":197758988},{"NoteNumber":56,"Velocity":24,"Duration":206043,"SoundDuration":206043,"Delta":197758988},{"NoteNumber":59,"Velocity":29,"Duration":206043,"SoundDuration":206043,"Delta":197758988},{"NoteNumber":50,"Velocity":24,"Duration":206044,"SoundDuration":206044,"Delta":198033714},{"NoteNumber":56,"Velocity":24,"Duration":206044,"SoundDuration":206044,"Delta":198033714},{"NoteNumber":59,"Velocity":29,"Duration":206044,"SoundDuration":206044,"Delta":198033714},{"NoteNumber":29,"Velocity":41,"Duration":137362,"SoundDuration":137362,"Delta":198033714},{"NoteNumber":50,"Velocity":24,"Duration":206043,"SoundDuration":206043,"Delta":198308439},{"NoteNumber":56,"Velocity":24,"Duration":206043,"SoundDuration":206043,"Delta":198308439},{"NoteNumber":59,"Velocity":29,"Duration":206043,"SoundDuration":206043,"Delta":198308439},{"NoteNumber":32,"Velocity":44,"Duration":137362,"SoundDuration":137362,"Delta":198308439},{"NoteNumber":50,"Velocity":24,"Duration":206044,"SoundDuration":206044,"Delta":198583164},{"NoteNumber":56,"Velocity":24,"Duration":206044,"SoundDuration":206044,"Delta":198583164},{"NoteNumber":59,"Velocity":29,"Duration":206044,"SoundDuration":206044,"Delta":198583164},{"NoteNumber":35,"Velocity":46,"Duration":137362,"SoundDuration":137362,"Delta":198583164},{"NoteNumber":50,"Velocity":24,"Duration":206043,"SoundDuration":206043,"Delta":198857890},{"NoteNumber":56,"Velocity":25,"Duration":206043,"SoundDuration":206043,"Delta":198857890},{"NoteNumber":59,"Velocity":30,"Duration":206043,"SoundDuration":206043,"Delta":198857890},{"NoteNumber":38,"Velocity":47,"Duration":137362,"SoundDuration":137362,"Delta":198857890},{"NoteNumber":50,"Velocity":24,"Duration":206043,"SoundDuration":206043,"Delta":199132615},{"NoteNumber":56,"Velocity":25,"Duration":206043,"SoundDuration":206043,"Delta":199132615},{"NoteNumber":59,"Velocity":30,"Duration":206043,"SoundDuration":206043,"Delta":199132615},{"NoteNumber":41,"Velocity":49,"Duration":137362,"SoundDuration":137362,"Delta":199132615},{"NoteNumber":50,"Velocity":24,"Duration":200374,"SoundDuration":200374,"Delta":199407340},{"NoteNumber":56,"Velocity":25,"Duration":200374,"SoundDuration":200374,"Delta":199407340},{"NoteNumber":59,"Velocity":30,"Duration":200374,"SoundDuration":200374,"Delta":199407340},{"NoteNumber":44,"Velocity":51,"Duration":801495,"SoundDuration":801495,"Delta":199407340},{"NoteNumber":50,"Velocity":24,"Duration":200373,"SoundDuration":200373,"Delta":199674506},{"NoteNumber":56,"Velocity":25,"Duration":200373,"SoundDuration":200373,"Delta":199674506},{"NoteNumber":59,"Velocity":30,"Duration":200373,"SoundDuration":200373,"Delta":199674506},{"NoteNumber":50,"Velocity":24,"Duration":200373,"SoundDuration":200373,"Delta":199941671},{"NoteNumber":56,"Velocity":25,"Duration":200373,"SoundDuration":200373,"Delta":199941671},{"NoteNumber":59,"Velocity":30,"Duration":200373,"SoundDuration":200373,"Delta":199941671},{"NoteNumber":62,"Velocity":51,"Duration":821692,"SoundDuration":821692,"Delta":200208836},{"NoteNumber":50,"Velocity":24,"Duration":205423,"SoundDuration":205423,"Delta":200208836},{"NoteNumber":56,"Velocity":25,"Duration":205423,"SoundDuration":205423,"Delta":200208836},{"NoteNumber":59,"Velocity":30,"Duration":205423,"SoundDuration":205423,"Delta":200208836},{"NoteNumber":50,"Velocity":24,"Duration":205423,"SoundDuration":205423,"Delta":200482734},{"NoteNumber":56,"Velocity":25,"Duration":205423,"SoundDuration":205423,"Delta":200482734},{"NoteNumber":59,"Velocity":30,"Duration":205423,"SoundDuration":205423,"Delta":200482734},{"NoteNumber":50,"Velocity":24,"Duration":205423,"SoundDuration":205423,"Delta":200756631},{"NoteNumber":56,"Velocity":25,"Duration":205423,"SoundDuration":205423,"Delta":200756631},{"NoteNumber":59,"Velocity":30,"Duration":205423,"SoundDuration":205423,"Delta":200756631},{"NoteNumber":62,"Velocity":56,"Duration":2450185,"SoundDuration":2450185,"Delta":201030529},{"NoteNumber":50,"Velocity":25,"Duration":205817,"SoundDuration":205817,"Delta":201030529},{"NoteNumber":56,"Velocity":25,"Duration":205817,"SoundDuration":205817,"Delta":201030529},{"NoteNumber":59,"Velocity":30,"Duration":205817,"SoundDuration":205817,"Delta":201030529},{"NoteNumber":50,"Velocity":25,"Duration":205817,"SoundDuration":205817,"Delta":201304952},{"NoteNumber":56,"Velocity":25,"Duration":205817,"SoundDuration":205817,"Delta":201304952},{"NoteNumber":59,"Velocity":30,"Duration":205817,"SoundDuration":205817,"Delta":201304952},{"NoteNumber":29,"Velocity":42,"Duration":137211,"SoundDuration":137211,"Delta":201304952},{"NoteNumber":50,"Velocity":25,"Duration":205817,"SoundDuration":205817,"Delta":201579376},{"NoteNumber":56,"Velocity":25,"Duration":205817,"SoundDuration":205817,"Delta":201579376},{"NoteNumber":59,"Velocity":30,"Duration":205817,"SoundDuration":205817,"Delta":201579376},{"NoteNumber":32,"Velocity":46,"Duration":137211,"SoundDuration":137211,"Delta":201579376},{"NoteNumber":50,"Velocity":25,"Duration":205817,"SoundDuration":205817,"Delta":201853800},{"NoteNumber":56,"Velocity":25,"Duration":205817,"SoundDuration":205817,"Delta":201853800},{"NoteNumber":59,"Velocity":30,"Duration":205817,"SoundDuration":205817,"Delta":201853800},{"NoteNumber":35,"Velocity":48,"Duration":137211,"SoundDuration":137211,"Delta":201853800},{"NoteNumber":50,"Velocity":25,"Duration":205817,"SoundDuration":205817,"Delta":202128223},{"NoteNumber":56,"Velocity":26,"Duration":205817,"SoundDuration":205817,"Delta":202128223},{"NoteNumber":59,"Velocity":31,"Duration":205817,"SoundDuration":205817,"Delta":202128223},{"NoteNumber":38,"Velocity":49,"Duration":137211,"SoundDuration":137211,"Delta":202128223},{"NoteNumber":50,"Velocity":25,"Duration":205817,"SoundDuration":205817,"Delta":202402647},{"NoteNumber":56,"Velocity":26,"Duration":205817,"SoundDuration":205817,"Delta":202402647},{"NoteNumber":59,"Velocity":31,"Duration":205817,"SoundDuration":205817,"Delta":202402647},{"NoteNumber":41,"Velocity":51,"Duration":137211,"SoundDuration":137211,"Delta":202402647},{"NoteNumber":50,"Velocity":25,"Duration":200910,"SoundDuration":200910,"Delta":202677071},{"NoteNumber":56,"Velocity":26,"Duration":200910,"SoundDuration":200910,"Delta":202677071},{"NoteNumber":59,"Velocity":31,"Duration":200910,"SoundDuration":200910,"Delta":202677071},{"NoteNumber":44,"Velocity":53,"Duration":803642,"SoundDuration":803642,"Delta":202677071},{"NoteNumber":50,"Velocity":25,"Duration":200910,"SoundDuration":200910,"Delta":202944952},{"NoteNumber":56,"Velocity":26,"Duration":200910,"SoundDuration":200910,"Delta":202944952},{"NoteNumber":59,"Velocity":31,"Duration":200910,"SoundDuration":200910,"Delta":202944952},{"NoteNumber":50,"Velocity":25,"Duration":200910,"SoundDuration":200910,"Delta":203212833},{"NoteNumber":56,"Velocity":26,"Duration":200910,"SoundDuration":200910,"Delta":203212833},{"NoteNumber":59,"Velocity":31,"Duration":200910,"SoundDuration":200910,"Delta":203212833},{"NoteNumber":62,"Velocity":53,"Duration":821692,"SoundDuration":821692,"Delta":203480714},{"NoteNumber":50,"Velocity":25,"Duration":205423,"SoundDuration":205423,"Delta":203480714},{"NoteNumber":56,"Velocity":26,"Duration":205423,"SoundDuration":205423,"Delta":203480714},{"NoteNumber":59,"Velocity":31,"Duration":205423,"SoundDuration":205423,"Delta":203480714},{"NoteNumber":50,"Velocity":25,"Duration":205423,"SoundDuration":205423,"Delta":203754611},{"NoteNumber":56,"Velocity":26,"Duration":205423,"SoundDuration":205423,"Delta":203754611},{"NoteNumber":59,"Velocity":31,"Duration":205423,"SoundDuration":205423,"Delta":203754611},{"NoteNumber":50,"Velocity":25,"Duration":205423,"SoundDuration":205423,"Delta":204028509},{"NoteNumber":56,"Velocity":26,"Duration":205423,"SoundDuration":205423,"Delta":204028509},{"NoteNumber":59,"Velocity":31,"Duration":205423,"SoundDuration":205423,"Delta":204028509},{"NoteNumber":61,"Velocity":59,"Duration":2456323,"SoundDuration":2456323,"Delta":204302406},{"NoteNumber":49,"Velocity":26,"Duration":206043,"SoundDuration":206043,"Delta":204302406},{"NoteNumber":56,"Velocity":26,"Duration":206043,"SoundDuration":206043,"Delta":204302406},{"NoteNumber":58,"Velocity":31,"Duration":206043,"SoundDuration":206043,"Delta":204302406},{"NoteNumber":49,"Velocity":26,"Duration":206044,"SoundDuration":206044,"Delta":204577132},{"NoteNumber":56,"Velocity":26,"Duration":206044,"SoundDuration":206044,"Delta":204577132},{"NoteNumber":58,"Velocity":31,"Duration":206044,"SoundDuration":206044,"Delta":204577132},{"NoteNumber":40,"Velocity":45,"Duration":137362,"SoundDuration":137362,"Delta":204577132},{"NoteNumber":49,"Velocity":26,"Duration":206043,"SoundDuration":206043,"Delta":204851857},{"NoteNumber":56,"Velocity":26,"Duration":206043,"SoundDuration":206043,"Delta":204851857},{"NoteNumber":58,"Velocity":32,"Duration":206043,"SoundDuration":206043,"Delta":204851857},{"NoteNumber":44,"Velocity":48,"Duration":137362,"SoundDuration":137362,"Delta":204851857},{"NoteNumber":49,"Velocity":26,"Duration":206043,"SoundDuration":206043,"Delta":205126582},{"NoteNumber":56,"Velocity":26,"Duration":206043,"SoundDuration":206043,"Delta":205126582},{"NoteNumber":58,"Velocity":32,"Duration":206043,"SoundDuration":206043,"Delta":205126582},{"NoteNumber":46,"Velocity":51,"Duration":412088,"SoundDuration":412088,"Delta":205126582},{"NoteNumber":49,"Velocity":27,"Duration":206043,"SoundDuration":206043,"Delta":205401308},{"NoteNumber":56,"Velocity":28,"Duration":206043,"SoundDuration":206043,"Delta":205401308},{"NoteNumber":58,"Velocity":33,"Duration":206043,"SoundDuration":206043,"Delta":205401308},{"NoteNumber":49,"Velocity":27,"Duration":206043,"SoundDuration":206043,"Delta":205676033},{"NoteNumber":56,"Velocity":28,"Duration":206043,"SoundDuration":206043,"Delta":205676033},{"NoteNumber":58,"Velocity":34,"Duration":206043,"SoundDuration":206043,"Delta":205676033},{"NoteNumber":49,"Velocity":27,"Duration":201992,"SoundDuration":201992,"Delta":205950758},{"NoteNumber":55,"Velocity":28,"Duration":201992,"SoundDuration":201992,"Delta":205950758},{"NoteNumber":58,"Velocity":34,"Duration":201992,"SoundDuration":201992,"Delta":205950758},{"NoteNumber":49,"Velocity":27,"Duration":201992,"SoundDuration":201992,"Delta":206220082},{"NoteNumber":55,"Velocity":28,"Duration":201992,"SoundDuration":201992,"Delta":206220082},{"NoteNumber":58,"Velocity":34,"Duration":201992,"SoundDuration":201992,"Delta":206220082},{"NoteNumber":39,"Velocity":57,"Duration":134661,"SoundDuration":134661,"Delta":206220082},{"NoteNumber":49,"Velocity":27,"Duration":201993,"SoundDuration":201993,"Delta":206489406},{"NoteNumber":55,"Velocity":29,"Duration":201993,"SoundDuration":201993,"Delta":206489406},{"NoteNumber":58,"Velocity":34,"Duration":201993,"SoundDuration":201993,"Delta":206489406},{"NoteNumber":43,"Velocity":60,"Duration":134661,"SoundDuration":134661,"Delta":206489406},{"NoteNumber":61,"Velocity":72,"Duration":918504,"SoundDuration":918504,"Delta":206758730},{"NoteNumber":51,"Velocity":28,"Duration":209775,"SoundDuration":209775,"Delta":206758730},{"NoteNumber":49,"Velocity":23,"Duration":209775,"SoundDuration":209775,"Delta":206758730},{"NoteNumber":55,"Velocity":29,"Duration":209775,"SoundDuration":209775,"Delta":206758730},{"NoteNumber":58,"Velocity":35,"Duration":209775,"SoundDuration":209775,"Delta":206758730},{"NoteNumber":46,"Velocity":64,"Duration":423203,"SoundDuration":423203,"Delta":206758730},{"NoteNumber":51,"Velocity":28,"Duration":214887,"SoundDuration":214887,"Delta":207039228},{"NoteNumber":49,"Velocity":23,"Duration":214887,"SoundDuration":214887,"Delta":207039228},{"NoteNumber":55,"Velocity":29,"Duration":214887,"SoundDuration":214887,"Delta":207039228},{"NoteNumber":58,"Velocity":35,"Duration":214887,"SoundDuration":214887,"Delta":207039228},{"NoteNumber":51,"Velocity":28,"Duration":268528,"SoundDuration":268528,"Delta":207326716},{"NoteNumber":49,"Velocity":23,"Duration":268528,"SoundDuration":268528,"Delta":207326716},{"NoteNumber":55,"Velocity":29,"Duration":268528,"SoundDuration":268528,"Delta":207326716},{"NoteNumber":58,"Velocity":35,"Duration":268528,"SoundDuration":268528,"Delta":207326716},{"NoteNumber":60,"Velocity":50,"Duration":1830804,"SoundDuration":1830804,"Delta":207677235},{"NoteNumber":32,"Velocity":34,"Duration":1830804,"SoundDuration":1830804,"Delta":207677235},{"NoteNumber":44,"Velocity":40,"Duration":1830804,"SoundDuration":1830804,"Delta":207677235},{"NoteNumber":48,"Velocity":28,"Duration":302938,"SoundDuration":302938,"Delta":207677235},{"NoteNumber":51,"Velocity":26,"Duration":227203,"SoundDuration":227203,"Delta":207980173},{"NoteNumber":51,"Velocity":26,"Duration":227203,"SoundDuration":227203,"Delta":208283112},{"NoteNumber":56,"Velocity":28,"Duration":302938,"SoundDuration":302938,"Delta":208586050},{"NoteNumber":51,"Velocity":26,"Duration":229399,"SoundDuration":229399,"Delta":208888989},{"NoteNumber":51,"Velocity":26,"Duration":233790,"SoundDuration":233790,"Delta":209196318},{"NoteNumber":58,"Velocity":46,"Duration":1818012,"SoundDuration":1818012,"Delta":209508039},{"NoteNumber":49,"Velocity":35,"Duration":1818012,"SoundDuration":1818012,"Delta":209508039},{"NoteNumber":55,"Velocity":28,"Duration":308261,"SoundDuration":308261,"Delta":209508039},{"NoteNumber":51,"Velocity":26,"Duration":226699,"SoundDuration":226699,"Delta":209816300},{"NoteNumber":51,"Velocity":26,"Duration":217706,"SoundDuration":217706,"Delta":210115569},{"NoteNumber":55,"Velocity":28,"Duration":301750,"SoundDuration":301750,"Delta":210405845},{"NoteNumber":51,"Velocity":27,"Duration":228805,"SoundDuration":228805,"Delta":210707595},{"NoteNumber":51,"Velocity":27,"Duration":233790,"SoundDuration":233790,"Delta":211014330},{"NoteNumber":63,"Velocity":50,"Duration":2633540,"SoundDuration":2633540,"Delta":211326051},{"NoteNumber":48,"Velocity":40,"Duration":1765484,"SoundDuration":1765484,"Delta":211326051},{"NoteNumber":56,"Velocity":28,"Duration":302938,"SoundDuration":302938,"Delta":211326051},{"NoteNumber":51,"Velocity":26,"Duration":222836,"SoundDuration":222836,"Delta":211628989},{"NoteNumber":51,"Velocity":26,"Duration":214102,"SoundDuration":214102,"Delta":211923193},{"NoteNumber":56,"Velocity":28,"Duration":294290,"SoundDuration":294290,"Delta":212208663},{"NoteNumber":51,"Velocity":26,"Duration":220718,"SoundDuration":220718,"Delta":212502954},{"NoteNumber":51,"Velocity":26,"Duration":220718,"SoundDuration":220718,"Delta":212797245},{"NoteNumber":43,"Velocity":37,"Duration":1764475,"SoundDuration":1764475,"Delta":213091536},{"NoteNumber":58,"Velocity":28,"Duration":289351,"SoundDuration":289351,"Delta":213091536},{"NoteNumber":51,"Velocity":25,"Duration":217013,"SoundDuration":217013,"Delta":213380887},{"NoteNumber":51,"Velocity":25,"Duration":217013,"SoundDuration":217013,"Delta":213670239},{"NoteNumber":61,"Velocity":48,"Duration":896419,"SoundDuration":896419,"Delta":213959591},{"NoteNumber":58,"Velocity":25,"Duration":289351,"SoundDuration":289351,"Delta":213959591},{"NoteNumber":51,"Velocity":25,"Duration":221741,"SoundDuration":221741,"Delta":214248943},{"NoteNumber":51,"Velocity":25,"Duration":231195,"SoundDuration":231195,"Delta":214547749},{"NoteNumber":60,"Velocity":47,"Duration":882612,"SoundDuration":882612,"Delta":214856011},{"NoteNumber":44,"Velocity":33,"Duration":882612,"SoundDuration":882612,"Delta":214856011},{"NoteNumber":56,"Velocity":29,"Duration":302938,"SoundDuration":302938,"Delta":214856011},{"NoteNumber":51,"Velocity":27,"Duration":222836,"SoundDuration":222836,"Delta":215158949},{"NoteNumber":51,"Velocity":27,"Duration":214102,"SoundDuration":214102,"Delta":215453153},{"NoteNumber":63,"Velocity":49,"Duration":880023,"SoundDuration":880023,"Delta":215738623},{"NoteNumber":43,"Velocity":35,"Duration":880023,"SoundDuration":880023,"Delta":215738623},{"NoteNumber":58,"Velocity":26,"Duration":293341,"SoundDuration":293341,"Delta":215738623},{"NoteNumber":51,"Velocity":26,"Duration":220005,"SoundDuration":220005,"Delta":216031964},{"NoteNumber":51,"Velocity":26,"Duration":220005,"SoundDuration":220005,"Delta":216325305},{"NoteNumber":68,"Velocity":51,"Duration":903688,"SoundDuration":903688,"Delta":216618647},{"NoteNumber":41,"Velocity":38,"Duration":903688,"SoundDuration":903688,"Delta":216618647},{"NoteNumber":60,"Velocity":30,"Duration":298507,"SoundDuration":298507,"Delta":216618647},{"NoteNumber":56,"Velocity":27,"Duration":225241,"SoundDuration":225241,"Delta":216917154},{"NoteNumber":56,"Velocity":27,"Duration":227963,"SoundDuration":227963,"Delta":217218383},{"NoteNumber":70,"Velocity":56,"Duration":942180,"SoundDuration":942180,"Delta":217522335},{"NoteNumber":53,"Velocity":40,"Duration":942180,"SoundDuration":942180,"Delta":217522335},{"NoteNumber":62,"Velocity":27,"Duration":310559,"SoundDuration":310559,"Delta":217522335},{"NoteNumber":56,"Velocity":27,"Duration":234669,"SoundDuration":234669,"Delta":217832894},{"NoteNumber":56,"Velocity":25,"Duration":238170,"SoundDuration":238170,"Delta":218146954},{"NoteNumber":63,"Velocity":50,"Duration":2644480,"SoundDuration":2644480,"Delta":218464515},{"NoteNumber":51,"Velocity":36,"Duration":1765872,"SoundDuration":1765872,"Delta":218464515},{"NoteNumber":55,"Velocity":28,"Duration":302938,"SoundDuration":302938,"Delta":218464515},{"NoteNumber":58,"Velocity":27,"Duration":225829,"SoundDuration":225829,"Delta":218767454},{"NoteNumber":58,"Velocity":27,"Duration":223081,"SoundDuration":223081,"Delta":219067644},{"NoteNumber":55,"Velocity":23,"Duration":288433,"SoundDuration":288433,"Delta":219365086},{"NoteNumber":58,"Velocity":23,"Duration":216325,"SoundDuration":216325,"Delta":219653520},{"NoteNumber":58,"Velocity":23,"Duration":216325,"SoundDuration":216325,"Delta":219941953},{"NoteNumber":39,"Velocity":35,"Duration":1815683,"SoundDuration":1815683,"Delta":220230387},{"NoteNumber":55,"Velocity":28,"Duration":292397,"SoundDuration":292397,"Delta":220230387},{"NoteNumber":58,"Velocity":26,"Duration":219534,"SoundDuration":219534,"Delta":220522785},{"NoteNumber":58,"Velocity":26,"Duration":220005,"SoundDuration":220005,"Delta":220815654},{"NoteNumber":64,"Velocity":46,"Duration":937075,"SoundDuration":937075,"Delta":221108996},{"NoteNumber":55,"Velocity":25,"Duration":308261,"SoundDuration":308261,"Delta":221108996},{"NoteNumber":58,"Velocity":25,"Duration":233244,"SoundDuration":233244,"Delta":221417257},{"NoteNumber":58,"Velocity":25,"Duration":237341,"SoundDuration":237341,"Delta":221729615},{"NoteNumber":65,"Velocity":50,"Duration":1790046,"SoundDuration":1790046,"Delta":222046071},{"NoteNumber":37,"Velocity":40,"Duration":1790046,"SoundDuration":1790046,"Delta":222046071},{"NoteNumber":55,"Velocity":28,"Duration":302938,"SoundDuration":302938,"Delta":222046071},{"NoteNumber":58,"Velocity":25,"Duration":222572,"SoundDuration":222572,"Delta":222349010},{"NoteNumber":58,"Velocity":25,"Duration":213310,"SoundDuration":213310,"Delta":222642686},{"NoteNumber":55,"Velocity":26,"Duration":294290,"SoundDuration":294290,"Delta":222927100},{"NoteNumber":58,"Velocity":26,"Duration":225075,"SoundDuration":225075,"Delta":223221391},{"NoteNumber":58,"Velocity":26,"Duration":229893,"SoundDuration":229893,"Delta":223524397},{"NoteNumber":58,"Velocity":50,"Duration":1318294,"SoundDuration":1318294,"Delta":223836117},{"NoteNumber":49,"Velocity":36,"Duration":1785875,"SoundDuration":1785875,"Delta":223836117},{"NoteNumber":55,"Velocity":28,"Duration":302938,"SoundDuration":302938,"Delta":223836117},{"NoteNumber":51,"Velocity":26,"Duration":222351,"SoundDuration":222351,"Delta":224139056},{"NoteNumber":51,"Velocity":26,"Duration":212645,"SoundDuration":212645,"Delta":224432289},{"NoteNumber":55,"Velocity":24,"Duration":292397,"SoundDuration":292397,"Delta":224715816},{"NoteNumber":51,"Velocity":24,"Duration":224129,"SoundDuration":224129,"Delta":225008213},{"NoteNumber":60,"Velocity":46,"Duration":233790,"SoundDuration":233790,"Delta":225154412},{"NoteNumber":51,"Velocity":24,"Duration":233790,"SoundDuration":233790,"Delta":225310272},{"NoteNumber":61,"Velocity":46,"Duration":233790,"SoundDuration":233790,"Delta":225388203},{"NoteNumber":63,"Velocity":50,"Duration":1792820,"SoundDuration":1792820,"Delta":225621993},{"NoteNumber":48,"Velocity":40,"Duration":1792820,"SoundDuration":1792820,"Delta":225621993},{"NoteNumber":56,"Velocity":28,"Duration":302938,"SoundDuration":302938,"Delta":225621993},{"NoteNumber":51,"Velocity":26,"Duration":222150,"SoundDuration":222150,"Delta":225924932},{"NoteNumber":51,"Velocity":26,"Duration":212044,"SoundDuration":212044,"Delta":226217764},{"NoteNumber":56,"Velocity":27,"Duration":294290,"SoundDuration":294290,"Delta":226500489},{"NoteNumber":51,"Velocity":25,"Duration":225960,"SoundDuration":225960,"Delta":226794780},{"NoteNumber":51,"Velocity":25,"Duration":236443,"SoundDuration":236443,"Delta":227099555},{"NoteNumber":57,"Velocity":48,"Duration":1792019,"SoundDuration":1792019,"Delta":227414813},{"NoteNumber":41,"Velocity":36,"Duration":1792019,"SoundDuration":1792019,"Delta":227414813},{"NoteNumber":51,"Velocity":28,"Duration":302938,"SoundDuration":302938,"Delta":227414813},{"NoteNumber":48,"Velocity":25,"Duration":222351,"SoundDuration":222351,"Delta":227717752},{"NoteNumber":48,"Velocity":25,"Duration":212645,"SoundDuration":212645,"Delta":228010984},{"NoteNumber":51,"Velocity":26,"Duration":295421,"SoundDuration":295421,"Delta":228294511},{"NoteNumber":48,"Velocity":26,"Duration":225908,"SoundDuration":225908,"Delta":228589932},{"NoteNumber":48,"Velocity":26,"Duration":234594,"SoundDuration":234594,"Delta":228894039},{"NoteNumber":61,"Velocity":50,"Duration":1790410,"SoundDuration":1790410,"Delta":229206833},{"NoteNumber":34,"Velocity":40,"Duration":1790410,"SoundDuration":1790410,"Delta":229206833},{"NoteNumber":53,"Velocity":29,"Duration":302938,"SoundDuration":302938,"Delta":229206833},{"NoteNumber":49,"Velocity":26,"Duration":222351,"SoundDuration":222351,"Delta":229509771},{"NoteNumber":49,"Velocity":26,"Duration":212645,"SoundDuration":212645,"Delta":229803004},{"NoteNumber":53,"Velocity":27,"Duration":295421,"SoundDuration":295421,"Delta":230086531},{"NoteNumber":49,"Velocity":25,"Duration":225640,"SoundDuration":225640,"Delta":230381952},{"NoteNumber":49,"Velocity":25,"Duration":233790,"SoundDuration":233790,"Delta":230685523},{"NoteNumber":61,"Velocity":52,"Duration":304878,"SoundDuration":304878,"Delta":230997243},{"NoteNumber":39,"Velocity":34,"Duration":1852668,"SoundDuration":1852668,"Delta":230997243},{"NoteNumber":55,"Velocity":30,"Duration":304878,"SoundDuration":304878,"Delta":230997243},{"NoteNumber":60,"Velocity":46,"Duration":300917,"SoundDuration":300917,"Delta":231302121},{"NoteNumber":49,"Velocity":28,"Duration":226557,"SoundDuration":226557,"Delta":231302121},{"NoteNumber":58,"Velocity":46,"Duration":297442,"SoundDuration":297442,"Delta":231603039},{"NoteNumber":49,"Velocity":28,"Duration":223081,"SoundDuration":223081,"Delta":231603039},{"NoteNumber":58,"Velocity":51,"Duration":311720,"SoundDuration":311720,"Delta":231900481},{"NoteNumber":49,"Velocity":28,"Duration":233790,"SoundDuration":233790,"Delta":231900481},{"NoteNumber":56,"Velocity":47,"Duration":316477,"SoundDuration":316477,"Delta":232212202},{"NoteNumber":49,"Velocity":25,"Duration":236168,"SoundDuration":236168,"Delta":232212202},{"NoteNumber":55,"Velocity":47,"Duration":321233,"SoundDuration":321233,"Delta":232528679},{"NoteNumber":49,"Velocity":25,"Duration":240925,"SoundDuration":240925,"Delta":232528679},{"NoteNumber":55,"Velocity":40,"Duration":1918934,"SoundDuration":1918934,"Delta":232849912},{"NoteNumber":58,"Velocity":50,"Duration":1918934,"SoundDuration":1918934,"Delta":232849912},{"NoteNumber":32,"Velocity":37,"Duration":943922,"SoundDuration":943922,"Delta":232849912},{"NoteNumber":49,"Velocity":31,"Duration":317561,"SoundDuration":317561,"Delta":232849912},{"NoteNumber":51,"Velocity":28,"Duration":236710,"SoundDuration":236710,"Delta":233167473},{"NoteNumber":51,"Velocity":28,"Duration":233790,"SoundDuration":233790,"Delta":233482114},{"NoteNumber":44,"Velocity":29,"Duration":975011,"SoundDuration":975011,"Delta":233793835},{"NoteNumber":49,"Velocity":28,"Duration":317561,"SoundDuration":317561,"Delta":233793835},{"NoteNumber":51,"Velocity":25,"Duration":241892,"SoundDuration":241892,"Delta":234111396},{"NoteNumber":51,"Velocity":25,"Duration":249335,"SoundDuration":249335,"Delta":234436400},{"NoteNumber":56,"Velocity":50,"Duration":997340,"SoundDuration":997340,"Delta":234768847},{"NoteNumber":48,"Velocity":36,"Duration":249335,"SoundDuration":249335,"Delta":234768847},{"NoteNumber":32,"Velocity":36,"Duration":997340,"SoundDuration":997340,"Delta":234768847},{"NoteNumber":51,"Velocity":34,"Duration":249335,"SoundDuration":249335,"Delta":235101294},{"NoteNumber":56,"Velocity":34,"Duration":249335,"SoundDuration":249335,"Delta":235433741},{"NoteNumber":60,"Velocity":36,"Duration":249335,"SoundDuration":249335,"Delta":235766187},{"NoteNumber":63,"Velocity":35,"Duration":249335,"SoundDuration":249335,"Delta":236098634},{"NoteNumber":68,"Velocity":35,"Duration":280164,"SoundDuration":280164,"Delta":236431081},{"NoteNumber":72,"Velocity":50,"Duration":1827274,"SoundDuration":1827274,"Delta":236804634},{"NoteNumber":60,"Velocity":28,"Duration":308642,"SoundDuration":308642,"Delta":236804634},{"NoteNumber":44,"Velocity":40,"Duration":1827274,"SoundDuration":1827274,"Delta":236804634},{"NoteNumber":56,"Velocity":28,"Duration":308642,"SoundDuration":308642,"Delta":236804634},{"NoteNumber":63,"Velocity":26,"Duration":225225,"SoundDuration":225225,"Delta":237113276},{"NoteNumber":51,"Velocity":26,"Duration":225225,"SoundDuration":225225,"Delta":237113276},{"NoteNumber":63,"Velocity":26,"Duration":225225,"SoundDuration":225225,"Delta":237413576},{"NoteNumber":51,"Velocity":26,"Duration":225225,"SoundDuration":225225,"Delta":237413576},{"NoteNumber":60,"Velocity":26,"Duration":300300,"SoundDuration":300300,"Delta":237713876},{"NoteNumber":56,"Velocity":28,"Duration":300300,"SoundDuration":300300,"Delta":237713876},{"NoteNumber":63,"Velocity":26,"Duration":228080,"SoundDuration":228080,"Delta":238014177},{"NoteNumber":51,"Velocity":26,"Duration":228080,"SoundDuration":228080,"Delta":238014177},{"NoteNumber":63,"Velocity":26,"Duration":233790,"SoundDuration":233790,"Delta":238320187},{"NoteNumber":51,"Velocity":26,"Duration":233790,"SoundDuration":233790,"Delta":238320187},{"NoteNumber":70,"Velocity":46,"Duration":1804616,"SoundDuration":1804616,"Delta":238631908},{"NoteNumber":58,"Velocity":28,"Duration":302938,"SoundDuration":302938,"Delta":238631908},{"NoteNumber":49,"Velocity":35,"Duration":1804616,"SoundDuration":1804616,"Delta":238631908},{"NoteNumber":55,"Velocity":28,"Duration":302938,"SoundDuration":302938,"Delta":238631908},{"NoteNumber":63,"Velocity":26,"Duration":223723,"SoundDuration":223723,"Delta":238934846},{"NoteNumber":51,"Velocity":26,"Duration":223723,"SoundDuration":223723,"Delta":238934846},{"NoteNumber":63,"Velocity":26,"Duration":216762,"SoundDuration":216762,"Delta":239230824},{"NoteNumber":51,"Velocity":26,"Duration":216762,"SoundDuration":216762,"Delta":239230824},{"NoteNumber":58,"Velocity":26,"Duration":299401,"SoundDuration":299401,"Delta":239519841},{"NoteNumber":55,"Velocity":28,"Duration":299401,"SoundDuration":299401,"Delta":239519841},{"NoteNumber":63,"Velocity":26,"Duration":227630,"SoundDuration":227630,"Delta":239819243},{"NoteNumber":51,"Velocity":27,"Duration":227630,"SoundDuration":227630,"Delta":239819243},{"NoteNumber":63,"Velocity":26,"Duration":233790,"SoundDuration":233790,"Delta":240124804},{"NoteNumber":51,"Velocity":27,"Duration":233790,"SoundDuration":233790,"Delta":240124804},{"NoteNumber":75,"Velocity":50,"Duration":2633540,"SoundDuration":2633540,"Delta":240436524},{"NoteNumber":63,"Velocity":28,"Duration":302938,"SoundDuration":302938,"Delta":240436524},{"NoteNumber":48,"Velocity":40,"Duration":1765484,"SoundDuration":1765484,"Delta":240436524},{"NoteNumber":56,"Velocity":28,"Duration":302938,"SoundDuration":302938,"Delta":240436524},{"NoteNumber":68,"Velocity":26,"Duration":222836,"SoundDuration":222836,"Delta":240739463},{"NoteNumber":51,"Velocity":26,"Duration":222836,"SoundDuration":222836,"Delta":240739463},{"NoteNumber":68,"Velocity":26,"Duration":214102,"SoundDuration":214102,"Delta":241033667},{"NoteNumber":51,"Velocity":26,"Duration":214102,"SoundDuration":214102,"Delta":241033667},{"NoteNumber":63,"Velocity":25,"Duration":294290,"SoundDuration":294290,"Delta":241319136},{"NoteNumber":56,"Velocity":28,"Duration":294290,"SoundDuration":294290,"Delta":241319136},{"NoteNumber":68,"Velocity":25,"Duration":220718,"SoundDuration":220718,"Delta":241613427},{"NoteNumber":51,"Velocity":26,"Duration":220718,"SoundDuration":220718,"Delta":241613427},{"NoteNumber":68,"Velocity":25,"Duration":220718,"SoundDuration":220718,"Delta":241907718},{"NoteNumber":51,"Velocity":26,"Duration":220718,"SoundDuration":220718,"Delta":241907718},{"NoteNumber":63,"Velocity":28,"Duration":289351,"SoundDuration":289351,"Delta":242202009},{"NoteNumber":43,"Velocity":37,"Duration":1764475,"SoundDuration":1764475,"Delta":242202009},{"NoteNumber":55,"Velocity":28,"Duration":289351,"SoundDuration":289351,"Delta":242202009},{"NoteNumber":70,"Velocity":26,"Duration":217013,"SoundDuration":217013,"Delta":242491361},{"NoteNumber":51,"Velocity":25,"Duration":217013,"SoundDuration":217013,"Delta":242491361},{"NoteNumber":70,"Velocity":26,"Duration":217013,"SoundDuration":217013,"Delta":242780713},{"NoteNumber":51,"Velocity":25,"Duration":217013,"SoundDuration":217013,"Delta":242780713},{"NoteNumber":73,"Velocity":48,"Duration":896419,"SoundDuration":896419,"Delta":243070064},{"NoteNumber":63,"Velocity":25,"Duration":289351,"SoundDuration":289351,"Delta":243070064},{"NoteNumber":55,"Velocity":25,"Duration":289351,"SoundDuration":289351,"Delta":243070064},{"NoteNumber":70,"Velocity":25,"Duration":221741,"SoundDuration":221741,"Delta":243359416},{"NoteNumber":51,"Velocity":25,"Duration":221741,"SoundDuration":221741,"Delta":243359416},{"NoteNumber":70,"Velocity":25,"Duration":231195,"SoundDuration":231195,"Delta":243658223},{"NoteNumber":51,"Velocity":25,"Duration":231195,"SoundDuration":231195,"Delta":243658223},{"NoteNumber":72,"Velocity":47,"Duration":882612,"SoundDuration":882612,"Delta":243966484},{"NoteNumber":63,"Velocity":29,"Duration":302938,"SoundDuration":302938,"Delta":243966484},{"NoteNumber":44,"Velocity":33,"Duration":882612,"SoundDuration":882612,"Delta":243966484},{"NoteNumber":56,"Velocity":29,"Duration":302938,"SoundDuration":302938,"Delta":243966484},{"NoteNumber":68,"Velocity":27,"Duration":222836,"SoundDuration":222836,"Delta":244269423},{"NoteNumber":51,"Velocity":27,"Duration":222836,"SoundDuration":222836,"Delta":244269423},{"NoteNumber":68,"Velocity":26,"Duration":214102,"SoundDuration":214102,"Delta":244563627},{"NoteNumber":51,"Velocity":27,"Duration":214102,"SoundDuration":214102,"Delta":244563627},{"NoteNumber":75,"Velocity":49,"Duration":880023,"SoundDuration":880023,"Delta":244849096},{"NoteNumber":63,"Velocity":26,"Duration":293341,"SoundDuration":293341,"Delta":244849096},{"NoteNumber":43,"Velocity":35,"Duration":880023,"SoundDuration":880023,"Delta":244849096},{"NoteNumber":55,"Velocity":26,"Duration":293341,"SoundDuration":293341,"Delta":244849096},{"NoteNumber":70,"Velocity":26,"Duration":220005,"SoundDuration":220005,"Delta":245142438},{"NoteNumber":51,"Velocity":26,"Duration":220005,"SoundDuration":220005,"Delta":245142438},{"NoteNumber":70,"Velocity":26,"Duration":220005,"SoundDuration":220005,"Delta":245435779},{"NoteNumber":51,"Velocity":26,"Duration":220005,"SoundDuration":220005,"Delta":245435779},{"NoteNumber":80,"Velocity":51,"Duration":903688,"SoundDuration":903688,"Delta":245729120},{"NoteNumber":68,"Velocity":30,"Duration":298507,"SoundDuration":298507,"Delta":245729120},{"NoteNumber":41,"Velocity":38,"Duration":903688,"SoundDuration":903688,"Delta":245729120},{"NoteNumber":53,"Velocity":30,"Duration":298507,"SoundDuration":298507,"Delta":245729120},{"NoteNumber":72,"Velocity":28,"Duration":225241,"SoundDuration":225241,"Delta":246027627},{"NoteNumber":44,"Velocity":27,"Duration":225241,"SoundDuration":225241,"Delta":246027627},{"NoteNumber":72,"Velocity":28,"Duration":227963,"SoundDuration":227963,"Delta":246328857},{"NoteNumber":44,"Velocity":27,"Duration":227963,"SoundDuration":227963,"Delta":246328857},{"NoteNumber":82,"Velocity":56,"Duration":942180,"SoundDuration":942180,"Delta":246632808},{"NoteNumber":68,"Velocity":27,"Duration":310559,"SoundDuration":310559,"Delta":246632808},{"NoteNumber":41,"Velocity":40,"Duration":942180,"SoundDuration":942180,"Delta":246632808},{"NoteNumber":53,"Velocity":27,"Duration":310559,"SoundDuration":310559,"Delta":246632808},{"NoteNumber":74,"Velocity":27,"Duration":234669,"SoundDuration":234669,"Delta":246943367},{"NoteNumber":44,"Velocity":27,"Duration":234669,"SoundDuration":234669,"Delta":246943367},{"NoteNumber":74,"Velocity":27,"Duration":238170,"SoundDuration":238170,"Delta":247257427},{"NoteNumber":44,"Velocity":25,"Duration":238170,"SoundDuration":238170,"Delta":247257427},{"NoteNumber":75,"Velocity":50,"Duration":2644480,"SoundDuration":2644480,"Delta":247574988},{"NoteNumber":67,"Velocity":30,"Duration":302938,"SoundDuration":302938,"Delta":247574988},{"NoteNumber":39,"Velocity":50,"Duration":151469,"SoundDuration":151469,"Delta":247574988},{"NoteNumber":70,"Velocity":28,"Duration":225829,"SoundDuration":225829,"Delta":247877927},{"NoteNumber":43,"Velocity":44,"Duration":151469,"SoundDuration":151469,"Delta":247877927},{"NoteNumber":70,"Velocity":28,"Duration":223081,"SoundDuration":223081,"Delta":248178117},{"NoteNumber":46,"Velocity":45,"Duration":148720,"SoundDuration":148720,"Delta":248178117},{"NoteNumber":67,"Velocity":27,"Duration":288433,"SoundDuration":288433,"Delta":248475559},{"NoteNumber":51,"Velocity":47,"Duration":144216,"SoundDuration":144216,"Delta":248475559},{"NoteNumber":70,"Velocity":23,"Duration":216325,"SoundDuration":216325,"Delta":248763993},{"NoteNumber":55,"Velocity":49,"Duration":144216,"SoundDuration":144216,"Delta":248763993},{"NoteNumber":70,"Velocity":23,"Duration":216325,"SoundDuration":216325,"Delta":249052427},{"NoteNumber":58,"Velocity":50,"Duration":144216,"SoundDuration":144216,"Delta":249052427},{"NoteNumber":67,"Velocity":32,"Duration":292397,"SoundDuration":292397,"Delta":249340861},{"NoteNumber":63,"Velocity":52,"Duration":1815683,"SoundDuration":1815683,"Delta":249340861},{"NoteNumber":70,"Velocity":28,"Duration":219534,"SoundDuration":219534,"Delta":249633258},{"NoteNumber":70,"Velocity":28,"Duration":220005,"SoundDuration":220005,"Delta":249926128},{"NoteNumber":76,"Velocity":55,"Duration":937075,"SoundDuration":937075,"Delta":250219469},{"NoteNumber":67,"Velocity":33,"Duration":308261,"SoundDuration":308261,"Delta":250219469},{"NoteNumber":70,"Velocity":29,"Duration":233244,"SoundDuration":233244,"Delta":250527730},{"NoteNumber":70,"Velocity":28,"Duration":237341,"SoundDuration":237341,"Delta":250840089},{"NoteNumber":77,"Velocity":59,"Duration":1790046,"SoundDuration":1790046,"Delta":251156544},{"NoteNumber":67,"Velocity":35,"Duration":302938,"SoundDuration":302938,"Delta":251156544},{"NoteNumber":37,"Velocity":50,"Duration":151469,"SoundDuration":151469,"Delta":251156544},{"NoteNumber":70,"Velocity":28,"Duration":222572,"SoundDuration":222572,"Delta":251459483},{"NoteNumber":43,"Velocity":43,"Duration":151469,"SoundDuration":151469,"Delta":251459483},{"NoteNumber":70,"Velocity":28,"Duration":213310,"SoundDuration":213310,"Delta":251753159},{"NoteNumber":46,"Velocity":44,"Duration":142207,"SoundDuration":142207,"Delta":251753159},{"NoteNumber":67,"Velocity":32,"Duration":294290,"SoundDuration":294290,"Delta":252037573},{"NoteNumber":49,"Velocity":46,"Duration":147145,"SoundDuration":147145,"Delta":252037573},{"NoteNumber":70,"Velocity":26,"Duration":225075,"SoundDuration":225075,"Delta":252331864},{"NoteNumber":55,"Velocity":47,"Duration":147145,"SoundDuration":147145,"Delta":252331864},{"NoteNumber":70,"Velocity":26,"Duration":229893,"SoundDuration":229893,"Delta":252634870},{"NoteNumber":58,"Velocity":49,"Duration":155860,"SoundDuration":155860,"Delta":252634870},{"NoteNumber":70,"Velocity":57,"Duration":1318294,"SoundDuration":1318294,"Delta":252946591},{"NoteNumber":67,"Velocity":34,"Duration":302938,"SoundDuration":302938,"Delta":252946591},{"NoteNumber":61,"Velocity":50,"Duration":1785875,"SoundDuration":1785875,"Delta":252946591},{"NoteNumber":63,"Velocity":27,"Duration":222351,"SoundDuration":222351,"Delta":253249529},{"NoteNumber":63,"Velocity":27,"Duration":212645,"SoundDuration":212645,"Delta":253542762},{"NoteNumber":67,"Velocity":33,"Duration":292397,"SoundDuration":292397,"Delta":253826289},{"NoteNumber":63,"Velocity":27,"Duration":224129,"SoundDuration":224129,"Delta":254118687},{"NoteNumber":72,"Velocity":56,"Duration":233790,"SoundDuration":233790,"Delta":254264885},{"NoteNumber":63,"Velocity":25,"Duration":233790,"SoundDuration":233790,"Delta":254420746},{"NoteNumber":73,"Velocity":58,"Duration":233790,"SoundDuration":233790,"Delta":254498676},{"NoteNumber":75,"Velocity":60,"Duration":1792819,"SoundDuration":1792819,"Delta":254732466},{"NoteNumber":68,"Velocity":30,"Duration":302938,"SoundDuration":302938,"Delta":254732466},{"NoteNumber":60,"Velocity":40,"Duration":1792819,"SoundDuration":1792819,"Delta":254732466},{"NoteNumber":63,"Velocity":28,"Duration":222150,"SoundDuration":222150,"Delta":255035405},{"NoteNumber":63,"Velocity":28,"Duration":212044,"SoundDuration":212044,"Delta":255328237},{"NoteNumber":68,"Velocity":27,"Duration":294290,"SoundDuration":294290,"Delta":255610962},{"NoteNumber":63,"Velocity":23,"Duration":225960,"SoundDuration":225960,"Delta":255905253},{"NoteNumber":63,"Velocity":23,"Duration":236443,"SoundDuration":236443,"Delta":256210028},{"NoteNumber":69,"Velocity":48,"Duration":1792019,"SoundDuration":1792019,"Delta":256525286},{"NoteNumber":63,"Velocity":28,"Duration":302938,"SoundDuration":302938,"Delta":256525286},{"NoteNumber":53,"Velocity":36,"Duration":1792019,"SoundDuration":1792019,"Delta":256525286},{"NoteNumber":60,"Velocity":26,"Duration":222351,"SoundDuration":222351,"Delta":256828225},{"NoteNumber":60,"Velocity":26,"Duration":212645,"SoundDuration":212645,"Delta":257121458},{"NoteNumber":63,"Velocity":28,"Duration":295420,"SoundDuration":295420,"Delta":257404985},{"NoteNumber":60,"Velocity":25,"Duration":225908,"SoundDuration":225908,"Delta":257700406},{"NoteNumber":60,"Velocity":25,"Duration":234594,"SoundDuration":234594,"Delta":258004513},{"NoteNumber":73,"Velocity":50,"Duration":1790410,"SoundDuration":1790410,"Delta":258317306},{"NoteNumber":65,"Velocity":29,"Duration":302938,"SoundDuration":302938,"Delta":258317306},{"NoteNumber":46,"Velocity":40,"Duration":1790410,"SoundDuration":1790410,"Delta":258317306},{"NoteNumber":61,"Velocity":28,"Duration":222351,"SoundDuration":222351,"Delta":258620244},{"NoteNumber":61,"Velocity":27,"Duration":212645,"SoundDuration":212645,"Delta":258913477},{"NoteNumber":65,"Velocity":27,"Duration":295420,"SoundDuration":295420,"Delta":259197004},{"NoteNumber":61,"Velocity":27,"Duration":225640,"SoundDuration":225640,"Delta":259492425},{"NoteNumber":61,"Velocity":27,"Duration":233790,"SoundDuration":233790,"Delta":259795996},{"NoteNumber":73,"Velocity":48,"Duration":304877,"SoundDuration":304877,"Delta":260107717},{"NoteNumber":67,"Velocity":30,"Duration":304877,"SoundDuration":304877,"Delta":260107717},{"NoteNumber":39,"Velocity":34,"Duration":903237,"SoundDuration":903237,"Delta":260107717},{"NoteNumber":46,"Velocity":27,"Duration":304877,"SoundDuration":304877,"Delta":260107717},{"NoteNumber":72,"Velocity":47,"Duration":300917,"SoundDuration":300917,"Delta":260412595},{"NoteNumber":61,"Velocity":28,"Duration":226557,"SoundDuration":226557,"Delta":260412595},{"NoteNumber":51,"Velocity":25,"Duration":226557,"SoundDuration":226557,"Delta":260412595},{"NoteNumber":70,"Velocity":47,"Duration":223081,"SoundDuration":223081,"Delta":260713512},{"NoteNumber":61,"Velocity":28,"Duration":223081,"SoundDuration":223081,"Delta":260713512},{"NoteNumber":51,"Velocity":25,"Duration":223081,"SoundDuration":223081,"Delta":260713512},{"NoteNumber":70,"Velocity":48,"Duration":311720,"SoundDuration":311720,"Delta":261010954},{"NoteNumber":61,"Velocity":28,"Duration":233790,"SoundDuration":233790,"Delta":261010954},{"NoteNumber":39,"Velocity":30,"Duration":949431,"SoundDuration":949431,"Delta":261010954},{"NoteNumber":68,"Velocity":46,"Duration":316477,"SoundDuration":316477,"Delta":261322675},{"NoteNumber":61,"Velocity":28,"Duration":236168,"SoundDuration":236168,"Delta":261322675},{"NoteNumber":51,"Velocity":25,"Duration":236168,"SoundDuration":236168,"Delta":261322675},{"NoteNumber":67,"Velocity":46,"Duration":321233,"SoundDuration":321233,"Delta":261639152},{"NoteNumber":61,"Velocity":28,"Duration":240925,"SoundDuration":240925,"Delta":261639152},{"NoteNumber":51,"Velocity":25,"Duration":240925,"SoundDuration":240925,"Delta":261639152},{"NoteNumber":60,"Velocity":52,"Duration":1168549,"SoundDuration":1168549,"Delta":261960385},{"NoteNumber":68,"Velocity":52,"Duration":1168549,"SoundDuration":1168549,"Delta":261960385},{"NoteNumber":44,"Velocity":29,"Duration":393081,"SoundDuration":393081,"Delta":261960385},{"NoteNumber":51,"Velocity":25,"Duration":293028,"SoundDuration":293028,"Delta":262353467},{"NoteNumber":51,"Velocity":25,"Duration":289463,"SoundDuration":289463,"Delta":262742984},{"NoteNumber":51,"Velocity":25,"Duration":294811,"SoundDuration":294811,"Delta":263128935},{"NoteNumber":51,"Velocity":25,"Duration":297469,"SoundDuration":297469,"Delta":263522017},{"NoteNumber":51,"Velocity":25,"Duration":302785,"SoundDuration":302785,"Delta":263920415},{"NoteNumber":51,"Velocity":25,"Duration":353773,"SoundDuration":353773,"Delta":264324129},{"NoteNumber":51,"Velocity":25,"Duration":353773,"SoundDuration":353773,"Delta":264717211},{"NoteNumber":51,"Velocity":25,"Duration":353773,"SoundDuration":353773,"Delta":265110293},{"NoteNumber":75,"Velocity":50,"Duration":894748,"SoundDuration":894748,"Delta":265503375},{"NoteNumber":51,"Velocity":26,"Duration":353773,"SoundDuration":353773,"Delta":265503375},{"NoteNumber":51,"Velocity":27,"Duration":359274,"SoundDuration":359274,"Delta":265896457},{"NoteNumber":51,"Velocity":28,"Duration":366151,"SoundDuration":366151,"Delta":266296415},{"NoteNumber":76,"Velocity":50,"Duration":305126,"SoundDuration":305126,"Delta":266398124},{"NoteNumber":77,"Velocity":55,"Duration":1583888,"SoundDuration":1583888,"Delta":266703250},{"NoteNumber":39,"Velocity":24,"Duration":353773,"SoundDuration":353773,"Delta":266703250},{"NoteNumber":49,"Velocity":24,"Duration":353773,"SoundDuration":353773,"Delta":266703250},{"NoteNumber":51,"Velocity":30,"Duration":353773,"SoundDuration":353773,"Delta":266703250},{"NoteNumber":39,"Velocity":20,"Duration":353773,"SoundDuration":353773,"Delta":267096332},{"NoteNumber":49,"Velocity":20,"Duration":353773,"SoundDuration":353773,"Delta":267096332},{"NoteNumber":51,"Velocity":25,"Duration":353773,"SoundDuration":353773,"Delta":267096332},{"NoteNumber":39,"Velocity":20,"Duration":363793,"SoundDuration":363793,"Delta":267489413},{"NoteNumber":49,"Velocity":20,"Duration":363793,"SoundDuration":363793,"Delta":267489413},{"NoteNumber":51,"Velocity":25,"Duration":363793,"SoundDuration":363793,"Delta":267489413},{"NoteNumber":39,"Velocity":20,"Duration":353773,"SoundDuration":353773,"Delta":267894056},{"NoteNumber":49,"Velocity":20,"Duration":353773,"SoundDuration":353773,"Delta":267894056},{"NoteNumber":51,"Velocity":25,"Duration":353773,"SoundDuration":353773,"Delta":267894056},{"NoteNumber":75,"Velocity":51,"Duration":393081,"SoundDuration":393081,"Delta":268287138},{"NoteNumber":39,"Velocity":20,"Duration":353773,"SoundDuration":353773,"Delta":268287138},{"NoteNumber":49,"Velocity":20,"Duration":353773,"SoundDuration":353773,"Delta":268287138},{"NoteNumber":51,"Velocity":25,"Duration":353773,"SoundDuration":353773,"Delta":268287138},{"NoteNumber":73,"Velocity":51,"Duration":393081,"SoundDuration":393081,"Delta":268680220},{"NoteNumber":39,"Velocity":20,"Duration":353773,"SoundDuration":353773,"Delta":268680220},{"NoteNumber":49,"Velocity":20,"Duration":353773,"SoundDuration":353773,"Delta":268680220},{"NoteNumber":51,"Velocity":26,"Duration":353773,"SoundDuration":353773,"Delta":268680220},{"NoteNumber":72,"Velocity":52,"Duration":393779,"SoundDuration":393779,"Delta":269073302},{"NoteNumber":39,"Velocity":21,"Duration":354331,"SoundDuration":354331,"Delta":269073302},{"NoteNumber":49,"Velocity":21,"Duration":354331,"SoundDuration":354331,"Delta":269073302},{"NoteNumber":51,"Velocity":26,"Duration":354331,"SoundDuration":354331,"Delta":269073302},{"NoteNumber":70,"Velocity":53,"Duration":396748,"SoundDuration":396748,"Delta":269467081},{"NoteNumber":39,"Velocity":21,"Duration":357002,"SoundDuration":357002,"Delta":269467081},{"NoteNumber":49,"Velocity":21,"Duration":357002,"SoundDuration":357002,"Delta":269467081},{"NoteNumber":51,"Velocity":27,"Duration":357002,"SoundDuration":357002,"Delta":269467081},{"NoteNumber":68,"Velocity":54,"Duration":400022,"SoundDuration":400022,"Delta":269863829},{"NoteNumber":39,"Velocity":22,"Duration":359813,"SoundDuration":359813,"Delta":269863829},{"NoteNumber":49,"Velocity":22,"Duration":359813,"SoundDuration":359813,"Delta":269863829},{"NoteNumber":51,"Velocity":27,"Duration":359813,"SoundDuration":359813,"Delta":269863829},{"NoteNumber":67,"Velocity":58,"Duration":294811,"SoundDuration":294811,"Delta":270263852},{"NoteNumber":39,"Velocity":20,"Duration":353773,"SoundDuration":353773,"Delta":270263852},{"NoteNumber":49,"Velocity":20,"Duration":353773,"SoundDuration":353773,"Delta":270263852},{"NoteNumber":51,"Velocity":25,"Duration":353773,"SoundDuration":353773,"Delta":270263852},{"NoteNumber":73,"Velocity":53,"Duration":294811,"SoundDuration":294811,"Delta":270558664},{"NoteNumber":39,"Velocity":20,"Duration":353773,"SoundDuration":353773,"Delta":270656934},{"NoteNumber":49,"Velocity":20,"Duration":353773,"SoundDuration":353773,"Delta":270656934},{"NoteNumber":51,"Velocity":25,"Duration":353773,"SoundDuration":353773,"Delta":270656934},{"NoteNumber":70,"Velocity":51,"Duration":294811,"SoundDuration":294811,"Delta":270853475},{"NoteNumber":39,"Velocity":20,"Duration":353773,"SoundDuration":353773,"Delta":271050016},{"NoteNumber":49,"Velocity":20,"Duration":353773,"SoundDuration":353773,"Delta":271050016},{"NoteNumber":51,"Velocity":25,"Duration":353773,"SoundDuration":353773,"Delta":271050016},{"NoteNumber":67,"Velocity":50,"Duration":294811,"SoundDuration":294811,"Delta":271148286},{"NoteNumber":68,"Velocity":52,"Duration":393081,"SoundDuration":393081,"Delta":271443098},{"NoteNumber":44,"Velocity":20,"Duration":353773,"SoundDuration":353773,"Delta":271443098},{"NoteNumber":48,"Velocity":20,"Duration":353773,"SoundDuration":353773,"Delta":271443098},{"NoteNumber":51,"Velocity":25,"Duration":353773,"SoundDuration":353773,"Delta":271443098},{"NoteNumber":70,"Velocity":45,"Duration":127751,"SoundDuration":127751,"Delta":271836180},{"NoteNumber":51,"Velocity":25,"Duration":353773,"SoundDuration":353773,"Delta":271836180},{"NoteNumber":68,"Velocity":39,"Duration":127751,"SoundDuration":127751,"Delta":271963931},{"NoteNumber":67,"Velocity":39,"Duration":127751,"SoundDuration":127751,"Delta":272091683},{"NoteNumber":68,"Velocity":44,"Duration":302419,"SoundDuration":302419,"Delta":272229262},{"NoteNumber":51,"Velocity":25,"Duration":368498,"SoundDuration":368498,"Delta":272229262},{"NoteNumber":72,"Velocity":46,"Duration":110132,"SoundDuration":110132,"Delta":272531681},{"NoteNumber":63,"Velocity":46,"Duration":1176470,"SoundDuration":1176470,"Delta":272641813},{"NoteNumber":51,"Velocity":25,"Duration":352941,"SoundDuration":352941,"Delta":272641813},{"NoteNumber":51,"Velocity":25,"Duration":352941,"SoundDuration":352941,"Delta":273033970},{"NoteNumber":51,"Velocity":25,"Duration":352941,"SoundDuration":352941,"Delta":273426127},{"NoteNumber":51,"Velocity":25,"Duration":353773,"SoundDuration":353773,"Delta":273818284},{"NoteNumber":51,"Velocity":25,"Duration":353773,"SoundDuration":353773,"Delta":274211365},{"NoteNumber":51,"Velocity":25,"Duration":353773,"SoundDuration":353773,"Delta":274604447},{"NoteNumber":87,"Velocity":50,"Duration":894748,"SoundDuration":894748,"Delta":274997529},{"NoteNumber":75,"Velocity":42,"Duration":894748,"SoundDuration":894748,"Delta":274997529},{"NoteNumber":51,"Velocity":26,"Duration":353773,"SoundDuration":353773,"Delta":274997529},{"NoteNumber":51,"Velocity":27,"Duration":359274,"SoundDuration":359274,"Delta":275390611},{"NoteNumber":51,"Velocity":28,"Duration":366151,"SoundDuration":366151,"Delta":275790569},{"NoteNumber":88,"Velocity":50,"Duration":305126,"SoundDuration":305126,"Delta":275892278},{"NoteNumber":76,"Velocity":42,"Duration":305126,"SoundDuration":305126,"Delta":275892278},{"NoteNumber":89,"Velocity":55,"Duration":1583888,"SoundDuration":1583888,"Delta":276197404},{"NoteNumber":77,"Velocity":46,"Duration":1583888,"SoundDuration":1583888,"Delta":276197404},{"NoteNumber":39,"Velocity":24,"Duration":353773,"SoundDuration":353773,"Delta":276197404},{"NoteNumber":49,"Velocity":24,"Duration":353773,"SoundDuration":353773,"Delta":276197404},{"NoteNumber":51,"Velocity":30,"Duration":353773,"SoundDuration":353773,"Delta":276197404},{"NoteNumber":39,"Velocity":20,"Duration":353773,"SoundDuration":353773,"Delta":276590486},{"NoteNumber":49,"Velocity":20,"Duration":353773,"SoundDuration":353773,"Delta":276590486},{"NoteNumber":51,"Velocity":25,"Duration":353773,"SoundDuration":353773,"Delta":276590486},{"NoteNumber":39,"Velocity":20,"Duration":363793,"SoundDuration":363793,"Delta":276983568},{"NoteNumber":49,"Velocity":20,"Duration":363793,"SoundDuration":363793,"Delta":276983568},{"NoteNumber":51,"Velocity":25,"Duration":363793,"SoundDuration":363793,"Delta":276983568},{"NoteNumber":39,"Velocity":20,"Duration":353773,"SoundDuration":353773,"Delta":277388211},{"NoteNumber":49,"Velocity":20,"Duration":353773,"SoundDuration":353773,"Delta":277388211},{"NoteNumber":51,"Velocity":25,"Duration":353773,"SoundDuration":353773,"Delta":277388211},{"NoteNumber":87,"Velocity":51,"Duration":393081,"SoundDuration":393081,"Delta":277781293},{"NoteNumber":75,"Velocity":43,"Duration":393081,"SoundDuration":393081,"Delta":277781293},{"NoteNumber":39,"Velocity":20,"Duration":353773,"SoundDuration":353773,"Delta":277781293},{"NoteNumber":49,"Velocity":20,"Duration":353773,"SoundDuration":353773,"Delta":277781293},{"NoteNumber":51,"Velocity":25,"Duration":353773,"SoundDuration":353773,"Delta":277781293},{"NoteNumber":85,"Velocity":53,"Duration":393081,"SoundDuration":393081,"Delta":278174374},{"NoteNumber":73,"Velocity":45,"Duration":393081,"SoundDuration":393081,"Delta":278174374},{"NoteNumber":39,"Velocity":20,"Duration":353773,"SoundDuration":353773,"Delta":278174374},{"NoteNumber":49,"Velocity":20,"Duration":353773,"SoundDuration":353773,"Delta":278174374},{"NoteNumber":51,"Velocity":26,"Duration":353773,"SoundDuration":353773,"Delta":278174374},{"NoteNumber":84,"Velocity":53,"Duration":393779,"SoundDuration":393779,"Delta":278567456},{"NoteNumber":72,"Velocity":45,"Duration":393779,"SoundDuration":393779,"Delta":278567456},{"NoteNumber":39,"Velocity":21,"Duration":354331,"SoundDuration":354331,"Delta":278567456},{"NoteNumber":49,"Velocity":21,"Duration":354331,"SoundDuration":354331,"Delta":278567456},{"NoteNumber":51,"Velocity":26,"Duration":354331,"SoundDuration":354331,"Delta":278567456},{"NoteNumber":82,"Velocity":52,"Duration":396748,"SoundDuration":396748,"Delta":278961236},{"NoteNumber":70,"Velocity":44,"Duration":396748,"SoundDuration":396748,"Delta":278961236},{"NoteNumber":39,"Velocity":21,"Duration":357002,"SoundDuration":357002,"Delta":278961236},{"NoteNumber":49,"Velocity":21,"Duration":357002,"SoundDuration":357002,"Delta":278961236},{"NoteNumber":51,"Velocity":27,"Duration":357002,"SoundDuration":357002,"Delta":278961236},{"NoteNumber":80,"Velocity":50,"Duration":400022,"SoundDuration":400022,"Delta":279357984},{"NoteNumber":68,"Velocity":42,"Duration":400022,"SoundDuration":400022,"Delta":279357984},{"NoteNumber":39,"Velocity":22,"Duration":359813,"SoundDuration":359813,"Delta":279357984},{"NoteNumber":49,"Velocity":22,"Duration":359813,"SoundDuration":359813,"Delta":279357984},{"NoteNumber":51,"Velocity":27,"Duration":359813,"SoundDuration":359813,"Delta":279357984},{"NoteNumber":67,"Velocity":43,"Duration":393081,"SoundDuration":393081,"Delta":279758007},{"NoteNumber":79,"Velocity":51,"Duration":393081,"SoundDuration":393081,"Delta":279758007},{"NoteNumber":39,"Velocity":20,"Duration":353773,"SoundDuration":353773,"Delta":279758007},{"NoteNumber":49,"Velocity":20,"Duration":353773,"SoundDuration":353773,"Delta":279758007},{"NoteNumber":51,"Velocity":25,"Duration":353773,"SoundDuration":353773,"Delta":279758007},{"NoteNumber":73,"Velocity":42,"Duration":393081,"SoundDuration":393081,"Delta":280151088},{"NoteNumber":85,"Velocity":50,"Duration":393081,"SoundDuration":393081,"Delta":280151088},{"NoteNumber":39,"Velocity":20,"Duration":353773,"SoundDuration":353773,"Delta":280151088},{"NoteNumber":49,"Velocity":20,"Duration":353773,"SoundDuration":353773,"Delta":280151088},{"NoteNumber":51,"Velocity":25,"Duration":353773,"SoundDuration":353773,"Delta":280151088},{"NoteNumber":67,"Velocity":44,"Duration":393081,"SoundDuration":393081,"Delta":280544170},{"NoteNumber":79,"Velocity":52,"Duration":393081,"SoundDuration":393081,"Delta":280544170},{"NoteNumber":39,"Velocity":20,"Duration":353773,"SoundDuration":353773,"Delta":280544170},{"NoteNumber":49,"Velocity":20,"Duration":353773,"SoundDuration":353773,"Delta":280544170},{"NoteNumber":51,"Velocity":25,"Duration":353773,"SoundDuration":353773,"Delta":280544170},{"NoteNumber":80,"Velocity":52,"Duration":1179245,"SoundDuration":1179245,"Delta":280937252},{"NoteNumber":68,"Velocity":44,"Duration":1179245,"SoundDuration":1179245,"Delta":280937252},{"NoteNumber":44,"Velocity":20,"Duration":1179245,"SoundDuration":1179245,"Delta":280937252},{"NoteNumber":48,"Velocity":20,"Duration":1179245,"SoundDuration":1179245,"Delta":280937252},{"NoteNumber":51,"Velocity":25,"Duration":1179245,"SoundDuration":1179245,"Delta":280937252},{"NoteNumber":75,"Velocity":52,"Duration":147405,"SoundDuration":147405,"Delta":283148337},{"NoteNumber":73,"Velocity":63,"Duration":393081,"SoundDuration":393081,"Delta":283295743},{"NoteNumber":63,"Velocity":44,"Duration":2408236,"SoundDuration":2408236,"Delta":283295743},{"NoteNumber":67,"Velocity":47,"Duration":2408236,"SoundDuration":2408236,"Delta":283295743},{"NoteNumber":72,"Velocity":55,"Duration":393081,"SoundDuration":393081,"Delta":283688825},{"NoteNumber":73,"Velocity":55,"Duration":393081,"SoundDuration":393081,"Delta":284081907},{"NoteNumber":77,"Velocity":58,"Duration":398317,"SoundDuration":398317,"Delta":284474989},{"NoteNumber":75,"Velocity":55,"Duration":410857,"SoundDuration":410857,"Delta":284873307},{"NoteNumber":73,"Velocity":54,"Duration":419815,"SoundDuration":419815,"Delta":285284164},{"NoteNumber":72,"Velocity":52,"Duration":1179245,"SoundDuration":1179245,"Delta":285703979},{"NoteNumber":56,"Velocity":44,"Duration":1179245,"SoundDuration":1179245,"Delta":285703979},{"NoteNumber":68,"Velocity":44,"Duration":1179245,"SoundDuration":1179245,"Delta":285703979},{"NoteNumber":72,"Velocity":54,"Duration":147405,"SoundDuration":147405,"Delta":287915065},{"NoteNumber":67,"Velocity":47,"Duration":2429311,"SoundDuration":2429311,"Delta":288062470},{"NoteNumber":70,"Velocity":64,"Duration":393081,"SoundDuration":393081,"Delta":288062470},{"NoteNumber":51,"Velocity":43,"Duration":2429311,"SoundDuration":2429311,"Delta":288062470},{"NoteNumber":61,"Velocity":45,"Duration":2429311,"SoundDuration":2429311,"Delta":288062470},{"NoteNumber":69,"Velocity":52,"Duration":393081,"SoundDuration":393081,"Delta":288455552},{"NoteNumber":70,"Velocity":52,"Duration":393081,"SoundDuration":393081,"Delta":288848634},{"NoteNumber":73,"Velocity":54,"Duration":400858,"SoundDuration":400858,"Delta":289241716},{"NoteNumber":72,"Velocity":52,"Duration":420758,"SoundDuration":420758,"Delta":289642575},{"NoteNumber":70,"Velocity":52,"Duration":428449,"SoundDuration":428449,"Delta":290063333},{"NoteNumber":68,"Velocity":46,"Duration":1179245,"SoundDuration":1179245,"Delta":290491782},{"NoteNumber":56,"Velocity":33,"Duration":1179245,"SoundDuration":1179245,"Delta":290491782},{"NoteNumber":60,"Velocity":39,"Duration":1179245,"SoundDuration":1179245,"Delta":290491782},{"NoteNumber":60,"Velocity":54,"Duration":147405,"SoundDuration":147405,"Delta":292702868},{"NoteNumber":58,"Velocity":64,"Duration":393081,"SoundDuration":393081,"Delta":292850273},{"NoteNumber":55,"Velocity":44,"Duration":2427532,"SoundDuration":2427532,"Delta":292850273},{"NoteNumber":39,"Velocity":37,"Duration":2427532,"SoundDuration":2427532,"Delta":292850273},{"NoteNumber":49,"Velocity":37,"Duration":2427532,"SoundDuration":2427532,"Delta":292850273},{"NoteNumber":57,"Velocity":48,"Duration":393081,"SoundDuration":393081,"Delta":293243355},{"NoteNumber":58,"Velocity":48,"Duration":393081,"SoundDuration":393081,"Delta":293636437},{"NoteNumber":61,"Velocity":50,"Duration":398182,"SoundDuration":398182,"Delta":294029519},{"NoteNumber":60,"Velocity":47,"Duration":415535,"SoundDuration":415535,"Delta":294427701},{"NoteNumber":58,"Velocity":44,"Duration":434568,"SoundDuration":434568,"Delta":294843237},{"NoteNumber":56,"Velocity":35,"Duration":875145,"SoundDuration":875145,"Delta":295277805},{"NoteNumber":44,"Velocity":25,"Duration":875145,"SoundDuration":875145,"Delta":295277805},{"NoteNumber":48,"Velocity":30,"Duration":875145,"SoundDuration":875145,"Delta":295277805},{"NoteNumber":48,"Velocity":28,"Duration":875145,"SoundDuration":875145,"Delta":297028097},{"NoteNumber":51,"Velocity":28,"Duration":875145,"SoundDuration":875145,"Delta":297028097},{"NoteNumber":56,"Velocity":35,"Duration":875145,"SoundDuration":875145,"Delta":297028097},{"NoteNumber":32,"Velocity":30,"Duration":875145,"SoundDuration":875145,"Delta":297028097},{"NoteNumber":44,"Velocity":28,"Duration":5253940,"SoundDuration":5253940,"Delta":298778388},{"NoteNumber":48,"Velocity":28,"Duration":5253940,"SoundDuration":5253940,"Delta":298778388},{"NoteNumber":56,"Velocity":35,"Duration":5253940,"SoundDuration":5253940,"Delta":298778388},{"NoteNumber":32,"Velocity":30,"Duration":5253940,"SoundDuration":5253940,"Delta":298778388}],"license":{"name":"Creative Commons Attribution-ShareAlike 3.0 Germany","url":"http://creativecommons.org/licenses/by-sa/3.0/de/deed.en","text":"The MIDI files in this folder were downloaded from http://www.piano-midi.de and are licensed under the Creative Commons Attribution-ShareAlike 3.0 Germany license by Bernd Krueger.\n\nThe MIDI, audio(MP3, OGG) and video files of Bernd Krueger are licensed under the cc-by-sa Germany License . This means, that you can use and adapt the files, as long as you attribute to the copyright holder Name: Bernd Krueger Source: http://www.piano-midi.de The distribution or public playback of the files is only allowed under identical license conditions . The scores are open source.","attribution":"Bernd Krueger","attributionUrl":"http://www.piano-midi.de"}}