{"title":"Piano Sonata No. 8 in C minor, Op. 13 'Pathétique': I. Grave - Allegro di molto e con brio","artist":"Beethoven","durationMs":558851,"midiSha256":"d1fc373b505acdb66f11bb973aa928f9990c4f0d13a654dd608f3b5a77ea4dde","midiObject":[{"NoteNumber":51,"Velocity":79,"Duration":4125000,"SoundDuration":4125000,"Delta":0},{"NoteNumber":55,"Velocity":79,"Duration":4125000,"SoundDuration":4125000,"Delta":0},{"NoteNumber":60,"Velocity":93,"Duration":4125000,"SoundDuration":4125000,"Delta":0},{"NoteNumber":36,"Velocity":70,"Duration":4125000,"SoundDuration":4125000,"Delta":0},{"NoteNumber":39,"Velocity":70,"Duration":4125000,"SoundDuration":4125000,"Delta":0},{"NoteNumber":43,"Velocity":70,"Duration":4125000,"SoundDuration":4125000,"Delta":0},{"NoteNumber":48,"Velocity":81,"Duration":4125000,"SoundDuration":4125000,"Delta":0},{"NoteNumber":55,"Velocity":40,"Duration":375000,"SoundDuration":375000,"Delta":4125000},{"NoteNumber":60,"Velocity":47,"Duration":375000,"SoundDuration":375000,"Delta":4125000},{"NoteNumber":51,"Velocity":36,"Duration":375000,"SoundDuration":375000,"Delta":4125000},{"NoteNumber":55,"Velocity":42,"Duration":1125000,"SoundDuration":1125000,"Delta":4500000},{"NoteNumber":59,"Velocity":42,"Duration":1125000,"SoundDuration":1125000,"Delta":4500000},{"NoteNumber":62,"Velocity":50,"Duration":1125000,"SoundDuration":1125000,"Delta":4500000},{"NoteNumber":50,"Velocity":41,"Duration":1125000,"SoundDuration":1125000,"Delta":4500000},{"NoteNumber":55,"Velocity":39,"Duration":397058,"SoundDuration":397058,"Delta":5625000},{"NoteNumber":60,"Velocity":46,"Duration":397058,"SoundDuration":397058,"Delta":5625000},{"NoteNumber":63,"Velocity":46,"Duration":397058,"SoundDuration":397058,"Delta":5625000},{"NoteNumber":48,"Velocity":36,"Duration":397058,"SoundDuration":397058,"Delta":5625000},{"NoteNumber":57,"Velocity":42,"Duration":3287671,"SoundDuration":3287671,"Delta":6066176},{"NoteNumber":60,"Velocity":50,"Duration":3287671,"SoundDuration":3287671,"Delta":6066176},{"NoteNumber":63,"Velocity":50,"Duration":3287671,"SoundDuration":3287671,"Delta":6066176},{"NoteNumber":54,"Velocity":39,"Duration":3287671,"SoundDuration":3287671,"Delta":6066176},{"NoteNumber":59,"Velocity":29,"Duration":1500000,"SoundDuration":1500000,"Delta":9353848},{"NoteNumber":62,"Velocity":36,"Duration":1500000,"SoundDuration":1500000,"Delta":9353848},{"NoteNumber":55,"Velocity":25,"Duration":1500000,"SoundDuration":1500000,"Delta":9353848},{"NoteNumber":44,"Velocity":89,"Duration":375000,"SoundDuration":375000,"Delta":11978848},{"NoteNumber":59,"Velocity":91,"Duration":4124999,"SoundDuration":4124999,"Delta":12353848},{"NoteNumber":62,"Velocity":91,"Duration":4124999,"SoundDuration":4124999,"Delta":12353848},{"NoteNumber":65,"Velocity":104,"Duration":4124999,"SoundDuration":4124999,"Delta":12353848},{"NoteNumber":56,"Velocity":93,"Duration":4124999,"SoundDuration":4124999,"Delta":12353848},{"NoteNumber":62,"Velocity":42,"Duration":337500,"SoundDuration":337500,"Delta":16478848},{"NoteNumber":59,"Velocity":42,"Duration":337500,"SoundDuration":337500,"Delta":16478848},{"NoteNumber":65,"Velocity":50,"Duration":337500,"SoundDuration":337500,"Delta":16478848},{"NoteNumber":56,"Velocity":38,"Duration":337500,"SoundDuration":337500,"Delta":16478848},{"NoteNumber":59,"Velocity":44,"Duration":1125000,"SoundDuration":1125000,"Delta":16853848},{"NoteNumber":62,"Velocity":44,"Duration":1125000,"SoundDuration":1125000,"Delta":16853848},{"NoteNumber":67,"Velocity":53,"Duration":1125000,"SoundDuration":1125000,"Delta":16853848},{"NoteNumber":55,"Velocity":43,"Duration":1125000,"SoundDuration":1125000,"Delta":16853848},{"NoteNumber":62,"Velocity":49,"Duration":391304,"SoundDuration":391304,"Delta":17978848},{"NoteNumber":68,"Velocity":49,"Duration":391304,"SoundDuration":391304,"Delta":17978848},{"NoteNumber":59,"Velocity":41,"Duration":391304,"SoundDuration":391304,"Delta":17978848},{"NoteNumber":53,"Velocity":38,"Duration":391304,"SoundDuration":391304,"Delta":17978848},{"NoteNumber":68,"Velocity":53,"Duration":3287672,"SoundDuration":3287672,"Delta":18413631},{"NoteNumber":59,"Velocity":44,"Duration":3287672,"SoundDuration":3287672,"Delta":18413631},{"NoteNumber":62,"Velocity":53,"Duration":3287672,"SoundDuration":3287672,"Delta":18413631},{"NoteNumber":51,"Velocity":37,"Duration":4787672,"SoundDuration":4787672,"Delta":18413631},{"NoteNumber":60,"Velocity":31,"Duration":1500000,"SoundDuration":1500000,"Delta":21701303},{"NoteNumber":67,"Velocity":38,"Duration":1500000,"SoundDuration":1500000,"Delta":21701303},{"NoteNumber":63,"Velocity":31,"Duration":1500000,"SoundDuration":1500000,"Delta":21701303},{"NoteNumber":51,"Velocity":86,"Duration":375000,"SoundDuration":375000,"Delta":24326303},{"NoteNumber":66,"Velocity":88,"Duration":4125000,"SoundDuration":4125000,"Delta":24701303},{"NoteNumber":69,"Velocity":88,"Duration":4125000,"SoundDuration":4125000,"Delta":24701303},{"NoteNumber":72,"Velocity":102,"Duration":4125000,"SoundDuration":4125000,"Delta":24701303},{"NoteNumber":63,"Velocity":91,"Duration":4125000,"SoundDuration":4125000,"Delta":24701303},{"NoteNumber":69,"Velocity":49,"Duration":337499,"SoundDuration":337499,"Delta":28826303},{"NoteNumber":66,"Velocity":49,"Duration":337499,"SoundDuration":337499,"Delta":28826303},{"NoteNumber":72,"Velocity":58,"Duration":337499,"SoundDuration":337499,"Delta":28826303},{"NoteNumber":63,"Velocity":45,"Duration":337499,"SoundDuration":337499,"Delta":28826303},{"NoteNumber":66,"Velocity":54,"Duration":1153846,"SoundDuration":1153846,"Delta":29201303},{"NoteNumber":69,"Velocity":54,"Duration":1153846,"SoundDuration":1153846,"Delta":29201303},{"NoteNumber":74,"Velocity":64,"Duration":1153846,"SoundDuration":1153846,"Delta":29201303},{"NoteNumber":62,"Velocity":52,"Duration":1153846,"SoundDuration":1153846,"Delta":29201303},{"NoteNumber":69,"Velocity":67,"Duration":375000,"SoundDuration":375000,"Delta":30355149},{"NoteNumber":75,"Velocity":67,"Duration":375000,"SoundDuration":375000,"Delta":30355149},{"NoteNumber":66,"Velocity":57,"Duration":375000,"SoundDuration":375000,"Delta":30355149},{"NoteNumber":60,"Velocity":52,"Duration":375000,"SoundDuration":375000,"Delta":30355149},{"NoteNumber":75,"Velocity":74,"Duration":3200000,"SoundDuration":3200000,"Delta":30771816},{"NoteNumber":66,"Velocity":62,"Duration":3200000,"SoundDuration":3200000,"Delta":30771816},{"NoteNumber":69,"Velocity":62,"Duration":3200000,"SoundDuration":3200000,"Delta":30771816},{"NoteNumber":60,"Velocity":65,"Duration":3200000,"SoundDuration":3200000,"Delta":30771816},{"NoteNumber":62,"Velocity":35,"Duration":375000,"SoundDuration":375000,"Delta":33971816},{"NoteNumber":74,"Velocity":42,"Duration":375000,"SoundDuration":375000,"Delta":33971816},{"NoteNumber":67,"Velocity":35,"Duration":375000,"SoundDuration":375000,"Delta":33971816},{"NoteNumber":59,"Velocity":35,"Duration":375000,"SoundDuration":375000,"Delta":33971816},{"NoteNumber":69,"Velocity":51,"Duration":337499,"SoundDuration":337499,"Delta":35096816},{"NoteNumber":66,"Velocity":51,"Duration":337499,"SoundDuration":337499,"Delta":35096816},{"NoteNumber":72,"Velocity":60,"Duration":337499,"SoundDuration":337499,"Delta":35096816},{"NoteNumber":63,"Velocity":47,"Duration":337499,"SoundDuration":337499,"Delta":35096816},{"NoteNumber":66,"Velocity":56,"Duration":1200000,"SoundDuration":1200000,"Delta":35471816},{"NoteNumber":69,"Velocity":56,"Duration":1200000,"SoundDuration":1200000,"Delta":35471816},{"NoteNumber":74,"Velocity":67,"Duration":1200000,"SoundDuration":1200000,"Delta":35471816},{"NoteNumber":62,"Velocity":54,"Duration":1200000,"SoundDuration":1200000,"Delta":35471816},{"NoteNumber":69,"Velocity":70,"Duration":359999,"SoundDuration":359999,"Delta":36671816},{"NoteNumber":75,"Velocity":70,"Duration":359999,"SoundDuration":359999,"Delta":36671816},{"NoteNumber":66,"Velocity":59,"Duration":359999,"SoundDuration":359999,"Delta":36671816},{"NoteNumber":60,"Velocity":54,"Duration":359999,"SoundDuration":359999,"Delta":36671816},{"NoteNumber":75,"Velocity":77,"Duration":3000000,"SoundDuration":3000000,"Delta":37071816},{"NoteNumber":66,"Velocity":65,"Duration":3000000,"SoundDuration":3000000,"Delta":37071816},{"NoteNumber":69,"Velocity":65,"Duration":3000000,"SoundDuration":3000000,"Delta":37071816},{"NoteNumber":60,"Velocity":71,"Duration":3000000,"SoundDuration":3000000,"Delta":37071816},{"NoteNumber":67,"Velocity":47,"Duration":1428570,"SoundDuration":1428570,"Delta":40071816},{"NoteNumber":74,"Velocity":55,"Duration":1428570,"SoundDuration":1428570,"Delta":40071816},{"NoteNumber":59,"Velocity":43,"Duration":1428570,"SoundDuration":1428570,"Delta":40071816},{"NoteNumber":62,"Velocity":51,"Duration":1428570,"SoundDuration":1428570,"Delta":40071816},{"NoteNumber":67,"Velocity":53,"Duration":1643836,"SoundDuration":1643836,"Delta":41500387},{"NoteNumber":72,"Velocity":53,"Duration":1643836,"SoundDuration":1643836,"Delta":41500387},{"NoteNumber":76,"Velocity":63,"Duration":1643836,"SoundDuration":1643836,"Delta":41500387},{"NoteNumber":64,"Velocity":57,"Duration":1643836,"SoundDuration":1643836,"Delta":41500387},{"NoteNumber":58,"Velocity":48,"Duration":1643836,"SoundDuration":1643836,"Delta":41500387},{"NoteNumber":60,"Velocity":48,"Duration":1643836,"SoundDuration":1643836,"Delta":41500387},{"NoteNumber":68,"Velocity":58,"Duration":705882,"SoundDuration":705882,"Delta":43144223},{"NoteNumber":72,"Velocity":58,"Duration":705882,"SoundDuration":705882,"Delta":43144223},{"NoteNumber":77,"Velocity":70,"Duration":705882,"SoundDuration":705882,"Delta":43144223},{"NoteNumber":65,"Velocity":64,"Duration":705882,"SoundDuration":705882,"Delta":43144223},{"NoteNumber":60,"Velocity":53,"Duration":705882,"SoundDuration":705882,"Delta":43144223},{"NoteNumber":56,"Velocity":53,"Duration":705882,"SoundDuration":705882,"Delta":43144223},{"NoteNumber":80,"Velocity":84,"Duration":1922535,"SoundDuration":1922535,"Delta":44555988},{"NoteNumber":34,"Velocity":84,"Duration":3154646,"SoundDuration":3154646,"Delta":46055988},{"NoteNumber":46,"Velocity":84,"Duration":3154646,"SoundDuration":3154646,"Delta":46055988},{"NoteNumber":79,"Velocity":61,"Duration":189082,"SoundDuration":189082,"Delta":46478523},{"NoteNumber":80,"Velocity":63,"Duration":185185,"SoundDuration":185185,"Delta":46667605},{"NoteNumber":82,"Velocity":65,"Duration":184432,"SoundDuration":184432,"Delta":46852790},{"NoteNumber":80,"Velocity":67,"Duration":181457,"SoundDuration":181457,"Delta":47037223},{"NoteNumber":79,"Velocity":67,"Duration":177871,"SoundDuration":177871,"Delta":47218680},{"NoteNumber":77,"Velocity":67,"Duration":175102,"SoundDuration":175102,"Delta":47396551},{"NoteNumber":75,"Velocity":67,"Duration":177888,"SoundDuration":177888,"Delta":47571654},{"NoteNumber":74,"Velocity":67,"Duration":183697,"SoundDuration":183697,"Delta":47749542},{"NoteNumber":72,"Velocity":67,"Duration":191517,"SoundDuration":191517,"Delta":47933240},{"NoteNumber":70,"Velocity":67,"Duration":198268,"SoundDuration":198268,"Delta":48124757},{"NoteNumber":68,"Velocity":63,"Duration":91540,"SoundDuration":91540,"Delta":48323026},{"NoteNumber":67,"Velocity":62,"Duration":93131,"SoundDuration":93131,"Delta":48414566},{"NoteNumber":65,"Velocity":60,"Duration":94827,"SoundDuration":94827,"Delta":48507697},{"NoteNumber":63,"Velocity":59,"Duration":97268,"SoundDuration":97268,"Delta":48602525},{"NoteNumber":62,"Velocity":58,"Duration":100087,"SoundDuration":100087,"Delta":48699794},{"NoteNumber":65,"Velocity":57,"Duration":102106,"SoundDuration":102106,"Delta":48799881},{"NoteNumber":68,"Velocity":55,"Duration":104387,"SoundDuration":104387,"Delta":48901988},{"NoteNumber":65,"Velocity":54,"Duration":107484,"SoundDuration":107484,"Delta":49006375},{"NoteNumber":62,"Velocity":53,"Duration":96774,"SoundDuration":96774,"Delta":49113860},{"NoteNumber":63,"Velocity":50,"Duration":750000,"SoundDuration":750000,"Delta":49210634},{"NoteNumber":39,"Velocity":45,"Duration":712499,"SoundDuration":712499,"Delta":49210634},{"NoteNumber":51,"Velocity":50,"Duration":712499,"SoundDuration":712499,"Delta":49210634},{"NoteNumber":51,"Velocity":22,"Duration":712499,"SoundDuration":712499,"Delta":49960634},{"NoteNumber":55,"Velocity":27,"Duration":712499,"SoundDuration":712499,"Delta":49960634},{"NoteNumber":58,"Velocity":32,"Duration":712499,"SoundDuration":712499,"Delta":49960634},{"NoteNumber":63,"Velocity":46,"Duration":2625000,"SoundDuration":2625000,"Delta":50710634},{"NoteNumber":75,"Velocity":55,"Duration":2625000,"SoundDuration":2625000,"Delta":50710634},{"NoteNumber":51,"Velocity":22,"Duration":712499,"SoundDuration":712499,"Delta":50710634},{"NoteNumber":55,"Velocity":27,"Duration":712499,"SoundDuration":712499,"Delta":50710634},{"NoteNumber":58,"Velocity":32,"Duration":712499,"SoundDuration":712499,"Delta":50710634},{"NoteNumber":51,"Velocity":22,"Duration":712499,"SoundDuration":712499,"Delta":51460634},{"NoteNumber":55,"Velocity":27,"Duration":712499,"SoundDuration":712499,"Delta":51460634},{"NoteNumber":58,"Velocity":32,"Duration":712499,"SoundDuration":712499,"Delta":51460634},{"NoteNumber":51,"Velocity":22,"Duration":712499,"SoundDuration":712499,"Delta":52210634},{"NoteNumber":55,"Velocity":27,"Duration":712499,"SoundDuration":712499,"Delta":52210634},{"NoteNumber":58,"Velocity":32,"Duration":712499,"SoundDuration":712499,"Delta":52210634},{"NoteNumber":51,"Velocity":22,"Duration":712499,"SoundDuration":712499,"Delta":52960634},{"NoteNumber":55,"Velocity":27,"Duration":712499,"SoundDuration":712499,"Delta":52960634},{"NoteNumber":58,"Velocity":32,"Duration":712499,"SoundDuration":712499,"Delta":52960634},{"NoteNumber":63,"Velocity":46,"Duration":375000,"SoundDuration":375000,"Delta":53335634},{"NoteNumber":75,"Velocity":55,"Duration":375000,"SoundDuration":375000,"Delta":53335634},{"NoteNumber":65,"Velocity":48,"Duration":1125000,"SoundDuration":1125000,"Delta":53710634},{"NoteNumber":77,"Velocity":57,"Duration":1125000,"SoundDuration":1125000,"Delta":53710634},{"NoteNumber":51,"Velocity":22,"Duration":712499,"SoundDuration":712499,"Delta":53710634},{"NoteNumber":55,"Velocity":27,"Duration":712499,"SoundDuration":712499,"Delta":53710634},{"NoteNumber":58,"Velocity":32,"Duration":712499,"SoundDuration":712499,"Delta":53710634},{"NoteNumber":51,"Velocity":22,"Duration":750000,"SoundDuration":750000,"Delta":54460634},{"NoteNumber":55,"Velocity":27,"Duration":750000,"SoundDuration":750000,"Delta":54460634},{"NoteNumber":58,"Velocity":32,"Duration":750000,"SoundDuration":750000,"Delta":54460634},{"NoteNumber":67,"Velocity":49,"Duration":395833,"SoundDuration":395833,"Delta":54835634},{"NoteNumber":79,"Velocity":59,"Duration":395833,"SoundDuration":395833,"Delta":54835634},{"NoteNumber":67,"Velocity":49,"Duration":1500000,"SoundDuration":1500000,"Delta":55252301},{"NoteNumber":79,"Velocity":59,"Duration":1500000,"SoundDuration":1500000,"Delta":55252301},{"NoteNumber":51,"Velocity":23,"Duration":712499,"SoundDuration":712499,"Delta":55252301},{"NoteNumber":56,"Velocity":27,"Duration":712499,"SoundDuration":712499,"Delta":55252301},{"NoteNumber":60,"Velocity":33,"Duration":712499,"SoundDuration":712499,"Delta":55252301},{"NoteNumber":51,"Velocity":24,"Duration":712499,"SoundDuration":712499,"Delta":56002301},{"NoteNumber":56,"Velocity":28,"Duration":712499,"SoundDuration":712499,"Delta":56002301},{"NoteNumber":60,"Velocity":34,"Duration":712499,"SoundDuration":712499,"Delta":56002301},{"NoteNumber":65,"Velocity":42,"Duration":750000,"SoundDuration":750000,"Delta":56752301},{"NoteNumber":77,"Velocity":50,"Duration":750000,"SoundDuration":750000,"Delta":56752301},{"NoteNumber":51,"Velocity":24,"Duration":712499,"SoundDuration":712499,"Delta":56752301},{"NoteNumber":56,"Velocity":28,"Duration":712499,"SoundDuration":712499,"Delta":56752301},{"NoteNumber":60,"Velocity":34,"Duration":712499,"SoundDuration":712499,"Delta":56752301},{"NoteNumber":51,"Velocity":24,"Duration":712499,"SoundDuration":712499,"Delta":57502301},{"NoteNumber":56,"Velocity":28,"Duration":712499,"SoundDuration":712499,"Delta":57502301},{"NoteNumber":60,"Velocity":34,"Duration":712499,"SoundDuration":712499,"Delta":57502301},{"NoteNumber":65,"Velocity":90,"Duration":375000,"SoundDuration":375000,"Delta":57877301},{"NoteNumber":53,"Velocity":81,"Duration":1084337,"SoundDuration":1084337,"Delta":58252301},{"NoteNumber":56,"Velocity":81,"Duration":1084337,"SoundDuration":1084337,"Delta":58252301},{"NoteNumber":59,"Velocity":81,"Duration":1084337,"SoundDuration":1084337,"Delta":58252301},{"NoteNumber":65,"Velocity":96,"Duration":1084337,"SoundDuration":1084337,"Delta":58252301},{"NoteNumber":38,"Velocity":68,"Duration":686746,"SoundDuration":686746,"Delta":58252301},{"NoteNumber":50,"Velocity":81,"Duration":686746,"SoundDuration":686746,"Delta":58252301},{"NoteNumber":38,"Velocity":68,"Duration":686746,"SoundDuration":686746,"Delta":58975192},{"NoteNumber":50,"Velocity":81,"Duration":686746,"SoundDuration":686746,"Delta":58975192},{"NoteNumber":53,"Velocity":74,"Duration":343373,"SoundDuration":343373,"Delta":59336638},{"NoteNumber":56,"Velocity":74,"Duration":343373,"SoundDuration":343373,"Delta":59336638},{"NoteNumber":59,"Velocity":74,"Duration":343373,"SoundDuration":343373,"Delta":59336638},{"NoteNumber":65,"Velocity":89,"Duration":343373,"SoundDuration":343373,"Delta":59336638},{"NoteNumber":53,"Velocity":79,"Duration":1084337,"SoundDuration":1084337,"Delta":59698084},{"NoteNumber":56,"Velocity":79,"Duration":1084337,"SoundDuration":1084337,"Delta":59698084},{"NoteNumber":60,"Velocity":79,"Duration":1084337,"SoundDuration":1084337,"Delta":59698084},{"NoteNumber":65,"Velocity":93,"Duration":1084337,"SoundDuration":1084337,"Delta":59698084},{"NoteNumber":36,"Velocity":68,"Duration":686746,"SoundDuration":686746,"Delta":59698084},{"NoteNumber":48,"Velocity":81,"Duration":686746,"SoundDuration":686746,"Delta":59698084},{"NoteNumber":36,"Velocity":68,"Duration":712095,"SoundDuration":712095,"Delta":60420975},{"NoteNumber":48,"Velocity":81,"Duration":712095,"SoundDuration":712095,"Delta":60420975},{"NoteNumber":53,"Velocity":79,"Duration":370129,"SoundDuration":370129,"Delta":60782421},{"NoteNumber":56,"Velocity":79,"Duration":370129,"SoundDuration":370129,"Delta":60782421},{"NoteNumber":60,"Velocity":79,"Duration":370129,"SoundDuration":370129,"Delta":60782421},{"NoteNumber":65,"Velocity":93,"Duration":370129,"SoundDuration":370129,"Delta":60782421},{"NoteNumber":53,"Velocity":79,"Duration":1462499,"SoundDuration":1462499,"Delta":61172032},{"NoteNumber":56,"Velocity":79,"Duration":1462499,"SoundDuration":1462499,"Delta":61172032},{"NoteNumber":62,"Velocity":79,"Duration":1500000,"SoundDuration":1500000,"Delta":61172032},{"NoteNumber":65,"Velocity":93,"Duration":1500000,"SoundDuration":1500000,"Delta":61172032},{"NoteNumber":35,"Velocity":68,"Duration":712499,"SoundDuration":712499,"Delta":61172032},{"NoteNumber":47,"Velocity":81,"Duration":712499,"SoundDuration":712499,"Delta":61172032},{"NoteNumber":47,"Velocity":18,"Duration":712499,"SoundDuration":712499,"Delta":61922032},{"NoteNumber":50,"Velocity":18,"Duration":712499,"SoundDuration":712499,"Delta":61922032},{"NoteNumber":53,"Velocity":23,"Duration":750000,"SoundDuration":750000,"Delta":61922032},{"NoteNumber":56,"Velocity":28,"Duration":750000,"SoundDuration":750000,"Delta":61922032},{"NoteNumber":65,"Velocity":46,"Duration":2625000,"SoundDuration":2625000,"Delta":62672032},{"NoteNumber":77,"Velocity":55,"Duration":2625000,"SoundDuration":2625000,"Delta":62672032},{"NoteNumber":47,"Velocity":18,"Duration":712499,"SoundDuration":712499,"Delta":62672032},{"NoteNumber":50,"Velocity":18,"Duration":712499,"SoundDuration":712499,"Delta":62672032},{"NoteNumber":53,"Velocity":23,"Duration":712499,"SoundDuration":712499,"Delta":62672032},{"NoteNumber":56,"Velocity":28,"Duration":712499,"SoundDuration":712499,"Delta":62672032},{"NoteNumber":47,"Velocity":18,"Duration":712500,"SoundDuration":712500,"Delta":63422032},{"NoteNumber":50,"Velocity":18,"Duration":712500,"SoundDuration":712500,"Delta":63422032},{"NoteNumber":53,"Velocity":23,"Duration":712500,"SoundDuration":712500,"Delta":63422032},{"NoteNumber":56,"Velocity":28,"Duration":712500,"SoundDuration":712500,"Delta":63422032},{"NoteNumber":46,"Velocity":18,"Duration":712500,"SoundDuration":712500,"Delta":64172032},{"NoteNumber":50,"Velocity":18,"Duration":712500,"SoundDuration":712500,"Delta":64172032},{"NoteNumber":53,"Velocity":23,"Duration":712500,"SoundDuration":712500,"Delta":64172032},{"NoteNumber":56,"Velocity":28,"Duration":712500,"SoundDuration":712500,"Delta":64172032},{"NoteNumber":46,"Velocity":18,"Duration":712500,"SoundDuration":712500,"Delta":64922032},{"NoteNumber":50,"Velocity":18,"Duration":712500,"SoundDuration":712500,"Delta":64922032},{"NoteNumber":53,"Velocity":23,"Duration":712500,"SoundDuration":712500,"Delta":64922032},{"NoteNumber":56,"Velocity":28,"Duration":712500,"SoundDuration":712500,"Delta":64922032},{"NoteNumber":65,"Velocity":46,"Duration":375000,"SoundDuration":375000,"Delta":65297032},{"NoteNumber":77,"Velocity":55,"Duration":375000,"SoundDuration":375000,"Delta":65297032},{"NoteNumber":67,"Velocity":48,"Duration":1125000,"SoundDuration":1125000,"Delta":65672032},{"NoteNumber":79,"Velocity":57,"Duration":1125000,"SoundDuration":1125000,"Delta":65672032},{"NoteNumber":46,"Velocity":18,"Duration":712500,"SoundDuration":712500,"Delta":65672032},{"NoteNumber":50,"Velocity":18,"Duration":712500,"SoundDuration":712500,"Delta":65672032},{"NoteNumber":53,"Velocity":23,"Duration":712500,"SoundDuration":712500,"Delta":65672032},{"NoteNumber":56,"Velocity":28,"Duration":712500,"SoundDuration":712500,"Delta":65672032},{"NoteNumber":46,"Velocity":18,"Duration":750000,"SoundDuration":750000,"Delta":66422032},{"NoteNumber":50,"Velocity":18,"Duration":750000,"SoundDuration":750000,"Delta":66422032},{"NoteNumber":53,"Velocity":23,"Duration":750000,"SoundDuration":750000,"Delta":66422032},{"NoteNumber":56,"Velocity":28,"Duration":750000,"SoundDuration":750000,"Delta":66422032},{"NoteNumber":68,"Velocity":49,"Duration":395833,"SoundDuration":395833,"Delta":66797032},{"NoteNumber":80,"Velocity":59,"Duration":395833,"SoundDuration":395833,"Delta":66797032},{"NoteNumber":68,"Velocity":49,"Duration":1500000,"SoundDuration":1500000,"Delta":67213698},{"NoteNumber":80,"Velocity":59,"Duration":1500000,"SoundDuration":1500000,"Delta":67213698},{"NoteNumber":46,"Velocity":19,"Duration":712500,"SoundDuration":712500,"Delta":67213698},{"NoteNumber":49,"Velocity":19,"Duration":712500,"SoundDuration":712500,"Delta":67213698},{"NoteNumber":52,"Velocity":24,"Duration":712500,"SoundDuration":712500,"Delta":67213698},{"NoteNumber":55,"Velocity":28,"Duration":712500,"SoundDuration":712500,"Delta":67213698},{"NoteNumber":46,"Velocity":19,"Duration":712500,"SoundDuration":712500,"Delta":67963698},{"NoteNumber":49,"Velocity":19,"Duration":712500,"SoundDuration":712500,"Delta":67963698},{"NoteNumber":52,"Velocity":25,"Duration":712500,"SoundDuration":712500,"Delta":67963698},{"NoteNumber":55,"Velocity":29,"Duration":712500,"SoundDuration":712500,"Delta":67963698},{"NoteNumber":67,"Velocity":46,"Duration":750000,"SoundDuration":750000,"Delta":68713698},{"NoteNumber":79,"Velocity":55,"Duration":750000,"SoundDuration":750000,"Delta":68713698},{"NoteNumber":46,"Velocity":19,"Duration":712500,"SoundDuration":712500,"Delta":68713698},{"NoteNumber":49,"Velocity":19,"Duration":712500,"SoundDuration":712500,"Delta":68713698},{"NoteNumber":52,"Velocity":25,"Duration":712500,"SoundDuration":712500,"Delta":68713698},{"NoteNumber":55,"Velocity":29,"Duration":712500,"SoundDuration":712500,"Delta":68713698},{"NoteNumber":46,"Velocity":19,"Duration":712500,"SoundDuration":712500,"Delta":69463698},{"NoteNumber":49,"Velocity":19,"Duration":712500,"SoundDuration":712500,"Delta":69463698},{"NoteNumber":52,"Velocity":25,"Duration":712500,"SoundDuration":712500,"Delta":69463698},{"NoteNumber":55,"Velocity":29,"Duration":712500,"SoundDuration":712500,"Delta":69463698},{"NoteNumber":55,"Velocity":75,"Duration":375000,"SoundDuration":375000,"Delta":69838698},{"NoteNumber":61,"Velocity":75,"Duration":375000,"SoundDuration":375000,"Delta":69838698},{"NoteNumber":64,"Velocity":75,"Duration":375000,"SoundDuration":375000,"Delta":69838698},{"NoteNumber":67,"Velocity":90,"Duration":375000,"SoundDuration":375000,"Delta":69838698},{"NoteNumber":57,"Velocity":81,"Duration":1084337,"SoundDuration":1084337,"Delta":70213698},{"NoteNumber":61,"Velocity":81,"Duration":1084337,"SoundDuration":1084337,"Delta":70213698},{"NoteNumber":63,"Velocity":81,"Duration":1084337,"SoundDuration":1084337,"Delta":70213698},{"NoteNumber":69,"Velocity":96,"Duration":1084337,"SoundDuration":1084337,"Delta":70213698},{"NoteNumber":33,"Velocity":68,"Duration":686746,"SoundDuration":686746,"Delta":70213698},{"NoteNumber":45,"Velocity":81,"Duration":686746,"SoundDuration":686746,"Delta":70213698},{"NoteNumber":33,"Velocity":68,"Duration":686746,"SoundDuration":686746,"Delta":70936590},{"NoteNumber":45,"Velocity":81,"Duration":686746,"SoundDuration":686746,"Delta":70936590},{"NoteNumber":57,"Velocity":74,"Duration":343373,"SoundDuration":343373,"Delta":71298036},{"NoteNumber":61,"Velocity":74,"Duration":343373,"SoundDuration":343373,"Delta":71298036},{"NoteNumber":63,"Velocity":74,"Duration":343373,"SoundDuration":343373,"Delta":71298036},{"NoteNumber":69,"Velocity":89,"Duration":343373,"SoundDuration":343373,"Delta":71298036},{"NoteNumber":58,"Velocity":79,"Duration":1084337,"SoundDuration":1084337,"Delta":71659481},{"NoteNumber":61,"Velocity":79,"Duration":1084337,"SoundDuration":1084337,"Delta":71659481},{"NoteNumber":63,"Velocity":79,"Duration":1084337,"SoundDuration":1084337,"Delta":71659481},{"NoteNumber":70,"Velocity":93,"Duration":1084337,"SoundDuration":1084337,"Delta":71659481},{"NoteNumber":31,"Velocity":68,"Duration":686746,"SoundDuration":686746,"Delta":71659481},{"NoteNumber":43,"Velocity":81,"Duration":686746,"SoundDuration":686746,"Delta":71659481},{"NoteNumber":31,"Velocity":68,"Duration":686746,"SoundDuration":686746,"Delta":72382373},{"NoteNumber":43,"Velocity":81,"Duration":686746,"SoundDuration":686746,"Delta":72382373},{"NoteNumber":58,"Velocity":79,"Duration":343373,"SoundDuration":343373,"Delta":72743819},{"NoteNumber":61,"Velocity":79,"Duration":343373,"SoundDuration":343373,"Delta":72743819},{"NoteNumber":63,"Velocity":79,"Duration":343373,"SoundDuration":343373,"Delta":72743819},{"NoteNumber":70,"Velocity":93,"Duration":343373,"SoundDuration":343373,"Delta":72743819},{"NoteNumber":57,"Velocity":79,"Duration":1444443,"SoundDuration":1444443,"Delta":73105264},{"NoteNumber":62,"Velocity":79,"Duration":1444443,"SoundDuration":1444443,"Delta":73105264},{"NoteNumber":66,"Velocity":79,"Duration":1481481,"SoundDuration":1481481,"Delta":73105264},{"NoteNumber":69,"Velocity":93,"Duration":1481481,"SoundDuration":1481481,"Delta":73105264},{"NoteNumber":30,"Velocity":68,"Duration":703703,"SoundDuration":703703,"Delta":73105264},{"NoteNumber":42,"Velocity":81,"Duration":703703,"SoundDuration":703703,"Delta":73105264},{"NoteNumber":54,"Velocity":24,"Duration":703703,"SoundDuration":703703,"Delta":73846005},{"NoteNumber":57,"Velocity":28,"Duration":740740,"SoundDuration":740740,"Delta":73846005},{"NoteNumber":62,"Velocity":34,"Duration":740740,"SoundDuration":740740,"Delta":73846005},{"NoteNumber":69,"Velocity":46,"Duration":2592591,"SoundDuration":2592591,"Delta":74586745},{"NoteNumber":81,"Velocity":55,"Duration":2592591,"SoundDuration":2592591,"Delta":74586745},{"NoteNumber":54,"Velocity":24,"Duration":703703,"SoundDuration":703703,"Delta":74586745},{"NoteNumber":57,"Velocity":28,"Duration":703703,"SoundDuration":703703,"Delta":74586745},{"NoteNumber":62,"Velocity":34,"Duration":703703,"SoundDuration":703703,"Delta":74586745},{"NoteNumber":54,"Velocity":24,"Duration":703703,"SoundDuration":703703,"Delta":75327486},{"NoteNumber":57,"Velocity":28,"Duration":703703,"SoundDuration":703703,"Delta":75327486},{"NoteNumber":62,"Velocity":34,"Duration":703703,"SoundDuration":703703,"Delta":75327486},{"NoteNumber":54,"Velocity":24,"Duration":703703,"SoundDuration":703703,"Delta":76068226},{"NoteNumber":57,"Velocity":28,"Duration":703703,"SoundDuration":703703,"Delta":76068226},{"NoteNumber":62,"Velocity":34,"Duration":703703,"SoundDuration":703703,"Delta":76068226},{"NoteNumber":54,"Velocity":24,"Duration":703703,"SoundDuration":703703,"Delta":76808967},{"NoteNumber":57,"Velocity":28,"Duration":703703,"SoundDuration":703703,"Delta":76808967},{"NoteNumber":62,"Velocity":34,"Duration":703703,"SoundDuration":703703,"Delta":76808967},{"NoteNumber":69,"Velocity":46,"Duration":370370,"SoundDuration":370370,"Delta":77179337},{"NoteNumber":81,"Velocity":55,"Duration":370370,"SoundDuration":370370,"Delta":77179337},{"NoteNumber":71,"Velocity":48,"Duration":1111110,"SoundDuration":1111110,"Delta":77549707},{"NoteNumber":83,"Velocity":57,"Duration":1111110,"SoundDuration":1111110,"Delta":77549707},{"NoteNumber":54,"Velocity":24,"Duration":703703,"SoundDuration":703703,"Delta":77549707},{"NoteNumber":57,"Velocity":28,"Duration":703703,"SoundDuration":703703,"Delta":77549707},{"NoteNumber":62,"Velocity":34,"Duration":703703,"SoundDuration":703703,"Delta":77549707},{"NoteNumber":54,"Velocity":24,"Duration":745370,"SoundDuration":745370,"Delta":78290448},{"NoteNumber":57,"Velocity":28,"Duration":745370,"SoundDuration":745370,"Delta":78290448},{"NoteNumber":62,"Velocity":34,"Duration":745370,"SoundDuration":745370,"Delta":78290448},{"NoteNumber":72,"Velocity":49,"Duration":395833,"SoundDuration":395833,"Delta":78660818},{"NoteNumber":84,"Velocity":59,"Duration":395833,"SoundDuration":395833,"Delta":78660818},{"NoteNumber":72,"Velocity":49,"Duration":1500000,"SoundDuration":1500000,"Delta":79077485},{"NoteNumber":84,"Velocity":59,"Duration":1500000,"SoundDuration":1500000,"Delta":79077485},{"NoteNumber":53,"Velocity":25,"Duration":712500,"SoundDuration":712500,"Delta":79077485},{"NoteNumber":56,"Velocity":29,"Duration":712500,"SoundDuration":712500,"Delta":79077485},{"NoteNumber":62,"Velocity":35,"Duration":712500,"SoundDuration":712500,"Delta":79077485},{"NoteNumber":53,"Velocity":25,"Duration":712500,"SoundDuration":712500,"Delta":79827485},{"NoteNumber":56,"Velocity":30,"Duration":712500,"SoundDuration":712500,"Delta":79827485},{"NoteNumber":62,"Velocity":36,"Duration":712500,"SoundDuration":712500,"Delta":79827485},{"NoteNumber":71,"Velocity":46,"Duration":722891,"SoundDuration":722891,"Delta":80577485},{"NoteNumber":83,"Velocity":55,"Duration":722891,"SoundDuration":722891,"Delta":80577485},{"NoteNumber":53,"Velocity":25,"Duration":686746,"SoundDuration":686746,"Delta":80577485},{"NoteNumber":56,"Velocity":30,"Duration":686746,"SoundDuration":686746,"Delta":80577485},{"NoteNumber":62,"Velocity":36,"Duration":686746,"SoundDuration":686746,"Delta":80577485},{"NoteNumber":53,"Velocity":25,"Duration":686746,"SoundDuration":686746,"Delta":81300376},{"NoteNumber":56,"Velocity":30,"Duration":686746,"SoundDuration":686746,"Delta":81300376},{"NoteNumber":62,"Velocity":36,"Duration":686746,"SoundDuration":686746,"Delta":81300376},{"NoteNumber":50,"Velocity":35,"Duration":695122,"SoundDuration":695122,"Delta":82023268},{"NoteNumber":53,"Velocity":42,"Duration":695122,"SoundDuration":695122,"Delta":82023268},{"NoteNumber":59,"Velocity":50,"Duration":695122,"SoundDuration":695122,"Delta":82023268},{"NoteNumber":50,"Velocity":35,"Duration":685742,"SoundDuration":685742,"Delta":82754975},{"NoteNumber":53,"Velocity":42,"Duration":685742,"SoundDuration":685742,"Delta":82754975},{"NoteNumber":59,"Velocity":50,"Duration":685742,"SoundDuration":685742,"Delta":82754975},{"NoteNumber":71,"Velocity":71,"Duration":1081854,"SoundDuration":1081854,"Delta":83476433},{"NoteNumber":83,"Velocity":71,"Duration":1081854,"SoundDuration":1081854,"Delta":83476433},{"NoteNumber":50,"Velocity":35,"Duration":676190,"SoundDuration":676190,"Delta":83476433},{"NoteNumber":53,"Velocity":42,"Duration":676190,"SoundDuration":676190,"Delta":83476433},{"NoteNumber":59,"Velocity":50,"Duration":676190,"SoundDuration":676190,"Delta":83476433},{"NoteNumber":50,"Velocity":35,"Duration":703703,"SoundDuration":703703,"Delta":84187917},{"NoteNumber":53,"Velocity":42,"Duration":703703,"SoundDuration":703703,"Delta":84187917},{"NoteNumber":59,"Velocity":50,"Duration":703703,"SoundDuration":703703,"Delta":84187917},{"NoteNumber":72,"Velocity":62,"Duration":370370,"SoundDuration":370370,"Delta":84558287},{"NoteNumber":84,"Velocity":74,"Duration":370370,"SoundDuration":370370,"Delta":84558287},{"NoteNumber":73,"Velocity":80,"Duration":1463414,"SoundDuration":1463414,"Delta":84928658},{"NoteNumber":85,"Velocity":80,"Duration":1463414,"SoundDuration":1463414,"Delta":84928658},{"NoteNumber":47,"Velocity":47,"Duration":695122,"SoundDuration":695122,"Delta":84928658},{"NoteNumber":50,"Velocity":47,"Duration":695122,"SoundDuration":695122,"Delta":84928658},{"NoteNumber":56,"Velocity":56,"Duration":695122,"SoundDuration":695122,"Delta":84928658},{"NoteNumber":47,"Velocity":49,"Duration":695122,"SoundDuration":695122,"Delta":85660365},{"NoteNumber":50,"Velocity":49,"Duration":695122,"SoundDuration":695122,"Delta":85660365},{"NoteNumber":56,"Velocity":58,"Duration":695122,"SoundDuration":695122,"Delta":85660365},{"NoteNumber":74,"Velocity":85,"Duration":1395348,"SoundDuration":1395348,"Delta":86392073},{"NoteNumber":86,"Velocity":85,"Duration":1395348,"SoundDuration":1395348,"Delta":86392073},{"NoteNumber":47,"Velocity":44,"Duration":662790,"SoundDuration":662790,"Delta":86392073},{"NoteNumber":50,"Velocity":44,"Duration":662790,"SoundDuration":662790,"Delta":86392073},{"NoteNumber":56,"Velocity":52,"Duration":662790,"SoundDuration":662790,"Delta":86392073},{"NoteNumber":47,"Velocity":44,"Duration":662790,"SoundDuration":662790,"Delta":87089747},{"NoteNumber":50,"Velocity":44,"Duration":662790,"SoundDuration":662790,"Delta":87089747},{"NoteNumber":56,"Velocity":52,"Duration":662790,"SoundDuration":662790,"Delta":87089747},{"NoteNumber":44,"Velocity":45,"Duration":662790,"SoundDuration":662790,"Delta":87787422},{"NoteNumber":47,"Velocity":53,"Duration":662790,"SoundDuration":662790,"Delta":87787422},{"NoteNumber":53,"Velocity":63,"Duration":662790,"SoundDuration":662790,"Delta":87787422},{"NoteNumber":44,"Velocity":45,"Duration":678571,"SoundDuration":678571,"Delta":88485096},{"NoteNumber":47,"Velocity":53,"Duration":678571,"SoundDuration":678571,"Delta":88485096},{"NoteNumber":53,"Velocity":63,"Duration":678571,"SoundDuration":678571,"Delta":88485096},{"NoteNumber":74,"Velocity":90,"Duration":1071428,"SoundDuration":1071428,"Delta":89199382},{"NoteNumber":86,"Velocity":91,"Duration":1071428,"SoundDuration":1071428,"Delta":89199382},{"NoteNumber":44,"Velocity":45,"Duration":678571,"SoundDuration":678571,"Delta":89199382},{"NoteNumber":47,"Velocity":53,"Duration":678571,"SoundDuration":678571,"Delta":89199382},{"NoteNumber":53,"Velocity":63,"Duration":678571,"SoundDuration":678571,"Delta":89199382},{"NoteNumber":44,"Velocity":45,"Duration":717142,"SoundDuration":717142,"Delta":89913667},{"NoteNumber":47,"Velocity":53,"Duration":717142,"SoundDuration":717142,"Delta":89913667},{"NoteNumber":53,"Velocity":63,"Duration":717142,"SoundDuration":717142,"Delta":89913667},{"NoteNumber":75,"Velocity":80,"Duration":400000,"SoundDuration":400000,"Delta":90270810},{"NoteNumber":87,"Velocity":82,"Duration":400000,"SoundDuration":400000,"Delta":90270810},{"NoteNumber":76,"Velocity":88,"Duration":1428571,"SoundDuration":1428571,"Delta":90670810},{"NoteNumber":88,"Velocity":88,"Duration":1428571,"SoundDuration":1428571,"Delta":90670810},{"NoteNumber":43,"Velocity":45,"Duration":678571,"SoundDuration":678571,"Delta":90670810},{"NoteNumber":47,"Velocity":53,"Duration":678571,"SoundDuration":678571,"Delta":90670810},{"NoteNumber":53,"Velocity":64,"Duration":678571,"SoundDuration":678571,"Delta":90670810},{"NoteNumber":43,"Velocity":45,"Duration":678571,"SoundDuration":678571,"Delta":91385095},{"NoteNumber":47,"Velocity":53,"Duration":678571,"SoundDuration":678571,"Delta":91385095},{"NoteNumber":53,"Velocity":64,"Duration":678571,"SoundDuration":678571,"Delta":91385095},{"NoteNumber":77,"Velocity":88,"Duration":2758386,"SoundDuration":2758386,"Delta":92099381},{"NoteNumber":89,"Velocity":90,"Duration":2758386,"SoundDuration":2758386,"Delta":92099381},{"NoteNumber":43,"Velocity":45,"Duration":678571,"SoundDuration":678571,"Delta":92099381},{"NoteNumber":47,"Velocity":53,"Duration":678571,"SoundDuration":678571,"Delta":92099381},{"NoteNumber":53,"Velocity":64,"Duration":678571,"SoundDuration":678571,"Delta":92099381},{"NoteNumber":43,"Velocity":45,"Duration":674783,"SoundDuration":674783,"Delta":92813666},{"NoteNumber":47,"Velocity":53,"Duration":674783,"SoundDuration":674783,"Delta":92813666},{"NoteNumber":53,"Velocity":64,"Duration":674783,"SoundDuration":674783,"Delta":92813666},{"NoteNumber":44,"Velocity":46,"Duration":647727,"SoundDuration":647727,"Delta":93522541},{"NoteNumber":48,"Velocity":55,"Duration":647727,"SoundDuration":647727,"Delta":93522541},{"NoteNumber":53,"Velocity":66,"Duration":647727,"SoundDuration":647727,"Delta":93522541},{"NoteNumber":44,"Velocity":48,"Duration":647727,"SoundDuration":647727,"Delta":94204359},{"NoteNumber":48,"Velocity":57,"Duration":647727,"SoundDuration":647727,"Delta":94204359},{"NoteNumber":53,"Velocity":68,"Duration":647727,"SoundDuration":647727,"Delta":94204359},{"NoteNumber":77,"Velocity":96,"Duration":1544320,"SoundDuration":1544320,"Delta":94886177},{"NoteNumber":89,"Velocity":96,"Duration":1544320,"SoundDuration":1544320,"Delta":94886177},{"NoteNumber":44,"Velocity":50,"Duration":686746,"SoundDuration":686746,"Delta":94886177},{"NoteNumber":48,"Velocity":60,"Duration":686746,"SoundDuration":686746,"Delta":94886177},{"NoteNumber":53,"Velocity":70,"Duration":686746,"SoundDuration":686746,"Delta":94886177},{"NoteNumber":44,"Velocity":51,"Duration":814285,"SoundDuration":814285,"Delta":95609068},{"NoteNumber":48,"Velocity":61,"Duration":814285,"SoundDuration":814285,"Delta":95609068},{"NoteNumber":53,"Velocity":73,"Duration":814285,"SoundDuration":814285,"Delta":95609068},{"NoteNumber":77,"Velocity":96,"Duration":1785713,"SoundDuration":1785713,"Delta":96466211},{"NoteNumber":89,"Velocity":96,"Duration":1785713,"SoundDuration":1785713,"Delta":96466211},{"NoteNumber":43,"Velocity":75,"Duration":1428571,"SoundDuration":1428571,"Delta":96466211},{"NoteNumber":47,"Velocity":75,"Duration":1428571,"SoundDuration":1428571,"Delta":96466211},{"NoteNumber":53,"Velocity":75,"Duration":1428571,"SoundDuration":1428571,"Delta":96466211},{"NoteNumber":87,"Velocity":62,"Duration":178571,"SoundDuration":178571,"Delta":98251925},{"NoteNumber":86,"Velocity":62,"Duration":178571,"SoundDuration":178571,"Delta":98430496},{"NoteNumber":89,"Velocity":62,"Duration":178571,"SoundDuration":178571,"Delta":98609068},{"NoteNumber":87,"Velocity":62,"Duration":178571,"SoundDuration":178571,"Delta":98787639},{"NoteNumber":86,"Velocity":62,"Duration":178571,"SoundDuration":178571,"Delta":98966210},{"NoteNumber":84,"Velocity":62,"Duration":178571,"SoundDuration":178571,"Delta":99144782},{"NoteNumber":83,"Velocity":62,"Duration":361445,"SoundDuration":361445,"Delta":99323353},{"NoteNumber":83,"Velocity":52,"Duration":384615,"SoundDuration":384615,"Delta":100046245},{"NoteNumber":77,"Velocity":39,"Duration":400000,"SoundDuration":400000,"Delta":100815476},{"NoteNumber":83,"Velocity":47,"Duration":400000,"SoundDuration":400000,"Delta":100815476},{"NoteNumber":67,"Velocity":35,"Duration":400000,"SoundDuration":400000,"Delta":100815476},{"NoteNumber":74,"Velocity":42,"Duration":400000,"SoundDuration":400000,"Delta":100815476},{"NoteNumber":77,"Velocity":40,"Duration":434782,"SoundDuration":434782,"Delta":101615476},{"NoteNumber":83,"Velocity":48,"Duration":434782,"SoundDuration":434782,"Delta":101615476},{"NoteNumber":67,"Velocity":35,"Duration":434782,"SoundDuration":434782,"Delta":101615476},{"NoteNumber":74,"Velocity":42,"Duration":434782,"SoundDuration":434782,"Delta":101615476},{"NoteNumber":75,"Velocity":40,"Duration":1481481,"SoundDuration":1481481,"Delta":102485041},{"NoteNumber":84,"Velocity":48,"Duration":1481481,"SoundDuration":1481481,"Delta":102485041},{"NoteNumber":68,"Velocity":35,"Duration":1481481,"SoundDuration":1481481,"Delta":102485041},{"NoteNumber":72,"Velocity":42,"Duration":1481481,"SoundDuration":1481481,"Delta":102485041},{"NoteNumber":84,"Velocity":65,"Duration":1785713,"SoundDuration":1785713,"Delta":108305145},{"NoteNumber":83,"Velocity":61,"Duration":178571,"SoundDuration":178571,"Delta":110090858},{"NoteNumber":84,"Velocity":63,"Duration":178571,"SoundDuration":178571,"Delta":110269430},{"NoteNumber":86,"Velocity":66,"Duration":119047,"SoundDuration":119047,"Delta":110448001},{"NoteNumber":84,"Velocity":65,"Duration":119047,"SoundDuration":119047,"Delta":110567049},{"NoteNumber":82,"Velocity":64,"Duration":119047,"SoundDuration":119047,"Delta":110686096},{"NoteNumber":80,"Velocity":63,"Duration":119047,"SoundDuration":119047,"Delta":110805144},{"NoteNumber":79,"Velocity":61,"Duration":119047,"SoundDuration":119047,"Delta":110924191},{"NoteNumber":82,"Velocity":60,"Duration":119047,"SoundDuration":119047,"Delta":111043239},{"NoteNumber":80,"Velocity":62,"Duration":365853,"SoundDuration":365853,"Delta":111162287},{"NoteNumber":80,"Velocity":49,"Duration":389610,"SoundDuration":389610,"Delta":111907887},{"NoteNumber":80,"Velocity":47,"Duration":394736,"SoundDuration":394736,"Delta":112687108},{"NoteNumber":60,"Velocity":28,"Duration":394736,"SoundDuration":394736,"Delta":112687108},{"NoteNumber":53,"Velocity":28,"Duration":394736,"SoundDuration":394736,"Delta":112687108},{"NoteNumber":62,"Velocity":34,"Duration":394736,"SoundDuration":394736,"Delta":112687108},{"NoteNumber":80,"Velocity":48,"Duration":441176,"SoundDuration":441176,"Delta":113476582},{"NoteNumber":60,"Velocity":28,"Duration":441176,"SoundDuration":441176,"Delta":113476582},{"NoteNumber":53,"Velocity":28,"Duration":441176,"SoundDuration":441176,"Delta":113476582},{"NoteNumber":62,"Velocity":34,"Duration":441176,"SoundDuration":441176,"Delta":113476582},{"NoteNumber":79,"Velocity":50,"Duration":821917,"SoundDuration":821917,"Delta":114358935},{"NoteNumber":60,"Velocity":28,"Duration":1553625,"SoundDuration":1553625,"Delta":114358935},{"NoteNumber":55,"Velocity":28,"Duration":1553625,"SoundDuration":1553625,"Delta":114358935},{"NoteNumber":63,"Velocity":34,"Duration":1553625,"SoundDuration":1553625,"Delta":114358935},{"NoteNumber":87,"Velocity":65,"Duration":853658,"SoundDuration":853658,"Delta":115180853},{"NoteNumber":86,"Velocity":52,"Duration":117647,"SoundDuration":117647,"Delta":116034511},{"NoteNumber":85,"Velocity":52,"Duration":117647,"SoundDuration":117647,"Delta":116152158},{"NoteNumber":84,"Velocity":52,"Duration":117647,"SoundDuration":117647,"Delta":116269805},{"NoteNumber":83,"Velocity":52,"Duration":117647,"SoundDuration":117647,"Delta":116387453},{"NoteNumber":82,"Velocity":53,"Duration":117647,"SoundDuration":117647,"Delta":116505100},{"NoteNumber":81,"Velocity":53,"Duration":100000,"SoundDuration":100000,"Delta":116622747},{"NoteNumber":80,"Velocity":53,"Duration":100000,"SoundDuration":100000,"Delta":116722747},{"NoteNumber":79,"Velocity":53,"Duration":100000,"SoundDuration":100000,"Delta":116822747},{"NoteNumber":78,"Velocity":54,"Duration":100000,"SoundDuration":100000,"Delta":116922747},{"NoteNumber":77,"Velocity":54,"Duration":100000,"SoundDuration":100000,"Delta":117022747},{"NoteNumber":76,"Velocity":54,"Duration":94408,"SoundDuration":94408,"Delta":117122747},{"NoteNumber":75,"Velocity":54,"Duration":55555,"SoundDuration":55555,"Delta":117217155},{"NoteNumber":74,"Velocity":54,"Duration":92024,"SoundDuration":92024,"Delta":117272711},{"NoteNumber":43,"Velocity":33,"Duration":729165,"SoundDuration":729165,"Delta":117272711},{"NoteNumber":50,"Velocity":33,"Duration":729165,"SoundDuration":729165,"Delta":117272711},{"NoteNumber":53,"Velocity":40,"Duration":729165,"SoundDuration":729165,"Delta":117272711},{"NoteNumber":73,"Velocity":55,"Duration":92024,"SoundDuration":92024,"Delta":117364735},{"NoteNumber":72,"Velocity":55,"Duration":91837,"SoundDuration":91837,"Delta":117456760},{"NoteNumber":71,"Velocity":56,"Duration":91463,"SoundDuration":91463,"Delta":117548597},{"NoteNumber":70,"Velocity":56,"Duration":90909,"SoundDuration":90909,"Delta":117640060},{"NoteNumber":69,"Velocity":56,"Duration":90544,"SoundDuration":90544,"Delta":117730970},{"NoteNumber":68,"Velocity":57,"Duration":90361,"SoundDuration":90361,"Delta":117821514},{"NoteNumber":67,"Velocity":57,"Duration":90000,"SoundDuration":90000,"Delta":117911875},{"NoteNumber":66,"Velocity":57,"Duration":89642,"SoundDuration":89642,"Delta":118001876},{"NoteNumber":65,"Velocity":58,"Duration":89285,"SoundDuration":89285,"Delta":118091518},{"NoteNumber":64,"Velocity":57,"Duration":88757,"SoundDuration":88757,"Delta":118180804},{"NoteNumber":63,"Velocity":57,"Duration":88409,"SoundDuration":88409,"Delta":118269561},{"NoteNumber":62,"Velocity":58,"Duration":89111,"SoundDuration":89111,"Delta":118357970},{"NoteNumber":61,"Velocity":63,"Duration":90181,"SoundDuration":90181,"Delta":118447082},{"NoteNumber":60,"Velocity":68,"Duration":91650,"SoundDuration":91650,"Delta":118537263},{"NoteNumber":59,"Velocity":73,"Duration":92786,"SoundDuration":92786,"Delta":118628914},{"NoteNumber":68,"Velocity":82,"Duration":1058823,"SoundDuration":1058823,"Delta":118721700},{"NoteNumber":59,"Velocity":68,"Duration":312636,"SoundDuration":312636,"Delta":119780524},{"NoteNumber":60,"Velocity":50,"Duration":602780,"SoundDuration":602780,"Delta":120093160},{"NoteNumber":36,"Velocity":44,"Duration":193732,"SoundDuration":193732,"Delta":120093160},{"NoteNumber":48,"Velocity":41,"Duration":101561,"SoundDuration":101561,"Delta":120195469},{"NoteNumber":36,"Velocity":44,"Duration":190907,"SoundDuration":190907,"Delta":120297030},{"NoteNumber":48,"Velocity":41,"Duration":100083,"SoundDuration":100083,"Delta":120397844},{"NoteNumber":36,"Velocity":44,"Duration":188165,"SoundDuration":188165,"Delta":120497928},{"NoteNumber":48,"Velocity":41,"Duration":98652,"SoundDuration":98652,"Delta":120597289},{"NoteNumber":58,"Velocity":52,"Duration":73503,"SoundDuration":73503,"Delta":120695941},{"NoteNumber":64,"Velocity":52,"Duration":73503,"SoundDuration":73503,"Delta":120695941},{"NoteNumber":36,"Velocity":45,"Duration":185637,"SoundDuration":185637,"Delta":120695941},{"NoteNumber":48,"Velocity":41,"Duration":97434,"SoundDuration":97434,"Delta":120793887},{"NoteNumber":56,"Velocity":54,"Duration":73075,"SoundDuration":73075,"Delta":120891322},{"NoteNumber":65,"Velocity":54,"Duration":73075,"SoundDuration":73075,"Delta":120891322},{"NoteNumber":36,"Velocity":45,"Duration":185125,"SoundDuration":185125,"Delta":120891322},{"NoteNumber":48,"Velocity":46,"Duration":97434,"SoundDuration":97434,"Delta":120988756},{"NoteNumber":64,"Velocity":56,"Duration":72115,"SoundDuration":72115,"Delta":121086190},{"NoteNumber":67,"Velocity":56,"Duration":72115,"SoundDuration":72115,"Delta":121086190},{"NoteNumber":36,"Velocity":47,"Duration":182692,"SoundDuration":182692,"Delta":121086190},{"NoteNumber":48,"Velocity":47,"Duration":96153,"SoundDuration":96153,"Delta":121182344},{"NoteNumber":65,"Velocity":57,"Duration":72115,"SoundDuration":72115,"Delta":121278498},{"NoteNumber":68,"Velocity":57,"Duration":72115,"SoundDuration":72115,"Delta":121278498},{"NoteNumber":36,"Velocity":49,"Duration":182692,"SoundDuration":182692,"Delta":121278498},{"NoteNumber":48,"Velocity":50,"Duration":96153,"SoundDuration":96153,"Delta":121374651},{"NoteNumber":62,"Velocity":59,"Duration":73289,"SoundDuration":73289,"Delta":121470805},{"NoteNumber":71,"Velocity":59,"Duration":73289,"SoundDuration":73289,"Delta":121470805},{"NoteNumber":36,"Velocity":51,"Duration":185667,"SoundDuration":185667,"Delta":121470805},{"NoteNumber":48,"Velocity":53,"Duration":97719,"SoundDuration":97719,"Delta":121568525},{"NoteNumber":63,"Velocity":61,"Duration":77736,"SoundDuration":77736,"Delta":121666245},{"NoteNumber":72,"Velocity":61,"Duration":77736,"SoundDuration":77736,"Delta":121666245},{"NoteNumber":36,"Velocity":55,"Duration":196932,"SoundDuration":196932,"Delta":121666245},{"NoteNumber":48,"Velocity":50,"Duration":103648,"SoundDuration":103648,"Delta":121769893},{"NoteNumber":64,"Velocity":55,"Duration":389736,"SoundDuration":389736,"Delta":121873542},{"NoteNumber":72,"Velocity":55,"Duration":389736,"SoundDuration":389736,"Delta":121873542},{"NoteNumber":36,"Velocity":53,"Duration":185125,"SoundDuration":185125,"Delta":121873542},{"NoteNumber":48,"Velocity":47,"Duration":97434,"SoundDuration":97434,"Delta":121970976},{"NoteNumber":36,"Velocity":53,"Duration":185125,"SoundDuration":185125,"Delta":122068410},{"NoteNumber":48,"Velocity":47,"Duration":97434,"SoundDuration":97434,"Delta":122165844},{"NoteNumber":70,"Velocity":51,"Duration":73075,"SoundDuration":73075,"Delta":122263279},{"NoteNumber":76,"Velocity":51,"Duration":73075,"SoundDuration":73075,"Delta":122263279},{"NoteNumber":36,"Velocity":44,"Duration":185125,"SoundDuration":185125,"Delta":122263279},{"NoteNumber":48,"Velocity":40,"Duration":97434,"SoundDuration":97434,"Delta":122360713},{"NoteNumber":68,"Velocity":53,"Duration":73075,"SoundDuration":73075,"Delta":122458147},{"NoteNumber":77,"Velocity":53,"Duration":73075,"SoundDuration":73075,"Delta":122458147},{"NoteNumber":36,"Velocity":43,"Duration":185125,"SoundDuration":185125,"Delta":122458147},{"NoteNumber":48,"Velocity":45,"Duration":97434,"SoundDuration":97434,"Delta":122555581},{"NoteNumber":76,"Velocity":55,"Duration":72347,"SoundDuration":72347,"Delta":122653016},{"NoteNumber":79,"Velocity":55,"Duration":72347,"SoundDuration":72347,"Delta":122653016},{"NoteNumber":36,"Velocity":46,"Duration":183279,"SoundDuration":183279,"Delta":122653016},{"NoteNumber":48,"Velocity":47,"Duration":96462,"SoundDuration":96462,"Delta":122749479},{"NoteNumber":77,"Velocity":57,"Duration":72347,"SoundDuration":72347,"Delta":122845942},{"NoteNumber":80,"Velocity":57,"Duration":72347,"SoundDuration":72347,"Delta":122845942},{"NoteNumber":36,"Velocity":48,"Duration":183279,"SoundDuration":183279,"Delta":122845942},{"NoteNumber":48,"Velocity":50,"Duration":96462,"SoundDuration":96462,"Delta":122942405},{"NoteNumber":74,"Velocity":59,"Duration":72347,"SoundDuration":72347,"Delta":123038868},{"NoteNumber":83,"Velocity":59,"Duration":72347,"SoundDuration":72347,"Delta":123038868},{"NoteNumber":36,"Velocity":51,"Duration":183279,"SoundDuration":183279,"Delta":123038868},{"NoteNumber":48,"Velocity":53,"Duration":96462,"SoundDuration":96462,"Delta":123135331},{"NoteNumber":72,"Velocity":51,"Duration":394617,"SoundDuration":394617,"Delta":123231794},{"NoteNumber":79,"Velocity":61,"Duration":394617,"SoundDuration":394617,"Delta":123231794},{"NoteNumber":75,"Velocity":51,"Duration":394617,"SoundDuration":394617,"Delta":123231794},{"NoteNumber":84,"Velocity":61,"Duration":394617,"SoundDuration":394617,"Delta":123231794},{"NoteNumber":36,"Velocity":55,"Duration":188441,"SoundDuration":188441,"Delta":123231794},{"NoteNumber":48,"Velocity":50,"Duration":99179,"SoundDuration":99179,"Delta":123330974},{"NoteNumber":36,"Velocity":53,"Duration":186445,"SoundDuration":186445,"Delta":123430154},{"NoteNumber":48,"Velocity":47,"Duration":98129,"SoundDuration":98129,"Delta":123528283},{"NoteNumber":67,"Velocity":53,"Duration":398251,"SoundDuration":398251,"Delta":123626412},{"NoteNumber":71,"Velocity":53,"Duration":398251,"SoundDuration":398251,"Delta":123626412},{"NoteNumber":77,"Velocity":63,"Duration":398251,"SoundDuration":398251,"Delta":123626412},{"NoteNumber":79,"Velocity":63,"Duration":398251,"SoundDuration":398251,"Delta":123626412},{"NoteNumber":38,"Velocity":55,"Duration":186445,"SoundDuration":186445,"Delta":123626412},{"NoteNumber":50,"Velocity":50,"Duration":98129,"SoundDuration":98129,"Delta":123724541},{"NoteNumber":38,"Velocity":55,"Duration":191893,"SoundDuration":191893,"Delta":123822670},{"NoteNumber":50,"Velocity":51,"Duration":100996,"SoundDuration":100996,"Delta":123923666},{"NoteNumber":67,"Velocity":56,"Duration":395205,"SoundDuration":395205,"Delta":124024663},{"NoteNumber":72,"Velocity":56,"Duration":395205,"SoundDuration":395205,"Delta":124024663},{"NoteNumber":75,"Velocity":67,"Duration":395205,"SoundDuration":395205,"Delta":124024663},{"NoteNumber":39,"Velocity":55,"Duration":187722,"SoundDuration":187722,"Delta":124024663},{"NoteNumber":51,"Velocity":55,"Duration":98801,"SoundDuration":98801,"Delta":124123464},{"NoteNumber":39,"Velocity":55,"Duration":187722,"SoundDuration":187722,"Delta":124222265},{"NoteNumber":51,"Velocity":55,"Duration":98801,"SoundDuration":98801,"Delta":124321066},{"NoteNumber":65,"Velocity":60,"Duration":398621,"SoundDuration":398621,"Delta":124419868},{"NoteNumber":68,"Velocity":60,"Duration":398621,"SoundDuration":398621,"Delta":124419868},{"NoteNumber":74,"Velocity":71,"Duration":398621,"SoundDuration":398621,"Delta":124419868},{"NoteNumber":41,"Velocity":55,"Duration":187722,"SoundDuration":187722,"Delta":124419868},{"NoteNumber":53,"Velocity":53,"Duration":98801,"SoundDuration":98801,"Delta":124518669},{"NoteNumber":41,"Velocity":55,"Duration":190967,"SoundDuration":190967,"Delta":124617470},{"NoteNumber":53,"Velocity":55,"Duration":100509,"SoundDuration":100509,"Delta":124717979},{"NoteNumber":63,"Velocity":62,"Duration":1206110,"SoundDuration":1206110,"Delta":124818489},{"NoteNumber":67,"Velocity":74,"Duration":402036,"SoundDuration":402036,"Delta":124818489},{"NoteNumber":72,"Velocity":74,"Duration":1206110,"SoundDuration":1206110,"Delta":124818489},{"NoteNumber":43,"Velocity":56,"Duration":190967,"SoundDuration":190967,"Delta":124818489},{"NoteNumber":55,"Velocity":56,"Duration":100509,"SoundDuration":100509,"Delta":124918998},{"NoteNumber":43,"Velocity":57,"Duration":190967,"SoundDuration":190967,"Delta":125019507},{"NoteNumber":55,"Velocity":57,"Duration":100509,"SoundDuration":100509,"Delta":125120016},{"NoteNumber":66,"Velocity":74,"Duration":402037,"SoundDuration":402037,"Delta":125220526},{"NoteNumber":44,"Velocity":58,"Duration":190967,"SoundDuration":190967,"Delta":125220526},{"NoteNumber":56,"Velocity":59,"Duration":100509,"SoundDuration":100509,"Delta":125321035},{"NoteNumber":44,"Velocity":59,"Duration":190967,"SoundDuration":190967,"Delta":125421544},{"NoteNumber":56,"Velocity":60,"Duration":100509,"SoundDuration":100509,"Delta":125522053},{"NoteNumber":69,"Velocity":77,"Duration":402036,"SoundDuration":402036,"Delta":125622563},{"NoteNumber":42,"Velocity":60,"Duration":190967,"SoundDuration":190967,"Delta":125622563},{"NoteNumber":54,"Velocity":55,"Duration":100509,"SoundDuration":100509,"Delta":125723072},{"NoteNumber":42,"Velocity":61,"Duration":190967,"SoundDuration":190967,"Delta":125823581},{"NoteNumber":54,"Velocity":55,"Duration":100509,"SoundDuration":100509,"Delta":125924090},{"NoteNumber":62,"Velocity":62,"Duration":402037,"SoundDuration":402037,"Delta":126024600},{"NoteNumber":65,"Velocity":62,"Duration":402037,"SoundDuration":402037,"Delta":126024600},{"NoteNumber":71,"Velocity":74,"Duration":402037,"SoundDuration":402037,"Delta":126024600},{"NoteNumber":43,"Velocity":58,"Duration":190967,"SoundDuration":190967,"Delta":126024600},{"NoteNumber":55,"Velocity":55,"Duration":100509,"SoundDuration":100509,"Delta":126125109},{"NoteNumber":43,"Velocity":58,"Duration":190967,"SoundDuration":190967,"Delta":126225618},{"NoteNumber":55,"Velocity":55,"Duration":100509,"SoundDuration":100509,"Delta":126326127},{"NoteNumber":60,"Velocity":67,"Duration":76779,"SoundDuration":76779,"Delta":126426637},{"NoteNumber":63,"Velocity":67,"Duration":76779,"SoundDuration":76779,"Delta":126426637},{"NoteNumber":72,"Velocity":79,"Duration":76779,"SoundDuration":76779,"Delta":126426637},{"NoteNumber":36,"Velocity":48,"Duration":193732,"SoundDuration":193732,"Delta":126426637},{"NoteNumber":48,"Velocity":45,"Duration":101561,"SoundDuration":101561,"Delta":126528946},{"NoteNumber":60,"Velocity":67,"Duration":398910,"SoundDuration":398910,"Delta":126630507},{"NoteNumber":36,"Velocity":44,"Duration":190907,"SoundDuration":190907,"Delta":126630507},{"NoteNumber":48,"Velocity":41,"Duration":100083,"SoundDuration":100083,"Delta":126731320},{"NoteNumber":36,"Velocity":44,"Duration":188165,"SoundDuration":188165,"Delta":126831404},{"NoteNumber":48,"Velocity":40,"Duration":98652,"SoundDuration":98652,"Delta":126930765},{"NoteNumber":58,"Velocity":52,"Duration":73503,"SoundDuration":73503,"Delta":127029417},{"NoteNumber":64,"Velocity":52,"Duration":73503,"SoundDuration":73503,"Delta":127029417},{"NoteNumber":36,"Velocity":44,"Duration":185637,"SoundDuration":185637,"Delta":127029417},{"NoteNumber":48,"Velocity":41,"Duration":97434,"SoundDuration":97434,"Delta":127127364},{"NoteNumber":56,"Velocity":54,"Duration":73075,"SoundDuration":73075,"Delta":127224798},{"NoteNumber":65,"Velocity":54,"Duration":73075,"SoundDuration":73075,"Delta":127224798},{"NoteNumber":36,"Velocity":44,"Duration":185125,"SoundDuration":185125,"Delta":127224798},{"NoteNumber":48,"Velocity":46,"Duration":97434,"SoundDuration":97434,"Delta":127322232},{"NoteNumber":64,"Velocity":55,"Duration":72115,"SoundDuration":72115,"Delta":127419667},{"NoteNumber":67,"Velocity":55,"Duration":72115,"SoundDuration":72115,"Delta":127419667},{"NoteNumber":36,"Velocity":47,"Duration":182692,"SoundDuration":182692,"Delta":127419667},{"NoteNumber":48,"Velocity":47,"Duration":96153,"SoundDuration":96153,"Delta":127515820},{"NoteNumber":65,"Velocity":57,"Duration":72115,"SoundDuration":72115,"Delta":127611974},{"NoteNumber":68,"Velocity":57,"Duration":72115,"SoundDuration":72115,"Delta":127611974},{"NoteNumber":36,"Velocity":49,"Duration":182692,"SoundDuration":182692,"Delta":127611974},{"NoteNumber":48,"Velocity":50,"Duration":96153,"SoundDuration":96153,"Delta":127708128},{"NoteNumber":62,"Velocity":59,"Duration":72115,"SoundDuration":72115,"Delta":127804282},{"NoteNumber":71,"Velocity":59,"Duration":72115,"SoundDuration":72115,"Delta":127804282},{"NoteNumber":36,"Velocity":51,"Duration":182692,"SoundDuration":182692,"Delta":127804282},{"NoteNumber":48,"Velocity":53,"Duration":96153,"SoundDuration":96153,"Delta":127900435},{"NoteNumber":63,"Velocity":61,"Duration":77736,"SoundDuration":77736,"Delta":127996589},{"NoteNumber":72,"Velocity":61,"Duration":77736,"SoundDuration":77736,"Delta":127996589},{"NoteNumber":36,"Velocity":55,"Duration":196932,"SoundDuration":196932,"Delta":127996589},{"NoteNumber":48,"Velocity":50,"Duration":103648,"SoundDuration":103648,"Delta":128100238},{"NoteNumber":64,"Velocity":55,"Duration":389736,"SoundDuration":389736,"Delta":128203886},{"NoteNumber":72,"Velocity":55,"Duration":389736,"SoundDuration":389736,"Delta":128203886},{"NoteNumber":36,"Velocity":53,"Duration":185125,"SoundDuration":185125,"Delta":128203886},{"NoteNumber":48,"Velocity":47,"Duration":97434,"SoundDuration":97434,"Delta":128301320},{"NoteNumber":36,"Velocity":53,"Duration":185125,"SoundDuration":185125,"Delta":128398755},{"NoteNumber":48,"Velocity":47,"Duration":97434,"SoundDuration":97434,"Delta":128496189},{"NoteNumber":70,"Velocity":51,"Duration":73075,"SoundDuration":73075,"Delta":128593623},{"NoteNumber":76,"Velocity":51,"Duration":73075,"SoundDuration":73075,"Delta":128593623},{"NoteNumber":36,"Velocity":44,"Duration":185125,"SoundDuration":185125,"Delta":128593623},{"NoteNumber":48,"Velocity":40,"Duration":97434,"SoundDuration":97434,"Delta":128691057},{"NoteNumber":68,"Velocity":53,"Duration":73075,"SoundDuration":73075,"Delta":128788492},{"NoteNumber":77,"Velocity":53,"Duration":73075,"SoundDuration":73075,"Delta":128788492},{"NoteNumber":36,"Velocity":43,"Duration":185125,"SoundDuration":185125,"Delta":128788492},{"NoteNumber":48,"Velocity":45,"Duration":97434,"SoundDuration":97434,"Delta":128885926},{"NoteNumber":76,"Velocity":55,"Duration":72115,"SoundDuration":72115,"Delta":128983360},{"NoteNumber":79,"Velocity":55,"Duration":72115,"SoundDuration":72115,"Delta":128983360},{"NoteNumber":36,"Velocity":46,"Duration":182692,"SoundDuration":182692,"Delta":128983360},{"NoteNumber":48,"Velocity":47,"Duration":96153,"SoundDuration":96153,"Delta":129079514},{"NoteNumber":77,"Velocity":57,"Duration":72115,"SoundDuration":72115,"Delta":129175668},{"NoteNumber":80,"Velocity":57,"Duration":72115,"SoundDuration":72115,"Delta":129175668},{"NoteNumber":36,"Velocity":48,"Duration":182692,"SoundDuration":182692,"Delta":129175668},{"NoteNumber":48,"Velocity":50,"Duration":96153,"SoundDuration":96153,"Delta":129271821},{"NoteNumber":74,"Velocity":59,"Duration":73289,"SoundDuration":73289,"Delta":129367975},{"NoteNumber":83,"Velocity":59,"Duration":73289,"SoundDuration":73289,"Delta":129367975},{"NoteNumber":36,"Velocity":51,"Duration":185667,"SoundDuration":185667,"Delta":129367975},{"NoteNumber":48,"Velocity":53,"Duration":97719,"SoundDuration":97719,"Delta":129465695},{"NoteNumber":72,"Velocity":51,"Duration":394618,"SoundDuration":394618,"Delta":129563415},{"NoteNumber":79,"Velocity":61,"Duration":394618,"SoundDuration":394618,"Delta":129563415},{"NoteNumber":75,"Velocity":51,"Duration":394618,"SoundDuration":394618,"Delta":129563415},{"NoteNumber":84,"Velocity":61,"Duration":394618,"SoundDuration":394618,"Delta":129563415},{"NoteNumber":36,"Velocity":55,"Duration":188442,"SoundDuration":188442,"Delta":129563415},{"NoteNumber":48,"Velocity":50,"Duration":99180,"SoundDuration":99180,"Delta":129662595},{"NoteNumber":36,"Velocity":53,"Duration":186445,"SoundDuration":186445,"Delta":129761775},{"NoteNumber":48,"Velocity":47,"Duration":98129,"SoundDuration":98129,"Delta":129859904},{"NoteNumber":67,"Velocity":53,"Duration":398250,"SoundDuration":398250,"Delta":129958033},{"NoteNumber":71,"Velocity":53,"Duration":398250,"SoundDuration":398250,"Delta":129958033},{"NoteNumber":77,"Velocity":63,"Duration":398250,"SoundDuration":398250,"Delta":129958033},{"NoteNumber":79,"Velocity":63,"Duration":398250,"SoundDuration":398250,"Delta":129958033},{"NoteNumber":38,"Velocity":55,"Duration":186445,"SoundDuration":186445,"Delta":129958033},{"NoteNumber":50,"Velocity":50,"Duration":98129,"SoundDuration":98129,"Delta":130056162},{"NoteNumber":38,"Velocity":55,"Duration":191893,"SoundDuration":191893,"Delta":130154291},{"NoteNumber":50,"Velocity":51,"Duration":100996,"SoundDuration":100996,"Delta":130255287},{"NoteNumber":67,"Velocity":56,"Duration":395205,"SoundDuration":395205,"Delta":130356284},{"NoteNumber":72,"Velocity":56,"Duration":395205,"SoundDuration":395205,"Delta":130356284},{"NoteNumber":75,"Velocity":67,"Duration":395205,"SoundDuration":395205,"Delta":130356284},{"NoteNumber":39,"Velocity":55,"Duration":187722,"SoundDuration":187722,"Delta":130356284},{"NoteNumber":51,"Velocity":55,"Duration":98801,"SoundDuration":98801,"Delta":130455085},{"NoteNumber":39,"Velocity":55,"Duration":187722,"SoundDuration":187722,"Delta":130553886},{"NoteNumber":51,"Velocity":55,"Duration":98801,"SoundDuration":98801,"Delta":130652687},{"NoteNumber":65,"Velocity":60,"Duration":398620,"SoundDuration":398620,"Delta":130751489},{"NoteNumber":68,"Velocity":60,"Duration":398620,"SoundDuration":398620,"Delta":130751489},{"NoteNumber":74,"Velocity":71,"Duration":398620,"SoundDuration":398620,"Delta":130751489},{"NoteNumber":41,"Velocity":55,"Duration":187722,"SoundDuration":187722,"Delta":130751489},{"NoteNumber":53,"Velocity":53,"Duration":98801,"SoundDuration":98801,"Delta":130850290},{"NoteNumber":41,"Velocity":55,"Duration":190967,"SoundDuration":190967,"Delta":130949091},{"NoteNumber":53,"Velocity":55,"Duration":100509,"SoundDuration":100509,"Delta":131049600},{"NoteNumber":63,"Velocity":62,"Duration":1599881,"SoundDuration":1599881,"Delta":131150110},{"NoteNumber":67,"Velocity":74,"Duration":402037,"SoundDuration":402037,"Delta":131150110},{"NoteNumber":72,"Velocity":74,"Duration":1599881,"SoundDuration":1599881,"Delta":131150110},{"NoteNumber":43,"Velocity":56,"Duration":190967,"SoundDuration":190967,"Delta":131150110},{"NoteNumber":55,"Velocity":56,"Duration":100509,"SoundDuration":100509,"Delta":131250619},{"NoteNumber":43,"Velocity":57,"Duration":190967,"SoundDuration":190967,"Delta":131351128},{"NoteNumber":55,"Velocity":57,"Duration":100509,"SoundDuration":100509,"Delta":131451637},{"NoteNumber":66,"Velocity":74,"Duration":402036,"SoundDuration":402036,"Delta":131552147},{"NoteNumber":44,"Velocity":58,"Duration":190967,"SoundDuration":190967,"Delta":131552147},{"NoteNumber":56,"Velocity":59,"Duration":100509,"SoundDuration":100509,"Delta":131652656},{"NoteNumber":44,"Velocity":59,"Duration":190967,"SoundDuration":190967,"Delta":131753165},{"NoteNumber":56,"Velocity":60,"Duration":100509,"SoundDuration":100509,"Delta":131853674},{"NoteNumber":69,"Velocity":77,"Duration":795807,"SoundDuration":795807,"Delta":131954184},{"NoteNumber":42,"Velocity":60,"Duration":189004,"SoundDuration":189004,"Delta":131954184},{"NoteNumber":54,"Velocity":55,"Duration":99475,"SoundDuration":99475,"Delta":132053660},{"NoteNumber":42,"Velocity":61,"Duration":189004,"SoundDuration":189004,"Delta":132153136},{"NoteNumber":54,"Velocity":55,"Duration":99476,"SoundDuration":99476,"Delta":132252612},{"NoteNumber":42,"Velocity":58,"Duration":189004,"SoundDuration":189004,"Delta":132352088},{"NoteNumber":54,"Velocity":55,"Duration":99476,"SoundDuration":99476,"Delta":132451564},{"NoteNumber":42,"Velocity":58,"Duration":189004,"SoundDuration":189004,"Delta":132551040},{"NoteNumber":54,"Velocity":55,"Duration":99475,"SoundDuration":99475,"Delta":132650516},{"NoteNumber":62,"Velocity":55,"Duration":205282,"SoundDuration":205282,"Delta":132749992},{"NoteNumber":67,"Velocity":55,"Duration":205282,"SoundDuration":205282,"Delta":132749992},{"NoteNumber":71,"Velocity":55,"Duration":205282,"SoundDuration":205282,"Delta":132749992},{"NoteNumber":43,"Velocity":55,"Duration":205282,"SoundDuration":205282,"Delta":132749992},{"NoteNumber":55,"Velocity":55,"Duration":205282,"SoundDuration":205282,"Delta":132749992},{"NoteNumber":62,"Velocity":50,"Duration":195018,"SoundDuration":195018,"Delta":132955274},{"NoteNumber":59,"Velocity":50,"Duration":195018,"SoundDuration":195018,"Delta":132955274},{"NoteNumber":67,"Velocity":80,"Duration":596856,"SoundDuration":596856,"Delta":133160557},{"NoteNumber":79,"Velocity":80,"Duration":596856,"SoundDuration":596856,"Delta":133160557},{"NoteNumber":62,"Velocity":50,"Duration":189004,"SoundDuration":189004,"Delta":133160557},{"NoteNumber":59,"Velocity":50,"Duration":189004,"SoundDuration":189004,"Delta":133160557},{"NoteNumber":59,"Velocity":50,"Duration":189004,"SoundDuration":189004,"Delta":133359509},{"NoteNumber":62,"Velocity":50,"Duration":189004,"SoundDuration":189004,"Delta":133359509},{"NoteNumber":55,"Velocity":50,"Duration":198951,"SoundDuration":198951,"Delta":133558461},{"NoteNumber":63,"Velocity":50,"Duration":189004,"SoundDuration":189004,"Delta":133757413},{"NoteNumber":60,"Velocity":50,"Duration":189004,"SoundDuration":189004,"Delta":133757413},{"NoteNumber":67,"Velocity":80,"Duration":494367,"SoundDuration":494367,"Delta":133956365},{"NoteNumber":79,"Velocity":80,"Duration":494367,"SoundDuration":494367,"Delta":133956365},{"NoteNumber":63,"Velocity":50,"Duration":189004,"SoundDuration":189004,"Delta":133956365},{"NoteNumber":60,"Velocity":50,"Duration":189004,"SoundDuration":189004,"Delta":133956365},{"NoteNumber":63,"Velocity":50,"Duration":189004,"SoundDuration":189004,"Delta":134155317},{"NoteNumber":60,"Velocity":50,"Duration":189004,"SoundDuration":189004,"Delta":134155317},{"NoteNumber":65,"Velocity":50,"Duration":192925,"SoundDuration":192925,"Delta":134354269},{"NoteNumber":62,"Velocity":50,"Duration":192925,"SoundDuration":192925,"Delta":134354269},{"NoteNumber":77,"Velocity":70,"Duration":96462,"SoundDuration":96462,"Delta":134450732},{"NoteNumber":74,"Velocity":69,"Duration":96462,"SoundDuration":96462,"Delta":134547195},{"NoteNumber":71,"Velocity":69,"Duration":96462,"SoundDuration":96462,"Delta":134643658},{"NoteNumber":67,"Velocity":68,"Duration":96462,"SoundDuration":96462,"Delta":134740121},{"NoteNumber":65,"Velocity":67,"Duration":96462,"SoundDuration":96462,"Delta":134836584},{"NoteNumber":62,"Velocity":66,"Duration":96462,"SoundDuration":96462,"Delta":134933047},{"NoteNumber":59,"Velocity":65,"Duration":96462,"SoundDuration":96462,"Delta":135029510},{"NoteNumber":60,"Velocity":65,"Duration":96514,"SoundDuration":96514,"Delta":135125973},{"NoteNumber":63,"Velocity":64,"Duration":96930,"SoundDuration":96930,"Delta":135222487},{"NoteNumber":60,"Velocity":65,"Duration":97350,"SoundDuration":97350,"Delta":135319418},{"NoteNumber":55,"Velocity":65,"Duration":97826,"SoundDuration":97826,"Delta":135416768},{"NoteNumber":54,"Velocity":64,"Duration":98253,"SoundDuration":98253,"Delta":135514595},{"NoteNumber":32,"Velocity":55,"Duration":98253,"SoundDuration":98253,"Delta":135514595},{"NoteNumber":60,"Velocity":64,"Duration":98738,"SoundDuration":98738,"Delta":135612848},{"NoteNumber":44,"Velocity":55,"Duration":98738,"SoundDuration":98738,"Delta":135612848},{"NoteNumber":56,"Velocity":63,"Duration":99173,"SoundDuration":99173,"Delta":135711587},{"NoteNumber":32,"Velocity":55,"Duration":99173,"SoundDuration":99173,"Delta":135711587},{"NoteNumber":54,"Velocity":65,"Duration":99668,"SoundDuration":99668,"Delta":135810761},{"NoteNumber":44,"Velocity":55,"Duration":99668,"SoundDuration":99668,"Delta":135810761},{"NoteNumber":55,"Velocity":67,"Duration":205282,"SoundDuration":205282,"Delta":135910429},{"NoteNumber":31,"Velocity":50,"Duration":205282,"SoundDuration":205282,"Delta":135910429},{"NoteNumber":43,"Velocity":50,"Duration":205282,"SoundDuration":205282,"Delta":135910429},{"NoteNumber":62,"Velocity":50,"Duration":195018,"SoundDuration":195018,"Delta":136115711},{"NoteNumber":59,"Velocity":50,"Duration":195018,"SoundDuration":195018,"Delta":136115711},{"NoteNumber":67,"Velocity":80,"Duration":596856,"SoundDuration":596856,"Delta":136320994},{"NoteNumber":79,"Velocity":80,"Duration":596856,"SoundDuration":596856,"Delta":136320994},{"NoteNumber":62,"Velocity":50,"Duration":189004,"SoundDuration":189004,"Delta":136320994},{"NoteNumber":59,"Velocity":50,"Duration":189004,"SoundDuration":189004,"Delta":136320994},{"NoteNumber":59,"Velocity":50,"Duration":189004,"SoundDuration":189004,"Delta":136519946},{"NoteNumber":62,"Velocity":50,"Duration":189004,"SoundDuration":189004,"Delta":136519946},{"NoteNumber":55,"Velocity":50,"Duration":198951,"SoundDuration":198951,"Delta":136718898},{"NoteNumber":63,"Velocity":50,"Duration":189004,"SoundDuration":189004,"Delta":136917850},{"NoteNumber":60,"Velocity":50,"Duration":189004,"SoundDuration":189004,"Delta":136917850},{"NoteNumber":67,"Velocity":80,"Duration":493750,"SoundDuration":493750,"Delta":137116802},{"NoteNumber":79,"Velocity":80,"Duration":493750,"SoundDuration":493750,"Delta":137116802},{"NoteNumber":63,"Velocity":50,"Duration":189004,"SoundDuration":189004,"Delta":137116802},{"NoteNumber":60,"Velocity":50,"Duration":189004,"SoundDuration":189004,"Delta":137116802},{"NoteNumber":63,"Velocity":50,"Duration":189004,"SoundDuration":189004,"Delta":137315754},{"NoteNumber":60,"Velocity":50,"Duration":189004,"SoundDuration":189004,"Delta":137315754},{"NoteNumber":65,"Velocity":50,"Duration":191693,"SoundDuration":191693,"Delta":137514706},{"NoteNumber":62,"Velocity":50,"Duration":191693,"SoundDuration":191693,"Delta":137514706},{"NoteNumber":77,"Velocity":72,"Duration":95846,"SoundDuration":95846,"Delta":137610552},{"NoteNumber":74,"Velocity":71,"Duration":95846,"SoundDuration":95846,"Delta":137706399},{"NoteNumber":71,"Velocity":70,"Duration":95846,"SoundDuration":95846,"Delta":137802246},{"NoteNumber":67,"Velocity":69,"Duration":95846,"SoundDuration":95846,"Delta":137898093},{"NoteNumber":65,"Velocity":68,"Duration":95846,"SoundDuration":95846,"Delta":137993939},{"NoteNumber":62,"Velocity":67,"Duration":95846,"SoundDuration":95846,"Delta":138089786},{"NoteNumber":59,"Velocity":66,"Duration":95643,"SoundDuration":95643,"Delta":138185633},{"NoteNumber":60,"Velocity":65,"Duration":95491,"SoundDuration":95491,"Delta":138281277},{"NoteNumber":63,"Velocity":64,"Duration":96102,"SoundDuration":96102,"Delta":138376768},{"NoteNumber":60,"Velocity":64,"Duration":96670,"SoundDuration":96670,"Delta":138472871},{"NoteNumber":55,"Velocity":67,"Duration":97244,"SoundDuration":97244,"Delta":138569541},{"NoteNumber":54,"Velocity":66,"Duration":97879,"SoundDuration":97879,"Delta":138666786},{"NoteNumber":32,"Velocity":55,"Duration":186479,"SoundDuration":186479,"Delta":138666786},{"NoteNumber":60,"Velocity":64,"Duration":98468,"SoundDuration":98468,"Delta":138764666},{"NoteNumber":44,"Velocity":55,"Duration":98468,"SoundDuration":98468,"Delta":138764666},{"NoteNumber":56,"Velocity":62,"Duration":99064,"SoundDuration":99064,"Delta":138863134},{"NoteNumber":32,"Velocity":55,"Duration":188788,"SoundDuration":188788,"Delta":138863134},{"NoteNumber":54,"Velocity":60,"Duration":99723,"SoundDuration":99723,"Delta":138962199},{"NoteNumber":44,"Velocity":49,"Duration":99723,"SoundDuration":99723,"Delta":138962199},{"NoteNumber":55,"Velocity":67,"Duration":200000,"SoundDuration":200000,"Delta":139061923},{"NoteNumber":31,"Velocity":50,"Duration":189999,"SoundDuration":189999,"Delta":139061923},{"NoteNumber":43,"Velocity":51,"Duration":100000,"SoundDuration":100000,"Delta":139161923},{"NoteNumber":66,"Velocity":67,"Duration":73352,"SoundDuration":73352,"Delta":139261923},{"NoteNumber":31,"Velocity":51,"Duration":185825,"SoundDuration":185825,"Delta":139261923},{"NoteNumber":43,"Velocity":52,"Duration":97802,"SoundDuration":97802,"Delta":139359726},{"NoteNumber":67,"Velocity":69,"Duration":72115,"SoundDuration":72115,"Delta":139457528},{"NoteNumber":31,"Velocity":53,"Duration":182692,"SoundDuration":182692,"Delta":139457528},{"NoteNumber":43,"Velocity":54,"Duration":96153,"SoundDuration":96153,"Delta":139553682},{"NoteNumber":66,"Velocity":71,"Duration":72115,"SoundDuration":72115,"Delta":139649836},{"NoteNumber":72,"Velocity":71,"Duration":72115,"SoundDuration":72115,"Delta":139649836},{"NoteNumber":31,"Velocity":55,"Duration":182692,"SoundDuration":182692,"Delta":139649836},{"NoteNumber":43,"Velocity":56,"Duration":96153,"SoundDuration":96153,"Delta":139745990},{"NoteNumber":67,"Velocity":73,"Duration":72115,"SoundDuration":72115,"Delta":139842143},{"NoteNumber":71,"Velocity":73,"Duration":72115,"SoundDuration":72115,"Delta":139842143},{"NoteNumber":31,"Velocity":57,"Duration":182692,"SoundDuration":182692,"Delta":139842143},{"NoteNumber":43,"Velocity":58,"Duration":96153,"SoundDuration":96153,"Delta":139938297},{"NoteNumber":72,"Velocity":75,"Duration":72115,"SoundDuration":72115,"Delta":140034451},{"NoteNumber":78,"Velocity":75,"Duration":72115,"SoundDuration":72115,"Delta":140034451},{"NoteNumber":31,"Velocity":59,"Duration":182692,"SoundDuration":182692,"Delta":140034451},{"NoteNumber":43,"Velocity":60,"Duration":96153,"SoundDuration":96153,"Delta":140130605},{"NoteNumber":71,"Velocity":77,"Duration":72115,"SoundDuration":72115,"Delta":140226758},{"NoteNumber":79,"Velocity":77,"Duration":72115,"SoundDuration":72115,"Delta":140226758},{"NoteNumber":31,"Velocity":61,"Duration":182692,"SoundDuration":182692,"Delta":140226758},{"NoteNumber":43,"Velocity":61,"Duration":96153,"SoundDuration":96153,"Delta":140322912},{"NoteNumber":84,"Velocity":79,"Duration":72115,"SoundDuration":72115,"Delta":140419066},{"NoteNumber":78,"Velocity":79,"Duration":72115,"SoundDuration":72115,"Delta":140419066},{"NoteNumber":31,"Velocity":62,"Duration":182692,"SoundDuration":182692,"Delta":140419066},{"NoteNumber":43,"Velocity":63,"Duration":96153,"SoundDuration":96153,"Delta":140515220},{"NoteNumber":83,"Velocity":81,"Duration":97719,"SoundDuration":97719,"Delta":140611373},{"NoteNumber":79,"Velocity":81,"Duration":97719,"SoundDuration":97719,"Delta":140611373},{"NoteNumber":31,"Velocity":64,"Duration":185667,"SoundDuration":185667,"Delta":140611373},{"NoteNumber":43,"Velocity":55,"Duration":97719,"SoundDuration":97719,"Delta":140709093},{"NoteNumber":31,"Velocity":61,"Duration":185667,"SoundDuration":185667,"Delta":140806813},{"NoteNumber":43,"Velocity":55,"Duration":97719,"SoundDuration":97719,"Delta":140904533},{"NoteNumber":31,"Velocity":61,"Duration":185667,"SoundDuration":185667,"Delta":141002252},{"NoteNumber":43,"Velocity":55,"Duration":97719,"SoundDuration":97719,"Delta":141099972},{"NoteNumber":31,"Velocity":60,"Duration":185667,"SoundDuration":185667,"Delta":141197692},{"NoteNumber":43,"Velocity":55,"Duration":97719,"SoundDuration":97719,"Delta":141295412},{"NoteNumber":58,"Velocity":81,"Duration":787711,"SoundDuration":787711,"Delta":141393131},{"NoteNumber":61,"Velocity":81,"Duration":787711,"SoundDuration":787711,"Delta":141393131},{"NoteNumber":63,"Velocity":84,"Duration":992994,"SoundDuration":992994,"Delta":141393131},{"NoteNumber":31,"Velocity":64,"Duration":187081,"SoundDuration":187081,"Delta":141393131},{"NoteNumber":43,"Velocity":55,"Duration":98464,"SoundDuration":98464,"Delta":141491595},{"NoteNumber":31,"Velocity":61,"Duration":187081,"SoundDuration":187081,"Delta":141590059},{"NoteNumber":43,"Velocity":55,"Duration":98464,"SoundDuration":98464,"Delta":141688523},{"NoteNumber":31,"Velocity":61,"Duration":187081,"SoundDuration":187081,"Delta":141786987},{"NoteNumber":43,"Velocity":55,"Duration":98464,"SoundDuration":98464,"Delta":141885451},{"NoteNumber":31,"Velocity":60,"Duration":187081,"SoundDuration":187081,"Delta":141983915},{"NoteNumber":43,"Velocity":55,"Duration":98464,"SoundDuration":98464,"Delta":142082379},{"NoteNumber":60,"Velocity":67,"Duration":205282,"SoundDuration":205282,"Delta":142180843},{"NoteNumber":32,"Velocity":50,"Duration":195018,"SoundDuration":195018,"Delta":142180843},{"NoteNumber":44,"Velocity":51,"Duration":102641,"SoundDuration":102641,"Delta":142283485},{"NoteNumber":73,"Velocity":67,"Duration":73352,"SoundDuration":73352,"Delta":142386126},{"NoteNumber":32,"Velocity":51,"Duration":185825,"SoundDuration":185825,"Delta":142386126},{"NoteNumber":44,"Velocity":52,"Duration":97802,"SoundDuration":97802,"Delta":142483929},{"NoteNumber":72,"Velocity":69,"Duration":72115,"SoundDuration":72115,"Delta":142581731},{"NoteNumber":32,"Velocity":53,"Duration":182692,"SoundDuration":182692,"Delta":142581731},{"NoteNumber":44,"Velocity":54,"Duration":96153,"SoundDuration":96153,"Delta":142677885},{"NoteNumber":73,"Velocity":71,"Duration":72115,"SoundDuration":72115,"Delta":142774039},{"NoteNumber":79,"Velocity":71,"Duration":72115,"SoundDuration":72115,"Delta":142774039},{"NoteNumber":32,"Velocity":55,"Duration":182692,"SoundDuration":182692,"Delta":142774039},{"NoteNumber":44,"Velocity":56,"Duration":96153,"SoundDuration":96153,"Delta":142870193},{"NoteNumber":72,"Velocity":73,"Duration":72115,"SoundDuration":72115,"Delta":142966346},{"NoteNumber":80,"Velocity":73,"Duration":72115,"SoundDuration":72115,"Delta":142966346},{"NoteNumber":32,"Velocity":57,"Duration":182692,"SoundDuration":182692,"Delta":142966346},{"NoteNumber":44,"Velocity":58,"Duration":96153,"SoundDuration":96153,"Delta":143062500},{"NoteNumber":79,"Velocity":75,"Duration":72115,"SoundDuration":72115,"Delta":143158654},{"NoteNumber":85,"Velocity":75,"Duration":72115,"SoundDuration":72115,"Delta":143158654},{"NoteNumber":32,"Velocity":59,"Duration":182692,"SoundDuration":182692,"Delta":143158654},{"NoteNumber":44,"Velocity":60,"Duration":96153,"SoundDuration":96153,"Delta":143254808},{"NoteNumber":80,"Velocity":77,"Duration":72115,"SoundDuration":72115,"Delta":143350961},{"NoteNumber":84,"Velocity":77,"Duration":72115,"SoundDuration":72115,"Delta":143350961},{"NoteNumber":32,"Velocity":61,"Duration":182692,"SoundDuration":182692,"Delta":143350961},{"NoteNumber":44,"Velocity":61,"Duration":96153,"SoundDuration":96153,"Delta":143447115},{"NoteNumber":85,"Velocity":79,"Duration":72115,"SoundDuration":72115,"Delta":143543269},{"NoteNumber":79,"Velocity":79,"Duration":72115,"SoundDuration":72115,"Delta":143543269},{"NoteNumber":32,"Velocity":62,"Duration":182692,"SoundDuration":182692,"Delta":143543269},{"NoteNumber":44,"Velocity":63,"Duration":96153,"SoundDuration":96153,"Delta":143639423},{"NoteNumber":84,"Velocity":81,"Duration":97719,"SoundDuration":97719,"Delta":143735576},{"NoteNumber":80,"Velocity":81,"Duration":97719,"SoundDuration":97719,"Delta":143735576},{"NoteNumber":32,"Velocity":64,"Duration":185667,"SoundDuration":185667,"Delta":143735576},{"NoteNumber":44,"Velocity":55,"Duration":97719,"SoundDuration":97719,"Delta":143833296},{"NoteNumber":32,"Velocity":61,"Duration":185667,"SoundDuration":185667,"Delta":143931016},{"NoteNumber":44,"Velocity":55,"Duration":97719,"SoundDuration":97719,"Delta":144028736},{"NoteNumber":32,"Velocity":61,"Duration":185667,"SoundDuration":185667,"Delta":144126455},{"NoteNumber":44,"Velocity":55,"Duration":97719,"SoundDuration":97719,"Delta":144224175},{"NoteNumber":32,"Velocity":60,"Duration":185667,"SoundDuration":185667,"Delta":144321895},{"NoteNumber":44,"Velocity":55,"Duration":97719,"SoundDuration":97719,"Delta":144419615},{"NoteNumber":60,"Velocity":81,"Duration":787711,"SoundDuration":787711,"Delta":144517334},{"NoteNumber":63,"Velocity":81,"Duration":787711,"SoundDuration":787711,"Delta":144517334},{"NoteNumber":66,"Velocity":84,"Duration":787711,"SoundDuration":787711,"Delta":144517334},{"NoteNumber":33,"Velocity":64,"Duration":187081,"SoundDuration":187081,"Delta":144517334},{"NoteNumber":45,"Velocity":55,"Duration":98464,"SoundDuration":98464,"Delta":144615798},{"NoteNumber":33,"Velocity":61,"Duration":187081,"SoundDuration":187081,"Delta":144714262},{"NoteNumber":45,"Velocity":55,"Duration":98464,"SoundDuration":98464,"Delta":144812726},{"NoteNumber":33,"Velocity":61,"Duration":187081,"SoundDuration":187081,"Delta":144911190},{"NoteNumber":45,"Velocity":55,"Duration":98464,"SoundDuration":98464,"Delta":145009654},{"NoteNumber":33,"Velocity":60,"Duration":187081,"SoundDuration":187081,"Delta":145108118},{"NoteNumber":45,"Velocity":55,"Duration":98464,"SoundDuration":98464,"Delta":145206582},{"NoteNumber":62,"Velocity":67,"Duration":205282,"SoundDuration":205282,"Delta":145305046},{"NoteNumber":65,"Velocity":67,"Duration":205282,"SoundDuration":205282,"Delta":145305046},{"NoteNumber":34,"Velocity":50,"Duration":195018,"SoundDuration":195018,"Delta":145305046},{"NoteNumber":46,"Velocity":51,"Duration":102641,"SoundDuration":102641,"Delta":145407688},{"NoteNumber":69,"Velocity":62,"Duration":72115,"SoundDuration":72115,"Delta":145510329},{"NoteNumber":75,"Velocity":67,"Duration":72115,"SoundDuration":72115,"Delta":145510329},{"NoteNumber":34,"Velocity":51,"Duration":182692,"SoundDuration":182692,"Delta":145510329},{"NoteNumber":46,"Velocity":52,"Duration":96153,"SoundDuration":96153,"Delta":145606483},{"NoteNumber":70,"Velocity":65,"Duration":71885,"SoundDuration":71885,"Delta":145702636},{"NoteNumber":74,"Velocity":69,"Duration":71885,"SoundDuration":71885,"Delta":145702636},{"NoteNumber":34,"Velocity":53,"Duration":182108,"SoundDuration":182108,"Delta":145702636},{"NoteNumber":46,"Velocity":54,"Duration":95846,"SoundDuration":95846,"Delta":145798483},{"NoteNumber":75,"Velocity":71,"Duration":71885,"SoundDuration":71885,"Delta":145894330},{"NoteNumber":81,"Velocity":71,"Duration":71885,"SoundDuration":71885,"Delta":145894330},{"NoteNumber":34,"Velocity":55,"Duration":182108,"SoundDuration":182108,"Delta":145894330},{"NoteNumber":46,"Velocity":56,"Duration":95846,"SoundDuration":95846,"Delta":145990177},{"NoteNumber":74,"Velocity":73,"Duration":71885,"SoundDuration":71885,"Delta":146086023},{"NoteNumber":82,"Velocity":73,"Duration":71885,"SoundDuration":71885,"Delta":146086023},{"NoteNumber":34,"Velocity":57,"Duration":182108,"SoundDuration":182108,"Delta":146086023},{"NoteNumber":46,"Velocity":58,"Duration":95846,"SoundDuration":95846,"Delta":146181870},{"NoteNumber":81,"Velocity":75,"Duration":71885,"SoundDuration":71885,"Delta":146277717},{"NoteNumber":87,"Velocity":75,"Duration":71885,"SoundDuration":71885,"Delta":146277717},{"NoteNumber":34,"Velocity":59,"Duration":182108,"SoundDuration":182108,"Delta":146277717},{"NoteNumber":46,"Velocity":60,"Duration":95846,"SoundDuration":95846,"Delta":146373564},{"NoteNumber":82,"Velocity":77,"Duration":71885,"SoundDuration":71885,"Delta":146469410},{"NoteNumber":86,"Velocity":77,"Duration":71885,"SoundDuration":71885,"Delta":146469410},{"NoteNumber":34,"Velocity":61,"Duration":182108,"SoundDuration":182108,"Delta":146469410},{"NoteNumber":46,"Velocity":61,"Duration":95846,"SoundDuration":95846,"Delta":146565257},{"NoteNumber":87,"Velocity":79,"Duration":71885,"SoundDuration":71885,"Delta":146661104},{"NoteNumber":81,"Velocity":79,"Duration":71885,"SoundDuration":71885,"Delta":146661104},{"NoteNumber":34,"Velocity":62,"Duration":182108,"SoundDuration":182108,"Delta":146661104},{"NoteNumber":46,"Velocity":63,"Duration":95846,"SoundDuration":95846,"Delta":146756951},{"NoteNumber":86,"Velocity":81,"Duration":97719,"SoundDuration":97719,"Delta":146852797},{"NoteNumber":82,"Velocity":81,"Duration":97719,"SoundDuration":97719,"Delta":146852797},{"NoteNumber":34,"Velocity":64,"Duration":185667,"SoundDuration":185667,"Delta":146852797},{"NoteNumber":46,"Velocity":55,"Duration":97719,"SoundDuration":97719,"Delta":146950517},{"NoteNumber":34,"Velocity":61,"Duration":185667,"SoundDuration":185667,"Delta":147048237},{"NoteNumber":46,"Velocity":55,"Duration":97719,"SoundDuration":97719,"Delta":147145957},{"NoteNumber":75,"Velocity":81,"Duration":385851,"SoundDuration":385851,"Delta":147243676},{"NoteNumber":81,"Velocity":81,"Duration":385851,"SoundDuration":385851,"Delta":147243676},{"NoteNumber":34,"Velocity":61,"Duration":183279,"SoundDuration":183279,"Delta":147243676},{"NoteNumber":46,"Velocity":55,"Duration":96462,"SoundDuration":96462,"Delta":147340139},{"NoteNumber":34,"Velocity":60,"Duration":183279,"SoundDuration":183279,"Delta":147436602},{"NoteNumber":46,"Velocity":55,"Duration":96462,"SoundDuration":96462,"Delta":147533065},{"NoteNumber":74,"Velocity":81,"Duration":195230,"SoundDuration":195230,"Delta":147629528},{"NoteNumber":82,"Velocity":81,"Duration":195230,"SoundDuration":195230,"Delta":147629528},{"NoteNumber":34,"Velocity":64,"Duration":185458,"SoundDuration":185458,"Delta":147629528},{"NoteNumber":46,"Velocity":55,"Duration":97719,"SoundDuration":97719,"Delta":147727039},{"NoteNumber":34,"Velocity":61,"Duration":185667,"SoundDuration":185667,"Delta":147824759},{"NoteNumber":46,"Velocity":55,"Duration":97719,"SoundDuration":97719,"Delta":147922478},{"NoteNumber":69,"Velocity":81,"Duration":384614,"SoundDuration":384614,"Delta":148020198},{"NoteNumber":75,"Velocity":81,"Duration":384614,"SoundDuration":384614,"Delta":148020198},{"NoteNumber":34,"Velocity":61,"Duration":182692,"SoundDuration":182692,"Delta":148020198},{"NoteNumber":46,"Velocity":55,"Duration":96153,"SoundDuration":96153,"Delta":148116352},{"NoteNumber":34,"Velocity":60,"Duration":182692,"SoundDuration":182692,"Delta":148212506},{"NoteNumber":46,"Velocity":55,"Duration":96153,"SoundDuration":96153,"Delta":148308659},{"NoteNumber":70,"Velocity":81,"Duration":195439,"SoundDuration":195439,"Delta":148404813},{"NoteNumber":74,"Velocity":81,"Duration":195439,"SoundDuration":195439,"Delta":148404813},{"NoteNumber":34,"Velocity":64,"Duration":185667,"SoundDuration":185667,"Delta":148404813},{"NoteNumber":46,"Velocity":55,"Duration":97719,"SoundDuration":97719,"Delta":148502533},{"NoteNumber":34,"Velocity":61,"Duration":185667,"SoundDuration":185667,"Delta":148600252},{"NoteNumber":46,"Velocity":55,"Duration":97719,"SoundDuration":97719,"Delta":148697972},{"NoteNumber":63,"Velocity":81,"Duration":387097,"SoundDuration":387097,"Delta":148795692},{"NoteNumber":69,"Velocity":81,"Duration":387097,"SoundDuration":387097,"Delta":148795692},{"NoteNumber":34,"Velocity":61,"Duration":183871,"SoundDuration":183871,"Delta":148795692},{"NoteNumber":46,"Velocity":55,"Duration":96774,"SoundDuration":96774,"Delta":148892466},{"NoteNumber":34,"Velocity":60,"Duration":183871,"SoundDuration":183871,"Delta":148989241},{"NoteNumber":46,"Velocity":55,"Duration":96774,"SoundDuration":96774,"Delta":149086015},{"NoteNumber":62,"Velocity":81,"Duration":194857,"SoundDuration":194857,"Delta":149182789},{"NoteNumber":70,"Velocity":81,"Duration":194857,"SoundDuration":194857,"Delta":149182789},{"NoteNumber":34,"Velocity":64,"Duration":185117,"SoundDuration":185117,"Delta":149182789},{"NoteNumber":46,"Velocity":55,"Duration":97402,"SoundDuration":97402,"Delta":149280244},{"NoteNumber":34,"Velocity":61,"Duration":185064,"SoundDuration":185064,"Delta":149377647},{"NoteNumber":46,"Velocity":55,"Duration":97402,"SoundDuration":97402,"Delta":149475049},{"NoteNumber":57,"Velocity":81,"Duration":389610,"SoundDuration":389610,"Delta":149572452},{"NoteNumber":63,"Velocity":81,"Duration":389610,"SoundDuration":389610,"Delta":149572452},{"NoteNumber":34,"Velocity":61,"Duration":185064,"SoundDuration":185064,"Delta":149572452},{"NoteNumber":46,"Velocity":55,"Duration":97402,"SoundDuration":97402,"Delta":149669854},{"NoteNumber":34,"Velocity":60,"Duration":185064,"SoundDuration":185064,"Delta":149767257},{"NoteNumber":46,"Velocity":55,"Duration":97402,"SoundDuration":97402,"Delta":149864659},{"NoteNumber":58,"Velocity":81,"Duration":202020,"SoundDuration":202020,"Delta":149962062},{"NoteNumber":62,"Velocity":81,"Duration":202020,"SoundDuration":202020,"Delta":149962062},{"NoteNumber":46,"Velocity":55,"Duration":202020,"SoundDuration":202020,"Delta":149962062},{"NoteNumber":34,"Velocity":64,"Duration":202020,"SoundDuration":202020,"Delta":149962062},{"NoteNumber":57,"Velocity":50,"Duration":202020,"SoundDuration":202020,"Delta":150164082},{"NoteNumber":58,"Velocity":59,"Duration":202020,"SoundDuration":202020,"Delta":150366102},{"NoteNumber":57,"Velocity":56,"Duration":202019,"SoundDuration":202019,"Delta":150568122},{"NoteNumber":58,"Velocity":57,"Duration":202020,"SoundDuration":202020,"Delta":150770142},{"NoteNumber":57,"Velocity":49,"Duration":202020,"SoundDuration":202020,"Delta":150972162},{"NoteNumber":58,"Velocity":57,"Duration":202020,"SoundDuration":202020,"Delta":151174182},{"NoteNumber":57,"Velocity":51,"Duration":202020,"SoundDuration":202020,"Delta":151376202},{"NoteNumber":58,"Velocity":44,"Duration":796999,"SoundDuration":796999,"Delta":151578222},{"NoteNumber":46,"Velocity":55,"Duration":100671,"SoundDuration":100671,"Delta":151783000},{"NoteNumber":63,"Velocity":38,"Duration":191275,"SoundDuration":191275,"Delta":151783000},{"NoteNumber":66,"Velocity":38,"Duration":191275,"SoundDuration":191275,"Delta":151783000},{"NoteNumber":51,"Velocity":58,"Duration":97719,"SoundDuration":97719,"Delta":151984342},{"NoteNumber":63,"Velocity":38,"Duration":185667,"SoundDuration":185667,"Delta":151984342},{"NoteNumber":66,"Velocity":38,"Duration":185667,"SoundDuration":185667,"Delta":151984342},{"NoteNumber":53,"Velocity":61,"Duration":97719,"SoundDuration":97719,"Delta":152179782},{"NoteNumber":63,"Velocity":38,"Duration":185667,"SoundDuration":185667,"Delta":152179782},{"NoteNumber":66,"Velocity":38,"Duration":185667,"SoundDuration":185667,"Delta":152179782},{"NoteNumber":54,"Velocity":64,"Duration":102040,"SoundDuration":102040,"Delta":152375221},{"NoteNumber":58,"Velocity":44,"Duration":806834,"SoundDuration":806834,"Delta":152375221},{"NoteNumber":70,"Velocity":62,"Duration":102040,"SoundDuration":102040,"Delta":152579303},{"NoteNumber":63,"Velocity":38,"Duration":193877,"SoundDuration":193877,"Delta":152579303},{"NoteNumber":66,"Velocity":38,"Duration":193877,"SoundDuration":193877,"Delta":152579303},{"NoteNumber":75,"Velocity":64,"Duration":99667,"SoundDuration":99667,"Delta":152783384},{"NoteNumber":63,"Velocity":38,"Duration":189368,"SoundDuration":189368,"Delta":152783384},{"NoteNumber":66,"Velocity":38,"Duration":189368,"SoundDuration":189368,"Delta":152783384},{"NoteNumber":77,"Velocity":66,"Duration":99667,"SoundDuration":99667,"Delta":152982720},{"NoteNumber":63,"Velocity":38,"Duration":189368,"SoundDuration":189368,"Delta":152982720},{"NoteNumber":66,"Velocity":38,"Duration":189368,"SoundDuration":189368,"Delta":152982720},{"NoteNumber":70,"Velocity":65,"Duration":49833,"SoundDuration":49833,"Delta":153132222},{"NoteNumber":78,"Velocity":75,"Duration":602702,"SoundDuration":602702,"Delta":153182055},{"NoteNumber":58,"Velocity":44,"Duration":806092,"SoundDuration":806092,"Delta":153182055},{"NoteNumber":63,"Velocity":38,"Duration":189999,"SoundDuration":189999,"Delta":153384758},{"NoteNumber":66,"Velocity":38,"Duration":189999,"SoundDuration":189999,"Delta":153384758},{"NoteNumber":63,"Velocity":38,"Duration":189999,"SoundDuration":189999,"Delta":153584758},{"NoteNumber":66,"Velocity":38,"Duration":189999,"SoundDuration":189999,"Delta":153584758},{"NoteNumber":75,"Velocity":63,"Duration":203390,"SoundDuration":203390,"Delta":153784758},{"NoteNumber":63,"Velocity":38,"Duration":193220,"SoundDuration":193220,"Delta":153784758},{"NoteNumber":66,"Velocity":38,"Duration":193220,"SoundDuration":193220,"Delta":153784758},{"NoteNumber":70,"Velocity":60,"Duration":50847,"SoundDuration":50847,"Delta":153937300},{"NoteNumber":78,"Velocity":71,"Duration":603389,"SoundDuration":603389,"Delta":153988148},{"NoteNumber":58,"Velocity":44,"Duration":805409,"SoundDuration":805409,"Delta":153988148},{"NoteNumber":63,"Velocity":38,"Duration":189999,"SoundDuration":189999,"Delta":154191538},{"NoteNumber":66,"Velocity":38,"Duration":189999,"SoundDuration":189999,"Delta":154191538},{"NoteNumber":63,"Velocity":38,"Duration":189999,"SoundDuration":189999,"Delta":154391538},{"NoteNumber":66,"Velocity":38,"Duration":189999,"SoundDuration":189999,"Delta":154391538},{"NoteNumber":75,"Velocity":58,"Duration":202020,"SoundDuration":202020,"Delta":154591538},{"NoteNumber":63,"Velocity":38,"Duration":202020,"SoundDuration":202020,"Delta":154591538},{"NoteNumber":66,"Velocity":38,"Duration":202020,"SoundDuration":202020,"Delta":154591538},{"NoteNumber":74,"Velocity":60,"Duration":207612,"SoundDuration":207612,"Delta":154793558},{"NoteNumber":58,"Velocity":44,"Duration":798491,"SoundDuration":798491,"Delta":154793558},{"NoteNumber":46,"Velocity":57,"Duration":99999,"SoundDuration":99999,"Delta":155001170},{"NoteNumber":65,"Velocity":38,"Duration":189999,"SoundDuration":189999,"Delta":155001170},{"NoteNumber":68,"Velocity":38,"Duration":189999,"SoundDuration":189999,"Delta":155001170},{"NoteNumber":53,"Velocity":60,"Duration":97719,"SoundDuration":97719,"Delta":155201170},{"NoteNumber":65,"Velocity":38,"Duration":185667,"SoundDuration":185667,"Delta":155201170},{"NoteNumber":68,"Velocity":38,"Duration":185667,"SoundDuration":185667,"Delta":155201170},{"NoteNumber":54,"Velocity":63,"Duration":97719,"SoundDuration":97719,"Delta":155396610},{"NoteNumber":65,"Velocity":38,"Duration":185667,"SoundDuration":185667,"Delta":155396610},{"NoteNumber":68,"Velocity":38,"Duration":185667,"SoundDuration":185667,"Delta":155396610},{"NoteNumber":56,"Velocity":66,"Duration":102040,"SoundDuration":102040,"Delta":155592049},{"NoteNumber":58,"Velocity":44,"Duration":808163,"SoundDuration":808163,"Delta":155592049},{"NoteNumber":70,"Velocity":59,"Duration":204081,"SoundDuration":204081,"Delta":155796131},{"NoteNumber":65,"Velocity":38,"Duration":193877,"SoundDuration":193877,"Delta":155796131},{"NoteNumber":68,"Velocity":38,"Duration":193877,"SoundDuration":193877,"Delta":155796131},{"NoteNumber":80,"Velocity":62,"Duration":199999,"SoundDuration":199999,"Delta":156000212},{"NoteNumber":65,"Velocity":38,"Duration":189999,"SoundDuration":189999,"Delta":156000212},{"NoteNumber":68,"Velocity":38,"Duration":189999,"SoundDuration":189999,"Delta":156000212},{"NoteNumber":78,"Velocity":65,"Duration":200000,"SoundDuration":200000,"Delta":156200212},{"NoteNumber":65,"Velocity":38,"Duration":189999,"SoundDuration":189999,"Delta":156200212},{"NoteNumber":68,"Velocity":38,"Duration":189999,"SoundDuration":189999,"Delta":156200212},{"NoteNumber":78,"Velocity":60,"Duration":50847,"SoundDuration":50847,"Delta":156400212},{"NoteNumber":58,"Velocity":44,"Duration":813559,"SoundDuration":813559,"Delta":156400212},{"NoteNumber":80,"Velocity":60,"Duration":50847,"SoundDuration":50847,"Delta":156451060},{"NoteNumber":78,"Velocity":67,"Duration":101695,"SoundDuration":101695,"Delta":156501907},{"NoteNumber":77,"Velocity":60,"Duration":203389,"SoundDuration":203389,"Delta":156603602},{"NoteNumber":65,"Velocity":38,"Duration":193220,"SoundDuration":193220,"Delta":156603602},{"NoteNumber":68,"Velocity":38,"Duration":193220,"SoundDuration":193220,"Delta":156603602},{"NoteNumber":77,"Velocity":60,"Duration":50847,"SoundDuration":50847,"Delta":156806992},{"NoteNumber":65,"Velocity":38,"Duration":193220,"SoundDuration":193220,"Delta":156806992},{"NoteNumber":68,"Velocity":38,"Duration":193220,"SoundDuration":193220,"Delta":156806992},{"NoteNumber":78,"Velocity":60,"Duration":50847,"SoundDuration":50847,"Delta":156857840},{"NoteNumber":77,"Velocity":67,"Duration":101695,"SoundDuration":101695,"Delta":156908687},{"NoteNumber":75,"Velocity":60,"Duration":203389,"SoundDuration":203389,"Delta":157010382},{"NoteNumber":65,"Velocity":38,"Duration":193220,"SoundDuration":193220,"Delta":157010382},{"NoteNumber":68,"Velocity":38,"Duration":193220,"SoundDuration":193220,"Delta":157010382},{"NoteNumber":75,"Velocity":60,"Duration":50847,"SoundDuration":50847,"Delta":157213772},{"NoteNumber":58,"Velocity":44,"Duration":813559,"SoundDuration":813559,"Delta":157213772},{"NoteNumber":77,"Velocity":60,"Duration":50847,"SoundDuration":50847,"Delta":157264620},{"NoteNumber":75,"Velocity":66,"Duration":101695,"SoundDuration":101695,"Delta":157315467},{"NoteNumber":74,"Velocity":60,"Duration":203389,"SoundDuration":203389,"Delta":157417162},{"NoteNumber":65,"Velocity":38,"Duration":193220,"SoundDuration":193220,"Delta":157417162},{"NoteNumber":68,"Velocity":38,"Duration":193220,"SoundDuration":193220,"Delta":157417162},{"NoteNumber":72,"Velocity":60,"Duration":101695,"SoundDuration":101695,"Delta":157620552},{"NoteNumber":65,"Velocity":38,"Duration":193220,"SoundDuration":193220,"Delta":157620552},{"NoteNumber":68,"Velocity":38,"Duration":193220,"SoundDuration":193220,"Delta":157620552},{"NoteNumber":74,"Velocity":60,"Duration":101695,"SoundDuration":101695,"Delta":157823942},{"NoteNumber":65,"Velocity":38,"Duration":193220,"SoundDuration":193220,"Delta":157823942},{"NoteNumber":68,"Velocity":38,"Duration":193220,"SoundDuration":193220,"Delta":157823942},{"NoteNumber":75,"Velocity":60,"Duration":208333,"SoundDuration":208333,"Delta":158027332},{"NoteNumber":58,"Velocity":44,"Duration":799212,"SoundDuration":799212,"Delta":158027332},{"NoteNumber":46,"Velocity":55,"Duration":99999,"SoundDuration":99999,"Delta":158235666},{"NoteNumber":63,"Velocity":38,"Duration":189999,"SoundDuration":189999,"Delta":158235666},{"NoteNumber":66,"Velocity":38,"Duration":189999,"SoundDuration":189999,"Delta":158235666},{"NoteNumber":51,"Velocity":58,"Duration":97719,"SoundDuration":97719,"Delta":158435666},{"NoteNumber":63,"Velocity":38,"Duration":185667,"SoundDuration":185667,"Delta":158435666},{"NoteNumber":66,"Velocity":38,"Duration":185667,"SoundDuration":185667,"Delta":158435666},{"NoteNumber":53,"Velocity":61,"Duration":97719,"SoundDuration":97719,"Delta":158631105},{"NoteNumber":63,"Velocity":38,"Duration":185667,"SoundDuration":185667,"Delta":158631105},{"NoteNumber":66,"Velocity":38,"Duration":185667,"SoundDuration":185667,"Delta":158631105},{"NoteNumber":54,"Velocity":64,"Duration":102040,"SoundDuration":102040,"Delta":158826545},{"NoteNumber":58,"Velocity":44,"Duration":806834,"SoundDuration":806834,"Delta":158826545},{"NoteNumber":70,"Velocity":62,"Duration":102040,"SoundDuration":102040,"Delta":159030626},{"NoteNumber":63,"Velocity":38,"Duration":193877,"SoundDuration":193877,"Delta":159030626},{"NoteNumber":66,"Velocity":38,"Duration":193877,"SoundDuration":193877,"Delta":159030626},{"NoteNumber":75,"Velocity":64,"Duration":99667,"SoundDuration":99667,"Delta":159234708},{"NoteNumber":63,"Velocity":38,"Duration":189368,"SoundDuration":189368,"Delta":159234708},{"NoteNumber":66,"Velocity":38,"Duration":189368,"SoundDuration":189368,"Delta":159234708},{"NoteNumber":77,"Velocity":66,"Duration":99667,"SoundDuration":99667,"Delta":159434043},{"NoteNumber":63,"Velocity":38,"Duration":189368,"SoundDuration":189368,"Delta":159434043},{"NoteNumber":66,"Velocity":38,"Duration":189368,"SoundDuration":189368,"Delta":159434043},{"NoteNumber":70,"Velocity":65,"Duration":49833,"SoundDuration":49833,"Delta":159583545},{"NoteNumber":78,"Velocity":75,"Duration":602702,"SoundDuration":602702,"Delta":159633379},{"NoteNumber":58,"Velocity":44,"Duration":806092,"SoundDuration":806092,"Delta":159633379},{"NoteNumber":63,"Velocity":38,"Duration":189999,"SoundDuration":189999,"Delta":159836081},{"NoteNumber":66,"Velocity":38,"Duration":189999,"SoundDuration":189999,"Delta":159836081},{"NoteNumber":63,"Velocity":38,"Duration":189999,"SoundDuration":189999,"Delta":160036081},{"NoteNumber":66,"Velocity":38,"Duration":189999,"SoundDuration":189999,"Delta":160036081},{"NoteNumber":75,"Velocity":63,"Duration":203390,"SoundDuration":203390,"Delta":160236081},{"NoteNumber":63,"Velocity":38,"Duration":193220,"SoundDuration":193220,"Delta":160236081},{"NoteNumber":66,"Velocity":38,"Duration":193220,"SoundDuration":193220,"Delta":160236081},{"NoteNumber":70,"Velocity":60,"Duration":50847,"SoundDuration":50847,"Delta":160388624},{"NoteNumber":78,"Velocity":71,"Duration":603389,"SoundDuration":603389,"Delta":160439471},{"NoteNumber":58,"Velocity":44,"Duration":805409,"SoundDuration":805409,"Delta":160439471},{"NoteNumber":63,"Velocity":38,"Duration":189999,"SoundDuration":189999,"Delta":160642861},{"NoteNumber":66,"Velocity":38,"Duration":189999,"SoundDuration":189999,"Delta":160642861},{"NoteNumber":63,"Velocity":38,"Duration":189999,"SoundDuration":189999,"Delta":160842861},{"NoteNumber":66,"Velocity":38,"Duration":189999,"SoundDuration":189999,"Delta":160842861},{"NoteNumber":75,"Velocity":58,"Duration":202020,"SoundDuration":202020,"Delta":161042861},{"NoteNumber":63,"Velocity":38,"Duration":191919,"SoundDuration":191919,"Delta":161042861},{"NoteNumber":66,"Velocity":38,"Duration":191919,"SoundDuration":191919,"Delta":161042861},{"NoteNumber":72,"Velocity":60,"Duration":208333,"SoundDuration":208333,"Delta":161244881},{"NoteNumber":56,"Velocity":44,"Duration":794703,"SoundDuration":794703,"Delta":161244881},{"NoteNumber":44,"Velocity":57,"Duration":99009,"SoundDuration":99009,"Delta":161453215},{"NoteNumber":63,"Velocity":38,"Duration":188119,"SoundDuration":188119,"Delta":161453215},{"NoteNumber":66,"Velocity":38,"Duration":188119,"SoundDuration":188119,"Delta":161453215},{"NoteNumber":51,"Velocity":60,"Duration":97087,"SoundDuration":97087,"Delta":161651235},{"NoteNumber":63,"Velocity":38,"Duration":184466,"SoundDuration":184466,"Delta":161651235},{"NoteNumber":66,"Velocity":38,"Duration":184466,"SoundDuration":184466,"Delta":161651235},{"NoteNumber":53,"Velocity":63,"Duration":97087,"SoundDuration":97087,"Delta":161845410},{"NoteNumber":63,"Velocity":38,"Duration":184466,"SoundDuration":184466,"Delta":161845410},{"NoteNumber":66,"Velocity":38,"Duration":184466,"SoundDuration":184466,"Delta":161845410},{"NoteNumber":54,"Velocity":66,"Duration":102040,"SoundDuration":102040,"Delta":162039585},{"NoteNumber":56,"Velocity":44,"Duration":808163,"SoundDuration":808163,"Delta":162039585},{"NoteNumber":68,"Velocity":59,"Duration":204081,"SoundDuration":204081,"Delta":162243666},{"NoteNumber":63,"Velocity":38,"Duration":193877,"SoundDuration":193877,"Delta":162243666},{"NoteNumber":66,"Velocity":38,"Duration":193877,"SoundDuration":193877,"Delta":162243666},{"NoteNumber":78,"Velocity":62,"Duration":199999,"SoundDuration":199999,"Delta":162447748},{"NoteNumber":63,"Velocity":38,"Duration":189999,"SoundDuration":189999,"Delta":162447748},{"NoteNumber":66,"Velocity":38,"Duration":189999,"SoundDuration":189999,"Delta":162447748},{"NoteNumber":77,"Velocity":65,"Duration":200000,"SoundDuration":200000,"Delta":162647748},{"NoteNumber":63,"Velocity":38,"Duration":189999,"SoundDuration":189999,"Delta":162647748},{"NoteNumber":66,"Velocity":38,"Duration":189999,"SoundDuration":189999,"Delta":162647748},{"NoteNumber":77,"Velocity":60,"Duration":50847,"SoundDuration":50847,"Delta":162847748},{"NoteNumber":56,"Velocity":44,"Duration":813559,"SoundDuration":813559,"Delta":162847748},{"NoteNumber":78,"Velocity":60,"Duration":50847,"SoundDuration":50847,"Delta":162898595},{"NoteNumber":77,"Velocity":67,"Duration":101695,"SoundDuration":101695,"Delta":162949443},{"NoteNumber":75,"Velocity":60,"Duration":203389,"SoundDuration":203389,"Delta":163051138},{"NoteNumber":63,"Velocity":38,"Duration":193220,"SoundDuration":193220,"Delta":163051138},{"NoteNumber":66,"Velocity":38,"Duration":193220,"SoundDuration":193220,"Delta":163051138},{"NoteNumber":75,"Velocity":60,"Duration":50847,"SoundDuration":50847,"Delta":163254528},{"NoteNumber":63,"Velocity":38,"Duration":193220,"SoundDuration":193220,"Delta":163254528},{"NoteNumber":66,"Velocity":38,"Duration":193220,"SoundDuration":193220,"Delta":163254528},{"NoteNumber":77,"Velocity":60,"Duration":50847,"SoundDuration":50847,"Delta":163305375},{"NoteNumber":75,"Velocity":67,"Duration":101695,"SoundDuration":101695,"Delta":163356223},{"NoteNumber":73,"Velocity":60,"Duration":203389,"SoundDuration":203389,"Delta":163457918},{"NoteNumber":63,"Velocity":38,"Duration":193220,"SoundDuration":193220,"Delta":163457918},{"NoteNumber":66,"Velocity":38,"Duration":193220,"SoundDuration":193220,"Delta":163457918},{"NoteNumber":73,"Velocity":60,"Duration":50847,"SoundDuration":50847,"Delta":163661308},{"NoteNumber":56,"Velocity":44,"Duration":813559,"SoundDuration":813559,"Delta":163661308},{"NoteNumber":75,"Velocity":60,"Duration":50847,"SoundDuration":50847,"Delta":163712155},{"NoteNumber":73,"Velocity":66,"Duration":101695,"SoundDuration":101695,"Delta":163763003},{"NoteNumber":72,"Velocity":60,"Duration":203389,"SoundDuration":203389,"Delta":163864698},{"NoteNumber":63,"Velocity":38,"Duration":193220,"SoundDuration":193220,"Delta":163864698},{"NoteNumber":66,"Velocity":38,"Duration":193220,"SoundDuration":193220,"Delta":163864698},{"NoteNumber":70,"Velocity":60,"Duration":101695,"SoundDuration":101695,"Delta":164068088},{"NoteNumber":63,"Velocity":38,"Duration":193220,"SoundDuration":193220,"Delta":164068088},{"NoteNumber":66,"Velocity":38,"Duration":193220,"SoundDuration":193220,"Delta":164068088},{"NoteNumber":72,"Velocity":60,"Duration":101695,"SoundDuration":101695,"Delta":164271478},{"NoteNumber":63,"Velocity":38,"Duration":193220,"SoundDuration":193220,"Delta":164271478},{"NoteNumber":66,"Velocity":38,"Duration":193220,"SoundDuration":193220,"Delta":164271478},{"NoteNumber":73,"Velocity":60,"Duration":204778,"SoundDuration":204778,"Delta":164474868},{"NoteNumber":56,"Velocity":44,"Duration":798890,"SoundDuration":798890,"Delta":164474868},{"NoteNumber":44,"Velocity":55,"Duration":100334,"SoundDuration":100334,"Delta":164679646},{"NoteNumber":61,"Velocity":38,"Duration":190635,"SoundDuration":190635,"Delta":164679646},{"NoteNumber":65,"Velocity":38,"Duration":190635,"SoundDuration":190635,"Delta":164679646},{"NoteNumber":49,"Velocity":58,"Duration":98360,"SoundDuration":98360,"Delta":164880315},{"NoteNumber":61,"Velocity":38,"Duration":186885,"SoundDuration":186885,"Delta":164880315},{"NoteNumber":65,"Velocity":38,"Duration":186885,"SoundDuration":186885,"Delta":164880315},{"NoteNumber":51,"Velocity":61,"Duration":98360,"SoundDuration":98360,"Delta":165077036},{"NoteNumber":61,"Velocity":38,"Duration":186885,"SoundDuration":186885,"Delta":165077036},{"NoteNumber":65,"Velocity":38,"Duration":186885,"SoundDuration":186885,"Delta":165077036},{"NoteNumber":53,"Velocity":64,"Duration":102040,"SoundDuration":102040,"Delta":165273758},{"NoteNumber":56,"Velocity":44,"Duration":806834,"SoundDuration":806834,"Delta":165273758},{"NoteNumber":68,"Velocity":62,"Duration":102040,"SoundDuration":102040,"Delta":165477839},{"NoteNumber":61,"Velocity":38,"Duration":193877,"SoundDuration":193877,"Delta":165477839},{"NoteNumber":65,"Velocity":38,"Duration":193877,"SoundDuration":193877,"Delta":165477839},{"NoteNumber":73,"Velocity":64,"Duration":99667,"SoundDuration":99667,"Delta":165681921},{"NoteNumber":61,"Velocity":38,"Duration":189368,"SoundDuration":189368,"Delta":165681921},{"NoteNumber":65,"Velocity":38,"Duration":189368,"SoundDuration":189368,"Delta":165681921},{"NoteNumber":75,"Velocity":66,"Duration":99667,"SoundDuration":99667,"Delta":165881256},{"NoteNumber":61,"Velocity":38,"Duration":189368,"SoundDuration":189368,"Delta":165881256},{"NoteNumber":65,"Velocity":38,"Duration":189368,"SoundDuration":189368,"Delta":165881256},{"NoteNumber":68,"Velocity":65,"Duration":49833,"SoundDuration":49833,"Delta":166030758},{"NoteNumber":77,"Velocity":75,"Duration":602702,"SoundDuration":602702,"Delta":166080592},{"NoteNumber":56,"Velocity":44,"Duration":806092,"SoundDuration":806092,"Delta":166080592},{"NoteNumber":61,"Velocity":38,"Duration":189999,"SoundDuration":189999,"Delta":166283294},{"NoteNumber":65,"Velocity":38,"Duration":189999,"SoundDuration":189999,"Delta":166283294},{"NoteNumber":61,"Velocity":38,"Duration":189999,"SoundDuration":189999,"Delta":166483294},{"NoteNumber":65,"Velocity":38,"Duration":189999,"SoundDuration":189999,"Delta":166483294},{"NoteNumber":73,"Velocity":63,"Duration":203390,"SoundDuration":203390,"Delta":166683294},{"NoteNumber":61,"Velocity":38,"Duration":193220,"SoundDuration":193220,"Delta":166683294},{"NoteNumber":65,"Velocity":38,"Duration":193220,"SoundDuration":193220,"Delta":166683294},{"NoteNumber":68,"Velocity":60,"Duration":50847,"SoundDuration":50847,"Delta":166835837},{"NoteNumber":77,"Velocity":71,"Duration":603389,"SoundDuration":603389,"Delta":166886684},{"NoteNumber":56,"Velocity":44,"Duration":805409,"SoundDuration":805409,"Delta":166886684},{"NoteNumber":61,"Velocity":38,"Duration":189999,"SoundDuration":189999,"Delta":167090074},{"NoteNumber":65,"Velocity":38,"Duration":189999,"SoundDuration":189999,"Delta":167090074},{"NoteNumber":61,"Velocity":38,"Duration":189999,"SoundDuration":189999,"Delta":167290074},{"NoteNumber":65,"Velocity":38,"Duration":189999,"SoundDuration":189999,"Delta":167290074},{"NoteNumber":73,"Velocity":58,"Duration":202020,"SoundDuration":202020,"Delta":167490074},{"NoteNumber":61,"Velocity":38,"Duration":191919,"SoundDuration":191919,"Delta":167490074},{"NoteNumber":65,"Velocity":38,"Duration":191919,"SoundDuration":191919,"Delta":167490074},{"NoteNumber":72,"Velocity":60,"Duration":206896,"SoundDuration":206896,"Delta":167692094},{"NoteNumber":56,"Velocity":44,"Duration":795182,"SoundDuration":795182,"Delta":167692094},{"NoteNumber":44,"Velocity":57,"Duration":99337,"SoundDuration":99337,"Delta":167898991},{"NoteNumber":63,"Velocity":38,"Duration":188741,"SoundDuration":188741,"Delta":167898991},{"NoteNumber":66,"Velocity":38,"Duration":188741,"SoundDuration":188741,"Delta":167898991},{"NoteNumber":51,"Velocity":60,"Duration":97402,"SoundDuration":97402,"Delta":168097666},{"NoteNumber":63,"Velocity":38,"Duration":185064,"SoundDuration":185064,"Delta":168097666},{"NoteNumber":66,"Velocity":38,"Duration":185064,"SoundDuration":185064,"Delta":168097666},{"NoteNumber":53,"Velocity":63,"Duration":97402,"SoundDuration":97402,"Delta":168292471},{"NoteNumber":63,"Velocity":38,"Duration":185064,"SoundDuration":185064,"Delta":168292471},{"NoteNumber":66,"Velocity":38,"Duration":185064,"SoundDuration":185064,"Delta":168292471},{"NoteNumber":54,"Velocity":66,"Duration":102040,"SoundDuration":102040,"Delta":168487276},{"NoteNumber":56,"Velocity":44,"Duration":808163,"SoundDuration":808163,"Delta":168487276},{"NoteNumber":68,"Velocity":59,"Duration":204081,"SoundDuration":204081,"Delta":168691358},{"NoteNumber":63,"Velocity":38,"Duration":193877,"SoundDuration":193877,"Delta":168691358},{"NoteNumber":66,"Velocity":38,"Duration":193877,"SoundDuration":193877,"Delta":168691358},{"NoteNumber":78,"Velocity":62,"Duration":199999,"SoundDuration":199999,"Delta":168895439},{"NoteNumber":63,"Velocity":38,"Duration":189999,"SoundDuration":189999,"Delta":168895439},{"NoteNumber":66,"Velocity":38,"Duration":189999,"SoundDuration":189999,"Delta":168895439},{"NoteNumber":77,"Velocity":65,"Duration":200000,"SoundDuration":200000,"Delta":169095439},{"NoteNumber":63,"Velocity":38,"Duration":189999,"SoundDuration":189999,"Delta":169095439},{"NoteNumber":66,"Velocity":38,"Duration":189999,"SoundDuration":189999,"Delta":169095439},{"NoteNumber":77,"Velocity":60,"Duration":50847,"SoundDuration":50847,"Delta":169295439},{"NoteNumber":56,"Velocity":44,"Duration":813559,"SoundDuration":813559,"Delta":169295439},{"NoteNumber":78,"Velocity":60,"Duration":50847,"SoundDuration":50847,"Delta":169346287},{"NoteNumber":77,"Velocity":67,"Duration":101695,"SoundDuration":101695,"Delta":169397134},{"NoteNumber":75,"Velocity":60,"Duration":203389,"SoundDuration":203389,"Delta":169498829},{"NoteNumber":63,"Velocity":38,"Duration":193220,"SoundDuration":193220,"Delta":169498829},{"NoteNumber":66,"Velocity":38,"Duration":193220,"SoundDuration":193220,"Delta":169498829},{"NoteNumber":75,"Velocity":60,"Duration":50847,"SoundDuration":50847,"Delta":169702219},{"NoteNumber":63,"Velocity":38,"Duration":193220,"SoundDuration":193220,"Delta":169702219},{"NoteNumber":66,"Velocity":38,"Duration":193220,"SoundDuration":193220,"Delta":169702219},{"NoteNumber":77,"Velocity":60,"Duration":50847,"SoundDuration":50847,"Delta":169753067},{"NoteNumber":75,"Velocity":67,"Duration":101695,"SoundDuration":101695,"Delta":169803914},{"NoteNumber":73,"Velocity":60,"Duration":203389,"SoundDuration":203389,"Delta":169905609},{"NoteNumber":63,"Velocity":38,"Duration":193220,"SoundDuration":193220,"Delta":169905609},{"NoteNumber":66,"Velocity":38,"Duration":193220,"SoundDuration":193220,"Delta":169905609},{"NoteNumber":73,"Velocity":60,"Duration":50847,"SoundDuration":50847,"Delta":170108999},{"NoteNumber":56,"Velocity":44,"Duration":813559,"SoundDuration":813559,"Delta":170108999},{"NoteNumber":75,"Velocity":60,"Duration":50847,"SoundDuration":50847,"Delta":170159847},{"NoteNumber":73,"Velocity":66,"Duration":101695,"SoundDuration":101695,"Delta":170210694},{"NoteNumber":72,"Velocity":60,"Duration":203389,"SoundDuration":203389,"Delta":170312389},{"NoteNumber":63,"Velocity":38,"Duration":193220,"SoundDuration":193220,"Delta":170312389},{"NoteNumber":66,"Velocity":38,"Duration":193220,"SoundDuration":193220,"Delta":170312389},{"NoteNumber":70,"Velocity":60,"Duration":101695,"SoundDuration":101695,"Delta":170515779},{"NoteNumber":63,"Velocity":38,"Duration":193220,"SoundDuration":193220,"Delta":170515779},{"NoteNumber":66,"Velocity":38,"Duration":193220,"SoundDuration":193220,"Delta":170515779},{"NoteNumber":72,"Velocity":57,"Duration":101695,"SoundDuration":101695,"Delta":170719169},{"NoteNumber":63,"Velocity":38,"Duration":193220,"SoundDuration":193220,"Delta":170719169},{"NoteNumber":66,"Velocity":38,"Duration":193220,"SoundDuration":193220,"Delta":170719169},{"NoteNumber":73,"Velocity":60,"Duration":204778,"SoundDuration":204778,"Delta":170922559},{"NoteNumber":61,"Velocity":54,"Duration":404777,"SoundDuration":404777,"Delta":170922559},{"NoteNumber":49,"Velocity":73,"Duration":199999,"SoundDuration":199999,"Delta":171127337},{"NoteNumber":65,"Velocity":53,"Duration":199999,"SoundDuration":199999,"Delta":171127337},{"NoteNumber":68,"Velocity":53,"Duration":199999,"SoundDuration":199999,"Delta":171127337},{"NoteNumber":56,"Velocity":77,"Duration":197368,"SoundDuration":197368,"Delta":171327337},{"NoteNumber":59,"Velocity":60,"Duration":402848,"SoundDuration":402848,"Delta":171327337},{"NoteNumber":47,"Velocity":73,"Duration":102739,"SoundDuration":102739,"Delta":171524706},{"NoteNumber":65,"Velocity":53,"Duration":205479,"SoundDuration":205479,"Delta":171524706},{"NoteNumber":68,"Velocity":53,"Duration":205479,"SoundDuration":205479,"Delta":171524706},{"NoteNumber":46,"Velocity":77,"Duration":102739,"SoundDuration":102739,"Delta":171730185},{"NoteNumber":58,"Velocity":53,"Duration":810958,"SoundDuration":810958,"Delta":171730185},{"NoteNumber":70,"Velocity":59,"Duration":205479,"SoundDuration":205479,"Delta":171935665},{"NoteNumber":65,"Velocity":38,"Duration":195205,"SoundDuration":195205,"Delta":171935665},{"NoteNumber":68,"Velocity":38,"Duration":195205,"SoundDuration":195205,"Delta":171935665},{"NoteNumber":80,"Velocity":62,"Duration":199999,"SoundDuration":199999,"Delta":172141144},{"NoteNumber":65,"Velocity":38,"Duration":189999,"SoundDuration":189999,"Delta":172141144},{"NoteNumber":68,"Velocity":38,"Duration":189999,"SoundDuration":189999,"Delta":172141144},{"NoteNumber":78,"Velocity":65,"Duration":200000,"SoundDuration":200000,"Delta":172341144},{"NoteNumber":65,"Velocity":38,"Duration":189999,"SoundDuration":189999,"Delta":172341144},{"NoteNumber":68,"Velocity":38,"Duration":189999,"SoundDuration":189999,"Delta":172341144},{"NoteNumber":78,"Velocity":60,"Duration":50847,"SoundDuration":50847,"Delta":172541144},{"NoteNumber":58,"Velocity":44,"Duration":813559,"SoundDuration":813559,"Delta":172541144},{"NoteNumber":80,"Velocity":60,"Duration":50847,"SoundDuration":50847,"Delta":172591992},{"NoteNumber":78,"Velocity":67,"Duration":101695,"SoundDuration":101695,"Delta":172642839},{"NoteNumber":77,"Velocity":60,"Duration":203389,"SoundDuration":203389,"Delta":172744534},{"NoteNumber":65,"Velocity":38,"Duration":193220,"SoundDuration":193220,"Delta":172744534},{"NoteNumber":68,"Velocity":38,"Duration":193220,"SoundDuration":193220,"Delta":172744534},{"NoteNumber":77,"Velocity":60,"Duration":50847,"SoundDuration":50847,"Delta":172947924},{"NoteNumber":65,"Velocity":38,"Duration":193220,"SoundDuration":193220,"Delta":172947924},{"NoteNumber":68,"Velocity":38,"Duration":193220,"SoundDuration":193220,"Delta":172947924},{"NoteNumber":78,"Velocity":60,"Duration":50847,"SoundDuration":50847,"Delta":172998772},{"NoteNumber":77,"Velocity":67,"Duration":101695,"SoundDuration":101695,"Delta":173049619},{"NoteNumber":75,"Velocity":60,"Duration":203389,"SoundDuration":203389,"Delta":173151314},{"NoteNumber":65,"Velocity":38,"Duration":193220,"SoundDuration":193220,"Delta":173151314},{"NoteNumber":68,"Velocity":38,"Duration":193220,"SoundDuration":193220,"Delta":173151314},{"NoteNumber":75,"Velocity":60,"Duration":50847,"SoundDuration":50847,"Delta":173354704},{"NoteNumber":58,"Velocity":44,"Duration":813559,"SoundDuration":813559,"Delta":173354704},{"NoteNumber":77,"Velocity":60,"Duration":50847,"SoundDuration":50847,"Delta":173405552},{"NoteNumber":75,"Velocity":66,"Duration":101695,"SoundDuration":101695,"Delta":173456399},{"NoteNumber":74,"Velocity":60,"Duration":203389,"SoundDuration":203389,"Delta":173558094},{"NoteNumber":65,"Velocity":38,"Duration":193220,"SoundDuration":193220,"Delta":173558094},{"NoteNumber":68,"Velocity":38,"Duration":193220,"SoundDuration":193220,"Delta":173558094},{"NoteNumber":72,"Velocity":60,"Duration":101695,"SoundDuration":101695,"Delta":173761484},{"NoteNumber":65,"Velocity":38,"Duration":193220,"SoundDuration":193220,"Delta":173761484},{"NoteNumber":68,"Velocity":38,"Duration":193220,"SoundDuration":193220,"Delta":173761484},{"NoteNumber":74,"Velocity":57,"Duration":101695,"SoundDuration":101695,"Delta":173964874},{"NoteNumber":65,"Velocity":38,"Duration":193220,"SoundDuration":193220,"Delta":173964874},{"NoteNumber":68,"Velocity":38,"Duration":193220,"SoundDuration":193220,"Delta":173964874},{"NoteNumber":75,"Velocity":60,"Duration":209789,"SoundDuration":209789,"Delta":174168264},{"NoteNumber":63,"Velocity":54,"Duration":411132,"SoundDuration":411132,"Delta":174168264},{"NoteNumber":51,"Velocity":73,"Duration":201342,"SoundDuration":201342,"Delta":174378054},{"NoteNumber":66,"Velocity":53,"Duration":201342,"SoundDuration":201342,"Delta":174378054},{"NoteNumber":70,"Velocity":53,"Duration":201342,"SoundDuration":201342,"Delta":174378054},{"NoteNumber":58,"Velocity":77,"Duration":198020,"SoundDuration":198020,"Delta":174579397},{"NoteNumber":61,"Velocity":60,"Duration":403499,"SoundDuration":403499,"Delta":174579397},{"NoteNumber":49,"Velocity":73,"Duration":102739,"SoundDuration":102739,"Delta":174777417},{"NoteNumber":65,"Velocity":53,"Duration":205479,"SoundDuration":205479,"Delta":174777417},{"NoteNumber":70,"Velocity":53,"Duration":205479,"SoundDuration":205479,"Delta":174777417},{"NoteNumber":48,"Velocity":77,"Duration":102739,"SoundDuration":102739,"Delta":174982896},{"NoteNumber":60,"Velocity":53,"Duration":810958,"SoundDuration":810958,"Delta":174982896},{"NoteNumber":72,"Velocity":59,"Duration":205479,"SoundDuration":205479,"Delta":175188376},{"NoteNumber":67,"Velocity":38,"Duration":195205,"SoundDuration":195205,"Delta":175188376},{"NoteNumber":70,"Velocity":38,"Duration":195205,"SoundDuration":195205,"Delta":175188376},{"NoteNumber":82,"Velocity":62,"Duration":199999,"SoundDuration":199999,"Delta":175393855},{"NoteNumber":67,"Velocity":38,"Duration":189999,"SoundDuration":189999,"Delta":175393855},{"NoteNumber":70,"Velocity":38,"Duration":189999,"SoundDuration":189999,"Delta":175393855},{"NoteNumber":80,"Velocity":65,"Duration":200000,"SoundDuration":200000,"Delta":175593855},{"NoteNumber":67,"Velocity":38,"Duration":189999,"SoundDuration":189999,"Delta":175593855},{"NoteNumber":70,"Velocity":38,"Duration":189999,"SoundDuration":189999,"Delta":175593855},{"NoteNumber":80,"Velocity":60,"Duration":50847,"SoundDuration":50847,"Delta":175793855},{"NoteNumber":60,"Velocity":44,"Duration":813559,"SoundDuration":813559,"Delta":175793855},{"NoteNumber":82,"Velocity":60,"Duration":50847,"SoundDuration":50847,"Delta":175844703},{"NoteNumber":80,"Velocity":67,"Duration":101695,"SoundDuration":101695,"Delta":175895550},{"NoteNumber":79,"Velocity":60,"Duration":203389,"SoundDuration":203389,"Delta":175997245},{"NoteNumber":67,"Velocity":38,"Duration":193220,"SoundDuration":193220,"Delta":175997245},{"NoteNumber":70,"Velocity":38,"Duration":193220,"SoundDuration":193220,"Delta":175997245},{"NoteNumber":79,"Velocity":60,"Duration":50847,"SoundDuration":50847,"Delta":176200635},{"NoteNumber":67,"Velocity":38,"Duration":193220,"SoundDuration":193220,"Delta":176200635},{"NoteNumber":70,"Velocity":38,"Duration":193220,"SoundDuration":193220,"Delta":176200635},{"NoteNumber":80,"Velocity":60,"Duration":50847,"SoundDuration":50847,"Delta":176251483},{"NoteNumber":79,"Velocity":67,"Duration":101695,"SoundDuration":101695,"Delta":176302330},{"NoteNumber":77,"Velocity":60,"Duration":203389,"SoundDuration":203389,"Delta":176404025},{"NoteNumber":67,"Velocity":38,"Duration":193220,"SoundDuration":193220,"Delta":176404025},{"NoteNumber":70,"Velocity":38,"Duration":193220,"SoundDuration":193220,"Delta":176404025},{"NoteNumber":77,"Velocity":60,"Duration":50847,"SoundDuration":50847,"Delta":176607415},{"NoteNumber":60,"Velocity":44,"Duration":813559,"SoundDuration":813559,"Delta":176607415},{"NoteNumber":79,"Velocity":60,"Duration":50847,"SoundDuration":50847,"Delta":176658263},{"NoteNumber":77,"Velocity":66,"Duration":101695,"SoundDuration":101695,"Delta":176709110},{"NoteNumber":76,"Velocity":60,"Duration":203389,"SoundDuration":203389,"Delta":176810805},{"NoteNumber":67,"Velocity":38,"Duration":193220,"SoundDuration":193220,"Delta":176810805},{"NoteNumber":70,"Velocity":38,"Duration":193220,"SoundDuration":193220,"Delta":176810805},{"NoteNumber":74,"Velocity":60,"Duration":203390,"SoundDuration":203390,"Delta":177014195},{"NoteNumber":67,"Velocity":38,"Duration":193220,"SoundDuration":193220,"Delta":177014195},{"NoteNumber":70,"Velocity":38,"Duration":193220,"SoundDuration":193220,"Delta":177014195},{"NoteNumber":76,"Velocity":57,"Duration":203389,"SoundDuration":203389,"Delta":177217585},{"NoteNumber":67,"Velocity":38,"Duration":193220,"SoundDuration":193220,"Delta":177217585},{"NoteNumber":70,"Velocity":38,"Duration":193220,"SoundDuration":193220,"Delta":177217585},{"NoteNumber":79,"Velocity":60,"Duration":50847,"SoundDuration":50847,"Delta":177420975},{"NoteNumber":65,"Velocity":44,"Duration":813559,"SoundDuration":813559,"Delta":177420975},{"NoteNumber":80,"Velocity":60,"Duration":50847,"SoundDuration":50847,"Delta":177471823},{"NoteNumber":79,"Velocity":67,"Duration":101695,"SoundDuration":101695,"Delta":177522670},{"NoteNumber":77,"Velocity":60,"Duration":203389,"SoundDuration":203389,"Delta":177624365},{"NoteNumber":68,"Velocity":38,"Duration":193220,"SoundDuration":193220,"Delta":177624365},{"NoteNumber":72,"Velocity":38,"Duration":193220,"SoundDuration":193220,"Delta":177624365},{"NoteNumber":77,"Velocity":60,"Duration":50847,"SoundDuration":50847,"Delta":177827755},{"NoteNumber":68,"Velocity":38,"Duration":193220,"SoundDuration":193220,"Delta":177827755},{"NoteNumber":72,"Velocity":38,"Duration":193220,"SoundDuration":193220,"Delta":177827755},{"NoteNumber":79,"Velocity":60,"Duration":50847,"SoundDuration":50847,"Delta":177878603},{"NoteNumber":77,"Velocity":67,"Duration":101695,"SoundDuration":101695,"Delta":177929450},{"NoteNumber":75,"Velocity":60,"Duration":203389,"SoundDuration":203389,"Delta":178031145},{"NoteNumber":68,"Velocity":38,"Duration":193220,"SoundDuration":193220,"Delta":178031145},{"NoteNumber":72,"Velocity":38,"Duration":193220,"SoundDuration":193220,"Delta":178031145},{"NoteNumber":75,"Velocity":60,"Duration":50847,"SoundDuration":50847,"Delta":178234535},{"NoteNumber":58,"Velocity":44,"Duration":406779,"SoundDuration":406779,"Delta":178234535},{"NoteNumber":77,"Velocity":60,"Duration":50847,"SoundDuration":50847,"Delta":178285383},{"NoteNumber":75,"Velocity":66,"Duration":101695,"SoundDuration":101695,"Delta":178336230},{"NoteNumber":74,"Velocity":60,"Duration":203389,"SoundDuration":203389,"Delta":178437925},{"NoteNumber":65,"Velocity":38,"Duration":193220,"SoundDuration":193220,"Delta":178437925},{"NoteNumber":68,"Velocity":38,"Duration":193220,"SoundDuration":193220,"Delta":178437925},{"NoteNumber":72,"Velocity":60,"Duration":203390,"SoundDuration":203390,"Delta":178641315},{"NoteNumber":59,"Velocity":44,"Duration":406779,"SoundDuration":406779,"Delta":178641315},{"NoteNumber":65,"Velocity":38,"Duration":193220,"SoundDuration":193220,"Delta":178641315},{"NoteNumber":68,"Velocity":38,"Duration":193220,"SoundDuration":193220,"Delta":178641315},{"NoteNumber":74,"Velocity":57,"Duration":203389,"SoundDuration":203389,"Delta":178844705},{"NoteNumber":65,"Velocity":38,"Duration":193220,"SoundDuration":193220,"Delta":178844705},{"NoteNumber":68,"Velocity":38,"Duration":193220,"SoundDuration":193220,"Delta":178844705},{"NoteNumber":77,"Velocity":60,"Duration":50847,"SoundDuration":50847,"Delta":179048095},{"NoteNumber":60,"Velocity":44,"Duration":813559,"SoundDuration":813559,"Delta":179048095},{"NoteNumber":79,"Velocity":60,"Duration":50847,"SoundDuration":50847,"Delta":179098943},{"NoteNumber":77,"Velocity":67,"Duration":101695,"SoundDuration":101695,"Delta":179149790},{"NoteNumber":75,"Velocity":59,"Duration":203389,"SoundDuration":203389,"Delta":179251485},{"NoteNumber":63,"Velocity":37,"Duration":193220,"SoundDuration":193220,"Delta":179251485},{"NoteNumber":67,"Velocity":37,"Duration":193220,"SoundDuration":193220,"Delta":179251485},{"NoteNumber":75,"Velocity":58,"Duration":50847,"SoundDuration":50847,"Delta":179454875},{"NoteNumber":63,"Velocity":36,"Duration":193220,"SoundDuration":193220,"Delta":179454875},{"NoteNumber":67,"Velocity":36,"Duration":193220,"SoundDuration":193220,"Delta":179454875},{"NoteNumber":77,"Velocity":58,"Duration":50847,"SoundDuration":50847,"Delta":179505723},{"NoteNumber":75,"Velocity":64,"Duration":101695,"SoundDuration":101695,"Delta":179556570},{"NoteNumber":74,"Velocity":57,"Duration":203389,"SoundDuration":203389,"Delta":179658265},{"NoteNumber":63,"Velocity":36,"Duration":193220,"SoundDuration":193220,"Delta":179658265},{"NoteNumber":67,"Velocity":36,"Duration":193220,"SoundDuration":193220,"Delta":179658265},{"NoteNumber":74,"Velocity":56,"Duration":50847,"SoundDuration":50847,"Delta":179861655},{"NoteNumber":56,"Velocity":41,"Duration":821243,"SoundDuration":821243,"Delta":179861655},{"NoteNumber":75,"Velocity":55,"Duration":50847,"SoundDuration":50847,"Delta":179912503},{"NoteNumber":74,"Velocity":61,"Duration":101637,"SoundDuration":101637,"Delta":179963350},{"NoteNumber":72,"Velocity":55,"Duration":203622,"SoundDuration":203622,"Delta":180064988},{"NoteNumber":63,"Velocity":34,"Duration":193383,"SoundDuration":193383,"Delta":180064988},{"NoteNumber":65,"Velocity":34,"Duration":193383,"SoundDuration":193383,"Delta":180064988},{"NoteNumber":72,"Velocity":54,"Duration":51252,"SoundDuration":51252,"Delta":180268610},{"NoteNumber":63,"Velocity":34,"Duration":195607,"SoundDuration":195607,"Delta":180268610},{"NoteNumber":65,"Velocity":34,"Duration":195607,"SoundDuration":195607,"Delta":180268610},{"NoteNumber":74,"Velocity":54,"Duration":51428,"SoundDuration":51428,"Delta":180319863},{"NoteNumber":72,"Velocity":59,"Duration":103270,"SoundDuration":103270,"Delta":180371292},{"NoteNumber":71,"Velocity":53,"Duration":208336,"SoundDuration":208336,"Delta":180474563},{"NoteNumber":63,"Velocity":33,"Duration":197846,"SoundDuration":197846,"Delta":180474563},{"NoteNumber":65,"Velocity":33,"Duration":197846,"SoundDuration":197846,"Delta":180474563},{"NoteNumber":72,"Velocity":52,"Duration":53191,"SoundDuration":53191,"Delta":180682899},{"NoteNumber":58,"Velocity":38,"Duration":851064,"SoundDuration":851064,"Delta":180682899},{"NoteNumber":74,"Velocity":52,"Duration":53191,"SoundDuration":53191,"Delta":180736090},{"NoteNumber":72,"Velocity":56,"Duration":106382,"SoundDuration":106382,"Delta":180789282},{"NoteNumber":70,"Velocity":51,"Duration":212766,"SoundDuration":212766,"Delta":180895665},{"NoteNumber":63,"Velocity":32,"Duration":202127,"SoundDuration":202127,"Delta":180895665},{"NoteNumber":67,"Velocity":32,"Duration":202127,"SoundDuration":202127,"Delta":180895665},{"NoteNumber":70,"Velocity":50,"Duration":79787,"SoundDuration":79787,"Delta":181108431},{"NoteNumber":63,"Velocity":31,"Duration":202127,"SoundDuration":202127,"Delta":181108431},{"NoteNumber":67,"Velocity":31,"Duration":202127,"SoundDuration":202127,"Delta":181108431},{"NoteNumber":70,"Velocity":46,"Duration":79787,"SoundDuration":79787,"Delta":181321197},{"NoteNumber":63,"Velocity":31,"Duration":202127,"SoundDuration":202127,"Delta":181321197},{"NoteNumber":67,"Velocity":31,"Duration":202127,"SoundDuration":202127,"Delta":181321197},{"NoteNumber":72,"Velocity":37,"Duration":55147,"SoundDuration":55147,"Delta":181533963},{"NoteNumber":58,"Velocity":27,"Duration":882351,"SoundDuration":882351,"Delta":181533963},{"NoteNumber":74,"Velocity":37,"Duration":55147,"SoundDuration":55147,"Delta":181589110},{"NoteNumber":72,"Velocity":41,"Duration":110293,"SoundDuration":110293,"Delta":181644257},{"NoteNumber":70,"Velocity":37,"Duration":220588,"SoundDuration":220588,"Delta":181754551},{"NoteNumber":62,"Velocity":23,"Duration":209558,"SoundDuration":209558,"Delta":181754551},{"NoteNumber":65,"Velocity":23,"Duration":209558,"SoundDuration":209558,"Delta":181754551},{"NoteNumber":70,"Velocity":37,"Duration":82720,"SoundDuration":82720,"Delta":181975139},{"NoteNumber":62,"Velocity":23,"Duration":209558,"SoundDuration":209558,"Delta":181975139},{"NoteNumber":65,"Velocity":23,"Duration":209558,"SoundDuration":209558,"Delta":181975139},{"NoteNumber":70,"Velocity":35,"Duration":82720,"SoundDuration":82720,"Delta":182195727},{"NoteNumber":62,"Velocity":23,"Duration":209558,"SoundDuration":209558,"Delta":182195727},{"NoteNumber":65,"Velocity":23,"Duration":209558,"SoundDuration":209558,"Delta":182195727},{"NoteNumber":51,"Velocity":36,"Duration":1254519,"SoundDuration":1254519,"Delta":182416315},{"NoteNumber":63,"Velocity":25,"Duration":110293,"SoundDuration":110293,"Delta":182526609},{"NoteNumber":58,"Velocity":24,"Duration":110293,"SoundDuration":110293,"Delta":182526609},{"NoteNumber":67,"Velocity":29,"Duration":104529,"SoundDuration":104529,"Delta":182636903},{"NoteNumber":55,"Velocity":26,"Duration":104529,"SoundDuration":104529,"Delta":182636903},{"NoteNumber":63,"Velocity":29,"Duration":104287,"SoundDuration":104287,"Delta":182741432},{"NoteNumber":58,"Velocity":24,"Duration":104287,"SoundDuration":104287,"Delta":182741432},{"NoteNumber":75,"Velocity":45,"Duration":825114,"SoundDuration":825114,"Delta":182845720},{"NoteNumber":55,"Velocity":32,"Duration":103986,"SoundDuration":103986,"Delta":182845720},{"NoteNumber":63,"Velocity":28,"Duration":103686,"SoundDuration":103686,"Delta":182949707},{"NoteNumber":58,"Velocity":25,"Duration":103686,"SoundDuration":103686,"Delta":182949707},{"NoteNumber":67,"Velocity":30,"Duration":103389,"SoundDuration":103389,"Delta":183053393},{"NoteNumber":55,"Velocity":28,"Duration":103389,"SoundDuration":103389,"Delta":183053393},{"NoteNumber":63,"Velocity":28,"Duration":103092,"SoundDuration":103092,"Delta":183156782},{"NoteNumber":58,"Velocity":26,"Duration":103092,"SoundDuration":103092,"Delta":183156782},{"NoteNumber":67,"Velocity":31,"Duration":102739,"SoundDuration":102739,"Delta":183259875},{"NoteNumber":55,"Velocity":34,"Duration":102739,"SoundDuration":102739,"Delta":183259875},{"NoteNumber":63,"Velocity":30,"Duration":102739,"SoundDuration":102739,"Delta":183362615},{"NoteNumber":58,"Velocity":26,"Duration":102739,"SoundDuration":102739,"Delta":183362615},{"NoteNumber":67,"Velocity":32,"Duration":102739,"SoundDuration":102739,"Delta":183465355},{"NoteNumber":55,"Velocity":29,"Duration":102739,"SoundDuration":102739,"Delta":183465355},{"NoteNumber":63,"Velocity":29,"Duration":102739,"SoundDuration":102739,"Delta":183568094},{"NoteNumber":58,"Velocity":26,"Duration":102739,"SoundDuration":102739,"Delta":183568094},{"NoteNumber":75,"Velocity":50,"Duration":410959,"SoundDuration":410959,"Delta":183670834},{"NoteNumber":51,"Velocity":36,"Duration":410959,"SoundDuration":410959,"Delta":183670834},{"NoteNumber":63,"Velocity":30,"Duration":102739,"SoundDuration":102739,"Delta":183773574},{"NoteNumber":58,"Velocity":28,"Duration":102739,"SoundDuration":102739,"Delta":183773574},{"NoteNumber":67,"Velocity":33,"Duration":102739,"SoundDuration":102739,"Delta":183876314},{"NoteNumber":55,"Velocity":32,"Duration":102739,"SoundDuration":102739,"Delta":183876314},{"NoteNumber":63,"Velocity":32,"Duration":102739,"SoundDuration":102739,"Delta":183979053},{"NoteNumber":58,"Velocity":28,"Duration":102739,"SoundDuration":102739,"Delta":183979053},{"NoteNumber":49,"Velocity":45,"Duration":1259341,"SoundDuration":1259341,"Delta":184081793},{"NoteNumber":63,"Velocity":32,"Duration":111346,"SoundDuration":111346,"Delta":184194575},{"NoteNumber":58,"Velocity":30,"Duration":111346,"SoundDuration":111346,"Delta":184194575},{"NoteNumber":67,"Velocity":36,"Duration":104166,"SoundDuration":104166,"Delta":184305921},{"NoteNumber":55,"Velocity":32,"Duration":104166,"SoundDuration":104166,"Delta":184305921},{"NoteNumber":63,"Velocity":35,"Duration":104166,"SoundDuration":104166,"Delta":184410088},{"NoteNumber":58,"Velocity":29,"Duration":104166,"SoundDuration":104166,"Delta":184410088},{"NoteNumber":75,"Velocity":54,"Duration":826880,"SoundDuration":826880,"Delta":184514255},{"NoteNumber":55,"Velocity":38,"Duration":103806,"SoundDuration":103806,"Delta":184514255},{"NoteNumber":63,"Velocity":33,"Duration":103806,"SoundDuration":103806,"Delta":184618061},{"NoteNumber":58,"Velocity":30,"Duration":103806,"SoundDuration":103806,"Delta":184618061},{"NoteNumber":67,"Velocity":35,"Duration":103448,"SoundDuration":103448,"Delta":184721867},{"NoteNumber":55,"Velocity":33,"Duration":103448,"SoundDuration":103448,"Delta":184721867},{"NoteNumber":63,"Velocity":32,"Duration":103448,"SoundDuration":103448,"Delta":184825316},{"NoteNumber":58,"Velocity":30,"Duration":103448,"SoundDuration":103448,"Delta":184825316},{"NoteNumber":67,"Velocity":35,"Duration":103092,"SoundDuration":103092,"Delta":184928764},{"NoteNumber":55,"Velocity":38,"Duration":103092,"SoundDuration":103092,"Delta":184928764},{"NoteNumber":63,"Velocity":33,"Duration":103092,"SoundDuration":103092,"Delta":185031857},{"NoteNumber":58,"Velocity":29,"Duration":103092,"SoundDuration":103092,"Delta":185031857},{"NoteNumber":67,"Velocity":35,"Duration":103092,"SoundDuration":103092,"Delta":185134949},{"NoteNumber":55,"Velocity":32,"Duration":103092,"SoundDuration":103092,"Delta":185134949},{"NoteNumber":63,"Velocity":32,"Duration":103092,"SoundDuration":103092,"Delta":185238042},{"NoteNumber":58,"Velocity":29,"Duration":103092,"SoundDuration":103092,"Delta":185238042},{"NoteNumber":75,"Velocity":53,"Duration":420802,"SoundDuration":420802,"Delta":185341135},{"NoteNumber":49,"Velocity":38,"Duration":420802,"SoundDuration":420802,"Delta":185341135},{"NoteNumber":63,"Velocity":32,"Duration":103092,"SoundDuration":103092,"Delta":185444228},{"NoteNumber":58,"Velocity":30,"Duration":103092,"SoundDuration":103092,"Delta":185444228},{"NoteNumber":67,"Velocity":35,"Duration":103092,"SoundDuration":103092,"Delta":185547320},{"NoteNumber":55,"Velocity":33,"Duration":103092,"SoundDuration":103092,"Delta":185547320},{"NoteNumber":63,"Velocity":33,"Duration":111524,"SoundDuration":111524,"Delta":185650413},{"NoteNumber":58,"Velocity":29,"Duration":111524,"SoundDuration":111524,"Delta":185650413},{"NoteNumber":75,"Velocity":66,"Duration":76271,"SoundDuration":76271,"Delta":185761937},{"NoteNumber":48,"Velocity":55,"Duration":76271,"SoundDuration":76271,"Delta":185761937},{"NoteNumber":63,"Velocity":41,"Duration":101580,"SoundDuration":101580,"Delta":185863632},{"NoteNumber":56,"Velocity":36,"Duration":101580,"SoundDuration":101580,"Delta":185863632},{"NoteNumber":68,"Velocity":45,"Duration":101351,"SoundDuration":101351,"Delta":185965213},{"NoteNumber":51,"Velocity":39,"Duration":101351,"SoundDuration":101351,"Delta":185965213},{"NoteNumber":63,"Velocity":42,"Duration":101123,"SoundDuration":101123,"Delta":186066564},{"NoteNumber":56,"Velocity":35,"Duration":101123,"SoundDuration":101123,"Delta":186066564},{"NoteNumber":76,"Velocity":67,"Duration":75757,"SoundDuration":75757,"Delta":186167688},{"NoteNumber":46,"Velocity":56,"Duration":75757,"SoundDuration":75757,"Delta":186167688},{"NoteNumber":64,"Velocity":43,"Duration":100671,"SoundDuration":100671,"Delta":186268641},{"NoteNumber":55,"Velocity":36,"Duration":100671,"SoundDuration":100671,"Delta":186268641},{"NoteNumber":72,"Velocity":47,"Duration":100502,"SoundDuration":100502,"Delta":186369313},{"NoteNumber":48,"Velocity":43,"Duration":100502,"SoundDuration":100502,"Delta":186369313},{"NoteNumber":64,"Velocity":43,"Duration":100334,"SoundDuration":100334,"Delta":186469815},{"NoteNumber":55,"Velocity":41,"Duration":100334,"SoundDuration":100334,"Delta":186469815},{"NoteNumber":77,"Velocity":71,"Duration":73529,"SoundDuration":73529,"Delta":186570150},{"NoteNumber":44,"Velocity":58,"Duration":73529,"SoundDuration":73529,"Delta":186570150},{"NoteNumber":65,"Velocity":45,"Duration":98039,"SoundDuration":98039,"Delta":186668189},{"NoteNumber":56,"Velocity":38,"Duration":98039,"SoundDuration":98039,"Delta":186668189},{"NoteNumber":72,"Velocity":50,"Duration":98039,"SoundDuration":98039,"Delta":186766228},{"NoteNumber":48,"Velocity":43,"Duration":98039,"SoundDuration":98039,"Delta":186766228},{"NoteNumber":65,"Velocity":45,"Duration":98039,"SoundDuration":98039,"Delta":186864268},{"NoteNumber":56,"Velocity":38,"Duration":98039,"SoundDuration":98039,"Delta":186864268},{"NoteNumber":79,"Velocity":72,"Duration":73529,"SoundDuration":73529,"Delta":186962307},{"NoteNumber":43,"Velocity":60,"Duration":73529,"SoundDuration":73529,"Delta":186962307},{"NoteNumber":67,"Velocity":47,"Duration":98039,"SoundDuration":98039,"Delta":187060346},{"NoteNumber":55,"Velocity":40,"Duration":98039,"SoundDuration":98039,"Delta":187060346},{"NoteNumber":72,"Velocity":50,"Duration":98039,"SoundDuration":98039,"Delta":187158385},{"NoteNumber":48,"Velocity":43,"Duration":98039,"SoundDuration":98039,"Delta":187158385},{"NoteNumber":67,"Velocity":47,"Duration":98039,"SoundDuration":98039,"Delta":187256425},{"NoteNumber":55,"Velocity":38,"Duration":98039,"SoundDuration":98039,"Delta":187256425},{"NoteNumber":80,"Velocity":74,"Duration":72737,"SoundDuration":72737,"Delta":187354464},{"NoteNumber":41,"Velocity":63,"Duration":72737,"SoundDuration":72737,"Delta":187354464},{"NoteNumber":68,"Velocity":49,"Duration":96000,"SoundDuration":96000,"Delta":187451343},{"NoteNumber":53,"Velocity":42,"Duration":96000,"SoundDuration":96000,"Delta":187451343},{"NoteNumber":72,"Velocity":54,"Duration":97774,"SoundDuration":97774,"Delta":187547344},{"NoteNumber":48,"Velocity":45,"Duration":97774,"SoundDuration":97774,"Delta":187547344},{"NoteNumber":68,"Velocity":49,"Duration":96463,"SoundDuration":96463,"Delta":187645119},{"NoteNumber":53,"Velocity":42,"Duration":96463,"SoundDuration":96463,"Delta":187645119},{"NoteNumber":81,"Velocity":80,"Duration":72115,"SoundDuration":72115,"Delta":187741582},{"NoteNumber":39,"Velocity":66,"Duration":72115,"SoundDuration":72115,"Delta":187741582},{"NoteNumber":69,"Velocity":50,"Duration":96153,"SoundDuration":96153,"Delta":187837736},{"NoteNumber":51,"Velocity":41,"Duration":96153,"SoundDuration":96153,"Delta":187837736},{"NoteNumber":72,"Velocity":55,"Duration":97725,"SoundDuration":97725,"Delta":187933890},{"NoteNumber":41,"Velocity":47,"Duration":97725,"SoundDuration":97725,"Delta":187933890},{"NoteNumber":69,"Velocity":51,"Duration":96568,"SoundDuration":96568,"Delta":188031615},{"NoteNumber":51,"Velocity":41,"Duration":96568,"SoundDuration":96568,"Delta":188031615},{"NoteNumber":82,"Velocity":84,"Duration":72685,"SoundDuration":72685,"Delta":188128184},{"NoteNumber":38,"Velocity":68,"Duration":72685,"SoundDuration":72685,"Delta":188128184},{"NoteNumber":70,"Velocity":51,"Duration":96051,"SoundDuration":96051,"Delta":188224908},{"NoteNumber":50,"Velocity":45,"Duration":96051,"SoundDuration":96051,"Delta":188224908},{"NoteNumber":77,"Velocity":58,"Duration":96414,"SoundDuration":96414,"Delta":188320960},{"NoteNumber":41,"Velocity":49,"Duration":96414,"SoundDuration":96414,"Delta":188320960},{"NoteNumber":70,"Velocity":53,"Duration":96104,"SoundDuration":96104,"Delta":188417374},{"NoteNumber":50,"Velocity":43,"Duration":96104,"SoundDuration":96104,"Delta":188417374},{"NoteNumber":84,"Velocity":85,"Duration":72921,"SoundDuration":72921,"Delta":188513479},{"NoteNumber":36,"Velocity":70,"Duration":72921,"SoundDuration":72921,"Delta":188513479},{"NoteNumber":72,"Velocity":53,"Duration":95745,"SoundDuration":95745,"Delta":188610465},{"NoteNumber":48,"Velocity":45,"Duration":95745,"SoundDuration":95745,"Delta":188610465},{"NoteNumber":77,"Velocity":58,"Duration":96776,"SoundDuration":96776,"Delta":188706210},{"NoteNumber":41,"Velocity":51,"Duration":96776,"SoundDuration":96776,"Delta":188706210},{"NoteNumber":72,"Velocity":54,"Duration":96103,"SoundDuration":96103,"Delta":188802987},{"NoteNumber":48,"Velocity":43,"Duration":96103,"SoundDuration":96103,"Delta":188802987},{"NoteNumber":85,"Velocity":85,"Duration":71631,"SoundDuration":71631,"Delta":188899091},{"NoteNumber":34,"Velocity":70,"Duration":71631,"SoundDuration":71631,"Delta":188899091},{"NoteNumber":73,"Velocity":55,"Duration":97298,"SoundDuration":97298,"Delta":188994787},{"NoteNumber":46,"Velocity":47,"Duration":97298,"SoundDuration":97298,"Delta":188994787},{"NoteNumber":77,"Velocity":63,"Duration":96103,"SoundDuration":96103,"Delta":189092085},{"NoteNumber":41,"Velocity":53,"Duration":96103,"SoundDuration":96103,"Delta":189092085},{"NoteNumber":73,"Velocity":55,"Duration":96672,"SoundDuration":96672,"Delta":189188189},{"NoteNumber":46,"Velocity":48,"Duration":96672,"SoundDuration":96672,"Delta":189188189},{"NoteNumber":86,"Velocity":90,"Duration":72659,"SoundDuration":72659,"Delta":189284861},{"NoteNumber":32,"Velocity":72,"Duration":72659,"SoundDuration":72659,"Delta":189284861},{"NoteNumber":74,"Velocity":57,"Duration":95796,"SoundDuration":95796,"Delta":189381636},{"NoteNumber":44,"Velocity":47,"Duration":95796,"SoundDuration":95796,"Delta":189381636},{"NoteNumber":77,"Velocity":62,"Duration":96413,"SoundDuration":96413,"Delta":189477432},{"NoteNumber":41,"Velocity":53,"Duration":96413,"SoundDuration":96413,"Delta":189477432},{"NoteNumber":74,"Velocity":57,"Duration":97087,"SoundDuration":97087,"Delta":189573846},{"NoteNumber":44,"Velocity":50,"Duration":97087,"SoundDuration":97087,"Delta":189573846},{"NoteNumber":87,"Velocity":89,"Duration":71962,"SoundDuration":71962,"Delta":189670934},{"NoteNumber":31,"Velocity":75,"Duration":71962,"SoundDuration":71962,"Delta":189670934},{"NoteNumber":75,"Velocity":59,"Duration":96155,"SoundDuration":96155,"Delta":189766782},{"NoteNumber":43,"Velocity":50,"Duration":96155,"SoundDuration":96155,"Delta":189766782},{"NoteNumber":82,"Velocity":64,"Duration":96880,"SoundDuration":96880,"Delta":189862937},{"NoteNumber":39,"Velocity":55,"Duration":96880,"SoundDuration":96880,"Delta":189862937},{"NoteNumber":75,"Velocity":59,"Duration":97403,"SoundDuration":97403,"Delta":189959818},{"NoteNumber":43,"Velocity":50,"Duration":97403,"SoundDuration":97403,"Delta":189959818},{"NoteNumber":83,"Velocity":91,"Duration":76271,"SoundDuration":76271,"Delta":190057222},{"NoteNumber":31,"Velocity":76,"Duration":76271,"SoundDuration":76271,"Delta":190057222},{"NoteNumber":71,"Velocity":61,"Duration":101695,"SoundDuration":101695,"Delta":190158917},{"NoteNumber":43,"Velocity":56,"Duration":101695,"SoundDuration":101695,"Delta":190158917},{"NoteNumber":75,"Velocity":67,"Duration":101694,"SoundDuration":101694,"Delta":190260612},{"NoteNumber":39,"Velocity":58,"Duration":101694,"SoundDuration":101694,"Delta":190260612},{"NoteNumber":71,"Velocity":61,"Duration":101695,"SoundDuration":101695,"Delta":190362307},{"NoteNumber":43,"Velocity":55,"Duration":101695,"SoundDuration":101695,"Delta":190362307},{"NoteNumber":32,"Velocity":71,"Duration":197387,"SoundDuration":197387,"Delta":190464002},{"NoteNumber":44,"Velocity":84,"Duration":197387,"SoundDuration":197387,"Delta":190464002},{"NoteNumber":72,"Velocity":78,"Duration":97719,"SoundDuration":97719,"Delta":190563669},{"NoteNumber":75,"Velocity":84,"Duration":97719,"SoundDuration":97719,"Delta":190661389},{"NoteNumber":72,"Velocity":78,"Duration":97719,"SoundDuration":97719,"Delta":190759109},{"NoteNumber":84,"Velocity":88,"Duration":73289,"SoundDuration":73289,"Delta":190856829},{"NoteNumber":72,"Velocity":78,"Duration":97719,"SoundDuration":97719,"Delta":190954548},{"NoteNumber":75,"Velocity":84,"Duration":102040,"SoundDuration":102040,"Delta":191052268},{"NoteNumber":72,"Velocity":76,"Duration":102040,"SoundDuration":102040,"Delta":191154309},{"NoteNumber":46,"Velocity":84,"Duration":199049,"SoundDuration":199049,"Delta":191256350},{"NoteNumber":34,"Velocity":71,"Duration":199049,"SoundDuration":199049,"Delta":191256350},{"NoteNumber":65,"Velocity":78,"Duration":98039,"SoundDuration":98039,"Delta":191357360},{"NoteNumber":68,"Velocity":84,"Duration":98039,"SoundDuration":98039,"Delta":191455399},{"NoteNumber":65,"Velocity":78,"Duration":98039,"SoundDuration":98039,"Delta":191553438},{"NoteNumber":74,"Velocity":88,"Duration":73529,"SoundDuration":73529,"Delta":191651477},{"NoteNumber":65,"Velocity":78,"Duration":98039,"SoundDuration":98039,"Delta":191749517},{"NoteNumber":68,"Velocity":84,"Duration":107527,"SoundDuration":107527,"Delta":191847556},{"NoteNumber":65,"Velocity":76,"Duration":113207,"SoundDuration":113207,"Delta":191955083},{"NoteNumber":51,"Velocity":45,"Duration":1243721,"SoundDuration":1243721,"Delta":192068290},{"NoteNumber":63,"Velocity":32,"Duration":104894,"SoundDuration":104894,"Delta":192173185},{"NoteNumber":58,"Velocity":30,"Duration":104894,"SoundDuration":104894,"Delta":192173185},{"NoteNumber":67,"Velocity":36,"Duration":104529,"SoundDuration":104529,"Delta":192278080},{"NoteNumber":55,"Velocity":32,"Duration":104529,"SoundDuration":104529,"Delta":192278080},{"NoteNumber":63,"Velocity":35,"Duration":104287,"SoundDuration":104287,"Delta":192382610},{"NoteNumber":58,"Velocity":29,"Duration":104287,"SoundDuration":104287,"Delta":192382610},{"NoteNumber":75,"Velocity":54,"Duration":825114,"SoundDuration":825114,"Delta":192486898},{"NoteNumber":55,"Velocity":38,"Duration":103986,"SoundDuration":103986,"Delta":192486898},{"NoteNumber":63,"Velocity":33,"Duration":103686,"SoundDuration":103686,"Delta":192590884},{"NoteNumber":58,"Velocity":30,"Duration":103686,"SoundDuration":103686,"Delta":192590884},{"NoteNumber":67,"Velocity":35,"Duration":103388,"SoundDuration":103388,"Delta":192694571},{"NoteNumber":55,"Velocity":33,"Duration":103388,"SoundDuration":103388,"Delta":192694571},{"NoteNumber":63,"Velocity":32,"Duration":103092,"SoundDuration":103092,"Delta":192797960},{"NoteNumber":58,"Velocity":30,"Duration":103092,"SoundDuration":103092,"Delta":192797960},{"NoteNumber":67,"Velocity":35,"Duration":102739,"SoundDuration":102739,"Delta":192901053},{"NoteNumber":55,"Velocity":38,"Duration":102739,"SoundDuration":102739,"Delta":192901053},{"NoteNumber":63,"Velocity":33,"Duration":102739,"SoundDuration":102739,"Delta":193003792},{"NoteNumber":58,"Velocity":29,"Duration":102739,"SoundDuration":102739,"Delta":193003792},{"NoteNumber":67,"Velocity":35,"Duration":102739,"SoundDuration":102739,"Delta":193106532},{"NoteNumber":55,"Velocity":32,"Duration":102739,"SoundDuration":102739,"Delta":193106532},{"NoteNumber":63,"Velocity":32,"Duration":102739,"SoundDuration":102739,"Delta":193209272},{"NoteNumber":58,"Velocity":29,"Duration":102739,"SoundDuration":102739,"Delta":193209272},{"NoteNumber":75,"Velocity":53,"Duration":410959,"SoundDuration":410959,"Delta":193312012},{"NoteNumber":51,"Velocity":38,"Duration":410959,"SoundDuration":410959,"Delta":193312012},{"NoteNumber":63,"Velocity":32,"Duration":102739,"SoundDuration":102739,"Delta":193414751},{"NoteNumber":58,"Velocity":30,"Duration":102739,"SoundDuration":102739,"Delta":193414751},{"NoteNumber":67,"Velocity":35,"Duration":102739,"SoundDuration":102739,"Delta":193517491},{"NoteNumber":55,"Velocity":33,"Duration":102739,"SoundDuration":102739,"Delta":193517491},{"NoteNumber":63,"Velocity":33,"Duration":102739,"SoundDuration":102739,"Delta":193620231},{"NoteNumber":58,"Velocity":29,"Duration":102739,"SoundDuration":102739,"Delta":193620231},{"NoteNumber":49,"Velocity":45,"Duration":1259341,"SoundDuration":1259341,"Delta":193722971},{"NoteNumber":63,"Velocity":32,"Duration":111346,"SoundDuration":111346,"Delta":193835753},{"NoteNumber":58,"Velocity":30,"Duration":111346,"SoundDuration":111346,"Delta":193835753},{"NoteNumber":67,"Velocity":36,"Duration":104166,"SoundDuration":104166,"Delta":193947099},{"NoteNumber":55,"Velocity":32,"Duration":104166,"SoundDuration":104166,"Delta":193947099},{"NoteNumber":63,"Velocity":35,"Duration":104166,"SoundDuration":104166,"Delta":194051266},{"NoteNumber":58,"Velocity":29,"Duration":104166,"SoundDuration":104166,"Delta":194051266},{"NoteNumber":75,"Velocity":54,"Duration":826880,"SoundDuration":826880,"Delta":194155432},{"NoteNumber":55,"Velocity":38,"Duration":103806,"SoundDuration":103806,"Delta":194155432},{"NoteNumber":63,"Velocity":33,"Duration":103806,"SoundDuration":103806,"Delta":194259239},{"NoteNumber":58,"Velocity":30,"Duration":103806,"SoundDuration":103806,"Delta":194259239},{"NoteNumber":67,"Velocity":35,"Duration":103448,"SoundDuration":103448,"Delta":194363045},{"NoteNumber":55,"Velocity":33,"Duration":103448,"SoundDuration":103448,"Delta":194363045},{"NoteNumber":63,"Velocity":32,"Duration":103448,"SoundDuration":103448,"Delta":194466493},{"NoteNumber":58,"Velocity":30,"Duration":103448,"SoundDuration":103448,"Delta":194466493},{"NoteNumber":67,"Velocity":35,"Duration":103092,"SoundDuration":103092,"Delta":194569941},{"NoteNumber":55,"Velocity":38,"Duration":103092,"SoundDuration":103092,"Delta":194569941},{"NoteNumber":63,"Velocity":33,"Duration":103092,"SoundDuration":103092,"Delta":194673034},{"NoteNumber":58,"Velocity":29,"Duration":103092,"SoundDuration":103092,"Delta":194673034},{"NoteNumber":67,"Velocity":35,"Duration":103092,"SoundDuration":103092,"Delta":194776127},{"NoteNumber":55,"Velocity":32,"Duration":103092,"SoundDuration":103092,"Delta":194776127},{"NoteNumber":63,"Velocity":32,"Duration":103092,"SoundDuration":103092,"Delta":194879220},{"NoteNumber":58,"Velocity":29,"Duration":103092,"SoundDuration":103092,"Delta":194879220},{"NoteNumber":75,"Velocity":53,"Duration":420802,"SoundDuration":420802,"Delta":194982312},{"NoteNumber":49,"Velocity":38,"Duration":420802,"SoundDuration":420802,"Delta":194982312},{"NoteNumber":63,"Velocity":32,"Duration":103092,"SoundDuration":103092,"Delta":195085405},{"NoteNumber":58,"Velocity":30,"Duration":103092,"SoundDuration":103092,"Delta":195085405},{"NoteNumber":67,"Velocity":35,"Duration":103092,"SoundDuration":103092,"Delta":195188498},{"NoteNumber":55,"Velocity":33,"Duration":103092,"SoundDuration":103092,"Delta":195188498},{"NoteNumber":63,"Velocity":33,"Duration":111524,"SoundDuration":111524,"Delta":195291591},{"NoteNumber":58,"Velocity":29,"Duration":111524,"SoundDuration":111524,"Delta":195291591},{"NoteNumber":75,"Velocity":66,"Duration":76271,"SoundDuration":76271,"Delta":195403115},{"NoteNumber":48,"Velocity":55,"Duration":76271,"SoundDuration":76271,"Delta":195403115},{"NoteNumber":63,"Velocity":41,"Duration":101580,"SoundDuration":101580,"Delta":195504810},{"NoteNumber":56,"Velocity":36,"Duration":101580,"SoundDuration":101580,"Delta":195504810},{"NoteNumber":68,"Velocity":45,"Duration":101351,"SoundDuration":101351,"Delta":195606390},{"NoteNumber":51,"Velocity":39,"Duration":101351,"SoundDuration":101351,"Delta":195606390},{"NoteNumber":63,"Velocity":42,"Duration":101123,"SoundDuration":101123,"Delta":195707741},{"NoteNumber":56,"Velocity":35,"Duration":101123,"SoundDuration":101123,"Delta":195707741},{"NoteNumber":76,"Velocity":67,"Duration":75757,"SoundDuration":75757,"Delta":195808865},{"NoteNumber":46,"Velocity":56,"Duration":75757,"SoundDuration":75757,"Delta":195808865},{"NoteNumber":64,"Velocity":43,"Duration":100671,"SoundDuration":100671,"Delta":195909819},{"NoteNumber":55,"Velocity":36,"Duration":100671,"SoundDuration":100671,"Delta":195909819},{"NoteNumber":72,"Velocity":47,"Duration":100502,"SoundDuration":100502,"Delta":196010490},{"NoteNumber":48,"Velocity":43,"Duration":100502,"SoundDuration":100502,"Delta":196010490},{"NoteNumber":64,"Velocity":43,"Duration":100334,"SoundDuration":100334,"Delta":196110993},{"NoteNumber":55,"Velocity":41,"Duration":100334,"SoundDuration":100334,"Delta":196110993},{"NoteNumber":77,"Velocity":71,"Duration":73529,"SoundDuration":73529,"Delta":196211327},{"NoteNumber":44,"Velocity":58,"Duration":73529,"SoundDuration":73529,"Delta":196211327},{"NoteNumber":65,"Velocity":45,"Duration":98039,"SoundDuration":98039,"Delta":196309367},{"NoteNumber":56,"Velocity":38,"Duration":98039,"SoundDuration":98039,"Delta":196309367},{"NoteNumber":72,"Velocity":50,"Duration":98039,"SoundDuration":98039,"Delta":196407406},{"NoteNumber":48,"Velocity":43,"Duration":98039,"SoundDuration":98039,"Delta":196407406},{"NoteNumber":65,"Velocity":45,"Duration":98039,"SoundDuration":98039,"Delta":196505445},{"NoteNumber":56,"Velocity":38,"Duration":98039,"SoundDuration":98039,"Delta":196505445},{"NoteNumber":79,"Velocity":72,"Duration":73529,"SoundDuration":73529,"Delta":196603484},{"NoteNumber":43,"Velocity":60,"Duration":73529,"SoundDuration":73529,"Delta":196603484},{"NoteNumber":67,"Velocity":47,"Duration":98039,"SoundDuration":98039,"Delta":196701524},{"NoteNumber":55,"Velocity":40,"Duration":98039,"SoundDuration":98039,"Delta":196701524},{"NoteNumber":72,"Velocity":50,"Duration":98039,"SoundDuration":98039,"Delta":196799563},{"NoteNumber":48,"Velocity":43,"Duration":98039,"SoundDuration":98039,"Delta":196799563},{"NoteNumber":67,"Velocity":47,"Duration":98039,"SoundDuration":98039,"Delta":196897602},{"NoteNumber":55,"Velocity":38,"Duration":98039,"SoundDuration":98039,"Delta":196897602},{"NoteNumber":80,"Velocity":74,"Duration":72607,"SoundDuration":72607,"Delta":196995641},{"NoteNumber":41,"Velocity":63,"Duration":72607,"SoundDuration":72607,"Delta":196995641},{"NoteNumber":68,"Velocity":49,"Duration":97038,"SoundDuration":97038,"Delta":197092313},{"NoteNumber":53,"Velocity":42,"Duration":97038,"SoundDuration":97038,"Delta":197092313},{"NoteNumber":72,"Velocity":54,"Duration":96880,"SoundDuration":96880,"Delta":197189351},{"NoteNumber":48,"Velocity":45,"Duration":96880,"SoundDuration":96880,"Delta":197189351},{"NoteNumber":68,"Velocity":49,"Duration":96309,"SoundDuration":96309,"Delta":197286232},{"NoteNumber":53,"Velocity":42,"Duration":96309,"SoundDuration":96309,"Delta":197286232},{"NoteNumber":81,"Velocity":80,"Duration":73052,"SoundDuration":73052,"Delta":197382542},{"NoteNumber":39,"Velocity":66,"Duration":73052,"SoundDuration":73052,"Delta":197382542},{"NoteNumber":69,"Velocity":50,"Duration":96672,"SoundDuration":96672,"Delta":197480051},{"NoteNumber":51,"Velocity":41,"Duration":96672,"SoundDuration":96672,"Delta":197480051},{"NoteNumber":72,"Velocity":55,"Duration":96412,"SoundDuration":96412,"Delta":197576724},{"NoteNumber":41,"Velocity":47,"Duration":96412,"SoundDuration":96412,"Delta":197576724},{"NoteNumber":69,"Velocity":51,"Duration":97404,"SoundDuration":97404,"Delta":197673136},{"NoteNumber":51,"Velocity":41,"Duration":97404,"SoundDuration":97404,"Delta":197673136},{"NoteNumber":82,"Velocity":84,"Duration":72555,"SoundDuration":72555,"Delta":197770540},{"NoteNumber":38,"Velocity":68,"Duration":72555,"SoundDuration":72555,"Delta":197770540},{"NoteNumber":70,"Velocity":51,"Duration":96308,"SoundDuration":96308,"Delta":197867211},{"NoteNumber":50,"Velocity":45,"Duration":96308,"SoundDuration":96308,"Delta":197867211},{"NoteNumber":77,"Velocity":58,"Duration":97613,"SoundDuration":97613,"Delta":197963520},{"NoteNumber":41,"Velocity":49,"Duration":97613,"SoundDuration":97613,"Delta":197963520},{"NoteNumber":70,"Velocity":53,"Duration":96828,"SoundDuration":96828,"Delta":198061134},{"NoteNumber":50,"Velocity":43,"Duration":96828,"SoundDuration":96828,"Delta":198061134},{"NoteNumber":84,"Velocity":85,"Duration":72399,"SoundDuration":72399,"Delta":198157962},{"NoteNumber":36,"Velocity":70,"Duration":72399,"SoundDuration":72399,"Delta":198157962},{"NoteNumber":72,"Velocity":53,"Duration":96931,"SoundDuration":96931,"Delta":198254634},{"NoteNumber":48,"Velocity":45,"Duration":96931,"SoundDuration":96931,"Delta":198254634},{"NoteNumber":77,"Velocity":58,"Duration":96153,"SoundDuration":96153,"Delta":198351565},{"NoteNumber":41,"Velocity":51,"Duration":96153,"SoundDuration":96153,"Delta":198351565},{"NoteNumber":72,"Velocity":54,"Duration":97142,"SoundDuration":97142,"Delta":198447719},{"NoteNumber":48,"Velocity":43,"Duration":97142,"SoundDuration":97142,"Delta":198447719},{"NoteNumber":85,"Velocity":85,"Duration":73131,"SoundDuration":73131,"Delta":198544861},{"NoteNumber":34,"Velocity":70,"Duration":73131,"SoundDuration":73131,"Delta":198544861},{"NoteNumber":73,"Velocity":55,"Duration":96053,"SoundDuration":96053,"Delta":198642212},{"NoteNumber":46,"Velocity":47,"Duration":96053,"SoundDuration":96053,"Delta":198642212},{"NoteNumber":77,"Velocity":63,"Duration":96675,"SoundDuration":96675,"Delta":198738266},{"NoteNumber":41,"Velocity":53,"Duration":96675,"SoundDuration":96675,"Delta":198738266},{"NoteNumber":73,"Velocity":55,"Duration":97194,"SoundDuration":97194,"Delta":198834941},{"NoteNumber":46,"Velocity":48,"Duration":97194,"SoundDuration":97194,"Delta":198834941},{"NoteNumber":86,"Velocity":90,"Duration":71885,"SoundDuration":71885,"Delta":198932136},{"NoteNumber":32,"Velocity":72,"Duration":71885,"SoundDuration":71885,"Delta":198932136},{"NoteNumber":74,"Velocity":57,"Duration":95645,"SoundDuration":95645,"Delta":199027831},{"NoteNumber":44,"Velocity":47,"Duration":95645,"SoundDuration":95645,"Delta":199027831},{"NoteNumber":77,"Velocity":62,"Duration":97193,"SoundDuration":97193,"Delta":199123476},{"NoteNumber":41,"Velocity":53,"Duration":97193,"SoundDuration":97193,"Delta":199123476},{"NoteNumber":74,"Velocity":57,"Duration":96206,"SoundDuration":96206,"Delta":199220670},{"NoteNumber":44,"Velocity":50,"Duration":96206,"SoundDuration":96206,"Delta":199220670},{"NoteNumber":87,"Velocity":89,"Duration":72245,"SoundDuration":72245,"Delta":199316876},{"NoteNumber":31,"Velocity":75,"Duration":72245,"SoundDuration":72245,"Delta":199316876},{"NoteNumber":75,"Velocity":59,"Duration":98307,"SoundDuration":98307,"Delta":199413499},{"NoteNumber":43,"Velocity":50,"Duration":98307,"SoundDuration":98307,"Delta":199413499},{"NoteNumber":82,"Velocity":64,"Duration":97456,"SoundDuration":97456,"Delta":199511806},{"NoteNumber":39,"Velocity":55,"Duration":97456,"SoundDuration":97456,"Delta":199511806},{"NoteNumber":75,"Velocity":59,"Duration":96774,"SoundDuration":96774,"Delta":199609263},{"NoteNumber":43,"Velocity":50,"Duration":96774,"SoundDuration":96774,"Delta":199609263},{"NoteNumber":88,"Velocity":91,"Duration":76271,"SoundDuration":76271,"Delta":199706037},{"NoteNumber":31,"Velocity":76,"Duration":76271,"SoundDuration":76271,"Delta":199706037},{"NoteNumber":76,"Velocity":61,"Duration":101695,"SoundDuration":101695,"Delta":199807732},{"NoteNumber":43,"Velocity":56,"Duration":101695,"SoundDuration":101695,"Delta":199807732},{"NoteNumber":82,"Velocity":67,"Duration":101694,"SoundDuration":101694,"Delta":199909427},{"NoteNumber":31,"Velocity":58,"Duration":101694,"SoundDuration":101694,"Delta":199909427},{"NoteNumber":76,"Velocity":61,"Duration":101695,"SoundDuration":101695,"Delta":200011122},{"NoteNumber":43,"Velocity":55,"Duration":101695,"SoundDuration":101695,"Delta":200011122},{"NoteNumber":32,"Velocity":71,"Duration":199760,"SoundDuration":199760,"Delta":200112817},{"NoteNumber":44,"Velocity":84,"Duration":199760,"SoundDuration":199760,"Delta":200112817},{"NoteNumber":80,"Velocity":78,"Duration":97719,"SoundDuration":97719,"Delta":200214858},{"NoteNumber":84,"Velocity":84,"Duration":97719,"SoundDuration":97719,"Delta":200312577},{"NoteNumber":80,"Velocity":78,"Duration":97719,"SoundDuration":97719,"Delta":200410297},{"NoteNumber":89,"Velocity":88,"Duration":73289,"SoundDuration":73289,"Delta":200508017},{"NoteNumber":80,"Velocity":78,"Duration":97719,"SoundDuration":97719,"Delta":200605737},{"NoteNumber":84,"Velocity":84,"Duration":102040,"SoundDuration":102040,"Delta":200703456},{"NoteNumber":80,"Velocity":76,"Duration":102040,"SoundDuration":102040,"Delta":200805497},{"NoteNumber":46,"Velocity":84,"Duration":198710,"SoundDuration":198710,"Delta":200907538},{"NoteNumber":34,"Velocity":71,"Duration":198710,"SoundDuration":198710,"Delta":200907538},{"NoteNumber":77,"Velocity":78,"Duration":98039,"SoundDuration":98039,"Delta":201008209},{"NoteNumber":80,"Velocity":84,"Duration":98039,"SoundDuration":98039,"Delta":201106248},{"NoteNumber":77,"Velocity":78,"Duration":98039,"SoundDuration":98039,"Delta":201204288},{"NoteNumber":86,"Velocity":88,"Duration":73529,"SoundDuration":73529,"Delta":201302327},{"NoteNumber":77,"Velocity":78,"Duration":98039,"SoundDuration":98039,"Delta":201400366},{"NoteNumber":80,"Velocity":84,"Duration":101695,"SoundDuration":101695,"Delta":201498405},{"NoteNumber":77,"Velocity":76,"Duration":101695,"SoundDuration":101695,"Delta":201600100},{"NoteNumber":79,"Velocity":81,"Duration":78671,"SoundDuration":78671,"Delta":201701795},{"NoteNumber":39,"Velocity":84,"Duration":209789,"SoundDuration":209789,"Delta":201701795},{"NoteNumber":51,"Velocity":84,"Duration":209789,"SoundDuration":209789,"Delta":201701795},{"NoteNumber":87,"Velocity":62,"Duration":397405,"SoundDuration":397405,"Delta":201911585},{"NoteNumber":63,"Velocity":34,"Duration":188741,"SoundDuration":188741,"Delta":201911585},{"NoteNumber":67,"Velocity":34,"Duration":188741,"SoundDuration":188741,"Delta":201911585},{"NoteNumber":63,"Velocity":34,"Duration":188763,"SoundDuration":188763,"Delta":202110261},{"NoteNumber":67,"Velocity":34,"Duration":188763,"SoundDuration":188763,"Delta":202110261},{"NoteNumber":86,"Velocity":46,"Duration":100392,"SoundDuration":100392,"Delta":202308991},{"NoteNumber":63,"Velocity":34,"Duration":192150,"SoundDuration":192150,"Delta":202308991},{"NoteNumber":67,"Velocity":34,"Duration":192150,"SoundDuration":192150,"Delta":202308991},{"NoteNumber":87,"Velocity":48,"Duration":102103,"SoundDuration":102103,"Delta":202409384},{"NoteNumber":89,"Velocity":49,"Duration":102567,"SoundDuration":102567,"Delta":202511487},{"NoteNumber":60,"Velocity":34,"Duration":801722,"SoundDuration":801722,"Delta":202511487},{"NoteNumber":87,"Velocity":49,"Duration":100786,"SoundDuration":100786,"Delta":202614055},{"NoteNumber":86,"Velocity":48,"Duration":99392,"SoundDuration":99392,"Delta":202714841},{"NoteNumber":63,"Velocity":34,"Duration":188796,"SoundDuration":188796,"Delta":202714841},{"NoteNumber":67,"Velocity":34,"Duration":188796,"SoundDuration":188796,"Delta":202714841},{"NoteNumber":84,"Velocity":47,"Duration":99337,"SoundDuration":99337,"Delta":202814234},{"NoteNumber":83,"Velocity":45,"Duration":99337,"SoundDuration":99337,"Delta":202913572},{"NoteNumber":63,"Velocity":34,"Duration":188741,"SoundDuration":188741,"Delta":202913572},{"NoteNumber":67,"Velocity":34,"Duration":188741,"SoundDuration":188741,"Delta":202913572},{"NoteNumber":84,"Velocity":46,"Duration":99337,"SoundDuration":99337,"Delta":203012909},{"NoteNumber":86,"Velocity":49,"Duration":99779,"SoundDuration":99779,"Delta":203112247},{"NoteNumber":63,"Velocity":34,"Duration":190758,"SoundDuration":190758,"Delta":203112247},{"NoteNumber":67,"Velocity":34,"Duration":190758,"SoundDuration":190758,"Delta":203112247},{"NoteNumber":84,"Velocity":47,"Duration":101182,"SoundDuration":101182,"Delta":203212027},{"NoteNumber":82,"Velocity":49,"Duration":101353,"SoundDuration":101353,"Delta":203313209},{"NoteNumber":56,"Velocity":34,"Duration":798076,"SoundDuration":798076,"Delta":203313209},{"NoteNumber":80,"Velocity":47,"Duration":100001,"SoundDuration":100001,"Delta":203414563},{"NoteNumber":79,"Velocity":46,"Duration":99009,"SoundDuration":99009,"Delta":203514564},{"NoteNumber":65,"Velocity":34,"Duration":188119,"SoundDuration":188119,"Delta":203514564},{"NoteNumber":63,"Velocity":34,"Duration":188119,"SoundDuration":188119,"Delta":203514564},{"NoteNumber":77,"Velocity":45,"Duration":99010,"SoundDuration":99010,"Delta":203613574},{"NoteNumber":76,"Velocity":45,"Duration":99009,"SoundDuration":99009,"Delta":203712584},{"NoteNumber":63,"Velocity":34,"Duration":188118,"SoundDuration":188118,"Delta":203712584},{"NoteNumber":65,"Velocity":34,"Duration":188118,"SoundDuration":188118,"Delta":203712584},{"NoteNumber":77,"Velocity":45,"Duration":99009,"SoundDuration":99009,"Delta":203811594},{"NoteNumber":79,"Velocity":47,"Duration":99669,"SoundDuration":99669,"Delta":203910604},{"NoteNumber":63,"Velocity":34,"Duration":190512,"SoundDuration":190512,"Delta":203910604},{"NoteNumber":65,"Velocity":34,"Duration":190512,"SoundDuration":190512,"Delta":203910604},{"NoteNumber":77,"Velocity":45,"Duration":101012,"SoundDuration":101012,"Delta":204010274},{"NoteNumber":75,"Velocity":46,"Duration":101295,"SoundDuration":101295,"Delta":204111286},{"NoteNumber":58,"Velocity":34,"Duration":797324,"SoundDuration":797324,"Delta":204111286},{"NoteNumber":74,"Velocity":46,"Duration":100001,"SoundDuration":100001,"Delta":204212582},{"NoteNumber":72,"Velocity":45,"Duration":99337,"SoundDuration":99337,"Delta":204312584},{"NoteNumber":62,"Velocity":34,"Duration":188741,"SoundDuration":188741,"Delta":204312584},{"NoteNumber":65,"Velocity":34,"Duration":188741,"SoundDuration":188741,"Delta":204312584},{"NoteNumber":70,"Velocity":45,"Duration":99337,"SoundDuration":99337,"Delta":204411921},{"NoteNumber":69,"Velocity":45,"Duration":99337,"SoundDuration":99337,"Delta":204511259},{"NoteNumber":62,"Velocity":34,"Duration":188741,"SoundDuration":188741,"Delta":204511259},{"NoteNumber":65,"Velocity":34,"Duration":188741,"SoundDuration":188741,"Delta":204511259},{"NoteNumber":70,"Velocity":42,"Duration":99337,"SoundDuration":99337,"Delta":204610597},{"NoteNumber":72,"Velocity":46,"Duration":99337,"SoundDuration":99337,"Delta":204709935},{"NoteNumber":62,"Velocity":34,"Duration":188741,"SoundDuration":188741,"Delta":204709935},{"NoteNumber":65,"Velocity":34,"Duration":188741,"SoundDuration":188741,"Delta":204709935},{"NoteNumber":68,"Velocity":42,"Duration":99337,"SoundDuration":99337,"Delta":204809272},{"NoteNumber":67,"Velocity":66,"Duration":78671,"SoundDuration":78671,"Delta":204908610},{"NoteNumber":51,"Velocity":59,"Duration":809691,"SoundDuration":809691,"Delta":204908610},{"NoteNumber":75,"Velocity":68,"Duration":397405,"SoundDuration":397405,"Delta":205118400},{"NoteNumber":87,"Velocity":68,"Duration":397405,"SoundDuration":397405,"Delta":205118400},{"NoteNumber":55,"Velocity":44,"Duration":188741,"SoundDuration":188741,"Delta":205118400},{"NoteNumber":63,"Velocity":44,"Duration":188741,"SoundDuration":188741,"Delta":205118400},{"NoteNumber":55,"Velocity":44,"Duration":188763,"SoundDuration":188763,"Delta":205317076},{"NoteNumber":63,"Velocity":44,"Duration":188763,"SoundDuration":188763,"Delta":205317076},{"NoteNumber":86,"Velocity":61,"Duration":100392,"SoundDuration":100392,"Delta":205515806},{"NoteNumber":55,"Velocity":44,"Duration":192150,"SoundDuration":192150,"Delta":205515806},{"NoteNumber":63,"Velocity":44,"Duration":192150,"SoundDuration":192150,"Delta":205515806},{"NoteNumber":87,"Velocity":64,"Duration":102103,"SoundDuration":102103,"Delta":205616199},{"NoteNumber":89,"Velocity":66,"Duration":102567,"SoundDuration":102567,"Delta":205718302},{"NoteNumber":48,"Velocity":45,"Duration":801722,"SoundDuration":801722,"Delta":205718302},{"NoteNumber":87,"Velocity":66,"Duration":100786,"SoundDuration":100786,"Delta":205820869},{"NoteNumber":86,"Velocity":65,"Duration":99392,"SoundDuration":99392,"Delta":205921656},{"NoteNumber":55,"Velocity":46,"Duration":188796,"SoundDuration":188796,"Delta":205921656},{"NoteNumber":51,"Velocity":46,"Duration":188796,"SoundDuration":188796,"Delta":205921656},{"NoteNumber":60,"Velocity":46,"Duration":188796,"SoundDuration":188796,"Delta":205921656},{"NoteNumber":84,"Velocity":64,"Duration":99337,"SoundDuration":99337,"Delta":206021048},{"NoteNumber":83,"Velocity":62,"Duration":99337,"SoundDuration":99337,"Delta":206120386},{"NoteNumber":55,"Velocity":46,"Duration":188741,"SoundDuration":188741,"Delta":206120386},{"NoteNumber":51,"Velocity":46,"Duration":188741,"SoundDuration":188741,"Delta":206120386},{"NoteNumber":60,"Velocity":46,"Duration":188741,"SoundDuration":188741,"Delta":206120386},{"NoteNumber":84,"Velocity":64,"Duration":99337,"SoundDuration":99337,"Delta":206219724},{"NoteNumber":86,"Velocity":68,"Duration":99779,"SoundDuration":99779,"Delta":206319062},{"NoteNumber":55,"Velocity":47,"Duration":190758,"SoundDuration":190758,"Delta":206319062},{"NoteNumber":51,"Velocity":47,"Duration":190758,"SoundDuration":190758,"Delta":206319062},{"NoteNumber":60,"Velocity":47,"Duration":190758,"SoundDuration":190758,"Delta":206319062},{"NoteNumber":84,"Velocity":66,"Duration":101182,"SoundDuration":101182,"Delta":206418841},{"NoteNumber":82,"Velocity":69,"Duration":101353,"SoundDuration":101353,"Delta":206520024},{"NoteNumber":44,"Velocity":47,"Duration":798076,"SoundDuration":798076,"Delta":206520024},{"NoteNumber":80,"Velocity":67,"Duration":100001,"SoundDuration":100001,"Delta":206621377},{"NoteNumber":79,"Velocity":66,"Duration":99009,"SoundDuration":99009,"Delta":206721379},{"NoteNumber":53,"Velocity":48,"Duration":188119,"SoundDuration":188119,"Delta":206721379},{"NoteNumber":56,"Velocity":48,"Duration":188119,"SoundDuration":188119,"Delta":206721379},{"NoteNumber":51,"Velocity":48,"Duration":188119,"SoundDuration":188119,"Delta":206721379},{"NoteNumber":77,"Velocity":65,"Duration":99010,"SoundDuration":99010,"Delta":206820389},{"NoteNumber":76,"Velocity":65,"Duration":99009,"SoundDuration":99009,"Delta":206919399},{"NoteNumber":53,"Velocity":48,"Duration":188118,"SoundDuration":188118,"Delta":206919399},{"NoteNumber":51,"Velocity":48,"Duration":188118,"SoundDuration":188118,"Delta":206919399},{"NoteNumber":56,"Velocity":48,"Duration":188118,"SoundDuration":188118,"Delta":206919399},{"NoteNumber":77,"Velocity":64,"Duration":99009,"SoundDuration":99009,"Delta":207018409},{"NoteNumber":79,"Velocity":68,"Duration":99669,"SoundDuration":99669,"Delta":207117419},{"NoteNumber":53,"Velocity":49,"Duration":190512,"SoundDuration":190512,"Delta":207117419},{"NoteNumber":51,"Velocity":49,"Duration":190512,"SoundDuration":190512,"Delta":207117419},{"NoteNumber":56,"Velocity":49,"Duration":190512,"SoundDuration":190512,"Delta":207117419},{"NoteNumber":77,"Velocity":66,"Duration":101012,"SoundDuration":101012,"Delta":207217089},{"NoteNumber":75,"Velocity":68,"Duration":101295,"SoundDuration":101295,"Delta":207318101},{"NoteNumber":46,"Velocity":49,"Duration":805841,"SoundDuration":805841,"Delta":207318101},{"NoteNumber":74,"Velocity":68,"Duration":100001,"SoundDuration":100001,"Delta":207419396},{"NoteNumber":72,"Velocity":68,"Duration":99337,"SoundDuration":99337,"Delta":207519398},{"NoteNumber":53,"Velocity":50,"Duration":188741,"SoundDuration":188741,"Delta":207519398},{"NoteNumber":50,"Velocity":50,"Duration":188741,"SoundDuration":188741,"Delta":207519398},{"NoteNumber":58,"Velocity":50,"Duration":188741,"SoundDuration":188741,"Delta":207519398},{"NoteNumber":70,"Velocity":68,"Duration":99337,"SoundDuration":99337,"Delta":207618736},{"NoteNumber":69,"Velocity":67,"Duration":99337,"SoundDuration":99337,"Delta":207718074},{"NoteNumber":53,"Velocity":50,"Duration":188687,"SoundDuration":188687,"Delta":207718074},{"NoteNumber":50,"Velocity":50,"Duration":188687,"SoundDuration":188687,"Delta":207718074},{"NoteNumber":58,"Velocity":50,"Duration":188687,"SoundDuration":188687,"Delta":207718074},{"NoteNumber":70,"Velocity":64,"Duration":99283,"SoundDuration":99283,"Delta":207817411},{"NoteNumber":72,"Velocity":70,"Duration":101018,"SoundDuration":101018,"Delta":207916695},{"NoteNumber":53,"Velocity":51,"Duration":196338,"SoundDuration":196338,"Delta":207916695},{"NoteNumber":50,"Velocity":51,"Duration":196338,"SoundDuration":196338,"Delta":207916695},{"NoteNumber":58,"Velocity":51,"Duration":196338,"SoundDuration":196338,"Delta":207916695},{"NoteNumber":70,"Velocity":64,"Duration":106229,"SoundDuration":106229,"Delta":208017713},{"NoteNumber":75,"Velocity":83,"Duration":110701,"SoundDuration":110701,"Delta":208123942},{"NoteNumber":39,"Velocity":67,"Duration":210331,"SoundDuration":210331,"Delta":208123942},{"NoteNumber":51,"Velocity":60,"Duration":110701,"SoundDuration":110701,"Delta":208234643},{"NoteNumber":63,"Velocity":82,"Duration":400695,"SoundDuration":400695,"Delta":208345344},{"NoteNumber":39,"Velocity":67,"Duration":188741,"SoundDuration":188741,"Delta":208345344},{"NoteNumber":51,"Velocity":59,"Duration":99337,"SoundDuration":99337,"Delta":208444682},{"NoteNumber":39,"Velocity":67,"Duration":191919,"SoundDuration":191919,"Delta":208544020},{"NoteNumber":51,"Velocity":60,"Duration":101010,"SoundDuration":101010,"Delta":208645030},{"NoteNumber":61,"Velocity":80,"Duration":99337,"SoundDuration":99337,"Delta":208746040},{"NoteNumber":67,"Velocity":80,"Duration":99337,"SoundDuration":99337,"Delta":208746040},{"NoteNumber":39,"Velocity":66,"Duration":188741,"SoundDuration":188741,"Delta":208746040},{"NoteNumber":51,"Velocity":60,"Duration":99337,"SoundDuration":99337,"Delta":208845378},{"NoteNumber":60,"Velocity":81,"Duration":99337,"SoundDuration":99337,"Delta":208944715},{"NoteNumber":68,"Velocity":81,"Duration":99337,"SoundDuration":99337,"Delta":208944715},{"NoteNumber":39,"Velocity":66,"Duration":188741,"SoundDuration":188741,"Delta":208944715},{"NoteNumber":51,"Velocity":59,"Duration":99337,"SoundDuration":99337,"Delta":209044053},{"NoteNumber":67,"Velocity":82,"Duration":99337,"SoundDuration":99337,"Delta":209143391},{"NoteNumber":70,"Velocity":82,"Duration":99337,"SoundDuration":99337,"Delta":209143391},{"NoteNumber":39,"Velocity":66,"Duration":188741,"SoundDuration":188741,"Delta":209143391},{"NoteNumber":51,"Velocity":60,"Duration":99337,"SoundDuration":99337,"Delta":209242729},{"NoteNumber":68,"Velocity":83,"Duration":99337,"SoundDuration":99337,"Delta":209342066},{"NoteNumber":72,"Velocity":83,"Duration":99337,"SoundDuration":99337,"Delta":209342066},{"NoteNumber":39,"Velocity":66,"Duration":188741,"SoundDuration":188741,"Delta":209342066},{"NoteNumber":51,"Velocity":60,"Duration":99337,"SoundDuration":99337,"Delta":209441404},{"NoteNumber":68,"Velocity":85,"Duration":99337,"SoundDuration":99337,"Delta":209540742},{"NoteNumber":74,"Velocity":85,"Duration":99337,"SoundDuration":99337,"Delta":209540742},{"NoteNumber":39,"Velocity":66,"Duration":188741,"SoundDuration":188741,"Delta":209540742},{"NoteNumber":51,"Velocity":61,"Duration":99337,"SoundDuration":99337,"Delta":209640080},{"NoteNumber":67,"Velocity":83,"Duration":104529,"SoundDuration":104529,"Delta":209739417},{"NoteNumber":75,"Velocity":83,"Duration":104529,"SoundDuration":104529,"Delta":209739417},{"NoteNumber":39,"Velocity":67,"Duration":198606,"SoundDuration":198606,"Delta":209739417},{"NoteNumber":51,"Velocity":60,"Duration":104529,"SoundDuration":104529,"Delta":209843947},{"NoteNumber":75,"Velocity":82,"Duration":400695,"SoundDuration":400695,"Delta":209948476},{"NoteNumber":39,"Velocity":67,"Duration":188741,"SoundDuration":188741,"Delta":209948476},{"NoteNumber":51,"Velocity":59,"Duration":99337,"SoundDuration":99337,"Delta":210047814},{"NoteNumber":39,"Velocity":67,"Duration":191919,"SoundDuration":191919,"Delta":210147152},{"NoteNumber":51,"Velocity":60,"Duration":101010,"SoundDuration":101010,"Delta":210248162},{"NoteNumber":73,"Velocity":80,"Duration":99337,"SoundDuration":99337,"Delta":210349172},{"NoteNumber":79,"Velocity":80,"Duration":99337,"SoundDuration":99337,"Delta":210349172},{"NoteNumber":39,"Velocity":66,"Duration":188741,"SoundDuration":188741,"Delta":210349172},{"NoteNumber":51,"Velocity":60,"Duration":99337,"SoundDuration":99337,"Delta":210448510},{"NoteNumber":72,"Velocity":81,"Duration":99337,"SoundDuration":99337,"Delta":210547847},{"NoteNumber":80,"Velocity":81,"Duration":99337,"SoundDuration":99337,"Delta":210547847},{"NoteNumber":39,"Velocity":66,"Duration":188741,"SoundDuration":188741,"Delta":210547847},{"NoteNumber":51,"Velocity":59,"Duration":99337,"SoundDuration":99337,"Delta":210647185},{"NoteNumber":79,"Velocity":82,"Duration":99337,"SoundDuration":99337,"Delta":210746523},{"NoteNumber":82,"Velocity":82,"Duration":99337,"SoundDuration":99337,"Delta":210746523},{"NoteNumber":39,"Velocity":66,"Duration":188741,"SoundDuration":188741,"Delta":210746523},{"NoteNumber":51,"Velocity":60,"Duration":99337,"SoundDuration":99337,"Delta":210845861},{"NoteNumber":80,"Velocity":83,"Duration":99337,"SoundDuration":99337,"Delta":210945198},{"NoteNumber":84,"Velocity":83,"Duration":99337,"SoundDuration":99337,"Delta":210945198},{"NoteNumber":39,"Velocity":66,"Duration":188741,"SoundDuration":188741,"Delta":210945198},{"NoteNumber":51,"Velocity":60,"Duration":99337,"SoundDuration":99337,"Delta":211044536},{"NoteNumber":80,"Velocity":85,"Duration":104894,"SoundDuration":104894,"Delta":211143874},{"NoteNumber":86,"Velocity":85,"Duration":104894,"SoundDuration":104894,"Delta":211143874},{"NoteNumber":39,"Velocity":66,"Duration":199300,"SoundDuration":199300,"Delta":211143874},{"NoteNumber":51,"Velocity":61,"Duration":104894,"SoundDuration":104894,"Delta":211248769},{"NoteNumber":87,"Velocity":94,"Duration":800000,"SoundDuration":800000,"Delta":211353664},{"NoteNumber":79,"Velocity":94,"Duration":800000,"SoundDuration":800000,"Delta":211353664},{"NoteNumber":39,"Velocity":66,"Duration":189999,"SoundDuration":189999,"Delta":211353664},{"NoteNumber":51,"Velocity":59,"Duration":99999,"SoundDuration":99999,"Delta":211453664},{"NoteNumber":39,"Velocity":66,"Duration":189999,"SoundDuration":189999,"Delta":211553664},{"NoteNumber":51,"Velocity":60,"Duration":99999,"SoundDuration":99999,"Delta":211653664},{"NoteNumber":39,"Velocity":66,"Duration":189999,"SoundDuration":189999,"Delta":211753664},{"NoteNumber":51,"Velocity":60,"Duration":99999,"SoundDuration":99999,"Delta":211853664},{"NoteNumber":39,"Velocity":66,"Duration":189999,"SoundDuration":189999,"Delta":211953664},{"NoteNumber":51,"Velocity":61,"Duration":100000,"SoundDuration":100000,"Delta":212053664},{"NoteNumber":67,"Velocity":88,"Duration":811080,"SoundDuration":811080,"Delta":212153664},{"NoteNumber":75,"Velocity":88,"Duration":811080,"SoundDuration":811080,"Delta":212153664},{"NoteNumber":38,"Velocity":66,"Duration":188741,"SoundDuration":188741,"Delta":212153664},{"NoteNumber":50,"Velocity":59,"Duration":99337,"SoundDuration":99337,"Delta":212253002},{"NoteNumber":38,"Velocity":66,"Duration":188741,"SoundDuration":188741,"Delta":212352339},{"NoteNumber":50,"Velocity":60,"Duration":99337,"SoundDuration":99337,"Delta":212451677},{"NoteNumber":38,"Velocity":66,"Duration":188741,"SoundDuration":188741,"Delta":212551015},{"NoteNumber":50,"Velocity":60,"Duration":99337,"SoundDuration":99337,"Delta":212650353},{"NoteNumber":38,"Velocity":66,"Duration":204301,"SoundDuration":204301,"Delta":212749690},{"NoteNumber":50,"Velocity":61,"Duration":107527,"SoundDuration":107527,"Delta":212857217},{"NoteNumber":87,"Velocity":99,"Duration":800000,"SoundDuration":800000,"Delta":212964744},{"NoteNumber":79,"Velocity":99,"Duration":800000,"SoundDuration":800000,"Delta":212964744},{"NoteNumber":36,"Velocity":66,"Duration":189999,"SoundDuration":189999,"Delta":212964744},{"NoteNumber":48,"Velocity":59,"Duration":99999,"SoundDuration":99999,"Delta":213064744},{"NoteNumber":36,"Velocity":66,"Duration":189999,"SoundDuration":189999,"Delta":213164744},{"NoteNumber":48,"Velocity":60,"Duration":99999,"SoundDuration":99999,"Delta":213264744},{"NoteNumber":36,"Velocity":66,"Duration":189999,"SoundDuration":189999,"Delta":213364744},{"NoteNumber":48,"Velocity":60,"Duration":99999,"SoundDuration":99999,"Delta":213464744},{"NoteNumber":36,"Velocity":66,"Duration":189999,"SoundDuration":189999,"Delta":213564744},{"NoteNumber":48,"Velocity":61,"Duration":100000,"SoundDuration":100000,"Delta":213664744},{"NoteNumber":67,"Velocity":92,"Duration":806826,"SoundDuration":806826,"Delta":213764744},{"NoteNumber":75,"Velocity":92,"Duration":806826,"SoundDuration":806826,"Delta":213764744},{"NoteNumber":34,"Velocity":66,"Duration":188119,"SoundDuration":188119,"Delta":213764744},{"NoteNumber":46,"Velocity":59,"Duration":99010,"SoundDuration":99010,"Delta":213863754},{"NoteNumber":34,"Velocity":66,"Duration":188119,"SoundDuration":188119,"Delta":213962764},{"NoteNumber":46,"Velocity":60,"Duration":99009,"SoundDuration":99009,"Delta":214061774},{"NoteNumber":34,"Velocity":66,"Duration":188119,"SoundDuration":188119,"Delta":214160784},{"NoteNumber":46,"Velocity":60,"Duration":99010,"SoundDuration":99010,"Delta":214259794},{"NoteNumber":34,"Velocity":66,"Duration":202127,"SoundDuration":202127,"Delta":214358804},{"NoteNumber":46,"Velocity":61,"Duration":106382,"SoundDuration":106382,"Delta":214465187},{"NoteNumber":87,"Velocity":102,"Duration":800000,"SoundDuration":800000,"Delta":214571570},{"NoteNumber":84,"Velocity":102,"Duration":800000,"SoundDuration":800000,"Delta":214571570},{"NoteNumber":32,"Velocity":66,"Duration":189999,"SoundDuration":189999,"Delta":214571570},{"NoteNumber":44,"Velocity":59,"Duration":99999,"SoundDuration":99999,"Delta":214671570},{"NoteNumber":32,"Velocity":66,"Duration":189999,"SoundDuration":189999,"Delta":214771570},{"NoteNumber":44,"Velocity":60,"Duration":99999,"SoundDuration":99999,"Delta":214871570},{"NoteNumber":32,"Velocity":66,"Duration":189999,"SoundDuration":189999,"Delta":214971570},{"NoteNumber":44,"Velocity":60,"Duration":99999,"SoundDuration":99999,"Delta":215071570},{"NoteNumber":32,"Velocity":66,"Duration":189999,"SoundDuration":189999,"Delta":215171570},{"NoteNumber":44,"Velocity":61,"Duration":100000,"SoundDuration":100000,"Delta":215271570},{"NoteNumber":72,"Velocity":96,"Duration":805327,"SoundDuration":805327,"Delta":215371570},{"NoteNumber":75,"Velocity":96,"Duration":805327,"SoundDuration":805327,"Delta":215371570},{"NoteNumber":31,"Velocity":66,"Duration":188119,"SoundDuration":188119,"Delta":215371570},{"NoteNumber":43,"Velocity":59,"Duration":99010,"SoundDuration":99010,"Delta":215470580},{"NoteNumber":31,"Velocity":66,"Duration":188119,"SoundDuration":188119,"Delta":215569590},{"NoteNumber":43,"Velocity":60,"Duration":99009,"SoundDuration":99009,"Delta":215668600},{"NoteNumber":31,"Velocity":66,"Duration":188119,"SoundDuration":188119,"Delta":215767610},{"NoteNumber":43,"Velocity":60,"Duration":99010,"SoundDuration":99010,"Delta":215866620},{"NoteNumber":31,"Velocity":66,"Duration":200704,"SoundDuration":200704,"Delta":215965630},{"NoteNumber":43,"Velocity":61,"Duration":105633,"SoundDuration":105633,"Delta":216071264},{"NoteNumber":84,"Velocity":93,"Duration":963855,"SoundDuration":963855,"Delta":216176898},{"NoteNumber":81,"Velocity":93,"Duration":963855,"SoundDuration":963855,"Delta":216176898},{"NoteNumber":86,"Velocity":93,"Duration":963855,"SoundDuration":963855,"Delta":216176898},{"NoteNumber":30,"Velocity":62,"Duration":963855,"SoundDuration":963855,"Delta":216176898},{"NoteNumber":42,"Velocity":74,"Duration":963855,"SoundDuration":963855,"Delta":216176898},{"NoteNumber":53,"Velocity":86,"Duration":2000000,"SoundDuration":2000000,"Delta":217140754},{"NoteNumber":59,"Velocity":102,"Duration":2000000,"SoundDuration":2000000,"Delta":217140754},{"NoteNumber":62,"Velocity":102,"Duration":2000000,"SoundDuration":2000000,"Delta":217140754},{"NoteNumber":31,"Velocity":71,"Duration":2000000,"SoundDuration":2000000,"Delta":217140754},{"NoteNumber":43,"Velocity":84,"Duration":2000000,"SoundDuration":2000000,"Delta":217140754},{"NoteNumber":60,"Velocity":50,"Duration":602780,"SoundDuration":602780,"Delta":219140754},{"NoteNumber":36,"Velocity":44,"Duration":193732,"SoundDuration":193732,"Delta":219140754},{"NoteNumber":48,"Velocity":41,"Duration":101561,"SoundDuration":101561,"Delta":219243063},{"NoteNumber":36,"Velocity":44,"Duration":190907,"SoundDuration":190907,"Delta":219344624},{"NoteNumber":48,"Velocity":41,"Duration":100083,"SoundDuration":100083,"Delta":219445437},{"NoteNumber":36,"Velocity":44,"Duration":188165,"SoundDuration":188165,"Delta":219545521},{"NoteNumber":48,"Velocity":41,"Duration":98652,"SoundDuration":98652,"Delta":219644882},{"NoteNumber":58,"Velocity":52,"Duration":73503,"SoundDuration":73503,"Delta":219743534},{"NoteNumber":64,"Velocity":52,"Duration":73503,"SoundDuration":73503,"Delta":219743534},{"NoteNumber":36,"Velocity":45,"Duration":185637,"SoundDuration":185637,"Delta":219743534},{"NoteNumber":48,"Velocity":41,"Duration":97434,"SoundDuration":97434,"Delta":219841481},{"NoteNumber":56,"Velocity":54,"Duration":73075,"SoundDuration":73075,"Delta":219938915},{"NoteNumber":65,"Velocity":54,"Duration":73075,"SoundDuration":73075,"Delta":219938915},{"NoteNumber":36,"Velocity":45,"Duration":185125,"SoundDuration":185125,"Delta":219938915},{"NoteNumber":48,"Velocity":46,"Duration":97434,"SoundDuration":97434,"Delta":220036349},{"NoteNumber":64,"Velocity":56,"Duration":72115,"SoundDuration":72115,"Delta":220133784},{"NoteNumber":67,"Velocity":56,"Duration":72115,"SoundDuration":72115,"Delta":220133784},{"NoteNumber":36,"Velocity":47,"Duration":182692,"SoundDuration":182692,"Delta":220133784},{"NoteNumber":48,"Velocity":47,"Duration":96153,"SoundDuration":96153,"Delta":220229937},{"NoteNumber":65,"Velocity":57,"Duration":72115,"SoundDuration":72115,"Delta":220326091},{"NoteNumber":68,"Velocity":57,"Duration":72115,"SoundDuration":72115,"Delta":220326091},{"NoteNumber":36,"Velocity":49,"Duration":182692,"SoundDuration":182692,"Delta":220326091},{"NoteNumber":48,"Velocity":50,"Duration":96153,"SoundDuration":96153,"Delta":220422245},{"NoteNumber":62,"Velocity":59,"Duration":73289,"SoundDuration":73289,"Delta":220518399},{"NoteNumber":71,"Velocity":59,"Duration":73289,"SoundDuration":73289,"Delta":220518399},{"NoteNumber":36,"Velocity":51,"Duration":185667,"SoundDuration":185667,"Delta":220518399},{"NoteNumber":48,"Velocity":53,"Duration":97719,"SoundDuration":97719,"Delta":220616118},{"NoteNumber":63,"Velocity":61,"Duration":77736,"SoundDuration":77736,"Delta":220713838},{"NoteNumber":72,"Velocity":61,"Duration":77736,"SoundDuration":77736,"Delta":220713838},{"NoteNumber":36,"Velocity":55,"Duration":196932,"SoundDuration":196932,"Delta":220713838},{"NoteNumber":48,"Velocity":50,"Duration":103648,"SoundDuration":103648,"Delta":220817487},{"NoteNumber":64,"Velocity":55,"Duration":389736,"SoundDuration":389736,"Delta":220921135},{"NoteNumber":72,"Velocity":55,"Duration":389736,"SoundDuration":389736,"Delta":220921135},{"NoteNumber":36,"Velocity":53,"Duration":185125,"SoundDuration":185125,"Delta":220921135},{"NoteNumber":48,"Velocity":47,"Duration":97434,"SoundDuration":97434,"Delta":221018569},{"NoteNumber":36,"Velocity":53,"Duration":185125,"SoundDuration":185125,"Delta":221116004},{"NoteNumber":48,"Velocity":47,"Duration":97434,"SoundDuration":97434,"Delta":221213438},{"NoteNumber":70,"Velocity":51,"Duration":73075,"SoundDuration":73075,"Delta":221310872},{"NoteNumber":76,"Velocity":51,"Duration":73075,"SoundDuration":73075,"Delta":221310872},{"NoteNumber":36,"Velocity":44,"Duration":185125,"SoundDuration":185125,"Delta":221310872},{"NoteNumber":48,"Velocity":40,"Duration":97434,"SoundDuration":97434,"Delta":221408306},{"NoteNumber":68,"Velocity":53,"Duration":73075,"SoundDuration":73075,"Delta":221505741},{"NoteNumber":77,"Velocity":53,"Duration":73075,"SoundDuration":73075,"Delta":221505741},{"NoteNumber":36,"Velocity":43,"Duration":185125,"SoundDuration":185125,"Delta":221505741},{"NoteNumber":48,"Velocity":45,"Duration":97434,"SoundDuration":97434,"Delta":221603175},{"NoteNumber":76,"Velocity":55,"Duration":72347,"SoundDuration":72347,"Delta":221700609},{"NoteNumber":79,"Velocity":55,"Duration":72347,"SoundDuration":72347,"Delta":221700609},{"NoteNumber":36,"Velocity":46,"Duration":183279,"SoundDuration":183279,"Delta":221700609},{"NoteNumber":48,"Velocity":47,"Duration":96462,"SoundDuration":96462,"Delta":221797072},{"NoteNumber":77,"Velocity":57,"Duration":72347,"SoundDuration":72347,"Delta":221893535},{"NoteNumber":80,"Velocity":57,"Duration":72347,"SoundDuration":72347,"Delta":221893535},{"NoteNumber":36,"Velocity":48,"Duration":183279,"SoundDuration":183279,"Delta":221893535},{"NoteNumber":48,"Velocity":50,"Duration":96462,"SoundDuration":96462,"Delta":221989998},{"NoteNumber":74,"Velocity":59,"Duration":72347,"SoundDuration":72347,"Delta":222086461},{"NoteNumber":83,"Velocity":59,"Duration":72347,"SoundDuration":72347,"Delta":222086461},{"NoteNumber":36,"Velocity":51,"Duration":183279,"SoundDuration":183279,"Delta":222086461},{"NoteNumber":48,"Velocity":53,"Duration":96462,"SoundDuration":96462,"Delta":222182924},{"NoteNumber":72,"Velocity":51,"Duration":394618,"SoundDuration":394618,"Delta":222279387},{"NoteNumber":79,"Velocity":61,"Duration":394618,"SoundDuration":394618,"Delta":222279387},{"NoteNumber":75,"Velocity":51,"Duration":394618,"SoundDuration":394618,"Delta":222279387},{"NoteNumber":84,"Velocity":61,"Duration":394618,"SoundDuration":394618,"Delta":222279387},{"NoteNumber":36,"Velocity":55,"Duration":188442,"SoundDuration":188442,"Delta":222279387},{"NoteNumber":48,"Velocity":50,"Duration":99180,"SoundDuration":99180,"Delta":222378567},{"NoteNumber":36,"Velocity":53,"Duration":186445,"SoundDuration":186445,"Delta":222477747},{"NoteNumber":48,"Velocity":47,"Duration":98129,"SoundDuration":98129,"Delta":222575876},{"NoteNumber":67,"Velocity":53,"Duration":398250,"SoundDuration":398250,"Delta":222674005},{"NoteNumber":71,"Velocity":53,"Duration":398250,"SoundDuration":398250,"Delta":222674005},{"NoteNumber":77,"Velocity":63,"Duration":398250,"SoundDuration":398250,"Delta":222674005},{"NoteNumber":79,"Velocity":63,"Duration":398250,"SoundDuration":398250,"Delta":222674005},{"NoteNumber":38,"Velocity":55,"Duration":186445,"SoundDuration":186445,"Delta":222674005},{"NoteNumber":50,"Velocity":50,"Duration":98129,"SoundDuration":98129,"Delta":222772134},{"NoteNumber":38,"Velocity":55,"Duration":191893,"SoundDuration":191893,"Delta":222870263},{"NoteNumber":50,"Velocity":51,"Duration":100996,"SoundDuration":100996,"Delta":222971260},{"NoteNumber":67,"Velocity":56,"Duration":395205,"SoundDuration":395205,"Delta":223072256},{"NoteNumber":72,"Velocity":56,"Duration":395205,"SoundDuration":395205,"Delta":223072256},{"NoteNumber":75,"Velocity":67,"Duration":395205,"SoundDuration":395205,"Delta":223072256},{"NoteNumber":39,"Velocity":55,"Duration":187722,"SoundDuration":187722,"Delta":223072256},{"NoteNumber":51,"Velocity":55,"Duration":98801,"SoundDuration":98801,"Delta":223171057},{"NoteNumber":39,"Velocity":55,"Duration":187722,"SoundDuration":187722,"Delta":223269859},{"NoteNumber":51,"Velocity":55,"Duration":98801,"SoundDuration":98801,"Delta":223368660},{"NoteNumber":65,"Velocity":60,"Duration":398620,"SoundDuration":398620,"Delta":223467461},{"NoteNumber":68,"Velocity":60,"Duration":398620,"SoundDuration":398620,"Delta":223467461},{"NoteNumber":74,"Velocity":71,"Duration":398620,"SoundDuration":398620,"Delta":223467461},{"NoteNumber":41,"Velocity":55,"Duration":187722,"SoundDuration":187722,"Delta":223467461},{"NoteNumber":53,"Velocity":53,"Duration":98801,"SoundDuration":98801,"Delta":223566262},{"NoteNumber":41,"Velocity":55,"Duration":190967,"SoundDuration":190967,"Delta":223665064},{"NoteNumber":53,"Velocity":55,"Duration":100509,"SoundDuration":100509,"Delta":223765573},{"NoteNumber":63,"Velocity":62,"Duration":1206110,"SoundDuration":1206110,"Delta":223866082},{"NoteNumber":67,"Velocity":74,"Duration":402037,"SoundDuration":402037,"Delta":223866082},{"NoteNumber":72,"Velocity":74,"Duration":1206110,"SoundDuration":1206110,"Delta":223866082},{"NoteNumber":43,"Velocity":56,"Duration":190967,"SoundDuration":190967,"Delta":223866082},{"NoteNumber":55,"Velocity":56,"Duration":100509,"SoundDuration":100509,"Delta":223966591},{"NoteNumber":43,"Velocity":57,"Duration":190967,"SoundDuration":190967,"Delta":224067101},{"NoteNumber":55,"Velocity":57,"Duration":100509,"SoundDuration":100509,"Delta":224167610},{"NoteNumber":66,"Velocity":74,"Duration":402036,"SoundDuration":402036,"Delta":224268119},{"NoteNumber":44,"Velocity":58,"Duration":190967,"SoundDuration":190967,"Delta":224268119},{"NoteNumber":56,"Velocity":59,"Duration":100509,"SoundDuration":100509,"Delta":224368628},{"NoteNumber":44,"Velocity":59,"Duration":190967,"SoundDuration":190967,"Delta":224469138},{"NoteNumber":56,"Velocity":60,"Duration":100509,"SoundDuration":100509,"Delta":224569647},{"NoteNumber":69,"Velocity":77,"Duration":402037,"SoundDuration":402037,"Delta":224670156},{"NoteNumber":42,"Velocity":60,"Duration":190967,"SoundDuration":190967,"Delta":224670156},{"NoteNumber":54,"Velocity":55,"Duration":100509,"SoundDuration":100509,"Delta":224770665},{"NoteNumber":42,"Velocity":61,"Duration":190967,"SoundDuration":190967,"Delta":224871175},{"NoteNumber":54,"Velocity":55,"Duration":100509,"SoundDuration":100509,"Delta":224971684},{"NoteNumber":62,"Velocity":62,"Duration":402037,"SoundDuration":402037,"Delta":225072193},{"NoteNumber":65,"Velocity":62,"Duration":402037,"SoundDuration":402037,"Delta":225072193},{"NoteNumber":71,"Velocity":74,"Duration":402037,"SoundDuration":402037,"Delta":225072193},{"NoteNumber":43,"Velocity":58,"Duration":190967,"SoundDuration":190967,"Delta":225072193},{"NoteNumber":55,"Velocity":55,"Duration":100509,"SoundDuration":100509,"Delta":225172702},{"NoteNumber":43,"Velocity":58,"Duration":190967,"SoundDuration":190967,"Delta":225273212},{"NoteNumber":55,"Velocity":55,"Duration":100509,"SoundDuration":100509,"Delta":225373721},{"NoteNumber":60,"Velocity":67,"Duration":76779,"SoundDuration":76779,"Delta":225474230},{"NoteNumber":63,"Velocity":67,"Duration":76779,"SoundDuration":76779,"Delta":225474230},{"NoteNumber":72,"Velocity":79,"Duration":76779,"SoundDuration":76779,"Delta":225474230},{"NoteNumber":36,"Velocity":48,"Duration":193732,"SoundDuration":193732,"Delta":225474230},{"NoteNumber":48,"Velocity":45,"Duration":101561,"SoundDuration":101561,"Delta":225576539},{"NoteNumber":60,"Velocity":67,"Duration":398910,"SoundDuration":398910,"Delta":225678100},{"NoteNumber":36,"Velocity":44,"Duration":190907,"SoundDuration":190907,"Delta":225678100},{"NoteNumber":48,"Velocity":41,"Duration":100083,"SoundDuration":100083,"Delta":225778914},{"NoteNumber":36,"Velocity":44,"Duration":188165,"SoundDuration":188165,"Delta":225878998},{"NoteNumber":48,"Velocity":40,"Duration":98652,"SoundDuration":98652,"Delta":225978359},{"NoteNumber":58,"Velocity":52,"Duration":73503,"SoundDuration":73503,"Delta":226077011},{"NoteNumber":64,"Velocity":52,"Duration":73503,"SoundDuration":73503,"Delta":226077011},{"NoteNumber":36,"Velocity":44,"Duration":185637,"SoundDuration":185637,"Delta":226077011},{"NoteNumber":48,"Velocity":41,"Duration":97434,"SoundDuration":97434,"Delta":226174957},{"NoteNumber":56,"Velocity":54,"Duration":73075,"SoundDuration":73075,"Delta":226272392},{"NoteNumber":65,"Velocity":54,"Duration":73075,"SoundDuration":73075,"Delta":226272392},{"NoteNumber":36,"Velocity":44,"Duration":185125,"SoundDuration":185125,"Delta":226272392},{"NoteNumber":48,"Velocity":46,"Duration":97434,"SoundDuration":97434,"Delta":226369826},{"NoteNumber":64,"Velocity":55,"Duration":72115,"SoundDuration":72115,"Delta":226467260},{"NoteNumber":67,"Velocity":55,"Duration":72115,"SoundDuration":72115,"Delta":226467260},{"NoteNumber":36,"Velocity":47,"Duration":182692,"SoundDuration":182692,"Delta":226467260},{"NoteNumber":48,"Velocity":47,"Duration":96153,"SoundDuration":96153,"Delta":226563414},{"NoteNumber":65,"Velocity":57,"Duration":72115,"SoundDuration":72115,"Delta":226659568},{"NoteNumber":68,"Velocity":57,"Duration":72115,"SoundDuration":72115,"Delta":226659568},{"NoteNumber":36,"Velocity":49,"Duration":182692,"SoundDuration":182692,"Delta":226659568},{"NoteNumber":48,"Velocity":50,"Duration":96153,"SoundDuration":96153,"Delta":226755721},{"NoteNumber":62,"Velocity":59,"Duration":72115,"SoundDuration":72115,"Delta":226851875},{"NoteNumber":71,"Velocity":59,"Duration":72115,"SoundDuration":72115,"Delta":226851875},{"NoteNumber":36,"Velocity":51,"Duration":182692,"SoundDuration":182692,"Delta":226851875},{"NoteNumber":48,"Velocity":53,"Duration":96153,"SoundDuration":96153,"Delta":226948029},{"NoteNumber":63,"Velocity":61,"Duration":77736,"SoundDuration":77736,"Delta":227044183},{"NoteNumber":72,"Velocity":61,"Duration":77736,"SoundDuration":77736,"Delta":227044183},{"NoteNumber":36,"Velocity":55,"Duration":196932,"SoundDuration":196932,"Delta":227044183},{"NoteNumber":48,"Velocity":50,"Duration":103648,"SoundDuration":103648,"Delta":227147831},{"NoteNumber":64,"Velocity":55,"Duration":389736,"SoundDuration":389736,"Delta":227251480},{"NoteNumber":72,"Velocity":55,"Duration":389736,"SoundDuration":389736,"Delta":227251480},{"NoteNumber":36,"Velocity":53,"Duration":185125,"SoundDuration":185125,"Delta":227251480},{"NoteNumber":48,"Velocity":47,"Duration":97434,"SoundDuration":97434,"Delta":227348914},{"NoteNumber":36,"Velocity":53,"Duration":185125,"SoundDuration":185125,"Delta":227446348},{"NoteNumber":48,"Velocity":47,"Duration":97434,"SoundDuration":97434,"Delta":227543782},{"NoteNumber":70,"Velocity":51,"Duration":73075,"SoundDuration":73075,"Delta":227641217},{"NoteNumber":76,"Velocity":51,"Duration":73075,"SoundDuration":73075,"Delta":227641217},{"NoteNumber":36,"Velocity":44,"Duration":185125,"SoundDuration":185125,"Delta":227641217},{"NoteNumber":48,"Velocity":40,"Duration":97434,"SoundDuration":97434,"Delta":227738651},{"NoteNumber":68,"Velocity":53,"Duration":73075,"SoundDuration":73075,"Delta":227836085},{"NoteNumber":77,"Velocity":53,"Duration":73075,"SoundDuration":73075,"Delta":227836085},{"NoteNumber":36,"Velocity":43,"Duration":185125,"SoundDuration":185125,"Delta":227836085},{"NoteNumber":48,"Velocity":45,"Duration":97434,"SoundDuration":97434,"Delta":227933519},{"NoteNumber":76,"Velocity":55,"Duration":72115,"SoundDuration":72115,"Delta":228030954},{"NoteNumber":79,"Velocity":55,"Duration":72115,"SoundDuration":72115,"Delta":228030954},{"NoteNumber":36,"Velocity":46,"Duration":182692,"SoundDuration":182692,"Delta":228030954},{"NoteNumber":48,"Velocity":47,"Duration":96153,"SoundDuration":96153,"Delta":228127107},{"NoteNumber":77,"Velocity":57,"Duration":72115,"SoundDuration":72115,"Delta":228223261},{"NoteNumber":80,"Velocity":57,"Duration":72115,"SoundDuration":72115,"Delta":228223261},{"NoteNumber":36,"Velocity":48,"Duration":182692,"SoundDuration":182692,"Delta":228223261},{"NoteNumber":48,"Velocity":50,"Duration":96153,"SoundDuration":96153,"Delta":228319415},{"NoteNumber":74,"Velocity":59,"Duration":73289,"SoundDuration":73289,"Delta":228415569},{"NoteNumber":83,"Velocity":59,"Duration":73289,"SoundDuration":73289,"Delta":228415569},{"NoteNumber":36,"Velocity":51,"Duration":185667,"SoundDuration":185667,"Delta":228415569},{"NoteNumber":48,"Velocity":53,"Duration":97719,"SoundDuration":97719,"Delta":228513288},{"NoteNumber":72,"Velocity":51,"Duration":394618,"SoundDuration":394618,"Delta":228611008},{"NoteNumber":79,"Velocity":61,"Duration":394618,"SoundDuration":394618,"Delta":228611008},{"NoteNumber":75,"Velocity":51,"Duration":394618,"SoundDuration":394618,"Delta":228611008},{"NoteNumber":84,"Velocity":61,"Duration":394618,"SoundDuration":394618,"Delta":228611008},{"NoteNumber":36,"Velocity":55,"Duration":188442,"SoundDuration":188442,"Delta":228611008},{"NoteNumber":48,"Velocity":50,"Duration":99180,"SoundDuration":99180,"Delta":228710188},{"NoteNumber":36,"Velocity":53,"Duration":186445,"SoundDuration":186445,"Delta":228809368},{"NoteNumber":48,"Velocity":47,"Duration":98129,"SoundDuration":98129,"Delta":228907497},{"NoteNumber":67,"Velocity":53,"Duration":398250,"SoundDuration":398250,"Delta":229005626},{"NoteNumber":71,"Velocity":53,"Duration":398250,"SoundDuration":398250,"Delta":229005626},{"NoteNumber":77,"Velocity":63,"Duration":398250,"SoundDuration":398250,"Delta":229005626},{"NoteNumber":79,"Velocity":63,"Duration":398250,"SoundDuration":398250,"Delta":229005626},{"NoteNumber":38,"Velocity":55,"Duration":186445,"SoundDuration":186445,"Delta":229005626},{"NoteNumber":50,"Velocity":50,"Duration":98129,"SoundDuration":98129,"Delta":229103755},{"NoteNumber":38,"Velocity":55,"Duration":191893,"SoundDuration":191893,"Delta":229201884},{"NoteNumber":50,"Velocity":51,"Duration":100996,"SoundDuration":100996,"Delta":229302881},{"NoteNumber":67,"Velocity":56,"Duration":395205,"SoundDuration":395205,"Delta":229403877},{"NoteNumber":72,"Velocity":56,"Duration":395205,"SoundDuration":395205,"Delta":229403877},{"NoteNumber":75,"Velocity":67,"Duration":395205,"SoundDuration":395205,"Delta":229403877},{"NoteNumber":39,"Velocity":55,"Duration":187722,"SoundDuration":187722,"Delta":229403877},{"NoteNumber":51,"Velocity":55,"Duration":98801,"SoundDuration":98801,"Delta":229502678},{"NoteNumber":39,"Velocity":55,"Duration":187722,"SoundDuration":187722,"Delta":229601480},{"NoteNumber":51,"Velocity":55,"Duration":98801,"SoundDuration":98801,"Delta":229700281},{"NoteNumber":65,"Velocity":60,"Duration":398620,"SoundDuration":398620,"Delta":229799082},{"NoteNumber":68,"Velocity":60,"Duration":398620,"SoundDuration":398620,"Delta":229799082},{"NoteNumber":74,"Velocity":71,"Duration":398620,"SoundDuration":398620,"Delta":229799082},{"NoteNumber":41,"Velocity":55,"Duration":187722,"SoundDuration":187722,"Delta":229799082},{"NoteNumber":53,"Velocity":53,"Duration":98801,"SoundDuration":98801,"Delta":229897883},{"NoteNumber":41,"Velocity":55,"Duration":190967,"SoundDuration":190967,"Delta":229996685},{"NoteNumber":53,"Velocity":55,"Duration":100509,"SoundDuration":100509,"Delta":230097194},{"NoteNumber":63,"Velocity":62,"Duration":1599881,"SoundDuration":1599881,"Delta":230197703},{"NoteNumber":67,"Velocity":74,"Duration":402037,"SoundDuration":402037,"Delta":230197703},{"NoteNumber":72,"Velocity":74,"Duration":1599881,"SoundDuration":1599881,"Delta":230197703},{"NoteNumber":43,"Velocity":56,"Duration":190967,"SoundDuration":190967,"Delta":230197703},{"NoteNumber":55,"Velocity":56,"Duration":100509,"SoundDuration":100509,"Delta":230298212},{"NoteNumber":43,"Velocity":57,"Duration":190967,"SoundDuration":190967,"Delta":230398722},{"NoteNumber":55,"Velocity":57,"Duration":100509,"SoundDuration":100509,"Delta":230499231},{"NoteNumber":66,"Velocity":74,"Duration":402036,"SoundDuration":402036,"Delta":230599740},{"NoteNumber":44,"Velocity":58,"Duration":190967,"SoundDuration":190967,"Delta":230599740},{"NoteNumber":56,"Velocity":59,"Duration":100509,"SoundDuration":100509,"Delta":230700249},{"NoteNumber":44,"Velocity":59,"Duration":190967,"SoundDuration":190967,"Delta":230800759},{"NoteNumber":56,"Velocity":60,"Duration":100509,"SoundDuration":100509,"Delta":230901268},{"NoteNumber":69,"Velocity":77,"Duration":795807,"SoundDuration":795807,"Delta":231001777},{"NoteNumber":42,"Velocity":60,"Duration":189004,"SoundDuration":189004,"Delta":231001777},{"NoteNumber":54,"Velocity":55,"Duration":99475,"SoundDuration":99475,"Delta":231101253},{"NoteNumber":42,"Velocity":61,"Duration":189004,"SoundDuration":189004,"Delta":231200729},{"NoteNumber":54,"Velocity":55,"Duration":99476,"SoundDuration":99476,"Delta":231300205},{"NoteNumber":42,"Velocity":58,"Duration":189004,"SoundDuration":189004,"Delta":231399681},{"NoteNumber":54,"Velocity":55,"Duration":99476,"SoundDuration":99476,"Delta":231499157},{"NoteNumber":42,"Velocity":58,"Duration":189004,"SoundDuration":189004,"Delta":231598633},{"NoteNumber":54,"Velocity":55,"Duration":99475,"SoundDuration":99475,"Delta":231698109},{"NoteNumber":62,"Velocity":55,"Duration":205282,"SoundDuration":205282,"Delta":231797585},{"NoteNumber":67,"Velocity":55,"Duration":205282,"SoundDuration":205282,"Delta":231797585},{"NoteNumber":71,"Velocity":55,"Duration":205282,"SoundDuration":205282,"Delta":231797585},{"NoteNumber":43,"Velocity":55,"Duration":205282,"SoundDuration":205282,"Delta":231797585},{"NoteNumber":55,"Velocity":55,"Duration":205282,"SoundDuration":205282,"Delta":231797585},{"NoteNumber":62,"Velocity":50,"Duration":195018,"SoundDuration":195018,"Delta":232002868},{"NoteNumber":59,"Velocity":50,"Duration":195018,"SoundDuration":195018,"Delta":232002868},{"NoteNumber":67,"Velocity":80,"Duration":596856,"SoundDuration":596856,"Delta":232208150},{"NoteNumber":79,"Velocity":80,"Duration":596856,"SoundDuration":596856,"Delta":232208150},{"NoteNumber":62,"Velocity":50,"Duration":189004,"SoundDuration":189004,"Delta":232208150},{"NoteNumber":59,"Velocity":50,"Duration":189004,"SoundDuration":189004,"Delta":232208150},{"NoteNumber":59,"Velocity":50,"Duration":189004,"SoundDuration":189004,"Delta":232407102},{"NoteNumber":62,"Velocity":50,"Duration":189004,"SoundDuration":189004,"Delta":232407102},{"NoteNumber":55,"Velocity":50,"Duration":198951,"SoundDuration":198951,"Delta":232606054},{"NoteNumber":63,"Velocity":50,"Duration":189004,"SoundDuration":189004,"Delta":232805006},{"NoteNumber":60,"Velocity":50,"Duration":189004,"SoundDuration":189004,"Delta":232805006},{"NoteNumber":67,"Velocity":80,"Duration":494367,"SoundDuration":494367,"Delta":233003958},{"NoteNumber":79,"Velocity":80,"Duration":494367,"SoundDuration":494367,"Delta":233003958},{"NoteNumber":63,"Velocity":50,"Duration":189004,"SoundDuration":189004,"Delta":233003958},{"NoteNumber":60,"Velocity":50,"Duration":189004,"SoundDuration":189004,"Delta":233003958},{"NoteNumber":63,"Velocity":50,"Duration":189004,"SoundDuration":189004,"Delta":233202910},{"NoteNumber":60,"Velocity":50,"Duration":189004,"SoundDuration":189004,"Delta":233202910},{"NoteNumber":65,"Velocity":50,"Duration":192925,"SoundDuration":192925,"Delta":233401862},{"NoteNumber":62,"Velocity":50,"Duration":192925,"SoundDuration":192925,"Delta":233401862},{"NoteNumber":77,"Velocity":70,"Duration":96462,"SoundDuration":96462,"Delta":233498325},{"NoteNumber":74,"Velocity":69,"Duration":96462,"SoundDuration":96462,"Delta":233594788},{"NoteNumber":71,"Velocity":69,"Duration":96462,"SoundDuration":96462,"Delta":233691251},{"NoteNumber":67,"Velocity":68,"Duration":96462,"SoundDuration":96462,"Delta":233787714},{"NoteNumber":65,"Velocity":67,"Duration":96462,"SoundDuration":96462,"Delta":233884177},{"NoteNumber":62,"Velocity":66,"Duration":96462,"SoundDuration":96462,"Delta":233980640},{"NoteNumber":59,"Velocity":65,"Duration":96462,"SoundDuration":96462,"Delta":234077103},{"NoteNumber":60,"Velocity":65,"Duration":96514,"SoundDuration":96514,"Delta":234173566},{"NoteNumber":63,"Velocity":64,"Duration":96930,"SoundDuration":96930,"Delta":234270081},{"NoteNumber":60,"Velocity":65,"Duration":97350,"SoundDuration":97350,"Delta":234367012},{"NoteNumber":55,"Velocity":65,"Duration":97826,"SoundDuration":97826,"Delta":234464362},{"NoteNumber":54,"Velocity":64,"Duration":98253,"SoundDuration":98253,"Delta":234562188},{"NoteNumber":32,"Velocity":55,"Duration":98253,"SoundDuration":98253,"Delta":234562188},{"NoteNumber":60,"Velocity":64,"Duration":98738,"SoundDuration":98738,"Delta":234660442},{"NoteNumber":44,"Velocity":55,"Duration":98738,"SoundDuration":98738,"Delta":234660442},{"NoteNumber":56,"Velocity":63,"Duration":99173,"SoundDuration":99173,"Delta":234759180},{"NoteNumber":32,"Velocity":55,"Duration":99173,"SoundDuration":99173,"Delta":234759180},{"NoteNumber":54,"Velocity":65,"Duration":99668,"SoundDuration":99668,"Delta":234858354},{"NoteNumber":44,"Velocity":55,"Duration":99668,"SoundDuration":99668,"Delta":234858354},{"NoteNumber":55,"Velocity":67,"Duration":205282,"SoundDuration":205282,"Delta":234958022},{"NoteNumber":31,"Velocity":50,"Duration":205282,"SoundDuration":205282,"Delta":234958022},{"NoteNumber":43,"Velocity":50,"Duration":205282,"SoundDuration":205282,"Delta":234958022},{"NoteNumber":62,"Velocity":50,"Duration":195018,"SoundDuration":195018,"Delta":235163305},{"NoteNumber":59,"Velocity":50,"Duration":195018,"SoundDuration":195018,"Delta":235163305},{"NoteNumber":67,"Velocity":80,"Duration":596856,"SoundDuration":596856,"Delta":235368587},{"NoteNumber":79,"Velocity":80,"Duration":596856,"SoundDuration":596856,"Delta":235368587},{"NoteNumber":62,"Velocity":50,"Duration":189004,"SoundDuration":189004,"Delta":235368587},{"NoteNumber":59,"Velocity":50,"Duration":189004,"SoundDuration":189004,"Delta":235368587},{"NoteNumber":59,"Velocity":50,"Duration":198952,"SoundDuration":198952,"Delta":235567539},{"NoteNumber":62,"Velocity":50,"Duration":198952,"SoundDuration":198952,"Delta":235567539},{"NoteNumber":55,"Velocity":50,"Duration":198951,"SoundDuration":198951,"Delta":235766491},{"NoteNumber":63,"Velocity":50,"Duration":189004,"SoundDuration":189004,"Delta":235965443},{"NoteNumber":60,"Velocity":50,"Duration":189004,"SoundDuration":189004,"Delta":235965443},{"NoteNumber":67,"Velocity":80,"Duration":493750,"SoundDuration":493750,"Delta":236164395},{"NoteNumber":79,"Velocity":80,"Duration":493750,"SoundDuration":493750,"Delta":236164395},{"NoteNumber":63,"Velocity":50,"Duration":189004,"SoundDuration":189004,"Delta":236164395},{"NoteNumber":60,"Velocity":50,"Duration":189004,"SoundDuration":189004,"Delta":236164395},{"NoteNumber":63,"Velocity":50,"Duration":189004,"SoundDuration":189004,"Delta":236363347},{"NoteNumber":60,"Velocity":50,"Duration":189004,"SoundDuration":189004,"Delta":236363347},{"NoteNumber":65,"Velocity":50,"Duration":191693,"SoundDuration":191693,"Delta":236562299},{"NoteNumber":62,"Velocity":50,"Duration":191693,"SoundDuration":191693,"Delta":236562299},{"NoteNumber":77,"Velocity":72,"Duration":95846,"SoundDuration":95846,"Delta":236658146},{"NoteNumber":74,"Velocity":71,"Duration":95846,"SoundDuration":95846,"Delta":236753993},{"NoteNumber":71,"Velocity":70,"Duration":95846,"SoundDuration":95846,"Delta":236849839},{"NoteNumber":67,"Velocity":69,"Duration":95846,"SoundDuration":95846,"Delta":236945686},{"NoteNumber":65,"Velocity":68,"Duration":95846,"SoundDuration":95846,"Delta":237041533},{"NoteNumber":62,"Velocity":67,"Duration":95846,"SoundDuration":95846,"Delta":237137380},{"NoteNumber":59,"Velocity":66,"Duration":95643,"SoundDuration":95643,"Delta":237233226},{"NoteNumber":60,"Velocity":65,"Duration":95491,"SoundDuration":95491,"Delta":237328870},{"NoteNumber":63,"Velocity":64,"Duration":96102,"SoundDuration":96102,"Delta":237424362},{"NoteNumber":60,"Velocity":64,"Duration":96670,"SoundDuration":96670,"Delta":237520464},{"NoteNumber":55,"Velocity":67,"Duration":97244,"SoundDuration":97244,"Delta":237617135},{"NoteNumber":54,"Velocity":66,"Duration":97879,"SoundDuration":97879,"Delta":237714380},{"NoteNumber":32,"Velocity":55,"Duration":186479,"SoundDuration":186479,"Delta":237714380},{"NoteNumber":60,"Velocity":64,"Duration":98468,"SoundDuration":98468,"Delta":237812259},{"NoteNumber":44,"Velocity":55,"Duration":98468,"SoundDuration":98468,"Delta":237812259},{"NoteNumber":56,"Velocity":62,"Duration":99064,"SoundDuration":99064,"Delta":237910728},{"NoteNumber":32,"Velocity":55,"Duration":188788,"SoundDuration":188788,"Delta":237910728},{"NoteNumber":54,"Velocity":60,"Duration":99723,"SoundDuration":99723,"Delta":238009793},{"NoteNumber":44,"Velocity":49,"Duration":99723,"SoundDuration":99723,"Delta":238009793},{"NoteNumber":55,"Velocity":67,"Duration":199999,"SoundDuration":199999,"Delta":238109517},{"NoteNumber":31,"Velocity":50,"Duration":189999,"SoundDuration":189999,"Delta":238109517},{"NoteNumber":43,"Velocity":51,"Duration":99999,"SoundDuration":99999,"Delta":238209517},{"NoteNumber":66,"Velocity":67,"Duration":73352,"SoundDuration":73352,"Delta":238309517},{"NoteNumber":31,"Velocity":51,"Duration":185825,"SoundDuration":185825,"Delta":238309517},{"NoteNumber":43,"Velocity":52,"Duration":97802,"SoundDuration":97802,"Delta":238407319},{"NoteNumber":67,"Velocity":69,"Duration":72115,"SoundDuration":72115,"Delta":238505122},{"NoteNumber":31,"Velocity":53,"Duration":182692,"SoundDuration":182692,"Delta":238505122},{"NoteNumber":43,"Velocity":54,"Duration":96153,"SoundDuration":96153,"Delta":238601276},{"NoteNumber":66,"Velocity":71,"Duration":72115,"SoundDuration":72115,"Delta":238697430},{"NoteNumber":72,"Velocity":71,"Duration":72115,"SoundDuration":72115,"Delta":238697430},{"NoteNumber":31,"Velocity":55,"Duration":182692,"SoundDuration":182692,"Delta":238697430},{"NoteNumber":43,"Velocity":56,"Duration":96153,"SoundDuration":96153,"Delta":238793583},{"NoteNumber":67,"Velocity":73,"Duration":72115,"SoundDuration":72115,"Delta":238889737},{"NoteNumber":71,"Velocity":73,"Duration":72115,"SoundDuration":72115,"Delta":238889737},{"NoteNumber":31,"Velocity":57,"Duration":182692,"SoundDuration":182692,"Delta":238889737},{"NoteNumber":43,"Velocity":58,"Duration":96153,"SoundDuration":96153,"Delta":238985891},{"NoteNumber":72,"Velocity":75,"Duration":72115,"SoundDuration":72115,"Delta":239082045},{"NoteNumber":78,"Velocity":75,"Duration":72115,"SoundDuration":72115,"Delta":239082045},{"NoteNumber":31,"Velocity":59,"Duration":182692,"SoundDuration":182692,"Delta":239082045},{"NoteNumber":43,"Velocity":60,"Duration":96153,"SoundDuration":96153,"Delta":239178198},{"NoteNumber":71,"Velocity":77,"Duration":72115,"SoundDuration":72115,"Delta":239274352},{"NoteNumber":79,"Velocity":77,"Duration":72115,"SoundDuration":72115,"Delta":239274352},{"NoteNumber":31,"Velocity":61,"Duration":182692,"SoundDuration":182692,"Delta":239274352},{"NoteNumber":43,"Velocity":61,"Duration":96153,"SoundDuration":96153,"Delta":239370506},{"NoteNumber":84,"Velocity":79,"Duration":72115,"SoundDuration":72115,"Delta":239466660},{"NoteNumber":78,"Velocity":79,"Duration":72115,"SoundDuration":72115,"Delta":239466660},{"NoteNumber":31,"Velocity":62,"Duration":182692,"SoundDuration":182692,"Delta":239466660},{"NoteNumber":43,"Velocity":63,"Duration":96153,"SoundDuration":96153,"Delta":239562813},{"NoteNumber":83,"Velocity":81,"Duration":97719,"SoundDuration":97719,"Delta":239658967},{"NoteNumber":79,"Velocity":81,"Duration":97719,"SoundDuration":97719,"Delta":239658967},{"NoteNumber":31,"Velocity":64,"Duration":185667,"SoundDuration":185667,"Delta":239658967},{"NoteNumber":43,"Velocity":55,"Duration":97719,"SoundDuration":97719,"Delta":239756687},{"NoteNumber":31,"Velocity":61,"Duration":185667,"SoundDuration":185667,"Delta":239854407},{"NoteNumber":43,"Velocity":55,"Duration":97719,"SoundDuration":97719,"Delta":239952126},{"NoteNumber":31,"Velocity":61,"Duration":185667,"SoundDuration":185667,"Delta":240049846},{"NoteNumber":43,"Velocity":55,"Duration":97719,"SoundDuration":97719,"Delta":240147566},{"NoteNumber":31,"Velocity":60,"Duration":185667,"SoundDuration":185667,"Delta":240245286},{"NoteNumber":43,"Velocity":55,"Duration":97719,"SoundDuration":97719,"Delta":240343005},{"NoteNumber":58,"Velocity":81,"Duration":787711,"SoundDuration":787711,"Delta":240440725},{"NoteNumber":61,"Velocity":81,"Duration":787711,"SoundDuration":787711,"Delta":240440725},{"NoteNumber":63,"Velocity":84,"Duration":992994,"SoundDuration":992994,"Delta":240440725},{"NoteNumber":31,"Velocity":64,"Duration":187081,"SoundDuration":187081,"Delta":240440725},{"NoteNumber":43,"Velocity":55,"Duration":98464,"SoundDuration":98464,"Delta":240539189},{"NoteNumber":31,"Velocity":61,"Duration":187081,"SoundDuration":187081,"Delta":240637653},{"NoteNumber":43,"Velocity":55,"Duration":98464,"SoundDuration":98464,"Delta":240736117},{"NoteNumber":31,"Velocity":61,"Duration":187081,"SoundDuration":187081,"Delta":240834581},{"NoteNumber":43,"Velocity":55,"Duration":98464,"SoundDuration":98464,"Delta":240933045},{"NoteNumber":31,"Velocity":60,"Duration":187081,"SoundDuration":187081,"Delta":241031509},{"NoteNumber":43,"Velocity":55,"Duration":98464,"SoundDuration":98464,"Delta":241129973},{"NoteNumber":60,"Velocity":67,"Duration":205282,"SoundDuration":205282,"Delta":241228437},{"NoteNumber":32,"Velocity":50,"Duration":195018,"SoundDuration":195018,"Delta":241228437},{"NoteNumber":44,"Velocity":51,"Duration":102641,"SoundDuration":102641,"Delta":241331078},{"NoteNumber":73,"Velocity":67,"Duration":73352,"SoundDuration":73352,"Delta":241433720},{"NoteNumber":32,"Velocity":51,"Duration":185825,"SoundDuration":185825,"Delta":241433720},{"NoteNumber":44,"Velocity":52,"Duration":97802,"SoundDuration":97802,"Delta":241531522},{"NoteNumber":72,"Velocity":69,"Duration":72115,"SoundDuration":72115,"Delta":241629325},{"NoteNumber":32,"Velocity":53,"Duration":182692,"SoundDuration":182692,"Delta":241629325},{"NoteNumber":44,"Velocity":54,"Duration":96153,"SoundDuration":96153,"Delta":241725479},{"NoteNumber":73,"Velocity":71,"Duration":72115,"SoundDuration":72115,"Delta":241821633},{"NoteNumber":79,"Velocity":71,"Duration":72115,"SoundDuration":72115,"Delta":241821633},{"NoteNumber":32,"Velocity":55,"Duration":182692,"SoundDuration":182692,"Delta":241821633},{"NoteNumber":44,"Velocity":56,"Duration":96153,"SoundDuration":96153,"Delta":241917786},{"NoteNumber":72,"Velocity":73,"Duration":72115,"SoundDuration":72115,"Delta":242013940},{"NoteNumber":80,"Velocity":73,"Duration":72115,"SoundDuration":72115,"Delta":242013940},{"NoteNumber":32,"Velocity":57,"Duration":182692,"SoundDuration":182692,"Delta":242013940},{"NoteNumber":44,"Velocity":58,"Duration":96153,"SoundDuration":96153,"Delta":242110094},{"NoteNumber":79,"Velocity":75,"Duration":72115,"SoundDuration":72115,"Delta":242206248},{"NoteNumber":85,"Velocity":75,"Duration":72115,"SoundDuration":72115,"Delta":242206248},{"NoteNumber":32,"Velocity":59,"Duration":182692,"SoundDuration":182692,"Delta":242206248},{"NoteNumber":44,"Velocity":60,"Duration":96153,"SoundDuration":96153,"Delta":242302401},{"NoteNumber":80,"Velocity":77,"Duration":72115,"SoundDuration":72115,"Delta":242398555},{"NoteNumber":84,"Velocity":77,"Duration":72115,"SoundDuration":72115,"Delta":242398555},{"NoteNumber":32,"Velocity":61,"Duration":182692,"SoundDuration":182692,"Delta":242398555},{"NoteNumber":44,"Velocity":61,"Duration":96153,"SoundDuration":96153,"Delta":242494709},{"NoteNumber":85,"Velocity":79,"Duration":72115,"SoundDuration":72115,"Delta":242590863},{"NoteNumber":79,"Velocity":79,"Duration":72115,"SoundDuration":72115,"Delta":242590863},{"NoteNumber":32,"Velocity":62,"Duration":182692,"SoundDuration":182692,"Delta":242590863},{"NoteNumber":44,"Velocity":63,"Duration":96153,"SoundDuration":96153,"Delta":242687016},{"NoteNumber":84,"Velocity":81,"Duration":97719,"SoundDuration":97719,"Delta":242783170},{"NoteNumber":80,"Velocity":81,"Duration":97719,"SoundDuration":97719,"Delta":242783170},{"NoteNumber":32,"Velocity":64,"Duration":185667,"SoundDuration":185667,"Delta":242783170},{"NoteNumber":44,"Velocity":55,"Duration":97719,"SoundDuration":97719,"Delta":242880890},{"NoteNumber":32,"Velocity":61,"Duration":185667,"SoundDuration":185667,"Delta":242978610},{"NoteNumber":44,"Velocity":55,"Duration":97719,"SoundDuration":97719,"Delta":243076329},{"NoteNumber":32,"Velocity":61,"Duration":185667,"SoundDuration":185667,"Delta":243174049},{"NoteNumber":44,"Velocity":55,"Duration":97719,"SoundDuration":97719,"Delta":243271769},{"NoteNumber":32,"Velocity":60,"Duration":185667,"SoundDuration":185667,"Delta":243369489},{"NoteNumber":44,"Velocity":55,"Duration":97719,"SoundDuration":97719,"Delta":243467208},{"NoteNumber":60,"Velocity":81,"Duration":787711,"SoundDuration":787711,"Delta":243564928},{"NoteNumber":63,"Velocity":81,"Duration":787711,"SoundDuration":787711,"Delta":243564928},{"NoteNumber":66,"Velocity":84,"Duration":787711,"SoundDuration":787711,"Delta":243564928},{"NoteNumber":33,"Velocity":64,"Duration":187081,"SoundDuration":187081,"Delta":243564928},{"NoteNumber":45,"Velocity":55,"Duration":98464,"SoundDuration":98464,"Delta":243663392},{"NoteNumber":33,"Velocity":61,"Duration":187081,"SoundDuration":187081,"Delta":243761856},{"NoteNumber":45,"Velocity":55,"Duration":98464,"SoundDuration":98464,"Delta":243860320},{"NoteNumber":33,"Velocity":61,"Duration":187081,"SoundDuration":187081,"Delta":243958784},{"NoteNumber":45,"Velocity":55,"Duration":98464,"SoundDuration":98464,"Delta":244057248},{"NoteNumber":33,"Velocity":60,"Duration":187081,"SoundDuration":187081,"Delta":244155712},{"NoteNumber":45,"Velocity":55,"Duration":98464,"SoundDuration":98464,"Delta":244254176},{"NoteNumber":62,"Velocity":67,"Duration":205282,"SoundDuration":205282,"Delta":244352640},{"NoteNumber":65,"Velocity":67,"Duration":205282,"SoundDuration":205282,"Delta":244352640},{"NoteNumber":34,"Velocity":50,"Duration":195018,"SoundDuration":195018,"Delta":244352640},{"NoteNumber":46,"Velocity":51,"Duration":102641,"SoundDuration":102641,"Delta":244455281},{"NoteNumber":69,"Velocity":62,"Duration":72115,"SoundDuration":72115,"Delta":244557923},{"NoteNumber":75,"Velocity":67,"Duration":72115,"SoundDuration":72115,"Delta":244557923},{"NoteNumber":34,"Velocity":51,"Duration":182692,"SoundDuration":182692,"Delta":244557923},{"NoteNumber":46,"Velocity":52,"Duration":96153,"SoundDuration":96153,"Delta":244654076},{"NoteNumber":70,"Velocity":65,"Duration":71885,"SoundDuration":71885,"Delta":244750230},{"NoteNumber":74,"Velocity":69,"Duration":71885,"SoundDuration":71885,"Delta":244750230},{"NoteNumber":34,"Velocity":53,"Duration":182108,"SoundDuration":182108,"Delta":244750230},{"NoteNumber":46,"Velocity":54,"Duration":95846,"SoundDuration":95846,"Delta":244846077},{"NoteNumber":75,"Velocity":71,"Duration":71885,"SoundDuration":71885,"Delta":244941924},{"NoteNumber":81,"Velocity":71,"Duration":71885,"SoundDuration":71885,"Delta":244941924},{"NoteNumber":34,"Velocity":55,"Duration":182108,"SoundDuration":182108,"Delta":244941924},{"NoteNumber":46,"Velocity":56,"Duration":95846,"SoundDuration":95846,"Delta":245037770},{"NoteNumber":74,"Velocity":73,"Duration":71885,"SoundDuration":71885,"Delta":245133617},{"NoteNumber":82,"Velocity":73,"Duration":71885,"SoundDuration":71885,"Delta":245133617},{"NoteNumber":34,"Velocity":57,"Duration":182108,"SoundDuration":182108,"Delta":245133617},{"NoteNumber":46,"Velocity":58,"Duration":95846,"SoundDuration":95846,"Delta":245229464},{"NoteNumber":81,"Velocity":75,"Duration":71885,"SoundDuration":71885,"Delta":245325311},{"NoteNumber":87,"Velocity":75,"Duration":71885,"SoundDuration":71885,"Delta":245325311},{"NoteNumber":34,"Velocity":59,"Duration":182108,"SoundDuration":182108,"Delta":245325311},{"NoteNumber":46,"Velocity":60,"Duration":95846,"SoundDuration":95846,"Delta":245421157},{"NoteNumber":82,"Velocity":77,"Duration":71885,"SoundDuration":71885,"Delta":245517004},{"NoteNumber":86,"Velocity":77,"Duration":71885,"SoundDuration":71885,"Delta":245517004},{"NoteNumber":34,"Velocity":61,"Duration":182108,"SoundDuration":182108,"Delta":245517004},{"NoteNumber":46,"Velocity":61,"Duration":95846,"SoundDuration":95846,"Delta":245612851},{"NoteNumber":87,"Velocity":79,"Duration":71885,"SoundDuration":71885,"Delta":245708698},{"NoteNumber":81,"Velocity":79,"Duration":71885,"SoundDuration":71885,"Delta":245708698},{"NoteNumber":34,"Velocity":62,"Duration":182108,"SoundDuration":182108,"Delta":245708698},{"NoteNumber":46,"Velocity":63,"Duration":95846,"SoundDuration":95846,"Delta":245804544},{"NoteNumber":86,"Velocity":81,"Duration":97719,"SoundDuration":97719,"Delta":245900391},{"NoteNumber":82,"Velocity":81,"Duration":97719,"SoundDuration":97719,"Delta":245900391},{"NoteNumber":34,"Velocity":64,"Duration":185667,"SoundDuration":185667,"Delta":245900391},{"NoteNumber":46,"Velocity":55,"Duration":97719,"SoundDuration":97719,"Delta":245998111},{"NoteNumber":34,"Velocity":61,"Duration":185667,"SoundDuration":185667,"Delta":246095831},{"NoteNumber":46,"Velocity":55,"Duration":97719,"SoundDuration":97719,"Delta":246193550},{"NoteNumber":75,"Velocity":81,"Duration":385851,"SoundDuration":385851,"Delta":246291270},{"NoteNumber":81,"Velocity":81,"Duration":385851,"SoundDuration":385851,"Delta":246291270},{"NoteNumber":34,"Velocity":61,"Duration":183279,"SoundDuration":183279,"Delta":246291270},{"NoteNumber":46,"Velocity":55,"Duration":96462,"SoundDuration":96462,"Delta":246387733},{"NoteNumber":34,"Velocity":60,"Duration":183279,"SoundDuration":183279,"Delta":246484196},{"NoteNumber":46,"Velocity":55,"Duration":96462,"SoundDuration":96462,"Delta":246580659},{"NoteNumber":74,"Velocity":81,"Duration":195230,"SoundDuration":195230,"Delta":246677122},{"NoteNumber":82,"Velocity":81,"Duration":195230,"SoundDuration":195230,"Delta":246677122},{"NoteNumber":34,"Velocity":64,"Duration":185458,"SoundDuration":185458,"Delta":246677122},{"NoteNumber":46,"Velocity":55,"Duration":97719,"SoundDuration":97719,"Delta":246774632},{"NoteNumber":34,"Velocity":61,"Duration":185667,"SoundDuration":185667,"Delta":246872352},{"NoteNumber":46,"Velocity":55,"Duration":97719,"SoundDuration":97719,"Delta":246970072},{"NoteNumber":69,"Velocity":81,"Duration":384614,"SoundDuration":384614,"Delta":247067792},{"NoteNumber":75,"Velocity":81,"Duration":384614,"SoundDuration":384614,"Delta":247067792},{"NoteNumber":34,"Velocity":61,"Duration":182692,"SoundDuration":182692,"Delta":247067792},{"NoteNumber":46,"Velocity":55,"Duration":96153,"SoundDuration":96153,"Delta":247163945},{"NoteNumber":34,"Velocity":60,"Duration":182692,"SoundDuration":182692,"Delta":247260099},{"NoteNumber":46,"Velocity":55,"Duration":96153,"SoundDuration":96153,"Delta":247356253},{"NoteNumber":70,"Velocity":81,"Duration":195439,"SoundDuration":195439,"Delta":247452407},{"NoteNumber":74,"Velocity":81,"Duration":195439,"SoundDuration":195439,"Delta":247452407},{"NoteNumber":34,"Velocity":64,"Duration":185667,"SoundDuration":185667,"Delta":247452407},{"NoteNumber":46,"Velocity":55,"Duration":97719,"SoundDuration":97719,"Delta":247550126},{"NoteNumber":34,"Velocity":61,"Duration":185667,"SoundDuration":185667,"Delta":247647846},{"NoteNumber":46,"Velocity":55,"Duration":97719,"SoundDuration":97719,"Delta":247745566},{"NoteNumber":63,"Velocity":81,"Duration":387097,"SoundDuration":387097,"Delta":247843286},{"NoteNumber":69,"Velocity":81,"Duration":387097,"SoundDuration":387097,"Delta":247843286},{"NoteNumber":34,"Velocity":61,"Duration":183871,"SoundDuration":183871,"Delta":247843286},{"NoteNumber":46,"Velocity":55,"Duration":96774,"SoundDuration":96774,"Delta":247940060},{"NoteNumber":34,"Velocity":60,"Duration":183871,"SoundDuration":183871,"Delta":248036834},{"NoteNumber":46,"Velocity":55,"Duration":96774,"SoundDuration":96774,"Delta":248133608},{"NoteNumber":62,"Velocity":81,"Duration":194857,"SoundDuration":194857,"Delta":248230383},{"NoteNumber":70,"Velocity":81,"Duration":194857,"SoundDuration":194857,"Delta":248230383},{"NoteNumber":34,"Velocity":64,"Duration":185117,"SoundDuration":185117,"Delta":248230383},{"NoteNumber":46,"Velocity":55,"Duration":97402,"SoundDuration":97402,"Delta":248327838},{"NoteNumber":34,"Velocity":61,"Duration":185064,"SoundDuration":185064,"Delta":248425240},{"NoteNumber":46,"Velocity":55,"Duration":97402,"SoundDuration":97402,"Delta":248522643},{"NoteNumber":57,"Velocity":81,"Duration":389609,"SoundDuration":389609,"Delta":248620045},{"NoteNumber":63,"Velocity":81,"Duration":389609,"SoundDuration":389609,"Delta":248620045},{"NoteNumber":34,"Velocity":61,"Duration":185064,"SoundDuration":185064,"Delta":248620045},{"NoteNumber":46,"Velocity":55,"Duration":97402,"SoundDuration":97402,"Delta":248717448},{"NoteNumber":34,"Velocity":60,"Duration":185064,"SoundDuration":185064,"Delta":248814850},{"NoteNumber":46,"Velocity":55,"Duration":97402,"SoundDuration":97402,"Delta":248912253},{"NoteNumber":58,"Velocity":81,"Duration":202020,"SoundDuration":202020,"Delta":249009655},{"NoteNumber":62,"Velocity":81,"Duration":202020,"SoundDuration":202020,"Delta":249009655},{"NoteNumber":46,"Velocity":55,"Duration":202020,"SoundDuration":202020,"Delta":249009655},{"NoteNumber":34,"Velocity":64,"Duration":202020,"SoundDuration":202020,"Delta":249009655},{"NoteNumber":57,"Velocity":50,"Duration":202020,"SoundDuration":202020,"Delta":249211675},{"NoteNumber":58,"Velocity":59,"Duration":202020,"SoundDuration":202020,"Delta":249413695},{"NoteNumber":57,"Velocity":56,"Duration":202019,"SoundDuration":202019,"Delta":249615715},{"NoteNumber":58,"Velocity":57,"Duration":202020,"SoundDuration":202020,"Delta":249817735},{"NoteNumber":57,"Velocity":49,"Duration":202020,"SoundDuration":202020,"Delta":250019755},{"NoteNumber":58,"Velocity":57,"Duration":202020,"SoundDuration":202020,"Delta":250221775},{"NoteNumber":57,"Velocity":51,"Duration":202020,"SoundDuration":202020,"Delta":250423795},{"NoteNumber":58,"Velocity":44,"Duration":796999,"SoundDuration":796999,"Delta":250625815},{"NoteNumber":46,"Velocity":55,"Duration":100671,"SoundDuration":100671,"Delta":250830593},{"NoteNumber":63,"Velocity":38,"Duration":191275,"SoundDuration":191275,"Delta":250830593},{"NoteNumber":66,"Velocity":38,"Duration":191275,"SoundDuration":191275,"Delta":250830593},{"NoteNumber":51,"Velocity":58,"Duration":97719,"SoundDuration":97719,"Delta":251031936},{"NoteNumber":63,"Velocity":38,"Duration":185667,"SoundDuration":185667,"Delta":251031936},{"NoteNumber":66,"Velocity":38,"Duration":185667,"SoundDuration":185667,"Delta":251031936},{"NoteNumber":53,"Velocity":61,"Duration":97719,"SoundDuration":97719,"Delta":251227375},{"NoteNumber":63,"Velocity":38,"Duration":185667,"SoundDuration":185667,"Delta":251227375},{"NoteNumber":66,"Velocity":38,"Duration":185667,"SoundDuration":185667,"Delta":251227375},{"NoteNumber":54,"Velocity":64,"Duration":102040,"SoundDuration":102040,"Delta":251422815},{"NoteNumber":58,"Velocity":44,"Duration":806834,"SoundDuration":806834,"Delta":251422815},{"NoteNumber":70,"Velocity":62,"Duration":102040,"SoundDuration":102040,"Delta":251626896},{"NoteNumber":63,"Velocity":38,"Duration":193877,"SoundDuration":193877,"Delta":251626896},{"NoteNumber":66,"Velocity":38,"Duration":193877,"SoundDuration":193877,"Delta":251626896},{"NoteNumber":75,"Velocity":64,"Duration":99667,"SoundDuration":99667,"Delta":251830978},{"NoteNumber":63,"Velocity":38,"Duration":189368,"SoundDuration":189368,"Delta":251830978},{"NoteNumber":66,"Velocity":38,"Duration":189368,"SoundDuration":189368,"Delta":251830978},{"NoteNumber":77,"Velocity":66,"Duration":99667,"SoundDuration":99667,"Delta":252030313},{"NoteNumber":63,"Velocity":38,"Duration":199335,"SoundDuration":199335,"Delta":252030313},{"NoteNumber":66,"Velocity":38,"Duration":199335,"SoundDuration":199335,"Delta":252030313},{"NoteNumber":70,"Velocity":65,"Duration":49833,"SoundDuration":49833,"Delta":252179815},{"NoteNumber":78,"Velocity":75,"Duration":602702,"SoundDuration":602702,"Delta":252229649},{"NoteNumber":58,"Velocity":44,"Duration":806092,"SoundDuration":806092,"Delta":252229649},{"NoteNumber":63,"Velocity":38,"Duration":189999,"SoundDuration":189999,"Delta":252432351},{"NoteNumber":66,"Velocity":38,"Duration":189999,"SoundDuration":189999,"Delta":252432351},{"NoteNumber":63,"Velocity":38,"Duration":189999,"SoundDuration":189999,"Delta":252632351},{"NoteNumber":66,"Velocity":38,"Duration":189999,"SoundDuration":189999,"Delta":252632351},{"NoteNumber":75,"Velocity":63,"Duration":203390,"SoundDuration":203390,"Delta":252832351},{"NoteNumber":63,"Velocity":38,"Duration":193220,"SoundDuration":193220,"Delta":252832351},{"NoteNumber":66,"Velocity":38,"Duration":193220,"SoundDuration":193220,"Delta":252832351},{"NoteNumber":70,"Velocity":60,"Duration":50847,"SoundDuration":50847,"Delta":252984894},{"NoteNumber":78,"Velocity":71,"Duration":603389,"SoundDuration":603389,"Delta":253035741},{"NoteNumber":58,"Velocity":44,"Duration":805409,"SoundDuration":805409,"Delta":253035741},{"NoteNumber":63,"Velocity":38,"Duration":189999,"SoundDuration":189999,"Delta":253239131},{"NoteNumber":66,"Velocity":38,"Duration":189999,"SoundDuration":189999,"Delta":253239131},{"NoteNumber":63,"Velocity":38,"Duration":189999,"SoundDuration":189999,"Delta":253439131},{"NoteNumber":66,"Velocity":38,"Duration":189999,"SoundDuration":189999,"Delta":253439131},{"NoteNumber":75,"Velocity":58,"Duration":202020,"SoundDuration":202020,"Delta":253639131},{"NoteNumber":63,"Velocity":38,"Duration":191919,"SoundDuration":191919,"Delta":253639131},{"NoteNumber":66,"Velocity":38,"Duration":191919,"SoundDuration":191919,"Delta":253639131},{"NoteNumber":74,"Velocity":60,"Duration":207612,"SoundDuration":207612,"Delta":253841151},{"NoteNumber":58,"Velocity":44,"Duration":798491,"SoundDuration":798491,"Delta":253841151},{"NoteNumber":46,"Velocity":57,"Duration":99999,"SoundDuration":99999,"Delta":254048764},{"NoteNumber":65,"Velocity":38,"Duration":189999,"SoundDuration":189999,"Delta":254048764},{"NoteNumber":68,"Velocity":38,"Duration":189999,"SoundDuration":189999,"Delta":254048764},{"NoteNumber":53,"Velocity":60,"Duration":97719,"SoundDuration":97719,"Delta":254248764},{"NoteNumber":65,"Velocity":38,"Duration":185667,"SoundDuration":185667,"Delta":254248764},{"NoteNumber":68,"Velocity":38,"Duration":185667,"SoundDuration":185667,"Delta":254248764},{"NoteNumber":54,"Velocity":63,"Duration":97719,"SoundDuration":97719,"Delta":254444203},{"NoteNumber":65,"Velocity":38,"Duration":185667,"SoundDuration":185667,"Delta":254444203},{"NoteNumber":68,"Velocity":38,"Duration":185667,"SoundDuration":185667,"Delta":254444203},{"NoteNumber":56,"Velocity":66,"Duration":102040,"SoundDuration":102040,"Delta":254639643},{"NoteNumber":58,"Velocity":44,"Duration":808163,"SoundDuration":808163,"Delta":254639643},{"NoteNumber":70,"Velocity":59,"Duration":204081,"SoundDuration":204081,"Delta":254843724},{"NoteNumber":65,"Velocity":38,"Duration":193877,"SoundDuration":193877,"Delta":254843724},{"NoteNumber":68,"Velocity":38,"Duration":193877,"SoundDuration":193877,"Delta":254843724},{"NoteNumber":80,"Velocity":62,"Duration":199999,"SoundDuration":199999,"Delta":255047806},{"NoteNumber":65,"Velocity":38,"Duration":189999,"SoundDuration":189999,"Delta":255047806},{"NoteNumber":68,"Velocity":38,"Duration":189999,"SoundDuration":189999,"Delta":255047806},{"NoteNumber":78,"Velocity":65,"Duration":200000,"SoundDuration":200000,"Delta":255247806},{"NoteNumber":65,"Velocity":38,"Duration":189999,"SoundDuration":189999,"Delta":255247806},{"NoteNumber":68,"Velocity":38,"Duration":189999,"SoundDuration":189999,"Delta":255247806},{"NoteNumber":78,"Velocity":60,"Duration":50847,"SoundDuration":50847,"Delta":255447806},{"NoteNumber":58,"Velocity":44,"Duration":813560,"SoundDuration":813560,"Delta":255447806},{"NoteNumber":80,"Velocity":60,"Duration":50847,"SoundDuration":50847,"Delta":255498653},{"NoteNumber":78,"Velocity":67,"Duration":101695,"SoundDuration":101695,"Delta":255549501},{"NoteNumber":77,"Velocity":60,"Duration":203389,"SoundDuration":203389,"Delta":255651196},{"NoteNumber":65,"Velocity":38,"Duration":193220,"SoundDuration":193220,"Delta":255651196},{"NoteNumber":68,"Velocity":38,"Duration":193220,"SoundDuration":193220,"Delta":255651196},{"NoteNumber":77,"Velocity":60,"Duration":50847,"SoundDuration":50847,"Delta":255854586},{"NoteNumber":65,"Velocity":38,"Duration":193220,"SoundDuration":193220,"Delta":255854586},{"NoteNumber":68,"Velocity":38,"Duration":193220,"SoundDuration":193220,"Delta":255854586},{"NoteNumber":78,"Velocity":60,"Duration":50847,"SoundDuration":50847,"Delta":255905433},{"NoteNumber":77,"Velocity":67,"Duration":101695,"SoundDuration":101695,"Delta":255956281},{"NoteNumber":75,"Velocity":60,"Duration":203390,"SoundDuration":203390,"Delta":256057976},{"NoteNumber":65,"Velocity":38,"Duration":193220,"SoundDuration":193220,"Delta":256057976},{"NoteNumber":68,"Velocity":38,"Duration":193220,"SoundDuration":193220,"Delta":256057976},{"NoteNumber":75,"Velocity":60,"Duration":50847,"SoundDuration":50847,"Delta":256261366},{"NoteNumber":58,"Velocity":44,"Duration":813559,"SoundDuration":813559,"Delta":256261366},{"NoteNumber":77,"Velocity":60,"Duration":50847,"SoundDuration":50847,"Delta":256312213},{"NoteNumber":75,"Velocity":66,"Duration":101695,"SoundDuration":101695,"Delta":256363061},{"NoteNumber":74,"Velocity":60,"Duration":203390,"SoundDuration":203390,"Delta":256464756},{"NoteNumber":65,"Velocity":38,"Duration":193220,"SoundDuration":193220,"Delta":256464756},{"NoteNumber":68,"Velocity":38,"Duration":193220,"SoundDuration":193220,"Delta":256464756},{"NoteNumber":72,"Velocity":60,"Duration":101695,"SoundDuration":101695,"Delta":256668146},{"NoteNumber":65,"Velocity":38,"Duration":193220,"SoundDuration":193220,"Delta":256668146},{"NoteNumber":68,"Velocity":38,"Duration":193220,"SoundDuration":193220,"Delta":256668146},{"NoteNumber":74,"Velocity":60,"Duration":101695,"SoundDuration":101695,"Delta":256871536},{"NoteNumber":65,"Velocity":38,"Duration":193220,"SoundDuration":193220,"Delta":256871536},{"NoteNumber":68,"Velocity":38,"Duration":193220,"SoundDuration":193220,"Delta":256871536},{"NoteNumber":75,"Velocity":60,"Duration":208333,"SoundDuration":208333,"Delta":257074926},{"NoteNumber":58,"Velocity":44,"Duration":799212,"SoundDuration":799212,"Delta":257074926},{"NoteNumber":46,"Velocity":55,"Duration":100000,"SoundDuration":100000,"Delta":257283259},{"NoteNumber":63,"Velocity":38,"Duration":189999,"SoundDuration":189999,"Delta":257283259},{"NoteNumber":66,"Velocity":38,"Duration":189999,"SoundDuration":189999,"Delta":257283259},{"NoteNumber":51,"Velocity":58,"Duration":97719,"SoundDuration":97719,"Delta":257483259},{"NoteNumber":63,"Velocity":38,"Duration":185667,"SoundDuration":185667,"Delta":257483259},{"NoteNumber":66,"Velocity":38,"Duration":185667,"SoundDuration":185667,"Delta":257483259},{"NoteNumber":53,"Velocity":61,"Duration":97719,"SoundDuration":97719,"Delta":257678699},{"NoteNumber":63,"Velocity":38,"Duration":185667,"SoundDuration":185667,"Delta":257678699},{"NoteNumber":66,"Velocity":38,"Duration":185667,"SoundDuration":185667,"Delta":257678699},{"NoteNumber":54,"Velocity":64,"Duration":102040,"SoundDuration":102040,"Delta":257874138},{"NoteNumber":58,"Velocity":44,"Duration":806833,"SoundDuration":806833,"Delta":257874138},{"NoteNumber":70,"Velocity":62,"Duration":102040,"SoundDuration":102040,"Delta":258078220},{"NoteNumber":63,"Velocity":38,"Duration":193877,"SoundDuration":193877,"Delta":258078220},{"NoteNumber":66,"Velocity":38,"Duration":193877,"SoundDuration":193877,"Delta":258078220},{"NoteNumber":75,"Velocity":64,"Duration":99667,"SoundDuration":99667,"Delta":258282301},{"NoteNumber":63,"Velocity":38,"Duration":189368,"SoundDuration":189368,"Delta":258282301},{"NoteNumber":66,"Velocity":38,"Duration":189368,"SoundDuration":189368,"Delta":258282301},{"NoteNumber":77,"Velocity":66,"Duration":99667,"SoundDuration":99667,"Delta":258481637},{"NoteNumber":63,"Velocity":38,"Duration":189368,"SoundDuration":189368,"Delta":258481637},{"NoteNumber":66,"Velocity":38,"Duration":189368,"SoundDuration":189368,"Delta":258481637},{"NoteNumber":70,"Velocity":65,"Duration":49833,"SoundDuration":49833,"Delta":258631139},{"NoteNumber":78,"Velocity":75,"Duration":602702,"SoundDuration":602702,"Delta":258680972},{"NoteNumber":58,"Velocity":44,"Duration":806092,"SoundDuration":806092,"Delta":258680972},{"NoteNumber":63,"Velocity":38,"Duration":189999,"SoundDuration":189999,"Delta":258883675},{"NoteNumber":66,"Velocity":38,"Duration":189999,"SoundDuration":189999,"Delta":258883675},{"NoteNumber":63,"Velocity":38,"Duration":189999,"SoundDuration":189999,"Delta":259083675},{"NoteNumber":66,"Velocity":38,"Duration":189999,"SoundDuration":189999,"Delta":259083675},{"NoteNumber":75,"Velocity":63,"Duration":203390,"SoundDuration":203390,"Delta":259283675},{"NoteNumber":63,"Velocity":38,"Duration":193220,"SoundDuration":193220,"Delta":259283675},{"NoteNumber":66,"Velocity":38,"Duration":193220,"SoundDuration":193220,"Delta":259283675},{"NoteNumber":70,"Velocity":60,"Duration":50847,"SoundDuration":50847,"Delta":259436217},{"NoteNumber":78,"Velocity":71,"Duration":603389,"SoundDuration":603389,"Delta":259487065},{"NoteNumber":58,"Velocity":44,"Duration":805409,"SoundDuration":805409,"Delta":259487065},{"NoteNumber":63,"Velocity":38,"Duration":189999,"SoundDuration":189999,"Delta":259690455},{"NoteNumber":66,"Velocity":38,"Duration":189999,"SoundDuration":189999,"Delta":259690455},{"NoteNumber":63,"Velocity":38,"Duration":189999,"SoundDuration":189999,"Delta":259890455},{"NoteNumber":66,"Velocity":38,"Duration":189999,"SoundDuration":189999,"Delta":259890455},{"NoteNumber":75,"Velocity":58,"Duration":202020,"SoundDuration":202020,"Delta":260090455},{"NoteNumber":63,"Velocity":38,"Duration":191918,"SoundDuration":191918,"Delta":260090455},{"NoteNumber":66,"Velocity":38,"Duration":191918,"SoundDuration":191918,"Delta":260090455},{"NoteNumber":72,"Velocity":60,"Duration":208333,"SoundDuration":208333,"Delta":260292475},{"NoteNumber":56,"Velocity":44,"Duration":794703,"SoundDuration":794703,"Delta":260292475},{"NoteNumber":44,"Velocity":57,"Duration":99010,"SoundDuration":99010,"Delta":260500808},{"NoteNumber":63,"Velocity":38,"Duration":188118,"SoundDuration":188118,"Delta":260500808},{"NoteNumber":66,"Velocity":38,"Duration":188118,"SoundDuration":188118,"Delta":260500808},{"NoteNumber":51,"Velocity":60,"Duration":97087,"SoundDuration":97087,"Delta":260698828},{"NoteNumber":63,"Velocity":38,"Duration":184466,"SoundDuration":184466,"Delta":260698828},{"NoteNumber":66,"Velocity":38,"Duration":184466,"SoundDuration":184466,"Delta":260698828},{"NoteNumber":53,"Velocity":63,"Duration":97087,"SoundDuration":97087,"Delta":260893003},{"NoteNumber":63,"Velocity":38,"Duration":184466,"SoundDuration":184466,"Delta":260893003},{"NoteNumber":66,"Velocity":38,"Duration":184466,"SoundDuration":184466,"Delta":260893003},{"NoteNumber":54,"Velocity":66,"Duration":102040,"SoundDuration":102040,"Delta":261087178},{"NoteNumber":56,"Velocity":44,"Duration":808162,"SoundDuration":808162,"Delta":261087178},{"NoteNumber":68,"Velocity":59,"Duration":204081,"SoundDuration":204081,"Delta":261291260},{"NoteNumber":63,"Velocity":38,"Duration":193877,"SoundDuration":193877,"Delta":261291260},{"NoteNumber":66,"Velocity":38,"Duration":193877,"SoundDuration":193877,"Delta":261291260},{"NoteNumber":78,"Velocity":62,"Duration":199999,"SoundDuration":199999,"Delta":261495341},{"NoteNumber":63,"Velocity":38,"Duration":189999,"SoundDuration":189999,"Delta":261495341},{"NoteNumber":66,"Velocity":38,"Duration":189999,"SoundDuration":189999,"Delta":261495341},{"NoteNumber":77,"Velocity":65,"Duration":199999,"SoundDuration":199999,"Delta":261695341},{"NoteNumber":63,"Velocity":38,"Duration":189999,"SoundDuration":189999,"Delta":261695341},{"NoteNumber":66,"Velocity":38,"Duration":189999,"SoundDuration":189999,"Delta":261695341},{"NoteNumber":77,"Velocity":60,"Duration":50847,"SoundDuration":50847,"Delta":261895341},{"NoteNumber":56,"Velocity":44,"Duration":813559,"SoundDuration":813559,"Delta":261895341},{"NoteNumber":78,"Velocity":60,"Duration":50847,"SoundDuration":50847,"Delta":261946189},{"NoteNumber":77,"Velocity":67,"Duration":101695,"SoundDuration":101695,"Delta":261997036},{"NoteNumber":75,"Velocity":60,"Duration":203390,"SoundDuration":203390,"Delta":262098731},{"NoteNumber":63,"Velocity":38,"Duration":193220,"SoundDuration":193220,"Delta":262098731},{"NoteNumber":66,"Velocity":38,"Duration":193220,"SoundDuration":193220,"Delta":262098731},{"NoteNumber":75,"Velocity":60,"Duration":50847,"SoundDuration":50847,"Delta":262302121},{"NoteNumber":63,"Velocity":38,"Duration":193220,"SoundDuration":193220,"Delta":262302121},{"NoteNumber":66,"Velocity":38,"Duration":193220,"SoundDuration":193220,"Delta":262302121},{"NoteNumber":77,"Velocity":60,"Duration":50847,"SoundDuration":50847,"Delta":262352969},{"NoteNumber":75,"Velocity":67,"Duration":101695,"SoundDuration":101695,"Delta":262403816},{"NoteNumber":73,"Velocity":60,"Duration":203390,"SoundDuration":203390,"Delta":262505511},{"NoteNumber":63,"Velocity":38,"Duration":193220,"SoundDuration":193220,"Delta":262505511},{"NoteNumber":66,"Velocity":38,"Duration":193220,"SoundDuration":193220,"Delta":262505511},{"NoteNumber":73,"Velocity":60,"Duration":50847,"SoundDuration":50847,"Delta":262708901},{"NoteNumber":56,"Velocity":44,"Duration":813559,"SoundDuration":813559,"Delta":262708901},{"NoteNumber":75,"Velocity":60,"Duration":50847,"SoundDuration":50847,"Delta":262759749},{"NoteNumber":73,"Velocity":66,"Duration":101695,"SoundDuration":101695,"Delta":262810596},{"NoteNumber":72,"Velocity":60,"Duration":203390,"SoundDuration":203390,"Delta":262912291},{"NoteNumber":63,"Velocity":38,"Duration":193220,"SoundDuration":193220,"Delta":262912291},{"NoteNumber":66,"Velocity":38,"Duration":193220,"SoundDuration":193220,"Delta":262912291},{"NoteNumber":70,"Velocity":60,"Duration":101695,"SoundDuration":101695,"Delta":263115681},{"NoteNumber":63,"Velocity":38,"Duration":193220,"SoundDuration":193220,"Delta":263115681},{"NoteNumber":66,"Velocity":38,"Duration":193220,"SoundDuration":193220,"Delta":263115681},{"NoteNumber":72,"Velocity":60,"Duration":101695,"SoundDuration":101695,"Delta":263319071},{"NoteNumber":63,"Velocity":38,"Duration":193220,"SoundDuration":193220,"Delta":263319071},{"NoteNumber":66,"Velocity":38,"Duration":193220,"SoundDuration":193220,"Delta":263319071},{"NoteNumber":73,"Velocity":60,"Duration":204777,"SoundDuration":204777,"Delta":263522461},{"NoteNumber":56,"Velocity":44,"Duration":798889,"SoundDuration":798889,"Delta":263522461},{"NoteNumber":44,"Velocity":55,"Duration":100334,"SoundDuration":100334,"Delta":263727239},{"NoteNumber":61,"Velocity":38,"Duration":190635,"SoundDuration":190635,"Delta":263727239},{"NoteNumber":65,"Velocity":38,"Duration":190635,"SoundDuration":190635,"Delta":263727239},{"NoteNumber":49,"Velocity":58,"Duration":98360,"SoundDuration":98360,"Delta":263927908},{"NoteNumber":61,"Velocity":38,"Duration":186885,"SoundDuration":186885,"Delta":263927908},{"NoteNumber":65,"Velocity":38,"Duration":186885,"SoundDuration":186885,"Delta":263927908},{"NoteNumber":51,"Velocity":61,"Duration":98360,"SoundDuration":98360,"Delta":264124630},{"NoteNumber":61,"Velocity":38,"Duration":186885,"SoundDuration":186885,"Delta":264124630},{"NoteNumber":65,"Velocity":38,"Duration":186885,"SoundDuration":186885,"Delta":264124630},{"NoteNumber":53,"Velocity":64,"Duration":102040,"SoundDuration":102040,"Delta":264321351},{"NoteNumber":56,"Velocity":44,"Duration":806833,"SoundDuration":806833,"Delta":264321351},{"NoteNumber":68,"Velocity":62,"Duration":102040,"SoundDuration":102040,"Delta":264525433},{"NoteNumber":61,"Velocity":38,"Duration":193877,"SoundDuration":193877,"Delta":264525433},{"NoteNumber":65,"Velocity":38,"Duration":193877,"SoundDuration":193877,"Delta":264525433},{"NoteNumber":73,"Velocity":64,"Duration":99667,"SoundDuration":99667,"Delta":264729514},{"NoteNumber":61,"Velocity":38,"Duration":189368,"SoundDuration":189368,"Delta":264729514},{"NoteNumber":65,"Velocity":38,"Duration":189368,"SoundDuration":189368,"Delta":264729514},{"NoteNumber":75,"Velocity":66,"Duration":99667,"SoundDuration":99667,"Delta":264928850},{"NoteNumber":61,"Velocity":38,"Duration":189368,"SoundDuration":189368,"Delta":264928850},{"NoteNumber":65,"Velocity":38,"Duration":189368,"SoundDuration":189368,"Delta":264928850},{"NoteNumber":68,"Velocity":65,"Duration":49833,"SoundDuration":49833,"Delta":265078352},{"NoteNumber":77,"Velocity":75,"Duration":602702,"SoundDuration":602702,"Delta":265128185},{"NoteNumber":56,"Velocity":44,"Duration":806092,"SoundDuration":806092,"Delta":265128185},{"NoteNumber":61,"Velocity":38,"Duration":189999,"SoundDuration":189999,"Delta":265330888},{"NoteNumber":65,"Velocity":38,"Duration":189999,"SoundDuration":189999,"Delta":265330888},{"NoteNumber":61,"Velocity":38,"Duration":189999,"SoundDuration":189999,"Delta":265530888},{"NoteNumber":65,"Velocity":38,"Duration":189999,"SoundDuration":189999,"Delta":265530888},{"NoteNumber":73,"Velocity":63,"Duration":203390,"SoundDuration":203390,"Delta":265730888},{"NoteNumber":61,"Velocity":38,"Duration":193220,"SoundDuration":193220,"Delta":265730888},{"NoteNumber":65,"Velocity":38,"Duration":193220,"SoundDuration":193220,"Delta":265730888},{"NoteNumber":68,"Velocity":60,"Duration":50847,"SoundDuration":50847,"Delta":265883430},{"NoteNumber":77,"Velocity":71,"Duration":603389,"SoundDuration":603389,"Delta":265934278},{"NoteNumber":56,"Velocity":44,"Duration":805409,"SoundDuration":805409,"Delta":265934278},{"NoteNumber":61,"Velocity":38,"Duration":189999,"SoundDuration":189999,"Delta":266137668},{"NoteNumber":65,"Velocity":38,"Duration":189999,"SoundDuration":189999,"Delta":266137668},{"NoteNumber":61,"Velocity":38,"Duration":189999,"SoundDuration":189999,"Delta":266337668},{"NoteNumber":65,"Velocity":38,"Duration":189999,"SoundDuration":189999,"Delta":266337668},{"NoteNumber":73,"Velocity":58,"Duration":202020,"SoundDuration":202020,"Delta":266537668},{"NoteNumber":61,"Velocity":38,"Duration":191918,"SoundDuration":191918,"Delta":266537668},{"NoteNumber":65,"Velocity":38,"Duration":191918,"SoundDuration":191918,"Delta":266537668},{"NoteNumber":72,"Velocity":60,"Duration":206896,"SoundDuration":206896,"Delta":266739688},{"NoteNumber":56,"Velocity":44,"Duration":795182,"SoundDuration":795182,"Delta":266739688},{"NoteNumber":44,"Velocity":57,"Duration":99337,"SoundDuration":99337,"Delta":266946584},{"NoteNumber":63,"Velocity":38,"Duration":188741,"SoundDuration":188741,"Delta":266946584},{"NoteNumber":66,"Velocity":38,"Duration":188741,"SoundDuration":188741,"Delta":266946584},{"NoteNumber":51,"Velocity":60,"Duration":97402,"SoundDuration":97402,"Delta":267145260},{"NoteNumber":63,"Velocity":38,"Duration":185064,"SoundDuration":185064,"Delta":267145260},{"NoteNumber":66,"Velocity":38,"Duration":185064,"SoundDuration":185064,"Delta":267145260},{"NoteNumber":53,"Velocity":63,"Duration":97402,"SoundDuration":97402,"Delta":267340065},{"NoteNumber":63,"Velocity":38,"Duration":185064,"SoundDuration":185064,"Delta":267340065},{"NoteNumber":66,"Velocity":38,"Duration":185064,"SoundDuration":185064,"Delta":267340065},{"NoteNumber":54,"Velocity":66,"Duration":102040,"SoundDuration":102040,"Delta":267534870},{"NoteNumber":56,"Velocity":44,"Duration":808162,"SoundDuration":808162,"Delta":267534870},{"NoteNumber":68,"Velocity":59,"Duration":204081,"SoundDuration":204081,"Delta":267738951},{"NoteNumber":63,"Velocity":38,"Duration":193877,"SoundDuration":193877,"Delta":267738951},{"NoteNumber":66,"Velocity":38,"Duration":193877,"SoundDuration":193877,"Delta":267738951},{"NoteNumber":78,"Velocity":62,"Duration":199999,"SoundDuration":199999,"Delta":267943033},{"NoteNumber":63,"Velocity":38,"Duration":189999,"SoundDuration":189999,"Delta":267943033},{"NoteNumber":66,"Velocity":38,"Duration":189999,"SoundDuration":189999,"Delta":267943033},{"NoteNumber":77,"Velocity":65,"Duration":199999,"SoundDuration":199999,"Delta":268143033},{"NoteNumber":63,"Velocity":38,"Duration":189999,"SoundDuration":189999,"Delta":268143033},{"NoteNumber":66,"Velocity":38,"Duration":189999,"SoundDuration":189999,"Delta":268143033},{"NoteNumber":77,"Velocity":60,"Duration":50847,"SoundDuration":50847,"Delta":268343033},{"NoteNumber":56,"Velocity":44,"Duration":813559,"SoundDuration":813559,"Delta":268343033},{"NoteNumber":78,"Velocity":60,"Duration":50847,"SoundDuration":50847,"Delta":268393880},{"NoteNumber":77,"Velocity":67,"Duration":101695,"SoundDuration":101695,"Delta":268444728},{"NoteNumber":75,"Velocity":60,"Duration":203390,"SoundDuration":203390,"Delta":268546423},{"NoteNumber":63,"Velocity":38,"Duration":193220,"SoundDuration":193220,"Delta":268546423},{"NoteNumber":66,"Velocity":38,"Duration":193220,"SoundDuration":193220,"Delta":268546423},{"NoteNumber":75,"Velocity":60,"Duration":50847,"SoundDuration":50847,"Delta":268749813},{"NoteNumber":63,"Velocity":38,"Duration":193220,"SoundDuration":193220,"Delta":268749813},{"NoteNumber":66,"Velocity":38,"Duration":193220,"SoundDuration":193220,"Delta":268749813},{"NoteNumber":77,"Velocity":60,"Duration":50847,"SoundDuration":50847,"Delta":268800660},{"NoteNumber":75,"Velocity":67,"Duration":101695,"SoundDuration":101695,"Delta":268851508},{"NoteNumber":73,"Velocity":60,"Duration":203390,"SoundDuration":203390,"Delta":268953203},{"NoteNumber":63,"Velocity":38,"Duration":193220,"SoundDuration":193220,"Delta":268953203},{"NoteNumber":66,"Velocity":38,"Duration":193220,"SoundDuration":193220,"Delta":268953203},{"NoteNumber":73,"Velocity":60,"Duration":50847,"SoundDuration":50847,"Delta":269156593},{"NoteNumber":56,"Velocity":44,"Duration":813559,"SoundDuration":813559,"Delta":269156593},{"NoteNumber":75,"Velocity":60,"Duration":50847,"SoundDuration":50847,"Delta":269207440},{"NoteNumber":73,"Velocity":66,"Duration":101695,"SoundDuration":101695,"Delta":269258288},{"NoteNumber":72,"Velocity":60,"Duration":203390,"SoundDuration":203390,"Delta":269359983},{"NoteNumber":63,"Velocity":38,"Duration":193220,"SoundDuration":193220,"Delta":269359983},{"NoteNumber":66,"Velocity":38,"Duration":193220,"SoundDuration":193220,"Delta":269359983},{"NoteNumber":70,"Velocity":60,"Duration":101695,"SoundDuration":101695,"Delta":269563373},{"NoteNumber":63,"Velocity":38,"Duration":193220,"SoundDuration":193220,"Delta":269563373},{"NoteNumber":66,"Velocity":38,"Duration":193220,"SoundDuration":193220,"Delta":269563373},{"NoteNumber":72,"Velocity":57,"Duration":101695,"SoundDuration":101695,"Delta":269766763},{"NoteNumber":63,"Velocity":38,"Duration":193220,"SoundDuration":193220,"Delta":269766763},{"NoteNumber":66,"Velocity":38,"Duration":193220,"SoundDuration":193220,"Delta":269766763},{"NoteNumber":73,"Velocity":60,"Duration":204777,"SoundDuration":204777,"Delta":269970153},{"NoteNumber":61,"Velocity":54,"Duration":404777,"SoundDuration":404777,"Delta":269970153},{"NoteNumber":49,"Velocity":73,"Duration":199999,"SoundDuration":199999,"Delta":270174931},{"NoteNumber":65,"Velocity":53,"Duration":199999,"SoundDuration":199999,"Delta":270174931},{"NoteNumber":68,"Velocity":53,"Duration":199999,"SoundDuration":199999,"Delta":270174931},{"NoteNumber":56,"Velocity":77,"Duration":197368,"SoundDuration":197368,"Delta":270374931},{"NoteNumber":59,"Velocity":60,"Duration":402848,"SoundDuration":402848,"Delta":270374931},{"NoteNumber":47,"Velocity":73,"Duration":102739,"SoundDuration":102739,"Delta":270572299},{"NoteNumber":65,"Velocity":53,"Duration":205479,"SoundDuration":205479,"Delta":270572299},{"NoteNumber":68,"Velocity":53,"Duration":205479,"SoundDuration":205479,"Delta":270572299},{"NoteNumber":46,"Velocity":77,"Duration":102739,"SoundDuration":102739,"Delta":270777779},{"NoteNumber":58,"Velocity":53,"Duration":810958,"SoundDuration":810958,"Delta":270777779},{"NoteNumber":70,"Velocity":59,"Duration":205479,"SoundDuration":205479,"Delta":270983258},{"NoteNumber":65,"Velocity":38,"Duration":195205,"SoundDuration":195205,"Delta":270983258},{"NoteNumber":68,"Velocity":38,"Duration":195205,"SoundDuration":195205,"Delta":270983258},{"NoteNumber":80,"Velocity":62,"Duration":199999,"SoundDuration":199999,"Delta":271188738},{"NoteNumber":65,"Velocity":38,"Duration":189999,"SoundDuration":189999,"Delta":271188738},{"NoteNumber":68,"Velocity":38,"Duration":189999,"SoundDuration":189999,"Delta":271188738},{"NoteNumber":78,"Velocity":65,"Duration":199999,"SoundDuration":199999,"Delta":271388738},{"NoteNumber":65,"Velocity":38,"Duration":189999,"SoundDuration":189999,"Delta":271388738},{"NoteNumber":68,"Velocity":38,"Duration":189999,"SoundDuration":189999,"Delta":271388738},{"NoteNumber":78,"Velocity":60,"Duration":50847,"SoundDuration":50847,"Delta":271588738},{"NoteNumber":58,"Velocity":44,"Duration":813559,"SoundDuration":813559,"Delta":271588738},{"NoteNumber":80,"Velocity":60,"Duration":50847,"SoundDuration":50847,"Delta":271639585},{"NoteNumber":78,"Velocity":67,"Duration":101695,"SoundDuration":101695,"Delta":271690433},{"NoteNumber":77,"Velocity":60,"Duration":203390,"SoundDuration":203390,"Delta":271792128},{"NoteNumber":65,"Velocity":38,"Duration":193220,"SoundDuration":193220,"Delta":271792128},{"NoteNumber":68,"Velocity":38,"Duration":193220,"SoundDuration":193220,"Delta":271792128},{"NoteNumber":77,"Velocity":60,"Duration":50847,"SoundDuration":50847,"Delta":271995518},{"NoteNumber":65,"Velocity":38,"Duration":193220,"SoundDuration":193220,"Delta":271995518},{"NoteNumber":68,"Velocity":38,"Duration":193220,"SoundDuration":193220,"Delta":271995518},{"NoteNumber":78,"Velocity":60,"Duration":50847,"SoundDuration":50847,"Delta":272046365},{"NoteNumber":77,"Velocity":67,"Duration":101695,"SoundDuration":101695,"Delta":272097213},{"NoteNumber":75,"Velocity":60,"Duration":203390,"SoundDuration":203390,"Delta":272198908},{"NoteNumber":65,"Velocity":38,"Duration":193220,"SoundDuration":193220,"Delta":272198908},{"NoteNumber":68,"Velocity":38,"Duration":193220,"SoundDuration":193220,"Delta":272198908},{"NoteNumber":75,"Velocity":60,"Duration":50847,"SoundDuration":50847,"Delta":272402298},{"NoteNumber":58,"Velocity":44,"Duration":813559,"SoundDuration":813559,"Delta":272402298},{"NoteNumber":77,"Velocity":60,"Duration":50847,"SoundDuration":50847,"Delta":272453145},{"NoteNumber":75,"Velocity":66,"Duration":101695,"SoundDuration":101695,"Delta":272503993},{"NoteNumber":74,"Velocity":60,"Duration":203390,"SoundDuration":203390,"Delta":272605688},{"NoteNumber":65,"Velocity":38,"Duration":193220,"SoundDuration":193220,"Delta":272605688},{"NoteNumber":68,"Velocity":38,"Duration":193220,"SoundDuration":193220,"Delta":272605688},{"NoteNumber":72,"Velocity":60,"Duration":101695,"SoundDuration":101695,"Delta":272809078},{"NoteNumber":65,"Velocity":38,"Duration":193220,"SoundDuration":193220,"Delta":272809078},{"NoteNumber":68,"Velocity":38,"Duration":193220,"SoundDuration":193220,"Delta":272809078},{"NoteNumber":74,"Velocity":57,"Duration":101695,"SoundDuration":101695,"Delta":273012468},{"NoteNumber":65,"Velocity":38,"Duration":193220,"SoundDuration":193220,"Delta":273012468},{"NoteNumber":68,"Velocity":38,"Duration":193220,"SoundDuration":193220,"Delta":273012468},{"NoteNumber":75,"Velocity":60,"Duration":209789,"SoundDuration":209789,"Delta":273215858},{"NoteNumber":63,"Velocity":54,"Duration":411132,"SoundDuration":411132,"Delta":273215858},{"NoteNumber":51,"Velocity":73,"Duration":201342,"SoundDuration":201342,"Delta":273425648},{"NoteNumber":66,"Velocity":53,"Duration":201342,"SoundDuration":201342,"Delta":273425648},{"NoteNumber":70,"Velocity":53,"Duration":201342,"SoundDuration":201342,"Delta":273425648},{"NoteNumber":58,"Velocity":77,"Duration":198019,"SoundDuration":198019,"Delta":273626990},{"NoteNumber":61,"Velocity":60,"Duration":403499,"SoundDuration":403499,"Delta":273626990},{"NoteNumber":49,"Velocity":73,"Duration":102739,"SoundDuration":102739,"Delta":273825010},{"NoteNumber":65,"Velocity":53,"Duration":205479,"SoundDuration":205479,"Delta":273825010},{"NoteNumber":70,"Velocity":53,"Duration":205479,"SoundDuration":205479,"Delta":273825010},{"NoteNumber":48,"Velocity":77,"Duration":102739,"SoundDuration":102739,"Delta":274030490},{"NoteNumber":60,"Velocity":53,"Duration":810958,"SoundDuration":810958,"Delta":274030490},{"NoteNumber":72,"Velocity":59,"Duration":205479,"SoundDuration":205479,"Delta":274235969},{"NoteNumber":67,"Velocity":38,"Duration":195205,"SoundDuration":195205,"Delta":274235969},{"NoteNumber":70,"Velocity":38,"Duration":195205,"SoundDuration":195205,"Delta":274235969},{"NoteNumber":82,"Velocity":62,"Duration":199999,"SoundDuration":199999,"Delta":274441449},{"NoteNumber":67,"Velocity":38,"Duration":189999,"SoundDuration":189999,"Delta":274441449},{"NoteNumber":70,"Velocity":38,"Duration":189999,"SoundDuration":189999,"Delta":274441449},{"NoteNumber":80,"Velocity":65,"Duration":199999,"SoundDuration":199999,"Delta":274641449},{"NoteNumber":67,"Velocity":38,"Duration":189999,"SoundDuration":189999,"Delta":274641449},{"NoteNumber":70,"Velocity":38,"Duration":189999,"SoundDuration":189999,"Delta":274641449},{"NoteNumber":80,"Velocity":60,"Duration":50847,"SoundDuration":50847,"Delta":274841449},{"NoteNumber":60,"Velocity":44,"Duration":813559,"SoundDuration":813559,"Delta":274841449},{"NoteNumber":82,"Velocity":60,"Duration":50847,"SoundDuration":50847,"Delta":274892296},{"NoteNumber":80,"Velocity":67,"Duration":101695,"SoundDuration":101695,"Delta":274943144},{"NoteNumber":79,"Velocity":60,"Duration":203390,"SoundDuration":203390,"Delta":275044839},{"NoteNumber":67,"Velocity":38,"Duration":193220,"SoundDuration":193220,"Delta":275044839},{"NoteNumber":70,"Velocity":38,"Duration":193220,"SoundDuration":193220,"Delta":275044839},{"NoteNumber":79,"Velocity":60,"Duration":50847,"SoundDuration":50847,"Delta":275248229},{"NoteNumber":67,"Velocity":38,"Duration":193220,"SoundDuration":193220,"Delta":275248229},{"NoteNumber":70,"Velocity":38,"Duration":193220,"SoundDuration":193220,"Delta":275248229},{"NoteNumber":80,"Velocity":60,"Duration":50847,"SoundDuration":50847,"Delta":275299076},{"NoteNumber":79,"Velocity":67,"Duration":101695,"SoundDuration":101695,"Delta":275349924},{"NoteNumber":77,"Velocity":60,"Duration":203390,"SoundDuration":203390,"Delta":275451619},{"NoteNumber":67,"Velocity":38,"Duration":193220,"SoundDuration":193220,"Delta":275451619},{"NoteNumber":70,"Velocity":38,"Duration":193220,"SoundDuration":193220,"Delta":275451619},{"NoteNumber":77,"Velocity":60,"Duration":50847,"SoundDuration":50847,"Delta":275655009},{"NoteNumber":60,"Velocity":44,"Duration":813559,"SoundDuration":813559,"Delta":275655009},{"NoteNumber":79,"Velocity":60,"Duration":50847,"SoundDuration":50847,"Delta":275705856},{"NoteNumber":77,"Velocity":66,"Duration":101695,"SoundDuration":101695,"Delta":275756704},{"NoteNumber":76,"Velocity":60,"Duration":203390,"SoundDuration":203390,"Delta":275858399},{"NoteNumber":67,"Velocity":38,"Duration":193220,"SoundDuration":193220,"Delta":275858399},{"NoteNumber":70,"Velocity":38,"Duration":193220,"SoundDuration":193220,"Delta":275858399},{"NoteNumber":74,"Velocity":60,"Duration":203389,"SoundDuration":203389,"Delta":276061789},{"NoteNumber":67,"Velocity":38,"Duration":193220,"SoundDuration":193220,"Delta":276061789},{"NoteNumber":70,"Velocity":38,"Duration":193220,"SoundDuration":193220,"Delta":276061789},{"NoteNumber":76,"Velocity":57,"Duration":203390,"SoundDuration":203390,"Delta":276265179},{"NoteNumber":67,"Velocity":38,"Duration":193220,"SoundDuration":193220,"Delta":276265179},{"NoteNumber":70,"Velocity":38,"Duration":193220,"SoundDuration":193220,"Delta":276265179},{"NoteNumber":79,"Velocity":60,"Duration":50847,"SoundDuration":50847,"Delta":276468569},{"NoteNumber":65,"Velocity":44,"Duration":813559,"SoundDuration":813559,"Delta":276468569},{"NoteNumber":80,"Velocity":60,"Duration":50847,"SoundDuration":50847,"Delta":276519416},{"NoteNumber":79,"Velocity":67,"Duration":101695,"SoundDuration":101695,"Delta":276570264},{"NoteNumber":77,"Velocity":60,"Duration":203390,"SoundDuration":203390,"Delta":276671959},{"NoteNumber":68,"Velocity":38,"Duration":193220,"SoundDuration":193220,"Delta":276671959},{"NoteNumber":72,"Velocity":38,"Duration":193220,"SoundDuration":193220,"Delta":276671959},{"NoteNumber":77,"Velocity":60,"Duration":50847,"SoundDuration":50847,"Delta":276875349},{"NoteNumber":68,"Velocity":38,"Duration":193220,"SoundDuration":193220,"Delta":276875349},{"NoteNumber":72,"Velocity":38,"Duration":193220,"SoundDuration":193220,"Delta":276875349},{"NoteNumber":79,"Velocity":60,"Duration":50847,"SoundDuration":50847,"Delta":276926196},{"NoteNumber":77,"Velocity":67,"Duration":101695,"SoundDuration":101695,"Delta":276977044},{"NoteNumber":75,"Velocity":60,"Duration":203390,"SoundDuration":203390,"Delta":277078739},{"NoteNumber":68,"Velocity":38,"Duration":193220,"SoundDuration":193220,"Delta":277078739},{"NoteNumber":72,"Velocity":38,"Duration":193220,"SoundDuration":193220,"Delta":277078739},{"NoteNumber":75,"Velocity":60,"Duration":50847,"SoundDuration":50847,"Delta":277282129},{"NoteNumber":58,"Velocity":44,"Duration":406780,"SoundDuration":406780,"Delta":277282129},{"NoteNumber":77,"Velocity":60,"Duration":50847,"SoundDuration":50847,"Delta":277332976},{"NoteNumber":75,"Velocity":66,"Duration":101695,"SoundDuration":101695,"Delta":277383824},{"NoteNumber":74,"Velocity":60,"Duration":203390,"SoundDuration":203390,"Delta":277485519},{"NoteNumber":65,"Velocity":38,"Duration":193220,"SoundDuration":193220,"Delta":277485519},{"NoteNumber":68,"Velocity":38,"Duration":193220,"SoundDuration":193220,"Delta":277485519},{"NoteNumber":72,"Velocity":60,"Duration":203389,"SoundDuration":203389,"Delta":277688909},{"NoteNumber":59,"Velocity":44,"Duration":406779,"SoundDuration":406779,"Delta":277688909},{"NoteNumber":65,"Velocity":38,"Duration":193220,"SoundDuration":193220,"Delta":277688909},{"NoteNumber":68,"Velocity":38,"Duration":193220,"SoundDuration":193220,"Delta":277688909},{"NoteNumber":74,"Velocity":57,"Duration":203390,"SoundDuration":203390,"Delta":277892299},{"NoteNumber":65,"Velocity":38,"Duration":193220,"SoundDuration":193220,"Delta":277892299},{"NoteNumber":68,"Velocity":38,"Duration":193220,"SoundDuration":193220,"Delta":277892299},{"NoteNumber":77,"Velocity":60,"Duration":50847,"SoundDuration":50847,"Delta":278095689},{"NoteNumber":60,"Velocity":44,"Duration":813559,"SoundDuration":813559,"Delta":278095689},{"NoteNumber":79,"Velocity":60,"Duration":50847,"SoundDuration":50847,"Delta":278146536},{"NoteNumber":77,"Velocity":67,"Duration":101695,"SoundDuration":101695,"Delta":278197384},{"NoteNumber":75,"Velocity":59,"Duration":203390,"SoundDuration":203390,"Delta":278299079},{"NoteNumber":63,"Velocity":37,"Duration":193220,"SoundDuration":193220,"Delta":278299079},{"NoteNumber":67,"Velocity":37,"Duration":193220,"SoundDuration":193220,"Delta":278299079},{"NoteNumber":75,"Velocity":58,"Duration":50847,"SoundDuration":50847,"Delta":278502469},{"NoteNumber":63,"Velocity":36,"Duration":193220,"SoundDuration":193220,"Delta":278502469},{"NoteNumber":67,"Velocity":36,"Duration":193220,"SoundDuration":193220,"Delta":278502469},{"NoteNumber":77,"Velocity":58,"Duration":50847,"SoundDuration":50847,"Delta":278553316},{"NoteNumber":75,"Velocity":64,"Duration":101695,"SoundDuration":101695,"Delta":278604164},{"NoteNumber":74,"Velocity":57,"Duration":203390,"SoundDuration":203390,"Delta":278705859},{"NoteNumber":63,"Velocity":36,"Duration":193220,"SoundDuration":193220,"Delta":278705859},{"NoteNumber":67,"Velocity":36,"Duration":193220,"SoundDuration":193220,"Delta":278705859},{"NoteNumber":74,"Velocity":56,"Duration":50847,"SoundDuration":50847,"Delta":278909249},{"NoteNumber":56,"Velocity":41,"Duration":821243,"SoundDuration":821243,"Delta":278909249},{"NoteNumber":75,"Velocity":55,"Duration":50847,"SoundDuration":50847,"Delta":278960096},{"NoteNumber":74,"Velocity":61,"Duration":101637,"SoundDuration":101637,"Delta":279010944},{"NoteNumber":72,"Velocity":55,"Duration":203622,"SoundDuration":203622,"Delta":279112582},{"NoteNumber":63,"Velocity":34,"Duration":193383,"SoundDuration":193383,"Delta":279112582},{"NoteNumber":65,"Velocity":34,"Duration":193383,"SoundDuration":193383,"Delta":279112582},{"NoteNumber":72,"Velocity":54,"Duration":51252,"SoundDuration":51252,"Delta":279316204},{"NoteNumber":63,"Velocity":34,"Duration":195607,"SoundDuration":195607,"Delta":279316204},{"NoteNumber":65,"Velocity":34,"Duration":195607,"SoundDuration":195607,"Delta":279316204},{"NoteNumber":74,"Velocity":54,"Duration":51428,"SoundDuration":51428,"Delta":279367457},{"NoteNumber":72,"Velocity":59,"Duration":103270,"SoundDuration":103270,"Delta":279418886},{"NoteNumber":71,"Velocity":53,"Duration":208336,"SoundDuration":208336,"Delta":279522156},{"NoteNumber":63,"Velocity":33,"Duration":197846,"SoundDuration":197846,"Delta":279522156},{"NoteNumber":65,"Velocity":33,"Duration":197846,"SoundDuration":197846,"Delta":279522156},{"NoteNumber":72,"Velocity":52,"Duration":53191,"SoundDuration":53191,"Delta":279730492},{"NoteNumber":58,"Velocity":38,"Duration":851064,"SoundDuration":851064,"Delta":279730492},{"NoteNumber":74,"Velocity":52,"Duration":53191,"SoundDuration":53191,"Delta":279783684},{"NoteNumber":72,"Velocity":56,"Duration":106382,"SoundDuration":106382,"Delta":279836875},{"NoteNumber":70,"Velocity":51,"Duration":212765,"SoundDuration":212765,"Delta":279943258},{"NoteNumber":63,"Velocity":32,"Duration":202127,"SoundDuration":202127,"Delta":279943258},{"NoteNumber":67,"Velocity":32,"Duration":202127,"SoundDuration":202127,"Delta":279943258},{"NoteNumber":70,"Velocity":50,"Duration":79787,"SoundDuration":79787,"Delta":280156024},{"NoteNumber":63,"Velocity":31,"Duration":202127,"SoundDuration":202127,"Delta":280156024},{"NoteNumber":67,"Velocity":31,"Duration":202127,"SoundDuration":202127,"Delta":280156024},{"NoteNumber":70,"Velocity":46,"Duration":79787,"SoundDuration":79787,"Delta":280368790},{"NoteNumber":63,"Velocity":31,"Duration":202127,"SoundDuration":202127,"Delta":280368790},{"NoteNumber":67,"Velocity":31,"Duration":202127,"SoundDuration":202127,"Delta":280368790},{"NoteNumber":72,"Velocity":37,"Duration":55146,"SoundDuration":55146,"Delta":280581556},{"NoteNumber":58,"Velocity":27,"Duration":882352,"SoundDuration":882352,"Delta":280581556},{"NoteNumber":74,"Velocity":37,"Duration":55147,"SoundDuration":55147,"Delta":280636703},{"NoteNumber":72,"Velocity":41,"Duration":110294,"SoundDuration":110294,"Delta":280691850},{"NoteNumber":70,"Velocity":37,"Duration":220587,"SoundDuration":220587,"Delta":280802144},{"NoteNumber":62,"Velocity":23,"Duration":209558,"SoundDuration":209558,"Delta":280802144},{"NoteNumber":65,"Velocity":23,"Duration":209558,"SoundDuration":209558,"Delta":280802144},{"NoteNumber":70,"Velocity":37,"Duration":82720,"SoundDuration":82720,"Delta":281022732},{"NoteNumber":62,"Velocity":23,"Duration":209558,"SoundDuration":209558,"Delta":281022732},{"NoteNumber":65,"Velocity":23,"Duration":209558,"SoundDuration":209558,"Delta":281022732},{"NoteNumber":70,"Velocity":35,"Duration":82720,"SoundDuration":82720,"Delta":281243320},{"NoteNumber":62,"Velocity":23,"Duration":209558,"SoundDuration":209558,"Delta":281243320},{"NoteNumber":65,"Velocity":23,"Duration":209558,"SoundDuration":209558,"Delta":281243320},{"NoteNumber":51,"Velocity":36,"Duration":1254519,"SoundDuration":1254519,"Delta":281463908},{"NoteNumber":63,"Velocity":25,"Duration":110294,"SoundDuration":110294,"Delta":281574202},{"NoteNumber":58,"Velocity":24,"Duration":110294,"SoundDuration":110294,"Delta":281574202},{"NoteNumber":67,"Velocity":29,"Duration":104529,"SoundDuration":104529,"Delta":281684496},{"NoteNumber":55,"Velocity":26,"Duration":104529,"SoundDuration":104529,"Delta":281684496},{"NoteNumber":63,"Velocity":29,"Duration":104287,"SoundDuration":104287,"Delta":281789026},{"NoteNumber":58,"Velocity":24,"Duration":104287,"SoundDuration":104287,"Delta":281789026},{"NoteNumber":75,"Velocity":45,"Duration":825114,"SoundDuration":825114,"Delta":281893314},{"NoteNumber":55,"Velocity":32,"Duration":103986,"SoundDuration":103986,"Delta":281893314},{"NoteNumber":63,"Velocity":28,"Duration":103686,"SoundDuration":103686,"Delta":281997300},{"NoteNumber":58,"Velocity":25,"Duration":103686,"SoundDuration":103686,"Delta":281997300},{"NoteNumber":67,"Velocity":30,"Duration":103388,"SoundDuration":103388,"Delta":282100987},{"NoteNumber":55,"Velocity":28,"Duration":103388,"SoundDuration":103388,"Delta":282100987},{"NoteNumber":63,"Velocity":28,"Duration":103092,"SoundDuration":103092,"Delta":282204376},{"NoteNumber":58,"Velocity":26,"Duration":103092,"SoundDuration":103092,"Delta":282204376},{"NoteNumber":67,"Velocity":31,"Duration":102739,"SoundDuration":102739,"Delta":282307469},{"NoteNumber":55,"Velocity":34,"Duration":102739,"SoundDuration":102739,"Delta":282307469},{"NoteNumber":63,"Velocity":30,"Duration":102739,"SoundDuration":102739,"Delta":282410208},{"NoteNumber":58,"Velocity":26,"Duration":102739,"SoundDuration":102739,"Delta":282410208},{"NoteNumber":67,"Velocity":32,"Duration":102739,"SoundDuration":102739,"Delta":282512948},{"NoteNumber":55,"Velocity":29,"Duration":102739,"SoundDuration":102739,"Delta":282512948},{"NoteNumber":63,"Velocity":29,"Duration":102739,"SoundDuration":102739,"Delta":282615688},{"NoteNumber":58,"Velocity":26,"Duration":102739,"SoundDuration":102739,"Delta":282615688},{"NoteNumber":75,"Velocity":50,"Duration":410958,"SoundDuration":410958,"Delta":282718428},{"NoteNumber":51,"Velocity":36,"Duration":410958,"SoundDuration":410958,"Delta":282718428},{"NoteNumber":63,"Velocity":30,"Duration":102739,"SoundDuration":102739,"Delta":282821167},{"NoteNumber":58,"Velocity":28,"Duration":102739,"SoundDuration":102739,"Delta":282821167},{"NoteNumber":67,"Velocity":33,"Duration":102739,"SoundDuration":102739,"Delta":282923907},{"NoteNumber":55,"Velocity":32,"Duration":102739,"SoundDuration":102739,"Delta":282923907},{"NoteNumber":63,"Velocity":32,"Duration":102739,"SoundDuration":102739,"Delta":283026647},{"NoteNumber":58,"Velocity":28,"Duration":102739,"SoundDuration":102739,"Delta":283026647},{"NoteNumber":49,"Velocity":45,"Duration":1259341,"SoundDuration":1259341,"Delta":283129387},{"NoteNumber":63,"Velocity":32,"Duration":111346,"SoundDuration":111346,"Delta":283242169},{"NoteNumber":58,"Velocity":30,"Duration":111346,"SoundDuration":111346,"Delta":283242169},{"NoteNumber":67,"Velocity":36,"Duration":104166,"SoundDuration":104166,"Delta":283353515},{"NoteNumber":55,"Velocity":32,"Duration":104166,"SoundDuration":104166,"Delta":283353515},{"NoteNumber":63,"Velocity":35,"Duration":104166,"SoundDuration":104166,"Delta":283457682},{"NoteNumber":58,"Velocity":29,"Duration":104166,"SoundDuration":104166,"Delta":283457682},{"NoteNumber":75,"Velocity":54,"Duration":826880,"SoundDuration":826880,"Delta":283561848},{"NoteNumber":55,"Velocity":38,"Duration":103806,"SoundDuration":103806,"Delta":283561848},{"NoteNumber":63,"Velocity":33,"Duration":103806,"SoundDuration":103806,"Delta":283665655},{"NoteNumber":58,"Velocity":30,"Duration":103806,"SoundDuration":103806,"Delta":283665655},{"NoteNumber":67,"Velocity":35,"Duration":103448,"SoundDuration":103448,"Delta":283769461},{"NoteNumber":55,"Velocity":33,"Duration":103448,"SoundDuration":103448,"Delta":283769461},{"NoteNumber":63,"Velocity":32,"Duration":103448,"SoundDuration":103448,"Delta":283872909},{"NoteNumber":58,"Velocity":30,"Duration":103448,"SoundDuration":103448,"Delta":283872909},{"NoteNumber":67,"Velocity":35,"Duration":103092,"SoundDuration":103092,"Delta":283976357},{"NoteNumber":55,"Velocity":38,"Duration":103092,"SoundDuration":103092,"Delta":283976357},{"NoteNumber":63,"Velocity":33,"Duration":103092,"SoundDuration":103092,"Delta":284079450},{"NoteNumber":58,"Velocity":29,"Duration":103092,"SoundDuration":103092,"Delta":284079450},{"NoteNumber":67,"Velocity":35,"Duration":103092,"SoundDuration":103092,"Delta":284182543},{"NoteNumber":55,"Velocity":32,"Duration":103092,"SoundDuration":103092,"Delta":284182543},{"NoteNumber":63,"Velocity":32,"Duration":103092,"SoundDuration":103092,"Delta":284285636},{"NoteNumber":58,"Velocity":29,"Duration":103092,"SoundDuration":103092,"Delta":284285636},{"NoteNumber":75,"Velocity":53,"Duration":420802,"SoundDuration":420802,"Delta":284388728},{"NoteNumber":49,"Velocity":38,"Duration":420802,"SoundDuration":420802,"Delta":284388728},{"NoteNumber":63,"Velocity":32,"Duration":103092,"SoundDuration":103092,"Delta":284491821},{"NoteNumber":58,"Velocity":30,"Duration":103092,"SoundDuration":103092,"Delta":284491821},{"NoteNumber":67,"Velocity":35,"Duration":103092,"SoundDuration":103092,"Delta":284594914},{"NoteNumber":55,"Velocity":33,"Duration":103092,"SoundDuration":103092,"Delta":284594914},{"NoteNumber":63,"Velocity":33,"Duration":111524,"SoundDuration":111524,"Delta":284698007},{"NoteNumber":58,"Velocity":29,"Duration":111524,"SoundDuration":111524,"Delta":284698007},{"NoteNumber":75,"Velocity":66,"Duration":76271,"SoundDuration":76271,"Delta":284809531},{"NoteNumber":48,"Velocity":55,"Duration":76271,"SoundDuration":76271,"Delta":284809531},{"NoteNumber":63,"Velocity":41,"Duration":101580,"SoundDuration":101580,"Delta":284911226},{"NoteNumber":56,"Velocity":36,"Duration":101580,"SoundDuration":101580,"Delta":284911226},{"NoteNumber":68,"Velocity":45,"Duration":101351,"SoundDuration":101351,"Delta":285012806},{"NoteNumber":51,"Velocity":39,"Duration":101351,"SoundDuration":101351,"Delta":285012806},{"NoteNumber":63,"Velocity":42,"Duration":101123,"SoundDuration":101123,"Delta":285114158},{"NoteNumber":56,"Velocity":35,"Duration":101123,"SoundDuration":101123,"Delta":285114158},{"NoteNumber":76,"Velocity":67,"Duration":75757,"SoundDuration":75757,"Delta":285215281},{"NoteNumber":46,"Velocity":56,"Duration":75757,"SoundDuration":75757,"Delta":285215281},{"NoteNumber":64,"Velocity":43,"Duration":100671,"SoundDuration":100671,"Delta":285316235},{"NoteNumber":55,"Velocity":36,"Duration":100671,"SoundDuration":100671,"Delta":285316235},{"NoteNumber":72,"Velocity":47,"Duration":100502,"SoundDuration":100502,"Delta":285416906},{"NoteNumber":48,"Velocity":43,"Duration":100502,"SoundDuration":100502,"Delta":285416906},{"NoteNumber":64,"Velocity":43,"Duration":100334,"SoundDuration":100334,"Delta":285517409},{"NoteNumber":55,"Velocity":41,"Duration":100334,"SoundDuration":100334,"Delta":285517409},{"NoteNumber":77,"Velocity":71,"Duration":73529,"SoundDuration":73529,"Delta":285617743},{"NoteNumber":44,"Velocity":58,"Duration":73529,"SoundDuration":73529,"Delta":285617743},{"NoteNumber":65,"Velocity":45,"Duration":98039,"SoundDuration":98039,"Delta":285715783},{"NoteNumber":56,"Velocity":38,"Duration":98039,"SoundDuration":98039,"Delta":285715783},{"NoteNumber":72,"Velocity":50,"Duration":98039,"SoundDuration":98039,"Delta":285813822},{"NoteNumber":48,"Velocity":43,"Duration":98039,"SoundDuration":98039,"Delta":285813822},{"NoteNumber":65,"Velocity":45,"Duration":98039,"SoundDuration":98039,"Delta":285911861},{"NoteNumber":56,"Velocity":38,"Duration":98039,"SoundDuration":98039,"Delta":285911861},{"NoteNumber":79,"Velocity":72,"Duration":73529,"SoundDuration":73529,"Delta":286009900},{"NoteNumber":43,"Velocity":60,"Duration":73529,"SoundDuration":73529,"Delta":286009900},{"NoteNumber":67,"Velocity":47,"Duration":98039,"SoundDuration":98039,"Delta":286107940},{"NoteNumber":55,"Velocity":40,"Duration":98039,"SoundDuration":98039,"Delta":286107940},{"NoteNumber":72,"Velocity":50,"Duration":98039,"SoundDuration":98039,"Delta":286205979},{"NoteNumber":48,"Velocity":43,"Duration":98039,"SoundDuration":98039,"Delta":286205979},{"NoteNumber":67,"Velocity":47,"Duration":98039,"SoundDuration":98039,"Delta":286304018},{"NoteNumber":55,"Velocity":38,"Duration":98039,"SoundDuration":98039,"Delta":286304018},{"NoteNumber":80,"Velocity":74,"Duration":72737,"SoundDuration":72737,"Delta":286402057},{"NoteNumber":41,"Velocity":63,"Duration":72737,"SoundDuration":72737,"Delta":286402057},{"NoteNumber":68,"Velocity":49,"Duration":96000,"SoundDuration":96000,"Delta":286498937},{"NoteNumber":53,"Velocity":42,"Duration":96000,"SoundDuration":96000,"Delta":286498937},{"NoteNumber":72,"Velocity":54,"Duration":97774,"SoundDuration":97774,"Delta":286594938},{"NoteNumber":48,"Velocity":45,"Duration":97774,"SoundDuration":97774,"Delta":286594938},{"NoteNumber":68,"Velocity":49,"Duration":96463,"SoundDuration":96463,"Delta":286692712},{"NoteNumber":53,"Velocity":42,"Duration":96463,"SoundDuration":96463,"Delta":286692712},{"NoteNumber":81,"Velocity":80,"Duration":72115,"SoundDuration":72115,"Delta":286789176},{"NoteNumber":39,"Velocity":66,"Duration":72115,"SoundDuration":72115,"Delta":286789176},{"NoteNumber":69,"Velocity":50,"Duration":96153,"SoundDuration":96153,"Delta":286885330},{"NoteNumber":51,"Velocity":41,"Duration":96153,"SoundDuration":96153,"Delta":286885330},{"NoteNumber":72,"Velocity":55,"Duration":97725,"SoundDuration":97725,"Delta":286981483},{"NoteNumber":41,"Velocity":47,"Duration":97725,"SoundDuration":97725,"Delta":286981483},{"NoteNumber":69,"Velocity":51,"Duration":96568,"SoundDuration":96568,"Delta":287079209},{"NoteNumber":51,"Velocity":41,"Duration":96568,"SoundDuration":96568,"Delta":287079209},{"NoteNumber":82,"Velocity":84,"Duration":72685,"SoundDuration":72685,"Delta":287175778},{"NoteNumber":38,"Velocity":68,"Duration":72685,"SoundDuration":72685,"Delta":287175778},{"NoteNumber":70,"Velocity":51,"Duration":96051,"SoundDuration":96051,"Delta":287272502},{"NoteNumber":50,"Velocity":45,"Duration":96051,"SoundDuration":96051,"Delta":287272502},{"NoteNumber":77,"Velocity":58,"Duration":96414,"SoundDuration":96414,"Delta":287368554},{"NoteNumber":41,"Velocity":49,"Duration":96414,"SoundDuration":96414,"Delta":287368554},{"NoteNumber":70,"Velocity":53,"Duration":96104,"SoundDuration":96104,"Delta":287464968},{"NoteNumber":50,"Velocity":43,"Duration":96104,"SoundDuration":96104,"Delta":287464968},{"NoteNumber":84,"Velocity":85,"Duration":72921,"SoundDuration":72921,"Delta":287561073},{"NoteNumber":36,"Velocity":70,"Duration":72921,"SoundDuration":72921,"Delta":287561073},{"NoteNumber":72,"Velocity":53,"Duration":95745,"SoundDuration":95745,"Delta":287658058},{"NoteNumber":48,"Velocity":45,"Duration":95745,"SoundDuration":95745,"Delta":287658058},{"NoteNumber":77,"Velocity":58,"Duration":96776,"SoundDuration":96776,"Delta":287753804},{"NoteNumber":41,"Velocity":51,"Duration":96776,"SoundDuration":96776,"Delta":287753804},{"NoteNumber":72,"Velocity":54,"Duration":96103,"SoundDuration":96103,"Delta":287850581},{"NoteNumber":48,"Velocity":43,"Duration":96103,"SoundDuration":96103,"Delta":287850581},{"NoteNumber":85,"Velocity":85,"Duration":71631,"SoundDuration":71631,"Delta":287946685},{"NoteNumber":34,"Velocity":70,"Duration":71631,"SoundDuration":71631,"Delta":287946685},{"NoteNumber":73,"Velocity":55,"Duration":97298,"SoundDuration":97298,"Delta":288042380},{"NoteNumber":46,"Velocity":47,"Duration":97298,"SoundDuration":97298,"Delta":288042380},{"NoteNumber":77,"Velocity":63,"Duration":96103,"SoundDuration":96103,"Delta":288139679},{"NoteNumber":41,"Velocity":53,"Duration":96103,"SoundDuration":96103,"Delta":288139679},{"NoteNumber":73,"Velocity":55,"Duration":96672,"SoundDuration":96672,"Delta":288235782},{"NoteNumber":46,"Velocity":48,"Duration":96672,"SoundDuration":96672,"Delta":288235782},{"NoteNumber":86,"Velocity":90,"Duration":72659,"SoundDuration":72659,"Delta":288332455},{"NoteNumber":32,"Velocity":72,"Duration":72659,"SoundDuration":72659,"Delta":288332455},{"NoteNumber":74,"Velocity":57,"Duration":95796,"SoundDuration":95796,"Delta":288429230},{"NoteNumber":44,"Velocity":47,"Duration":95796,"SoundDuration":95796,"Delta":288429230},{"NoteNumber":77,"Velocity":62,"Duration":96413,"SoundDuration":96413,"Delta":288525026},{"NoteNumber":41,"Velocity":53,"Duration":96413,"SoundDuration":96413,"Delta":288525026},{"NoteNumber":74,"Velocity":57,"Duration":97087,"SoundDuration":97087,"Delta":288621440},{"NoteNumber":44,"Velocity":50,"Duration":97087,"SoundDuration":97087,"Delta":288621440},{"NoteNumber":87,"Velocity":89,"Duration":71962,"SoundDuration":71962,"Delta":288718527},{"NoteNumber":31,"Velocity":75,"Duration":71962,"SoundDuration":71962,"Delta":288718527},{"NoteNumber":75,"Velocity":59,"Duration":96155,"SoundDuration":96155,"Delta":288814375},{"NoteNumber":43,"Velocity":50,"Duration":96155,"SoundDuration":96155,"Delta":288814375},{"NoteNumber":82,"Velocity":64,"Duration":96880,"SoundDuration":96880,"Delta":288910531},{"NoteNumber":39,"Velocity":55,"Duration":96880,"SoundDuration":96880,"Delta":288910531},{"NoteNumber":75,"Velocity":59,"Duration":97403,"SoundDuration":97403,"Delta":289007412},{"NoteNumber":43,"Velocity":50,"Duration":97403,"SoundDuration":97403,"Delta":289007412},{"NoteNumber":83,"Velocity":91,"Duration":76271,"SoundDuration":76271,"Delta":289104815},{"NoteNumber":31,"Velocity":76,"Duration":76271,"SoundDuration":76271,"Delta":289104815},{"NoteNumber":71,"Velocity":61,"Duration":101695,"SoundDuration":101695,"Delta":289206510},{"NoteNumber":43,"Velocity":56,"Duration":101695,"SoundDuration":101695,"Delta":289206510},{"NoteNumber":75,"Velocity":67,"Duration":101695,"SoundDuration":101695,"Delta":289308205},{"NoteNumber":39,"Velocity":58,"Duration":101695,"SoundDuration":101695,"Delta":289308205},{"NoteNumber":71,"Velocity":61,"Duration":101695,"SoundDuration":101695,"Delta":289409900},{"NoteNumber":43,"Velocity":55,"Duration":101695,"SoundDuration":101695,"Delta":289409900},{"NoteNumber":32,"Velocity":71,"Duration":197387,"SoundDuration":197387,"Delta":289511595},{"NoteNumber":44,"Velocity":84,"Duration":197387,"SoundDuration":197387,"Delta":289511595},{"NoteNumber":72,"Velocity":78,"Duration":97719,"SoundDuration":97719,"Delta":289611263},{"NoteNumber":75,"Velocity":84,"Duration":97719,"SoundDuration":97719,"Delta":289708983},{"NoteNumber":72,"Velocity":78,"Duration":97719,"SoundDuration":97719,"Delta":289806702},{"NoteNumber":84,"Velocity":88,"Duration":73289,"SoundDuration":73289,"Delta":289904422},{"NoteNumber":72,"Velocity":78,"Duration":97719,"SoundDuration":97719,"Delta":290002142},{"NoteNumber":75,"Velocity":84,"Duration":102040,"SoundDuration":102040,"Delta":290099862},{"NoteNumber":72,"Velocity":76,"Duration":102040,"SoundDuration":102040,"Delta":290201902},{"NoteNumber":46,"Velocity":84,"Duration":199049,"SoundDuration":199049,"Delta":290303943},{"NoteNumber":34,"Velocity":71,"Duration":199049,"SoundDuration":199049,"Delta":290303943},{"NoteNumber":65,"Velocity":78,"Duration":98039,"SoundDuration":98039,"Delta":290404953},{"NoteNumber":68,"Velocity":84,"Duration":98039,"SoundDuration":98039,"Delta":290502992},{"NoteNumber":65,"Velocity":78,"Duration":98039,"SoundDuration":98039,"Delta":290601032},{"NoteNumber":74,"Velocity":88,"Duration":73529,"SoundDuration":73529,"Delta":290699071},{"NoteNumber":65,"Velocity":78,"Duration":98039,"SoundDuration":98039,"Delta":290797110},{"NoteNumber":68,"Velocity":84,"Duration":107527,"SoundDuration":107527,"Delta":290895149},{"NoteNumber":65,"Velocity":76,"Duration":113207,"SoundDuration":113207,"Delta":291002676},{"NoteNumber":51,"Velocity":45,"Duration":1243721,"SoundDuration":1243721,"Delta":291115884},{"NoteNumber":63,"Velocity":32,"Duration":104894,"SoundDuration":104894,"Delta":291220779},{"NoteNumber":58,"Velocity":30,"Duration":104894,"SoundDuration":104894,"Delta":291220779},{"NoteNumber":67,"Velocity":36,"Duration":104529,"SoundDuration":104529,"Delta":291325674},{"NoteNumber":55,"Velocity":32,"Duration":104529,"SoundDuration":104529,"Delta":291325674},{"NoteNumber":63,"Velocity":35,"Duration":104287,"SoundDuration":104287,"Delta":291430203},{"NoteNumber":58,"Velocity":29,"Duration":104287,"SoundDuration":104287,"Delta":291430203},{"NoteNumber":75,"Velocity":54,"Duration":825114,"SoundDuration":825114,"Delta":291534491},{"NoteNumber":55,"Velocity":38,"Duration":103986,"SoundDuration":103986,"Delta":291534491},{"NoteNumber":63,"Velocity":33,"Duration":103686,"SoundDuration":103686,"Delta":291638478},{"NoteNumber":58,"Velocity":30,"Duration":103686,"SoundDuration":103686,"Delta":291638478},{"NoteNumber":67,"Velocity":35,"Duration":103388,"SoundDuration":103388,"Delta":291742164},{"NoteNumber":55,"Velocity":33,"Duration":103388,"SoundDuration":103388,"Delta":291742164},{"NoteNumber":63,"Velocity":32,"Duration":103092,"SoundDuration":103092,"Delta":291845553},{"NoteNumber":58,"Velocity":30,"Duration":103092,"SoundDuration":103092,"Delta":291845553},{"NoteNumber":67,"Velocity":35,"Duration":102739,"SoundDuration":102739,"Delta":291948646},{"NoteNumber":55,"Velocity":38,"Duration":102739,"SoundDuration":102739,"Delta":291948646},{"NoteNumber":63,"Velocity":33,"Duration":102739,"SoundDuration":102739,"Delta":292051386},{"NoteNumber":58,"Velocity":29,"Duration":102739,"SoundDuration":102739,"Delta":292051386},{"NoteNumber":67,"Velocity":35,"Duration":102739,"SoundDuration":102739,"Delta":292154126},{"NoteNumber":55,"Velocity":32,"Duration":102739,"SoundDuration":102739,"Delta":292154126},{"NoteNumber":63,"Velocity":32,"Duration":102739,"SoundDuration":102739,"Delta":292256865},{"NoteNumber":58,"Velocity":29,"Duration":102739,"SoundDuration":102739,"Delta":292256865},{"NoteNumber":75,"Velocity":53,"Duration":410958,"SoundDuration":410958,"Delta":292359605},{"NoteNumber":51,"Velocity":38,"Duration":410958,"SoundDuration":410958,"Delta":292359605},{"NoteNumber":63,"Velocity":32,"Duration":102739,"SoundDuration":102739,"Delta":292462345},{"NoteNumber":58,"Velocity":30,"Duration":102739,"SoundDuration":102739,"Delta":292462345},{"NoteNumber":67,"Velocity":35,"Duration":102739,"SoundDuration":102739,"Delta":292565085},{"NoteNumber":55,"Velocity":33,"Duration":102739,"SoundDuration":102739,"Delta":292565085},{"NoteNumber":63,"Velocity":33,"Duration":102739,"SoundDuration":102739,"Delta":292667824},{"NoteNumber":58,"Velocity":29,"Duration":102739,"SoundDuration":102739,"Delta":292667824},{"NoteNumber":49,"Velocity":45,"Duration":1259341,"SoundDuration":1259341,"Delta":292770564},{"NoteNumber":63,"Velocity":32,"Duration":111346,"SoundDuration":111346,"Delta":292883346},{"NoteNumber":58,"Velocity":30,"Duration":111346,"SoundDuration":111346,"Delta":292883346},{"NoteNumber":67,"Velocity":36,"Duration":104166,"SoundDuration":104166,"Delta":292994692},{"NoteNumber":55,"Velocity":32,"Duration":104166,"SoundDuration":104166,"Delta":292994692},{"NoteNumber":63,"Velocity":35,"Duration":104166,"SoundDuration":104166,"Delta":293098859},{"NoteNumber":58,"Velocity":29,"Duration":104166,"SoundDuration":104166,"Delta":293098859},{"NoteNumber":75,"Velocity":54,"Duration":826880,"SoundDuration":826880,"Delta":293203026},{"NoteNumber":55,"Velocity":38,"Duration":103806,"SoundDuration":103806,"Delta":293203026},{"NoteNumber":63,"Velocity":33,"Duration":103806,"SoundDuration":103806,"Delta":293306832},{"NoteNumber":58,"Velocity":30,"Duration":103806,"SoundDuration":103806,"Delta":293306832},{"NoteNumber":67,"Velocity":35,"Duration":103448,"SoundDuration":103448,"Delta":293410638},{"NoteNumber":55,"Velocity":33,"Duration":103448,"SoundDuration":103448,"Delta":293410638},{"NoteNumber":63,"Velocity":32,"Duration":103448,"SoundDuration":103448,"Delta":293514087},{"NoteNumber":58,"Velocity":30,"Duration":103448,"SoundDuration":103448,"Delta":293514087},{"NoteNumber":67,"Velocity":35,"Duration":103092,"SoundDuration":103092,"Delta":293617535},{"NoteNumber":55,"Velocity":38,"Duration":103092,"SoundDuration":103092,"Delta":293617535},{"NoteNumber":63,"Velocity":33,"Duration":103092,"SoundDuration":103092,"Delta":293720628},{"NoteNumber":58,"Velocity":29,"Duration":103092,"SoundDuration":103092,"Delta":293720628},{"NoteNumber":67,"Velocity":35,"Duration":103092,"SoundDuration":103092,"Delta":293823720},{"NoteNumber":55,"Velocity":32,"Duration":103092,"SoundDuration":103092,"Delta":293823720},{"NoteNumber":63,"Velocity":32,"Duration":103092,"SoundDuration":103092,"Delta":293926813},{"NoteNumber":58,"Velocity":29,"Duration":103092,"SoundDuration":103092,"Delta":293926813},{"NoteNumber":75,"Velocity":53,"Duration":420802,"SoundDuration":420802,"Delta":294029906},{"NoteNumber":49,"Velocity":38,"Duration":420802,"SoundDuration":420802,"Delta":294029906},{"NoteNumber":63,"Velocity":32,"Duration":103092,"SoundDuration":103092,"Delta":294132999},{"NoteNumber":58,"Velocity":30,"Duration":103092,"SoundDuration":103092,"Delta":294132999},{"NoteNumber":67,"Velocity":35,"Duration":103092,"SoundDuration":103092,"Delta":294236091},{"NoteNumber":55,"Velocity":33,"Duration":103092,"SoundDuration":103092,"Delta":294236091},{"NoteNumber":63,"Velocity":33,"Duration":111524,"SoundDuration":111524,"Delta":294339184},{"NoteNumber":58,"Velocity":29,"Duration":111524,"SoundDuration":111524,"Delta":294339184},{"NoteNumber":75,"Velocity":66,"Duration":76271,"SoundDuration":76271,"Delta":294450708},{"NoteNumber":48,"Velocity":55,"Duration":76271,"SoundDuration":76271,"Delta":294450708},{"NoteNumber":63,"Velocity":41,"Duration":101580,"SoundDuration":101580,"Delta":294552403},{"NoteNumber":56,"Velocity":36,"Duration":101580,"SoundDuration":101580,"Delta":294552403},{"NoteNumber":68,"Velocity":45,"Duration":101351,"SoundDuration":101351,"Delta":294653984},{"NoteNumber":51,"Velocity":39,"Duration":101351,"SoundDuration":101351,"Delta":294653984},{"NoteNumber":63,"Velocity":42,"Duration":101123,"SoundDuration":101123,"Delta":294755335},{"NoteNumber":56,"Velocity":35,"Duration":101123,"SoundDuration":101123,"Delta":294755335},{"NoteNumber":76,"Velocity":67,"Duration":75757,"SoundDuration":75757,"Delta":294856459},{"NoteNumber":46,"Velocity":56,"Duration":75757,"SoundDuration":75757,"Delta":294856459},{"NoteNumber":64,"Velocity":43,"Duration":100671,"SoundDuration":100671,"Delta":294957412},{"NoteNumber":55,"Velocity":36,"Duration":100671,"SoundDuration":100671,"Delta":294957412},{"NoteNumber":72,"Velocity":47,"Duration":100502,"SoundDuration":100502,"Delta":295058084},{"NoteNumber":48,"Velocity":43,"Duration":100502,"SoundDuration":100502,"Delta":295058084},{"NoteNumber":64,"Velocity":43,"Duration":100334,"SoundDuration":100334,"Delta":295158586},{"NoteNumber":55,"Velocity":41,"Duration":100334,"SoundDuration":100334,"Delta":295158586},{"NoteNumber":77,"Velocity":71,"Duration":73529,"SoundDuration":73529,"Delta":295258921},{"NoteNumber":44,"Velocity":58,"Duration":73529,"SoundDuration":73529,"Delta":295258921},{"NoteNumber":65,"Velocity":45,"Duration":98039,"SoundDuration":98039,"Delta":295356960},{"NoteNumber":56,"Velocity":38,"Duration":98039,"SoundDuration":98039,"Delta":295356960},{"NoteNumber":72,"Velocity":50,"Duration":98039,"SoundDuration":98039,"Delta":295454999},{"NoteNumber":48,"Velocity":43,"Duration":98039,"SoundDuration":98039,"Delta":295454999},{"NoteNumber":65,"Velocity":45,"Duration":98039,"SoundDuration":98039,"Delta":295553039},{"NoteNumber":56,"Velocity":38,"Duration":98039,"SoundDuration":98039,"Delta":295553039},{"NoteNumber":79,"Velocity":72,"Duration":73529,"SoundDuration":73529,"Delta":295651078},{"NoteNumber":43,"Velocity":60,"Duration":73529,"SoundDuration":73529,"Delta":295651078},{"NoteNumber":67,"Velocity":47,"Duration":98039,"SoundDuration":98039,"Delta":295749117},{"NoteNumber":55,"Velocity":40,"Duration":98039,"SoundDuration":98039,"Delta":295749117},{"NoteNumber":72,"Velocity":50,"Duration":98039,"SoundDuration":98039,"Delta":295847156},{"NoteNumber":48,"Velocity":43,"Duration":98039,"SoundDuration":98039,"Delta":295847156},{"NoteNumber":67,"Velocity":47,"Duration":98039,"SoundDuration":98039,"Delta":295945196},{"NoteNumber":55,"Velocity":38,"Duration":98039,"SoundDuration":98039,"Delta":295945196},{"NoteNumber":80,"Velocity":74,"Duration":72607,"SoundDuration":72607,"Delta":296043235},{"NoteNumber":41,"Velocity":63,"Duration":72607,"SoundDuration":72607,"Delta":296043235},{"NoteNumber":68,"Velocity":49,"Duration":97038,"SoundDuration":97038,"Delta":296139907},{"NoteNumber":53,"Velocity":42,"Duration":97038,"SoundDuration":97038,"Delta":296139907},{"NoteNumber":72,"Velocity":54,"Duration":96880,"SoundDuration":96880,"Delta":296236945},{"NoteNumber":48,"Velocity":45,"Duration":96880,"SoundDuration":96880,"Delta":296236945},{"NoteNumber":68,"Velocity":49,"Duration":96309,"SoundDuration":96309,"Delta":296333826},{"NoteNumber":53,"Velocity":42,"Duration":96309,"SoundDuration":96309,"Delta":296333826},{"NoteNumber":81,"Velocity":80,"Duration":73052,"SoundDuration":73052,"Delta":296430135},{"NoteNumber":39,"Velocity":66,"Duration":73052,"SoundDuration":73052,"Delta":296430135},{"NoteNumber":69,"Velocity":50,"Duration":96672,"SoundDuration":96672,"Delta":296527645},{"NoteNumber":51,"Velocity":41,"Duration":96672,"SoundDuration":96672,"Delta":296527645},{"NoteNumber":72,"Velocity":55,"Duration":96412,"SoundDuration":96412,"Delta":296624317},{"NoteNumber":41,"Velocity":47,"Duration":96412,"SoundDuration":96412,"Delta":296624317},{"NoteNumber":69,"Velocity":51,"Duration":97404,"SoundDuration":97404,"Delta":296720729},{"NoteNumber":51,"Velocity":41,"Duration":97404,"SoundDuration":97404,"Delta":296720729},{"NoteNumber":82,"Velocity":84,"Duration":72555,"SoundDuration":72555,"Delta":296818134},{"NoteNumber":38,"Velocity":68,"Duration":72555,"SoundDuration":72555,"Delta":296818134},{"NoteNumber":70,"Velocity":51,"Duration":96308,"SoundDuration":96308,"Delta":296914805},{"NoteNumber":50,"Velocity":45,"Duration":96308,"SoundDuration":96308,"Delta":296914805},{"NoteNumber":77,"Velocity":58,"Duration":97613,"SoundDuration":97613,"Delta":297011114},{"NoteNumber":41,"Velocity":49,"Duration":97613,"SoundDuration":97613,"Delta":297011114},{"NoteNumber":70,"Velocity":53,"Duration":96828,"SoundDuration":96828,"Delta":297108728},{"NoteNumber":50,"Velocity":43,"Duration":96828,"SoundDuration":96828,"Delta":297108728},{"NoteNumber":84,"Velocity":85,"Duration":72399,"SoundDuration":72399,"Delta":297205556},{"NoteNumber":36,"Velocity":70,"Duration":72399,"SoundDuration":72399,"Delta":297205556},{"NoteNumber":72,"Velocity":53,"Duration":96931,"SoundDuration":96931,"Delta":297302227},{"NoteNumber":48,"Velocity":45,"Duration":96931,"SoundDuration":96931,"Delta":297302227},{"NoteNumber":77,"Velocity":58,"Duration":96153,"SoundDuration":96153,"Delta":297399159},{"NoteNumber":41,"Velocity":51,"Duration":96153,"SoundDuration":96153,"Delta":297399159},{"NoteNumber":72,"Velocity":54,"Duration":97142,"SoundDuration":97142,"Delta":297495312},{"NoteNumber":48,"Velocity":43,"Duration":97142,"SoundDuration":97142,"Delta":297495312},{"NoteNumber":85,"Velocity":85,"Duration":73131,"SoundDuration":73131,"Delta":297592455},{"NoteNumber":34,"Velocity":70,"Duration":73131,"SoundDuration":73131,"Delta":297592455},{"NoteNumber":73,"Velocity":55,"Duration":96053,"SoundDuration":96053,"Delta":297689806},{"NoteNumber":46,"Velocity":47,"Duration":96053,"SoundDuration":96053,"Delta":297689806},{"NoteNumber":77,"Velocity":63,"Duration":96675,"SoundDuration":96675,"Delta":297785859},{"NoteNumber":41,"Velocity":53,"Duration":96675,"SoundDuration":96675,"Delta":297785859},{"NoteNumber":73,"Velocity":55,"Duration":97194,"SoundDuration":97194,"Delta":297882535},{"NoteNumber":46,"Velocity":48,"Duration":97194,"SoundDuration":97194,"Delta":297882535},{"NoteNumber":86,"Velocity":90,"Duration":71885,"SoundDuration":71885,"Delta":297979729},{"NoteNumber":32,"Velocity":72,"Duration":71885,"SoundDuration":71885,"Delta":297979729},{"NoteNumber":74,"Velocity":57,"Duration":95645,"SoundDuration":95645,"Delta":298075424},{"NoteNumber":44,"Velocity":47,"Duration":95645,"SoundDuration":95645,"Delta":298075424},{"NoteNumber":77,"Velocity":62,"Duration":97193,"SoundDuration":97193,"Delta":298171070},{"NoteNumber":41,"Velocity":53,"Duration":97193,"SoundDuration":97193,"Delta":298171070},{"NoteNumber":74,"Velocity":57,"Duration":96206,"SoundDuration":96206,"Delta":298268263},{"NoteNumber":44,"Velocity":50,"Duration":96206,"SoundDuration":96206,"Delta":298268263},{"NoteNumber":87,"Velocity":89,"Duration":72245,"SoundDuration":72245,"Delta":298364470},{"NoteNumber":31,"Velocity":75,"Duration":72245,"SoundDuration":72245,"Delta":298364470},{"NoteNumber":75,"Velocity":59,"Duration":98307,"SoundDuration":98307,"Delta":298461093},{"NoteNumber":43,"Velocity":50,"Duration":98307,"SoundDuration":98307,"Delta":298461093},{"NoteNumber":82,"Velocity":64,"Duration":97456,"SoundDuration":97456,"Delta":298559400},{"NoteNumber":39,"Velocity":55,"Duration":97456,"SoundDuration":97456,"Delta":298559400},{"NoteNumber":75,"Velocity":59,"Duration":96774,"SoundDuration":96774,"Delta":298656856},{"NoteNumber":43,"Velocity":50,"Duration":96774,"SoundDuration":96774,"Delta":298656856},{"NoteNumber":88,"Velocity":91,"Duration":76271,"SoundDuration":76271,"Delta":298753631},{"NoteNumber":31,"Velocity":76,"Duration":76271,"SoundDuration":76271,"Delta":298753631},{"NoteNumber":76,"Velocity":61,"Duration":101695,"SoundDuration":101695,"Delta":298855326},{"NoteNumber":43,"Velocity":56,"Duration":101695,"SoundDuration":101695,"Delta":298855326},{"NoteNumber":82,"Velocity":67,"Duration":101695,"SoundDuration":101695,"Delta":298957021},{"NoteNumber":31,"Velocity":58,"Duration":101695,"SoundDuration":101695,"Delta":298957021},{"NoteNumber":76,"Velocity":61,"Duration":101695,"SoundDuration":101695,"Delta":299058716},{"NoteNumber":43,"Velocity":55,"Duration":101695,"SoundDuration":101695,"Delta":299058716},{"NoteNumber":32,"Velocity":71,"Duration":199760,"SoundDuration":199760,"Delta":299160411},{"NoteNumber":44,"Velocity":84,"Duration":199760,"SoundDuration":199760,"Delta":299160411},{"NoteNumber":80,"Velocity":78,"Duration":97719,"SoundDuration":97719,"Delta":299262451},{"NoteNumber":84,"Velocity":84,"Duration":97719,"SoundDuration":97719,"Delta":299360171},{"NoteNumber":80,"Velocity":78,"Duration":97719,"SoundDuration":97719,"Delta":299457891},{"NoteNumber":89,"Velocity":88,"Duration":73289,"SoundDuration":73289,"Delta":299555611},{"NoteNumber":80,"Velocity":78,"Duration":97719,"SoundDuration":97719,"Delta":299653330},{"NoteNumber":84,"Velocity":84,"Duration":102040,"SoundDuration":102040,"Delta":299751050},{"NoteNumber":80,"Velocity":76,"Duration":102040,"SoundDuration":102040,"Delta":299853091},{"NoteNumber":46,"Velocity":84,"Duration":198710,"SoundDuration":198710,"Delta":299955132},{"NoteNumber":34,"Velocity":71,"Duration":198710,"SoundDuration":198710,"Delta":299955132},{"NoteNumber":77,"Velocity":78,"Duration":98039,"SoundDuration":98039,"Delta":300055803},{"NoteNumber":80,"Velocity":84,"Duration":98039,"SoundDuration":98039,"Delta":300153842},{"NoteNumber":77,"Velocity":78,"Duration":98039,"SoundDuration":98039,"Delta":300251881},{"NoteNumber":86,"Velocity":88,"Duration":73529,"SoundDuration":73529,"Delta":300349921},{"NoteNumber":77,"Velocity":78,"Duration":98039,"SoundDuration":98039,"Delta":300447960},{"NoteNumber":80,"Velocity":84,"Duration":101695,"SoundDuration":101695,"Delta":300545999},{"NoteNumber":77,"Velocity":76,"Duration":101695,"SoundDuration":101695,"Delta":300647694},{"NoteNumber":79,"Velocity":81,"Duration":78671,"SoundDuration":78671,"Delta":300749389},{"NoteNumber":39,"Velocity":84,"Duration":209789,"SoundDuration":209789,"Delta":300749389},{"NoteNumber":51,"Velocity":84,"Duration":209789,"SoundDuration":209789,"Delta":300749389},{"NoteNumber":87,"Velocity":64,"Duration":397405,"SoundDuration":397405,"Delta":300959179},{"NoteNumber":63,"Velocity":34,"Duration":188741,"SoundDuration":188741,"Delta":300959179},{"NoteNumber":67,"Velocity":34,"Duration":188741,"SoundDuration":188741,"Delta":300959179},{"NoteNumber":63,"Velocity":34,"Duration":188763,"SoundDuration":188763,"Delta":301157855},{"NoteNumber":67,"Velocity":34,"Duration":188763,"SoundDuration":188763,"Delta":301157855},{"NoteNumber":86,"Velocity":46,"Duration":100392,"SoundDuration":100392,"Delta":301356585},{"NoteNumber":63,"Velocity":34,"Duration":192150,"SoundDuration":192150,"Delta":301356585},{"NoteNumber":67,"Velocity":34,"Duration":192150,"SoundDuration":192150,"Delta":301356585},{"NoteNumber":87,"Velocity":48,"Duration":102103,"SoundDuration":102103,"Delta":301456977},{"NoteNumber":89,"Velocity":49,"Duration":102567,"SoundDuration":102567,"Delta":301559081},{"NoteNumber":60,"Velocity":34,"Duration":801722,"SoundDuration":801722,"Delta":301559081},{"NoteNumber":87,"Velocity":49,"Duration":100786,"SoundDuration":100786,"Delta":301661648},{"NoteNumber":86,"Velocity":48,"Duration":99392,"SoundDuration":99392,"Delta":301762435},{"NoteNumber":63,"Velocity":34,"Duration":188796,"SoundDuration":188796,"Delta":301762435},{"NoteNumber":67,"Velocity":34,"Duration":188796,"SoundDuration":188796,"Delta":301762435},{"NoteNumber":84,"Velocity":47,"Duration":99337,"SoundDuration":99337,"Delta":301861827},{"NoteNumber":83,"Velocity":45,"Duration":99337,"SoundDuration":99337,"Delta":301961165},{"NoteNumber":63,"Velocity":34,"Duration":188741,"SoundDuration":188741,"Delta":301961165},{"NoteNumber":67,"Velocity":34,"Duration":188741,"SoundDuration":188741,"Delta":301961165},{"NoteNumber":84,"Velocity":46,"Duration":99337,"SoundDuration":99337,"Delta":302060503},{"NoteNumber":86,"Velocity":49,"Duration":99779,"SoundDuration":99779,"Delta":302159841},{"NoteNumber":63,"Velocity":34,"Duration":190758,"SoundDuration":190758,"Delta":302159841},{"NoteNumber":67,"Velocity":34,"Duration":190758,"SoundDuration":190758,"Delta":302159841},{"NoteNumber":84,"Velocity":47,"Duration":101182,"SoundDuration":101182,"Delta":302259620},{"NoteNumber":82,"Velocity":49,"Duration":101353,"SoundDuration":101353,"Delta":302360803},{"NoteNumber":56,"Velocity":34,"Duration":798076,"SoundDuration":798076,"Delta":302360803},{"NoteNumber":80,"Velocity":47,"Duration":100001,"SoundDuration":100001,"Delta":302462156},{"NoteNumber":79,"Velocity":46,"Duration":99010,"SoundDuration":99010,"Delta":302562158},{"NoteNumber":65,"Velocity":34,"Duration":188118,"SoundDuration":188118,"Delta":302562158},{"NoteNumber":63,"Velocity":34,"Duration":188118,"SoundDuration":188118,"Delta":302562158},{"NoteNumber":77,"Velocity":45,"Duration":99009,"SoundDuration":99009,"Delta":302661168},{"NoteNumber":76,"Velocity":45,"Duration":99010,"SoundDuration":99010,"Delta":302760178},{"NoteNumber":63,"Velocity":34,"Duration":188119,"SoundDuration":188119,"Delta":302760178},{"NoteNumber":65,"Velocity":34,"Duration":188119,"SoundDuration":188119,"Delta":302760178},{"NoteNumber":77,"Velocity":45,"Duration":99010,"SoundDuration":99010,"Delta":302859188},{"NoteNumber":79,"Velocity":47,"Duration":99669,"SoundDuration":99669,"Delta":302958198},{"NoteNumber":63,"Velocity":34,"Duration":190512,"SoundDuration":190512,"Delta":302958198},{"NoteNumber":65,"Velocity":34,"Duration":190512,"SoundDuration":190512,"Delta":302958198},{"NoteNumber":77,"Velocity":45,"Duration":101012,"SoundDuration":101012,"Delta":303057868},{"NoteNumber":75,"Velocity":46,"Duration":101295,"SoundDuration":101295,"Delta":303158880},{"NoteNumber":58,"Velocity":34,"Duration":797323,"SoundDuration":797323,"Delta":303158880},{"NoteNumber":74,"Velocity":46,"Duration":100001,"SoundDuration":100001,"Delta":303260175},{"NoteNumber":72,"Velocity":45,"Duration":99337,"SoundDuration":99337,"Delta":303360177},{"NoteNumber":62,"Velocity":34,"Duration":188741,"SoundDuration":188741,"Delta":303360177},{"NoteNumber":65,"Velocity":34,"Duration":188741,"SoundDuration":188741,"Delta":303360177},{"NoteNumber":70,"Velocity":45,"Duration":99337,"SoundDuration":99337,"Delta":303459515},{"NoteNumber":69,"Velocity":45,"Duration":99337,"SoundDuration":99337,"Delta":303558853},{"NoteNumber":62,"Velocity":34,"Duration":188741,"SoundDuration":188741,"Delta":303558853},{"NoteNumber":65,"Velocity":34,"Duration":188741,"SoundDuration":188741,"Delta":303558853},{"NoteNumber":70,"Velocity":42,"Duration":99337,"SoundDuration":99337,"Delta":303658190},{"NoteNumber":72,"Velocity":46,"Duration":99337,"SoundDuration":99337,"Delta":303757528},{"NoteNumber":62,"Velocity":34,"Duration":188741,"SoundDuration":188741,"Delta":303757528},{"NoteNumber":65,"Velocity":34,"Duration":188741,"SoundDuration":188741,"Delta":303757528},{"NoteNumber":68,"Velocity":42,"Duration":99337,"SoundDuration":99337,"Delta":303856866},{"NoteNumber":67,"Velocity":66,"Duration":78671,"SoundDuration":78671,"Delta":303956204},{"NoteNumber":51,"Velocity":59,"Duration":809691,"SoundDuration":809691,"Delta":303956204},{"NoteNumber":75,"Velocity":68,"Duration":397405,"SoundDuration":397405,"Delta":304165994},{"NoteNumber":87,"Velocity":68,"Duration":397405,"SoundDuration":397405,"Delta":304165994},{"NoteNumber":55,"Velocity":44,"Duration":188741,"SoundDuration":188741,"Delta":304165994},{"NoteNumber":63,"Velocity":44,"Duration":188741,"SoundDuration":188741,"Delta":304165994},{"NoteNumber":55,"Velocity":44,"Duration":188763,"SoundDuration":188763,"Delta":304364669},{"NoteNumber":63,"Velocity":44,"Duration":188763,"SoundDuration":188763,"Delta":304364669},{"NoteNumber":86,"Velocity":61,"Duration":100392,"SoundDuration":100392,"Delta":304563400},{"NoteNumber":55,"Velocity":44,"Duration":192150,"SoundDuration":192150,"Delta":304563400},{"NoteNumber":63,"Velocity":44,"Duration":192150,"SoundDuration":192150,"Delta":304563400},{"NoteNumber":87,"Velocity":64,"Duration":102103,"SoundDuration":102103,"Delta":304663792},{"NoteNumber":89,"Velocity":66,"Duration":102567,"SoundDuration":102567,"Delta":304765895},{"NoteNumber":48,"Velocity":45,"Duration":801722,"SoundDuration":801722,"Delta":304765895},{"NoteNumber":87,"Velocity":66,"Duration":100786,"SoundDuration":100786,"Delta":304868463},{"NoteNumber":86,"Velocity":65,"Duration":99392,"SoundDuration":99392,"Delta":304969249},{"NoteNumber":55,"Velocity":46,"Duration":188796,"SoundDuration":188796,"Delta":304969249},{"NoteNumber":51,"Velocity":46,"Duration":188796,"SoundDuration":188796,"Delta":304969249},{"NoteNumber":60,"Velocity":46,"Duration":188796,"SoundDuration":188796,"Delta":304969249},{"NoteNumber":84,"Velocity":64,"Duration":99337,"SoundDuration":99337,"Delta":305068642},{"NoteNumber":83,"Velocity":62,"Duration":99337,"SoundDuration":99337,"Delta":305167980},{"NoteNumber":55,"Velocity":46,"Duration":188741,"SoundDuration":188741,"Delta":305167980},{"NoteNumber":51,"Velocity":46,"Duration":188741,"SoundDuration":188741,"Delta":305167980},{"NoteNumber":60,"Velocity":46,"Duration":188741,"SoundDuration":188741,"Delta":305167980},{"NoteNumber":84,"Velocity":64,"Duration":99337,"SoundDuration":99337,"Delta":305267318},{"NoteNumber":86,"Velocity":68,"Duration":99779,"SoundDuration":99779,"Delta":305366655},{"NoteNumber":55,"Velocity":47,"Duration":190758,"SoundDuration":190758,"Delta":305366655},{"NoteNumber":51,"Velocity":47,"Duration":190758,"SoundDuration":190758,"Delta":305366655},{"NoteNumber":60,"Velocity":47,"Duration":190758,"SoundDuration":190758,"Delta":305366655},{"NoteNumber":84,"Velocity":66,"Duration":101182,"SoundDuration":101182,"Delta":305466435},{"NoteNumber":82,"Velocity":69,"Duration":101353,"SoundDuration":101353,"Delta":305567618},{"NoteNumber":44,"Velocity":47,"Duration":798076,"SoundDuration":798076,"Delta":305567618},{"NoteNumber":80,"Velocity":67,"Duration":100001,"SoundDuration":100001,"Delta":305668971},{"NoteNumber":79,"Velocity":66,"Duration":99010,"SoundDuration":99010,"Delta":305768973},{"NoteNumber":53,"Velocity":48,"Duration":188118,"SoundDuration":188118,"Delta":305768973},{"NoteNumber":56,"Velocity":48,"Duration":188118,"SoundDuration":188118,"Delta":305768973},{"NoteNumber":51,"Velocity":48,"Duration":188118,"SoundDuration":188118,"Delta":305768973},{"NoteNumber":77,"Velocity":65,"Duration":99009,"SoundDuration":99009,"Delta":305867983},{"NoteNumber":76,"Velocity":65,"Duration":99010,"SoundDuration":99010,"Delta":305966993},{"NoteNumber":53,"Velocity":48,"Duration":188119,"SoundDuration":188119,"Delta":305966993},{"NoteNumber":51,"Velocity":48,"Duration":188119,"SoundDuration":188119,"Delta":305966993},{"NoteNumber":56,"Velocity":48,"Duration":188119,"SoundDuration":188119,"Delta":305966993},{"NoteNumber":77,"Velocity":64,"Duration":99010,"SoundDuration":99010,"Delta":306066003},{"NoteNumber":79,"Velocity":68,"Duration":99669,"SoundDuration":99669,"Delta":306165013},{"NoteNumber":53,"Velocity":49,"Duration":190512,"SoundDuration":190512,"Delta":306165013},{"NoteNumber":51,"Velocity":49,"Duration":190512,"SoundDuration":190512,"Delta":306165013},{"NoteNumber":56,"Velocity":49,"Duration":190512,"SoundDuration":190512,"Delta":306165013},{"NoteNumber":77,"Velocity":66,"Duration":101012,"SoundDuration":101012,"Delta":306264682},{"NoteNumber":75,"Velocity":68,"Duration":101295,"SoundDuration":101295,"Delta":306365694},{"NoteNumber":46,"Velocity":49,"Duration":805841,"SoundDuration":805841,"Delta":306365694},{"NoteNumber":74,"Velocity":68,"Duration":100001,"SoundDuration":100001,"Delta":306466990},{"NoteNumber":72,"Velocity":68,"Duration":99337,"SoundDuration":99337,"Delta":306566992},{"NoteNumber":53,"Velocity":50,"Duration":188741,"SoundDuration":188741,"Delta":306566992},{"NoteNumber":50,"Velocity":50,"Duration":188741,"SoundDuration":188741,"Delta":306566992},{"NoteNumber":58,"Velocity":50,"Duration":188741,"SoundDuration":188741,"Delta":306566992},{"NoteNumber":70,"Velocity":68,"Duration":99337,"SoundDuration":99337,"Delta":306666330},{"NoteNumber":69,"Velocity":67,"Duration":99337,"SoundDuration":99337,"Delta":306765667},{"NoteNumber":53,"Velocity":50,"Duration":188687,"SoundDuration":188687,"Delta":306765667},{"NoteNumber":50,"Velocity":50,"Duration":188687,"SoundDuration":188687,"Delta":306765667},{"NoteNumber":58,"Velocity":50,"Duration":188687,"SoundDuration":188687,"Delta":306765667},{"NoteNumber":70,"Velocity":64,"Duration":99283,"SoundDuration":99283,"Delta":306865005},{"NoteNumber":72,"Velocity":70,"Duration":101018,"SoundDuration":101018,"Delta":306964288},{"NoteNumber":53,"Velocity":51,"Duration":196338,"SoundDuration":196338,"Delta":306964288},{"NoteNumber":50,"Velocity":51,"Duration":196338,"SoundDuration":196338,"Delta":306964288},{"NoteNumber":58,"Velocity":51,"Duration":196338,"SoundDuration":196338,"Delta":306964288},{"NoteNumber":70,"Velocity":64,"Duration":106229,"SoundDuration":106229,"Delta":307065306},{"NoteNumber":75,"Velocity":83,"Duration":110701,"SoundDuration":110701,"Delta":307171536},{"NoteNumber":39,"Velocity":67,"Duration":210331,"SoundDuration":210331,"Delta":307171536},{"NoteNumber":51,"Velocity":60,"Duration":110701,"SoundDuration":110701,"Delta":307282237},{"NoteNumber":63,"Velocity":82,"Duration":400695,"SoundDuration":400695,"Delta":307392938},{"NoteNumber":39,"Velocity":67,"Duration":188741,"SoundDuration":188741,"Delta":307392938},{"NoteNumber":51,"Velocity":59,"Duration":99337,"SoundDuration":99337,"Delta":307492276},{"NoteNumber":39,"Velocity":67,"Duration":191918,"SoundDuration":191918,"Delta":307591613},{"NoteNumber":51,"Velocity":60,"Duration":101010,"SoundDuration":101010,"Delta":307692623},{"NoteNumber":61,"Velocity":80,"Duration":99337,"SoundDuration":99337,"Delta":307793633},{"NoteNumber":67,"Velocity":80,"Duration":99337,"SoundDuration":99337,"Delta":307793633},{"NoteNumber":39,"Velocity":66,"Duration":188741,"SoundDuration":188741,"Delta":307793633},{"NoteNumber":51,"Velocity":60,"Duration":99337,"SoundDuration":99337,"Delta":307892971},{"NoteNumber":60,"Velocity":81,"Duration":99337,"SoundDuration":99337,"Delta":307992309},{"NoteNumber":68,"Velocity":81,"Duration":99337,"SoundDuration":99337,"Delta":307992309},{"NoteNumber":39,"Velocity":66,"Duration":188741,"SoundDuration":188741,"Delta":307992309},{"NoteNumber":51,"Velocity":59,"Duration":99337,"SoundDuration":99337,"Delta":308091647},{"NoteNumber":67,"Velocity":82,"Duration":99337,"SoundDuration":99337,"Delta":308190984},{"NoteNumber":70,"Velocity":82,"Duration":99337,"SoundDuration":99337,"Delta":308190984},{"NoteNumber":39,"Velocity":66,"Duration":188741,"SoundDuration":188741,"Delta":308190984},{"NoteNumber":51,"Velocity":60,"Duration":99337,"SoundDuration":99337,"Delta":308290322},{"NoteNumber":68,"Velocity":83,"Duration":99337,"SoundDuration":99337,"Delta":308389660},{"NoteNumber":72,"Velocity":83,"Duration":99337,"SoundDuration":99337,"Delta":308389660},{"NoteNumber":39,"Velocity":66,"Duration":188741,"SoundDuration":188741,"Delta":308389660},{"NoteNumber":51,"Velocity":60,"Duration":99337,"SoundDuration":99337,"Delta":308488998},{"NoteNumber":68,"Velocity":85,"Duration":99337,"SoundDuration":99337,"Delta":308588335},{"NoteNumber":74,"Velocity":85,"Duration":99337,"SoundDuration":99337,"Delta":308588335},{"NoteNumber":39,"Velocity":66,"Duration":188741,"SoundDuration":188741,"Delta":308588335},{"NoteNumber":51,"Velocity":61,"Duration":99337,"SoundDuration":99337,"Delta":308687673},{"NoteNumber":67,"Velocity":83,"Duration":104529,"SoundDuration":104529,"Delta":308787011},{"NoteNumber":75,"Velocity":83,"Duration":104529,"SoundDuration":104529,"Delta":308787011},{"NoteNumber":39,"Velocity":67,"Duration":198606,"SoundDuration":198606,"Delta":308787011},{"NoteNumber":51,"Velocity":60,"Duration":104529,"SoundDuration":104529,"Delta":308891540},{"NoteNumber":75,"Velocity":82,"Duration":400695,"SoundDuration":400695,"Delta":308996070},{"NoteNumber":39,"Velocity":67,"Duration":188741,"SoundDuration":188741,"Delta":308996070},{"NoteNumber":51,"Velocity":59,"Duration":99337,"SoundDuration":99337,"Delta":309095408},{"NoteNumber":39,"Velocity":67,"Duration":191918,"SoundDuration":191918,"Delta":309194745},{"NoteNumber":51,"Velocity":60,"Duration":101010,"SoundDuration":101010,"Delta":309295755},{"NoteNumber":73,"Velocity":80,"Duration":99337,"SoundDuration":99337,"Delta":309396765},{"NoteNumber":79,"Velocity":80,"Duration":99337,"SoundDuration":99337,"Delta":309396765},{"NoteNumber":39,"Velocity":66,"Duration":188741,"SoundDuration":188741,"Delta":309396765},{"NoteNumber":51,"Velocity":60,"Duration":99337,"SoundDuration":99337,"Delta":309496103},{"NoteNumber":72,"Velocity":81,"Duration":99337,"SoundDuration":99337,"Delta":309595441},{"NoteNumber":80,"Velocity":81,"Duration":99337,"SoundDuration":99337,"Delta":309595441},{"NoteNumber":39,"Velocity":66,"Duration":188741,"SoundDuration":188741,"Delta":309595441},{"NoteNumber":51,"Velocity":59,"Duration":99337,"SoundDuration":99337,"Delta":309694779},{"NoteNumber":79,"Velocity":82,"Duration":99337,"SoundDuration":99337,"Delta":309794116},{"NoteNumber":82,"Velocity":82,"Duration":99337,"SoundDuration":99337,"Delta":309794116},{"NoteNumber":39,"Velocity":66,"Duration":188741,"SoundDuration":188741,"Delta":309794116},{"NoteNumber":51,"Velocity":60,"Duration":99337,"SoundDuration":99337,"Delta":309893454},{"NoteNumber":80,"Velocity":83,"Duration":99337,"SoundDuration":99337,"Delta":309992792},{"NoteNumber":84,"Velocity":83,"Duration":99337,"SoundDuration":99337,"Delta":309992792},{"NoteNumber":39,"Velocity":66,"Duration":188741,"SoundDuration":188741,"Delta":309992792},{"NoteNumber":51,"Velocity":60,"Duration":99337,"SoundDuration":99337,"Delta":310092130},{"NoteNumber":80,"Velocity":85,"Duration":104894,"SoundDuration":104894,"Delta":310191467},{"NoteNumber":86,"Velocity":85,"Duration":104894,"SoundDuration":104894,"Delta":310191467},{"NoteNumber":39,"Velocity":66,"Duration":199300,"SoundDuration":199300,"Delta":310191467},{"NoteNumber":51,"Velocity":61,"Duration":104894,"SoundDuration":104894,"Delta":310296362},{"NoteNumber":87,"Velocity":94,"Duration":800000,"SoundDuration":800000,"Delta":310401257},{"NoteNumber":79,"Velocity":94,"Duration":800000,"SoundDuration":800000,"Delta":310401257},{"NoteNumber":39,"Velocity":66,"Duration":189999,"SoundDuration":189999,"Delta":310401257},{"NoteNumber":51,"Velocity":59,"Duration":99999,"SoundDuration":99999,"Delta":310501257},{"NoteNumber":39,"Velocity":66,"Duration":189999,"SoundDuration":189999,"Delta":310601257},{"NoteNumber":51,"Velocity":60,"Duration":99999,"SoundDuration":99999,"Delta":310701257},{"NoteNumber":39,"Velocity":66,"Duration":189999,"SoundDuration":189999,"Delta":310801257},{"NoteNumber":51,"Velocity":60,"Duration":100000,"SoundDuration":100000,"Delta":310901257},{"NoteNumber":39,"Velocity":66,"Duration":189999,"SoundDuration":189999,"Delta":311001257},{"NoteNumber":51,"Velocity":61,"Duration":100000,"SoundDuration":100000,"Delta":311101257},{"NoteNumber":67,"Velocity":88,"Duration":811080,"SoundDuration":811080,"Delta":311201257},{"NoteNumber":75,"Velocity":88,"Duration":811080,"SoundDuration":811080,"Delta":311201257},{"NoteNumber":38,"Velocity":66,"Duration":188741,"SoundDuration":188741,"Delta":311201257},{"NoteNumber":50,"Velocity":59,"Duration":99337,"SoundDuration":99337,"Delta":311300595},{"NoteNumber":38,"Velocity":66,"Duration":188741,"SoundDuration":188741,"Delta":311399933},{"NoteNumber":50,"Velocity":60,"Duration":99337,"SoundDuration":99337,"Delta":311499271},{"NoteNumber":38,"Velocity":66,"Duration":188741,"SoundDuration":188741,"Delta":311598608},{"NoteNumber":50,"Velocity":60,"Duration":99337,"SoundDuration":99337,"Delta":311697946},{"NoteNumber":38,"Velocity":66,"Duration":204301,"SoundDuration":204301,"Delta":311797284},{"NoteNumber":50,"Velocity":61,"Duration":107527,"SoundDuration":107527,"Delta":311904811},{"NoteNumber":87,"Velocity":99,"Duration":800000,"SoundDuration":800000,"Delta":312012338},{"NoteNumber":79,"Velocity":99,"Duration":800000,"SoundDuration":800000,"Delta":312012338},{"NoteNumber":36,"Velocity":66,"Duration":189999,"SoundDuration":189999,"Delta":312012338},{"NoteNumber":48,"Velocity":59,"Duration":99999,"SoundDuration":99999,"Delta":312112338},{"NoteNumber":36,"Velocity":66,"Duration":189999,"SoundDuration":189999,"Delta":312212338},{"NoteNumber":48,"Velocity":60,"Duration":99999,"SoundDuration":99999,"Delta":312312338},{"NoteNumber":36,"Velocity":66,"Duration":189999,"SoundDuration":189999,"Delta":312412338},{"NoteNumber":48,"Velocity":60,"Duration":100000,"SoundDuration":100000,"Delta":312512338},{"NoteNumber":36,"Velocity":66,"Duration":189999,"SoundDuration":189999,"Delta":312612338},{"NoteNumber":48,"Velocity":61,"Duration":100000,"SoundDuration":100000,"Delta":312712338},{"NoteNumber":67,"Velocity":92,"Duration":806826,"SoundDuration":806826,"Delta":312812338},{"NoteNumber":75,"Velocity":92,"Duration":806826,"SoundDuration":806826,"Delta":312812338},{"NoteNumber":34,"Velocity":66,"Duration":188118,"SoundDuration":188118,"Delta":312812338},{"NoteNumber":46,"Velocity":59,"Duration":99009,"SoundDuration":99009,"Delta":312911348},{"NoteNumber":34,"Velocity":66,"Duration":188119,"SoundDuration":188119,"Delta":313010358},{"NoteNumber":46,"Velocity":60,"Duration":99010,"SoundDuration":99010,"Delta":313109368},{"NoteNumber":34,"Velocity":66,"Duration":188118,"SoundDuration":188118,"Delta":313208378},{"NoteNumber":46,"Velocity":60,"Duration":99010,"SoundDuration":99010,"Delta":313307388},{"NoteNumber":34,"Velocity":66,"Duration":202127,"SoundDuration":202127,"Delta":313406398},{"NoteNumber":46,"Velocity":61,"Duration":106382,"SoundDuration":106382,"Delta":313512781},{"NoteNumber":87,"Velocity":102,"Duration":800000,"SoundDuration":800000,"Delta":313619164},{"NoteNumber":84,"Velocity":102,"Duration":800000,"SoundDuration":800000,"Delta":313619164},{"NoteNumber":32,"Velocity":66,"Duration":189999,"SoundDuration":189999,"Delta":313619164},{"NoteNumber":44,"Velocity":59,"Duration":99999,"SoundDuration":99999,"Delta":313719164},{"NoteNumber":32,"Velocity":66,"Duration":189999,"SoundDuration":189999,"Delta":313819164},{"NoteNumber":44,"Velocity":60,"Duration":99999,"SoundDuration":99999,"Delta":313919164},{"NoteNumber":32,"Velocity":66,"Duration":189999,"SoundDuration":189999,"Delta":314019164},{"NoteNumber":44,"Velocity":60,"Duration":100000,"SoundDuration":100000,"Delta":314119164},{"NoteNumber":32,"Velocity":66,"Duration":189999,"SoundDuration":189999,"Delta":314219164},{"NoteNumber":44,"Velocity":61,"Duration":100000,"SoundDuration":100000,"Delta":314319164},{"NoteNumber":72,"Velocity":96,"Duration":805327,"SoundDuration":805327,"Delta":314419164},{"NoteNumber":75,"Velocity":96,"Duration":805327,"SoundDuration":805327,"Delta":314419164},{"NoteNumber":31,"Velocity":66,"Duration":188118,"SoundDuration":188118,"Delta":314419164},{"NoteNumber":43,"Velocity":59,"Duration":99009,"SoundDuration":99009,"Delta":314518174},{"NoteNumber":31,"Velocity":66,"Duration":188119,"SoundDuration":188119,"Delta":314617184},{"NoteNumber":43,"Velocity":60,"Duration":99010,"SoundDuration":99010,"Delta":314716194},{"NoteNumber":31,"Velocity":66,"Duration":188118,"SoundDuration":188118,"Delta":314815204},{"NoteNumber":43,"Velocity":60,"Duration":99010,"SoundDuration":99010,"Delta":314914214},{"NoteNumber":31,"Velocity":66,"Duration":200704,"SoundDuration":200704,"Delta":315013224},{"NoteNumber":43,"Velocity":61,"Duration":105633,"SoundDuration":105633,"Delta":315118858},{"NoteNumber":84,"Velocity":93,"Duration":963856,"SoundDuration":963856,"Delta":315224491},{"NoteNumber":81,"Velocity":93,"Duration":963856,"SoundDuration":963856,"Delta":315224491},{"NoteNumber":86,"Velocity":93,"Duration":963856,"SoundDuration":963856,"Delta":315224491},{"NoteNumber":30,"Velocity":62,"Duration":963856,"SoundDuration":963856,"Delta":315224491},{"NoteNumber":42,"Velocity":74,"Duration":963856,"SoundDuration":963856,"Delta":315224491},{"NoteNumber":57,"Velocity":86,"Duration":2000000,"SoundDuration":2000000,"Delta":316188347},{"NoteNumber":60,"Velocity":102,"Duration":2000000,"SoundDuration":2000000,"Delta":316188347},{"NoteNumber":62,"Velocity":102,"Duration":2000000,"SoundDuration":2000000,"Delta":316188347},{"NoteNumber":42,"Velocity":71,"Duration":2000000,"SoundDuration":2000000,"Delta":316188347},{"NoteNumber":54,"Velocity":84,"Duration":2000000,"SoundDuration":2000000,"Delta":316188347},{"NoteNumber":55,"Velocity":87,"Duration":4125000,"SoundDuration":4125000,"Delta":318188347},{"NoteNumber":58,"Velocity":87,"Duration":4125000,"SoundDuration":4125000,"Delta":318188347},{"NoteNumber":62,"Velocity":87,"Duration":4125000,"SoundDuration":4125000,"Delta":318188347},{"NoteNumber":67,"Velocity":102,"Duration":4125000,"SoundDuration":4125000,"Delta":318188347},{"NoteNumber":31,"Velocity":76,"Duration":4125000,"SoundDuration":4125000,"Delta":318188347},{"NoteNumber":34,"Velocity":76,"Duration":4125000,"SoundDuration":4125000,"Delta":318188347},{"NoteNumber":38,"Velocity":76,"Duration":4125000,"SoundDuration":4125000,"Delta":318188347},{"NoteNumber":43,"Velocity":89,"Duration":4125000,"SoundDuration":4125000,"Delta":318188347},{"NoteNumber":62,"Velocity":44,"Duration":356249,"SoundDuration":356249,"Delta":322313347},{"NoteNumber":67,"Velocity":51,"Duration":356249,"SoundDuration":356249,"Delta":322313347},{"NoteNumber":58,"Velocity":39,"Duration":356249,"SoundDuration":356249,"Delta":322313347},{"NoteNumber":62,"Velocity":46,"Duration":1125000,"SoundDuration":1125000,"Delta":322688347},{"NoteNumber":66,"Velocity":46,"Duration":1125000,"SoundDuration":1125000,"Delta":322688347},{"NoteNumber":69,"Velocity":55,"Duration":1125000,"SoundDuration":1125000,"Delta":322688347},{"NoteNumber":57,"Velocity":45,"Duration":1125000,"SoundDuration":1125000,"Delta":322688347},{"NoteNumber":62,"Velocity":42,"Duration":419117,"SoundDuration":419117,"Delta":323813347},{"NoteNumber":67,"Velocity":50,"Duration":419117,"SoundDuration":419117,"Delta":323813347},{"NoteNumber":70,"Velocity":50,"Duration":419117,"SoundDuration":419117,"Delta":323813347},{"NoteNumber":55,"Velocity":39,"Duration":419117,"SoundDuration":419117,"Delta":323813347},{"NoteNumber":64,"Velocity":46,"Duration":3287671,"SoundDuration":3287671,"Delta":324254524},{"NoteNumber":67,"Velocity":55,"Duration":3287671,"SoundDuration":3287671,"Delta":324254524},{"NoteNumber":70,"Velocity":55,"Duration":3287671,"SoundDuration":3287671,"Delta":324254524},{"NoteNumber":61,"Velocity":42,"Duration":3287671,"SoundDuration":3287671,"Delta":324254524},{"NoteNumber":66,"Velocity":31,"Duration":1500000,"SoundDuration":1500000,"Delta":327542196},{"NoteNumber":69,"Velocity":39,"Duration":1500000,"SoundDuration":1500000,"Delta":327542196},{"NoteNumber":62,"Velocity":27,"Duration":1500000,"SoundDuration":1500000,"Delta":327542196},{"NoteNumber":51,"Velocity":86,"Duration":375000,"SoundDuration":375000,"Delta":330167196},{"NoteNumber":66,"Velocity":87,"Duration":4125000,"SoundDuration":4125000,"Delta":330542196},{"NoteNumber":69,"Velocity":87,"Duration":4125000,"SoundDuration":4125000,"Delta":330542196},{"NoteNumber":72,"Velocity":100,"Duration":4125000,"SoundDuration":4125000,"Delta":330542196},{"NoteNumber":63,"Velocity":90,"Duration":4125000,"SoundDuration":4125000,"Delta":330542196},{"NoteNumber":69,"Velocity":44,"Duration":356249,"SoundDuration":356249,"Delta":334667196},{"NoteNumber":66,"Velocity":44,"Duration":356249,"SoundDuration":356249,"Delta":334667196},{"NoteNumber":72,"Velocity":52,"Duration":356249,"SoundDuration":356249,"Delta":334667196},{"NoteNumber":63,"Velocity":39,"Duration":356249,"SoundDuration":356249,"Delta":334667196},{"NoteNumber":66,"Velocity":46,"Duration":1125000,"SoundDuration":1125000,"Delta":335042196},{"NoteNumber":69,"Velocity":46,"Duration":1125000,"SoundDuration":1125000,"Delta":335042196},{"NoteNumber":74,"Velocity":55,"Duration":1125000,"SoundDuration":1125000,"Delta":335042196},{"NoteNumber":62,"Velocity":45,"Duration":1125000,"SoundDuration":1125000,"Delta":335042196},{"NoteNumber":69,"Velocity":51,"Duration":413043,"SoundDuration":413043,"Delta":336167196},{"NoteNumber":75,"Velocity":51,"Duration":413043,"SoundDuration":413043,"Delta":336167196},{"NoteNumber":66,"Velocity":43,"Duration":413043,"SoundDuration":413043,"Delta":336167196},{"NoteNumber":60,"Velocity":39,"Duration":413043,"SoundDuration":413043,"Delta":336167196},{"NoteNumber":75,"Velocity":55,"Duration":3287671,"SoundDuration":3287671,"Delta":336601978},{"NoteNumber":66,"Velocity":46,"Duration":3287671,"SoundDuration":3287671,"Delta":336601978},{"NoteNumber":69,"Velocity":55,"Duration":3287671,"SoundDuration":3287671,"Delta":336601978},{"NoteNumber":58,"Velocity":38,"Duration":4787671,"SoundDuration":4787671,"Delta":336601978},{"NoteNumber":67,"Velocity":32,"Duration":1500000,"SoundDuration":1500000,"Delta":339889650},{"NoteNumber":74,"Velocity":39,"Duration":1500000,"SoundDuration":1500000,"Delta":339889650},{"NoteNumber":70,"Velocity":32,"Duration":1500000,"SoundDuration":1500000,"Delta":339889650},{"NoteNumber":51,"Velocity":81,"Duration":375000,"SoundDuration":375000,"Delta":342514650},{"NoteNumber":66,"Velocity":84,"Duration":4125000,"SoundDuration":4125000,"Delta":342889650},{"NoteNumber":69,"Velocity":84,"Duration":4125000,"SoundDuration":4125000,"Delta":342889650},{"NoteNumber":72,"Velocity":96,"Duration":4125000,"SoundDuration":4125000,"Delta":342889650},{"NoteNumber":63,"Velocity":86,"Duration":4125000,"SoundDuration":4125000,"Delta":342889650},{"NoteNumber":69,"Velocity":46,"Duration":356249,"SoundDuration":356249,"Delta":347014650},{"NoteNumber":66,"Velocity":46,"Duration":356249,"SoundDuration":356249,"Delta":347014650},{"NoteNumber":72,"Velocity":55,"Duration":356249,"SoundDuration":356249,"Delta":347014650},{"NoteNumber":63,"Velocity":42,"Duration":356249,"SoundDuration":356249,"Delta":347014650},{"NoteNumber":66,"Velocity":51,"Duration":1153846,"SoundDuration":1153846,"Delta":347389650},{"NoteNumber":69,"Velocity":51,"Duration":1153846,"SoundDuration":1153846,"Delta":347389650},{"NoteNumber":74,"Velocity":60,"Duration":1153846,"SoundDuration":1153846,"Delta":347389650},{"NoteNumber":62,"Velocity":49,"Duration":1153846,"SoundDuration":1153846,"Delta":347389650},{"NoteNumber":69,"Velocity":63,"Duration":395833,"SoundDuration":395833,"Delta":348543497},{"NoteNumber":75,"Velocity":63,"Duration":395833,"SoundDuration":395833,"Delta":348543497},{"NoteNumber":66,"Velocity":54,"Duration":395833,"SoundDuration":395833,"Delta":348543497},{"NoteNumber":60,"Velocity":49,"Duration":395833,"SoundDuration":395833,"Delta":348543497},{"NoteNumber":75,"Velocity":59,"Duration":3199999,"SoundDuration":3199999,"Delta":348960164},{"NoteNumber":66,"Velocity":50,"Duration":3199999,"SoundDuration":3199999,"Delta":348960164},{"NoteNumber":69,"Velocity":50,"Duration":3199999,"SoundDuration":3199999,"Delta":348960164},{"NoteNumber":60,"Velocity":50,"Duration":1600000,"SoundDuration":1600000,"Delta":348960164},{"NoteNumber":59,"Velocity":43,"Duration":3199999,"SoundDuration":3199999,"Delta":350560164},{"NoteNumber":64,"Velocity":44,"Duration":3199999,"SoundDuration":3199999,"Delta":352160164},{"NoteNumber":67,"Velocity":44,"Duration":3199999,"SoundDuration":3199999,"Delta":352160164},{"NoteNumber":76,"Velocity":52,"Duration":3199999,"SoundDuration":3199999,"Delta":352160164},{"NoteNumber":59,"Velocity":33,"Duration":3199999,"SoundDuration":3199999,"Delta":353760164},{"NoteNumber":63,"Velocity":39,"Duration":3200000,"SoundDuration":3200000,"Delta":355360164},{"NoteNumber":66,"Velocity":39,"Duration":3200000,"SoundDuration":3200000,"Delta":355360164},{"NoteNumber":69,"Velocity":47,"Duration":3200000,"SoundDuration":3200000,"Delta":355360164},{"NoteNumber":47,"Velocity":31,"Duration":3199999,"SoundDuration":3199999,"Delta":356960164},{"NoteNumber":59,"Velocity":35,"Duration":3207511,"SoundDuration":3207511,"Delta":358560164},{"NoteNumber":64,"Velocity":35,"Duration":3207511,"SoundDuration":3207511,"Delta":358560164},{"NoteNumber":67,"Velocity":43,"Duration":3207511,"SoundDuration":3207511,"Delta":358560164},{"NoteNumber":47,"Velocity":28,"Duration":3330375,"SoundDuration":3330375,"Delta":360160164},{"NoteNumber":57,"Velocity":33,"Duration":3532342,"SoundDuration":3532342,"Delta":361767675},{"NoteNumber":60,"Velocity":33,"Duration":3532342,"SoundDuration":3532342,"Delta":361767675},{"NoteNumber":63,"Velocity":39,"Duration":3532342,"SoundDuration":3532342,"Delta":361767675},{"NoteNumber":66,"Velocity":39,"Duration":3532342,"SoundDuration":3532342,"Delta":361767675},{"NoteNumber":35,"Velocity":25,"Duration":3684478,"SoundDuration":3684478,"Delta":363490539},{"NoteNumber":54,"Velocity":28,"Duration":5303570,"SoundDuration":5303570,"Delta":365300018},{"NoteNumber":57,"Velocity":28,"Duration":5303570,"SoundDuration":5303570,"Delta":365300018},{"NoteNumber":63,"Velocity":34,"Duration":5303570,"SoundDuration":5303570,"Delta":365300018},{"NoteNumber":35,"Velocity":22,"Duration":3428570,"SoundDuration":3428570,"Delta":367175018},{"NoteNumber":64,"Velocity":61,"Duration":77736,"SoundDuration":77736,"Delta":370603589},{"NoteNumber":40,"Velocity":55,"Duration":196932,"SoundDuration":196932,"Delta":370603589},{"NoteNumber":52,"Velocity":50,"Duration":103648,"SoundDuration":103648,"Delta":370707237},{"NoteNumber":69,"Velocity":55,"Duration":73075,"SoundDuration":73075,"Delta":370810886},{"NoteNumber":40,"Velocity":53,"Duration":185125,"SoundDuration":185125,"Delta":370810886},{"NoteNumber":52,"Velocity":47,"Duration":97434,"SoundDuration":97434,"Delta":370908320},{"NoteNumber":67,"Velocity":58,"Duration":73075,"SoundDuration":73075,"Delta":371005754},{"NoteNumber":40,"Velocity":53,"Duration":185125,"SoundDuration":185125,"Delta":371005754},{"NoteNumber":52,"Velocity":47,"Duration":97434,"SoundDuration":97434,"Delta":371103188},{"NoteNumber":69,"Velocity":47,"Duration":73075,"SoundDuration":73075,"Delta":371200623},{"NoteNumber":75,"Velocity":56,"Duration":73075,"SoundDuration":73075,"Delta":371200623},{"NoteNumber":40,"Velocity":52,"Duration":185125,"SoundDuration":185125,"Delta":371200623},{"NoteNumber":52,"Velocity":48,"Duration":97434,"SoundDuration":97434,"Delta":371298057},{"NoteNumber":67,"Velocity":51,"Duration":73075,"SoundDuration":73075,"Delta":371395491},{"NoteNumber":76,"Velocity":61,"Duration":73075,"SoundDuration":73075,"Delta":371395491},{"NoteNumber":40,"Velocity":50,"Duration":185125,"SoundDuration":185125,"Delta":371395491},{"NoteNumber":52,"Velocity":53,"Duration":97434,"SoundDuration":97434,"Delta":371492925},{"NoteNumber":75,"Velocity":56,"Duration":72347,"SoundDuration":72347,"Delta":371590360},{"NoteNumber":81,"Velocity":66,"Duration":72347,"SoundDuration":72347,"Delta":371590360},{"NoteNumber":40,"Velocity":54,"Duration":183279,"SoundDuration":183279,"Delta":371590360},{"NoteNumber":52,"Velocity":54,"Duration":96462,"SoundDuration":96462,"Delta":371686823},{"NoteNumber":76,"Velocity":60,"Duration":72347,"SoundDuration":72347,"Delta":371783286},{"NoteNumber":79,"Velocity":71,"Duration":72347,"SoundDuration":72347,"Delta":371783286},{"NoteNumber":40,"Velocity":56,"Duration":183279,"SoundDuration":183279,"Delta":371783286},{"NoteNumber":52,"Velocity":58,"Duration":96462,"SoundDuration":96462,"Delta":371879749},{"NoteNumber":81,"Velocity":62,"Duration":72347,"SoundDuration":72347,"Delta":371976212},{"NoteNumber":87,"Velocity":73,"Duration":72347,"SoundDuration":72347,"Delta":371976212},{"NoteNumber":40,"Velocity":62,"Duration":183279,"SoundDuration":183279,"Delta":371976212},{"NoteNumber":52,"Velocity":57,"Duration":96462,"SoundDuration":96462,"Delta":372072675},{"NoteNumber":79,"Velocity":68,"Duration":198359,"SoundDuration":198359,"Delta":372169138},{"NoteNumber":88,"Velocity":80,"Duration":198359,"SoundDuration":198359,"Delta":372169138},{"NoteNumber":52,"Velocity":63,"Duration":188442,"SoundDuration":188442,"Delta":372169138},{"NoteNumber":40,"Velocity":53,"Duration":188442,"SoundDuration":188442,"Delta":372169138},{"NoteNumber":55,"Velocity":46,"Duration":188442,"SoundDuration":188442,"Delta":372367498},{"NoteNumber":59,"Velocity":55,"Duration":188442,"SoundDuration":188442,"Delta":372367498},{"NoteNumber":64,"Velocity":68,"Duration":198359,"SoundDuration":198359,"Delta":372565858},{"NoteNumber":76,"Velocity":80,"Duration":198359,"SoundDuration":198359,"Delta":372565858},{"NoteNumber":55,"Velocity":46,"Duration":188442,"SoundDuration":188442,"Delta":372565858},{"NoteNumber":59,"Velocity":55,"Duration":188442,"SoundDuration":188442,"Delta":372565858},{"NoteNumber":55,"Velocity":46,"Duration":188442,"SoundDuration":188442,"Delta":372764218},{"NoteNumber":59,"Velocity":55,"Duration":188442,"SoundDuration":188442,"Delta":372764218},{"NoteNumber":52,"Velocity":63,"Duration":188442,"SoundDuration":188442,"Delta":372962578},{"NoteNumber":64,"Velocity":52,"Duration":74385,"SoundDuration":74385,"Delta":373160938},{"NoteNumber":76,"Velocity":62,"Duration":74385,"SoundDuration":74385,"Delta":373160938},{"NoteNumber":55,"Velocity":46,"Duration":188442,"SoundDuration":188442,"Delta":373160938},{"NoteNumber":59,"Velocity":55,"Duration":188442,"SoundDuration":188442,"Delta":373160938},{"NoteNumber":66,"Velocity":56,"Duration":73051,"SoundDuration":73051,"Delta":373359298},{"NoteNumber":78,"Velocity":67,"Duration":73051,"SoundDuration":73051,"Delta":373359298},{"NoteNumber":55,"Velocity":46,"Duration":185064,"SoundDuration":185064,"Delta":373359298},{"NoteNumber":59,"Velocity":55,"Duration":185064,"SoundDuration":185064,"Delta":373359298},{"NoteNumber":67,"Velocity":52,"Duration":77319,"SoundDuration":77319,"Delta":373554103},{"NoteNumber":79,"Velocity":62,"Duration":77319,"SoundDuration":77319,"Delta":373554103},{"NoteNumber":55,"Velocity":43,"Duration":195876,"SoundDuration":195876,"Delta":373554103},{"NoteNumber":59,"Velocity":51,"Duration":195876,"SoundDuration":195876,"Delta":373554103},{"NoteNumber":67,"Velocity":56,"Duration":398670,"SoundDuration":398670,"Delta":373760288},{"NoteNumber":79,"Velocity":66,"Duration":398670,"SoundDuration":398670,"Delta":373760288},{"NoteNumber":52,"Velocity":55,"Duration":189368,"SoundDuration":189368,"Delta":373760288},{"NoteNumber":57,"Velocity":40,"Duration":189368,"SoundDuration":189368,"Delta":373959624},{"NoteNumber":60,"Velocity":48,"Duration":189368,"SoundDuration":189368,"Delta":373959624},{"NoteNumber":66,"Velocity":52,"Duration":199335,"SoundDuration":199335,"Delta":374158959},{"NoteNumber":78,"Velocity":62,"Duration":199335,"SoundDuration":199335,"Delta":374158959},{"NoteNumber":57,"Velocity":40,"Duration":189368,"SoundDuration":189368,"Delta":374158959},{"NoteNumber":60,"Velocity":48,"Duration":189368,"SoundDuration":189368,"Delta":374158959},{"NoteNumber":57,"Velocity":40,"Duration":189368,"SoundDuration":189368,"Delta":374358295},{"NoteNumber":60,"Velocity":48,"Duration":189368,"SoundDuration":189368,"Delta":374358295},{"NoteNumber":51,"Velocity":63,"Duration":187500,"SoundDuration":187500,"Delta":374557630},{"NoteNumber":66,"Velocity":52,"Duration":74013,"SoundDuration":74013,"Delta":374754999},{"NoteNumber":78,"Velocity":62,"Duration":74013,"SoundDuration":74013,"Delta":374754999},{"NoteNumber":57,"Velocity":46,"Duration":187500,"SoundDuration":187500,"Delta":374754999},{"NoteNumber":60,"Velocity":55,"Duration":187500,"SoundDuration":187500,"Delta":374754999},{"NoteNumber":67,"Velocity":56,"Duration":73051,"SoundDuration":73051,"Delta":374952367},{"NoteNumber":79,"Velocity":67,"Duration":73051,"SoundDuration":73051,"Delta":374952367},{"NoteNumber":57,"Velocity":46,"Duration":185064,"SoundDuration":185064,"Delta":374952367},{"NoteNumber":60,"Velocity":55,"Duration":185064,"SoundDuration":185064,"Delta":374952367},{"NoteNumber":69,"Velocity":52,"Duration":77319,"SoundDuration":77319,"Delta":375147172},{"NoteNumber":81,"Velocity":62,"Duration":77319,"SoundDuration":77319,"Delta":375147172},{"NoteNumber":57,"Velocity":43,"Duration":195876,"SoundDuration":195876,"Delta":375147172},{"NoteNumber":60,"Velocity":51,"Duration":195876,"SoundDuration":195876,"Delta":375147172},{"NoteNumber":69,"Velocity":52,"Duration":77736,"SoundDuration":77736,"Delta":375353358},{"NoteNumber":81,"Velocity":62,"Duration":77736,"SoundDuration":77736,"Delta":375353358},{"NoteNumber":38,"Velocity":55,"Duration":196932,"SoundDuration":196932,"Delta":375353358},{"NoteNumber":50,"Velocity":50,"Duration":103648,"SoundDuration":103648,"Delta":375457006},{"NoteNumber":67,"Velocity":55,"Duration":73075,"SoundDuration":73075,"Delta":375560655},{"NoteNumber":38,"Velocity":53,"Duration":185125,"SoundDuration":185125,"Delta":375560655},{"NoteNumber":50,"Velocity":47,"Duration":97434,"SoundDuration":97434,"Delta":375658089},{"NoteNumber":66,"Velocity":58,"Duration":73075,"SoundDuration":73075,"Delta":375755523},{"NoteNumber":38,"Velocity":53,"Duration":185125,"SoundDuration":185125,"Delta":375755523},{"NoteNumber":50,"Velocity":47,"Duration":97434,"SoundDuration":97434,"Delta":375852957},{"NoteNumber":67,"Velocity":47,"Duration":73075,"SoundDuration":73075,"Delta":375950392},{"NoteNumber":73,"Velocity":56,"Duration":73075,"SoundDuration":73075,"Delta":375950392},{"NoteNumber":38,"Velocity":52,"Duration":185125,"SoundDuration":185125,"Delta":375950392},{"NoteNumber":50,"Velocity":48,"Duration":97434,"SoundDuration":97434,"Delta":376047826},{"NoteNumber":66,"Velocity":51,"Duration":73075,"SoundDuration":73075,"Delta":376145260},{"NoteNumber":74,"Velocity":61,"Duration":73075,"SoundDuration":73075,"Delta":376145260},{"NoteNumber":38,"Velocity":50,"Duration":185125,"SoundDuration":185125,"Delta":376145260},{"NoteNumber":50,"Velocity":53,"Duration":97434,"SoundDuration":97434,"Delta":376242694},{"NoteNumber":73,"Velocity":56,"Duration":72347,"SoundDuration":72347,"Delta":376340129},{"NoteNumber":79,"Velocity":66,"Duration":72347,"SoundDuration":72347,"Delta":376340129},{"NoteNumber":38,"Velocity":54,"Duration":183279,"SoundDuration":183279,"Delta":376340129},{"NoteNumber":50,"Velocity":54,"Duration":96462,"SoundDuration":96462,"Delta":376436592},{"NoteNumber":74,"Velocity":60,"Duration":72347,"SoundDuration":72347,"Delta":376533055},{"NoteNumber":78,"Velocity":71,"Duration":72347,"SoundDuration":72347,"Delta":376533055},{"NoteNumber":38,"Velocity":56,"Duration":183279,"SoundDuration":183279,"Delta":376533055},{"NoteNumber":50,"Velocity":58,"Duration":96462,"SoundDuration":96462,"Delta":376629518},{"NoteNumber":79,"Velocity":62,"Duration":72347,"SoundDuration":72347,"Delta":376725981},{"NoteNumber":85,"Velocity":73,"Duration":72347,"SoundDuration":72347,"Delta":376725981},{"NoteNumber":38,"Velocity":62,"Duration":183279,"SoundDuration":183279,"Delta":376725981},{"NoteNumber":50,"Velocity":57,"Duration":96462,"SoundDuration":96462,"Delta":376822444},{"NoteNumber":78,"Velocity":68,"Duration":198359,"SoundDuration":198359,"Delta":376918907},{"NoteNumber":86,"Velocity":80,"Duration":198359,"SoundDuration":198359,"Delta":376918907},{"NoteNumber":50,"Velocity":63,"Duration":188442,"SoundDuration":188442,"Delta":376918907},{"NoteNumber":38,"Velocity":53,"Duration":188442,"SoundDuration":188442,"Delta":376918907},{"NoteNumber":57,"Velocity":46,"Duration":188442,"SoundDuration":188442,"Delta":377117267},{"NoteNumber":60,"Velocity":55,"Duration":188442,"SoundDuration":188442,"Delta":377117267},{"NoteNumber":66,"Velocity":68,"Duration":198359,"SoundDuration":198359,"Delta":377315627},{"NoteNumber":78,"Velocity":80,"Duration":198359,"SoundDuration":198359,"Delta":377315627},{"NoteNumber":57,"Velocity":46,"Duration":188442,"SoundDuration":188442,"Delta":377315627},{"NoteNumber":60,"Velocity":55,"Duration":188442,"SoundDuration":188442,"Delta":377315627},{"NoteNumber":57,"Velocity":46,"Duration":188442,"SoundDuration":188442,"Delta":377513987},{"NoteNumber":60,"Velocity":55,"Duration":188442,"SoundDuration":188442,"Delta":377513987},{"NoteNumber":50,"Velocity":63,"Duration":188442,"SoundDuration":188442,"Delta":377712347},{"NoteNumber":66,"Velocity":52,"Duration":74385,"SoundDuration":74385,"Delta":377910707},{"NoteNumber":78,"Velocity":62,"Duration":74385,"SoundDuration":74385,"Delta":377910707},{"NoteNumber":57,"Velocity":46,"Duration":188442,"SoundDuration":188442,"Delta":377910707},{"NoteNumber":60,"Velocity":55,"Duration":188442,"SoundDuration":188442,"Delta":377910707},{"NoteNumber":67,"Velocity":56,"Duration":73051,"SoundDuration":73051,"Delta":378109067},{"NoteNumber":79,"Velocity":67,"Duration":73051,"SoundDuration":73051,"Delta":378109067},{"NoteNumber":57,"Velocity":46,"Duration":185064,"SoundDuration":185064,"Delta":378109067},{"NoteNumber":60,"Velocity":55,"Duration":185064,"SoundDuration":185064,"Delta":378109067},{"NoteNumber":69,"Velocity":52,"Duration":77319,"SoundDuration":77319,"Delta":378303872},{"NoteNumber":81,"Velocity":62,"Duration":77319,"SoundDuration":77319,"Delta":378303872},{"NoteNumber":57,"Velocity":43,"Duration":195876,"SoundDuration":195876,"Delta":378303872},{"NoteNumber":60,"Velocity":51,"Duration":195876,"SoundDuration":195876,"Delta":378303872},{"NoteNumber":69,"Velocity":56,"Duration":398670,"SoundDuration":398670,"Delta":378510057},{"NoteNumber":81,"Velocity":66,"Duration":398670,"SoundDuration":398670,"Delta":378510057},{"NoteNumber":50,"Velocity":55,"Duration":189368,"SoundDuration":189368,"Delta":378510057},{"NoteNumber":55,"Velocity":40,"Duration":189368,"SoundDuration":189368,"Delta":378709393},{"NoteNumber":58,"Velocity":48,"Duration":189368,"SoundDuration":189368,"Delta":378709393},{"NoteNumber":67,"Velocity":52,"Duration":199335,"SoundDuration":199335,"Delta":378908728},{"NoteNumber":79,"Velocity":62,"Duration":199335,"SoundDuration":199335,"Delta":378908728},{"NoteNumber":55,"Velocity":40,"Duration":189368,"SoundDuration":189368,"Delta":378908728},{"NoteNumber":58,"Velocity":48,"Duration":189368,"SoundDuration":189368,"Delta":378908728},{"NoteNumber":55,"Velocity":40,"Duration":189368,"SoundDuration":189368,"Delta":379108064},{"NoteNumber":58,"Velocity":48,"Duration":189368,"SoundDuration":189368,"Delta":379108064},{"NoteNumber":49,"Velocity":63,"Duration":187500,"SoundDuration":187500,"Delta":379307399},{"NoteNumber":67,"Velocity":52,"Duration":74013,"SoundDuration":74013,"Delta":379504768},{"NoteNumber":79,"Velocity":62,"Duration":74013,"SoundDuration":74013,"Delta":379504768},{"NoteNumber":55,"Velocity":46,"Duration":187500,"SoundDuration":187500,"Delta":379504768},{"NoteNumber":58,"Velocity":55,"Duration":187500,"SoundDuration":187500,"Delta":379504768},{"NoteNumber":69,"Velocity":56,"Duration":73051,"SoundDuration":73051,"Delta":379702136},{"NoteNumber":81,"Velocity":67,"Duration":73051,"SoundDuration":73051,"Delta":379702136},{"NoteNumber":55,"Velocity":46,"Duration":185064,"SoundDuration":185064,"Delta":379702136},{"NoteNumber":58,"Velocity":55,"Duration":185064,"SoundDuration":185064,"Delta":379702136},{"NoteNumber":70,"Velocity":52,"Duration":77319,"SoundDuration":77319,"Delta":379896941},{"NoteNumber":82,"Velocity":62,"Duration":77319,"SoundDuration":77319,"Delta":379896941},{"NoteNumber":55,"Velocity":43,"Duration":195876,"SoundDuration":195876,"Delta":379896941},{"NoteNumber":58,"Velocity":51,"Duration":195876,"SoundDuration":195876,"Delta":379896941},{"NoteNumber":70,"Velocity":58,"Duration":189999,"SoundDuration":189999,"Delta":380103127},{"NoteNumber":36,"Velocity":53,"Duration":199999,"SoundDuration":199999,"Delta":380103127},{"NoteNumber":48,"Velocity":53,"Duration":199999,"SoundDuration":199999,"Delta":380103127},{"NoteNumber":82,"Velocity":52,"Duration":99999,"SoundDuration":99999,"Delta":380203127},{"NoteNumber":70,"Velocity":58,"Duration":183871,"SoundDuration":183871,"Delta":380303127},{"NoteNumber":49,"Velocity":55,"Duration":193548,"SoundDuration":193548,"Delta":380303127},{"NoteNumber":82,"Velocity":53,"Duration":96774,"SoundDuration":96774,"Delta":380399901},{"NoteNumber":70,"Velocity":58,"Duration":190635,"SoundDuration":190635,"Delta":380496675},{"NoteNumber":48,"Velocity":51,"Duration":200669,"SoundDuration":200669,"Delta":380496675},{"NoteNumber":82,"Velocity":52,"Duration":100334,"SoundDuration":100334,"Delta":380597010},{"NoteNumber":70,"Velocity":58,"Duration":183279,"SoundDuration":183279,"Delta":380697344},{"NoteNumber":53,"Velocity":55,"Duration":192925,"SoundDuration":192925,"Delta":380697344},{"NoteNumber":82,"Velocity":52,"Duration":96462,"SoundDuration":96462,"Delta":380793807},{"NoteNumber":70,"Velocity":58,"Duration":189999,"SoundDuration":189999,"Delta":380890270},{"NoteNumber":52,"Velocity":52,"Duration":199999,"SoundDuration":199999,"Delta":380890270},{"NoteNumber":82,"Velocity":52,"Duration":99999,"SoundDuration":99999,"Delta":380990270},{"NoteNumber":70,"Velocity":58,"Duration":183871,"SoundDuration":183871,"Delta":381090270},{"NoteNumber":61,"Velocity":55,"Duration":193548,"SoundDuration":193548,"Delta":381090270},{"NoteNumber":82,"Velocity":53,"Duration":96774,"SoundDuration":96774,"Delta":381187044},{"NoteNumber":70,"Velocity":58,"Duration":189999,"SoundDuration":189999,"Delta":381283819},{"NoteNumber":60,"Velocity":51,"Duration":199999,"SoundDuration":199999,"Delta":381283819},{"NoteNumber":82,"Velocity":52,"Duration":99999,"SoundDuration":99999,"Delta":381383819},{"NoteNumber":70,"Velocity":58,"Duration":183279,"SoundDuration":183279,"Delta":381483819},{"NoteNumber":65,"Velocity":55,"Duration":192925,"SoundDuration":192925,"Delta":381483819},{"NoteNumber":82,"Velocity":52,"Duration":96462,"SoundDuration":96462,"Delta":381580282},{"NoteNumber":70,"Velocity":58,"Duration":191275,"SoundDuration":191275,"Delta":381676745},{"NoteNumber":64,"Velocity":51,"Duration":201342,"SoundDuration":201342,"Delta":381676745},{"NoteNumber":82,"Velocity":52,"Duration":100671,"SoundDuration":100671,"Delta":381777416},{"NoteNumber":70,"Velocity":58,"Duration":185667,"SoundDuration":185667,"Delta":381878087},{"NoteNumber":66,"Velocity":55,"Duration":195439,"SoundDuration":195439,"Delta":381878087},{"NoteNumber":82,"Velocity":53,"Duration":97719,"SoundDuration":97719,"Delta":381975807},{"NoteNumber":70,"Velocity":58,"Duration":185667,"SoundDuration":185667,"Delta":382073527},{"NoteNumber":67,"Velocity":57,"Duration":195439,"SoundDuration":195439,"Delta":382073527},{"NoteNumber":82,"Velocity":52,"Duration":97719,"SoundDuration":97719,"Delta":382171246},{"NoteNumber":70,"Velocity":58,"Duration":185667,"SoundDuration":185667,"Delta":382268966},{"NoteNumber":82,"Velocity":52,"Duration":97719,"SoundDuration":97719,"Delta":382366686},{"NoteNumber":70,"Velocity":58,"Duration":183871,"SoundDuration":183871,"Delta":382464406},{"NoteNumber":82,"Velocity":52,"Duration":96774,"SoundDuration":96774,"Delta":382561180},{"NoteNumber":70,"Velocity":58,"Duration":183871,"SoundDuration":183871,"Delta":382657954},{"NoteNumber":82,"Velocity":53,"Duration":96774,"SoundDuration":96774,"Delta":382754728},{"NoteNumber":70,"Velocity":58,"Duration":183871,"SoundDuration":183871,"Delta":382851503},{"NoteNumber":82,"Velocity":52,"Duration":96774,"SoundDuration":96774,"Delta":382948277},{"NoteNumber":70,"Velocity":58,"Duration":183871,"SoundDuration":183871,"Delta":383045051},{"NoteNumber":82,"Velocity":52,"Duration":96774,"SoundDuration":96774,"Delta":383141825},{"NoteNumber":69,"Velocity":58,"Duration":189999,"SoundDuration":189999,"Delta":383238600},{"NoteNumber":81,"Velocity":52,"Duration":99999,"SoundDuration":99999,"Delta":383338600},{"NoteNumber":69,"Velocity":58,"Duration":183871,"SoundDuration":183871,"Delta":383438600},{"NoteNumber":42,"Velocity":55,"Duration":193548,"SoundDuration":193548,"Delta":383438600},{"NoteNumber":81,"Velocity":53,"Duration":96774,"SoundDuration":96774,"Delta":383535374},{"NoteNumber":69,"Velocity":58,"Duration":190635,"SoundDuration":190635,"Delta":383632148},{"NoteNumber":41,"Velocity":51,"Duration":200669,"SoundDuration":200669,"Delta":383632148},{"NoteNumber":81,"Velocity":52,"Duration":100334,"SoundDuration":100334,"Delta":383732483},{"NoteNumber":69,"Velocity":58,"Duration":183279,"SoundDuration":183279,"Delta":383832817},{"NoteNumber":49,"Velocity":55,"Duration":192925,"SoundDuration":192925,"Delta":383832817},{"NoteNumber":81,"Velocity":52,"Duration":96462,"SoundDuration":96462,"Delta":383929280},{"NoteNumber":69,"Velocity":58,"Duration":189999,"SoundDuration":189999,"Delta":384025743},{"NoteNumber":48,"Velocity":52,"Duration":199999,"SoundDuration":199999,"Delta":384025743},{"NoteNumber":81,"Velocity":52,"Duration":99999,"SoundDuration":99999,"Delta":384125743},{"NoteNumber":69,"Velocity":58,"Duration":183871,"SoundDuration":183871,"Delta":384225743},{"NoteNumber":54,"Velocity":55,"Duration":193548,"SoundDuration":193548,"Delta":384225743},{"NoteNumber":81,"Velocity":53,"Duration":96774,"SoundDuration":96774,"Delta":384322517},{"NoteNumber":69,"Velocity":58,"Duration":189999,"SoundDuration":189999,"Delta":384419292},{"NoteNumber":53,"Velocity":51,"Duration":199999,"SoundDuration":199999,"Delta":384419292},{"NoteNumber":81,"Velocity":52,"Duration":99999,"SoundDuration":99999,"Delta":384519292},{"NoteNumber":69,"Velocity":58,"Duration":183279,"SoundDuration":183279,"Delta":384619292},{"NoteNumber":61,"Velocity":55,"Duration":192925,"SoundDuration":192925,"Delta":384619292},{"NoteNumber":81,"Velocity":52,"Duration":96462,"SoundDuration":96462,"Delta":384715755},{"NoteNumber":69,"Velocity":58,"Duration":191275,"SoundDuration":191275,"Delta":384812218},{"NoteNumber":60,"Velocity":51,"Duration":201342,"SoundDuration":201342,"Delta":384812218},{"NoteNumber":81,"Velocity":52,"Duration":100671,"SoundDuration":100671,"Delta":384912889},{"NoteNumber":69,"Velocity":58,"Duration":185667,"SoundDuration":185667,"Delta":385013560},{"NoteNumber":64,"Velocity":55,"Duration":195439,"SoundDuration":195439,"Delta":385013560},{"NoteNumber":81,"Velocity":53,"Duration":97719,"SoundDuration":97719,"Delta":385111280},{"NoteNumber":69,"Velocity":58,"Duration":185667,"SoundDuration":185667,"Delta":385209000},{"NoteNumber":65,"Velocity":57,"Duration":195439,"SoundDuration":195439,"Delta":385209000},{"NoteNumber":81,"Velocity":52,"Duration":97719,"SoundDuration":97719,"Delta":385306719},{"NoteNumber":69,"Velocity":58,"Duration":185667,"SoundDuration":185667,"Delta":385404439},{"NoteNumber":81,"Velocity":52,"Duration":97719,"SoundDuration":97719,"Delta":385502159},{"NoteNumber":69,"Velocity":58,"Duration":183871,"SoundDuration":183871,"Delta":385599879},{"NoteNumber":81,"Velocity":52,"Duration":96774,"SoundDuration":96774,"Delta":385696653},{"NoteNumber":69,"Velocity":58,"Duration":183871,"SoundDuration":183871,"Delta":385793427},{"NoteNumber":81,"Velocity":53,"Duration":96774,"SoundDuration":96774,"Delta":385890201},{"NoteNumber":69,"Velocity":58,"Duration":183871,"SoundDuration":183871,"Delta":385986976},{"NoteNumber":81,"Velocity":52,"Duration":96774,"SoundDuration":96774,"Delta":386083750},{"NoteNumber":69,"Velocity":58,"Duration":183871,"SoundDuration":183871,"Delta":386180524},{"NoteNumber":81,"Velocity":52,"Duration":96774,"SoundDuration":96774,"Delta":386277298},{"NoteNumber":68,"Velocity":58,"Duration":189999,"SoundDuration":189999,"Delta":386374073},{"NoteNumber":80,"Velocity":52,"Duration":99999,"SoundDuration":99999,"Delta":386474073},{"NoteNumber":68,"Velocity":58,"Duration":183871,"SoundDuration":183871,"Delta":386574073},{"NoteNumber":48,"Velocity":55,"Duration":193548,"SoundDuration":193548,"Delta":386574073},{"NoteNumber":80,"Velocity":53,"Duration":96774,"SoundDuration":96774,"Delta":386670847},{"NoteNumber":68,"Velocity":58,"Duration":190635,"SoundDuration":190635,"Delta":386767621},{"NoteNumber":47,"Velocity":51,"Duration":200669,"SoundDuration":200669,"Delta":386767621},{"NoteNumber":80,"Velocity":52,"Duration":100334,"SoundDuration":100334,"Delta":386867956},{"NoteNumber":68,"Velocity":58,"Duration":183279,"SoundDuration":183279,"Delta":386968290},{"NoteNumber":50,"Velocity":55,"Duration":192925,"SoundDuration":192925,"Delta":386968290},{"NoteNumber":80,"Velocity":52,"Duration":96462,"SoundDuration":96462,"Delta":387064753},{"NoteNumber":68,"Velocity":58,"Duration":189999,"SoundDuration":189999,"Delta":387161216},{"NoteNumber":53,"Velocity":52,"Duration":199999,"SoundDuration":199999,"Delta":387161216},{"NoteNumber":80,"Velocity":52,"Duration":99999,"SoundDuration":99999,"Delta":387261216},{"NoteNumber":68,"Velocity":58,"Duration":183871,"SoundDuration":183871,"Delta":387361216},{"NoteNumber":60,"Velocity":55,"Duration":193548,"SoundDuration":193548,"Delta":387361216},{"NoteNumber":80,"Velocity":53,"Duration":96774,"SoundDuration":96774,"Delta":387457990},{"NoteNumber":68,"Velocity":58,"Duration":189999,"SoundDuration":189999,"Delta":387554765},{"NoteNumber":59,"Velocity":51,"Duration":199999,"SoundDuration":199999,"Delta":387554765},{"NoteNumber":80,"Velocity":52,"Duration":99999,"SoundDuration":99999,"Delta":387654765},{"NoteNumber":68,"Velocity":58,"Duration":183279,"SoundDuration":183279,"Delta":387754765},{"NoteNumber":62,"Velocity":55,"Duration":192925,"SoundDuration":192925,"Delta":387754765},{"NoteNumber":80,"Velocity":52,"Duration":96462,"SoundDuration":96462,"Delta":387851228},{"NoteNumber":68,"Velocity":58,"Duration":185688,"SoundDuration":185688,"Delta":387947691},{"NoteNumber":65,"Velocity":54,"Duration":92833,"SoundDuration":92833,"Delta":387947691},{"NoteNumber":80,"Velocity":52,"Duration":97773,"SoundDuration":97773,"Delta":388045410},{"NoteNumber":68,"Velocity":58,"Duration":186093,"SoundDuration":186093,"Delta":388143183},{"NoteNumber":80,"Velocity":53,"Duration":97826,"SoundDuration":97826,"Delta":388241223},{"NoteNumber":68,"Velocity":58,"Duration":185329,"SoundDuration":185329,"Delta":388339049},{"NoteNumber":62,"Velocity":54,"Duration":97666,"SoundDuration":97666,"Delta":388339049},{"NoteNumber":80,"Velocity":52,"Duration":97402,"SoundDuration":97402,"Delta":388436716},{"NoteNumber":68,"Velocity":58,"Duration":184550,"SoundDuration":184550,"Delta":388534118},{"NoteNumber":80,"Velocity":52,"Duration":97035,"SoundDuration":97035,"Delta":388631311},{"NoteNumber":68,"Velocity":58,"Duration":183871,"SoundDuration":183871,"Delta":388728346},{"NoteNumber":59,"Velocity":53,"Duration":96774,"SoundDuration":96774,"Delta":388728346},{"NoteNumber":80,"Velocity":54,"Duration":96774,"SoundDuration":96774,"Delta":388825120},{"NoteNumber":67,"Velocity":58,"Duration":183871,"SoundDuration":183871,"Delta":388921894},{"NoteNumber":79,"Velocity":54,"Duration":96774,"SoundDuration":96774,"Delta":389018669},{"NoteNumber":67,"Velocity":58,"Duration":183871,"SoundDuration":183871,"Delta":389115443},{"NoteNumber":55,"Velocity":52,"Duration":96774,"SoundDuration":96774,"Delta":389115443},{"NoteNumber":79,"Velocity":54,"Duration":96774,"SoundDuration":96774,"Delta":389212217},{"NoteNumber":65,"Velocity":58,"Duration":187075,"SoundDuration":187075,"Delta":389308991},{"NoteNumber":77,"Velocity":54,"Duration":100334,"SoundDuration":100334,"Delta":389405766},{"NoteNumber":65,"Velocity":56,"Duration":183871,"SoundDuration":183871,"Delta":389506100},{"NoteNumber":49,"Velocity":43,"Duration":193548,"SoundDuration":193548,"Delta":389506100},{"NoteNumber":61,"Velocity":51,"Duration":193548,"SoundDuration":193548,"Delta":389506100},{"NoteNumber":77,"Velocity":56,"Duration":96774,"SoundDuration":96774,"Delta":389602874},{"NoteNumber":64,"Velocity":56,"Duration":183871,"SoundDuration":183871,"Delta":389699649},{"NoteNumber":76,"Velocity":56,"Duration":96774,"SoundDuration":96774,"Delta":389796423},{"NoteNumber":64,"Velocity":55,"Duration":183871,"SoundDuration":183871,"Delta":389893197},{"NoteNumber":46,"Velocity":42,"Duration":193548,"SoundDuration":193548,"Delta":389893197},{"NoteNumber":58,"Velocity":50,"Duration":193548,"SoundDuration":193548,"Delta":389893197},{"NoteNumber":76,"Velocity":55,"Duration":96774,"SoundDuration":96774,"Delta":389989971},{"NoteNumber":61,"Velocity":55,"Duration":187075,"SoundDuration":187075,"Delta":390086746},{"NoteNumber":73,"Velocity":55,"Duration":100334,"SoundDuration":100334,"Delta":390183520},{"NoteNumber":61,"Velocity":54,"Duration":184466,"SoundDuration":184466,"Delta":390283854},{"NoteNumber":43,"Velocity":41,"Duration":194174,"SoundDuration":194174,"Delta":390283854},{"NoteNumber":55,"Velocity":49,"Duration":194174,"SoundDuration":194174,"Delta":390283854},{"NoteNumber":73,"Velocity":51,"Duration":97087,"SoundDuration":97087,"Delta":390380942},{"NoteNumber":60,"Velocity":54,"Duration":184466,"SoundDuration":184466,"Delta":390478029},{"NoteNumber":72,"Velocity":51,"Duration":97087,"SoundDuration":97087,"Delta":390575117},{"NoteNumber":60,"Velocity":53,"Duration":184466,"SoundDuration":184466,"Delta":390672204},{"NoteNumber":40,"Velocity":40,"Duration":194174,"SoundDuration":194174,"Delta":390672204},{"NoteNumber":52,"Velocity":48,"Duration":194174,"SoundDuration":194174,"Delta":390672204},{"NoteNumber":72,"Velocity":50,"Duration":97087,"SoundDuration":97087,"Delta":390769292},{"NoteNumber":58,"Velocity":53,"Duration":187691,"SoundDuration":187691,"Delta":390866379},{"NoteNumber":70,"Velocity":49,"Duration":100671,"SoundDuration":100671,"Delta":390963467},{"NoteNumber":58,"Velocity":53,"Duration":183871,"SoundDuration":183871,"Delta":391064138},{"NoteNumber":41,"Velocity":40,"Duration":193548,"SoundDuration":193548,"Delta":391064138},{"NoteNumber":53,"Velocity":48,"Duration":193548,"SoundDuration":193548,"Delta":391064138},{"NoteNumber":70,"Velocity":51,"Duration":96774,"SoundDuration":96774,"Delta":391160912},{"NoteNumber":56,"Velocity":53,"Duration":183871,"SoundDuration":183871,"Delta":391257687},{"NoteNumber":68,"Velocity":50,"Duration":96774,"SoundDuration":96774,"Delta":391354461},{"NoteNumber":56,"Velocity":53,"Duration":183871,"SoundDuration":183871,"Delta":391451235},{"NoteNumber":68,"Velocity":50,"Duration":96774,"SoundDuration":96774,"Delta":391548009},{"NoteNumber":55,"Velocity":53,"Duration":187075,"SoundDuration":187075,"Delta":391644784},{"NoteNumber":67,"Velocity":49,"Duration":100334,"SoundDuration":100334,"Delta":391741558},{"NoteNumber":55,"Velocity":53,"Duration":184466,"SoundDuration":184466,"Delta":391841892},{"NoteNumber":29,"Velocity":40,"Duration":194174,"SoundDuration":194174,"Delta":391841892},{"NoteNumber":41,"Velocity":48,"Duration":194174,"SoundDuration":194174,"Delta":391841892},{"NoteNumber":67,"Velocity":53,"Duration":97087,"SoundDuration":97087,"Delta":391938980},{"NoteNumber":53,"Velocity":53,"Duration":184466,"SoundDuration":184466,"Delta":392036067},{"NoteNumber":65,"Velocity":48,"Duration":97087,"SoundDuration":97087,"Delta":392133155},{"NoteNumber":53,"Velocity":53,"Duration":184466,"SoundDuration":184466,"Delta":392230242},{"NoteNumber":65,"Velocity":49,"Duration":97087,"SoundDuration":97087,"Delta":392327330},{"NoteNumber":51,"Velocity":53,"Duration":187996,"SoundDuration":187996,"Delta":392424417},{"NoteNumber":63,"Velocity":49,"Duration":101009,"SoundDuration":101009,"Delta":392521505},{"NoteNumber":51,"Velocity":53,"Duration":184466,"SoundDuration":184466,"Delta":392622515},{"NoteNumber":30,"Velocity":40,"Duration":194174,"SoundDuration":194174,"Delta":392622515},{"NoteNumber":42,"Velocity":48,"Duration":194174,"SoundDuration":194174,"Delta":392622515},{"NoteNumber":63,"Velocity":49,"Duration":97087,"SoundDuration":97087,"Delta":392719602},{"NoteNumber":50,"Velocity":53,"Duration":184466,"SoundDuration":184466,"Delta":392816690},{"NoteNumber":62,"Velocity":49,"Duration":97087,"SoundDuration":97087,"Delta":392913777},{"NoteNumber":50,"Velocity":53,"Duration":184466,"SoundDuration":184466,"Delta":393010865},{"NoteNumber":62,"Velocity":49,"Duration":97087,"SoundDuration":97087,"Delta":393107952},{"NoteNumber":51,"Velocity":53,"Duration":187996,"SoundDuration":187996,"Delta":393205040},{"NoteNumber":63,"Velocity":48,"Duration":101009,"SoundDuration":101009,"Delta":393302127},{"NoteNumber":51,"Velocity":53,"Duration":184466,"SoundDuration":184466,"Delta":393403137},{"NoteNumber":30,"Velocity":40,"Duration":194174,"SoundDuration":194174,"Delta":393403137},{"NoteNumber":42,"Velocity":48,"Duration":194174,"SoundDuration":194174,"Delta":393403137},{"NoteNumber":63,"Velocity":49,"Duration":97087,"SoundDuration":97087,"Delta":393500225},{"NoteNumber":50,"Velocity":53,"Duration":184466,"SoundDuration":184466,"Delta":393597312},{"NoteNumber":62,"Velocity":49,"Duration":97087,"SoundDuration":97087,"Delta":393694400},{"NoteNumber":50,"Velocity":53,"Duration":184466,"SoundDuration":184466,"Delta":393791487},{"NoteNumber":62,"Velocity":49,"Duration":97087,"SoundDuration":97087,"Delta":393888575},{"NoteNumber":48,"Velocity":53,"Duration":184466,"SoundDuration":184466,"Delta":393985662},{"NoteNumber":60,"Velocity":49,"Duration":97087,"SoundDuration":97087,"Delta":394082750},{"NoteNumber":47,"Velocity":53,"Duration":197368,"SoundDuration":197368,"Delta":394179837},{"NoteNumber":59,"Velocity":53,"Duration":197368,"SoundDuration":197368,"Delta":394179837},{"NoteNumber":31,"Velocity":33,"Duration":98684,"SoundDuration":98684,"Delta":394179837},{"NoteNumber":43,"Velocity":33,"Duration":98684,"SoundDuration":98684,"Delta":394278522},{"NoteNumber":31,"Velocity":34,"Duration":98684,"SoundDuration":98684,"Delta":394377206},{"NoteNumber":43,"Velocity":34,"Duration":98684,"SoundDuration":98684,"Delta":394475890},{"NoteNumber":49,"Velocity":40,"Duration":97402,"SoundDuration":97402,"Delta":394574574},{"NoteNumber":31,"Velocity":34,"Duration":97402,"SoundDuration":97402,"Delta":394574574},{"NoteNumber":56,"Velocity":34,"Duration":97402,"SoundDuration":97402,"Delta":394671977},{"NoteNumber":43,"Velocity":34,"Duration":97402,"SoundDuration":97402,"Delta":394671977},{"NoteNumber":52,"Velocity":34,"Duration":97402,"SoundDuration":97402,"Delta":394769379},{"NoteNumber":31,"Velocity":34,"Duration":97402,"SoundDuration":97402,"Delta":394769379},{"NoteNumber":49,"Velocity":34,"Duration":97402,"SoundDuration":97402,"Delta":394866782},{"NoteNumber":43,"Velocity":34,"Duration":97402,"SoundDuration":97402,"Delta":394866782},{"NoteNumber":50,"Velocity":41,"Duration":97402,"SoundDuration":97402,"Delta":394964184},{"NoteNumber":31,"Velocity":34,"Duration":97402,"SoundDuration":97402,"Delta":394964184},{"NoteNumber":56,"Velocity":34,"Duration":97402,"SoundDuration":97402,"Delta":395061587},{"NoteNumber":43,"Velocity":34,"Duration":97402,"SoundDuration":97402,"Delta":395061587},{"NoteNumber":53,"Velocity":34,"Duration":97402,"SoundDuration":97402,"Delta":395158989},{"NoteNumber":31,"Velocity":34,"Duration":97402,"SoundDuration":97402,"Delta":395158989},{"NoteNumber":50,"Velocity":34,"Duration":97402,"SoundDuration":97402,"Delta":395256392},{"NoteNumber":43,"Velocity":34,"Duration":97402,"SoundDuration":97402,"Delta":395256392},{"NoteNumber":48,"Velocity":41,"Duration":97402,"SoundDuration":97402,"Delta":395353794},{"NoteNumber":31,"Velocity":34,"Duration":97402,"SoundDuration":97402,"Delta":395353794},{"NoteNumber":56,"Velocity":34,"Duration":97402,"SoundDuration":97402,"Delta":395451197},{"NoteNumber":43,"Velocity":34,"Duration":97402,"SoundDuration":97402,"Delta":395451197},{"NoteNumber":51,"Velocity":34,"Duration":97402,"SoundDuration":97402,"Delta":395548599},{"NoteNumber":31,"Velocity":34,"Duration":97402,"SoundDuration":97402,"Delta":395548599},{"NoteNumber":48,"Velocity":34,"Duration":97402,"SoundDuration":97402,"Delta":395646002},{"NoteNumber":43,"Velocity":34,"Duration":97402,"SoundDuration":97402,"Delta":395646002},{"NoteNumber":47,"Velocity":40,"Duration":97402,"SoundDuration":97402,"Delta":395743404},{"NoteNumber":31,"Velocity":33,"Duration":97402,"SoundDuration":97402,"Delta":395743404},{"NoteNumber":55,"Velocity":34,"Duration":97402,"SoundDuration":97402,"Delta":395840807},{"NoteNumber":43,"Velocity":33,"Duration":97402,"SoundDuration":97402,"Delta":395840807},{"NoteNumber":50,"Velocity":34,"Duration":97402,"SoundDuration":97402,"Delta":395938209},{"NoteNumber":31,"Velocity":33,"Duration":97402,"SoundDuration":97402,"Delta":395938209},{"NoteNumber":47,"Velocity":34,"Duration":102040,"SoundDuration":102040,"Delta":396035612},{"NoteNumber":43,"Velocity":33,"Duration":102040,"SoundDuration":102040,"Delta":396035612},{"NoteNumber":49,"Velocity":40,"Duration":97402,"SoundDuration":97402,"Delta":396137653},{"NoteNumber":31,"Velocity":33,"Duration":97402,"SoundDuration":97402,"Delta":396137653},{"NoteNumber":56,"Velocity":34,"Duration":97402,"SoundDuration":97402,"Delta":396235055},{"NoteNumber":43,"Velocity":33,"Duration":97402,"SoundDuration":97402,"Delta":396235055},{"NoteNumber":52,"Velocity":34,"Duration":97402,"SoundDuration":97402,"Delta":396332458},{"NoteNumber":31,"Velocity":33,"Duration":97402,"SoundDuration":97402,"Delta":396332458},{"NoteNumber":49,"Velocity":34,"Duration":97402,"SoundDuration":97402,"Delta":396429860},{"NoteNumber":43,"Velocity":33,"Duration":97402,"SoundDuration":97402,"Delta":396429860},{"NoteNumber":50,"Velocity":40,"Duration":97402,"SoundDuration":97402,"Delta":396527263},{"NoteNumber":31,"Velocity":33,"Duration":97402,"SoundDuration":97402,"Delta":396527263},{"NoteNumber":56,"Velocity":34,"Duration":97402,"SoundDuration":97402,"Delta":396624665},{"NoteNumber":43,"Velocity":33,"Duration":97402,"SoundDuration":97402,"Delta":396624665},{"NoteNumber":53,"Velocity":34,"Duration":97402,"SoundDuration":97402,"Delta":396722068},{"NoteNumber":31,"Velocity":33,"Duration":97402,"SoundDuration":97402,"Delta":396722068},{"NoteNumber":50,"Velocity":34,"Duration":97402,"SoundDuration":97402,"Delta":396819470},{"NoteNumber":43,"Velocity":33,"Duration":97402,"SoundDuration":97402,"Delta":396819470},{"NoteNumber":48,"Velocity":39,"Duration":97402,"SoundDuration":97402,"Delta":396916873},{"NoteNumber":31,"Velocity":33,"Duration":97402,"SoundDuration":97402,"Delta":396916873},{"NoteNumber":56,"Velocity":34,"Duration":97402,"SoundDuration":97402,"Delta":397014275},{"NoteNumber":43,"Velocity":33,"Duration":97402,"SoundDuration":97402,"Delta":397014275},{"NoteNumber":51,"Velocity":34,"Duration":98580,"SoundDuration":98580,"Delta":397111678},{"NoteNumber":31,"Velocity":33,"Duration":98580,"SoundDuration":98580,"Delta":397111678},{"NoteNumber":48,"Velocity":34,"Duration":100900,"SoundDuration":100900,"Delta":397210258},{"NoteNumber":43,"Velocity":33,"Duration":100900,"SoundDuration":100900,"Delta":397210258},{"NoteNumber":47,"Velocity":34,"Duration":198019,"SoundDuration":198019,"Delta":397311159},{"NoteNumber":50,"Velocity":34,"Duration":198019,"SoundDuration":198019,"Delta":397311159},{"NoteNumber":55,"Velocity":34,"Duration":198019,"SoundDuration":198019,"Delta":397311159},{"NoteNumber":31,"Velocity":55,"Duration":188118,"SoundDuration":188118,"Delta":397311159},{"NoteNumber":43,"Velocity":50,"Duration":99009,"SoundDuration":99009,"Delta":397410169},{"NoteNumber":64,"Velocity":55,"Duration":73075,"SoundDuration":73075,"Delta":397509179},{"NoteNumber":31,"Velocity":53,"Duration":185125,"SoundDuration":185125,"Delta":397509179},{"NoteNumber":43,"Velocity":47,"Duration":97434,"SoundDuration":97434,"Delta":397606613},{"NoteNumber":65,"Velocity":58,"Duration":73075,"SoundDuration":73075,"Delta":397704047},{"NoteNumber":31,"Velocity":53,"Duration":185125,"SoundDuration":185125,"Delta":397704047},{"NoteNumber":43,"Velocity":47,"Duration":97434,"SoundDuration":97434,"Delta":397801482},{"NoteNumber":64,"Velocity":47,"Duration":73075,"SoundDuration":73075,"Delta":397898916},{"NoteNumber":73,"Velocity":56,"Duration":73075,"SoundDuration":73075,"Delta":397898916},{"NoteNumber":31,"Velocity":52,"Duration":185125,"SoundDuration":185125,"Delta":397898916},{"NoteNumber":43,"Velocity":48,"Duration":97434,"SoundDuration":97434,"Delta":397996350},{"NoteNumber":65,"Velocity":51,"Duration":73075,"SoundDuration":73075,"Delta":398093784},{"NoteNumber":74,"Velocity":61,"Duration":73075,"SoundDuration":73075,"Delta":398093784},{"NoteNumber":31,"Velocity":50,"Duration":185125,"SoundDuration":185125,"Delta":398093784},{"NoteNumber":43,"Velocity":53,"Duration":97434,"SoundDuration":97434,"Delta":398191219},{"NoteNumber":73,"Velocity":56,"Duration":72347,"SoundDuration":72347,"Delta":398288653},{"NoteNumber":76,"Velocity":66,"Duration":72347,"SoundDuration":72347,"Delta":398288653},{"NoteNumber":31,"Velocity":54,"Duration":183279,"SoundDuration":183279,"Delta":398288653},{"NoteNumber":43,"Velocity":54,"Duration":96462,"SoundDuration":96462,"Delta":398385116},{"NoteNumber":74,"Velocity":60,"Duration":72347,"SoundDuration":72347,"Delta":398481579},{"NoteNumber":77,"Velocity":71,"Duration":72347,"SoundDuration":72347,"Delta":398481579},{"NoteNumber":31,"Velocity":56,"Duration":183279,"SoundDuration":183279,"Delta":398481579},{"NoteNumber":43,"Velocity":58,"Duration":96462,"SoundDuration":96462,"Delta":398578042},{"NoteNumber":76,"Velocity":62,"Duration":72347,"SoundDuration":72347,"Delta":398674505},{"NoteNumber":85,"Velocity":73,"Duration":72347,"SoundDuration":72347,"Delta":398674505},{"NoteNumber":31,"Velocity":62,"Duration":183279,"SoundDuration":183279,"Delta":398674505},{"NoteNumber":43,"Velocity":57,"Duration":96462,"SoundDuration":96462,"Delta":398770968},{"NoteNumber":77,"Velocity":62,"Duration":73289,"SoundDuration":73289,"Delta":398867431},{"NoteNumber":86,"Velocity":73,"Duration":73289,"SoundDuration":73289,"Delta":398867431},{"NoteNumber":31,"Velocity":69,"Duration":396108,"SoundDuration":396108,"Delta":398867431},{"NoteNumber":85,"Velocity":77,"Duration":75250,"SoundDuration":75250,"Delta":399062870},{"NoteNumber":88,"Velocity":77,"Duration":75250,"SoundDuration":75250,"Delta":399062870},{"NoteNumber":43,"Velocity":62,"Duration":396108,"SoundDuration":396108,"Delta":399062870},{"NoteNumber":86,"Velocity":82,"Duration":781758,"SoundDuration":781758,"Delta":399263539},{"NoteNumber":89,"Velocity":82,"Duration":781758,"SoundDuration":781758,"Delta":399263539},{"NoteNumber":35,"Velocity":67,"Duration":390878,"SoundDuration":390878,"Delta":399263539},{"NoteNumber":43,"Velocity":62,"Duration":390878,"SoundDuration":390878,"Delta":399458979},{"NoteNumber":36,"Velocity":67,"Duration":390879,"SoundDuration":390879,"Delta":399654418},{"NoteNumber":43,"Velocity":62,"Duration":394775,"SoundDuration":394775,"Delta":399849858},{"NoteNumber":84,"Velocity":58,"Duration":398670,"SoundDuration":398670,"Delta":400045297},{"NoteNumber":87,"Velocity":58,"Duration":49833,"SoundDuration":49833,"Delta":400045297},{"NoteNumber":30,"Velocity":64,"Duration":398670,"SoundDuration":398670,"Delta":400045297},{"NoteNumber":89,"Velocity":54,"Duration":49833,"SoundDuration":49833,"Delta":400095131},{"NoteNumber":87,"Velocity":54,"Duration":49833,"SoundDuration":49833,"Delta":400144965},{"NoteNumber":89,"Velocity":54,"Duration":49833,"SoundDuration":49833,"Delta":400194799},{"NoteNumber":87,"Velocity":59,"Duration":49833,"SoundDuration":49833,"Delta":400244633},{"NoteNumber":43,"Velocity":62,"Duration":199335,"SoundDuration":199335,"Delta":400244633},{"NoteNumber":89,"Velocity":54,"Duration":49833,"SoundDuration":49833,"Delta":400294467},{"NoteNumber":87,"Velocity":54,"Duration":49833,"SoundDuration":49833,"Delta":400344301},{"NoteNumber":89,"Velocity":54,"Duration":49833,"SoundDuration":49833,"Delta":400394135},{"NoteNumber":83,"Velocity":59,"Duration":197368,"SoundDuration":197368,"Delta":400443968},{"NoteNumber":86,"Velocity":59,"Duration":197368,"SoundDuration":197368,"Delta":400443968},{"NoteNumber":31,"Velocity":33,"Duration":98684,"SoundDuration":98684,"Delta":400443968},{"NoteNumber":43,"Velocity":33,"Duration":98684,"SoundDuration":98684,"Delta":400542653},{"NoteNumber":31,"Velocity":34,"Duration":98684,"SoundDuration":98684,"Delta":400641337},{"NoteNumber":43,"Velocity":34,"Duration":98684,"SoundDuration":98684,"Delta":400740021},{"NoteNumber":49,"Velocity":40,"Duration":97402,"SoundDuration":97402,"Delta":400838705},{"NoteNumber":31,"Velocity":34,"Duration":97402,"SoundDuration":97402,"Delta":400838705},{"NoteNumber":56,"Velocity":34,"Duration":97402,"SoundDuration":97402,"Delta":400936108},{"NoteNumber":43,"Velocity":34,"Duration":97402,"SoundDuration":97402,"Delta":400936108},{"NoteNumber":52,"Velocity":34,"Duration":97402,"SoundDuration":97402,"Delta":401033510},{"NoteNumber":31,"Velocity":34,"Duration":97402,"SoundDuration":97402,"Delta":401033510},{"NoteNumber":49,"Velocity":34,"Duration":97402,"SoundDuration":97402,"Delta":401130913},{"NoteNumber":43,"Velocity":34,"Duration":97402,"SoundDuration":97402,"Delta":401130913},{"NoteNumber":50,"Velocity":41,"Duration":97402,"SoundDuration":97402,"Delta":401228315},{"NoteNumber":31,"Velocity":34,"Duration":97402,"SoundDuration":97402,"Delta":401228315},{"NoteNumber":56,"Velocity":34,"Duration":97402,"SoundDuration":97402,"Delta":401325718},{"NoteNumber":43,"Velocity":34,"Duration":97402,"SoundDuration":97402,"Delta":401325718},{"NoteNumber":53,"Velocity":34,"Duration":97402,"SoundDuration":97402,"Delta":401423120},{"NoteNumber":31,"Velocity":34,"Duration":97402,"SoundDuration":97402,"Delta":401423120},{"NoteNumber":50,"Velocity":34,"Duration":97402,"SoundDuration":97402,"Delta":401520523},{"NoteNumber":43,"Velocity":34,"Duration":97402,"SoundDuration":97402,"Delta":401520523},{"NoteNumber":48,"Velocity":41,"Duration":97402,"SoundDuration":97402,"Delta":401617925},{"NoteNumber":31,"Velocity":34,"Duration":97402,"SoundDuration":97402,"Delta":401617925},{"NoteNumber":56,"Velocity":34,"Duration":97402,"SoundDuration":97402,"Delta":401715328},{"NoteNumber":43,"Velocity":34,"Duration":97402,"SoundDuration":97402,"Delta":401715328},{"NoteNumber":51,"Velocity":34,"Duration":97402,"SoundDuration":97402,"Delta":401812730},{"NoteNumber":31,"Velocity":34,"Duration":97402,"SoundDuration":97402,"Delta":401812730},{"NoteNumber":48,"Velocity":34,"Duration":97402,"SoundDuration":97402,"Delta":401910133},{"NoteNumber":43,"Velocity":34,"Duration":97402,"SoundDuration":97402,"Delta":401910133},{"NoteNumber":47,"Velocity":40,"Duration":97402,"SoundDuration":97402,"Delta":402007535},{"NoteNumber":31,"Velocity":33,"Duration":97402,"SoundDuration":97402,"Delta":402007535},{"NoteNumber":55,"Velocity":34,"Duration":97402,"SoundDuration":97402,"Delta":402104938},{"NoteNumber":43,"Velocity":33,"Duration":97402,"SoundDuration":97402,"Delta":402104938},{"NoteNumber":50,"Velocity":34,"Duration":97402,"SoundDuration":97402,"Delta":402202340},{"NoteNumber":31,"Velocity":33,"Duration":97402,"SoundDuration":97402,"Delta":402202340},{"NoteNumber":47,"Velocity":34,"Duration":102040,"SoundDuration":102040,"Delta":402299743},{"NoteNumber":43,"Velocity":33,"Duration":102040,"SoundDuration":102040,"Delta":402299743},{"NoteNumber":49,"Velocity":40,"Duration":97402,"SoundDuration":97402,"Delta":402401784},{"NoteNumber":31,"Velocity":33,"Duration":97402,"SoundDuration":97402,"Delta":402401784},{"NoteNumber":56,"Velocity":34,"Duration":97402,"SoundDuration":97402,"Delta":402499186},{"NoteNumber":43,"Velocity":33,"Duration":97402,"SoundDuration":97402,"Delta":402499186},{"NoteNumber":52,"Velocity":34,"Duration":97402,"SoundDuration":97402,"Delta":402596589},{"NoteNumber":31,"Velocity":33,"Duration":97402,"SoundDuration":97402,"Delta":402596589},{"NoteNumber":49,"Velocity":34,"Duration":97402,"SoundDuration":97402,"Delta":402693991},{"NoteNumber":43,"Velocity":33,"Duration":97402,"SoundDuration":97402,"Delta":402693991},{"NoteNumber":50,"Velocity":40,"Duration":97402,"SoundDuration":97402,"Delta":402791394},{"NoteNumber":31,"Velocity":33,"Duration":97402,"SoundDuration":97402,"Delta":402791394},{"NoteNumber":56,"Velocity":34,"Duration":97402,"SoundDuration":97402,"Delta":402888796},{"NoteNumber":43,"Velocity":33,"Duration":97402,"SoundDuration":97402,"Delta":402888796},{"NoteNumber":53,"Velocity":34,"Duration":97402,"SoundDuration":97402,"Delta":402986199},{"NoteNumber":31,"Velocity":33,"Duration":97402,"SoundDuration":97402,"Delta":402986199},{"NoteNumber":50,"Velocity":34,"Duration":97402,"SoundDuration":97402,"Delta":403083601},{"NoteNumber":43,"Velocity":33,"Duration":97402,"SoundDuration":97402,"Delta":403083601},{"NoteNumber":48,"Velocity":39,"Duration":97402,"SoundDuration":97402,"Delta":403181004},{"NoteNumber":31,"Velocity":33,"Duration":97402,"SoundDuration":97402,"Delta":403181004},{"NoteNumber":56,"Velocity":34,"Duration":97402,"SoundDuration":97402,"Delta":403278406},{"NoteNumber":43,"Velocity":33,"Duration":97402,"SoundDuration":97402,"Delta":403278406},{"NoteNumber":51,"Velocity":34,"Duration":98580,"SoundDuration":98580,"Delta":403375809},{"NoteNumber":31,"Velocity":33,"Duration":98580,"SoundDuration":98580,"Delta":403375809},{"NoteNumber":48,"Velocity":34,"Duration":100900,"SoundDuration":100900,"Delta":403474389},{"NoteNumber":43,"Velocity":33,"Duration":100900,"SoundDuration":100900,"Delta":403474389},{"NoteNumber":47,"Velocity":34,"Duration":198019,"SoundDuration":198019,"Delta":403575290},{"NoteNumber":50,"Velocity":34,"Duration":198019,"SoundDuration":198019,"Delta":403575290},{"NoteNumber":55,"Velocity":34,"Duration":198019,"SoundDuration":198019,"Delta":403575290},{"NoteNumber":31,"Velocity":55,"Duration":188118,"SoundDuration":188118,"Delta":403575290},{"NoteNumber":43,"Velocity":50,"Duration":99009,"SoundDuration":99009,"Delta":403674300},{"NoteNumber":64,"Velocity":55,"Duration":73075,"SoundDuration":73075,"Delta":403773310},{"NoteNumber":31,"Velocity":53,"Duration":185125,"SoundDuration":185125,"Delta":403773310},{"NoteNumber":43,"Velocity":47,"Duration":97434,"SoundDuration":97434,"Delta":403870744},{"NoteNumber":65,"Velocity":58,"Duration":73075,"SoundDuration":73075,"Delta":403968178},{"NoteNumber":31,"Velocity":53,"Duration":185125,"SoundDuration":185125,"Delta":403968178},{"NoteNumber":43,"Velocity":47,"Duration":97434,"SoundDuration":97434,"Delta":404065613},{"NoteNumber":64,"Velocity":47,"Duration":73075,"SoundDuration":73075,"Delta":404163047},{"NoteNumber":73,"Velocity":56,"Duration":73075,"SoundDuration":73075,"Delta":404163047},{"NoteNumber":31,"Velocity":52,"Duration":185125,"SoundDuration":185125,"Delta":404163047},{"NoteNumber":43,"Velocity":48,"Duration":97434,"SoundDuration":97434,"Delta":404260481},{"NoteNumber":65,"Velocity":51,"Duration":73075,"SoundDuration":73075,"Delta":404357915},{"NoteNumber":74,"Velocity":61,"Duration":73075,"SoundDuration":73075,"Delta":404357915},{"NoteNumber":31,"Velocity":50,"Duration":185125,"SoundDuration":185125,"Delta":404357915},{"NoteNumber":43,"Velocity":53,"Duration":97434,"SoundDuration":97434,"Delta":404455350},{"NoteNumber":73,"Velocity":56,"Duration":72347,"SoundDuration":72347,"Delta":404552784},{"NoteNumber":76,"Velocity":66,"Duration":72347,"SoundDuration":72347,"Delta":404552784},{"NoteNumber":31,"Velocity":54,"Duration":183279,"SoundDuration":183279,"Delta":404552784},{"NoteNumber":43,"Velocity":54,"Duration":96462,"SoundDuration":96462,"Delta":404649247},{"NoteNumber":74,"Velocity":60,"Duration":72347,"SoundDuration":72347,"Delta":404745710},{"NoteNumber":77,"Velocity":71,"Duration":72347,"SoundDuration":72347,"Delta":404745710},{"NoteNumber":31,"Velocity":56,"Duration":183279,"SoundDuration":183279,"Delta":404745710},{"NoteNumber":43,"Velocity":58,"Duration":96462,"SoundDuration":96462,"Delta":404842173},{"NoteNumber":76,"Velocity":62,"Duration":72347,"SoundDuration":72347,"Delta":404938636},{"NoteNumber":85,"Velocity":73,"Duration":72347,"SoundDuration":72347,"Delta":404938636},{"NoteNumber":31,"Velocity":62,"Duration":183279,"SoundDuration":183279,"Delta":404938636},{"NoteNumber":43,"Velocity":57,"Duration":96462,"SoundDuration":96462,"Delta":405035099},{"NoteNumber":77,"Velocity":62,"Duration":73289,"SoundDuration":73289,"Delta":405131562},{"NoteNumber":86,"Velocity":73,"Duration":73289,"SoundDuration":73289,"Delta":405131562},{"NoteNumber":31,"Velocity":69,"Duration":396108,"SoundDuration":396108,"Delta":405131562},{"NoteNumber":85,"Velocity":77,"Duration":75250,"SoundDuration":75250,"Delta":405327001},{"NoteNumber":88,"Velocity":77,"Duration":75250,"SoundDuration":75250,"Delta":405327001},{"NoteNumber":43,"Velocity":62,"Duration":396108,"SoundDuration":396108,"Delta":405327001},{"NoteNumber":86,"Velocity":82,"Duration":781758,"SoundDuration":781758,"Delta":405527670},{"NoteNumber":89,"Velocity":82,"Duration":781758,"SoundDuration":781758,"Delta":405527670},{"NoteNumber":35,"Velocity":67,"Duration":390878,"SoundDuration":390878,"Delta":405527670},{"NoteNumber":43,"Velocity":62,"Duration":390878,"SoundDuration":390878,"Delta":405723110},{"NoteNumber":36,"Velocity":67,"Duration":390879,"SoundDuration":390879,"Delta":405918549},{"NoteNumber":43,"Velocity":62,"Duration":394775,"SoundDuration":394775,"Delta":406113989},{"NoteNumber":84,"Velocity":58,"Duration":398670,"SoundDuration":398670,"Delta":406309428},{"NoteNumber":87,"Velocity":58,"Duration":49833,"SoundDuration":49833,"Delta":406309428},{"NoteNumber":30,"Velocity":64,"Duration":398670,"SoundDuration":398670,"Delta":406309428},{"NoteNumber":89,"Velocity":54,"Duration":49833,"SoundDuration":49833,"Delta":406359262},{"NoteNumber":87,"Velocity":54,"Duration":49833,"SoundDuration":49833,"Delta":406409096},{"NoteNumber":89,"Velocity":54,"Duration":49833,"SoundDuration":49833,"Delta":406458930},{"NoteNumber":87,"Velocity":59,"Duration":33222,"SoundDuration":33222,"Delta":406508764},{"NoteNumber":43,"Velocity":62,"Duration":199335,"SoundDuration":199335,"Delta":406508764},{"NoteNumber":89,"Velocity":54,"Duration":33222,"SoundDuration":33222,"Delta":406541987},{"NoteNumber":87,"Velocity":54,"Duration":33222,"SoundDuration":33222,"Delta":406575209},{"NoteNumber":86,"Velocity":54,"Duration":49833,"SoundDuration":49833,"Delta":406608432},{"NoteNumber":87,"Velocity":54,"Duration":49833,"SoundDuration":49833,"Delta":406658266},{"NoteNumber":83,"Velocity":62,"Duration":73289,"SoundDuration":73289,"Delta":406708099},{"NoteNumber":86,"Velocity":73,"Duration":73289,"SoundDuration":73289,"Delta":406708099},{"NoteNumber":31,"Velocity":69,"Duration":396108,"SoundDuration":396108,"Delta":406708099},{"NoteNumber":85,"Velocity":77,"Duration":75250,"SoundDuration":75250,"Delta":406903539},{"NoteNumber":88,"Velocity":77,"Duration":75250,"SoundDuration":75250,"Delta":406903539},{"NoteNumber":43,"Velocity":62,"Duration":396108,"SoundDuration":396108,"Delta":406903539},{"NoteNumber":86,"Velocity":82,"Duration":781758,"SoundDuration":781758,"Delta":407104208},{"NoteNumber":89,"Velocity":82,"Duration":781758,"SoundDuration":781758,"Delta":407104208},{"NoteNumber":35,"Velocity":67,"Duration":390878,"SoundDuration":390878,"Delta":407104208},{"NoteNumber":43,"Velocity":62,"Duration":390878,"SoundDuration":390878,"Delta":407299647},{"NoteNumber":36,"Velocity":67,"Duration":390879,"SoundDuration":390879,"Delta":407495087},{"NoteNumber":43,"Velocity":62,"Duration":394775,"SoundDuration":394775,"Delta":407690526},{"NoteNumber":84,"Velocity":58,"Duration":398670,"SoundDuration":398670,"Delta":407885966},{"NoteNumber":87,"Velocity":58,"Duration":49833,"SoundDuration":49833,"Delta":407885966},{"NoteNumber":30,"Velocity":64,"Duration":398670,"SoundDuration":398670,"Delta":407885966},{"NoteNumber":89,"Velocity":54,"Duration":49833,"SoundDuration":49833,"Delta":407935800},{"NoteNumber":87,"Velocity":54,"Duration":49833,"SoundDuration":49833,"Delta":407985634},{"NoteNumber":89,"Velocity":54,"Duration":49833,"SoundDuration":49833,"Delta":408035468},{"NoteNumber":87,"Velocity":59,"Duration":33222,"SoundDuration":33222,"Delta":408085301},{"NoteNumber":43,"Velocity":62,"Duration":199335,"SoundDuration":199335,"Delta":408085301},{"NoteNumber":89,"Velocity":54,"Duration":33222,"SoundDuration":33222,"Delta":408118524},{"NoteNumber":87,"Velocity":54,"Duration":33222,"SoundDuration":33222,"Delta":408151747},{"NoteNumber":86,"Velocity":54,"Duration":49833,"SoundDuration":49833,"Delta":408184969},{"NoteNumber":87,"Velocity":54,"Duration":49833,"SoundDuration":49833,"Delta":408234803},{"NoteNumber":83,"Velocity":62,"Duration":73289,"SoundDuration":73289,"Delta":408284637},{"NoteNumber":86,"Velocity":73,"Duration":73289,"SoundDuration":73289,"Delta":408284637},{"NoteNumber":31,"Velocity":69,"Duration":396108,"SoundDuration":396108,"Delta":408284637},{"NoteNumber":85,"Velocity":77,"Duration":75250,"SoundDuration":75250,"Delta":408480076},{"NoteNumber":88,"Velocity":77,"Duration":75250,"SoundDuration":75250,"Delta":408480076},{"NoteNumber":43,"Velocity":62,"Duration":396108,"SoundDuration":396108,"Delta":408480076},{"NoteNumber":86,"Velocity":82,"Duration":781758,"SoundDuration":781758,"Delta":408680745},{"NoteNumber":89,"Velocity":82,"Duration":781758,"SoundDuration":781758,"Delta":408680745},{"NoteNumber":35,"Velocity":67,"Duration":390878,"SoundDuration":390878,"Delta":408680745},{"NoteNumber":43,"Velocity":62,"Duration":390878,"SoundDuration":390878,"Delta":408876185},{"NoteNumber":36,"Velocity":67,"Duration":390879,"SoundDuration":390879,"Delta":409071624},{"NoteNumber":43,"Velocity":62,"Duration":394775,"SoundDuration":394775,"Delta":409267064},{"NoteNumber":84,"Velocity":58,"Duration":398670,"SoundDuration":398670,"Delta":409462503},{"NoteNumber":87,"Velocity":58,"Duration":49833,"SoundDuration":49833,"Delta":409462503},{"NoteNumber":30,"Velocity":64,"Duration":398670,"SoundDuration":398670,"Delta":409462503},{"NoteNumber":89,"Velocity":54,"Duration":49833,"SoundDuration":49833,"Delta":409512337},{"NoteNumber":87,"Velocity":54,"Duration":49833,"SoundDuration":49833,"Delta":409562171},{"NoteNumber":89,"Velocity":54,"Duration":49833,"SoundDuration":49833,"Delta":409612005},{"NoteNumber":87,"Velocity":59,"Duration":33222,"SoundDuration":33222,"Delta":409661839},{"NoteNumber":43,"Velocity":62,"Duration":199335,"SoundDuration":199335,"Delta":409661839},{"NoteNumber":89,"Velocity":54,"Duration":33222,"SoundDuration":33222,"Delta":409695062},{"NoteNumber":87,"Velocity":54,"Duration":33222,"SoundDuration":33222,"Delta":409728284},{"NoteNumber":86,"Velocity":54,"Duration":49833,"SoundDuration":49833,"Delta":409761507},{"NoteNumber":87,"Velocity":54,"Duration":49833,"SoundDuration":49833,"Delta":409811341},{"NoteNumber":83,"Velocity":58,"Duration":97719,"SoundDuration":97719,"Delta":409861174},{"NoteNumber":86,"Velocity":58,"Duration":97719,"SoundDuration":97719,"Delta":409861174},{"NoteNumber":89,"Velocity":53,"Duration":97719,"SoundDuration":97719,"Delta":409958894},{"NoteNumber":86,"Velocity":54,"Duration":97719,"SoundDuration":97719,"Delta":410056614},{"NoteNumber":84,"Velocity":54,"Duration":97719,"SoundDuration":97719,"Delta":410154334},{"NoteNumber":83,"Velocity":58,"Duration":97719,"SoundDuration":97719,"Delta":410252053},{"NoteNumber":89,"Velocity":53,"Duration":97719,"SoundDuration":97719,"Delta":410349773},{"NoteNumber":86,"Velocity":53,"Duration":97719,"SoundDuration":97719,"Delta":410447493},{"NoteNumber":84,"Velocity":53,"Duration":97719,"SoundDuration":97719,"Delta":410545213},{"NoteNumber":83,"Velocity":58,"Duration":97719,"SoundDuration":97719,"Delta":410642932},{"NoteNumber":89,"Velocity":55,"Duration":97719,"SoundDuration":97719,"Delta":410740652},{"NoteNumber":86,"Velocity":55,"Duration":97719,"SoundDuration":97719,"Delta":410838372},{"NoteNumber":84,"Velocity":55,"Duration":97719,"SoundDuration":97719,"Delta":410936092},{"NoteNumber":83,"Velocity":58,"Duration":97719,"SoundDuration":97719,"Delta":411033811},{"NoteNumber":86,"Velocity":55,"Duration":97719,"SoundDuration":97719,"Delta":411131531},{"NoteNumber":83,"Velocity":55,"Duration":97719,"SoundDuration":97719,"Delta":411229251},{"NoteNumber":79,"Velocity":55,"Duration":97719,"SoundDuration":97719,"Delta":411326971},{"NoteNumber":80,"Velocity":58,"Duration":97719,"SoundDuration":97719,"Delta":411424690},{"NoteNumber":82,"Velocity":55,"Duration":97719,"SoundDuration":97719,"Delta":411522410},{"NoteNumber":80,"Velocity":55,"Duration":97719,"SoundDuration":97719,"Delta":411620130},{"NoteNumber":79,"Velocity":55,"Duration":97719,"SoundDuration":97719,"Delta":411717850},{"NoteNumber":77,"Velocity":58,"Duration":97719,"SoundDuration":97719,"Delta":411815569},{"NoteNumber":80,"Velocity":55,"Duration":97719,"SoundDuration":97719,"Delta":411913289},{"NoteNumber":77,"Velocity":55,"Duration":97719,"SoundDuration":97719,"Delta":412011009},{"NoteNumber":75,"Velocity":55,"Duration":97719,"SoundDuration":97719,"Delta":412108729},{"NoteNumber":74,"Velocity":58,"Duration":97719,"SoundDuration":97719,"Delta":412206448},{"NoteNumber":77,"Velocity":54,"Duration":97719,"SoundDuration":97719,"Delta":412304168},{"NoteNumber":74,"Velocity":54,"Duration":97719,"SoundDuration":97719,"Delta":412401888},{"NoteNumber":72,"Velocity":54,"Duration":97719,"SoundDuration":97719,"Delta":412499608},{"NoteNumber":71,"Velocity":58,"Duration":97719,"SoundDuration":97719,"Delta":412597327},{"NoteNumber":74,"Velocity":54,"Duration":97719,"SoundDuration":97719,"Delta":412695047},{"NoteNumber":71,"Velocity":54,"Duration":97719,"SoundDuration":97719,"Delta":412792767},{"NoteNumber":67,"Velocity":54,"Duration":97719,"SoundDuration":97719,"Delta":412890487},{"NoteNumber":68,"Velocity":58,"Duration":97719,"SoundDuration":97719,"Delta":412988206},{"NoteNumber":70,"Velocity":55,"Duration":97719,"SoundDuration":97719,"Delta":413085926},{"NoteNumber":68,"Velocity":55,"Duration":97719,"SoundDuration":97719,"Delta":413183646},{"NoteNumber":67,"Velocity":55,"Duration":97719,"SoundDuration":97719,"Delta":413281366},{"NoteNumber":65,"Velocity":58,"Duration":97719,"SoundDuration":97719,"Delta":413379085},{"NoteNumber":68,"Velocity":58,"Duration":97719,"SoundDuration":97719,"Delta":413476805},{"NoteNumber":65,"Velocity":55,"Duration":97719,"SoundDuration":97719,"Delta":413574525},{"NoteNumber":63,"Velocity":55,"Duration":97719,"SoundDuration":97719,"Delta":413672245},{"NoteNumber":62,"Velocity":58,"Duration":97719,"SoundDuration":97719,"Delta":413769964},{"NoteNumber":65,"Velocity":55,"Duration":97719,"SoundDuration":97719,"Delta":413867684},{"NoteNumber":62,"Velocity":55,"Duration":97719,"SoundDuration":97719,"Delta":413965404},{"NoteNumber":60,"Velocity":55,"Duration":97719,"SoundDuration":97719,"Delta":414063124},{"NoteNumber":59,"Velocity":58,"Duration":97719,"SoundDuration":97719,"Delta":414160843},{"NoteNumber":62,"Velocity":55,"Duration":97719,"SoundDuration":97719,"Delta":414258563},{"NoteNumber":59,"Velocity":55,"Duration":97719,"SoundDuration":97719,"Delta":414356283},{"NoteNumber":55,"Velocity":55,"Duration":97719,"SoundDuration":97719,"Delta":414454003},{"NoteNumber":56,"Velocity":58,"Duration":97719,"SoundDuration":97719,"Delta":414551722},{"NoteNumber":58,"Velocity":54,"Duration":97719,"SoundDuration":97719,"Delta":414649442},{"NoteNumber":56,"Velocity":54,"Duration":97719,"SoundDuration":97719,"Delta":414747162},{"NoteNumber":55,"Velocity":54,"Duration":97719,"SoundDuration":97719,"Delta":414844882},{"NoteNumber":53,"Velocity":58,"Duration":97719,"SoundDuration":97719,"Delta":414942601},{"NoteNumber":51,"Velocity":53,"Duration":97719,"SoundDuration":97719,"Delta":415040321},{"NoteNumber":50,"Velocity":53,"Duration":97719,"SoundDuration":97719,"Delta":415138041},{"NoteNumber":48,"Velocity":53,"Duration":97719,"SoundDuration":97719,"Delta":415235761},{"NoteNumber":47,"Velocity":58,"Duration":97719,"SoundDuration":97719,"Delta":415333480},{"NoteNumber":48,"Velocity":55,"Duration":97719,"SoundDuration":97719,"Delta":415431200},{"NoteNumber":47,"Velocity":55,"Duration":97719,"SoundDuration":97719,"Delta":415528920},{"NoteNumber":44,"Velocity":56,"Duration":97719,"SoundDuration":97719,"Delta":415626640},{"NoteNumber":43,"Velocity":58,"Duration":97719,"SoundDuration":97719,"Delta":415724359},{"NoteNumber":41,"Velocity":55,"Duration":97719,"SoundDuration":97719,"Delta":415822079},{"NoteNumber":39,"Velocity":55,"Duration":97719,"SoundDuration":97719,"Delta":415919799},{"NoteNumber":38,"Velocity":55,"Duration":97719,"SoundDuration":97719,"Delta":416017519},{"NoteNumber":60,"Velocity":50,"Duration":602780,"SoundDuration":602780,"Delta":416115238},{"NoteNumber":36,"Velocity":44,"Duration":193732,"SoundDuration":193732,"Delta":416115238},{"NoteNumber":48,"Velocity":41,"Duration":101561,"SoundDuration":101561,"Delta":416217548},{"NoteNumber":36,"Velocity":44,"Duration":190907,"SoundDuration":190907,"Delta":416319109},{"NoteNumber":48,"Velocity":41,"Duration":100083,"SoundDuration":100083,"Delta":416419922},{"NoteNumber":36,"Velocity":44,"Duration":188165,"SoundDuration":188165,"Delta":416520006},{"NoteNumber":48,"Velocity":41,"Duration":98652,"SoundDuration":98652,"Delta":416619367},{"NoteNumber":58,"Velocity":52,"Duration":73503,"SoundDuration":73503,"Delta":416718019},{"NoteNumber":64,"Velocity":52,"Duration":73503,"SoundDuration":73503,"Delta":416718019},{"NoteNumber":36,"Velocity":45,"Duration":185637,"SoundDuration":185637,"Delta":416718019},{"NoteNumber":48,"Velocity":41,"Duration":97434,"SoundDuration":97434,"Delta":416815966},{"NoteNumber":56,"Velocity":54,"Duration":73075,"SoundDuration":73075,"Delta":416913400},{"NoteNumber":65,"Velocity":54,"Duration":73075,"SoundDuration":73075,"Delta":416913400},{"NoteNumber":36,"Velocity":45,"Duration":185125,"SoundDuration":185125,"Delta":416913400},{"NoteNumber":48,"Velocity":46,"Duration":97434,"SoundDuration":97434,"Delta":417010834},{"NoteNumber":64,"Velocity":56,"Duration":72115,"SoundDuration":72115,"Delta":417108268},{"NoteNumber":67,"Velocity":56,"Duration":72115,"SoundDuration":72115,"Delta":417108268},{"NoteNumber":36,"Velocity":47,"Duration":182692,"SoundDuration":182692,"Delta":417108268},{"NoteNumber":48,"Velocity":47,"Duration":96153,"SoundDuration":96153,"Delta":417204422},{"NoteNumber":65,"Velocity":57,"Duration":72115,"SoundDuration":72115,"Delta":417300576},{"NoteNumber":68,"Velocity":57,"Duration":72115,"SoundDuration":72115,"Delta":417300576},{"NoteNumber":36,"Velocity":49,"Duration":182692,"SoundDuration":182692,"Delta":417300576},{"NoteNumber":48,"Velocity":50,"Duration":96153,"SoundDuration":96153,"Delta":417396730},{"NoteNumber":62,"Velocity":59,"Duration":73289,"SoundDuration":73289,"Delta":417492883},{"NoteNumber":71,"Velocity":59,"Duration":73289,"SoundDuration":73289,"Delta":417492883},{"NoteNumber":36,"Velocity":51,"Duration":185667,"SoundDuration":185667,"Delta":417492883},{"NoteNumber":48,"Velocity":53,"Duration":97719,"SoundDuration":97719,"Delta":417590603},{"NoteNumber":63,"Velocity":61,"Duration":77736,"SoundDuration":77736,"Delta":417688323},{"NoteNumber":72,"Velocity":61,"Duration":77736,"SoundDuration":77736,"Delta":417688323},{"NoteNumber":36,"Velocity":55,"Duration":196932,"SoundDuration":196932,"Delta":417688323},{"NoteNumber":48,"Velocity":50,"Duration":103648,"SoundDuration":103648,"Delta":417791971},{"NoteNumber":64,"Velocity":55,"Duration":389737,"SoundDuration":389737,"Delta":417895620},{"NoteNumber":72,"Velocity":55,"Duration":389737,"SoundDuration":389737,"Delta":417895620},{"NoteNumber":36,"Velocity":53,"Duration":185125,"SoundDuration":185125,"Delta":417895620},{"NoteNumber":48,"Velocity":47,"Duration":97434,"SoundDuration":97434,"Delta":417993054},{"NoteNumber":36,"Velocity":53,"Duration":185125,"SoundDuration":185125,"Delta":418090488},{"NoteNumber":48,"Velocity":47,"Duration":97434,"SoundDuration":97434,"Delta":418187923},{"NoteNumber":70,"Velocity":51,"Duration":73075,"SoundDuration":73075,"Delta":418285357},{"NoteNumber":76,"Velocity":51,"Duration":73075,"SoundDuration":73075,"Delta":418285357},{"NoteNumber":36,"Velocity":44,"Duration":185125,"SoundDuration":185125,"Delta":418285357},{"NoteNumber":48,"Velocity":40,"Duration":97434,"SoundDuration":97434,"Delta":418382791},{"NoteNumber":68,"Velocity":53,"Duration":73075,"SoundDuration":73075,"Delta":418480225},{"NoteNumber":77,"Velocity":53,"Duration":73075,"SoundDuration":73075,"Delta":418480225},{"NoteNumber":36,"Velocity":43,"Duration":185125,"SoundDuration":185125,"Delta":418480225},{"NoteNumber":48,"Velocity":45,"Duration":97434,"SoundDuration":97434,"Delta":418577660},{"NoteNumber":76,"Velocity":55,"Duration":72347,"SoundDuration":72347,"Delta":418675094},{"NoteNumber":79,"Velocity":55,"Duration":72347,"SoundDuration":72347,"Delta":418675094},{"NoteNumber":36,"Velocity":46,"Duration":183279,"SoundDuration":183279,"Delta":418675094},{"NoteNumber":48,"Velocity":47,"Duration":96462,"SoundDuration":96462,"Delta":418771557},{"NoteNumber":77,"Velocity":57,"Duration":72347,"SoundDuration":72347,"Delta":418868020},{"NoteNumber":80,"Velocity":57,"Duration":72347,"SoundDuration":72347,"Delta":418868020},{"NoteNumber":36,"Velocity":48,"Duration":183279,"SoundDuration":183279,"Delta":418868020},{"NoteNumber":48,"Velocity":50,"Duration":96462,"SoundDuration":96462,"Delta":418964483},{"NoteNumber":74,"Velocity":59,"Duration":72347,"SoundDuration":72347,"Delta":419060946},{"NoteNumber":83,"Velocity":59,"Duration":72347,"SoundDuration":72347,"Delta":419060946},{"NoteNumber":36,"Velocity":51,"Duration":183279,"SoundDuration":183279,"Delta":419060946},{"NoteNumber":48,"Velocity":53,"Duration":96462,"SoundDuration":96462,"Delta":419157409},{"NoteNumber":72,"Velocity":51,"Duration":394617,"SoundDuration":394617,"Delta":419253872},{"NoteNumber":79,"Velocity":61,"Duration":394617,"SoundDuration":394617,"Delta":419253872},{"NoteNumber":75,"Velocity":51,"Duration":394617,"SoundDuration":394617,"Delta":419253872},{"NoteNumber":84,"Velocity":61,"Duration":394617,"SoundDuration":394617,"Delta":419253872},{"NoteNumber":36,"Velocity":55,"Duration":188442,"SoundDuration":188442,"Delta":419253872},{"NoteNumber":48,"Velocity":50,"Duration":99179,"SoundDuration":99179,"Delta":419353052},{"NoteNumber":36,"Velocity":53,"Duration":186445,"SoundDuration":186445,"Delta":419452232},{"NoteNumber":48,"Velocity":47,"Duration":98129,"SoundDuration":98129,"Delta":419550361},{"NoteNumber":67,"Velocity":53,"Duration":398251,"SoundDuration":398251,"Delta":419648490},{"NoteNumber":71,"Velocity":53,"Duration":398251,"SoundDuration":398251,"Delta":419648490},{"NoteNumber":77,"Velocity":63,"Duration":398251,"SoundDuration":398251,"Delta":419648490},{"NoteNumber":79,"Velocity":63,"Duration":398251,"SoundDuration":398251,"Delta":419648490},{"NoteNumber":38,"Velocity":55,"Duration":186445,"SoundDuration":186445,"Delta":419648490},{"NoteNumber":50,"Velocity":50,"Duration":98129,"SoundDuration":98129,"Delta":419746619},{"NoteNumber":38,"Velocity":55,"Duration":191893,"SoundDuration":191893,"Delta":419844748},{"NoteNumber":50,"Velocity":51,"Duration":100996,"SoundDuration":100996,"Delta":419945744},{"NoteNumber":67,"Velocity":56,"Duration":395204,"SoundDuration":395204,"Delta":420046741},{"NoteNumber":72,"Velocity":56,"Duration":395204,"SoundDuration":395204,"Delta":420046741},{"NoteNumber":75,"Velocity":67,"Duration":395204,"SoundDuration":395204,"Delta":420046741},{"NoteNumber":39,"Velocity":55,"Duration":187722,"SoundDuration":187722,"Delta":420046741},{"NoteNumber":51,"Velocity":55,"Duration":98801,"SoundDuration":98801,"Delta":420145542},{"NoteNumber":39,"Velocity":55,"Duration":187722,"SoundDuration":187722,"Delta":420244343},{"NoteNumber":51,"Velocity":55,"Duration":98801,"SoundDuration":98801,"Delta":420343145},{"NoteNumber":65,"Velocity":60,"Duration":398620,"SoundDuration":398620,"Delta":420441946},{"NoteNumber":68,"Velocity":60,"Duration":398620,"SoundDuration":398620,"Delta":420441946},{"NoteNumber":74,"Velocity":71,"Duration":398620,"SoundDuration":398620,"Delta":420441946},{"NoteNumber":41,"Velocity":55,"Duration":187722,"SoundDuration":187722,"Delta":420441946},{"NoteNumber":53,"Velocity":53,"Duration":98801,"SoundDuration":98801,"Delta":420540747},{"NoteNumber":41,"Velocity":55,"Duration":190967,"SoundDuration":190967,"Delta":420639548},{"NoteNumber":53,"Velocity":55,"Duration":100509,"SoundDuration":100509,"Delta":420740058},{"NoteNumber":63,"Velocity":62,"Duration":1206111,"SoundDuration":1206111,"Delta":420840567},{"NoteNumber":67,"Velocity":74,"Duration":402037,"SoundDuration":402037,"Delta":420840567},{"NoteNumber":72,"Velocity":74,"Duration":1206111,"SoundDuration":1206111,"Delta":420840567},{"NoteNumber":43,"Velocity":56,"Duration":190967,"SoundDuration":190967,"Delta":420840567},{"NoteNumber":55,"Velocity":56,"Duration":100509,"SoundDuration":100509,"Delta":420941076},{"NoteNumber":43,"Velocity":57,"Duration":190967,"SoundDuration":190967,"Delta":421041585},{"NoteNumber":55,"Velocity":57,"Duration":100509,"SoundDuration":100509,"Delta":421142095},{"NoteNumber":66,"Velocity":74,"Duration":402037,"SoundDuration":402037,"Delta":421242604},{"NoteNumber":44,"Velocity":58,"Duration":190967,"SoundDuration":190967,"Delta":421242604},{"NoteNumber":56,"Velocity":59,"Duration":100509,"SoundDuration":100509,"Delta":421343113},{"NoteNumber":44,"Velocity":59,"Duration":190967,"SoundDuration":190967,"Delta":421443622},{"NoteNumber":56,"Velocity":60,"Duration":100509,"SoundDuration":100509,"Delta":421544132},{"NoteNumber":69,"Velocity":77,"Duration":402037,"SoundDuration":402037,"Delta":421644641},{"NoteNumber":42,"Velocity":60,"Duration":190967,"SoundDuration":190967,"Delta":421644641},{"NoteNumber":54,"Velocity":55,"Duration":100509,"SoundDuration":100509,"Delta":421745150},{"NoteNumber":42,"Velocity":61,"Duration":190967,"SoundDuration":190967,"Delta":421845659},{"NoteNumber":54,"Velocity":55,"Duration":100509,"SoundDuration":100509,"Delta":421946169},{"NoteNumber":62,"Velocity":62,"Duration":402037,"SoundDuration":402037,"Delta":422046678},{"NoteNumber":65,"Velocity":62,"Duration":402037,"SoundDuration":402037,"Delta":422046678},{"NoteNumber":71,"Velocity":74,"Duration":402037,"SoundDuration":402037,"Delta":422046678},{"NoteNumber":43,"Velocity":58,"Duration":190967,"SoundDuration":190967,"Delta":422046678},{"NoteNumber":55,"Velocity":55,"Duration":100509,"SoundDuration":100509,"Delta":422147187},{"NoteNumber":43,"Velocity":58,"Duration":190967,"SoundDuration":190967,"Delta":422247696},{"NoteNumber":55,"Velocity":55,"Duration":100509,"SoundDuration":100509,"Delta":422348206},{"NoteNumber":60,"Velocity":67,"Duration":76779,"SoundDuration":76779,"Delta":422448715},{"NoteNumber":63,"Velocity":67,"Duration":76779,"SoundDuration":76779,"Delta":422448715},{"NoteNumber":72,"Velocity":79,"Duration":76779,"SoundDuration":76779,"Delta":422448715},{"NoteNumber":36,"Velocity":48,"Duration":193732,"SoundDuration":193732,"Delta":422448715},{"NoteNumber":48,"Velocity":45,"Duration":101561,"SoundDuration":101561,"Delta":422551024},{"NoteNumber":60,"Velocity":67,"Duration":398910,"SoundDuration":398910,"Delta":422652585},{"NoteNumber":36,"Velocity":44,"Duration":190907,"SoundDuration":190907,"Delta":422652585},{"NoteNumber":48,"Velocity":41,"Duration":100083,"SoundDuration":100083,"Delta":422753398},{"NoteNumber":36,"Velocity":44,"Duration":188165,"SoundDuration":188165,"Delta":422853482},{"NoteNumber":48,"Velocity":40,"Duration":98652,"SoundDuration":98652,"Delta":422952843},{"NoteNumber":58,"Velocity":52,"Duration":73503,"SoundDuration":73503,"Delta":423051495},{"NoteNumber":64,"Velocity":52,"Duration":73503,"SoundDuration":73503,"Delta":423051495},{"NoteNumber":36,"Velocity":44,"Duration":185637,"SoundDuration":185637,"Delta":423051495},{"NoteNumber":48,"Velocity":41,"Duration":97434,"SoundDuration":97434,"Delta":423149442},{"NoteNumber":56,"Velocity":54,"Duration":73075,"SoundDuration":73075,"Delta":423246876},{"NoteNumber":65,"Velocity":54,"Duration":73075,"SoundDuration":73075,"Delta":423246876},{"NoteNumber":36,"Velocity":44,"Duration":185125,"SoundDuration":185125,"Delta":423246876},{"NoteNumber":48,"Velocity":46,"Duration":97434,"SoundDuration":97434,"Delta":423344310},{"NoteNumber":64,"Velocity":55,"Duration":72115,"SoundDuration":72115,"Delta":423441745},{"NoteNumber":67,"Velocity":55,"Duration":72115,"SoundDuration":72115,"Delta":423441745},{"NoteNumber":36,"Velocity":47,"Duration":182692,"SoundDuration":182692,"Delta":423441745},{"NoteNumber":48,"Velocity":47,"Duration":96153,"SoundDuration":96153,"Delta":423537898},{"NoteNumber":65,"Velocity":57,"Duration":72115,"SoundDuration":72115,"Delta":423634052},{"NoteNumber":68,"Velocity":57,"Duration":72115,"SoundDuration":72115,"Delta":423634052},{"NoteNumber":36,"Velocity":49,"Duration":182692,"SoundDuration":182692,"Delta":423634052},{"NoteNumber":48,"Velocity":50,"Duration":96153,"SoundDuration":96153,"Delta":423730206},{"NoteNumber":62,"Velocity":59,"Duration":72115,"SoundDuration":72115,"Delta":423826360},{"NoteNumber":71,"Velocity":59,"Duration":72115,"SoundDuration":72115,"Delta":423826360},{"NoteNumber":36,"Velocity":51,"Duration":182692,"SoundDuration":182692,"Delta":423826360},{"NoteNumber":48,"Velocity":53,"Duration":96153,"SoundDuration":96153,"Delta":423922513},{"NoteNumber":63,"Velocity":61,"Duration":77736,"SoundDuration":77736,"Delta":424018667},{"NoteNumber":72,"Velocity":61,"Duration":77736,"SoundDuration":77736,"Delta":424018667},{"NoteNumber":36,"Velocity":55,"Duration":196932,"SoundDuration":196932,"Delta":424018667},{"NoteNumber":48,"Velocity":50,"Duration":103648,"SoundDuration":103648,"Delta":424122316},{"NoteNumber":64,"Velocity":55,"Duration":389737,"SoundDuration":389737,"Delta":424225964},{"NoteNumber":72,"Velocity":55,"Duration":389737,"SoundDuration":389737,"Delta":424225964},{"NoteNumber":36,"Velocity":53,"Duration":185125,"SoundDuration":185125,"Delta":424225964},{"NoteNumber":48,"Velocity":47,"Duration":97434,"SoundDuration":97434,"Delta":424323398},{"NoteNumber":36,"Velocity":53,"Duration":185125,"SoundDuration":185125,"Delta":424420833},{"NoteNumber":48,"Velocity":47,"Duration":97434,"SoundDuration":97434,"Delta":424518267},{"NoteNumber":70,"Velocity":51,"Duration":73075,"SoundDuration":73075,"Delta":424615701},{"NoteNumber":76,"Velocity":51,"Duration":73075,"SoundDuration":73075,"Delta":424615701},{"NoteNumber":36,"Velocity":44,"Duration":185125,"SoundDuration":185125,"Delta":424615701},{"NoteNumber":48,"Velocity":40,"Duration":97434,"SoundDuration":97434,"Delta":424713135},{"NoteNumber":68,"Velocity":53,"Duration":73075,"SoundDuration":73075,"Delta":424810570},{"NoteNumber":77,"Velocity":53,"Duration":73075,"SoundDuration":73075,"Delta":424810570},{"NoteNumber":36,"Velocity":43,"Duration":185125,"SoundDuration":185125,"Delta":424810570},{"NoteNumber":48,"Velocity":45,"Duration":97434,"SoundDuration":97434,"Delta":424908004},{"NoteNumber":76,"Velocity":55,"Duration":72115,"SoundDuration":72115,"Delta":425005438},{"NoteNumber":79,"Velocity":55,"Duration":72115,"SoundDuration":72115,"Delta":425005438},{"NoteNumber":36,"Velocity":46,"Duration":182692,"SoundDuration":182692,"Delta":425005438},{"NoteNumber":48,"Velocity":47,"Duration":96153,"SoundDuration":96153,"Delta":425101592},{"NoteNumber":77,"Velocity":57,"Duration":72115,"SoundDuration":72115,"Delta":425197746},{"NoteNumber":80,"Velocity":57,"Duration":72115,"SoundDuration":72115,"Delta":425197746},{"NoteNumber":36,"Velocity":48,"Duration":182692,"SoundDuration":182692,"Delta":425197746},{"NoteNumber":48,"Velocity":50,"Duration":96153,"SoundDuration":96153,"Delta":425293899},{"NoteNumber":74,"Velocity":59,"Duration":73289,"SoundDuration":73289,"Delta":425390053},{"NoteNumber":83,"Velocity":59,"Duration":73289,"SoundDuration":73289,"Delta":425390053},{"NoteNumber":36,"Velocity":51,"Duration":185667,"SoundDuration":185667,"Delta":425390053},{"NoteNumber":48,"Velocity":53,"Duration":97719,"SoundDuration":97719,"Delta":425487773},{"NoteNumber":72,"Velocity":51,"Duration":394617,"SoundDuration":394617,"Delta":425585493},{"NoteNumber":79,"Velocity":61,"Duration":394617,"SoundDuration":394617,"Delta":425585493},{"NoteNumber":75,"Velocity":51,"Duration":394617,"SoundDuration":394617,"Delta":425585493},{"NoteNumber":84,"Velocity":61,"Duration":394617,"SoundDuration":394617,"Delta":425585493},{"NoteNumber":36,"Velocity":55,"Duration":188442,"SoundDuration":188442,"Delta":425585493},{"NoteNumber":48,"Velocity":50,"Duration":99179,"SoundDuration":99179,"Delta":425684673},{"NoteNumber":36,"Velocity":53,"Duration":186445,"SoundDuration":186445,"Delta":425783853},{"NoteNumber":48,"Velocity":47,"Duration":98129,"SoundDuration":98129,"Delta":425881982},{"NoteNumber":68,"Velocity":53,"Duration":398251,"SoundDuration":398251,"Delta":425980111},{"NoteNumber":75,"Velocity":63,"Duration":398251,"SoundDuration":398251,"Delta":425980111},{"NoteNumber":80,"Velocity":63,"Duration":398251,"SoundDuration":398251,"Delta":425980111},{"NoteNumber":36,"Velocity":55,"Duration":186445,"SoundDuration":186445,"Delta":425980111},{"NoteNumber":48,"Velocity":50,"Duration":98129,"SoundDuration":98129,"Delta":426078240},{"NoteNumber":36,"Velocity":55,"Duration":191893,"SoundDuration":191893,"Delta":426176369},{"NoteNumber":48,"Velocity":51,"Duration":100996,"SoundDuration":100996,"Delta":426277365},{"NoteNumber":68,"Velocity":56,"Duration":395204,"SoundDuration":395204,"Delta":426378362},{"NoteNumber":73,"Velocity":56,"Duration":395204,"SoundDuration":395204,"Delta":426378362},{"NoteNumber":77,"Velocity":67,"Duration":395204,"SoundDuration":395204,"Delta":426378362},{"NoteNumber":37,"Velocity":55,"Duration":187722,"SoundDuration":187722,"Delta":426378362},{"NoteNumber":49,"Velocity":55,"Duration":98801,"SoundDuration":98801,"Delta":426477163},{"NoteNumber":37,"Velocity":55,"Duration":187722,"SoundDuration":187722,"Delta":426575964},{"NoteNumber":49,"Velocity":55,"Duration":98801,"SoundDuration":98801,"Delta":426674765},{"NoteNumber":66,"Velocity":60,"Duration":398620,"SoundDuration":398620,"Delta":426773567},{"NoteNumber":72,"Velocity":60,"Duration":398620,"SoundDuration":398620,"Delta":426773567},{"NoteNumber":75,"Velocity":71,"Duration":398620,"SoundDuration":398620,"Delta":426773567},{"NoteNumber":39,"Velocity":55,"Duration":187722,"SoundDuration":187722,"Delta":426773567},{"NoteNumber":51,"Velocity":53,"Duration":98801,"SoundDuration":98801,"Delta":426872368},{"NoteNumber":39,"Velocity":55,"Duration":190967,"SoundDuration":190967,"Delta":426971169},{"NoteNumber":51,"Velocity":55,"Duration":100509,"SoundDuration":100509,"Delta":427071678},{"NoteNumber":65,"Velocity":62,"Duration":402037,"SoundDuration":402037,"Delta":427172188},{"NoteNumber":68,"Velocity":74,"Duration":402037,"SoundDuration":402037,"Delta":427172188},{"NoteNumber":73,"Velocity":74,"Duration":402037,"SoundDuration":402037,"Delta":427172188},{"NoteNumber":41,"Velocity":56,"Duration":190967,"SoundDuration":190967,"Delta":427172188},{"NoteNumber":53,"Velocity":56,"Duration":100509,"SoundDuration":100509,"Delta":427272697},{"NoteNumber":41,"Velocity":57,"Duration":190967,"SoundDuration":190967,"Delta":427373206},{"NoteNumber":53,"Velocity":57,"Duration":100509,"SoundDuration":100509,"Delta":427473715},{"NoteNumber":70,"Velocity":74,"Duration":402037,"SoundDuration":402037,"Delta":427574225},{"NoteNumber":66,"Velocity":74,"Duration":402037,"SoundDuration":402037,"Delta":427574225},{"NoteNumber":61,"Velocity":74,"Duration":402037,"SoundDuration":402037,"Delta":427574225},{"NoteNumber":42,"Velocity":58,"Duration":190967,"SoundDuration":190967,"Delta":427574225},{"NoteNumber":54,"Velocity":59,"Duration":100509,"SoundDuration":100509,"Delta":427674734},{"NoteNumber":42,"Velocity":59,"Duration":190967,"SoundDuration":190967,"Delta":427775243},{"NoteNumber":54,"Velocity":60,"Duration":100509,"SoundDuration":100509,"Delta":427875752},{"NoteNumber":61,"Velocity":74,"Duration":397903,"SoundDuration":397903,"Delta":427976262},{"NoteNumber":65,"Velocity":74,"Duration":397903,"SoundDuration":397903,"Delta":427976262},{"NoteNumber":68,"Velocity":77,"Duration":800937,"SoundDuration":800937,"Delta":427976262},{"NoteNumber":44,"Velocity":60,"Duration":189004,"SoundDuration":189004,"Delta":427976262},{"NoteNumber":56,"Velocity":55,"Duration":99476,"SoundDuration":99476,"Delta":428075738},{"NoteNumber":44,"Velocity":61,"Duration":189004,"SoundDuration":189004,"Delta":428175214},{"NoteNumber":56,"Velocity":55,"Duration":99475,"SoundDuration":99475,"Delta":428274690},{"NoteNumber":60,"Velocity":74,"Duration":403033,"SoundDuration":403033,"Delta":428374166},{"NoteNumber":63,"Velocity":74,"Duration":403033,"SoundDuration":403033,"Delta":428374166},{"NoteNumber":44,"Velocity":58,"Duration":189004,"SoundDuration":189004,"Delta":428374166},{"NoteNumber":56,"Velocity":55,"Duration":99475,"SoundDuration":99475,"Delta":428473642},{"NoteNumber":44,"Velocity":58,"Duration":193877,"SoundDuration":193877,"Delta":428573118},{"NoteNumber":56,"Velocity":55,"Duration":102040,"SoundDuration":102040,"Delta":428675158},{"NoteNumber":62,"Velocity":51,"Duration":400339,"SoundDuration":400339,"Delta":428777199},{"NoteNumber":65,"Velocity":51,"Duration":400339,"SoundDuration":400339,"Delta":428777199},{"NoteNumber":70,"Velocity":61,"Duration":400339,"SoundDuration":400339,"Delta":428777199},{"NoteNumber":44,"Velocity":52,"Duration":193877,"SoundDuration":193877,"Delta":428777199},{"NoteNumber":56,"Velocity":45,"Duration":102040,"SoundDuration":102040,"Delta":428879240},{"NoteNumber":44,"Velocity":53,"Duration":186445,"SoundDuration":186445,"Delta":428981281},{"NoteNumber":56,"Velocity":47,"Duration":98129,"SoundDuration":98129,"Delta":429079410},{"NoteNumber":70,"Velocity":53,"Duration":398251,"SoundDuration":398251,"Delta":429177539},{"NoteNumber":77,"Velocity":63,"Duration":398251,"SoundDuration":398251,"Delta":429177539},{"NoteNumber":82,"Velocity":63,"Duration":398251,"SoundDuration":398251,"Delta":429177539},{"NoteNumber":38,"Velocity":55,"Duration":186445,"SoundDuration":186445,"Delta":429177539},{"NoteNumber":50,"Velocity":50,"Duration":98129,"SoundDuration":98129,"Delta":429275668},{"NoteNumber":38,"Velocity":55,"Duration":191893,"SoundDuration":191893,"Delta":429373797},{"NoteNumber":50,"Velocity":51,"Duration":100996,"SoundDuration":100996,"Delta":429474793},{"NoteNumber":70,"Velocity":56,"Duration":395204,"SoundDuration":395204,"Delta":429575790},{"NoteNumber":75,"Velocity":56,"Duration":395204,"SoundDuration":395204,"Delta":429575790},{"NoteNumber":78,"Velocity":67,"Duration":395204,"SoundDuration":395204,"Delta":429575790},{"NoteNumber":39,"Velocity":55,"Duration":187722,"SoundDuration":187722,"Delta":429575790},{"NoteNumber":51,"Velocity":55,"Duration":98801,"SoundDuration":98801,"Delta":429674591},{"NoteNumber":39,"Velocity":55,"Duration":187722,"SoundDuration":187722,"Delta":429773392},{"NoteNumber":51,"Velocity":55,"Duration":98801,"SoundDuration":98801,"Delta":429872193},{"NoteNumber":68,"Velocity":60,"Duration":398620,"SoundDuration":398620,"Delta":429970995},{"NoteNumber":74,"Velocity":60,"Duration":398620,"SoundDuration":398620,"Delta":429970995},{"NoteNumber":77,"Velocity":71,"Duration":398620,"SoundDuration":398620,"Delta":429970995},{"NoteNumber":41,"Velocity":55,"Duration":187722,"SoundDuration":187722,"Delta":429970995},{"NoteNumber":53,"Velocity":53,"Duration":98801,"SoundDuration":98801,"Delta":430069796},{"NoteNumber":41,"Velocity":55,"Duration":190967,"SoundDuration":190967,"Delta":430168597},{"NoteNumber":53,"Velocity":55,"Duration":100509,"SoundDuration":100509,"Delta":430269106},{"NoteNumber":66,"Velocity":62,"Duration":402037,"SoundDuration":402037,"Delta":430369616},{"NoteNumber":70,"Velocity":74,"Duration":402037,"SoundDuration":402037,"Delta":430369616},{"NoteNumber":75,"Velocity":74,"Duration":402037,"SoundDuration":402037,"Delta":430369616},{"NoteNumber":42,"Velocity":56,"Duration":190967,"SoundDuration":190967,"Delta":430369616},{"NoteNumber":54,"Velocity":56,"Duration":100509,"SoundDuration":100509,"Delta":430470125},{"NoteNumber":42,"Velocity":57,"Duration":190967,"SoundDuration":190967,"Delta":430570634},{"NoteNumber":54,"Velocity":57,"Duration":100509,"SoundDuration":100509,"Delta":430671143},{"NoteNumber":63,"Velocity":74,"Duration":402037,"SoundDuration":402037,"Delta":430771653},{"NoteNumber":71,"Velocity":74,"Duration":402037,"SoundDuration":402037,"Delta":430771653},{"NoteNumber":68,"Velocity":74,"Duration":402037,"SoundDuration":402037,"Delta":430771653},{"NoteNumber":44,"Velocity":58,"Duration":190967,"SoundDuration":190967,"Delta":430771653},{"NoteNumber":56,"Velocity":59,"Duration":100509,"SoundDuration":100509,"Delta":430872162},{"NoteNumber":44,"Velocity":59,"Duration":190967,"SoundDuration":190967,"Delta":430972671},{"NoteNumber":56,"Velocity":60,"Duration":100509,"SoundDuration":100509,"Delta":431073180},{"NoteNumber":63,"Velocity":74,"Duration":397903,"SoundDuration":397903,"Delta":431173690},{"NoteNumber":66,"Velocity":74,"Duration":397903,"SoundDuration":397903,"Delta":431173690},{"NoteNumber":70,"Velocity":77,"Duration":799558,"SoundDuration":799558,"Delta":431173690},{"NoteNumber":46,"Velocity":60,"Duration":189004,"SoundDuration":189004,"Delta":431173690},{"NoteNumber":58,"Velocity":55,"Duration":99476,"SoundDuration":99476,"Delta":431273166},{"NoteNumber":46,"Velocity":61,"Duration":189004,"SoundDuration":189004,"Delta":431372642},{"NoteNumber":58,"Velocity":55,"Duration":99475,"SoundDuration":99475,"Delta":431472118},{"NoteNumber":62,"Velocity":74,"Duration":401654,"SoundDuration":401654,"Delta":431571594},{"NoteNumber":65,"Velocity":74,"Duration":401654,"SoundDuration":401654,"Delta":431571594},{"NoteNumber":46,"Velocity":58,"Duration":189004,"SoundDuration":189004,"Delta":431571594},{"NoteNumber":58,"Velocity":55,"Duration":99475,"SoundDuration":99475,"Delta":431671070},{"NoteNumber":46,"Velocity":58,"Duration":192567,"SoundDuration":192567,"Delta":431770546},{"NoteNumber":58,"Velocity":55,"Duration":101351,"SoundDuration":101351,"Delta":431871897},{"NoteNumber":64,"Velocity":51,"Duration":398960,"SoundDuration":398960,"Delta":431973248},{"NoteNumber":67,"Velocity":51,"Duration":398960,"SoundDuration":398960,"Delta":431973248},{"NoteNumber":72,"Velocity":61,"Duration":398960,"SoundDuration":398960,"Delta":431973248},{"NoteNumber":46,"Velocity":53,"Duration":192567,"SoundDuration":192567,"Delta":431973248},{"NoteNumber":58,"Velocity":46,"Duration":101351,"SoundDuration":101351,"Delta":432074599},{"NoteNumber":46,"Velocity":50,"Duration":186445,"SoundDuration":186445,"Delta":432175951},{"NoteNumber":58,"Velocity":47,"Duration":98129,"SoundDuration":98129,"Delta":432274080},{"NoteNumber":72,"Velocity":53,"Duration":398251,"SoundDuration":398251,"Delta":432372209},{"NoteNumber":79,"Velocity":63,"Duration":398251,"SoundDuration":398251,"Delta":432372209},{"NoteNumber":84,"Velocity":63,"Duration":398251,"SoundDuration":398251,"Delta":432372209},{"NoteNumber":40,"Velocity":55,"Duration":186445,"SoundDuration":186445,"Delta":432372209},{"NoteNumber":52,"Velocity":50,"Duration":98129,"SoundDuration":98129,"Delta":432470338},{"NoteNumber":40,"Velocity":55,"Duration":191893,"SoundDuration":191893,"Delta":432568467},{"NoteNumber":52,"Velocity":51,"Duration":100996,"SoundDuration":100996,"Delta":432669463},{"NoteNumber":72,"Velocity":56,"Duration":395204,"SoundDuration":395204,"Delta":432770460},{"NoteNumber":77,"Velocity":56,"Duration":395204,"SoundDuration":395204,"Delta":432770460},{"NoteNumber":80,"Velocity":67,"Duration":395204,"SoundDuration":395204,"Delta":432770460},{"NoteNumber":41,"Velocity":55,"Duration":187722,"SoundDuration":187722,"Delta":432770460},{"NoteNumber":53,"Velocity":55,"Duration":98801,"SoundDuration":98801,"Delta":432869261},{"NoteNumber":41,"Velocity":55,"Duration":187722,"SoundDuration":187722,"Delta":432968062},{"NoteNumber":53,"Velocity":55,"Duration":98801,"SoundDuration":98801,"Delta":433066863},{"NoteNumber":70,"Velocity":60,"Duration":398620,"SoundDuration":398620,"Delta":433165665},{"NoteNumber":76,"Velocity":60,"Duration":398620,"SoundDuration":398620,"Delta":433165665},{"NoteNumber":79,"Velocity":71,"Duration":398620,"SoundDuration":398620,"Delta":433165665},{"NoteNumber":43,"Velocity":55,"Duration":187722,"SoundDuration":187722,"Delta":433165665},{"NoteNumber":55,"Velocity":53,"Duration":98801,"SoundDuration":98801,"Delta":433264466},{"NoteNumber":43,"Velocity":55,"Duration":190967,"SoundDuration":190967,"Delta":433363267},{"NoteNumber":55,"Velocity":55,"Duration":100509,"SoundDuration":100509,"Delta":433463776},{"NoteNumber":68,"Velocity":62,"Duration":402037,"SoundDuration":402037,"Delta":433564286},{"NoteNumber":72,"Velocity":74,"Duration":402037,"SoundDuration":402037,"Delta":433564286},{"NoteNumber":77,"Velocity":74,"Duration":402037,"SoundDuration":402037,"Delta":433564286},{"NoteNumber":44,"Velocity":56,"Duration":190967,"SoundDuration":190967,"Delta":433564286},{"NoteNumber":56,"Velocity":56,"Duration":100509,"SoundDuration":100509,"Delta":433664795},{"NoteNumber":44,"Velocity":57,"Duration":190967,"SoundDuration":190967,"Delta":433765304},{"NoteNumber":56,"Velocity":57,"Duration":100509,"SoundDuration":100509,"Delta":433865813},{"NoteNumber":73,"Velocity":74,"Duration":402037,"SoundDuration":402037,"Delta":433966323},{"NoteNumber":65,"Velocity":74,"Duration":402037,"SoundDuration":402037,"Delta":433966323},{"NoteNumber":46,"Velocity":58,"Duration":190967,"SoundDuration":190967,"Delta":433966323},{"NoteNumber":58,"Velocity":59,"Duration":100509,"SoundDuration":100509,"Delta":434066832},{"NoteNumber":46,"Velocity":59,"Duration":190967,"SoundDuration":190967,"Delta":434167341},{"NoteNumber":58,"Velocity":60,"Duration":100509,"SoundDuration":100509,"Delta":434267850},{"NoteNumber":65,"Velocity":74,"Duration":397903,"SoundDuration":397903,"Delta":434368360},{"NoteNumber":72,"Velocity":77,"Duration":397903,"SoundDuration":397903,"Delta":434368360},{"NoteNumber":48,"Velocity":60,"Duration":189004,"SoundDuration":189004,"Delta":434368360},{"NoteNumber":60,"Velocity":55,"Duration":99476,"SoundDuration":99476,"Delta":434467836},{"NoteNumber":48,"Velocity":61,"Duration":189004,"SoundDuration":189004,"Delta":434567312},{"NoteNumber":60,"Velocity":55,"Duration":99475,"SoundDuration":99475,"Delta":434666788},{"NoteNumber":65,"Velocity":74,"Duration":397904,"SoundDuration":397904,"Delta":434766264},{"NoteNumber":71,"Velocity":74,"Duration":397904,"SoundDuration":397904,"Delta":434766264},{"NoteNumber":49,"Velocity":58,"Duration":189004,"SoundDuration":189004,"Delta":434766264},{"NoteNumber":61,"Velocity":55,"Duration":99475,"SoundDuration":99475,"Delta":434865740},{"NoteNumber":49,"Velocity":58,"Duration":189004,"SoundDuration":189004,"Delta":434965216},{"NoteNumber":61,"Velocity":55,"Duration":99476,"SoundDuration":99476,"Delta":435064692},{"NoteNumber":64,"Velocity":65,"Duration":198951,"SoundDuration":198951,"Delta":435164168},{"NoteNumber":72,"Velocity":73,"Duration":198951,"SoundDuration":198951,"Delta":435164168},{"NoteNumber":48,"Velocity":58,"Duration":198951,"SoundDuration":198951,"Delta":435164168},{"NoteNumber":60,"Velocity":58,"Duration":198951,"SoundDuration":198951,"Delta":435164168},{"NoteNumber":59,"Velocity":50,"Duration":203390,"SoundDuration":203390,"Delta":435363120},{"NoteNumber":60,"Velocity":59,"Duration":203390,"SoundDuration":203390,"Delta":435566510},{"NoteNumber":59,"Velocity":56,"Duration":203389,"SoundDuration":203389,"Delta":435769900},{"NoteNumber":60,"Velocity":57,"Duration":203390,"SoundDuration":203390,"Delta":435973290},{"NoteNumber":59,"Velocity":49,"Duration":203390,"SoundDuration":203390,"Delta":436176680},{"NoteNumber":60,"Velocity":57,"Duration":203390,"SoundDuration":203390,"Delta":436380070},{"NoteNumber":59,"Velocity":51,"Duration":203389,"SoundDuration":203389,"Delta":436583460},{"NoteNumber":60,"Velocity":44,"Duration":796999,"SoundDuration":796999,"Delta":436786850},{"NoteNumber":48,"Velocity":55,"Duration":100671,"SoundDuration":100671,"Delta":436991628},{"NoteNumber":65,"Velocity":38,"Duration":191275,"SoundDuration":191275,"Delta":436991628},{"NoteNumber":68,"Velocity":38,"Duration":191275,"SoundDuration":191275,"Delta":436991628},{"NoteNumber":53,"Velocity":58,"Duration":97719,"SoundDuration":97719,"Delta":437192970},{"NoteNumber":65,"Velocity":38,"Duration":185667,"SoundDuration":185667,"Delta":437192970},{"NoteNumber":68,"Velocity":38,"Duration":185667,"SoundDuration":185667,"Delta":437192970},{"NoteNumber":55,"Velocity":61,"Duration":97719,"SoundDuration":97719,"Delta":437388410},{"NoteNumber":65,"Velocity":38,"Duration":185667,"SoundDuration":185667,"Delta":437388410},{"NoteNumber":68,"Velocity":38,"Duration":185667,"SoundDuration":185667,"Delta":437388410},{"NoteNumber":56,"Velocity":64,"Duration":102040,"SoundDuration":102040,"Delta":437583849},{"NoteNumber":60,"Velocity":44,"Duration":806833,"SoundDuration":806833,"Delta":437583849},{"NoteNumber":72,"Velocity":62,"Duration":102040,"SoundDuration":102040,"Delta":437787931},{"NoteNumber":65,"Velocity":38,"Duration":193877,"SoundDuration":193877,"Delta":437787931},{"NoteNumber":68,"Velocity":38,"Duration":193877,"SoundDuration":193877,"Delta":437787931},{"NoteNumber":77,"Velocity":64,"Duration":99667,"SoundDuration":99667,"Delta":437992012},{"NoteNumber":65,"Velocity":38,"Duration":189368,"SoundDuration":189368,"Delta":437992012},{"NoteNumber":68,"Velocity":38,"Duration":189368,"SoundDuration":189368,"Delta":437992012},{"NoteNumber":79,"Velocity":66,"Duration":99667,"SoundDuration":99667,"Delta":438191348},{"NoteNumber":65,"Velocity":38,"Duration":189368,"SoundDuration":189368,"Delta":438191348},{"NoteNumber":68,"Velocity":38,"Duration":189368,"SoundDuration":189368,"Delta":438191348},{"NoteNumber":72,"Velocity":65,"Duration":49833,"SoundDuration":49833,"Delta":438340849},{"NoteNumber":80,"Velocity":75,"Duration":602702,"SoundDuration":602702,"Delta":438390683},{"NoteNumber":60,"Velocity":44,"Duration":806092,"SoundDuration":806092,"Delta":438390683},{"NoteNumber":65,"Velocity":38,"Duration":189999,"SoundDuration":189999,"Delta":438593386},{"NoteNumber":68,"Velocity":38,"Duration":189999,"SoundDuration":189999,"Delta":438593386},{"NoteNumber":65,"Velocity":38,"Duration":189999,"SoundDuration":189999,"Delta":438793386},{"NoteNumber":68,"Velocity":38,"Duration":189999,"SoundDuration":189999,"Delta":438793386},{"NoteNumber":77,"Velocity":63,"Duration":203390,"SoundDuration":203390,"Delta":438993386},{"NoteNumber":65,"Velocity":38,"Duration":193220,"SoundDuration":193220,"Delta":438993386},{"NoteNumber":68,"Velocity":38,"Duration":193220,"SoundDuration":193220,"Delta":438993386},{"NoteNumber":72,"Velocity":60,"Duration":50847,"SoundDuration":50847,"Delta":439145928},{"NoteNumber":80,"Velocity":71,"Duration":603389,"SoundDuration":603389,"Delta":439196776},{"NoteNumber":60,"Velocity":44,"Duration":805409,"SoundDuration":805409,"Delta":439196776},{"NoteNumber":65,"Velocity":38,"Duration":189999,"SoundDuration":189999,"Delta":439400166},{"NoteNumber":68,"Velocity":38,"Duration":189999,"SoundDuration":189999,"Delta":439400166},{"NoteNumber":65,"Velocity":38,"Duration":189999,"SoundDuration":189999,"Delta":439600166},{"NoteNumber":68,"Velocity":38,"Duration":189999,"SoundDuration":189999,"Delta":439600166},{"NoteNumber":77,"Velocity":58,"Duration":202020,"SoundDuration":202020,"Delta":439800166},{"NoteNumber":65,"Velocity":38,"Duration":191918,"SoundDuration":191918,"Delta":439800166},{"NoteNumber":68,"Velocity":38,"Duration":191918,"SoundDuration":191918,"Delta":439800166},{"NoteNumber":76,"Velocity":60,"Duration":207612,"SoundDuration":207612,"Delta":440002186},{"NoteNumber":60,"Velocity":44,"Duration":798491,"SoundDuration":798491,"Delta":440002186},{"NoteNumber":48,"Velocity":57,"Duration":100000,"SoundDuration":100000,"Delta":440209798},{"NoteNumber":67,"Velocity":38,"Duration":189999,"SoundDuration":189999,"Delta":440209798},{"NoteNumber":70,"Velocity":38,"Duration":189999,"SoundDuration":189999,"Delta":440209798},{"NoteNumber":55,"Velocity":60,"Duration":97719,"SoundDuration":97719,"Delta":440409798},{"NoteNumber":67,"Velocity":38,"Duration":185667,"SoundDuration":185667,"Delta":440409798},{"NoteNumber":70,"Velocity":38,"Duration":185667,"SoundDuration":185667,"Delta":440409798},{"NoteNumber":56,"Velocity":63,"Duration":97719,"SoundDuration":97719,"Delta":440605238},{"NoteNumber":67,"Velocity":38,"Duration":185667,"SoundDuration":185667,"Delta":440605238},{"NoteNumber":70,"Velocity":38,"Duration":185667,"SoundDuration":185667,"Delta":440605238},{"NoteNumber":58,"Velocity":66,"Duration":102040,"SoundDuration":102040,"Delta":440800677},{"NoteNumber":60,"Velocity":44,"Duration":808162,"SoundDuration":808162,"Delta":440800677},{"NoteNumber":72,"Velocity":59,"Duration":204081,"SoundDuration":204081,"Delta":441004759},{"NoteNumber":67,"Velocity":38,"Duration":193877,"SoundDuration":193877,"Delta":441004759},{"NoteNumber":70,"Velocity":38,"Duration":193877,"SoundDuration":193877,"Delta":441004759},{"NoteNumber":82,"Velocity":62,"Duration":199999,"SoundDuration":199999,"Delta":441208840},{"NoteNumber":67,"Velocity":38,"Duration":189999,"SoundDuration":189999,"Delta":441208840},{"NoteNumber":70,"Velocity":38,"Duration":189999,"SoundDuration":189999,"Delta":441208840},{"NoteNumber":80,"Velocity":65,"Duration":199999,"SoundDuration":199999,"Delta":441408840},{"NoteNumber":67,"Velocity":38,"Duration":189999,"SoundDuration":189999,"Delta":441408840},{"NoteNumber":70,"Velocity":38,"Duration":189999,"SoundDuration":189999,"Delta":441408840},{"NoteNumber":80,"Velocity":60,"Duration":50847,"SoundDuration":50847,"Delta":441608840},{"NoteNumber":60,"Velocity":44,"Duration":813559,"SoundDuration":813559,"Delta":441608840},{"NoteNumber":82,"Velocity":60,"Duration":50847,"SoundDuration":50847,"Delta":441659688},{"NoteNumber":80,"Velocity":67,"Duration":101695,"SoundDuration":101695,"Delta":441710535},{"NoteNumber":79,"Velocity":60,"Duration":203390,"SoundDuration":203390,"Delta":441812230},{"NoteNumber":67,"Velocity":38,"Duration":193220,"SoundDuration":193220,"Delta":441812230},{"NoteNumber":70,"Velocity":38,"Duration":193220,"SoundDuration":193220,"Delta":441812230},{"NoteNumber":79,"Velocity":60,"Duration":50847,"SoundDuration":50847,"Delta":442015620},{"NoteNumber":67,"Velocity":38,"Duration":193220,"SoundDuration":193220,"Delta":442015620},{"NoteNumber":70,"Velocity":38,"Duration":193220,"SoundDuration":193220,"Delta":442015620},{"NoteNumber":80,"Velocity":60,"Duration":50847,"SoundDuration":50847,"Delta":442066468},{"NoteNumber":79,"Velocity":67,"Duration":101695,"SoundDuration":101695,"Delta":442117315},{"NoteNumber":77,"Velocity":60,"Duration":203390,"SoundDuration":203390,"Delta":442219010},{"NoteNumber":67,"Velocity":38,"Duration":193220,"SoundDuration":193220,"Delta":442219010},{"NoteNumber":70,"Velocity":38,"Duration":193220,"SoundDuration":193220,"Delta":442219010},{"NoteNumber":77,"Velocity":60,"Duration":50847,"SoundDuration":50847,"Delta":442422400},{"NoteNumber":60,"Velocity":44,"Duration":813559,"SoundDuration":813559,"Delta":442422400},{"NoteNumber":79,"Velocity":60,"Duration":50847,"SoundDuration":50847,"Delta":442473248},{"NoteNumber":77,"Velocity":66,"Duration":101695,"SoundDuration":101695,"Delta":442524095},{"NoteNumber":76,"Velocity":60,"Duration":203390,"SoundDuration":203390,"Delta":442625790},{"NoteNumber":67,"Velocity":38,"Duration":193220,"SoundDuration":193220,"Delta":442625790},{"NoteNumber":70,"Velocity":38,"Duration":193220,"SoundDuration":193220,"Delta":442625790},{"NoteNumber":74,"Velocity":60,"Duration":101695,"SoundDuration":101695,"Delta":442829180},{"NoteNumber":67,"Velocity":38,"Duration":193220,"SoundDuration":193220,"Delta":442829180},{"NoteNumber":70,"Velocity":38,"Duration":193220,"SoundDuration":193220,"Delta":442829180},{"NoteNumber":76,"Velocity":60,"Duration":101695,"SoundDuration":101695,"Delta":443032570},{"NoteNumber":67,"Velocity":38,"Duration":193220,"SoundDuration":193220,"Delta":443032570},{"NoteNumber":70,"Velocity":38,"Duration":193220,"SoundDuration":193220,"Delta":443032570},{"NoteNumber":77,"Velocity":60,"Duration":208333,"SoundDuration":208333,"Delta":443235960},{"NoteNumber":60,"Velocity":44,"Duration":799212,"SoundDuration":799212,"Delta":443235960},{"NoteNumber":48,"Velocity":55,"Duration":100000,"SoundDuration":100000,"Delta":443444294},{"NoteNumber":65,"Velocity":38,"Duration":189999,"SoundDuration":189999,"Delta":443444294},{"NoteNumber":68,"Velocity":38,"Duration":189999,"SoundDuration":189999,"Delta":443444294},{"NoteNumber":53,"Velocity":58,"Duration":97719,"SoundDuration":97719,"Delta":443644294},{"NoteNumber":65,"Velocity":38,"Duration":185667,"SoundDuration":185667,"Delta":443644294},{"NoteNumber":68,"Velocity":38,"Duration":185667,"SoundDuration":185667,"Delta":443644294},{"NoteNumber":55,"Velocity":61,"Duration":97719,"SoundDuration":97719,"Delta":443839733},{"NoteNumber":65,"Velocity":38,"Duration":185667,"SoundDuration":185667,"Delta":443839733},{"NoteNumber":68,"Velocity":38,"Duration":185667,"SoundDuration":185667,"Delta":443839733},{"NoteNumber":56,"Velocity":64,"Duration":102040,"SoundDuration":102040,"Delta":444035173},{"NoteNumber":60,"Velocity":44,"Duration":806833,"SoundDuration":806833,"Delta":444035173},{"NoteNumber":72,"Velocity":62,"Duration":102040,"SoundDuration":102040,"Delta":444239254},{"NoteNumber":65,"Velocity":38,"Duration":193877,"SoundDuration":193877,"Delta":444239254},{"NoteNumber":68,"Velocity":38,"Duration":193877,"SoundDuration":193877,"Delta":444239254},{"NoteNumber":77,"Velocity":64,"Duration":99667,"SoundDuration":99667,"Delta":444443336},{"NoteNumber":65,"Velocity":38,"Duration":189368,"SoundDuration":189368,"Delta":444443336},{"NoteNumber":68,"Velocity":38,"Duration":189368,"SoundDuration":189368,"Delta":444443336},{"NoteNumber":80,"Velocity":66,"Duration":99667,"SoundDuration":99667,"Delta":444642671},{"NoteNumber":65,"Velocity":38,"Duration":189368,"SoundDuration":189368,"Delta":444642671},{"NoteNumber":68,"Velocity":38,"Duration":189368,"SoundDuration":189368,"Delta":444642671},{"NoteNumber":72,"Velocity":65,"Duration":49833,"SoundDuration":49833,"Delta":444792173},{"NoteNumber":84,"Velocity":75,"Duration":602702,"SoundDuration":602702,"Delta":444842007},{"NoteNumber":56,"Velocity":44,"Duration":806092,"SoundDuration":806092,"Delta":444842007},{"NoteNumber":60,"Velocity":38,"Duration":189999,"SoundDuration":189999,"Delta":445044709},{"NoteNumber":65,"Velocity":38,"Duration":189999,"SoundDuration":189999,"Delta":445044709},{"NoteNumber":60,"Velocity":38,"Duration":189999,"SoundDuration":189999,"Delta":445244709},{"NoteNumber":65,"Velocity":38,"Duration":189999,"SoundDuration":189999,"Delta":445244709},{"NoteNumber":77,"Velocity":63,"Duration":135593,"SoundDuration":135593,"Delta":445444709},{"NoteNumber":60,"Velocity":38,"Duration":193220,"SoundDuration":193220,"Delta":445444709},{"NoteNumber":65,"Velocity":38,"Duration":193220,"SoundDuration":193220,"Delta":445444709},{"NoteNumber":77,"Velocity":60,"Duration":50847,"SoundDuration":50847,"Delta":445597252},{"NoteNumber":89,"Velocity":71,"Duration":603389,"SoundDuration":603389,"Delta":445648099},{"NoteNumber":56,"Velocity":44,"Duration":805409,"SoundDuration":805409,"Delta":445648099},{"NoteNumber":60,"Velocity":38,"Duration":189999,"SoundDuration":189999,"Delta":445851489},{"NoteNumber":65,"Velocity":38,"Duration":189999,"SoundDuration":189999,"Delta":445851489},{"NoteNumber":60,"Velocity":38,"Duration":189999,"SoundDuration":189999,"Delta":446051489},{"NoteNumber":65,"Velocity":38,"Duration":189999,"SoundDuration":189999,"Delta":446051489},{"NoteNumber":84,"Velocity":58,"Duration":202020,"SoundDuration":202020,"Delta":446251489},{"NoteNumber":60,"Velocity":38,"Duration":191918,"SoundDuration":191918,"Delta":446251489},{"NoteNumber":65,"Velocity":38,"Duration":191918,"SoundDuration":191918,"Delta":446251489},{"NoteNumber":83,"Velocity":60,"Duration":208333,"SoundDuration":208333,"Delta":446453509},{"NoteNumber":55,"Velocity":44,"Duration":794703,"SoundDuration":794703,"Delta":446453509},{"NoteNumber":43,"Velocity":57,"Duration":99010,"SoundDuration":99010,"Delta":446661843},{"NoteNumber":62,"Velocity":38,"Duration":188118,"SoundDuration":188118,"Delta":446661843},{"NoteNumber":65,"Velocity":38,"Duration":188118,"SoundDuration":188118,"Delta":446661843},{"NoteNumber":50,"Velocity":60,"Duration":97087,"SoundDuration":97087,"Delta":446859863},{"NoteNumber":62,"Velocity":38,"Duration":184466,"SoundDuration":184466,"Delta":446859863},{"NoteNumber":65,"Velocity":38,"Duration":184466,"SoundDuration":184466,"Delta":446859863},{"NoteNumber":51,"Velocity":63,"Duration":97087,"SoundDuration":97087,"Delta":447054038},{"NoteNumber":62,"Velocity":38,"Duration":184466,"SoundDuration":184466,"Delta":447054038},{"NoteNumber":65,"Velocity":38,"Duration":184466,"SoundDuration":184466,"Delta":447054038},{"NoteNumber":53,"Velocity":66,"Duration":102040,"SoundDuration":102040,"Delta":447248213},{"NoteNumber":55,"Velocity":44,"Duration":808162,"SoundDuration":808162,"Delta":447248213},{"NoteNumber":67,"Velocity":59,"Duration":204081,"SoundDuration":204081,"Delta":447452294},{"NoteNumber":62,"Velocity":38,"Duration":193877,"SoundDuration":193877,"Delta":447452294},{"NoteNumber":65,"Velocity":38,"Duration":193877,"SoundDuration":193877,"Delta":447452294},{"NoteNumber":77,"Velocity":62,"Duration":199999,"SoundDuration":199999,"Delta":447656376},{"NoteNumber":62,"Velocity":38,"Duration":189999,"SoundDuration":189999,"Delta":447656376},{"NoteNumber":65,"Velocity":38,"Duration":189999,"SoundDuration":189999,"Delta":447656376},{"NoteNumber":75,"Velocity":65,"Duration":199999,"SoundDuration":199999,"Delta":447856376},{"NoteNumber":62,"Velocity":38,"Duration":189999,"SoundDuration":189999,"Delta":447856376},{"NoteNumber":65,"Velocity":38,"Duration":189999,"SoundDuration":189999,"Delta":447856376},{"NoteNumber":75,"Velocity":60,"Duration":50847,"SoundDuration":50847,"Delta":448056376},{"NoteNumber":55,"Velocity":44,"Duration":813559,"SoundDuration":813559,"Delta":448056376},{"NoteNumber":77,"Velocity":60,"Duration":50847,"SoundDuration":50847,"Delta":448107223},{"NoteNumber":75,"Velocity":67,"Duration":101695,"SoundDuration":101695,"Delta":448158071},{"NoteNumber":74,"Velocity":60,"Duration":203390,"SoundDuration":203390,"Delta":448259766},{"NoteNumber":62,"Velocity":38,"Duration":193220,"SoundDuration":193220,"Delta":448259766},{"NoteNumber":65,"Velocity":38,"Duration":193220,"SoundDuration":193220,"Delta":448259766},{"NoteNumber":74,"Velocity":60,"Duration":50847,"SoundDuration":50847,"Delta":448463156},{"NoteNumber":62,"Velocity":38,"Duration":193220,"SoundDuration":193220,"Delta":448463156},{"NoteNumber":65,"Velocity":38,"Duration":193220,"SoundDuration":193220,"Delta":448463156},{"NoteNumber":75,"Velocity":60,"Duration":50847,"SoundDuration":50847,"Delta":448514003},{"NoteNumber":74,"Velocity":67,"Duration":101695,"SoundDuration":101695,"Delta":448564851},{"NoteNumber":72,"Velocity":60,"Duration":203390,"SoundDuration":203390,"Delta":448666546},{"NoteNumber":62,"Velocity":38,"Duration":193220,"SoundDuration":193220,"Delta":448666546},{"NoteNumber":65,"Velocity":38,"Duration":193220,"SoundDuration":193220,"Delta":448666546},{"NoteNumber":72,"Velocity":60,"Duration":50847,"SoundDuration":50847,"Delta":448869936},{"NoteNumber":55,"Velocity":44,"Duration":813559,"SoundDuration":813559,"Delta":448869936},{"NoteNumber":74,"Velocity":60,"Duration":50847,"SoundDuration":50847,"Delta":448920783},{"NoteNumber":72,"Velocity":66,"Duration":101695,"SoundDuration":101695,"Delta":448971631},{"NoteNumber":71,"Velocity":60,"Duration":203390,"SoundDuration":203390,"Delta":449073326},{"NoteNumber":62,"Velocity":38,"Duration":193220,"SoundDuration":193220,"Delta":449073326},{"NoteNumber":65,"Velocity":38,"Duration":193220,"SoundDuration":193220,"Delta":449073326},{"NoteNumber":69,"Velocity":60,"Duration":101695,"SoundDuration":101695,"Delta":449276716},{"NoteNumber":62,"Velocity":38,"Duration":193220,"SoundDuration":193220,"Delta":449276716},{"NoteNumber":65,"Velocity":38,"Duration":193220,"SoundDuration":193220,"Delta":449276716},{"NoteNumber":71,"Velocity":60,"Duration":101695,"SoundDuration":101695,"Delta":449480106},{"NoteNumber":62,"Velocity":38,"Duration":193220,"SoundDuration":193220,"Delta":449480106},{"NoteNumber":65,"Velocity":38,"Duration":193220,"SoundDuration":193220,"Delta":449480106},{"NoteNumber":72,"Velocity":60,"Duration":204777,"SoundDuration":204777,"Delta":449683496},{"NoteNumber":55,"Velocity":44,"Duration":798889,"SoundDuration":798889,"Delta":449683496},{"NoteNumber":43,"Velocity":55,"Duration":100334,"SoundDuration":100334,"Delta":449888274},{"NoteNumber":60,"Velocity":38,"Duration":190635,"SoundDuration":190635,"Delta":449888274},{"NoteNumber":63,"Velocity":38,"Duration":190635,"SoundDuration":190635,"Delta":449888274},{"NoteNumber":48,"Velocity":58,"Duration":98360,"SoundDuration":98360,"Delta":450088943},{"NoteNumber":60,"Velocity":38,"Duration":186885,"SoundDuration":186885,"Delta":450088943},{"NoteNumber":63,"Velocity":38,"Duration":186885,"SoundDuration":186885,"Delta":450088943},{"NoteNumber":50,"Velocity":61,"Duration":98360,"SoundDuration":98360,"Delta":450285664},{"NoteNumber":60,"Velocity":38,"Duration":186885,"SoundDuration":186885,"Delta":450285664},{"NoteNumber":63,"Velocity":38,"Duration":186885,"SoundDuration":186885,"Delta":450285664},{"NoteNumber":51,"Velocity":64,"Duration":102040,"SoundDuration":102040,"Delta":450482386},{"NoteNumber":55,"Velocity":44,"Duration":806833,"SoundDuration":806833,"Delta":450482386},{"NoteNumber":79,"Velocity":62,"Duration":102040,"SoundDuration":102040,"Delta":450686467},{"NoteNumber":60,"Velocity":38,"Duration":193877,"SoundDuration":193877,"Delta":450686467},{"NoteNumber":63,"Velocity":38,"Duration":193877,"SoundDuration":193877,"Delta":450686467},{"NoteNumber":84,"Velocity":64,"Duration":99667,"SoundDuration":99667,"Delta":450890549},{"NoteNumber":60,"Velocity":38,"Duration":189368,"SoundDuration":189368,"Delta":450890549},{"NoteNumber":63,"Velocity":38,"Duration":189368,"SoundDuration":189368,"Delta":450890549},{"NoteNumber":86,"Velocity":66,"Duration":99667,"SoundDuration":99667,"Delta":451089884},{"NoteNumber":60,"Velocity":38,"Duration":189368,"SoundDuration":189368,"Delta":451089884},{"NoteNumber":63,"Velocity":38,"Duration":189368,"SoundDuration":189368,"Delta":451089884},{"NoteNumber":79,"Velocity":65,"Duration":49833,"SoundDuration":49833,"Delta":451239386},{"NoteNumber":87,"Velocity":75,"Duration":602702,"SoundDuration":602702,"Delta":451289220},{"NoteNumber":55,"Velocity":44,"Duration":806092,"SoundDuration":806092,"Delta":451289220},{"NoteNumber":60,"Velocity":38,"Duration":189999,"SoundDuration":189999,"Delta":451491922},{"NoteNumber":63,"Velocity":38,"Duration":189999,"SoundDuration":189999,"Delta":451491922},{"NoteNumber":60,"Velocity":38,"Duration":189999,"SoundDuration":189999,"Delta":451691922},{"NoteNumber":63,"Velocity":38,"Duration":189999,"SoundDuration":189999,"Delta":451691922},{"NoteNumber":84,"Velocity":63,"Duration":203390,"SoundDuration":203390,"Delta":451891922},{"NoteNumber":60,"Velocity":38,"Duration":193220,"SoundDuration":193220,"Delta":451891922},{"NoteNumber":63,"Velocity":38,"Duration":193220,"SoundDuration":193220,"Delta":451891922},{"NoteNumber":79,"Velocity":60,"Duration":50847,"SoundDuration":50847,"Delta":452044465},{"NoteNumber":87,"Velocity":71,"Duration":603389,"SoundDuration":603389,"Delta":452095312},{"NoteNumber":55,"Velocity":44,"Duration":805409,"SoundDuration":805409,"Delta":452095312},{"NoteNumber":60,"Velocity":38,"Duration":189999,"SoundDuration":189999,"Delta":452298702},{"NoteNumber":63,"Velocity":38,"Duration":189999,"SoundDuration":189999,"Delta":452298702},{"NoteNumber":60,"Velocity":38,"Duration":189999,"SoundDuration":189999,"Delta":452498702},{"NoteNumber":63,"Velocity":38,"Duration":189999,"SoundDuration":189999,"Delta":452498702},{"NoteNumber":84,"Velocity":58,"Duration":202020,"SoundDuration":202020,"Delta":452698702},{"NoteNumber":60,"Velocity":38,"Duration":191918,"SoundDuration":191918,"Delta":452698702},{"NoteNumber":63,"Velocity":38,"Duration":191918,"SoundDuration":191918,"Delta":452698702},{"NoteNumber":83,"Velocity":60,"Duration":206896,"SoundDuration":206896,"Delta":452900722},{"NoteNumber":55,"Velocity":44,"Duration":793266,"SoundDuration":793266,"Delta":452900722},{"NoteNumber":43,"Velocity":57,"Duration":99010,"SoundDuration":99010,"Delta":453107619},{"NoteNumber":62,"Velocity":38,"Duration":188118,"SoundDuration":188118,"Delta":453107619},{"NoteNumber":65,"Velocity":38,"Duration":188118,"SoundDuration":188118,"Delta":453107619},{"NoteNumber":50,"Velocity":60,"Duration":97087,"SoundDuration":97087,"Delta":453305639},{"NoteNumber":62,"Velocity":38,"Duration":184466,"SoundDuration":184466,"Delta":453305639},{"NoteNumber":65,"Velocity":38,"Duration":184466,"SoundDuration":184466,"Delta":453305639},{"NoteNumber":51,"Velocity":63,"Duration":97087,"SoundDuration":97087,"Delta":453499814},{"NoteNumber":62,"Velocity":38,"Duration":184466,"SoundDuration":184466,"Delta":453499814},{"NoteNumber":65,"Velocity":38,"Duration":184466,"SoundDuration":184466,"Delta":453499814},{"NoteNumber":53,"Velocity":66,"Duration":102040,"SoundDuration":102040,"Delta":453693989},{"NoteNumber":55,"Velocity":44,"Duration":808162,"SoundDuration":808162,"Delta":453693989},{"NoteNumber":79,"Velocity":59,"Duration":204081,"SoundDuration":204081,"Delta":453898070},{"NoteNumber":62,"Velocity":38,"Duration":193877,"SoundDuration":193877,"Delta":453898070},{"NoteNumber":65,"Velocity":38,"Duration":193877,"SoundDuration":193877,"Delta":453898070},{"NoteNumber":89,"Velocity":62,"Duration":199999,"SoundDuration":199999,"Delta":454102152},{"NoteNumber":62,"Velocity":38,"Duration":189999,"SoundDuration":189999,"Delta":454102152},{"NoteNumber":65,"Velocity":38,"Duration":189999,"SoundDuration":189999,"Delta":454102152},{"NoteNumber":87,"Velocity":65,"Duration":199999,"SoundDuration":199999,"Delta":454302152},{"NoteNumber":62,"Velocity":38,"Duration":189999,"SoundDuration":189999,"Delta":454302152},{"NoteNumber":65,"Velocity":38,"Duration":189999,"SoundDuration":189999,"Delta":454302152},{"NoteNumber":87,"Velocity":60,"Duration":50847,"SoundDuration":50847,"Delta":454502152},{"NoteNumber":55,"Velocity":44,"Duration":813559,"SoundDuration":813559,"Delta":454502152},{"NoteNumber":89,"Velocity":60,"Duration":50847,"SoundDuration":50847,"Delta":454552999},{"NoteNumber":87,"Velocity":67,"Duration":101695,"SoundDuration":101695,"Delta":454603847},{"NoteNumber":86,"Velocity":60,"Duration":203390,"SoundDuration":203390,"Delta":454705542},{"NoteNumber":62,"Velocity":38,"Duration":193220,"SoundDuration":193220,"Delta":454705542},{"NoteNumber":65,"Velocity":38,"Duration":193220,"SoundDuration":193220,"Delta":454705542},{"NoteNumber":86,"Velocity":60,"Duration":50847,"SoundDuration":50847,"Delta":454908932},{"NoteNumber":62,"Velocity":38,"Duration":193220,"SoundDuration":193220,"Delta":454908932},{"NoteNumber":65,"Velocity":38,"Duration":193220,"SoundDuration":193220,"Delta":454908932},{"NoteNumber":87,"Velocity":60,"Duration":50847,"SoundDuration":50847,"Delta":454959779},{"NoteNumber":86,"Velocity":67,"Duration":101695,"SoundDuration":101695,"Delta":455010627},{"NoteNumber":84,"Velocity":60,"Duration":203390,"SoundDuration":203390,"Delta":455112322},{"NoteNumber":62,"Velocity":38,"Duration":193220,"SoundDuration":193220,"Delta":455112322},{"NoteNumber":65,"Velocity":38,"Duration":193220,"SoundDuration":193220,"Delta":455112322},{"NoteNumber":84,"Velocity":60,"Duration":50847,"SoundDuration":50847,"Delta":455315712},{"NoteNumber":55,"Velocity":44,"Duration":817498,"SoundDuration":817498,"Delta":455315712},{"NoteNumber":86,"Velocity":60,"Duration":50847,"SoundDuration":50847,"Delta":455366559},{"NoteNumber":84,"Velocity":66,"Duration":101695,"SoundDuration":101695,"Delta":455417407},{"NoteNumber":83,"Velocity":60,"Duration":203390,"SoundDuration":203390,"Delta":455519102},{"NoteNumber":62,"Velocity":38,"Duration":193220,"SoundDuration":193220,"Delta":455519102},{"NoteNumber":65,"Velocity":38,"Duration":193220,"SoundDuration":193220,"Delta":455519102},{"NoteNumber":81,"Velocity":60,"Duration":101695,"SoundDuration":101695,"Delta":455722492},{"NoteNumber":62,"Velocity":38,"Duration":193220,"SoundDuration":193220,"Delta":455722492},{"NoteNumber":65,"Velocity":38,"Duration":193220,"SoundDuration":193220,"Delta":455722492},{"NoteNumber":83,"Velocity":60,"Duration":101695,"SoundDuration":101695,"Delta":455925882},{"NoteNumber":62,"Velocity":38,"Duration":196765,"SoundDuration":196765,"Delta":455925882},{"NoteNumber":65,"Velocity":38,"Duration":196765,"SoundDuration":196765,"Delta":455925882},{"NoteNumber":86,"Velocity":60,"Duration":50847,"SoundDuration":50847,"Delta":456133210},{"NoteNumber":60,"Velocity":44,"Duration":813559,"SoundDuration":813559,"Delta":456133210},{"NoteNumber":87,"Velocity":60,"Duration":50847,"SoundDuration":50847,"Delta":456184058},{"NoteNumber":86,"Velocity":67,"Duration":101695,"SoundDuration":101695,"Delta":456234905},{"NoteNumber":84,"Velocity":59,"Duration":203390,"SoundDuration":203390,"Delta":456336600},{"NoteNumber":63,"Velocity":37,"Duration":193220,"SoundDuration":193220,"Delta":456336600},{"NoteNumber":67,"Velocity":37,"Duration":193220,"SoundDuration":193220,"Delta":456336600},{"NoteNumber":84,"Velocity":58,"Duration":50847,"SoundDuration":50847,"Delta":456539990},{"NoteNumber":63,"Velocity":37,"Duration":193220,"SoundDuration":193220,"Delta":456539990},{"NoteNumber":67,"Velocity":37,"Duration":193220,"SoundDuration":193220,"Delta":456539990},{"NoteNumber":86,"Velocity":58,"Duration":50847,"SoundDuration":50847,"Delta":456590838},{"NoteNumber":84,"Velocity":65,"Duration":101695,"SoundDuration":101695,"Delta":456641685},{"NoteNumber":82,"Velocity":58,"Duration":203390,"SoundDuration":203390,"Delta":456743380},{"NoteNumber":63,"Velocity":36,"Duration":193220,"SoundDuration":193220,"Delta":456743380},{"NoteNumber":67,"Velocity":36,"Duration":193220,"SoundDuration":193220,"Delta":456743380},{"NoteNumber":82,"Velocity":57,"Duration":50847,"SoundDuration":50847,"Delta":456946770},{"NoteNumber":53,"Velocity":42,"Duration":817498,"SoundDuration":817498,"Delta":456946770},{"NoteNumber":84,"Velocity":57,"Duration":50847,"SoundDuration":50847,"Delta":456997618},{"NoteNumber":82,"Velocity":63,"Duration":101695,"SoundDuration":101695,"Delta":457048465},{"NoteNumber":81,"Velocity":57,"Duration":203390,"SoundDuration":203390,"Delta":457150160},{"NoteNumber":63,"Velocity":36,"Duration":193220,"SoundDuration":193220,"Delta":457150160},{"NoteNumber":65,"Velocity":36,"Duration":193220,"SoundDuration":193220,"Delta":457150160},{"NoteNumber":79,"Velocity":56,"Duration":101695,"SoundDuration":101695,"Delta":457353550},{"NoteNumber":63,"Velocity":35,"Duration":193220,"SoundDuration":193220,"Delta":457353550},{"NoteNumber":65,"Velocity":35,"Duration":193220,"SoundDuration":193220,"Delta":457353550},{"NoteNumber":81,"Velocity":55,"Duration":101695,"SoundDuration":101695,"Delta":457556940},{"NoteNumber":63,"Velocity":35,"Duration":196765,"SoundDuration":196765,"Delta":457556940},{"NoteNumber":65,"Velocity":35,"Duration":196765,"SoundDuration":196765,"Delta":457556940},{"NoteNumber":84,"Velocity":55,"Duration":50847,"SoundDuration":50847,"Delta":457764269},{"NoteNumber":58,"Velocity":40,"Duration":813559,"SoundDuration":813559,"Delta":457764269},{"NoteNumber":85,"Velocity":55,"Duration":50847,"SoundDuration":50847,"Delta":457815117},{"NoteNumber":84,"Velocity":61,"Duration":101695,"SoundDuration":101695,"Delta":457865964},{"NoteNumber":82,"Velocity":54,"Duration":203390,"SoundDuration":203390,"Delta":457967659},{"NoteNumber":61,"Velocity":34,"Duration":193220,"SoundDuration":193220,"Delta":457967659},{"NoteNumber":65,"Velocity":34,"Duration":193220,"SoundDuration":193220,"Delta":457967659},{"NoteNumber":82,"Velocity":54,"Duration":50847,"SoundDuration":50847,"Delta":458171049},{"NoteNumber":61,"Velocity":34,"Duration":193220,"SoundDuration":193220,"Delta":458171049},{"NoteNumber":65,"Velocity":34,"Duration":193220,"SoundDuration":193220,"Delta":458171049},{"NoteNumber":84,"Velocity":54,"Duration":50847,"SoundDuration":50847,"Delta":458221897},{"NoteNumber":82,"Velocity":60,"Duration":101695,"SoundDuration":101695,"Delta":458272744},{"NoteNumber":80,"Velocity":53,"Duration":203390,"SoundDuration":203390,"Delta":458374439},{"NoteNumber":61,"Velocity":33,"Duration":193220,"SoundDuration":193220,"Delta":458374439},{"NoteNumber":65,"Velocity":33,"Duration":193220,"SoundDuration":193220,"Delta":458374439},{"NoteNumber":80,"Velocity":52,"Duration":50847,"SoundDuration":50847,"Delta":458577829},{"NoteNumber":51,"Velocity":38,"Duration":817871,"SoundDuration":817871,"Delta":458577829},{"NoteNumber":82,"Velocity":52,"Duration":50847,"SoundDuration":50847,"Delta":458628677},{"NoteNumber":80,"Velocity":57,"Duration":101695,"SoundDuration":101695,"Delta":458679524},{"NoteNumber":79,"Velocity":52,"Duration":203390,"SoundDuration":203390,"Delta":458781219},{"NoteNumber":61,"Velocity":33,"Duration":193220,"SoundDuration":193220,"Delta":458781219},{"NoteNumber":63,"Velocity":33,"Duration":193220,"SoundDuration":193220,"Delta":458781219},{"NoteNumber":77,"Velocity":51,"Duration":101695,"SoundDuration":101695,"Delta":458984609},{"NoteNumber":61,"Velocity":32,"Duration":193220,"SoundDuration":193220,"Delta":458984609},{"NoteNumber":63,"Velocity":32,"Duration":193220,"SoundDuration":193220,"Delta":458984609},{"NoteNumber":79,"Velocity":51,"Duration":101695,"SoundDuration":101695,"Delta":459187999},{"NoteNumber":61,"Velocity":32,"Duration":197101,"SoundDuration":197101,"Delta":459187999},{"NoteNumber":63,"Velocity":32,"Duration":197101,"SoundDuration":197101,"Delta":459187999},{"NoteNumber":82,"Velocity":50,"Duration":51903,"SoundDuration":51903,"Delta":459395701},{"NoteNumber":56,"Velocity":36,"Duration":834946,"SoundDuration":834946,"Delta":459395701},{"NoteNumber":84,"Velocity":50,"Duration":51903,"SoundDuration":51903,"Delta":459447604},{"NoteNumber":82,"Velocity":55,"Duration":103806,"SoundDuration":103806,"Delta":459499507},{"NoteNumber":80,"Velocity":49,"Duration":207612,"SoundDuration":207612,"Delta":459603314},{"NoteNumber":60,"Velocity":31,"Duration":197231,"SoundDuration":197231,"Delta":459603314},{"NoteNumber":63,"Velocity":31,"Duration":197231,"SoundDuration":197231,"Delta":459603314},{"NoteNumber":80,"Velocity":49,"Duration":51903,"SoundDuration":51903,"Delta":459810926},{"NoteNumber":60,"Velocity":31,"Duration":197231,"SoundDuration":197231,"Delta":459810926},{"NoteNumber":63,"Velocity":31,"Duration":197231,"SoundDuration":197231,"Delta":459810926},{"NoteNumber":82,"Velocity":48,"Duration":51903,"SoundDuration":51903,"Delta":459862829},{"NoteNumber":80,"Velocity":54,"Duration":103806,"SoundDuration":103806,"Delta":459914732},{"NoteNumber":79,"Velocity":48,"Duration":212109,"SoundDuration":212109,"Delta":460018539},{"NoteNumber":60,"Velocity":30,"Duration":201279,"SoundDuration":201279,"Delta":460018539},{"NoteNumber":63,"Velocity":30,"Duration":201279,"SoundDuration":201279,"Delta":460018539},{"NoteNumber":79,"Velocity":48,"Duration":51903,"SoundDuration":51903,"Delta":460230648},{"NoteNumber":56,"Velocity":35,"Duration":833786,"SoundDuration":833786,"Delta":460230648},{"NoteNumber":80,"Velocity":47,"Duration":51903,"SoundDuration":51903,"Delta":460282551},{"NoteNumber":79,"Velocity":52,"Duration":103806,"SoundDuration":103806,"Delta":460334454},{"NoteNumber":78,"Velocity":47,"Duration":207612,"SoundDuration":207612,"Delta":460438261},{"NoteNumber":60,"Velocity":30,"Duration":197231,"SoundDuration":197231,"Delta":460438261},{"NoteNumber":63,"Velocity":30,"Duration":197231,"SoundDuration":197231,"Delta":460438261},{"NoteNumber":78,"Velocity":46,"Duration":103806,"SoundDuration":103806,"Delta":460645873},{"NoteNumber":60,"Velocity":29,"Duration":197231,"SoundDuration":197231,"Delta":460645873},{"NoteNumber":63,"Velocity":29,"Duration":197231,"SoundDuration":197231,"Delta":460645873},{"NoteNumber":78,"Velocity":46,"Duration":103806,"SoundDuration":103806,"Delta":460853486},{"NoteNumber":60,"Velocity":29,"Duration":200234,"SoundDuration":200234,"Delta":460853486},{"NoteNumber":63,"Velocity":29,"Duration":200234,"SoundDuration":200234,"Delta":460853486},{"NoteNumber":80,"Velocity":42,"Duration":54151,"SoundDuration":54151,"Delta":461064435},{"NoteNumber":55,"Velocity":30,"Duration":872191,"SoundDuration":872191,"Delta":461064435},{"NoteNumber":82,"Velocity":42,"Duration":54151,"SoundDuration":54151,"Delta":461118586},{"NoteNumber":80,"Velocity":46,"Duration":108303,"SoundDuration":108303,"Delta":461172738},{"NoteNumber":79,"Velocity":42,"Duration":216606,"SoundDuration":216606,"Delta":461281041},{"NoteNumber":60,"Velocity":26,"Duration":205776,"SoundDuration":205776,"Delta":461281041},{"NoteNumber":63,"Velocity":26,"Duration":205776,"SoundDuration":205776,"Delta":461281041},{"NoteNumber":79,"Velocity":42,"Duration":108303,"SoundDuration":108303,"Delta":461497648},{"NoteNumber":60,"Velocity":26,"Duration":205776,"SoundDuration":205776,"Delta":461497648},{"NoteNumber":63,"Velocity":26,"Duration":205776,"SoundDuration":205776,"Delta":461497648},{"NoteNumber":79,"Velocity":42,"Duration":108303,"SoundDuration":108303,"Delta":461714254},{"NoteNumber":60,"Velocity":26,"Duration":210964,"SoundDuration":210964,"Delta":461714254},{"NoteNumber":63,"Velocity":26,"Duration":210964,"SoundDuration":210964,"Delta":461714254},{"NoteNumber":80,"Velocity":42,"Duration":55555,"SoundDuration":55555,"Delta":461936626},{"NoteNumber":55,"Velocity":30,"Duration":888888,"SoundDuration":888888,"Delta":461936626},{"NoteNumber":82,"Velocity":42,"Duration":55555,"SoundDuration":55555,"Delta":461992181},{"NoteNumber":80,"Velocity":46,"Duration":111110,"SoundDuration":111110,"Delta":462047737},{"NoteNumber":79,"Velocity":42,"Duration":222221,"SoundDuration":222221,"Delta":462158848},{"NoteNumber":59,"Velocity":26,"Duration":211110,"SoundDuration":211110,"Delta":462158848},{"NoteNumber":62,"Velocity":26,"Duration":211110,"SoundDuration":211110,"Delta":462158848},{"NoteNumber":79,"Velocity":42,"Duration":111111,"SoundDuration":111111,"Delta":462381070},{"NoteNumber":59,"Velocity":26,"Duration":211110,"SoundDuration":211110,"Delta":462381070},{"NoteNumber":62,"Velocity":26,"Duration":211110,"SoundDuration":211110,"Delta":462381070},{"NoteNumber":79,"Velocity":42,"Duration":111110,"SoundDuration":111110,"Delta":462603292},{"NoteNumber":59,"Velocity":26,"Duration":211110,"SoundDuration":211110,"Delta":462603292},{"NoteNumber":62,"Velocity":26,"Duration":211110,"SoundDuration":211110,"Delta":462603292},{"NoteNumber":48,"Velocity":36,"Duration":1333931,"SoundDuration":1333931,"Delta":462825514},{"NoteNumber":60,"Velocity":25,"Duration":150000,"SoundDuration":150000,"Delta":462975514},{"NoteNumber":55,"Velocity":24,"Duration":150000,"SoundDuration":150000,"Delta":462975514},{"NoteNumber":63,"Velocity":29,"Duration":104529,"SoundDuration":104529,"Delta":463125514},{"NoteNumber":51,"Velocity":26,"Duration":104529,"SoundDuration":104529,"Delta":463125514},{"NoteNumber":60,"Velocity":29,"Duration":104287,"SoundDuration":104287,"Delta":463230043},{"NoteNumber":55,"Velocity":24,"Duration":104287,"SoundDuration":104287,"Delta":463230043},{"NoteNumber":72,"Velocity":45,"Duration":825114,"SoundDuration":825114,"Delta":463334331},{"NoteNumber":51,"Velocity":32,"Duration":103986,"SoundDuration":103986,"Delta":463334331},{"NoteNumber":60,"Velocity":28,"Duration":103686,"SoundDuration":103686,"Delta":463438318},{"NoteNumber":55,"Velocity":25,"Duration":103686,"SoundDuration":103686,"Delta":463438318},{"NoteNumber":63,"Velocity":30,"Duration":103388,"SoundDuration":103388,"Delta":463542005},{"NoteNumber":51,"Velocity":28,"Duration":103388,"SoundDuration":103388,"Delta":463542005},{"NoteNumber":60,"Velocity":28,"Duration":103092,"SoundDuration":103092,"Delta":463645394},{"NoteNumber":55,"Velocity":26,"Duration":103092,"SoundDuration":103092,"Delta":463645394},{"NoteNumber":63,"Velocity":31,"Duration":102739,"SoundDuration":102739,"Delta":463748486},{"NoteNumber":51,"Velocity":34,"Duration":102739,"SoundDuration":102739,"Delta":463748486},{"NoteNumber":60,"Velocity":30,"Duration":102739,"SoundDuration":102739,"Delta":463851226},{"NoteNumber":55,"Velocity":26,"Duration":102739,"SoundDuration":102739,"Delta":463851226},{"NoteNumber":63,"Velocity":32,"Duration":102739,"SoundDuration":102739,"Delta":463953966},{"NoteNumber":51,"Velocity":29,"Duration":102739,"SoundDuration":102739,"Delta":463953966},{"NoteNumber":60,"Velocity":29,"Duration":102739,"SoundDuration":102739,"Delta":464056706},{"NoteNumber":55,"Velocity":26,"Duration":102739,"SoundDuration":102739,"Delta":464056706},{"NoteNumber":72,"Velocity":50,"Duration":410958,"SoundDuration":410958,"Delta":464159445},{"NoteNumber":48,"Velocity":36,"Duration":410958,"SoundDuration":410958,"Delta":464159445},{"NoteNumber":60,"Velocity":30,"Duration":102739,"SoundDuration":102739,"Delta":464262185},{"NoteNumber":55,"Velocity":28,"Duration":102739,"SoundDuration":102739,"Delta":464262185},{"NoteNumber":63,"Velocity":33,"Duration":102739,"SoundDuration":102739,"Delta":464364925},{"NoteNumber":51,"Velocity":32,"Duration":102739,"SoundDuration":102739,"Delta":464364925},{"NoteNumber":60,"Velocity":32,"Duration":102739,"SoundDuration":102739,"Delta":464467665},{"NoteNumber":55,"Velocity":28,"Duration":102739,"SoundDuration":102739,"Delta":464467665},{"NoteNumber":46,"Velocity":45,"Duration":1259341,"SoundDuration":1259341,"Delta":464570404},{"NoteNumber":61,"Velocity":32,"Duration":111346,"SoundDuration":111346,"Delta":464683186},{"NoteNumber":55,"Velocity":30,"Duration":111346,"SoundDuration":111346,"Delta":464683186},{"NoteNumber":64,"Velocity":36,"Duration":104166,"SoundDuration":104166,"Delta":464794532},{"NoteNumber":52,"Velocity":32,"Duration":104166,"SoundDuration":104166,"Delta":464794532},{"NoteNumber":61,"Velocity":35,"Duration":104166,"SoundDuration":104166,"Delta":464898699},{"NoteNumber":55,"Velocity":29,"Duration":104166,"SoundDuration":104166,"Delta":464898699},{"NoteNumber":73,"Velocity":54,"Duration":826880,"SoundDuration":826880,"Delta":465002866},{"NoteNumber":52,"Velocity":38,"Duration":103806,"SoundDuration":103806,"Delta":465002866},{"NoteNumber":61,"Velocity":33,"Duration":103806,"SoundDuration":103806,"Delta":465106672},{"NoteNumber":55,"Velocity":30,"Duration":103806,"SoundDuration":103806,"Delta":465106672},{"NoteNumber":64,"Velocity":35,"Duration":103448,"SoundDuration":103448,"Delta":465210478},{"NoteNumber":52,"Velocity":33,"Duration":103448,"SoundDuration":103448,"Delta":465210478},{"NoteNumber":61,"Velocity":32,"Duration":103448,"SoundDuration":103448,"Delta":465313927},{"NoteNumber":55,"Velocity":30,"Duration":103448,"SoundDuration":103448,"Delta":465313927},{"NoteNumber":64,"Velocity":35,"Duration":103092,"SoundDuration":103092,"Delta":465417375},{"NoteNumber":52,"Velocity":38,"Duration":103092,"SoundDuration":103092,"Delta":465417375},{"NoteNumber":61,"Velocity":33,"Duration":103092,"SoundDuration":103092,"Delta":465520468},{"NoteNumber":55,"Velocity":29,"Duration":103092,"SoundDuration":103092,"Delta":465520468},{"NoteNumber":64,"Velocity":35,"Duration":103092,"SoundDuration":103092,"Delta":465623560},{"NoteNumber":52,"Velocity":32,"Duration":103092,"SoundDuration":103092,"Delta":465623560},{"NoteNumber":61,"Velocity":32,"Duration":103092,"SoundDuration":103092,"Delta":465726653},{"NoteNumber":55,"Velocity":29,"Duration":103092,"SoundDuration":103092,"Delta":465726653},{"NoteNumber":73,"Velocity":53,"Duration":420802,"SoundDuration":420802,"Delta":465829746},{"NoteNumber":46,"Velocity":38,"Duration":420802,"SoundDuration":420802,"Delta":465829746},{"NoteNumber":61,"Velocity":32,"Duration":103092,"SoundDuration":103092,"Delta":465932839},{"NoteNumber":55,"Velocity":30,"Duration":103092,"SoundDuration":103092,"Delta":465932839},{"NoteNumber":64,"Velocity":35,"Duration":103092,"SoundDuration":103092,"Delta":466035931},{"NoteNumber":52,"Velocity":33,"Duration":103092,"SoundDuration":103092,"Delta":466035931},{"NoteNumber":61,"Velocity":33,"Duration":111524,"SoundDuration":111524,"Delta":466139024},{"NoteNumber":55,"Velocity":29,"Duration":111524,"SoundDuration":111524,"Delta":466139024},{"NoteNumber":72,"Velocity":66,"Duration":76271,"SoundDuration":76271,"Delta":466250548},{"NoteNumber":44,"Velocity":55,"Duration":76271,"SoundDuration":76271,"Delta":466250548},{"NoteNumber":60,"Velocity":41,"Duration":101580,"SoundDuration":101580,"Delta":466352243},{"NoteNumber":56,"Velocity":36,"Duration":101580,"SoundDuration":101580,"Delta":466352243},{"NoteNumber":65,"Velocity":45,"Duration":101351,"SoundDuration":101351,"Delta":466453824},{"NoteNumber":48,"Velocity":39,"Duration":101351,"SoundDuration":101351,"Delta":466453824},{"NoteNumber":60,"Velocity":42,"Duration":101123,"SoundDuration":101123,"Delta":466555175},{"NoteNumber":56,"Velocity":35,"Duration":101123,"SoundDuration":101123,"Delta":466555175},{"NoteNumber":76,"Velocity":67,"Duration":75757,"SoundDuration":75757,"Delta":466656299},{"NoteNumber":46,"Velocity":56,"Duration":75757,"SoundDuration":75757,"Delta":466656299},{"NoteNumber":64,"Velocity":43,"Duration":100671,"SoundDuration":100671,"Delta":466757252},{"NoteNumber":58,"Velocity":36,"Duration":100671,"SoundDuration":100671,"Delta":466757252},{"NoteNumber":72,"Velocity":47,"Duration":100502,"SoundDuration":100502,"Delta":466857924},{"NoteNumber":48,"Velocity":43,"Duration":100502,"SoundDuration":100502,"Delta":466857924},{"NoteNumber":64,"Velocity":43,"Duration":100334,"SoundDuration":100334,"Delta":466958426},{"NoteNumber":58,"Velocity":41,"Duration":100334,"SoundDuration":100334,"Delta":466958426},{"NoteNumber":77,"Velocity":71,"Duration":73529,"SoundDuration":73529,"Delta":467058761},{"NoteNumber":44,"Velocity":58,"Duration":73529,"SoundDuration":73529,"Delta":467058761},{"NoteNumber":65,"Velocity":45,"Duration":98039,"SoundDuration":98039,"Delta":467156800},{"NoteNumber":56,"Velocity":38,"Duration":98039,"SoundDuration":98039,"Delta":467156800},{"NoteNumber":72,"Velocity":50,"Duration":98039,"SoundDuration":98039,"Delta":467254839},{"NoteNumber":48,"Velocity":43,"Duration":98039,"SoundDuration":98039,"Delta":467254839},{"NoteNumber":65,"Velocity":45,"Duration":98039,"SoundDuration":98039,"Delta":467352879},{"NoteNumber":56,"Velocity":38,"Duration":98039,"SoundDuration":98039,"Delta":467352879},{"NoteNumber":79,"Velocity":72,"Duration":73529,"SoundDuration":73529,"Delta":467450918},{"NoteNumber":43,"Velocity":60,"Duration":73529,"SoundDuration":73529,"Delta":467450918},{"NoteNumber":67,"Velocity":47,"Duration":98039,"SoundDuration":98039,"Delta":467548957},{"NoteNumber":55,"Velocity":40,"Duration":98039,"SoundDuration":98039,"Delta":467548957},{"NoteNumber":72,"Velocity":50,"Duration":98039,"SoundDuration":98039,"Delta":467646996},{"NoteNumber":48,"Velocity":43,"Duration":98039,"SoundDuration":98039,"Delta":467646996},{"NoteNumber":67,"Velocity":47,"Duration":98039,"SoundDuration":98039,"Delta":467745036},{"NoteNumber":55,"Velocity":38,"Duration":98039,"SoundDuration":98039,"Delta":467745036},{"NoteNumber":80,"Velocity":74,"Duration":72737,"SoundDuration":72737,"Delta":467843075},{"NoteNumber":41,"Velocity":63,"Duration":72737,"SoundDuration":72737,"Delta":467843075},{"NoteNumber":68,"Velocity":49,"Duration":96000,"SoundDuration":96000,"Delta":467939954},{"NoteNumber":53,"Velocity":42,"Duration":96000,"SoundDuration":96000,"Delta":467939954},{"NoteNumber":72,"Velocity":54,"Duration":97774,"SoundDuration":97774,"Delta":468035955},{"NoteNumber":48,"Velocity":45,"Duration":97774,"SoundDuration":97774,"Delta":468035955},{"NoteNumber":68,"Velocity":49,"Duration":96463,"SoundDuration":96463,"Delta":468133730},{"NoteNumber":53,"Velocity":42,"Duration":96463,"SoundDuration":96463,"Delta":468133730},{"NoteNumber":81,"Velocity":80,"Duration":72115,"SoundDuration":72115,"Delta":468230193},{"NoteNumber":39,"Velocity":66,"Duration":72115,"SoundDuration":72115,"Delta":468230193},{"NoteNumber":69,"Velocity":50,"Duration":96153,"SoundDuration":96153,"Delta":468326347},{"NoteNumber":51,"Velocity":41,"Duration":96153,"SoundDuration":96153,"Delta":468326347},{"NoteNumber":72,"Velocity":55,"Duration":97725,"SoundDuration":97725,"Delta":468422501},{"NoteNumber":48,"Velocity":47,"Duration":97725,"SoundDuration":97725,"Delta":468422501},{"NoteNumber":69,"Velocity":51,"Duration":96568,"SoundDuration":96568,"Delta":468520226},{"NoteNumber":51,"Velocity":41,"Duration":96568,"SoundDuration":96568,"Delta":468520226},{"NoteNumber":83,"Velocity":84,"Duration":72685,"SoundDuration":72685,"Delta":468616795},{"NoteNumber":38,"Velocity":68,"Duration":72685,"SoundDuration":72685,"Delta":468616795},{"NoteNumber":71,"Velocity":51,"Duration":96051,"SoundDuration":96051,"Delta":468713519},{"NoteNumber":50,"Velocity":45,"Duration":96051,"SoundDuration":96051,"Delta":468713519},{"NoteNumber":77,"Velocity":58,"Duration":96414,"SoundDuration":96414,"Delta":468809571},{"NoteNumber":43,"Velocity":49,"Duration":96414,"SoundDuration":96414,"Delta":468809571},{"NoteNumber":71,"Velocity":53,"Duration":96105,"SoundDuration":96105,"Delta":468905985},{"NoteNumber":50,"Velocity":43,"Duration":96105,"SoundDuration":96105,"Delta":468905985},{"NoteNumber":84,"Velocity":85,"Duration":72921,"SoundDuration":72921,"Delta":469002090},{"NoteNumber":36,"Velocity":70,"Duration":72921,"SoundDuration":72921,"Delta":469002090},{"NoteNumber":72,"Velocity":53,"Duration":95745,"SoundDuration":95745,"Delta":469099076},{"NoteNumber":48,"Velocity":45,"Duration":95745,"SoundDuration":95745,"Delta":469099076},{"NoteNumber":77,"Velocity":58,"Duration":96776,"SoundDuration":96776,"Delta":469194821},{"NoteNumber":43,"Velocity":51,"Duration":96776,"SoundDuration":96776,"Delta":469194821},{"NoteNumber":72,"Velocity":54,"Duration":96103,"SoundDuration":96103,"Delta":469291598},{"NoteNumber":48,"Velocity":43,"Duration":96103,"SoundDuration":96103,"Delta":469291598},{"NoteNumber":86,"Velocity":85,"Duration":71631,"SoundDuration":71631,"Delta":469387702},{"NoteNumber":35,"Velocity":70,"Duration":71631,"SoundDuration":71631,"Delta":469387702},{"NoteNumber":74,"Velocity":55,"Duration":97298,"SoundDuration":97298,"Delta":469483398},{"NoteNumber":47,"Velocity":47,"Duration":97298,"SoundDuration":97298,"Delta":469483398},{"NoteNumber":77,"Velocity":63,"Duration":96103,"SoundDuration":96103,"Delta":469580696},{"NoteNumber":43,"Velocity":53,"Duration":96103,"SoundDuration":96103,"Delta":469580696},{"NoteNumber":74,"Velocity":55,"Duration":96672,"SoundDuration":96672,"Delta":469676800},{"NoteNumber":47,"Velocity":48,"Duration":96672,"SoundDuration":96672,"Delta":469676800},{"NoteNumber":88,"Velocity":90,"Duration":72659,"SoundDuration":72659,"Delta":469773472},{"NoteNumber":34,"Velocity":72,"Duration":72659,"SoundDuration":72659,"Delta":469773472},{"NoteNumber":76,"Velocity":57,"Duration":95796,"SoundDuration":95796,"Delta":469870247},{"NoteNumber":46,"Velocity":47,"Duration":95796,"SoundDuration":95796,"Delta":469870247},{"NoteNumber":79,"Velocity":62,"Duration":96413,"SoundDuration":96413,"Delta":469966043},{"NoteNumber":36,"Velocity":53,"Duration":96413,"SoundDuration":96413,"Delta":469966043},{"NoteNumber":76,"Velocity":57,"Duration":97087,"SoundDuration":97087,"Delta":470062457},{"NoteNumber":46,"Velocity":50,"Duration":97087,"SoundDuration":97087,"Delta":470062457},{"NoteNumber":89,"Velocity":89,"Duration":71962,"SoundDuration":71962,"Delta":470159545},{"NoteNumber":32,"Velocity":75,"Duration":71962,"SoundDuration":71962,"Delta":470159545},{"NoteNumber":77,"Velocity":59,"Duration":96155,"SoundDuration":96155,"Delta":470255393},{"NoteNumber":44,"Velocity":50,"Duration":96155,"SoundDuration":96155,"Delta":470255393},{"NoteNumber":80,"Velocity":64,"Duration":96880,"SoundDuration":96880,"Delta":470351549},{"NoteNumber":36,"Velocity":55,"Duration":96880,"SoundDuration":96880,"Delta":470351549},{"NoteNumber":77,"Velocity":59,"Duration":97403,"SoundDuration":97403,"Delta":470448429},{"NoteNumber":44,"Velocity":50,"Duration":97403,"SoundDuration":97403,"Delta":470448429},{"NoteNumber":86,"Velocity":91,"Duration":76271,"SoundDuration":76271,"Delta":470545833},{"NoteNumber":29,"Velocity":76,"Duration":76271,"SoundDuration":76271,"Delta":470545833},{"NoteNumber":77,"Velocity":61,"Duration":101695,"SoundDuration":101695,"Delta":470647528},{"NoteNumber":41,"Velocity":56,"Duration":101695,"SoundDuration":101695,"Delta":470647528},{"NoteNumber":80,"Velocity":67,"Duration":101695,"SoundDuration":101695,"Delta":470749223},{"NoteNumber":36,"Velocity":58,"Duration":101695,"SoundDuration":101695,"Delta":470749223},{"NoteNumber":77,"Velocity":61,"Duration":101695,"SoundDuration":101695,"Delta":470850918},{"NoteNumber":41,"Velocity":55,"Duration":101695,"SoundDuration":101695,"Delta":470850918},{"NoteNumber":31,"Velocity":71,"Duration":197387,"SoundDuration":197387,"Delta":470952613},{"NoteNumber":43,"Velocity":84,"Duration":197387,"SoundDuration":197387,"Delta":470952613},{"NoteNumber":75,"Velocity":78,"Duration":97719,"SoundDuration":97719,"Delta":471052281},{"NoteNumber":79,"Velocity":84,"Duration":97719,"SoundDuration":97719,"Delta":471150000},{"NoteNumber":75,"Velocity":78,"Duration":97719,"SoundDuration":97719,"Delta":471247720},{"NoteNumber":84,"Velocity":88,"Duration":73289,"SoundDuration":73289,"Delta":471345440},{"NoteNumber":75,"Velocity":78,"Duration":97719,"SoundDuration":97719,"Delta":471443160},{"NoteNumber":79,"Velocity":84,"Duration":102040,"SoundDuration":102040,"Delta":471540879},{"NoteNumber":75,"Velocity":76,"Duration":102040,"SoundDuration":102040,"Delta":471642920},{"NoteNumber":55,"Velocity":84,"Duration":199049,"SoundDuration":199049,"Delta":471744961},{"NoteNumber":43,"Velocity":71,"Duration":199049,"SoundDuration":199049,"Delta":471744961},{"NoteNumber":74,"Velocity":78,"Duration":98039,"SoundDuration":98039,"Delta":471845971},{"NoteNumber":77,"Velocity":84,"Duration":98039,"SoundDuration":98039,"Delta":471944010},{"NoteNumber":74,"Velocity":78,"Duration":98039,"SoundDuration":98039,"Delta":472042049},{"NoteNumber":83,"Velocity":88,"Duration":73529,"SoundDuration":73529,"Delta":472140089},{"NoteNumber":74,"Velocity":78,"Duration":98039,"SoundDuration":98039,"Delta":472238128},{"NoteNumber":77,"Velocity":84,"Duration":107527,"SoundDuration":107527,"Delta":472336167},{"NoteNumber":74,"Velocity":76,"Duration":113207,"SoundDuration":113207,"Delta":472443694},{"NoteNumber":48,"Velocity":45,"Duration":1243721,"SoundDuration":1243721,"Delta":472556902},{"NoteNumber":60,"Velocity":32,"Duration":104894,"SoundDuration":104894,"Delta":472661797},{"NoteNumber":55,"Velocity":30,"Duration":104894,"SoundDuration":104894,"Delta":472661797},{"NoteNumber":63,"Velocity":36,"Duration":104529,"SoundDuration":104529,"Delta":472766692},{"NoteNumber":51,"Velocity":32,"Duration":104529,"SoundDuration":104529,"Delta":472766692},{"NoteNumber":60,"Velocity":35,"Duration":104287,"SoundDuration":104287,"Delta":472871221},{"NoteNumber":55,"Velocity":29,"Duration":104287,"SoundDuration":104287,"Delta":472871221},{"NoteNumber":72,"Velocity":54,"Duration":825114,"SoundDuration":825114,"Delta":472975509},{"NoteNumber":51,"Velocity":38,"Duration":103986,"SoundDuration":103986,"Delta":472975509},{"NoteNumber":60,"Velocity":33,"Duration":103686,"SoundDuration":103686,"Delta":473079495},{"NoteNumber":55,"Velocity":30,"Duration":103686,"SoundDuration":103686,"Delta":473079495},{"NoteNumber":63,"Velocity":35,"Duration":103388,"SoundDuration":103388,"Delta":473183182},{"NoteNumber":51,"Velocity":33,"Duration":103388,"SoundDuration":103388,"Delta":473183182},{"NoteNumber":60,"Velocity":32,"Duration":103092,"SoundDuration":103092,"Delta":473286571},{"NoteNumber":55,"Velocity":30,"Duration":103092,"SoundDuration":103092,"Delta":473286571},{"NoteNumber":63,"Velocity":35,"Duration":102739,"SoundDuration":102739,"Delta":473389664},{"NoteNumber":51,"Velocity":38,"Duration":102739,"SoundDuration":102739,"Delta":473389664},{"NoteNumber":60,"Velocity":33,"Duration":102739,"SoundDuration":102739,"Delta":473492404},{"NoteNumber":55,"Velocity":29,"Duration":102739,"SoundDuration":102739,"Delta":473492404},{"NoteNumber":63,"Velocity":35,"Duration":102739,"SoundDuration":102739,"Delta":473595143},{"NoteNumber":51,"Velocity":32,"Duration":102739,"SoundDuration":102739,"Delta":473595143},{"NoteNumber":60,"Velocity":32,"Duration":102739,"SoundDuration":102739,"Delta":473697883},{"NoteNumber":55,"Velocity":29,"Duration":102739,"SoundDuration":102739,"Delta":473697883},{"NoteNumber":72,"Velocity":53,"Duration":410958,"SoundDuration":410958,"Delta":473800623},{"NoteNumber":48,"Velocity":38,"Duration":410958,"SoundDuration":410958,"Delta":473800623},{"NoteNumber":60,"Velocity":32,"Duration":102739,"SoundDuration":102739,"Delta":473903363},{"NoteNumber":55,"Velocity":30,"Duration":102739,"SoundDuration":102739,"Delta":473903363},{"NoteNumber":63,"Velocity":35,"Duration":102739,"SoundDuration":102739,"Delta":474006102},{"NoteNumber":51,"Velocity":33,"Duration":102739,"SoundDuration":102739,"Delta":474006102},{"NoteNumber":60,"Velocity":33,"Duration":102739,"SoundDuration":102739,"Delta":474108842},{"NoteNumber":55,"Velocity":29,"Duration":102739,"SoundDuration":102739,"Delta":474108842},{"NoteNumber":46,"Velocity":45,"Duration":1259341,"SoundDuration":1259341,"Delta":474211582},{"NoteNumber":61,"Velocity":32,"Duration":111346,"SoundDuration":111346,"Delta":474324364},{"NoteNumber":55,"Velocity":30,"Duration":111346,"SoundDuration":111346,"Delta":474324364},{"NoteNumber":64,"Velocity":36,"Duration":104166,"SoundDuration":104166,"Delta":474435710},{"NoteNumber":52,"Velocity":32,"Duration":104166,"SoundDuration":104166,"Delta":474435710},{"NoteNumber":61,"Velocity":35,"Duration":104166,"SoundDuration":104166,"Delta":474539877},{"NoteNumber":55,"Velocity":29,"Duration":104166,"SoundDuration":104166,"Delta":474539877},{"NoteNumber":73,"Velocity":54,"Duration":826880,"SoundDuration":826880,"Delta":474644043},{"NoteNumber":52,"Velocity":38,"Duration":103806,"SoundDuration":103806,"Delta":474644043},{"NoteNumber":61,"Velocity":33,"Duration":103806,"SoundDuration":103806,"Delta":474747850},{"NoteNumber":55,"Velocity":30,"Duration":103806,"SoundDuration":103806,"Delta":474747850},{"NoteNumber":64,"Velocity":35,"Duration":103448,"SoundDuration":103448,"Delta":474851656},{"NoteNumber":52,"Velocity":33,"Duration":103448,"SoundDuration":103448,"Delta":474851656},{"NoteNumber":61,"Velocity":32,"Duration":103448,"SoundDuration":103448,"Delta":474955104},{"NoteNumber":55,"Velocity":30,"Duration":103448,"SoundDuration":103448,"Delta":474955104},{"NoteNumber":64,"Velocity":35,"Duration":103092,"SoundDuration":103092,"Delta":475058552},{"NoteNumber":52,"Velocity":38,"Duration":103092,"SoundDuration":103092,"Delta":475058552},{"NoteNumber":61,"Velocity":33,"Duration":103092,"SoundDuration":103092,"Delta":475161645},{"NoteNumber":55,"Velocity":29,"Duration":103092,"SoundDuration":103092,"Delta":475161645},{"NoteNumber":64,"Velocity":35,"Duration":103092,"SoundDuration":103092,"Delta":475264738},{"NoteNumber":52,"Velocity":32,"Duration":103092,"SoundDuration":103092,"Delta":475264738},{"NoteNumber":61,"Velocity":32,"Duration":103092,"SoundDuration":103092,"Delta":475367831},{"NoteNumber":55,"Velocity":29,"Duration":103092,"SoundDuration":103092,"Delta":475367831},{"NoteNumber":73,"Velocity":53,"Duration":420802,"SoundDuration":420802,"Delta":475470923},{"NoteNumber":46,"Velocity":38,"Duration":420802,"SoundDuration":420802,"Delta":475470923},{"NoteNumber":61,"Velocity":32,"Duration":103092,"SoundDuration":103092,"Delta":475574016},{"NoteNumber":55,"Velocity":30,"Duration":103092,"SoundDuration":103092,"Delta":475574016},{"NoteNumber":64,"Velocity":35,"Duration":103092,"SoundDuration":103092,"Delta":475677109},{"NoteNumber":52,"Velocity":33,"Duration":103092,"SoundDuration":103092,"Delta":475677109},{"NoteNumber":61,"Velocity":33,"Duration":111524,"SoundDuration":111524,"Delta":475780202},{"NoteNumber":55,"Velocity":29,"Duration":111524,"SoundDuration":111524,"Delta":475780202},{"NoteNumber":72,"Velocity":66,"Duration":76271,"SoundDuration":76271,"Delta":475891726},{"NoteNumber":44,"Velocity":55,"Duration":76271,"SoundDuration":76271,"Delta":475891726},{"NoteNumber":60,"Velocity":41,"Duration":101580,"SoundDuration":101580,"Delta":475993421},{"NoteNumber":56,"Velocity":36,"Duration":101580,"SoundDuration":101580,"Delta":475993421},{"NoteNumber":65,"Velocity":45,"Duration":101351,"SoundDuration":101351,"Delta":476095001},{"NoteNumber":48,"Velocity":39,"Duration":101351,"SoundDuration":101351,"Delta":476095001},{"NoteNumber":60,"Velocity":42,"Duration":101123,"SoundDuration":101123,"Delta":476196353},{"NoteNumber":56,"Velocity":35,"Duration":101123,"SoundDuration":101123,"Delta":476196353},{"NoteNumber":76,"Velocity":67,"Duration":75757,"SoundDuration":75757,"Delta":476297476},{"NoteNumber":46,"Velocity":56,"Duration":75757,"SoundDuration":75757,"Delta":476297476},{"NoteNumber":64,"Velocity":43,"Duration":100671,"SoundDuration":100671,"Delta":476398430},{"NoteNumber":58,"Velocity":36,"Duration":100671,"SoundDuration":100671,"Delta":476398430},{"NoteNumber":72,"Velocity":47,"Duration":100502,"SoundDuration":100502,"Delta":476499101},{"NoteNumber":48,"Velocity":43,"Duration":100502,"SoundDuration":100502,"Delta":476499101},{"NoteNumber":64,"Velocity":43,"Duration":100334,"SoundDuration":100334,"Delta":476599604},{"NoteNumber":58,"Velocity":41,"Duration":100334,"SoundDuration":100334,"Delta":476599604},{"NoteNumber":77,"Velocity":71,"Duration":73529,"SoundDuration":73529,"Delta":476699939},{"NoteNumber":44,"Velocity":58,"Duration":73529,"SoundDuration":73529,"Delta":476699939},{"NoteNumber":65,"Velocity":45,"Duration":98039,"SoundDuration":98039,"Delta":476797978},{"NoteNumber":56,"Velocity":38,"Duration":98039,"SoundDuration":98039,"Delta":476797978},{"NoteNumber":72,"Velocity":50,"Duration":98039,"SoundDuration":98039,"Delta":476896017},{"NoteNumber":48,"Velocity":43,"Duration":98039,"SoundDuration":98039,"Delta":476896017},{"NoteNumber":65,"Velocity":45,"Duration":98039,"SoundDuration":98039,"Delta":476994056},{"NoteNumber":56,"Velocity":38,"Duration":98039,"SoundDuration":98039,"Delta":476994056},{"NoteNumber":79,"Velocity":72,"Duration":73529,"SoundDuration":73529,"Delta":477092096},{"NoteNumber":43,"Velocity":60,"Duration":73529,"SoundDuration":73529,"Delta":477092096},{"NoteNumber":67,"Velocity":47,"Duration":98039,"SoundDuration":98039,"Delta":477190135},{"NoteNumber":55,"Velocity":40,"Duration":98039,"SoundDuration":98039,"Delta":477190135},{"NoteNumber":72,"Velocity":50,"Duration":98039,"SoundDuration":98039,"Delta":477288174},{"NoteNumber":48,"Velocity":43,"Duration":98039,"SoundDuration":98039,"Delta":477288174},{"NoteNumber":67,"Velocity":47,"Duration":98039,"SoundDuration":98039,"Delta":477386213},{"NoteNumber":55,"Velocity":38,"Duration":98039,"SoundDuration":98039,"Delta":477386213},{"NoteNumber":80,"Velocity":74,"Duration":72607,"SoundDuration":72607,"Delta":477484253},{"NoteNumber":41,"Velocity":63,"Duration":72607,"SoundDuration":72607,"Delta":477484253},{"NoteNumber":68,"Velocity":49,"Duration":97038,"SoundDuration":97038,"Delta":477580924},{"NoteNumber":53,"Velocity":42,"Duration":97038,"SoundDuration":97038,"Delta":477580924},{"NoteNumber":72,"Velocity":54,"Duration":96880,"SoundDuration":96880,"Delta":477677963},{"NoteNumber":48,"Velocity":45,"Duration":96880,"SoundDuration":96880,"Delta":477677963},{"NoteNumber":68,"Velocity":49,"Duration":96309,"SoundDuration":96309,"Delta":477774843},{"NoteNumber":53,"Velocity":42,"Duration":96309,"SoundDuration":96309,"Delta":477774843},{"NoteNumber":81,"Velocity":80,"Duration":73052,"SoundDuration":73052,"Delta":477871153},{"NoteNumber":39,"Velocity":66,"Duration":73052,"SoundDuration":73052,"Delta":477871153},{"NoteNumber":69,"Velocity":50,"Duration":96672,"SoundDuration":96672,"Delta":477968662},{"NoteNumber":51,"Velocity":41,"Duration":96672,"SoundDuration":96672,"Delta":477968662},{"NoteNumber":72,"Velocity":55,"Duration":96412,"SoundDuration":96412,"Delta":478065335},{"NoteNumber":48,"Velocity":47,"Duration":96412,"SoundDuration":96412,"Delta":478065335},{"NoteNumber":69,"Velocity":51,"Duration":97404,"SoundDuration":97404,"Delta":478161747},{"NoteNumber":51,"Velocity":41,"Duration":97404,"SoundDuration":97404,"Delta":478161747},{"NoteNumber":83,"Velocity":84,"Duration":72555,"SoundDuration":72555,"Delta":478259152},{"NoteNumber":38,"Velocity":68,"Duration":72555,"SoundDuration":72555,"Delta":478259152},{"NoteNumber":71,"Velocity":51,"Duration":96308,"SoundDuration":96308,"Delta":478355822},{"NoteNumber":50,"Velocity":45,"Duration":96308,"SoundDuration":96308,"Delta":478355822},{"NoteNumber":77,"Velocity":58,"Duration":97613,"SoundDuration":97613,"Delta":478452131},{"NoteNumber":43,"Velocity":49,"Duration":97613,"SoundDuration":97613,"Delta":478452131},{"NoteNumber":71,"Velocity":53,"Duration":96828,"SoundDuration":96828,"Delta":478549745},{"NoteNumber":50,"Velocity":43,"Duration":96828,"SoundDuration":96828,"Delta":478549745},{"NoteNumber":84,"Velocity":85,"Duration":72399,"SoundDuration":72399,"Delta":478646573},{"NoteNumber":36,"Velocity":70,"Duration":72399,"SoundDuration":72399,"Delta":478646573},{"NoteNumber":72,"Velocity":53,"Duration":96931,"SoundDuration":96931,"Delta":478743245},{"NoteNumber":48,"Velocity":45,"Duration":96931,"SoundDuration":96931,"Delta":478743245},{"NoteNumber":77,"Velocity":58,"Duration":96153,"SoundDuration":96153,"Delta":478840176},{"NoteNumber":43,"Velocity":51,"Duration":96153,"SoundDuration":96153,"Delta":478840176},{"NoteNumber":72,"Velocity":54,"Duration":97142,"SoundDuration":97142,"Delta":478936330},{"NoteNumber":48,"Velocity":43,"Duration":97142,"SoundDuration":97142,"Delta":478936330},{"NoteNumber":86,"Velocity":85,"Duration":73131,"SoundDuration":73131,"Delta":479033472},{"NoteNumber":35,"Velocity":70,"Duration":73131,"SoundDuration":73131,"Delta":479033472},{"NoteNumber":74,"Velocity":55,"Duration":96053,"SoundDuration":96053,"Delta":479130823},{"NoteNumber":47,"Velocity":47,"Duration":96053,"SoundDuration":96053,"Delta":479130823},{"NoteNumber":77,"Velocity":63,"Duration":96675,"SoundDuration":96675,"Delta":479226877},{"NoteNumber":43,"Velocity":53,"Duration":96675,"SoundDuration":96675,"Delta":479226877},{"NoteNumber":74,"Velocity":55,"Duration":97194,"SoundDuration":97194,"Delta":479323552},{"NoteNumber":47,"Velocity":48,"Duration":97194,"SoundDuration":97194,"Delta":479323552},{"NoteNumber":88,"Velocity":90,"Duration":71885,"SoundDuration":71885,"Delta":479420747},{"NoteNumber":34,"Velocity":72,"Duration":71885,"SoundDuration":71885,"Delta":479420747},{"NoteNumber":76,"Velocity":57,"Duration":95645,"SoundDuration":95645,"Delta":479516442},{"NoteNumber":46,"Velocity":47,"Duration":95645,"SoundDuration":95645,"Delta":479516442},{"NoteNumber":79,"Velocity":62,"Duration":97193,"SoundDuration":97193,"Delta":479612087},{"NoteNumber":36,"Velocity":53,"Duration":97193,"SoundDuration":97193,"Delta":479612087},{"NoteNumber":76,"Velocity":57,"Duration":96206,"SoundDuration":96206,"Delta":479709281},{"NoteNumber":46,"Velocity":50,"Duration":96206,"SoundDuration":96206,"Delta":479709281},{"NoteNumber":89,"Velocity":89,"Duration":72245,"SoundDuration":72245,"Delta":479805487},{"NoteNumber":32,"Velocity":75,"Duration":72245,"SoundDuration":72245,"Delta":479805487},{"NoteNumber":77,"Velocity":59,"Duration":98307,"SoundDuration":98307,"Delta":479902110},{"NoteNumber":44,"Velocity":50,"Duration":98307,"SoundDuration":98307,"Delta":479902110},{"NoteNumber":80,"Velocity":64,"Duration":97456,"SoundDuration":97456,"Delta":480000417},{"NoteNumber":36,"Velocity":55,"Duration":97456,"SoundDuration":97456,"Delta":480000417},{"NoteNumber":77,"Velocity":59,"Duration":96774,"SoundDuration":96774,"Delta":480097874},{"NoteNumber":44,"Velocity":50,"Duration":96774,"SoundDuration":96774,"Delta":480097874},{"NoteNumber":86,"Velocity":91,"Duration":76271,"SoundDuration":76271,"Delta":480194648},{"NoteNumber":29,"Velocity":76,"Duration":76271,"SoundDuration":76271,"Delta":480194648},{"NoteNumber":77,"Velocity":61,"Duration":101695,"SoundDuration":101695,"Delta":480296343},{"NoteNumber":41,"Velocity":56,"Duration":101695,"SoundDuration":101695,"Delta":480296343},{"NoteNumber":80,"Velocity":67,"Duration":101695,"SoundDuration":101695,"Delta":480398038},{"NoteNumber":36,"Velocity":58,"Duration":101695,"SoundDuration":101695,"Delta":480398038},{"NoteNumber":77,"Velocity":61,"Duration":101695,"SoundDuration":101695,"Delta":480499733},{"NoteNumber":41,"Velocity":55,"Duration":101695,"SoundDuration":101695,"Delta":480499733},{"NoteNumber":31,"Velocity":71,"Duration":199760,"SoundDuration":199760,"Delta":480601428},{"NoteNumber":43,"Velocity":84,"Duration":199760,"SoundDuration":199760,"Delta":480601428},{"NoteNumber":75,"Velocity":78,"Duration":97719,"SoundDuration":97719,"Delta":480703469},{"NoteNumber":79,"Velocity":84,"Duration":97719,"SoundDuration":97719,"Delta":480801189},{"NoteNumber":75,"Velocity":78,"Duration":97719,"SoundDuration":97719,"Delta":480898908},{"NoteNumber":84,"Velocity":88,"Duration":73289,"SoundDuration":73289,"Delta":480996628},{"NoteNumber":75,"Velocity":78,"Duration":97719,"SoundDuration":97719,"Delta":481094348},{"NoteNumber":79,"Velocity":84,"Duration":102040,"SoundDuration":102040,"Delta":481192068},{"NoteNumber":75,"Velocity":76,"Duration":102040,"SoundDuration":102040,"Delta":481294108},{"NoteNumber":55,"Velocity":84,"Duration":198710,"SoundDuration":198710,"Delta":481396149},{"NoteNumber":43,"Velocity":71,"Duration":198710,"SoundDuration":198710,"Delta":481396149},{"NoteNumber":74,"Velocity":78,"Duration":98039,"SoundDuration":98039,"Delta":481496820},{"NoteNumber":77,"Velocity":84,"Duration":98039,"SoundDuration":98039,"Delta":481594860},{"NoteNumber":74,"Velocity":78,"Duration":98039,"SoundDuration":98039,"Delta":481692899},{"NoteNumber":83,"Velocity":88,"Duration":73529,"SoundDuration":73529,"Delta":481790938},{"NoteNumber":74,"Velocity":78,"Duration":98039,"SoundDuration":98039,"Delta":481888977},{"NoteNumber":77,"Velocity":84,"Duration":101695,"SoundDuration":101695,"Delta":481987017},{"NoteNumber":74,"Velocity":76,"Duration":101695,"SoundDuration":101695,"Delta":482088712},{"NoteNumber":72,"Velocity":81,"Duration":78671,"SoundDuration":78671,"Delta":482190407},{"NoteNumber":48,"Velocity":84,"Duration":209789,"SoundDuration":209789,"Delta":482190407},{"NoteNumber":84,"Velocity":58,"Duration":397405,"SoundDuration":397405,"Delta":482400197},{"NoteNumber":60,"Velocity":34,"Duration":188741,"SoundDuration":188741,"Delta":482400197},{"NoteNumber":63,"Velocity":34,"Duration":188741,"SoundDuration":188741,"Delta":482400197},{"NoteNumber":60,"Velocity":34,"Duration":188763,"SoundDuration":188763,"Delta":482598872},{"NoteNumber":63,"Velocity":34,"Duration":188763,"SoundDuration":188763,"Delta":482598872},{"NoteNumber":83,"Velocity":46,"Duration":100392,"SoundDuration":100392,"Delta":482797603},{"NoteNumber":60,"Velocity":34,"Duration":192150,"SoundDuration":192150,"Delta":482797603},{"NoteNumber":63,"Velocity":34,"Duration":192150,"SoundDuration":192150,"Delta":482797603},{"NoteNumber":84,"Velocity":48,"Duration":102103,"SoundDuration":102103,"Delta":482897995},{"NoteNumber":86,"Velocity":49,"Duration":102567,"SoundDuration":102567,"Delta":483000098},{"NoteNumber":56,"Velocity":34,"Duration":801722,"SoundDuration":801722,"Delta":483000098},{"NoteNumber":84,"Velocity":49,"Duration":100786,"SoundDuration":100786,"Delta":483102666},{"NoteNumber":82,"Velocity":48,"Duration":99392,"SoundDuration":99392,"Delta":483203452},{"NoteNumber":60,"Velocity":34,"Duration":188796,"SoundDuration":188796,"Delta":483203452},{"NoteNumber":63,"Velocity":34,"Duration":188796,"SoundDuration":188796,"Delta":483203452},{"NoteNumber":80,"Velocity":47,"Duration":99337,"SoundDuration":99337,"Delta":483302845},{"NoteNumber":79,"Velocity":45,"Duration":99337,"SoundDuration":99337,"Delta":483402183},{"NoteNumber":60,"Velocity":34,"Duration":188741,"SoundDuration":188741,"Delta":483402183},{"NoteNumber":63,"Velocity":34,"Duration":188741,"SoundDuration":188741,"Delta":483402183},{"NoteNumber":80,"Velocity":46,"Duration":99337,"SoundDuration":99337,"Delta":483501520},{"NoteNumber":82,"Velocity":49,"Duration":99779,"SoundDuration":99779,"Delta":483600858},{"NoteNumber":60,"Velocity":34,"Duration":190758,"SoundDuration":190758,"Delta":483600858},{"NoteNumber":63,"Velocity":34,"Duration":190758,"SoundDuration":190758,"Delta":483600858},{"NoteNumber":80,"Velocity":47,"Duration":101182,"SoundDuration":101182,"Delta":483700638},{"NoteNumber":79,"Velocity":49,"Duration":101353,"SoundDuration":101353,"Delta":483801820},{"NoteNumber":53,"Velocity":34,"Duration":798076,"SoundDuration":798076,"Delta":483801820},{"NoteNumber":77,"Velocity":47,"Duration":100001,"SoundDuration":100001,"Delta":483903174},{"NoteNumber":75,"Velocity":46,"Duration":99010,"SoundDuration":99010,"Delta":484003176},{"NoteNumber":62,"Velocity":34,"Duration":188118,"SoundDuration":188118,"Delta":484003176},{"NoteNumber":60,"Velocity":34,"Duration":188118,"SoundDuration":188118,"Delta":484003176},{"NoteNumber":74,"Velocity":45,"Duration":99009,"SoundDuration":99009,"Delta":484102186},{"NoteNumber":73,"Velocity":45,"Duration":99010,"SoundDuration":99010,"Delta":484201196},{"NoteNumber":60,"Velocity":34,"Duration":188119,"SoundDuration":188119,"Delta":484201196},{"NoteNumber":62,"Velocity":34,"Duration":188119,"SoundDuration":188119,"Delta":484201196},{"NoteNumber":74,"Velocity":45,"Duration":99010,"SoundDuration":99010,"Delta":484300206},{"NoteNumber":75,"Velocity":47,"Duration":99669,"SoundDuration":99669,"Delta":484399216},{"NoteNumber":60,"Velocity":34,"Duration":190512,"SoundDuration":190512,"Delta":484399216},{"NoteNumber":62,"Velocity":34,"Duration":190512,"SoundDuration":190512,"Delta":484399216},{"NoteNumber":74,"Velocity":45,"Duration":101012,"SoundDuration":101012,"Delta":484498885},{"NoteNumber":72,"Velocity":46,"Duration":101295,"SoundDuration":101295,"Delta":484599897},{"NoteNumber":55,"Velocity":34,"Duration":797323,"SoundDuration":797323,"Delta":484599897},{"NoteNumber":71,"Velocity":46,"Duration":100001,"SoundDuration":100001,"Delta":484701193},{"NoteNumber":68,"Velocity":45,"Duration":99337,"SoundDuration":99337,"Delta":484801195},{"NoteNumber":59,"Velocity":34,"Duration":188741,"SoundDuration":188741,"Delta":484801195},{"NoteNumber":62,"Velocity":34,"Duration":188741,"SoundDuration":188741,"Delta":484801195},{"NoteNumber":67,"Velocity":45,"Duration":99337,"SoundDuration":99337,"Delta":484900532},{"NoteNumber":66,"Velocity":45,"Duration":99337,"SoundDuration":99337,"Delta":484999870},{"NoteNumber":59,"Velocity":34,"Duration":188741,"SoundDuration":188741,"Delta":484999870},{"NoteNumber":62,"Velocity":34,"Duration":188741,"SoundDuration":188741,"Delta":484999870},{"NoteNumber":67,"Velocity":42,"Duration":99337,"SoundDuration":99337,"Delta":485099208},{"NoteNumber":68,"Velocity":46,"Duration":99337,"SoundDuration":99337,"Delta":485198546},{"NoteNumber":59,"Velocity":34,"Duration":188741,"SoundDuration":188741,"Delta":485198546},{"NoteNumber":62,"Velocity":34,"Duration":188741,"SoundDuration":188741,"Delta":485198546},{"NoteNumber":65,"Velocity":42,"Duration":99337,"SoundDuration":99337,"Delta":485297883},{"NoteNumber":63,"Velocity":66,"Duration":78671,"SoundDuration":78671,"Delta":485397221},{"NoteNumber":48,"Velocity":59,"Duration":809691,"SoundDuration":809691,"Delta":485397221},{"NoteNumber":72,"Velocity":68,"Duration":397405,"SoundDuration":397405,"Delta":485607011},{"NoteNumber":84,"Velocity":68,"Duration":397405,"SoundDuration":397405,"Delta":485607011},{"NoteNumber":51,"Velocity":44,"Duration":188741,"SoundDuration":188741,"Delta":485607011},{"NoteNumber":60,"Velocity":44,"Duration":188741,"SoundDuration":188741,"Delta":485607011},{"NoteNumber":51,"Velocity":44,"Duration":188763,"SoundDuration":188763,"Delta":485805687},{"NoteNumber":60,"Velocity":44,"Duration":188763,"SoundDuration":188763,"Delta":485805687},{"NoteNumber":83,"Velocity":61,"Duration":100392,"SoundDuration":100392,"Delta":486004417},{"NoteNumber":51,"Velocity":44,"Duration":192150,"SoundDuration":192150,"Delta":486004417},{"NoteNumber":60,"Velocity":44,"Duration":192150,"SoundDuration":192150,"Delta":486004417},{"NoteNumber":84,"Velocity":64,"Duration":102103,"SoundDuration":102103,"Delta":486104810},{"NoteNumber":86,"Velocity":66,"Duration":102567,"SoundDuration":102567,"Delta":486206913},{"NoteNumber":44,"Velocity":45,"Duration":801722,"SoundDuration":801722,"Delta":486206913},{"NoteNumber":84,"Velocity":66,"Duration":100786,"SoundDuration":100786,"Delta":486309480},{"NoteNumber":82,"Velocity":65,"Duration":99392,"SoundDuration":99392,"Delta":486410267},{"NoteNumber":51,"Velocity":46,"Duration":188796,"SoundDuration":188796,"Delta":486410267},{"NoteNumber":48,"Velocity":46,"Duration":188796,"SoundDuration":188796,"Delta":486410267},{"NoteNumber":56,"Velocity":46,"Duration":188796,"SoundDuration":188796,"Delta":486410267},{"NoteNumber":80,"Velocity":64,"Duration":99337,"SoundDuration":99337,"Delta":486509660},{"NoteNumber":79,"Velocity":62,"Duration":99337,"SoundDuration":99337,"Delta":486608997},{"NoteNumber":51,"Velocity":46,"Duration":188741,"SoundDuration":188741,"Delta":486608997},{"NoteNumber":48,"Velocity":46,"Duration":188741,"SoundDuration":188741,"Delta":486608997},{"NoteNumber":56,"Velocity":46,"Duration":188741,"SoundDuration":188741,"Delta":486608997},{"NoteNumber":80,"Velocity":64,"Duration":99337,"SoundDuration":99337,"Delta":486708335},{"NoteNumber":82,"Velocity":68,"Duration":99779,"SoundDuration":99779,"Delta":486807673},{"NoteNumber":51,"Velocity":47,"Duration":190758,"SoundDuration":190758,"Delta":486807673},{"NoteNumber":48,"Velocity":47,"Duration":190758,"SoundDuration":190758,"Delta":486807673},{"NoteNumber":56,"Velocity":47,"Duration":190758,"SoundDuration":190758,"Delta":486807673},{"NoteNumber":80,"Velocity":66,"Duration":101182,"SoundDuration":101182,"Delta":486907452},{"NoteNumber":79,"Velocity":69,"Duration":101353,"SoundDuration":101353,"Delta":487008635},{"NoteNumber":41,"Velocity":47,"Duration":798076,"SoundDuration":798076,"Delta":487008635},{"NoteNumber":77,"Velocity":67,"Duration":100001,"SoundDuration":100001,"Delta":487109988},{"NoteNumber":75,"Velocity":66,"Duration":99010,"SoundDuration":99010,"Delta":487209990},{"NoteNumber":50,"Velocity":48,"Duration":188118,"SoundDuration":188118,"Delta":487209990},{"NoteNumber":53,"Velocity":48,"Duration":188118,"SoundDuration":188118,"Delta":487209990},{"NoteNumber":48,"Velocity":48,"Duration":188118,"SoundDuration":188118,"Delta":487209990},{"NoteNumber":74,"Velocity":65,"Duration":99009,"SoundDuration":99009,"Delta":487309000},{"NoteNumber":73,"Velocity":65,"Duration":99010,"SoundDuration":99010,"Delta":487408010},{"NoteNumber":50,"Velocity":48,"Duration":188119,"SoundDuration":188119,"Delta":487408010},{"NoteNumber":48,"Velocity":48,"Duration":188119,"SoundDuration":188119,"Delta":487408010},{"NoteNumber":53,"Velocity":48,"Duration":188119,"SoundDuration":188119,"Delta":487408010},{"NoteNumber":74,"Velocity":64,"Duration":99010,"SoundDuration":99010,"Delta":487507020},{"NoteNumber":75,"Velocity":68,"Duration":99669,"SoundDuration":99669,"Delta":487606030},{"NoteNumber":50,"Velocity":49,"Duration":190512,"SoundDuration":190512,"Delta":487606030},{"NoteNumber":48,"Velocity":49,"Duration":190512,"SoundDuration":190512,"Delta":487606030},{"NoteNumber":53,"Velocity":49,"Duration":190512,"SoundDuration":190512,"Delta":487606030},{"NoteNumber":74,"Velocity":66,"Duration":101012,"SoundDuration":101012,"Delta":487705700},{"NoteNumber":72,"Velocity":68,"Duration":101295,"SoundDuration":101295,"Delta":487806712},{"NoteNumber":43,"Velocity":49,"Duration":805841,"SoundDuration":805841,"Delta":487806712},{"NoteNumber":71,"Velocity":68,"Duration":100001,"SoundDuration":100001,"Delta":487908007},{"NoteNumber":68,"Velocity":68,"Duration":99337,"SoundDuration":99337,"Delta":488008009},{"NoteNumber":50,"Velocity":50,"Duration":188741,"SoundDuration":188741,"Delta":488008009},{"NoteNumber":47,"Velocity":50,"Duration":188741,"SoundDuration":188741,"Delta":488008009},{"NoteNumber":55,"Velocity":50,"Duration":188741,"SoundDuration":188741,"Delta":488008009},{"NoteNumber":67,"Velocity":68,"Duration":99337,"SoundDuration":99337,"Delta":488107347},{"NoteNumber":66,"Velocity":67,"Duration":99337,"SoundDuration":99337,"Delta":488206685},{"NoteNumber":50,"Velocity":50,"Duration":188687,"SoundDuration":188687,"Delta":488206685},{"NoteNumber":47,"Velocity":50,"Duration":188687,"SoundDuration":188687,"Delta":488206685},{"NoteNumber":55,"Velocity":50,"Duration":188687,"SoundDuration":188687,"Delta":488206685},{"NoteNumber":67,"Velocity":64,"Duration":99283,"SoundDuration":99283,"Delta":488306023},{"NoteNumber":68,"Velocity":70,"Duration":101018,"SoundDuration":101018,"Delta":488405306},{"NoteNumber":50,"Velocity":51,"Duration":196338,"SoundDuration":196338,"Delta":488405306},{"NoteNumber":47,"Velocity":51,"Duration":196338,"SoundDuration":196338,"Delta":488405306},{"NoteNumber":55,"Velocity":51,"Duration":196338,"SoundDuration":196338,"Delta":488405306},{"NoteNumber":67,"Velocity":64,"Duration":106229,"SoundDuration":106229,"Delta":488506324},{"NoteNumber":72,"Velocity":83,"Duration":110701,"SoundDuration":110701,"Delta":488612553},{"NoteNumber":36,"Velocity":67,"Duration":210331,"SoundDuration":210331,"Delta":488612553},{"NoteNumber":48,"Velocity":60,"Duration":110701,"SoundDuration":110701,"Delta":488723254},{"NoteNumber":60,"Velocity":82,"Duration":400695,"SoundDuration":400695,"Delta":488833955},{"NoteNumber":36,"Velocity":67,"Duration":188741,"SoundDuration":188741,"Delta":488833955},{"NoteNumber":48,"Velocity":59,"Duration":99337,"SoundDuration":99337,"Delta":488933293},{"NoteNumber":36,"Velocity":67,"Duration":191918,"SoundDuration":191918,"Delta":489032631},{"NoteNumber":48,"Velocity":60,"Duration":101010,"SoundDuration":101010,"Delta":489133641},{"NoteNumber":58,"Velocity":80,"Duration":99337,"SoundDuration":99337,"Delta":489234651},{"NoteNumber":64,"Velocity":80,"Duration":99337,"SoundDuration":99337,"Delta":489234651},{"NoteNumber":36,"Velocity":66,"Duration":188741,"SoundDuration":188741,"Delta":489234651},{"NoteNumber":48,"Velocity":60,"Duration":99337,"SoundDuration":99337,"Delta":489333989},{"NoteNumber":56,"Velocity":81,"Duration":99337,"SoundDuration":99337,"Delta":489433326},{"NoteNumber":65,"Velocity":81,"Duration":99337,"SoundDuration":99337,"Delta":489433326},{"NoteNumber":36,"Velocity":66,"Duration":188741,"SoundDuration":188741,"Delta":489433326},{"NoteNumber":48,"Velocity":59,"Duration":99337,"SoundDuration":99337,"Delta":489532664},{"NoteNumber":64,"Velocity":82,"Duration":99337,"SoundDuration":99337,"Delta":489632002},{"NoteNumber":67,"Velocity":82,"Duration":99337,"SoundDuration":99337,"Delta":489632002},{"NoteNumber":36,"Velocity":66,"Duration":188741,"SoundDuration":188741,"Delta":489632002},{"NoteNumber":48,"Velocity":60,"Duration":99337,"SoundDuration":99337,"Delta":489731340},{"NoteNumber":65,"Velocity":83,"Duration":99337,"SoundDuration":99337,"Delta":489830677},{"NoteNumber":68,"Velocity":83,"Duration":99337,"SoundDuration":99337,"Delta":489830677},{"NoteNumber":36,"Velocity":66,"Duration":188741,"SoundDuration":188741,"Delta":489830677},{"NoteNumber":48,"Velocity":60,"Duration":99337,"SoundDuration":99337,"Delta":489930015},{"NoteNumber":62,"Velocity":85,"Duration":99337,"SoundDuration":99337,"Delta":490029353},{"NoteNumber":71,"Velocity":85,"Duration":99337,"SoundDuration":99337,"Delta":490029353},{"NoteNumber":36,"Velocity":66,"Duration":188741,"SoundDuration":188741,"Delta":490029353},{"NoteNumber":48,"Velocity":61,"Duration":99337,"SoundDuration":99337,"Delta":490128691},{"NoteNumber":63,"Velocity":83,"Duration":104529,"SoundDuration":104529,"Delta":490228028},{"NoteNumber":72,"Velocity":83,"Duration":104529,"SoundDuration":104529,"Delta":490228028},{"NoteNumber":36,"Velocity":67,"Duration":198606,"SoundDuration":198606,"Delta":490228028},{"NoteNumber":48,"Velocity":60,"Duration":104529,"SoundDuration":104529,"Delta":490332558},{"NoteNumber":64,"Velocity":83,"Duration":400695,"SoundDuration":400695,"Delta":490437087},{"NoteNumber":72,"Velocity":82,"Duration":400695,"SoundDuration":400695,"Delta":490437087},{"NoteNumber":36,"Velocity":67,"Duration":188741,"SoundDuration":188741,"Delta":490437087},{"NoteNumber":48,"Velocity":59,"Duration":99337,"SoundDuration":99337,"Delta":490536425},{"NoteNumber":36,"Velocity":67,"Duration":191918,"SoundDuration":191918,"Delta":490635763},{"NoteNumber":48,"Velocity":60,"Duration":101010,"SoundDuration":101010,"Delta":490736773},{"NoteNumber":70,"Velocity":80,"Duration":99337,"SoundDuration":99337,"Delta":490837783},{"NoteNumber":76,"Velocity":80,"Duration":99337,"SoundDuration":99337,"Delta":490837783},{"NoteNumber":36,"Velocity":66,"Duration":188741,"SoundDuration":188741,"Delta":490837783},{"NoteNumber":48,"Velocity":60,"Duration":99337,"SoundDuration":99337,"Delta":490937121},{"NoteNumber":68,"Velocity":81,"Duration":99337,"SoundDuration":99337,"Delta":491036458},{"NoteNumber":77,"Velocity":81,"Duration":99337,"SoundDuration":99337,"Delta":491036458},{"NoteNumber":36,"Velocity":66,"Duration":188741,"SoundDuration":188741,"Delta":491036458},{"NoteNumber":48,"Velocity":59,"Duration":99337,"SoundDuration":99337,"Delta":491135796},{"NoteNumber":76,"Velocity":82,"Duration":99337,"SoundDuration":99337,"Delta":491235134},{"NoteNumber":79,"Velocity":82,"Duration":99337,"SoundDuration":99337,"Delta":491235134},{"NoteNumber":36,"Velocity":66,"Duration":188741,"SoundDuration":188741,"Delta":491235134},{"NoteNumber":48,"Velocity":60,"Duration":99337,"SoundDuration":99337,"Delta":491334472},{"NoteNumber":77,"Velocity":83,"Duration":99337,"SoundDuration":99337,"Delta":491433809},{"NoteNumber":80,"Velocity":83,"Duration":99337,"SoundDuration":99337,"Delta":491433809},{"NoteNumber":36,"Velocity":66,"Duration":188741,"SoundDuration":188741,"Delta":491433809},{"NoteNumber":48,"Velocity":60,"Duration":99337,"SoundDuration":99337,"Delta":491533147},{"NoteNumber":74,"Velocity":85,"Duration":104894,"SoundDuration":104894,"Delta":491632485},{"NoteNumber":83,"Velocity":85,"Duration":104894,"SoundDuration":104894,"Delta":491632485},{"NoteNumber":36,"Velocity":66,"Duration":199300,"SoundDuration":199300,"Delta":491632485},{"NoteNumber":48,"Velocity":61,"Duration":104894,"SoundDuration":104894,"Delta":491737380},{"NoteNumber":72,"Velocity":94,"Duration":800000,"SoundDuration":800000,"Delta":491842275},{"NoteNumber":84,"Velocity":94,"Duration":800000,"SoundDuration":800000,"Delta":491842275},{"NoteNumber":75,"Velocity":94,"Duration":800000,"SoundDuration":800000,"Delta":491842275},{"NoteNumber":36,"Velocity":66,"Duration":189999,"SoundDuration":189999,"Delta":491842275},{"NoteNumber":48,"Velocity":59,"Duration":99999,"SoundDuration":99999,"Delta":491942275},{"NoteNumber":36,"Velocity":66,"Duration":189999,"SoundDuration":189999,"Delta":492042275},{"NoteNumber":48,"Velocity":60,"Duration":99999,"SoundDuration":99999,"Delta":492142275},{"NoteNumber":36,"Velocity":66,"Duration":189999,"SoundDuration":189999,"Delta":492242275},{"NoteNumber":48,"Velocity":60,"Duration":100000,"SoundDuration":100000,"Delta":492342275},{"NoteNumber":36,"Velocity":66,"Duration":189999,"SoundDuration":189999,"Delta":492442275},{"NoteNumber":48,"Velocity":61,"Duration":100000,"SoundDuration":100000,"Delta":492542275},{"NoteNumber":60,"Velocity":88,"Duration":811080,"SoundDuration":811080,"Delta":492642275},{"NoteNumber":63,"Velocity":88,"Duration":811080,"SoundDuration":811080,"Delta":492642275},{"NoteNumber":72,"Velocity":88,"Duration":811080,"SoundDuration":811080,"Delta":492642275},{"NoteNumber":34,"Velocity":66,"Duration":188741,"SoundDuration":188741,"Delta":492642275},{"NoteNumber":46,"Velocity":59,"Duration":99337,"SoundDuration":99337,"Delta":492741613},{"NoteNumber":34,"Velocity":66,"Duration":188741,"SoundDuration":188741,"Delta":492840950},{"NoteNumber":46,"Velocity":60,"Duration":99337,"SoundDuration":99337,"Delta":492940288},{"NoteNumber":34,"Velocity":66,"Duration":188741,"SoundDuration":188741,"Delta":493039626},{"NoteNumber":46,"Velocity":60,"Duration":99337,"SoundDuration":99337,"Delta":493138964},{"NoteNumber":34,"Velocity":66,"Duration":204301,"SoundDuration":204301,"Delta":493238301},{"NoteNumber":46,"Velocity":61,"Duration":107527,"SoundDuration":107527,"Delta":493345828},{"NoteNumber":72,"Velocity":99,"Duration":800000,"SoundDuration":800000,"Delta":493453355},{"NoteNumber":84,"Velocity":99,"Duration":800000,"SoundDuration":800000,"Delta":493453355},{"NoteNumber":75,"Velocity":99,"Duration":800000,"SoundDuration":800000,"Delta":493453355},{"NoteNumber":32,"Velocity":66,"Duration":189999,"SoundDuration":189999,"Delta":493453355},{"NoteNumber":44,"Velocity":59,"Duration":99999,"SoundDuration":99999,"Delta":493553355},{"NoteNumber":32,"Velocity":66,"Duration":189999,"SoundDuration":189999,"Delta":493653355},{"NoteNumber":44,"Velocity":60,"Duration":99999,"SoundDuration":99999,"Delta":493753355},{"NoteNumber":32,"Velocity":66,"Duration":189999,"SoundDuration":189999,"Delta":493853355},{"NoteNumber":44,"Velocity":60,"Duration":100000,"SoundDuration":100000,"Delta":493953355},{"NoteNumber":32,"Velocity":66,"Duration":189999,"SoundDuration":189999,"Delta":494053355},{"NoteNumber":44,"Velocity":61,"Duration":100000,"SoundDuration":100000,"Delta":494153355},{"NoteNumber":60,"Velocity":92,"Duration":845446,"SoundDuration":845446,"Delta":494253355},{"NoteNumber":63,"Velocity":92,"Duration":845446,"SoundDuration":845446,"Delta":494253355},{"NoteNumber":72,"Velocity":92,"Duration":845446,"SoundDuration":845446,"Delta":494253355},{"NoteNumber":31,"Velocity":66,"Duration":195205,"SoundDuration":195205,"Delta":494253355},{"NoteNumber":43,"Velocity":59,"Duration":102739,"SoundDuration":102739,"Delta":494356095},{"NoteNumber":31,"Velocity":66,"Duration":195205,"SoundDuration":195205,"Delta":494458835},{"NoteNumber":43,"Velocity":60,"Duration":102739,"SoundDuration":102739,"Delta":494561575},{"NoteNumber":31,"Velocity":66,"Duration":195205,"SoundDuration":195205,"Delta":494664314},{"NoteNumber":43,"Velocity":60,"Duration":102739,"SoundDuration":102739,"Delta":494767054},{"NoteNumber":31,"Velocity":66,"Duration":217557,"SoundDuration":217557,"Delta":494869794},{"NoteNumber":43,"Velocity":61,"Duration":114503,"SoundDuration":114503,"Delta":494984298},{"NoteNumber":81,"Velocity":102,"Duration":963806,"SoundDuration":963806,"Delta":495098801},{"NoteNumber":84,"Velocity":102,"Duration":963806,"SoundDuration":963806,"Delta":495098801},{"NoteNumber":75,"Velocity":102,"Duration":963806,"SoundDuration":963806,"Delta":495098801},{"NoteNumber":87,"Velocity":102,"Duration":963806,"SoundDuration":963806,"Delta":495098801},{"NoteNumber":30,"Velocity":68,"Duration":963806,"SoundDuration":963806,"Delta":495098801},{"NoteNumber":42,"Velocity":81,"Duration":963806,"SoundDuration":963806,"Delta":495098801},{"NoteNumber":60,"Velocity":102,"Duration":1998920,"SoundDuration":1998920,"Delta":496062608},{"NoteNumber":54,"Velocity":86,"Duration":1998920,"SoundDuration":1998920,"Delta":496062608},{"NoteNumber":57,"Velocity":102,"Duration":1998920,"SoundDuration":1998920,"Delta":496062608},{"NoteNumber":63,"Velocity":102,"Duration":1998920,"SoundDuration":1998920,"Delta":496062608},{"NoteNumber":45,"Velocity":84,"Duration":1998920,"SoundDuration":1998920,"Delta":496062608},{"NoteNumber":48,"Velocity":84,"Duration":1998920,"SoundDuration":1998920,"Delta":496062608},{"NoteNumber":42,"Velocity":71,"Duration":1998920,"SoundDuration":1998920,"Delta":496062608},{"NoteNumber":51,"Velocity":84,"Duration":1998920,"SoundDuration":1998920,"Delta":496062608},{"NoteNumber":66,"Velocity":44,"Duration":356249,"SoundDuration":356249,"Delta":502186528},{"NoteNumber":69,"Velocity":44,"Duration":356249,"SoundDuration":356249,"Delta":502186528},{"NoteNumber":72,"Velocity":51,"Duration":356249,"SoundDuration":356249,"Delta":502186528},{"NoteNumber":63,"Velocity":39,"Duration":356249,"SoundDuration":356249,"Delta":502186528},{"NoteNumber":66,"Velocity":46,"Duration":1125000,"SoundDuration":1125000,"Delta":502561528},{"NoteNumber":69,"Velocity":46,"Duration":1125000,"SoundDuration":1125000,"Delta":502561528},{"NoteNumber":74,"Velocity":55,"Duration":1125000,"SoundDuration":1125000,"Delta":502561528},{"NoteNumber":62,"Velocity":45,"Duration":1125000,"SoundDuration":1125000,"Delta":502561528},{"NoteNumber":66,"Velocity":42,"Duration":419117,"SoundDuration":419117,"Delta":503686528},{"NoteNumber":69,"Velocity":50,"Duration":419117,"SoundDuration":419117,"Delta":503686528},{"NoteNumber":75,"Velocity":50,"Duration":419117,"SoundDuration":419117,"Delta":503686528},{"NoteNumber":60,"Velocity":39,"Duration":419117,"SoundDuration":419117,"Delta":503686528},{"NoteNumber":66,"Velocity":46,"Duration":3287671,"SoundDuration":3287671,"Delta":504127705},{"NoteNumber":69,"Velocity":55,"Duration":3287671,"SoundDuration":3287671,"Delta":504127705},{"NoteNumber":75,"Velocity":55,"Duration":3287671,"SoundDuration":3287671,"Delta":504127705},{"NoteNumber":60,"Velocity":42,"Duration":3287671,"SoundDuration":3287671,"Delta":504127705},{"NoteNumber":67,"Velocity":31,"Duration":1500000,"SoundDuration":1500000,"Delta":507415377},{"NoteNumber":71,"Velocity":31,"Duration":1500000,"SoundDuration":1500000,"Delta":507415377},{"NoteNumber":74,"Velocity":39,"Duration":1500000,"SoundDuration":1500000,"Delta":507415377},{"NoteNumber":59,"Velocity":27,"Duration":1500000,"SoundDuration":1500000,"Delta":507415377},{"NoteNumber":74,"Velocity":44,"Duration":375000,"SoundDuration":375000,"Delta":514540377},{"NoteNumber":71,"Velocity":44,"Duration":375000,"SoundDuration":375000,"Delta":514540377},{"NoteNumber":77,"Velocity":52,"Duration":375000,"SoundDuration":375000,"Delta":514540377},{"NoteNumber":68,"Velocity":39,"Duration":375000,"SoundDuration":375000,"Delta":514540377},{"NoteNumber":71,"Velocity":46,"Duration":1125000,"SoundDuration":1125000,"Delta":514915377},{"NoteNumber":74,"Velocity":46,"Duration":1125000,"SoundDuration":1125000,"Delta":514915377},{"NoteNumber":79,"Velocity":55,"Duration":1125000,"SoundDuration":1125000,"Delta":514915377},{"NoteNumber":67,"Velocity":45,"Duration":1125000,"SoundDuration":1125000,"Delta":514915377},{"NoteNumber":74,"Velocity":51,"Duration":413043,"SoundDuration":413043,"Delta":516040377},{"NoteNumber":80,"Velocity":51,"Duration":413043,"SoundDuration":413043,"Delta":516040377},{"NoteNumber":71,"Velocity":43,"Duration":413043,"SoundDuration":413043,"Delta":516040377},{"NoteNumber":65,"Velocity":39,"Duration":413043,"SoundDuration":413043,"Delta":516040377},{"NoteNumber":80,"Velocity":55,"Duration":3287672,"SoundDuration":3287672,"Delta":516475159},{"NoteNumber":71,"Velocity":46,"Duration":3287672,"SoundDuration":3287672,"Delta":516475159},{"NoteNumber":74,"Velocity":55,"Duration":3287672,"SoundDuration":3287672,"Delta":516475159},{"NoteNumber":65,"Velocity":38,"Duration":3287672,"SoundDuration":3287672,"Delta":516475159},{"NoteNumber":72,"Velocity":32,"Duration":1500000,"SoundDuration":1500000,"Delta":519762831},{"NoteNumber":79,"Velocity":39,"Duration":1500000,"SoundDuration":1500000,"Delta":519762831},{"NoteNumber":75,"Velocity":32,"Duration":1500000,"SoundDuration":1500000,"Delta":519762831},{"NoteNumber":63,"Velocity":27,"Duration":1500000,"SoundDuration":1500000,"Delta":519762831},{"NoteNumber":70,"Velocity":55,"Duration":375000,"SoundDuration":375000,"Delta":526887831},{"NoteNumber":79,"Velocity":55,"Duration":375000,"SoundDuration":375000,"Delta":526887831},{"NoteNumber":76,"Velocity":55,"Duration":375000,"SoundDuration":375000,"Delta":526887831},{"NoteNumber":82,"Velocity":66,"Duration":375000,"SoundDuration":375000,"Delta":526887831},{"NoteNumber":61,"Velocity":42,"Duration":375000,"SoundDuration":375000,"Delta":526887831},{"NoteNumber":64,"Velocity":42,"Duration":375000,"SoundDuration":375000,"Delta":526887831},{"NoteNumber":67,"Velocity":50,"Duration":375000,"SoundDuration":375000,"Delta":526887831},{"NoteNumber":72,"Velocity":61,"Duration":1153846,"SoundDuration":1153846,"Delta":527262831},{"NoteNumber":76,"Velocity":61,"Duration":1153846,"SoundDuration":1153846,"Delta":527262831},{"NoteNumber":79,"Velocity":61,"Duration":1153846,"SoundDuration":1153846,"Delta":527262831},{"NoteNumber":84,"Velocity":72,"Duration":1153846,"SoundDuration":1153846,"Delta":527262831},{"NoteNumber":60,"Velocity":49,"Duration":1153846,"SoundDuration":1153846,"Delta":527262831},{"NoteNumber":64,"Velocity":49,"Duration":1153846,"SoundDuration":1153846,"Delta":527262831},{"NoteNumber":67,"Velocity":58,"Duration":1153846,"SoundDuration":1153846,"Delta":527262831},{"NoteNumber":73,"Velocity":64,"Duration":467213,"SoundDuration":467213,"Delta":528416678},{"NoteNumber":79,"Velocity":75,"Duration":467213,"SoundDuration":467213,"Delta":528416678},{"NoteNumber":85,"Velocity":75,"Duration":467213,"SoundDuration":467213,"Delta":528416678},{"NoteNumber":76,"Velocity":64,"Duration":467213,"SoundDuration":467213,"Delta":528416678},{"NoteNumber":58,"Velocity":49,"Duration":467213,"SoundDuration":467213,"Delta":528416678},{"NoteNumber":64,"Velocity":49,"Duration":467213,"SoundDuration":467213,"Delta":528416678},{"NoteNumber":67,"Velocity":58,"Duration":467213,"SoundDuration":467213,"Delta":528416678},{"NoteNumber":73,"Velocity":72,"Duration":3200000,"SoundDuration":3200000,"Delta":528908481},{"NoteNumber":85,"Velocity":84,"Duration":3200000,"SoundDuration":3200000,"Delta":528908481},{"NoteNumber":76,"Velocity":72,"Duration":3200000,"SoundDuration":3200000,"Delta":528908481},{"NoteNumber":79,"Velocity":72,"Duration":3200000,"SoundDuration":3200000,"Delta":528908481},{"NoteNumber":56,"Velocity":60,"Duration":6399999,"SoundDuration":6399999,"Delta":528908481},{"NoteNumber":58,"Velocity":60,"Duration":3200000,"SoundDuration":3200000,"Delta":528908481},{"NoteNumber":64,"Velocity":60,"Duration":3200000,"SoundDuration":3200000,"Delta":528908481},{"NoteNumber":67,"Velocity":72,"Duration":3200000,"SoundDuration":3200000,"Delta":528908481},{"NoteNumber":72,"Velocity":52,"Duration":1599999,"SoundDuration":1599999,"Delta":532108481},{"NoteNumber":84,"Velocity":62,"Duration":1599999,"SoundDuration":1599999,"Delta":532108481},{"NoteNumber":60,"Velocity":46,"Duration":1599999,"SoundDuration":1599999,"Delta":532108481},{"NoteNumber":65,"Velocity":46,"Duration":1599999,"SoundDuration":1599999,"Delta":532108481},{"NoteNumber":68,"Velocity":55,"Duration":1599999,"SoundDuration":1599999,"Delta":532108481},{"NoteNumber":70,"Velocity":60,"Duration":1600000,"SoundDuration":1600000,"Delta":533708481},{"NoteNumber":82,"Velocity":60,"Duration":1600000,"SoundDuration":1600000,"Delta":533708481},{"NoteNumber":55,"Velocity":44,"Duration":1600000,"SoundDuration":1600000,"Delta":533708481},{"NoteNumber":60,"Velocity":44,"Duration":1600000,"SoundDuration":1600000,"Delta":533708481},{"NoteNumber":64,"Velocity":52,"Duration":1600000,"SoundDuration":1600000,"Delta":533708481},{"NoteNumber":68,"Velocity":41,"Duration":1600000,"SoundDuration":1600000,"Delta":535308481},{"NoteNumber":80,"Velocity":49,"Duration":1600000,"SoundDuration":1600000,"Delta":535308481},{"NoteNumber":53,"Velocity":35,"Duration":1600000,"SoundDuration":1600000,"Delta":535308481},{"NoteNumber":60,"Velocity":35,"Duration":1600000,"SoundDuration":1600000,"Delta":535308481},{"NoteNumber":65,"Velocity":42,"Duration":1600000,"SoundDuration":1600000,"Delta":535308481},{"NoteNumber":67,"Velocity":40,"Duration":1600000,"SoundDuration":1600000,"Delta":536908481},{"NoteNumber":79,"Velocity":48,"Duration":1600000,"SoundDuration":1600000,"Delta":536908481},{"NoteNumber":51,"Velocity":34,"Duration":1600000,"SoundDuration":1600000,"Delta":536908481},{"NoteNumber":55,"Velocity":34,"Duration":1600000,"SoundDuration":1600000,"Delta":536908481},{"NoteNumber":60,"Velocity":40,"Duration":1600000,"SoundDuration":1600000,"Delta":536908481},{"NoteNumber":65,"Velocity":39,"Duration":1600000,"SoundDuration":1600000,"Delta":538508481},{"NoteNumber":77,"Velocity":46,"Duration":1600000,"SoundDuration":1600000,"Delta":538508481},{"NoteNumber":50,"Velocity":32,"Duration":1600000,"SoundDuration":1600000,"Delta":538508481},{"NoteNumber":55,"Velocity":32,"Duration":1600000,"SoundDuration":1600000,"Delta":538508481},{"NoteNumber":59,"Velocity":38,"Duration":1600000,"SoundDuration":1600000,"Delta":538508481},{"NoteNumber":63,"Velocity":37,"Duration":1607511,"SoundDuration":1607511,"Delta":540108481},{"NoteNumber":75,"Velocity":44,"Duration":1607511,"SoundDuration":1607511,"Delta":540108481},{"NoteNumber":48,"Velocity":30,"Duration":1607511,"SoundDuration":1607511,"Delta":540108481},{"NoteNumber":55,"Velocity":30,"Duration":1607511,"SoundDuration":1607511,"Delta":540108481},{"NoteNumber":60,"Velocity":36,"Duration":1607511,"SoundDuration":1607511,"Delta":540108481},{"NoteNumber":53,"Velocity":34,"Duration":1722864,"SoundDuration":1722864,"Delta":541715993},{"NoteNumber":65,"Velocity":32,"Duration":1809478,"SoundDuration":1809478,"Delta":543438857},{"NoteNumber":68,"Velocity":32,"Duration":1809478,"SoundDuration":1809478,"Delta":543438857},{"NoteNumber":74,"Velocity":38,"Duration":1809478,"SoundDuration":1809478,"Delta":543438857},{"NoteNumber":31,"Velocity":30,"Duration":1875000,"SoundDuration":1875000,"Delta":545248335},{"NoteNumber":43,"Velocity":36,"Duration":1875000,"SoundDuration":1875000,"Delta":545248335},{"NoteNumber":50,"Velocity":29,"Duration":3428571,"SoundDuration":3428571,"Delta":547123335},{"NoteNumber":53,"Velocity":29,"Duration":3428571,"SoundDuration":3428571,"Delta":547123335},{"NoteNumber":59,"Velocity":35,"Duration":3428571,"SoundDuration":3428571,"Delta":547123335},{"NoteNumber":60,"Velocity":50,"Duration":602780,"SoundDuration":602780,"Delta":550551906},{"NoteNumber":36,"Velocity":44,"Duration":193732,"SoundDuration":193732,"Delta":550551906},{"NoteNumber":48,"Velocity":41,"Duration":101561,"SoundDuration":101561,"Delta":550654215},{"NoteNumber":36,"Velocity":44,"Duration":190907,"SoundDuration":190907,"Delta":550755776},{"NoteNumber":48,"Velocity":41,"Duration":100083,"SoundDuration":100083,"Delta":550856590},{"NoteNumber":36,"Velocity":44,"Duration":188165,"SoundDuration":188165,"Delta":550956673},{"NoteNumber":48,"Velocity":41,"Duration":98652,"SoundDuration":98652,"Delta":551056034},{"NoteNumber":58,"Velocity":52,"Duration":73503,"SoundDuration":73503,"Delta":551154686},{"NoteNumber":64,"Velocity":52,"Duration":73503,"SoundDuration":73503,"Delta":551154686},{"NoteNumber":36,"Velocity":45,"Duration":185637,"SoundDuration":185637,"Delta":551154686},{"NoteNumber":48,"Velocity":41,"Duration":97434,"SoundDuration":97434,"Delta":551252633},{"NoteNumber":56,"Velocity":54,"Duration":73075,"SoundDuration":73075,"Delta":551350067},{"NoteNumber":65,"Velocity":54,"Duration":73075,"SoundDuration":73075,"Delta":551350067},{"NoteNumber":36,"Velocity":45,"Duration":185125,"SoundDuration":185125,"Delta":551350067},{"NoteNumber":48,"Velocity":46,"Duration":97434,"SoundDuration":97434,"Delta":551447502},{"NoteNumber":64,"Velocity":56,"Duration":72115,"SoundDuration":72115,"Delta":551544936},{"NoteNumber":67,"Velocity":56,"Duration":72115,"SoundDuration":72115,"Delta":551544936},{"NoteNumber":36,"Velocity":47,"Duration":182692,"SoundDuration":182692,"Delta":551544936},{"NoteNumber":48,"Velocity":47,"Duration":96153,"SoundDuration":96153,"Delta":551641090},{"NoteNumber":65,"Velocity":57,"Duration":72115,"SoundDuration":72115,"Delta":551737243},{"NoteNumber":68,"Velocity":57,"Duration":72115,"SoundDuration":72115,"Delta":551737243},{"NoteNumber":36,"Velocity":49,"Duration":182692,"SoundDuration":182692,"Delta":551737243},{"NoteNumber":48,"Velocity":50,"Duration":96153,"SoundDuration":96153,"Delta":551833397},{"NoteNumber":62,"Velocity":59,"Duration":73289,"SoundDuration":73289,"Delta":551929551},{"NoteNumber":71,"Velocity":59,"Duration":73289,"SoundDuration":73289,"Delta":551929551},{"NoteNumber":36,"Velocity":51,"Duration":185667,"SoundDuration":185667,"Delta":551929551},{"NoteNumber":48,"Velocity":53,"Duration":97719,"SoundDuration":97719,"Delta":552027271},{"NoteNumber":63,"Velocity":61,"Duration":77736,"SoundDuration":77736,"Delta":552124990},{"NoteNumber":72,"Velocity":61,"Duration":77736,"SoundDuration":77736,"Delta":552124990},{"NoteNumber":36,"Velocity":55,"Duration":196932,"SoundDuration":196932,"Delta":552124990},{"NoteNumber":48,"Velocity":50,"Duration":103648,"SoundDuration":103648,"Delta":552228639},{"NoteNumber":64,"Velocity":55,"Duration":389736,"SoundDuration":389736,"Delta":552332287},{"NoteNumber":72,"Velocity":55,"Duration":389736,"SoundDuration":389736,"Delta":552332287},{"NoteNumber":36,"Velocity":53,"Duration":185125,"SoundDuration":185125,"Delta":552332287},{"NoteNumber":48,"Velocity":47,"Duration":97434,"SoundDuration":97434,"Delta":552429722},{"NoteNumber":36,"Velocity":53,"Duration":185125,"SoundDuration":185125,"Delta":552527156},{"NoteNumber":48,"Velocity":47,"Duration":97434,"SoundDuration":97434,"Delta":552624590},{"NoteNumber":70,"Velocity":51,"Duration":73075,"SoundDuration":73075,"Delta":552722024},{"NoteNumber":76,"Velocity":51,"Duration":73075,"SoundDuration":73075,"Delta":552722024},{"NoteNumber":36,"Velocity":44,"Duration":185125,"SoundDuration":185125,"Delta":552722024},{"NoteNumber":48,"Velocity":40,"Duration":97434,"SoundDuration":97434,"Delta":552819459},{"NoteNumber":68,"Velocity":50,"Duration":73075,"SoundDuration":73075,"Delta":552916893},{"NoteNumber":77,"Velocity":50,"Duration":73075,"SoundDuration":73075,"Delta":552916893},{"NoteNumber":36,"Velocity":40,"Duration":185125,"SoundDuration":185125,"Delta":552916893},{"NoteNumber":48,"Velocity":43,"Duration":97434,"SoundDuration":97434,"Delta":553014327},{"NoteNumber":76,"Velocity":53,"Duration":72347,"SoundDuration":72347,"Delta":553111761},{"NoteNumber":79,"Velocity":53,"Duration":72347,"SoundDuration":72347,"Delta":553111761},{"NoteNumber":36,"Velocity":44,"Duration":183279,"SoundDuration":183279,"Delta":553111761},{"NoteNumber":48,"Velocity":46,"Duration":96463,"SoundDuration":96463,"Delta":553208224},{"NoteNumber":77,"Velocity":57,"Duration":72347,"SoundDuration":72347,"Delta":553304687},{"NoteNumber":80,"Velocity":57,"Duration":72347,"SoundDuration":72347,"Delta":553304687},{"NoteNumber":36,"Velocity":48,"Duration":183279,"SoundDuration":183279,"Delta":553304687},{"NoteNumber":48,"Velocity":50,"Duration":96462,"SoundDuration":96462,"Delta":553401150},{"NoteNumber":74,"Velocity":60,"Duration":72347,"SoundDuration":72347,"Delta":553497613},{"NoteNumber":83,"Velocity":60,"Duration":72347,"SoundDuration":72347,"Delta":553497613},{"NoteNumber":36,"Velocity":52,"Duration":183279,"SoundDuration":183279,"Delta":553497613},{"NoteNumber":48,"Velocity":54,"Duration":96463,"SoundDuration":96463,"Delta":553594076},{"NoteNumber":75,"Velocity":58,"Duration":394617,"SoundDuration":394617,"Delta":553690539},{"NoteNumber":84,"Velocity":70,"Duration":394617,"SoundDuration":394617,"Delta":553690539},{"NoteNumber":36,"Velocity":63,"Duration":188442,"SoundDuration":188442,"Delta":553690539},{"NoteNumber":48,"Velocity":57,"Duration":99179,"SoundDuration":99179,"Delta":553789719},{"NoteNumber":36,"Velocity":62,"Duration":186445,"SoundDuration":186445,"Delta":553888899},{"NoteNumber":48,"Velocity":56,"Duration":98128,"SoundDuration":98128,"Delta":553987028},{"NoteNumber":72,"Velocity":64,"Duration":398251,"SoundDuration":398251,"Delta":554085157},{"NoteNumber":75,"Velocity":75,"Duration":398251,"SoundDuration":398251,"Delta":554085157},{"NoteNumber":84,"Velocity":75,"Duration":398251,"SoundDuration":398251,"Delta":554085157},{"NoteNumber":34,"Velocity":66,"Duration":186445,"SoundDuration":186445,"Delta":554085157},{"NoteNumber":46,"Velocity":61,"Duration":98128,"SoundDuration":98128,"Delta":554183286},{"NoteNumber":34,"Velocity":68,"Duration":191893,"SoundDuration":191893,"Delta":554281415},{"NoteNumber":46,"Velocity":64,"Duration":100996,"SoundDuration":100996,"Delta":554382412},{"NoteNumber":72,"Velocity":72,"Duration":395205,"SoundDuration":395205,"Delta":554483408},{"NoteNumber":75,"Velocity":72,"Duration":395205,"SoundDuration":395205,"Delta":554483408},{"NoteNumber":84,"Velocity":86,"Duration":395205,"SoundDuration":395205,"Delta":554483408},{"NoteNumber":32,"Velocity":70,"Duration":187722,"SoundDuration":187722,"Delta":554483408},{"NoteNumber":44,"Velocity":72,"Duration":98801,"SoundDuration":98801,"Delta":554582210},{"NoteNumber":32,"Velocity":73,"Duration":187722,"SoundDuration":187722,"Delta":554681011},{"NoteNumber":44,"Velocity":74,"Duration":98801,"SoundDuration":98801,"Delta":554779812},{"NoteNumber":72,"Velocity":81,"Duration":398621,"SoundDuration":398621,"Delta":554878613},{"NoteNumber":75,"Velocity":81,"Duration":398621,"SoundDuration":398621,"Delta":554878613},{"NoteNumber":84,"Velocity":97,"Duration":398621,"SoundDuration":398621,"Delta":554878613},{"NoteNumber":31,"Velocity":75,"Duration":187722,"SoundDuration":187722,"Delta":554878613},{"NoteNumber":43,"Velocity":73,"Duration":98801,"SoundDuration":98801,"Delta":554977415},{"NoteNumber":31,"Velocity":76,"Duration":190967,"SoundDuration":190967,"Delta":555076216},{"NoteNumber":43,"Velocity":78,"Duration":100509,"SoundDuration":100509,"Delta":555176725},{"NoteNumber":75,"Velocity":99,"Duration":204778,"SoundDuration":204778,"Delta":555277234},{"NoteNumber":81,"Velocity":99,"Duration":204778,"SoundDuration":204778,"Delta":555277234},{"NoteNumber":84,"Velocity":99,"Duration":204778,"SoundDuration":204778,"Delta":555277234},{"NoteNumber":87,"Velocity":103,"Duration":204778,"SoundDuration":204778,"Delta":555277234},{"NoteNumber":30,"Velocity":93,"Duration":204778,"SoundDuration":204778,"Delta":555277234},{"NoteNumber":42,"Velocity":93,"Duration":204778,"SoundDuration":204778,"Delta":555277234},{"NoteNumber":66,"Velocity":79,"Duration":202019,"SoundDuration":202019,"Delta":556096346},{"NoteNumber":69,"Velocity":79,"Duration":202019,"SoundDuration":202019,"Delta":556096346},{"NoteNumber":72,"Velocity":94,"Duration":202019,"SoundDuration":202019,"Delta":556096346},{"NoteNumber":75,"Velocity":94,"Duration":202019,"SoundDuration":202019,"Delta":556096346},{"NoteNumber":57,"Velocity":79,"Duration":202019,"SoundDuration":202019,"Delta":556096346},{"NoteNumber":63,"Velocity":93,"Duration":202019,"SoundDuration":202019,"Delta":556096346},{"NoteNumber":60,"Velocity":93,"Duration":202019,"SoundDuration":202019,"Delta":556096346},{"NoteNumber":54,"Velocity":79,"Duration":202019,"SoundDuration":202019,"Delta":556096346},{"NoteNumber":75,"Velocity":94,"Duration":209059,"SoundDuration":209059,"Delta":556904426},{"NoteNumber":67,"Velocity":79,"Duration":209059,"SoundDuration":209059,"Delta":556904426},{"NoteNumber":72,"Velocity":79,"Duration":209059,"SoundDuration":209059,"Delta":556904426},{"NoteNumber":79,"Velocity":94,"Duration":209059,"SoundDuration":209059,"Delta":556904426},{"NoteNumber":60,"Velocity":93,"Duration":209059,"SoundDuration":209059,"Delta":556904426},{"NoteNumber":55,"Velocity":79,"Duration":209059,"SoundDuration":209059,"Delta":556904426},{"NoteNumber":63,"Velocity":93,"Duration":209059,"SoundDuration":209059,"Delta":556904426},{"NoteNumber":50,"Velocity":86,"Duration":222221,"SoundDuration":222221,"Delta":557740662},{"NoteNumber":55,"Velocity":103,"Duration":222221,"SoundDuration":222221,"Delta":557740662},{"NoteNumber":59,"Velocity":103,"Duration":222221,"SoundDuration":222221,"Delta":557740662},{"NoteNumber":53,"Velocity":86,"Duration":222221,"SoundDuration":222221,"Delta":557740662},{"NoteNumber":43,"Velocity":89,"Duration":222221,"SoundDuration":222221,"Delta":557740662},{"NoteNumber":38,"Velocity":74,"Duration":222221,"SoundDuration":222221,"Delta":557740662},{"NoteNumber":31,"Velocity":74,"Duration":222221,"SoundDuration":222221,"Delta":557740662},{"NoteNumber":35,"Velocity":74,"Duration":222221,"SoundDuration":222221,"Delta":557740662},{"NoteNumber":55,"Velocity":103,"Duration":222222,"SoundDuration":222222,"Delta":558629550},{"NoteNumber":60,"Velocity":103,"Duration":222222,"SoundDuration":222222,"Delta":558629550},{"NoteNumber":51,"Velocity":86,"Duration":222222,"SoundDuration":222222,"Delta":558629550},{"NoteNumber":48,"Velocity":89,"Duration":222222,"SoundDuration":222222,"Delta":558629550},{"NoteNumber":36,"Velocity":74,"Duration":222222,"SoundDuration":222222,"Delta":558629550},{"NoteNumber":39,"Velocity":74,"Duration":222222,"SoundDuration":222222,"Delta":558629550},{"NoteNumber":43,"Velocity":74,"Duration":222222,"SoundDuration":222222,"Delta":558629550}],"license":{"name":"Creative Commons Attribution-ShareAlike 3.0 Germany","url":"http://creativecommons.org/licenses/by-sa/3.0/de/deed.en","text":"The MIDI files in this folder were downloaded from http://www.piano-midi.de and are licensed under the Creative Commons Attribution-ShareAlike 3.0 Germany license by Bernd Krueger.\n\nThe MIDI, audio(MP3, OGG) and video files of Bernd Krueger are licensed under the cc-by-sa Germany License . This means, that you can use and adapt the files, as long as you attribute to the copyright holder Name: Bernd Krueger Source: http://www.piano-midi.de The distribution or public playback of the files is only allowed under identical license conditions . The scores are open source.","attribution":"Bernd Krueger","attributionUrl":"http://www.piano-midi.de"}}