{"title":"Sonate Opus 10 No. 1 3. Satz","artist":"Beethoven","durationMs":216535,"midiSha256":"5fc274a7cdcfa3991d54b4ec9f756a86353ccc6bc47e2d530db010be23236353","midiObject":[{"NoteNumber":60,"Velocity":40,"Duration":147420,"SoundDuration":147420,"Delta":0},{"NoteNumber":48,"Velocity":36,"Duration":147420,"SoundDuration":147420,"Delta":0},{"NoteNumber":59,"Velocity":45,"Duration":147420,"SoundDuration":147420,"Delta":147420},{"NoteNumber":47,"Velocity":38,"Duration":147420,"SoundDuration":147420,"Delta":147420},{"NoteNumber":60,"Velocity":40,"Duration":147420,"SoundDuration":147420,"Delta":294840},{"NoteNumber":48,"Velocity":35,"Duration":147420,"SoundDuration":147420,"Delta":294840},{"NoteNumber":65,"Velocity":45,"Duration":71598,"SoundDuration":71598,"Delta":442260},{"NoteNumber":53,"Velocity":38,"Duration":71598,"SoundDuration":71598,"Delta":442260},{"NoteNumber":65,"Velocity":38,"Duration":87463,"SoundDuration":87463,"Delta":585457},{"NoteNumber":53,"Velocity":34,"Duration":87463,"SoundDuration":87463,"Delta":585457},{"NoteNumber":63,"Velocity":45,"Duration":291261,"SoundDuration":291261,"Delta":760385},{"NoteNumber":51,"Velocity":38,"Duration":291261,"SoundDuration":291261,"Delta":760385},{"NoteNumber":60,"Velocity":40,"Duration":147419,"SoundDuration":147419,"Delta":1197278},{"NoteNumber":48,"Velocity":36,"Duration":147419,"SoundDuration":147419,"Delta":1197278},{"NoteNumber":59,"Velocity":45,"Duration":147420,"SoundDuration":147420,"Delta":1344697},{"NoteNumber":47,"Velocity":38,"Duration":147420,"SoundDuration":147420,"Delta":1344697},{"NoteNumber":60,"Velocity":40,"Duration":147420,"SoundDuration":147420,"Delta":1492118},{"NoteNumber":48,"Velocity":35,"Duration":147420,"SoundDuration":147420,"Delta":1492118},{"NoteNumber":68,"Velocity":45,"Duration":71770,"SoundDuration":71770,"Delta":1639538},{"NoteNumber":56,"Velocity":38,"Duration":71770,"SoundDuration":71770,"Delta":1639538},{"NoteNumber":68,"Velocity":38,"Duration":87719,"SoundDuration":87719,"Delta":1783078},{"NoteNumber":56,"Velocity":34,"Duration":87719,"SoundDuration":87719,"Delta":1783078},{"NoteNumber":67,"Velocity":45,"Duration":291262,"SoundDuration":291262,"Delta":1958516},{"NoteNumber":55,"Velocity":38,"Duration":291262,"SoundDuration":291262,"Delta":1958516},{"NoteNumber":60,"Velocity":40,"Duration":147419,"SoundDuration":147419,"Delta":2395409},{"NoteNumber":59,"Velocity":45,"Duration":147420,"SoundDuration":147420,"Delta":2542829},{"NoteNumber":60,"Velocity":40,"Duration":147419,"SoundDuration":147419,"Delta":2690250},{"NoteNumber":72,"Velocity":45,"Duration":73170,"SoundDuration":73170,"Delta":2837670},{"NoteNumber":72,"Velocity":38,"Duration":86455,"SoundDuration":86455,"Delta":2984011},{"NoteNumber":72,"Velocity":45,"Duration":146699,"SoundDuration":146699,"Delta":3156922},{"NoteNumber":56,"Velocity":38,"Duration":1202178,"SoundDuration":1202178,"Delta":3156922},{"NoteNumber":60,"Velocity":38,"Duration":1202178,"SoundDuration":1202178,"Delta":3156922},{"NoteNumber":66,"Velocity":38,"Duration":1202178,"SoundDuration":1202178,"Delta":3156922},{"NoteNumber":74,"Velocity":45,"Duration":36674,"SoundDuration":36674,"Delta":3303621},{"NoteNumber":72,"Velocity":45,"Duration":36674,"SoundDuration":36674,"Delta":3340296},{"NoteNumber":71,"Velocity":40,"Duration":36674,"SoundDuration":36674,"Delta":3376971},{"NoteNumber":72,"Velocity":45,"Duration":36674,"SoundDuration":36674,"Delta":3413646},{"NoteNumber":75,"Velocity":50,"Duration":146699,"SoundDuration":146699,"Delta":3450321},{"NoteNumber":74,"Velocity":45,"Duration":153563,"SoundDuration":153563,"Delta":3597020},{"NoteNumber":77,"Velocity":56,"Duration":146341,"SoundDuration":146341,"Delta":3750584},{"NoteNumber":75,"Velocity":53,"Duration":146341,"SoundDuration":146341,"Delta":3896925},{"NoteNumber":74,"Velocity":50,"Duration":146341,"SoundDuration":146341,"Delta":4043267},{"NoteNumber":72,"Velocity":47,"Duration":169491,"SoundDuration":169491,"Delta":4189608},{"NoteNumber":71,"Velocity":51,"Duration":291261,"SoundDuration":291261,"Delta":4359100},{"NoteNumber":67,"Velocity":38,"Duration":291261,"SoundDuration":291261,"Delta":4359100},{"NoteNumber":62,"Velocity":32,"Duration":291261,"SoundDuration":291261,"Delta":4359100},{"NoteNumber":55,"Velocity":32,"Duration":291261,"SoundDuration":291261,"Delta":4359100},{"NoteNumber":55,"Velocity":40,"Duration":145631,"SoundDuration":145631,"Delta":4795993},{"NoteNumber":43,"Velocity":36,"Duration":145631,"SoundDuration":145631,"Delta":4795993},{"NoteNumber":54,"Velocity":45,"Duration":146341,"SoundDuration":146341,"Delta":4941624},{"NoteNumber":42,"Velocity":38,"Duration":146341,"SoundDuration":146341,"Delta":4941624},{"NoteNumber":55,"Velocity":40,"Duration":146341,"SoundDuration":146341,"Delta":5087965},{"NoteNumber":43,"Velocity":35,"Duration":146341,"SoundDuration":146341,"Delta":5087965},{"NoteNumber":60,"Velocity":45,"Duration":73170,"SoundDuration":73170,"Delta":5234307},{"NoteNumber":48,"Velocity":38,"Duration":73170,"SoundDuration":73170,"Delta":5234307},{"NoteNumber":60,"Velocity":38,"Duration":84745,"SoundDuration":84745,"Delta":5380648},{"NoteNumber":48,"Velocity":34,"Duration":84745,"SoundDuration":84745,"Delta":5380648},{"NoteNumber":59,"Velocity":45,"Duration":291971,"SoundDuration":291971,"Delta":5550140},{"NoteNumber":47,"Velocity":38,"Duration":291971,"SoundDuration":291971,"Delta":5550140},{"NoteNumber":55,"Velocity":40,"Duration":145985,"SoundDuration":145985,"Delta":5988096},{"NoteNumber":43,"Velocity":36,"Duration":145985,"SoundDuration":145985,"Delta":5988096},{"NoteNumber":54,"Velocity":45,"Duration":147420,"SoundDuration":147420,"Delta":6134082},{"NoteNumber":42,"Velocity":38,"Duration":147420,"SoundDuration":147420,"Delta":6134082},{"NoteNumber":55,"Velocity":40,"Duration":147419,"SoundDuration":147419,"Delta":6281502},{"NoteNumber":43,"Velocity":35,"Duration":147419,"SoundDuration":147419,"Delta":6281502},{"NoteNumber":63,"Velocity":45,"Duration":73170,"SoundDuration":73170,"Delta":6428922},{"NoteNumber":51,"Velocity":38,"Duration":73170,"SoundDuration":73170,"Delta":6428922},{"NoteNumber":63,"Velocity":38,"Duration":85714,"SoundDuration":85714,"Delta":6575263},{"NoteNumber":51,"Velocity":34,"Duration":85714,"SoundDuration":85714,"Delta":6575263},{"NoteNumber":62,"Velocity":45,"Duration":296295,"SoundDuration":296295,"Delta":6746692},{"NoteNumber":50,"Velocity":38,"Duration":296295,"SoundDuration":296295,"Delta":6746692},{"NoteNumber":55,"Velocity":45,"Duration":74074,"SoundDuration":74074,"Delta":7191136},{"NoteNumber":43,"Velocity":37,"Duration":74074,"SoundDuration":74074,"Delta":7191136},{"NoteNumber":59,"Velocity":51,"Duration":73170,"SoundDuration":73170,"Delta":7339284},{"NoteNumber":47,"Velocity":43,"Duration":73170,"SoundDuration":73170,"Delta":7339284},{"NoteNumber":62,"Velocity":45,"Duration":73170,"SoundDuration":73170,"Delta":7485625},{"NoteNumber":50,"Velocity":37,"Duration":73170,"SoundDuration":73170,"Delta":7485625},{"NoteNumber":65,"Velocity":45,"Duration":73170,"SoundDuration":73170,"Delta":7631967},{"NoteNumber":53,"Velocity":37,"Duration":73170,"SoundDuration":73170,"Delta":7631967},{"NoteNumber":68,"Velocity":45,"Duration":73170,"SoundDuration":73170,"Delta":7778308},{"NoteNumber":56,"Velocity":37,"Duration":73170,"SoundDuration":73170,"Delta":7778308},{"NoteNumber":71,"Velocity":55,"Duration":73170,"SoundDuration":73170,"Delta":7924650},{"NoteNumber":59,"Velocity":46,"Duration":73170,"SoundDuration":73170,"Delta":7924650},{"NoteNumber":74,"Velocity":53,"Duration":73170,"SoundDuration":73170,"Delta":8070991},{"NoteNumber":62,"Velocity":45,"Duration":73170,"SoundDuration":73170,"Delta":8070991},{"NoteNumber":77,"Velocity":56,"Duration":73170,"SoundDuration":73170,"Delta":8217333},{"NoteNumber":65,"Velocity":47,"Duration":73170,"SoundDuration":73170,"Delta":8217333},{"NoteNumber":80,"Velocity":60,"Duration":76142,"SoundDuration":76142,"Delta":8363674},{"NoteNumber":68,"Velocity":50,"Duration":76142,"SoundDuration":76142,"Delta":8363674},{"NoteNumber":79,"Velocity":63,"Duration":73710,"SoundDuration":73710,"Delta":8515959},{"NoteNumber":67,"Velocity":53,"Duration":73710,"SoundDuration":73710,"Delta":8515959},{"NoteNumber":77,"Velocity":59,"Duration":73710,"SoundDuration":73710,"Delta":8663379},{"NoteNumber":65,"Velocity":50,"Duration":73710,"SoundDuration":73710,"Delta":8663379},{"NoteNumber":75,"Velocity":55,"Duration":73710,"SoundDuration":73710,"Delta":8810799},{"NoteNumber":63,"Velocity":46,"Duration":73710,"SoundDuration":73710,"Delta":8810799},{"NoteNumber":74,"Velocity":54,"Duration":84507,"SoundDuration":84507,"Delta":8958219},{"NoteNumber":62,"Velocity":45,"Duration":84507,"SoundDuration":84507,"Delta":8958219},{"NoteNumber":72,"Velocity":62,"Duration":293399,"SoundDuration":293399,"Delta":9127233},{"NoteNumber":60,"Velocity":42,"Duration":73349,"SoundDuration":73349,"Delta":9127233},{"NoteNumber":63,"Velocity":32,"Duration":73349,"SoundDuration":73349,"Delta":9273932},{"NoteNumber":67,"Velocity":38,"Duration":73349,"SoundDuration":73349,"Delta":9273932},{"NoteNumber":63,"Velocity":32,"Duration":73349,"SoundDuration":73349,"Delta":9420632},{"NoteNumber":67,"Velocity":38,"Duration":73349,"SoundDuration":73349,"Delta":9420632},{"NoteNumber":72,"Velocity":50,"Duration":146699,"SoundDuration":146699,"Delta":9567331},{"NoteNumber":63,"Velocity":32,"Duration":73349,"SoundDuration":73349,"Delta":9567331},{"NoteNumber":67,"Velocity":38,"Duration":73349,"SoundDuration":73349,"Delta":9567331},{"NoteNumber":71,"Velocity":57,"Duration":147783,"SoundDuration":147783,"Delta":9714031},{"NoteNumber":60,"Velocity":42,"Duration":73891,"SoundDuration":73891,"Delta":9714031},{"NoteNumber":72,"Velocity":53,"Duration":147783,"SoundDuration":147783,"Delta":9861814},{"NoteNumber":64,"Velocity":31,"Duration":73891,"SoundDuration":73891,"Delta":9861814},{"NoteNumber":67,"Velocity":31,"Duration":73891,"SoundDuration":73891,"Delta":9861814},{"NoteNumber":70,"Velocity":37,"Duration":73891,"SoundDuration":73891,"Delta":9861814},{"NoteNumber":84,"Velocity":60,"Duration":73170,"SoundDuration":73170,"Delta":10009598},{"NoteNumber":64,"Velocity":31,"Duration":73170,"SoundDuration":73170,"Delta":10009598},{"NoteNumber":67,"Velocity":31,"Duration":73170,"SoundDuration":73170,"Delta":10009598},{"NoteNumber":70,"Velocity":37,"Duration":73170,"SoundDuration":73170,"Delta":10009598},{"NoteNumber":84,"Velocity":52,"Duration":84269,"SoundDuration":84269,"Delta":10155939},{"NoteNumber":64,"Velocity":31,"Duration":84269,"SoundDuration":84269,"Delta":10155939},{"NoteNumber":67,"Velocity":31,"Duration":84269,"SoundDuration":84269,"Delta":10155939},{"NoteNumber":70,"Velocity":37,"Duration":84269,"SoundDuration":84269,"Delta":10155939},{"NoteNumber":84,"Velocity":60,"Duration":293041,"SoundDuration":293041,"Delta":10324479},{"NoteNumber":60,"Velocity":42,"Duration":73529,"SoundDuration":73529,"Delta":10324479},{"NoteNumber":65,"Velocity":32,"Duration":73170,"SoundDuration":73170,"Delta":10471179},{"NoteNumber":68,"Velocity":38,"Duration":73170,"SoundDuration":73170,"Delta":10471179},{"NoteNumber":65,"Velocity":32,"Duration":73170,"SoundDuration":73170,"Delta":10617521},{"NoteNumber":68,"Velocity":38,"Duration":73170,"SoundDuration":73170,"Delta":10617521},{"NoteNumber":89,"Velocity":59,"Duration":146341,"SoundDuration":146341,"Delta":10763862},{"NoteNumber":65,"Velocity":32,"Duration":73170,"SoundDuration":73170,"Delta":10763862},{"NoteNumber":68,"Velocity":38,"Duration":73170,"SoundDuration":73170,"Delta":10763862},{"NoteNumber":87,"Velocity":65,"Duration":146341,"SoundDuration":146341,"Delta":10910204},{"NoteNumber":60,"Velocity":42,"Duration":73170,"SoundDuration":73170,"Delta":10910204},{"NoteNumber":86,"Velocity":60,"Duration":146341,"SoundDuration":146341,"Delta":11056545},{"NoteNumber":65,"Velocity":31,"Duration":73170,"SoundDuration":73170,"Delta":11056545},{"NoteNumber":68,"Velocity":31,"Duration":73170,"SoundDuration":73170,"Delta":11056545},{"NoteNumber":71,"Velocity":37,"Duration":73170,"SoundDuration":73170,"Delta":11056545},{"NoteNumber":84,"Velocity":66,"Duration":146341,"SoundDuration":146341,"Delta":11202887},{"NoteNumber":65,"Velocity":31,"Duration":73170,"SoundDuration":73170,"Delta":11202887},{"NoteNumber":68,"Velocity":31,"Duration":73170,"SoundDuration":73170,"Delta":11202887},{"NoteNumber":71,"Velocity":37,"Duration":73170,"SoundDuration":73170,"Delta":11202887},{"NoteNumber":83,"Velocity":60,"Duration":157480,"SoundDuration":157480,"Delta":11349228},{"NoteNumber":65,"Velocity":31,"Duration":78740,"SoundDuration":78740,"Delta":11349228},{"NoteNumber":68,"Velocity":31,"Duration":78740,"SoundDuration":78740,"Delta":11349228},{"NoteNumber":71,"Velocity":37,"Duration":78740,"SoundDuration":78740,"Delta":11349228},{"NoteNumber":86,"Velocity":69,"Duration":145630,"SoundDuration":145630,"Delta":11506709},{"NoteNumber":60,"Velocity":42,"Duration":72815,"SoundDuration":72815,"Delta":11506709},{"NoteNumber":84,"Velocity":60,"Duration":145630,"SoundDuration":145630,"Delta":11652340},{"NoteNumber":63,"Velocity":32,"Duration":72815,"SoundDuration":72815,"Delta":11652340},{"NoteNumber":67,"Velocity":38,"Duration":72815,"SoundDuration":72815,"Delta":11652340},{"NoteNumber":63,"Velocity":32,"Duration":72815,"SoundDuration":72815,"Delta":11797971},{"NoteNumber":67,"Velocity":38,"Duration":72815,"SoundDuration":72815,"Delta":11797971},{"NoteNumber":72,"Velocity":50,"Duration":145630,"SoundDuration":145630,"Delta":11943602},{"NoteNumber":63,"Velocity":32,"Duration":72815,"SoundDuration":72815,"Delta":11943602},{"NoteNumber":67,"Velocity":38,"Duration":72815,"SoundDuration":72815,"Delta":11943602},{"NoteNumber":71,"Velocity":57,"Duration":147420,"SoundDuration":147420,"Delta":12089233},{"NoteNumber":60,"Velocity":42,"Duration":73710,"SoundDuration":73710,"Delta":12089233},{"NoteNumber":72,"Velocity":53,"Duration":147420,"SoundDuration":147420,"Delta":12236653},{"NoteNumber":64,"Velocity":31,"Duration":73710,"SoundDuration":73710,"Delta":12236653},{"NoteNumber":67,"Velocity":31,"Duration":73710,"SoundDuration":73710,"Delta":12236653},{"NoteNumber":70,"Velocity":37,"Duration":73710,"SoundDuration":73710,"Delta":12236653},{"NoteNumber":84,"Velocity":60,"Duration":73170,"SoundDuration":73170,"Delta":12384073},{"NoteNumber":64,"Velocity":31,"Duration":73170,"SoundDuration":73170,"Delta":12384073},{"NoteNumber":67,"Velocity":31,"Duration":73170,"SoundDuration":73170,"Delta":12384073},{"NoteNumber":70,"Velocity":37,"Duration":73170,"SoundDuration":73170,"Delta":12384073},{"NoteNumber":84,"Velocity":52,"Duration":84507,"SoundDuration":84507,"Delta":12530414},{"NoteNumber":64,"Velocity":31,"Duration":84507,"SoundDuration":84507,"Delta":12530414},{"NoteNumber":67,"Velocity":31,"Duration":84507,"SoundDuration":84507,"Delta":12530414},{"NoteNumber":70,"Velocity":37,"Duration":84507,"SoundDuration":84507,"Delta":12530414},{"NoteNumber":84,"Velocity":60,"Duration":292683,"SoundDuration":292683,"Delta":12699428},{"NoteNumber":60,"Velocity":42,"Duration":73170,"SoundDuration":73170,"Delta":12699428},{"NoteNumber":65,"Velocity":32,"Duration":73170,"SoundDuration":73170,"Delta":12845770},{"NoteNumber":68,"Velocity":38,"Duration":73170,"SoundDuration":73170,"Delta":12845770},{"NoteNumber":86,"Velocity":60,"Duration":38168,"SoundDuration":38168,"Delta":12992111},{"NoteNumber":65,"Velocity":32,"Duration":76335,"SoundDuration":76335,"Delta":12992111},{"NoteNumber":68,"Velocity":38,"Duration":76335,"SoundDuration":76335,"Delta":12992111},{"NoteNumber":84,"Velocity":60,"Duration":38167,"SoundDuration":38167,"Delta":13030279},{"NoteNumber":83,"Velocity":60,"Duration":38168,"SoundDuration":38168,"Delta":13068447},{"NoteNumber":84,"Velocity":60,"Duration":38168,"SoundDuration":38168,"Delta":13106615},{"NoteNumber":89,"Velocity":59,"Duration":146341,"SoundDuration":146341,"Delta":13144783},{"NoteNumber":65,"Velocity":32,"Duration":73170,"SoundDuration":73170,"Delta":13144783},{"NoteNumber":68,"Velocity":38,"Duration":73170,"SoundDuration":73170,"Delta":13144783},{"NoteNumber":87,"Velocity":65,"Duration":145985,"SoundDuration":145985,"Delta":13291125},{"NoteNumber":60,"Velocity":42,"Duration":72992,"SoundDuration":72992,"Delta":13291125},{"NoteNumber":86,"Velocity":60,"Duration":145985,"SoundDuration":145985,"Delta":13437110},{"NoteNumber":65,"Velocity":31,"Duration":72992,"SoundDuration":72992,"Delta":13437110},{"NoteNumber":68,"Velocity":31,"Duration":72992,"SoundDuration":72992,"Delta":13437110},{"NoteNumber":71,"Velocity":37,"Duration":72992,"SoundDuration":72992,"Delta":13437110},{"NoteNumber":84,"Velocity":66,"Duration":145985,"SoundDuration":145985,"Delta":13583096},{"NoteNumber":65,"Velocity":31,"Duration":72992,"SoundDuration":72992,"Delta":13583096},{"NoteNumber":68,"Velocity":31,"Duration":72992,"SoundDuration":72992,"Delta":13583096},{"NoteNumber":71,"Velocity":37,"Duration":72992,"SoundDuration":72992,"Delta":13583096},{"NoteNumber":83,"Velocity":60,"Duration":156658,"SoundDuration":156658,"Delta":13729081},{"NoteNumber":65,"Velocity":31,"Duration":78329,"SoundDuration":78329,"Delta":13729081},{"NoteNumber":68,"Velocity":31,"Duration":78329,"SoundDuration":78329,"Delta":13729081},{"NoteNumber":71,"Velocity":37,"Duration":78329,"SoundDuration":78329,"Delta":13729081},{"NoteNumber":84,"Velocity":69,"Duration":73349,"SoundDuration":73349,"Delta":13885739},{"NoteNumber":60,"Velocity":36,"Duration":293399,"SoundDuration":293399,"Delta":13885739},{"NoteNumber":63,"Velocity":36,"Duration":293399,"SoundDuration":293399,"Delta":13885739},{"NoteNumber":67,"Velocity":36,"Duration":293399,"SoundDuration":293399,"Delta":13885739},{"NoteNumber":72,"Velocity":44,"Duration":293398,"SoundDuration":293398,"Delta":13890018},{"NoteNumber":86,"Velocity":63,"Duration":73349,"SoundDuration":73349,"Delta":13959089},{"NoteNumber":84,"Velocity":63,"Duration":73349,"SoundDuration":73349,"Delta":14032439},{"NoteNumber":83,"Velocity":63,"Duration":73349,"SoundDuration":73349,"Delta":14105788},{"NoteNumber":84,"Velocity":69,"Duration":73349,"SoundDuration":73349,"Delta":14179138},{"NoteNumber":87,"Velocity":73,"Duration":73349,"SoundDuration":73349,"Delta":14252488},{"NoteNumber":86,"Velocity":72,"Duration":73349,"SoundDuration":73349,"Delta":14325838},{"NoteNumber":66,"Velocity":42,"Duration":165092,"SoundDuration":165092,"Delta":14325838},{"NoteNumber":84,"Velocity":71,"Duration":91742,"SoundDuration":91742,"Delta":14399187},{"NoteNumber":83,"Velocity":72,"Duration":73170,"SoundDuration":73170,"Delta":14490930},{"NoteNumber":67,"Velocity":52,"Duration":292683,"SoundDuration":292683,"Delta":14490930},{"NoteNumber":84,"Velocity":65,"Duration":73170,"SoundDuration":73170,"Delta":14564101},{"NoteNumber":83,"Velocity":65,"Duration":73170,"SoundDuration":73170,"Delta":14637272},{"NoteNumber":80,"Velocity":65,"Duration":73170,"SoundDuration":73170,"Delta":14710443},{"NoteNumber":79,"Velocity":69,"Duration":73170,"SoundDuration":73170,"Delta":14783613},{"NoteNumber":77,"Velocity":63,"Duration":73170,"SoundDuration":73170,"Delta":14856784},{"NoteNumber":75,"Velocity":63,"Duration":73170,"SoundDuration":73170,"Delta":14929955},{"NoteNumber":59,"Velocity":48,"Duration":164913,"SoundDuration":164913,"Delta":14929955},{"NoteNumber":74,"Velocity":63,"Duration":91742,"SoundDuration":91742,"Delta":15003126},{"NoteNumber":72,"Velocity":69,"Duration":73349,"SoundDuration":73349,"Delta":15094869},{"NoteNumber":60,"Velocity":57,"Duration":293399,"SoundDuration":293399,"Delta":15094869},{"NoteNumber":74,"Velocity":63,"Duration":73349,"SoundDuration":73349,"Delta":15168218},{"NoteNumber":72,"Velocity":63,"Duration":73349,"SoundDuration":73349,"Delta":15241568},{"NoteNumber":71,"Velocity":61,"Duration":73349,"SoundDuration":73349,"Delta":15314918},{"NoteNumber":72,"Velocity":66,"Duration":73349,"SoundDuration":73349,"Delta":15388268},{"NoteNumber":75,"Velocity":72,"Duration":73349,"SoundDuration":73349,"Delta":15461617},{"NoteNumber":74,"Velocity":70,"Duration":73349,"SoundDuration":73349,"Delta":15534967},{"NoteNumber":54,"Velocity":54,"Duration":165374,"SoundDuration":165374,"Delta":15534967},{"NoteNumber":72,"Velocity":67,"Duration":92024,"SoundDuration":92024,"Delta":15608317},{"NoteNumber":71,"Velocity":69,"Duration":73170,"SoundDuration":73170,"Delta":15700341},{"NoteNumber":55,"Velocity":63,"Duration":292683,"SoundDuration":292683,"Delta":15700341},{"NoteNumber":72,"Velocity":63,"Duration":73170,"SoundDuration":73170,"Delta":15773512},{"NoteNumber":71,"Velocity":63,"Duration":73170,"SoundDuration":73170,"Delta":15846683},{"NoteNumber":68,"Velocity":63,"Duration":73170,"SoundDuration":73170,"Delta":15919854},{"NoteNumber":67,"Velocity":69,"Duration":73170,"SoundDuration":73170,"Delta":15993024},{"NoteNumber":65,"Velocity":63,"Duration":73170,"SoundDuration":73170,"Delta":16066195},{"NoteNumber":63,"Velocity":63,"Duration":73170,"SoundDuration":73170,"Delta":16139366},{"NoteNumber":47,"Velocity":57,"Duration":164913,"SoundDuration":164913,"Delta":16139366},{"NoteNumber":62,"Velocity":63,"Duration":91743,"SoundDuration":91743,"Delta":16212537},{"NoteNumber":60,"Velocity":77,"Duration":73170,"SoundDuration":73170,"Delta":16304280},{"NoteNumber":48,"Velocity":66,"Duration":292683,"SoundDuration":292683,"Delta":16304280},{"NoteNumber":62,"Velocity":69,"Duration":73170,"SoundDuration":73170,"Delta":16377450},{"NoteNumber":60,"Velocity":69,"Duration":73170,"SoundDuration":73170,"Delta":16450621},{"NoteNumber":59,"Velocity":69,"Duration":73170,"SoundDuration":73170,"Delta":16523792},{"NoteNumber":60,"Velocity":77,"Duration":73170,"SoundDuration":73170,"Delta":16596963},{"NoteNumber":63,"Velocity":69,"Duration":73170,"SoundDuration":73170,"Delta":16670133},{"NoteNumber":62,"Velocity":69,"Duration":73170,"SoundDuration":73170,"Delta":16743304},{"NoteNumber":42,"Velocity":58,"Duration":164634,"SoundDuration":164634,"Delta":16743304},{"NoteNumber":60,"Velocity":69,"Duration":91463,"SoundDuration":91463,"Delta":16816475},{"NoteNumber":59,"Velocity":77,"Duration":74626,"SoundDuration":74626,"Delta":16907938},{"NoteNumber":43,"Velocity":67,"Duration":298507,"SoundDuration":298507,"Delta":16907938},{"NoteNumber":67,"Velocity":69,"Duration":74626,"SoundDuration":74626,"Delta":16982565},{"NoteNumber":62,"Velocity":69,"Duration":74626,"SoundDuration":74626,"Delta":17057192},{"NoteNumber":59,"Velocity":69,"Duration":74626,"SoundDuration":74626,"Delta":17131819},{"NoteNumber":55,"Velocity":79,"Duration":74626,"SoundDuration":74626,"Delta":17206445},{"NoteNumber":36,"Velocity":82,"Duration":149253,"SoundDuration":149253,"Delta":17206445},{"NoteNumber":48,"Velocity":96,"Duration":149253,"SoundDuration":149253,"Delta":17206445},{"NoteNumber":67,"Velocity":69,"Duration":74626,"SoundDuration":74626,"Delta":17281072},{"NoteNumber":63,"Velocity":69,"Duration":74626,"SoundDuration":74626,"Delta":17355699},{"NoteNumber":60,"Velocity":69,"Duration":74626,"SoundDuration":74626,"Delta":17430326},{"NoteNumber":55,"Velocity":81,"Duration":74626,"SoundDuration":74626,"Delta":17504952},{"NoteNumber":31,"Velocity":55,"Duration":149253,"SoundDuration":149253,"Delta":17504952},{"NoteNumber":43,"Velocity":66,"Duration":149253,"SoundDuration":149253,"Delta":17504952},{"NoteNumber":67,"Velocity":69,"Duration":74626,"SoundDuration":74626,"Delta":17579579},{"NoteNumber":62,"Velocity":69,"Duration":74626,"SoundDuration":74626,"Delta":17654206},{"NoteNumber":59,"Velocity":69,"Duration":74626,"SoundDuration":74626,"Delta":17728833},{"NoteNumber":55,"Velocity":80,"Duration":74626,"SoundDuration":74626,"Delta":17803459},{"NoteNumber":36,"Velocity":82,"Duration":149253,"SoundDuration":149253,"Delta":17803459},{"NoteNumber":48,"Velocity":97,"Duration":149253,"SoundDuration":149253,"Delta":17803459},{"NoteNumber":67,"Velocity":69,"Duration":74626,"SoundDuration":74626,"Delta":17878086},{"NoteNumber":63,"Velocity":69,"Duration":74626,"SoundDuration":74626,"Delta":17952713},{"NoteNumber":60,"Velocity":69,"Duration":74626,"SoundDuration":74626,"Delta":18027340},{"NoteNumber":55,"Velocity":80,"Duration":74626,"SoundDuration":74626,"Delta":18101966},{"NoteNumber":31,"Velocity":57,"Duration":149253,"SoundDuration":149253,"Delta":18101966},{"NoteNumber":43,"Velocity":68,"Duration":149253,"SoundDuration":149253,"Delta":18101966},{"NoteNumber":67,"Velocity":69,"Duration":74626,"SoundDuration":74626,"Delta":18176593},{"NoteNumber":62,"Velocity":69,"Duration":74626,"SoundDuration":74626,"Delta":18251220},{"NoteNumber":59,"Velocity":69,"Duration":74626,"SoundDuration":74626,"Delta":18325847},{"NoteNumber":55,"Velocity":80,"Duration":74626,"SoundDuration":74626,"Delta":18400473},{"NoteNumber":36,"Velocity":82,"Duration":149253,"SoundDuration":149253,"Delta":18400473},{"NoteNumber":48,"Velocity":97,"Duration":149253,"SoundDuration":149253,"Delta":18400473},{"NoteNumber":67,"Velocity":69,"Duration":74626,"SoundDuration":74626,"Delta":18475100},{"NoteNumber":63,"Velocity":69,"Duration":74626,"SoundDuration":74626,"Delta":18549727},{"NoteNumber":60,"Velocity":69,"Duration":89552,"SoundDuration":89552,"Delta":18624354},{"NoteNumber":55,"Velocity":74,"Duration":1100918,"SoundDuration":1100918,"Delta":18713906},{"NoteNumber":59,"Velocity":74,"Duration":1100918,"SoundDuration":1100918,"Delta":18713906},{"NoteNumber":62,"Velocity":74,"Duration":1100918,"SoundDuration":1100918,"Delta":18713906},{"NoteNumber":67,"Velocity":89,"Duration":1100918,"SoundDuration":1100918,"Delta":18713906},{"NoteNumber":31,"Velocity":66,"Duration":1100918,"SoundDuration":1100918,"Delta":18713906},{"NoteNumber":35,"Velocity":66,"Duration":1100918,"SoundDuration":1100918,"Delta":18713906},{"NoteNumber":38,"Velocity":66,"Duration":1100918,"SoundDuration":1100918,"Delta":18713906},{"NoteNumber":43,"Velocity":78,"Duration":1100918,"SoundDuration":1100918,"Delta":18713906},{"NoteNumber":58,"Velocity":40,"Duration":77319,"SoundDuration":77319,"Delta":19969463},{"NoteNumber":60,"Velocity":37,"Duration":77319,"SoundDuration":77319,"Delta":20124102},{"NoteNumber":62,"Velocity":37,"Duration":77319,"SoundDuration":77319,"Delta":20278741},{"NoteNumber":55,"Velocity":39,"Duration":635365,"SoundDuration":635365,"Delta":20433380},{"NoteNumber":58,"Velocity":39,"Duration":635365,"SoundDuration":635365,"Delta":20433380},{"NoteNumber":63,"Velocity":46,"Duration":77319,"SoundDuration":77319,"Delta":20433380},{"NoteNumber":39,"Velocity":26,"Duration":635365,"SoundDuration":635365,"Delta":20433380},{"NoteNumber":51,"Velocity":31,"Duration":635365,"SoundDuration":635365,"Delta":20433380},{"NoteNumber":65,"Velocity":40,"Duration":77319,"SoundDuration":77319,"Delta":20588019},{"NoteNumber":67,"Velocity":40,"Duration":81521,"SoundDuration":81521,"Delta":20742658},{"NoteNumber":58,"Velocity":38,"Duration":79999,"SoundDuration":79999,"Delta":21068745},{"NoteNumber":62,"Velocity":38,"Duration":79999,"SoundDuration":79999,"Delta":21068745},{"NoteNumber":65,"Velocity":45,"Duration":79999,"SoundDuration":79999,"Delta":21068745},{"NoteNumber":44,"Velocity":25,"Duration":79999,"SoundDuration":79999,"Delta":21068745},{"NoteNumber":56,"Velocity":30,"Duration":79999,"SoundDuration":79999,"Delta":21068745},{"NoteNumber":58,"Velocity":33,"Duration":79999,"SoundDuration":79999,"Delta":21388745},{"NoteNumber":63,"Velocity":39,"Duration":79999,"SoundDuration":79999,"Delta":21388745},{"NoteNumber":43,"Velocity":23,"Duration":79999,"SoundDuration":79999,"Delta":21388745},{"NoteNumber":55,"Velocity":27,"Duration":79999,"SoundDuration":79999,"Delta":21388745},{"NoteNumber":56,"Velocity":37,"Duration":638297,"SoundDuration":638297,"Delta":21744184},{"NoteNumber":58,"Velocity":37,"Duration":638297,"SoundDuration":638297,"Delta":21744184},{"NoteNumber":62,"Velocity":37,"Duration":638297,"SoundDuration":638297,"Delta":21744184},{"NoteNumber":68,"Velocity":45,"Duration":638297,"SoundDuration":638297,"Delta":21744184},{"NoteNumber":46,"Velocity":27,"Duration":638297,"SoundDuration":638297,"Delta":21744184},{"NoteNumber":41,"Velocity":27,"Duration":638297,"SoundDuration":638297,"Delta":21744184},{"NoteNumber":53,"Velocity":32,"Duration":638297,"SoundDuration":638297,"Delta":21744184},{"NoteNumber":58,"Velocity":40,"Duration":77319,"SoundDuration":77319,"Delta":22542057},{"NoteNumber":60,"Velocity":37,"Duration":77319,"SoundDuration":77319,"Delta":22696696},{"NoteNumber":62,"Velocity":37,"Duration":77319,"SoundDuration":77319,"Delta":22851335},{"NoteNumber":55,"Velocity":39,"Duration":635365,"SoundDuration":635365,"Delta":23005974},{"NoteNumber":58,"Velocity":39,"Duration":635365,"SoundDuration":635365,"Delta":23005974},{"NoteNumber":63,"Velocity":46,"Duration":77319,"SoundDuration":77319,"Delta":23005974},{"NoteNumber":39,"Velocity":26,"Duration":635365,"SoundDuration":635365,"Delta":23005974},{"NoteNumber":51,"Velocity":31,"Duration":635365,"SoundDuration":635365,"Delta":23005974},{"NoteNumber":65,"Velocity":40,"Duration":77319,"SoundDuration":77319,"Delta":23160613},{"NoteNumber":67,"Velocity":40,"Duration":81521,"SoundDuration":81521,"Delta":23315252},{"NoteNumber":53,"Velocity":38,"Duration":79999,"SoundDuration":79999,"Delta":23641339},{"NoteNumber":60,"Velocity":38,"Duration":79999,"SoundDuration":79999,"Delta":23641339},{"NoteNumber":65,"Velocity":45,"Duration":79999,"SoundDuration":79999,"Delta":23641339},{"NoteNumber":32,"Velocity":25,"Duration":79999,"SoundDuration":79999,"Delta":23641339},{"NoteNumber":44,"Velocity":30,"Duration":79999,"SoundDuration":79999,"Delta":23641339},{"NoteNumber":60,"Velocity":33,"Duration":79999,"SoundDuration":79999,"Delta":23961339},{"NoteNumber":53,"Velocity":33,"Duration":79999,"SoundDuration":79999,"Delta":23961339},{"NoteNumber":63,"Velocity":39,"Duration":79999,"SoundDuration":79999,"Delta":23961339},{"NoteNumber":33,"Velocity":23,"Duration":79999,"SoundDuration":79999,"Delta":23961339},{"NoteNumber":45,"Velocity":27,"Duration":79999,"SoundDuration":79999,"Delta":23961339},{"NoteNumber":50,"Velocity":31,"Duration":640000,"SoundDuration":640000,"Delta":24316778},{"NoteNumber":53,"Velocity":31,"Duration":640000,"SoundDuration":640000,"Delta":24316778},{"NoteNumber":58,"Velocity":37,"Duration":640000,"SoundDuration":640000,"Delta":24316778},{"NoteNumber":34,"Velocity":22,"Duration":640000,"SoundDuration":640000,"Delta":24316778},{"NoteNumber":46,"Velocity":27,"Duration":640000,"SoundDuration":640000,"Delta":24316778},{"NoteNumber":58,"Velocity":40,"Duration":77319,"SoundDuration":77319,"Delta":25116778},{"NoteNumber":60,"Velocity":37,"Duration":77319,"SoundDuration":77319,"Delta":25271417},{"NoteNumber":62,"Velocity":37,"Duration":77319,"SoundDuration":77319,"Delta":25426056},{"NoteNumber":55,"Velocity":39,"Duration":635365,"SoundDuration":635365,"Delta":25580695},{"NoteNumber":58,"Velocity":39,"Duration":635365,"SoundDuration":635365,"Delta":25580695},{"NoteNumber":63,"Velocity":46,"Duration":77319,"SoundDuration":77319,"Delta":25580695},{"NoteNumber":39,"Velocity":26,"Duration":635365,"SoundDuration":635365,"Delta":25580695},{"NoteNumber":51,"Velocity":31,"Duration":635365,"SoundDuration":635365,"Delta":25580695},{"NoteNumber":65,"Velocity":40,"Duration":77319,"SoundDuration":77319,"Delta":25735334},{"NoteNumber":67,"Velocity":40,"Duration":81521,"SoundDuration":81521,"Delta":25889973},{"NoteNumber":58,"Velocity":38,"Duration":79999,"SoundDuration":79999,"Delta":26216060},{"NoteNumber":62,"Velocity":38,"Duration":79999,"SoundDuration":79999,"Delta":26216060},{"NoteNumber":65,"Velocity":45,"Duration":79999,"SoundDuration":79999,"Delta":26216060},{"NoteNumber":44,"Velocity":25,"Duration":79999,"SoundDuration":79999,"Delta":26216060},{"NoteNumber":56,"Velocity":30,"Duration":79999,"SoundDuration":79999,"Delta":26216060},{"NoteNumber":58,"Velocity":33,"Duration":79999,"SoundDuration":79999,"Delta":26536060},{"NoteNumber":63,"Velocity":39,"Duration":79999,"SoundDuration":79999,"Delta":26536060},{"NoteNumber":43,"Velocity":23,"Duration":79999,"SoundDuration":79999,"Delta":26536060},{"NoteNumber":55,"Velocity":27,"Duration":79999,"SoundDuration":79999,"Delta":26536060},{"NoteNumber":44,"Velocity":28,"Duration":385916,"SoundDuration":385916,"Delta":26832645},{"NoteNumber":48,"Velocity":32,"Duration":374854,"SoundDuration":374854,"Delta":26843707},{"NoteNumber":51,"Velocity":36,"Duration":363792,"SoundDuration":363792,"Delta":26854769},{"NoteNumber":56,"Velocity":40,"Duration":352730,"SoundDuration":352730,"Delta":26865831},{"NoteNumber":60,"Velocity":45,"Duration":650151,"SoundDuration":650151,"Delta":26876893},{"NoteNumber":63,"Velocity":50,"Duration":639089,"SoundDuration":639089,"Delta":26887955},{"NoteNumber":68,"Velocity":63,"Duration":628027,"SoundDuration":628027,"Delta":26899017},{"NoteNumber":72,"Velocity":72,"Duration":771207,"SoundDuration":771207,"Delta":26910079},{"NoteNumber":72,"Velocity":48,"Duration":77120,"SoundDuration":77120,"Delta":27681286},{"NoteNumber":70,"Velocity":53,"Duration":77120,"SoundDuration":77120,"Delta":27835528},{"NoteNumber":68,"Velocity":50,"Duration":87463,"SoundDuration":87463,"Delta":27989769},{"NoteNumber":67,"Velocity":53,"Duration":153846,"SoundDuration":153846,"Delta":28164696},{"NoteNumber":46,"Velocity":80,"Duration":2472078,"SoundDuration":2472078,"Delta":28164696},{"NoteNumber":65,"Velocity":48,"Duration":153845,"SoundDuration":153845,"Delta":28318542},{"NoteNumber":63,"Velocity":48,"Duration":76923,"SoundDuration":76923,"Delta":28472388},{"NoteNumber":62,"Velocity":48,"Duration":76923,"SoundDuration":76923,"Delta":28626234},{"NoteNumber":53,"Velocity":45,"Duration":621112,"SoundDuration":621112,"Delta":28780080},{"NoteNumber":56,"Velocity":45,"Duration":621112,"SoundDuration":621112,"Delta":28780080},{"NoteNumber":60,"Velocity":53,"Duration":307691,"SoundDuration":307691,"Delta":28780080},{"NoteNumber":34,"Velocity":49,"Duration":76923,"SoundDuration":76923,"Delta":28933926},{"NoteNumber":58,"Velocity":49,"Duration":313420,"SoundDuration":313420,"Delta":29087772},{"NoteNumber":36,"Velocity":53,"Duration":76923,"SoundDuration":76923,"Delta":29087772},{"NoteNumber":38,"Velocity":45,"Duration":79787,"SoundDuration":79787,"Delta":29241618},{"NoteNumber":51,"Velocity":41,"Duration":607593,"SoundDuration":607593,"Delta":29401193},{"NoteNumber":55,"Velocity":41,"Duration":607593,"SoundDuration":607593,"Delta":29401193},{"NoteNumber":58,"Velocity":49,"Duration":607593,"SoundDuration":607593,"Delta":29401193},{"NoteNumber":39,"Velocity":53,"Duration":75949,"SoundDuration":75949,"Delta":29401193},{"NoteNumber":41,"Velocity":49,"Duration":75949,"SoundDuration":75949,"Delta":29553091},{"NoteNumber":43,"Velocity":51,"Duration":75949,"SoundDuration":75949,"Delta":29704990},{"NoteNumber":41,"Velocity":53,"Duration":305344,"SoundDuration":305344,"Delta":30008787},{"NoteNumber":70,"Velocity":48,"Duration":76336,"SoundDuration":76336,"Delta":30161459},{"NoteNumber":68,"Velocity":53,"Duration":76335,"SoundDuration":76335,"Delta":30314131},{"NoteNumber":39,"Velocity":50,"Duration":322643,"SoundDuration":322643,"Delta":30314131},{"NoteNumber":67,"Velocity":50,"Duration":84985,"SoundDuration":84985,"Delta":30466803},{"NoteNumber":67,"Velocity":53,"Duration":153061,"SoundDuration":153061,"Delta":30636774},{"NoteNumber":46,"Velocity":80,"Duration":2454641,"SoundDuration":2454641,"Delta":30636774},{"NoteNumber":65,"Velocity":48,"Duration":153060,"SoundDuration":153060,"Delta":30789835},{"NoteNumber":63,"Velocity":48,"Duration":76530,"SoundDuration":76530,"Delta":30942896},{"NoteNumber":62,"Velocity":48,"Duration":76530,"SoundDuration":76530,"Delta":31095957},{"NoteNumber":53,"Velocity":45,"Duration":617077,"SoundDuration":617077,"Delta":31249018},{"NoteNumber":56,"Velocity":45,"Duration":617077,"SoundDuration":617077,"Delta":31249018},{"NoteNumber":60,"Velocity":53,"Duration":306121,"SoundDuration":306121,"Delta":31249018},{"NoteNumber":34,"Velocity":49,"Duration":76530,"SoundDuration":76530,"Delta":31402079},{"NoteNumber":58,"Velocity":49,"Duration":310955,"SoundDuration":310955,"Delta":31555140},{"NoteNumber":36,"Velocity":53,"Duration":76530,"SoundDuration":76530,"Delta":31555140},{"NoteNumber":38,"Velocity":45,"Duration":78947,"SoundDuration":78947,"Delta":31708201},{"NoteNumber":51,"Velocity":54,"Duration":604534,"SoundDuration":604534,"Delta":31866096},{"NoteNumber":55,"Velocity":54,"Duration":604534,"SoundDuration":604534,"Delta":31866096},{"NoteNumber":58,"Velocity":54,"Duration":604534,"SoundDuration":604534,"Delta":31866096},{"NoteNumber":39,"Velocity":53,"Duration":75566,"SoundDuration":75566,"Delta":31866096},{"NoteNumber":41,"Velocity":49,"Duration":75566,"SoundDuration":75566,"Delta":32017229},{"NoteNumber":43,"Velocity":51,"Duration":75566,"SoundDuration":75566,"Delta":32168363},{"NoteNumber":41,"Velocity":53,"Duration":306905,"SoundDuration":306905,"Delta":32470630},{"NoteNumber":82,"Velocity":48,"Duration":76726,"SoundDuration":76726,"Delta":32624082},{"NoteNumber":70,"Velocity":48,"Duration":76726,"SoundDuration":76726,"Delta":32624082},{"NoteNumber":80,"Velocity":53,"Duration":76726,"SoundDuration":76726,"Delta":32777535},{"NoteNumber":68,"Velocity":53,"Duration":76726,"SoundDuration":76726,"Delta":32777535},{"NoteNumber":39,"Velocity":50,"Duration":313880,"SoundDuration":313880,"Delta":32777535},{"NoteNumber":79,"Velocity":50,"Duration":80213,"SoundDuration":80213,"Delta":32930987},{"NoteNumber":67,"Velocity":50,"Duration":80213,"SoundDuration":80213,"Delta":32930987},{"NoteNumber":79,"Velocity":55,"Duration":152284,"SoundDuration":152284,"Delta":33091415},{"NoteNumber":67,"Velocity":55,"Duration":152284,"SoundDuration":152284,"Delta":33091415},{"NoteNumber":44,"Velocity":45,"Duration":304569,"SoundDuration":304569,"Delta":33091415},{"NoteNumber":48,"Velocity":45,"Duration":304569,"SoundDuration":304569,"Delta":33091415},{"NoteNumber":53,"Velocity":53,"Duration":304569,"SoundDuration":304569,"Delta":33091415},{"NoteNumber":77,"Velocity":48,"Duration":152284,"SoundDuration":152284,"Delta":33243700},{"NoteNumber":65,"Velocity":48,"Duration":152284,"SoundDuration":152284,"Delta":33243700},{"NoteNumber":75,"Velocity":48,"Duration":76142,"SoundDuration":76142,"Delta":33395984},{"NoteNumber":63,"Velocity":48,"Duration":76142,"SoundDuration":76142,"Delta":33395984},{"NoteNumber":74,"Velocity":48,"Duration":76142,"SoundDuration":76142,"Delta":33548269},{"NoteNumber":62,"Velocity":48,"Duration":76142,"SoundDuration":76142,"Delta":33548269},{"NoteNumber":60,"Velocity":55,"Duration":76335,"SoundDuration":76335,"Delta":33700553},{"NoteNumber":72,"Velocity":55,"Duration":76335,"SoundDuration":76335,"Delta":33700553},{"NoteNumber":46,"Velocity":42,"Duration":305343,"SoundDuration":305343,"Delta":33700553},{"NoteNumber":53,"Velocity":42,"Duration":305343,"SoundDuration":305343,"Delta":33700553},{"NoteNumber":56,"Velocity":50,"Duration":305343,"SoundDuration":305343,"Delta":33700553},{"NoteNumber":58,"Velocity":48,"Duration":76335,"SoundDuration":76335,"Delta":33853225},{"NoteNumber":70,"Velocity":48,"Duration":76335,"SoundDuration":76335,"Delta":33853225},{"NoteNumber":60,"Velocity":48,"Duration":76336,"SoundDuration":76336,"Delta":34005897},{"NoteNumber":72,"Velocity":48,"Duration":76336,"SoundDuration":76336,"Delta":34005897},{"NoteNumber":62,"Velocity":48,"Duration":81743,"SoundDuration":81743,"Delta":34158569},{"NoteNumber":74,"Velocity":48,"Duration":81743,"SoundDuration":81743,"Delta":34158569},{"NoteNumber":63,"Velocity":48,"Duration":76410,"SoundDuration":76410,"Delta":34321672},{"NoteNumber":55,"Velocity":58,"Duration":305303,"SoundDuration":305303,"Delta":34321672},{"NoteNumber":51,"Velocity":49,"Duration":305303,"SoundDuration":305303,"Delta":34321672},{"NoteNumber":75,"Velocity":43,"Duration":76200,"SoundDuration":76200,"Delta":34398082},{"NoteNumber":63,"Velocity":48,"Duration":76436,"SoundDuration":76436,"Delta":34474282},{"NoteNumber":75,"Velocity":42,"Duration":76256,"SoundDuration":76256,"Delta":34550719},{"NoteNumber":63,"Velocity":49,"Duration":76580,"SoundDuration":76580,"Delta":34626975},{"NoteNumber":75,"Velocity":43,"Duration":75981,"SoundDuration":75981,"Delta":34703556},{"NoteNumber":63,"Velocity":50,"Duration":76850,"SoundDuration":76850,"Delta":34779538},{"NoteNumber":51,"Velocity":54,"Duration":152896,"SoundDuration":152896,"Delta":34779538},{"NoteNumber":75,"Velocity":45,"Duration":76045,"SoundDuration":76045,"Delta":34856388},{"NoteNumber":63,"Velocity":51,"Duration":77139,"SoundDuration":77139,"Delta":34932434},{"NoteNumber":50,"Velocity":60,"Duration":153637,"SoundDuration":153637,"Delta":34932434},{"NoteNumber":75,"Velocity":44,"Duration":76497,"SoundDuration":76497,"Delta":35009574},{"NoteNumber":63,"Velocity":52,"Duration":76062,"SoundDuration":76062,"Delta":35086072},{"NoteNumber":51,"Velocity":55,"Duration":152334,"SoundDuration":152334,"Delta":35086072},{"NoteNumber":75,"Velocity":47,"Duration":76271,"SoundDuration":76271,"Delta":35162135},{"NoteNumber":63,"Velocity":53,"Duration":76336,"SoundDuration":76336,"Delta":35238406},{"NoteNumber":48,"Velocity":52,"Duration":76336,"SoundDuration":76336,"Delta":35238406},{"NoteNumber":56,"Velocity":62,"Duration":76336,"SoundDuration":76336,"Delta":35238406},{"NoteNumber":75,"Velocity":47,"Duration":76335,"SoundDuration":76335,"Delta":35314742},{"NoteNumber":63,"Velocity":53,"Duration":79155,"SoundDuration":79155,"Delta":35391078},{"NoteNumber":48,"Velocity":48,"Duration":79155,"SoundDuration":79155,"Delta":35391078},{"NoteNumber":56,"Velocity":57,"Duration":79155,"SoundDuration":79155,"Delta":35391078},{"NoteNumber":75,"Velocity":47,"Duration":79155,"SoundDuration":79155,"Delta":35470234},{"NoteNumber":63,"Velocity":54,"Duration":76410,"SoundDuration":76410,"Delta":35549390},{"NoteNumber":55,"Velocity":65,"Duration":305303,"SoundDuration":305303,"Delta":35549390},{"NoteNumber":46,"Velocity":55,"Duration":305303,"SoundDuration":305303,"Delta":35549390},{"NoteNumber":75,"Velocity":48,"Duration":76200,"SoundDuration":76200,"Delta":35625800},{"NoteNumber":63,"Velocity":55,"Duration":76436,"SoundDuration":76436,"Delta":35702000},{"NoteNumber":75,"Velocity":48,"Duration":76256,"SoundDuration":76256,"Delta":35778437},{"NoteNumber":63,"Velocity":55,"Duration":76580,"SoundDuration":76580,"Delta":35854694},{"NoteNumber":75,"Velocity":48,"Duration":75981,"SoundDuration":75981,"Delta":35931275},{"NoteNumber":63,"Velocity":56,"Duration":76850,"SoundDuration":76850,"Delta":36007256},{"NoteNumber":51,"Velocity":61,"Duration":152896,"SoundDuration":152896,"Delta":36007256},{"NoteNumber":75,"Velocity":51,"Duration":76045,"SoundDuration":76045,"Delta":36084107},{"NoteNumber":63,"Velocity":57,"Duration":77139,"SoundDuration":77139,"Delta":36160153},{"NoteNumber":50,"Velocity":68,"Duration":153637,"SoundDuration":153637,"Delta":36160153},{"NoteNumber":75,"Velocity":49,"Duration":76497,"SoundDuration":76497,"Delta":36237293},{"NoteNumber":63,"Velocity":58,"Duration":76062,"SoundDuration":76062,"Delta":36313790},{"NoteNumber":51,"Velocity":63,"Duration":152334,"SoundDuration":152334,"Delta":36313790},{"NoteNumber":75,"Velocity":53,"Duration":76271,"SoundDuration":76271,"Delta":36389853},{"NoteNumber":63,"Velocity":59,"Duration":76336,"SoundDuration":76336,"Delta":36466125},{"NoteNumber":56,"Velocity":58,"Duration":76336,"SoundDuration":76336,"Delta":36466125},{"NoteNumber":60,"Velocity":69,"Duration":76336,"SoundDuration":76336,"Delta":36466125},{"NoteNumber":75,"Velocity":54,"Duration":76335,"SoundDuration":76335,"Delta":36542461},{"NoteNumber":63,"Velocity":60,"Duration":79155,"SoundDuration":79155,"Delta":36618797},{"NoteNumber":56,"Velocity":54,"Duration":79155,"SoundDuration":79155,"Delta":36618797},{"NoteNumber":60,"Velocity":64,"Duration":79155,"SoundDuration":79155,"Delta":36618797},{"NoteNumber":75,"Velocity":54,"Duration":79155,"SoundDuration":79155,"Delta":36697953},{"NoteNumber":63,"Velocity":70,"Duration":305903,"SoundDuration":305903,"Delta":36777108},{"NoteNumber":75,"Velocity":70,"Duration":305903,"SoundDuration":305903,"Delta":36777108},{"NoteNumber":58,"Velocity":71,"Duration":153468,"SoundDuration":153468,"Delta":36777108},{"NoteNumber":55,"Velocity":71,"Duration":153468,"SoundDuration":153468,"Delta":36777108},{"NoteNumber":51,"Velocity":62,"Duration":76162,"SoundDuration":76162,"Delta":36930577},{"NoteNumber":63,"Velocity":54,"Duration":76273,"SoundDuration":76273,"Delta":37006739},{"NoteNumber":51,"Velocity":63,"Duration":76962,"SoundDuration":76962,"Delta":37083012},{"NoteNumber":63,"Velocity":56,"Duration":76265,"SoundDuration":76265,"Delta":37159975},{"NoteNumber":75,"Velocity":74,"Duration":153349,"SoundDuration":153349,"Delta":37236240},{"NoteNumber":51,"Velocity":63,"Duration":76797,"SoundDuration":76797,"Delta":37236240},{"NoteNumber":63,"Velocity":57,"Duration":76551,"SoundDuration":76551,"Delta":37313038},{"NoteNumber":74,"Velocity":84,"Duration":153534,"SoundDuration":153534,"Delta":37389590},{"NoteNumber":51,"Velocity":63,"Duration":76468,"SoundDuration":76468,"Delta":37389590},{"NoteNumber":63,"Velocity":55,"Duration":77066,"SoundDuration":77066,"Delta":37466058},{"NoteNumber":75,"Velocity":77,"Duration":152984,"SoundDuration":152984,"Delta":37543124},{"NoteNumber":51,"Velocity":64,"Duration":76648,"SoundDuration":76648,"Delta":37543124},{"NoteNumber":63,"Velocity":59,"Duration":76335,"SoundDuration":76335,"Delta":37619773},{"NoteNumber":84,"Velocity":86,"Duration":84507,"SoundDuration":84507,"Delta":37696109},{"NoteNumber":80,"Velocity":86,"Duration":84507,"SoundDuration":84507,"Delta":37696109},{"NoteNumber":51,"Velocity":65,"Duration":84507,"SoundDuration":84507,"Delta":37696109},{"NoteNumber":63,"Velocity":58,"Duration":84506,"SoundDuration":84506,"Delta":37780616},{"NoteNumber":80,"Velocity":79,"Duration":115830,"SoundDuration":115830,"Delta":37865123},{"NoteNumber":84,"Velocity":79,"Duration":115830,"SoundDuration":115830,"Delta":37865123},{"NoteNumber":51,"Velocity":66,"Duration":115830,"SoundDuration":115830,"Delta":37865123},{"NoteNumber":63,"Velocity":61,"Duration":107075,"SoundDuration":107075,"Delta":37980953},{"NoteNumber":80,"Velocity":92,"Duration":307692,"SoundDuration":307692,"Delta":38088029},{"NoteNumber":84,"Velocity":92,"Duration":384615,"SoundDuration":384615,"Delta":38088029},{"NoteNumber":50,"Velocity":49,"Duration":1223975,"SoundDuration":1223975,"Delta":38088029},{"NoteNumber":53,"Velocity":49,"Duration":1223975,"SoundDuration":1223975,"Delta":38088029},{"NoteNumber":56,"Velocity":49,"Duration":1223975,"SoundDuration":1223975,"Delta":38088029},{"NoteNumber":58,"Velocity":49,"Duration":1223975,"SoundDuration":1223975,"Delta":38088029},{"NoteNumber":62,"Velocity":66,"Duration":1223887,"SoundDuration":1223887,"Delta":38105336},{"NoteNumber":82,"Velocity":74,"Duration":76923,"SoundDuration":76923,"Delta":38472644},{"NoteNumber":80,"Velocity":73,"Duration":76054,"SoundDuration":76054,"Delta":38549567},{"NoteNumber":79,"Velocity":72,"Duration":75949,"SoundDuration":75949,"Delta":38625621},{"NoteNumber":77,"Velocity":72,"Duration":76024,"SoundDuration":76024,"Delta":38701571},{"NoteNumber":75,"Velocity":72,"Duration":76142,"SoundDuration":76142,"Delta":38777595},{"NoteNumber":74,"Velocity":71,"Duration":76142,"SoundDuration":76142,"Delta":38853738},{"NoteNumber":72,"Velocity":70,"Duration":76315,"SoundDuration":76315,"Delta":38929880},{"NoteNumber":71,"Velocity":69,"Duration":76335,"SoundDuration":76335,"Delta":39006195},{"NoteNumber":70,"Velocity":68,"Duration":76412,"SoundDuration":76412,"Delta":39082531},{"NoteNumber":69,"Velocity":67,"Duration":76530,"SoundDuration":76530,"Delta":39158943},{"NoteNumber":68,"Velocity":66,"Duration":76530,"SoundDuration":76530,"Delta":39235474},{"NoteNumber":67,"Velocity":66,"Duration":102040,"SoundDuration":102040,"Delta":39312004},{"NoteNumber":51,"Velocity":49,"Duration":306122,"SoundDuration":306122,"Delta":39312004},{"NoteNumber":55,"Velocity":49,"Duration":306122,"SoundDuration":306122,"Delta":39312004},{"NoteNumber":58,"Velocity":49,"Duration":306122,"SoundDuration":306122,"Delta":39312004},{"NoteNumber":63,"Velocity":66,"Duration":306122,"SoundDuration":306122,"Delta":39312004},{"NoteNumber":68,"Velocity":62,"Duration":102040,"SoundDuration":102040,"Delta":39414045},{"NoteNumber":70,"Velocity":62,"Duration":102040,"SoundDuration":102040,"Delta":39516085},{"NoteNumber":68,"Velocity":66,"Duration":101953,"SoundDuration":101953,"Delta":39618126},{"NoteNumber":67,"Velocity":62,"Duration":101631,"SoundDuration":101631,"Delta":39720079},{"NoteNumber":65,"Velocity":62,"Duration":101954,"SoundDuration":101954,"Delta":39821711},{"NoteNumber":63,"Velocity":66,"Duration":102324,"SoundDuration":102324,"Delta":39923665},{"NoteNumber":62,"Velocity":62,"Duration":102564,"SoundDuration":102564,"Delta":40025990},{"NoteNumber":60,"Velocity":62,"Duration":102564,"SoundDuration":102564,"Delta":40128554},{"NoteNumber":58,"Velocity":66,"Duration":102564,"SoundDuration":102564,"Delta":40231118},{"NoteNumber":56,"Velocity":60,"Duration":104332,"SoundDuration":104332,"Delta":40333682},{"NoteNumber":55,"Velocity":63,"Duration":106100,"SoundDuration":106100,"Delta":40438014},{"NoteNumber":32,"Velocity":73,"Duration":160428,"SoundDuration":160428,"Delta":40544115},{"NoteNumber":44,"Velocity":73,"Duration":160428,"SoundDuration":160428,"Delta":40544115},{"NoteNumber":53,"Velocity":59,"Duration":80214,"SoundDuration":80214,"Delta":40624329},{"NoteNumber":56,"Velocity":63,"Duration":76726,"SoundDuration":76726,"Delta":40704543},{"NoteNumber":60,"Velocity":67,"Duration":76726,"SoundDuration":76726,"Delta":40781269},{"NoteNumber":65,"Velocity":72,"Duration":153452,"SoundDuration":153452,"Delta":40857996},{"NoteNumber":32,"Velocity":63,"Duration":76726,"SoundDuration":76726,"Delta":41011448},{"NoteNumber":44,"Velocity":63,"Duration":76726,"SoundDuration":76726,"Delta":41011448},{"NoteNumber":34,"Velocity":70,"Duration":159151,"SoundDuration":159151,"Delta":41164901},{"NoteNumber":46,"Velocity":70,"Duration":159151,"SoundDuration":159151,"Delta":41164901},{"NoteNumber":53,"Velocity":63,"Duration":79575,"SoundDuration":79575,"Delta":41244476},{"NoteNumber":56,"Velocity":66,"Duration":76726,"SoundDuration":76726,"Delta":41324052},{"NoteNumber":58,"Velocity":69,"Duration":76726,"SoundDuration":76726,"Delta":41400778},{"NoteNumber":62,"Velocity":72,"Duration":153452,"SoundDuration":153452,"Delta":41477504},{"NoteNumber":34,"Velocity":63,"Duration":81080,"SoundDuration":81080,"Delta":41630957},{"NoteNumber":46,"Velocity":63,"Duration":81080,"SoundDuration":81080,"Delta":41630957},{"NoteNumber":74,"Velocity":67,"Duration":77120,"SoundDuration":77120,"Delta":41792393},{"NoteNumber":86,"Velocity":60,"Duration":76985,"SoundDuration":76985,"Delta":41869513},{"NoteNumber":74,"Velocity":67,"Duration":76837,"SoundDuration":76837,"Delta":41946499},{"NoteNumber":68,"Velocity":63,"Duration":76837,"SoundDuration":76837,"Delta":41946499},{"NoteNumber":86,"Velocity":60,"Duration":76726,"SoundDuration":76726,"Delta":42023337},{"NoteNumber":70,"Velocity":65,"Duration":76726,"SoundDuration":76726,"Delta":42023337},{"NoteNumber":74,"Velocity":67,"Duration":76543,"SoundDuration":76543,"Delta":42100063},{"NoteNumber":72,"Velocity":69,"Duration":76543,"SoundDuration":76543,"Delta":42100063},{"NoteNumber":86,"Velocity":59,"Duration":76397,"SoundDuration":76397,"Delta":42176606},{"NoteNumber":70,"Velocity":67,"Duration":76397,"SoundDuration":76397,"Delta":42176606},{"NoteNumber":74,"Velocity":67,"Duration":75940,"SoundDuration":75940,"Delta":42253004},{"NoteNumber":68,"Velocity":65,"Duration":75940,"SoundDuration":75940,"Delta":42253004},{"NoteNumber":86,"Velocity":61,"Duration":75757,"SoundDuration":75757,"Delta":42328945},{"NoteNumber":67,"Velocity":64,"Duration":75757,"SoundDuration":75757,"Delta":42328945},{"NoteNumber":74,"Velocity":67,"Duration":75757,"SoundDuration":75757,"Delta":42404702},{"NoteNumber":65,"Velocity":67,"Duration":101061,"SoundDuration":101061,"Delta":42404702},{"NoteNumber":86,"Velocity":59,"Duration":75936,"SoundDuration":75936,"Delta":42480460},{"NoteNumber":63,"Velocity":61,"Duration":101265,"SoundDuration":101265,"Delta":42505763},{"NoteNumber":74,"Velocity":67,"Duration":75949,"SoundDuration":75949,"Delta":42556396},{"NoteNumber":62,"Velocity":61,"Duration":101301,"SoundDuration":101301,"Delta":42607029},{"NoteNumber":86,"Velocity":59,"Duration":75984,"SoundDuration":75984,"Delta":42632345},{"NoteNumber":74,"Velocity":67,"Duration":76142,"SoundDuration":76142,"Delta":42708330},{"NoteNumber":60,"Velocity":67,"Duration":101523,"SoundDuration":101523,"Delta":42708330},{"NoteNumber":86,"Velocity":59,"Duration":76142,"SoundDuration":76142,"Delta":42784472},{"NoteNumber":58,"Velocity":62,"Duration":101542,"SoundDuration":101542,"Delta":42809853},{"NoteNumber":74,"Velocity":67,"Duration":76226,"SoundDuration":76226,"Delta":42860615},{"NoteNumber":56,"Velocity":62,"Duration":101781,"SoundDuration":101781,"Delta":42911396},{"NoteNumber":86,"Velocity":60,"Duration":76335,"SoundDuration":76335,"Delta":42936841},{"NoteNumber":75,"Velocity":67,"Duration":77120,"SoundDuration":77120,"Delta":43013177},{"NoteNumber":55,"Velocity":67,"Duration":102824,"SoundDuration":102824,"Delta":43013177},{"NoteNumber":87,"Velocity":60,"Duration":76985,"SoundDuration":76985,"Delta":43090298},{"NoteNumber":56,"Velocity":63,"Duration":102544,"SoundDuration":102544,"Delta":43116001},{"NoteNumber":75,"Velocity":69,"Duration":76837,"SoundDuration":76837,"Delta":43167283},{"NoteNumber":58,"Velocity":63,"Duration":102301,"SoundDuration":102301,"Delta":43218546},{"NoteNumber":87,"Velocity":62,"Duration":76726,"SoundDuration":76726,"Delta":43244121},{"NoteNumber":75,"Velocity":71,"Duration":76543,"SoundDuration":76543,"Delta":43320847},{"NoteNumber":56,"Velocity":67,"Duration":102050,"SoundDuration":102050,"Delta":43320847},{"NoteNumber":87,"Velocity":63,"Duration":76397,"SoundDuration":76397,"Delta":43397391},{"NoteNumber":55,"Velocity":60,"Duration":101578,"SoundDuration":101578,"Delta":43422898},{"NoteNumber":75,"Velocity":72,"Duration":75940,"SoundDuration":75940,"Delta":43473788},{"NoteNumber":53,"Velocity":60,"Duration":101009,"SoundDuration":101009,"Delta":43524477},{"NoteNumber":87,"Velocity":67,"Duration":75757,"SoundDuration":75757,"Delta":43549729},{"NoteNumber":75,"Velocity":75,"Duration":75757,"SoundDuration":75757,"Delta":43625487},{"NoteNumber":51,"Velocity":70,"Duration":101061,"SoundDuration":101061,"Delta":43625487},{"NoteNumber":87,"Velocity":67,"Duration":75936,"SoundDuration":75936,"Delta":43701244},{"NoteNumber":50,"Velocity":63,"Duration":101265,"SoundDuration":101265,"Delta":43726548},{"NoteNumber":75,"Velocity":77,"Duration":75949,"SoundDuration":75949,"Delta":43777180},{"NoteNumber":48,"Velocity":66,"Duration":101301,"SoundDuration":101301,"Delta":43827813},{"NoteNumber":87,"Velocity":69,"Duration":75984,"SoundDuration":75984,"Delta":43853130},{"NoteNumber":76,"Velocity":80,"Duration":76142,"SoundDuration":76142,"Delta":43929114},{"NoteNumber":46,"Velocity":74,"Duration":101523,"SoundDuration":101523,"Delta":43929114},{"NoteNumber":88,"Velocity":71,"Duration":76142,"SoundDuration":76142,"Delta":44005257},{"NoteNumber":44,"Velocity":67,"Duration":101542,"SoundDuration":101542,"Delta":44030637},{"NoteNumber":76,"Velocity":81,"Duration":76226,"SoundDuration":76226,"Delta":44081399},{"NoteNumber":43,"Velocity":67,"Duration":101781,"SoundDuration":101781,"Delta":44132180},{"NoteNumber":88,"Velocity":73,"Duration":76335,"SoundDuration":76335,"Delta":44157625},{"NoteNumber":32,"Velocity":73,"Duration":160428,"SoundDuration":160428,"Delta":44233961},{"NoteNumber":44,"Velocity":73,"Duration":160428,"SoundDuration":160428,"Delta":44233961},{"NoteNumber":77,"Velocity":71,"Duration":80214,"SoundDuration":80214,"Delta":44314175},{"NoteNumber":80,"Velocity":76,"Duration":76726,"SoundDuration":76726,"Delta":44394389},{"NoteNumber":84,"Velocity":81,"Duration":76726,"SoundDuration":76726,"Delta":44471115},{"NoteNumber":89,"Velocity":86,"Duration":153452,"SoundDuration":153452,"Delta":44547842},{"NoteNumber":32,"Velocity":63,"Duration":76726,"SoundDuration":76726,"Delta":44701294},{"NoteNumber":44,"Velocity":63,"Duration":76726,"SoundDuration":76726,"Delta":44701294},{"NoteNumber":34,"Velocity":70,"Duration":159151,"SoundDuration":159151,"Delta":44854747},{"NoteNumber":46,"Velocity":70,"Duration":159151,"SoundDuration":159151,"Delta":44854747},{"NoteNumber":74,"Velocity":75,"Duration":79575,"SoundDuration":79575,"Delta":44934322},{"NoteNumber":77,"Velocity":79,"Duration":76726,"SoundDuration":76726,"Delta":45013898},{"NoteNumber":80,"Velocity":82,"Duration":76726,"SoundDuration":76726,"Delta":45090624},{"NoteNumber":86,"Velocity":86,"Duration":153452,"SoundDuration":153452,"Delta":45167350},{"NoteNumber":34,"Velocity":63,"Duration":81080,"SoundDuration":81080,"Delta":45320803},{"NoteNumber":46,"Velocity":63,"Duration":81080,"SoundDuration":81080,"Delta":45320803},{"NoteNumber":75,"Velocity":80,"Duration":308483,"SoundDuration":308483,"Delta":45482239},{"NoteNumber":82,"Velocity":80,"Duration":308483,"SoundDuration":308483,"Delta":45482239},{"NoteNumber":79,"Velocity":80,"Duration":308483,"SoundDuration":308483,"Delta":45482239},{"NoteNumber":87,"Velocity":94,"Duration":308483,"SoundDuration":308483,"Delta":45482239},{"NoteNumber":39,"Velocity":59,"Duration":308483,"SoundDuration":308483,"Delta":45482239},{"NoteNumber":43,"Velocity":59,"Duration":308483,"SoundDuration":308483,"Delta":45482239},{"NoteNumber":46,"Velocity":59,"Duration":308483,"SoundDuration":308483,"Delta":45482239},{"NoteNumber":51,"Velocity":70,"Duration":308483,"SoundDuration":308483,"Delta":45482239},{"NoteNumber":82,"Velocity":63,"Duration":74441,"SoundDuration":74441,"Delta":45790722},{"NoteNumber":64,"Velocity":53,"Duration":74441,"SoundDuration":74441,"Delta":45790722},{"NoteNumber":67,"Velocity":63,"Duration":74441,"SoundDuration":74441,"Delta":45790722},{"NoteNumber":82,"Velocity":63,"Duration":78533,"SoundDuration":78533,"Delta":45939605},{"NoteNumber":64,"Velocity":53,"Duration":78533,"SoundDuration":78533,"Delta":45939605},{"NoteNumber":67,"Velocity":63,"Duration":78533,"SoundDuration":78533,"Delta":45939605},{"NoteNumber":82,"Velocity":70,"Duration":153846,"SoundDuration":153846,"Delta":46096673},{"NoteNumber":65,"Velocity":59,"Duration":153846,"SoundDuration":153846,"Delta":46096673},{"NoteNumber":68,"Velocity":70,"Duration":153846,"SoundDuration":153846,"Delta":46096673},{"NoteNumber":82,"Velocity":63,"Duration":74441,"SoundDuration":74441,"Delta":46404365},{"NoteNumber":64,"Velocity":53,"Duration":74441,"SoundDuration":74441,"Delta":46404365},{"NoteNumber":67,"Velocity":63,"Duration":74441,"SoundDuration":74441,"Delta":46404365},{"NoteNumber":82,"Velocity":63,"Duration":78533,"SoundDuration":78533,"Delta":46553249},{"NoteNumber":64,"Velocity":53,"Duration":78533,"SoundDuration":78533,"Delta":46553249},{"NoteNumber":67,"Velocity":63,"Duration":78533,"SoundDuration":78533,"Delta":46553249},{"NoteNumber":82,"Velocity":69,"Duration":154241,"SoundDuration":154241,"Delta":46710317},{"NoteNumber":65,"Velocity":59,"Duration":154241,"SoundDuration":154241,"Delta":46710317},{"NoteNumber":68,"Velocity":70,"Duration":154241,"SoundDuration":154241,"Delta":46710317},{"NoteNumber":53,"Velocity":60,"Duration":152284,"SoundDuration":152284,"Delta":47018800},{"NoteNumber":56,"Velocity":60,"Duration":152284,"SoundDuration":152284,"Delta":47018800},{"NoteNumber":62,"Velocity":72,"Duration":152284,"SoundDuration":152284,"Delta":47018800},{"NoteNumber":34,"Velocity":63,"Duration":152284,"SoundDuration":152284,"Delta":47018800},{"NoteNumber":46,"Velocity":74,"Duration":152284,"SoundDuration":152284,"Delta":47018800},{"NoteNumber":53,"Velocity":33,"Duration":77720,"SoundDuration":77720,"Delta":47627938},{"NoteNumber":56,"Velocity":33,"Duration":77720,"SoundDuration":77720,"Delta":47627938},{"NoteNumber":62,"Velocity":39,"Duration":77720,"SoundDuration":77720,"Delta":47627938},{"NoteNumber":35,"Velocity":30,"Duration":77720,"SoundDuration":77720,"Delta":47627938},{"NoteNumber":47,"Velocity":36,"Duration":77720,"SoundDuration":77720,"Delta":47627938},{"NoteNumber":55,"Velocity":37,"Duration":76335,"SoundDuration":76335,"Delta":47938819},{"NoteNumber":63,"Velocity":45,"Duration":76335,"SoundDuration":76335,"Delta":47938819},{"NoteNumber":36,"Velocity":32,"Duration":76335,"SoundDuration":76335,"Delta":47938819},{"NoteNumber":48,"Velocity":38,"Duration":76335,"SoundDuration":76335,"Delta":47938819},{"NoteNumber":60,"Velocity":35,"Duration":75566,"SoundDuration":75566,"Delta":48244163},{"NoteNumber":63,"Velocity":35,"Duration":75566,"SoundDuration":75566,"Delta":48244163},{"NoteNumber":65,"Velocity":41,"Duration":75566,"SoundDuration":75566,"Delta":48244163},{"NoteNumber":33,"Velocity":30,"Duration":75566,"SoundDuration":75566,"Delta":48244163},{"NoteNumber":45,"Velocity":36,"Duration":75566,"SoundDuration":75566,"Delta":48244163},{"NoteNumber":58,"Velocity":37,"Duration":75566,"SoundDuration":75566,"Delta":48546430},{"NoteNumber":63,"Velocity":37,"Duration":75566,"SoundDuration":75566,"Delta":48546430},{"NoteNumber":67,"Velocity":45,"Duration":75566,"SoundDuration":75566,"Delta":48546430},{"NoteNumber":34,"Velocity":32,"Duration":75566,"SoundDuration":75566,"Delta":48546430},{"NoteNumber":46,"Velocity":38,"Duration":75566,"SoundDuration":75566,"Delta":48546430},{"NoteNumber":56,"Velocity":33,"Duration":77720,"SoundDuration":77720,"Delta":48848697},{"NoteNumber":62,"Velocity":33,"Duration":77720,"SoundDuration":77720,"Delta":48848697},{"NoteNumber":65,"Velocity":39,"Duration":77720,"SoundDuration":77720,"Delta":48848697},{"NoteNumber":34,"Velocity":27,"Duration":77720,"SoundDuration":77720,"Delta":48848697},{"NoteNumber":46,"Velocity":33,"Duration":77720,"SoundDuration":77720,"Delta":48848697},{"NoteNumber":55,"Velocity":37,"Duration":76142,"SoundDuration":76142,"Delta":49159578},{"NoteNumber":63,"Velocity":45,"Duration":76142,"SoundDuration":76142,"Delta":49159578},{"NoteNumber":39,"Velocity":32,"Duration":76142,"SoundDuration":76142,"Delta":49159578},{"NoteNumber":51,"Velocity":38,"Duration":76142,"SoundDuration":76142,"Delta":49159578},{"NoteNumber":82,"Velocity":63,"Duration":74441,"SoundDuration":74441,"Delta":49464147},{"NoteNumber":64,"Velocity":53,"Duration":74441,"SoundDuration":74441,"Delta":49464147},{"NoteNumber":67,"Velocity":63,"Duration":74441,"SoundDuration":74441,"Delta":49464147},{"NoteNumber":84,"Velocity":59,"Duration":74441,"SoundDuration":74441,"Delta":49538588},{"NoteNumber":82,"Velocity":63,"Duration":78533,"SoundDuration":78533,"Delta":49613030},{"NoteNumber":64,"Velocity":53,"Duration":78533,"SoundDuration":78533,"Delta":49613030},{"NoteNumber":67,"Velocity":63,"Duration":78533,"SoundDuration":78533,"Delta":49613030},{"NoteNumber":81,"Velocity":59,"Duration":78534,"SoundDuration":78534,"Delta":49691564},{"NoteNumber":82,"Velocity":70,"Duration":153846,"SoundDuration":153846,"Delta":49770098},{"NoteNumber":65,"Velocity":59,"Duration":153846,"SoundDuration":153846,"Delta":49770098},{"NoteNumber":68,"Velocity":70,"Duration":153846,"SoundDuration":153846,"Delta":49770098},{"NoteNumber":82,"Velocity":63,"Duration":74441,"SoundDuration":74441,"Delta":50077790},{"NoteNumber":64,"Velocity":53,"Duration":74441,"SoundDuration":74441,"Delta":50077790},{"NoteNumber":67,"Velocity":63,"Duration":74441,"SoundDuration":74441,"Delta":50077790},{"NoteNumber":84,"Velocity":58,"Duration":74441,"SoundDuration":74441,"Delta":50152232},{"NoteNumber":82,"Velocity":63,"Duration":78533,"SoundDuration":78533,"Delta":50226674},{"NoteNumber":64,"Velocity":53,"Duration":78533,"SoundDuration":78533,"Delta":50226674},{"NoteNumber":67,"Velocity":63,"Duration":78533,"SoundDuration":78533,"Delta":50226674},{"NoteNumber":81,"Velocity":57,"Duration":78534,"SoundDuration":78534,"Delta":50305208},{"NoteNumber":82,"Velocity":69,"Duration":154241,"SoundDuration":154241,"Delta":50383742},{"NoteNumber":65,"Velocity":59,"Duration":154241,"SoundDuration":154241,"Delta":50383742},{"NoteNumber":68,"Velocity":70,"Duration":154241,"SoundDuration":154241,"Delta":50383742},{"NoteNumber":53,"Velocity":60,"Duration":152284,"SoundDuration":152284,"Delta":50692225},{"NoteNumber":56,"Velocity":60,"Duration":152284,"SoundDuration":152284,"Delta":50692225},{"NoteNumber":62,"Velocity":72,"Duration":152284,"SoundDuration":152284,"Delta":50692225},{"NoteNumber":34,"Velocity":63,"Duration":152284,"SoundDuration":152284,"Delta":50692225},{"NoteNumber":46,"Velocity":74,"Duration":152284,"SoundDuration":152284,"Delta":50692225},{"NoteNumber":51,"Velocity":55,"Duration":615383,"SoundDuration":615383,"Delta":51301363},{"NoteNumber":54,"Velocity":55,"Duration":615383,"SoundDuration":615383,"Delta":51301363},{"NoteNumber":57,"Velocity":55,"Duration":615383,"SoundDuration":615383,"Delta":51301363},{"NoteNumber":63,"Velocity":66,"Duration":615383,"SoundDuration":615383,"Delta":51301363},{"NoteNumber":35,"Velocity":55,"Duration":615383,"SoundDuration":615383,"Delta":51301363},{"NoteNumber":39,"Velocity":55,"Duration":615383,"SoundDuration":615383,"Delta":51301363},{"NoteNumber":42,"Velocity":55,"Duration":615383,"SoundDuration":615383,"Delta":51301363},{"NoteNumber":47,"Velocity":65,"Duration":615383,"SoundDuration":615383,"Delta":51301363},{"NoteNumber":60,"Velocity":35,"Duration":75566,"SoundDuration":75566,"Delta":51916747},{"NoteNumber":63,"Velocity":35,"Duration":75566,"SoundDuration":75566,"Delta":51916747},{"NoteNumber":65,"Velocity":41,"Duration":75566,"SoundDuration":75566,"Delta":51916747},{"NoteNumber":33,"Velocity":30,"Duration":75566,"SoundDuration":75566,"Delta":51916747},{"NoteNumber":45,"Velocity":36,"Duration":75566,"SoundDuration":75566,"Delta":51916747},{"NoteNumber":58,"Velocity":37,"Duration":75566,"SoundDuration":75566,"Delta":52219014},{"NoteNumber":63,"Velocity":37,"Duration":75566,"SoundDuration":75566,"Delta":52219014},{"NoteNumber":67,"Velocity":45,"Duration":75566,"SoundDuration":75566,"Delta":52219014},{"NoteNumber":34,"Velocity":32,"Duration":75566,"SoundDuration":75566,"Delta":52219014},{"NoteNumber":46,"Velocity":38,"Duration":75566,"SoundDuration":75566,"Delta":52219014},{"NoteNumber":56,"Velocity":33,"Duration":77720,"SoundDuration":77720,"Delta":52521281},{"NoteNumber":62,"Velocity":33,"Duration":77720,"SoundDuration":77720,"Delta":52521281},{"NoteNumber":65,"Velocity":39,"Duration":77720,"SoundDuration":77720,"Delta":52521281},{"NoteNumber":34,"Velocity":27,"Duration":77720,"SoundDuration":77720,"Delta":52521281},{"NoteNumber":46,"Velocity":33,"Duration":77720,"SoundDuration":77720,"Delta":52521281},{"NoteNumber":55,"Velocity":37,"Duration":152284,"SoundDuration":152284,"Delta":52832162},{"NoteNumber":63,"Velocity":45,"Duration":152284,"SoundDuration":152284,"Delta":52832162},{"NoteNumber":39,"Velocity":32,"Duration":152284,"SoundDuration":152284,"Delta":52832162},{"NoteNumber":51,"Velocity":27,"Duration":152284,"SoundDuration":152284,"Delta":52984446},{"NoteNumber":62,"Velocity":30,"Duration":149999,"SoundDuration":149999,"Delta":53136731},{"NoteNumber":68,"Velocity":36,"Duration":149999,"SoundDuration":149999,"Delta":53136731},{"NoteNumber":63,"Velocity":27,"Duration":155039,"SoundDuration":155039,"Delta":53286731},{"NoteNumber":67,"Velocity":32,"Duration":155039,"SoundDuration":155039,"Delta":53286731},{"NoteNumber":39,"Velocity":32,"Duration":152284,"SoundDuration":152284,"Delta":53441770},{"NoteNumber":51,"Velocity":28,"Duration":152284,"SoundDuration":152284,"Delta":53594054},{"NoteNumber":68,"Velocity":31,"Duration":148147,"SoundDuration":148147,"Delta":53746339},{"NoteNumber":74,"Velocity":37,"Duration":148147,"SoundDuration":148147,"Delta":53746339},{"NoteNumber":67,"Velocity":27,"Duration":154639,"SoundDuration":154639,"Delta":53894487},{"NoteNumber":75,"Velocity":32,"Duration":154639,"SoundDuration":154639,"Delta":53894487},{"NoteNumber":39,"Velocity":32,"Duration":151898,"SoundDuration":151898,"Delta":54049126},{"NoteNumber":51,"Velocity":28,"Duration":151898,"SoundDuration":151898,"Delta":54201024},{"NoteNumber":80,"Velocity":37,"Duration":149253,"SoundDuration":149253,"Delta":54352923},{"NoteNumber":74,"Velocity":31,"Duration":149253,"SoundDuration":149253,"Delta":54352923},{"NoteNumber":75,"Velocity":27,"Duration":155039,"SoundDuration":155039,"Delta":54502176},{"NoteNumber":79,"Velocity":32,"Duration":155039,"SoundDuration":155039,"Delta":54502176},{"NoteNumber":39,"Velocity":32,"Duration":151898,"SoundDuration":151898,"Delta":54657215},{"NoteNumber":51,"Velocity":27,"Duration":151898,"SoundDuration":151898,"Delta":54809114},{"NoteNumber":86,"Velocity":43,"Duration":149999,"SoundDuration":149999,"Delta":54961012},{"NoteNumber":80,"Velocity":36,"Duration":149999,"SoundDuration":149999,"Delta":54961012},{"NoteNumber":79,"Velocity":30,"Duration":158729,"SoundDuration":158729,"Delta":55111012},{"NoteNumber":87,"Velocity":36,"Duration":158729,"SoundDuration":158729,"Delta":55111012},{"NoteNumber":39,"Velocity":32,"Duration":323450,"SoundDuration":323450,"Delta":55269742},{"NoteNumber":55,"Velocity":48,"Duration":306905,"SoundDuration":306905,"Delta":55593192},{"NoteNumber":58,"Velocity":48,"Duration":306905,"SoundDuration":306905,"Delta":55593192},{"NoteNumber":63,"Velocity":57,"Duration":306905,"SoundDuration":306905,"Delta":55593192},{"NoteNumber":60,"Velocity":40,"Duration":147419,"SoundDuration":147419,"Delta":56974265},{"NoteNumber":48,"Velocity":36,"Duration":147419,"SoundDuration":147419,"Delta":56974265},{"NoteNumber":59,"Velocity":45,"Duration":147420,"SoundDuration":147420,"Delta":57121685},{"NoteNumber":47,"Velocity":38,"Duration":147420,"SoundDuration":147420,"Delta":57121685},{"NoteNumber":60,"Velocity":40,"Duration":147419,"SoundDuration":147419,"Delta":57269105},{"NoteNumber":48,"Velocity":35,"Duration":147419,"SoundDuration":147419,"Delta":57269105},{"NoteNumber":65,"Velocity":45,"Duration":71598,"SoundDuration":71598,"Delta":57416525},{"NoteNumber":53,"Velocity":38,"Duration":71598,"SoundDuration":71598,"Delta":57416525},{"NoteNumber":65,"Velocity":38,"Duration":87463,"SoundDuration":87463,"Delta":57559723},{"NoteNumber":53,"Velocity":34,"Duration":87463,"SoundDuration":87463,"Delta":57559723},{"NoteNumber":63,"Velocity":45,"Duration":291262,"SoundDuration":291262,"Delta":57734650},{"NoteNumber":51,"Velocity":38,"Duration":291262,"SoundDuration":291262,"Delta":57734650},{"NoteNumber":60,"Velocity":40,"Duration":147419,"SoundDuration":147419,"Delta":58171543},{"NoteNumber":48,"Velocity":36,"Duration":147419,"SoundDuration":147419,"Delta":58171543},{"NoteNumber":59,"Velocity":45,"Duration":147420,"SoundDuration":147420,"Delta":58318963},{"NoteNumber":47,"Velocity":38,"Duration":147420,"SoundDuration":147420,"Delta":58318963},{"NoteNumber":60,"Velocity":40,"Duration":147419,"SoundDuration":147419,"Delta":58466383},{"NoteNumber":48,"Velocity":35,"Duration":147419,"SoundDuration":147419,"Delta":58466383},{"NoteNumber":68,"Velocity":45,"Duration":71770,"SoundDuration":71770,"Delta":58613803},{"NoteNumber":56,"Velocity":38,"Duration":71770,"SoundDuration":71770,"Delta":58613803},{"NoteNumber":68,"Velocity":38,"Duration":87719,"SoundDuration":87719,"Delta":58757343},{"NoteNumber":56,"Velocity":34,"Duration":87719,"SoundDuration":87719,"Delta":58757343},{"NoteNumber":67,"Velocity":45,"Duration":291262,"SoundDuration":291262,"Delta":58932782},{"NoteNumber":55,"Velocity":38,"Duration":291262,"SoundDuration":291262,"Delta":58932782},{"NoteNumber":60,"Velocity":40,"Duration":147419,"SoundDuration":147419,"Delta":59369675},{"NoteNumber":59,"Velocity":45,"Duration":147420,"SoundDuration":147420,"Delta":59517095},{"NoteNumber":60,"Velocity":40,"Duration":147419,"SoundDuration":147419,"Delta":59664515},{"NoteNumber":72,"Velocity":45,"Duration":73170,"SoundDuration":73170,"Delta":59811935},{"NoteNumber":72,"Velocity":38,"Duration":86455,"SoundDuration":86455,"Delta":59958276},{"NoteNumber":72,"Velocity":45,"Duration":146699,"SoundDuration":146699,"Delta":60131187},{"NoteNumber":56,"Velocity":38,"Duration":1202178,"SoundDuration":1202178,"Delta":60131187},{"NoteNumber":60,"Velocity":38,"Duration":1202178,"SoundDuration":1202178,"Delta":60131187},{"NoteNumber":66,"Velocity":38,"Duration":1202178,"SoundDuration":1202178,"Delta":60131187},{"NoteNumber":74,"Velocity":45,"Duration":36674,"SoundDuration":36674,"Delta":60277886},{"NoteNumber":72,"Velocity":45,"Duration":36674,"SoundDuration":36674,"Delta":60314561},{"NoteNumber":71,"Velocity":40,"Duration":36674,"SoundDuration":36674,"Delta":60351236},{"NoteNumber":72,"Velocity":45,"Duration":36674,"SoundDuration":36674,"Delta":60387911},{"NoteNumber":75,"Velocity":50,"Duration":146699,"SoundDuration":146699,"Delta":60424586},{"NoteNumber":74,"Velocity":45,"Duration":153563,"SoundDuration":153563,"Delta":60571285},{"NoteNumber":77,"Velocity":56,"Duration":146341,"SoundDuration":146341,"Delta":60724849},{"NoteNumber":75,"Velocity":53,"Duration":146341,"SoundDuration":146341,"Delta":60871190},{"NoteNumber":74,"Velocity":50,"Duration":146341,"SoundDuration":146341,"Delta":61017532},{"NoteNumber":72,"Velocity":47,"Duration":169491,"SoundDuration":169491,"Delta":61163873},{"NoteNumber":71,"Velocity":51,"Duration":291262,"SoundDuration":291262,"Delta":61333365},{"NoteNumber":67,"Velocity":38,"Duration":291262,"SoundDuration":291262,"Delta":61333365},{"NoteNumber":62,"Velocity":32,"Duration":291262,"SoundDuration":291262,"Delta":61333365},{"NoteNumber":55,"Velocity":32,"Duration":291262,"SoundDuration":291262,"Delta":61333365},{"NoteNumber":55,"Velocity":40,"Duration":145631,"SoundDuration":145631,"Delta":61770258},{"NoteNumber":43,"Velocity":36,"Duration":145631,"SoundDuration":145631,"Delta":61770258},{"NoteNumber":54,"Velocity":45,"Duration":146341,"SoundDuration":146341,"Delta":61915889},{"NoteNumber":42,"Velocity":38,"Duration":146341,"SoundDuration":146341,"Delta":61915889},{"NoteNumber":55,"Velocity":40,"Duration":146341,"SoundDuration":146341,"Delta":62062230},{"NoteNumber":43,"Velocity":35,"Duration":146341,"SoundDuration":146341,"Delta":62062230},{"NoteNumber":60,"Velocity":45,"Duration":73170,"SoundDuration":73170,"Delta":62208572},{"NoteNumber":48,"Velocity":38,"Duration":73170,"SoundDuration":73170,"Delta":62208572},{"NoteNumber":60,"Velocity":38,"Duration":84745,"SoundDuration":84745,"Delta":62354913},{"NoteNumber":48,"Velocity":34,"Duration":84745,"SoundDuration":84745,"Delta":62354913},{"NoteNumber":59,"Velocity":45,"Duration":291970,"SoundDuration":291970,"Delta":62524405},{"NoteNumber":47,"Velocity":38,"Duration":291970,"SoundDuration":291970,"Delta":62524405},{"NoteNumber":55,"Velocity":40,"Duration":145985,"SoundDuration":145985,"Delta":62962361},{"NoteNumber":43,"Velocity":36,"Duration":145985,"SoundDuration":145985,"Delta":62962361},{"NoteNumber":54,"Velocity":45,"Duration":147419,"SoundDuration":147419,"Delta":63108347},{"NoteNumber":42,"Velocity":38,"Duration":147419,"SoundDuration":147419,"Delta":63108347},{"NoteNumber":55,"Velocity":40,"Duration":147420,"SoundDuration":147420,"Delta":63255767},{"NoteNumber":43,"Velocity":35,"Duration":147420,"SoundDuration":147420,"Delta":63255767},{"NoteNumber":63,"Velocity":45,"Duration":73170,"SoundDuration":73170,"Delta":63403187},{"NoteNumber":51,"Velocity":38,"Duration":73170,"SoundDuration":73170,"Delta":63403187},{"NoteNumber":63,"Velocity":38,"Duration":85714,"SoundDuration":85714,"Delta":63549528},{"NoteNumber":51,"Velocity":34,"Duration":85714,"SoundDuration":85714,"Delta":63549528},{"NoteNumber":62,"Velocity":45,"Duration":296295,"SoundDuration":296295,"Delta":63720957},{"NoteNumber":50,"Velocity":38,"Duration":296295,"SoundDuration":296295,"Delta":63720957},{"NoteNumber":55,"Velocity":45,"Duration":74073,"SoundDuration":74073,"Delta":64165401},{"NoteNumber":43,"Velocity":37,"Duration":74073,"SoundDuration":74073,"Delta":64165401},{"NoteNumber":59,"Velocity":51,"Duration":73170,"SoundDuration":73170,"Delta":64313549},{"NoteNumber":47,"Velocity":43,"Duration":73170,"SoundDuration":73170,"Delta":64313549},{"NoteNumber":62,"Velocity":45,"Duration":73170,"SoundDuration":73170,"Delta":64459890},{"NoteNumber":50,"Velocity":37,"Duration":73170,"SoundDuration":73170,"Delta":64459890},{"NoteNumber":65,"Velocity":45,"Duration":73170,"SoundDuration":73170,"Delta":64606232},{"NoteNumber":53,"Velocity":37,"Duration":73170,"SoundDuration":73170,"Delta":64606232},{"NoteNumber":68,"Velocity":45,"Duration":73170,"SoundDuration":73170,"Delta":64752573},{"NoteNumber":56,"Velocity":37,"Duration":73170,"SoundDuration":73170,"Delta":64752573},{"NoteNumber":71,"Velocity":55,"Duration":73170,"SoundDuration":73170,"Delta":64898915},{"NoteNumber":59,"Velocity":46,"Duration":73170,"SoundDuration":73170,"Delta":64898915},{"NoteNumber":74,"Velocity":53,"Duration":73170,"SoundDuration":73170,"Delta":65045256},{"NoteNumber":62,"Velocity":45,"Duration":73170,"SoundDuration":73170,"Delta":65045256},{"NoteNumber":77,"Velocity":56,"Duration":73170,"SoundDuration":73170,"Delta":65191598},{"NoteNumber":65,"Velocity":47,"Duration":73170,"SoundDuration":73170,"Delta":65191598},{"NoteNumber":80,"Velocity":60,"Duration":76142,"SoundDuration":76142,"Delta":65337939},{"NoteNumber":68,"Velocity":50,"Duration":76142,"SoundDuration":76142,"Delta":65337939},{"NoteNumber":79,"Velocity":63,"Duration":73710,"SoundDuration":73710,"Delta":65490224},{"NoteNumber":67,"Velocity":53,"Duration":73710,"SoundDuration":73710,"Delta":65490224},{"NoteNumber":77,"Velocity":59,"Duration":73710,"SoundDuration":73710,"Delta":65637644},{"NoteNumber":65,"Velocity":50,"Duration":73710,"SoundDuration":73710,"Delta":65637644},{"NoteNumber":75,"Velocity":55,"Duration":73710,"SoundDuration":73710,"Delta":65785064},{"NoteNumber":63,"Velocity":46,"Duration":73710,"SoundDuration":73710,"Delta":65785064},{"NoteNumber":74,"Velocity":54,"Duration":84507,"SoundDuration":84507,"Delta":65932484},{"NoteNumber":62,"Velocity":45,"Duration":84507,"SoundDuration":84507,"Delta":65932484},{"NoteNumber":72,"Velocity":62,"Duration":293398,"SoundDuration":293398,"Delta":66101498},{"NoteNumber":60,"Velocity":42,"Duration":73349,"SoundDuration":73349,"Delta":66101498},{"NoteNumber":63,"Velocity":32,"Duration":73349,"SoundDuration":73349,"Delta":66248197},{"NoteNumber":67,"Velocity":38,"Duration":73349,"SoundDuration":73349,"Delta":66248197},{"NoteNumber":63,"Velocity":32,"Duration":73349,"SoundDuration":73349,"Delta":66394897},{"NoteNumber":67,"Velocity":38,"Duration":73349,"SoundDuration":73349,"Delta":66394897},{"NoteNumber":72,"Velocity":50,"Duration":146699,"SoundDuration":146699,"Delta":66541596},{"NoteNumber":63,"Velocity":32,"Duration":73349,"SoundDuration":73349,"Delta":66541596},{"NoteNumber":67,"Velocity":38,"Duration":73349,"SoundDuration":73349,"Delta":66541596},{"NoteNumber":71,"Velocity":57,"Duration":147783,"SoundDuration":147783,"Delta":66688296},{"NoteNumber":60,"Velocity":42,"Duration":73891,"SoundDuration":73891,"Delta":66688296},{"NoteNumber":72,"Velocity":53,"Duration":147783,"SoundDuration":147783,"Delta":66836079},{"NoteNumber":64,"Velocity":31,"Duration":73891,"SoundDuration":73891,"Delta":66836079},{"NoteNumber":67,"Velocity":31,"Duration":73891,"SoundDuration":73891,"Delta":66836079},{"NoteNumber":70,"Velocity":37,"Duration":73891,"SoundDuration":73891,"Delta":66836079},{"NoteNumber":84,"Velocity":60,"Duration":73170,"SoundDuration":73170,"Delta":66983863},{"NoteNumber":64,"Velocity":31,"Duration":73170,"SoundDuration":73170,"Delta":66983863},{"NoteNumber":67,"Velocity":31,"Duration":73170,"SoundDuration":73170,"Delta":66983863},{"NoteNumber":70,"Velocity":37,"Duration":73170,"SoundDuration":73170,"Delta":66983863},{"NoteNumber":84,"Velocity":52,"Duration":84269,"SoundDuration":84269,"Delta":67130204},{"NoteNumber":64,"Velocity":31,"Duration":84269,"SoundDuration":84269,"Delta":67130204},{"NoteNumber":67,"Velocity":31,"Duration":84269,"SoundDuration":84269,"Delta":67130204},{"NoteNumber":70,"Velocity":37,"Duration":84269,"SoundDuration":84269,"Delta":67130204},{"NoteNumber":84,"Velocity":60,"Duration":293041,"SoundDuration":293041,"Delta":67298744},{"NoteNumber":60,"Velocity":42,"Duration":73529,"SoundDuration":73529,"Delta":67298744},{"NoteNumber":65,"Velocity":32,"Duration":73170,"SoundDuration":73170,"Delta":67445444},{"NoteNumber":68,"Velocity":38,"Duration":73170,"SoundDuration":73170,"Delta":67445444},{"NoteNumber":65,"Velocity":32,"Duration":73170,"SoundDuration":73170,"Delta":67591786},{"NoteNumber":68,"Velocity":38,"Duration":73170,"SoundDuration":73170,"Delta":67591786},{"NoteNumber":89,"Velocity":59,"Duration":146341,"SoundDuration":146341,"Delta":67738127},{"NoteNumber":65,"Velocity":32,"Duration":73170,"SoundDuration":73170,"Delta":67738127},{"NoteNumber":68,"Velocity":38,"Duration":73170,"SoundDuration":73170,"Delta":67738127},{"NoteNumber":87,"Velocity":65,"Duration":146341,"SoundDuration":146341,"Delta":67884469},{"NoteNumber":60,"Velocity":42,"Duration":73170,"SoundDuration":73170,"Delta":67884469},{"NoteNumber":86,"Velocity":60,"Duration":146341,"SoundDuration":146341,"Delta":68030810},{"NoteNumber":65,"Velocity":31,"Duration":73170,"SoundDuration":73170,"Delta":68030810},{"NoteNumber":68,"Velocity":31,"Duration":73170,"SoundDuration":73170,"Delta":68030810},{"NoteNumber":71,"Velocity":37,"Duration":73170,"SoundDuration":73170,"Delta":68030810},{"NoteNumber":84,"Velocity":66,"Duration":146341,"SoundDuration":146341,"Delta":68177152},{"NoteNumber":65,"Velocity":31,"Duration":73170,"SoundDuration":73170,"Delta":68177152},{"NoteNumber":68,"Velocity":31,"Duration":73170,"SoundDuration":73170,"Delta":68177152},{"NoteNumber":71,"Velocity":37,"Duration":73170,"SoundDuration":73170,"Delta":68177152},{"NoteNumber":83,"Velocity":60,"Duration":157480,"SoundDuration":157480,"Delta":68323493},{"NoteNumber":65,"Velocity":31,"Duration":78740,"SoundDuration":78740,"Delta":68323493},{"NoteNumber":68,"Velocity":31,"Duration":78740,"SoundDuration":78740,"Delta":68323493},{"NoteNumber":71,"Velocity":37,"Duration":78740,"SoundDuration":78740,"Delta":68323493},{"NoteNumber":86,"Velocity":69,"Duration":145630,"SoundDuration":145630,"Delta":68480974},{"NoteNumber":60,"Velocity":42,"Duration":72815,"SoundDuration":72815,"Delta":68480974},{"NoteNumber":84,"Velocity":60,"Duration":145631,"SoundDuration":145631,"Delta":68626605},{"NoteNumber":63,"Velocity":32,"Duration":72815,"SoundDuration":72815,"Delta":68626605},{"NoteNumber":67,"Velocity":38,"Duration":72815,"SoundDuration":72815,"Delta":68626605},{"NoteNumber":63,"Velocity":32,"Duration":72815,"SoundDuration":72815,"Delta":68772236},{"NoteNumber":67,"Velocity":38,"Duration":72815,"SoundDuration":72815,"Delta":68772236},{"NoteNumber":72,"Velocity":50,"Duration":145631,"SoundDuration":145631,"Delta":68917867},{"NoteNumber":63,"Velocity":32,"Duration":72815,"SoundDuration":72815,"Delta":68917867},{"NoteNumber":67,"Velocity":38,"Duration":72815,"SoundDuration":72815,"Delta":68917867},{"NoteNumber":71,"Velocity":57,"Duration":147419,"SoundDuration":147419,"Delta":69063498},{"NoteNumber":60,"Velocity":42,"Duration":73710,"SoundDuration":73710,"Delta":69063498},{"NoteNumber":72,"Velocity":53,"Duration":147419,"SoundDuration":147419,"Delta":69210918},{"NoteNumber":64,"Velocity":31,"Duration":73710,"SoundDuration":73710,"Delta":69210918},{"NoteNumber":67,"Velocity":31,"Duration":73710,"SoundDuration":73710,"Delta":69210918},{"NoteNumber":70,"Velocity":37,"Duration":73710,"SoundDuration":73710,"Delta":69210918},{"NoteNumber":84,"Velocity":60,"Duration":73170,"SoundDuration":73170,"Delta":69358338},{"NoteNumber":64,"Velocity":31,"Duration":73170,"SoundDuration":73170,"Delta":69358338},{"NoteNumber":67,"Velocity":31,"Duration":73170,"SoundDuration":73170,"Delta":69358338},{"NoteNumber":70,"Velocity":37,"Duration":73170,"SoundDuration":73170,"Delta":69358338},{"NoteNumber":84,"Velocity":52,"Duration":84507,"SoundDuration":84507,"Delta":69504679},{"NoteNumber":64,"Velocity":31,"Duration":84507,"SoundDuration":84507,"Delta":69504679},{"NoteNumber":67,"Velocity":31,"Duration":84507,"SoundDuration":84507,"Delta":69504679},{"NoteNumber":70,"Velocity":37,"Duration":84507,"SoundDuration":84507,"Delta":69504679},{"NoteNumber":84,"Velocity":60,"Duration":292682,"SoundDuration":292682,"Delta":69673693},{"NoteNumber":60,"Velocity":42,"Duration":73170,"SoundDuration":73170,"Delta":69673693},{"NoteNumber":65,"Velocity":32,"Duration":73170,"SoundDuration":73170,"Delta":69820035},{"NoteNumber":68,"Velocity":38,"Duration":73170,"SoundDuration":73170,"Delta":69820035},{"NoteNumber":86,"Velocity":60,"Duration":38167,"SoundDuration":38167,"Delta":69966376},{"NoteNumber":65,"Velocity":32,"Duration":76335,"SoundDuration":76335,"Delta":69966376},{"NoteNumber":68,"Velocity":38,"Duration":76335,"SoundDuration":76335,"Delta":69966376},{"NoteNumber":84,"Velocity":60,"Duration":38167,"SoundDuration":38167,"Delta":70004544},{"NoteNumber":83,"Velocity":60,"Duration":38167,"SoundDuration":38167,"Delta":70042712},{"NoteNumber":84,"Velocity":60,"Duration":38167,"SoundDuration":38167,"Delta":70080880},{"NoteNumber":89,"Velocity":59,"Duration":146341,"SoundDuration":146341,"Delta":70119048},{"NoteNumber":65,"Velocity":32,"Duration":73170,"SoundDuration":73170,"Delta":70119048},{"NoteNumber":68,"Velocity":38,"Duration":73170,"SoundDuration":73170,"Delta":70119048},{"NoteNumber":87,"Velocity":65,"Duration":145985,"SoundDuration":145985,"Delta":70265390},{"NoteNumber":60,"Velocity":42,"Duration":72992,"SoundDuration":72992,"Delta":70265390},{"NoteNumber":86,"Velocity":60,"Duration":145985,"SoundDuration":145985,"Delta":70411375},{"NoteNumber":65,"Velocity":31,"Duration":72992,"SoundDuration":72992,"Delta":70411375},{"NoteNumber":68,"Velocity":31,"Duration":72992,"SoundDuration":72992,"Delta":70411375},{"NoteNumber":71,"Velocity":37,"Duration":72992,"SoundDuration":72992,"Delta":70411375},{"NoteNumber":84,"Velocity":66,"Duration":145985,"SoundDuration":145985,"Delta":70557361},{"NoteNumber":65,"Velocity":31,"Duration":72992,"SoundDuration":72992,"Delta":70557361},{"NoteNumber":68,"Velocity":31,"Duration":72992,"SoundDuration":72992,"Delta":70557361},{"NoteNumber":71,"Velocity":37,"Duration":72992,"SoundDuration":72992,"Delta":70557361},{"NoteNumber":83,"Velocity":60,"Duration":156657,"SoundDuration":156657,"Delta":70703346},{"NoteNumber":65,"Velocity":31,"Duration":78328,"SoundDuration":78328,"Delta":70703346},{"NoteNumber":68,"Velocity":31,"Duration":78328,"SoundDuration":78328,"Delta":70703346},{"NoteNumber":71,"Velocity":37,"Duration":78328,"SoundDuration":78328,"Delta":70703346},{"NoteNumber":84,"Velocity":69,"Duration":73349,"SoundDuration":73349,"Delta":70860004},{"NoteNumber":60,"Velocity":36,"Duration":293398,"SoundDuration":293398,"Delta":70860004},{"NoteNumber":63,"Velocity":36,"Duration":293398,"SoundDuration":293398,"Delta":70860004},{"NoteNumber":67,"Velocity":36,"Duration":293398,"SoundDuration":293398,"Delta":70860004},{"NoteNumber":72,"Velocity":44,"Duration":293399,"SoundDuration":293399,"Delta":70864283},{"NoteNumber":86,"Velocity":63,"Duration":73349,"SoundDuration":73349,"Delta":70933354},{"NoteNumber":84,"Velocity":63,"Duration":73349,"SoundDuration":73349,"Delta":71006704},{"NoteNumber":83,"Velocity":63,"Duration":73349,"SoundDuration":73349,"Delta":71080053},{"NoteNumber":84,"Velocity":69,"Duration":73349,"SoundDuration":73349,"Delta":71153403},{"NoteNumber":87,"Velocity":73,"Duration":73349,"SoundDuration":73349,"Delta":71226753},{"NoteNumber":86,"Velocity":72,"Duration":73349,"SoundDuration":73349,"Delta":71300103},{"NoteNumber":66,"Velocity":42,"Duration":165092,"SoundDuration":165092,"Delta":71300103},{"NoteNumber":84,"Velocity":71,"Duration":91742,"SoundDuration":91742,"Delta":71373452},{"NoteNumber":83,"Velocity":72,"Duration":73170,"SoundDuration":73170,"Delta":71465195},{"NoteNumber":67,"Velocity":52,"Duration":292682,"SoundDuration":292682,"Delta":71465195},{"NoteNumber":84,"Velocity":65,"Duration":73170,"SoundDuration":73170,"Delta":71538366},{"NoteNumber":83,"Velocity":65,"Duration":73170,"SoundDuration":73170,"Delta":71611537},{"NoteNumber":80,"Velocity":65,"Duration":73170,"SoundDuration":73170,"Delta":71684708},{"NoteNumber":79,"Velocity":69,"Duration":73170,"SoundDuration":73170,"Delta":71757878},{"NoteNumber":77,"Velocity":63,"Duration":73170,"SoundDuration":73170,"Delta":71831049},{"NoteNumber":75,"Velocity":63,"Duration":73170,"SoundDuration":73170,"Delta":71904220},{"NoteNumber":59,"Velocity":48,"Duration":164913,"SoundDuration":164913,"Delta":71904220},{"NoteNumber":74,"Velocity":63,"Duration":91742,"SoundDuration":91742,"Delta":71977391},{"NoteNumber":72,"Velocity":69,"Duration":73349,"SoundDuration":73349,"Delta":72069134},{"NoteNumber":60,"Velocity":57,"Duration":293398,"SoundDuration":293398,"Delta":72069134},{"NoteNumber":74,"Velocity":63,"Duration":73349,"SoundDuration":73349,"Delta":72142483},{"NoteNumber":72,"Velocity":63,"Duration":73349,"SoundDuration":73349,"Delta":72215833},{"NoteNumber":71,"Velocity":61,"Duration":73349,"SoundDuration":73349,"Delta":72289183},{"NoteNumber":72,"Velocity":66,"Duration":73349,"SoundDuration":73349,"Delta":72362533},{"NoteNumber":75,"Velocity":72,"Duration":73349,"SoundDuration":73349,"Delta":72435882},{"NoteNumber":74,"Velocity":70,"Duration":73349,"SoundDuration":73349,"Delta":72509232},{"NoteNumber":54,"Velocity":54,"Duration":165374,"SoundDuration":165374,"Delta":72509232},{"NoteNumber":72,"Velocity":67,"Duration":92024,"SoundDuration":92024,"Delta":72582582},{"NoteNumber":71,"Velocity":69,"Duration":73170,"SoundDuration":73170,"Delta":72674606},{"NoteNumber":55,"Velocity":63,"Duration":292682,"SoundDuration":292682,"Delta":72674606},{"NoteNumber":72,"Velocity":63,"Duration":73170,"SoundDuration":73170,"Delta":72747777},{"NoteNumber":71,"Velocity":63,"Duration":73170,"SoundDuration":73170,"Delta":72820948},{"NoteNumber":68,"Velocity":63,"Duration":73170,"SoundDuration":73170,"Delta":72894119},{"NoteNumber":67,"Velocity":69,"Duration":73170,"SoundDuration":73170,"Delta":72967289},{"NoteNumber":65,"Velocity":63,"Duration":73170,"SoundDuration":73170,"Delta":73040460},{"NoteNumber":63,"Velocity":63,"Duration":73170,"SoundDuration":73170,"Delta":73113631},{"NoteNumber":47,"Velocity":57,"Duration":164913,"SoundDuration":164913,"Delta":73113631},{"NoteNumber":62,"Velocity":63,"Duration":91742,"SoundDuration":91742,"Delta":73186802},{"NoteNumber":60,"Velocity":77,"Duration":73170,"SoundDuration":73170,"Delta":73278545},{"NoteNumber":48,"Velocity":66,"Duration":292682,"SoundDuration":292682,"Delta":73278545},{"NoteNumber":62,"Velocity":69,"Duration":73170,"SoundDuration":73170,"Delta":73351715},{"NoteNumber":60,"Velocity":69,"Duration":73170,"SoundDuration":73170,"Delta":73424886},{"NoteNumber":59,"Velocity":69,"Duration":73170,"SoundDuration":73170,"Delta":73498057},{"NoteNumber":60,"Velocity":77,"Duration":73170,"SoundDuration":73170,"Delta":73571228},{"NoteNumber":63,"Velocity":69,"Duration":73170,"SoundDuration":73170,"Delta":73644398},{"NoteNumber":62,"Velocity":69,"Duration":73170,"SoundDuration":73170,"Delta":73717569},{"NoteNumber":42,"Velocity":58,"Duration":164634,"SoundDuration":164634,"Delta":73717569},{"NoteNumber":60,"Velocity":69,"Duration":91463,"SoundDuration":91463,"Delta":73790740},{"NoteNumber":59,"Velocity":77,"Duration":74626,"SoundDuration":74626,"Delta":73882203},{"NoteNumber":43,"Velocity":67,"Duration":298507,"SoundDuration":298507,"Delta":73882203},{"NoteNumber":67,"Velocity":69,"Duration":74626,"SoundDuration":74626,"Delta":73956830},{"NoteNumber":62,"Velocity":69,"Duration":74626,"SoundDuration":74626,"Delta":74031457},{"NoteNumber":59,"Velocity":69,"Duration":74626,"SoundDuration":74626,"Delta":74106084},{"NoteNumber":55,"Velocity":79,"Duration":74626,"SoundDuration":74626,"Delta":74180710},{"NoteNumber":36,"Velocity":82,"Duration":149253,"SoundDuration":149253,"Delta":74180710},{"NoteNumber":48,"Velocity":96,"Duration":149253,"SoundDuration":149253,"Delta":74180710},{"NoteNumber":67,"Velocity":69,"Duration":74626,"SoundDuration":74626,"Delta":74255337},{"NoteNumber":63,"Velocity":69,"Duration":74626,"SoundDuration":74626,"Delta":74329964},{"NoteNumber":60,"Velocity":69,"Duration":74626,"SoundDuration":74626,"Delta":74404591},{"NoteNumber":55,"Velocity":81,"Duration":74626,"SoundDuration":74626,"Delta":74479217},{"NoteNumber":31,"Velocity":55,"Duration":149253,"SoundDuration":149253,"Delta":74479217},{"NoteNumber":43,"Velocity":66,"Duration":149253,"SoundDuration":149253,"Delta":74479217},{"NoteNumber":67,"Velocity":69,"Duration":74626,"SoundDuration":74626,"Delta":74553844},{"NoteNumber":62,"Velocity":69,"Duration":74626,"SoundDuration":74626,"Delta":74628471},{"NoteNumber":59,"Velocity":69,"Duration":74626,"SoundDuration":74626,"Delta":74703098},{"NoteNumber":55,"Velocity":80,"Duration":74626,"SoundDuration":74626,"Delta":74777724},{"NoteNumber":36,"Velocity":82,"Duration":149253,"SoundDuration":149253,"Delta":74777724},{"NoteNumber":48,"Velocity":97,"Duration":149253,"SoundDuration":149253,"Delta":74777724},{"NoteNumber":67,"Velocity":69,"Duration":74626,"SoundDuration":74626,"Delta":74852351},{"NoteNumber":63,"Velocity":69,"Duration":74626,"SoundDuration":74626,"Delta":74926978},{"NoteNumber":60,"Velocity":69,"Duration":74626,"SoundDuration":74626,"Delta":75001605},{"NoteNumber":55,"Velocity":80,"Duration":74626,"SoundDuration":74626,"Delta":75076231},{"NoteNumber":31,"Velocity":57,"Duration":149253,"SoundDuration":149253,"Delta":75076231},{"NoteNumber":43,"Velocity":68,"Duration":149253,"SoundDuration":149253,"Delta":75076231},{"NoteNumber":67,"Velocity":69,"Duration":74626,"SoundDuration":74626,"Delta":75150858},{"NoteNumber":62,"Velocity":69,"Duration":74626,"SoundDuration":74626,"Delta":75225485},{"NoteNumber":59,"Velocity":69,"Duration":74626,"SoundDuration":74626,"Delta":75300112},{"NoteNumber":55,"Velocity":80,"Duration":74626,"SoundDuration":74626,"Delta":75374738},{"NoteNumber":36,"Velocity":82,"Duration":149253,"SoundDuration":149253,"Delta":75374738},{"NoteNumber":48,"Velocity":97,"Duration":149253,"SoundDuration":149253,"Delta":75374738},{"NoteNumber":67,"Velocity":69,"Duration":74626,"SoundDuration":74626,"Delta":75449365},{"NoteNumber":63,"Velocity":69,"Duration":74626,"SoundDuration":74626,"Delta":75523992},{"NoteNumber":60,"Velocity":69,"Duration":89552,"SoundDuration":89552,"Delta":75598619},{"NoteNumber":55,"Velocity":74,"Duration":1100917,"SoundDuration":1100917,"Delta":75688171},{"NoteNumber":59,"Velocity":74,"Duration":1100917,"SoundDuration":1100917,"Delta":75688171},{"NoteNumber":62,"Velocity":74,"Duration":1100917,"SoundDuration":1100917,"Delta":75688171},{"NoteNumber":67,"Velocity":89,"Duration":1100917,"SoundDuration":1100917,"Delta":75688171},{"NoteNumber":31,"Velocity":66,"Duration":1100917,"SoundDuration":1100917,"Delta":75688171},{"NoteNumber":35,"Velocity":66,"Duration":1100917,"SoundDuration":1100917,"Delta":75688171},{"NoteNumber":38,"Velocity":66,"Duration":1100917,"SoundDuration":1100917,"Delta":75688171},{"NoteNumber":43,"Velocity":78,"Duration":1100917,"SoundDuration":1100917,"Delta":75688171},{"NoteNumber":58,"Velocity":40,"Duration":77319,"SoundDuration":77319,"Delta":76943728},{"NoteNumber":60,"Velocity":37,"Duration":77319,"SoundDuration":77319,"Delta":77098367},{"NoteNumber":62,"Velocity":37,"Duration":77319,"SoundDuration":77319,"Delta":77253006},{"NoteNumber":55,"Velocity":39,"Duration":635365,"SoundDuration":635365,"Delta":77407645},{"NoteNumber":58,"Velocity":39,"Duration":635365,"SoundDuration":635365,"Delta":77407645},{"NoteNumber":63,"Velocity":46,"Duration":77319,"SoundDuration":77319,"Delta":77407645},{"NoteNumber":39,"Velocity":26,"Duration":635365,"SoundDuration":635365,"Delta":77407645},{"NoteNumber":51,"Velocity":31,"Duration":635365,"SoundDuration":635365,"Delta":77407645},{"NoteNumber":65,"Velocity":40,"Duration":77319,"SoundDuration":77319,"Delta":77562284},{"NoteNumber":67,"Velocity":40,"Duration":81521,"SoundDuration":81521,"Delta":77716923},{"NoteNumber":58,"Velocity":38,"Duration":79999,"SoundDuration":79999,"Delta":78043010},{"NoteNumber":62,"Velocity":38,"Duration":79999,"SoundDuration":79999,"Delta":78043010},{"NoteNumber":65,"Velocity":45,"Duration":79999,"SoundDuration":79999,"Delta":78043010},{"NoteNumber":44,"Velocity":25,"Duration":79999,"SoundDuration":79999,"Delta":78043010},{"NoteNumber":56,"Velocity":30,"Duration":79999,"SoundDuration":79999,"Delta":78043010},{"NoteNumber":58,"Velocity":33,"Duration":80000,"SoundDuration":80000,"Delta":78363010},{"NoteNumber":63,"Velocity":39,"Duration":80000,"SoundDuration":80000,"Delta":78363010},{"NoteNumber":43,"Velocity":23,"Duration":80000,"SoundDuration":80000,"Delta":78363010},{"NoteNumber":55,"Velocity":27,"Duration":80000,"SoundDuration":80000,"Delta":78363010},{"NoteNumber":56,"Velocity":37,"Duration":638298,"SoundDuration":638298,"Delta":78718449},{"NoteNumber":58,"Velocity":37,"Duration":638298,"SoundDuration":638298,"Delta":78718449},{"NoteNumber":62,"Velocity":37,"Duration":638298,"SoundDuration":638298,"Delta":78718449},{"NoteNumber":68,"Velocity":45,"Duration":638298,"SoundDuration":638298,"Delta":78718449},{"NoteNumber":46,"Velocity":27,"Duration":638298,"SoundDuration":638298,"Delta":78718449},{"NoteNumber":41,"Velocity":27,"Duration":638298,"SoundDuration":638298,"Delta":78718449},{"NoteNumber":53,"Velocity":32,"Duration":638298,"SoundDuration":638298,"Delta":78718449},{"NoteNumber":58,"Velocity":40,"Duration":77319,"SoundDuration":77319,"Delta":79516322},{"NoteNumber":60,"Velocity":37,"Duration":77319,"SoundDuration":77319,"Delta":79670961},{"NoteNumber":62,"Velocity":37,"Duration":77319,"SoundDuration":77319,"Delta":79825600},{"NoteNumber":55,"Velocity":39,"Duration":635365,"SoundDuration":635365,"Delta":79980239},{"NoteNumber":58,"Velocity":39,"Duration":635365,"SoundDuration":635365,"Delta":79980239},{"NoteNumber":63,"Velocity":46,"Duration":77319,"SoundDuration":77319,"Delta":79980239},{"NoteNumber":39,"Velocity":26,"Duration":635365,"SoundDuration":635365,"Delta":79980239},{"NoteNumber":51,"Velocity":31,"Duration":635365,"SoundDuration":635365,"Delta":79980239},{"NoteNumber":65,"Velocity":40,"Duration":77319,"SoundDuration":77319,"Delta":80134878},{"NoteNumber":67,"Velocity":40,"Duration":81521,"SoundDuration":81521,"Delta":80289517},{"NoteNumber":53,"Velocity":38,"Duration":79999,"SoundDuration":79999,"Delta":80615604},{"NoteNumber":60,"Velocity":38,"Duration":79999,"SoundDuration":79999,"Delta":80615604},{"NoteNumber":65,"Velocity":45,"Duration":79999,"SoundDuration":79999,"Delta":80615604},{"NoteNumber":32,"Velocity":25,"Duration":79999,"SoundDuration":79999,"Delta":80615604},{"NoteNumber":44,"Velocity":30,"Duration":79999,"SoundDuration":79999,"Delta":80615604},{"NoteNumber":60,"Velocity":33,"Duration":80000,"SoundDuration":80000,"Delta":80935604},{"NoteNumber":53,"Velocity":33,"Duration":80000,"SoundDuration":80000,"Delta":80935604},{"NoteNumber":63,"Velocity":39,"Duration":80000,"SoundDuration":80000,"Delta":80935604},{"NoteNumber":33,"Velocity":23,"Duration":80000,"SoundDuration":80000,"Delta":80935604},{"NoteNumber":45,"Velocity":27,"Duration":80000,"SoundDuration":80000,"Delta":80935604},{"NoteNumber":50,"Velocity":31,"Duration":640000,"SoundDuration":640000,"Delta":81291043},{"NoteNumber":53,"Velocity":31,"Duration":640000,"SoundDuration":640000,"Delta":81291043},{"NoteNumber":58,"Velocity":37,"Duration":640000,"SoundDuration":640000,"Delta":81291043},{"NoteNumber":34,"Velocity":22,"Duration":640000,"SoundDuration":640000,"Delta":81291043},{"NoteNumber":46,"Velocity":27,"Duration":640000,"SoundDuration":640000,"Delta":81291043},{"NoteNumber":58,"Velocity":40,"Duration":77319,"SoundDuration":77319,"Delta":82091043},{"NoteNumber":60,"Velocity":37,"Duration":77319,"SoundDuration":77319,"Delta":82245682},{"NoteNumber":62,"Velocity":37,"Duration":77319,"SoundDuration":77319,"Delta":82400321},{"NoteNumber":55,"Velocity":39,"Duration":635365,"SoundDuration":635365,"Delta":82554960},{"NoteNumber":58,"Velocity":39,"Duration":635365,"SoundDuration":635365,"Delta":82554960},{"NoteNumber":63,"Velocity":46,"Duration":77319,"SoundDuration":77319,"Delta":82554960},{"NoteNumber":39,"Velocity":26,"Duration":635365,"SoundDuration":635365,"Delta":82554960},{"NoteNumber":51,"Velocity":31,"Duration":635365,"SoundDuration":635365,"Delta":82554960},{"NoteNumber":65,"Velocity":40,"Duration":77319,"SoundDuration":77319,"Delta":82709599},{"NoteNumber":67,"Velocity":40,"Duration":81521,"SoundDuration":81521,"Delta":82864238},{"NoteNumber":58,"Velocity":38,"Duration":79999,"SoundDuration":79999,"Delta":83190325},{"NoteNumber":62,"Velocity":38,"Duration":79999,"SoundDuration":79999,"Delta":83190325},{"NoteNumber":65,"Velocity":45,"Duration":79999,"SoundDuration":79999,"Delta":83190325},{"NoteNumber":44,"Velocity":25,"Duration":79999,"SoundDuration":79999,"Delta":83190325},{"NoteNumber":56,"Velocity":30,"Duration":79999,"SoundDuration":79999,"Delta":83190325},{"NoteNumber":58,"Velocity":33,"Duration":80000,"SoundDuration":80000,"Delta":83510325},{"NoteNumber":63,"Velocity":39,"Duration":80000,"SoundDuration":80000,"Delta":83510325},{"NoteNumber":43,"Velocity":23,"Duration":80000,"SoundDuration":80000,"Delta":83510325},{"NoteNumber":55,"Velocity":27,"Duration":80000,"SoundDuration":80000,"Delta":83510325},{"NoteNumber":44,"Velocity":28,"Duration":385916,"SoundDuration":385916,"Delta":83806910},{"NoteNumber":48,"Velocity":32,"Duration":374854,"SoundDuration":374854,"Delta":83817972},{"NoteNumber":51,"Velocity":36,"Duration":363792,"SoundDuration":363792,"Delta":83829034},{"NoteNumber":56,"Velocity":40,"Duration":352730,"SoundDuration":352730,"Delta":83840096},{"NoteNumber":60,"Velocity":45,"Duration":650151,"SoundDuration":650151,"Delta":83851158},{"NoteNumber":63,"Velocity":50,"Duration":639089,"SoundDuration":639089,"Delta":83862220},{"NoteNumber":68,"Velocity":63,"Duration":628027,"SoundDuration":628027,"Delta":83873282},{"NoteNumber":72,"Velocity":72,"Duration":771207,"SoundDuration":771207,"Delta":83884344},{"NoteNumber":72,"Velocity":48,"Duration":77120,"SoundDuration":77120,"Delta":84655551},{"NoteNumber":70,"Velocity":53,"Duration":77120,"SoundDuration":77120,"Delta":84809793},{"NoteNumber":68,"Velocity":50,"Duration":87463,"SoundDuration":87463,"Delta":84964034},{"NoteNumber":67,"Velocity":53,"Duration":153846,"SoundDuration":153846,"Delta":85138961},{"NoteNumber":46,"Velocity":80,"Duration":2472078,"SoundDuration":2472078,"Delta":85138961},{"NoteNumber":65,"Velocity":48,"Duration":153846,"SoundDuration":153846,"Delta":85292807},{"NoteNumber":63,"Velocity":48,"Duration":76922,"SoundDuration":76922,"Delta":85446653},{"NoteNumber":62,"Velocity":48,"Duration":76922,"SoundDuration":76922,"Delta":85600499},{"NoteNumber":53,"Velocity":45,"Duration":621112,"SoundDuration":621112,"Delta":85754345},{"NoteNumber":56,"Velocity":45,"Duration":621112,"SoundDuration":621112,"Delta":85754345},{"NoteNumber":60,"Velocity":53,"Duration":307691,"SoundDuration":307691,"Delta":85754345},{"NoteNumber":34,"Velocity":49,"Duration":76923,"SoundDuration":76923,"Delta":85908191},{"NoteNumber":58,"Velocity":49,"Duration":313420,"SoundDuration":313420,"Delta":86062037},{"NoteNumber":36,"Velocity":53,"Duration":76923,"SoundDuration":76923,"Delta":86062037},{"NoteNumber":38,"Velocity":45,"Duration":79787,"SoundDuration":79787,"Delta":86215883},{"NoteNumber":51,"Velocity":41,"Duration":607594,"SoundDuration":607594,"Delta":86375458},{"NoteNumber":55,"Velocity":41,"Duration":607594,"SoundDuration":607594,"Delta":86375458},{"NoteNumber":58,"Velocity":49,"Duration":607594,"SoundDuration":607594,"Delta":86375458},{"NoteNumber":39,"Velocity":53,"Duration":75949,"SoundDuration":75949,"Delta":86375458},{"NoteNumber":41,"Velocity":49,"Duration":75949,"SoundDuration":75949,"Delta":86527356},{"NoteNumber":43,"Velocity":51,"Duration":75949,"SoundDuration":75949,"Delta":86679255},{"NoteNumber":41,"Velocity":53,"Duration":305344,"SoundDuration":305344,"Delta":86983052},{"NoteNumber":70,"Velocity":48,"Duration":76335,"SoundDuration":76335,"Delta":87135724},{"NoteNumber":68,"Velocity":53,"Duration":76335,"SoundDuration":76335,"Delta":87288396},{"NoteNumber":39,"Velocity":50,"Duration":322643,"SoundDuration":322643,"Delta":87288396},{"NoteNumber":67,"Velocity":50,"Duration":84985,"SoundDuration":84985,"Delta":87441068},{"NoteNumber":67,"Velocity":53,"Duration":153060,"SoundDuration":153060,"Delta":87611039},{"NoteNumber":46,"Velocity":80,"Duration":2454640,"SoundDuration":2454640,"Delta":87611039},{"NoteNumber":65,"Velocity":48,"Duration":153061,"SoundDuration":153061,"Delta":87764100},{"NoteNumber":63,"Velocity":48,"Duration":76530,"SoundDuration":76530,"Delta":87917161},{"NoteNumber":62,"Velocity":48,"Duration":76530,"SoundDuration":76530,"Delta":88070222},{"NoteNumber":53,"Velocity":45,"Duration":617077,"SoundDuration":617077,"Delta":88223283},{"NoteNumber":56,"Velocity":45,"Duration":617077,"SoundDuration":617077,"Delta":88223283},{"NoteNumber":60,"Velocity":53,"Duration":306122,"SoundDuration":306122,"Delta":88223283},{"NoteNumber":34,"Velocity":49,"Duration":76530,"SoundDuration":76530,"Delta":88376344},{"NoteNumber":58,"Velocity":49,"Duration":310955,"SoundDuration":310955,"Delta":88529405},{"NoteNumber":36,"Velocity":53,"Duration":76530,"SoundDuration":76530,"Delta":88529405},{"NoteNumber":38,"Velocity":45,"Duration":78947,"SoundDuration":78947,"Delta":88682466},{"NoteNumber":51,"Velocity":54,"Duration":604533,"SoundDuration":604533,"Delta":88840361},{"NoteNumber":55,"Velocity":54,"Duration":604533,"SoundDuration":604533,"Delta":88840361},{"NoteNumber":58,"Velocity":54,"Duration":604533,"SoundDuration":604533,"Delta":88840361},{"NoteNumber":39,"Velocity":53,"Duration":75566,"SoundDuration":75566,"Delta":88840361},{"NoteNumber":41,"Velocity":49,"Duration":75566,"SoundDuration":75566,"Delta":88991494},{"NoteNumber":43,"Velocity":51,"Duration":75566,"SoundDuration":75566,"Delta":89142628},{"NoteNumber":41,"Velocity":53,"Duration":306905,"SoundDuration":306905,"Delta":89444895},{"NoteNumber":82,"Velocity":48,"Duration":76726,"SoundDuration":76726,"Delta":89598347},{"NoteNumber":70,"Velocity":48,"Duration":76726,"SoundDuration":76726,"Delta":89598347},{"NoteNumber":80,"Velocity":53,"Duration":76726,"SoundDuration":76726,"Delta":89751800},{"NoteNumber":68,"Velocity":53,"Duration":76726,"SoundDuration":76726,"Delta":89751800},{"NoteNumber":39,"Velocity":50,"Duration":313880,"SoundDuration":313880,"Delta":89751800},{"NoteNumber":79,"Velocity":50,"Duration":80213,"SoundDuration":80213,"Delta":89905252},{"NoteNumber":67,"Velocity":50,"Duration":80213,"SoundDuration":80213,"Delta":89905252},{"NoteNumber":79,"Velocity":55,"Duration":152284,"SoundDuration":152284,"Delta":90065680},{"NoteNumber":67,"Velocity":55,"Duration":152284,"SoundDuration":152284,"Delta":90065680},{"NoteNumber":44,"Velocity":45,"Duration":304569,"SoundDuration":304569,"Delta":90065680},{"NoteNumber":48,"Velocity":45,"Duration":304569,"SoundDuration":304569,"Delta":90065680},{"NoteNumber":53,"Velocity":53,"Duration":304569,"SoundDuration":304569,"Delta":90065680},{"NoteNumber":77,"Velocity":48,"Duration":152284,"SoundDuration":152284,"Delta":90217965},{"NoteNumber":65,"Velocity":48,"Duration":152284,"SoundDuration":152284,"Delta":90217965},{"NoteNumber":75,"Velocity":48,"Duration":76142,"SoundDuration":76142,"Delta":90370249},{"NoteNumber":63,"Velocity":48,"Duration":76142,"SoundDuration":76142,"Delta":90370249},{"NoteNumber":74,"Velocity":48,"Duration":76142,"SoundDuration":76142,"Delta":90522534},{"NoteNumber":62,"Velocity":48,"Duration":76142,"SoundDuration":76142,"Delta":90522534},{"NoteNumber":60,"Velocity":55,"Duration":76335,"SoundDuration":76335,"Delta":90674818},{"NoteNumber":72,"Velocity":55,"Duration":76335,"SoundDuration":76335,"Delta":90674818},{"NoteNumber":53,"Velocity":42,"Duration":305344,"SoundDuration":305344,"Delta":90674818},{"NoteNumber":46,"Velocity":42,"Duration":305344,"SoundDuration":305344,"Delta":90674818},{"NoteNumber":56,"Velocity":50,"Duration":305344,"SoundDuration":305344,"Delta":90674818},{"NoteNumber":58,"Velocity":48,"Duration":76335,"SoundDuration":76335,"Delta":90827490},{"NoteNumber":70,"Velocity":48,"Duration":76335,"SoundDuration":76335,"Delta":90827490},{"NoteNumber":60,"Velocity":48,"Duration":76335,"SoundDuration":76335,"Delta":90980162},{"NoteNumber":72,"Velocity":48,"Duration":76335,"SoundDuration":76335,"Delta":90980162},{"NoteNumber":62,"Velocity":48,"Duration":81743,"SoundDuration":81743,"Delta":91132834},{"NoteNumber":74,"Velocity":48,"Duration":81743,"SoundDuration":81743,"Delta":91132834},{"NoteNumber":63,"Velocity":48,"Duration":76410,"SoundDuration":76410,"Delta":91295937},{"NoteNumber":51,"Velocity":49,"Duration":305303,"SoundDuration":305303,"Delta":91295937},{"NoteNumber":55,"Velocity":58,"Duration":305303,"SoundDuration":305303,"Delta":91295937},{"NoteNumber":75,"Velocity":43,"Duration":76200,"SoundDuration":76200,"Delta":91372347},{"NoteNumber":63,"Velocity":48,"Duration":76436,"SoundDuration":76436,"Delta":91448547},{"NoteNumber":75,"Velocity":42,"Duration":76256,"SoundDuration":76256,"Delta":91524984},{"NoteNumber":63,"Velocity":49,"Duration":76580,"SoundDuration":76580,"Delta":91601240},{"NoteNumber":75,"Velocity":43,"Duration":75981,"SoundDuration":75981,"Delta":91677821},{"NoteNumber":63,"Velocity":50,"Duration":76850,"SoundDuration":76850,"Delta":91753803},{"NoteNumber":51,"Velocity":54,"Duration":152896,"SoundDuration":152896,"Delta":91753803},{"NoteNumber":75,"Velocity":45,"Duration":76045,"SoundDuration":76045,"Delta":91830653},{"NoteNumber":63,"Velocity":51,"Duration":77139,"SoundDuration":77139,"Delta":91906699},{"NoteNumber":50,"Velocity":60,"Duration":153637,"SoundDuration":153637,"Delta":91906699},{"NoteNumber":75,"Velocity":44,"Duration":76497,"SoundDuration":76497,"Delta":91983839},{"NoteNumber":63,"Velocity":52,"Duration":76062,"SoundDuration":76062,"Delta":92060337},{"NoteNumber":51,"Velocity":55,"Duration":152334,"SoundDuration":152334,"Delta":92060337},{"NoteNumber":75,"Velocity":47,"Duration":76271,"SoundDuration":76271,"Delta":92136400},{"NoteNumber":63,"Velocity":53,"Duration":76335,"SoundDuration":76335,"Delta":92212672},{"NoteNumber":48,"Velocity":52,"Duration":76335,"SoundDuration":76335,"Delta":92212672},{"NoteNumber":56,"Velocity":62,"Duration":76335,"SoundDuration":76335,"Delta":92212672},{"NoteNumber":75,"Velocity":47,"Duration":76335,"SoundDuration":76335,"Delta":92289008},{"NoteNumber":63,"Velocity":53,"Duration":79155,"SoundDuration":79155,"Delta":92365344},{"NoteNumber":56,"Velocity":57,"Duration":79155,"SoundDuration":79155,"Delta":92365344},{"NoteNumber":48,"Velocity":48,"Duration":79155,"SoundDuration":79155,"Delta":92365344},{"NoteNumber":75,"Velocity":47,"Duration":79155,"SoundDuration":79155,"Delta":92444499},{"NoteNumber":63,"Velocity":54,"Duration":76410,"SoundDuration":76410,"Delta":92523655},{"NoteNumber":55,"Velocity":65,"Duration":305303,"SoundDuration":305303,"Delta":92523655},{"NoteNumber":46,"Velocity":55,"Duration":305303,"SoundDuration":305303,"Delta":92523655},{"NoteNumber":75,"Velocity":48,"Duration":76200,"SoundDuration":76200,"Delta":92600065},{"NoteNumber":63,"Velocity":55,"Duration":76436,"SoundDuration":76436,"Delta":92676265},{"NoteNumber":75,"Velocity":48,"Duration":76256,"SoundDuration":76256,"Delta":92752702},{"NoteNumber":63,"Velocity":55,"Duration":76580,"SoundDuration":76580,"Delta":92828959},{"NoteNumber":75,"Velocity":48,"Duration":75981,"SoundDuration":75981,"Delta":92905540},{"NoteNumber":63,"Velocity":56,"Duration":76850,"SoundDuration":76850,"Delta":92981521},{"NoteNumber":51,"Velocity":61,"Duration":152896,"SoundDuration":152896,"Delta":92981521},{"NoteNumber":75,"Velocity":51,"Duration":76045,"SoundDuration":76045,"Delta":93058372},{"NoteNumber":63,"Velocity":57,"Duration":77139,"SoundDuration":77139,"Delta":93134418},{"NoteNumber":50,"Velocity":68,"Duration":153637,"SoundDuration":153637,"Delta":93134418},{"NoteNumber":75,"Velocity":49,"Duration":76497,"SoundDuration":76497,"Delta":93211558},{"NoteNumber":63,"Velocity":58,"Duration":76062,"SoundDuration":76062,"Delta":93288055},{"NoteNumber":51,"Velocity":63,"Duration":152334,"SoundDuration":152334,"Delta":93288055},{"NoteNumber":75,"Velocity":53,"Duration":76271,"SoundDuration":76271,"Delta":93364118},{"NoteNumber":63,"Velocity":59,"Duration":76335,"SoundDuration":76335,"Delta":93440390},{"NoteNumber":56,"Velocity":58,"Duration":76335,"SoundDuration":76335,"Delta":93440390},{"NoteNumber":60,"Velocity":69,"Duration":76335,"SoundDuration":76335,"Delta":93440390},{"NoteNumber":75,"Velocity":54,"Duration":76335,"SoundDuration":76335,"Delta":93516726},{"NoteNumber":63,"Velocity":60,"Duration":79155,"SoundDuration":79155,"Delta":93593062},{"NoteNumber":56,"Velocity":54,"Duration":79155,"SoundDuration":79155,"Delta":93593062},{"NoteNumber":60,"Velocity":64,"Duration":79155,"SoundDuration":79155,"Delta":93593062},{"NoteNumber":75,"Velocity":54,"Duration":79155,"SoundDuration":79155,"Delta":93672218},{"NoteNumber":63,"Velocity":70,"Duration":305903,"SoundDuration":305903,"Delta":93751374},{"NoteNumber":75,"Velocity":70,"Duration":305903,"SoundDuration":305903,"Delta":93751374},{"NoteNumber":55,"Velocity":71,"Duration":153468,"SoundDuration":153468,"Delta":93751374},{"NoteNumber":58,"Velocity":71,"Duration":153468,"SoundDuration":153468,"Delta":93751374},{"NoteNumber":51,"Velocity":62,"Duration":76162,"SoundDuration":76162,"Delta":93904842},{"NoteNumber":63,"Velocity":54,"Duration":76273,"SoundDuration":76273,"Delta":93981004},{"NoteNumber":51,"Velocity":63,"Duration":76962,"SoundDuration":76962,"Delta":94057277},{"NoteNumber":63,"Velocity":56,"Duration":76265,"SoundDuration":76265,"Delta":94134240},{"NoteNumber":75,"Velocity":74,"Duration":153349,"SoundDuration":153349,"Delta":94210506},{"NoteNumber":51,"Velocity":63,"Duration":76797,"SoundDuration":76797,"Delta":94210506},{"NoteNumber":63,"Velocity":57,"Duration":76551,"SoundDuration":76551,"Delta":94287303},{"NoteNumber":74,"Velocity":84,"Duration":153534,"SoundDuration":153534,"Delta":94363855},{"NoteNumber":51,"Velocity":63,"Duration":76468,"SoundDuration":76468,"Delta":94363855},{"NoteNumber":63,"Velocity":55,"Duration":77066,"SoundDuration":77066,"Delta":94440323},{"NoteNumber":75,"Velocity":77,"Duration":152984,"SoundDuration":152984,"Delta":94517389},{"NoteNumber":51,"Velocity":64,"Duration":76648,"SoundDuration":76648,"Delta":94517389},{"NoteNumber":63,"Velocity":59,"Duration":76335,"SoundDuration":76335,"Delta":94594038},{"NoteNumber":84,"Velocity":86,"Duration":85470,"SoundDuration":85470,"Delta":94670374},{"NoteNumber":80,"Velocity":86,"Duration":85470,"SoundDuration":85470,"Delta":94670374},{"NoteNumber":51,"Velocity":65,"Duration":85470,"SoundDuration":85470,"Delta":94670374},{"NoteNumber":63,"Velocity":58,"Duration":85470,"SoundDuration":85470,"Delta":94755844},{"NoteNumber":80,"Velocity":79,"Duration":116279,"SoundDuration":116279,"Delta":94841314},{"NoteNumber":84,"Velocity":79,"Duration":116279,"SoundDuration":116279,"Delta":94841314},{"NoteNumber":51,"Velocity":66,"Duration":116279,"SoundDuration":116279,"Delta":94841314},{"NoteNumber":63,"Velocity":61,"Duration":107423,"SoundDuration":107423,"Delta":94957593},{"NoteNumber":80,"Velocity":92,"Duration":307692,"SoundDuration":307692,"Delta":95065017},{"NoteNumber":84,"Velocity":92,"Duration":384614,"SoundDuration":384614,"Delta":95065017},{"NoteNumber":53,"Velocity":49,"Duration":1223975,"SoundDuration":1223975,"Delta":95065017},{"NoteNumber":50,"Velocity":49,"Duration":1223975,"SoundDuration":1223975,"Delta":95065017},{"NoteNumber":56,"Velocity":49,"Duration":1223975,"SoundDuration":1223975,"Delta":95065017},{"NoteNumber":58,"Velocity":49,"Duration":1223975,"SoundDuration":1223975,"Delta":95065017},{"NoteNumber":62,"Velocity":66,"Duration":1223887,"SoundDuration":1223887,"Delta":95082324},{"NoteNumber":82,"Velocity":74,"Duration":76923,"SoundDuration":76923,"Delta":95449632},{"NoteNumber":80,"Velocity":73,"Duration":76054,"SoundDuration":76054,"Delta":95526555},{"NoteNumber":79,"Velocity":72,"Duration":75949,"SoundDuration":75949,"Delta":95602609},{"NoteNumber":77,"Velocity":72,"Duration":76024,"SoundDuration":76024,"Delta":95678559},{"NoteNumber":75,"Velocity":72,"Duration":76142,"SoundDuration":76142,"Delta":95754583},{"NoteNumber":74,"Velocity":71,"Duration":76142,"SoundDuration":76142,"Delta":95830726},{"NoteNumber":72,"Velocity":70,"Duration":76315,"SoundDuration":76315,"Delta":95906868},{"NoteNumber":71,"Velocity":69,"Duration":76335,"SoundDuration":76335,"Delta":95983183},{"NoteNumber":70,"Velocity":68,"Duration":76412,"SoundDuration":76412,"Delta":96059519},{"NoteNumber":69,"Velocity":67,"Duration":76530,"SoundDuration":76530,"Delta":96135931},{"NoteNumber":68,"Velocity":66,"Duration":76530,"SoundDuration":76530,"Delta":96212462},{"NoteNumber":67,"Velocity":66,"Duration":102040,"SoundDuration":102040,"Delta":96288992},{"NoteNumber":55,"Velocity":49,"Duration":306122,"SoundDuration":306122,"Delta":96288992},{"NoteNumber":51,"Velocity":49,"Duration":306122,"SoundDuration":306122,"Delta":96288992},{"NoteNumber":63,"Velocity":66,"Duration":306122,"SoundDuration":306122,"Delta":96288992},{"NoteNumber":58,"Velocity":49,"Duration":306122,"SoundDuration":306122,"Delta":96288992},{"NoteNumber":68,"Velocity":62,"Duration":102040,"SoundDuration":102040,"Delta":96391033},{"NoteNumber":70,"Velocity":62,"Duration":102040,"SoundDuration":102040,"Delta":96493073},{"NoteNumber":68,"Velocity":66,"Duration":101953,"SoundDuration":101953,"Delta":96595114},{"NoteNumber":67,"Velocity":62,"Duration":101631,"SoundDuration":101631,"Delta":96697067},{"NoteNumber":65,"Velocity":62,"Duration":101954,"SoundDuration":101954,"Delta":96798699},{"NoteNumber":63,"Velocity":66,"Duration":102324,"SoundDuration":102324,"Delta":96900653},{"NoteNumber":62,"Velocity":62,"Duration":102564,"SoundDuration":102564,"Delta":97002978},{"NoteNumber":60,"Velocity":62,"Duration":102564,"SoundDuration":102564,"Delta":97105542},{"NoteNumber":58,"Velocity":66,"Duration":102564,"SoundDuration":102564,"Delta":97208106},{"NoteNumber":56,"Velocity":60,"Duration":104332,"SoundDuration":104332,"Delta":97310670},{"NoteNumber":55,"Velocity":63,"Duration":106100,"SoundDuration":106100,"Delta":97415002},{"NoteNumber":44,"Velocity":73,"Duration":160427,"SoundDuration":160427,"Delta":97521103},{"NoteNumber":32,"Velocity":73,"Duration":160427,"SoundDuration":160427,"Delta":97521103},{"NoteNumber":53,"Velocity":59,"Duration":80213,"SoundDuration":80213,"Delta":97601317},{"NoteNumber":56,"Velocity":63,"Duration":76726,"SoundDuration":76726,"Delta":97681531},{"NoteNumber":60,"Velocity":67,"Duration":76726,"SoundDuration":76726,"Delta":97758257},{"NoteNumber":65,"Velocity":72,"Duration":153452,"SoundDuration":153452,"Delta":97834984},{"NoteNumber":44,"Velocity":63,"Duration":76726,"SoundDuration":76726,"Delta":97988436},{"NoteNumber":32,"Velocity":63,"Duration":76726,"SoundDuration":76726,"Delta":97988436},{"NoteNumber":34,"Velocity":70,"Duration":159150,"SoundDuration":159150,"Delta":98141889},{"NoteNumber":46,"Velocity":70,"Duration":159150,"SoundDuration":159150,"Delta":98141889},{"NoteNumber":53,"Velocity":63,"Duration":79575,"SoundDuration":79575,"Delta":98221464},{"NoteNumber":56,"Velocity":66,"Duration":76726,"SoundDuration":76726,"Delta":98301040},{"NoteNumber":58,"Velocity":69,"Duration":76726,"SoundDuration":76726,"Delta":98377766},{"NoteNumber":62,"Velocity":72,"Duration":153452,"SoundDuration":153452,"Delta":98454492},{"NoteNumber":46,"Velocity":63,"Duration":81080,"SoundDuration":81080,"Delta":98607945},{"NoteNumber":34,"Velocity":63,"Duration":81080,"SoundDuration":81080,"Delta":98607945},{"NoteNumber":74,"Velocity":67,"Duration":77120,"SoundDuration":77120,"Delta":98769381},{"NoteNumber":86,"Velocity":60,"Duration":76985,"SoundDuration":76985,"Delta":98846501},{"NoteNumber":74,"Velocity":67,"Duration":76837,"SoundDuration":76837,"Delta":98923487},{"NoteNumber":68,"Velocity":63,"Duration":76837,"SoundDuration":76837,"Delta":98923487},{"NoteNumber":86,"Velocity":60,"Duration":76726,"SoundDuration":76726,"Delta":99000325},{"NoteNumber":70,"Velocity":65,"Duration":76726,"SoundDuration":76726,"Delta":99000325},{"NoteNumber":74,"Velocity":67,"Duration":76543,"SoundDuration":76543,"Delta":99077051},{"NoteNumber":72,"Velocity":69,"Duration":76543,"SoundDuration":76543,"Delta":99077051},{"NoteNumber":86,"Velocity":59,"Duration":76397,"SoundDuration":76397,"Delta":99153595},{"NoteNumber":70,"Velocity":67,"Duration":76397,"SoundDuration":76397,"Delta":99153595},{"NoteNumber":74,"Velocity":67,"Duration":75940,"SoundDuration":75940,"Delta":99229992},{"NoteNumber":68,"Velocity":65,"Duration":75940,"SoundDuration":75940,"Delta":99229992},{"NoteNumber":86,"Velocity":61,"Duration":75757,"SoundDuration":75757,"Delta":99305933},{"NoteNumber":67,"Velocity":64,"Duration":75757,"SoundDuration":75757,"Delta":99305933},{"NoteNumber":74,"Velocity":67,"Duration":75757,"SoundDuration":75757,"Delta":99381690},{"NoteNumber":65,"Velocity":67,"Duration":101061,"SoundDuration":101061,"Delta":99381690},{"NoteNumber":86,"Velocity":59,"Duration":75936,"SoundDuration":75936,"Delta":99457448},{"NoteNumber":63,"Velocity":61,"Duration":101265,"SoundDuration":101265,"Delta":99482751},{"NoteNumber":74,"Velocity":67,"Duration":75949,"SoundDuration":75949,"Delta":99533384},{"NoteNumber":62,"Velocity":61,"Duration":101301,"SoundDuration":101301,"Delta":99584017},{"NoteNumber":86,"Velocity":59,"Duration":75984,"SoundDuration":75984,"Delta":99609334},{"NoteNumber":74,"Velocity":67,"Duration":76142,"SoundDuration":76142,"Delta":99685318},{"NoteNumber":60,"Velocity":67,"Duration":101523,"SoundDuration":101523,"Delta":99685318},{"NoteNumber":86,"Velocity":59,"Duration":76142,"SoundDuration":76142,"Delta":99761460},{"NoteNumber":58,"Velocity":62,"Duration":101542,"SoundDuration":101542,"Delta":99786841},{"NoteNumber":74,"Velocity":67,"Duration":76226,"SoundDuration":76226,"Delta":99837603},{"NoteNumber":56,"Velocity":62,"Duration":101781,"SoundDuration":101781,"Delta":99888384},{"NoteNumber":86,"Velocity":60,"Duration":76336,"SoundDuration":76336,"Delta":99913829},{"NoteNumber":75,"Velocity":67,"Duration":77120,"SoundDuration":77120,"Delta":99990165},{"NoteNumber":55,"Velocity":67,"Duration":102824,"SoundDuration":102824,"Delta":99990165},{"NoteNumber":87,"Velocity":60,"Duration":76985,"SoundDuration":76985,"Delta":100067286},{"NoteNumber":56,"Velocity":63,"Duration":102544,"SoundDuration":102544,"Delta":100092989},{"NoteNumber":75,"Velocity":69,"Duration":76837,"SoundDuration":76837,"Delta":100144271},{"NoteNumber":58,"Velocity":63,"Duration":102301,"SoundDuration":102301,"Delta":100195534},{"NoteNumber":87,"Velocity":62,"Duration":76726,"SoundDuration":76726,"Delta":100221109},{"NoteNumber":75,"Velocity":71,"Duration":76543,"SoundDuration":76543,"Delta":100297835},{"NoteNumber":56,"Velocity":67,"Duration":102050,"SoundDuration":102050,"Delta":100297835},{"NoteNumber":87,"Velocity":63,"Duration":76397,"SoundDuration":76397,"Delta":100374379},{"NoteNumber":55,"Velocity":60,"Duration":101578,"SoundDuration":101578,"Delta":100399886},{"NoteNumber":75,"Velocity":72,"Duration":75940,"SoundDuration":75940,"Delta":100450776},{"NoteNumber":53,"Velocity":60,"Duration":101010,"SoundDuration":101010,"Delta":100501465},{"NoteNumber":87,"Velocity":67,"Duration":75757,"SoundDuration":75757,"Delta":100526717},{"NoteNumber":75,"Velocity":75,"Duration":75757,"SoundDuration":75757,"Delta":100602475},{"NoteNumber":51,"Velocity":70,"Duration":101061,"SoundDuration":101061,"Delta":100602475},{"NoteNumber":87,"Velocity":67,"Duration":75936,"SoundDuration":75936,"Delta":100678232},{"NoteNumber":50,"Velocity":63,"Duration":101265,"SoundDuration":101265,"Delta":100703536},{"NoteNumber":75,"Velocity":77,"Duration":75949,"SoundDuration":75949,"Delta":100754169},{"NoteNumber":48,"Velocity":66,"Duration":101301,"SoundDuration":101301,"Delta":100804801},{"NoteNumber":87,"Velocity":69,"Duration":75984,"SoundDuration":75984,"Delta":100830118},{"NoteNumber":76,"Velocity":80,"Duration":76142,"SoundDuration":76142,"Delta":100906102},{"NoteNumber":46,"Velocity":74,"Duration":101523,"SoundDuration":101523,"Delta":100906102},{"NoteNumber":88,"Velocity":71,"Duration":76142,"SoundDuration":76142,"Delta":100982245},{"NoteNumber":44,"Velocity":67,"Duration":101542,"SoundDuration":101542,"Delta":101007625},{"NoteNumber":76,"Velocity":81,"Duration":76226,"SoundDuration":76226,"Delta":101058387},{"NoteNumber":43,"Velocity":67,"Duration":101781,"SoundDuration":101781,"Delta":101109168},{"NoteNumber":88,"Velocity":73,"Duration":76336,"SoundDuration":76336,"Delta":101134613},{"NoteNumber":44,"Velocity":73,"Duration":160427,"SoundDuration":160427,"Delta":101210949},{"NoteNumber":32,"Velocity":73,"Duration":160427,"SoundDuration":160427,"Delta":101210949},{"NoteNumber":77,"Velocity":71,"Duration":80213,"SoundDuration":80213,"Delta":101291163},{"NoteNumber":80,"Velocity":76,"Duration":76726,"SoundDuration":76726,"Delta":101371377},{"NoteNumber":84,"Velocity":81,"Duration":76726,"SoundDuration":76726,"Delta":101448103},{"NoteNumber":89,"Velocity":86,"Duration":153452,"SoundDuration":153452,"Delta":101524830},{"NoteNumber":32,"Velocity":63,"Duration":76726,"SoundDuration":76726,"Delta":101678282},{"NoteNumber":44,"Velocity":63,"Duration":76726,"SoundDuration":76726,"Delta":101678282},{"NoteNumber":34,"Velocity":70,"Duration":159150,"SoundDuration":159150,"Delta":101831735},{"NoteNumber":46,"Velocity":70,"Duration":159150,"SoundDuration":159150,"Delta":101831735},{"NoteNumber":74,"Velocity":75,"Duration":79575,"SoundDuration":79575,"Delta":101911310},{"NoteNumber":77,"Velocity":79,"Duration":76726,"SoundDuration":76726,"Delta":101990886},{"NoteNumber":80,"Velocity":82,"Duration":76726,"SoundDuration":76726,"Delta":102067612},{"NoteNumber":86,"Velocity":86,"Duration":153452,"SoundDuration":153452,"Delta":102144338},{"NoteNumber":46,"Velocity":63,"Duration":81080,"SoundDuration":81080,"Delta":102297791},{"NoteNumber":34,"Velocity":63,"Duration":81080,"SoundDuration":81080,"Delta":102297791},{"NoteNumber":75,"Velocity":80,"Duration":308482,"SoundDuration":308482,"Delta":102459227},{"NoteNumber":82,"Velocity":80,"Duration":308482,"SoundDuration":308482,"Delta":102459227},{"NoteNumber":79,"Velocity":80,"Duration":308482,"SoundDuration":308482,"Delta":102459227},{"NoteNumber":87,"Velocity":94,"Duration":308482,"SoundDuration":308482,"Delta":102459227},{"NoteNumber":51,"Velocity":70,"Duration":308482,"SoundDuration":308482,"Delta":102459227},{"NoteNumber":39,"Velocity":59,"Duration":308482,"SoundDuration":308482,"Delta":102459227},{"NoteNumber":43,"Velocity":59,"Duration":308482,"SoundDuration":308482,"Delta":102459227},{"NoteNumber":46,"Velocity":59,"Duration":308482,"SoundDuration":308482,"Delta":102459227},{"NoteNumber":82,"Velocity":63,"Duration":74441,"SoundDuration":74441,"Delta":102767710},{"NoteNumber":67,"Velocity":63,"Duration":74441,"SoundDuration":74441,"Delta":102767710},{"NoteNumber":64,"Velocity":53,"Duration":74441,"SoundDuration":74441,"Delta":102767710},{"NoteNumber":82,"Velocity":63,"Duration":78534,"SoundDuration":78534,"Delta":102916593},{"NoteNumber":64,"Velocity":53,"Duration":78534,"SoundDuration":78534,"Delta":102916593},{"NoteNumber":67,"Velocity":63,"Duration":78534,"SoundDuration":78534,"Delta":102916593},{"NoteNumber":82,"Velocity":70,"Duration":153846,"SoundDuration":153846,"Delta":103073661},{"NoteNumber":68,"Velocity":70,"Duration":153846,"SoundDuration":153846,"Delta":103073661},{"NoteNumber":65,"Velocity":59,"Duration":153846,"SoundDuration":153846,"Delta":103073661},{"NoteNumber":82,"Velocity":63,"Duration":74441,"SoundDuration":74441,"Delta":103381353},{"NoteNumber":64,"Velocity":53,"Duration":74441,"SoundDuration":74441,"Delta":103381353},{"NoteNumber":67,"Velocity":63,"Duration":74441,"SoundDuration":74441,"Delta":103381353},{"NoteNumber":82,"Velocity":63,"Duration":78534,"SoundDuration":78534,"Delta":103530237},{"NoteNumber":64,"Velocity":53,"Duration":78534,"SoundDuration":78534,"Delta":103530237},{"NoteNumber":67,"Velocity":63,"Duration":78534,"SoundDuration":78534,"Delta":103530237},{"NoteNumber":82,"Velocity":69,"Duration":154241,"SoundDuration":154241,"Delta":103687305},{"NoteNumber":68,"Velocity":70,"Duration":154241,"SoundDuration":154241,"Delta":103687305},{"NoteNumber":65,"Velocity":59,"Duration":154241,"SoundDuration":154241,"Delta":103687305},{"NoteNumber":53,"Velocity":60,"Duration":152284,"SoundDuration":152284,"Delta":103995788},{"NoteNumber":56,"Velocity":60,"Duration":152284,"SoundDuration":152284,"Delta":103995788},{"NoteNumber":62,"Velocity":72,"Duration":152284,"SoundDuration":152284,"Delta":103995788},{"NoteNumber":34,"Velocity":63,"Duration":152284,"SoundDuration":152284,"Delta":103995788},{"NoteNumber":46,"Velocity":74,"Duration":152284,"SoundDuration":152284,"Delta":103995788},{"NoteNumber":53,"Velocity":33,"Duration":77720,"SoundDuration":77720,"Delta":104604926},{"NoteNumber":56,"Velocity":33,"Duration":77720,"SoundDuration":77720,"Delta":104604926},{"NoteNumber":62,"Velocity":39,"Duration":77720,"SoundDuration":77720,"Delta":104604926},{"NoteNumber":47,"Velocity":36,"Duration":77720,"SoundDuration":77720,"Delta":104604926},{"NoteNumber":35,"Velocity":30,"Duration":77720,"SoundDuration":77720,"Delta":104604926},{"NoteNumber":55,"Velocity":37,"Duration":76335,"SoundDuration":76335,"Delta":104915807},{"NoteNumber":63,"Velocity":45,"Duration":76335,"SoundDuration":76335,"Delta":104915807},{"NoteNumber":36,"Velocity":32,"Duration":76335,"SoundDuration":76335,"Delta":104915807},{"NoteNumber":48,"Velocity":38,"Duration":76335,"SoundDuration":76335,"Delta":104915807},{"NoteNumber":60,"Velocity":35,"Duration":75566,"SoundDuration":75566,"Delta":105221151},{"NoteNumber":63,"Velocity":35,"Duration":75566,"SoundDuration":75566,"Delta":105221151},{"NoteNumber":65,"Velocity":41,"Duration":75566,"SoundDuration":75566,"Delta":105221151},{"NoteNumber":45,"Velocity":36,"Duration":75566,"SoundDuration":75566,"Delta":105221151},{"NoteNumber":33,"Velocity":30,"Duration":75566,"SoundDuration":75566,"Delta":105221151},{"NoteNumber":58,"Velocity":37,"Duration":75566,"SoundDuration":75566,"Delta":105523418},{"NoteNumber":63,"Velocity":37,"Duration":75566,"SoundDuration":75566,"Delta":105523418},{"NoteNumber":67,"Velocity":45,"Duration":75566,"SoundDuration":75566,"Delta":105523418},{"NoteNumber":46,"Velocity":38,"Duration":75566,"SoundDuration":75566,"Delta":105523418},{"NoteNumber":34,"Velocity":32,"Duration":75566,"SoundDuration":75566,"Delta":105523418},{"NoteNumber":56,"Velocity":33,"Duration":77720,"SoundDuration":77720,"Delta":105825685},{"NoteNumber":62,"Velocity":33,"Duration":77720,"SoundDuration":77720,"Delta":105825685},{"NoteNumber":65,"Velocity":39,"Duration":77720,"SoundDuration":77720,"Delta":105825685},{"NoteNumber":34,"Velocity":27,"Duration":77720,"SoundDuration":77720,"Delta":105825685},{"NoteNumber":46,"Velocity":33,"Duration":77720,"SoundDuration":77720,"Delta":105825685},{"NoteNumber":55,"Velocity":37,"Duration":76142,"SoundDuration":76142,"Delta":106136566},{"NoteNumber":63,"Velocity":45,"Duration":76142,"SoundDuration":76142,"Delta":106136566},{"NoteNumber":39,"Velocity":32,"Duration":76142,"SoundDuration":76142,"Delta":106136566},{"NoteNumber":51,"Velocity":38,"Duration":76142,"SoundDuration":76142,"Delta":106136566},{"NoteNumber":82,"Velocity":63,"Duration":74441,"SoundDuration":74441,"Delta":106441135},{"NoteNumber":67,"Velocity":63,"Duration":74441,"SoundDuration":74441,"Delta":106441135},{"NoteNumber":64,"Velocity":53,"Duration":74441,"SoundDuration":74441,"Delta":106441135},{"NoteNumber":84,"Velocity":59,"Duration":74441,"SoundDuration":74441,"Delta":106515576},{"NoteNumber":82,"Velocity":63,"Duration":78534,"SoundDuration":78534,"Delta":106590018},{"NoteNumber":64,"Velocity":53,"Duration":78534,"SoundDuration":78534,"Delta":106590018},{"NoteNumber":67,"Velocity":63,"Duration":78534,"SoundDuration":78534,"Delta":106590018},{"NoteNumber":81,"Velocity":59,"Duration":78533,"SoundDuration":78533,"Delta":106668552},{"NoteNumber":82,"Velocity":70,"Duration":153846,"SoundDuration":153846,"Delta":106747086},{"NoteNumber":68,"Velocity":70,"Duration":153846,"SoundDuration":153846,"Delta":106747086},{"NoteNumber":65,"Velocity":59,"Duration":153846,"SoundDuration":153846,"Delta":106747086},{"NoteNumber":82,"Velocity":63,"Duration":74441,"SoundDuration":74441,"Delta":107054778},{"NoteNumber":64,"Velocity":53,"Duration":74441,"SoundDuration":74441,"Delta":107054778},{"NoteNumber":67,"Velocity":63,"Duration":74441,"SoundDuration":74441,"Delta":107054778},{"NoteNumber":84,"Velocity":58,"Duration":74441,"SoundDuration":74441,"Delta":107129220},{"NoteNumber":82,"Velocity":63,"Duration":78534,"SoundDuration":78534,"Delta":107203662},{"NoteNumber":64,"Velocity":53,"Duration":78534,"SoundDuration":78534,"Delta":107203662},{"NoteNumber":67,"Velocity":63,"Duration":78534,"SoundDuration":78534,"Delta":107203662},{"NoteNumber":81,"Velocity":57,"Duration":78533,"SoundDuration":78533,"Delta":107282196},{"NoteNumber":82,"Velocity":69,"Duration":154241,"SoundDuration":154241,"Delta":107360730},{"NoteNumber":68,"Velocity":70,"Duration":154241,"SoundDuration":154241,"Delta":107360730},{"NoteNumber":65,"Velocity":59,"Duration":154241,"SoundDuration":154241,"Delta":107360730},{"NoteNumber":53,"Velocity":60,"Duration":152284,"SoundDuration":152284,"Delta":107669213},{"NoteNumber":56,"Velocity":60,"Duration":152284,"SoundDuration":152284,"Delta":107669213},{"NoteNumber":62,"Velocity":72,"Duration":152284,"SoundDuration":152284,"Delta":107669213},{"NoteNumber":46,"Velocity":74,"Duration":152284,"SoundDuration":152284,"Delta":107669213},{"NoteNumber":34,"Velocity":63,"Duration":152284,"SoundDuration":152284,"Delta":107669213},{"NoteNumber":51,"Velocity":55,"Duration":615383,"SoundDuration":615383,"Delta":108278351},{"NoteNumber":54,"Velocity":55,"Duration":615383,"SoundDuration":615383,"Delta":108278351},{"NoteNumber":57,"Velocity":55,"Duration":615383,"SoundDuration":615383,"Delta":108278351},{"NoteNumber":63,"Velocity":66,"Duration":615383,"SoundDuration":615383,"Delta":108278351},{"NoteNumber":39,"Velocity":55,"Duration":615383,"SoundDuration":615383,"Delta":108278351},{"NoteNumber":42,"Velocity":55,"Duration":615383,"SoundDuration":615383,"Delta":108278351},{"NoteNumber":47,"Velocity":65,"Duration":615383,"SoundDuration":615383,"Delta":108278351},{"NoteNumber":35,"Velocity":55,"Duration":615383,"SoundDuration":615383,"Delta":108278351},{"NoteNumber":60,"Velocity":35,"Duration":75566,"SoundDuration":75566,"Delta":108893735},{"NoteNumber":63,"Velocity":35,"Duration":75566,"SoundDuration":75566,"Delta":108893735},{"NoteNumber":65,"Velocity":41,"Duration":75566,"SoundDuration":75566,"Delta":108893735},{"NoteNumber":33,"Velocity":30,"Duration":75566,"SoundDuration":75566,"Delta":108893735},{"NoteNumber":45,"Velocity":36,"Duration":75566,"SoundDuration":75566,"Delta":108893735},{"NoteNumber":58,"Velocity":37,"Duration":75566,"SoundDuration":75566,"Delta":109196002},{"NoteNumber":63,"Velocity":37,"Duration":75566,"SoundDuration":75566,"Delta":109196002},{"NoteNumber":67,"Velocity":45,"Duration":75566,"SoundDuration":75566,"Delta":109196002},{"NoteNumber":46,"Velocity":38,"Duration":75566,"SoundDuration":75566,"Delta":109196002},{"NoteNumber":34,"Velocity":32,"Duration":75566,"SoundDuration":75566,"Delta":109196002},{"NoteNumber":56,"Velocity":33,"Duration":77720,"SoundDuration":77720,"Delta":109498269},{"NoteNumber":62,"Velocity":33,"Duration":77720,"SoundDuration":77720,"Delta":109498269},{"NoteNumber":65,"Velocity":39,"Duration":77720,"SoundDuration":77720,"Delta":109498269},{"NoteNumber":34,"Velocity":27,"Duration":77720,"SoundDuration":77720,"Delta":109498269},{"NoteNumber":46,"Velocity":33,"Duration":77720,"SoundDuration":77720,"Delta":109498269},{"NoteNumber":55,"Velocity":37,"Duration":152284,"SoundDuration":152284,"Delta":109809150},{"NoteNumber":63,"Velocity":45,"Duration":152284,"SoundDuration":152284,"Delta":109809150},{"NoteNumber":39,"Velocity":32,"Duration":152284,"SoundDuration":152284,"Delta":109809150},{"NoteNumber":51,"Velocity":27,"Duration":152284,"SoundDuration":152284,"Delta":109961434},{"NoteNumber":62,"Velocity":30,"Duration":150000,"SoundDuration":150000,"Delta":110113719},{"NoteNumber":68,"Velocity":36,"Duration":150000,"SoundDuration":150000,"Delta":110113719},{"NoteNumber":63,"Velocity":27,"Duration":155039,"SoundDuration":155039,"Delta":110263719},{"NoteNumber":67,"Velocity":32,"Duration":155039,"SoundDuration":155039,"Delta":110263719},{"NoteNumber":39,"Velocity":32,"Duration":152284,"SoundDuration":152284,"Delta":110418758},{"NoteNumber":51,"Velocity":28,"Duration":152284,"SoundDuration":152284,"Delta":110571042},{"NoteNumber":68,"Velocity":31,"Duration":148148,"SoundDuration":148148,"Delta":110723327},{"NoteNumber":74,"Velocity":37,"Duration":148148,"SoundDuration":148148,"Delta":110723327},{"NoteNumber":67,"Velocity":27,"Duration":154639,"SoundDuration":154639,"Delta":110871475},{"NoteNumber":75,"Velocity":32,"Duration":154639,"SoundDuration":154639,"Delta":110871475},{"NoteNumber":39,"Velocity":32,"Duration":151898,"SoundDuration":151898,"Delta":111026114},{"NoteNumber":51,"Velocity":28,"Duration":151898,"SoundDuration":151898,"Delta":111178012},{"NoteNumber":80,"Velocity":37,"Duration":149253,"SoundDuration":149253,"Delta":111329911},{"NoteNumber":74,"Velocity":31,"Duration":149253,"SoundDuration":149253,"Delta":111329911},{"NoteNumber":75,"Velocity":27,"Duration":155039,"SoundDuration":155039,"Delta":111479164},{"NoteNumber":79,"Velocity":32,"Duration":155039,"SoundDuration":155039,"Delta":111479164},{"NoteNumber":39,"Velocity":32,"Duration":151898,"SoundDuration":151898,"Delta":111634203},{"NoteNumber":51,"Velocity":27,"Duration":151898,"SoundDuration":151898,"Delta":111786102},{"NoteNumber":86,"Velocity":43,"Duration":150000,"SoundDuration":150000,"Delta":111938000},{"NoteNumber":80,"Velocity":36,"Duration":150000,"SoundDuration":150000,"Delta":111938000},{"NoteNumber":79,"Velocity":30,"Duration":158730,"SoundDuration":158730,"Delta":112088000},{"NoteNumber":87,"Velocity":36,"Duration":158730,"SoundDuration":158730,"Delta":112088000},{"NoteNumber":39,"Velocity":32,"Duration":323449,"SoundDuration":323449,"Delta":112246730},{"NoteNumber":55,"Velocity":48,"Duration":306905,"SoundDuration":306905,"Delta":112570180},{"NoteNumber":58,"Velocity":48,"Duration":306905,"SoundDuration":306905,"Delta":112570180},{"NoteNumber":63,"Velocity":57,"Duration":306905,"SoundDuration":306905,"Delta":112570180},{"NoteNumber":48,"Velocity":36,"Duration":147419,"SoundDuration":147419,"Delta":113951253},{"NoteNumber":47,"Velocity":42,"Duration":147419,"SoundDuration":147419,"Delta":114098673},{"NoteNumber":48,"Velocity":35,"Duration":147420,"SoundDuration":147420,"Delta":114246093},{"NoteNumber":58,"Velocity":45,"Duration":71599,"SoundDuration":71599,"Delta":114393513},{"NoteNumber":55,"Velocity":37,"Duration":71599,"SoundDuration":71599,"Delta":114393513},{"NoteNumber":58,"Velocity":42,"Duration":99733,"SoundDuration":99733,"Delta":114536711},{"NoteNumber":55,"Velocity":35,"Duration":99733,"SoundDuration":99733,"Delta":114536711},{"NoteNumber":58,"Velocity":77,"Duration":1198132,"SoundDuration":1198132,"Delta":114736179},{"NoteNumber":55,"Velocity":64,"Duration":1198132,"SoundDuration":1198132,"Delta":114736179},{"NoteNumber":63,"Velocity":40,"Duration":147419,"SoundDuration":147419,"Delta":115173072},{"NoteNumber":62,"Velocity":45,"Duration":147419,"SoundDuration":147419,"Delta":115320492},{"NoteNumber":63,"Velocity":40,"Duration":147420,"SoundDuration":147420,"Delta":115467912},{"NoteNumber":70,"Velocity":45,"Duration":71770,"SoundDuration":71770,"Delta":115615332},{"NoteNumber":70,"Velocity":38,"Duration":87719,"SoundDuration":87719,"Delta":115758872},{"NoteNumber":61,"Velocity":45,"Duration":147419,"SoundDuration":147419,"Delta":115934311},{"NoteNumber":58,"Velocity":38,"Duration":294839,"SoundDuration":294839,"Delta":115934311},{"NoteNumber":56,"Velocity":32,"Duration":294839,"SoundDuration":294839,"Delta":115934311},{"NoteNumber":62,"Velocity":40,"Duration":147419,"SoundDuration":147419,"Delta":116081731},{"NoteNumber":70,"Velocity":45,"Duration":71770,"SoundDuration":71770,"Delta":116229151},{"NoteNumber":70,"Velocity":38,"Duration":73710,"SoundDuration":73710,"Delta":116372691},{"NoteNumber":46,"Velocity":36,"Duration":147419,"SoundDuration":147419,"Delta":116372691},{"NoteNumber":45,"Velocity":42,"Duration":147419,"SoundDuration":147419,"Delta":116520111},{"NoteNumber":46,"Velocity":35,"Duration":147420,"SoundDuration":147420,"Delta":116667531},{"NoteNumber":58,"Velocity":45,"Duration":71599,"SoundDuration":71599,"Delta":116814951},{"NoteNumber":56,"Velocity":37,"Duration":71599,"SoundDuration":71599,"Delta":116814951},{"NoteNumber":58,"Velocity":42,"Duration":100738,"SoundDuration":100738,"Delta":116958149},{"NoteNumber":56,"Velocity":35,"Duration":100738,"SoundDuration":100738,"Delta":116958149},{"NoteNumber":58,"Velocity":77,"Duration":1198132,"SoundDuration":1198132,"Delta":117159627},{"NoteNumber":56,"Velocity":64,"Duration":1198132,"SoundDuration":1198132,"Delta":117159627},{"NoteNumber":65,"Velocity":40,"Duration":147419,"SoundDuration":147419,"Delta":117596520},{"NoteNumber":64,"Velocity":45,"Duration":147419,"SoundDuration":147419,"Delta":117743940},{"NoteNumber":65,"Velocity":40,"Duration":147420,"SoundDuration":147420,"Delta":117891360},{"NoteNumber":70,"Velocity":45,"Duration":71770,"SoundDuration":71770,"Delta":118038780},{"NoteNumber":70,"Velocity":38,"Duration":87719,"SoundDuration":87719,"Delta":118182320},{"NoteNumber":63,"Velocity":45,"Duration":147419,"SoundDuration":147419,"Delta":118357759},{"NoteNumber":58,"Velocity":38,"Duration":294839,"SoundDuration":294839,"Delta":118357759},{"NoteNumber":55,"Velocity":32,"Duration":294839,"SoundDuration":294839,"Delta":118357759},{"NoteNumber":64,"Velocity":40,"Duration":147419,"SoundDuration":147419,"Delta":118505179},{"NoteNumber":70,"Velocity":45,"Duration":71770,"SoundDuration":71770,"Delta":118652599},{"NoteNumber":70,"Velocity":38,"Duration":87719,"SoundDuration":87719,"Delta":118796139},{"NoteNumber":64,"Velocity":45,"Duration":147419,"SoundDuration":147419,"Delta":118971578},{"NoteNumber":58,"Velocity":33,"Duration":294839,"SoundDuration":294839,"Delta":118971578},{"NoteNumber":61,"Velocity":39,"Duration":294839,"SoundDuration":294839,"Delta":118971578},{"NoteNumber":53,"Velocity":33,"Duration":294839,"SoundDuration":294839,"Delta":118971578},{"NoteNumber":65,"Velocity":41,"Duration":147419,"SoundDuration":147419,"Delta":119118998},{"NoteNumber":73,"Velocity":46,"Duration":71770,"SoundDuration":71770,"Delta":119266418},{"NoteNumber":73,"Velocity":40,"Duration":87719,"SoundDuration":87719,"Delta":119409958},{"NoteNumber":66,"Velocity":47,"Duration":147419,"SoundDuration":147419,"Delta":119585397},{"NoteNumber":55,"Velocity":34,"Duration":294839,"SoundDuration":294839,"Delta":119585397},{"NoteNumber":58,"Velocity":34,"Duration":294839,"SoundDuration":294839,"Delta":119585397},{"NoteNumber":60,"Velocity":40,"Duration":294839,"SoundDuration":294839,"Delta":119585397},{"NoteNumber":52,"Velocity":34,"Duration":294839,"SoundDuration":294839,"Delta":119585397},{"NoteNumber":67,"Velocity":43,"Duration":147419,"SoundDuration":147419,"Delta":119732817},{"NoteNumber":73,"Velocity":48,"Duration":71770,"SoundDuration":71770,"Delta":119880237},{"NoteNumber":73,"Velocity":41,"Duration":79155,"SoundDuration":79155,"Delta":120023777},{"NoteNumber":72,"Velocity":49,"Duration":147783,"SoundDuration":147783,"Delta":120182089},{"NoteNumber":70,"Velocity":42,"Duration":147783,"SoundDuration":147783,"Delta":120329872},{"NoteNumber":69,"Velocity":47,"Duration":147783,"SoundDuration":147783,"Delta":120477656},{"NoteNumber":70,"Velocity":42,"Duration":147783,"SoundDuration":147783,"Delta":120625439},{"NoteNumber":67,"Velocity":49,"Duration":147419,"SoundDuration":147419,"Delta":120773223},{"NoteNumber":53,"Velocity":43,"Duration":294839,"SoundDuration":294839,"Delta":120773223},{"NoteNumber":56,"Velocity":43,"Duration":294839,"SoundDuration":294839,"Delta":120773223},{"NoteNumber":60,"Velocity":53,"Duration":294839,"SoundDuration":294839,"Delta":120773223},{"NoteNumber":68,"Velocity":44,"Duration":147419,"SoundDuration":147419,"Delta":120920643},{"NoteNumber":77,"Velocity":50,"Duration":71428,"SoundDuration":71428,"Delta":121068063},{"NoteNumber":77,"Velocity":44,"Duration":79155,"SoundDuration":79155,"Delta":121210920},{"NoteNumber":71,"Velocity":52,"Duration":146341,"SoundDuration":146341,"Delta":121369231},{"NoteNumber":51,"Velocity":45,"Duration":292682,"SoundDuration":292682,"Delta":121369231},{"NoteNumber":53,"Velocity":45,"Duration":292682,"SoundDuration":292682,"Delta":121369231},{"NoteNumber":56,"Velocity":45,"Duration":292682,"SoundDuration":292682,"Delta":121369231},{"NoteNumber":60,"Velocity":55,"Duration":292682,"SoundDuration":292682,"Delta":121369231},{"NoteNumber":72,"Velocity":47,"Duration":146341,"SoundDuration":146341,"Delta":121515573},{"NoteNumber":80,"Velocity":54,"Duration":70921,"SoundDuration":70921,"Delta":121661914},{"NoteNumber":80,"Velocity":47,"Duration":79155,"SoundDuration":79155,"Delta":121803758},{"NoteNumber":76,"Velocity":56,"Duration":145985,"SoundDuration":145985,"Delta":121962070},{"NoteNumber":50,"Velocity":49,"Duration":291971,"SoundDuration":291971,"Delta":121962070},{"NoteNumber":53,"Velocity":49,"Duration":291971,"SoundDuration":291971,"Delta":121962070},{"NoteNumber":56,"Velocity":49,"Duration":291971,"SoundDuration":291971,"Delta":121962070},{"NoteNumber":59,"Velocity":58,"Duration":291971,"SoundDuration":291971,"Delta":121962070},{"NoteNumber":77,"Velocity":50,"Duration":145985,"SoundDuration":145985,"Delta":122108055},{"NoteNumber":83,"Velocity":57,"Duration":70921,"SoundDuration":70921,"Delta":122254041},{"NoteNumber":83,"Velocity":50,"Duration":79155,"SoundDuration":79155,"Delta":122395885},{"NoteNumber":79,"Velocity":63,"Duration":145630,"SoundDuration":145630,"Delta":122554196},{"NoteNumber":48,"Velocity":52,"Duration":291262,"SoundDuration":291262,"Delta":122554196},{"NoteNumber":50,"Velocity":52,"Duration":291262,"SoundDuration":291262,"Delta":122554196},{"NoteNumber":53,"Velocity":52,"Duration":291262,"SoundDuration":291262,"Delta":122554196},{"NoteNumber":56,"Velocity":63,"Duration":291262,"SoundDuration":291262,"Delta":122554196},{"NoteNumber":80,"Velocity":56,"Duration":145631,"SoundDuration":145631,"Delta":122699827},{"NoteNumber":86,"Velocity":66,"Duration":70422,"SoundDuration":70422,"Delta":122845458},{"NoteNumber":86,"Velocity":60,"Duration":79155,"SoundDuration":79155,"Delta":122986303},{"NoteNumber":85,"Velocity":79,"Duration":147419,"SoundDuration":147419,"Delta":123144615},{"NoteNumber":47,"Velocity":58,"Duration":294839,"SoundDuration":294839,"Delta":123144615},{"NoteNumber":50,"Velocity":58,"Duration":294839,"SoundDuration":294839,"Delta":123144615},{"NoteNumber":53,"Velocity":58,"Duration":294839,"SoundDuration":294839,"Delta":123144615},{"NoteNumber":56,"Velocity":70,"Duration":294839,"SoundDuration":294839,"Delta":123144615},{"NoteNumber":86,"Velocity":72,"Duration":147419,"SoundDuration":147419,"Delta":123292035},{"NoteNumber":89,"Velocity":69,"Duration":70754,"SoundDuration":70754,"Delta":123439455},{"NoteNumber":89,"Velocity":64,"Duration":89820,"SoundDuration":89820,"Delta":123580964},{"NoteNumber":89,"Velocity":76,"Duration":578243,"SoundDuration":578243,"Delta":123760605},{"NoteNumber":80,"Velocity":65,"Duration":127358,"SoundDuration":127358,"Delta":123906946},{"NoteNumber":80,"Velocity":65,"Duration":127358,"SoundDuration":127358,"Delta":124048456},{"NoteNumber":80,"Velocity":65,"Duration":133995,"SoundDuration":133995,"Delta":124189965},{"NoteNumber":71,"Velocity":69,"Duration":572591,"SoundDuration":572591,"Delta":124338849},{"NoteNumber":68,"Velocity":65,"Duration":127659,"SoundDuration":127659,"Delta":124480693},{"NoteNumber":68,"Velocity":65,"Duration":127659,"SoundDuration":127659,"Delta":124622537},{"NoteNumber":68,"Velocity":65,"Duration":132353,"SoundDuration":132353,"Delta":124764381},{"NoteNumber":59,"Velocity":74,"Duration":576437,"SoundDuration":576437,"Delta":124911440},{"NoteNumber":56,"Velocity":65,"Duration":128266,"SoundDuration":128266,"Delta":125053958},{"NoteNumber":56,"Velocity":65,"Duration":128266,"SoundDuration":128266,"Delta":125196476},{"NoteNumber":56,"Velocity":65,"Duration":133995,"SoundDuration":133995,"Delta":125338994},{"NoteNumber":47,"Velocity":69,"Duration":145985,"SoundDuration":145985,"Delta":125487877},{"NoteNumber":44,"Velocity":64,"Duration":131386,"SoundDuration":131386,"Delta":125633863},{"NoteNumber":56,"Velocity":64,"Duration":131386,"SoundDuration":131386,"Delta":125633863},{"NoteNumber":44,"Velocity":64,"Duration":131386,"SoundDuration":131386,"Delta":125779848},{"NoteNumber":56,"Velocity":64,"Duration":131386,"SoundDuration":131386,"Delta":125779848},{"NoteNumber":44,"Velocity":64,"Duration":152112,"SoundDuration":152112,"Delta":125925834},{"NoteNumber":56,"Velocity":64,"Duration":169014,"SoundDuration":169014,"Delta":125925834},{"NoteNumber":35,"Velocity":78,"Duration":163043,"SoundDuration":163043,"Delta":126094848},{"NoteNumber":47,"Velocity":75,"Duration":163043,"SoundDuration":163043,"Delta":126094848},{"NoteNumber":44,"Velocity":70,"Duration":154285,"SoundDuration":154285,"Delta":126257891},{"NoteNumber":56,"Velocity":69,"Duration":154285,"SoundDuration":154285,"Delta":126257891},{"NoteNumber":44,"Velocity":70,"Duration":154285,"SoundDuration":154285,"Delta":126429320},{"NoteNumber":56,"Velocity":69,"Duration":154285,"SoundDuration":154285,"Delta":126429320},{"NoteNumber":44,"Velocity":70,"Duration":237885,"SoundDuration":237885,"Delta":126600748},{"NoteNumber":56,"Velocity":69,"Duration":237885,"SoundDuration":237885,"Delta":126600748},{"NoteNumber":35,"Velocity":86,"Duration":1296296,"SoundDuration":1296296,"Delta":126865065},{"NoteNumber":47,"Velocity":88,"Duration":1296296,"SoundDuration":1296296,"Delta":126865065},{"NoteNumber":60,"Velocity":40,"Duration":147059,"SoundDuration":147059,"Delta":128198399},{"NoteNumber":48,"Velocity":36,"Duration":147059,"SoundDuration":147059,"Delta":128198399},{"NoteNumber":59,"Velocity":45,"Duration":147420,"SoundDuration":147420,"Delta":128345458},{"NoteNumber":47,"Velocity":38,"Duration":147420,"SoundDuration":147420,"Delta":128345458},{"NoteNumber":60,"Velocity":40,"Duration":147419,"SoundDuration":147419,"Delta":128492878},{"NoteNumber":48,"Velocity":35,"Duration":147419,"SoundDuration":147419,"Delta":128492878},{"NoteNumber":65,"Velocity":45,"Duration":71598,"SoundDuration":71598,"Delta":128640298},{"NoteNumber":53,"Velocity":38,"Duration":71598,"SoundDuration":71598,"Delta":128640298},{"NoteNumber":65,"Velocity":38,"Duration":87463,"SoundDuration":87463,"Delta":128783496},{"NoteNumber":53,"Velocity":34,"Duration":87463,"SoundDuration":87463,"Delta":128783496},{"NoteNumber":63,"Velocity":45,"Duration":291261,"SoundDuration":291261,"Delta":128958423},{"NoteNumber":51,"Velocity":38,"Duration":291261,"SoundDuration":291261,"Delta":128958423},{"NoteNumber":60,"Velocity":40,"Duration":147420,"SoundDuration":147420,"Delta":129395316},{"NoteNumber":48,"Velocity":36,"Duration":147420,"SoundDuration":147420,"Delta":129395316},{"NoteNumber":59,"Velocity":45,"Duration":147419,"SoundDuration":147419,"Delta":129542736},{"NoteNumber":47,"Velocity":38,"Duration":147419,"SoundDuration":147419,"Delta":129542736},{"NoteNumber":60,"Velocity":40,"Duration":147420,"SoundDuration":147420,"Delta":129690156},{"NoteNumber":48,"Velocity":35,"Duration":147420,"SoundDuration":147420,"Delta":129690156},{"NoteNumber":68,"Velocity":45,"Duration":71770,"SoundDuration":71770,"Delta":129837576},{"NoteNumber":56,"Velocity":38,"Duration":71770,"SoundDuration":71770,"Delta":129837576},{"NoteNumber":68,"Velocity":38,"Duration":87719,"SoundDuration":87719,"Delta":129981116},{"NoteNumber":56,"Velocity":34,"Duration":87719,"SoundDuration":87719,"Delta":129981116},{"NoteNumber":67,"Velocity":45,"Duration":291261,"SoundDuration":291261,"Delta":130156555},{"NoteNumber":55,"Velocity":38,"Duration":291261,"SoundDuration":291261,"Delta":130156555},{"NoteNumber":60,"Velocity":40,"Duration":147420,"SoundDuration":147420,"Delta":130593448},{"NoteNumber":59,"Velocity":45,"Duration":147419,"SoundDuration":147419,"Delta":130740868},{"NoteNumber":60,"Velocity":40,"Duration":147420,"SoundDuration":147420,"Delta":130888288},{"NoteNumber":72,"Velocity":45,"Duration":73170,"SoundDuration":73170,"Delta":131035708},{"NoteNumber":72,"Velocity":38,"Duration":86455,"SoundDuration":86455,"Delta":131182049},{"NoteNumber":72,"Velocity":45,"Duration":146699,"SoundDuration":146699,"Delta":131354960},{"NoteNumber":56,"Velocity":38,"Duration":1202178,"SoundDuration":1202178,"Delta":131354960},{"NoteNumber":60,"Velocity":38,"Duration":1202178,"SoundDuration":1202178,"Delta":131354960},{"NoteNumber":66,"Velocity":38,"Duration":1202178,"SoundDuration":1202178,"Delta":131354960},{"NoteNumber":74,"Velocity":45,"Duration":36674,"SoundDuration":36674,"Delta":131501659},{"NoteNumber":72,"Velocity":45,"Duration":36674,"SoundDuration":36674,"Delta":131538334},{"NoteNumber":71,"Velocity":40,"Duration":36674,"SoundDuration":36674,"Delta":131575009},{"NoteNumber":72,"Velocity":45,"Duration":36674,"SoundDuration":36674,"Delta":131611684},{"NoteNumber":75,"Velocity":50,"Duration":146699,"SoundDuration":146699,"Delta":131648359},{"NoteNumber":74,"Velocity":45,"Duration":153563,"SoundDuration":153563,"Delta":131795058},{"NoteNumber":77,"Velocity":56,"Duration":146341,"SoundDuration":146341,"Delta":131948622},{"NoteNumber":75,"Velocity":53,"Duration":146341,"SoundDuration":146341,"Delta":132094963},{"NoteNumber":74,"Velocity":50,"Duration":146341,"SoundDuration":146341,"Delta":132241305},{"NoteNumber":72,"Velocity":47,"Duration":169491,"SoundDuration":169491,"Delta":132387646},{"NoteNumber":71,"Velocity":51,"Duration":291261,"SoundDuration":291261,"Delta":132557138},{"NoteNumber":67,"Velocity":38,"Duration":291261,"SoundDuration":291261,"Delta":132557138},{"NoteNumber":62,"Velocity":32,"Duration":291261,"SoundDuration":291261,"Delta":132557138},{"NoteNumber":55,"Velocity":32,"Duration":291261,"SoundDuration":291261,"Delta":132557138},{"NoteNumber":55,"Velocity":40,"Duration":145631,"SoundDuration":145631,"Delta":132994031},{"NoteNumber":43,"Velocity":36,"Duration":145631,"SoundDuration":145631,"Delta":132994031},{"NoteNumber":54,"Velocity":45,"Duration":146341,"SoundDuration":146341,"Delta":133139662},{"NoteNumber":42,"Velocity":38,"Duration":146341,"SoundDuration":146341,"Delta":133139662},{"NoteNumber":55,"Velocity":40,"Duration":146341,"SoundDuration":146341,"Delta":133286003},{"NoteNumber":43,"Velocity":35,"Duration":146341,"SoundDuration":146341,"Delta":133286003},{"NoteNumber":60,"Velocity":45,"Duration":73170,"SoundDuration":73170,"Delta":133432345},{"NoteNumber":48,"Velocity":38,"Duration":73170,"SoundDuration":73170,"Delta":133432345},{"NoteNumber":60,"Velocity":38,"Duration":84745,"SoundDuration":84745,"Delta":133578686},{"NoteNumber":48,"Velocity":34,"Duration":84745,"SoundDuration":84745,"Delta":133578686},{"NoteNumber":59,"Velocity":45,"Duration":291970,"SoundDuration":291970,"Delta":133748178},{"NoteNumber":47,"Velocity":38,"Duration":291970,"SoundDuration":291970,"Delta":133748178},{"NoteNumber":55,"Velocity":40,"Duration":145985,"SoundDuration":145985,"Delta":134186134},{"NoteNumber":43,"Velocity":36,"Duration":145985,"SoundDuration":145985,"Delta":134186134},{"NoteNumber":54,"Velocity":45,"Duration":147420,"SoundDuration":147420,"Delta":134332120},{"NoteNumber":42,"Velocity":38,"Duration":147420,"SoundDuration":147420,"Delta":134332120},{"NoteNumber":55,"Velocity":40,"Duration":147419,"SoundDuration":147419,"Delta":134479540},{"NoteNumber":43,"Velocity":35,"Duration":147419,"SoundDuration":147419,"Delta":134479540},{"NoteNumber":63,"Velocity":45,"Duration":73170,"SoundDuration":73170,"Delta":134626960},{"NoteNumber":51,"Velocity":38,"Duration":73170,"SoundDuration":73170,"Delta":134626960},{"NoteNumber":63,"Velocity":38,"Duration":85714,"SoundDuration":85714,"Delta":134773301},{"NoteNumber":51,"Velocity":34,"Duration":85714,"SoundDuration":85714,"Delta":134773301},{"NoteNumber":62,"Velocity":45,"Duration":296296,"SoundDuration":296296,"Delta":134944730},{"NoteNumber":50,"Velocity":38,"Duration":296296,"SoundDuration":296296,"Delta":134944730},{"NoteNumber":55,"Velocity":45,"Duration":74073,"SoundDuration":74073,"Delta":135389174},{"NoteNumber":43,"Velocity":37,"Duration":74073,"SoundDuration":74073,"Delta":135389174},{"NoteNumber":59,"Velocity":51,"Duration":73170,"SoundDuration":73170,"Delta":135537322},{"NoteNumber":47,"Velocity":43,"Duration":73170,"SoundDuration":73170,"Delta":135537322},{"NoteNumber":62,"Velocity":45,"Duration":73170,"SoundDuration":73170,"Delta":135683663},{"NoteNumber":50,"Velocity":37,"Duration":73170,"SoundDuration":73170,"Delta":135683663},{"NoteNumber":65,"Velocity":45,"Duration":73170,"SoundDuration":73170,"Delta":135830005},{"NoteNumber":53,"Velocity":37,"Duration":73170,"SoundDuration":73170,"Delta":135830005},{"NoteNumber":68,"Velocity":45,"Duration":73170,"SoundDuration":73170,"Delta":135976346},{"NoteNumber":56,"Velocity":37,"Duration":73170,"SoundDuration":73170,"Delta":135976346},{"NoteNumber":71,"Velocity":55,"Duration":73170,"SoundDuration":73170,"Delta":136122688},{"NoteNumber":59,"Velocity":46,"Duration":73170,"SoundDuration":73170,"Delta":136122688},{"NoteNumber":74,"Velocity":53,"Duration":73170,"SoundDuration":73170,"Delta":136269029},{"NoteNumber":62,"Velocity":45,"Duration":73170,"SoundDuration":73170,"Delta":136269029},{"NoteNumber":77,"Velocity":56,"Duration":73170,"SoundDuration":73170,"Delta":136415371},{"NoteNumber":65,"Velocity":47,"Duration":73170,"SoundDuration":73170,"Delta":136415371},{"NoteNumber":80,"Velocity":60,"Duration":76142,"SoundDuration":76142,"Delta":136561712},{"NoteNumber":68,"Velocity":50,"Duration":76142,"SoundDuration":76142,"Delta":136561712},{"NoteNumber":79,"Velocity":63,"Duration":73710,"SoundDuration":73710,"Delta":136713997},{"NoteNumber":67,"Velocity":53,"Duration":73710,"SoundDuration":73710,"Delta":136713997},{"NoteNumber":77,"Velocity":59,"Duration":73709,"SoundDuration":73709,"Delta":136861417},{"NoteNumber":65,"Velocity":50,"Duration":73709,"SoundDuration":73709,"Delta":136861417},{"NoteNumber":75,"Velocity":55,"Duration":73710,"SoundDuration":73710,"Delta":137008837},{"NoteNumber":63,"Velocity":46,"Duration":73710,"SoundDuration":73710,"Delta":137008837},{"NoteNumber":74,"Velocity":54,"Duration":84507,"SoundDuration":84507,"Delta":137156257},{"NoteNumber":62,"Velocity":45,"Duration":84507,"SoundDuration":84507,"Delta":137156257},{"NoteNumber":72,"Velocity":62,"Duration":293398,"SoundDuration":293398,"Delta":137325271},{"NoteNumber":60,"Velocity":42,"Duration":73349,"SoundDuration":73349,"Delta":137325271},{"NoteNumber":63,"Velocity":32,"Duration":73349,"SoundDuration":73349,"Delta":137471970},{"NoteNumber":67,"Velocity":38,"Duration":73349,"SoundDuration":73349,"Delta":137471970},{"NoteNumber":63,"Velocity":32,"Duration":73349,"SoundDuration":73349,"Delta":137618670},{"NoteNumber":67,"Velocity":38,"Duration":73349,"SoundDuration":73349,"Delta":137618670},{"NoteNumber":72,"Velocity":50,"Duration":146699,"SoundDuration":146699,"Delta":137765369},{"NoteNumber":63,"Velocity":32,"Duration":73349,"SoundDuration":73349,"Delta":137765369},{"NoteNumber":67,"Velocity":38,"Duration":73349,"SoundDuration":73349,"Delta":137765369},{"NoteNumber":71,"Velocity":57,"Duration":147783,"SoundDuration":147783,"Delta":137912069},{"NoteNumber":60,"Velocity":42,"Duration":73891,"SoundDuration":73891,"Delta":137912069},{"NoteNumber":72,"Velocity":53,"Duration":147783,"SoundDuration":147783,"Delta":138059852},{"NoteNumber":64,"Velocity":31,"Duration":73891,"SoundDuration":73891,"Delta":138059852},{"NoteNumber":67,"Velocity":31,"Duration":73891,"SoundDuration":73891,"Delta":138059852},{"NoteNumber":70,"Velocity":37,"Duration":73891,"SoundDuration":73891,"Delta":138059852},{"NoteNumber":84,"Velocity":60,"Duration":73170,"SoundDuration":73170,"Delta":138207636},{"NoteNumber":64,"Velocity":31,"Duration":73170,"SoundDuration":73170,"Delta":138207636},{"NoteNumber":67,"Velocity":31,"Duration":73170,"SoundDuration":73170,"Delta":138207636},{"NoteNumber":70,"Velocity":37,"Duration":73170,"SoundDuration":73170,"Delta":138207636},{"NoteNumber":84,"Velocity":52,"Duration":84269,"SoundDuration":84269,"Delta":138353977},{"NoteNumber":64,"Velocity":31,"Duration":84269,"SoundDuration":84269,"Delta":138353977},{"NoteNumber":67,"Velocity":31,"Duration":84269,"SoundDuration":84269,"Delta":138353977},{"NoteNumber":70,"Velocity":37,"Duration":84269,"SoundDuration":84269,"Delta":138353977},{"NoteNumber":84,"Velocity":60,"Duration":293041,"SoundDuration":293041,"Delta":138522517},{"NoteNumber":60,"Velocity":42,"Duration":73529,"SoundDuration":73529,"Delta":138522517},{"NoteNumber":65,"Velocity":32,"Duration":73170,"SoundDuration":73170,"Delta":138669217},{"NoteNumber":68,"Velocity":38,"Duration":73170,"SoundDuration":73170,"Delta":138669217},{"NoteNumber":65,"Velocity":32,"Duration":73170,"SoundDuration":73170,"Delta":138815559},{"NoteNumber":68,"Velocity":38,"Duration":73170,"SoundDuration":73170,"Delta":138815559},{"NoteNumber":89,"Velocity":59,"Duration":146341,"SoundDuration":146341,"Delta":138961900},{"NoteNumber":65,"Velocity":32,"Duration":73170,"SoundDuration":73170,"Delta":138961900},{"NoteNumber":68,"Velocity":38,"Duration":73170,"SoundDuration":73170,"Delta":138961900},{"NoteNumber":87,"Velocity":65,"Duration":146341,"SoundDuration":146341,"Delta":139108242},{"NoteNumber":60,"Velocity":42,"Duration":73170,"SoundDuration":73170,"Delta":139108242},{"NoteNumber":86,"Velocity":60,"Duration":146341,"SoundDuration":146341,"Delta":139254583},{"NoteNumber":65,"Velocity":31,"Duration":73170,"SoundDuration":73170,"Delta":139254583},{"NoteNumber":68,"Velocity":31,"Duration":73170,"SoundDuration":73170,"Delta":139254583},{"NoteNumber":71,"Velocity":37,"Duration":73170,"SoundDuration":73170,"Delta":139254583},{"NoteNumber":84,"Velocity":66,"Duration":146341,"SoundDuration":146341,"Delta":139400925},{"NoteNumber":65,"Velocity":31,"Duration":73170,"SoundDuration":73170,"Delta":139400925},{"NoteNumber":68,"Velocity":31,"Duration":73170,"SoundDuration":73170,"Delta":139400925},{"NoteNumber":71,"Velocity":37,"Duration":73170,"SoundDuration":73170,"Delta":139400925},{"NoteNumber":83,"Velocity":60,"Duration":157480,"SoundDuration":157480,"Delta":139547266},{"NoteNumber":65,"Velocity":31,"Duration":78740,"SoundDuration":78740,"Delta":139547266},{"NoteNumber":68,"Velocity":31,"Duration":78740,"SoundDuration":78740,"Delta":139547266},{"NoteNumber":71,"Velocity":37,"Duration":78740,"SoundDuration":78740,"Delta":139547266},{"NoteNumber":86,"Velocity":69,"Duration":145631,"SoundDuration":145631,"Delta":139704747},{"NoteNumber":60,"Velocity":42,"Duration":72815,"SoundDuration":72815,"Delta":139704747},{"NoteNumber":84,"Velocity":60,"Duration":145630,"SoundDuration":145630,"Delta":139850378},{"NoteNumber":63,"Velocity":32,"Duration":72815,"SoundDuration":72815,"Delta":139850378},{"NoteNumber":67,"Velocity":38,"Duration":72815,"SoundDuration":72815,"Delta":139850378},{"NoteNumber":63,"Velocity":32,"Duration":72815,"SoundDuration":72815,"Delta":139996009},{"NoteNumber":67,"Velocity":38,"Duration":72815,"SoundDuration":72815,"Delta":139996009},{"NoteNumber":72,"Velocity":50,"Duration":145631,"SoundDuration":145631,"Delta":140141640},{"NoteNumber":63,"Velocity":32,"Duration":72815,"SoundDuration":72815,"Delta":140141640},{"NoteNumber":67,"Velocity":38,"Duration":72815,"SoundDuration":72815,"Delta":140141640},{"NoteNumber":71,"Velocity":54,"Duration":58967,"SoundDuration":58967,"Delta":140287271},{"NoteNumber":60,"Velocity":42,"Duration":73710,"SoundDuration":73710,"Delta":140287271},{"NoteNumber":72,"Velocity":54,"Duration":58967,"SoundDuration":58967,"Delta":140346239},{"NoteNumber":73,"Velocity":55,"Duration":58968,"SoundDuration":58968,"Delta":140405207},{"NoteNumber":64,"Velocity":31,"Duration":73709,"SoundDuration":73709,"Delta":140434691},{"NoteNumber":67,"Velocity":31,"Duration":73709,"SoundDuration":73709,"Delta":140434691},{"NoteNumber":70,"Velocity":37,"Duration":73709,"SoundDuration":73709,"Delta":140434691},{"NoteNumber":74,"Velocity":56,"Duration":58967,"SoundDuration":58967,"Delta":140464175},{"NoteNumber":75,"Velocity":56,"Duration":58967,"SoundDuration":58967,"Delta":140523143},{"NoteNumber":76,"Velocity":57,"Duration":73170,"SoundDuration":73170,"Delta":140582111},{"NoteNumber":64,"Velocity":31,"Duration":73170,"SoundDuration":73170,"Delta":140582111},{"NoteNumber":67,"Velocity":31,"Duration":73170,"SoundDuration":73170,"Delta":140582111},{"NoteNumber":70,"Velocity":37,"Duration":73170,"SoundDuration":73170,"Delta":140582111},{"NoteNumber":77,"Velocity":58,"Duration":73170,"SoundDuration":73170,"Delta":140655281},{"NoteNumber":78,"Velocity":59,"Duration":84507,"SoundDuration":84507,"Delta":140728452},{"NoteNumber":64,"Velocity":31,"Duration":84507,"SoundDuration":84507,"Delta":140728452},{"NoteNumber":67,"Velocity":31,"Duration":84507,"SoundDuration":84507,"Delta":140728452},{"NoteNumber":70,"Velocity":37,"Duration":84507,"SoundDuration":84507,"Delta":140728452},{"NoteNumber":79,"Velocity":59,"Duration":84507,"SoundDuration":84507,"Delta":140812959},{"NoteNumber":80,"Velocity":60,"Duration":73170,"SoundDuration":73170,"Delta":140897466},{"NoteNumber":60,"Velocity":42,"Duration":73170,"SoundDuration":73170,"Delta":140897466},{"NoteNumber":81,"Velocity":61,"Duration":73170,"SoundDuration":73170,"Delta":140970637},{"NoteNumber":82,"Velocity":62,"Duration":73170,"SoundDuration":73170,"Delta":141043808},{"NoteNumber":65,"Velocity":32,"Duration":73170,"SoundDuration":73170,"Delta":141043808},{"NoteNumber":68,"Velocity":38,"Duration":73170,"SoundDuration":73170,"Delta":141043808},{"NoteNumber":83,"Velocity":62,"Duration":73170,"SoundDuration":73170,"Delta":141116978},{"NoteNumber":84,"Velocity":68,"Duration":152671,"SoundDuration":152671,"Delta":141190149},{"NoteNumber":65,"Velocity":32,"Duration":76335,"SoundDuration":76335,"Delta":141190149},{"NoteNumber":68,"Velocity":38,"Duration":76335,"SoundDuration":76335,"Delta":141190149},{"NoteNumber":89,"Velocity":63,"Duration":146341,"SoundDuration":146341,"Delta":141342821},{"NoteNumber":65,"Velocity":32,"Duration":73170,"SoundDuration":73170,"Delta":141342821},{"NoteNumber":68,"Velocity":38,"Duration":73170,"SoundDuration":73170,"Delta":141342821},{"NoteNumber":87,"Velocity":65,"Duration":145985,"SoundDuration":145985,"Delta":141489163},{"NoteNumber":60,"Velocity":42,"Duration":72992,"SoundDuration":72992,"Delta":141489163},{"NoteNumber":86,"Velocity":60,"Duration":145985,"SoundDuration":145985,"Delta":141635148},{"NoteNumber":65,"Velocity":31,"Duration":72992,"SoundDuration":72992,"Delta":141635148},{"NoteNumber":68,"Velocity":31,"Duration":72992,"SoundDuration":72992,"Delta":141635148},{"NoteNumber":71,"Velocity":37,"Duration":72992,"SoundDuration":72992,"Delta":141635148},{"NoteNumber":84,"Velocity":66,"Duration":145985,"SoundDuration":145985,"Delta":141781134},{"NoteNumber":65,"Velocity":31,"Duration":72992,"SoundDuration":72992,"Delta":141781134},{"NoteNumber":68,"Velocity":31,"Duration":72992,"SoundDuration":72992,"Delta":141781134},{"NoteNumber":71,"Velocity":37,"Duration":72992,"SoundDuration":72992,"Delta":141781134},{"NoteNumber":83,"Velocity":60,"Duration":156657,"SoundDuration":156657,"Delta":141927119},{"NoteNumber":65,"Velocity":31,"Duration":78328,"SoundDuration":78328,"Delta":141927119},{"NoteNumber":68,"Velocity":31,"Duration":78328,"SoundDuration":78328,"Delta":141927119},{"NoteNumber":71,"Velocity":37,"Duration":78328,"SoundDuration":78328,"Delta":141927119},{"NoteNumber":84,"Velocity":69,"Duration":73349,"SoundDuration":73349,"Delta":142083777},{"NoteNumber":60,"Velocity":36,"Duration":293398,"SoundDuration":293398,"Delta":142083777},{"NoteNumber":63,"Velocity":36,"Duration":293398,"SoundDuration":293398,"Delta":142083777},{"NoteNumber":67,"Velocity":36,"Duration":293398,"SoundDuration":293398,"Delta":142083777},{"NoteNumber":72,"Velocity":44,"Duration":293398,"SoundDuration":293398,"Delta":142088056},{"NoteNumber":86,"Velocity":63,"Duration":73349,"SoundDuration":73349,"Delta":142157127},{"NoteNumber":84,"Velocity":63,"Duration":73349,"SoundDuration":73349,"Delta":142230477},{"NoteNumber":83,"Velocity":63,"Duration":73349,"SoundDuration":73349,"Delta":142303826},{"NoteNumber":84,"Velocity":69,"Duration":73349,"SoundDuration":73349,"Delta":142377176},{"NoteNumber":87,"Velocity":73,"Duration":73349,"SoundDuration":73349,"Delta":142450526},{"NoteNumber":86,"Velocity":72,"Duration":73349,"SoundDuration":73349,"Delta":142523876},{"NoteNumber":66,"Velocity":42,"Duration":165092,"SoundDuration":165092,"Delta":142523876},{"NoteNumber":84,"Velocity":71,"Duration":91743,"SoundDuration":91743,"Delta":142597225},{"NoteNumber":83,"Velocity":72,"Duration":73170,"SoundDuration":73170,"Delta":142688968},{"NoteNumber":67,"Velocity":52,"Duration":292683,"SoundDuration":292683,"Delta":142688968},{"NoteNumber":84,"Velocity":65,"Duration":73170,"SoundDuration":73170,"Delta":142762139},{"NoteNumber":83,"Velocity":65,"Duration":73170,"SoundDuration":73170,"Delta":142835310},{"NoteNumber":80,"Velocity":65,"Duration":73170,"SoundDuration":73170,"Delta":142908481},{"NoteNumber":79,"Velocity":69,"Duration":73170,"SoundDuration":73170,"Delta":142981651},{"NoteNumber":77,"Velocity":63,"Duration":73170,"SoundDuration":73170,"Delta":143054822},{"NoteNumber":75,"Velocity":63,"Duration":73170,"SoundDuration":73170,"Delta":143127993},{"NoteNumber":59,"Velocity":48,"Duration":164913,"SoundDuration":164913,"Delta":143127993},{"NoteNumber":74,"Velocity":63,"Duration":91743,"SoundDuration":91743,"Delta":143201164},{"NoteNumber":72,"Velocity":69,"Duration":73349,"SoundDuration":73349,"Delta":143292907},{"NoteNumber":60,"Velocity":57,"Duration":293398,"SoundDuration":293398,"Delta":143292907},{"NoteNumber":74,"Velocity":63,"Duration":73349,"SoundDuration":73349,"Delta":143366256},{"NoteNumber":72,"Velocity":63,"Duration":73349,"SoundDuration":73349,"Delta":143439606},{"NoteNumber":71,"Velocity":61,"Duration":73349,"SoundDuration":73349,"Delta":143512956},{"NoteNumber":72,"Velocity":66,"Duration":73349,"SoundDuration":73349,"Delta":143586306},{"NoteNumber":75,"Velocity":72,"Duration":73349,"SoundDuration":73349,"Delta":143659655},{"NoteNumber":74,"Velocity":70,"Duration":73349,"SoundDuration":73349,"Delta":143733005},{"NoteNumber":54,"Velocity":54,"Duration":165374,"SoundDuration":165374,"Delta":143733005},{"NoteNumber":72,"Velocity":67,"Duration":92024,"SoundDuration":92024,"Delta":143806355},{"NoteNumber":71,"Velocity":69,"Duration":73170,"SoundDuration":73170,"Delta":143898379},{"NoteNumber":55,"Velocity":63,"Duration":292683,"SoundDuration":292683,"Delta":143898379},{"NoteNumber":72,"Velocity":63,"Duration":73170,"SoundDuration":73170,"Delta":143971550},{"NoteNumber":71,"Velocity":63,"Duration":73170,"SoundDuration":73170,"Delta":144044721},{"NoteNumber":68,"Velocity":63,"Duration":73170,"SoundDuration":73170,"Delta":144117892},{"NoteNumber":67,"Velocity":69,"Duration":73170,"SoundDuration":73170,"Delta":144191062},{"NoteNumber":65,"Velocity":63,"Duration":73170,"SoundDuration":73170,"Delta":144264233},{"NoteNumber":63,"Velocity":63,"Duration":73170,"SoundDuration":73170,"Delta":144337404},{"NoteNumber":47,"Velocity":57,"Duration":164913,"SoundDuration":164913,"Delta":144337404},{"NoteNumber":62,"Velocity":63,"Duration":91743,"SoundDuration":91743,"Delta":144410575},{"NoteNumber":60,"Velocity":77,"Duration":73170,"SoundDuration":73170,"Delta":144502318},{"NoteNumber":48,"Velocity":66,"Duration":292683,"SoundDuration":292683,"Delta":144502318},{"NoteNumber":62,"Velocity":69,"Duration":73170,"SoundDuration":73170,"Delta":144575488},{"NoteNumber":60,"Velocity":69,"Duration":73170,"SoundDuration":73170,"Delta":144648659},{"NoteNumber":59,"Velocity":69,"Duration":73170,"SoundDuration":73170,"Delta":144721830},{"NoteNumber":60,"Velocity":77,"Duration":73170,"SoundDuration":73170,"Delta":144795001},{"NoteNumber":63,"Velocity":69,"Duration":73170,"SoundDuration":73170,"Delta":144868171},{"NoteNumber":62,"Velocity":69,"Duration":73170,"SoundDuration":73170,"Delta":144941342},{"NoteNumber":42,"Velocity":58,"Duration":164634,"SoundDuration":164634,"Delta":144941342},{"NoteNumber":60,"Velocity":69,"Duration":91463,"SoundDuration":91463,"Delta":145014513},{"NoteNumber":59,"Velocity":77,"Duration":74626,"SoundDuration":74626,"Delta":145105976},{"NoteNumber":43,"Velocity":67,"Duration":298507,"SoundDuration":298507,"Delta":145105976},{"NoteNumber":67,"Velocity":69,"Duration":74626,"SoundDuration":74626,"Delta":145180603},{"NoteNumber":62,"Velocity":69,"Duration":74626,"SoundDuration":74626,"Delta":145255230},{"NoteNumber":59,"Velocity":69,"Duration":74626,"SoundDuration":74626,"Delta":145329857},{"NoteNumber":55,"Velocity":79,"Duration":74626,"SoundDuration":74626,"Delta":145404483},{"NoteNumber":36,"Velocity":82,"Duration":149253,"SoundDuration":149253,"Delta":145404483},{"NoteNumber":48,"Velocity":96,"Duration":149253,"SoundDuration":149253,"Delta":145404483},{"NoteNumber":67,"Velocity":69,"Duration":74626,"SoundDuration":74626,"Delta":145479110},{"NoteNumber":63,"Velocity":69,"Duration":74626,"SoundDuration":74626,"Delta":145553737},{"NoteNumber":60,"Velocity":69,"Duration":74626,"SoundDuration":74626,"Delta":145628364},{"NoteNumber":55,"Velocity":81,"Duration":74626,"SoundDuration":74626,"Delta":145702990},{"NoteNumber":31,"Velocity":55,"Duration":149253,"SoundDuration":149253,"Delta":145702990},{"NoteNumber":43,"Velocity":66,"Duration":149253,"SoundDuration":149253,"Delta":145702990},{"NoteNumber":67,"Velocity":69,"Duration":74626,"SoundDuration":74626,"Delta":145777617},{"NoteNumber":62,"Velocity":69,"Duration":74626,"SoundDuration":74626,"Delta":145852244},{"NoteNumber":59,"Velocity":69,"Duration":74626,"SoundDuration":74626,"Delta":145926871},{"NoteNumber":55,"Velocity":80,"Duration":74626,"SoundDuration":74626,"Delta":146001497},{"NoteNumber":36,"Velocity":82,"Duration":149253,"SoundDuration":149253,"Delta":146001497},{"NoteNumber":48,"Velocity":97,"Duration":149253,"SoundDuration":149253,"Delta":146001497},{"NoteNumber":67,"Velocity":69,"Duration":74626,"SoundDuration":74626,"Delta":146076124},{"NoteNumber":63,"Velocity":69,"Duration":74626,"SoundDuration":74626,"Delta":146150751},{"NoteNumber":60,"Velocity":69,"Duration":74626,"SoundDuration":74626,"Delta":146225378},{"NoteNumber":55,"Velocity":80,"Duration":74626,"SoundDuration":74626,"Delta":146300004},{"NoteNumber":31,"Velocity":57,"Duration":149253,"SoundDuration":149253,"Delta":146300004},{"NoteNumber":43,"Velocity":68,"Duration":149253,"SoundDuration":149253,"Delta":146300004},{"NoteNumber":67,"Velocity":69,"Duration":74626,"SoundDuration":74626,"Delta":146374631},{"NoteNumber":62,"Velocity":69,"Duration":74626,"SoundDuration":74626,"Delta":146449258},{"NoteNumber":59,"Velocity":69,"Duration":74626,"SoundDuration":74626,"Delta":146523885},{"NoteNumber":55,"Velocity":80,"Duration":74626,"SoundDuration":74626,"Delta":146598511},{"NoteNumber":36,"Velocity":82,"Duration":149253,"SoundDuration":149253,"Delta":146598511},{"NoteNumber":48,"Velocity":97,"Duration":149253,"SoundDuration":149253,"Delta":146598511},{"NoteNumber":67,"Velocity":69,"Duration":74626,"SoundDuration":74626,"Delta":146673138},{"NoteNumber":63,"Velocity":69,"Duration":74626,"SoundDuration":74626,"Delta":146747765},{"NoteNumber":60,"Velocity":69,"Duration":89552,"SoundDuration":89552,"Delta":146822392},{"NoteNumber":55,"Velocity":74,"Duration":1194029,"SoundDuration":1194029,"Delta":146911944},{"NoteNumber":59,"Velocity":74,"Duration":1194029,"SoundDuration":1194029,"Delta":146911944},{"NoteNumber":62,"Velocity":74,"Duration":1194029,"SoundDuration":1194029,"Delta":146911944},{"NoteNumber":67,"Velocity":89,"Duration":1194029,"SoundDuration":1194029,"Delta":146911944},{"NoteNumber":31,"Velocity":66,"Duration":1194029,"SoundDuration":1194029,"Delta":146911944},{"NoteNumber":35,"Velocity":66,"Duration":1194029,"SoundDuration":1194029,"Delta":146911944},{"NoteNumber":38,"Velocity":66,"Duration":1194029,"SoundDuration":1194029,"Delta":146911944},{"NoteNumber":43,"Velocity":78,"Duration":1194029,"SoundDuration":1194029,"Delta":146911944},{"NoteNumber":67,"Velocity":40,"Duration":77319,"SoundDuration":77319,"Delta":148404481},{"NoteNumber":69,"Velocity":37,"Duration":77319,"SoundDuration":77319,"Delta":148559120},{"NoteNumber":71,"Velocity":37,"Duration":77319,"SoundDuration":77319,"Delta":148713759},{"NoteNumber":64,"Velocity":39,"Duration":635364,"SoundDuration":635364,"Delta":148868398},{"NoteNumber":67,"Velocity":39,"Duration":635364,"SoundDuration":635364,"Delta":148868398},{"NoteNumber":72,"Velocity":46,"Duration":77319,"SoundDuration":77319,"Delta":148868398},{"NoteNumber":55,"Velocity":26,"Duration":635364,"SoundDuration":635364,"Delta":148868398},{"NoteNumber":48,"Velocity":26,"Duration":635364,"SoundDuration":635364,"Delta":148868398},{"NoteNumber":60,"Velocity":31,"Duration":635364,"SoundDuration":635364,"Delta":148868398},{"NoteNumber":74,"Velocity":40,"Duration":77319,"SoundDuration":77319,"Delta":149023037},{"NoteNumber":76,"Velocity":40,"Duration":81521,"SoundDuration":81521,"Delta":149177676},{"NoteNumber":62,"Velocity":38,"Duration":80000,"SoundDuration":80000,"Delta":149503763},{"NoteNumber":67,"Velocity":38,"Duration":80000,"SoundDuration":80000,"Delta":149503763},{"NoteNumber":74,"Velocity":45,"Duration":80000,"SoundDuration":80000,"Delta":149503763},{"NoteNumber":55,"Velocity":25,"Duration":80000,"SoundDuration":80000,"Delta":149503763},{"NoteNumber":53,"Velocity":25,"Duration":80000,"SoundDuration":80000,"Delta":149503763},{"NoteNumber":59,"Velocity":30,"Duration":80000,"SoundDuration":80000,"Delta":149503763},{"NoteNumber":64,"Velocity":33,"Duration":80000,"SoundDuration":80000,"Delta":149823763},{"NoteNumber":67,"Velocity":33,"Duration":80000,"SoundDuration":80000,"Delta":149823763},{"NoteNumber":72,"Velocity":39,"Duration":80000,"SoundDuration":80000,"Delta":149823763},{"NoteNumber":52,"Velocity":23,"Duration":80000,"SoundDuration":80000,"Delta":149823763},{"NoteNumber":55,"Velocity":23,"Duration":80000,"SoundDuration":80000,"Delta":149823763},{"NoteNumber":60,"Velocity":27,"Duration":80000,"SoundDuration":80000,"Delta":149823763},{"NoteNumber":65,"Velocity":37,"Duration":638297,"SoundDuration":638297,"Delta":150179203},{"NoteNumber":67,"Velocity":37,"Duration":638297,"SoundDuration":638297,"Delta":150179203},{"NoteNumber":71,"Velocity":37,"Duration":638297,"SoundDuration":638297,"Delta":150179203},{"NoteNumber":77,"Velocity":45,"Duration":638297,"SoundDuration":638297,"Delta":150179203},{"NoteNumber":55,"Velocity":27,"Duration":638297,"SoundDuration":638297,"Delta":150179203},{"NoteNumber":50,"Velocity":27,"Duration":638297,"SoundDuration":638297,"Delta":150179203},{"NoteNumber":62,"Velocity":32,"Duration":638297,"SoundDuration":638297,"Delta":150179203},{"NoteNumber":67,"Velocity":40,"Duration":77319,"SoundDuration":77319,"Delta":150977075},{"NoteNumber":69,"Velocity":37,"Duration":77319,"SoundDuration":77319,"Delta":151131714},{"NoteNumber":71,"Velocity":37,"Duration":77319,"SoundDuration":77319,"Delta":151286353},{"NoteNumber":64,"Velocity":39,"Duration":635364,"SoundDuration":635364,"Delta":151440992},{"NoteNumber":67,"Velocity":39,"Duration":635364,"SoundDuration":635364,"Delta":151440992},{"NoteNumber":72,"Velocity":46,"Duration":77319,"SoundDuration":77319,"Delta":151440992},{"NoteNumber":55,"Velocity":26,"Duration":635364,"SoundDuration":635364,"Delta":151440992},{"NoteNumber":48,"Velocity":26,"Duration":635364,"SoundDuration":635364,"Delta":151440992},{"NoteNumber":60,"Velocity":31,"Duration":635364,"SoundDuration":635364,"Delta":151440992},{"NoteNumber":74,"Velocity":40,"Duration":77319,"SoundDuration":77319,"Delta":151595631},{"NoteNumber":76,"Velocity":40,"Duration":81521,"SoundDuration":81521,"Delta":151750270},{"NoteNumber":62,"Velocity":38,"Duration":80000,"SoundDuration":80000,"Delta":152076357},{"NoteNumber":69,"Velocity":38,"Duration":80000,"SoundDuration":80000,"Delta":152076357},{"NoteNumber":74,"Velocity":45,"Duration":80000,"SoundDuration":80000,"Delta":152076357},{"NoteNumber":53,"Velocity":25,"Duration":80000,"SoundDuration":80000,"Delta":152076357},{"NoteNumber":57,"Velocity":30,"Duration":80000,"SoundDuration":80000,"Delta":152076357},{"NoteNumber":69,"Velocity":33,"Duration":80000,"SoundDuration":80000,"Delta":152396357},{"NoteNumber":62,"Velocity":33,"Duration":80000,"SoundDuration":80000,"Delta":152396357},{"NoteNumber":72,"Velocity":39,"Duration":80000,"SoundDuration":80000,"Delta":152396357},{"NoteNumber":54,"Velocity":23,"Duration":80000,"SoundDuration":80000,"Delta":152396357},{"NoteNumber":57,"Velocity":27,"Duration":80000,"SoundDuration":80000,"Delta":152396357},{"NoteNumber":59,"Velocity":31,"Duration":639999,"SoundDuration":639999,"Delta":152751797},{"NoteNumber":62,"Velocity":31,"Duration":639999,"SoundDuration":639999,"Delta":152751797},{"NoteNumber":67,"Velocity":37,"Duration":639999,"SoundDuration":639999,"Delta":152751797},{"NoteNumber":43,"Velocity":22,"Duration":639999,"SoundDuration":639999,"Delta":152751797},{"NoteNumber":55,"Velocity":27,"Duration":639999,"SoundDuration":639999,"Delta":152751797},{"NoteNumber":67,"Velocity":40,"Duration":77319,"SoundDuration":77319,"Delta":153551797},{"NoteNumber":69,"Velocity":37,"Duration":77319,"SoundDuration":77319,"Delta":153706436},{"NoteNumber":71,"Velocity":37,"Duration":77319,"SoundDuration":77319,"Delta":153861075},{"NoteNumber":64,"Velocity":39,"Duration":635364,"SoundDuration":635364,"Delta":154015714},{"NoteNumber":67,"Velocity":39,"Duration":635364,"SoundDuration":635364,"Delta":154015714},{"NoteNumber":72,"Velocity":46,"Duration":77319,"SoundDuration":77319,"Delta":154015714},{"NoteNumber":55,"Velocity":26,"Duration":635364,"SoundDuration":635364,"Delta":154015714},{"NoteNumber":48,"Velocity":26,"Duration":635364,"SoundDuration":635364,"Delta":154015714},{"NoteNumber":60,"Velocity":31,"Duration":635364,"SoundDuration":635364,"Delta":154015714},{"NoteNumber":74,"Velocity":40,"Duration":77319,"SoundDuration":77319,"Delta":154170353},{"NoteNumber":76,"Velocity":40,"Duration":81521,"SoundDuration":81521,"Delta":154324992},{"NoteNumber":62,"Velocity":38,"Duration":80000,"SoundDuration":80000,"Delta":154651079},{"NoteNumber":67,"Velocity":38,"Duration":80000,"SoundDuration":80000,"Delta":154651079},{"NoteNumber":74,"Velocity":45,"Duration":80000,"SoundDuration":80000,"Delta":154651079},{"NoteNumber":55,"Velocity":25,"Duration":80000,"SoundDuration":80000,"Delta":154651079},{"NoteNumber":53,"Velocity":25,"Duration":80000,"SoundDuration":80000,"Delta":154651079},{"NoteNumber":59,"Velocity":30,"Duration":80000,"SoundDuration":80000,"Delta":154651079},{"NoteNumber":64,"Velocity":33,"Duration":80000,"SoundDuration":80000,"Delta":154971079},{"NoteNumber":67,"Velocity":33,"Duration":80000,"SoundDuration":80000,"Delta":154971079},{"NoteNumber":72,"Velocity":39,"Duration":80000,"SoundDuration":80000,"Delta":154971079},{"NoteNumber":55,"Velocity":23,"Duration":80000,"SoundDuration":80000,"Delta":154971079},{"NoteNumber":52,"Velocity":23,"Duration":80000,"SoundDuration":80000,"Delta":154971079},{"NoteNumber":60,"Velocity":27,"Duration":80000,"SoundDuration":80000,"Delta":154971079},{"NoteNumber":53,"Velocity":28,"Duration":385916,"SoundDuration":385916,"Delta":155267664},{"NoteNumber":57,"Velocity":32,"Duration":374854,"SoundDuration":374854,"Delta":155278726},{"NoteNumber":60,"Velocity":36,"Duration":363792,"SoundDuration":363792,"Delta":155289788},{"NoteNumber":65,"Velocity":40,"Duration":352730,"SoundDuration":352730,"Delta":155300850},{"NoteNumber":69,"Velocity":45,"Duration":650151,"SoundDuration":650151,"Delta":155311911},{"NoteNumber":72,"Velocity":50,"Duration":639089,"SoundDuration":639089,"Delta":155322973},{"NoteNumber":77,"Velocity":71,"Duration":628027,"SoundDuration":628027,"Delta":155334035},{"NoteNumber":81,"Velocity":80,"Duration":771207,"SoundDuration":771207,"Delta":155345097},{"NoteNumber":81,"Velocity":48,"Duration":77120,"SoundDuration":77120,"Delta":156116305},{"NoteNumber":79,"Velocity":53,"Duration":77120,"SoundDuration":77120,"Delta":156270546},{"NoteNumber":77,"Velocity":50,"Duration":87463,"SoundDuration":87463,"Delta":156424788},{"NoteNumber":76,"Velocity":53,"Duration":153845,"SoundDuration":153845,"Delta":156599715},{"NoteNumber":55,"Velocity":80,"Duration":2472077,"SoundDuration":2472077,"Delta":156599715},{"NoteNumber":74,"Velocity":48,"Duration":153846,"SoundDuration":153846,"Delta":156753561},{"NoteNumber":72,"Velocity":48,"Duration":76922,"SoundDuration":76922,"Delta":156907407},{"NoteNumber":71,"Velocity":48,"Duration":76923,"SoundDuration":76923,"Delta":157061253},{"NoteNumber":62,"Velocity":45,"Duration":621112,"SoundDuration":621112,"Delta":157215099},{"NoteNumber":65,"Velocity":45,"Duration":621112,"SoundDuration":621112,"Delta":157215099},{"NoteNumber":69,"Velocity":53,"Duration":307692,"SoundDuration":307692,"Delta":157215099},{"NoteNumber":43,"Velocity":49,"Duration":76922,"SoundDuration":76922,"Delta":157368945},{"NoteNumber":67,"Velocity":49,"Duration":313420,"SoundDuration":313420,"Delta":157522791},{"NoteNumber":45,"Velocity":53,"Duration":76922,"SoundDuration":76922,"Delta":157522791},{"NoteNumber":47,"Velocity":45,"Duration":79787,"SoundDuration":79787,"Delta":157676637},{"NoteNumber":60,"Velocity":41,"Duration":607594,"SoundDuration":607594,"Delta":157836211},{"NoteNumber":64,"Velocity":41,"Duration":607594,"SoundDuration":607594,"Delta":157836211},{"NoteNumber":67,"Velocity":49,"Duration":607594,"SoundDuration":607594,"Delta":157836211},{"NoteNumber":48,"Velocity":53,"Duration":75949,"SoundDuration":75949,"Delta":157836211},{"NoteNumber":50,"Velocity":49,"Duration":75949,"SoundDuration":75949,"Delta":157988110},{"NoteNumber":52,"Velocity":51,"Duration":75949,"SoundDuration":75949,"Delta":158140008},{"NoteNumber":50,"Velocity":53,"Duration":305343,"SoundDuration":305343,"Delta":158443805},{"NoteNumber":79,"Velocity":48,"Duration":76335,"SoundDuration":76335,"Delta":158596477},{"NoteNumber":77,"Velocity":53,"Duration":76335,"SoundDuration":76335,"Delta":158749149},{"NoteNumber":48,"Velocity":50,"Duration":322643,"SoundDuration":322643,"Delta":158749149},{"NoteNumber":76,"Velocity":50,"Duration":84985,"SoundDuration":84985,"Delta":158901821},{"NoteNumber":76,"Velocity":53,"Duration":153061,"SoundDuration":153061,"Delta":159071793},{"NoteNumber":55,"Velocity":80,"Duration":2454640,"SoundDuration":2454640,"Delta":159071793},{"NoteNumber":74,"Velocity":48,"Duration":153060,"SoundDuration":153060,"Delta":159224854},{"NoteNumber":72,"Velocity":48,"Duration":76530,"SoundDuration":76530,"Delta":159377915},{"NoteNumber":71,"Velocity":48,"Duration":76530,"SoundDuration":76530,"Delta":159530976},{"NoteNumber":62,"Velocity":45,"Duration":617077,"SoundDuration":617077,"Delta":159684037},{"NoteNumber":65,"Velocity":45,"Duration":617077,"SoundDuration":617077,"Delta":159684037},{"NoteNumber":68,"Velocity":53,"Duration":306121,"SoundDuration":306121,"Delta":159684037},{"NoteNumber":43,"Velocity":49,"Duration":76530,"SoundDuration":76530,"Delta":159837098},{"NoteNumber":67,"Velocity":49,"Duration":310955,"SoundDuration":310955,"Delta":159990159},{"NoteNumber":45,"Velocity":53,"Duration":76530,"SoundDuration":76530,"Delta":159990159},{"NoteNumber":47,"Velocity":45,"Duration":78947,"SoundDuration":78947,"Delta":160143220},{"NoteNumber":60,"Velocity":54,"Duration":604534,"SoundDuration":604534,"Delta":160301114},{"NoteNumber":63,"Velocity":54,"Duration":604534,"SoundDuration":604534,"Delta":160301114},{"NoteNumber":67,"Velocity":54,"Duration":604534,"SoundDuration":604534,"Delta":160301114},{"NoteNumber":48,"Velocity":53,"Duration":75566,"SoundDuration":75566,"Delta":160301114},{"NoteNumber":50,"Velocity":49,"Duration":75566,"SoundDuration":75566,"Delta":160452248},{"NoteNumber":51,"Velocity":51,"Duration":75566,"SoundDuration":75566,"Delta":160603381},{"NoteNumber":50,"Velocity":53,"Duration":306905,"SoundDuration":306905,"Delta":160905648},{"NoteNumber":79,"Velocity":48,"Duration":76726,"SoundDuration":76726,"Delta":161059101},{"NoteNumber":67,"Velocity":48,"Duration":76726,"SoundDuration":76726,"Delta":161059101},{"NoteNumber":77,"Velocity":53,"Duration":76726,"SoundDuration":76726,"Delta":161212553},{"NoteNumber":65,"Velocity":53,"Duration":76726,"SoundDuration":76726,"Delta":161212553},{"NoteNumber":48,"Velocity":50,"Duration":313880,"SoundDuration":313880,"Delta":161212553},{"NoteNumber":75,"Velocity":50,"Duration":80214,"SoundDuration":80214,"Delta":161366006},{"NoteNumber":63,"Velocity":50,"Duration":80214,"SoundDuration":80214,"Delta":161366006},{"NoteNumber":75,"Velocity":55,"Duration":152284,"SoundDuration":152284,"Delta":161526434},{"NoteNumber":63,"Velocity":55,"Duration":152284,"SoundDuration":152284,"Delta":161526434},{"NoteNumber":50,"Velocity":45,"Duration":304568,"SoundDuration":304568,"Delta":161526434},{"NoteNumber":53,"Velocity":53,"Duration":304568,"SoundDuration":304568,"Delta":161526434},{"NoteNumber":41,"Velocity":45,"Duration":304568,"SoundDuration":304568,"Delta":161526434},{"NoteNumber":44,"Velocity":45,"Duration":304568,"SoundDuration":304568,"Delta":161526434},{"NoteNumber":74,"Velocity":48,"Duration":152284,"SoundDuration":152284,"Delta":161678718},{"NoteNumber":62,"Velocity":48,"Duration":152284,"SoundDuration":152284,"Delta":161678718},{"NoteNumber":72,"Velocity":48,"Duration":76142,"SoundDuration":76142,"Delta":161831003},{"NoteNumber":60,"Velocity":48,"Duration":76142,"SoundDuration":76142,"Delta":161831003},{"NoteNumber":71,"Velocity":48,"Duration":76142,"SoundDuration":76142,"Delta":161983287},{"NoteNumber":59,"Velocity":48,"Duration":76142,"SoundDuration":76142,"Delta":161983287},{"NoteNumber":56,"Velocity":55,"Duration":76335,"SoundDuration":76335,"Delta":162135572},{"NoteNumber":68,"Velocity":55,"Duration":76335,"SoundDuration":76335,"Delta":162135572},{"NoteNumber":47,"Velocity":42,"Duration":305343,"SoundDuration":305343,"Delta":162135572},{"NoteNumber":43,"Velocity":42,"Duration":305343,"SoundDuration":305343,"Delta":162135572},{"NoteNumber":50,"Velocity":42,"Duration":305343,"SoundDuration":305343,"Delta":162135572},{"NoteNumber":53,"Velocity":50,"Duration":305343,"SoundDuration":305343,"Delta":162135572},{"NoteNumber":55,"Velocity":48,"Duration":76335,"SoundDuration":76335,"Delta":162288244},{"NoteNumber":67,"Velocity":48,"Duration":76335,"SoundDuration":76335,"Delta":162288244},{"NoteNumber":57,"Velocity":48,"Duration":76335,"SoundDuration":76335,"Delta":162440916},{"NoteNumber":69,"Velocity":48,"Duration":76335,"SoundDuration":76335,"Delta":162440916},{"NoteNumber":59,"Velocity":48,"Duration":81743,"SoundDuration":81743,"Delta":162593588},{"NoteNumber":71,"Velocity":48,"Duration":81743,"SoundDuration":81743,"Delta":162593588},{"NoteNumber":60,"Velocity":49,"Duration":305303,"SoundDuration":305303,"Delta":162756690},{"NoteNumber":72,"Velocity":58,"Duration":305303,"SoundDuration":305303,"Delta":162756690},{"NoteNumber":51,"Velocity":58,"Duration":152610,"SoundDuration":152610,"Delta":162756690},{"NoteNumber":48,"Velocity":49,"Duration":152610,"SoundDuration":152610,"Delta":162756690},{"NoteNumber":55,"Velocity":48,"Duration":76436,"SoundDuration":76436,"Delta":162909301},{"NoteNumber":55,"Velocity":48,"Duration":76580,"SoundDuration":76580,"Delta":163061994},{"NoteNumber":72,"Velocity":54,"Duration":152896,"SoundDuration":152896,"Delta":163214556},{"NoteNumber":55,"Velocity":48,"Duration":76850,"SoundDuration":76850,"Delta":163214556},{"NoteNumber":71,"Velocity":60,"Duration":153637,"SoundDuration":153637,"Delta":163367453},{"NoteNumber":55,"Velocity":54,"Duration":153637,"SoundDuration":153637,"Delta":163367453},{"NoteNumber":72,"Velocity":55,"Duration":152334,"SoundDuration":152334,"Delta":163521090},{"NoteNumber":55,"Velocity":47,"Duration":76062,"SoundDuration":76062,"Delta":163521090},{"NoteNumber":74,"Velocity":52,"Duration":76335,"SoundDuration":76335,"Delta":163673425},{"NoteNumber":77,"Velocity":62,"Duration":76335,"SoundDuration":76335,"Delta":163673425},{"NoteNumber":47,"Velocity":47,"Duration":76335,"SoundDuration":76335,"Delta":163673425},{"NoteNumber":74,"Velocity":48,"Duration":79155,"SoundDuration":79155,"Delta":163826097},{"NoteNumber":77,"Velocity":57,"Duration":79155,"SoundDuration":79155,"Delta":163826097},{"NoteNumber":55,"Velocity":47,"Duration":79155,"SoundDuration":79155,"Delta":163826097},{"NoteNumber":72,"Velocity":55,"Duration":305303,"SoundDuration":305303,"Delta":163984409},{"NoteNumber":75,"Velocity":65,"Duration":305303,"SoundDuration":305303,"Delta":163984409},{"NoteNumber":48,"Velocity":63,"Duration":152610,"SoundDuration":152610,"Delta":163984409},{"NoteNumber":55,"Velocity":52,"Duration":76436,"SoundDuration":76436,"Delta":164137019},{"NoteNumber":55,"Velocity":52,"Duration":76580,"SoundDuration":76580,"Delta":164289712},{"NoteNumber":72,"Velocity":61,"Duration":152896,"SoundDuration":152896,"Delta":164442275},{"NoteNumber":55,"Velocity":52,"Duration":76850,"SoundDuration":76850,"Delta":164442275},{"NoteNumber":71,"Velocity":68,"Duration":153637,"SoundDuration":153637,"Delta":164595171},{"NoteNumber":55,"Velocity":59,"Duration":153637,"SoundDuration":153637,"Delta":164595171},{"NoteNumber":72,"Velocity":63,"Duration":152334,"SoundDuration":152334,"Delta":164748809},{"NoteNumber":55,"Velocity":52,"Duration":76062,"SoundDuration":76062,"Delta":164748809},{"NoteNumber":77,"Velocity":58,"Duration":76335,"SoundDuration":76335,"Delta":164901144},{"NoteNumber":80,"Velocity":69,"Duration":76335,"SoundDuration":76335,"Delta":164901144},{"NoteNumber":47,"Velocity":52,"Duration":76335,"SoundDuration":76335,"Delta":164901144},{"NoteNumber":77,"Velocity":54,"Duration":79155,"SoundDuration":79155,"Delta":165053816},{"NoteNumber":80,"Velocity":64,"Duration":79155,"SoundDuration":79155,"Delta":165053816},{"NoteNumber":55,"Velocity":52,"Duration":79155,"SoundDuration":79155,"Delta":165053816},{"NoteNumber":75,"Velocity":70,"Duration":305903,"SoundDuration":305903,"Delta":165212127},{"NoteNumber":79,"Velocity":70,"Duration":305903,"SoundDuration":305903,"Delta":165212127},{"NoteNumber":48,"Velocity":69,"Duration":153468,"SoundDuration":153468,"Delta":165212127},{"NoteNumber":55,"Velocity":55,"Duration":76162,"SoundDuration":76162,"Delta":165365595},{"NoteNumber":55,"Velocity":55,"Duration":76962,"SoundDuration":76962,"Delta":165518031},{"NoteNumber":84,"Velocity":74,"Duration":153349,"SoundDuration":153349,"Delta":165671259},{"NoteNumber":55,"Velocity":55,"Duration":76797,"SoundDuration":76797,"Delta":165671259},{"NoteNumber":83,"Velocity":84,"Duration":153534,"SoundDuration":153534,"Delta":165824608},{"NoteNumber":55,"Velocity":71,"Duration":153534,"SoundDuration":153534,"Delta":165824608},{"NoteNumber":84,"Velocity":77,"Duration":162313,"SoundDuration":162313,"Delta":165978143},{"NoteNumber":55,"Velocity":62,"Duration":76648,"SoundDuration":76648,"Delta":165978143},{"NoteNumber":89,"Velocity":94,"Duration":102319,"SoundDuration":102319,"Delta":166140457},{"NoteNumber":86,"Velocity":94,"Duration":102319,"SoundDuration":102319,"Delta":166140457},{"NoteNumber":47,"Velocity":57,"Duration":102319,"SoundDuration":102319,"Delta":166140457},{"NoteNumber":50,"Velocity":57,"Duration":102319,"SoundDuration":102319,"Delta":166140457},{"NoteNumber":53,"Velocity":57,"Duration":102319,"SoundDuration":102319,"Delta":166140457},{"NoteNumber":55,"Velocity":68,"Duration":102319,"SoundDuration":102319,"Delta":166140457},{"NoteNumber":86,"Velocity":86,"Duration":131578,"SoundDuration":131578,"Delta":166345095},{"NoteNumber":89,"Velocity":86,"Duration":131578,"SoundDuration":131578,"Delta":166345095},{"NoteNumber":47,"Velocity":58,"Duration":131578,"SoundDuration":131578,"Delta":166345095},{"NoteNumber":50,"Velocity":58,"Duration":131578,"SoundDuration":131578,"Delta":166345095},{"NoteNumber":53,"Velocity":58,"Duration":131578,"SoundDuration":131578,"Delta":166345095},{"NoteNumber":55,"Velocity":69,"Duration":131578,"SoundDuration":131578,"Delta":166345095},{"NoteNumber":86,"Velocity":101,"Duration":307692,"SoundDuration":307692,"Delta":166608253},{"NoteNumber":89,"Velocity":101,"Duration":384614,"SoundDuration":384614,"Delta":166608253},{"NoteNumber":55,"Velocity":72,"Duration":1223975,"SoundDuration":1223975,"Delta":166608253},{"NoteNumber":47,"Velocity":53,"Duration":1223975,"SoundDuration":1223975,"Delta":166608253},{"NoteNumber":50,"Velocity":53,"Duration":1223975,"SoundDuration":1223975,"Delta":166608253},{"NoteNumber":53,"Velocity":53,"Duration":1223975,"SoundDuration":1223975,"Delta":166608253},{"NoteNumber":87,"Velocity":74,"Duration":76922,"SoundDuration":76922,"Delta":166992868},{"NoteNumber":86,"Velocity":73,"Duration":76054,"SoundDuration":76054,"Delta":167069791},{"NoteNumber":84,"Velocity":72,"Duration":75949,"SoundDuration":75949,"Delta":167145846},{"NoteNumber":83,"Velocity":72,"Duration":76024,"SoundDuration":76024,"Delta":167221795},{"NoteNumber":84,"Velocity":72,"Duration":76142,"SoundDuration":76142,"Delta":167297820},{"NoteNumber":86,"Velocity":71,"Duration":76142,"SoundDuration":76142,"Delta":167373962},{"NoteNumber":84,"Velocity":70,"Duration":76315,"SoundDuration":76315,"Delta":167450104},{"NoteNumber":83,"Velocity":69,"Duration":76335,"SoundDuration":76335,"Delta":167526419},{"NoteNumber":80,"Velocity":68,"Duration":76412,"SoundDuration":76412,"Delta":167602755},{"NoteNumber":79,"Velocity":67,"Duration":76530,"SoundDuration":76530,"Delta":167679168},{"NoteNumber":77,"Velocity":66,"Duration":76530,"SoundDuration":76530,"Delta":167755698},{"NoteNumber":75,"Velocity":66,"Duration":102040,"SoundDuration":102040,"Delta":167832229},{"NoteNumber":48,"Velocity":49,"Duration":306122,"SoundDuration":306122,"Delta":167832229},{"NoteNumber":51,"Velocity":49,"Duration":306122,"SoundDuration":306122,"Delta":167832229},{"NoteNumber":55,"Velocity":66,"Duration":306122,"SoundDuration":306122,"Delta":167832229},{"NoteNumber":77,"Velocity":62,"Duration":102040,"SoundDuration":102040,"Delta":167934269},{"NoteNumber":79,"Velocity":62,"Duration":102040,"SoundDuration":102040,"Delta":168036310},{"NoteNumber":77,"Velocity":66,"Duration":101953,"SoundDuration":101953,"Delta":168138351},{"NoteNumber":75,"Velocity":62,"Duration":101631,"SoundDuration":101631,"Delta":168240304},{"NoteNumber":74,"Velocity":62,"Duration":101954,"SoundDuration":101954,"Delta":168341935},{"NoteNumber":72,"Velocity":66,"Duration":102324,"SoundDuration":102324,"Delta":168443890},{"NoteNumber":70,"Velocity":62,"Duration":102564,"SoundDuration":102564,"Delta":168546215},{"NoteNumber":68,"Velocity":62,"Duration":102564,"SoundDuration":102564,"Delta":168648779},{"NoteNumber":67,"Velocity":66,"Duration":102563,"SoundDuration":102563,"Delta":168751343},{"NoteNumber":65,"Velocity":60,"Duration":104332,"SoundDuration":104332,"Delta":168853907},{"NoteNumber":63,"Velocity":63,"Duration":106100,"SoundDuration":106100,"Delta":168958239},{"NoteNumber":41,"Velocity":73,"Duration":160427,"SoundDuration":160427,"Delta":169064340},{"NoteNumber":62,"Velocity":59,"Duration":80213,"SoundDuration":80213,"Delta":169144554},{"NoteNumber":65,"Velocity":63,"Duration":76726,"SoundDuration":76726,"Delta":169224768},{"NoteNumber":68,"Velocity":67,"Duration":76726,"SoundDuration":76726,"Delta":169301494},{"NoteNumber":74,"Velocity":72,"Duration":153452,"SoundDuration":153452,"Delta":169378220},{"NoteNumber":53,"Velocity":63,"Duration":76726,"SoundDuration":76726,"Delta":169531673},{"NoteNumber":43,"Velocity":70,"Duration":159151,"SoundDuration":159151,"Delta":169685125},{"NoteNumber":59,"Velocity":63,"Duration":79575,"SoundDuration":79575,"Delta":169764701},{"NoteNumber":62,"Velocity":66,"Duration":76726,"SoundDuration":76726,"Delta":169844276},{"NoteNumber":65,"Velocity":69,"Duration":76726,"SoundDuration":76726,"Delta":169921002},{"NoteNumber":71,"Velocity":72,"Duration":153452,"SoundDuration":153452,"Delta":169997729},{"NoteNumber":55,"Velocity":63,"Duration":81081,"SoundDuration":81081,"Delta":170151181},{"NoteNumber":71,"Velocity":67,"Duration":77120,"SoundDuration":77120,"Delta":170312617},{"NoteNumber":83,"Velocity":60,"Duration":76985,"SoundDuration":76985,"Delta":170389738},{"NoteNumber":71,"Velocity":67,"Duration":76837,"SoundDuration":76837,"Delta":170466723},{"NoteNumber":65,"Velocity":63,"Duration":76837,"SoundDuration":76837,"Delta":170466723},{"NoteNumber":83,"Velocity":60,"Duration":76726,"SoundDuration":76726,"Delta":170543561},{"NoteNumber":67,"Velocity":65,"Duration":76726,"SoundDuration":76726,"Delta":170543561},{"NoteNumber":71,"Velocity":67,"Duration":76543,"SoundDuration":76543,"Delta":170620287},{"NoteNumber":68,"Velocity":69,"Duration":76543,"SoundDuration":76543,"Delta":170620287},{"NoteNumber":83,"Velocity":59,"Duration":76397,"SoundDuration":76397,"Delta":170696831},{"NoteNumber":67,"Velocity":67,"Duration":76397,"SoundDuration":76397,"Delta":170696831},{"NoteNumber":71,"Velocity":67,"Duration":75940,"SoundDuration":75940,"Delta":170773228},{"NoteNumber":65,"Velocity":65,"Duration":75940,"SoundDuration":75940,"Delta":170773228},{"NoteNumber":83,"Velocity":61,"Duration":75757,"SoundDuration":75757,"Delta":170849169},{"NoteNumber":63,"Velocity":64,"Duration":75757,"SoundDuration":75757,"Delta":170849169},{"NoteNumber":71,"Velocity":67,"Duration":75757,"SoundDuration":75757,"Delta":170924927},{"NoteNumber":62,"Velocity":67,"Duration":101061,"SoundDuration":101061,"Delta":170924927},{"NoteNumber":83,"Velocity":59,"Duration":75936,"SoundDuration":75936,"Delta":171000684},{"NoteNumber":60,"Velocity":61,"Duration":101265,"SoundDuration":101265,"Delta":171025988},{"NoteNumber":71,"Velocity":67,"Duration":75949,"SoundDuration":75949,"Delta":171076621},{"NoteNumber":59,"Velocity":61,"Duration":101301,"SoundDuration":101301,"Delta":171127253},{"NoteNumber":83,"Velocity":59,"Duration":75984,"SoundDuration":75984,"Delta":171152570},{"NoteNumber":71,"Velocity":67,"Duration":76142,"SoundDuration":76142,"Delta":171228555},{"NoteNumber":56,"Velocity":67,"Duration":101523,"SoundDuration":101523,"Delta":171228555},{"NoteNumber":83,"Velocity":59,"Duration":76142,"SoundDuration":76142,"Delta":171304697},{"NoteNumber":55,"Velocity":62,"Duration":101542,"SoundDuration":101542,"Delta":171330078},{"NoteNumber":71,"Velocity":67,"Duration":76226,"SoundDuration":76226,"Delta":171380839},{"NoteNumber":53,"Velocity":62,"Duration":101781,"SoundDuration":101781,"Delta":171431620},{"NoteNumber":83,"Velocity":60,"Duration":76335,"SoundDuration":76335,"Delta":171457065},{"NoteNumber":72,"Velocity":67,"Duration":77120,"SoundDuration":77120,"Delta":171533401},{"NoteNumber":51,"Velocity":67,"Duration":102824,"SoundDuration":102824,"Delta":171533401},{"NoteNumber":84,"Velocity":60,"Duration":76985,"SoundDuration":76985,"Delta":171610522},{"NoteNumber":53,"Velocity":63,"Duration":102544,"SoundDuration":102544,"Delta":171636226},{"NoteNumber":72,"Velocity":69,"Duration":76837,"SoundDuration":76837,"Delta":171687508},{"NoteNumber":55,"Velocity":63,"Duration":102301,"SoundDuration":102301,"Delta":171738770},{"NoteNumber":84,"Velocity":62,"Duration":76726,"SoundDuration":76726,"Delta":171764345},{"NoteNumber":72,"Velocity":71,"Duration":76543,"SoundDuration":76543,"Delta":171841072},{"NoteNumber":53,"Velocity":67,"Duration":102050,"SoundDuration":102050,"Delta":171841072},{"NoteNumber":84,"Velocity":63,"Duration":76397,"SoundDuration":76397,"Delta":171917615},{"NoteNumber":51,"Velocity":60,"Duration":101578,"SoundDuration":101578,"Delta":171943122},{"NoteNumber":72,"Velocity":72,"Duration":75940,"SoundDuration":75940,"Delta":171994013},{"NoteNumber":50,"Velocity":60,"Duration":101010,"SoundDuration":101010,"Delta":172044701},{"NoteNumber":84,"Velocity":67,"Duration":75757,"SoundDuration":75757,"Delta":172069953},{"NoteNumber":72,"Velocity":75,"Duration":75757,"SoundDuration":75757,"Delta":172145711},{"NoteNumber":48,"Velocity":70,"Duration":101061,"SoundDuration":101061,"Delta":172145711},{"NoteNumber":84,"Velocity":67,"Duration":75936,"SoundDuration":75936,"Delta":172221468},{"NoteNumber":46,"Velocity":63,"Duration":101265,"SoundDuration":101265,"Delta":172246772},{"NoteNumber":72,"Velocity":77,"Duration":75949,"SoundDuration":75949,"Delta":172297405},{"NoteNumber":44,"Velocity":66,"Duration":101301,"SoundDuration":101301,"Delta":172348038},{"NoteNumber":84,"Velocity":69,"Duration":75984,"SoundDuration":75984,"Delta":172373354},{"NoteNumber":72,"Velocity":80,"Duration":76142,"SoundDuration":76142,"Delta":172449339},{"NoteNumber":43,"Velocity":74,"Duration":101523,"SoundDuration":101523,"Delta":172449339},{"NoteNumber":84,"Velocity":71,"Duration":76142,"SoundDuration":76142,"Delta":172525481},{"NoteNumber":41,"Velocity":67,"Duration":101542,"SoundDuration":101542,"Delta":172550862},{"NoteNumber":72,"Velocity":81,"Duration":76226,"SoundDuration":76226,"Delta":172601623},{"NoteNumber":39,"Velocity":67,"Duration":101781,"SoundDuration":101781,"Delta":172652404},{"NoteNumber":84,"Velocity":73,"Duration":76335,"SoundDuration":76335,"Delta":172677849},{"NoteNumber":29,"Velocity":73,"Duration":160427,"SoundDuration":160427,"Delta":172754185},{"NoteNumber":41,"Velocity":73,"Duration":160427,"SoundDuration":160427,"Delta":172754185},{"NoteNumber":77,"Velocity":71,"Duration":80213,"SoundDuration":80213,"Delta":172834399},{"NoteNumber":80,"Velocity":76,"Duration":76726,"SoundDuration":76726,"Delta":172914613},{"NoteNumber":86,"Velocity":81,"Duration":76726,"SoundDuration":76726,"Delta":172991340},{"NoteNumber":89,"Velocity":86,"Duration":153452,"SoundDuration":153452,"Delta":173068066},{"NoteNumber":29,"Velocity":63,"Duration":76726,"SoundDuration":76726,"Delta":173221518},{"NoteNumber":41,"Velocity":63,"Duration":76726,"SoundDuration":76726,"Delta":173221518},{"NoteNumber":31,"Velocity":70,"Duration":159151,"SoundDuration":159151,"Delta":173374971},{"NoteNumber":43,"Velocity":70,"Duration":159151,"SoundDuration":159151,"Delta":173374971},{"NoteNumber":74,"Velocity":75,"Duration":79575,"SoundDuration":79575,"Delta":173454546},{"NoteNumber":77,"Velocity":79,"Duration":76726,"SoundDuration":76726,"Delta":173534122},{"NoteNumber":83,"Velocity":82,"Duration":76726,"SoundDuration":76726,"Delta":173610848},{"NoteNumber":86,"Velocity":86,"Duration":153452,"SoundDuration":153452,"Delta":173687574},{"NoteNumber":31,"Velocity":63,"Duration":81081,"SoundDuration":81081,"Delta":173841027},{"NoteNumber":43,"Velocity":63,"Duration":81081,"SoundDuration":81081,"Delta":173841027},{"NoteNumber":72,"Velocity":80,"Duration":308482,"SoundDuration":308482,"Delta":174002463},{"NoteNumber":79,"Velocity":80,"Duration":308482,"SoundDuration":308482,"Delta":174002463},{"NoteNumber":75,"Velocity":80,"Duration":308482,"SoundDuration":308482,"Delta":174002463},{"NoteNumber":84,"Velocity":94,"Duration":308482,"SoundDuration":308482,"Delta":174002463},{"NoteNumber":36,"Velocity":59,"Duration":308482,"SoundDuration":308482,"Delta":174002463},{"NoteNumber":39,"Velocity":59,"Duration":308482,"SoundDuration":308482,"Delta":174002463},{"NoteNumber":43,"Velocity":59,"Duration":308482,"SoundDuration":308482,"Delta":174002463},{"NoteNumber":48,"Velocity":70,"Duration":308482,"SoundDuration":308482,"Delta":174002463},{"NoteNumber":79,"Velocity":63,"Duration":74441,"SoundDuration":74441,"Delta":174310946},{"NoteNumber":61,"Velocity":53,"Duration":74441,"SoundDuration":74441,"Delta":174310946},{"NoteNumber":64,"Velocity":63,"Duration":74441,"SoundDuration":74441,"Delta":174310946},{"NoteNumber":79,"Velocity":63,"Duration":78533,"SoundDuration":78533,"Delta":174459829},{"NoteNumber":61,"Velocity":53,"Duration":78533,"SoundDuration":78533,"Delta":174459829},{"NoteNumber":64,"Velocity":63,"Duration":78533,"SoundDuration":78533,"Delta":174459829},{"NoteNumber":79,"Velocity":70,"Duration":153845,"SoundDuration":153845,"Delta":174616897},{"NoteNumber":62,"Velocity":59,"Duration":153845,"SoundDuration":153845,"Delta":174616897},{"NoteNumber":65,"Velocity":70,"Duration":153845,"SoundDuration":153845,"Delta":174616897},{"NoteNumber":79,"Velocity":63,"Duration":74441,"SoundDuration":74441,"Delta":174924589},{"NoteNumber":61,"Velocity":53,"Duration":74441,"SoundDuration":74441,"Delta":174924589},{"NoteNumber":64,"Velocity":63,"Duration":74441,"SoundDuration":74441,"Delta":174924589},{"NoteNumber":79,"Velocity":63,"Duration":78533,"SoundDuration":78533,"Delta":175073473},{"NoteNumber":61,"Velocity":53,"Duration":78533,"SoundDuration":78533,"Delta":175073473},{"NoteNumber":64,"Velocity":63,"Duration":78533,"SoundDuration":78533,"Delta":175073473},{"NoteNumber":79,"Velocity":69,"Duration":154241,"SoundDuration":154241,"Delta":175230541},{"NoteNumber":62,"Velocity":59,"Duration":154241,"SoundDuration":154241,"Delta":175230541},{"NoteNumber":65,"Velocity":70,"Duration":154241,"SoundDuration":154241,"Delta":175230541},{"NoteNumber":50,"Velocity":60,"Duration":152284,"SoundDuration":152284,"Delta":175539024},{"NoteNumber":53,"Velocity":60,"Duration":152284,"SoundDuration":152284,"Delta":175539024},{"NoteNumber":59,"Velocity":72,"Duration":152284,"SoundDuration":152284,"Delta":175539024},{"NoteNumber":31,"Velocity":63,"Duration":152284,"SoundDuration":152284,"Delta":175539024},{"NoteNumber":43,"Velocity":74,"Duration":152284,"SoundDuration":152284,"Delta":175539024},{"NoteNumber":50,"Velocity":33,"Duration":77720,"SoundDuration":77720,"Delta":176148162},{"NoteNumber":53,"Velocity":33,"Duration":77720,"SoundDuration":77720,"Delta":176148162},{"NoteNumber":59,"Velocity":39,"Duration":77720,"SoundDuration":77720,"Delta":176148162},{"NoteNumber":31,"Velocity":30,"Duration":77720,"SoundDuration":77720,"Delta":176148162},{"NoteNumber":43,"Velocity":36,"Duration":77720,"SoundDuration":77720,"Delta":176148162},{"NoteNumber":48,"Velocity":37,"Duration":76335,"SoundDuration":76335,"Delta":176459043},{"NoteNumber":51,"Velocity":37,"Duration":76335,"SoundDuration":76335,"Delta":176459043},{"NoteNumber":60,"Velocity":45,"Duration":76335,"SoundDuration":76335,"Delta":176459043},{"NoteNumber":32,"Velocity":32,"Duration":76335,"SoundDuration":76335,"Delta":176459043},{"NoteNumber":44,"Velocity":38,"Duration":76335,"SoundDuration":76335,"Delta":176459043},{"NoteNumber":57,"Velocity":35,"Duration":75566,"SoundDuration":75566,"Delta":176764387},{"NoteNumber":60,"Velocity":35,"Duration":75566,"SoundDuration":75566,"Delta":176764387},{"NoteNumber":62,"Velocity":41,"Duration":75566,"SoundDuration":75566,"Delta":176764387},{"NoteNumber":30,"Velocity":30,"Duration":75566,"SoundDuration":75566,"Delta":176764387},{"NoteNumber":42,"Velocity":36,"Duration":75566,"SoundDuration":75566,"Delta":176764387},{"NoteNumber":55,"Velocity":37,"Duration":75566,"SoundDuration":75566,"Delta":177066654},{"NoteNumber":60,"Velocity":37,"Duration":75566,"SoundDuration":75566,"Delta":177066654},{"NoteNumber":63,"Velocity":45,"Duration":75566,"SoundDuration":75566,"Delta":177066654},{"NoteNumber":31,"Velocity":32,"Duration":75566,"SoundDuration":75566,"Delta":177066654},{"NoteNumber":43,"Velocity":38,"Duration":75566,"SoundDuration":75566,"Delta":177066654},{"NoteNumber":53,"Velocity":33,"Duration":77720,"SoundDuration":77720,"Delta":177368921},{"NoteNumber":59,"Velocity":33,"Duration":77720,"SoundDuration":77720,"Delta":177368921},{"NoteNumber":62,"Velocity":39,"Duration":77720,"SoundDuration":77720,"Delta":177368921},{"NoteNumber":31,"Velocity":27,"Duration":77720,"SoundDuration":77720,"Delta":177368921},{"NoteNumber":43,"Velocity":33,"Duration":77720,"SoundDuration":77720,"Delta":177368921},{"NoteNumber":51,"Velocity":37,"Duration":76142,"SoundDuration":76142,"Delta":177679802},{"NoteNumber":55,"Velocity":37,"Duration":76142,"SoundDuration":76142,"Delta":177679802},{"NoteNumber":60,"Velocity":45,"Duration":76142,"SoundDuration":76142,"Delta":177679802},{"NoteNumber":36,"Velocity":32,"Duration":76142,"SoundDuration":76142,"Delta":177679802},{"NoteNumber":48,"Velocity":38,"Duration":76142,"SoundDuration":76142,"Delta":177679802},{"NoteNumber":79,"Velocity":63,"Duration":74441,"SoundDuration":74441,"Delta":177984371},{"NoteNumber":61,"Velocity":53,"Duration":74441,"SoundDuration":74441,"Delta":177984371},{"NoteNumber":64,"Velocity":63,"Duration":74441,"SoundDuration":74441,"Delta":177984371},{"NoteNumber":80,"Velocity":59,"Duration":74441,"SoundDuration":74441,"Delta":178058813},{"NoteNumber":79,"Velocity":63,"Duration":78533,"SoundDuration":78533,"Delta":178133254},{"NoteNumber":61,"Velocity":53,"Duration":78533,"SoundDuration":78533,"Delta":178133254},{"NoteNumber":64,"Velocity":63,"Duration":78533,"SoundDuration":78533,"Delta":178133254},{"NoteNumber":78,"Velocity":59,"Duration":78534,"SoundDuration":78534,"Delta":178211788},{"NoteNumber":79,"Velocity":70,"Duration":153845,"SoundDuration":153845,"Delta":178290322},{"NoteNumber":62,"Velocity":59,"Duration":153845,"SoundDuration":153845,"Delta":178290322},{"NoteNumber":65,"Velocity":70,"Duration":153845,"SoundDuration":153845,"Delta":178290322},{"NoteNumber":79,"Velocity":63,"Duration":74441,"SoundDuration":74441,"Delta":178598014},{"NoteNumber":61,"Velocity":53,"Duration":74441,"SoundDuration":74441,"Delta":178598014},{"NoteNumber":64,"Velocity":63,"Duration":74441,"SoundDuration":74441,"Delta":178598014},{"NoteNumber":80,"Velocity":58,"Duration":74441,"SoundDuration":74441,"Delta":178672456},{"NoteNumber":79,"Velocity":63,"Duration":78533,"SoundDuration":78533,"Delta":178746898},{"NoteNumber":64,"Velocity":53,"Duration":78533,"SoundDuration":78533,"Delta":178746898},{"NoteNumber":61,"Velocity":63,"Duration":78533,"SoundDuration":78533,"Delta":178746898},{"NoteNumber":78,"Velocity":57,"Duration":78534,"SoundDuration":78534,"Delta":178825432},{"NoteNumber":79,"Velocity":69,"Duration":154241,"SoundDuration":154241,"Delta":178903966},{"NoteNumber":62,"Velocity":59,"Duration":154241,"SoundDuration":154241,"Delta":178903966},{"NoteNumber":65,"Velocity":70,"Duration":154241,"SoundDuration":154241,"Delta":178903966},{"NoteNumber":50,"Velocity":60,"Duration":159999,"SoundDuration":159999,"Delta":179212449},{"NoteNumber":53,"Velocity":60,"Duration":159999,"SoundDuration":159999,"Delta":179212449},{"NoteNumber":59,"Velocity":72,"Duration":159999,"SoundDuration":159999,"Delta":179212449},{"NoteNumber":31,"Velocity":63,"Duration":159999,"SoundDuration":159999,"Delta":179212449},{"NoteNumber":43,"Velocity":74,"Duration":159999,"SoundDuration":159999,"Delta":179212449},{"NoteNumber":48,"Velocity":55,"Duration":615581,"SoundDuration":615581,"Delta":179852449},{"NoteNumber":51,"Velocity":55,"Duration":615581,"SoundDuration":615581,"Delta":179852449},{"NoteNumber":54,"Velocity":55,"Duration":615581,"SoundDuration":615581,"Delta":179852449},{"NoteNumber":60,"Velocity":66,"Duration":615581,"SoundDuration":615581,"Delta":179852449},{"NoteNumber":32,"Velocity":55,"Duration":615581,"SoundDuration":615581,"Delta":179852449},{"NoteNumber":36,"Velocity":55,"Duration":615581,"SoundDuration":615581,"Delta":179852449},{"NoteNumber":39,"Velocity":55,"Duration":615581,"SoundDuration":615581,"Delta":179852449},{"NoteNumber":44,"Velocity":65,"Duration":615581,"SoundDuration":615581,"Delta":179852449},{"NoteNumber":57,"Velocity":35,"Duration":75566,"SoundDuration":75566,"Delta":180468031},{"NoteNumber":60,"Velocity":35,"Duration":75566,"SoundDuration":75566,"Delta":180468031},{"NoteNumber":62,"Velocity":41,"Duration":75566,"SoundDuration":75566,"Delta":180468031},{"NoteNumber":30,"Velocity":30,"Duration":75566,"SoundDuration":75566,"Delta":180468031},{"NoteNumber":42,"Velocity":36,"Duration":75566,"SoundDuration":75566,"Delta":180468031},{"NoteNumber":55,"Velocity":37,"Duration":75566,"SoundDuration":75566,"Delta":180770298},{"NoteNumber":60,"Velocity":37,"Duration":75566,"SoundDuration":75566,"Delta":180770298},{"NoteNumber":63,"Velocity":45,"Duration":75566,"SoundDuration":75566,"Delta":180770298},{"NoteNumber":31,"Velocity":32,"Duration":75566,"SoundDuration":75566,"Delta":180770298},{"NoteNumber":43,"Velocity":38,"Duration":75566,"SoundDuration":75566,"Delta":180770298},{"NoteNumber":53,"Velocity":33,"Duration":77720,"SoundDuration":77720,"Delta":181072565},{"NoteNumber":59,"Velocity":33,"Duration":77720,"SoundDuration":77720,"Delta":181072565},{"NoteNumber":62,"Velocity":39,"Duration":77720,"SoundDuration":77720,"Delta":181072565},{"NoteNumber":31,"Velocity":27,"Duration":77720,"SoundDuration":77720,"Delta":181072565},{"NoteNumber":43,"Velocity":33,"Duration":77720,"SoundDuration":77720,"Delta":181072565},{"NoteNumber":51,"Velocity":37,"Duration":152284,"SoundDuration":152284,"Delta":181383446},{"NoteNumber":55,"Velocity":37,"Duration":152284,"SoundDuration":152284,"Delta":181383446},{"NoteNumber":60,"Velocity":45,"Duration":152284,"SoundDuration":152284,"Delta":181383446},{"NoteNumber":36,"Velocity":32,"Duration":152284,"SoundDuration":152284,"Delta":181383446},{"NoteNumber":48,"Velocity":27,"Duration":152284,"SoundDuration":152284,"Delta":181535730},{"NoteNumber":59,"Velocity":30,"Duration":150000,"SoundDuration":150000,"Delta":181688015},{"NoteNumber":65,"Velocity":36,"Duration":150000,"SoundDuration":150000,"Delta":181688015},{"NoteNumber":60,"Velocity":27,"Duration":155038,"SoundDuration":155038,"Delta":181838015},{"NoteNumber":63,"Velocity":32,"Duration":155038,"SoundDuration":155038,"Delta":181838015},{"NoteNumber":36,"Velocity":32,"Duration":152284,"SoundDuration":152284,"Delta":181993054},{"NoteNumber":48,"Velocity":28,"Duration":152284,"SoundDuration":152284,"Delta":182145338},{"NoteNumber":65,"Velocity":31,"Duration":148147,"SoundDuration":148147,"Delta":182297623},{"NoteNumber":71,"Velocity":37,"Duration":148147,"SoundDuration":148147,"Delta":182297623},{"NoteNumber":63,"Velocity":27,"Duration":154639,"SoundDuration":154639,"Delta":182445771},{"NoteNumber":72,"Velocity":32,"Duration":154639,"SoundDuration":154639,"Delta":182445771},{"NoteNumber":36,"Velocity":32,"Duration":151898,"SoundDuration":151898,"Delta":182600410},{"NoteNumber":48,"Velocity":28,"Duration":151898,"SoundDuration":151898,"Delta":182752308},{"NoteNumber":77,"Velocity":37,"Duration":149253,"SoundDuration":149253,"Delta":182904207},{"NoteNumber":71,"Velocity":31,"Duration":149253,"SoundDuration":149253,"Delta":182904207},{"NoteNumber":72,"Velocity":27,"Duration":155038,"SoundDuration":155038,"Delta":183053460},{"NoteNumber":75,"Velocity":32,"Duration":155038,"SoundDuration":155038,"Delta":183053460},{"NoteNumber":36,"Velocity":32,"Duration":151898,"SoundDuration":151898,"Delta":183208499},{"NoteNumber":48,"Velocity":27,"Duration":151898,"SoundDuration":151898,"Delta":183360398},{"NoteNumber":83,"Velocity":43,"Duration":150000,"SoundDuration":150000,"Delta":183512296},{"NoteNumber":77,"Velocity":36,"Duration":150000,"SoundDuration":150000,"Delta":183512296},{"NoteNumber":75,"Velocity":30,"Duration":158729,"SoundDuration":158729,"Delta":183662296},{"NoteNumber":84,"Velocity":36,"Duration":158729,"SoundDuration":158729,"Delta":183662296},{"NoteNumber":32,"Velocity":36,"Duration":152284,"SoundDuration":152284,"Delta":183821026},{"NoteNumber":44,"Velocity":32,"Duration":152284,"SoundDuration":152284,"Delta":183973311},{"NoteNumber":60,"Velocity":36,"Duration":150000,"SoundDuration":150000,"Delta":184125595},{"NoteNumber":66,"Velocity":44,"Duration":150000,"SoundDuration":150000,"Delta":184125595},{"NoteNumber":61,"Velocity":33,"Duration":155038,"SoundDuration":155038,"Delta":184275595},{"NoteNumber":65,"Velocity":40,"Duration":155038,"SoundDuration":155038,"Delta":184275595},{"NoteNumber":32,"Velocity":42,"Duration":152284,"SoundDuration":152284,"Delta":184430634},{"NoteNumber":44,"Velocity":38,"Duration":152284,"SoundDuration":152284,"Delta":184582919},{"NoteNumber":65,"Velocity":43,"Duration":148147,"SoundDuration":148147,"Delta":184735203},{"NoteNumber":73,"Velocity":52,"Duration":148147,"SoundDuration":148147,"Delta":184735203},{"NoteNumber":66,"Velocity":38,"Duration":154639,"SoundDuration":154639,"Delta":184883351},{"NoteNumber":72,"Velocity":45,"Duration":154639,"SoundDuration":154639,"Delta":184883351},{"NoteNumber":32,"Velocity":55,"Duration":151898,"SoundDuration":151898,"Delta":185037990},{"NoteNumber":44,"Velocity":51,"Duration":151898,"SoundDuration":151898,"Delta":185189889},{"NoteNumber":77,"Velocity":65,"Duration":149253,"SoundDuration":149253,"Delta":185341787},{"NoteNumber":73,"Velocity":54,"Duration":149253,"SoundDuration":149253,"Delta":185341787},{"NoteNumber":72,"Velocity":47,"Duration":155038,"SoundDuration":155038,"Delta":185491041},{"NoteNumber":78,"Velocity":57,"Duration":155038,"SoundDuration":155038,"Delta":185491041},{"NoteNumber":32,"Velocity":64,"Duration":151898,"SoundDuration":151898,"Delta":185646080},{"NoteNumber":44,"Velocity":56,"Duration":170940,"SoundDuration":170940,"Delta":185797978},{"NoteNumber":85,"Velocity":76,"Duration":163487,"SoundDuration":163487,"Delta":185968918},{"NoteNumber":77,"Velocity":63,"Duration":163487,"SoundDuration":163487,"Delta":185968918},{"NoteNumber":78,"Velocity":55,"Duration":215054,"SoundDuration":215054,"Delta":186132406},{"NoteNumber":84,"Velocity":65,"Duration":215054,"SoundDuration":215054,"Delta":186132406},{"NoteNumber":87,"Velocity":84,"Duration":1293800,"SoundDuration":1293800,"Delta":186347460},{"NoteNumber":78,"Velocity":78,"Duration":1293800,"SoundDuration":1293800,"Delta":186347460},{"NoteNumber":32,"Velocity":65,"Duration":4456099,"SoundDuration":4456099,"Delta":186347460},{"NoteNumber":44,"Velocity":70,"Duration":4456099,"SoundDuration":4456099,"Delta":186347460},{"NoteNumber":85,"Velocity":59,"Duration":334261,"SoundDuration":334261,"Delta":187641260},{"NoteNumber":75,"Velocity":40,"Duration":668523,"SoundDuration":668523,"Delta":187641260},{"NoteNumber":84,"Velocity":54,"Duration":334261,"SoundDuration":334261,"Delta":187975522},{"NoteNumber":82,"Velocity":57,"Duration":351906,"SoundDuration":351906,"Delta":188309784},{"NoteNumber":72,"Velocity":40,"Duration":2493775,"SoundDuration":2493775,"Delta":188309784},{"NoteNumber":80,"Velocity":50,"Duration":225563,"SoundDuration":225563,"Delta":188661690},{"NoteNumber":77,"Velocity":41,"Duration":67340,"SoundDuration":67340,"Delta":188887254},{"NoteNumber":78,"Velocity":36,"Duration":67340,"SoundDuration":67340,"Delta":188954594},{"NoteNumber":80,"Velocity":36,"Duration":67340,"SoundDuration":67340,"Delta":189021934},{"NoteNumber":78,"Velocity":50,"Duration":1714285,"SoundDuration":1714285,"Delta":189089274},{"NoteNumber":56,"Velocity":34,"Duration":87719,"SoundDuration":87719,"Delta":191232131},{"NoteNumber":58,"Velocity":31,"Duration":87719,"SoundDuration":87719,"Delta":191407570},{"NoteNumber":60,"Velocity":31,"Duration":87719,"SoundDuration":87719,"Delta":191583008},{"NoteNumber":53,"Velocity":33,"Duration":725876,"SoundDuration":725876,"Delta":191758447},{"NoteNumber":56,"Velocity":33,"Duration":725876,"SoundDuration":725876,"Delta":191758447},{"NoteNumber":61,"Velocity":39,"Duration":87719,"SoundDuration":87719,"Delta":191758447},{"NoteNumber":37,"Velocity":21,"Duration":725876,"SoundDuration":725876,"Delta":191758447},{"NoteNumber":49,"Velocity":26,"Duration":725876,"SoundDuration":725876,"Delta":191758447},{"NoteNumber":63,"Velocity":34,"Duration":87719,"SoundDuration":87719,"Delta":191933885},{"NoteNumber":65,"Velocity":34,"Duration":93750,"SoundDuration":93750,"Delta":192109324},{"NoteNumber":56,"Velocity":32,"Duration":90090,"SoundDuration":90090,"Delta":192484324},{"NoteNumber":63,"Velocity":38,"Duration":90090,"SoundDuration":90090,"Delta":192484324},{"NoteNumber":42,"Velocity":20,"Duration":90090,"SoundDuration":90090,"Delta":192484324},{"NoteNumber":48,"Velocity":25,"Duration":90090,"SoundDuration":90090,"Delta":192484324},{"NoteNumber":56,"Velocity":27,"Duration":90089,"SoundDuration":90089,"Delta":192844684},{"NoteNumber":61,"Velocity":33,"Duration":90089,"SoundDuration":90089,"Delta":192844684},{"NoteNumber":41,"Velocity":19,"Duration":90089,"SoundDuration":90089,"Delta":192844684},{"NoteNumber":49,"Velocity":23,"Duration":90089,"SoundDuration":90089,"Delta":192844684},{"NoteNumber":54,"Velocity":31,"Duration":1052410,"SoundDuration":1052410,"Delta":193272798},{"NoteNumber":56,"Velocity":31,"Duration":1052410,"SoundDuration":1052410,"Delta":193272798},{"NoteNumber":60,"Velocity":31,"Duration":1052410,"SoundDuration":1052410,"Delta":193272798},{"NoteNumber":66,"Velocity":37,"Duration":1052410,"SoundDuration":1052410,"Delta":193272798},{"NoteNumber":44,"Velocity":22,"Duration":1052410,"SoundDuration":1052410,"Delta":193272798},{"NoteNumber":51,"Velocity":27,"Duration":1052410,"SoundDuration":1052410,"Delta":193272798},{"NoteNumber":56,"Velocity":34,"Duration":87209,"SoundDuration":87209,"Delta":194325208},{"NoteNumber":58,"Velocity":31,"Duration":87209,"SoundDuration":87209,"Delta":194499626},{"NoteNumber":60,"Velocity":31,"Duration":87209,"SoundDuration":87209,"Delta":194674045},{"NoteNumber":53,"Velocity":33,"Duration":744823,"SoundDuration":744823,"Delta":194848463},{"NoteNumber":56,"Velocity":33,"Duration":744823,"SoundDuration":744823,"Delta":194848463},{"NoteNumber":61,"Velocity":39,"Duration":89820,"SoundDuration":89820,"Delta":194848463},{"NoteNumber":37,"Velocity":21,"Duration":744823,"SoundDuration":744823,"Delta":194848463},{"NoteNumber":49,"Velocity":26,"Duration":744823,"SoundDuration":744823,"Delta":194848463},{"NoteNumber":63,"Velocity":34,"Duration":89820,"SoundDuration":89820,"Delta":195028104},{"NoteNumber":65,"Velocity":34,"Duration":96153,"SoundDuration":96153,"Delta":195207744},{"NoteNumber":51,"Velocity":32,"Duration":94043,"SoundDuration":94043,"Delta":195593287},{"NoteNumber":58,"Velocity":32,"Duration":94043,"SoundDuration":94043,"Delta":195593287},{"NoteNumber":63,"Velocity":38,"Duration":94043,"SoundDuration":94043,"Delta":195593287},{"NoteNumber":30,"Velocity":20,"Duration":94043,"SoundDuration":94043,"Delta":195593287},{"NoteNumber":42,"Velocity":25,"Duration":94043,"SoundDuration":94043,"Delta":195593287},{"NoteNumber":58,"Velocity":27,"Duration":94044,"SoundDuration":94044,"Delta":195969463},{"NoteNumber":51,"Velocity":27,"Duration":94044,"SoundDuration":94044,"Delta":195969463},{"NoteNumber":61,"Velocity":33,"Duration":94044,"SoundDuration":94044,"Delta":195969463},{"NoteNumber":31,"Velocity":19,"Duration":94044,"SoundDuration":94044,"Delta":195969463},{"NoteNumber":43,"Velocity":23,"Duration":94044,"SoundDuration":94044,"Delta":195969463},{"NoteNumber":48,"Velocity":26,"Duration":878928,"SoundDuration":878928,"Delta":196421403},{"NoteNumber":51,"Velocity":26,"Duration":878928,"SoundDuration":878928,"Delta":196421403},{"NoteNumber":56,"Velocity":31,"Duration":878928,"SoundDuration":878928,"Delta":196421403},{"NoteNumber":32,"Velocity":18,"Duration":878928,"SoundDuration":878928,"Delta":196421403},{"NoteNumber":44,"Velocity":22,"Duration":878928,"SoundDuration":878928,"Delta":196421403},{"NoteNumber":56,"Velocity":34,"Duration":91185,"SoundDuration":91185,"Delta":197520063},{"NoteNumber":58,"Velocity":31,"Duration":91185,"SoundDuration":91185,"Delta":197702434},{"NoteNumber":60,"Velocity":31,"Duration":91185,"SoundDuration":91185,"Delta":197884805},{"NoteNumber":53,"Velocity":33,"Duration":759478,"SoundDuration":759478,"Delta":198067176},{"NoteNumber":56,"Velocity":33,"Duration":759478,"SoundDuration":759478,"Delta":198067176},{"NoteNumber":61,"Velocity":39,"Duration":91185,"SoundDuration":91185,"Delta":198067176},{"NoteNumber":37,"Velocity":21,"Duration":759478,"SoundDuration":759478,"Delta":198067176},{"NoteNumber":49,"Velocity":26,"Duration":759478,"SoundDuration":759478,"Delta":198067176},{"NoteNumber":63,"Velocity":34,"Duration":91185,"SoundDuration":91185,"Delta":198249547},{"NoteNumber":65,"Velocity":34,"Duration":98684,"SoundDuration":98684,"Delta":198431918},{"NoteNumber":56,"Velocity":32,"Duration":105485,"SoundDuration":105485,"Delta":198826655},{"NoteNumber":63,"Velocity":38,"Duration":105485,"SoundDuration":105485,"Delta":198826655},{"NoteNumber":42,"Velocity":20,"Duration":105485,"SoundDuration":105485,"Delta":198826655},{"NoteNumber":48,"Velocity":25,"Duration":105485,"SoundDuration":105485,"Delta":198826655},{"NoteNumber":56,"Velocity":27,"Duration":105485,"SoundDuration":105485,"Delta":199248596},{"NoteNumber":61,"Velocity":33,"Duration":105485,"SoundDuration":105485,"Delta":199248596},{"NoteNumber":41,"Velocity":19,"Duration":105485,"SoundDuration":105485,"Delta":199248596},{"NoteNumber":49,"Velocity":23,"Duration":105485,"SoundDuration":105485,"Delta":199248596},{"NoteNumber":54,"Velocity":28,"Duration":2207925,"SoundDuration":2207925,"Delta":199707500},{"NoteNumber":56,"Velocity":28,"Duration":2207925,"SoundDuration":2207925,"Delta":199707500},{"NoteNumber":60,"Velocity":28,"Duration":834773,"SoundDuration":834773,"Delta":199707500},{"NoteNumber":66,"Velocity":35,"Duration":629600,"SoundDuration":629600,"Delta":199707500},{"NoteNumber":44,"Velocity":24,"Duration":2207925,"SoundDuration":2207925,"Delta":199707500},{"NoteNumber":48,"Velocity":24,"Duration":2207925,"SoundDuration":2207925,"Delta":199707500},{"NoteNumber":51,"Velocity":28,"Duration":2207925,"SoundDuration":2207925,"Delta":199707500},{"NoteNumber":63,"Velocity":30,"Duration":206896,"SoundDuration":206896,"Delta":200337101},{"NoteNumber":60,"Velocity":34,"Duration":1371428,"SoundDuration":1371428,"Delta":200543998},{"NoteNumber":33,"Velocity":30,"Duration":83977,"SoundDuration":83977,"Delta":201915426},{"NoteNumber":36,"Velocity":32,"Duration":79753,"SoundDuration":79753,"Delta":201999403},{"NoteNumber":39,"Velocity":33,"Duration":79165,"SoundDuration":79165,"Delta":202079156},{"NoteNumber":42,"Velocity":34,"Duration":78732,"SoundDuration":78732,"Delta":202158321},{"NoteNumber":45,"Velocity":36,"Duration":3650911,"SoundDuration":3650911,"Delta":202236074},{"NoteNumber":48,"Velocity":37,"Duration":3559712,"SoundDuration":3559712,"Delta":202339567},{"NoteNumber":51,"Velocity":39,"Duration":3456063,"SoundDuration":3456063,"Delta":202443217},{"NoteNumber":54,"Velocity":40,"Duration":3354184,"SoundDuration":3354184,"Delta":202545096},{"NoteNumber":57,"Velocity":43,"Duration":3252248,"SoundDuration":3252248,"Delta":202647032},{"NoteNumber":60,"Velocity":46,"Duration":1180757,"SoundDuration":1180757,"Delta":202747232},{"NoteNumber":66,"Velocity":49,"Duration":756303,"SoundDuration":756303,"Delta":202849676},{"NoteNumber":63,"Velocity":30,"Duration":326087,"SoundDuration":326087,"Delta":203605979},{"NoteNumber":60,"Velocity":34,"Duration":1967214,"SoundDuration":1967214,"Delta":203932066},{"NoteNumber":31,"Velocity":60,"Duration":65075,"SoundDuration":65075,"Delta":205899280},{"NoteNumber":36,"Velocity":61,"Duration":64467,"SoundDuration":64467,"Delta":205964356},{"NoteNumber":39,"Velocity":62,"Duration":65075,"SoundDuration":65075,"Delta":206028823},{"NoteNumber":43,"Velocity":63,"Duration":65075,"SoundDuration":65075,"Delta":206093290},{"NoteNumber":48,"Velocity":63,"Duration":64467,"SoundDuration":64467,"Delta":206158366},{"NoteNumber":51,"Velocity":64,"Duration":65075,"SoundDuration":65075,"Delta":206222834},{"NoteNumber":55,"Velocity":63,"Duration":64467,"SoundDuration":64467,"Delta":206287909},{"NoteNumber":60,"Velocity":65,"Duration":65075,"SoundDuration":65075,"Delta":206352377},{"NoteNumber":63,"Velocity":67,"Duration":66291,"SoundDuration":66291,"Delta":206416844},{"NoteNumber":67,"Velocity":70,"Duration":72981,"SoundDuration":72981,"Delta":206483136},{"NoteNumber":63,"Velocity":63,"Duration":72982,"SoundDuration":72982,"Delta":206629100},{"NoteNumber":60,"Velocity":67,"Duration":72981,"SoundDuration":72981,"Delta":206775064},{"NoteNumber":55,"Velocity":63,"Duration":72981,"SoundDuration":72981,"Delta":206921028},{"NoteNumber":51,"Velocity":70,"Duration":72981,"SoundDuration":72981,"Delta":207066992},{"NoteNumber":48,"Velocity":57,"Duration":72982,"SoundDuration":72982,"Delta":207212956},{"NoteNumber":31,"Velocity":42,"Duration":303007,"SoundDuration":303007,"Delta":207358920},{"NoteNumber":43,"Velocity":42,"Duration":303007,"SoundDuration":303007,"Delta":207358920},{"NoteNumber":47,"Velocity":63,"Duration":72981,"SoundDuration":72981,"Delta":207358920},{"NoteNumber":50,"Velocity":53,"Duration":78521,"SoundDuration":78521,"Delta":207504884},{"NoteNumber":48,"Velocity":43,"Duration":154615,"SoundDuration":154615,"Delta":207661927},{"NoteNumber":36,"Velocity":64,"Duration":77307,"SoundDuration":77307,"Delta":207661927},{"NoteNumber":48,"Velocity":38,"Duration":72453,"SoundDuration":72453,"Delta":207816543},{"NoteNumber":48,"Velocity":38,"Duration":72453,"SoundDuration":72453,"Delta":207961449},{"NoteNumber":48,"Velocity":38,"Duration":72453,"SoundDuration":72453,"Delta":208106356},{"NoteNumber":48,"Velocity":41,"Duration":75365,"SoundDuration":75365,"Delta":208251262},{"NoteNumber":60,"Velocity":44,"Duration":72628,"SoundDuration":72628,"Delta":208401993},{"NoteNumber":58,"Velocity":37,"Duration":72628,"SoundDuration":72628,"Delta":208401993},{"NoteNumber":55,"Velocity":31,"Duration":72628,"SoundDuration":72628,"Delta":208401993},{"NoteNumber":62,"Velocity":47,"Duration":72628,"SoundDuration":72628,"Delta":208547251},{"NoteNumber":58,"Velocity":37,"Duration":72628,"SoundDuration":72628,"Delta":208547251},{"NoteNumber":55,"Velocity":31,"Duration":72628,"SoundDuration":72628,"Delta":208547251},{"NoteNumber":64,"Velocity":51,"Duration":72628,"SoundDuration":72628,"Delta":208692508},{"NoteNumber":58,"Velocity":37,"Duration":72628,"SoundDuration":72628,"Delta":208692508},{"NoteNumber":55,"Velocity":31,"Duration":72628,"SoundDuration":72628,"Delta":208692508},{"NoteNumber":65,"Velocity":54,"Duration":73349,"SoundDuration":73349,"Delta":208837766},{"NoteNumber":48,"Velocity":43,"Duration":73349,"SoundDuration":73349,"Delta":208837766},{"NoteNumber":67,"Velocity":46,"Duration":73349,"SoundDuration":73349,"Delta":208984465},{"NoteNumber":53,"Velocity":31,"Duration":73349,"SoundDuration":73349,"Delta":208984465},{"NoteNumber":56,"Velocity":36,"Duration":73349,"SoundDuration":73349,"Delta":208984465},{"NoteNumber":68,"Velocity":47,"Duration":73349,"SoundDuration":73349,"Delta":209131165},{"NoteNumber":53,"Velocity":31,"Duration":73349,"SoundDuration":73349,"Delta":209131165},{"NoteNumber":56,"Velocity":36,"Duration":73349,"SoundDuration":73349,"Delta":209131165},{"NoteNumber":84,"Velocity":56,"Duration":146699,"SoundDuration":146699,"Delta":209277864},{"NoteNumber":53,"Velocity":31,"Duration":73349,"SoundDuration":73349,"Delta":209277864},{"NoteNumber":56,"Velocity":36,"Duration":73349,"SoundDuration":73349,"Delta":209277864},{"NoteNumber":83,"Velocity":65,"Duration":147783,"SoundDuration":147783,"Delta":209424564},{"NoteNumber":48,"Velocity":41,"Duration":73891,"SoundDuration":73891,"Delta":209424564},{"NoteNumber":84,"Velocity":55,"Duration":147783,"SoundDuration":147783,"Delta":209572347},{"NoteNumber":59,"Velocity":36,"Duration":73891,"SoundDuration":73891,"Delta":209572347},{"NoteNumber":56,"Velocity":31,"Duration":73891,"SoundDuration":73891,"Delta":209572347},{"NoteNumber":53,"Velocity":31,"Duration":73891,"SoundDuration":73891,"Delta":209572347},{"NoteNumber":89,"Velocity":66,"Duration":73170,"SoundDuration":73170,"Delta":209720131},{"NoteNumber":59,"Velocity":36,"Duration":73170,"SoundDuration":73170,"Delta":209720131},{"NoteNumber":56,"Velocity":31,"Duration":73170,"SoundDuration":73170,"Delta":209720131},{"NoteNumber":53,"Velocity":31,"Duration":73170,"SoundDuration":73170,"Delta":209720131},{"NoteNumber":89,"Velocity":54,"Duration":84269,"SoundDuration":84269,"Delta":209866472},{"NoteNumber":59,"Velocity":36,"Duration":84269,"SoundDuration":84269,"Delta":209866472},{"NoteNumber":56,"Velocity":31,"Duration":84269,"SoundDuration":84269,"Delta":209866472},{"NoteNumber":53,"Velocity":31,"Duration":84269,"SoundDuration":84269,"Delta":209866472},{"NoteNumber":88,"Velocity":66,"Duration":299521,"SoundDuration":299521,"Delta":210035012},{"NoteNumber":48,"Velocity":43,"Duration":154615,"SoundDuration":154615,"Delta":210035012},{"NoteNumber":52,"Velocity":32,"Duration":72453,"SoundDuration":72453,"Delta":210189627},{"NoteNumber":55,"Velocity":32,"Duration":72453,"SoundDuration":72453,"Delta":210189627},{"NoteNumber":60,"Velocity":38,"Duration":72453,"SoundDuration":72453,"Delta":210189627},{"NoteNumber":52,"Velocity":32,"Duration":72453,"SoundDuration":72453,"Delta":210334534},{"NoteNumber":55,"Velocity":32,"Duration":72453,"SoundDuration":72453,"Delta":210334534},{"NoteNumber":60,"Velocity":38,"Duration":72453,"SoundDuration":72453,"Delta":210334534},{"NoteNumber":52,"Velocity":32,"Duration":72453,"SoundDuration":72453,"Delta":210479440},{"NoteNumber":55,"Velocity":32,"Duration":72453,"SoundDuration":72453,"Delta":210479440},{"NoteNumber":60,"Velocity":38,"Duration":72453,"SoundDuration":72453,"Delta":210479440},{"NoteNumber":48,"Velocity":41,"Duration":75365,"SoundDuration":75365,"Delta":210624347},{"NoteNumber":60,"Velocity":44,"Duration":72628,"SoundDuration":72628,"Delta":210775078},{"NoteNumber":58,"Velocity":37,"Duration":72628,"SoundDuration":72628,"Delta":210775078},{"NoteNumber":55,"Velocity":31,"Duration":72628,"SoundDuration":72628,"Delta":210775078},{"NoteNumber":62,"Velocity":47,"Duration":72628,"SoundDuration":72628,"Delta":210920335},{"NoteNumber":58,"Velocity":37,"Duration":72628,"SoundDuration":72628,"Delta":210920335},{"NoteNumber":55,"Velocity":31,"Duration":72628,"SoundDuration":72628,"Delta":210920335},{"NoteNumber":64,"Velocity":51,"Duration":72628,"SoundDuration":72628,"Delta":211065593},{"NoteNumber":58,"Velocity":37,"Duration":72628,"SoundDuration":72628,"Delta":211065593},{"NoteNumber":55,"Velocity":31,"Duration":72628,"SoundDuration":72628,"Delta":211065593},{"NoteNumber":65,"Velocity":54,"Duration":73349,"SoundDuration":73349,"Delta":211210850},{"NoteNumber":48,"Velocity":43,"Duration":73349,"SoundDuration":73349,"Delta":211210850},{"NoteNumber":67,"Velocity":46,"Duration":73349,"SoundDuration":73349,"Delta":211357550},{"NoteNumber":53,"Velocity":31,"Duration":73349,"SoundDuration":73349,"Delta":211357550},{"NoteNumber":56,"Velocity":36,"Duration":73349,"SoundDuration":73349,"Delta":211357550},{"NoteNumber":68,"Velocity":47,"Duration":73349,"SoundDuration":73349,"Delta":211504249},{"NoteNumber":53,"Velocity":31,"Duration":73349,"SoundDuration":73349,"Delta":211504249},{"NoteNumber":56,"Velocity":36,"Duration":73349,"SoundDuration":73349,"Delta":211504249},{"NoteNumber":84,"Velocity":56,"Duration":146699,"SoundDuration":146699,"Delta":211650949},{"NoteNumber":53,"Velocity":31,"Duration":73349,"SoundDuration":73349,"Delta":211650949},{"NoteNumber":56,"Velocity":36,"Duration":73349,"SoundDuration":73349,"Delta":211650949},{"NoteNumber":83,"Velocity":65,"Duration":147783,"SoundDuration":147783,"Delta":211797648},{"NoteNumber":48,"Velocity":41,"Duration":73891,"SoundDuration":73891,"Delta":211797648},{"NoteNumber":84,"Velocity":55,"Duration":147783,"SoundDuration":147783,"Delta":211945432},{"NoteNumber":59,"Velocity":36,"Duration":73891,"SoundDuration":73891,"Delta":211945432},{"NoteNumber":56,"Velocity":31,"Duration":73891,"SoundDuration":73891,"Delta":211945432},{"NoteNumber":53,"Velocity":31,"Duration":73891,"SoundDuration":73891,"Delta":211945432},{"NoteNumber":89,"Velocity":66,"Duration":73170,"SoundDuration":73170,"Delta":212093215},{"NoteNumber":59,"Velocity":36,"Duration":73170,"SoundDuration":73170,"Delta":212093215},{"NoteNumber":56,"Velocity":31,"Duration":73170,"SoundDuration":73170,"Delta":212093215},{"NoteNumber":53,"Velocity":31,"Duration":73170,"SoundDuration":73170,"Delta":212093215},{"NoteNumber":89,"Velocity":54,"Duration":84269,"SoundDuration":84269,"Delta":212239557},{"NoteNumber":59,"Velocity":36,"Duration":84269,"SoundDuration":84269,"Delta":212239557},{"NoteNumber":56,"Velocity":31,"Duration":84269,"SoundDuration":84269,"Delta":212239557},{"NoteNumber":53,"Velocity":31,"Duration":84269,"SoundDuration":84269,"Delta":212239557},{"NoteNumber":88,"Velocity":66,"Duration":299521,"SoundDuration":299521,"Delta":212408096},{"NoteNumber":48,"Velocity":43,"Duration":154615,"SoundDuration":154615,"Delta":212408096},{"NoteNumber":52,"Velocity":32,"Duration":72453,"SoundDuration":72453,"Delta":212562712},{"NoteNumber":55,"Velocity":32,"Duration":72453,"SoundDuration":72453,"Delta":212562712},{"NoteNumber":60,"Velocity":38,"Duration":72453,"SoundDuration":72453,"Delta":212562712},{"NoteNumber":52,"Velocity":32,"Duration":72453,"SoundDuration":72453,"Delta":212707618},{"NoteNumber":55,"Velocity":32,"Duration":72453,"SoundDuration":72453,"Delta":212707618},{"NoteNumber":60,"Velocity":38,"Duration":72453,"SoundDuration":72453,"Delta":212707618},{"NoteNumber":72,"Velocity":50,"Duration":146699,"SoundDuration":146699,"Delta":212852525},{"NoteNumber":52,"Velocity":32,"Duration":73349,"SoundDuration":73349,"Delta":212852525},{"NoteNumber":55,"Velocity":32,"Duration":73349,"SoundDuration":73349,"Delta":212852525},{"NoteNumber":60,"Velocity":38,"Duration":73349,"SoundDuration":73349,"Delta":212852525},{"NoteNumber":71,"Velocity":57,"Duration":147783,"SoundDuration":147783,"Delta":212999224},{"NoteNumber":48,"Velocity":40,"Duration":73891,"SoundDuration":73891,"Delta":212999224},{"NoteNumber":72,"Velocity":47,"Duration":147783,"SoundDuration":147783,"Delta":213147008},{"NoteNumber":59,"Velocity":36,"Duration":73891,"SoundDuration":73891,"Delta":213147008},{"NoteNumber":56,"Velocity":30,"Duration":73891,"SoundDuration":73891,"Delta":213147008},{"NoteNumber":53,"Velocity":30,"Duration":73891,"SoundDuration":73891,"Delta":213147008},{"NoteNumber":77,"Velocity":57,"Duration":73170,"SoundDuration":73170,"Delta":213294791},{"NoteNumber":59,"Velocity":35,"Duration":73170,"SoundDuration":73170,"Delta":213294791},{"NoteNumber":56,"Velocity":29,"Duration":73170,"SoundDuration":73170,"Delta":213294791},{"NoteNumber":53,"Velocity":29,"Duration":73170,"SoundDuration":73170,"Delta":213294791},{"NoteNumber":77,"Velocity":45,"Duration":84269,"SoundDuration":84269,"Delta":213441133},{"NoteNumber":59,"Velocity":34,"Duration":84269,"SoundDuration":84269,"Delta":213441133},{"NoteNumber":56,"Velocity":29,"Duration":84269,"SoundDuration":84269,"Delta":213441133},{"NoteNumber":53,"Velocity":29,"Duration":84269,"SoundDuration":84269,"Delta":213441133},{"NoteNumber":76,"Velocity":55,"Duration":299521,"SoundDuration":299521,"Delta":213609672},{"NoteNumber":48,"Velocity":40,"Duration":154615,"SoundDuration":154615,"Delta":213609672},{"NoteNumber":52,"Velocity":29,"Duration":72453,"SoundDuration":72453,"Delta":213764288},{"NoteNumber":55,"Velocity":29,"Duration":72453,"SoundDuration":72453,"Delta":213764288},{"NoteNumber":60,"Velocity":35,"Duration":72453,"SoundDuration":72453,"Delta":213764288},{"NoteNumber":52,"Velocity":29,"Duration":72453,"SoundDuration":72453,"Delta":213909194},{"NoteNumber":55,"Velocity":29,"Duration":72453,"SoundDuration":72453,"Delta":213909194},{"NoteNumber":60,"Velocity":35,"Duration":72453,"SoundDuration":72453,"Delta":213909194},{"NoteNumber":60,"Velocity":45,"Duration":146699,"SoundDuration":146699,"Delta":214054101},{"NoteNumber":52,"Velocity":28,"Duration":73349,"SoundDuration":73349,"Delta":214054101},{"NoteNumber":55,"Velocity":28,"Duration":73349,"SoundDuration":73349,"Delta":214054101},{"NoteNumber":60,"Velocity":34,"Duration":73349,"SoundDuration":73349,"Delta":214054101},{"NoteNumber":59,"Velocity":51,"Duration":146551,"SoundDuration":146551,"Delta":214200800},{"NoteNumber":48,"Velocity":36,"Duration":73891,"SoundDuration":73891,"Delta":214200800},{"NoteNumber":60,"Velocity":43,"Duration":147783,"SoundDuration":147783,"Delta":214348584},{"NoteNumber":59,"Velocity":32,"Duration":73891,"SoundDuration":73891,"Delta":214348584},{"NoteNumber":56,"Velocity":27,"Duration":73891,"SoundDuration":73891,"Delta":214348584},{"NoteNumber":53,"Velocity":27,"Duration":73891,"SoundDuration":73891,"Delta":214348584},{"NoteNumber":65,"Velocity":51,"Duration":73170,"SoundDuration":73170,"Delta":214496367},{"NoteNumber":59,"Velocity":31,"Duration":73170,"SoundDuration":73170,"Delta":214496367},{"NoteNumber":56,"Velocity":27,"Duration":73170,"SoundDuration":73170,"Delta":214496367},{"NoteNumber":53,"Velocity":27,"Duration":73170,"SoundDuration":73170,"Delta":214496367},{"NoteNumber":65,"Velocity":40,"Duration":84269,"SoundDuration":84269,"Delta":214642709},{"NoteNumber":59,"Velocity":30,"Duration":84269,"SoundDuration":84269,"Delta":214642709},{"NoteNumber":56,"Velocity":26,"Duration":84269,"SoundDuration":84269,"Delta":214642709},{"NoteNumber":53,"Velocity":26,"Duration":84269,"SoundDuration":84269,"Delta":214642709},{"NoteNumber":64,"Velocity":49,"Duration":303847,"SoundDuration":303847,"Delta":214811248},{"NoteNumber":48,"Velocity":32,"Duration":154615,"SoundDuration":154615,"Delta":214811248},{"NoteNumber":52,"Velocity":23,"Duration":74615,"SoundDuration":74615,"Delta":214965864},{"NoteNumber":55,"Velocity":23,"Duration":74615,"SoundDuration":74615,"Delta":214965864},{"NoteNumber":60,"Velocity":27,"Duration":74615,"SoundDuration":74615,"Delta":214965864},{"NoteNumber":52,"Velocity":23,"Duration":74615,"SoundDuration":74615,"Delta":215115095},{"NoteNumber":55,"Velocity":23,"Duration":74615,"SoundDuration":74615,"Delta":215115095},{"NoteNumber":60,"Velocity":27,"Duration":74615,"SoundDuration":74615,"Delta":215115095},{"NoteNumber":36,"Velocity":30,"Duration":145477,"SoundDuration":145477,"Delta":215264327},{"NoteNumber":52,"Velocity":22,"Duration":73349,"SoundDuration":73349,"Delta":215264327},{"NoteNumber":55,"Velocity":22,"Duration":73349,"SoundDuration":73349,"Delta":215264327},{"NoteNumber":60,"Velocity":27,"Duration":73349,"SoundDuration":73349,"Delta":215264327},{"NoteNumber":36,"Velocity":40,"Duration":361555,"SoundDuration":361555,"Delta":215411026},{"NoteNumber":48,"Velocity":32,"Duration":186219,"SoundDuration":186219,"Delta":215411026},{"NoteNumber":52,"Velocity":22,"Duration":87668,"SoundDuration":87668,"Delta":215597246},{"NoteNumber":55,"Velocity":22,"Duration":87668,"SoundDuration":87668,"Delta":215597246},{"NoteNumber":60,"Velocity":26,"Duration":87668,"SoundDuration":87668,"Delta":215597246},{"NoteNumber":52,"Velocity":21,"Duration":87668,"SoundDuration":87668,"Delta":215772582},{"NoteNumber":55,"Velocity":21,"Duration":87668,"SoundDuration":87668,"Delta":215772582},{"NoteNumber":60,"Velocity":26,"Duration":87668,"SoundDuration":87668,"Delta":215772582},{"NoteNumber":36,"Velocity":26,"Duration":227100,"SoundDuration":227100,"Delta":215947918},{"NoteNumber":52,"Velocity":21,"Duration":113550,"SoundDuration":113550,"Delta":215947918},{"NoteNumber":55,"Velocity":21,"Duration":113550,"SoundDuration":113550,"Delta":215947918},{"NoteNumber":60,"Velocity":25,"Duration":113550,"SoundDuration":113550,"Delta":215947918},{"NoteNumber":36,"Velocity":33,"Duration":360359,"SoundDuration":360359,"Delta":216175018},{"NoteNumber":48,"Velocity":20,"Duration":360359,"SoundDuration":360359,"Delta":216175018},{"NoteNumber":52,"Velocity":20,"Duration":360359,"SoundDuration":360359,"Delta":216175018},{"NoteNumber":55,"Velocity":24,"Duration":360359,"SoundDuration":360359,"Delta":216175018}],"license":{"name":"Creative Commons Attribution-ShareAlike 3.0 Germany","url":"http://creativecommons.org/licenses/by-sa/3.0/de/deed.en","text":"The MIDI, audio (MP3, OGG) and video files of Bernd Krueger are licensed under the cc-by-sa Germany License. This means that you can use and adapt the files, as long as you attribute the copyright holder.\n\nName: Bernd Krueger\nSource: http://www.piano-midi.de\n\nThe distribution or public playback of the files is only allowed under identical license conditions.\n\nThe scores are open source.","attribution":"MIDI files by Bernd Krueger (piano-midi.de)"}}