{"title":"Sonate Opus 90, 2. Satz","artist":"Beethoven","durationMs":492959,"midiSha256":"7766fa5e85b96d6bbac11f05f60d618028484442abb9015a25da546afa400e45","midiObject":[{"NoteNumber":64,"Velocity":43,"Duration":212464,"SoundDuration":212464,"Delta":0},{"NoteNumber":66,"Velocity":39,"Duration":230414,"SoundDuration":230414,"Delta":212464},{"NoteNumber":64,"Velocity":34,"Duration":212464,"SoundDuration":212464,"Delta":442879},{"NoteNumber":68,"Velocity":50,"Duration":849858,"SoundDuration":849858,"Delta":442879},{"NoteNumber":40,"Velocity":25,"Duration":424928,"SoundDuration":424928,"Delta":442879},{"NoteNumber":52,"Velocity":30,"Duration":424928,"SoundDuration":424928,"Delta":442879},{"NoteNumber":59,"Velocity":26,"Duration":212464,"SoundDuration":212464,"Delta":655343},{"NoteNumber":64,"Velocity":31,"Duration":212464,"SoundDuration":212464,"Delta":867808},{"NoteNumber":59,"Velocity":26,"Duration":212464,"SoundDuration":212464,"Delta":1080272},{"NoteNumber":68,"Velocity":30,"Duration":209497,"SoundDuration":209497,"Delta":1292737},{"NoteNumber":71,"Velocity":46,"Duration":418994,"SoundDuration":418994,"Delta":1292737},{"NoteNumber":59,"Velocity":27,"Duration":209497,"SoundDuration":209497,"Delta":1502234},{"NoteNumber":66,"Velocity":28,"Duration":213979,"SoundDuration":213979,"Delta":1711731},{"NoteNumber":69,"Velocity":43,"Duration":434244,"SoundDuration":434244,"Delta":1711731},{"NoteNumber":59,"Velocity":27,"Duration":220264,"SoundDuration":220264,"Delta":1925711},{"NoteNumber":64,"Velocity":34,"Duration":217076,"SoundDuration":217076,"Delta":2145976},{"NoteNumber":68,"Velocity":50,"Duration":434153,"SoundDuration":434153,"Delta":2145976},{"NoteNumber":35,"Velocity":25,"Duration":434153,"SoundDuration":434153,"Delta":2145976},{"NoteNumber":47,"Velocity":30,"Duration":434153,"SoundDuration":434153,"Delta":2145976},{"NoteNumber":59,"Velocity":26,"Duration":217076,"SoundDuration":217076,"Delta":2363052},{"NoteNumber":63,"Velocity":27,"Duration":212464,"SoundDuration":212464,"Delta":2580129},{"NoteNumber":66,"Velocity":41,"Duration":371812,"SoundDuration":371812,"Delta":2580129},{"NoteNumber":59,"Velocity":25,"Duration":159348,"SoundDuration":159348,"Delta":2792594},{"NoteNumber":63,"Velocity":27,"Duration":212464,"SoundDuration":212464,"Delta":3005058},{"NoteNumber":66,"Velocity":41,"Duration":424929,"SoundDuration":424929,"Delta":3005058},{"NoteNumber":59,"Velocity":26,"Duration":212464,"SoundDuration":212464,"Delta":3217523},{"NoteNumber":64,"Velocity":28,"Duration":208044,"SoundDuration":208044,"Delta":3429987},{"NoteNumber":68,"Velocity":43,"Duration":416089,"SoundDuration":416089,"Delta":3429987},{"NoteNumber":59,"Velocity":28,"Duration":208044,"SoundDuration":208044,"Delta":3638032},{"NoteNumber":64,"Velocity":30,"Duration":212464,"SoundDuration":212464,"Delta":3846076},{"NoteNumber":69,"Velocity":46,"Duration":424928,"SoundDuration":424928,"Delta":3846076},{"NoteNumber":37,"Velocity":25,"Duration":424928,"SoundDuration":424928,"Delta":3846076},{"NoteNumber":49,"Velocity":30,"Duration":424928,"SoundDuration":424928,"Delta":3846076},{"NoteNumber":59,"Velocity":28,"Duration":212464,"SoundDuration":212464,"Delta":4058541},{"NoteNumber":64,"Velocity":36,"Duration":212464,"SoundDuration":212464,"Delta":4271005},{"NoteNumber":73,"Velocity":54,"Duration":424929,"SoundDuration":424929,"Delta":4271005},{"NoteNumber":59,"Velocity":31,"Duration":212464,"SoundDuration":212464,"Delta":4483470},{"NoteNumber":66,"Velocity":37,"Duration":212464,"SoundDuration":212464,"Delta":4695934},{"NoteNumber":71,"Velocity":47,"Duration":424928,"SoundDuration":424928,"Delta":4695934},{"NoteNumber":51,"Velocity":28,"Duration":424928,"SoundDuration":424928,"Delta":4695934},{"NoteNumber":39,"Velocity":23,"Duration":424928,"SoundDuration":424928,"Delta":4695934},{"NoteNumber":59,"Velocity":26,"Duration":212464,"SoundDuration":212464,"Delta":4908399},{"NoteNumber":63,"Velocity":25,"Duration":217076,"SoundDuration":217076,"Delta":5120863},{"NoteNumber":66,"Velocity":38,"Duration":468754,"SoundDuration":468754,"Delta":5120863},{"NoteNumber":47,"Velocity":26,"Duration":468754,"SoundDuration":468754,"Delta":5120863},{"NoteNumber":35,"Velocity":22,"Duration":468754,"SoundDuration":468754,"Delta":5120863},{"NoteNumber":59,"Velocity":27,"Duration":251677,"SoundDuration":251677,"Delta":5337940},{"NoteNumber":59,"Velocity":35,"Duration":637393,"SoundDuration":637393,"Delta":5589618},{"NoteNumber":64,"Velocity":35,"Duration":849858,"SoundDuration":849858,"Delta":5589618},{"NoteNumber":68,"Velocity":42,"Duration":849858,"SoundDuration":849858,"Delta":5589618},{"NoteNumber":40,"Velocity":28,"Duration":212464,"SoundDuration":212464,"Delta":5589618},{"NoteNumber":52,"Velocity":28,"Duration":212464,"SoundDuration":212464,"Delta":5589618},{"NoteNumber":56,"Velocity":25,"Duration":212464,"SoundDuration":212464,"Delta":5802082},{"NoteNumber":59,"Velocity":28,"Duration":424929,"SoundDuration":424929,"Delta":6014547},{"NoteNumber":57,"Velocity":26,"Duration":212464,"SoundDuration":212464,"Delta":6227011},{"NoteNumber":56,"Velocity":28,"Duration":212464,"SoundDuration":212464,"Delta":6439476},{"NoteNumber":57,"Velocity":25,"Duration":212464,"SoundDuration":212464,"Delta":6651940},{"NoteNumber":76,"Velocity":54,"Duration":212464,"SoundDuration":212464,"Delta":6864405},{"NoteNumber":56,"Velocity":34,"Duration":212464,"SoundDuration":212464,"Delta":6864405},{"NoteNumber":78,"Velocity":48,"Duration":230414,"SoundDuration":230414,"Delta":7076869},{"NoteNumber":54,"Velocity":31,"Duration":230414,"SoundDuration":230414,"Delta":7076869},{"NoteNumber":68,"Velocity":63,"Duration":849857,"SoundDuration":849857,"Delta":7307284},{"NoteNumber":80,"Velocity":63,"Duration":849857,"SoundDuration":849857,"Delta":7307284},{"NoteNumber":52,"Velocity":42,"Duration":212464,"SoundDuration":212464,"Delta":7307284},{"NoteNumber":59,"Velocity":32,"Duration":212464,"SoundDuration":212464,"Delta":7519748},{"NoteNumber":47,"Velocity":39,"Duration":212464,"SoundDuration":212464,"Delta":7732213},{"NoteNumber":59,"Velocity":32,"Duration":212464,"SoundDuration":212464,"Delta":7944677},{"NoteNumber":71,"Velocity":57,"Duration":418994,"SoundDuration":418994,"Delta":8157142},{"NoteNumber":83,"Velocity":57,"Duration":418994,"SoundDuration":418994,"Delta":8157142},{"NoteNumber":52,"Velocity":37,"Duration":209497,"SoundDuration":209497,"Delta":8157142},{"NoteNumber":59,"Velocity":33,"Duration":209497,"SoundDuration":209497,"Delta":8366639},{"NoteNumber":69,"Velocity":54,"Duration":434244,"SoundDuration":434244,"Delta":8576136},{"NoteNumber":81,"Velocity":54,"Duration":434244,"SoundDuration":434244,"Delta":8576136},{"NoteNumber":47,"Velocity":34,"Duration":213979,"SoundDuration":213979,"Delta":8576136},{"NoteNumber":59,"Velocity":33,"Duration":220264,"SoundDuration":220264,"Delta":8790116},{"NoteNumber":68,"Velocity":63,"Duration":434153,"SoundDuration":434153,"Delta":9010380},{"NoteNumber":80,"Velocity":63,"Duration":434153,"SoundDuration":434153,"Delta":9010380},{"NoteNumber":51,"Velocity":42,"Duration":217076,"SoundDuration":217076,"Delta":9010380},{"NoteNumber":59,"Velocity":32,"Duration":217076,"SoundDuration":217076,"Delta":9227457},{"NoteNumber":66,"Velocity":51,"Duration":371812,"SoundDuration":371812,"Delta":9444534},{"NoteNumber":78,"Velocity":51,"Duration":371812,"SoundDuration":371812,"Delta":9444534},{"NoteNumber":47,"Velocity":33,"Duration":212464,"SoundDuration":212464,"Delta":9444534},{"NoteNumber":59,"Velocity":31,"Duration":159348,"SoundDuration":159348,"Delta":9656998},{"NoteNumber":66,"Velocity":51,"Duration":424928,"SoundDuration":424928,"Delta":9869463},{"NoteNumber":78,"Velocity":51,"Duration":424928,"SoundDuration":424928,"Delta":9869463},{"NoteNumber":51,"Velocity":33,"Duration":212464,"SoundDuration":212464,"Delta":9869463},{"NoteNumber":59,"Velocity":33,"Duration":212464,"SoundDuration":212464,"Delta":10081928},{"NoteNumber":68,"Velocity":58,"Duration":416088,"SoundDuration":416088,"Delta":10294392},{"NoteNumber":80,"Velocity":58,"Duration":416088,"SoundDuration":416088,"Delta":10294392},{"NoteNumber":53,"Velocity":37,"Duration":208044,"SoundDuration":208044,"Delta":10294392},{"NoteNumber":59,"Velocity":39,"Duration":208044,"SoundDuration":208044,"Delta":10502436},{"NoteNumber":69,"Velocity":57,"Duration":424929,"SoundDuration":424929,"Delta":10710481},{"NoteNumber":81,"Velocity":69,"Duration":424929,"SoundDuration":424929,"Delta":10710481},{"NoteNumber":54,"Velocity":43,"Duration":212464,"SoundDuration":212464,"Delta":10710481},{"NoteNumber":59,"Velocity":43,"Duration":212464,"SoundDuration":212464,"Delta":10922945},{"NoteNumber":73,"Velocity":69,"Duration":424928,"SoundDuration":424928,"Delta":11135410},{"NoteNumber":85,"Velocity":69,"Duration":424928,"SoundDuration":424928,"Delta":11135410},{"NoteNumber":57,"Velocity":49,"Duration":212464,"SoundDuration":212464,"Delta":11135410},{"NoteNumber":59,"Velocity":43,"Duration":212464,"SoundDuration":212464,"Delta":11347874},{"NoteNumber":71,"Velocity":56,"Duration":424929,"SoundDuration":424929,"Delta":11560339},{"NoteNumber":83,"Velocity":67,"Duration":424929,"SoundDuration":424929,"Delta":11560339},{"NoteNumber":56,"Velocity":44,"Duration":212464,"SoundDuration":212464,"Delta":11560339},{"NoteNumber":59,"Velocity":37,"Duration":212464,"SoundDuration":212464,"Delta":11772803},{"NoteNumber":87,"Velocity":49,"Duration":468754,"SoundDuration":468754,"Delta":11985268},{"NoteNumber":75,"Velocity":32,"Duration":468754,"SoundDuration":468754,"Delta":11985268},{"NoteNumber":47,"Velocity":25,"Duration":217076,"SoundDuration":217076,"Delta":11985268},{"NoteNumber":54,"Velocity":25,"Duration":217076,"SoundDuration":217076,"Delta":11985268},{"NoteNumber":57,"Velocity":27,"Duration":251677,"SoundDuration":251677,"Delta":12202345},{"NoteNumber":88,"Velocity":57,"Duration":849857,"SoundDuration":849857,"Delta":12454023},{"NoteNumber":76,"Velocity":35,"Duration":849857,"SoundDuration":849857,"Delta":12454023},{"NoteNumber":52,"Velocity":31,"Duration":212464,"SoundDuration":212464,"Delta":12454023},{"NoteNumber":56,"Velocity":31,"Duration":212464,"SoundDuration":212464,"Delta":12454023},{"NoteNumber":59,"Velocity":23,"Duration":212464,"SoundDuration":212464,"Delta":12666487},{"NoteNumber":56,"Velocity":31,"Duration":212464,"SoundDuration":212464,"Delta":12878952},{"NoteNumber":52,"Velocity":25,"Duration":212464,"SoundDuration":212464,"Delta":13091416},{"NoteNumber":51,"Velocity":31,"Duration":208044,"SoundDuration":208044,"Delta":13303880},{"NoteNumber":59,"Velocity":27,"Duration":208044,"SoundDuration":208044,"Delta":13511925},{"NoteNumber":71,"Velocity":47,"Duration":434973,"SoundDuration":434973,"Delta":13719969},{"NoteNumber":54,"Velocity":31,"Duration":208044,"SoundDuration":208044,"Delta":13719969},{"NoteNumber":51,"Velocity":32,"Duration":226929,"SoundDuration":226929,"Delta":13928014},{"NoteNumber":70,"Velocity":51,"Duration":849858,"SoundDuration":849858,"Delta":14154943},{"NoteNumber":49,"Velocity":38,"Duration":212464,"SoundDuration":212464,"Delta":14154943},{"NoteNumber":58,"Velocity":29,"Duration":212464,"SoundDuration":212464,"Delta":14367407},{"NoteNumber":54,"Velocity":31,"Duration":212464,"SoundDuration":212464,"Delta":14579872},{"NoteNumber":49,"Velocity":27,"Duration":212464,"SoundDuration":212464,"Delta":14792337},{"NoteNumber":76,"Velocity":56,"Duration":862618,"SoundDuration":862618,"Delta":15004801},{"NoteNumber":42,"Velocity":31,"Duration":212464,"SoundDuration":212464,"Delta":15004801},{"NoteNumber":58,"Velocity":26,"Duration":212464,"SoundDuration":212464,"Delta":15217265},{"NoteNumber":54,"Velocity":29,"Duration":212464,"SoundDuration":212464,"Delta":15429730},{"NoteNumber":49,"Velocity":27,"Duration":225225,"SoundDuration":225225,"Delta":15642194},{"NoteNumber":75,"Velocity":51,"Duration":1283880,"SoundDuration":1283880,"Delta":15867420},{"NoteNumber":47,"Velocity":31,"Duration":213979,"SoundDuration":213979,"Delta":15867420},{"NoteNumber":59,"Velocity":25,"Duration":213979,"SoundDuration":213979,"Delta":16081400},{"NoteNumber":54,"Velocity":30,"Duration":213979,"SoundDuration":213979,"Delta":16295380},{"NoteNumber":51,"Velocity":27,"Duration":213980,"SoundDuration":213980,"Delta":16509360},{"NoteNumber":47,"Velocity":37,"Duration":213979,"SoundDuration":213979,"Delta":16723340},{"NoteNumber":59,"Velocity":30,"Duration":213979,"SoundDuration":213979,"Delta":16937320},{"NoteNumber":69,"Velocity":49,"Duration":437526,"SoundDuration":437526,"Delta":17151300},{"NoteNumber":49,"Velocity":40,"Duration":213979,"SoundDuration":213979,"Delta":17151300},{"NoteNumber":57,"Velocity":36,"Duration":223546,"SoundDuration":223546,"Delta":17365280},{"NoteNumber":68,"Velocity":60,"Duration":855920,"SoundDuration":855920,"Delta":17588827},{"NoteNumber":47,"Velocity":34,"Duration":213979,"SoundDuration":213979,"Delta":17588827},{"NoteNumber":56,"Velocity":31,"Duration":213979,"SoundDuration":213979,"Delta":17802807},{"NoteNumber":52,"Velocity":41,"Duration":213979,"SoundDuration":213979,"Delta":18016787},{"NoteNumber":47,"Velocity":37,"Duration":213980,"SoundDuration":213980,"Delta":18230767},{"NoteNumber":74,"Velocity":64,"Duration":875949,"SoundDuration":875949,"Delta":18444747},{"NoteNumber":40,"Velocity":47,"Duration":213979,"SoundDuration":213979,"Delta":18444747},{"NoteNumber":56,"Velocity":35,"Duration":213979,"SoundDuration":213979,"Delta":18658727},{"NoteNumber":52,"Velocity":39,"Duration":213979,"SoundDuration":213979,"Delta":18872707},{"NoteNumber":47,"Velocity":31,"Duration":234009,"SoundDuration":234009,"Delta":19086687},{"NoteNumber":73,"Velocity":56,"Duration":1279397,"SoundDuration":1279397,"Delta":19320696},{"NoteNumber":45,"Velocity":38,"Duration":213979,"SoundDuration":213979,"Delta":19320696},{"NoteNumber":57,"Velocity":29,"Duration":213979,"SoundDuration":213979,"Delta":19534676},{"NoteNumber":52,"Velocity":34,"Duration":213980,"SoundDuration":213980,"Delta":19748656},{"NoteNumber":49,"Velocity":29,"Duration":213979,"SoundDuration":213979,"Delta":19962636},{"NoteNumber":45,"Velocity":34,"Duration":213979,"SoundDuration":213979,"Delta":20176616},{"NoteNumber":52,"Velocity":29,"Duration":209497,"SoundDuration":209497,"Delta":20390596},{"NoteNumber":73,"Velocity":56,"Duration":418994,"SoundDuration":418994,"Delta":20600093},{"NoteNumber":45,"Velocity":31,"Duration":209497,"SoundDuration":209497,"Delta":20600093},{"NoteNumber":52,"Velocity":35,"Duration":209497,"SoundDuration":209497,"Delta":20809590},{"NoteNumber":72,"Velocity":58,"Duration":424928,"SoundDuration":424928,"Delta":21019088},{"NoteNumber":45,"Velocity":40,"Duration":212464,"SoundDuration":212464,"Delta":21019088},{"NoteNumber":52,"Velocity":35,"Duration":212464,"SoundDuration":212464,"Delta":21231552},{"NoteNumber":73,"Velocity":58,"Duration":424929,"SoundDuration":424929,"Delta":21444017},{"NoteNumber":45,"Velocity":39,"Duration":212464,"SoundDuration":212464,"Delta":21444017},{"NoteNumber":52,"Velocity":35,"Duration":212464,"SoundDuration":212464,"Delta":21656481},{"NoteNumber":69,"Velocity":55,"Duration":318696,"SoundDuration":318696,"Delta":21868946},{"NoteNumber":64,"Velocity":46,"Duration":318696,"SoundDuration":318696,"Delta":21868946},{"NoteNumber":61,"Velocity":46,"Duration":318696,"SoundDuration":318696,"Delta":21868946},{"NoteNumber":45,"Velocity":43,"Duration":212464,"SoundDuration":212464,"Delta":21868946},{"NoteNumber":52,"Velocity":35,"Duration":212464,"SoundDuration":212464,"Delta":22081410},{"NoteNumber":68,"Velocity":54,"Duration":329469,"SoundDuration":329469,"Delta":22293875},{"NoteNumber":64,"Velocity":44,"Duration":329469,"SoundDuration":329469,"Delta":22293875},{"NoteNumber":59,"Velocity":44,"Duration":329469,"SoundDuration":329469,"Delta":22293875},{"NoteNumber":47,"Velocity":43,"Duration":212464,"SoundDuration":212464,"Delta":22293875},{"NoteNumber":52,"Velocity":35,"Duration":234009,"SoundDuration":234009,"Delta":22506339},{"NoteNumber":68,"Velocity":72,"Duration":427959,"SoundDuration":427959,"Delta":22740348},{"NoteNumber":64,"Velocity":60,"Duration":868869,"SoundDuration":868869,"Delta":22740348},{"NoteNumber":58,"Velocity":60,"Duration":868869,"SoundDuration":868869,"Delta":22740348},{"NoteNumber":49,"Velocity":52,"Duration":213979,"SoundDuration":213979,"Delta":22740348},{"NoteNumber":52,"Velocity":46,"Duration":213979,"SoundDuration":213979,"Delta":22954328},{"NoteNumber":66,"Velocity":58,"Duration":868869,"SoundDuration":868869,"Delta":23168308},{"NoteNumber":49,"Velocity":50,"Duration":213980,"SoundDuration":213980,"Delta":23168308},{"NoteNumber":52,"Velocity":40,"Duration":226928,"SoundDuration":226928,"Delta":23382288},{"NoteNumber":64,"Velocity":58,"Duration":883485,"SoundDuration":883485,"Delta":23609217},{"NoteNumber":57,"Velocity":58,"Duration":883485,"SoundDuration":883485,"Delta":23609217},{"NoteNumber":48,"Velocity":46,"Duration":213979,"SoundDuration":213979,"Delta":23609217},{"NoteNumber":52,"Velocity":35,"Duration":213979,"SoundDuration":213979,"Delta":23823197},{"NoteNumber":66,"Velocity":60,"Duration":455525,"SoundDuration":455525,"Delta":24037177},{"NoteNumber":48,"Velocity":44,"Duration":213979,"SoundDuration":213979,"Delta":24037177},{"NoteNumber":52,"Velocity":35,"Duration":241545,"SoundDuration":241545,"Delta":24251157},{"NoteNumber":66,"Velocity":49,"Duration":431034,"SoundDuration":431034,"Delta":24492703},{"NoteNumber":63,"Velocity":41,"Duration":431034,"SoundDuration":431034,"Delta":24492703},{"NoteNumber":57,"Velocity":41,"Duration":431034,"SoundDuration":431034,"Delta":24492703},{"NoteNumber":47,"Velocity":31,"Duration":215517,"SoundDuration":215517,"Delta":24492703},{"NoteNumber":54,"Velocity":27,"Duration":215517,"SoundDuration":215517,"Delta":24708221},{"NoteNumber":71,"Velocity":38,"Duration":431034,"SoundDuration":431034,"Delta":24923738},{"NoteNumber":63,"Velocity":32,"Duration":878128,"SoundDuration":878128,"Delta":24923738},{"NoteNumber":47,"Velocity":31,"Duration":215517,"SoundDuration":215517,"Delta":24923738},{"NoteNumber":54,"Velocity":29,"Duration":215517,"SoundDuration":215517,"Delta":25139255},{"NoteNumber":57,"Velocity":29,"Duration":215517,"SoundDuration":215517,"Delta":25139255},{"NoteNumber":70,"Velocity":46,"Duration":447093,"SoundDuration":447093,"Delta":25354772},{"NoteNumber":47,"Velocity":31,"Duration":223546,"SoundDuration":223546,"Delta":25354772},{"NoteNumber":54,"Velocity":27,"Duration":223546,"SoundDuration":223546,"Delta":25578319},{"NoteNumber":57,"Velocity":27,"Duration":223546,"SoundDuration":223546,"Delta":25578319},{"NoteNumber":71,"Velocity":40,"Duration":473130,"SoundDuration":473130,"Delta":25801866},{"NoteNumber":63,"Velocity":34,"Duration":473130,"SoundDuration":473130,"Delta":25801866},{"NoteNumber":47,"Velocity":31,"Duration":223546,"SoundDuration":223546,"Delta":25801866},{"NoteNumber":57,"Velocity":28,"Duration":249583,"SoundDuration":249583,"Delta":26025413},{"NoteNumber":54,"Velocity":28,"Duration":249583,"SoundDuration":249583,"Delta":26025413},{"NoteNumber":64,"Velocity":51,"Duration":849858,"SoundDuration":849858,"Delta":26274997},{"NoteNumber":52,"Velocity":31,"Duration":212464,"SoundDuration":212464,"Delta":26274997},{"NoteNumber":56,"Velocity":31,"Duration":212464,"SoundDuration":212464,"Delta":26274997},{"NoteNumber":59,"Velocity":23,"Duration":212464,"SoundDuration":212464,"Delta":26487462},{"NoteNumber":56,"Velocity":31,"Duration":212464,"SoundDuration":212464,"Delta":26699926},{"NoteNumber":52,"Velocity":25,"Duration":212464,"SoundDuration":212464,"Delta":26912391},{"NoteNumber":51,"Velocity":31,"Duration":208044,"SoundDuration":208044,"Delta":27124855},{"NoteNumber":59,"Velocity":27,"Duration":208044,"SoundDuration":208044,"Delta":27332900},{"NoteNumber":83,"Velocity":47,"Duration":434973,"SoundDuration":434973,"Delta":27540944},{"NoteNumber":71,"Velocity":47,"Duration":434973,"SoundDuration":434973,"Delta":27540944},{"NoteNumber":54,"Velocity":31,"Duration":208044,"SoundDuration":208044,"Delta":27540944},{"NoteNumber":51,"Velocity":32,"Duration":226928,"SoundDuration":226928,"Delta":27748989},{"NoteNumber":82,"Velocity":51,"Duration":849858,"SoundDuration":849858,"Delta":27975918},{"NoteNumber":70,"Velocity":51,"Duration":849858,"SoundDuration":849858,"Delta":27975918},{"NoteNumber":49,"Velocity":38,"Duration":212464,"SoundDuration":212464,"Delta":27975918},{"NoteNumber":58,"Velocity":29,"Duration":212464,"SoundDuration":212464,"Delta":28188382},{"NoteNumber":54,"Velocity":31,"Duration":212464,"SoundDuration":212464,"Delta":28400847},{"NoteNumber":49,"Velocity":27,"Duration":212464,"SoundDuration":212464,"Delta":28613311},{"NoteNumber":88,"Velocity":56,"Duration":862618,"SoundDuration":862618,"Delta":28825776},{"NoteNumber":76,"Velocity":56,"Duration":862618,"SoundDuration":862618,"Delta":28825776},{"NoteNumber":42,"Velocity":31,"Duration":212464,"SoundDuration":212464,"Delta":28825776},{"NoteNumber":58,"Velocity":26,"Duration":212464,"SoundDuration":212464,"Delta":29038240},{"NoteNumber":54,"Velocity":29,"Duration":212464,"SoundDuration":212464,"Delta":29250705},{"NoteNumber":49,"Velocity":27,"Duration":225225,"SoundDuration":225225,"Delta":29463169},{"NoteNumber":87,"Velocity":51,"Duration":1283880,"SoundDuration":1283880,"Delta":29688395},{"NoteNumber":75,"Velocity":51,"Duration":1283880,"SoundDuration":1283880,"Delta":29688395},{"NoteNumber":47,"Velocity":31,"Duration":213979,"SoundDuration":213979,"Delta":29688395},{"NoteNumber":59,"Velocity":25,"Duration":213979,"SoundDuration":213979,"Delta":29902375},{"NoteNumber":54,"Velocity":30,"Duration":213980,"SoundDuration":213980,"Delta":30116355},{"NoteNumber":51,"Velocity":27,"Duration":213979,"SoundDuration":213979,"Delta":30330335},{"NoteNumber":47,"Velocity":37,"Duration":213979,"SoundDuration":213979,"Delta":30544315},{"NoteNumber":59,"Velocity":30,"Duration":213979,"SoundDuration":213979,"Delta":30758295},{"NoteNumber":81,"Velocity":51,"Duration":437527,"SoundDuration":437527,"Delta":30972275},{"NoteNumber":69,"Velocity":51,"Duration":437527,"SoundDuration":437527,"Delta":30972275},{"NoteNumber":49,"Velocity":42,"Duration":213979,"SoundDuration":213979,"Delta":30972275},{"NoteNumber":57,"Velocity":38,"Duration":223547,"SoundDuration":223547,"Delta":31186255},{"NoteNumber":80,"Velocity":62,"Duration":855919,"SoundDuration":855919,"Delta":31409802},{"NoteNumber":68,"Velocity":62,"Duration":855919,"SoundDuration":855919,"Delta":31409802},{"NoteNumber":47,"Velocity":37,"Duration":213979,"SoundDuration":213979,"Delta":31409802},{"NoteNumber":56,"Velocity":36,"Duration":213979,"SoundDuration":213979,"Delta":31623782},{"NoteNumber":52,"Velocity":44,"Duration":213979,"SoundDuration":213979,"Delta":31837762},{"NoteNumber":47,"Velocity":38,"Duration":213979,"SoundDuration":213979,"Delta":32051742},{"NoteNumber":86,"Velocity":59,"Duration":875949,"SoundDuration":875949,"Delta":32265722},{"NoteNumber":74,"Velocity":59,"Duration":875949,"SoundDuration":875949,"Delta":32265722},{"NoteNumber":40,"Velocity":42,"Duration":213979,"SoundDuration":213979,"Delta":32265722},{"NoteNumber":56,"Velocity":35,"Duration":213980,"SoundDuration":213980,"Delta":32479702},{"NoteNumber":52,"Velocity":39,"Duration":213979,"SoundDuration":213979,"Delta":32693682},{"NoteNumber":47,"Velocity":31,"Duration":234009,"SoundDuration":234009,"Delta":32907662},{"NoteNumber":85,"Velocity":56,"Duration":1279397,"SoundDuration":1279397,"Delta":33141671},{"NoteNumber":73,"Velocity":56,"Duration":1279397,"SoundDuration":1279397,"Delta":33141671},{"NoteNumber":45,"Velocity":38,"Duration":213979,"SoundDuration":213979,"Delta":33141671},{"NoteNumber":57,"Velocity":29,"Duration":213979,"SoundDuration":213979,"Delta":33355651},{"NoteNumber":52,"Velocity":34,"Duration":213979,"SoundDuration":213979,"Delta":33569631},{"NoteNumber":49,"Velocity":29,"Duration":213979,"SoundDuration":213979,"Delta":33783611},{"NoteNumber":45,"Velocity":34,"Duration":213979,"SoundDuration":213979,"Delta":33997591},{"NoteNumber":52,"Velocity":29,"Duration":209497,"SoundDuration":209497,"Delta":34211571},{"NoteNumber":85,"Velocity":50,"Duration":418994,"SoundDuration":418994,"Delta":34421068},{"NoteNumber":73,"Velocity":50,"Duration":418994,"SoundDuration":418994,"Delta":34421068},{"NoteNumber":45,"Velocity":35,"Duration":209497,"SoundDuration":209497,"Delta":34421068},{"NoteNumber":52,"Velocity":40,"Duration":209497,"SoundDuration":209497,"Delta":34630565},{"NoteNumber":84,"Velocity":59,"Duration":424928,"SoundDuration":424928,"Delta":34840063},{"NoteNumber":72,"Velocity":59,"Duration":424928,"SoundDuration":424928,"Delta":34840063},{"NoteNumber":44,"Velocity":40,"Duration":212464,"SoundDuration":212464,"Delta":34840063},{"NoteNumber":52,"Velocity":36,"Duration":212464,"SoundDuration":212464,"Delta":35052527},{"NoteNumber":85,"Velocity":60,"Duration":424928,"SoundDuration":424928,"Delta":35264992},{"NoteNumber":73,"Velocity":60,"Duration":424928,"SoundDuration":424928,"Delta":35264992},{"NoteNumber":45,"Velocity":40,"Duration":212464,"SoundDuration":212464,"Delta":35264992},{"NoteNumber":52,"Velocity":36,"Duration":212464,"SoundDuration":212464,"Delta":35477456},{"NoteNumber":81,"Velocity":58,"Duration":318696,"SoundDuration":318696,"Delta":35689921},{"NoteNumber":69,"Velocity":58,"Duration":318696,"SoundDuration":318696,"Delta":35689921},{"NoteNumber":49,"Velocity":45,"Duration":212464,"SoundDuration":212464,"Delta":35689921},{"NoteNumber":45,"Velocity":38,"Duration":212464,"SoundDuration":212464,"Delta":35689921},{"NoteNumber":52,"Velocity":37,"Duration":212464,"SoundDuration":212464,"Delta":35902385},{"NoteNumber":80,"Velocity":57,"Duration":329469,"SoundDuration":329469,"Delta":36114850},{"NoteNumber":68,"Velocity":57,"Duration":329469,"SoundDuration":329469,"Delta":36114850},{"NoteNumber":52,"Velocity":46,"Duration":212464,"SoundDuration":212464,"Delta":36114850},{"NoteNumber":47,"Velocity":39,"Duration":212464,"SoundDuration":212464,"Delta":36114850},{"NoteNumber":56,"Velocity":37,"Duration":234009,"SoundDuration":234009,"Delta":36327314},{"NoteNumber":80,"Velocity":70,"Duration":427959,"SoundDuration":427959,"Delta":36561323},{"NoteNumber":68,"Velocity":70,"Duration":427959,"SoundDuration":427959,"Delta":36561323},{"NoteNumber":52,"Velocity":44,"Duration":213979,"SoundDuration":213979,"Delta":36561323},{"NoteNumber":49,"Velocity":37,"Duration":213979,"SoundDuration":213979,"Delta":36561323},{"NoteNumber":58,"Velocity":39,"Duration":213979,"SoundDuration":213979,"Delta":36775303},{"NoteNumber":78,"Velocity":64,"Duration":859953,"SoundDuration":859953,"Delta":36989283},{"NoteNumber":66,"Velocity":64,"Duration":859953,"SoundDuration":859953,"Delta":36989283},{"NoteNumber":52,"Velocity":44,"Duration":213979,"SoundDuration":213979,"Delta":36989283},{"NoteNumber":49,"Velocity":36,"Duration":213979,"SoundDuration":213979,"Delta":36989283},{"NoteNumber":58,"Velocity":35,"Duration":226928,"SoundDuration":226928,"Delta":37203263},{"NoteNumber":52,"Velocity":40,"Duration":213979,"SoundDuration":213979,"Delta":37430192},{"NoteNumber":48,"Velocity":34,"Duration":213979,"SoundDuration":213979,"Delta":37430192},{"NoteNumber":57,"Velocity":31,"Duration":213979,"SoundDuration":213979,"Delta":37644172},{"NoteNumber":78,"Velocity":53,"Duration":431371,"SoundDuration":431371,"Delta":37858152},{"NoteNumber":66,"Velocity":53,"Duration":431371,"SoundDuration":431371,"Delta":37858152},{"NoteNumber":52,"Velocity":49,"Duration":213979,"SoundDuration":213979,"Delta":37858152},{"NoteNumber":48,"Velocity":42,"Duration":213979,"SoundDuration":213979,"Delta":37858152},{"NoteNumber":57,"Velocity":39,"Duration":241545,"SoundDuration":241545,"Delta":38072132},{"NoteNumber":78,"Velocity":49,"Duration":431034,"SoundDuration":431034,"Delta":38313678},{"NoteNumber":66,"Velocity":49,"Duration":431034,"SoundDuration":431034,"Delta":38313678},{"NoteNumber":51,"Velocity":31,"Duration":215517,"SoundDuration":215517,"Delta":38313678},{"NoteNumber":47,"Velocity":26,"Duration":215517,"SoundDuration":215517,"Delta":38313678},{"NoteNumber":57,"Velocity":27,"Duration":215517,"SoundDuration":215517,"Delta":38529196},{"NoteNumber":83,"Velocity":38,"Duration":431034,"SoundDuration":431034,"Delta":38744713},{"NoteNumber":71,"Velocity":38,"Duration":431034,"SoundDuration":431034,"Delta":38744713},{"NoteNumber":51,"Velocity":31,"Duration":215517,"SoundDuration":215517,"Delta":38744713},{"NoteNumber":47,"Velocity":26,"Duration":215517,"SoundDuration":215517,"Delta":38744713},{"NoteNumber":57,"Velocity":29,"Duration":215517,"SoundDuration":215517,"Delta":38960230},{"NoteNumber":82,"Velocity":46,"Duration":447093,"SoundDuration":447093,"Delta":39175747},{"NoteNumber":70,"Velocity":46,"Duration":447093,"SoundDuration":447093,"Delta":39175747},{"NoteNumber":51,"Velocity":31,"Duration":223547,"SoundDuration":223547,"Delta":39175747},{"NoteNumber":47,"Velocity":26,"Duration":223547,"SoundDuration":223547,"Delta":39175747},{"NoteNumber":57,"Velocity":27,"Duration":223546,"SoundDuration":223546,"Delta":39399294},{"NoteNumber":83,"Velocity":40,"Duration":473131,"SoundDuration":473131,"Delta":39622841},{"NoteNumber":71,"Velocity":40,"Duration":473131,"SoundDuration":473131,"Delta":39622841},{"NoteNumber":51,"Velocity":31,"Duration":223547,"SoundDuration":223547,"Delta":39622841},{"NoteNumber":47,"Velocity":26,"Duration":223547,"SoundDuration":223547,"Delta":39622841},{"NoteNumber":57,"Velocity":28,"Duration":249583,"SoundDuration":249583,"Delta":39846388},{"NoteNumber":76,"Velocity":51,"Duration":907716,"SoundDuration":907716,"Delta":40095972},{"NoteNumber":64,"Velocity":51,"Duration":907716,"SoundDuration":907716,"Delta":40095972},{"NoteNumber":52,"Velocity":31,"Duration":226928,"SoundDuration":226928,"Delta":40095972},{"NoteNumber":56,"Velocity":31,"Duration":226928,"SoundDuration":226928,"Delta":40095972},{"NoteNumber":52,"Velocity":31,"Duration":226928,"SoundDuration":226928,"Delta":40322901},{"NoteNumber":51,"Velocity":31,"Duration":226929,"SoundDuration":226929,"Delta":40549830},{"NoteNumber":49,"Velocity":31,"Duration":226928,"SoundDuration":226928,"Delta":40776759},{"NoteNumber":47,"Velocity":31,"Duration":226928,"SoundDuration":226928,"Delta":41003688},{"NoteNumber":45,"Velocity":30,"Duration":241545,"SoundDuration":241545,"Delta":41230617},{"NoteNumber":64,"Velocity":43,"Duration":226928,"SoundDuration":226928,"Delta":41472163},{"NoteNumber":44,"Velocity":25,"Duration":226928,"SoundDuration":226928,"Delta":41472163},{"NoteNumber":66,"Velocity":39,"Duration":239616,"SoundDuration":239616,"Delta":41699092},{"NoteNumber":42,"Velocity":25,"Duration":239616,"SoundDuration":239616,"Delta":41699092},{"NoteNumber":64,"Velocity":34,"Duration":225225,"SoundDuration":225225,"Delta":41938709},{"NoteNumber":68,"Velocity":50,"Duration":900900,"SoundDuration":900900,"Delta":41938709},{"NoteNumber":40,"Velocity":25,"Duration":450450,"SoundDuration":450450,"Delta":41938709},{"NoteNumber":59,"Velocity":26,"Duration":225225,"SoundDuration":225225,"Delta":42163934},{"NoteNumber":64,"Velocity":31,"Duration":225225,"SoundDuration":225225,"Delta":42389159},{"NoteNumber":59,"Velocity":26,"Duration":225225,"SoundDuration":225225,"Delta":42614385},{"NoteNumber":68,"Velocity":30,"Duration":212464,"SoundDuration":212464,"Delta":42839610},{"NoteNumber":71,"Velocity":46,"Duration":424928,"SoundDuration":424928,"Delta":42839610},{"NoteNumber":59,"Velocity":27,"Duration":212464,"SoundDuration":212464,"Delta":43052074},{"NoteNumber":66,"Velocity":28,"Duration":220264,"SoundDuration":220264,"Delta":43264539},{"NoteNumber":69,"Velocity":43,"Duration":440528,"SoundDuration":440528,"Delta":43264539},{"NoteNumber":59,"Velocity":27,"Duration":220264,"SoundDuration":220264,"Delta":43484803},{"NoteNumber":64,"Velocity":34,"Duration":217076,"SoundDuration":217076,"Delta":43705067},{"NoteNumber":68,"Velocity":50,"Duration":434153,"SoundDuration":434153,"Delta":43705067},{"NoteNumber":35,"Velocity":25,"Duration":434153,"SoundDuration":434153,"Delta":43705067},{"NoteNumber":59,"Velocity":26,"Duration":217076,"SoundDuration":217076,"Delta":43922144},{"NoteNumber":63,"Velocity":27,"Duration":212464,"SoundDuration":212464,"Delta":44139221},{"NoteNumber":66,"Velocity":41,"Duration":371812,"SoundDuration":371812,"Delta":44139221},{"NoteNumber":59,"Velocity":25,"Duration":159348,"SoundDuration":159348,"Delta":44351685},{"NoteNumber":63,"Velocity":27,"Duration":212464,"SoundDuration":212464,"Delta":44564150},{"NoteNumber":66,"Velocity":41,"Duration":424928,"SoundDuration":424928,"Delta":44564150},{"NoteNumber":59,"Velocity":26,"Duration":212464,"SoundDuration":212464,"Delta":44776614},{"NoteNumber":64,"Velocity":28,"Duration":208044,"SoundDuration":208044,"Delta":44989079},{"NoteNumber":68,"Velocity":43,"Duration":416088,"SoundDuration":416088,"Delta":44989079},{"NoteNumber":59,"Velocity":28,"Duration":208044,"SoundDuration":208044,"Delta":45197123},{"NoteNumber":64,"Velocity":30,"Duration":212464,"SoundDuration":212464,"Delta":45405168},{"NoteNumber":69,"Velocity":46,"Duration":424928,"SoundDuration":424928,"Delta":45405168},{"NoteNumber":37,"Velocity":25,"Duration":424928,"SoundDuration":424928,"Delta":45405168},{"NoteNumber":59,"Velocity":28,"Duration":212464,"SoundDuration":212464,"Delta":45617632},{"NoteNumber":64,"Velocity":36,"Duration":212464,"SoundDuration":212464,"Delta":45830097},{"NoteNumber":73,"Velocity":54,"Duration":424928,"SoundDuration":424928,"Delta":45830097},{"NoteNumber":59,"Velocity":31,"Duration":212464,"SoundDuration":212464,"Delta":46042561},{"NoteNumber":66,"Velocity":37,"Duration":212464,"SoundDuration":212464,"Delta":46255026},{"NoteNumber":71,"Velocity":47,"Duration":424929,"SoundDuration":424929,"Delta":46255026},{"NoteNumber":39,"Velocity":23,"Duration":424929,"SoundDuration":424929,"Delta":46255026},{"NoteNumber":59,"Velocity":26,"Duration":212464,"SoundDuration":212464,"Delta":46467490},{"NoteNumber":63,"Velocity":25,"Duration":217076,"SoundDuration":217076,"Delta":46679955},{"NoteNumber":66,"Velocity":38,"Duration":468754,"SoundDuration":468754,"Delta":46679955},{"NoteNumber":35,"Velocity":22,"Duration":468754,"SoundDuration":468754,"Delta":46679955},{"NoteNumber":59,"Velocity":27,"Duration":251677,"SoundDuration":251677,"Delta":46897032},{"NoteNumber":59,"Velocity":35,"Duration":464396,"SoundDuration":464396,"Delta":47148709},{"NoteNumber":64,"Velocity":35,"Duration":464396,"SoundDuration":464396,"Delta":47148709},{"NoteNumber":68,"Velocity":42,"Duration":464396,"SoundDuration":464396,"Delta":47148709},{"NoteNumber":40,"Velocity":28,"Duration":464396,"SoundDuration":464396,"Delta":47148709},{"NoteNumber":64,"Velocity":32,"Duration":212464,"SoundDuration":212464,"Delta":47613106},{"NoteNumber":59,"Velocity":25,"Duration":212464,"SoundDuration":212464,"Delta":47825570},{"NoteNumber":78,"Velocity":48,"Duration":53116,"SoundDuration":53116,"Delta":47984919},{"NoteNumber":76,"Velocity":54,"Duration":203804,"SoundDuration":203804,"Delta":48038035},{"NoteNumber":64,"Velocity":32,"Duration":203804,"SoundDuration":203804,"Delta":48038035},{"NoteNumber":75,"Velocity":48,"Duration":203804,"SoundDuration":203804,"Delta":48241839},{"NoteNumber":59,"Velocity":27,"Duration":203804,"SoundDuration":203804,"Delta":48241839},{"NoteNumber":76,"Velocity":56,"Duration":203804,"SoundDuration":203804,"Delta":48445643},{"NoteNumber":64,"Velocity":32,"Duration":203804,"SoundDuration":203804,"Delta":48445643},{"NoteNumber":78,"Velocity":50,"Duration":152853,"SoundDuration":152853,"Delta":48649448},{"NoteNumber":59,"Velocity":29,"Duration":203804,"SoundDuration":203804,"Delta":48649448},{"NoteNumber":81,"Velocity":50,"Duration":50951,"SoundDuration":50951,"Delta":48802301},{"NoteNumber":80,"Velocity":60,"Duration":199733,"SoundDuration":199733,"Delta":48853252},{"NoteNumber":64,"Velocity":35,"Duration":199733,"SoundDuration":199733,"Delta":48853252},{"NoteNumber":78,"Velocity":55,"Duration":199733,"SoundDuration":199733,"Delta":49052986},{"NoteNumber":59,"Velocity":34,"Duration":199733,"SoundDuration":199733,"Delta":49052986},{"NoteNumber":80,"Velocity":49,"Duration":202429,"SoundDuration":202429,"Delta":49252719},{"NoteNumber":64,"Velocity":38,"Duration":202429,"SoundDuration":202429,"Delta":49252719},{"NoteNumber":81,"Velocity":55,"Duration":223547,"SoundDuration":223547,"Delta":49455149},{"NoteNumber":59,"Velocity":36,"Duration":223547,"SoundDuration":223547,"Delta":49455149},{"NoteNumber":71,"Velocity":54,"Duration":416088,"SoundDuration":416088,"Delta":49678696},{"NoteNumber":83,"Velocity":63,"Duration":416088,"SoundDuration":416088,"Delta":49678696},{"NoteNumber":68,"Velocity":42,"Duration":208044,"SoundDuration":208044,"Delta":49678696},{"NoteNumber":59,"Velocity":38,"Duration":208044,"SoundDuration":208044,"Delta":49886740},{"NoteNumber":81,"Velocity":64,"Duration":428308,"SoundDuration":428308,"Delta":50094785},{"NoteNumber":69,"Velocity":54,"Duration":428308,"SoundDuration":428308,"Delta":50094785},{"NoteNumber":66,"Velocity":47,"Duration":208044,"SoundDuration":208044,"Delta":50094785},{"NoteNumber":59,"Velocity":43,"Duration":220264,"SoundDuration":220264,"Delta":50302829},{"NoteNumber":80,"Velocity":70,"Duration":418994,"SoundDuration":418994,"Delta":50523093},{"NoteNumber":68,"Velocity":59,"Duration":418994,"SoundDuration":418994,"Delta":50523093},{"NoteNumber":64,"Velocity":54,"Duration":209497,"SoundDuration":209497,"Delta":50523093},{"NoteNumber":59,"Velocity":45,"Duration":209497,"SoundDuration":209497,"Delta":50732591},{"NoteNumber":66,"Velocity":56,"Duration":412199,"SoundDuration":412199,"Delta":50942088},{"NoteNumber":78,"Velocity":67,"Duration":412199,"SoundDuration":412199,"Delta":50942088},{"NoteNumber":63,"Velocity":52,"Duration":209497,"SoundDuration":209497,"Delta":50942088},{"NoteNumber":59,"Velocity":45,"Duration":225225,"SoundDuration":225225,"Delta":51151585},{"NoteNumber":66,"Velocity":63,"Duration":421940,"SoundDuration":421940,"Delta":51376810},{"NoteNumber":78,"Velocity":75,"Duration":421940,"SoundDuration":421940,"Delta":51376810},{"NoteNumber":63,"Velocity":49,"Duration":210970,"SoundDuration":210970,"Delta":51376810},{"NoteNumber":59,"Velocity":42,"Duration":210970,"SoundDuration":210970,"Delta":51587781},{"NoteNumber":80,"Velocity":68,"Duration":421941,"SoundDuration":421941,"Delta":51798751},{"NoteNumber":68,"Velocity":57,"Duration":421941,"SoundDuration":421941,"Delta":51798751},{"NoteNumber":65,"Velocity":52,"Duration":210970,"SoundDuration":210970,"Delta":51798751},{"NoteNumber":59,"Velocity":46,"Duration":210970,"SoundDuration":210970,"Delta":52009722},{"NoteNumber":69,"Velocity":64,"Duration":421940,"SoundDuration":421940,"Delta":52220692},{"NoteNumber":81,"Velocity":76,"Duration":421940,"SoundDuration":421940,"Delta":52220692},{"NoteNumber":66,"Velocity":60,"Duration":210970,"SoundDuration":210970,"Delta":52220692},{"NoteNumber":59,"Velocity":50,"Duration":210970,"SoundDuration":210970,"Delta":52431663},{"NoteNumber":85,"Velocity":69,"Duration":436195,"SoundDuration":436195,"Delta":52642633},{"NoteNumber":73,"Velocity":58,"Duration":436195,"SoundDuration":436195,"Delta":52642633},{"NoteNumber":69,"Velocity":54,"Duration":210970,"SoundDuration":210970,"Delta":52642633},{"NoteNumber":59,"Velocity":48,"Duration":225225,"SoundDuration":225225,"Delta":52853604},{"NoteNumber":83,"Velocity":80,"Duration":424928,"SoundDuration":424928,"Delta":53078829},{"NoteNumber":71,"Velocity":67,"Duration":424928,"SoundDuration":424928,"Delta":53078829},{"NoteNumber":68,"Velocity":57,"Duration":212464,"SoundDuration":212464,"Delta":53078829},{"NoteNumber":59,"Velocity":45,"Duration":212464,"SoundDuration":212464,"Delta":53291294},{"NoteNumber":75,"Velocity":70,"Duration":337837,"SoundDuration":337837,"Delta":53503758},{"NoteNumber":81,"Velocity":70,"Duration":337837,"SoundDuration":337837,"Delta":53503758},{"NoteNumber":87,"Velocity":83,"Duration":337837,"SoundDuration":337837,"Delta":53503758},{"NoteNumber":66,"Velocity":54,"Duration":225225,"SoundDuration":225225,"Delta":53503758},{"NoteNumber":59,"Velocity":46,"Duration":225225,"SoundDuration":225225,"Delta":53728983},{"NoteNumber":76,"Velocity":73,"Duration":862618,"SoundDuration":862618,"Delta":53954209},{"NoteNumber":80,"Velocity":73,"Duration":862618,"SoundDuration":862618,"Delta":53954209},{"NoteNumber":88,"Velocity":88,"Duration":862618,"SoundDuration":862618,"Delta":53954209},{"NoteNumber":64,"Velocity":59,"Duration":225225,"SoundDuration":225225,"Delta":53954209},{"NoteNumber":59,"Velocity":49,"Duration":212464,"SoundDuration":212464,"Delta":54179434},{"NoteNumber":56,"Velocity":58,"Duration":212464,"SoundDuration":212464,"Delta":54391898},{"NoteNumber":59,"Velocity":50,"Duration":212464,"SoundDuration":212464,"Delta":54604363},{"NoteNumber":52,"Velocity":59,"Duration":431034,"SoundDuration":431034,"Delta":54816827},{"NoteNumber":64,"Velocity":73,"Duration":221893,"SoundDuration":221893,"Delta":55247862},{"NoteNumber":68,"Velocity":87,"Duration":221893,"SoundDuration":221893,"Delta":55247862},{"NoteNumber":64,"Velocity":81,"Duration":1283879,"SoundDuration":1283879,"Delta":55691649},{"NoteNumber":68,"Velocity":96,"Duration":1283879,"SoundDuration":1283879,"Delta":55691649},{"NoteNumber":61,"Velocity":67,"Duration":213979,"SoundDuration":213979,"Delta":55691649},{"NoteNumber":56,"Velocity":57,"Duration":213979,"SoundDuration":213979,"Delta":55905629},{"NoteNumber":52,"Velocity":62,"Duration":213979,"SoundDuration":213979,"Delta":56119609},{"NoteNumber":56,"Velocity":57,"Duration":213979,"SoundDuration":213979,"Delta":56333589},{"NoteNumber":49,"Velocity":70,"Duration":427959,"SoundDuration":427959,"Delta":56547569},{"NoteNumber":76,"Velocity":34,"Duration":221893,"SoundDuration":221893,"Delta":56975529},{"NoteNumber":68,"Velocity":28,"Duration":221893,"SoundDuration":221893,"Delta":56975529},{"NoteNumber":64,"Velocity":28,"Duration":221893,"SoundDuration":221893,"Delta":56975529},{"NoteNumber":61,"Velocity":26,"Duration":221893,"SoundDuration":221893,"Delta":56975529},{"NoteNumber":75,"Velocity":39,"Duration":1249719,"SoundDuration":1249719,"Delta":57419316},{"NoteNumber":68,"Velocity":33,"Duration":1249719,"SoundDuration":1249719,"Delta":57419316},{"NoteNumber":66,"Velocity":33,"Duration":1249719,"SoundDuration":1249719,"Delta":57419316},{"NoteNumber":63,"Velocity":33,"Duration":1249719,"SoundDuration":1249719,"Delta":57419316},{"NoteNumber":60,"Velocity":33,"Duration":209497,"SoundDuration":209497,"Delta":57419316},{"NoteNumber":56,"Velocity":27,"Duration":208044,"SoundDuration":208044,"Delta":57628813},{"NoteNumber":51,"Velocity":33,"Duration":208044,"SoundDuration":208044,"Delta":57836858},{"NoteNumber":56,"Velocity":27,"Duration":208044,"SoundDuration":208044,"Delta":58044902},{"NoteNumber":48,"Velocity":36,"Duration":416088,"SoundDuration":416088,"Delta":58252947},{"NoteNumber":63,"Velocity":73,"Duration":221893,"SoundDuration":221893,"Delta":58669036},{"NoteNumber":66,"Velocity":73,"Duration":221893,"SoundDuration":221893,"Delta":58669036},{"NoteNumber":68,"Velocity":87,"Duration":221893,"SoundDuration":221893,"Delta":58669036},{"NoteNumber":60,"Velocity":77,"Duration":221893,"SoundDuration":221893,"Delta":58669036},{"NoteNumber":66,"Velocity":81,"Duration":1283879,"SoundDuration":1283879,"Delta":59112823},{"NoteNumber":63,"Velocity":81,"Duration":1283879,"SoundDuration":1283879,"Delta":59112823},{"NoteNumber":68,"Velocity":96,"Duration":1283879,"SoundDuration":1283879,"Delta":59112823},{"NoteNumber":56,"Velocity":67,"Duration":213979,"SoundDuration":213979,"Delta":59112823},{"NoteNumber":51,"Velocity":57,"Duration":213979,"SoundDuration":213979,"Delta":59326803},{"NoteNumber":48,"Velocity":62,"Duration":213979,"SoundDuration":213979,"Delta":59540783},{"NoteNumber":51,"Velocity":57,"Duration":213979,"SoundDuration":213979,"Delta":59754763},{"NoteNumber":44,"Velocity":70,"Duration":427959,"SoundDuration":427959,"Delta":59968743},{"NoteNumber":63,"Velocity":28,"Duration":221893,"SoundDuration":221893,"Delta":60396703},{"NoteNumber":75,"Velocity":34,"Duration":221893,"SoundDuration":221893,"Delta":60396703},{"NoteNumber":68,"Velocity":28,"Duration":221893,"SoundDuration":221893,"Delta":60396703},{"NoteNumber":66,"Velocity":28,"Duration":221893,"SoundDuration":221893,"Delta":60396703},{"NoteNumber":60,"Velocity":26,"Duration":221893,"SoundDuration":221893,"Delta":60396703},{"NoteNumber":76,"Velocity":39,"Duration":1249719,"SoundDuration":1249719,"Delta":60840490},{"NoteNumber":68,"Velocity":33,"Duration":1249719,"SoundDuration":1249719,"Delta":60840490},{"NoteNumber":64,"Velocity":33,"Duration":1249719,"SoundDuration":1249719,"Delta":60840490},{"NoteNumber":61,"Velocity":33,"Duration":209497,"SoundDuration":209497,"Delta":60840490},{"NoteNumber":56,"Velocity":27,"Duration":208044,"SoundDuration":208044,"Delta":61049987},{"NoteNumber":52,"Velocity":33,"Duration":208044,"SoundDuration":208044,"Delta":61258031},{"NoteNumber":56,"Velocity":27,"Duration":208044,"SoundDuration":208044,"Delta":61466076},{"NoteNumber":49,"Velocity":36,"Duration":416088,"SoundDuration":416088,"Delta":61674120},{"NoteNumber":64,"Velocity":73,"Duration":221893,"SoundDuration":221893,"Delta":62090209},{"NoteNumber":68,"Velocity":87,"Duration":221893,"SoundDuration":221893,"Delta":62090209},{"NoteNumber":61,"Velocity":83,"Duration":221893,"SoundDuration":221893,"Delta":62090209},{"NoteNumber":64,"Velocity":81,"Duration":1283879,"SoundDuration":1283879,"Delta":62533996},{"NoteNumber":68,"Velocity":96,"Duration":1283879,"SoundDuration":1283879,"Delta":62533996},{"NoteNumber":59,"Velocity":67,"Duration":213980,"SoundDuration":213980,"Delta":62533996},{"NoteNumber":56,"Velocity":57,"Duration":213979,"SoundDuration":213979,"Delta":62747976},{"NoteNumber":52,"Velocity":62,"Duration":213980,"SoundDuration":213980,"Delta":62961956},{"NoteNumber":56,"Velocity":57,"Duration":213979,"SoundDuration":213979,"Delta":63175936},{"NoteNumber":47,"Velocity":70,"Duration":427959,"SoundDuration":427959,"Delta":63389916},{"NoteNumber":76,"Velocity":34,"Duration":221893,"SoundDuration":221893,"Delta":63817876},{"NoteNumber":68,"Velocity":28,"Duration":221893,"SoundDuration":221893,"Delta":63817876},{"NoteNumber":64,"Velocity":28,"Duration":221893,"SoundDuration":221893,"Delta":63817876},{"NoteNumber":59,"Velocity":26,"Duration":221893,"SoundDuration":221893,"Delta":63817876},{"NoteNumber":76,"Velocity":39,"Duration":1249719,"SoundDuration":1249719,"Delta":64261663},{"NoteNumber":66,"Velocity":33,"Duration":1249719,"SoundDuration":1249719,"Delta":64261663},{"NoteNumber":64,"Velocity":33,"Duration":1249719,"SoundDuration":1249719,"Delta":64261663},{"NoteNumber":58,"Velocity":33,"Duration":209497,"SoundDuration":209497,"Delta":64261663},{"NoteNumber":54,"Velocity":27,"Duration":208044,"SoundDuration":208044,"Delta":64471161},{"NoteNumber":49,"Velocity":33,"Duration":208044,"SoundDuration":208044,"Delta":64679205},{"NoteNumber":54,"Velocity":27,"Duration":208044,"SoundDuration":208044,"Delta":64887250},{"NoteNumber":46,"Velocity":36,"Duration":416088,"SoundDuration":416088,"Delta":65095294},{"NoteNumber":61,"Velocity":73,"Duration":221893,"SoundDuration":221893,"Delta":65511383},{"NoteNumber":64,"Velocity":87,"Duration":221893,"SoundDuration":221893,"Delta":65511383},{"NoteNumber":46,"Velocity":77,"Duration":221893,"SoundDuration":221893,"Delta":65511383},{"NoteNumber":59,"Velocity":81,"Duration":1283879,"SoundDuration":1283879,"Delta":65955170},{"NoteNumber":64,"Velocity":96,"Duration":1283879,"SoundDuration":1283879,"Delta":65955170},{"NoteNumber":44,"Velocity":67,"Duration":213980,"SoundDuration":213980,"Delta":65955170},{"NoteNumber":40,"Velocity":57,"Duration":213979,"SoundDuration":213979,"Delta":66169150},{"NoteNumber":35,"Velocity":62,"Duration":213980,"SoundDuration":213980,"Delta":66383130},{"NoteNumber":40,"Velocity":57,"Duration":213979,"SoundDuration":213979,"Delta":66597110},{"NoteNumber":32,"Velocity":70,"Duration":427959,"SoundDuration":427959,"Delta":66811090},{"NoteNumber":64,"Velocity":70,"Duration":221893,"SoundDuration":221893,"Delta":67239050},{"NoteNumber":76,"Velocity":85,"Duration":221893,"SoundDuration":221893,"Delta":67239050},{"NoteNumber":71,"Velocity":70,"Duration":221893,"SoundDuration":221893,"Delta":67239050},{"NoteNumber":32,"Velocity":60,"Duration":221893,"SoundDuration":221893,"Delta":67239050},{"NoteNumber":44,"Velocity":65,"Duration":221893,"SoundDuration":221893,"Delta":67239050},{"NoteNumber":64,"Velocity":66,"Duration":1249719,"SoundDuration":1249719,"Delta":67682837},{"NoteNumber":76,"Velocity":78,"Duration":1249719,"SoundDuration":1249719,"Delta":67682837},{"NoteNumber":73,"Velocity":66,"Duration":1249719,"SoundDuration":1249719,"Delta":67682837},{"NoteNumber":70,"Velocity":66,"Duration":1249719,"SoundDuration":1249719,"Delta":67682837},{"NoteNumber":30,"Velocity":78,"Duration":417541,"SoundDuration":417541,"Delta":67682837},{"NoteNumber":42,"Velocity":78,"Duration":417541,"SoundDuration":417541,"Delta":67682837},{"NoteNumber":66,"Velocity":33,"Duration":208044,"SoundDuration":208044,"Delta":68100379},{"NoteNumber":68,"Velocity":27,"Duration":208044,"SoundDuration":208044,"Delta":68308423},{"NoteNumber":66,"Velocity":33,"Duration":208044,"SoundDuration":208044,"Delta":68516468},{"NoteNumber":68,"Velocity":29,"Duration":208044,"SoundDuration":208044,"Delta":68724512},{"NoteNumber":66,"Velocity":33,"Duration":208044,"SoundDuration":208044,"Delta":68932557},{"NoteNumber":68,"Velocity":29,"Duration":228658,"SoundDuration":228658,"Delta":69140601},{"NoteNumber":76,"Velocity":53,"Duration":1239669,"SoundDuration":1239669,"Delta":69369260},{"NoteNumber":85,"Velocity":53,"Duration":1239669,"SoundDuration":1239669,"Delta":69369260},{"NoteNumber":66,"Velocity":32,"Duration":206611,"SoundDuration":206611,"Delta":69369260},{"NoteNumber":61,"Velocity":41,"Duration":1239669,"SoundDuration":1239669,"Delta":69369260},{"NoteNumber":58,"Velocity":34,"Duration":1239669,"SoundDuration":1239669,"Delta":69369260},{"NoteNumber":68,"Velocity":27,"Duration":206611,"SoundDuration":206611,"Delta":69575871},{"NoteNumber":66,"Velocity":31,"Duration":206611,"SoundDuration":206611,"Delta":69782483},{"NoteNumber":68,"Velocity":26,"Duration":206611,"SoundDuration":206611,"Delta":69989094},{"NoteNumber":66,"Velocity":32,"Duration":206611,"SoundDuration":206611,"Delta":70195706},{"NoteNumber":68,"Velocity":32,"Duration":206611,"SoundDuration":206611,"Delta":70402317},{"NoteNumber":75,"Velocity":57,"Duration":387931,"SoundDuration":387931,"Delta":70608929},{"NoteNumber":83,"Velocity":57,"Duration":387931,"SoundDuration":387931,"Delta":70608929},{"NoteNumber":66,"Velocity":33,"Duration":215517,"SoundDuration":215517,"Delta":70608929},{"NoteNumber":63,"Velocity":42,"Duration":387931,"SoundDuration":387931,"Delta":70608929},{"NoteNumber":59,"Velocity":35,"Duration":387931,"SoundDuration":387931,"Delta":70608929},{"NoteNumber":68,"Velocity":36,"Duration":215517,"SoundDuration":215517,"Delta":70824446},{"NoteNumber":83,"Velocity":62,"Duration":413223,"SoundDuration":413223,"Delta":71039963},{"NoteNumber":75,"Velocity":62,"Duration":413223,"SoundDuration":413223,"Delta":71039963},{"NoteNumber":66,"Velocity":37,"Duration":206611,"SoundDuration":206611,"Delta":71039963},{"NoteNumber":63,"Velocity":47,"Duration":413223,"SoundDuration":413223,"Delta":71039963},{"NoteNumber":59,"Velocity":39,"Duration":413223,"SoundDuration":413223,"Delta":71039963},{"NoteNumber":68,"Velocity":29,"Duration":206611,"SoundDuration":206611,"Delta":71246575},{"NoteNumber":73,"Velocity":48,"Duration":371900,"SoundDuration":371900,"Delta":71453186},{"NoteNumber":82,"Velocity":48,"Duration":371900,"SoundDuration":371900,"Delta":71453186},{"NoteNumber":66,"Velocity":32,"Duration":206611,"SoundDuration":206611,"Delta":71453186},{"NoteNumber":64,"Velocity":41,"Duration":371900,"SoundDuration":371900,"Delta":71453186},{"NoteNumber":61,"Velocity":34,"Duration":371900,"SoundDuration":371900,"Delta":71453186},{"NoteNumber":68,"Velocity":28,"Duration":206611,"SoundDuration":206611,"Delta":71659798},{"NoteNumber":82,"Velocity":47,"Duration":416088,"SoundDuration":416088,"Delta":71866409},{"NoteNumber":73,"Velocity":47,"Duration":416088,"SoundDuration":416088,"Delta":71866409},{"NoteNumber":61,"Velocity":28,"Duration":416088,"SoundDuration":416088,"Delta":71866409},{"NoteNumber":64,"Velocity":33,"Duration":416088,"SoundDuration":416088,"Delta":71866409},{"NoteNumber":66,"Velocity":26,"Duration":208044,"SoundDuration":208044,"Delta":71866409},{"NoteNumber":68,"Velocity":24,"Duration":208044,"SoundDuration":208044,"Delta":72074454},{"NoteNumber":75,"Velocity":39,"Duration":434153,"SoundDuration":434153,"Delta":72282498},{"NoteNumber":83,"Velocity":39,"Duration":434153,"SoundDuration":434153,"Delta":72282498},{"NoteNumber":59,"Velocity":28,"Duration":434153,"SoundDuration":434153,"Delta":72282498},{"NoteNumber":63,"Velocity":33,"Duration":434153,"SoundDuration":434153,"Delta":72282498},{"NoteNumber":66,"Velocity":26,"Duration":217076,"SoundDuration":217076,"Delta":72282498},{"NoteNumber":68,"Velocity":24,"Duration":217076,"SoundDuration":217076,"Delta":72499575},{"NoteNumber":76,"Velocity":53,"Duration":1248266,"SoundDuration":1248266,"Delta":72716652},{"NoteNumber":85,"Velocity":53,"Duration":1248266,"SoundDuration":1248266,"Delta":72716652},{"NoteNumber":66,"Velocity":32,"Duration":208044,"SoundDuration":208044,"Delta":72716652},{"NoteNumber":61,"Velocity":41,"Duration":1248266,"SoundDuration":1248266,"Delta":72716652},{"NoteNumber":58,"Velocity":34,"Duration":1248266,"SoundDuration":1248266,"Delta":72716652},{"NoteNumber":68,"Velocity":27,"Duration":208044,"SoundDuration":208044,"Delta":72924696},{"NoteNumber":66,"Velocity":31,"Duration":208044,"SoundDuration":208044,"Delta":73132741},{"NoteNumber":68,"Velocity":26,"Duration":208044,"SoundDuration":208044,"Delta":73340785},{"NoteNumber":66,"Velocity":32,"Duration":208044,"SoundDuration":208044,"Delta":73548830},{"NoteNumber":68,"Velocity":32,"Duration":208044,"SoundDuration":208044,"Delta":73756874},{"NoteNumber":75,"Velocity":57,"Duration":387931,"SoundDuration":387931,"Delta":73964919},{"NoteNumber":83,"Velocity":57,"Duration":387931,"SoundDuration":387931,"Delta":73964919},{"NoteNumber":66,"Velocity":33,"Duration":215517,"SoundDuration":215517,"Delta":73964919},{"NoteNumber":63,"Velocity":42,"Duration":387931,"SoundDuration":387931,"Delta":73964919},{"NoteNumber":59,"Velocity":35,"Duration":387931,"SoundDuration":387931,"Delta":73964919},{"NoteNumber":68,"Velocity":36,"Duration":215517,"SoundDuration":215517,"Delta":74180436},{"NoteNumber":82,"Velocity":62,"Duration":413223,"SoundDuration":413223,"Delta":74395953},{"NoteNumber":73,"Velocity":62,"Duration":413223,"SoundDuration":413223,"Delta":74395953},{"NoteNumber":66,"Velocity":37,"Duration":206611,"SoundDuration":206611,"Delta":74395953},{"NoteNumber":64,"Velocity":47,"Duration":413223,"SoundDuration":413223,"Delta":74395953},{"NoteNumber":61,"Velocity":39,"Duration":413223,"SoundDuration":413223,"Delta":74395953},{"NoteNumber":68,"Velocity":29,"Duration":206611,"SoundDuration":206611,"Delta":74602565},{"NoteNumber":85,"Velocity":48,"Duration":413223,"SoundDuration":413223,"Delta":74809176},{"NoteNumber":76,"Velocity":48,"Duration":413223,"SoundDuration":413223,"Delta":74809176},{"NoteNumber":66,"Velocity":32,"Duration":206611,"SoundDuration":206611,"Delta":74809176},{"NoteNumber":61,"Velocity":41,"Duration":371900,"SoundDuration":371900,"Delta":74809176},{"NoteNumber":58,"Velocity":34,"Duration":371900,"SoundDuration":371900,"Delta":74809176},{"NoteNumber":68,"Velocity":28,"Duration":206611,"SoundDuration":206611,"Delta":75015788},{"NoteNumber":83,"Velocity":47,"Duration":416088,"SoundDuration":416088,"Delta":75222399},{"NoteNumber":75,"Velocity":47,"Duration":416088,"SoundDuration":416088,"Delta":75222399},{"NoteNumber":59,"Velocity":28,"Duration":416088,"SoundDuration":416088,"Delta":75222399},{"NoteNumber":63,"Velocity":33,"Duration":416088,"SoundDuration":416088,"Delta":75222399},{"NoteNumber":66,"Velocity":26,"Duration":208044,"SoundDuration":208044,"Delta":75222399},{"NoteNumber":68,"Velocity":24,"Duration":208044,"SoundDuration":208044,"Delta":75430444},{"NoteNumber":73,"Velocity":39,"Duration":434153,"SoundDuration":434153,"Delta":75638488},{"NoteNumber":82,"Velocity":39,"Duration":434153,"SoundDuration":434153,"Delta":75638488},{"NoteNumber":61,"Velocity":28,"Duration":434153,"SoundDuration":434153,"Delta":75638488},{"NoteNumber":64,"Velocity":33,"Duration":434153,"SoundDuration":434153,"Delta":75638488},{"NoteNumber":66,"Velocity":26,"Duration":217076,"SoundDuration":217076,"Delta":75638488},{"NoteNumber":68,"Velocity":24,"Duration":217076,"SoundDuration":217076,"Delta":75855565},{"NoteNumber":83,"Velocity":39,"Duration":434153,"SoundDuration":434153,"Delta":76072642},{"NoteNumber":78,"Velocity":39,"Duration":434153,"SoundDuration":434153,"Delta":76072642},{"NoteNumber":63,"Velocity":28,"Duration":434153,"SoundDuration":434153,"Delta":76072642},{"NoteNumber":66,"Velocity":33,"Duration":217076,"SoundDuration":217076,"Delta":76072642},{"NoteNumber":71,"Velocity":27,"Duration":217076,"SoundDuration":217076,"Delta":76289719},{"NoteNumber":82,"Velocity":34,"Duration":416088,"SoundDuration":416088,"Delta":76506795},{"NoteNumber":66,"Velocity":31,"Duration":208044,"SoundDuration":208044,"Delta":76506795},{"NoteNumber":71,"Velocity":27,"Duration":208044,"SoundDuration":208044,"Delta":76714840},{"NoteNumber":80,"Velocity":39,"Duration":416088,"SoundDuration":416088,"Delta":76922884},{"NoteNumber":64,"Velocity":33,"Duration":208044,"SoundDuration":208044,"Delta":76922884},{"NoteNumber":71,"Velocity":26,"Duration":208044,"SoundDuration":208044,"Delta":77130929},{"NoteNumber":78,"Velocity":35,"Duration":441122,"SoundDuration":441122,"Delta":77338973},{"NoteNumber":63,"Velocity":30,"Duration":212464,"SoundDuration":212464,"Delta":77338973},{"NoteNumber":71,"Velocity":27,"Duration":228658,"SoundDuration":228658,"Delta":77551438},{"NoteNumber":80,"Velocity":39,"Duration":416088,"SoundDuration":416088,"Delta":77780096},{"NoteNumber":64,"Velocity":33,"Duration":208044,"SoundDuration":208044,"Delta":77780096},{"NoteNumber":71,"Velocity":26,"Duration":208044,"SoundDuration":208044,"Delta":77988141},{"NoteNumber":78,"Velocity":37,"Duration":416088,"SoundDuration":416088,"Delta":78196185},{"NoteNumber":66,"Velocity":31,"Duration":208044,"SoundDuration":208044,"Delta":78196185},{"NoteNumber":71,"Velocity":25,"Duration":208044,"SoundDuration":208044,"Delta":78404230},{"NoteNumber":76,"Velocity":39,"Duration":420508,"SoundDuration":420508,"Delta":78612274},{"NoteNumber":68,"Velocity":33,"Duration":208044,"SoundDuration":208044,"Delta":78612274},{"NoteNumber":71,"Velocity":25,"Duration":212464,"SoundDuration":212464,"Delta":78820319},{"NoteNumber":75,"Velocity":34,"Duration":420482,"SoundDuration":420482,"Delta":79032783},{"NoteNumber":65,"Velocity":30,"Duration":212464,"SoundDuration":212464,"Delta":79032783},{"NoteNumber":71,"Velocity":27,"Duration":226928,"SoundDuration":226928,"Delta":79245248},{"NoteNumber":75,"Velocity":39,"Duration":1262917,"SoundDuration":1262917,"Delta":79472177},{"NoteNumber":66,"Velocity":33,"Duration":1718820,"SoundDuration":1718820,"Delta":79472177},{"NoteNumber":68,"Velocity":27,"Duration":209497,"SoundDuration":209497,"Delta":79681674},{"NoteNumber":70,"Velocity":32,"Duration":209497,"SoundDuration":209497,"Delta":79891171},{"NoteNumber":71,"Velocity":26,"Duration":209497,"SoundDuration":209497,"Delta":80100669},{"NoteNumber":70,"Velocity":31,"Duration":212464,"SoundDuration":212464,"Delta":80310166},{"NoteNumber":71,"Velocity":27,"Duration":212464,"SoundDuration":212464,"Delta":80522630},{"NoteNumber":76,"Velocity":38,"Duration":221893,"SoundDuration":221893,"Delta":80735095},{"NoteNumber":73,"Velocity":29,"Duration":221893,"SoundDuration":221893,"Delta":80735095},{"NoteNumber":78,"Velocity":33,"Duration":234009,"SoundDuration":234009,"Delta":80956988},{"NoteNumber":75,"Velocity":27,"Duration":234009,"SoundDuration":234009,"Delta":80956988},{"NoteNumber":73,"Velocity":39,"Duration":434153,"SoundDuration":434153,"Delta":81190998},{"NoteNumber":70,"Velocity":33,"Duration":434153,"SoundDuration":434153,"Delta":81190998},{"NoteNumber":66,"Velocity":33,"Duration":434153,"SoundDuration":434153,"Delta":81190998},{"NoteNumber":78,"Velocity":39,"Duration":213526,"SoundDuration":213526,"Delta":81625151},{"NoteNumber":68,"Velocity":33,"Duration":213526,"SoundDuration":213526,"Delta":81625151},{"NoteNumber":80,"Velocity":34,"Duration":211754,"SoundDuration":211754,"Delta":81838678},{"NoteNumber":66,"Velocity":30,"Duration":211754,"SoundDuration":211754,"Delta":81838678},{"NoteNumber":78,"Velocity":39,"Duration":209534,"SoundDuration":209534,"Delta":82050433},{"NoteNumber":68,"Velocity":33,"Duration":209534,"SoundDuration":209534,"Delta":82050433},{"NoteNumber":80,"Velocity":35,"Duration":218659,"SoundDuration":218659,"Delta":82259967},{"NoteNumber":66,"Velocity":29,"Duration":218659,"SoundDuration":218659,"Delta":82259967},{"NoteNumber":78,"Velocity":39,"Duration":218659,"SoundDuration":218659,"Delta":82478626},{"NoteNumber":68,"Velocity":33,"Duration":218659,"SoundDuration":218659,"Delta":82478626},{"NoteNumber":80,"Velocity":35,"Duration":228658,"SoundDuration":228658,"Delta":82697285},{"NoteNumber":66,"Velocity":33,"Duration":228658,"SoundDuration":228658,"Delta":82697285},{"NoteNumber":85,"Velocity":53,"Duration":1239669,"SoundDuration":1239669,"Delta":82925944},{"NoteNumber":88,"Velocity":53,"Duration":1239669,"SoundDuration":1239669,"Delta":82925944},{"NoteNumber":78,"Velocity":39,"Duration":206611,"SoundDuration":206611,"Delta":82925944},{"NoteNumber":68,"Velocity":32,"Duration":206611,"SoundDuration":206611,"Delta":82925944},{"NoteNumber":61,"Velocity":41,"Duration":1239669,"SoundDuration":1239669,"Delta":82925944},{"NoteNumber":58,"Velocity":34,"Duration":1239669,"SoundDuration":1239669,"Delta":82925944},{"NoteNumber":80,"Velocity":35,"Duration":206611,"SoundDuration":206611,"Delta":83132555},{"NoteNumber":66,"Velocity":27,"Duration":206611,"SoundDuration":206611,"Delta":83132555},{"NoteNumber":78,"Velocity":39,"Duration":206611,"SoundDuration":206611,"Delta":83339167},{"NoteNumber":68,"Velocity":31,"Duration":206611,"SoundDuration":206611,"Delta":83339167},{"NoteNumber":80,"Velocity":35,"Duration":206611,"SoundDuration":206611,"Delta":83545778},{"NoteNumber":66,"Velocity":26,"Duration":206611,"SoundDuration":206611,"Delta":83545778},{"NoteNumber":78,"Velocity":39,"Duration":206611,"SoundDuration":206611,"Delta":83752390},{"NoteNumber":68,"Velocity":32,"Duration":206611,"SoundDuration":206611,"Delta":83752390},{"NoteNumber":80,"Velocity":37,"Duration":206611,"SoundDuration":206611,"Delta":83959001},{"NoteNumber":66,"Velocity":32,"Duration":206611,"SoundDuration":206611,"Delta":83959001},{"NoteNumber":87,"Velocity":57,"Duration":387931,"SoundDuration":387931,"Delta":84165613},{"NoteNumber":83,"Velocity":57,"Duration":387931,"SoundDuration":387931,"Delta":84165613},{"NoteNumber":78,"Velocity":43,"Duration":215517,"SoundDuration":215517,"Delta":84165613},{"NoteNumber":68,"Velocity":33,"Duration":215517,"SoundDuration":215517,"Delta":84165613},{"NoteNumber":63,"Velocity":42,"Duration":387931,"SoundDuration":387931,"Delta":84165613},{"NoteNumber":59,"Velocity":35,"Duration":387931,"SoundDuration":387931,"Delta":84165613},{"NoteNumber":80,"Velocity":41,"Duration":215517,"SoundDuration":215517,"Delta":84381130},{"NoteNumber":66,"Velocity":36,"Duration":215517,"SoundDuration":215517,"Delta":84381130},{"NoteNumber":87,"Velocity":62,"Duration":413223,"SoundDuration":413223,"Delta":84596647},{"NoteNumber":83,"Velocity":62,"Duration":413223,"SoundDuration":413223,"Delta":84596647},{"NoteNumber":78,"Velocity":48,"Duration":206611,"SoundDuration":206611,"Delta":84596647},{"NoteNumber":68,"Velocity":37,"Duration":206611,"SoundDuration":206611,"Delta":84596647},{"NoteNumber":63,"Velocity":47,"Duration":413223,"SoundDuration":413223,"Delta":84596647},{"NoteNumber":59,"Velocity":39,"Duration":413223,"SoundDuration":413223,"Delta":84596647},{"NoteNumber":80,"Velocity":42,"Duration":206611,"SoundDuration":206611,"Delta":84803259},{"NoteNumber":66,"Velocity":29,"Duration":206611,"SoundDuration":206611,"Delta":84803259},{"NoteNumber":82,"Velocity":48,"Duration":371900,"SoundDuration":371900,"Delta":85009870},{"NoteNumber":85,"Velocity":48,"Duration":371900,"SoundDuration":371900,"Delta":85009870},{"NoteNumber":78,"Velocity":46,"Duration":206611,"SoundDuration":206611,"Delta":85009870},{"NoteNumber":68,"Velocity":32,"Duration":206611,"SoundDuration":206611,"Delta":85009870},{"NoteNumber":64,"Velocity":41,"Duration":371900,"SoundDuration":371900,"Delta":85009870},{"NoteNumber":61,"Velocity":34,"Duration":371900,"SoundDuration":371900,"Delta":85009870},{"NoteNumber":80,"Velocity":40,"Duration":206611,"SoundDuration":206611,"Delta":85216482},{"NoteNumber":66,"Velocity":28,"Duration":206611,"SoundDuration":206611,"Delta":85216482},{"NoteNumber":85,"Velocity":47,"Duration":416088,"SoundDuration":416088,"Delta":85423093},{"NoteNumber":78,"Velocity":44,"Duration":208044,"SoundDuration":208044,"Delta":85423093},{"NoteNumber":82,"Velocity":47,"Duration":416088,"SoundDuration":416088,"Delta":85423093},{"NoteNumber":61,"Velocity":28,"Duration":416088,"SoundDuration":416088,"Delta":85423093},{"NoteNumber":64,"Velocity":33,"Duration":416088,"SoundDuration":416088,"Delta":85423093},{"NoteNumber":68,"Velocity":26,"Duration":208044,"SoundDuration":208044,"Delta":85423093},{"NoteNumber":80,"Velocity":38,"Duration":208044,"SoundDuration":208044,"Delta":85631138},{"NoteNumber":66,"Velocity":24,"Duration":208044,"SoundDuration":208044,"Delta":85631138},{"NoteNumber":87,"Velocity":39,"Duration":434153,"SoundDuration":434153,"Delta":85839182},{"NoteNumber":83,"Velocity":39,"Duration":434153,"SoundDuration":434153,"Delta":85839182},{"NoteNumber":78,"Velocity":41,"Duration":217076,"SoundDuration":217076,"Delta":85839182},{"NoteNumber":59,"Velocity":28,"Duration":434153,"SoundDuration":434153,"Delta":85839182},{"NoteNumber":63,"Velocity":33,"Duration":434153,"SoundDuration":434153,"Delta":85839182},{"NoteNumber":68,"Velocity":26,"Duration":217076,"SoundDuration":217076,"Delta":85839182},{"NoteNumber":80,"Velocity":36,"Duration":217076,"SoundDuration":217076,"Delta":86056259},{"NoteNumber":66,"Velocity":24,"Duration":217076,"SoundDuration":217076,"Delta":86056259},{"NoteNumber":88,"Velocity":53,"Duration":1242554,"SoundDuration":1242554,"Delta":86273336},{"NoteNumber":85,"Velocity":53,"Duration":1242554,"SoundDuration":1242554,"Delta":86273336},{"NoteNumber":78,"Velocity":39,"Duration":209497,"SoundDuration":209497,"Delta":86273336},{"NoteNumber":68,"Velocity":32,"Duration":209497,"SoundDuration":209497,"Delta":86273336},{"NoteNumber":61,"Velocity":41,"Duration":1242554,"SoundDuration":1242554,"Delta":86273336},{"NoteNumber":58,"Velocity":34,"Duration":1242554,"SoundDuration":1242554,"Delta":86273336},{"NoteNumber":80,"Velocity":36,"Duration":206611,"SoundDuration":206611,"Delta":86482833},{"NoteNumber":66,"Velocity":27,"Duration":206611,"SoundDuration":206611,"Delta":86482833},{"NoteNumber":78,"Velocity":41,"Duration":206611,"SoundDuration":206611,"Delta":86689444},{"NoteNumber":68,"Velocity":31,"Duration":206611,"SoundDuration":206611,"Delta":86689444},{"NoteNumber":80,"Velocity":38,"Duration":206611,"SoundDuration":206611,"Delta":86896056},{"NoteNumber":66,"Velocity":26,"Duration":206611,"SoundDuration":206611,"Delta":86896056},{"NoteNumber":78,"Velocity":43,"Duration":206611,"SoundDuration":206611,"Delta":87102667},{"NoteNumber":68,"Velocity":32,"Duration":206611,"SoundDuration":206611,"Delta":87102667},{"NoteNumber":80,"Velocity":40,"Duration":206611,"SoundDuration":206611,"Delta":87309279},{"NoteNumber":66,"Velocity":32,"Duration":206611,"SoundDuration":206611,"Delta":87309279},{"NoteNumber":78,"Velocity":46,"Duration":215517,"SoundDuration":215517,"Delta":87515890},{"NoteNumber":87,"Velocity":57,"Duration":387931,"SoundDuration":387931,"Delta":87515890},{"NoteNumber":83,"Velocity":57,"Duration":387931,"SoundDuration":387931,"Delta":87515890},{"NoteNumber":68,"Velocity":33,"Duration":215517,"SoundDuration":215517,"Delta":87515890},{"NoteNumber":63,"Velocity":42,"Duration":387931,"SoundDuration":387931,"Delta":87515890},{"NoteNumber":59,"Velocity":35,"Duration":387931,"SoundDuration":387931,"Delta":87515890},{"NoteNumber":80,"Velocity":42,"Duration":215517,"SoundDuration":215517,"Delta":87731408},{"NoteNumber":66,"Velocity":36,"Duration":215517,"SoundDuration":215517,"Delta":87731408},{"NoteNumber":85,"Velocity":62,"Duration":427959,"SoundDuration":427959,"Delta":87946925},{"NoteNumber":82,"Velocity":62,"Duration":213980,"SoundDuration":213980,"Delta":87946925},{"NoteNumber":64,"Velocity":32,"Duration":213980,"SoundDuration":213980,"Delta":87946925},{"NoteNumber":61,"Velocity":39,"Duration":427959,"SoundDuration":427959,"Delta":87946925},{"NoteNumber":78,"Velocity":36,"Duration":213979,"SoundDuration":213979,"Delta":88160905},{"NoteNumber":66,"Velocity":29,"Duration":213979,"SoundDuration":213979,"Delta":88160905},{"NoteNumber":92,"Velocity":48,"Duration":416088,"SoundDuration":416088,"Delta":88374885},{"NoteNumber":88,"Velocity":48,"Duration":208044,"SoundDuration":208044,"Delta":88374885},{"NoteNumber":58,"Velocity":41,"Duration":187240,"SoundDuration":187240,"Delta":88374885},{"NoteNumber":54,"Velocity":34,"Duration":187240,"SoundDuration":187240,"Delta":88374885},{"NoteNumber":78,"Velocity":36,"Duration":208044,"SoundDuration":208044,"Delta":88582929},{"NoteNumber":66,"Velocity":28,"Duration":208044,"SoundDuration":208044,"Delta":88582929},{"NoteNumber":90,"Velocity":47,"Duration":416088,"SoundDuration":416088,"Delta":88790974},{"NoteNumber":87,"Velocity":47,"Duration":208044,"SoundDuration":208044,"Delta":88790974},{"NoteNumber":56,"Velocity":28,"Duration":208044,"SoundDuration":208044,"Delta":88790974},{"NoteNumber":59,"Velocity":33,"Duration":208044,"SoundDuration":208044,"Delta":88790974},{"NoteNumber":78,"Velocity":36,"Duration":208044,"SoundDuration":208044,"Delta":88999018},{"NoteNumber":66,"Velocity":24,"Duration":208044,"SoundDuration":208044,"Delta":88999018},{"NoteNumber":85,"Velocity":39,"Duration":212464,"SoundDuration":212464,"Delta":89207063},{"NoteNumber":88,"Velocity":39,"Duration":424929,"SoundDuration":424929,"Delta":89207063},{"NoteNumber":58,"Velocity":28,"Duration":212464,"SoundDuration":212464,"Delta":89207063},{"NoteNumber":61,"Velocity":33,"Duration":212464,"SoundDuration":212464,"Delta":89207063},{"NoteNumber":78,"Velocity":36,"Duration":212464,"SoundDuration":212464,"Delta":89419527},{"NoteNumber":66,"Velocity":24,"Duration":212464,"SoundDuration":212464,"Delta":89419527},{"NoteNumber":87,"Velocity":62,"Duration":413222,"SoundDuration":413222,"Delta":89631992},{"NoteNumber":83,"Velocity":62,"Duration":206611,"SoundDuration":206611,"Delta":89631992},{"NoteNumber":63,"Velocity":32,"Duration":206611,"SoundDuration":206611,"Delta":89631992},{"NoteNumber":59,"Velocity":39,"Duration":206611,"SoundDuration":206611,"Delta":89631992},{"NoteNumber":78,"Velocity":35,"Duration":206611,"SoundDuration":206611,"Delta":89838603},{"NoteNumber":66,"Velocity":28,"Duration":206611,"SoundDuration":206611,"Delta":89838603},{"NoteNumber":90,"Velocity":47,"Duration":410396,"SoundDuration":410396,"Delta":90045215},{"NoteNumber":87,"Velocity":47,"Duration":205198,"SoundDuration":205198,"Delta":90045215},{"NoteNumber":59,"Velocity":40,"Duration":184678,"SoundDuration":184678,"Delta":90045215},{"NoteNumber":56,"Velocity":33,"Duration":184678,"SoundDuration":184678,"Delta":90045215},{"NoteNumber":78,"Velocity":34,"Duration":205198,"SoundDuration":205198,"Delta":90250413},{"NoteNumber":66,"Velocity":27,"Duration":205198,"SoundDuration":205198,"Delta":90250413},{"NoteNumber":88,"Velocity":45,"Duration":416088,"SoundDuration":416088,"Delta":90455611},{"NoteNumber":85,"Velocity":45,"Duration":208044,"SoundDuration":208044,"Delta":90455611},{"NoteNumber":58,"Velocity":26,"Duration":208044,"SoundDuration":208044,"Delta":90455611},{"NoteNumber":61,"Velocity":31,"Duration":208044,"SoundDuration":208044,"Delta":90455611},{"NoteNumber":78,"Velocity":34,"Duration":208044,"SoundDuration":208044,"Delta":90663656},{"NoteNumber":66,"Velocity":22,"Duration":208044,"SoundDuration":208044,"Delta":90663656},{"NoteNumber":83,"Velocity":36,"Duration":213980,"SoundDuration":213980,"Delta":90871700},{"NoteNumber":87,"Velocity":36,"Duration":424950,"SoundDuration":424950,"Delta":90871700},{"NoteNumber":59,"Velocity":26,"Duration":213980,"SoundDuration":213980,"Delta":90871700},{"NoteNumber":63,"Velocity":31,"Duration":213980,"SoundDuration":213980,"Delta":90871700},{"NoteNumber":78,"Velocity":33,"Duration":210970,"SoundDuration":210970,"Delta":91085680},{"NoteNumber":66,"Velocity":22,"Duration":210970,"SoundDuration":210970,"Delta":91085680},{"NoteNumber":85,"Velocity":57,"Duration":418994,"SoundDuration":418994,"Delta":91296651},{"NoteNumber":82,"Velocity":57,"Duration":209497,"SoundDuration":209497,"Delta":91296651},{"NoteNumber":64,"Velocity":29,"Duration":209497,"SoundDuration":209497,"Delta":91296651},{"NoteNumber":61,"Velocity":35,"Duration":209497,"SoundDuration":209497,"Delta":91296651},{"NoteNumber":78,"Velocity":32,"Duration":209497,"SoundDuration":209497,"Delta":91506148},{"NoteNumber":66,"Velocity":26,"Duration":209497,"SoundDuration":209497,"Delta":91506148},{"NoteNumber":88,"Velocity":43,"Duration":410396,"SoundDuration":410396,"Delta":91715645},{"NoteNumber":85,"Velocity":43,"Duration":205198,"SoundDuration":205198,"Delta":91715645},{"NoteNumber":61,"Velocity":36,"Duration":184678,"SoundDuration":184678,"Delta":91715645},{"NoteNumber":58,"Velocity":30,"Duration":184678,"SoundDuration":184678,"Delta":91715645},{"NoteNumber":78,"Velocity":32,"Duration":205198,"SoundDuration":205198,"Delta":91920844},{"NoteNumber":66,"Velocity":24,"Duration":205198,"SoundDuration":205198,"Delta":91920844},{"NoteNumber":87,"Velocity":41,"Duration":416088,"SoundDuration":416088,"Delta":92126042},{"NoteNumber":83,"Velocity":41,"Duration":208044,"SoundDuration":208044,"Delta":92126042},{"NoteNumber":59,"Velocity":24,"Duration":208044,"SoundDuration":208044,"Delta":92126042},{"NoteNumber":63,"Velocity":29,"Duration":208044,"SoundDuration":208044,"Delta":92126042},{"NoteNumber":78,"Velocity":31,"Duration":208044,"SoundDuration":208044,"Delta":92334086},{"NoteNumber":66,"Velocity":20,"Duration":208044,"SoundDuration":208044,"Delta":92334086},{"NoteNumber":82,"Velocity":33,"Duration":212464,"SoundDuration":212464,"Delta":92542131},{"NoteNumber":85,"Velocity":33,"Duration":424929,"SoundDuration":424929,"Delta":92542131},{"NoteNumber":61,"Velocity":24,"Duration":212464,"SoundDuration":212464,"Delta":92542131},{"NoteNumber":64,"Velocity":28,"Duration":212464,"SoundDuration":212464,"Delta":92542131},{"NoteNumber":78,"Velocity":30,"Duration":212464,"SoundDuration":212464,"Delta":92754595},{"NoteNumber":66,"Velocity":20,"Duration":212464,"SoundDuration":212464,"Delta":92754595},{"NoteNumber":83,"Velocity":52,"Duration":427959,"SoundDuration":427959,"Delta":92967060},{"NoteNumber":63,"Velocity":26,"Duration":213980,"SoundDuration":213980,"Delta":92967060},{"NoteNumber":78,"Velocity":29,"Duration":213979,"SoundDuration":213979,"Delta":93181040},{"NoteNumber":66,"Velocity":24,"Duration":213979,"SoundDuration":213979,"Delta":93181040},{"NoteNumber":81,"Velocity":39,"Duration":418994,"SoundDuration":418994,"Delta":93395020},{"NoteNumber":63,"Velocity":33,"Duration":188547,"SoundDuration":188547,"Delta":93395020},{"NoteNumber":72,"Velocity":29,"Duration":209497,"SoundDuration":209497,"Delta":93604517},{"NoteNumber":66,"Velocity":22,"Duration":209497,"SoundDuration":209497,"Delta":93604517},{"NoteNumber":80,"Velocity":37,"Duration":434153,"SoundDuration":434153,"Delta":93814014},{"NoteNumber":63,"Velocity":26,"Duration":217076,"SoundDuration":217076,"Delta":93814014},{"NoteNumber":72,"Velocity":28,"Duration":217076,"SoundDuration":217076,"Delta":94031091},{"NoteNumber":66,"Velocity":18,"Duration":217076,"SoundDuration":217076,"Delta":94031091},{"NoteNumber":80,"Velocity":30,"Duration":457317,"SoundDuration":457317,"Delta":94248168},{"NoteNumber":63,"Velocity":25,"Duration":228658,"SoundDuration":228658,"Delta":94248168},{"NoteNumber":72,"Velocity":27,"Duration":228658,"SoundDuration":228658,"Delta":94476826},{"NoteNumber":66,"Velocity":18,"Duration":228658,"SoundDuration":228658,"Delta":94476826},{"NoteNumber":80,"Velocity":39,"Duration":228658,"SoundDuration":228658,"Delta":94705485},{"NoteNumber":72,"Velocity":39,"Duration":228658,"SoundDuration":228658,"Delta":94705485},{"NoteNumber":63,"Velocity":24,"Duration":441122,"SoundDuration":441122,"Delta":94705485},{"NoteNumber":66,"Velocity":24,"Duration":441122,"SoundDuration":441122,"Delta":94705485},{"NoteNumber":68,"Velocity":33,"Duration":212464,"SoundDuration":212464,"Delta":94934143},{"NoteNumber":70,"Velocity":34,"Duration":212464,"SoundDuration":212464,"Delta":95146608},{"NoteNumber":72,"Velocity":37,"Duration":168918,"SoundDuration":168918,"Delta":95359072},{"NoteNumber":75,"Velocity":35,"Duration":56306,"SoundDuration":56306,"Delta":95527991},{"NoteNumber":73,"Velocity":39,"Duration":213980,"SoundDuration":213980,"Delta":95584298},{"NoteNumber":72,"Velocity":32,"Duration":213979,"SoundDuration":213979,"Delta":95798278},{"NoteNumber":56,"Velocity":27,"Duration":213979,"SoundDuration":213979,"Delta":95798278},{"NoteNumber":73,"Velocity":35,"Duration":213980,"SoundDuration":213980,"Delta":96012258},{"NoteNumber":58,"Velocity":29,"Duration":213980,"SoundDuration":213980,"Delta":96012258},{"NoteNumber":75,"Velocity":32,"Duration":232198,"SoundDuration":232198,"Delta":96226238},{"NoteNumber":60,"Velocity":27,"Duration":232198,"SoundDuration":232198,"Delta":96226238},{"NoteNumber":76,"Velocity":39,"Duration":217076,"SoundDuration":217076,"Delta":96458436},{"NoteNumber":61,"Velocity":33,"Duration":217076,"SoundDuration":217076,"Delta":96458436},{"NoteNumber":72,"Velocity":33,"Duration":217076,"SoundDuration":217076,"Delta":96675513},{"NoteNumber":56,"Velocity":28,"Duration":217076,"SoundDuration":217076,"Delta":96675513},{"NoteNumber":73,"Velocity":35,"Duration":217076,"SoundDuration":217076,"Delta":96892589},{"NoteNumber":58,"Velocity":29,"Duration":217076,"SoundDuration":217076,"Delta":96892589},{"NoteNumber":75,"Velocity":32,"Duration":170196,"SoundDuration":170196,"Delta":97109666},{"NoteNumber":60,"Velocity":27,"Duration":170196,"SoundDuration":170196,"Delta":97109666},{"NoteNumber":78,"Velocity":32,"Duration":56732,"SoundDuration":56732,"Delta":97279863},{"NoteNumber":63,"Velocity":27,"Duration":56732,"SoundDuration":56732,"Delta":97279863},{"NoteNumber":76,"Velocity":41,"Duration":210970,"SoundDuration":210970,"Delta":97336595},{"NoteNumber":61,"Velocity":34,"Duration":210970,"SoundDuration":210970,"Delta":97336595},{"NoteNumber":75,"Velocity":33,"Duration":210970,"SoundDuration":210970,"Delta":97547566},{"NoteNumber":60,"Velocity":28,"Duration":210970,"SoundDuration":210970,"Delta":97547566},{"NoteNumber":76,"Velocity":35,"Duration":220264,"SoundDuration":220264,"Delta":97758536},{"NoteNumber":61,"Velocity":29,"Duration":220264,"SoundDuration":220264,"Delta":97758536},{"NoteNumber":78,"Velocity":32,"Duration":220264,"SoundDuration":220264,"Delta":97978800},{"NoteNumber":63,"Velocity":27,"Duration":220264,"SoundDuration":220264,"Delta":97978800},{"NoteNumber":80,"Velocity":42,"Duration":210970,"SoundDuration":210970,"Delta":98199065},{"NoteNumber":64,"Velocity":35,"Duration":210970,"SoundDuration":210970,"Delta":98199065},{"NoteNumber":78,"Velocity":35,"Duration":210970,"SoundDuration":210970,"Delta":98410035},{"NoteNumber":63,"Velocity":29,"Duration":210970,"SoundDuration":210970,"Delta":98410035},{"NoteNumber":76,"Velocity":35,"Duration":210970,"SoundDuration":210970,"Delta":98621006},{"NoteNumber":64,"Velocity":29,"Duration":210970,"SoundDuration":210970,"Delta":98621006},{"NoteNumber":75,"Velocity":34,"Duration":221893,"SoundDuration":221893,"Delta":98831976},{"NoteNumber":66,"Velocity":28,"Duration":221893,"SoundDuration":221893,"Delta":98831976},{"NoteNumber":76,"Velocity":41,"Duration":212464,"SoundDuration":212464,"Delta":99053870},{"NoteNumber":68,"Velocity":34,"Duration":212464,"SoundDuration":212464,"Delta":99053870},{"NoteNumber":75,"Velocity":35,"Duration":212464,"SoundDuration":212464,"Delta":99266334},{"NoteNumber":66,"Velocity":29,"Duration":212464,"SoundDuration":212464,"Delta":99266334},{"NoteNumber":73,"Velocity":35,"Duration":212464,"SoundDuration":212464,"Delta":99478799},{"NoteNumber":64,"Velocity":29,"Duration":212464,"SoundDuration":212464,"Delta":99478799},{"NoteNumber":80,"Velocity":34,"Duration":232198,"SoundDuration":232198,"Delta":99691263},{"NoteNumber":65,"Velocity":28,"Duration":232198,"SoundDuration":232198,"Delta":99691263},{"NoteNumber":75,"Velocity":40,"Duration":217076,"SoundDuration":217076,"Delta":99923461},{"NoteNumber":66,"Velocity":34,"Duration":434153,"SoundDuration":434153,"Delta":99923461},{"NoteNumber":73,"Velocity":34,"Duration":217076,"SoundDuration":217076,"Delta":100140538},{"NoteNumber":71,"Velocity":35,"Duration":217076,"SoundDuration":217076,"Delta":100357615},{"NoteNumber":78,"Velocity":35,"Duration":217076,"SoundDuration":217076,"Delta":100574692},{"NoteNumber":73,"Velocity":40,"Duration":217076,"SoundDuration":217076,"Delta":100791768},{"NoteNumber":54,"Velocity":34,"Duration":434153,"SoundDuration":434153,"Delta":100791768},{"NoteNumber":71,"Velocity":33,"Duration":217076,"SoundDuration":217076,"Delta":101008845},{"NoteNumber":70,"Velocity":35,"Duration":228658,"SoundDuration":228658,"Delta":101225922},{"NoteNumber":78,"Velocity":33,"Duration":242932,"SoundDuration":242932,"Delta":101454580},{"NoteNumber":78,"Velocity":43,"Duration":1666051,"SoundDuration":1666051,"Delta":101719598},{"NoteNumber":75,"Velocity":43,"Duration":1666051,"SoundDuration":1666051,"Delta":101719598},{"NoteNumber":66,"Velocity":36,"Duration":1666051,"SoundDuration":1666051,"Delta":101719598},{"NoteNumber":47,"Velocity":32,"Duration":273597,"SoundDuration":273597,"Delta":101719598},{"NoteNumber":54,"Velocity":27,"Duration":273597,"SoundDuration":273597,"Delta":101993196},{"NoteNumber":51,"Velocity":27,"Duration":273597,"SoundDuration":273597,"Delta":102266793},{"NoteNumber":47,"Velocity":32,"Duration":273597,"SoundDuration":273597,"Delta":102540391},{"NoteNumber":59,"Velocity":27,"Duration":273597,"SoundDuration":273597,"Delta":102813989},{"NoteNumber":54,"Velocity":27,"Duration":298062,"SoundDuration":298062,"Delta":103087586},{"NoteNumber":64,"Velocity":28,"Duration":821358,"SoundDuration":821358,"Delta":103385649},{"NoteNumber":73,"Velocity":34,"Duration":821358,"SoundDuration":821358,"Delta":103385649},{"NoteNumber":76,"Velocity":34,"Duration":821358,"SoundDuration":821358,"Delta":103385649},{"NoteNumber":49,"Velocity":32,"Duration":276915,"SoundDuration":276915,"Delta":103385649},{"NoteNumber":58,"Velocity":27,"Duration":273460,"SoundDuration":273460,"Delta":103662564},{"NoteNumber":54,"Velocity":27,"Duration":270982,"SoundDuration":270982,"Delta":103936025},{"NoteNumber":63,"Velocity":25,"Duration":834858,"SoundDuration":834858,"Delta":104207007},{"NoteNumber":71,"Velocity":30,"Duration":834858,"SoundDuration":834858,"Delta":104207007},{"NoteNumber":75,"Velocity":30,"Duration":834858,"SoundDuration":834858,"Delta":104207007},{"NoteNumber":51,"Velocity":33,"Duration":268707,"SoundDuration":268707,"Delta":104207007},{"NoteNumber":59,"Velocity":27,"Duration":265851,"SoundDuration":265851,"Delta":104475715},{"NoteNumber":54,"Velocity":29,"Duration":300300,"SoundDuration":300300,"Delta":104741566},{"NoteNumber":68,"Velocity":39,"Duration":828661,"SoundDuration":828661,"Delta":105041866},{"NoteNumber":73,"Velocity":39,"Duration":828661,"SoundDuration":828661,"Delta":105041866},{"NoteNumber":52,"Velocity":32,"Duration":273597,"SoundDuration":273597,"Delta":105041866},{"NoteNumber":61,"Velocity":29,"Duration":273597,"SoundDuration":273597,"Delta":105315464},{"NoteNumber":56,"Velocity":29,"Duration":281465,"SoundDuration":281465,"Delta":105589062},{"NoteNumber":71,"Velocity":35,"Duration":1678672,"SoundDuration":1678672,"Delta":105870528},{"NoteNumber":68,"Velocity":29,"Duration":839336,"SoundDuration":839336,"Delta":105870528},{"NoteNumber":53,"Velocity":34,"Duration":271738,"SoundDuration":271738,"Delta":105870528},{"NoteNumber":63,"Velocity":31,"Duration":271739,"SoundDuration":271739,"Delta":106142267},{"NoteNumber":59,"Velocity":30,"Duration":295857,"SoundDuration":295857,"Delta":106414006},{"NoteNumber":66,"Velocity":33,"Duration":839336,"SoundDuration":839336,"Delta":106709864},{"NoteNumber":54,"Velocity":37,"Duration":271738,"SoundDuration":271738,"Delta":106709864},{"NoteNumber":63,"Velocity":32,"Duration":271739,"SoundDuration":271739,"Delta":106981603},{"NoteNumber":59,"Velocity":32,"Duration":295857,"SoundDuration":295857,"Delta":107253342},{"NoteNumber":70,"Velocity":44,"Duration":426487,"SoundDuration":426487,"Delta":107549200},{"NoteNumber":66,"Velocity":37,"Duration":879147,"SoundDuration":879147,"Delta":107549200},{"NoteNumber":52,"Velocity":42,"Duration":285840,"SoundDuration":285840,"Delta":107549200},{"NoteNumber":61,"Velocity":36,"Duration":281294,"SoundDuration":281294,"Delta":107835040},{"NoteNumber":78,"Velocity":43,"Duration":452659,"SoundDuration":452659,"Delta":107975687},{"NoteNumber":58,"Velocity":36,"Duration":312012,"SoundDuration":312012,"Delta":108116334},{"NoteNumber":66,"Velocity":57,"Duration":1641201,"SoundDuration":1641201,"Delta":108428347},{"NoteNumber":69,"Velocity":57,"Duration":1641201,"SoundDuration":1641201,"Delta":108428347},{"NoteNumber":78,"Velocity":67,"Duration":1641201,"SoundDuration":1641201,"Delta":108428347},{"NoteNumber":51,"Velocity":43,"Duration":217076,"SoundDuration":217076,"Delta":108428347},{"NoteNumber":59,"Velocity":36,"Duration":206611,"SoundDuration":206611,"Delta":108645423},{"NoteNumber":54,"Velocity":36,"Duration":206611,"SoundDuration":206611,"Delta":108852035},{"NoteNumber":51,"Velocity":34,"Duration":206611,"SoundDuration":206611,"Delta":109058646},{"NoteNumber":47,"Velocity":42,"Duration":201072,"SoundDuration":201072,"Delta":109265258},{"NoteNumber":54,"Velocity":37,"Duration":201072,"SoundDuration":201072,"Delta":109466330},{"NoteNumber":51,"Velocity":38,"Duration":201072,"SoundDuration":201072,"Delta":109667403},{"NoteNumber":47,"Velocity":35,"Duration":201072,"SoundDuration":201072,"Delta":109868475},{"NoteNumber":64,"Velocity":51,"Duration":798935,"SoundDuration":798935,"Delta":110069548},{"NoteNumber":69,"Velocity":51,"Duration":798935,"SoundDuration":798935,"Delta":110069548},{"NoteNumber":76,"Velocity":63,"Duration":798935,"SoundDuration":798935,"Delta":110069548},{"NoteNumber":49,"Velocity":50,"Duration":199733,"SoundDuration":199733,"Delta":110069548},{"NoteNumber":57,"Velocity":40,"Duration":199733,"SoundDuration":199733,"Delta":110269282},{"NoteNumber":52,"Velocity":40,"Duration":199733,"SoundDuration":199733,"Delta":110469015},{"NoteNumber":49,"Velocity":36,"Duration":199733,"SoundDuration":199733,"Delta":110668749},{"NoteNumber":63,"Velocity":52,"Duration":832923,"SoundDuration":832923,"Delta":110868483},{"NoteNumber":69,"Velocity":52,"Duration":832923,"SoundDuration":832923,"Delta":110868483},{"NoteNumber":75,"Velocity":64,"Duration":832923,"SoundDuration":832923,"Delta":110868483},{"NoteNumber":66,"Velocity":52,"Duration":832923,"SoundDuration":832923,"Delta":110868483},{"NoteNumber":51,"Velocity":48,"Duration":199733,"SoundDuration":199733,"Delta":110868483},{"NoteNumber":59,"Velocity":43,"Duration":199733,"SoundDuration":199733,"Delta":111068217},{"NoteNumber":54,"Velocity":43,"Duration":208230,"SoundDuration":208230,"Delta":111267950},{"NoteNumber":51,"Velocity":41,"Duration":225225,"SoundDuration":225225,"Delta":111476181},{"NoteNumber":69,"Velocity":68,"Duration":815541,"SoundDuration":815541,"Delta":111701407},{"NoteNumber":73,"Velocity":80,"Duration":815541,"SoundDuration":815541,"Delta":111701407},{"NoteNumber":52,"Velocity":61,"Duration":199733,"SoundDuration":199733,"Delta":111701407},{"NoteNumber":61,"Velocity":46,"Duration":199733,"SoundDuration":199733,"Delta":111901140},{"NoteNumber":57,"Velocity":45,"Duration":206577,"SoundDuration":206577,"Delta":112100874},{"NoteNumber":52,"Velocity":43,"Duration":209497,"SoundDuration":209497,"Delta":112307451},{"NoteNumber":66,"Velocity":68,"Duration":1664102,"SoundDuration":1664102,"Delta":112516949},{"NoteNumber":71,"Velocity":81,"Duration":1664102,"SoundDuration":1664102,"Delta":112516949},{"NoteNumber":63,"Velocity":68,"Duration":1664102,"SoundDuration":1664102,"Delta":112516949},{"NoteNumber":54,"Velocity":62,"Duration":201072,"SoundDuration":201072,"Delta":112516949},{"NoteNumber":59,"Velocity":47,"Duration":201072,"SoundDuration":201072,"Delta":112718021},{"NoteNumber":57,"Velocity":48,"Duration":208012,"SoundDuration":208012,"Delta":112919094},{"NoteNumber":54,"Velocity":46,"Duration":203402,"SoundDuration":203402,"Delta":113127106},{"NoteNumber":54,"Velocity":66,"Duration":201072,"SoundDuration":201072,"Delta":113349000},{"NoteNumber":59,"Velocity":50,"Duration":201072,"SoundDuration":201072,"Delta":113550072},{"NoteNumber":57,"Velocity":50,"Duration":208012,"SoundDuration":208012,"Delta":113751145},{"NoteNumber":54,"Velocity":48,"Duration":221893,"SoundDuration":221893,"Delta":113959158},{"NoteNumber":66,"Velocity":67,"Duration":835023,"SoundDuration":835023,"Delta":114181051},{"NoteNumber":69,"Velocity":80,"Duration":835023,"SoundDuration":835023,"Delta":114181051},{"NoteNumber":63,"Velocity":67,"Duration":835023,"SoundDuration":835023,"Delta":114181051},{"NoteNumber":48,"Velocity":60,"Duration":203804,"SoundDuration":203804,"Delta":114181051},{"NoteNumber":57,"Velocity":51,"Duration":203804,"SoundDuration":203804,"Delta":114384855},{"NoteNumber":54,"Velocity":51,"Duration":208755,"SoundDuration":208755,"Delta":114588660},{"NoteNumber":51,"Velocity":47,"Duration":218659,"SoundDuration":218659,"Delta":114797416},{"NoteNumber":69,"Velocity":82,"Duration":201072,"SoundDuration":201072,"Delta":115016075},{"NoteNumber":48,"Velocity":60,"Duration":201072,"SoundDuration":201072,"Delta":115016075},{"NoteNumber":75,"Velocity":75,"Duration":201072,"SoundDuration":201072,"Delta":115217147},{"NoteNumber":57,"Velocity":51,"Duration":201072,"SoundDuration":201072,"Delta":115217147},{"NoteNumber":78,"Velocity":80,"Duration":201072,"SoundDuration":201072,"Delta":115418220},{"NoteNumber":54,"Velocity":51,"Duration":201072,"SoundDuration":201072,"Delta":115418220},{"NoteNumber":75,"Velocity":77,"Duration":201072,"SoundDuration":201072,"Delta":115619292},{"NoteNumber":51,"Velocity":43,"Duration":201072,"SoundDuration":201072,"Delta":115619292},{"NoteNumber":81,"Velocity":68,"Duration":201072,"SoundDuration":201072,"Delta":115820365},{"NoteNumber":48,"Velocity":48,"Duration":201072,"SoundDuration":201072,"Delta":115820365},{"NoteNumber":87,"Velocity":59,"Duration":201072,"SoundDuration":201072,"Delta":116021437},{"NoteNumber":57,"Velocity":37,"Duration":201072,"SoundDuration":201072,"Delta":116021437},{"NoteNumber":90,"Velocity":50,"Duration":201072,"SoundDuration":201072,"Delta":116222510},{"NoteNumber":54,"Velocity":35,"Duration":201072,"SoundDuration":201072,"Delta":116222510},{"NoteNumber":87,"Velocity":41,"Duration":235849,"SoundDuration":235849,"Delta":116423582},{"NoteNumber":51,"Velocity":33,"Duration":235849,"SoundDuration":235849,"Delta":116423582},{"NoteNumber":93,"Velocity":54,"Duration":855919,"SoundDuration":855919,"Delta":116659431},{"NoteNumber":47,"Velocity":37,"Duration":213980,"SoundDuration":213980,"Delta":116659431},{"NoteNumber":57,"Velocity":26,"Duration":213979,"SoundDuration":213979,"Delta":116873411},{"NoteNumber":54,"Velocity":30,"Duration":213980,"SoundDuration":213980,"Delta":117087391},{"NoteNumber":51,"Velocity":26,"Duration":213979,"SoundDuration":213979,"Delta":117301371},{"NoteNumber":47,"Velocity":31,"Duration":223428,"SoundDuration":223428,"Delta":117515351},{"NoteNumber":63,"Velocity":39,"Duration":227635,"SoundDuration":227635,"Delta":117738780},{"NoteNumber":57,"Velocity":26,"Duration":227635,"SoundDuration":227635,"Delta":117738780},{"NoteNumber":64,"Velocity":39,"Duration":233466,"SoundDuration":233466,"Delta":117966415},{"NoteNumber":56,"Velocity":26,"Duration":233466,"SoundDuration":233466,"Delta":117966415},{"NoteNumber":66,"Velocity":41,"Duration":258175,"SoundDuration":258175,"Delta":118199881},{"NoteNumber":54,"Velocity":26,"Duration":258175,"SoundDuration":258175,"Delta":118199881},{"NoteNumber":64,"Velocity":34,"Duration":223546,"SoundDuration":223546,"Delta":118458057},{"NoteNumber":68,"Velocity":50,"Duration":894187,"SoundDuration":894187,"Delta":118458057},{"NoteNumber":40,"Velocity":25,"Duration":447094,"SoundDuration":447094,"Delta":118458057},{"NoteNumber":52,"Velocity":30,"Duration":447094,"SoundDuration":447094,"Delta":118458057},{"NoteNumber":59,"Velocity":26,"Duration":223547,"SoundDuration":223547,"Delta":118681604},{"NoteNumber":64,"Velocity":31,"Duration":223546,"SoundDuration":223546,"Delta":118905151},{"NoteNumber":59,"Velocity":26,"Duration":223546,"SoundDuration":223546,"Delta":119128698},{"NoteNumber":68,"Velocity":30,"Duration":217076,"SoundDuration":217076,"Delta":119352245},{"NoteNumber":71,"Velocity":46,"Duration":435735,"SoundDuration":435735,"Delta":119352245},{"NoteNumber":59,"Velocity":27,"Duration":218659,"SoundDuration":218659,"Delta":119569322},{"NoteNumber":66,"Velocity":28,"Duration":220264,"SoundDuration":220264,"Delta":119787981},{"NoteNumber":69,"Velocity":43,"Duration":440528,"SoundDuration":440528,"Delta":119787981},{"NoteNumber":59,"Velocity":27,"Duration":220264,"SoundDuration":220264,"Delta":120008245},{"NoteNumber":64,"Velocity":34,"Duration":217076,"SoundDuration":217076,"Delta":120228509},{"NoteNumber":68,"Velocity":50,"Duration":434153,"SoundDuration":434153,"Delta":120228509},{"NoteNumber":35,"Velocity":25,"Duration":434153,"SoundDuration":434153,"Delta":120228509},{"NoteNumber":47,"Velocity":30,"Duration":434153,"SoundDuration":434153,"Delta":120228509},{"NoteNumber":59,"Velocity":26,"Duration":217076,"SoundDuration":217076,"Delta":120445586},{"NoteNumber":63,"Velocity":27,"Duration":212464,"SoundDuration":212464,"Delta":120662663},{"NoteNumber":66,"Velocity":41,"Duration":371812,"SoundDuration":371812,"Delta":120662663},{"NoteNumber":59,"Velocity":25,"Duration":159348,"SoundDuration":159348,"Delta":120875127},{"NoteNumber":63,"Velocity":27,"Duration":212464,"SoundDuration":212464,"Delta":121087592},{"NoteNumber":66,"Velocity":41,"Duration":424928,"SoundDuration":424928,"Delta":121087592},{"NoteNumber":59,"Velocity":26,"Duration":212464,"SoundDuration":212464,"Delta":121300056},{"NoteNumber":64,"Velocity":28,"Duration":208044,"SoundDuration":208044,"Delta":121512521},{"NoteNumber":68,"Velocity":43,"Duration":416088,"SoundDuration":416088,"Delta":121512521},{"NoteNumber":59,"Velocity":28,"Duration":208044,"SoundDuration":208044,"Delta":121720565},{"NoteNumber":64,"Velocity":30,"Duration":212464,"SoundDuration":212464,"Delta":121928610},{"NoteNumber":69,"Velocity":46,"Duration":424929,"SoundDuration":424929,"Delta":121928610},{"NoteNumber":37,"Velocity":25,"Duration":424929,"SoundDuration":424929,"Delta":121928610},{"NoteNumber":49,"Velocity":30,"Duration":424929,"SoundDuration":424929,"Delta":121928610},{"NoteNumber":59,"Velocity":28,"Duration":212464,"SoundDuration":212464,"Delta":122141074},{"NoteNumber":64,"Velocity":36,"Duration":212464,"SoundDuration":212464,"Delta":122353539},{"NoteNumber":73,"Velocity":54,"Duration":424928,"SoundDuration":424928,"Delta":122353539},{"NoteNumber":59,"Velocity":31,"Duration":212464,"SoundDuration":212464,"Delta":122566003},{"NoteNumber":66,"Velocity":37,"Duration":212464,"SoundDuration":212464,"Delta":122778468},{"NoteNumber":71,"Velocity":47,"Duration":424929,"SoundDuration":424929,"Delta":122778468},{"NoteNumber":51,"Velocity":28,"Duration":424929,"SoundDuration":424929,"Delta":122778468},{"NoteNumber":39,"Velocity":23,"Duration":424929,"SoundDuration":424929,"Delta":122778468},{"NoteNumber":59,"Velocity":26,"Duration":212464,"SoundDuration":212464,"Delta":122990932},{"NoteNumber":63,"Velocity":25,"Duration":217076,"SoundDuration":217076,"Delta":123203397},{"NoteNumber":66,"Velocity":38,"Duration":468754,"SoundDuration":468754,"Delta":123203397},{"NoteNumber":47,"Velocity":26,"Duration":468754,"SoundDuration":468754,"Delta":123203397},{"NoteNumber":35,"Velocity":22,"Duration":468754,"SoundDuration":468754,"Delta":123203397},{"NoteNumber":59,"Velocity":27,"Duration":251677,"SoundDuration":251677,"Delta":123420473},{"NoteNumber":59,"Velocity":35,"Duration":637393,"SoundDuration":637393,"Delta":123672151},{"NoteNumber":64,"Velocity":35,"Duration":849857,"SoundDuration":849857,"Delta":123672151},{"NoteNumber":68,"Velocity":42,"Duration":849857,"SoundDuration":849857,"Delta":123672151},{"NoteNumber":40,"Velocity":28,"Duration":212464,"SoundDuration":212464,"Delta":123672151},{"NoteNumber":52,"Velocity":28,"Duration":212464,"SoundDuration":212464,"Delta":123672151},{"NoteNumber":56,"Velocity":25,"Duration":212464,"SoundDuration":212464,"Delta":123884616},{"NoteNumber":59,"Velocity":28,"Duration":424928,"SoundDuration":424928,"Delta":124097080},{"NoteNumber":57,"Velocity":26,"Duration":212464,"SoundDuration":212464,"Delta":124309545},{"NoteNumber":56,"Velocity":28,"Duration":212464,"SoundDuration":212464,"Delta":124522009},{"NoteNumber":57,"Velocity":25,"Duration":212464,"SoundDuration":212464,"Delta":124734474},{"NoteNumber":76,"Velocity":47,"Duration":212464,"SoundDuration":212464,"Delta":124946938},{"NoteNumber":56,"Velocity":30,"Duration":212464,"SoundDuration":212464,"Delta":124946938},{"NoteNumber":78,"Velocity":42,"Duration":230414,"SoundDuration":230414,"Delta":125159403},{"NoteNumber":54,"Velocity":27,"Duration":230414,"SoundDuration":230414,"Delta":125159403},{"NoteNumber":68,"Velocity":55,"Duration":849857,"SoundDuration":849857,"Delta":125389817},{"NoteNumber":80,"Velocity":55,"Duration":849857,"SoundDuration":849857,"Delta":125389817},{"NoteNumber":52,"Velocity":37,"Duration":212464,"SoundDuration":212464,"Delta":125389817},{"NoteNumber":59,"Velocity":28,"Duration":212464,"SoundDuration":212464,"Delta":125602282},{"NoteNumber":47,"Velocity":34,"Duration":212464,"SoundDuration":212464,"Delta":125814746},{"NoteNumber":59,"Velocity":28,"Duration":212464,"SoundDuration":212464,"Delta":126027211},{"NoteNumber":71,"Velocity":50,"Duration":418994,"SoundDuration":418994,"Delta":126239675},{"NoteNumber":83,"Velocity":50,"Duration":418994,"SoundDuration":418994,"Delta":126239675},{"NoteNumber":52,"Velocity":33,"Duration":209497,"SoundDuration":209497,"Delta":126239675},{"NoteNumber":59,"Velocity":29,"Duration":209497,"SoundDuration":209497,"Delta":126449173},{"NoteNumber":69,"Velocity":47,"Duration":434244,"SoundDuration":434244,"Delta":126658670},{"NoteNumber":81,"Velocity":47,"Duration":434244,"SoundDuration":434244,"Delta":126658670},{"NoteNumber":47,"Velocity":30,"Duration":213979,"SoundDuration":213979,"Delta":126658670},{"NoteNumber":59,"Velocity":29,"Duration":220264,"SoundDuration":220264,"Delta":126872650},{"NoteNumber":68,"Velocity":55,"Duration":434153,"SoundDuration":434153,"Delta":127092914},{"NoteNumber":80,"Velocity":55,"Duration":434153,"SoundDuration":434153,"Delta":127092914},{"NoteNumber":51,"Velocity":37,"Duration":217076,"SoundDuration":217076,"Delta":127092914},{"NoteNumber":59,"Velocity":28,"Duration":217076,"SoundDuration":217076,"Delta":127309991},{"NoteNumber":66,"Velocity":45,"Duration":371812,"SoundDuration":371812,"Delta":127527068},{"NoteNumber":78,"Velocity":45,"Duration":371812,"SoundDuration":371812,"Delta":127527068},{"NoteNumber":47,"Velocity":29,"Duration":212464,"SoundDuration":212464,"Delta":127527068},{"NoteNumber":59,"Velocity":27,"Duration":159348,"SoundDuration":159348,"Delta":127739532},{"NoteNumber":66,"Velocity":45,"Duration":424929,"SoundDuration":424929,"Delta":127951997},{"NoteNumber":78,"Velocity":45,"Duration":424929,"SoundDuration":424929,"Delta":127951997},{"NoteNumber":51,"Velocity":29,"Duration":212464,"SoundDuration":212464,"Delta":127951997},{"NoteNumber":59,"Velocity":28,"Duration":212464,"SoundDuration":212464,"Delta":128164461},{"NoteNumber":68,"Velocity":49,"Duration":416088,"SoundDuration":416088,"Delta":128376926},{"NoteNumber":80,"Velocity":49,"Duration":416088,"SoundDuration":416088,"Delta":128376926},{"NoteNumber":53,"Velocity":31,"Duration":208044,"SoundDuration":208044,"Delta":128376926},{"NoteNumber":59,"Velocity":33,"Duration":208044,"SoundDuration":208044,"Delta":128584970},{"NoteNumber":69,"Velocity":47,"Duration":424928,"SoundDuration":424928,"Delta":128793015},{"NoteNumber":81,"Velocity":56,"Duration":424928,"SoundDuration":424928,"Delta":128793015},{"NoteNumber":54,"Velocity":36,"Duration":212464,"SoundDuration":212464,"Delta":128793015},{"NoteNumber":59,"Velocity":36,"Duration":212464,"SoundDuration":212464,"Delta":129005479},{"NoteNumber":73,"Velocity":51,"Duration":424929,"SoundDuration":424929,"Delta":129217944},{"NoteNumber":85,"Velocity":61,"Duration":424929,"SoundDuration":424929,"Delta":129217944},{"NoteNumber":57,"Velocity":41,"Duration":212464,"SoundDuration":212464,"Delta":129217944},{"NoteNumber":59,"Velocity":37,"Duration":212464,"SoundDuration":212464,"Delta":129430408},{"NoteNumber":71,"Velocity":47,"Duration":424928,"SoundDuration":424928,"Delta":129642873},{"NoteNumber":83,"Velocity":57,"Duration":424928,"SoundDuration":424928,"Delta":129642873},{"NoteNumber":56,"Velocity":38,"Duration":212464,"SoundDuration":212464,"Delta":129642873},{"NoteNumber":59,"Velocity":32,"Duration":212464,"SoundDuration":212464,"Delta":129855337},{"NoteNumber":87,"Velocity":49,"Duration":468754,"SoundDuration":468754,"Delta":130067802},{"NoteNumber":75,"Velocity":32,"Duration":468754,"SoundDuration":468754,"Delta":130067802},{"NoteNumber":47,"Velocity":25,"Duration":217076,"SoundDuration":217076,"Delta":130067802},{"NoteNumber":54,"Velocity":25,"Duration":217076,"SoundDuration":217076,"Delta":130067802},{"NoteNumber":57,"Velocity":27,"Duration":251677,"SoundDuration":251677,"Delta":130284878},{"NoteNumber":88,"Velocity":57,"Duration":849858,"SoundDuration":849858,"Delta":130536556},{"NoteNumber":76,"Velocity":35,"Duration":849858,"SoundDuration":849858,"Delta":130536556},{"NoteNumber":52,"Velocity":31,"Duration":212464,"SoundDuration":212464,"Delta":130536556},{"NoteNumber":56,"Velocity":31,"Duration":212464,"SoundDuration":212464,"Delta":130536556},{"NoteNumber":59,"Velocity":23,"Duration":212464,"SoundDuration":212464,"Delta":130749021},{"NoteNumber":56,"Velocity":31,"Duration":212464,"SoundDuration":212464,"Delta":130961485},{"NoteNumber":52,"Velocity":25,"Duration":212464,"SoundDuration":212464,"Delta":131173950},{"NoteNumber":51,"Velocity":31,"Duration":208044,"SoundDuration":208044,"Delta":131386414},{"NoteNumber":59,"Velocity":27,"Duration":208044,"SoundDuration":208044,"Delta":131594459},{"NoteNumber":71,"Velocity":47,"Duration":434973,"SoundDuration":434973,"Delta":131802503},{"NoteNumber":54,"Velocity":31,"Duration":208044,"SoundDuration":208044,"Delta":131802503},{"NoteNumber":51,"Velocity":32,"Duration":226929,"SoundDuration":226929,"Delta":132010548},{"NoteNumber":70,"Velocity":51,"Duration":849858,"SoundDuration":849858,"Delta":132237477},{"NoteNumber":49,"Velocity":38,"Duration":212464,"SoundDuration":212464,"Delta":132237477},{"NoteNumber":58,"Velocity":29,"Duration":212464,"SoundDuration":212464,"Delta":132449941},{"NoteNumber":54,"Velocity":31,"Duration":212464,"SoundDuration":212464,"Delta":132662406},{"NoteNumber":49,"Velocity":27,"Duration":212464,"SoundDuration":212464,"Delta":132874870},{"NoteNumber":76,"Velocity":56,"Duration":862618,"SoundDuration":862618,"Delta":133087335},{"NoteNumber":42,"Velocity":31,"Duration":212464,"SoundDuration":212464,"Delta":133087335},{"NoteNumber":58,"Velocity":26,"Duration":212464,"SoundDuration":212464,"Delta":133299799},{"NoteNumber":54,"Velocity":29,"Duration":212464,"SoundDuration":212464,"Delta":133512264},{"NoteNumber":49,"Velocity":27,"Duration":225225,"SoundDuration":225225,"Delta":133724728},{"NoteNumber":75,"Velocity":51,"Duration":1283880,"SoundDuration":1283880,"Delta":133949953},{"NoteNumber":47,"Velocity":31,"Duration":213979,"SoundDuration":213979,"Delta":133949953},{"NoteNumber":59,"Velocity":25,"Duration":213980,"SoundDuration":213980,"Delta":134163933},{"NoteNumber":54,"Velocity":30,"Duration":213979,"SoundDuration":213979,"Delta":134377913},{"NoteNumber":51,"Velocity":27,"Duration":213979,"SoundDuration":213979,"Delta":134591893},{"NoteNumber":47,"Velocity":37,"Duration":213979,"SoundDuration":213979,"Delta":134805873},{"NoteNumber":59,"Velocity":30,"Duration":213980,"SoundDuration":213980,"Delta":135019853},{"NoteNumber":69,"Velocity":45,"Duration":437526,"SoundDuration":437526,"Delta":135233833},{"NoteNumber":49,"Velocity":37,"Duration":213979,"SoundDuration":213979,"Delta":135233833},{"NoteNumber":57,"Velocity":33,"Duration":223546,"SoundDuration":223546,"Delta":135447813},{"NoteNumber":68,"Velocity":51,"Duration":855919,"SoundDuration":855919,"Delta":135671360},{"NoteNumber":47,"Velocity":31,"Duration":213979,"SoundDuration":213979,"Delta":135671360},{"NoteNumber":56,"Velocity":32,"Duration":213980,"SoundDuration":213980,"Delta":135885340},{"NoteNumber":52,"Velocity":38,"Duration":213979,"SoundDuration":213979,"Delta":136099320},{"NoteNumber":47,"Velocity":33,"Duration":213979,"SoundDuration":213979,"Delta":136313300},{"NoteNumber":74,"Velocity":54,"Duration":875949,"SoundDuration":875949,"Delta":136527280},{"NoteNumber":40,"Velocity":45,"Duration":213979,"SoundDuration":213979,"Delta":136527280},{"NoteNumber":56,"Velocity":32,"Duration":213980,"SoundDuration":213980,"Delta":136741260},{"NoteNumber":52,"Velocity":36,"Duration":213979,"SoundDuration":213979,"Delta":136955240},{"NoteNumber":47,"Velocity":29,"Duration":234009,"SoundDuration":234009,"Delta":137169220},{"NoteNumber":73,"Velocity":51,"Duration":1279397,"SoundDuration":1279397,"Delta":137403230},{"NoteNumber":45,"Velocity":35,"Duration":213979,"SoundDuration":213979,"Delta":137403230},{"NoteNumber":57,"Velocity":27,"Duration":213980,"SoundDuration":213980,"Delta":137617210},{"NoteNumber":52,"Velocity":31,"Duration":213979,"SoundDuration":213979,"Delta":137831190},{"NoteNumber":49,"Velocity":27,"Duration":213979,"SoundDuration":213979,"Delta":138045170},{"NoteNumber":45,"Velocity":31,"Duration":213979,"SoundDuration":213979,"Delta":138259150},{"NoteNumber":52,"Velocity":29,"Duration":209497,"SoundDuration":209497,"Delta":138473130},{"NoteNumber":73,"Velocity":48,"Duration":418994,"SoundDuration":418994,"Delta":138682627},{"NoteNumber":45,"Velocity":34,"Duration":209497,"SoundDuration":209497,"Delta":138682627},{"NoteNumber":52,"Velocity":38,"Duration":209497,"SoundDuration":209497,"Delta":138892124},{"NoteNumber":72,"Velocity":57,"Duration":407608,"SoundDuration":407608,"Delta":139101621},{"NoteNumber":45,"Velocity":39,"Duration":203804,"SoundDuration":203804,"Delta":139101621},{"NoteNumber":52,"Velocity":35,"Duration":203804,"SoundDuration":203804,"Delta":139305426},{"NoteNumber":73,"Velocity":58,"Duration":407608,"SoundDuration":407608,"Delta":139509230},{"NoteNumber":45,"Velocity":38,"Duration":203804,"SoundDuration":203804,"Delta":139509230},{"NoteNumber":52,"Velocity":35,"Duration":203804,"SoundDuration":203804,"Delta":139713034},{"NoteNumber":69,"Velocity":55,"Duration":312066,"SoundDuration":312066,"Delta":139916838},{"NoteNumber":64,"Velocity":46,"Duration":312066,"SoundDuration":312066,"Delta":139916838},{"NoteNumber":61,"Velocity":46,"Duration":312066,"SoundDuration":312066,"Delta":139916838},{"NoteNumber":45,"Velocity":44,"Duration":208044,"SoundDuration":208044,"Delta":139916838},{"NoteNumber":52,"Velocity":36,"Duration":208044,"SoundDuration":208044,"Delta":140124883},{"NoteNumber":68,"Velocity":55,"Duration":325049,"SoundDuration":325049,"Delta":140332927},{"NoteNumber":64,"Velocity":46,"Duration":325049,"SoundDuration":325049,"Delta":140332927},{"NoteNumber":59,"Velocity":46,"Duration":325049,"SoundDuration":325049,"Delta":140332927},{"NoteNumber":47,"Velocity":44,"Duration":208044,"SoundDuration":208044,"Delta":140332927},{"NoteNumber":52,"Velocity":37,"Duration":234009,"SoundDuration":234009,"Delta":140540972},{"NoteNumber":68,"Velocity":76,"Duration":427960,"SoundDuration":427960,"Delta":140774981},{"NoteNumber":64,"Velocity":64,"Duration":868869,"SoundDuration":868869,"Delta":140774981},{"NoteNumber":58,"Velocity":64,"Duration":868869,"SoundDuration":868869,"Delta":140774981},{"NoteNumber":49,"Velocity":55,"Duration":213979,"SoundDuration":213979,"Delta":140774981},{"NoteNumber":52,"Velocity":48,"Duration":213980,"SoundDuration":213980,"Delta":140988961},{"NoteNumber":66,"Velocity":62,"Duration":868869,"SoundDuration":868869,"Delta":141202941},{"NoteNumber":49,"Velocity":54,"Duration":213979,"SoundDuration":213979,"Delta":141202941},{"NoteNumber":52,"Velocity":43,"Duration":226929,"SoundDuration":226929,"Delta":141416921},{"NoteNumber":64,"Velocity":63,"Duration":883486,"SoundDuration":883486,"Delta":141643850},{"NoteNumber":57,"Velocity":63,"Duration":883486,"SoundDuration":883486,"Delta":141643850},{"NoteNumber":48,"Velocity":50,"Duration":213979,"SoundDuration":213979,"Delta":141643850},{"NoteNumber":52,"Velocity":39,"Duration":213980,"SoundDuration":213980,"Delta":141857830},{"NoteNumber":66,"Velocity":67,"Duration":455525,"SoundDuration":455525,"Delta":142071810},{"NoteNumber":48,"Velocity":49,"Duration":213979,"SoundDuration":213979,"Delta":142071810},{"NoteNumber":52,"Velocity":39,"Duration":241545,"SoundDuration":241545,"Delta":142285790},{"NoteNumber":66,"Velocity":49,"Duration":431034,"SoundDuration":431034,"Delta":142527336},{"NoteNumber":63,"Velocity":41,"Duration":431034,"SoundDuration":431034,"Delta":142527336},{"NoteNumber":57,"Velocity":41,"Duration":431034,"SoundDuration":431034,"Delta":142527336},{"NoteNumber":47,"Velocity":31,"Duration":215517,"SoundDuration":215517,"Delta":142527336},{"NoteNumber":54,"Velocity":27,"Duration":215517,"SoundDuration":215517,"Delta":142742853},{"NoteNumber":71,"Velocity":38,"Duration":431034,"SoundDuration":431034,"Delta":142958371},{"NoteNumber":63,"Velocity":32,"Duration":878128,"SoundDuration":878128,"Delta":142958371},{"NoteNumber":47,"Velocity":31,"Duration":215517,"SoundDuration":215517,"Delta":142958371},{"NoteNumber":54,"Velocity":29,"Duration":215517,"SoundDuration":215517,"Delta":143173888},{"NoteNumber":57,"Velocity":29,"Duration":215517,"SoundDuration":215517,"Delta":143173888},{"NoteNumber":70,"Velocity":46,"Duration":447093,"SoundDuration":447093,"Delta":143389405},{"NoteNumber":47,"Velocity":31,"Duration":223546,"SoundDuration":223546,"Delta":143389405},{"NoteNumber":54,"Velocity":27,"Duration":223546,"SoundDuration":223546,"Delta":143612952},{"NoteNumber":57,"Velocity":27,"Duration":223546,"SoundDuration":223546,"Delta":143612952},{"NoteNumber":71,"Velocity":40,"Duration":473130,"SoundDuration":473130,"Delta":143836499},{"NoteNumber":63,"Velocity":34,"Duration":473130,"SoundDuration":473130,"Delta":143836499},{"NoteNumber":47,"Velocity":31,"Duration":223546,"SoundDuration":223546,"Delta":143836499},{"NoteNumber":57,"Velocity":28,"Duration":249583,"SoundDuration":249583,"Delta":144060046},{"NoteNumber":54,"Velocity":28,"Duration":249583,"SoundDuration":249583,"Delta":144060046},{"NoteNumber":64,"Velocity":51,"Duration":849858,"SoundDuration":849858,"Delta":144309630},{"NoteNumber":52,"Velocity":31,"Duration":212464,"SoundDuration":212464,"Delta":144309630},{"NoteNumber":56,"Velocity":31,"Duration":212464,"SoundDuration":212464,"Delta":144309630},{"NoteNumber":59,"Velocity":23,"Duration":212464,"SoundDuration":212464,"Delta":144522095},{"NoteNumber":56,"Velocity":31,"Duration":212464,"SoundDuration":212464,"Delta":144734559},{"NoteNumber":52,"Velocity":25,"Duration":212464,"SoundDuration":212464,"Delta":144947024},{"NoteNumber":51,"Velocity":31,"Duration":208044,"SoundDuration":208044,"Delta":145159488},{"NoteNumber":59,"Velocity":27,"Duration":208044,"SoundDuration":208044,"Delta":145367533},{"NoteNumber":83,"Velocity":47,"Duration":434973,"SoundDuration":434973,"Delta":145575577},{"NoteNumber":71,"Velocity":47,"Duration":434973,"SoundDuration":434973,"Delta":145575577},{"NoteNumber":54,"Velocity":31,"Duration":208044,"SoundDuration":208044,"Delta":145575577},{"NoteNumber":51,"Velocity":32,"Duration":226929,"SoundDuration":226929,"Delta":145783622},{"NoteNumber":82,"Velocity":51,"Duration":837988,"SoundDuration":837988,"Delta":146010551},{"NoteNumber":70,"Velocity":51,"Duration":837988,"SoundDuration":837988,"Delta":146010551},{"NoteNumber":49,"Velocity":38,"Duration":209497,"SoundDuration":209497,"Delta":146010551},{"NoteNumber":58,"Velocity":29,"Duration":209497,"SoundDuration":209497,"Delta":146220048},{"NoteNumber":54,"Velocity":31,"Duration":209497,"SoundDuration":209497,"Delta":146429545},{"NoteNumber":49,"Velocity":27,"Duration":209497,"SoundDuration":209497,"Delta":146639042},{"NoteNumber":88,"Velocity":56,"Duration":853716,"SoundDuration":853716,"Delta":146848540},{"NoteNumber":76,"Velocity":56,"Duration":853716,"SoundDuration":853716,"Delta":146848540},{"NoteNumber":42,"Velocity":31,"Duration":209497,"SoundDuration":209497,"Delta":146848540},{"NoteNumber":58,"Velocity":26,"Duration":209497,"SoundDuration":209497,"Delta":147058037},{"NoteNumber":54,"Velocity":29,"Duration":209497,"SoundDuration":209497,"Delta":147267534},{"NoteNumber":49,"Velocity":27,"Duration":225225,"SoundDuration":225225,"Delta":147477031},{"NoteNumber":87,"Velocity":51,"Duration":1265823,"SoundDuration":1265823,"Delta":147702257},{"NoteNumber":75,"Velocity":51,"Duration":1265823,"SoundDuration":1265823,"Delta":147702257},{"NoteNumber":47,"Velocity":31,"Duration":210970,"SoundDuration":210970,"Delta":147702257},{"NoteNumber":59,"Velocity":25,"Duration":210970,"SoundDuration":210970,"Delta":147913227},{"NoteNumber":54,"Velocity":30,"Duration":210970,"SoundDuration":210970,"Delta":148124198},{"NoteNumber":51,"Velocity":27,"Duration":210970,"SoundDuration":210970,"Delta":148335168},{"NoteNumber":47,"Velocity":37,"Duration":210970,"SoundDuration":210970,"Delta":148546139},{"NoteNumber":59,"Velocity":30,"Duration":210970,"SoundDuration":210970,"Delta":148757109},{"NoteNumber":81,"Velocity":45,"Duration":434517,"SoundDuration":434517,"Delta":148968080},{"NoteNumber":69,"Velocity":45,"Duration":434517,"SoundDuration":434517,"Delta":148968080},{"NoteNumber":49,"Velocity":37,"Duration":210970,"SoundDuration":210970,"Delta":148968080},{"NoteNumber":57,"Velocity":33,"Duration":223546,"SoundDuration":223546,"Delta":149179050},{"NoteNumber":80,"Velocity":51,"Duration":855919,"SoundDuration":855919,"Delta":149402597},{"NoteNumber":68,"Velocity":51,"Duration":855919,"SoundDuration":855919,"Delta":149402597},{"NoteNumber":47,"Velocity":31,"Duration":213979,"SoundDuration":213979,"Delta":149402597},{"NoteNumber":56,"Velocity":33,"Duration":213980,"SoundDuration":213980,"Delta":149616577},{"NoteNumber":52,"Velocity":37,"Duration":213979,"SoundDuration":213979,"Delta":149830557},{"NoteNumber":47,"Velocity":37,"Duration":213979,"SoundDuration":213979,"Delta":150044537},{"NoteNumber":86,"Velocity":54,"Duration":875949,"SoundDuration":875949,"Delta":150258517},{"NoteNumber":74,"Velocity":54,"Duration":875949,"SoundDuration":875949,"Delta":150258517},{"NoteNumber":40,"Velocity":42,"Duration":213979,"SoundDuration":213979,"Delta":150258517},{"NoteNumber":56,"Velocity":32,"Duration":213980,"SoundDuration":213980,"Delta":150472497},{"NoteNumber":52,"Velocity":36,"Duration":213979,"SoundDuration":213979,"Delta":150686477},{"NoteNumber":47,"Velocity":29,"Duration":234009,"SoundDuration":234009,"Delta":150900457},{"NoteNumber":85,"Velocity":51,"Duration":1279397,"SoundDuration":1279397,"Delta":151134466},{"NoteNumber":73,"Velocity":51,"Duration":1279397,"SoundDuration":1279397,"Delta":151134466},{"NoteNumber":45,"Velocity":35,"Duration":213979,"SoundDuration":213979,"Delta":151134466},{"NoteNumber":57,"Velocity":27,"Duration":213980,"SoundDuration":213980,"Delta":151348446},{"NoteNumber":52,"Velocity":31,"Duration":213979,"SoundDuration":213979,"Delta":151562426},{"NoteNumber":49,"Velocity":27,"Duration":213979,"SoundDuration":213979,"Delta":151776406},{"NoteNumber":45,"Velocity":31,"Duration":213979,"SoundDuration":213979,"Delta":151990386},{"NoteNumber":52,"Velocity":29,"Duration":209497,"SoundDuration":209497,"Delta":152204366},{"NoteNumber":85,"Velocity":50,"Duration":418994,"SoundDuration":418994,"Delta":152413864},{"NoteNumber":73,"Velocity":50,"Duration":418994,"SoundDuration":418994,"Delta":152413864},{"NoteNumber":45,"Velocity":35,"Duration":209497,"SoundDuration":209497,"Delta":152413864},{"NoteNumber":52,"Velocity":40,"Duration":209497,"SoundDuration":209497,"Delta":152623361},{"NoteNumber":84,"Velocity":59,"Duration":421941,"SoundDuration":421941,"Delta":152832858},{"NoteNumber":72,"Velocity":59,"Duration":421941,"SoundDuration":421941,"Delta":152832858},{"NoteNumber":45,"Velocity":40,"Duration":210970,"SoundDuration":210970,"Delta":152832858},{"NoteNumber":52,"Velocity":36,"Duration":210970,"SoundDuration":210970,"Delta":153043829},{"NoteNumber":85,"Velocity":60,"Duration":421941,"SoundDuration":421941,"Delta":153254799},{"NoteNumber":73,"Velocity":60,"Duration":421941,"SoundDuration":421941,"Delta":153254799},{"NoteNumber":45,"Velocity":40,"Duration":210970,"SoundDuration":210970,"Delta":153254799},{"NoteNumber":52,"Velocity":37,"Duration":210970,"SoundDuration":210970,"Delta":153465770},{"NoteNumber":81,"Velocity":58,"Duration":316455,"SoundDuration":316455,"Delta":153676740},{"NoteNumber":69,"Velocity":58,"Duration":316455,"SoundDuration":316455,"Delta":153676740},{"NoteNumber":49,"Velocity":45,"Duration":210970,"SoundDuration":210970,"Delta":153676740},{"NoteNumber":45,"Velocity":38,"Duration":210970,"SoundDuration":210970,"Delta":153676740},{"NoteNumber":52,"Velocity":37,"Duration":210970,"SoundDuration":210970,"Delta":153887711},{"NoteNumber":80,"Velocity":57,"Duration":327975,"SoundDuration":327975,"Delta":154098681},{"NoteNumber":68,"Velocity":57,"Duration":327975,"SoundDuration":327975,"Delta":154098681},{"NoteNumber":52,"Velocity":46,"Duration":210970,"SoundDuration":210970,"Delta":154098681},{"NoteNumber":47,"Velocity":39,"Duration":210970,"SoundDuration":210970,"Delta":154098681},{"NoteNumber":56,"Velocity":38,"Duration":234009,"SoundDuration":234009,"Delta":154309652},{"NoteNumber":80,"Velocity":71,"Duration":427960,"SoundDuration":427960,"Delta":154543661},{"NoteNumber":68,"Velocity":71,"Duration":427960,"SoundDuration":427960,"Delta":154543661},{"NoteNumber":52,"Velocity":57,"Duration":213979,"SoundDuration":213979,"Delta":154543661},{"NoteNumber":49,"Velocity":49,"Duration":213979,"SoundDuration":213979,"Delta":154543661},{"NoteNumber":58,"Velocity":50,"Duration":213980,"SoundDuration":213980,"Delta":154757641},{"NoteNumber":78,"Velocity":65,"Duration":859953,"SoundDuration":859953,"Delta":154971621},{"NoteNumber":66,"Velocity":65,"Duration":859953,"SoundDuration":859953,"Delta":154971621},{"NoteNumber":52,"Velocity":56,"Duration":213979,"SoundDuration":213979,"Delta":154971621},{"NoteNumber":49,"Velocity":47,"Duration":213979,"SoundDuration":213979,"Delta":154971621},{"NoteNumber":58,"Velocity":45,"Duration":226929,"SoundDuration":226929,"Delta":155185601},{"NoteNumber":52,"Velocity":52,"Duration":213979,"SoundDuration":213979,"Delta":155412530},{"NoteNumber":48,"Velocity":44,"Duration":213979,"SoundDuration":213979,"Delta":155412530},{"NoteNumber":57,"Velocity":40,"Duration":213980,"SoundDuration":213980,"Delta":155626510},{"NoteNumber":78,"Velocity":69,"Duration":431371,"SoundDuration":431371,"Delta":155840490},{"NoteNumber":66,"Velocity":69,"Duration":431371,"SoundDuration":431371,"Delta":155840490},{"NoteNumber":52,"Velocity":51,"Duration":213979,"SoundDuration":213979,"Delta":155840490},{"NoteNumber":48,"Velocity":43,"Duration":213979,"SoundDuration":213979,"Delta":155840490},{"NoteNumber":57,"Velocity":41,"Duration":241545,"SoundDuration":241545,"Delta":156054470},{"NoteNumber":78,"Velocity":49,"Duration":431034,"SoundDuration":431034,"Delta":156296016},{"NoteNumber":66,"Velocity":49,"Duration":431034,"SoundDuration":431034,"Delta":156296016},{"NoteNumber":51,"Velocity":31,"Duration":215517,"SoundDuration":215517,"Delta":156296016},{"NoteNumber":47,"Velocity":26,"Duration":215517,"SoundDuration":215517,"Delta":156296016},{"NoteNumber":57,"Velocity":27,"Duration":215517,"SoundDuration":215517,"Delta":156511533},{"NoteNumber":83,"Velocity":38,"Duration":431034,"SoundDuration":431034,"Delta":156727050},{"NoteNumber":71,"Velocity":38,"Duration":431034,"SoundDuration":431034,"Delta":156727050},{"NoteNumber":51,"Velocity":31,"Duration":215517,"SoundDuration":215517,"Delta":156727050},{"NoteNumber":47,"Velocity":26,"Duration":215517,"SoundDuration":215517,"Delta":156727050},{"NoteNumber":57,"Velocity":29,"Duration":215517,"SoundDuration":215517,"Delta":156942568},{"NoteNumber":82,"Velocity":46,"Duration":447093,"SoundDuration":447093,"Delta":157158085},{"NoteNumber":70,"Velocity":46,"Duration":447093,"SoundDuration":447093,"Delta":157158085},{"NoteNumber":51,"Velocity":31,"Duration":223546,"SoundDuration":223546,"Delta":157158085},{"NoteNumber":47,"Velocity":26,"Duration":223546,"SoundDuration":223546,"Delta":157158085},{"NoteNumber":57,"Velocity":27,"Duration":223546,"SoundDuration":223546,"Delta":157381632},{"NoteNumber":83,"Velocity":40,"Duration":473130,"SoundDuration":473130,"Delta":157605179},{"NoteNumber":71,"Velocity":40,"Duration":473130,"SoundDuration":473130,"Delta":157605179},{"NoteNumber":51,"Velocity":31,"Duration":223546,"SoundDuration":223546,"Delta":157605179},{"NoteNumber":47,"Velocity":26,"Duration":223546,"SoundDuration":223546,"Delta":157605179},{"NoteNumber":57,"Velocity":28,"Duration":249583,"SoundDuration":249583,"Delta":157828726},{"NoteNumber":76,"Velocity":51,"Duration":907715,"SoundDuration":907715,"Delta":158078310},{"NoteNumber":64,"Velocity":51,"Duration":907715,"SoundDuration":907715,"Delta":158078310},{"NoteNumber":52,"Velocity":31,"Duration":226929,"SoundDuration":226929,"Delta":158078310},{"NoteNumber":56,"Velocity":31,"Duration":226929,"SoundDuration":226929,"Delta":158078310},{"NoteNumber":52,"Velocity":31,"Duration":226928,"SoundDuration":226928,"Delta":158305239},{"NoteNumber":51,"Velocity":31,"Duration":226929,"SoundDuration":226929,"Delta":158532168},{"NoteNumber":49,"Velocity":31,"Duration":226928,"SoundDuration":226928,"Delta":158759097},{"NoteNumber":47,"Velocity":31,"Duration":226929,"SoundDuration":226929,"Delta":158986026},{"NoteNumber":45,"Velocity":30,"Duration":241545,"SoundDuration":241545,"Delta":159212955},{"NoteNumber":64,"Velocity":43,"Duration":226929,"SoundDuration":226929,"Delta":159454501},{"NoteNumber":44,"Velocity":25,"Duration":226929,"SoundDuration":226929,"Delta":159454501},{"NoteNumber":66,"Velocity":39,"Duration":239616,"SoundDuration":239616,"Delta":159681430},{"NoteNumber":42,"Velocity":25,"Duration":239616,"SoundDuration":239616,"Delta":159681430},{"NoteNumber":64,"Velocity":34,"Duration":225225,"SoundDuration":225225,"Delta":159921046},{"NoteNumber":68,"Velocity":50,"Duration":900901,"SoundDuration":900901,"Delta":159921046},{"NoteNumber":40,"Velocity":25,"Duration":450450,"SoundDuration":450450,"Delta":159921046},{"NoteNumber":59,"Velocity":26,"Duration":225225,"SoundDuration":225225,"Delta":160146272},{"NoteNumber":64,"Velocity":31,"Duration":225225,"SoundDuration":225225,"Delta":160371497},{"NoteNumber":59,"Velocity":26,"Duration":225225,"SoundDuration":225225,"Delta":160596722},{"NoteNumber":68,"Velocity":30,"Duration":212464,"SoundDuration":212464,"Delta":160821947},{"NoteNumber":71,"Velocity":46,"Duration":424928,"SoundDuration":424928,"Delta":160821947},{"NoteNumber":59,"Velocity":27,"Duration":212464,"SoundDuration":212464,"Delta":161034412},{"NoteNumber":66,"Velocity":28,"Duration":220264,"SoundDuration":220264,"Delta":161246876},{"NoteNumber":69,"Velocity":43,"Duration":440528,"SoundDuration":440528,"Delta":161246876},{"NoteNumber":59,"Velocity":27,"Duration":220264,"SoundDuration":220264,"Delta":161467141},{"NoteNumber":64,"Velocity":34,"Duration":217076,"SoundDuration":217076,"Delta":161687405},{"NoteNumber":68,"Velocity":50,"Duration":434153,"SoundDuration":434153,"Delta":161687405},{"NoteNumber":35,"Velocity":25,"Duration":434153,"SoundDuration":434153,"Delta":161687405},{"NoteNumber":59,"Velocity":26,"Duration":217076,"SoundDuration":217076,"Delta":161904482},{"NoteNumber":63,"Velocity":27,"Duration":212464,"SoundDuration":212464,"Delta":162121558},{"NoteNumber":66,"Velocity":41,"Duration":371812,"SoundDuration":371812,"Delta":162121558},{"NoteNumber":59,"Velocity":25,"Duration":159348,"SoundDuration":159348,"Delta":162334023},{"NoteNumber":63,"Velocity":27,"Duration":212464,"SoundDuration":212464,"Delta":162546487},{"NoteNumber":66,"Velocity":41,"Duration":424929,"SoundDuration":424929,"Delta":162546487},{"NoteNumber":59,"Velocity":26,"Duration":212464,"SoundDuration":212464,"Delta":162758952},{"NoteNumber":64,"Velocity":28,"Duration":208044,"SoundDuration":208044,"Delta":162971416},{"NoteNumber":68,"Velocity":43,"Duration":416088,"SoundDuration":416088,"Delta":162971416},{"NoteNumber":59,"Velocity":28,"Duration":208044,"SoundDuration":208044,"Delta":163179461},{"NoteNumber":64,"Velocity":30,"Duration":212464,"SoundDuration":212464,"Delta":163387505},{"NoteNumber":69,"Velocity":46,"Duration":424928,"SoundDuration":424928,"Delta":163387505},{"NoteNumber":37,"Velocity":25,"Duration":424928,"SoundDuration":424928,"Delta":163387505},{"NoteNumber":59,"Velocity":28,"Duration":212464,"SoundDuration":212464,"Delta":163599970},{"NoteNumber":64,"Velocity":36,"Duration":212464,"SoundDuration":212464,"Delta":163812434},{"NoteNumber":73,"Velocity":54,"Duration":424929,"SoundDuration":424929,"Delta":163812434},{"NoteNumber":59,"Velocity":31,"Duration":212464,"SoundDuration":212464,"Delta":164024899},{"NoteNumber":66,"Velocity":37,"Duration":212464,"SoundDuration":212464,"Delta":164237363},{"NoteNumber":71,"Velocity":47,"Duration":424928,"SoundDuration":424928,"Delta":164237363},{"NoteNumber":39,"Velocity":23,"Duration":424928,"SoundDuration":424928,"Delta":164237363},{"NoteNumber":59,"Velocity":26,"Duration":212464,"SoundDuration":212464,"Delta":164449828},{"NoteNumber":63,"Velocity":25,"Duration":217076,"SoundDuration":217076,"Delta":164662292},{"NoteNumber":66,"Velocity":38,"Duration":468754,"SoundDuration":468754,"Delta":164662292},{"NoteNumber":35,"Velocity":22,"Duration":468754,"SoundDuration":468754,"Delta":164662292},{"NoteNumber":59,"Velocity":27,"Duration":251677,"SoundDuration":251677,"Delta":164879369},{"NoteNumber":59,"Velocity":35,"Duration":464396,"SoundDuration":464396,"Delta":165131047},{"NoteNumber":64,"Velocity":35,"Duration":464396,"SoundDuration":464396,"Delta":165131047},{"NoteNumber":68,"Velocity":42,"Duration":464396,"SoundDuration":464396,"Delta":165131047},{"NoteNumber":40,"Velocity":28,"Duration":464396,"SoundDuration":464396,"Delta":165131047},{"NoteNumber":64,"Velocity":28,"Duration":206611,"SoundDuration":206611,"Delta":165595443},{"NoteNumber":59,"Velocity":22,"Duration":206611,"SoundDuration":206611,"Delta":165802055},{"NoteNumber":78,"Velocity":42,"Duration":51652,"SoundDuration":51652,"Delta":165957014},{"NoteNumber":76,"Velocity":47,"Duration":201072,"SoundDuration":201072,"Delta":166008666},{"NoteNumber":64,"Velocity":28,"Duration":201072,"SoundDuration":201072,"Delta":166008666},{"NoteNumber":75,"Velocity":42,"Duration":201072,"SoundDuration":201072,"Delta":166209739},{"NoteNumber":59,"Velocity":24,"Duration":201072,"SoundDuration":201072,"Delta":166209739},{"NoteNumber":76,"Velocity":48,"Duration":201072,"SoundDuration":201072,"Delta":166410811},{"NoteNumber":64,"Velocity":28,"Duration":201072,"SoundDuration":201072,"Delta":166410811},{"NoteNumber":78,"Velocity":47,"Duration":150804,"SoundDuration":150804,"Delta":166611884},{"NoteNumber":59,"Velocity":25,"Duration":201072,"SoundDuration":201072,"Delta":166611884},{"NoteNumber":81,"Velocity":50,"Duration":50268,"SoundDuration":50268,"Delta":166762688},{"NoteNumber":80,"Velocity":52,"Duration":201072,"SoundDuration":201072,"Delta":166812956},{"NoteNumber":64,"Velocity":30,"Duration":201072,"SoundDuration":201072,"Delta":166812956},{"NoteNumber":78,"Velocity":47,"Duration":201072,"SoundDuration":201072,"Delta":167014029},{"NoteNumber":59,"Velocity":29,"Duration":201072,"SoundDuration":201072,"Delta":167014029},{"NoteNumber":80,"Velocity":42,"Duration":202429,"SoundDuration":202429,"Delta":167215101},{"NoteNumber":64,"Velocity":32,"Duration":202429,"SoundDuration":202429,"Delta":167215101},{"NoteNumber":81,"Velocity":47,"Duration":223546,"SoundDuration":223546,"Delta":167417531},{"NoteNumber":59,"Velocity":31,"Duration":223546,"SoundDuration":223546,"Delta":167417531},{"NoteNumber":71,"Velocity":45,"Duration":407608,"SoundDuration":407608,"Delta":167641078},{"NoteNumber":83,"Velocity":53,"Duration":407608,"SoundDuration":407608,"Delta":167641078},{"NoteNumber":68,"Velocity":35,"Duration":203804,"SoundDuration":203804,"Delta":167641078},{"NoteNumber":59,"Velocity":32,"Duration":203804,"SoundDuration":203804,"Delta":167844882},{"NoteNumber":81,"Velocity":53,"Duration":424068,"SoundDuration":424068,"Delta":168048686},{"NoteNumber":69,"Velocity":45,"Duration":424068,"SoundDuration":424068,"Delta":168048686},{"NoteNumber":66,"Velocity":39,"Duration":203804,"SoundDuration":203804,"Delta":168048686},{"NoteNumber":59,"Velocity":36,"Duration":220264,"SoundDuration":220264,"Delta":168252490},{"NoteNumber":80,"Velocity":58,"Duration":418994,"SoundDuration":418994,"Delta":168472755},{"NoteNumber":68,"Velocity":49,"Duration":418994,"SoundDuration":418994,"Delta":168472755},{"NoteNumber":64,"Velocity":45,"Duration":209497,"SoundDuration":209497,"Delta":168472755},{"NoteNumber":59,"Velocity":37,"Duration":209497,"SoundDuration":209497,"Delta":168682252},{"NoteNumber":66,"Velocity":46,"Duration":412199,"SoundDuration":412199,"Delta":168891749},{"NoteNumber":78,"Velocity":55,"Duration":412199,"SoundDuration":412199,"Delta":168891749},{"NoteNumber":63,"Velocity":43,"Duration":209497,"SoundDuration":209497,"Delta":168891749},{"NoteNumber":59,"Velocity":37,"Duration":225225,"SoundDuration":225225,"Delta":169101246},{"NoteNumber":66,"Velocity":58,"Duration":421941,"SoundDuration":421941,"Delta":169326472},{"NoteNumber":78,"Velocity":70,"Duration":421941,"SoundDuration":421941,"Delta":169326472},{"NoteNumber":63,"Velocity":46,"Duration":210970,"SoundDuration":210970,"Delta":169326472},{"NoteNumber":59,"Velocity":39,"Duration":210970,"SoundDuration":210970,"Delta":169537442},{"NoteNumber":80,"Velocity":64,"Duration":421941,"SoundDuration":421941,"Delta":169748413},{"NoteNumber":68,"Velocity":54,"Duration":421941,"SoundDuration":421941,"Delta":169748413},{"NoteNumber":65,"Velocity":49,"Duration":210970,"SoundDuration":210970,"Delta":169748413},{"NoteNumber":59,"Velocity":44,"Duration":210970,"SoundDuration":210970,"Delta":169959383},{"NoteNumber":69,"Velocity":65,"Duration":421941,"SoundDuration":421941,"Delta":170170354},{"NoteNumber":81,"Velocity":77,"Duration":421941,"SoundDuration":421941,"Delta":170170354},{"NoteNumber":66,"Velocity":58,"Duration":210970,"SoundDuration":210970,"Delta":170170354},{"NoteNumber":59,"Velocity":48,"Duration":210970,"SoundDuration":210970,"Delta":170381324},{"NoteNumber":85,"Velocity":68,"Duration":436195,"SoundDuration":436195,"Delta":170592295},{"NoteNumber":73,"Velocity":57,"Duration":436195,"SoundDuration":436195,"Delta":170592295},{"NoteNumber":69,"Velocity":53,"Duration":210970,"SoundDuration":210970,"Delta":170592295},{"NoteNumber":59,"Velocity":47,"Duration":225225,"SoundDuration":225225,"Delta":170803265},{"NoteNumber":83,"Velocity":80,"Duration":424928,"SoundDuration":424928,"Delta":171028490},{"NoteNumber":71,"Velocity":67,"Duration":424928,"SoundDuration":424928,"Delta":171028490},{"NoteNumber":68,"Velocity":57,"Duration":212464,"SoundDuration":212464,"Delta":171028490},{"NoteNumber":59,"Velocity":44,"Duration":212464,"SoundDuration":212464,"Delta":171240955},{"NoteNumber":75,"Velocity":70,"Duration":337837,"SoundDuration":337837,"Delta":171453419},{"NoteNumber":81,"Velocity":70,"Duration":337837,"SoundDuration":337837,"Delta":171453419},{"NoteNumber":87,"Velocity":83,"Duration":337837,"SoundDuration":337837,"Delta":171453419},{"NoteNumber":66,"Velocity":54,"Duration":225225,"SoundDuration":225225,"Delta":171453419},{"NoteNumber":59,"Velocity":46,"Duration":225225,"SoundDuration":225225,"Delta":171678645},{"NoteNumber":76,"Velocity":76,"Duration":862618,"SoundDuration":862618,"Delta":171903870},{"NoteNumber":80,"Velocity":76,"Duration":862618,"SoundDuration":862618,"Delta":171903870},{"NoteNumber":88,"Velocity":91,"Duration":862618,"SoundDuration":862618,"Delta":171903870},{"NoteNumber":64,"Velocity":59,"Duration":225225,"SoundDuration":225225,"Delta":171903870},{"NoteNumber":59,"Velocity":49,"Duration":212464,"SoundDuration":212464,"Delta":172129095},{"NoteNumber":56,"Velocity":58,"Duration":212464,"SoundDuration":212464,"Delta":172341560},{"NoteNumber":59,"Velocity":50,"Duration":212464,"SoundDuration":212464,"Delta":172554024},{"NoteNumber":52,"Velocity":45,"Duration":212464,"SoundDuration":212464,"Delta":172766489},{"NoteNumber":59,"Velocity":31,"Duration":212464,"SoundDuration":212464,"Delta":172978953},{"NoteNumber":68,"Velocity":41,"Duration":424929,"SoundDuration":424929,"Delta":173191418},{"NoteNumber":64,"Velocity":34,"Duration":424929,"SoundDuration":424929,"Delta":173191418},{"NoteNumber":47,"Velocity":31,"Duration":212464,"SoundDuration":212464,"Delta":173191418},{"NoteNumber":59,"Velocity":31,"Duration":212464,"SoundDuration":212464,"Delta":173403882},{"NoteNumber":69,"Velocity":46,"Duration":418994,"SoundDuration":418994,"Delta":173616347},{"NoteNumber":63,"Velocity":39,"Duration":837988,"SoundDuration":837988,"Delta":173616347},{"NoteNumber":54,"Velocity":40,"Duration":209497,"SoundDuration":209497,"Delta":173616347},{"NoteNumber":59,"Velocity":33,"Duration":209497,"SoundDuration":209497,"Delta":173825844},{"NoteNumber":73,"Velocity":39,"Duration":418994,"SoundDuration":418994,"Delta":174035341},{"NoteNumber":57,"Velocity":33,"Duration":209497,"SoundDuration":209497,"Delta":174035341},{"NoteNumber":59,"Velocity":33,"Duration":209497,"SoundDuration":209497,"Delta":174244838},{"NoteNumber":71,"Velocity":45,"Duration":418994,"SoundDuration":418994,"Delta":174454336},{"NoteNumber":64,"Velocity":38,"Duration":418994,"SoundDuration":418994,"Delta":174454336},{"NoteNumber":56,"Velocity":37,"Duration":209497,"SoundDuration":209497,"Delta":174454336},{"NoteNumber":59,"Velocity":33,"Duration":209497,"SoundDuration":209497,"Delta":174663833},{"NoteNumber":75,"Velocity":48,"Duration":323826,"SoundDuration":323826,"Delta":174873330},{"NoteNumber":69,"Velocity":40,"Duration":323826,"SoundDuration":323826,"Delta":174873330},{"NoteNumber":54,"Velocity":33,"Duration":209497,"SoundDuration":209497,"Delta":174873330},{"NoteNumber":59,"Velocity":33,"Duration":228658,"SoundDuration":228658,"Delta":175082827},{"NoteNumber":76,"Velocity":45,"Duration":436011,"SoundDuration":436011,"Delta":175311486},{"NoteNumber":68,"Velocity":38,"Duration":436011,"SoundDuration":436011,"Delta":175311486},{"NoteNumber":52,"Velocity":40,"Duration":223546,"SoundDuration":223546,"Delta":175311486},{"NoteNumber":59,"Velocity":35,"Duration":212464,"SoundDuration":212464,"Delta":175535033},{"NoteNumber":67,"Velocity":34,"Duration":843297,"SoundDuration":843297,"Delta":175747497},{"NoteNumber":64,"Velocity":28,"Duration":212464,"SoundDuration":212464,"Delta":175747497},{"NoteNumber":59,"Velocity":28,"Duration":211754,"SoundDuration":211754,"Delta":175959962},{"NoteNumber":64,"Velocity":31,"Duration":210270,"SoundDuration":210270,"Delta":176171717},{"NoteNumber":59,"Velocity":28,"Duration":208807,"SoundDuration":208807,"Delta":176381987},{"NoteNumber":79,"Velocity":57,"Duration":434292,"SoundDuration":434292,"Delta":176590795},{"NoteNumber":64,"Velocity":40,"Duration":207363,"SoundDuration":207363,"Delta":176590795},{"NoteNumber":59,"Velocity":49,"Duration":226929,"SoundDuration":226929,"Delta":176798158},{"NoteNumber":81,"Velocity":67,"Duration":422468,"SoundDuration":422468,"Delta":177025087},{"NoteNumber":66,"Velocity":47,"Duration":212971,"SoundDuration":212971,"Delta":177025087},{"NoteNumber":59,"Velocity":48,"Duration":209497,"SoundDuration":209497,"Delta":177238059},{"NoteNumber":84,"Velocity":65,"Duration":418994,"SoundDuration":418994,"Delta":177447556},{"NoteNumber":69,"Velocity":45,"Duration":209497,"SoundDuration":209497,"Delta":177447556},{"NoteNumber":59,"Velocity":49,"Duration":209497,"SoundDuration":209497,"Delta":177657053},{"NoteNumber":83,"Velocity":76,"Duration":434153,"SoundDuration":434153,"Delta":177866551},{"NoteNumber":67,"Velocity":55,"Duration":217076,"SoundDuration":217076,"Delta":177866551},{"NoteNumber":59,"Velocity":52,"Duration":217076,"SoundDuration":217076,"Delta":178083627},{"NoteNumber":87,"Velocity":93,"Duration":352767,"SoundDuration":352767,"Delta":178300704},{"NoteNumber":81,"Velocity":79,"Duration":352767,"SoundDuration":352767,"Delta":178300704},{"NoteNumber":75,"Velocity":79,"Duration":352767,"SoundDuration":352767,"Delta":178300704},{"NoteNumber":66,"Velocity":71,"Duration":226929,"SoundDuration":226929,"Delta":178300704},{"NoteNumber":59,"Velocity":65,"Duration":251677,"SoundDuration":251677,"Delta":178527633},{"NoteNumber":76,"Velocity":85,"Duration":865278,"SoundDuration":865278,"Delta":178779311},{"NoteNumber":79,"Velocity":85,"Duration":865278,"SoundDuration":865278,"Delta":178779311},{"NoteNumber":88,"Velocity":101,"Duration":865278,"SoundDuration":865278,"Delta":178779311},{"NoteNumber":64,"Velocity":80,"Duration":218659,"SoundDuration":218659,"Delta":178779311},{"NoteNumber":59,"Velocity":65,"Duration":218659,"SoundDuration":218659,"Delta":178997970},{"NoteNumber":55,"Velocity":68,"Duration":213979,"SoundDuration":213979,"Delta":179216629},{"NoteNumber":59,"Velocity":57,"Duration":213980,"SoundDuration":213980,"Delta":179430609},{"NoteNumber":52,"Velocity":44,"Duration":213979,"SoundDuration":213979,"Delta":179644589},{"NoteNumber":59,"Velocity":44,"Duration":213979,"SoundDuration":213979,"Delta":179858569},{"NoteNumber":67,"Velocity":47,"Duration":441042,"SoundDuration":441042,"Delta":180072549},{"NoteNumber":47,"Velocity":38,"Duration":213979,"SoundDuration":213979,"Delta":180072549},{"NoteNumber":59,"Velocity":38,"Duration":227062,"SoundDuration":227062,"Delta":180286529},{"NoteNumber":69,"Velocity":53,"Duration":431034,"SoundDuration":431034,"Delta":180513592},{"NoteNumber":54,"Velocity":35,"Duration":215517,"SoundDuration":215517,"Delta":180513592},{"NoteNumber":59,"Velocity":36,"Duration":215517,"SoundDuration":215517,"Delta":180729109},{"NoteNumber":72,"Velocity":48,"Duration":430688,"SoundDuration":430688,"Delta":180944626},{"NoteNumber":57,"Velocity":36,"Duration":215517,"SoundDuration":215517,"Delta":180944626},{"NoteNumber":59,"Velocity":37,"Duration":215171,"SoundDuration":215171,"Delta":181160143},{"NoteNumber":71,"Velocity":49,"Duration":427959,"SoundDuration":427959,"Delta":181375315},{"NoteNumber":55,"Velocity":39,"Duration":213979,"SoundDuration":213979,"Delta":181375315},{"NoteNumber":59,"Velocity":39,"Duration":213979,"SoundDuration":213979,"Delta":181589295},{"NoteNumber":69,"Velocity":41,"Duration":213980,"SoundDuration":213980,"Delta":181803275},{"NoteNumber":75,"Velocity":49,"Duration":213980,"SoundDuration":213980,"Delta":181803275},{"NoteNumber":54,"Velocity":40,"Duration":213980,"SoundDuration":213980,"Delta":181803275},{"NoteNumber":59,"Velocity":42,"Duration":213302,"SoundDuration":213302,"Delta":182017255},{"NoteNumber":76,"Velocity":57,"Duration":208044,"SoundDuration":208044,"Delta":182230558},{"NoteNumber":67,"Velocity":47,"Duration":208044,"SoundDuration":208044,"Delta":182230558},{"NoteNumber":52,"Velocity":43,"Duration":208044,"SoundDuration":208044,"Delta":182230558},{"NoteNumber":64,"Velocity":41,"Duration":208044,"SoundDuration":208044,"Delta":182438602},{"NoteNumber":76,"Velocity":67,"Duration":208044,"SoundDuration":208044,"Delta":182646647},{"NoteNumber":79,"Velocity":67,"Duration":208044,"SoundDuration":208044,"Delta":182646647},{"NoteNumber":50,"Velocity":44,"Duration":208044,"SoundDuration":208044,"Delta":182646647},{"NoteNumber":62,"Velocity":42,"Duration":208044,"SoundDuration":208044,"Delta":182854691},{"NoteNumber":84,"Velocity":73,"Duration":208044,"SoundDuration":208044,"Delta":183062736},{"NoteNumber":76,"Velocity":73,"Duration":208044,"SoundDuration":208044,"Delta":183062736},{"NoteNumber":48,"Velocity":49,"Duration":208044,"SoundDuration":208044,"Delta":183062736},{"NoteNumber":60,"Velocity":45,"Duration":208044,"SoundDuration":208044,"Delta":183270780},{"NoteNumber":76,"Velocity":73,"Duration":208044,"SoundDuration":208044,"Delta":183478825},{"NoteNumber":84,"Velocity":73,"Duration":208044,"SoundDuration":208044,"Delta":183478825},{"NoteNumber":47,"Velocity":51,"Duration":208044,"SoundDuration":208044,"Delta":183478825},{"NoteNumber":59,"Velocity":47,"Duration":208044,"SoundDuration":208044,"Delta":183686869},{"NoteNumber":76,"Velocity":84,"Duration":208044,"SoundDuration":208044,"Delta":183894914},{"NoteNumber":84,"Velocity":84,"Duration":208044,"SoundDuration":208044,"Delta":183894914},{"NoteNumber":45,"Velocity":52,"Duration":208044,"SoundDuration":208044,"Delta":183894914},{"NoteNumber":57,"Velocity":51,"Duration":208044,"SoundDuration":208044,"Delta":184102958},{"NoteNumber":84,"Velocity":83,"Duration":221893,"SoundDuration":221893,"Delta":184311003},{"NoteNumber":81,"Velocity":83,"Duration":221893,"SoundDuration":221893,"Delta":184311003},{"NoteNumber":43,"Velocity":57,"Duration":221893,"SoundDuration":221893,"Delta":184311003},{"NoteNumber":55,"Velocity":53,"Duration":221893,"SoundDuration":221893,"Delta":184532896},{"NoteNumber":89,"Velocity":87,"Duration":205198,"SoundDuration":205198,"Delta":184754790},{"NoteNumber":86,"Velocity":87,"Duration":205198,"SoundDuration":205198,"Delta":184754790},{"NoteNumber":41,"Velocity":57,"Duration":205198,"SoundDuration":205198,"Delta":184754790},{"NoteNumber":53,"Velocity":55,"Duration":205198,"SoundDuration":205198,"Delta":184959988},{"NoteNumber":89,"Velocity":85,"Duration":205198,"SoundDuration":205198,"Delta":185165186},{"NoteNumber":86,"Velocity":85,"Duration":205198,"SoundDuration":205198,"Delta":185165186},{"NoteNumber":40,"Velocity":63,"Duration":205198,"SoundDuration":205198,"Delta":185165186},{"NoteNumber":52,"Velocity":59,"Duration":205198,"SoundDuration":205198,"Delta":185370384},{"NoteNumber":89,"Velocity":90,"Duration":199733,"SoundDuration":199733,"Delta":185575583},{"NoteNumber":86,"Velocity":90,"Duration":199733,"SoundDuration":199733,"Delta":185575583},{"NoteNumber":38,"Velocity":69,"Duration":199733,"SoundDuration":199733,"Delta":185575583},{"NoteNumber":50,"Velocity":67,"Duration":199733,"SoundDuration":199733,"Delta":185775316},{"NoteNumber":86,"Velocity":86,"Duration":199733,"SoundDuration":199733,"Delta":185975050},{"NoteNumber":89,"Velocity":86,"Duration":199733,"SoundDuration":199733,"Delta":185975050},{"NoteNumber":36,"Velocity":74,"Duration":199733,"SoundDuration":199733,"Delta":185975050},{"NoteNumber":48,"Velocity":77,"Duration":199733,"SoundDuration":199733,"Delta":186174784},{"NoteNumber":86,"Velocity":88,"Duration":199733,"SoundDuration":199733,"Delta":186374518},{"NoteNumber":89,"Velocity":88,"Duration":199733,"SoundDuration":199733,"Delta":186374518},{"NoteNumber":35,"Velocity":81,"Duration":199733,"SoundDuration":199733,"Delta":186374518},{"NoteNumber":47,"Velocity":76,"Duration":199733,"SoundDuration":199733,"Delta":186574251},{"NoteNumber":86,"Velocity":94,"Duration":199733,"SoundDuration":199733,"Delta":186773985},{"NoteNumber":89,"Velocity":94,"Duration":199733,"SoundDuration":199733,"Delta":186773985},{"NoteNumber":33,"Velocity":83,"Duration":199733,"SoundDuration":199733,"Delta":186773985},{"NoteNumber":45,"Velocity":80,"Duration":213979,"SoundDuration":213979,"Delta":186973719},{"NoteNumber":89,"Velocity":102,"Duration":3699296,"SoundDuration":3699296,"Delta":187187699},{"NoteNumber":86,"Velocity":102,"Duration":3699296,"SoundDuration":3699296,"Delta":187187699},{"NoteNumber":31,"Velocity":86,"Duration":201072,"SoundDuration":201072,"Delta":187187699},{"NoteNumber":43,"Velocity":80,"Duration":201072,"SoundDuration":201072,"Delta":187388771},{"NoteNumber":35,"Velocity":86,"Duration":201072,"SoundDuration":201072,"Delta":187589844},{"NoteNumber":47,"Velocity":80,"Duration":201072,"SoundDuration":201072,"Delta":187790916},{"NoteNumber":38,"Velocity":86,"Duration":201072,"SoundDuration":201072,"Delta":187991989},{"NoteNumber":50,"Velocity":81,"Duration":201072,"SoundDuration":201072,"Delta":188193061},{"NoteNumber":42,"Velocity":87,"Duration":202318,"SoundDuration":202318,"Delta":188394134},{"NoteNumber":54,"Velocity":81,"Duration":206611,"SoundDuration":206611,"Delta":188596453},{"NoteNumber":43,"Velocity":86,"Duration":210828,"SoundDuration":210828,"Delta":188803064},{"NoteNumber":55,"Velocity":76,"Duration":212881,"SoundDuration":212881,"Delta":189013892},{"NoteNumber":47,"Velocity":81,"Duration":210676,"SoundDuration":210676,"Delta":189226773},{"NoteNumber":59,"Velocity":73,"Duration":208444,"SoundDuration":208444,"Delta":189437450},{"NoteNumber":50,"Velocity":77,"Duration":207005,"SoundDuration":207005,"Delta":189645894},{"NoteNumber":62,"Velocity":76,"Duration":206611,"SoundDuration":206611,"Delta":189852899},{"NoteNumber":54,"Velocity":73,"Duration":206611,"SoundDuration":206611,"Delta":190059511},{"NoteNumber":66,"Velocity":73,"Duration":206611,"SoundDuration":206611,"Delta":190266122},{"NoteNumber":55,"Velocity":81,"Duration":206611,"SoundDuration":206611,"Delta":190472734},{"NoteNumber":67,"Velocity":53,"Duration":207650,"SoundDuration":207650,"Delta":190679345},{"NoteNumber":86,"Velocity":62,"Duration":845659,"SoundDuration":845659,"Delta":190886996},{"NoteNumber":89,"Velocity":62,"Duration":845659,"SoundDuration":845659,"Delta":190886996},{"NoteNumber":57,"Velocity":50,"Duration":209460,"SoundDuration":209460,"Delta":190886996},{"NoteNumber":69,"Velocity":49,"Duration":211269,"SoundDuration":211269,"Delta":191096457},{"NoteNumber":59,"Velocity":49,"Duration":212464,"SoundDuration":212464,"Delta":191307727},{"NoteNumber":71,"Velocity":48,"Duration":212464,"SoundDuration":212464,"Delta":191520191},{"NoteNumber":88,"Velocity":54,"Duration":212464,"SoundDuration":212464,"Delta":191732656},{"NoteNumber":84,"Velocity":54,"Duration":212464,"SoundDuration":212464,"Delta":191732656},{"NoteNumber":60,"Velocity":46,"Duration":212464,"SoundDuration":212464,"Delta":191732656},{"NoteNumber":72,"Velocity":42,"Duration":212464,"SoundDuration":212464,"Delta":191945120},{"NoteNumber":86,"Velocity":46,"Duration":220069,"SoundDuration":220069,"Delta":192157585},{"NoteNumber":65,"Velocity":42,"Duration":220069,"SoundDuration":220069,"Delta":192157585},{"NoteNumber":72,"Velocity":35,"Duration":220264,"SoundDuration":220264,"Delta":192377654},{"NoteNumber":74,"Velocity":41,"Duration":220264,"SoundDuration":220264,"Delta":192597918},{"NoteNumber":81,"Velocity":49,"Duration":220264,"SoundDuration":220264,"Delta":192597918},{"NoteNumber":66,"Velocity":39,"Duration":220264,"SoundDuration":220264,"Delta":192597918},{"NoteNumber":72,"Velocity":34,"Duration":220630,"SoundDuration":220630,"Delta":192818182},{"NoteNumber":79,"Velocity":43,"Duration":450319,"SoundDuration":450319,"Delta":193038813},{"NoteNumber":76,"Velocity":36,"Duration":450319,"SoundDuration":450319,"Delta":193038813},{"NoteNumber":67,"Velocity":39,"Duration":223469,"SoundDuration":223469,"Delta":193038813},{"NoteNumber":72,"Velocity":35,"Duration":226849,"SoundDuration":226849,"Delta":193262283},{"NoteNumber":79,"Velocity":43,"Duration":230333,"SoundDuration":230333,"Delta":193489133},{"NoteNumber":74,"Velocity":36,"Duration":230333,"SoundDuration":230333,"Delta":193489133},{"NoteNumber":71,"Velocity":36,"Duration":230333,"SoundDuration":230333,"Delta":193489133},{"NoteNumber":55,"Velocity":40,"Duration":230333,"SoundDuration":230333,"Delta":193489133},{"NoteNumber":67,"Velocity":40,"Duration":232198,"SoundDuration":232198,"Delta":193719466},{"NoteNumber":76,"Velocity":43,"Duration":1523255,"SoundDuration":1523255,"Delta":193951664},{"NoteNumber":72,"Velocity":43,"Duration":1523255,"SoundDuration":1523255,"Delta":193951664},{"NoteNumber":67,"Velocity":36,"Duration":1523255,"SoundDuration":1523255,"Delta":193951664},{"NoteNumber":48,"Velocity":32,"Duration":248139,"SoundDuration":248139,"Delta":193951664},{"NoteNumber":55,"Velocity":27,"Duration":248138,"SoundDuration":248138,"Delta":194199803},{"NoteNumber":52,"Velocity":27,"Duration":248139,"SoundDuration":248139,"Delta":194447942},{"NoteNumber":48,"Velocity":32,"Duration":248139,"SoundDuration":248139,"Delta":194696081},{"NoteNumber":60,"Velocity":27,"Duration":248138,"SoundDuration":248138,"Delta":194944220},{"NoteNumber":55,"Velocity":27,"Duration":282560,"SoundDuration":282560,"Delta":195192359},{"NoteNumber":65,"Velocity":28,"Duration":735090,"SoundDuration":735090,"Delta":195474919},{"NoteNumber":74,"Velocity":34,"Duration":735090,"SoundDuration":735090,"Delta":195474919},{"NoteNumber":77,"Velocity":34,"Duration":735090,"SoundDuration":735090,"Delta":195474919},{"NoteNumber":50,"Velocity":32,"Duration":248715,"SoundDuration":248715,"Delta":195474919},{"NoteNumber":59,"Velocity":27,"Duration":245160,"SoundDuration":245160,"Delta":195723634},{"NoteNumber":55,"Velocity":27,"Duration":241215,"SoundDuration":241215,"Delta":195968794},{"NoteNumber":67,"Velocity":25,"Duration":765759,"SoundDuration":765759,"Delta":196210010},{"NoteNumber":72,"Velocity":30,"Duration":765759,"SoundDuration":765759,"Delta":196210010},{"NoteNumber":76,"Velocity":30,"Duration":765759,"SoundDuration":765759,"Delta":196210010},{"NoteNumber":52,"Velocity":33,"Duration":239630,"SoundDuration":239630,"Delta":196210010},{"NoteNumber":60,"Velocity":27,"Duration":245855,"SoundDuration":245855,"Delta":196449641},{"NoteNumber":55,"Velocity":29,"Duration":280273,"SoundDuration":280273,"Delta":196695496},{"NoteNumber":69,"Velocity":39,"Duration":762982,"SoundDuration":762982,"Delta":196975769},{"NoteNumber":74,"Velocity":39,"Duration":762982,"SoundDuration":762982,"Delta":196975769},{"NoteNumber":53,"Velocity":32,"Duration":240843,"SoundDuration":240843,"Delta":196975769},{"NoteNumber":62,"Velocity":29,"Duration":240673,"SoundDuration":240673,"Delta":197216612},{"NoteNumber":57,"Velocity":29,"Duration":281465,"SoundDuration":281465,"Delta":197457286},{"NoteNumber":72,"Velocity":35,"Duration":1632243,"SoundDuration":1632243,"Delta":197738752},{"NoteNumber":69,"Velocity":29,"Duration":798370,"SoundDuration":798370,"Delta":197738752},{"NoteNumber":54,"Velocity":34,"Duration":251256,"SoundDuration":251256,"Delta":197738752},{"NoteNumber":63,"Velocity":31,"Duration":251256,"SoundDuration":251256,"Delta":197990008},{"NoteNumber":60,"Velocity":30,"Duration":295858,"SoundDuration":295858,"Delta":198241265},{"NoteNumber":67,"Velocity":33,"Duration":833872,"SoundDuration":833872,"Delta":198537123},{"NoteNumber":55,"Velocity":37,"Duration":268096,"SoundDuration":268096,"Delta":198537123},{"NoteNumber":64,"Velocity":32,"Duration":269917,"SoundDuration":269917,"Delta":198805219},{"NoteNumber":60,"Velocity":32,"Duration":295858,"SoundDuration":295858,"Delta":199075137},{"NoteNumber":71,"Velocity":56,"Duration":396825,"SoundDuration":396825,"Delta":199370995},{"NoteNumber":67,"Velocity":34,"Duration":841113,"SoundDuration":841113,"Delta":199370995},{"NoteNumber":53,"Velocity":39,"Duration":264550,"SoundDuration":264550,"Delta":199370995},{"NoteNumber":65,"Velocity":33,"Duration":264550,"SoundDuration":264550,"Delta":199635545},{"NoteNumber":79,"Velocity":60,"Duration":444287,"SoundDuration":444287,"Delta":199767821},{"NoteNumber":62,"Velocity":33,"Duration":312012,"SoundDuration":312012,"Delta":199900096},{"NoteNumber":59,"Velocity":33,"Duration":312012,"SoundDuration":312012,"Delta":199900096},{"NoteNumber":67,"Velocity":51,"Duration":1498417,"SoundDuration":1498417,"Delta":200212108},{"NoteNumber":75,"Velocity":51,"Duration":1498417,"SoundDuration":1498417,"Delta":200212108},{"NoteNumber":79,"Velocity":60,"Duration":1498417,"SoundDuration":1498417,"Delta":200212108},{"NoteNumber":60,"Velocity":39,"Duration":188658,"SoundDuration":188658,"Delta":200212108},{"NoteNumber":55,"Velocity":32,"Duration":187295,"SoundDuration":187295,"Delta":200400767},{"NoteNumber":51,"Velocity":32,"Duration":185875,"SoundDuration":185875,"Delta":200588062},{"NoteNumber":55,"Velocity":30,"Duration":184701,"SoundDuration":184701,"Delta":200773938},{"NoteNumber":48,"Velocity":38,"Duration":183291,"SoundDuration":183291,"Delta":200958639},{"NoteNumber":60,"Velocity":33,"Duration":184875,"SoundDuration":184875,"Delta":201141931},{"NoteNumber":55,"Velocity":34,"Duration":188063,"SoundDuration":188063,"Delta":201326806},{"NoteNumber":48,"Velocity":32,"Duration":195655,"SoundDuration":195655,"Delta":201514870},{"NoteNumber":65,"Velocity":46,"Duration":744416,"SoundDuration":744416,"Delta":201710526},{"NoteNumber":74,"Velocity":46,"Duration":744416,"SoundDuration":744416,"Delta":201710526},{"NoteNumber":77,"Velocity":57,"Duration":744416,"SoundDuration":744416,"Delta":201710526},{"NoteNumber":50,"Velocity":45,"Duration":186104,"SoundDuration":186104,"Delta":201710526},{"NoteNumber":59,"Velocity":36,"Duration":186104,"SoundDuration":186104,"Delta":201896630},{"NoteNumber":55,"Velocity":36,"Duration":186104,"SoundDuration":186104,"Delta":202082735},{"NoteNumber":50,"Velocity":33,"Duration":186104,"SoundDuration":186104,"Delta":202268839},{"NoteNumber":63,"Velocity":47,"Duration":796578,"SoundDuration":796578,"Delta":202454943},{"NoteNumber":72,"Velocity":47,"Duration":796578,"SoundDuration":796578,"Delta":202454943},{"NoteNumber":75,"Velocity":58,"Duration":796578,"SoundDuration":796578,"Delta":202454943},{"NoteNumber":67,"Velocity":47,"Duration":796578,"SoundDuration":796578,"Delta":202454943},{"NoteNumber":51,"Velocity":43,"Duration":186104,"SoundDuration":186104,"Delta":202454943},{"NoteNumber":60,"Velocity":39,"Duration":186104,"SoundDuration":186104,"Delta":202641047},{"NoteNumber":55,"Velocity":39,"Duration":199144,"SoundDuration":199144,"Delta":202827152},{"NoteNumber":51,"Velocity":37,"Duration":225225,"SoundDuration":225225,"Delta":203026296},{"NoteNumber":68,"Velocity":62,"Duration":772704,"SoundDuration":772704,"Delta":203251521},{"NoteNumber":74,"Velocity":73,"Duration":772704,"SoundDuration":772704,"Delta":203251521},{"NoteNumber":53,"Velocity":56,"Duration":189633,"SoundDuration":189633,"Delta":203251521},{"NoteNumber":62,"Velocity":42,"Duration":189633,"SoundDuration":189633,"Delta":203441155},{"NoteNumber":56,"Velocity":42,"Duration":189633,"SoundDuration":189633,"Delta":203630788},{"NoteNumber":53,"Velocity":39,"Duration":203804,"SoundDuration":203804,"Delta":203820422},{"NoteNumber":69,"Velocity":63,"Duration":813143,"SoundDuration":813143,"Delta":204024226},{"NoteNumber":72,"Velocity":74,"Duration":1634625,"SoundDuration":1634625,"Delta":204024226},{"NoteNumber":54,"Velocity":57,"Duration":212464,"SoundDuration":212464,"Delta":204024226},{"NoteNumber":63,"Velocity":44,"Duration":192061,"SoundDuration":192061,"Delta":204236691},{"NoteNumber":60,"Velocity":45,"Duration":202005,"SoundDuration":202005,"Delta":204428752},{"NoteNumber":54,"Velocity":43,"Duration":189393,"SoundDuration":189393,"Delta":204630758},{"NoteNumber":67,"Velocity":64,"Duration":821482,"SoundDuration":821482,"Delta":204837369},{"NoteNumber":55,"Velocity":62,"Duration":197109,"SoundDuration":197109,"Delta":204837369},{"NoteNumber":63,"Velocity":47,"Duration":197108,"SoundDuration":197108,"Delta":205034478},{"NoteNumber":60,"Velocity":48,"Duration":205370,"SoundDuration":205370,"Delta":205231587},{"NoteNumber":55,"Velocity":47,"Duration":221893,"SoundDuration":221893,"Delta":205436958},{"NoteNumber":66,"Velocity":76,"Duration":404858,"SoundDuration":404858,"Delta":205658851},{"NoteNumber":72,"Velocity":76,"Duration":404858,"SoundDuration":404858,"Delta":205658851},{"NoteNumber":56,"Velocity":58,"Duration":202429,"SoundDuration":202429,"Delta":205658851},{"NoteNumber":63,"Velocity":52,"Duration":202429,"SoundDuration":202429,"Delta":205861280},{"NoteNumber":80,"Velocity":82,"Duration":426498,"SoundDuration":426498,"Delta":206063710},{"NoteNumber":60,"Velocity":57,"Duration":207839,"SoundDuration":207839,"Delta":206063710},{"NoteNumber":63,"Velocity":58,"Duration":218659,"SoundDuration":218659,"Delta":206271549},{"NoteNumber":80,"Velocity":43,"Duration":1551203,"SoundDuration":1551203,"Delta":206490208},{"NoteNumber":76,"Velocity":43,"Duration":1551203,"SoundDuration":1551203,"Delta":206490208},{"NoteNumber":68,"Velocity":36,"Duration":1551203,"SoundDuration":1551203,"Delta":206490208},{"NoteNumber":61,"Velocity":32,"Duration":252844,"SoundDuration":252844,"Delta":206490208},{"NoteNumber":49,"Velocity":32,"Duration":252844,"SoundDuration":252844,"Delta":206490208},{"NoteNumber":56,"Velocity":27,"Duration":252844,"SoundDuration":252844,"Delta":206743052},{"NoteNumber":52,"Velocity":27,"Duration":252844,"SoundDuration":252844,"Delta":206995897},{"NoteNumber":49,"Velocity":32,"Duration":252844,"SoundDuration":252844,"Delta":207248742},{"NoteNumber":61,"Velocity":27,"Duration":252844,"SoundDuration":252844,"Delta":207501586},{"NoteNumber":56,"Velocity":27,"Duration":286980,"SoundDuration":286980,"Delta":207754431},{"NoteNumber":66,"Velocity":28,"Duration":775718,"SoundDuration":775718,"Delta":208041411},{"NoteNumber":75,"Velocity":34,"Duration":775718,"SoundDuration":775718,"Delta":208041411},{"NoteNumber":78,"Velocity":34,"Duration":775718,"SoundDuration":775718,"Delta":208041411},{"NoteNumber":51,"Velocity":32,"Duration":256912,"SoundDuration":256912,"Delta":208041411},{"NoteNumber":60,"Velocity":27,"Duration":259403,"SoundDuration":259403,"Delta":208298324},{"NoteNumber":56,"Velocity":27,"Duration":259403,"SoundDuration":259403,"Delta":208557727},{"NoteNumber":68,"Velocity":25,"Duration":819107,"SoundDuration":819107,"Delta":208817130},{"NoteNumber":73,"Velocity":30,"Duration":819107,"SoundDuration":819107,"Delta":208817130},{"NoteNumber":76,"Velocity":30,"Duration":819107,"SoundDuration":819107,"Delta":208817130},{"NoteNumber":52,"Velocity":33,"Duration":259403,"SoundDuration":259403,"Delta":208817130},{"NoteNumber":61,"Velocity":27,"Duration":259403,"SoundDuration":259403,"Delta":209076534},{"NoteNumber":56,"Velocity":29,"Duration":300300,"SoundDuration":300300,"Delta":209335937},{"NoteNumber":69,"Velocity":39,"Duration":811509,"SoundDuration":811509,"Delta":209636237},{"NoteNumber":75,"Velocity":39,"Duration":811509,"SoundDuration":811509,"Delta":209636237},{"NoteNumber":54,"Velocity":32,"Duration":262811,"SoundDuration":262811,"Delta":209636237},{"NoteNumber":63,"Velocity":29,"Duration":262811,"SoundDuration":262811,"Delta":209899049},{"NoteNumber":57,"Velocity":29,"Duration":285885,"SoundDuration":285885,"Delta":210161861},{"NoteNumber":73,"Velocity":35,"Duration":1650378,"SoundDuration":1650378,"Delta":210447747},{"NoteNumber":70,"Velocity":29,"Duration":822622,"SoundDuration":822622,"Delta":210447747},{"NoteNumber":55,"Velocity":34,"Duration":268096,"SoundDuration":268096,"Delta":210447747},{"NoteNumber":64,"Velocity":31,"Duration":268096,"SoundDuration":268096,"Delta":210715844},{"NoteNumber":61,"Velocity":30,"Duration":286429,"SoundDuration":286429,"Delta":210983941},{"NoteNumber":68,"Velocity":33,"Duration":827755,"SoundDuration":827755,"Delta":211270370},{"NoteNumber":56,"Velocity":37,"Duration":269905,"SoundDuration":269905,"Delta":211270370},{"NoteNumber":64,"Velocity":32,"Duration":269905,"SoundDuration":269905,"Delta":211540275},{"NoteNumber":61,"Velocity":32,"Duration":287944,"SoundDuration":287944,"Delta":211810181},{"NoteNumber":72,"Velocity":56,"Duration":407608,"SoundDuration":407608,"Delta":212098125},{"NoteNumber":68,"Velocity":34,"Duration":841745,"SoundDuration":841745,"Delta":212098125},{"NoteNumber":56,"Velocity":39,"Duration":203804,"SoundDuration":203804,"Delta":212098125},{"NoteNumber":63,"Velocity":32,"Duration":203804,"SoundDuration":203804,"Delta":212301930},{"NoteNumber":80,"Velocity":60,"Duration":434136,"SoundDuration":434136,"Delta":212505734},{"NoteNumber":60,"Velocity":34,"Duration":213872,"SoundDuration":213872,"Delta":212505734},{"NoteNumber":63,"Velocity":32,"Duration":220264,"SoundDuration":220264,"Delta":212719606},{"NoteNumber":68,"Velocity":51,"Duration":1519602,"SoundDuration":1519602,"Delta":212939871},{"NoteNumber":77,"Velocity":51,"Duration":1519602,"SoundDuration":1519602,"Delta":212939871},{"NoteNumber":80,"Velocity":60,"Duration":1519602,"SoundDuration":1519602,"Delta":212939871},{"NoteNumber":49,"Velocity":36,"Duration":193285,"SoundDuration":193285,"Delta":212939871},{"NoteNumber":61,"Velocity":39,"Duration":193285,"SoundDuration":193285,"Delta":212939871},{"NoteNumber":56,"Velocity":32,"Duration":189965,"SoundDuration":189965,"Delta":213133156},{"NoteNumber":53,"Velocity":32,"Duration":188769,"SoundDuration":188769,"Delta":213323121},{"NoteNumber":56,"Velocity":30,"Duration":187589,"SoundDuration":187589,"Delta":213511891},{"NoteNumber":49,"Velocity":38,"Duration":186423,"SoundDuration":186423,"Delta":213699481},{"NoteNumber":61,"Velocity":33,"Duration":186078,"SoundDuration":186078,"Delta":213885905},{"NoteNumber":56,"Velocity":34,"Duration":190657,"SoundDuration":190657,"Delta":214071983},{"NoteNumber":49,"Velocity":32,"Duration":196832,"SoundDuration":196832,"Delta":214262640},{"NoteNumber":66,"Velocity":46,"Duration":775778,"SoundDuration":775778,"Delta":214459473},{"NoteNumber":75,"Velocity":46,"Duration":775778,"SoundDuration":775778,"Delta":214459473},{"NoteNumber":78,"Velocity":57,"Duration":775778,"SoundDuration":775778,"Delta":214459473},{"NoteNumber":51,"Velocity":45,"Duration":213979,"SoundDuration":213979,"Delta":214459473},{"NoteNumber":60,"Velocity":36,"Duration":187265,"SoundDuration":187265,"Delta":214673453},{"NoteNumber":56,"Velocity":36,"Duration":187265,"SoundDuration":187265,"Delta":214860719},{"NoteNumber":51,"Velocity":33,"Duration":187266,"SoundDuration":187266,"Delta":215047985},{"NoteNumber":65,"Velocity":47,"Duration":782495,"SoundDuration":782495,"Delta":215235251},{"NoteNumber":73,"Velocity":47,"Duration":782495,"SoundDuration":782495,"Delta":215235251},{"NoteNumber":77,"Velocity":58,"Duration":782495,"SoundDuration":782495,"Delta":215235251},{"NoteNumber":68,"Velocity":47,"Duration":782495,"SoundDuration":782495,"Delta":215235251},{"NoteNumber":53,"Velocity":43,"Duration":187265,"SoundDuration":187265,"Delta":215235251},{"NoteNumber":61,"Velocity":39,"Duration":187265,"SoundDuration":187265,"Delta":215422517},{"NoteNumber":56,"Velocity":39,"Duration":199919,"SoundDuration":199919,"Delta":215609783},{"NoteNumber":53,"Velocity":37,"Duration":208044,"SoundDuration":208044,"Delta":215809702},{"NoteNumber":69,"Velocity":62,"Duration":780841,"SoundDuration":780841,"Delta":216017747},{"NoteNumber":75,"Velocity":73,"Duration":780841,"SoundDuration":780841,"Delta":216017747},{"NoteNumber":54,"Velocity":56,"Duration":187265,"SoundDuration":187265,"Delta":216017747},{"NoteNumber":61,"Velocity":42,"Duration":187265,"SoundDuration":187265,"Delta":216205013},{"NoteNumber":57,"Velocity":42,"Duration":198265,"SoundDuration":198265,"Delta":216392279},{"NoteNumber":54,"Velocity":39,"Duration":190707,"SoundDuration":190707,"Delta":216590544},{"NoteNumber":69,"Velocity":63,"Duration":1620997,"SoundDuration":1620997,"Delta":216798589},{"NoteNumber":73,"Velocity":74,"Duration":804764,"SoundDuration":804764,"Delta":216798589},{"NoteNumber":54,"Velocity":57,"Duration":190839,"SoundDuration":190839,"Delta":216798589},{"NoteNumber":61,"Velocity":44,"Duration":190839,"SoundDuration":190839,"Delta":216989428},{"NoteNumber":57,"Velocity":45,"Duration":201190,"SoundDuration":201190,"Delta":217180268},{"NoteNumber":54,"Velocity":43,"Duration":203402,"SoundDuration":203402,"Delta":217381459},{"NoteNumber":72,"Velocity":64,"Duration":816233,"SoundDuration":816233,"Delta":217603353},{"NoteNumber":54,"Velocity":62,"Duration":190839,"SoundDuration":190839,"Delta":217603353},{"NoteNumber":61,"Velocity":47,"Duration":190839,"SoundDuration":190839,"Delta":217794192},{"NoteNumber":57,"Velocity":48,"Duration":212660,"SoundDuration":212660,"Delta":217985032},{"NoteNumber":54,"Velocity":47,"Duration":221893,"SoundDuration":221893,"Delta":218197693},{"NoteNumber":73,"Velocity":82,"Duration":414893,"SoundDuration":414893,"Delta":218419587},{"NoteNumber":69,"Velocity":82,"Duration":414893,"SoundDuration":414893,"Delta":218419587},{"NoteNumber":52,"Velocity":58,"Duration":212464,"SoundDuration":212464,"Delta":218419587},{"NoteNumber":61,"Velocity":52,"Duration":202429,"SoundDuration":202429,"Delta":218632051},{"NoteNumber":78,"Velocity":87,"Duration":426498,"SoundDuration":426498,"Delta":218834480},{"NoteNumber":81,"Velocity":87,"Duration":426498,"SoundDuration":426498,"Delta":218834480},{"NoteNumber":57,"Velocity":57,"Duration":207839,"SoundDuration":207839,"Delta":218834480},{"NoteNumber":52,"Velocity":57,"Duration":218658,"SoundDuration":218658,"Delta":219042319},{"NoteNumber":69,"Velocity":88,"Duration":3073716,"SoundDuration":3073716,"Delta":219260978},{"NoteNumber":78,"Velocity":88,"Duration":3073716,"SoundDuration":3073716,"Delta":219260978},{"NoteNumber":81,"Velocity":101,"Duration":3073716,"SoundDuration":3073716,"Delta":219260978},{"NoteNumber":51,"Velocity":77,"Duration":407608,"SoundDuration":407608,"Delta":219260978},{"NoteNumber":59,"Velocity":77,"Duration":407608,"SoundDuration":407608,"Delta":219260978},{"NoteNumber":57,"Velocity":69,"Duration":183823,"SoundDuration":183823,"Delta":219668587},{"NoteNumber":60,"Velocity":57,"Duration":183823,"SoundDuration":183823,"Delta":219852410},{"NoteNumber":59,"Velocity":41,"Duration":183823,"SoundDuration":183823,"Delta":220036234},{"NoteNumber":58,"Velocity":37,"Duration":183823,"SoundDuration":183823,"Delta":220220057},{"NoteNumber":59,"Velocity":41,"Duration":183823,"SoundDuration":183823,"Delta":220403881},{"NoteNumber":54,"Velocity":35,"Duration":183823,"SoundDuration":183823,"Delta":220587704},{"NoteNumber":51,"Velocity":41,"Duration":183823,"SoundDuration":183823,"Delta":220771528},{"NoteNumber":49,"Velocity":37,"Duration":183823,"SoundDuration":183823,"Delta":220955351},{"NoteNumber":51,"Velocity":41,"Duration":181598,"SoundDuration":181598,"Delta":221139175},{"NoteNumber":47,"Velocity":40,"Duration":210970,"SoundDuration":210970,"Delta":221320773},{"NoteNumber":51,"Velocity":49,"Duration":99866,"SoundDuration":99866,"Delta":221531743},{"NoteNumber":54,"Velocity":41,"Duration":100536,"SoundDuration":100536,"Delta":221932550},{"NoteNumber":75,"Velocity":88,"Duration":3016934,"SoundDuration":3016934,"Delta":222334695},{"NoteNumber":78,"Velocity":88,"Duration":3016934,"SoundDuration":3016934,"Delta":222334695},{"NoteNumber":81,"Velocity":88,"Duration":3016934,"SoundDuration":3016934,"Delta":222334695},{"NoteNumber":87,"Velocity":101,"Duration":3016934,"SoundDuration":3016934,"Delta":222334695},{"NoteNumber":57,"Velocity":69,"Duration":179425,"SoundDuration":179425,"Delta":222762851},{"NoteNumber":60,"Velocity":57,"Duration":179425,"SoundDuration":179425,"Delta":222942277},{"NoteNumber":59,"Velocity":41,"Duration":179425,"SoundDuration":179425,"Delta":223121702},{"NoteNumber":58,"Velocity":37,"Duration":179425,"SoundDuration":179425,"Delta":223301128},{"NoteNumber":59,"Velocity":41,"Duration":179425,"SoundDuration":179425,"Delta":223480554},{"NoteNumber":54,"Velocity":35,"Duration":179425,"SoundDuration":179425,"Delta":223659980},{"NoteNumber":51,"Velocity":41,"Duration":181598,"SoundDuration":181598,"Delta":223839405},{"NoteNumber":49,"Velocity":37,"Duration":181597,"SoundDuration":181597,"Delta":224021003},{"NoteNumber":51,"Velocity":41,"Duration":181598,"SoundDuration":181598,"Delta":224202601},{"NoteNumber":47,"Velocity":40,"Duration":208044,"SoundDuration":208044,"Delta":224384199},{"NoteNumber":51,"Velocity":49,"Duration":100536,"SoundDuration":100536,"Delta":224592244},{"NoteNumber":54,"Velocity":41,"Duration":93052,"SoundDuration":93052,"Delta":224979421},{"NoteNumber":87,"Velocity":88,"Duration":3059508,"SoundDuration":3059508,"Delta":225351629},{"NoteNumber":78,"Velocity":88,"Duration":3059508,"SoundDuration":3059508,"Delta":225351629},{"NoteNumber":81,"Velocity":88,"Duration":3059508,"SoundDuration":3059508,"Delta":225351629},{"NoteNumber":90,"Velocity":101,"Duration":3059508,"SoundDuration":3059508,"Delta":225351629},{"NoteNumber":57,"Velocity":69,"Duration":186104,"SoundDuration":186104,"Delta":225770624},{"NoteNumber":60,"Velocity":57,"Duration":186104,"SoundDuration":186104,"Delta":225956728},{"NoteNumber":59,"Velocity":41,"Duration":189633,"SoundDuration":189633,"Delta":226142832},{"NoteNumber":58,"Velocity":37,"Duration":186104,"SoundDuration":186104,"Delta":226332466},{"NoteNumber":59,"Velocity":41,"Duration":186104,"SoundDuration":186104,"Delta":226518570},{"NoteNumber":54,"Velocity":35,"Duration":186104,"SoundDuration":186104,"Delta":226704674},{"NoteNumber":51,"Velocity":41,"Duration":187265,"SoundDuration":187265,"Delta":226890778},{"NoteNumber":49,"Velocity":37,"Duration":187265,"SoundDuration":187265,"Delta":227078044},{"NoteNumber":51,"Velocity":41,"Duration":187266,"SoundDuration":187266,"Delta":227265310},{"NoteNumber":47,"Velocity":40,"Duration":209497,"SoundDuration":209497,"Delta":227452576},{"NoteNumber":51,"Velocity":49,"Duration":187265,"SoundDuration":187265,"Delta":227662074},{"NoteNumber":49,"Velocity":47,"Duration":187265,"SoundDuration":187265,"Delta":227849340},{"NoteNumber":51,"Velocity":49,"Duration":187266,"SoundDuration":187266,"Delta":228036606},{"NoteNumber":54,"Velocity":50,"Duration":187265,"SoundDuration":187265,"Delta":228223872},{"NoteNumber":78,"Velocity":68,"Duration":208044,"SoundDuration":208044,"Delta":228411138},{"NoteNumber":57,"Velocity":58,"Duration":208044,"SoundDuration":208044,"Delta":228411138},{"NoteNumber":69,"Velocity":39,"Duration":188442,"SoundDuration":188442,"Delta":228827227},{"NoteNumber":51,"Velocity":26,"Duration":376884,"SoundDuration":376884,"Delta":228827227},{"NoteNumber":72,"Velocity":32,"Duration":188442,"SoundDuration":188442,"Delta":229015669},{"NoteNumber":71,"Velocity":40,"Duration":188442,"SoundDuration":188442,"Delta":229204111},{"NoteNumber":54,"Velocity":30,"Duration":376884,"SoundDuration":376884,"Delta":229204111},{"NoteNumber":70,"Velocity":37,"Duration":188442,"SoundDuration":188442,"Delta":229392553},{"NoteNumber":71,"Velocity":41,"Duration":188442,"SoundDuration":188442,"Delta":229580996},{"NoteNumber":59,"Velocity":29,"Duration":405518,"SoundDuration":405518,"Delta":229580996},{"NoteNumber":68,"Velocity":35,"Duration":217076,"SoundDuration":217076,"Delta":229769438},{"NoteNumber":78,"Velocity":68,"Duration":208044,"SoundDuration":208044,"Delta":229986515},{"NoteNumber":57,"Velocity":58,"Duration":208044,"SoundDuration":208044,"Delta":229986515},{"NoteNumber":69,"Velocity":39,"Duration":190839,"SoundDuration":190839,"Delta":230402604},{"NoteNumber":51,"Velocity":26,"Duration":381679,"SoundDuration":381679,"Delta":230402604},{"NoteNumber":72,"Velocity":32,"Duration":190839,"SoundDuration":190839,"Delta":230593443},{"NoteNumber":71,"Velocity":40,"Duration":190839,"SoundDuration":190839,"Delta":230784283},{"NoteNumber":54,"Velocity":30,"Duration":381679,"SoundDuration":381679,"Delta":230784283},{"NoteNumber":70,"Velocity":37,"Duration":190839,"SoundDuration":190839,"Delta":230975123},{"NoteNumber":71,"Velocity":41,"Duration":190839,"SoundDuration":190839,"Delta":231165963},{"NoteNumber":59,"Velocity":29,"Duration":407916,"SoundDuration":407916,"Delta":231165963},{"NoteNumber":68,"Velocity":35,"Duration":217076,"SoundDuration":217076,"Delta":231356802},{"NoteNumber":78,"Velocity":68,"Duration":208044,"SoundDuration":208044,"Delta":231573879},{"NoteNumber":57,"Velocity":58,"Duration":208044,"SoundDuration":208044,"Delta":231573879},{"NoteNumber":69,"Velocity":39,"Duration":195822,"SoundDuration":195822,"Delta":231989968},{"NoteNumber":51,"Velocity":26,"Duration":391645,"SoundDuration":391645,"Delta":231989968},{"NoteNumber":72,"Velocity":32,"Duration":195822,"SoundDuration":195822,"Delta":232185791},{"NoteNumber":71,"Velocity":40,"Duration":195822,"SoundDuration":195822,"Delta":232381613},{"NoteNumber":54,"Velocity":30,"Duration":391644,"SoundDuration":391644,"Delta":232381613},{"NoteNumber":70,"Velocity":37,"Duration":195822,"SoundDuration":195822,"Delta":232577436},{"NoteNumber":71,"Velocity":41,"Duration":195822,"SoundDuration":195822,"Delta":232773258},{"NoteNumber":59,"Velocity":29,"Duration":629976,"SoundDuration":629976,"Delta":232773258},{"NoteNumber":69,"Velocity":35,"Duration":217076,"SoundDuration":217076,"Delta":232969081},{"NoteNumber":68,"Velocity":40,"Duration":217076,"SoundDuration":217076,"Delta":233186157},{"NoteNumber":66,"Velocity":31,"Duration":217076,"SoundDuration":217076,"Delta":233403234},{"NoteNumber":57,"Velocity":27,"Duration":217076,"SoundDuration":217076,"Delta":233403234},{"NoteNumber":68,"Velocity":35,"Duration":217076,"SoundDuration":217076,"Delta":233620311},{"NoteNumber":59,"Velocity":30,"Duration":217076,"SoundDuration":217076,"Delta":233620311},{"NoteNumber":66,"Velocity":30,"Duration":217076,"SoundDuration":217076,"Delta":233837388},{"NoteNumber":57,"Velocity":26,"Duration":217076,"SoundDuration":217076,"Delta":233837388},{"NoteNumber":64,"Velocity":37,"Duration":217076,"SoundDuration":217076,"Delta":234054464},{"NoteNumber":56,"Velocity":30,"Duration":217076,"SoundDuration":217076,"Delta":234054464},{"NoteNumber":63,"Velocity":29,"Duration":223546,"SoundDuration":223546,"Delta":234271541},{"NoteNumber":57,"Velocity":25,"Duration":223546,"SoundDuration":223546,"Delta":234271541},{"NoteNumber":64,"Velocity":29,"Duration":223546,"SoundDuration":223546,"Delta":234495088},{"NoteNumber":56,"Velocity":30,"Duration":223546,"SoundDuration":223546,"Delta":234495088},{"NoteNumber":66,"Velocity":29,"Duration":237718,"SoundDuration":237718,"Delta":234718635},{"NoteNumber":54,"Velocity":26,"Duration":237718,"SoundDuration":237718,"Delta":234718635},{"NoteNumber":68,"Velocity":42,"Duration":849858,"SoundDuration":849858,"Delta":234956353},{"NoteNumber":64,"Velocity":31,"Duration":212464,"SoundDuration":212464,"Delta":234956353},{"NoteNumber":40,"Velocity":25,"Duration":424928,"SoundDuration":424928,"Delta":234956353},{"NoteNumber":52,"Velocity":30,"Duration":424928,"SoundDuration":424928,"Delta":234956353},{"NoteNumber":59,"Velocity":26,"Duration":212464,"SoundDuration":212464,"Delta":235168818},{"NoteNumber":64,"Velocity":31,"Duration":212464,"SoundDuration":212464,"Delta":235381282},{"NoteNumber":59,"Velocity":26,"Duration":212464,"SoundDuration":212464,"Delta":235593747},{"NoteNumber":71,"Velocity":45,"Duration":418994,"SoundDuration":418994,"Delta":235806211},{"NoteNumber":68,"Velocity":45,"Duration":209497,"SoundDuration":209497,"Delta":235806211},{"NoteNumber":59,"Velocity":27,"Duration":209497,"SoundDuration":209497,"Delta":236015708},{"NoteNumber":69,"Velocity":40,"Duration":434244,"SoundDuration":434244,"Delta":236225206},{"NoteNumber":66,"Velocity":40,"Duration":213979,"SoundDuration":213979,"Delta":236225206},{"NoteNumber":59,"Velocity":27,"Duration":220264,"SoundDuration":220264,"Delta":236439186},{"NoteNumber":64,"Velocity":34,"Duration":217076,"SoundDuration":217076,"Delta":236659450},{"NoteNumber":68,"Velocity":50,"Duration":434153,"SoundDuration":434153,"Delta":236659450},{"NoteNumber":35,"Velocity":25,"Duration":434153,"SoundDuration":434153,"Delta":236659450},{"NoteNumber":47,"Velocity":30,"Duration":434153,"SoundDuration":434153,"Delta":236659450},{"NoteNumber":59,"Velocity":26,"Duration":217076,"SoundDuration":217076,"Delta":236876527},{"NoteNumber":63,"Velocity":27,"Duration":212464,"SoundDuration":212464,"Delta":237093603},{"NoteNumber":66,"Velocity":41,"Duration":371812,"SoundDuration":371812,"Delta":237093603},{"NoteNumber":59,"Velocity":25,"Duration":159348,"SoundDuration":159348,"Delta":237306068},{"NoteNumber":63,"Velocity":27,"Duration":212464,"SoundDuration":212464,"Delta":237518532},{"NoteNumber":66,"Velocity":41,"Duration":424929,"SoundDuration":424929,"Delta":237518532},{"NoteNumber":59,"Velocity":26,"Duration":212464,"SoundDuration":212464,"Delta":237730997},{"NoteNumber":64,"Velocity":28,"Duration":208044,"SoundDuration":208044,"Delta":237943461},{"NoteNumber":68,"Velocity":43,"Duration":416088,"SoundDuration":416088,"Delta":237943461},{"NoteNumber":59,"Velocity":28,"Duration":208044,"SoundDuration":208044,"Delta":238151506},{"NoteNumber":64,"Velocity":30,"Duration":212464,"SoundDuration":212464,"Delta":238359550},{"NoteNumber":69,"Velocity":46,"Duration":424928,"SoundDuration":424928,"Delta":238359550},{"NoteNumber":37,"Velocity":25,"Duration":424928,"SoundDuration":424928,"Delta":238359550},{"NoteNumber":49,"Velocity":30,"Duration":424928,"SoundDuration":424928,"Delta":238359550},{"NoteNumber":59,"Velocity":28,"Duration":212464,"SoundDuration":212464,"Delta":238572015},{"NoteNumber":64,"Velocity":36,"Duration":212464,"SoundDuration":212464,"Delta":238784479},{"NoteNumber":73,"Velocity":54,"Duration":424929,"SoundDuration":424929,"Delta":238784479},{"NoteNumber":59,"Velocity":31,"Duration":212464,"SoundDuration":212464,"Delta":238996944},{"NoteNumber":66,"Velocity":37,"Duration":212464,"SoundDuration":212464,"Delta":239209408},{"NoteNumber":71,"Velocity":47,"Duration":424928,"SoundDuration":424928,"Delta":239209408},{"NoteNumber":51,"Velocity":28,"Duration":424928,"SoundDuration":424928,"Delta":239209408},{"NoteNumber":39,"Velocity":23,"Duration":424928,"SoundDuration":424928,"Delta":239209408},{"NoteNumber":59,"Velocity":26,"Duration":212464,"SoundDuration":212464,"Delta":239421873},{"NoteNumber":63,"Velocity":25,"Duration":217076,"SoundDuration":217076,"Delta":239634337},{"NoteNumber":66,"Velocity":38,"Duration":468754,"SoundDuration":468754,"Delta":239634337},{"NoteNumber":47,"Velocity":26,"Duration":468754,"SoundDuration":468754,"Delta":239634337},{"NoteNumber":35,"Velocity":22,"Duration":468754,"SoundDuration":468754,"Delta":239634337},{"NoteNumber":59,"Velocity":27,"Duration":251677,"SoundDuration":251677,"Delta":239851414},{"NoteNumber":59,"Velocity":35,"Duration":637393,"SoundDuration":637393,"Delta":240103092},{"NoteNumber":64,"Velocity":35,"Duration":849858,"SoundDuration":849858,"Delta":240103092},{"NoteNumber":68,"Velocity":42,"Duration":849858,"SoundDuration":849858,"Delta":240103092},{"NoteNumber":40,"Velocity":28,"Duration":212464,"SoundDuration":212464,"Delta":240103092},{"NoteNumber":52,"Velocity":28,"Duration":212464,"SoundDuration":212464,"Delta":240103092},{"NoteNumber":56,"Velocity":25,"Duration":212464,"SoundDuration":212464,"Delta":240315556},{"NoteNumber":59,"Velocity":28,"Duration":424929,"SoundDuration":424929,"Delta":240528021},{"NoteNumber":57,"Velocity":26,"Duration":212464,"SoundDuration":212464,"Delta":240740485},{"NoteNumber":56,"Velocity":28,"Duration":212464,"SoundDuration":212464,"Delta":240952950},{"NoteNumber":57,"Velocity":25,"Duration":212464,"SoundDuration":212464,"Delta":241165414},{"NoteNumber":76,"Velocity":47,"Duration":212464,"SoundDuration":212464,"Delta":241377879},{"NoteNumber":56,"Velocity":30,"Duration":212464,"SoundDuration":212464,"Delta":241377879},{"NoteNumber":78,"Velocity":42,"Duration":230414,"SoundDuration":230414,"Delta":241590343},{"NoteNumber":54,"Velocity":27,"Duration":230414,"SoundDuration":230414,"Delta":241590343},{"NoteNumber":68,"Velocity":55,"Duration":849858,"SoundDuration":849858,"Delta":241820758},{"NoteNumber":80,"Velocity":55,"Duration":849858,"SoundDuration":849858,"Delta":241820758},{"NoteNumber":52,"Velocity":37,"Duration":212464,"SoundDuration":212464,"Delta":241820758},{"NoteNumber":59,"Velocity":28,"Duration":212464,"SoundDuration":212464,"Delta":242033223},{"NoteNumber":47,"Velocity":34,"Duration":212464,"SoundDuration":212464,"Delta":242245687},{"NoteNumber":59,"Velocity":28,"Duration":212464,"SoundDuration":212464,"Delta":242458152},{"NoteNumber":71,"Velocity":50,"Duration":418994,"SoundDuration":418994,"Delta":242670616},{"NoteNumber":83,"Velocity":50,"Duration":418994,"SoundDuration":418994,"Delta":242670616},{"NoteNumber":52,"Velocity":33,"Duration":209497,"SoundDuration":209497,"Delta":242670616},{"NoteNumber":59,"Velocity":29,"Duration":209497,"SoundDuration":209497,"Delta":242880113},{"NoteNumber":69,"Velocity":47,"Duration":434244,"SoundDuration":434244,"Delta":243089611},{"NoteNumber":81,"Velocity":47,"Duration":434244,"SoundDuration":434244,"Delta":243089611},{"NoteNumber":47,"Velocity":30,"Duration":213979,"SoundDuration":213979,"Delta":243089611},{"NoteNumber":59,"Velocity":29,"Duration":220264,"SoundDuration":220264,"Delta":243303591},{"NoteNumber":68,"Velocity":55,"Duration":434153,"SoundDuration":434153,"Delta":243523855},{"NoteNumber":80,"Velocity":55,"Duration":434153,"SoundDuration":434153,"Delta":243523855},{"NoteNumber":51,"Velocity":37,"Duration":217076,"SoundDuration":217076,"Delta":243523855},{"NoteNumber":59,"Velocity":28,"Duration":217076,"SoundDuration":217076,"Delta":243740932},{"NoteNumber":66,"Velocity":45,"Duration":371812,"SoundDuration":371812,"Delta":243958008},{"NoteNumber":78,"Velocity":45,"Duration":371812,"SoundDuration":371812,"Delta":243958008},{"NoteNumber":47,"Velocity":29,"Duration":212464,"SoundDuration":212464,"Delta":243958008},{"NoteNumber":59,"Velocity":27,"Duration":159348,"SoundDuration":159348,"Delta":244170473},{"NoteNumber":66,"Velocity":45,"Duration":424929,"SoundDuration":424929,"Delta":244382937},{"NoteNumber":78,"Velocity":45,"Duration":424929,"SoundDuration":424929,"Delta":244382937},{"NoteNumber":51,"Velocity":29,"Duration":212464,"SoundDuration":212464,"Delta":244382937},{"NoteNumber":59,"Velocity":28,"Duration":212464,"SoundDuration":212464,"Delta":244595402},{"NoteNumber":68,"Velocity":49,"Duration":416088,"SoundDuration":416088,"Delta":244807866},{"NoteNumber":80,"Velocity":49,"Duration":416088,"SoundDuration":416088,"Delta":244807866},{"NoteNumber":53,"Velocity":31,"Duration":208044,"SoundDuration":208044,"Delta":244807866},{"NoteNumber":59,"Velocity":33,"Duration":208044,"SoundDuration":208044,"Delta":245015911},{"NoteNumber":69,"Velocity":47,"Duration":424928,"SoundDuration":424928,"Delta":245223955},{"NoteNumber":81,"Velocity":56,"Duration":424928,"SoundDuration":424928,"Delta":245223955},{"NoteNumber":54,"Velocity":36,"Duration":212464,"SoundDuration":212464,"Delta":245223955},{"NoteNumber":59,"Velocity":35,"Duration":212464,"SoundDuration":212464,"Delta":245436420},{"NoteNumber":73,"Velocity":50,"Duration":424929,"SoundDuration":424929,"Delta":245648884},{"NoteNumber":85,"Velocity":60,"Duration":424929,"SoundDuration":424929,"Delta":245648884},{"NoteNumber":57,"Velocity":41,"Duration":212464,"SoundDuration":212464,"Delta":245648884},{"NoteNumber":59,"Velocity":36,"Duration":212464,"SoundDuration":212464,"Delta":245861349},{"NoteNumber":71,"Velocity":46,"Duration":424928,"SoundDuration":424928,"Delta":246073813},{"NoteNumber":83,"Velocity":56,"Duration":424928,"SoundDuration":424928,"Delta":246073813},{"NoteNumber":56,"Velocity":37,"Duration":212464,"SoundDuration":212464,"Delta":246073813},{"NoteNumber":59,"Velocity":31,"Duration":212464,"SoundDuration":212464,"Delta":246286278},{"NoteNumber":87,"Velocity":49,"Duration":468754,"SoundDuration":468754,"Delta":246498742},{"NoteNumber":75,"Velocity":32,"Duration":468754,"SoundDuration":468754,"Delta":246498742},{"NoteNumber":47,"Velocity":25,"Duration":217076,"SoundDuration":217076,"Delta":246498742},{"NoteNumber":54,"Velocity":25,"Duration":217076,"SoundDuration":217076,"Delta":246498742},{"NoteNumber":57,"Velocity":27,"Duration":251677,"SoundDuration":251677,"Delta":246715819},{"NoteNumber":88,"Velocity":57,"Duration":849858,"SoundDuration":849858,"Delta":246967497},{"NoteNumber":76,"Velocity":35,"Duration":849858,"SoundDuration":849858,"Delta":246967497},{"NoteNumber":52,"Velocity":31,"Duration":212464,"SoundDuration":212464,"Delta":246967497},{"NoteNumber":56,"Velocity":31,"Duration":212464,"SoundDuration":212464,"Delta":246967497},{"NoteNumber":59,"Velocity":23,"Duration":212464,"SoundDuration":212464,"Delta":247179961},{"NoteNumber":56,"Velocity":31,"Duration":212464,"SoundDuration":212464,"Delta":247392426},{"NoteNumber":52,"Velocity":25,"Duration":212464,"SoundDuration":212464,"Delta":247604890},{"NoteNumber":51,"Velocity":31,"Duration":208044,"SoundDuration":208044,"Delta":247817355},{"NoteNumber":59,"Velocity":27,"Duration":208044,"SoundDuration":208044,"Delta":248025399},{"NoteNumber":71,"Velocity":47,"Duration":434973,"SoundDuration":434973,"Delta":248233444},{"NoteNumber":54,"Velocity":31,"Duration":208044,"SoundDuration":208044,"Delta":248233444},{"NoteNumber":51,"Velocity":32,"Duration":226929,"SoundDuration":226929,"Delta":248441488},{"NoteNumber":70,"Velocity":51,"Duration":849858,"SoundDuration":849858,"Delta":248668417},{"NoteNumber":49,"Velocity":38,"Duration":212464,"SoundDuration":212464,"Delta":248668417},{"NoteNumber":58,"Velocity":29,"Duration":212464,"SoundDuration":212464,"Delta":248880882},{"NoteNumber":54,"Velocity":31,"Duration":212464,"SoundDuration":212464,"Delta":249093346},{"NoteNumber":49,"Velocity":27,"Duration":212464,"SoundDuration":212464,"Delta":249305811},{"NoteNumber":76,"Velocity":56,"Duration":862618,"SoundDuration":862618,"Delta":249518275},{"NoteNumber":42,"Velocity":31,"Duration":212464,"SoundDuration":212464,"Delta":249518275},{"NoteNumber":58,"Velocity":26,"Duration":212464,"SoundDuration":212464,"Delta":249730740},{"NoteNumber":54,"Velocity":29,"Duration":212464,"SoundDuration":212464,"Delta":249943204},{"NoteNumber":49,"Velocity":27,"Duration":225225,"SoundDuration":225225,"Delta":250155669},{"NoteNumber":75,"Velocity":51,"Duration":1283880,"SoundDuration":1283880,"Delta":250380894},{"NoteNumber":47,"Velocity":31,"Duration":213979,"SoundDuration":213979,"Delta":250380894},{"NoteNumber":59,"Velocity":25,"Duration":213980,"SoundDuration":213980,"Delta":250594874},{"NoteNumber":54,"Velocity":30,"Duration":213979,"SoundDuration":213979,"Delta":250808854},{"NoteNumber":51,"Velocity":27,"Duration":213979,"SoundDuration":213979,"Delta":251022834},{"NoteNumber":47,"Velocity":37,"Duration":213979,"SoundDuration":213979,"Delta":251236814},{"NoteNumber":59,"Velocity":30,"Duration":213980,"SoundDuration":213980,"Delta":251450794},{"NoteNumber":69,"Velocity":45,"Duration":437526,"SoundDuration":437526,"Delta":251664774},{"NoteNumber":49,"Velocity":37,"Duration":213979,"SoundDuration":213979,"Delta":251664774},{"NoteNumber":57,"Velocity":33,"Duration":223546,"SoundDuration":223546,"Delta":251878754},{"NoteNumber":68,"Velocity":51,"Duration":855919,"SoundDuration":855919,"Delta":252102301},{"NoteNumber":47,"Velocity":31,"Duration":213979,"SoundDuration":213979,"Delta":252102301},{"NoteNumber":56,"Velocity":36,"Duration":213980,"SoundDuration":213980,"Delta":252316281},{"NoteNumber":52,"Velocity":39,"Duration":213979,"SoundDuration":213979,"Delta":252530261},{"NoteNumber":47,"Velocity":45,"Duration":213979,"SoundDuration":213979,"Delta":252744241},{"NoteNumber":74,"Velocity":54,"Duration":875949,"SoundDuration":875949,"Delta":252958221},{"NoteNumber":40,"Velocity":47,"Duration":213979,"SoundDuration":213979,"Delta":252958221},{"NoteNumber":56,"Velocity":32,"Duration":213980,"SoundDuration":213980,"Delta":253172201},{"NoteNumber":52,"Velocity":36,"Duration":213979,"SoundDuration":213979,"Delta":253386181},{"NoteNumber":47,"Velocity":29,"Duration":234009,"SoundDuration":234009,"Delta":253600161},{"NoteNumber":73,"Velocity":51,"Duration":1279397,"SoundDuration":1279397,"Delta":253834170},{"NoteNumber":45,"Velocity":35,"Duration":213979,"SoundDuration":213979,"Delta":253834170},{"NoteNumber":57,"Velocity":27,"Duration":213980,"SoundDuration":213980,"Delta":254048150},{"NoteNumber":52,"Velocity":31,"Duration":213979,"SoundDuration":213979,"Delta":254262130},{"NoteNumber":49,"Velocity":27,"Duration":213979,"SoundDuration":213979,"Delta":254476110},{"NoteNumber":45,"Velocity":31,"Duration":213979,"SoundDuration":213979,"Delta":254690090},{"NoteNumber":52,"Velocity":29,"Duration":209497,"SoundDuration":209497,"Delta":254904070},{"NoteNumber":73,"Velocity":48,"Duration":418994,"SoundDuration":418994,"Delta":255113568},{"NoteNumber":45,"Velocity":34,"Duration":209497,"SoundDuration":209497,"Delta":255113568},{"NoteNumber":52,"Velocity":38,"Duration":209497,"SoundDuration":209497,"Delta":255323065},{"NoteNumber":72,"Velocity":57,"Duration":424929,"SoundDuration":424929,"Delta":255532562},{"NoteNumber":45,"Velocity":39,"Duration":212464,"SoundDuration":212464,"Delta":255532562},{"NoteNumber":52,"Velocity":35,"Duration":212464,"SoundDuration":212464,"Delta":255745027},{"NoteNumber":73,"Velocity":58,"Duration":424928,"SoundDuration":424928,"Delta":255957491},{"NoteNumber":45,"Velocity":38,"Duration":212464,"SoundDuration":212464,"Delta":255957491},{"NoteNumber":52,"Velocity":35,"Duration":212464,"SoundDuration":212464,"Delta":256169956},{"NoteNumber":69,"Velocity":55,"Duration":318696,"SoundDuration":318696,"Delta":256382420},{"NoteNumber":64,"Velocity":46,"Duration":318696,"SoundDuration":318696,"Delta":256382420},{"NoteNumber":61,"Velocity":46,"Duration":318696,"SoundDuration":318696,"Delta":256382420},{"NoteNumber":45,"Velocity":44,"Duration":212464,"SoundDuration":212464,"Delta":256382420},{"NoteNumber":52,"Velocity":36,"Duration":212464,"SoundDuration":212464,"Delta":256594885},{"NoteNumber":68,"Velocity":55,"Duration":329469,"SoundDuration":329469,"Delta":256807349},{"NoteNumber":64,"Velocity":46,"Duration":329469,"SoundDuration":329469,"Delta":256807349},{"NoteNumber":59,"Velocity":46,"Duration":329469,"SoundDuration":329469,"Delta":256807349},{"NoteNumber":47,"Velocity":44,"Duration":212464,"SoundDuration":212464,"Delta":256807349},{"NoteNumber":52,"Velocity":37,"Duration":234009,"SoundDuration":234009,"Delta":257019814},{"NoteNumber":68,"Velocity":76,"Duration":427959,"SoundDuration":427959,"Delta":257253823},{"NoteNumber":64,"Velocity":64,"Duration":868868,"SoundDuration":868868,"Delta":257253823},{"NoteNumber":58,"Velocity":64,"Duration":868868,"SoundDuration":868868,"Delta":257253823},{"NoteNumber":49,"Velocity":55,"Duration":213979,"SoundDuration":213979,"Delta":257253823},{"NoteNumber":52,"Velocity":48,"Duration":213979,"SoundDuration":213979,"Delta":257467803},{"NoteNumber":66,"Velocity":62,"Duration":851037,"SoundDuration":851037,"Delta":257681783},{"NoteNumber":49,"Velocity":54,"Duration":213979,"SoundDuration":213979,"Delta":257681783},{"NoteNumber":52,"Velocity":43,"Duration":226928,"SoundDuration":226928,"Delta":257895763},{"NoteNumber":64,"Velocity":63,"Duration":883486,"SoundDuration":883486,"Delta":258122692},{"NoteNumber":57,"Velocity":63,"Duration":883486,"SoundDuration":883486,"Delta":258122692},{"NoteNumber":48,"Velocity":50,"Duration":213979,"SoundDuration":213979,"Delta":258122692},{"NoteNumber":52,"Velocity":39,"Duration":213979,"SoundDuration":213979,"Delta":258336672},{"NoteNumber":66,"Velocity":67,"Duration":435397,"SoundDuration":435397,"Delta":258550652},{"NoteNumber":48,"Velocity":49,"Duration":213979,"SoundDuration":213979,"Delta":258550652},{"NoteNumber":52,"Velocity":39,"Duration":241546,"SoundDuration":241546,"Delta":258764632},{"NoteNumber":66,"Velocity":49,"Duration":431034,"SoundDuration":431034,"Delta":259006178},{"NoteNumber":63,"Velocity":41,"Duration":431034,"SoundDuration":431034,"Delta":259006178},{"NoteNumber":57,"Velocity":41,"Duration":431034,"SoundDuration":431034,"Delta":259006178},{"NoteNumber":47,"Velocity":31,"Duration":215517,"SoundDuration":215517,"Delta":259006178},{"NoteNumber":54,"Velocity":27,"Duration":215517,"SoundDuration":215517,"Delta":259221695},{"NoteNumber":71,"Velocity":38,"Duration":431034,"SoundDuration":431034,"Delta":259437212},{"NoteNumber":63,"Velocity":32,"Duration":878128,"SoundDuration":878128,"Delta":259437212},{"NoteNumber":47,"Velocity":31,"Duration":215517,"SoundDuration":215517,"Delta":259437212},{"NoteNumber":54,"Velocity":29,"Duration":215517,"SoundDuration":215517,"Delta":259652730},{"NoteNumber":57,"Velocity":29,"Duration":215517,"SoundDuration":215517,"Delta":259652730},{"NoteNumber":70,"Velocity":46,"Duration":447093,"SoundDuration":447093,"Delta":259868247},{"NoteNumber":47,"Velocity":31,"Duration":223546,"SoundDuration":223546,"Delta":259868247},{"NoteNumber":54,"Velocity":27,"Duration":223546,"SoundDuration":223546,"Delta":260091794},{"NoteNumber":57,"Velocity":27,"Duration":223546,"SoundDuration":223546,"Delta":260091794},{"NoteNumber":71,"Velocity":40,"Duration":473131,"SoundDuration":473131,"Delta":260315341},{"NoteNumber":63,"Velocity":34,"Duration":473131,"SoundDuration":473131,"Delta":260315341},{"NoteNumber":47,"Velocity":31,"Duration":223546,"SoundDuration":223546,"Delta":260315341},{"NoteNumber":57,"Velocity":28,"Duration":249584,"SoundDuration":249584,"Delta":260538888},{"NoteNumber":54,"Velocity":28,"Duration":249584,"SoundDuration":249584,"Delta":260538888},{"NoteNumber":64,"Velocity":51,"Duration":849857,"SoundDuration":849857,"Delta":260788472},{"NoteNumber":52,"Velocity":31,"Duration":212464,"SoundDuration":212464,"Delta":260788472},{"NoteNumber":56,"Velocity":31,"Duration":212464,"SoundDuration":212464,"Delta":260788472},{"NoteNumber":59,"Velocity":23,"Duration":212464,"SoundDuration":212464,"Delta":261000936},{"NoteNumber":56,"Velocity":31,"Duration":212464,"SoundDuration":212464,"Delta":261213401},{"NoteNumber":52,"Velocity":25,"Duration":212464,"SoundDuration":212464,"Delta":261425865},{"NoteNumber":51,"Velocity":31,"Duration":208044,"SoundDuration":208044,"Delta":261638330},{"NoteNumber":59,"Velocity":27,"Duration":208044,"SoundDuration":208044,"Delta":261846374},{"NoteNumber":83,"Velocity":47,"Duration":434973,"SoundDuration":434973,"Delta":262054419},{"NoteNumber":71,"Velocity":47,"Duration":434973,"SoundDuration":434973,"Delta":262054419},{"NoteNumber":54,"Velocity":31,"Duration":208044,"SoundDuration":208044,"Delta":262054419},{"NoteNumber":51,"Velocity":32,"Duration":226928,"SoundDuration":226928,"Delta":262262463},{"NoteNumber":82,"Velocity":51,"Duration":849857,"SoundDuration":849857,"Delta":262489392},{"NoteNumber":70,"Velocity":51,"Duration":849857,"SoundDuration":849857,"Delta":262489392},{"NoteNumber":49,"Velocity":38,"Duration":212464,"SoundDuration":212464,"Delta":262489392},{"NoteNumber":58,"Velocity":37,"Duration":212464,"SoundDuration":212464,"Delta":262701857},{"NoteNumber":54,"Velocity":40,"Duration":212464,"SoundDuration":212464,"Delta":262914321},{"NoteNumber":49,"Velocity":43,"Duration":212464,"SoundDuration":212464,"Delta":263126786},{"NoteNumber":88,"Velocity":61,"Duration":862618,"SoundDuration":862618,"Delta":263339250},{"NoteNumber":76,"Velocity":61,"Duration":862618,"SoundDuration":862618,"Delta":263339250},{"NoteNumber":42,"Velocity":44,"Duration":212464,"SoundDuration":212464,"Delta":263339250},{"NoteNumber":58,"Velocity":33,"Duration":212464,"SoundDuration":212464,"Delta":263551715},{"NoteNumber":54,"Velocity":39,"Duration":212464,"SoundDuration":212464,"Delta":263764179},{"NoteNumber":49,"Velocity":27,"Duration":225225,"SoundDuration":225225,"Delta":263976644},{"NoteNumber":87,"Velocity":56,"Duration":1283880,"SoundDuration":1283880,"Delta":264201869},{"NoteNumber":75,"Velocity":56,"Duration":1283880,"SoundDuration":1283880,"Delta":264201869},{"NoteNumber":47,"Velocity":31,"Duration":213979,"SoundDuration":213979,"Delta":264201869},{"NoteNumber":59,"Velocity":25,"Duration":213979,"SoundDuration":213979,"Delta":264415849},{"NoteNumber":54,"Velocity":30,"Duration":213979,"SoundDuration":213979,"Delta":264629829},{"NoteNumber":51,"Velocity":27,"Duration":213980,"SoundDuration":213980,"Delta":264843809},{"NoteNumber":47,"Velocity":37,"Duration":213979,"SoundDuration":213979,"Delta":265057789},{"NoteNumber":59,"Velocity":30,"Duration":213979,"SoundDuration":213979,"Delta":265271769},{"NoteNumber":81,"Velocity":49,"Duration":437526,"SoundDuration":437526,"Delta":265485749},{"NoteNumber":69,"Velocity":49,"Duration":437526,"SoundDuration":437526,"Delta":265485749},{"NoteNumber":49,"Velocity":37,"Duration":213979,"SoundDuration":213979,"Delta":265485749},{"NoteNumber":57,"Velocity":33,"Duration":223546,"SoundDuration":223546,"Delta":265699729},{"NoteNumber":80,"Velocity":56,"Duration":855920,"SoundDuration":855920,"Delta":265923276},{"NoteNumber":68,"Velocity":56,"Duration":855920,"SoundDuration":855920,"Delta":265923276},{"NoteNumber":47,"Velocity":31,"Duration":213979,"SoundDuration":213979,"Delta":265923276},{"NoteNumber":56,"Velocity":29,"Duration":213979,"SoundDuration":213979,"Delta":266137256},{"NoteNumber":52,"Velocity":38,"Duration":213979,"SoundDuration":213979,"Delta":266351236},{"NoteNumber":47,"Velocity":38,"Duration":213980,"SoundDuration":213980,"Delta":266565216},{"NoteNumber":86,"Velocity":59,"Duration":875949,"SoundDuration":875949,"Delta":266779196},{"NoteNumber":74,"Velocity":59,"Duration":875949,"SoundDuration":875949,"Delta":266779196},{"NoteNumber":40,"Velocity":46,"Duration":213979,"SoundDuration":213979,"Delta":266779196},{"NoteNumber":56,"Velocity":32,"Duration":213979,"SoundDuration":213979,"Delta":266993176},{"NoteNumber":52,"Velocity":36,"Duration":213979,"SoundDuration":213979,"Delta":267207156},{"NoteNumber":47,"Velocity":29,"Duration":234009,"SoundDuration":234009,"Delta":267421136},{"NoteNumber":85,"Velocity":56,"Duration":1279397,"SoundDuration":1279397,"Delta":267655145},{"NoteNumber":73,"Velocity":56,"Duration":1279397,"SoundDuration":1279397,"Delta":267655145},{"NoteNumber":45,"Velocity":35,"Duration":213979,"SoundDuration":213979,"Delta":267655145},{"NoteNumber":57,"Velocity":27,"Duration":213979,"SoundDuration":213979,"Delta":267869125},{"NoteNumber":52,"Velocity":31,"Duration":213979,"SoundDuration":213979,"Delta":268083105},{"NoteNumber":49,"Velocity":27,"Duration":213980,"SoundDuration":213980,"Delta":268297085},{"NoteNumber":45,"Velocity":31,"Duration":213979,"SoundDuration":213979,"Delta":268511065},{"NoteNumber":52,"Velocity":29,"Duration":209497,"SoundDuration":209497,"Delta":268725045},{"NoteNumber":85,"Velocity":48,"Duration":418994,"SoundDuration":418994,"Delta":268934543},{"NoteNumber":73,"Velocity":48,"Duration":418994,"SoundDuration":418994,"Delta":268934543},{"NoteNumber":45,"Velocity":34,"Duration":209497,"SoundDuration":209497,"Delta":268934543},{"NoteNumber":52,"Velocity":38,"Duration":209497,"SoundDuration":209497,"Delta":269144040},{"NoteNumber":84,"Velocity":57,"Duration":412536,"SoundDuration":412536,"Delta":269353537},{"NoteNumber":72,"Velocity":57,"Duration":412536,"SoundDuration":412536,"Delta":269353537},{"NoteNumber":45,"Velocity":39,"Duration":207196,"SoundDuration":207196,"Delta":269353537},{"NoteNumber":52,"Velocity":35,"Duration":205339,"SoundDuration":205339,"Delta":269560734},{"NoteNumber":85,"Velocity":58,"Duration":406306,"SoundDuration":406306,"Delta":269766074},{"NoteNumber":73,"Velocity":58,"Duration":406306,"SoundDuration":406306,"Delta":269766074},{"NoteNumber":45,"Velocity":38,"Duration":203943,"SoundDuration":203943,"Delta":269766074},{"NoteNumber":52,"Velocity":35,"Duration":202363,"SoundDuration":202363,"Delta":269970017},{"NoteNumber":81,"Velocity":55,"Duration":303379,"SoundDuration":303379,"Delta":270172380},{"NoteNumber":69,"Velocity":55,"Duration":303379,"SoundDuration":303379,"Delta":270172380},{"NoteNumber":49,"Velocity":44,"Duration":201615,"SoundDuration":201615,"Delta":270172380},{"NoteNumber":45,"Velocity":37,"Duration":201615,"SoundDuration":201615,"Delta":270172380},{"NoteNumber":52,"Velocity":36,"Duration":204224,"SoundDuration":204224,"Delta":270373996},{"NoteNumber":80,"Velocity":55,"Duration":324048,"SoundDuration":324048,"Delta":270578220},{"NoteNumber":68,"Velocity":55,"Duration":324048,"SoundDuration":324048,"Delta":270578220},{"NoteNumber":52,"Velocity":44,"Duration":207043,"SoundDuration":207043,"Delta":270578220},{"NoteNumber":47,"Velocity":37,"Duration":207043,"SoundDuration":207043,"Delta":270578220},{"NoteNumber":56,"Velocity":37,"Duration":234009,"SoundDuration":234009,"Delta":270785263},{"NoteNumber":80,"Velocity":72,"Duration":416089,"SoundDuration":416089,"Delta":271019273},{"NoteNumber":68,"Velocity":72,"Duration":416089,"SoundDuration":416089,"Delta":271019273},{"NoteNumber":52,"Velocity":55,"Duration":208044,"SoundDuration":208044,"Delta":271019273},{"NoteNumber":49,"Velocity":47,"Duration":208044,"SoundDuration":208044,"Delta":271019273},{"NoteNumber":58,"Velocity":48,"Duration":208044,"SoundDuration":208044,"Delta":271227317},{"NoteNumber":78,"Velocity":62,"Duration":854017,"SoundDuration":854017,"Delta":271435362},{"NoteNumber":66,"Velocity":62,"Duration":854017,"SoundDuration":854017,"Delta":271435362},{"NoteNumber":52,"Velocity":54,"Duration":208044,"SoundDuration":208044,"Delta":271435362},{"NoteNumber":49,"Velocity":45,"Duration":208044,"SoundDuration":208044,"Delta":271435362},{"NoteNumber":58,"Velocity":43,"Duration":226928,"SoundDuration":226928,"Delta":271643406},{"NoteNumber":52,"Velocity":50,"Duration":213979,"SoundDuration":213979,"Delta":271870335},{"NoteNumber":48,"Velocity":42,"Duration":213979,"SoundDuration":213979,"Delta":271870335},{"NoteNumber":57,"Velocity":39,"Duration":213979,"SoundDuration":213979,"Delta":272084315},{"NoteNumber":78,"Velocity":67,"Duration":431371,"SoundDuration":431371,"Delta":272298295},{"NoteNumber":66,"Velocity":67,"Duration":431371,"SoundDuration":431371,"Delta":272298295},{"NoteNumber":52,"Velocity":49,"Duration":213979,"SoundDuration":213979,"Delta":272298295},{"NoteNumber":48,"Velocity":41,"Duration":213979,"SoundDuration":213979,"Delta":272298295},{"NoteNumber":57,"Velocity":39,"Duration":241546,"SoundDuration":241546,"Delta":272512275},{"NoteNumber":78,"Velocity":49,"Duration":431034,"SoundDuration":431034,"Delta":272753821},{"NoteNumber":66,"Velocity":49,"Duration":431034,"SoundDuration":431034,"Delta":272753821},{"NoteNumber":51,"Velocity":31,"Duration":215517,"SoundDuration":215517,"Delta":272753821},{"NoteNumber":47,"Velocity":26,"Duration":215517,"SoundDuration":215517,"Delta":272753821},{"NoteNumber":57,"Velocity":27,"Duration":215517,"SoundDuration":215517,"Delta":272969338},{"NoteNumber":83,"Velocity":38,"Duration":431034,"SoundDuration":431034,"Delta":273184856},{"NoteNumber":71,"Velocity":38,"Duration":431034,"SoundDuration":431034,"Delta":273184856},{"NoteNumber":51,"Velocity":31,"Duration":215517,"SoundDuration":215517,"Delta":273184856},{"NoteNumber":47,"Velocity":26,"Duration":215517,"SoundDuration":215517,"Delta":273184856},{"NoteNumber":57,"Velocity":29,"Duration":215517,"SoundDuration":215517,"Delta":273400373},{"NoteNumber":82,"Velocity":46,"Duration":447093,"SoundDuration":447093,"Delta":273615890},{"NoteNumber":70,"Velocity":46,"Duration":447093,"SoundDuration":447093,"Delta":273615890},{"NoteNumber":51,"Velocity":31,"Duration":223546,"SoundDuration":223546,"Delta":273615890},{"NoteNumber":47,"Velocity":26,"Duration":223546,"SoundDuration":223546,"Delta":273615890},{"NoteNumber":57,"Velocity":27,"Duration":223546,"SoundDuration":223546,"Delta":273839437},{"NoteNumber":83,"Velocity":40,"Duration":473131,"SoundDuration":473131,"Delta":274062984},{"NoteNumber":71,"Velocity":40,"Duration":473131,"SoundDuration":473131,"Delta":274062984},{"NoteNumber":51,"Velocity":31,"Duration":223546,"SoundDuration":223546,"Delta":274062984},{"NoteNumber":47,"Velocity":26,"Duration":223546,"SoundDuration":223546,"Delta":274062984},{"NoteNumber":57,"Velocity":28,"Duration":249584,"SoundDuration":249584,"Delta":274286531},{"NoteNumber":76,"Velocity":51,"Duration":907715,"SoundDuration":907715,"Delta":274536115},{"NoteNumber":64,"Velocity":51,"Duration":907715,"SoundDuration":907715,"Delta":274536115},{"NoteNumber":52,"Velocity":31,"Duration":226928,"SoundDuration":226928,"Delta":274536115},{"NoteNumber":56,"Velocity":31,"Duration":226928,"SoundDuration":226928,"Delta":274536115},{"NoteNumber":52,"Velocity":31,"Duration":226929,"SoundDuration":226929,"Delta":274763044},{"NoteNumber":51,"Velocity":31,"Duration":226928,"SoundDuration":226928,"Delta":274989973},{"NoteNumber":49,"Velocity":31,"Duration":226928,"SoundDuration":226928,"Delta":275216902},{"NoteNumber":47,"Velocity":31,"Duration":226928,"SoundDuration":226928,"Delta":275443831},{"NoteNumber":45,"Velocity":30,"Duration":241546,"SoundDuration":241546,"Delta":275670760},{"NoteNumber":64,"Velocity":43,"Duration":226928,"SoundDuration":226928,"Delta":275912306},{"NoteNumber":44,"Velocity":25,"Duration":226928,"SoundDuration":226928,"Delta":275912306},{"NoteNumber":66,"Velocity":39,"Duration":239616,"SoundDuration":239616,"Delta":276139235},{"NoteNumber":42,"Velocity":25,"Duration":239616,"SoundDuration":239616,"Delta":276139235},{"NoteNumber":64,"Velocity":34,"Duration":225225,"SoundDuration":225225,"Delta":276378852},{"NoteNumber":68,"Velocity":50,"Duration":900900,"SoundDuration":900900,"Delta":276378852},{"NoteNumber":40,"Velocity":25,"Duration":450450,"SoundDuration":450450,"Delta":276378852},{"NoteNumber":59,"Velocity":26,"Duration":225225,"SoundDuration":225225,"Delta":276604077},{"NoteNumber":64,"Velocity":31,"Duration":225225,"SoundDuration":225225,"Delta":276829302},{"NoteNumber":59,"Velocity":26,"Duration":225225,"SoundDuration":225225,"Delta":277054527},{"NoteNumber":68,"Velocity":30,"Duration":212464,"SoundDuration":212464,"Delta":277279753},{"NoteNumber":71,"Velocity":46,"Duration":424929,"SoundDuration":424929,"Delta":277279753},{"NoteNumber":59,"Velocity":27,"Duration":212464,"SoundDuration":212464,"Delta":277492217},{"NoteNumber":66,"Velocity":28,"Duration":220264,"SoundDuration":220264,"Delta":277704682},{"NoteNumber":69,"Velocity":43,"Duration":440528,"SoundDuration":440528,"Delta":277704682},{"NoteNumber":59,"Velocity":27,"Duration":220264,"SoundDuration":220264,"Delta":277924946},{"NoteNumber":64,"Velocity":34,"Duration":217076,"SoundDuration":217076,"Delta":278145210},{"NoteNumber":68,"Velocity":50,"Duration":434153,"SoundDuration":434153,"Delta":278145210},{"NoteNumber":35,"Velocity":25,"Duration":434153,"SoundDuration":434153,"Delta":278145210},{"NoteNumber":59,"Velocity":26,"Duration":217076,"SoundDuration":217076,"Delta":278362287},{"NoteNumber":63,"Velocity":27,"Duration":212464,"SoundDuration":212464,"Delta":278579364},{"NoteNumber":66,"Velocity":41,"Duration":371812,"SoundDuration":371812,"Delta":278579364},{"NoteNumber":59,"Velocity":25,"Duration":159348,"SoundDuration":159348,"Delta":278791828},{"NoteNumber":63,"Velocity":27,"Duration":212464,"SoundDuration":212464,"Delta":279004293},{"NoteNumber":66,"Velocity":41,"Duration":424928,"SoundDuration":424928,"Delta":279004293},{"NoteNumber":59,"Velocity":26,"Duration":212464,"SoundDuration":212464,"Delta":279216757},{"NoteNumber":64,"Velocity":28,"Duration":208044,"SoundDuration":208044,"Delta":279429222},{"NoteNumber":68,"Velocity":43,"Duration":416088,"SoundDuration":416088,"Delta":279429222},{"NoteNumber":59,"Velocity":28,"Duration":208044,"SoundDuration":208044,"Delta":279637266},{"NoteNumber":64,"Velocity":30,"Duration":212464,"SoundDuration":212464,"Delta":279845311},{"NoteNumber":69,"Velocity":46,"Duration":424929,"SoundDuration":424929,"Delta":279845311},{"NoteNumber":37,"Velocity":25,"Duration":424929,"SoundDuration":424929,"Delta":279845311},{"NoteNumber":59,"Velocity":28,"Duration":212464,"SoundDuration":212464,"Delta":280057775},{"NoteNumber":64,"Velocity":36,"Duration":212464,"SoundDuration":212464,"Delta":280270240},{"NoteNumber":73,"Velocity":54,"Duration":424928,"SoundDuration":424928,"Delta":280270240},{"NoteNumber":59,"Velocity":31,"Duration":212464,"SoundDuration":212464,"Delta":280482704},{"NoteNumber":66,"Velocity":37,"Duration":212464,"SoundDuration":212464,"Delta":280695169},{"NoteNumber":71,"Velocity":47,"Duration":424929,"SoundDuration":424929,"Delta":280695169},{"NoteNumber":39,"Velocity":23,"Duration":424929,"SoundDuration":424929,"Delta":280695169},{"NoteNumber":59,"Velocity":26,"Duration":212464,"SoundDuration":212464,"Delta":280907633},{"NoteNumber":63,"Velocity":25,"Duration":217076,"SoundDuration":217076,"Delta":281120098},{"NoteNumber":66,"Velocity":38,"Duration":468754,"SoundDuration":468754,"Delta":281120098},{"NoteNumber":35,"Velocity":22,"Duration":468754,"SoundDuration":468754,"Delta":281120098},{"NoteNumber":59,"Velocity":27,"Duration":251677,"SoundDuration":251677,"Delta":281337174},{"NoteNumber":59,"Velocity":35,"Duration":464396,"SoundDuration":464396,"Delta":281588852},{"NoteNumber":64,"Velocity":35,"Duration":464396,"SoundDuration":464396,"Delta":281588852},{"NoteNumber":68,"Velocity":42,"Duration":464396,"SoundDuration":464396,"Delta":281588852},{"NoteNumber":40,"Velocity":28,"Duration":464396,"SoundDuration":464396,"Delta":281588852},{"NoteNumber":64,"Velocity":28,"Duration":212464,"SoundDuration":212464,"Delta":282053249},{"NoteNumber":59,"Velocity":22,"Duration":212464,"SoundDuration":212464,"Delta":282265713},{"NoteNumber":78,"Velocity":42,"Duration":53116,"SoundDuration":53116,"Delta":282425061},{"NoteNumber":76,"Velocity":47,"Duration":195822,"SoundDuration":195822,"Delta":282478178},{"NoteNumber":64,"Velocity":28,"Duration":195822,"SoundDuration":195822,"Delta":282478178},{"NoteNumber":75,"Velocity":42,"Duration":195822,"SoundDuration":195822,"Delta":282674000},{"NoteNumber":59,"Velocity":24,"Duration":195822,"SoundDuration":195822,"Delta":282674000},{"NoteNumber":76,"Velocity":48,"Duration":195822,"SoundDuration":195822,"Delta":282869823},{"NoteNumber":64,"Velocity":28,"Duration":195822,"SoundDuration":195822,"Delta":282869823},{"NoteNumber":78,"Velocity":43,"Duration":146866,"SoundDuration":146866,"Delta":283065645},{"NoteNumber":59,"Velocity":25,"Duration":195822,"SoundDuration":195822,"Delta":283065645},{"NoteNumber":81,"Velocity":50,"Duration":48955,"SoundDuration":48955,"Delta":283212512},{"NoteNumber":80,"Velocity":55,"Duration":195822,"SoundDuration":195822,"Delta":283261468},{"NoteNumber":64,"Velocity":30,"Duration":195822,"SoundDuration":195822,"Delta":283261468},{"NoteNumber":78,"Velocity":50,"Duration":195822,"SoundDuration":195822,"Delta":283457290},{"NoteNumber":59,"Velocity":29,"Duration":195822,"SoundDuration":195822,"Delta":283457290},{"NoteNumber":80,"Velocity":52,"Duration":202429,"SoundDuration":202429,"Delta":283653113},{"NoteNumber":64,"Velocity":32,"Duration":202429,"SoundDuration":202429,"Delta":283653113},{"NoteNumber":81,"Velocity":54,"Duration":223546,"SoundDuration":223546,"Delta":283855542},{"NoteNumber":59,"Velocity":31,"Duration":223546,"SoundDuration":223546,"Delta":283855542},{"NoteNumber":71,"Velocity":45,"Duration":407608,"SoundDuration":407608,"Delta":284079089},{"NoteNumber":83,"Velocity":53,"Duration":407608,"SoundDuration":407608,"Delta":284079089},{"NoteNumber":68,"Velocity":35,"Duration":203804,"SoundDuration":203804,"Delta":284079089},{"NoteNumber":59,"Velocity":32,"Duration":203804,"SoundDuration":203804,"Delta":284282893},{"NoteNumber":81,"Velocity":53,"Duration":424068,"SoundDuration":424068,"Delta":284486697},{"NoteNumber":69,"Velocity":45,"Duration":424068,"SoundDuration":424068,"Delta":284486697},{"NoteNumber":66,"Velocity":39,"Duration":203804,"SoundDuration":203804,"Delta":284486697},{"NoteNumber":59,"Velocity":36,"Duration":220264,"SoundDuration":220264,"Delta":284690502},{"NoteNumber":80,"Velocity":63,"Duration":418994,"SoundDuration":418994,"Delta":284910766},{"NoteNumber":68,"Velocity":53,"Duration":418994,"SoundDuration":418994,"Delta":284910766},{"NoteNumber":64,"Velocity":49,"Duration":209497,"SoundDuration":209497,"Delta":284910766},{"NoteNumber":59,"Velocity":41,"Duration":209497,"SoundDuration":209497,"Delta":285120263},{"NoteNumber":66,"Velocity":51,"Duration":412199,"SoundDuration":412199,"Delta":285329760},{"NoteNumber":78,"Velocity":61,"Duration":412199,"SoundDuration":412199,"Delta":285329760},{"NoteNumber":63,"Velocity":48,"Duration":209497,"SoundDuration":209497,"Delta":285329760},{"NoteNumber":59,"Velocity":42,"Duration":225225,"SoundDuration":225225,"Delta":285539258},{"NoteNumber":66,"Velocity":58,"Duration":421941,"SoundDuration":421941,"Delta":285764483},{"NoteNumber":78,"Velocity":70,"Duration":421941,"SoundDuration":421941,"Delta":285764483},{"NoteNumber":63,"Velocity":46,"Duration":210970,"SoundDuration":210970,"Delta":285764483},{"NoteNumber":59,"Velocity":39,"Duration":210970,"SoundDuration":210970,"Delta":285975453},{"NoteNumber":80,"Velocity":64,"Duration":421941,"SoundDuration":421941,"Delta":286186424},{"NoteNumber":68,"Velocity":54,"Duration":421941,"SoundDuration":421941,"Delta":286186424},{"NoteNumber":65,"Velocity":49,"Duration":210970,"SoundDuration":210970,"Delta":286186424},{"NoteNumber":59,"Velocity":44,"Duration":210970,"SoundDuration":210970,"Delta":286397394},{"NoteNumber":69,"Velocity":65,"Duration":421941,"SoundDuration":421941,"Delta":286608365},{"NoteNumber":81,"Velocity":77,"Duration":421941,"SoundDuration":421941,"Delta":286608365},{"NoteNumber":66,"Velocity":58,"Duration":210970,"SoundDuration":210970,"Delta":286608365},{"NoteNumber":59,"Velocity":48,"Duration":210970,"SoundDuration":210970,"Delta":286819335},{"NoteNumber":85,"Velocity":68,"Duration":436195,"SoundDuration":436195,"Delta":287030306},{"NoteNumber":73,"Velocity":57,"Duration":436195,"SoundDuration":436195,"Delta":287030306},{"NoteNumber":69,"Velocity":53,"Duration":210970,"SoundDuration":210970,"Delta":287030306},{"NoteNumber":59,"Velocity":47,"Duration":225225,"SoundDuration":225225,"Delta":287241276},{"NoteNumber":83,"Velocity":80,"Duration":424929,"SoundDuration":424929,"Delta":287466502},{"NoteNumber":71,"Velocity":67,"Duration":424929,"SoundDuration":424929,"Delta":287466502},{"NoteNumber":68,"Velocity":57,"Duration":212464,"SoundDuration":212464,"Delta":287466502},{"NoteNumber":59,"Velocity":44,"Duration":212464,"SoundDuration":212464,"Delta":287678966},{"NoteNumber":75,"Velocity":70,"Duration":337837,"SoundDuration":337837,"Delta":287891431},{"NoteNumber":81,"Velocity":70,"Duration":337837,"SoundDuration":337837,"Delta":287891431},{"NoteNumber":87,"Velocity":83,"Duration":337837,"SoundDuration":337837,"Delta":287891431},{"NoteNumber":66,"Velocity":54,"Duration":225225,"SoundDuration":225225,"Delta":287891431},{"NoteNumber":59,"Velocity":46,"Duration":225225,"SoundDuration":225225,"Delta":288116656},{"NoteNumber":76,"Velocity":73,"Duration":862618,"SoundDuration":862618,"Delta":288341881},{"NoteNumber":80,"Velocity":73,"Duration":862618,"SoundDuration":862618,"Delta":288341881},{"NoteNumber":88,"Velocity":88,"Duration":862618,"SoundDuration":862618,"Delta":288341881},{"NoteNumber":64,"Velocity":59,"Duration":225225,"SoundDuration":225225,"Delta":288341881},{"NoteNumber":59,"Velocity":49,"Duration":212464,"SoundDuration":212464,"Delta":288567106},{"NoteNumber":56,"Velocity":58,"Duration":212464,"SoundDuration":212464,"Delta":288779571},{"NoteNumber":59,"Velocity":50,"Duration":212464,"SoundDuration":212464,"Delta":288992035},{"NoteNumber":52,"Velocity":59,"Duration":431034,"SoundDuration":431034,"Delta":289204500},{"NoteNumber":64,"Velocity":73,"Duration":221893,"SoundDuration":221893,"Delta":289635534},{"NoteNumber":68,"Velocity":87,"Duration":221893,"SoundDuration":221893,"Delta":289635534},{"NoteNumber":64,"Velocity":81,"Duration":1254202,"SoundDuration":1254202,"Delta":290079321},{"NoteNumber":68,"Velocity":96,"Duration":1254202,"SoundDuration":1254202,"Delta":290079321},{"NoteNumber":61,"Velocity":67,"Duration":213979,"SoundDuration":213979,"Delta":290079321},{"NoteNumber":56,"Velocity":57,"Duration":208044,"SoundDuration":208044,"Delta":290293301},{"NoteNumber":52,"Velocity":62,"Duration":208044,"SoundDuration":208044,"Delta":290501346},{"NoteNumber":56,"Velocity":57,"Duration":208044,"SoundDuration":208044,"Delta":290709390},{"NoteNumber":49,"Velocity":70,"Duration":416088,"SoundDuration":416088,"Delta":290917435},{"NoteNumber":76,"Velocity":34,"Duration":221893,"SoundDuration":221893,"Delta":291333524},{"NoteNumber":68,"Velocity":28,"Duration":221893,"SoundDuration":221893,"Delta":291333524},{"NoteNumber":64,"Velocity":28,"Duration":221893,"SoundDuration":221893,"Delta":291333524},{"NoteNumber":61,"Velocity":26,"Duration":221893,"SoundDuration":221893,"Delta":291333524},{"NoteNumber":75,"Velocity":39,"Duration":1249719,"SoundDuration":1249719,"Delta":291777311},{"NoteNumber":68,"Velocity":33,"Duration":1249719,"SoundDuration":1249719,"Delta":291777311},{"NoteNumber":66,"Velocity":33,"Duration":1249719,"SoundDuration":1249719,"Delta":291777311},{"NoteNumber":63,"Velocity":33,"Duration":1249719,"SoundDuration":1249719,"Delta":291777311},{"NoteNumber":60,"Velocity":33,"Duration":209497,"SoundDuration":209497,"Delta":291777311},{"NoteNumber":56,"Velocity":27,"Duration":208044,"SoundDuration":208044,"Delta":291986808},{"NoteNumber":51,"Velocity":33,"Duration":208044,"SoundDuration":208044,"Delta":292194853},{"NoteNumber":56,"Velocity":27,"Duration":208044,"SoundDuration":208044,"Delta":292402897},{"NoteNumber":48,"Velocity":36,"Duration":416088,"SoundDuration":416088,"Delta":292610942},{"NoteNumber":63,"Velocity":73,"Duration":221893,"SoundDuration":221893,"Delta":293027031},{"NoteNumber":68,"Velocity":87,"Duration":221893,"SoundDuration":221893,"Delta":293027031},{"NoteNumber":60,"Velocity":77,"Duration":221893,"SoundDuration":221893,"Delta":293027031},{"NoteNumber":64,"Velocity":81,"Duration":1239668,"SoundDuration":1239668,"Delta":293470818},{"NoteNumber":62,"Velocity":81,"Duration":1239668,"SoundDuration":1239668,"Delta":293470818},{"NoteNumber":68,"Velocity":96,"Duration":1239668,"SoundDuration":1239668,"Delta":293470818},{"NoteNumber":59,"Velocity":67,"Duration":206611,"SoundDuration":206611,"Delta":293470818},{"NoteNumber":56,"Velocity":57,"Duration":206611,"SoundDuration":206611,"Delta":293677429},{"NoteNumber":52,"Velocity":62,"Duration":206611,"SoundDuration":206611,"Delta":293884041},{"NoteNumber":56,"Velocity":57,"Duration":206611,"SoundDuration":206611,"Delta":294090652},{"NoteNumber":47,"Velocity":70,"Duration":413223,"SoundDuration":413223,"Delta":294297264},{"NoteNumber":62,"Velocity":28,"Duration":221893,"SoundDuration":221893,"Delta":294710487},{"NoteNumber":74,"Velocity":34,"Duration":221893,"SoundDuration":221893,"Delta":294710487},{"NoteNumber":64,"Velocity":28,"Duration":221893,"SoundDuration":221893,"Delta":294710487},{"NoteNumber":59,"Velocity":26,"Duration":221893,"SoundDuration":221893,"Delta":294710487},{"NoteNumber":73,"Velocity":39,"Duration":1245420,"SoundDuration":1245420,"Delta":295154274},{"NoteNumber":64,"Velocity":33,"Duration":1245420,"SoundDuration":1245420,"Delta":295154274},{"NoteNumber":61,"Velocity":33,"Duration":1245420,"SoundDuration":1245420,"Delta":295154274},{"NoteNumber":57,"Velocity":33,"Duration":205198,"SoundDuration":205198,"Delta":295154274},{"NoteNumber":52,"Velocity":27,"Duration":208044,"SoundDuration":208044,"Delta":295359472},{"NoteNumber":49,"Velocity":33,"Duration":208044,"SoundDuration":208044,"Delta":295567516},{"NoteNumber":52,"Velocity":27,"Duration":208044,"SoundDuration":208044,"Delta":295775561},{"NoteNumber":45,"Velocity":36,"Duration":416088,"SoundDuration":416088,"Delta":295983605},{"NoteNumber":61,"Velocity":87,"Duration":221893,"SoundDuration":221893,"Delta":296399694},{"NoteNumber":57,"Velocity":83,"Duration":221893,"SoundDuration":221893,"Delta":296399694},{"NoteNumber":59,"Velocity":81,"Duration":1244027,"SoundDuration":1244027,"Delta":296843481},{"NoteNumber":61,"Velocity":96,"Duration":1244027,"SoundDuration":1244027,"Delta":296843481},{"NoteNumber":56,"Velocity":67,"Duration":210970,"SoundDuration":210970,"Delta":296843481},{"NoteNumber":53,"Velocity":57,"Duration":206611,"SoundDuration":206611,"Delta":297054452},{"NoteNumber":49,"Velocity":62,"Duration":206611,"SoundDuration":206611,"Delta":297261063},{"NoteNumber":53,"Velocity":57,"Duration":206611,"SoundDuration":206611,"Delta":297467675},{"NoteNumber":44,"Velocity":70,"Duration":413222,"SoundDuration":413222,"Delta":297674286},{"NoteNumber":71,"Velocity":34,"Duration":221893,"SoundDuration":221893,"Delta":298087509},{"NoteNumber":61,"Velocity":28,"Duration":221893,"SoundDuration":221893,"Delta":298087509},{"NoteNumber":59,"Velocity":28,"Duration":221893,"SoundDuration":221893,"Delta":298087509},{"NoteNumber":56,"Velocity":26,"Duration":221893,"SoundDuration":221893,"Delta":298087509},{"NoteNumber":69,"Velocity":39,"Duration":1245420,"SoundDuration":1245420,"Delta":298531296},{"NoteNumber":61,"Velocity":33,"Duration":1245420,"SoundDuration":1245420,"Delta":298531296},{"NoteNumber":57,"Velocity":33,"Duration":1245420,"SoundDuration":1245420,"Delta":298531296},{"NoteNumber":54,"Velocity":33,"Duration":205198,"SoundDuration":205198,"Delta":298531296},{"NoteNumber":49,"Velocity":27,"Duration":208044,"SoundDuration":208044,"Delta":298736495},{"NoteNumber":45,"Velocity":33,"Duration":208044,"SoundDuration":208044,"Delta":298944539},{"NoteNumber":49,"Velocity":27,"Duration":208044,"SoundDuration":208044,"Delta":299152584},{"NoteNumber":42,"Velocity":36,"Duration":416088,"SoundDuration":416088,"Delta":299360628},{"NoteNumber":73,"Velocity":73,"Duration":221893,"SoundDuration":221893,"Delta":299776717},{"NoteNumber":78,"Velocity":73,"Duration":221893,"SoundDuration":221893,"Delta":299776717},{"NoteNumber":81,"Velocity":87,"Duration":221893,"SoundDuration":221893,"Delta":299776717},{"NoteNumber":66,"Velocity":77,"Duration":221893,"SoundDuration":221893,"Delta":299776717},{"NoteNumber":78,"Velocity":81,"Duration":1231189,"SoundDuration":1231189,"Delta":300220504},{"NoteNumber":71,"Velocity":81,"Duration":1231189,"SoundDuration":1231189,"Delta":300220504},{"NoteNumber":81,"Velocity":96,"Duration":1231189,"SoundDuration":1231189,"Delta":300220504},{"NoteNumber":63,"Velocity":67,"Duration":205198,"SoundDuration":205198,"Delta":300220504},{"NoteNumber":59,"Velocity":57,"Duration":205198,"SoundDuration":205198,"Delta":300425702},{"NoteNumber":54,"Velocity":62,"Duration":205198,"SoundDuration":205198,"Delta":300630901},{"NoteNumber":59,"Velocity":57,"Duration":205198,"SoundDuration":205198,"Delta":300836099},{"NoteNumber":51,"Velocity":70,"Duration":410396,"SoundDuration":410396,"Delta":301041297},{"NoteNumber":66,"Velocity":73,"Duration":221893,"SoundDuration":221893,"Delta":301451694},{"NoteNumber":69,"Velocity":87,"Duration":221893,"SoundDuration":221893,"Delta":301451694},{"NoteNumber":51,"Velocity":77,"Duration":221893,"SoundDuration":221893,"Delta":301451694},{"NoteNumber":64,"Velocity":81,"Duration":1236961,"SoundDuration":1236961,"Delta":301895481},{"NoteNumber":69,"Velocity":96,"Duration":1236961,"SoundDuration":1236961,"Delta":301895481},{"NoteNumber":48,"Velocity":67,"Duration":210970,"SoundDuration":210970,"Delta":301895481},{"NoteNumber":45,"Velocity":57,"Duration":205198,"SoundDuration":205198,"Delta":302106451},{"NoteNumber":40,"Velocity":62,"Duration":205198,"SoundDuration":205198,"Delta":302311649},{"NoteNumber":45,"Velocity":57,"Duration":205198,"SoundDuration":205198,"Delta":302516848},{"NoteNumber":36,"Velocity":70,"Duration":410396,"SoundDuration":410396,"Delta":302722046},{"NoteNumber":69,"Velocity":73,"Duration":221893,"SoundDuration":221893,"Delta":303132442},{"NoteNumber":76,"Velocity":73,"Duration":221893,"SoundDuration":221893,"Delta":303132442},{"NoteNumber":81,"Velocity":87,"Duration":221893,"SoundDuration":221893,"Delta":303132442},{"NoteNumber":48,"Velocity":63,"Duration":221893,"SoundDuration":221893,"Delta":303132442},{"NoteNumber":60,"Velocity":77,"Duration":221893,"SoundDuration":221893,"Delta":303132442},{"NoteNumber":75,"Velocity":81,"Duration":411848,"SoundDuration":411848,"Delta":303576229},{"NoteNumber":78,"Velocity":81,"Duration":411848,"SoundDuration":411848,"Delta":303576229},{"NoteNumber":69,"Velocity":81,"Duration":411848,"SoundDuration":411848,"Delta":303576229},{"NoteNumber":81,"Velocity":96,"Duration":411848,"SoundDuration":411848,"Delta":303576229},{"NoteNumber":47,"Velocity":48,"Duration":411848,"SoundDuration":411848,"Delta":303576229},{"NoteNumber":59,"Velocity":48,"Duration":411848,"SoundDuration":411848,"Delta":303576229},{"NoteNumber":71,"Velocity":33,"Duration":208044,"SoundDuration":208044,"Delta":303988078},{"NoteNumber":73,"Velocity":27,"Duration":208044,"SoundDuration":208044,"Delta":304196123},{"NoteNumber":71,"Velocity":33,"Duration":208044,"SoundDuration":208044,"Delta":304404167},{"NoteNumber":73,"Velocity":29,"Duration":208044,"SoundDuration":208044,"Delta":304612212},{"NoteNumber":71,"Velocity":33,"Duration":208044,"SoundDuration":208044,"Delta":304820256},{"NoteNumber":73,"Velocity":29,"Duration":228658,"SoundDuration":228658,"Delta":305028301},{"NoteNumber":81,"Velocity":53,"Duration":1231189,"SoundDuration":1231189,"Delta":305256959},{"NoteNumber":90,"Velocity":53,"Duration":1231189,"SoundDuration":1231189,"Delta":305256959},{"NoteNumber":71,"Velocity":32,"Duration":205198,"SoundDuration":205198,"Delta":305256959},{"NoteNumber":66,"Velocity":41,"Duration":1231189,"SoundDuration":1231189,"Delta":305256959},{"NoteNumber":63,"Velocity":34,"Duration":1231189,"SoundDuration":1231189,"Delta":305256959},{"NoteNumber":73,"Velocity":27,"Duration":205198,"SoundDuration":205198,"Delta":305462157},{"NoteNumber":71,"Velocity":31,"Duration":205198,"SoundDuration":205198,"Delta":305667356},{"NoteNumber":73,"Velocity":26,"Duration":205198,"SoundDuration":205198,"Delta":305872554},{"NoteNumber":71,"Velocity":38,"Duration":205198,"SoundDuration":205198,"Delta":306077752},{"NoteNumber":73,"Velocity":32,"Duration":205198,"SoundDuration":205198,"Delta":306282950},{"NoteNumber":80,"Velocity":57,"Duration":387931,"SoundDuration":387931,"Delta":306488149},{"NoteNumber":88,"Velocity":57,"Duration":387931,"SoundDuration":387931,"Delta":306488149},{"NoteNumber":64,"Velocity":46,"Duration":387931,"SoundDuration":387931,"Delta":306488149},{"NoteNumber":68,"Velocity":46,"Duration":387931,"SoundDuration":387931,"Delta":306488149},{"NoteNumber":71,"Velocity":46,"Duration":215517,"SoundDuration":215517,"Delta":306488149},{"NoteNumber":73,"Velocity":36,"Duration":215517,"SoundDuration":215517,"Delta":306703666},{"NoteNumber":88,"Velocity":62,"Duration":404858,"SoundDuration":404858,"Delta":306919183},{"NoteNumber":80,"Velocity":62,"Duration":404858,"SoundDuration":404858,"Delta":306919183},{"NoteNumber":64,"Velocity":52,"Duration":404858,"SoundDuration":404858,"Delta":306919183},{"NoteNumber":68,"Velocity":52,"Duration":404858,"SoundDuration":404858,"Delta":306919183},{"NoteNumber":71,"Velocity":52,"Duration":202429,"SoundDuration":202429,"Delta":306919183},{"NoteNumber":73,"Velocity":29,"Duration":202429,"SoundDuration":202429,"Delta":307121612},{"NoteNumber":78,"Velocity":48,"Duration":364372,"SoundDuration":364372,"Delta":307324042},{"NoteNumber":87,"Velocity":48,"Duration":364372,"SoundDuration":364372,"Delta":307324042},{"NoteNumber":71,"Velocity":32,"Duration":202429,"SoundDuration":202429,"Delta":307324042},{"NoteNumber":69,"Velocity":41,"Duration":364372,"SoundDuration":364372,"Delta":307324042},{"NoteNumber":66,"Velocity":34,"Duration":364372,"SoundDuration":364372,"Delta":307324042},{"NoteNumber":73,"Velocity":28,"Duration":202429,"SoundDuration":202429,"Delta":307526471},{"NoteNumber":87,"Velocity":47,"Duration":410396,"SoundDuration":410396,"Delta":307728900},{"NoteNumber":78,"Velocity":47,"Duration":410396,"SoundDuration":410396,"Delta":307728900},{"NoteNumber":66,"Velocity":28,"Duration":410396,"SoundDuration":410396,"Delta":307728900},{"NoteNumber":69,"Velocity":33,"Duration":410396,"SoundDuration":410396,"Delta":307728900},{"NoteNumber":71,"Velocity":26,"Duration":205198,"SoundDuration":205198,"Delta":307728900},{"NoteNumber":73,"Velocity":24,"Duration":205198,"SoundDuration":205198,"Delta":307934098},{"NoteNumber":80,"Velocity":39,"Duration":434153,"SoundDuration":434153,"Delta":308139297},{"NoteNumber":88,"Velocity":39,"Duration":434153,"SoundDuration":434153,"Delta":308139297},{"NoteNumber":64,"Velocity":28,"Duration":434153,"SoundDuration":434153,"Delta":308139297},{"NoteNumber":68,"Velocity":33,"Duration":434153,"SoundDuration":434153,"Delta":308139297},{"NoteNumber":71,"Velocity":26,"Duration":217076,"SoundDuration":217076,"Delta":308139297},{"NoteNumber":73,"Velocity":24,"Duration":217076,"SoundDuration":217076,"Delta":308356373},{"NoteNumber":81,"Velocity":53,"Duration":1231189,"SoundDuration":1231189,"Delta":308573450},{"NoteNumber":90,"Velocity":53,"Duration":1231189,"SoundDuration":1231189,"Delta":308573450},{"NoteNumber":71,"Velocity":32,"Duration":205198,"SoundDuration":205198,"Delta":308573450},{"NoteNumber":66,"Velocity":41,"Duration":1231189,"SoundDuration":1231189,"Delta":308573450},{"NoteNumber":63,"Velocity":34,"Duration":1231189,"SoundDuration":1231189,"Delta":308573450},{"NoteNumber":73,"Velocity":27,"Duration":205198,"SoundDuration":205198,"Delta":308778648},{"NoteNumber":71,"Velocity":31,"Duration":205198,"SoundDuration":205198,"Delta":308983847},{"NoteNumber":73,"Velocity":26,"Duration":205198,"SoundDuration":205198,"Delta":309189045},{"NoteNumber":71,"Velocity":32,"Duration":205198,"SoundDuration":205198,"Delta":309394243},{"NoteNumber":73,"Velocity":32,"Duration":205198,"SoundDuration":205198,"Delta":309599441},{"NoteNumber":80,"Velocity":57,"Duration":387931,"SoundDuration":387931,"Delta":309804640},{"NoteNumber":88,"Velocity":57,"Duration":387931,"SoundDuration":387931,"Delta":309804640},{"NoteNumber":64,"Velocity":45,"Duration":387931,"SoundDuration":387931,"Delta":309804640},{"NoteNumber":68,"Velocity":45,"Duration":387931,"SoundDuration":387931,"Delta":309804640},{"NoteNumber":71,"Velocity":45,"Duration":215517,"SoundDuration":215517,"Delta":309804640},{"NoteNumber":73,"Velocity":41,"Duration":215517,"SoundDuration":215517,"Delta":310020157},{"NoteNumber":87,"Velocity":62,"Duration":404858,"SoundDuration":404858,"Delta":310235674},{"NoteNumber":78,"Velocity":62,"Duration":404858,"SoundDuration":404858,"Delta":310235674},{"NoteNumber":71,"Velocity":37,"Duration":202429,"SoundDuration":202429,"Delta":310235674},{"NoteNumber":69,"Velocity":47,"Duration":404858,"SoundDuration":404858,"Delta":310235674},{"NoteNumber":66,"Velocity":39,"Duration":404858,"SoundDuration":404858,"Delta":310235674},{"NoteNumber":73,"Velocity":29,"Duration":202429,"SoundDuration":202429,"Delta":310438103},{"NoteNumber":90,"Velocity":48,"Duration":404858,"SoundDuration":404858,"Delta":310640533},{"NoteNumber":81,"Velocity":48,"Duration":404858,"SoundDuration":404858,"Delta":310640533},{"NoteNumber":71,"Velocity":32,"Duration":202429,"SoundDuration":202429,"Delta":310640533},{"NoteNumber":66,"Velocity":41,"Duration":364372,"SoundDuration":364372,"Delta":310640533},{"NoteNumber":63,"Velocity":34,"Duration":364372,"SoundDuration":364372,"Delta":310640533},{"NoteNumber":73,"Velocity":28,"Duration":202429,"SoundDuration":202429,"Delta":310842962},{"NoteNumber":88,"Velocity":47,"Duration":416088,"SoundDuration":416088,"Delta":311045391},{"NoteNumber":80,"Velocity":47,"Duration":416088,"SoundDuration":416088,"Delta":311045391},{"NoteNumber":64,"Velocity":28,"Duration":416088,"SoundDuration":416088,"Delta":311045391},{"NoteNumber":68,"Velocity":33,"Duration":416088,"SoundDuration":416088,"Delta":311045391},{"NoteNumber":71,"Velocity":26,"Duration":208044,"SoundDuration":208044,"Delta":311045391},{"NoteNumber":73,"Velocity":24,"Duration":208044,"SoundDuration":208044,"Delta":311253436},{"NoteNumber":75,"Velocity":39,"Duration":434153,"SoundDuration":434153,"Delta":311461480},{"NoteNumber":78,"Velocity":39,"Duration":434153,"SoundDuration":434153,"Delta":311461480},{"NoteNumber":87,"Velocity":39,"Duration":434153,"SoundDuration":434153,"Delta":311461480},{"NoteNumber":66,"Velocity":28,"Duration":434153,"SoundDuration":434153,"Delta":311461480},{"NoteNumber":69,"Velocity":33,"Duration":434153,"SoundDuration":434153,"Delta":311461480},{"NoteNumber":71,"Velocity":26,"Duration":217076,"SoundDuration":217076,"Delta":311461480},{"NoteNumber":73,"Velocity":24,"Duration":217076,"SoundDuration":217076,"Delta":311678557},{"NoteNumber":88,"Velocity":39,"Duration":434153,"SoundDuration":434153,"Delta":311895634},{"NoteNumber":76,"Velocity":39,"Duration":434153,"SoundDuration":434153,"Delta":311895634},{"NoteNumber":68,"Velocity":28,"Duration":434153,"SoundDuration":434153,"Delta":311895634},{"NoteNumber":71,"Velocity":33,"Duration":217076,"SoundDuration":217076,"Delta":311895634},{"NoteNumber":76,"Velocity":27,"Duration":217076,"SoundDuration":217076,"Delta":312112710},{"NoteNumber":87,"Velocity":34,"Duration":410396,"SoundDuration":410396,"Delta":312329787},{"NoteNumber":71,"Velocity":31,"Duration":205198,"SoundDuration":205198,"Delta":312329787},{"NoteNumber":76,"Velocity":27,"Duration":205198,"SoundDuration":205198,"Delta":312534985},{"NoteNumber":85,"Velocity":39,"Duration":410396,"SoundDuration":410396,"Delta":312740184},{"NoteNumber":69,"Velocity":33,"Duration":205198,"SoundDuration":205198,"Delta":312740184},{"NoteNumber":76,"Velocity":26,"Duration":205198,"SoundDuration":205198,"Delta":312945382},{"NoteNumber":83,"Velocity":35,"Duration":441123,"SoundDuration":441123,"Delta":313150580},{"NoteNumber":68,"Velocity":30,"Duration":212464,"SoundDuration":212464,"Delta":313150580},{"NoteNumber":76,"Velocity":27,"Duration":228658,"SoundDuration":228658,"Delta":313363045},{"NoteNumber":85,"Velocity":39,"Duration":410396,"SoundDuration":410396,"Delta":313591703},{"NoteNumber":69,"Velocity":33,"Duration":205198,"SoundDuration":205198,"Delta":313591703},{"NoteNumber":76,"Velocity":26,"Duration":205198,"SoundDuration":205198,"Delta":313796901},{"NoteNumber":83,"Velocity":37,"Duration":410396,"SoundDuration":410396,"Delta":314002100},{"NoteNumber":71,"Velocity":31,"Duration":205198,"SoundDuration":205198,"Delta":314002100},{"NoteNumber":76,"Velocity":25,"Duration":205198,"SoundDuration":205198,"Delta":314207298},{"NoteNumber":81,"Velocity":39,"Duration":417662,"SoundDuration":417662,"Delta":314412496},{"NoteNumber":73,"Velocity":33,"Duration":205198,"SoundDuration":205198,"Delta":314412496},{"NoteNumber":76,"Velocity":25,"Duration":212464,"SoundDuration":212464,"Delta":314617694},{"NoteNumber":80,"Velocity":34,"Duration":420482,"SoundDuration":420482,"Delta":314830159},{"NoteNumber":70,"Velocity":30,"Duration":212464,"SoundDuration":212464,"Delta":314830159},{"NoteNumber":76,"Velocity":27,"Duration":226928,"SoundDuration":226928,"Delta":315042623},{"NoteNumber":80,"Velocity":39,"Duration":1262918,"SoundDuration":1262918,"Delta":315269552},{"NoteNumber":71,"Velocity":33,"Duration":1718820,"SoundDuration":1718820,"Delta":315269552},{"NoteNumber":73,"Velocity":27,"Duration":209497,"SoundDuration":209497,"Delta":315479050},{"NoteNumber":75,"Velocity":32,"Duration":209497,"SoundDuration":209497,"Delta":315688547},{"NoteNumber":76,"Velocity":26,"Duration":209497,"SoundDuration":209497,"Delta":315898044},{"NoteNumber":75,"Velocity":31,"Duration":212464,"SoundDuration":212464,"Delta":316107541},{"NoteNumber":76,"Velocity":27,"Duration":212464,"SoundDuration":212464,"Delta":316320006},{"NoteNumber":81,"Velocity":38,"Duration":221893,"SoundDuration":221893,"Delta":316532470},{"NoteNumber":78,"Velocity":29,"Duration":221893,"SoundDuration":221893,"Delta":316532470},{"NoteNumber":83,"Velocity":33,"Duration":234009,"SoundDuration":234009,"Delta":316754364},{"NoteNumber":80,"Velocity":27,"Duration":234009,"SoundDuration":234009,"Delta":316754364},{"NoteNumber":78,"Velocity":39,"Duration":434153,"SoundDuration":434153,"Delta":316988373},{"NoteNumber":75,"Velocity":33,"Duration":434153,"SoundDuration":434153,"Delta":316988373},{"NoteNumber":71,"Velocity":33,"Duration":434153,"SoundDuration":434153,"Delta":316988373},{"NoteNumber":71,"Velocity":39,"Duration":213526,"SoundDuration":213526,"Delta":317422527},{"NoteNumber":61,"Velocity":33,"Duration":213526,"SoundDuration":213526,"Delta":317422527},{"NoteNumber":73,"Velocity":34,"Duration":211754,"SoundDuration":211754,"Delta":317636054},{"NoteNumber":59,"Velocity":30,"Duration":211754,"SoundDuration":211754,"Delta":317636054},{"NoteNumber":71,"Velocity":39,"Duration":209534,"SoundDuration":209534,"Delta":317847808},{"NoteNumber":61,"Velocity":33,"Duration":209534,"SoundDuration":209534,"Delta":317847808},{"NoteNumber":73,"Velocity":35,"Duration":218659,"SoundDuration":218659,"Delta":318057342},{"NoteNumber":59,"Velocity":29,"Duration":218659,"SoundDuration":218659,"Delta":318057342},{"NoteNumber":71,"Velocity":39,"Duration":218659,"SoundDuration":218659,"Delta":318276001},{"NoteNumber":61,"Velocity":33,"Duration":218659,"SoundDuration":218659,"Delta":318276001},{"NoteNumber":73,"Velocity":35,"Duration":228658,"SoundDuration":228658,"Delta":318494660},{"NoteNumber":59,"Velocity":33,"Duration":228658,"SoundDuration":228658,"Delta":318494660},{"NoteNumber":78,"Velocity":53,"Duration":1248266,"SoundDuration":1248266,"Delta":318723319},{"NoteNumber":81,"Velocity":53,"Duration":1248266,"SoundDuration":1248266,"Delta":318723319},{"NoteNumber":71,"Velocity":39,"Duration":208044,"SoundDuration":208044,"Delta":318723319},{"NoteNumber":61,"Velocity":32,"Duration":208044,"SoundDuration":208044,"Delta":318723319},{"NoteNumber":54,"Velocity":41,"Duration":1248266,"SoundDuration":1248266,"Delta":318723319},{"NoteNumber":51,"Velocity":34,"Duration":1248266,"SoundDuration":1248266,"Delta":318723319},{"NoteNumber":73,"Velocity":35,"Duration":208044,"SoundDuration":208044,"Delta":318931363},{"NoteNumber":59,"Velocity":27,"Duration":208044,"SoundDuration":208044,"Delta":318931363},{"NoteNumber":71,"Velocity":39,"Duration":208044,"SoundDuration":208044,"Delta":319139408},{"NoteNumber":61,"Velocity":31,"Duration":208044,"SoundDuration":208044,"Delta":319139408},{"NoteNumber":73,"Velocity":35,"Duration":208044,"SoundDuration":208044,"Delta":319347452},{"NoteNumber":59,"Velocity":26,"Duration":208044,"SoundDuration":208044,"Delta":319347452},{"NoteNumber":71,"Velocity":39,"Duration":208044,"SoundDuration":208044,"Delta":319555497},{"NoteNumber":61,"Velocity":32,"Duration":208044,"SoundDuration":208044,"Delta":319555497},{"NoteNumber":73,"Velocity":37,"Duration":208044,"SoundDuration":208044,"Delta":319763541},{"NoteNumber":59,"Velocity":32,"Duration":208044,"SoundDuration":208044,"Delta":319763541},{"NoteNumber":80,"Velocity":57,"Duration":387931,"SoundDuration":387931,"Delta":319971586},{"NoteNumber":76,"Velocity":57,"Duration":387931,"SoundDuration":387931,"Delta":319971586},{"NoteNumber":71,"Velocity":43,"Duration":215517,"SoundDuration":215517,"Delta":319971586},{"NoteNumber":61,"Velocity":33,"Duration":215517,"SoundDuration":215517,"Delta":319971586},{"NoteNumber":56,"Velocity":42,"Duration":387931,"SoundDuration":387931,"Delta":319971586},{"NoteNumber":52,"Velocity":35,"Duration":387931,"SoundDuration":387931,"Delta":319971586},{"NoteNumber":73,"Velocity":41,"Duration":215517,"SoundDuration":215517,"Delta":320187103},{"NoteNumber":59,"Velocity":36,"Duration":215517,"SoundDuration":215517,"Delta":320187103},{"NoteNumber":80,"Velocity":62,"Duration":407608,"SoundDuration":407608,"Delta":320402620},{"NoteNumber":76,"Velocity":62,"Duration":407608,"SoundDuration":407608,"Delta":320402620},{"NoteNumber":71,"Velocity":48,"Duration":203804,"SoundDuration":203804,"Delta":320402620},{"NoteNumber":61,"Velocity":37,"Duration":203804,"SoundDuration":203804,"Delta":320402620},{"NoteNumber":56,"Velocity":47,"Duration":407608,"SoundDuration":407608,"Delta":320402620},{"NoteNumber":52,"Velocity":39,"Duration":407608,"SoundDuration":407608,"Delta":320402620},{"NoteNumber":73,"Velocity":42,"Duration":203804,"SoundDuration":203804,"Delta":320606425},{"NoteNumber":59,"Velocity":29,"Duration":203804,"SoundDuration":203804,"Delta":320606425},{"NoteNumber":75,"Velocity":48,"Duration":366847,"SoundDuration":366847,"Delta":320810229},{"NoteNumber":78,"Velocity":48,"Duration":366847,"SoundDuration":366847,"Delta":320810229},{"NoteNumber":71,"Velocity":46,"Duration":203804,"SoundDuration":203804,"Delta":320810229},{"NoteNumber":61,"Velocity":32,"Duration":203804,"SoundDuration":203804,"Delta":320810229},{"NoteNumber":57,"Velocity":41,"Duration":366847,"SoundDuration":366847,"Delta":320810229},{"NoteNumber":54,"Velocity":34,"Duration":366847,"SoundDuration":366847,"Delta":320810229},{"NoteNumber":73,"Velocity":40,"Duration":203804,"SoundDuration":203804,"Delta":321014033},{"NoteNumber":59,"Velocity":28,"Duration":203804,"SoundDuration":203804,"Delta":321014033},{"NoteNumber":78,"Velocity":47,"Duration":416088,"SoundDuration":416088,"Delta":321217837},{"NoteNumber":71,"Velocity":44,"Duration":208044,"SoundDuration":208044,"Delta":321217837},{"NoteNumber":75,"Velocity":47,"Duration":416088,"SoundDuration":416088,"Delta":321217837},{"NoteNumber":54,"Velocity":28,"Duration":416088,"SoundDuration":416088,"Delta":321217837},{"NoteNumber":57,"Velocity":33,"Duration":416088,"SoundDuration":416088,"Delta":321217837},{"NoteNumber":61,"Velocity":26,"Duration":208044,"SoundDuration":208044,"Delta":321217837},{"NoteNumber":73,"Velocity":38,"Duration":208044,"SoundDuration":208044,"Delta":321425882},{"NoteNumber":59,"Velocity":24,"Duration":208044,"SoundDuration":208044,"Delta":321425882},{"NoteNumber":80,"Velocity":39,"Duration":434153,"SoundDuration":434153,"Delta":321633926},{"NoteNumber":76,"Velocity":39,"Duration":434153,"SoundDuration":434153,"Delta":321633926},{"NoteNumber":71,"Velocity":41,"Duration":217076,"SoundDuration":217076,"Delta":321633926},{"NoteNumber":52,"Velocity":28,"Duration":434153,"SoundDuration":434153,"Delta":321633926},{"NoteNumber":56,"Velocity":33,"Duration":434153,"SoundDuration":434153,"Delta":321633926},{"NoteNumber":61,"Velocity":26,"Duration":217076,"SoundDuration":217076,"Delta":321633926},{"NoteNumber":73,"Velocity":36,"Duration":217076,"SoundDuration":217076,"Delta":321851003},{"NoteNumber":59,"Velocity":24,"Duration":217076,"SoundDuration":217076,"Delta":321851003},{"NoteNumber":81,"Velocity":53,"Duration":1231189,"SoundDuration":1231189,"Delta":322068080},{"NoteNumber":78,"Velocity":53,"Duration":1231189,"SoundDuration":1231189,"Delta":322068080},{"NoteNumber":71,"Velocity":39,"Duration":205198,"SoundDuration":205198,"Delta":322068080},{"NoteNumber":61,"Velocity":32,"Duration":205198,"SoundDuration":205198,"Delta":322068080},{"NoteNumber":54,"Velocity":41,"Duration":1231189,"SoundDuration":1231189,"Delta":322068080},{"NoteNumber":51,"Velocity":34,"Duration":1231189,"SoundDuration":1231189,"Delta":322068080},{"NoteNumber":73,"Velocity":36,"Duration":205198,"SoundDuration":205198,"Delta":322273278},{"NoteNumber":59,"Velocity":27,"Duration":205198,"SoundDuration":205198,"Delta":322273278},{"NoteNumber":71,"Velocity":41,"Duration":205198,"SoundDuration":205198,"Delta":322478476},{"NoteNumber":61,"Velocity":31,"Duration":205198,"SoundDuration":205198,"Delta":322478476},{"NoteNumber":73,"Velocity":38,"Duration":205198,"SoundDuration":205198,"Delta":322683675},{"NoteNumber":59,"Velocity":26,"Duration":205198,"SoundDuration":205198,"Delta":322683675},{"NoteNumber":71,"Velocity":43,"Duration":205198,"SoundDuration":205198,"Delta":322888873},{"NoteNumber":61,"Velocity":32,"Duration":205198,"SoundDuration":205198,"Delta":322888873},{"NoteNumber":73,"Velocity":40,"Duration":205198,"SoundDuration":205198,"Delta":323094071},{"NoteNumber":59,"Velocity":32,"Duration":205198,"SoundDuration":205198,"Delta":323094071},{"NoteNumber":71,"Velocity":46,"Duration":215517,"SoundDuration":215517,"Delta":323299269},{"NoteNumber":80,"Velocity":57,"Duration":387931,"SoundDuration":387931,"Delta":323299269},{"NoteNumber":76,"Velocity":57,"Duration":387931,"SoundDuration":387931,"Delta":323299269},{"NoteNumber":61,"Velocity":33,"Duration":215517,"SoundDuration":215517,"Delta":323299269},{"NoteNumber":56,"Velocity":42,"Duration":387931,"SoundDuration":387931,"Delta":323299269},{"NoteNumber":52,"Velocity":35,"Duration":387931,"SoundDuration":387931,"Delta":323299269},{"NoteNumber":73,"Velocity":42,"Duration":215517,"SoundDuration":215517,"Delta":323514787},{"NoteNumber":59,"Velocity":36,"Duration":215517,"SoundDuration":215517,"Delta":323514787},{"NoteNumber":78,"Velocity":62,"Duration":418994,"SoundDuration":418994,"Delta":323730304},{"NoteNumber":75,"Velocity":62,"Duration":209497,"SoundDuration":209497,"Delta":323730304},{"NoteNumber":57,"Velocity":32,"Duration":209497,"SoundDuration":209497,"Delta":323730304},{"NoteNumber":54,"Velocity":39,"Duration":418994,"SoundDuration":418994,"Delta":323730304},{"NoteNumber":71,"Velocity":36,"Duration":209497,"SoundDuration":209497,"Delta":323939801},{"NoteNumber":59,"Velocity":29,"Duration":209497,"SoundDuration":209497,"Delta":323939801},{"NoteNumber":85,"Velocity":48,"Duration":407608,"SoundDuration":407608,"Delta":324149298},{"NoteNumber":81,"Velocity":48,"Duration":203804,"SoundDuration":203804,"Delta":324149298},{"NoteNumber":51,"Velocity":41,"Duration":183423,"SoundDuration":183423,"Delta":324149298},{"NoteNumber":47,"Velocity":34,"Duration":183423,"SoundDuration":183423,"Delta":324149298},{"NoteNumber":71,"Velocity":36,"Duration":203804,"SoundDuration":203804,"Delta":324353103},{"NoteNumber":59,"Velocity":28,"Duration":203804,"SoundDuration":203804,"Delta":324353103},{"NoteNumber":83,"Velocity":47,"Duration":416088,"SoundDuration":416088,"Delta":324556907},{"NoteNumber":80,"Velocity":47,"Duration":208044,"SoundDuration":208044,"Delta":324556907},{"NoteNumber":49,"Velocity":28,"Duration":208044,"SoundDuration":208044,"Delta":324556907},{"NoteNumber":52,"Velocity":33,"Duration":208044,"SoundDuration":208044,"Delta":324556907},{"NoteNumber":71,"Velocity":36,"Duration":208044,"SoundDuration":208044,"Delta":324764951},{"NoteNumber":59,"Velocity":24,"Duration":208044,"SoundDuration":208044,"Delta":324764951},{"NoteNumber":78,"Velocity":39,"Duration":212464,"SoundDuration":212464,"Delta":324972996},{"NoteNumber":81,"Velocity":39,"Duration":424929,"SoundDuration":424929,"Delta":324972996},{"NoteNumber":51,"Velocity":28,"Duration":212464,"SoundDuration":212464,"Delta":324972996},{"NoteNumber":54,"Velocity":33,"Duration":212464,"SoundDuration":212464,"Delta":324972996},{"NoteNumber":71,"Velocity":36,"Duration":212464,"SoundDuration":212464,"Delta":325185460},{"NoteNumber":59,"Velocity":24,"Duration":212464,"SoundDuration":212464,"Delta":325185460},{"NoteNumber":80,"Velocity":62,"Duration":413223,"SoundDuration":413223,"Delta":325397925},{"NoteNumber":76,"Velocity":62,"Duration":206611,"SoundDuration":206611,"Delta":325397925},{"NoteNumber":56,"Velocity":32,"Duration":206611,"SoundDuration":206611,"Delta":325397925},{"NoteNumber":52,"Velocity":39,"Duration":206611,"SoundDuration":206611,"Delta":325397925},{"NoteNumber":71,"Velocity":35,"Duration":206611,"SoundDuration":206611,"Delta":325604536},{"NoteNumber":59,"Velocity":28,"Duration":206611,"SoundDuration":206611,"Delta":325604536},{"NoteNumber":83,"Velocity":47,"Duration":410396,"SoundDuration":410396,"Delta":325811148},{"NoteNumber":80,"Velocity":47,"Duration":205198,"SoundDuration":205198,"Delta":325811148},{"NoteNumber":52,"Velocity":40,"Duration":184678,"SoundDuration":184678,"Delta":325811148},{"NoteNumber":49,"Velocity":33,"Duration":184678,"SoundDuration":184678,"Delta":325811148},{"NoteNumber":71,"Velocity":34,"Duration":205198,"SoundDuration":205198,"Delta":326016346},{"NoteNumber":59,"Velocity":27,"Duration":205198,"SoundDuration":205198,"Delta":326016346},{"NoteNumber":81,"Velocity":45,"Duration":416088,"SoundDuration":416088,"Delta":326221544},{"NoteNumber":78,"Velocity":45,"Duration":208044,"SoundDuration":208044,"Delta":326221544},{"NoteNumber":51,"Velocity":26,"Duration":208044,"SoundDuration":208044,"Delta":326221544},{"NoteNumber":54,"Velocity":31,"Duration":208044,"SoundDuration":208044,"Delta":326221544},{"NoteNumber":71,"Velocity":34,"Duration":208044,"SoundDuration":208044,"Delta":326429589},{"NoteNumber":59,"Velocity":22,"Duration":208044,"SoundDuration":208044,"Delta":326429589},{"NoteNumber":76,"Velocity":36,"Duration":213979,"SoundDuration":213979,"Delta":326637633},{"NoteNumber":80,"Velocity":36,"Duration":424950,"SoundDuration":424950,"Delta":326637633},{"NoteNumber":52,"Velocity":26,"Duration":213979,"SoundDuration":213979,"Delta":326637633},{"NoteNumber":56,"Velocity":31,"Duration":213979,"SoundDuration":213979,"Delta":326637633},{"NoteNumber":71,"Velocity":33,"Duration":210970,"SoundDuration":210970,"Delta":326851613},{"NoteNumber":59,"Velocity":22,"Duration":210970,"SoundDuration":210970,"Delta":326851613},{"NoteNumber":78,"Velocity":57,"Duration":418994,"SoundDuration":418994,"Delta":327062584},{"NoteNumber":75,"Velocity":57,"Duration":209497,"SoundDuration":209497,"Delta":327062584},{"NoteNumber":57,"Velocity":29,"Duration":209497,"SoundDuration":209497,"Delta":327062584},{"NoteNumber":54,"Velocity":35,"Duration":209497,"SoundDuration":209497,"Delta":327062584},{"NoteNumber":71,"Velocity":32,"Duration":209497,"SoundDuration":209497,"Delta":327272081},{"NoteNumber":59,"Velocity":26,"Duration":209497,"SoundDuration":209497,"Delta":327272081},{"NoteNumber":81,"Velocity":43,"Duration":410396,"SoundDuration":410396,"Delta":327481578},{"NoteNumber":78,"Velocity":43,"Duration":205198,"SoundDuration":205198,"Delta":327481578},{"NoteNumber":54,"Velocity":36,"Duration":184678,"SoundDuration":184678,"Delta":327481578},{"NoteNumber":51,"Velocity":30,"Duration":184678,"SoundDuration":184678,"Delta":327481578},{"NoteNumber":71,"Velocity":32,"Duration":205198,"SoundDuration":205198,"Delta":327686777},{"NoteNumber":59,"Velocity":24,"Duration":205198,"SoundDuration":205198,"Delta":327686777},{"NoteNumber":80,"Velocity":41,"Duration":416088,"SoundDuration":416088,"Delta":327891975},{"NoteNumber":76,"Velocity":41,"Duration":208044,"SoundDuration":208044,"Delta":327891975},{"NoteNumber":52,"Velocity":24,"Duration":208044,"SoundDuration":208044,"Delta":327891975},{"NoteNumber":56,"Velocity":29,"Duration":208044,"SoundDuration":208044,"Delta":327891975},{"NoteNumber":71,"Velocity":31,"Duration":208044,"SoundDuration":208044,"Delta":328100019},{"NoteNumber":59,"Velocity":20,"Duration":208044,"SoundDuration":208044,"Delta":328100019},{"NoteNumber":75,"Velocity":33,"Duration":212464,"SoundDuration":212464,"Delta":328308064},{"NoteNumber":78,"Velocity":33,"Duration":424929,"SoundDuration":424929,"Delta":328308064},{"NoteNumber":54,"Velocity":24,"Duration":212464,"SoundDuration":212464,"Delta":328308064},{"NoteNumber":57,"Velocity":28,"Duration":212464,"SoundDuration":212464,"Delta":328308064},{"NoteNumber":69,"Velocity":30,"Duration":212464,"SoundDuration":212464,"Delta":328520528},{"NoteNumber":63,"Velocity":20,"Duration":212464,"SoundDuration":212464,"Delta":328520528},{"NoteNumber":71,"Velocity":41,"Duration":213979,"SoundDuration":213979,"Delta":328732993},{"NoteNumber":76,"Velocity":52,"Duration":427959,"SoundDuration":427959,"Delta":328732993},{"NoteNumber":56,"Velocity":26,"Duration":213979,"SoundDuration":213979,"Delta":328732993},{"NoteNumber":68,"Velocity":29,"Duration":213979,"SoundDuration":213979,"Delta":328946973},{"NoteNumber":59,"Velocity":24,"Duration":213979,"SoundDuration":213979,"Delta":328946973},{"NoteNumber":71,"Velocity":29,"Duration":209497,"SoundDuration":209497,"Delta":329160953},{"NoteNumber":74,"Velocity":39,"Duration":418994,"SoundDuration":418994,"Delta":329160953},{"NoteNumber":56,"Velocity":33,"Duration":188547,"SoundDuration":188547,"Delta":329160953},{"NoteNumber":65,"Velocity":29,"Duration":209497,"SoundDuration":209497,"Delta":329370450},{"NoteNumber":59,"Velocity":22,"Duration":209497,"SoundDuration":209497,"Delta":329370450},{"NoteNumber":71,"Velocity":29,"Duration":217076,"SoundDuration":217076,"Delta":329579947},{"NoteNumber":73,"Velocity":37,"Duration":434153,"SoundDuration":434153,"Delta":329579947},{"NoteNumber":56,"Velocity":26,"Duration":217076,"SoundDuration":217076,"Delta":329579947},{"NoteNumber":65,"Velocity":28,"Duration":217076,"SoundDuration":217076,"Delta":329797024},{"NoteNumber":59,"Velocity":18,"Duration":217076,"SoundDuration":217076,"Delta":329797024},{"NoteNumber":71,"Velocity":29,"Duration":228658,"SoundDuration":228658,"Delta":330014101},{"NoteNumber":73,"Velocity":30,"Duration":457316,"SoundDuration":457316,"Delta":330014101},{"NoteNumber":56,"Velocity":25,"Duration":228658,"SoundDuration":228658,"Delta":330014101},{"NoteNumber":65,"Velocity":27,"Duration":228658,"SoundDuration":228658,"Delta":330242759},{"NoteNumber":59,"Velocity":18,"Duration":228658,"SoundDuration":228658,"Delta":330242759},{"NoteNumber":73,"Velocity":39,"Duration":228658,"SoundDuration":228658,"Delta":330471418},{"NoteNumber":65,"Velocity":39,"Duration":228658,"SoundDuration":228658,"Delta":330471418},{"NoteNumber":56,"Velocity":24,"Duration":438155,"SoundDuration":438155,"Delta":330471418},{"NoteNumber":59,"Velocity":24,"Duration":438155,"SoundDuration":438155,"Delta":330471418},{"NoteNumber":73,"Velocity":33,"Duration":209497,"SoundDuration":209497,"Delta":330700076},{"NoteNumber":75,"Velocity":34,"Duration":209497,"SoundDuration":209497,"Delta":330909574},{"NoteNumber":77,"Velocity":37,"Duration":168918,"SoundDuration":168918,"Delta":331119071},{"NoteNumber":80,"Velocity":35,"Duration":56306,"SoundDuration":56306,"Delta":331287990},{"NoteNumber":78,"Velocity":39,"Duration":209497,"SoundDuration":209497,"Delta":331344296},{"NoteNumber":77,"Velocity":32,"Duration":209497,"SoundDuration":209497,"Delta":331553793},{"NoteNumber":61,"Velocity":27,"Duration":209497,"SoundDuration":209497,"Delta":331553793},{"NoteNumber":78,"Velocity":35,"Duration":209497,"SoundDuration":209497,"Delta":331763291},{"NoteNumber":63,"Velocity":29,"Duration":209497,"SoundDuration":209497,"Delta":331763291},{"NoteNumber":80,"Velocity":32,"Duration":232198,"SoundDuration":232198,"Delta":331972788},{"NoteNumber":65,"Velocity":27,"Duration":232198,"SoundDuration":232198,"Delta":331972788},{"NoteNumber":81,"Velocity":39,"Duration":210970,"SoundDuration":210970,"Delta":332204986},{"NoteNumber":66,"Velocity":33,"Duration":210970,"SoundDuration":210970,"Delta":332204986},{"NoteNumber":77,"Velocity":33,"Duration":210970,"SoundDuration":210970,"Delta":332415957},{"NoteNumber":61,"Velocity":28,"Duration":210970,"SoundDuration":210970,"Delta":332415957},{"NoteNumber":78,"Velocity":35,"Duration":210970,"SoundDuration":210970,"Delta":332626927},{"NoteNumber":63,"Velocity":29,"Duration":210970,"SoundDuration":210970,"Delta":332626927},{"NoteNumber":80,"Velocity":32,"Duration":170196,"SoundDuration":170196,"Delta":332837898},{"NoteNumber":65,"Velocity":27,"Duration":170196,"SoundDuration":170196,"Delta":332837898},{"NoteNumber":83,"Velocity":32,"Duration":56732,"SoundDuration":56732,"Delta":333008094},{"NoteNumber":68,"Velocity":27,"Duration":56732,"SoundDuration":56732,"Delta":333008094},{"NoteNumber":81,"Velocity":41,"Duration":210970,"SoundDuration":210970,"Delta":333064827},{"NoteNumber":66,"Velocity":34,"Duration":210970,"SoundDuration":210970,"Delta":333064827},{"NoteNumber":80,"Velocity":33,"Duration":210970,"SoundDuration":210970,"Delta":333275797},{"NoteNumber":65,"Velocity":28,"Duration":210970,"SoundDuration":210970,"Delta":333275797},{"NoteNumber":81,"Velocity":35,"Duration":228658,"SoundDuration":228658,"Delta":333486768},{"NoteNumber":66,"Velocity":29,"Duration":228658,"SoundDuration":228658,"Delta":333486768},{"NoteNumber":83,"Velocity":32,"Duration":220264,"SoundDuration":220264,"Delta":333715426},{"NoteNumber":68,"Velocity":27,"Duration":220264,"SoundDuration":220264,"Delta":333715426},{"NoteNumber":85,"Velocity":42,"Duration":210970,"SoundDuration":210970,"Delta":333935690},{"NoteNumber":69,"Velocity":35,"Duration":210970,"SoundDuration":210970,"Delta":333935690},{"NoteNumber":83,"Velocity":35,"Duration":210970,"SoundDuration":210970,"Delta":334146661},{"NoteNumber":68,"Velocity":29,"Duration":210970,"SoundDuration":210970,"Delta":334146661},{"NoteNumber":81,"Velocity":35,"Duration":210970,"SoundDuration":210970,"Delta":334357631},{"NoteNumber":69,"Velocity":29,"Duration":210970,"SoundDuration":210970,"Delta":334357631},{"NoteNumber":80,"Velocity":34,"Duration":221893,"SoundDuration":221893,"Delta":334568602},{"NoteNumber":71,"Velocity":28,"Duration":221893,"SoundDuration":221893,"Delta":334568602},{"NoteNumber":81,"Velocity":41,"Duration":210970,"SoundDuration":210970,"Delta":334790495},{"NoteNumber":73,"Velocity":34,"Duration":210970,"SoundDuration":210970,"Delta":334790495},{"NoteNumber":80,"Velocity":35,"Duration":210970,"SoundDuration":210970,"Delta":335001466},{"NoteNumber":71,"Velocity":29,"Duration":210970,"SoundDuration":210970,"Delta":335001466},{"NoteNumber":78,"Velocity":35,"Duration":210970,"SoundDuration":210970,"Delta":335212436},{"NoteNumber":69,"Velocity":29,"Duration":210970,"SoundDuration":210970,"Delta":335212436},{"NoteNumber":85,"Velocity":34,"Duration":232198,"SoundDuration":232198,"Delta":335423407},{"NoteNumber":70,"Velocity":28,"Duration":232198,"SoundDuration":232198,"Delta":335423407},{"NoteNumber":80,"Velocity":40,"Duration":210970,"SoundDuration":210970,"Delta":335655605},{"NoteNumber":71,"Velocity":34,"Duration":421941,"SoundDuration":421941,"Delta":335655605},{"NoteNumber":78,"Velocity":34,"Duration":210970,"SoundDuration":210970,"Delta":335866576},{"NoteNumber":76,"Velocity":35,"Duration":210970,"SoundDuration":210970,"Delta":336077546},{"NoteNumber":83,"Velocity":35,"Duration":210970,"SoundDuration":210970,"Delta":336288517},{"NoteNumber":78,"Velocity":40,"Duration":210970,"SoundDuration":210970,"Delta":336499487},{"NoteNumber":59,"Velocity":34,"Duration":421941,"SoundDuration":421941,"Delta":336499487},{"NoteNumber":76,"Velocity":33,"Duration":210970,"SoundDuration":210970,"Delta":336710458},{"NoteNumber":75,"Velocity":35,"Duration":228658,"SoundDuration":228658,"Delta":336921428},{"NoteNumber":83,"Velocity":33,"Duration":242932,"SoundDuration":242932,"Delta":337150087},{"NoteNumber":83,"Velocity":43,"Duration":1656757,"SoundDuration":1656757,"Delta":337415104},{"NoteNumber":80,"Velocity":43,"Duration":1656757,"SoundDuration":1656757,"Delta":337415104},{"NoteNumber":71,"Velocity":36,"Duration":1656757,"SoundDuration":1656757,"Delta":337415104},{"NoteNumber":52,"Velocity":32,"Duration":271739,"SoundDuration":271739,"Delta":337415104},{"NoteNumber":59,"Velocity":27,"Duration":271738,"SoundDuration":271738,"Delta":337686843},{"NoteNumber":56,"Velocity":27,"Duration":271739,"SoundDuration":271739,"Delta":337958582},{"NoteNumber":52,"Velocity":32,"Duration":271738,"SoundDuration":271738,"Delta":338230321},{"NoteNumber":64,"Velocity":27,"Duration":271739,"SoundDuration":271739,"Delta":338502060},{"NoteNumber":59,"Velocity":27,"Duration":298062,"SoundDuration":298062,"Delta":338773799},{"NoteNumber":69,"Velocity":28,"Duration":801270,"SoundDuration":801270,"Delta":339071862},{"NoteNumber":78,"Velocity":34,"Duration":801270,"SoundDuration":801270,"Delta":339071862},{"NoteNumber":81,"Velocity":34,"Duration":801270,"SoundDuration":801270,"Delta":339071862},{"NoteNumber":54,"Velocity":32,"Duration":269300,"SoundDuration":269300,"Delta":339071862},{"NoteNumber":63,"Velocity":27,"Duration":266925,"SoundDuration":266925,"Delta":339341162},{"NoteNumber":59,"Velocity":27,"Duration":265045,"SoundDuration":265045,"Delta":339608087},{"NoteNumber":71,"Velocity":25,"Duration":830081,"SoundDuration":830081,"Delta":339873133},{"NoteNumber":76,"Velocity":30,"Duration":830081,"SoundDuration":830081,"Delta":339873133},{"NoteNumber":80,"Velocity":30,"Duration":830081,"SoundDuration":830081,"Delta":339873133},{"NoteNumber":56,"Velocity":33,"Duration":263572,"SoundDuration":263572,"Delta":339873133},{"NoteNumber":64,"Velocity":27,"Duration":266208,"SoundDuration":266208,"Delta":340136706},{"NoteNumber":59,"Velocity":29,"Duration":300300,"SoundDuration":300300,"Delta":340402914},{"NoteNumber":73,"Velocity":39,"Duration":837679,"SoundDuration":837679,"Delta":340703214},{"NoteNumber":78,"Velocity":39,"Duration":837679,"SoundDuration":837679,"Delta":340703214},{"NoteNumber":57,"Velocity":32,"Duration":274087,"SoundDuration":274087,"Delta":340703214},{"NoteNumber":66,"Velocity":29,"Duration":269905,"SoundDuration":269905,"Delta":340977302},{"NoteNumber":61,"Velocity":29,"Duration":293685,"SoundDuration":293685,"Delta":341247208},{"NoteNumber":76,"Velocity":35,"Duration":1682389,"SoundDuration":1682389,"Delta":341540893},{"NoteNumber":73,"Velocity":29,"Duration":843053,"SoundDuration":843053,"Delta":341540893},{"NoteNumber":58,"Velocity":34,"Duration":273597,"SoundDuration":273597,"Delta":341540893},{"NoteNumber":68,"Velocity":31,"Duration":273597,"SoundDuration":273597,"Delta":341814491},{"NoteNumber":64,"Velocity":30,"Duration":295858,"SoundDuration":295858,"Delta":342088089},{"NoteNumber":71,"Velocity":33,"Duration":839336,"SoundDuration":839336,"Delta":342383947},{"NoteNumber":59,"Velocity":37,"Duration":271739,"SoundDuration":271739,"Delta":342383947},{"NoteNumber":68,"Velocity":32,"Duration":271738,"SoundDuration":271738,"Delta":342655686},{"NoteNumber":64,"Velocity":32,"Duration":295858,"SoundDuration":295858,"Delta":342927425},{"NoteNumber":75,"Velocity":44,"Duration":416088,"SoundDuration":416088,"Delta":343223283},{"NoteNumber":71,"Velocity":37,"Duration":866797,"SoundDuration":866797,"Delta":343223283},{"NoteNumber":57,"Velocity":42,"Duration":277392,"SoundDuration":277392,"Delta":343223283},{"NoteNumber":66,"Velocity":36,"Duration":277392,"SoundDuration":277392,"Delta":343500675},{"NoteNumber":83,"Velocity":43,"Duration":450708,"SoundDuration":450708,"Delta":343639372},{"NoteNumber":63,"Velocity":36,"Duration":312012,"SoundDuration":312012,"Delta":343778068},{"NoteNumber":71,"Velocity":57,"Duration":1650465,"SoundDuration":1650465,"Delta":344090080},{"NoteNumber":74,"Velocity":57,"Duration":1650465,"SoundDuration":1650465,"Delta":344090080},{"NoteNumber":83,"Velocity":67,"Duration":1650465,"SoundDuration":1650465,"Delta":344090080},{"NoteNumber":56,"Velocity":43,"Duration":214618,"SoundDuration":214618,"Delta":344090080},{"NoteNumber":64,"Velocity":36,"Duration":207745,"SoundDuration":207745,"Delta":344304699},{"NoteNumber":59,"Velocity":36,"Duration":206317,"SoundDuration":206317,"Delta":344512445},{"NoteNumber":56,"Velocity":34,"Duration":204907,"SoundDuration":204907,"Delta":344718762},{"NoteNumber":52,"Velocity":42,"Duration":203517,"SoundDuration":203517,"Delta":344923670},{"NoteNumber":59,"Velocity":37,"Duration":202715,"SoundDuration":202715,"Delta":345127188},{"NoteNumber":56,"Velocity":38,"Duration":204443,"SoundDuration":204443,"Delta":345329903},{"NoteNumber":52,"Velocity":35,"Duration":206199,"SoundDuration":206199,"Delta":345534347},{"NoteNumber":69,"Velocity":51,"Duration":824008,"SoundDuration":824008,"Delta":345740546},{"NoteNumber":74,"Velocity":51,"Duration":824008,"SoundDuration":824008,"Delta":345740546},{"NoteNumber":81,"Velocity":63,"Duration":824008,"SoundDuration":824008,"Delta":345740546},{"NoteNumber":54,"Velocity":50,"Duration":210320,"SoundDuration":210320,"Delta":345740546},{"NoteNumber":62,"Velocity":40,"Duration":205610,"SoundDuration":205610,"Delta":345950867},{"NoteNumber":57,"Velocity":40,"Duration":204559,"SoundDuration":204559,"Delta":346156477},{"NoteNumber":54,"Velocity":36,"Duration":203517,"SoundDuration":203517,"Delta":346361037},{"NoteNumber":68,"Velocity":52,"Duration":837070,"SoundDuration":837070,"Delta":346564554},{"NoteNumber":74,"Velocity":52,"Duration":837070,"SoundDuration":837070,"Delta":346564554},{"NoteNumber":80,"Velocity":64,"Duration":837070,"SoundDuration":837070,"Delta":346564554},{"NoteNumber":71,"Velocity":52,"Duration":837070,"SoundDuration":837070,"Delta":346564554},{"NoteNumber":56,"Velocity":48,"Duration":202429,"SoundDuration":202429,"Delta":346564554},{"NoteNumber":64,"Velocity":43,"Duration":201129,"SoundDuration":201129,"Delta":346766984},{"NoteNumber":59,"Velocity":43,"Duration":208286,"SoundDuration":208286,"Delta":346968113},{"NoteNumber":56,"Velocity":41,"Duration":225225,"SoundDuration":225225,"Delta":347176399},{"NoteNumber":74,"Velocity":68,"Duration":837163,"SoundDuration":837163,"Delta":347401625},{"NoteNumber":78,"Velocity":80,"Duration":837163,"SoundDuration":837163,"Delta":347401625},{"NoteNumber":57,"Velocity":61,"Duration":203804,"SoundDuration":203804,"Delta":347401625},{"NoteNumber":66,"Velocity":46,"Duration":203804,"SoundDuration":203804,"Delta":347605429},{"NoteNumber":62,"Velocity":45,"Duration":209290,"SoundDuration":209290,"Delta":347809233},{"NoteNumber":57,"Velocity":43,"Duration":220264,"SoundDuration":220264,"Delta":348018524},{"NoteNumber":74,"Velocity":68,"Duration":835669,"SoundDuration":835669,"Delta":348238788},{"NoteNumber":76,"Velocity":81,"Duration":835669,"SoundDuration":835669,"Delta":348238788},{"NoteNumber":59,"Velocity":62,"Duration":202429,"SoundDuration":202429,"Delta":348238788},{"NoteNumber":68,"Velocity":47,"Duration":202429,"SoundDuration":202429,"Delta":348441217},{"NoteNumber":62,"Velocity":49,"Duration":208917,"SoundDuration":208917,"Delta":348643647},{"NoteNumber":59,"Velocity":46,"Duration":203402,"SoundDuration":203402,"Delta":348852564},{"NoteNumber":76,"Velocity":82,"Duration":833497,"SoundDuration":833497,"Delta":349074458},{"NoteNumber":74,"Velocity":82,"Duration":833497,"SoundDuration":833497,"Delta":349074458},{"NoteNumber":71,"Velocity":69,"Duration":833497,"SoundDuration":833497,"Delta":349074458},{"NoteNumber":56,"Velocity":63,"Duration":202429,"SoundDuration":202429,"Delta":349074458},{"NoteNumber":62,"Velocity":53,"Duration":202429,"SoundDuration":202429,"Delta":349276887},{"NoteNumber":59,"Velocity":62,"Duration":208374,"SoundDuration":208374,"Delta":349479316},{"NoteNumber":56,"Velocity":68,"Duration":220264,"SoundDuration":220264,"Delta":349687690},{"NoteNumber":86,"Velocity":94,"Duration":866467,"SoundDuration":866467,"Delta":349907955},{"NoteNumber":74,"Velocity":80,"Duration":866467,"SoundDuration":866467,"Delta":349907955},{"NoteNumber":53,"Velocity":79,"Duration":208044,"SoundDuration":208044,"Delta":349907955},{"NoteNumber":62,"Velocity":65,"Duration":208044,"SoundDuration":208044,"Delta":350115999},{"NoteNumber":59,"Velocity":70,"Duration":212660,"SoundDuration":212660,"Delta":350324044},{"NoteNumber":56,"Velocity":65,"Duration":217908,"SoundDuration":217908,"Delta":350536704},{"NoteNumber":86,"Velocity":102,"Duration":1697276,"SoundDuration":1697276,"Delta":350774422},{"NoteNumber":74,"Velocity":87,"Duration":1697276,"SoundDuration":1697276,"Delta":350774422},{"NoteNumber":53,"Velocity":79,"Duration":210970,"SoundDuration":210970,"Delta":350774422},{"NoteNumber":62,"Velocity":70,"Duration":210970,"SoundDuration":210970,"Delta":350985393},{"NoteNumber":59,"Velocity":70,"Duration":210970,"SoundDuration":210970,"Delta":351196363},{"NoteNumber":56,"Velocity":65,"Duration":221893,"SoundDuration":221893,"Delta":351407334},{"NoteNumber":53,"Velocity":79,"Duration":213979,"SoundDuration":213979,"Delta":351629227},{"NoteNumber":62,"Velocity":66,"Duration":209497,"SoundDuration":209497,"Delta":351843207},{"NoteNumber":59,"Velocity":72,"Duration":209497,"SoundDuration":209497,"Delta":352052705},{"NoteNumber":56,"Velocity":66,"Duration":209497,"SoundDuration":209497,"Delta":352262202},{"NoteNumber":77,"Velocity":87,"Duration":1678192,"SoundDuration":1678192,"Delta":352471699},{"NoteNumber":89,"Velocity":102,"Duration":1678192,"SoundDuration":1678192,"Delta":352471699},{"NoteNumber":50,"Velocity":79,"Duration":208807,"SoundDuration":208807,"Delta":352471699},{"NoteNumber":59,"Velocity":59,"Duration":208044,"SoundDuration":208044,"Delta":352680506},{"NoteNumber":56,"Velocity":68,"Duration":208734,"SoundDuration":208734,"Delta":352888551},{"NoteNumber":53,"Velocity":58,"Duration":209497,"SoundDuration":209497,"Delta":353097285},{"NoteNumber":50,"Velocity":72,"Duration":210197,"SoundDuration":210197,"Delta":353306783},{"NoteNumber":59,"Velocity":57,"Duration":210970,"SoundDuration":210970,"Delta":353516980},{"NoteNumber":56,"Velocity":63,"Duration":210970,"SoundDuration":210970,"Delta":353727950},{"NoteNumber":53,"Velocity":56,"Duration":210970,"SoundDuration":210970,"Delta":353938921},{"NoteNumber":77,"Velocity":102,"Duration":205461,"SoundDuration":205461,"Delta":354149891},{"NoteNumber":89,"Velocity":102,"Duration":205461,"SoundDuration":205461,"Delta":354149891},{"NoteNumber":47,"Velocity":73,"Duration":205461,"SoundDuration":205461,"Delta":354149891},{"NoteNumber":65,"Velocity":63,"Duration":206611,"SoundDuration":206611,"Delta":354355353},{"NoteNumber":56,"Velocity":54,"Duration":206611,"SoundDuration":206611,"Delta":354355353},{"NoteNumber":71,"Velocity":70,"Duration":206611,"SoundDuration":206611,"Delta":354561964},{"NoteNumber":53,"Velocity":54,"Duration":206611,"SoundDuration":206611,"Delta":354561964},{"NoteNumber":74,"Velocity":56,"Duration":207619,"SoundDuration":207619,"Delta":354768576},{"NoteNumber":50,"Velocity":46,"Duration":207619,"SoundDuration":207619,"Delta":354768576},{"NoteNumber":77,"Velocity":53,"Duration":207773,"SoundDuration":207773,"Delta":354976195},{"NoteNumber":47,"Velocity":53,"Duration":207773,"SoundDuration":207773,"Delta":354976195},{"NoteNumber":83,"Velocity":49,"Duration":206611,"SoundDuration":206611,"Delta":355183968},{"NoteNumber":56,"Velocity":39,"Duration":206611,"SoundDuration":206611,"Delta":355183968},{"NoteNumber":86,"Velocity":46,"Duration":208008,"SoundDuration":208008,"Delta":355390580},{"NoteNumber":53,"Velocity":42,"Duration":208008,"SoundDuration":208008,"Delta":355390580},{"NoteNumber":83,"Velocity":42,"Duration":208371,"SoundDuration":208371,"Delta":355598588},{"NoteNumber":50,"Velocity":35,"Duration":208371,"SoundDuration":208371,"Delta":355598588},{"NoteNumber":86,"Velocity":39,"Duration":857374,"SoundDuration":857374,"Delta":355806960},{"NoteNumber":47,"Velocity":42,"Duration":210197,"SoundDuration":210197,"Delta":355806960},{"NoteNumber":55,"Velocity":33,"Duration":213147,"SoundDuration":213147,"Delta":356017157},{"NoteNumber":53,"Velocity":37,"Duration":215445,"SoundDuration":215445,"Delta":356230304},{"NoteNumber":50,"Velocity":32,"Duration":218585,"SoundDuration":218585,"Delta":356445749},{"NoteNumber":47,"Velocity":37,"Duration":220601,"SoundDuration":220601,"Delta":356664334},{"NoteNumber":55,"Velocity":31,"Duration":229315,"SoundDuration":229315,"Delta":356884936},{"NoteNumber":76,"Velocity":39,"Duration":476481,"SoundDuration":476481,"Delta":357114251},{"NoteNumber":47,"Velocity":34,"Duration":238534,"SoundDuration":238534,"Delta":357114251},{"NoteNumber":55,"Velocity":29,"Duration":237947,"SoundDuration":237947,"Delta":357352785},{"NoteNumber":77,"Velocity":42,"Duration":418994,"SoundDuration":418994,"Delta":357590733},{"NoteNumber":55,"Velocity":34,"Duration":837988,"SoundDuration":837988,"Delta":357590733},{"NoteNumber":47,"Velocity":34,"Duration":837988,"SoundDuration":837988,"Delta":357590733},{"NoteNumber":80,"Velocity":34,"Duration":418994,"SoundDuration":418994,"Delta":358009727},{"NoteNumber":79,"Velocity":39,"Duration":418994,"SoundDuration":418994,"Delta":358428722},{"NoteNumber":74,"Velocity":37,"Duration":418994,"SoundDuration":418994,"Delta":358847716},{"NoteNumber":67,"Velocity":31,"Duration":418994,"SoundDuration":418994,"Delta":358847716},{"NoteNumber":76,"Velocity":39,"Duration":418994,"SoundDuration":418994,"Delta":359266711},{"NoteNumber":67,"Velocity":33,"Duration":418994,"SoundDuration":418994,"Delta":359266711},{"NoteNumber":77,"Velocity":34,"Duration":418994,"SoundDuration":418994,"Delta":359685705},{"NoteNumber":68,"Velocity":28,"Duration":418994,"SoundDuration":418994,"Delta":359685705},{"NoteNumber":76,"Velocity":39,"Duration":418994,"SoundDuration":418994,"Delta":360104700},{"NoteNumber":67,"Velocity":33,"Duration":418994,"SoundDuration":418994,"Delta":360104700},{"NoteNumber":71,"Velocity":37,"Duration":418994,"SoundDuration":418994,"Delta":360523694},{"NoteNumber":55,"Velocity":22,"Duration":418994,"SoundDuration":418994,"Delta":360523694},{"NoteNumber":62,"Velocity":26,"Duration":418994,"SoundDuration":418994,"Delta":360523694},{"NoteNumber":72,"Velocity":39,"Duration":837989,"SoundDuration":837989,"Delta":360942689},{"NoteNumber":64,"Velocity":39,"Duration":1675978,"SoundDuration":1675978,"Delta":360942689},{"NoteNumber":55,"Velocity":33,"Duration":418994,"SoundDuration":418994,"Delta":360942689},{"NoteNumber":58,"Velocity":28,"Duration":418994,"SoundDuration":418994,"Delta":361361683},{"NoteNumber":73,"Velocity":47,"Duration":837988,"SoundDuration":837988,"Delta":361780678},{"NoteNumber":57,"Velocity":33,"Duration":418994,"SoundDuration":418994,"Delta":361780678},{"NoteNumber":52,"Velocity":22,"Duration":418994,"SoundDuration":418994,"Delta":362199672},{"NoteNumber":55,"Velocity":26,"Duration":418994,"SoundDuration":418994,"Delta":362199672},{"NoteNumber":62,"Velocity":45,"Duration":829787,"SoundDuration":829787,"Delta":362618667},{"NoteNumber":74,"Velocity":45,"Duration":829787,"SoundDuration":829787,"Delta":362618667},{"NoteNumber":53,"Velocity":28,"Duration":424929,"SoundDuration":424929,"Delta":362618667},{"NoteNumber":57,"Velocity":33,"Duration":424929,"SoundDuration":424929,"Delta":362618667},{"NoteNumber":55,"Velocity":23,"Duration":404858,"SoundDuration":404858,"Delta":363043596},{"NoteNumber":58,"Velocity":28,"Duration":404858,"SoundDuration":404858,"Delta":363043596},{"NoteNumber":81,"Velocity":49,"Duration":1293417,"SoundDuration":1293417,"Delta":363448454},{"NoteNumber":53,"Velocity":28,"Duration":427959,"SoundDuration":427959,"Delta":363448454},{"NoteNumber":57,"Velocity":33,"Duration":427959,"SoundDuration":427959,"Delta":363448454},{"NoteNumber":49,"Velocity":22,"Duration":440528,"SoundDuration":440528,"Delta":363876414},{"NoteNumber":52,"Velocity":26,"Duration":440528,"SoundDuration":440528,"Delta":363876414},{"NoteNumber":50,"Velocity":28,"Duration":424929,"SoundDuration":424929,"Delta":364316943},{"NoteNumber":53,"Velocity":33,"Duration":424929,"SoundDuration":424929,"Delta":364316943},{"NoteNumber":82,"Velocity":39,"Duration":416088,"SoundDuration":416088,"Delta":364741872},{"NoteNumber":65,"Velocity":33,"Duration":832177,"SoundDuration":832177,"Delta":364741872},{"NoteNumber":62,"Velocity":28,"Duration":832177,"SoundDuration":832177,"Delta":364741872},{"NoteNumber":81,"Velocity":43,"Duration":416088,"SoundDuration":416088,"Delta":365157961},{"NoteNumber":77,"Velocity":39,"Duration":431034,"SoundDuration":431034,"Delta":365574050},{"NoteNumber":63,"Velocity":30,"Duration":850029,"SoundDuration":850029,"Delta":365574050},{"NoteNumber":60,"Velocity":25,"Duration":850029,"SoundDuration":850029,"Delta":365574050},{"NoteNumber":82,"Velocity":43,"Duration":418994,"SoundDuration":418994,"Delta":366005084},{"NoteNumber":77,"Velocity":39,"Duration":413223,"SoundDuration":413223,"Delta":366424079},{"NoteNumber":58,"Velocity":25,"Duration":826445,"SoundDuration":826445,"Delta":366424079},{"NoteNumber":61,"Velocity":30,"Duration":826445,"SoundDuration":826445,"Delta":366424079},{"NoteNumber":77,"Velocity":39,"Duration":413222,"SoundDuration":413222,"Delta":366837302},{"NoteNumber":73,"Velocity":36,"Duration":437318,"SoundDuration":437318,"Delta":367250525},{"NoteNumber":59,"Velocity":30,"Duration":868352,"SoundDuration":868352,"Delta":367250525},{"NoteNumber":56,"Velocity":25,"Duration":868352,"SoundDuration":868352,"Delta":367250525},{"NoteNumber":78,"Velocity":37,"Duration":431034,"SoundDuration":431034,"Delta":367687843},{"NoteNumber":73,"Velocity":39,"Duration":418994,"SoundDuration":418994,"Delta":368118877},{"NoteNumber":54,"Velocity":25,"Duration":837988,"SoundDuration":837988,"Delta":368118877},{"NoteNumber":58,"Velocity":30,"Duration":837988,"SoundDuration":837988,"Delta":368118877},{"NoteNumber":73,"Velocity":43,"Duration":418994,"SoundDuration":418994,"Delta":368537872},{"NoteNumber":70,"Velocity":39,"Duration":434153,"SoundDuration":434153,"Delta":368956866},{"NoteNumber":54,"Velocity":25,"Duration":856094,"SoundDuration":856094,"Delta":368956866},{"NoteNumber":58,"Velocity":30,"Duration":856094,"SoundDuration":856094,"Delta":368956866},{"NoteNumber":82,"Velocity":46,"Duration":421941,"SoundDuration":421941,"Delta":369391020},{"NoteNumber":78,"Velocity":38,"Duration":410396,"SoundDuration":410396,"Delta":369812961},{"NoteNumber":54,"Velocity":25,"Duration":820792,"SoundDuration":820792,"Delta":369812961},{"NoteNumber":58,"Velocity":30,"Duration":820792,"SoundDuration":820792,"Delta":369812961},{"NoteNumber":78,"Velocity":42,"Duration":410396,"SoundDuration":410396,"Delta":370223357},{"NoteNumber":73,"Velocity":39,"Duration":431034,"SoundDuration":431034,"Delta":370633754},{"NoteNumber":54,"Velocity":39,"Duration":855963,"SoundDuration":855963,"Delta":370633754},{"NoteNumber":58,"Velocity":39,"Duration":855963,"SoundDuration":855963,"Delta":370633754},{"NoteNumber":85,"Velocity":54,"Duration":424929,"SoundDuration":424929,"Delta":371064788},{"NoteNumber":81,"Velocity":49,"Duration":410396,"SoundDuration":410396,"Delta":371489717},{"NoteNumber":60,"Velocity":44,"Duration":820792,"SoundDuration":820792,"Delta":371489717},{"NoteNumber":54,"Velocity":37,"Duration":820792,"SoundDuration":820792,"Delta":371489717},{"NoteNumber":57,"Velocity":37,"Duration":820792,"SoundDuration":820792,"Delta":371489717},{"NoteNumber":81,"Velocity":64,"Duration":410396,"SoundDuration":410396,"Delta":371900114},{"NoteNumber":78,"Velocity":64,"Duration":437318,"SoundDuration":437318,"Delta":372310510},{"NoteNumber":52,"Velocity":48,"Duration":850541,"SoundDuration":850541,"Delta":372310510},{"NoteNumber":60,"Velocity":58,"Duration":850541,"SoundDuration":850541,"Delta":372310510},{"NoteNumber":54,"Velocity":48,"Duration":850541,"SoundDuration":850541,"Delta":372310510},{"NoteNumber":57,"Velocity":48,"Duration":850541,"SoundDuration":850541,"Delta":372310510},{"NoteNumber":84,"Velocity":79,"Duration":413223,"SoundDuration":413223,"Delta":372747828},{"NoteNumber":78,"Velocity":73,"Duration":427959,"SoundDuration":427959,"Delta":373161051},{"NoteNumber":51,"Velocity":61,"Duration":427959,"SoundDuration":427959,"Delta":373161051},{"NoteNumber":59,"Velocity":71,"Duration":427959,"SoundDuration":427959,"Delta":373161051},{"NoteNumber":54,"Velocity":61,"Duration":427959,"SoundDuration":427959,"Delta":373161051},{"NoteNumber":57,"Velocity":71,"Duration":427959,"SoundDuration":427959,"Delta":373161051},{"NoteNumber":83,"Velocity":97,"Duration":414695,"SoundDuration":414695,"Delta":373589011},{"NoteNumber":51,"Velocity":63,"Duration":209497,"SoundDuration":209497,"Delta":373589011},{"NoteNumber":59,"Velocity":57,"Duration":205198,"SoundDuration":205198,"Delta":373798509},{"NoteNumber":78,"Velocity":87,"Duration":209497,"SoundDuration":209497,"Delta":374003707},{"NoteNumber":51,"Velocity":57,"Duration":209497,"SoundDuration":209497,"Delta":374003707},{"NoteNumber":52,"Velocity":58,"Duration":209497,"SoundDuration":209497,"Delta":374213204},{"NoteNumber":54,"Velocity":45,"Duration":212464,"SoundDuration":212464,"Delta":374422701},{"NoteNumber":59,"Velocity":41,"Duration":213979,"SoundDuration":213979,"Delta":374635166},{"NoteNumber":54,"Velocity":41,"Duration":213979,"SoundDuration":213979,"Delta":374849146},{"NoteNumber":56,"Velocity":44,"Duration":213979,"SoundDuration":213979,"Delta":375063126},{"NoteNumber":75,"Velocity":72,"Duration":213980,"SoundDuration":213980,"Delta":375277106},{"NoteNumber":57,"Velocity":49,"Duration":213980,"SoundDuration":213980,"Delta":375277106},{"NoteNumber":83,"Velocity":59,"Duration":213979,"SoundDuration":213979,"Delta":375491086},{"NoteNumber":59,"Velocity":40,"Duration":213979,"SoundDuration":213979,"Delta":375491086},{"NoteNumber":75,"Velocity":61,"Duration":199733,"SoundDuration":199733,"Delta":375705066},{"NoteNumber":57,"Velocity":40,"Duration":199733,"SoundDuration":199733,"Delta":375705066},{"NoteNumber":76,"Velocity":64,"Duration":199733,"SoundDuration":199733,"Delta":375904800},{"NoteNumber":56,"Velocity":44,"Duration":199733,"SoundDuration":199733,"Delta":375904800},{"NoteNumber":78,"Velocity":74,"Duration":206611,"SoundDuration":206611,"Delta":376104533},{"NoteNumber":54,"Velocity":49,"Duration":206611,"SoundDuration":206611,"Delta":376104533},{"NoteNumber":83,"Velocity":59,"Duration":206611,"SoundDuration":206611,"Delta":376311145},{"NoteNumber":59,"Velocity":37,"Duration":206611,"SoundDuration":206611,"Delta":376311145},{"NoteNumber":78,"Velocity":61,"Duration":198412,"SoundDuration":198412,"Delta":376517756},{"NoteNumber":54,"Velocity":39,"Duration":198412,"SoundDuration":198412,"Delta":376517756},{"NoteNumber":80,"Velocity":64,"Duration":198412,"SoundDuration":198412,"Delta":376716169},{"NoteNumber":52,"Velocity":42,"Duration":198412,"SoundDuration":198412,"Delta":376716169},{"NoteNumber":81,"Velocity":74,"Duration":205198,"SoundDuration":205198,"Delta":376914582},{"NoteNumber":51,"Velocity":49,"Duration":205198,"SoundDuration":205198,"Delta":376914582},{"NoteNumber":83,"Velocity":59,"Duration":205198,"SoundDuration":205198,"Delta":377119780},{"NoteNumber":59,"Velocity":40,"Duration":205198,"SoundDuration":205198,"Delta":377119780},{"NoteNumber":81,"Velocity":62,"Duration":201072,"SoundDuration":201072,"Delta":377324978},{"NoteNumber":51,"Velocity":39,"Duration":201072,"SoundDuration":201072,"Delta":377324978},{"NoteNumber":80,"Velocity":69,"Duration":201072,"SoundDuration":201072,"Delta":377526051},{"NoteNumber":52,"Velocity":43,"Duration":201072,"SoundDuration":201072,"Delta":377526051},{"NoteNumber":78,"Velocity":74,"Duration":206611,"SoundDuration":206611,"Delta":377727123},{"NoteNumber":54,"Velocity":49,"Duration":206611,"SoundDuration":206611,"Delta":377727123},{"NoteNumber":83,"Velocity":59,"Duration":206611,"SoundDuration":206611,"Delta":377933735},{"NoteNumber":59,"Velocity":37,"Duration":206611,"SoundDuration":206611,"Delta":377933735},{"NoteNumber":78,"Velocity":61,"Duration":199733,"SoundDuration":199733,"Delta":378140346},{"NoteNumber":54,"Velocity":39,"Duration":199733,"SoundDuration":199733,"Delta":378140346},{"NoteNumber":76,"Velocity":64,"Duration":199733,"SoundDuration":199733,"Delta":378340080},{"NoteNumber":56,"Velocity":42,"Duration":199733,"SoundDuration":199733,"Delta":378340080},{"NoteNumber":75,"Velocity":66,"Duration":206611,"SoundDuration":206611,"Delta":378539814},{"NoteNumber":57,"Velocity":44,"Duration":206611,"SoundDuration":206611,"Delta":378539814},{"NoteNumber":83,"Velocity":52,"Duration":206611,"SoundDuration":206611,"Delta":378746425},{"NoteNumber":59,"Velocity":35,"Duration":206611,"SoundDuration":206611,"Delta":378746425},{"NoteNumber":75,"Velocity":53,"Duration":201072,"SoundDuration":201072,"Delta":378953037},{"NoteNumber":57,"Velocity":33,"Duration":201072,"SoundDuration":201072,"Delta":378953037},{"NoteNumber":76,"Velocity":58,"Duration":201072,"SoundDuration":201072,"Delta":379154109},{"NoteNumber":56,"Velocity":36,"Duration":201072,"SoundDuration":201072,"Delta":379154109},{"NoteNumber":78,"Velocity":61,"Duration":210970,"SoundDuration":210970,"Delta":379355182},{"NoteNumber":54,"Velocity":40,"Duration":210970,"SoundDuration":210970,"Delta":379355182},{"NoteNumber":83,"Velocity":47,"Duration":210970,"SoundDuration":210970,"Delta":379566152},{"NoteNumber":59,"Velocity":29,"Duration":210970,"SoundDuration":210970,"Delta":379566152},{"NoteNumber":78,"Velocity":48,"Duration":199733,"SoundDuration":199733,"Delta":379777123},{"NoteNumber":54,"Velocity":30,"Duration":199733,"SoundDuration":199733,"Delta":379777123},{"NoteNumber":80,"Velocity":49,"Duration":199733,"SoundDuration":199733,"Delta":379976857},{"NoteNumber":52,"Velocity":32,"Duration":199733,"SoundDuration":199733,"Delta":379976857},{"NoteNumber":81,"Velocity":55,"Duration":210970,"SoundDuration":210970,"Delta":380176590},{"NoteNumber":51,"Velocity":36,"Duration":210970,"SoundDuration":210970,"Delta":380176590},{"NoteNumber":83,"Velocity":43,"Duration":210970,"SoundDuration":210970,"Delta":380387561},{"NoteNumber":59,"Velocity":29,"Duration":210970,"SoundDuration":210970,"Delta":380387561},{"NoteNumber":81,"Velocity":44,"Duration":199733,"SoundDuration":199733,"Delta":380598531},{"NoteNumber":51,"Velocity":28,"Duration":199733,"SoundDuration":199733,"Delta":380598531},{"NoteNumber":80,"Velocity":48,"Duration":199733,"SoundDuration":199733,"Delta":380798265},{"NoteNumber":52,"Velocity":30,"Duration":199733,"SoundDuration":199733,"Delta":380798265},{"NoteNumber":78,"Velocity":50,"Duration":208044,"SoundDuration":208044,"Delta":380997999},{"NoteNumber":54,"Velocity":33,"Duration":208044,"SoundDuration":208044,"Delta":380997999},{"NoteNumber":83,"Velocity":38,"Duration":208044,"SoundDuration":208044,"Delta":381206043},{"NoteNumber":59,"Velocity":24,"Duration":208044,"SoundDuration":208044,"Delta":381206043},{"NoteNumber":78,"Velocity":39,"Duration":199733,"SoundDuration":199733,"Delta":381414088},{"NoteNumber":54,"Velocity":24,"Duration":199733,"SoundDuration":199733,"Delta":381414088},{"NoteNumber":76,"Velocity":39,"Duration":199733,"SoundDuration":199733,"Delta":381613822},{"NoteNumber":56,"Velocity":26,"Duration":199733,"SoundDuration":199733,"Delta":381613822},{"NoteNumber":75,"Velocity":44,"Duration":210970,"SoundDuration":210970,"Delta":381813555},{"NoteNumber":57,"Velocity":29,"Duration":210970,"SoundDuration":210970,"Delta":381813555},{"NoteNumber":83,"Velocity":35,"Duration":210970,"SoundDuration":210970,"Delta":382024526},{"NoteNumber":59,"Velocity":24,"Duration":210970,"SoundDuration":210970,"Delta":382024526},{"NoteNumber":75,"Velocity":37,"Duration":205198,"SoundDuration":205198,"Delta":382235496},{"NoteNumber":57,"Velocity":23,"Duration":205198,"SoundDuration":205198,"Delta":382235496},{"NoteNumber":76,"Velocity":41,"Duration":202429,"SoundDuration":202429,"Delta":382440695},{"NoteNumber":56,"Velocity":25,"Duration":202429,"SoundDuration":202429,"Delta":382440695},{"NoteNumber":78,"Velocity":44,"Duration":210970,"SoundDuration":210970,"Delta":382643124},{"NoteNumber":54,"Velocity":29,"Duration":210970,"SoundDuration":210970,"Delta":382643124},{"NoteNumber":83,"Velocity":35,"Duration":210970,"SoundDuration":210970,"Delta":382854094},{"NoteNumber":59,"Velocity":22,"Duration":210970,"SoundDuration":210970,"Delta":382854094},{"NoteNumber":78,"Velocity":36,"Duration":205198,"SoundDuration":205198,"Delta":383065065},{"NoteNumber":54,"Velocity":23,"Duration":205198,"SoundDuration":205198,"Delta":383065065},{"NoteNumber":80,"Velocity":38,"Duration":202429,"SoundDuration":202429,"Delta":383270263},{"NoteNumber":52,"Velocity":25,"Duration":202429,"SoundDuration":202429,"Delta":383270263},{"NoteNumber":81,"Velocity":44,"Duration":210970,"SoundDuration":210970,"Delta":383472692},{"NoteNumber":51,"Velocity":29,"Duration":210970,"SoundDuration":210970,"Delta":383472692},{"NoteNumber":83,"Velocity":35,"Duration":210970,"SoundDuration":210970,"Delta":383683663},{"NoteNumber":59,"Velocity":24,"Duration":210970,"SoundDuration":210970,"Delta":383683663},{"NoteNumber":81,"Velocity":37,"Duration":202429,"SoundDuration":202429,"Delta":383894633},{"NoteNumber":51,"Velocity":23,"Duration":202429,"SoundDuration":202429,"Delta":383894633},{"NoteNumber":80,"Velocity":41,"Duration":202429,"SoundDuration":202429,"Delta":384097063},{"NoteNumber":52,"Velocity":25,"Duration":202429,"SoundDuration":202429,"Delta":384097063},{"NoteNumber":78,"Velocity":44,"Duration":210970,"SoundDuration":210970,"Delta":384299492},{"NoteNumber":54,"Velocity":29,"Duration":210970,"SoundDuration":210970,"Delta":384299492},{"NoteNumber":83,"Velocity":35,"Duration":210970,"SoundDuration":210970,"Delta":384510462},{"NoteNumber":59,"Velocity":22,"Duration":210970,"SoundDuration":210970,"Delta":384510462},{"NoteNumber":78,"Velocity":36,"Duration":205198,"SoundDuration":205198,"Delta":384721433},{"NoteNumber":54,"Velocity":23,"Duration":205198,"SoundDuration":205198,"Delta":384721433},{"NoteNumber":76,"Velocity":38,"Duration":203804,"SoundDuration":203804,"Delta":384926631},{"NoteNumber":56,"Velocity":25,"Duration":203804,"SoundDuration":203804,"Delta":384926631},{"NoteNumber":75,"Velocity":44,"Duration":210970,"SoundDuration":210970,"Delta":385130435},{"NoteNumber":57,"Velocity":29,"Duration":210970,"SoundDuration":210970,"Delta":385130435},{"NoteNumber":76,"Velocity":35,"Duration":210970,"SoundDuration":210970,"Delta":385341406},{"NoteNumber":56,"Velocity":24,"Duration":210970,"SoundDuration":210970,"Delta":385341406},{"NoteNumber":75,"Velocity":37,"Duration":205198,"SoundDuration":205198,"Delta":385552376},{"NoteNumber":57,"Velocity":23,"Duration":205198,"SoundDuration":205198,"Delta":385552376},{"NoteNumber":73,"Velocity":41,"Duration":205198,"SoundDuration":205198,"Delta":385757575},{"NoteNumber":58,"Velocity":25,"Duration":205198,"SoundDuration":205198,"Delta":385757575},{"NoteNumber":71,"Velocity":44,"Duration":212464,"SoundDuration":212464,"Delta":385962773},{"NoteNumber":59,"Velocity":29,"Duration":212464,"SoundDuration":212464,"Delta":385962773},{"NoteNumber":73,"Velocity":35,"Duration":205198,"SoundDuration":205198,"Delta":386175237},{"NoteNumber":58,"Velocity":24,"Duration":205198,"SoundDuration":205198,"Delta":386175237},{"NoteNumber":63,"Velocity":35,"Duration":205198,"SoundDuration":205198,"Delta":386380436},{"NoteNumber":57,"Velocity":24,"Duration":205198,"SoundDuration":205198,"Delta":386380436},{"NoteNumber":64,"Velocity":35,"Duration":205198,"SoundDuration":205198,"Delta":386585634},{"NoteNumber":56,"Velocity":24,"Duration":205198,"SoundDuration":205198,"Delta":386585634},{"NoteNumber":66,"Velocity":35,"Duration":211535,"SoundDuration":211535,"Delta":386790832},{"NoteNumber":54,"Velocity":27,"Duration":211535,"SoundDuration":211535,"Delta":386790832},{"NoteNumber":69,"Velocity":32,"Duration":214672,"SoundDuration":214672,"Delta":387002368},{"NoteNumber":51,"Velocity":24,"Duration":214672,"SoundDuration":214672,"Delta":387002368},{"NoteNumber":47,"Velocity":24,"Duration":214672,"SoundDuration":214672,"Delta":387002368},{"NoteNumber":68,"Velocity":32,"Duration":217789,"SoundDuration":217789,"Delta":387217040},{"NoteNumber":52,"Velocity":24,"Duration":217789,"SoundDuration":217789,"Delta":387217040},{"NoteNumber":49,"Velocity":24,"Duration":217789,"SoundDuration":217789,"Delta":387217040},{"NoteNumber":66,"Velocity":32,"Duration":235848,"SoundDuration":235848,"Delta":387434830},{"NoteNumber":54,"Velocity":24,"Duration":235848,"SoundDuration":235848,"Delta":387434830},{"NoteNumber":51,"Velocity":24,"Duration":235848,"SoundDuration":235848,"Delta":387434830},{"NoteNumber":68,"Velocity":34,"Duration":212464,"SoundDuration":212464,"Delta":387670679},{"NoteNumber":56,"Velocity":40,"Duration":849857,"SoundDuration":849857,"Delta":387670679},{"NoteNumber":52,"Velocity":24,"Duration":424929,"SoundDuration":424929,"Delta":387670679},{"NoteNumber":71,"Velocity":26,"Duration":212464,"SoundDuration":212464,"Delta":387883143},{"NoteNumber":59,"Velocity":31,"Duration":212464,"SoundDuration":212464,"Delta":388095608},{"NoteNumber":71,"Velocity":26,"Duration":212464,"SoundDuration":212464,"Delta":388308072},{"NoteNumber":68,"Velocity":30,"Duration":209497,"SoundDuration":209497,"Delta":388520537},{"NoteNumber":59,"Velocity":36,"Duration":418994,"SoundDuration":418994,"Delta":388520537},{"NoteNumber":71,"Velocity":27,"Duration":209497,"SoundDuration":209497,"Delta":388730034},{"NoteNumber":66,"Velocity":28,"Duration":213979,"SoundDuration":213979,"Delta":388939531},{"NoteNumber":57,"Velocity":34,"Duration":434244,"SoundDuration":434244,"Delta":388939531},{"NoteNumber":71,"Velocity":27,"Duration":220264,"SoundDuration":220264,"Delta":389153511},{"NoteNumber":64,"Velocity":34,"Duration":217076,"SoundDuration":217076,"Delta":389373775},{"NoteNumber":56,"Velocity":40,"Duration":434153,"SoundDuration":434153,"Delta":389373775},{"NoteNumber":47,"Velocity":24,"Duration":434153,"SoundDuration":434153,"Delta":389373775},{"NoteNumber":71,"Velocity":26,"Duration":217076,"SoundDuration":217076,"Delta":389590852},{"NoteNumber":63,"Velocity":27,"Duration":212464,"SoundDuration":212464,"Delta":389807929},{"NoteNumber":54,"Velocity":32,"Duration":371812,"SoundDuration":371812,"Delta":389807929},{"NoteNumber":71,"Velocity":25,"Duration":159348,"SoundDuration":159348,"Delta":390020393},{"NoteNumber":63,"Velocity":27,"Duration":212464,"SoundDuration":212464,"Delta":390232858},{"NoteNumber":54,"Velocity":32,"Duration":424928,"SoundDuration":424928,"Delta":390232858},{"NoteNumber":71,"Velocity":26,"Duration":212464,"SoundDuration":212464,"Delta":390445322},{"NoteNumber":65,"Velocity":28,"Duration":208044,"SoundDuration":208044,"Delta":390657787},{"NoteNumber":56,"Velocity":34,"Duration":416088,"SoundDuration":416088,"Delta":390657787},{"NoteNumber":71,"Velocity":28,"Duration":208044,"SoundDuration":208044,"Delta":390865831},{"NoteNumber":66,"Velocity":30,"Duration":212464,"SoundDuration":212464,"Delta":391073876},{"NoteNumber":57,"Velocity":36,"Duration":424929,"SoundDuration":424929,"Delta":391073876},{"NoteNumber":47,"Velocity":24,"Duration":424929,"SoundDuration":424929,"Delta":391073876},{"NoteNumber":71,"Velocity":28,"Duration":212464,"SoundDuration":212464,"Delta":391286340},{"NoteNumber":69,"Velocity":36,"Duration":212464,"SoundDuration":212464,"Delta":391498805},{"NoteNumber":61,"Velocity":43,"Duration":424928,"SoundDuration":424928,"Delta":391498805},{"NoteNumber":71,"Velocity":31,"Duration":212464,"SoundDuration":212464,"Delta":391711269},{"NoteNumber":68,"Velocity":37,"Duration":212464,"SoundDuration":212464,"Delta":391923734},{"NoteNumber":59,"Velocity":37,"Duration":424929,"SoundDuration":424929,"Delta":391923734},{"NoteNumber":47,"Velocity":22,"Duration":424929,"SoundDuration":424929,"Delta":391923734},{"NoteNumber":71,"Velocity":26,"Duration":194759,"SoundDuration":194759,"Delta":392136198},{"NoteNumber":71,"Velocity":25,"Duration":217076,"SoundDuration":217076,"Delta":392348663},{"NoteNumber":54,"Velocity":30,"Duration":468754,"SoundDuration":468754,"Delta":392348663},{"NoteNumber":45,"Velocity":20,"Duration":468754,"SoundDuration":468754,"Delta":392348663},{"NoteNumber":75,"Velocity":27,"Duration":251677,"SoundDuration":251677,"Delta":392565740},{"NoteNumber":71,"Velocity":36,"Duration":209497,"SoundDuration":209497,"Delta":392817417},{"NoteNumber":44,"Velocity":22,"Duration":418994,"SoundDuration":418994,"Delta":392817417},{"NoteNumber":56,"Velocity":22,"Duration":418994,"SoundDuration":418994,"Delta":392817417},{"NoteNumber":76,"Velocity":30,"Duration":209497,"SoundDuration":209497,"Delta":393026915},{"NoteNumber":71,"Velocity":38,"Duration":199733,"SoundDuration":199733,"Delta":393236412},{"NoteNumber":78,"Velocity":30,"Duration":199733,"SoundDuration":199733,"Delta":393436146},{"NoteNumber":71,"Velocity":45,"Duration":197109,"SoundDuration":197109,"Delta":393635879},{"NoteNumber":79,"Velocity":33,"Duration":197109,"SoundDuration":197109,"Delta":393832988},{"NoteNumber":71,"Velocity":49,"Duration":226928,"SoundDuration":226928,"Delta":394030097},{"NoteNumber":80,"Velocity":40,"Duration":243506,"SoundDuration":243506,"Delta":394257026},{"NoteNumber":71,"Velocity":34,"Duration":217076,"SoundDuration":217076,"Delta":394500533},{"NoteNumber":80,"Velocity":57,"Duration":868307,"SoundDuration":868307,"Delta":394500533},{"NoteNumber":52,"Velocity":30,"Duration":217076,"SoundDuration":217076,"Delta":394500533},{"NoteNumber":76,"Velocity":26,"Duration":217076,"SoundDuration":217076,"Delta":394717610},{"NoteNumber":64,"Velocity":23,"Duration":217076,"SoundDuration":217076,"Delta":394717610},{"NoteNumber":71,"Velocity":31,"Duration":217076,"SoundDuration":217076,"Delta":394934686},{"NoteNumber":52,"Velocity":27,"Duration":217076,"SoundDuration":217076,"Delta":394934686},{"NoteNumber":76,"Velocity":26,"Duration":217076,"SoundDuration":217076,"Delta":395151763},{"NoteNumber":64,"Velocity":23,"Duration":217076,"SoundDuration":217076,"Delta":395151763},{"NoteNumber":76,"Velocity":30,"Duration":217076,"SoundDuration":217076,"Delta":395368840},{"NoteNumber":83,"Velocity":52,"Duration":435735,"SoundDuration":435735,"Delta":395368840},{"NoteNumber":49,"Velocity":27,"Duration":217076,"SoundDuration":217076,"Delta":395368840},{"NoteNumber":69,"Velocity":27,"Duration":218659,"SoundDuration":218659,"Delta":395585917},{"NoteNumber":61,"Velocity":24,"Duration":218659,"SoundDuration":218659,"Delta":395585917},{"NoteNumber":73,"Velocity":28,"Duration":220264,"SoundDuration":220264,"Delta":395804576},{"NoteNumber":81,"Velocity":49,"Duration":440528,"SoundDuration":440528,"Delta":395804576},{"NoteNumber":45,"Velocity":25,"Duration":220264,"SoundDuration":220264,"Delta":395804576},{"NoteNumber":76,"Velocity":27,"Duration":220264,"SoundDuration":220264,"Delta":396024840},{"NoteNumber":57,"Velocity":24,"Duration":220264,"SoundDuration":220264,"Delta":396024840},{"NoteNumber":76,"Velocity":34,"Duration":217076,"SoundDuration":217076,"Delta":396245104},{"NoteNumber":80,"Velocity":57,"Duration":434153,"SoundDuration":434153,"Delta":396245104},{"NoteNumber":47,"Velocity":30,"Duration":217076,"SoundDuration":217076,"Delta":396245104},{"NoteNumber":71,"Velocity":26,"Duration":217076,"SoundDuration":217076,"Delta":396462181},{"NoteNumber":59,"Velocity":23,"Duration":217076,"SoundDuration":217076,"Delta":396462181},{"NoteNumber":75,"Velocity":27,"Duration":212464,"SoundDuration":212464,"Delta":396679258},{"NoteNumber":78,"Velocity":47,"Duration":371812,"SoundDuration":371812,"Delta":396679258},{"NoteNumber":47,"Velocity":24,"Duration":212464,"SoundDuration":212464,"Delta":396679258},{"NoteNumber":71,"Velocity":25,"Duration":212464,"SoundDuration":212464,"Delta":396891722},{"NoteNumber":59,"Velocity":22,"Duration":212464,"SoundDuration":212464,"Delta":396891722},{"NoteNumber":75,"Velocity":27,"Duration":212464,"SoundDuration":212464,"Delta":397104187},{"NoteNumber":78,"Velocity":47,"Duration":424928,"SoundDuration":424928,"Delta":397104187},{"NoteNumber":57,"Velocity":24,"Duration":212464,"SoundDuration":212464,"Delta":397104187},{"NoteNumber":71,"Velocity":26,"Duration":212464,"SoundDuration":212464,"Delta":397316651},{"NoteNumber":69,"Velocity":23,"Duration":212464,"SoundDuration":212464,"Delta":397316651},{"NoteNumber":76,"Velocity":28,"Duration":208044,"SoundDuration":208044,"Delta":397529116},{"NoteNumber":80,"Velocity":49,"Duration":416088,"SoundDuration":416088,"Delta":397529116},{"NoteNumber":56,"Velocity":25,"Duration":208044,"SoundDuration":208044,"Delta":397529116},{"NoteNumber":71,"Velocity":28,"Duration":208044,"SoundDuration":208044,"Delta":397737160},{"NoteNumber":68,"Velocity":25,"Duration":208044,"SoundDuration":208044,"Delta":397737160},{"NoteNumber":78,"Velocity":33,"Duration":212464,"SoundDuration":212464,"Delta":397945205},{"NoteNumber":81,"Velocity":57,"Duration":424929,"SoundDuration":424929,"Delta":397945205},{"NoteNumber":54,"Velocity":29,"Duration":212464,"SoundDuration":212464,"Delta":397945205},{"NoteNumber":71,"Velocity":42,"Duration":212464,"SoundDuration":212464,"Delta":398157669},{"NoteNumber":66,"Velocity":28,"Duration":212464,"SoundDuration":212464,"Delta":398157669},{"NoteNumber":85,"Velocity":56,"Duration":424928,"SoundDuration":424928,"Delta":398370134},{"NoteNumber":80,"Velocity":56,"Duration":212464,"SoundDuration":212464,"Delta":398370134},{"NoteNumber":52,"Velocity":37,"Duration":212464,"SoundDuration":212464,"Delta":398370134},{"NoteNumber":71,"Velocity":49,"Duration":212464,"SoundDuration":212464,"Delta":398582598},{"NoteNumber":64,"Velocity":31,"Duration":212464,"SoundDuration":212464,"Delta":398582598},{"NoteNumber":78,"Velocity":66,"Duration":234009,"SoundDuration":234009,"Delta":398795063},{"NoteNumber":83,"Velocity":66,"Duration":468018,"SoundDuration":468018,"Delta":398795063},{"NoteNumber":51,"Velocity":48,"Duration":234009,"SoundDuration":234009,"Delta":398795063},{"NoteNumber":71,"Velocity":55,"Duration":234009,"SoundDuration":234009,"Delta":399029072},{"NoteNumber":63,"Velocity":40,"Duration":234009,"SoundDuration":234009,"Delta":399029072},{"NoteNumber":81,"Velocity":25,"Duration":218659,"SoundDuration":218659,"Delta":399263081},{"NoteNumber":78,"Velocity":25,"Duration":218659,"SoundDuration":218659,"Delta":399263081},{"NoteNumber":87,"Velocity":38,"Duration":218659,"SoundDuration":218659,"Delta":399263081},{"NoteNumber":47,"Velocity":22,"Duration":218659,"SoundDuration":218659,"Delta":399263081},{"NoteNumber":59,"Velocity":20,"Duration":235848,"SoundDuration":235848,"Delta":399481740},{"NoteNumber":88,"Velocity":42,"Duration":159348,"SoundDuration":159348,"Delta":399717589},{"NoteNumber":80,"Velocity":35,"Duration":159348,"SoundDuration":159348,"Delta":399717589},{"NoteNumber":76,"Velocity":42,"Duration":159348,"SoundDuration":159348,"Delta":399717589},{"NoteNumber":52,"Velocity":28,"Duration":849857,"SoundDuration":849857,"Delta":399717589},{"NoteNumber":64,"Velocity":28,"Duration":849857,"SoundDuration":849857,"Delta":399717589},{"NoteNumber":76,"Velocity":36,"Duration":212464,"SoundDuration":212464,"Delta":399930054},{"NoteNumber":71,"Velocity":40,"Duration":212464,"SoundDuration":212464,"Delta":400142518},{"NoteNumber":68,"Velocity":36,"Duration":212464,"SoundDuration":212464,"Delta":400354983},{"NoteNumber":71,"Velocity":41,"Duration":212464,"SoundDuration":212464,"Delta":400567447},{"NoteNumber":68,"Velocity":36,"Duration":212464,"SoundDuration":212464,"Delta":400779912},{"NoteNumber":66,"Velocity":40,"Duration":208044,"SoundDuration":208044,"Delta":400992376},{"NoteNumber":51,"Velocity":42,"Duration":434973,"SoundDuration":434973,"Delta":400992376},{"NoteNumber":59,"Velocity":42,"Duration":434973,"SoundDuration":434973,"Delta":400992376},{"NoteNumber":75,"Velocity":36,"Duration":226928,"SoundDuration":226928,"Delta":401200421},{"NoteNumber":66,"Velocity":47,"Duration":209497,"SoundDuration":209497,"Delta":401427350},{"NoteNumber":49,"Velocity":42,"Duration":837988,"SoundDuration":837988,"Delta":401427350},{"NoteNumber":58,"Velocity":42,"Duration":837988,"SoundDuration":837988,"Delta":401427350},{"NoteNumber":76,"Velocity":36,"Duration":209497,"SoundDuration":209497,"Delta":401636847},{"NoteNumber":73,"Velocity":38,"Duration":209497,"SoundDuration":209497,"Delta":401846344},{"NoteNumber":66,"Velocity":34,"Duration":157122,"SoundDuration":157122,"Delta":402055841},{"NoteNumber":66,"Velocity":38,"Duration":209497,"SoundDuration":209497,"Delta":402265339},{"NoteNumber":58,"Velocity":47,"Duration":853717,"SoundDuration":853717,"Delta":402265339},{"NoteNumber":64,"Velocity":47,"Duration":853717,"SoundDuration":853717,"Delta":402265339},{"NoteNumber":78,"Velocity":31,"Duration":209497,"SoundDuration":209497,"Delta":402474836},{"NoteNumber":73,"Velocity":36,"Duration":209497,"SoundDuration":209497,"Delta":402684333},{"NoteNumber":66,"Velocity":34,"Duration":168918,"SoundDuration":168918,"Delta":402893830},{"NoteNumber":66,"Velocity":38,"Duration":206692,"SoundDuration":206692,"Delta":403119056},{"NoteNumber":59,"Velocity":42,"Duration":821625,"SoundDuration":821625,"Delta":403119056},{"NoteNumber":63,"Velocity":42,"Duration":821625,"SoundDuration":821625,"Delta":403119056},{"NoteNumber":75,"Velocity":30,"Duration":205198,"SoundDuration":205198,"Delta":403325748},{"NoteNumber":71,"Velocity":37,"Duration":205198,"SoundDuration":205198,"Delta":403530946},{"NoteNumber":66,"Velocity":34,"Duration":204536,"SoundDuration":204536,"Delta":403736145},{"NoteNumber":63,"Velocity":46,"Duration":205834,"SoundDuration":205834,"Delta":403940681},{"NoteNumber":47,"Velocity":38,"Duration":414533,"SoundDuration":414533,"Delta":403940681},{"NoteNumber":59,"Velocity":38,"Duration":414533,"SoundDuration":414533,"Delta":403940681},{"NoteNumber":71,"Velocity":37,"Duration":208698,"SoundDuration":208698,"Delta":404146515},{"NoteNumber":64,"Velocity":46,"Duration":211643,"SoundDuration":211643,"Delta":404355214},{"NoteNumber":49,"Velocity":38,"Duration":435190,"SoundDuration":435190,"Delta":404355214},{"NoteNumber":57,"Velocity":38,"Duration":435190,"SoundDuration":435190,"Delta":404355214},{"NoteNumber":69,"Velocity":40,"Duration":223546,"SoundDuration":223546,"Delta":404566857},{"NoteNumber":64,"Velocity":38,"Duration":210970,"SoundDuration":210970,"Delta":404790404},{"NoteNumber":50,"Velocity":42,"Duration":843882,"SoundDuration":843882,"Delta":404790404},{"NoteNumber":56,"Velocity":42,"Duration":843882,"SoundDuration":843882,"Delta":404790404},{"NoteNumber":71,"Velocity":36,"Duration":210970,"SoundDuration":210970,"Delta":405001375},{"NoteNumber":68,"Velocity":42,"Duration":210970,"SoundDuration":210970,"Delta":405212345},{"NoteNumber":64,"Velocity":36,"Duration":158227,"SoundDuration":158227,"Delta":405423316},{"NoteNumber":64,"Velocity":48,"Duration":210970,"SoundDuration":210970,"Delta":405634286},{"NoteNumber":56,"Velocity":45,"Duration":866920,"SoundDuration":866920,"Delta":405634286},{"NoteNumber":62,"Velocity":45,"Duration":866920,"SoundDuration":866920,"Delta":405634286},{"NoteNumber":76,"Velocity":39,"Duration":210970,"SoundDuration":210970,"Delta":405845257},{"NoteNumber":71,"Velocity":45,"Duration":210970,"SoundDuration":210970,"Delta":406056227},{"NoteNumber":64,"Velocity":36,"Duration":175506,"SoundDuration":175506,"Delta":406267198},{"NoteNumber":64,"Velocity":44,"Duration":208192,"SoundDuration":208192,"Delta":406501207},{"NoteNumber":57,"Velocity":42,"Duration":1248030,"SoundDuration":1248030,"Delta":406501207},{"NoteNumber":61,"Velocity":42,"Duration":1248030,"SoundDuration":1248030,"Delta":406501207},{"NoteNumber":76,"Velocity":34,"Duration":208044,"SoundDuration":208044,"Delta":406709400},{"NoteNumber":73,"Velocity":38,"Duration":208044,"SoundDuration":208044,"Delta":406917445},{"NoteNumber":69,"Velocity":34,"Duration":208044,"SoundDuration":208044,"Delta":407125489},{"NoteNumber":64,"Velocity":38,"Duration":206969,"SoundDuration":206969,"Delta":407333534},{"NoteNumber":76,"Velocity":36,"Duration":208734,"SoundDuration":208734,"Delta":407540503},{"NoteNumber":64,"Velocity":41,"Duration":210565,"SoundDuration":210565,"Delta":407749238},{"NoteNumber":57,"Velocity":40,"Duration":423712,"SoundDuration":423712,"Delta":407749238},{"NoteNumber":61,"Velocity":40,"Duration":423712,"SoundDuration":423712,"Delta":407749238},{"NoteNumber":76,"Velocity":48,"Duration":213147,"SoundDuration":213147,"Delta":407959803},{"NoteNumber":64,"Velocity":48,"Duration":212464,"SoundDuration":212464,"Delta":408172950},{"NoteNumber":60,"Velocity":54,"Duration":424929,"SoundDuration":424929,"Delta":408172950},{"NoteNumber":56,"Velocity":54,"Duration":424929,"SoundDuration":424929,"Delta":408172950},{"NoteNumber":76,"Velocity":42,"Duration":212464,"SoundDuration":212464,"Delta":408385415},{"NoteNumber":64,"Velocity":53,"Duration":212464,"SoundDuration":212464,"Delta":408597879},{"NoteNumber":61,"Velocity":51,"Duration":424928,"SoundDuration":424928,"Delta":408597879},{"NoteNumber":57,"Velocity":51,"Duration":424928,"SoundDuration":424928,"Delta":408597879},{"NoteNumber":76,"Velocity":43,"Duration":212464,"SoundDuration":212464,"Delta":408810344},{"NoteNumber":64,"Velocity":54,"Duration":212464,"SoundDuration":212464,"Delta":409022808},{"NoteNumber":49,"Velocity":60,"Duration":318696,"SoundDuration":318696,"Delta":409022808},{"NoteNumber":57,"Velocity":60,"Duration":318696,"SoundDuration":318696,"Delta":409022808},{"NoteNumber":76,"Velocity":50,"Duration":212464,"SoundDuration":212464,"Delta":409235273},{"NoteNumber":64,"Velocity":60,"Duration":212464,"SoundDuration":212464,"Delta":409447737},{"NoteNumber":47,"Velocity":58,"Duration":329469,"SoundDuration":329469,"Delta":409447737},{"NoteNumber":56,"Velocity":58,"Duration":329469,"SoundDuration":329469,"Delta":409447737},{"NoteNumber":76,"Velocity":53,"Duration":234009,"SoundDuration":234009,"Delta":409660202},{"NoteNumber":64,"Velocity":67,"Duration":213979,"SoundDuration":213979,"Delta":409894211},{"NoteNumber":56,"Velocity":68,"Duration":427959,"SoundDuration":427959,"Delta":409894211},{"NoteNumber":76,"Velocity":59,"Duration":213979,"SoundDuration":213979,"Delta":410108191},{"NoteNumber":64,"Velocity":66,"Duration":213979,"SoundDuration":213979,"Delta":410322171},{"NoteNumber":54,"Velocity":64,"Duration":868868,"SoundDuration":868868,"Delta":410322171},{"NoteNumber":46,"Velocity":64,"Duration":868868,"SoundDuration":868868,"Delta":410322171},{"NoteNumber":76,"Velocity":52,"Duration":226928,"SoundDuration":226928,"Delta":410536151},{"NoteNumber":64,"Velocity":60,"Duration":213979,"SoundDuration":213979,"Delta":410763080},{"NoteNumber":76,"Velocity":46,"Duration":213979,"SoundDuration":213979,"Delta":410977060},{"NoteNumber":64,"Velocity":59,"Duration":213979,"SoundDuration":213979,"Delta":411191040},{"NoteNumber":46,"Velocity":51,"Duration":455526,"SoundDuration":455526,"Delta":411191040},{"NoteNumber":54,"Velocity":54,"Duration":455526,"SoundDuration":455526,"Delta":411191040},{"NoteNumber":76,"Velocity":47,"Duration":241546,"SoundDuration":241546,"Delta":411405020},{"NoteNumber":63,"Velocity":38,"Duration":215517,"SoundDuration":215517,"Delta":411646566},{"NoteNumber":54,"Velocity":41,"Duration":431034,"SoundDuration":431034,"Delta":411646566},{"NoteNumber":47,"Velocity":34,"Duration":1782294,"SoundDuration":1782294,"Delta":411646566},{"NoteNumber":75,"Velocity":34,"Duration":215517,"SoundDuration":215517,"Delta":411862083},{"NoteNumber":71,"Velocity":38,"Duration":215517,"SoundDuration":215517,"Delta":412077601},{"NoteNumber":59,"Velocity":32,"Duration":431034,"SoundDuration":431034,"Delta":412077601},{"NoteNumber":66,"Velocity":36,"Duration":161637,"SoundDuration":161637,"Delta":412293118},{"NoteNumber":66,"Velocity":38,"Duration":223546,"SoundDuration":223546,"Delta":412508635},{"NoteNumber":58,"Velocity":38,"Duration":447093,"SoundDuration":447093,"Delta":412508635},{"NoteNumber":78,"Velocity":34,"Duration":223546,"SoundDuration":223546,"Delta":412732182},{"NoteNumber":75,"Velocity":38,"Duration":223546,"SoundDuration":223546,"Delta":412955729},{"NoteNumber":59,"Velocity":34,"Duration":473131,"SoundDuration":473131,"Delta":412955729},{"NoteNumber":69,"Velocity":35,"Duration":249584,"SoundDuration":249584,"Delta":413179276},{"NoteNumber":68,"Velocity":51,"Duration":849857,"SoundDuration":849857,"Delta":413428860},{"NoteNumber":52,"Velocity":31,"Duration":212464,"SoundDuration":212464,"Delta":413428860},{"NoteNumber":59,"Velocity":23,"Duration":212464,"SoundDuration":212464,"Delta":413641325},{"NoteNumber":56,"Velocity":31,"Duration":212464,"SoundDuration":212464,"Delta":413853789},{"NoteNumber":52,"Velocity":25,"Duration":212464,"SoundDuration":212464,"Delta":414066254},{"NoteNumber":51,"Velocity":31,"Duration":208044,"SoundDuration":208044,"Delta":414278718},{"NoteNumber":59,"Velocity":27,"Duration":208044,"SoundDuration":208044,"Delta":414486763},{"NoteNumber":83,"Velocity":47,"Duration":434973,"SoundDuration":434973,"Delta":414694807},{"NoteNumber":71,"Velocity":47,"Duration":434973,"SoundDuration":434973,"Delta":414694807},{"NoteNumber":54,"Velocity":31,"Duration":208044,"SoundDuration":208044,"Delta":414694807},{"NoteNumber":51,"Velocity":32,"Duration":226928,"SoundDuration":226928,"Delta":414902852},{"NoteNumber":82,"Velocity":51,"Duration":849857,"SoundDuration":849857,"Delta":415129781},{"NoteNumber":70,"Velocity":51,"Duration":849857,"SoundDuration":849857,"Delta":415129781},{"NoteNumber":49,"Velocity":38,"Duration":212464,"SoundDuration":212464,"Delta":415129781},{"NoteNumber":58,"Velocity":29,"Duration":212464,"SoundDuration":212464,"Delta":415342245},{"NoteNumber":54,"Velocity":31,"Duration":212464,"SoundDuration":212464,"Delta":415554710},{"NoteNumber":49,"Velocity":27,"Duration":212464,"SoundDuration":212464,"Delta":415767174},{"NoteNumber":88,"Velocity":56,"Duration":862618,"SoundDuration":862618,"Delta":415979639},{"NoteNumber":76,"Velocity":56,"Duration":862618,"SoundDuration":862618,"Delta":415979639},{"NoteNumber":42,"Velocity":31,"Duration":212464,"SoundDuration":212464,"Delta":415979639},{"NoteNumber":58,"Velocity":26,"Duration":212464,"SoundDuration":212464,"Delta":416192103},{"NoteNumber":54,"Velocity":29,"Duration":212464,"SoundDuration":212464,"Delta":416404568},{"NoteNumber":49,"Velocity":27,"Duration":225225,"SoundDuration":225225,"Delta":416617032},{"NoteNumber":87,"Velocity":51,"Duration":1258632,"SoundDuration":1258632,"Delta":416842257},{"NoteNumber":75,"Velocity":51,"Duration":1258632,"SoundDuration":1258632,"Delta":416842257},{"NoteNumber":47,"Velocity":31,"Duration":209758,"SoundDuration":209758,"Delta":416842257},{"NoteNumber":59,"Velocity":25,"Duration":209497,"SoundDuration":209497,"Delta":417052016},{"NoteNumber":54,"Velocity":30,"Duration":209497,"SoundDuration":209497,"Delta":417261513},{"NoteNumber":51,"Velocity":27,"Duration":209497,"SoundDuration":209497,"Delta":417471010},{"NoteNumber":47,"Velocity":37,"Duration":209497,"SoundDuration":209497,"Delta":417680508},{"NoteNumber":59,"Velocity":30,"Duration":210884,"SoundDuration":210884,"Delta":417890005},{"NoteNumber":81,"Velocity":45,"Duration":435177,"SoundDuration":435177,"Delta":418100890},{"NoteNumber":69,"Velocity":45,"Duration":435177,"SoundDuration":435177,"Delta":418100890},{"NoteNumber":49,"Velocity":37,"Duration":211630,"SoundDuration":211630,"Delta":418100890},{"NoteNumber":57,"Velocity":33,"Duration":223546,"SoundDuration":223546,"Delta":418312520},{"NoteNumber":80,"Velocity":51,"Duration":849857,"SoundDuration":849857,"Delta":418536067},{"NoteNumber":68,"Velocity":51,"Duration":849857,"SoundDuration":849857,"Delta":418536067},{"NoteNumber":47,"Velocity":31,"Duration":212464,"SoundDuration":212464,"Delta":418536067},{"NoteNumber":56,"Velocity":29,"Duration":212464,"SoundDuration":212464,"Delta":418748531},{"NoteNumber":52,"Velocity":34,"Duration":212464,"SoundDuration":212464,"Delta":418960996},{"NoteNumber":47,"Velocity":29,"Duration":212464,"SoundDuration":212464,"Delta":419173460},{"NoteNumber":86,"Velocity":54,"Duration":871402,"SoundDuration":871402,"Delta":419385925},{"NoteNumber":74,"Velocity":54,"Duration":871402,"SoundDuration":871402,"Delta":419385925},{"NoteNumber":40,"Velocity":39,"Duration":212464,"SoundDuration":212464,"Delta":419385925},{"NoteNumber":56,"Velocity":32,"Duration":212464,"SoundDuration":212464,"Delta":419598389},{"NoteNumber":52,"Velocity":36,"Duration":212464,"SoundDuration":212464,"Delta":419810854},{"NoteNumber":47,"Velocity":29,"Duration":234009,"SoundDuration":234009,"Delta":420023318},{"NoteNumber":85,"Velocity":51,"Duration":1279397,"SoundDuration":1279397,"Delta":420257328},{"NoteNumber":73,"Velocity":51,"Duration":1279397,"SoundDuration":1279397,"Delta":420257328},{"NoteNumber":45,"Velocity":35,"Duration":213979,"SoundDuration":213979,"Delta":420257328},{"NoteNumber":57,"Velocity":27,"Duration":213979,"SoundDuration":213979,"Delta":420471308},{"NoteNumber":52,"Velocity":31,"Duration":213979,"SoundDuration":213979,"Delta":420685288},{"NoteNumber":49,"Velocity":27,"Duration":213980,"SoundDuration":213980,"Delta":420899268},{"NoteNumber":45,"Velocity":31,"Duration":213979,"SoundDuration":213979,"Delta":421113248},{"NoteNumber":52,"Velocity":29,"Duration":209497,"SoundDuration":209497,"Delta":421327228},{"NoteNumber":85,"Velocity":48,"Duration":418994,"SoundDuration":418994,"Delta":421536725},{"NoteNumber":73,"Velocity":48,"Duration":418994,"SoundDuration":418994,"Delta":421536725},{"NoteNumber":45,"Velocity":34,"Duration":209497,"SoundDuration":209497,"Delta":421536725},{"NoteNumber":52,"Velocity":38,"Duration":209497,"SoundDuration":209497,"Delta":421746222},{"NoteNumber":84,"Velocity":56,"Duration":424929,"SoundDuration":424929,"Delta":421955719},{"NoteNumber":72,"Velocity":56,"Duration":424929,"SoundDuration":424929,"Delta":421955719},{"NoteNumber":44,"Velocity":38,"Duration":212464,"SoundDuration":212464,"Delta":421955719},{"NoteNumber":52,"Velocity":34,"Duration":212464,"SoundDuration":212464,"Delta":422168184},{"NoteNumber":85,"Velocity":57,"Duration":424928,"SoundDuration":424928,"Delta":422380648},{"NoteNumber":73,"Velocity":57,"Duration":424928,"SoundDuration":424928,"Delta":422380648},{"NoteNumber":45,"Velocity":38,"Duration":212464,"SoundDuration":212464,"Delta":422380648},{"NoteNumber":52,"Velocity":35,"Duration":212464,"SoundDuration":212464,"Delta":422593113},{"NoteNumber":81,"Velocity":55,"Duration":318696,"SoundDuration":318696,"Delta":422805577},{"NoteNumber":69,"Velocity":55,"Duration":318696,"SoundDuration":318696,"Delta":422805577},{"NoteNumber":45,"Velocity":36,"Duration":212464,"SoundDuration":212464,"Delta":422805577},{"NoteNumber":49,"Velocity":43,"Duration":212464,"SoundDuration":212464,"Delta":422805577},{"NoteNumber":52,"Velocity":35,"Duration":212464,"SoundDuration":212464,"Delta":423018042},{"NoteNumber":80,"Velocity":54,"Duration":329469,"SoundDuration":329469,"Delta":423230506},{"NoteNumber":68,"Velocity":54,"Duration":329469,"SoundDuration":329469,"Delta":423230506},{"NoteNumber":47,"Velocity":37,"Duration":212464,"SoundDuration":212464,"Delta":423230506},{"NoteNumber":52,"Velocity":44,"Duration":212464,"SoundDuration":212464,"Delta":423230506},{"NoteNumber":56,"Velocity":36,"Duration":234009,"SoundDuration":234009,"Delta":423442971},{"NoteNumber":80,"Velocity":70,"Duration":427959,"SoundDuration":427959,"Delta":423676980},{"NoteNumber":68,"Velocity":70,"Duration":427959,"SoundDuration":427959,"Delta":423676980},{"NoteNumber":52,"Velocity":54,"Duration":213979,"SoundDuration":213979,"Delta":423676980},{"NoteNumber":49,"Velocity":46,"Duration":213979,"SoundDuration":213979,"Delta":423676980},{"NoteNumber":58,"Velocity":47,"Duration":213979,"SoundDuration":213979,"Delta":423890960},{"NoteNumber":78,"Velocity":61,"Duration":859953,"SoundDuration":859953,"Delta":424104940},{"NoteNumber":66,"Velocity":61,"Duration":859953,"SoundDuration":859953,"Delta":424104940},{"NoteNumber":52,"Velocity":52,"Duration":213979,"SoundDuration":213979,"Delta":424104940},{"NoteNumber":49,"Velocity":44,"Duration":213979,"SoundDuration":213979,"Delta":424104940},{"NoteNumber":58,"Velocity":42,"Duration":226928,"SoundDuration":226928,"Delta":424318920},{"NoteNumber":52,"Velocity":48,"Duration":213979,"SoundDuration":213979,"Delta":424545849},{"NoteNumber":48,"Velocity":41,"Duration":213979,"SoundDuration":213979,"Delta":424545849},{"NoteNumber":57,"Velocity":37,"Duration":213979,"SoundDuration":213979,"Delta":424759829},{"NoteNumber":78,"Velocity":65,"Duration":431371,"SoundDuration":431371,"Delta":424973809},{"NoteNumber":66,"Velocity":65,"Duration":431371,"SoundDuration":431371,"Delta":424973809},{"NoteNumber":48,"Velocity":40,"Duration":213979,"SoundDuration":213979,"Delta":424973809},{"NoteNumber":52,"Velocity":47,"Duration":213979,"SoundDuration":213979,"Delta":424973809},{"NoteNumber":57,"Velocity":38,"Duration":241546,"SoundDuration":241546,"Delta":425187789},{"NoteNumber":78,"Velocity":49,"Duration":431034,"SoundDuration":431034,"Delta":425429335},{"NoteNumber":66,"Velocity":49,"Duration":431034,"SoundDuration":431034,"Delta":425429335},{"NoteNumber":47,"Velocity":31,"Duration":215517,"SoundDuration":215517,"Delta":425429335},{"NoteNumber":51,"Velocity":21,"Duration":215517,"SoundDuration":215517,"Delta":425644852},{"NoteNumber":54,"Velocity":21,"Duration":215517,"SoundDuration":215517,"Delta":425644852},{"NoteNumber":57,"Velocity":27,"Duration":215517,"SoundDuration":215517,"Delta":425644852},{"NoteNumber":83,"Velocity":38,"Duration":431034,"SoundDuration":431034,"Delta":425860370},{"NoteNumber":71,"Velocity":38,"Duration":431034,"SoundDuration":431034,"Delta":425860370},{"NoteNumber":47,"Velocity":31,"Duration":215517,"SoundDuration":215517,"Delta":425860370},{"NoteNumber":51,"Velocity":23,"Duration":215517,"SoundDuration":215517,"Delta":426075887},{"NoteNumber":54,"Velocity":23,"Duration":215517,"SoundDuration":215517,"Delta":426075887},{"NoteNumber":57,"Velocity":29,"Duration":215517,"SoundDuration":215517,"Delta":426075887},{"NoteNumber":82,"Velocity":46,"Duration":440528,"SoundDuration":440528,"Delta":426291404},{"NoteNumber":70,"Velocity":46,"Duration":440528,"SoundDuration":440528,"Delta":426291404},{"NoteNumber":47,"Velocity":31,"Duration":220264,"SoundDuration":220264,"Delta":426291404},{"NoteNumber":51,"Velocity":21,"Duration":220264,"SoundDuration":220264,"Delta":426511668},{"NoteNumber":54,"Velocity":21,"Duration":220264,"SoundDuration":220264,"Delta":426511668},{"NoteNumber":57,"Velocity":27,"Duration":220264,"SoundDuration":220264,"Delta":426511668},{"NoteNumber":83,"Velocity":40,"Duration":442157,"SoundDuration":442157,"Delta":426731933},{"NoteNumber":71,"Velocity":40,"Duration":442157,"SoundDuration":442157,"Delta":426731933},{"NoteNumber":47,"Velocity":31,"Duration":220264,"SoundDuration":220264,"Delta":426731933},{"NoteNumber":51,"Velocity":22,"Duration":221893,"SoundDuration":221893,"Delta":426952197},{"NoteNumber":54,"Velocity":22,"Duration":221893,"SoundDuration":221893,"Delta":426952197},{"NoteNumber":57,"Velocity":28,"Duration":221893,"SoundDuration":221893,"Delta":426952197},{"NoteNumber":76,"Velocity":49,"Duration":431034,"SoundDuration":431034,"Delta":427174090},{"NoteNumber":64,"Velocity":49,"Duration":431034,"SoundDuration":431034,"Delta":427174090},{"NoteNumber":47,"Velocity":31,"Duration":215517,"SoundDuration":215517,"Delta":427174090},{"NoteNumber":52,"Velocity":21,"Duration":215517,"SoundDuration":215517,"Delta":427389608},{"NoteNumber":56,"Velocity":27,"Duration":215517,"SoundDuration":215517,"Delta":427389608},{"NoteNumber":83,"Velocity":38,"Duration":431034,"SoundDuration":431034,"Delta":427605125},{"NoteNumber":71,"Velocity":38,"Duration":431034,"SoundDuration":431034,"Delta":427605125},{"NoteNumber":47,"Velocity":31,"Duration":215517,"SoundDuration":215517,"Delta":427605125},{"NoteNumber":52,"Velocity":23,"Duration":215517,"SoundDuration":215517,"Delta":427820642},{"NoteNumber":56,"Velocity":29,"Duration":215517,"SoundDuration":215517,"Delta":427820642},{"NoteNumber":82,"Velocity":46,"Duration":437318,"SoundDuration":437318,"Delta":428036159},{"NoteNumber":70,"Velocity":46,"Duration":437318,"SoundDuration":437318,"Delta":428036159},{"NoteNumber":47,"Velocity":31,"Duration":218659,"SoundDuration":218659,"Delta":428036159},{"NoteNumber":52,"Velocity":21,"Duration":218659,"SoundDuration":218659,"Delta":428254818},{"NoteNumber":56,"Velocity":27,"Duration":218659,"SoundDuration":218659,"Delta":428254818},{"NoteNumber":83,"Velocity":40,"Duration":440552,"SoundDuration":440552,"Delta":428473477},{"NoteNumber":71,"Velocity":40,"Duration":440552,"SoundDuration":440552,"Delta":428473477},{"NoteNumber":47,"Velocity":31,"Duration":218659,"SoundDuration":218659,"Delta":428473477},{"NoteNumber":52,"Velocity":22,"Duration":221893,"SoundDuration":221893,"Delta":428692136},{"NoteNumber":56,"Velocity":28,"Duration":221893,"SoundDuration":221893,"Delta":428692136},{"NoteNumber":54,"Velocity":46,"Duration":1748911,"SoundDuration":1748911,"Delta":428914030},{"NoteNumber":47,"Velocity":46,"Duration":1748911,"SoundDuration":1748911,"Delta":428914030},{"NoteNumber":75,"Velocity":33,"Duration":213979,"SoundDuration":213979,"Delta":429128010},{"NoteNumber":83,"Velocity":38,"Duration":213979,"SoundDuration":213979,"Delta":429341990},{"NoteNumber":59,"Velocity":34,"Duration":427960,"SoundDuration":427960,"Delta":429341990},{"NoteNumber":81,"Velocity":34,"Duration":213980,"SoundDuration":213980,"Delta":429555970},{"NoteNumber":78,"Velocity":39,"Duration":220264,"SoundDuration":220264,"Delta":429769950},{"NoteNumber":58,"Velocity":43,"Duration":440528,"SoundDuration":440528,"Delta":429769950},{"NoteNumber":75,"Velocity":32,"Duration":220264,"SoundDuration":220264,"Delta":429990214},{"NoteNumber":71,"Velocity":37,"Duration":220264,"SoundDuration":220264,"Delta":430210478},{"NoteNumber":59,"Velocity":35,"Duration":452462,"SoundDuration":452462,"Delta":430210478},{"NoteNumber":69,"Velocity":32,"Duration":232198,"SoundDuration":232198,"Delta":430430743},{"NoteNumber":52,"Velocity":46,"Duration":1748911,"SoundDuration":1748911,"Delta":430662941},{"NoteNumber":47,"Velocity":46,"Duration":1748911,"SoundDuration":1748911,"Delta":430662941},{"NoteNumber":68,"Velocity":33,"Duration":213979,"SoundDuration":213979,"Delta":430876921},{"NoteNumber":83,"Velocity":38,"Duration":213979,"SoundDuration":213979,"Delta":431090901},{"NoteNumber":59,"Velocity":34,"Duration":427960,"SoundDuration":427960,"Delta":431090901},{"NoteNumber":80,"Velocity":34,"Duration":213980,"SoundDuration":213980,"Delta":431304881},{"NoteNumber":76,"Velocity":39,"Duration":220264,"SoundDuration":220264,"Delta":431518861},{"NoteNumber":58,"Velocity":43,"Duration":440528,"SoundDuration":440528,"Delta":431518861},{"NoteNumber":71,"Velocity":32,"Duration":220264,"SoundDuration":220264,"Delta":431739125},{"NoteNumber":69,"Velocity":37,"Duration":220264,"SoundDuration":220264,"Delta":431959389},{"NoteNumber":59,"Velocity":35,"Duration":452462,"SoundDuration":452462,"Delta":431959389},{"NoteNumber":68,"Velocity":32,"Duration":232198,"SoundDuration":232198,"Delta":432179654},{"NoteNumber":78,"Velocity":58,"Duration":431034,"SoundDuration":431034,"Delta":432411852},{"NoteNumber":66,"Velocity":58,"Duration":431034,"SoundDuration":431034,"Delta":432411852},{"NoteNumber":47,"Velocity":37,"Duration":215517,"SoundDuration":215517,"Delta":432411852},{"NoteNumber":51,"Velocity":25,"Duration":215517,"SoundDuration":215517,"Delta":432627369},{"NoteNumber":54,"Velocity":25,"Duration":215517,"SoundDuration":215517,"Delta":432627369},{"NoteNumber":57,"Velocity":31,"Duration":215517,"SoundDuration":215517,"Delta":432627369},{"NoteNumber":83,"Velocity":46,"Duration":431034,"SoundDuration":431034,"Delta":432842886},{"NoteNumber":71,"Velocity":46,"Duration":431034,"SoundDuration":431034,"Delta":432842886},{"NoteNumber":47,"Velocity":37,"Duration":215517,"SoundDuration":215517,"Delta":432842886},{"NoteNumber":51,"Velocity":27,"Duration":215517,"SoundDuration":215517,"Delta":433058404},{"NoteNumber":54,"Velocity":27,"Duration":215517,"SoundDuration":215517,"Delta":433058404},{"NoteNumber":57,"Velocity":35,"Duration":215517,"SoundDuration":215517,"Delta":433058404},{"NoteNumber":82,"Velocity":58,"Duration":434153,"SoundDuration":434153,"Delta":433273921},{"NoteNumber":70,"Velocity":58,"Duration":434153,"SoundDuration":434153,"Delta":433273921},{"NoteNumber":47,"Velocity":39,"Duration":217076,"SoundDuration":217076,"Delta":433273921},{"NoteNumber":51,"Velocity":27,"Duration":217076,"SoundDuration":217076,"Delta":433490998},{"NoteNumber":54,"Velocity":27,"Duration":217076,"SoundDuration":217076,"Delta":433490998},{"NoteNumber":57,"Velocity":35,"Duration":217076,"SoundDuration":217076,"Delta":433490998},{"NoteNumber":83,"Velocity":51,"Duration":431056,"SoundDuration":431056,"Delta":433708074},{"NoteNumber":71,"Velocity":51,"Duration":431056,"SoundDuration":431056,"Delta":433708074},{"NoteNumber":47,"Velocity":40,"Duration":217076,"SoundDuration":217076,"Delta":433708074},{"NoteNumber":51,"Velocity":28,"Duration":213979,"SoundDuration":213979,"Delta":433925151},{"NoteNumber":54,"Velocity":28,"Duration":213979,"SoundDuration":213979,"Delta":433925151},{"NoteNumber":57,"Velocity":37,"Duration":213979,"SoundDuration":213979,"Delta":433925151},{"NoteNumber":65,"Velocity":70,"Duration":431034,"SoundDuration":431034,"Delta":434139131},{"NoteNumber":77,"Velocity":70,"Duration":431034,"SoundDuration":431034,"Delta":434139131},{"NoteNumber":47,"Velocity":48,"Duration":215517,"SoundDuration":215517,"Delta":434139131},{"NoteNumber":50,"Velocity":32,"Duration":215517,"SoundDuration":215517,"Delta":434354648},{"NoteNumber":53,"Velocity":32,"Duration":215517,"SoundDuration":215517,"Delta":434354648},{"NoteNumber":56,"Velocity":41,"Duration":215517,"SoundDuration":215517,"Delta":434354648},{"NoteNumber":74,"Velocity":64,"Duration":431034,"SoundDuration":431034,"Delta":434570166},{"NoteNumber":86,"Velocity":64,"Duration":431034,"SoundDuration":431034,"Delta":434570166},{"NoteNumber":47,"Velocity":48,"Duration":215517,"SoundDuration":215517,"Delta":434570166},{"NoteNumber":50,"Velocity":37,"Duration":215517,"SoundDuration":215517,"Delta":434785683},{"NoteNumber":53,"Velocity":37,"Duration":215517,"SoundDuration":215517,"Delta":434785683},{"NoteNumber":56,"Velocity":46,"Duration":215517,"SoundDuration":215517,"Delta":434785683},{"NoteNumber":73,"Velocity":74,"Duration":431034,"SoundDuration":431034,"Delta":435001200},{"NoteNumber":85,"Velocity":74,"Duration":431034,"SoundDuration":431034,"Delta":435001200},{"NoteNumber":47,"Velocity":50,"Duration":215517,"SoundDuration":215517,"Delta":435001200},{"NoteNumber":50,"Velocity":34,"Duration":215517,"SoundDuration":215517,"Delta":435216717},{"NoteNumber":53,"Velocity":34,"Duration":215517,"SoundDuration":215517,"Delta":435216717},{"NoteNumber":56,"Velocity":46,"Duration":215517,"SoundDuration":215517,"Delta":435216717},{"NoteNumber":74,"Velocity":69,"Duration":437410,"SoundDuration":437410,"Delta":435432235},{"NoteNumber":86,"Velocity":69,"Duration":437410,"SoundDuration":437410,"Delta":435432235},{"NoteNumber":47,"Velocity":51,"Duration":215517,"SoundDuration":215517,"Delta":435432235},{"NoteNumber":50,"Velocity":38,"Duration":221893,"SoundDuration":221893,"Delta":435647752},{"NoteNumber":53,"Velocity":38,"Duration":221893,"SoundDuration":221893,"Delta":435647752},{"NoteNumber":56,"Velocity":47,"Duration":221893,"SoundDuration":221893,"Delta":435647752},{"NoteNumber":85,"Velocity":79,"Duration":443786,"SoundDuration":443786,"Delta":435869645},{"NoteNumber":45,"Velocity":51,"Duration":221893,"SoundDuration":221893,"Delta":435869645},{"NoteNumber":54,"Velocity":42,"Duration":221893,"SoundDuration":221893,"Delta":436091539},{"NoteNumber":49,"Velocity":34,"Duration":221893,"SoundDuration":221893,"Delta":436091539},{"NoteNumber":78,"Velocity":67,"Duration":443786,"SoundDuration":443786,"Delta":436313432},{"NoteNumber":45,"Velocity":49,"Duration":221893,"SoundDuration":221893,"Delta":436313432},{"NoteNumber":49,"Velocity":35,"Duration":221893,"SoundDuration":221893,"Delta":436535326},{"NoteNumber":54,"Velocity":42,"Duration":221893,"SoundDuration":221893,"Delta":436535326},{"NoteNumber":81,"Velocity":77,"Duration":443786,"SoundDuration":443786,"Delta":436757219},{"NoteNumber":45,"Velocity":52,"Duration":221893,"SoundDuration":221893,"Delta":436757219},{"NoteNumber":54,"Velocity":43,"Duration":221893,"SoundDuration":221893,"Delta":436979113},{"NoteNumber":49,"Velocity":35,"Duration":221893,"SoundDuration":221893,"Delta":436979113},{"NoteNumber":73,"Velocity":68,"Duration":443787,"SoundDuration":443787,"Delta":437201006},{"NoteNumber":45,"Velocity":49,"Duration":221893,"SoundDuration":221893,"Delta":437201006},{"NoteNumber":49,"Velocity":38,"Duration":221893,"SoundDuration":221893,"Delta":437422900},{"NoteNumber":54,"Velocity":45,"Duration":221893,"SoundDuration":221893,"Delta":437422900},{"NoteNumber":78,"Velocity":59,"Duration":443786,"SoundDuration":443786,"Delta":437644793},{"NoteNumber":46,"Velocity":43,"Duration":221893,"SoundDuration":221893,"Delta":437644793},{"NoteNumber":54,"Velocity":35,"Duration":221893,"SoundDuration":221893,"Delta":437866687},{"NoteNumber":52,"Velocity":29,"Duration":221893,"SoundDuration":221893,"Delta":437866687},{"NoteNumber":49,"Velocity":29,"Duration":221893,"SoundDuration":221893,"Delta":437866687},{"NoteNumber":73,"Velocity":54,"Duration":443786,"SoundDuration":443786,"Delta":438088580},{"NoteNumber":46,"Velocity":40,"Duration":221893,"SoundDuration":221893,"Delta":438088580},{"NoteNumber":54,"Velocity":34,"Duration":221893,"SoundDuration":221893,"Delta":438310474},{"NoteNumber":52,"Velocity":28,"Duration":221893,"SoundDuration":221893,"Delta":438310474},{"NoteNumber":49,"Velocity":28,"Duration":221893,"SoundDuration":221893,"Delta":438310474},{"NoteNumber":76,"Velocity":59,"Duration":443786,"SoundDuration":443786,"Delta":438532367},{"NoteNumber":46,"Velocity":43,"Duration":221893,"SoundDuration":221893,"Delta":438532367},{"NoteNumber":54,"Velocity":34,"Duration":221893,"SoundDuration":221893,"Delta":438754261},{"NoteNumber":52,"Velocity":28,"Duration":221893,"SoundDuration":221893,"Delta":438754261},{"NoteNumber":49,"Velocity":28,"Duration":221893,"SoundDuration":221893,"Delta":438754261},{"NoteNumber":66,"Velocity":45,"Duration":443787,"SoundDuration":443787,"Delta":438976154},{"NoteNumber":46,"Velocity":39,"Duration":221893,"SoundDuration":221893,"Delta":438976154},{"NoteNumber":54,"Velocity":33,"Duration":221893,"SoundDuration":221893,"Delta":439198048},{"NoteNumber":52,"Velocity":28,"Duration":221893,"SoundDuration":221893,"Delta":439198048},{"NoteNumber":49,"Velocity":28,"Duration":221893,"SoundDuration":221893,"Delta":439198048},{"NoteNumber":71,"Velocity":51,"Duration":443786,"SoundDuration":443786,"Delta":439419941},{"NoteNumber":47,"Velocity":38,"Duration":221893,"SoundDuration":221893,"Delta":439419941},{"NoteNumber":52,"Velocity":25,"Duration":221893,"SoundDuration":221893,"Delta":439641835},{"NoteNumber":56,"Velocity":30,"Duration":221893,"SoundDuration":221893,"Delta":439641835},{"NoteNumber":68,"Velocity":38,"Duration":443786,"SoundDuration":443786,"Delta":439863728},{"NoteNumber":47,"Velocity":35,"Duration":221893,"SoundDuration":221893,"Delta":439863728},{"NoteNumber":56,"Velocity":26,"Duration":221893,"SoundDuration":221893,"Delta":440085622},{"NoteNumber":52,"Velocity":22,"Duration":221893,"SoundDuration":221893,"Delta":440085622},{"NoteNumber":71,"Velocity":47,"Duration":443786,"SoundDuration":443786,"Delta":440307515},{"NoteNumber":47,"Velocity":32,"Duration":221893,"SoundDuration":221893,"Delta":440307515},{"NoteNumber":52,"Velocity":21,"Duration":221893,"SoundDuration":221893,"Delta":440529409},{"NoteNumber":56,"Velocity":25,"Duration":221893,"SoundDuration":221893,"Delta":440529409},{"NoteNumber":64,"Velocity":30,"Duration":479233,"SoundDuration":479233,"Delta":440751302},{"NoteNumber":47,"Velocity":32,"Duration":239616,"SoundDuration":239616,"Delta":440751302},{"NoteNumber":56,"Velocity":25,"Duration":239616,"SoundDuration":239616,"Delta":440990919},{"NoteNumber":52,"Velocity":21,"Duration":239616,"SoundDuration":239616,"Delta":440990919},{"NoteNumber":63,"Velocity":42,"Duration":453858,"SoundDuration":453858,"Delta":441230535},{"NoteNumber":47,"Velocity":32,"Duration":226928,"SoundDuration":226928,"Delta":441230535},{"NoteNumber":54,"Velocity":25,"Duration":226929,"SoundDuration":226929,"Delta":441457464},{"NoteNumber":71,"Velocity":34,"Duration":453857,"SoundDuration":453857,"Delta":441684393},{"NoteNumber":47,"Velocity":32,"Duration":226928,"SoundDuration":226928,"Delta":441684393},{"NoteNumber":51,"Velocity":26,"Duration":226928,"SoundDuration":226928,"Delta":441911322},{"NoteNumber":66,"Velocity":41,"Duration":468018,"SoundDuration":468018,"Delta":442138251},{"NoteNumber":63,"Velocity":34,"Duration":468018,"SoundDuration":468018,"Delta":442138251},{"NoteNumber":47,"Velocity":32,"Duration":234009,"SoundDuration":234009,"Delta":442138251},{"NoteNumber":59,"Velocity":26,"Duration":234009,"SoundDuration":234009,"Delta":442372261},{"NoteNumber":71,"Velocity":34,"Duration":503355,"SoundDuration":503355,"Delta":442606270},{"NoteNumber":63,"Velocity":28,"Duration":503355,"SoundDuration":503355,"Delta":442606270},{"NoteNumber":47,"Velocity":32,"Duration":251677,"SoundDuration":251677,"Delta":442606270},{"NoteNumber":59,"Velocity":27,"Duration":230704,"SoundDuration":230704,"Delta":442857948},{"NoteNumber":59,"Velocity":50,"Duration":850029,"SoundDuration":850029,"Delta":443109625},{"NoteNumber":62,"Velocity":49,"Duration":215517,"SoundDuration":215517,"Delta":443325143},{"NoteNumber":68,"Velocity":57,"Duration":209497,"SoundDuration":209497,"Delta":443540660},{"NoteNumber":65,"Velocity":50,"Duration":209497,"SoundDuration":209497,"Delta":443750157},{"NoteNumber":57,"Velocity":56,"Duration":837988,"SoundDuration":837988,"Delta":443959654},{"NoteNumber":61,"Velocity":53,"Duration":209497,"SoundDuration":209497,"Delta":444169152},{"NoteNumber":69,"Velocity":60,"Duration":209497,"SoundDuration":209497,"Delta":444378649},{"NoteNumber":66,"Velocity":55,"Duration":209497,"SoundDuration":209497,"Delta":444588146},{"NoteNumber":56,"Velocity":64,"Duration":820792,"SoundDuration":820792,"Delta":444797643},{"NoteNumber":59,"Velocity":64,"Duration":820792,"SoundDuration":820792,"Delta":444797643},{"NoteNumber":71,"Velocity":65,"Duration":205198,"SoundDuration":205198,"Delta":445002842},{"NoteNumber":83,"Velocity":71,"Duration":205198,"SoundDuration":205198,"Delta":445208040},{"NoteNumber":80,"Velocity":67,"Duration":205198,"SoundDuration":205198,"Delta":445413238},{"NoteNumber":54,"Velocity":70,"Duration":820793,"SoundDuration":820793,"Delta":445618436},{"NoteNumber":57,"Velocity":70,"Duration":820793,"SoundDuration":820793,"Delta":445618436},{"NoteNumber":73,"Velocity":70,"Duration":205198,"SoundDuration":205198,"Delta":445823635},{"NoteNumber":85,"Velocity":81,"Duration":205198,"SoundDuration":205198,"Delta":446028833},{"NoteNumber":81,"Velocity":76,"Duration":205198,"SoundDuration":205198,"Delta":446234031},{"NoteNumber":56,"Velocity":80,"Duration":407608,"SoundDuration":407608,"Delta":446439229},{"NoteNumber":53,"Velocity":80,"Duration":407608,"SoundDuration":407608,"Delta":446439229},{"NoteNumber":74,"Velocity":91,"Duration":203804,"SoundDuration":203804,"Delta":446643034},{"NoteNumber":86,"Velocity":97,"Duration":203804,"SoundDuration":203804,"Delta":446846838},{"NoteNumber":83,"Velocity":89,"Duration":203804,"SoundDuration":203804,"Delta":447050642},{"NoteNumber":56,"Velocity":81,"Duration":407608,"SoundDuration":407608,"Delta":447254446},{"NoteNumber":53,"Velocity":81,"Duration":407608,"SoundDuration":407608,"Delta":447254446},{"NoteNumber":73,"Velocity":89,"Duration":203804,"SoundDuration":203804,"Delta":447458251},{"NoteNumber":85,"Velocity":98,"Duration":203804,"SoundDuration":203804,"Delta":447662055},{"NoteNumber":83,"Velocity":91,"Duration":203804,"SoundDuration":203804,"Delta":447865859},{"NoteNumber":61,"Velocity":45,"Duration":212464,"SoundDuration":212464,"Delta":449344450},{"NoteNumber":63,"Velocity":41,"Duration":212464,"SoundDuration":212464,"Delta":449556915},{"NoteNumber":64,"Velocity":47,"Duration":416088,"SoundDuration":416088,"Delta":449769379},{"NoteNumber":58,"Velocity":40,"Duration":1655757,"SoundDuration":1655757,"Delta":449769379},{"NoteNumber":67,"Velocity":50,"Duration":413223,"SoundDuration":413223,"Delta":450185468},{"NoteNumber":66,"Velocity":46,"Duration":413222,"SoundDuration":413222,"Delta":450598691},{"NoteNumber":61,"Velocity":46,"Duration":413223,"SoundDuration":413223,"Delta":451011914},{"NoteNumber":78,"Velocity":48,"Duration":427959,"SoundDuration":427959,"Delta":451425137},{"NoteNumber":63,"Velocity":48,"Duration":2095588,"SoundDuration":2095588,"Delta":451425137},{"NoteNumber":59,"Velocity":40,"Duration":6218562,"SoundDuration":6218562,"Delta":451425137},{"NoteNumber":85,"Velocity":55,"Duration":413223,"SoundDuration":413223,"Delta":451853097},{"NoteNumber":83,"Velocity":49,"Duration":413222,"SoundDuration":413222,"Delta":452266320},{"NoteNumber":78,"Velocity":48,"Duration":413223,"SoundDuration":413223,"Delta":452679543},{"NoteNumber":81,"Velocity":50,"Duration":2096938,"SoundDuration":2096938,"Delta":453092766},{"NoteNumber":66,"Velocity":40,"Duration":420591,"SoundDuration":420591,"Delta":453520726},{"NoteNumber":64,"Velocity":43,"Duration":413223,"SoundDuration":413223,"Delta":453941318},{"NoteNumber":61,"Velocity":40,"Duration":413222,"SoundDuration":413222,"Delta":454354541},{"NoteNumber":64,"Velocity":42,"Duration":2066707,"SoundDuration":2066707,"Delta":454767764},{"NoteNumber":81,"Velocity":48,"Duration":407608,"SoundDuration":407608,"Delta":455189705},{"NoteNumber":80,"Velocity":47,"Duration":407608,"SoundDuration":407608,"Delta":455597313},{"NoteNumber":76,"Velocity":43,"Duration":407608,"SoundDuration":407608,"Delta":456004922},{"NoteNumber":80,"Velocity":50,"Duration":2076305,"SoundDuration":2076305,"Delta":456412530},{"NoteNumber":64,"Velocity":38,"Duration":413223,"SoundDuration":413223,"Delta":456834471},{"NoteNumber":63,"Velocity":41,"Duration":413222,"SoundDuration":413222,"Delta":457247694},{"NoteNumber":59,"Velocity":39,"Duration":413223,"SoundDuration":413223,"Delta":457660917},{"NoteNumber":63,"Velocity":41,"Duration":414695,"SoundDuration":414695,"Delta":458074140},{"NoteNumber":76,"Velocity":34,"Duration":410396,"SoundDuration":410396,"Delta":458488836},{"NoteNumber":80,"Velocity":40,"Duration":410396,"SoundDuration":410396,"Delta":458488836},{"NoteNumber":58,"Velocity":32,"Duration":410396,"SoundDuration":410396,"Delta":458488836},{"NoteNumber":78,"Velocity":42,"Duration":410396,"SoundDuration":410396,"Delta":458899232},{"NoteNumber":75,"Velocity":35,"Duration":410396,"SoundDuration":410396,"Delta":458899232},{"NoteNumber":59,"Velocity":36,"Duration":410396,"SoundDuration":410396,"Delta":458899232},{"NoteNumber":71,"Velocity":34,"Duration":434153,"SoundDuration":434153,"Delta":459309629},{"NoteNumber":75,"Velocity":40,"Duration":434153,"SoundDuration":434153,"Delta":459309629},{"NoteNumber":63,"Velocity":32,"Duration":434153,"SoundDuration":434153,"Delta":459309629},{"NoteNumber":75,"Velocity":40,"Duration":398044,"SoundDuration":398044,"Delta":459743782},{"NoteNumber":78,"Velocity":48,"Duration":398044,"SoundDuration":398044,"Delta":459743782},{"NoteNumber":59,"Velocity":38,"Duration":398044,"SoundDuration":398044,"Delta":459743782},{"NoteNumber":72,"Velocity":34,"Duration":410396,"SoundDuration":410396,"Delta":460162777},{"NoteNumber":78,"Velocity":40,"Duration":410396,"SoundDuration":410396,"Delta":460162777},{"NoteNumber":56,"Velocity":30,"Duration":410396,"SoundDuration":410396,"Delta":460162777},{"NoteNumber":76,"Velocity":42,"Duration":410396,"SoundDuration":410396,"Delta":460573173},{"NoteNumber":73,"Velocity":35,"Duration":410396,"SoundDuration":410396,"Delta":460573173},{"NoteNumber":57,"Velocity":34,"Duration":410396,"SoundDuration":410396,"Delta":460573173},{"NoteNumber":69,"Velocity":33,"Duration":418994,"SoundDuration":418994,"Delta":460983570},{"NoteNumber":73,"Velocity":39,"Duration":418994,"SoundDuration":418994,"Delta":460983570},{"NoteNumber":61,"Velocity":31,"Duration":418994,"SoundDuration":418994,"Delta":460983570},{"NoteNumber":73,"Velocity":40,"Duration":395284,"SoundDuration":395284,"Delta":461402564},{"NoteNumber":76,"Velocity":48,"Duration":395284,"SoundDuration":395284,"Delta":461402564},{"NoteNumber":57,"Velocity":38,"Duration":395284,"SoundDuration":395284,"Delta":461402564},{"NoteNumber":70,"Velocity":34,"Duration":410396,"SoundDuration":410396,"Delta":461818653},{"NoteNumber":76,"Velocity":40,"Duration":410396,"SoundDuration":410396,"Delta":461818653},{"NoteNumber":55,"Velocity":31,"Duration":410396,"SoundDuration":410396,"Delta":461818653},{"NoteNumber":75,"Velocity":45,"Duration":410396,"SoundDuration":410396,"Delta":462229050},{"NoteNumber":71,"Velocity":38,"Duration":410396,"SoundDuration":410396,"Delta":462229050},{"NoteNumber":47,"Velocity":35,"Duration":410396,"SoundDuration":410396,"Delta":462229050},{"NoteNumber":56,"Velocity":35,"Duration":410396,"SoundDuration":410396,"Delta":462229050},{"NoteNumber":68,"Velocity":34,"Duration":427959,"SoundDuration":427959,"Delta":462639446},{"NoteNumber":71,"Velocity":41,"Duration":427959,"SoundDuration":427959,"Delta":462639446},{"NoteNumber":59,"Velocity":32,"Duration":427959,"SoundDuration":427959,"Delta":462639446},{"NoteNumber":71,"Velocity":40,"Duration":392561,"SoundDuration":392561,"Delta":463067406},{"NoteNumber":74,"Velocity":48,"Duration":392561,"SoundDuration":392561,"Delta":463067406},{"NoteNumber":56,"Velocity":36,"Duration":392561,"SoundDuration":392561,"Delta":463067406},{"NoteNumber":68,"Velocity":32,"Duration":410415,"SoundDuration":410415,"Delta":463480629},{"NoteNumber":74,"Velocity":38,"Duration":410415,"SoundDuration":410415,"Delta":463480629},{"NoteNumber":53,"Velocity":30,"Duration":410415,"SoundDuration":410415,"Delta":463480629},{"NoteNumber":73,"Velocity":43,"Duration":407608,"SoundDuration":407608,"Delta":463891045},{"NoteNumber":69,"Velocity":36,"Duration":407608,"SoundDuration":407608,"Delta":463891045},{"NoteNumber":47,"Velocity":30,"Duration":407608,"SoundDuration":407608,"Delta":463891045},{"NoteNumber":54,"Velocity":36,"Duration":407608,"SoundDuration":407608,"Delta":463891045},{"NoteNumber":63,"Velocity":33,"Duration":427959,"SoundDuration":427959,"Delta":464298654},{"NoteNumber":72,"Velocity":39,"Duration":427959,"SoundDuration":427959,"Delta":464298654},{"NoteNumber":57,"Velocity":33,"Duration":427959,"SoundDuration":427959,"Delta":464298654},{"NoteNumber":47,"Velocity":28,"Duration":841183,"SoundDuration":841183,"Delta":464298654},{"NoteNumber":71,"Velocity":56,"Duration":413223,"SoundDuration":413223,"Delta":464726614},{"NoteNumber":64,"Velocity":47,"Duration":413223,"SoundDuration":413223,"Delta":464726614},{"NoteNumber":56,"Velocity":49,"Duration":413223,"SoundDuration":413223,"Delta":464726614},{"NoteNumber":61,"Velocity":44,"Duration":404858,"SoundDuration":404858,"Delta":465139837},{"NoteNumber":71,"Velocity":54,"Duration":404858,"SoundDuration":404858,"Delta":465139837},{"NoteNumber":47,"Velocity":39,"Duration":848645,"SoundDuration":848645,"Delta":465139837},{"NoteNumber":52,"Velocity":46,"Duration":404858,"SoundDuration":404858,"Delta":465139837},{"NoteNumber":69,"Velocity":60,"Duration":221893,"SoundDuration":221893,"Delta":465544695},{"NoteNumber":63,"Velocity":50,"Duration":221893,"SoundDuration":221893,"Delta":465544695},{"NoteNumber":54,"Velocity":52,"Duration":221893,"SoundDuration":221893,"Delta":465544695},{"NoteNumber":66,"Velocity":53,"Duration":221893,"SoundDuration":221893,"Delta":465766589},{"NoteNumber":57,"Velocity":50,"Duration":221893,"SoundDuration":221893,"Delta":465766589},{"NoteNumber":64,"Velocity":42,"Duration":212464,"SoundDuration":212464,"Delta":465988482},{"NoteNumber":56,"Velocity":45,"Duration":212464,"SoundDuration":212464,"Delta":465988482},{"NoteNumber":47,"Velocity":37,"Duration":442879,"SoundDuration":442879,"Delta":465988482},{"NoteNumber":66,"Velocity":38,"Duration":230414,"SoundDuration":230414,"Delta":466200947},{"NoteNumber":54,"Velocity":40,"Duration":230414,"SoundDuration":230414,"Delta":466200947},{"NoteNumber":68,"Velocity":45,"Duration":849857,"SoundDuration":849857,"Delta":466431361},{"NoteNumber":64,"Velocity":45,"Duration":212464,"SoundDuration":212464,"Delta":466431361},{"NoteNumber":40,"Velocity":25,"Duration":424929,"SoundDuration":424929,"Delta":466431361},{"NoteNumber":52,"Velocity":30,"Duration":424929,"SoundDuration":424929,"Delta":466431361},{"NoteNumber":59,"Velocity":26,"Duration":212464,"SoundDuration":212464,"Delta":466643826},{"NoteNumber":64,"Velocity":31,"Duration":212464,"SoundDuration":212464,"Delta":466856290},{"NoteNumber":59,"Velocity":26,"Duration":212464,"SoundDuration":212464,"Delta":467068755},{"NoteNumber":68,"Velocity":30,"Duration":209497,"SoundDuration":209497,"Delta":467281219},{"NoteNumber":71,"Velocity":46,"Duration":418994,"SoundDuration":418994,"Delta":467281219},{"NoteNumber":59,"Velocity":27,"Duration":209497,"SoundDuration":209497,"Delta":467490717},{"NoteNumber":66,"Velocity":28,"Duration":213979,"SoundDuration":213979,"Delta":467700214},{"NoteNumber":69,"Velocity":43,"Duration":434244,"SoundDuration":434244,"Delta":467700214},{"NoteNumber":59,"Velocity":27,"Duration":220264,"SoundDuration":220264,"Delta":467914194},{"NoteNumber":64,"Velocity":34,"Duration":217076,"SoundDuration":217076,"Delta":468134458},{"NoteNumber":68,"Velocity":50,"Duration":434153,"SoundDuration":434153,"Delta":468134458},{"NoteNumber":35,"Velocity":25,"Duration":434153,"SoundDuration":434153,"Delta":468134458},{"NoteNumber":47,"Velocity":30,"Duration":434153,"SoundDuration":434153,"Delta":468134458},{"NoteNumber":59,"Velocity":26,"Duration":217076,"SoundDuration":217076,"Delta":468351535},{"NoteNumber":63,"Velocity":27,"Duration":212464,"SoundDuration":212464,"Delta":468568612},{"NoteNumber":66,"Velocity":41,"Duration":371812,"SoundDuration":371812,"Delta":468568612},{"NoteNumber":59,"Velocity":25,"Duration":159348,"SoundDuration":159348,"Delta":468781076},{"NoteNumber":63,"Velocity":27,"Duration":212464,"SoundDuration":212464,"Delta":468993541},{"NoteNumber":66,"Velocity":41,"Duration":424928,"SoundDuration":424928,"Delta":468993541},{"NoteNumber":59,"Velocity":26,"Duration":212464,"SoundDuration":212464,"Delta":469206005},{"NoteNumber":64,"Velocity":28,"Duration":208044,"SoundDuration":208044,"Delta":469418470},{"NoteNumber":68,"Velocity":43,"Duration":416088,"SoundDuration":416088,"Delta":469418470},{"NoteNumber":59,"Velocity":28,"Duration":208044,"SoundDuration":208044,"Delta":469626514},{"NoteNumber":64,"Velocity":30,"Duration":212464,"SoundDuration":212464,"Delta":469834559},{"NoteNumber":69,"Velocity":46,"Duration":424929,"SoundDuration":424929,"Delta":469834559},{"NoteNumber":37,"Velocity":25,"Duration":424929,"SoundDuration":424929,"Delta":469834559},{"NoteNumber":49,"Velocity":30,"Duration":424929,"SoundDuration":424929,"Delta":469834559},{"NoteNumber":59,"Velocity":28,"Duration":212464,"SoundDuration":212464,"Delta":470047023},{"NoteNumber":64,"Velocity":36,"Duration":212464,"SoundDuration":212464,"Delta":470259488},{"NoteNumber":73,"Velocity":54,"Duration":424928,"SoundDuration":424928,"Delta":470259488},{"NoteNumber":59,"Velocity":31,"Duration":212464,"SoundDuration":212464,"Delta":470471952},{"NoteNumber":66,"Velocity":37,"Duration":212464,"SoundDuration":212464,"Delta":470684417},{"NoteNumber":71,"Velocity":47,"Duration":424929,"SoundDuration":424929,"Delta":470684417},{"NoteNumber":51,"Velocity":28,"Duration":424929,"SoundDuration":424929,"Delta":470684417},{"NoteNumber":39,"Velocity":23,"Duration":424929,"SoundDuration":424929,"Delta":470684417},{"NoteNumber":59,"Velocity":26,"Duration":212464,"SoundDuration":212464,"Delta":470896881},{"NoteNumber":63,"Velocity":25,"Duration":217076,"SoundDuration":217076,"Delta":471109346},{"NoteNumber":66,"Velocity":38,"Duration":468754,"SoundDuration":468754,"Delta":471109346},{"NoteNumber":47,"Velocity":26,"Duration":468754,"SoundDuration":468754,"Delta":471109346},{"NoteNumber":35,"Velocity":22,"Duration":468754,"SoundDuration":468754,"Delta":471109346},{"NoteNumber":59,"Velocity":27,"Duration":251677,"SoundDuration":251677,"Delta":471326422},{"NoteNumber":59,"Velocity":30,"Duration":194759,"SoundDuration":194759,"Delta":471578100},{"NoteNumber":68,"Velocity":42,"Duration":849857,"SoundDuration":849857,"Delta":471578100},{"NoteNumber":40,"Velocity":28,"Duration":849857,"SoundDuration":849857,"Delta":471578100},{"NoteNumber":52,"Velocity":28,"Duration":849857,"SoundDuration":849857,"Delta":471578100},{"NoteNumber":59,"Velocity":28,"Duration":212464,"SoundDuration":212464,"Delta":471790565},{"NoteNumber":64,"Velocity":36,"Duration":212464,"SoundDuration":212464,"Delta":472003029},{"NoteNumber":59,"Velocity":31,"Duration":212464,"SoundDuration":212464,"Delta":472215494},{"NoteNumber":64,"Velocity":37,"Duration":212464,"SoundDuration":212464,"Delta":472427958},{"NoteNumber":59,"Velocity":31,"Duration":212464,"SoundDuration":212464,"Delta":472640423},{"NoteNumber":64,"Velocity":28,"Duration":208044,"SoundDuration":208044,"Delta":472852887},{"NoteNumber":68,"Velocity":43,"Duration":416088,"SoundDuration":416088,"Delta":472852887},{"NoteNumber":47,"Velocity":26,"Duration":416088,"SoundDuration":416088,"Delta":472852887},{"NoteNumber":59,"Velocity":28,"Duration":208044,"SoundDuration":208044,"Delta":473060932},{"NoteNumber":64,"Velocity":30,"Duration":212464,"SoundDuration":212464,"Delta":473268976},{"NoteNumber":69,"Velocity":46,"Duration":424929,"SoundDuration":424929,"Delta":473268976},{"NoteNumber":49,"Velocity":30,"Duration":849857,"SoundDuration":849857,"Delta":473268976},{"NoteNumber":59,"Velocity":28,"Duration":212464,"SoundDuration":212464,"Delta":473481441},{"NoteNumber":64,"Velocity":36,"Duration":212464,"SoundDuration":212464,"Delta":473693905},{"NoteNumber":73,"Velocity":54,"Duration":424928,"SoundDuration":424928,"Delta":473693905},{"NoteNumber":59,"Velocity":31,"Duration":212464,"SoundDuration":212464,"Delta":473906370},{"NoteNumber":66,"Velocity":37,"Duration":212464,"SoundDuration":212464,"Delta":474118834},{"NoteNumber":71,"Velocity":47,"Duration":424929,"SoundDuration":424929,"Delta":474118834},{"NoteNumber":51,"Velocity":28,"Duration":424929,"SoundDuration":424929,"Delta":474118834},{"NoteNumber":59,"Velocity":26,"Duration":212464,"SoundDuration":212464,"Delta":474331299},{"NoteNumber":63,"Velocity":25,"Duration":217076,"SoundDuration":217076,"Delta":474543763},{"NoteNumber":66,"Velocity":38,"Duration":468754,"SoundDuration":468754,"Delta":474543763},{"NoteNumber":57,"Velocity":26,"Duration":468754,"SoundDuration":468754,"Delta":474543763},{"NoteNumber":47,"Velocity":22,"Duration":468754,"SoundDuration":468754,"Delta":474543763},{"NoteNumber":59,"Velocity":27,"Duration":251677,"SoundDuration":251677,"Delta":474760840},{"NoteNumber":59,"Velocity":35,"Duration":849857,"SoundDuration":849857,"Delta":475012518},{"NoteNumber":64,"Velocity":35,"Duration":849857,"SoundDuration":849857,"Delta":475012518},{"NoteNumber":68,"Velocity":42,"Duration":849857,"SoundDuration":849857,"Delta":475012518},{"NoteNumber":52,"Velocity":28,"Duration":212464,"SoundDuration":212464,"Delta":475012518},{"NoteNumber":56,"Velocity":33,"Duration":212464,"SoundDuration":212464,"Delta":475012518},{"NoteNumber":47,"Velocity":27,"Duration":212464,"SoundDuration":212464,"Delta":475224982},{"NoteNumber":52,"Velocity":28,"Duration":212464,"SoundDuration":212464,"Delta":475437447},{"NoteNumber":56,"Velocity":33,"Duration":212464,"SoundDuration":212464,"Delta":475437447},{"NoteNumber":47,"Velocity":30,"Duration":212464,"SoundDuration":212464,"Delta":475649911},{"NoteNumber":56,"Velocity":31,"Duration":212464,"SoundDuration":212464,"Delta":475862376},{"NoteNumber":52,"Velocity":26,"Duration":212464,"SoundDuration":212464,"Delta":475862376},{"NoteNumber":47,"Velocity":26,"Duration":212464,"SoundDuration":212464,"Delta":476074840},{"NoteNumber":68,"Velocity":45,"Duration":447093,"SoundDuration":447093,"Delta":476287305},{"NoteNumber":80,"Velocity":45,"Duration":447093,"SoundDuration":447093,"Delta":476287305},{"NoteNumber":56,"Velocity":30,"Duration":223546,"SoundDuration":223546,"Delta":476287305},{"NoteNumber":53,"Velocity":25,"Duration":223546,"SoundDuration":223546,"Delta":476287305},{"NoteNumber":47,"Velocity":26,"Duration":223546,"SoundDuration":223546,"Delta":476510852},{"NoteNumber":69,"Velocity":43,"Duration":468018,"SoundDuration":468018,"Delta":476734399},{"NoteNumber":81,"Velocity":51,"Duration":468018,"SoundDuration":468018,"Delta":476734399},{"NoteNumber":54,"Velocity":28,"Duration":234009,"SoundDuration":234009,"Delta":476734399},{"NoteNumber":57,"Velocity":33,"Duration":234009,"SoundDuration":234009,"Delta":476734399},{"NoteNumber":47,"Velocity":26,"Duration":234009,"SoundDuration":234009,"Delta":476968408},{"NoteNumber":73,"Velocity":44,"Duration":468018,"SoundDuration":468018,"Delta":477202417},{"NoteNumber":85,"Velocity":53,"Duration":468018,"SoundDuration":468018,"Delta":477202417},{"NoteNumber":57,"Velocity":28,"Duration":234009,"SoundDuration":234009,"Delta":477202417},{"NoteNumber":61,"Velocity":33,"Duration":234009,"SoundDuration":234009,"Delta":477202417},{"NoteNumber":47,"Velocity":27,"Duration":234009,"SoundDuration":234009,"Delta":477436426},{"NoteNumber":71,"Velocity":39,"Duration":487816,"SoundDuration":487816,"Delta":477670436},{"NoteNumber":83,"Velocity":47,"Duration":487816,"SoundDuration":487816,"Delta":477670436},{"NoteNumber":59,"Velocity":31,"Duration":234009,"SoundDuration":234009,"Delta":477670436},{"NoteNumber":56,"Velocity":26,"Duration":234009,"SoundDuration":234009,"Delta":477670436},{"NoteNumber":47,"Velocity":26,"Duration":253806,"SoundDuration":253806,"Delta":477904445},{"NoteNumber":87,"Velocity":49,"Duration":553208,"SoundDuration":553208,"Delta":478158252},{"NoteNumber":75,"Velocity":32,"Duration":553208,"SoundDuration":553208,"Delta":478158252},{"NoteNumber":57,"Velocity":29,"Duration":253806,"SoundDuration":253806,"Delta":478158252},{"NoteNumber":54,"Velocity":24,"Duration":253806,"SoundDuration":253806,"Delta":478158252},{"NoteNumber":47,"Velocity":27,"Duration":299401,"SoundDuration":299401,"Delta":478412059},{"NoteNumber":88,"Velocity":57,"Duration":960487,"SoundDuration":960487,"Delta":478711460},{"NoteNumber":76,"Velocity":35,"Duration":960487,"SoundDuration":960487,"Delta":478711460},{"NoteNumber":52,"Velocity":26,"Duration":477395,"SoundDuration":477395,"Delta":478711460},{"NoteNumber":56,"Velocity":31,"Duration":477395,"SoundDuration":477395,"Delta":478711460},{"NoteNumber":42,"Velocity":31,"Duration":483091,"SoundDuration":483091,"Delta":479188855},{"NoteNumber":40,"Velocity":34,"Duration":483091,"SoundDuration":483091,"Delta":479671947},{"NoteNumber":49,"Velocity":37,"Duration":483091,"SoundDuration":483091,"Delta":480155039},{"NoteNumber":47,"Velocity":34,"Duration":1449275,"SoundDuration":1449275,"Delta":480638131},{"NoteNumber":57,"Velocity":40,"Duration":483091,"SoundDuration":483091,"Delta":481121223},{"NoteNumber":56,"Velocity":39,"Duration":483091,"SoundDuration":483091,"Delta":481604315},{"NoteNumber":68,"Velocity":31,"Duration":483091,"SoundDuration":483091,"Delta":482087407},{"NoteNumber":64,"Velocity":45,"Duration":483091,"SoundDuration":483091,"Delta":482087407},{"NoteNumber":49,"Velocity":45,"Duration":241545,"SoundDuration":241545,"Delta":482087407},{"NoteNumber":47,"Velocity":49,"Duration":241546,"SoundDuration":241546,"Delta":482328953},{"NoteNumber":66,"Velocity":31,"Duration":483091,"SoundDuration":483091,"Delta":482570499},{"NoteNumber":64,"Velocity":52,"Duration":483091,"SoundDuration":483091,"Delta":482570499},{"NoteNumber":46,"Velocity":52,"Duration":966183,"SoundDuration":966183,"Delta":482570499},{"NoteNumber":78,"Velocity":42,"Duration":483091,"SoundDuration":483091,"Delta":483053591},{"NoteNumber":76,"Velocity":35,"Duration":483091,"SoundDuration":483091,"Delta":483053591},{"NoteNumber":73,"Velocity":35,"Duration":483091,"SoundDuration":483091,"Delta":483053591},{"NoteNumber":73,"Velocity":38,"Duration":967073,"SoundDuration":967073,"Delta":483536683},{"NoteNumber":76,"Velocity":45,"Duration":483091,"SoundDuration":483091,"Delta":483536683},{"NoteNumber":58,"Velocity":39,"Duration":967073,"SoundDuration":967073,"Delta":483536683},{"NoteNumber":64,"Velocity":39,"Duration":967073,"SoundDuration":967073,"Delta":483536683},{"NoteNumber":66,"Velocity":47,"Duration":967073,"SoundDuration":967073,"Delta":483536683},{"NoteNumber":85,"Velocity":50,"Duration":483981,"SoundDuration":483981,"Delta":484019775},{"NoteNumber":85,"Velocity":45,"Duration":244552,"SoundDuration":244552,"Delta":484503757},{"NoteNumber":59,"Velocity":22,"Duration":486637,"SoundDuration":486637,"Delta":484503757},{"NoteNumber":64,"Velocity":22,"Duration":486637,"SoundDuration":486637,"Delta":484503757},{"NoteNumber":68,"Velocity":27,"Duration":486637,"SoundDuration":486637,"Delta":484503757},{"NoteNumber":83,"Velocity":37,"Duration":242085,"SoundDuration":242085,"Delta":484748309},{"NoteNumber":80,"Velocity":38,"Duration":238762,"SoundDuration":238762,"Delta":484990394},{"NoteNumber":76,"Velocity":38,"Duration":236362,"SoundDuration":236362,"Delta":485229157},{"NoteNumber":75,"Velocity":39,"Duration":233195,"SoundDuration":233195,"Delta":485465520},{"NoteNumber":66,"Velocity":27,"Duration":464100,"SoundDuration":464100,"Delta":485465520},{"NoteNumber":59,"Velocity":23,"Duration":464100,"SoundDuration":464100,"Delta":485465520},{"NoteNumber":73,"Velocity":39,"Duration":230905,"SoundDuration":230905,"Delta":485698715},{"NoteNumber":71,"Velocity":39,"Duration":227880,"SoundDuration":227880,"Delta":485929621},{"NoteNumber":69,"Velocity":40,"Duration":224216,"SoundDuration":224216,"Delta":486157502},{"NoteNumber":68,"Velocity":43,"Duration":217952,"SoundDuration":217952,"Delta":486381718},{"NoteNumber":64,"Velocity":29,"Duration":433469,"SoundDuration":433469,"Delta":486381718},{"NoteNumber":61,"Velocity":24,"Duration":433469,"SoundDuration":433469,"Delta":486381718},{"NoteNumber":66,"Velocity":40,"Duration":215517,"SoundDuration":215517,"Delta":486599670},{"NoteNumber":64,"Velocity":36,"Duration":161292,"SoundDuration":161292,"Delta":486815187},{"NoteNumber":76,"Velocity":49,"Duration":213980,"SoundDuration":213980,"Delta":487029974},{"NoteNumber":75,"Velocity":46,"Duration":212502,"SoundDuration":212502,"Delta":487243954},{"NoteNumber":61,"Velocity":30,"Duration":424257,"SoundDuration":424257,"Delta":487243954},{"NoteNumber":57,"Velocity":25,"Duration":424257,"SoundDuration":424257,"Delta":487243954},{"NoteNumber":73,"Velocity":45,"Duration":159012,"SoundDuration":159012,"Delta":487456457},{"NoteNumber":85,"Velocity":55,"Duration":210970,"SoundDuration":210970,"Delta":487668212},{"NoteNumber":83,"Velocity":52,"Duration":207441,"SoundDuration":207441,"Delta":487879182},{"NoteNumber":81,"Velocity":50,"Duration":201210,"SoundDuration":201210,"Delta":488086624},{"NoteNumber":54,"Velocity":26,"Duration":401312,"SoundDuration":401312,"Delta":488086624},{"NoteNumber":57,"Velocity":31,"Duration":401312,"SoundDuration":401312,"Delta":488086624},{"NoteNumber":80,"Velocity":49,"Duration":150168,"SoundDuration":150168,"Delta":488287835},{"NoteNumber":93,"Velocity":59,"Duration":199106,"SoundDuration":199106,"Delta":488487937},{"NoteNumber":92,"Velocity":56,"Duration":148516,"SoundDuration":148516,"Delta":488687043},{"NoteNumber":92,"Velocity":57,"Duration":196819,"SoundDuration":196819,"Delta":488884837},{"NoteNumber":51,"Velocity":26,"Duration":392642,"SoundDuration":392642,"Delta":488884837},{"NoteNumber":54,"Velocity":32,"Duration":392642,"SoundDuration":392642,"Delta":488884837},{"NoteNumber":90,"Velocity":55,"Duration":195822,"SoundDuration":195822,"Delta":489081656},{"NoteNumber":93,"Velocity":58,"Duration":194584,"SoundDuration":194584,"Delta":489277479},{"NoteNumber":90,"Velocity":56,"Duration":195477,"SoundDuration":195477,"Delta":489472063},{"NoteNumber":88,"Velocity":55,"Duration":196176,"SoundDuration":196176,"Delta":489667541},{"NoteNumber":63,"Velocity":33,"Duration":408640,"SoundDuration":408640,"Delta":489667541},{"NoteNumber":59,"Velocity":27,"Duration":408640,"SoundDuration":408640,"Delta":489667541},{"NoteNumber":87,"Velocity":56,"Duration":212464,"SoundDuration":212464,"Delta":489863717},{"NoteNumber":90,"Velocity":63,"Duration":212464,"SoundDuration":212464,"Delta":490076181},{"NoteNumber":81,"Velocity":54,"Duration":159348,"SoundDuration":159348,"Delta":490288646},{"NoteNumber":81,"Velocity":50,"Duration":213974,"SoundDuration":213974,"Delta":490501110},{"NoteNumber":64,"Velocity":30,"Duration":424944,"SoundDuration":424944,"Delta":490501110},{"NoteNumber":61,"Velocity":25,"Duration":424944,"SoundDuration":424944,"Delta":490501110},{"NoteNumber":80,"Velocity":47,"Duration":210970,"SoundDuration":210970,"Delta":490715085},{"NoteNumber":88,"Velocity":50,"Duration":210970,"SoundDuration":210970,"Delta":490926055},{"NoteNumber":64,"Velocity":30,"Duration":483202,"SoundDuration":483202,"Delta":490926055},{"NoteNumber":61,"Velocity":25,"Duration":483202,"SoundDuration":483202,"Delta":490926055},{"NoteNumber":80,"Velocity":46,"Duration":272232,"SoundDuration":272232,"Delta":491137026},{"NoteNumber":78,"Velocity":40,"Duration":228658,"SoundDuration":228658,"Delta":491409258},{"NoteNumber":57,"Velocity":28,"Duration":457316,"SoundDuration":457316,"Delta":491409258},{"NoteNumber":85,"Velocity":37,"Duration":228658,"SoundDuration":228658,"Delta":491637917},{"NoteNumber":83,"Velocity":40,"Duration":247524,"SoundDuration":247524,"Delta":491866575},{"NoteNumber":59,"Velocity":24,"Duration":543967,"SoundDuration":543967,"Delta":491866575},{"NoteNumber":75,"Velocity":36,"Duration":296442,"SoundDuration":296442,"Delta":492114100},{"NoteNumber":76,"Velocity":40,"Duration":549450,"SoundDuration":549450,"Delta":492410543},{"NoteNumber":52,"Velocity":27,"Duration":549450,"SoundDuration":549450,"Delta":492410543}],"license":{"name":"Creative Commons Attribution-ShareAlike 3.0 Germany","url":"http://creativecommons.org/licenses/by-sa/3.0/de/deed.en","text":"The MIDI, audio (MP3, OGG) and video files of Bernd Krueger are licensed under the cc-by-sa Germany License. This means that you can use and adapt the files, as long as you attribute the copyright holder.\n\nName: Bernd Krueger\nSource: http://www.piano-midi.de\n\nThe distribution or public playback of the files is only allowed under identical license conditions.\n\nThe scores are open source.","attribution":"MIDI files by Bernd Krueger (piano-midi.de)"}}