{
  "title": "Piano",
  "artist": "I knew you were trouble",
  "durationMs": 256579.5511125,
  "midiSha256": "1500c0d6c102aa587a129bff0763af0909bc19877f59cacc6c3202229db4e0e0",
  "midiObject": [
    {
      "NoteNumber": 67,
      "Velocity": 80,
      "Duration": 592306,
      "SoundDuration": 592306,
      "Delta": 0
    },
    {
      "NoteNumber": 71,
      "Velocity": 80,
      "Duration": 592306,
      "SoundDuration": 592306,
      "Delta": 0
    },
    {
      "NoteNumber": 43,
      "Velocity": 80,
      "Duration": 7384607,
      "SoundDuration": 7384607,
      "Delta": 0
    },
    {
      "NoteNumber": 62,
      "Velocity": 80,
      "Duration": 4515379,
      "SoundDuration": 4515379,
      "Delta": 0
    },
    {
      "NoteNumber": 55,
      "Velocity": 80,
      "Duration": 437499,
      "SoundDuration": 437499,
      "Delta": 0
    },
    {
      "NoteNumber": 67,
      "Velocity": 80,
      "Duration": 218269,
      "SoundDuration": 218269,
      "Delta": 692306
    },
    {
      "NoteNumber": 71,
      "Velocity": 80,
      "Duration": 218269,
      "SoundDuration": 218269,
      "Delta": 692306
    },
    {
      "NoteNumber": 67,
      "Velocity": 80,
      "Duration": 411538,
      "SoundDuration": 411538,
      "Delta": 1384613
    },
    {
      "NoteNumber": 71,
      "Velocity": 80,
      "Duration": 411538,
      "SoundDuration": 411538,
      "Delta": 1384613
    },
    {
      "NoteNumber": 67,
      "Velocity": 80,
      "Duration": 437499,
      "SoundDuration": 437499,
      "Delta": 1846151
    },
    {
      "NoteNumber": 71,
      "Velocity": 80,
      "Duration": 437499,
      "SoundDuration": 437499,
      "Delta": 1846151
    },
    {
      "NoteNumber": 55,
      "Velocity": 80,
      "Duration": 437499,
      "SoundDuration": 437499,
      "Delta": 1846151
    },
    {
      "NoteNumber": 67,
      "Velocity": 80,
      "Duration": 218269,
      "SoundDuration": 218269,
      "Delta": 2538458
    },
    {
      "NoteNumber": 71,
      "Velocity": 80,
      "Duration": 218269,
      "SoundDuration": 218269,
      "Delta": 2538458
    },
    {
      "NoteNumber": 67,
      "Velocity": 80,
      "Duration": 437499,
      "SoundDuration": 437499,
      "Delta": 3230765
    },
    {
      "NoteNumber": 71,
      "Velocity": 80,
      "Duration": 411538,
      "SoundDuration": 411538,
      "Delta": 3230765
    },
    {
      "NoteNumber": 71,
      "Velocity": 80,
      "Duration": 218269,
      "SoundDuration": 218269,
      "Delta": 3692303
    },
    {
      "NoteNumber": 55,
      "Velocity": 80,
      "Duration": 437499,
      "SoundDuration": 437499,
      "Delta": 3692303
    },
    {
      "NoteNumber": 69,
      "Velocity": 80,
      "Duration": 218269,
      "SoundDuration": 218269,
      "Delta": 3923072
    },
    {
      "NoteNumber": 67,
      "Velocity": 80,
      "Duration": 218269,
      "SoundDuration": 218269,
      "Delta": 4153841
    },
    {
      "NoteNumber": 66,
      "Velocity": 80,
      "Duration": 218269,
      "SoundDuration": 218269,
      "Delta": 4384611
    },
    {
      "NoteNumber": 62,
      "Velocity": 80,
      "Duration": 437499,
      "SoundDuration": 437499,
      "Delta": 4615379
    },
    {
      "NoteNumber": 55,
      "Velocity": 80,
      "Duration": 411538,
      "SoundDuration": 411538,
      "Delta": 5076917
    },
    {
      "NoteNumber": 62,
      "Velocity": 80,
      "Duration": 218269,
      "SoundDuration": 218269,
      "Delta": 5307687
    },
    {
      "NoteNumber": 71,
      "Velocity": 80,
      "Duration": 218269,
      "SoundDuration": 218269,
      "Delta": 5538455
    },
    {
      "NoteNumber": 55,
      "Velocity": 80,
      "Duration": 437499,
      "SoundDuration": 437499,
      "Delta": 5538455
    },
    {
      "NoteNumber": 69,
      "Velocity": 80,
      "Duration": 218269,
      "SoundDuration": 218269,
      "Delta": 5769225
    },
    {
      "NoteNumber": 67,
      "Velocity": 80,
      "Duration": 218269,
      "SoundDuration": 218269,
      "Delta": 5999993
    },
    {
      "NoteNumber": 66,
      "Velocity": 80,
      "Duration": 218269,
      "SoundDuration": 218269,
      "Delta": 6230763
    },
    {
      "NoteNumber": 62,
      "Velocity": 80,
      "Duration": 437499,
      "SoundDuration": 437499,
      "Delta": 6461531
    },
    {
      "NoteNumber": 55,
      "Velocity": 80,
      "Duration": 437499,
      "SoundDuration": 437499,
      "Delta": 6923069
    },
    {
      "NoteNumber": 71,
      "Velocity": 80,
      "Duration": 218269,
      "SoundDuration": 218269,
      "Delta": 7384607
    },
    {
      "NoteNumber": 62,
      "Velocity": 80,
      "Duration": 823076,
      "SoundDuration": 823076,
      "Delta": 7384607
    },
    {
      "NoteNumber": 69,
      "Velocity": 80,
      "Duration": 130769,
      "SoundDuration": 130769,
      "Delta": 7384607
    },
    {
      "NoteNumber": 66,
      "Velocity": 80,
      "Duration": 592308,
      "SoundDuration": 592308,
      "Delta": 7384607
    },
    {
      "NoteNumber": 38,
      "Velocity": 80,
      "Duration": 3692303,
      "SoundDuration": 3692303,
      "Delta": 7384607
    },
    {
      "NoteNumber": 50,
      "Velocity": 80,
      "Duration": 437499,
      "SoundDuration": 437499,
      "Delta": 7384607
    },
    {
      "NoteNumber": 54,
      "Velocity": 80,
      "Duration": 437499,
      "SoundDuration": 437499,
      "Delta": 7384607
    },
    {
      "NoteNumber": 69,
      "Velocity": 80,
      "Duration": 218269,
      "SoundDuration": 218269,
      "Delta": 7615376
    },
    {
      "NoteNumber": 67,
      "Velocity": 80,
      "Duration": 218269,
      "SoundDuration": 218269,
      "Delta": 7846145
    },
    {
      "NoteNumber": 66,
      "Velocity": 80,
      "Duration": 218269,
      "SoundDuration": 218269,
      "Delta": 8076915
    },
    {
      "NoteNumber": 62,
      "Velocity": 80,
      "Duration": 437499,
      "SoundDuration": 437499,
      "Delta": 8307683
    },
    {
      "NoteNumber": 50,
      "Velocity": 80,
      "Duration": 411537,
      "SoundDuration": 411537,
      "Delta": 8769222
    },
    {
      "NoteNumber": 54,
      "Velocity": 80,
      "Duration": 411537,
      "SoundDuration": 411537,
      "Delta": 8769222
    },
    {
      "NoteNumber": 62,
      "Velocity": 80,
      "Duration": 218269,
      "SoundDuration": 218269,
      "Delta": 8999991
    },
    {
      "NoteNumber": 71,
      "Velocity": 80,
      "Duration": 218269,
      "SoundDuration": 218269,
      "Delta": 9230759
    },
    {
      "NoteNumber": 50,
      "Velocity": 80,
      "Duration": 437499,
      "SoundDuration": 437499,
      "Delta": 9230759
    },
    {
      "NoteNumber": 54,
      "Velocity": 80,
      "Duration": 437499,
      "SoundDuration": 437499,
      "Delta": 9230759
    },
    {
      "NoteNumber": 69,
      "Velocity": 80,
      "Duration": 218269,
      "SoundDuration": 218269,
      "Delta": 9461528
    },
    {
      "NoteNumber": 67,
      "Velocity": 80,
      "Duration": 218269,
      "SoundDuration": 218269,
      "Delta": 9692298
    },
    {
      "NoteNumber": 66,
      "Velocity": 80,
      "Duration": 218269,
      "SoundDuration": 218269,
      "Delta": 9923067
    },
    {
      "NoteNumber": 62,
      "Velocity": 80,
      "Duration": 437499,
      "SoundDuration": 437499,
      "Delta": 10153835
    },
    {
      "NoteNumber": 50,
      "Velocity": 80,
      "Duration": 437499,
      "SoundDuration": 437499,
      "Delta": 10615374
    },
    {
      "NoteNumber": 54,
      "Velocity": 80,
      "Duration": 437499,
      "SoundDuration": 437499,
      "Delta": 10615374
    },
    {
      "NoteNumber": 62,
      "Velocity": 80,
      "Duration": 218269,
      "SoundDuration": 218269,
      "Delta": 10846143
    },
    {
      "NoteNumber": 67,
      "Velocity": 80,
      "Duration": 361539,
      "SoundDuration": 361539,
      "Delta": 11076911
    },
    {
      "NoteNumber": 71,
      "Velocity": 80,
      "Duration": 1746152,
      "SoundDuration": 1746152,
      "Delta": 11076911
    },
    {
      "NoteNumber": 55,
      "Velocity": 80,
      "Duration": 437499,
      "SoundDuration": 437499,
      "Delta": 11076911
    },
    {
      "NoteNumber": 40,
      "Velocity": 80,
      "Duration": 3692304,
      "SoundDuration": 3692304,
      "Delta": 11076911
    },
    {
      "NoteNumber": 64,
      "Velocity": 80,
      "Duration": 3642304,
      "SoundDuration": 3642304,
      "Delta": 11076911
    },
    {
      "NoteNumber": 52,
      "Velocity": 80,
      "Duration": 437499,
      "SoundDuration": 437499,
      "Delta": 11076911
    },
    {
      "NoteNumber": 69,
      "Velocity": 80,
      "Duration": 229807,
      "SoundDuration": 229807,
      "Delta": 11307680
    },
    {
      "NoteNumber": 67,
      "Velocity": 80,
      "Duration": 229807,
      "SoundDuration": 229807,
      "Delta": 11538450
    },
    {
      "NoteNumber": 66,
      "Velocity": 80,
      "Duration": 218269,
      "SoundDuration": 218269,
      "Delta": 11769218
    },
    {
      "NoteNumber": 67,
      "Velocity": 80,
      "Duration": 437499,
      "SoundDuration": 437499,
      "Delta": 11999987
    },
    {
      "NoteNumber": 55,
      "Velocity": 80,
      "Duration": 411537,
      "SoundDuration": 411537,
      "Delta": 12461526
    },
    {
      "NoteNumber": 52,
      "Velocity": 80,
      "Duration": 411537,
      "SoundDuration": 411537,
      "Delta": 12461526
    },
    {
      "NoteNumber": 67,
      "Velocity": 80,
      "Duration": 218269,
      "SoundDuration": 218269,
      "Delta": 12692294
    },
    {
      "NoteNumber": 71,
      "Velocity": 80,
      "Duration": 229807,
      "SoundDuration": 229807,
      "Delta": 12923063
    },
    {
      "NoteNumber": 55,
      "Velocity": 80,
      "Duration": 437499,
      "SoundDuration": 437499,
      "Delta": 12923063
    },
    {
      "NoteNumber": 52,
      "Velocity": 80,
      "Duration": 437499,
      "SoundDuration": 437499,
      "Delta": 12923063
    },
    {
      "NoteNumber": 69,
      "Velocity": 80,
      "Duration": 229807,
      "SoundDuration": 229807,
      "Delta": 13153832
    },
    {
      "NoteNumber": 67,
      "Velocity": 80,
      "Duration": 229807,
      "SoundDuration": 229807,
      "Delta": 13384602
    },
    {
      "NoteNumber": 66,
      "Velocity": 80,
      "Duration": 218269,
      "SoundDuration": 218269,
      "Delta": 13615370
    },
    {
      "NoteNumber": 67,
      "Velocity": 80,
      "Duration": 437499,
      "SoundDuration": 437499,
      "Delta": 13846139
    },
    {
      "NoteNumber": 55,
      "Velocity": 80,
      "Duration": 437499,
      "SoundDuration": 437499,
      "Delta": 14307678
    },
    {
      "NoteNumber": 52,
      "Velocity": 80,
      "Duration": 437499,
      "SoundDuration": 437499,
      "Delta": 14307678
    },
    {
      "NoteNumber": 67,
      "Velocity": 80,
      "Duration": 180769,
      "SoundDuration": 180769,
      "Delta": 14538446
    },
    {
      "NoteNumber": 67,
      "Velocity": 80,
      "Duration": 361538,
      "SoundDuration": 361538,
      "Delta": 14769215
    },
    {
      "NoteNumber": 71,
      "Velocity": 80,
      "Duration": 229807,
      "SoundDuration": 229807,
      "Delta": 14769215
    },
    {
      "NoteNumber": 64,
      "Velocity": 80,
      "Duration": 1284615,
      "SoundDuration": 1284615,
      "Delta": 14769215
    },
    {
      "NoteNumber": 36,
      "Velocity": 80,
      "Duration": 3692303,
      "SoundDuration": 3692303,
      "Delta": 14769215
    },
    {
      "NoteNumber": 60,
      "Velocity": 80,
      "Duration": 3692303,
      "SoundDuration": 3692303,
      "Delta": 14769215
    },
    {
      "NoteNumber": 48,
      "Velocity": 80,
      "Duration": 437499,
      "SoundDuration": 437499,
      "Delta": 14769215
    },
    {
      "NoteNumber": 69,
      "Velocity": 80,
      "Duration": 229807,
      "SoundDuration": 229807,
      "Delta": 14999984
    },
    {
      "NoteNumber": 67,
      "Velocity": 80,
      "Duration": 229807,
      "SoundDuration": 229807,
      "Delta": 15230753
    },
    {
      "NoteNumber": 66,
      "Velocity": 80,
      "Duration": 218269,
      "SoundDuration": 218269,
      "Delta": 15461522
    },
    {
      "NoteNumber": 67,
      "Velocity": 80,
      "Duration": 411539,
      "SoundDuration": 411539,
      "Delta": 15692291
    },
    {
      "NoteNumber": 67,
      "Velocity": 80,
      "Duration": 411537,
      "SoundDuration": 411537,
      "Delta": 16153830
    },
    {
      "NoteNumber": 64,
      "Velocity": 80,
      "Duration": 411537,
      "SoundDuration": 411537,
      "Delta": 16153830
    },
    {
      "NoteNumber": 48,
      "Velocity": 80,
      "Duration": 411537,
      "SoundDuration": 411537,
      "Delta": 16153830
    },
    {
      "NoteNumber": 67,
      "Velocity": 80,
      "Duration": 411538,
      "SoundDuration": 411538,
      "Delta": 16615367
    },
    {
      "NoteNumber": 64,
      "Velocity": 80,
      "Duration": 411538,
      "SoundDuration": 411538,
      "Delta": 16615367
    },
    {
      "NoteNumber": 48,
      "Velocity": 80,
      "Duration": 437499,
      "SoundDuration": 437499,
      "Delta": 16615367
    },
    {
      "NoteNumber": 67,
      "Velocity": 80,
      "Duration": 411539,
      "SoundDuration": 411539,
      "Delta": 17076905
    },
    {
      "NoteNumber": 64,
      "Velocity": 80,
      "Duration": 411539,
      "SoundDuration": 411539,
      "Delta": 17076905
    },
    {
      "NoteNumber": 67,
      "Velocity": 80,
      "Duration": 437499,
      "SoundDuration": 437499,
      "Delta": 17538444
    },
    {
      "NoteNumber": 64,
      "Velocity": 80,
      "Duration": 437499,
      "SoundDuration": 437499,
      "Delta": 17538444
    },
    {
      "NoteNumber": 48,
      "Velocity": 80,
      "Duration": 437499,
      "SoundDuration": 437499,
      "Delta": 17999982
    },
    {
      "NoteNumber": 67,
      "Velocity": 80,
      "Duration": 180769,
      "SoundDuration": 180769,
      "Delta": 18230750
    },
    {
      "NoteNumber": 67,
      "Velocity": 80,
      "Duration": 361538,
      "SoundDuration": 361538,
      "Delta": 18461519
    },
    {
      "NoteNumber": 71,
      "Velocity": 80,
      "Duration": 1746152,
      "SoundDuration": 1746152,
      "Delta": 18461519
    },
    {
      "NoteNumber": 43,
      "Velocity": 80,
      "Duration": 3692304,
      "SoundDuration": 3692304,
      "Delta": 18461519
    },
    {
      "NoteNumber": 62,
      "Velocity": 80,
      "Duration": 823077,
      "SoundDuration": 823077,
      "Delta": 18461519
    },
    {
      "NoteNumber": 55,
      "Velocity": 80,
      "Duration": 437499,
      "SoundDuration": 437499,
      "Delta": 18461519
    },
    {
      "NoteNumber": 69,
      "Velocity": 80,
      "Duration": 218269,
      "SoundDuration": 218269,
      "Delta": 18692289
    },
    {
      "NoteNumber": 67,
      "Velocity": 80,
      "Duration": 218269,
      "SoundDuration": 218269,
      "Delta": 18923057
    },
    {
      "NoteNumber": 66,
      "Velocity": 80,
      "Duration": 218269,
      "SoundDuration": 218269,
      "Delta": 19153826
    },
    {
      "NoteNumber": 62,
      "Velocity": 80,
      "Duration": 411538,
      "SoundDuration": 411538,
      "Delta": 19384596
    },
    {
      "NoteNumber": 62,
      "Velocity": 80,
      "Duration": 180768,
      "SoundDuration": 180768,
      "Delta": 19846134
    },
    {
      "NoteNumber": 55,
      "Velocity": 80,
      "Duration": 411537,
      "SoundDuration": 411537,
      "Delta": 19846134
    },
    {
      "NoteNumber": 62,
      "Velocity": 80,
      "Duration": 218269,
      "SoundDuration": 218269,
      "Delta": 20076902
    },
    {
      "NoteNumber": 71,
      "Velocity": 80,
      "Duration": 218269,
      "SoundDuration": 218269,
      "Delta": 20307671
    },
    {
      "NoteNumber": 55,
      "Velocity": 80,
      "Duration": 437499,
      "SoundDuration": 437499,
      "Delta": 20307671
    },
    {
      "NoteNumber": 69,
      "Velocity": 80,
      "Duration": 218269,
      "SoundDuration": 218269,
      "Delta": 20538441
    },
    {
      "NoteNumber": 67,
      "Velocity": 80,
      "Duration": 437499,
      "SoundDuration": 437499,
      "Delta": 20769209
    },
    {
      "NoteNumber": 62,
      "Velocity": 80,
      "Duration": 437499,
      "SoundDuration": 437499,
      "Delta": 21230748
    },
    {
      "NoteNumber": 55,
      "Velocity": 80,
      "Duration": 437499,
      "SoundDuration": 437499,
      "Delta": 21692286
    },
    {
      "NoteNumber": 62,
      "Velocity": 80,
      "Duration": 180769,
      "SoundDuration": 180769,
      "Delta": 21923054
    },
    {
      "NoteNumber": 71,
      "Velocity": 80,
      "Duration": 218269,
      "SoundDuration": 218269,
      "Delta": 22153823
    },
    {
      "NoteNumber": 62,
      "Velocity": 80,
      "Duration": 823077,
      "SoundDuration": 823077,
      "Delta": 22153823
    },
    {
      "NoteNumber": 69,
      "Velocity": 80,
      "Duration": 130770,
      "SoundDuration": 130770,
      "Delta": 22153823
    },
    {
      "NoteNumber": 66,
      "Velocity": 80,
      "Duration": 3692304,
      "SoundDuration": 3692304,
      "Delta": 22153823
    },
    {
      "NoteNumber": 38,
      "Velocity": 80,
      "Duration": 3692304,
      "SoundDuration": 3692304,
      "Delta": 22153823
    },
    {
      "NoteNumber": 50,
      "Velocity": 80,
      "Duration": 437499,
      "SoundDuration": 437499,
      "Delta": 22153823
    },
    {
      "NoteNumber": 54,
      "Velocity": 80,
      "Duration": 437499,
      "SoundDuration": 437499,
      "Delta": 22153823
    },
    {
      "NoteNumber": 69,
      "Velocity": 80,
      "Duration": 218269,
      "SoundDuration": 218269,
      "Delta": 22384593
    },
    {
      "NoteNumber": 67,
      "Velocity": 80,
      "Duration": 437499,
      "SoundDuration": 437499,
      "Delta": 22615361
    },
    {
      "NoteNumber": 62,
      "Velocity": 80,
      "Duration": 437499,
      "SoundDuration": 437499,
      "Delta": 23076900
    },
    {
      "NoteNumber": 50,
      "Velocity": 80,
      "Duration": 411538,
      "SoundDuration": 411538,
      "Delta": 23538437
    },
    {
      "NoteNumber": 54,
      "Velocity": 80,
      "Duration": 411538,
      "SoundDuration": 411538,
      "Delta": 23538437
    },
    {
      "NoteNumber": 62,
      "Velocity": 80,
      "Duration": 218269,
      "SoundDuration": 218269,
      "Delta": 23769206
    },
    {
      "NoteNumber": 71,
      "Velocity": 80,
      "Duration": 218269,
      "SoundDuration": 218269,
      "Delta": 23999975
    },
    {
      "NoteNumber": 50,
      "Velocity": 80,
      "Duration": 437499,
      "SoundDuration": 437499,
      "Delta": 23999975
    },
    {
      "NoteNumber": 54,
      "Velocity": 80,
      "Duration": 437499,
      "SoundDuration": 437499,
      "Delta": 23999975
    },
    {
      "NoteNumber": 69,
      "Velocity": 80,
      "Duration": 218269,
      "SoundDuration": 218269,
      "Delta": 24230745
    },
    {
      "NoteNumber": 67,
      "Velocity": 80,
      "Duration": 437499,
      "SoundDuration": 437499,
      "Delta": 24461513
    },
    {
      "NoteNumber": 62,
      "Velocity": 80,
      "Duration": 437499,
      "SoundDuration": 437499,
      "Delta": 24923052
    },
    {
      "NoteNumber": 50,
      "Velocity": 80,
      "Duration": 437499,
      "SoundDuration": 437499,
      "Delta": 25384589
    },
    {
      "NoteNumber": 54,
      "Velocity": 80,
      "Duration": 437499,
      "SoundDuration": 437499,
      "Delta": 25384589
    },
    {
      "NoteNumber": 62,
      "Velocity": 80,
      "Duration": 218269,
      "SoundDuration": 218269,
      "Delta": 25615358
    },
    {
      "NoteNumber": 67,
      "Velocity": 80,
      "Duration": 361538,
      "SoundDuration": 361538,
      "Delta": 25846127
    },
    {
      "NoteNumber": 71,
      "Velocity": 80,
      "Duration": 1746152,
      "SoundDuration": 1746152,
      "Delta": 25846127
    },
    {
      "NoteNumber": 55,
      "Velocity": 80,
      "Duration": 437499,
      "SoundDuration": 437499,
      "Delta": 25846127
    },
    {
      "NoteNumber": 40,
      "Velocity": 80,
      "Duration": 3692304,
      "SoundDuration": 3692304,
      "Delta": 25846127
    },
    {
      "NoteNumber": 64,
      "Velocity": 80,
      "Duration": 3642304,
      "SoundDuration": 3642304,
      "Delta": 25846127
    },
    {
      "NoteNumber": 52,
      "Velocity": 80,
      "Duration": 437499,
      "SoundDuration": 437499,
      "Delta": 25846127
    },
    {
      "NoteNumber": 69,
      "Velocity": 80,
      "Duration": 229807,
      "SoundDuration": 229807,
      "Delta": 26076896
    },
    {
      "NoteNumber": 67,
      "Velocity": 80,
      "Duration": 229807,
      "SoundDuration": 229807,
      "Delta": 26307665
    },
    {
      "NoteNumber": 66,
      "Velocity": 80,
      "Duration": 218269,
      "SoundDuration": 218269,
      "Delta": 26538434
    },
    {
      "NoteNumber": 67,
      "Velocity": 80,
      "Duration": 437499,
      "SoundDuration": 437499,
      "Delta": 26769204
    },
    {
      "NoteNumber": 55,
      "Velocity": 80,
      "Duration": 411538,
      "SoundDuration": 411538,
      "Delta": 27230741
    },
    {
      "NoteNumber": 52,
      "Velocity": 80,
      "Duration": 411538,
      "SoundDuration": 411538,
      "Delta": 27230741
    },
    {
      "NoteNumber": 67,
      "Velocity": 80,
      "Duration": 218269,
      "SoundDuration": 218269,
      "Delta": 27461510
    },
    {
      "NoteNumber": 71,
      "Velocity": 80,
      "Duration": 229807,
      "SoundDuration": 229807,
      "Delta": 27692279
    },
    {
      "NoteNumber": 55,
      "Velocity": 80,
      "Duration": 437499,
      "SoundDuration": 437499,
      "Delta": 27692279
    },
    {
      "NoteNumber": 52,
      "Velocity": 80,
      "Duration": 437499,
      "SoundDuration": 437499,
      "Delta": 27692279
    },
    {
      "NoteNumber": 69,
      "Velocity": 80,
      "Duration": 229807,
      "SoundDuration": 229807,
      "Delta": 27923048
    },
    {
      "NoteNumber": 67,
      "Velocity": 80,
      "Duration": 229807,
      "SoundDuration": 229807,
      "Delta": 28153817
    },
    {
      "NoteNumber": 66,
      "Velocity": 80,
      "Duration": 218269,
      "SoundDuration": 218269,
      "Delta": 28384586
    },
    {
      "NoteNumber": 67,
      "Velocity": 80,
      "Duration": 437499,
      "SoundDuration": 437499,
      "Delta": 28615356
    },
    {
      "NoteNumber": 55,
      "Velocity": 80,
      "Duration": 437499,
      "SoundDuration": 437499,
      "Delta": 29076893
    },
    {
      "NoteNumber": 52,
      "Velocity": 80,
      "Duration": 437499,
      "SoundDuration": 437499,
      "Delta": 29076893
    },
    {
      "NoteNumber": 67,
      "Velocity": 80,
      "Duration": 180769,
      "SoundDuration": 180769,
      "Delta": 29307662
    },
    {
      "NoteNumber": 67,
      "Velocity": 80,
      "Duration": 361538,
      "SoundDuration": 361538,
      "Delta": 29538431
    },
    {
      "NoteNumber": 71,
      "Velocity": 80,
      "Duration": 229807,
      "SoundDuration": 229807,
      "Delta": 29538431
    },
    {
      "NoteNumber": 64,
      "Velocity": 80,
      "Duration": 1284614,
      "SoundDuration": 1284614,
      "Delta": 29538431
    },
    {
      "NoteNumber": 36,
      "Velocity": 80,
      "Duration": 3692303,
      "SoundDuration": 3692303,
      "Delta": 29538431
    },
    {
      "NoteNumber": 60,
      "Velocity": 80,
      "Duration": 3692303,
      "SoundDuration": 3692303,
      "Delta": 29538431
    },
    {
      "NoteNumber": 48,
      "Velocity": 80,
      "Duration": 437499,
      "SoundDuration": 437499,
      "Delta": 29538431
    },
    {
      "NoteNumber": 69,
      "Velocity": 80,
      "Duration": 229807,
      "SoundDuration": 229807,
      "Delta": 29769200
    },
    {
      "NoteNumber": 67,
      "Velocity": 80,
      "Duration": 229807,
      "SoundDuration": 229807,
      "Delta": 29999969
    },
    {
      "NoteNumber": 66,
      "Velocity": 80,
      "Duration": 218269,
      "SoundDuration": 218269,
      "Delta": 30230738
    },
    {
      "NoteNumber": 67,
      "Velocity": 80,
      "Duration": 411538,
      "SoundDuration": 411538,
      "Delta": 30461507
    },
    {
      "NoteNumber": 67,
      "Velocity": 80,
      "Duration": 411538,
      "SoundDuration": 411538,
      "Delta": 30923045
    },
    {
      "NoteNumber": 64,
      "Velocity": 80,
      "Duration": 411538,
      "SoundDuration": 411538,
      "Delta": 30923045
    },
    {
      "NoteNumber": 48,
      "Velocity": 80,
      "Duration": 411538,
      "SoundDuration": 411538,
      "Delta": 30923045
    },
    {
      "NoteNumber": 67,
      "Velocity": 80,
      "Duration": 411538,
      "SoundDuration": 411538,
      "Delta": 31384583
    },
    {
      "NoteNumber": 64,
      "Velocity": 80,
      "Duration": 411538,
      "SoundDuration": 411538,
      "Delta": 31384583
    },
    {
      "NoteNumber": 48,
      "Velocity": 80,
      "Duration": 437499,
      "SoundDuration": 437499,
      "Delta": 31384583
    },
    {
      "NoteNumber": 67,
      "Velocity": 80,
      "Duration": 411539,
      "SoundDuration": 411539,
      "Delta": 31846121
    },
    {
      "NoteNumber": 64,
      "Velocity": 80,
      "Duration": 411539,
      "SoundDuration": 411539,
      "Delta": 31846121
    },
    {
      "NoteNumber": 67,
      "Velocity": 80,
      "Duration": 460576,
      "SoundDuration": 460576,
      "Delta": 32307660
    },
    {
      "NoteNumber": 64,
      "Velocity": 80,
      "Duration": 460576,
      "SoundDuration": 460576,
      "Delta": 32307660
    },
    {
      "NoteNumber": 69,
      "Velocity": 80,
      "Duration": 229807,
      "SoundDuration": 229807,
      "Delta": 32769197
    },
    {
      "NoteNumber": 48,
      "Velocity": 80,
      "Duration": 437499,
      "SoundDuration": 437499,
      "Delta": 32769197
    },
    {
      "NoteNumber": 71,
      "Velocity": 80,
      "Duration": 180769,
      "SoundDuration": 180769,
      "Delta": 32999966
    },
    {
      "NoteNumber": 67,
      "Velocity": 80,
      "Duration": 3361536,
      "SoundDuration": 3361536,
      "Delta": 33230735
    },
    {
      "NoteNumber": 71,
      "Velocity": 80,
      "Duration": 2899997,
      "SoundDuration": 2899997,
      "Delta": 33230735
    },
    {
      "NoteNumber": 43,
      "Velocity": 80,
      "Duration": 3692304,
      "SoundDuration": 3692304,
      "Delta": 33230735
    },
    {
      "NoteNumber": 62,
      "Velocity": 80,
      "Duration": 1284615,
      "SoundDuration": 1284615,
      "Delta": 33230735
    },
    {
      "NoteNumber": 55,
      "Velocity": 80,
      "Duration": 873076,
      "SoundDuration": 873076,
      "Delta": 33230735
    },
    {
      "NoteNumber": 59,
      "Velocity": 80,
      "Duration": 873076,
      "SoundDuration": 873076,
      "Delta": 33230735
    },
    {
      "NoteNumber": 55,
      "Velocity": 80,
      "Duration": 873077,
      "SoundDuration": 873077,
      "Delta": 34153811
    },
    {
      "NoteNumber": 59,
      "Velocity": 80,
      "Duration": 873077,
      "SoundDuration": 873077,
      "Delta": 34153811
    },
    {
      "NoteNumber": 62,
      "Velocity": 80,
      "Duration": 180768,
      "SoundDuration": 180768,
      "Delta": 34615350
    },
    {
      "NoteNumber": 62,
      "Velocity": 80,
      "Duration": 218269,
      "SoundDuration": 218269,
      "Delta": 34846118
    },
    {
      "NoteNumber": 55,
      "Velocity": 80,
      "Duration": 873076,
      "SoundDuration": 873076,
      "Delta": 35076888
    },
    {
      "NoteNumber": 69,
      "Velocity": 80,
      "Duration": 1152883,
      "SoundDuration": 1152883,
      "Delta": 35076888
    },
    {
      "NoteNumber": 59,
      "Velocity": 80,
      "Duration": 873076,
      "SoundDuration": 873076,
      "Delta": 35076888
    },
    {
      "NoteNumber": 55,
      "Velocity": 80,
      "Duration": 875960,
      "SoundDuration": 875960,
      "Delta": 35999964
    },
    {
      "NoteNumber": 59,
      "Velocity": 80,
      "Duration": 875960,
      "SoundDuration": 875960,
      "Delta": 35999964
    },
    {
      "NoteNumber": 71,
      "Velocity": 80,
      "Duration": 229807,
      "SoundDuration": 229807,
      "Delta": 36230732
    },
    {
      "NoteNumber": 69,
      "Velocity": 80,
      "Duration": 229807,
      "SoundDuration": 229807,
      "Delta": 36461501
    },
    {
      "NoteNumber": 67,
      "Velocity": 80,
      "Duration": 218269,
      "SoundDuration": 218269,
      "Delta": 36692271
    },
    {
      "NoteNumber": 62,
      "Velocity": 80,
      "Duration": 1284614,
      "SoundDuration": 1284614,
      "Delta": 36923039
    },
    {
      "NoteNumber": 69,
      "Velocity": 80,
      "Duration": 1746153,
      "SoundDuration": 1746153,
      "Delta": 36923039
    },
    {
      "NoteNumber": 66,
      "Velocity": 80,
      "Duration": 3692304,
      "SoundDuration": 3692304,
      "Delta": 36923039
    },
    {
      "NoteNumber": 38,
      "Velocity": 80,
      "Duration": 3692304,
      "SoundDuration": 3692304,
      "Delta": 36923039
    },
    {
      "NoteNumber": 50,
      "Velocity": 80,
      "Duration": 873076,
      "SoundDuration": 873076,
      "Delta": 36923039
    },
    {
      "NoteNumber": 54,
      "Velocity": 80,
      "Duration": 873076,
      "SoundDuration": 873076,
      "Delta": 36923039
    },
    {
      "NoteNumber": 50,
      "Velocity": 80,
      "Duration": 873077,
      "SoundDuration": 873077,
      "Delta": 37846115
    },
    {
      "NoteNumber": 54,
      "Velocity": 80,
      "Duration": 873077,
      "SoundDuration": 873077,
      "Delta": 37846115
    },
    {
      "NoteNumber": 62,
      "Velocity": 80,
      "Duration": 180769,
      "SoundDuration": 180769,
      "Delta": 38307653
    },
    {
      "NoteNumber": 62,
      "Velocity": 80,
      "Duration": 218269,
      "SoundDuration": 218269,
      "Delta": 38538422
    },
    {
      "NoteNumber": 69,
      "Velocity": 80,
      "Duration": 1152883,
      "SoundDuration": 1152883,
      "Delta": 38769192
    },
    {
      "NoteNumber": 50,
      "Velocity": 80,
      "Duration": 873076,
      "SoundDuration": 873076,
      "Delta": 38769192
    },
    {
      "NoteNumber": 54,
      "Velocity": 80,
      "Duration": 873076,
      "SoundDuration": 873076,
      "Delta": 38769192
    },
    {
      "NoteNumber": 50,
      "Velocity": 80,
      "Duration": 875960,
      "SoundDuration": 875960,
      "Delta": 39692268
    },
    {
      "NoteNumber": 54,
      "Velocity": 80,
      "Duration": 875960,
      "SoundDuration": 875960,
      "Delta": 39692268
    },
    {
      "NoteNumber": 71,
      "Velocity": 80,
      "Duration": 218269,
      "SoundDuration": 218269,
      "Delta": 39923036
    },
    {
      "NoteNumber": 69,
      "Velocity": 80,
      "Duration": 229807,
      "SoundDuration": 229807,
      "Delta": 40153805
    },
    {
      "NoteNumber": 67,
      "Velocity": 80,
      "Duration": 180768,
      "SoundDuration": 180768,
      "Delta": 40384575
    },
    {
      "NoteNumber": 67,
      "Velocity": 80,
      "Duration": 3361536,
      "SoundDuration": 3361536,
      "Delta": 40615343
    },
    {
      "NoteNumber": 71,
      "Velocity": 80,
      "Duration": 2899997,
      "SoundDuration": 2899997,
      "Delta": 40615343
    },
    {
      "NoteNumber": 55,
      "Velocity": 80,
      "Duration": 873076,
      "SoundDuration": 873076,
      "Delta": 40615343
    },
    {
      "NoteNumber": 40,
      "Velocity": 80,
      "Duration": 3692304,
      "SoundDuration": 3692304,
      "Delta": 40615343
    },
    {
      "NoteNumber": 64,
      "Velocity": 80,
      "Duration": 3642304,
      "SoundDuration": 3642304,
      "Delta": 40615343
    },
    {
      "NoteNumber": 52,
      "Velocity": 80,
      "Duration": 873076,
      "SoundDuration": 873076,
      "Delta": 40615343
    },
    {
      "NoteNumber": 55,
      "Velocity": 80,
      "Duration": 873077,
      "SoundDuration": 873077,
      "Delta": 41538419
    },
    {
      "NoteNumber": 52,
      "Velocity": 80,
      "Duration": 873077,
      "SoundDuration": 873077,
      "Delta": 41538419
    },
    {
      "NoteNumber": 62,
      "Velocity": 80,
      "Duration": 180769,
      "SoundDuration": 180769,
      "Delta": 41999957
    },
    {
      "NoteNumber": 62,
      "Velocity": 80,
      "Duration": 218269,
      "SoundDuration": 218269,
      "Delta": 42230726
    },
    {
      "NoteNumber": 55,
      "Velocity": 80,
      "Duration": 873076,
      "SoundDuration": 873076,
      "Delta": 42461496
    },
    {
      "NoteNumber": 69,
      "Velocity": 80,
      "Duration": 1095191,
      "SoundDuration": 1095191,
      "Delta": 42461496
    },
    {
      "NoteNumber": 52,
      "Velocity": 80,
      "Duration": 873076,
      "SoundDuration": 873076,
      "Delta": 42461496
    },
    {
      "NoteNumber": 55,
      "Velocity": 80,
      "Duration": 873075,
      "SoundDuration": 873075,
      "Delta": 43384572
    },
    {
      "NoteNumber": 52,
      "Velocity": 80,
      "Duration": 875960,
      "SoundDuration": 875960,
      "Delta": 43384572
    },
    {
      "NoteNumber": 71,
      "Velocity": 80,
      "Duration": 218269,
      "SoundDuration": 218269,
      "Delta": 43615340
    },
    {
      "NoteNumber": 69,
      "Velocity": 80,
      "Duration": 229807,
      "SoundDuration": 229807,
      "Delta": 43846109
    },
    {
      "NoteNumber": 67,
      "Velocity": 80,
      "Duration": 130768,
      "SoundDuration": 130768,
      "Delta": 44076879
    },
    {
      "NoteNumber": 67,
      "Velocity": 80,
      "Duration": 3642304,
      "SoundDuration": 3642304,
      "Delta": 44307647
    },
    {
      "NoteNumber": 55,
      "Velocity": 80,
      "Duration": 2629805,
      "SoundDuration": 2629805,
      "Delta": 44307647
    },
    {
      "NoteNumber": 64,
      "Velocity": 80,
      "Duration": 3130766,
      "SoundDuration": 3130766,
      "Delta": 44307647
    },
    {
      "NoteNumber": 36,
      "Velocity": 80,
      "Duration": 3692304,
      "SoundDuration": 3692304,
      "Delta": 44307647
    },
    {
      "NoteNumber": 60,
      "Velocity": 80,
      "Duration": 592307,
      "SoundDuration": 592307,
      "Delta": 44307647
    },
    {
      "NoteNumber": 48,
      "Velocity": 80,
      "Duration": 2629805,
      "SoundDuration": 2629805,
      "Delta": 44307647
    },
    {
      "NoteNumber": 60,
      "Velocity": 80,
      "Duration": 180769,
      "SoundDuration": 180769,
      "Delta": 44999954
    },
    {
      "NoteNumber": 60,
      "Velocity": 80,
      "Duration": 180770,
      "SoundDuration": 180770,
      "Delta": 45230723
    },
    {
      "NoteNumber": 60,
      "Velocity": 80,
      "Duration": 180768,
      "SoundDuration": 180768,
      "Delta": 45461493
    },
    {
      "NoteNumber": 60,
      "Velocity": 80,
      "Duration": 229807,
      "SoundDuration": 229807,
      "Delta": 45692261
    },
    {
      "NoteNumber": 59,
      "Velocity": 80,
      "Duration": 218269,
      "SoundDuration": 218269,
      "Delta": 45923030
    },
    {
      "NoteNumber": 60,
      "Velocity": 80,
      "Duration": 460576,
      "SoundDuration": 460576,
      "Delta": 46153800
    },
    {
      "NoteNumber": 59,
      "Velocity": 80,
      "Duration": 437499,
      "SoundDuration": 437499,
      "Delta": 46615337
    },
    {
      "NoteNumber": 48,
      "Velocity": 80,
      "Duration": 875960,
      "SoundDuration": 875960,
      "Delta": 47076875
    },
    {
      "NoteNumber": 64,
      "Velocity": 80,
      "Duration": 411538,
      "SoundDuration": 411538,
      "Delta": 47538413
    },
    {
      "NoteNumber": 67,
      "Velocity": 80,
      "Duration": 1796153,
      "SoundDuration": 1796153,
      "Delta": 47999951
    },
    {
      "NoteNumber": 71,
      "Velocity": 80,
      "Duration": 361539,
      "SoundDuration": 361539,
      "Delta": 47999951
    },
    {
      "NoteNumber": 55,
      "Velocity": 80,
      "Duration": 1752882,
      "SoundDuration": 1752882,
      "Delta": 47999951
    },
    {
      "NoteNumber": 40,
      "Velocity": 80,
      "Duration": 1846152,
      "SoundDuration": 1846152,
      "Delta": 47999951
    },
    {
      "NoteNumber": 64,
      "Velocity": 80,
      "Duration": 823076,
      "SoundDuration": 823076,
      "Delta": 47999951
    },
    {
      "NoteNumber": 52,
      "Velocity": 80,
      "Duration": 1752882,
      "SoundDuration": 1752882,
      "Delta": 47999951
    },
    {
      "NoteNumber": 71,
      "Velocity": 80,
      "Duration": 437499,
      "SoundDuration": 437499,
      "Delta": 48461490
    },
    {
      "NoteNumber": 64,
      "Velocity": 80,
      "Duration": 437499,
      "SoundDuration": 437499,
      "Delta": 48923027
    },
    {
      "NoteNumber": 71,
      "Velocity": 80,
      "Duration": 437499,
      "SoundDuration": 437499,
      "Delta": 49384565
    },
    {
      "NoteNumber": 67,
      "Velocity": 80,
      "Duration": 1284613,
      "SoundDuration": 1284613,
      "Delta": 49846104
    },
    {
      "NoteNumber": 62,
      "Velocity": 80,
      "Duration": 218269,
      "SoundDuration": 218269,
      "Delta": 49846104
    },
    {
      "NoteNumber": 55,
      "Velocity": 80,
      "Duration": 1752882,
      "SoundDuration": 1752882,
      "Delta": 49846104
    },
    {
      "NoteNumber": 64,
      "Velocity": 80,
      "Duration": 130768,
      "SoundDuration": 130768,
      "Delta": 49846104
    },
    {
      "NoteNumber": 36,
      "Velocity": 80,
      "Duration": 1846151,
      "SoundDuration": 1846151,
      "Delta": 49846104
    },
    {
      "NoteNumber": 60,
      "Velocity": 80,
      "Duration": 1846151,
      "SoundDuration": 1846151,
      "Delta": 49846104
    },
    {
      "NoteNumber": 48,
      "Velocity": 80,
      "Duration": 1752882,
      "SoundDuration": 1752882,
      "Delta": 49846104
    },
    {
      "NoteNumber": 64,
      "Velocity": 80,
      "Duration": 180769,
      "SoundDuration": 180769,
      "Delta": 50076872
    },
    {
      "NoteNumber": 64,
      "Velocity": 80,
      "Duration": 218269,
      "SoundDuration": 218269,
      "Delta": 50307641
    },
    {
      "NoteNumber": 62,
      "Velocity": 80,
      "Duration": 218269,
      "SoundDuration": 218269,
      "Delta": 50538411
    },
    {
      "NoteNumber": 64,
      "Velocity": 80,
      "Duration": 437499,
      "SoundDuration": 437499,
      "Delta": 50769179
    },
    {
      "NoteNumber": 67,
      "Velocity": 80,
      "Duration": 229807,
      "SoundDuration": 229807,
      "Delta": 51230717
    },
    {
      "NoteNumber": 66,
      "Velocity": 80,
      "Duration": 130769,
      "SoundDuration": 130769,
      "Delta": 51461486
    },
    {
      "NoteNumber": 62,
      "Velocity": 80,
      "Duration": 1284614,
      "SoundDuration": 1284614,
      "Delta": 51692255
    },
    {
      "NoteNumber": 69,
      "Velocity": 80,
      "Duration": 1846152,
      "SoundDuration": 1846152,
      "Delta": 51692255
    },
    {
      "NoteNumber": 66,
      "Velocity": 80,
      "Duration": 1846152,
      "SoundDuration": 1846152,
      "Delta": 51692255
    },
    {
      "NoteNumber": 38,
      "Velocity": 80,
      "Duration": 1846152,
      "SoundDuration": 1846152,
      "Delta": 51692255
    },
    {
      "NoteNumber": 50,
      "Velocity": 80,
      "Duration": 873076,
      "SoundDuration": 873076,
      "Delta": 51692255
    },
    {
      "NoteNumber": 57,
      "Velocity": 80,
      "Duration": 873076,
      "SoundDuration": 873076,
      "Delta": 51692255
    },
    {
      "NoteNumber": 50,
      "Velocity": 80,
      "Duration": 875960,
      "SoundDuration": 875960,
      "Delta": 52615331
    },
    {
      "NoteNumber": 57,
      "Velocity": 80,
      "Duration": 875960,
      "SoundDuration": 875960,
      "Delta": 52615331
    },
    {
      "NoteNumber": 62,
      "Velocity": 80,
      "Duration": 411539,
      "SoundDuration": 411539,
      "Delta": 53076869
    },
    {
      "NoteNumber": 67,
      "Velocity": 80,
      "Duration": 923075,
      "SoundDuration": 923075,
      "Delta": 53538408
    },
    {
      "NoteNumber": 71,
      "Velocity": 80,
      "Duration": 923075,
      "SoundDuration": 923075,
      "Delta": 53538408
    },
    {
      "NoteNumber": 43,
      "Velocity": 80,
      "Duration": 923075,
      "SoundDuration": 923075,
      "Delta": 53538408
    },
    {
      "NoteNumber": 62,
      "Velocity": 80,
      "Duration": 873075,
      "SoundDuration": 873075,
      "Delta": 53538408
    },
    {
      "NoteNumber": 55,
      "Velocity": 80,
      "Duration": 875960,
      "SoundDuration": 875960,
      "Delta": 53538408
    },
    {
      "NoteNumber": 74,
      "Velocity": 80,
      "Duration": 437499,
      "SoundDuration": 437499,
      "Delta": 53999945
    },
    {
      "NoteNumber": 62,
      "Velocity": 80,
      "Duration": 923076,
      "SoundDuration": 923076,
      "Delta": 54461483
    },
    {
      "NoteNumber": 69,
      "Velocity": 80,
      "Duration": 923076,
      "SoundDuration": 923076,
      "Delta": 54461483
    },
    {
      "NoteNumber": 66,
      "Velocity": 80,
      "Duration": 923076,
      "SoundDuration": 923076,
      "Delta": 54461483
    },
    {
      "NoteNumber": 38,
      "Velocity": 80,
      "Duration": 923076,
      "SoundDuration": 923076,
      "Delta": 54461483
    },
    {
      "NoteNumber": 50,
      "Velocity": 80,
      "Duration": 875960,
      "SoundDuration": 875960,
      "Delta": 54461483
    },
    {
      "NoteNumber": 54,
      "Velocity": 80,
      "Duration": 875960,
      "SoundDuration": 875960,
      "Delta": 54461483
    },
    {
      "NoteNumber": 71,
      "Velocity": 80,
      "Duration": 411538,
      "SoundDuration": 411538,
      "Delta": 54923021
    },
    {
      "NoteNumber": 67,
      "Velocity": 80,
      "Duration": 1796153,
      "SoundDuration": 1796153,
      "Delta": 55384559
    },
    {
      "NoteNumber": 71,
      "Velocity": 80,
      "Duration": 361538,
      "SoundDuration": 361538,
      "Delta": 55384559
    },
    {
      "NoteNumber": 55,
      "Velocity": 80,
      "Duration": 1752882,
      "SoundDuration": 1752882,
      "Delta": 55384559
    },
    {
      "NoteNumber": 40,
      "Velocity": 80,
      "Duration": 1846152,
      "SoundDuration": 1846152,
      "Delta": 55384559
    },
    {
      "NoteNumber": 64,
      "Velocity": 80,
      "Duration": 823076,
      "SoundDuration": 823076,
      "Delta": 55384559
    },
    {
      "NoteNumber": 52,
      "Velocity": 80,
      "Duration": 1752882,
      "SoundDuration": 1752882,
      "Delta": 55384559
    },
    {
      "NoteNumber": 71,
      "Velocity": 80,
      "Duration": 437499,
      "SoundDuration": 437499,
      "Delta": 55846097
    },
    {
      "NoteNumber": 64,
      "Velocity": 80,
      "Duration": 437499,
      "SoundDuration": 437499,
      "Delta": 56307635
    },
    {
      "NoteNumber": 71,
      "Velocity": 80,
      "Duration": 437499,
      "SoundDuration": 437499,
      "Delta": 56769173
    },
    {
      "NoteNumber": 67,
      "Velocity": 80,
      "Duration": 1284613,
      "SoundDuration": 1284613,
      "Delta": 57230712
    },
    {
      "NoteNumber": 55,
      "Velocity": 80,
      "Duration": 1752882,
      "SoundDuration": 1752882,
      "Delta": 57230712
    },
    {
      "NoteNumber": 64,
      "Velocity": 80,
      "Duration": 361537,
      "SoundDuration": 361537,
      "Delta": 57230712
    },
    {
      "NoteNumber": 36,
      "Velocity": 80,
      "Duration": 1846151,
      "SoundDuration": 1846151,
      "Delta": 57230712
    },
    {
      "NoteNumber": 60,
      "Velocity": 80,
      "Duration": 1846151,
      "SoundDuration": 1846151,
      "Delta": 57230712
    },
    {
      "NoteNumber": 48,
      "Velocity": 80,
      "Duration": 1752882,
      "SoundDuration": 1752882,
      "Delta": 57230712
    },
    {
      "NoteNumber": 64,
      "Velocity": 80,
      "Duration": 218269,
      "SoundDuration": 218269,
      "Delta": 57692249
    },
    {
      "NoteNumber": 62,
      "Velocity": 80,
      "Duration": 218269,
      "SoundDuration": 218269,
      "Delta": 57923019
    },
    {
      "NoteNumber": 64,
      "Velocity": 80,
      "Duration": 218269,
      "SoundDuration": 218269,
      "Delta": 58153787
    },
    {
      "NoteNumber": 62,
      "Velocity": 80,
      "Duration": 218269,
      "SoundDuration": 218269,
      "Delta": 58384556
    },
    {
      "NoteNumber": 67,
      "Velocity": 80,
      "Duration": 460576,
      "SoundDuration": 460576,
      "Delta": 58615325
    },
    {
      "NoteNumber": 62,
      "Velocity": 80,
      "Duration": 361538,
      "SoundDuration": 361538,
      "Delta": 59076863
    },
    {
      "NoteNumber": 69,
      "Velocity": 80,
      "Duration": 1515383,
      "SoundDuration": 1515383,
      "Delta": 59076863
    },
    {
      "NoteNumber": 66,
      "Velocity": 80,
      "Duration": 1846151,
      "SoundDuration": 1846151,
      "Delta": 59076863
    },
    {
      "NoteNumber": 38,
      "Velocity": 80,
      "Duration": 1846151,
      "SoundDuration": 1846151,
      "Delta": 59076863
    },
    {
      "NoteNumber": 50,
      "Velocity": 80,
      "Duration": 873076,
      "SoundDuration": 873076,
      "Delta": 59076863
    },
    {
      "NoteNumber": 57,
      "Velocity": 80,
      "Duration": 873076,
      "SoundDuration": 873076,
      "Delta": 59076863
    },
    {
      "NoteNumber": 64,
      "Velocity": 80,
      "Duration": 229807,
      "SoundDuration": 229807,
      "Delta": 59307632
    },
    {
      "NoteNumber": 62,
      "Velocity": 80,
      "Duration": 875960,
      "SoundDuration": 875960,
      "Delta": 59538401
    },
    {
      "NoteNumber": 50,
      "Velocity": 80,
      "Duration": 875960,
      "SoundDuration": 875960,
      "Delta": 59999939
    },
    {
      "NoteNumber": 57,
      "Velocity": 80,
      "Duration": 875960,
      "SoundDuration": 875960,
      "Delta": 59999939
    },
    {
      "NoteNumber": 67,
      "Velocity": 80,
      "Duration": 218269,
      "SoundDuration": 218269,
      "Delta": 60461477
    },
    {
      "NoteNumber": 69,
      "Velocity": 80,
      "Duration": 218269,
      "SoundDuration": 218269,
      "Delta": 60692246
    },
    {
      "NoteNumber": 67,
      "Velocity": 80,
      "Duration": 923076,
      "SoundDuration": 923076,
      "Delta": 60923015
    },
    {
      "NoteNumber": 71,
      "Velocity": 80,
      "Duration": 923076,
      "SoundDuration": 923076,
      "Delta": 60923015
    },
    {
      "NoteNumber": 43,
      "Velocity": 80,
      "Duration": 923076,
      "SoundDuration": 923076,
      "Delta": 60923015
    },
    {
      "NoteNumber": 62,
      "Velocity": 80,
      "Duration": 873076,
      "SoundDuration": 873076,
      "Delta": 60923015
    },
    {
      "NoteNumber": 55,
      "Velocity": 80,
      "Duration": 875960,
      "SoundDuration": 875960,
      "Delta": 60923015
    },
    {
      "NoteNumber": 74,
      "Velocity": 80,
      "Duration": 437499,
      "SoundDuration": 437499,
      "Delta": 61384553
    },
    {
      "NoteNumber": 62,
      "Velocity": 80,
      "Duration": 923076,
      "SoundDuration": 923076,
      "Delta": 61846091
    },
    {
      "NoteNumber": 69,
      "Velocity": 80,
      "Duration": 923076,
      "SoundDuration": 923076,
      "Delta": 61846091
    },
    {
      "NoteNumber": 66,
      "Velocity": 80,
      "Duration": 923076,
      "SoundDuration": 923076,
      "Delta": 61846091
    },
    {
      "NoteNumber": 38,
      "Velocity": 80,
      "Duration": 923076,
      "SoundDuration": 923076,
      "Delta": 61846091
    },
    {
      "NoteNumber": 50,
      "Velocity": 80,
      "Duration": 875960,
      "SoundDuration": 875960,
      "Delta": 61846091
    },
    {
      "NoteNumber": 54,
      "Velocity": 80,
      "Duration": 875960,
      "SoundDuration": 875960,
      "Delta": 61846091
    },
    {
      "NoteNumber": 71,
      "Velocity": 80,
      "Duration": 411538,
      "SoundDuration": 411538,
      "Delta": 62307629
    },
    {
      "NoteNumber": 67,
      "Velocity": 80,
      "Duration": 1796153,
      "SoundDuration": 1796153,
      "Delta": 62769167
    },
    {
      "NoteNumber": 71,
      "Velocity": 80,
      "Duration": 361538,
      "SoundDuration": 361538,
      "Delta": 62769167
    },
    {
      "NoteNumber": 55,
      "Velocity": 80,
      "Duration": 1752882,
      "SoundDuration": 1752882,
      "Delta": 62769167
    },
    {
      "NoteNumber": 40,
      "Velocity": 80,
      "Duration": 1846152,
      "SoundDuration": 1846152,
      "Delta": 62769167
    },
    {
      "NoteNumber": 64,
      "Velocity": 80,
      "Duration": 823076,
      "SoundDuration": 823076,
      "Delta": 62769167
    },
    {
      "NoteNumber": 52,
      "Velocity": 80,
      "Duration": 1752882,
      "SoundDuration": 1752882,
      "Delta": 62769167
    },
    {
      "NoteNumber": 71,
      "Velocity": 80,
      "Duration": 437499,
      "SoundDuration": 437499,
      "Delta": 63230705
    },
    {
      "NoteNumber": 64,
      "Velocity": 80,
      "Duration": 437499,
      "SoundDuration": 437499,
      "Delta": 63692243
    },
    {
      "NoteNumber": 71,
      "Velocity": 80,
      "Duration": 437499,
      "SoundDuration": 437499,
      "Delta": 64153781
    },
    {
      "NoteNumber": 67,
      "Velocity": 80,
      "Duration": 1284613,
      "SoundDuration": 1284613,
      "Delta": 64615320
    },
    {
      "NoteNumber": 62,
      "Velocity": 80,
      "Duration": 218269,
      "SoundDuration": 218269,
      "Delta": 64615320
    },
    {
      "NoteNumber": 55,
      "Velocity": 80,
      "Duration": 1752882,
      "SoundDuration": 1752882,
      "Delta": 64615320
    },
    {
      "NoteNumber": 64,
      "Velocity": 80,
      "Duration": 130768,
      "SoundDuration": 130768,
      "Delta": 64615320
    },
    {
      "NoteNumber": 36,
      "Velocity": 80,
      "Duration": 1846151,
      "SoundDuration": 1846151,
      "Delta": 64615320
    },
    {
      "NoteNumber": 60,
      "Velocity": 80,
      "Duration": 1846151,
      "SoundDuration": 1846151,
      "Delta": 64615320
    },
    {
      "NoteNumber": 48,
      "Velocity": 80,
      "Duration": 1752882,
      "SoundDuration": 1752882,
      "Delta": 64615320
    },
    {
      "NoteNumber": 64,
      "Velocity": 80,
      "Duration": 180769,
      "SoundDuration": 180769,
      "Delta": 64846088
    },
    {
      "NoteNumber": 64,
      "Velocity": 80,
      "Duration": 218269,
      "SoundDuration": 218269,
      "Delta": 65076857
    },
    {
      "NoteNumber": 62,
      "Velocity": 80,
      "Duration": 218269,
      "SoundDuration": 218269,
      "Delta": 65307627
    },
    {
      "NoteNumber": 64,
      "Velocity": 80,
      "Duration": 437499,
      "SoundDuration": 437499,
      "Delta": 65538395
    },
    {
      "NoteNumber": 67,
      "Velocity": 80,
      "Duration": 229807,
      "SoundDuration": 229807,
      "Delta": 65999933
    },
    {
      "NoteNumber": 66,
      "Velocity": 80,
      "Duration": 130769,
      "SoundDuration": 130769,
      "Delta": 66230702
    },
    {
      "NoteNumber": 62,
      "Velocity": 80,
      "Duration": 1284614,
      "SoundDuration": 1284614,
      "Delta": 66461471
    },
    {
      "NoteNumber": 69,
      "Velocity": 80,
      "Duration": 1846152,
      "SoundDuration": 1846152,
      "Delta": 66461471
    },
    {
      "NoteNumber": 66,
      "Velocity": 80,
      "Duration": 1846152,
      "SoundDuration": 1846152,
      "Delta": 66461471
    },
    {
      "NoteNumber": 38,
      "Velocity": 80,
      "Duration": 1846152,
      "SoundDuration": 1846152,
      "Delta": 66461471
    },
    {
      "NoteNumber": 50,
      "Velocity": 80,
      "Duration": 873077,
      "SoundDuration": 873077,
      "Delta": 66461471
    },
    {
      "NoteNumber": 57,
      "Velocity": 80,
      "Duration": 873077,
      "SoundDuration": 873077,
      "Delta": 66461471
    },
    {
      "NoteNumber": 50,
      "Velocity": 80,
      "Duration": 875960,
      "SoundDuration": 875960,
      "Delta": 67384548
    },
    {
      "NoteNumber": 57,
      "Velocity": 80,
      "Duration": 875960,
      "SoundDuration": 875960,
      "Delta": 67384548
    },
    {
      "NoteNumber": 62,
      "Velocity": 80,
      "Duration": 411538,
      "SoundDuration": 411538,
      "Delta": 67846085
    },
    {
      "NoteNumber": 67,
      "Velocity": 80,
      "Duration": 923076,
      "SoundDuration": 923076,
      "Delta": 68307623
    },
    {
      "NoteNumber": 71,
      "Velocity": 80,
      "Duration": 923076,
      "SoundDuration": 923076,
      "Delta": 68307623
    },
    {
      "NoteNumber": 43,
      "Velocity": 80,
      "Duration": 923076,
      "SoundDuration": 923076,
      "Delta": 68307623
    },
    {
      "NoteNumber": 62,
      "Velocity": 80,
      "Duration": 873077,
      "SoundDuration": 873077,
      "Delta": 68307623
    },
    {
      "NoteNumber": 55,
      "Velocity": 80,
      "Duration": 875960,
      "SoundDuration": 875960,
      "Delta": 68307623
    },
    {
      "NoteNumber": 74,
      "Velocity": 80,
      "Duration": 437499,
      "SoundDuration": 437499,
      "Delta": 68769162
    },
    {
      "NoteNumber": 62,
      "Velocity": 80,
      "Duration": 923075,
      "SoundDuration": 923075,
      "Delta": 69230700
    },
    {
      "NoteNumber": 69,
      "Velocity": 80,
      "Duration": 923075,
      "SoundDuration": 923075,
      "Delta": 69230700
    },
    {
      "NoteNumber": 66,
      "Velocity": 80,
      "Duration": 923075,
      "SoundDuration": 923075,
      "Delta": 69230700
    },
    {
      "NoteNumber": 38,
      "Velocity": 80,
      "Duration": 923075,
      "SoundDuration": 923075,
      "Delta": 69230700
    },
    {
      "NoteNumber": 50,
      "Velocity": 80,
      "Duration": 875960,
      "SoundDuration": 875960,
      "Delta": 69230700
    },
    {
      "NoteNumber": 54,
      "Velocity": 80,
      "Duration": 875960,
      "SoundDuration": 875960,
      "Delta": 69230700
    },
    {
      "NoteNumber": 71,
      "Velocity": 80,
      "Duration": 411539,
      "SoundDuration": 411539,
      "Delta": 69692237
    },
    {
      "NoteNumber": 67,
      "Velocity": 80,
      "Duration": 1796152,
      "SoundDuration": 1796152,
      "Delta": 70153776
    },
    {
      "NoteNumber": 71,
      "Velocity": 80,
      "Duration": 361538,
      "SoundDuration": 361538,
      "Delta": 70153776
    },
    {
      "NoteNumber": 55,
      "Velocity": 80,
      "Duration": 1752882,
      "SoundDuration": 1752882,
      "Delta": 70153776
    },
    {
      "NoteNumber": 40,
      "Velocity": 80,
      "Duration": 1846152,
      "SoundDuration": 1846152,
      "Delta": 70153776
    },
    {
      "NoteNumber": 64,
      "Velocity": 80,
      "Duration": 823075,
      "SoundDuration": 823075,
      "Delta": 70153776
    },
    {
      "NoteNumber": 52,
      "Velocity": 80,
      "Duration": 1752882,
      "SoundDuration": 1752882,
      "Delta": 70153776
    },
    {
      "NoteNumber": 71,
      "Velocity": 80,
      "Duration": 437499,
      "SoundDuration": 437499,
      "Delta": 70615314
    },
    {
      "NoteNumber": 64,
      "Velocity": 80,
      "Duration": 437499,
      "SoundDuration": 437499,
      "Delta": 71076851
    },
    {
      "NoteNumber": 71,
      "Velocity": 80,
      "Duration": 437499,
      "SoundDuration": 437499,
      "Delta": 71538390
    },
    {
      "NoteNumber": 67,
      "Velocity": 80,
      "Duration": 1284614,
      "SoundDuration": 1284614,
      "Delta": 71999928
    },
    {
      "NoteNumber": 55,
      "Velocity": 80,
      "Duration": 1752882,
      "SoundDuration": 1752882,
      "Delta": 71999928
    },
    {
      "NoteNumber": 64,
      "Velocity": 80,
      "Duration": 361537,
      "SoundDuration": 361537,
      "Delta": 71999928
    },
    {
      "NoteNumber": 36,
      "Velocity": 80,
      "Duration": 1846151,
      "SoundDuration": 1846151,
      "Delta": 71999928
    },
    {
      "NoteNumber": 60,
      "Velocity": 80,
      "Duration": 1846151,
      "SoundDuration": 1846151,
      "Delta": 71999928
    },
    {
      "NoteNumber": 48,
      "Velocity": 80,
      "Duration": 1752882,
      "SoundDuration": 1752882,
      "Delta": 71999928
    },
    {
      "NoteNumber": 64,
      "Velocity": 80,
      "Duration": 218269,
      "SoundDuration": 218269,
      "Delta": 72461465
    },
    {
      "NoteNumber": 62,
      "Velocity": 80,
      "Duration": 218269,
      "SoundDuration": 218269,
      "Delta": 72692235
    },
    {
      "NoteNumber": 64,
      "Velocity": 80,
      "Duration": 218269,
      "SoundDuration": 218269,
      "Delta": 72923003
    },
    {
      "NoteNumber": 62,
      "Velocity": 80,
      "Duration": 218269,
      "SoundDuration": 218269,
      "Delta": 73153772
    },
    {
      "NoteNumber": 67,
      "Velocity": 80,
      "Duration": 460576,
      "SoundDuration": 460576,
      "Delta": 73384542
    },
    {
      "NoteNumber": 62,
      "Velocity": 80,
      "Duration": 361538,
      "SoundDuration": 361538,
      "Delta": 73846079
    },
    {
      "NoteNumber": 69,
      "Velocity": 80,
      "Duration": 1515384,
      "SoundDuration": 1515384,
      "Delta": 73846079
    },
    {
      "NoteNumber": 66,
      "Velocity": 80,
      "Duration": 1846152,
      "SoundDuration": 1846152,
      "Delta": 73846079
    },
    {
      "NoteNumber": 38,
      "Velocity": 80,
      "Duration": 1846152,
      "SoundDuration": 1846152,
      "Delta": 73846079
    },
    {
      "NoteNumber": 50,
      "Velocity": 80,
      "Duration": 873077,
      "SoundDuration": 873077,
      "Delta": 73846079
    },
    {
      "NoteNumber": 57,
      "Velocity": 80,
      "Duration": 873077,
      "SoundDuration": 873077,
      "Delta": 73846079
    },
    {
      "NoteNumber": 64,
      "Velocity": 80,
      "Duration": 229807,
      "SoundDuration": 229807,
      "Delta": 74076849
    },
    {
      "NoteNumber": 62,
      "Velocity": 80,
      "Duration": 437499,
      "SoundDuration": 437499,
      "Delta": 74307617
    },
    {
      "NoteNumber": 50,
      "Velocity": 80,
      "Duration": 875960,
      "SoundDuration": 875960,
      "Delta": 74769156
    },
    {
      "NoteNumber": 57,
      "Velocity": 80,
      "Duration": 875960,
      "SoundDuration": 875960,
      "Delta": 74769156
    },
    {
      "NoteNumber": 67,
      "Velocity": 80,
      "Duration": 218269,
      "SoundDuration": 218269,
      "Delta": 75230693
    },
    {
      "NoteNumber": 69,
      "Velocity": 80,
      "Duration": 218269,
      "SoundDuration": 218269,
      "Delta": 75461463
    },
    {
      "NoteNumber": 67,
      "Velocity": 80,
      "Duration": 361539,
      "SoundDuration": 361539,
      "Delta": 75692231
    },
    {
      "NoteNumber": 71,
      "Velocity": 80,
      "Duration": 823076,
      "SoundDuration": 823076,
      "Delta": 75692231
    },
    {
      "NoteNumber": 43,
      "Velocity": 80,
      "Duration": 1846152,
      "SoundDuration": 1846152,
      "Delta": 75692231
    },
    {
      "NoteNumber": 62,
      "Velocity": 80,
      "Duration": 1846152,
      "SoundDuration": 1846152,
      "Delta": 75692231
    },
    {
      "NoteNumber": 55,
      "Velocity": 80,
      "Duration": 1752882,
      "SoundDuration": 1752882,
      "Delta": 75692231
    },
    {
      "NoteNumber": 69,
      "Velocity": 80,
      "Duration": 218269,
      "SoundDuration": 218269,
      "Delta": 75923000
    },
    {
      "NoteNumber": 67,
      "Velocity": 80,
      "Duration": 218269,
      "SoundDuration": 218269,
      "Delta": 76153770
    },
    {
      "NoteNumber": 69,
      "Velocity": 80,
      "Duration": 218269,
      "SoundDuration": 218269,
      "Delta": 76384538
    },
    {
      "NoteNumber": 71,
      "Velocity": 80,
      "Duration": 229807,
      "SoundDuration": 229807,
      "Delta": 76615307
    },
    {
      "NoteNumber": 69,
      "Velocity": 80,
      "Duration": 218269,
      "SoundDuration": 218269,
      "Delta": 76846077
    },
    {
      "NoteNumber": 67,
      "Velocity": 80,
      "Duration": 229807,
      "SoundDuration": 229807,
      "Delta": 77076845
    },
    {
      "NoteNumber": 69,
      "Velocity": 80,
      "Duration": 218269,
      "SoundDuration": 218269,
      "Delta": 77307615
    },
    {
      "NoteNumber": 67,
      "Velocity": 80,
      "Duration": 1796152,
      "SoundDuration": 1796152,
      "Delta": 77538384
    },
    {
      "NoteNumber": 71,
      "Velocity": 80,
      "Duration": 1846152,
      "SoundDuration": 1846152,
      "Delta": 77538384
    },
    {
      "NoteNumber": 55,
      "Velocity": 80,
      "Duration": 1314421,
      "SoundDuration": 1314421,
      "Delta": 77538384
    },
    {
      "NoteNumber": 40,
      "Velocity": 80,
      "Duration": 1846152,
      "SoundDuration": 1846152,
      "Delta": 77538384
    },
    {
      "NoteNumber": 64,
      "Velocity": 80,
      "Duration": 1796152,
      "SoundDuration": 1796152,
      "Delta": 77538384
    },
    {
      "NoteNumber": 52,
      "Velocity": 80,
      "Duration": 1314421,
      "SoundDuration": 1314421,
      "Delta": 77538384
    },
    {
      "NoteNumber": 76,
      "Velocity": 80,
      "Duration": 922114,
      "SoundDuration": 922114,
      "Delta": 78461459
    },
    {
      "NoteNumber": 55,
      "Velocity": 80,
      "Duration": 218269,
      "SoundDuration": 218269,
      "Delta": 79153766
    },
    {
      "NoteNumber": 67,
      "Velocity": 80,
      "Duration": 1846151,
      "SoundDuration": 1846151,
      "Delta": 79384536
    },
    {
      "NoteNumber": 64,
      "Velocity": 80,
      "Duration": 1846151,
      "SoundDuration": 1846151,
      "Delta": 79384536
    },
    {
      "NoteNumber": 52,
      "Velocity": 80,
      "Duration": 1314421,
      "SoundDuration": 1314421,
      "Delta": 79384536
    },
    {
      "NoteNumber": 36,
      "Velocity": 80,
      "Duration": 1846151,
      "SoundDuration": 1846151,
      "Delta": 79384536
    },
    {
      "NoteNumber": 60,
      "Velocity": 80,
      "Duration": 1846151,
      "SoundDuration": 1846151,
      "Delta": 79384536
    },
    {
      "NoteNumber": 48,
      "Velocity": 80,
      "Duration": 1314421,
      "SoundDuration": 1314421,
      "Delta": 79384536
    },
    {
      "NoteNumber": 74,
      "Velocity": 80,
      "Duration": 922114,
      "SoundDuration": 922114,
      "Delta": 80307611
    },
    {
      "NoteNumber": 57,
      "Velocity": 80,
      "Duration": 1972113,
      "SoundDuration": 1972113,
      "Delta": 80999918
    },
    {
      "NoteNumber": 62,
      "Velocity": 80,
      "Duration": 1796152,
      "SoundDuration": 1796152,
      "Delta": 81230687
    },
    {
      "NoteNumber": 69,
      "Velocity": 80,
      "Duration": 823077,
      "SoundDuration": 823077,
      "Delta": 81230687
    },
    {
      "NoteNumber": 66,
      "Velocity": 80,
      "Duration": 1846152,
      "SoundDuration": 1846152,
      "Delta": 81230687
    },
    {
      "NoteNumber": 38,
      "Velocity": 80,
      "Duration": 1846152,
      "SoundDuration": 1846152,
      "Delta": 81230687
    },
    {
      "NoteNumber": 50,
      "Velocity": 80,
      "Duration": 1752882,
      "SoundDuration": 1752882,
      "Delta": 81230687
    },
    {
      "NoteNumber": 69,
      "Velocity": 80,
      "Duration": 218269,
      "SoundDuration": 218269,
      "Delta": 82153764
    },
    {
      "NoteNumber": 67,
      "Velocity": 80,
      "Duration": 642307,
      "SoundDuration": 642307,
      "Delta": 82384532
    },
    {
      "NoteNumber": 67,
      "Velocity": 80,
      "Duration": 130769,
      "SoundDuration": 130769,
      "Delta": 83076839
    },
    {
      "NoteNumber": 71,
      "Velocity": 80,
      "Duration": 923075,
      "SoundDuration": 923075,
      "Delta": 83076839
    },
    {
      "NoteNumber": 43,
      "Velocity": 80,
      "Duration": 923075,
      "SoundDuration": 923075,
      "Delta": 83076839
    },
    {
      "NoteNumber": 62,
      "Velocity": 80,
      "Duration": 873076,
      "SoundDuration": 873076,
      "Delta": 83076839
    },
    {
      "NoteNumber": 55,
      "Velocity": 80,
      "Duration": 411539,
      "SoundDuration": 411539,
      "Delta": 83076839
    },
    {
      "NoteNumber": 69,
      "Velocity": 80,
      "Duration": 218269,
      "SoundDuration": 218269,
      "Delta": 83076839
    },
    {
      "NoteNumber": 67,
      "Velocity": 80,
      "Duration": 656730,
      "SoundDuration": 656730,
      "Delta": 83307608
    },
    {
      "NoteNumber": 55,
      "Velocity": 80,
      "Duration": 437499,
      "SoundDuration": 437499,
      "Delta": 83538378
    },
    {
      "NoteNumber": 62,
      "Velocity": 80,
      "Duration": 923076,
      "SoundDuration": 923076,
      "Delta": 83999915
    },
    {
      "NoteNumber": 69,
      "Velocity": 80,
      "Duration": 923076,
      "SoundDuration": 923076,
      "Delta": 83999915
    },
    {
      "NoteNumber": 66,
      "Velocity": 80,
      "Duration": 923076,
      "SoundDuration": 923076,
      "Delta": 83999915
    },
    {
      "NoteNumber": 38,
      "Velocity": 80,
      "Duration": 923076,
      "SoundDuration": 923076,
      "Delta": 83999915
    },
    {
      "NoteNumber": 50,
      "Velocity": 80,
      "Duration": 875960,
      "SoundDuration": 875960,
      "Delta": 83999915
    },
    {
      "NoteNumber": 54,
      "Velocity": 80,
      "Duration": 875960,
      "SoundDuration": 875960,
      "Delta": 83999915
    },
    {
      "NoteNumber": 67,
      "Velocity": 80,
      "Duration": 642307,
      "SoundDuration": 642307,
      "Delta": 84230685
    },
    {
      "NoteNumber": 67,
      "Velocity": 80,
      "Duration": 1796152,
      "SoundDuration": 1796152,
      "Delta": 84922992
    },
    {
      "NoteNumber": 71,
      "Velocity": 80,
      "Duration": 1846152,
      "SoundDuration": 1846152,
      "Delta": 84922992
    },
    {
      "NoteNumber": 55,
      "Velocity": 80,
      "Duration": 1314421,
      "SoundDuration": 1314421,
      "Delta": 84922992
    },
    {
      "NoteNumber": 40,
      "Velocity": 80,
      "Duration": 1846152,
      "SoundDuration": 1846152,
      "Delta": 84922992
    },
    {
      "NoteNumber": 64,
      "Velocity": 80,
      "Duration": 1796152,
      "SoundDuration": 1796152,
      "Delta": 84922992
    },
    {
      "NoteNumber": 52,
      "Velocity": 80,
      "Duration": 1314421,
      "SoundDuration": 1314421,
      "Delta": 84922992
    },
    {
      "NoteNumber": 76,
      "Velocity": 80,
      "Duration": 922114,
      "SoundDuration": 922114,
      "Delta": 85846067
    },
    {
      "NoteNumber": 55,
      "Velocity": 80,
      "Duration": 218269,
      "SoundDuration": 218269,
      "Delta": 86538374
    },
    {
      "NoteNumber": 67,
      "Velocity": 80,
      "Duration": 1846151,
      "SoundDuration": 1846151,
      "Delta": 86769144
    },
    {
      "NoteNumber": 64,
      "Velocity": 80,
      "Duration": 1846151,
      "SoundDuration": 1846151,
      "Delta": 86769144
    },
    {
      "NoteNumber": 52,
      "Velocity": 80,
      "Duration": 1314421,
      "SoundDuration": 1314421,
      "Delta": 86769144
    },
    {
      "NoteNumber": 36,
      "Velocity": 80,
      "Duration": 1846151,
      "SoundDuration": 1846151,
      "Delta": 86769144
    },
    {
      "NoteNumber": 60,
      "Velocity": 80,
      "Duration": 1846151,
      "SoundDuration": 1846151,
      "Delta": 86769144
    },
    {
      "NoteNumber": 48,
      "Velocity": 80,
      "Duration": 1314421,
      "SoundDuration": 1314421,
      "Delta": 86769144
    },
    {
      "NoteNumber": 74,
      "Velocity": 80,
      "Duration": 922114,
      "SoundDuration": 922114,
      "Delta": 87692219
    },
    {
      "NoteNumber": 57,
      "Velocity": 80,
      "Duration": 1972113,
      "SoundDuration": 1972113,
      "Delta": 88384526
    },
    {
      "NoteNumber": 62,
      "Velocity": 80,
      "Duration": 1796152,
      "SoundDuration": 1796152,
      "Delta": 88615295
    },
    {
      "NoteNumber": 69,
      "Velocity": 80,
      "Duration": 823077,
      "SoundDuration": 823077,
      "Delta": 88615295
    },
    {
      "NoteNumber": 66,
      "Velocity": 80,
      "Duration": 1846152,
      "SoundDuration": 1846152,
      "Delta": 88615295
    },
    {
      "NoteNumber": 38,
      "Velocity": 80,
      "Duration": 1846152,
      "SoundDuration": 1846152,
      "Delta": 88615295
    },
    {
      "NoteNumber": 50,
      "Velocity": 80,
      "Duration": 1752882,
      "SoundDuration": 1752882,
      "Delta": 88615295
    },
    {
      "NoteNumber": 69,
      "Velocity": 80,
      "Duration": 218269,
      "SoundDuration": 218269,
      "Delta": 89538372
    },
    {
      "NoteNumber": 67,
      "Velocity": 80,
      "Duration": 642307,
      "SoundDuration": 642307,
      "Delta": 89769140
    },
    {
      "NoteNumber": 67,
      "Velocity": 80,
      "Duration": 130769,
      "SoundDuration": 130769,
      "Delta": 90461447
    },
    {
      "NoteNumber": 71,
      "Velocity": 80,
      "Duration": 923075,
      "SoundDuration": 923075,
      "Delta": 90461447
    },
    {
      "NoteNumber": 43,
      "Velocity": 80,
      "Duration": 923075,
      "SoundDuration": 923075,
      "Delta": 90461447
    },
    {
      "NoteNumber": 62,
      "Velocity": 80,
      "Duration": 873076,
      "SoundDuration": 873076,
      "Delta": 90461447
    },
    {
      "NoteNumber": 55,
      "Velocity": 80,
      "Duration": 411539,
      "SoundDuration": 411539,
      "Delta": 90461447
    },
    {
      "NoteNumber": 69,
      "Velocity": 80,
      "Duration": 218269,
      "SoundDuration": 218269,
      "Delta": 90461447
    },
    {
      "NoteNumber": 67,
      "Velocity": 80,
      "Duration": 656730,
      "SoundDuration": 656730,
      "Delta": 90692216
    },
    {
      "NoteNumber": 55,
      "Velocity": 80,
      "Duration": 437499,
      "SoundDuration": 437499,
      "Delta": 90922986
    },
    {
      "NoteNumber": 62,
      "Velocity": 80,
      "Duration": 1746152,
      "SoundDuration": 1746152,
      "Delta": 91384523
    },
    {
      "NoteNumber": 69,
      "Velocity": 80,
      "Duration": 1053845,
      "SoundDuration": 1053845,
      "Delta": 91384523
    },
    {
      "NoteNumber": 66,
      "Velocity": 80,
      "Duration": 1515384,
      "SoundDuration": 1515384,
      "Delta": 91384523
    },
    {
      "NoteNumber": 38,
      "Velocity": 80,
      "Duration": 4565380,
      "SoundDuration": 4565380,
      "Delta": 91384523
    },
    {
      "NoteNumber": 50,
      "Velocity": 80,
      "Duration": 875960,
      "SoundDuration": 875960,
      "Delta": 91384523
    },
    {
      "NoteNumber": 54,
      "Velocity": 80,
      "Duration": 875960,
      "SoundDuration": 875960,
      "Delta": 91384523
    },
    {
      "NoteNumber": 67,
      "Velocity": 80,
      "Duration": 656730,
      "SoundDuration": 656730,
      "Delta": 91615293
    },
    {
      "NoteNumber": 71,
      "Velocity": 80,
      "Duration": 218269,
      "SoundDuration": 218269,
      "Delta": 92307600
    },
    {
      "NoteNumber": 55,
      "Velocity": 80,
      "Duration": 437499,
      "SoundDuration": 437499,
      "Delta": 92307600
    },
    {
      "NoteNumber": 69,
      "Velocity": 80,
      "Duration": 218269,
      "SoundDuration": 218269,
      "Delta": 92538368
    },
    {
      "NoteNumber": 67,
      "Velocity": 80,
      "Duration": 218269,
      "SoundDuration": 218269,
      "Delta": 92769137
    },
    {
      "NoteNumber": 66,
      "Velocity": 80,
      "Duration": 218269,
      "SoundDuration": 218269,
      "Delta": 92999907
    },
    {
      "NoteNumber": 62,
      "Velocity": 80,
      "Duration": 437499,
      "SoundDuration": 437499,
      "Delta": 93230675
    },
    {
      "NoteNumber": 55,
      "Velocity": 80,
      "Duration": 411537,
      "SoundDuration": 411537,
      "Delta": 93692214
    },
    {
      "NoteNumber": 62,
      "Velocity": 80,
      "Duration": 218269,
      "SoundDuration": 218269,
      "Delta": 93922982
    },
    {
      "NoteNumber": 71,
      "Velocity": 80,
      "Duration": 218269,
      "SoundDuration": 218269,
      "Delta": 94153751
    },
    {
      "NoteNumber": 55,
      "Velocity": 80,
      "Duration": 437499,
      "SoundDuration": 437499,
      "Delta": 94153751
    },
    {
      "NoteNumber": 69,
      "Velocity": 80,
      "Duration": 218269,
      "SoundDuration": 218269,
      "Delta": 94384520
    },
    {
      "NoteNumber": 67,
      "Velocity": 80,
      "Duration": 218269,
      "SoundDuration": 218269,
      "Delta": 94615289
    },
    {
      "NoteNumber": 66,
      "Velocity": 80,
      "Duration": 218269,
      "SoundDuration": 218269,
      "Delta": 94846059
    },
    {
      "NoteNumber": 62,
      "Velocity": 80,
      "Duration": 437499,
      "SoundDuration": 437499,
      "Delta": 95076827
    },
    {
      "NoteNumber": 55,
      "Velocity": 80,
      "Duration": 437499,
      "SoundDuration": 437499,
      "Delta": 95538366
    },
    {
      "NoteNumber": 71,
      "Velocity": 80,
      "Duration": 218269,
      "SoundDuration": 218269,
      "Delta": 95999903
    },
    {
      "NoteNumber": 62,
      "Velocity": 80,
      "Duration": 823077,
      "SoundDuration": 823077,
      "Delta": 95999903
    },
    {
      "NoteNumber": 69,
      "Velocity": 80,
      "Duration": 130770,
      "SoundDuration": 130770,
      "Delta": 95999903
    },
    {
      "NoteNumber": 66,
      "Velocity": 80,
      "Duration": 592307,
      "SoundDuration": 592307,
      "Delta": 95999903
    },
    {
      "NoteNumber": 38,
      "Velocity": 80,
      "Duration": 3692304,
      "SoundDuration": 3692304,
      "Delta": 95999903
    },
    {
      "NoteNumber": 50,
      "Velocity": 80,
      "Duration": 437499,
      "SoundDuration": 437499,
      "Delta": 95999903
    },
    {
      "NoteNumber": 54,
      "Velocity": 80,
      "Duration": 437499,
      "SoundDuration": 437499,
      "Delta": 95999903
    },
    {
      "NoteNumber": 69,
      "Velocity": 80,
      "Duration": 218269,
      "SoundDuration": 218269,
      "Delta": 96230673
    },
    {
      "NoteNumber": 67,
      "Velocity": 80,
      "Duration": 218269,
      "SoundDuration": 218269,
      "Delta": 96461441
    },
    {
      "NoteNumber": 66,
      "Velocity": 80,
      "Duration": 218269,
      "SoundDuration": 218269,
      "Delta": 96692210
    },
    {
      "NoteNumber": 62,
      "Velocity": 80,
      "Duration": 437499,
      "SoundDuration": 437499,
      "Delta": 96922980
    },
    {
      "NoteNumber": 50,
      "Velocity": 80,
      "Duration": 411538,
      "SoundDuration": 411538,
      "Delta": 97384517
    },
    {
      "NoteNumber": 54,
      "Velocity": 80,
      "Duration": 411538,
      "SoundDuration": 411538,
      "Delta": 97384517
    },
    {
      "NoteNumber": 62,
      "Velocity": 80,
      "Duration": 218269,
      "SoundDuration": 218269,
      "Delta": 97615287
    },
    {
      "NoteNumber": 71,
      "Velocity": 80,
      "Duration": 218269,
      "SoundDuration": 218269,
      "Delta": 97846055
    },
    {
      "NoteNumber": 50,
      "Velocity": 80,
      "Duration": 437499,
      "SoundDuration": 437499,
      "Delta": 97846055
    },
    {
      "NoteNumber": 54,
      "Velocity": 80,
      "Duration": 437499,
      "SoundDuration": 437499,
      "Delta": 97846055
    },
    {
      "NoteNumber": 69,
      "Velocity": 80,
      "Duration": 218269,
      "SoundDuration": 218269,
      "Delta": 98076824
    },
    {
      "NoteNumber": 67,
      "Velocity": 80,
      "Duration": 218269,
      "SoundDuration": 218269,
      "Delta": 98307594
    },
    {
      "NoteNumber": 66,
      "Velocity": 80,
      "Duration": 218269,
      "SoundDuration": 218269,
      "Delta": 98538362
    },
    {
      "NoteNumber": 62,
      "Velocity": 80,
      "Duration": 437499,
      "SoundDuration": 437499,
      "Delta": 98769131
    },
    {
      "NoteNumber": 50,
      "Velocity": 80,
      "Duration": 437499,
      "SoundDuration": 437499,
      "Delta": 99230669
    },
    {
      "NoteNumber": 54,
      "Velocity": 80,
      "Duration": 437499,
      "SoundDuration": 437499,
      "Delta": 99230669
    },
    {
      "NoteNumber": 62,
      "Velocity": 80,
      "Duration": 218269,
      "SoundDuration": 218269,
      "Delta": 99461438
    },
    {
      "NoteNumber": 67,
      "Velocity": 80,
      "Duration": 361537,
      "SoundDuration": 361537,
      "Delta": 99692208
    },
    {
      "NoteNumber": 71,
      "Velocity": 80,
      "Duration": 1746151,
      "SoundDuration": 1746151,
      "Delta": 99692208
    },
    {
      "NoteNumber": 55,
      "Velocity": 80,
      "Duration": 437499,
      "SoundDuration": 437499,
      "Delta": 99692208
    },
    {
      "NoteNumber": 40,
      "Velocity": 80,
      "Duration": 3692303,
      "SoundDuration": 3692303,
      "Delta": 99692208
    },
    {
      "NoteNumber": 64,
      "Velocity": 80,
      "Duration": 3642303,
      "SoundDuration": 3642303,
      "Delta": 99692208
    },
    {
      "NoteNumber": 52,
      "Velocity": 80,
      "Duration": 437499,
      "SoundDuration": 437499,
      "Delta": 99692208
    },
    {
      "NoteNumber": 69,
      "Velocity": 80,
      "Duration": 229807,
      "SoundDuration": 229807,
      "Delta": 99922976
    },
    {
      "NoteNumber": 67,
      "Velocity": 80,
      "Duration": 229807,
      "SoundDuration": 229807,
      "Delta": 100153745
    },
    {
      "NoteNumber": 66,
      "Velocity": 80,
      "Duration": 218269,
      "SoundDuration": 218269,
      "Delta": 100384515
    },
    {
      "NoteNumber": 67,
      "Velocity": 80,
      "Duration": 437499,
      "SoundDuration": 437499,
      "Delta": 100615283
    },
    {
      "NoteNumber": 55,
      "Velocity": 80,
      "Duration": 411537,
      "SoundDuration": 411537,
      "Delta": 101076822
    },
    {
      "NoteNumber": 52,
      "Velocity": 80,
      "Duration": 411537,
      "SoundDuration": 411537,
      "Delta": 101076822
    },
    {
      "NoteNumber": 67,
      "Velocity": 80,
      "Duration": 218269,
      "SoundDuration": 218269,
      "Delta": 101307590
    },
    {
      "NoteNumber": 71,
      "Velocity": 80,
      "Duration": 229807,
      "SoundDuration": 229807,
      "Delta": 101538359
    },
    {
      "NoteNumber": 55,
      "Velocity": 80,
      "Duration": 437499,
      "SoundDuration": 437499,
      "Delta": 101538359
    },
    {
      "NoteNumber": 52,
      "Velocity": 80,
      "Duration": 437499,
      "SoundDuration": 437499,
      "Delta": 101538359
    },
    {
      "NoteNumber": 69,
      "Velocity": 80,
      "Duration": 229807,
      "SoundDuration": 229807,
      "Delta": 101769128
    },
    {
      "NoteNumber": 67,
      "Velocity": 80,
      "Duration": 229807,
      "SoundDuration": 229807,
      "Delta": 101999897
    },
    {
      "NoteNumber": 66,
      "Velocity": 80,
      "Duration": 218269,
      "SoundDuration": 218269,
      "Delta": 102230666
    },
    {
      "NoteNumber": 67,
      "Velocity": 80,
      "Duration": 437499,
      "SoundDuration": 437499,
      "Delta": 102461435
    },
    {
      "NoteNumber": 55,
      "Velocity": 80,
      "Duration": 437499,
      "SoundDuration": 437499,
      "Delta": 102922973
    },
    {
      "NoteNumber": 52,
      "Velocity": 80,
      "Duration": 437499,
      "SoundDuration": 437499,
      "Delta": 102922973
    },
    {
      "NoteNumber": 67,
      "Velocity": 80,
      "Duration": 180769,
      "SoundDuration": 180769,
      "Delta": 103153742
    },
    {
      "NoteNumber": 67,
      "Velocity": 80,
      "Duration": 361538,
      "SoundDuration": 361538,
      "Delta": 103384511
    },
    {
      "NoteNumber": 71,
      "Velocity": 80,
      "Duration": 229807,
      "SoundDuration": 229807,
      "Delta": 103384511
    },
    {
      "NoteNumber": 64,
      "Velocity": 80,
      "Duration": 1284614,
      "SoundDuration": 1284614,
      "Delta": 103384511
    },
    {
      "NoteNumber": 36,
      "Velocity": 80,
      "Duration": 3692303,
      "SoundDuration": 3692303,
      "Delta": 103384511
    },
    {
      "NoteNumber": 60,
      "Velocity": 80,
      "Duration": 3692303,
      "SoundDuration": 3692303,
      "Delta": 103384511
    },
    {
      "NoteNumber": 48,
      "Velocity": 80,
      "Duration": 437499,
      "SoundDuration": 437499,
      "Delta": 103384511
    },
    {
      "NoteNumber": 69,
      "Velocity": 80,
      "Duration": 229807,
      "SoundDuration": 229807,
      "Delta": 103615280
    },
    {
      "NoteNumber": 67,
      "Velocity": 80,
      "Duration": 229807,
      "SoundDuration": 229807,
      "Delta": 103846049
    },
    {
      "NoteNumber": 66,
      "Velocity": 80,
      "Duration": 218269,
      "SoundDuration": 218269,
      "Delta": 104076818
    },
    {
      "NoteNumber": 67,
      "Velocity": 80,
      "Duration": 411538,
      "SoundDuration": 411538,
      "Delta": 104307587
    },
    {
      "NoteNumber": 67,
      "Velocity": 80,
      "Duration": 411538,
      "SoundDuration": 411538,
      "Delta": 104769125
    },
    {
      "NoteNumber": 64,
      "Velocity": 80,
      "Duration": 411538,
      "SoundDuration": 411538,
      "Delta": 104769125
    },
    {
      "NoteNumber": 48,
      "Velocity": 80,
      "Duration": 411538,
      "SoundDuration": 411538,
      "Delta": 104769125
    },
    {
      "NoteNumber": 67,
      "Velocity": 80,
      "Duration": 411539,
      "SoundDuration": 411539,
      "Delta": 105230663
    },
    {
      "NoteNumber": 64,
      "Velocity": 80,
      "Duration": 411539,
      "SoundDuration": 411539,
      "Delta": 105230663
    },
    {
      "NoteNumber": 48,
      "Velocity": 80,
      "Duration": 437499,
      "SoundDuration": 437499,
      "Delta": 105230663
    },
    {
      "NoteNumber": 67,
      "Velocity": 80,
      "Duration": 411537,
      "SoundDuration": 411537,
      "Delta": 105692202
    },
    {
      "NoteNumber": 64,
      "Velocity": 80,
      "Duration": 411537,
      "SoundDuration": 411537,
      "Delta": 105692202
    },
    {
      "NoteNumber": 67,
      "Velocity": 80,
      "Duration": 437499,
      "SoundDuration": 437499,
      "Delta": 106153739
    },
    {
      "NoteNumber": 64,
      "Velocity": 80,
      "Duration": 437499,
      "SoundDuration": 437499,
      "Delta": 106153739
    },
    {
      "NoteNumber": 48,
      "Velocity": 80,
      "Duration": 437499,
      "SoundDuration": 437499,
      "Delta": 106615277
    },
    {
      "NoteNumber": 67,
      "Velocity": 80,
      "Duration": 180769,
      "SoundDuration": 180769,
      "Delta": 106846046
    },
    {
      "NoteNumber": 67,
      "Velocity": 80,
      "Duration": 361538,
      "SoundDuration": 361538,
      "Delta": 107076815
    },
    {
      "NoteNumber": 71,
      "Velocity": 80,
      "Duration": 1746152,
      "SoundDuration": 1746152,
      "Delta": 107076815
    },
    {
      "NoteNumber": 43,
      "Velocity": 80,
      "Duration": 3692304,
      "SoundDuration": 3692304,
      "Delta": 107076815
    },
    {
      "NoteNumber": 62,
      "Velocity": 80,
      "Duration": 823076,
      "SoundDuration": 823076,
      "Delta": 107076815
    },
    {
      "NoteNumber": 55,
      "Velocity": 80,
      "Duration": 437499,
      "SoundDuration": 437499,
      "Delta": 107076815
    },
    {
      "NoteNumber": 69,
      "Velocity": 80,
      "Duration": 218269,
      "SoundDuration": 218269,
      "Delta": 107307584
    },
    {
      "NoteNumber": 67,
      "Velocity": 80,
      "Duration": 218269,
      "SoundDuration": 218269,
      "Delta": 107538353
    },
    {
      "NoteNumber": 66,
      "Velocity": 80,
      "Duration": 218269,
      "SoundDuration": 218269,
      "Delta": 107769123
    },
    {
      "NoteNumber": 62,
      "Velocity": 80,
      "Duration": 411538,
      "SoundDuration": 411538,
      "Delta": 107999891
    },
    {
      "NoteNumber": 62,
      "Velocity": 80,
      "Duration": 180769,
      "SoundDuration": 180769,
      "Delta": 108461429
    },
    {
      "NoteNumber": 55,
      "Velocity": 80,
      "Duration": 411538,
      "SoundDuration": 411538,
      "Delta": 108461429
    },
    {
      "NoteNumber": 62,
      "Velocity": 80,
      "Duration": 218269,
      "SoundDuration": 218269,
      "Delta": 108692198
    },
    {
      "NoteNumber": 71,
      "Velocity": 80,
      "Duration": 218269,
      "SoundDuration": 218269,
      "Delta": 108922967
    },
    {
      "NoteNumber": 55,
      "Velocity": 80,
      "Duration": 437499,
      "SoundDuration": 437499,
      "Delta": 108922967
    },
    {
      "NoteNumber": 69,
      "Velocity": 80,
      "Duration": 218269,
      "SoundDuration": 218269,
      "Delta": 109153736
    },
    {
      "NoteNumber": 67,
      "Velocity": 80,
      "Duration": 437499,
      "SoundDuration": 437499,
      "Delta": 109384505
    },
    {
      "NoteNumber": 62,
      "Velocity": 80,
      "Duration": 437499,
      "SoundDuration": 437499,
      "Delta": 109846043
    },
    {
      "NoteNumber": 55,
      "Velocity": 80,
      "Duration": 437499,
      "SoundDuration": 437499,
      "Delta": 110307581
    },
    {
      "NoteNumber": 62,
      "Velocity": 80,
      "Duration": 180769,
      "SoundDuration": 180769,
      "Delta": 110538350
    },
    {
      "NoteNumber": 71,
      "Velocity": 80,
      "Duration": 218269,
      "SoundDuration": 218269,
      "Delta": 110769119
    },
    {
      "NoteNumber": 62,
      "Velocity": 80,
      "Duration": 823077,
      "SoundDuration": 823077,
      "Delta": 110769119
    },
    {
      "NoteNumber": 69,
      "Velocity": 80,
      "Duration": 130769,
      "SoundDuration": 130769,
      "Delta": 110769119
    },
    {
      "NoteNumber": 66,
      "Velocity": 80,
      "Duration": 3692304,
      "SoundDuration": 3692304,
      "Delta": 110769119
    },
    {
      "NoteNumber": 38,
      "Velocity": 80,
      "Duration": 3692304,
      "SoundDuration": 3692304,
      "Delta": 110769119
    },
    {
      "NoteNumber": 50,
      "Velocity": 80,
      "Duration": 437499,
      "SoundDuration": 437499,
      "Delta": 110769119
    },
    {
      "NoteNumber": 54,
      "Velocity": 80,
      "Duration": 437499,
      "SoundDuration": 437499,
      "Delta": 110769119
    },
    {
      "NoteNumber": 69,
      "Velocity": 80,
      "Duration": 218269,
      "SoundDuration": 218269,
      "Delta": 110999888
    },
    {
      "NoteNumber": 67,
      "Velocity": 80,
      "Duration": 437499,
      "SoundDuration": 437499,
      "Delta": 111230657
    },
    {
      "NoteNumber": 62,
      "Velocity": 80,
      "Duration": 437499,
      "SoundDuration": 437499,
      "Delta": 111692196
    },
    {
      "NoteNumber": 50,
      "Velocity": 80,
      "Duration": 411538,
      "SoundDuration": 411538,
      "Delta": 112153733
    },
    {
      "NoteNumber": 54,
      "Velocity": 80,
      "Duration": 411538,
      "SoundDuration": 411538,
      "Delta": 112153733
    },
    {
      "NoteNumber": 62,
      "Velocity": 80,
      "Duration": 218269,
      "SoundDuration": 218269,
      "Delta": 112384503
    },
    {
      "NoteNumber": 71,
      "Velocity": 80,
      "Duration": 218269,
      "SoundDuration": 218269,
      "Delta": 112615271
    },
    {
      "NoteNumber": 50,
      "Velocity": 80,
      "Duration": 437499,
      "SoundDuration": 437499,
      "Delta": 112615271
    },
    {
      "NoteNumber": 54,
      "Velocity": 80,
      "Duration": 437499,
      "SoundDuration": 437499,
      "Delta": 112615271
    },
    {
      "NoteNumber": 69,
      "Velocity": 80,
      "Duration": 218269,
      "SoundDuration": 218269,
      "Delta": 112846040
    },
    {
      "NoteNumber": 67,
      "Velocity": 80,
      "Duration": 437499,
      "SoundDuration": 437499,
      "Delta": 113076810
    },
    {
      "NoteNumber": 62,
      "Velocity": 80,
      "Duration": 437499,
      "SoundDuration": 437499,
      "Delta": 113538347
    },
    {
      "NoteNumber": 50,
      "Velocity": 80,
      "Duration": 437499,
      "SoundDuration": 437499,
      "Delta": 113999885
    },
    {
      "NoteNumber": 54,
      "Velocity": 80,
      "Duration": 437499,
      "SoundDuration": 437499,
      "Delta": 113999885
    },
    {
      "NoteNumber": 62,
      "Velocity": 80,
      "Duration": 218269,
      "SoundDuration": 218269,
      "Delta": 114230654
    },
    {
      "NoteNumber": 67,
      "Velocity": 80,
      "Duration": 361537,
      "SoundDuration": 361537,
      "Delta": 114461424
    },
    {
      "NoteNumber": 71,
      "Velocity": 80,
      "Duration": 1746151,
      "SoundDuration": 1746151,
      "Delta": 114461424
    },
    {
      "NoteNumber": 55,
      "Velocity": 80,
      "Duration": 437499,
      "SoundDuration": 437499,
      "Delta": 114461424
    },
    {
      "NoteNumber": 40,
      "Velocity": 80,
      "Duration": 3692303,
      "SoundDuration": 3692303,
      "Delta": 114461424
    },
    {
      "NoteNumber": 64,
      "Velocity": 80,
      "Duration": 3642303,
      "SoundDuration": 3642303,
      "Delta": 114461424
    },
    {
      "NoteNumber": 52,
      "Velocity": 80,
      "Duration": 437499,
      "SoundDuration": 437499,
      "Delta": 114461424
    },
    {
      "NoteNumber": 69,
      "Velocity": 80,
      "Duration": 229807,
      "SoundDuration": 229807,
      "Delta": 114692192
    },
    {
      "NoteNumber": 67,
      "Velocity": 80,
      "Duration": 229807,
      "SoundDuration": 229807,
      "Delta": 114922961
    },
    {
      "NoteNumber": 66,
      "Velocity": 80,
      "Duration": 218269,
      "SoundDuration": 218269,
      "Delta": 115153731
    },
    {
      "NoteNumber": 67,
      "Velocity": 80,
      "Duration": 437499,
      "SoundDuration": 437499,
      "Delta": 115384499
    },
    {
      "NoteNumber": 55,
      "Velocity": 80,
      "Duration": 411537,
      "SoundDuration": 411537,
      "Delta": 115846038
    },
    {
      "NoteNumber": 52,
      "Velocity": 80,
      "Duration": 411537,
      "SoundDuration": 411537,
      "Delta": 115846038
    },
    {
      "NoteNumber": 67,
      "Velocity": 80,
      "Duration": 218269,
      "SoundDuration": 218269,
      "Delta": 116076806
    },
    {
      "NoteNumber": 71,
      "Velocity": 80,
      "Duration": 229807,
      "SoundDuration": 229807,
      "Delta": 116307575
    },
    {
      "NoteNumber": 55,
      "Velocity": 80,
      "Duration": 437499,
      "SoundDuration": 437499,
      "Delta": 116307575
    },
    {
      "NoteNumber": 52,
      "Velocity": 80,
      "Duration": 437499,
      "SoundDuration": 437499,
      "Delta": 116307575
    },
    {
      "NoteNumber": 69,
      "Velocity": 80,
      "Duration": 229807,
      "SoundDuration": 229807,
      "Delta": 116538344
    },
    {
      "NoteNumber": 67,
      "Velocity": 80,
      "Duration": 229807,
      "SoundDuration": 229807,
      "Delta": 116769113
    },
    {
      "NoteNumber": 66,
      "Velocity": 80,
      "Duration": 218269,
      "SoundDuration": 218269,
      "Delta": 116999882
    },
    {
      "NoteNumber": 67,
      "Velocity": 80,
      "Duration": 437499,
      "SoundDuration": 437499,
      "Delta": 117230651
    },
    {
      "NoteNumber": 55,
      "Velocity": 80,
      "Duration": 437499,
      "SoundDuration": 437499,
      "Delta": 117692189
    },
    {
      "NoteNumber": 52,
      "Velocity": 80,
      "Duration": 437499,
      "SoundDuration": 437499,
      "Delta": 117692189
    },
    {
      "NoteNumber": 67,
      "Velocity": 80,
      "Duration": 180769,
      "SoundDuration": 180769,
      "Delta": 117922958
    },
    {
      "NoteNumber": 67,
      "Velocity": 80,
      "Duration": 361538,
      "SoundDuration": 361538,
      "Delta": 118153727
    },
    {
      "NoteNumber": 71,
      "Velocity": 80,
      "Duration": 229807,
      "SoundDuration": 229807,
      "Delta": 118153727
    },
    {
      "NoteNumber": 64,
      "Velocity": 80,
      "Duration": 1284614,
      "SoundDuration": 1284614,
      "Delta": 118153727
    },
    {
      "NoteNumber": 36,
      "Velocity": 80,
      "Duration": 3692303,
      "SoundDuration": 3692303,
      "Delta": 118153727
    },
    {
      "NoteNumber": 60,
      "Velocity": 80,
      "Duration": 3692303,
      "SoundDuration": 3692303,
      "Delta": 118153727
    },
    {
      "NoteNumber": 48,
      "Velocity": 80,
      "Duration": 437499,
      "SoundDuration": 437499,
      "Delta": 118153727
    },
    {
      "NoteNumber": 69,
      "Velocity": 80,
      "Duration": 229807,
      "SoundDuration": 229807,
      "Delta": 118384496
    },
    {
      "NoteNumber": 67,
      "Velocity": 80,
      "Duration": 229807,
      "SoundDuration": 229807,
      "Delta": 118615265
    },
    {
      "NoteNumber": 66,
      "Velocity": 80,
      "Duration": 218269,
      "SoundDuration": 218269,
      "Delta": 118846034
    },
    {
      "NoteNumber": 67,
      "Velocity": 80,
      "Duration": 411538,
      "SoundDuration": 411538,
      "Delta": 119076803
    },
    {
      "NoteNumber": 67,
      "Velocity": 80,
      "Duration": 411538,
      "SoundDuration": 411538,
      "Delta": 119538341
    },
    {
      "NoteNumber": 64,
      "Velocity": 80,
      "Duration": 411538,
      "SoundDuration": 411538,
      "Delta": 119538341
    },
    {
      "NoteNumber": 48,
      "Velocity": 80,
      "Duration": 411538,
      "SoundDuration": 411538,
      "Delta": 119538341
    },
    {
      "NoteNumber": 67,
      "Velocity": 80,
      "Duration": 411538,
      "SoundDuration": 411538,
      "Delta": 119999879
    },
    {
      "NoteNumber": 64,
      "Velocity": 80,
      "Duration": 411538,
      "SoundDuration": 411538,
      "Delta": 119999879
    },
    {
      "NoteNumber": 48,
      "Velocity": 80,
      "Duration": 437499,
      "SoundDuration": 437499,
      "Delta": 119999879
    },
    {
      "NoteNumber": 67,
      "Velocity": 80,
      "Duration": 411538,
      "SoundDuration": 411538,
      "Delta": 120461417
    },
    {
      "NoteNumber": 64,
      "Velocity": 80,
      "Duration": 411538,
      "SoundDuration": 411538,
      "Delta": 120461417
    },
    {
      "NoteNumber": 67,
      "Velocity": 80,
      "Duration": 460576,
      "SoundDuration": 460576,
      "Delta": 120922955
    },
    {
      "NoteNumber": 64,
      "Velocity": 80,
      "Duration": 460576,
      "SoundDuration": 460576,
      "Delta": 120922955
    },
    {
      "NoteNumber": 69,
      "Velocity": 80,
      "Duration": 229807,
      "SoundDuration": 229807,
      "Delta": 121384493
    },
    {
      "NoteNumber": 48,
      "Velocity": 80,
      "Duration": 437499,
      "SoundDuration": 437499,
      "Delta": 121384493
    },
    {
      "NoteNumber": 71,
      "Velocity": 80,
      "Duration": 180769,
      "SoundDuration": 180769,
      "Delta": 121615262
    },
    {
      "NoteNumber": 67,
      "Velocity": 80,
      "Duration": 3361535,
      "SoundDuration": 3361535,
      "Delta": 121846031
    },
    {
      "NoteNumber": 71,
      "Velocity": 80,
      "Duration": 2899997,
      "SoundDuration": 2899997,
      "Delta": 121846031
    },
    {
      "NoteNumber": 43,
      "Velocity": 80,
      "Duration": 3692304,
      "SoundDuration": 3692304,
      "Delta": 121846031
    },
    {
      "NoteNumber": 62,
      "Velocity": 80,
      "Duration": 1284614,
      "SoundDuration": 1284614,
      "Delta": 121846031
    },
    {
      "NoteNumber": 55,
      "Velocity": 80,
      "Duration": 873076,
      "SoundDuration": 873076,
      "Delta": 121846031
    },
    {
      "NoteNumber": 59,
      "Velocity": 80,
      "Duration": 873076,
      "SoundDuration": 873076,
      "Delta": 121846031
    },
    {
      "NoteNumber": 55,
      "Velocity": 80,
      "Duration": 873076,
      "SoundDuration": 873076,
      "Delta": 122769107
    },
    {
      "NoteNumber": 59,
      "Velocity": 80,
      "Duration": 873076,
      "SoundDuration": 873076,
      "Delta": 122769107
    },
    {
      "NoteNumber": 62,
      "Velocity": 80,
      "Duration": 180769,
      "SoundDuration": 180769,
      "Delta": 123230645
    },
    {
      "NoteNumber": 62,
      "Velocity": 80,
      "Duration": 218269,
      "SoundDuration": 218269,
      "Delta": 123461414
    },
    {
      "NoteNumber": 55,
      "Velocity": 80,
      "Duration": 873076,
      "SoundDuration": 873076,
      "Delta": 123692183
    },
    {
      "NoteNumber": 69,
      "Velocity": 80,
      "Duration": 1152883,
      "SoundDuration": 1152883,
      "Delta": 123692183
    },
    {
      "NoteNumber": 59,
      "Velocity": 80,
      "Duration": 873076,
      "SoundDuration": 873076,
      "Delta": 123692183
    },
    {
      "NoteNumber": 55,
      "Velocity": 80,
      "Duration": 875960,
      "SoundDuration": 875960,
      "Delta": 124615259
    },
    {
      "NoteNumber": 59,
      "Velocity": 80,
      "Duration": 875960,
      "SoundDuration": 875960,
      "Delta": 124615259
    },
    {
      "NoteNumber": 71,
      "Velocity": 80,
      "Duration": 229807,
      "SoundDuration": 229807,
      "Delta": 124846028
    },
    {
      "NoteNumber": 69,
      "Velocity": 80,
      "Duration": 229807,
      "SoundDuration": 229807,
      "Delta": 125076797
    },
    {
      "NoteNumber": 67,
      "Velocity": 80,
      "Duration": 218269,
      "SoundDuration": 218269,
      "Delta": 125307566
    },
    {
      "NoteNumber": 62,
      "Velocity": 80,
      "Duration": 1284614,
      "SoundDuration": 1284614,
      "Delta": 125538335
    },
    {
      "NoteNumber": 69,
      "Velocity": 80,
      "Duration": 1746152,
      "SoundDuration": 1746152,
      "Delta": 125538335
    },
    {
      "NoteNumber": 66,
      "Velocity": 80,
      "Duration": 3692304,
      "SoundDuration": 3692304,
      "Delta": 125538335
    },
    {
      "NoteNumber": 38,
      "Velocity": 80,
      "Duration": 3692304,
      "SoundDuration": 3692304,
      "Delta": 125538335
    },
    {
      "NoteNumber": 50,
      "Velocity": 80,
      "Duration": 873077,
      "SoundDuration": 873077,
      "Delta": 125538335
    },
    {
      "NoteNumber": 54,
      "Velocity": 80,
      "Duration": 873077,
      "SoundDuration": 873077,
      "Delta": 125538335
    },
    {
      "NoteNumber": 50,
      "Velocity": 80,
      "Duration": 873075,
      "SoundDuration": 873075,
      "Delta": 126461412
    },
    {
      "NoteNumber": 54,
      "Velocity": 80,
      "Duration": 873075,
      "SoundDuration": 873075,
      "Delta": 126461412
    },
    {
      "NoteNumber": 62,
      "Velocity": 80,
      "Duration": 180770,
      "SoundDuration": 180770,
      "Delta": 126922949
    },
    {
      "NoteNumber": 62,
      "Velocity": 80,
      "Duration": 218269,
      "SoundDuration": 218269,
      "Delta": 127153719
    },
    {
      "NoteNumber": 69,
      "Velocity": 80,
      "Duration": 1152883,
      "SoundDuration": 1152883,
      "Delta": 127384487
    },
    {
      "NoteNumber": 50,
      "Velocity": 80,
      "Duration": 873076,
      "SoundDuration": 873076,
      "Delta": 127384487
    },
    {
      "NoteNumber": 54,
      "Velocity": 80,
      "Duration": 873076,
      "SoundDuration": 873076,
      "Delta": 127384487
    },
    {
      "NoteNumber": 50,
      "Velocity": 80,
      "Duration": 875960,
      "SoundDuration": 875960,
      "Delta": 128307563
    },
    {
      "NoteNumber": 54,
      "Velocity": 80,
      "Duration": 875960,
      "SoundDuration": 875960,
      "Delta": 128307563
    },
    {
      "NoteNumber": 71,
      "Velocity": 80,
      "Duration": 218269,
      "SoundDuration": 218269,
      "Delta": 128538333
    },
    {
      "NoteNumber": 69,
      "Velocity": 80,
      "Duration": 229807,
      "SoundDuration": 229807,
      "Delta": 128769101
    },
    {
      "NoteNumber": 67,
      "Velocity": 80,
      "Duration": 180770,
      "SoundDuration": 180770,
      "Delta": 128999870
    },
    {
      "NoteNumber": 67,
      "Velocity": 80,
      "Duration": 3361534,
      "SoundDuration": 3361534,
      "Delta": 129230640
    },
    {
      "NoteNumber": 71,
      "Velocity": 80,
      "Duration": 2899997,
      "SoundDuration": 2899997,
      "Delta": 129230640
    },
    {
      "NoteNumber": 55,
      "Velocity": 80,
      "Duration": 873075,
      "SoundDuration": 873075,
      "Delta": 129230640
    },
    {
      "NoteNumber": 40,
      "Velocity": 80,
      "Duration": 3692303,
      "SoundDuration": 3692303,
      "Delta": 129230640
    },
    {
      "NoteNumber": 64,
      "Velocity": 80,
      "Duration": 3642303,
      "SoundDuration": 3642303,
      "Delta": 129230640
    },
    {
      "NoteNumber": 52,
      "Velocity": 80,
      "Duration": 873075,
      "SoundDuration": 873075,
      "Delta": 129230640
    },
    {
      "NoteNumber": 55,
      "Velocity": 80,
      "Duration": 873076,
      "SoundDuration": 873076,
      "Delta": 130153715
    },
    {
      "NoteNumber": 52,
      "Velocity": 80,
      "Duration": 873076,
      "SoundDuration": 873076,
      "Delta": 130153715
    },
    {
      "NoteNumber": 62,
      "Velocity": 80,
      "Duration": 180768,
      "SoundDuration": 180768,
      "Delta": 130615254
    },
    {
      "NoteNumber": 62,
      "Velocity": 80,
      "Duration": 218269,
      "SoundDuration": 218269,
      "Delta": 130846022
    },
    {
      "NoteNumber": 55,
      "Velocity": 80,
      "Duration": 873076,
      "SoundDuration": 873076,
      "Delta": 131076791
    },
    {
      "NoteNumber": 69,
      "Velocity": 80,
      "Duration": 1095191,
      "SoundDuration": 1095191,
      "Delta": 131076791
    },
    {
      "NoteNumber": 52,
      "Velocity": 80,
      "Duration": 873076,
      "SoundDuration": 873076,
      "Delta": 131076791
    },
    {
      "NoteNumber": 55,
      "Velocity": 80,
      "Duration": 873076,
      "SoundDuration": 873076,
      "Delta": 131999867
    },
    {
      "NoteNumber": 52,
      "Velocity": 80,
      "Duration": 875960,
      "SoundDuration": 875960,
      "Delta": 131999867
    },
    {
      "NoteNumber": 71,
      "Velocity": 80,
      "Duration": 218269,
      "SoundDuration": 218269,
      "Delta": 132230637
    },
    {
      "NoteNumber": 69,
      "Velocity": 80,
      "Duration": 229807,
      "SoundDuration": 229807,
      "Delta": 132461405
    },
    {
      "NoteNumber": 67,
      "Velocity": 80,
      "Duration": 130769,
      "SoundDuration": 130769,
      "Delta": 132692174
    },
    {
      "NoteNumber": 67,
      "Velocity": 80,
      "Duration": 3642304,
      "SoundDuration": 3642304,
      "Delta": 132922943
    },
    {
      "NoteNumber": 55,
      "Velocity": 80,
      "Duration": 2629805,
      "SoundDuration": 2629805,
      "Delta": 132922943
    },
    {
      "NoteNumber": 64,
      "Velocity": 80,
      "Duration": 3130767,
      "SoundDuration": 3130767,
      "Delta": 132922943
    },
    {
      "NoteNumber": 36,
      "Velocity": 80,
      "Duration": 3692304,
      "SoundDuration": 3692304,
      "Delta": 132922943
    },
    {
      "NoteNumber": 60,
      "Velocity": 80,
      "Duration": 592308,
      "SoundDuration": 592308,
      "Delta": 132922943
    },
    {
      "NoteNumber": 48,
      "Velocity": 80,
      "Duration": 2629805,
      "SoundDuration": 2629805,
      "Delta": 132922943
    },
    {
      "NoteNumber": 60,
      "Velocity": 80,
      "Duration": 180768,
      "SoundDuration": 180768,
      "Delta": 133615251
    },
    {
      "NoteNumber": 60,
      "Velocity": 80,
      "Duration": 180769,
      "SoundDuration": 180769,
      "Delta": 133846019
    },
    {
      "NoteNumber": 60,
      "Velocity": 80,
      "Duration": 180769,
      "SoundDuration": 180769,
      "Delta": 134076788
    },
    {
      "NoteNumber": 60,
      "Velocity": 80,
      "Duration": 229807,
      "SoundDuration": 229807,
      "Delta": 134307557
    },
    {
      "NoteNumber": 59,
      "Velocity": 80,
      "Duration": 218269,
      "SoundDuration": 218269,
      "Delta": 134538326
    },
    {
      "NoteNumber": 60,
      "Velocity": 80,
      "Duration": 460576,
      "SoundDuration": 460576,
      "Delta": 134769096
    },
    {
      "NoteNumber": 59,
      "Velocity": 80,
      "Duration": 437499,
      "SoundDuration": 437499,
      "Delta": 135230633
    },
    {
      "NoteNumber": 48,
      "Velocity": 80,
      "Duration": 875960,
      "SoundDuration": 875960,
      "Delta": 135692171
    },
    {
      "NoteNumber": 64,
      "Velocity": 80,
      "Duration": 411537,
      "SoundDuration": 411537,
      "Delta": 136153710
    },
    {
      "NoteNumber": 67,
      "Velocity": 80,
      "Duration": 1796152,
      "SoundDuration": 1796152,
      "Delta": 136615247
    },
    {
      "NoteNumber": 71,
      "Velocity": 80,
      "Duration": 361538,
      "SoundDuration": 361538,
      "Delta": 136615247
    },
    {
      "NoteNumber": 55,
      "Velocity": 80,
      "Duration": 1752882,
      "SoundDuration": 1752882,
      "Delta": 136615247
    },
    {
      "NoteNumber": 40,
      "Velocity": 80,
      "Duration": 1846151,
      "SoundDuration": 1846151,
      "Delta": 136615247
    },
    {
      "NoteNumber": 64,
      "Velocity": 80,
      "Duration": 823077,
      "SoundDuration": 823077,
      "Delta": 136615247
    },
    {
      "NoteNumber": 52,
      "Velocity": 80,
      "Duration": 1752882,
      "SoundDuration": 1752882,
      "Delta": 136615247
    },
    {
      "NoteNumber": 71,
      "Velocity": 80,
      "Duration": 437499,
      "SoundDuration": 437499,
      "Delta": 137076785
    },
    {
      "NoteNumber": 64,
      "Velocity": 80,
      "Duration": 437499,
      "SoundDuration": 437499,
      "Delta": 137538324
    },
    {
      "NoteNumber": 71,
      "Velocity": 80,
      "Duration": 437499,
      "SoundDuration": 437499,
      "Delta": 137999861
    },
    {
      "NoteNumber": 67,
      "Velocity": 80,
      "Duration": 1284614,
      "SoundDuration": 1284614,
      "Delta": 138461399
    },
    {
      "NoteNumber": 62,
      "Velocity": 80,
      "Duration": 218269,
      "SoundDuration": 218269,
      "Delta": 138461399
    },
    {
      "NoteNumber": 55,
      "Velocity": 80,
      "Duration": 1752882,
      "SoundDuration": 1752882,
      "Delta": 138461399
    },
    {
      "NoteNumber": 64,
      "Velocity": 80,
      "Duration": 130769,
      "SoundDuration": 130769,
      "Delta": 138461399
    },
    {
      "NoteNumber": 36,
      "Velocity": 80,
      "Duration": 1846152,
      "SoundDuration": 1846152,
      "Delta": 138461399
    },
    {
      "NoteNumber": 60,
      "Velocity": 80,
      "Duration": 1846152,
      "SoundDuration": 1846152,
      "Delta": 138461399
    },
    {
      "NoteNumber": 48,
      "Velocity": 80,
      "Duration": 1752882,
      "SoundDuration": 1752882,
      "Delta": 138461399
    },
    {
      "NoteNumber": 64,
      "Velocity": 80,
      "Duration": 180770,
      "SoundDuration": 180770,
      "Delta": 138692168
    },
    {
      "NoteNumber": 64,
      "Velocity": 80,
      "Duration": 218269,
      "SoundDuration": 218269,
      "Delta": 138922938
    },
    {
      "NoteNumber": 62,
      "Velocity": 80,
      "Duration": 218269,
      "SoundDuration": 218269,
      "Delta": 139153707
    },
    {
      "NoteNumber": 64,
      "Velocity": 80,
      "Duration": 437499,
      "SoundDuration": 437499,
      "Delta": 139384475
    },
    {
      "NoteNumber": 67,
      "Velocity": 80,
      "Duration": 229807,
      "SoundDuration": 229807,
      "Delta": 139846013
    },
    {
      "NoteNumber": 66,
      "Velocity": 80,
      "Duration": 130770,
      "SoundDuration": 130770,
      "Delta": 140076782
    },
    {
      "NoteNumber": 62,
      "Velocity": 80,
      "Duration": 1284614,
      "SoundDuration": 1284614,
      "Delta": 140307552
    },
    {
      "NoteNumber": 69,
      "Velocity": 80,
      "Duration": 1846151,
      "SoundDuration": 1846151,
      "Delta": 140307552
    },
    {
      "NoteNumber": 66,
      "Velocity": 80,
      "Duration": 1846151,
      "SoundDuration": 1846151,
      "Delta": 140307552
    },
    {
      "NoteNumber": 38,
      "Velocity": 80,
      "Duration": 1846151,
      "SoundDuration": 1846151,
      "Delta": 140307552
    },
    {
      "NoteNumber": 50,
      "Velocity": 80,
      "Duration": 873075,
      "SoundDuration": 873075,
      "Delta": 140307552
    },
    {
      "NoteNumber": 57,
      "Velocity": 80,
      "Duration": 873075,
      "SoundDuration": 873075,
      "Delta": 140307552
    },
    {
      "NoteNumber": 50,
      "Velocity": 80,
      "Duration": 875960,
      "SoundDuration": 875960,
      "Delta": 141230627
    },
    {
      "NoteNumber": 57,
      "Velocity": 80,
      "Duration": 875960,
      "SoundDuration": 875960,
      "Delta": 141230627
    },
    {
      "NoteNumber": 62,
      "Velocity": 80,
      "Duration": 411537,
      "SoundDuration": 411537,
      "Delta": 141692166
    },
    {
      "NoteNumber": 67,
      "Velocity": 80,
      "Duration": 923076,
      "SoundDuration": 923076,
      "Delta": 142153703
    },
    {
      "NoteNumber": 71,
      "Velocity": 80,
      "Duration": 923076,
      "SoundDuration": 923076,
      "Delta": 142153703
    },
    {
      "NoteNumber": 43,
      "Velocity": 80,
      "Duration": 923076,
      "SoundDuration": 923076,
      "Delta": 142153703
    },
    {
      "NoteNumber": 62,
      "Velocity": 80,
      "Duration": 873077,
      "SoundDuration": 873077,
      "Delta": 142153703
    },
    {
      "NoteNumber": 55,
      "Velocity": 80,
      "Duration": 875960,
      "SoundDuration": 875960,
      "Delta": 142153703
    },
    {
      "NoteNumber": 74,
      "Velocity": 80,
      "Duration": 437499,
      "SoundDuration": 437499,
      "Delta": 142615241
    },
    {
      "NoteNumber": 62,
      "Velocity": 80,
      "Duration": 923075,
      "SoundDuration": 923075,
      "Delta": 143076780
    },
    {
      "NoteNumber": 69,
      "Velocity": 80,
      "Duration": 923075,
      "SoundDuration": 923075,
      "Delta": 143076780
    },
    {
      "NoteNumber": 66,
      "Velocity": 80,
      "Duration": 923075,
      "SoundDuration": 923075,
      "Delta": 143076780
    },
    {
      "NoteNumber": 38,
      "Velocity": 80,
      "Duration": 923075,
      "SoundDuration": 923075,
      "Delta": 143076780
    },
    {
      "NoteNumber": 50,
      "Velocity": 80,
      "Duration": 875960,
      "SoundDuration": 875960,
      "Delta": 143076780
    },
    {
      "NoteNumber": 54,
      "Velocity": 80,
      "Duration": 875960,
      "SoundDuration": 875960,
      "Delta": 143076780
    },
    {
      "NoteNumber": 71,
      "Velocity": 80,
      "Duration": 411538,
      "SoundDuration": 411538,
      "Delta": 143538317
    },
    {
      "NoteNumber": 67,
      "Velocity": 80,
      "Duration": 1796152,
      "SoundDuration": 1796152,
      "Delta": 143999855
    },
    {
      "NoteNumber": 71,
      "Velocity": 80,
      "Duration": 361538,
      "SoundDuration": 361538,
      "Delta": 143999855
    },
    {
      "NoteNumber": 55,
      "Velocity": 80,
      "Duration": 1752882,
      "SoundDuration": 1752882,
      "Delta": 143999855
    },
    {
      "NoteNumber": 40,
      "Velocity": 80,
      "Duration": 1846152,
      "SoundDuration": 1846152,
      "Delta": 143999855
    },
    {
      "NoteNumber": 64,
      "Velocity": 80,
      "Duration": 823076,
      "SoundDuration": 823076,
      "Delta": 143999855
    },
    {
      "NoteNumber": 52,
      "Velocity": 80,
      "Duration": 1752882,
      "SoundDuration": 1752882,
      "Delta": 143999855
    },
    {
      "NoteNumber": 71,
      "Velocity": 80,
      "Duration": 437499,
      "SoundDuration": 437499,
      "Delta": 144461393
    },
    {
      "NoteNumber": 64,
      "Velocity": 80,
      "Duration": 437499,
      "SoundDuration": 437499,
      "Delta": 144922931
    },
    {
      "NoteNumber": 71,
      "Velocity": 80,
      "Duration": 437499,
      "SoundDuration": 437499,
      "Delta": 145384470
    },
    {
      "NoteNumber": 67,
      "Velocity": 80,
      "Duration": 1284614,
      "SoundDuration": 1284614,
      "Delta": 145846007
    },
    {
      "NoteNumber": 55,
      "Velocity": 80,
      "Duration": 1752882,
      "SoundDuration": 1752882,
      "Delta": 145846007
    },
    {
      "NoteNumber": 64,
      "Velocity": 80,
      "Duration": 361538,
      "SoundDuration": 361538,
      "Delta": 145846007
    },
    {
      "NoteNumber": 36,
      "Velocity": 80,
      "Duration": 1846151,
      "SoundDuration": 1846151,
      "Delta": 145846007
    },
    {
      "NoteNumber": 60,
      "Velocity": 80,
      "Duration": 1846151,
      "SoundDuration": 1846151,
      "Delta": 145846007
    },
    {
      "NoteNumber": 48,
      "Velocity": 80,
      "Duration": 1752882,
      "SoundDuration": 1752882,
      "Delta": 145846007
    },
    {
      "NoteNumber": 64,
      "Velocity": 80,
      "Duration": 218269,
      "SoundDuration": 218269,
      "Delta": 146307545
    },
    {
      "NoteNumber": 62,
      "Velocity": 80,
      "Duration": 218269,
      "SoundDuration": 218269,
      "Delta": 146538314
    },
    {
      "NoteNumber": 64,
      "Velocity": 80,
      "Duration": 218269,
      "SoundDuration": 218269,
      "Delta": 146769084
    },
    {
      "NoteNumber": 62,
      "Velocity": 80,
      "Duration": 218269,
      "SoundDuration": 218269,
      "Delta": 146999852
    },
    {
      "NoteNumber": 67,
      "Velocity": 80,
      "Duration": 460576,
      "SoundDuration": 460576,
      "Delta": 147230621
    },
    {
      "NoteNumber": 62,
      "Velocity": 80,
      "Duration": 361539,
      "SoundDuration": 361539,
      "Delta": 147692159
    },
    {
      "NoteNumber": 69,
      "Velocity": 80,
      "Duration": 1515383,
      "SoundDuration": 1515383,
      "Delta": 147692159
    },
    {
      "NoteNumber": 66,
      "Velocity": 80,
      "Duration": 1846152,
      "SoundDuration": 1846152,
      "Delta": 147692159
    },
    {
      "NoteNumber": 38,
      "Velocity": 80,
      "Duration": 1846152,
      "SoundDuration": 1846152,
      "Delta": 147692159
    },
    {
      "NoteNumber": 50,
      "Velocity": 80,
      "Duration": 873076,
      "SoundDuration": 873076,
      "Delta": 147692159
    },
    {
      "NoteNumber": 57,
      "Velocity": 80,
      "Duration": 873076,
      "SoundDuration": 873076,
      "Delta": 147692159
    },
    {
      "NoteNumber": 64,
      "Velocity": 80,
      "Duration": 229807,
      "SoundDuration": 229807,
      "Delta": 147922928
    },
    {
      "NoteNumber": 62,
      "Velocity": 80,
      "Duration": 875960,
      "SoundDuration": 875960,
      "Delta": 148153698
    },
    {
      "NoteNumber": 50,
      "Velocity": 80,
      "Duration": 875960,
      "SoundDuration": 875960,
      "Delta": 148615235
    },
    {
      "NoteNumber": 57,
      "Velocity": 80,
      "Duration": 875960,
      "SoundDuration": 875960,
      "Delta": 148615235
    },
    {
      "NoteNumber": 67,
      "Velocity": 80,
      "Duration": 218269,
      "SoundDuration": 218269,
      "Delta": 149076774
    },
    {
      "NoteNumber": 69,
      "Velocity": 80,
      "Duration": 218269,
      "SoundDuration": 218269,
      "Delta": 149307542
    },
    {
      "NoteNumber": 67,
      "Velocity": 80,
      "Duration": 923076,
      "SoundDuration": 923076,
      "Delta": 149538312
    },
    {
      "NoteNumber": 71,
      "Velocity": 80,
      "Duration": 923076,
      "SoundDuration": 923076,
      "Delta": 149538312
    },
    {
      "NoteNumber": 43,
      "Velocity": 80,
      "Duration": 923076,
      "SoundDuration": 923076,
      "Delta": 149538312
    },
    {
      "NoteNumber": 62,
      "Velocity": 80,
      "Duration": 873076,
      "SoundDuration": 873076,
      "Delta": 149538312
    },
    {
      "NoteNumber": 55,
      "Velocity": 80,
      "Duration": 875960,
      "SoundDuration": 875960,
      "Delta": 149538312
    },
    {
      "NoteNumber": 74,
      "Velocity": 80,
      "Duration": 437499,
      "SoundDuration": 437499,
      "Delta": 149999849
    },
    {
      "NoteNumber": 62,
      "Velocity": 80,
      "Duration": 923075,
      "SoundDuration": 923075,
      "Delta": 150461388
    },
    {
      "NoteNumber": 69,
      "Velocity": 80,
      "Duration": 923075,
      "SoundDuration": 923075,
      "Delta": 150461388
    },
    {
      "NoteNumber": 66,
      "Velocity": 80,
      "Duration": 923075,
      "SoundDuration": 923075,
      "Delta": 150461388
    },
    {
      "NoteNumber": 38,
      "Velocity": 80,
      "Duration": 923075,
      "SoundDuration": 923075,
      "Delta": 150461388
    },
    {
      "NoteNumber": 50,
      "Velocity": 80,
      "Duration": 875960,
      "SoundDuration": 875960,
      "Delta": 150461388
    },
    {
      "NoteNumber": 54,
      "Velocity": 80,
      "Duration": 875960,
      "SoundDuration": 875960,
      "Delta": 150461388
    },
    {
      "NoteNumber": 71,
      "Velocity": 80,
      "Duration": 411537,
      "SoundDuration": 411537,
      "Delta": 150922926
    },
    {
      "NoteNumber": 67,
      "Velocity": 80,
      "Duration": 1796153,
      "SoundDuration": 1796153,
      "Delta": 151384463
    },
    {
      "NoteNumber": 71,
      "Velocity": 80,
      "Duration": 361539,
      "SoundDuration": 361539,
      "Delta": 151384463
    },
    {
      "NoteNumber": 55,
      "Velocity": 80,
      "Duration": 1752882,
      "SoundDuration": 1752882,
      "Delta": 151384463
    },
    {
      "NoteNumber": 40,
      "Velocity": 80,
      "Duration": 1846152,
      "SoundDuration": 1846152,
      "Delta": 151384463
    },
    {
      "NoteNumber": 64,
      "Velocity": 80,
      "Duration": 823077,
      "SoundDuration": 823077,
      "Delta": 151384463
    },
    {
      "NoteNumber": 52,
      "Velocity": 80,
      "Duration": 1752882,
      "SoundDuration": 1752882,
      "Delta": 151384463
    },
    {
      "NoteNumber": 71,
      "Velocity": 80,
      "Duration": 437499,
      "SoundDuration": 437499,
      "Delta": 151846002
    },
    {
      "NoteNumber": 64,
      "Velocity": 80,
      "Duration": 437499,
      "SoundDuration": 437499,
      "Delta": 152307540
    },
    {
      "NoteNumber": 71,
      "Velocity": 80,
      "Duration": 437499,
      "SoundDuration": 437499,
      "Delta": 152769077
    },
    {
      "NoteNumber": 67,
      "Velocity": 80,
      "Duration": 1284614,
      "SoundDuration": 1284614,
      "Delta": 153230616
    },
    {
      "NoteNumber": 62,
      "Velocity": 80,
      "Duration": 218269,
      "SoundDuration": 218269,
      "Delta": 153230616
    },
    {
      "NoteNumber": 55,
      "Velocity": 80,
      "Duration": 1752882,
      "SoundDuration": 1752882,
      "Delta": 153230616
    },
    {
      "NoteNumber": 64,
      "Velocity": 80,
      "Duration": 130768,
      "SoundDuration": 130768,
      "Delta": 153230616
    },
    {
      "NoteNumber": 36,
      "Velocity": 80,
      "Duration": 1846151,
      "SoundDuration": 1846151,
      "Delta": 153230616
    },
    {
      "NoteNumber": 60,
      "Velocity": 80,
      "Duration": 1846151,
      "SoundDuration": 1846151,
      "Delta": 153230616
    },
    {
      "NoteNumber": 48,
      "Velocity": 80,
      "Duration": 1752882,
      "SoundDuration": 1752882,
      "Delta": 153230616
    },
    {
      "NoteNumber": 64,
      "Velocity": 80,
      "Duration": 180770,
      "SoundDuration": 180770,
      "Delta": 153461384
    },
    {
      "NoteNumber": 64,
      "Velocity": 80,
      "Duration": 218269,
      "SoundDuration": 218269,
      "Delta": 153692154
    },
    {
      "NoteNumber": 62,
      "Velocity": 80,
      "Duration": 218269,
      "SoundDuration": 218269,
      "Delta": 153922922
    },
    {
      "NoteNumber": 64,
      "Velocity": 80,
      "Duration": 437499,
      "SoundDuration": 437499,
      "Delta": 154153691
    },
    {
      "NoteNumber": 67,
      "Velocity": 80,
      "Duration": 229807,
      "SoundDuration": 229807,
      "Delta": 154615230
    },
    {
      "NoteNumber": 66,
      "Velocity": 80,
      "Duration": 130770,
      "SoundDuration": 130770,
      "Delta": 154845998
    },
    {
      "NoteNumber": 62,
      "Velocity": 80,
      "Duration": 1284614,
      "SoundDuration": 1284614,
      "Delta": 155076768
    },
    {
      "NoteNumber": 69,
      "Velocity": 80,
      "Duration": 1846151,
      "SoundDuration": 1846151,
      "Delta": 155076768
    },
    {
      "NoteNumber": 66,
      "Velocity": 80,
      "Duration": 1846151,
      "SoundDuration": 1846151,
      "Delta": 155076768
    },
    {
      "NoteNumber": 38,
      "Velocity": 80,
      "Duration": 1846151,
      "SoundDuration": 1846151,
      "Delta": 155076768
    },
    {
      "NoteNumber": 50,
      "Velocity": 80,
      "Duration": 873076,
      "SoundDuration": 873076,
      "Delta": 155076768
    },
    {
      "NoteNumber": 57,
      "Velocity": 80,
      "Duration": 873076,
      "SoundDuration": 873076,
      "Delta": 155076768
    },
    {
      "NoteNumber": 50,
      "Velocity": 80,
      "Duration": 875960,
      "SoundDuration": 875960,
      "Delta": 155999844
    },
    {
      "NoteNumber": 57,
      "Velocity": 80,
      "Duration": 875960,
      "SoundDuration": 875960,
      "Delta": 155999844
    },
    {
      "NoteNumber": 62,
      "Velocity": 80,
      "Duration": 411537,
      "SoundDuration": 411537,
      "Delta": 156461382
    },
    {
      "NoteNumber": 67,
      "Velocity": 80,
      "Duration": 923076,
      "SoundDuration": 923076,
      "Delta": 156922919
    },
    {
      "NoteNumber": 71,
      "Velocity": 80,
      "Duration": 923076,
      "SoundDuration": 923076,
      "Delta": 156922919
    },
    {
      "NoteNumber": 43,
      "Velocity": 80,
      "Duration": 923076,
      "SoundDuration": 923076,
      "Delta": 156922919
    },
    {
      "NoteNumber": 62,
      "Velocity": 80,
      "Duration": 873077,
      "SoundDuration": 873077,
      "Delta": 156922919
    },
    {
      "NoteNumber": 55,
      "Velocity": 80,
      "Duration": 875960,
      "SoundDuration": 875960,
      "Delta": 156922919
    },
    {
      "NoteNumber": 74,
      "Velocity": 80,
      "Duration": 437499,
      "SoundDuration": 437499,
      "Delta": 157384458
    },
    {
      "NoteNumber": 62,
      "Velocity": 80,
      "Duration": 923076,
      "SoundDuration": 923076,
      "Delta": 157845996
    },
    {
      "NoteNumber": 69,
      "Velocity": 80,
      "Duration": 923076,
      "SoundDuration": 923076,
      "Delta": 157845996
    },
    {
      "NoteNumber": 66,
      "Velocity": 80,
      "Duration": 923076,
      "SoundDuration": 923076,
      "Delta": 157845996
    },
    {
      "NoteNumber": 38,
      "Velocity": 80,
      "Duration": 923076,
      "SoundDuration": 923076,
      "Delta": 157845996
    },
    {
      "NoteNumber": 50,
      "Velocity": 80,
      "Duration": 875960,
      "SoundDuration": 875960,
      "Delta": 157845996
    },
    {
      "NoteNumber": 54,
      "Velocity": 80,
      "Duration": 875960,
      "SoundDuration": 875960,
      "Delta": 157845996
    },
    {
      "NoteNumber": 71,
      "Velocity": 80,
      "Duration": 411539,
      "SoundDuration": 411539,
      "Delta": 158307533
    },
    {
      "NoteNumber": 67,
      "Velocity": 80,
      "Duration": 1796151,
      "SoundDuration": 1796151,
      "Delta": 158769072
    },
    {
      "NoteNumber": 71,
      "Velocity": 80,
      "Duration": 361537,
      "SoundDuration": 361537,
      "Delta": 158769072
    },
    {
      "NoteNumber": 55,
      "Velocity": 80,
      "Duration": 1752882,
      "SoundDuration": 1752882,
      "Delta": 158769072
    },
    {
      "NoteNumber": 40,
      "Velocity": 80,
      "Duration": 1846151,
      "SoundDuration": 1846151,
      "Delta": 158769072
    },
    {
      "NoteNumber": 64,
      "Velocity": 80,
      "Duration": 823075,
      "SoundDuration": 823075,
      "Delta": 158769072
    },
    {
      "NoteNumber": 52,
      "Velocity": 80,
      "Duration": 1752882,
      "SoundDuration": 1752882,
      "Delta": 158769072
    },
    {
      "NoteNumber": 71,
      "Velocity": 80,
      "Duration": 437499,
      "SoundDuration": 437499,
      "Delta": 159230609
    },
    {
      "NoteNumber": 64,
      "Velocity": 80,
      "Duration": 437499,
      "SoundDuration": 437499,
      "Delta": 159692147
    },
    {
      "NoteNumber": 71,
      "Velocity": 80,
      "Duration": 437499,
      "SoundDuration": 437499,
      "Delta": 160153686
    },
    {
      "NoteNumber": 67,
      "Velocity": 80,
      "Duration": 1284614,
      "SoundDuration": 1284614,
      "Delta": 160615223
    },
    {
      "NoteNumber": 55,
      "Velocity": 80,
      "Duration": 1752882,
      "SoundDuration": 1752882,
      "Delta": 160615223
    },
    {
      "NoteNumber": 64,
      "Velocity": 80,
      "Duration": 361538,
      "SoundDuration": 361538,
      "Delta": 160615223
    },
    {
      "NoteNumber": 36,
      "Velocity": 80,
      "Duration": 1846151,
      "SoundDuration": 1846151,
      "Delta": 160615223
    },
    {
      "NoteNumber": 60,
      "Velocity": 80,
      "Duration": 1846151,
      "SoundDuration": 1846151,
      "Delta": 160615223
    },
    {
      "NoteNumber": 48,
      "Velocity": 80,
      "Duration": 1752882,
      "SoundDuration": 1752882,
      "Delta": 160615223
    },
    {
      "NoteNumber": 64,
      "Velocity": 80,
      "Duration": 218269,
      "SoundDuration": 218269,
      "Delta": 161076761
    },
    {
      "NoteNumber": 62,
      "Velocity": 80,
      "Duration": 218269,
      "SoundDuration": 218269,
      "Delta": 161307530
    },
    {
      "NoteNumber": 64,
      "Velocity": 80,
      "Duration": 218269,
      "SoundDuration": 218269,
      "Delta": 161538300
    },
    {
      "NoteNumber": 62,
      "Velocity": 80,
      "Duration": 218269,
      "SoundDuration": 218269,
      "Delta": 161769069
    },
    {
      "NoteNumber": 67,
      "Velocity": 80,
      "Duration": 460576,
      "SoundDuration": 460576,
      "Delta": 161999837
    },
    {
      "NoteNumber": 62,
      "Velocity": 80,
      "Duration": 361539,
      "SoundDuration": 361539,
      "Delta": 162461375
    },
    {
      "NoteNumber": 69,
      "Velocity": 80,
      "Duration": 1515383,
      "SoundDuration": 1515383,
      "Delta": 162461375
    },
    {
      "NoteNumber": 66,
      "Velocity": 80,
      "Duration": 1846152,
      "SoundDuration": 1846152,
      "Delta": 162461375
    },
    {
      "NoteNumber": 38,
      "Velocity": 80,
      "Duration": 1846152,
      "SoundDuration": 1846152,
      "Delta": 162461375
    },
    {
      "NoteNumber": 50,
      "Velocity": 80,
      "Duration": 873076,
      "SoundDuration": 873076,
      "Delta": 162461375
    },
    {
      "NoteNumber": 57,
      "Velocity": 80,
      "Duration": 873076,
      "SoundDuration": 873076,
      "Delta": 162461375
    },
    {
      "NoteNumber": 64,
      "Velocity": 80,
      "Duration": 229807,
      "SoundDuration": 229807,
      "Delta": 162692144
    },
    {
      "NoteNumber": 62,
      "Velocity": 80,
      "Duration": 437499,
      "SoundDuration": 437499,
      "Delta": 162922914
    },
    {
      "NoteNumber": 50,
      "Velocity": 80,
      "Duration": 875960,
      "SoundDuration": 875960,
      "Delta": 163384451
    },
    {
      "NoteNumber": 57,
      "Velocity": 80,
      "Duration": 875960,
      "SoundDuration": 875960,
      "Delta": 163384451
    },
    {
      "NoteNumber": 67,
      "Velocity": 80,
      "Duration": 218269,
      "SoundDuration": 218269,
      "Delta": 163845989
    },
    {
      "NoteNumber": 69,
      "Velocity": 80,
      "Duration": 218269,
      "SoundDuration": 218269,
      "Delta": 164076758
    },
    {
      "NoteNumber": 67,
      "Velocity": 80,
      "Duration": 361537,
      "SoundDuration": 361537,
      "Delta": 164307528
    },
    {
      "NoteNumber": 71,
      "Velocity": 80,
      "Duration": 823075,
      "SoundDuration": 823075,
      "Delta": 164307528
    },
    {
      "NoteNumber": 43,
      "Velocity": 80,
      "Duration": 1846151,
      "SoundDuration": 1846151,
      "Delta": 164307528
    },
    {
      "NoteNumber": 62,
      "Velocity": 80,
      "Duration": 1846151,
      "SoundDuration": 1846151,
      "Delta": 164307528
    },
    {
      "NoteNumber": 55,
      "Velocity": 80,
      "Duration": 1752882,
      "SoundDuration": 1752882,
      "Delta": 164307528
    },
    {
      "NoteNumber": 69,
      "Velocity": 80,
      "Duration": 218269,
      "SoundDuration": 218269,
      "Delta": 164538297
    },
    {
      "NoteNumber": 67,
      "Velocity": 80,
      "Duration": 218269,
      "SoundDuration": 218269,
      "Delta": 164769065
    },
    {
      "NoteNumber": 69,
      "Velocity": 80,
      "Duration": 218269,
      "SoundDuration": 218269,
      "Delta": 164999834
    },
    {
      "NoteNumber": 71,
      "Velocity": 80,
      "Duration": 229807,
      "SoundDuration": 229807,
      "Delta": 165230603
    },
    {
      "NoteNumber": 69,
      "Velocity": 80,
      "Duration": 218269,
      "SoundDuration": 218269,
      "Delta": 165461372
    },
    {
      "NoteNumber": 67,
      "Velocity": 80,
      "Duration": 229807,
      "SoundDuration": 229807,
      "Delta": 165692142
    },
    {
      "NoteNumber": 69,
      "Velocity": 80,
      "Duration": 218269,
      "SoundDuration": 218269,
      "Delta": 165922911
    },
    {
      "NoteNumber": 67,
      "Velocity": 80,
      "Duration": 1796152,
      "SoundDuration": 1796152,
      "Delta": 166153679
    },
    {
      "NoteNumber": 71,
      "Velocity": 80,
      "Duration": 1846151,
      "SoundDuration": 1846151,
      "Delta": 166153679
    },
    {
      "NoteNumber": 55,
      "Velocity": 80,
      "Duration": 1314421,
      "SoundDuration": 1314421,
      "Delta": 166153679
    },
    {
      "NoteNumber": 40,
      "Velocity": 80,
      "Duration": 1846151,
      "SoundDuration": 1846151,
      "Delta": 166153679
    },
    {
      "NoteNumber": 64,
      "Velocity": 80,
      "Duration": 1796152,
      "SoundDuration": 1796152,
      "Delta": 166153679
    },
    {
      "NoteNumber": 52,
      "Velocity": 80,
      "Duration": 1314421,
      "SoundDuration": 1314421,
      "Delta": 166153679
    },
    {
      "NoteNumber": 76,
      "Velocity": 80,
      "Duration": 922114,
      "SoundDuration": 922114,
      "Delta": 167076756
    },
    {
      "NoteNumber": 55,
      "Velocity": 80,
      "Duration": 218269,
      "SoundDuration": 218269,
      "Delta": 167769062
    },
    {
      "NoteNumber": 67,
      "Velocity": 80,
      "Duration": 1846152,
      "SoundDuration": 1846152,
      "Delta": 167999831
    },
    {
      "NoteNumber": 64,
      "Velocity": 80,
      "Duration": 1846152,
      "SoundDuration": 1846152,
      "Delta": 167999831
    },
    {
      "NoteNumber": 52,
      "Velocity": 80,
      "Duration": 1314421,
      "SoundDuration": 1314421,
      "Delta": 167999831
    },
    {
      "NoteNumber": 36,
      "Velocity": 80,
      "Duration": 1846152,
      "SoundDuration": 1846152,
      "Delta": 167999831
    },
    {
      "NoteNumber": 60,
      "Velocity": 80,
      "Duration": 1846152,
      "SoundDuration": 1846152,
      "Delta": 167999831
    },
    {
      "NoteNumber": 48,
      "Velocity": 80,
      "Duration": 1314421,
      "SoundDuration": 1314421,
      "Delta": 167999831
    },
    {
      "NoteNumber": 74,
      "Velocity": 80,
      "Duration": 922114,
      "SoundDuration": 922114,
      "Delta": 168922907
    },
    {
      "NoteNumber": 57,
      "Velocity": 80,
      "Duration": 1972113,
      "SoundDuration": 1972113,
      "Delta": 169615214
    },
    {
      "NoteNumber": 62,
      "Velocity": 80,
      "Duration": 1796151,
      "SoundDuration": 1796151,
      "Delta": 169845984
    },
    {
      "NoteNumber": 69,
      "Velocity": 80,
      "Duration": 823075,
      "SoundDuration": 823075,
      "Delta": 169845984
    },
    {
      "NoteNumber": 66,
      "Velocity": 80,
      "Duration": 1846151,
      "SoundDuration": 1846151,
      "Delta": 169845984
    },
    {
      "NoteNumber": 38,
      "Velocity": 80,
      "Duration": 1846151,
      "SoundDuration": 1846151,
      "Delta": 169845984
    },
    {
      "NoteNumber": 50,
      "Velocity": 80,
      "Duration": 1752882,
      "SoundDuration": 1752882,
      "Delta": 169845984
    },
    {
      "NoteNumber": 69,
      "Velocity": 80,
      "Duration": 218269,
      "SoundDuration": 218269,
      "Delta": 170769059
    },
    {
      "NoteNumber": 67,
      "Velocity": 80,
      "Duration": 642307,
      "SoundDuration": 642307,
      "Delta": 170999828
    },
    {
      "NoteNumber": 67,
      "Velocity": 80,
      "Duration": 130770,
      "SoundDuration": 130770,
      "Delta": 171692135
    },
    {
      "NoteNumber": 71,
      "Velocity": 80,
      "Duration": 923076,
      "SoundDuration": 923076,
      "Delta": 171692135
    },
    {
      "NoteNumber": 43,
      "Velocity": 80,
      "Duration": 923076,
      "SoundDuration": 923076,
      "Delta": 171692135
    },
    {
      "NoteNumber": 62,
      "Velocity": 80,
      "Duration": 873077,
      "SoundDuration": 873077,
      "Delta": 171692135
    },
    {
      "NoteNumber": 55,
      "Velocity": 80,
      "Duration": 411538,
      "SoundDuration": 411538,
      "Delta": 171692135
    },
    {
      "NoteNumber": 69,
      "Velocity": 80,
      "Duration": 218269,
      "SoundDuration": 218269,
      "Delta": 171692135
    },
    {
      "NoteNumber": 67,
      "Velocity": 80,
      "Duration": 656730,
      "SoundDuration": 656730,
      "Delta": 171922905
    },
    {
      "NoteNumber": 55,
      "Velocity": 80,
      "Duration": 437499,
      "SoundDuration": 437499,
      "Delta": 172153673
    },
    {
      "NoteNumber": 62,
      "Velocity": 80,
      "Duration": 923075,
      "SoundDuration": 923075,
      "Delta": 172615212
    },
    {
      "NoteNumber": 69,
      "Velocity": 80,
      "Duration": 923075,
      "SoundDuration": 923075,
      "Delta": 172615212
    },
    {
      "NoteNumber": 66,
      "Velocity": 80,
      "Duration": 923075,
      "SoundDuration": 923075,
      "Delta": 172615212
    },
    {
      "NoteNumber": 38,
      "Velocity": 80,
      "Duration": 923075,
      "SoundDuration": 923075,
      "Delta": 172615212
    },
    {
      "NoteNumber": 50,
      "Velocity": 80,
      "Duration": 875960,
      "SoundDuration": 875960,
      "Delta": 172615212
    },
    {
      "NoteNumber": 54,
      "Velocity": 80,
      "Duration": 875960,
      "SoundDuration": 875960,
      "Delta": 172615212
    },
    {
      "NoteNumber": 67,
      "Velocity": 80,
      "Duration": 642306,
      "SoundDuration": 642306,
      "Delta": 172845981
    },
    {
      "NoteNumber": 67,
      "Velocity": 80,
      "Duration": 1796152,
      "SoundDuration": 1796152,
      "Delta": 173538287
    },
    {
      "NoteNumber": 71,
      "Velocity": 80,
      "Duration": 1846152,
      "SoundDuration": 1846152,
      "Delta": 173538287
    },
    {
      "NoteNumber": 55,
      "Velocity": 80,
      "Duration": 1314421,
      "SoundDuration": 1314421,
      "Delta": 173538287
    },
    {
      "NoteNumber": 40,
      "Velocity": 80,
      "Duration": 1846152,
      "SoundDuration": 1846152,
      "Delta": 173538287
    },
    {
      "NoteNumber": 64,
      "Velocity": 80,
      "Duration": 1796152,
      "SoundDuration": 1796152,
      "Delta": 173538287
    },
    {
      "NoteNumber": 52,
      "Velocity": 80,
      "Duration": 1314421,
      "SoundDuration": 1314421,
      "Delta": 173538287
    },
    {
      "NoteNumber": 76,
      "Velocity": 80,
      "Duration": 922114,
      "SoundDuration": 922114,
      "Delta": 174461363
    },
    {
      "NoteNumber": 55,
      "Velocity": 80,
      "Duration": 218269,
      "SoundDuration": 218269,
      "Delta": 175153670
    },
    {
      "NoteNumber": 67,
      "Velocity": 80,
      "Duration": 1846151,
      "SoundDuration": 1846151,
      "Delta": 175384439
    },
    {
      "NoteNumber": 64,
      "Velocity": 80,
      "Duration": 1846151,
      "SoundDuration": 1846151,
      "Delta": 175384439
    },
    {
      "NoteNumber": 52,
      "Velocity": 80,
      "Duration": 1314421,
      "SoundDuration": 1314421,
      "Delta": 175384439
    },
    {
      "NoteNumber": 36,
      "Velocity": 80,
      "Duration": 1846151,
      "SoundDuration": 1846151,
      "Delta": 175384439
    },
    {
      "NoteNumber": 60,
      "Velocity": 80,
      "Duration": 1846151,
      "SoundDuration": 1846151,
      "Delta": 175384439
    },
    {
      "NoteNumber": 48,
      "Velocity": 80,
      "Duration": 1314421,
      "SoundDuration": 1314421,
      "Delta": 175384439
    },
    {
      "NoteNumber": 74,
      "Velocity": 80,
      "Duration": 922114,
      "SoundDuration": 922114,
      "Delta": 176307515
    },
    {
      "NoteNumber": 57,
      "Velocity": 80,
      "Duration": 1972113,
      "SoundDuration": 1972113,
      "Delta": 176999823
    },
    {
      "NoteNumber": 62,
      "Velocity": 80,
      "Duration": 1796152,
      "SoundDuration": 1796152,
      "Delta": 177230591
    },
    {
      "NoteNumber": 69,
      "Velocity": 80,
      "Duration": 823076,
      "SoundDuration": 823076,
      "Delta": 177230591
    },
    {
      "NoteNumber": 66,
      "Velocity": 80,
      "Duration": 1846151,
      "SoundDuration": 1846151,
      "Delta": 177230591
    },
    {
      "NoteNumber": 38,
      "Velocity": 80,
      "Duration": 1846151,
      "SoundDuration": 1846151,
      "Delta": 177230591
    },
    {
      "NoteNumber": 50,
      "Velocity": 80,
      "Duration": 1752882,
      "SoundDuration": 1752882,
      "Delta": 177230591
    },
    {
      "NoteNumber": 69,
      "Velocity": 80,
      "Duration": 218269,
      "SoundDuration": 218269,
      "Delta": 178153667
    },
    {
      "NoteNumber": 67,
      "Velocity": 80,
      "Duration": 642306,
      "SoundDuration": 642306,
      "Delta": 178384437
    },
    {
      "NoteNumber": 67,
      "Velocity": 80,
      "Duration": 130769,
      "SoundDuration": 130769,
      "Delta": 179076743
    },
    {
      "NoteNumber": 71,
      "Velocity": 80,
      "Duration": 923076,
      "SoundDuration": 923076,
      "Delta": 179076743
    },
    {
      "NoteNumber": 43,
      "Velocity": 80,
      "Duration": 923076,
      "SoundDuration": 923076,
      "Delta": 179076743
    },
    {
      "NoteNumber": 62,
      "Velocity": 80,
      "Duration": 873077,
      "SoundDuration": 873077,
      "Delta": 179076743
    },
    {
      "NoteNumber": 55,
      "Velocity": 80,
      "Duration": 875960,
      "SoundDuration": 875960,
      "Delta": 179076743
    },
    {
      "NoteNumber": 69,
      "Velocity": 80,
      "Duration": 218269,
      "SoundDuration": 218269,
      "Delta": 179076743
    },
    {
      "NoteNumber": 67,
      "Velocity": 80,
      "Duration": 656730,
      "SoundDuration": 656730,
      "Delta": 179307512
    },
    {
      "NoteNumber": 62,
      "Velocity": 80,
      "Duration": 923075,
      "SoundDuration": 923075,
      "Delta": 179999820
    },
    {
      "NoteNumber": 69,
      "Velocity": 80,
      "Duration": 923075,
      "SoundDuration": 923075,
      "Delta": 179999820
    },
    {
      "NoteNumber": 66,
      "Velocity": 80,
      "Duration": 592306,
      "SoundDuration": 592306,
      "Delta": 179999820
    },
    {
      "NoteNumber": 38,
      "Velocity": 80,
      "Duration": 923075,
      "SoundDuration": 923075,
      "Delta": 179999820
    },
    {
      "NoteNumber": 50,
      "Velocity": 80,
      "Duration": 875960,
      "SoundDuration": 875960,
      "Delta": 179999820
    },
    {
      "NoteNumber": 54,
      "Velocity": 80,
      "Duration": 875960,
      "SoundDuration": 875960,
      "Delta": 179999820
    },
    {
      "NoteNumber": 67,
      "Velocity": 80,
      "Duration": 218269,
      "SoundDuration": 218269,
      "Delta": 180230588
    },
    {
      "NoteNumber": 64,
      "Velocity": 80,
      "Duration": 218269,
      "SoundDuration": 218269,
      "Delta": 180461357
    },
    {
      "NoteNumber": 66,
      "Velocity": 80,
      "Duration": 218269,
      "SoundDuration": 218269,
      "Delta": 180692126
    },
    {
      "NoteNumber": 67,
      "Velocity": 80,
      "Duration": 3130767,
      "SoundDuration": 3130767,
      "Delta": 180922895
    },
    {
      "NoteNumber": 55,
      "Velocity": 80,
      "Duration": 3506727,
      "SoundDuration": 3506727,
      "Delta": 180922895
    },
    {
      "NoteNumber": 64,
      "Velocity": 80,
      "Duration": 3642304,
      "SoundDuration": 3642304,
      "Delta": 180922895
    },
    {
      "NoteNumber": 36,
      "Velocity": 80,
      "Duration": 3692303,
      "SoundDuration": 3692303,
      "Delta": 180922895
    },
    {
      "NoteNumber": 60,
      "Velocity": 80,
      "Duration": 361539,
      "SoundDuration": 361539,
      "Delta": 180922895
    },
    {
      "NoteNumber": 48,
      "Velocity": 80,
      "Duration": 3506727,
      "SoundDuration": 3506727,
      "Delta": 180922895
    },
    {
      "NoteNumber": 60,
      "Velocity": 80,
      "Duration": 411537,
      "SoundDuration": 411537,
      "Delta": 181384434
    },
    {
      "NoteNumber": 60,
      "Velocity": 80,
      "Duration": 2191343,
      "SoundDuration": 2191343,
      "Delta": 181845971
    },
    {
      "NoteNumber": 67,
      "Velocity": 80,
      "Duration": 411537,
      "SoundDuration": 411537,
      "Delta": 184153662
    },
    {
      "NoteNumber": 67,
      "Velocity": 80,
      "Duration": 3130766,
      "SoundDuration": 3130766,
      "Delta": 184615199
    },
    {
      "NoteNumber": 71,
      "Velocity": 80,
      "Duration": 3692304,
      "SoundDuration": 3692304,
      "Delta": 184615199
    },
    {
      "NoteNumber": 40,
      "Velocity": 80,
      "Duration": 3692304,
      "SoundDuration": 3692304,
      "Delta": 184615199
    },
    {
      "NoteNumber": 64,
      "Velocity": 80,
      "Duration": 3130766,
      "SoundDuration": 3130766,
      "Delta": 184615199
    },
    {
      "NoteNumber": 52,
      "Velocity": 80,
      "Duration": 3506727,
      "SoundDuration": 3506727,
      "Delta": 184615199
    },
    {
      "NoteNumber": 59,
      "Velocity": 80,
      "Duration": 411539,
      "SoundDuration": 411539,
      "Delta": 185076737
    },
    {
      "NoteNumber": 59,
      "Velocity": 80,
      "Duration": 2191343,
      "SoundDuration": 2191343,
      "Delta": 185538276
    },
    {
      "NoteNumber": 67,
      "Velocity": 80,
      "Duration": 180770,
      "SoundDuration": 180770,
      "Delta": 187845965
    },
    {
      "NoteNumber": 64,
      "Velocity": 80,
      "Duration": 180770,
      "SoundDuration": 180770,
      "Delta": 187845965
    },
    {
      "NoteNumber": 67,
      "Velocity": 80,
      "Duration": 180769,
      "SoundDuration": 180769,
      "Delta": 188076735
    },
    {
      "NoteNumber": 64,
      "Velocity": 80,
      "Duration": 180769,
      "SoundDuration": 180769,
      "Delta": 188076735
    },
    {
      "NoteNumber": 67,
      "Velocity": 80,
      "Duration": 2207689,
      "SoundDuration": 2207689,
      "Delta": 188307504
    },
    {
      "NoteNumber": 55,
      "Velocity": 80,
      "Duration": 3506727,
      "SoundDuration": 3506727,
      "Delta": 188307504
    },
    {
      "NoteNumber": 64,
      "Velocity": 80,
      "Duration": 3692303,
      "SoundDuration": 3692303,
      "Delta": 188307504
    },
    {
      "NoteNumber": 36,
      "Velocity": 80,
      "Duration": 3692303,
      "SoundDuration": 3692303,
      "Delta": 188307504
    },
    {
      "NoteNumber": 60,
      "Velocity": 80,
      "Duration": 130768,
      "SoundDuration": 130768,
      "Delta": 188307504
    },
    {
      "NoteNumber": 48,
      "Velocity": 80,
      "Duration": 3506727,
      "SoundDuration": 3506727,
      "Delta": 188307504
    },
    {
      "NoteNumber": 60,
      "Velocity": 80,
      "Duration": 180769,
      "SoundDuration": 180769,
      "Delta": 188538272
    },
    {
      "NoteNumber": 60,
      "Velocity": 80,
      "Duration": 411538,
      "SoundDuration": 411538,
      "Delta": 188769041
    },
    {
      "NoteNumber": 60,
      "Velocity": 80,
      "Duration": 875960,
      "SoundDuration": 875960,
      "Delta": 189230579
    },
    {
      "NoteNumber": 67,
      "Velocity": 80,
      "Duration": 411539,
      "SoundDuration": 411539,
      "Delta": 190615193
    },
    {
      "NoteNumber": 67,
      "Velocity": 80,
      "Duration": 411537,
      "SoundDuration": 411537,
      "Delta": 191076732
    },
    {
      "NoteNumber": 67,
      "Velocity": 80,
      "Duration": 411538,
      "SoundDuration": 411538,
      "Delta": 191538269
    },
    {
      "NoteNumber": 67,
      "Velocity": 80,
      "Duration": 218269,
      "SoundDuration": 218269,
      "Delta": 191999807
    },
    {
      "NoteNumber": 62,
      "Velocity": 80,
      "Duration": 5538455,
      "SoundDuration": 5538455,
      "Delta": 191999807
    },
    {
      "NoteNumber": 69,
      "Velocity": 80,
      "Duration": 130769,
      "SoundDuration": 130769,
      "Delta": 191999807
    },
    {
      "NoteNumber": 66,
      "Velocity": 80,
      "Duration": 130769,
      "SoundDuration": 130769,
      "Delta": 191999807
    },
    {
      "NoteNumber": 38,
      "Velocity": 80,
      "Duration": 5538455,
      "SoundDuration": 5538455,
      "Delta": 191999807
    },
    {
      "NoteNumber": 50,
      "Velocity": 80,
      "Duration": 411539,
      "SoundDuration": 411539,
      "Delta": 191999807
    },
    {
      "NoteNumber": 69,
      "Velocity": 80,
      "Duration": 180770,
      "SoundDuration": 180770,
      "Delta": 192230576
    },
    {
      "NoteNumber": 66,
      "Velocity": 80,
      "Duration": 180770,
      "SoundDuration": 180770,
      "Delta": 192230576
    },
    {
      "NoteNumber": 69,
      "Velocity": 80,
      "Duration": 875960,
      "SoundDuration": 875960,
      "Delta": 192461346
    },
    {
      "NoteNumber": 66,
      "Velocity": 80,
      "Duration": 875960,
      "SoundDuration": 875960,
      "Delta": 192461346
    },
    {
      "NoteNumber": 50,
      "Velocity": 80,
      "Duration": 411537,
      "SoundDuration": 411537,
      "Delta": 192461346
    },
    {
      "NoteNumber": 50,
      "Velocity": 80,
      "Duration": 411538,
      "SoundDuration": 411538,
      "Delta": 192922883
    },
    {
      "NoteNumber": 50,
      "Velocity": 80,
      "Duration": 411539,
      "SoundDuration": 411539,
      "Delta": 193384421
    },
    {
      "NoteNumber": 67,
      "Velocity": 80,
      "Duration": 180770,
      "SoundDuration": 180770,
      "Delta": 193615190
    },
    {
      "NoteNumber": 67,
      "Velocity": 80,
      "Duration": 218269,
      "SoundDuration": 218269,
      "Delta": 193845960
    },
    {
      "NoteNumber": 50,
      "Velocity": 80,
      "Duration": 411537,
      "SoundDuration": 411537,
      "Delta": 193845960
    },
    {
      "NoteNumber": 69,
      "Velocity": 80,
      "Duration": 180769,
      "SoundDuration": 180769,
      "Delta": 194076728
    },
    {
      "NoteNumber": 66,
      "Velocity": 80,
      "Duration": 180769,
      "SoundDuration": 180769,
      "Delta": 194076728
    },
    {
      "NoteNumber": 69,
      "Velocity": 80,
      "Duration": 1314421,
      "SoundDuration": 1314421,
      "Delta": 194307497
    },
    {
      "NoteNumber": 66,
      "Velocity": 80,
      "Duration": 1314421,
      "SoundDuration": 1314421,
      "Delta": 194307497
    },
    {
      "NoteNumber": 50,
      "Velocity": 80,
      "Duration": 411538,
      "SoundDuration": 411538,
      "Delta": 194307497
    },
    {
      "NoteNumber": 50,
      "Velocity": 80,
      "Duration": 411539,
      "SoundDuration": 411539,
      "Delta": 194769035
    },
    {
      "NoteNumber": 50,
      "Velocity": 80,
      "Duration": 411537,
      "SoundDuration": 411537,
      "Delta": 195230574
    },
    {
      "NoteNumber": 71,
      "Velocity": 80,
      "Duration": 922114,
      "SoundDuration": 922114,
      "Delta": 195692111
    },
    {
      "NoteNumber": 50,
      "Velocity": 80,
      "Duration": 411538,
      "SoundDuration": 411538,
      "Delta": 195692111
    },
    {
      "NoteNumber": 50,
      "Velocity": 80,
      "Duration": 411539,
      "SoundDuration": 411539,
      "Delta": 196153649
    },
    {
      "NoteNumber": 50,
      "Velocity": 80,
      "Duration": 411537,
      "SoundDuration": 411537,
      "Delta": 196615188
    },
    {
      "NoteNumber": 74,
      "Velocity": 80,
      "Duration": 875960,
      "SoundDuration": 875960,
      "Delta": 196615188
    },
    {
      "NoteNumber": 50,
      "Velocity": 80,
      "Duration": 437499,
      "SoundDuration": 437499,
      "Delta": 197076725
    },
    {
      "NoteNumber": 67,
      "Velocity": 80,
      "Duration": 1796153,
      "SoundDuration": 1796153,
      "Delta": 197538263
    },
    {
      "NoteNumber": 71,
      "Velocity": 80,
      "Duration": 361539,
      "SoundDuration": 361539,
      "Delta": 197538263
    },
    {
      "NoteNumber": 55,
      "Velocity": 80,
      "Duration": 1752882,
      "SoundDuration": 1752882,
      "Delta": 197538263
    },
    {
      "NoteNumber": 40,
      "Velocity": 80,
      "Duration": 1846152,
      "SoundDuration": 1846152,
      "Delta": 197538263
    },
    {
      "NoteNumber": 64,
      "Velocity": 80,
      "Duration": 823076,
      "SoundDuration": 823076,
      "Delta": 197538263
    },
    {
      "NoteNumber": 52,
      "Velocity": 80,
      "Duration": 1752882,
      "SoundDuration": 1752882,
      "Delta": 197538263
    },
    {
      "NoteNumber": 71,
      "Velocity": 80,
      "Duration": 437499,
      "SoundDuration": 437499,
      "Delta": 197999802
    },
    {
      "NoteNumber": 64,
      "Velocity": 80,
      "Duration": 437499,
      "SoundDuration": 437499,
      "Delta": 198461339
    },
    {
      "NoteNumber": 71,
      "Velocity": 80,
      "Duration": 437499,
      "SoundDuration": 437499,
      "Delta": 198922877
    },
    {
      "NoteNumber": 67,
      "Velocity": 80,
      "Duration": 1284614,
      "SoundDuration": 1284614,
      "Delta": 199384416
    },
    {
      "NoteNumber": 62,
      "Velocity": 80,
      "Duration": 218269,
      "SoundDuration": 218269,
      "Delta": 199384416
    },
    {
      "NoteNumber": 55,
      "Velocity": 80,
      "Duration": 1752882,
      "SoundDuration": 1752882,
      "Delta": 199384416
    },
    {
      "NoteNumber": 64,
      "Velocity": 80,
      "Duration": 130769,
      "SoundDuration": 130769,
      "Delta": 199384416
    },
    {
      "NoteNumber": 36,
      "Velocity": 80,
      "Duration": 1846151,
      "SoundDuration": 1846151,
      "Delta": 199384416
    },
    {
      "NoteNumber": 60,
      "Velocity": 80,
      "Duration": 1846151,
      "SoundDuration": 1846151,
      "Delta": 199384416
    },
    {
      "NoteNumber": 48,
      "Velocity": 80,
      "Duration": 1752882,
      "SoundDuration": 1752882,
      "Delta": 199384416
    },
    {
      "NoteNumber": 64,
      "Velocity": 80,
      "Duration": 180768,
      "SoundDuration": 180768,
      "Delta": 199615185
    },
    {
      "NoteNumber": 64,
      "Velocity": 80,
      "Duration": 218269,
      "SoundDuration": 218269,
      "Delta": 199845953
    },
    {
      "NoteNumber": 62,
      "Velocity": 80,
      "Duration": 218269,
      "SoundDuration": 218269,
      "Delta": 200076722
    },
    {
      "NoteNumber": 64,
      "Velocity": 80,
      "Duration": 437499,
      "SoundDuration": 437499,
      "Delta": 200307491
    },
    {
      "NoteNumber": 67,
      "Velocity": 80,
      "Duration": 229807,
      "SoundDuration": 229807,
      "Delta": 200769030
    },
    {
      "NoteNumber": 66,
      "Velocity": 80,
      "Duration": 130768,
      "SoundDuration": 130768,
      "Delta": 200999799
    },
    {
      "NoteNumber": 62,
      "Velocity": 80,
      "Duration": 1284614,
      "SoundDuration": 1284614,
      "Delta": 201230567
    },
    {
      "NoteNumber": 69,
      "Velocity": 80,
      "Duration": 1846151,
      "SoundDuration": 1846151,
      "Delta": 201230567
    },
    {
      "NoteNumber": 66,
      "Velocity": 80,
      "Duration": 1846151,
      "SoundDuration": 1846151,
      "Delta": 201230567
    },
    {
      "NoteNumber": 38,
      "Velocity": 80,
      "Duration": 1846151,
      "SoundDuration": 1846151,
      "Delta": 201230567
    },
    {
      "NoteNumber": 50,
      "Velocity": 80,
      "Duration": 873077,
      "SoundDuration": 873077,
      "Delta": 201230567
    },
    {
      "NoteNumber": 57,
      "Velocity": 80,
      "Duration": 873077,
      "SoundDuration": 873077,
      "Delta": 201230567
    },
    {
      "NoteNumber": 50,
      "Velocity": 80,
      "Duration": 875960,
      "SoundDuration": 875960,
      "Delta": 202153644
    },
    {
      "NoteNumber": 57,
      "Velocity": 80,
      "Duration": 875960,
      "SoundDuration": 875960,
      "Delta": 202153644
    },
    {
      "NoteNumber": 62,
      "Velocity": 80,
      "Duration": 411538,
      "SoundDuration": 411538,
      "Delta": 202615181
    },
    {
      "NoteNumber": 67,
      "Velocity": 80,
      "Duration": 923076,
      "SoundDuration": 923076,
      "Delta": 203076719
    },
    {
      "NoteNumber": 71,
      "Velocity": 80,
      "Duration": 923076,
      "SoundDuration": 923076,
      "Delta": 203076719
    },
    {
      "NoteNumber": 43,
      "Velocity": 80,
      "Duration": 923076,
      "SoundDuration": 923076,
      "Delta": 203076719
    },
    {
      "NoteNumber": 62,
      "Velocity": 80,
      "Duration": 873076,
      "SoundDuration": 873076,
      "Delta": 203076719
    },
    {
      "NoteNumber": 55,
      "Velocity": 80,
      "Duration": 875960,
      "SoundDuration": 875960,
      "Delta": 203076719
    },
    {
      "NoteNumber": 74,
      "Velocity": 80,
      "Duration": 437499,
      "SoundDuration": 437499,
      "Delta": 203538257
    },
    {
      "NoteNumber": 62,
      "Velocity": 80,
      "Duration": 923076,
      "SoundDuration": 923076,
      "Delta": 203999795
    },
    {
      "NoteNumber": 69,
      "Velocity": 80,
      "Duration": 923076,
      "SoundDuration": 923076,
      "Delta": 203999795
    },
    {
      "NoteNumber": 66,
      "Velocity": 80,
      "Duration": 923076,
      "SoundDuration": 923076,
      "Delta": 203999795
    },
    {
      "NoteNumber": 38,
      "Velocity": 80,
      "Duration": 923076,
      "SoundDuration": 923076,
      "Delta": 203999795
    },
    {
      "NoteNumber": 50,
      "Velocity": 80,
      "Duration": 875960,
      "SoundDuration": 875960,
      "Delta": 203999795
    },
    {
      "NoteNumber": 54,
      "Velocity": 80,
      "Duration": 875960,
      "SoundDuration": 875960,
      "Delta": 203999795
    },
    {
      "NoteNumber": 71,
      "Velocity": 80,
      "Duration": 411538,
      "SoundDuration": 411538,
      "Delta": 204461333
    },
    {
      "NoteNumber": 67,
      "Velocity": 80,
      "Duration": 1796152,
      "SoundDuration": 1796152,
      "Delta": 204922871
    },
    {
      "NoteNumber": 71,
      "Velocity": 80,
      "Duration": 361538,
      "SoundDuration": 361538,
      "Delta": 204922871
    },
    {
      "NoteNumber": 55,
      "Velocity": 80,
      "Duration": 1752882,
      "SoundDuration": 1752882,
      "Delta": 204922871
    },
    {
      "NoteNumber": 40,
      "Velocity": 80,
      "Duration": 1846151,
      "SoundDuration": 1846151,
      "Delta": 204922871
    },
    {
      "NoteNumber": 64,
      "Velocity": 80,
      "Duration": 823076,
      "SoundDuration": 823076,
      "Delta": 204922871
    },
    {
      "NoteNumber": 52,
      "Velocity": 80,
      "Duration": 1752882,
      "SoundDuration": 1752882,
      "Delta": 204922871
    },
    {
      "NoteNumber": 71,
      "Velocity": 80,
      "Duration": 437499,
      "SoundDuration": 437499,
      "Delta": 205384409
    },
    {
      "NoteNumber": 64,
      "Velocity": 80,
      "Duration": 437499,
      "SoundDuration": 437499,
      "Delta": 205845947
    },
    {
      "NoteNumber": 71,
      "Velocity": 80,
      "Duration": 437499,
      "SoundDuration": 437499,
      "Delta": 206307485
    },
    {
      "NoteNumber": 67,
      "Velocity": 80,
      "Duration": 1284614,
      "SoundDuration": 1284614,
      "Delta": 206769023
    },
    {
      "NoteNumber": 55,
      "Velocity": 80,
      "Duration": 1752882,
      "SoundDuration": 1752882,
      "Delta": 206769023
    },
    {
      "NoteNumber": 64,
      "Velocity": 80,
      "Duration": 361538,
      "SoundDuration": 361538,
      "Delta": 206769023
    },
    {
      "NoteNumber": 36,
      "Velocity": 80,
      "Duration": 1846151,
      "SoundDuration": 1846151,
      "Delta": 206769023
    },
    {
      "NoteNumber": 60,
      "Velocity": 80,
      "Duration": 1846151,
      "SoundDuration": 1846151,
      "Delta": 206769023
    },
    {
      "NoteNumber": 48,
      "Velocity": 80,
      "Duration": 1752882,
      "SoundDuration": 1752882,
      "Delta": 206769023
    },
    {
      "NoteNumber": 64,
      "Velocity": 80,
      "Duration": 218269,
      "SoundDuration": 218269,
      "Delta": 207230561
    },
    {
      "NoteNumber": 62,
      "Velocity": 80,
      "Duration": 218269,
      "SoundDuration": 218269,
      "Delta": 207461330
    },
    {
      "NoteNumber": 64,
      "Velocity": 80,
      "Duration": 218269,
      "SoundDuration": 218269,
      "Delta": 207692099
    },
    {
      "NoteNumber": 62,
      "Velocity": 80,
      "Duration": 218269,
      "SoundDuration": 218269,
      "Delta": 207922869
    },
    {
      "NoteNumber": 67,
      "Velocity": 80,
      "Duration": 460576,
      "SoundDuration": 460576,
      "Delta": 208153637
    },
    {
      "NoteNumber": 62,
      "Velocity": 80,
      "Duration": 361538,
      "SoundDuration": 361538,
      "Delta": 208615175
    },
    {
      "NoteNumber": 69,
      "Velocity": 80,
      "Duration": 1515383,
      "SoundDuration": 1515383,
      "Delta": 208615175
    },
    {
      "NoteNumber": 66,
      "Velocity": 80,
      "Duration": 1846152,
      "SoundDuration": 1846152,
      "Delta": 208615175
    },
    {
      "NoteNumber": 38,
      "Velocity": 80,
      "Duration": 1846152,
      "SoundDuration": 1846152,
      "Delta": 208615175
    },
    {
      "NoteNumber": 50,
      "Velocity": 80,
      "Duration": 873076,
      "SoundDuration": 873076,
      "Delta": 208615175
    },
    {
      "NoteNumber": 57,
      "Velocity": 80,
      "Duration": 873076,
      "SoundDuration": 873076,
      "Delta": 208615175
    },
    {
      "NoteNumber": 64,
      "Velocity": 80,
      "Duration": 229807,
      "SoundDuration": 229807,
      "Delta": 208845944
    },
    {
      "NoteNumber": 62,
      "Velocity": 80,
      "Duration": 875960,
      "SoundDuration": 875960,
      "Delta": 209076713
    },
    {
      "NoteNumber": 50,
      "Velocity": 80,
      "Duration": 875960,
      "SoundDuration": 875960,
      "Delta": 209538251
    },
    {
      "NoteNumber": 57,
      "Velocity": 80,
      "Duration": 875960,
      "SoundDuration": 875960,
      "Delta": 209538251
    },
    {
      "NoteNumber": 67,
      "Velocity": 80,
      "Duration": 218269,
      "SoundDuration": 218269,
      "Delta": 209999789
    },
    {
      "NoteNumber": 69,
      "Velocity": 80,
      "Duration": 218269,
      "SoundDuration": 218269,
      "Delta": 210230558
    },
    {
      "NoteNumber": 67,
      "Velocity": 80,
      "Duration": 923076,
      "SoundDuration": 923076,
      "Delta": 210461327
    },
    {
      "NoteNumber": 71,
      "Velocity": 80,
      "Duration": 923076,
      "SoundDuration": 923076,
      "Delta": 210461327
    },
    {
      "NoteNumber": 43,
      "Velocity": 80,
      "Duration": 923076,
      "SoundDuration": 923076,
      "Delta": 210461327
    },
    {
      "NoteNumber": 62,
      "Velocity": 80,
      "Duration": 873077,
      "SoundDuration": 873077,
      "Delta": 210461327
    },
    {
      "NoteNumber": 55,
      "Velocity": 80,
      "Duration": 875960,
      "SoundDuration": 875960,
      "Delta": 210461327
    },
    {
      "NoteNumber": 74,
      "Velocity": 80,
      "Duration": 437499,
      "SoundDuration": 437499,
      "Delta": 210922866
    },
    {
      "NoteNumber": 62,
      "Velocity": 80,
      "Duration": 923076,
      "SoundDuration": 923076,
      "Delta": 211384404
    },
    {
      "NoteNumber": 69,
      "Velocity": 80,
      "Duration": 923076,
      "SoundDuration": 923076,
      "Delta": 211384404
    },
    {
      "NoteNumber": 66,
      "Velocity": 80,
      "Duration": 923076,
      "SoundDuration": 923076,
      "Delta": 211384404
    },
    {
      "NoteNumber": 38,
      "Velocity": 80,
      "Duration": 923076,
      "SoundDuration": 923076,
      "Delta": 211384404
    },
    {
      "NoteNumber": 50,
      "Velocity": 80,
      "Duration": 875960,
      "SoundDuration": 875960,
      "Delta": 211384404
    },
    {
      "NoteNumber": 54,
      "Velocity": 80,
      "Duration": 875960,
      "SoundDuration": 875960,
      "Delta": 211384404
    },
    {
      "NoteNumber": 71,
      "Velocity": 80,
      "Duration": 411539,
      "SoundDuration": 411539,
      "Delta": 211845941
    },
    {
      "NoteNumber": 67,
      "Velocity": 80,
      "Duration": 1796152,
      "SoundDuration": 1796152,
      "Delta": 212307480
    },
    {
      "NoteNumber": 71,
      "Velocity": 80,
      "Duration": 361538,
      "SoundDuration": 361538,
      "Delta": 212307480
    },
    {
      "NoteNumber": 55,
      "Velocity": 80,
      "Duration": 1752882,
      "SoundDuration": 1752882,
      "Delta": 212307480
    },
    {
      "NoteNumber": 40,
      "Velocity": 80,
      "Duration": 1846151,
      "SoundDuration": 1846151,
      "Delta": 212307480
    },
    {
      "NoteNumber": 64,
      "Velocity": 80,
      "Duration": 823075,
      "SoundDuration": 823075,
      "Delta": 212307480
    },
    {
      "NoteNumber": 52,
      "Velocity": 80,
      "Duration": 1752882,
      "SoundDuration": 1752882,
      "Delta": 212307480
    },
    {
      "NoteNumber": 71,
      "Velocity": 80,
      "Duration": 437499,
      "SoundDuration": 437499,
      "Delta": 212769018
    },
    {
      "NoteNumber": 64,
      "Velocity": 80,
      "Duration": 437499,
      "SoundDuration": 437499,
      "Delta": 213230555
    },
    {
      "NoteNumber": 71,
      "Velocity": 80,
      "Duration": 437499,
      "SoundDuration": 437499,
      "Delta": 213692094
    },
    {
      "NoteNumber": 67,
      "Velocity": 80,
      "Duration": 1284614,
      "SoundDuration": 1284614,
      "Delta": 214153632
    },
    {
      "NoteNumber": 62,
      "Velocity": 80,
      "Duration": 218269,
      "SoundDuration": 218269,
      "Delta": 214153632
    },
    {
      "NoteNumber": 55,
      "Velocity": 80,
      "Duration": 1752882,
      "SoundDuration": 1752882,
      "Delta": 214153632
    },
    {
      "NoteNumber": 64,
      "Velocity": 80,
      "Duration": 130768,
      "SoundDuration": 130768,
      "Delta": 214153632
    },
    {
      "NoteNumber": 36,
      "Velocity": 80,
      "Duration": 1846151,
      "SoundDuration": 1846151,
      "Delta": 214153632
    },
    {
      "NoteNumber": 60,
      "Velocity": 80,
      "Duration": 1846151,
      "SoundDuration": 1846151,
      "Delta": 214153632
    },
    {
      "NoteNumber": 48,
      "Velocity": 80,
      "Duration": 1752882,
      "SoundDuration": 1752882,
      "Delta": 214153632
    },
    {
      "NoteNumber": 64,
      "Velocity": 80,
      "Duration": 180769,
      "SoundDuration": 180769,
      "Delta": 214384400
    },
    {
      "NoteNumber": 64,
      "Velocity": 80,
      "Duration": 218269,
      "SoundDuration": 218269,
      "Delta": 214615169
    },
    {
      "NoteNumber": 62,
      "Velocity": 80,
      "Duration": 218269,
      "SoundDuration": 218269,
      "Delta": 214845939
    },
    {
      "NoteNumber": 64,
      "Velocity": 80,
      "Duration": 437499,
      "SoundDuration": 437499,
      "Delta": 215076708
    },
    {
      "NoteNumber": 67,
      "Velocity": 80,
      "Duration": 229807,
      "SoundDuration": 229807,
      "Delta": 215538246
    },
    {
      "NoteNumber": 66,
      "Velocity": 80,
      "Duration": 130769,
      "SoundDuration": 130769,
      "Delta": 215769014
    },
    {
      "NoteNumber": 62,
      "Velocity": 80,
      "Duration": 1284614,
      "SoundDuration": 1284614,
      "Delta": 215999783
    },
    {
      "NoteNumber": 69,
      "Velocity": 80,
      "Duration": 1846152,
      "SoundDuration": 1846152,
      "Delta": 215999783
    },
    {
      "NoteNumber": 66,
      "Velocity": 80,
      "Duration": 1846152,
      "SoundDuration": 1846152,
      "Delta": 215999783
    },
    {
      "NoteNumber": 38,
      "Velocity": 80,
      "Duration": 1846152,
      "SoundDuration": 1846152,
      "Delta": 215999783
    },
    {
      "NoteNumber": 50,
      "Velocity": 80,
      "Duration": 873077,
      "SoundDuration": 873077,
      "Delta": 215999783
    },
    {
      "NoteNumber": 57,
      "Velocity": 80,
      "Duration": 873077,
      "SoundDuration": 873077,
      "Delta": 215999783
    },
    {
      "NoteNumber": 50,
      "Velocity": 80,
      "Duration": 875960,
      "SoundDuration": 875960,
      "Delta": 216922860
    },
    {
      "NoteNumber": 57,
      "Velocity": 80,
      "Duration": 875960,
      "SoundDuration": 875960,
      "Delta": 216922860
    },
    {
      "NoteNumber": 62,
      "Velocity": 80,
      "Duration": 411539,
      "SoundDuration": 411539,
      "Delta": 217384397
    },
    {
      "NoteNumber": 67,
      "Velocity": 80,
      "Duration": 923075,
      "SoundDuration": 923075,
      "Delta": 217845936
    },
    {
      "NoteNumber": 71,
      "Velocity": 80,
      "Duration": 923075,
      "SoundDuration": 923075,
      "Delta": 217845936
    },
    {
      "NoteNumber": 43,
      "Velocity": 80,
      "Duration": 923075,
      "SoundDuration": 923075,
      "Delta": 217845936
    },
    {
      "NoteNumber": 62,
      "Velocity": 80,
      "Duration": 873075,
      "SoundDuration": 873075,
      "Delta": 217845936
    },
    {
      "NoteNumber": 55,
      "Velocity": 80,
      "Duration": 875960,
      "SoundDuration": 875960,
      "Delta": 217845936
    },
    {
      "NoteNumber": 74,
      "Velocity": 80,
      "Duration": 437499,
      "SoundDuration": 437499,
      "Delta": 218307473
    },
    {
      "NoteNumber": 62,
      "Velocity": 80,
      "Duration": 923076,
      "SoundDuration": 923076,
      "Delta": 218769011
    },
    {
      "NoteNumber": 69,
      "Velocity": 80,
      "Duration": 923076,
      "SoundDuration": 923076,
      "Delta": 218769011
    },
    {
      "NoteNumber": 66,
      "Velocity": 80,
      "Duration": 923076,
      "SoundDuration": 923076,
      "Delta": 218769011
    },
    {
      "NoteNumber": 38,
      "Velocity": 80,
      "Duration": 923076,
      "SoundDuration": 923076,
      "Delta": 218769011
    },
    {
      "NoteNumber": 50,
      "Velocity": 80,
      "Duration": 875960,
      "SoundDuration": 875960,
      "Delta": 218769011
    },
    {
      "NoteNumber": 54,
      "Velocity": 80,
      "Duration": 875960,
      "SoundDuration": 875960,
      "Delta": 218769011
    },
    {
      "NoteNumber": 71,
      "Velocity": 80,
      "Duration": 411537,
      "SoundDuration": 411537,
      "Delta": 219230550
    },
    {
      "NoteNumber": 67,
      "Velocity": 80,
      "Duration": 1796152,
      "SoundDuration": 1796152,
      "Delta": 219692087
    },
    {
      "NoteNumber": 71,
      "Velocity": 80,
      "Duration": 361538,
      "SoundDuration": 361538,
      "Delta": 219692087
    },
    {
      "NoteNumber": 55,
      "Velocity": 80,
      "Duration": 1752882,
      "SoundDuration": 1752882,
      "Delta": 219692087
    },
    {
      "NoteNumber": 40,
      "Velocity": 80,
      "Duration": 1846151,
      "SoundDuration": 1846151,
      "Delta": 219692087
    },
    {
      "NoteNumber": 64,
      "Velocity": 80,
      "Duration": 823077,
      "SoundDuration": 823077,
      "Delta": 219692087
    },
    {
      "NoteNumber": 52,
      "Velocity": 80,
      "Duration": 1752882,
      "SoundDuration": 1752882,
      "Delta": 219692087
    },
    {
      "NoteNumber": 71,
      "Velocity": 80,
      "Duration": 437499,
      "SoundDuration": 437499,
      "Delta": 220153625
    },
    {
      "NoteNumber": 64,
      "Velocity": 80,
      "Duration": 437499,
      "SoundDuration": 437499,
      "Delta": 220615164
    },
    {
      "NoteNumber": 71,
      "Velocity": 80,
      "Duration": 437499,
      "SoundDuration": 437499,
      "Delta": 221076701
    },
    {
      "NoteNumber": 67,
      "Velocity": 80,
      "Duration": 1284615,
      "SoundDuration": 1284615,
      "Delta": 221538239
    },
    {
      "NoteNumber": 55,
      "Velocity": 80,
      "Duration": 1752882,
      "SoundDuration": 1752882,
      "Delta": 221538239
    },
    {
      "NoteNumber": 64,
      "Velocity": 80,
      "Duration": 361539,
      "SoundDuration": 361539,
      "Delta": 221538239
    },
    {
      "NoteNumber": 36,
      "Velocity": 80,
      "Duration": 1846152,
      "SoundDuration": 1846152,
      "Delta": 221538239
    },
    {
      "NoteNumber": 60,
      "Velocity": 80,
      "Duration": 1846152,
      "SoundDuration": 1846152,
      "Delta": 221538239
    },
    {
      "NoteNumber": 48,
      "Velocity": 80,
      "Duration": 1752882,
      "SoundDuration": 1752882,
      "Delta": 221538239
    },
    {
      "NoteNumber": 64,
      "Velocity": 80,
      "Duration": 218269,
      "SoundDuration": 218269,
      "Delta": 221999778
    },
    {
      "NoteNumber": 62,
      "Velocity": 80,
      "Duration": 218269,
      "SoundDuration": 218269,
      "Delta": 222230547
    },
    {
      "NoteNumber": 64,
      "Velocity": 80,
      "Duration": 218269,
      "SoundDuration": 218269,
      "Delta": 222461315
    },
    {
      "NoteNumber": 62,
      "Velocity": 80,
      "Duration": 218269,
      "SoundDuration": 218269,
      "Delta": 222692085
    },
    {
      "NoteNumber": 67,
      "Velocity": 80,
      "Duration": 460576,
      "SoundDuration": 460576,
      "Delta": 222922854
    },
    {
      "NoteNumber": 62,
      "Velocity": 80,
      "Duration": 361537,
      "SoundDuration": 361537,
      "Delta": 223384392
    },
    {
      "NoteNumber": 69,
      "Velocity": 80,
      "Duration": 1515383,
      "SoundDuration": 1515383,
      "Delta": 223384392
    },
    {
      "NoteNumber": 66,
      "Velocity": 80,
      "Duration": 1846151,
      "SoundDuration": 1846151,
      "Delta": 223384392
    },
    {
      "NoteNumber": 38,
      "Velocity": 80,
      "Duration": 1846151,
      "SoundDuration": 1846151,
      "Delta": 223384392
    },
    {
      "NoteNumber": 50,
      "Velocity": 80,
      "Duration": 873076,
      "SoundDuration": 873076,
      "Delta": 223384392
    },
    {
      "NoteNumber": 57,
      "Velocity": 80,
      "Duration": 873076,
      "SoundDuration": 873076,
      "Delta": 223384392
    },
    {
      "NoteNumber": 64,
      "Velocity": 80,
      "Duration": 229807,
      "SoundDuration": 229807,
      "Delta": 223615161
    },
    {
      "NoteNumber": 62,
      "Velocity": 80,
      "Duration": 437499,
      "SoundDuration": 437499,
      "Delta": 223845929
    },
    {
      "NoteNumber": 50,
      "Velocity": 80,
      "Duration": 875960,
      "SoundDuration": 875960,
      "Delta": 224307468
    },
    {
      "NoteNumber": 57,
      "Velocity": 80,
      "Duration": 875960,
      "SoundDuration": 875960,
      "Delta": 224307468
    },
    {
      "NoteNumber": 67,
      "Velocity": 80,
      "Duration": 218269,
      "SoundDuration": 218269,
      "Delta": 224769006
    },
    {
      "NoteNumber": 69,
      "Velocity": 80,
      "Duration": 218269,
      "SoundDuration": 218269,
      "Delta": 224999775
    },
    {
      "NoteNumber": 67,
      "Velocity": 80,
      "Duration": 361539,
      "SoundDuration": 361539,
      "Delta": 225230543
    },
    {
      "NoteNumber": 71,
      "Velocity": 80,
      "Duration": 823077,
      "SoundDuration": 823077,
      "Delta": 225230543
    },
    {
      "NoteNumber": 43,
      "Velocity": 80,
      "Duration": 1846152,
      "SoundDuration": 1846152,
      "Delta": 225230543
    },
    {
      "NoteNumber": 62,
      "Velocity": 80,
      "Duration": 1846152,
      "SoundDuration": 1846152,
      "Delta": 225230543
    },
    {
      "NoteNumber": 55,
      "Velocity": 80,
      "Duration": 1752882,
      "SoundDuration": 1752882,
      "Delta": 225230543
    },
    {
      "NoteNumber": 69,
      "Velocity": 80,
      "Duration": 218269,
      "SoundDuration": 218269,
      "Delta": 225461313
    },
    {
      "NoteNumber": 67,
      "Velocity": 80,
      "Duration": 218269,
      "SoundDuration": 218269,
      "Delta": 225692082
    },
    {
      "NoteNumber": 69,
      "Velocity": 80,
      "Duration": 218269,
      "SoundDuration": 218269,
      "Delta": 225922850
    },
    {
      "NoteNumber": 71,
      "Velocity": 80,
      "Duration": 229807,
      "SoundDuration": 229807,
      "Delta": 226153620
    },
    {
      "NoteNumber": 69,
      "Velocity": 80,
      "Duration": 218269,
      "SoundDuration": 218269,
      "Delta": 226384389
    },
    {
      "NoteNumber": 67,
      "Velocity": 80,
      "Duration": 229807,
      "SoundDuration": 229807,
      "Delta": 226615157
    },
    {
      "NoteNumber": 69,
      "Velocity": 80,
      "Duration": 218269,
      "SoundDuration": 218269,
      "Delta": 226845927
    },
    {
      "NoteNumber": 67,
      "Velocity": 80,
      "Duration": 1796152,
      "SoundDuration": 1796152,
      "Delta": 227076696
    },
    {
      "NoteNumber": 71,
      "Velocity": 80,
      "Duration": 1846151,
      "SoundDuration": 1846151,
      "Delta": 227076696
    },
    {
      "NoteNumber": 55,
      "Velocity": 80,
      "Duration": 1314421,
      "SoundDuration": 1314421,
      "Delta": 227076696
    },
    {
      "NoteNumber": 40,
      "Velocity": 80,
      "Duration": 1846151,
      "SoundDuration": 1846151,
      "Delta": 227076696
    },
    {
      "NoteNumber": 64,
      "Velocity": 80,
      "Duration": 1796152,
      "SoundDuration": 1796152,
      "Delta": 227076696
    },
    {
      "NoteNumber": 52,
      "Velocity": 80,
      "Duration": 1314421,
      "SoundDuration": 1314421,
      "Delta": 227076696
    },
    {
      "NoteNumber": 76,
      "Velocity": 80,
      "Duration": 922114,
      "SoundDuration": 922114,
      "Delta": 227999771
    },
    {
      "NoteNumber": 55,
      "Velocity": 80,
      "Duration": 218269,
      "SoundDuration": 218269,
      "Delta": 228692078
    },
    {
      "NoteNumber": 67,
      "Velocity": 80,
      "Duration": 1846151,
      "SoundDuration": 1846151,
      "Delta": 228922848
    },
    {
      "NoteNumber": 64,
      "Velocity": 80,
      "Duration": 1846151,
      "SoundDuration": 1846151,
      "Delta": 228922848
    },
    {
      "NoteNumber": 52,
      "Velocity": 80,
      "Duration": 1314421,
      "SoundDuration": 1314421,
      "Delta": 228922848
    },
    {
      "NoteNumber": 36,
      "Velocity": 80,
      "Duration": 1846151,
      "SoundDuration": 1846151,
      "Delta": 228922848
    },
    {
      "NoteNumber": 60,
      "Velocity": 80,
      "Duration": 1846151,
      "SoundDuration": 1846151,
      "Delta": 228922848
    },
    {
      "NoteNumber": 48,
      "Velocity": 80,
      "Duration": 1314421,
      "SoundDuration": 1314421,
      "Delta": 228922848
    },
    {
      "NoteNumber": 74,
      "Velocity": 80,
      "Duration": 922114,
      "SoundDuration": 922114,
      "Delta": 229845924
    },
    {
      "NoteNumber": 57,
      "Velocity": 80,
      "Duration": 1972113,
      "SoundDuration": 1972113,
      "Delta": 230538231
    },
    {
      "NoteNumber": 62,
      "Velocity": 80,
      "Duration": 1796153,
      "SoundDuration": 1796153,
      "Delta": 230768999
    },
    {
      "NoteNumber": 69,
      "Velocity": 80,
      "Duration": 823077,
      "SoundDuration": 823077,
      "Delta": 230768999
    },
    {
      "NoteNumber": 66,
      "Velocity": 80,
      "Duration": 1846152,
      "SoundDuration": 1846152,
      "Delta": 230768999
    },
    {
      "NoteNumber": 38,
      "Velocity": 80,
      "Duration": 1846152,
      "SoundDuration": 1846152,
      "Delta": 230768999
    },
    {
      "NoteNumber": 50,
      "Velocity": 80,
      "Duration": 1752882,
      "SoundDuration": 1752882,
      "Delta": 230768999
    },
    {
      "NoteNumber": 69,
      "Velocity": 80,
      "Duration": 218269,
      "SoundDuration": 218269,
      "Delta": 231692076
    },
    {
      "NoteNumber": 67,
      "Velocity": 80,
      "Duration": 642307,
      "SoundDuration": 642307,
      "Delta": 231922845
    },
    {
      "NoteNumber": 67,
      "Velocity": 80,
      "Duration": 130768,
      "SoundDuration": 130768,
      "Delta": 232615152
    },
    {
      "NoteNumber": 71,
      "Velocity": 80,
      "Duration": 923075,
      "SoundDuration": 923075,
      "Delta": 232615152
    },
    {
      "NoteNumber": 43,
      "Velocity": 80,
      "Duration": 923075,
      "SoundDuration": 923075,
      "Delta": 232615152
    },
    {
      "NoteNumber": 62,
      "Velocity": 80,
      "Duration": 873075,
      "SoundDuration": 873075,
      "Delta": 232615152
    },
    {
      "NoteNumber": 55,
      "Velocity": 80,
      "Duration": 411537,
      "SoundDuration": 411537,
      "Delta": 232615152
    },
    {
      "NoteNumber": 69,
      "Velocity": 80,
      "Duration": 218269,
      "SoundDuration": 218269,
      "Delta": 232615152
    },
    {
      "NoteNumber": 67,
      "Velocity": 80,
      "Duration": 656730,
      "SoundDuration": 656730,
      "Delta": 232845920
    },
    {
      "NoteNumber": 55,
      "Velocity": 80,
      "Duration": 437499,
      "SoundDuration": 437499,
      "Delta": 233076689
    },
    {
      "NoteNumber": 62,
      "Velocity": 80,
      "Duration": 923076,
      "SoundDuration": 923076,
      "Delta": 233538227
    },
    {
      "NoteNumber": 69,
      "Velocity": 80,
      "Duration": 923076,
      "SoundDuration": 923076,
      "Delta": 233538227
    },
    {
      "NoteNumber": 66,
      "Velocity": 80,
      "Duration": 923076,
      "SoundDuration": 923076,
      "Delta": 233538227
    },
    {
      "NoteNumber": 38,
      "Velocity": 80,
      "Duration": 923076,
      "SoundDuration": 923076,
      "Delta": 233538227
    },
    {
      "NoteNumber": 50,
      "Velocity": 80,
      "Duration": 875960,
      "SoundDuration": 875960,
      "Delta": 233538227
    },
    {
      "NoteNumber": 54,
      "Velocity": 80,
      "Duration": 875960,
      "SoundDuration": 875960,
      "Delta": 233538227
    },
    {
      "NoteNumber": 67,
      "Velocity": 80,
      "Duration": 642307,
      "SoundDuration": 642307,
      "Delta": 233768996
    },
    {
      "NoteNumber": 67,
      "Velocity": 80,
      "Duration": 1796152,
      "SoundDuration": 1796152,
      "Delta": 234461303
    },
    {
      "NoteNumber": 71,
      "Velocity": 80,
      "Duration": 1846151,
      "SoundDuration": 1846151,
      "Delta": 234461303
    },
    {
      "NoteNumber": 55,
      "Velocity": 80,
      "Duration": 1314421,
      "SoundDuration": 1314421,
      "Delta": 234461303
    },
    {
      "NoteNumber": 40,
      "Velocity": 80,
      "Duration": 1846151,
      "SoundDuration": 1846151,
      "Delta": 234461303
    },
    {
      "NoteNumber": 64,
      "Velocity": 80,
      "Duration": 1796152,
      "SoundDuration": 1796152,
      "Delta": 234461303
    },
    {
      "NoteNumber": 52,
      "Velocity": 80,
      "Duration": 1314421,
      "SoundDuration": 1314421,
      "Delta": 234461303
    },
    {
      "NoteNumber": 76,
      "Velocity": 80,
      "Duration": 922114,
      "SoundDuration": 922114,
      "Delta": 235384380
    },
    {
      "NoteNumber": 55,
      "Velocity": 80,
      "Duration": 218269,
      "SoundDuration": 218269,
      "Delta": 236076687
    },
    {
      "NoteNumber": 67,
      "Velocity": 80,
      "Duration": 1846152,
      "SoundDuration": 1846152,
      "Delta": 236307455
    },
    {
      "NoteNumber": 64,
      "Velocity": 80,
      "Duration": 1846152,
      "SoundDuration": 1846152,
      "Delta": 236307455
    },
    {
      "NoteNumber": 52,
      "Velocity": 80,
      "Duration": 1314421,
      "SoundDuration": 1314421,
      "Delta": 236307455
    },
    {
      "NoteNumber": 36,
      "Velocity": 80,
      "Duration": 1846152,
      "SoundDuration": 1846152,
      "Delta": 236307455
    },
    {
      "NoteNumber": 60,
      "Velocity": 80,
      "Duration": 1846152,
      "SoundDuration": 1846152,
      "Delta": 236307455
    },
    {
      "NoteNumber": 48,
      "Velocity": 80,
      "Duration": 1314421,
      "SoundDuration": 1314421,
      "Delta": 236307455
    },
    {
      "NoteNumber": 74,
      "Velocity": 80,
      "Duration": 922114,
      "SoundDuration": 922114,
      "Delta": 237230531
    },
    {
      "NoteNumber": 57,
      "Velocity": 80,
      "Duration": 1972113,
      "SoundDuration": 1972113,
      "Delta": 237922838
    },
    {
      "NoteNumber": 62,
      "Velocity": 80,
      "Duration": 1796151,
      "SoundDuration": 1796151,
      "Delta": 238153608
    },
    {
      "NoteNumber": 69,
      "Velocity": 80,
      "Duration": 823075,
      "SoundDuration": 823075,
      "Delta": 238153608
    },
    {
      "NoteNumber": 66,
      "Velocity": 80,
      "Duration": 1846151,
      "SoundDuration": 1846151,
      "Delta": 238153608
    },
    {
      "NoteNumber": 38,
      "Velocity": 80,
      "Duration": 1846151,
      "SoundDuration": 1846151,
      "Delta": 238153608
    },
    {
      "NoteNumber": 50,
      "Velocity": 80,
      "Duration": 1752882,
      "SoundDuration": 1752882,
      "Delta": 238153608
    },
    {
      "NoteNumber": 69,
      "Velocity": 80,
      "Duration": 218269,
      "SoundDuration": 218269,
      "Delta": 239076683
    },
    {
      "NoteNumber": 67,
      "Velocity": 80,
      "Duration": 642307,
      "SoundDuration": 642307,
      "Delta": 239307452
    },
    {
      "NoteNumber": 67,
      "Velocity": 80,
      "Duration": 130770,
      "SoundDuration": 130770,
      "Delta": 239999759
    },
    {
      "NoteNumber": 71,
      "Velocity": 80,
      "Duration": 923076,
      "SoundDuration": 923076,
      "Delta": 239999759
    },
    {
      "NoteNumber": 43,
      "Velocity": 80,
      "Duration": 923076,
      "SoundDuration": 923076,
      "Delta": 239999759
    },
    {
      "NoteNumber": 62,
      "Velocity": 80,
      "Duration": 873077,
      "SoundDuration": 873077,
      "Delta": 239999759
    },
    {
      "NoteNumber": 55,
      "Velocity": 80,
      "Duration": 411539,
      "SoundDuration": 411539,
      "Delta": 239999759
    },
    {
      "NoteNumber": 69,
      "Velocity": 80,
      "Duration": 218269,
      "SoundDuration": 218269,
      "Delta": 239999759
    },
    {
      "NoteNumber": 67,
      "Velocity": 80,
      "Duration": 656730,
      "SoundDuration": 656730,
      "Delta": 240230529
    },
    {
      "NoteNumber": 55,
      "Velocity": 80,
      "Duration": 437499,
      "SoundDuration": 437499,
      "Delta": 240461298
    },
    {
      "NoteNumber": 62,
      "Velocity": 80,
      "Duration": 923076,
      "SoundDuration": 923076,
      "Delta": 240922836
    },
    {
      "NoteNumber": 69,
      "Velocity": 80,
      "Duration": 923076,
      "SoundDuration": 923076,
      "Delta": 240922836
    },
    {
      "NoteNumber": 66,
      "Velocity": 80,
      "Duration": 923076,
      "SoundDuration": 923076,
      "Delta": 240922836
    },
    {
      "NoteNumber": 38,
      "Velocity": 80,
      "Duration": 923076,
      "SoundDuration": 923076,
      "Delta": 240922836
    },
    {
      "NoteNumber": 50,
      "Velocity": 80,
      "Duration": 875960,
      "SoundDuration": 875960,
      "Delta": 240922836
    },
    {
      "NoteNumber": 54,
      "Velocity": 80,
      "Duration": 875960,
      "SoundDuration": 875960,
      "Delta": 240922836
    },
    {
      "NoteNumber": 67,
      "Velocity": 80,
      "Duration": 642307,
      "SoundDuration": 642307,
      "Delta": 241153605
    },
    {
      "NoteNumber": 67,
      "Velocity": 80,
      "Duration": 1796152,
      "SoundDuration": 1796152,
      "Delta": 241845912
    },
    {
      "NoteNumber": 71,
      "Velocity": 80,
      "Duration": 361538,
      "SoundDuration": 361538,
      "Delta": 241845912
    },
    {
      "NoteNumber": 55,
      "Velocity": 80,
      "Duration": 1752882,
      "SoundDuration": 1752882,
      "Delta": 241845912
    },
    {
      "NoteNumber": 40,
      "Velocity": 80,
      "Duration": 1846151,
      "SoundDuration": 1846151,
      "Delta": 241845912
    },
    {
      "NoteNumber": 64,
      "Velocity": 80,
      "Duration": 823075,
      "SoundDuration": 823075,
      "Delta": 241845912
    },
    {
      "NoteNumber": 52,
      "Velocity": 80,
      "Duration": 1752882,
      "SoundDuration": 1752882,
      "Delta": 241845912
    },
    {
      "NoteNumber": 71,
      "Velocity": 80,
      "Duration": 437499,
      "SoundDuration": 437499,
      "Delta": 242307450
    },
    {
      "NoteNumber": 64,
      "Velocity": 80,
      "Duration": 437499,
      "SoundDuration": 437499,
      "Delta": 242768987
    },
    {
      "NoteNumber": 71,
      "Velocity": 80,
      "Duration": 437499,
      "SoundDuration": 437499,
      "Delta": 243230526
    },
    {
      "NoteNumber": 67,
      "Velocity": 80,
      "Duration": 1284614,
      "SoundDuration": 1284614,
      "Delta": 243692064
    },
    {
      "NoteNumber": 62,
      "Velocity": 80,
      "Duration": 218269,
      "SoundDuration": 218269,
      "Delta": 243692064
    },
    {
      "NoteNumber": 55,
      "Velocity": 80,
      "Duration": 1752882,
      "SoundDuration": 1752882,
      "Delta": 243692064
    },
    {
      "NoteNumber": 64,
      "Velocity": 80,
      "Duration": 130769,
      "SoundDuration": 130769,
      "Delta": 243692064
    },
    {
      "NoteNumber": 36,
      "Velocity": 80,
      "Duration": 1846151,
      "SoundDuration": 1846151,
      "Delta": 243692064
    },
    {
      "NoteNumber": 60,
      "Velocity": 80,
      "Duration": 1846151,
      "SoundDuration": 1846151,
      "Delta": 243692064
    },
    {
      "NoteNumber": 48,
      "Velocity": 80,
      "Duration": 1752882,
      "SoundDuration": 1752882,
      "Delta": 243692064
    },
    {
      "NoteNumber": 64,
      "Velocity": 80,
      "Duration": 180768,
      "SoundDuration": 180768,
      "Delta": 243922833
    },
    {
      "NoteNumber": 64,
      "Velocity": 80,
      "Duration": 218269,
      "SoundDuration": 218269,
      "Delta": 244153601
    },
    {
      "NoteNumber": 62,
      "Velocity": 80,
      "Duration": 218269,
      "SoundDuration": 218269,
      "Delta": 244384371
    },
    {
      "NoteNumber": 64,
      "Velocity": 80,
      "Duration": 437499,
      "SoundDuration": 437499,
      "Delta": 244615140
    },
    {
      "NoteNumber": 67,
      "Velocity": 80,
      "Duration": 229807,
      "SoundDuration": 229807,
      "Delta": 245076678
    },
    {
      "NoteNumber": 66,
      "Velocity": 80,
      "Duration": 130768,
      "SoundDuration": 130768,
      "Delta": 245307447
    },
    {
      "NoteNumber": 62,
      "Velocity": 80,
      "Duration": 1796153,
      "SoundDuration": 1796153,
      "Delta": 245538215
    },
    {
      "NoteNumber": 69,
      "Velocity": 80,
      "Duration": 823077,
      "SoundDuration": 823077,
      "Delta": 245538215
    },
    {
      "NoteNumber": 66,
      "Velocity": 80,
      "Duration": 1846152,
      "SoundDuration": 1846152,
      "Delta": 245538215
    },
    {
      "NoteNumber": 38,
      "Velocity": 80,
      "Duration": 1846152,
      "SoundDuration": 1846152,
      "Delta": 245538215
    },
    {
      "NoteNumber": 50,
      "Velocity": 80,
      "Duration": 1752882,
      "SoundDuration": 1752882,
      "Delta": 245538215
    },
    {
      "NoteNumber": 57,
      "Velocity": 80,
      "Duration": 1752882,
      "SoundDuration": 1752882,
      "Delta": 245538215
    },
    {
      "NoteNumber": 69,
      "Velocity": 80,
      "Duration": 218269,
      "SoundDuration": 218269,
      "Delta": 246461292
    },
    {
      "NoteNumber": 67,
      "Velocity": 80,
      "Duration": 642307,
      "SoundDuration": 642307,
      "Delta": 246692061
    },
    {
      "NoteNumber": 67,
      "Velocity": 80,
      "Duration": 130768,
      "SoundDuration": 130768,
      "Delta": 247384368
    },
    {
      "NoteNumber": 71,
      "Velocity": 80,
      "Duration": 923075,
      "SoundDuration": 923075,
      "Delta": 247384368
    },
    {
      "NoteNumber": 43,
      "Velocity": 80,
      "Duration": 923075,
      "SoundDuration": 923075,
      "Delta": 247384368
    },
    {
      "NoteNumber": 62,
      "Velocity": 80,
      "Duration": 873075,
      "SoundDuration": 873075,
      "Delta": 247384368
    },
    {
      "NoteNumber": 55,
      "Velocity": 80,
      "Duration": 411538,
      "SoundDuration": 411538,
      "Delta": 247384368
    },
    {
      "NoteNumber": 69,
      "Velocity": 80,
      "Duration": 218269,
      "SoundDuration": 218269,
      "Delta": 247384368
    },
    {
      "NoteNumber": 67,
      "Velocity": 80,
      "Duration": 656730,
      "SoundDuration": 656730,
      "Delta": 247615136
    },
    {
      "NoteNumber": 55,
      "Velocity": 80,
      "Duration": 437499,
      "SoundDuration": 437499,
      "Delta": 247845906
    },
    {
      "NoteNumber": 62,
      "Velocity": 80,
      "Duration": 923076,
      "SoundDuration": 923076,
      "Delta": 248307443
    },
    {
      "NoteNumber": 69,
      "Velocity": 80,
      "Duration": 923076,
      "SoundDuration": 923076,
      "Delta": 248307443
    },
    {
      "NoteNumber": 66,
      "Velocity": 80,
      "Duration": 923076,
      "SoundDuration": 923076,
      "Delta": 248307443
    },
    {
      "NoteNumber": 38,
      "Velocity": 80,
      "Duration": 923076,
      "SoundDuration": 923076,
      "Delta": 248307443
    },
    {
      "NoteNumber": 50,
      "Velocity": 80,
      "Duration": 875960,
      "SoundDuration": 875960,
      "Delta": 248307443
    },
    {
      "NoteNumber": 54,
      "Velocity": 80,
      "Duration": 875960,
      "SoundDuration": 875960,
      "Delta": 248307443
    },
    {
      "NoteNumber": 67,
      "Velocity": 80,
      "Duration": 642307,
      "SoundDuration": 642307,
      "Delta": 248538212
    },
    {
      "NoteNumber": 67,
      "Velocity": 80,
      "Duration": 1796152,
      "SoundDuration": 1796152,
      "Delta": 249230519
    },
    {
      "NoteNumber": 71,
      "Velocity": 80,
      "Duration": 361538,
      "SoundDuration": 361538,
      "Delta": 249230519
    },
    {
      "NoteNumber": 55,
      "Velocity": 80,
      "Duration": 1752882,
      "SoundDuration": 1752882,
      "Delta": 249230519
    },
    {
      "NoteNumber": 40,
      "Velocity": 80,
      "Duration": 1846151,
      "SoundDuration": 1846151,
      "Delta": 249230519
    },
    {
      "NoteNumber": 64,
      "Velocity": 80,
      "Duration": 823077,
      "SoundDuration": 823077,
      "Delta": 249230519
    },
    {
      "NoteNumber": 52,
      "Velocity": 80,
      "Duration": 1752882,
      "SoundDuration": 1752882,
      "Delta": 249230519
    },
    {
      "NoteNumber": 71,
      "Velocity": 80,
      "Duration": 437499,
      "SoundDuration": 437499,
      "Delta": 249692057
    },
    {
      "NoteNumber": 64,
      "Velocity": 80,
      "Duration": 437499,
      "SoundDuration": 437499,
      "Delta": 250153596
    },
    {
      "NoteNumber": 71,
      "Velocity": 80,
      "Duration": 437499,
      "SoundDuration": 437499,
      "Delta": 250615133
    },
    {
      "NoteNumber": 67,
      "Velocity": 80,
      "Duration": 1284614,
      "SoundDuration": 1284614,
      "Delta": 251076671
    },
    {
      "NoteNumber": 62,
      "Velocity": 80,
      "Duration": 218269,
      "SoundDuration": 218269,
      "Delta": 251076671
    },
    {
      "NoteNumber": 55,
      "Velocity": 80,
      "Duration": 1752882,
      "SoundDuration": 1752882,
      "Delta": 251076671
    },
    {
      "NoteNumber": 64,
      "Velocity": 80,
      "Duration": 130769,
      "SoundDuration": 130769,
      "Delta": 251076671
    },
    {
      "NoteNumber": 36,
      "Velocity": 80,
      "Duration": 1846152,
      "SoundDuration": 1846152,
      "Delta": 251076671
    },
    {
      "NoteNumber": 60,
      "Velocity": 80,
      "Duration": 1846152,
      "SoundDuration": 1846152,
      "Delta": 251076671
    },
    {
      "NoteNumber": 48,
      "Velocity": 80,
      "Duration": 1752882,
      "SoundDuration": 1752882,
      "Delta": 251076671
    },
    {
      "NoteNumber": 64,
      "Velocity": 80,
      "Duration": 180770,
      "SoundDuration": 180770,
      "Delta": 251307440
    },
    {
      "NoteNumber": 64,
      "Velocity": 80,
      "Duration": 218269,
      "SoundDuration": 218269,
      "Delta": 251538210
    },
    {
      "NoteNumber": 62,
      "Velocity": 80,
      "Duration": 218269,
      "SoundDuration": 218269,
      "Delta": 251768978
    },
    {
      "NoteNumber": 64,
      "Velocity": 80,
      "Duration": 437499,
      "SoundDuration": 437499,
      "Delta": 251999747
    },
    {
      "NoteNumber": 67,
      "Velocity": 80,
      "Duration": 229807,
      "SoundDuration": 229807,
      "Delta": 252461285
    },
    {
      "NoteNumber": 66,
      "Velocity": 80,
      "Duration": 130770,
      "SoundDuration": 130770,
      "Delta": 252692054
    },
    {
      "NoteNumber": 62,
      "Velocity": 80,
      "Duration": 1796151,
      "SoundDuration": 1796151,
      "Delta": 252922824
    },
    {
      "NoteNumber": 69,
      "Velocity": 80,
      "Duration": 823075,
      "SoundDuration": 823075,
      "Delta": 252922824
    },
    {
      "NoteNumber": 66,
      "Velocity": 80,
      "Duration": 1846151,
      "SoundDuration": 1846151,
      "Delta": 252922824
    },
    {
      "NoteNumber": 38,
      "Velocity": 80,
      "Duration": 1846151,
      "SoundDuration": 1846151,
      "Delta": 252922824
    },
    {
      "NoteNumber": 50,
      "Velocity": 80,
      "Duration": 1752882,
      "SoundDuration": 1752882,
      "Delta": 252922824
    },
    {
      "NoteNumber": 57,
      "Velocity": 80,
      "Duration": 1752882,
      "SoundDuration": 1752882,
      "Delta": 252922824
    },
    {
      "NoteNumber": 69,
      "Velocity": 80,
      "Duration": 218269,
      "SoundDuration": 218269,
      "Delta": 253845899
    },
    {
      "NoteNumber": 67,
      "Velocity": 80,
      "Duration": 642307,
      "SoundDuration": 642307,
      "Delta": 254076668
    },
    {
      "NoteNumber": 67,
      "Velocity": 80,
      "Duration": 130770,
      "SoundDuration": 130770,
      "Delta": 254768975
    },
    {
      "NoteNumber": 71,
      "Velocity": 80,
      "Duration": 923076,
      "SoundDuration": 923076,
      "Delta": 254768975
    },
    {
      "NoteNumber": 43,
      "Velocity": 80,
      "Duration": 923076,
      "SoundDuration": 923076,
      "Delta": 254768975
    },
    {
      "NoteNumber": 62,
      "Velocity": 80,
      "Duration": 923076,
      "SoundDuration": 923076,
      "Delta": 254768975
    },
    {
      "NoteNumber": 55,
      "Velocity": 80,
      "Duration": 875960,
      "SoundDuration": 875960,
      "Delta": 254768975
    },
    {
      "NoteNumber": 69,
      "Velocity": 80,
      "Duration": 218269,
      "SoundDuration": 218269,
      "Delta": 254768975
    },
    {
      "NoteNumber": 67,
      "Velocity": 80,
      "Duration": 656730,
      "SoundDuration": 656730,
      "Delta": 254999745
    },
    {
      "NoteNumber": 69,
      "Velocity": 80,
      "Duration": 218269,
      "SoundDuration": 218269,
      "Delta": 255692052
    },
    {
      "NoteNumber": 67,
      "Velocity": 80,
      "Duration": 656730,
      "SoundDuration": 656730,
      "Delta": 255922820
    }
  ]
}