{"title":"Asturias","artist":"Albéniz","durationMs":301517,"midiSha256":"9659c1d6788b4c050d359cc92ad3d4c3115a15e20b98babcf41d1a30fd4a5d72","midiObject":[{"NoteNumber":55,"Velocity":59,"Duration":116731,"SoundDuration":116731,"Delta":0},{"NoteNumber":62,"Velocity":31,"Duration":58365,"SoundDuration":58365,"Delta":116731},{"NoteNumber":62,"Velocity":47,"Duration":55147,"SoundDuration":55147,"Delta":233462},{"NoteNumber":62,"Velocity":35,"Duration":55147,"SoundDuration":55147,"Delta":343757},{"NoteNumber":63,"Velocity":53,"Duration":55762,"SoundDuration":55762,"Delta":454051},{"NoteNumber":62,"Velocity":39,"Duration":55762,"SoundDuration":55762,"Delta":565575},{"NoteNumber":60,"Velocity":45,"Duration":56818,"SoundDuration":56818,"Delta":677099},{"NoteNumber":62,"Velocity":37,"Duration":56818,"SoundDuration":56818,"Delta":790735},{"NoteNumber":62,"Velocity":49,"Duration":56818,"SoundDuration":56818,"Delta":904372},{"NoteNumber":62,"Velocity":34,"Duration":56818,"SoundDuration":56818,"Delta":1018008},{"NoteNumber":58,"Velocity":45,"Duration":56818,"SoundDuration":56818,"Delta":1131644},{"NoteNumber":62,"Velocity":32,"Duration":56818,"SoundDuration":56818,"Delta":1245280},{"NoteNumber":55,"Velocity":62,"Duration":116731,"SoundDuration":116731,"Delta":1358917},{"NoteNumber":62,"Velocity":31,"Duration":58365,"SoundDuration":58365,"Delta":1475648},{"NoteNumber":62,"Velocity":47,"Duration":55350,"SoundDuration":55350,"Delta":1592380},{"NoteNumber":62,"Velocity":35,"Duration":55350,"SoundDuration":55350,"Delta":1703080},{"NoteNumber":63,"Velocity":53,"Duration":55970,"SoundDuration":55970,"Delta":1813782},{"NoteNumber":62,"Velocity":39,"Duration":55970,"SoundDuration":55970,"Delta":1925722},{"NoteNumber":60,"Velocity":45,"Duration":56818,"SoundDuration":56818,"Delta":2037662},{"NoteNumber":62,"Velocity":37,"Duration":56818,"SoundDuration":56818,"Delta":2151298},{"NoteNumber":62,"Velocity":49,"Duration":56818,"SoundDuration":56818,"Delta":2264935},{"NoteNumber":62,"Velocity":34,"Duration":56818,"SoundDuration":56818,"Delta":2378571},{"NoteNumber":58,"Velocity":45,"Duration":56818,"SoundDuration":56818,"Delta":2492207},{"NoteNumber":62,"Velocity":32,"Duration":56818,"SoundDuration":56818,"Delta":2605843},{"NoteNumber":55,"Velocity":62,"Duration":116731,"SoundDuration":116731,"Delta":2719480},{"NoteNumber":62,"Velocity":31,"Duration":58365,"SoundDuration":58365,"Delta":2836211},{"NoteNumber":62,"Velocity":46,"Duration":55350,"SoundDuration":55350,"Delta":2952943},{"NoteNumber":62,"Velocity":35,"Duration":55350,"SoundDuration":55350,"Delta":3063644},{"NoteNumber":63,"Velocity":50,"Duration":55970,"SoundDuration":55970,"Delta":3174345},{"NoteNumber":62,"Velocity":39,"Duration":55970,"SoundDuration":55970,"Delta":3286285},{"NoteNumber":60,"Velocity":45,"Duration":56391,"SoundDuration":56391,"Delta":3398225},{"NoteNumber":62,"Velocity":37,"Duration":56390,"SoundDuration":56390,"Delta":3511007},{"NoteNumber":62,"Velocity":52,"Duration":56818,"SoundDuration":56818,"Delta":3623789},{"NoteNumber":62,"Velocity":40,"Duration":56818,"SoundDuration":56818,"Delta":3737425},{"NoteNumber":58,"Velocity":48,"Duration":56818,"SoundDuration":56818,"Delta":3851062},{"NoteNumber":62,"Velocity":37,"Duration":56818,"SoundDuration":56818,"Delta":3964698},{"NoteNumber":60,"Velocity":57,"Duration":56818,"SoundDuration":56818,"Delta":4078334},{"NoteNumber":62,"Velocity":41,"Duration":56818,"SoundDuration":56818,"Delta":4191970},{"NoteNumber":57,"Velocity":49,"Duration":55555,"SoundDuration":55555,"Delta":4305607},{"NoteNumber":62,"Velocity":35,"Duration":55555,"SoundDuration":55555,"Delta":4416718},{"NoteNumber":58,"Velocity":53,"Duration":55555,"SoundDuration":55555,"Delta":4527829},{"NoteNumber":62,"Velocity":39,"Duration":55555,"SoundDuration":55555,"Delta":4638940},{"NoteNumber":60,"Velocity":49,"Duration":56179,"SoundDuration":56179,"Delta":4750051},{"NoteNumber":62,"Velocity":34,"Duration":56179,"SoundDuration":56179,"Delta":4862410},{"NoteNumber":57,"Velocity":51,"Duration":56461,"SoundDuration":56461,"Delta":4974910},{"NoteNumber":62,"Velocity":38,"Duration":56818,"SoundDuration":56818,"Delta":5087976},{"NoteNumber":58,"Velocity":48,"Duration":57106,"SoundDuration":57106,"Delta":5201756},{"NoteNumber":62,"Velocity":37,"Duration":58823,"SoundDuration":58823,"Delta":5316115},{"NoteNumber":55,"Velocity":59,"Duration":119047,"SoundDuration":119047,"Delta":5433008},{"NoteNumber":62,"Velocity":30,"Duration":59523,"SoundDuration":59523,"Delta":5552055},{"NoteNumber":62,"Velocity":47,"Duration":55146,"SoundDuration":55146,"Delta":5671103},{"NoteNumber":62,"Velocity":35,"Duration":55147,"SoundDuration":55147,"Delta":5781397},{"NoteNumber":63,"Velocity":50,"Duration":55762,"SoundDuration":55762,"Delta":5891691},{"NoteNumber":62,"Velocity":36,"Duration":55762,"SoundDuration":55762,"Delta":6003215},{"NoteNumber":60,"Velocity":45,"Duration":56818,"SoundDuration":56818,"Delta":6114739},{"NoteNumber":62,"Velocity":31,"Duration":56818,"SoundDuration":56818,"Delta":6228376},{"NoteNumber":62,"Velocity":51,"Duration":56818,"SoundDuration":56818,"Delta":6342012},{"NoteNumber":62,"Velocity":36,"Duration":56818,"SoundDuration":56818,"Delta":6455648},{"NoteNumber":58,"Velocity":45,"Duration":56818,"SoundDuration":56818,"Delta":6569284},{"NoteNumber":62,"Velocity":33,"Duration":56818,"SoundDuration":56818,"Delta":6682921},{"NoteNumber":55,"Velocity":62,"Duration":116731,"SoundDuration":116731,"Delta":6796557},{"NoteNumber":62,"Velocity":37,"Duration":58365,"SoundDuration":58365,"Delta":6913288},{"NoteNumber":62,"Velocity":50,"Duration":54744,"SoundDuration":54744,"Delta":7030020},{"NoteNumber":62,"Velocity":35,"Duration":54744,"SoundDuration":54744,"Delta":7139509},{"NoteNumber":63,"Velocity":54,"Duration":55970,"SoundDuration":55970,"Delta":7248998},{"NoteNumber":62,"Velocity":39,"Duration":55970,"SoundDuration":55970,"Delta":7360938},{"NoteNumber":60,"Velocity":45,"Duration":56818,"SoundDuration":56818,"Delta":7472878},{"NoteNumber":62,"Velocity":37,"Duration":56818,"SoundDuration":56818,"Delta":7586515},{"NoteNumber":62,"Velocity":49,"Duration":56818,"SoundDuration":56818,"Delta":7700151},{"NoteNumber":62,"Velocity":34,"Duration":56818,"SoundDuration":56818,"Delta":7813787},{"NoteNumber":58,"Velocity":45,"Duration":56818,"SoundDuration":56818,"Delta":7927423},{"NoteNumber":62,"Velocity":32,"Duration":56818,"SoundDuration":56818,"Delta":8041060},{"NoteNumber":55,"Velocity":62,"Duration":116731,"SoundDuration":116731,"Delta":8154696},{"NoteNumber":62,"Velocity":31,"Duration":58365,"SoundDuration":58365,"Delta":8271427},{"NoteNumber":62,"Velocity":47,"Duration":55350,"SoundDuration":55350,"Delta":8388159},{"NoteNumber":62,"Velocity":35,"Duration":55350,"SoundDuration":55350,"Delta":8498860},{"NoteNumber":63,"Velocity":50,"Duration":55970,"SoundDuration":55970,"Delta":8609561},{"NoteNumber":62,"Velocity":39,"Duration":55970,"SoundDuration":55970,"Delta":8721501},{"NoteNumber":60,"Velocity":45,"Duration":56390,"SoundDuration":56390,"Delta":8833441},{"NoteNumber":62,"Velocity":37,"Duration":56391,"SoundDuration":56391,"Delta":8946223},{"NoteNumber":62,"Velocity":52,"Duration":56818,"SoundDuration":56818,"Delta":9059005},{"NoteNumber":62,"Velocity":40,"Duration":56818,"SoundDuration":56818,"Delta":9172642},{"NoteNumber":58,"Velocity":48,"Duration":56818,"SoundDuration":56818,"Delta":9286278},{"NoteNumber":62,"Velocity":37,"Duration":56818,"SoundDuration":56818,"Delta":9399914},{"NoteNumber":60,"Velocity":57,"Duration":56818,"SoundDuration":56818,"Delta":9513550},{"NoteNumber":62,"Velocity":41,"Duration":56818,"SoundDuration":56818,"Delta":9627187},{"NoteNumber":57,"Velocity":49,"Duration":55555,"SoundDuration":55555,"Delta":9740823},{"NoteNumber":62,"Velocity":35,"Duration":55555,"SoundDuration":55555,"Delta":9851934},{"NoteNumber":58,"Velocity":56,"Duration":55555,"SoundDuration":55555,"Delta":9963045},{"NoteNumber":62,"Velocity":43,"Duration":55555,"SoundDuration":55555,"Delta":10074156},{"NoteNumber":55,"Velocity":51,"Duration":56179,"SoundDuration":56179,"Delta":10185267},{"NoteNumber":62,"Velocity":37,"Duration":56179,"SoundDuration":56179,"Delta":10297626},{"NoteNumber":53,"Velocity":56,"Duration":56461,"SoundDuration":56461,"Delta":10410127},{"NoteNumber":62,"Velocity":44,"Duration":56818,"SoundDuration":56818,"Delta":10523192},{"NoteNumber":51,"Velocity":53,"Duration":57693,"SoundDuration":57693,"Delta":10636829},{"NoteNumber":62,"Velocity":39,"Duration":59523,"SoundDuration":59523,"Delta":10753118},{"NoteNumber":50,"Velocity":59,"Duration":118110,"SoundDuration":118110,"Delta":10872166},{"NoteNumber":62,"Velocity":31,"Duration":59055,"SoundDuration":59055,"Delta":10990276},{"NoteNumber":62,"Velocity":47,"Duration":54545,"SoundDuration":54545,"Delta":11108386},{"NoteNumber":62,"Velocity":35,"Duration":54545,"SoundDuration":54545,"Delta":11217477},{"NoteNumber":63,"Velocity":53,"Duration":55762,"SoundDuration":55762,"Delta":11326568},{"NoteNumber":62,"Velocity":39,"Duration":55762,"SoundDuration":55762,"Delta":11438092},{"NoteNumber":60,"Velocity":45,"Duration":56818,"SoundDuration":56818,"Delta":11549617},{"NoteNumber":62,"Velocity":37,"Duration":56818,"SoundDuration":56818,"Delta":11663253},{"NoteNumber":62,"Velocity":49,"Duration":56818,"SoundDuration":56818,"Delta":11776889},{"NoteNumber":62,"Velocity":34,"Duration":56818,"SoundDuration":56818,"Delta":11890525},{"NoteNumber":57,"Velocity":45,"Duration":56818,"SoundDuration":56818,"Delta":12004162},{"NoteNumber":62,"Velocity":32,"Duration":56818,"SoundDuration":56818,"Delta":12117798},{"NoteNumber":50,"Velocity":62,"Duration":116731,"SoundDuration":116731,"Delta":12231434},{"NoteNumber":62,"Velocity":31,"Duration":58365,"SoundDuration":58365,"Delta":12348166},{"NoteNumber":62,"Velocity":47,"Duration":54945,"SoundDuration":54945,"Delta":12464897},{"NoteNumber":62,"Velocity":35,"Duration":54945,"SoundDuration":54945,"Delta":12574787},{"NoteNumber":63,"Velocity":53,"Duration":55970,"SoundDuration":55970,"Delta":12684677},{"NoteNumber":62,"Velocity":39,"Duration":55970,"SoundDuration":55970,"Delta":12796617},{"NoteNumber":60,"Velocity":45,"Duration":56818,"SoundDuration":56818,"Delta":12908558},{"NoteNumber":62,"Velocity":37,"Duration":56818,"SoundDuration":56818,"Delta":13022194},{"NoteNumber":62,"Velocity":49,"Duration":56818,"SoundDuration":56818,"Delta":13135830},{"NoteNumber":62,"Velocity":34,"Duration":56818,"SoundDuration":56818,"Delta":13249466},{"NoteNumber":57,"Velocity":45,"Duration":56818,"SoundDuration":56818,"Delta":13363103},{"NoteNumber":62,"Velocity":32,"Duration":56818,"SoundDuration":56818,"Delta":13476739},{"NoteNumber":50,"Velocity":62,"Duration":116731,"SoundDuration":116731,"Delta":13590375},{"NoteNumber":62,"Velocity":31,"Duration":58365,"SoundDuration":58365,"Delta":13707107},{"NoteNumber":57,"Velocity":47,"Duration":55350,"SoundDuration":55350,"Delta":13823838},{"NoteNumber":62,"Velocity":35,"Duration":55350,"SoundDuration":55350,"Delta":13934539},{"NoteNumber":60,"Velocity":52,"Duration":55970,"SoundDuration":55970,"Delta":14045240},{"NoteNumber":62,"Velocity":39,"Duration":55970,"SoundDuration":55970,"Delta":14157180},{"NoteNumber":62,"Velocity":51,"Duration":56390,"SoundDuration":56390,"Delta":14269121},{"NoteNumber":62,"Velocity":37,"Duration":56391,"SoundDuration":56391,"Delta":14381903},{"NoteNumber":63,"Velocity":56,"Duration":56818,"SoundDuration":56818,"Delta":14494685},{"NoteNumber":62,"Velocity":44,"Duration":56818,"SoundDuration":56818,"Delta":14608321},{"NoteNumber":65,"Velocity":53,"Duration":56818,"SoundDuration":56818,"Delta":14721957},{"NoteNumber":62,"Velocity":41,"Duration":56818,"SoundDuration":56818,"Delta":14835593},{"NoteNumber":62,"Velocity":56,"Duration":56818,"SoundDuration":56818,"Delta":14949230},{"NoteNumber":62,"Velocity":48,"Duration":56818,"SoundDuration":56818,"Delta":15062866},{"NoteNumber":63,"Velocity":52,"Duration":55555,"SoundDuration":55555,"Delta":15176502},{"NoteNumber":62,"Velocity":42,"Duration":55555,"SoundDuration":55555,"Delta":15287613},{"NoteNumber":60,"Velocity":54,"Duration":55555,"SoundDuration":55555,"Delta":15398724},{"NoteNumber":62,"Velocity":47,"Duration":55555,"SoundDuration":55555,"Delta":15509835},{"NoteNumber":62,"Velocity":49,"Duration":56179,"SoundDuration":56179,"Delta":15620946},{"NoteNumber":62,"Velocity":41,"Duration":56179,"SoundDuration":56179,"Delta":15733306},{"NoteNumber":58,"Velocity":51,"Duration":56461,"SoundDuration":56461,"Delta":15845806},{"NoteNumber":62,"Velocity":43,"Duration":56818,"SoundDuration":56818,"Delta":15958872},{"NoteNumber":57,"Velocity":48,"Duration":57106,"SoundDuration":57106,"Delta":16072652},{"NoteNumber":62,"Velocity":37,"Duration":57471,"SoundDuration":57471,"Delta":16187011},{"NoteNumber":50,"Velocity":59,"Duration":118110,"SoundDuration":118110,"Delta":16302100},{"NoteNumber":62,"Velocity":31,"Duration":59055,"SoundDuration":59055,"Delta":16420211},{"NoteNumber":62,"Velocity":47,"Duration":55147,"SoundDuration":55147,"Delta":16538321},{"NoteNumber":62,"Velocity":35,"Duration":55147,"SoundDuration":55147,"Delta":16648615},{"NoteNumber":63,"Velocity":53,"Duration":55762,"SoundDuration":55762,"Delta":16758909},{"NoteNumber":62,"Velocity":39,"Duration":55762,"SoundDuration":55762,"Delta":16870433},{"NoteNumber":60,"Velocity":45,"Duration":56818,"SoundDuration":56818,"Delta":16981957},{"NoteNumber":62,"Velocity":37,"Duration":56818,"SoundDuration":56818,"Delta":17095594},{"NoteNumber":62,"Velocity":49,"Duration":56818,"SoundDuration":56818,"Delta":17209230},{"NoteNumber":62,"Velocity":34,"Duration":56818,"SoundDuration":56818,"Delta":17322866},{"NoteNumber":57,"Velocity":45,"Duration":56818,"SoundDuration":56818,"Delta":17436502},{"NoteNumber":62,"Velocity":32,"Duration":56818,"SoundDuration":56818,"Delta":17550139},{"NoteNumber":50,"Velocity":62,"Duration":116731,"SoundDuration":116731,"Delta":17663775},{"NoteNumber":62,"Velocity":31,"Duration":58365,"SoundDuration":58365,"Delta":17780506},{"NoteNumber":62,"Velocity":47,"Duration":55350,"SoundDuration":55350,"Delta":17897238},{"NoteNumber":62,"Velocity":35,"Duration":55350,"SoundDuration":55350,"Delta":18007939},{"NoteNumber":63,"Velocity":53,"Duration":55970,"SoundDuration":55970,"Delta":18118640},{"NoteNumber":62,"Velocity":39,"Duration":55970,"SoundDuration":55970,"Delta":18230580},{"NoteNumber":60,"Velocity":45,"Duration":56818,"SoundDuration":56818,"Delta":18342520},{"NoteNumber":62,"Velocity":37,"Duration":56818,"SoundDuration":56818,"Delta":18456157},{"NoteNumber":62,"Velocity":49,"Duration":56818,"SoundDuration":56818,"Delta":18569793},{"NoteNumber":62,"Velocity":34,"Duration":56818,"SoundDuration":56818,"Delta":18683429},{"NoteNumber":57,"Velocity":45,"Duration":56818,"SoundDuration":56818,"Delta":18797065},{"NoteNumber":62,"Velocity":32,"Duration":56818,"SoundDuration":56818,"Delta":18910702},{"NoteNumber":50,"Velocity":62,"Duration":116731,"SoundDuration":116731,"Delta":19024338},{"NoteNumber":62,"Velocity":31,"Duration":58365,"SoundDuration":58365,"Delta":19141069},{"NoteNumber":60,"Velocity":47,"Duration":55350,"SoundDuration":55350,"Delta":19257801},{"NoteNumber":62,"Velocity":35,"Duration":55350,"SoundDuration":55350,"Delta":19368502},{"NoteNumber":62,"Velocity":52,"Duration":55970,"SoundDuration":55970,"Delta":19479203},{"NoteNumber":62,"Velocity":39,"Duration":55970,"SoundDuration":55970,"Delta":19591143},{"NoteNumber":63,"Velocity":51,"Duration":56391,"SoundDuration":56391,"Delta":19703083},{"NoteNumber":62,"Velocity":37,"Duration":56391,"SoundDuration":56391,"Delta":19815865},{"NoteNumber":65,"Velocity":56,"Duration":56818,"SoundDuration":56818,"Delta":19928647},{"NoteNumber":62,"Velocity":44,"Duration":56818,"SoundDuration":56818,"Delta":20042284},{"NoteNumber":62,"Velocity":53,"Duration":56818,"SoundDuration":56818,"Delta":20155920},{"NoteNumber":62,"Velocity":41,"Duration":56818,"SoundDuration":56818,"Delta":20269556},{"NoteNumber":63,"Velocity":59,"Duration":56818,"SoundDuration":56818,"Delta":20383192},{"NoteNumber":62,"Velocity":48,"Duration":56818,"SoundDuration":56818,"Delta":20496829},{"NoteNumber":60,"Velocity":52,"Duration":55555,"SoundDuration":55555,"Delta":20610465},{"NoteNumber":62,"Velocity":42,"Duration":55555,"SoundDuration":55555,"Delta":20721576},{"NoteNumber":62,"Velocity":54,"Duration":55555,"SoundDuration":55555,"Delta":20832687},{"NoteNumber":62,"Velocity":47,"Duration":55555,"SoundDuration":55555,"Delta":20943798},{"NoteNumber":58,"Velocity":49,"Duration":56250,"SoundDuration":56250,"Delta":21054909},{"NoteNumber":62,"Velocity":41,"Duration":56890,"SoundDuration":56890,"Delta":21167692},{"NoteNumber":60,"Velocity":51,"Duration":57544,"SoundDuration":57544,"Delta":21281761},{"NoteNumber":62,"Velocity":43,"Duration":58214,"SoundDuration":58214,"Delta":21397147},{"NoteNumber":57,"Velocity":48,"Duration":58900,"SoundDuration":58900,"Delta":21513880},{"NoteNumber":62,"Velocity":37,"Duration":59761,"SoundDuration":59761,"Delta":21631991},{"NoteNumber":55,"Velocity":64,"Duration":117187,"SoundDuration":117187,"Delta":21750134},{"NoteNumber":74,"Velocity":44,"Duration":58593,"SoundDuration":58593,"Delta":21867322},{"NoteNumber":62,"Velocity":34,"Duration":58593,"SoundDuration":58593,"Delta":21867322},{"NoteNumber":62,"Velocity":51,"Duration":54151,"SoundDuration":54151,"Delta":21984509},{"NoteNumber":74,"Velocity":49,"Duration":54151,"SoundDuration":54151,"Delta":22092812},{"NoteNumber":62,"Velocity":38,"Duration":54151,"SoundDuration":54151,"Delta":22092812},{"NoteNumber":63,"Velocity":58,"Duration":55762,"SoundDuration":55762,"Delta":22201116},{"NoteNumber":74,"Velocity":54,"Duration":55762,"SoundDuration":55762,"Delta":22312640},{"NoteNumber":62,"Velocity":42,"Duration":55762,"SoundDuration":55762,"Delta":22312640},{"NoteNumber":60,"Velocity":49,"Duration":56818,"SoundDuration":56818,"Delta":22424164},{"NoteNumber":74,"Velocity":52,"Duration":56818,"SoundDuration":56818,"Delta":22537800},{"NoteNumber":62,"Velocity":40,"Duration":56818,"SoundDuration":56818,"Delta":22537800},{"NoteNumber":62,"Velocity":53,"Duration":56818,"SoundDuration":56818,"Delta":22651437},{"NoteNumber":74,"Velocity":48,"Duration":56818,"SoundDuration":56818,"Delta":22765073},{"NoteNumber":62,"Velocity":37,"Duration":56818,"SoundDuration":56818,"Delta":22765073},{"NoteNumber":58,"Velocity":49,"Duration":56818,"SoundDuration":56818,"Delta":22878709},{"NoteNumber":74,"Velocity":45,"Duration":56818,"SoundDuration":56818,"Delta":22992345},{"NoteNumber":62,"Velocity":35,"Duration":56818,"SoundDuration":56818,"Delta":22992345},{"NoteNumber":55,"Velocity":68,"Duration":116731,"SoundDuration":116731,"Delta":23105982},{"NoteNumber":62,"Velocity":34,"Duration":58365,"SoundDuration":58365,"Delta":23222713},{"NoteNumber":74,"Velocity":44,"Duration":58365,"SoundDuration":58365,"Delta":23222713},{"NoteNumber":62,"Velocity":51,"Duration":54151,"SoundDuration":54151,"Delta":23339445},{"NoteNumber":74,"Velocity":49,"Duration":54151,"SoundDuration":54151,"Delta":23447748},{"NoteNumber":62,"Velocity":38,"Duration":54151,"SoundDuration":54151,"Delta":23447748},{"NoteNumber":63,"Velocity":58,"Duration":55970,"SoundDuration":55970,"Delta":23556051},{"NoteNumber":74,"Velocity":54,"Duration":55970,"SoundDuration":55970,"Delta":23667991},{"NoteNumber":62,"Velocity":42,"Duration":55970,"SoundDuration":55970,"Delta":23667991},{"NoteNumber":60,"Velocity":49,"Duration":56818,"SoundDuration":56818,"Delta":23779932},{"NoteNumber":74,"Velocity":52,"Duration":56818,"SoundDuration":56818,"Delta":23893568},{"NoteNumber":62,"Velocity":40,"Duration":56818,"SoundDuration":56818,"Delta":23893568},{"NoteNumber":62,"Velocity":53,"Duration":56818,"SoundDuration":56818,"Delta":24007204},{"NoteNumber":62,"Velocity":37,"Duration":56818,"SoundDuration":56818,"Delta":24120840},{"NoteNumber":74,"Velocity":48,"Duration":56818,"SoundDuration":56818,"Delta":24120840},{"NoteNumber":58,"Velocity":49,"Duration":56818,"SoundDuration":56818,"Delta":24234477},{"NoteNumber":74,"Velocity":45,"Duration":56818,"SoundDuration":56818,"Delta":24348113},{"NoteNumber":62,"Velocity":35,"Duration":56818,"SoundDuration":56818,"Delta":24348113},{"NoteNumber":55,"Velocity":68,"Duration":116731,"SoundDuration":116731,"Delta":24461749},{"NoteNumber":74,"Velocity":44,"Duration":58365,"SoundDuration":58365,"Delta":24578481},{"NoteNumber":62,"Velocity":34,"Duration":58365,"SoundDuration":58365,"Delta":24578481},{"NoteNumber":62,"Velocity":51,"Duration":55350,"SoundDuration":55350,"Delta":24695212},{"NoteNumber":74,"Velocity":49,"Duration":55350,"SoundDuration":55350,"Delta":24805913},{"NoteNumber":62,"Velocity":38,"Duration":55350,"SoundDuration":55350,"Delta":24805913},{"NoteNumber":63,"Velocity":55,"Duration":55970,"SoundDuration":55970,"Delta":24916614},{"NoteNumber":74,"Velocity":54,"Duration":55970,"SoundDuration":55970,"Delta":25028554},{"NoteNumber":62,"Velocity":42,"Duration":55970,"SoundDuration":55970,"Delta":25028554},{"NoteNumber":60,"Velocity":49,"Duration":56391,"SoundDuration":56391,"Delta":25140495},{"NoteNumber":74,"Velocity":52,"Duration":56391,"SoundDuration":56391,"Delta":25253277},{"NoteNumber":62,"Velocity":40,"Duration":56391,"SoundDuration":56391,"Delta":25253277},{"NoteNumber":62,"Velocity":57,"Duration":56818,"SoundDuration":56818,"Delta":25366059},{"NoteNumber":62,"Velocity":44,"Duration":56818,"SoundDuration":56818,"Delta":25479695},{"NoteNumber":74,"Velocity":57,"Duration":56818,"SoundDuration":56818,"Delta":25479695},{"NoteNumber":58,"Velocity":52,"Duration":56818,"SoundDuration":56818,"Delta":25593331},{"NoteNumber":74,"Velocity":52,"Duration":56818,"SoundDuration":56818,"Delta":25706967},{"NoteNumber":62,"Velocity":40,"Duration":56818,"SoundDuration":56818,"Delta":25706967},{"NoteNumber":60,"Velocity":62,"Duration":56818,"SoundDuration":56818,"Delta":25820604},{"NoteNumber":74,"Velocity":58,"Duration":56818,"SoundDuration":56818,"Delta":25934240},{"NoteNumber":62,"Velocity":45,"Duration":56818,"SoundDuration":56818,"Delta":25934240},{"NoteNumber":57,"Velocity":53,"Duration":55555,"SoundDuration":55555,"Delta":26047876},{"NoteNumber":74,"Velocity":49,"Duration":55555,"SoundDuration":55555,"Delta":26158987},{"NoteNumber":62,"Velocity":38,"Duration":55555,"SoundDuration":55555,"Delta":26158987},{"NoteNumber":58,"Velocity":58,"Duration":55555,"SoundDuration":55555,"Delta":26270098},{"NoteNumber":62,"Velocity":42,"Duration":55555,"SoundDuration":55555,"Delta":26381209},{"NoteNumber":74,"Velocity":54,"Duration":55555,"SoundDuration":55555,"Delta":26381209},{"NoteNumber":60,"Velocity":53,"Duration":56179,"SoundDuration":56179,"Delta":26492320},{"NoteNumber":62,"Velocity":37,"Duration":56179,"SoundDuration":56179,"Delta":26604680},{"NoteNumber":74,"Velocity":48,"Duration":56179,"SoundDuration":56179,"Delta":26604680},{"NoteNumber":57,"Velocity":56,"Duration":56461,"SoundDuration":56461,"Delta":26717180},{"NoteNumber":74,"Velocity":53,"Duration":56818,"SoundDuration":56818,"Delta":26830246},{"NoteNumber":62,"Velocity":41,"Duration":56818,"SoundDuration":56818,"Delta":26830246},{"NoteNumber":58,"Velocity":52,"Duration":57106,"SoundDuration":57106,"Delta":26944026},{"NoteNumber":74,"Velocity":52,"Duration":60728,"SoundDuration":60728,"Delta":27058385},{"NoteNumber":62,"Velocity":40,"Duration":60728,"SoundDuration":60728,"Delta":27058385},{"NoteNumber":55,"Velocity":64,"Duration":116731,"SoundDuration":116731,"Delta":27179842},{"NoteNumber":74,"Velocity":44,"Duration":58365,"SoundDuration":58365,"Delta":27296574},{"NoteNumber":62,"Velocity":34,"Duration":58365,"SoundDuration":58365,"Delta":27296574},{"NoteNumber":62,"Velocity":51,"Duration":55147,"SoundDuration":55147,"Delta":27413305},{"NoteNumber":62,"Velocity":38,"Duration":55147,"SoundDuration":55147,"Delta":27523599},{"NoteNumber":74,"Velocity":49,"Duration":55147,"SoundDuration":55147,"Delta":27523599},{"NoteNumber":63,"Velocity":58,"Duration":55762,"SoundDuration":55762,"Delta":27633893},{"NoteNumber":74,"Velocity":54,"Duration":55762,"SoundDuration":55762,"Delta":27745417},{"NoteNumber":62,"Velocity":42,"Duration":55762,"SoundDuration":55762,"Delta":27745417},{"NoteNumber":60,"Velocity":49,"Duration":56818,"SoundDuration":56818,"Delta":27856942},{"NoteNumber":74,"Velocity":52,"Duration":56818,"SoundDuration":56818,"Delta":27970578},{"NoteNumber":62,"Velocity":40,"Duration":56818,"SoundDuration":56818,"Delta":27970578},{"NoteNumber":62,"Velocity":53,"Duration":56818,"SoundDuration":56818,"Delta":28084214},{"NoteNumber":74,"Velocity":48,"Duration":56818,"SoundDuration":56818,"Delta":28197850},{"NoteNumber":62,"Velocity":37,"Duration":56818,"SoundDuration":56818,"Delta":28197850},{"NoteNumber":58,"Velocity":49,"Duration":56818,"SoundDuration":56818,"Delta":28311487},{"NoteNumber":74,"Velocity":45,"Duration":56818,"SoundDuration":56818,"Delta":28425123},{"NoteNumber":62,"Velocity":35,"Duration":56818,"SoundDuration":56818,"Delta":28425123},{"NoteNumber":55,"Velocity":68,"Duration":116731,"SoundDuration":116731,"Delta":28538759},{"NoteNumber":74,"Velocity":44,"Duration":58365,"SoundDuration":58365,"Delta":28655491},{"NoteNumber":62,"Velocity":34,"Duration":58365,"SoundDuration":58365,"Delta":28655491},{"NoteNumber":62,"Velocity":51,"Duration":55350,"SoundDuration":55350,"Delta":28772222},{"NoteNumber":74,"Velocity":49,"Duration":55350,"SoundDuration":55350,"Delta":28882923},{"NoteNumber":62,"Velocity":38,"Duration":55350,"SoundDuration":55350,"Delta":28882923},{"NoteNumber":63,"Velocity":58,"Duration":55970,"SoundDuration":55970,"Delta":28993624},{"NoteNumber":74,"Velocity":54,"Duration":55970,"SoundDuration":55970,"Delta":29105564},{"NoteNumber":62,"Velocity":42,"Duration":55970,"SoundDuration":55970,"Delta":29105564},{"NoteNumber":60,"Velocity":49,"Duration":56818,"SoundDuration":56818,"Delta":29217505},{"NoteNumber":74,"Velocity":52,"Duration":56818,"SoundDuration":56818,"Delta":29331141},{"NoteNumber":62,"Velocity":40,"Duration":56818,"SoundDuration":56818,"Delta":29331141},{"NoteNumber":62,"Velocity":53,"Duration":56818,"SoundDuration":56818,"Delta":29444777},{"NoteNumber":74,"Velocity":48,"Duration":56818,"SoundDuration":56818,"Delta":29558413},{"NoteNumber":62,"Velocity":37,"Duration":56818,"SoundDuration":56818,"Delta":29558413},{"NoteNumber":58,"Velocity":49,"Duration":56818,"SoundDuration":56818,"Delta":29672050},{"NoteNumber":74,"Velocity":45,"Duration":56818,"SoundDuration":56818,"Delta":29785686},{"NoteNumber":62,"Velocity":35,"Duration":56818,"SoundDuration":56818,"Delta":29785686},{"NoteNumber":55,"Velocity":68,"Duration":116731,"SoundDuration":116731,"Delta":29899322},{"NoteNumber":62,"Velocity":34,"Duration":58365,"SoundDuration":58365,"Delta":30016054},{"NoteNumber":74,"Velocity":44,"Duration":58365,"SoundDuration":58365,"Delta":30016054},{"NoteNumber":62,"Velocity":51,"Duration":55350,"SoundDuration":55350,"Delta":30132785},{"NoteNumber":74,"Velocity":49,"Duration":55350,"SoundDuration":55350,"Delta":30243486},{"NoteNumber":62,"Velocity":38,"Duration":55350,"SoundDuration":55350,"Delta":30243486},{"NoteNumber":63,"Velocity":55,"Duration":55970,"SoundDuration":55970,"Delta":30354187},{"NoteNumber":74,"Velocity":54,"Duration":55970,"SoundDuration":55970,"Delta":30466127},{"NoteNumber":62,"Velocity":42,"Duration":55970,"SoundDuration":55970,"Delta":30466127},{"NoteNumber":60,"Velocity":49,"Duration":56391,"SoundDuration":56391,"Delta":30578068},{"NoteNumber":74,"Velocity":52,"Duration":56391,"SoundDuration":56391,"Delta":30690850},{"NoteNumber":62,"Velocity":40,"Duration":56391,"SoundDuration":56391,"Delta":30690850},{"NoteNumber":62,"Velocity":57,"Duration":56818,"SoundDuration":56818,"Delta":30803632},{"NoteNumber":62,"Velocity":44,"Duration":56818,"SoundDuration":56818,"Delta":30917268},{"NoteNumber":74,"Velocity":57,"Duration":56818,"SoundDuration":56818,"Delta":30917268},{"NoteNumber":58,"Velocity":52,"Duration":56818,"SoundDuration":56818,"Delta":31030904},{"NoteNumber":62,"Velocity":40,"Duration":56818,"SoundDuration":56818,"Delta":31144540},{"NoteNumber":74,"Velocity":52,"Duration":56818,"SoundDuration":56818,"Delta":31144540},{"NoteNumber":60,"Velocity":62,"Duration":56818,"SoundDuration":56818,"Delta":31258177},{"NoteNumber":74,"Velocity":58,"Duration":56818,"SoundDuration":56818,"Delta":31371813},{"NoteNumber":62,"Velocity":45,"Duration":56818,"SoundDuration":56818,"Delta":31371813},{"NoteNumber":57,"Velocity":53,"Duration":54945,"SoundDuration":54945,"Delta":31485449},{"NoteNumber":74,"Velocity":49,"Duration":54945,"SoundDuration":54945,"Delta":31595339},{"NoteNumber":62,"Velocity":38,"Duration":54945,"SoundDuration":54945,"Delta":31595339},{"NoteNumber":58,"Velocity":60,"Duration":55555,"SoundDuration":55555,"Delta":31705229},{"NoteNumber":74,"Velocity":62,"Duration":55555,"SoundDuration":55555,"Delta":31816340},{"NoteNumber":62,"Velocity":48,"Duration":55555,"SoundDuration":55555,"Delta":31816340},{"NoteNumber":55,"Velocity":58,"Duration":56179,"SoundDuration":56179,"Delta":31927451},{"NoteNumber":62,"Velocity":42,"Duration":56179,"SoundDuration":56179,"Delta":32039811},{"NoteNumber":74,"Velocity":54,"Duration":56179,"SoundDuration":56179,"Delta":32039811},{"NoteNumber":53,"Velocity":64,"Duration":56461,"SoundDuration":56461,"Delta":32152311},{"NoteNumber":74,"Velocity":66,"Duration":57619,"SoundDuration":57619,"Delta":32265664},{"NoteNumber":62,"Velocity":51,"Duration":57619,"SoundDuration":57619,"Delta":32265664},{"NoteNumber":51,"Velocity":62,"Duration":58978,"SoundDuration":58978,"Delta":32381498},{"NoteNumber":74,"Velocity":58,"Duration":60403,"SoundDuration":60403,"Delta":32500080},{"NoteNumber":62,"Velocity":45,"Duration":60403,"SoundDuration":60403,"Delta":32500080},{"NoteNumber":50,"Velocity":84,"Duration":116731,"SoundDuration":116731,"Delta":32621543},{"NoteNumber":38,"Velocity":71,"Duration":116731,"SoundDuration":116731,"Delta":32621543},{"NoteNumber":78,"Velocity":70,"Duration":67873,"SoundDuration":67873,"Delta":32738275},{"NoteNumber":81,"Velocity":83,"Duration":67873,"SoundDuration":67873,"Delta":32738275},{"NoteNumber":86,"Velocity":83,"Duration":67873,"SoundDuration":67873,"Delta":32738275},{"NoteNumber":74,"Velocity":70,"Duration":67873,"SoundDuration":67873,"Delta":32738275},{"NoteNumber":62,"Velocity":56,"Duration":54744,"SoundDuration":54744,"Delta":32874021},{"NoteNumber":74,"Velocity":54,"Duration":54744,"SoundDuration":54744,"Delta":32983510},{"NoteNumber":62,"Velocity":42,"Duration":54744,"SoundDuration":54744,"Delta":32983510},{"NoteNumber":63,"Velocity":63,"Duration":55762,"SoundDuration":55762,"Delta":33092999},{"NoteNumber":62,"Velocity":46,"Duration":55762,"SoundDuration":55762,"Delta":33204523},{"NoteNumber":74,"Velocity":59,"Duration":55762,"SoundDuration":55762,"Delta":33204523},{"NoteNumber":60,"Velocity":54,"Duration":56818,"SoundDuration":56818,"Delta":33316048},{"NoteNumber":74,"Velocity":57,"Duration":56818,"SoundDuration":56818,"Delta":33429684},{"NoteNumber":62,"Velocity":44,"Duration":56818,"SoundDuration":56818,"Delta":33429684},{"NoteNumber":62,"Velocity":58,"Duration":56818,"SoundDuration":56818,"Delta":33543320},{"NoteNumber":74,"Velocity":52,"Duration":56818,"SoundDuration":56818,"Delta":33656956},{"NoteNumber":62,"Velocity":40,"Duration":56818,"SoundDuration":56818,"Delta":33656956},{"NoteNumber":57,"Velocity":54,"Duration":56818,"SoundDuration":56818,"Delta":33770593},{"NoteNumber":74,"Velocity":49,"Duration":56818,"SoundDuration":56818,"Delta":33884229},{"NoteNumber":62,"Velocity":38,"Duration":56818,"SoundDuration":56818,"Delta":33884229},{"NoteNumber":38,"Velocity":74,"Duration":116731,"SoundDuration":116731,"Delta":33997865},{"NoteNumber":50,"Velocity":88,"Duration":116731,"SoundDuration":116731,"Delta":33997865},{"NoteNumber":78,"Velocity":72,"Duration":66964,"SoundDuration":66964,"Delta":34114597},{"NoteNumber":74,"Velocity":72,"Duration":66964,"SoundDuration":66964,"Delta":34114597},{"NoteNumber":81,"Velocity":85,"Duration":66964,"SoundDuration":66964,"Delta":34114597},{"NoteNumber":86,"Velocity":85,"Duration":66964,"SoundDuration":66964,"Delta":34114597},{"NoteNumber":62,"Velocity":56,"Duration":54944,"SoundDuration":54944,"Delta":34248525},{"NoteNumber":74,"Velocity":54,"Duration":54944,"SoundDuration":54944,"Delta":34358415},{"NoteNumber":62,"Velocity":42,"Duration":54944,"SoundDuration":54944,"Delta":34358415},{"NoteNumber":63,"Velocity":63,"Duration":55970,"SoundDuration":55970,"Delta":34468305},{"NoteNumber":74,"Velocity":59,"Duration":55970,"SoundDuration":55970,"Delta":34580245},{"NoteNumber":62,"Velocity":46,"Duration":55970,"SoundDuration":55970,"Delta":34580245},{"NoteNumber":60,"Velocity":54,"Duration":56818,"SoundDuration":56818,"Delta":34692186},{"NoteNumber":74,"Velocity":57,"Duration":56818,"SoundDuration":56818,"Delta":34805822},{"NoteNumber":62,"Velocity":44,"Duration":56818,"SoundDuration":56818,"Delta":34805822},{"NoteNumber":62,"Velocity":58,"Duration":56818,"SoundDuration":56818,"Delta":34919458},{"NoteNumber":74,"Velocity":52,"Duration":56818,"SoundDuration":56818,"Delta":35033094},{"NoteNumber":62,"Velocity":40,"Duration":56818,"SoundDuration":56818,"Delta":35033094},{"NoteNumber":57,"Velocity":54,"Duration":56818,"SoundDuration":56818,"Delta":35146731},{"NoteNumber":74,"Velocity":49,"Duration":56818,"SoundDuration":56818,"Delta":35260367},{"NoteNumber":62,"Velocity":38,"Duration":56818,"SoundDuration":56818,"Delta":35260367},{"NoteNumber":38,"Velocity":74,"Duration":116731,"SoundDuration":116731,"Delta":35374003},{"NoteNumber":50,"Velocity":88,"Duration":116731,"SoundDuration":116731,"Delta":35374003},{"NoteNumber":86,"Velocity":83,"Duration":66079,"SoundDuration":66079,"Delta":35490735},{"NoteNumber":74,"Velocity":70,"Duration":66079,"SoundDuration":66079,"Delta":35490735},{"NoteNumber":78,"Velocity":70,"Duration":66079,"SoundDuration":66079,"Delta":35490735},{"NoteNumber":81,"Velocity":83,"Duration":66079,"SoundDuration":66079,"Delta":35490735},{"NoteNumber":57,"Velocity":56,"Duration":54944,"SoundDuration":54944,"Delta":35622893},{"NoteNumber":74,"Velocity":54,"Duration":54944,"SoundDuration":54944,"Delta":35732783},{"NoteNumber":62,"Velocity":42,"Duration":54944,"SoundDuration":54944,"Delta":35732783},{"NoteNumber":60,"Velocity":62,"Duration":55970,"SoundDuration":55970,"Delta":35842673},{"NoteNumber":62,"Velocity":46,"Duration":55970,"SoundDuration":55970,"Delta":35954613},{"NoteNumber":74,"Velocity":59,"Duration":55970,"SoundDuration":55970,"Delta":35954613},{"NoteNumber":62,"Velocity":61,"Duration":56390,"SoundDuration":56390,"Delta":36066554},{"NoteNumber":74,"Velocity":57,"Duration":56390,"SoundDuration":56390,"Delta":36179336},{"NoteNumber":62,"Velocity":44,"Duration":56390,"SoundDuration":56390,"Delta":36179336},{"NoteNumber":63,"Velocity":67,"Duration":56818,"SoundDuration":56818,"Delta":36292118},{"NoteNumber":74,"Velocity":67,"Duration":56818,"SoundDuration":56818,"Delta":36405754},{"NoteNumber":62,"Velocity":52,"Duration":56818,"SoundDuration":56818,"Delta":36405754},{"NoteNumber":65,"Velocity":63,"Duration":56818,"SoundDuration":56818,"Delta":36519390},{"NoteNumber":74,"Velocity":63,"Duration":56818,"SoundDuration":56818,"Delta":36633026},{"NoteNumber":62,"Velocity":49,"Duration":56818,"SoundDuration":56818,"Delta":36633026},{"NoteNumber":62,"Velocity":70,"Duration":56818,"SoundDuration":56818,"Delta":36746663},{"NoteNumber":62,"Velocity":54,"Duration":56818,"SoundDuration":56818,"Delta":36860299},{"NoteNumber":74,"Velocity":70,"Duration":56818,"SoundDuration":56818,"Delta":36860299},{"NoteNumber":63,"Velocity":62,"Duration":55555,"SoundDuration":55555,"Delta":36973935},{"NoteNumber":74,"Velocity":65,"Duration":55555,"SoundDuration":55555,"Delta":37085046},{"NoteNumber":62,"Velocity":50,"Duration":55555,"SoundDuration":55555,"Delta":37085046},{"NoteNumber":60,"Velocity":64,"Duration":55555,"SoundDuration":55555,"Delta":37196157},{"NoteNumber":74,"Velocity":69,"Duration":55555,"SoundDuration":55555,"Delta":37307268},{"NoteNumber":62,"Velocity":54,"Duration":55555,"SoundDuration":55555,"Delta":37307268},{"NoteNumber":62,"Velocity":58,"Duration":56179,"SoundDuration":56179,"Delta":37418379},{"NoteNumber":74,"Velocity":63,"Duration":56179,"SoundDuration":56179,"Delta":37530739},{"NoteNumber":62,"Velocity":49,"Duration":56179,"SoundDuration":56179,"Delta":37530739},{"NoteNumber":58,"Velocity":61,"Duration":56461,"SoundDuration":56461,"Delta":37643239},{"NoteNumber":74,"Velocity":66,"Duration":56818,"SoundDuration":56818,"Delta":37756305},{"NoteNumber":62,"Velocity":51,"Duration":56818,"SoundDuration":56818,"Delta":37756305},{"NoteNumber":57,"Velocity":57,"Duration":57106,"SoundDuration":57106,"Delta":37870085},{"NoteNumber":74,"Velocity":57,"Duration":57471,"SoundDuration":57471,"Delta":37984444},{"NoteNumber":62,"Velocity":44,"Duration":57471,"SoundDuration":57471,"Delta":37984444},{"NoteNumber":38,"Velocity":71,"Duration":116731,"SoundDuration":116731,"Delta":38099533},{"NoteNumber":50,"Velocity":84,"Duration":116731,"SoundDuration":116731,"Delta":38099533},{"NoteNumber":81,"Velocity":83,"Duration":68181,"SoundDuration":68181,"Delta":38216265},{"NoteNumber":74,"Velocity":70,"Duration":68181,"SoundDuration":68181,"Delta":38216265},{"NoteNumber":78,"Velocity":70,"Duration":68181,"SoundDuration":68181,"Delta":38216265},{"NoteNumber":86,"Velocity":83,"Duration":68181,"SoundDuration":68181,"Delta":38216265},{"NoteNumber":62,"Velocity":56,"Duration":54744,"SoundDuration":54744,"Delta":38352629},{"NoteNumber":74,"Velocity":54,"Duration":54744,"SoundDuration":54744,"Delta":38462118},{"NoteNumber":62,"Velocity":42,"Duration":54744,"SoundDuration":54744,"Delta":38462118},{"NoteNumber":63,"Velocity":63,"Duration":55762,"SoundDuration":55762,"Delta":38571607},{"NoteNumber":74,"Velocity":59,"Duration":55762,"SoundDuration":55762,"Delta":38683131},{"NoteNumber":62,"Velocity":46,"Duration":55762,"SoundDuration":55762,"Delta":38683131},{"NoteNumber":60,"Velocity":54,"Duration":56818,"SoundDuration":56818,"Delta":38794655},{"NoteNumber":62,"Velocity":44,"Duration":56818,"SoundDuration":56818,"Delta":38908291},{"NoteNumber":74,"Velocity":57,"Duration":56818,"SoundDuration":56818,"Delta":38908291},{"NoteNumber":62,"Velocity":58,"Duration":56818,"SoundDuration":56818,"Delta":39021928},{"NoteNumber":62,"Velocity":40,"Duration":56818,"SoundDuration":56818,"Delta":39135564},{"NoteNumber":74,"Velocity":52,"Duration":56818,"SoundDuration":56818,"Delta":39135564},{"NoteNumber":57,"Velocity":54,"Duration":56818,"SoundDuration":56818,"Delta":39249200},{"NoteNumber":74,"Velocity":49,"Duration":56818,"SoundDuration":56818,"Delta":39362836},{"NoteNumber":62,"Velocity":38,"Duration":56818,"SoundDuration":56818,"Delta":39362836},{"NoteNumber":50,"Velocity":88,"Duration":116731,"SoundDuration":116731,"Delta":39476473},{"NoteNumber":38,"Velocity":74,"Duration":116731,"SoundDuration":116731,"Delta":39476473},{"NoteNumber":78,"Velocity":72,"Duration":67873,"SoundDuration":67873,"Delta":39593204},{"NoteNumber":74,"Velocity":72,"Duration":67873,"SoundDuration":67873,"Delta":39593204},{"NoteNumber":86,"Velocity":85,"Duration":67873,"SoundDuration":67873,"Delta":39593204},{"NoteNumber":81,"Velocity":85,"Duration":67873,"SoundDuration":67873,"Delta":39593204},{"NoteNumber":62,"Velocity":56,"Duration":54744,"SoundDuration":54744,"Delta":39728951},{"NoteNumber":62,"Velocity":42,"Duration":54744,"SoundDuration":54744,"Delta":39838440},{"NoteNumber":74,"Velocity":54,"Duration":54744,"SoundDuration":54744,"Delta":39838440},{"NoteNumber":63,"Velocity":63,"Duration":55970,"SoundDuration":55970,"Delta":39947929},{"NoteNumber":74,"Velocity":59,"Duration":55970,"SoundDuration":55970,"Delta":40059869},{"NoteNumber":62,"Velocity":46,"Duration":55970,"SoundDuration":55970,"Delta":40059869},{"NoteNumber":60,"Velocity":54,"Duration":56818,"SoundDuration":56818,"Delta":40171809},{"NoteNumber":74,"Velocity":57,"Duration":56818,"SoundDuration":56818,"Delta":40285445},{"NoteNumber":62,"Velocity":44,"Duration":56818,"SoundDuration":56818,"Delta":40285445},{"NoteNumber":62,"Velocity":58,"Duration":56818,"SoundDuration":56818,"Delta":40399082},{"NoteNumber":74,"Velocity":52,"Duration":56818,"SoundDuration":56818,"Delta":40512718},{"NoteNumber":62,"Velocity":40,"Duration":56818,"SoundDuration":56818,"Delta":40512718},{"NoteNumber":57,"Velocity":54,"Duration":56818,"SoundDuration":56818,"Delta":40626354},{"NoteNumber":74,"Velocity":49,"Duration":56818,"SoundDuration":56818,"Delta":40739990},{"NoteNumber":62,"Velocity":38,"Duration":56818,"SoundDuration":56818,"Delta":40739990},{"NoteNumber":50,"Velocity":88,"Duration":116731,"SoundDuration":116731,"Delta":40853627},{"NoteNumber":38,"Velocity":74,"Duration":116731,"SoundDuration":116731,"Delta":40853627},{"NoteNumber":78,"Velocity":70,"Duration":68181,"SoundDuration":68181,"Delta":40970358},{"NoteNumber":74,"Velocity":70,"Duration":68181,"SoundDuration":68181,"Delta":40970358},{"NoteNumber":81,"Velocity":83,"Duration":68181,"SoundDuration":68181,"Delta":40970358},{"NoteNumber":86,"Velocity":83,"Duration":68181,"SoundDuration":68181,"Delta":40970358},{"NoteNumber":57,"Velocity":56,"Duration":55350,"SoundDuration":55350,"Delta":41106722},{"NoteNumber":74,"Velocity":54,"Duration":55350,"SoundDuration":55350,"Delta":41217423},{"NoteNumber":62,"Velocity":42,"Duration":55350,"SoundDuration":55350,"Delta":41217423},{"NoteNumber":60,"Velocity":62,"Duration":55970,"SoundDuration":55970,"Delta":41328124},{"NoteNumber":74,"Velocity":59,"Duration":55970,"SoundDuration":55970,"Delta":41440064},{"NoteNumber":62,"Velocity":46,"Duration":55970,"SoundDuration":55970,"Delta":41440064},{"NoteNumber":62,"Velocity":61,"Duration":56390,"SoundDuration":56390,"Delta":41552004},{"NoteNumber":74,"Velocity":57,"Duration":56390,"SoundDuration":56390,"Delta":41664786},{"NoteNumber":62,"Velocity":44,"Duration":56390,"SoundDuration":56390,"Delta":41664786},{"NoteNumber":63,"Velocity":67,"Duration":56818,"SoundDuration":56818,"Delta":41777568},{"NoteNumber":62,"Velocity":50,"Duration":56818,"SoundDuration":56818,"Delta":41891205},{"NoteNumber":74,"Velocity":64,"Duration":56818,"SoundDuration":56818,"Delta":41891205},{"NoteNumber":65,"Velocity":63,"Duration":56818,"SoundDuration":56818,"Delta":42004841},{"NoteNumber":74,"Velocity":63,"Duration":56818,"SoundDuration":56818,"Delta":42118477},{"NoteNumber":62,"Velocity":49,"Duration":56818,"SoundDuration":56818,"Delta":42118477},{"NoteNumber":62,"Velocity":70,"Duration":56818,"SoundDuration":56818,"Delta":42232113},{"NoteNumber":74,"Velocity":70,"Duration":56818,"SoundDuration":56818,"Delta":42345750},{"NoteNumber":62,"Velocity":54,"Duration":56818,"SoundDuration":56818,"Delta":42345750},{"NoteNumber":63,"Velocity":62,"Duration":55146,"SoundDuration":55146,"Delta":42459386},{"NoteNumber":74,"Velocity":65,"Duration":55146,"SoundDuration":55146,"Delta":42569680},{"NoteNumber":62,"Velocity":50,"Duration":55146,"SoundDuration":55146,"Delta":42569680},{"NoteNumber":60,"Velocity":74,"Duration":55970,"SoundDuration":55970,"Delta":42679974},{"NoteNumber":74,"Velocity":72,"Duration":55970,"SoundDuration":55970,"Delta":42791914},{"NoteNumber":62,"Velocity":56,"Duration":55970,"SoundDuration":55970,"Delta":42791914},{"NoteNumber":62,"Velocity":69,"Duration":56818,"SoundDuration":56818,"Delta":42903854},{"NoteNumber":74,"Velocity":67,"Duration":57324,"SoundDuration":57324,"Delta":43017635},{"NoteNumber":62,"Velocity":52,"Duration":57324,"SoundDuration":57324,"Delta":43017635},{"NoteNumber":58,"Velocity":75,"Duration":57989,"SoundDuration":57989,"Delta":43132578},{"NoteNumber":74,"Velocity":77,"Duration":58441,"SoundDuration":58441,"Delta":43248858},{"NoteNumber":62,"Velocity":60,"Duration":58441,"SoundDuration":58441,"Delta":43248858},{"NoteNumber":62,"Velocity":70,"Duration":59132,"SoundDuration":59132,"Delta":43366047},{"NoteNumber":74,"Velocity":76,"Duration":59840,"SoundDuration":59840,"Delta":43484625},{"NoteNumber":62,"Velocity":59,"Duration":59840,"SoundDuration":59840,"Delta":43484625},{"NoteNumber":43,"Velocity":95,"Duration":119522,"SoundDuration":119522,"Delta":43604627},{"NoteNumber":31,"Velocity":80,"Duration":119522,"SoundDuration":119522,"Delta":43604627},{"NoteNumber":82,"Velocity":76,"Duration":79365,"SoundDuration":79365,"Delta":43724149},{"NoteNumber":86,"Velocity":76,"Duration":79365,"SoundDuration":79365,"Delta":43724149},{"NoteNumber":91,"Velocity":91,"Duration":79365,"SoundDuration":79365,"Delta":43724149},{"NoteNumber":79,"Velocity":76,"Duration":79365,"SoundDuration":79365,"Delta":43724149},{"NoteNumber":62,"Velocity":70,"Duration":54151,"SoundDuration":54151,"Delta":43882879},{"NoteNumber":62,"Velocity":52,"Duration":54151,"SoundDuration":54151,"Delta":43991182},{"NoteNumber":74,"Velocity":68,"Duration":54151,"SoundDuration":54151,"Delta":43991182},{"NoteNumber":63,"Velocity":78,"Duration":55762,"SoundDuration":55762,"Delta":44099485},{"NoteNumber":74,"Velocity":74,"Duration":55762,"SoundDuration":55762,"Delta":44211010},{"NoteNumber":62,"Velocity":57,"Duration":55762,"SoundDuration":55762,"Delta":44211010},{"NoteNumber":60,"Velocity":67,"Duration":56818,"SoundDuration":56818,"Delta":44322534},{"NoteNumber":74,"Velocity":70,"Duration":56818,"SoundDuration":56818,"Delta":44436170},{"NoteNumber":62,"Velocity":54,"Duration":56818,"SoundDuration":56818,"Delta":44436170},{"NoteNumber":62,"Velocity":72,"Duration":56818,"SoundDuration":56818,"Delta":44549806},{"NoteNumber":74,"Velocity":65,"Duration":56818,"SoundDuration":56818,"Delta":44663443},{"NoteNumber":62,"Velocity":50,"Duration":56818,"SoundDuration":56818,"Delta":44663443},{"NoteNumber":58,"Velocity":67,"Duration":56818,"SoundDuration":56818,"Delta":44777079},{"NoteNumber":62,"Velocity":47,"Duration":56818,"SoundDuration":56818,"Delta":44890715},{"NoteNumber":74,"Velocity":60,"Duration":56818,"SoundDuration":56818,"Delta":44890715},{"NoteNumber":31,"Velocity":79,"Duration":116731,"SoundDuration":116731,"Delta":45004351},{"NoteNumber":43,"Velocity":94,"Duration":116731,"SoundDuration":116731,"Delta":45004351},{"NoteNumber":82,"Velocity":79,"Duration":78947,"SoundDuration":78947,"Delta":45121083},{"NoteNumber":79,"Velocity":79,"Duration":78947,"SoundDuration":78947,"Delta":45121083},{"NoteNumber":86,"Velocity":79,"Duration":78947,"SoundDuration":78947,"Delta":45121083},{"NoteNumber":91,"Velocity":93,"Duration":78947,"SoundDuration":78947,"Delta":45121083},{"NoteNumber":62,"Velocity":70,"Duration":54347,"SoundDuration":54347,"Delta":45278978},{"NoteNumber":74,"Velocity":68,"Duration":54347,"SoundDuration":54347,"Delta":45387673},{"NoteNumber":62,"Velocity":52,"Duration":54347,"SoundDuration":54347,"Delta":45387673},{"NoteNumber":63,"Velocity":78,"Duration":55970,"SoundDuration":55970,"Delta":45496369},{"NoteNumber":74,"Velocity":74,"Duration":55970,"SoundDuration":55970,"Delta":45608309},{"NoteNumber":62,"Velocity":57,"Duration":55970,"SoundDuration":55970,"Delta":45608309},{"NoteNumber":60,"Velocity":67,"Duration":56818,"SoundDuration":56818,"Delta":45720250},{"NoteNumber":74,"Velocity":70,"Duration":56818,"SoundDuration":56818,"Delta":45833886},{"NoteNumber":62,"Velocity":54,"Duration":56818,"SoundDuration":56818,"Delta":45833886},{"NoteNumber":62,"Velocity":72,"Duration":56818,"SoundDuration":56818,"Delta":45947522},{"NoteNumber":62,"Velocity":50,"Duration":56818,"SoundDuration":56818,"Delta":46061158},{"NoteNumber":74,"Velocity":65,"Duration":56818,"SoundDuration":56818,"Delta":46061158},{"NoteNumber":58,"Velocity":67,"Duration":56818,"SoundDuration":56818,"Delta":46174795},{"NoteNumber":74,"Velocity":60,"Duration":56818,"SoundDuration":56818,"Delta":46288431},{"NoteNumber":62,"Velocity":47,"Duration":56818,"SoundDuration":56818,"Delta":46288431},{"NoteNumber":31,"Velocity":79,"Duration":116731,"SoundDuration":116731,"Delta":46402067},{"NoteNumber":43,"Velocity":93,"Duration":116731,"SoundDuration":116731,"Delta":46402067},{"NoteNumber":91,"Velocity":91,"Duration":78533,"SoundDuration":78533,"Delta":46518799},{"NoteNumber":79,"Velocity":76,"Duration":78533,"SoundDuration":78533,"Delta":46518799},{"NoteNumber":82,"Velocity":76,"Duration":78533,"SoundDuration":78533,"Delta":46518799},{"NoteNumber":86,"Velocity":76,"Duration":78533,"SoundDuration":78533,"Delta":46518799},{"NoteNumber":62,"Velocity":67,"Duration":55350,"SoundDuration":55350,"Delta":46675867},{"NoteNumber":74,"Velocity":65,"Duration":55350,"SoundDuration":55350,"Delta":46786568},{"NoteNumber":62,"Velocity":50,"Duration":55350,"SoundDuration":55350,"Delta":46786568},{"NoteNumber":63,"Velocity":74,"Duration":55970,"SoundDuration":55970,"Delta":46897269},{"NoteNumber":74,"Velocity":71,"Duration":55970,"SoundDuration":55970,"Delta":47009209},{"NoteNumber":62,"Velocity":55,"Duration":55970,"SoundDuration":55970,"Delta":47009209},{"NoteNumber":60,"Velocity":73,"Duration":56390,"SoundDuration":56390,"Delta":47121149},{"NoteNumber":74,"Velocity":67,"Duration":56390,"SoundDuration":56390,"Delta":47233931},{"NoteNumber":62,"Velocity":52,"Duration":56390,"SoundDuration":56390,"Delta":47233931},{"NoteNumber":62,"Velocity":80,"Duration":56818,"SoundDuration":56818,"Delta":47346713},{"NoteNumber":74,"Velocity":72,"Duration":56818,"SoundDuration":56818,"Delta":47460349},{"NoteNumber":62,"Velocity":55,"Duration":56818,"SoundDuration":56818,"Delta":47460349},{"NoteNumber":58,"Velocity":75,"Duration":56818,"SoundDuration":56818,"Delta":47573986},{"NoteNumber":74,"Velocity":75,"Duration":56818,"SoundDuration":56818,"Delta":47687622},{"NoteNumber":62,"Velocity":58,"Duration":56818,"SoundDuration":56818,"Delta":47687622},{"NoteNumber":60,"Velocity":84,"Duration":56818,"SoundDuration":56818,"Delta":47801258},{"NoteNumber":74,"Velocity":79,"Duration":56818,"SoundDuration":56818,"Delta":47914894},{"NoteNumber":62,"Velocity":61,"Duration":56818,"SoundDuration":56818,"Delta":47914894},{"NoteNumber":57,"Velocity":74,"Duration":55555,"SoundDuration":55555,"Delta":48028531},{"NoteNumber":62,"Velocity":54,"Duration":55555,"SoundDuration":55555,"Delta":48139642},{"NoteNumber":74,"Velocity":70,"Duration":55555,"SoundDuration":55555,"Delta":48139642},{"NoteNumber":58,"Velocity":76,"Duration":55555,"SoundDuration":55555,"Delta":48250753},{"NoteNumber":74,"Velocity":75,"Duration":55555,"SoundDuration":55555,"Delta":48361864},{"NoteNumber":62,"Velocity":58,"Duration":55555,"SoundDuration":55555,"Delta":48361864},{"NoteNumber":60,"Velocity":69,"Duration":56179,"SoundDuration":56179,"Delta":48472975},{"NoteNumber":74,"Velocity":67,"Duration":56179,"SoundDuration":56179,"Delta":48585334},{"NoteNumber":62,"Velocity":52,"Duration":56179,"SoundDuration":56179,"Delta":48585334},{"NoteNumber":57,"Velocity":73,"Duration":56461,"SoundDuration":56461,"Delta":48697835},{"NoteNumber":74,"Velocity":71,"Duration":56818,"SoundDuration":56818,"Delta":48810900},{"NoteNumber":62,"Velocity":54,"Duration":56818,"SoundDuration":56818,"Delta":48810900},{"NoteNumber":58,"Velocity":68,"Duration":57106,"SoundDuration":57106,"Delta":48924681},{"NoteNumber":62,"Velocity":52,"Duration":60728,"SoundDuration":60728,"Delta":49039039},{"NoteNumber":74,"Velocity":67,"Duration":60728,"SoundDuration":60728,"Delta":49039039},{"NoteNumber":49,"Velocity":96,"Duration":116731,"SoundDuration":116731,"Delta":49160497},{"NoteNumber":37,"Velocity":81,"Duration":116731,"SoundDuration":116731,"Delta":49160497},{"NoteNumber":82,"Velocity":79,"Duration":88235,"SoundDuration":88235,"Delta":49277228},{"NoteNumber":79,"Velocity":79,"Duration":88235,"SoundDuration":88235,"Delta":49277228},{"NoteNumber":91,"Velocity":93,"Duration":88235,"SoundDuration":88235,"Delta":49277228},{"NoteNumber":87,"Velocity":93,"Duration":88235,"SoundDuration":88235,"Delta":49277228},{"NoteNumber":63,"Velocity":70,"Duration":54151,"SoundDuration":54151,"Delta":49453699},{"NoteNumber":75,"Velocity":68,"Duration":54151,"SoundDuration":54151,"Delta":49562002},{"NoteNumber":63,"Velocity":52,"Duration":54151,"SoundDuration":54151,"Delta":49562002},{"NoteNumber":65,"Velocity":74,"Duration":55970,"SoundDuration":55970,"Delta":49670305},{"NoteNumber":75,"Velocity":74,"Duration":55970,"SoundDuration":55970,"Delta":49782245},{"NoteNumber":63,"Velocity":57,"Duration":55970,"SoundDuration":55970,"Delta":49782245},{"NoteNumber":62,"Velocity":67,"Duration":56818,"SoundDuration":56818,"Delta":49894186},{"NoteNumber":75,"Velocity":70,"Duration":56818,"SoundDuration":56818,"Delta":50007822},{"NoteNumber":63,"Velocity":54,"Duration":56818,"SoundDuration":56818,"Delta":50007822},{"NoteNumber":63,"Velocity":72,"Duration":56818,"SoundDuration":56818,"Delta":50121458},{"NoteNumber":63,"Velocity":50,"Duration":56818,"SoundDuration":56818,"Delta":50235094},{"NoteNumber":75,"Velocity":65,"Duration":56818,"SoundDuration":56818,"Delta":50235094},{"NoteNumber":58,"Velocity":67,"Duration":57915,"SoundDuration":57915,"Delta":50348731},{"NoteNumber":75,"Velocity":60,"Duration":57914,"SoundDuration":57914,"Delta":50464561},{"NoteNumber":63,"Velocity":47,"Duration":57914,"SoundDuration":57914,"Delta":50464561},{"NoteNumber":37,"Velocity":79,"Duration":116731,"SoundDuration":116731,"Delta":50580391},{"NoteNumber":49,"Velocity":94,"Duration":116731,"SoundDuration":116731,"Delta":50580391},{"NoteNumber":82,"Velocity":79,"Duration":87719,"SoundDuration":87719,"Delta":50697122},{"NoteNumber":79,"Velocity":79,"Duration":87719,"SoundDuration":87719,"Delta":50697122},{"NoteNumber":91,"Velocity":93,"Duration":87719,"SoundDuration":87719,"Delta":50697122},{"NoteNumber":87,"Velocity":93,"Duration":87719,"SoundDuration":87719,"Delta":50697122},{"NoteNumber":63,"Velocity":70,"Duration":54151,"SoundDuration":54151,"Delta":50872561},{"NoteNumber":63,"Velocity":52,"Duration":54151,"SoundDuration":54151,"Delta":50980864},{"NoteNumber":75,"Velocity":68,"Duration":54151,"SoundDuration":54151,"Delta":50980864},{"NoteNumber":65,"Velocity":75,"Duration":55970,"SoundDuration":55970,"Delta":51089167},{"NoteNumber":63,"Velocity":57,"Duration":55970,"SoundDuration":55970,"Delta":51201107},{"NoteNumber":75,"Velocity":74,"Duration":55970,"SoundDuration":55970,"Delta":51201107},{"NoteNumber":62,"Velocity":67,"Duration":56818,"SoundDuration":56818,"Delta":51313048},{"NoteNumber":75,"Velocity":70,"Duration":56818,"SoundDuration":56818,"Delta":51426684},{"NoteNumber":63,"Velocity":54,"Duration":56818,"SoundDuration":56818,"Delta":51426684},{"NoteNumber":63,"Velocity":72,"Duration":56818,"SoundDuration":56818,"Delta":51540320},{"NoteNumber":75,"Velocity":65,"Duration":56818,"SoundDuration":56818,"Delta":51653956},{"NoteNumber":63,"Velocity":50,"Duration":56818,"SoundDuration":56818,"Delta":51653956},{"NoteNumber":58,"Velocity":67,"Duration":58593,"SoundDuration":58593,"Delta":51767593},{"NoteNumber":75,"Velocity":60,"Duration":58593,"SoundDuration":58593,"Delta":51884780},{"NoteNumber":63,"Velocity":47,"Duration":58593,"SoundDuration":58593,"Delta":51884780},{"NoteNumber":37,"Velocity":80,"Duration":116731,"SoundDuration":116731,"Delta":52001968},{"NoteNumber":49,"Velocity":95,"Duration":116731,"SoundDuration":116731,"Delta":52001968},{"NoteNumber":82,"Velocity":79,"Duration":86705,"SoundDuration":86705,"Delta":52118699},{"NoteNumber":79,"Velocity":79,"Duration":86705,"SoundDuration":86705,"Delta":52118699},{"NoteNumber":87,"Velocity":93,"Duration":86705,"SoundDuration":86705,"Delta":52118699},{"NoteNumber":91,"Velocity":93,"Duration":86705,"SoundDuration":86705,"Delta":52118699},{"NoteNumber":63,"Velocity":67,"Duration":55350,"SoundDuration":55350,"Delta":52292110},{"NoteNumber":75,"Velocity":65,"Duration":55350,"SoundDuration":55350,"Delta":52402811},{"NoteNumber":63,"Velocity":50,"Duration":55350,"SoundDuration":55350,"Delta":52402811},{"NoteNumber":65,"Velocity":74,"Duration":55970,"SoundDuration":55970,"Delta":52513512},{"NoteNumber":75,"Velocity":71,"Duration":55970,"SoundDuration":55970,"Delta":52625452},{"NoteNumber":63,"Velocity":55,"Duration":55970,"SoundDuration":55970,"Delta":52625452},{"NoteNumber":62,"Velocity":64,"Duration":56818,"SoundDuration":56818,"Delta":52737392},{"NoteNumber":75,"Velocity":67,"Duration":56818,"SoundDuration":56818,"Delta":52851028},{"NoteNumber":63,"Velocity":52,"Duration":56818,"SoundDuration":56818,"Delta":52851028},{"NoteNumber":63,"Velocity":69,"Duration":56818,"SoundDuration":56818,"Delta":52964665},{"NoteNumber":75,"Velocity":62,"Duration":56818,"SoundDuration":56818,"Delta":53078301},{"NoteNumber":63,"Velocity":48,"Duration":56818,"SoundDuration":56818,"Delta":53078301},{"NoteNumber":58,"Velocity":64,"Duration":56818,"SoundDuration":56818,"Delta":53191937},{"NoteNumber":63,"Velocity":45,"Duration":56818,"SoundDuration":56818,"Delta":53305573},{"NoteNumber":75,"Velocity":58,"Duration":56818,"SoundDuration":56818,"Delta":53305573},{"NoteNumber":60,"Velocity":84,"Duration":56818,"SoundDuration":56818,"Delta":53419210},{"NoteNumber":75,"Velocity":70,"Duration":56818,"SoundDuration":56818,"Delta":53532846},{"NoteNumber":63,"Velocity":54,"Duration":56818,"SoundDuration":56818,"Delta":53532846},{"NoteNumber":57,"Velocity":70,"Duration":55555,"SoundDuration":55555,"Delta":53646482},{"NoteNumber":75,"Velocity":71,"Duration":55555,"SoundDuration":55555,"Delta":53757593},{"NoteNumber":63,"Velocity":55,"Duration":55555,"SoundDuration":55555,"Delta":53757593},{"NoteNumber":58,"Velocity":72,"Duration":55555,"SoundDuration":55555,"Delta":53868704},{"NoteNumber":75,"Velocity":71,"Duration":55555,"SoundDuration":55555,"Delta":53979815},{"NoteNumber":63,"Velocity":55,"Duration":55555,"SoundDuration":55555,"Delta":53979815},{"NoteNumber":60,"Velocity":69,"Duration":56179,"SoundDuration":56179,"Delta":54090926},{"NoteNumber":63,"Velocity":52,"Duration":56179,"SoundDuration":56179,"Delta":54203286},{"NoteNumber":75,"Velocity":67,"Duration":56179,"SoundDuration":56179,"Delta":54203286},{"NoteNumber":55,"Velocity":73,"Duration":56461,"SoundDuration":56461,"Delta":54315786},{"NoteNumber":75,"Velocity":72,"Duration":56818,"SoundDuration":56818,"Delta":54428852},{"NoteNumber":63,"Velocity":56,"Duration":56818,"SoundDuration":56818,"Delta":54428852},{"NoteNumber":57,"Velocity":68,"Duration":57106,"SoundDuration":57106,"Delta":54542632},{"NoteNumber":75,"Velocity":67,"Duration":57471,"SoundDuration":57471,"Delta":54656991},{"NoteNumber":63,"Velocity":52,"Duration":57471,"SoundDuration":57471,"Delta":54656991},{"NoteNumber":38,"Velocity":78,"Duration":116731,"SoundDuration":116731,"Delta":54772081},{"NoteNumber":50,"Velocity":92,"Duration":116731,"SoundDuration":116731,"Delta":54772081},{"NoteNumber":90,"Velocity":86,"Duration":89820,"SoundDuration":89820,"Delta":54888812},{"NoteNumber":93,"Velocity":86,"Duration":89820,"SoundDuration":89820,"Delta":54888812},{"NoteNumber":98,"Velocity":102,"Duration":89820,"SoundDuration":89820,"Delta":54888812},{"NoteNumber":86,"Velocity":86,"Duration":89820,"SoundDuration":89820,"Delta":54888812},{"NoteNumber":62,"Velocity":73,"Duration":53956,"SoundDuration":53956,"Delta":55068453},{"NoteNumber":74,"Velocity":71,"Duration":53956,"SoundDuration":53956,"Delta":55176367},{"NoteNumber":62,"Velocity":55,"Duration":53956,"SoundDuration":53956,"Delta":55176367},{"NoteNumber":63,"Velocity":78,"Duration":55762,"SoundDuration":55762,"Delta":55284280},{"NoteNumber":74,"Velocity":75,"Duration":55762,"SoundDuration":55762,"Delta":55395805},{"NoteNumber":62,"Velocity":58,"Duration":55762,"SoundDuration":55762,"Delta":55395805},{"NoteNumber":61,"Velocity":70,"Duration":56818,"SoundDuration":56818,"Delta":55507329},{"NoteNumber":74,"Velocity":73,"Duration":56818,"SoundDuration":56818,"Delta":55620965},{"NoteNumber":62,"Velocity":57,"Duration":56818,"SoundDuration":56818,"Delta":55620965},{"NoteNumber":62,"Velocity":75,"Duration":56818,"SoundDuration":56818,"Delta":55734601},{"NoteNumber":74,"Velocity":68,"Duration":56818,"SoundDuration":56818,"Delta":55848237},{"NoteNumber":62,"Velocity":52,"Duration":56818,"SoundDuration":56818,"Delta":55848237},{"NoteNumber":57,"Velocity":70,"Duration":56818,"SoundDuration":56818,"Delta":55961874},{"NoteNumber":74,"Velocity":63,"Duration":60483,"SoundDuration":60483,"Delta":56075510},{"NoteNumber":62,"Velocity":49,"Duration":60483,"SoundDuration":60483,"Delta":56075510},{"NoteNumber":37,"Velocity":79,"Duration":116731,"SoundDuration":116731,"Delta":56196478},{"NoteNumber":49,"Velocity":94,"Duration":116731,"SoundDuration":116731,"Delta":56196478},{"NoteNumber":94,"Velocity":86,"Duration":89820,"SoundDuration":89820,"Delta":56313209},{"NoteNumber":87,"Velocity":86,"Duration":89820,"SoundDuration":89820,"Delta":56313209},{"NoteNumber":91,"Velocity":86,"Duration":89820,"SoundDuration":89820,"Delta":56313209},{"NoteNumber":99,"Velocity":102,"Duration":89820,"SoundDuration":89820,"Delta":56313209},{"NoteNumber":63,"Velocity":73,"Duration":53956,"SoundDuration":53956,"Delta":56492850},{"NoteNumber":75,"Velocity":71,"Duration":53956,"SoundDuration":53956,"Delta":56600764},{"NoteNumber":63,"Velocity":55,"Duration":53956,"SoundDuration":53956,"Delta":56600764},{"NoteNumber":65,"Velocity":82,"Duration":55970,"SoundDuration":55970,"Delta":56708677},{"NoteNumber":75,"Velocity":78,"Duration":55970,"SoundDuration":55970,"Delta":56820618},{"NoteNumber":63,"Velocity":60,"Duration":55970,"SoundDuration":55970,"Delta":56820618},{"NoteNumber":62,"Velocity":70,"Duration":56818,"SoundDuration":56818,"Delta":56932558},{"NoteNumber":63,"Velocity":57,"Duration":56818,"SoundDuration":56818,"Delta":57046194},{"NoteNumber":75,"Velocity":73,"Duration":56818,"SoundDuration":56818,"Delta":57046194},{"NoteNumber":63,"Velocity":75,"Duration":56818,"SoundDuration":56818,"Delta":57159830},{"NoteNumber":75,"Velocity":68,"Duration":56818,"SoundDuration":56818,"Delta":57273467},{"NoteNumber":63,"Velocity":52,"Duration":56818,"SoundDuration":56818,"Delta":57273467},{"NoteNumber":58,"Velocity":70,"Duration":56818,"SoundDuration":56818,"Delta":57387103},{"NoteNumber":75,"Velocity":63,"Duration":58823,"SoundDuration":58823,"Delta":57500739},{"NoteNumber":63,"Velocity":49,"Duration":58823,"SoundDuration":58823,"Delta":57500739},{"NoteNumber":38,"Velocity":75,"Duration":116731,"SoundDuration":116731,"Delta":57618386},{"NoteNumber":50,"Velocity":89,"Duration":116731,"SoundDuration":116731,"Delta":57618386},{"NoteNumber":98,"Velocity":103,"Duration":88757,"SoundDuration":88757,"Delta":57735118},{"NoteNumber":86,"Velocity":87,"Duration":88757,"SoundDuration":88757,"Delta":57735118},{"NoteNumber":90,"Velocity":87,"Duration":88757,"SoundDuration":88757,"Delta":57735118},{"NoteNumber":93,"Velocity":87,"Duration":88757,"SoundDuration":88757,"Delta":57735118},{"NoteNumber":62,"Velocity":73,"Duration":53956,"SoundDuration":53956,"Delta":57912632},{"NoteNumber":74,"Velocity":71,"Duration":53956,"SoundDuration":53956,"Delta":58020546},{"NoteNumber":62,"Velocity":55,"Duration":53956,"SoundDuration":53956,"Delta":58020546},{"NoteNumber":63,"Velocity":78,"Duration":55762,"SoundDuration":55762,"Delta":58128460},{"NoteNumber":62,"Velocity":57,"Duration":55762,"SoundDuration":55762,"Delta":58239984},{"NoteNumber":74,"Velocity":74,"Duration":55762,"SoundDuration":55762,"Delta":58239984},{"NoteNumber":61,"Velocity":70,"Duration":56818,"SoundDuration":56818,"Delta":58351508},{"NoteNumber":74,"Velocity":73,"Duration":56818,"SoundDuration":56818,"Delta":58465145},{"NoteNumber":62,"Velocity":57,"Duration":56818,"SoundDuration":56818,"Delta":58465145},{"NoteNumber":62,"Velocity":75,"Duration":56818,"SoundDuration":56818,"Delta":58578781},{"NoteNumber":74,"Velocity":68,"Duration":56818,"SoundDuration":56818,"Delta":58692417},{"NoteNumber":62,"Velocity":52,"Duration":56818,"SoundDuration":56818,"Delta":58692417},{"NoteNumber":57,"Velocity":70,"Duration":56818,"SoundDuration":56818,"Delta":58806053},{"NoteNumber":74,"Velocity":63,"Duration":59523,"SoundDuration":59523,"Delta":58919690},{"NoteNumber":62,"Velocity":49,"Duration":59523,"SoundDuration":59523,"Delta":58919690},{"NoteNumber":37,"Velocity":79,"Duration":116731,"SoundDuration":116731,"Delta":59038737},{"NoteNumber":49,"Velocity":94,"Duration":116731,"SoundDuration":116731,"Delta":59038737},{"NoteNumber":91,"Velocity":86,"Duration":87719,"SoundDuration":87719,"Delta":59155469},{"NoteNumber":87,"Velocity":86,"Duration":87719,"SoundDuration":87719,"Delta":59155469},{"NoteNumber":99,"Velocity":102,"Duration":87719,"SoundDuration":87719,"Delta":59155469},{"NoteNumber":94,"Velocity":86,"Duration":87719,"SoundDuration":87719,"Delta":59155469},{"NoteNumber":63,"Velocity":73,"Duration":54347,"SoundDuration":54347,"Delta":59330907},{"NoteNumber":75,"Velocity":71,"Duration":54347,"SoundDuration":54347,"Delta":59439603},{"NoteNumber":63,"Velocity":55,"Duration":54347,"SoundDuration":54347,"Delta":59439603},{"NoteNumber":65,"Velocity":79,"Duration":55970,"SoundDuration":55970,"Delta":59548299},{"NoteNumber":75,"Velocity":78,"Duration":55970,"SoundDuration":55970,"Delta":59660239},{"NoteNumber":63,"Velocity":60,"Duration":55970,"SoundDuration":55970,"Delta":59660239},{"NoteNumber":62,"Velocity":70,"Duration":56818,"SoundDuration":56818,"Delta":59772179},{"NoteNumber":75,"Velocity":73,"Duration":56818,"SoundDuration":56818,"Delta":59885815},{"NoteNumber":63,"Velocity":57,"Duration":56818,"SoundDuration":56818,"Delta":59885815},{"NoteNumber":63,"Velocity":75,"Duration":56818,"SoundDuration":56818,"Delta":59999452},{"NoteNumber":63,"Velocity":52,"Duration":56818,"SoundDuration":56818,"Delta":60113088},{"NoteNumber":75,"Velocity":68,"Duration":56818,"SoundDuration":56818,"Delta":60113088},{"NoteNumber":58,"Velocity":70,"Duration":56818,"SoundDuration":56818,"Delta":60226724},{"NoteNumber":75,"Velocity":63,"Duration":56818,"SoundDuration":56818,"Delta":60340360},{"NoteNumber":63,"Velocity":49,"Duration":56818,"SoundDuration":56818,"Delta":60340360},{"NoteNumber":38,"Velocity":75,"Duration":116731,"SoundDuration":116731,"Delta":60453997},{"NoteNumber":50,"Velocity":89,"Duration":116731,"SoundDuration":116731,"Delta":60453997},{"NoteNumber":98,"Velocity":102,"Duration":90909,"SoundDuration":90909,"Delta":60570728},{"NoteNumber":86,"Velocity":86,"Duration":90909,"SoundDuration":90909,"Delta":60570728},{"NoteNumber":90,"Velocity":86,"Duration":90909,"SoundDuration":90909,"Delta":60570728},{"NoteNumber":93,"Velocity":86,"Duration":90909,"SoundDuration":90909,"Delta":60570728},{"NoteNumber":62,"Velocity":73,"Duration":55146,"SoundDuration":55146,"Delta":60752546},{"NoteNumber":74,"Velocity":71,"Duration":55146,"SoundDuration":55146,"Delta":60862840},{"NoteNumber":62,"Velocity":55,"Duration":55146,"SoundDuration":55146,"Delta":60862840},{"NoteNumber":63,"Velocity":78,"Duration":55762,"SoundDuration":55762,"Delta":60973134},{"NoteNumber":74,"Velocity":78,"Duration":55762,"SoundDuration":55762,"Delta":61084659},{"NoteNumber":62,"Velocity":60,"Duration":55762,"SoundDuration":55762,"Delta":61084659},{"NoteNumber":61,"Velocity":70,"Duration":56818,"SoundDuration":56818,"Delta":61196183},{"NoteNumber":74,"Velocity":73,"Duration":56818,"SoundDuration":56818,"Delta":61309819},{"NoteNumber":62,"Velocity":57,"Duration":56818,"SoundDuration":56818,"Delta":61309819},{"NoteNumber":62,"Velocity":75,"Duration":56818,"SoundDuration":56818,"Delta":61423455},{"NoteNumber":74,"Velocity":68,"Duration":56818,"SoundDuration":56818,"Delta":61537092},{"NoteNumber":62,"Velocity":52,"Duration":56818,"SoundDuration":56818,"Delta":61537092},{"NoteNumber":58,"Velocity":70,"Duration":56818,"SoundDuration":56818,"Delta":61650728},{"NoteNumber":74,"Velocity":63,"Duration":56818,"SoundDuration":56818,"Delta":61764364},{"NoteNumber":62,"Velocity":49,"Duration":56818,"SoundDuration":56818,"Delta":61764364},{"NoteNumber":60,"Velocity":76,"Duration":114503,"SoundDuration":114503,"Delta":61878000},{"NoteNumber":74,"Velocity":68,"Duration":57251,"SoundDuration":57251,"Delta":61992504},{"NoteNumber":62,"Velocity":53,"Duration":57251,"SoundDuration":57251,"Delta":61992504},{"NoteNumber":57,"Velocity":67,"Duration":55146,"SoundDuration":55146,"Delta":62107008},{"NoteNumber":74,"Velocity":65,"Duration":55146,"SoundDuration":55146,"Delta":62217302},{"NoteNumber":62,"Velocity":50,"Duration":55146,"SoundDuration":55146,"Delta":62217302},{"NoteNumber":58,"Velocity":70,"Duration":55762,"SoundDuration":55762,"Delta":62327596},{"NoteNumber":62,"Velocity":51,"Duration":55762,"SoundDuration":55762,"Delta":62439120},{"NoteNumber":74,"Velocity":66,"Duration":55762,"SoundDuration":55762,"Delta":62439120},{"NoteNumber":60,"Velocity":64,"Duration":56818,"SoundDuration":56818,"Delta":62550644},{"NoteNumber":74,"Velocity":63,"Duration":56818,"SoundDuration":56818,"Delta":62664281},{"NoteNumber":62,"Velocity":49,"Duration":56818,"SoundDuration":56818,"Delta":62664281},{"NoteNumber":57,"Velocity":69,"Duration":55350,"SoundDuration":55350,"Delta":62777917},{"NoteNumber":74,"Velocity":65,"Duration":55350,"SoundDuration":55350,"Delta":62888618},{"NoteNumber":62,"Velocity":50,"Duration":55350,"SoundDuration":55350,"Delta":62888618},{"NoteNumber":58,"Velocity":64,"Duration":55970,"SoundDuration":55970,"Delta":62999319},{"NoteNumber":74,"Velocity":58,"Duration":55970,"SoundDuration":55970,"Delta":63111259},{"NoteNumber":62,"Velocity":45,"Duration":55970,"SoundDuration":55970,"Delta":63111259},{"NoteNumber":55,"Velocity":76,"Duration":109890,"SoundDuration":109890,"Delta":63223199},{"NoteNumber":62,"Velocity":53,"Duration":54944,"SoundDuration":54944,"Delta":63333089},{"NoteNumber":74,"Velocity":68,"Duration":54944,"SoundDuration":54944,"Delta":63333089},{"NoteNumber":57,"Velocity":67,"Duration":55970,"SoundDuration":55970,"Delta":63442979},{"NoteNumber":62,"Velocity":49,"Duration":55970,"SoundDuration":55970,"Delta":63554920},{"NoteNumber":74,"Velocity":63,"Duration":55970,"SoundDuration":55970,"Delta":63554920},{"NoteNumber":58,"Velocity":69,"Duration":55146,"SoundDuration":55146,"Delta":63666860},{"NoteNumber":74,"Velocity":63,"Duration":55146,"SoundDuration":55146,"Delta":63777154},{"NoteNumber":62,"Velocity":49,"Duration":55146,"SoundDuration":55146,"Delta":63777154},{"NoteNumber":60,"Velocity":62,"Duration":55970,"SoundDuration":55970,"Delta":63887448},{"NoteNumber":74,"Velocity":62,"Duration":55970,"SoundDuration":55970,"Delta":63999388},{"NoteNumber":62,"Velocity":48,"Duration":55970,"SoundDuration":55970,"Delta":63999388},{"NoteNumber":57,"Velocity":66,"Duration":55147,"SoundDuration":55147,"Delta":64111328},{"NoteNumber":74,"Velocity":62,"Duration":55147,"SoundDuration":55147,"Delta":64221622},{"NoteNumber":62,"Velocity":48,"Duration":55147,"SoundDuration":55147,"Delta":64221622},{"NoteNumber":58,"Velocity":61,"Duration":55350,"SoundDuration":55350,"Delta":64331916},{"NoteNumber":62,"Velocity":43,"Duration":55350,"SoundDuration":55350,"Delta":64442617},{"NoteNumber":74,"Velocity":55,"Duration":55350,"SoundDuration":55350,"Delta":64442617},{"NoteNumber":55,"Velocity":72,"Duration":109488,"SoundDuration":109488,"Delta":64553318},{"NoteNumber":62,"Velocity":49,"Duration":54744,"SoundDuration":54744,"Delta":64662807},{"NoteNumber":74,"Velocity":63,"Duration":54744,"SoundDuration":54744,"Delta":64662807},{"NoteNumber":57,"Velocity":62,"Duration":56179,"SoundDuration":56179,"Delta":64772296},{"NoteNumber":74,"Velocity":59,"Duration":56179,"SoundDuration":56179,"Delta":64884656},{"NoteNumber":62,"Velocity":46,"Duration":56179,"SoundDuration":56179,"Delta":64884656},{"NoteNumber":58,"Velocity":64,"Duration":56391,"SoundDuration":56391,"Delta":64997015},{"NoteNumber":74,"Velocity":59,"Duration":56890,"SoundDuration":56890,"Delta":65109939},{"NoteNumber":62,"Velocity":46,"Duration":56890,"SoundDuration":56890,"Delta":65109939},{"NoteNumber":55,"Velocity":57,"Duration":57544,"SoundDuration":57544,"Delta":65224009},{"NoteNumber":74,"Velocity":55,"Duration":58139,"SoundDuration":58139,"Delta":65339394},{"NoteNumber":62,"Velocity":43,"Duration":58139,"SoundDuration":58139,"Delta":65339394},{"NoteNumber":53,"Velocity":60,"Duration":58670,"SoundDuration":58670,"Delta":65455824},{"NoteNumber":74,"Velocity":57,"Duration":59366,"SoundDuration":59366,"Delta":65573473},{"NoteNumber":62,"Velocity":44,"Duration":59366,"SoundDuration":59366,"Delta":65573473},{"NoteNumber":51,"Velocity":55,"Duration":59455,"SoundDuration":59455,"Delta":65692521},{"NoteNumber":62,"Velocity":38,"Duration":58365,"SoundDuration":58365,"Delta":65810342},{"NoteNumber":74,"Velocity":49,"Duration":58365,"SoundDuration":58365,"Delta":65810342},{"NoteNumber":38,"Velocity":63,"Duration":116731,"SoundDuration":116731,"Delta":65927074},{"NoteNumber":50,"Velocity":74,"Duration":116731,"SoundDuration":116731,"Delta":65927074},{"NoteNumber":74,"Velocity":75,"Duration":58365,"SoundDuration":58365,"Delta":66043805},{"NoteNumber":62,"Velocity":58,"Duration":58365,"SoundDuration":58365,"Delta":66043805},{"NoteNumber":62,"Velocity":56,"Duration":55147,"SoundDuration":55147,"Delta":66160537},{"NoteNumber":62,"Velocity":42,"Duration":55147,"SoundDuration":55147,"Delta":66270831},{"NoteNumber":63,"Velocity":63,"Duration":55762,"SoundDuration":55762,"Delta":66381125},{"NoteNumber":62,"Velocity":46,"Duration":55762,"SoundDuration":55762,"Delta":66492649},{"NoteNumber":60,"Velocity":54,"Duration":56818,"SoundDuration":56818,"Delta":66604173},{"NoteNumber":62,"Velocity":44,"Duration":56818,"SoundDuration":56818,"Delta":66717810},{"NoteNumber":62,"Velocity":58,"Duration":56818,"SoundDuration":56818,"Delta":66831446},{"NoteNumber":62,"Velocity":40,"Duration":56818,"SoundDuration":56818,"Delta":66945082},{"NoteNumber":58,"Velocity":54,"Duration":56818,"SoundDuration":56818,"Delta":67058718},{"NoteNumber":62,"Velocity":38,"Duration":56818,"SoundDuration":56818,"Delta":67172355},{"NoteNumber":60,"Velocity":64,"Duration":114503,"SoundDuration":114503,"Delta":67285991},{"NoteNumber":62,"Velocity":45,"Duration":57251,"SoundDuration":57251,"Delta":67400495},{"NoteNumber":57,"Velocity":56,"Duration":55147,"SoundDuration":55147,"Delta":67514998},{"NoteNumber":62,"Velocity":42,"Duration":55147,"SoundDuration":55147,"Delta":67625292},{"NoteNumber":58,"Velocity":59,"Duration":55762,"SoundDuration":55762,"Delta":67735586},{"NoteNumber":62,"Velocity":43,"Duration":55762,"SoundDuration":55762,"Delta":67847111},{"NoteNumber":60,"Velocity":54,"Duration":56818,"SoundDuration":56818,"Delta":67958635},{"NoteNumber":62,"Velocity":41,"Duration":56818,"SoundDuration":56818,"Delta":68072271},{"NoteNumber":57,"Velocity":58,"Duration":55350,"SoundDuration":55350,"Delta":68185907},{"NoteNumber":62,"Velocity":42,"Duration":55350,"SoundDuration":55350,"Delta":68296608},{"NoteNumber":58,"Velocity":54,"Duration":55970,"SoundDuration":55970,"Delta":68407309},{"NoteNumber":62,"Velocity":38,"Duration":55970,"SoundDuration":55970,"Delta":68519250},{"NoteNumber":55,"Velocity":64,"Duration":109889,"SoundDuration":109889,"Delta":68631190},{"NoteNumber":62,"Velocity":45,"Duration":54945,"SoundDuration":54945,"Delta":68741080},{"NoteNumber":57,"Velocity":56,"Duration":55970,"SoundDuration":55970,"Delta":68850970},{"NoteNumber":62,"Velocity":41,"Duration":55970,"SoundDuration":55970,"Delta":68962910},{"NoteNumber":58,"Velocity":58,"Duration":55147,"SoundDuration":55147,"Delta":69074850},{"NoteNumber":62,"Velocity":41,"Duration":55147,"SoundDuration":55147,"Delta":69185144},{"NoteNumber":60,"Velocity":52,"Duration":55970,"SoundDuration":55970,"Delta":69295438},{"NoteNumber":62,"Velocity":40,"Duration":55970,"SoundDuration":55970,"Delta":69407379},{"NoteNumber":57,"Velocity":56,"Duration":55147,"SoundDuration":55147,"Delta":69519319},{"NoteNumber":62,"Velocity":40,"Duration":55147,"SoundDuration":55147,"Delta":69629613},{"NoteNumber":58,"Velocity":51,"Duration":55350,"SoundDuration":55350,"Delta":69739907},{"NoteNumber":62,"Velocity":36,"Duration":55350,"SoundDuration":55350,"Delta":69850608},{"NoteNumber":55,"Velocity":61,"Duration":109488,"SoundDuration":109488,"Delta":69961309},{"NoteNumber":62,"Velocity":41,"Duration":54744,"SoundDuration":54744,"Delta":70070798},{"NoteNumber":57,"Velocity":52,"Duration":56179,"SoundDuration":56179,"Delta":70180287},{"NoteNumber":62,"Velocity":39,"Duration":56179,"SoundDuration":56179,"Delta":70292646},{"NoteNumber":58,"Velocity":54,"Duration":56391,"SoundDuration":56391,"Delta":70405006},{"NoteNumber":62,"Velocity":39,"Duration":56603,"SoundDuration":56603,"Delta":70517788},{"NoteNumber":55,"Velocity":48,"Duration":56890,"SoundDuration":56890,"Delta":70631138},{"NoteNumber":62,"Velocity":36,"Duration":57251,"SoundDuration":57251,"Delta":70745063},{"NoteNumber":53,"Velocity":51,"Duration":57544,"SoundDuration":57544,"Delta":70859713},{"NoteNumber":62,"Velocity":37,"Duration":57914,"SoundDuration":57914,"Delta":70974950},{"NoteNumber":51,"Velocity":46,"Duration":58214,"SoundDuration":58214,"Delta":71090930},{"NoteNumber":62,"Velocity":32,"Duration":58365,"SoundDuration":58365,"Delta":71207510},{"NoteNumber":38,"Velocity":45,"Duration":1348552,"SoundDuration":1348552,"Delta":71324242},{"NoteNumber":57,"Velocity":36,"Duration":58365,"SoundDuration":58365,"Delta":71440973},{"NoteNumber":54,"Velocity":36,"Duration":58365,"SoundDuration":58365,"Delta":71440973},{"NoteNumber":45,"Velocity":45,"Duration":55555,"SoundDuration":55555,"Delta":71557705},{"NoteNumber":54,"Velocity":31,"Duration":55555,"SoundDuration":55555,"Delta":71668816},{"NoteNumber":57,"Velocity":31,"Duration":55555,"SoundDuration":55555,"Delta":71668816},{"NoteNumber":50,"Velocity":42,"Duration":55762,"SoundDuration":55762,"Delta":71779927},{"NoteNumber":54,"Velocity":34,"Duration":55762,"SoundDuration":55762,"Delta":71891451},{"NoteNumber":57,"Velocity":34,"Duration":55762,"SoundDuration":55762,"Delta":71891451},{"NoteNumber":51,"Velocity":49,"Duration":56818,"SoundDuration":56818,"Delta":72002975},{"NoteNumber":54,"Velocity":33,"Duration":56818,"SoundDuration":56818,"Delta":72116612},{"NoteNumber":57,"Velocity":33,"Duration":56818,"SoundDuration":56818,"Delta":72116612},{"NoteNumber":49,"Velocity":54,"Duration":55489,"SoundDuration":55489,"Delta":72230248},{"NoteNumber":54,"Velocity":35,"Duration":54944,"SoundDuration":54944,"Delta":72340683},{"NoteNumber":57,"Velocity":35,"Duration":54944,"SoundDuration":54944,"Delta":72340683},{"NoteNumber":50,"Velocity":51,"Duration":55555,"SoundDuration":55555,"Delta":72450573},{"NoteNumber":54,"Velocity":34,"Duration":55555,"SoundDuration":55555,"Delta":72561684},{"NoteNumber":57,"Velocity":34,"Duration":55555,"SoundDuration":55555,"Delta":72561684},{"NoteNumber":38,"Velocity":56,"Duration":1352726,"SoundDuration":1352726,"Delta":72672795},{"NoteNumber":58,"Velocity":36,"Duration":56818,"SoundDuration":56818,"Delta":72786431},{"NoteNumber":55,"Velocity":36,"Duration":56818,"SoundDuration":56818,"Delta":72786431},{"NoteNumber":45,"Velocity":49,"Duration":55147,"SoundDuration":55147,"Delta":72900067},{"NoteNumber":55,"Velocity":31,"Duration":55147,"SoundDuration":55147,"Delta":73010361},{"NoteNumber":58,"Velocity":31,"Duration":55147,"SoundDuration":55147,"Delta":73010361},{"NoteNumber":51,"Velocity":51,"Duration":55762,"SoundDuration":55762,"Delta":73120655},{"NoteNumber":55,"Velocity":34,"Duration":55762,"SoundDuration":55762,"Delta":73232179},{"NoteNumber":58,"Velocity":34,"Duration":55762,"SoundDuration":55762,"Delta":73232179},{"NoteNumber":53,"Velocity":46,"Duration":56818,"SoundDuration":56818,"Delta":73343704},{"NoteNumber":55,"Velocity":29,"Duration":56818,"SoundDuration":56818,"Delta":73457340},{"NoteNumber":58,"Velocity":29,"Duration":56818,"SoundDuration":56818,"Delta":73457340},{"NoteNumber":50,"Velocity":49,"Duration":56818,"SoundDuration":56818,"Delta":73570976},{"NoteNumber":58,"Velocity":34,"Duration":56818,"SoundDuration":56818,"Delta":73684612},{"NoteNumber":55,"Velocity":34,"Duration":56818,"SoundDuration":56818,"Delta":73684612},{"NoteNumber":51,"Velocity":46,"Duration":56818,"SoundDuration":56818,"Delta":73798249},{"NoteNumber":55,"Velocity":31,"Duration":56818,"SoundDuration":56818,"Delta":73911885},{"NoteNumber":58,"Velocity":31,"Duration":56818,"SoundDuration":56818,"Delta":73911885},{"NoteNumber":38,"Velocity":45,"Duration":1348840,"SoundDuration":1348840,"Delta":74025521},{"NoteNumber":54,"Velocity":36,"Duration":58365,"SoundDuration":58365,"Delta":74142253},{"NoteNumber":57,"Velocity":36,"Duration":58365,"SoundDuration":58365,"Delta":74142253},{"NoteNumber":45,"Velocity":45,"Duration":55147,"SoundDuration":55147,"Delta":74258984},{"NoteNumber":54,"Velocity":31,"Duration":55147,"SoundDuration":55147,"Delta":74369278},{"NoteNumber":57,"Velocity":31,"Duration":55147,"SoundDuration":55147,"Delta":74369278},{"NoteNumber":50,"Velocity":42,"Duration":55762,"SoundDuration":55762,"Delta":74479572},{"NoteNumber":54,"Velocity":34,"Duration":55762,"SoundDuration":55762,"Delta":74591096},{"NoteNumber":57,"Velocity":34,"Duration":55762,"SoundDuration":55762,"Delta":74591096},{"NoteNumber":51,"Velocity":47,"Duration":56818,"SoundDuration":56818,"Delta":74702621},{"NoteNumber":54,"Velocity":33,"Duration":56818,"SoundDuration":56818,"Delta":74816257},{"NoteNumber":57,"Velocity":33,"Duration":56818,"SoundDuration":56818,"Delta":74816257},{"NoteNumber":49,"Velocity":52,"Duration":55147,"SoundDuration":55147,"Delta":74929893},{"NoteNumber":54,"Velocity":35,"Duration":55147,"SoundDuration":55147,"Delta":75040187},{"NoteNumber":57,"Velocity":35,"Duration":55147,"SoundDuration":55147,"Delta":75040187},{"NoteNumber":50,"Velocity":49,"Duration":55970,"SoundDuration":55970,"Delta":75150481},{"NoteNumber":54,"Velocity":34,"Duration":55970,"SoundDuration":55970,"Delta":75262421},{"NoteNumber":57,"Velocity":34,"Duration":55970,"SoundDuration":55970,"Delta":75262421},{"NoteNumber":38,"Velocity":54,"Duration":1345936,"SoundDuration":1345936,"Delta":75374362},{"NoteNumber":55,"Velocity":36,"Duration":56603,"SoundDuration":56603,"Delta":75487569},{"NoteNumber":58,"Velocity":36,"Duration":56603,"SoundDuration":56603,"Delta":75487569},{"NoteNumber":45,"Velocity":46,"Duration":55147,"SoundDuration":55147,"Delta":75600777},{"NoteNumber":55,"Velocity":31,"Duration":55147,"SoundDuration":55147,"Delta":75711071},{"NoteNumber":58,"Velocity":31,"Duration":55147,"SoundDuration":55147,"Delta":75711071},{"NoteNumber":51,"Velocity":48,"Duration":55762,"SoundDuration":55762,"Delta":75821365},{"NoteNumber":58,"Velocity":34,"Duration":55762,"SoundDuration":55762,"Delta":75932889},{"NoteNumber":55,"Velocity":34,"Duration":55762,"SoundDuration":55762,"Delta":75932889},{"NoteNumber":53,"Velocity":45,"Duration":56818,"SoundDuration":56818,"Delta":76044413},{"NoteNumber":55,"Velocity":29,"Duration":56818,"SoundDuration":56818,"Delta":76158049},{"NoteNumber":58,"Velocity":29,"Duration":56818,"SoundDuration":56818,"Delta":76158049},{"NoteNumber":50,"Velocity":47,"Duration":55762,"SoundDuration":55762,"Delta":76271686},{"NoteNumber":55,"Velocity":34,"Duration":55762,"SoundDuration":55762,"Delta":76383210},{"NoteNumber":58,"Velocity":34,"Duration":55762,"SoundDuration":55762,"Delta":76383210},{"NoteNumber":51,"Velocity":44,"Duration":56391,"SoundDuration":56391,"Delta":76494734},{"NoteNumber":55,"Velocity":31,"Duration":56391,"SoundDuration":56391,"Delta":76607516},{"NoteNumber":58,"Velocity":31,"Duration":56391,"SoundDuration":56391,"Delta":76607516},{"NoteNumber":38,"Velocity":45,"Duration":2705774,"SoundDuration":2705774,"Delta":76720298},{"NoteNumber":57,"Velocity":36,"Duration":58365,"SoundDuration":58365,"Delta":76837030},{"NoteNumber":54,"Velocity":36,"Duration":58365,"SoundDuration":58365,"Delta":76837030},{"NoteNumber":45,"Velocity":45,"Duration":55147,"SoundDuration":55147,"Delta":76953761},{"NoteNumber":54,"Velocity":31,"Duration":55147,"SoundDuration":55147,"Delta":77064055},{"NoteNumber":57,"Velocity":31,"Duration":55147,"SoundDuration":55147,"Delta":77064055},{"NoteNumber":50,"Velocity":42,"Duration":55762,"SoundDuration":55762,"Delta":77174349},{"NoteNumber":54,"Velocity":34,"Duration":55762,"SoundDuration":55762,"Delta":77285873},{"NoteNumber":57,"Velocity":34,"Duration":55762,"SoundDuration":55762,"Delta":77285873},{"NoteNumber":51,"Velocity":47,"Duration":56818,"SoundDuration":56818,"Delta":77397398},{"NoteNumber":54,"Velocity":33,"Duration":56818,"SoundDuration":56818,"Delta":77511034},{"NoteNumber":57,"Velocity":33,"Duration":56818,"SoundDuration":56818,"Delta":77511034},{"NoteNumber":49,"Velocity":51,"Duration":55555,"SoundDuration":55555,"Delta":77624670},{"NoteNumber":54,"Velocity":35,"Duration":55555,"SoundDuration":55555,"Delta":77735781},{"NoteNumber":57,"Velocity":35,"Duration":55555,"SoundDuration":55555,"Delta":77735781},{"NoteNumber":51,"Velocity":48,"Duration":56179,"SoundDuration":56179,"Delta":77846892},{"NoteNumber":54,"Velocity":34,"Duration":56179,"SoundDuration":56179,"Delta":77959252},{"NoteNumber":57,"Velocity":34,"Duration":56179,"SoundDuration":56179,"Delta":77959252},{"NoteNumber":50,"Velocity":53,"Duration":57251,"SoundDuration":57251,"Delta":78071611},{"NoteNumber":57,"Velocity":36,"Duration":57251,"SoundDuration":57251,"Delta":78186115},{"NoteNumber":54,"Velocity":36,"Duration":57251,"SoundDuration":57251,"Delta":78186115},{"NoteNumber":51,"Velocity":46,"Duration":55147,"SoundDuration":55147,"Delta":78300619},{"NoteNumber":54,"Velocity":31,"Duration":55147,"SoundDuration":55147,"Delta":78410913},{"NoteNumber":57,"Velocity":31,"Duration":55147,"SoundDuration":55147,"Delta":78410913},{"NoteNumber":49,"Velocity":48,"Duration":55762,"SoundDuration":55762,"Delta":78521207},{"NoteNumber":54,"Velocity":34,"Duration":55762,"SoundDuration":55762,"Delta":78632731},{"NoteNumber":57,"Velocity":34,"Duration":55762,"SoundDuration":55762,"Delta":78632731},{"NoteNumber":51,"Velocity":45,"Duration":56818,"SoundDuration":56818,"Delta":78744255},{"NoteNumber":54,"Velocity":29,"Duration":56818,"SoundDuration":56818,"Delta":78857891},{"NoteNumber":57,"Velocity":29,"Duration":56818,"SoundDuration":56818,"Delta":78857891},{"NoteNumber":50,"Velocity":45,"Duration":56818,"SoundDuration":56818,"Delta":78971528},{"NoteNumber":57,"Velocity":34,"Duration":56818,"SoundDuration":56818,"Delta":79085164},{"NoteNumber":54,"Velocity":34,"Duration":56818,"SoundDuration":56818,"Delta":79085164},{"NoteNumber":45,"Velocity":44,"Duration":56818,"SoundDuration":56818,"Delta":79198800},{"NoteNumber":57,"Velocity":31,"Duration":56818,"SoundDuration":56818,"Delta":79312436},{"NoteNumber":54,"Velocity":31,"Duration":56818,"SoundDuration":56818,"Delta":79312436},{"NoteNumber":38,"Velocity":45,"Duration":56818,"SoundDuration":56818,"Delta":79426073},{"NoteNumber":54,"Velocity":43,"Duration":56818,"SoundDuration":56818,"Delta":79539709},{"NoteNumber":54,"Velocity":45,"Duration":56818,"SoundDuration":56818,"Delta":79653345},{"NoteNumber":57,"Velocity":43,"Duration":56818,"SoundDuration":56818,"Delta":79766981},{"NoteNumber":57,"Velocity":45,"Duration":56818,"SoundDuration":56818,"Delta":79880618},{"NoteNumber":62,"Velocity":42,"Duration":56818,"SoundDuration":56818,"Delta":79994254},{"NoteNumber":62,"Velocity":45,"Duration":56818,"SoundDuration":56818,"Delta":80107890},{"NoteNumber":66,"Velocity":42,"Duration":56818,"SoundDuration":56818,"Delta":80221526},{"NoteNumber":66,"Velocity":44,"Duration":56818,"SoundDuration":56818,"Delta":80335163},{"NoteNumber":69,"Velocity":41,"Duration":56818,"SoundDuration":56818,"Delta":80448799},{"NoteNumber":69,"Velocity":43,"Duration":56818,"SoundDuration":56818,"Delta":80562435},{"NoteNumber":74,"Velocity":41,"Duration":56818,"SoundDuration":56818,"Delta":80676071},{"NoteNumber":74,"Velocity":43,"Duration":56818,"SoundDuration":56818,"Delta":80789708},{"NoteNumber":78,"Velocity":40,"Duration":57034,"SoundDuration":57034,"Delta":80903344},{"NoteNumber":78,"Velocity":42,"Duration":57251,"SoundDuration":57251,"Delta":81017412},{"NoteNumber":81,"Velocity":40,"Duration":57471,"SoundDuration":57471,"Delta":81132062},{"NoteNumber":81,"Velocity":42,"Duration":57766,"SoundDuration":57766,"Delta":81247152},{"NoteNumber":86,"Velocity":39,"Duration":57989,"SoundDuration":57989,"Delta":81362834},{"NoteNumber":86,"Velocity":41,"Duration":58365,"SoundDuration":58365,"Delta":81478963},{"NoteNumber":90,"Velocity":39,"Duration":58593,"SoundDuration":58593,"Delta":81595694},{"NoteNumber":90,"Velocity":41,"Duration":58900,"SoundDuration":58900,"Delta":81713035},{"NoteNumber":93,"Velocity":39,"Duration":59523,"SoundDuration":59523,"Delta":81831147},{"NoteNumber":93,"Velocity":40,"Duration":60080,"SoundDuration":60080,"Delta":81950352},{"NoteNumber":98,"Velocity":39,"Duration":65502,"SoundDuration":65502,"Delta":82070835},{"NoteNumber":98,"Velocity":43,"Duration":2096068,"SoundDuration":2096068,"Delta":82201840},{"NoteNumber":90,"Velocity":43,"Duration":2096068,"SoundDuration":2096068,"Delta":82201840},{"NoteNumber":86,"Velocity":43,"Duration":2096068,"SoundDuration":2096068,"Delta":82201840},{"NoteNumber":81,"Velocity":34,"Duration":2096068,"SoundDuration":2096068,"Delta":82201840},{"NoteNumber":74,"Velocity":34,"Duration":2096068,"SoundDuration":2096068,"Delta":82201840},{"NoteNumber":86,"Velocity":65,"Duration":1500000,"SoundDuration":1500000,"Delta":85345942},{"NoteNumber":62,"Velocity":55,"Duration":1500000,"SoundDuration":1500000,"Delta":85345942},{"NoteNumber":84,"Velocity":57,"Duration":375000,"SoundDuration":375000,"Delta":86845942},{"NoteNumber":60,"Velocity":48,"Duration":375000,"SoundDuration":375000,"Delta":86845942},{"NoteNumber":86,"Velocity":57,"Duration":375000,"SoundDuration":375000,"Delta":87220942},{"NoteNumber":62,"Velocity":48,"Duration":375000,"SoundDuration":375000,"Delta":87220942},{"NoteNumber":89,"Velocity":64,"Duration":1398214,"SoundDuration":1398214,"Delta":87595942},{"NoteNumber":65,"Velocity":54,"Duration":1398214,"SoundDuration":1398214,"Delta":87595942},{"NoteNumber":86,"Velocity":54,"Duration":85714,"SoundDuration":85714,"Delta":88908442},{"NoteNumber":62,"Velocity":45,"Duration":85714,"SoundDuration":85714,"Delta":88908442},{"NoteNumber":87,"Velocity":54,"Duration":85714,"SoundDuration":85714,"Delta":88994156},{"NoteNumber":63,"Velocity":45,"Duration":85714,"SoundDuration":85714,"Delta":88994156},{"NoteNumber":86,"Velocity":60,"Duration":355029,"SoundDuration":355029,"Delta":89079870},{"NoteNumber":62,"Velocity":51,"Duration":355029,"SoundDuration":355029,"Delta":89079870},{"NoteNumber":84,"Velocity":47,"Duration":368098,"SoundDuration":368098,"Delta":89434900},{"NoteNumber":60,"Velocity":39,"Duration":368098,"SoundDuration":368098,"Delta":89434900},{"NoteNumber":86,"Velocity":55,"Duration":1583332,"SoundDuration":1583332,"Delta":89802998},{"NoteNumber":62,"Velocity":46,"Duration":1583332,"SoundDuration":1583332,"Delta":89802998},{"NoteNumber":57,"Velocity":28,"Duration":3423698,"SoundDuration":3423698,"Delta":91386331},{"NoteNumber":62,"Velocity":28,"Duration":3423698,"SoundDuration":3423698,"Delta":91386331},{"NoteNumber":66,"Velocity":34,"Duration":895521,"SoundDuration":895521,"Delta":91386331},{"NoteNumber":38,"Velocity":21,"Duration":3423698,"SoundDuration":3423698,"Delta":91386331},{"NoteNumber":50,"Velocity":26,"Duration":3423698,"SoundDuration":3423698,"Delta":91386331},{"NoteNumber":66,"Velocity":34,"Duration":2528176,"SoundDuration":2528176,"Delta":92281853},{"NoteNumber":69,"Velocity":34,"Duration":2528176,"SoundDuration":2528176,"Delta":92281853},{"NoteNumber":86,"Velocity":65,"Duration":1500000,"SoundDuration":1500000,"Delta":94810029},{"NoteNumber":62,"Velocity":55,"Duration":1500000,"SoundDuration":1500000,"Delta":94810029},{"NoteNumber":84,"Velocity":57,"Duration":375000,"SoundDuration":375000,"Delta":96310029},{"NoteNumber":60,"Velocity":48,"Duration":375000,"SoundDuration":375000,"Delta":96310029},{"NoteNumber":86,"Velocity":57,"Duration":375000,"SoundDuration":375000,"Delta":96685029},{"NoteNumber":62,"Velocity":48,"Duration":375000,"SoundDuration":375000,"Delta":96685029},{"NoteNumber":89,"Velocity":64,"Duration":1398214,"SoundDuration":1398214,"Delta":97060029},{"NoteNumber":65,"Velocity":54,"Duration":1398214,"SoundDuration":1398214,"Delta":97060029},{"NoteNumber":86,"Velocity":54,"Duration":85714,"SoundDuration":85714,"Delta":98372529},{"NoteNumber":62,"Velocity":45,"Duration":85714,"SoundDuration":85714,"Delta":98372529},{"NoteNumber":87,"Velocity":54,"Duration":85714,"SoundDuration":85714,"Delta":98458243},{"NoteNumber":63,"Velocity":45,"Duration":85714,"SoundDuration":85714,"Delta":98458243},{"NoteNumber":86,"Velocity":60,"Duration":350876,"SoundDuration":350876,"Delta":98543957},{"NoteNumber":62,"Velocity":51,"Duration":350876,"SoundDuration":350876,"Delta":98543957},{"NoteNumber":84,"Velocity":47,"Duration":372670,"SoundDuration":372670,"Delta":98894834},{"NoteNumber":60,"Velocity":39,"Duration":372670,"SoundDuration":372670,"Delta":98894834},{"NoteNumber":86,"Velocity":55,"Duration":1589161,"SoundDuration":1589161,"Delta":99267505},{"NoteNumber":62,"Velocity":46,"Duration":1589161,"SoundDuration":1589161,"Delta":99267505},{"NoteNumber":53,"Velocity":28,"Duration":3448347,"SoundDuration":3448347,"Delta":100856666},{"NoteNumber":58,"Velocity":28,"Duration":3448347,"SoundDuration":3448347,"Delta":100856666},{"NoteNumber":62,"Velocity":34,"Duration":902255,"SoundDuration":902255,"Delta":100856666},{"NoteNumber":34,"Velocity":21,"Duration":3448347,"SoundDuration":3448347,"Delta":100856666},{"NoteNumber":46,"Velocity":26,"Duration":3448347,"SoundDuration":3448347,"Delta":100856666},{"NoteNumber":62,"Velocity":34,"Duration":2546092,"SoundDuration":2546092,"Delta":101758922},{"NoteNumber":65,"Velocity":34,"Duration":2546092,"SoundDuration":2546092,"Delta":101758922},{"NoteNumber":86,"Velocity":62,"Duration":1500000,"SoundDuration":1500000,"Delta":104305014},{"NoteNumber":62,"Velocity":52,"Duration":1500000,"SoundDuration":1500000,"Delta":104305014},{"NoteNumber":85,"Velocity":56,"Duration":1273876,"SoundDuration":1273876,"Delta":105805014},{"NoteNumber":61,"Velocity":48,"Duration":1273876,"SoundDuration":1273876,"Delta":105805014},{"NoteNumber":82,"Velocity":48,"Duration":84269,"SoundDuration":84269,"Delta":107078890},{"NoteNumber":58,"Velocity":40,"Duration":84269,"SoundDuration":84269,"Delta":107078890},{"NoteNumber":84,"Velocity":46,"Duration":84269,"SoundDuration":84269,"Delta":107163160},{"NoteNumber":60,"Velocity":39,"Duration":84269,"SoundDuration":84269,"Delta":107163160},{"NoteNumber":82,"Velocity":54,"Duration":335195,"SoundDuration":335195,"Delta":107247429},{"NoteNumber":58,"Velocity":45,"Duration":335195,"SoundDuration":335195,"Delta":107247429},{"NoteNumber":81,"Velocity":50,"Duration":342856,"SoundDuration":342856,"Delta":107582625},{"NoteNumber":57,"Velocity":41,"Duration":342856,"SoundDuration":342856,"Delta":107582625},{"NoteNumber":79,"Velocity":52,"Duration":348837,"SoundDuration":348837,"Delta":107925482},{"NoteNumber":55,"Velocity":44,"Duration":348837,"SoundDuration":348837,"Delta":107925482},{"NoteNumber":82,"Velocity":46,"Duration":370370,"SoundDuration":370370,"Delta":108274319},{"NoteNumber":58,"Velocity":38,"Duration":370370,"SoundDuration":370370,"Delta":108274319},{"NoteNumber":81,"Velocity":52,"Duration":1560811,"SoundDuration":1560811,"Delta":108644689},{"NoteNumber":57,"Velocity":44,"Duration":1560811,"SoundDuration":1560811,"Delta":108644689},{"NoteNumber":57,"Velocity":35,"Duration":3555555,"SoundDuration":3555555,"Delta":110205500},{"NoteNumber":62,"Velocity":35,"Duration":3555555,"SoundDuration":3555555,"Delta":110205500},{"NoteNumber":66,"Velocity":41,"Duration":888889,"SoundDuration":888889,"Delta":110205500},{"NoteNumber":50,"Velocity":31,"Duration":3555555,"SoundDuration":3555555,"Delta":110205500},{"NoteNumber":38,"Velocity":26,"Duration":3555555,"SoundDuration":3555555,"Delta":110205500},{"NoteNumber":66,"Velocity":41,"Duration":2666666,"SoundDuration":2666666,"Delta":111094389},{"NoteNumber":69,"Velocity":41,"Duration":2666666,"SoundDuration":2666666,"Delta":111094389},{"NoteNumber":86,"Velocity":65,"Duration":1500000,"SoundDuration":1500000,"Delta":113761056},{"NoteNumber":62,"Velocity":55,"Duration":1500000,"SoundDuration":1500000,"Delta":113761056},{"NoteNumber":87,"Velocity":65,"Duration":337078,"SoundDuration":337078,"Delta":115261056},{"NoteNumber":63,"Velocity":55,"Duration":337078,"SoundDuration":337078,"Delta":115261056},{"NoteNumber":86,"Velocity":57,"Duration":340908,"SoundDuration":340908,"Delta":115598135},{"NoteNumber":62,"Velocity":48,"Duration":340908,"SoundDuration":340908,"Delta":115598135},{"NoteNumber":85,"Velocity":59,"Duration":348837,"SoundDuration":348837,"Delta":115939044},{"NoteNumber":61,"Velocity":50,"Duration":348837,"SoundDuration":348837,"Delta":115939044},{"NoteNumber":81,"Velocity":59,"Duration":193548,"SoundDuration":193548,"Delta":116287881},{"NoteNumber":57,"Velocity":50,"Duration":193548,"SoundDuration":193548,"Delta":116287881},{"NoteNumber":82,"Velocity":46,"Duration":83798,"SoundDuration":83798,"Delta":116481429},{"NoteNumber":58,"Velocity":39,"Duration":83798,"SoundDuration":83798,"Delta":116481429},{"NoteNumber":84,"Velocity":46,"Duration":83798,"SoundDuration":83798,"Delta":116565228},{"NoteNumber":60,"Velocity":39,"Duration":83798,"SoundDuration":83798,"Delta":116565228},{"NoteNumber":82,"Velocity":53,"Duration":324324,"SoundDuration":324324,"Delta":116649027},{"NoteNumber":58,"Velocity":46,"Duration":324324,"SoundDuration":324324,"Delta":116649027},{"NoteNumber":81,"Velocity":52,"Duration":344827,"SoundDuration":344827,"Delta":116973352},{"NoteNumber":57,"Velocity":44,"Duration":344827,"SoundDuration":344827,"Delta":116973352},{"NoteNumber":79,"Velocity":53,"Duration":355029,"SoundDuration":355029,"Delta":117318179},{"NoteNumber":55,"Velocity":45,"Duration":355029,"SoundDuration":355029,"Delta":117318179},{"NoteNumber":82,"Velocity":47,"Duration":392156,"SoundDuration":392156,"Delta":117673209},{"NoteNumber":58,"Velocity":39,"Duration":392156,"SoundDuration":392156,"Delta":117673209},{"NoteNumber":81,"Velocity":52,"Duration":1607142,"SoundDuration":1607142,"Delta":118065366},{"NoteNumber":57,"Velocity":44,"Duration":1607142,"SoundDuration":1607142,"Delta":118065366},{"NoteNumber":57,"Velocity":25,"Duration":3636364,"SoundDuration":3636364,"Delta":119672509},{"NoteNumber":61,"Velocity":25,"Duration":909091,"SoundDuration":909091,"Delta":119672509},{"NoteNumber":67,"Velocity":30,"Duration":909091,"SoundDuration":909091,"Delta":119672509},{"NoteNumber":51,"Velocity":23,"Duration":909091,"SoundDuration":909091,"Delta":119672509},{"NoteNumber":62,"Velocity":30,"Duration":2727272,"SoundDuration":2727272,"Delta":120581600},{"NoteNumber":66,"Velocity":30,"Duration":2727272,"SoundDuration":2727272,"Delta":120581600},{"NoteNumber":50,"Velocity":23,"Duration":2727272,"SoundDuration":2727272,"Delta":120581600},{"NoteNumber":58,"Velocity":41,"Duration":1410732,"SoundDuration":1410732,"Delta":123308873},{"NoteNumber":65,"Velocity":36,"Duration":926783,"SoundDuration":926783,"Delta":123792822},{"NoteNumber":62,"Velocity":34,"Duration":926783,"SoundDuration":926783,"Delta":123792822},{"NoteNumber":57,"Velocity":41,"Duration":1389525,"SoundDuration":1389525,"Delta":124719606},{"NoteNumber":66,"Velocity":48,"Duration":60250,"SoundDuration":60250,"Delta":125081109},{"NoteNumber":68,"Velocity":50,"Duration":60250,"SoundDuration":60250,"Delta":125141360},{"NoteNumber":66,"Velocity":57,"Duration":226449,"SoundDuration":226449,"Delta":125201611},{"NoteNumber":63,"Velocity":36,"Duration":907520,"SoundDuration":907520,"Delta":125201611},{"NoteNumber":59,"Velocity":34,"Duration":907520,"SoundDuration":907520,"Delta":125201611},{"NoteNumber":65,"Velocity":53,"Duration":226449,"SoundDuration":226449,"Delta":125428060},{"NoteNumber":66,"Velocity":59,"Duration":226449,"SoundDuration":226449,"Delta":125654510},{"NoteNumber":75,"Velocity":55,"Duration":228171,"SoundDuration":228171,"Delta":125880959},{"NoteNumber":58,"Velocity":44,"Duration":1386831,"SoundDuration":1386831,"Delta":126109131},{"NoteNumber":74,"Velocity":48,"Duration":916169,"SoundDuration":916169,"Delta":126579793},{"NoteNumber":65,"Velocity":48,"Duration":916169,"SoundDuration":916169,"Delta":126579793},{"NoteNumber":62,"Velocity":34,"Duration":916169,"SoundDuration":916169,"Delta":126579793},{"NoteNumber":57,"Velocity":52,"Duration":1366506,"SoundDuration":1366506,"Delta":127495963},{"NoteNumber":73,"Velocity":56,"Duration":447827,"SoundDuration":447827,"Delta":127968478},{"NoteNumber":74,"Velocity":63,"Duration":893990,"SoundDuration":893990,"Delta":127968478},{"NoteNumber":62,"Velocity":48,"Duration":893990,"SoundDuration":893990,"Delta":127968478},{"NoteNumber":72,"Velocity":54,"Duration":446163,"SoundDuration":446163,"Delta":128416306},{"NoteNumber":54,"Velocity":41,"Duration":446163,"SoundDuration":446163,"Delta":128416306},{"NoteNumber":55,"Velocity":52,"Duration":1331951,"SoundDuration":1331951,"Delta":128862469},{"NoteNumber":70,"Velocity":56,"Duration":446163,"SoundDuration":446163,"Delta":129302094},{"NoteNumber":62,"Velocity":51,"Duration":892325,"SoundDuration":892325,"Delta":129302094},{"NoteNumber":74,"Velocity":51,"Duration":446162,"SoundDuration":446162,"Delta":129748257},{"NoteNumber":53,"Velocity":53,"Duration":1351576,"SoundDuration":1351576,"Delta":130194420},{"NoteNumber":69,"Velocity":58,"Duration":451196,"SoundDuration":451196,"Delta":130637290},{"NoteNumber":62,"Velocity":52,"Duration":908706,"SoundDuration":908706,"Delta":130637290},{"NoteNumber":74,"Velocity":50,"Duration":457510,"SoundDuration":457510,"Delta":131088486},{"NoteNumber":51,"Velocity":47,"Duration":3056032,"SoundDuration":3056032,"Delta":131545997},{"NoteNumber":58,"Velocity":55,"Duration":1490542,"SoundDuration":1490542,"Delta":131545997},{"NoteNumber":67,"Velocity":58,"Duration":478088,"SoundDuration":478088,"Delta":132012996},{"NoteNumber":62,"Velocity":51,"Duration":1023543,"SoundDuration":1023543,"Delta":132012996},{"NoteNumber":74,"Velocity":50,"Duration":545455,"SoundDuration":545455,"Delta":132491084},{"NoteNumber":57,"Velocity":39,"Duration":1565490,"SoundDuration":1565490,"Delta":133036539},{"NoteNumber":61,"Velocity":25,"Duration":1043660,"SoundDuration":1043660,"Delta":133558369},{"NoteNumber":67,"Velocity":30,"Duration":1043660,"SoundDuration":1043660,"Delta":133558369},{"NoteNumber":50,"Velocity":50,"Duration":1403050,"SoundDuration":1403050,"Delta":134602029},{"NoteNumber":57,"Velocity":45,"Duration":926783,"SoundDuration":926783,"Delta":135078295},{"NoteNumber":62,"Velocity":45,"Duration":463391,"SoundDuration":463391,"Delta":135541687},{"NoteNumber":66,"Velocity":45,"Duration":463391,"SoundDuration":463391,"Delta":135541687},{"NoteNumber":60,"Velocity":52,"Duration":231695,"SoundDuration":231695,"Delta":136005079},{"NoteNumber":62,"Velocity":44,"Duration":231695,"SoundDuration":231695,"Delta":136236775},{"NoteNumber":69,"Velocity":41,"Duration":228171,"SoundDuration":228171,"Delta":136468471},{"NoteNumber":67,"Velocity":41,"Duration":228171,"SoundDuration":228171,"Delta":136468471},{"NoteNumber":63,"Velocity":51,"Duration":228171,"SoundDuration":228171,"Delta":136468471},{"NoteNumber":65,"Velocity":55,"Duration":114085,"SoundDuration":114085,"Delta":136696642},{"NoteNumber":63,"Velocity":51,"Duration":114085,"SoundDuration":114085,"Delta":136810728},{"NoteNumber":69,"Velocity":41,"Duration":228171,"SoundDuration":228171,"Delta":136924814},{"NoteNumber":67,"Velocity":41,"Duration":228171,"SoundDuration":228171,"Delta":136924814},{"NoteNumber":62,"Velocity":50,"Duration":228171,"SoundDuration":228171,"Delta":136924814},{"NoteNumber":60,"Velocity":50,"Duration":233499,"SoundDuration":233499,"Delta":137152985},{"NoteNumber":50,"Velocity":56,"Duration":1403050,"SoundDuration":1403050,"Delta":137386485},{"NoteNumber":57,"Velocity":50,"Duration":926783,"SoundDuration":926783,"Delta":137862751},{"NoteNumber":62,"Velocity":45,"Duration":463391,"SoundDuration":463391,"Delta":138326143},{"NoteNumber":66,"Velocity":45,"Duration":463391,"SoundDuration":463391,"Delta":138326143},{"NoteNumber":60,"Velocity":52,"Duration":231695,"SoundDuration":231695,"Delta":138789535},{"NoteNumber":62,"Velocity":44,"Duration":231695,"SoundDuration":231695,"Delta":139021231},{"NoteNumber":69,"Velocity":41,"Duration":228171,"SoundDuration":228171,"Delta":139252927},{"NoteNumber":67,"Velocity":41,"Duration":228171,"SoundDuration":228171,"Delta":139252927},{"NoteNumber":63,"Velocity":51,"Duration":228171,"SoundDuration":228171,"Delta":139252927},{"NoteNumber":65,"Velocity":55,"Duration":114085,"SoundDuration":114085,"Delta":139481098},{"NoteNumber":63,"Velocity":51,"Duration":114085,"SoundDuration":114085,"Delta":139595184},{"NoteNumber":69,"Velocity":41,"Duration":228171,"SoundDuration":228171,"Delta":139709270},{"NoteNumber":67,"Velocity":41,"Duration":228171,"SoundDuration":228171,"Delta":139709270},{"NoteNumber":62,"Velocity":50,"Duration":228171,"SoundDuration":228171,"Delta":139709270},{"NoteNumber":60,"Velocity":50,"Duration":233499,"SoundDuration":233499,"Delta":139937441},{"NoteNumber":50,"Velocity":56,"Duration":1471285,"SoundDuration":1471285,"Delta":140170941},{"NoteNumber":57,"Velocity":50,"Duration":985376,"SoundDuration":985376,"Delta":140656850},{"NoteNumber":62,"Velocity":45,"Duration":485293,"SoundDuration":485293,"Delta":141156933},{"NoteNumber":66,"Velocity":45,"Duration":485293,"SoundDuration":485293,"Delta":141156933},{"NoteNumber":84,"Velocity":66,"Duration":231695,"SoundDuration":231695,"Delta":141642226},{"NoteNumber":60,"Velocity":61,"Duration":231695,"SoundDuration":231695,"Delta":141642226},{"NoteNumber":86,"Velocity":63,"Duration":231695,"SoundDuration":231695,"Delta":141873922},{"NoteNumber":62,"Velocity":57,"Duration":231695,"SoundDuration":231695,"Delta":141873922},{"NoteNumber":87,"Velocity":67,"Duration":223914,"SoundDuration":223914,"Delta":142105618},{"NoteNumber":63,"Velocity":62,"Duration":223914,"SoundDuration":223914,"Delta":142105618},{"NoteNumber":89,"Velocity":65,"Duration":114085,"SoundDuration":114085,"Delta":142329532},{"NoteNumber":65,"Velocity":60,"Duration":114085,"SoundDuration":114085,"Delta":142329532},{"NoteNumber":87,"Velocity":62,"Duration":114085,"SoundDuration":114085,"Delta":142443618},{"NoteNumber":63,"Velocity":56,"Duration":114085,"SoundDuration":114085,"Delta":142443618},{"NoteNumber":86,"Velocity":66,"Duration":228171,"SoundDuration":228171,"Delta":142557704},{"NoteNumber":62,"Velocity":61,"Duration":228171,"SoundDuration":228171,"Delta":142557704},{"NoteNumber":84,"Velocity":55,"Duration":233499,"SoundDuration":233499,"Delta":142785875},{"NoteNumber":60,"Velocity":51,"Duration":233499,"SoundDuration":233499,"Delta":142785875},{"NoteNumber":86,"Velocity":65,"Duration":226500,"SoundDuration":226500,"Delta":143019375},{"NoteNumber":62,"Velocity":60,"Duration":226500,"SoundDuration":226500,"Delta":143019375},{"NoteNumber":85,"Velocity":54,"Duration":228885,"SoundDuration":228885,"Delta":143245875},{"NoteNumber":61,"Velocity":49,"Duration":228885,"SoundDuration":228885,"Delta":143245875},{"NoteNumber":81,"Velocity":59,"Duration":226500,"SoundDuration":226500,"Delta":143474761},{"NoteNumber":57,"Velocity":54,"Duration":226500,"SoundDuration":226500,"Delta":143474761},{"NoteNumber":84,"Velocity":52,"Duration":236257,"SoundDuration":236257,"Delta":143701261},{"NoteNumber":60,"Velocity":47,"Duration":236257,"SoundDuration":236257,"Delta":143701261},{"NoteNumber":83,"Velocity":54,"Duration":231695,"SoundDuration":231695,"Delta":143937519},{"NoteNumber":59,"Velocity":50,"Duration":231695,"SoundDuration":231695,"Delta":143937519},{"NoteNumber":79,"Velocity":50,"Duration":237191,"SoundDuration":237191,"Delta":144169215},{"NoteNumber":55,"Velocity":46,"Duration":237191,"SoundDuration":237191,"Delta":144169215},{"NoteNumber":82,"Velocity":54,"Duration":229920,"SoundDuration":229920,"Delta":144406406},{"NoteNumber":58,"Velocity":49,"Duration":229920,"SoundDuration":229920,"Delta":144406406},{"NoteNumber":81,"Velocity":47,"Duration":238133,"SoundDuration":238133,"Delta":144636327},{"NoteNumber":57,"Velocity":44,"Duration":238133,"SoundDuration":238133,"Delta":144636327},{"NoteNumber":78,"Velocity":52,"Duration":235031,"SoundDuration":235031,"Delta":144874460},{"NoteNumber":54,"Velocity":47,"Duration":235031,"SoundDuration":235031,"Delta":144874460},{"NoteNumber":80,"Velocity":46,"Duration":241002,"SoundDuration":241002,"Delta":145109491},{"NoteNumber":56,"Velocity":43,"Duration":241002,"SoundDuration":241002,"Delta":145109491},{"NoteNumber":79,"Velocity":51,"Duration":240654,"SoundDuration":240654,"Delta":145350494},{"NoteNumber":55,"Velocity":46,"Duration":240654,"SoundDuration":240654,"Delta":145350494},{"NoteNumber":75,"Velocity":47,"Duration":247015,"SoundDuration":247015,"Delta":145591148},{"NoteNumber":51,"Velocity":44,"Duration":247015,"SoundDuration":247015,"Delta":145591148},{"NoteNumber":50,"Velocity":56,"Duration":1403050,"SoundDuration":1403050,"Delta":145838163},{"NoteNumber":57,"Velocity":51,"Duration":926783,"SoundDuration":926783,"Delta":146314429},{"NoteNumber":62,"Velocity":45,"Duration":463391,"SoundDuration":463391,"Delta":146777821},{"NoteNumber":66,"Velocity":45,"Duration":463391,"SoundDuration":463391,"Delta":146777821},{"NoteNumber":62,"Velocity":46,"Duration":231695,"SoundDuration":231695,"Delta":147241213},{"NoteNumber":63,"Velocity":39,"Duration":231695,"SoundDuration":231695,"Delta":147472909},{"NoteNumber":72,"Velocity":36,"Duration":456343,"SoundDuration":456343,"Delta":147704605},{"NoteNumber":68,"Velocity":36,"Duration":456343,"SoundDuration":456343,"Delta":147704605},{"NoteNumber":65,"Velocity":45,"Duration":228171,"SoundDuration":228171,"Delta":147704605},{"NoteNumber":67,"Velocity":49,"Duration":114085,"SoundDuration":114085,"Delta":147932777},{"NoteNumber":65,"Velocity":45,"Duration":114085,"SoundDuration":114085,"Delta":148046863},{"NoteNumber":72,"Velocity":36,"Duration":461670,"SoundDuration":461670,"Delta":148160948},{"NoteNumber":68,"Velocity":36,"Duration":461670,"SoundDuration":461670,"Delta":148160948},{"NoteNumber":63,"Velocity":45,"Duration":228171,"SoundDuration":228171,"Delta":148160948},{"NoteNumber":62,"Velocity":45,"Duration":233499,"SoundDuration":233499,"Delta":148389120},{"NoteNumber":55,"Velocity":56,"Duration":1403050,"SoundDuration":1403050,"Delta":148622619},{"NoteNumber":62,"Velocity":51,"Duration":926783,"SoundDuration":926783,"Delta":149098885},{"NoteNumber":67,"Velocity":45,"Duration":463391,"SoundDuration":463391,"Delta":149562277},{"NoteNumber":71,"Velocity":45,"Duration":463391,"SoundDuration":463391,"Delta":149562277},{"NoteNumber":62,"Velocity":51,"Duration":231695,"SoundDuration":231695,"Delta":150025669},{"NoteNumber":63,"Velocity":46,"Duration":231695,"SoundDuration":231695,"Delta":150257365},{"NoteNumber":72,"Velocity":39,"Duration":228171,"SoundDuration":228171,"Delta":150489061},{"NoteNumber":68,"Velocity":39,"Duration":228171,"SoundDuration":228171,"Delta":150489061},{"NoteNumber":65,"Velocity":50,"Duration":228171,"SoundDuration":228171,"Delta":150489061},{"NoteNumber":67,"Velocity":54,"Duration":114085,"SoundDuration":114085,"Delta":150717233},{"NoteNumber":65,"Velocity":49,"Duration":114085,"SoundDuration":114085,"Delta":150831319},{"NoteNumber":72,"Velocity":39,"Duration":228171,"SoundDuration":228171,"Delta":150945404},{"NoteNumber":68,"Velocity":39,"Duration":228171,"SoundDuration":228171,"Delta":150945404},{"NoteNumber":63,"Velocity":52,"Duration":228171,"SoundDuration":228171,"Delta":150945404},{"NoteNumber":62,"Velocity":48,"Duration":233499,"SoundDuration":233499,"Delta":151173576},{"NoteNumber":55,"Velocity":56,"Duration":1471285,"SoundDuration":1471285,"Delta":151407075},{"NoteNumber":62,"Velocity":50,"Duration":985376,"SoundDuration":985376,"Delta":151892984},{"NoteNumber":67,"Velocity":45,"Duration":485293,"SoundDuration":485293,"Delta":152393067},{"NoteNumber":71,"Velocity":45,"Duration":485293,"SoundDuration":485293,"Delta":152393067},{"NoteNumber":67,"Velocity":49,"Duration":464253,"SoundDuration":464253,"Delta":152878361},{"NoteNumber":75,"Velocity":67,"Duration":232126,"SoundDuration":232126,"Delta":152878361},{"NoteNumber":60,"Velocity":49,"Duration":464253,"SoundDuration":464253,"Delta":152878361},{"NoteNumber":78,"Velocity":63,"Duration":232126,"SoundDuration":232126,"Delta":153110487},{"NoteNumber":67,"Velocity":45,"Duration":456343,"SoundDuration":456343,"Delta":153342614},{"NoteNumber":79,"Velocity":66,"Duration":228171,"SoundDuration":228171,"Delta":153342614},{"NoteNumber":58,"Velocity":45,"Duration":456343,"SoundDuration":456343,"Delta":153342614},{"NoteNumber":74,"Velocity":57,"Duration":114085,"SoundDuration":114085,"Delta":153570785},{"NoteNumber":75,"Velocity":57,"Duration":114085,"SoundDuration":114085,"Delta":153684871},{"NoteNumber":66,"Velocity":45,"Duration":461670,"SoundDuration":461670,"Delta":153798957},{"NoteNumber":72,"Velocity":63,"Duration":228171,"SoundDuration":228171,"Delta":153798957},{"NoteNumber":57,"Velocity":45,"Duration":461670,"SoundDuration":461670,"Delta":153798957},{"NoteNumber":74,"Velocity":56,"Duration":233499,"SoundDuration":233499,"Delta":154027128},{"NoteNumber":62,"Velocity":38,"Duration":462716,"SoundDuration":462716,"Delta":154260628},{"NoteNumber":70,"Velocity":65,"Duration":228084,"SoundDuration":228084,"Delta":154260628},{"NoteNumber":55,"Velocity":45,"Duration":462716,"SoundDuration":462716,"Delta":154260628},{"NoteNumber":74,"Velocity":50,"Duration":234631,"SoundDuration":234631,"Delta":154488713},{"NoteNumber":62,"Velocity":30,"Duration":465945,"SoundDuration":465945,"Delta":154723344},{"NoteNumber":69,"Velocity":62,"Duration":230485,"SoundDuration":230485,"Delta":154723344},{"NoteNumber":54,"Velocity":36,"Duration":465945,"SoundDuration":465945,"Delta":154723344},{"NoteNumber":74,"Velocity":49,"Duration":235460,"SoundDuration":235460,"Delta":154953830},{"NoteNumber":62,"Velocity":33,"Duration":466763,"SoundDuration":466763,"Delta":155189290},{"NoteNumber":70,"Velocity":60,"Duration":231302,"SoundDuration":231302,"Delta":155189290},{"NoteNumber":55,"Velocity":39,"Duration":466763,"SoundDuration":466763,"Delta":155189290},{"NoteNumber":74,"Velocity":49,"Duration":235460,"SoundDuration":235460,"Delta":155420593},{"NoteNumber":70,"Velocity":50,"Duration":464253,"SoundDuration":464253,"Delta":155656054},{"NoteNumber":79,"Velocity":56,"Duration":232126,"SoundDuration":232126,"Delta":155656054},{"NoteNumber":63,"Velocity":50,"Duration":464253,"SoundDuration":464253,"Delta":155656054},{"NoteNumber":81,"Velocity":51,"Duration":232126,"SoundDuration":232126,"Delta":155888180},{"NoteNumber":70,"Velocity":50,"Duration":456343,"SoundDuration":456343,"Delta":156120307},{"NoteNumber":82,"Velocity":56,"Duration":228171,"SoundDuration":228171,"Delta":156120307},{"NoteNumber":62,"Velocity":46,"Duration":456343,"SoundDuration":456343,"Delta":156120307},{"NoteNumber":77,"Velocity":51,"Duration":114085,"SoundDuration":114085,"Delta":156348478},{"NoteNumber":79,"Velocity":51,"Duration":114085,"SoundDuration":114085,"Delta":156462564},{"NoteNumber":69,"Velocity":51,"Duration":461670,"SoundDuration":461670,"Delta":156576650},{"NoteNumber":75,"Velocity":57,"Duration":228171,"SoundDuration":228171,"Delta":156576650},{"NoteNumber":60,"Velocity":40,"Duration":461670,"SoundDuration":461670,"Delta":156576650},{"NoteNumber":77,"Velocity":49,"Duration":233499,"SoundDuration":233499,"Delta":156804821},{"NoteNumber":65,"Velocity":37,"Duration":462716,"SoundDuration":462716,"Delta":157038321},{"NoteNumber":74,"Velocity":53,"Duration":228084,"SoundDuration":228084,"Delta":157038321},{"NoteNumber":58,"Velocity":40,"Duration":462716,"SoundDuration":462716,"Delta":157038321},{"NoteNumber":77,"Velocity":46,"Duration":234631,"SoundDuration":234631,"Delta":157266406},{"NoteNumber":65,"Velocity":36,"Duration":465945,"SoundDuration":465945,"Delta":157501037},{"NoteNumber":73,"Velocity":51,"Duration":230485,"SoundDuration":230485,"Delta":157501037},{"NoteNumber":57,"Velocity":32,"Duration":465945,"SoundDuration":465945,"Delta":157501037},{"NoteNumber":77,"Velocity":44,"Duration":235460,"SoundDuration":235460,"Delta":157731523},{"NoteNumber":65,"Velocity":36,"Duration":466763,"SoundDuration":466763,"Delta":157966983},{"NoteNumber":74,"Velocity":52,"Duration":231302,"SoundDuration":231302,"Delta":157966983},{"NoteNumber":58,"Velocity":33,"Duration":466763,"SoundDuration":466763,"Delta":157966983},{"NoteNumber":77,"Velocity":46,"Duration":235460,"SoundDuration":235460,"Delta":158198286},{"NoteNumber":80,"Velocity":57,"Duration":231695,"SoundDuration":231695,"Delta":158433747},{"NoteNumber":56,"Velocity":39,"Duration":231695,"SoundDuration":231695,"Delta":158433747},{"NoteNumber":82,"Velocity":50,"Duration":226500,"SoundDuration":226500,"Delta":158665443},{"NoteNumber":58,"Velocity":35,"Duration":226500,"SoundDuration":226500,"Delta":158665443},{"NoteNumber":84,"Velocity":55,"Duration":224181,"SoundDuration":224181,"Delta":158891943},{"NoteNumber":60,"Velocity":38,"Duration":224181,"SoundDuration":224181,"Delta":158891943},{"NoteNumber":87,"Velocity":49,"Duration":113250,"SoundDuration":113250,"Delta":159116125},{"NoteNumber":63,"Velocity":34,"Duration":113250,"SoundDuration":113250,"Delta":159116125},{"NoteNumber":85,"Velocity":46,"Duration":55473,"SoundDuration":55473,"Delta":159229375},{"NoteNumber":61,"Velocity":29,"Duration":55473,"SoundDuration":55473,"Delta":159229375},{"NoteNumber":87,"Velocity":47,"Duration":55473,"SoundDuration":55473,"Delta":159284848},{"NoteNumber":63,"Velocity":30,"Duration":55473,"SoundDuration":55473,"Delta":159284848},{"NoteNumber":85,"Velocity":55,"Duration":228084,"SoundDuration":228084,"Delta":159340322},{"NoteNumber":61,"Velocity":38,"Duration":228084,"SoundDuration":228084,"Delta":159340322},{"NoteNumber":84,"Velocity":48,"Duration":233499,"SoundDuration":233499,"Delta":159568407},{"NoteNumber":60,"Velocity":33,"Duration":233499,"SoundDuration":233499,"Delta":159568407},{"NoteNumber":87,"Velocity":57,"Duration":226500,"SoundDuration":226500,"Delta":159801906},{"NoteNumber":63,"Velocity":39,"Duration":226500,"SoundDuration":226500,"Delta":159801906},{"NoteNumber":84,"Velocity":49,"Duration":114442,"SoundDuration":114442,"Delta":160028407},{"NoteNumber":60,"Velocity":34,"Duration":114442,"SoundDuration":114442,"Delta":160028407},{"NoteNumber":82,"Velocity":44,"Duration":57221,"SoundDuration":57221,"Delta":160142850},{"NoteNumber":58,"Velocity":29,"Duration":57221,"SoundDuration":57221,"Delta":160142850},{"NoteNumber":84,"Velocity":44,"Duration":57221,"SoundDuration":57221,"Delta":160200071},{"NoteNumber":60,"Velocity":29,"Duration":57221,"SoundDuration":57221,"Delta":160200071},{"NoteNumber":82,"Velocity":55,"Duration":226500,"SoundDuration":226500,"Delta":160257292},{"NoteNumber":58,"Velocity":38,"Duration":226500,"SoundDuration":226500,"Delta":160257292},{"NoteNumber":81,"Velocity":48,"Duration":239044,"SoundDuration":239044,"Delta":160483793},{"NoteNumber":57,"Velocity":33,"Duration":239044,"SoundDuration":239044,"Delta":160483793},{"NoteNumber":84,"Velocity":55,"Duration":245901,"SoundDuration":245901,"Delta":160722837},{"NoteNumber":60,"Velocity":38,"Duration":245901,"SoundDuration":245901,"Delta":160722837},{"NoteNumber":87,"Velocity":48,"Duration":273972,"SoundDuration":273972,"Delta":160968738},{"NoteNumber":63,"Velocity":33,"Duration":273972,"SoundDuration":273972,"Delta":160968738},{"NoteNumber":63,"Velocity":55,"Duration":232126,"SoundDuration":232126,"Delta":161242711},{"NoteNumber":48,"Velocity":40,"Duration":920596,"SoundDuration":920596,"Delta":161242711},{"NoteNumber":57,"Velocity":48,"Duration":920596,"SoundDuration":920596,"Delta":161242711},{"NoteNumber":65,"Velocity":46,"Duration":232126,"SoundDuration":232126,"Delta":161474837},{"NoteNumber":67,"Velocity":55,"Duration":228171,"SoundDuration":228171,"Delta":161706964},{"NoteNumber":69,"Velocity":52,"Duration":114085,"SoundDuration":114085,"Delta":161935135},{"NoteNumber":67,"Velocity":49,"Duration":114085,"SoundDuration":114085,"Delta":162049221},{"NoteNumber":65,"Velocity":53,"Duration":228171,"SoundDuration":228171,"Delta":162163307},{"NoteNumber":49,"Velocity":30,"Duration":461670,"SoundDuration":461670,"Delta":162163307},{"NoteNumber":55,"Velocity":36,"Duration":461670,"SoundDuration":461670,"Delta":162163307},{"NoteNumber":58,"Velocity":36,"Duration":461670,"SoundDuration":461670,"Delta":162163307},{"NoteNumber":63,"Velocity":53,"Duration":233499,"SoundDuration":233499,"Delta":162391478},{"NoteNumber":50,"Velocity":50,"Duration":1403050,"SoundDuration":1403050,"Delta":162624978},{"NoteNumber":57,"Velocity":45,"Duration":926783,"SoundDuration":926783,"Delta":163101244},{"NoteNumber":62,"Velocity":45,"Duration":463391,"SoundDuration":463391,"Delta":163564636},{"NoteNumber":66,"Velocity":45,"Duration":463391,"SoundDuration":463391,"Delta":163564636},{"NoteNumber":63,"Velocity":52,"Duration":231695,"SoundDuration":231695,"Delta":164028028},{"NoteNumber":65,"Velocity":44,"Duration":231695,"SoundDuration":231695,"Delta":164259724},{"NoteNumber":72,"Velocity":41,"Duration":228171,"SoundDuration":228171,"Delta":164491420},{"NoteNumber":69,"Velocity":41,"Duration":228171,"SoundDuration":228171,"Delta":164491420},{"NoteNumber":67,"Velocity":51,"Duration":228171,"SoundDuration":228171,"Delta":164491420},{"NoteNumber":69,"Velocity":55,"Duration":114085,"SoundDuration":114085,"Delta":164719591},{"NoteNumber":67,"Velocity":51,"Duration":114085,"SoundDuration":114085,"Delta":164833677},{"NoteNumber":72,"Velocity":41,"Duration":228171,"SoundDuration":228171,"Delta":164947763},{"NoteNumber":69,"Velocity":41,"Duration":228171,"SoundDuration":228171,"Delta":164947763},{"NoteNumber":65,"Velocity":50,"Duration":228171,"SoundDuration":228171,"Delta":164947763},{"NoteNumber":63,"Velocity":50,"Duration":233499,"SoundDuration":233499,"Delta":165175934},{"NoteNumber":50,"Velocity":56,"Duration":1403050,"SoundDuration":1403050,"Delta":165409434},{"NoteNumber":57,"Velocity":50,"Duration":926783,"SoundDuration":926783,"Delta":165885700},{"NoteNumber":62,"Velocity":45,"Duration":463391,"SoundDuration":463391,"Delta":166349092},{"NoteNumber":66,"Velocity":45,"Duration":463391,"SoundDuration":463391,"Delta":166349092},{"NoteNumber":63,"Velocity":52,"Duration":231695,"SoundDuration":231695,"Delta":166812484},{"NoteNumber":65,"Velocity":44,"Duration":231695,"SoundDuration":231695,"Delta":167044180},{"NoteNumber":72,"Velocity":41,"Duration":228171,"SoundDuration":228171,"Delta":167275876},{"NoteNumber":69,"Velocity":41,"Duration":228171,"SoundDuration":228171,"Delta":167275876},{"NoteNumber":67,"Velocity":51,"Duration":228171,"SoundDuration":228171,"Delta":167275876},{"NoteNumber":69,"Velocity":55,"Duration":114085,"SoundDuration":114085,"Delta":167504047},{"NoteNumber":67,"Velocity":51,"Duration":114085,"SoundDuration":114085,"Delta":167618133},{"NoteNumber":72,"Velocity":41,"Duration":228171,"SoundDuration":228171,"Delta":167732219},{"NoteNumber":69,"Velocity":41,"Duration":228171,"SoundDuration":228171,"Delta":167732219},{"NoteNumber":65,"Velocity":50,"Duration":228171,"SoundDuration":228171,"Delta":167732219},{"NoteNumber":63,"Velocity":50,"Duration":233499,"SoundDuration":233499,"Delta":167960390},{"NoteNumber":50,"Velocity":56,"Duration":1471285,"SoundDuration":1471285,"Delta":168193890},{"NoteNumber":57,"Velocity":50,"Duration":985376,"SoundDuration":985376,"Delta":168679799},{"NoteNumber":62,"Velocity":45,"Duration":485293,"SoundDuration":485293,"Delta":169179882},{"NoteNumber":66,"Velocity":45,"Duration":485293,"SoundDuration":485293,"Delta":169179882},{"NoteNumber":58,"Velocity":45,"Duration":121683,"SoundDuration":121683,"Delta":169665175},{"NoteNumber":65,"Velocity":28,"Duration":60842,"SoundDuration":60842,"Delta":169786859},{"NoteNumber":62,"Velocity":23,"Duration":60842,"SoundDuration":60842,"Delta":169786859},{"NoteNumber":61,"Velocity":40,"Duration":58602,"SoundDuration":58602,"Delta":169908543},{"NoteNumber":65,"Velocity":26,"Duration":58602,"SoundDuration":58602,"Delta":170025749},{"NoteNumber":62,"Velocity":21,"Duration":58602,"SoundDuration":58602,"Delta":170025749},{"NoteNumber":62,"Velocity":42,"Duration":59260,"SoundDuration":59260,"Delta":170142955},{"NoteNumber":65,"Velocity":26,"Duration":59260,"SoundDuration":59260,"Delta":170261476},{"NoteNumber":62,"Velocity":21,"Duration":59260,"SoundDuration":59260,"Delta":170261476},{"NoteNumber":65,"Velocity":42,"Duration":60381,"SoundDuration":60381,"Delta":170379996},{"NoteNumber":65,"Velocity":26,"Duration":60381,"SoundDuration":60381,"Delta":170500760},{"NoteNumber":62,"Velocity":20,"Duration":60381,"SoundDuration":60381,"Delta":170500760},{"NoteNumber":61,"Velocity":41,"Duration":58814,"SoundDuration":58814,"Delta":170621523},{"NoteNumber":65,"Velocity":26,"Duration":58814,"SoundDuration":58814,"Delta":170739151},{"NoteNumber":62,"Velocity":21,"Duration":58814,"SoundDuration":58814,"Delta":170739151},{"NoteNumber":62,"Velocity":38,"Duration":60797,"SoundDuration":60797,"Delta":170856780},{"NoteNumber":65,"Velocity":26,"Duration":60797,"SoundDuration":60797,"Delta":170978375},{"NoteNumber":62,"Velocity":18,"Duration":60797,"SoundDuration":60797,"Delta":170978375},{"NoteNumber":53,"Velocity":45,"Duration":119712,"SoundDuration":119712,"Delta":171099970},{"NoteNumber":65,"Velocity":28,"Duration":59856,"SoundDuration":59856,"Delta":171219683},{"NoteNumber":60,"Velocity":23,"Duration":59856,"SoundDuration":59856,"Delta":171219683},{"NoteNumber":57,"Velocity":23,"Duration":59856,"SoundDuration":59856,"Delta":171219683},{"NoteNumber":56,"Velocity":40,"Duration":59481,"SoundDuration":59481,"Delta":171339396},{"NoteNumber":60,"Velocity":22,"Duration":59481,"SoundDuration":59481,"Delta":171458359},{"NoteNumber":65,"Velocity":26,"Duration":59481,"SoundDuration":59481,"Delta":171458359},{"NoteNumber":57,"Velocity":20,"Duration":59481,"SoundDuration":59481,"Delta":171458359},{"NoteNumber":57,"Velocity":41,"Duration":58602,"SoundDuration":58602,"Delta":171577321},{"NoteNumber":60,"Velocity":22,"Duration":58602,"SoundDuration":58602,"Delta":171694527},{"NoteNumber":65,"Velocity":26,"Duration":58602,"SoundDuration":58602,"Delta":171694527},{"NoteNumber":57,"Velocity":20,"Duration":58602,"SoundDuration":58602,"Delta":171694527},{"NoteNumber":60,"Velocity":37,"Duration":59481,"SoundDuration":59481,"Delta":171811733},{"NoteNumber":60,"Velocity":22,"Duration":59481,"SoundDuration":59481,"Delta":171930696},{"NoteNumber":65,"Velocity":26,"Duration":59481,"SoundDuration":59481,"Delta":171930696},{"NoteNumber":57,"Velocity":19,"Duration":59481,"SoundDuration":59481,"Delta":171930696},{"NoteNumber":56,"Velocity":39,"Duration":58602,"SoundDuration":58602,"Delta":172049658},{"NoteNumber":60,"Velocity":22,"Duration":58602,"SoundDuration":58602,"Delta":172166864},{"NoteNumber":65,"Velocity":26,"Duration":58602,"SoundDuration":58602,"Delta":172166864},{"NoteNumber":57,"Velocity":19,"Duration":58602,"SoundDuration":58602,"Delta":172166864},{"NoteNumber":57,"Velocity":36,"Duration":61035,"SoundDuration":61035,"Delta":172284070},{"NoteNumber":60,"Velocity":22,"Duration":61035,"SoundDuration":61035,"Delta":172406140},{"NoteNumber":65,"Velocity":26,"Duration":61035,"SoundDuration":61035,"Delta":172406140},{"NoteNumber":57,"Velocity":17,"Duration":61035,"SoundDuration":61035,"Delta":172406140},{"NoteNumber":51,"Velocity":43,"Duration":122070,"SoundDuration":122070,"Delta":172528210},{"NoteNumber":61,"Velocity":22,"Duration":61035,"SoundDuration":61035,"Delta":172650281},{"NoteNumber":67,"Velocity":26,"Duration":61035,"SoundDuration":61035,"Delta":172650281},{"NoteNumber":58,"Velocity":22,"Duration":61035,"SoundDuration":61035,"Delta":172650281},{"NoteNumber":57,"Velocity":37,"Duration":59699,"SoundDuration":59699,"Delta":172772351},{"NoteNumber":61,"Velocity":20,"Duration":59699,"SoundDuration":59699,"Delta":172891749},{"NoteNumber":67,"Velocity":24,"Duration":59699,"SoundDuration":59699,"Delta":172891749},{"NoteNumber":58,"Velocity":18,"Duration":59699,"SoundDuration":59699,"Delta":172891749},{"NoteNumber":58,"Velocity":38,"Duration":60054,"SoundDuration":60054,"Delta":173011147},{"NoteNumber":61,"Velocity":20,"Duration":60637,"SoundDuration":60637,"Delta":173131521},{"NoteNumber":67,"Velocity":24,"Duration":60637,"SoundDuration":60637,"Delta":173131521},{"NoteNumber":58,"Velocity":18,"Duration":60637,"SoundDuration":60637,"Delta":173131521},{"NoteNumber":55,"Velocity":34,"Duration":61116,"SoundDuration":61116,"Delta":173253114},{"NoteNumber":61,"Velocity":20,"Duration":61764,"SoundDuration":61764,"Delta":173375671},{"NoteNumber":67,"Velocity":24,"Duration":61764,"SoundDuration":61764,"Delta":173375671},{"NoteNumber":58,"Velocity":17,"Duration":61764,"SoundDuration":61764,"Delta":173375671},{"NoteNumber":53,"Velocity":36,"Duration":62349,"SoundDuration":62349,"Delta":173499369},{"NoteNumber":61,"Velocity":20,"Duration":62858,"SoundDuration":62858,"Delta":173624234},{"NoteNumber":67,"Velocity":24,"Duration":62858,"SoundDuration":62858,"Delta":173624234},{"NoteNumber":58,"Velocity":18,"Duration":62858,"SoundDuration":62858,"Delta":173624234},{"NoteNumber":51,"Velocity":33,"Duration":67567,"SoundDuration":67567,"Delta":173750293},{"NoteNumber":61,"Velocity":20,"Duration":167904,"SoundDuration":167904,"Delta":173885428},{"NoteNumber":67,"Velocity":24,"Duration":167904,"SoundDuration":167904,"Delta":173885428},{"NoteNumber":58,"Velocity":15,"Duration":167904,"SoundDuration":167904,"Delta":173885428},{"NoteNumber":86,"Velocity":65,"Duration":1500000,"SoundDuration":1500000,"Delta":174177300},{"NoteNumber":62,"Velocity":55,"Duration":1500000,"SoundDuration":1500000,"Delta":174177300},{"NoteNumber":84,"Velocity":57,"Duration":375000,"SoundDuration":375000,"Delta":175677300},{"NoteNumber":60,"Velocity":48,"Duration":375000,"SoundDuration":375000,"Delta":175677300},{"NoteNumber":86,"Velocity":57,"Duration":375000,"SoundDuration":375000,"Delta":176052300},{"NoteNumber":62,"Velocity":48,"Duration":375000,"SoundDuration":375000,"Delta":176052300},{"NoteNumber":89,"Velocity":64,"Duration":1398214,"SoundDuration":1398214,"Delta":176427300},{"NoteNumber":65,"Velocity":54,"Duration":1398214,"SoundDuration":1398214,"Delta":176427300},{"NoteNumber":86,"Velocity":54,"Duration":85714,"SoundDuration":85714,"Delta":177739800},{"NoteNumber":62,"Velocity":45,"Duration":85714,"SoundDuration":85714,"Delta":177739800},{"NoteNumber":87,"Velocity":54,"Duration":85714,"SoundDuration":85714,"Delta":177825514},{"NoteNumber":63,"Velocity":45,"Duration":85714,"SoundDuration":85714,"Delta":177825514},{"NoteNumber":86,"Velocity":60,"Duration":355029,"SoundDuration":355029,"Delta":177911229},{"NoteNumber":62,"Velocity":51,"Duration":355029,"SoundDuration":355029,"Delta":177911229},{"NoteNumber":84,"Velocity":47,"Duration":368098,"SoundDuration":368098,"Delta":178266258},{"NoteNumber":60,"Velocity":39,"Duration":368098,"SoundDuration":368098,"Delta":178266258},{"NoteNumber":86,"Velocity":55,"Duration":1583333,"SoundDuration":1583333,"Delta":178634356},{"NoteNumber":62,"Velocity":46,"Duration":1583333,"SoundDuration":1583333,"Delta":178634356},{"NoteNumber":57,"Velocity":28,"Duration":3423698,"SoundDuration":3423698,"Delta":180217689},{"NoteNumber":62,"Velocity":28,"Duration":3423698,"SoundDuration":3423698,"Delta":180217689},{"NoteNumber":66,"Velocity":34,"Duration":895521,"SoundDuration":895521,"Delta":180217689},{"NoteNumber":38,"Velocity":21,"Duration":3423698,"SoundDuration":3423698,"Delta":180217689},{"NoteNumber":50,"Velocity":26,"Duration":3423698,"SoundDuration":3423698,"Delta":180217689},{"NoteNumber":66,"Velocity":34,"Duration":2528176,"SoundDuration":2528176,"Delta":181113211},{"NoteNumber":69,"Velocity":34,"Duration":2528176,"SoundDuration":2528176,"Delta":181113211},{"NoteNumber":86,"Velocity":65,"Duration":1500000,"SoundDuration":1500000,"Delta":183641387},{"NoteNumber":62,"Velocity":55,"Duration":1500000,"SoundDuration":1500000,"Delta":183641387},{"NoteNumber":84,"Velocity":57,"Duration":375000,"SoundDuration":375000,"Delta":185141387},{"NoteNumber":60,"Velocity":48,"Duration":375000,"SoundDuration":375000,"Delta":185141387},{"NoteNumber":86,"Velocity":57,"Duration":375000,"SoundDuration":375000,"Delta":185516387},{"NoteNumber":62,"Velocity":48,"Duration":375000,"SoundDuration":375000,"Delta":185516387},{"NoteNumber":89,"Velocity":64,"Duration":1398214,"SoundDuration":1398214,"Delta":185891387},{"NoteNumber":65,"Velocity":54,"Duration":1398214,"SoundDuration":1398214,"Delta":185891387},{"NoteNumber":86,"Velocity":54,"Duration":85714,"SoundDuration":85714,"Delta":187203887},{"NoteNumber":62,"Velocity":45,"Duration":85714,"SoundDuration":85714,"Delta":187203887},{"NoteNumber":87,"Velocity":54,"Duration":85714,"SoundDuration":85714,"Delta":187289601},{"NoteNumber":63,"Velocity":45,"Duration":85714,"SoundDuration":85714,"Delta":187289601},{"NoteNumber":86,"Velocity":60,"Duration":350876,"SoundDuration":350876,"Delta":187375316},{"NoteNumber":62,"Velocity":51,"Duration":350876,"SoundDuration":350876,"Delta":187375316},{"NoteNumber":84,"Velocity":47,"Duration":372670,"SoundDuration":372670,"Delta":187726193},{"NoteNumber":60,"Velocity":39,"Duration":372670,"SoundDuration":372670,"Delta":187726193},{"NoteNumber":86,"Velocity":55,"Duration":1666031,"SoundDuration":1666031,"Delta":188098864},{"NoteNumber":62,"Velocity":46,"Duration":1666031,"SoundDuration":1666031,"Delta":188098864},{"NoteNumber":57,"Velocity":25,"Duration":3840000,"SoundDuration":3840000,"Delta":189764895},{"NoteNumber":61,"Velocity":25,"Duration":960000,"SoundDuration":960000,"Delta":189764895},{"NoteNumber":67,"Velocity":30,"Duration":960000,"SoundDuration":960000,"Delta":189764895},{"NoteNumber":51,"Velocity":23,"Duration":960000,"SoundDuration":960000,"Delta":189764895},{"NoteNumber":62,"Velocity":30,"Duration":2879999,"SoundDuration":2879999,"Delta":190724895},{"NoteNumber":66,"Velocity":30,"Duration":2879999,"SoundDuration":2879999,"Delta":190724895},{"NoteNumber":50,"Velocity":23,"Duration":2879999,"SoundDuration":2879999,"Delta":190724895},{"NoteNumber":55,"Velocity":59,"Duration":116731,"SoundDuration":116731,"Delta":193604895},{"NoteNumber":62,"Velocity":31,"Duration":58365,"SoundDuration":58365,"Delta":193721626},{"NoteNumber":62,"Velocity":47,"Duration":55147,"SoundDuration":55147,"Delta":193838358},{"NoteNumber":62,"Velocity":35,"Duration":55146,"SoundDuration":55146,"Delta":193948652},{"NoteNumber":63,"Velocity":53,"Duration":55762,"SoundDuration":55762,"Delta":194058946},{"NoteNumber":62,"Velocity":39,"Duration":55762,"SoundDuration":55762,"Delta":194170470},{"NoteNumber":60,"Velocity":45,"Duration":56818,"SoundDuration":56818,"Delta":194281994},{"NoteNumber":62,"Velocity":37,"Duration":56818,"SoundDuration":56818,"Delta":194395630},{"NoteNumber":62,"Velocity":49,"Duration":56818,"SoundDuration":56818,"Delta":194509267},{"NoteNumber":62,"Velocity":34,"Duration":56818,"SoundDuration":56818,"Delta":194622903},{"NoteNumber":58,"Velocity":45,"Duration":56818,"SoundDuration":56818,"Delta":194736539},{"NoteNumber":62,"Velocity":32,"Duration":56818,"SoundDuration":56818,"Delta":194850175},{"NoteNumber":55,"Velocity":62,"Duration":116731,"SoundDuration":116731,"Delta":194963812},{"NoteNumber":62,"Velocity":31,"Duration":58365,"SoundDuration":58365,"Delta":195080543},{"NoteNumber":62,"Velocity":47,"Duration":55350,"SoundDuration":55350,"Delta":195197275},{"NoteNumber":62,"Velocity":35,"Duration":55350,"SoundDuration":55350,"Delta":195307976},{"NoteNumber":63,"Velocity":53,"Duration":55970,"SoundDuration":55970,"Delta":195418677},{"NoteNumber":62,"Velocity":39,"Duration":55970,"SoundDuration":55970,"Delta":195530617},{"NoteNumber":60,"Velocity":45,"Duration":56818,"SoundDuration":56818,"Delta":195642557},{"NoteNumber":62,"Velocity":37,"Duration":56818,"SoundDuration":56818,"Delta":195756193},{"NoteNumber":62,"Velocity":49,"Duration":56818,"SoundDuration":56818,"Delta":195869830},{"NoteNumber":62,"Velocity":34,"Duration":56818,"SoundDuration":56818,"Delta":195983466},{"NoteNumber":58,"Velocity":45,"Duration":56818,"SoundDuration":56818,"Delta":196097102},{"NoteNumber":62,"Velocity":32,"Duration":56818,"SoundDuration":56818,"Delta":196210738},{"NoteNumber":55,"Velocity":62,"Duration":116731,"SoundDuration":116731,"Delta":196324375},{"NoteNumber":62,"Velocity":31,"Duration":58365,"SoundDuration":58365,"Delta":196441106},{"NoteNumber":62,"Velocity":47,"Duration":55350,"SoundDuration":55350,"Delta":196557838},{"NoteNumber":62,"Velocity":35,"Duration":55350,"SoundDuration":55350,"Delta":196668539},{"NoteNumber":63,"Velocity":50,"Duration":55970,"SoundDuration":55970,"Delta":196779240},{"NoteNumber":62,"Velocity":39,"Duration":55970,"SoundDuration":55970,"Delta":196891180},{"NoteNumber":60,"Velocity":45,"Duration":56390,"SoundDuration":56390,"Delta":197003120},{"NoteNumber":62,"Velocity":37,"Duration":56390,"SoundDuration":56390,"Delta":197115902},{"NoteNumber":62,"Velocity":52,"Duration":56818,"SoundDuration":56818,"Delta":197228684},{"NoteNumber":62,"Velocity":40,"Duration":56818,"SoundDuration":56818,"Delta":197342320},{"NoteNumber":58,"Velocity":48,"Duration":56818,"SoundDuration":56818,"Delta":197455957},{"NoteNumber":62,"Velocity":37,"Duration":56818,"SoundDuration":56818,"Delta":197569593},{"NoteNumber":60,"Velocity":57,"Duration":56818,"SoundDuration":56818,"Delta":197683229},{"NoteNumber":62,"Velocity":41,"Duration":56818,"SoundDuration":56818,"Delta":197796865},{"NoteNumber":57,"Velocity":49,"Duration":55555,"SoundDuration":55555,"Delta":197910502},{"NoteNumber":62,"Velocity":35,"Duration":55555,"SoundDuration":55555,"Delta":198021613},{"NoteNumber":58,"Velocity":53,"Duration":55555,"SoundDuration":55555,"Delta":198132724},{"NoteNumber":62,"Velocity":39,"Duration":55555,"SoundDuration":55555,"Delta":198243835},{"NoteNumber":60,"Velocity":49,"Duration":56179,"SoundDuration":56179,"Delta":198354946},{"NoteNumber":62,"Velocity":34,"Duration":56179,"SoundDuration":56179,"Delta":198467305},{"NoteNumber":57,"Velocity":51,"Duration":56461,"SoundDuration":56461,"Delta":198579805},{"NoteNumber":62,"Velocity":38,"Duration":56818,"SoundDuration":56818,"Delta":198692871},{"NoteNumber":58,"Velocity":48,"Duration":57106,"SoundDuration":57106,"Delta":198806651},{"NoteNumber":62,"Velocity":37,"Duration":58823,"SoundDuration":58823,"Delta":198921010},{"NoteNumber":55,"Velocity":59,"Duration":119047,"SoundDuration":119047,"Delta":199037903},{"NoteNumber":62,"Velocity":30,"Duration":59523,"SoundDuration":59523,"Delta":199156950},{"NoteNumber":62,"Velocity":47,"Duration":55147,"SoundDuration":55147,"Delta":199275998},{"NoteNumber":62,"Velocity":35,"Duration":55146,"SoundDuration":55146,"Delta":199386292},{"NoteNumber":63,"Velocity":50,"Duration":55762,"SoundDuration":55762,"Delta":199496586},{"NoteNumber":62,"Velocity":36,"Duration":55762,"SoundDuration":55762,"Delta":199608110},{"NoteNumber":60,"Velocity":45,"Duration":56818,"SoundDuration":56818,"Delta":199719634},{"NoteNumber":62,"Velocity":31,"Duration":56818,"SoundDuration":56818,"Delta":199833271},{"NoteNumber":62,"Velocity":51,"Duration":56818,"SoundDuration":56818,"Delta":199946907},{"NoteNumber":62,"Velocity":36,"Duration":56818,"SoundDuration":56818,"Delta":200060543},{"NoteNumber":58,"Velocity":45,"Duration":56818,"SoundDuration":56818,"Delta":200174179},{"NoteNumber":62,"Velocity":33,"Duration":56818,"SoundDuration":56818,"Delta":200287816},{"NoteNumber":55,"Velocity":62,"Duration":116731,"SoundDuration":116731,"Delta":200401452},{"NoteNumber":62,"Velocity":37,"Duration":58365,"SoundDuration":58365,"Delta":200518183},{"NoteNumber":62,"Velocity":50,"Duration":54744,"SoundDuration":54744,"Delta":200634915},{"NoteNumber":62,"Velocity":35,"Duration":54744,"SoundDuration":54744,"Delta":200744404},{"NoteNumber":63,"Velocity":54,"Duration":55970,"SoundDuration":55970,"Delta":200853893},{"NoteNumber":62,"Velocity":39,"Duration":55970,"SoundDuration":55970,"Delta":200965833},{"NoteNumber":60,"Velocity":45,"Duration":56818,"SoundDuration":56818,"Delta":201077773},{"NoteNumber":62,"Velocity":37,"Duration":56818,"SoundDuration":56818,"Delta":201191410},{"NoteNumber":62,"Velocity":49,"Duration":56818,"SoundDuration":56818,"Delta":201305046},{"NoteNumber":62,"Velocity":34,"Duration":56818,"SoundDuration":56818,"Delta":201418682},{"NoteNumber":58,"Velocity":45,"Duration":56818,"SoundDuration":56818,"Delta":201532318},{"NoteNumber":62,"Velocity":32,"Duration":56818,"SoundDuration":56818,"Delta":201645955},{"NoteNumber":55,"Velocity":62,"Duration":116731,"SoundDuration":116731,"Delta":201759591},{"NoteNumber":62,"Velocity":31,"Duration":58365,"SoundDuration":58365,"Delta":201876322},{"NoteNumber":62,"Velocity":47,"Duration":55350,"SoundDuration":55350,"Delta":201993054},{"NoteNumber":62,"Velocity":35,"Duration":55350,"SoundDuration":55350,"Delta":202103755},{"NoteNumber":63,"Velocity":50,"Duration":55970,"SoundDuration":55970,"Delta":202214456},{"NoteNumber":62,"Velocity":39,"Duration":55970,"SoundDuration":55970,"Delta":202326396},{"NoteNumber":60,"Velocity":45,"Duration":56390,"SoundDuration":56390,"Delta":202438336},{"NoteNumber":62,"Velocity":37,"Duration":56390,"SoundDuration":56390,"Delta":202551118},{"NoteNumber":62,"Velocity":52,"Duration":56818,"SoundDuration":56818,"Delta":202663900},{"NoteNumber":62,"Velocity":40,"Duration":56818,"SoundDuration":56818,"Delta":202777537},{"NoteNumber":58,"Velocity":48,"Duration":56818,"SoundDuration":56818,"Delta":202891173},{"NoteNumber":62,"Velocity":37,"Duration":56818,"SoundDuration":56818,"Delta":203004809},{"NoteNumber":60,"Velocity":55,"Duration":56818,"SoundDuration":56818,"Delta":203118445},{"NoteNumber":62,"Velocity":41,"Duration":56818,"SoundDuration":56818,"Delta":203232082},{"NoteNumber":57,"Velocity":49,"Duration":55555,"SoundDuration":55555,"Delta":203345718},{"NoteNumber":62,"Velocity":35,"Duration":55555,"SoundDuration":55555,"Delta":203456829},{"NoteNumber":58,"Velocity":56,"Duration":55555,"SoundDuration":55555,"Delta":203567940},{"NoteNumber":62,"Velocity":43,"Duration":55555,"SoundDuration":55555,"Delta":203679051},{"NoteNumber":55,"Velocity":51,"Duration":56179,"SoundDuration":56179,"Delta":203790162},{"NoteNumber":62,"Velocity":37,"Duration":56179,"SoundDuration":56179,"Delta":203902521},{"NoteNumber":53,"Velocity":56,"Duration":56461,"SoundDuration":56461,"Delta":204015022},{"NoteNumber":62,"Velocity":44,"Duration":56818,"SoundDuration":56818,"Delta":204128087},{"NoteNumber":51,"Velocity":53,"Duration":57693,"SoundDuration":57693,"Delta":204241724},{"NoteNumber":62,"Velocity":39,"Duration":59523,"SoundDuration":59523,"Delta":204358013},{"NoteNumber":50,"Velocity":59,"Duration":118110,"SoundDuration":118110,"Delta":204477061},{"NoteNumber":62,"Velocity":31,"Duration":59055,"SoundDuration":59055,"Delta":204595171},{"NoteNumber":62,"Velocity":47,"Duration":54545,"SoundDuration":54545,"Delta":204713281},{"NoteNumber":62,"Velocity":35,"Duration":54545,"SoundDuration":54545,"Delta":204822372},{"NoteNumber":63,"Velocity":53,"Duration":55762,"SoundDuration":55762,"Delta":204931463},{"NoteNumber":62,"Velocity":39,"Duration":55762,"SoundDuration":55762,"Delta":205042987},{"NoteNumber":60,"Velocity":45,"Duration":56818,"SoundDuration":56818,"Delta":205154512},{"NoteNumber":62,"Velocity":37,"Duration":56818,"SoundDuration":56818,"Delta":205268148},{"NoteNumber":62,"Velocity":49,"Duration":56818,"SoundDuration":56818,"Delta":205381784},{"NoteNumber":62,"Velocity":34,"Duration":56818,"SoundDuration":56818,"Delta":205495420},{"NoteNumber":57,"Velocity":45,"Duration":56818,"SoundDuration":56818,"Delta":205609057},{"NoteNumber":62,"Velocity":32,"Duration":56818,"SoundDuration":56818,"Delta":205722693},{"NoteNumber":50,"Velocity":62,"Duration":116731,"SoundDuration":116731,"Delta":205836329},{"NoteNumber":62,"Velocity":31,"Duration":58365,"SoundDuration":58365,"Delta":205953061},{"NoteNumber":62,"Velocity":47,"Duration":54945,"SoundDuration":54945,"Delta":206069792},{"NoteNumber":62,"Velocity":35,"Duration":54945,"SoundDuration":54945,"Delta":206179682},{"NoteNumber":63,"Velocity":53,"Duration":55970,"SoundDuration":55970,"Delta":206289572},{"NoteNumber":62,"Velocity":39,"Duration":55970,"SoundDuration":55970,"Delta":206401512},{"NoteNumber":60,"Velocity":45,"Duration":56818,"SoundDuration":56818,"Delta":206513453},{"NoteNumber":62,"Velocity":37,"Duration":56818,"SoundDuration":56818,"Delta":206627089},{"NoteNumber":62,"Velocity":49,"Duration":56818,"SoundDuration":56818,"Delta":206740725},{"NoteNumber":62,"Velocity":34,"Duration":56818,"SoundDuration":56818,"Delta":206854361},{"NoteNumber":57,"Velocity":45,"Duration":56818,"SoundDuration":56818,"Delta":206967998},{"NoteNumber":62,"Velocity":32,"Duration":56818,"SoundDuration":56818,"Delta":207081634},{"NoteNumber":50,"Velocity":62,"Duration":116731,"SoundDuration":116731,"Delta":207195270},{"NoteNumber":62,"Velocity":31,"Duration":58365,"SoundDuration":58365,"Delta":207312002},{"NoteNumber":57,"Velocity":47,"Duration":55350,"SoundDuration":55350,"Delta":207428733},{"NoteNumber":62,"Velocity":35,"Duration":55350,"SoundDuration":55350,"Delta":207539434},{"NoteNumber":60,"Velocity":52,"Duration":55970,"SoundDuration":55970,"Delta":207650135},{"NoteNumber":62,"Velocity":39,"Duration":55970,"SoundDuration":55970,"Delta":207762075},{"NoteNumber":62,"Velocity":51,"Duration":56390,"SoundDuration":56390,"Delta":207874016},{"NoteNumber":62,"Velocity":37,"Duration":56390,"SoundDuration":56390,"Delta":207986798},{"NoteNumber":63,"Velocity":56,"Duration":56818,"SoundDuration":56818,"Delta":208099580},{"NoteNumber":62,"Velocity":44,"Duration":56818,"SoundDuration":56818,"Delta":208213216},{"NoteNumber":65,"Velocity":53,"Duration":56818,"SoundDuration":56818,"Delta":208326852},{"NoteNumber":62,"Velocity":41,"Duration":56818,"SoundDuration":56818,"Delta":208440488},{"NoteNumber":62,"Velocity":59,"Duration":56818,"SoundDuration":56818,"Delta":208554125},{"NoteNumber":62,"Velocity":48,"Duration":56818,"SoundDuration":56818,"Delta":208667761},{"NoteNumber":63,"Velocity":52,"Duration":55555,"SoundDuration":55555,"Delta":208781397},{"NoteNumber":62,"Velocity":42,"Duration":55555,"SoundDuration":55555,"Delta":208892508},{"NoteNumber":60,"Velocity":54,"Duration":55555,"SoundDuration":55555,"Delta":209003619},{"NoteNumber":62,"Velocity":47,"Duration":55555,"SoundDuration":55555,"Delta":209114730},{"NoteNumber":62,"Velocity":49,"Duration":56179,"SoundDuration":56179,"Delta":209225841},{"NoteNumber":62,"Velocity":41,"Duration":56179,"SoundDuration":56179,"Delta":209338201},{"NoteNumber":58,"Velocity":51,"Duration":56461,"SoundDuration":56461,"Delta":209450701},{"NoteNumber":62,"Velocity":43,"Duration":56818,"SoundDuration":56818,"Delta":209563767},{"NoteNumber":57,"Velocity":48,"Duration":57106,"SoundDuration":57106,"Delta":209677547},{"NoteNumber":62,"Velocity":37,"Duration":57471,"SoundDuration":57471,"Delta":209791906},{"NoteNumber":50,"Velocity":59,"Duration":118110,"SoundDuration":118110,"Delta":209906995},{"NoteNumber":62,"Velocity":31,"Duration":59055,"SoundDuration":59055,"Delta":210025106},{"NoteNumber":62,"Velocity":47,"Duration":55147,"SoundDuration":55147,"Delta":210143216},{"NoteNumber":62,"Velocity":35,"Duration":55146,"SoundDuration":55146,"Delta":210253510},{"NoteNumber":63,"Velocity":53,"Duration":55762,"SoundDuration":55762,"Delta":210363804},{"NoteNumber":62,"Velocity":39,"Duration":55762,"SoundDuration":55762,"Delta":210475328},{"NoteNumber":60,"Velocity":45,"Duration":56818,"SoundDuration":56818,"Delta":210586852},{"NoteNumber":62,"Velocity":37,"Duration":56818,"SoundDuration":56818,"Delta":210700489},{"NoteNumber":62,"Velocity":49,"Duration":56818,"SoundDuration":56818,"Delta":210814125},{"NoteNumber":62,"Velocity":34,"Duration":56818,"SoundDuration":56818,"Delta":210927761},{"NoteNumber":57,"Velocity":45,"Duration":56818,"SoundDuration":56818,"Delta":211041397},{"NoteNumber":62,"Velocity":32,"Duration":56818,"SoundDuration":56818,"Delta":211155034},{"NoteNumber":50,"Velocity":62,"Duration":116731,"SoundDuration":116731,"Delta":211268670},{"NoteNumber":62,"Velocity":31,"Duration":58365,"SoundDuration":58365,"Delta":211385401},{"NoteNumber":62,"Velocity":47,"Duration":55350,"SoundDuration":55350,"Delta":211502133},{"NoteNumber":62,"Velocity":35,"Duration":55350,"SoundDuration":55350,"Delta":211612834},{"NoteNumber":63,"Velocity":53,"Duration":55970,"SoundDuration":55970,"Delta":211723535},{"NoteNumber":62,"Velocity":39,"Duration":55970,"SoundDuration":55970,"Delta":211835475},{"NoteNumber":60,"Velocity":45,"Duration":56818,"SoundDuration":56818,"Delta":211947415},{"NoteNumber":62,"Velocity":37,"Duration":56818,"SoundDuration":56818,"Delta":212061052},{"NoteNumber":62,"Velocity":49,"Duration":56818,"SoundDuration":56818,"Delta":212174688},{"NoteNumber":62,"Velocity":34,"Duration":56818,"SoundDuration":56818,"Delta":212288324},{"NoteNumber":57,"Velocity":45,"Duration":56818,"SoundDuration":56818,"Delta":212401960},{"NoteNumber":62,"Velocity":32,"Duration":56818,"SoundDuration":56818,"Delta":212515597},{"NoteNumber":50,"Velocity":62,"Duration":116731,"SoundDuration":116731,"Delta":212629233},{"NoteNumber":62,"Velocity":31,"Duration":58365,"SoundDuration":58365,"Delta":212745964},{"NoteNumber":60,"Velocity":47,"Duration":55350,"SoundDuration":55350,"Delta":212862696},{"NoteNumber":62,"Velocity":35,"Duration":55350,"SoundDuration":55350,"Delta":212973397},{"NoteNumber":62,"Velocity":52,"Duration":55970,"SoundDuration":55970,"Delta":213084098},{"NoteNumber":62,"Velocity":39,"Duration":55970,"SoundDuration":55970,"Delta":213196038},{"NoteNumber":63,"Velocity":51,"Duration":56390,"SoundDuration":56390,"Delta":213307978},{"NoteNumber":62,"Velocity":37,"Duration":56390,"SoundDuration":56390,"Delta":213420760},{"NoteNumber":65,"Velocity":56,"Duration":56818,"SoundDuration":56818,"Delta":213533542},{"NoteNumber":62,"Velocity":44,"Duration":56818,"SoundDuration":56818,"Delta":213647179},{"NoteNumber":62,"Velocity":53,"Duration":56818,"SoundDuration":56818,"Delta":213760815},{"NoteNumber":62,"Velocity":41,"Duration":56818,"SoundDuration":56818,"Delta":213874451},{"NoteNumber":63,"Velocity":59,"Duration":56818,"SoundDuration":56818,"Delta":213988087},{"NoteNumber":62,"Velocity":48,"Duration":56818,"SoundDuration":56818,"Delta":214101724},{"NoteNumber":60,"Velocity":52,"Duration":55555,"SoundDuration":55555,"Delta":214215360},{"NoteNumber":62,"Velocity":42,"Duration":55555,"SoundDuration":55555,"Delta":214326471},{"NoteNumber":62,"Velocity":54,"Duration":55555,"SoundDuration":55555,"Delta":214437582},{"NoteNumber":62,"Velocity":47,"Duration":55555,"SoundDuration":55555,"Delta":214548693},{"NoteNumber":58,"Velocity":49,"Duration":56250,"SoundDuration":56250,"Delta":214659804},{"NoteNumber":62,"Velocity":41,"Duration":56890,"SoundDuration":56890,"Delta":214772587},{"NoteNumber":60,"Velocity":51,"Duration":57544,"SoundDuration":57544,"Delta":214886656},{"NoteNumber":62,"Velocity":43,"Duration":58214,"SoundDuration":58214,"Delta":215002042},{"NoteNumber":57,"Velocity":48,"Duration":58900,"SoundDuration":58900,"Delta":215118775},{"NoteNumber":62,"Velocity":37,"Duration":59761,"SoundDuration":59761,"Delta":215236886},{"NoteNumber":55,"Velocity":64,"Duration":117187,"SoundDuration":117187,"Delta":215355029},{"NoteNumber":74,"Velocity":44,"Duration":58593,"SoundDuration":58593,"Delta":215472217},{"NoteNumber":62,"Velocity":34,"Duration":58593,"SoundDuration":58593,"Delta":215472217},{"NoteNumber":62,"Velocity":51,"Duration":54151,"SoundDuration":54151,"Delta":215589404},{"NoteNumber":74,"Velocity":49,"Duration":54151,"SoundDuration":54151,"Delta":215697707},{"NoteNumber":62,"Velocity":38,"Duration":54151,"SoundDuration":54151,"Delta":215697707},{"NoteNumber":63,"Velocity":58,"Duration":55762,"SoundDuration":55762,"Delta":215806011},{"NoteNumber":74,"Velocity":54,"Duration":55762,"SoundDuration":55762,"Delta":215917535},{"NoteNumber":62,"Velocity":42,"Duration":55762,"SoundDuration":55762,"Delta":215917535},{"NoteNumber":60,"Velocity":49,"Duration":56818,"SoundDuration":56818,"Delta":216029059},{"NoteNumber":74,"Velocity":52,"Duration":56818,"SoundDuration":56818,"Delta":216142695},{"NoteNumber":62,"Velocity":40,"Duration":56818,"SoundDuration":56818,"Delta":216142695},{"NoteNumber":62,"Velocity":53,"Duration":56818,"SoundDuration":56818,"Delta":216256332},{"NoteNumber":74,"Velocity":48,"Duration":56818,"SoundDuration":56818,"Delta":216369968},{"NoteNumber":62,"Velocity":37,"Duration":56818,"SoundDuration":56818,"Delta":216369968},{"NoteNumber":58,"Velocity":49,"Duration":56818,"SoundDuration":56818,"Delta":216483604},{"NoteNumber":74,"Velocity":45,"Duration":56818,"SoundDuration":56818,"Delta":216597240},{"NoteNumber":62,"Velocity":35,"Duration":56818,"SoundDuration":56818,"Delta":216597240},{"NoteNumber":55,"Velocity":68,"Duration":116731,"SoundDuration":116731,"Delta":216710877},{"NoteNumber":74,"Velocity":44,"Duration":58365,"SoundDuration":58365,"Delta":216827608},{"NoteNumber":62,"Velocity":34,"Duration":58365,"SoundDuration":58365,"Delta":216827608},{"NoteNumber":62,"Velocity":51,"Duration":54151,"SoundDuration":54151,"Delta":216944340},{"NoteNumber":74,"Velocity":49,"Duration":54151,"SoundDuration":54151,"Delta":217052643},{"NoteNumber":62,"Velocity":38,"Duration":54151,"SoundDuration":54151,"Delta":217052643},{"NoteNumber":63,"Velocity":58,"Duration":55970,"SoundDuration":55970,"Delta":217160946},{"NoteNumber":74,"Velocity":54,"Duration":55970,"SoundDuration":55970,"Delta":217272886},{"NoteNumber":62,"Velocity":42,"Duration":55970,"SoundDuration":55970,"Delta":217272886},{"NoteNumber":60,"Velocity":49,"Duration":56818,"SoundDuration":56818,"Delta":217384827},{"NoteNumber":74,"Velocity":52,"Duration":56818,"SoundDuration":56818,"Delta":217498463},{"NoteNumber":62,"Velocity":40,"Duration":56818,"SoundDuration":56818,"Delta":217498463},{"NoteNumber":62,"Velocity":53,"Duration":56818,"SoundDuration":56818,"Delta":217612099},{"NoteNumber":74,"Velocity":48,"Duration":56818,"SoundDuration":56818,"Delta":217725735},{"NoteNumber":62,"Velocity":37,"Duration":56818,"SoundDuration":56818,"Delta":217725735},{"NoteNumber":58,"Velocity":49,"Duration":56818,"SoundDuration":56818,"Delta":217839372},{"NoteNumber":74,"Velocity":45,"Duration":56818,"SoundDuration":56818,"Delta":217953008},{"NoteNumber":62,"Velocity":35,"Duration":56818,"SoundDuration":56818,"Delta":217953008},{"NoteNumber":55,"Velocity":68,"Duration":116731,"SoundDuration":116731,"Delta":218066644},{"NoteNumber":74,"Velocity":44,"Duration":58365,"SoundDuration":58365,"Delta":218183376},{"NoteNumber":62,"Velocity":34,"Duration":58365,"SoundDuration":58365,"Delta":218183376},{"NoteNumber":62,"Velocity":51,"Duration":55350,"SoundDuration":55350,"Delta":218300107},{"NoteNumber":74,"Velocity":49,"Duration":55350,"SoundDuration":55350,"Delta":218410808},{"NoteNumber":62,"Velocity":38,"Duration":55350,"SoundDuration":55350,"Delta":218410808},{"NoteNumber":63,"Velocity":55,"Duration":55970,"SoundDuration":55970,"Delta":218521509},{"NoteNumber":74,"Velocity":54,"Duration":55970,"SoundDuration":55970,"Delta":218633449},{"NoteNumber":62,"Velocity":42,"Duration":55970,"SoundDuration":55970,"Delta":218633449},{"NoteNumber":60,"Velocity":49,"Duration":56390,"SoundDuration":56390,"Delta":218745390},{"NoteNumber":74,"Velocity":52,"Duration":56390,"SoundDuration":56390,"Delta":218858172},{"NoteNumber":62,"Velocity":40,"Duration":56390,"SoundDuration":56390,"Delta":218858172},{"NoteNumber":62,"Velocity":57,"Duration":56818,"SoundDuration":56818,"Delta":218970954},{"NoteNumber":74,"Velocity":57,"Duration":56818,"SoundDuration":56818,"Delta":219084590},{"NoteNumber":62,"Velocity":44,"Duration":56818,"SoundDuration":56818,"Delta":219084590},{"NoteNumber":58,"Velocity":52,"Duration":56818,"SoundDuration":56818,"Delta":219198226},{"NoteNumber":74,"Velocity":52,"Duration":56818,"SoundDuration":56818,"Delta":219311862},{"NoteNumber":62,"Velocity":40,"Duration":56818,"SoundDuration":56818,"Delta":219311862},{"NoteNumber":60,"Velocity":62,"Duration":56818,"SoundDuration":56818,"Delta":219425499},{"NoteNumber":74,"Velocity":58,"Duration":56818,"SoundDuration":56818,"Delta":219539135},{"NoteNumber":62,"Velocity":45,"Duration":56818,"SoundDuration":56818,"Delta":219539135},{"NoteNumber":57,"Velocity":53,"Duration":55555,"SoundDuration":55555,"Delta":219652771},{"NoteNumber":74,"Velocity":49,"Duration":55555,"SoundDuration":55555,"Delta":219763882},{"NoteNumber":62,"Velocity":38,"Duration":55555,"SoundDuration":55555,"Delta":219763882},{"NoteNumber":58,"Velocity":58,"Duration":55555,"SoundDuration":55555,"Delta":219874993},{"NoteNumber":74,"Velocity":54,"Duration":55555,"SoundDuration":55555,"Delta":219986104},{"NoteNumber":62,"Velocity":42,"Duration":55555,"SoundDuration":55555,"Delta":219986104},{"NoteNumber":60,"Velocity":53,"Duration":56179,"SoundDuration":56179,"Delta":220097215},{"NoteNumber":74,"Velocity":48,"Duration":56179,"SoundDuration":56179,"Delta":220209575},{"NoteNumber":62,"Velocity":37,"Duration":56179,"SoundDuration":56179,"Delta":220209575},{"NoteNumber":57,"Velocity":56,"Duration":56461,"SoundDuration":56461,"Delta":220322075},{"NoteNumber":74,"Velocity":53,"Duration":56818,"SoundDuration":56818,"Delta":220435141},{"NoteNumber":62,"Velocity":41,"Duration":56818,"SoundDuration":56818,"Delta":220435141},{"NoteNumber":58,"Velocity":52,"Duration":57106,"SoundDuration":57106,"Delta":220548921},{"NoteNumber":74,"Velocity":52,"Duration":60728,"SoundDuration":60728,"Delta":220663280},{"NoteNumber":62,"Velocity":40,"Duration":60728,"SoundDuration":60728,"Delta":220663280},{"NoteNumber":55,"Velocity":64,"Duration":116731,"SoundDuration":116731,"Delta":220784737},{"NoteNumber":74,"Velocity":44,"Duration":58365,"SoundDuration":58365,"Delta":220901469},{"NoteNumber":62,"Velocity":34,"Duration":58365,"SoundDuration":58365,"Delta":220901469},{"NoteNumber":62,"Velocity":51,"Duration":55147,"SoundDuration":55147,"Delta":221018200},{"NoteNumber":74,"Velocity":49,"Duration":55146,"SoundDuration":55146,"Delta":221128494},{"NoteNumber":62,"Velocity":38,"Duration":55146,"SoundDuration":55146,"Delta":221128494},{"NoteNumber":63,"Velocity":58,"Duration":55762,"SoundDuration":55762,"Delta":221238788},{"NoteNumber":74,"Velocity":54,"Duration":55762,"SoundDuration":55762,"Delta":221350312},{"NoteNumber":62,"Velocity":42,"Duration":55762,"SoundDuration":55762,"Delta":221350312},{"NoteNumber":60,"Velocity":49,"Duration":56818,"SoundDuration":56818,"Delta":221461837},{"NoteNumber":74,"Velocity":52,"Duration":56818,"SoundDuration":56818,"Delta":221575473},{"NoteNumber":62,"Velocity":40,"Duration":56818,"SoundDuration":56818,"Delta":221575473},{"NoteNumber":62,"Velocity":53,"Duration":56818,"SoundDuration":56818,"Delta":221689109},{"NoteNumber":74,"Velocity":48,"Duration":56818,"SoundDuration":56818,"Delta":221802745},{"NoteNumber":62,"Velocity":37,"Duration":56818,"SoundDuration":56818,"Delta":221802745},{"NoteNumber":58,"Velocity":49,"Duration":56818,"SoundDuration":56818,"Delta":221916382},{"NoteNumber":74,"Velocity":45,"Duration":56818,"SoundDuration":56818,"Delta":222030018},{"NoteNumber":62,"Velocity":35,"Duration":56818,"SoundDuration":56818,"Delta":222030018},{"NoteNumber":55,"Velocity":68,"Duration":116731,"SoundDuration":116731,"Delta":222143654},{"NoteNumber":74,"Velocity":44,"Duration":58365,"SoundDuration":58365,"Delta":222260386},{"NoteNumber":62,"Velocity":34,"Duration":58365,"SoundDuration":58365,"Delta":222260386},{"NoteNumber":62,"Velocity":51,"Duration":55350,"SoundDuration":55350,"Delta":222377117},{"NoteNumber":74,"Velocity":49,"Duration":55350,"SoundDuration":55350,"Delta":222487818},{"NoteNumber":62,"Velocity":38,"Duration":55350,"SoundDuration":55350,"Delta":222487818},{"NoteNumber":63,"Velocity":58,"Duration":55970,"SoundDuration":55970,"Delta":222598519},{"NoteNumber":74,"Velocity":54,"Duration":55970,"SoundDuration":55970,"Delta":222710459},{"NoteNumber":62,"Velocity":42,"Duration":55970,"SoundDuration":55970,"Delta":222710459},{"NoteNumber":60,"Velocity":49,"Duration":56818,"SoundDuration":56818,"Delta":222822400},{"NoteNumber":74,"Velocity":52,"Duration":56818,"SoundDuration":56818,"Delta":222936036},{"NoteNumber":62,"Velocity":40,"Duration":56818,"SoundDuration":56818,"Delta":222936036},{"NoteNumber":62,"Velocity":53,"Duration":56818,"SoundDuration":56818,"Delta":223049672},{"NoteNumber":74,"Velocity":48,"Duration":56818,"SoundDuration":56818,"Delta":223163308},{"NoteNumber":62,"Velocity":37,"Duration":56818,"SoundDuration":56818,"Delta":223163308},{"NoteNumber":58,"Velocity":49,"Duration":56818,"SoundDuration":56818,"Delta":223276945},{"NoteNumber":74,"Velocity":45,"Duration":56818,"SoundDuration":56818,"Delta":223390581},{"NoteNumber":62,"Velocity":35,"Duration":56818,"SoundDuration":56818,"Delta":223390581},{"NoteNumber":55,"Velocity":68,"Duration":116731,"SoundDuration":116731,"Delta":223504217},{"NoteNumber":74,"Velocity":44,"Duration":58365,"SoundDuration":58365,"Delta":223620949},{"NoteNumber":62,"Velocity":34,"Duration":58365,"SoundDuration":58365,"Delta":223620949},{"NoteNumber":62,"Velocity":51,"Duration":55350,"SoundDuration":55350,"Delta":223737680},{"NoteNumber":74,"Velocity":49,"Duration":55350,"SoundDuration":55350,"Delta":223848381},{"NoteNumber":62,"Velocity":38,"Duration":55350,"SoundDuration":55350,"Delta":223848381},{"NoteNumber":63,"Velocity":55,"Duration":55970,"SoundDuration":55970,"Delta":223959082},{"NoteNumber":74,"Velocity":54,"Duration":55970,"SoundDuration":55970,"Delta":224071022},{"NoteNumber":62,"Velocity":42,"Duration":55970,"SoundDuration":55970,"Delta":224071022},{"NoteNumber":60,"Velocity":49,"Duration":56390,"SoundDuration":56390,"Delta":224182963},{"NoteNumber":74,"Velocity":52,"Duration":56390,"SoundDuration":56390,"Delta":224295745},{"NoteNumber":62,"Velocity":40,"Duration":56390,"SoundDuration":56390,"Delta":224295745},{"NoteNumber":62,"Velocity":57,"Duration":56818,"SoundDuration":56818,"Delta":224408527},{"NoteNumber":74,"Velocity":57,"Duration":56818,"SoundDuration":56818,"Delta":224522163},{"NoteNumber":62,"Velocity":44,"Duration":56818,"SoundDuration":56818,"Delta":224522163},{"NoteNumber":58,"Velocity":52,"Duration":56818,"SoundDuration":56818,"Delta":224635799},{"NoteNumber":74,"Velocity":52,"Duration":56818,"SoundDuration":56818,"Delta":224749435},{"NoteNumber":62,"Velocity":40,"Duration":56818,"SoundDuration":56818,"Delta":224749435},{"NoteNumber":60,"Velocity":62,"Duration":56818,"SoundDuration":56818,"Delta":224863072},{"NoteNumber":74,"Velocity":58,"Duration":56818,"SoundDuration":56818,"Delta":224976708},{"NoteNumber":62,"Velocity":45,"Duration":56818,"SoundDuration":56818,"Delta":224976708},{"NoteNumber":57,"Velocity":53,"Duration":54945,"SoundDuration":54945,"Delta":225090344},{"NoteNumber":74,"Velocity":49,"Duration":54945,"SoundDuration":54945,"Delta":225200234},{"NoteNumber":62,"Velocity":38,"Duration":54945,"SoundDuration":54945,"Delta":225200234},{"NoteNumber":58,"Velocity":62,"Duration":55555,"SoundDuration":55555,"Delta":225310124},{"NoteNumber":74,"Velocity":62,"Duration":55555,"SoundDuration":55555,"Delta":225421235},{"NoteNumber":62,"Velocity":48,"Duration":55555,"SoundDuration":55555,"Delta":225421235},{"NoteNumber":55,"Velocity":58,"Duration":56179,"SoundDuration":56179,"Delta":225532346},{"NoteNumber":74,"Velocity":54,"Duration":56179,"SoundDuration":56179,"Delta":225644706},{"NoteNumber":62,"Velocity":42,"Duration":56179,"SoundDuration":56179,"Delta":225644706},{"NoteNumber":53,"Velocity":64,"Duration":56461,"SoundDuration":56461,"Delta":225757206},{"NoteNumber":74,"Velocity":66,"Duration":57619,"SoundDuration":57619,"Delta":225870559},{"NoteNumber":62,"Velocity":51,"Duration":57619,"SoundDuration":57619,"Delta":225870559},{"NoteNumber":51,"Velocity":62,"Duration":58978,"SoundDuration":58978,"Delta":225986393},{"NoteNumber":74,"Velocity":58,"Duration":60403,"SoundDuration":60403,"Delta":226104975},{"NoteNumber":62,"Velocity":45,"Duration":60403,"SoundDuration":60403,"Delta":226104975},{"NoteNumber":38,"Velocity":71,"Duration":116731,"SoundDuration":116731,"Delta":226226438},{"NoteNumber":50,"Velocity":84,"Duration":116731,"SoundDuration":116731,"Delta":226226438},{"NoteNumber":86,"Velocity":83,"Duration":67873,"SoundDuration":67873,"Delta":226343170},{"NoteNumber":81,"Velocity":83,"Duration":67873,"SoundDuration":67873,"Delta":226343170},{"NoteNumber":78,"Velocity":70,"Duration":67873,"SoundDuration":67873,"Delta":226343170},{"NoteNumber":74,"Velocity":70,"Duration":67873,"SoundDuration":67873,"Delta":226343170},{"NoteNumber":62,"Velocity":56,"Duration":54744,"SoundDuration":54744,"Delta":226478916},{"NoteNumber":74,"Velocity":54,"Duration":54744,"SoundDuration":54744,"Delta":226588405},{"NoteNumber":62,"Velocity":42,"Duration":54744,"SoundDuration":54744,"Delta":226588405},{"NoteNumber":63,"Velocity":63,"Duration":55762,"SoundDuration":55762,"Delta":226697894},{"NoteNumber":74,"Velocity":59,"Duration":55762,"SoundDuration":55762,"Delta":226809418},{"NoteNumber":62,"Velocity":46,"Duration":55762,"SoundDuration":55762,"Delta":226809418},{"NoteNumber":60,"Velocity":54,"Duration":56818,"SoundDuration":56818,"Delta":226920943},{"NoteNumber":74,"Velocity":57,"Duration":56818,"SoundDuration":56818,"Delta":227034579},{"NoteNumber":62,"Velocity":44,"Duration":56818,"SoundDuration":56818,"Delta":227034579},{"NoteNumber":62,"Velocity":58,"Duration":56818,"SoundDuration":56818,"Delta":227148215},{"NoteNumber":74,"Velocity":52,"Duration":56818,"SoundDuration":56818,"Delta":227261851},{"NoteNumber":62,"Velocity":40,"Duration":56818,"SoundDuration":56818,"Delta":227261851},{"NoteNumber":57,"Velocity":54,"Duration":56818,"SoundDuration":56818,"Delta":227375488},{"NoteNumber":74,"Velocity":49,"Duration":56818,"SoundDuration":56818,"Delta":227489124},{"NoteNumber":62,"Velocity":38,"Duration":56818,"SoundDuration":56818,"Delta":227489124},{"NoteNumber":38,"Velocity":74,"Duration":116731,"SoundDuration":116731,"Delta":227602760},{"NoteNumber":50,"Velocity":88,"Duration":116731,"SoundDuration":116731,"Delta":227602760},{"NoteNumber":86,"Velocity":85,"Duration":66964,"SoundDuration":66964,"Delta":227719492},{"NoteNumber":81,"Velocity":85,"Duration":66964,"SoundDuration":66964,"Delta":227719492},{"NoteNumber":78,"Velocity":72,"Duration":66964,"SoundDuration":66964,"Delta":227719492},{"NoteNumber":74,"Velocity":72,"Duration":66964,"SoundDuration":66964,"Delta":227719492},{"NoteNumber":62,"Velocity":56,"Duration":54945,"SoundDuration":54945,"Delta":227853420},{"NoteNumber":74,"Velocity":54,"Duration":54945,"SoundDuration":54945,"Delta":227963310},{"NoteNumber":62,"Velocity":42,"Duration":54945,"SoundDuration":54945,"Delta":227963310},{"NoteNumber":63,"Velocity":63,"Duration":55970,"SoundDuration":55970,"Delta":228073200},{"NoteNumber":74,"Velocity":59,"Duration":55970,"SoundDuration":55970,"Delta":228185140},{"NoteNumber":62,"Velocity":46,"Duration":55970,"SoundDuration":55970,"Delta":228185140},{"NoteNumber":60,"Velocity":54,"Duration":56818,"SoundDuration":56818,"Delta":228297081},{"NoteNumber":74,"Velocity":57,"Duration":56818,"SoundDuration":56818,"Delta":228410717},{"NoteNumber":62,"Velocity":44,"Duration":56818,"SoundDuration":56818,"Delta":228410717},{"NoteNumber":62,"Velocity":58,"Duration":56818,"SoundDuration":56818,"Delta":228524353},{"NoteNumber":74,"Velocity":52,"Duration":56818,"SoundDuration":56818,"Delta":228637989},{"NoteNumber":62,"Velocity":40,"Duration":56818,"SoundDuration":56818,"Delta":228637989},{"NoteNumber":57,"Velocity":54,"Duration":56818,"SoundDuration":56818,"Delta":228751626},{"NoteNumber":74,"Velocity":49,"Duration":56818,"SoundDuration":56818,"Delta":228865262},{"NoteNumber":62,"Velocity":38,"Duration":56818,"SoundDuration":56818,"Delta":228865262},{"NoteNumber":38,"Velocity":74,"Duration":116731,"SoundDuration":116731,"Delta":228978898},{"NoteNumber":50,"Velocity":88,"Duration":116731,"SoundDuration":116731,"Delta":228978898},{"NoteNumber":86,"Velocity":83,"Duration":66079,"SoundDuration":66079,"Delta":229095630},{"NoteNumber":81,"Velocity":83,"Duration":66079,"SoundDuration":66079,"Delta":229095630},{"NoteNumber":78,"Velocity":70,"Duration":66079,"SoundDuration":66079,"Delta":229095630},{"NoteNumber":74,"Velocity":70,"Duration":66079,"SoundDuration":66079,"Delta":229095630},{"NoteNumber":57,"Velocity":56,"Duration":54945,"SoundDuration":54945,"Delta":229227788},{"NoteNumber":74,"Velocity":54,"Duration":54945,"SoundDuration":54945,"Delta":229337678},{"NoteNumber":62,"Velocity":42,"Duration":54945,"SoundDuration":54945,"Delta":229337678},{"NoteNumber":60,"Velocity":62,"Duration":55970,"SoundDuration":55970,"Delta":229447568},{"NoteNumber":74,"Velocity":59,"Duration":55970,"SoundDuration":55970,"Delta":229559508},{"NoteNumber":62,"Velocity":46,"Duration":55970,"SoundDuration":55970,"Delta":229559508},{"NoteNumber":62,"Velocity":61,"Duration":56390,"SoundDuration":56390,"Delta":229671449},{"NoteNumber":74,"Velocity":57,"Duration":56390,"SoundDuration":56390,"Delta":229784231},{"NoteNumber":62,"Velocity":44,"Duration":56390,"SoundDuration":56390,"Delta":229784231},{"NoteNumber":63,"Velocity":67,"Duration":56818,"SoundDuration":56818,"Delta":229897013},{"NoteNumber":74,"Velocity":67,"Duration":56818,"SoundDuration":56818,"Delta":230010649},{"NoteNumber":62,"Velocity":52,"Duration":56818,"SoundDuration":56818,"Delta":230010649},{"NoteNumber":65,"Velocity":63,"Duration":56818,"SoundDuration":56818,"Delta":230124285},{"NoteNumber":74,"Velocity":63,"Duration":56818,"SoundDuration":56818,"Delta":230237921},{"NoteNumber":62,"Velocity":49,"Duration":56818,"SoundDuration":56818,"Delta":230237921},{"NoteNumber":62,"Velocity":70,"Duration":56818,"SoundDuration":56818,"Delta":230351558},{"NoteNumber":74,"Velocity":70,"Duration":56818,"SoundDuration":56818,"Delta":230465194},{"NoteNumber":62,"Velocity":54,"Duration":56818,"SoundDuration":56818,"Delta":230465194},{"NoteNumber":63,"Velocity":62,"Duration":55555,"SoundDuration":55555,"Delta":230578830},{"NoteNumber":74,"Velocity":65,"Duration":55555,"SoundDuration":55555,"Delta":230689941},{"NoteNumber":62,"Velocity":50,"Duration":55555,"SoundDuration":55555,"Delta":230689941},{"NoteNumber":60,"Velocity":64,"Duration":55555,"SoundDuration":55555,"Delta":230801052},{"NoteNumber":74,"Velocity":68,"Duration":55555,"SoundDuration":55555,"Delta":230912163},{"NoteNumber":62,"Velocity":53,"Duration":55555,"SoundDuration":55555,"Delta":230912163},{"NoteNumber":62,"Velocity":58,"Duration":56179,"SoundDuration":56179,"Delta":231023274},{"NoteNumber":74,"Velocity":63,"Duration":56179,"SoundDuration":56179,"Delta":231135634},{"NoteNumber":62,"Velocity":49,"Duration":56179,"SoundDuration":56179,"Delta":231135634},{"NoteNumber":58,"Velocity":61,"Duration":56461,"SoundDuration":56461,"Delta":231248134},{"NoteNumber":74,"Velocity":66,"Duration":56818,"SoundDuration":56818,"Delta":231361200},{"NoteNumber":62,"Velocity":51,"Duration":56818,"SoundDuration":56818,"Delta":231361200},{"NoteNumber":57,"Velocity":57,"Duration":57106,"SoundDuration":57106,"Delta":231474980},{"NoteNumber":74,"Velocity":57,"Duration":57471,"SoundDuration":57471,"Delta":231589339},{"NoteNumber":62,"Velocity":44,"Duration":57471,"SoundDuration":57471,"Delta":231589339},{"NoteNumber":38,"Velocity":71,"Duration":116731,"SoundDuration":116731,"Delta":231704428},{"NoteNumber":50,"Velocity":84,"Duration":116731,"SoundDuration":116731,"Delta":231704428},{"NoteNumber":86,"Velocity":83,"Duration":68181,"SoundDuration":68181,"Delta":231821160},{"NoteNumber":81,"Velocity":83,"Duration":68181,"SoundDuration":68181,"Delta":231821160},{"NoteNumber":78,"Velocity":70,"Duration":68181,"SoundDuration":68181,"Delta":231821160},{"NoteNumber":74,"Velocity":70,"Duration":68181,"SoundDuration":68181,"Delta":231821160},{"NoteNumber":62,"Velocity":56,"Duration":54744,"SoundDuration":54744,"Delta":231957524},{"NoteNumber":74,"Velocity":54,"Duration":54744,"SoundDuration":54744,"Delta":232067013},{"NoteNumber":62,"Velocity":42,"Duration":54744,"SoundDuration":54744,"Delta":232067013},{"NoteNumber":63,"Velocity":63,"Duration":55762,"SoundDuration":55762,"Delta":232176502},{"NoteNumber":74,"Velocity":59,"Duration":55762,"SoundDuration":55762,"Delta":232288026},{"NoteNumber":62,"Velocity":46,"Duration":55762,"SoundDuration":55762,"Delta":232288026},{"NoteNumber":60,"Velocity":54,"Duration":56818,"SoundDuration":56818,"Delta":232399550},{"NoteNumber":74,"Velocity":57,"Duration":56818,"SoundDuration":56818,"Delta":232513186},{"NoteNumber":62,"Velocity":44,"Duration":56818,"SoundDuration":56818,"Delta":232513186},{"NoteNumber":62,"Velocity":58,"Duration":56818,"SoundDuration":56818,"Delta":232626823},{"NoteNumber":74,"Velocity":52,"Duration":56818,"SoundDuration":56818,"Delta":232740459},{"NoteNumber":62,"Velocity":40,"Duration":56818,"SoundDuration":56818,"Delta":232740459},{"NoteNumber":57,"Velocity":54,"Duration":56818,"SoundDuration":56818,"Delta":232854095},{"NoteNumber":74,"Velocity":49,"Duration":56818,"SoundDuration":56818,"Delta":232967731},{"NoteNumber":62,"Velocity":38,"Duration":56818,"SoundDuration":56818,"Delta":232967731},{"NoteNumber":38,"Velocity":74,"Duration":116731,"SoundDuration":116731,"Delta":233081368},{"NoteNumber":50,"Velocity":88,"Duration":116731,"SoundDuration":116731,"Delta":233081368},{"NoteNumber":86,"Velocity":85,"Duration":67873,"SoundDuration":67873,"Delta":233198099},{"NoteNumber":81,"Velocity":85,"Duration":67873,"SoundDuration":67873,"Delta":233198099},{"NoteNumber":78,"Velocity":72,"Duration":67873,"SoundDuration":67873,"Delta":233198099},{"NoteNumber":74,"Velocity":72,"Duration":67873,"SoundDuration":67873,"Delta":233198099},{"NoteNumber":62,"Velocity":56,"Duration":54744,"SoundDuration":54744,"Delta":233333846},{"NoteNumber":74,"Velocity":54,"Duration":54744,"SoundDuration":54744,"Delta":233443335},{"NoteNumber":62,"Velocity":42,"Duration":54744,"SoundDuration":54744,"Delta":233443335},{"NoteNumber":63,"Velocity":63,"Duration":55970,"SoundDuration":55970,"Delta":233552824},{"NoteNumber":74,"Velocity":59,"Duration":55970,"SoundDuration":55970,"Delta":233664764},{"NoteNumber":62,"Velocity":46,"Duration":55970,"SoundDuration":55970,"Delta":233664764},{"NoteNumber":60,"Velocity":54,"Duration":56818,"SoundDuration":56818,"Delta":233776704},{"NoteNumber":74,"Velocity":57,"Duration":56818,"SoundDuration":56818,"Delta":233890340},{"NoteNumber":62,"Velocity":44,"Duration":56818,"SoundDuration":56818,"Delta":233890340},{"NoteNumber":62,"Velocity":58,"Duration":56818,"SoundDuration":56818,"Delta":234003977},{"NoteNumber":74,"Velocity":52,"Duration":56818,"SoundDuration":56818,"Delta":234117613},{"NoteNumber":62,"Velocity":40,"Duration":56818,"SoundDuration":56818,"Delta":234117613},{"NoteNumber":57,"Velocity":54,"Duration":56818,"SoundDuration":56818,"Delta":234231249},{"NoteNumber":74,"Velocity":49,"Duration":56818,"SoundDuration":56818,"Delta":234344885},{"NoteNumber":62,"Velocity":38,"Duration":56818,"SoundDuration":56818,"Delta":234344885},{"NoteNumber":38,"Velocity":74,"Duration":116731,"SoundDuration":116731,"Delta":234458522},{"NoteNumber":50,"Velocity":88,"Duration":116731,"SoundDuration":116731,"Delta":234458522},{"NoteNumber":86,"Velocity":83,"Duration":68181,"SoundDuration":68181,"Delta":234575253},{"NoteNumber":81,"Velocity":83,"Duration":68181,"SoundDuration":68181,"Delta":234575253},{"NoteNumber":78,"Velocity":70,"Duration":68181,"SoundDuration":68181,"Delta":234575253},{"NoteNumber":74,"Velocity":70,"Duration":68181,"SoundDuration":68181,"Delta":234575253},{"NoteNumber":57,"Velocity":56,"Duration":55350,"SoundDuration":55350,"Delta":234711617},{"NoteNumber":74,"Velocity":54,"Duration":55350,"SoundDuration":55350,"Delta":234822318},{"NoteNumber":62,"Velocity":42,"Duration":55350,"SoundDuration":55350,"Delta":234822318},{"NoteNumber":60,"Velocity":62,"Duration":55970,"SoundDuration":55970,"Delta":234933019},{"NoteNumber":74,"Velocity":59,"Duration":55970,"SoundDuration":55970,"Delta":235044959},{"NoteNumber":62,"Velocity":46,"Duration":55970,"SoundDuration":55970,"Delta":235044959},{"NoteNumber":62,"Velocity":61,"Duration":56390,"SoundDuration":56390,"Delta":235156899},{"NoteNumber":74,"Velocity":57,"Duration":56390,"SoundDuration":56390,"Delta":235269681},{"NoteNumber":62,"Velocity":44,"Duration":56390,"SoundDuration":56390,"Delta":235269681},{"NoteNumber":63,"Velocity":67,"Duration":56818,"SoundDuration":56818,"Delta":235382463},{"NoteNumber":74,"Velocity":67,"Duration":56818,"SoundDuration":56818,"Delta":235496100},{"NoteNumber":62,"Velocity":52,"Duration":56818,"SoundDuration":56818,"Delta":235496100},{"NoteNumber":65,"Velocity":63,"Duration":56818,"SoundDuration":56818,"Delta":235609736},{"NoteNumber":74,"Velocity":63,"Duration":56818,"SoundDuration":56818,"Delta":235723372},{"NoteNumber":62,"Velocity":49,"Duration":56818,"SoundDuration":56818,"Delta":235723372},{"NoteNumber":62,"Velocity":70,"Duration":56818,"SoundDuration":56818,"Delta":235837008},{"NoteNumber":74,"Velocity":71,"Duration":56818,"SoundDuration":56818,"Delta":235950645},{"NoteNumber":62,"Velocity":55,"Duration":56818,"SoundDuration":56818,"Delta":235950645},{"NoteNumber":63,"Velocity":62,"Duration":55147,"SoundDuration":55147,"Delta":236064281},{"NoteNumber":74,"Velocity":65,"Duration":55146,"SoundDuration":55146,"Delta":236174575},{"NoteNumber":62,"Velocity":50,"Duration":55146,"SoundDuration":55146,"Delta":236174575},{"NoteNumber":60,"Velocity":74,"Duration":55970,"SoundDuration":55970,"Delta":236284869},{"NoteNumber":74,"Velocity":72,"Duration":55970,"SoundDuration":55970,"Delta":236396809},{"NoteNumber":62,"Velocity":56,"Duration":55970,"SoundDuration":55970,"Delta":236396809},{"NoteNumber":62,"Velocity":69,"Duration":56818,"SoundDuration":56818,"Delta":236508749},{"NoteNumber":74,"Velocity":67,"Duration":57324,"SoundDuration":57324,"Delta":236622530},{"NoteNumber":62,"Velocity":52,"Duration":57324,"SoundDuration":57324,"Delta":236622530},{"NoteNumber":58,"Velocity":75,"Duration":57989,"SoundDuration":57989,"Delta":236737473},{"NoteNumber":74,"Velocity":77,"Duration":58441,"SoundDuration":58441,"Delta":236853753},{"NoteNumber":62,"Velocity":60,"Duration":58441,"SoundDuration":58441,"Delta":236853753},{"NoteNumber":62,"Velocity":70,"Duration":59132,"SoundDuration":59132,"Delta":236970942},{"NoteNumber":74,"Velocity":76,"Duration":59840,"SoundDuration":59840,"Delta":237089520},{"NoteNumber":62,"Velocity":59,"Duration":59840,"SoundDuration":59840,"Delta":237089520},{"NoteNumber":31,"Velocity":80,"Duration":119521,"SoundDuration":119521,"Delta":237209522},{"NoteNumber":43,"Velocity":95,"Duration":119521,"SoundDuration":119521,"Delta":237209522},{"NoteNumber":91,"Velocity":91,"Duration":79365,"SoundDuration":79365,"Delta":237329044},{"NoteNumber":86,"Velocity":76,"Duration":79365,"SoundDuration":79365,"Delta":237329044},{"NoteNumber":82,"Velocity":76,"Duration":79365,"SoundDuration":79365,"Delta":237329044},{"NoteNumber":79,"Velocity":76,"Duration":79365,"SoundDuration":79365,"Delta":237329044},{"NoteNumber":62,"Velocity":70,"Duration":54151,"SoundDuration":54151,"Delta":237487774},{"NoteNumber":74,"Velocity":68,"Duration":54151,"SoundDuration":54151,"Delta":237596077},{"NoteNumber":62,"Velocity":52,"Duration":54151,"SoundDuration":54151,"Delta":237596077},{"NoteNumber":63,"Velocity":78,"Duration":55762,"SoundDuration":55762,"Delta":237704380},{"NoteNumber":74,"Velocity":74,"Duration":55762,"SoundDuration":55762,"Delta":237815905},{"NoteNumber":62,"Velocity":57,"Duration":55762,"SoundDuration":55762,"Delta":237815905},{"NoteNumber":60,"Velocity":67,"Duration":56818,"SoundDuration":56818,"Delta":237927429},{"NoteNumber":74,"Velocity":70,"Duration":56818,"SoundDuration":56818,"Delta":238041065},{"NoteNumber":62,"Velocity":54,"Duration":56818,"SoundDuration":56818,"Delta":238041065},{"NoteNumber":62,"Velocity":72,"Duration":56818,"SoundDuration":56818,"Delta":238154701},{"NoteNumber":74,"Velocity":65,"Duration":56818,"SoundDuration":56818,"Delta":238268338},{"NoteNumber":62,"Velocity":50,"Duration":56818,"SoundDuration":56818,"Delta":238268338},{"NoteNumber":58,"Velocity":67,"Duration":56818,"SoundDuration":56818,"Delta":238381974},{"NoteNumber":74,"Velocity":60,"Duration":56818,"SoundDuration":56818,"Delta":238495610},{"NoteNumber":62,"Velocity":47,"Duration":56818,"SoundDuration":56818,"Delta":238495610},{"NoteNumber":31,"Velocity":79,"Duration":116731,"SoundDuration":116731,"Delta":238609246},{"NoteNumber":43,"Velocity":94,"Duration":116731,"SoundDuration":116731,"Delta":238609246},{"NoteNumber":91,"Velocity":93,"Duration":78947,"SoundDuration":78947,"Delta":238725978},{"NoteNumber":86,"Velocity":79,"Duration":78947,"SoundDuration":78947,"Delta":238725978},{"NoteNumber":82,"Velocity":79,"Duration":78947,"SoundDuration":78947,"Delta":238725978},{"NoteNumber":79,"Velocity":79,"Duration":78947,"SoundDuration":78947,"Delta":238725978},{"NoteNumber":62,"Velocity":70,"Duration":54347,"SoundDuration":54347,"Delta":238883873},{"NoteNumber":74,"Velocity":68,"Duration":54347,"SoundDuration":54347,"Delta":238992568},{"NoteNumber":62,"Velocity":52,"Duration":54347,"SoundDuration":54347,"Delta":238992568},{"NoteNumber":63,"Velocity":78,"Duration":55970,"SoundDuration":55970,"Delta":239101264},{"NoteNumber":74,"Velocity":74,"Duration":55970,"SoundDuration":55970,"Delta":239213204},{"NoteNumber":62,"Velocity":57,"Duration":55970,"SoundDuration":55970,"Delta":239213204},{"NoteNumber":60,"Velocity":67,"Duration":56818,"SoundDuration":56818,"Delta":239325145},{"NoteNumber":74,"Velocity":70,"Duration":56818,"SoundDuration":56818,"Delta":239438781},{"NoteNumber":62,"Velocity":54,"Duration":56818,"SoundDuration":56818,"Delta":239438781},{"NoteNumber":62,"Velocity":72,"Duration":56818,"SoundDuration":56818,"Delta":239552417},{"NoteNumber":74,"Velocity":65,"Duration":56818,"SoundDuration":56818,"Delta":239666053},{"NoteNumber":62,"Velocity":50,"Duration":56818,"SoundDuration":56818,"Delta":239666053},{"NoteNumber":58,"Velocity":67,"Duration":56818,"SoundDuration":56818,"Delta":239779690},{"NoteNumber":74,"Velocity":60,"Duration":56818,"SoundDuration":56818,"Delta":239893326},{"NoteNumber":62,"Velocity":47,"Duration":56818,"SoundDuration":56818,"Delta":239893326},{"NoteNumber":31,"Velocity":79,"Duration":116731,"SoundDuration":116731,"Delta":240006962},{"NoteNumber":43,"Velocity":93,"Duration":116731,"SoundDuration":116731,"Delta":240006962},{"NoteNumber":91,"Velocity":91,"Duration":78533,"SoundDuration":78533,"Delta":240123694},{"NoteNumber":86,"Velocity":76,"Duration":78533,"SoundDuration":78533,"Delta":240123694},{"NoteNumber":82,"Velocity":76,"Duration":78533,"SoundDuration":78533,"Delta":240123694},{"NoteNumber":79,"Velocity":76,"Duration":78533,"SoundDuration":78533,"Delta":240123694},{"NoteNumber":62,"Velocity":67,"Duration":55350,"SoundDuration":55350,"Delta":240280762},{"NoteNumber":74,"Velocity":65,"Duration":55350,"SoundDuration":55350,"Delta":240391463},{"NoteNumber":62,"Velocity":50,"Duration":55350,"SoundDuration":55350,"Delta":240391463},{"NoteNumber":63,"Velocity":74,"Duration":55970,"SoundDuration":55970,"Delta":240502164},{"NoteNumber":74,"Velocity":68,"Duration":55970,"SoundDuration":55970,"Delta":240614104},{"NoteNumber":62,"Velocity":53,"Duration":55970,"SoundDuration":55970,"Delta":240614104},{"NoteNumber":60,"Velocity":73,"Duration":56390,"SoundDuration":56390,"Delta":240726044},{"NoteNumber":74,"Velocity":67,"Duration":56390,"SoundDuration":56390,"Delta":240838826},{"NoteNumber":62,"Velocity":52,"Duration":56390,"SoundDuration":56390,"Delta":240838826},{"NoteNumber":62,"Velocity":80,"Duration":56818,"SoundDuration":56818,"Delta":240951608},{"NoteNumber":74,"Velocity":72,"Duration":56818,"SoundDuration":56818,"Delta":241065244},{"NoteNumber":62,"Velocity":55,"Duration":56818,"SoundDuration":56818,"Delta":241065244},{"NoteNumber":58,"Velocity":75,"Duration":56818,"SoundDuration":56818,"Delta":241178881},{"NoteNumber":74,"Velocity":75,"Duration":56818,"SoundDuration":56818,"Delta":241292517},{"NoteNumber":62,"Velocity":58,"Duration":56818,"SoundDuration":56818,"Delta":241292517},{"NoteNumber":60,"Velocity":84,"Duration":56818,"SoundDuration":56818,"Delta":241406153},{"NoteNumber":74,"Velocity":79,"Duration":56818,"SoundDuration":56818,"Delta":241519789},{"NoteNumber":62,"Velocity":61,"Duration":56818,"SoundDuration":56818,"Delta":241519789},{"NoteNumber":57,"Velocity":74,"Duration":55555,"SoundDuration":55555,"Delta":241633426},{"NoteNumber":74,"Velocity":70,"Duration":55555,"SoundDuration":55555,"Delta":241744537},{"NoteNumber":62,"Velocity":54,"Duration":55555,"SoundDuration":55555,"Delta":241744537},{"NoteNumber":58,"Velocity":76,"Duration":55555,"SoundDuration":55555,"Delta":241855648},{"NoteNumber":74,"Velocity":78,"Duration":55555,"SoundDuration":55555,"Delta":241966759},{"NoteNumber":62,"Velocity":60,"Duration":55555,"SoundDuration":55555,"Delta":241966759},{"NoteNumber":60,"Velocity":69,"Duration":56179,"SoundDuration":56179,"Delta":242077870},{"NoteNumber":74,"Velocity":67,"Duration":56179,"SoundDuration":56179,"Delta":242190229},{"NoteNumber":62,"Velocity":52,"Duration":56179,"SoundDuration":56179,"Delta":242190229},{"NoteNumber":57,"Velocity":73,"Duration":56461,"SoundDuration":56461,"Delta":242302730},{"NoteNumber":74,"Velocity":71,"Duration":56818,"SoundDuration":56818,"Delta":242415795},{"NoteNumber":62,"Velocity":54,"Duration":56818,"SoundDuration":56818,"Delta":242415795},{"NoteNumber":58,"Velocity":68,"Duration":57106,"SoundDuration":57106,"Delta":242529576},{"NoteNumber":74,"Velocity":67,"Duration":60728,"SoundDuration":60728,"Delta":242643934},{"NoteNumber":62,"Velocity":52,"Duration":60728,"SoundDuration":60728,"Delta":242643934},{"NoteNumber":37,"Velocity":81,"Duration":116731,"SoundDuration":116731,"Delta":242765392},{"NoteNumber":49,"Velocity":96,"Duration":116731,"SoundDuration":116731,"Delta":242765392},{"NoteNumber":91,"Velocity":93,"Duration":88235,"SoundDuration":88235,"Delta":242882123},{"NoteNumber":87,"Velocity":93,"Duration":88235,"SoundDuration":88235,"Delta":242882123},{"NoteNumber":82,"Velocity":79,"Duration":88235,"SoundDuration":88235,"Delta":242882123},{"NoteNumber":79,"Velocity":79,"Duration":88235,"SoundDuration":88235,"Delta":242882123},{"NoteNumber":63,"Velocity":70,"Duration":54151,"SoundDuration":54151,"Delta":243058594},{"NoteNumber":75,"Velocity":68,"Duration":54151,"SoundDuration":54151,"Delta":243166897},{"NoteNumber":63,"Velocity":52,"Duration":54151,"SoundDuration":54151,"Delta":243166897},{"NoteNumber":65,"Velocity":76,"Duration":55970,"SoundDuration":55970,"Delta":243275200},{"NoteNumber":75,"Velocity":74,"Duration":55970,"SoundDuration":55970,"Delta":243387140},{"NoteNumber":63,"Velocity":57,"Duration":55970,"SoundDuration":55970,"Delta":243387140},{"NoteNumber":62,"Velocity":67,"Duration":56818,"SoundDuration":56818,"Delta":243499081},{"NoteNumber":75,"Velocity":70,"Duration":56818,"SoundDuration":56818,"Delta":243612717},{"NoteNumber":63,"Velocity":54,"Duration":56818,"SoundDuration":56818,"Delta":243612717},{"NoteNumber":63,"Velocity":72,"Duration":56818,"SoundDuration":56818,"Delta":243726353},{"NoteNumber":75,"Velocity":65,"Duration":56818,"SoundDuration":56818,"Delta":243839989},{"NoteNumber":63,"Velocity":50,"Duration":56818,"SoundDuration":56818,"Delta":243839989},{"NoteNumber":58,"Velocity":67,"Duration":57915,"SoundDuration":57915,"Delta":243953626},{"NoteNumber":75,"Velocity":60,"Duration":57915,"SoundDuration":57915,"Delta":244069456},{"NoteNumber":63,"Velocity":47,"Duration":57915,"SoundDuration":57915,"Delta":244069456},{"NoteNumber":37,"Velocity":79,"Duration":116731,"SoundDuration":116731,"Delta":244185286},{"NoteNumber":49,"Velocity":94,"Duration":116731,"SoundDuration":116731,"Delta":244185286},{"NoteNumber":91,"Velocity":93,"Duration":87719,"SoundDuration":87719,"Delta":244302017},{"NoteNumber":87,"Velocity":93,"Duration":87719,"SoundDuration":87719,"Delta":244302017},{"NoteNumber":82,"Velocity":79,"Duration":87719,"SoundDuration":87719,"Delta":244302017},{"NoteNumber":79,"Velocity":79,"Duration":87719,"SoundDuration":87719,"Delta":244302017},{"NoteNumber":63,"Velocity":70,"Duration":54151,"SoundDuration":54151,"Delta":244477456},{"NoteNumber":75,"Velocity":68,"Duration":54151,"SoundDuration":54151,"Delta":244585759},{"NoteNumber":63,"Velocity":52,"Duration":54151,"SoundDuration":54151,"Delta":244585759},{"NoteNumber":65,"Velocity":77,"Duration":55970,"SoundDuration":55970,"Delta":244694062},{"NoteNumber":75,"Velocity":74,"Duration":55970,"SoundDuration":55970,"Delta":244806002},{"NoteNumber":63,"Velocity":57,"Duration":55970,"SoundDuration":55970,"Delta":244806002},{"NoteNumber":62,"Velocity":67,"Duration":56818,"SoundDuration":56818,"Delta":244917943},{"NoteNumber":75,"Velocity":70,"Duration":56818,"SoundDuration":56818,"Delta":245031579},{"NoteNumber":63,"Velocity":54,"Duration":56818,"SoundDuration":56818,"Delta":245031579},{"NoteNumber":63,"Velocity":72,"Duration":56818,"SoundDuration":56818,"Delta":245145215},{"NoteNumber":75,"Velocity":65,"Duration":56818,"SoundDuration":56818,"Delta":245258851},{"NoteNumber":63,"Velocity":50,"Duration":56818,"SoundDuration":56818,"Delta":245258851},{"NoteNumber":58,"Velocity":67,"Duration":58593,"SoundDuration":58593,"Delta":245372488},{"NoteNumber":75,"Velocity":60,"Duration":58593,"SoundDuration":58593,"Delta":245489675},{"NoteNumber":63,"Velocity":47,"Duration":58593,"SoundDuration":58593,"Delta":245489675},{"NoteNumber":37,"Velocity":80,"Duration":116731,"SoundDuration":116731,"Delta":245606863},{"NoteNumber":49,"Velocity":95,"Duration":116731,"SoundDuration":116731,"Delta":245606863},{"NoteNumber":91,"Velocity":93,"Duration":86705,"SoundDuration":86705,"Delta":245723594},{"NoteNumber":87,"Velocity":93,"Duration":86705,"SoundDuration":86705,"Delta":245723594},{"NoteNumber":82,"Velocity":79,"Duration":86705,"SoundDuration":86705,"Delta":245723594},{"NoteNumber":79,"Velocity":79,"Duration":86705,"SoundDuration":86705,"Delta":245723594},{"NoteNumber":63,"Velocity":67,"Duration":55350,"SoundDuration":55350,"Delta":245897005},{"NoteNumber":75,"Velocity":65,"Duration":55350,"SoundDuration":55350,"Delta":246007706},{"NoteNumber":63,"Velocity":50,"Duration":55350,"SoundDuration":55350,"Delta":246007706},{"NoteNumber":65,"Velocity":75,"Duration":55970,"SoundDuration":55970,"Delta":246118407},{"NoteNumber":75,"Velocity":71,"Duration":55970,"SoundDuration":55970,"Delta":246230347},{"NoteNumber":63,"Velocity":55,"Duration":55970,"SoundDuration":55970,"Delta":246230347},{"NoteNumber":62,"Velocity":64,"Duration":56818,"SoundDuration":56818,"Delta":246342287},{"NoteNumber":75,"Velocity":67,"Duration":56818,"SoundDuration":56818,"Delta":246455923},{"NoteNumber":63,"Velocity":52,"Duration":56818,"SoundDuration":56818,"Delta":246455923},{"NoteNumber":63,"Velocity":69,"Duration":56818,"SoundDuration":56818,"Delta":246569560},{"NoteNumber":75,"Velocity":62,"Duration":56818,"SoundDuration":56818,"Delta":246683196},{"NoteNumber":63,"Velocity":48,"Duration":56818,"SoundDuration":56818,"Delta":246683196},{"NoteNumber":58,"Velocity":64,"Duration":56818,"SoundDuration":56818,"Delta":246796832},{"NoteNumber":75,"Velocity":58,"Duration":56818,"SoundDuration":56818,"Delta":246910468},{"NoteNumber":63,"Velocity":45,"Duration":56818,"SoundDuration":56818,"Delta":246910468},{"NoteNumber":60,"Velocity":84,"Duration":56818,"SoundDuration":56818,"Delta":247024105},{"NoteNumber":75,"Velocity":70,"Duration":56818,"SoundDuration":56818,"Delta":247137741},{"NoteNumber":63,"Velocity":54,"Duration":56818,"SoundDuration":56818,"Delta":247137741},{"NoteNumber":57,"Velocity":70,"Duration":55555,"SoundDuration":55555,"Delta":247251377},{"NoteNumber":75,"Velocity":69,"Duration":55555,"SoundDuration":55555,"Delta":247362488},{"NoteNumber":63,"Velocity":54,"Duration":55555,"SoundDuration":55555,"Delta":247362488},{"NoteNumber":58,"Velocity":72,"Duration":55555,"SoundDuration":55555,"Delta":247473599},{"NoteNumber":75,"Velocity":71,"Duration":55555,"SoundDuration":55555,"Delta":247584710},{"NoteNumber":63,"Velocity":55,"Duration":55555,"SoundDuration":55555,"Delta":247584710},{"NoteNumber":60,"Velocity":69,"Duration":56179,"SoundDuration":56179,"Delta":247695821},{"NoteNumber":75,"Velocity":67,"Duration":56179,"SoundDuration":56179,"Delta":247808181},{"NoteNumber":63,"Velocity":52,"Duration":56179,"SoundDuration":56179,"Delta":247808181},{"NoteNumber":55,"Velocity":73,"Duration":56461,"SoundDuration":56461,"Delta":247920681},{"NoteNumber":75,"Velocity":72,"Duration":56818,"SoundDuration":56818,"Delta":248033747},{"NoteNumber":63,"Velocity":56,"Duration":56818,"SoundDuration":56818,"Delta":248033747},{"NoteNumber":57,"Velocity":68,"Duration":57106,"SoundDuration":57106,"Delta":248147527},{"NoteNumber":75,"Velocity":67,"Duration":57471,"SoundDuration":57471,"Delta":248261886},{"NoteNumber":63,"Velocity":52,"Duration":57471,"SoundDuration":57471,"Delta":248261886},{"NoteNumber":38,"Velocity":78,"Duration":116731,"SoundDuration":116731,"Delta":248376976},{"NoteNumber":50,"Velocity":92,"Duration":116731,"SoundDuration":116731,"Delta":248376976},{"NoteNumber":98,"Velocity":102,"Duration":89820,"SoundDuration":89820,"Delta":248493707},{"NoteNumber":93,"Velocity":86,"Duration":89820,"SoundDuration":89820,"Delta":248493707},{"NoteNumber":90,"Velocity":86,"Duration":89820,"SoundDuration":89820,"Delta":248493707},{"NoteNumber":86,"Velocity":86,"Duration":89820,"SoundDuration":89820,"Delta":248493707},{"NoteNumber":62,"Velocity":73,"Duration":53956,"SoundDuration":53956,"Delta":248673348},{"NoteNumber":74,"Velocity":71,"Duration":53956,"SoundDuration":53956,"Delta":248781262},{"NoteNumber":62,"Velocity":55,"Duration":53956,"SoundDuration":53956,"Delta":248781262},{"NoteNumber":63,"Velocity":82,"Duration":55762,"SoundDuration":55762,"Delta":248889175},{"NoteNumber":74,"Velocity":75,"Duration":55762,"SoundDuration":55762,"Delta":249000700},{"NoteNumber":62,"Velocity":58,"Duration":55762,"SoundDuration":55762,"Delta":249000700},{"NoteNumber":61,"Velocity":70,"Duration":56818,"SoundDuration":56818,"Delta":249112224},{"NoteNumber":74,"Velocity":73,"Duration":56818,"SoundDuration":56818,"Delta":249225860},{"NoteNumber":62,"Velocity":57,"Duration":56818,"SoundDuration":56818,"Delta":249225860},{"NoteNumber":62,"Velocity":75,"Duration":56818,"SoundDuration":56818,"Delta":249339496},{"NoteNumber":74,"Velocity":68,"Duration":56818,"SoundDuration":56818,"Delta":249453133},{"NoteNumber":62,"Velocity":52,"Duration":56818,"SoundDuration":56818,"Delta":249453133},{"NoteNumber":57,"Velocity":70,"Duration":56818,"SoundDuration":56818,"Delta":249566769},{"NoteNumber":74,"Velocity":63,"Duration":60483,"SoundDuration":60483,"Delta":249680405},{"NoteNumber":62,"Velocity":49,"Duration":60483,"SoundDuration":60483,"Delta":249680405},{"NoteNumber":37,"Velocity":79,"Duration":116731,"SoundDuration":116731,"Delta":249801373},{"NoteNumber":49,"Velocity":94,"Duration":116731,"SoundDuration":116731,"Delta":249801373},{"NoteNumber":99,"Velocity":102,"Duration":89820,"SoundDuration":89820,"Delta":249918104},{"NoteNumber":94,"Velocity":86,"Duration":89820,"SoundDuration":89820,"Delta":249918104},{"NoteNumber":91,"Velocity":86,"Duration":89820,"SoundDuration":89820,"Delta":249918104},{"NoteNumber":87,"Velocity":86,"Duration":89820,"SoundDuration":89820,"Delta":249918104},{"NoteNumber":63,"Velocity":73,"Duration":53956,"SoundDuration":53956,"Delta":250097745},{"NoteNumber":75,"Velocity":71,"Duration":53956,"SoundDuration":53956,"Delta":250205659},{"NoteNumber":63,"Velocity":55,"Duration":53956,"SoundDuration":53956,"Delta":250205659},{"NoteNumber":65,"Velocity":78,"Duration":55970,"SoundDuration":55970,"Delta":250313573},{"NoteNumber":75,"Velocity":78,"Duration":55970,"SoundDuration":55970,"Delta":250425513},{"NoteNumber":63,"Velocity":60,"Duration":55970,"SoundDuration":55970,"Delta":250425513},{"NoteNumber":62,"Velocity":70,"Duration":56818,"SoundDuration":56818,"Delta":250537453},{"NoteNumber":75,"Velocity":73,"Duration":56818,"SoundDuration":56818,"Delta":250651089},{"NoteNumber":63,"Velocity":57,"Duration":56818,"SoundDuration":56818,"Delta":250651089},{"NoteNumber":63,"Velocity":75,"Duration":56818,"SoundDuration":56818,"Delta":250764726},{"NoteNumber":75,"Velocity":68,"Duration":56818,"SoundDuration":56818,"Delta":250878362},{"NoteNumber":63,"Velocity":52,"Duration":56818,"SoundDuration":56818,"Delta":250878362},{"NoteNumber":58,"Velocity":70,"Duration":56818,"SoundDuration":56818,"Delta":250991998},{"NoteNumber":75,"Velocity":63,"Duration":58823,"SoundDuration":58823,"Delta":251105634},{"NoteNumber":63,"Velocity":49,"Duration":58823,"SoundDuration":58823,"Delta":251105634},{"NoteNumber":38,"Velocity":75,"Duration":116731,"SoundDuration":116731,"Delta":251223281},{"NoteNumber":50,"Velocity":89,"Duration":116731,"SoundDuration":116731,"Delta":251223281},{"NoteNumber":98,"Velocity":103,"Duration":88757,"SoundDuration":88757,"Delta":251340013},{"NoteNumber":93,"Velocity":87,"Duration":88757,"SoundDuration":88757,"Delta":251340013},{"NoteNumber":90,"Velocity":87,"Duration":88757,"SoundDuration":88757,"Delta":251340013},{"NoteNumber":86,"Velocity":87,"Duration":88757,"SoundDuration":88757,"Delta":251340013},{"NoteNumber":62,"Velocity":73,"Duration":53956,"SoundDuration":53956,"Delta":251517528},{"NoteNumber":74,"Velocity":71,"Duration":53956,"SoundDuration":53956,"Delta":251625441},{"NoteNumber":62,"Velocity":55,"Duration":53956,"SoundDuration":53956,"Delta":251625441},{"NoteNumber":63,"Velocity":78,"Duration":55762,"SoundDuration":55762,"Delta":251733355},{"NoteNumber":74,"Velocity":75,"Duration":55762,"SoundDuration":55762,"Delta":251844879},{"NoteNumber":62,"Velocity":58,"Duration":55762,"SoundDuration":55762,"Delta":251844879},{"NoteNumber":61,"Velocity":70,"Duration":56818,"SoundDuration":56818,"Delta":251956404},{"NoteNumber":74,"Velocity":73,"Duration":56818,"SoundDuration":56818,"Delta":252070040},{"NoteNumber":62,"Velocity":57,"Duration":56818,"SoundDuration":56818,"Delta":252070040},{"NoteNumber":62,"Velocity":75,"Duration":56818,"SoundDuration":56818,"Delta":252183676},{"NoteNumber":74,"Velocity":68,"Duration":56818,"SoundDuration":56818,"Delta":252297312},{"NoteNumber":62,"Velocity":52,"Duration":56818,"SoundDuration":56818,"Delta":252297312},{"NoteNumber":57,"Velocity":70,"Duration":56818,"SoundDuration":56818,"Delta":252410949},{"NoteNumber":74,"Velocity":63,"Duration":59523,"SoundDuration":59523,"Delta":252524585},{"NoteNumber":62,"Velocity":49,"Duration":59523,"SoundDuration":59523,"Delta":252524585},{"NoteNumber":37,"Velocity":79,"Duration":116731,"SoundDuration":116731,"Delta":252643632},{"NoteNumber":49,"Velocity":94,"Duration":116731,"SoundDuration":116731,"Delta":252643632},{"NoteNumber":99,"Velocity":102,"Duration":87719,"SoundDuration":87719,"Delta":252760364},{"NoteNumber":94,"Velocity":86,"Duration":87719,"SoundDuration":87719,"Delta":252760364},{"NoteNumber":91,"Velocity":86,"Duration":87719,"SoundDuration":87719,"Delta":252760364},{"NoteNumber":87,"Velocity":86,"Duration":87719,"SoundDuration":87719,"Delta":252760364},{"NoteNumber":63,"Velocity":73,"Duration":54347,"SoundDuration":54347,"Delta":252935802},{"NoteNumber":75,"Velocity":71,"Duration":54347,"SoundDuration":54347,"Delta":253044498},{"NoteNumber":63,"Velocity":55,"Duration":54347,"SoundDuration":54347,"Delta":253044498},{"NoteNumber":65,"Velocity":79,"Duration":55970,"SoundDuration":55970,"Delta":253153194},{"NoteNumber":75,"Velocity":75,"Duration":55970,"SoundDuration":55970,"Delta":253265134},{"NoteNumber":63,"Velocity":58,"Duration":55970,"SoundDuration":55970,"Delta":253265134},{"NoteNumber":62,"Velocity":70,"Duration":56818,"SoundDuration":56818,"Delta":253377074},{"NoteNumber":75,"Velocity":73,"Duration":56818,"SoundDuration":56818,"Delta":253490711},{"NoteNumber":63,"Velocity":57,"Duration":56818,"SoundDuration":56818,"Delta":253490711},{"NoteNumber":63,"Velocity":75,"Duration":56818,"SoundDuration":56818,"Delta":253604347},{"NoteNumber":75,"Velocity":68,"Duration":56818,"SoundDuration":56818,"Delta":253717983},{"NoteNumber":63,"Velocity":52,"Duration":56818,"SoundDuration":56818,"Delta":253717983},{"NoteNumber":58,"Velocity":70,"Duration":56818,"SoundDuration":56818,"Delta":253831619},{"NoteNumber":75,"Velocity":63,"Duration":56818,"SoundDuration":56818,"Delta":253945256},{"NoteNumber":63,"Velocity":49,"Duration":56818,"SoundDuration":56818,"Delta":253945256},{"NoteNumber":38,"Velocity":75,"Duration":116731,"SoundDuration":116731,"Delta":254058892},{"NoteNumber":50,"Velocity":89,"Duration":116731,"SoundDuration":116731,"Delta":254058892},{"NoteNumber":98,"Velocity":102,"Duration":90909,"SoundDuration":90909,"Delta":254175623},{"NoteNumber":93,"Velocity":86,"Duration":90909,"SoundDuration":90909,"Delta":254175623},{"NoteNumber":90,"Velocity":86,"Duration":90909,"SoundDuration":90909,"Delta":254175623},{"NoteNumber":86,"Velocity":86,"Duration":90909,"SoundDuration":90909,"Delta":254175623},{"NoteNumber":62,"Velocity":73,"Duration":55147,"SoundDuration":55147,"Delta":254357442},{"NoteNumber":74,"Velocity":71,"Duration":55146,"SoundDuration":55146,"Delta":254467736},{"NoteNumber":62,"Velocity":55,"Duration":55146,"SoundDuration":55146,"Delta":254467736},{"NoteNumber":63,"Velocity":78,"Duration":55762,"SoundDuration":55762,"Delta":254578030},{"NoteNumber":74,"Velocity":75,"Duration":55762,"SoundDuration":55762,"Delta":254689554},{"NoteNumber":62,"Velocity":58,"Duration":55762,"SoundDuration":55762,"Delta":254689554},{"NoteNumber":60,"Velocity":70,"Duration":56818,"SoundDuration":56818,"Delta":254801078},{"NoteNumber":74,"Velocity":73,"Duration":56818,"SoundDuration":56818,"Delta":254914714},{"NoteNumber":62,"Velocity":57,"Duration":56818,"SoundDuration":56818,"Delta":254914714},{"NoteNumber":62,"Velocity":75,"Duration":56818,"SoundDuration":56818,"Delta":255028351},{"NoteNumber":74,"Velocity":68,"Duration":56818,"SoundDuration":56818,"Delta":255141987},{"NoteNumber":62,"Velocity":52,"Duration":56818,"SoundDuration":56818,"Delta":255141987},{"NoteNumber":58,"Velocity":70,"Duration":56818,"SoundDuration":56818,"Delta":255255623},{"NoteNumber":74,"Velocity":63,"Duration":56818,"SoundDuration":56818,"Delta":255369259},{"NoteNumber":62,"Velocity":49,"Duration":56818,"SoundDuration":56818,"Delta":255369259},{"NoteNumber":60,"Velocity":76,"Duration":114503,"SoundDuration":114503,"Delta":255482896},{"NoteNumber":74,"Velocity":68,"Duration":57251,"SoundDuration":57251,"Delta":255597399},{"NoteNumber":62,"Velocity":53,"Duration":57251,"SoundDuration":57251,"Delta":255597399},{"NoteNumber":57,"Velocity":67,"Duration":55147,"SoundDuration":55147,"Delta":255711903},{"NoteNumber":74,"Velocity":65,"Duration":55146,"SoundDuration":55146,"Delta":255822197},{"NoteNumber":62,"Velocity":50,"Duration":55146,"SoundDuration":55146,"Delta":255822197},{"NoteNumber":58,"Velocity":70,"Duration":55762,"SoundDuration":55762,"Delta":255932491},{"NoteNumber":74,"Velocity":66,"Duration":55762,"SoundDuration":55762,"Delta":256044015},{"NoteNumber":62,"Velocity":51,"Duration":55762,"SoundDuration":55762,"Delta":256044015},{"NoteNumber":60,"Velocity":64,"Duration":56818,"SoundDuration":56818,"Delta":256155540},{"NoteNumber":74,"Velocity":63,"Duration":56818,"SoundDuration":56818,"Delta":256269176},{"NoteNumber":62,"Velocity":49,"Duration":56818,"SoundDuration":56818,"Delta":256269176},{"NoteNumber":57,"Velocity":69,"Duration":55350,"SoundDuration":55350,"Delta":256382812},{"NoteNumber":74,"Velocity":65,"Duration":55350,"SoundDuration":55350,"Delta":256493513},{"NoteNumber":62,"Velocity":50,"Duration":55350,"SoundDuration":55350,"Delta":256493513},{"NoteNumber":58,"Velocity":64,"Duration":55970,"SoundDuration":55970,"Delta":256604214},{"NoteNumber":74,"Velocity":58,"Duration":55970,"SoundDuration":55970,"Delta":256716154},{"NoteNumber":62,"Velocity":45,"Duration":55970,"SoundDuration":55970,"Delta":256716154},{"NoteNumber":55,"Velocity":76,"Duration":109890,"SoundDuration":109890,"Delta":256828095},{"NoteNumber":74,"Velocity":68,"Duration":54944,"SoundDuration":54944,"Delta":256937985},{"NoteNumber":62,"Velocity":53,"Duration":54944,"SoundDuration":54944,"Delta":256937985},{"NoteNumber":57,"Velocity":67,"Duration":55970,"SoundDuration":55970,"Delta":257047875},{"NoteNumber":74,"Velocity":63,"Duration":55970,"SoundDuration":55970,"Delta":257159815},{"NoteNumber":62,"Velocity":49,"Duration":55970,"SoundDuration":55970,"Delta":257159815},{"NoteNumber":58,"Velocity":69,"Duration":55146,"SoundDuration":55146,"Delta":257271755},{"NoteNumber":74,"Velocity":63,"Duration":55146,"SoundDuration":55146,"Delta":257382049},{"NoteNumber":62,"Velocity":49,"Duration":55146,"SoundDuration":55146,"Delta":257382049},{"NoteNumber":60,"Velocity":62,"Duration":55970,"SoundDuration":55970,"Delta":257492343},{"NoteNumber":74,"Velocity":62,"Duration":55970,"SoundDuration":55970,"Delta":257604283},{"NoteNumber":62,"Velocity":48,"Duration":55970,"SoundDuration":55970,"Delta":257604283},{"NoteNumber":57,"Velocity":66,"Duration":55146,"SoundDuration":55146,"Delta":257716224},{"NoteNumber":74,"Velocity":62,"Duration":55146,"SoundDuration":55146,"Delta":257826518},{"NoteNumber":62,"Velocity":48,"Duration":55146,"SoundDuration":55146,"Delta":257826518},{"NoteNumber":58,"Velocity":61,"Duration":55350,"SoundDuration":55350,"Delta":257936812},{"NoteNumber":74,"Velocity":55,"Duration":55350,"SoundDuration":55350,"Delta":258047513},{"NoteNumber":62,"Velocity":43,"Duration":55350,"SoundDuration":55350,"Delta":258047513},{"NoteNumber":55,"Velocity":72,"Duration":109488,"SoundDuration":109488,"Delta":258158214},{"NoteNumber":62,"Velocity":49,"Duration":54744,"SoundDuration":54744,"Delta":258267703},{"NoteNumber":74,"Velocity":63,"Duration":54744,"SoundDuration":54744,"Delta":258267703},{"NoteNumber":57,"Velocity":62,"Duration":56179,"SoundDuration":56179,"Delta":258377192},{"NoteNumber":74,"Velocity":59,"Duration":56179,"SoundDuration":56179,"Delta":258489551},{"NoteNumber":62,"Velocity":46,"Duration":56179,"SoundDuration":56179,"Delta":258489551},{"NoteNumber":58,"Velocity":64,"Duration":56391,"SoundDuration":56391,"Delta":258601911},{"NoteNumber":74,"Velocity":59,"Duration":56603,"SoundDuration":56603,"Delta":258714693},{"NoteNumber":62,"Velocity":46,"Duration":56603,"SoundDuration":56603,"Delta":258714693},{"NoteNumber":55,"Velocity":57,"Duration":56890,"SoundDuration":56890,"Delta":258828043},{"NoteNumber":74,"Velocity":55,"Duration":57251,"SoundDuration":57251,"Delta":258941967},{"NoteNumber":62,"Velocity":43,"Duration":57251,"SoundDuration":57251,"Delta":258941967},{"NoteNumber":53,"Velocity":60,"Duration":57544,"SoundDuration":57544,"Delta":259056617},{"NoteNumber":74,"Velocity":57,"Duration":57914,"SoundDuration":57914,"Delta":259171855},{"NoteNumber":62,"Velocity":44,"Duration":57914,"SoundDuration":57914,"Delta":259171855},{"NoteNumber":51,"Velocity":55,"Duration":58214,"SoundDuration":58214,"Delta":259287834},{"NoteNumber":74,"Velocity":49,"Duration":58365,"SoundDuration":58365,"Delta":259404415},{"NoteNumber":62,"Velocity":38,"Duration":58365,"SoundDuration":58365,"Delta":259404415},{"NoteNumber":38,"Velocity":63,"Duration":116731,"SoundDuration":116731,"Delta":259521146},{"NoteNumber":50,"Velocity":74,"Duration":116731,"SoundDuration":116731,"Delta":259521146},{"NoteNumber":74,"Velocity":75,"Duration":58365,"SoundDuration":58365,"Delta":259637878},{"NoteNumber":62,"Velocity":58,"Duration":58365,"SoundDuration":58365,"Delta":259637878},{"NoteNumber":62,"Velocity":56,"Duration":55146,"SoundDuration":55146,"Delta":259754609},{"NoteNumber":62,"Velocity":42,"Duration":55146,"SoundDuration":55146,"Delta":259864903},{"NoteNumber":63,"Velocity":61,"Duration":55762,"SoundDuration":55762,"Delta":259975197},{"NoteNumber":62,"Velocity":46,"Duration":55762,"SoundDuration":55762,"Delta":260086722},{"NoteNumber":60,"Velocity":54,"Duration":56818,"SoundDuration":56818,"Delta":260198246},{"NoteNumber":62,"Velocity":44,"Duration":56818,"SoundDuration":56818,"Delta":260311882},{"NoteNumber":62,"Velocity":58,"Duration":56818,"SoundDuration":56818,"Delta":260425518},{"NoteNumber":62,"Velocity":40,"Duration":56818,"SoundDuration":56818,"Delta":260539155},{"NoteNumber":58,"Velocity":54,"Duration":56818,"SoundDuration":56818,"Delta":260652791},{"NoteNumber":62,"Velocity":38,"Duration":56818,"SoundDuration":56818,"Delta":260766427},{"NoteNumber":60,"Velocity":64,"Duration":114503,"SoundDuration":114503,"Delta":260880063},{"NoteNumber":62,"Velocity":45,"Duration":57251,"SoundDuration":57251,"Delta":260994567},{"NoteNumber":57,"Velocity":56,"Duration":55146,"SoundDuration":55146,"Delta":261109071},{"NoteNumber":62,"Velocity":42,"Duration":55146,"SoundDuration":55146,"Delta":261219365},{"NoteNumber":58,"Velocity":59,"Duration":55762,"SoundDuration":55762,"Delta":261329659},{"NoteNumber":62,"Velocity":43,"Duration":55762,"SoundDuration":55762,"Delta":261441183},{"NoteNumber":60,"Velocity":54,"Duration":56818,"SoundDuration":56818,"Delta":261552707},{"NoteNumber":62,"Velocity":41,"Duration":56818,"SoundDuration":56818,"Delta":261666344},{"NoteNumber":57,"Velocity":58,"Duration":55350,"SoundDuration":55350,"Delta":261779980},{"NoteNumber":62,"Velocity":42,"Duration":55350,"SoundDuration":55350,"Delta":261890681},{"NoteNumber":58,"Velocity":54,"Duration":55970,"SoundDuration":55970,"Delta":262001382},{"NoteNumber":62,"Velocity":38,"Duration":55970,"SoundDuration":55970,"Delta":262113322},{"NoteNumber":55,"Velocity":64,"Duration":109890,"SoundDuration":109890,"Delta":262225262},{"NoteNumber":62,"Velocity":45,"Duration":54944,"SoundDuration":54944,"Delta":262335152},{"NoteNumber":57,"Velocity":56,"Duration":55970,"SoundDuration":55970,"Delta":262445042},{"NoteNumber":62,"Velocity":41,"Duration":55970,"SoundDuration":55970,"Delta":262556983},{"NoteNumber":58,"Velocity":58,"Duration":55146,"SoundDuration":55146,"Delta":262668923},{"NoteNumber":62,"Velocity":41,"Duration":55146,"SoundDuration":55146,"Delta":262779217},{"NoteNumber":60,"Velocity":52,"Duration":55970,"SoundDuration":55970,"Delta":262889511},{"NoteNumber":62,"Velocity":40,"Duration":55970,"SoundDuration":55970,"Delta":263001451},{"NoteNumber":57,"Velocity":56,"Duration":55146,"SoundDuration":55146,"Delta":263113391},{"NoteNumber":62,"Velocity":40,"Duration":55146,"SoundDuration":55146,"Delta":263223685},{"NoteNumber":58,"Velocity":51,"Duration":55350,"SoundDuration":55350,"Delta":263333979},{"NoteNumber":62,"Velocity":36,"Duration":55350,"SoundDuration":55350,"Delta":263444680},{"NoteNumber":55,"Velocity":61,"Duration":109488,"SoundDuration":109488,"Delta":263555381},{"NoteNumber":62,"Velocity":41,"Duration":54744,"SoundDuration":54744,"Delta":263664870},{"NoteNumber":57,"Velocity":52,"Duration":56179,"SoundDuration":56179,"Delta":263774359},{"NoteNumber":62,"Velocity":39,"Duration":56179,"SoundDuration":56179,"Delta":263886719},{"NoteNumber":58,"Velocity":54,"Duration":56461,"SoundDuration":56461,"Delta":263999078},{"NoteNumber":62,"Velocity":39,"Duration":57106,"SoundDuration":57106,"Delta":264112287},{"NoteNumber":55,"Velocity":48,"Duration":57766,"SoundDuration":57766,"Delta":264226792},{"NoteNumber":62,"Velocity":36,"Duration":58441,"SoundDuration":58441,"Delta":264342623},{"NoteNumber":53,"Velocity":51,"Duration":59132,"SoundDuration":59132,"Delta":264459812},{"NoteNumber":62,"Velocity":37,"Duration":59840,"SoundDuration":59840,"Delta":264578390},{"NoteNumber":51,"Velocity":46,"Duration":59941,"SoundDuration":59941,"Delta":264698391},{"NoteNumber":62,"Velocity":32,"Duration":58365,"SoundDuration":58365,"Delta":264816698},{"NoteNumber":38,"Velocity":45,"Duration":1348552,"SoundDuration":1348552,"Delta":264933430},{"NoteNumber":54,"Velocity":36,"Duration":58365,"SoundDuration":58365,"Delta":265050161},{"NoteNumber":57,"Velocity":36,"Duration":58365,"SoundDuration":58365,"Delta":265050161},{"NoteNumber":45,"Velocity":45,"Duration":55555,"SoundDuration":55555,"Delta":265166893},{"NoteNumber":54,"Velocity":31,"Duration":55555,"SoundDuration":55555,"Delta":265278004},{"NoteNumber":57,"Velocity":31,"Duration":55555,"SoundDuration":55555,"Delta":265278004},{"NoteNumber":50,"Velocity":42,"Duration":55762,"SoundDuration":55762,"Delta":265389115},{"NoteNumber":54,"Velocity":34,"Duration":55762,"SoundDuration":55762,"Delta":265500639},{"NoteNumber":57,"Velocity":34,"Duration":55762,"SoundDuration":55762,"Delta":265500639},{"NoteNumber":51,"Velocity":49,"Duration":56818,"SoundDuration":56818,"Delta":265612163},{"NoteNumber":54,"Velocity":33,"Duration":56818,"SoundDuration":56818,"Delta":265725799},{"NoteNumber":57,"Velocity":33,"Duration":56818,"SoundDuration":56818,"Delta":265725799},{"NoteNumber":49,"Velocity":54,"Duration":55489,"SoundDuration":55489,"Delta":265839436},{"NoteNumber":54,"Velocity":35,"Duration":54944,"SoundDuration":54944,"Delta":265949870},{"NoteNumber":57,"Velocity":35,"Duration":54944,"SoundDuration":54944,"Delta":265949870},{"NoteNumber":50,"Velocity":51,"Duration":55555,"SoundDuration":55555,"Delta":266059760},{"NoteNumber":54,"Velocity":34,"Duration":55555,"SoundDuration":55555,"Delta":266170871},{"NoteNumber":57,"Velocity":34,"Duration":55555,"SoundDuration":55555,"Delta":266170871},{"NoteNumber":38,"Velocity":56,"Duration":1373102,"SoundDuration":1373102,"Delta":266281982},{"NoteNumber":55,"Velocity":36,"Duration":56818,"SoundDuration":56818,"Delta":266395619},{"NoteNumber":58,"Velocity":36,"Duration":56818,"SoundDuration":56818,"Delta":266395619},{"NoteNumber":45,"Velocity":49,"Duration":60241,"SoundDuration":60241,"Delta":266509255},{"NoteNumber":55,"Velocity":31,"Duration":60241,"SoundDuration":60241,"Delta":266629737},{"NoteNumber":58,"Velocity":31,"Duration":60241,"SoundDuration":60241,"Delta":266629737},{"NoteNumber":55,"Velocity":56,"Duration":55762,"SoundDuration":55762,"Delta":266750219},{"NoteNumber":55,"Velocity":34,"Duration":55762,"SoundDuration":55762,"Delta":266861743},{"NoteNumber":58,"Velocity":34,"Duration":55762,"SoundDuration":55762,"Delta":266861743},{"NoteNumber":53,"Velocity":46,"Duration":56818,"SoundDuration":56818,"Delta":266973267},{"NoteNumber":55,"Velocity":29,"Duration":56818,"SoundDuration":56818,"Delta":267086904},{"NoteNumber":58,"Velocity":29,"Duration":56818,"SoundDuration":56818,"Delta":267086904},{"NoteNumber":50,"Velocity":49,"Duration":56818,"SoundDuration":56818,"Delta":267200540},{"NoteNumber":55,"Velocity":34,"Duration":56818,"SoundDuration":56818,"Delta":267314176},{"NoteNumber":58,"Velocity":34,"Duration":56818,"SoundDuration":56818,"Delta":267314176},{"NoteNumber":51,"Velocity":46,"Duration":56818,"SoundDuration":56818,"Delta":267427812},{"NoteNumber":55,"Velocity":31,"Duration":56818,"SoundDuration":56818,"Delta":267541449},{"NoteNumber":58,"Velocity":31,"Duration":56818,"SoundDuration":56818,"Delta":267541449},{"NoteNumber":38,"Velocity":45,"Duration":1348840,"SoundDuration":1348840,"Delta":267655085},{"NoteNumber":54,"Velocity":36,"Duration":58365,"SoundDuration":58365,"Delta":267771816},{"NoteNumber":57,"Velocity":36,"Duration":58365,"SoundDuration":58365,"Delta":267771816},{"NoteNumber":45,"Velocity":45,"Duration":55146,"SoundDuration":55146,"Delta":267888548},{"NoteNumber":54,"Velocity":31,"Duration":55146,"SoundDuration":55146,"Delta":267998842},{"NoteNumber":57,"Velocity":31,"Duration":55146,"SoundDuration":55146,"Delta":267998842},{"NoteNumber":50,"Velocity":42,"Duration":55762,"SoundDuration":55762,"Delta":268109136},{"NoteNumber":54,"Velocity":34,"Duration":55762,"SoundDuration":55762,"Delta":268220660},{"NoteNumber":57,"Velocity":34,"Duration":55762,"SoundDuration":55762,"Delta":268220660},{"NoteNumber":51,"Velocity":47,"Duration":56818,"SoundDuration":56818,"Delta":268332184},{"NoteNumber":54,"Velocity":33,"Duration":56818,"SoundDuration":56818,"Delta":268445821},{"NoteNumber":57,"Velocity":33,"Duration":56818,"SoundDuration":56818,"Delta":268445821},{"NoteNumber":49,"Velocity":52,"Duration":55146,"SoundDuration":55146,"Delta":268559457},{"NoteNumber":54,"Velocity":35,"Duration":55146,"SoundDuration":55146,"Delta":268669751},{"NoteNumber":57,"Velocity":35,"Duration":55146,"SoundDuration":55146,"Delta":268669751},{"NoteNumber":50,"Velocity":49,"Duration":55970,"SoundDuration":55970,"Delta":268780045},{"NoteNumber":54,"Velocity":34,"Duration":55970,"SoundDuration":55970,"Delta":268891985},{"NoteNumber":57,"Velocity":34,"Duration":55970,"SoundDuration":55970,"Delta":268891985},{"NoteNumber":38,"Velocity":54,"Duration":1345936,"SoundDuration":1345936,"Delta":269003925},{"NoteNumber":55,"Velocity":36,"Duration":56603,"SoundDuration":56603,"Delta":269117133},{"NoteNumber":58,"Velocity":36,"Duration":56603,"SoundDuration":56603,"Delta":269117133},{"NoteNumber":45,"Velocity":46,"Duration":55146,"SoundDuration":55146,"Delta":269230340},{"NoteNumber":55,"Velocity":31,"Duration":55146,"SoundDuration":55146,"Delta":269340634},{"NoteNumber":58,"Velocity":31,"Duration":55146,"SoundDuration":55146,"Delta":269340634},{"NoteNumber":51,"Velocity":48,"Duration":55762,"SoundDuration":55762,"Delta":269450928},{"NoteNumber":55,"Velocity":34,"Duration":55762,"SoundDuration":55762,"Delta":269562453},{"NoteNumber":58,"Velocity":34,"Duration":55762,"SoundDuration":55762,"Delta":269562453},{"NoteNumber":53,"Velocity":45,"Duration":56818,"SoundDuration":56818,"Delta":269673977},{"NoteNumber":55,"Velocity":29,"Duration":56818,"SoundDuration":56818,"Delta":269787613},{"NoteNumber":58,"Velocity":29,"Duration":56818,"SoundDuration":56818,"Delta":269787613},{"NoteNumber":50,"Velocity":47,"Duration":55762,"SoundDuration":55762,"Delta":269901249},{"NoteNumber":55,"Velocity":34,"Duration":55762,"SoundDuration":55762,"Delta":270012774},{"NoteNumber":58,"Velocity":34,"Duration":55762,"SoundDuration":55762,"Delta":270012774},{"NoteNumber":51,"Velocity":44,"Duration":56391,"SoundDuration":56391,"Delta":270124298},{"NoteNumber":55,"Velocity":31,"Duration":56391,"SoundDuration":56391,"Delta":270237080},{"NoteNumber":58,"Velocity":31,"Duration":56391,"SoundDuration":56391,"Delta":270237080},{"NoteNumber":38,"Velocity":45,"Duration":2705774,"SoundDuration":2705774,"Delta":270349862},{"NoteNumber":54,"Velocity":36,"Duration":58365,"SoundDuration":58365,"Delta":270466593},{"NoteNumber":57,"Velocity":36,"Duration":58365,"SoundDuration":58365,"Delta":270466593},{"NoteNumber":45,"Velocity":45,"Duration":55146,"SoundDuration":55146,"Delta":270583325},{"NoteNumber":54,"Velocity":31,"Duration":55146,"SoundDuration":55146,"Delta":270693619},{"NoteNumber":57,"Velocity":31,"Duration":55146,"SoundDuration":55146,"Delta":270693619},{"NoteNumber":50,"Velocity":42,"Duration":55762,"SoundDuration":55762,"Delta":270803913},{"NoteNumber":54,"Velocity":34,"Duration":55762,"SoundDuration":55762,"Delta":270915437},{"NoteNumber":57,"Velocity":34,"Duration":55762,"SoundDuration":55762,"Delta":270915437},{"NoteNumber":51,"Velocity":47,"Duration":56818,"SoundDuration":56818,"Delta":271026961},{"NoteNumber":54,"Velocity":33,"Duration":56818,"SoundDuration":56818,"Delta":271140598},{"NoteNumber":57,"Velocity":33,"Duration":56818,"SoundDuration":56818,"Delta":271140598},{"NoteNumber":49,"Velocity":51,"Duration":55555,"SoundDuration":55555,"Delta":271254234},{"NoteNumber":54,"Velocity":35,"Duration":55555,"SoundDuration":55555,"Delta":271365345},{"NoteNumber":57,"Velocity":35,"Duration":55555,"SoundDuration":55555,"Delta":271365345},{"NoteNumber":51,"Velocity":48,"Duration":56179,"SoundDuration":56179,"Delta":271476456},{"NoteNumber":54,"Velocity":34,"Duration":56179,"SoundDuration":56179,"Delta":271588815},{"NoteNumber":57,"Velocity":34,"Duration":56179,"SoundDuration":56179,"Delta":271588815},{"NoteNumber":50,"Velocity":53,"Duration":57251,"SoundDuration":57251,"Delta":271701175},{"NoteNumber":54,"Velocity":36,"Duration":57251,"SoundDuration":57251,"Delta":271815679},{"NoteNumber":57,"Velocity":36,"Duration":57251,"SoundDuration":57251,"Delta":271815679},{"NoteNumber":51,"Velocity":46,"Duration":55146,"SoundDuration":55146,"Delta":271930182},{"NoteNumber":54,"Velocity":31,"Duration":55146,"SoundDuration":55146,"Delta":272040476},{"NoteNumber":57,"Velocity":31,"Duration":55146,"SoundDuration":55146,"Delta":272040476},{"NoteNumber":49,"Velocity":48,"Duration":55762,"SoundDuration":55762,"Delta":272150770},{"NoteNumber":54,"Velocity":34,"Duration":55762,"SoundDuration":55762,"Delta":272262295},{"NoteNumber":57,"Velocity":34,"Duration":55762,"SoundDuration":55762,"Delta":272262295},{"NoteNumber":51,"Velocity":45,"Duration":56818,"SoundDuration":56818,"Delta":272373819},{"NoteNumber":54,"Velocity":29,"Duration":56818,"SoundDuration":56818,"Delta":272487455},{"NoteNumber":57,"Velocity":29,"Duration":56818,"SoundDuration":56818,"Delta":272487455},{"NoteNumber":50,"Velocity":45,"Duration":56818,"SoundDuration":56818,"Delta":272601091},{"NoteNumber":54,"Velocity":34,"Duration":56818,"SoundDuration":56818,"Delta":272714728},{"NoteNumber":57,"Velocity":34,"Duration":56818,"SoundDuration":56818,"Delta":272714728},{"NoteNumber":45,"Velocity":44,"Duration":56818,"SoundDuration":56818,"Delta":272828364},{"NoteNumber":54,"Velocity":31,"Duration":56818,"SoundDuration":56818,"Delta":272942000},{"NoteNumber":57,"Velocity":31,"Duration":56818,"SoundDuration":56818,"Delta":272942000},{"NoteNumber":38,"Velocity":45,"Duration":56818,"SoundDuration":56818,"Delta":273055636},{"NoteNumber":54,"Velocity":43,"Duration":56818,"SoundDuration":56818,"Delta":273169273},{"NoteNumber":54,"Velocity":45,"Duration":56818,"SoundDuration":56818,"Delta":273282909},{"NoteNumber":57,"Velocity":43,"Duration":56818,"SoundDuration":56818,"Delta":273396545},{"NoteNumber":57,"Velocity":45,"Duration":56818,"SoundDuration":56818,"Delta":273510181},{"NoteNumber":62,"Velocity":42,"Duration":56818,"SoundDuration":56818,"Delta":273623818},{"NoteNumber":62,"Velocity":45,"Duration":56818,"SoundDuration":56818,"Delta":273737454},{"NoteNumber":66,"Velocity":42,"Duration":56818,"SoundDuration":56818,"Delta":273851090},{"NoteNumber":66,"Velocity":44,"Duration":56818,"SoundDuration":56818,"Delta":273964726},{"NoteNumber":69,"Velocity":41,"Duration":56818,"SoundDuration":56818,"Delta":274078363},{"NoteNumber":69,"Velocity":43,"Duration":56818,"SoundDuration":56818,"Delta":274191999},{"NoteNumber":74,"Velocity":41,"Duration":56818,"SoundDuration":56818,"Delta":274305635},{"NoteNumber":74,"Velocity":43,"Duration":56818,"SoundDuration":56818,"Delta":274419271},{"NoteNumber":78,"Velocity":40,"Duration":57034,"SoundDuration":57034,"Delta":274532908},{"NoteNumber":78,"Velocity":42,"Duration":57251,"SoundDuration":57251,"Delta":274646976},{"NoteNumber":81,"Velocity":40,"Duration":57471,"SoundDuration":57471,"Delta":274761626},{"NoteNumber":81,"Velocity":42,"Duration":57766,"SoundDuration":57766,"Delta":274876716},{"NoteNumber":86,"Velocity":39,"Duration":57989,"SoundDuration":57989,"Delta":274992397},{"NoteNumber":86,"Velocity":41,"Duration":58365,"SoundDuration":58365,"Delta":275108527},{"NoteNumber":90,"Velocity":39,"Duration":58593,"SoundDuration":58593,"Delta":275225258},{"NoteNumber":90,"Velocity":41,"Duration":58900,"SoundDuration":58900,"Delta":275342599},{"NoteNumber":93,"Velocity":39,"Duration":59523,"SoundDuration":59523,"Delta":275460710},{"NoteNumber":93,"Velocity":40,"Duration":60080,"SoundDuration":60080,"Delta":275579916},{"NoteNumber":98,"Velocity":39,"Duration":65502,"SoundDuration":65502,"Delta":275700399},{"NoteNumber":86,"Velocity":43,"Duration":2096068,"SoundDuration":2096068,"Delta":275831404},{"NoteNumber":90,"Velocity":43,"Duration":2096068,"SoundDuration":2096068,"Delta":275831404},{"NoteNumber":98,"Velocity":43,"Duration":2096068,"SoundDuration":2096068,"Delta":275831404},{"NoteNumber":81,"Velocity":34,"Duration":2096068,"SoundDuration":2096068,"Delta":275831404},{"NoteNumber":74,"Velocity":34,"Duration":2096068,"SoundDuration":2096068,"Delta":275831404},{"NoteNumber":62,"Velocity":45,"Duration":543773,"SoundDuration":543773,"Delta":278451489},{"NoteNumber":55,"Velocity":44,"Duration":1063829,"SoundDuration":1063829,"Delta":278995263},{"NoteNumber":58,"Velocity":44,"Duration":1063829,"SoundDuration":1063829,"Delta":278995263},{"NoteNumber":67,"Velocity":49,"Duration":1598066,"SoundDuration":1598066,"Delta":278995263},{"NoteNumber":51,"Velocity":39,"Duration":1598066,"SoundDuration":1598066,"Delta":278995263},{"NoteNumber":60,"Velocity":39,"Duration":534236,"SoundDuration":534236,"Delta":280059093},{"NoteNumber":62,"Velocity":44,"Duration":1602708,"SoundDuration":1602708,"Delta":280593329},{"NoteNumber":58,"Velocity":38,"Duration":1602708,"SoundDuration":1602708,"Delta":280593329},{"NoteNumber":46,"Velocity":32,"Duration":1602708,"SoundDuration":1602708,"Delta":280593329},{"NoteNumber":53,"Velocity":36,"Duration":1602708,"SoundDuration":1602708,"Delta":280593329},{"NoteNumber":55,"Velocity":44,"Duration":1063829,"SoundDuration":1063829,"Delta":282196037},{"NoteNumber":63,"Velocity":52,"Duration":1630402,"SoundDuration":1630402,"Delta":282196037},{"NoteNumber":48,"Velocity":39,"Duration":1630402,"SoundDuration":1630402,"Delta":282196037},{"NoteNumber":57,"Velocity":43,"Duration":566572,"SoundDuration":566572,"Delta":283259867},{"NoteNumber":58,"Velocity":44,"Duration":1699715,"SoundDuration":1699715,"Delta":283826439},{"NoteNumber":55,"Velocity":41,"Duration":1699715,"SoundDuration":1699715,"Delta":283826439},{"NoteNumber":43,"Velocity":32,"Duration":1699715,"SoundDuration":1699715,"Delta":283826439},{"NoteNumber":50,"Velocity":36,"Duration":1699715,"SoundDuration":1699715,"Delta":283826439},{"NoteNumber":63,"Velocity":44,"Duration":1034482,"SoundDuration":1034482,"Delta":285526155},{"NoteNumber":68,"Velocity":49,"Duration":1580731,"SoundDuration":1580731,"Delta":285526155},{"NoteNumber":60,"Velocity":39,"Duration":1034482,"SoundDuration":1034482,"Delta":285526155},{"NoteNumber":64,"Velocity":46,"Duration":546248,"SoundDuration":546248,"Delta":286560637},{"NoteNumber":61,"Velocity":36,"Duration":546248,"SoundDuration":546248,"Delta":286560637},{"NoteNumber":63,"Velocity":44,"Duration":1596737,"SoundDuration":1596737,"Delta":287106886},{"NoteNumber":68,"Velocity":49,"Duration":1045569,"SoundDuration":1045569,"Delta":287106886},{"NoteNumber":60,"Velocity":39,"Duration":1596737,"SoundDuration":1596737,"Delta":287106886},{"NoteNumber":67,"Velocity":43,"Duration":551167,"SoundDuration":551167,"Delta":288152456},{"NoteNumber":63,"Velocity":49,"Duration":2156366,"SoundDuration":2156366,"Delta":288703623},{"NoteNumber":67,"Velocity":49,"Duration":1602708,"SoundDuration":1602708,"Delta":288703623},{"NoteNumber":50,"Velocity":32,"Duration":3347013,"SoundDuration":3347013,"Delta":288703623},{"NoteNumber":60,"Velocity":39,"Duration":2156366,"SoundDuration":2156366,"Delta":288703623},{"NoteNumber":66,"Velocity":39,"Duration":1744304,"SoundDuration":1744304,"Delta":290306331},{"NoteNumber":62,"Velocity":35,"Duration":569206,"SoundDuration":569206,"Delta":290859990},{"NoteNumber":58,"Velocity":30,"Duration":569206,"SoundDuration":569206,"Delta":290859990},{"NoteNumber":60,"Velocity":30,"Duration":621440,"SoundDuration":621440,"Delta":291429196},{"NoteNumber":57,"Velocity":26,"Duration":621440,"SoundDuration":621440,"Delta":291429196},{"NoteNumber":55,"Velocity":59,"Duration":118577,"SoundDuration":118577,"Delta":292050636},{"NoteNumber":62,"Velocity":31,"Duration":59288,"SoundDuration":59288,"Delta":292169213},{"NoteNumber":62,"Velocity":47,"Duration":56391,"SoundDuration":56391,"Delta":292287790},{"NoteNumber":62,"Velocity":35,"Duration":56391,"SoundDuration":56391,"Delta":292400572},{"NoteNumber":63,"Velocity":53,"Duration":57914,"SoundDuration":57914,"Delta":292513354},{"NoteNumber":62,"Velocity":39,"Duration":57914,"SoundDuration":57914,"Delta":292629184},{"NoteNumber":60,"Velocity":45,"Duration":58823,"SoundDuration":58823,"Delta":292745014},{"NoteNumber":62,"Velocity":37,"Duration":58823,"SoundDuration":58823,"Delta":292862661},{"NoteNumber":62,"Velocity":49,"Duration":58823,"SoundDuration":58823,"Delta":292980308},{"NoteNumber":62,"Velocity":34,"Duration":58823,"SoundDuration":58823,"Delta":293097955},{"NoteNumber":58,"Velocity":45,"Duration":58823,"SoundDuration":58823,"Delta":293215602},{"NoteNumber":62,"Velocity":32,"Duration":58823,"SoundDuration":58823,"Delta":293333249},{"NoteNumber":55,"Velocity":62,"Duration":119522,"SoundDuration":119522,"Delta":293450896},{"NoteNumber":62,"Velocity":31,"Duration":59760,"SoundDuration":59760,"Delta":293570418},{"NoteNumber":62,"Velocity":47,"Duration":56391,"SoundDuration":56391,"Delta":293689940},{"NoteNumber":62,"Velocity":35,"Duration":56391,"SoundDuration":56391,"Delta":293802722},{"NoteNumber":63,"Velocity":53,"Duration":57471,"SoundDuration":57471,"Delta":293915504},{"NoteNumber":62,"Velocity":39,"Duration":57471,"SoundDuration":57471,"Delta":294030446},{"NoteNumber":60,"Velocity":45,"Duration":58593,"SoundDuration":58593,"Delta":294145389},{"NoteNumber":62,"Velocity":37,"Duration":58593,"SoundDuration":58593,"Delta":294262576},{"NoteNumber":62,"Velocity":49,"Duration":58593,"SoundDuration":58593,"Delta":294379764},{"NoteNumber":62,"Velocity":34,"Duration":58593,"SoundDuration":58593,"Delta":294496951},{"NoteNumber":58,"Velocity":45,"Duration":58593,"SoundDuration":58593,"Delta":294614139},{"NoteNumber":62,"Velocity":32,"Duration":58593,"SoundDuration":58593,"Delta":294731326},{"NoteNumber":55,"Velocity":56,"Duration":123966,"SoundDuration":123966,"Delta":294848514},{"NoteNumber":67,"Velocity":29,"Duration":61983,"SoundDuration":61983,"Delta":294972481},{"NoteNumber":62,"Velocity":29,"Duration":61983,"SoundDuration":61983,"Delta":294972481},{"NoteNumber":70,"Velocity":42,"Duration":60483,"SoundDuration":60483,"Delta":295096448},{"NoteNumber":63,"Velocity":47,"Duration":60483,"SoundDuration":60483,"Delta":295096448},{"NoteNumber":67,"Velocity":29,"Duration":60483,"SoundDuration":60483,"Delta":295217415},{"NoteNumber":62,"Velocity":29,"Duration":60483,"SoundDuration":60483,"Delta":295217415},{"NoteNumber":70,"Velocity":46,"Duration":59523,"SoundDuration":59523,"Delta":295338383},{"NoteNumber":61,"Velocity":52,"Duration":59523,"SoundDuration":59523,"Delta":295338383},{"NoteNumber":67,"Velocity":31,"Duration":59288,"SoundDuration":59288,"Delta":295457431},{"NoteNumber":62,"Velocity":31,"Duration":59288,"SoundDuration":59288,"Delta":295457431},{"NoteNumber":70,"Velocity":43,"Duration":59055,"SoundDuration":59055,"Delta":295576008},{"NoteNumber":63,"Velocity":48,"Duration":59055,"SoundDuration":59055,"Delta":295576008},{"NoteNumber":67,"Velocity":33,"Duration":58823,"SoundDuration":58823,"Delta":295693963},{"NoteNumber":62,"Velocity":33,"Duration":58823,"SoundDuration":58823,"Delta":295693963},{"NoteNumber":70,"Velocity":55,"Duration":58517,"SoundDuration":58517,"Delta":295811457},{"NoteNumber":61,"Velocity":61,"Duration":58517,"SoundDuration":58517,"Delta":295811457},{"NoteNumber":67,"Velocity":37,"Duration":58290,"SoundDuration":58290,"Delta":295928341},{"NoteNumber":62,"Velocity":37,"Duration":58290,"SoundDuration":58290,"Delta":295928341},{"NoteNumber":70,"Velocity":53,"Duration":57914,"SoundDuration":57914,"Delta":296044771},{"NoteNumber":63,"Velocity":59,"Duration":57914,"SoundDuration":57914,"Delta":296044771},{"NoteNumber":67,"Velocity":41,"Duration":57692,"SoundDuration":57692,"Delta":296160601},{"NoteNumber":62,"Velocity":41,"Duration":57692,"SoundDuration":57692,"Delta":296160601},{"NoteNumber":70,"Velocity":64,"Duration":119047,"SoundDuration":119047,"Delta":296275838},{"NoteNumber":61,"Velocity":71,"Duration":119047,"SoundDuration":119047,"Delta":296275838},{"NoteNumber":67,"Velocity":44,"Duration":59523,"SoundDuration":59523,"Delta":296394885},{"NoteNumber":62,"Velocity":44,"Duration":59523,"SoundDuration":59523,"Delta":296394885},{"NoteNumber":70,"Velocity":58,"Duration":57471,"SoundDuration":57471,"Delta":296513933},{"NoteNumber":63,"Velocity":66,"Duration":57471,"SoundDuration":57471,"Delta":296513933},{"NoteNumber":67,"Velocity":48,"Duration":57914,"SoundDuration":57914,"Delta":296629023},{"NoteNumber":62,"Velocity":48,"Duration":57914,"SoundDuration":57914,"Delta":296629023},{"NoteNumber":70,"Velocity":63,"Duration":58365,"SoundDuration":58365,"Delta":296745002},{"NoteNumber":61,"Velocity":75,"Duration":58365,"SoundDuration":58365,"Delta":296745002},{"NoteNumber":67,"Velocity":54,"Duration":58823,"SoundDuration":58823,"Delta":296861886},{"NoteNumber":62,"Velocity":54,"Duration":58823,"SoundDuration":58823,"Delta":296861886},{"NoteNumber":70,"Velocity":59,"Duration":59288,"SoundDuration":59288,"Delta":296979687},{"NoteNumber":63,"Velocity":73,"Duration":59288,"SoundDuration":59288,"Delta":296979687},{"NoteNumber":67,"Velocity":57,"Duration":59840,"SoundDuration":59840,"Delta":297098421},{"NoteNumber":62,"Velocity":57,"Duration":59840,"SoundDuration":59840,"Delta":297098421},{"NoteNumber":70,"Velocity":67,"Duration":60321,"SoundDuration":60321,"Delta":297218262},{"NoteNumber":61,"Velocity":80,"Duration":60321,"SoundDuration":60321,"Delta":297218262},{"NoteNumber":67,"Velocity":63,"Duration":60811,"SoundDuration":60811,"Delta":297339067},{"NoteNumber":62,"Velocity":63,"Duration":60811,"SoundDuration":60811,"Delta":297339067},{"NoteNumber":70,"Velocity":63,"Duration":61308,"SoundDuration":61308,"Delta":297460854},{"NoteNumber":63,"Velocity":78,"Duration":61308,"SoundDuration":61308,"Delta":297460854},{"NoteNumber":67,"Velocity":66,"Duration":61813,"SoundDuration":61813,"Delta":297583638},{"NoteNumber":62,"Velocity":66,"Duration":61813,"SoundDuration":61813,"Delta":297583638},{"NoteNumber":91,"Velocity":103,"Duration":1493775,"SoundDuration":1493775,"Delta":297707606},{"NoteNumber":86,"Velocity":86,"Duration":1493775,"SoundDuration":1493775,"Delta":297707606},{"NoteNumber":79,"Velocity":86,"Duration":1493775,"SoundDuration":1493775,"Delta":297707606},{"NoteNumber":43,"Velocity":69,"Duration":1493775,"SoundDuration":1493775,"Delta":297707606},{"NoteNumber":50,"Velocity":69,"Duration":1493775,"SoundDuration":1493775,"Delta":297707606},{"NoteNumber":58,"Velocity":82,"Duration":1493775,"SoundDuration":1493775,"Delta":297707606},{"NoteNumber":55,"Velocity":94,"Duration":2316106,"SoundDuration":2316106,"Delta":299201381},{"NoteNumber":31,"Velocity":78,"Duration":2316106,"SoundDuration":2316106,"Delta":299201381}],"license":{"name":"Creative Commons Attribution-ShareAlike 3.0 Germany","url":"http://creativecommons.org/licenses/by-sa/3.0/de/deed.en","text":"The MIDI, audio (MP3, OGG) and video files of Bernd Krueger are licensed under the cc-by-sa Germany License. This means that you can use and adapt the files, as long as you attribute the copyright holder.\n\nName: Bernd Krueger\nSource: http://www.piano-midi.de\n\nThe distribution or public playback of the files is only allowed under identical license conditions.\n\nThe scores are open source.","attribution":"MIDI files by Bernd Krueger (piano-midi.de)","attributionUrl":"http://www.piano-midi.de"}}