{"title":"Castilla","artist":"Albéniz","durationMs":151452,"midiSha256":"56290e5d1d3e79b67d1902b0f95d88a96886a218121a8c046df549cf3bc2d5ad","midiObject":[{"NoteNumber":61,"Velocity":75,"Duration":89418,"SoundDuration":89418,"Delta":0},{"NoteNumber":71,"Velocity":42,"Duration":89418,"SoundDuration":89418,"Delta":178837},{"NoteNumber":68,"Velocity":42,"Duration":89418,"SoundDuration":89418,"Delta":178837},{"NoteNumber":75,"Velocity":51,"Duration":89418,"SoundDuration":89418,"Delta":178837},{"NoteNumber":66,"Velocity":51,"Duration":89418,"SoundDuration":89418,"Delta":268256},{"NoteNumber":68,"Velocity":72,"Duration":88727,"SoundDuration":88727,"Delta":357675},{"NoteNumber":75,"Velocity":51,"Duration":88825,"SoundDuration":88825,"Delta":535228},{"NoteNumber":71,"Velocity":42,"Duration":88825,"SoundDuration":88825,"Delta":535228},{"NoteNumber":68,"Velocity":42,"Duration":88825,"SoundDuration":88825,"Delta":535228},{"NoteNumber":66,"Velocity":51,"Duration":88825,"SoundDuration":88825,"Delta":624054},{"NoteNumber":73,"Velocity":72,"Duration":90318,"SoundDuration":90318,"Delta":712880},{"NoteNumber":75,"Velocity":51,"Duration":90317,"SoundDuration":90317,"Delta":893516},{"NoteNumber":68,"Velocity":42,"Duration":90317,"SoundDuration":90317,"Delta":893516},{"NoteNumber":71,"Velocity":42,"Duration":90317,"SoundDuration":90317,"Delta":893516},{"NoteNumber":66,"Velocity":51,"Duration":90318,"SoundDuration":90318,"Delta":983834},{"NoteNumber":80,"Velocity":72,"Duration":88827,"SoundDuration":88827,"Delta":1074152},{"NoteNumber":68,"Velocity":44,"Duration":88532,"SoundDuration":88532,"Delta":1251512},{"NoteNumber":71,"Velocity":44,"Duration":88532,"SoundDuration":88532,"Delta":1251512},{"NoteNumber":75,"Velocity":52,"Duration":88532,"SoundDuration":88532,"Delta":1251512},{"NoteNumber":66,"Velocity":52,"Duration":88532,"SoundDuration":88532,"Delta":1340044},{"NoteNumber":73,"Velocity":71,"Duration":89712,"SoundDuration":89712,"Delta":1428576},{"NoteNumber":68,"Velocity":44,"Duration":89712,"SoundDuration":89712,"Delta":1608002},{"NoteNumber":75,"Velocity":52,"Duration":89712,"SoundDuration":89712,"Delta":1608002},{"NoteNumber":71,"Velocity":44,"Duration":89712,"SoundDuration":89712,"Delta":1608002},{"NoteNumber":66,"Velocity":52,"Duration":89712,"SoundDuration":89712,"Delta":1697715},{"NoteNumber":68,"Velocity":71,"Duration":90623,"SoundDuration":90623,"Delta":1787428},{"NoteNumber":68,"Velocity":44,"Duration":90623,"SoundDuration":90623,"Delta":1968675},{"NoteNumber":71,"Velocity":44,"Duration":90623,"SoundDuration":90623,"Delta":1968675},{"NoteNumber":75,"Velocity":52,"Duration":90623,"SoundDuration":90623,"Delta":1968675},{"NoteNumber":66,"Velocity":52,"Duration":90623,"SoundDuration":90623,"Delta":2059299},{"NoteNumber":61,"Velocity":75,"Duration":89116,"SoundDuration":89116,"Delta":2149922},{"NoteNumber":77,"Velocity":42,"Duration":89116,"SoundDuration":89116,"Delta":2328154},{"NoteNumber":83,"Velocity":42,"Duration":89116,"SoundDuration":89116,"Delta":2328154},{"NoteNumber":87,"Velocity":51,"Duration":89116,"SoundDuration":89116,"Delta":2328154},{"NoteNumber":85,"Velocity":51,"Duration":89115,"SoundDuration":89115,"Delta":2417270},{"NoteNumber":71,"Velocity":45,"Duration":89713,"SoundDuration":89713,"Delta":2506386},{"NoteNumber":77,"Velocity":64,"Duration":89713,"SoundDuration":89713,"Delta":2506386},{"NoteNumber":68,"Velocity":45,"Duration":89713,"SoundDuration":89713,"Delta":2506386},{"NoteNumber":87,"Velocity":51,"Duration":89713,"SoundDuration":89713,"Delta":2685812},{"NoteNumber":83,"Velocity":42,"Duration":89713,"SoundDuration":89713,"Delta":2685812},{"NoteNumber":77,"Velocity":42,"Duration":89713,"SoundDuration":89713,"Delta":2685812},{"NoteNumber":85,"Velocity":51,"Duration":89713,"SoundDuration":89713,"Delta":2775525},{"NoteNumber":61,"Velocity":72,"Duration":90623,"SoundDuration":90623,"Delta":2865238},{"NoteNumber":87,"Velocity":51,"Duration":90623,"SoundDuration":90623,"Delta":3046485},{"NoteNumber":83,"Velocity":42,"Duration":90623,"SoundDuration":90623,"Delta":3046485},{"NoteNumber":77,"Velocity":42,"Duration":90623,"SoundDuration":90623,"Delta":3046485},{"NoteNumber":85,"Velocity":51,"Duration":90623,"SoundDuration":90623,"Delta":3137109},{"NoteNumber":71,"Velocity":45,"Duration":90645,"SoundDuration":90645,"Delta":3227732},{"NoteNumber":77,"Velocity":68,"Duration":90645,"SoundDuration":90645,"Delta":3227732},{"NoteNumber":68,"Velocity":45,"Duration":90645,"SoundDuration":90645,"Delta":3227732},{"NoteNumber":83,"Velocity":44,"Duration":90645,"SoundDuration":90645,"Delta":3409023},{"NoteNumber":77,"Velocity":44,"Duration":90645,"SoundDuration":90645,"Delta":3409023},{"NoteNumber":87,"Velocity":52,"Duration":90645,"SoundDuration":90645,"Delta":3409023},{"NoteNumber":85,"Velocity":52,"Duration":90645,"SoundDuration":90645,"Delta":3499669},{"NoteNumber":61,"Velocity":74,"Duration":92109,"SoundDuration":92109,"Delta":3590314},{"NoteNumber":87,"Velocity":52,"Duration":92109,"SoundDuration":92109,"Delta":3774533},{"NoteNumber":83,"Velocity":44,"Duration":92109,"SoundDuration":92109,"Delta":3774533},{"NoteNumber":77,"Velocity":44,"Duration":92109,"SoundDuration":92109,"Delta":3774533},{"NoteNumber":85,"Velocity":52,"Duration":92109,"SoundDuration":92109,"Delta":3866642},{"NoteNumber":71,"Velocity":45,"Duration":94244,"SoundDuration":94244,"Delta":3958751},{"NoteNumber":77,"Velocity":67,"Duration":94244,"SoundDuration":94244,"Delta":3958751},{"NoteNumber":68,"Velocity":45,"Duration":94244,"SoundDuration":94244,"Delta":3958751},{"NoteNumber":87,"Velocity":52,"Duration":94244,"SoundDuration":94244,"Delta":4147241},{"NoteNumber":77,"Velocity":44,"Duration":94244,"SoundDuration":94244,"Delta":4147241},{"NoteNumber":83,"Velocity":44,"Duration":94244,"SoundDuration":94244,"Delta":4147241},{"NoteNumber":85,"Velocity":52,"Duration":94244,"SoundDuration":94244,"Delta":4241485},{"NoteNumber":54,"Velocity":51,"Duration":83565,"SoundDuration":83565,"Delta":4335730},{"NoteNumber":63,"Velocity":35,"Duration":90623,"SoundDuration":90623,"Delta":4502861},{"NoteNumber":66,"Velocity":35,"Duration":90623,"SoundDuration":90623,"Delta":4502861},{"NoteNumber":70,"Velocity":35,"Duration":90623,"SoundDuration":90623,"Delta":4502861},{"NoteNumber":61,"Velocity":35,"Duration":89113,"SoundDuration":89113,"Delta":4593485},{"NoteNumber":61,"Velocity":49,"Duration":42608,"SoundDuration":42608,"Delta":4684108},{"NoteNumber":61,"Velocity":35,"Duration":45177,"SoundDuration":45177,"Delta":4854543},{"NoteNumber":70,"Velocity":35,"Duration":45177,"SoundDuration":45177,"Delta":4854543},{"NoteNumber":66,"Velocity":35,"Duration":45177,"SoundDuration":45177,"Delta":4854543},{"NoteNumber":49,"Velocity":49,"Duration":45177,"SoundDuration":45177,"Delta":5035255},{"NoteNumber":70,"Velocity":35,"Duration":45933,"SoundDuration":45933,"Delta":5215967},{"NoteNumber":66,"Velocity":35,"Duration":45933,"SoundDuration":45933,"Delta":5215967},{"NoteNumber":61,"Velocity":35,"Duration":45933,"SoundDuration":45933,"Delta":5215967},{"NoteNumber":54,"Velocity":51,"Duration":82034,"SoundDuration":82034,"Delta":5399701},{"NoteNumber":70,"Velocity":35,"Duration":90623,"SoundDuration":90623,"Delta":5563770},{"NoteNumber":66,"Velocity":35,"Duration":90623,"SoundDuration":90623,"Delta":5563770},{"NoteNumber":63,"Velocity":35,"Duration":90623,"SoundDuration":90623,"Delta":5563770},{"NoteNumber":61,"Velocity":35,"Duration":89113,"SoundDuration":89113,"Delta":5654393},{"NoteNumber":61,"Velocity":49,"Duration":42608,"SoundDuration":42608,"Delta":5745017},{"NoteNumber":70,"Velocity":35,"Duration":45177,"SoundDuration":45177,"Delta":5915452},{"NoteNumber":61,"Velocity":35,"Duration":45177,"SoundDuration":45177,"Delta":5915452},{"NoteNumber":66,"Velocity":35,"Duration":45177,"SoundDuration":45177,"Delta":5915452},{"NoteNumber":49,"Velocity":49,"Duration":45177,"SoundDuration":45177,"Delta":6096164},{"NoteNumber":61,"Velocity":35,"Duration":45177,"SoundDuration":45177,"Delta":6276876},{"NoteNumber":66,"Velocity":35,"Duration":45177,"SoundDuration":45177,"Delta":6276876},{"NoteNumber":70,"Velocity":35,"Duration":45177,"SoundDuration":45177,"Delta":6276876},{"NoteNumber":56,"Velocity":51,"Duration":90355,"SoundDuration":90355,"Delta":6457588},{"NoteNumber":71,"Velocity":35,"Duration":89418,"SoundDuration":89418,"Delta":6638300},{"NoteNumber":65,"Velocity":35,"Duration":89418,"SoundDuration":89418,"Delta":6638300},{"NoteNumber":63,"Velocity":35,"Duration":89418,"SoundDuration":89418,"Delta":6638300},{"NoteNumber":61,"Velocity":35,"Duration":87731,"SoundDuration":87731,"Delta":6727718},{"NoteNumber":61,"Velocity":51,"Duration":258634,"SoundDuration":258634,"Delta":6816935},{"NoteNumber":65,"Velocity":36,"Duration":88435,"SoundDuration":88435,"Delta":6994488},{"NoteNumber":63,"Velocity":36,"Duration":88435,"SoundDuration":88435,"Delta":6994488},{"NoteNumber":71,"Velocity":36,"Duration":88435,"SoundDuration":88435,"Delta":6994488},{"NoteNumber":61,"Velocity":36,"Duration":88143,"SoundDuration":88143,"Delta":7082923},{"NoteNumber":63,"Velocity":55,"Duration":168146,"SoundDuration":168146,"Delta":7171067},{"NoteNumber":71,"Velocity":38,"Duration":92501,"SoundDuration":92501,"Delta":7346494},{"NoteNumber":65,"Velocity":38,"Duration":92501,"SoundDuration":92501,"Delta":7346494},{"NoteNumber":63,"Velocity":38,"Duration":92501,"SoundDuration":92501,"Delta":7346494},{"NoteNumber":61,"Velocity":38,"Duration":92501,"SoundDuration":92501,"Delta":7438996},{"NoteNumber":65,"Velocity":58,"Duration":171385,"SoundDuration":171385,"Delta":7531497},{"NoteNumber":71,"Velocity":39,"Duration":89418,"SoundDuration":89418,"Delta":7710334},{"NoteNumber":63,"Velocity":39,"Duration":89418,"SoundDuration":89418,"Delta":7710334},{"NoteNumber":65,"Velocity":39,"Duration":89418,"SoundDuration":89418,"Delta":7710334},{"NoteNumber":61,"Velocity":39,"Duration":89418,"SoundDuration":89418,"Delta":7799753},{"NoteNumber":68,"Velocity":61,"Duration":181850,"SoundDuration":181850,"Delta":7889172},{"NoteNumber":63,"Velocity":41,"Duration":90925,"SoundDuration":90925,"Delta":8071023},{"NoteNumber":65,"Velocity":41,"Duration":90925,"SoundDuration":90925,"Delta":8071023},{"NoteNumber":71,"Velocity":41,"Duration":90925,"SoundDuration":90925,"Delta":8071023},{"NoteNumber":61,"Velocity":42,"Duration":89410,"SoundDuration":89410,"Delta":8161948},{"NoteNumber":61,"Velocity":58,"Duration":266062,"SoundDuration":266062,"Delta":8252874},{"NoteNumber":63,"Velocity":43,"Duration":91866,"SoundDuration":91866,"Delta":8434725},{"NoteNumber":71,"Velocity":43,"Duration":91866,"SoundDuration":91866,"Delta":8434725},{"NoteNumber":65,"Velocity":43,"Duration":91866,"SoundDuration":91866,"Delta":8434725},{"NoteNumber":61,"Velocity":44,"Duration":91866,"SoundDuration":91866,"Delta":8526592},{"NoteNumber":54,"Velocity":51,"Duration":84350,"SoundDuration":84350,"Delta":8618458},{"NoteNumber":63,"Velocity":35,"Duration":90623,"SoundDuration":90623,"Delta":8787159},{"NoteNumber":66,"Velocity":35,"Duration":90623,"SoundDuration":90623,"Delta":8787159},{"NoteNumber":70,"Velocity":35,"Duration":90623,"SoundDuration":90623,"Delta":8787159},{"NoteNumber":61,"Velocity":35,"Duration":89113,"SoundDuration":89113,"Delta":8877782},{"NoteNumber":61,"Velocity":49,"Duration":42864,"SoundDuration":42864,"Delta":8968406},{"NoteNumber":61,"Velocity":35,"Duration":45177,"SoundDuration":45177,"Delta":9139864},{"NoteNumber":66,"Velocity":35,"Duration":45177,"SoundDuration":45177,"Delta":9139864},{"NoteNumber":70,"Velocity":35,"Duration":45177,"SoundDuration":45177,"Delta":9139864},{"NoteNumber":49,"Velocity":49,"Duration":45177,"SoundDuration":45177,"Delta":9320576},{"NoteNumber":66,"Velocity":35,"Duration":46091,"SoundDuration":46091,"Delta":9501288},{"NoteNumber":61,"Velocity":35,"Duration":46091,"SoundDuration":46091,"Delta":9501288},{"NoteNumber":70,"Velocity":35,"Duration":46091,"SoundDuration":46091,"Delta":9501288},{"NoteNumber":54,"Velocity":51,"Duration":83565,"SoundDuration":83565,"Delta":9685654},{"NoteNumber":63,"Velocity":35,"Duration":90623,"SoundDuration":90623,"Delta":9852785},{"NoteNumber":66,"Velocity":35,"Duration":90623,"SoundDuration":90623,"Delta":9852785},{"NoteNumber":70,"Velocity":35,"Duration":90623,"SoundDuration":90623,"Delta":9852785},{"NoteNumber":61,"Velocity":35,"Duration":89113,"SoundDuration":89113,"Delta":9943408},{"NoteNumber":61,"Velocity":49,"Duration":42864,"SoundDuration":42864,"Delta":10034032},{"NoteNumber":61,"Velocity":35,"Duration":45177,"SoundDuration":45177,"Delta":10205490},{"NoteNumber":70,"Velocity":35,"Duration":45177,"SoundDuration":45177,"Delta":10205490},{"NoteNumber":66,"Velocity":35,"Duration":45177,"SoundDuration":45177,"Delta":10205490},{"NoteNumber":49,"Velocity":49,"Duration":45177,"SoundDuration":45177,"Delta":10386202},{"NoteNumber":70,"Velocity":35,"Duration":45177,"SoundDuration":45177,"Delta":10566914},{"NoteNumber":66,"Velocity":35,"Duration":45177,"SoundDuration":45177,"Delta":10566914},{"NoteNumber":61,"Velocity":35,"Duration":45177,"SoundDuration":45177,"Delta":10566914},{"NoteNumber":56,"Velocity":51,"Duration":90925,"SoundDuration":90925,"Delta":10747626},{"NoteNumber":71,"Velocity":35,"Duration":90623,"SoundDuration":90623,"Delta":10929477},{"NoteNumber":65,"Velocity":35,"Duration":90623,"SoundDuration":90623,"Delta":10929477},{"NoteNumber":63,"Velocity":35,"Duration":90623,"SoundDuration":90623,"Delta":10929477},{"NoteNumber":61,"Velocity":35,"Duration":90623,"SoundDuration":90623,"Delta":11020100},{"NoteNumber":61,"Velocity":51,"Duration":259690,"SoundDuration":259690,"Delta":11110724},{"NoteNumber":71,"Velocity":36,"Duration":88630,"SoundDuration":88630,"Delta":11289162},{"NoteNumber":63,"Velocity":36,"Duration":88630,"SoundDuration":88630,"Delta":11289162},{"NoteNumber":65,"Velocity":36,"Duration":88630,"SoundDuration":88630,"Delta":11289162},{"NoteNumber":61,"Velocity":36,"Duration":88143,"SoundDuration":88143,"Delta":11377792},{"NoteNumber":63,"Velocity":55,"Duration":167788,"SoundDuration":167788,"Delta":11465936},{"NoteNumber":63,"Velocity":38,"Duration":92815,"SoundDuration":92815,"Delta":11640982},{"NoteNumber":65,"Velocity":38,"Duration":92815,"SoundDuration":92815,"Delta":11640982},{"NoteNumber":71,"Velocity":38,"Duration":92815,"SoundDuration":92815,"Delta":11640982},{"NoteNumber":61,"Velocity":38,"Duration":92816,"SoundDuration":92816,"Delta":11733798},{"NoteNumber":65,"Velocity":58,"Duration":174273,"SoundDuration":174273,"Delta":11826614},{"NoteNumber":63,"Velocity":39,"Duration":90925,"SoundDuration":90925,"Delta":12008465},{"NoteNumber":71,"Velocity":39,"Duration":90925,"SoundDuration":90925,"Delta":12008465},{"NoteNumber":65,"Velocity":39,"Duration":90925,"SoundDuration":90925,"Delta":12008465},{"NoteNumber":61,"Velocity":39,"Duration":90925,"SoundDuration":90925,"Delta":12099391},{"NoteNumber":68,"Velocity":61,"Duration":363701,"SoundDuration":363701,"Delta":12190316},{"NoteNumber":63,"Velocity":41,"Duration":90925,"SoundDuration":90925,"Delta":12372167},{"NoteNumber":65,"Velocity":41,"Duration":90925,"SoundDuration":90925,"Delta":12372167},{"NoteNumber":71,"Velocity":41,"Duration":90925,"SoundDuration":90925,"Delta":12372167},{"NoteNumber":61,"Velocity":42,"Duration":90925,"SoundDuration":90925,"Delta":12463093},{"NoteNumber":61,"Velocity":58,"Duration":268867,"SoundDuration":268867,"Delta":12554018},{"NoteNumber":63,"Velocity":43,"Duration":92182,"SoundDuration":92182,"Delta":12738384},{"NoteNumber":65,"Velocity":43,"Duration":92182,"SoundDuration":92182,"Delta":12738384},{"NoteNumber":71,"Velocity":43,"Duration":92182,"SoundDuration":92182,"Delta":12738384},{"NoteNumber":61,"Velocity":44,"Duration":92183,"SoundDuration":92183,"Delta":12830567},{"NoteNumber":61,"Velocity":58,"Duration":272776,"SoundDuration":272776,"Delta":12922750},{"NoteNumber":66,"Velocity":58,"Duration":272776,"SoundDuration":272776,"Delta":12922750},{"NoteNumber":54,"Velocity":54,"Duration":272776,"SoundDuration":272776,"Delta":12922750},{"NoteNumber":58,"Velocity":54,"Duration":272776,"SoundDuration":272776,"Delta":12922750},{"NoteNumber":66,"Velocity":55,"Duration":90925,"SoundDuration":90925,"Delta":13195527},{"NoteNumber":70,"Velocity":55,"Duration":90925,"SoundDuration":90925,"Delta":13195527},{"NoteNumber":61,"Velocity":50,"Duration":90925,"SoundDuration":90925,"Delta":13195527},{"NoteNumber":70,"Velocity":57,"Duration":90419,"SoundDuration":90419,"Delta":13286452},{"NoteNumber":73,"Velocity":57,"Duration":90419,"SoundDuration":90419,"Delta":13286452},{"NoteNumber":66,"Velocity":50,"Duration":90419,"SoundDuration":90419,"Delta":13286452},{"NoteNumber":73,"Velocity":61,"Duration":91555,"SoundDuration":91555,"Delta":13467804},{"NoteNumber":78,"Velocity":61,"Duration":91555,"SoundDuration":91555,"Delta":13467804},{"NoteNumber":70,"Velocity":54,"Duration":91555,"SoundDuration":91555,"Delta":13467804},{"NoteNumber":78,"Velocity":66,"Duration":92711,"SoundDuration":92711,"Delta":13651437},{"NoteNumber":82,"Velocity":66,"Duration":92711,"SoundDuration":92711,"Delta":13651437},{"NoteNumber":73,"Velocity":56,"Duration":92711,"SoundDuration":92711,"Delta":13651437},{"NoteNumber":85,"Velocity":63,"Duration":93902,"SoundDuration":93902,"Delta":13837505},{"NoteNumber":82,"Velocity":63,"Duration":93902,"SoundDuration":93902,"Delta":13837505},{"NoteNumber":78,"Velocity":54,"Duration":93902,"SoundDuration":93902,"Delta":13837505},{"NoteNumber":90,"Velocity":76,"Duration":190246,"SoundDuration":190246,"Delta":14025974},{"NoteNumber":85,"Velocity":76,"Duration":190246,"SoundDuration":190246,"Delta":14025974},{"NoteNumber":82,"Velocity":63,"Duration":95123,"SoundDuration":95123,"Delta":14025974},{"NoteNumber":42,"Velocity":58,"Duration":428054,"SoundDuration":428054,"Delta":14358905},{"NoteNumber":49,"Velocity":61,"Duration":404273,"SoundDuration":404273,"Delta":14382686},{"NoteNumber":102,"Velocity":85,"Duration":380493,"SoundDuration":380493,"Delta":14406467},{"NoteNumber":97,"Velocity":85,"Duration":380493,"SoundDuration":380493,"Delta":14406467},{"NoteNumber":90,"Velocity":85,"Duration":380493,"SoundDuration":380493,"Delta":14406467},{"NoteNumber":58,"Velocity":70,"Duration":380493,"SoundDuration":380493,"Delta":14406467},{"NoteNumber":78,"Velocity":67,"Duration":230468,"SoundDuration":230468,"Delta":15190625},{"NoteNumber":90,"Velocity":67,"Duration":230468,"SoundDuration":230468,"Delta":15190625},{"NoteNumber":66,"Velocity":53,"Duration":230468,"SoundDuration":230468,"Delta":15190625},{"NoteNumber":92,"Velocity":69,"Duration":200440,"SoundDuration":200440,"Delta":15421093},{"NoteNumber":80,"Velocity":69,"Duration":200440,"SoundDuration":200440,"Delta":15421093},{"NoteNumber":68,"Velocity":55,"Duration":200440,"SoundDuration":200440,"Delta":15421093},{"NoteNumber":82,"Velocity":71,"Duration":411014,"SoundDuration":411014,"Delta":15621534},{"NoteNumber":94,"Velocity":71,"Duration":411014,"SoundDuration":411014,"Delta":15621534},{"NoteNumber":70,"Velocity":56,"Duration":411014,"SoundDuration":411014,"Delta":15621534},{"NoteNumber":80,"Velocity":68,"Duration":187253,"SoundDuration":187253,"Delta":16032549},{"NoteNumber":92,"Velocity":68,"Duration":187253,"SoundDuration":187253,"Delta":16032549},{"NoteNumber":68,"Velocity":54,"Duration":187253,"SoundDuration":187253,"Delta":16032549},{"NoteNumber":90,"Velocity":65,"Duration":145716,"SoundDuration":145716,"Delta":16219803},{"NoteNumber":78,"Velocity":65,"Duration":145716,"SoundDuration":145716,"Delta":16219803},{"NoteNumber":66,"Velocity":50,"Duration":194288,"SoundDuration":194288,"Delta":16219803},{"NoteNumber":80,"Velocity":53,"Duration":48572,"SoundDuration":48572,"Delta":16316947},{"NoteNumber":92,"Velocity":53,"Duration":48572,"SoundDuration":48572,"Delta":16316947},{"NoteNumber":82,"Velocity":53,"Duration":48572,"SoundDuration":48572,"Delta":16365519},{"NoteNumber":94,"Velocity":53,"Duration":48572,"SoundDuration":48572,"Delta":16365519},{"NoteNumber":92,"Velocity":68,"Duration":389914,"SoundDuration":389914,"Delta":16414091},{"NoteNumber":80,"Velocity":68,"Duration":389914,"SoundDuration":389914,"Delta":16414091},{"NoteNumber":68,"Velocity":56,"Duration":389914,"SoundDuration":389914,"Delta":16414091},{"NoteNumber":78,"Velocity":59,"Duration":187875,"SoundDuration":187875,"Delta":16804005},{"NoteNumber":90,"Velocity":59,"Duration":187875,"SoundDuration":187875,"Delta":16804005},{"NoteNumber":66,"Velocity":54,"Duration":187875,"SoundDuration":187875,"Delta":16804005},{"NoteNumber":87,"Velocity":57,"Duration":195617,"SoundDuration":195617,"Delta":16991881},{"NoteNumber":75,"Velocity":57,"Duration":195617,"SoundDuration":195617,"Delta":16991881},{"NoteNumber":63,"Velocity":50,"Duration":195617,"SoundDuration":195617,"Delta":16991881},{"NoteNumber":73,"Velocity":55,"Duration":409555,"SoundDuration":409555,"Delta":17187499},{"NoteNumber":85,"Velocity":55,"Duration":409555,"SoundDuration":409555,"Delta":17187499},{"NoteNumber":61,"Velocity":47,"Duration":409555,"SoundDuration":409555,"Delta":17187499},{"NoteNumber":68,"Velocity":62,"Duration":201153,"SoundDuration":201153,"Delta":17597055},{"NoteNumber":80,"Velocity":62,"Duration":201153,"SoundDuration":201153,"Delta":17597055},{"NoteNumber":74,"Velocity":62,"Duration":395441,"SoundDuration":395441,"Delta":17597055},{"NoteNumber":59,"Velocity":59,"Duration":395441,"SoundDuration":395441,"Delta":17597055},{"NoteNumber":66,"Velocity":59,"Duration":395441,"SoundDuration":395441,"Delta":17597055},{"NoteNumber":82,"Velocity":64,"Duration":194288,"SoundDuration":194288,"Delta":17798209},{"NoteNumber":70,"Velocity":64,"Duration":194288,"SoundDuration":194288,"Delta":17798209},{"NoteNumber":71,"Velocity":66,"Duration":402307,"SoundDuration":402307,"Delta":17992497},{"NoteNumber":74,"Velocity":66,"Duration":402307,"SoundDuration":402307,"Delta":17992497},{"NoteNumber":83,"Velocity":66,"Duration":402307,"SoundDuration":402307,"Delta":17992497},{"NoteNumber":56,"Velocity":56,"Duration":352018,"SoundDuration":352018,"Delta":17992497},{"NoteNumber":66,"Velocity":56,"Duration":352018,"SoundDuration":352018,"Delta":17992497},{"NoteNumber":49,"Velocity":42,"Duration":475592,"SoundDuration":475592,"Delta":18344516},{"NoteNumber":59,"Velocity":43,"Duration":450448,"SoundDuration":450448,"Delta":18369660},{"NoteNumber":73,"Velocity":59,"Duration":425304,"SoundDuration":425304,"Delta":18394804},{"NoteNumber":80,"Velocity":59,"Duration":205507,"SoundDuration":205507,"Delta":18394804},{"NoteNumber":68,"Velocity":59,"Duration":205507,"SoundDuration":205507,"Delta":18394804},{"NoteNumber":65,"Velocity":54,"Duration":425304,"SoundDuration":425304,"Delta":18394804},{"NoteNumber":82,"Velocity":53,"Duration":219796,"SoundDuration":219796,"Delta":18600311},{"NoteNumber":70,"Velocity":53,"Duration":219796,"SoundDuration":219796,"Delta":18600311},{"NoteNumber":78,"Velocity":62,"Duration":208521,"SoundDuration":208521,"Delta":18820108},{"NoteNumber":70,"Velocity":62,"Duration":208521,"SoundDuration":208521,"Delta":18820108},{"NoteNumber":66,"Velocity":62,"Duration":208521,"SoundDuration":208521,"Delta":18820108},{"NoteNumber":54,"Velocity":54,"Duration":389768,"SoundDuration":389768,"Delta":18820108},{"NoteNumber":61,"Velocity":54,"Duration":389768,"SoundDuration":389768,"Delta":18820108},{"NoteNumber":63,"Velocity":35,"Duration":90623,"SoundDuration":90623,"Delta":19028629},{"NoteNumber":66,"Velocity":35,"Duration":90623,"SoundDuration":90623,"Delta":19028629},{"NoteNumber":70,"Velocity":35,"Duration":90623,"SoundDuration":90623,"Delta":19028629},{"NoteNumber":61,"Velocity":35,"Duration":90623,"SoundDuration":90623,"Delta":19119253},{"NoteNumber":61,"Velocity":49,"Duration":42483,"SoundDuration":42483,"Delta":19209876},{"NoteNumber":61,"Velocity":35,"Duration":45177,"SoundDuration":45177,"Delta":19379809},{"NoteNumber":66,"Velocity":35,"Duration":45177,"SoundDuration":45177,"Delta":19379809},{"NoteNumber":70,"Velocity":35,"Duration":45177,"SoundDuration":45177,"Delta":19379809},{"NoteNumber":49,"Velocity":49,"Duration":45177,"SoundDuration":45177,"Delta":19560521},{"NoteNumber":66,"Velocity":35,"Duration":45933,"SoundDuration":45933,"Delta":19741233},{"NoteNumber":61,"Velocity":35,"Duration":45933,"SoundDuration":45933,"Delta":19741233},{"NoteNumber":70,"Velocity":35,"Duration":45933,"SoundDuration":45933,"Delta":19741233},{"NoteNumber":54,"Velocity":51,"Duration":82034,"SoundDuration":82034,"Delta":19924967},{"NoteNumber":63,"Velocity":35,"Duration":90623,"SoundDuration":90623,"Delta":20089036},{"NoteNumber":66,"Velocity":35,"Duration":90623,"SoundDuration":90623,"Delta":20089036},{"NoteNumber":70,"Velocity":35,"Duration":90623,"SoundDuration":90623,"Delta":20089036},{"NoteNumber":61,"Velocity":35,"Duration":89113,"SoundDuration":89113,"Delta":20179659},{"NoteNumber":61,"Velocity":49,"Duration":42864,"SoundDuration":42864,"Delta":20270283},{"NoteNumber":61,"Velocity":35,"Duration":45177,"SoundDuration":45177,"Delta":20441741},{"NoteNumber":70,"Velocity":35,"Duration":45177,"SoundDuration":45177,"Delta":20441741},{"NoteNumber":66,"Velocity":35,"Duration":45177,"SoundDuration":45177,"Delta":20441741},{"NoteNumber":49,"Velocity":49,"Duration":45177,"SoundDuration":45177,"Delta":20622453},{"NoteNumber":70,"Velocity":35,"Duration":45177,"SoundDuration":45177,"Delta":20803165},{"NoteNumber":66,"Velocity":35,"Duration":45177,"SoundDuration":45177,"Delta":20803165},{"NoteNumber":61,"Velocity":35,"Duration":45177,"SoundDuration":45177,"Delta":20803165},{"NoteNumber":56,"Velocity":51,"Duration":90355,"SoundDuration":90355,"Delta":20983877},{"NoteNumber":71,"Velocity":35,"Duration":89418,"SoundDuration":89418,"Delta":21164589},{"NoteNumber":65,"Velocity":35,"Duration":89418,"SoundDuration":89418,"Delta":21164589},{"NoteNumber":63,"Velocity":35,"Duration":89418,"SoundDuration":89418,"Delta":21164589},{"NoteNumber":61,"Velocity":35,"Duration":89216,"SoundDuration":89216,"Delta":21254008},{"NoteNumber":61,"Velocity":51,"Duration":258634,"SoundDuration":258634,"Delta":21343225},{"NoteNumber":71,"Velocity":36,"Duration":88434,"SoundDuration":88434,"Delta":21520777},{"NoteNumber":63,"Velocity":36,"Duration":88434,"SoundDuration":88434,"Delta":21520777},{"NoteNumber":65,"Velocity":36,"Duration":88434,"SoundDuration":88434,"Delta":21520777},{"NoteNumber":61,"Velocity":36,"Duration":88143,"SoundDuration":88143,"Delta":21609212},{"NoteNumber":63,"Velocity":55,"Duration":168146,"SoundDuration":168146,"Delta":21697356},{"NoteNumber":63,"Velocity":38,"Duration":92501,"SoundDuration":92501,"Delta":21872784},{"NoteNumber":65,"Velocity":38,"Duration":92501,"SoundDuration":92501,"Delta":21872784},{"NoteNumber":71,"Velocity":38,"Duration":92501,"SoundDuration":92501,"Delta":21872784},{"NoteNumber":61,"Velocity":38,"Duration":92501,"SoundDuration":92501,"Delta":21965285},{"NoteNumber":65,"Velocity":58,"Duration":171385,"SoundDuration":171385,"Delta":22057786},{"NoteNumber":63,"Velocity":39,"Duration":89418,"SoundDuration":89418,"Delta":22236624},{"NoteNumber":71,"Velocity":39,"Duration":89418,"SoundDuration":89418,"Delta":22236624},{"NoteNumber":65,"Velocity":39,"Duration":89418,"SoundDuration":89418,"Delta":22236624},{"NoteNumber":61,"Velocity":39,"Duration":89418,"SoundDuration":89418,"Delta":22326042},{"NoteNumber":68,"Velocity":61,"Duration":363701,"SoundDuration":363701,"Delta":22415461},{"NoteNumber":63,"Velocity":41,"Duration":90925,"SoundDuration":90925,"Delta":22597312},{"NoteNumber":65,"Velocity":41,"Duration":90925,"SoundDuration":90925,"Delta":22597312},{"NoteNumber":71,"Velocity":41,"Duration":90925,"SoundDuration":90925,"Delta":22597312},{"NoteNumber":61,"Velocity":42,"Duration":90925,"SoundDuration":90925,"Delta":22688238},{"NoteNumber":61,"Velocity":58,"Duration":266062,"SoundDuration":266062,"Delta":22779163},{"NoteNumber":63,"Velocity":43,"Duration":91866,"SoundDuration":91866,"Delta":22961014},{"NoteNumber":65,"Velocity":43,"Duration":91866,"SoundDuration":91866,"Delta":22961014},{"NoteNumber":71,"Velocity":43,"Duration":91866,"SoundDuration":91866,"Delta":22961014},{"NoteNumber":61,"Velocity":44,"Duration":91866,"SoundDuration":91866,"Delta":23052881},{"NoteNumber":54,"Velocity":51,"Duration":84350,"SoundDuration":84350,"Delta":23144748},{"NoteNumber":70,"Velocity":35,"Duration":90623,"SoundDuration":90623,"Delta":23313448},{"NoteNumber":66,"Velocity":35,"Duration":90623,"SoundDuration":90623,"Delta":23313448},{"NoteNumber":63,"Velocity":35,"Duration":90623,"SoundDuration":90623,"Delta":23313448},{"NoteNumber":61,"Velocity":35,"Duration":89113,"SoundDuration":89113,"Delta":23404072},{"NoteNumber":61,"Velocity":49,"Duration":42864,"SoundDuration":42864,"Delta":23494695},{"NoteNumber":70,"Velocity":35,"Duration":45177,"SoundDuration":45177,"Delta":23666153},{"NoteNumber":66,"Velocity":35,"Duration":45177,"SoundDuration":45177,"Delta":23666153},{"NoteNumber":61,"Velocity":35,"Duration":45177,"SoundDuration":45177,"Delta":23666153},{"NoteNumber":49,"Velocity":49,"Duration":45177,"SoundDuration":45177,"Delta":23846865},{"NoteNumber":70,"Velocity":35,"Duration":46091,"SoundDuration":46091,"Delta":24027577},{"NoteNumber":61,"Velocity":35,"Duration":46091,"SoundDuration":46091,"Delta":24027577},{"NoteNumber":66,"Velocity":35,"Duration":46091,"SoundDuration":46091,"Delta":24027577},{"NoteNumber":54,"Velocity":51,"Duration":83565,"SoundDuration":83565,"Delta":24211943},{"NoteNumber":63,"Velocity":35,"Duration":90623,"SoundDuration":90623,"Delta":24379074},{"NoteNumber":66,"Velocity":35,"Duration":90623,"SoundDuration":90623,"Delta":24379074},{"NoteNumber":70,"Velocity":35,"Duration":90623,"SoundDuration":90623,"Delta":24379074},{"NoteNumber":61,"Velocity":35,"Duration":89113,"SoundDuration":89113,"Delta":24469698},{"NoteNumber":61,"Velocity":49,"Duration":43255,"SoundDuration":43255,"Delta":24560321},{"NoteNumber":61,"Velocity":35,"Duration":43896,"SoundDuration":43896,"Delta":24733342},{"NoteNumber":66,"Velocity":35,"Duration":43896,"SoundDuration":43896,"Delta":24733342},{"NoteNumber":70,"Velocity":35,"Duration":43896,"SoundDuration":43896,"Delta":24733342},{"NoteNumber":49,"Velocity":49,"Duration":45177,"SoundDuration":45177,"Delta":24912772},{"NoteNumber":66,"Velocity":35,"Duration":45177,"SoundDuration":45177,"Delta":25093484},{"NoteNumber":61,"Velocity":35,"Duration":45177,"SoundDuration":45177,"Delta":25093484},{"NoteNumber":70,"Velocity":35,"Duration":45177,"SoundDuration":45177,"Delta":25093484},{"NoteNumber":56,"Velocity":51,"Duration":90925,"SoundDuration":90925,"Delta":25274196},{"NoteNumber":63,"Velocity":35,"Duration":90623,"SoundDuration":90623,"Delta":25456047},{"NoteNumber":65,"Velocity":35,"Duration":90623,"SoundDuration":90623,"Delta":25456047},{"NoteNumber":71,"Velocity":35,"Duration":90623,"SoundDuration":90623,"Delta":25456047},{"NoteNumber":61,"Velocity":35,"Duration":90623,"SoundDuration":90623,"Delta":25546670},{"NoteNumber":61,"Velocity":51,"Duration":259690,"SoundDuration":259690,"Delta":25637294},{"NoteNumber":63,"Velocity":36,"Duration":88630,"SoundDuration":88630,"Delta":25815732},{"NoteNumber":71,"Velocity":36,"Duration":88630,"SoundDuration":88630,"Delta":25815732},{"NoteNumber":65,"Velocity":36,"Duration":88630,"SoundDuration":88630,"Delta":25815732},{"NoteNumber":61,"Velocity":36,"Duration":88143,"SoundDuration":88143,"Delta":25904362},{"NoteNumber":63,"Velocity":55,"Duration":167788,"SoundDuration":167788,"Delta":25992506},{"NoteNumber":63,"Velocity":38,"Duration":92815,"SoundDuration":92815,"Delta":26167552},{"NoteNumber":65,"Velocity":38,"Duration":92815,"SoundDuration":92815,"Delta":26167552},{"NoteNumber":71,"Velocity":38,"Duration":92815,"SoundDuration":92815,"Delta":26167552},{"NoteNumber":61,"Velocity":38,"Duration":92815,"SoundDuration":92815,"Delta":26260368},{"NoteNumber":65,"Velocity":58,"Duration":174273,"SoundDuration":174273,"Delta":26353184},{"NoteNumber":63,"Velocity":39,"Duration":90925,"SoundDuration":90925,"Delta":26535035},{"NoteNumber":65,"Velocity":39,"Duration":90925,"SoundDuration":90925,"Delta":26535035},{"NoteNumber":71,"Velocity":39,"Duration":90925,"SoundDuration":90925,"Delta":26535035},{"NoteNumber":61,"Velocity":39,"Duration":90925,"SoundDuration":90925,"Delta":26625960},{"NoteNumber":68,"Velocity":61,"Duration":363701,"SoundDuration":363701,"Delta":26716886},{"NoteNumber":71,"Velocity":41,"Duration":90925,"SoundDuration":90925,"Delta":26898737},{"NoteNumber":65,"Velocity":41,"Duration":90925,"SoundDuration":90925,"Delta":26898737},{"NoteNumber":63,"Velocity":41,"Duration":90925,"SoundDuration":90925,"Delta":26898737},{"NoteNumber":61,"Velocity":42,"Duration":89410,"SoundDuration":89410,"Delta":26989662},{"NoteNumber":61,"Velocity":58,"Duration":176684,"SoundDuration":176684,"Delta":27080588},{"NoteNumber":71,"Velocity":43,"Duration":92182,"SoundDuration":92182,"Delta":27264954},{"NoteNumber":65,"Velocity":43,"Duration":92182,"SoundDuration":92182,"Delta":27264954},{"NoteNumber":63,"Velocity":43,"Duration":92182,"SoundDuration":92182,"Delta":27264954},{"NoteNumber":61,"Velocity":44,"Duration":92183,"SoundDuration":92183,"Delta":27357137},{"NoteNumber":66,"Velocity":58,"Duration":272776,"SoundDuration":272776,"Delta":27449320},{"NoteNumber":61,"Velocity":58,"Duration":272776,"SoundDuration":272776,"Delta":27449320},{"NoteNumber":58,"Velocity":54,"Duration":272776,"SoundDuration":272776,"Delta":27449320},{"NoteNumber":54,"Velocity":54,"Duration":272776,"SoundDuration":272776,"Delta":27449320},{"NoteNumber":66,"Velocity":55,"Duration":90925,"SoundDuration":90925,"Delta":27722096},{"NoteNumber":70,"Velocity":55,"Duration":90925,"SoundDuration":90925,"Delta":27722096},{"NoteNumber":61,"Velocity":50,"Duration":90925,"SoundDuration":90925,"Delta":27722096},{"NoteNumber":70,"Velocity":57,"Duration":90419,"SoundDuration":90419,"Delta":27813022},{"NoteNumber":73,"Velocity":57,"Duration":90419,"SoundDuration":90419,"Delta":27813022},{"NoteNumber":66,"Velocity":50,"Duration":90419,"SoundDuration":90419,"Delta":27813022},{"NoteNumber":73,"Velocity":61,"Duration":91555,"SoundDuration":91555,"Delta":27994374},{"NoteNumber":78,"Velocity":61,"Duration":91555,"SoundDuration":91555,"Delta":27994374},{"NoteNumber":70,"Velocity":54,"Duration":91555,"SoundDuration":91555,"Delta":27994374},{"NoteNumber":78,"Velocity":66,"Duration":92711,"SoundDuration":92711,"Delta":28178007},{"NoteNumber":82,"Velocity":66,"Duration":92711,"SoundDuration":92711,"Delta":28178007},{"NoteNumber":73,"Velocity":56,"Duration":92711,"SoundDuration":92711,"Delta":28178007},{"NoteNumber":85,"Velocity":63,"Duration":93902,"SoundDuration":93902,"Delta":28364075},{"NoteNumber":82,"Velocity":63,"Duration":93902,"SoundDuration":93902,"Delta":28364075},{"NoteNumber":78,"Velocity":54,"Duration":93902,"SoundDuration":93902,"Delta":28364075},{"NoteNumber":90,"Velocity":76,"Duration":190246,"SoundDuration":190246,"Delta":28552544},{"NoteNumber":85,"Velocity":76,"Duration":190246,"SoundDuration":190246,"Delta":28552544},{"NoteNumber":82,"Velocity":63,"Duration":95123,"SoundDuration":95123,"Delta":28552544},{"NoteNumber":42,"Velocity":58,"Duration":428054,"SoundDuration":428054,"Delta":28885475},{"NoteNumber":49,"Velocity":61,"Duration":404273,"SoundDuration":404273,"Delta":28909256},{"NoteNumber":90,"Velocity":85,"Duration":380492,"SoundDuration":380492,"Delta":28933037},{"NoteNumber":97,"Velocity":85,"Duration":380492,"SoundDuration":380492,"Delta":28933037},{"NoteNumber":102,"Velocity":85,"Duration":380492,"SoundDuration":380492,"Delta":28933037},{"NoteNumber":58,"Velocity":70,"Duration":380492,"SoundDuration":380492,"Delta":28933037},{"NoteNumber":78,"Velocity":61,"Duration":230467,"SoundDuration":230467,"Delta":29694023},{"NoteNumber":90,"Velocity":61,"Duration":230467,"SoundDuration":230467,"Delta":29694023},{"NoteNumber":63,"Velocity":49,"Duration":230467,"SoundDuration":230467,"Delta":29694023},{"NoteNumber":92,"Velocity":63,"Duration":200441,"SoundDuration":200441,"Delta":29924491},{"NoteNumber":80,"Velocity":63,"Duration":200441,"SoundDuration":200441,"Delta":29924491},{"NoteNumber":65,"Velocity":50,"Duration":200441,"SoundDuration":200441,"Delta":29924491},{"NoteNumber":82,"Velocity":66,"Duration":411014,"SoundDuration":411014,"Delta":30124932},{"NoteNumber":94,"Velocity":66,"Duration":411014,"SoundDuration":411014,"Delta":30124932},{"NoteNumber":66,"Velocity":51,"Duration":411014,"SoundDuration":411014,"Delta":30124932},{"NoteNumber":80,"Velocity":62,"Duration":187253,"SoundDuration":187253,"Delta":30535947},{"NoteNumber":92,"Velocity":62,"Duration":187253,"SoundDuration":187253,"Delta":30535947},{"NoteNumber":65,"Velocity":49,"Duration":187253,"SoundDuration":187253,"Delta":30535947},{"NoteNumber":78,"Velocity":60,"Duration":145716,"SoundDuration":145716,"Delta":30723201},{"NoteNumber":90,"Velocity":60,"Duration":145716,"SoundDuration":145716,"Delta":30723201},{"NoteNumber":63,"Velocity":46,"Duration":194288,"SoundDuration":194288,"Delta":30723201},{"NoteNumber":92,"Velocity":49,"Duration":48572,"SoundDuration":48572,"Delta":30820345},{"NoteNumber":80,"Velocity":49,"Duration":48572,"SoundDuration":48572,"Delta":30820345},{"NoteNumber":82,"Velocity":49,"Duration":48572,"SoundDuration":48572,"Delta":30868917},{"NoteNumber":94,"Velocity":49,"Duration":48572,"SoundDuration":48572,"Delta":30868917},{"NoteNumber":92,"Velocity":62,"Duration":389914,"SoundDuration":389914,"Delta":30917489},{"NoteNumber":80,"Velocity":62,"Duration":389914,"SoundDuration":389914,"Delta":30917489},{"NoteNumber":65,"Velocity":51,"Duration":389914,"SoundDuration":389914,"Delta":30917489},{"NoteNumber":78,"Velocity":58,"Duration":187875,"SoundDuration":187875,"Delta":31307403},{"NoteNumber":90,"Velocity":58,"Duration":187875,"SoundDuration":187875,"Delta":31307403},{"NoteNumber":63,"Velocity":49,"Duration":187875,"SoundDuration":187875,"Delta":31307403},{"NoteNumber":89,"Velocity":56,"Duration":195617,"SoundDuration":195617,"Delta":31495279},{"NoteNumber":77,"Velocity":56,"Duration":195617,"SoundDuration":195617,"Delta":31495279},{"NoteNumber":58,"Velocity":46,"Duration":195617,"SoundDuration":195617,"Delta":31495279},{"NoteNumber":75,"Velocity":53,"Duration":409555,"SoundDuration":409555,"Delta":31690897},{"NoteNumber":87,"Velocity":53,"Duration":409555,"SoundDuration":409555,"Delta":31690897},{"NoteNumber":54,"Velocity":42,"Duration":409555,"SoundDuration":409555,"Delta":31690897},{"NoteNumber":66,"Velocity":57,"Duration":795711,"SoundDuration":795711,"Delta":32100453},{"NoteNumber":51,"Velocity":55,"Duration":795711,"SoundDuration":795711,"Delta":32100453},{"NoteNumber":61,"Velocity":55,"Duration":795711,"SoundDuration":795711,"Delta":32100453},{"NoteNumber":77,"Velocity":54,"Duration":192963,"SoundDuration":192963,"Delta":32300894},{"NoteNumber":75,"Velocity":62,"Duration":402307,"SoundDuration":402307,"Delta":32493857},{"NoteNumber":85,"Velocity":58,"Duration":402307,"SoundDuration":402307,"Delta":32493857},{"NoteNumber":66,"Velocity":60,"Duration":426053,"SoundDuration":426053,"Delta":32896164},{"NoteNumber":72,"Velocity":60,"Duration":206256,"SoundDuration":206256,"Delta":32896164},{"NoteNumber":56,"Velocity":39,"Duration":426053,"SoundDuration":426053,"Delta":32896164},{"NoteNumber":63,"Velocity":49,"Duration":426053,"SoundDuration":426053,"Delta":32896164},{"NoteNumber":80,"Velocity":56,"Duration":219796,"SoundDuration":219796,"Delta":33102421},{"NoteNumber":77,"Velocity":57,"Duration":208521,"SoundDuration":208521,"Delta":33322217},{"NoteNumber":65,"Velocity":57,"Duration":208521,"SoundDuration":208521,"Delta":33322217},{"NoteNumber":49,"Velocity":53,"Duration":389768,"SoundDuration":389768,"Delta":33322217},{"NoteNumber":56,"Velocity":53,"Duration":385992,"SoundDuration":385992,"Delta":33322217},{"NoteNumber":58,"Velocity":35,"Duration":90623,"SoundDuration":90623,"Delta":33530739},{"NoteNumber":61,"Velocity":35,"Duration":90623,"SoundDuration":90623,"Delta":33530739},{"NoteNumber":65,"Velocity":35,"Duration":90623,"SoundDuration":90623,"Delta":33530739},{"NoteNumber":56,"Velocity":35,"Duration":90623,"SoundDuration":90623,"Delta":33621362},{"NoteNumber":56,"Velocity":49,"Duration":42483,"SoundDuration":42483,"Delta":33711986},{"NoteNumber":56,"Velocity":35,"Duration":45177,"SoundDuration":45177,"Delta":33881919},{"NoteNumber":61,"Velocity":35,"Duration":45177,"SoundDuration":45177,"Delta":33881919},{"NoteNumber":65,"Velocity":35,"Duration":45177,"SoundDuration":45177,"Delta":33881919},{"NoteNumber":44,"Velocity":49,"Duration":45177,"SoundDuration":45177,"Delta":34062631},{"NoteNumber":61,"Velocity":35,"Duration":45933,"SoundDuration":45933,"Delta":34243343},{"NoteNumber":56,"Velocity":35,"Duration":45933,"SoundDuration":45933,"Delta":34243343},{"NoteNumber":65,"Velocity":35,"Duration":45933,"SoundDuration":45933,"Delta":34243343},{"NoteNumber":49,"Velocity":51,"Duration":82034,"SoundDuration":82034,"Delta":34427076},{"NoteNumber":58,"Velocity":35,"Duration":90623,"SoundDuration":90623,"Delta":34591145},{"NoteNumber":61,"Velocity":35,"Duration":90623,"SoundDuration":90623,"Delta":34591145},{"NoteNumber":65,"Velocity":35,"Duration":90623,"SoundDuration":90623,"Delta":34591145},{"NoteNumber":56,"Velocity":35,"Duration":83071,"SoundDuration":83071,"Delta":34681769},{"NoteNumber":56,"Velocity":49,"Duration":42864,"SoundDuration":42864,"Delta":34772392},{"NoteNumber":56,"Velocity":35,"Duration":45177,"SoundDuration":45177,"Delta":34943850},{"NoteNumber":65,"Velocity":35,"Duration":45177,"SoundDuration":45177,"Delta":34943850},{"NoteNumber":61,"Velocity":35,"Duration":45177,"SoundDuration":45177,"Delta":34943850},{"NoteNumber":44,"Velocity":49,"Duration":45177,"SoundDuration":45177,"Delta":35124562},{"NoteNumber":65,"Velocity":35,"Duration":45177,"SoundDuration":45177,"Delta":35305274},{"NoteNumber":61,"Velocity":35,"Duration":45177,"SoundDuration":45177,"Delta":35305274},{"NoteNumber":56,"Velocity":35,"Duration":45177,"SoundDuration":45177,"Delta":35305274},{"NoteNumber":48,"Velocity":51,"Duration":90355,"SoundDuration":90355,"Delta":35485986},{"NoteNumber":66,"Velocity":35,"Duration":89418,"SoundDuration":89418,"Delta":35666698},{"NoteNumber":60,"Velocity":35,"Duration":89418,"SoundDuration":89418,"Delta":35666698},{"NoteNumber":58,"Velocity":35,"Duration":89418,"SoundDuration":89418,"Delta":35666698},{"NoteNumber":56,"Velocity":35,"Duration":81790,"SoundDuration":81790,"Delta":35756117},{"NoteNumber":56,"Velocity":51,"Duration":88922,"SoundDuration":88922,"Delta":35845334},{"NoteNumber":66,"Velocity":36,"Duration":88434,"SoundDuration":88434,"Delta":36022886},{"NoteNumber":58,"Velocity":36,"Duration":88434,"SoundDuration":88434,"Delta":36022886},{"NoteNumber":60,"Velocity":36,"Duration":88434,"SoundDuration":88434,"Delta":36022886},{"NoteNumber":56,"Velocity":36,"Duration":88143,"SoundDuration":88143,"Delta":36111321},{"NoteNumber":58,"Velocity":55,"Duration":87856,"SoundDuration":87856,"Delta":36199465},{"NoteNumber":58,"Velocity":38,"Duration":92501,"SoundDuration":92501,"Delta":36374893},{"NoteNumber":60,"Velocity":38,"Duration":92501,"SoundDuration":92501,"Delta":36374893},{"NoteNumber":66,"Velocity":38,"Duration":92501,"SoundDuration":92501,"Delta":36374893},{"NoteNumber":56,"Velocity":38,"Duration":92501,"SoundDuration":92501,"Delta":36467394},{"NoteNumber":60,"Velocity":58,"Duration":89418,"SoundDuration":89418,"Delta":36559895},{"NoteNumber":58,"Velocity":39,"Duration":89418,"SoundDuration":89418,"Delta":36738733},{"NoteNumber":66,"Velocity":39,"Duration":89418,"SoundDuration":89418,"Delta":36738733},{"NoteNumber":60,"Velocity":39,"Duration":89418,"SoundDuration":89418,"Delta":36738733},{"NoteNumber":56,"Velocity":39,"Duration":89418,"SoundDuration":89418,"Delta":36828152},{"NoteNumber":63,"Velocity":61,"Duration":90925,"SoundDuration":90925,"Delta":36917570},{"NoteNumber":58,"Velocity":41,"Duration":90925,"SoundDuration":90925,"Delta":37099421},{"NoteNumber":60,"Velocity":41,"Duration":90925,"SoundDuration":90925,"Delta":37099421},{"NoteNumber":66,"Velocity":41,"Duration":90925,"SoundDuration":90925,"Delta":37099421},{"NoteNumber":56,"Velocity":42,"Duration":83348,"SoundDuration":83348,"Delta":37190347},{"NoteNumber":56,"Velocity":58,"Duration":90925,"SoundDuration":90925,"Delta":37281272},{"NoteNumber":58,"Velocity":43,"Duration":91866,"SoundDuration":91866,"Delta":37463123},{"NoteNumber":60,"Velocity":43,"Duration":91866,"SoundDuration":91866,"Delta":37463123},{"NoteNumber":66,"Velocity":43,"Duration":91866,"SoundDuration":91866,"Delta":37463123},{"NoteNumber":56,"Velocity":44,"Duration":91866,"SoundDuration":91866,"Delta":37554990},{"NoteNumber":49,"Velocity":51,"Duration":84350,"SoundDuration":84350,"Delta":37646857},{"NoteNumber":65,"Velocity":35,"Duration":90623,"SoundDuration":90623,"Delta":37815557},{"NoteNumber":61,"Velocity":35,"Duration":90623,"SoundDuration":90623,"Delta":37815557},{"NoteNumber":58,"Velocity":35,"Duration":90623,"SoundDuration":90623,"Delta":37815557},{"NoteNumber":56,"Velocity":35,"Duration":83071,"SoundDuration":83071,"Delta":37906181},{"NoteNumber":56,"Velocity":49,"Duration":42864,"SoundDuration":42864,"Delta":37996804},{"NoteNumber":65,"Velocity":35,"Duration":45177,"SoundDuration":45177,"Delta":38168262},{"NoteNumber":61,"Velocity":35,"Duration":45177,"SoundDuration":45177,"Delta":38168262},{"NoteNumber":56,"Velocity":35,"Duration":45177,"SoundDuration":45177,"Delta":38168262},{"NoteNumber":44,"Velocity":49,"Duration":45177,"SoundDuration":45177,"Delta":38348974},{"NoteNumber":65,"Velocity":35,"Duration":46091,"SoundDuration":46091,"Delta":38529686},{"NoteNumber":56,"Velocity":35,"Duration":46091,"SoundDuration":46091,"Delta":38529686},{"NoteNumber":61,"Velocity":35,"Duration":46091,"SoundDuration":46091,"Delta":38529686},{"NoteNumber":49,"Velocity":51,"Duration":83565,"SoundDuration":83565,"Delta":38714052},{"NoteNumber":58,"Velocity":35,"Duration":90623,"SoundDuration":90623,"Delta":38881183},{"NoteNumber":61,"Velocity":35,"Duration":90623,"SoundDuration":90623,"Delta":38881183},{"NoteNumber":65,"Velocity":35,"Duration":90623,"SoundDuration":90623,"Delta":38881183},{"NoteNumber":56,"Velocity":35,"Duration":83071,"SoundDuration":83071,"Delta":38971807},{"NoteNumber":56,"Velocity":49,"Duration":43255,"SoundDuration":43255,"Delta":39062430},{"NoteNumber":56,"Velocity":35,"Duration":43896,"SoundDuration":43896,"Delta":39235451},{"NoteNumber":61,"Velocity":35,"Duration":43896,"SoundDuration":43896,"Delta":39235451},{"NoteNumber":65,"Velocity":35,"Duration":43896,"SoundDuration":43896,"Delta":39235451},{"NoteNumber":44,"Velocity":49,"Duration":45177,"SoundDuration":45177,"Delta":39414881},{"NoteNumber":61,"Velocity":35,"Duration":45177,"SoundDuration":45177,"Delta":39595593},{"NoteNumber":56,"Velocity":35,"Duration":45177,"SoundDuration":45177,"Delta":39595593},{"NoteNumber":65,"Velocity":35,"Duration":45177,"SoundDuration":45177,"Delta":39595593},{"NoteNumber":51,"Velocity":51,"Duration":90925,"SoundDuration":90925,"Delta":39776305},{"NoteNumber":58,"Velocity":35,"Duration":90623,"SoundDuration":90623,"Delta":39958156},{"NoteNumber":60,"Velocity":35,"Duration":90623,"SoundDuration":90623,"Delta":39958156},{"NoteNumber":66,"Velocity":35,"Duration":90623,"SoundDuration":90623,"Delta":39958156},{"NoteNumber":56,"Velocity":35,"Duration":83071,"SoundDuration":83071,"Delta":40048779},{"NoteNumber":56,"Velocity":51,"Duration":89418,"SoundDuration":89418,"Delta":40139403},{"NoteNumber":58,"Velocity":36,"Duration":88630,"SoundDuration":88630,"Delta":40317841},{"NoteNumber":66,"Velocity":36,"Duration":88630,"SoundDuration":88630,"Delta":40317841},{"NoteNumber":60,"Velocity":36,"Duration":88630,"SoundDuration":88630,"Delta":40317841},{"NoteNumber":56,"Velocity":36,"Duration":88143,"SoundDuration":88143,"Delta":40406471},{"NoteNumber":58,"Velocity":55,"Duration":87762,"SoundDuration":87762,"Delta":40494615},{"NoteNumber":58,"Velocity":38,"Duration":92815,"SoundDuration":92815,"Delta":40669661},{"NoteNumber":60,"Velocity":38,"Duration":92815,"SoundDuration":92815,"Delta":40669661},{"NoteNumber":66,"Velocity":38,"Duration":92815,"SoundDuration":92815,"Delta":40669661},{"NoteNumber":56,"Velocity":38,"Duration":92815,"SoundDuration":92815,"Delta":40762477},{"NoteNumber":60,"Velocity":58,"Duration":90925,"SoundDuration":90925,"Delta":40855293},{"NoteNumber":58,"Velocity":39,"Duration":90925,"SoundDuration":90925,"Delta":41037144},{"NoteNumber":60,"Velocity":39,"Duration":90925,"SoundDuration":90925,"Delta":41037144},{"NoteNumber":66,"Velocity":39,"Duration":90925,"SoundDuration":90925,"Delta":41037144},{"NoteNumber":56,"Velocity":39,"Duration":90925,"SoundDuration":90925,"Delta":41128070},{"NoteNumber":63,"Velocity":61,"Duration":90925,"SoundDuration":90925,"Delta":41218995},{"NoteNumber":66,"Velocity":41,"Duration":90925,"SoundDuration":90925,"Delta":41400846},{"NoteNumber":60,"Velocity":41,"Duration":90925,"SoundDuration":90925,"Delta":41400846},{"NoteNumber":58,"Velocity":41,"Duration":90925,"SoundDuration":90925,"Delta":41400846},{"NoteNumber":56,"Velocity":42,"Duration":83348,"SoundDuration":83348,"Delta":41491772},{"NoteNumber":56,"Velocity":58,"Duration":92182,"SoundDuration":92182,"Delta":41582697},{"NoteNumber":66,"Velocity":43,"Duration":92183,"SoundDuration":92183,"Delta":41767063},{"NoteNumber":60,"Velocity":43,"Duration":92183,"SoundDuration":92183,"Delta":41767063},{"NoteNumber":58,"Velocity":43,"Duration":92183,"SoundDuration":92183,"Delta":41767063},{"NoteNumber":56,"Velocity":44,"Duration":92182,"SoundDuration":92182,"Delta":41859246},{"NoteNumber":61,"Velocity":58,"Duration":272776,"SoundDuration":272776,"Delta":41951429},{"NoteNumber":56,"Velocity":58,"Duration":272776,"SoundDuration":272776,"Delta":41951429},{"NoteNumber":49,"Velocity":54,"Duration":272776,"SoundDuration":272776,"Delta":41951429},{"NoteNumber":53,"Velocity":54,"Duration":272776,"SoundDuration":272776,"Delta":41951429},{"NoteNumber":61,"Velocity":55,"Duration":89410,"SoundDuration":89410,"Delta":42224206},{"NoteNumber":65,"Velocity":55,"Duration":90925,"SoundDuration":90925,"Delta":42224206},{"NoteNumber":56,"Velocity":50,"Duration":90925,"SoundDuration":90925,"Delta":42224206},{"NoteNumber":65,"Velocity":57,"Duration":90419,"SoundDuration":90419,"Delta":42315131},{"NoteNumber":68,"Velocity":57,"Duration":90419,"SoundDuration":90419,"Delta":42315131},{"NoteNumber":61,"Velocity":50,"Duration":90419,"SoundDuration":90419,"Delta":42315131},{"NoteNumber":68,"Velocity":61,"Duration":91555,"SoundDuration":91555,"Delta":42496483},{"NoteNumber":73,"Velocity":61,"Duration":91555,"SoundDuration":91555,"Delta":42496483},{"NoteNumber":65,"Velocity":54,"Duration":91555,"SoundDuration":91555,"Delta":42496483},{"NoteNumber":73,"Velocity":66,"Duration":92711,"SoundDuration":92711,"Delta":42680116},{"NoteNumber":77,"Velocity":66,"Duration":92711,"SoundDuration":92711,"Delta":42680116},{"NoteNumber":68,"Velocity":56,"Duration":92711,"SoundDuration":92711,"Delta":42680116},{"NoteNumber":80,"Velocity":63,"Duration":93902,"SoundDuration":93902,"Delta":42866184},{"NoteNumber":77,"Velocity":63,"Duration":93902,"SoundDuration":93902,"Delta":42866184},{"NoteNumber":73,"Velocity":54,"Duration":93902,"SoundDuration":93902,"Delta":42866184},{"NoteNumber":61,"Velocity":56,"Duration":237586,"SoundDuration":237586,"Delta":43007313},{"NoteNumber":68,"Velocity":56,"Duration":213944,"SoundDuration":213944,"Delta":43030955},{"NoteNumber":73,"Velocity":76,"Duration":190246,"SoundDuration":190246,"Delta":43054653},{"NoteNumber":85,"Velocity":76,"Duration":190246,"SoundDuration":190246,"Delta":43054653},{"NoteNumber":80,"Velocity":76,"Duration":190246,"SoundDuration":190246,"Delta":43054653},{"NoteNumber":77,"Velocity":63,"Duration":190246,"SoundDuration":190246,"Delta":43054653},{"NoteNumber":97,"Velocity":85,"Duration":380493,"SoundDuration":380493,"Delta":43435146},{"NoteNumber":89,"Velocity":85,"Duration":380493,"SoundDuration":380493,"Delta":43435146},{"NoteNumber":85,"Velocity":85,"Duration":380493,"SoundDuration":380493,"Delta":43435146},{"NoteNumber":37,"Velocity":58,"Duration":380493,"SoundDuration":380493,"Delta":43435146},{"NoteNumber":49,"Velocity":70,"Duration":380493,"SoundDuration":380493,"Delta":43435146},{"NoteNumber":75,"Velocity":61,"Duration":230468,"SoundDuration":230468,"Delta":44196132},{"NoteNumber":87,"Velocity":61,"Duration":230468,"SoundDuration":230468,"Delta":44196132},{"NoteNumber":71,"Velocity":49,"Duration":230468,"SoundDuration":230468,"Delta":44196132},{"NoteNumber":89,"Velocity":63,"Duration":200440,"SoundDuration":200440,"Delta":44426600},{"NoteNumber":77,"Velocity":63,"Duration":200440,"SoundDuration":200440,"Delta":44426600},{"NoteNumber":73,"Velocity":50,"Duration":200440,"SoundDuration":200440,"Delta":44426600},{"NoteNumber":78,"Velocity":66,"Duration":411014,"SoundDuration":411014,"Delta":44627041},{"NoteNumber":90,"Velocity":66,"Duration":411014,"SoundDuration":411014,"Delta":44627041},{"NoteNumber":75,"Velocity":51,"Duration":411014,"SoundDuration":411014,"Delta":44627041},{"NoteNumber":80,"Velocity":62,"Duration":187254,"SoundDuration":187254,"Delta":45038056},{"NoteNumber":92,"Velocity":62,"Duration":187254,"SoundDuration":187254,"Delta":45038056},{"NoteNumber":77,"Velocity":49,"Duration":187254,"SoundDuration":187254,"Delta":45038056},{"NoteNumber":90,"Velocity":60,"Duration":145716,"SoundDuration":145716,"Delta":45225310},{"NoteNumber":78,"Velocity":60,"Duration":145716,"SoundDuration":145716,"Delta":45225310},{"NoteNumber":75,"Velocity":46,"Duration":194288,"SoundDuration":194288,"Delta":45225310},{"NoteNumber":77,"Velocity":49,"Duration":48572,"SoundDuration":48572,"Delta":45322454},{"NoteNumber":89,"Velocity":49,"Duration":48572,"SoundDuration":48572,"Delta":45322454},{"NoteNumber":78,"Velocity":49,"Duration":48572,"SoundDuration":48572,"Delta":45371026},{"NoteNumber":90,"Velocity":49,"Duration":48572,"SoundDuration":48572,"Delta":45371026},{"NoteNumber":89,"Velocity":62,"Duration":389913,"SoundDuration":389913,"Delta":45419598},{"NoteNumber":77,"Velocity":62,"Duration":389913,"SoundDuration":389913,"Delta":45419598},{"NoteNumber":73,"Velocity":51,"Duration":389913,"SoundDuration":389913,"Delta":45419598},{"NoteNumber":75,"Velocity":55,"Duration":187876,"SoundDuration":187876,"Delta":45809512},{"NoteNumber":87,"Velocity":55,"Duration":187876,"SoundDuration":187876,"Delta":45809512},{"NoteNumber":71,"Velocity":49,"Duration":187876,"SoundDuration":187876,"Delta":45809512},{"NoteNumber":89,"Velocity":52,"Duration":195618,"SoundDuration":195618,"Delta":45997388},{"NoteNumber":77,"Velocity":52,"Duration":195618,"SoundDuration":195618,"Delta":45997388},{"NoteNumber":73,"Velocity":46,"Duration":195618,"SoundDuration":195618,"Delta":45997388},{"NoteNumber":73,"Velocity":50,"Duration":409556,"SoundDuration":409556,"Delta":46193006},{"NoteNumber":85,"Velocity":50,"Duration":409556,"SoundDuration":409556,"Delta":46193006},{"NoteNumber":70,"Velocity":42,"Duration":409556,"SoundDuration":409556,"Delta":46193006},{"NoteNumber":70,"Velocity":52,"Duration":201153,"SoundDuration":201153,"Delta":46602562},{"NoteNumber":82,"Velocity":52,"Duration":201153,"SoundDuration":201153,"Delta":46602562},{"NoteNumber":76,"Velocity":52,"Duration":395441,"SoundDuration":395441,"Delta":46602562},{"NoteNumber":51,"Velocity":43,"Duration":395441,"SoundDuration":395441,"Delta":46602562},{"NoteNumber":67,"Velocity":43,"Duration":201153,"SoundDuration":201153,"Delta":46602562},{"NoteNumber":61,"Velocity":43,"Duration":395441,"SoundDuration":395441,"Delta":46602562},{"NoteNumber":85,"Velocity":54,"Duration":194288,"SoundDuration":194288,"Delta":46803715},{"NoteNumber":73,"Velocity":54,"Duration":194288,"SoundDuration":194288,"Delta":46803715},{"NoteNumber":63,"Velocity":39,"Duration":546306,"SoundDuration":546306,"Delta":46803715},{"NoteNumber":71,"Velocity":56,"Duration":402307,"SoundDuration":402307,"Delta":46998003},{"NoteNumber":75,"Velocity":56,"Duration":402307,"SoundDuration":402307,"Delta":46998003},{"NoteNumber":83,"Velocity":56,"Duration":402307,"SoundDuration":402307,"Delta":46998003},{"NoteNumber":56,"Velocity":44,"Duration":352018,"SoundDuration":352018,"Delta":46998003},{"NoteNumber":68,"Velocity":44,"Duration":352018,"SoundDuration":352018,"Delta":46998003},{"NoteNumber":49,"Velocity":35,"Duration":475592,"SoundDuration":475592,"Delta":47350022},{"NoteNumber":59,"Velocity":36,"Duration":450448,"SoundDuration":450448,"Delta":47375166},{"NoteNumber":73,"Velocity":50,"Duration":425304,"SoundDuration":425304,"Delta":47400310},{"NoteNumber":80,"Velocity":50,"Duration":205507,"SoundDuration":205507,"Delta":47400310},{"NoteNumber":68,"Velocity":50,"Duration":205507,"SoundDuration":205507,"Delta":47400310},{"NoteNumber":65,"Velocity":45,"Duration":425304,"SoundDuration":425304,"Delta":47400310},{"NoteNumber":82,"Velocity":45,"Duration":219796,"SoundDuration":219796,"Delta":47605818},{"NoteNumber":70,"Velocity":45,"Duration":219796,"SoundDuration":219796,"Delta":47605818},{"NoteNumber":78,"Velocity":52,"Duration":208521,"SoundDuration":208521,"Delta":47825614},{"NoteNumber":70,"Velocity":52,"Duration":208521,"SoundDuration":208521,"Delta":47825614},{"NoteNumber":66,"Velocity":52,"Duration":208521,"SoundDuration":208521,"Delta":47825614},{"NoteNumber":54,"Velocity":45,"Duration":389768,"SoundDuration":389768,"Delta":47825614},{"NoteNumber":61,"Velocity":45,"Duration":291593,"SoundDuration":291593,"Delta":47825614},{"NoteNumber":63,"Velocity":35,"Duration":90623,"SoundDuration":90623,"Delta":48034136},{"NoteNumber":66,"Velocity":35,"Duration":90623,"SoundDuration":90623,"Delta":48034136},{"NoteNumber":70,"Velocity":35,"Duration":90623,"SoundDuration":90623,"Delta":48034136},{"NoteNumber":61,"Velocity":35,"Duration":83071,"SoundDuration":83071,"Delta":48124759},{"NoteNumber":61,"Velocity":49,"Duration":42483,"SoundDuration":42483,"Delta":48215383},{"NoteNumber":61,"Velocity":35,"Duration":45177,"SoundDuration":45177,"Delta":48385316},{"NoteNumber":66,"Velocity":35,"Duration":45177,"SoundDuration":45177,"Delta":48385316},{"NoteNumber":70,"Velocity":35,"Duration":45177,"SoundDuration":45177,"Delta":48385316},{"NoteNumber":49,"Velocity":49,"Duration":45177,"SoundDuration":45177,"Delta":48566028},{"NoteNumber":66,"Velocity":35,"Duration":45933,"SoundDuration":45933,"Delta":48746740},{"NoteNumber":61,"Velocity":35,"Duration":45933,"SoundDuration":45933,"Delta":48746740},{"NoteNumber":70,"Velocity":35,"Duration":45933,"SoundDuration":45933,"Delta":48746740},{"NoteNumber":54,"Velocity":51,"Duration":82034,"SoundDuration":82034,"Delta":48930473},{"NoteNumber":63,"Velocity":35,"Duration":90623,"SoundDuration":90623,"Delta":49094542},{"NoteNumber":66,"Velocity":35,"Duration":90623,"SoundDuration":90623,"Delta":49094542},{"NoteNumber":70,"Velocity":35,"Duration":90623,"SoundDuration":90623,"Delta":49094542},{"NoteNumber":61,"Velocity":35,"Duration":83071,"SoundDuration":83071,"Delta":49185166},{"NoteNumber":61,"Velocity":49,"Duration":42864,"SoundDuration":42864,"Delta":49275789},{"NoteNumber":61,"Velocity":35,"Duration":45177,"SoundDuration":45177,"Delta":49447247},{"NoteNumber":70,"Velocity":35,"Duration":45177,"SoundDuration":45177,"Delta":49447247},{"NoteNumber":66,"Velocity":35,"Duration":45177,"SoundDuration":45177,"Delta":49447247},{"NoteNumber":49,"Velocity":49,"Duration":45177,"SoundDuration":45177,"Delta":49627959},{"NoteNumber":70,"Velocity":35,"Duration":45177,"SoundDuration":45177,"Delta":49808671},{"NoteNumber":66,"Velocity":35,"Duration":45177,"SoundDuration":45177,"Delta":49808671},{"NoteNumber":61,"Velocity":35,"Duration":45177,"SoundDuration":45177,"Delta":49808671},{"NoteNumber":56,"Velocity":51,"Duration":90355,"SoundDuration":90355,"Delta":49989383},{"NoteNumber":71,"Velocity":35,"Duration":89418,"SoundDuration":89418,"Delta":50170095},{"NoteNumber":65,"Velocity":35,"Duration":89418,"SoundDuration":89418,"Delta":50170095},{"NoteNumber":63,"Velocity":35,"Duration":89418,"SoundDuration":89418,"Delta":50170095},{"NoteNumber":61,"Velocity":35,"Duration":81790,"SoundDuration":81790,"Delta":50259514},{"NoteNumber":61,"Velocity":51,"Duration":258634,"SoundDuration":258634,"Delta":50348731},{"NoteNumber":71,"Velocity":36,"Duration":88434,"SoundDuration":88434,"Delta":50526284},{"NoteNumber":63,"Velocity":36,"Duration":88434,"SoundDuration":88434,"Delta":50526284},{"NoteNumber":65,"Velocity":36,"Duration":88434,"SoundDuration":88434,"Delta":50526284},{"NoteNumber":61,"Velocity":36,"Duration":88143,"SoundDuration":88143,"Delta":50614719},{"NoteNumber":63,"Velocity":55,"Duration":168146,"SoundDuration":168146,"Delta":50702863},{"NoteNumber":63,"Velocity":38,"Duration":92501,"SoundDuration":92501,"Delta":50878290},{"NoteNumber":65,"Velocity":38,"Duration":92501,"SoundDuration":92501,"Delta":50878290},{"NoteNumber":71,"Velocity":38,"Duration":92501,"SoundDuration":92501,"Delta":50878290},{"NoteNumber":61,"Velocity":38,"Duration":92501,"SoundDuration":92501,"Delta":50970791},{"NoteNumber":65,"Velocity":58,"Duration":171385,"SoundDuration":171385,"Delta":51063293},{"NoteNumber":63,"Velocity":39,"Duration":89418,"SoundDuration":89418,"Delta":51242130},{"NoteNumber":71,"Velocity":39,"Duration":89418,"SoundDuration":89418,"Delta":51242130},{"NoteNumber":65,"Velocity":39,"Duration":89418,"SoundDuration":89418,"Delta":51242130},{"NoteNumber":61,"Velocity":39,"Duration":89418,"SoundDuration":89418,"Delta":51331549},{"NoteNumber":68,"Velocity":61,"Duration":363701,"SoundDuration":363701,"Delta":51420968},{"NoteNumber":63,"Velocity":41,"Duration":90925,"SoundDuration":90925,"Delta":51602819},{"NoteNumber":65,"Velocity":41,"Duration":90925,"SoundDuration":90925,"Delta":51602819},{"NoteNumber":71,"Velocity":41,"Duration":90925,"SoundDuration":90925,"Delta":51602819},{"NoteNumber":61,"Velocity":42,"Duration":90925,"SoundDuration":90925,"Delta":51693744},{"NoteNumber":61,"Velocity":58,"Duration":266062,"SoundDuration":266062,"Delta":51784670},{"NoteNumber":63,"Velocity":43,"Duration":91866,"SoundDuration":91866,"Delta":51966521},{"NoteNumber":65,"Velocity":43,"Duration":91866,"SoundDuration":91866,"Delta":51966521},{"NoteNumber":71,"Velocity":43,"Duration":91866,"SoundDuration":91866,"Delta":51966521},{"NoteNumber":61,"Velocity":44,"Duration":91866,"SoundDuration":91866,"Delta":52058387},{"NoteNumber":54,"Velocity":51,"Duration":84350,"SoundDuration":84350,"Delta":52150254},{"NoteNumber":70,"Velocity":35,"Duration":90623,"SoundDuration":90623,"Delta":52318955},{"NoteNumber":66,"Velocity":35,"Duration":90623,"SoundDuration":90623,"Delta":52318955},{"NoteNumber":63,"Velocity":35,"Duration":90623,"SoundDuration":90623,"Delta":52318955},{"NoteNumber":61,"Velocity":35,"Duration":83071,"SoundDuration":83071,"Delta":52409578},{"NoteNumber":61,"Velocity":49,"Duration":42864,"SoundDuration":42864,"Delta":52500202},{"NoteNumber":70,"Velocity":35,"Duration":45177,"SoundDuration":45177,"Delta":52671660},{"NoteNumber":66,"Velocity":35,"Duration":45177,"SoundDuration":45177,"Delta":52671660},{"NoteNumber":61,"Velocity":35,"Duration":45177,"SoundDuration":45177,"Delta":52671660},{"NoteNumber":49,"Velocity":49,"Duration":45177,"SoundDuration":45177,"Delta":52852372},{"NoteNumber":70,"Velocity":35,"Duration":46091,"SoundDuration":46091,"Delta":53033084},{"NoteNumber":61,"Velocity":35,"Duration":46091,"SoundDuration":46091,"Delta":53033084},{"NoteNumber":66,"Velocity":35,"Duration":46091,"SoundDuration":46091,"Delta":53033084},{"NoteNumber":54,"Velocity":51,"Duration":83565,"SoundDuration":83565,"Delta":53217450},{"NoteNumber":63,"Velocity":35,"Duration":90623,"SoundDuration":90623,"Delta":53384581},{"NoteNumber":66,"Velocity":35,"Duration":90623,"SoundDuration":90623,"Delta":53384581},{"NoteNumber":70,"Velocity":35,"Duration":90623,"SoundDuration":90623,"Delta":53384581},{"NoteNumber":61,"Velocity":35,"Duration":83071,"SoundDuration":83071,"Delta":53475204},{"NoteNumber":61,"Velocity":49,"Duration":43255,"SoundDuration":43255,"Delta":53565828},{"NoteNumber":61,"Velocity":35,"Duration":43896,"SoundDuration":43896,"Delta":53738848},{"NoteNumber":66,"Velocity":35,"Duration":43896,"SoundDuration":43896,"Delta":53738848},{"NoteNumber":70,"Velocity":35,"Duration":43896,"SoundDuration":43896,"Delta":53738848},{"NoteNumber":49,"Velocity":49,"Duration":45177,"SoundDuration":45177,"Delta":53918278},{"NoteNumber":66,"Velocity":35,"Duration":45177,"SoundDuration":45177,"Delta":54098990},{"NoteNumber":61,"Velocity":35,"Duration":45177,"SoundDuration":45177,"Delta":54098990},{"NoteNumber":70,"Velocity":35,"Duration":45177,"SoundDuration":45177,"Delta":54098990},{"NoteNumber":56,"Velocity":51,"Duration":90925,"SoundDuration":90925,"Delta":54279702},{"NoteNumber":63,"Velocity":35,"Duration":90623,"SoundDuration":90623,"Delta":54461553},{"NoteNumber":65,"Velocity":35,"Duration":90623,"SoundDuration":90623,"Delta":54461553},{"NoteNumber":71,"Velocity":35,"Duration":90623,"SoundDuration":90623,"Delta":54461553},{"NoteNumber":61,"Velocity":35,"Duration":83071,"SoundDuration":83071,"Delta":54552177},{"NoteNumber":61,"Velocity":51,"Duration":259690,"SoundDuration":259690,"Delta":54642800},{"NoteNumber":63,"Velocity":36,"Duration":88630,"SoundDuration":88630,"Delta":54821238},{"NoteNumber":71,"Velocity":36,"Duration":88630,"SoundDuration":88630,"Delta":54821238},{"NoteNumber":65,"Velocity":36,"Duration":88630,"SoundDuration":88630,"Delta":54821238},{"NoteNumber":61,"Velocity":36,"Duration":88143,"SoundDuration":88143,"Delta":54909868},{"NoteNumber":63,"Velocity":55,"Duration":167788,"SoundDuration":167788,"Delta":54998012},{"NoteNumber":63,"Velocity":38,"Duration":92815,"SoundDuration":92815,"Delta":55173058},{"NoteNumber":65,"Velocity":38,"Duration":92815,"SoundDuration":92815,"Delta":55173058},{"NoteNumber":71,"Velocity":38,"Duration":92815,"SoundDuration":92815,"Delta":55173058},{"NoteNumber":61,"Velocity":38,"Duration":92815,"SoundDuration":92815,"Delta":55265874},{"NoteNumber":65,"Velocity":58,"Duration":174273,"SoundDuration":174273,"Delta":55358690},{"NoteNumber":63,"Velocity":39,"Duration":90925,"SoundDuration":90925,"Delta":55540541},{"NoteNumber":65,"Velocity":39,"Duration":90925,"SoundDuration":90925,"Delta":55540541},{"NoteNumber":71,"Velocity":39,"Duration":90925,"SoundDuration":90925,"Delta":55540541},{"NoteNumber":61,"Velocity":39,"Duration":90925,"SoundDuration":90925,"Delta":55631467},{"NoteNumber":68,"Velocity":61,"Duration":363701,"SoundDuration":363701,"Delta":55722392},{"NoteNumber":71,"Velocity":41,"Duration":90925,"SoundDuration":90925,"Delta":55904243},{"NoteNumber":65,"Velocity":41,"Duration":90925,"SoundDuration":90925,"Delta":55904243},{"NoteNumber":63,"Velocity":41,"Duration":90925,"SoundDuration":90925,"Delta":55904243},{"NoteNumber":61,"Velocity":42,"Duration":90925,"SoundDuration":90925,"Delta":55995169},{"NoteNumber":61,"Velocity":58,"Duration":268867,"SoundDuration":268867,"Delta":56086094},{"NoteNumber":71,"Velocity":43,"Duration":92183,"SoundDuration":92183,"Delta":56270460},{"NoteNumber":65,"Velocity":43,"Duration":92183,"SoundDuration":92183,"Delta":56270460},{"NoteNumber":63,"Velocity":43,"Duration":92183,"SoundDuration":92183,"Delta":56270460},{"NoteNumber":61,"Velocity":44,"Duration":92182,"SoundDuration":92182,"Delta":56362643},{"NoteNumber":66,"Velocity":58,"Duration":272776,"SoundDuration":272776,"Delta":56454826},{"NoteNumber":61,"Velocity":58,"Duration":272776,"SoundDuration":272776,"Delta":56454826},{"NoteNumber":54,"Velocity":54,"Duration":272776,"SoundDuration":272776,"Delta":56454826},{"NoteNumber":58,"Velocity":54,"Duration":272776,"SoundDuration":272776,"Delta":56454826},{"NoteNumber":66,"Velocity":55,"Duration":90925,"SoundDuration":90925,"Delta":56727603},{"NoteNumber":70,"Velocity":55,"Duration":90925,"SoundDuration":90925,"Delta":56727603},{"NoteNumber":61,"Velocity":50,"Duration":90925,"SoundDuration":90925,"Delta":56727603},{"NoteNumber":70,"Velocity":57,"Duration":90419,"SoundDuration":90419,"Delta":56818528},{"NoteNumber":73,"Velocity":57,"Duration":90419,"SoundDuration":90419,"Delta":56818528},{"NoteNumber":66,"Velocity":50,"Duration":90419,"SoundDuration":90419,"Delta":56818528},{"NoteNumber":73,"Velocity":61,"Duration":91555,"SoundDuration":91555,"Delta":56999880},{"NoteNumber":78,"Velocity":61,"Duration":91555,"SoundDuration":91555,"Delta":56999880},{"NoteNumber":70,"Velocity":54,"Duration":91555,"SoundDuration":91555,"Delta":56999880},{"NoteNumber":78,"Velocity":66,"Duration":92711,"SoundDuration":92711,"Delta":57183513},{"NoteNumber":82,"Velocity":66,"Duration":92711,"SoundDuration":92711,"Delta":57183513},{"NoteNumber":73,"Velocity":56,"Duration":92711,"SoundDuration":92711,"Delta":57183513},{"NoteNumber":85,"Velocity":63,"Duration":93902,"SoundDuration":93902,"Delta":57369581},{"NoteNumber":82,"Velocity":63,"Duration":93902,"SoundDuration":93902,"Delta":57369581},{"NoteNumber":78,"Velocity":54,"Duration":93902,"SoundDuration":93902,"Delta":57369581},{"NoteNumber":90,"Velocity":76,"Duration":190246,"SoundDuration":190246,"Delta":57558050},{"NoteNumber":85,"Velocity":76,"Duration":190246,"SoundDuration":190246,"Delta":57558050},{"NoteNumber":82,"Velocity":63,"Duration":95123,"SoundDuration":95123,"Delta":57558050},{"NoteNumber":42,"Velocity":58,"Duration":428054,"SoundDuration":428054,"Delta":57890982},{"NoteNumber":49,"Velocity":61,"Duration":404273,"SoundDuration":404273,"Delta":57914762},{"NoteNumber":90,"Velocity":85,"Duration":380493,"SoundDuration":380493,"Delta":57938543},{"NoteNumber":97,"Velocity":85,"Duration":380493,"SoundDuration":380493,"Delta":57938543},{"NoteNumber":102,"Velocity":85,"Duration":380493,"SoundDuration":380493,"Delta":57938543},{"NoteNumber":58,"Velocity":70,"Duration":380493,"SoundDuration":380493,"Delta":57938543},{"NoteNumber":61,"Velocity":50,"Duration":91229,"SoundDuration":91229,"Delta":58699529},{"NoteNumber":66,"Velocity":50,"Duration":91229,"SoundDuration":91229,"Delta":58699529},{"NoteNumber":54,"Velocity":32,"Duration":91229,"SoundDuration":91229,"Delta":58699529},{"NoteNumber":57,"Velocity":40,"Duration":91229,"SoundDuration":91229,"Delta":58699529},{"NoteNumber":66,"Velocity":46,"Duration":93011,"SoundDuration":93011,"Delta":58881989},{"NoteNumber":68,"Velocity":46,"Duration":93011,"SoundDuration":93011,"Delta":58881989},{"NoteNumber":54,"Velocity":28,"Duration":93011,"SoundDuration":93011,"Delta":58881989},{"NoteNumber":59,"Velocity":35,"Duration":93011,"SoundDuration":93011,"Delta":58881989},{"NoteNumber":66,"Velocity":53,"Duration":372047,"SoundDuration":372047,"Delta":59068012},{"NoteNumber":69,"Velocity":53,"Duration":372047,"SoundDuration":372047,"Delta":59068012},{"NoteNumber":54,"Velocity":36,"Duration":372047,"SoundDuration":372047,"Delta":59068012},{"NoteNumber":61,"Velocity":45,"Duration":372047,"SoundDuration":372047,"Delta":59068012},{"NoteNumber":66,"Velocity":48,"Duration":91519,"SoundDuration":91519,"Delta":59440059},{"NoteNumber":71,"Velocity":48,"Duration":91519,"SoundDuration":91519,"Delta":59440059},{"NoteNumber":54,"Velocity":32,"Duration":91519,"SoundDuration":91519,"Delta":59440059},{"NoteNumber":62,"Velocity":40,"Duration":91519,"SoundDuration":91519,"Delta":59440059},{"NoteNumber":66,"Velocity":37,"Duration":95511,"SoundDuration":95511,"Delta":59623098},{"NoteNumber":69,"Velocity":44,"Duration":95511,"SoundDuration":95511,"Delta":59623098},{"NoteNumber":54,"Velocity":28,"Duration":95511,"SoundDuration":95511,"Delta":59623098},{"NoteNumber":61,"Velocity":35,"Duration":95511,"SoundDuration":95511,"Delta":59623098},{"NoteNumber":68,"Velocity":37,"Duration":45177,"SoundDuration":45177,"Delta":59718609},{"NoteNumber":69,"Velocity":37,"Duration":45177,"SoundDuration":45177,"Delta":59763787},{"NoteNumber":65,"Velocity":39,"Duration":387247,"SoundDuration":387247,"Delta":59808965},{"NoteNumber":68,"Velocity":47,"Duration":387247,"SoundDuration":387247,"Delta":59808965},{"NoteNumber":54,"Velocity":41,"Duration":387247,"SoundDuration":387247,"Delta":59808965},{"NoteNumber":59,"Velocity":41,"Duration":387247,"SoundDuration":387247,"Delta":59808965},{"NoteNumber":71,"Velocity":61,"Duration":385371,"SoundDuration":385371,"Delta":60196212},{"NoteNumber":74,"Velocity":61,"Duration":189753,"SoundDuration":189753,"Delta":60196212},{"NoteNumber":54,"Velocity":42,"Duration":385371,"SoundDuration":385371,"Delta":60196212},{"NoteNumber":65,"Velocity":53,"Duration":385371,"SoundDuration":385371,"Delta":60196212},{"NoteNumber":73,"Velocity":57,"Duration":195618,"SoundDuration":195618,"Delta":60385965},{"NoteNumber":69,"Velocity":60,"Duration":391235,"SoundDuration":391235,"Delta":60581583},{"NoteNumber":78,"Velocity":60,"Duration":391235,"SoundDuration":391235,"Delta":60581583},{"NoteNumber":66,"Velocity":50,"Duration":391235,"SoundDuration":391235,"Delta":60581583},{"NoteNumber":54,"Velocity":40,"Duration":391235,"SoundDuration":391235,"Delta":60581583},{"NoteNumber":69,"Velocity":50,"Duration":393779,"SoundDuration":393779,"Delta":60972819},{"NoteNumber":72,"Velocity":50,"Duration":393779,"SoundDuration":393779,"Delta":60972819},{"NoteNumber":77,"Velocity":61,"Duration":189753,"SoundDuration":189753,"Delta":60972819},{"NoteNumber":65,"Velocity":53,"Duration":189753,"SoundDuration":189753,"Delta":60972819},{"NoteNumber":53,"Velocity":42,"Duration":393779,"SoundDuration":393779,"Delta":60972819},{"NoteNumber":81,"Velocity":59,"Duration":204025,"SoundDuration":204025,"Delta":61162573},{"NoteNumber":63,"Velocity":49,"Duration":204025,"SoundDuration":204025,"Delta":61162573},{"NoteNumber":69,"Velocity":45,"Duration":387247,"SoundDuration":387247,"Delta":61366599},{"NoteNumber":73,"Velocity":45,"Duration":387247,"SoundDuration":387247,"Delta":61366599},{"NoteNumber":81,"Velocity":56,"Duration":387247,"SoundDuration":387247,"Delta":61366599},{"NoteNumber":52,"Velocity":40,"Duration":387247,"SoundDuration":387247,"Delta":61366599},{"NoteNumber":64,"Velocity":50,"Duration":387247,"SoundDuration":387247,"Delta":61366599},{"NoteNumber":68,"Velocity":45,"Duration":394637,"SoundDuration":394637,"Delta":61753846},{"NoteNumber":72,"Velocity":45,"Duration":394637,"SoundDuration":394637,"Delta":61753846},{"NoteNumber":76,"Velocity":55,"Duration":394637,"SoundDuration":394637,"Delta":61753846},{"NoteNumber":62,"Velocity":45,"Duration":394637,"SoundDuration":394637,"Delta":61753846},{"NoteNumber":52,"Velocity":36,"Duration":394637,"SoundDuration":394637,"Delta":61753846},{"NoteNumber":57,"Velocity":56,"Duration":189119,"SoundDuration":189119,"Delta":62148483},{"NoteNumber":66,"Velocity":38,"Duration":91519,"SoundDuration":91519,"Delta":62337602},{"NoteNumber":69,"Velocity":38,"Duration":91519,"SoundDuration":91519,"Delta":62337602},{"NoteNumber":73,"Velocity":38,"Duration":91519,"SoundDuration":91519,"Delta":62337602},{"NoteNumber":64,"Velocity":38,"Duration":83892,"SoundDuration":83892,"Delta":62429122},{"NoteNumber":76,"Velocity":57,"Duration":172502,"SoundDuration":172502,"Delta":62520641},{"NoteNumber":64,"Velocity":38,"Duration":45177,"SoundDuration":45177,"Delta":62693144},{"NoteNumber":69,"Velocity":38,"Duration":45177,"SoundDuration":45177,"Delta":62693144},{"NoteNumber":73,"Velocity":38,"Duration":45177,"SoundDuration":45177,"Delta":62693144},{"NoteNumber":52,"Velocity":53,"Duration":390364,"SoundDuration":390364,"Delta":62873856},{"NoteNumber":69,"Velocity":38,"Duration":48240,"SoundDuration":48240,"Delta":63058687},{"NoteNumber":64,"Velocity":38,"Duration":48240,"SoundDuration":48240,"Delta":63058687},{"NoteNumber":73,"Velocity":38,"Duration":48240,"SoundDuration":48240,"Delta":63058687},{"NoteNumber":76,"Velocity":38,"Duration":48240,"SoundDuration":48240,"Delta":63058687},{"NoteNumber":69,"Velocity":45,"Duration":91229,"SoundDuration":91229,"Delta":63264220},{"NoteNumber":73,"Velocity":55,"Duration":91229,"SoundDuration":91229,"Delta":63264220},{"NoteNumber":57,"Velocity":32,"Duration":91229,"SoundDuration":91229,"Delta":63264220},{"NoteNumber":64,"Velocity":40,"Duration":91229,"SoundDuration":91229,"Delta":63264220},{"NoteNumber":69,"Velocity":41,"Duration":93011,"SoundDuration":93011,"Delta":63446680},{"NoteNumber":74,"Velocity":50,"Duration":93011,"SoundDuration":93011,"Delta":63446680},{"NoteNumber":57,"Velocity":28,"Duration":93011,"SoundDuration":93011,"Delta":63446680},{"NoteNumber":65,"Velocity":35,"Duration":93011,"SoundDuration":93011,"Delta":63446680},{"NoteNumber":70,"Velocity":47,"Duration":372047,"SoundDuration":372047,"Delta":63632703},{"NoteNumber":76,"Velocity":58,"Duration":372047,"SoundDuration":372047,"Delta":63632703},{"NoteNumber":57,"Velocity":36,"Duration":372047,"SoundDuration":372047,"Delta":63632703},{"NoteNumber":67,"Velocity":45,"Duration":372047,"SoundDuration":372047,"Delta":63632703},{"NoteNumber":70,"Velocity":48,"Duration":91519,"SoundDuration":91519,"Delta":64004750},{"NoteNumber":77,"Velocity":52,"Duration":91519,"SoundDuration":91519,"Delta":64004750},{"NoteNumber":57,"Velocity":32,"Duration":91519,"SoundDuration":91519,"Delta":64004750},{"NoteNumber":69,"Velocity":40,"Duration":91519,"SoundDuration":91519,"Delta":64004750},{"NoteNumber":70,"Velocity":37,"Duration":95511,"SoundDuration":95511,"Delta":64187789},{"NoteNumber":76,"Velocity":48,"Duration":95511,"SoundDuration":95511,"Delta":64187789},{"NoteNumber":57,"Velocity":28,"Duration":95511,"SoundDuration":95511,"Delta":64187789},{"NoteNumber":67,"Velocity":35,"Duration":95511,"SoundDuration":95511,"Delta":64187789},{"NoteNumber":74,"Velocity":46,"Duration":45322,"SoundDuration":45322,"Delta":64283300},{"NoteNumber":76,"Velocity":45,"Duration":45322,"SoundDuration":45322,"Delta":64328623},{"NoteNumber":70,"Velocity":44,"Duration":387247,"SoundDuration":387247,"Delta":64373945},{"NoteNumber":74,"Velocity":57,"Duration":387247,"SoundDuration":387247,"Delta":64373945},{"NoteNumber":57,"Velocity":31,"Duration":387247,"SoundDuration":387247,"Delta":64373945},{"NoteNumber":65,"Velocity":39,"Duration":387247,"SoundDuration":387247,"Delta":64373945},{"NoteNumber":65,"Velocity":54,"Duration":95511,"SoundDuration":95511,"Delta":64761192},{"NoteNumber":72,"Velocity":54,"Duration":95511,"SoundDuration":95511,"Delta":64761192},{"NoteNumber":57,"Velocity":36,"Duration":95511,"SoundDuration":95511,"Delta":64761192},{"NoteNumber":64,"Velocity":45,"Duration":95511,"SoundDuration":95511,"Delta":64761192},{"NoteNumber":65,"Velocity":50,"Duration":98489,"SoundDuration":98489,"Delta":64952214},{"NoteNumber":70,"Velocity":50,"Duration":98489,"SoundDuration":98489,"Delta":64952214},{"NoteNumber":57,"Velocity":31,"Duration":98489,"SoundDuration":98489,"Delta":64952214},{"NoteNumber":62,"Velocity":39,"Duration":98489,"SoundDuration":98489,"Delta":64952214},{"NoteNumber":64,"Velocity":55,"Duration":391236,"SoundDuration":391236,"Delta":65149194},{"NoteNumber":69,"Velocity":55,"Duration":391236,"SoundDuration":391236,"Delta":65149194},{"NoteNumber":61,"Velocity":44,"Duration":391236,"SoundDuration":391236,"Delta":65149194},{"NoteNumber":57,"Velocity":35,"Duration":391236,"SoundDuration":391236,"Delta":65149194},{"NoteNumber":70,"Velocity":46,"Duration":385469,"SoundDuration":385469,"Delta":65540430},{"NoteNumber":76,"Velocity":57,"Duration":188489,"SoundDuration":188489,"Delta":65540430},{"NoteNumber":67,"Velocity":45,"Duration":188489,"SoundDuration":188489,"Delta":65540430},{"NoteNumber":77,"Velocity":61,"Duration":196979,"SoundDuration":196979,"Delta":65728919},{"NoteNumber":62,"Velocity":48,"Duration":196979,"SoundDuration":196979,"Delta":65728919},{"NoteNumber":70,"Velocity":54,"Duration":384640,"SoundDuration":384640,"Delta":65925899},{"NoteNumber":76,"Velocity":60,"Duration":384640,"SoundDuration":384640,"Delta":65925899},{"NoteNumber":79,"Velocity":66,"Duration":384640,"SoundDuration":384640,"Delta":65925899},{"NoteNumber":61,"Velocity":53,"Duration":384640,"SoundDuration":384640,"Delta":65925899},{"NoteNumber":67,"Velocity":49,"Duration":400090,"SoundDuration":400090,"Delta":66310539},{"NoteNumber":70,"Velocity":49,"Duration":192319,"SoundDuration":192319,"Delta":66310539},{"NoteNumber":73,"Velocity":60,"Duration":400090,"SoundDuration":400090,"Delta":66310539},{"NoteNumber":57,"Velocity":49,"Duration":400090,"SoundDuration":400090,"Delta":66310539},{"NoteNumber":69,"Velocity":53,"Duration":207770,"SoundDuration":207770,"Delta":66502859},{"NoteNumber":62,"Velocity":70,"Duration":190391,"SoundDuration":190391,"Delta":66710629},{"NoteNumber":70,"Velocity":45,"Duration":91519,"SoundDuration":91519,"Delta":66901021},{"NoteNumber":74,"Velocity":45,"Duration":91519,"SoundDuration":91519,"Delta":66901021},{"NoteNumber":77,"Velocity":45,"Duration":91519,"SoundDuration":91519,"Delta":66901021},{"NoteNumber":69,"Velocity":45,"Duration":91519,"SoundDuration":91519,"Delta":66992540},{"NoteNumber":81,"Velocity":69,"Duration":174084,"SoundDuration":174084,"Delta":67084059},{"NoteNumber":69,"Velocity":45,"Duration":45907,"SoundDuration":45907,"Delta":67258144},{"NoteNumber":74,"Velocity":45,"Duration":45907,"SoundDuration":45907,"Delta":67258144},{"NoteNumber":77,"Velocity":45,"Duration":45907,"SoundDuration":45907,"Delta":67258144},{"NoteNumber":69,"Velocity":66,"Duration":237903,"SoundDuration":237903,"Delta":67441776},{"NoteNumber":74,"Velocity":45,"Duration":49413,"SoundDuration":49413,"Delta":67630265},{"NoteNumber":69,"Velocity":45,"Duration":207878,"SoundDuration":207878,"Delta":67630265},{"NoteNumber":77,"Velocity":45,"Duration":49413,"SoundDuration":49413,"Delta":67630265},{"NoteNumber":81,"Velocity":45,"Duration":49413,"SoundDuration":49413,"Delta":67630265},{"NoteNumber":69,"Velocity":45,"Duration":91229,"SoundDuration":91229,"Delta":67838144},{"NoteNumber":71,"Velocity":45,"Duration":91229,"SoundDuration":91229,"Delta":67838144},{"NoteNumber":74,"Velocity":55,"Duration":91229,"SoundDuration":91229,"Delta":67838144},{"NoteNumber":65,"Velocity":40,"Duration":91229,"SoundDuration":91229,"Delta":67838144},{"NoteNumber":69,"Velocity":41,"Duration":93011,"SoundDuration":93011,"Delta":68020603},{"NoteNumber":71,"Velocity":41,"Duration":93011,"SoundDuration":93011,"Delta":68020603},{"NoteNumber":76,"Velocity":50,"Duration":93011,"SoundDuration":93011,"Delta":68020603},{"NoteNumber":64,"Velocity":35,"Duration":93011,"SoundDuration":93011,"Delta":68020603},{"NoteNumber":69,"Velocity":47,"Duration":372046,"SoundDuration":372046,"Delta":68206627},{"NoteNumber":71,"Velocity":47,"Duration":372046,"SoundDuration":372046,"Delta":68206627},{"NoteNumber":77,"Velocity":58,"Duration":372046,"SoundDuration":372046,"Delta":68206627},{"NoteNumber":62,"Velocity":45,"Duration":372046,"SoundDuration":372046,"Delta":68206627},{"NoteNumber":71,"Velocity":48,"Duration":91519,"SoundDuration":91519,"Delta":68578674},{"NoteNumber":69,"Velocity":48,"Duration":91519,"SoundDuration":91519,"Delta":68578674},{"NoteNumber":76,"Velocity":52,"Duration":91519,"SoundDuration":91519,"Delta":68578674},{"NoteNumber":64,"Velocity":40,"Duration":91519,"SoundDuration":91519,"Delta":68578674},{"NoteNumber":69,"Velocity":37,"Duration":95511,"SoundDuration":95511,"Delta":68761712},{"NoteNumber":71,"Velocity":37,"Duration":95511,"SoundDuration":95511,"Delta":68761712},{"NoteNumber":74,"Velocity":48,"Duration":95511,"SoundDuration":95511,"Delta":68761712},{"NoteNumber":65,"Velocity":35,"Duration":95511,"SoundDuration":95511,"Delta":68761712},{"NoteNumber":72,"Velocity":46,"Duration":45322,"SoundDuration":45322,"Delta":68857223},{"NoteNumber":74,"Velocity":45,"Duration":45322,"SoundDuration":45322,"Delta":68902546},{"NoteNumber":65,"Velocity":44,"Duration":387247,"SoundDuration":387247,"Delta":68947869},{"NoteNumber":69,"Velocity":44,"Duration":387247,"SoundDuration":387247,"Delta":68947869},{"NoteNumber":72,"Velocity":57,"Duration":387247,"SoundDuration":387247,"Delta":68947869},{"NoteNumber":64,"Velocity":39,"Duration":387247,"SoundDuration":387247,"Delta":68947869},{"NoteNumber":65,"Velocity":54,"Duration":191022,"SoundDuration":191022,"Delta":69335116},{"NoteNumber":69,"Velocity":54,"Duration":191022,"SoundDuration":191022,"Delta":69335116},{"NoteNumber":71,"Velocity":54,"Duration":191022,"SoundDuration":191022,"Delta":69335116},{"NoteNumber":62,"Velocity":45,"Duration":191022,"SoundDuration":191022,"Delta":69335116},{"NoteNumber":65,"Velocity":50,"Duration":196979,"SoundDuration":196979,"Delta":69526138},{"NoteNumber":69,"Velocity":50,"Duration":196979,"SoundDuration":196979,"Delta":69526138},{"NoteNumber":72,"Velocity":50,"Duration":196979,"SoundDuration":196979,"Delta":69526138},{"NoteNumber":60,"Velocity":39,"Duration":196979,"SoundDuration":196979,"Delta":69526138},{"NoteNumber":65,"Velocity":55,"Duration":391236,"SoundDuration":391236,"Delta":69723117},{"NoteNumber":69,"Velocity":55,"Duration":391236,"SoundDuration":391236,"Delta":69723117},{"NoteNumber":74,"Velocity":55,"Duration":391236,"SoundDuration":391236,"Delta":69723117},{"NoteNumber":59,"Velocity":44,"Duration":391236,"SoundDuration":391236,"Delta":69723117},{"NoteNumber":63,"Velocity":46,"Duration":391796,"SoundDuration":391796,"Delta":70114353},{"NoteNumber":69,"Velocity":57,"Duration":188489,"SoundDuration":188489,"Delta":70114353},{"NoteNumber":53,"Velocity":45,"Duration":391796,"SoundDuration":391796,"Delta":70114353},{"NoteNumber":59,"Velocity":45,"Duration":391796,"SoundDuration":391796,"Delta":70114353},{"NoteNumber":71,"Velocity":61,"Duration":203306,"SoundDuration":203306,"Delta":70302843},{"NoteNumber":63,"Velocity":54,"Duration":384640,"SoundDuration":384640,"Delta":70506150},{"NoteNumber":69,"Velocity":60,"Duration":384640,"SoundDuration":384640,"Delta":70506150},{"NoteNumber":72,"Velocity":66,"Duration":384640,"SoundDuration":384640,"Delta":70506150},{"NoteNumber":77,"Velocity":59,"Duration":384640,"SoundDuration":384640,"Delta":70506150},{"NoteNumber":66,"Velocity":49,"Duration":404139,"SoundDuration":404139,"Delta":70890790},{"NoteNumber":63,"Velocity":49,"Duration":404139,"SoundDuration":404139,"Delta":70890790},{"NoteNumber":57,"Velocity":41,"Duration":404139,"SoundDuration":404139,"Delta":70890790},{"NoteNumber":59,"Velocity":41,"Duration":404139,"SoundDuration":404139,"Delta":70890790},{"NoteNumber":71,"Velocity":60,"Duration":404139,"SoundDuration":404139,"Delta":70890790},{"NoteNumber":78,"Velocity":55,"Duration":404139,"SoundDuration":404139,"Delta":70890790},{"NoteNumber":35,"Velocity":60,"Duration":208521,"SoundDuration":208521,"Delta":71086408},{"NoteNumber":47,"Velocity":60,"Duration":208521,"SoundDuration":208521,"Delta":71086408},{"NoteNumber":28,"Velocity":70,"Duration":194957,"SoundDuration":194957,"Delta":71294929},{"NoteNumber":40,"Velocity":70,"Duration":194957,"SoundDuration":194957,"Delta":71294929},{"NoteNumber":61,"Velocity":45,"Duration":93318,"SoundDuration":93318,"Delta":71489886},{"NoteNumber":64,"Velocity":45,"Duration":93318,"SoundDuration":93318,"Delta":71489886},{"NoteNumber":68,"Velocity":45,"Duration":93318,"SoundDuration":93318,"Delta":71489886},{"NoteNumber":59,"Velocity":45,"Duration":93318,"SoundDuration":93318,"Delta":71583205},{"NoteNumber":71,"Velocity":70,"Duration":175151,"SoundDuration":175151,"Delta":71676523},{"NoteNumber":59,"Velocity":45,"Duration":45759,"SoundDuration":45759,"Delta":71851675},{"NoteNumber":64,"Velocity":45,"Duration":45759,"SoundDuration":45759,"Delta":71851675},{"NoteNumber":68,"Velocity":45,"Duration":45759,"SoundDuration":45759,"Delta":71851675},{"NoteNumber":47,"Velocity":66,"Duration":396325,"SoundDuration":396325,"Delta":72034714},{"NoteNumber":64,"Velocity":45,"Duration":49586,"SoundDuration":49586,"Delta":72221968},{"NoteNumber":59,"Velocity":45,"Duration":49586,"SoundDuration":49586,"Delta":72221968},{"NoteNumber":68,"Velocity":45,"Duration":49586,"SoundDuration":49586,"Delta":72221968},{"NoteNumber":71,"Velocity":45,"Duration":49586,"SoundDuration":49586,"Delta":72221968},{"NoteNumber":45,"Velocity":66,"Duration":384076,"SoundDuration":384076,"Delta":72431040},{"NoteNumber":52,"Velocity":66,"Duration":384076,"SoundDuration":384076,"Delta":72431040},{"NoteNumber":64,"Velocity":63,"Duration":189119,"SoundDuration":189119,"Delta":72625997},{"NoteNumber":74,"Velocity":63,"Duration":189119,"SoundDuration":189119,"Delta":72625997},{"NoteNumber":76,"Velocity":63,"Duration":189119,"SoundDuration":189119,"Delta":72625997},{"NoteNumber":66,"Velocity":67,"Duration":183632,"SoundDuration":183632,"Delta":72815116},{"NoteNumber":78,"Velocity":67,"Duration":183632,"SoundDuration":183632,"Delta":72815116},{"NoteNumber":62,"Velocity":58,"Duration":183632,"SoundDuration":183632,"Delta":72815116},{"NoteNumber":68,"Velocity":63,"Duration":187876,"SoundDuration":187876,"Delta":72998748},{"NoteNumber":80,"Velocity":63,"Duration":187876,"SoundDuration":187876,"Delta":72998748},{"NoteNumber":68,"Velocity":68,"Duration":380839,"SoundDuration":380839,"Delta":73186624},{"NoteNumber":74,"Velocity":68,"Duration":187876,"SoundDuration":187876,"Delta":73186624},{"NoteNumber":78,"Velocity":68,"Duration":187876,"SoundDuration":187876,"Delta":73186624},{"NoteNumber":40,"Velocity":59,"Duration":187876,"SoundDuration":187876,"Delta":73186624},{"NoteNumber":72,"Velocity":63,"Duration":192963,"SoundDuration":192963,"Delta":73374500},{"NoteNumber":76,"Velocity":63,"Duration":192963,"SoundDuration":192963,"Delta":73374500},{"NoteNumber":64,"Velocity":56,"Duration":189119,"SoundDuration":189119,"Delta":73567464},{"NoteNumber":69,"Velocity":56,"Duration":189119,"SoundDuration":189119,"Delta":73567464},{"NoteNumber":76,"Velocity":67,"Duration":189119,"SoundDuration":189119,"Delta":73567464},{"NoteNumber":45,"Velocity":56,"Duration":189119,"SoundDuration":189119,"Delta":73567464},{"NoteNumber":52,"Velocity":56,"Duration":189119,"SoundDuration":189119,"Delta":73567464},{"NoteNumber":61,"Velocity":56,"Duration":189119,"SoundDuration":189119,"Delta":73567464},{"NoteNumber":68,"Velocity":53,"Duration":91519,"SoundDuration":91519,"Delta":73756583},{"NoteNumber":72,"Velocity":63,"Duration":91519,"SoundDuration":91519,"Delta":73756583},{"NoteNumber":63,"Velocity":51,"Duration":91519,"SoundDuration":91519,"Delta":73756583},{"NoteNumber":69,"Velocity":56,"Duration":91229,"SoundDuration":91229,"Delta":73939622},{"NoteNumber":73,"Velocity":67,"Duration":91229,"SoundDuration":91229,"Delta":73939622},{"NoteNumber":64,"Velocity":55,"Duration":91229,"SoundDuration":91229,"Delta":73939622},{"NoteNumber":73,"Velocity":59,"Duration":91815,"SoundDuration":91815,"Delta":74122371},{"NoteNumber":76,"Velocity":70,"Duration":91815,"SoundDuration":91815,"Delta":74122371},{"NoteNumber":69,"Velocity":58,"Duration":91815,"SoundDuration":91815,"Delta":74122371},{"NoteNumber":76,"Velocity":62,"Duration":92415,"SoundDuration":92415,"Delta":74306296},{"NoteNumber":81,"Velocity":74,"Duration":92415,"SoundDuration":92415,"Delta":74306296},{"NoteNumber":73,"Velocity":62,"Duration":92415,"SoundDuration":92415,"Delta":74306296},{"NoteNumber":85,"Velocity":78,"Duration":93011,"SoundDuration":93011,"Delta":74491424},{"NoteNumber":81,"Velocity":66,"Duration":93011,"SoundDuration":93011,"Delta":74491424},{"NoteNumber":76,"Velocity":65,"Duration":93011,"SoundDuration":93011,"Delta":74491424},{"NoteNumber":88,"Velocity":81,"Duration":190391,"SoundDuration":190391,"Delta":74677755},{"NoteNumber":81,"Velocity":68,"Duration":190391,"SoundDuration":190391,"Delta":74677755},{"NoteNumber":66,"Velocity":69,"Duration":190391,"SoundDuration":190391,"Delta":74677755},{"NoteNumber":73,"Velocity":69,"Duration":190391,"SoundDuration":190391,"Delta":74677755},{"NoteNumber":85,"Velocity":65,"Duration":194288,"SoundDuration":194288,"Delta":74868146},{"NoteNumber":76,"Velocity":55,"Duration":194288,"SoundDuration":194288,"Delta":74868146},{"NoteNumber":69,"Velocity":64,"Duration":194288,"SoundDuration":194288,"Delta":75062434},{"NoteNumber":76,"Velocity":74,"Duration":194288,"SoundDuration":194288,"Delta":75062434},{"NoteNumber":78,"Velocity":60,"Duration":391267,"SoundDuration":391267,"Delta":75062434},{"NoteNumber":64,"Velocity":54,"Duration":196979,"SoundDuration":196979,"Delta":75256722},{"NoteNumber":73,"Velocity":64,"Duration":196979,"SoundDuration":196979,"Delta":75256722},{"NoteNumber":69,"Velocity":63,"Duration":380782,"SoundDuration":380782,"Delta":75453702},{"NoteNumber":80,"Velocity":77,"Duration":190391,"SoundDuration":190391,"Delta":75453702},{"NoteNumber":59,"Velocity":59,"Duration":190391,"SoundDuration":190391,"Delta":75453702},{"NoteNumber":63,"Velocity":63,"Duration":380782,"SoundDuration":380782,"Delta":75453702},{"NoteNumber":71,"Velocity":70,"Duration":190391,"SoundDuration":190391,"Delta":75644093},{"NoteNumber":47,"Velocity":53,"Duration":190391,"SoundDuration":190391,"Delta":75644093},{"NoteNumber":64,"Velocity":64,"Duration":194957,"SoundDuration":194957,"Delta":75834485},{"NoteNumber":68,"Velocity":76,"Duration":194957,"SoundDuration":194957,"Delta":75834485},{"NoteNumber":76,"Velocity":76,"Duration":194957,"SoundDuration":194957,"Delta":75834485},{"NoteNumber":52,"Velocity":63,"Duration":194957,"SoundDuration":194957,"Delta":75834485},{"NoteNumber":88,"Velocity":97,"Duration":194957,"SoundDuration":194957,"Delta":76224399},{"NoteNumber":80,"Velocity":81,"Duration":194957,"SoundDuration":194957,"Delta":76224399},{"NoteNumber":76,"Velocity":80,"Duration":194957,"SoundDuration":194957,"Delta":76224399},{"NoteNumber":40,"Velocity":69,"Duration":194957,"SoundDuration":194957,"Delta":76224399},{"NoteNumber":48,"Velocity":51,"Duration":83565,"SoundDuration":83565,"Delta":77004227},{"NoteNumber":57,"Velocity":35,"Duration":90623,"SoundDuration":90623,"Delta":77171358},{"NoteNumber":60,"Velocity":35,"Duration":90623,"SoundDuration":90623,"Delta":77171358},{"NoteNumber":64,"Velocity":35,"Duration":90623,"SoundDuration":90623,"Delta":77171358},{"NoteNumber":55,"Velocity":35,"Duration":83071,"SoundDuration":83071,"Delta":77261981},{"NoteNumber":55,"Velocity":49,"Duration":42608,"SoundDuration":42608,"Delta":77352605},{"NoteNumber":55,"Velocity":35,"Duration":45178,"SoundDuration":45178,"Delta":77523040},{"NoteNumber":60,"Velocity":35,"Duration":45178,"SoundDuration":45178,"Delta":77523040},{"NoteNumber":64,"Velocity":35,"Duration":45178,"SoundDuration":45178,"Delta":77523040},{"NoteNumber":43,"Velocity":49,"Duration":45178,"SoundDuration":45178,"Delta":77703752},{"NoteNumber":55,"Velocity":35,"Duration":45933,"SoundDuration":45933,"Delta":77884464},{"NoteNumber":60,"Velocity":35,"Duration":45933,"SoundDuration":45933,"Delta":77884464},{"NoteNumber":64,"Velocity":35,"Duration":45933,"SoundDuration":45933,"Delta":77884464},{"NoteNumber":48,"Velocity":51,"Duration":82034,"SoundDuration":82034,"Delta":78068197},{"NoteNumber":57,"Velocity":35,"Duration":90623,"SoundDuration":90623,"Delta":78232266},{"NoteNumber":60,"Velocity":35,"Duration":90623,"SoundDuration":90623,"Delta":78232266},{"NoteNumber":64,"Velocity":35,"Duration":90623,"SoundDuration":90623,"Delta":78232266},{"NoteNumber":55,"Velocity":35,"Duration":83071,"SoundDuration":83071,"Delta":78322890},{"NoteNumber":55,"Velocity":49,"Duration":42608,"SoundDuration":42608,"Delta":78413513},{"NoteNumber":55,"Velocity":35,"Duration":45178,"SoundDuration":45178,"Delta":78583948},{"NoteNumber":60,"Velocity":35,"Duration":45178,"SoundDuration":45178,"Delta":78583948},{"NoteNumber":64,"Velocity":35,"Duration":45178,"SoundDuration":45178,"Delta":78583948},{"NoteNumber":43,"Velocity":49,"Duration":45178,"SoundDuration":45178,"Delta":78764660},{"NoteNumber":55,"Velocity":35,"Duration":45178,"SoundDuration":45178,"Delta":78945372},{"NoteNumber":60,"Velocity":35,"Duration":45178,"SoundDuration":45178,"Delta":78945372},{"NoteNumber":64,"Velocity":35,"Duration":45178,"SoundDuration":45178,"Delta":78945372},{"NoteNumber":50,"Velocity":51,"Duration":90355,"SoundDuration":90355,"Delta":79126084},{"NoteNumber":57,"Velocity":35,"Duration":89418,"SoundDuration":89418,"Delta":79306796},{"NoteNumber":59,"Velocity":35,"Duration":89418,"SoundDuration":89418,"Delta":79306796},{"NoteNumber":65,"Velocity":35,"Duration":89418,"SoundDuration":89418,"Delta":79306796},{"NoteNumber":55,"Velocity":35,"Duration":81790,"SoundDuration":81790,"Delta":79396215},{"NoteNumber":55,"Velocity":51,"Duration":258634,"SoundDuration":258634,"Delta":79485432},{"NoteNumber":57,"Velocity":36,"Duration":88435,"SoundDuration":88435,"Delta":79662984},{"NoteNumber":59,"Velocity":36,"Duration":88435,"SoundDuration":88435,"Delta":79662984},{"NoteNumber":65,"Velocity":36,"Duration":88435,"SoundDuration":88435,"Delta":79662984},{"NoteNumber":55,"Velocity":36,"Duration":88143,"SoundDuration":88143,"Delta":79751419},{"NoteNumber":57,"Velocity":55,"Duration":267928,"SoundDuration":267928,"Delta":79839563},{"NoteNumber":57,"Velocity":38,"Duration":185002,"SoundDuration":185002,"Delta":80014991},{"NoteNumber":59,"Velocity":38,"Duration":92501,"SoundDuration":92501,"Delta":80014991},{"NoteNumber":65,"Velocity":38,"Duration":92501,"SoundDuration":92501,"Delta":80014991},{"NoteNumber":55,"Velocity":38,"Duration":92501,"SoundDuration":92501,"Delta":80107492},{"NoteNumber":59,"Velocity":58,"Duration":171385,"SoundDuration":171385,"Delta":80199993},{"NoteNumber":57,"Velocity":39,"Duration":89418,"SoundDuration":89418,"Delta":80378831},{"NoteNumber":59,"Velocity":39,"Duration":89418,"SoundDuration":89418,"Delta":80378831},{"NoteNumber":65,"Velocity":39,"Duration":89418,"SoundDuration":89418,"Delta":80378831},{"NoteNumber":55,"Velocity":39,"Duration":89418,"SoundDuration":89418,"Delta":80468250},{"NoteNumber":62,"Velocity":59,"Duration":363702,"SoundDuration":363702,"Delta":80557668},{"NoteNumber":57,"Velocity":41,"Duration":90925,"SoundDuration":90925,"Delta":80739519},{"NoteNumber":59,"Velocity":41,"Duration":90925,"SoundDuration":90925,"Delta":80739519},{"NoteNumber":65,"Velocity":41,"Duration":90925,"SoundDuration":90925,"Delta":80739519},{"NoteNumber":55,"Velocity":42,"Duration":83348,"SoundDuration":83348,"Delta":80830445},{"NoteNumber":55,"Velocity":58,"Duration":189506,"SoundDuration":189506,"Delta":80921370},{"NoteNumber":57,"Velocity":43,"Duration":91866,"SoundDuration":91866,"Delta":81103221},{"NoteNumber":59,"Velocity":43,"Duration":91866,"SoundDuration":91866,"Delta":81103221},{"NoteNumber":65,"Velocity":43,"Duration":91866,"SoundDuration":91866,"Delta":81103221},{"NoteNumber":55,"Velocity":44,"Duration":91866,"SoundDuration":91866,"Delta":81195088},{"NoteNumber":48,"Velocity":43,"Duration":83565,"SoundDuration":83565,"Delta":81286955},{"NoteNumber":57,"Velocity":29,"Duration":90623,"SoundDuration":90623,"Delta":81454086},{"NoteNumber":60,"Velocity":29,"Duration":90623,"SoundDuration":90623,"Delta":81454086},{"NoteNumber":64,"Velocity":29,"Duration":90623,"SoundDuration":90623,"Delta":81454086},{"NoteNumber":55,"Velocity":29,"Duration":83071,"SoundDuration":83071,"Delta":81544709},{"NoteNumber":55,"Velocity":41,"Duration":42608,"SoundDuration":42608,"Delta":81635333},{"NoteNumber":55,"Velocity":29,"Duration":45178,"SoundDuration":45178,"Delta":81805768},{"NoteNumber":60,"Velocity":29,"Duration":45178,"SoundDuration":45178,"Delta":81805768},{"NoteNumber":64,"Velocity":29,"Duration":45178,"SoundDuration":45178,"Delta":81805768},{"NoteNumber":43,"Velocity":41,"Duration":45178,"SoundDuration":45178,"Delta":81986480},{"NoteNumber":55,"Velocity":29,"Duration":45933,"SoundDuration":45933,"Delta":82167192},{"NoteNumber":60,"Velocity":29,"Duration":45933,"SoundDuration":45933,"Delta":82167192},{"NoteNumber":64,"Velocity":29,"Duration":45933,"SoundDuration":45933,"Delta":82167192},{"NoteNumber":48,"Velocity":43,"Duration":82034,"SoundDuration":82034,"Delta":82350925},{"NoteNumber":57,"Velocity":29,"Duration":90623,"SoundDuration":90623,"Delta":82514994},{"NoteNumber":60,"Velocity":29,"Duration":90623,"SoundDuration":90623,"Delta":82514994},{"NoteNumber":64,"Velocity":29,"Duration":90623,"SoundDuration":90623,"Delta":82514994},{"NoteNumber":55,"Velocity":29,"Duration":83071,"SoundDuration":83071,"Delta":82605618},{"NoteNumber":55,"Velocity":41,"Duration":42608,"SoundDuration":42608,"Delta":82696241},{"NoteNumber":55,"Velocity":29,"Duration":45178,"SoundDuration":45178,"Delta":82866676},{"NoteNumber":60,"Velocity":29,"Duration":45178,"SoundDuration":45178,"Delta":82866676},{"NoteNumber":64,"Velocity":29,"Duration":45178,"SoundDuration":45178,"Delta":82866676},{"NoteNumber":43,"Velocity":41,"Duration":45178,"SoundDuration":45178,"Delta":83047388},{"NoteNumber":55,"Velocity":29,"Duration":45178,"SoundDuration":45178,"Delta":83228100},{"NoteNumber":60,"Velocity":29,"Duration":45178,"SoundDuration":45178,"Delta":83228100},{"NoteNumber":64,"Velocity":29,"Duration":45178,"SoundDuration":45178,"Delta":83228100},{"NoteNumber":50,"Velocity":43,"Duration":90355,"SoundDuration":90355,"Delta":83408812},{"NoteNumber":57,"Velocity":29,"Duration":89418,"SoundDuration":89418,"Delta":83589524},{"NoteNumber":59,"Velocity":29,"Duration":89418,"SoundDuration":89418,"Delta":83589524},{"NoteNumber":65,"Velocity":29,"Duration":89418,"SoundDuration":89418,"Delta":83589524},{"NoteNumber":55,"Velocity":29,"Duration":81790,"SoundDuration":81790,"Delta":83678943},{"NoteNumber":55,"Velocity":43,"Duration":258634,"SoundDuration":258634,"Delta":83768160},{"NoteNumber":57,"Velocity":30,"Duration":88435,"SoundDuration":88435,"Delta":83945713},{"NoteNumber":59,"Velocity":30,"Duration":88435,"SoundDuration":88435,"Delta":83945713},{"NoteNumber":65,"Velocity":30,"Duration":88435,"SoundDuration":88435,"Delta":83945713},{"NoteNumber":55,"Velocity":30,"Duration":88143,"SoundDuration":88143,"Delta":84034148},{"NoteNumber":57,"Velocity":46,"Duration":168146,"SoundDuration":168146,"Delta":84122291},{"NoteNumber":57,"Velocity":32,"Duration":92501,"SoundDuration":92501,"Delta":84297719},{"NoteNumber":59,"Velocity":32,"Duration":92501,"SoundDuration":92501,"Delta":84297719},{"NoteNumber":65,"Velocity":32,"Duration":92501,"SoundDuration":92501,"Delta":84297719},{"NoteNumber":55,"Velocity":32,"Duration":92501,"SoundDuration":92501,"Delta":84390220},{"NoteNumber":59,"Velocity":49,"Duration":171385,"SoundDuration":171385,"Delta":84482721},{"NoteNumber":57,"Velocity":33,"Duration":89418,"SoundDuration":89418,"Delta":84661559},{"NoteNumber":59,"Velocity":33,"Duration":89418,"SoundDuration":89418,"Delta":84661559},{"NoteNumber":65,"Velocity":33,"Duration":89418,"SoundDuration":89418,"Delta":84661559},{"NoteNumber":55,"Velocity":33,"Duration":89418,"SoundDuration":89418,"Delta":84750978},{"NoteNumber":62,"Velocity":50,"Duration":363702,"SoundDuration":363702,"Delta":84840396},{"NoteNumber":57,"Velocity":34,"Duration":90925,"SoundDuration":90925,"Delta":85022247},{"NoteNumber":59,"Velocity":34,"Duration":90925,"SoundDuration":90925,"Delta":85022247},{"NoteNumber":65,"Velocity":34,"Duration":90925,"SoundDuration":90925,"Delta":85022247},{"NoteNumber":55,"Velocity":35,"Duration":90925,"SoundDuration":90925,"Delta":85113173},{"NoteNumber":55,"Velocity":49,"Duration":266062,"SoundDuration":266062,"Delta":85204098},{"NoteNumber":57,"Velocity":36,"Duration":91866,"SoundDuration":91866,"Delta":85385949},{"NoteNumber":59,"Velocity":36,"Duration":91866,"SoundDuration":91866,"Delta":85385949},{"NoteNumber":65,"Velocity":36,"Duration":91866,"SoundDuration":91866,"Delta":85385949},{"NoteNumber":55,"Velocity":37,"Duration":91866,"SoundDuration":91866,"Delta":85477816},{"NoteNumber":84,"Velocity":54,"Duration":92137,"SoundDuration":92137,"Delta":85569683},{"NoteNumber":72,"Velocity":54,"Duration":92137,"SoundDuration":92137,"Delta":85569683},{"NoteNumber":64,"Velocity":44,"Duration":92137,"SoundDuration":92137,"Delta":85569683},{"NoteNumber":86,"Velocity":56,"Duration":88219,"SoundDuration":88219,"Delta":85753958},{"NoteNumber":74,"Velocity":56,"Duration":88219,"SoundDuration":88219,"Delta":85753958},{"NoteNumber":67,"Velocity":45,"Duration":88219,"SoundDuration":88219,"Delta":85753958},{"NoteNumber":76,"Velocity":59,"Duration":355250,"SoundDuration":355250,"Delta":85930397},{"NoteNumber":88,"Velocity":59,"Duration":355250,"SoundDuration":355250,"Delta":85930397},{"NoteNumber":72,"Velocity":45,"Duration":89504,"SoundDuration":89504,"Delta":85930397},{"NoteNumber":71,"Velocity":43,"Duration":88121,"SoundDuration":88121,"Delta":86109406},{"NoteNumber":74,"Velocity":55,"Duration":88121,"SoundDuration":88121,"Delta":86285648},{"NoteNumber":86,"Velocity":55,"Duration":88121,"SoundDuration":88121,"Delta":86285648},{"NoteNumber":70,"Velocity":44,"Duration":88121,"SoundDuration":88121,"Delta":86285648},{"NoteNumber":72,"Velocity":51,"Duration":90355,"SoundDuration":90355,"Delta":86461891},{"NoteNumber":84,"Velocity":51,"Duration":90355,"SoundDuration":90355,"Delta":86461891},{"NoteNumber":69,"Velocity":41,"Duration":90355,"SoundDuration":90355,"Delta":86461891},{"NoteNumber":74,"Velocity":44,"Duration":45178,"SoundDuration":45178,"Delta":86552247},{"NoteNumber":86,"Velocity":44,"Duration":45178,"SoundDuration":45178,"Delta":86552247},{"NoteNumber":76,"Velocity":44,"Duration":45177,"SoundDuration":45177,"Delta":86597425},{"NoteNumber":88,"Velocity":44,"Duration":45177,"SoundDuration":45177,"Delta":86597425},{"NoteNumber":86,"Velocity":55,"Duration":355250,"SoundDuration":355250,"Delta":86642603},{"NoteNumber":74,"Velocity":55,"Duration":355250,"SoundDuration":355250,"Delta":86642603},{"NoteNumber":68,"Velocity":45,"Duration":88121,"SoundDuration":88121,"Delta":86642603},{"NoteNumber":66,"Velocity":42,"Duration":89504,"SoundDuration":89504,"Delta":86818845},{"NoteNumber":72,"Velocity":52,"Duration":88121,"SoundDuration":88121,"Delta":86997854},{"NoteNumber":84,"Velocity":52,"Duration":88121,"SoundDuration":88121,"Delta":86997854},{"NoteNumber":67,"Velocity":44,"Duration":88121,"SoundDuration":88121,"Delta":86997854},{"NoteNumber":67,"Velocity":50,"Duration":91229,"SoundDuration":91229,"Delta":87174096},{"NoteNumber":79,"Velocity":50,"Duration":91229,"SoundDuration":91229,"Delta":87174096},{"NoteNumber":64,"Velocity":41,"Duration":91229,"SoundDuration":91229,"Delta":87174096},{"NoteNumber":64,"Velocity":56,"Duration":177893,"SoundDuration":177893,"Delta":87356556},{"NoteNumber":76,"Velocity":56,"Duration":177893,"SoundDuration":177893,"Delta":87356556},{"NoteNumber":60,"Velocity":37,"Duration":88946,"SoundDuration":88946,"Delta":87356556},{"NoteNumber":68,"Velocity":45,"Duration":180711,"SoundDuration":180711,"Delta":87534449},{"NoteNumber":74,"Velocity":45,"Duration":180711,"SoundDuration":180711,"Delta":87534449},{"NoteNumber":58,"Velocity":37,"Duration":180711,"SoundDuration":180711,"Delta":87534449},{"NoteNumber":70,"Velocity":45,"Duration":176242,"SoundDuration":176242,"Delta":87715161},{"NoteNumber":73,"Velocity":45,"Duration":176242,"SoundDuration":176242,"Delta":87715161},{"NoteNumber":57,"Velocity":34,"Duration":176242,"SoundDuration":176242,"Delta":87715161},{"NoteNumber":72,"Velocity":47,"Duration":180147,"SoundDuration":180147,"Delta":87891404},{"NoteNumber":75,"Velocity":47,"Duration":180147,"SoundDuration":180147,"Delta":87891404},{"NoteNumber":66,"Velocity":36,"Duration":180147,"SoundDuration":180147,"Delta":87891404},{"NoteNumber":73,"Velocity":49,"Duration":177336,"SoundDuration":177336,"Delta":88071551},{"NoteNumber":76,"Velocity":49,"Duration":177336,"SoundDuration":177336,"Delta":88071551},{"NoteNumber":67,"Velocity":37,"Duration":177336,"SoundDuration":177336,"Delta":88071551},{"NoteNumber":82,"Velocity":51,"Duration":180147,"SoundDuration":180147,"Delta":88248888},{"NoteNumber":76,"Velocity":51,"Duration":180147,"SoundDuration":180147,"Delta":88248888},{"NoteNumber":62,"Velocity":39,"Duration":180147,"SoundDuration":180147,"Delta":88248888},{"NoteNumber":81,"Velocity":53,"Duration":176242,"SoundDuration":176242,"Delta":88429035},{"NoteNumber":79,"Velocity":53,"Duration":176242,"SoundDuration":176242,"Delta":88429035},{"NoteNumber":61,"Velocity":41,"Duration":176242,"SoundDuration":176242,"Delta":88429035},{"NoteNumber":88,"Velocity":54,"Duration":183632,"SoundDuration":183632,"Delta":88605278},{"NoteNumber":79,"Velocity":54,"Duration":183632,"SoundDuration":183632,"Delta":88605278},{"NoteNumber":57,"Velocity":43,"Duration":183632,"SoundDuration":183632,"Delta":88605278},{"NoteNumber":86,"Velocity":59,"Duration":181291,"SoundDuration":181291,"Delta":88788910},{"NoteNumber":77,"Velocity":59,"Duration":181291,"SoundDuration":181291,"Delta":88788910},{"NoteNumber":62,"Velocity":45,"Duration":907701,"SoundDuration":907701,"Delta":88788910},{"NoteNumber":75,"Velocity":54,"Duration":179012,"SoundDuration":179012,"Delta":88970201},{"NoteNumber":81,"Velocity":54,"Duration":179012,"SoundDuration":179012,"Delta":88970201},{"NoteNumber":72,"Velocity":42,"Duration":179012,"SoundDuration":179012,"Delta":88970201},{"NoteNumber":74,"Velocity":57,"Duration":180716,"SoundDuration":180716,"Delta":89149214},{"NoteNumber":80,"Velocity":57,"Duration":180716,"SoundDuration":180716,"Delta":89149214},{"NoteNumber":71,"Velocity":44,"Duration":180716,"SoundDuration":180716,"Delta":89149214},{"NoteNumber":85,"Velocity":51,"Duration":182453,"SoundDuration":182453,"Delta":89329931},{"NoteNumber":76,"Velocity":51,"Duration":182453,"SoundDuration":182453,"Delta":89329931},{"NoteNumber":70,"Velocity":45,"Duration":182453,"SoundDuration":182453,"Delta":89329931},{"NoteNumber":78,"Velocity":60,"Duration":370359,"SoundDuration":370359,"Delta":89512384},{"NoteNumber":86,"Velocity":60,"Duration":370359,"SoundDuration":370359,"Delta":89512384},{"NoteNumber":69,"Velocity":47,"Duration":370359,"SoundDuration":370359,"Delta":89512384},{"NoteNumber":57,"Velocity":37,"Duration":186132,"SoundDuration":186132,"Delta":89696612},{"NoteNumber":86,"Velocity":64,"Duration":92137,"SoundDuration":92137,"Delta":89882744},{"NoteNumber":74,"Velocity":55,"Duration":92137,"SoundDuration":92137,"Delta":89882744},{"NoteNumber":65,"Velocity":48,"Duration":92137,"SoundDuration":92137,"Delta":89882744},{"NoteNumber":88,"Velocity":67,"Duration":88219,"SoundDuration":88219,"Delta":90067019},{"NoteNumber":76,"Velocity":56,"Duration":88219,"SoundDuration":88219,"Delta":90067019},{"NoteNumber":69,"Velocity":49,"Duration":88219,"SoundDuration":88219,"Delta":90067019},{"NoteNumber":77,"Velocity":59,"Duration":358048,"SoundDuration":358048,"Delta":90243458},{"NoteNumber":89,"Velocity":70,"Duration":358048,"SoundDuration":358048,"Delta":90243458},{"NoteNumber":74,"Velocity":49,"Duration":90355,"SoundDuration":90355,"Delta":90243458},{"NoteNumber":73,"Velocity":47,"Duration":88668,"SoundDuration":88668,"Delta":90424170},{"NoteNumber":76,"Velocity":56,"Duration":88121,"SoundDuration":88121,"Delta":90601507},{"NoteNumber":88,"Velocity":66,"Duration":88121,"SoundDuration":88121,"Delta":90601507},{"NoteNumber":72,"Velocity":48,"Duration":88121,"SoundDuration":88121,"Delta":90601507},{"NoteNumber":74,"Velocity":51,"Duration":90355,"SoundDuration":90355,"Delta":90777749},{"NoteNumber":86,"Velocity":61,"Duration":90355,"SoundDuration":90355,"Delta":90777749},{"NoteNumber":71,"Velocity":45,"Duration":90355,"SoundDuration":90355,"Delta":90777749},{"NoteNumber":76,"Velocity":44,"Duration":45178,"SoundDuration":45178,"Delta":90868105},{"NoteNumber":88,"Velocity":52,"Duration":45178,"SoundDuration":45178,"Delta":90868105},{"NoteNumber":77,"Velocity":44,"Duration":45177,"SoundDuration":45177,"Delta":90913283},{"NoteNumber":89,"Velocity":52,"Duration":45177,"SoundDuration":45177,"Delta":90913283},{"NoteNumber":88,"Velocity":66,"Duration":355250,"SoundDuration":355250,"Delta":90958461},{"NoteNumber":76,"Velocity":56,"Duration":355250,"SoundDuration":355250,"Delta":90958461},{"NoteNumber":70,"Velocity":49,"Duration":88121,"SoundDuration":88121,"Delta":90958461},{"NoteNumber":68,"Velocity":46,"Duration":89504,"SoundDuration":89504,"Delta":91134704},{"NoteNumber":74,"Velocity":52,"Duration":88391,"SoundDuration":88391,"Delta":91313712},{"NoteNumber":86,"Velocity":62,"Duration":88391,"SoundDuration":88391,"Delta":91313712},{"NoteNumber":69,"Velocity":48,"Duration":88391,"SoundDuration":88391,"Delta":91313712},{"NoteNumber":69,"Velocity":49,"Duration":91229,"SoundDuration":91229,"Delta":91490495},{"NoteNumber":81,"Velocity":58,"Duration":91229,"SoundDuration":91229,"Delta":91490495},{"NoteNumber":65,"Velocity":45,"Duration":91229,"SoundDuration":91229,"Delta":91490495},{"NoteNumber":65,"Velocity":46,"Duration":89227,"SoundDuration":89227,"Delta":91672954},{"NoteNumber":77,"Velocity":55,"Duration":89227,"SoundDuration":89227,"Delta":91672954},{"NoteNumber":62,"Velocity":40,"Duration":89227,"SoundDuration":89227,"Delta":91672954},{"NoteNumber":69,"Velocity":49,"Duration":181291,"SoundDuration":181291,"Delta":91851409},{"NoteNumber":76,"Velocity":58,"Duration":181291,"SoundDuration":181291,"Delta":91851409},{"NoteNumber":60,"Velocity":40,"Duration":181291,"SoundDuration":181291,"Delta":91851409},{"NoteNumber":69,"Velocity":45,"Duration":176782,"SoundDuration":176782,"Delta":92032700},{"NoteNumber":75,"Velocity":45,"Duration":176782,"SoundDuration":176782,"Delta":92032700},{"NoteNumber":59,"Velocity":34,"Duration":895155,"SoundDuration":895155,"Delta":92032700},{"NoteNumber":72,"Velocity":47,"Duration":181291,"SoundDuration":181291,"Delta":92209482},{"NoteNumber":76,"Velocity":47,"Duration":181291,"SoundDuration":181291,"Delta":92209482},{"NoteNumber":67,"Velocity":36,"Duration":181291,"SoundDuration":181291,"Delta":92209482},{"NoteNumber":75,"Velocity":49,"Duration":179008,"SoundDuration":179008,"Delta":92390773},{"NoteNumber":78,"Velocity":49,"Duration":179008,"SoundDuration":179008,"Delta":92390773},{"NoteNumber":69,"Velocity":37,"Duration":179008,"SoundDuration":179008,"Delta":92390773},{"NoteNumber":81,"Velocity":51,"Duration":181291,"SoundDuration":181291,"Delta":92569782},{"NoteNumber":79,"Velocity":51,"Duration":181291,"SoundDuration":181291,"Delta":92569782},{"NoteNumber":64,"Velocity":39,"Duration":181291,"SoundDuration":181291,"Delta":92569782},{"NoteNumber":84,"Velocity":53,"Duration":176782,"SoundDuration":176782,"Delta":92751073},{"NoteNumber":78,"Velocity":53,"Duration":176782,"SoundDuration":176782,"Delta":92751073},{"NoteNumber":63,"Velocity":41,"Duration":176782,"SoundDuration":176782,"Delta":92751073},{"NoteNumber":83,"Velocity":54,"Duration":184218,"SoundDuration":184218,"Delta":92927855},{"NoteNumber":81,"Velocity":54,"Duration":184218,"SoundDuration":184218,"Delta":92927855},{"NoteNumber":59,"Velocity":43,"Duration":184218,"SoundDuration":184218,"Delta":92927855},{"NoteNumber":91,"Velocity":59,"Duration":181862,"SoundDuration":181862,"Delta":93112074},{"NoteNumber":79,"Velocity":59,"Duration":181862,"SoundDuration":181862,"Delta":93112074},{"NoteNumber":64,"Velocity":45,"Duration":907040,"SoundDuration":907040,"Delta":93112074},{"NoteNumber":75,"Velocity":54,"Duration":178452,"SoundDuration":178452,"Delta":93293936},{"NoteNumber":84,"Velocity":54,"Duration":178452,"SoundDuration":178452,"Delta":93293936},{"NoteNumber":69,"Velocity":42,"Duration":178452,"SoundDuration":178452,"Delta":93293936},{"NoteNumber":76,"Velocity":57,"Duration":180335,"SoundDuration":180335,"Delta":93472388},{"NoteNumber":83,"Velocity":57,"Duration":180335,"SoundDuration":180335,"Delta":93472388},{"NoteNumber":67,"Velocity":44,"Duration":180335,"SoundDuration":180335,"Delta":93472388},{"NoteNumber":87,"Velocity":51,"Duration":182162,"SoundDuration":182162,"Delta":93652724},{"NoteNumber":81,"Velocity":51,"Duration":182162,"SoundDuration":182162,"Delta":93652724},{"NoteNumber":72,"Velocity":45,"Duration":182162,"SoundDuration":182162,"Delta":93652724},{"NoteNumber":79,"Velocity":60,"Duration":370389,"SoundDuration":370389,"Delta":93834886},{"NoteNumber":88,"Velocity":60,"Duration":370389,"SoundDuration":370389,"Delta":93834886},{"NoteNumber":71,"Velocity":47,"Duration":370389,"SoundDuration":370389,"Delta":93834886},{"NoteNumber":59,"Velocity":37,"Duration":186161,"SoundDuration":186161,"Delta":94019114},{"NoteNumber":88,"Velocity":64,"Duration":92137,"SoundDuration":92137,"Delta":94205276},{"NoteNumber":76,"Velocity":55,"Duration":92137,"SoundDuration":92137,"Delta":94205276},{"NoteNumber":67,"Velocity":48,"Duration":92137,"SoundDuration":92137,"Delta":94205276},{"NoteNumber":90,"Velocity":67,"Duration":88219,"SoundDuration":88219,"Delta":94389551},{"NoteNumber":78,"Velocity":56,"Duration":88219,"SoundDuration":88219,"Delta":94389551},{"NoteNumber":71,"Velocity":49,"Duration":88219,"SoundDuration":88219,"Delta":94389551},{"NoteNumber":79,"Velocity":59,"Duration":361423,"SoundDuration":361423,"Delta":94565990},{"NoteNumber":91,"Velocity":70,"Duration":361423,"SoundDuration":361423,"Delta":94565990},{"NoteNumber":76,"Velocity":49,"Duration":90355,"SoundDuration":90355,"Delta":94565990},{"NoteNumber":75,"Velocity":47,"Duration":90355,"SoundDuration":90355,"Delta":94746702},{"NoteNumber":78,"Velocity":56,"Duration":88121,"SoundDuration":88121,"Delta":94927414},{"NoteNumber":90,"Velocity":66,"Duration":88121,"SoundDuration":88121,"Delta":94927414},{"NoteNumber":74,"Velocity":48,"Duration":88121,"SoundDuration":88121,"Delta":94927414},{"NoteNumber":76,"Velocity":51,"Duration":90355,"SoundDuration":90355,"Delta":95103657},{"NoteNumber":88,"Velocity":61,"Duration":90355,"SoundDuration":90355,"Delta":95103657},{"NoteNumber":73,"Velocity":45,"Duration":90355,"SoundDuration":90355,"Delta":95103657},{"NoteNumber":78,"Velocity":44,"Duration":45178,"SoundDuration":45178,"Delta":95194013},{"NoteNumber":90,"Velocity":52,"Duration":45178,"SoundDuration":45178,"Delta":95194013},{"NoteNumber":79,"Velocity":44,"Duration":45177,"SoundDuration":45177,"Delta":95239191},{"NoteNumber":91,"Velocity":52,"Duration":45177,"SoundDuration":45177,"Delta":95239191},{"NoteNumber":90,"Velocity":66,"Duration":355250,"SoundDuration":355250,"Delta":95284369},{"NoteNumber":78,"Velocity":56,"Duration":355250,"SoundDuration":355250,"Delta":95284369},{"NoteNumber":72,"Velocity":49,"Duration":88121,"SoundDuration":88121,"Delta":95284369},{"NoteNumber":70,"Velocity":46,"Duration":89504,"SoundDuration":89504,"Delta":95460611},{"NoteNumber":76,"Velocity":52,"Duration":89504,"SoundDuration":89504,"Delta":95639620},{"NoteNumber":88,"Velocity":62,"Duration":89504,"SoundDuration":89504,"Delta":95639620},{"NoteNumber":71,"Velocity":48,"Duration":89504,"SoundDuration":89504,"Delta":95639620},{"NoteNumber":71,"Velocity":49,"Duration":91229,"SoundDuration":91229,"Delta":95818628},{"NoteNumber":83,"Velocity":58,"Duration":91229,"SoundDuration":91229,"Delta":95818628},{"NoteNumber":67,"Velocity":45,"Duration":91229,"SoundDuration":91229,"Delta":95818628},{"NoteNumber":67,"Velocity":46,"Duration":366137,"SoundDuration":366137,"Delta":96001088},{"NoteNumber":79,"Velocity":55,"Duration":366137,"SoundDuration":366137,"Delta":96001088},{"NoteNumber":64,"Velocity":40,"Duration":90931,"SoundDuration":90931,"Delta":96001088},{"NoteNumber":59,"Velocity":40,"Duration":92137,"SoundDuration":92137,"Delta":96182950},{"NoteNumber":91,"Velocity":70,"Duration":92137,"SoundDuration":92137,"Delta":96367225},{"NoteNumber":79,"Velocity":59,"Duration":92137,"SoundDuration":92137,"Delta":96367225},{"NoteNumber":70,"Velocity":52,"Duration":92137,"SoundDuration":92137,"Delta":96367225},{"NoteNumber":93,"Velocity":73,"Duration":88219,"SoundDuration":88219,"Delta":96551500},{"NoteNumber":81,"Velocity":61,"Duration":88219,"SoundDuration":88219,"Delta":96551500},{"NoteNumber":74,"Velocity":53,"Duration":88219,"SoundDuration":88219,"Delta":96551500},{"NoteNumber":82,"Velocity":64,"Duration":361423,"SoundDuration":361423,"Delta":96727940},{"NoteNumber":94,"Velocity":77,"Duration":361423,"SoundDuration":361423,"Delta":96727940},{"NoteNumber":79,"Velocity":53,"Duration":90355,"SoundDuration":90355,"Delta":96727940},{"NoteNumber":78,"Velocity":51,"Duration":90355,"SoundDuration":90355,"Delta":96908652},{"NoteNumber":81,"Velocity":61,"Duration":88121,"SoundDuration":88121,"Delta":97089364},{"NoteNumber":93,"Velocity":72,"Duration":88121,"SoundDuration":88121,"Delta":97089364},{"NoteNumber":77,"Velocity":52,"Duration":88121,"SoundDuration":88121,"Delta":97089364},{"NoteNumber":79,"Velocity":56,"Duration":90355,"SoundDuration":90355,"Delta":97265606},{"NoteNumber":91,"Velocity":67,"Duration":90355,"SoundDuration":90355,"Delta":97265606},{"NoteNumber":76,"Velocity":49,"Duration":90355,"SoundDuration":90355,"Delta":97265606},{"NoteNumber":81,"Velocity":48,"Duration":45178,"SoundDuration":45178,"Delta":97355962},{"NoteNumber":93,"Velocity":57,"Duration":45178,"SoundDuration":45178,"Delta":97355962},{"NoteNumber":82,"Velocity":48,"Duration":45177,"SoundDuration":45177,"Delta":97401140},{"NoteNumber":94,"Velocity":57,"Duration":45177,"SoundDuration":45177,"Delta":97401140},{"NoteNumber":93,"Velocity":72,"Duration":355250,"SoundDuration":355250,"Delta":97446318},{"NoteNumber":81,"Velocity":61,"Duration":355250,"SoundDuration":355250,"Delta":97446318},{"NoteNumber":75,"Velocity":53,"Duration":88121,"SoundDuration":88121,"Delta":97446318},{"NoteNumber":73,"Velocity":50,"Duration":89504,"SoundDuration":89504,"Delta":97622561},{"NoteNumber":79,"Velocity":57,"Duration":89504,"SoundDuration":89504,"Delta":97801569},{"NoteNumber":91,"Velocity":68,"Duration":89504,"SoundDuration":89504,"Delta":97801569},{"NoteNumber":74,"Velocity":52,"Duration":89504,"SoundDuration":89504,"Delta":97801569},{"NoteNumber":74,"Velocity":53,"Duration":91229,"SoundDuration":91229,"Delta":97980578},{"NoteNumber":86,"Velocity":63,"Duration":91229,"SoundDuration":91229,"Delta":97980578},{"NoteNumber":70,"Velocity":49,"Duration":91229,"SoundDuration":91229,"Delta":97980578},{"NoteNumber":70,"Velocity":50,"Duration":366137,"SoundDuration":366137,"Delta":98163037},{"NoteNumber":82,"Velocity":60,"Duration":366137,"SoundDuration":366137,"Delta":98163037},{"NoteNumber":67,"Velocity":44,"Duration":90931,"SoundDuration":90931,"Delta":98163037},{"NoteNumber":62,"Velocity":44,"Duration":92137,"SoundDuration":92137,"Delta":98344900},{"NoteNumber":94,"Velocity":77,"Duration":92137,"SoundDuration":92137,"Delta":98529175},{"NoteNumber":82,"Velocity":64,"Duration":92137,"SoundDuration":92137,"Delta":98529175},{"NoteNumber":79,"Velocity":57,"Duration":92137,"SoundDuration":92137,"Delta":98529175},{"NoteNumber":96,"Velocity":80,"Duration":88219,"SoundDuration":88219,"Delta":98713450},{"NoteNumber":84,"Velocity":67,"Duration":88219,"SoundDuration":88219,"Delta":98713450},{"NoteNumber":81,"Velocity":58,"Duration":88219,"SoundDuration":88219,"Delta":98713450},{"NoteNumber":85,"Velocity":70,"Duration":90355,"SoundDuration":90355,"Delta":98889889},{"NoteNumber":97,"Velocity":84,"Duration":90355,"SoundDuration":90355,"Delta":98889889},{"NoteNumber":82,"Velocity":58,"Duration":90355,"SoundDuration":90355,"Delta":98889889},{"NoteNumber":99,"Velocity":75,"Duration":90355,"SoundDuration":90355,"Delta":99070601},{"NoteNumber":87,"Velocity":62,"Duration":90355,"SoundDuration":90355,"Delta":99070601},{"NoteNumber":84,"Velocity":56,"Duration":90355,"SoundDuration":90355,"Delta":99070601},{"NoteNumber":85,"Velocity":67,"Duration":88121,"SoundDuration":88121,"Delta":99251313},{"NoteNumber":97,"Velocity":79,"Duration":88121,"SoundDuration":88121,"Delta":99251313},{"NoteNumber":82,"Velocity":57,"Duration":88121,"SoundDuration":88121,"Delta":99251313},{"NoteNumber":84,"Velocity":61,"Duration":90355,"SoundDuration":90355,"Delta":99427556},{"NoteNumber":96,"Velocity":73,"Duration":90355,"SoundDuration":90355,"Delta":99427556},{"NoteNumber":81,"Velocity":53,"Duration":90355,"SoundDuration":90355,"Delta":99427556},{"NoteNumber":95,"Velocity":79,"Duration":88121,"SoundDuration":88121,"Delta":99608268},{"NoteNumber":83,"Velocity":67,"Duration":88121,"SoundDuration":88121,"Delta":99608268},{"NoteNumber":80,"Velocity":58,"Duration":88121,"SoundDuration":88121,"Delta":99608268},{"NoteNumber":94,"Velocity":70,"Duration":89504,"SoundDuration":89504,"Delta":99784510},{"NoteNumber":82,"Velocity":59,"Duration":89504,"SoundDuration":89504,"Delta":99784510},{"NoteNumber":79,"Velocity":55,"Duration":89504,"SoundDuration":89504,"Delta":99784510},{"NoteNumber":79,"Velocity":62,"Duration":89504,"SoundDuration":89504,"Delta":99963519},{"NoteNumber":91,"Velocity":74,"Duration":89504,"SoundDuration":89504,"Delta":99963519},{"NoteNumber":76,"Velocity":57,"Duration":89504,"SoundDuration":89504,"Delta":99963519},{"NoteNumber":76,"Velocity":58,"Duration":91229,"SoundDuration":91229,"Delta":100142527},{"NoteNumber":88,"Velocity":69,"Duration":91229,"SoundDuration":91229,"Delta":100142527},{"NoteNumber":73,"Velocity":53,"Duration":91229,"SoundDuration":91229,"Delta":100142527},{"NoteNumber":73,"Velocity":55,"Duration":90931,"SoundDuration":90931,"Delta":100324987},{"NoteNumber":85,"Velocity":66,"Duration":90931,"SoundDuration":90931,"Delta":100324987},{"NoteNumber":70,"Velocity":48,"Duration":90931,"SoundDuration":90931,"Delta":100324987},{"NoteNumber":82,"Velocity":55,"Duration":92137,"SoundDuration":92137,"Delta":100506849},{"NoteNumber":70,"Velocity":55,"Duration":92137,"SoundDuration":92137,"Delta":100506849},{"NoteNumber":67,"Velocity":48,"Duration":92137,"SoundDuration":92137,"Delta":100506849},{"NoteNumber":88,"Velocity":75,"Duration":88121,"SoundDuration":88121,"Delta":100691124},{"NoteNumber":76,"Velocity":67,"Duration":88121,"SoundDuration":88121,"Delta":100691124},{"NoteNumber":73,"Velocity":58,"Duration":88121,"SoundDuration":88121,"Delta":100691124},{"NoteNumber":85,"Velocity":67,"Duration":89504,"SoundDuration":89504,"Delta":100867367},{"NoteNumber":73,"Velocity":59,"Duration":89504,"SoundDuration":89504,"Delta":100867367},{"NoteNumber":70,"Velocity":55,"Duration":89504,"SoundDuration":89504,"Delta":100867367},{"NoteNumber":70,"Velocity":58,"Duration":89504,"SoundDuration":89504,"Delta":101046375},{"NoteNumber":82,"Velocity":70,"Duration":89504,"SoundDuration":89504,"Delta":101046375},{"NoteNumber":67,"Velocity":54,"Duration":89504,"SoundDuration":89504,"Delta":101046375},{"NoteNumber":67,"Velocity":58,"Duration":91229,"SoundDuration":91229,"Delta":101225384},{"NoteNumber":79,"Velocity":69,"Duration":91229,"SoundDuration":91229,"Delta":101225384},{"NoteNumber":64,"Velocity":53,"Duration":91229,"SoundDuration":91229,"Delta":101225384},{"NoteNumber":64,"Velocity":55,"Duration":90931,"SoundDuration":90931,"Delta":101407843},{"NoteNumber":76,"Velocity":66,"Duration":90931,"SoundDuration":90931,"Delta":101407843},{"NoteNumber":61,"Velocity":48,"Duration":90931,"SoundDuration":90931,"Delta":101407843},{"NoteNumber":73,"Velocity":55,"Duration":92137,"SoundDuration":92137,"Delta":101589706},{"NoteNumber":61,"Velocity":55,"Duration":92137,"SoundDuration":92137,"Delta":101589706},{"NoteNumber":58,"Velocity":48,"Duration":92137,"SoundDuration":92137,"Delta":101589706},{"NoteNumber":82,"Velocity":71,"Duration":88121,"SoundDuration":88121,"Delta":101773981},{"NoteNumber":70,"Velocity":60,"Duration":88121,"SoundDuration":88121,"Delta":101773981},{"NoteNumber":67,"Velocity":52,"Duration":88121,"SoundDuration":88121,"Delta":101773981},{"NoteNumber":79,"Velocity":63,"Duration":91229,"SoundDuration":91229,"Delta":101950223},{"NoteNumber":67,"Velocity":53,"Duration":91229,"SoundDuration":91229,"Delta":101950223},{"NoteNumber":64,"Velocity":49,"Duration":91229,"SoundDuration":91229,"Delta":101950223},{"NoteNumber":64,"Velocity":52,"Duration":90452,"SoundDuration":90452,"Delta":102132683},{"NoteNumber":76,"Velocity":63,"Duration":90452,"SoundDuration":90452,"Delta":102132683},{"NoteNumber":61,"Velocity":48,"Duration":90452,"SoundDuration":90452,"Delta":102132683},{"NoteNumber":61,"Velocity":52,"Duration":91814,"SoundDuration":91814,"Delta":102314362},{"NoteNumber":73,"Velocity":62,"Duration":91814,"SoundDuration":91814,"Delta":102314362},{"NoteNumber":58,"Velocity":47,"Duration":91814,"SoundDuration":91814,"Delta":102314362},{"NoteNumber":61,"Velocity":49,"Duration":187566,"SoundDuration":187566,"Delta":102498890},{"NoteNumber":58,"Velocity":49,"Duration":187566,"SoundDuration":187566,"Delta":102498890},{"NoteNumber":70,"Velocity":59,"Duration":187566,"SoundDuration":187566,"Delta":102498890},{"NoteNumber":55,"Velocity":43,"Duration":187566,"SoundDuration":187566,"Delta":102498890},{"NoteNumber":67,"Velocity":49,"Duration":190712,"SoundDuration":190712,"Delta":102686457},{"NoteNumber":73,"Velocity":49,"Duration":190712,"SoundDuration":190712,"Delta":102686457},{"NoteNumber":61,"Velocity":49,"Duration":190712,"SoundDuration":190712,"Delta":102686457},{"NoteNumber":52,"Velocity":43,"Duration":190712,"SoundDuration":190712,"Delta":102686457},{"NoteNumber":71,"Velocity":54,"Duration":187253,"SoundDuration":187253,"Delta":102877169},{"NoteNumber":59,"Velocity":45,"Duration":187253,"SoundDuration":187253,"Delta":102877169},{"NoteNumber":35,"Velocity":44,"Duration":187253,"SoundDuration":187253,"Delta":102877169},{"NoteNumber":73,"Velocity":56,"Duration":181291,"SoundDuration":181291,"Delta":103064423},{"NoteNumber":61,"Velocity":47,"Duration":181291,"SoundDuration":181291,"Delta":103064423},{"NoteNumber":42,"Velocity":45,"Duration":181291,"SoundDuration":181291,"Delta":103064423},{"NoteNumber":71,"Velocity":59,"Duration":358017,"SoundDuration":358017,"Delta":103245714},{"NoteNumber":63,"Velocity":50,"Duration":358017,"SoundDuration":358017,"Delta":103245714},{"NoteNumber":75,"Velocity":59,"Duration":358017,"SoundDuration":358017,"Delta":103245714},{"NoteNumber":43,"Velocity":45,"Duration":179008,"SoundDuration":179008,"Delta":103245714},{"NoteNumber":42,"Velocity":43,"Duration":179008,"SoundDuration":179008,"Delta":103424723},{"NoteNumber":61,"Velocity":46,"Duration":178454,"SoundDuration":178454,"Delta":103603731},{"NoteNumber":73,"Velocity":55,"Duration":178454,"SoundDuration":178454,"Delta":103603731},{"NoteNumber":47,"Velocity":44,"Duration":178454,"SoundDuration":178454,"Delta":103603731},{"NoteNumber":59,"Velocity":43,"Duration":183038,"SoundDuration":183038,"Delta":103782186},{"NoteNumber":71,"Velocity":51,"Duration":183038,"SoundDuration":183038,"Delta":103782186},{"NoteNumber":51,"Velocity":41,"Duration":183038,"SoundDuration":183038,"Delta":103782186},{"NoteNumber":67,"Velocity":55,"Duration":355250,"SoundDuration":355250,"Delta":103965224},{"NoteNumber":73,"Velocity":55,"Duration":355250,"SoundDuration":355250,"Delta":103965224},{"NoteNumber":61,"Velocity":46,"Duration":355250,"SoundDuration":355250,"Delta":103965224},{"NoteNumber":52,"Velocity":45,"Duration":176242,"SoundDuration":176242,"Delta":103965224},{"NoteNumber":54,"Velocity":39,"Duration":179008,"SoundDuration":179008,"Delta":104141467},{"NoteNumber":59,"Velocity":44,"Duration":176242,"SoundDuration":176242,"Delta":104320475},{"NoteNumber":71,"Velocity":52,"Duration":176242,"SoundDuration":176242,"Delta":104320475},{"NoteNumber":55,"Velocity":44,"Duration":176242,"SoundDuration":176242,"Delta":104320475},{"NoteNumber":58,"Velocity":42,"Duration":182459,"SoundDuration":182459,"Delta":104496718},{"NoteNumber":70,"Velocity":50,"Duration":182459,"SoundDuration":182459,"Delta":104496718},{"NoteNumber":52,"Velocity":41,"Duration":182459,"SoundDuration":182459,"Delta":104496718},{"NoteNumber":55,"Velocity":45,"Duration":366213,"SoundDuration":366213,"Delta":104679177},{"NoteNumber":67,"Velocity":53,"Duration":366213,"SoundDuration":366213,"Delta":104679177},{"NoteNumber":58,"Velocity":37,"Duration":179575,"SoundDuration":179575,"Delta":104679177},{"NoteNumber":59,"Velocity":37,"Duration":186637,"SoundDuration":186637,"Delta":104858753},{"NoteNumber":71,"Velocity":56,"Duration":184218,"SoundDuration":184218,"Delta":105045390},{"NoteNumber":59,"Velocity":47,"Duration":184218,"SoundDuration":184218,"Delta":105045390},{"NoteNumber":35,"Velocity":46,"Duration":184218,"SoundDuration":184218,"Delta":105045390},{"NoteNumber":73,"Velocity":58,"Duration":176242,"SoundDuration":176242,"Delta":105229609},{"NoteNumber":61,"Velocity":49,"Duration":176242,"SoundDuration":176242,"Delta":105229609},{"NoteNumber":42,"Velocity":47,"Duration":176242,"SoundDuration":176242,"Delta":105229609},{"NoteNumber":71,"Velocity":61,"Duration":356347,"SoundDuration":356347,"Delta":105405851},{"NoteNumber":63,"Velocity":52,"Duration":356347,"SoundDuration":356347,"Delta":105405851},{"NoteNumber":75,"Velocity":61,"Duration":356347,"SoundDuration":356347,"Delta":105405851},{"NoteNumber":43,"Velocity":47,"Duration":177893,"SoundDuration":177893,"Delta":105405851},{"NoteNumber":42,"Velocity":45,"Duration":178454,"SoundDuration":178454,"Delta":105583745},{"NoteNumber":61,"Velocity":48,"Duration":178454,"SoundDuration":178454,"Delta":105762199},{"NoteNumber":73,"Velocity":57,"Duration":178454,"SoundDuration":178454,"Delta":105762199},{"NoteNumber":47,"Velocity":46,"Duration":178454,"SoundDuration":178454,"Delta":105762199},{"NoteNumber":59,"Velocity":45,"Duration":183038,"SoundDuration":183038,"Delta":105940654},{"NoteNumber":71,"Velocity":53,"Duration":183038,"SoundDuration":183038,"Delta":105940654},{"NoteNumber":51,"Velocity":43,"Duration":183038,"SoundDuration":183038,"Delta":105940654},{"NoteNumber":67,"Velocity":57,"Duration":355250,"SoundDuration":355250,"Delta":106123692},{"NoteNumber":73,"Velocity":57,"Duration":355250,"SoundDuration":355250,"Delta":106123692},{"NoteNumber":61,"Velocity":48,"Duration":355250,"SoundDuration":355250,"Delta":106123692},{"NoteNumber":52,"Velocity":47,"Duration":176242,"SoundDuration":176242,"Delta":106123692},{"NoteNumber":54,"Velocity":38,"Duration":179008,"SoundDuration":179008,"Delta":106299935},{"NoteNumber":59,"Velocity":47,"Duration":176242,"SoundDuration":176242,"Delta":106478943},{"NoteNumber":71,"Velocity":55,"Duration":176242,"SoundDuration":176242,"Delta":106478943},{"NoteNumber":55,"Velocity":47,"Duration":176242,"SoundDuration":176242,"Delta":106478943},{"NoteNumber":58,"Velocity":46,"Duration":182459,"SoundDuration":182459,"Delta":106655186},{"NoteNumber":70,"Velocity":54,"Duration":182459,"SoundDuration":182459,"Delta":106655186},{"NoteNumber":52,"Velocity":45,"Duration":182459,"SoundDuration":182459,"Delta":106655186},{"NoteNumber":55,"Velocity":49,"Duration":365599,"SoundDuration":365599,"Delta":106837645},{"NoteNumber":67,"Velocity":58,"Duration":365599,"SoundDuration":365599,"Delta":106837645},{"NoteNumber":58,"Velocity":40,"Duration":179575,"SoundDuration":179575,"Delta":106837645},{"NoteNumber":59,"Velocity":40,"Duration":186023,"SoundDuration":186023,"Delta":107017221},{"NoteNumber":71,"Velocity":67,"Duration":184218,"SoundDuration":184218,"Delta":107203245},{"NoteNumber":59,"Velocity":56,"Duration":184218,"SoundDuration":184218,"Delta":107203245},{"NoteNumber":35,"Velocity":54,"Duration":184218,"SoundDuration":184218,"Delta":107203245},{"NoteNumber":73,"Velocity":70,"Duration":176242,"SoundDuration":176242,"Delta":107387463},{"NoteNumber":61,"Velocity":58,"Duration":176242,"SoundDuration":176242,"Delta":107387463},{"NoteNumber":42,"Velocity":56,"Duration":176242,"SoundDuration":176242,"Delta":107387463},{"NoteNumber":71,"Velocity":65,"Duration":356347,"SoundDuration":356347,"Delta":107563706},{"NoteNumber":63,"Velocity":63,"Duration":356347,"SoundDuration":356347,"Delta":107563706},{"NoteNumber":75,"Velocity":73,"Duration":356347,"SoundDuration":356347,"Delta":107563706},{"NoteNumber":43,"Velocity":56,"Duration":177893,"SoundDuration":177893,"Delta":107563706},{"NoteNumber":42,"Velocity":53,"Duration":178454,"SoundDuration":178454,"Delta":107741599},{"NoteNumber":61,"Velocity":57,"Duration":178454,"SoundDuration":178454,"Delta":107920054},{"NoteNumber":73,"Velocity":69,"Duration":178454,"SoundDuration":178454,"Delta":107920054},{"NoteNumber":47,"Velocity":54,"Duration":178454,"SoundDuration":178454,"Delta":107920054},{"NoteNumber":59,"Velocity":53,"Duration":183038,"SoundDuration":183038,"Delta":108098508},{"NoteNumber":71,"Velocity":64,"Duration":183038,"SoundDuration":183038,"Delta":108098508},{"NoteNumber":51,"Velocity":51,"Duration":183038,"SoundDuration":183038,"Delta":108098508},{"NoteNumber":69,"Velocity":58,"Duration":360461,"SoundDuration":360461,"Delta":108281547},{"NoteNumber":75,"Velocity":70,"Duration":184218,"SoundDuration":184218,"Delta":108281547},{"NoteNumber":63,"Velocity":58,"Duration":184218,"SoundDuration":184218,"Delta":108281547},{"NoteNumber":48,"Velocity":56,"Duration":184218,"SoundDuration":184218,"Delta":108281547},{"NoteNumber":77,"Velocity":73,"Duration":176242,"SoundDuration":176242,"Delta":108465765},{"NoteNumber":65,"Velocity":60,"Duration":176242,"SoundDuration":176242,"Delta":108465765},{"NoteNumber":56,"Velocity":58,"Duration":176242,"SoundDuration":176242,"Delta":108465765},{"NoteNumber":69,"Velocity":68,"Duration":717840,"SoundDuration":717840,"Delta":108642008},{"NoteNumber":66,"Velocity":66,"Duration":356347,"SoundDuration":356347,"Delta":108642008},{"NoteNumber":78,"Velocity":76,"Duration":356347,"SoundDuration":356347,"Delta":108642008},{"NoteNumber":57,"Velocity":58,"Duration":177893,"SoundDuration":177893,"Delta":108642008},{"NoteNumber":60,"Velocity":55,"Duration":178454,"SoundDuration":178454,"Delta":108819901},{"NoteNumber":65,"Velocity":59,"Duration":89227,"SoundDuration":89227,"Delta":108998356},{"NoteNumber":77,"Velocity":72,"Duration":89227,"SoundDuration":89227,"Delta":108998356},{"NoteNumber":63,"Velocity":56,"Duration":178454,"SoundDuration":178454,"Delta":108998356},{"NoteNumber":63,"Velocity":55,"Duration":91519,"SoundDuration":91519,"Delta":109176810},{"NoteNumber":75,"Velocity":67,"Duration":91519,"SoundDuration":91519,"Delta":109176810},{"NoteNumber":66,"Velocity":53,"Duration":183038,"SoundDuration":183038,"Delta":109176810},{"NoteNumber":61,"Velocity":64,"Duration":91519,"SoundDuration":91519,"Delta":109359849},{"NoteNumber":66,"Velocity":64,"Duration":91519,"SoundDuration":91519,"Delta":109359849},{"NoteNumber":70,"Velocity":64,"Duration":91519,"SoundDuration":91519,"Delta":109359849},{"NoteNumber":73,"Velocity":75,"Duration":91519,"SoundDuration":91519,"Delta":109359849},{"NoteNumber":49,"Velocity":55,"Duration":183038,"SoundDuration":183038,"Delta":109359849},{"NoteNumber":63,"Velocity":59,"Duration":89787,"SoundDuration":89787,"Delta":109542887},{"NoteNumber":75,"Velocity":71,"Duration":89787,"SoundDuration":89787,"Delta":109542887},{"NoteNumber":65,"Velocity":66,"Duration":89787,"SoundDuration":89787,"Delta":109722463},{"NoteNumber":70,"Velocity":66,"Duration":89787,"SoundDuration":89787,"Delta":109722463},{"NoteNumber":77,"Velocity":77,"Duration":89787,"SoundDuration":89787,"Delta":109722463},{"NoteNumber":66,"Velocity":51,"Duration":179575,"SoundDuration":179575,"Delta":109722463},{"NoteNumber":58,"Velocity":51,"Duration":179575,"SoundDuration":179575,"Delta":109722463},{"NoteNumber":61,"Velocity":51,"Duration":179575,"SoundDuration":179575,"Delta":109722463},{"NoteNumber":66,"Velocity":61,"Duration":92712,"SoundDuration":92712,"Delta":109902039},{"NoteNumber":78,"Velocity":74,"Duration":92712,"SoundDuration":92712,"Delta":109902039},{"NoteNumber":68,"Velocity":68,"Duration":90931,"SoundDuration":90931,"Delta":110087465},{"NoteNumber":80,"Velocity":79,"Duration":90931,"SoundDuration":90931,"Delta":110087465},{"NoteNumber":49,"Velocity":54,"Duration":181862,"SoundDuration":181862,"Delta":110087465},{"NoteNumber":70,"Velocity":64,"Duration":92712,"SoundDuration":92712,"Delta":110269327},{"NoteNumber":82,"Velocity":76,"Duration":92712,"SoundDuration":92712,"Delta":110269327},{"NoteNumber":71,"Velocity":71,"Duration":91620,"SoundDuration":91620,"Delta":110454753},{"NoteNumber":77,"Velocity":84,"Duration":91620,"SoundDuration":91620,"Delta":110454753},{"NoteNumber":83,"Velocity":84,"Duration":91620,"SoundDuration":91620,"Delta":110454753},{"NoteNumber":37,"Velocity":61,"Duration":183831,"SoundDuration":183831,"Delta":110454753},{"NoteNumber":72,"Velocity":66,"Duration":92613,"SoundDuration":92613,"Delta":110638585},{"NoteNumber":84,"Velocity":78,"Duration":92613,"SoundDuration":92613,"Delta":110638585},{"NoteNumber":73,"Velocity":72,"Duration":93524,"SoundDuration":93524,"Delta":110824313},{"NoteNumber":77,"Velocity":85,"Duration":93524,"SoundDuration":93524,"Delta":110824313},{"NoteNumber":83,"Velocity":85,"Duration":93524,"SoundDuration":93524,"Delta":110824313},{"NoteNumber":85,"Velocity":85,"Duration":93524,"SoundDuration":93524,"Delta":110824313},{"NoteNumber":71,"Velocity":47,"Duration":187564,"SoundDuration":187564,"Delta":110824313},{"NoteNumber":65,"Velocity":42,"Duration":187564,"SoundDuration":187564,"Delta":110824313},{"NoteNumber":61,"Velocity":40,"Duration":187564,"SoundDuration":187564,"Delta":110824313},{"NoteNumber":86,"Velocity":81,"Duration":94665,"SoundDuration":94665,"Delta":111011877},{"NoteNumber":74,"Velocity":69,"Duration":94665,"SoundDuration":94665,"Delta":111011877},{"NoteNumber":87,"Velocity":89,"Duration":95618,"SoundDuration":95618,"Delta":111201632},{"NoteNumber":83,"Velocity":89,"Duration":95618,"SoundDuration":95618,"Delta":111201632},{"NoteNumber":75,"Velocity":75,"Duration":95618,"SoundDuration":95618,"Delta":111201632},{"NoteNumber":37,"Velocity":61,"Duration":385406,"SoundDuration":385406,"Delta":111201632},{"NoteNumber":49,"Velocity":61,"Duration":385406,"SoundDuration":385406,"Delta":111201632},{"NoteNumber":89,"Velocity":85,"Duration":96591,"SoundDuration":96591,"Delta":111393302},{"NoteNumber":77,"Velocity":71,"Duration":96591,"SoundDuration":96591,"Delta":111393302},{"NoteNumber":78,"Velocity":61,"Duration":194957,"SoundDuration":194957,"Delta":111587039},{"NoteNumber":90,"Velocity":86,"Duration":194957,"SoundDuration":194957,"Delta":111587039},{"NoteNumber":85,"Velocity":61,"Duration":194957,"SoundDuration":194957,"Delta":111587039},{"NoteNumber":42,"Velocity":70,"Duration":194957,"SoundDuration":194957,"Delta":111587039},{"NoteNumber":92,"Velocity":89,"Duration":187253,"SoundDuration":187253,"Delta":111781996},{"NoteNumber":80,"Velocity":63,"Duration":187253,"SoundDuration":187253,"Delta":111781996},{"NoteNumber":49,"Velocity":63,"Duration":368544,"SoundDuration":368544,"Delta":111781996},{"NoteNumber":58,"Velocity":75,"Duration":368544,"SoundDuration":368544,"Delta":111781996},{"NoteNumber":85,"Velocity":79,"Duration":362582,"SoundDuration":362582,"Delta":111969250},{"NoteNumber":82,"Velocity":68,"Duration":362582,"SoundDuration":362582,"Delta":111969250},{"NoteNumber":94,"Velocity":94,"Duration":362582,"SoundDuration":362582,"Delta":111969250},{"NoteNumber":49,"Velocity":57,"Duration":181291,"SoundDuration":181291,"Delta":112150541},{"NoteNumber":58,"Velocity":68,"Duration":181291,"SoundDuration":181291,"Delta":112150541},{"NoteNumber":80,"Velocity":62,"Duration":178454,"SoundDuration":178454,"Delta":112331832},{"NoteNumber":92,"Velocity":88,"Duration":178454,"SoundDuration":178454,"Delta":112331832},{"NoteNumber":42,"Velocity":70,"Duration":178454,"SoundDuration":178454,"Delta":112331832},{"NoteNumber":78,"Velocity":57,"Duration":91519,"SoundDuration":91519,"Delta":112510286},{"NoteNumber":90,"Velocity":81,"Duration":91519,"SoundDuration":91519,"Delta":112510286},{"NoteNumber":49,"Velocity":55,"Duration":183038,"SoundDuration":183038,"Delta":112510286},{"NoteNumber":58,"Velocity":65,"Duration":183038,"SoundDuration":183038,"Delta":112510286},{"NoteNumber":92,"Velocity":75,"Duration":45759,"SoundDuration":45759,"Delta":112601805},{"NoteNumber":94,"Velocity":75,"Duration":45759,"SoundDuration":45759,"Delta":112647565},{"NoteNumber":86,"Velocity":88,"Duration":359720,"SoundDuration":359720,"Delta":112693325},{"NoteNumber":92,"Velocity":88,"Duration":359720,"SoundDuration":359720,"Delta":112693325},{"NoteNumber":80,"Velocity":62,"Duration":359720,"SoundDuration":359720,"Delta":112693325},{"NoteNumber":42,"Velocity":72,"Duration":180711,"SoundDuration":180711,"Delta":112693325},{"NoteNumber":50,"Velocity":54,"Duration":355250,"SoundDuration":355250,"Delta":112874037},{"NoteNumber":59,"Velocity":63,"Duration":355250,"SoundDuration":355250,"Delta":112874037},{"NoteNumber":78,"Velocity":59,"Duration":176242,"SoundDuration":176242,"Delta":113053045},{"NoteNumber":90,"Velocity":83,"Duration":176242,"SoundDuration":176242,"Delta":113053045},{"NoteNumber":76,"Velocity":56,"Duration":182459,"SoundDuration":182459,"Delta":113229288},{"NoteNumber":88,"Velocity":80,"Duration":182459,"SoundDuration":182459,"Delta":113229288},{"NoteNumber":50,"Velocity":55,"Duration":182459,"SoundDuration":182459,"Delta":113229288},{"NoteNumber":59,"Velocity":65,"Duration":182459,"SoundDuration":182459,"Delta":113229288},{"NoteNumber":78,"Velocity":61,"Duration":366213,"SoundDuration":366213,"Delta":113411747},{"NoteNumber":74,"Velocity":61,"Duration":366213,"SoundDuration":366213,"Delta":113411747},{"NoteNumber":86,"Velocity":84,"Duration":366213,"SoundDuration":366213,"Delta":113411747},{"NoteNumber":42,"Velocity":59,"Duration":179575,"SoundDuration":179575,"Delta":113411747},{"NoteNumber":50,"Velocity":50,"Duration":186637,"SoundDuration":186637,"Delta":113591323},{"NoteNumber":59,"Velocity":59,"Duration":186637,"SoundDuration":186637,"Delta":113591323},{"NoteNumber":82,"Velocity":64,"Duration":183632,"SoundDuration":183632,"Delta":113777960},{"NoteNumber":73,"Velocity":64,"Duration":183632,"SoundDuration":183632,"Delta":113777960},{"NoteNumber":85,"Velocity":76,"Duration":183632,"SoundDuration":183632,"Delta":113777960},{"NoteNumber":78,"Velocity":64,"Duration":183632,"SoundDuration":183632,"Delta":113777960},{"NoteNumber":42,"Velocity":63,"Duration":183632,"SoundDuration":183632,"Delta":113777960},{"NoteNumber":87,"Velocity":78,"Duration":184218,"SoundDuration":184218,"Delta":113961592},{"NoteNumber":75,"Velocity":66,"Duration":184218,"SoundDuration":184218,"Delta":113961592},{"NoteNumber":49,"Velocity":56,"Duration":365509,"SoundDuration":365509,"Delta":113961592},{"NoteNumber":58,"Velocity":67,"Duration":365509,"SoundDuration":365509,"Delta":113961592},{"NoteNumber":82,"Velocity":68,"Duration":362582,"SoundDuration":362582,"Delta":114145811},{"NoteNumber":77,"Velocity":68,"Duration":362582,"SoundDuration":362582,"Delta":114145811},{"NoteNumber":89,"Velocity":80,"Duration":362582,"SoundDuration":362582,"Delta":114145811},{"NoteNumber":49,"Velocity":51,"Duration":181291,"SoundDuration":181291,"Delta":114327102},{"NoteNumber":58,"Velocity":61,"Duration":181291,"SoundDuration":181291,"Delta":114327102},{"NoteNumber":75,"Velocity":64,"Duration":178454,"SoundDuration":178454,"Delta":114508393},{"NoteNumber":87,"Velocity":76,"Duration":178454,"SoundDuration":178454,"Delta":114508393},{"NoteNumber":42,"Velocity":63,"Duration":178454,"SoundDuration":178454,"Delta":114508393},{"NoteNumber":73,"Velocity":59,"Duration":183038,"SoundDuration":183038,"Delta":114686847},{"NoteNumber":85,"Velocity":70,"Duration":183038,"SoundDuration":183038,"Delta":114686847},{"NoteNumber":49,"Velocity":49,"Duration":183038,"SoundDuration":183038,"Delta":114686847},{"NoteNumber":58,"Velocity":58,"Duration":183038,"SoundDuration":183038,"Delta":114686847},{"NoteNumber":74,"Velocity":55,"Duration":1084635,"SoundDuration":1084635,"Delta":114869886},{"NoteNumber":83,"Velocity":65,"Duration":1084635,"SoundDuration":1084635,"Delta":114869886},{"NoteNumber":71,"Velocity":55,"Duration":1084635,"SoundDuration":1084635,"Delta":114869886},{"NoteNumber":42,"Velocity":64,"Duration":180711,"SoundDuration":180711,"Delta":114869886},{"NoteNumber":53,"Velocity":48,"Duration":355250,"SoundDuration":355250,"Delta":115050598},{"NoteNumber":62,"Velocity":56,"Duration":355250,"SoundDuration":355250,"Delta":115050598},{"NoteNumber":53,"Velocity":46,"Duration":182459,"SoundDuration":182459,"Delta":115405849},{"NoteNumber":62,"Velocity":55,"Duration":182459,"SoundDuration":182459,"Delta":115405849},{"NoteNumber":42,"Velocity":50,"Duration":179575,"SoundDuration":179575,"Delta":115588308},{"NoteNumber":53,"Velocity":42,"Duration":186637,"SoundDuration":186637,"Delta":115767884},{"NoteNumber":62,"Velocity":50,"Duration":186637,"SoundDuration":186637,"Delta":115767884},{"NoteNumber":78,"Velocity":61,"Duration":190391,"SoundDuration":190391,"Delta":115954521},{"NoteNumber":90,"Velocity":86,"Duration":190391,"SoundDuration":190391,"Delta":115954521},{"NoteNumber":85,"Velocity":61,"Duration":190391,"SoundDuration":190391,"Delta":115954521},{"NoteNumber":42,"Velocity":70,"Duration":190391,"SoundDuration":190391,"Delta":115954521},{"NoteNumber":92,"Velocity":89,"Duration":184218,"SoundDuration":184218,"Delta":116144913},{"NoteNumber":80,"Velocity":63,"Duration":184218,"SoundDuration":184218,"Delta":116144913},{"NoteNumber":49,"Velocity":63,"Duration":365509,"SoundDuration":365509,"Delta":116144913},{"NoteNumber":58,"Velocity":75,"Duration":365509,"SoundDuration":365509,"Delta":116144913},{"NoteNumber":85,"Velocity":79,"Duration":362582,"SoundDuration":362582,"Delta":116329131},{"NoteNumber":82,"Velocity":68,"Duration":362582,"SoundDuration":362582,"Delta":116329131},{"NoteNumber":94,"Velocity":94,"Duration":362582,"SoundDuration":362582,"Delta":116329131},{"NoteNumber":49,"Velocity":57,"Duration":181291,"SoundDuration":181291,"Delta":116510422},{"NoteNumber":58,"Velocity":68,"Duration":181291,"SoundDuration":181291,"Delta":116510422},{"NoteNumber":80,"Velocity":62,"Duration":178454,"SoundDuration":178454,"Delta":116691713},{"NoteNumber":92,"Velocity":88,"Duration":178454,"SoundDuration":178454,"Delta":116691713},{"NoteNumber":42,"Velocity":70,"Duration":178454,"SoundDuration":178454,"Delta":116691713},{"NoteNumber":78,"Velocity":57,"Duration":91519,"SoundDuration":91519,"Delta":116870168},{"NoteNumber":90,"Velocity":81,"Duration":91519,"SoundDuration":91519,"Delta":116870168},{"NoteNumber":49,"Velocity":55,"Duration":183038,"SoundDuration":183038,"Delta":116870168},{"NoteNumber":58,"Velocity":65,"Duration":183038,"SoundDuration":183038,"Delta":116870168},{"NoteNumber":92,"Velocity":75,"Duration":45759,"SoundDuration":45759,"Delta":116961687},{"NoteNumber":94,"Velocity":75,"Duration":45759,"SoundDuration":45759,"Delta":117007446},{"NoteNumber":86,"Velocity":88,"Duration":359720,"SoundDuration":359720,"Delta":117053206},{"NoteNumber":92,"Velocity":88,"Duration":359720,"SoundDuration":359720,"Delta":117053206},{"NoteNumber":80,"Velocity":62,"Duration":359720,"SoundDuration":359720,"Delta":117053206},{"NoteNumber":42,"Velocity":72,"Duration":180711,"SoundDuration":180711,"Delta":117053206},{"NoteNumber":50,"Velocity":54,"Duration":355250,"SoundDuration":355250,"Delta":117233918},{"NoteNumber":59,"Velocity":63,"Duration":355250,"SoundDuration":355250,"Delta":117233918},{"NoteNumber":78,"Velocity":59,"Duration":176242,"SoundDuration":176242,"Delta":117412927},{"NoteNumber":90,"Velocity":83,"Duration":176242,"SoundDuration":176242,"Delta":117412927},{"NoteNumber":76,"Velocity":56,"Duration":182459,"SoundDuration":182459,"Delta":117589169},{"NoteNumber":88,"Velocity":80,"Duration":182459,"SoundDuration":182459,"Delta":117589169},{"NoteNumber":50,"Velocity":55,"Duration":182459,"SoundDuration":182459,"Delta":117589169},{"NoteNumber":59,"Velocity":65,"Duration":182459,"SoundDuration":182459,"Delta":117589169},{"NoteNumber":78,"Velocity":61,"Duration":366213,"SoundDuration":366213,"Delta":117771629},{"NoteNumber":74,"Velocity":61,"Duration":366213,"SoundDuration":366213,"Delta":117771629},{"NoteNumber":86,"Velocity":84,"Duration":366213,"SoundDuration":366213,"Delta":117771629},{"NoteNumber":42,"Velocity":59,"Duration":179575,"SoundDuration":179575,"Delta":117771629},{"NoteNumber":50,"Velocity":50,"Duration":186637,"SoundDuration":186637,"Delta":117951205},{"NoteNumber":59,"Velocity":59,"Duration":186637,"SoundDuration":186637,"Delta":117951205},{"NoteNumber":82,"Velocity":64,"Duration":183632,"SoundDuration":183632,"Delta":118137842},{"NoteNumber":73,"Velocity":64,"Duration":183632,"SoundDuration":183632,"Delta":118137842},{"NoteNumber":85,"Velocity":76,"Duration":183632,"SoundDuration":183632,"Delta":118137842},{"NoteNumber":78,"Velocity":64,"Duration":183632,"SoundDuration":183632,"Delta":118137842},{"NoteNumber":42,"Velocity":63,"Duration":183632,"SoundDuration":183632,"Delta":118137842},{"NoteNumber":87,"Velocity":78,"Duration":184218,"SoundDuration":184218,"Delta":118321474},{"NoteNumber":75,"Velocity":66,"Duration":184218,"SoundDuration":184218,"Delta":118321474},{"NoteNumber":49,"Velocity":56,"Duration":365509,"SoundDuration":365509,"Delta":118321474},{"NoteNumber":58,"Velocity":67,"Duration":365509,"SoundDuration":365509,"Delta":118321474},{"NoteNumber":82,"Velocity":68,"Duration":362582,"SoundDuration":362582,"Delta":118505692},{"NoteNumber":77,"Velocity":68,"Duration":362582,"SoundDuration":362582,"Delta":118505692},{"NoteNumber":89,"Velocity":80,"Duration":362582,"SoundDuration":362582,"Delta":118505692},{"NoteNumber":49,"Velocity":51,"Duration":181291,"SoundDuration":181291,"Delta":118686983},{"NoteNumber":58,"Velocity":61,"Duration":181291,"SoundDuration":181291,"Delta":118686983},{"NoteNumber":75,"Velocity":64,"Duration":178454,"SoundDuration":178454,"Delta":118868274},{"NoteNumber":87,"Velocity":76,"Duration":178454,"SoundDuration":178454,"Delta":118868274},{"NoteNumber":42,"Velocity":63,"Duration":178454,"SoundDuration":178454,"Delta":118868274},{"NoteNumber":73,"Velocity":59,"Duration":183038,"SoundDuration":183038,"Delta":119046729},{"NoteNumber":85,"Velocity":70,"Duration":183038,"SoundDuration":183038,"Delta":119046729},{"NoteNumber":49,"Velocity":49,"Duration":183038,"SoundDuration":183038,"Delta":119046729},{"NoteNumber":58,"Velocity":58,"Duration":183038,"SoundDuration":183038,"Delta":119046729},{"NoteNumber":74,"Velocity":55,"Duration":1084635,"SoundDuration":1084635,"Delta":119229767},{"NoteNumber":83,"Velocity":65,"Duration":1084635,"SoundDuration":1084635,"Delta":119229767},{"NoteNumber":71,"Velocity":55,"Duration":1084635,"SoundDuration":1084635,"Delta":119229767},{"NoteNumber":42,"Velocity":64,"Duration":180711,"SoundDuration":180711,"Delta":119229767},{"NoteNumber":53,"Velocity":48,"Duration":355250,"SoundDuration":355250,"Delta":119410479},{"NoteNumber":62,"Velocity":56,"Duration":355250,"SoundDuration":355250,"Delta":119410479},{"NoteNumber":53,"Velocity":46,"Duration":182459,"SoundDuration":182459,"Delta":119765730},{"NoteNumber":62,"Velocity":55,"Duration":182459,"SoundDuration":182459,"Delta":119765730},{"NoteNumber":42,"Velocity":50,"Duration":179575,"SoundDuration":179575,"Delta":119948190},{"NoteNumber":53,"Velocity":42,"Duration":186637,"SoundDuration":186637,"Delta":120127766},{"NoteNumber":62,"Velocity":50,"Duration":186637,"SoundDuration":186637,"Delta":120127766},{"NoteNumber":54,"Velocity":51,"Duration":83565,"SoundDuration":83565,"Delta":120314403},{"NoteNumber":63,"Velocity":35,"Duration":90623,"SoundDuration":90623,"Delta":120481534},{"NoteNumber":66,"Velocity":35,"Duration":90623,"SoundDuration":90623,"Delta":120481534},{"NoteNumber":70,"Velocity":35,"Duration":90623,"SoundDuration":90623,"Delta":120481534},{"NoteNumber":61,"Velocity":35,"Duration":83071,"SoundDuration":83071,"Delta":120572157},{"NoteNumber":61,"Velocity":49,"Duration":42608,"SoundDuration":42608,"Delta":120662781},{"NoteNumber":61,"Velocity":35,"Duration":45178,"SoundDuration":45178,"Delta":120833216},{"NoteNumber":66,"Velocity":35,"Duration":45178,"SoundDuration":45178,"Delta":120833216},{"NoteNumber":70,"Velocity":35,"Duration":45178,"SoundDuration":45178,"Delta":120833216},{"NoteNumber":49,"Velocity":49,"Duration":45178,"SoundDuration":45178,"Delta":121013928},{"NoteNumber":61,"Velocity":35,"Duration":45933,"SoundDuration":45933,"Delta":121194640},{"NoteNumber":66,"Velocity":35,"Duration":45933,"SoundDuration":45933,"Delta":121194640},{"NoteNumber":70,"Velocity":35,"Duration":45933,"SoundDuration":45933,"Delta":121194640},{"NoteNumber":56,"Velocity":48,"Duration":179008,"SoundDuration":179008,"Delta":121378373},{"NoteNumber":83,"Velocity":53,"Duration":184218,"SoundDuration":184218,"Delta":121557382},{"NoteNumber":77,"Velocity":47,"Duration":184218,"SoundDuration":184218,"Delta":121557382},{"NoteNumber":73,"Velocity":44,"Duration":184218,"SoundDuration":184218,"Delta":121557382},{"NoteNumber":85,"Velocity":60,"Duration":184218,"SoundDuration":184218,"Delta":121557382},{"NoteNumber":61,"Velocity":44,"Duration":365509,"SoundDuration":365509,"Delta":121557382},{"NoteNumber":65,"Velocity":44,"Duration":365509,"SoundDuration":365509,"Delta":121557382},{"NoteNumber":71,"Velocity":53,"Duration":365509,"SoundDuration":365509,"Delta":121557382},{"NoteNumber":75,"Velocity":48,"Duration":181291,"SoundDuration":181291,"Delta":121741600},{"NoteNumber":87,"Velocity":68,"Duration":181291,"SoundDuration":181291,"Delta":121741600},{"NoteNumber":77,"Velocity":54,"Duration":181291,"SoundDuration":181291,"Delta":121922891},{"NoteNumber":89,"Velocity":64,"Duration":181291,"SoundDuration":181291,"Delta":121922891},{"NoteNumber":61,"Velocity":32,"Duration":181291,"SoundDuration":181291,"Delta":121922891},{"NoteNumber":65,"Velocity":32,"Duration":181291,"SoundDuration":181291,"Delta":121922891},{"NoteNumber":71,"Velocity":45,"Duration":181291,"SoundDuration":181291,"Delta":121922891},{"NoteNumber":75,"Velocity":57,"Duration":178454,"SoundDuration":178454,"Delta":122104182},{"NoteNumber":87,"Velocity":68,"Duration":178454,"SoundDuration":178454,"Delta":122104182},{"NoteNumber":49,"Velocity":53,"Duration":178454,"SoundDuration":178454,"Delta":122104182},{"NoteNumber":73,"Velocity":55,"Duration":187876,"SoundDuration":187876,"Delta":122282637},{"NoteNumber":85,"Velocity":65,"Duration":187876,"SoundDuration":187876,"Delta":122282637},{"NoteNumber":61,"Velocity":31,"Duration":187876,"SoundDuration":187876,"Delta":122282637},{"NoteNumber":65,"Velocity":31,"Duration":187876,"SoundDuration":187876,"Delta":122282637},{"NoteNumber":71,"Velocity":43,"Duration":187876,"SoundDuration":187876,"Delta":122282637},{"NoteNumber":54,"Velocity":51,"Duration":83565,"SoundDuration":83565,"Delta":122470513},{"NoteNumber":63,"Velocity":35,"Duration":90623,"SoundDuration":90623,"Delta":122637644},{"NoteNumber":66,"Velocity":35,"Duration":90623,"SoundDuration":90623,"Delta":122637644},{"NoteNumber":70,"Velocity":35,"Duration":90623,"SoundDuration":90623,"Delta":122637644},{"NoteNumber":61,"Velocity":35,"Duration":83071,"SoundDuration":83071,"Delta":122728267},{"NoteNumber":61,"Velocity":49,"Duration":42608,"SoundDuration":42608,"Delta":122818891},{"NoteNumber":61,"Velocity":35,"Duration":45178,"SoundDuration":45178,"Delta":122989326},{"NoteNumber":66,"Velocity":35,"Duration":45178,"SoundDuration":45178,"Delta":122989326},{"NoteNumber":70,"Velocity":35,"Duration":45178,"SoundDuration":45178,"Delta":122989326},{"NoteNumber":49,"Velocity":49,"Duration":45178,"SoundDuration":45178,"Delta":123170038},{"NoteNumber":61,"Velocity":35,"Duration":46659,"SoundDuration":46659,"Delta":123350750},{"NoteNumber":66,"Velocity":35,"Duration":46659,"SoundDuration":46659,"Delta":123350750},{"NoteNumber":70,"Velocity":35,"Duration":46659,"SoundDuration":46659,"Delta":123350750},{"NoteNumber":56,"Velocity":48,"Duration":177012,"SoundDuration":177012,"Delta":123537387},{"NoteNumber":83,"Velocity":49,"Duration":181159,"SoundDuration":181159,"Delta":123714399},{"NoteNumber":77,"Velocity":46,"Duration":181159,"SoundDuration":181159,"Delta":123714399},{"NoteNumber":73,"Velocity":44,"Duration":181159,"SoundDuration":181159,"Delta":123714399},{"NoteNumber":85,"Velocity":60,"Duration":181159,"SoundDuration":181159,"Delta":123714399},{"NoteNumber":61,"Velocity":44,"Duration":360221,"SoundDuration":360221,"Delta":123714399},{"NoteNumber":65,"Velocity":44,"Duration":360221,"SoundDuration":360221,"Delta":123714399},{"NoteNumber":71,"Velocity":53,"Duration":360221,"SoundDuration":360221,"Delta":123714399},{"NoteNumber":75,"Velocity":48,"Duration":179061,"SoundDuration":179061,"Delta":123895558},{"NoteNumber":87,"Velocity":68,"Duration":179061,"SoundDuration":179061,"Delta":123895558},{"NoteNumber":77,"Velocity":54,"Duration":179061,"SoundDuration":179061,"Delta":124074620},{"NoteNumber":89,"Velocity":64,"Duration":179061,"SoundDuration":179061,"Delta":124074620},{"NoteNumber":61,"Velocity":32,"Duration":179061,"SoundDuration":179061,"Delta":124074620},{"NoteNumber":65,"Velocity":32,"Duration":179061,"SoundDuration":179061,"Delta":124074620},{"NoteNumber":71,"Velocity":45,"Duration":179061,"SoundDuration":179061,"Delta":124074620},{"NoteNumber":75,"Velocity":57,"Duration":178454,"SoundDuration":178454,"Delta":124253681},{"NoteNumber":87,"Velocity":68,"Duration":178454,"SoundDuration":178454,"Delta":124253681},{"NoteNumber":49,"Velocity":53,"Duration":178454,"SoundDuration":178454,"Delta":124253681},{"NoteNumber":73,"Velocity":55,"Duration":183038,"SoundDuration":183038,"Delta":124432136},{"NoteNumber":85,"Velocity":65,"Duration":183038,"SoundDuration":183038,"Delta":124432136},{"NoteNumber":61,"Velocity":31,"Duration":183038,"SoundDuration":183038,"Delta":124432136},{"NoteNumber":65,"Velocity":31,"Duration":183038,"SoundDuration":183038,"Delta":124432136},{"NoteNumber":71,"Velocity":43,"Duration":183038,"SoundDuration":183038,"Delta":124432136},{"NoteNumber":54,"Velocity":51,"Duration":83565,"SoundDuration":83565,"Delta":124615174},{"NoteNumber":63,"Velocity":35,"Duration":90623,"SoundDuration":90623,"Delta":124782305},{"NoteNumber":66,"Velocity":35,"Duration":90623,"SoundDuration":90623,"Delta":124782305},{"NoteNumber":70,"Velocity":35,"Duration":90623,"SoundDuration":90623,"Delta":124782305},{"NoteNumber":61,"Velocity":35,"Duration":83071,"SoundDuration":83071,"Delta":124872929},{"NoteNumber":61,"Velocity":49,"Duration":42608,"SoundDuration":42608,"Delta":124963552},{"NoteNumber":61,"Velocity":35,"Duration":45178,"SoundDuration":45178,"Delta":125133987},{"NoteNumber":66,"Velocity":35,"Duration":45178,"SoundDuration":45178,"Delta":125133987},{"NoteNumber":70,"Velocity":35,"Duration":45178,"SoundDuration":45178,"Delta":125133987},{"NoteNumber":49,"Velocity":49,"Duration":45178,"SoundDuration":45178,"Delta":125314699},{"NoteNumber":61,"Velocity":35,"Duration":46659,"SoundDuration":46659,"Delta":125495411},{"NoteNumber":66,"Velocity":35,"Duration":46659,"SoundDuration":46659,"Delta":125495411},{"NoteNumber":70,"Velocity":35,"Duration":46659,"SoundDuration":46659,"Delta":125495411},{"NoteNumber":42,"Velocity":58,"Duration":378306,"SoundDuration":378306,"Delta":125682048},{"NoteNumber":74,"Velocity":73,"Duration":93318,"SoundDuration":93318,"Delta":125873717},{"NoteNumber":62,"Velocity":61,"Duration":93318,"SoundDuration":93318,"Delta":125873717},{"NoteNumber":69,"Velocity":61,"Duration":93318,"SoundDuration":93318,"Delta":125873717},{"NoteNumber":64,"Velocity":66,"Duration":89787,"SoundDuration":89787,"Delta":126060354},{"NoteNumber":76,"Velocity":79,"Duration":89787,"SoundDuration":89787,"Delta":126060354},{"NoteNumber":50,"Velocity":52,"Duration":362035,"SoundDuration":362035,"Delta":126060354},{"NoteNumber":60,"Velocity":52,"Duration":362035,"SoundDuration":362035,"Delta":126060354},{"NoteNumber":66,"Velocity":62,"Duration":91229,"SoundDuration":91229,"Delta":126239930},{"NoteNumber":78,"Velocity":74,"Duration":91229,"SoundDuration":91229,"Delta":126239930},{"NoteNumber":67,"Velocity":66,"Duration":90073,"SoundDuration":90073,"Delta":126422390},{"NoteNumber":74,"Velocity":66,"Duration":90073,"SoundDuration":90073,"Delta":126422390},{"NoteNumber":79,"Velocity":79,"Duration":90073,"SoundDuration":90073,"Delta":126422390},{"NoteNumber":38,"Velocity":52,"Duration":364366,"SoundDuration":364366,"Delta":126422390},{"NoteNumber":69,"Velocity":61,"Duration":92109,"SoundDuration":92109,"Delta":126602537},{"NoteNumber":81,"Velocity":73,"Duration":92109,"SoundDuration":92109,"Delta":126602537},{"NoteNumber":70,"Velocity":66,"Duration":89504,"SoundDuration":89504,"Delta":126786756},{"NoteNumber":74,"Velocity":66,"Duration":89504,"SoundDuration":89504,"Delta":126786756},{"NoteNumber":82,"Velocity":79,"Duration":89504,"SoundDuration":89504,"Delta":126786756},{"NoteNumber":43,"Velocity":59,"Duration":361467,"SoundDuration":361467,"Delta":126786756},{"NoteNumber":71,"Velocity":67,"Duration":91229,"SoundDuration":91229,"Delta":126965764},{"NoteNumber":83,"Velocity":80,"Duration":91229,"SoundDuration":91229,"Delta":126965764},{"NoteNumber":86,"Velocity":83,"Duration":91816,"SoundDuration":91816,"Delta":127148224},{"NoteNumber":74,"Velocity":71,"Duration":91816,"SoundDuration":91816,"Delta":127148224},{"NoteNumber":50,"Velocity":55,"Duration":371480,"SoundDuration":371480,"Delta":127148224},{"NoteNumber":59,"Velocity":55,"Duration":371480,"SoundDuration":371480,"Delta":127148224},{"NoteNumber":91,"Velocity":83,"Duration":93216,"SoundDuration":93216,"Delta":127332653},{"NoteNumber":79,"Velocity":71,"Duration":93216,"SoundDuration":93216,"Delta":127332653},{"NoteNumber":95,"Velocity":84,"Duration":94454,"SoundDuration":94454,"Delta":127519704},{"NoteNumber":83,"Velocity":71,"Duration":94454,"SoundDuration":94454,"Delta":127519704},{"NoteNumber":43,"Velocity":55,"Duration":381430,"SoundDuration":381430,"Delta":127519704},{"NoteNumber":98,"Velocity":86,"Duration":95726,"SoundDuration":95726,"Delta":127709248},{"NoteNumber":86,"Velocity":73,"Duration":95726,"SoundDuration":95726,"Delta":127709248},{"NoteNumber":49,"Velocity":50,"Duration":1161405,"SoundDuration":1161405,"Delta":127901135},{"NoteNumber":59,"Velocity":50,"Duration":95195,"SoundDuration":95195,"Delta":128099482},{"NoteNumber":61,"Velocity":50,"Duration":95195,"SoundDuration":95195,"Delta":128099482},{"NoteNumber":53,"Velocity":38,"Duration":47597,"SoundDuration":47597,"Delta":128099482},{"NoteNumber":59,"Velocity":54,"Duration":95195,"SoundDuration":95195,"Delta":128289873},{"NoteNumber":63,"Velocity":54,"Duration":95195,"SoundDuration":95195,"Delta":128289873},{"NoteNumber":54,"Velocity":45,"Duration":47597,"SoundDuration":47597,"Delta":128289873},{"NoteNumber":59,"Velocity":50,"Duration":98148,"SoundDuration":98148,"Delta":128480265},{"NoteNumber":65,"Velocity":50,"Duration":98148,"SoundDuration":98148,"Delta":128480265},{"NoteNumber":56,"Velocity":39,"Duration":49074,"SoundDuration":49074,"Delta":128480265},{"NoteNumber":63,"Velocity":45,"Duration":49074,"SoundDuration":49074,"Delta":128578413},{"NoteNumber":65,"Velocity":46,"Duration":49074,"SoundDuration":49074,"Delta":128627487},{"NoteNumber":59,"Velocity":54,"Duration":95510,"SoundDuration":95510,"Delta":128676561},{"NoteNumber":63,"Velocity":54,"Duration":95510,"SoundDuration":95510,"Delta":128676561},{"NoteNumber":54,"Velocity":44,"Duration":47755,"SoundDuration":47755,"Delta":128676561},{"NoteNumber":59,"Velocity":50,"Duration":97478,"SoundDuration":97478,"Delta":128867583},{"NoteNumber":61,"Velocity":50,"Duration":97478,"SoundDuration":97478,"Delta":128867583},{"NoteNumber":53,"Velocity":40,"Duration":48739,"SoundDuration":48739,"Delta":128867583},{"NoteNumber":54,"Velocity":51,"Duration":92109,"SoundDuration":92109,"Delta":129062540},{"NoteNumber":63,"Velocity":35,"Duration":90623,"SoundDuration":90623,"Delta":129246759},{"NoteNumber":66,"Velocity":35,"Duration":90623,"SoundDuration":90623,"Delta":129246759},{"NoteNumber":70,"Velocity":35,"Duration":90623,"SoundDuration":90623,"Delta":129246759},{"NoteNumber":61,"Velocity":35,"Duration":83071,"SoundDuration":83071,"Delta":129337382},{"NoteNumber":61,"Velocity":49,"Duration":42608,"SoundDuration":42608,"Delta":129428006},{"NoteNumber":61,"Velocity":35,"Duration":45177,"SoundDuration":45177,"Delta":129598441},{"NoteNumber":66,"Velocity":35,"Duration":45177,"SoundDuration":45177,"Delta":129598441},{"NoteNumber":70,"Velocity":35,"Duration":45177,"SoundDuration":45177,"Delta":129598441},{"NoteNumber":49,"Velocity":49,"Duration":45177,"SoundDuration":45177,"Delta":129779153},{"NoteNumber":61,"Velocity":35,"Duration":45933,"SoundDuration":45933,"Delta":129959865},{"NoteNumber":66,"Velocity":35,"Duration":45933,"SoundDuration":45933,"Delta":129959865},{"NoteNumber":70,"Velocity":35,"Duration":45933,"SoundDuration":45933,"Delta":129959865},{"NoteNumber":56,"Velocity":48,"Duration":177011,"SoundDuration":177011,"Delta":130143598},{"NoteNumber":83,"Velocity":53,"Duration":181697,"SoundDuration":181697,"Delta":130320610},{"NoteNumber":77,"Velocity":47,"Duration":181697,"SoundDuration":181697,"Delta":130320610},{"NoteNumber":73,"Velocity":44,"Duration":181697,"SoundDuration":181697,"Delta":130320610},{"NoteNumber":85,"Velocity":60,"Duration":181697,"SoundDuration":181697,"Delta":130320610},{"NoteNumber":61,"Velocity":44,"Duration":360758,"SoundDuration":360758,"Delta":130320610},{"NoteNumber":65,"Velocity":44,"Duration":360758,"SoundDuration":360758,"Delta":130320610},{"NoteNumber":71,"Velocity":53,"Duration":360758,"SoundDuration":360758,"Delta":130320610},{"NoteNumber":75,"Velocity":48,"Duration":179061,"SoundDuration":179061,"Delta":130502307},{"NoteNumber":87,"Velocity":68,"Duration":179061,"SoundDuration":179061,"Delta":130502307},{"NoteNumber":77,"Velocity":54,"Duration":179061,"SoundDuration":179061,"Delta":130681369},{"NoteNumber":89,"Velocity":64,"Duration":179061,"SoundDuration":179061,"Delta":130681369},{"NoteNumber":61,"Velocity":32,"Duration":179061,"SoundDuration":179061,"Delta":130681369},{"NoteNumber":65,"Velocity":32,"Duration":179061,"SoundDuration":179061,"Delta":130681369},{"NoteNumber":71,"Velocity":45,"Duration":179061,"SoundDuration":179061,"Delta":130681369},{"NoteNumber":75,"Velocity":57,"Duration":178454,"SoundDuration":178454,"Delta":130860430},{"NoteNumber":87,"Velocity":68,"Duration":178454,"SoundDuration":178454,"Delta":130860430},{"NoteNumber":49,"Velocity":53,"Duration":178454,"SoundDuration":178454,"Delta":130860430},{"NoteNumber":73,"Velocity":55,"Duration":187875,"SoundDuration":187875,"Delta":131038885},{"NoteNumber":85,"Velocity":65,"Duration":187875,"SoundDuration":187875,"Delta":131038885},{"NoteNumber":61,"Velocity":31,"Duration":187875,"SoundDuration":187875,"Delta":131038885},{"NoteNumber":65,"Velocity":31,"Duration":187875,"SoundDuration":187875,"Delta":131038885},{"NoteNumber":71,"Velocity":43,"Duration":187875,"SoundDuration":187875,"Delta":131038885},{"NoteNumber":54,"Velocity":51,"Duration":83565,"SoundDuration":83565,"Delta":131226761},{"NoteNumber":63,"Velocity":35,"Duration":90623,"SoundDuration":90623,"Delta":131393892},{"NoteNumber":66,"Velocity":35,"Duration":90623,"SoundDuration":90623,"Delta":131393892},{"NoteNumber":70,"Velocity":35,"Duration":90623,"SoundDuration":90623,"Delta":131393892},{"NoteNumber":61,"Velocity":35,"Duration":83071,"SoundDuration":83071,"Delta":131484515},{"NoteNumber":61,"Velocity":49,"Duration":42608,"SoundDuration":42608,"Delta":131575139},{"NoteNumber":61,"Velocity":35,"Duration":45177,"SoundDuration":45177,"Delta":131745574},{"NoteNumber":66,"Velocity":35,"Duration":45177,"SoundDuration":45177,"Delta":131745574},{"NoteNumber":70,"Velocity":35,"Duration":45177,"SoundDuration":45177,"Delta":131745574},{"NoteNumber":49,"Velocity":49,"Duration":45177,"SoundDuration":45177,"Delta":131926286},{"NoteNumber":61,"Velocity":35,"Duration":46659,"SoundDuration":46659,"Delta":132106998},{"NoteNumber":66,"Velocity":35,"Duration":46659,"SoundDuration":46659,"Delta":132106998},{"NoteNumber":70,"Velocity":35,"Duration":46659,"SoundDuration":46659,"Delta":132106998},{"NoteNumber":56,"Velocity":48,"Duration":178539,"SoundDuration":178539,"Delta":132293635},{"NoteNumber":83,"Velocity":49,"Duration":182771,"SoundDuration":182771,"Delta":132472174},{"NoteNumber":77,"Velocity":46,"Duration":182771,"SoundDuration":182771,"Delta":132472174},{"NoteNumber":73,"Velocity":44,"Duration":182771,"SoundDuration":182771,"Delta":132472174},{"NoteNumber":85,"Velocity":60,"Duration":182771,"SoundDuration":182771,"Delta":132472174},{"NoteNumber":61,"Velocity":44,"Duration":362358,"SoundDuration":362358,"Delta":132472174},{"NoteNumber":65,"Velocity":44,"Duration":362358,"SoundDuration":362358,"Delta":132472174},{"NoteNumber":71,"Velocity":53,"Duration":362358,"SoundDuration":362358,"Delta":132472174},{"NoteNumber":75,"Velocity":48,"Duration":179586,"SoundDuration":179586,"Delta":132654945},{"NoteNumber":87,"Velocity":68,"Duration":179586,"SoundDuration":179586,"Delta":132654945},{"NoteNumber":77,"Velocity":54,"Duration":179586,"SoundDuration":179586,"Delta":132834532},{"NoteNumber":89,"Velocity":64,"Duration":179586,"SoundDuration":179586,"Delta":132834532},{"NoteNumber":61,"Velocity":32,"Duration":179586,"SoundDuration":179586,"Delta":132834532},{"NoteNumber":65,"Velocity":32,"Duration":179586,"SoundDuration":179586,"Delta":132834532},{"NoteNumber":71,"Velocity":45,"Duration":179586,"SoundDuration":179586,"Delta":132834532},{"NoteNumber":75,"Velocity":57,"Duration":178454,"SoundDuration":178454,"Delta":133014119},{"NoteNumber":87,"Velocity":68,"Duration":178454,"SoundDuration":178454,"Delta":133014119},{"NoteNumber":49,"Velocity":53,"Duration":178454,"SoundDuration":178454,"Delta":133014119},{"NoteNumber":73,"Velocity":55,"Duration":183038,"SoundDuration":183038,"Delta":133192574},{"NoteNumber":85,"Velocity":65,"Duration":183038,"SoundDuration":183038,"Delta":133192574},{"NoteNumber":61,"Velocity":31,"Duration":183038,"SoundDuration":183038,"Delta":133192574},{"NoteNumber":65,"Velocity":31,"Duration":183038,"SoundDuration":183038,"Delta":133192574},{"NoteNumber":71,"Velocity":43,"Duration":183038,"SoundDuration":183038,"Delta":133192574},{"NoteNumber":54,"Velocity":51,"Duration":83565,"SoundDuration":83565,"Delta":133375612},{"NoteNumber":63,"Velocity":35,"Duration":90623,"SoundDuration":90623,"Delta":133542743},{"NoteNumber":66,"Velocity":35,"Duration":90623,"SoundDuration":90623,"Delta":133542743},{"NoteNumber":70,"Velocity":35,"Duration":90623,"SoundDuration":90623,"Delta":133542743},{"NoteNumber":61,"Velocity":35,"Duration":83071,"SoundDuration":83071,"Delta":133633367},{"NoteNumber":61,"Velocity":49,"Duration":42608,"SoundDuration":42608,"Delta":133723990},{"NoteNumber":61,"Velocity":35,"Duration":45177,"SoundDuration":45177,"Delta":133894425},{"NoteNumber":66,"Velocity":35,"Duration":45177,"SoundDuration":45177,"Delta":133894425},{"NoteNumber":70,"Velocity":35,"Duration":45177,"SoundDuration":45177,"Delta":133894425},{"NoteNumber":49,"Velocity":49,"Duration":45177,"SoundDuration":45177,"Delta":134075137},{"NoteNumber":61,"Velocity":35,"Duration":46659,"SoundDuration":46659,"Delta":134255849},{"NoteNumber":66,"Velocity":35,"Duration":46659,"SoundDuration":46659,"Delta":134255849},{"NoteNumber":70,"Velocity":35,"Duration":46659,"SoundDuration":46659,"Delta":134255849},{"NoteNumber":42,"Velocity":58,"Duration":378305,"SoundDuration":378305,"Delta":134442486},{"NoteNumber":74,"Velocity":73,"Duration":93318,"SoundDuration":93318,"Delta":134634155},{"NoteNumber":62,"Velocity":61,"Duration":93318,"SoundDuration":93318,"Delta":134634155},{"NoteNumber":69,"Velocity":61,"Duration":93318,"SoundDuration":93318,"Delta":134634155},{"NoteNumber":64,"Velocity":66,"Duration":89787,"SoundDuration":89787,"Delta":134820792},{"NoteNumber":76,"Velocity":79,"Duration":89787,"SoundDuration":89787,"Delta":134820792},{"NoteNumber":50,"Velocity":52,"Duration":362035,"SoundDuration":362035,"Delta":134820792},{"NoteNumber":60,"Velocity":52,"Duration":362035,"SoundDuration":362035,"Delta":134820792},{"NoteNumber":66,"Velocity":62,"Duration":91229,"SoundDuration":91229,"Delta":135000368},{"NoteNumber":78,"Velocity":74,"Duration":91229,"SoundDuration":91229,"Delta":135000368},{"NoteNumber":67,"Velocity":66,"Duration":90073,"SoundDuration":90073,"Delta":135182828},{"NoteNumber":74,"Velocity":66,"Duration":90073,"SoundDuration":90073,"Delta":135182828},{"NoteNumber":79,"Velocity":79,"Duration":90073,"SoundDuration":90073,"Delta":135182828},{"NoteNumber":38,"Velocity":52,"Duration":364365,"SoundDuration":364365,"Delta":135182828},{"NoteNumber":69,"Velocity":61,"Duration":92109,"SoundDuration":92109,"Delta":135362975},{"NoteNumber":81,"Velocity":73,"Duration":92109,"SoundDuration":92109,"Delta":135362975},{"NoteNumber":70,"Velocity":66,"Duration":89504,"SoundDuration":89504,"Delta":135547194},{"NoteNumber":74,"Velocity":66,"Duration":89504,"SoundDuration":89504,"Delta":135547194},{"NoteNumber":82,"Velocity":79,"Duration":89504,"SoundDuration":89504,"Delta":135547194},{"NoteNumber":43,"Velocity":59,"Duration":361468,"SoundDuration":361468,"Delta":135547194},{"NoteNumber":71,"Velocity":61,"Duration":91229,"SoundDuration":91229,"Delta":135726202},{"NoteNumber":83,"Velocity":77,"Duration":91229,"SoundDuration":91229,"Delta":135726202},{"NoteNumber":86,"Velocity":83,"Duration":91816,"SoundDuration":91816,"Delta":135908662},{"NoteNumber":74,"Velocity":71,"Duration":91816,"SoundDuration":91816,"Delta":135908662},{"NoteNumber":50,"Velocity":55,"Duration":371480,"SoundDuration":371480,"Delta":135908662},{"NoteNumber":59,"Velocity":55,"Duration":371480,"SoundDuration":371480,"Delta":135908662},{"NoteNumber":91,"Velocity":83,"Duration":93216,"SoundDuration":93216,"Delta":136093092},{"NoteNumber":79,"Velocity":71,"Duration":93216,"SoundDuration":93216,"Delta":136093092},{"NoteNumber":95,"Velocity":84,"Duration":94454,"SoundDuration":94454,"Delta":136280142},{"NoteNumber":83,"Velocity":71,"Duration":94454,"SoundDuration":94454,"Delta":136280142},{"NoteNumber":43,"Velocity":55,"Duration":381430,"SoundDuration":381430,"Delta":136280142},{"NoteNumber":98,"Velocity":86,"Duration":95726,"SoundDuration":95726,"Delta":136469686},{"NoteNumber":86,"Velocity":73,"Duration":95726,"SoundDuration":95726,"Delta":136469686},{"NoteNumber":49,"Velocity":50,"Duration":1161405,"SoundDuration":1161405,"Delta":136661573},{"NoteNumber":59,"Velocity":50,"Duration":95195,"SoundDuration":95195,"Delta":136859920},{"NoteNumber":61,"Velocity":50,"Duration":95195,"SoundDuration":95195,"Delta":136859920},{"NoteNumber":53,"Velocity":38,"Duration":47597,"SoundDuration":47597,"Delta":136859920},{"NoteNumber":59,"Velocity":54,"Duration":95195,"SoundDuration":95195,"Delta":137050312},{"NoteNumber":63,"Velocity":54,"Duration":95195,"SoundDuration":95195,"Delta":137050312},{"NoteNumber":54,"Velocity":45,"Duration":47597,"SoundDuration":47597,"Delta":137050312},{"NoteNumber":59,"Velocity":50,"Duration":98148,"SoundDuration":98148,"Delta":137240703},{"NoteNumber":65,"Velocity":50,"Duration":98148,"SoundDuration":98148,"Delta":137240703},{"NoteNumber":56,"Velocity":39,"Duration":49074,"SoundDuration":49074,"Delta":137240703},{"NoteNumber":63,"Velocity":45,"Duration":49074,"SoundDuration":49074,"Delta":137338851},{"NoteNumber":65,"Velocity":46,"Duration":49074,"SoundDuration":49074,"Delta":137387925},{"NoteNumber":59,"Velocity":54,"Duration":95510,"SoundDuration":95510,"Delta":137437000},{"NoteNumber":63,"Velocity":54,"Duration":95510,"SoundDuration":95510,"Delta":137437000},{"NoteNumber":54,"Velocity":44,"Duration":47755,"SoundDuration":47755,"Delta":137437000},{"NoteNumber":59,"Velocity":50,"Duration":97478,"SoundDuration":97478,"Delta":137628022},{"NoteNumber":61,"Velocity":50,"Duration":97478,"SoundDuration":97478,"Delta":137628022},{"NoteNumber":53,"Velocity":40,"Duration":48739,"SoundDuration":48739,"Delta":137628022},{"NoteNumber":58,"Velocity":76,"Duration":99542,"SoundDuration":99542,"Delta":137822979},{"NoteNumber":66,"Velocity":79,"Duration":99542,"SoundDuration":99542,"Delta":137822979},{"NoteNumber":42,"Velocity":61,"Duration":199083,"SoundDuration":199083,"Delta":137822979},{"NoteNumber":49,"Velocity":61,"Duration":199083,"SoundDuration":199083,"Delta":137822979},{"NoteNumber":90,"Velocity":57,"Duration":90361,"SoundDuration":90361,"Delta":138022063},{"NoteNumber":85,"Velocity":48,"Duration":90361,"SoundDuration":90361,"Delta":138022063},{"NoteNumber":82,"Velocity":48,"Duration":90361,"SoundDuration":90361,"Delta":138022063},{"NoteNumber":78,"Velocity":57,"Duration":90361,"SoundDuration":90361,"Delta":138112424},{"NoteNumber":80,"Velocity":69,"Duration":93167,"SoundDuration":93167,"Delta":138202786},{"NoteNumber":90,"Velocity":57,"Duration":90090,"SoundDuration":90090,"Delta":138389121},{"NoteNumber":85,"Velocity":48,"Duration":90090,"SoundDuration":90090,"Delta":138389121},{"NoteNumber":82,"Velocity":48,"Duration":90090,"SoundDuration":90090,"Delta":138389121},{"NoteNumber":78,"Velocity":57,"Duration":90090,"SoundDuration":90090,"Delta":138479211},{"NoteNumber":80,"Velocity":69,"Duration":93167,"SoundDuration":93167,"Delta":138569301},{"NoteNumber":90,"Velocity":57,"Duration":90361,"SoundDuration":90361,"Delta":138755637},{"NoteNumber":85,"Velocity":48,"Duration":90361,"SoundDuration":90361,"Delta":138755637},{"NoteNumber":82,"Velocity":48,"Duration":90361,"SoundDuration":90361,"Delta":138755637},{"NoteNumber":78,"Velocity":57,"Duration":91971,"SoundDuration":91971,"Delta":138845998},{"NoteNumber":80,"Velocity":69,"Duration":93086,"SoundDuration":93086,"Delta":138937969},{"NoteNumber":90,"Velocity":57,"Duration":90090,"SoundDuration":90090,"Delta":139124102},{"NoteNumber":85,"Velocity":48,"Duration":90090,"SoundDuration":90090,"Delta":139124102},{"NoteNumber":82,"Velocity":48,"Duration":90090,"SoundDuration":90090,"Delta":139124102},{"NoteNumber":78,"Velocity":57,"Duration":90090,"SoundDuration":90090,"Delta":139214192},{"NoteNumber":80,"Velocity":69,"Duration":92879,"SoundDuration":92879,"Delta":139304282},{"NoteNumber":90,"Velocity":57,"Duration":90090,"SoundDuration":90090,"Delta":139490041},{"NoteNumber":85,"Velocity":48,"Duration":90090,"SoundDuration":90090,"Delta":139490041},{"NoteNumber":82,"Velocity":48,"Duration":90090,"SoundDuration":90090,"Delta":139490041},{"NoteNumber":78,"Velocity":57,"Duration":90090,"SoundDuration":90090,"Delta":139580131},{"NoteNumber":80,"Velocity":69,"Duration":95877,"SoundDuration":95877,"Delta":139670221},{"NoteNumber":78,"Velocity":54,"Duration":95877,"SoundDuration":95877,"Delta":139861975},{"NoteNumber":90,"Velocity":64,"Duration":95877,"SoundDuration":95877,"Delta":139861975},{"NoteNumber":85,"Velocity":54,"Duration":95877,"SoundDuration":95877,"Delta":139861975},{"NoteNumber":82,"Velocity":54,"Duration":95877,"SoundDuration":95877,"Delta":139861975},{"NoteNumber":93,"Velocity":91,"Duration":95877,"SoundDuration":95877,"Delta":140053730},{"NoteNumber":84,"Velocity":77,"Duration":95877,"SoundDuration":95877,"Delta":140053730},{"NoteNumber":81,"Velocity":77,"Duration":95877,"SoundDuration":95877,"Delta":140053730},{"NoteNumber":54,"Velocity":73,"Duration":191754,"SoundDuration":191754,"Delta":140053730},{"NoteNumber":50,"Velocity":73,"Duration":191754,"SoundDuration":191754,"Delta":140053730},{"NoteNumber":42,"Velocity":62,"Duration":191754,"SoundDuration":191754,"Delta":140053730},{"NoteNumber":74,"Velocity":51,"Duration":90361,"SoundDuration":90361,"Delta":140245484},{"NoteNumber":69,"Velocity":43,"Duration":90361,"SoundDuration":90361,"Delta":140245484},{"NoteNumber":66,"Velocity":43,"Duration":90361,"SoundDuration":90361,"Delta":140245484},{"NoteNumber":62,"Velocity":51,"Duration":90361,"SoundDuration":90361,"Delta":140335846},{"NoteNumber":64,"Velocity":64,"Duration":92879,"SoundDuration":92879,"Delta":140426207},{"NoteNumber":74,"Velocity":51,"Duration":90361,"SoundDuration":90361,"Delta":140611966},{"NoteNumber":69,"Velocity":43,"Duration":90361,"SoundDuration":90361,"Delta":140611966},{"NoteNumber":66,"Velocity":43,"Duration":90361,"SoundDuration":90361,"Delta":140611966},{"NoteNumber":62,"Velocity":51,"Duration":90361,"SoundDuration":90361,"Delta":140702327},{"NoteNumber":64,"Velocity":64,"Duration":92879,"SoundDuration":92879,"Delta":140792689},{"NoteNumber":74,"Velocity":51,"Duration":90634,"SoundDuration":90634,"Delta":140978447},{"NoteNumber":69,"Velocity":43,"Duration":90634,"SoundDuration":90634,"Delta":140978447},{"NoteNumber":66,"Velocity":43,"Duration":90634,"SoundDuration":90634,"Delta":140978447},{"NoteNumber":62,"Velocity":51,"Duration":90634,"SoundDuration":90634,"Delta":141069082},{"NoteNumber":64,"Velocity":64,"Duration":92879,"SoundDuration":92879,"Delta":141159716},{"NoteNumber":74,"Velocity":51,"Duration":90634,"SoundDuration":90634,"Delta":141345475},{"NoteNumber":69,"Velocity":43,"Duration":90634,"SoundDuration":90634,"Delta":141345475},{"NoteNumber":66,"Velocity":43,"Duration":90634,"SoundDuration":90634,"Delta":141345475},{"NoteNumber":62,"Velocity":51,"Duration":90634,"SoundDuration":90634,"Delta":141436109},{"NoteNumber":64,"Velocity":64,"Duration":92879,"SoundDuration":92879,"Delta":141526744},{"NoteNumber":74,"Velocity":51,"Duration":90634,"SoundDuration":90634,"Delta":141712502},{"NoteNumber":69,"Velocity":43,"Duration":90634,"SoundDuration":90634,"Delta":141712502},{"NoteNumber":66,"Velocity":43,"Duration":90634,"SoundDuration":90634,"Delta":141712502},{"NoteNumber":62,"Velocity":51,"Duration":90634,"SoundDuration":90634,"Delta":141803137},{"NoteNumber":64,"Velocity":64,"Duration":96172,"SoundDuration":96172,"Delta":141893771},{"NoteNumber":62,"Velocity":48,"Duration":96172,"SoundDuration":96172,"Delta":142086116},{"NoteNumber":74,"Velocity":57,"Duration":96172,"SoundDuration":96172,"Delta":142086116},{"NoteNumber":69,"Velocity":48,"Duration":96172,"SoundDuration":96172,"Delta":142086116},{"NoteNumber":66,"Velocity":48,"Duration":96172,"SoundDuration":96172,"Delta":142086116},{"NoteNumber":66,"Velocity":76,"Duration":100227,"SoundDuration":100227,"Delta":142278460},{"NoteNumber":70,"Velocity":76,"Duration":100227,"SoundDuration":100227,"Delta":142278460},{"NoteNumber":73,"Velocity":76,"Duration":100227,"SoundDuration":100227,"Delta":142278460},{"NoteNumber":78,"Velocity":91,"Duration":100227,"SoundDuration":100227,"Delta":142278460},{"NoteNumber":49,"Velocity":61,"Duration":200454,"SoundDuration":200454,"Delta":142278460},{"NoteNumber":42,"Velocity":61,"Duration":200454,"SoundDuration":200454,"Delta":142278460},{"NoteNumber":54,"Velocity":73,"Duration":200454,"SoundDuration":200454,"Delta":142278460},{"NoteNumber":90,"Velocity":57,"Duration":90361,"SoundDuration":90361,"Delta":142478915},{"NoteNumber":85,"Velocity":48,"Duration":90361,"SoundDuration":90361,"Delta":142478915},{"NoteNumber":82,"Velocity":48,"Duration":90361,"SoundDuration":90361,"Delta":142478915},{"NoteNumber":78,"Velocity":57,"Duration":90361,"SoundDuration":90361,"Delta":142569276},{"NoteNumber":80,"Velocity":68,"Duration":92592,"SoundDuration":92592,"Delta":142659638},{"NoteNumber":90,"Velocity":57,"Duration":90634,"SoundDuration":90634,"Delta":142844823},{"NoteNumber":85,"Velocity":48,"Duration":90634,"SoundDuration":90634,"Delta":142844823},{"NoteNumber":82,"Velocity":48,"Duration":90634,"SoundDuration":90634,"Delta":142844823},{"NoteNumber":78,"Velocity":57,"Duration":90634,"SoundDuration":90634,"Delta":142935457},{"NoteNumber":80,"Velocity":68,"Duration":92879,"SoundDuration":92879,"Delta":143026092},{"NoteNumber":90,"Velocity":57,"Duration":90909,"SoundDuration":90909,"Delta":143211850},{"NoteNumber":85,"Velocity":48,"Duration":90909,"SoundDuration":90909,"Delta":143211850},{"NoteNumber":82,"Velocity":48,"Duration":90909,"SoundDuration":90909,"Delta":143211850},{"NoteNumber":78,"Velocity":57,"Duration":90908,"SoundDuration":90908,"Delta":143302759},{"NoteNumber":80,"Velocity":68,"Duration":93324,"SoundDuration":93324,"Delta":143393668},{"NoteNumber":90,"Velocity":57,"Duration":90909,"SoundDuration":90909,"Delta":143580317},{"NoteNumber":85,"Velocity":48,"Duration":90909,"SoundDuration":90909,"Delta":143580317},{"NoteNumber":82,"Velocity":48,"Duration":90909,"SoundDuration":90909,"Delta":143580317},{"NoteNumber":78,"Velocity":57,"Duration":90908,"SoundDuration":90908,"Delta":143671226},{"NoteNumber":80,"Velocity":68,"Duration":93167,"SoundDuration":93167,"Delta":143762135},{"NoteNumber":90,"Velocity":57,"Duration":93167,"SoundDuration":93167,"Delta":143948470},{"NoteNumber":85,"Velocity":48,"Duration":93167,"SoundDuration":93167,"Delta":143948470},{"NoteNumber":82,"Velocity":48,"Duration":93167,"SoundDuration":93167,"Delta":143948470},{"NoteNumber":78,"Velocity":57,"Duration":93167,"SoundDuration":93167,"Delta":144041638},{"NoteNumber":80,"Velocity":68,"Duration":95877,"SoundDuration":95877,"Delta":144134806},{"NoteNumber":78,"Velocity":54,"Duration":95877,"SoundDuration":95877,"Delta":144326560},{"NoteNumber":90,"Velocity":64,"Duration":95877,"SoundDuration":95877,"Delta":144326560},{"NoteNumber":85,"Velocity":54,"Duration":95877,"SoundDuration":95877,"Delta":144326560},{"NoteNumber":82,"Velocity":54,"Duration":95877,"SoundDuration":95877,"Delta":144326560},{"NoteNumber":90,"Velocity":91,"Duration":95877,"SoundDuration":95877,"Delta":144518315},{"NoteNumber":94,"Velocity":91,"Duration":95877,"SoundDuration":95877,"Delta":144518315},{"NoteNumber":87,"Velocity":76,"Duration":95877,"SoundDuration":95877,"Delta":144518315},{"NoteNumber":82,"Velocity":76,"Duration":95877,"SoundDuration":95877,"Delta":144518315},{"NoteNumber":51,"Velocity":73,"Duration":191754,"SoundDuration":191754,"Delta":144518315},{"NoteNumber":46,"Velocity":61,"Duration":191754,"SoundDuration":191754,"Delta":144518315},{"NoteNumber":39,"Velocity":61,"Duration":191754,"SoundDuration":191754,"Delta":144518315},{"NoteNumber":75,"Velocity":51,"Duration":90634,"SoundDuration":90634,"Delta":144710069},{"NoteNumber":70,"Velocity":43,"Duration":90634,"SoundDuration":90634,"Delta":144710069},{"NoteNumber":66,"Velocity":43,"Duration":90634,"SoundDuration":90634,"Delta":144710069},{"NoteNumber":63,"Velocity":51,"Duration":90634,"SoundDuration":90634,"Delta":144800704},{"NoteNumber":65,"Velocity":64,"Duration":92879,"SoundDuration":92879,"Delta":144891338},{"NoteNumber":75,"Velocity":51,"Duration":90634,"SoundDuration":90634,"Delta":145077097},{"NoteNumber":70,"Velocity":43,"Duration":90634,"SoundDuration":90634,"Delta":145077097},{"NoteNumber":66,"Velocity":43,"Duration":90634,"SoundDuration":90634,"Delta":145077097},{"NoteNumber":63,"Velocity":51,"Duration":90634,"SoundDuration":90634,"Delta":145167731},{"NoteNumber":65,"Velocity":64,"Duration":92879,"SoundDuration":92879,"Delta":145258366},{"NoteNumber":75,"Velocity":51,"Duration":90634,"SoundDuration":90634,"Delta":145444124},{"NoteNumber":70,"Velocity":43,"Duration":90634,"SoundDuration":90634,"Delta":145444124},{"NoteNumber":66,"Velocity":43,"Duration":90634,"SoundDuration":90634,"Delta":145444124},{"NoteNumber":63,"Velocity":51,"Duration":92062,"SoundDuration":92062,"Delta":145534759},{"NoteNumber":65,"Velocity":64,"Duration":93046,"SoundDuration":93046,"Delta":145626821},{"NoteNumber":75,"Velocity":51,"Duration":90634,"SoundDuration":90634,"Delta":145812913},{"NoteNumber":70,"Velocity":43,"Duration":90634,"SoundDuration":90634,"Delta":145812913},{"NoteNumber":66,"Velocity":43,"Duration":90634,"SoundDuration":90634,"Delta":145812913},{"NoteNumber":63,"Velocity":51,"Duration":90634,"SoundDuration":90634,"Delta":145903548},{"NoteNumber":65,"Velocity":64,"Duration":92879,"SoundDuration":92879,"Delta":145994182},{"NoteNumber":75,"Velocity":51,"Duration":90909,"SoundDuration":90909,"Delta":146179941},{"NoteNumber":70,"Velocity":43,"Duration":90909,"SoundDuration":90909,"Delta":146179941},{"NoteNumber":66,"Velocity":43,"Duration":90909,"SoundDuration":90909,"Delta":146179941},{"NoteNumber":63,"Velocity":51,"Duration":92760,"SoundDuration":92760,"Delta":146270850},{"NoteNumber":87,"Velocity":74,"Duration":99880,"SoundDuration":99880,"Delta":146363610},{"NoteNumber":83,"Velocity":74,"Duration":99880,"SoundDuration":99880,"Delta":146363610},{"NoteNumber":78,"Velocity":63,"Duration":99880,"SoundDuration":99880,"Delta":146363610},{"NoteNumber":75,"Velocity":63,"Duration":99880,"SoundDuration":99880,"Delta":146363610},{"NoteNumber":47,"Velocity":52,"Duration":99880,"SoundDuration":99880,"Delta":146363610},{"NoteNumber":54,"Velocity":62,"Duration":99880,"SoundDuration":99880,"Delta":146363610},{"NoteNumber":59,"Velocity":62,"Duration":99880,"SoundDuration":99880,"Delta":146363610},{"NoteNumber":78,"Velocity":64,"Duration":104174,"SoundDuration":104174,"Delta":146563370},{"NoteNumber":83,"Velocity":64,"Duration":104174,"SoundDuration":104174,"Delta":146563370},{"NoteNumber":87,"Velocity":77,"Duration":104174,"SoundDuration":104174,"Delta":146563370},{"NoteNumber":90,"Velocity":77,"Duration":104174,"SoundDuration":104174,"Delta":146563370},{"NoteNumber":47,"Velocity":51,"Duration":104174,"SoundDuration":104174,"Delta":146563370},{"NoteNumber":54,"Velocity":61,"Duration":104174,"SoundDuration":104174,"Delta":146563370},{"NoteNumber":59,"Velocity":61,"Duration":104174,"SoundDuration":104174,"Delta":146563370},{"NoteNumber":94,"Velocity":82,"Duration":101010,"SoundDuration":101010,"Delta":146771718},{"NoteNumber":90,"Velocity":82,"Duration":101010,"SoundDuration":101010,"Delta":146771718},{"NoteNumber":85,"Velocity":69,"Duration":101010,"SoundDuration":101010,"Delta":146771718},{"NoteNumber":82,"Velocity":69,"Duration":101010,"SoundDuration":101010,"Delta":146771718},{"NoteNumber":42,"Velocity":58,"Duration":202020,"SoundDuration":202020,"Delta":146771718},{"NoteNumber":49,"Velocity":58,"Duration":202020,"SoundDuration":202020,"Delta":146771718},{"NoteNumber":54,"Velocity":69,"Duration":202020,"SoundDuration":202020,"Delta":146771718},{"NoteNumber":71,"Velocity":57,"Duration":90909,"SoundDuration":90909,"Delta":146973738},{"NoteNumber":66,"Velocity":48,"Duration":90909,"SoundDuration":90909,"Delta":146973738},{"NoteNumber":63,"Velocity":48,"Duration":90909,"SoundDuration":90909,"Delta":146973738},{"NoteNumber":61,"Velocity":57,"Duration":83333,"SoundDuration":83333,"Delta":147064647},{"NoteNumber":61,"Velocity":68,"Duration":93167,"SoundDuration":93167,"Delta":147155556},{"NoteNumber":73,"Velocity":59,"Duration":90909,"SoundDuration":90909,"Delta":147341892},{"NoteNumber":71,"Velocity":49,"Duration":90909,"SoundDuration":90909,"Delta":147341892},{"NoteNumber":68,"Velocity":49,"Duration":90909,"SoundDuration":90909,"Delta":147341892},{"NoteNumber":66,"Velocity":59,"Duration":83333,"SoundDuration":83333,"Delta":147432801},{"NoteNumber":66,"Velocity":72,"Duration":92307,"SoundDuration":92307,"Delta":147523710},{"NoteNumber":82,"Velocity":61,"Duration":89820,"SoundDuration":89820,"Delta":147708325},{"NoteNumber":78,"Velocity":51,"Duration":89820,"SoundDuration":89820,"Delta":147708325},{"NoteNumber":75,"Velocity":51,"Duration":89820,"SoundDuration":89820,"Delta":147708325},{"NoteNumber":73,"Velocity":62,"Duration":82335,"SoundDuration":82335,"Delta":147798146},{"NoteNumber":73,"Velocity":73,"Duration":92024,"SoundDuration":92024,"Delta":147887966},{"NoteNumber":85,"Velocity":63,"Duration":90361,"SoundDuration":90361,"Delta":148072015},{"NoteNumber":83,"Velocity":53,"Duration":90361,"SoundDuration":90361,"Delta":148072015},{"NoteNumber":80,"Velocity":53,"Duration":90361,"SoundDuration":90361,"Delta":148072015},{"NoteNumber":78,"Velocity":64,"Duration":82831,"SoundDuration":82831,"Delta":148162376},{"NoteNumber":78,"Velocity":77,"Duration":92307,"SoundDuration":92307,"Delta":148252738},{"NoteNumber":94,"Velocity":66,"Duration":90634,"SoundDuration":90634,"Delta":148437353},{"NoteNumber":90,"Velocity":55,"Duration":90634,"SoundDuration":90634,"Delta":148437353},{"NoteNumber":87,"Velocity":55,"Duration":90634,"SoundDuration":90634,"Delta":148437353},{"NoteNumber":85,"Velocity":66,"Duration":83081,"SoundDuration":83081,"Delta":148527988},{"NoteNumber":85,"Velocity":79,"Duration":93550,"SoundDuration":93550,"Delta":148618622},{"NoteNumber":97,"Velocity":68,"Duration":99542,"SoundDuration":99542,"Delta":148807278},{"NoteNumber":95,"Velocity":57,"Duration":99542,"SoundDuration":99542,"Delta":148807278},{"NoteNumber":92,"Velocity":57,"Duration":99542,"SoundDuration":99542,"Delta":148807278},{"NoteNumber":90,"Velocity":68,"Duration":91246,"SoundDuration":91246,"Delta":148906820},{"NoteNumber":90,"Velocity":90,"Duration":199083,"SoundDuration":199083,"Delta":149006362},{"NoteNumber":90,"Velocity":92,"Duration":199083,"SoundDuration":199083,"Delta":149802698},{"NoteNumber":86,"Velocity":92,"Duration":199083,"SoundDuration":199083,"Delta":149802698},{"NoteNumber":83,"Velocity":77,"Duration":199083,"SoundDuration":199083,"Delta":149802698},{"NoteNumber":78,"Velocity":77,"Duration":199083,"SoundDuration":199083,"Delta":149802698},{"NoteNumber":47,"Velocity":55,"Duration":199083,"SoundDuration":199083,"Delta":149802698},{"NoteNumber":54,"Velocity":55,"Duration":199083,"SoundDuration":199083,"Delta":149802698},{"NoteNumber":59,"Velocity":66,"Duration":199083,"SoundDuration":199083,"Delta":149802698},{"NoteNumber":42,"Velocity":61,"Duration":248854,"SoundDuration":248854,"Delta":150151095},{"NoteNumber":49,"Velocity":61,"Duration":223969,"SoundDuration":223969,"Delta":150175981},{"NoteNumber":94,"Velocity":97,"Duration":199083,"SoundDuration":199083,"Delta":150200866},{"NoteNumber":90,"Velocity":97,"Duration":199083,"SoundDuration":199083,"Delta":150200866},{"NoteNumber":85,"Velocity":82,"Duration":199083,"SoundDuration":199083,"Delta":150200866},{"NoteNumber":82,"Velocity":82,"Duration":199083,"SoundDuration":199083,"Delta":150200866},{"NoteNumber":58,"Velocity":73,"Duration":199083,"SoundDuration":199083,"Delta":150200866},{"NoteNumber":54,"Velocity":62,"Duration":234658,"SoundDuration":234658,"Delta":151218323},{"NoteNumber":61,"Velocity":62,"Duration":214015,"SoundDuration":214015,"Delta":151238966},{"NoteNumber":90,"Velocity":82,"Duration":193372,"SoundDuration":193372,"Delta":151259608},{"NoteNumber":97,"Velocity":82,"Duration":193372,"SoundDuration":193372,"Delta":151259608},{"NoteNumber":102,"Velocity":97,"Duration":193372,"SoundDuration":193372,"Delta":151259608},{"NoteNumber":70,"Velocity":73,"Duration":193372,"SoundDuration":193372,"Delta":151259608}],"license":{"name":"Creative Commons Attribution-ShareAlike 3.0 Germany","url":"http://creativecommons.org/licenses/by-sa/3.0/de/deed.en","text":"The MIDI, audio (MP3, OGG) and video files of Bernd Krueger are licensed under the cc-by-sa Germany License. This means that you can use and adapt the files, as long as you attribute the copyright holder.\n\nName: Bernd Krueger\nSource: http://www.piano-midi.de\n\nThe distribution or public playback of the files is only allowed under identical license conditions.\n\nThe scores are open source.","attribution":"MIDI files by Bernd Krueger (piano-midi.de)","attributionUrl":"http://www.piano-midi.de"}}