{"title":"Cataluna","artist":"Albéniz","durationMs":247579,"midiSha256":"2860355dc4f05c3eb4cc63a619631964c5ba0994f26afb31d0b1ba702b47963e","midiObject":[{"NoteNumber":67,"Velocity":53,"Duration":267857,"SoundDuration":267857,"Delta":0},{"NoteNumber":71,"Velocity":49,"Duration":267857,"SoundDuration":267857,"Delta":0},{"NoteNumber":43,"Velocity":35,"Duration":803571,"SoundDuration":803571,"Delta":0},{"NoteNumber":55,"Velocity":41,"Duration":803571,"SoundDuration":803571,"Delta":0},{"NoteNumber":62,"Velocity":49,"Duration":267857,"SoundDuration":267857,"Delta":1116},{"NoteNumber":62,"Velocity":46,"Duration":133928,"SoundDuration":133928,"Delta":267857},{"NoteNumber":67,"Velocity":49,"Duration":133928,"SoundDuration":133928,"Delta":267857},{"NoteNumber":71,"Velocity":46,"Duration":267857,"SoundDuration":267857,"Delta":267857},{"NoteNumber":66,"Velocity":49,"Duration":133928,"SoundDuration":133928,"Delta":401785},{"NoteNumber":65,"Velocity":53,"Duration":267857,"SoundDuration":267857,"Delta":535714},{"NoteNumber":71,"Velocity":49,"Duration":267857,"SoundDuration":267857,"Delta":535714},{"NoteNumber":64,"Velocity":49,"Duration":133928,"SoundDuration":133928,"Delta":803571},{"NoteNumber":71,"Velocity":46,"Duration":267857,"SoundDuration":267857,"Delta":803571},{"NoteNumber":38,"Velocity":29,"Duration":267857,"SoundDuration":267857,"Delta":803571},{"NoteNumber":50,"Velocity":36,"Duration":267857,"SoundDuration":267857,"Delta":803571},{"NoteNumber":63,"Velocity":53,"Duration":133928,"SoundDuration":133928,"Delta":937499},{"NoteNumber":62,"Velocity":57,"Duration":267857,"SoundDuration":267857,"Delta":1071428},{"NoteNumber":66,"Velocity":51,"Duration":267857,"SoundDuration":267857,"Delta":1071428},{"NoteNumber":72,"Velocity":51,"Duration":267857,"SoundDuration":267857,"Delta":1071428},{"NoteNumber":45,"Velocity":33,"Duration":267857,"SoundDuration":267857,"Delta":1071428},{"NoteNumber":57,"Velocity":39,"Duration":267857,"SoundDuration":267857,"Delta":1071428},{"NoteNumber":66,"Velocity":51,"Duration":138581,"SoundDuration":138581,"Delta":1339285},{"NoteNumber":72,"Velocity":48,"Duration":277161,"SoundDuration":277161,"Delta":1339285},{"NoteNumber":38,"Velocity":37,"Duration":277161,"SoundDuration":277161,"Delta":1339285},{"NoteNumber":50,"Velocity":44,"Duration":277161,"SoundDuration":277161,"Delta":1339285},{"NoteNumber":62,"Velocity":51,"Duration":138580,"SoundDuration":138580,"Delta":1477866},{"NoteNumber":62,"Velocity":53,"Duration":267857,"SoundDuration":267857,"Delta":1616447},{"NoteNumber":67,"Velocity":59,"Duration":267857,"SoundDuration":267857,"Delta":1616447},{"NoteNumber":71,"Velocity":53,"Duration":267857,"SoundDuration":267857,"Delta":1616447},{"NoteNumber":43,"Velocity":39,"Duration":803570,"SoundDuration":803570,"Delta":1616447},{"NoteNumber":55,"Velocity":47,"Duration":803570,"SoundDuration":803570,"Delta":1616447},{"NoteNumber":62,"Velocity":49,"Duration":133928,"SoundDuration":133928,"Delta":1884304},{"NoteNumber":67,"Velocity":53,"Duration":133928,"SoundDuration":133928,"Delta":1884304},{"NoteNumber":71,"Velocity":49,"Duration":267857,"SoundDuration":267857,"Delta":1884304},{"NoteNumber":66,"Velocity":53,"Duration":133928,"SoundDuration":133928,"Delta":2018232},{"NoteNumber":65,"Velocity":58,"Duration":267856,"SoundDuration":267856,"Delta":2152161},{"NoteNumber":71,"Velocity":52,"Duration":267856,"SoundDuration":267856,"Delta":2152161},{"NoteNumber":64,"Velocity":49,"Duration":135734,"SoundDuration":135734,"Delta":2420018},{"NoteNumber":71,"Velocity":46,"Duration":271468,"SoundDuration":271468,"Delta":2420018},{"NoteNumber":38,"Velocity":38,"Duration":271468,"SoundDuration":271468,"Delta":2420018},{"NoteNumber":50,"Velocity":45,"Duration":271468,"SoundDuration":271468,"Delta":2420018},{"NoteNumber":63,"Velocity":50,"Duration":135734,"SoundDuration":135734,"Delta":2555752},{"NoteNumber":62,"Velocity":57,"Duration":275989,"SoundDuration":275989,"Delta":2691486},{"NoteNumber":66,"Velocity":51,"Duration":275989,"SoundDuration":275989,"Delta":2691486},{"NoteNumber":72,"Velocity":51,"Duration":275989,"SoundDuration":275989,"Delta":2691486},{"NoteNumber":45,"Velocity":35,"Duration":275989,"SoundDuration":275989,"Delta":2691486},{"NoteNumber":57,"Velocity":41,"Duration":275989,"SoundDuration":275989,"Delta":2691486},{"NoteNumber":66,"Velocity":50,"Duration":145630,"SoundDuration":145630,"Delta":2967475},{"NoteNumber":72,"Velocity":47,"Duration":291262,"SoundDuration":291262,"Delta":2967475},{"NoteNumber":38,"Velocity":33,"Duration":291262,"SoundDuration":291262,"Delta":2967475},{"NoteNumber":50,"Velocity":39,"Duration":291262,"SoundDuration":291262,"Delta":2967475},{"NoteNumber":62,"Velocity":50,"Duration":145631,"SoundDuration":145631,"Delta":3113106},{"NoteNumber":67,"Velocity":44,"Duration":1106061,"SoundDuration":1106061,"Delta":3258737},{"NoteNumber":71,"Velocity":44,"Duration":1106061,"SoundDuration":1106061,"Delta":3258737},{"NoteNumber":74,"Velocity":51,"Duration":1106061,"SoundDuration":1106061,"Delta":3258737},{"NoteNumber":79,"Velocity":68,"Duration":1106061,"SoundDuration":1106061,"Delta":3258737},{"NoteNumber":43,"Velocity":35,"Duration":1106061,"SoundDuration":1106061,"Delta":3258737},{"NoteNumber":55,"Velocity":41,"Duration":1106061,"SoundDuration":1106061,"Delta":3258737},{"NoteNumber":50,"Velocity":44,"Duration":136363,"SoundDuration":136363,"Delta":3536515},{"NoteNumber":52,"Velocity":44,"Duration":136363,"SoundDuration":136363,"Delta":3672879},{"NoteNumber":50,"Velocity":47,"Duration":138888,"SoundDuration":138888,"Delta":3809243},{"NoteNumber":50,"Velocity":44,"Duration":138889,"SoundDuration":138889,"Delta":4087021},{"NoteNumber":66,"Velocity":40,"Duration":412844,"SoundDuration":412844,"Delta":4364799},{"NoteNumber":72,"Velocity":49,"Duration":412844,"SoundDuration":412844,"Delta":4364799},{"NoteNumber":78,"Velocity":59,"Duration":412844,"SoundDuration":412844,"Delta":4364799},{"NoteNumber":43,"Velocity":35,"Duration":561994,"SoundDuration":561994,"Delta":4364799},{"NoteNumber":57,"Velocity":41,"Duration":561994,"SoundDuration":561994,"Delta":4364799},{"NoteNumber":50,"Velocity":41,"Duration":286764,"SoundDuration":286764,"Delta":4640028},{"NoteNumber":74,"Velocity":57,"Duration":149149,"SoundDuration":149149,"Delta":4777643},{"NoteNumber":76,"Velocity":61,"Duration":280374,"SoundDuration":280374,"Delta":4926793},{"NoteNumber":67,"Velocity":51,"Duration":1107423,"SoundDuration":1107423,"Delta":4926793},{"NoteNumber":71,"Velocity":51,"Duration":1107423,"SoundDuration":1107423,"Delta":4926793},{"NoteNumber":43,"Velocity":41,"Duration":1107423,"SoundDuration":1107423,"Delta":4926793},{"NoteNumber":59,"Velocity":41,"Duration":1107423,"SoundDuration":1107423,"Delta":4926793},{"NoteNumber":76,"Velocity":53,"Duration":90497,"SoundDuration":90497,"Delta":5207167},{"NoteNumber":50,"Velocity":44,"Duration":135746,"SoundDuration":135746,"Delta":5207167},{"NoteNumber":78,"Velocity":53,"Duration":90497,"SoundDuration":90497,"Delta":5297664},{"NoteNumber":52,"Velocity":44,"Duration":135746,"SoundDuration":135746,"Delta":5342913},{"NoteNumber":76,"Velocity":53,"Duration":90497,"SoundDuration":90497,"Delta":5388162},{"NoteNumber":74,"Velocity":58,"Duration":555556,"SoundDuration":555556,"Delta":5478660},{"NoteNumber":50,"Velocity":47,"Duration":138888,"SoundDuration":138888,"Delta":5478660},{"NoteNumber":50,"Velocity":44,"Duration":138889,"SoundDuration":138889,"Delta":5756438},{"NoteNumber":60,"Velocity":35,"Duration":430251,"SoundDuration":430251,"Delta":6034216},{"NoteNumber":72,"Velocity":51,"Duration":430251,"SoundDuration":430251,"Delta":6034216},{"NoteNumber":62,"Velocity":35,"Duration":430251,"SoundDuration":430251,"Delta":6034216},{"NoteNumber":66,"Velocity":35,"Duration":430251,"SoundDuration":430251,"Delta":6034216},{"NoteNumber":69,"Velocity":35,"Duration":430251,"SoundDuration":430251,"Delta":6034216},{"NoteNumber":43,"Velocity":35,"Duration":577483,"SoundDuration":577483,"Delta":6034216},{"NoteNumber":57,"Velocity":41,"Duration":577483,"SoundDuration":577483,"Delta":6034216},{"NoteNumber":50,"Velocity":36,"Duration":294463,"SoundDuration":294463,"Delta":6317235},{"NoteNumber":69,"Velocity":48,"Duration":147231,"SoundDuration":147231,"Delta":6464467},{"NoteNumber":71,"Velocity":57,"Duration":143047,"SoundDuration":143047,"Delta":6611699},{"NoteNumber":62,"Velocity":39,"Duration":862102,"SoundDuration":862102,"Delta":6611699},{"NoteNumber":67,"Velocity":39,"Duration":862102,"SoundDuration":862102,"Delta":6611699},{"NoteNumber":43,"Velocity":30,"Duration":1145121,"SoundDuration":1145121,"Delta":6611699},{"NoteNumber":55,"Velocity":37,"Duration":1145121,"SoundDuration":1145121,"Delta":6611699},{"NoteNumber":72,"Velocity":50,"Duration":143047,"SoundDuration":143047,"Delta":6754746},{"NoteNumber":74,"Velocity":53,"Duration":286095,"SoundDuration":286095,"Delta":6897794},{"NoteNumber":50,"Velocity":39,"Duration":143047,"SoundDuration":143047,"Delta":6897794},{"NoteNumber":52,"Velocity":39,"Duration":143047,"SoundDuration":143047,"Delta":7040842},{"NoteNumber":74,"Velocity":53,"Duration":572930,"SoundDuration":572930,"Delta":7183890},{"NoteNumber":50,"Velocity":41,"Duration":144955,"SoundDuration":144955,"Delta":7183890},{"NoteNumber":59,"Velocity":38,"Duration":141509,"SoundDuration":141509,"Delta":7473801},{"NoteNumber":50,"Velocity":39,"Duration":141509,"SoundDuration":141509,"Delta":7473801},{"NoteNumber":62,"Velocity":34,"Duration":141509,"SoundDuration":141509,"Delta":7615310},{"NoteNumber":60,"Velocity":38,"Duration":144147,"SoundDuration":144147,"Delta":7756820},{"NoteNumber":43,"Velocity":37,"Duration":576590,"SoundDuration":576590,"Delta":7756820},{"NoteNumber":54,"Velocity":37,"Duration":576590,"SoundDuration":576590,"Delta":7756820},{"NoteNumber":62,"Velocity":34,"Duration":144147,"SoundDuration":144147,"Delta":7900967},{"NoteNumber":60,"Velocity":38,"Duration":144147,"SoundDuration":144147,"Delta":8045115},{"NoteNumber":50,"Velocity":37,"Duration":288294,"SoundDuration":288294,"Delta":8045115},{"NoteNumber":62,"Velocity":34,"Duration":144147,"SoundDuration":144147,"Delta":8189262},{"NoteNumber":59,"Velocity":42,"Duration":295712,"SoundDuration":295712,"Delta":8333410},{"NoteNumber":43,"Velocity":35,"Duration":1176137,"SoundDuration":1176137,"Delta":8333410},{"NoteNumber":55,"Velocity":41,"Duration":1176137,"SoundDuration":1176137,"Delta":8333410},{"NoteNumber":59,"Velocity":38,"Duration":880425,"SoundDuration":880425,"Delta":8629122},{"NoteNumber":62,"Velocity":38,"Duration":147856,"SoundDuration":147856,"Delta":8629122},{"NoteNumber":50,"Velocity":44,"Duration":147856,"SoundDuration":147856,"Delta":8629122},{"NoteNumber":64,"Velocity":35,"Duration":147439,"SoundDuration":147439,"Delta":8776978},{"NoteNumber":52,"Velocity":44,"Duration":147439,"SoundDuration":147439,"Delta":8776978},{"NoteNumber":62,"Velocity":40,"Duration":144313,"SoundDuration":144313,"Delta":8924418},{"NoteNumber":50,"Velocity":47,"Duration":144313,"SoundDuration":144313,"Delta":8924418},{"NoteNumber":64,"Velocity":36,"Duration":144313,"SoundDuration":144313,"Delta":9068732},{"NoteNumber":67,"Velocity":42,"Duration":148250,"SoundDuration":148250,"Delta":9213046},{"NoteNumber":50,"Velocity":44,"Duration":148250,"SoundDuration":148250,"Delta":9213046},{"NoteNumber":64,"Velocity":39,"Duration":148250,"SoundDuration":148250,"Delta":9361296},{"NoteNumber":60,"Velocity":40,"Duration":608278,"SoundDuration":608278,"Delta":9509547},{"NoteNumber":66,"Velocity":46,"Duration":290319,"SoundDuration":290319,"Delta":9509547},{"NoteNumber":43,"Velocity":37,"Duration":608278,"SoundDuration":608278,"Delta":9509547},{"NoteNumber":57,"Velocity":41,"Duration":608278,"SoundDuration":608278,"Delta":9509547},{"NoteNumber":64,"Velocity":42,"Duration":153123,"SoundDuration":153123,"Delta":9799867},{"NoteNumber":50,"Velocity":41,"Duration":317959,"SoundDuration":317959,"Delta":9799867},{"NoteNumber":62,"Velocity":42,"Duration":164835,"SoundDuration":164835,"Delta":9952991},{"NoteNumber":67,"Velocity":48,"Duration":1104688,"SoundDuration":1104688,"Delta":10117826},{"NoteNumber":71,"Velocity":48,"Duration":1104688,"SoundDuration":1104688,"Delta":10117826},{"NoteNumber":74,"Velocity":57,"Duration":1104688,"SoundDuration":1104688,"Delta":10117826},{"NoteNumber":79,"Velocity":73,"Duration":1104688,"SoundDuration":1104688,"Delta":10117826},{"NoteNumber":43,"Velocity":38,"Duration":1104688,"SoundDuration":1104688,"Delta":10117826},{"NoteNumber":55,"Velocity":46,"Duration":1104688,"SoundDuration":1104688,"Delta":10117826},{"NoteNumber":50,"Velocity":48,"Duration":135135,"SoundDuration":135135,"Delta":10396688},{"NoteNumber":52,"Velocity":48,"Duration":135135,"SoundDuration":135135,"Delta":10531823},{"NoteNumber":50,"Velocity":50,"Duration":138889,"SoundDuration":138889,"Delta":10666959},{"NoteNumber":50,"Velocity":48,"Duration":138889,"SoundDuration":138889,"Delta":10944737},{"NoteNumber":66,"Velocity":40,"Duration":411773,"SoundDuration":411773,"Delta":11222515},{"NoteNumber":72,"Velocity":53,"Duration":411773,"SoundDuration":411773,"Delta":11222515},{"NoteNumber":78,"Velocity":60,"Duration":411773,"SoundDuration":411773,"Delta":11222515},{"NoteNumber":43,"Velocity":35,"Duration":560923,"SoundDuration":560923,"Delta":11222515},{"NoteNumber":57,"Velocity":41,"Duration":560923,"SoundDuration":560923,"Delta":11222515},{"NoteNumber":50,"Velocity":41,"Duration":286136,"SoundDuration":286136,"Delta":11497302},{"NoteNumber":74,"Velocity":59,"Duration":149149,"SoundDuration":149149,"Delta":11634288},{"NoteNumber":76,"Velocity":61,"Duration":278862,"SoundDuration":278862,"Delta":11783438},{"NoteNumber":67,"Velocity":51,"Duration":1104688,"SoundDuration":1104688,"Delta":11783438},{"NoteNumber":71,"Velocity":51,"Duration":1104688,"SoundDuration":1104688,"Delta":11783438},{"NoteNumber":43,"Velocity":41,"Duration":1104688,"SoundDuration":1104688,"Delta":11783438},{"NoteNumber":59,"Velocity":41,"Duration":1104688,"SoundDuration":1104688,"Delta":11783438},{"NoteNumber":76,"Velocity":53,"Duration":90090,"SoundDuration":90090,"Delta":12062300},{"NoteNumber":50,"Velocity":44,"Duration":135135,"SoundDuration":135135,"Delta":12062300},{"NoteNumber":78,"Velocity":53,"Duration":90090,"SoundDuration":90090,"Delta":12152390},{"NoteNumber":52,"Velocity":44,"Duration":135135,"SoundDuration":135135,"Delta":12197435},{"NoteNumber":76,"Velocity":53,"Duration":90090,"SoundDuration":90090,"Delta":12242480},{"NoteNumber":74,"Velocity":58,"Duration":555555,"SoundDuration":555555,"Delta":12332570},{"NoteNumber":50,"Velocity":47,"Duration":138889,"SoundDuration":138889,"Delta":12332570},{"NoteNumber":50,"Velocity":44,"Duration":138889,"SoundDuration":138889,"Delta":12610348},{"NoteNumber":60,"Velocity":35,"Duration":426617,"SoundDuration":426617,"Delta":12888126},{"NoteNumber":72,"Velocity":51,"Duration":426617,"SoundDuration":426617,"Delta":12888126},{"NoteNumber":62,"Velocity":35,"Duration":426617,"SoundDuration":426617,"Delta":12888126},{"NoteNumber":66,"Velocity":35,"Duration":426617,"SoundDuration":426617,"Delta":12888126},{"NoteNumber":69,"Velocity":35,"Duration":426617,"SoundDuration":426617,"Delta":12888126},{"NoteNumber":43,"Velocity":35,"Duration":571544,"SoundDuration":571544,"Delta":12888126},{"NoteNumber":57,"Velocity":41,"Duration":571544,"SoundDuration":571544,"Delta":12888126},{"NoteNumber":50,"Velocity":36,"Duration":289854,"SoundDuration":289854,"Delta":13169816},{"NoteNumber":69,"Velocity":48,"Duration":144927,"SoundDuration":144927,"Delta":13314744},{"NoteNumber":71,"Velocity":57,"Duration":143047,"SoundDuration":143047,"Delta":13459671},{"NoteNumber":62,"Velocity":39,"Duration":862102,"SoundDuration":862102,"Delta":13459671},{"NoteNumber":67,"Velocity":39,"Duration":862102,"SoundDuration":862102,"Delta":13459671},{"NoteNumber":43,"Velocity":30,"Duration":1145120,"SoundDuration":1145120,"Delta":13459671},{"NoteNumber":55,"Velocity":37,"Duration":1145120,"SoundDuration":1145120,"Delta":13459671},{"NoteNumber":72,"Velocity":50,"Duration":143047,"SoundDuration":143047,"Delta":13602719},{"NoteNumber":74,"Velocity":53,"Duration":286095,"SoundDuration":286095,"Delta":13745767},{"NoteNumber":50,"Velocity":39,"Duration":143047,"SoundDuration":143047,"Delta":13745767},{"NoteNumber":52,"Velocity":39,"Duration":143047,"SoundDuration":143047,"Delta":13888815},{"NoteNumber":74,"Velocity":53,"Duration":572929,"SoundDuration":572929,"Delta":14031862},{"NoteNumber":50,"Velocity":41,"Duration":144955,"SoundDuration":144955,"Delta":14031862},{"NoteNumber":59,"Velocity":38,"Duration":141509,"SoundDuration":141509,"Delta":14321773},{"NoteNumber":50,"Velocity":39,"Duration":141509,"SoundDuration":141509,"Delta":14321773},{"NoteNumber":62,"Velocity":34,"Duration":141509,"SoundDuration":141509,"Delta":14463283},{"NoteNumber":60,"Velocity":38,"Duration":144147,"SoundDuration":144147,"Delta":14604792},{"NoteNumber":43,"Velocity":37,"Duration":576589,"SoundDuration":576589,"Delta":14604792},{"NoteNumber":54,"Velocity":37,"Duration":576589,"SoundDuration":576589,"Delta":14604792},{"NoteNumber":62,"Velocity":34,"Duration":144147,"SoundDuration":144147,"Delta":14748940},{"NoteNumber":60,"Velocity":38,"Duration":144147,"SoundDuration":144147,"Delta":14893087},{"NoteNumber":50,"Velocity":37,"Duration":288294,"SoundDuration":288294,"Delta":14893087},{"NoteNumber":62,"Velocity":34,"Duration":144147,"SoundDuration":144147,"Delta":15037235},{"NoteNumber":59,"Velocity":42,"Duration":295712,"SoundDuration":295712,"Delta":15181382},{"NoteNumber":43,"Velocity":35,"Duration":1176137,"SoundDuration":1176137,"Delta":15181382},{"NoteNumber":55,"Velocity":41,"Duration":1176137,"SoundDuration":1176137,"Delta":15181382},{"NoteNumber":59,"Velocity":38,"Duration":880425,"SoundDuration":880425,"Delta":15477094},{"NoteNumber":62,"Velocity":38,"Duration":147855,"SoundDuration":147855,"Delta":15477094},{"NoteNumber":50,"Velocity":44,"Duration":147855,"SoundDuration":147855,"Delta":15477094},{"NoteNumber":64,"Velocity":35,"Duration":147440,"SoundDuration":147440,"Delta":15624950},{"NoteNumber":52,"Velocity":44,"Duration":147440,"SoundDuration":147440,"Delta":15624950},{"NoteNumber":62,"Velocity":40,"Duration":144313,"SoundDuration":144313,"Delta":15772390},{"NoteNumber":50,"Velocity":47,"Duration":144313,"SoundDuration":144313,"Delta":15772390},{"NoteNumber":64,"Velocity":36,"Duration":144313,"SoundDuration":144313,"Delta":15916704},{"NoteNumber":67,"Velocity":42,"Duration":148250,"SoundDuration":148250,"Delta":16061018},{"NoteNumber":50,"Velocity":44,"Duration":148250,"SoundDuration":148250,"Delta":16061018},{"NoteNumber":64,"Velocity":39,"Duration":148250,"SoundDuration":148250,"Delta":16209269},{"NoteNumber":60,"Velocity":38,"Duration":590402,"SoundDuration":590402,"Delta":16357520},{"NoteNumber":66,"Velocity":46,"Duration":290320,"SoundDuration":290320,"Delta":16357520},{"NoteNumber":43,"Velocity":35,"Duration":590402,"SoundDuration":590402,"Delta":16357520},{"NoteNumber":57,"Velocity":41,"Duration":590402,"SoundDuration":590402,"Delta":16357520},{"NoteNumber":64,"Velocity":42,"Duration":147020,"SoundDuration":147020,"Delta":16647840},{"NoteNumber":50,"Velocity":41,"Duration":300082,"SoundDuration":300082,"Delta":16647840},{"NoteNumber":62,"Velocity":42,"Duration":153061,"SoundDuration":153061,"Delta":16794861},{"NoteNumber":67,"Velocity":49,"Duration":1108739,"SoundDuration":1108739,"Delta":16947922},{"NoteNumber":74,"Velocity":59,"Duration":1108739,"SoundDuration":1108739,"Delta":16947922},{"NoteNumber":79,"Velocity":70,"Duration":1108739,"SoundDuration":1108739,"Delta":16947922},{"NoteNumber":43,"Velocity":39,"Duration":1108739,"SoundDuration":1108739,"Delta":16947922},{"NoteNumber":58,"Velocity":48,"Duration":1108739,"SoundDuration":1108739,"Delta":16947922},{"NoteNumber":50,"Velocity":49,"Duration":135746,"SoundDuration":135746,"Delta":17229612},{"NoteNumber":51,"Velocity":49,"Duration":135746,"SoundDuration":135746,"Delta":17365359},{"NoteNumber":50,"Velocity":52,"Duration":138888,"SoundDuration":138888,"Delta":17501105},{"NoteNumber":50,"Velocity":49,"Duration":138888,"SoundDuration":138888,"Delta":17778883},{"NoteNumber":65,"Velocity":42,"Duration":410958,"SoundDuration":410958,"Delta":18056661},{"NoteNumber":69,"Velocity":50,"Duration":410958,"SoundDuration":410958,"Delta":18056661},{"NoteNumber":77,"Velocity":62,"Duration":410958,"SoundDuration":410958,"Delta":18056661},{"NoteNumber":41,"Velocity":36,"Duration":560108,"SoundDuration":560108,"Delta":18056661},{"NoteNumber":63,"Velocity":44,"Duration":560108,"SoundDuration":560108,"Delta":18056661},{"NoteNumber":53,"Velocity":44,"Duration":286135,"SoundDuration":286135,"Delta":18330634},{"NoteNumber":72,"Velocity":60,"Duration":149149,"SoundDuration":149149,"Delta":18467620},{"NoteNumber":74,"Velocity":64,"Duration":278862,"SoundDuration":278862,"Delta":18616770},{"NoteNumber":65,"Velocity":53,"Duration":1102127,"SoundDuration":1102127,"Delta":18616770},{"NoteNumber":70,"Velocity":53,"Duration":1102127,"SoundDuration":1102127,"Delta":18616770},{"NoteNumber":46,"Velocity":44,"Duration":1102127,"SoundDuration":1102127,"Delta":18616770},{"NoteNumber":62,"Velocity":44,"Duration":1102127,"SoundDuration":1102127,"Delta":18616770},{"NoteNumber":74,"Velocity":59,"Duration":135135,"SoundDuration":135135,"Delta":18895632},{"NoteNumber":53,"Velocity":46,"Duration":135135,"SoundDuration":135135,"Delta":18895632},{"NoteNumber":75,"Velocity":59,"Duration":135135,"SoundDuration":135135,"Delta":19030767},{"NoteNumber":55,"Velocity":46,"Duration":135135,"SoundDuration":135135,"Delta":19030767},{"NoteNumber":77,"Velocity":64,"Duration":552994,"SoundDuration":552994,"Delta":19165902},{"NoteNumber":53,"Velocity":49,"Duration":138248,"SoundDuration":138248,"Delta":19165902},{"NoteNumber":53,"Velocity":46,"Duration":138248,"SoundDuration":138248,"Delta":19442400},{"NoteNumber":75,"Velocity":59,"Duration":435527,"SoundDuration":435527,"Delta":19718897},{"NoteNumber":65,"Velocity":36,"Duration":435527,"SoundDuration":435527,"Delta":19718897},{"NoteNumber":69,"Velocity":36,"Duration":435527,"SoundDuration":435527,"Delta":19718897},{"NoteNumber":46,"Velocity":36,"Duration":582759,"SoundDuration":582759,"Delta":19718897},{"NoteNumber":63,"Velocity":44,"Duration":582759,"SoundDuration":582759,"Delta":19718897},{"NoteNumber":53,"Velocity":37,"Duration":294464,"SoundDuration":294464,"Delta":20007192},{"NoteNumber":72,"Velocity":49,"Duration":147232,"SoundDuration":147232,"Delta":20154424},{"NoteNumber":74,"Velocity":64,"Duration":138248,"SoundDuration":138248,"Delta":20301656},{"NoteNumber":70,"Velocity":41,"Duration":1093579,"SoundDuration":1093579,"Delta":20301656},{"NoteNumber":65,"Velocity":38,"Duration":1093579,"SoundDuration":1093579,"Delta":20301656},{"NoteNumber":46,"Velocity":36,"Duration":1093579,"SoundDuration":1093579,"Delta":20301656},{"NoteNumber":62,"Velocity":44,"Duration":1093579,"SoundDuration":1093579,"Delta":20301656},{"NoteNumber":75,"Velocity":57,"Duration":138248,"SoundDuration":138248,"Delta":20439905},{"NoteNumber":74,"Velocity":60,"Duration":138248,"SoundDuration":138248,"Delta":20578154},{"NoteNumber":53,"Velocity":46,"Duration":138248,"SoundDuration":138248,"Delta":20578154},{"NoteNumber":75,"Velocity":55,"Duration":138248,"SoundDuration":138248,"Delta":20716402},{"NoteNumber":55,"Velocity":46,"Duration":138248,"SoundDuration":138248,"Delta":20716402},{"NoteNumber":77,"Velocity":62,"Duration":136363,"SoundDuration":136363,"Delta":20854651},{"NoteNumber":53,"Velocity":49,"Duration":136363,"SoundDuration":136363,"Delta":20854651},{"NoteNumber":79,"Velocity":56,"Duration":136363,"SoundDuration":136363,"Delta":20991015},{"NoteNumber":81,"Velocity":61,"Duration":133928,"SoundDuration":133928,"Delta":21127379},{"NoteNumber":53,"Velocity":46,"Duration":133928,"SoundDuration":133928,"Delta":21127379},{"NoteNumber":79,"Velocity":53,"Duration":133928,"SoundDuration":133928,"Delta":21261307},{"NoteNumber":69,"Velocity":39,"Duration":565485,"SoundDuration":565485,"Delta":21395236},{"NoteNumber":77,"Velocity":61,"Duration":141057,"SoundDuration":141057,"Delta":21395236},{"NoteNumber":46,"Velocity":36,"Duration":565485,"SoundDuration":565485,"Delta":21395236},{"NoteNumber":63,"Velocity":44,"Duration":565485,"SoundDuration":565485,"Delta":21395236},{"NoteNumber":75,"Velocity":61,"Duration":141057,"SoundDuration":141057,"Delta":21536293},{"NoteNumber":74,"Velocity":67,"Duration":141057,"SoundDuration":141057,"Delta":21677350},{"NoteNumber":53,"Velocity":44,"Duration":283371,"SoundDuration":283371,"Delta":21677350},{"NoteNumber":72,"Velocity":61,"Duration":142314,"SoundDuration":142314,"Delta":21818407},{"NoteNumber":74,"Velocity":69,"Duration":138888,"SoundDuration":138888,"Delta":21960722},{"NoteNumber":70,"Velocity":45,"Duration":1104898,"SoundDuration":1104898,"Delta":21960722},{"NoteNumber":65,"Velocity":45,"Duration":1104898,"SoundDuration":1104898,"Delta":21960722},{"NoteNumber":46,"Velocity":36,"Duration":1104898,"SoundDuration":1104898,"Delta":21960722},{"NoteNumber":62,"Velocity":44,"Duration":1104898,"SoundDuration":1104898,"Delta":21960722},{"NoteNumber":75,"Velocity":59,"Duration":138889,"SoundDuration":138889,"Delta":22099611},{"NoteNumber":74,"Velocity":64,"Duration":138888,"SoundDuration":138888,"Delta":22238500},{"NoteNumber":53,"Velocity":46,"Duration":138888,"SoundDuration":138888,"Delta":22238500},{"NoteNumber":75,"Velocity":55,"Duration":141509,"SoundDuration":141509,"Delta":22377389},{"NoteNumber":55,"Velocity":46,"Duration":141509,"SoundDuration":141509,"Delta":22377389},{"NoteNumber":77,"Velocity":62,"Duration":135746,"SoundDuration":135746,"Delta":22518898},{"NoteNumber":53,"Velocity":49,"Duration":135746,"SoundDuration":135746,"Delta":22518898},{"NoteNumber":79,"Velocity":56,"Duration":135746,"SoundDuration":135746,"Delta":22654645},{"NoteNumber":81,"Velocity":61,"Duration":137614,"SoundDuration":137614,"Delta":22790391},{"NoteNumber":53,"Velocity":46,"Duration":137614,"SoundDuration":137614,"Delta":22790391},{"NoteNumber":79,"Velocity":53,"Duration":137614,"SoundDuration":137614,"Delta":22928006},{"NoteNumber":69,"Velocity":55,"Duration":574724,"SoundDuration":574724,"Delta":23065621},{"NoteNumber":77,"Velocity":59,"Duration":140878,"SoundDuration":140878,"Delta":23065621},{"NoteNumber":46,"Velocity":40,"Duration":574724,"SoundDuration":574724,"Delta":23065621},{"NoteNumber":63,"Velocity":40,"Duration":574724,"SoundDuration":574724,"Delta":23065621},{"NoteNumber":75,"Velocity":59,"Duration":142316,"SoundDuration":142316,"Delta":23206499},{"NoteNumber":74,"Velocity":57,"Duration":143778,"SoundDuration":143778,"Delta":23348816},{"NoteNumber":53,"Velocity":38,"Duration":291529,"SoundDuration":291529,"Delta":23348816},{"NoteNumber":72,"Velocity":56,"Duration":147751,"SoundDuration":147751,"Delta":23492594},{"NoteNumber":65,"Velocity":44,"Duration":1115448,"SoundDuration":1115448,"Delta":23640345},{"NoteNumber":70,"Velocity":52,"Duration":1115448,"SoundDuration":1115448,"Delta":23640345},{"NoteNumber":74,"Velocity":67,"Duration":1115448,"SoundDuration":1115448,"Delta":23640345},{"NoteNumber":46,"Velocity":35,"Duration":1115448,"SoundDuration":1115448,"Delta":23640345},{"NoteNumber":62,"Velocity":42,"Duration":1115448,"SoundDuration":1115448,"Delta":23640345},{"NoteNumber":53,"Velocity":39,"Duration":139430,"SoundDuration":139430,"Delta":23919207},{"NoteNumber":55,"Velocity":39,"Duration":139431,"SoundDuration":139431,"Delta":24058638},{"NoteNumber":53,"Velocity":44,"Duration":139430,"SoundDuration":139430,"Delta":24198069},{"NoteNumber":53,"Velocity":39,"Duration":139430,"SoundDuration":139430,"Delta":24476931},{"NoteNumber":72,"Velocity":50,"Duration":284629,"SoundDuration":284629,"Delta":24755793},{"NoteNumber":62,"Velocity":42,"Duration":576094,"SoundDuration":576094,"Delta":24755793},{"NoteNumber":66,"Velocity":42,"Duration":576094,"SoundDuration":576094,"Delta":24755793},{"NoteNumber":74,"Velocity":56,"Duration":284629,"SoundDuration":284629,"Delta":24755793},{"NoteNumber":45,"Velocity":31,"Duration":576094,"SoundDuration":576094,"Delta":24755793},{"NoteNumber":57,"Velocity":39,"Duration":284629,"SoundDuration":284629,"Delta":24755793},{"NoteNumber":74,"Velocity":51,"Duration":142314,"SoundDuration":142314,"Delta":25040423},{"NoteNumber":50,"Velocity":39,"Duration":291464,"SoundDuration":291464,"Delta":25040423},{"NoteNumber":72,"Velocity":51,"Duration":149149,"SoundDuration":149149,"Delta":25182738},{"NoteNumber":62,"Velocity":44,"Duration":1123270,"SoundDuration":1123270,"Delta":25331888},{"NoteNumber":67,"Velocity":52,"Duration":1123270,"SoundDuration":1123270,"Delta":25331888},{"NoteNumber":71,"Velocity":61,"Duration":837365,"SoundDuration":837365,"Delta":25331888},{"NoteNumber":43,"Velocity":35,"Duration":1123270,"SoundDuration":1123270,"Delta":25331888},{"NoteNumber":55,"Velocity":42,"Duration":278862,"SoundDuration":278862,"Delta":25331888},{"NoteNumber":55,"Velocity":39,"Duration":139430,"SoundDuration":139430,"Delta":25610750},{"NoteNumber":56,"Velocity":39,"Duration":139431,"SoundDuration":139431,"Delta":25750181},{"NoteNumber":55,"Velocity":44,"Duration":139821,"SoundDuration":139821,"Delta":25889612},{"NoteNumber":72,"Velocity":51,"Duration":142952,"SoundDuration":142952,"Delta":26169254},{"NoteNumber":55,"Velocity":39,"Duration":142952,"SoundDuration":142952,"Delta":26169254},{"NoteNumber":74,"Velocity":51,"Duration":142952,"SoundDuration":142952,"Delta":26312207},{"NoteNumber":67,"Velocity":42,"Duration":567442,"SoundDuration":567442,"Delta":26455159},{"NoteNumber":72,"Velocity":42,"Duration":567442,"SoundDuration":567442,"Delta":26455159},{"NoteNumber":75,"Velocity":56,"Duration":278862,"SoundDuration":278862,"Delta":26455159},{"NoteNumber":48,"Velocity":31,"Duration":567442,"SoundDuration":567442,"Delta":26455159},{"NoteNumber":55,"Velocity":39,"Duration":278862,"SoundDuration":278862,"Delta":26455159},{"NoteNumber":77,"Velocity":51,"Duration":139430,"SoundDuration":139430,"Delta":26734021},{"NoteNumber":57,"Velocity":39,"Duration":288580,"SoundDuration":288580,"Delta":26734021},{"NoteNumber":75,"Velocity":51,"Duration":149149,"SoundDuration":149149,"Delta":26873452},{"NoteNumber":67,"Velocity":52,"Duration":560976,"SoundDuration":560976,"Delta":27022602},{"NoteNumber":74,"Velocity":67,"Duration":278862,"SoundDuration":278862,"Delta":27022602},{"NoteNumber":50,"Velocity":35,"Duration":1139335,"SoundDuration":1139335,"Delta":27022602},{"NoteNumber":59,"Velocity":42,"Duration":278862,"SoundDuration":278862,"Delta":27022602},{"NoteNumber":71,"Velocity":51,"Duration":141057,"SoundDuration":141057,"Delta":27301464},{"NoteNumber":62,"Velocity":39,"Duration":141057,"SoundDuration":141057,"Delta":27301464},{"NoteNumber":72,"Velocity":51,"Duration":141057,"SoundDuration":141057,"Delta":27442521},{"NoteNumber":64,"Velocity":39,"Duration":141057,"SoundDuration":141057,"Delta":27442521},{"NoteNumber":71,"Velocity":47,"Duration":292454,"SoundDuration":292454,"Delta":27583578},{"NoteNumber":67,"Velocity":44,"Duration":578359,"SoundDuration":578359,"Delta":27583578},{"NoteNumber":74,"Velocity":60,"Duration":292454,"SoundDuration":292454,"Delta":27583578},{"NoteNumber":62,"Velocity":44,"Duration":146227,"SoundDuration":146227,"Delta":27583578},{"NoteNumber":71,"Velocity":49,"Duration":142952,"SoundDuration":142952,"Delta":27876032},{"NoteNumber":62,"Velocity":39,"Duration":142952,"SoundDuration":142952,"Delta":27876032},{"NoteNumber":72,"Velocity":49,"Duration":142952,"SoundDuration":142952,"Delta":28018985},{"NoteNumber":62,"Velocity":40,"Duration":584606,"SoundDuration":584606,"Delta":28161937},{"NoteNumber":66,"Velocity":40,"Duration":584606,"SoundDuration":584606,"Delta":28161937},{"NoteNumber":71,"Velocity":53,"Duration":287191,"SoundDuration":287191,"Delta":28161937},{"NoteNumber":50,"Velocity":31,"Duration":584606,"SoundDuration":584606,"Delta":28161937},{"NoteNumber":60,"Velocity":39,"Duration":287191,"SoundDuration":287191,"Delta":28161937},{"NoteNumber":69,"Velocity":49,"Duration":148265,"SoundDuration":148265,"Delta":28449129},{"NoteNumber":60,"Velocity":37,"Duration":297415,"SoundDuration":297415,"Delta":28449129},{"NoteNumber":71,"Velocity":49,"Duration":149149,"SoundDuration":149149,"Delta":28597394},{"NoteNumber":62,"Velocity":49,"Duration":275229,"SoundDuration":275229,"Delta":28746544},{"NoteNumber":67,"Velocity":53,"Duration":275229,"SoundDuration":275229,"Delta":28746544},{"NoteNumber":43,"Velocity":35,"Duration":810943,"SoundDuration":810943,"Delta":28746544},{"NoteNumber":59,"Velocity":41,"Duration":810943,"SoundDuration":810943,"Delta":28746544},{"NoteNumber":62,"Velocity":46,"Duration":133928,"SoundDuration":133928,"Delta":29021773},{"NoteNumber":67,"Velocity":49,"Duration":133928,"SoundDuration":133928,"Delta":29021773},{"NoteNumber":71,"Velocity":46,"Duration":267856,"SoundDuration":267856,"Delta":29021773},{"NoteNumber":66,"Velocity":49,"Duration":133928,"SoundDuration":133928,"Delta":29155702},{"NoteNumber":65,"Velocity":53,"Duration":267856,"SoundDuration":267856,"Delta":29289630},{"NoteNumber":71,"Velocity":49,"Duration":267856,"SoundDuration":267856,"Delta":29289630},{"NoteNumber":64,"Velocity":49,"Duration":133928,"SoundDuration":133928,"Delta":29557487},{"NoteNumber":71,"Velocity":46,"Duration":267857,"SoundDuration":267857,"Delta":29557487},{"NoteNumber":38,"Velocity":29,"Duration":267857,"SoundDuration":267857,"Delta":29557487},{"NoteNumber":50,"Velocity":36,"Duration":267857,"SoundDuration":267857,"Delta":29557487},{"NoteNumber":63,"Velocity":53,"Duration":133928,"SoundDuration":133928,"Delta":29691416},{"NoteNumber":62,"Velocity":57,"Duration":267856,"SoundDuration":267856,"Delta":29825344},{"NoteNumber":66,"Velocity":51,"Duration":267856,"SoundDuration":267856,"Delta":29825344},{"NoteNumber":72,"Velocity":51,"Duration":267856,"SoundDuration":267856,"Delta":29825344},{"NoteNumber":45,"Velocity":33,"Duration":267856,"SoundDuration":267856,"Delta":29825344},{"NoteNumber":57,"Velocity":39,"Duration":267856,"SoundDuration":267856,"Delta":29825344},{"NoteNumber":66,"Velocity":51,"Duration":138580,"SoundDuration":138580,"Delta":30093201},{"NoteNumber":72,"Velocity":48,"Duration":277162,"SoundDuration":277162,"Delta":30093201},{"NoteNumber":38,"Velocity":37,"Duration":277162,"SoundDuration":277162,"Delta":30093201},{"NoteNumber":50,"Velocity":44,"Duration":277162,"SoundDuration":277162,"Delta":30093201},{"NoteNumber":62,"Velocity":51,"Duration":138581,"SoundDuration":138581,"Delta":30231782},{"NoteNumber":62,"Velocity":53,"Duration":267856,"SoundDuration":267856,"Delta":30370363},{"NoteNumber":67,"Velocity":59,"Duration":267856,"SoundDuration":267856,"Delta":30370363},{"NoteNumber":71,"Velocity":53,"Duration":267856,"SoundDuration":267856,"Delta":30370363},{"NoteNumber":43,"Velocity":39,"Duration":803571,"SoundDuration":803571,"Delta":30370363},{"NoteNumber":55,"Velocity":47,"Duration":803571,"SoundDuration":803571,"Delta":30370363},{"NoteNumber":62,"Velocity":49,"Duration":133928,"SoundDuration":133928,"Delta":30638220},{"NoteNumber":67,"Velocity":53,"Duration":133928,"SoundDuration":133928,"Delta":30638220},{"NoteNumber":71,"Velocity":49,"Duration":267856,"SoundDuration":267856,"Delta":30638220},{"NoteNumber":66,"Velocity":53,"Duration":133928,"SoundDuration":133928,"Delta":30772149},{"NoteNumber":65,"Velocity":58,"Duration":267857,"SoundDuration":267857,"Delta":30906077},{"NoteNumber":71,"Velocity":52,"Duration":267857,"SoundDuration":267857,"Delta":30906077},{"NoteNumber":64,"Velocity":49,"Duration":135734,"SoundDuration":135734,"Delta":31173934},{"NoteNumber":71,"Velocity":46,"Duration":271468,"SoundDuration":271468,"Delta":31173934},{"NoteNumber":38,"Velocity":38,"Duration":271468,"SoundDuration":271468,"Delta":31173934},{"NoteNumber":50,"Velocity":45,"Duration":271468,"SoundDuration":271468,"Delta":31173934},{"NoteNumber":63,"Velocity":50,"Duration":135734,"SoundDuration":135734,"Delta":31309669},{"NoteNumber":62,"Velocity":57,"Duration":267856,"SoundDuration":267856,"Delta":31445403},{"NoteNumber":66,"Velocity":51,"Duration":267856,"SoundDuration":267856,"Delta":31445403},{"NoteNumber":72,"Velocity":51,"Duration":267856,"SoundDuration":267856,"Delta":31445403},{"NoteNumber":45,"Velocity":35,"Duration":267856,"SoundDuration":267856,"Delta":31445403},{"NoteNumber":57,"Velocity":41,"Duration":267856,"SoundDuration":267856,"Delta":31445403},{"NoteNumber":66,"Velocity":50,"Duration":136363,"SoundDuration":136363,"Delta":31713260},{"NoteNumber":72,"Velocity":47,"Duration":272727,"SoundDuration":272727,"Delta":31713260},{"NoteNumber":38,"Velocity":33,"Duration":272727,"SoundDuration":272727,"Delta":31713260},{"NoteNumber":50,"Velocity":39,"Duration":272727,"SoundDuration":272727,"Delta":31713260},{"NoteNumber":62,"Velocity":50,"Duration":136363,"SoundDuration":136363,"Delta":31849624},{"NoteNumber":62,"Velocity":53,"Duration":264317,"SoundDuration":264317,"Delta":31985987},{"NoteNumber":67,"Velocity":59,"Duration":264317,"SoundDuration":264317,"Delta":31985987},{"NoteNumber":71,"Velocity":53,"Duration":264317,"SoundDuration":264317,"Delta":31985987},{"NoteNumber":43,"Velocity":39,"Duration":132158,"SoundDuration":132158,"Delta":31985987},{"NoteNumber":55,"Velocity":47,"Duration":132158,"SoundDuration":132158,"Delta":31985987},{"NoteNumber":62,"Velocity":49,"Duration":132158,"SoundDuration":132158,"Delta":32250304},{"NoteNumber":67,"Velocity":53,"Duration":132158,"SoundDuration":132158,"Delta":32250304},{"NoteNumber":71,"Velocity":49,"Duration":264316,"SoundDuration":264316,"Delta":32250304},{"NoteNumber":66,"Velocity":53,"Duration":132158,"SoundDuration":132158,"Delta":32382463},{"NoteNumber":62,"Velocity":52,"Duration":264316,"SoundDuration":264316,"Delta":32514621},{"NoteNumber":67,"Velocity":52,"Duration":264316,"SoundDuration":264316,"Delta":32514621},{"NoteNumber":71,"Velocity":58,"Duration":264316,"SoundDuration":264316,"Delta":32514621},{"NoteNumber":55,"Velocity":47,"Duration":132158,"SoundDuration":132158,"Delta":32514621},{"NoteNumber":71,"Velocity":49,"Duration":133928,"SoundDuration":133928,"Delta":32778938},{"NoteNumber":67,"Velocity":46,"Duration":133928,"SoundDuration":133928,"Delta":32778938},{"NoteNumber":74,"Velocity":46,"Duration":267856,"SoundDuration":267856,"Delta":32778938},{"NoteNumber":70,"Velocity":50,"Duration":133928,"SoundDuration":133928,"Delta":32912867},{"NoteNumber":67,"Velocity":51,"Duration":262008,"SoundDuration":262008,"Delta":33046795},{"NoteNumber":71,"Velocity":51,"Duration":262008,"SoundDuration":262008,"Delta":33046795},{"NoteNumber":74,"Velocity":57,"Duration":262008,"SoundDuration":262008,"Delta":33046795},{"NoteNumber":62,"Velocity":41,"Duration":131004,"SoundDuration":131004,"Delta":33046795},{"NoteNumber":71,"Velocity":47,"Duration":133333,"SoundDuration":133333,"Delta":33308804},{"NoteNumber":74,"Velocity":50,"Duration":133333,"SoundDuration":133333,"Delta":33308804},{"NoteNumber":79,"Velocity":47,"Duration":266666,"SoundDuration":266666,"Delta":33308804},{"NoteNumber":73,"Velocity":50,"Duration":133333,"SoundDuration":133333,"Delta":33442137},{"NoteNumber":74,"Velocity":53,"Duration":260869,"SoundDuration":260869,"Delta":33575470},{"NoteNumber":79,"Velocity":59,"Duration":260869,"SoundDuration":260869,"Delta":33575470},{"NoteNumber":83,"Velocity":53,"Duration":260869,"SoundDuration":260869,"Delta":33575470},{"NoteNumber":67,"Velocity":47,"Duration":130434,"SoundDuration":130434,"Delta":33575470},{"NoteNumber":74,"Velocity":49,"Duration":130434,"SoundDuration":130434,"Delta":33836340},{"NoteNumber":79,"Velocity":53,"Duration":130434,"SoundDuration":130434,"Delta":33836340},{"NoteNumber":83,"Velocity":49,"Duration":260869,"SoundDuration":260869,"Delta":33836340},{"NoteNumber":78,"Velocity":53,"Duration":130434,"SoundDuration":130434,"Delta":33966775},{"NoteNumber":74,"Velocity":52,"Duration":260869,"SoundDuration":260869,"Delta":34097209},{"NoteNumber":79,"Velocity":52,"Duration":260869,"SoundDuration":260869,"Delta":34097209},{"NoteNumber":83,"Velocity":58,"Duration":260869,"SoundDuration":260869,"Delta":34097209},{"NoteNumber":71,"Velocity":47,"Duration":130434,"SoundDuration":130434,"Delta":34097209},{"NoteNumber":83,"Velocity":49,"Duration":132743,"SoundDuration":132743,"Delta":34358079},{"NoteNumber":79,"Velocity":46,"Duration":132743,"SoundDuration":132743,"Delta":34358079},{"NoteNumber":86,"Velocity":46,"Duration":265486,"SoundDuration":265486,"Delta":34358079},{"NoteNumber":82,"Velocity":50,"Duration":132743,"SoundDuration":132743,"Delta":34490822},{"NoteNumber":79,"Velocity":50,"Duration":260869,"SoundDuration":260869,"Delta":34623566},{"NoteNumber":83,"Velocity":50,"Duration":260869,"SoundDuration":260869,"Delta":34623566},{"NoteNumber":86,"Velocity":50,"Duration":260869,"SoundDuration":260869,"Delta":34623566},{"NoteNumber":74,"Velocity":41,"Duration":130434,"SoundDuration":130434,"Delta":34623566},{"NoteNumber":83,"Velocity":46,"Duration":128755,"SoundDuration":128755,"Delta":34884435},{"NoteNumber":86,"Velocity":49,"Duration":128755,"SoundDuration":128755,"Delta":34884435},{"NoteNumber":91,"Velocity":46,"Duration":257510,"SoundDuration":257510,"Delta":34884435},{"NoteNumber":85,"Velocity":49,"Duration":128755,"SoundDuration":128755,"Delta":35013190},{"NoteNumber":83,"Velocity":50,"Duration":259740,"SoundDuration":259740,"Delta":35141946},{"NoteNumber":86,"Velocity":56,"Duration":259740,"SoundDuration":259740,"Delta":35141946},{"NoteNumber":91,"Velocity":50,"Duration":259740,"SoundDuration":259740,"Delta":35141946},{"NoteNumber":79,"Velocity":41,"Duration":129870,"SoundDuration":129870,"Delta":35141946},{"NoteNumber":83,"Velocity":45,"Duration":129870,"SoundDuration":129870,"Delta":35401686},{"NoteNumber":86,"Velocity":49,"Duration":129870,"SoundDuration":129870,"Delta":35401686},{"NoteNumber":91,"Velocity":45,"Duration":259740,"SoundDuration":259740,"Delta":35401686},{"NoteNumber":82,"Velocity":48,"Duration":129870,"SoundDuration":129870,"Delta":35531556},{"NoteNumber":83,"Velocity":48,"Duration":259740,"SoundDuration":259740,"Delta":35661426},{"NoteNumber":86,"Velocity":51,"Duration":259740,"SoundDuration":259740,"Delta":35661426},{"NoteNumber":91,"Velocity":48,"Duration":259740,"SoundDuration":259740,"Delta":35661426},{"NoteNumber":79,"Velocity":39,"Duration":129870,"SoundDuration":129870,"Delta":35661426},{"NoteNumber":83,"Velocity":42,"Duration":129870,"SoundDuration":129870,"Delta":35921167},{"NoteNumber":86,"Velocity":47,"Duration":129870,"SoundDuration":129870,"Delta":35921167},{"NoteNumber":91,"Velocity":42,"Duration":259740,"SoundDuration":259740,"Delta":35921167},{"NoteNumber":82,"Velocity":46,"Duration":129870,"SoundDuration":129870,"Delta":36051037},{"NoteNumber":83,"Velocity":46,"Duration":259740,"SoundDuration":259740,"Delta":36180907},{"NoteNumber":86,"Velocity":49,"Duration":259740,"SoundDuration":259740,"Delta":36180907},{"NoteNumber":91,"Velocity":46,"Duration":259740,"SoundDuration":259740,"Delta":36180907},{"NoteNumber":79,"Velocity":38,"Duration":129870,"SoundDuration":129870,"Delta":36180907},{"NoteNumber":83,"Velocity":39,"Duration":133333,"SoundDuration":133333,"Delta":36440648},{"NoteNumber":86,"Velocity":44,"Duration":133333,"SoundDuration":133333,"Delta":36440648},{"NoteNumber":91,"Velocity":39,"Duration":266666,"SoundDuration":266666,"Delta":36440648},{"NoteNumber":82,"Velocity":44,"Duration":133333,"SoundDuration":133333,"Delta":36573981},{"NoteNumber":83,"Velocity":44,"Duration":260869,"SoundDuration":260869,"Delta":36707314},{"NoteNumber":86,"Velocity":48,"Duration":260869,"SoundDuration":260869,"Delta":36707314},{"NoteNumber":91,"Velocity":44,"Duration":260869,"SoundDuration":260869,"Delta":36707314},{"NoteNumber":79,"Velocity":36,"Duration":130434,"SoundDuration":130434,"Delta":36707314},{"NoteNumber":83,"Velocity":38,"Duration":133928,"SoundDuration":133928,"Delta":36968184},{"NoteNumber":86,"Velocity":40,"Duration":133928,"SoundDuration":133928,"Delta":36968184},{"NoteNumber":91,"Velocity":38,"Duration":268145,"SoundDuration":268145,"Delta":36968184},{"NoteNumber":82,"Velocity":40,"Duration":134217,"SoundDuration":134217,"Delta":37102112},{"NoteNumber":83,"Velocity":40,"Duration":267251,"SoundDuration":267251,"Delta":37236330},{"NoteNumber":86,"Velocity":45,"Duration":267251,"SoundDuration":267251,"Delta":37236330},{"NoteNumber":91,"Velocity":40,"Duration":267251,"SoundDuration":267251,"Delta":37236330},{"NoteNumber":79,"Velocity":34,"Duration":132743,"SoundDuration":132743,"Delta":37236330},{"NoteNumber":83,"Velocity":36,"Duration":137766,"SoundDuration":137766,"Delta":37503582},{"NoteNumber":86,"Velocity":39,"Duration":137766,"SoundDuration":137766,"Delta":37503582},{"NoteNumber":91,"Velocity":36,"Duration":275532,"SoundDuration":275532,"Delta":37503582},{"NoteNumber":82,"Velocity":38,"Duration":137766,"SoundDuration":137766,"Delta":37641348},{"NoteNumber":83,"Velocity":39,"Duration":273943,"SoundDuration":273943,"Delta":37779114},{"NoteNumber":86,"Velocity":42,"Duration":273943,"SoundDuration":273943,"Delta":37779114},{"NoteNumber":91,"Velocity":39,"Duration":273943,"SoundDuration":273943,"Delta":37779114},{"NoteNumber":79,"Velocity":31,"Duration":137369,"SoundDuration":137369,"Delta":37779114},{"NoteNumber":83,"Velocity":34,"Duration":139625,"SoundDuration":139625,"Delta":38053058},{"NoteNumber":86,"Velocity":37,"Duration":139625,"SoundDuration":139625,"Delta":38053058},{"NoteNumber":91,"Velocity":34,"Duration":279251,"SoundDuration":279251,"Delta":38053058},{"NoteNumber":82,"Velocity":36,"Duration":139625,"SoundDuration":139625,"Delta":38192684},{"NoteNumber":83,"Velocity":33,"Duration":506821,"SoundDuration":506821,"Delta":38332310},{"NoteNumber":86,"Velocity":33,"Duration":506821,"SoundDuration":506821,"Delta":38332310},{"NoteNumber":91,"Velocity":33,"Duration":506821,"SoundDuration":506821,"Delta":38332310},{"NoteNumber":79,"Velocity":31,"Duration":251218,"SoundDuration":251218,"Delta":38332310},{"NoteNumber":43,"Velocity":49,"Duration":127058,"SoundDuration":127058,"Delta":38583528},{"NoteNumber":43,"Velocity":42,"Duration":128544,"SoundDuration":128544,"Delta":38710587},{"NoteNumber":43,"Velocity":49,"Duration":130489,"SoundDuration":130489,"Delta":38839131},{"NoteNumber":43,"Velocity":42,"Duration":130939,"SoundDuration":130939,"Delta":38969621},{"NoteNumber":43,"Velocity":49,"Duration":132993,"SoundDuration":132993,"Delta":39100561},{"NoteNumber":43,"Velocity":42,"Duration":134076,"SoundDuration":134076,"Delta":39233555},{"NoteNumber":43,"Velocity":49,"Duration":137155,"SoundDuration":137155,"Delta":39367631},{"NoteNumber":43,"Velocity":42,"Duration":140047,"SoundDuration":140047,"Delta":39504786},{"NoteNumber":43,"Velocity":49,"Duration":136511,"SoundDuration":136511,"Delta":39644834},{"NoteNumber":43,"Velocity":42,"Duration":137174,"SoundDuration":137174,"Delta":39781345},{"NoteNumber":43,"Velocity":49,"Duration":271511,"SoundDuration":271511,"Delta":39918520},{"NoteNumber":43,"Velocity":42,"Duration":136514,"SoundDuration":136514,"Delta":40190031},{"NoteNumber":43,"Velocity":42,"Duration":136615,"SoundDuration":136615,"Delta":40326546},{"NoteNumber":43,"Velocity":45,"Duration":271704,"SoundDuration":271704,"Delta":40463161},{"NoteNumber":43,"Velocity":40,"Duration":137405,"SoundDuration":137405,"Delta":40734866},{"NoteNumber":43,"Velocity":40,"Duration":138675,"SoundDuration":138675,"Delta":40872271},{"NoteNumber":43,"Velocity":44,"Duration":280818,"SoundDuration":280818,"Delta":41010946},{"NoteNumber":43,"Velocity":38,"Duration":307927,"SoundDuration":307927,"Delta":41291765},{"NoteNumber":75,"Velocity":61,"Duration":1105102,"SoundDuration":1105102,"Delta":41599693},{"NoteNumber":79,"Velocity":61,"Duration":1105102,"SoundDuration":1105102,"Delta":41599693},{"NoteNumber":82,"Velocity":72,"Duration":1105102,"SoundDuration":1105102,"Delta":41599693},{"NoteNumber":87,"Velocity":92,"Duration":1105102,"SoundDuration":1105102,"Delta":41599693},{"NoteNumber":39,"Velocity":48,"Duration":1105102,"SoundDuration":1105102,"Delta":41599693},{"NoteNumber":51,"Velocity":58,"Duration":1105102,"SoundDuration":1105102,"Delta":41599693},{"NoteNumber":46,"Velocity":56,"Duration":133928,"SoundDuration":133928,"Delta":41881383},{"NoteNumber":48,"Velocity":56,"Duration":133928,"SoundDuration":133928,"Delta":42015312},{"NoteNumber":46,"Velocity":59,"Duration":138888,"SoundDuration":138888,"Delta":42149240},{"NoteNumber":46,"Velocity":56,"Duration":138888,"SoundDuration":138888,"Delta":42427018},{"NoteNumber":74,"Velocity":52,"Duration":412844,"SoundDuration":412844,"Delta":42704796},{"NoteNumber":80,"Velocity":62,"Duration":412844,"SoundDuration":412844,"Delta":42704796},{"NoteNumber":86,"Velocity":80,"Duration":412844,"SoundDuration":412844,"Delta":42704796},{"NoteNumber":39,"Velocity":44,"Duration":561993,"SoundDuration":561993,"Delta":42704796},{"NoteNumber":53,"Velocity":53,"Duration":561993,"SoundDuration":561993,"Delta":42704796},{"NoteNumber":46,"Velocity":53,"Duration":286764,"SoundDuration":286764,"Delta":42980026},{"NoteNumber":82,"Velocity":68,"Duration":149149,"SoundDuration":149149,"Delta":43117640},{"NoteNumber":84,"Velocity":67,"Duration":278861,"SoundDuration":278861,"Delta":43266790},{"NoteNumber":75,"Velocity":60,"Duration":1103476,"SoundDuration":1103476,"Delta":43266790},{"NoteNumber":79,"Velocity":60,"Duration":1103476,"SoundDuration":1103476,"Delta":43266790},{"NoteNumber":39,"Velocity":53,"Duration":1103476,"SoundDuration":1103476,"Delta":43266790},{"NoteNumber":55,"Velocity":53,"Duration":1103476,"SoundDuration":1103476,"Delta":43266790},{"NoteNumber":84,"Velocity":59,"Duration":89686,"SoundDuration":89686,"Delta":43545652},{"NoteNumber":46,"Velocity":56,"Duration":134529,"SoundDuration":134529,"Delta":43545652},{"NoteNumber":86,"Velocity":59,"Duration":89686,"SoundDuration":89686,"Delta":43635338},{"NoteNumber":48,"Velocity":56,"Duration":134529,"SoundDuration":134529,"Delta":43680181},{"NoteNumber":84,"Velocity":59,"Duration":89686,"SoundDuration":89686,"Delta":43725025},{"NoteNumber":82,"Velocity":66,"Duration":555556,"SoundDuration":555556,"Delta":43814711},{"NoteNumber":46,"Velocity":59,"Duration":138888,"SoundDuration":138888,"Delta":43814711},{"NoteNumber":46,"Velocity":56,"Duration":138888,"SoundDuration":138888,"Delta":44092489},{"NoteNumber":80,"Velocity":64,"Duration":428590,"SoundDuration":428590,"Delta":44370267},{"NoteNumber":70,"Velocity":48,"Duration":428590,"SoundDuration":428590,"Delta":44370267},{"NoteNumber":74,"Velocity":48,"Duration":428590,"SoundDuration":428590,"Delta":44370267},{"NoteNumber":39,"Velocity":44,"Duration":572821,"SoundDuration":572821,"Delta":44370267},{"NoteNumber":53,"Velocity":53,"Duration":572821,"SoundDuration":572821,"Delta":44370267},{"NoteNumber":46,"Velocity":46,"Duration":288461,"SoundDuration":288461,"Delta":44654627},{"NoteNumber":77,"Velocity":57,"Duration":144230,"SoundDuration":144230,"Delta":44798857},{"NoteNumber":79,"Velocity":68,"Duration":143047,"SoundDuration":143047,"Delta":44943088},{"NoteNumber":70,"Velocity":51,"Duration":862101,"SoundDuration":862101,"Delta":44943088},{"NoteNumber":75,"Velocity":51,"Duration":862101,"SoundDuration":862101,"Delta":44943088},{"NoteNumber":39,"Velocity":39,"Duration":1143791,"SoundDuration":1143791,"Delta":44943088},{"NoteNumber":51,"Velocity":47,"Duration":1143791,"SoundDuration":1143791,"Delta":44943088},{"NoteNumber":80,"Velocity":60,"Duration":143047,"SoundDuration":143047,"Delta":45086136},{"NoteNumber":82,"Velocity":65,"Duration":286095,"SoundDuration":286095,"Delta":45229184},{"NoteNumber":46,"Velocity":50,"Duration":143047,"SoundDuration":143047,"Delta":45229184},{"NoteNumber":48,"Velocity":50,"Duration":143047,"SoundDuration":143047,"Delta":45372231},{"NoteNumber":82,"Velocity":65,"Duration":571600,"SoundDuration":571600,"Delta":45515279},{"NoteNumber":46,"Velocity":53,"Duration":144955,"SoundDuration":144955,"Delta":45515279},{"NoteNumber":55,"Velocity":42,"Duration":140844,"SoundDuration":140844,"Delta":45805190},{"NoteNumber":46,"Velocity":44,"Duration":140844,"SoundDuration":140844,"Delta":45805190},{"NoteNumber":58,"Velocity":38,"Duration":140844,"SoundDuration":140844,"Delta":45946035},{"NoteNumber":56,"Velocity":42,"Duration":144147,"SoundDuration":144147,"Delta":46086880},{"NoteNumber":39,"Velocity":41,"Duration":576590,"SoundDuration":576590,"Delta":46086880},{"NoteNumber":50,"Velocity":41,"Duration":576590,"SoundDuration":576590,"Delta":46086880},{"NoteNumber":58,"Velocity":38,"Duration":144147,"SoundDuration":144147,"Delta":46231028},{"NoteNumber":56,"Velocity":42,"Duration":144147,"SoundDuration":144147,"Delta":46375175},{"NoteNumber":46,"Velocity":41,"Duration":288295,"SoundDuration":288295,"Delta":46375175},{"NoteNumber":58,"Velocity":38,"Duration":144147,"SoundDuration":144147,"Delta":46519323},{"NoteNumber":55,"Velocity":48,"Duration":295712,"SoundDuration":295712,"Delta":46663470},{"NoteNumber":39,"Velocity":39,"Duration":1176137,"SoundDuration":1176137,"Delta":46663470},{"NoteNumber":51,"Velocity":47,"Duration":1176137,"SoundDuration":1176137,"Delta":46663470},{"NoteNumber":55,"Velocity":42,"Duration":880425,"SoundDuration":880425,"Delta":46959182},{"NoteNumber":58,"Velocity":42,"Duration":147855,"SoundDuration":147855,"Delta":46959182},{"NoteNumber":46,"Velocity":49,"Duration":147855,"SoundDuration":147855,"Delta":46959182},{"NoteNumber":60,"Velocity":39,"Duration":147439,"SoundDuration":147439,"Delta":47107038},{"NoteNumber":48,"Velocity":49,"Duration":147439,"SoundDuration":147439,"Delta":47107038},{"NoteNumber":58,"Velocity":46,"Duration":144314,"SoundDuration":144314,"Delta":47254478},{"NoteNumber":46,"Velocity":52,"Duration":144314,"SoundDuration":144314,"Delta":47254478},{"NoteNumber":60,"Velocity":40,"Duration":144314,"SoundDuration":144314,"Delta":47398792},{"NoteNumber":63,"Velocity":48,"Duration":148250,"SoundDuration":148250,"Delta":47543106},{"NoteNumber":46,"Velocity":49,"Duration":148250,"SoundDuration":148250,"Delta":47543106},{"NoteNumber":60,"Velocity":44,"Duration":148250,"SoundDuration":148250,"Delta":47691357},{"NoteNumber":56,"Velocity":46,"Duration":604112,"SoundDuration":604112,"Delta":47839608},{"NoteNumber":62,"Velocity":51,"Duration":290320,"SoundDuration":290320,"Delta":47839608},{"NoteNumber":39,"Velocity":41,"Duration":604112,"SoundDuration":604112,"Delta":47839608},{"NoteNumber":53,"Velocity":47,"Duration":604112,"SoundDuration":604112,"Delta":47839608},{"NoteNumber":60,"Velocity":48,"Duration":153123,"SoundDuration":153123,"Delta":48129928},{"NoteNumber":46,"Velocity":47,"Duration":313792,"SoundDuration":313792,"Delta":48129928},{"NoteNumber":58,"Velocity":48,"Duration":160668,"SoundDuration":160668,"Delta":48283051},{"NoteNumber":75,"Velocity":61,"Duration":1102274,"SoundDuration":1102274,"Delta":48443720},{"NoteNumber":79,"Velocity":61,"Duration":1102274,"SoundDuration":1102274,"Delta":48443720},{"NoteNumber":82,"Velocity":72,"Duration":1102274,"SoundDuration":1102274,"Delta":48443720},{"NoteNumber":87,"Velocity":89,"Duration":1102274,"SoundDuration":1102274,"Delta":48443720},{"NoteNumber":39,"Velocity":48,"Duration":1102274,"SoundDuration":1102274,"Delta":48443720},{"NoteNumber":51,"Velocity":58,"Duration":1102274,"SoundDuration":1102274,"Delta":48443720},{"NoteNumber":46,"Velocity":56,"Duration":133928,"SoundDuration":133928,"Delta":48722582},{"NoteNumber":48,"Velocity":56,"Duration":133928,"SoundDuration":133928,"Delta":48856510},{"NoteNumber":46,"Velocity":59,"Duration":138888,"SoundDuration":138888,"Delta":48990439},{"NoteNumber":46,"Velocity":56,"Duration":138888,"SoundDuration":138888,"Delta":49268217},{"NoteNumber":74,"Velocity":52,"Duration":410958,"SoundDuration":410958,"Delta":49545995},{"NoteNumber":80,"Velocity":62,"Duration":410958,"SoundDuration":410958,"Delta":49545995},{"NoteNumber":86,"Velocity":80,"Duration":410958,"SoundDuration":410958,"Delta":49545995},{"NoteNumber":39,"Velocity":44,"Duration":560108,"SoundDuration":560108,"Delta":49545995},{"NoteNumber":53,"Velocity":53,"Duration":560108,"SoundDuration":560108,"Delta":49545995},{"NoteNumber":46,"Velocity":53,"Duration":286135,"SoundDuration":286135,"Delta":49819967},{"NoteNumber":82,"Velocity":68,"Duration":149149,"SoundDuration":149149,"Delta":49956954},{"NoteNumber":84,"Velocity":71,"Duration":278861,"SoundDuration":278861,"Delta":50106103},{"NoteNumber":75,"Velocity":60,"Duration":1123440,"SoundDuration":1123440,"Delta":50106103},{"NoteNumber":79,"Velocity":57,"Duration":1123440,"SoundDuration":1123440,"Delta":50106103},{"NoteNumber":39,"Velocity":53,"Duration":1123440,"SoundDuration":1123440,"Delta":50106103},{"NoteNumber":55,"Velocity":53,"Duration":1123440,"SoundDuration":1123440,"Delta":50106103},{"NoteNumber":84,"Velocity":57,"Duration":90090,"SoundDuration":90090,"Delta":50384965},{"NoteNumber":46,"Velocity":56,"Duration":135135,"SoundDuration":135135,"Delta":50384965},{"NoteNumber":86,"Velocity":57,"Duration":90090,"SoundDuration":90090,"Delta":50475056},{"NoteNumber":48,"Velocity":56,"Duration":135135,"SoundDuration":135135,"Delta":50520101},{"NoteNumber":84,"Velocity":57,"Duration":90090,"SoundDuration":90090,"Delta":50565146},{"NoteNumber":82,"Velocity":65,"Duration":574308,"SoundDuration":574308,"Delta":50655236},{"NoteNumber":46,"Velocity":59,"Duration":138888,"SoundDuration":138888,"Delta":50655236},{"NoteNumber":46,"Velocity":56,"Duration":148265,"SoundDuration":148265,"Delta":50933014},{"NoteNumber":67,"Velocity":41,"Duration":435527,"SoundDuration":435527,"Delta":51229544},{"NoteNumber":81,"Velocity":61,"Duration":435527,"SoundDuration":435527,"Delta":51229544},{"NoteNumber":69,"Velocity":41,"Duration":435527,"SoundDuration":435527,"Delta":51229544},{"NoteNumber":73,"Velocity":41,"Duration":435527,"SoundDuration":435527,"Delta":51229544},{"NoteNumber":39,"Velocity":41,"Duration":582758,"SoundDuration":582758,"Delta":51229544},{"NoteNumber":51,"Velocity":50,"Duration":582758,"SoundDuration":582758,"Delta":51229544},{"NoteNumber":45,"Velocity":39,"Duration":294463,"SoundDuration":294463,"Delta":51517839},{"NoteNumber":79,"Velocity":52,"Duration":147231,"SoundDuration":147231,"Delta":51665071},{"NoteNumber":78,"Velocity":62,"Duration":143047,"SoundDuration":143047,"Delta":51812303},{"NoteNumber":69,"Velocity":44,"Duration":862101,"SoundDuration":862101,"Delta":51812303},{"NoteNumber":74,"Velocity":44,"Duration":862101,"SoundDuration":862101,"Delta":51812303},{"NoteNumber":38,"Velocity":34,"Duration":1145120,"SoundDuration":1145120,"Delta":51812303},{"NoteNumber":50,"Velocity":39,"Duration":1145120,"SoundDuration":1145120,"Delta":51812303},{"NoteNumber":79,"Velocity":55,"Duration":143047,"SoundDuration":143047,"Delta":51955351},{"NoteNumber":81,"Velocity":58,"Duration":286095,"SoundDuration":286095,"Delta":52098399},{"NoteNumber":45,"Velocity":42,"Duration":143047,"SoundDuration":143047,"Delta":52098399},{"NoteNumber":47,"Velocity":42,"Duration":143047,"SoundDuration":143047,"Delta":52241447},{"NoteNumber":81,"Velocity":58,"Duration":572929,"SoundDuration":572929,"Delta":52384494},{"NoteNumber":45,"Velocity":46,"Duration":144955,"SoundDuration":144955,"Delta":52384494},{"NoteNumber":54,"Velocity":38,"Duration":141509,"SoundDuration":141509,"Delta":52674405},{"NoteNumber":45,"Velocity":39,"Duration":141509,"SoundDuration":141509,"Delta":52674405},{"NoteNumber":57,"Velocity":34,"Duration":141509,"SoundDuration":141509,"Delta":52815915},{"NoteNumber":55,"Velocity":38,"Duration":144147,"SoundDuration":144147,"Delta":52957424},{"NoteNumber":38,"Velocity":37,"Duration":576590,"SoundDuration":576590,"Delta":52957424},{"NoteNumber":52,"Velocity":37,"Duration":576590,"SoundDuration":576590,"Delta":52957424},{"NoteNumber":57,"Velocity":34,"Duration":144147,"SoundDuration":144147,"Delta":53101572},{"NoteNumber":55,"Velocity":38,"Duration":144147,"SoundDuration":144147,"Delta":53245719},{"NoteNumber":45,"Velocity":37,"Duration":288295,"SoundDuration":288295,"Delta":53245719},{"NoteNumber":57,"Velocity":35,"Duration":144147,"SoundDuration":144147,"Delta":53389867},{"NoteNumber":54,"Velocity":44,"Duration":295712,"SoundDuration":295712,"Delta":53534014},{"NoteNumber":38,"Velocity":36,"Duration":1176137,"SoundDuration":1176137,"Delta":53534014},{"NoteNumber":50,"Velocity":42,"Duration":1176137,"SoundDuration":1176137,"Delta":53534014},{"NoteNumber":54,"Velocity":39,"Duration":880425,"SoundDuration":880425,"Delta":53829726},{"NoteNumber":57,"Velocity":39,"Duration":147855,"SoundDuration":147855,"Delta":53829726},{"NoteNumber":45,"Velocity":46,"Duration":147855,"SoundDuration":147855,"Delta":53829726},{"NoteNumber":59,"Velocity":37,"Duration":147439,"SoundDuration":147439,"Delta":53977582},{"NoteNumber":47,"Velocity":46,"Duration":147439,"SoundDuration":147439,"Delta":53977582},{"NoteNumber":57,"Velocity":42,"Duration":144314,"SoundDuration":144314,"Delta":54125022},{"NoteNumber":45,"Velocity":49,"Duration":144314,"SoundDuration":144314,"Delta":54125022},{"NoteNumber":59,"Velocity":38,"Duration":144314,"SoundDuration":144314,"Delta":54269336},{"NoteNumber":57,"Velocity":46,"Duration":148250,"SoundDuration":148250,"Delta":54413650},{"NoteNumber":45,"Velocity":47,"Duration":148250,"SoundDuration":148250,"Delta":54413650},{"NoteNumber":59,"Velocity":41,"Duration":148250,"SoundDuration":148250,"Delta":54561901},{"NoteNumber":55,"Velocity":44,"Duration":604112,"SoundDuration":604112,"Delta":54710152},{"NoteNumber":61,"Velocity":49,"Duration":290320,"SoundDuration":290320,"Delta":54710152},{"NoteNumber":38,"Velocity":39,"Duration":604112,"SoundDuration":604112,"Delta":54710152},{"NoteNumber":52,"Velocity":45,"Duration":604112,"SoundDuration":604112,"Delta":54710152},{"NoteNumber":59,"Velocity":47,"Duration":153123,"SoundDuration":153123,"Delta":55000472},{"NoteNumber":45,"Velocity":46,"Duration":313792,"SoundDuration":313792,"Delta":55000472},{"NoteNumber":57,"Velocity":47,"Duration":160668,"SoundDuration":160668,"Delta":55153596},{"NoteNumber":74,"Velocity":61,"Duration":1104688,"SoundDuration":1104688,"Delta":55314264},{"NoteNumber":78,"Velocity":61,"Duration":1104688,"SoundDuration":1104688,"Delta":55314264},{"NoteNumber":81,"Velocity":72,"Duration":1104688,"SoundDuration":1104688,"Delta":55314264},{"NoteNumber":86,"Velocity":89,"Duration":1104688,"SoundDuration":1104688,"Delta":55314264},{"NoteNumber":38,"Velocity":48,"Duration":1104688,"SoundDuration":1104688,"Delta":55314264},{"NoteNumber":50,"Velocity":58,"Duration":1104688,"SoundDuration":1104688,"Delta":55314264},{"NoteNumber":45,"Velocity":56,"Duration":135135,"SoundDuration":135135,"Delta":55593126},{"NoteNumber":47,"Velocity":56,"Duration":135135,"SoundDuration":135135,"Delta":55728261},{"NoteNumber":45,"Velocity":59,"Duration":138888,"SoundDuration":138888,"Delta":55863397},{"NoteNumber":45,"Velocity":56,"Duration":138888,"SoundDuration":138888,"Delta":56141175},{"NoteNumber":73,"Velocity":52,"Duration":412844,"SoundDuration":412844,"Delta":56418953},{"NoteNumber":79,"Velocity":62,"Duration":412844,"SoundDuration":412844,"Delta":56418953},{"NoteNumber":85,"Velocity":75,"Duration":412844,"SoundDuration":412844,"Delta":56418953},{"NoteNumber":38,"Velocity":44,"Duration":561993,"SoundDuration":561993,"Delta":56418953},{"NoteNumber":52,"Velocity":53,"Duration":561993,"SoundDuration":561993,"Delta":56418953},{"NoteNumber":45,"Velocity":53,"Duration":286764,"SoundDuration":286764,"Delta":56694182},{"NoteNumber":81,"Velocity":67,"Duration":149149,"SoundDuration":149149,"Delta":56831797},{"NoteNumber":83,"Velocity":75,"Duration":278861,"SoundDuration":278861,"Delta":56980947},{"NoteNumber":74,"Velocity":60,"Duration":1107139,"SoundDuration":1107139,"Delta":56980947},{"NoteNumber":78,"Velocity":60,"Duration":1107139,"SoundDuration":1107139,"Delta":56980947},{"NoteNumber":38,"Velocity":53,"Duration":1107139,"SoundDuration":1107139,"Delta":56980947},{"NoteNumber":54,"Velocity":53,"Duration":1107139,"SoundDuration":1107139,"Delta":56980947},{"NoteNumber":83,"Velocity":59,"Duration":91725,"SoundDuration":91725,"Delta":57259809},{"NoteNumber":45,"Velocity":56,"Duration":136974,"SoundDuration":136974,"Delta":57259809},{"NoteNumber":85,"Velocity":59,"Duration":90497,"SoundDuration":90497,"Delta":57351535},{"NoteNumber":47,"Velocity":56,"Duration":135746,"SoundDuration":135746,"Delta":57396783},{"NoteNumber":83,"Velocity":59,"Duration":90497,"SoundDuration":90497,"Delta":57442032},{"NoteNumber":81,"Velocity":67,"Duration":555556,"SoundDuration":555556,"Delta":57532530},{"NoteNumber":45,"Velocity":59,"Duration":138888,"SoundDuration":138888,"Delta":57532530},{"NoteNumber":45,"Velocity":56,"Duration":138888,"SoundDuration":138888,"Delta":57810308},{"NoteNumber":67,"Velocity":48,"Duration":431592,"SoundDuration":431592,"Delta":58088086},{"NoteNumber":79,"Velocity":68,"Duration":431592,"SoundDuration":431592,"Delta":58088086},{"NoteNumber":69,"Velocity":48,"Duration":431592,"SoundDuration":431592,"Delta":58088086},{"NoteNumber":73,"Velocity":48,"Duration":431592,"SoundDuration":431592,"Delta":58088086},{"NoteNumber":38,"Velocity":44,"Duration":578823,"SoundDuration":578823,"Delta":58088086},{"NoteNumber":52,"Velocity":53,"Duration":578823,"SoundDuration":578823,"Delta":58088086},{"NoteNumber":45,"Velocity":46,"Duration":294463,"SoundDuration":294463,"Delta":58372446},{"NoteNumber":76,"Velocity":60,"Duration":147231,"SoundDuration":147231,"Delta":58519678},{"NoteNumber":78,"Velocity":68,"Duration":143047,"SoundDuration":143047,"Delta":58666910},{"NoteNumber":69,"Velocity":51,"Duration":862101,"SoundDuration":862101,"Delta":58666910},{"NoteNumber":74,"Velocity":51,"Duration":862101,"SoundDuration":862101,"Delta":58666910},{"NoteNumber":38,"Velocity":39,"Duration":1142475,"SoundDuration":1142475,"Delta":58666910},{"NoteNumber":50,"Velocity":47,"Duration":1142475,"SoundDuration":1142475,"Delta":58666910},{"NoteNumber":79,"Velocity":60,"Duration":143047,"SoundDuration":143047,"Delta":58809958},{"NoteNumber":81,"Velocity":65,"Duration":286095,"SoundDuration":286095,"Delta":58953005},{"NoteNumber":45,"Velocity":50,"Duration":143047,"SoundDuration":143047,"Delta":58953005},{"NoteNumber":47,"Velocity":50,"Duration":143047,"SoundDuration":143047,"Delta":59096053},{"NoteNumber":81,"Velocity":65,"Duration":570284,"SoundDuration":570284,"Delta":59239101},{"NoteNumber":45,"Velocity":53,"Duration":144955,"SoundDuration":144955,"Delta":59239101},{"NoteNumber":54,"Velocity":42,"Duration":140186,"SoundDuration":140186,"Delta":59529012},{"NoteNumber":45,"Velocity":44,"Duration":140186,"SoundDuration":140186,"Delta":59529012},{"NoteNumber":57,"Velocity":38,"Duration":140187,"SoundDuration":140187,"Delta":59669199},{"NoteNumber":55,"Velocity":42,"Duration":144147,"SoundDuration":144147,"Delta":59809386},{"NoteNumber":38,"Velocity":41,"Duration":576590,"SoundDuration":576590,"Delta":59809386},{"NoteNumber":52,"Velocity":41,"Duration":576590,"SoundDuration":576590,"Delta":59809386},{"NoteNumber":57,"Velocity":38,"Duration":144147,"SoundDuration":144147,"Delta":59953533},{"NoteNumber":55,"Velocity":42,"Duration":144147,"SoundDuration":144147,"Delta":60097681},{"NoteNumber":45,"Velocity":41,"Duration":288295,"SoundDuration":288295,"Delta":60097681},{"NoteNumber":57,"Velocity":38,"Duration":144147,"SoundDuration":144147,"Delta":60241828},{"NoteNumber":54,"Velocity":48,"Duration":295712,"SoundDuration":295712,"Delta":60385976},{"NoteNumber":38,"Velocity":39,"Duration":1176137,"SoundDuration":1176137,"Delta":60385976},{"NoteNumber":50,"Velocity":47,"Duration":1176137,"SoundDuration":1176137,"Delta":60385976},{"NoteNumber":54,"Velocity":42,"Duration":880425,"SoundDuration":880425,"Delta":60681688},{"NoteNumber":57,"Velocity":42,"Duration":147855,"SoundDuration":147855,"Delta":60681688},{"NoteNumber":45,"Velocity":49,"Duration":147855,"SoundDuration":147855,"Delta":60681688},{"NoteNumber":59,"Velocity":39,"Duration":147439,"SoundDuration":147439,"Delta":60829544},{"NoteNumber":47,"Velocity":49,"Duration":147439,"SoundDuration":147439,"Delta":60829544},{"NoteNumber":57,"Velocity":46,"Duration":144314,"SoundDuration":144314,"Delta":60976984},{"NoteNumber":45,"Velocity":52,"Duration":144314,"SoundDuration":144314,"Delta":60976984},{"NoteNumber":59,"Velocity":40,"Duration":144314,"SoundDuration":144314,"Delta":61121298},{"NoteNumber":62,"Velocity":48,"Duration":148250,"SoundDuration":148250,"Delta":61265612},{"NoteNumber":45,"Velocity":49,"Duration":148250,"SoundDuration":148250,"Delta":61265612},{"NoteNumber":59,"Velocity":44,"Duration":148250,"SoundDuration":148250,"Delta":61413863},{"NoteNumber":55,"Velocity":46,"Duration":604112,"SoundDuration":604112,"Delta":61562113},{"NoteNumber":61,"Velocity":51,"Duration":290320,"SoundDuration":290320,"Delta":61562113},{"NoteNumber":38,"Velocity":41,"Duration":604112,"SoundDuration":604112,"Delta":61562113},{"NoteNumber":52,"Velocity":47,"Duration":604112,"SoundDuration":604112,"Delta":61562113},{"NoteNumber":59,"Velocity":48,"Duration":153123,"SoundDuration":153123,"Delta":61852433},{"NoteNumber":45,"Velocity":47,"Duration":313792,"SoundDuration":313792,"Delta":61852433},{"NoteNumber":57,"Velocity":48,"Duration":160668,"SoundDuration":160668,"Delta":62005557},{"NoteNumber":74,"Velocity":60,"Duration":1101084,"SoundDuration":1101084,"Delta":62166226},{"NoteNumber":78,"Velocity":60,"Duration":1101084,"SoundDuration":1101084,"Delta":62166226},{"NoteNumber":81,"Velocity":72,"Duration":1101084,"SoundDuration":1101084,"Delta":62166226},{"NoteNumber":86,"Velocity":94,"Duration":1101084,"SoundDuration":1101084,"Delta":62166226},{"NoteNumber":38,"Velocity":52,"Duration":1101084,"SoundDuration":1101084,"Delta":62166226},{"NoteNumber":50,"Velocity":63,"Duration":1101084,"SoundDuration":1101084,"Delta":62166226},{"NoteNumber":45,"Velocity":60,"Duration":133333,"SoundDuration":133333,"Delta":62445088},{"NoteNumber":47,"Velocity":60,"Duration":133333,"SoundDuration":133333,"Delta":62578421},{"NoteNumber":45,"Velocity":64,"Duration":138888,"SoundDuration":138888,"Delta":62711754},{"NoteNumber":45,"Velocity":60,"Duration":138888,"SoundDuration":138888,"Delta":62989532},{"NoteNumber":73,"Velocity":57,"Duration":412844,"SoundDuration":412844,"Delta":63267310},{"NoteNumber":79,"Velocity":69,"Duration":412844,"SoundDuration":412844,"Delta":63267310},{"NoteNumber":85,"Velocity":82,"Duration":412844,"SoundDuration":412844,"Delta":63267310},{"NoteNumber":40,"Velocity":48,"Duration":561993,"SoundDuration":561993,"Delta":63267310},{"NoteNumber":52,"Velocity":58,"Duration":561993,"SoundDuration":561993,"Delta":63267310},{"NoteNumber":45,"Velocity":58,"Duration":286764,"SoundDuration":286764,"Delta":63542540},{"NoteNumber":69,"Velocity":68,"Duration":149149,"SoundDuration":149149,"Delta":63680154},{"NoteNumber":81,"Velocity":68,"Duration":149149,"SoundDuration":149149,"Delta":63680154},{"NoteNumber":71,"Velocity":63,"Duration":826910,"SoundDuration":826910,"Delta":63829304},{"NoteNumber":83,"Velocity":82,"Duration":826910,"SoundDuration":826910,"Delta":63829304},{"NoteNumber":74,"Velocity":63,"Duration":826910,"SoundDuration":826910,"Delta":63829304},{"NoteNumber":78,"Velocity":63,"Duration":826910,"SoundDuration":826910,"Delta":63829304},{"NoteNumber":42,"Velocity":58,"Duration":1104688,"SoundDuration":1104688,"Delta":63829304},{"NoteNumber":54,"Velocity":58,"Duration":1104688,"SoundDuration":1104688,"Delta":63829304},{"NoteNumber":45,"Velocity":60,"Duration":135135,"SoundDuration":135135,"Delta":64108166},{"NoteNumber":47,"Velocity":60,"Duration":135135,"SoundDuration":135135,"Delta":64243301},{"NoteNumber":45,"Velocity":64,"Duration":138889,"SoundDuration":138889,"Delta":64378437},{"NoteNumber":74,"Velocity":82,"Duration":277777,"SoundDuration":277777,"Delta":64656215},{"NoteNumber":86,"Velocity":91,"Duration":277777,"SoundDuration":277777,"Delta":64656215},{"NoteNumber":45,"Velocity":60,"Duration":138889,"SoundDuration":138889,"Delta":64656215},{"NoteNumber":85,"Velocity":79,"Duration":424547,"SoundDuration":424547,"Delta":64933993},{"NoteNumber":73,"Velocity":52,"Duration":424547,"SoundDuration":424547,"Delta":64933993},{"NoteNumber":79,"Velocity":57,"Duration":424547,"SoundDuration":424547,"Delta":64933993},{"NoteNumber":40,"Velocity":48,"Duration":567404,"SoundDuration":567404,"Delta":64933993},{"NoteNumber":52,"Velocity":58,"Duration":567404,"SoundDuration":567404,"Delta":64933993},{"NoteNumber":45,"Velocity":50,"Duration":285714,"SoundDuration":285714,"Delta":65215683},{"NoteNumber":69,"Velocity":64,"Duration":142857,"SoundDuration":142857,"Delta":65358540},{"NoteNumber":81,"Velocity":71,"Duration":142857,"SoundDuration":142857,"Delta":65358540},{"NoteNumber":71,"Velocity":67,"Duration":836585,"SoundDuration":836585,"Delta":65501397},{"NoteNumber":83,"Velocity":88,"Duration":836585,"SoundDuration":836585,"Delta":65501397},{"NoteNumber":74,"Velocity":66,"Duration":836585,"SoundDuration":836585,"Delta":65501397},{"NoteNumber":78,"Velocity":66,"Duration":836585,"SoundDuration":836585,"Delta":65501397},{"NoteNumber":42,"Velocity":58,"Duration":1119952,"SoundDuration":1119952,"Delta":65501397},{"NoteNumber":54,"Velocity":58,"Duration":1119952,"SoundDuration":1119952,"Delta":65501397},{"NoteNumber":45,"Velocity":60,"Duration":139431,"SoundDuration":139431,"Delta":65780259},{"NoteNumber":47,"Velocity":60,"Duration":139430,"SoundDuration":139430,"Delta":65919690},{"NoteNumber":45,"Velocity":64,"Duration":139431,"SoundDuration":139431,"Delta":66059121},{"NoteNumber":74,"Velocity":79,"Duration":283366,"SoundDuration":283366,"Delta":66337983},{"NoteNumber":86,"Velocity":86,"Duration":283366,"SoundDuration":283366,"Delta":66337983},{"NoteNumber":45,"Velocity":61,"Duration":141683,"SoundDuration":141683,"Delta":66337983},{"NoteNumber":84,"Velocity":72,"Duration":439686,"SoundDuration":439686,"Delta":66621350},{"NoteNumber":72,"Velocity":48,"Duration":439686,"SoundDuration":439686,"Delta":66621350},{"NoteNumber":79,"Velocity":48,"Duration":439686,"SoundDuration":439686,"Delta":66621350},{"NoteNumber":39,"Velocity":48,"Duration":586918,"SoundDuration":586918,"Delta":66621350},{"NoteNumber":51,"Velocity":58,"Duration":586918,"SoundDuration":586918,"Delta":66621350},{"NoteNumber":45,"Velocity":46,"Duration":294464,"SoundDuration":294464,"Delta":66913804},{"NoteNumber":69,"Velocity":56,"Duration":147232,"SoundDuration":147232,"Delta":67061036},{"NoteNumber":81,"Velocity":60,"Duration":147232,"SoundDuration":147232,"Delta":67061036},{"NoteNumber":72,"Velocity":45,"Duration":102739,"SoundDuration":102739,"Delta":67208268},{"NoteNumber":63,"Velocity":33,"Duration":102739,"SoundDuration":102739,"Delta":67208268},{"NoteNumber":74,"Velocity":47,"Duration":102739,"SoundDuration":102739,"Delta":67345254},{"NoteNumber":65,"Velocity":35,"Duration":102739,"SoundDuration":102739,"Delta":67345254},{"NoteNumber":75,"Velocity":49,"Duration":104166,"SoundDuration":104166,"Delta":67482241},{"NoteNumber":67,"Velocity":37,"Duration":104166,"SoundDuration":104166,"Delta":67482241},{"NoteNumber":77,"Velocity":51,"Duration":104166,"SoundDuration":104166,"Delta":67621130},{"NoteNumber":69,"Velocity":38,"Duration":104166,"SoundDuration":104166,"Delta":67621130},{"NoteNumber":75,"Velocity":53,"Duration":102739,"SoundDuration":102739,"Delta":67760019},{"NoteNumber":67,"Velocity":40,"Duration":102739,"SoundDuration":102739,"Delta":67760019},{"NoteNumber":77,"Velocity":51,"Duration":102739,"SoundDuration":102739,"Delta":67897005},{"NoteNumber":69,"Velocity":38,"Duration":102739,"SoundDuration":102739,"Delta":67897005},{"NoteNumber":75,"Velocity":51,"Duration":104166,"SoundDuration":104166,"Delta":68033991},{"NoteNumber":67,"Velocity":38,"Duration":104166,"SoundDuration":104166,"Delta":68033991},{"NoteNumber":74,"Velocity":51,"Duration":104166,"SoundDuration":104166,"Delta":68172880},{"NoteNumber":65,"Velocity":38,"Duration":104166,"SoundDuration":104166,"Delta":68172880},{"NoteNumber":72,"Velocity":53,"Duration":100896,"SoundDuration":100896,"Delta":68311769},{"NoteNumber":63,"Velocity":40,"Duration":100896,"SoundDuration":100896,"Delta":68311769},{"NoteNumber":74,"Velocity":49,"Duration":100896,"SoundDuration":100896,"Delta":68446298},{"NoteNumber":65,"Velocity":37,"Duration":100896,"SoundDuration":100896,"Delta":68446298},{"NoteNumber":72,"Velocity":49,"Duration":102739,"SoundDuration":102739,"Delta":68580828},{"NoteNumber":63,"Velocity":37,"Duration":102739,"SoundDuration":102739,"Delta":68580828},{"NoteNumber":70,"Velocity":49,"Duration":102739,"SoundDuration":102739,"Delta":68717814},{"NoteNumber":62,"Velocity":37,"Duration":102739,"SoundDuration":102739,"Delta":68717814},{"NoteNumber":69,"Velocity":46,"Duration":100896,"SoundDuration":100896,"Delta":68854800},{"NoteNumber":60,"Velocity":34,"Duration":100896,"SoundDuration":100896,"Delta":68854800},{"NoteNumber":70,"Velocity":48,"Duration":100896,"SoundDuration":100896,"Delta":68989329},{"NoteNumber":62,"Velocity":36,"Duration":100896,"SoundDuration":100896,"Delta":68989329},{"NoteNumber":72,"Velocity":49,"Duration":102272,"SoundDuration":102272,"Delta":69123859},{"NoteNumber":63,"Velocity":37,"Duration":102272,"SoundDuration":102272,"Delta":69123859},{"NoteNumber":74,"Velocity":51,"Duration":102272,"SoundDuration":102272,"Delta":69260222},{"NoteNumber":65,"Velocity":38,"Duration":102272,"SoundDuration":102272,"Delta":69260222},{"NoteNumber":72,"Velocity":53,"Duration":100446,"SoundDuration":100446,"Delta":69396586},{"NoteNumber":63,"Velocity":40,"Duration":100446,"SoundDuration":100446,"Delta":69396586},{"NoteNumber":74,"Velocity":50,"Duration":100446,"SoundDuration":100446,"Delta":69530515},{"NoteNumber":65,"Velocity":37,"Duration":100446,"SoundDuration":100446,"Delta":69530515},{"NoteNumber":72,"Velocity":50,"Duration":102272,"SoundDuration":102272,"Delta":69664443},{"NoteNumber":63,"Velocity":37,"Duration":102272,"SoundDuration":102272,"Delta":69664443},{"NoteNumber":70,"Velocity":50,"Duration":102221,"SoundDuration":102221,"Delta":69800807},{"NoteNumber":62,"Velocity":37,"Duration":102221,"SoundDuration":102221,"Delta":69800807},{"NoteNumber":69,"Velocity":53,"Duration":101809,"SoundDuration":101809,"Delta":69936965},{"NoteNumber":60,"Velocity":40,"Duration":101809,"SoundDuration":101809,"Delta":69936965},{"NoteNumber":70,"Velocity":50,"Duration":101351,"SoundDuration":101351,"Delta":70072711},{"NoteNumber":62,"Velocity":37,"Duration":101351,"SoundDuration":101351,"Delta":70072711},{"NoteNumber":69,"Velocity":50,"Duration":100896,"SoundDuration":100896,"Delta":70207847},{"NoteNumber":60,"Velocity":37,"Duration":100896,"SoundDuration":100896,"Delta":70207847},{"NoteNumber":67,"Velocity":50,"Duration":100646,"SoundDuration":100646,"Delta":70342376},{"NoteNumber":58,"Velocity":37,"Duration":100646,"SoundDuration":100646,"Delta":70342376},{"NoteNumber":66,"Velocity":48,"Duration":100198,"SoundDuration":100198,"Delta":70476505},{"NoteNumber":57,"Velocity":36,"Duration":100198,"SoundDuration":100198,"Delta":70476505},{"NoteNumber":67,"Velocity":49,"Duration":99950,"SoundDuration":99950,"Delta":70610036},{"NoteNumber":58,"Velocity":37,"Duration":99950,"SoundDuration":99950,"Delta":70610036},{"NoteNumber":69,"Velocity":51,"Duration":99508,"SoundDuration":99508,"Delta":70743173},{"NoteNumber":60,"Velocity":38,"Duration":99508,"SoundDuration":99508,"Delta":70743173},{"NoteNumber":70,"Velocity":53,"Duration":99070,"SoundDuration":99070,"Delta":70875721},{"NoteNumber":62,"Velocity":40,"Duration":99070,"SoundDuration":99070,"Delta":70875721},{"NoteNumber":72,"Velocity":53,"Duration":98492,"SoundDuration":98492,"Delta":71007687},{"NoteNumber":63,"Velocity":40,"Duration":98492,"SoundDuration":98492,"Delta":71007687},{"NoteNumber":70,"Velocity":51,"Duration":99411,"SoundDuration":99411,"Delta":71139074},{"NoteNumber":62,"Velocity":38,"Duration":99411,"SoundDuration":99411,"Delta":71139074},{"NoteNumber":69,"Velocity":51,"Duration":100298,"SoundDuration":100298,"Delta":71271819},{"NoteNumber":60,"Velocity":38,"Duration":100298,"SoundDuration":100298,"Delta":71271819},{"NoteNumber":67,"Velocity":51,"Duration":101402,"SoundDuration":101402,"Delta":71405749},{"NoteNumber":58,"Velocity":38,"Duration":101402,"SoundDuration":101402,"Delta":71405749},{"NoteNumber":65,"Velocity":53,"Duration":102532,"SoundDuration":102532,"Delta":71541088},{"NoteNumber":57,"Velocity":40,"Duration":102532,"SoundDuration":102532,"Delta":71541088},{"NoteNumber":67,"Velocity":51,"Duration":103528,"SoundDuration":103528,"Delta":71677867},{"NoteNumber":58,"Velocity":38,"Duration":103528,"SoundDuration":103528,"Delta":71677867},{"NoteNumber":65,"Velocity":51,"Duration":104435,"SoundDuration":104435,"Delta":71816118},{"NoteNumber":57,"Velocity":38,"Duration":104435,"SoundDuration":104435,"Delta":71816118},{"NoteNumber":63,"Velocity":51,"Duration":105432,"SoundDuration":105432,"Delta":71955438},{"NoteNumber":55,"Velocity":38,"Duration":105432,"SoundDuration":105432,"Delta":71955438},{"NoteNumber":62,"Velocity":73,"Duration":292682,"SoundDuration":292682,"Delta":72096134},{"NoteNumber":66,"Velocity":73,"Duration":292682,"SoundDuration":292682,"Delta":72096134},{"NoteNumber":69,"Velocity":73,"Duration":292682,"SoundDuration":292682,"Delta":72096134},{"NoteNumber":74,"Velocity":86,"Duration":292682,"SoundDuration":292682,"Delta":72096134},{"NoteNumber":38,"Velocity":58,"Duration":292682,"SoundDuration":292682,"Delta":72096134},{"NoteNumber":50,"Velocity":69,"Duration":292682,"SoundDuration":292682,"Delta":72096134},{"NoteNumber":66,"Velocity":74,"Duration":284360,"SoundDuration":284360,"Delta":72388817},{"NoteNumber":69,"Velocity":74,"Duration":284360,"SoundDuration":284360,"Delta":72388817},{"NoteNumber":74,"Velocity":74,"Duration":284360,"SoundDuration":284360,"Delta":72388817},{"NoteNumber":78,"Velocity":89,"Duration":284360,"SoundDuration":284360,"Delta":72388817},{"NoteNumber":62,"Velocity":69,"Duration":284360,"SoundDuration":284360,"Delta":72388817},{"NoteNumber":50,"Velocity":58,"Duration":284360,"SoundDuration":284360,"Delta":72388817},{"NoteNumber":69,"Velocity":75,"Duration":284359,"SoundDuration":284359,"Delta":72673177},{"NoteNumber":74,"Velocity":75,"Duration":284359,"SoundDuration":284359,"Delta":72673177},{"NoteNumber":78,"Velocity":75,"Duration":284359,"SoundDuration":284359,"Delta":72673177},{"NoteNumber":81,"Velocity":90,"Duration":284359,"SoundDuration":284359,"Delta":72673177},{"NoteNumber":45,"Velocity":60,"Duration":284359,"SoundDuration":284359,"Delta":72673177},{"NoteNumber":57,"Velocity":72,"Duration":284359,"SoundDuration":284359,"Delta":72673177},{"NoteNumber":86,"Velocity":94,"Duration":289855,"SoundDuration":289855,"Delta":72957537},{"NoteNumber":81,"Velocity":80,"Duration":289855,"SoundDuration":289855,"Delta":72957537},{"NoteNumber":78,"Velocity":80,"Duration":289855,"SoundDuration":289855,"Delta":72957537},{"NoteNumber":74,"Velocity":80,"Duration":289855,"SoundDuration":289855,"Delta":72957537},{"NoteNumber":42,"Velocity":58,"Duration":289855,"SoundDuration":289855,"Delta":72957537},{"NoteNumber":54,"Velocity":69,"Duration":289855,"SoundDuration":289855,"Delta":72957537},{"NoteNumber":87,"Velocity":80,"Duration":289855,"SoundDuration":289855,"Delta":73247392},{"NoteNumber":91,"Velocity":80,"Duration":289855,"SoundDuration":289855,"Delta":73247392},{"NoteNumber":94,"Velocity":89,"Duration":289855,"SoundDuration":289855,"Delta":73247392},{"NoteNumber":99,"Velocity":106,"Duration":289855,"SoundDuration":289855,"Delta":73247392},{"NoteNumber":37,"Velocity":68,"Duration":289855,"SoundDuration":289855,"Delta":73247392},{"NoteNumber":49,"Velocity":81,"Duration":289855,"SoundDuration":289855,"Delta":73247392},{"NoteNumber":63,"Velocity":73,"Duration":291121,"SoundDuration":291121,"Delta":73537247},{"NoteNumber":67,"Velocity":73,"Duration":291121,"SoundDuration":291121,"Delta":73537247},{"NoteNumber":70,"Velocity":73,"Duration":291121,"SoundDuration":291121,"Delta":73537247},{"NoteNumber":75,"Velocity":88,"Duration":291121,"SoundDuration":291121,"Delta":73537247},{"NoteNumber":49,"Velocity":58,"Duration":291121,"SoundDuration":291121,"Delta":73537247},{"NoteNumber":55,"Velocity":58,"Duration":291121,"SoundDuration":291121,"Delta":73537247},{"NoteNumber":61,"Velocity":69,"Duration":291121,"SoundDuration":291121,"Delta":73537247},{"NoteNumber":62,"Velocity":73,"Duration":292682,"SoundDuration":292682,"Delta":73828368},{"NoteNumber":66,"Velocity":73,"Duration":292682,"SoundDuration":292682,"Delta":73828368},{"NoteNumber":69,"Velocity":73,"Duration":292682,"SoundDuration":292682,"Delta":73828368},{"NoteNumber":74,"Velocity":86,"Duration":292682,"SoundDuration":292682,"Delta":73828368},{"NoteNumber":38,"Velocity":58,"Duration":292682,"SoundDuration":292682,"Delta":73828368},{"NoteNumber":50,"Velocity":69,"Duration":292682,"SoundDuration":292682,"Delta":73828368},{"NoteNumber":66,"Velocity":74,"Duration":292682,"SoundDuration":292682,"Delta":74121051},{"NoteNumber":69,"Velocity":74,"Duration":292682,"SoundDuration":292682,"Delta":74121051},{"NoteNumber":74,"Velocity":74,"Duration":292682,"SoundDuration":292682,"Delta":74121051},{"NoteNumber":78,"Velocity":89,"Duration":292682,"SoundDuration":292682,"Delta":74121051},{"NoteNumber":62,"Velocity":69,"Duration":292682,"SoundDuration":292682,"Delta":74121051},{"NoteNumber":50,"Velocity":58,"Duration":292682,"SoundDuration":292682,"Delta":74121051},{"NoteNumber":69,"Velocity":75,"Duration":298507,"SoundDuration":298507,"Delta":74413734},{"NoteNumber":74,"Velocity":75,"Duration":298507,"SoundDuration":298507,"Delta":74413734},{"NoteNumber":78,"Velocity":75,"Duration":298507,"SoundDuration":298507,"Delta":74413734},{"NoteNumber":81,"Velocity":90,"Duration":298507,"SoundDuration":298507,"Delta":74413734},{"NoteNumber":45,"Velocity":60,"Duration":298507,"SoundDuration":298507,"Delta":74413734},{"NoteNumber":57,"Velocity":72,"Duration":298507,"SoundDuration":298507,"Delta":74413734},{"NoteNumber":86,"Velocity":94,"Duration":303582,"SoundDuration":303582,"Delta":74712241},{"NoteNumber":81,"Velocity":80,"Duration":303582,"SoundDuration":303582,"Delta":74712241},{"NoteNumber":78,"Velocity":80,"Duration":303582,"SoundDuration":303582,"Delta":74712241},{"NoteNumber":74,"Velocity":80,"Duration":303582,"SoundDuration":303582,"Delta":74712241},{"NoteNumber":42,"Velocity":58,"Duration":303582,"SoundDuration":303582,"Delta":74712241},{"NoteNumber":54,"Velocity":69,"Duration":303582,"SoundDuration":303582,"Delta":74712241},{"NoteNumber":87,"Velocity":80,"Duration":303582,"SoundDuration":303582,"Delta":75015824},{"NoteNumber":91,"Velocity":80,"Duration":303582,"SoundDuration":303582,"Delta":75015824},{"NoteNumber":94,"Velocity":89,"Duration":303582,"SoundDuration":303582,"Delta":75015824},{"NoteNumber":99,"Velocity":106,"Duration":303582,"SoundDuration":303582,"Delta":75015824},{"NoteNumber":37,"Velocity":68,"Duration":303582,"SoundDuration":303582,"Delta":75015824},{"NoteNumber":49,"Velocity":81,"Duration":303582,"SoundDuration":303582,"Delta":75015824},{"NoteNumber":63,"Velocity":73,"Duration":303582,"SoundDuration":303582,"Delta":75319406},{"NoteNumber":67,"Velocity":73,"Duration":303582,"SoundDuration":303582,"Delta":75319406},{"NoteNumber":70,"Velocity":73,"Duration":303582,"SoundDuration":303582,"Delta":75319406},{"NoteNumber":75,"Velocity":88,"Duration":303582,"SoundDuration":303582,"Delta":75319406},{"NoteNumber":49,"Velocity":58,"Duration":303582,"SoundDuration":303582,"Delta":75319406},{"NoteNumber":55,"Velocity":58,"Duration":303582,"SoundDuration":303582,"Delta":75319406},{"NoteNumber":61,"Velocity":69,"Duration":303582,"SoundDuration":303582,"Delta":75319406},{"NoteNumber":57,"Velocity":72,"Duration":277777,"SoundDuration":277777,"Delta":75622989},{"NoteNumber":62,"Velocity":72,"Duration":277777,"SoundDuration":277777,"Delta":75622989},{"NoteNumber":66,"Velocity":72,"Duration":277777,"SoundDuration":277777,"Delta":75622989},{"NoteNumber":38,"Velocity":51,"Duration":823233,"SoundDuration":823233,"Delta":75622989},{"NoteNumber":50,"Velocity":61,"Duration":823233,"SoundDuration":823233,"Delta":75622989},{"NoteNumber":57,"Velocity":67,"Duration":136363,"SoundDuration":136363,"Delta":75900767},{"NoteNumber":62,"Velocity":67,"Duration":136363,"SoundDuration":136363,"Delta":75900767},{"NoteNumber":66,"Velocity":67,"Duration":272727,"SoundDuration":272727,"Delta":75900767},{"NoteNumber":61,"Velocity":67,"Duration":136363,"SoundDuration":136363,"Delta":76037131},{"NoteNumber":60,"Velocity":72,"Duration":272727,"SoundDuration":272727,"Delta":76173494},{"NoteNumber":66,"Velocity":72,"Duration":272727,"SoundDuration":272727,"Delta":76173494},{"NoteNumber":59,"Velocity":67,"Duration":136363,"SoundDuration":136363,"Delta":76446222},{"NoteNumber":66,"Velocity":67,"Duration":272727,"SoundDuration":272727,"Delta":76446222},{"NoteNumber":33,"Velocity":44,"Duration":272727,"SoundDuration":272727,"Delta":76446222},{"NoteNumber":45,"Velocity":52,"Duration":272727,"SoundDuration":272727,"Delta":76446222},{"NoteNumber":58,"Velocity":72,"Duration":136363,"SoundDuration":136363,"Delta":76582586},{"NoteNumber":57,"Velocity":75,"Duration":272727,"SoundDuration":272727,"Delta":76718949},{"NoteNumber":61,"Velocity":75,"Duration":272727,"SoundDuration":272727,"Delta":76718949},{"NoteNumber":67,"Velocity":75,"Duration":272727,"SoundDuration":272727,"Delta":76718949},{"NoteNumber":40,"Velocity":48,"Duration":272727,"SoundDuration":272727,"Delta":76718949},{"NoteNumber":52,"Velocity":58,"Duration":272727,"SoundDuration":272727,"Delta":76718949},{"NoteNumber":61,"Velocity":69,"Duration":142938,"SoundDuration":142938,"Delta":76991677},{"NoteNumber":67,"Velocity":69,"Duration":285877,"SoundDuration":285877,"Delta":76991677},{"NoteNumber":33,"Velocity":53,"Duration":285877,"SoundDuration":285877,"Delta":76991677},{"NoteNumber":45,"Velocity":64,"Duration":285877,"SoundDuration":285877,"Delta":76991677},{"NoteNumber":57,"Velocity":69,"Duration":142938,"SoundDuration":142938,"Delta":77134616},{"NoteNumber":57,"Velocity":79,"Duration":271493,"SoundDuration":271493,"Delta":77277554},{"NoteNumber":62,"Velocity":79,"Duration":271493,"SoundDuration":271493,"Delta":77277554},{"NoteNumber":66,"Velocity":79,"Duration":271493,"SoundDuration":271493,"Delta":77277554},{"NoteNumber":38,"Velocity":57,"Duration":814479,"SoundDuration":814479,"Delta":77277554},{"NoteNumber":50,"Velocity":68,"Duration":814479,"SoundDuration":814479,"Delta":77277554},{"NoteNumber":57,"Velocity":72,"Duration":135746,"SoundDuration":135746,"Delta":77549047},{"NoteNumber":62,"Velocity":72,"Duration":135746,"SoundDuration":135746,"Delta":77549047},{"NoteNumber":66,"Velocity":72,"Duration":271492,"SoundDuration":271492,"Delta":77549047},{"NoteNumber":61,"Velocity":72,"Duration":135746,"SoundDuration":135746,"Delta":77684794},{"NoteNumber":60,"Velocity":77,"Duration":271493,"SoundDuration":271493,"Delta":77820540},{"NoteNumber":66,"Velocity":77,"Duration":271493,"SoundDuration":271493,"Delta":77820540},{"NoteNumber":59,"Velocity":67,"Duration":140003,"SoundDuration":140003,"Delta":78092033},{"NoteNumber":66,"Velocity":67,"Duration":280007,"SoundDuration":280007,"Delta":78092033},{"NoteNumber":33,"Velocity":55,"Duration":280007,"SoundDuration":280007,"Delta":78092033},{"NoteNumber":45,"Velocity":66,"Duration":280007,"SoundDuration":280007,"Delta":78092033},{"NoteNumber":58,"Velocity":68,"Duration":140003,"SoundDuration":140003,"Delta":78232037},{"NoteNumber":57,"Velocity":75,"Duration":284683,"SoundDuration":284683,"Delta":78372041},{"NoteNumber":61,"Velocity":75,"Duration":284683,"SoundDuration":284683,"Delta":78372041},{"NoteNumber":67,"Velocity":75,"Duration":284683,"SoundDuration":284683,"Delta":78372041},{"NoteNumber":40,"Velocity":51,"Duration":284683,"SoundDuration":284683,"Delta":78372041},{"NoteNumber":52,"Velocity":61,"Duration":284683,"SoundDuration":284683,"Delta":78372041},{"NoteNumber":61,"Velocity":68,"Duration":148500,"SoundDuration":148500,"Delta":78656725},{"NoteNumber":67,"Velocity":68,"Duration":297000,"SoundDuration":297000,"Delta":78656725},{"NoteNumber":33,"Velocity":48,"Duration":297000,"SoundDuration":297000,"Delta":78656725},{"NoteNumber":45,"Velocity":57,"Duration":297000,"SoundDuration":297000,"Delta":78656725},{"NoteNumber":57,"Velocity":68,"Duration":148500,"SoundDuration":148500,"Delta":78805225},{"NoteNumber":57,"Velocity":68,"Duration":585490,"SoundDuration":585490,"Delta":78953725},{"NoteNumber":62,"Velocity":68,"Duration":585490,"SoundDuration":585490,"Delta":78953725},{"NoteNumber":66,"Velocity":68,"Duration":585490,"SoundDuration":585490,"Delta":78953725},{"NoteNumber":38,"Velocity":57,"Duration":297000,"SoundDuration":297000,"Delta":78953725},{"NoteNumber":50,"Velocity":60,"Duration":144244,"SoundDuration":144244,"Delta":79250726},{"NoteNumber":50,"Velocity":61,"Duration":144244,"SoundDuration":144244,"Delta":79394971},{"NoteNumber":50,"Velocity":61,"Duration":143595,"SoundDuration":143595,"Delta":79539215},{"NoteNumber":50,"Velocity":62,"Duration":143595,"SoundDuration":143595,"Delta":79682811},{"NoteNumber":50,"Velocity":63,"Duration":142952,"SoundDuration":142952,"Delta":79826407},{"NoteNumber":50,"Velocity":64,"Duration":142952,"SoundDuration":142952,"Delta":79969359},{"NoteNumber":50,"Velocity":66,"Duration":142314,"SoundDuration":142314,"Delta":80112312},{"NoteNumber":50,"Velocity":67,"Duration":141895,"SoundDuration":141895,"Delta":80254627},{"NoteNumber":50,"Velocity":68,"Duration":144922,"SoundDuration":144922,"Delta":80396523},{"NoteNumber":50,"Velocity":68,"Duration":147273,"SoundDuration":147273,"Delta":80541445},{"NoteNumber":72,"Velocity":75,"Duration":280846,"SoundDuration":280846,"Delta":80688718},{"NoteNumber":74,"Velocity":75,"Duration":280846,"SoundDuration":280846,"Delta":80688718},{"NoteNumber":78,"Velocity":75,"Duration":280846,"SoundDuration":280846,"Delta":80688718},{"NoteNumber":81,"Velocity":75,"Duration":280846,"SoundDuration":280846,"Delta":80688718},{"NoteNumber":86,"Velocity":90,"Duration":280846,"SoundDuration":280846,"Delta":80688718},{"NoteNumber":38,"Velocity":57,"Duration":280846,"SoundDuration":280846,"Delta":80688718},{"NoteNumber":50,"Velocity":68,"Duration":280846,"SoundDuration":280846,"Delta":80688718},{"NoteNumber":72,"Velocity":70,"Duration":140423,"SoundDuration":140423,"Delta":80969565},{"NoteNumber":74,"Velocity":70,"Duration":140423,"SoundDuration":140423,"Delta":80969565},{"NoteNumber":78,"Velocity":70,"Duration":140423,"SoundDuration":140423,"Delta":80969565},{"NoteNumber":81,"Velocity":70,"Duration":140423,"SoundDuration":140423,"Delta":80969565},{"NoteNumber":86,"Velocity":84,"Duration":140423,"SoundDuration":140423,"Delta":80969565},{"NoteNumber":38,"Velocity":52,"Duration":140423,"SoundDuration":140423,"Delta":80969565},{"NoteNumber":50,"Velocity":62,"Duration":140423,"SoundDuration":140423,"Delta":80969565},{"NoteNumber":72,"Velocity":70,"Duration":140423,"SoundDuration":140423,"Delta":81109988},{"NoteNumber":74,"Velocity":70,"Duration":140423,"SoundDuration":140423,"Delta":81109988},{"NoteNumber":78,"Velocity":70,"Duration":140423,"SoundDuration":140423,"Delta":81109988},{"NoteNumber":81,"Velocity":70,"Duration":140423,"SoundDuration":140423,"Delta":81109988},{"NoteNumber":86,"Velocity":84,"Duration":140423,"SoundDuration":140423,"Delta":81109988},{"NoteNumber":38,"Velocity":52,"Duration":140423,"SoundDuration":140423,"Delta":81109988},{"NoteNumber":50,"Velocity":62,"Duration":140423,"SoundDuration":140423,"Delta":81109988},{"NoteNumber":72,"Velocity":75,"Duration":281480,"SoundDuration":281480,"Delta":81250411},{"NoteNumber":74,"Velocity":75,"Duration":281480,"SoundDuration":281480,"Delta":81250411},{"NoteNumber":78,"Velocity":75,"Duration":281480,"SoundDuration":281480,"Delta":81250411},{"NoteNumber":81,"Velocity":75,"Duration":281480,"SoundDuration":281480,"Delta":81250411},{"NoteNumber":86,"Velocity":90,"Duration":281480,"SoundDuration":281480,"Delta":81250411},{"NoteNumber":38,"Velocity":57,"Duration":281480,"SoundDuration":281480,"Delta":81250411},{"NoteNumber":50,"Velocity":68,"Duration":281480,"SoundDuration":281480,"Delta":81250411},{"NoteNumber":72,"Velocity":67,"Duration":141893,"SoundDuration":141893,"Delta":81531891},{"NoteNumber":74,"Velocity":67,"Duration":141893,"SoundDuration":141893,"Delta":81531891},{"NoteNumber":78,"Velocity":67,"Duration":141893,"SoundDuration":141893,"Delta":81531891},{"NoteNumber":81,"Velocity":67,"Duration":141893,"SoundDuration":141893,"Delta":81531891},{"NoteNumber":86,"Velocity":80,"Duration":141893,"SoundDuration":141893,"Delta":81531891},{"NoteNumber":38,"Velocity":51,"Duration":141893,"SoundDuration":141893,"Delta":81531891},{"NoteNumber":50,"Velocity":61,"Duration":141893,"SoundDuration":141893,"Delta":81531891},{"NoteNumber":72,"Velocity":67,"Duration":142527,"SoundDuration":142527,"Delta":81673785},{"NoteNumber":74,"Velocity":67,"Duration":142527,"SoundDuration":142527,"Delta":81673785},{"NoteNumber":78,"Velocity":67,"Duration":142527,"SoundDuration":142527,"Delta":81673785},{"NoteNumber":81,"Velocity":67,"Duration":142527,"SoundDuration":142527,"Delta":81673785},{"NoteNumber":86,"Velocity":80,"Duration":142527,"SoundDuration":142527,"Delta":81673785},{"NoteNumber":38,"Velocity":51,"Duration":142527,"SoundDuration":142527,"Delta":81673785},{"NoteNumber":50,"Velocity":61,"Duration":142527,"SoundDuration":142527,"Delta":81673785},{"NoteNumber":72,"Velocity":75,"Duration":287409,"SoundDuration":287409,"Delta":81816313},{"NoteNumber":74,"Velocity":75,"Duration":287409,"SoundDuration":287409,"Delta":81816313},{"NoteNumber":78,"Velocity":75,"Duration":287409,"SoundDuration":287409,"Delta":81816313},{"NoteNumber":81,"Velocity":75,"Duration":287409,"SoundDuration":287409,"Delta":81816313},{"NoteNumber":86,"Velocity":90,"Duration":287409,"SoundDuration":287409,"Delta":81816313},{"NoteNumber":38,"Velocity":57,"Duration":287409,"SoundDuration":287409,"Delta":81816313},{"NoteNumber":50,"Velocity":68,"Duration":287409,"SoundDuration":287409,"Delta":81816313},{"NoteNumber":72,"Velocity":68,"Duration":144899,"SoundDuration":144899,"Delta":82103723},{"NoteNumber":74,"Velocity":68,"Duration":144899,"SoundDuration":144899,"Delta":82103723},{"NoteNumber":78,"Velocity":68,"Duration":144899,"SoundDuration":144899,"Delta":82103723},{"NoteNumber":81,"Velocity":68,"Duration":144899,"SoundDuration":144899,"Delta":82103723},{"NoteNumber":86,"Velocity":81,"Duration":144899,"SoundDuration":144899,"Delta":82103723},{"NoteNumber":38,"Velocity":51,"Duration":144899,"SoundDuration":144899,"Delta":82103723},{"NoteNumber":50,"Velocity":61,"Duration":144899,"SoundDuration":144899,"Delta":82103723},{"NoteNumber":72,"Velocity":68,"Duration":111552,"SoundDuration":111552,"Delta":82248622},{"NoteNumber":74,"Velocity":68,"Duration":111552,"SoundDuration":111552,"Delta":82248622},{"NoteNumber":78,"Velocity":68,"Duration":111552,"SoundDuration":111552,"Delta":82248622},{"NoteNumber":81,"Velocity":68,"Duration":111552,"SoundDuration":111552,"Delta":82248622},{"NoteNumber":86,"Velocity":81,"Duration":111552,"SoundDuration":111552,"Delta":82248622},{"NoteNumber":38,"Velocity":51,"Duration":111552,"SoundDuration":111552,"Delta":82248622},{"NoteNumber":50,"Velocity":61,"Duration":111552,"SoundDuration":111552,"Delta":82248622},{"NoteNumber":43,"Velocity":57,"Duration":952425,"SoundDuration":952425,"Delta":82360174},{"NoteNumber":50,"Velocity":57,"Duration":933528,"SoundDuration":933528,"Delta":82379071},{"NoteNumber":55,"Velocity":68,"Duration":913894,"SoundDuration":913894,"Delta":82398705},{"NoteNumber":74,"Velocity":77,"Duration":345687,"SoundDuration":345687,"Delta":82418968},{"NoteNumber":79,"Velocity":77,"Duration":324771,"SoundDuration":324771,"Delta":82439883},{"NoteNumber":83,"Velocity":77,"Duration":303150,"SoundDuration":303150,"Delta":82461504},{"NoteNumber":86,"Velocity":91,"Duration":280559,"SoundDuration":280559,"Delta":82484095},{"NoteNumber":91,"Velocity":91,"Duration":257130,"SoundDuration":257130,"Delta":82507524},{"NoteNumber":62,"Velocity":61,"Duration":136986,"SoundDuration":136986,"Delta":82764655},{"NoteNumber":67,"Velocity":67,"Duration":136986,"SoundDuration":136986,"Delta":82764655},{"NoteNumber":71,"Velocity":61,"Duration":273972,"SoundDuration":273972,"Delta":82764655},{"NoteNumber":66,"Velocity":67,"Duration":136986,"SoundDuration":136986,"Delta":82901641},{"NoteNumber":65,"Velocity":71,"Duration":273972,"SoundDuration":273972,"Delta":83038627},{"NoteNumber":71,"Velocity":64,"Duration":273972,"SoundDuration":273972,"Delta":83038627},{"NoteNumber":64,"Velocity":64,"Duration":135135,"SoundDuration":135135,"Delta":83312600},{"NoteNumber":71,"Velocity":59,"Duration":270270,"SoundDuration":270270,"Delta":83312600},{"NoteNumber":38,"Velocity":39,"Duration":270270,"SoundDuration":270270,"Delta":83312600},{"NoteNumber":50,"Velocity":47,"Duration":270270,"SoundDuration":270270,"Delta":83312600},{"NoteNumber":63,"Velocity":69,"Duration":135135,"SoundDuration":135135,"Delta":83447735},{"NoteNumber":62,"Velocity":72,"Duration":270270,"SoundDuration":270270,"Delta":83582870},{"NoteNumber":66,"Velocity":66,"Duration":270270,"SoundDuration":270270,"Delta":83582870},{"NoteNumber":72,"Velocity":66,"Duration":270270,"SoundDuration":270270,"Delta":83582870},{"NoteNumber":45,"Velocity":42,"Duration":270270,"SoundDuration":270270,"Delta":83582870},{"NoteNumber":57,"Velocity":51,"Duration":270270,"SoundDuration":270270,"Delta":83582870},{"NoteNumber":66,"Velocity":64,"Duration":138581,"SoundDuration":138581,"Delta":83853141},{"NoteNumber":72,"Velocity":60,"Duration":277162,"SoundDuration":277162,"Delta":83853141},{"NoteNumber":38,"Velocity":46,"Duration":277162,"SoundDuration":277162,"Delta":83853141},{"NoteNumber":50,"Velocity":55,"Duration":277162,"SoundDuration":277162,"Delta":83853141},{"NoteNumber":62,"Velocity":64,"Duration":138581,"SoundDuration":138581,"Delta":83991722},{"NoteNumber":62,"Velocity":67,"Duration":272727,"SoundDuration":272727,"Delta":84130303},{"NoteNumber":67,"Velocity":72,"Duration":272727,"SoundDuration":272727,"Delta":84130303},{"NoteNumber":71,"Velocity":67,"Duration":272727,"SoundDuration":272727,"Delta":84130303},{"NoteNumber":43,"Velocity":48,"Duration":808441,"SoundDuration":808441,"Delta":84130303},{"NoteNumber":55,"Velocity":58,"Duration":808441,"SoundDuration":808441,"Delta":84130303},{"NoteNumber":62,"Velocity":60,"Duration":133928,"SoundDuration":133928,"Delta":84403030},{"NoteNumber":67,"Velocity":66,"Duration":133928,"SoundDuration":133928,"Delta":84403030},{"NoteNumber":71,"Velocity":60,"Duration":267857,"SoundDuration":267857,"Delta":84403030},{"NoteNumber":66,"Velocity":64,"Duration":133928,"SoundDuration":133928,"Delta":84536959},{"NoteNumber":65,"Velocity":69,"Duration":267856,"SoundDuration":267856,"Delta":84670887},{"NoteNumber":71,"Velocity":63,"Duration":267856,"SoundDuration":267856,"Delta":84670887},{"NoteNumber":64,"Velocity":59,"Duration":135734,"SoundDuration":135734,"Delta":84938744},{"NoteNumber":71,"Velocity":53,"Duration":271468,"SoundDuration":271468,"Delta":84938744},{"NoteNumber":38,"Velocity":45,"Duration":271468,"SoundDuration":271468,"Delta":84938744},{"NoteNumber":50,"Velocity":52,"Duration":271468,"SoundDuration":271468,"Delta":84938744},{"NoteNumber":63,"Velocity":59,"Duration":135734,"SoundDuration":135734,"Delta":85074478},{"NoteNumber":62,"Velocity":66,"Duration":275988,"SoundDuration":275988,"Delta":85210213},{"NoteNumber":66,"Velocity":60,"Duration":275988,"SoundDuration":275988,"Delta":85210213},{"NoteNumber":72,"Velocity":60,"Duration":275988,"SoundDuration":275988,"Delta":85210213},{"NoteNumber":45,"Velocity":40,"Duration":275988,"SoundDuration":275988,"Delta":85210213},{"NoteNumber":57,"Velocity":48,"Duration":275988,"SoundDuration":275988,"Delta":85210213},{"NoteNumber":66,"Velocity":58,"Duration":145630,"SoundDuration":145630,"Delta":85486202},{"NoteNumber":72,"Velocity":52,"Duration":291262,"SoundDuration":291262,"Delta":85486202},{"NoteNumber":38,"Velocity":37,"Duration":291262,"SoundDuration":291262,"Delta":85486202},{"NoteNumber":50,"Velocity":44,"Duration":291262,"SoundDuration":291262,"Delta":85486202},{"NoteNumber":62,"Velocity":57,"Duration":145631,"SoundDuration":145631,"Delta":85631833},{"NoteNumber":67,"Velocity":49,"Duration":1098115,"SoundDuration":1098115,"Delta":85777464},{"NoteNumber":71,"Velocity":49,"Duration":1098115,"SoundDuration":1098115,"Delta":85777464},{"NoteNumber":74,"Velocity":58,"Duration":1098115,"SoundDuration":1098115,"Delta":85777464},{"NoteNumber":79,"Velocity":75,"Duration":1098115,"SoundDuration":1098115,"Delta":85777464},{"NoteNumber":43,"Velocity":39,"Duration":1098115,"SoundDuration":1098115,"Delta":85777464},{"NoteNumber":55,"Velocity":47,"Duration":1098115,"SoundDuration":1098115,"Delta":85777464},{"NoteNumber":50,"Velocity":49,"Duration":130434,"SoundDuration":130434,"Delta":86059154},{"NoteNumber":52,"Velocity":49,"Duration":130434,"SoundDuration":130434,"Delta":86189588},{"NoteNumber":50,"Velocity":52,"Duration":138889,"SoundDuration":138889,"Delta":86320023},{"NoteNumber":50,"Velocity":49,"Duration":138889,"SoundDuration":138889,"Delta":86597801},{"NoteNumber":66,"Velocity":46,"Duration":410958,"SoundDuration":410958,"Delta":86875579},{"NoteNumber":72,"Velocity":55,"Duration":410958,"SoundDuration":410958,"Delta":86875579},{"NoteNumber":78,"Velocity":66,"Duration":410958,"SoundDuration":410958,"Delta":86875579},{"NoteNumber":43,"Velocity":39,"Duration":560108,"SoundDuration":560108,"Delta":86875579},{"NoteNumber":57,"Velocity":47,"Duration":560108,"SoundDuration":560108,"Delta":86875579},{"NoteNumber":50,"Velocity":47,"Duration":286136,"SoundDuration":286136,"Delta":87149552},{"NoteNumber":74,"Velocity":63,"Duration":149149,"SoundDuration":149149,"Delta":87286538},{"NoteNumber":76,"Velocity":69,"Duration":278862,"SoundDuration":278862,"Delta":87435688},{"NoteNumber":67,"Velocity":58,"Duration":1096426,"SoundDuration":1096426,"Delta":87435688},{"NoteNumber":71,"Velocity":58,"Duration":1096426,"SoundDuration":1096426,"Delta":87435688},{"NoteNumber":43,"Velocity":47,"Duration":1096426,"SoundDuration":1096426,"Delta":87435688},{"NoteNumber":59,"Velocity":47,"Duration":1096426,"SoundDuration":1096426,"Delta":87435688},{"NoteNumber":76,"Velocity":60,"Duration":87336,"SoundDuration":87336,"Delta":87714550},{"NoteNumber":50,"Velocity":49,"Duration":131004,"SoundDuration":131004,"Delta":87714550},{"NoteNumber":78,"Velocity":60,"Duration":87336,"SoundDuration":87336,"Delta":87801886},{"NoteNumber":52,"Velocity":49,"Duration":131004,"SoundDuration":131004,"Delta":87845554},{"NoteNumber":76,"Velocity":60,"Duration":87336,"SoundDuration":87336,"Delta":87889222},{"NoteNumber":74,"Velocity":64,"Duration":555555,"SoundDuration":555555,"Delta":87976558},{"NoteNumber":50,"Velocity":52,"Duration":138889,"SoundDuration":138889,"Delta":87976558},{"NoteNumber":50,"Velocity":49,"Duration":138889,"SoundDuration":138889,"Delta":88254336},{"NoteNumber":60,"Velocity":39,"Duration":430250,"SoundDuration":430250,"Delta":88532114},{"NoteNumber":72,"Velocity":58,"Duration":430250,"SoundDuration":430250,"Delta":88532114},{"NoteNumber":62,"Velocity":39,"Duration":430250,"SoundDuration":430250,"Delta":88532114},{"NoteNumber":66,"Velocity":39,"Duration":430250,"SoundDuration":430250,"Delta":88532114},{"NoteNumber":69,"Velocity":39,"Duration":430250,"SoundDuration":430250,"Delta":88532114},{"NoteNumber":43,"Velocity":39,"Duration":577483,"SoundDuration":577483,"Delta":88532114},{"NoteNumber":57,"Velocity":47,"Duration":577483,"SoundDuration":577483,"Delta":88532114},{"NoteNumber":50,"Velocity":40,"Duration":294464,"SoundDuration":294464,"Delta":88815133},{"NoteNumber":69,"Velocity":53,"Duration":147232,"SoundDuration":147232,"Delta":88962365},{"NoteNumber":71,"Velocity":63,"Duration":143047,"SoundDuration":143047,"Delta":89109597},{"NoteNumber":62,"Velocity":45,"Duration":862102,"SoundDuration":862102,"Delta":89109597},{"NoteNumber":67,"Velocity":45,"Duration":862102,"SoundDuration":862102,"Delta":89109597},{"NoteNumber":43,"Velocity":35,"Duration":1145121,"SoundDuration":1145121,"Delta":89109597},{"NoteNumber":55,"Velocity":41,"Duration":1145121,"SoundDuration":1145121,"Delta":89109597},{"NoteNumber":72,"Velocity":57,"Duration":143047,"SoundDuration":143047,"Delta":89252645},{"NoteNumber":74,"Velocity":60,"Duration":286095,"SoundDuration":286095,"Delta":89395693},{"NoteNumber":50,"Velocity":44,"Duration":143047,"SoundDuration":143047,"Delta":89395693},{"NoteNumber":52,"Velocity":44,"Duration":143047,"SoundDuration":143047,"Delta":89538740},{"NoteNumber":74,"Velocity":60,"Duration":572929,"SoundDuration":572929,"Delta":89681788},{"NoteNumber":50,"Velocity":47,"Duration":144955,"SoundDuration":144955,"Delta":89681788},{"NoteNumber":59,"Velocity":42,"Duration":141509,"SoundDuration":141509,"Delta":89971699},{"NoteNumber":50,"Velocity":44,"Duration":141509,"SoundDuration":141509,"Delta":89971699},{"NoteNumber":62,"Velocity":38,"Duration":141509,"SoundDuration":141509,"Delta":90113209},{"NoteNumber":60,"Velocity":42,"Duration":144147,"SoundDuration":144147,"Delta":90254718},{"NoteNumber":43,"Velocity":41,"Duration":576589,"SoundDuration":576589,"Delta":90254718},{"NoteNumber":54,"Velocity":41,"Duration":576589,"SoundDuration":576589,"Delta":90254718},{"NoteNumber":62,"Velocity":38,"Duration":144147,"SoundDuration":144147,"Delta":90398866},{"NoteNumber":60,"Velocity":42,"Duration":144147,"SoundDuration":144147,"Delta":90543013},{"NoteNumber":50,"Velocity":41,"Duration":288294,"SoundDuration":288294,"Delta":90543013},{"NoteNumber":62,"Velocity":38,"Duration":144147,"SoundDuration":144147,"Delta":90687161},{"NoteNumber":59,"Velocity":48,"Duration":295711,"SoundDuration":295711,"Delta":90831308},{"NoteNumber":43,"Velocity":39,"Duration":1176137,"SoundDuration":1176137,"Delta":90831308},{"NoteNumber":55,"Velocity":47,"Duration":1176137,"SoundDuration":1176137,"Delta":90831308},{"NoteNumber":59,"Velocity":42,"Duration":880425,"SoundDuration":880425,"Delta":91127020},{"NoteNumber":62,"Velocity":42,"Duration":147856,"SoundDuration":147856,"Delta":91127020},{"NoteNumber":50,"Velocity":49,"Duration":147856,"SoundDuration":147856,"Delta":91127020},{"NoteNumber":64,"Velocity":39,"Duration":147440,"SoundDuration":147440,"Delta":91274876},{"NoteNumber":52,"Velocity":49,"Duration":147440,"SoundDuration":147440,"Delta":91274876},{"NoteNumber":62,"Velocity":46,"Duration":144313,"SoundDuration":144313,"Delta":91422316},{"NoteNumber":50,"Velocity":52,"Duration":144313,"SoundDuration":144313,"Delta":91422316},{"NoteNumber":64,"Velocity":40,"Duration":144314,"SoundDuration":144314,"Delta":91566630},{"NoteNumber":67,"Velocity":48,"Duration":148250,"SoundDuration":148250,"Delta":91710944},{"NoteNumber":50,"Velocity":49,"Duration":148250,"SoundDuration":148250,"Delta":91710944},{"NoteNumber":64,"Velocity":44,"Duration":148250,"SoundDuration":148250,"Delta":91859195},{"NoteNumber":60,"Velocity":46,"Duration":608279,"SoundDuration":608279,"Delta":92007446},{"NoteNumber":66,"Velocity":51,"Duration":290320,"SoundDuration":290320,"Delta":92007446},{"NoteNumber":43,"Velocity":41,"Duration":608279,"SoundDuration":608279,"Delta":92007446},{"NoteNumber":57,"Velocity":47,"Duration":608279,"SoundDuration":608279,"Delta":92007446},{"NoteNumber":64,"Velocity":48,"Duration":153123,"SoundDuration":153123,"Delta":92297766},{"NoteNumber":50,"Velocity":47,"Duration":317959,"SoundDuration":317959,"Delta":92297766},{"NoteNumber":62,"Velocity":48,"Duration":164835,"SoundDuration":164835,"Delta":92450889},{"NoteNumber":67,"Velocity":53,"Duration":1094158,"SoundDuration":1094158,"Delta":92615725},{"NoteNumber":71,"Velocity":53,"Duration":1094158,"SoundDuration":1094158,"Delta":92615725},{"NoteNumber":74,"Velocity":63,"Duration":1094158,"SoundDuration":1094158,"Delta":92615725},{"NoteNumber":79,"Velocity":82,"Duration":1094158,"SoundDuration":1094158,"Delta":92615725},{"NoteNumber":43,"Velocity":42,"Duration":1094158,"SoundDuration":1094158,"Delta":92615725},{"NoteNumber":55,"Velocity":51,"Duration":1094158,"SoundDuration":1094158,"Delta":92615725},{"NoteNumber":50,"Velocity":53,"Duration":129870,"SoundDuration":129870,"Delta":92894587},{"NoteNumber":52,"Velocity":53,"Duration":129870,"SoundDuration":129870,"Delta":93024457},{"NoteNumber":50,"Velocity":57,"Duration":138889,"SoundDuration":138889,"Delta":93154327},{"NoteNumber":50,"Velocity":53,"Duration":138889,"SoundDuration":138889,"Delta":93432105},{"NoteNumber":66,"Velocity":46,"Duration":409091,"SoundDuration":409091,"Delta":93709883},{"NoteNumber":72,"Velocity":60,"Duration":409091,"SoundDuration":409091,"Delta":93709883},{"NoteNumber":78,"Velocity":68,"Duration":409091,"SoundDuration":409091,"Delta":93709883},{"NoteNumber":43,"Velocity":39,"Duration":558241,"SoundDuration":558241,"Delta":93709883},{"NoteNumber":57,"Velocity":47,"Duration":558241,"SoundDuration":558241,"Delta":93709883},{"NoteNumber":50,"Velocity":47,"Duration":285513,"SoundDuration":285513,"Delta":93982611},{"NoteNumber":74,"Velocity":66,"Duration":149149,"SoundDuration":149149,"Delta":94118974},{"NoteNumber":76,"Velocity":69,"Duration":278862,"SoundDuration":278862,"Delta":94268124},{"NoteNumber":67,"Velocity":58,"Duration":1099904,"SoundDuration":1099904,"Delta":94268124},{"NoteNumber":71,"Velocity":58,"Duration":1099904,"SoundDuration":1099904,"Delta":94268124},{"NoteNumber":43,"Velocity":47,"Duration":1099904,"SoundDuration":1099904,"Delta":94268124},{"NoteNumber":59,"Velocity":47,"Duration":1099904,"SoundDuration":1099904,"Delta":94268124},{"NoteNumber":76,"Velocity":60,"Duration":88495,"SoundDuration":88495,"Delta":94546986},{"NoteNumber":50,"Velocity":49,"Duration":132743,"SoundDuration":132743,"Delta":94546986},{"NoteNumber":78,"Velocity":60,"Duration":88495,"SoundDuration":88495,"Delta":94635482},{"NoteNumber":52,"Velocity":49,"Duration":132743,"SoundDuration":132743,"Delta":94679729},{"NoteNumber":76,"Velocity":60,"Duration":88495,"SoundDuration":88495,"Delta":94723977},{"NoteNumber":74,"Velocity":64,"Duration":555555,"SoundDuration":555555,"Delta":94812473},{"NoteNumber":50,"Velocity":52,"Duration":138889,"SoundDuration":138889,"Delta":94812473},{"NoteNumber":50,"Velocity":49,"Duration":138889,"SoundDuration":138889,"Delta":95090251},{"NoteNumber":60,"Velocity":39,"Duration":426617,"SoundDuration":426617,"Delta":95368029},{"NoteNumber":72,"Velocity":58,"Duration":426617,"SoundDuration":426617,"Delta":95368029},{"NoteNumber":62,"Velocity":39,"Duration":426617,"SoundDuration":426617,"Delta":95368029},{"NoteNumber":66,"Velocity":39,"Duration":426617,"SoundDuration":426617,"Delta":95368029},{"NoteNumber":69,"Velocity":39,"Duration":426617,"SoundDuration":426617,"Delta":95368029},{"NoteNumber":43,"Velocity":39,"Duration":571545,"SoundDuration":571545,"Delta":95368029},{"NoteNumber":57,"Velocity":47,"Duration":571545,"SoundDuration":571545,"Delta":95368029},{"NoteNumber":50,"Velocity":40,"Duration":289855,"SoundDuration":289855,"Delta":95649719},{"NoteNumber":69,"Velocity":53,"Duration":144927,"SoundDuration":144927,"Delta":95794646},{"NoteNumber":71,"Velocity":63,"Duration":143047,"SoundDuration":143047,"Delta":95939574},{"NoteNumber":62,"Velocity":45,"Duration":862102,"SoundDuration":862102,"Delta":95939574},{"NoteNumber":67,"Velocity":45,"Duration":862102,"SoundDuration":862102,"Delta":95939574},{"NoteNumber":43,"Velocity":35,"Duration":1145121,"SoundDuration":1145121,"Delta":95939574},{"NoteNumber":55,"Velocity":41,"Duration":1145121,"SoundDuration":1145121,"Delta":95939574},{"NoteNumber":72,"Velocity":57,"Duration":143047,"SoundDuration":143047,"Delta":96082621},{"NoteNumber":74,"Velocity":60,"Duration":286095,"SoundDuration":286095,"Delta":96225669},{"NoteNumber":50,"Velocity":44,"Duration":143047,"SoundDuration":143047,"Delta":96225669},{"NoteNumber":52,"Velocity":44,"Duration":143047,"SoundDuration":143047,"Delta":96368717},{"NoteNumber":74,"Velocity":60,"Duration":572929,"SoundDuration":572929,"Delta":96511765},{"NoteNumber":50,"Velocity":47,"Duration":144955,"SoundDuration":144955,"Delta":96511765},{"NoteNumber":59,"Velocity":42,"Duration":141509,"SoundDuration":141509,"Delta":96801676},{"NoteNumber":50,"Velocity":44,"Duration":141509,"SoundDuration":141509,"Delta":96801676},{"NoteNumber":62,"Velocity":38,"Duration":141509,"SoundDuration":141509,"Delta":96943185},{"NoteNumber":60,"Velocity":42,"Duration":144147,"SoundDuration":144147,"Delta":97084695},{"NoteNumber":43,"Velocity":41,"Duration":576589,"SoundDuration":576589,"Delta":97084695},{"NoteNumber":54,"Velocity":41,"Duration":576589,"SoundDuration":576589,"Delta":97084695},{"NoteNumber":62,"Velocity":38,"Duration":144147,"SoundDuration":144147,"Delta":97228842},{"NoteNumber":60,"Velocity":42,"Duration":144147,"SoundDuration":144147,"Delta":97372990},{"NoteNumber":50,"Velocity":41,"Duration":288294,"SoundDuration":288294,"Delta":97372990},{"NoteNumber":62,"Velocity":38,"Duration":144147,"SoundDuration":144147,"Delta":97517137},{"NoteNumber":59,"Velocity":48,"Duration":295711,"SoundDuration":295711,"Delta":97661285},{"NoteNumber":43,"Velocity":39,"Duration":1176137,"SoundDuration":1176137,"Delta":97661285},{"NoteNumber":55,"Velocity":47,"Duration":1176137,"SoundDuration":1176137,"Delta":97661285},{"NoteNumber":59,"Velocity":42,"Duration":880425,"SoundDuration":880425,"Delta":97956997},{"NoteNumber":62,"Velocity":42,"Duration":147856,"SoundDuration":147856,"Delta":97956997},{"NoteNumber":50,"Velocity":49,"Duration":147856,"SoundDuration":147856,"Delta":97956997},{"NoteNumber":64,"Velocity":39,"Duration":147440,"SoundDuration":147440,"Delta":98104853},{"NoteNumber":52,"Velocity":49,"Duration":147440,"SoundDuration":147440,"Delta":98104853},{"NoteNumber":62,"Velocity":46,"Duration":144313,"SoundDuration":144313,"Delta":98252293},{"NoteNumber":50,"Velocity":52,"Duration":144313,"SoundDuration":144313,"Delta":98252293},{"NoteNumber":64,"Velocity":40,"Duration":144314,"SoundDuration":144314,"Delta":98396607},{"NoteNumber":67,"Velocity":48,"Duration":148250,"SoundDuration":148250,"Delta":98540921},{"NoteNumber":50,"Velocity":49,"Duration":148250,"SoundDuration":148250,"Delta":98540921},{"NoteNumber":64,"Velocity":44,"Duration":148250,"SoundDuration":148250,"Delta":98689171},{"NoteNumber":60,"Velocity":42,"Duration":590402,"SoundDuration":590402,"Delta":98837422},{"NoteNumber":66,"Velocity":51,"Duration":290320,"SoundDuration":290320,"Delta":98837422},{"NoteNumber":43,"Velocity":39,"Duration":590402,"SoundDuration":590402,"Delta":98837422},{"NoteNumber":57,"Velocity":47,"Duration":590402,"SoundDuration":590402,"Delta":98837422},{"NoteNumber":64,"Velocity":48,"Duration":147020,"SoundDuration":147020,"Delta":99127742},{"NoteNumber":50,"Velocity":47,"Duration":300082,"SoundDuration":300082,"Delta":99127742},{"NoteNumber":62,"Velocity":48,"Duration":153061,"SoundDuration":153061,"Delta":99274763},{"NoteNumber":67,"Velocity":56,"Duration":1101084,"SoundDuration":1101084,"Delta":99427824},{"NoteNumber":74,"Velocity":66,"Duration":1101084,"SoundDuration":1101084,"Delta":99427824},{"NoteNumber":79,"Velocity":79,"Duration":1101084,"SoundDuration":1101084,"Delta":99427824},{"NoteNumber":43,"Velocity":44,"Duration":1101084,"SoundDuration":1101084,"Delta":99427824},{"NoteNumber":58,"Velocity":53,"Duration":1101084,"SoundDuration":1101084,"Delta":99427824},{"NoteNumber":50,"Velocity":56,"Duration":133333,"SoundDuration":133333,"Delta":99706686},{"NoteNumber":51,"Velocity":56,"Duration":133333,"SoundDuration":133333,"Delta":99840020},{"NoteNumber":50,"Velocity":59,"Duration":138889,"SoundDuration":138889,"Delta":99973353},{"NoteNumber":50,"Velocity":56,"Duration":138889,"SoundDuration":138889,"Delta":100251131},{"NoteNumber":65,"Velocity":48,"Duration":410958,"SoundDuration":410958,"Delta":100528909},{"NoteNumber":69,"Velocity":57,"Duration":410958,"SoundDuration":410958,"Delta":100528909},{"NoteNumber":77,"Velocity":70,"Duration":410958,"SoundDuration":410958,"Delta":100528909},{"NoteNumber":41,"Velocity":40,"Duration":560108,"SoundDuration":560108,"Delta":100528909},{"NoteNumber":63,"Velocity":49,"Duration":560108,"SoundDuration":560108,"Delta":100528909},{"NoteNumber":53,"Velocity":49,"Duration":286136,"SoundDuration":286136,"Delta":100802881},{"NoteNumber":72,"Velocity":68,"Duration":149149,"SoundDuration":149149,"Delta":100939868},{"NoteNumber":74,"Velocity":72,"Duration":278862,"SoundDuration":278862,"Delta":101089017},{"NoteNumber":65,"Velocity":60,"Duration":1102275,"SoundDuration":1102275,"Delta":101089017},{"NoteNumber":70,"Velocity":60,"Duration":1102275,"SoundDuration":1102275,"Delta":101089017},{"NoteNumber":46,"Velocity":49,"Duration":1102275,"SoundDuration":1102275,"Delta":101089017},{"NoteNumber":62,"Velocity":49,"Duration":1102275,"SoundDuration":1102275,"Delta":101089017},{"NoteNumber":74,"Velocity":66,"Duration":133928,"SoundDuration":133928,"Delta":101367879},{"NoteNumber":53,"Velocity":51,"Duration":133928,"SoundDuration":133928,"Delta":101367879},{"NoteNumber":75,"Velocity":66,"Duration":133928,"SoundDuration":133928,"Delta":101501808},{"NoteNumber":55,"Velocity":51,"Duration":133928,"SoundDuration":133928,"Delta":101501808},{"NoteNumber":77,"Velocity":72,"Duration":555555,"SoundDuration":555555,"Delta":101635736},{"NoteNumber":53,"Velocity":55,"Duration":138889,"SoundDuration":138889,"Delta":101635736},{"NoteNumber":53,"Velocity":51,"Duration":138889,"SoundDuration":138889,"Delta":101913514},{"NoteNumber":75,"Velocity":67,"Duration":435527,"SoundDuration":435527,"Delta":102191292},{"NoteNumber":65,"Velocity":40,"Duration":435527,"SoundDuration":435527,"Delta":102191292},{"NoteNumber":69,"Velocity":40,"Duration":435527,"SoundDuration":435527,"Delta":102191292},{"NoteNumber":46,"Velocity":40,"Duration":582759,"SoundDuration":582759,"Delta":102191292},{"NoteNumber":63,"Velocity":49,"Duration":582759,"SoundDuration":582759,"Delta":102191292},{"NoteNumber":53,"Velocity":41,"Duration":294464,"SoundDuration":294464,"Delta":102479587},{"NoteNumber":72,"Velocity":56,"Duration":147232,"SoundDuration":147232,"Delta":102626819},{"NoteNumber":74,"Velocity":72,"Duration":138248,"SoundDuration":138248,"Delta":102774051},{"NoteNumber":70,"Velocity":47,"Duration":1093579,"SoundDuration":1093579,"Delta":102774051},{"NoteNumber":65,"Velocity":42,"Duration":1093579,"SoundDuration":1093579,"Delta":102774051},{"NoteNumber":46,"Velocity":40,"Duration":1093579,"SoundDuration":1093579,"Delta":102774051},{"NoteNumber":62,"Velocity":49,"Duration":1093579,"SoundDuration":1093579,"Delta":102774051},{"NoteNumber":75,"Velocity":63,"Duration":138248,"SoundDuration":138248,"Delta":102912300},{"NoteNumber":74,"Velocity":68,"Duration":138248,"SoundDuration":138248,"Delta":103050549},{"NoteNumber":53,"Velocity":51,"Duration":138248,"SoundDuration":138248,"Delta":103050549},{"NoteNumber":75,"Velocity":61,"Duration":138248,"SoundDuration":138248,"Delta":103188798},{"NoteNumber":55,"Velocity":51,"Duration":138248,"SoundDuration":138248,"Delta":103188798},{"NoteNumber":77,"Velocity":70,"Duration":136363,"SoundDuration":136363,"Delta":103327046},{"NoteNumber":53,"Velocity":55,"Duration":136363,"SoundDuration":136363,"Delta":103327046},{"NoteNumber":79,"Velocity":62,"Duration":136363,"SoundDuration":136363,"Delta":103463410},{"NoteNumber":81,"Velocity":69,"Duration":133928,"SoundDuration":133928,"Delta":103599774},{"NoteNumber":53,"Velocity":51,"Duration":133928,"SoundDuration":133928,"Delta":103599774},{"NoteNumber":79,"Velocity":60,"Duration":133928,"SoundDuration":133928,"Delta":103733702},{"NoteNumber":69,"Velocity":44,"Duration":565485,"SoundDuration":565485,"Delta":103867631},{"NoteNumber":77,"Velocity":69,"Duration":141057,"SoundDuration":141057,"Delta":103867631},{"NoteNumber":46,"Velocity":40,"Duration":565485,"SoundDuration":565485,"Delta":103867631},{"NoteNumber":63,"Velocity":49,"Duration":565485,"SoundDuration":565485,"Delta":103867631},{"NoteNumber":75,"Velocity":69,"Duration":141056,"SoundDuration":141056,"Delta":104008688},{"NoteNumber":74,"Velocity":74,"Duration":141057,"SoundDuration":141057,"Delta":104149745},{"NoteNumber":53,"Velocity":49,"Duration":283371,"SoundDuration":283371,"Delta":104149745},{"NoteNumber":72,"Velocity":69,"Duration":142314,"SoundDuration":142314,"Delta":104290802},{"NoteNumber":74,"Velocity":77,"Duration":138889,"SoundDuration":138889,"Delta":104433117},{"NoteNumber":70,"Velocity":50,"Duration":1104899,"SoundDuration":1104899,"Delta":104433117},{"NoteNumber":65,"Velocity":50,"Duration":1104899,"SoundDuration":1104899,"Delta":104433117},{"NoteNumber":46,"Velocity":40,"Duration":1104899,"SoundDuration":1104899,"Delta":104433117},{"NoteNumber":62,"Velocity":49,"Duration":1104899,"SoundDuration":1104899,"Delta":104433117},{"NoteNumber":75,"Velocity":66,"Duration":138888,"SoundDuration":138888,"Delta":104572006},{"NoteNumber":74,"Velocity":72,"Duration":138889,"SoundDuration":138889,"Delta":104710895},{"NoteNumber":53,"Velocity":51,"Duration":138889,"SoundDuration":138889,"Delta":104710895},{"NoteNumber":75,"Velocity":61,"Duration":141509,"SoundDuration":141509,"Delta":104849784},{"NoteNumber":55,"Velocity":51,"Duration":141509,"SoundDuration":141509,"Delta":104849784},{"NoteNumber":77,"Velocity":70,"Duration":135746,"SoundDuration":135746,"Delta":104991293},{"NoteNumber":53,"Velocity":55,"Duration":135746,"SoundDuration":135746,"Delta":104991293},{"NoteNumber":79,"Velocity":62,"Duration":135746,"SoundDuration":135746,"Delta":105127040},{"NoteNumber":81,"Velocity":69,"Duration":137614,"SoundDuration":137614,"Delta":105262786},{"NoteNumber":53,"Velocity":51,"Duration":137614,"SoundDuration":137614,"Delta":105262786},{"NoteNumber":79,"Velocity":60,"Duration":137614,"SoundDuration":137614,"Delta":105400401},{"NoteNumber":69,"Velocity":61,"Duration":574724,"SoundDuration":574724,"Delta":105538016},{"NoteNumber":77,"Velocity":67,"Duration":140878,"SoundDuration":140878,"Delta":105538016},{"NoteNumber":46,"Velocity":46,"Duration":574724,"SoundDuration":574724,"Delta":105538016},{"NoteNumber":63,"Velocity":46,"Duration":574724,"SoundDuration":574724,"Delta":105538016},{"NoteNumber":75,"Velocity":66,"Duration":142316,"SoundDuration":142316,"Delta":105678895},{"NoteNumber":74,"Velocity":63,"Duration":143778,"SoundDuration":143778,"Delta":105821211},{"NoteNumber":53,"Velocity":42,"Duration":291529,"SoundDuration":291529,"Delta":105821211},{"NoteNumber":72,"Velocity":62,"Duration":147751,"SoundDuration":147751,"Delta":105964989},{"NoteNumber":65,"Velocity":49,"Duration":1098735,"SoundDuration":1098735,"Delta":106112741},{"NoteNumber":70,"Velocity":59,"Duration":1098735,"SoundDuration":1098735,"Delta":106112741},{"NoteNumber":74,"Velocity":74,"Duration":1098735,"SoundDuration":1098735,"Delta":106112741},{"NoteNumber":46,"Velocity":39,"Duration":1098735,"SoundDuration":1098735,"Delta":106112741},{"NoteNumber":62,"Velocity":48,"Duration":1098735,"SoundDuration":1098735,"Delta":106112741},{"NoteNumber":53,"Velocity":44,"Duration":132158,"SoundDuration":132158,"Delta":106391603},{"NoteNumber":55,"Velocity":44,"Duration":132158,"SoundDuration":132158,"Delta":106523761},{"NoteNumber":53,"Velocity":49,"Duration":138889,"SoundDuration":138889,"Delta":106655920},{"NoteNumber":53,"Velocity":45,"Duration":138889,"SoundDuration":138889,"Delta":106933698},{"NoteNumber":72,"Velocity":57,"Duration":284630,"SoundDuration":284630,"Delta":107211476},{"NoteNumber":62,"Velocity":48,"Duration":576094,"SoundDuration":576094,"Delta":107211476},{"NoteNumber":66,"Velocity":48,"Duration":576094,"SoundDuration":576094,"Delta":107211476},{"NoteNumber":74,"Velocity":62,"Duration":284630,"SoundDuration":284630,"Delta":107211476},{"NoteNumber":45,"Velocity":36,"Duration":576094,"SoundDuration":576094,"Delta":107211476},{"NoteNumber":57,"Velocity":44,"Duration":284630,"SoundDuration":284630,"Delta":107211476},{"NoteNumber":74,"Velocity":58,"Duration":142314,"SoundDuration":142314,"Delta":107496106},{"NoteNumber":50,"Velocity":44,"Duration":291464,"SoundDuration":291464,"Delta":107496106},{"NoteNumber":72,"Velocity":58,"Duration":149149,"SoundDuration":149149,"Delta":107638421},{"NoteNumber":62,"Velocity":49,"Duration":1123270,"SoundDuration":1123270,"Delta":107787570},{"NoteNumber":67,"Velocity":59,"Duration":1123270,"SoundDuration":1123270,"Delta":107787570},{"NoteNumber":71,"Velocity":69,"Duration":837365,"SoundDuration":837365,"Delta":107787570},{"NoteNumber":43,"Velocity":39,"Duration":1123270,"SoundDuration":1123270,"Delta":107787570},{"NoteNumber":55,"Velocity":48,"Duration":278862,"SoundDuration":278862,"Delta":107787570},{"NoteNumber":55,"Velocity":44,"Duration":139431,"SoundDuration":139431,"Delta":108066432},{"NoteNumber":56,"Velocity":44,"Duration":139430,"SoundDuration":139430,"Delta":108205863},{"NoteNumber":55,"Velocity":49,"Duration":139820,"SoundDuration":139820,"Delta":108345294},{"NoteNumber":72,"Velocity":58,"Duration":142952,"SoundDuration":142952,"Delta":108624936},{"NoteNumber":55,"Velocity":45,"Duration":142952,"SoundDuration":142952,"Delta":108624936},{"NoteNumber":74,"Velocity":58,"Duration":142952,"SoundDuration":142952,"Delta":108767889},{"NoteNumber":67,"Velocity":48,"Duration":567442,"SoundDuration":567442,"Delta":108910841},{"NoteNumber":72,"Velocity":48,"Duration":567442,"SoundDuration":567442,"Delta":108910841},{"NoteNumber":75,"Velocity":62,"Duration":278862,"SoundDuration":278862,"Delta":108910841},{"NoteNumber":48,"Velocity":36,"Duration":567442,"SoundDuration":567442,"Delta":108910841},{"NoteNumber":55,"Velocity":44,"Duration":278862,"SoundDuration":278862,"Delta":108910841},{"NoteNumber":77,"Velocity":58,"Duration":139431,"SoundDuration":139431,"Delta":109189703},{"NoteNumber":57,"Velocity":44,"Duration":288580,"SoundDuration":288580,"Delta":109189703},{"NoteNumber":75,"Velocity":58,"Duration":149149,"SoundDuration":149149,"Delta":109329134},{"NoteNumber":67,"Velocity":59,"Duration":560975,"SoundDuration":560975,"Delta":109478284},{"NoteNumber":74,"Velocity":74,"Duration":278862,"SoundDuration":278862,"Delta":109478284},{"NoteNumber":50,"Velocity":39,"Duration":1139335,"SoundDuration":1139335,"Delta":109478284},{"NoteNumber":59,"Velocity":48,"Duration":278862,"SoundDuration":278862,"Delta":109478284},{"NoteNumber":71,"Velocity":58,"Duration":141057,"SoundDuration":141057,"Delta":109757146},{"NoteNumber":62,"Velocity":44,"Duration":141057,"SoundDuration":141057,"Delta":109757146},{"NoteNumber":72,"Velocity":58,"Duration":141056,"SoundDuration":141056,"Delta":109898203},{"NoteNumber":64,"Velocity":44,"Duration":141056,"SoundDuration":141056,"Delta":109898203},{"NoteNumber":71,"Velocity":52,"Duration":292454,"SoundDuration":292454,"Delta":110039260},{"NoteNumber":67,"Velocity":49,"Duration":578359,"SoundDuration":578359,"Delta":110039260},{"NoteNumber":74,"Velocity":68,"Duration":292454,"SoundDuration":292454,"Delta":110039260},{"NoteNumber":62,"Velocity":49,"Duration":146227,"SoundDuration":146227,"Delta":110039260},{"NoteNumber":71,"Velocity":55,"Duration":142952,"SoundDuration":142952,"Delta":110331715},{"NoteNumber":62,"Velocity":45,"Duration":142952,"SoundDuration":142952,"Delta":110331715},{"NoteNumber":72,"Velocity":55,"Duration":142952,"SoundDuration":142952,"Delta":110474667},{"NoteNumber":62,"Velocity":46,"Duration":584606,"SoundDuration":584606,"Delta":110617620},{"NoteNumber":66,"Velocity":46,"Duration":584606,"SoundDuration":584606,"Delta":110617620},{"NoteNumber":71,"Velocity":60,"Duration":287191,"SoundDuration":287191,"Delta":110617620},{"NoteNumber":50,"Velocity":36,"Duration":584606,"SoundDuration":584606,"Delta":110617620},{"NoteNumber":60,"Velocity":44,"Duration":287191,"SoundDuration":287191,"Delta":110617620},{"NoteNumber":69,"Velocity":55,"Duration":148265,"SoundDuration":148265,"Delta":110904811},{"NoteNumber":60,"Velocity":41,"Duration":297415,"SoundDuration":297415,"Delta":110904811},{"NoteNumber":71,"Velocity":55,"Duration":149149,"SoundDuration":149149,"Delta":111053076},{"NoteNumber":62,"Velocity":55,"Duration":275229,"SoundDuration":275229,"Delta":111202226},{"NoteNumber":67,"Velocity":60,"Duration":275229,"SoundDuration":275229,"Delta":111202226},{"NoteNumber":43,"Velocity":39,"Duration":813346,"SoundDuration":813346,"Delta":111202226},{"NoteNumber":59,"Velocity":47,"Duration":813346,"SoundDuration":813346,"Delta":111202226},{"NoteNumber":62,"Velocity":51,"Duration":134529,"SoundDuration":134529,"Delta":111477456},{"NoteNumber":67,"Velocity":56,"Duration":134529,"SoundDuration":134529,"Delta":111477456},{"NoteNumber":71,"Velocity":51,"Duration":269058,"SoundDuration":269058,"Delta":111477456},{"NoteNumber":66,"Velocity":56,"Duration":134529,"SoundDuration":134529,"Delta":111611985},{"NoteNumber":65,"Velocity":60,"Duration":269058,"SoundDuration":269058,"Delta":111746514},{"NoteNumber":71,"Velocity":55,"Duration":269058,"SoundDuration":269058,"Delta":111746514},{"NoteNumber":64,"Velocity":56,"Duration":134529,"SoundDuration":134529,"Delta":112015573},{"NoteNumber":71,"Velocity":51,"Duration":269058,"SoundDuration":269058,"Delta":112015573},{"NoteNumber":38,"Velocity":34,"Duration":269058,"SoundDuration":269058,"Delta":112015573},{"NoteNumber":50,"Velocity":40,"Duration":269058,"SoundDuration":269058,"Delta":112015573},{"NoteNumber":63,"Velocity":60,"Duration":134529,"SoundDuration":134529,"Delta":112150102},{"NoteNumber":62,"Velocity":63,"Duration":269058,"SoundDuration":269058,"Delta":112284631},{"NoteNumber":66,"Velocity":58,"Duration":269058,"SoundDuration":269058,"Delta":112284631},{"NoteNumber":72,"Velocity":58,"Duration":269058,"SoundDuration":269058,"Delta":112284631},{"NoteNumber":45,"Velocity":37,"Duration":269058,"SoundDuration":269058,"Delta":112284631},{"NoteNumber":57,"Velocity":45,"Duration":269058,"SoundDuration":269058,"Delta":112284631},{"NoteNumber":66,"Velocity":58,"Duration":138581,"SoundDuration":138581,"Delta":112553690},{"NoteNumber":72,"Velocity":53,"Duration":277162,"SoundDuration":277162,"Delta":112553690},{"NoteNumber":38,"Velocity":41,"Duration":277162,"SoundDuration":277162,"Delta":112553690},{"NoteNumber":50,"Velocity":49,"Duration":277162,"SoundDuration":277162,"Delta":112553690},{"NoteNumber":62,"Velocity":58,"Duration":138581,"SoundDuration":138581,"Delta":112692271},{"NoteNumber":62,"Velocity":60,"Duration":267857,"SoundDuration":267857,"Delta":112830852},{"NoteNumber":67,"Velocity":66,"Duration":267857,"SoundDuration":267857,"Delta":112830852},{"NoteNumber":71,"Velocity":60,"Duration":267857,"SoundDuration":267857,"Delta":112830852},{"NoteNumber":43,"Velocity":44,"Duration":803571,"SoundDuration":803571,"Delta":112830852},{"NoteNumber":55,"Velocity":52,"Duration":803571,"SoundDuration":803571,"Delta":112830852},{"NoteNumber":62,"Velocity":55,"Duration":133928,"SoundDuration":133928,"Delta":113098709},{"NoteNumber":67,"Velocity":60,"Duration":133928,"SoundDuration":133928,"Delta":113098709},{"NoteNumber":71,"Velocity":55,"Duration":267856,"SoundDuration":267856,"Delta":113098709},{"NoteNumber":66,"Velocity":60,"Duration":133928,"SoundDuration":133928,"Delta":113232637},{"NoteNumber":65,"Velocity":64,"Duration":267857,"SoundDuration":267857,"Delta":113366566},{"NoteNumber":71,"Velocity":59,"Duration":267857,"SoundDuration":267857,"Delta":113366566},{"NoteNumber":64,"Velocity":56,"Duration":135734,"SoundDuration":135734,"Delta":113634423},{"NoteNumber":71,"Velocity":51,"Duration":271468,"SoundDuration":271468,"Delta":113634423},{"NoteNumber":38,"Velocity":42,"Duration":271468,"SoundDuration":271468,"Delta":113634423},{"NoteNumber":50,"Velocity":50,"Duration":271468,"SoundDuration":271468,"Delta":113634423},{"NoteNumber":63,"Velocity":57,"Duration":135734,"SoundDuration":135734,"Delta":113770157},{"NoteNumber":62,"Velocity":63,"Duration":267857,"SoundDuration":267857,"Delta":113905891},{"NoteNumber":66,"Velocity":58,"Duration":267857,"SoundDuration":267857,"Delta":113905891},{"NoteNumber":72,"Velocity":58,"Duration":267857,"SoundDuration":267857,"Delta":113905891},{"NoteNumber":45,"Velocity":39,"Duration":267857,"SoundDuration":267857,"Delta":113905891},{"NoteNumber":57,"Velocity":47,"Duration":267857,"SoundDuration":267857,"Delta":113905891},{"NoteNumber":66,"Velocity":57,"Duration":136363,"SoundDuration":136363,"Delta":114173748},{"NoteNumber":72,"Velocity":52,"Duration":272727,"SoundDuration":272727,"Delta":114173748},{"NoteNumber":38,"Velocity":37,"Duration":272727,"SoundDuration":272727,"Delta":114173748},{"NoteNumber":50,"Velocity":44,"Duration":272727,"SoundDuration":272727,"Delta":114173748},{"NoteNumber":62,"Velocity":57,"Duration":136363,"SoundDuration":136363,"Delta":114310112},{"NoteNumber":62,"Velocity":60,"Duration":264317,"SoundDuration":264317,"Delta":114446476},{"NoteNumber":67,"Velocity":66,"Duration":264317,"SoundDuration":264317,"Delta":114446476},{"NoteNumber":71,"Velocity":60,"Duration":264317,"SoundDuration":264317,"Delta":114446476},{"NoteNumber":43,"Velocity":44,"Duration":132158,"SoundDuration":132158,"Delta":114446476},{"NoteNumber":55,"Velocity":52,"Duration":132158,"SoundDuration":132158,"Delta":114446476},{"NoteNumber":62,"Velocity":55,"Duration":132158,"SoundDuration":132158,"Delta":114710793},{"NoteNumber":67,"Velocity":60,"Duration":132158,"SoundDuration":132158,"Delta":114710793},{"NoteNumber":71,"Velocity":55,"Duration":264316,"SoundDuration":264316,"Delta":114710793},{"NoteNumber":66,"Velocity":60,"Duration":132158,"SoundDuration":132158,"Delta":114842951},{"NoteNumber":62,"Velocity":59,"Duration":264317,"SoundDuration":264317,"Delta":114975110},{"NoteNumber":67,"Velocity":59,"Duration":264317,"SoundDuration":264317,"Delta":114975110},{"NoteNumber":71,"Velocity":64,"Duration":264317,"SoundDuration":264317,"Delta":114975110},{"NoteNumber":55,"Velocity":52,"Duration":132158,"SoundDuration":132158,"Delta":114975110},{"NoteNumber":71,"Velocity":56,"Duration":133928,"SoundDuration":133928,"Delta":115239427},{"NoteNumber":67,"Velocity":51,"Duration":133928,"SoundDuration":133928,"Delta":115239427},{"NoteNumber":74,"Velocity":51,"Duration":267857,"SoundDuration":267857,"Delta":115239427},{"NoteNumber":70,"Velocity":57,"Duration":133928,"SoundDuration":133928,"Delta":115373355},{"NoteNumber":67,"Velocity":58,"Duration":262008,"SoundDuration":262008,"Delta":115507284},{"NoteNumber":71,"Velocity":58,"Duration":262008,"SoundDuration":262008,"Delta":115507284},{"NoteNumber":74,"Velocity":63,"Duration":262008,"SoundDuration":262008,"Delta":115507284},{"NoteNumber":62,"Velocity":47,"Duration":131004,"SoundDuration":131004,"Delta":115507284},{"NoteNumber":71,"Velocity":52,"Duration":133333,"SoundDuration":133333,"Delta":115769292},{"NoteNumber":74,"Velocity":57,"Duration":133333,"SoundDuration":133333,"Delta":115769292},{"NoteNumber":79,"Velocity":52,"Duration":266666,"SoundDuration":266666,"Delta":115769292},{"NoteNumber":73,"Velocity":57,"Duration":133333,"SoundDuration":133333,"Delta":115902625},{"NoteNumber":74,"Velocity":60,"Duration":260869,"SoundDuration":260869,"Delta":116035959},{"NoteNumber":79,"Velocity":66,"Duration":260869,"SoundDuration":260869,"Delta":116035959},{"NoteNumber":83,"Velocity":60,"Duration":260869,"SoundDuration":260869,"Delta":116035959},{"NoteNumber":67,"Velocity":52,"Duration":130434,"SoundDuration":130434,"Delta":116035959},{"NoteNumber":74,"Velocity":55,"Duration":130434,"SoundDuration":130434,"Delta":116296828},{"NoteNumber":79,"Velocity":60,"Duration":130434,"SoundDuration":130434,"Delta":116296828},{"NoteNumber":83,"Velocity":55,"Duration":260869,"SoundDuration":260869,"Delta":116296828},{"NoteNumber":78,"Velocity":60,"Duration":130434,"SoundDuration":130434,"Delta":116427263},{"NoteNumber":74,"Velocity":59,"Duration":260869,"SoundDuration":260869,"Delta":116557698},{"NoteNumber":79,"Velocity":59,"Duration":260869,"SoundDuration":260869,"Delta":116557698},{"NoteNumber":83,"Velocity":64,"Duration":260869,"SoundDuration":260869,"Delta":116557698},{"NoteNumber":71,"Velocity":52,"Duration":130434,"SoundDuration":130434,"Delta":116557698},{"NoteNumber":83,"Velocity":56,"Duration":132743,"SoundDuration":132743,"Delta":116818567},{"NoteNumber":79,"Velocity":51,"Duration":132743,"SoundDuration":132743,"Delta":116818567},{"NoteNumber":86,"Velocity":51,"Duration":265486,"SoundDuration":265486,"Delta":116818567},{"NoteNumber":82,"Velocity":57,"Duration":132743,"SoundDuration":132743,"Delta":116951310},{"NoteNumber":79,"Velocity":57,"Duration":260869,"SoundDuration":260869,"Delta":117084054},{"NoteNumber":83,"Velocity":57,"Duration":260869,"SoundDuration":260869,"Delta":117084054},{"NoteNumber":86,"Velocity":57,"Duration":260869,"SoundDuration":260869,"Delta":117084054},{"NoteNumber":74,"Velocity":47,"Duration":130434,"SoundDuration":130434,"Delta":117084054},{"NoteNumber":83,"Velocity":51,"Duration":128755,"SoundDuration":128755,"Delta":117344923},{"NoteNumber":86,"Velocity":56,"Duration":128755,"SoundDuration":128755,"Delta":117344923},{"NoteNumber":91,"Velocity":51,"Duration":257510,"SoundDuration":257510,"Delta":117344923},{"NoteNumber":85,"Velocity":56,"Duration":128755,"SoundDuration":128755,"Delta":117473678},{"NoteNumber":83,"Velocity":57,"Duration":259740,"SoundDuration":259740,"Delta":117602434},{"NoteNumber":86,"Velocity":62,"Duration":259740,"SoundDuration":259740,"Delta":117602434},{"NoteNumber":91,"Velocity":57,"Duration":259740,"SoundDuration":259740,"Delta":117602434},{"NoteNumber":79,"Velocity":47,"Duration":129870,"SoundDuration":129870,"Delta":117602434},{"NoteNumber":83,"Velocity":50,"Duration":129870,"SoundDuration":129870,"Delta":117862174},{"NoteNumber":86,"Velocity":55,"Duration":129870,"SoundDuration":129870,"Delta":117862174},{"NoteNumber":91,"Velocity":50,"Duration":259740,"SoundDuration":259740,"Delta":117862174},{"NoteNumber":82,"Velocity":53,"Duration":129870,"SoundDuration":129870,"Delta":117992044},{"NoteNumber":83,"Velocity":53,"Duration":259740,"SoundDuration":259740,"Delta":118121915},{"NoteNumber":86,"Velocity":58,"Duration":259740,"SoundDuration":259740,"Delta":118121915},{"NoteNumber":91,"Velocity":53,"Duration":259740,"SoundDuration":259740,"Delta":118121915},{"NoteNumber":79,"Velocity":45,"Duration":129870,"SoundDuration":129870,"Delta":118121915},{"NoteNumber":83,"Velocity":48,"Duration":129870,"SoundDuration":129870,"Delta":118381655},{"NoteNumber":86,"Velocity":52,"Duration":129870,"SoundDuration":129870,"Delta":118381655},{"NoteNumber":91,"Velocity":48,"Duration":259740,"SoundDuration":259740,"Delta":118381655},{"NoteNumber":82,"Velocity":51,"Duration":129870,"SoundDuration":129870,"Delta":118511525},{"NoteNumber":83,"Velocity":51,"Duration":259740,"SoundDuration":259740,"Delta":118641396},{"NoteNumber":86,"Velocity":56,"Duration":259740,"SoundDuration":259740,"Delta":118641396},{"NoteNumber":91,"Velocity":51,"Duration":259740,"SoundDuration":259740,"Delta":118641396},{"NoteNumber":79,"Velocity":42,"Duration":129870,"SoundDuration":129870,"Delta":118641396},{"NoteNumber":83,"Velocity":45,"Duration":133333,"SoundDuration":133333,"Delta":118901136},{"NoteNumber":86,"Velocity":49,"Duration":133333,"SoundDuration":133333,"Delta":118901136},{"NoteNumber":91,"Velocity":45,"Duration":266666,"SoundDuration":266666,"Delta":118901136},{"NoteNumber":82,"Velocity":49,"Duration":133333,"SoundDuration":133333,"Delta":119034469},{"NoteNumber":83,"Velocity":49,"Duration":260869,"SoundDuration":260869,"Delta":119167803},{"NoteNumber":86,"Velocity":53,"Duration":260869,"SoundDuration":260869,"Delta":119167803},{"NoteNumber":91,"Velocity":49,"Duration":260869,"SoundDuration":260869,"Delta":119167803},{"NoteNumber":79,"Velocity":40,"Duration":130434,"SoundDuration":130434,"Delta":119167803},{"NoteNumber":83,"Velocity":42,"Duration":133928,"SoundDuration":133928,"Delta":119428672},{"NoteNumber":86,"Velocity":46,"Duration":133928,"SoundDuration":133928,"Delta":119428672},{"NoteNumber":91,"Velocity":42,"Duration":268145,"SoundDuration":268145,"Delta":119428672},{"NoteNumber":82,"Velocity":46,"Duration":134217,"SoundDuration":134217,"Delta":119562601},{"NoteNumber":83,"Velocity":46,"Duration":267251,"SoundDuration":267251,"Delta":119696818},{"NoteNumber":86,"Velocity":50,"Duration":267251,"SoundDuration":267251,"Delta":119696818},{"NoteNumber":91,"Velocity":46,"Duration":267251,"SoundDuration":267251,"Delta":119696818},{"NoteNumber":79,"Velocity":38,"Duration":132743,"SoundDuration":132743,"Delta":119696818},{"NoteNumber":83,"Velocity":40,"Duration":137766,"SoundDuration":137766,"Delta":119964070},{"NoteNumber":86,"Velocity":44,"Duration":137766,"SoundDuration":137766,"Delta":119964070},{"NoteNumber":91,"Velocity":40,"Duration":275532,"SoundDuration":275532,"Delta":119964070},{"NoteNumber":82,"Velocity":42,"Duration":137766,"SoundDuration":137766,"Delta":120101836},{"NoteNumber":83,"Velocity":44,"Duration":273943,"SoundDuration":273943,"Delta":120239602},{"NoteNumber":86,"Velocity":48,"Duration":273943,"SoundDuration":273943,"Delta":120239602},{"NoteNumber":91,"Velocity":44,"Duration":273943,"SoundDuration":273943,"Delta":120239602},{"NoteNumber":79,"Velocity":36,"Duration":137369,"SoundDuration":137369,"Delta":120239602},{"NoteNumber":83,"Velocity":38,"Duration":139625,"SoundDuration":139625,"Delta":120513546},{"NoteNumber":86,"Velocity":41,"Duration":139625,"SoundDuration":139625,"Delta":120513546},{"NoteNumber":91,"Velocity":38,"Duration":279251,"SoundDuration":279251,"Delta":120513546},{"NoteNumber":82,"Velocity":40,"Duration":139625,"SoundDuration":139625,"Delta":120653172},{"NoteNumber":83,"Velocity":37,"Duration":526565,"SoundDuration":526565,"Delta":120792798},{"NoteNumber":86,"Velocity":37,"Duration":526565,"SoundDuration":526565,"Delta":120792798},{"NoteNumber":91,"Velocity":37,"Duration":526565,"SoundDuration":526565,"Delta":120792798},{"NoteNumber":79,"Velocity":34,"Duration":262909,"SoundDuration":262909,"Delta":120792798},{"NoteNumber":43,"Velocity":45,"Duration":132358,"SoundDuration":132358,"Delta":121055707},{"NoteNumber":43,"Velocity":39,"Duration":131297,"SoundDuration":131297,"Delta":121188066},{"NoteNumber":43,"Velocity":45,"Duration":132945,"SoundDuration":132945,"Delta":121319363},{"NoteNumber":43,"Velocity":39,"Duration":133347,"SoundDuration":133347,"Delta":121452309},{"NoteNumber":43,"Velocity":45,"Duration":133450,"SoundDuration":133450,"Delta":121585656},{"NoteNumber":43,"Velocity":39,"Duration":136013,"SoundDuration":136013,"Delta":121719106},{"NoteNumber":43,"Velocity":45,"Duration":137236,"SoundDuration":137236,"Delta":121855120},{"NoteNumber":43,"Velocity":39,"Duration":140047,"SoundDuration":140047,"Delta":121992357},{"NoteNumber":43,"Velocity":45,"Duration":136511,"SoundDuration":136511,"Delta":122132404},{"NoteNumber":43,"Velocity":39,"Duration":137567,"SoundDuration":137567,"Delta":122268916},{"NoteNumber":43,"Velocity":45,"Duration":283607,"SoundDuration":283607,"Delta":122406483},{"NoteNumber":43,"Velocity":39,"Duration":145872,"SoundDuration":145872,"Delta":122690091},{"NoteNumber":43,"Velocity":39,"Duration":148765,"SoundDuration":148765,"Delta":122835963},{"NoteNumber":43,"Velocity":41,"Duration":306170,"SoundDuration":306170,"Delta":122984729},{"NoteNumber":43,"Velocity":37,"Duration":157903,"SoundDuration":157903,"Delta":123290900},{"NoteNumber":43,"Velocity":37,"Duration":160285,"SoundDuration":160285,"Delta":123448803},{"NoteNumber":43,"Velocity":40,"Duration":352941,"SoundDuration":352941,"Delta":123609089},{"NoteNumber":43,"Velocity":35,"Duration":368098,"SoundDuration":368098,"Delta":123962030},{"NoteNumber":43,"Velocity":40,"Duration":368098,"SoundDuration":368098,"Delta":124330128},{"NoteNumber":84,"Velocity":53,"Duration":350876,"SoundDuration":350876,"Delta":126866656},{"NoteNumber":60,"Velocity":42,"Duration":350876,"SoundDuration":350876,"Delta":126866656},{"NoteNumber":86,"Velocity":59,"Duration":350876,"SoundDuration":350876,"Delta":127217533},{"NoteNumber":62,"Velocity":47,"Duration":350876,"SoundDuration":350876,"Delta":127217533},{"NoteNumber":87,"Velocity":55,"Duration":350877,"SoundDuration":350877,"Delta":127568410},{"NoteNumber":63,"Velocity":44,"Duration":350877,"SoundDuration":350877,"Delta":127568410},{"NoteNumber":89,"Velocity":58,"Duration":334672,"SoundDuration":334672,"Delta":127919287},{"NoteNumber":65,"Velocity":42,"Duration":334672,"SoundDuration":334672,"Delta":127919287},{"NoteNumber":92,"Velocity":61,"Duration":343484,"SoundDuration":343484,"Delta":128253959},{"NoteNumber":68,"Velocity":46,"Duration":343484,"SoundDuration":343484,"Delta":128253959},{"NoteNumber":96,"Velocity":72,"Duration":815838,"SoundDuration":815838,"Delta":128597444},{"NoteNumber":72,"Velocity":51,"Duration":815838,"SoundDuration":815838,"Delta":128597444},{"NoteNumber":94,"Velocity":56,"Duration":157645,"SoundDuration":157645,"Delta":129413283},{"NoteNumber":70,"Velocity":44,"Duration":157645,"SoundDuration":157645,"Delta":129413283},{"NoteNumber":92,"Velocity":57,"Duration":157645,"SoundDuration":157645,"Delta":129570929},{"NoteNumber":68,"Velocity":45,"Duration":157645,"SoundDuration":157645,"Delta":129570929},{"NoteNumber":91,"Velocity":53,"Duration":157645,"SoundDuration":157645,"Delta":129728574},{"NoteNumber":67,"Velocity":42,"Duration":157645,"SoundDuration":157645,"Delta":129728574},{"NoteNumber":89,"Velocity":57,"Duration":162337,"SoundDuration":162337,"Delta":129886220},{"NoteNumber":65,"Velocity":45,"Duration":162337,"SoundDuration":162337,"Delta":129886220},{"NoteNumber":91,"Velocity":53,"Duration":162337,"SoundDuration":162337,"Delta":130048558},{"NoteNumber":67,"Velocity":42,"Duration":162337,"SoundDuration":162337,"Delta":130048558},{"NoteNumber":92,"Velocity":56,"Duration":159167,"SoundDuration":159167,"Delta":130210896},{"NoteNumber":68,"Velocity":44,"Duration":159167,"SoundDuration":159167,"Delta":130210896},{"NoteNumber":89,"Velocity":52,"Duration":159167,"SoundDuration":159167,"Delta":130370064},{"NoteNumber":65,"Velocity":41,"Duration":159167,"SoundDuration":159167,"Delta":130370064},{"NoteNumber":91,"Velocity":60,"Duration":162337,"SoundDuration":162337,"Delta":130529232},{"NoteNumber":67,"Velocity":48,"Duration":162337,"SoundDuration":162337,"Delta":130529232},{"NoteNumber":92,"Velocity":55,"Duration":157645,"SoundDuration":157645,"Delta":130691569},{"NoteNumber":68,"Velocity":44,"Duration":157645,"SoundDuration":157645,"Delta":130691569},{"NoteNumber":91,"Velocity":58,"Duration":157645,"SoundDuration":157645,"Delta":130849215},{"NoteNumber":67,"Velocity":46,"Duration":157645,"SoundDuration":157645,"Delta":130849215},{"NoteNumber":89,"Velocity":50,"Duration":159167,"SoundDuration":159167,"Delta":131006861},{"NoteNumber":65,"Velocity":39,"Duration":159167,"SoundDuration":159167,"Delta":131006861},{"NoteNumber":87,"Velocity":56,"Duration":156889,"SoundDuration":156889,"Delta":131166029},{"NoteNumber":63,"Velocity":44,"Duration":156889,"SoundDuration":156889,"Delta":131166029},{"NoteNumber":89,"Velocity":52,"Duration":159704,"SoundDuration":159704,"Delta":131322919},{"NoteNumber":65,"Velocity":41,"Duration":159704,"SoundDuration":159704,"Delta":131322919},{"NoteNumber":87,"Velocity":53,"Duration":162619,"SoundDuration":162619,"Delta":131482624},{"NoteNumber":63,"Velocity":42,"Duration":162619,"SoundDuration":162619,"Delta":131482624},{"NoteNumber":86,"Velocity":49,"Duration":165929,"SoundDuration":165929,"Delta":131645243},{"NoteNumber":62,"Velocity":38,"Duration":165929,"SoundDuration":165929,"Delta":131645243},{"NoteNumber":84,"Velocity":55,"Duration":167336,"SoundDuration":167336,"Delta":131811173},{"NoteNumber":60,"Velocity":44,"Duration":167336,"SoundDuration":167336,"Delta":131811173},{"NoteNumber":86,"Velocity":51,"Duration":167336,"SoundDuration":167336,"Delta":131978509},{"NoteNumber":62,"Velocity":40,"Duration":167336,"SoundDuration":167336,"Delta":131978509},{"NoteNumber":87,"Velocity":56,"Duration":167335,"SoundDuration":167335,"Delta":132145845},{"NoteNumber":63,"Velocity":44,"Duration":167335,"SoundDuration":167335,"Delta":132145845},{"NoteNumber":91,"Velocity":51,"Duration":184343,"SoundDuration":184343,"Delta":132313181},{"NoteNumber":67,"Velocity":40,"Duration":184343,"SoundDuration":184343,"Delta":132313181},{"NoteNumber":91,"Velocity":58,"Duration":1070901,"SoundDuration":1070901,"Delta":132497524},{"NoteNumber":67,"Velocity":44,"Duration":372902,"SoundDuration":372902,"Delta":132497524},{"NoteNumber":41,"Velocity":44,"Duration":348999,"SoundDuration":348999,"Delta":132870426},{"NoteNumber":60,"Velocity":38,"Duration":1353143,"SoundDuration":1353143,"Delta":133219426},{"NoteNumber":62,"Velocity":38,"Duration":848500,"SoundDuration":848500,"Delta":133219426},{"NoteNumber":68,"Velocity":44,"Duration":348999,"SoundDuration":348999,"Delta":133219426},{"NoteNumber":89,"Velocity":55,"Duration":166500,"SoundDuration":166500,"Delta":133568425},{"NoteNumber":65,"Velocity":44,"Duration":166500,"SoundDuration":166500,"Delta":133568425},{"NoteNumber":87,"Velocity":49,"Duration":166500,"SoundDuration":166500,"Delta":133734926},{"NoteNumber":63,"Velocity":39,"Duration":166500,"SoundDuration":166500,"Delta":133734926},{"NoteNumber":86,"Velocity":57,"Duration":166500,"SoundDuration":166500,"Delta":133901426},{"NoteNumber":62,"Velocity":45,"Duration":671143,"SoundDuration":671143,"Delta":133901426},{"NoteNumber":87,"Velocity":51,"Duration":166500,"SoundDuration":166500,"Delta":134067926},{"NoteNumber":63,"Velocity":40,"Duration":166500,"SoundDuration":166500,"Delta":134067926},{"NoteNumber":89,"Velocity":51,"Duration":169071,"SoundDuration":169071,"Delta":134234426},{"NoteNumber":65,"Velocity":40,"Duration":169071,"SoundDuration":169071,"Delta":134234426},{"NoteNumber":92,"Velocity":51,"Duration":169071,"SoundDuration":169071,"Delta":134403498},{"NoteNumber":68,"Velocity":40,"Duration":169071,"SoundDuration":169071,"Delta":134403498},{"NoteNumber":91,"Velocity":53,"Duration":103103,"SoundDuration":103103,"Delta":134572569},{"NoteNumber":67,"Velocity":42,"Duration":103103,"SoundDuration":103103,"Delta":134572569},{"NoteNumber":92,"Velocity":45,"Duration":103103,"SoundDuration":103103,"Delta":134675672},{"NoteNumber":68,"Velocity":35,"Duration":103103,"SoundDuration":103103,"Delta":134675672},{"NoteNumber":91,"Velocity":45,"Duration":103103,"SoundDuration":103103,"Delta":134778776},{"NoteNumber":67,"Velocity":35,"Duration":103103,"SoundDuration":103103,"Delta":134778776},{"NoteNumber":89,"Velocity":51,"Duration":165636,"SoundDuration":165636,"Delta":134881879},{"NoteNumber":65,"Velocity":40,"Duration":165636,"SoundDuration":165636,"Delta":134881879},{"NoteNumber":87,"Velocity":48,"Duration":165636,"SoundDuration":165636,"Delta":135047515},{"NoteNumber":63,"Velocity":38,"Duration":165636,"SoundDuration":165636,"Delta":135047515},{"NoteNumber":86,"Velocity":49,"Duration":165635,"SoundDuration":165635,"Delta":135213151},{"NoteNumber":62,"Velocity":39,"Duration":165635,"SoundDuration":165635,"Delta":135213151},{"NoteNumber":87,"Velocity":50,"Duration":165636,"SoundDuration":165636,"Delta":135378787},{"NoteNumber":63,"Velocity":39,"Duration":165636,"SoundDuration":165636,"Delta":135378787},{"NoteNumber":89,"Velocity":51,"Duration":171742,"SoundDuration":171742,"Delta":135544423},{"NoteNumber":65,"Velocity":40,"Duration":171742,"SoundDuration":171742,"Delta":135544423},{"NoteNumber":91,"Velocity":45,"Duration":171742,"SoundDuration":171742,"Delta":135716165},{"NoteNumber":67,"Velocity":35,"Duration":171742,"SoundDuration":171742,"Delta":135716165},{"NoteNumber":83,"Velocity":39,"Duration":107700,"SoundDuration":107700,"Delta":135887908},{"NoteNumber":89,"Velocity":52,"Duration":107700,"SoundDuration":107700,"Delta":135887908},{"NoteNumber":55,"Velocity":33,"Duration":659537,"SoundDuration":659537,"Delta":135887908},{"NoteNumber":65,"Velocity":41,"Duration":107700,"SoundDuration":107700,"Delta":135887908},{"NoteNumber":91,"Velocity":40,"Duration":107700,"SoundDuration":107700,"Delta":135995609},{"NoteNumber":67,"Velocity":31,"Duration":107700,"SoundDuration":107700,"Delta":135995609},{"NoteNumber":89,"Velocity":40,"Duration":107700,"SoundDuration":107700,"Delta":136103309},{"NoteNumber":65,"Velocity":31,"Duration":107700,"SoundDuration":107700,"Delta":136103309},{"NoteNumber":87,"Velocity":41,"Duration":168217,"SoundDuration":168217,"Delta":136211010},{"NoteNumber":63,"Velocity":33,"Duration":168217,"SoundDuration":168217,"Delta":136211010},{"NoteNumber":86,"Velocity":38,"Duration":168217,"SoundDuration":168217,"Delta":136379228},{"NoteNumber":62,"Velocity":30,"Duration":168217,"SoundDuration":168217,"Delta":136379228},{"NoteNumber":96,"Velocity":45,"Duration":372902,"SoundDuration":372902,"Delta":136547446},{"NoteNumber":91,"Velocity":37,"Duration":372902,"SoundDuration":372902,"Delta":136547446},{"NoteNumber":87,"Velocity":37,"Duration":372902,"SoundDuration":372902,"Delta":136547446},{"NoteNumber":84,"Velocity":37,"Duration":372902,"SoundDuration":372902,"Delta":136547446},{"NoteNumber":48,"Velocity":29,"Duration":372902,"SoundDuration":372902,"Delta":136547446},{"NoteNumber":60,"Velocity":35,"Duration":372902,"SoundDuration":372902,"Delta":136547446},{"NoteNumber":53,"Velocity":44,"Duration":178316,"SoundDuration":178316,"Delta":136920348},{"NoteNumber":55,"Velocity":40,"Duration":178316,"SoundDuration":178316,"Delta":137098665},{"NoteNumber":60,"Velocity":37,"Duration":858825,"SoundDuration":858825,"Delta":137276982},{"NoteNumber":65,"Velocity":37,"Duration":1383677,"SoundDuration":1383677,"Delta":137276982},{"NoteNumber":68,"Velocity":37,"Duration":1383677,"SoundDuration":1383677,"Delta":137276982},{"NoteNumber":72,"Velocity":37,"Duration":1383677,"SoundDuration":1383677,"Delta":137276982},{"NoteNumber":53,"Velocity":44,"Duration":172651,"SoundDuration":172651,"Delta":137276982},{"NoteNumber":55,"Velocity":41,"Duration":172651,"SoundDuration":172651,"Delta":137449634},{"NoteNumber":56,"Velocity":41,"Duration":172651,"SoundDuration":172651,"Delta":137622286},{"NoteNumber":58,"Velocity":46,"Duration":172651,"SoundDuration":172651,"Delta":137794938},{"NoteNumber":60,"Velocity":49,"Duration":693069,"SoundDuration":693069,"Delta":137967590},{"NoteNumber":56,"Velocity":46,"Duration":168217,"SoundDuration":168217,"Delta":138135808},{"NoteNumber":55,"Velocity":47,"Duration":178316,"SoundDuration":178316,"Delta":138304026},{"NoteNumber":53,"Velocity":44,"Duration":178316,"SoundDuration":178316,"Delta":138482343},{"NoteNumber":63,"Velocity":51,"Duration":171428,"SoundDuration":171428,"Delta":138660659},{"NoteNumber":67,"Velocity":51,"Duration":171428,"SoundDuration":171428,"Delta":138660659},{"NoteNumber":72,"Velocity":60,"Duration":342857,"SoundDuration":342857,"Delta":138660659},{"NoteNumber":43,"Velocity":56,"Duration":342857,"SoundDuration":342857,"Delta":138660659},{"NoteNumber":62,"Velocity":46,"Duration":171428,"SoundDuration":171428,"Delta":138832088},{"NoteNumber":60,"Velocity":39,"Duration":173410,"SoundDuration":173410,"Delta":139003516},{"NoteNumber":63,"Velocity":39,"Duration":173410,"SoundDuration":173410,"Delta":139003516},{"NoteNumber":67,"Velocity":48,"Duration":351727,"SoundDuration":351727,"Delta":139003516},{"NoteNumber":55,"Velocity":47,"Duration":351727,"SoundDuration":351727,"Delta":139003516},{"NoteNumber":55,"Velocity":44,"Duration":178316,"SoundDuration":178316,"Delta":139176927},{"NoteNumber":63,"Velocity":50,"Duration":167336,"SoundDuration":167336,"Delta":139355244},{"NoteNumber":67,"Velocity":50,"Duration":167336,"SoundDuration":167336,"Delta":139355244},{"NoteNumber":72,"Velocity":59,"Duration":334672,"SoundDuration":334672,"Delta":139355244},{"NoteNumber":43,"Velocity":56,"Duration":334672,"SoundDuration":334672,"Delta":139355244},{"NoteNumber":62,"Velocity":44,"Duration":167336,"SoundDuration":167336,"Delta":139522580},{"NoteNumber":60,"Velocity":38,"Duration":167335,"SoundDuration":167335,"Delta":139689916},{"NoteNumber":63,"Velocity":38,"Duration":167335,"SoundDuration":167335,"Delta":139689916},{"NoteNumber":67,"Velocity":46,"Duration":343723,"SoundDuration":343723,"Delta":139689916},{"NoteNumber":55,"Velocity":46,"Duration":343723,"SoundDuration":343723,"Delta":139689916},{"NoteNumber":55,"Velocity":44,"Duration":176387,"SoundDuration":176387,"Delta":139857252},{"NoteNumber":65,"Velocity":49,"Duration":170842,"SoundDuration":170842,"Delta":140033639},{"NoteNumber":67,"Velocity":49,"Duration":170842,"SoundDuration":170842,"Delta":140033639},{"NoteNumber":71,"Velocity":58,"Duration":341685,"SoundDuration":341685,"Delta":140033639},{"NoteNumber":43,"Velocity":56,"Duration":341685,"SoundDuration":341685,"Delta":140033639},{"NoteNumber":63,"Velocity":41,"Duration":170842,"SoundDuration":170842,"Delta":140204482},{"NoteNumber":62,"Velocity":38,"Duration":170842,"SoundDuration":170842,"Delta":140375325},{"NoteNumber":65,"Velocity":38,"Duration":170842,"SoundDuration":170842,"Delta":140375325},{"NoteNumber":67,"Velocity":46,"Duration":341685,"SoundDuration":341685,"Delta":140375325},{"NoteNumber":55,"Velocity":46,"Duration":341685,"SoundDuration":341685,"Delta":140375325},{"NoteNumber":55,"Velocity":41,"Duration":170842,"SoundDuration":170842,"Delta":140546167},{"NoteNumber":60,"Velocity":39,"Duration":341685,"SoundDuration":341685,"Delta":140717010},{"NoteNumber":63,"Velocity":39,"Duration":341685,"SoundDuration":341685,"Delta":140717010},{"NoteNumber":67,"Velocity":49,"Duration":341685,"SoundDuration":341685,"Delta":140717010},{"NoteNumber":72,"Velocity":49,"Duration":341685,"SoundDuration":341685,"Delta":140717010},{"NoteNumber":36,"Velocity":47,"Duration":341685,"SoundDuration":341685,"Delta":140717010},{"NoteNumber":48,"Velocity":56,"Duration":341685,"SoundDuration":341685,"Delta":140717010},{"NoteNumber":84,"Velocity":58,"Duration":352775,"SoundDuration":352775,"Delta":141058696},{"NoteNumber":60,"Velocity":46,"Duration":352775,"SoundDuration":352775,"Delta":141058696},{"NoteNumber":86,"Velocity":67,"Duration":352774,"SoundDuration":352774,"Delta":141411471},{"NoteNumber":62,"Velocity":56,"Duration":352774,"SoundDuration":352774,"Delta":141411471},{"NoteNumber":87,"Velocity":61,"Duration":352775,"SoundDuration":352775,"Delta":141764246},{"NoteNumber":63,"Velocity":53,"Duration":352775,"SoundDuration":352775,"Delta":141764246},{"NoteNumber":89,"Velocity":66,"Duration":333000,"SoundDuration":333000,"Delta":142117021},{"NoteNumber":65,"Velocity":58,"Duration":333000,"SoundDuration":333000,"Delta":142117021},{"NoteNumber":92,"Velocity":69,"Duration":341685,"SoundDuration":341685,"Delta":142450021},{"NoteNumber":68,"Velocity":55,"Duration":341685,"SoundDuration":341685,"Delta":142450021},{"NoteNumber":99,"Velocity":85,"Duration":818516,"SoundDuration":818516,"Delta":142791707},{"NoteNumber":75,"Velocity":64,"Duration":818516,"SoundDuration":818516,"Delta":142791707},{"NoteNumber":98,"Velocity":67,"Duration":157645,"SoundDuration":157645,"Delta":143610223},{"NoteNumber":74,"Velocity":52,"Duration":157645,"SoundDuration":157645,"Delta":143610223},{"NoteNumber":96,"Velocity":68,"Duration":157645,"SoundDuration":157645,"Delta":143767869},{"NoteNumber":72,"Velocity":53,"Duration":157645,"SoundDuration":157645,"Delta":143767869},{"NoteNumber":94,"Velocity":63,"Duration":157645,"SoundDuration":157645,"Delta":143925515},{"NoteNumber":70,"Velocity":50,"Duration":157645,"SoundDuration":157645,"Delta":143925515},{"NoteNumber":96,"Velocity":68,"Duration":108225,"SoundDuration":108225,"Delta":144083160},{"NoteNumber":72,"Velocity":53,"Duration":108225,"SoundDuration":108225,"Delta":144083160},{"NoteNumber":98,"Velocity":68,"Duration":108225,"SoundDuration":108225,"Delta":144191385},{"NoteNumber":74,"Velocity":53,"Duration":108225,"SoundDuration":108225,"Delta":144191385},{"NoteNumber":96,"Velocity":68,"Duration":108225,"SoundDuration":108225,"Delta":144299611},{"NoteNumber":72,"Velocity":53,"Duration":108225,"SoundDuration":108225,"Delta":144299611},{"NoteNumber":94,"Velocity":67,"Duration":159965,"SoundDuration":159965,"Delta":144407836},{"NoteNumber":70,"Velocity":52,"Duration":159965,"SoundDuration":159965,"Delta":144407836},{"NoteNumber":92,"Velocity":62,"Duration":159965,"SoundDuration":159965,"Delta":144567802},{"NoteNumber":68,"Velocity":49,"Duration":159965,"SoundDuration":159965,"Delta":144567802},{"NoteNumber":94,"Velocity":72,"Duration":169071,"SoundDuration":169071,"Delta":144727767},{"NoteNumber":70,"Velocity":57,"Duration":169071,"SoundDuration":169071,"Delta":144727767},{"NoteNumber":96,"Velocity":66,"Duration":158411,"SoundDuration":158411,"Delta":144896839},{"NoteNumber":72,"Velocity":52,"Duration":158411,"SoundDuration":158411,"Delta":144896839},{"NoteNumber":94,"Velocity":69,"Duration":158411,"SoundDuration":158411,"Delta":145055250},{"NoteNumber":70,"Velocity":55,"Duration":158411,"SoundDuration":158411,"Delta":145055250},{"NoteNumber":92,"Velocity":60,"Duration":163167,"SoundDuration":163167,"Delta":145213662},{"NoteNumber":68,"Velocity":46,"Duration":163167,"SoundDuration":163167,"Delta":145213662},{"NoteNumber":91,"Velocity":67,"Duration":318399,"SoundDuration":318399,"Delta":145376830},{"NoteNumber":67,"Velocity":52,"Duration":318399,"SoundDuration":318399,"Delta":145376830},{"NoteNumber":89,"Velocity":63,"Duration":163985,"SoundDuration":163985,"Delta":145695229},{"NoteNumber":65,"Velocity":50,"Duration":163985,"SoundDuration":163985,"Delta":145695229},{"NoteNumber":91,"Velocity":58,"Duration":167635,"SoundDuration":167635,"Delta":145859214},{"NoteNumber":67,"Velocity":45,"Duration":167635,"SoundDuration":167635,"Delta":145859214},{"NoteNumber":92,"Velocity":66,"Duration":167336,"SoundDuration":167336,"Delta":146026850},{"NoteNumber":68,"Velocity":52,"Duration":167336,"SoundDuration":167336,"Delta":146026850},{"NoteNumber":94,"Velocity":61,"Duration":167336,"SoundDuration":167336,"Delta":146194186},{"NoteNumber":70,"Velocity":48,"Duration":167336,"SoundDuration":167336,"Delta":146194186},{"NoteNumber":96,"Velocity":67,"Duration":167335,"SoundDuration":167335,"Delta":146361522},{"NoteNumber":72,"Velocity":52,"Duration":167335,"SoundDuration":167335,"Delta":146361522},{"NoteNumber":92,"Velocity":61,"Duration":184343,"SoundDuration":184343,"Delta":146528858},{"NoteNumber":68,"Velocity":48,"Duration":184343,"SoundDuration":184343,"Delta":146528858},{"NoteNumber":91,"Velocity":73,"Duration":106643,"SoundDuration":106643,"Delta":146713201},{"NoteNumber":67,"Velocity":57,"Duration":106643,"SoundDuration":106643,"Delta":146713201},{"NoteNumber":92,"Velocity":63,"Duration":106643,"SoundDuration":106643,"Delta":146819845},{"NoteNumber":68,"Velocity":50,"Duration":106643,"SoundDuration":106643,"Delta":146819845},{"NoteNumber":91,"Velocity":63,"Duration":106643,"SoundDuration":106643,"Delta":146926489},{"NoteNumber":67,"Velocity":50,"Duration":106643,"SoundDuration":106643,"Delta":146926489},{"NoteNumber":89,"Velocity":67,"Duration":163167,"SoundDuration":163167,"Delta":147033133},{"NoteNumber":65,"Velocity":52,"Duration":163167,"SoundDuration":163167,"Delta":147033133},{"NoteNumber":91,"Velocity":70,"Duration":169952,"SoundDuration":169952,"Delta":147196300},{"NoteNumber":67,"Velocity":56,"Duration":169952,"SoundDuration":169952,"Delta":147196300},{"NoteNumber":87,"Velocity":73,"Duration":331272,"SoundDuration":331272,"Delta":147366253},{"NoteNumber":63,"Velocity":57,"Duration":331272,"SoundDuration":331272,"Delta":147366253},{"NoteNumber":86,"Velocity":70,"Duration":165635,"SoundDuration":165635,"Delta":147697525},{"NoteNumber":62,"Velocity":56,"Duration":165635,"SoundDuration":165635,"Delta":147697525},{"NoteNumber":87,"Velocity":67,"Duration":165636,"SoundDuration":165636,"Delta":147863161},{"NoteNumber":63,"Velocity":52,"Duration":165636,"SoundDuration":165636,"Delta":147863161},{"NoteNumber":89,"Velocity":75,"Duration":106643,"SoundDuration":106643,"Delta":148028797},{"NoteNumber":65,"Velocity":60,"Duration":106643,"SoundDuration":106643,"Delta":148028797},{"NoteNumber":91,"Velocity":67,"Duration":106643,"SoundDuration":106643,"Delta":148135441},{"NoteNumber":67,"Velocity":52,"Duration":106643,"SoundDuration":106643,"Delta":148135441},{"NoteNumber":89,"Velocity":67,"Duration":106643,"SoundDuration":106643,"Delta":148242085},{"NoteNumber":65,"Velocity":52,"Duration":106643,"SoundDuration":106643,"Delta":148242085},{"NoteNumber":87,"Velocity":73,"Duration":162337,"SoundDuration":162337,"Delta":148348728},{"NoteNumber":63,"Velocity":57,"Duration":162337,"SoundDuration":162337,"Delta":148348728},{"NoteNumber":89,"Velocity":67,"Duration":169071,"SoundDuration":169071,"Delta":148511066},{"NoteNumber":65,"Velocity":52,"Duration":169071,"SoundDuration":169071,"Delta":148511066},{"NoteNumber":86,"Velocity":73,"Duration":106643,"SoundDuration":106643,"Delta":148680137},{"NoteNumber":62,"Velocity":57,"Duration":106643,"SoundDuration":106643,"Delta":148680137},{"NoteNumber":87,"Velocity":63,"Duration":106643,"SoundDuration":106643,"Delta":148786781},{"NoteNumber":63,"Velocity":50,"Duration":106643,"SoundDuration":106643,"Delta":148786781},{"NoteNumber":86,"Velocity":63,"Duration":106643,"SoundDuration":106643,"Delta":148893425},{"NoteNumber":62,"Velocity":50,"Duration":106643,"SoundDuration":106643,"Delta":148893425},{"NoteNumber":84,"Velocity":67,"Duration":163167,"SoundDuration":163167,"Delta":149000069},{"NoteNumber":60,"Velocity":52,"Duration":163167,"SoundDuration":163167,"Delta":149000069},{"NoteNumber":87,"Velocity":70,"Duration":169952,"SoundDuration":169952,"Delta":149163237},{"NoteNumber":63,"Velocity":56,"Duration":169952,"SoundDuration":169952,"Delta":149163237},{"NoteNumber":86,"Velocity":73,"Duration":326335,"SoundDuration":326335,"Delta":149333189},{"NoteNumber":62,"Velocity":57,"Duration":326335,"SoundDuration":326335,"Delta":149333189},{"NoteNumber":84,"Velocity":70,"Duration":163167,"SoundDuration":163167,"Delta":149659525},{"NoteNumber":60,"Velocity":56,"Duration":163167,"SoundDuration":163167,"Delta":149659525},{"NoteNumber":86,"Velocity":67,"Duration":163167,"SoundDuration":163167,"Delta":149822692},{"NoteNumber":62,"Velocity":52,"Duration":163167,"SoundDuration":163167,"Delta":149822692},{"NoteNumber":87,"Velocity":75,"Duration":158411,"SoundDuration":158411,"Delta":149985860},{"NoteNumber":63,"Velocity":60,"Duration":158411,"SoundDuration":158411,"Delta":149985860},{"NoteNumber":89,"Velocity":75,"Duration":158411,"SoundDuration":158411,"Delta":150144272},{"NoteNumber":65,"Velocity":60,"Duration":158411,"SoundDuration":158411,"Delta":150144272},{"NoteNumber":91,"Velocity":73,"Duration":162337,"SoundDuration":162337,"Delta":150302684},{"NoteNumber":67,"Velocity":57,"Duration":162337,"SoundDuration":162337,"Delta":150302684},{"NoteNumber":92,"Velocity":67,"Duration":169071,"SoundDuration":169071,"Delta":150465021},{"NoteNumber":68,"Velocity":52,"Duration":169071,"SoundDuration":169071,"Delta":150465021},{"NoteNumber":89,"Velocity":73,"Duration":105097,"SoundDuration":105097,"Delta":150634093},{"NoteNumber":65,"Velocity":57,"Duration":105097,"SoundDuration":105097,"Delta":150634093},{"NoteNumber":91,"Velocity":63,"Duration":105352,"SoundDuration":105352,"Delta":150739190},{"NoteNumber":67,"Velocity":50,"Duration":105352,"SoundDuration":105352,"Delta":150739190},{"NoteNumber":89,"Velocity":62,"Duration":105607,"SoundDuration":105607,"Delta":150844542},{"NoteNumber":65,"Velocity":49,"Duration":105607,"SoundDuration":105607,"Delta":150844542},{"NoteNumber":87,"Velocity":72,"Duration":106111,"SoundDuration":106111,"Delta":150950150},{"NoteNumber":63,"Velocity":57,"Duration":106111,"SoundDuration":106111,"Delta":150950150},{"NoteNumber":89,"Velocity":62,"Duration":106377,"SoundDuration":106377,"Delta":151056262},{"NoteNumber":65,"Velocity":49,"Duration":106377,"SoundDuration":106377,"Delta":151056262},{"NoteNumber":87,"Velocity":62,"Duration":106901,"SoundDuration":106901,"Delta":151162640},{"NoteNumber":63,"Velocity":49,"Duration":106901,"SoundDuration":106901,"Delta":151162640},{"NoteNumber":86,"Velocity":71,"Duration":107158,"SoundDuration":107158,"Delta":151269541},{"NoteNumber":62,"Velocity":56,"Duration":107158,"SoundDuration":107158,"Delta":151269541},{"NoteNumber":87,"Velocity":61,"Duration":107700,"SoundDuration":107700,"Delta":151376699},{"NoteNumber":63,"Velocity":48,"Duration":107700,"SoundDuration":107700,"Delta":151376699},{"NoteNumber":86,"Velocity":61,"Duration":107962,"SoundDuration":107962,"Delta":151484400},{"NoteNumber":62,"Velocity":48,"Duration":107962,"SoundDuration":107962,"Delta":151484400},{"NoteNumber":84,"Velocity":70,"Duration":108501,"SoundDuration":108501,"Delta":151592363},{"NoteNumber":60,"Velocity":55,"Duration":108501,"SoundDuration":108501,"Delta":151592363},{"NoteNumber":86,"Velocity":60,"Duration":108778,"SoundDuration":108778,"Delta":151700865},{"NoteNumber":62,"Velocity":48,"Duration":108778,"SoundDuration":108778,"Delta":151700865},{"NoteNumber":84,"Velocity":60,"Duration":109313,"SoundDuration":109313,"Delta":151809643},{"NoteNumber":60,"Velocity":47,"Duration":109313,"SoundDuration":109313,"Delta":151809643},{"NoteNumber":82,"Velocity":69,"Duration":109595,"SoundDuration":109595,"Delta":151918957},{"NoteNumber":58,"Velocity":53,"Duration":109595,"SoundDuration":109595,"Delta":151918957},{"NoteNumber":84,"Velocity":59,"Duration":110151,"SoundDuration":110151,"Delta":152028552},{"NoteNumber":60,"Velocity":47,"Duration":110151,"SoundDuration":110151,"Delta":152028552},{"NoteNumber":82,"Velocity":59,"Duration":110423,"SoundDuration":110423,"Delta":152138703},{"NoteNumber":58,"Velocity":47,"Duration":110423,"SoundDuration":110423,"Delta":152138703},{"NoteNumber":80,"Velocity":68,"Duration":111000,"SoundDuration":111000,"Delta":152249127},{"NoteNumber":56,"Velocity":52,"Duration":111000,"SoundDuration":111000,"Delta":152249127},{"NoteNumber":82,"Velocity":59,"Duration":111278,"SoundDuration":111278,"Delta":152360128},{"NoteNumber":58,"Velocity":46,"Duration":111278,"SoundDuration":111278,"Delta":152360128},{"NoteNumber":80,"Velocity":58,"Duration":111851,"SoundDuration":111851,"Delta":152471406},{"NoteNumber":56,"Velocity":46,"Duration":111851,"SoundDuration":111851,"Delta":152471406},{"NoteNumber":79,"Velocity":67,"Duration":729535,"SoundDuration":729535,"Delta":152583258},{"NoteNumber":55,"Velocity":53,"Duration":372902,"SoundDuration":372902,"Delta":152583258},{"NoteNumber":43,"Velocity":46,"Duration":356633,"SoundDuration":356633,"Delta":152956160},{"NoteNumber":62,"Velocity":46,"Duration":1383677,"SoundDuration":1383677,"Delta":153312794},{"NoteNumber":60,"Velocity":46,"Duration":1205360,"SoundDuration":1205360,"Delta":153312794},{"NoteNumber":66,"Velocity":46,"Duration":1383677,"SoundDuration":1383677,"Delta":153312794},{"NoteNumber":69,"Velocity":46,"Duration":1383677,"SoundDuration":1383677,"Delta":153312794},{"NoteNumber":74,"Velocity":46,"Duration":1383677,"SoundDuration":1383677,"Delta":153312794},{"NoteNumber":50,"Velocity":56,"Duration":172651,"SoundDuration":172651,"Delta":153312794},{"NoteNumber":52,"Velocity":51,"Duration":172651,"SoundDuration":172651,"Delta":153485446},{"NoteNumber":54,"Velocity":51,"Duration":172651,"SoundDuration":172651,"Delta":153658098},{"NoteNumber":55,"Velocity":57,"Duration":172651,"SoundDuration":172651,"Delta":153830750},{"NoteNumber":57,"Velocity":61,"Duration":168217,"SoundDuration":168217,"Delta":154003402},{"NoteNumber":59,"Velocity":57,"Duration":168217,"SoundDuration":168217,"Delta":154171620},{"NoteNumber":60,"Velocity":58,"Duration":356633,"SoundDuration":356633,"Delta":154339838},{"NoteNumber":57,"Velocity":55,"Duration":178316,"SoundDuration":178316,"Delta":154518154},{"NoteNumber":62,"Velocity":51,"Duration":172413,"SoundDuration":172413,"Delta":154696471},{"NoteNumber":67,"Velocity":51,"Duration":172413,"SoundDuration":172413,"Delta":154696471},{"NoteNumber":71,"Velocity":60,"Duration":172413,"SoundDuration":172413,"Delta":154696471},{"NoteNumber":38,"Velocity":56,"Duration":344827,"SoundDuration":344827,"Delta":154696471},{"NoteNumber":60,"Velocity":46,"Duration":172413,"SoundDuration":172413,"Delta":154868885},{"NoteNumber":59,"Velocity":39,"Duration":174418,"SoundDuration":174418,"Delta":155041299},{"NoteNumber":62,"Velocity":39,"Duration":174418,"SoundDuration":174418,"Delta":155041299},{"NoteNumber":67,"Velocity":48,"Duration":174418,"SoundDuration":174418,"Delta":155041299},{"NoteNumber":50,"Velocity":47,"Duration":352735,"SoundDuration":352735,"Delta":155041299},{"NoteNumber":55,"Velocity":44,"Duration":178316,"SoundDuration":178316,"Delta":155215717},{"NoteNumber":62,"Velocity":50,"Duration":169952,"SoundDuration":169952,"Delta":155394034},{"NoteNumber":67,"Velocity":50,"Duration":169952,"SoundDuration":169952,"Delta":155394034},{"NoteNumber":71,"Velocity":59,"Duration":169952,"SoundDuration":169952,"Delta":155394034},{"NoteNumber":38,"Velocity":56,"Duration":339904,"SoundDuration":339904,"Delta":155394034},{"NoteNumber":60,"Velocity":44,"Duration":169952,"SoundDuration":169952,"Delta":155563986},{"NoteNumber":59,"Velocity":38,"Duration":169952,"SoundDuration":169952,"Delta":155733939},{"NoteNumber":62,"Velocity":38,"Duration":169952,"SoundDuration":169952,"Delta":155733939},{"NoteNumber":67,"Velocity":46,"Duration":169952,"SoundDuration":169952,"Delta":155733939},{"NoteNumber":50,"Velocity":46,"Duration":356403,"SoundDuration":356403,"Delta":155733939},{"NoteNumber":55,"Velocity":44,"Duration":186451,"SoundDuration":186451,"Delta":155903891},{"NoteNumber":64,"Velocity":49,"Duration":177346,"SoundDuration":177346,"Delta":156090343},{"NoteNumber":66,"Velocity":49,"Duration":177346,"SoundDuration":177346,"Delta":156090343},{"NoteNumber":72,"Velocity":58,"Duration":177346,"SoundDuration":177346,"Delta":156090343},{"NoteNumber":38,"Velocity":56,"Duration":354693,"SoundDuration":354693,"Delta":156090343},{"NoteNumber":62,"Velocity":41,"Duration":177346,"SoundDuration":177346,"Delta":156267690},{"NoteNumber":60,"Velocity":38,"Duration":196592,"SoundDuration":196592,"Delta":156445037},{"NoteNumber":62,"Velocity":38,"Duration":196592,"SoundDuration":196592,"Delta":156445037},{"NoteNumber":66,"Velocity":46,"Duration":196592,"SoundDuration":196592,"Delta":156445037},{"NoteNumber":50,"Velocity":46,"Duration":393184,"SoundDuration":393184,"Delta":156445037},{"NoteNumber":57,"Velocity":41,"Duration":196592,"SoundDuration":196592,"Delta":156641629},{"NoteNumber":55,"Velocity":46,"Duration":361446,"SoundDuration":361446,"Delta":156838222},{"NoteNumber":67,"Velocity":46,"Duration":361446,"SoundDuration":361446,"Delta":156838222},{"NoteNumber":43,"Velocity":56,"Duration":722892,"SoundDuration":722892,"Delta":156838222},{"NoteNumber":79,"Velocity":61,"Duration":361446,"SoundDuration":361446,"Delta":157199668},{"NoteNumber":79,"Velocity":60,"Duration":361446,"SoundDuration":361446,"Delta":157561114},{"NoteNumber":79,"Velocity":58,"Duration":361446,"SoundDuration":361446,"Delta":157922560},{"NoteNumber":79,"Velocity":57,"Duration":542169,"SoundDuration":542169,"Delta":158284006},{"NoteNumber":79,"Velocity":55,"Duration":180723,"SoundDuration":180723,"Delta":158826175},{"NoteNumber":79,"Velocity":60,"Duration":716587,"SoundDuration":716587,"Delta":159006898},{"NoteNumber":44,"Velocity":42,"Duration":542169,"SoundDuration":542169,"Delta":159006898},{"NoteNumber":53,"Velocity":37,"Duration":174418,"SoundDuration":174418,"Delta":159549067},{"NoteNumber":77,"Velocity":57,"Duration":523255,"SoundDuration":523255,"Delta":159723485},{"NoteNumber":60,"Velocity":41,"Duration":348837,"SoundDuration":348837,"Delta":159723485},{"NoteNumber":62,"Velocity":39,"Duration":356236,"SoundDuration":356236,"Delta":160072322},{"NoteNumber":74,"Velocity":52,"Duration":181818,"SoundDuration":181818,"Delta":160246741},{"NoteNumber":75,"Velocity":57,"Duration":174418,"SoundDuration":174418,"Delta":160428559},{"NoteNumber":68,"Velocity":39,"Duration":697674,"SoundDuration":697674,"Delta":160428559},{"NoteNumber":77,"Velocity":53,"Duration":174418,"SoundDuration":174418,"Delta":160602977},{"NoteNumber":79,"Velocity":57,"Duration":174418,"SoundDuration":174418,"Delta":160777396},{"NoteNumber":80,"Velocity":53,"Duration":174418,"SoundDuration":174418,"Delta":160951814},{"NoteNumber":79,"Velocity":60,"Duration":359281,"SoundDuration":359281,"Delta":161126233},{"NoteNumber":44,"Velocity":42,"Duration":533700,"SoundDuration":533700,"Delta":161126233},{"NoteNumber":80,"Velocity":57,"Duration":174418,"SoundDuration":174418,"Delta":161485514},{"NoteNumber":79,"Velocity":55,"Duration":174418,"SoundDuration":174418,"Delta":161659933},{"NoteNumber":53,"Velocity":37,"Duration":174418,"SoundDuration":174418,"Delta":161659933},{"NoteNumber":77,"Velocity":58,"Duration":359281,"SoundDuration":359281,"Delta":161834351},{"NoteNumber":60,"Velocity":41,"Duration":359281,"SoundDuration":359281,"Delta":161834351},{"NoteNumber":74,"Velocity":56,"Duration":174418,"SoundDuration":174418,"Delta":162193633},{"NoteNumber":62,"Velocity":39,"Duration":348837,"SoundDuration":348837,"Delta":162193633},{"NoteNumber":77,"Velocity":56,"Duration":174418,"SoundDuration":174418,"Delta":162368051},{"NoteNumber":75,"Velocity":61,"Duration":116278,"SoundDuration":116278,"Delta":162542470},{"NoteNumber":68,"Velocity":39,"Duration":708036,"SoundDuration":708036,"Delta":162542470},{"NoteNumber":77,"Velocity":50,"Duration":116958,"SoundDuration":116958,"Delta":162658749},{"NoteNumber":75,"Velocity":50,"Duration":117647,"SoundDuration":117647,"Delta":162775708},{"NoteNumber":74,"Velocity":58,"Duration":177867,"SoundDuration":177867,"Delta":162893355},{"NoteNumber":72,"Velocity":51,"Duration":179284,"SoundDuration":179284,"Delta":163071222},{"NoteNumber":71,"Velocity":56,"Duration":542169,"SoundDuration":542169,"Delta":163250506},{"NoteNumber":43,"Velocity":42,"Duration":542169,"SoundDuration":542169,"Delta":163250506},{"NoteNumber":74,"Velocity":52,"Duration":180723,"SoundDuration":180723,"Delta":163792675},{"NoteNumber":50,"Velocity":37,"Duration":180723,"SoundDuration":180723,"Delta":163792675},{"NoteNumber":74,"Velocity":55,"Duration":1459006,"SoundDuration":1459006,"Delta":163973398},{"NoteNumber":55,"Velocity":41,"Duration":361446,"SoundDuration":361446,"Delta":163973398},{"NoteNumber":59,"Velocity":31,"Duration":365853,"SoundDuration":365853,"Delta":164334844},{"NoteNumber":62,"Velocity":36,"Duration":365853,"SoundDuration":365853,"Delta":164700698},{"NoteNumber":67,"Velocity":31,"Duration":365853,"SoundDuration":365853,"Delta":165066551},{"NoteNumber":71,"Velocity":42,"Duration":2221100,"SoundDuration":2221100,"Delta":165432405},{"NoteNumber":79,"Velocity":61,"Duration":370370,"SoundDuration":370370,"Delta":165819502},{"NoteNumber":79,"Velocity":60,"Duration":370370,"SoundDuration":370370,"Delta":166189872},{"NoteNumber":79,"Velocity":58,"Duration":370370,"SoundDuration":370370,"Delta":166560243},{"NoteNumber":79,"Velocity":57,"Duration":542169,"SoundDuration":542169,"Delta":166930613},{"NoteNumber":79,"Velocity":55,"Duration":180723,"SoundDuration":180723,"Delta":167472782},{"NoteNumber":79,"Velocity":60,"Duration":716587,"SoundDuration":716587,"Delta":167653505},{"NoteNumber":44,"Velocity":42,"Duration":542169,"SoundDuration":542169,"Delta":167653505},{"NoteNumber":53,"Velocity":37,"Duration":174418,"SoundDuration":174418,"Delta":168195674},{"NoteNumber":77,"Velocity":57,"Duration":348837,"SoundDuration":348837,"Delta":168370093},{"NoteNumber":60,"Velocity":41,"Duration":348837,"SoundDuration":348837,"Delta":168370093},{"NoteNumber":74,"Velocity":52,"Duration":174418,"SoundDuration":174418,"Delta":168718930},{"NoteNumber":62,"Velocity":39,"Duration":356236,"SoundDuration":356236,"Delta":168718930},{"NoteNumber":75,"Velocity":52,"Duration":181818,"SoundDuration":181818,"Delta":168893348},{"NoteNumber":77,"Velocity":57,"Duration":88235,"SoundDuration":88235,"Delta":169075167},{"NoteNumber":68,"Velocity":39,"Duration":700480,"SoundDuration":700480,"Delta":169075167},{"NoteNumber":79,"Velocity":53,"Duration":87719,"SoundDuration":87719,"Delta":169163402},{"NoteNumber":80,"Velocity":57,"Duration":87041,"SoundDuration":87041,"Delta":169251121},{"NoteNumber":82,"Velocity":53,"Duration":86539,"SoundDuration":86539,"Delta":169338162},{"NoteNumber":84,"Velocity":53,"Duration":115110,"SoundDuration":115110,"Delta":169424701},{"NoteNumber":82,"Velocity":53,"Duration":116960,"SoundDuration":116960,"Delta":169539812},{"NoteNumber":80,"Velocity":53,"Duration":118873,"SoundDuration":118873,"Delta":169656773},{"NoteNumber":79,"Velocity":60,"Duration":359281,"SoundDuration":359281,"Delta":169775647},{"NoteNumber":44,"Velocity":42,"Duration":533700,"SoundDuration":533700,"Delta":169775647},{"NoteNumber":80,"Velocity":57,"Duration":174418,"SoundDuration":174418,"Delta":170134928},{"NoteNumber":79,"Velocity":55,"Duration":174418,"SoundDuration":174418,"Delta":170309347},{"NoteNumber":53,"Velocity":37,"Duration":174418,"SoundDuration":174418,"Delta":170309347},{"NoteNumber":77,"Velocity":58,"Duration":359281,"SoundDuration":359281,"Delta":170483765},{"NoteNumber":60,"Velocity":41,"Duration":359281,"SoundDuration":359281,"Delta":170483765},{"NoteNumber":74,"Velocity":56,"Duration":174418,"SoundDuration":174418,"Delta":170843047},{"NoteNumber":62,"Velocity":39,"Duration":348837,"SoundDuration":348837,"Delta":170843047},{"NoteNumber":75,"Velocity":56,"Duration":174418,"SoundDuration":174418,"Delta":171017465},{"NoteNumber":77,"Velocity":61,"Duration":116278,"SoundDuration":116278,"Delta":171191884},{"NoteNumber":68,"Velocity":48,"Duration":708036,"SoundDuration":708036,"Delta":171191884},{"NoteNumber":79,"Velocity":52,"Duration":116958,"SoundDuration":116958,"Delta":171308163},{"NoteNumber":77,"Velocity":53,"Duration":117647,"SoundDuration":117647,"Delta":171425122},{"NoteNumber":75,"Velocity":58,"Duration":118343,"SoundDuration":118343,"Delta":171542769},{"NoteNumber":74,"Velocity":61,"Duration":119047,"SoundDuration":119047,"Delta":171661112},{"NoteNumber":72,"Velocity":63,"Duration":119760,"SoundDuration":119760,"Delta":171780159},{"NoteNumber":71,"Velocity":74,"Duration":340909,"SoundDuration":340909,"Delta":171899920},{"NoteNumber":43,"Velocity":59,"Duration":340909,"SoundDuration":340909,"Delta":171899920},{"NoteNumber":55,"Velocity":59,"Duration":340909,"SoundDuration":340909,"Delta":171899920},{"NoteNumber":65,"Velocity":68,"Duration":81019,"SoundDuration":81019,"Delta":172240829},{"NoteNumber":53,"Velocity":53,"Duration":162039,"SoundDuration":162039,"Delta":172240829},{"NoteNumber":65,"Velocity":68,"Duration":81019,"SoundDuration":81019,"Delta":172402868},{"NoteNumber":68,"Velocity":75,"Duration":164835,"SoundDuration":164835,"Delta":172564908},{"NoteNumber":56,"Velocity":59,"Duration":164835,"SoundDuration":164835,"Delta":172564908},{"NoteNumber":62,"Velocity":69,"Duration":80575,"SoundDuration":80575,"Delta":172894578},{"NoteNumber":50,"Velocity":52,"Duration":161151,"SoundDuration":161151,"Delta":172894578},{"NoteNumber":62,"Velocity":70,"Duration":80575,"SoundDuration":80575,"Delta":173055730},{"NoteNumber":65,"Velocity":75,"Duration":163043,"SoundDuration":163043,"Delta":173216882},{"NoteNumber":53,"Velocity":59,"Duration":163043,"SoundDuration":163043,"Delta":173216882},{"NoteNumber":59,"Velocity":68,"Duration":79558,"SoundDuration":79558,"Delta":173542969},{"NoteNumber":47,"Velocity":52,"Duration":159117,"SoundDuration":159117,"Delta":173542969},{"NoteNumber":59,"Velocity":68,"Duration":79558,"SoundDuration":79558,"Delta":173702086},{"NoteNumber":62,"Velocity":81,"Duration":162162,"SoundDuration":162162,"Delta":173861204},{"NoteNumber":50,"Velocity":62,"Duration":162162,"SoundDuration":162162,"Delta":173861204},{"NoteNumber":56,"Velocity":74,"Duration":79122,"SoundDuration":79122,"Delta":174185528},{"NoteNumber":44,"Velocity":56,"Duration":158244,"SoundDuration":158244,"Delta":174185528},{"NoteNumber":56,"Velocity":74,"Duration":79122,"SoundDuration":79122,"Delta":174343773},{"NoteNumber":60,"Velocity":83,"Duration":163043,"SoundDuration":163043,"Delta":174502017},{"NoteNumber":48,"Velocity":59,"Duration":163043,"SoundDuration":163043,"Delta":174502017},{"NoteNumber":53,"Velocity":75,"Duration":79122,"SoundDuration":79122,"Delta":174828104},{"NoteNumber":41,"Velocity":52,"Duration":158244,"SoundDuration":158244,"Delta":174828104},{"NoteNumber":53,"Velocity":75,"Duration":79122,"SoundDuration":79122,"Delta":174986349},{"NoteNumber":56,"Velocity":83,"Duration":163043,"SoundDuration":163043,"Delta":175144593},{"NoteNumber":44,"Velocity":59,"Duration":163043,"SoundDuration":163043,"Delta":175144593},{"NoteNumber":50,"Velocity":74,"Duration":78271,"SoundDuration":78271,"Delta":175470680},{"NoteNumber":38,"Velocity":52,"Duration":156543,"SoundDuration":156543,"Delta":175470680},{"NoteNumber":50,"Velocity":74,"Duration":78271,"SoundDuration":78271,"Delta":175627224},{"NoteNumber":55,"Velocity":81,"Duration":167336,"SoundDuration":167336,"Delta":175783767},{"NoteNumber":43,"Velocity":62,"Duration":167336,"SoundDuration":167336,"Delta":175783767},{"NoteNumber":65,"Velocity":74,"Duration":78271,"SoundDuration":78271,"Delta":176118439},{"NoteNumber":53,"Velocity":56,"Duration":156543,"SoundDuration":156543,"Delta":176118439},{"NoteNumber":65,"Velocity":74,"Duration":78271,"SoundDuration":78271,"Delta":176274983},{"NoteNumber":68,"Velocity":83,"Duration":81797,"SoundDuration":81797,"Delta":176431526},{"NoteNumber":56,"Velocity":59,"Duration":163594,"SoundDuration":163594,"Delta":176431526},{"NoteNumber":68,"Velocity":74,"Duration":81797,"SoundDuration":81797,"Delta":176595121},{"NoteNumber":62,"Velocity":79,"Duration":77447,"SoundDuration":77447,"Delta":176758716},{"NoteNumber":50,"Velocity":52,"Duration":154894,"SoundDuration":154894,"Delta":176758716},{"NoteNumber":62,"Velocity":75,"Duration":77447,"SoundDuration":77447,"Delta":176913611},{"NoteNumber":65,"Velocity":83,"Duration":80888,"SoundDuration":80888,"Delta":177068505},{"NoteNumber":53,"Velocity":59,"Duration":161777,"SoundDuration":161777,"Delta":177068505},{"NoteNumber":65,"Velocity":73,"Duration":80888,"SoundDuration":80888,"Delta":177230283},{"NoteNumber":59,"Velocity":79,"Duration":77447,"SoundDuration":77447,"Delta":177392060},{"NoteNumber":47,"Velocity":52,"Duration":154894,"SoundDuration":154894,"Delta":177392060},{"NoteNumber":59,"Velocity":74,"Duration":77447,"SoundDuration":77447,"Delta":177546955},{"NoteNumber":62,"Velocity":81,"Duration":79991,"SoundDuration":79991,"Delta":177701850},{"NoteNumber":50,"Velocity":62,"Duration":159983,"SoundDuration":159983,"Delta":177701850},{"NoteNumber":62,"Velocity":81,"Duration":79991,"SoundDuration":79991,"Delta":177861833},{"NoteNumber":56,"Velocity":74,"Duration":77857,"SoundDuration":77857,"Delta":178021816},{"NoteNumber":44,"Velocity":56,"Duration":155714,"SoundDuration":155714,"Delta":178021816},{"NoteNumber":56,"Velocity":74,"Duration":77857,"SoundDuration":77857,"Delta":178177531},{"NoteNumber":60,"Velocity":83,"Duration":80437,"SoundDuration":80437,"Delta":178333245},{"NoteNumber":48,"Velocity":59,"Duration":160875,"SoundDuration":160875,"Delta":178333245},{"NoteNumber":60,"Velocity":74,"Duration":80437,"SoundDuration":80437,"Delta":178494121},{"NoteNumber":53,"Velocity":79,"Duration":77857,"SoundDuration":77857,"Delta":178654996},{"NoteNumber":41,"Velocity":52,"Duration":155714,"SoundDuration":155714,"Delta":178654996},{"NoteNumber":53,"Velocity":75,"Duration":77857,"SoundDuration":77857,"Delta":178810711},{"NoteNumber":56,"Velocity":83,"Duration":80437,"SoundDuration":80437,"Delta":178966425},{"NoteNumber":44,"Velocity":59,"Duration":160875,"SoundDuration":160875,"Delta":178966425},{"NoteNumber":56,"Velocity":73,"Duration":80437,"SoundDuration":80437,"Delta":179127301},{"NoteNumber":50,"Velocity":79,"Duration":78271,"SoundDuration":78271,"Delta":179288176},{"NoteNumber":38,"Velocity":52,"Duration":156543,"SoundDuration":156543,"Delta":179288176},{"NoteNumber":50,"Velocity":74,"Duration":78271,"SoundDuration":78271,"Delta":179444719},{"NoteNumber":55,"Velocity":79,"Duration":308766,"SoundDuration":308766,"Delta":179601263},{"NoteNumber":43,"Velocity":59,"Duration":308766,"SoundDuration":308766,"Delta":179601263},{"NoteNumber":43,"Velocity":54,"Duration":157897,"SoundDuration":157897,"Delta":179910029},{"NoteNumber":43,"Velocity":54,"Duration":160430,"SoundDuration":160430,"Delta":180067927},{"NoteNumber":43,"Velocity":55,"Duration":163046,"SoundDuration":163046,"Delta":180228358},{"NoteNumber":43,"Velocity":51,"Duration":164234,"SoundDuration":164234,"Delta":180391404},{"NoteNumber":43,"Velocity":50,"Duration":164535,"SoundDuration":164535,"Delta":180555639},{"NoteNumber":43,"Velocity":49,"Duration":165442,"SoundDuration":165442,"Delta":180720174},{"NoteNumber":43,"Velocity":51,"Duration":166359,"SoundDuration":166359,"Delta":180885616},{"NoteNumber":43,"Velocity":47,"Duration":167287,"SoundDuration":167287,"Delta":181051976},{"NoteNumber":43,"Velocity":49,"Duration":168225,"SoundDuration":168225,"Delta":181219264},{"NoteNumber":43,"Velocity":45,"Duration":169174,"SoundDuration":169174,"Delta":181387489},{"NoteNumber":43,"Velocity":47,"Duration":340587,"SoundDuration":340587,"Delta":181556663},{"NoteNumber":84,"Velocity":53,"Duration":350876,"SoundDuration":350876,"Delta":183929737},{"NoteNumber":60,"Velocity":42,"Duration":350876,"SoundDuration":350876,"Delta":183929737},{"NoteNumber":86,"Velocity":59,"Duration":350876,"SoundDuration":350876,"Delta":184280614},{"NoteNumber":62,"Velocity":47,"Duration":350876,"SoundDuration":350876,"Delta":184280614},{"NoteNumber":87,"Velocity":55,"Duration":350876,"SoundDuration":350876,"Delta":184631491},{"NoteNumber":63,"Velocity":44,"Duration":350876,"SoundDuration":350876,"Delta":184631491},{"NoteNumber":89,"Velocity":58,"Duration":334672,"SoundDuration":334672,"Delta":184982368},{"NoteNumber":65,"Velocity":42,"Duration":334672,"SoundDuration":334672,"Delta":184982368},{"NoteNumber":92,"Velocity":61,"Duration":343484,"SoundDuration":343484,"Delta":185317040},{"NoteNumber":68,"Velocity":46,"Duration":343484,"SoundDuration":343484,"Delta":185317040},{"NoteNumber":96,"Velocity":72,"Duration":815838,"SoundDuration":815838,"Delta":185660525},{"NoteNumber":72,"Velocity":51,"Duration":815838,"SoundDuration":815838,"Delta":185660525},{"NoteNumber":94,"Velocity":56,"Duration":157645,"SoundDuration":157645,"Delta":186476363},{"NoteNumber":70,"Velocity":44,"Duration":157645,"SoundDuration":157645,"Delta":186476363},{"NoteNumber":92,"Velocity":57,"Duration":157645,"SoundDuration":157645,"Delta":186634009},{"NoteNumber":68,"Velocity":45,"Duration":157645,"SoundDuration":157645,"Delta":186634009},{"NoteNumber":91,"Velocity":53,"Duration":157645,"SoundDuration":157645,"Delta":186791655},{"NoteNumber":67,"Velocity":42,"Duration":157645,"SoundDuration":157645,"Delta":186791655},{"NoteNumber":89,"Velocity":57,"Duration":162337,"SoundDuration":162337,"Delta":186949301},{"NoteNumber":65,"Velocity":45,"Duration":162337,"SoundDuration":162337,"Delta":186949301},{"NoteNumber":91,"Velocity":53,"Duration":162337,"SoundDuration":162337,"Delta":187111638},{"NoteNumber":67,"Velocity":42,"Duration":162337,"SoundDuration":162337,"Delta":187111638},{"NoteNumber":92,"Velocity":56,"Duration":159167,"SoundDuration":159167,"Delta":187273976},{"NoteNumber":68,"Velocity":44,"Duration":159167,"SoundDuration":159167,"Delta":187273976},{"NoteNumber":89,"Velocity":52,"Duration":159167,"SoundDuration":159167,"Delta":187433144},{"NoteNumber":65,"Velocity":41,"Duration":159167,"SoundDuration":159167,"Delta":187433144},{"NoteNumber":91,"Velocity":60,"Duration":162337,"SoundDuration":162337,"Delta":187592312},{"NoteNumber":67,"Velocity":48,"Duration":162337,"SoundDuration":162337,"Delta":187592312},{"NoteNumber":92,"Velocity":55,"Duration":157645,"SoundDuration":157645,"Delta":187754650},{"NoteNumber":68,"Velocity":44,"Duration":157645,"SoundDuration":157645,"Delta":187754650},{"NoteNumber":91,"Velocity":58,"Duration":157645,"SoundDuration":157645,"Delta":187912296},{"NoteNumber":67,"Velocity":46,"Duration":157645,"SoundDuration":157645,"Delta":187912296},{"NoteNumber":89,"Velocity":50,"Duration":159167,"SoundDuration":159167,"Delta":188069941},{"NoteNumber":65,"Velocity":39,"Duration":159167,"SoundDuration":159167,"Delta":188069941},{"NoteNumber":87,"Velocity":56,"Duration":156889,"SoundDuration":156889,"Delta":188229109},{"NoteNumber":63,"Velocity":44,"Duration":156889,"SoundDuration":156889,"Delta":188229109},{"NoteNumber":89,"Velocity":52,"Duration":159704,"SoundDuration":159704,"Delta":188385999},{"NoteNumber":65,"Velocity":41,"Duration":159704,"SoundDuration":159704,"Delta":188385999},{"NoteNumber":87,"Velocity":53,"Duration":162619,"SoundDuration":162619,"Delta":188545704},{"NoteNumber":63,"Velocity":42,"Duration":162619,"SoundDuration":162619,"Delta":188545704},{"NoteNumber":86,"Velocity":49,"Duration":165929,"SoundDuration":165929,"Delta":188708324},{"NoteNumber":62,"Velocity":38,"Duration":165929,"SoundDuration":165929,"Delta":188708324},{"NoteNumber":84,"Velocity":55,"Duration":167336,"SoundDuration":167336,"Delta":188874253},{"NoteNumber":60,"Velocity":44,"Duration":167336,"SoundDuration":167336,"Delta":188874253},{"NoteNumber":86,"Velocity":51,"Duration":167336,"SoundDuration":167336,"Delta":189041589},{"NoteNumber":62,"Velocity":40,"Duration":167336,"SoundDuration":167336,"Delta":189041589},{"NoteNumber":87,"Velocity":56,"Duration":167335,"SoundDuration":167335,"Delta":189208925},{"NoteNumber":63,"Velocity":44,"Duration":167335,"SoundDuration":167335,"Delta":189208925},{"NoteNumber":91,"Velocity":51,"Duration":184343,"SoundDuration":184343,"Delta":189376261},{"NoteNumber":67,"Velocity":40,"Duration":184343,"SoundDuration":184343,"Delta":189376261},{"NoteNumber":91,"Velocity":58,"Duration":1070901,"SoundDuration":1070901,"Delta":189560604},{"NoteNumber":67,"Velocity":44,"Duration":372902,"SoundDuration":372902,"Delta":189560604},{"NoteNumber":41,"Velocity":44,"Duration":348999,"SoundDuration":348999,"Delta":189933507},{"NoteNumber":60,"Velocity":38,"Duration":1353143,"SoundDuration":1353143,"Delta":190282506},{"NoteNumber":62,"Velocity":38,"Duration":848500,"SoundDuration":848500,"Delta":190282506},{"NoteNumber":68,"Velocity":44,"Duration":348999,"SoundDuration":348999,"Delta":190282506},{"NoteNumber":89,"Velocity":55,"Duration":166500,"SoundDuration":166500,"Delta":190631506},{"NoteNumber":65,"Velocity":44,"Duration":166500,"SoundDuration":166500,"Delta":190631506},{"NoteNumber":87,"Velocity":49,"Duration":166500,"SoundDuration":166500,"Delta":190798006},{"NoteNumber":63,"Velocity":39,"Duration":166500,"SoundDuration":166500,"Delta":190798006},{"NoteNumber":86,"Velocity":57,"Duration":166500,"SoundDuration":166500,"Delta":190964506},{"NoteNumber":62,"Velocity":45,"Duration":671143,"SoundDuration":671143,"Delta":190964506},{"NoteNumber":87,"Velocity":51,"Duration":166500,"SoundDuration":166500,"Delta":191131007},{"NoteNumber":63,"Velocity":40,"Duration":166500,"SoundDuration":166500,"Delta":191131007},{"NoteNumber":89,"Velocity":51,"Duration":169071,"SoundDuration":169071,"Delta":191297507},{"NoteNumber":65,"Velocity":40,"Duration":169071,"SoundDuration":169071,"Delta":191297507},{"NoteNumber":92,"Velocity":51,"Duration":169071,"SoundDuration":169071,"Delta":191466578},{"NoteNumber":68,"Velocity":40,"Duration":169071,"SoundDuration":169071,"Delta":191466578},{"NoteNumber":91,"Velocity":53,"Duration":103103,"SoundDuration":103103,"Delta":191635649},{"NoteNumber":67,"Velocity":42,"Duration":103103,"SoundDuration":103103,"Delta":191635649},{"NoteNumber":92,"Velocity":45,"Duration":103103,"SoundDuration":103103,"Delta":191738753},{"NoteNumber":68,"Velocity":35,"Duration":103103,"SoundDuration":103103,"Delta":191738753},{"NoteNumber":91,"Velocity":45,"Duration":103103,"SoundDuration":103103,"Delta":191841856},{"NoteNumber":67,"Velocity":35,"Duration":103103,"SoundDuration":103103,"Delta":191841856},{"NoteNumber":89,"Velocity":51,"Duration":165636,"SoundDuration":165636,"Delta":191944959},{"NoteNumber":65,"Velocity":40,"Duration":165636,"SoundDuration":165636,"Delta":191944959},{"NoteNumber":87,"Velocity":48,"Duration":165636,"SoundDuration":165636,"Delta":192110595},{"NoteNumber":63,"Velocity":38,"Duration":165636,"SoundDuration":165636,"Delta":192110595},{"NoteNumber":86,"Velocity":49,"Duration":165635,"SoundDuration":165635,"Delta":192276231},{"NoteNumber":62,"Velocity":39,"Duration":165635,"SoundDuration":165635,"Delta":192276231},{"NoteNumber":87,"Velocity":50,"Duration":165636,"SoundDuration":165636,"Delta":192441867},{"NoteNumber":63,"Velocity":39,"Duration":165636,"SoundDuration":165636,"Delta":192441867},{"NoteNumber":89,"Velocity":51,"Duration":171742,"SoundDuration":171742,"Delta":192607503},{"NoteNumber":65,"Velocity":40,"Duration":171742,"SoundDuration":171742,"Delta":192607503},{"NoteNumber":91,"Velocity":45,"Duration":171742,"SoundDuration":171742,"Delta":192779246},{"NoteNumber":67,"Velocity":35,"Duration":171742,"SoundDuration":171742,"Delta":192779246},{"NoteNumber":83,"Velocity":52,"Duration":107700,"SoundDuration":107700,"Delta":192950988},{"NoteNumber":89,"Velocity":52,"Duration":107700,"SoundDuration":107700,"Delta":192950988},{"NoteNumber":55,"Velocity":33,"Duration":659537,"SoundDuration":659537,"Delta":192950988},{"NoteNumber":65,"Velocity":41,"Duration":107700,"SoundDuration":107700,"Delta":192950988},{"NoteNumber":91,"Velocity":40,"Duration":107700,"SoundDuration":107700,"Delta":193058689},{"NoteNumber":67,"Velocity":31,"Duration":107700,"SoundDuration":107700,"Delta":193058689},{"NoteNumber":89,"Velocity":40,"Duration":107700,"SoundDuration":107700,"Delta":193166390},{"NoteNumber":65,"Velocity":31,"Duration":107700,"SoundDuration":107700,"Delta":193166390},{"NoteNumber":87,"Velocity":41,"Duration":168217,"SoundDuration":168217,"Delta":193274090},{"NoteNumber":63,"Velocity":33,"Duration":168217,"SoundDuration":168217,"Delta":193274090},{"NoteNumber":86,"Velocity":38,"Duration":168217,"SoundDuration":168217,"Delta":193442308},{"NoteNumber":62,"Velocity":30,"Duration":168217,"SoundDuration":168217,"Delta":193442308},{"NoteNumber":96,"Velocity":45,"Duration":372902,"SoundDuration":372902,"Delta":193610526},{"NoteNumber":91,"Velocity":37,"Duration":372902,"SoundDuration":372902,"Delta":193610526},{"NoteNumber":87,"Velocity":37,"Duration":372902,"SoundDuration":372902,"Delta":193610526},{"NoteNumber":84,"Velocity":37,"Duration":372902,"SoundDuration":372902,"Delta":193610526},{"NoteNumber":48,"Velocity":29,"Duration":372902,"SoundDuration":372902,"Delta":193610526},{"NoteNumber":60,"Velocity":35,"Duration":372902,"SoundDuration":372902,"Delta":193610526},{"NoteNumber":53,"Velocity":44,"Duration":178316,"SoundDuration":178316,"Delta":193983429},{"NoteNumber":55,"Velocity":40,"Duration":178316,"SoundDuration":178316,"Delta":194161746},{"NoteNumber":60,"Velocity":37,"Duration":858825,"SoundDuration":858825,"Delta":194340062},{"NoteNumber":65,"Velocity":37,"Duration":1383677,"SoundDuration":1383677,"Delta":194340062},{"NoteNumber":68,"Velocity":37,"Duration":1383677,"SoundDuration":1383677,"Delta":194340062},{"NoteNumber":72,"Velocity":37,"Duration":1383677,"SoundDuration":1383677,"Delta":194340062},{"NoteNumber":53,"Velocity":44,"Duration":172651,"SoundDuration":172651,"Delta":194340062},{"NoteNumber":55,"Velocity":41,"Duration":172651,"SoundDuration":172651,"Delta":194512714},{"NoteNumber":56,"Velocity":41,"Duration":172651,"SoundDuration":172651,"Delta":194685366},{"NoteNumber":58,"Velocity":46,"Duration":172651,"SoundDuration":172651,"Delta":194858018},{"NoteNumber":60,"Velocity":49,"Duration":693069,"SoundDuration":693069,"Delta":195030670},{"NoteNumber":56,"Velocity":46,"Duration":168217,"SoundDuration":168217,"Delta":195198888},{"NoteNumber":55,"Velocity":47,"Duration":178316,"SoundDuration":178316,"Delta":195367106},{"NoteNumber":53,"Velocity":44,"Duration":178316,"SoundDuration":178316,"Delta":195545423},{"NoteNumber":63,"Velocity":51,"Duration":165745,"SoundDuration":165745,"Delta":195723740},{"NoteNumber":67,"Velocity":51,"Duration":165745,"SoundDuration":165745,"Delta":195723740},{"NoteNumber":72,"Velocity":60,"Duration":331491,"SoundDuration":331491,"Delta":195723740},{"NoteNumber":43,"Velocity":56,"Duration":331491,"SoundDuration":331491,"Delta":195723740},{"NoteNumber":62,"Velocity":46,"Duration":165745,"SoundDuration":165745,"Delta":195889486},{"NoteNumber":60,"Velocity":39,"Duration":165745,"SoundDuration":165745,"Delta":196055231},{"NoteNumber":63,"Velocity":39,"Duration":165745,"SoundDuration":165745,"Delta":196055231},{"NoteNumber":67,"Velocity":48,"Duration":344062,"SoundDuration":344062,"Delta":196055231},{"NoteNumber":55,"Velocity":47,"Duration":344062,"SoundDuration":344062,"Delta":196055231},{"NoteNumber":55,"Velocity":44,"Duration":178316,"SoundDuration":178316,"Delta":196220977},{"NoteNumber":63,"Velocity":50,"Duration":167336,"SoundDuration":167336,"Delta":196399294},{"NoteNumber":67,"Velocity":50,"Duration":167336,"SoundDuration":167336,"Delta":196399294},{"NoteNumber":72,"Velocity":59,"Duration":334672,"SoundDuration":334672,"Delta":196399294},{"NoteNumber":43,"Velocity":56,"Duration":334672,"SoundDuration":334672,"Delta":196399294},{"NoteNumber":62,"Velocity":44,"Duration":167336,"SoundDuration":167336,"Delta":196566630},{"NoteNumber":60,"Velocity":38,"Duration":167335,"SoundDuration":167335,"Delta":196733966},{"NoteNumber":63,"Velocity":38,"Duration":167335,"SoundDuration":167335,"Delta":196733966},{"NoteNumber":67,"Velocity":46,"Duration":343723,"SoundDuration":343723,"Delta":196733966},{"NoteNumber":55,"Velocity":46,"Duration":343723,"SoundDuration":343723,"Delta":196733966},{"NoteNumber":55,"Velocity":44,"Duration":176387,"SoundDuration":176387,"Delta":196901302},{"NoteNumber":65,"Velocity":49,"Duration":170842,"SoundDuration":170842,"Delta":197077689},{"NoteNumber":67,"Velocity":49,"Duration":170842,"SoundDuration":170842,"Delta":197077689},{"NoteNumber":71,"Velocity":58,"Duration":341685,"SoundDuration":341685,"Delta":197077689},{"NoteNumber":43,"Velocity":56,"Duration":341685,"SoundDuration":341685,"Delta":197077689},{"NoteNumber":63,"Velocity":41,"Duration":170842,"SoundDuration":170842,"Delta":197248532},{"NoteNumber":62,"Velocity":38,"Duration":170842,"SoundDuration":170842,"Delta":197419375},{"NoteNumber":65,"Velocity":38,"Duration":170842,"SoundDuration":170842,"Delta":197419375},{"NoteNumber":67,"Velocity":46,"Duration":349414,"SoundDuration":349414,"Delta":197419375},{"NoteNumber":55,"Velocity":46,"Duration":349414,"SoundDuration":349414,"Delta":197419375},{"NoteNumber":55,"Velocity":41,"Duration":178571,"SoundDuration":178571,"Delta":197590218},{"NoteNumber":63,"Velocity":56,"Duration":268312,"SoundDuration":268312,"Delta":197768789},{"NoteNumber":67,"Velocity":56,"Duration":268312,"SoundDuration":268312,"Delta":197768789},{"NoteNumber":72,"Velocity":66,"Duration":268312,"SoundDuration":268312,"Delta":197768789},{"NoteNumber":36,"Velocity":61,"Duration":1583246,"SoundDuration":1583246,"Delta":197768789},{"NoteNumber":48,"Velocity":61,"Duration":1583246,"SoundDuration":1583246,"Delta":197768789},{"NoteNumber":63,"Velocity":42,"Duration":134156,"SoundDuration":134156,"Delta":198037102},{"NoteNumber":67,"Velocity":42,"Duration":134156,"SoundDuration":134156,"Delta":198037102},{"NoteNumber":72,"Velocity":52,"Duration":269767,"SoundDuration":269767,"Delta":198037102},{"NoteNumber":62,"Velocity":48,"Duration":135611,"SoundDuration":135611,"Delta":198171258},{"NoteNumber":63,"Velocity":55,"Duration":260869,"SoundDuration":260869,"Delta":198306869},{"NoteNumber":67,"Velocity":55,"Duration":260869,"SoundDuration":260869,"Delta":198306869},{"NoteNumber":72,"Velocity":64,"Duration":260869,"SoundDuration":260869,"Delta":198306869},{"NoteNumber":63,"Velocity":50,"Duration":264590,"SoundDuration":264590,"Delta":198567739},{"NoteNumber":60,"Velocity":41,"Duration":130434,"SoundDuration":130434,"Delta":198567739},{"NoteNumber":67,"Velocity":50,"Duration":264590,"SoundDuration":264590,"Delta":198567739},{"NoteNumber":59,"Velocity":48,"Duration":134156,"SoundDuration":134156,"Delta":198698174},{"NoteNumber":60,"Velocity":53,"Duration":259852,"SoundDuration":259852,"Delta":198832330},{"NoteNumber":63,"Velocity":53,"Duration":259852,"SoundDuration":259852,"Delta":198832330},{"NoteNumber":67,"Velocity":63,"Duration":259852,"SoundDuration":259852,"Delta":198832330},{"NoteNumber":55,"Velocity":50,"Duration":259853,"SoundDuration":259853,"Delta":199092183},{"NoteNumber":67,"Velocity":61,"Duration":268312,"SoundDuration":268312,"Delta":199352036},{"NoteNumber":70,"Velocity":61,"Duration":268312,"SoundDuration":268312,"Delta":199352036},{"NoteNumber":75,"Velocity":72,"Duration":268312,"SoundDuration":268312,"Delta":199352036},{"NoteNumber":37,"Velocity":67,"Duration":1573718,"SoundDuration":1573718,"Delta":199352036},{"NoteNumber":49,"Velocity":67,"Duration":1573718,"SoundDuration":1573718,"Delta":199352036},{"NoteNumber":67,"Velocity":46,"Duration":134156,"SoundDuration":134156,"Delta":199620348},{"NoteNumber":70,"Velocity":46,"Duration":134156,"SoundDuration":134156,"Delta":199620348},{"NoteNumber":75,"Velocity":57,"Duration":269767,"SoundDuration":269767,"Delta":199620348},{"NoteNumber":66,"Velocity":52,"Duration":135611,"SoundDuration":135611,"Delta":199754505},{"NoteNumber":67,"Velocity":60,"Duration":254517,"SoundDuration":254517,"Delta":199890116},{"NoteNumber":70,"Velocity":60,"Duration":254517,"SoundDuration":254517,"Delta":199890116},{"NoteNumber":75,"Velocity":70,"Duration":254517,"SoundDuration":254517,"Delta":199890116},{"NoteNumber":67,"Velocity":55,"Duration":261414,"SoundDuration":261414,"Delta":200144634},{"NoteNumber":63,"Velocity":45,"Duration":127258,"SoundDuration":127258,"Delta":200144634},{"NoteNumber":70,"Velocity":55,"Duration":261414,"SoundDuration":261414,"Delta":200144634},{"NoteNumber":62,"Velocity":52,"Duration":134156,"SoundDuration":134156,"Delta":200271892},{"NoteNumber":63,"Velocity":58,"Duration":259852,"SoundDuration":259852,"Delta":200406049},{"NoteNumber":67,"Velocity":58,"Duration":259852,"SoundDuration":259852,"Delta":200406049},{"NoteNumber":70,"Velocity":69,"Duration":259852,"SoundDuration":259852,"Delta":200406049},{"NoteNumber":58,"Velocity":55,"Duration":259853,"SoundDuration":259853,"Delta":200665902},{"NoteNumber":63,"Velocity":55,"Duration":259853,"SoundDuration":259853,"Delta":200665902},{"NoteNumber":67,"Velocity":55,"Duration":259853,"SoundDuration":259853,"Delta":200665902},{"NoteNumber":67,"Velocity":66,"Duration":264317,"SoundDuration":264317,"Delta":200925755},{"NoteNumber":62,"Velocity":66,"Duration":264317,"SoundDuration":264317,"Delta":200925755},{"NoteNumber":71,"Velocity":72,"Duration":264317,"SoundDuration":264317,"Delta":200925755},{"NoteNumber":74,"Velocity":66,"Duration":264317,"SoundDuration":264317,"Delta":200925755},{"NoteNumber":38,"Velocity":52,"Duration":264317,"SoundDuration":264317,"Delta":200925755},{"NoteNumber":50,"Velocity":62,"Duration":264317,"SoundDuration":264317,"Delta":200925755},{"NoteNumber":67,"Velocity":60,"Duration":132158,"SoundDuration":132158,"Delta":201190072},{"NoteNumber":71,"Velocity":66,"Duration":132158,"SoundDuration":132158,"Delta":201190072},{"NoteNumber":74,"Velocity":60,"Duration":264317,"SoundDuration":264317,"Delta":201190072},{"NoteNumber":66,"Velocity":66,"Duration":132158,"SoundDuration":132158,"Delta":201322230},{"NoteNumber":67,"Velocity":64,"Duration":264316,"SoundDuration":264316,"Delta":201454389},{"NoteNumber":71,"Velocity":64,"Duration":264316,"SoundDuration":264316,"Delta":201454389},{"NoteNumber":74,"Velocity":70,"Duration":264316,"SoundDuration":264316,"Delta":201454389},{"NoteNumber":50,"Velocity":62,"Duration":264316,"SoundDuration":264316,"Delta":201454389},{"NoteNumber":38,"Velocity":62,"Duration":264316,"SoundDuration":264316,"Delta":201454389},{"NoteNumber":74,"Velocity":62,"Duration":133928,"SoundDuration":133928,"Delta":201718706},{"NoteNumber":71,"Velocity":57,"Duration":133928,"SoundDuration":133928,"Delta":201718706},{"NoteNumber":79,"Velocity":57,"Duration":267856,"SoundDuration":267856,"Delta":201718706},{"NoteNumber":70,"Velocity":63,"Duration":133928,"SoundDuration":133928,"Delta":201852634},{"NoteNumber":71,"Velocity":64,"Duration":262008,"SoundDuration":262008,"Delta":201986563},{"NoteNumber":74,"Velocity":64,"Duration":262008,"SoundDuration":262008,"Delta":201986563},{"NoteNumber":79,"Velocity":70,"Duration":262008,"SoundDuration":262008,"Delta":201986563},{"NoteNumber":38,"Velocity":57,"Duration":262008,"SoundDuration":262008,"Delta":201986563},{"NoteNumber":50,"Velocity":57,"Duration":262008,"SoundDuration":262008,"Delta":201986563},{"NoteNumber":83,"Velocity":59,"Duration":266666,"SoundDuration":266666,"Delta":202248571},{"NoteNumber":74,"Velocity":64,"Duration":133333,"SoundDuration":133333,"Delta":202248571},{"NoteNumber":79,"Velocity":59,"Duration":266666,"SoundDuration":266666,"Delta":202248571},{"NoteNumber":73,"Velocity":64,"Duration":133333,"SoundDuration":133333,"Delta":202381904},{"NoteNumber":74,"Velocity":70,"Duration":271492,"SoundDuration":271492,"Delta":202515238},{"NoteNumber":79,"Velocity":70,"Duration":271492,"SoundDuration":271492,"Delta":202515238},{"NoteNumber":83,"Velocity":82,"Duration":271492,"SoundDuration":271492,"Delta":202515238},{"NoteNumber":38,"Velocity":55,"Duration":271492,"SoundDuration":271492,"Delta":202515238},{"NoteNumber":50,"Velocity":64,"Duration":271492,"SoundDuration":271492,"Delta":202515238},{"NoteNumber":79,"Velocity":67,"Duration":135746,"SoundDuration":135746,"Delta":202786731},{"NoteNumber":74,"Velocity":67,"Duration":135746,"SoundDuration":135746,"Delta":202786731},{"NoteNumber":83,"Velocity":67,"Duration":135746,"SoundDuration":135746,"Delta":202786731},{"NoteNumber":86,"Velocity":80,"Duration":271493,"SoundDuration":271493,"Delta":202786731},{"NoteNumber":82,"Velocity":83,"Duration":135746,"SoundDuration":135746,"Delta":202922477},{"NoteNumber":74,"Velocity":70,"Duration":271492,"SoundDuration":271492,"Delta":203058224},{"NoteNumber":79,"Velocity":70,"Duration":271492,"SoundDuration":271492,"Delta":203058224},{"NoteNumber":83,"Velocity":70,"Duration":271492,"SoundDuration":271492,"Delta":203058224},{"NoteNumber":86,"Velocity":83,"Duration":271492,"SoundDuration":271492,"Delta":203058224},{"NoteNumber":50,"Velocity":60,"Duration":271492,"SoundDuration":271492,"Delta":203058224},{"NoteNumber":38,"Velocity":60,"Duration":271492,"SoundDuration":271492,"Delta":203058224},{"NoteNumber":74,"Velocity":73,"Duration":142179,"SoundDuration":142179,"Delta":203329717},{"NoteNumber":86,"Velocity":73,"Duration":142179,"SoundDuration":142179,"Delta":203329717},{"NoteNumber":74,"Velocity":73,"Duration":142179,"SoundDuration":142179,"Delta":203471897},{"NoteNumber":86,"Velocity":73,"Duration":142179,"SoundDuration":142179,"Delta":203471897},{"NoteNumber":74,"Velocity":72,"Duration":277778,"SoundDuration":277778,"Delta":203614077},{"NoteNumber":84,"Velocity":85,"Duration":277778,"SoundDuration":277778,"Delta":203614077},{"NoteNumber":78,"Velocity":72,"Duration":277778,"SoundDuration":277778,"Delta":203614077},{"NoteNumber":86,"Velocity":85,"Duration":277778,"SoundDuration":277778,"Delta":203614077},{"NoteNumber":38,"Velocity":66,"Duration":277778,"SoundDuration":277778,"Delta":203614077},{"NoteNumber":50,"Velocity":66,"Duration":277778,"SoundDuration":277778,"Delta":203614077},{"NoteNumber":74,"Velocity":67,"Duration":277777,"SoundDuration":277777,"Delta":203891855},{"NoteNumber":86,"Velocity":78,"Duration":277777,"SoundDuration":277777,"Delta":203891855},{"NoteNumber":78,"Velocity":67,"Duration":277777,"SoundDuration":277777,"Delta":203891855},{"NoteNumber":84,"Velocity":78,"Duration":277777,"SoundDuration":277777,"Delta":203891855},{"NoteNumber":38,"Velocity":61,"Duration":277777,"SoundDuration":277777,"Delta":203891855},{"NoteNumber":50,"Velocity":61,"Duration":277777,"SoundDuration":277777,"Delta":203891855},{"NoteNumber":62,"Velocity":69,"Duration":267856,"SoundDuration":267856,"Delta":204169633},{"NoteNumber":67,"Velocity":75,"Duration":267856,"SoundDuration":267856,"Delta":204169633},{"NoteNumber":71,"Velocity":69,"Duration":267856,"SoundDuration":267856,"Delta":204169633},{"NoteNumber":43,"Velocity":49,"Duration":803571,"SoundDuration":803571,"Delta":204169633},{"NoteNumber":55,"Velocity":58,"Duration":803571,"SoundDuration":803571,"Delta":204169633},{"NoteNumber":62,"Velocity":63,"Duration":133928,"SoundDuration":133928,"Delta":204437490},{"NoteNumber":67,"Velocity":70,"Duration":133928,"SoundDuration":133928,"Delta":204437490},{"NoteNumber":71,"Velocity":63,"Duration":267857,"SoundDuration":267857,"Delta":204437490},{"NoteNumber":66,"Velocity":70,"Duration":133928,"SoundDuration":133928,"Delta":204571418},{"NoteNumber":65,"Velocity":75,"Duration":267856,"SoundDuration":267856,"Delta":204705347},{"NoteNumber":71,"Velocity":69,"Duration":267856,"SoundDuration":267856,"Delta":204705347},{"NoteNumber":64,"Velocity":70,"Duration":133928,"SoundDuration":133928,"Delta":204973204},{"NoteNumber":71,"Velocity":63,"Duration":267857,"SoundDuration":267857,"Delta":204973204},{"NoteNumber":38,"Velocity":41,"Duration":267857,"SoundDuration":267857,"Delta":204973204},{"NoteNumber":50,"Velocity":50,"Duration":267857,"SoundDuration":267857,"Delta":204973204},{"NoteNumber":63,"Velocity":75,"Duration":133928,"SoundDuration":133928,"Delta":205107132},{"NoteNumber":62,"Velocity":79,"Duration":267856,"SoundDuration":267856,"Delta":205241061},{"NoteNumber":66,"Velocity":72,"Duration":267856,"SoundDuration":267856,"Delta":205241061},{"NoteNumber":72,"Velocity":72,"Duration":267856,"SoundDuration":267856,"Delta":205241061},{"NoteNumber":45,"Velocity":46,"Duration":267856,"SoundDuration":267856,"Delta":205241061},{"NoteNumber":57,"Velocity":56,"Duration":267856,"SoundDuration":267856,"Delta":205241061},{"NoteNumber":66,"Velocity":72,"Duration":138580,"SoundDuration":138580,"Delta":205508918},{"NoteNumber":72,"Velocity":66,"Duration":277162,"SoundDuration":277162,"Delta":205508918},{"NoteNumber":38,"Velocity":51,"Duration":277162,"SoundDuration":277162,"Delta":205508918},{"NoteNumber":50,"Velocity":61,"Duration":277162,"SoundDuration":277162,"Delta":205508918},{"NoteNumber":62,"Velocity":72,"Duration":138581,"SoundDuration":138581,"Delta":205647499},{"NoteNumber":62,"Velocity":75,"Duration":267856,"SoundDuration":267856,"Delta":205786080},{"NoteNumber":67,"Velocity":82,"Duration":267856,"SoundDuration":267856,"Delta":205786080},{"NoteNumber":71,"Velocity":75,"Duration":267856,"SoundDuration":267856,"Delta":205786080},{"NoteNumber":43,"Velocity":55,"Duration":803571,"SoundDuration":803571,"Delta":205786080},{"NoteNumber":55,"Velocity":64,"Duration":803571,"SoundDuration":803571,"Delta":205786080},{"NoteNumber":62,"Velocity":69,"Duration":133928,"SoundDuration":133928,"Delta":206053937},{"NoteNumber":67,"Velocity":75,"Duration":133928,"SoundDuration":133928,"Delta":206053937},{"NoteNumber":71,"Velocity":69,"Duration":267857,"SoundDuration":267857,"Delta":206053937},{"NoteNumber":66,"Velocity":75,"Duration":133928,"SoundDuration":133928,"Delta":206187865},{"NoteNumber":65,"Velocity":80,"Duration":267856,"SoundDuration":267856,"Delta":206321794},{"NoteNumber":71,"Velocity":73,"Duration":267856,"SoundDuration":267856,"Delta":206321794},{"NoteNumber":64,"Velocity":70,"Duration":135734,"SoundDuration":135734,"Delta":206589651},{"NoteNumber":71,"Velocity":63,"Duration":271468,"SoundDuration":271468,"Delta":206589651},{"NoteNumber":38,"Velocity":52,"Duration":271468,"SoundDuration":271468,"Delta":206589651},{"NoteNumber":50,"Velocity":62,"Duration":271468,"SoundDuration":271468,"Delta":206589651},{"NoteNumber":63,"Velocity":71,"Duration":135734,"SoundDuration":135734,"Delta":206725385},{"NoteNumber":62,"Velocity":79,"Duration":275989,"SoundDuration":275989,"Delta":206861119},{"NoteNumber":66,"Velocity":72,"Duration":275989,"SoundDuration":275989,"Delta":206861119},{"NoteNumber":72,"Velocity":72,"Duration":275989,"SoundDuration":275989,"Delta":206861119},{"NoteNumber":45,"Velocity":49,"Duration":275989,"SoundDuration":275989,"Delta":206861119},{"NoteNumber":57,"Velocity":58,"Duration":275989,"SoundDuration":275989,"Delta":206861119},{"NoteNumber":66,"Velocity":71,"Duration":145631,"SoundDuration":145631,"Delta":207137108},{"NoteNumber":72,"Velocity":64,"Duration":291261,"SoundDuration":291261,"Delta":207137108},{"NoteNumber":38,"Velocity":46,"Duration":291261,"SoundDuration":291261,"Delta":207137108},{"NoteNumber":50,"Velocity":55,"Duration":291261,"SoundDuration":291261,"Delta":207137108},{"NoteNumber":62,"Velocity":71,"Duration":145630,"SoundDuration":145630,"Delta":207282739},{"NoteNumber":67,"Velocity":49,"Duration":1099904,"SoundDuration":1099904,"Delta":207428370},{"NoteNumber":71,"Velocity":49,"Duration":1099904,"SoundDuration":1099904,"Delta":207428370},{"NoteNumber":74,"Velocity":58,"Duration":1099904,"SoundDuration":1099904,"Delta":207428370},{"NoteNumber":79,"Velocity":75,"Duration":1099904,"SoundDuration":1099904,"Delta":207428370},{"NoteNumber":43,"Velocity":39,"Duration":1099904,"SoundDuration":1099904,"Delta":207428370},{"NoteNumber":55,"Velocity":47,"Duration":1099904,"SoundDuration":1099904,"Delta":207428370},{"NoteNumber":50,"Velocity":49,"Duration":132743,"SoundDuration":132743,"Delta":207707232},{"NoteNumber":52,"Velocity":49,"Duration":132743,"SoundDuration":132743,"Delta":207839975},{"NoteNumber":50,"Velocity":52,"Duration":138889,"SoundDuration":138889,"Delta":207972719},{"NoteNumber":50,"Velocity":49,"Duration":138888,"SoundDuration":138888,"Delta":208250497},{"NoteNumber":66,"Velocity":46,"Duration":410958,"SoundDuration":410958,"Delta":208528275},{"NoteNumber":72,"Velocity":55,"Duration":410958,"SoundDuration":410958,"Delta":208528275},{"NoteNumber":78,"Velocity":66,"Duration":410958,"SoundDuration":410958,"Delta":208528275},{"NoteNumber":43,"Velocity":39,"Duration":560108,"SoundDuration":560108,"Delta":208528275},{"NoteNumber":57,"Velocity":47,"Duration":560108,"SoundDuration":560108,"Delta":208528275},{"NoteNumber":50,"Velocity":47,"Duration":286135,"SoundDuration":286135,"Delta":208802247},{"NoteNumber":74,"Velocity":63,"Duration":149149,"SoundDuration":149149,"Delta":208939233},{"NoteNumber":76,"Velocity":69,"Duration":278862,"SoundDuration":278862,"Delta":209088383},{"NoteNumber":67,"Velocity":58,"Duration":1101084,"SoundDuration":1101084,"Delta":209088383},{"NoteNumber":71,"Velocity":58,"Duration":1101084,"SoundDuration":1101084,"Delta":209088383},{"NoteNumber":43,"Velocity":47,"Duration":1101084,"SoundDuration":1101084,"Delta":209088383},{"NoteNumber":59,"Velocity":47,"Duration":1101084,"SoundDuration":1101084,"Delta":209088383},{"NoteNumber":76,"Velocity":60,"Duration":88888,"SoundDuration":88888,"Delta":209367245},{"NoteNumber":50,"Velocity":49,"Duration":133333,"SoundDuration":133333,"Delta":209367245},{"NoteNumber":78,"Velocity":60,"Duration":88888,"SoundDuration":88888,"Delta":209456134},{"NoteNumber":52,"Velocity":49,"Duration":133333,"SoundDuration":133333,"Delta":209500578},{"NoteNumber":76,"Velocity":60,"Duration":88888,"SoundDuration":88888,"Delta":209545023},{"NoteNumber":74,"Velocity":64,"Duration":555555,"SoundDuration":555555,"Delta":209633912},{"NoteNumber":50,"Velocity":52,"Duration":138889,"SoundDuration":138889,"Delta":209633912},{"NoteNumber":50,"Velocity":49,"Duration":138888,"SoundDuration":138888,"Delta":209911690},{"NoteNumber":60,"Velocity":39,"Duration":430250,"SoundDuration":430250,"Delta":210189468},{"NoteNumber":72,"Velocity":58,"Duration":430250,"SoundDuration":430250,"Delta":210189468},{"NoteNumber":62,"Velocity":39,"Duration":430250,"SoundDuration":430250,"Delta":210189468},{"NoteNumber":66,"Velocity":39,"Duration":430250,"SoundDuration":430250,"Delta":210189468},{"NoteNumber":69,"Velocity":39,"Duration":430250,"SoundDuration":430250,"Delta":210189468},{"NoteNumber":43,"Velocity":39,"Duration":577483,"SoundDuration":577483,"Delta":210189468},{"NoteNumber":57,"Velocity":47,"Duration":577483,"SoundDuration":577483,"Delta":210189468},{"NoteNumber":50,"Velocity":40,"Duration":294464,"SoundDuration":294464,"Delta":210472487},{"NoteNumber":69,"Velocity":53,"Duration":147232,"SoundDuration":147232,"Delta":210619719},{"NoteNumber":71,"Velocity":63,"Duration":143047,"SoundDuration":143047,"Delta":210766951},{"NoteNumber":62,"Velocity":45,"Duration":862101,"SoundDuration":862101,"Delta":210766951},{"NoteNumber":67,"Velocity":45,"Duration":862101,"SoundDuration":862101,"Delta":210766951},{"NoteNumber":43,"Velocity":35,"Duration":1143791,"SoundDuration":1143791,"Delta":210766951},{"NoteNumber":55,"Velocity":41,"Duration":1143791,"SoundDuration":1143791,"Delta":210766951},{"NoteNumber":72,"Velocity":57,"Duration":143047,"SoundDuration":143047,"Delta":210909998},{"NoteNumber":74,"Velocity":60,"Duration":286095,"SoundDuration":286095,"Delta":211053046},{"NoteNumber":50,"Velocity":44,"Duration":143047,"SoundDuration":143047,"Delta":211053046},{"NoteNumber":52,"Velocity":44,"Duration":143047,"SoundDuration":143047,"Delta":211196094},{"NoteNumber":74,"Velocity":60,"Duration":571600,"SoundDuration":571600,"Delta":211339142},{"NoteNumber":50,"Velocity":47,"Duration":144955,"SoundDuration":144955,"Delta":211339142},{"NoteNumber":59,"Velocity":42,"Duration":140845,"SoundDuration":140845,"Delta":211629053},{"NoteNumber":50,"Velocity":44,"Duration":140845,"SoundDuration":140845,"Delta":211629053},{"NoteNumber":62,"Velocity":38,"Duration":140844,"SoundDuration":140844,"Delta":211769898},{"NoteNumber":60,"Velocity":42,"Duration":144147,"SoundDuration":144147,"Delta":211910743},{"NoteNumber":43,"Velocity":41,"Duration":576590,"SoundDuration":576590,"Delta":211910743},{"NoteNumber":54,"Velocity":41,"Duration":576590,"SoundDuration":576590,"Delta":211910743},{"NoteNumber":62,"Velocity":38,"Duration":144147,"SoundDuration":144147,"Delta":212054890},{"NoteNumber":60,"Velocity":42,"Duration":144147,"SoundDuration":144147,"Delta":212199038},{"NoteNumber":50,"Velocity":41,"Duration":288295,"SoundDuration":288295,"Delta":212199038},{"NoteNumber":62,"Velocity":38,"Duration":144147,"SoundDuration":144147,"Delta":212343185},{"NoteNumber":59,"Velocity":48,"Duration":295712,"SoundDuration":295712,"Delta":212487333},{"NoteNumber":43,"Velocity":39,"Duration":1176137,"SoundDuration":1176137,"Delta":212487333},{"NoteNumber":55,"Velocity":47,"Duration":1176137,"SoundDuration":1176137,"Delta":212487333},{"NoteNumber":59,"Velocity":42,"Duration":880425,"SoundDuration":880425,"Delta":212783045},{"NoteNumber":62,"Velocity":42,"Duration":147855,"SoundDuration":147855,"Delta":212783045},{"NoteNumber":50,"Velocity":49,"Duration":147855,"SoundDuration":147855,"Delta":212783045},{"NoteNumber":64,"Velocity":39,"Duration":147440,"SoundDuration":147440,"Delta":212930901},{"NoteNumber":52,"Velocity":49,"Duration":147440,"SoundDuration":147440,"Delta":212930901},{"NoteNumber":62,"Velocity":46,"Duration":144314,"SoundDuration":144314,"Delta":213078341},{"NoteNumber":50,"Velocity":52,"Duration":144314,"SoundDuration":144314,"Delta":213078341},{"NoteNumber":64,"Velocity":40,"Duration":144313,"SoundDuration":144313,"Delta":213222655},{"NoteNumber":67,"Velocity":48,"Duration":148250,"SoundDuration":148250,"Delta":213366969},{"NoteNumber":50,"Velocity":49,"Duration":148250,"SoundDuration":148250,"Delta":213366969},{"NoteNumber":64,"Velocity":44,"Duration":148250,"SoundDuration":148250,"Delta":213515219},{"NoteNumber":60,"Velocity":46,"Duration":608279,"SoundDuration":608279,"Delta":213663470},{"NoteNumber":66,"Velocity":51,"Duration":290320,"SoundDuration":290320,"Delta":213663470},{"NoteNumber":43,"Velocity":41,"Duration":608279,"SoundDuration":608279,"Delta":213663470},{"NoteNumber":57,"Velocity":47,"Duration":608279,"SoundDuration":608279,"Delta":213663470},{"NoteNumber":64,"Velocity":48,"Duration":153123,"SoundDuration":153123,"Delta":213953790},{"NoteNumber":50,"Velocity":47,"Duration":317959,"SoundDuration":317959,"Delta":213953790},{"NoteNumber":62,"Velocity":48,"Duration":164835,"SoundDuration":164835,"Delta":214106914},{"NoteNumber":67,"Velocity":53,"Duration":1102274,"SoundDuration":1102274,"Delta":214271749},{"NoteNumber":71,"Velocity":53,"Duration":1102274,"SoundDuration":1102274,"Delta":214271749},{"NoteNumber":74,"Velocity":63,"Duration":1102274,"SoundDuration":1102274,"Delta":214271749},{"NoteNumber":79,"Velocity":82,"Duration":1102274,"SoundDuration":1102274,"Delta":214271749},{"NoteNumber":43,"Velocity":42,"Duration":1102274,"SoundDuration":1102274,"Delta":214271749},{"NoteNumber":55,"Velocity":51,"Duration":1102274,"SoundDuration":1102274,"Delta":214271749},{"NoteNumber":50,"Velocity":53,"Duration":133928,"SoundDuration":133928,"Delta":214550611},{"NoteNumber":52,"Velocity":53,"Duration":133928,"SoundDuration":133928,"Delta":214684540},{"NoteNumber":50,"Velocity":57,"Duration":138889,"SoundDuration":138889,"Delta":214818468},{"NoteNumber":50,"Velocity":53,"Duration":138888,"SoundDuration":138888,"Delta":215096246},{"NoteNumber":66,"Velocity":46,"Duration":410958,"SoundDuration":410958,"Delta":215374024},{"NoteNumber":72,"Velocity":60,"Duration":410958,"SoundDuration":410958,"Delta":215374024},{"NoteNumber":78,"Velocity":68,"Duration":410958,"SoundDuration":410958,"Delta":215374024},{"NoteNumber":43,"Velocity":39,"Duration":560108,"SoundDuration":560108,"Delta":215374024},{"NoteNumber":57,"Velocity":47,"Duration":560108,"SoundDuration":560108,"Delta":215374024},{"NoteNumber":50,"Velocity":47,"Duration":286135,"SoundDuration":286135,"Delta":215647997},{"NoteNumber":74,"Velocity":66,"Duration":149149,"SoundDuration":149149,"Delta":215784983},{"NoteNumber":76,"Velocity":69,"Duration":278862,"SoundDuration":278862,"Delta":215934133},{"NoteNumber":67,"Velocity":58,"Duration":1103476,"SoundDuration":1103476,"Delta":215934133},{"NoteNumber":71,"Velocity":58,"Duration":1103476,"SoundDuration":1103476,"Delta":215934133},{"NoteNumber":43,"Velocity":47,"Duration":1103476,"SoundDuration":1103476,"Delta":215934133},{"NoteNumber":59,"Velocity":47,"Duration":1103476,"SoundDuration":1103476,"Delta":215934133},{"NoteNumber":76,"Velocity":60,"Duration":89686,"SoundDuration":89686,"Delta":216212995},{"NoteNumber":50,"Velocity":49,"Duration":134529,"SoundDuration":134529,"Delta":216212995},{"NoteNumber":78,"Velocity":60,"Duration":89686,"SoundDuration":89686,"Delta":216302681},{"NoteNumber":52,"Velocity":49,"Duration":134529,"SoundDuration":134529,"Delta":216347524},{"NoteNumber":76,"Velocity":60,"Duration":89686,"SoundDuration":89686,"Delta":216392367},{"NoteNumber":74,"Velocity":64,"Duration":555555,"SoundDuration":555555,"Delta":216482053},{"NoteNumber":50,"Velocity":52,"Duration":138889,"SoundDuration":138889,"Delta":216482053},{"NoteNumber":50,"Velocity":49,"Duration":138888,"SoundDuration":138888,"Delta":216759831},{"NoteNumber":60,"Velocity":39,"Duration":426617,"SoundDuration":426617,"Delta":217037609},{"NoteNumber":72,"Velocity":58,"Duration":426617,"SoundDuration":426617,"Delta":217037609},{"NoteNumber":62,"Velocity":39,"Duration":426617,"SoundDuration":426617,"Delta":217037609},{"NoteNumber":66,"Velocity":39,"Duration":426617,"SoundDuration":426617,"Delta":217037609},{"NoteNumber":69,"Velocity":39,"Duration":426617,"SoundDuration":426617,"Delta":217037609},{"NoteNumber":43,"Velocity":39,"Duration":571544,"SoundDuration":571544,"Delta":217037609},{"NoteNumber":57,"Velocity":47,"Duration":571544,"SoundDuration":571544,"Delta":217037609},{"NoteNumber":50,"Velocity":40,"Duration":289854,"SoundDuration":289854,"Delta":217319299},{"NoteNumber":69,"Velocity":53,"Duration":144927,"SoundDuration":144927,"Delta":217464227},{"NoteNumber":71,"Velocity":63,"Duration":143047,"SoundDuration":143047,"Delta":217609154},{"NoteNumber":62,"Velocity":45,"Duration":862101,"SoundDuration":862101,"Delta":217609154},{"NoteNumber":67,"Velocity":45,"Duration":862101,"SoundDuration":862101,"Delta":217609154},{"NoteNumber":43,"Velocity":35,"Duration":1145120,"SoundDuration":1145120,"Delta":217609154},{"NoteNumber":55,"Velocity":41,"Duration":1145120,"SoundDuration":1145120,"Delta":217609154},{"NoteNumber":72,"Velocity":57,"Duration":143047,"SoundDuration":143047,"Delta":217752202},{"NoteNumber":74,"Velocity":60,"Duration":286095,"SoundDuration":286095,"Delta":217895250},{"NoteNumber":50,"Velocity":44,"Duration":143047,"SoundDuration":143047,"Delta":217895250},{"NoteNumber":52,"Velocity":44,"Duration":143047,"SoundDuration":143047,"Delta":218038297},{"NoteNumber":74,"Velocity":60,"Duration":572929,"SoundDuration":572929,"Delta":218181345},{"NoteNumber":50,"Velocity":47,"Duration":144955,"SoundDuration":144955,"Delta":218181345},{"NoteNumber":59,"Velocity":42,"Duration":141509,"SoundDuration":141509,"Delta":218471256},{"NoteNumber":50,"Velocity":44,"Duration":141509,"SoundDuration":141509,"Delta":218471256},{"NoteNumber":62,"Velocity":38,"Duration":141509,"SoundDuration":141509,"Delta":218612766},{"NoteNumber":60,"Velocity":42,"Duration":144147,"SoundDuration":144147,"Delta":218754275},{"NoteNumber":43,"Velocity":41,"Duration":576590,"SoundDuration":576590,"Delta":218754275},{"NoteNumber":54,"Velocity":41,"Duration":576590,"SoundDuration":576590,"Delta":218754275},{"NoteNumber":62,"Velocity":38,"Duration":144147,"SoundDuration":144147,"Delta":218898423},{"NoteNumber":60,"Velocity":42,"Duration":144147,"SoundDuration":144147,"Delta":219042570},{"NoteNumber":50,"Velocity":41,"Duration":288295,"SoundDuration":288295,"Delta":219042570},{"NoteNumber":62,"Velocity":38,"Duration":144147,"SoundDuration":144147,"Delta":219186718},{"NoteNumber":59,"Velocity":48,"Duration":295712,"SoundDuration":295712,"Delta":219330865},{"NoteNumber":43,"Velocity":39,"Duration":1176137,"SoundDuration":1176137,"Delta":219330865},{"NoteNumber":55,"Velocity":47,"Duration":1176137,"SoundDuration":1176137,"Delta":219330865},{"NoteNumber":59,"Velocity":42,"Duration":880425,"SoundDuration":880425,"Delta":219626577},{"NoteNumber":62,"Velocity":42,"Duration":147855,"SoundDuration":147855,"Delta":219626577},{"NoteNumber":50,"Velocity":49,"Duration":147855,"SoundDuration":147855,"Delta":219626577},{"NoteNumber":64,"Velocity":39,"Duration":147440,"SoundDuration":147440,"Delta":219774433},{"NoteNumber":52,"Velocity":49,"Duration":147440,"SoundDuration":147440,"Delta":219774433},{"NoteNumber":62,"Velocity":46,"Duration":144314,"SoundDuration":144314,"Delta":219921873},{"NoteNumber":50,"Velocity":52,"Duration":144314,"SoundDuration":144314,"Delta":219921873},{"NoteNumber":64,"Velocity":40,"Duration":144313,"SoundDuration":144313,"Delta":220066187},{"NoteNumber":67,"Velocity":48,"Duration":148250,"SoundDuration":148250,"Delta":220210501},{"NoteNumber":50,"Velocity":49,"Duration":148250,"SoundDuration":148250,"Delta":220210501},{"NoteNumber":64,"Velocity":44,"Duration":148250,"SoundDuration":148250,"Delta":220358752},{"NoteNumber":60,"Velocity":42,"Duration":590402,"SoundDuration":590402,"Delta":220507003},{"NoteNumber":66,"Velocity":51,"Duration":290320,"SoundDuration":290320,"Delta":220507003},{"NoteNumber":43,"Velocity":39,"Duration":590402,"SoundDuration":590402,"Delta":220507003},{"NoteNumber":57,"Velocity":47,"Duration":590402,"SoundDuration":590402,"Delta":220507003},{"NoteNumber":64,"Velocity":48,"Duration":147020,"SoundDuration":147020,"Delta":220797323},{"NoteNumber":50,"Velocity":47,"Duration":300082,"SoundDuration":300082,"Delta":220797323},{"NoteNumber":62,"Velocity":48,"Duration":153061,"SoundDuration":153061,"Delta":220944344},{"NoteNumber":67,"Velocity":56,"Duration":1103476,"SoundDuration":1103476,"Delta":221097405},{"NoteNumber":74,"Velocity":66,"Duration":1103476,"SoundDuration":1103476,"Delta":221097405},{"NoteNumber":79,"Velocity":79,"Duration":1103476,"SoundDuration":1103476,"Delta":221097405},{"NoteNumber":43,"Velocity":44,"Duration":1103476,"SoundDuration":1103476,"Delta":221097405},{"NoteNumber":58,"Velocity":53,"Duration":1103476,"SoundDuration":1103476,"Delta":221097405},{"NoteNumber":50,"Velocity":56,"Duration":134529,"SoundDuration":134529,"Delta":221376267},{"NoteNumber":51,"Velocity":56,"Duration":134529,"SoundDuration":134529,"Delta":221510796},{"NoteNumber":50,"Velocity":59,"Duration":138889,"SoundDuration":138889,"Delta":221645325},{"NoteNumber":50,"Velocity":56,"Duration":138888,"SoundDuration":138888,"Delta":221923103},{"NoteNumber":65,"Velocity":48,"Duration":409091,"SoundDuration":409091,"Delta":222200881},{"NoteNumber":69,"Velocity":57,"Duration":409091,"SoundDuration":409091,"Delta":222200881},{"NoteNumber":77,"Velocity":70,"Duration":409091,"SoundDuration":409091,"Delta":222200881},{"NoteNumber":41,"Velocity":40,"Duration":558240,"SoundDuration":558240,"Delta":222200881},{"NoteNumber":63,"Velocity":49,"Duration":558240,"SoundDuration":558240,"Delta":222200881},{"NoteNumber":53,"Velocity":49,"Duration":285513,"SoundDuration":285513,"Delta":222473609},{"NoteNumber":72,"Velocity":68,"Duration":149149,"SoundDuration":149149,"Delta":222609973},{"NoteNumber":74,"Velocity":72,"Duration":278862,"SoundDuration":278862,"Delta":222759122},{"NoteNumber":65,"Velocity":60,"Duration":1104688,"SoundDuration":1104688,"Delta":222759122},{"NoteNumber":70,"Velocity":60,"Duration":1104688,"SoundDuration":1104688,"Delta":222759122},{"NoteNumber":46,"Velocity":49,"Duration":1104688,"SoundDuration":1104688,"Delta":222759122},{"NoteNumber":62,"Velocity":49,"Duration":1104688,"SoundDuration":1104688,"Delta":222759122},{"NoteNumber":74,"Velocity":66,"Duration":135135,"SoundDuration":135135,"Delta":223037984},{"NoteNumber":53,"Velocity":51,"Duration":135135,"SoundDuration":135135,"Delta":223037984},{"NoteNumber":75,"Velocity":66,"Duration":135135,"SoundDuration":135135,"Delta":223173120},{"NoteNumber":55,"Velocity":51,"Duration":135135,"SoundDuration":135135,"Delta":223173120},{"NoteNumber":77,"Velocity":72,"Duration":555555,"SoundDuration":555555,"Delta":223308255},{"NoteNumber":53,"Velocity":55,"Duration":138889,"SoundDuration":138889,"Delta":223308255},{"NoteNumber":53,"Velocity":51,"Duration":138888,"SoundDuration":138888,"Delta":223586033},{"NoteNumber":75,"Velocity":67,"Duration":435527,"SoundDuration":435527,"Delta":223863811},{"NoteNumber":65,"Velocity":40,"Duration":435527,"SoundDuration":435527,"Delta":223863811},{"NoteNumber":69,"Velocity":40,"Duration":435527,"SoundDuration":435527,"Delta":223863811},{"NoteNumber":46,"Velocity":40,"Duration":582759,"SoundDuration":582759,"Delta":223863811},{"NoteNumber":63,"Velocity":49,"Duration":582759,"SoundDuration":582759,"Delta":223863811},{"NoteNumber":53,"Velocity":41,"Duration":294464,"SoundDuration":294464,"Delta":224152106},{"NoteNumber":72,"Velocity":56,"Duration":147232,"SoundDuration":147232,"Delta":224299338},{"NoteNumber":74,"Velocity":72,"Duration":138248,"SoundDuration":138248,"Delta":224446570},{"NoteNumber":70,"Velocity":47,"Duration":1094824,"SoundDuration":1094824,"Delta":224446570},{"NoteNumber":65,"Velocity":42,"Duration":1094824,"SoundDuration":1094824,"Delta":224446570},{"NoteNumber":46,"Velocity":40,"Duration":1094824,"SoundDuration":1094824,"Delta":224446570},{"NoteNumber":62,"Velocity":49,"Duration":1094824,"SoundDuration":1094824,"Delta":224446570},{"NoteNumber":75,"Velocity":63,"Duration":138248,"SoundDuration":138248,"Delta":224584819},{"NoteNumber":74,"Velocity":68,"Duration":138248,"SoundDuration":138248,"Delta":224723067},{"NoteNumber":53,"Velocity":51,"Duration":138248,"SoundDuration":138248,"Delta":224723067},{"NoteNumber":75,"Velocity":61,"Duration":138248,"SoundDuration":138248,"Delta":224861316},{"NoteNumber":55,"Velocity":51,"Duration":138248,"SoundDuration":138248,"Delta":224861316},{"NoteNumber":77,"Velocity":70,"Duration":136986,"SoundDuration":136986,"Delta":224999565},{"NoteNumber":53,"Velocity":55,"Duration":136986,"SoundDuration":136986,"Delta":224999565},{"NoteNumber":79,"Velocity":62,"Duration":136986,"SoundDuration":136986,"Delta":225136551},{"NoteNumber":81,"Velocity":69,"Duration":133928,"SoundDuration":133928,"Delta":225273537},{"NoteNumber":53,"Velocity":51,"Duration":133928,"SoundDuration":133928,"Delta":225273537},{"NoteNumber":79,"Velocity":60,"Duration":133928,"SoundDuration":133928,"Delta":225407466},{"NoteNumber":69,"Velocity":44,"Duration":565485,"SoundDuration":565485,"Delta":225541394},{"NoteNumber":77,"Velocity":69,"Duration":141056,"SoundDuration":141056,"Delta":225541394},{"NoteNumber":46,"Velocity":40,"Duration":565485,"SoundDuration":565485,"Delta":225541394},{"NoteNumber":63,"Velocity":49,"Duration":565485,"SoundDuration":565485,"Delta":225541394},{"NoteNumber":75,"Velocity":69,"Duration":141057,"SoundDuration":141057,"Delta":225682451},{"NoteNumber":74,"Velocity":74,"Duration":141056,"SoundDuration":141056,"Delta":225823508},{"NoteNumber":53,"Velocity":49,"Duration":283371,"SoundDuration":283371,"Delta":225823508},{"NoteNumber":72,"Velocity":69,"Duration":142314,"SoundDuration":142314,"Delta":225964565},{"NoteNumber":74,"Velocity":77,"Duration":138889,"SoundDuration":138889,"Delta":226106880},{"NoteNumber":70,"Velocity":50,"Duration":1104898,"SoundDuration":1104898,"Delta":226106880},{"NoteNumber":65,"Velocity":50,"Duration":1104898,"SoundDuration":1104898,"Delta":226106880},{"NoteNumber":46,"Velocity":40,"Duration":1104898,"SoundDuration":1104898,"Delta":226106880},{"NoteNumber":62,"Velocity":49,"Duration":1104898,"SoundDuration":1104898,"Delta":226106880},{"NoteNumber":75,"Velocity":66,"Duration":138889,"SoundDuration":138889,"Delta":226245769},{"NoteNumber":74,"Velocity":72,"Duration":138888,"SoundDuration":138888,"Delta":226384658},{"NoteNumber":53,"Velocity":51,"Duration":138888,"SoundDuration":138888,"Delta":226384658},{"NoteNumber":75,"Velocity":61,"Duration":141509,"SoundDuration":141509,"Delta":226523547},{"NoteNumber":55,"Velocity":51,"Duration":141509,"SoundDuration":141509,"Delta":226523547},{"NoteNumber":77,"Velocity":70,"Duration":135746,"SoundDuration":135746,"Delta":226665057},{"NoteNumber":53,"Velocity":55,"Duration":135746,"SoundDuration":135746,"Delta":226665057},{"NoteNumber":79,"Velocity":62,"Duration":135746,"SoundDuration":135746,"Delta":226800803},{"NoteNumber":81,"Velocity":69,"Duration":137614,"SoundDuration":137614,"Delta":226936550},{"NoteNumber":53,"Velocity":51,"Duration":137614,"SoundDuration":137614,"Delta":226936550},{"NoteNumber":79,"Velocity":60,"Duration":137614,"SoundDuration":137614,"Delta":227074165},{"NoteNumber":69,"Velocity":61,"Duration":574724,"SoundDuration":574724,"Delta":227211779},{"NoteNumber":77,"Velocity":67,"Duration":140878,"SoundDuration":140878,"Delta":227211779},{"NoteNumber":46,"Velocity":46,"Duration":574724,"SoundDuration":574724,"Delta":227211779},{"NoteNumber":63,"Velocity":46,"Duration":574724,"SoundDuration":574724,"Delta":227211779},{"NoteNumber":75,"Velocity":66,"Duration":142316,"SoundDuration":142316,"Delta":227352658},{"NoteNumber":74,"Velocity":63,"Duration":143778,"SoundDuration":143778,"Delta":227494974},{"NoteNumber":53,"Velocity":42,"Duration":291529,"SoundDuration":291529,"Delta":227494974},{"NoteNumber":72,"Velocity":62,"Duration":147751,"SoundDuration":147751,"Delta":227638752},{"NoteNumber":65,"Velocity":49,"Duration":1096426,"SoundDuration":1096426,"Delta":227786504},{"NoteNumber":70,"Velocity":59,"Duration":1096426,"SoundDuration":1096426,"Delta":227786504},{"NoteNumber":74,"Velocity":74,"Duration":1096426,"SoundDuration":1096426,"Delta":227786504},{"NoteNumber":46,"Velocity":39,"Duration":1096426,"SoundDuration":1096426,"Delta":227786504},{"NoteNumber":62,"Velocity":48,"Duration":1096426,"SoundDuration":1096426,"Delta":227786504},{"NoteNumber":53,"Velocity":44,"Duration":131004,"SoundDuration":131004,"Delta":228065366},{"NoteNumber":55,"Velocity":44,"Duration":131004,"SoundDuration":131004,"Delta":228196370},{"NoteNumber":53,"Velocity":49,"Duration":138889,"SoundDuration":138889,"Delta":228327375},{"NoteNumber":53,"Velocity":45,"Duration":138888,"SoundDuration":138888,"Delta":228605153},{"NoteNumber":72,"Velocity":57,"Duration":284629,"SoundDuration":284629,"Delta":228882931},{"NoteNumber":62,"Velocity":48,"Duration":576094,"SoundDuration":576094,"Delta":228882931},{"NoteNumber":66,"Velocity":48,"Duration":576094,"SoundDuration":576094,"Delta":228882931},{"NoteNumber":74,"Velocity":62,"Duration":284629,"SoundDuration":284629,"Delta":228882931},{"NoteNumber":45,"Velocity":36,"Duration":576094,"SoundDuration":576094,"Delta":228882931},{"NoteNumber":57,"Velocity":44,"Duration":284629,"SoundDuration":284629,"Delta":228882931},{"NoteNumber":74,"Velocity":58,"Duration":142314,"SoundDuration":142314,"Delta":229167561},{"NoteNumber":50,"Velocity":44,"Duration":291464,"SoundDuration":291464,"Delta":229167561},{"NoteNumber":72,"Velocity":58,"Duration":149149,"SoundDuration":149149,"Delta":229309876},{"NoteNumber":62,"Velocity":49,"Duration":1123271,"SoundDuration":1123271,"Delta":229459025},{"NoteNumber":67,"Velocity":59,"Duration":1123271,"SoundDuration":1123271,"Delta":229459025},{"NoteNumber":71,"Velocity":69,"Duration":837366,"SoundDuration":837366,"Delta":229459025},{"NoteNumber":43,"Velocity":39,"Duration":1123271,"SoundDuration":1123271,"Delta":229459025},{"NoteNumber":55,"Velocity":48,"Duration":278862,"SoundDuration":278862,"Delta":229459025},{"NoteNumber":55,"Velocity":44,"Duration":139431,"SoundDuration":139431,"Delta":229737887},{"NoteNumber":56,"Velocity":44,"Duration":139431,"SoundDuration":139431,"Delta":229877318},{"NoteNumber":55,"Velocity":49,"Duration":139821,"SoundDuration":139821,"Delta":230016749},{"NoteNumber":72,"Velocity":58,"Duration":142952,"SoundDuration":142952,"Delta":230296391},{"NoteNumber":55,"Velocity":45,"Duration":142952,"SoundDuration":142952,"Delta":230296391},{"NoteNumber":74,"Velocity":58,"Duration":142952,"SoundDuration":142952,"Delta":230439344},{"NoteNumber":67,"Velocity":48,"Duration":567442,"SoundDuration":567442,"Delta":230582296},{"NoteNumber":72,"Velocity":48,"Duration":567442,"SoundDuration":567442,"Delta":230582296},{"NoteNumber":75,"Velocity":62,"Duration":278862,"SoundDuration":278862,"Delta":230582296},{"NoteNumber":48,"Velocity":36,"Duration":567442,"SoundDuration":567442,"Delta":230582296},{"NoteNumber":55,"Velocity":44,"Duration":278862,"SoundDuration":278862,"Delta":230582296},{"NoteNumber":77,"Velocity":58,"Duration":139431,"SoundDuration":139431,"Delta":230861158},{"NoteNumber":57,"Velocity":44,"Duration":288580,"SoundDuration":288580,"Delta":230861158},{"NoteNumber":75,"Velocity":58,"Duration":149149,"SoundDuration":149149,"Delta":231000589},{"NoteNumber":67,"Velocity":59,"Duration":560976,"SoundDuration":560976,"Delta":231149739},{"NoteNumber":74,"Velocity":74,"Duration":278862,"SoundDuration":278862,"Delta":231149739},{"NoteNumber":50,"Velocity":39,"Duration":1139335,"SoundDuration":1139335,"Delta":231149739},{"NoteNumber":59,"Velocity":48,"Duration":278862,"SoundDuration":278862,"Delta":231149739},{"NoteNumber":71,"Velocity":58,"Duration":141056,"SoundDuration":141056,"Delta":231428601},{"NoteNumber":62,"Velocity":44,"Duration":141056,"SoundDuration":141056,"Delta":231428601},{"NoteNumber":72,"Velocity":58,"Duration":141057,"SoundDuration":141057,"Delta":231569658},{"NoteNumber":64,"Velocity":44,"Duration":141057,"SoundDuration":141057,"Delta":231569658},{"NoteNumber":71,"Velocity":52,"Duration":292454,"SoundDuration":292454,"Delta":231710715},{"NoteNumber":67,"Velocity":49,"Duration":578359,"SoundDuration":578359,"Delta":231710715},{"NoteNumber":74,"Velocity":68,"Duration":292454,"SoundDuration":292454,"Delta":231710715},{"NoteNumber":62,"Velocity":49,"Duration":146227,"SoundDuration":146227,"Delta":231710715},{"NoteNumber":71,"Velocity":55,"Duration":142952,"SoundDuration":142952,"Delta":232003170},{"NoteNumber":62,"Velocity":45,"Duration":142952,"SoundDuration":142952,"Delta":232003170},{"NoteNumber":72,"Velocity":55,"Duration":142952,"SoundDuration":142952,"Delta":232146122},{"NoteNumber":62,"Velocity":46,"Duration":584606,"SoundDuration":584606,"Delta":232289075},{"NoteNumber":66,"Velocity":46,"Duration":584606,"SoundDuration":584606,"Delta":232289075},{"NoteNumber":71,"Velocity":60,"Duration":287191,"SoundDuration":287191,"Delta":232289075},{"NoteNumber":50,"Velocity":36,"Duration":584606,"SoundDuration":584606,"Delta":232289075},{"NoteNumber":60,"Velocity":44,"Duration":287191,"SoundDuration":287191,"Delta":232289075},{"NoteNumber":69,"Velocity":55,"Duration":148265,"SoundDuration":148265,"Delta":232576266},{"NoteNumber":60,"Velocity":41,"Duration":297415,"SoundDuration":297415,"Delta":232576266},{"NoteNumber":71,"Velocity":55,"Duration":149149,"SoundDuration":149149,"Delta":232724531},{"NoteNumber":62,"Velocity":55,"Duration":275229,"SoundDuration":275229,"Delta":232873681},{"NoteNumber":67,"Velocity":60,"Duration":275229,"SoundDuration":275229,"Delta":232873681},{"NoteNumber":43,"Velocity":39,"Duration":810943,"SoundDuration":810943,"Delta":232873681},{"NoteNumber":59,"Velocity":47,"Duration":810943,"SoundDuration":810943,"Delta":232873681},{"NoteNumber":62,"Velocity":51,"Duration":133928,"SoundDuration":133928,"Delta":233148911},{"NoteNumber":67,"Velocity":56,"Duration":133928,"SoundDuration":133928,"Delta":233148911},{"NoteNumber":71,"Velocity":51,"Duration":267856,"SoundDuration":267856,"Delta":233148911},{"NoteNumber":66,"Velocity":56,"Duration":133928,"SoundDuration":133928,"Delta":233282839},{"NoteNumber":65,"Velocity":60,"Duration":267857,"SoundDuration":267857,"Delta":233416768},{"NoteNumber":71,"Velocity":55,"Duration":267857,"SoundDuration":267857,"Delta":233416768},{"NoteNumber":64,"Velocity":56,"Duration":133928,"SoundDuration":133928,"Delta":233684625},{"NoteNumber":71,"Velocity":51,"Duration":267856,"SoundDuration":267856,"Delta":233684625},{"NoteNumber":38,"Velocity":34,"Duration":267856,"SoundDuration":267856,"Delta":233684625},{"NoteNumber":50,"Velocity":40,"Duration":267856,"SoundDuration":267856,"Delta":233684625},{"NoteNumber":63,"Velocity":60,"Duration":133928,"SoundDuration":133928,"Delta":233818553},{"NoteNumber":62,"Velocity":63,"Duration":267856,"SoundDuration":267856,"Delta":233952482},{"NoteNumber":66,"Velocity":58,"Duration":267856,"SoundDuration":267856,"Delta":233952482},{"NoteNumber":72,"Velocity":58,"Duration":267856,"SoundDuration":267856,"Delta":233952482},{"NoteNumber":45,"Velocity":37,"Duration":267856,"SoundDuration":267856,"Delta":233952482},{"NoteNumber":57,"Velocity":45,"Duration":267856,"SoundDuration":267856,"Delta":233952482},{"NoteNumber":66,"Velocity":58,"Duration":138580,"SoundDuration":138580,"Delta":234220339},{"NoteNumber":72,"Velocity":53,"Duration":277162,"SoundDuration":277162,"Delta":234220339},{"NoteNumber":38,"Velocity":41,"Duration":277162,"SoundDuration":277162,"Delta":234220339},{"NoteNumber":50,"Velocity":49,"Duration":277162,"SoundDuration":277162,"Delta":234220339},{"NoteNumber":62,"Velocity":58,"Duration":138581,"SoundDuration":138581,"Delta":234358920},{"NoteNumber":62,"Velocity":60,"Duration":267856,"SoundDuration":267856,"Delta":234497501},{"NoteNumber":67,"Velocity":66,"Duration":267856,"SoundDuration":267856,"Delta":234497501},{"NoteNumber":71,"Velocity":60,"Duration":267856,"SoundDuration":267856,"Delta":234497501},{"NoteNumber":43,"Velocity":44,"Duration":803571,"SoundDuration":803571,"Delta":234497501},{"NoteNumber":55,"Velocity":52,"Duration":803571,"SoundDuration":803571,"Delta":234497501},{"NoteNumber":62,"Velocity":55,"Duration":133928,"SoundDuration":133928,"Delta":234765358},{"NoteNumber":67,"Velocity":60,"Duration":133928,"SoundDuration":133928,"Delta":234765358},{"NoteNumber":71,"Velocity":55,"Duration":267857,"SoundDuration":267857,"Delta":234765358},{"NoteNumber":66,"Velocity":60,"Duration":133928,"SoundDuration":133928,"Delta":234899286},{"NoteNumber":65,"Velocity":64,"Duration":267856,"SoundDuration":267856,"Delta":235033215},{"NoteNumber":71,"Velocity":59,"Duration":267856,"SoundDuration":267856,"Delta":235033215},{"NoteNumber":64,"Velocity":56,"Duration":135734,"SoundDuration":135734,"Delta":235301072},{"NoteNumber":71,"Velocity":51,"Duration":271468,"SoundDuration":271468,"Delta":235301072},{"NoteNumber":38,"Velocity":42,"Duration":271468,"SoundDuration":271468,"Delta":235301072},{"NoteNumber":50,"Velocity":50,"Duration":271468,"SoundDuration":271468,"Delta":235301072},{"NoteNumber":63,"Velocity":57,"Duration":135734,"SoundDuration":135734,"Delta":235436806},{"NoteNumber":62,"Velocity":63,"Duration":267856,"SoundDuration":267856,"Delta":235572540},{"NoteNumber":66,"Velocity":58,"Duration":267856,"SoundDuration":267856,"Delta":235572540},{"NoteNumber":72,"Velocity":58,"Duration":267856,"SoundDuration":267856,"Delta":235572540},{"NoteNumber":45,"Velocity":39,"Duration":267856,"SoundDuration":267856,"Delta":235572540},{"NoteNumber":57,"Velocity":47,"Duration":267856,"SoundDuration":267856,"Delta":235572540},{"NoteNumber":66,"Velocity":57,"Duration":136363,"SoundDuration":136363,"Delta":235840397},{"NoteNumber":72,"Velocity":52,"Duration":272727,"SoundDuration":272727,"Delta":235840397},{"NoteNumber":38,"Velocity":37,"Duration":272727,"SoundDuration":272727,"Delta":235840397},{"NoteNumber":50,"Velocity":44,"Duration":272727,"SoundDuration":272727,"Delta":235840397},{"NoteNumber":62,"Velocity":57,"Duration":136363,"SoundDuration":136363,"Delta":235976761},{"NoteNumber":62,"Velocity":60,"Duration":264317,"SoundDuration":264317,"Delta":236113125},{"NoteNumber":67,"Velocity":66,"Duration":264317,"SoundDuration":264317,"Delta":236113125},{"NoteNumber":71,"Velocity":60,"Duration":264317,"SoundDuration":264317,"Delta":236113125},{"NoteNumber":43,"Velocity":44,"Duration":132158,"SoundDuration":132158,"Delta":236113125},{"NoteNumber":55,"Velocity":52,"Duration":132158,"SoundDuration":132158,"Delta":236113125},{"NoteNumber":62,"Velocity":55,"Duration":132158,"SoundDuration":132158,"Delta":236377442},{"NoteNumber":67,"Velocity":60,"Duration":132158,"SoundDuration":132158,"Delta":236377442},{"NoteNumber":71,"Velocity":55,"Duration":264317,"SoundDuration":264317,"Delta":236377442},{"NoteNumber":66,"Velocity":60,"Duration":132158,"SoundDuration":132158,"Delta":236509600},{"NoteNumber":62,"Velocity":59,"Duration":264316,"SoundDuration":264316,"Delta":236641759},{"NoteNumber":67,"Velocity":59,"Duration":264316,"SoundDuration":264316,"Delta":236641759},{"NoteNumber":71,"Velocity":64,"Duration":264316,"SoundDuration":264316,"Delta":236641759},{"NoteNumber":55,"Velocity":52,"Duration":132158,"SoundDuration":132158,"Delta":236641759},{"NoteNumber":71,"Velocity":56,"Duration":133928,"SoundDuration":133928,"Delta":236906076},{"NoteNumber":67,"Velocity":51,"Duration":133928,"SoundDuration":133928,"Delta":236906076},{"NoteNumber":74,"Velocity":51,"Duration":267856,"SoundDuration":267856,"Delta":236906076},{"NoteNumber":70,"Velocity":57,"Duration":133928,"SoundDuration":133928,"Delta":237040004},{"NoteNumber":67,"Velocity":58,"Duration":262008,"SoundDuration":262008,"Delta":237173933},{"NoteNumber":71,"Velocity":58,"Duration":262008,"SoundDuration":262008,"Delta":237173933},{"NoteNumber":74,"Velocity":63,"Duration":262008,"SoundDuration":262008,"Delta":237173933},{"NoteNumber":62,"Velocity":47,"Duration":131004,"SoundDuration":131004,"Delta":237173933},{"NoteNumber":71,"Velocity":52,"Duration":133333,"SoundDuration":133333,"Delta":237435941},{"NoteNumber":74,"Velocity":57,"Duration":133333,"SoundDuration":133333,"Delta":237435941},{"NoteNumber":79,"Velocity":52,"Duration":266666,"SoundDuration":266666,"Delta":237435941},{"NoteNumber":73,"Velocity":57,"Duration":133333,"SoundDuration":133333,"Delta":237569274},{"NoteNumber":74,"Velocity":60,"Duration":260869,"SoundDuration":260869,"Delta":237702608},{"NoteNumber":79,"Velocity":66,"Duration":260869,"SoundDuration":260869,"Delta":237702608},{"NoteNumber":83,"Velocity":60,"Duration":260869,"SoundDuration":260869,"Delta":237702608},{"NoteNumber":67,"Velocity":52,"Duration":130434,"SoundDuration":130434,"Delta":237702608},{"NoteNumber":74,"Velocity":55,"Duration":130434,"SoundDuration":130434,"Delta":237963477},{"NoteNumber":79,"Velocity":60,"Duration":130434,"SoundDuration":130434,"Delta":237963477},{"NoteNumber":83,"Velocity":55,"Duration":260869,"SoundDuration":260869,"Delta":237963477},{"NoteNumber":78,"Velocity":60,"Duration":130434,"SoundDuration":130434,"Delta":238093912},{"NoteNumber":74,"Velocity":59,"Duration":260869,"SoundDuration":260869,"Delta":238224347},{"NoteNumber":79,"Velocity":59,"Duration":260869,"SoundDuration":260869,"Delta":238224347},{"NoteNumber":83,"Velocity":64,"Duration":260869,"SoundDuration":260869,"Delta":238224347},{"NoteNumber":71,"Velocity":52,"Duration":130434,"SoundDuration":130434,"Delta":238224347},{"NoteNumber":83,"Velocity":56,"Duration":132743,"SoundDuration":132743,"Delta":238485216},{"NoteNumber":79,"Velocity":51,"Duration":132743,"SoundDuration":132743,"Delta":238485216},{"NoteNumber":86,"Velocity":51,"Duration":265486,"SoundDuration":265486,"Delta":238485216},{"NoteNumber":82,"Velocity":57,"Duration":132743,"SoundDuration":132743,"Delta":238617959},{"NoteNumber":79,"Velocity":57,"Duration":260869,"SoundDuration":260869,"Delta":238750703},{"NoteNumber":83,"Velocity":57,"Duration":260869,"SoundDuration":260869,"Delta":238750703},{"NoteNumber":86,"Velocity":57,"Duration":260869,"SoundDuration":260869,"Delta":238750703},{"NoteNumber":74,"Velocity":47,"Duration":130434,"SoundDuration":130434,"Delta":238750703},{"NoteNumber":83,"Velocity":51,"Duration":128755,"SoundDuration":128755,"Delta":239011572},{"NoteNumber":86,"Velocity":56,"Duration":128755,"SoundDuration":128755,"Delta":239011572},{"NoteNumber":91,"Velocity":51,"Duration":257510,"SoundDuration":257510,"Delta":239011572},{"NoteNumber":85,"Velocity":56,"Duration":128755,"SoundDuration":128755,"Delta":239140327},{"NoteNumber":83,"Velocity":57,"Duration":259740,"SoundDuration":259740,"Delta":239269083},{"NoteNumber":86,"Velocity":62,"Duration":259740,"SoundDuration":259740,"Delta":239269083},{"NoteNumber":91,"Velocity":57,"Duration":259740,"SoundDuration":259740,"Delta":239269083},{"NoteNumber":79,"Velocity":47,"Duration":129870,"SoundDuration":129870,"Delta":239269083},{"NoteNumber":83,"Velocity":50,"Duration":129870,"SoundDuration":129870,"Delta":239528823},{"NoteNumber":86,"Velocity":55,"Duration":129870,"SoundDuration":129870,"Delta":239528823},{"NoteNumber":91,"Velocity":50,"Duration":259740,"SoundDuration":259740,"Delta":239528823},{"NoteNumber":82,"Velocity":53,"Duration":129870,"SoundDuration":129870,"Delta":239658693},{"NoteNumber":83,"Velocity":53,"Duration":259740,"SoundDuration":259740,"Delta":239788564},{"NoteNumber":86,"Velocity":58,"Duration":259740,"SoundDuration":259740,"Delta":239788564},{"NoteNumber":91,"Velocity":53,"Duration":259740,"SoundDuration":259740,"Delta":239788564},{"NoteNumber":79,"Velocity":45,"Duration":129870,"SoundDuration":129870,"Delta":239788564},{"NoteNumber":83,"Velocity":48,"Duration":129870,"SoundDuration":129870,"Delta":240048304},{"NoteNumber":86,"Velocity":52,"Duration":129870,"SoundDuration":129870,"Delta":240048304},{"NoteNumber":91,"Velocity":48,"Duration":259740,"SoundDuration":259740,"Delta":240048304},{"NoteNumber":82,"Velocity":51,"Duration":129870,"SoundDuration":129870,"Delta":240178174},{"NoteNumber":83,"Velocity":51,"Duration":259740,"SoundDuration":259740,"Delta":240308045},{"NoteNumber":86,"Velocity":56,"Duration":259740,"SoundDuration":259740,"Delta":240308045},{"NoteNumber":91,"Velocity":51,"Duration":259740,"SoundDuration":259740,"Delta":240308045},{"NoteNumber":79,"Velocity":42,"Duration":129870,"SoundDuration":129870,"Delta":240308045},{"NoteNumber":83,"Velocity":45,"Duration":133333,"SoundDuration":133333,"Delta":240567785},{"NoteNumber":86,"Velocity":49,"Duration":133333,"SoundDuration":133333,"Delta":240567785},{"NoteNumber":91,"Velocity":45,"Duration":266666,"SoundDuration":266666,"Delta":240567785},{"NoteNumber":82,"Velocity":49,"Duration":133333,"SoundDuration":133333,"Delta":240701118},{"NoteNumber":83,"Velocity":49,"Duration":260869,"SoundDuration":260869,"Delta":240834452},{"NoteNumber":86,"Velocity":53,"Duration":260869,"SoundDuration":260869,"Delta":240834452},{"NoteNumber":91,"Velocity":49,"Duration":260869,"SoundDuration":260869,"Delta":240834452},{"NoteNumber":79,"Velocity":40,"Duration":130434,"SoundDuration":130434,"Delta":240834452},{"NoteNumber":83,"Velocity":42,"Duration":133928,"SoundDuration":133928,"Delta":241095321},{"NoteNumber":86,"Velocity":46,"Duration":133928,"SoundDuration":133928,"Delta":241095321},{"NoteNumber":91,"Velocity":42,"Duration":268145,"SoundDuration":268145,"Delta":241095321},{"NoteNumber":82,"Velocity":46,"Duration":134217,"SoundDuration":134217,"Delta":241229250},{"NoteNumber":83,"Velocity":46,"Duration":267251,"SoundDuration":267251,"Delta":241363467},{"NoteNumber":86,"Velocity":50,"Duration":267251,"SoundDuration":267251,"Delta":241363467},{"NoteNumber":91,"Velocity":46,"Duration":267251,"SoundDuration":267251,"Delta":241363467},{"NoteNumber":79,"Velocity":38,"Duration":132743,"SoundDuration":132743,"Delta":241363467},{"NoteNumber":83,"Velocity":40,"Duration":137766,"SoundDuration":137766,"Delta":241630719},{"NoteNumber":86,"Velocity":44,"Duration":137766,"SoundDuration":137766,"Delta":241630719},{"NoteNumber":91,"Velocity":40,"Duration":275532,"SoundDuration":275532,"Delta":241630719},{"NoteNumber":82,"Velocity":42,"Duration":137766,"SoundDuration":137766,"Delta":241768485},{"NoteNumber":83,"Velocity":44,"Duration":273943,"SoundDuration":273943,"Delta":241906251},{"NoteNumber":86,"Velocity":48,"Duration":273943,"SoundDuration":273943,"Delta":241906251},{"NoteNumber":91,"Velocity":44,"Duration":273943,"SoundDuration":273943,"Delta":241906251},{"NoteNumber":79,"Velocity":36,"Duration":137369,"SoundDuration":137369,"Delta":241906251},{"NoteNumber":83,"Velocity":38,"Duration":139625,"SoundDuration":139625,"Delta":242180195},{"NoteNumber":86,"Velocity":41,"Duration":139625,"SoundDuration":139625,"Delta":242180195},{"NoteNumber":91,"Velocity":38,"Duration":279251,"SoundDuration":279251,"Delta":242180195},{"NoteNumber":82,"Velocity":40,"Duration":139625,"SoundDuration":139625,"Delta":242319821},{"NoteNumber":83,"Velocity":33,"Duration":2731554,"SoundDuration":2731554,"Delta":242459447},{"NoteNumber":86,"Velocity":33,"Duration":2731554,"SoundDuration":2731554,"Delta":242459447},{"NoteNumber":91,"Velocity":37,"Duration":2731554,"SoundDuration":2731554,"Delta":242459447},{"NoteNumber":67,"Velocity":29,"Duration":2731554,"SoundDuration":2731554,"Delta":242459447},{"NoteNumber":74,"Velocity":34,"Duration":2731554,"SoundDuration":2731554,"Delta":242459447},{"NoteNumber":83,"Velocity":81,"Duration":597014,"SoundDuration":597014,"Delta":245191002},{"NoteNumber":86,"Velocity":81,"Duration":597014,"SoundDuration":597014,"Delta":245191002},{"NoteNumber":91,"Velocity":92,"Duration":597014,"SoundDuration":597014,"Delta":245191002},{"NoteNumber":95,"Velocity":92,"Duration":597014,"SoundDuration":597014,"Delta":245191002},{"NoteNumber":67,"Velocity":71,"Duration":597014,"SoundDuration":597014,"Delta":245191002},{"NoteNumber":74,"Velocity":71,"Duration":597014,"SoundDuration":597014,"Delta":245191002},{"NoteNumber":79,"Velocity":80,"Duration":597014,"SoundDuration":597014,"Delta":245191002},{"NoteNumber":55,"Velocity":99,"Duration":1791044,"SoundDuration":1791044,"Delta":245788017},{"NoteNumber":31,"Velocity":75,"Duration":1791044,"SoundDuration":1791044,"Delta":245788017},{"NoteNumber":43,"Velocity":85,"Duration":1791044,"SoundDuration":1791044,"Delta":245788017}],"license":{"name":"Creative Commons Attribution-ShareAlike 3.0 Germany","url":"http://creativecommons.org/licenses/by-sa/3.0/de/deed.en","text":"The MIDI, audio (MP3, OGG) and video files of Bernd Krueger are licensed under the cc-by-sa Germany License. This means that you can use and adapt the files, as long as you attribute the copyright holder.\n\nName: Bernd Krueger\nSource: http://www.piano-midi.de\n\nThe distribution or public playback of the files is only allowed under identical license conditions.\n\nThe scores are open source.","attribution":"MIDI files by Bernd Krueger (piano-midi.de)","attributionUrl":"http://www.piano-midi.de"}}