{"title":"Granada","artist":"Albéniz","durationMs":237083,"midiSha256":"822be9f9c60f4d86dfcf53a315f75ee26989ed7b80db6ce4e5458f30e94621cf","midiObject":[{"NoteNumber":41,"Velocity":35,"Duration":1610196,"SoundDuration":1610196,"Delta":0},{"NoteNumber":72,"Velocity":29,"Duration":613415,"SoundDuration":613415,"Delta":84650},{"NoteNumber":48,"Velocity":37,"Duration":1525546,"SoundDuration":1525546,"Delta":84650},{"NoteNumber":77,"Velocity":29,"Duration":556982,"SoundDuration":556982,"Delta":141083},{"NoteNumber":57,"Velocity":39,"Duration":1440896,"SoundDuration":1440896,"Delta":169300},{"NoteNumber":81,"Velocity":29,"Duration":500548,"SoundDuration":500548,"Delta":197517},{"NoteNumber":84,"Velocity":36,"Duration":444115,"SoundDuration":444115,"Delta":253950},{"NoteNumber":65,"Velocity":50,"Duration":1356246,"SoundDuration":1356246,"Delta":253950},{"NoteNumber":81,"Velocity":27,"Duration":456065,"SoundDuration":456065,"Delta":698066},{"NoteNumber":84,"Velocity":34,"Duration":456065,"SoundDuration":456065,"Delta":698066},{"NoteNumber":77,"Velocity":27,"Duration":456065,"SoundDuration":456065,"Delta":698066},{"NoteNumber":72,"Velocity":27,"Duration":456065,"SoundDuration":456065,"Delta":698066},{"NoteNumber":84,"Velocity":34,"Duration":342049,"SoundDuration":342049,"Delta":1154131},{"NoteNumber":72,"Velocity":27,"Duration":342049,"SoundDuration":342049,"Delta":1154131},{"NoteNumber":81,"Velocity":27,"Duration":342049,"SoundDuration":342049,"Delta":1154131},{"NoteNumber":77,"Velocity":27,"Duration":342049,"SoundDuration":342049,"Delta":1154131},{"NoteNumber":72,"Velocity":29,"Duration":571691,"SoundDuration":571691,"Delta":1496180},{"NoteNumber":77,"Velocity":29,"Duration":533686,"SoundDuration":533686,"Delta":1534186},{"NoteNumber":81,"Velocity":29,"Duration":495680,"SoundDuration":495680,"Delta":1572191},{"NoteNumber":84,"Velocity":36,"Duration":457675,"SoundDuration":457675,"Delta":1610197},{"NoteNumber":64,"Velocity":44,"Duration":232450,"SoundDuration":232450,"Delta":1835422},{"NoteNumber":77,"Velocity":27,"Duration":459447,"SoundDuration":459447,"Delta":2067872},{"NoteNumber":72,"Velocity":27,"Duration":459447,"SoundDuration":459447,"Delta":2067872},{"NoteNumber":84,"Velocity":34,"Duration":459447,"SoundDuration":459447,"Delta":2067872},{"NoteNumber":81,"Velocity":27,"Duration":459447,"SoundDuration":459447,"Delta":2067872},{"NoteNumber":62,"Velocity":49,"Duration":226997,"SoundDuration":226997,"Delta":2067872},{"NoteNumber":60,"Velocity":44,"Duration":232450,"SoundDuration":232450,"Delta":2294869},{"NoteNumber":77,"Velocity":27,"Duration":329527,"SoundDuration":329527,"Delta":2527319},{"NoteNumber":84,"Velocity":34,"Duration":329527,"SoundDuration":329527,"Delta":2527319},{"NoteNumber":81,"Velocity":27,"Duration":329527,"SoundDuration":329527,"Delta":2527319},{"NoteNumber":72,"Velocity":27,"Duration":329527,"SoundDuration":329527,"Delta":2527319},{"NoteNumber":62,"Velocity":49,"Duration":211954,"SoundDuration":211954,"Delta":2527319},{"NoteNumber":64,"Velocity":44,"Duration":235146,"SoundDuration":235146,"Delta":2739274},{"NoteNumber":72,"Velocity":29,"Duration":551538,"SoundDuration":551538,"Delta":2856847},{"NoteNumber":77,"Velocity":29,"Duration":512347,"SoundDuration":512347,"Delta":2896038},{"NoteNumber":81,"Velocity":29,"Duration":473156,"SoundDuration":473156,"Delta":2935229},{"NoteNumber":84,"Velocity":36,"Duration":433964,"SoundDuration":433964,"Delta":2974420},{"NoteNumber":53,"Velocity":39,"Duration":1352209,"SoundDuration":1352209,"Delta":2974420},{"NoteNumber":62,"Velocity":45,"Duration":144655,"SoundDuration":144655,"Delta":2974420},{"NoteNumber":64,"Velocity":41,"Duration":144655,"SoundDuration":144655,"Delta":3119075},{"NoteNumber":62,"Velocity":41,"Duration":144654,"SoundDuration":144654,"Delta":3263730},{"NoteNumber":81,"Velocity":27,"Duration":456065,"SoundDuration":456065,"Delta":3408385},{"NoteNumber":84,"Velocity":34,"Duration":456065,"SoundDuration":456065,"Delta":3408385},{"NoteNumber":72,"Velocity":27,"Duration":456065,"SoundDuration":456065,"Delta":3408385},{"NoteNumber":77,"Velocity":27,"Duration":456065,"SoundDuration":456065,"Delta":3408385},{"NoteNumber":60,"Velocity":46,"Duration":2131151,"SoundDuration":2131151,"Delta":3408385},{"NoteNumber":81,"Velocity":27,"Duration":346633,"SoundDuration":346633,"Delta":3864451},{"NoteNumber":77,"Velocity":27,"Duration":346633,"SoundDuration":346633,"Delta":3864451},{"NoteNumber":84,"Velocity":34,"Duration":346633,"SoundDuration":346633,"Delta":3864451},{"NoteNumber":72,"Velocity":27,"Duration":346633,"SoundDuration":346633,"Delta":3864451},{"NoteNumber":72,"Velocity":29,"Duration":565657,"SoundDuration":565657,"Delta":4211085},{"NoteNumber":77,"Velocity":29,"Duration":527142,"SoundDuration":527142,"Delta":4249599},{"NoteNumber":81,"Velocity":29,"Duration":488627,"SoundDuration":488627,"Delta":4288114},{"NoteNumber":84,"Velocity":36,"Duration":450112,"SoundDuration":450112,"Delta":4326629},{"NoteNumber":81,"Velocity":27,"Duration":450112,"SoundDuration":450112,"Delta":4776742},{"NoteNumber":84,"Velocity":34,"Duration":450112,"SoundDuration":450112,"Delta":4776742},{"NoteNumber":77,"Velocity":27,"Duration":450112,"SoundDuration":450112,"Delta":4776742},{"NoteNumber":72,"Velocity":27,"Duration":450112,"SoundDuration":450112,"Delta":4776742},{"NoteNumber":84,"Velocity":34,"Duration":397332,"SoundDuration":397332,"Delta":5226854},{"NoteNumber":72,"Velocity":27,"Duration":397332,"SoundDuration":397332,"Delta":5226854},{"NoteNumber":81,"Velocity":27,"Duration":397332,"SoundDuration":397332,"Delta":5226854},{"NoteNumber":77,"Velocity":27,"Duration":397332,"SoundDuration":397332,"Delta":5226854},{"NoteNumber":41,"Velocity":34,"Duration":1610196,"SoundDuration":1610196,"Delta":5539537},{"NoteNumber":72,"Velocity":29,"Duration":613415,"SoundDuration":613415,"Delta":5624187},{"NoteNumber":48,"Velocity":37,"Duration":1525546,"SoundDuration":1525546,"Delta":5624187},{"NoteNumber":77,"Velocity":29,"Duration":556982,"SoundDuration":556982,"Delta":5680621},{"NoteNumber":57,"Velocity":39,"Duration":1440896,"SoundDuration":1440896,"Delta":5708837},{"NoteNumber":81,"Velocity":29,"Duration":500548,"SoundDuration":500548,"Delta":5737054},{"NoteNumber":84,"Velocity":36,"Duration":444115,"SoundDuration":444115,"Delta":5793487},{"NoteNumber":65,"Velocity":50,"Duration":1356246,"SoundDuration":1356246,"Delta":5793487},{"NoteNumber":77,"Velocity":27,"Duration":456065,"SoundDuration":456065,"Delta":6237603},{"NoteNumber":72,"Velocity":27,"Duration":456065,"SoundDuration":456065,"Delta":6237603},{"NoteNumber":84,"Velocity":34,"Duration":456065,"SoundDuration":456065,"Delta":6237603},{"NoteNumber":81,"Velocity":27,"Duration":456065,"SoundDuration":456065,"Delta":6237603},{"NoteNumber":77,"Velocity":27,"Duration":342049,"SoundDuration":342049,"Delta":6693668},{"NoteNumber":84,"Velocity":34,"Duration":342049,"SoundDuration":342049,"Delta":6693668},{"NoteNumber":81,"Velocity":27,"Duration":342049,"SoundDuration":342049,"Delta":6693668},{"NoteNumber":72,"Velocity":27,"Duration":342049,"SoundDuration":342049,"Delta":6693668},{"NoteNumber":72,"Velocity":29,"Duration":564646,"SoundDuration":564646,"Delta":7035717},{"NoteNumber":77,"Velocity":29,"Duration":526640,"SoundDuration":526640,"Delta":7073723},{"NoteNumber":81,"Velocity":29,"Duration":488635,"SoundDuration":488635,"Delta":7111728},{"NoteNumber":84,"Velocity":36,"Duration":450630,"SoundDuration":450630,"Delta":7149734},{"NoteNumber":64,"Velocity":44,"Duration":230591,"SoundDuration":230591,"Delta":7369772},{"NoteNumber":84,"Velocity":34,"Duration":440178,"SoundDuration":440178,"Delta":7600364},{"NoteNumber":72,"Velocity":27,"Duration":440178,"SoundDuration":440178,"Delta":7600364},{"NoteNumber":81,"Velocity":27,"Duration":440178,"SoundDuration":440178,"Delta":7600364},{"NoteNumber":77,"Velocity":27,"Duration":440178,"SoundDuration":440178,"Delta":7600364},{"NoteNumber":62,"Velocity":49,"Duration":216731,"SoundDuration":216731,"Delta":7600364},{"NoteNumber":60,"Velocity":44,"Duration":223447,"SoundDuration":223447,"Delta":7817096},{"NoteNumber":77,"Velocity":27,"Duration":330347,"SoundDuration":330347,"Delta":8040543},{"NoteNumber":72,"Velocity":27,"Duration":330347,"SoundDuration":330347,"Delta":8040543},{"NoteNumber":84,"Velocity":34,"Duration":330347,"SoundDuration":330347,"Delta":8040543},{"NoteNumber":81,"Velocity":27,"Duration":330347,"SoundDuration":330347,"Delta":8040543},{"NoteNumber":62,"Velocity":49,"Duration":220231,"SoundDuration":220231,"Delta":8040543},{"NoteNumber":64,"Velocity":44,"Duration":220231,"SoundDuration":220231,"Delta":8260775},{"NoteNumber":72,"Velocity":29,"Duration":540903,"SoundDuration":540903,"Delta":8370891},{"NoteNumber":77,"Velocity":29,"Duration":504197,"SoundDuration":504197,"Delta":8407596},{"NoteNumber":81,"Velocity":29,"Duration":467492,"SoundDuration":467492,"Delta":8444301},{"NoteNumber":84,"Velocity":36,"Duration":430787,"SoundDuration":430787,"Delta":8481007},{"NoteNumber":62,"Velocity":48,"Duration":143595,"SoundDuration":143595,"Delta":8481007},{"NoteNumber":53,"Velocity":40,"Duration":1349031,"SoundDuration":1349031,"Delta":8481007},{"NoteNumber":64,"Velocity":41,"Duration":143595,"SoundDuration":143595,"Delta":8624602},{"NoteNumber":62,"Velocity":41,"Duration":143595,"SoundDuration":143595,"Delta":8768198},{"NoteNumber":81,"Velocity":27,"Duration":456065,"SoundDuration":456065,"Delta":8911794},{"NoteNumber":77,"Velocity":27,"Duration":456065,"SoundDuration":456065,"Delta":8911794},{"NoteNumber":84,"Velocity":34,"Duration":456065,"SoundDuration":456065,"Delta":8911794},{"NoteNumber":72,"Velocity":27,"Duration":456065,"SoundDuration":456065,"Delta":8911794},{"NoteNumber":60,"Velocity":46,"Duration":2117184,"SoundDuration":2117184,"Delta":8911794},{"NoteNumber":81,"Velocity":27,"Duration":346633,"SoundDuration":346633,"Delta":9367859},{"NoteNumber":84,"Velocity":34,"Duration":346633,"SoundDuration":346633,"Delta":9367859},{"NoteNumber":72,"Velocity":27,"Duration":346633,"SoundDuration":346633,"Delta":9367859},{"NoteNumber":77,"Velocity":27,"Duration":346633,"SoundDuration":346633,"Delta":9367859},{"NoteNumber":72,"Velocity":29,"Duration":565657,"SoundDuration":565657,"Delta":9714493},{"NoteNumber":77,"Velocity":29,"Duration":527142,"SoundDuration":527142,"Delta":9753008},{"NoteNumber":81,"Velocity":29,"Duration":488627,"SoundDuration":488627,"Delta":9791523},{"NoteNumber":84,"Velocity":36,"Duration":450112,"SoundDuration":450112,"Delta":9830038},{"NoteNumber":84,"Velocity":34,"Duration":450112,"SoundDuration":450112,"Delta":10280150},{"NoteNumber":72,"Velocity":27,"Duration":450112,"SoundDuration":450112,"Delta":10280150},{"NoteNumber":77,"Velocity":27,"Duration":450112,"SoundDuration":450112,"Delta":10280150},{"NoteNumber":81,"Velocity":27,"Duration":450112,"SoundDuration":450112,"Delta":10280150},{"NoteNumber":81,"Velocity":27,"Duration":361582,"SoundDuration":361582,"Delta":10730263},{"NoteNumber":84,"Velocity":34,"Duration":361582,"SoundDuration":361582,"Delta":10730263},{"NoteNumber":77,"Velocity":27,"Duration":361582,"SoundDuration":361582,"Delta":10730263},{"NoteNumber":72,"Velocity":27,"Duration":361582,"SoundDuration":361582,"Delta":10730263},{"NoteNumber":76,"Velocity":29,"Duration":552288,"SoundDuration":552288,"Delta":11091845},{"NoteNumber":72,"Velocity":29,"Duration":591065,"SoundDuration":591065,"Delta":11091845},{"NoteNumber":41,"Velocity":40,"Duration":591065,"SoundDuration":591065,"Delta":11091845},{"NoteNumber":48,"Velocity":40,"Duration":528199,"SoundDuration":528199,"Delta":11154712},{"NoteNumber":84,"Velocity":36,"Duration":465332,"SoundDuration":465332,"Delta":11217579},{"NoteNumber":82,"Velocity":29,"Duration":504110,"SoundDuration":504110,"Delta":11217579},{"NoteNumber":55,"Velocity":47,"Duration":232666,"SoundDuration":232666,"Delta":11217579},{"NoteNumber":57,"Velocity":51,"Duration":232666,"SoundDuration":232666,"Delta":11450245},{"NoteNumber":84,"Velocity":34,"Duration":480518,"SoundDuration":480518,"Delta":11682911},{"NoteNumber":72,"Velocity":27,"Duration":480518,"SoundDuration":480518,"Delta":11682911},{"NoteNumber":82,"Velocity":27,"Duration":480518,"SoundDuration":480518,"Delta":11682911},{"NoteNumber":76,"Velocity":27,"Duration":480518,"SoundDuration":480518,"Delta":11682911},{"NoteNumber":58,"Velocity":53,"Duration":480518,"SoundDuration":480518,"Delta":11682911},{"NoteNumber":76,"Velocity":27,"Duration":342049,"SoundDuration":342049,"Delta":12163429},{"NoteNumber":72,"Velocity":27,"Duration":342049,"SoundDuration":342049,"Delta":12163429},{"NoteNumber":84,"Velocity":34,"Duration":342049,"SoundDuration":342049,"Delta":12163429},{"NoteNumber":82,"Velocity":27,"Duration":342049,"SoundDuration":342049,"Delta":12163429},{"NoteNumber":58,"Velocity":51,"Duration":228032,"SoundDuration":228032,"Delta":12163429},{"NoteNumber":60,"Velocity":53,"Duration":228032,"SoundDuration":228032,"Delta":12391462},{"NoteNumber":76,"Velocity":29,"Duration":532076,"SoundDuration":532076,"Delta":12505478},{"NoteNumber":72,"Velocity":29,"Duration":570081,"SoundDuration":570081,"Delta":12505478},{"NoteNumber":82,"Velocity":29,"Duration":494639,"SoundDuration":494639,"Delta":12619495},{"NoteNumber":84,"Velocity":36,"Duration":456065,"SoundDuration":456065,"Delta":12619495},{"NoteNumber":62,"Velocity":58,"Duration":687511,"SoundDuration":687511,"Delta":12619495},{"NoteNumber":82,"Velocity":27,"Duration":456671,"SoundDuration":456671,"Delta":13075560},{"NoteNumber":76,"Velocity":27,"Duration":456671,"SoundDuration":456671,"Delta":13075560},{"NoteNumber":84,"Velocity":34,"Duration":456671,"SoundDuration":456671,"Delta":13075560},{"NoteNumber":72,"Velocity":27,"Duration":456671,"SoundDuration":456671,"Delta":13075560},{"NoteNumber":64,"Velocity":58,"Duration":225225,"SoundDuration":225225,"Delta":13307006},{"NoteNumber":82,"Velocity":27,"Duration":333703,"SoundDuration":333703,"Delta":13532231},{"NoteNumber":84,"Velocity":34,"Duration":333703,"SoundDuration":333703,"Delta":13532231},{"NoteNumber":72,"Velocity":27,"Duration":333703,"SoundDuration":333703,"Delta":13532231},{"NoteNumber":76,"Velocity":27,"Duration":333703,"SoundDuration":333703,"Delta":13532231},{"NoteNumber":67,"Velocity":62,"Duration":218372,"SoundDuration":218372,"Delta":13532231},{"NoteNumber":64,"Velocity":57,"Duration":230662,"SoundDuration":230662,"Delta":13750604},{"NoteNumber":76,"Velocity":29,"Duration":525167,"SoundDuration":525167,"Delta":13865935},{"NoteNumber":72,"Velocity":29,"Duration":562425,"SoundDuration":562425,"Delta":13865935},{"NoteNumber":84,"Velocity":36,"Duration":447093,"SoundDuration":447093,"Delta":13981267},{"NoteNumber":82,"Velocity":29,"Duration":485099,"SoundDuration":485099,"Delta":13981267},{"NoteNumber":62,"Velocity":58,"Duration":149031,"SoundDuration":149031,"Delta":13981267},{"NoteNumber":64,"Velocity":53,"Duration":149031,"SoundDuration":149031,"Delta":14130298},{"NoteNumber":62,"Velocity":49,"Duration":149031,"SoundDuration":149031,"Delta":14279329},{"NoteNumber":84,"Velocity":34,"Duration":456065,"SoundDuration":456065,"Delta":14428361},{"NoteNumber":72,"Velocity":27,"Duration":456065,"SoundDuration":456065,"Delta":14428361},{"NoteNumber":82,"Velocity":27,"Duration":456065,"SoundDuration":456065,"Delta":14428361},{"NoteNumber":76,"Velocity":27,"Duration":456065,"SoundDuration":456065,"Delta":14428361},{"NoteNumber":60,"Velocity":49,"Duration":2114419,"SoundDuration":2114419,"Delta":14428361},{"NoteNumber":76,"Velocity":27,"Duration":342049,"SoundDuration":342049,"Delta":14884426},{"NoteNumber":72,"Velocity":27,"Duration":342049,"SoundDuration":342049,"Delta":14884426},{"NoteNumber":84,"Velocity":34,"Duration":342049,"SoundDuration":342049,"Delta":14884426},{"NoteNumber":82,"Velocity":27,"Duration":342049,"SoundDuration":342049,"Delta":14884426},{"NoteNumber":76,"Velocity":29,"Duration":526619,"SoundDuration":526619,"Delta":15226475},{"NoteNumber":72,"Velocity":29,"Duration":564128,"SoundDuration":564128,"Delta":15226475},{"NoteNumber":82,"Velocity":29,"Duration":487621,"SoundDuration":487621,"Delta":15340492},{"NoteNumber":84,"Velocity":36,"Duration":450112,"SoundDuration":450112,"Delta":15340492},{"NoteNumber":82,"Velocity":27,"Duration":450112,"SoundDuration":450112,"Delta":15790604},{"NoteNumber":76,"Velocity":27,"Duration":450112,"SoundDuration":450112,"Delta":15790604},{"NoteNumber":84,"Velocity":34,"Duration":450112,"SoundDuration":450112,"Delta":15790604},{"NoteNumber":72,"Velocity":27,"Duration":450112,"SoundDuration":450112,"Delta":15790604},{"NoteNumber":82,"Velocity":27,"Duration":364929,"SoundDuration":364929,"Delta":16240717},{"NoteNumber":84,"Velocity":34,"Duration":364929,"SoundDuration":364929,"Delta":16240717},{"NoteNumber":72,"Velocity":27,"Duration":364929,"SoundDuration":364929,"Delta":16240717},{"NoteNumber":76,"Velocity":27,"Duration":364929,"SoundDuration":364929,"Delta":16240717},{"NoteNumber":72,"Velocity":29,"Duration":591066,"SoundDuration":591066,"Delta":16605646},{"NoteNumber":76,"Velocity":29,"Duration":552288,"SoundDuration":552288,"Delta":16605646},{"NoteNumber":41,"Velocity":40,"Duration":591066,"SoundDuration":591066,"Delta":16605646},{"NoteNumber":48,"Velocity":40,"Duration":528199,"SoundDuration":528199,"Delta":16668513},{"NoteNumber":82,"Velocity":29,"Duration":504110,"SoundDuration":504110,"Delta":16731380},{"NoteNumber":84,"Velocity":36,"Duration":465332,"SoundDuration":465332,"Delta":16731380},{"NoteNumber":55,"Velocity":47,"Duration":232666,"SoundDuration":232666,"Delta":16731380},{"NoteNumber":57,"Velocity":51,"Duration":232666,"SoundDuration":232666,"Delta":16964046},{"NoteNumber":84,"Velocity":34,"Duration":470196,"SoundDuration":470196,"Delta":17196712},{"NoteNumber":72,"Velocity":27,"Duration":470196,"SoundDuration":470196,"Delta":17196712},{"NoteNumber":76,"Velocity":27,"Duration":470196,"SoundDuration":470196,"Delta":17196712},{"NoteNumber":82,"Velocity":27,"Duration":470196,"SoundDuration":470196,"Delta":17196712},{"NoteNumber":58,"Velocity":53,"Duration":470196,"SoundDuration":470196,"Delta":17196712},{"NoteNumber":82,"Velocity":28,"Duration":342049,"SoundDuration":342049,"Delta":17666908},{"NoteNumber":84,"Velocity":36,"Duration":342049,"SoundDuration":342049,"Delta":17666908},{"NoteNumber":76,"Velocity":28,"Duration":342049,"SoundDuration":342049,"Delta":17666908},{"NoteNumber":72,"Velocity":28,"Duration":342049,"SoundDuration":342049,"Delta":17666908},{"NoteNumber":58,"Velocity":51,"Duration":228032,"SoundDuration":228032,"Delta":17666908},{"NoteNumber":60,"Velocity":53,"Duration":228032,"SoundDuration":228032,"Delta":17894941},{"NoteNumber":76,"Velocity":31,"Duration":536289,"SoundDuration":536289,"Delta":18008957},{"NoteNumber":72,"Velocity":31,"Duration":575671,"SoundDuration":575671,"Delta":18008957},{"NoteNumber":84,"Velocity":39,"Duration":461655,"SoundDuration":461655,"Delta":18122974},{"NoteNumber":82,"Velocity":31,"Duration":498328,"SoundDuration":498328,"Delta":18122974},{"NoteNumber":62,"Velocity":58,"Duration":461655,"SoundDuration":461655,"Delta":18122974},{"NoteNumber":84,"Velocity":37,"Duration":447035,"SoundDuration":447035,"Delta":18584629},{"NoteNumber":72,"Velocity":29,"Duration":447035,"SoundDuration":447035,"Delta":18584629},{"NoteNumber":82,"Velocity":29,"Duration":447035,"SoundDuration":447035,"Delta":18584629},{"NoteNumber":76,"Velocity":29,"Duration":447035,"SoundDuration":447035,"Delta":18584629},{"NoteNumber":64,"Velocity":62,"Duration":220038,"SoundDuration":220038,"Delta":18584629},{"NoteNumber":69,"Velocity":56,"Duration":226997,"SoundDuration":226997,"Delta":18804668},{"NoteNumber":76,"Velocity":29,"Duration":358083,"SoundDuration":358083,"Delta":19031665},{"NoteNumber":72,"Velocity":29,"Duration":358083,"SoundDuration":358083,"Delta":19031665},{"NoteNumber":84,"Velocity":37,"Duration":358083,"SoundDuration":358083,"Delta":19031665},{"NoteNumber":82,"Velocity":29,"Duration":358083,"SoundDuration":358083,"Delta":19031665},{"NoteNumber":67,"Velocity":62,"Duration":230662,"SoundDuration":230662,"Delta":19031665},{"NoteNumber":64,"Velocity":57,"Duration":254842,"SoundDuration":254842,"Delta":19262328},{"NoteNumber":76,"Velocity":31,"Duration":524017,"SoundDuration":524017,"Delta":19389749},{"NoteNumber":72,"Velocity":31,"Duration":560071,"SoundDuration":560071,"Delta":19389749},{"NoteNumber":82,"Velocity":29,"Duration":470655,"SoundDuration":470655,"Delta":19517170},{"NoteNumber":84,"Velocity":36,"Duration":432650,"SoundDuration":432650,"Delta":19517170},{"NoteNumber":62,"Velocity":58,"Duration":144216,"SoundDuration":144216,"Delta":19517170},{"NoteNumber":64,"Velocity":53,"Duration":144216,"SoundDuration":144216,"Delta":19661387},{"NoteNumber":62,"Velocity":49,"Duration":144216,"SoundDuration":144216,"Delta":19805604},{"NoteNumber":82,"Velocity":27,"Duration":456065,"SoundDuration":456065,"Delta":19949820},{"NoteNumber":76,"Velocity":27,"Duration":456065,"SoundDuration":456065,"Delta":19949820},{"NoteNumber":84,"Velocity":34,"Duration":456065,"SoundDuration":456065,"Delta":19949820},{"NoteNumber":72,"Velocity":27,"Duration":456065,"SoundDuration":456065,"Delta":19949820},{"NoteNumber":60,"Velocity":49,"Duration":2132581,"SoundDuration":2132581,"Delta":19949820},{"NoteNumber":82,"Velocity":27,"Duration":342049,"SoundDuration":342049,"Delta":20405886},{"NoteNumber":84,"Velocity":34,"Duration":342049,"SoundDuration":342049,"Delta":20405886},{"NoteNumber":72,"Velocity":27,"Duration":342049,"SoundDuration":342049,"Delta":20405886},{"NoteNumber":76,"Velocity":27,"Duration":342049,"SoundDuration":342049,"Delta":20405886},{"NoteNumber":76,"Velocity":29,"Duration":526619,"SoundDuration":526619,"Delta":20747935},{"NoteNumber":72,"Velocity":29,"Duration":564128,"SoundDuration":564128,"Delta":20747935},{"NoteNumber":84,"Velocity":36,"Duration":450112,"SoundDuration":450112,"Delta":20861951},{"NoteNumber":82,"Velocity":29,"Duration":487621,"SoundDuration":487621,"Delta":20861951},{"NoteNumber":76,"Velocity":27,"Duration":450112,"SoundDuration":450112,"Delta":21312064},{"NoteNumber":84,"Velocity":34,"Duration":450112,"SoundDuration":450112,"Delta":21312064},{"NoteNumber":82,"Velocity":27,"Duration":450112,"SoundDuration":450112,"Delta":21312064},{"NoteNumber":72,"Velocity":27,"Duration":450112,"SoundDuration":450112,"Delta":21312064},{"NoteNumber":82,"Velocity":27,"Duration":403522,"SoundDuration":403522,"Delta":21762176},{"NoteNumber":76,"Velocity":27,"Duration":403522,"SoundDuration":403522,"Delta":21762176},{"NoteNumber":84,"Velocity":34,"Duration":403522,"SoundDuration":403522,"Delta":21762176},{"NoteNumber":72,"Velocity":27,"Duration":403522,"SoundDuration":403522,"Delta":21762176},{"NoteNumber":41,"Velocity":35,"Duration":1606135,"SoundDuration":1606135,"Delta":22082402},{"NoteNumber":72,"Velocity":29,"Duration":610708,"SoundDuration":610708,"Delta":22165698},{"NoteNumber":48,"Velocity":37,"Duration":1522839,"SoundDuration":1522839,"Delta":22165698},{"NoteNumber":77,"Velocity":29,"Duration":555177,"SoundDuration":555177,"Delta":22221229},{"NoteNumber":57,"Velocity":39,"Duration":1439542,"SoundDuration":1439542,"Delta":22248995},{"NoteNumber":81,"Velocity":29,"Duration":499646,"SoundDuration":499646,"Delta":22276760},{"NoteNumber":84,"Velocity":36,"Duration":444115,"SoundDuration":444115,"Delta":22332291},{"NoteNumber":65,"Velocity":50,"Duration":1356246,"SoundDuration":1356246,"Delta":22332291},{"NoteNumber":81,"Velocity":27,"Duration":456065,"SoundDuration":456065,"Delta":22776407},{"NoteNumber":84,"Velocity":34,"Duration":456065,"SoundDuration":456065,"Delta":22776407},{"NoteNumber":77,"Velocity":27,"Duration":456065,"SoundDuration":456065,"Delta":22776407},{"NoteNumber":72,"Velocity":27,"Duration":456065,"SoundDuration":456065,"Delta":22776407},{"NoteNumber":84,"Velocity":34,"Duration":342049,"SoundDuration":342049,"Delta":23232472},{"NoteNumber":72,"Velocity":27,"Duration":342049,"SoundDuration":342049,"Delta":23232472},{"NoteNumber":81,"Velocity":27,"Duration":342049,"SoundDuration":342049,"Delta":23232472},{"NoteNumber":77,"Velocity":27,"Duration":342049,"SoundDuration":342049,"Delta":23232472},{"NoteNumber":72,"Velocity":29,"Duration":564907,"SoundDuration":564907,"Delta":23574521},{"NoteNumber":77,"Velocity":29,"Duration":526901,"SoundDuration":526901,"Delta":23612527},{"NoteNumber":81,"Velocity":29,"Duration":488896,"SoundDuration":488896,"Delta":23650532},{"NoteNumber":84,"Velocity":36,"Duration":450890,"SoundDuration":450890,"Delta":23688538},{"NoteNumber":64,"Velocity":44,"Duration":228833,"SoundDuration":228833,"Delta":23910595},{"NoteNumber":77,"Velocity":27,"Duration":452446,"SoundDuration":452446,"Delta":24139428},{"NoteNumber":72,"Velocity":27,"Duration":452446,"SoundDuration":452446,"Delta":24139428},{"NoteNumber":84,"Velocity":34,"Duration":452446,"SoundDuration":452446,"Delta":24139428},{"NoteNumber":81,"Velocity":27,"Duration":452446,"SoundDuration":452446,"Delta":24139428},{"NoteNumber":62,"Velocity":49,"Duration":223613,"SoundDuration":223613,"Delta":24139428},{"NoteNumber":60,"Velocity":44,"Duration":228833,"SoundDuration":228833,"Delta":24363042},{"NoteNumber":84,"Velocity":34,"Duration":339779,"SoundDuration":339779,"Delta":24591875},{"NoteNumber":72,"Velocity":27,"Duration":339779,"SoundDuration":339779,"Delta":24591875},{"NoteNumber":81,"Velocity":27,"Duration":339779,"SoundDuration":339779,"Delta":24591875},{"NoteNumber":77,"Velocity":27,"Duration":339779,"SoundDuration":339779,"Delta":24591875},{"NoteNumber":62,"Velocity":49,"Duration":228832,"SoundDuration":228832,"Delta":24591875},{"NoteNumber":64,"Velocity":44,"Duration":221893,"SoundDuration":221893,"Delta":24820708},{"NoteNumber":72,"Velocity":29,"Duration":548200,"SoundDuration":548200,"Delta":24931655},{"NoteNumber":77,"Velocity":29,"Duration":511218,"SoundDuration":511218,"Delta":24968637},{"NoteNumber":81,"Velocity":29,"Duration":474236,"SoundDuration":474236,"Delta":25005619},{"NoteNumber":84,"Velocity":36,"Duration":437253,"SoundDuration":437253,"Delta":25042601},{"NoteNumber":53,"Velocity":41,"Duration":1355498,"SoundDuration":1355498,"Delta":25042601},{"NoteNumber":62,"Velocity":51,"Duration":145751,"SoundDuration":145751,"Delta":25042601},{"NoteNumber":64,"Velocity":41,"Duration":145751,"SoundDuration":145751,"Delta":25188353},{"NoteNumber":62,"Velocity":44,"Duration":145751,"SoundDuration":145751,"Delta":25334104},{"NoteNumber":77,"Velocity":27,"Duration":456065,"SoundDuration":456065,"Delta":25479855},{"NoteNumber":84,"Velocity":34,"Duration":456065,"SoundDuration":456065,"Delta":25479855},{"NoteNumber":81,"Velocity":27,"Duration":456065,"SoundDuration":456065,"Delta":25479855},{"NoteNumber":72,"Velocity":27,"Duration":456065,"SoundDuration":456065,"Delta":25479855},{"NoteNumber":60,"Velocity":44,"Duration":2134277,"SoundDuration":2134277,"Delta":25479855},{"NoteNumber":81,"Velocity":27,"Duration":346633,"SoundDuration":346633,"Delta":25935921},{"NoteNumber":77,"Velocity":27,"Duration":346633,"SoundDuration":346633,"Delta":25935921},{"NoteNumber":84,"Velocity":34,"Duration":346633,"SoundDuration":346633,"Delta":25935921},{"NoteNumber":72,"Velocity":27,"Duration":346633,"SoundDuration":346633,"Delta":25935921},{"NoteNumber":72,"Velocity":29,"Duration":565657,"SoundDuration":565657,"Delta":26282555},{"NoteNumber":77,"Velocity":29,"Duration":527142,"SoundDuration":527142,"Delta":26321070},{"NoteNumber":81,"Velocity":29,"Duration":488627,"SoundDuration":488627,"Delta":26359584},{"NoteNumber":84,"Velocity":36,"Duration":450112,"SoundDuration":450112,"Delta":26398099},{"NoteNumber":81,"Velocity":27,"Duration":450112,"SoundDuration":450112,"Delta":26848212},{"NoteNumber":84,"Velocity":34,"Duration":450112,"SoundDuration":450112,"Delta":26848212},{"NoteNumber":77,"Velocity":27,"Duration":450112,"SoundDuration":450112,"Delta":26848212},{"NoteNumber":72,"Velocity":27,"Duration":450112,"SoundDuration":450112,"Delta":26848212},{"NoteNumber":84,"Velocity":34,"Duration":396471,"SoundDuration":396471,"Delta":27298324},{"NoteNumber":72,"Velocity":27,"Duration":396471,"SoundDuration":396471,"Delta":27298324},{"NoteNumber":77,"Velocity":27,"Duration":396471,"SoundDuration":396471,"Delta":27298324},{"NoteNumber":81,"Velocity":27,"Duration":396471,"SoundDuration":396471,"Delta":27298324},{"NoteNumber":72,"Velocity":29,"Duration":605440,"SoundDuration":605440,"Delta":27694796},{"NoteNumber":51,"Velocity":37,"Duration":1517571,"SoundDuration":1517571,"Delta":27694796},{"NoteNumber":75,"Velocity":29,"Duration":551665,"SoundDuration":551665,"Delta":27748571},{"NoteNumber":60,"Velocity":38,"Duration":1436908,"SoundDuration":1436908,"Delta":27775458},{"NoteNumber":80,"Velocity":29,"Duration":497890,"SoundDuration":497890,"Delta":27802346},{"NoteNumber":84,"Velocity":36,"Duration":444115,"SoundDuration":444115,"Delta":27856121},{"NoteNumber":68,"Velocity":49,"Duration":1356246,"SoundDuration":1356246,"Delta":27856121},{"NoteNumber":75,"Velocity":27,"Duration":456065,"SoundDuration":456065,"Delta":28300236},{"NoteNumber":84,"Velocity":33,"Duration":456065,"SoundDuration":456065,"Delta":28300236},{"NoteNumber":80,"Velocity":27,"Duration":456065,"SoundDuration":456065,"Delta":28300236},{"NoteNumber":72,"Velocity":27,"Duration":456065,"SoundDuration":456065,"Delta":28300236},{"NoteNumber":80,"Velocity":27,"Duration":342049,"SoundDuration":342049,"Delta":28756302},{"NoteNumber":75,"Velocity":27,"Duration":342049,"SoundDuration":342049,"Delta":28756302},{"NoteNumber":84,"Velocity":33,"Duration":342049,"SoundDuration":342049,"Delta":28756302},{"NoteNumber":72,"Velocity":27,"Duration":342049,"SoundDuration":342049,"Delta":28756302},{"NoteNumber":72,"Velocity":29,"Duration":563071,"SoundDuration":563071,"Delta":29098351},{"NoteNumber":75,"Velocity":29,"Duration":525066,"SoundDuration":525066,"Delta":29136356},{"NoteNumber":80,"Velocity":29,"Duration":487060,"SoundDuration":487060,"Delta":29174362},{"NoteNumber":84,"Velocity":36,"Duration":449055,"SoundDuration":449055,"Delta":29212367},{"NoteNumber":67,"Velocity":44,"Duration":226997,"SoundDuration":226997,"Delta":29434425},{"NoteNumber":80,"Velocity":27,"Duration":450630,"SoundDuration":450630,"Delta":29661423},{"NoteNumber":84,"Velocity":33,"Duration":450630,"SoundDuration":450630,"Delta":29661423},{"NoteNumber":75,"Velocity":27,"Duration":450630,"SoundDuration":450630,"Delta":29661423},{"NoteNumber":72,"Velocity":27,"Duration":450630,"SoundDuration":450630,"Delta":29661423},{"NoteNumber":65,"Velocity":49,"Duration":220038,"SoundDuration":220038,"Delta":29661423},{"NoteNumber":63,"Velocity":44,"Duration":230591,"SoundDuration":230591,"Delta":29881461},{"NoteNumber":84,"Velocity":33,"Duration":327678,"SoundDuration":327678,"Delta":30112053},{"NoteNumber":72,"Velocity":27,"Duration":327678,"SoundDuration":327678,"Delta":30112053},{"NoteNumber":80,"Velocity":27,"Duration":327678,"SoundDuration":327678,"Delta":30112053},{"NoteNumber":75,"Velocity":27,"Duration":327678,"SoundDuration":327678,"Delta":30112053},{"NoteNumber":65,"Velocity":49,"Duration":216731,"SoundDuration":216731,"Delta":30112053},{"NoteNumber":67,"Velocity":44,"Duration":221893,"SoundDuration":221893,"Delta":30328784},{"NoteNumber":72,"Velocity":29,"Duration":548200,"SoundDuration":548200,"Delta":30439731},{"NoteNumber":75,"Velocity":29,"Duration":511218,"SoundDuration":511218,"Delta":30476713},{"NoteNumber":80,"Velocity":29,"Duration":474236,"SoundDuration":474236,"Delta":30513696},{"NoteNumber":84,"Velocity":36,"Duration":437254,"SoundDuration":437254,"Delta":30550678},{"NoteNumber":65,"Velocity":50,"Duration":145751,"SoundDuration":145751,"Delta":30550678},{"NoteNumber":67,"Velocity":44,"Duration":145751,"SoundDuration":145751,"Delta":30696429},{"NoteNumber":65,"Velocity":44,"Duration":145751,"SoundDuration":145751,"Delta":30842181},{"NoteNumber":75,"Velocity":27,"Duration":456065,"SoundDuration":456065,"Delta":30987932},{"NoteNumber":72,"Velocity":27,"Duration":456065,"SoundDuration":456065,"Delta":30987932},{"NoteNumber":84,"Velocity":33,"Duration":456065,"SoundDuration":456065,"Delta":30987932},{"NoteNumber":80,"Velocity":27,"Duration":456065,"SoundDuration":456065,"Delta":30987932},{"NoteNumber":63,"Velocity":49,"Duration":2301343,"SoundDuration":2301343,"Delta":30987932},{"NoteNumber":84,"Velocity":33,"Duration":346633,"SoundDuration":346633,"Delta":31443997},{"NoteNumber":72,"Velocity":27,"Duration":346633,"SoundDuration":346633,"Delta":31443997},{"NoteNumber":80,"Velocity":27,"Duration":346633,"SoundDuration":346633,"Delta":31443997},{"NoteNumber":75,"Velocity":27,"Duration":346633,"SoundDuration":346633,"Delta":31443997},{"NoteNumber":72,"Velocity":29,"Duration":565657,"SoundDuration":565657,"Delta":31790631},{"NoteNumber":75,"Velocity":29,"Duration":527142,"SoundDuration":527142,"Delta":31829146},{"NoteNumber":80,"Velocity":29,"Duration":488627,"SoundDuration":488627,"Delta":31867661},{"NoteNumber":84,"Velocity":36,"Duration":450112,"SoundDuration":450112,"Delta":31906176},{"NoteNumber":75,"Velocity":27,"Duration":450112,"SoundDuration":450112,"Delta":32356288},{"NoteNumber":84,"Velocity":33,"Duration":450112,"SoundDuration":450112,"Delta":32356288},{"NoteNumber":80,"Velocity":27,"Duration":450112,"SoundDuration":450112,"Delta":32356288},{"NoteNumber":72,"Velocity":27,"Duration":450112,"SoundDuration":450112,"Delta":32356288},{"NoteNumber":80,"Velocity":27,"Duration":482874,"SoundDuration":482874,"Delta":32806401},{"NoteNumber":75,"Velocity":27,"Duration":482874,"SoundDuration":482874,"Delta":32806401},{"NoteNumber":84,"Velocity":33,"Duration":482874,"SoundDuration":482874,"Delta":32806401},{"NoteNumber":72,"Velocity":27,"Duration":482874,"SoundDuration":482874,"Delta":32806401},{"NoteNumber":76,"Velocity":29,"Duration":465332,"SoundDuration":465332,"Delta":33289276},{"NoteNumber":72,"Velocity":29,"Duration":465332,"SoundDuration":465332,"Delta":33289276},{"NoteNumber":84,"Velocity":36,"Duration":465332,"SoundDuration":465332,"Delta":33289276},{"NoteNumber":82,"Velocity":29,"Duration":465332,"SoundDuration":465332,"Delta":33289276},{"NoteNumber":48,"Velocity":40,"Duration":465332,"SoundDuration":465332,"Delta":33289276},{"NoteNumber":55,"Velocity":47,"Duration":232666,"SoundDuration":232666,"Delta":33289276},{"NoteNumber":57,"Velocity":51,"Duration":232666,"SoundDuration":232666,"Delta":33521942},{"NoteNumber":82,"Velocity":27,"Duration":480518,"SoundDuration":480518,"Delta":33754608},{"NoteNumber":84,"Velocity":34,"Duration":480518,"SoundDuration":480518,"Delta":33754608},{"NoteNumber":76,"Velocity":27,"Duration":480518,"SoundDuration":480518,"Delta":33754608},{"NoteNumber":72,"Velocity":27,"Duration":480518,"SoundDuration":480518,"Delta":33754608},{"NoteNumber":58,"Velocity":53,"Duration":480518,"SoundDuration":480518,"Delta":33754608},{"NoteNumber":84,"Velocity":34,"Duration":471512,"SoundDuration":471512,"Delta":34235126},{"NoteNumber":72,"Velocity":27,"Duration":471512,"SoundDuration":471512,"Delta":34235126},{"NoteNumber":76,"Velocity":27,"Duration":471512,"SoundDuration":471512,"Delta":34235126},{"NoteNumber":82,"Velocity":27,"Duration":471512,"SoundDuration":471512,"Delta":34235126},{"NoteNumber":60,"Velocity":55,"Duration":228833,"SoundDuration":228833,"Delta":34235126},{"NoteNumber":62,"Velocity":57,"Duration":242679,"SoundDuration":242679,"Delta":34463959},{"NoteNumber":76,"Velocity":29,"Duration":456065,"SoundDuration":456065,"Delta":34706639},{"NoteNumber":82,"Velocity":29,"Duration":456065,"SoundDuration":456065,"Delta":34706639},{"NoteNumber":72,"Velocity":29,"Duration":456065,"SoundDuration":456065,"Delta":34706639},{"NoteNumber":84,"Velocity":36,"Duration":456065,"SoundDuration":456065,"Delta":34706639},{"NoteNumber":67,"Velocity":61,"Duration":915543,"SoundDuration":915543,"Delta":34706639},{"NoteNumber":82,"Velocity":28,"Duration":459478,"SoundDuration":459478,"Delta":35162704},{"NoteNumber":84,"Velocity":35,"Duration":459478,"SoundDuration":459478,"Delta":35162704},{"NoteNumber":72,"Velocity":28,"Duration":459478,"SoundDuration":459478,"Delta":35162704},{"NoteNumber":76,"Velocity":28,"Duration":459478,"SoundDuration":459478,"Delta":35162704},{"NoteNumber":82,"Velocity":30,"Duration":462891,"SoundDuration":462891,"Delta":35622183},{"NoteNumber":84,"Velocity":37,"Duration":462891,"SoundDuration":462891,"Delta":35622183},{"NoteNumber":76,"Velocity":30,"Duration":462891,"SoundDuration":462891,"Delta":35622183},{"NoteNumber":72,"Velocity":30,"Duration":462891,"SoundDuration":462891,"Delta":35622183},{"NoteNumber":64,"Velocity":61,"Duration":462891,"SoundDuration":462891,"Delta":35622183},{"NoteNumber":72,"Velocity":34,"Duration":447093,"SoundDuration":447093,"Delta":36085074},{"NoteNumber":84,"Velocity":40,"Duration":447093,"SoundDuration":447093,"Delta":36085074},{"NoteNumber":77,"Velocity":34,"Duration":447093,"SoundDuration":447093,"Delta":36085074},{"NoteNumber":81,"Velocity":34,"Duration":447093,"SoundDuration":447093,"Delta":36085074},{"NoteNumber":62,"Velocity":57,"Duration":149031,"SoundDuration":149031,"Delta":36085074},{"NoteNumber":53,"Velocity":41,"Duration":1369577,"SoundDuration":1369577,"Delta":36085074},{"NoteNumber":64,"Velocity":55,"Duration":149031,"SoundDuration":149031,"Delta":36234105},{"NoteNumber":62,"Velocity":51,"Duration":149031,"SoundDuration":149031,"Delta":36383137},{"NoteNumber":84,"Velocity":38,"Duration":456065,"SoundDuration":456065,"Delta":36532168},{"NoteNumber":72,"Velocity":30,"Duration":456065,"SoundDuration":456065,"Delta":36532168},{"NoteNumber":81,"Velocity":30,"Duration":456065,"SoundDuration":456065,"Delta":36532168},{"NoteNumber":77,"Velocity":30,"Duration":456065,"SoundDuration":456065,"Delta":36532168},{"NoteNumber":60,"Velocity":51,"Duration":922483,"SoundDuration":922483,"Delta":36532168},{"NoteNumber":77,"Velocity":30,"Duration":466417,"SoundDuration":466417,"Delta":36988234},{"NoteNumber":72,"Velocity":30,"Duration":466417,"SoundDuration":466417,"Delta":36988234},{"NoteNumber":84,"Velocity":38,"Duration":466417,"SoundDuration":466417,"Delta":36988234},{"NoteNumber":81,"Velocity":30,"Duration":466417,"SoundDuration":466417,"Delta":36988234},{"NoteNumber":78,"Velocity":34,"Duration":473858,"SoundDuration":473858,"Delta":37454652},{"NoteNumber":72,"Velocity":34,"Duration":473858,"SoundDuration":473858,"Delta":37454652},{"NoteNumber":74,"Velocity":34,"Duration":473858,"SoundDuration":473858,"Delta":37454652},{"NoteNumber":86,"Velocity":40,"Duration":473858,"SoundDuration":473858,"Delta":37454652},{"NoteNumber":81,"Velocity":34,"Duration":473858,"SoundDuration":473858,"Delta":37454652},{"NoteNumber":50,"Velocity":66,"Duration":1436466,"SoundDuration":1436466,"Delta":37454652},{"NoteNumber":86,"Velocity":38,"Duration":484781,"SoundDuration":484781,"Delta":37928511},{"NoteNumber":81,"Velocity":30,"Duration":484781,"SoundDuration":484781,"Delta":37928511},{"NoteNumber":74,"Velocity":30,"Duration":484781,"SoundDuration":484781,"Delta":37928511},{"NoteNumber":78,"Velocity":30,"Duration":484781,"SoundDuration":484781,"Delta":37928511},{"NoteNumber":72,"Velocity":30,"Duration":484781,"SoundDuration":484781,"Delta":37928511},{"NoteNumber":57,"Velocity":61,"Duration":484781,"SoundDuration":484781,"Delta":37928511},{"NoteNumber":72,"Velocity":30,"Duration":477825,"SoundDuration":477825,"Delta":38413292},{"NoteNumber":78,"Velocity":30,"Duration":477825,"SoundDuration":477825,"Delta":38413292},{"NoteNumber":74,"Velocity":30,"Duration":477825,"SoundDuration":477825,"Delta":38413292},{"NoteNumber":86,"Velocity":38,"Duration":477825,"SoundDuration":477825,"Delta":38413292},{"NoteNumber":81,"Velocity":30,"Duration":477825,"SoundDuration":477825,"Delta":38413292},{"NoteNumber":62,"Velocity":61,"Duration":477825,"SoundDuration":477825,"Delta":38413292},{"NoteNumber":79,"Velocity":34,"Duration":456065,"SoundDuration":456065,"Delta":38891118},{"NoteNumber":70,"Velocity":34,"Duration":456065,"SoundDuration":456065,"Delta":38891118},{"NoteNumber":74,"Velocity":34,"Duration":456065,"SoundDuration":456065,"Delta":38891118},{"NoteNumber":82,"Velocity":40,"Duration":456065,"SoundDuration":456065,"Delta":38891118},{"NoteNumber":55,"Velocity":50,"Duration":228032,"SoundDuration":228032,"Delta":38891118},{"NoteNumber":62,"Velocity":56,"Duration":228032,"SoundDuration":228032,"Delta":38891118},{"NoteNumber":64,"Velocity":61,"Duration":228032,"SoundDuration":228032,"Delta":39119151},{"NoteNumber":79,"Velocity":30,"Duration":459478,"SoundDuration":459478,"Delta":39347183},{"NoteNumber":74,"Velocity":30,"Duration":459478,"SoundDuration":459478,"Delta":39347183},{"NoteNumber":82,"Velocity":38,"Duration":459478,"SoundDuration":459478,"Delta":39347183},{"NoteNumber":70,"Velocity":30,"Duration":459478,"SoundDuration":459478,"Delta":39347183},{"NoteNumber":65,"Velocity":64,"Duration":459478,"SoundDuration":459478,"Delta":39347183},{"NoteNumber":79,"Velocity":30,"Duration":476724,"SoundDuration":476724,"Delta":39806662},{"NoteNumber":82,"Velocity":38,"Duration":476724,"SoundDuration":476724,"Delta":39806662},{"NoteNumber":70,"Velocity":30,"Duration":476724,"SoundDuration":476724,"Delta":39806662},{"NoteNumber":74,"Velocity":30,"Duration":476724,"SoundDuration":476724,"Delta":39806662},{"NoteNumber":62,"Velocity":62,"Duration":231445,"SoundDuration":231445,"Delta":39806662},{"NoteNumber":55,"Velocity":56,"Duration":158908,"SoundDuration":158908,"Delta":40038108},{"NoteNumber":48,"Velocity":49,"Duration":235402,"SoundDuration":235402,"Delta":40197016},{"NoteNumber":55,"Velocity":49,"Duration":154958,"SoundDuration":154958,"Delta":40240201},{"NoteNumber":72,"Velocity":34,"Duration":447093,"SoundDuration":447093,"Delta":40283386},{"NoteNumber":70,"Velocity":34,"Duration":447093,"SoundDuration":447093,"Delta":40283386},{"NoteNumber":76,"Velocity":34,"Duration":447093,"SoundDuration":447093,"Delta":40283386},{"NoteNumber":82,"Velocity":40,"Duration":447093,"SoundDuration":447093,"Delta":40283386},{"NoteNumber":62,"Velocity":59,"Duration":149031,"SoundDuration":149031,"Delta":40283386},{"NoteNumber":64,"Velocity":51,"Duration":149031,"SoundDuration":149031,"Delta":40432418},{"NoteNumber":62,"Velocity":53,"Duration":149031,"SoundDuration":149031,"Delta":40581449},{"NoteNumber":82,"Velocity":38,"Duration":456065,"SoundDuration":456065,"Delta":40730480},{"NoteNumber":70,"Velocity":30,"Duration":456065,"SoundDuration":456065,"Delta":40730480},{"NoteNumber":72,"Velocity":30,"Duration":456065,"SoundDuration":456065,"Delta":40730480},{"NoteNumber":76,"Velocity":30,"Duration":456065,"SoundDuration":456065,"Delta":40730480},{"NoteNumber":60,"Velocity":50,"Duration":456065,"SoundDuration":456065,"Delta":40730480},{"NoteNumber":72,"Velocity":30,"Duration":493569,"SoundDuration":493569,"Delta":41186546},{"NoteNumber":70,"Velocity":30,"Duration":493569,"SoundDuration":493569,"Delta":41186546},{"NoteNumber":76,"Velocity":30,"Duration":493569,"SoundDuration":493569,"Delta":41186546},{"NoteNumber":82,"Velocity":38,"Duration":493569,"SoundDuration":493569,"Delta":41186546},{"NoteNumber":48,"Velocity":44,"Duration":493569,"SoundDuration":493569,"Delta":41186546},{"NoteNumber":41,"Velocity":41,"Duration":313816,"SoundDuration":313816,"Delta":41589847},{"NoteNumber":48,"Velocity":41,"Duration":231423,"SoundDuration":231423,"Delta":41634981},{"NoteNumber":77,"Velocity":34,"Duration":447093,"SoundDuration":447093,"Delta":41680116},{"NoteNumber":69,"Velocity":28,"Duration":447093,"SoundDuration":447093,"Delta":41680116},{"NoteNumber":72,"Velocity":28,"Duration":447093,"SoundDuration":447093,"Delta":41680116},{"NoteNumber":81,"Velocity":40,"Duration":447093,"SoundDuration":447093,"Delta":41680116},{"NoteNumber":57,"Velocity":51,"Duration":223547,"SoundDuration":223547,"Delta":41680116},{"NoteNumber":55,"Velocity":49,"Duration":223546,"SoundDuration":223546,"Delta":41903663},{"NoteNumber":77,"Velocity":27,"Duration":456065,"SoundDuration":456065,"Delta":42127210},{"NoteNumber":72,"Velocity":23,"Duration":456065,"SoundDuration":456065,"Delta":42127210},{"NoteNumber":81,"Velocity":34,"Duration":456065,"SoundDuration":456065,"Delta":42127210},{"NoteNumber":69,"Velocity":23,"Duration":456065,"SoundDuration":456065,"Delta":42127210},{"NoteNumber":53,"Velocity":45,"Duration":2307479,"SoundDuration":2307479,"Delta":42127210},{"NoteNumber":77,"Velocity":27,"Duration":456065,"SoundDuration":456065,"Delta":42583275},{"NoteNumber":81,"Velocity":34,"Duration":456065,"SoundDuration":456065,"Delta":42583275},{"NoteNumber":69,"Velocity":23,"Duration":456065,"SoundDuration":456065,"Delta":42583275},{"NoteNumber":72,"Velocity":23,"Duration":456065,"SoundDuration":456065,"Delta":42583275},{"NoteNumber":72,"Velocity":26,"Duration":446894,"SoundDuration":446894,"Delta":43039341},{"NoteNumber":69,"Velocity":26,"Duration":446894,"SoundDuration":446894,"Delta":43039341},{"NoteNumber":77,"Velocity":31,"Duration":446894,"SoundDuration":446894,"Delta":43039341},{"NoteNumber":81,"Velocity":31,"Duration":446894,"SoundDuration":446894,"Delta":43039341},{"NoteNumber":81,"Velocity":29,"Duration":436745,"SoundDuration":436745,"Delta":43486235},{"NoteNumber":69,"Velocity":24,"Duration":436745,"SoundDuration":436745,"Delta":43486235},{"NoteNumber":77,"Velocity":29,"Duration":436745,"SoundDuration":436745,"Delta":43486235},{"NoteNumber":72,"Velocity":24,"Duration":436745,"SoundDuration":436745,"Delta":43486235},{"NoteNumber":81,"Velocity":29,"Duration":511709,"SoundDuration":511709,"Delta":43922980},{"NoteNumber":69,"Velocity":24,"Duration":511709,"SoundDuration":511709,"Delta":43922980},{"NoteNumber":77,"Velocity":29,"Duration":511709,"SoundDuration":511709,"Delta":43922980},{"NoteNumber":72,"Velocity":24,"Duration":511709,"SoundDuration":511709,"Delta":43922980},{"NoteNumber":41,"Velocity":37,"Duration":332242,"SoundDuration":332242,"Delta":44330479},{"NoteNumber":49,"Velocity":38,"Duration":242132,"SoundDuration":242132,"Delta":44382584},{"NoteNumber":77,"Velocity":29,"Duration":463179,"SoundDuration":463179,"Delta":44434689},{"NoteNumber":81,"Velocity":36,"Duration":463179,"SoundDuration":463179,"Delta":44434689},{"NoteNumber":69,"Velocity":25,"Duration":463179,"SoundDuration":463179,"Delta":44434689},{"NoteNumber":73,"Velocity":25,"Duration":463179,"SoundDuration":463179,"Delta":44434689},{"NoteNumber":57,"Velocity":46,"Duration":228032,"SoundDuration":228032,"Delta":44434689},{"NoteNumber":55,"Velocity":44,"Duration":235146,"SoundDuration":235146,"Delta":44662722},{"NoteNumber":81,"Velocity":29,"Duration":456065,"SoundDuration":456065,"Delta":44897868},{"NoteNumber":69,"Velocity":19,"Duration":456065,"SoundDuration":456065,"Delta":44897868},{"NoteNumber":77,"Velocity":24,"Duration":456065,"SoundDuration":456065,"Delta":44897868},{"NoteNumber":73,"Velocity":19,"Duration":456065,"SoundDuration":456065,"Delta":44897868},{"NoteNumber":53,"Velocity":39,"Duration":2299953,"SoundDuration":2299953,"Delta":44897868},{"NoteNumber":73,"Velocity":19,"Duration":456065,"SoundDuration":456065,"Delta":45353934},{"NoteNumber":69,"Velocity":19,"Duration":456065,"SoundDuration":456065,"Delta":45353934},{"NoteNumber":81,"Velocity":29,"Duration":456065,"SoundDuration":456065,"Delta":45353934},{"NoteNumber":77,"Velocity":24,"Duration":456065,"SoundDuration":456065,"Delta":45353934},{"NoteNumber":77,"Velocity":28,"Duration":452624,"SoundDuration":452624,"Delta":45809999},{"NoteNumber":69,"Velocity":23,"Duration":452624,"SoundDuration":452624,"Delta":45809999},{"NoteNumber":73,"Velocity":23,"Duration":452624,"SoundDuration":452624,"Delta":45809999},{"NoteNumber":81,"Velocity":28,"Duration":452624,"SoundDuration":452624,"Delta":45809999},{"NoteNumber":77,"Velocity":26,"Duration":452625,"SoundDuration":452625,"Delta":46262624},{"NoteNumber":73,"Velocity":20,"Duration":452625,"SoundDuration":452625,"Delta":46262624},{"NoteNumber":81,"Velocity":26,"Duration":452625,"SoundDuration":452625,"Delta":46262624},{"NoteNumber":69,"Velocity":20,"Duration":452625,"SoundDuration":452625,"Delta":46262624},{"NoteNumber":77,"Velocity":26,"Duration":482572,"SoundDuration":482572,"Delta":46715249},{"NoteNumber":81,"Velocity":26,"Duration":482572,"SoundDuration":482572,"Delta":46715249},{"NoteNumber":69,"Velocity":20,"Duration":482572,"SoundDuration":482572,"Delta":46715249},{"NoteNumber":73,"Velocity":20,"Duration":482572,"SoundDuration":482572,"Delta":46715249},{"NoteNumber":41,"Velocity":39,"Duration":313816,"SoundDuration":313816,"Delta":47107553},{"NoteNumber":48,"Velocity":40,"Duration":231423,"SoundDuration":231423,"Delta":47152687},{"NoteNumber":72,"Velocity":27,"Duration":447093,"SoundDuration":447093,"Delta":47197822},{"NoteNumber":69,"Velocity":27,"Duration":447093,"SoundDuration":447093,"Delta":47197822},{"NoteNumber":77,"Velocity":33,"Duration":447093,"SoundDuration":447093,"Delta":47197822},{"NoteNumber":81,"Velocity":38,"Duration":447093,"SoundDuration":447093,"Delta":47197822},{"NoteNumber":57,"Velocity":49,"Duration":223547,"SoundDuration":223547,"Delta":47197822},{"NoteNumber":55,"Velocity":47,"Duration":223546,"SoundDuration":223546,"Delta":47421369},{"NoteNumber":81,"Velocity":33,"Duration":456065,"SoundDuration":456065,"Delta":47644916},{"NoteNumber":69,"Velocity":22,"Duration":456065,"SoundDuration":456065,"Delta":47644916},{"NoteNumber":72,"Velocity":22,"Duration":456065,"SoundDuration":456065,"Delta":47644916},{"NoteNumber":77,"Velocity":26,"Duration":456065,"SoundDuration":456065,"Delta":47644916},{"NoteNumber":53,"Velocity":42,"Duration":2317685,"SoundDuration":2317685,"Delta":47644916},{"NoteNumber":77,"Velocity":26,"Duration":456065,"SoundDuration":456065,"Delta":48100981},{"NoteNumber":72,"Velocity":22,"Duration":456065,"SoundDuration":456065,"Delta":48100981},{"NoteNumber":81,"Velocity":33,"Duration":456065,"SoundDuration":456065,"Delta":48100981},{"NoteNumber":69,"Velocity":22,"Duration":456065,"SoundDuration":456065,"Delta":48100981},{"NoteNumber":72,"Velocity":26,"Duration":452624,"SoundDuration":452624,"Delta":48557047},{"NoteNumber":69,"Velocity":26,"Duration":452624,"SoundDuration":452624,"Delta":48557047},{"NoteNumber":81,"Velocity":31,"Duration":452624,"SoundDuration":452624,"Delta":48557047},{"NoteNumber":77,"Velocity":31,"Duration":452624,"SoundDuration":452624,"Delta":48557047},{"NoteNumber":77,"Velocity":29,"Duration":443458,"SoundDuration":443458,"Delta":49009672},{"NoteNumber":81,"Velocity":29,"Duration":443458,"SoundDuration":443458,"Delta":49009672},{"NoteNumber":72,"Velocity":24,"Duration":443458,"SoundDuration":443458,"Delta":49009672},{"NoteNumber":69,"Velocity":24,"Duration":443458,"SoundDuration":443458,"Delta":49009672},{"NoteNumber":81,"Velocity":29,"Duration":509470,"SoundDuration":509470,"Delta":49453131},{"NoteNumber":69,"Velocity":24,"Duration":509470,"SoundDuration":509470,"Delta":49453131},{"NoteNumber":77,"Velocity":29,"Duration":509470,"SoundDuration":509470,"Delta":49453131},{"NoteNumber":72,"Velocity":24,"Duration":509470,"SoundDuration":509470,"Delta":49453131},{"NoteNumber":41,"Velocity":37,"Duration":323379,"SoundDuration":323379,"Delta":49867254},{"NoteNumber":49,"Velocity":38,"Duration":237700,"SoundDuration":237700,"Delta":49914927},{"NoteNumber":69,"Velocity":25,"Duration":463179,"SoundDuration":463179,"Delta":49962601},{"NoteNumber":81,"Velocity":36,"Duration":463179,"SoundDuration":463179,"Delta":49962601},{"NoteNumber":73,"Velocity":25,"Duration":463179,"SoundDuration":463179,"Delta":49962601},{"NoteNumber":77,"Velocity":29,"Duration":463179,"SoundDuration":463179,"Delta":49962601},{"NoteNumber":57,"Velocity":46,"Duration":228032,"SoundDuration":228032,"Delta":49962601},{"NoteNumber":55,"Velocity":44,"Duration":235146,"SoundDuration":235146,"Delta":50190634},{"NoteNumber":73,"Velocity":19,"Duration":456065,"SoundDuration":456065,"Delta":50425780},{"NoteNumber":69,"Velocity":19,"Duration":456065,"SoundDuration":456065,"Delta":50425780},{"NoteNumber":81,"Velocity":29,"Duration":456065,"SoundDuration":456065,"Delta":50425780},{"NoteNumber":77,"Velocity":24,"Duration":456065,"SoundDuration":456065,"Delta":50425780},{"NoteNumber":53,"Velocity":39,"Duration":2333508,"SoundDuration":2333508,"Delta":50425780},{"NoteNumber":73,"Velocity":19,"Duration":456065,"SoundDuration":456065,"Delta":50881846},{"NoteNumber":81,"Velocity":29,"Duration":456065,"SoundDuration":456065,"Delta":50881846},{"NoteNumber":77,"Velocity":24,"Duration":456065,"SoundDuration":456065,"Delta":50881846},{"NoteNumber":69,"Velocity":19,"Duration":456065,"SoundDuration":456065,"Delta":50881846},{"NoteNumber":77,"Velocity":28,"Duration":452624,"SoundDuration":452624,"Delta":51337911},{"NoteNumber":81,"Velocity":28,"Duration":452624,"SoundDuration":452624,"Delta":51337911},{"NoteNumber":73,"Velocity":23,"Duration":452624,"SoundDuration":452624,"Delta":51337911},{"NoteNumber":69,"Velocity":23,"Duration":452624,"SoundDuration":452624,"Delta":51337911},{"NoteNumber":73,"Velocity":20,"Duration":452625,"SoundDuration":452625,"Delta":51790536},{"NoteNumber":81,"Velocity":26,"Duration":452625,"SoundDuration":452625,"Delta":51790536},{"NoteNumber":77,"Velocity":26,"Duration":452625,"SoundDuration":452625,"Delta":51790536},{"NoteNumber":69,"Velocity":20,"Duration":452625,"SoundDuration":452625,"Delta":51790536},{"NoteNumber":77,"Velocity":26,"Duration":516127,"SoundDuration":516127,"Delta":52243161},{"NoteNumber":73,"Velocity":20,"Duration":516127,"SoundDuration":516127,"Delta":52243161},{"NoteNumber":81,"Velocity":26,"Duration":516127,"SoundDuration":516127,"Delta":52243161},{"NoteNumber":69,"Velocity":20,"Duration":516127,"SoundDuration":516127,"Delta":52243161},{"NoteNumber":41,"Velocity":33,"Duration":351855,"SoundDuration":351855,"Delta":52653981},{"NoteNumber":48,"Velocity":33,"Duration":258110,"SoundDuration":258110,"Delta":52706635},{"NoteNumber":72,"Velocity":29,"Duration":493096,"SoundDuration":493096,"Delta":52759289},{"NoteNumber":69,"Velocity":29,"Duration":493096,"SoundDuration":493096,"Delta":52759289},{"NoteNumber":81,"Velocity":29,"Duration":493096,"SoundDuration":493096,"Delta":52759289},{"NoteNumber":77,"Velocity":29,"Duration":493096,"SoundDuration":493096,"Delta":52759289},{"NoteNumber":57,"Velocity":39,"Duration":246548,"SoundDuration":246548,"Delta":52759289},{"NoteNumber":55,"Velocity":37,"Duration":246548,"SoundDuration":246548,"Delta":53005837},{"NoteNumber":77,"Velocity":27,"Duration":509684,"SoundDuration":509684,"Delta":53252385},{"NoteNumber":81,"Velocity":27,"Duration":509684,"SoundDuration":509684,"Delta":53252385},{"NoteNumber":72,"Velocity":27,"Duration":509684,"SoundDuration":509684,"Delta":53252385},{"NoteNumber":69,"Velocity":27,"Duration":509684,"SoundDuration":509684,"Delta":53252385},{"NoteNumber":53,"Velocity":35,"Duration":1564722,"SoundDuration":1564722,"Delta":53252385},{"NoteNumber":81,"Velocity":27,"Duration":527518,"SoundDuration":527518,"Delta":53762069},{"NoteNumber":69,"Velocity":27,"Duration":527518,"SoundDuration":527518,"Delta":53762069},{"NoteNumber":77,"Velocity":27,"Duration":527518,"SoundDuration":527518,"Delta":53762069},{"NoteNumber":72,"Velocity":27,"Duration":527518,"SoundDuration":527518,"Delta":53762069},{"NoteNumber":69,"Velocity":26,"Duration":527519,"SoundDuration":527519,"Delta":54289588},{"NoteNumber":81,"Velocity":26,"Duration":527519,"SoundDuration":527519,"Delta":54289588},{"NoteNumber":72,"Velocity":26,"Duration":527519,"SoundDuration":527519,"Delta":54289588},{"NoteNumber":77,"Velocity":26,"Duration":527519,"SoundDuration":527519,"Delta":54289588},{"NoteNumber":48,"Velocity":34,"Duration":756048,"SoundDuration":756048,"Delta":55344626},{"NoteNumber":41,"Velocity":40,"Duration":528992,"SoundDuration":528992,"Delta":56100675},{"NoteNumber":48,"Velocity":36,"Duration":464900,"SoundDuration":464900,"Delta":56629667},{"NoteNumber":60,"Velocity":36,"Duration":501252,"SoundDuration":501252,"Delta":57094567},{"NoteNumber":56,"Velocity":36,"Duration":501252,"SoundDuration":501252,"Delta":57094567},{"NoteNumber":61,"Velocity":41,"Duration":501252,"SoundDuration":501252,"Delta":57595820},{"NoteNumber":58,"Velocity":35,"Duration":501252,"SoundDuration":501252,"Delta":57595820},{"NoteNumber":67,"Velocity":33,"Duration":1002506,"SoundDuration":1002506,"Delta":58097073},{"NoteNumber":41,"Velocity":36,"Duration":484417,"SoundDuration":484417,"Delta":59099579},{"NoteNumber":48,"Velocity":36,"Duration":468750,"SoundDuration":468750,"Delta":59583997},{"NoteNumber":60,"Velocity":36,"Duration":501252,"SoundDuration":501252,"Delta":60052747},{"NoteNumber":56,"Velocity":36,"Duration":501252,"SoundDuration":501252,"Delta":60052747},{"NoteNumber":61,"Velocity":41,"Duration":501252,"SoundDuration":501252,"Delta":60554000},{"NoteNumber":58,"Velocity":35,"Duration":501252,"SoundDuration":501252,"Delta":60554000},{"NoteNumber":67,"Velocity":34,"Duration":1002506,"SoundDuration":1002506,"Delta":61055253},{"NoteNumber":77,"Velocity":57,"Duration":1491402,"SoundDuration":1491402,"Delta":62057759},{"NoteNumber":41,"Velocity":36,"Duration":484417,"SoundDuration":484417,"Delta":62057759},{"NoteNumber":48,"Velocity":36,"Duration":505731,"SoundDuration":505731,"Delta":62542177},{"NoteNumber":60,"Velocity":34,"Duration":501253,"SoundDuration":501253,"Delta":63047909},{"NoteNumber":56,"Velocity":34,"Duration":501253,"SoundDuration":501253,"Delta":63047909},{"NoteNumber":76,"Velocity":55,"Duration":1011456,"SoundDuration":1011456,"Delta":63549162},{"NoteNumber":60,"Velocity":39,"Duration":501252,"SoundDuration":501252,"Delta":63549162},{"NoteNumber":58,"Velocity":33,"Duration":501252,"SoundDuration":501252,"Delta":63549162},{"NoteNumber":67,"Velocity":29,"Duration":1020408,"SoundDuration":1020408,"Delta":64050415},{"NoteNumber":72,"Velocity":52,"Duration":510204,"SoundDuration":510204,"Delta":64560619},{"NoteNumber":41,"Velocity":36,"Duration":501253,"SoundDuration":501253,"Delta":65070823},{"NoteNumber":84,"Velocity":58,"Duration":1447818,"SoundDuration":1447818,"Delta":65081266},{"NoteNumber":48,"Velocity":34,"Duration":472589,"SoundDuration":472589,"Delta":65572076},{"NoteNumber":60,"Velocity":31,"Duration":484418,"SoundDuration":484418,"Delta":66044666},{"NoteNumber":56,"Velocity":31,"Duration":484418,"SoundDuration":484418,"Delta":66044666},{"NoteNumber":60,"Velocity":39,"Duration":455816,"SoundDuration":455816,"Delta":66529084},{"NoteNumber":58,"Velocity":33,"Duration":455816,"SoundDuration":455816,"Delta":66529084},{"NoteNumber":79,"Velocity":53,"Duration":225225,"SoundDuration":225225,"Delta":66759676},{"NoteNumber":80,"Velocity":56,"Duration":232450,"SoundDuration":232450,"Delta":66984901},{"NoteNumber":64,"Velocity":29,"Duration":937902,"SoundDuration":937902,"Delta":66984901},{"NoteNumber":82,"Velocity":50,"Duration":111723,"SoundDuration":111723,"Delta":67217351},{"NoteNumber":80,"Velocity":41,"Duration":52816,"SoundDuration":52816,"Delta":67329074},{"NoteNumber":82,"Velocity":41,"Duration":52816,"SoundDuration":52816,"Delta":67381891},{"NoteNumber":80,"Velocity":49,"Duration":238095,"SoundDuration":238095,"Delta":67434708},{"NoteNumber":79,"Velocity":50,"Duration":250000,"SoundDuration":250000,"Delta":67672803},{"NoteNumber":84,"Velocity":53,"Duration":240192,"SoundDuration":240192,"Delta":67922803},{"NoteNumber":41,"Velocity":36,"Duration":467189,"SoundDuration":467189,"Delta":67922803},{"NoteNumber":77,"Velocity":53,"Duration":226997,"SoundDuration":226997,"Delta":68162996},{"NoteNumber":79,"Velocity":56,"Duration":234375,"SoundDuration":234375,"Delta":68389993},{"NoteNumber":48,"Velocity":36,"Duration":449490,"SoundDuration":449490,"Delta":68389993},{"NoteNumber":80,"Velocity":50,"Duration":107557,"SoundDuration":107557,"Delta":68624368},{"NoteNumber":79,"Velocity":44,"Duration":53778,"SoundDuration":53778,"Delta":68731926},{"NoteNumber":80,"Velocity":41,"Duration":53778,"SoundDuration":53778,"Delta":68785705},{"NoteNumber":79,"Velocity":52,"Duration":239999,"SoundDuration":239999,"Delta":68839484},{"NoteNumber":60,"Velocity":36,"Duration":488508,"SoundDuration":488508,"Delta":68839484},{"NoteNumber":56,"Velocity":36,"Duration":488508,"SoundDuration":488508,"Delta":68839484},{"NoteNumber":77,"Velocity":50,"Duration":248508,"SoundDuration":248508,"Delta":69079484},{"NoteNumber":76,"Velocity":53,"Duration":246386,"SoundDuration":246386,"Delta":69327993},{"NoteNumber":60,"Velocity":39,"Duration":484594,"SoundDuration":484594,"Delta":69327993},{"NoteNumber":58,"Velocity":33,"Duration":484594,"SoundDuration":484594,"Delta":69327993},{"NoteNumber":72,"Velocity":53,"Duration":238208,"SoundDuration":238208,"Delta":69574379},{"NoteNumber":71,"Velocity":56,"Duration":238208,"SoundDuration":238208,"Delta":69812588},{"NoteNumber":67,"Velocity":29,"Duration":983730,"SoundDuration":983730,"Delta":69812588},{"NoteNumber":72,"Velocity":50,"Duration":246386,"SoundDuration":246386,"Delta":70050796},{"NoteNumber":75,"Velocity":52,"Duration":248508,"SoundDuration":248508,"Delta":70297183},{"NoteNumber":73,"Velocity":50,"Duration":250626,"SoundDuration":250626,"Delta":70545692},{"NoteNumber":72,"Velocity":49,"Duration":248508,"SoundDuration":248508,"Delta":70796318},{"NoteNumber":41,"Velocity":36,"Duration":484803,"SoundDuration":484803,"Delta":70796318},{"NoteNumber":65,"Velocity":49,"Duration":236294,"SoundDuration":236294,"Delta":71044827},{"NoteNumber":67,"Velocity":51,"Duration":244299,"SoundDuration":244299,"Delta":71281122},{"NoteNumber":48,"Velocity":36,"Duration":467746,"SoundDuration":467746,"Delta":71281122},{"NoteNumber":68,"Velocity":46,"Duration":111723,"SoundDuration":111723,"Delta":71525422},{"NoteNumber":67,"Velocity":40,"Duration":55861,"SoundDuration":55861,"Delta":71637145},{"NoteNumber":68,"Velocity":38,"Duration":55861,"SoundDuration":55861,"Delta":71693007},{"NoteNumber":67,"Velocity":48,"Duration":239999,"SoundDuration":239999,"Delta":71748869},{"NoteNumber":60,"Velocity":34,"Duration":488508,"SoundDuration":488508,"Delta":71748869},{"NoteNumber":56,"Velocity":34,"Duration":488508,"SoundDuration":488508,"Delta":71748869},{"NoteNumber":65,"Velocity":46,"Duration":248508,"SoundDuration":248508,"Delta":71988869},{"NoteNumber":64,"Velocity":49,"Duration":248508,"SoundDuration":248508,"Delta":72237378},{"NoteNumber":60,"Velocity":39,"Duration":490718,"SoundDuration":490718,"Delta":72237378},{"NoteNumber":58,"Velocity":33,"Duration":490718,"SoundDuration":490718,"Delta":72237378},{"NoteNumber":61,"Velocity":49,"Duration":242209,"SoundDuration":242209,"Delta":72485887},{"NoteNumber":60,"Velocity":49,"Duration":243254,"SoundDuration":243254,"Delta":72728096},{"NoteNumber":67,"Velocity":29,"Duration":891993,"SoundDuration":891993,"Delta":72728096},{"NoteNumber":58,"Velocity":39,"Duration":247447,"SoundDuration":247447,"Delta":72971350},{"NoteNumber":56,"Velocity":44,"Duration":259941,"SoundDuration":259941,"Delta":73218798},{"NoteNumber":55,"Velocity":38,"Duration":292083,"SoundDuration":292083,"Delta":73478739},{"NoteNumber":53,"Velocity":36,"Duration":191101,"SoundDuration":191101,"Delta":73620089},{"NoteNumber":77,"Velocity":50,"Duration":1491402,"SoundDuration":1491402,"Delta":73770823},{"NoteNumber":41,"Velocity":31,"Duration":484418,"SoundDuration":484418,"Delta":73770823},{"NoteNumber":48,"Velocity":31,"Duration":505731,"SoundDuration":505731,"Delta":74255241},{"NoteNumber":60,"Velocity":29,"Duration":501253,"SoundDuration":501253,"Delta":74760972},{"NoteNumber":56,"Velocity":29,"Duration":501253,"SoundDuration":501253,"Delta":74760972},{"NoteNumber":76,"Velocity":49,"Duration":1011456,"SoundDuration":1011456,"Delta":75262225},{"NoteNumber":60,"Velocity":35,"Duration":501252,"SoundDuration":501252,"Delta":75262225},{"NoteNumber":58,"Velocity":29,"Duration":501252,"SoundDuration":501252,"Delta":75262225},{"NoteNumber":67,"Velocity":26,"Duration":1029594,"SoundDuration":1029594,"Delta":75763478},{"NoteNumber":72,"Velocity":47,"Duration":519390,"SoundDuration":519390,"Delta":76273682},{"NoteNumber":84,"Velocity":51,"Duration":1482689,"SoundDuration":1482689,"Delta":76793073},{"NoteNumber":41,"Velocity":31,"Duration":501253,"SoundDuration":501253,"Delta":76793073},{"NoteNumber":48,"Velocity":29,"Duration":497017,"SoundDuration":497017,"Delta":77294326},{"NoteNumber":60,"Velocity":29,"Duration":484418,"SoundDuration":484418,"Delta":77791344},{"NoteNumber":57,"Velocity":29,"Duration":484418,"SoundDuration":484418,"Delta":77791344},{"NoteNumber":60,"Velocity":35,"Duration":457675,"SoundDuration":457675,"Delta":78275762},{"NoteNumber":58,"Velocity":29,"Duration":457675,"SoundDuration":457675,"Delta":78275762},{"NoteNumber":79,"Velocity":48,"Duration":225225,"SoundDuration":225225,"Delta":78508212},{"NoteNumber":81,"Velocity":49,"Duration":234375,"SoundDuration":234375,"Delta":78733437},{"NoteNumber":64,"Velocity":26,"Duration":939845,"SoundDuration":939845,"Delta":78733437},{"NoteNumber":82,"Velocity":45,"Duration":111723,"SoundDuration":111723,"Delta":78967812},{"NoteNumber":81,"Velocity":37,"Duration":53571,"SoundDuration":53571,"Delta":79079535},{"NoteNumber":82,"Velocity":37,"Duration":53571,"SoundDuration":53571,"Delta":79133107},{"NoteNumber":81,"Velocity":44,"Duration":238095,"SoundDuration":238095,"Delta":79186678},{"NoteNumber":79,"Velocity":45,"Duration":248508,"SoundDuration":248508,"Delta":79424773},{"NoteNumber":84,"Velocity":48,"Duration":240192,"SoundDuration":240192,"Delta":79673282},{"NoteNumber":41,"Velocity":31,"Duration":467189,"SoundDuration":467189,"Delta":79673282},{"NoteNumber":77,"Velocity":48,"Duration":226997,"SoundDuration":226997,"Delta":79913475},{"NoteNumber":79,"Velocity":49,"Duration":234375,"SoundDuration":234375,"Delta":80140472},{"NoteNumber":48,"Velocity":31,"Duration":449490,"SoundDuration":449490,"Delta":80140472},{"NoteNumber":81,"Velocity":45,"Duration":107557,"SoundDuration":107557,"Delta":80374847},{"NoteNumber":79,"Velocity":39,"Duration":53778,"SoundDuration":53778,"Delta":80482405},{"NoteNumber":81,"Velocity":37,"Duration":53778,"SoundDuration":53778,"Delta":80536184},{"NoteNumber":79,"Velocity":47,"Duration":241200,"SoundDuration":241200,"Delta":80589963},{"NoteNumber":60,"Velocity":30,"Duration":489709,"SoundDuration":489709,"Delta":80589963},{"NoteNumber":57,"Velocity":30,"Duration":489709,"SoundDuration":489709,"Delta":80589963},{"NoteNumber":77,"Velocity":45,"Duration":248508,"SoundDuration":248508,"Delta":80831163},{"NoteNumber":82,"Velocity":48,"Duration":973430,"SoundDuration":973430,"Delta":81079672},{"NoteNumber":76,"Velocity":48,"Duration":246386,"SoundDuration":246386,"Delta":81079672},{"NoteNumber":60,"Velocity":35,"Duration":484594,"SoundDuration":484594,"Delta":81079672},{"NoteNumber":58,"Velocity":29,"Duration":484594,"SoundDuration":484594,"Delta":81079672},{"NoteNumber":74,"Velocity":48,"Duration":238208,"SoundDuration":238208,"Delta":81326059},{"NoteNumber":76,"Velocity":49,"Duration":238208,"SoundDuration":238208,"Delta":81564267},{"NoteNumber":67,"Velocity":26,"Duration":1003591,"SoundDuration":1003591,"Delta":81564267},{"NoteNumber":72,"Velocity":45,"Duration":250626,"SoundDuration":250626,"Delta":81802476},{"NoteNumber":81,"Velocity":45,"Duration":514756,"SoundDuration":514756,"Delta":82053103},{"NoteNumber":70,"Velocity":47,"Duration":257378,"SoundDuration":257378,"Delta":82053103},{"NoteNumber":72,"Velocity":45,"Duration":257378,"SoundDuration":257378,"Delta":82310481},{"NoteNumber":69,"Velocity":44,"Duration":3132035,"SoundDuration":3132035,"Delta":82567859},{"NoteNumber":77,"Velocity":44,"Duration":3132035,"SoundDuration":3132035,"Delta":82567859},{"NoteNumber":41,"Velocity":31,"Duration":510204,"SoundDuration":510204,"Delta":82567859},{"NoteNumber":48,"Velocity":31,"Duration":510204,"SoundDuration":510204,"Delta":83078063},{"NoteNumber":60,"Velocity":29,"Duration":510204,"SoundDuration":510204,"Delta":83588267},{"NoteNumber":57,"Velocity":29,"Duration":2111627,"SoundDuration":2111627,"Delta":83588267},{"NoteNumber":65,"Velocity":33,"Duration":533807,"SoundDuration":533807,"Delta":84098471},{"NoteNumber":69,"Velocity":26,"Duration":1067616,"SoundDuration":1067616,"Delta":84632279},{"NoteNumber":65,"Velocity":57,"Duration":1491402,"SoundDuration":1491402,"Delta":85699895},{"NoteNumber":37,"Velocity":36,"Duration":484418,"SoundDuration":484418,"Delta":85699895},{"NoteNumber":44,"Velocity":36,"Duration":505731,"SoundDuration":505731,"Delta":86184313},{"NoteNumber":53,"Velocity":34,"Duration":501253,"SoundDuration":501253,"Delta":86690045},{"NoteNumber":63,"Velocity":55,"Duration":488666,"SoundDuration":488666,"Delta":87191298},{"NoteNumber":57,"Velocity":39,"Duration":492772,"SoundDuration":492772,"Delta":87191298},{"NoteNumber":49,"Velocity":33,"Duration":492772,"SoundDuration":492772,"Delta":87191298},{"NoteNumber":54,"Velocity":29,"Duration":1020408,"SoundDuration":1020408,"Delta":87684070},{"NoteNumber":63,"Velocity":29,"Duration":1020408,"SoundDuration":1020408,"Delta":87684070},{"NoteNumber":57,"Velocity":52,"Duration":382653,"SoundDuration":382653,"Delta":88194274},{"NoteNumber":56,"Velocity":51,"Duration":169322,"SoundDuration":169322,"Delta":88576927},{"NoteNumber":68,"Velocity":58,"Duration":1458261,"SoundDuration":1458261,"Delta":88704478},{"NoteNumber":37,"Velocity":36,"Duration":501253,"SoundDuration":501253,"Delta":88704478},{"NoteNumber":44,"Velocity":34,"Duration":472589,"SoundDuration":472589,"Delta":89205731},{"NoteNumber":53,"Velocity":31,"Duration":484418,"SoundDuration":484418,"Delta":89678321},{"NoteNumber":57,"Velocity":39,"Duration":455816,"SoundDuration":455816,"Delta":90162739},{"NoteNumber":49,"Velocity":33,"Duration":455816,"SoundDuration":455816,"Delta":90162739},{"NoteNumber":66,"Velocity":53,"Duration":225225,"SoundDuration":225225,"Delta":90393331},{"NoteNumber":68,"Velocity":53,"Duration":232450,"SoundDuration":232450,"Delta":90618556},{"NoteNumber":54,"Velocity":29,"Duration":912104,"SoundDuration":912104,"Delta":90618556},{"NoteNumber":61,"Velocity":29,"Duration":912104,"SoundDuration":912104,"Delta":90618556},{"NoteNumber":69,"Velocity":50,"Duration":111723,"SoundDuration":111723,"Delta":90851006},{"NoteNumber":68,"Velocity":41,"Duration":55861,"SoundDuration":55861,"Delta":90962730},{"NoteNumber":69,"Velocity":41,"Duration":55861,"SoundDuration":55861,"Delta":91018591},{"NoteNumber":68,"Velocity":49,"Duration":234477,"SoundDuration":234477,"Delta":91074453},{"NoteNumber":66,"Velocity":50,"Duration":221729,"SoundDuration":221729,"Delta":91308931},{"NoteNumber":65,"Velocity":53,"Duration":228763,"SoundDuration":228763,"Delta":91530660},{"NoteNumber":37,"Velocity":36,"Duration":452210,"SoundDuration":452210,"Delta":91530660},{"NoteNumber":66,"Velocity":53,"Duration":223446,"SoundDuration":223446,"Delta":91759424},{"NoteNumber":68,"Velocity":56,"Duration":228763,"SoundDuration":228763,"Delta":91982871},{"NoteNumber":44,"Velocity":34,"Duration":447135,"SoundDuration":447135,"Delta":91982871},{"NoteNumber":66,"Velocity":50,"Duration":218372,"SoundDuration":218372,"Delta":92211634},{"NoteNumber":65,"Velocity":52,"Duration":234477,"SoundDuration":234477,"Delta":92430006},{"NoteNumber":53,"Velocity":34,"Duration":449593,"SoundDuration":449593,"Delta":92430006},{"NoteNumber":68,"Velocity":50,"Duration":107557,"SoundDuration":107557,"Delta":92664484},{"NoteNumber":66,"Velocity":46,"Duration":53778,"SoundDuration":53778,"Delta":92772042},{"NoteNumber":68,"Velocity":46,"Duration":53778,"SoundDuration":53778,"Delta":92825821},{"NoteNumber":66,"Velocity":55,"Duration":231609,"SoundDuration":231609,"Delta":92879600},{"NoteNumber":57,"Velocity":39,"Duration":458606,"SoundDuration":458606,"Delta":92879600},{"NoteNumber":49,"Velocity":33,"Duration":458606,"SoundDuration":458606,"Delta":92879600},{"NoteNumber":65,"Velocity":51,"Duration":226997,"SoundDuration":226997,"Delta":93111209},{"NoteNumber":63,"Velocity":55,"Duration":721892,"SoundDuration":721892,"Delta":93338206},{"NoteNumber":54,"Velocity":29,"Duration":972519,"SoundDuration":972519,"Delta":93338206},{"NoteNumber":65,"Velocity":50,"Duration":246386,"SoundDuration":246386,"Delta":93565204},{"NoteNumber":66,"Velocity":52,"Duration":248508,"SoundDuration":248508,"Delta":93811590},{"NoteNumber":63,"Velocity":50,"Duration":250626,"SoundDuration":250626,"Delta":94060099},{"NoteNumber":65,"Velocity":49,"Duration":729103,"SoundDuration":729103,"Delta":94310725},{"NoteNumber":37,"Velocity":36,"Duration":484803,"SoundDuration":484803,"Delta":94310725},{"NoteNumber":44,"Velocity":36,"Duration":478674,"SoundDuration":478674,"Delta":94795529},{"NoteNumber":56,"Velocity":46,"Duration":234375,"SoundDuration":234375,"Delta":95039829},{"NoteNumber":61,"Velocity":48,"Duration":497015,"SoundDuration":497015,"Delta":95274204},{"NoteNumber":53,"Velocity":34,"Duration":497015,"SoundDuration":497015,"Delta":95274204},{"NoteNumber":57,"Velocity":39,"Duration":468767,"SoundDuration":468767,"Delta":95771219},{"NoteNumber":49,"Velocity":33,"Duration":468767,"SoundDuration":468767,"Delta":95771219},{"NoteNumber":59,"Velocity":41,"Duration":233422,"SoundDuration":233422,"Delta":96006564},{"NoteNumber":57,"Velocity":49,"Duration":239217,"SoundDuration":239217,"Delta":96239987},{"NoteNumber":54,"Velocity":29,"Duration":1003179,"SoundDuration":1003179,"Delta":96239987},{"NoteNumber":63,"Velocity":29,"Duration":1003179,"SoundDuration":1003179,"Delta":96239987},{"NoteNumber":56,"Velocity":40,"Duration":246055,"SoundDuration":246055,"Delta":96479204},{"NoteNumber":57,"Velocity":47,"Duration":248508,"SoundDuration":248508,"Delta":96725260},{"NoteNumber":59,"Velocity":40,"Duration":134698,"SoundDuration":134698,"Delta":96973769},{"NoteNumber":56,"Velocity":53,"Duration":175066,"SoundDuration":175066,"Delta":97108467},{"NoteNumber":65,"Velocity":57,"Duration":1491402,"SoundDuration":1491402,"Delta":97243166},{"NoteNumber":37,"Velocity":36,"Duration":484418,"SoundDuration":484418,"Delta":97243166},{"NoteNumber":44,"Velocity":36,"Duration":505731,"SoundDuration":505731,"Delta":97727584},{"NoteNumber":53,"Velocity":34,"Duration":501253,"SoundDuration":501253,"Delta":98233315},{"NoteNumber":63,"Velocity":55,"Duration":497075,"SoundDuration":497075,"Delta":98734568},{"NoteNumber":57,"Velocity":39,"Duration":501252,"SoundDuration":501252,"Delta":98734568},{"NoteNumber":49,"Velocity":33,"Duration":501252,"SoundDuration":501252,"Delta":98734568},{"NoteNumber":54,"Velocity":29,"Duration":1020408,"SoundDuration":1020408,"Delta":99235821},{"NoteNumber":63,"Velocity":29,"Duration":1020408,"SoundDuration":1020408,"Delta":99235821},{"NoteNumber":57,"Velocity":52,"Duration":382653,"SoundDuration":382653,"Delta":99746025},{"NoteNumber":56,"Velocity":51,"Duration":169322,"SoundDuration":169322,"Delta":100128678},{"NoteNumber":68,"Velocity":58,"Duration":1458261,"SoundDuration":1458261,"Delta":100256229},{"NoteNumber":37,"Velocity":36,"Duration":501253,"SoundDuration":501253,"Delta":100256229},{"NoteNumber":44,"Velocity":34,"Duration":472589,"SoundDuration":472589,"Delta":100757482},{"NoteNumber":53,"Velocity":31,"Duration":484418,"SoundDuration":484418,"Delta":101230072},{"NoteNumber":57,"Velocity":39,"Duration":455816,"SoundDuration":455816,"Delta":101714490},{"NoteNumber":49,"Velocity":33,"Duration":455816,"SoundDuration":455816,"Delta":101714490},{"NoteNumber":66,"Velocity":53,"Duration":225225,"SoundDuration":225225,"Delta":101945082},{"NoteNumber":68,"Velocity":53,"Duration":232450,"SoundDuration":232450,"Delta":102170307},{"NoteNumber":54,"Velocity":29,"Duration":903220,"SoundDuration":903220,"Delta":102170307},{"NoteNumber":63,"Velocity":29,"Duration":903220,"SoundDuration":903220,"Delta":102170307},{"NoteNumber":69,"Velocity":56,"Duration":223446,"SoundDuration":223446,"Delta":102402757},{"NoteNumber":71,"Velocity":59,"Duration":230591,"SoundDuration":230591,"Delta":102626204},{"NoteNumber":73,"Velocity":61,"Duration":108365,"SoundDuration":108365,"Delta":102856796},{"NoteNumber":71,"Velocity":53,"Duration":54182,"SoundDuration":54182,"Delta":102965162},{"NoteNumber":73,"Velocity":53,"Duration":54182,"SoundDuration":54182,"Delta":103019345},{"NoteNumber":71,"Velocity":62,"Duration":233485,"SoundDuration":233485,"Delta":103073528},{"NoteNumber":37,"Velocity":45,"Duration":462249,"SoundDuration":462249,"Delta":103073528},{"NoteNumber":69,"Velocity":57,"Duration":228763,"SoundDuration":228763,"Delta":103307014},{"NoteNumber":68,"Velocity":62,"Duration":238208,"SoundDuration":238208,"Delta":103535777},{"NoteNumber":44,"Velocity":39,"Duration":465206,"SoundDuration":465206,"Delta":103535777},{"NoteNumber":66,"Velocity":58,"Duration":226997,"SoundDuration":226997,"Delta":103773986},{"NoteNumber":68,"Velocity":60,"Duration":232450,"SoundDuration":232450,"Delta":104000983},{"NoteNumber":53,"Velocity":38,"Duration":459447,"SoundDuration":459447,"Delta":104000983},{"NoteNumber":69,"Velocity":56,"Duration":113498,"SoundDuration":113498,"Delta":104233433},{"NoteNumber":66,"Velocity":51,"Duration":56749,"SoundDuration":56749,"Delta":104346932},{"NoteNumber":68,"Velocity":52,"Duration":56749,"SoundDuration":56749,"Delta":104403681},{"NoteNumber":66,"Velocity":58,"Duration":240208,"SoundDuration":240208,"Delta":104460431},{"NoteNumber":57,"Velocity":44,"Duration":470800,"SoundDuration":470800,"Delta":104460431},{"NoteNumber":65,"Velocity":52,"Duration":230591,"SoundDuration":230591,"Delta":104700640},{"NoteNumber":63,"Velocity":51,"Duration":978331,"SoundDuration":978331,"Delta":104931231},{"NoteNumber":54,"Velocity":29,"Duration":978331,"SoundDuration":978331,"Delta":104931231},{"NoteNumber":65,"Velocity":44,"Duration":246386,"SoundDuration":246386,"Delta":105171424},{"NoteNumber":66,"Velocity":49,"Duration":234375,"SoundDuration":234375,"Delta":105417810},{"NoteNumber":68,"Velocity":44,"Duration":257378,"SoundDuration":257378,"Delta":105652185},{"NoteNumber":37,"Velocity":33,"Duration":1514155,"SoundDuration":1514155,"Delta":105780874},{"NoteNumber":73,"Velocity":26,"Duration":453789,"SoundDuration":453789,"Delta":105909563},{"NoteNumber":68,"Velocity":26,"Duration":453789,"SoundDuration":453789,"Delta":105909563},{"NoteNumber":65,"Velocity":26,"Duration":453789,"SoundDuration":453789,"Delta":105909563},{"NoteNumber":77,"Velocity":31,"Duration":453789,"SoundDuration":453789,"Delta":105909563},{"NoteNumber":53,"Velocity":37,"Duration":1385465,"SoundDuration":1385465,"Delta":105909563},{"NoteNumber":61,"Velocity":48,"Duration":1385465,"SoundDuration":1385465,"Delta":105909563},{"NoteNumber":77,"Velocity":29,"Duration":465838,"SoundDuration":465838,"Delta":106363352},{"NoteNumber":73,"Velocity":24,"Duration":465838,"SoundDuration":465838,"Delta":106363352},{"NoteNumber":68,"Velocity":24,"Duration":465838,"SoundDuration":465838,"Delta":106363352},{"NoteNumber":65,"Velocity":24,"Duration":465838,"SoundDuration":465838,"Delta":106363352},{"NoteNumber":77,"Velocity":29,"Duration":465838,"SoundDuration":465838,"Delta":106829191},{"NoteNumber":73,"Velocity":24,"Duration":465838,"SoundDuration":465838,"Delta":106829191},{"NoteNumber":68,"Velocity":24,"Duration":465838,"SoundDuration":465838,"Delta":106829191},{"NoteNumber":65,"Velocity":24,"Duration":465838,"SoundDuration":465838,"Delta":106829191},{"NoteNumber":73,"Velocity":26,"Duration":461556,"SoundDuration":461556,"Delta":107295029},{"NoteNumber":68,"Velocity":26,"Duration":461556,"SoundDuration":461556,"Delta":107295029},{"NoteNumber":65,"Velocity":26,"Duration":461556,"SoundDuration":461556,"Delta":107295029},{"NoteNumber":77,"Velocity":31,"Duration":461556,"SoundDuration":461556,"Delta":107295029},{"NoteNumber":60,"Velocity":41,"Duration":238208,"SoundDuration":238208,"Delta":107518376},{"NoteNumber":77,"Velocity":29,"Duration":462574,"SoundDuration":462574,"Delta":107756585},{"NoteNumber":73,"Velocity":24,"Duration":462574,"SoundDuration":462574,"Delta":107756585},{"NoteNumber":68,"Velocity":24,"Duration":462574,"SoundDuration":462574,"Delta":107756585},{"NoteNumber":65,"Velocity":24,"Duration":462574,"SoundDuration":462574,"Delta":107756585},{"NoteNumber":58,"Velocity":47,"Duration":230591,"SoundDuration":230591,"Delta":107756585},{"NoteNumber":56,"Velocity":41,"Duration":231982,"SoundDuration":231982,"Delta":107987177},{"NoteNumber":77,"Velocity":29,"Duration":453715,"SoundDuration":453715,"Delta":108219160},{"NoteNumber":73,"Velocity":24,"Duration":453715,"SoundDuration":453715,"Delta":108219160},{"NoteNumber":68,"Velocity":24,"Duration":453715,"SoundDuration":453715,"Delta":108219160},{"NoteNumber":65,"Velocity":24,"Duration":453715,"SoundDuration":453715,"Delta":108219160},{"NoteNumber":58,"Velocity":47,"Duration":213523,"SoundDuration":213523,"Delta":108219160},{"NoteNumber":60,"Velocity":41,"Duration":240192,"SoundDuration":240192,"Delta":108432683},{"NoteNumber":73,"Velocity":26,"Duration":443393,"SoundDuration":443393,"Delta":108672875},{"NoteNumber":68,"Velocity":26,"Duration":443393,"SoundDuration":443393,"Delta":108672875},{"NoteNumber":65,"Velocity":26,"Duration":443393,"SoundDuration":443393,"Delta":108672875},{"NoteNumber":77,"Velocity":31,"Duration":443393,"SoundDuration":443393,"Delta":108672875},{"NoteNumber":58,"Velocity":42,"Duration":147797,"SoundDuration":147797,"Delta":108672875},{"NoteNumber":60,"Velocity":39,"Duration":147797,"SoundDuration":147797,"Delta":108820673},{"NoteNumber":58,"Velocity":39,"Duration":147797,"SoundDuration":147797,"Delta":108968471},{"NoteNumber":77,"Velocity":29,"Duration":465838,"SoundDuration":465838,"Delta":109116269},{"NoteNumber":73,"Velocity":24,"Duration":465838,"SoundDuration":465838,"Delta":109116269},{"NoteNumber":68,"Velocity":24,"Duration":465838,"SoundDuration":465838,"Delta":109116269},{"NoteNumber":65,"Velocity":24,"Duration":465838,"SoundDuration":465838,"Delta":109116269},{"NoteNumber":56,"Velocity":44,"Duration":2202349,"SoundDuration":2202349,"Delta":109116269},{"NoteNumber":77,"Velocity":29,"Duration":472143,"SoundDuration":472143,"Delta":109582107},{"NoteNumber":73,"Velocity":24,"Duration":472143,"SoundDuration":472143,"Delta":109582107},{"NoteNumber":68,"Velocity":24,"Duration":472143,"SoundDuration":472143,"Delta":109582107},{"NoteNumber":65,"Velocity":24,"Duration":472143,"SoundDuration":472143,"Delta":109582107},{"NoteNumber":73,"Velocity":26,"Duration":459770,"SoundDuration":459770,"Delta":110054251},{"NoteNumber":68,"Velocity":26,"Duration":459770,"SoundDuration":459770,"Delta":110054251},{"NoteNumber":65,"Velocity":26,"Duration":459770,"SoundDuration":459770,"Delta":110054251},{"NoteNumber":77,"Velocity":31,"Duration":459770,"SoundDuration":459770,"Delta":110054251},{"NoteNumber":77,"Velocity":29,"Duration":459769,"SoundDuration":459769,"Delta":110514021},{"NoteNumber":73,"Velocity":24,"Duration":459769,"SoundDuration":459769,"Delta":110514021},{"NoteNumber":68,"Velocity":24,"Duration":459769,"SoundDuration":459769,"Delta":110514021},{"NoteNumber":65,"Velocity":24,"Duration":459769,"SoundDuration":459769,"Delta":110514021},{"NoteNumber":77,"Velocity":29,"Duration":459770,"SoundDuration":459770,"Delta":110973791},{"NoteNumber":73,"Velocity":24,"Duration":459770,"SoundDuration":459770,"Delta":110973791},{"NoteNumber":68,"Velocity":24,"Duration":459770,"SoundDuration":459770,"Delta":110973791},{"NoteNumber":65,"Velocity":24,"Duration":459770,"SoundDuration":459770,"Delta":110973791},{"NoteNumber":37,"Velocity":33,"Duration":1491582,"SoundDuration":1491582,"Delta":111318618},{"NoteNumber":73,"Velocity":26,"Duration":459769,"SoundDuration":459769,"Delta":111433561},{"NoteNumber":68,"Velocity":26,"Duration":459769,"SoundDuration":459769,"Delta":111433561},{"NoteNumber":65,"Velocity":26,"Duration":459769,"SoundDuration":459769,"Delta":111433561},{"NoteNumber":77,"Velocity":31,"Duration":459769,"SoundDuration":459769,"Delta":111433561},{"NoteNumber":53,"Velocity":37,"Duration":1376639,"SoundDuration":1376639,"Delta":111433561},{"NoteNumber":61,"Velocity":48,"Duration":1376639,"SoundDuration":1376639,"Delta":111433561},{"NoteNumber":77,"Velocity":29,"Duration":458434,"SoundDuration":458434,"Delta":111893331},{"NoteNumber":73,"Velocity":24,"Duration":458434,"SoundDuration":458434,"Delta":111893331},{"NoteNumber":68,"Velocity":24,"Duration":458434,"SoundDuration":458434,"Delta":111893331},{"NoteNumber":65,"Velocity":24,"Duration":458434,"SoundDuration":458434,"Delta":111893331},{"NoteNumber":77,"Velocity":29,"Duration":458435,"SoundDuration":458435,"Delta":112351766},{"NoteNumber":73,"Velocity":24,"Duration":458435,"SoundDuration":458435,"Delta":112351766},{"NoteNumber":68,"Velocity":24,"Duration":458435,"SoundDuration":458435,"Delta":112351766},{"NoteNumber":65,"Velocity":24,"Duration":458435,"SoundDuration":458435,"Delta":112351766},{"NoteNumber":73,"Velocity":26,"Duration":458540,"SoundDuration":458540,"Delta":112810201},{"NoteNumber":68,"Velocity":26,"Duration":458540,"SoundDuration":458540,"Delta":112810201},{"NoteNumber":65,"Velocity":26,"Duration":458540,"SoundDuration":458540,"Delta":112810201},{"NoteNumber":77,"Velocity":31,"Duration":458540,"SoundDuration":458540,"Delta":112810201},{"NoteNumber":60,"Velocity":41,"Duration":233754,"SoundDuration":233754,"Delta":113034987},{"NoteNumber":77,"Velocity":29,"Duration":453568,"SoundDuration":453568,"Delta":113268741},{"NoteNumber":73,"Velocity":24,"Duration":453568,"SoundDuration":453568,"Delta":113268741},{"NoteNumber":68,"Velocity":24,"Duration":453568,"SoundDuration":453568,"Delta":113268741},{"NoteNumber":65,"Velocity":24,"Duration":453568,"SoundDuration":453568,"Delta":113268741},{"NoteNumber":58,"Velocity":47,"Duration":221729,"SoundDuration":221729,"Delta":113268741},{"NoteNumber":56,"Velocity":41,"Duration":231839,"SoundDuration":231839,"Delta":113490471},{"NoteNumber":77,"Velocity":29,"Duration":456407,"SoundDuration":456407,"Delta":113722310},{"NoteNumber":73,"Velocity":24,"Duration":456407,"SoundDuration":456407,"Delta":113722310},{"NoteNumber":68,"Velocity":24,"Duration":456407,"SoundDuration":456407,"Delta":113722310},{"NoteNumber":65,"Velocity":24,"Duration":456407,"SoundDuration":456407,"Delta":113722310},{"NoteNumber":58,"Velocity":47,"Duration":220038,"SoundDuration":220038,"Delta":113722310},{"NoteNumber":60,"Velocity":41,"Duration":236369,"SoundDuration":236369,"Delta":113942348},{"NoteNumber":73,"Velocity":26,"Duration":436745,"SoundDuration":436745,"Delta":114178717},{"NoteNumber":68,"Velocity":26,"Duration":436745,"SoundDuration":436745,"Delta":114178717},{"NoteNumber":65,"Velocity":26,"Duration":436745,"SoundDuration":436745,"Delta":114178717},{"NoteNumber":77,"Velocity":31,"Duration":436745,"SoundDuration":436745,"Delta":114178717},{"NoteNumber":58,"Velocity":42,"Duration":145581,"SoundDuration":145581,"Delta":114178717},{"NoteNumber":60,"Velocity":39,"Duration":145581,"SoundDuration":145581,"Delta":114324299},{"NoteNumber":58,"Velocity":39,"Duration":145581,"SoundDuration":145581,"Delta":114469881},{"NoteNumber":77,"Velocity":29,"Duration":458434,"SoundDuration":458434,"Delta":114615462},{"NoteNumber":73,"Velocity":24,"Duration":458434,"SoundDuration":458434,"Delta":114615462},{"NoteNumber":68,"Velocity":24,"Duration":458434,"SoundDuration":458434,"Delta":114615462},{"NoteNumber":65,"Velocity":24,"Duration":458434,"SoundDuration":458434,"Delta":114615462},{"NoteNumber":56,"Velocity":44,"Duration":2177936,"SoundDuration":2177936,"Delta":114615462},{"NoteNumber":77,"Velocity":29,"Duration":464612,"SoundDuration":464612,"Delta":115073897},{"NoteNumber":73,"Velocity":24,"Duration":464612,"SoundDuration":464612,"Delta":115073897},{"NoteNumber":68,"Velocity":24,"Duration":464612,"SoundDuration":464612,"Delta":115073897},{"NoteNumber":65,"Velocity":24,"Duration":464612,"SoundDuration":464612,"Delta":115073897},{"NoteNumber":73,"Velocity":26,"Duration":452488,"SoundDuration":452488,"Delta":115538509},{"NoteNumber":68,"Velocity":26,"Duration":452488,"SoundDuration":452488,"Delta":115538509},{"NoteNumber":65,"Velocity":26,"Duration":452488,"SoundDuration":452488,"Delta":115538509},{"NoteNumber":77,"Velocity":31,"Duration":452488,"SoundDuration":452488,"Delta":115538509},{"NoteNumber":77,"Velocity":29,"Duration":452488,"SoundDuration":452488,"Delta":115990998},{"NoteNumber":73,"Velocity":24,"Duration":452488,"SoundDuration":452488,"Delta":115990998},{"NoteNumber":68,"Velocity":24,"Duration":452488,"SoundDuration":452488,"Delta":115990998},{"NoteNumber":65,"Velocity":24,"Duration":452488,"SoundDuration":452488,"Delta":115990998},{"NoteNumber":77,"Velocity":29,"Duration":470607,"SoundDuration":470607,"Delta":116443486},{"NoteNumber":73,"Velocity":24,"Duration":470607,"SoundDuration":470607,"Delta":116443486},{"NoteNumber":68,"Velocity":24,"Duration":470607,"SoundDuration":470607,"Delta":116443486},{"NoteNumber":65,"Velocity":24,"Duration":470607,"SoundDuration":470607,"Delta":116443486},{"NoteNumber":46,"Velocity":42,"Duration":1523824,"SoundDuration":1523824,"Delta":116793399},{"NoteNumber":55,"Velocity":42,"Duration":211679,"SoundDuration":211679,"Delta":116853747},{"NoteNumber":73,"Velocity":26,"Duration":453995,"SoundDuration":453995,"Delta":116914094},{"NoteNumber":67,"Velocity":26,"Duration":453995,"SoundDuration":453995,"Delta":116914094},{"NoteNumber":65,"Velocity":26,"Duration":453995,"SoundDuration":453995,"Delta":116914094},{"NoteNumber":77,"Velocity":31,"Duration":453995,"SoundDuration":453995,"Delta":116914094},{"NoteNumber":61,"Velocity":42,"Duration":151331,"SoundDuration":151331,"Delta":116914094},{"NoteNumber":63,"Velocity":39,"Duration":151331,"SoundDuration":151331,"Delta":117065426},{"NoteNumber":61,"Velocity":39,"Duration":151331,"SoundDuration":151331,"Delta":117216758},{"NoteNumber":77,"Velocity":29,"Duration":468750,"SoundDuration":468750,"Delta":117368089},{"NoteNumber":73,"Velocity":24,"Duration":468750,"SoundDuration":468750,"Delta":117368089},{"NoteNumber":67,"Velocity":24,"Duration":468750,"SoundDuration":468750,"Delta":117368089},{"NoteNumber":65,"Velocity":24,"Duration":468750,"SoundDuration":468750,"Delta":117368089},{"NoteNumber":55,"Velocity":44,"Duration":2340251,"SoundDuration":2340251,"Delta":117368089},{"NoteNumber":77,"Velocity":29,"Duration":480384,"SoundDuration":480384,"Delta":117836839},{"NoteNumber":73,"Velocity":24,"Duration":480384,"SoundDuration":480384,"Delta":117836839},{"NoteNumber":67,"Velocity":24,"Duration":480384,"SoundDuration":480384,"Delta":117836839},{"NoteNumber":65,"Velocity":24,"Duration":480384,"SoundDuration":480384,"Delta":117836839},{"NoteNumber":73,"Velocity":26,"Duration":461183,"SoundDuration":461183,"Delta":118317224},{"NoteNumber":67,"Velocity":26,"Duration":461183,"SoundDuration":461183,"Delta":118317224},{"NoteNumber":65,"Velocity":26,"Duration":461183,"SoundDuration":461183,"Delta":118317224},{"NoteNumber":77,"Velocity":31,"Duration":461183,"SoundDuration":461183,"Delta":118317224},{"NoteNumber":77,"Velocity":29,"Duration":461183,"SoundDuration":461183,"Delta":118778407},{"NoteNumber":73,"Velocity":24,"Duration":461183,"SoundDuration":461183,"Delta":118778407},{"NoteNumber":67,"Velocity":24,"Duration":461183,"SoundDuration":461183,"Delta":118778407},{"NoteNumber":65,"Velocity":24,"Duration":461183,"SoundDuration":461183,"Delta":118778407},{"NoteNumber":77,"Velocity":29,"Duration":468750,"SoundDuration":468750,"Delta":119239591},{"NoteNumber":73,"Velocity":24,"Duration":468750,"SoundDuration":468750,"Delta":119239591},{"NoteNumber":67,"Velocity":24,"Duration":468750,"SoundDuration":468750,"Delta":119239591},{"NoteNumber":65,"Velocity":24,"Duration":468750,"SoundDuration":468750,"Delta":119239591},{"NoteNumber":73,"Velocity":26,"Duration":497017,"SoundDuration":497017,"Delta":119708341},{"NoteNumber":67,"Velocity":26,"Duration":497017,"SoundDuration":497017,"Delta":119708341},{"NoteNumber":65,"Velocity":26,"Duration":497017,"SoundDuration":497017,"Delta":119708341},{"NoteNumber":77,"Velocity":31,"Duration":497017,"SoundDuration":497017,"Delta":119708341},{"NoteNumber":48,"Velocity":42,"Duration":1517505,"SoundDuration":1517505,"Delta":119708341},{"NoteNumber":58,"Velocity":42,"Duration":165672,"SoundDuration":165672,"Delta":119708341},{"NoteNumber":60,"Velocity":39,"Duration":165672,"SoundDuration":165672,"Delta":119874014},{"NoteNumber":58,"Velocity":39,"Duration":165672,"SoundDuration":165672,"Delta":120039686},{"NoteNumber":77,"Velocity":29,"Duration":505731,"SoundDuration":505731,"Delta":120205359},{"NoteNumber":73,"Velocity":24,"Duration":505731,"SoundDuration":505731,"Delta":120205359},{"NoteNumber":67,"Velocity":24,"Duration":505731,"SoundDuration":505731,"Delta":120205359},{"NoteNumber":65,"Velocity":24,"Duration":505731,"SoundDuration":505731,"Delta":120205359},{"NoteNumber":55,"Velocity":44,"Duration":1020488,"SoundDuration":1020488,"Delta":120205359},{"NoteNumber":77,"Velocity":29,"Duration":514756,"SoundDuration":514756,"Delta":120711090},{"NoteNumber":73,"Velocity":24,"Duration":514756,"SoundDuration":514756,"Delta":120711090},{"NoteNumber":67,"Velocity":24,"Duration":514756,"SoundDuration":514756,"Delta":120711090},{"NoteNumber":65,"Velocity":24,"Duration":514756,"SoundDuration":514756,"Delta":120711090},{"NoteNumber":73,"Velocity":26,"Duration":521792,"SoundDuration":521792,"Delta":121225847},{"NoteNumber":67,"Velocity":26,"Duration":521792,"SoundDuration":521792,"Delta":121225847},{"NoteNumber":70,"Velocity":26,"Duration":521792,"SoundDuration":521792,"Delta":121225847},{"NoteNumber":76,"Velocity":31,"Duration":521792,"SoundDuration":521792,"Delta":121225847},{"NoteNumber":60,"Velocity":44,"Duration":1626204,"SoundDuration":1626204,"Delta":121225847},{"NoteNumber":76,"Velocity":29,"Duration":541405,"SoundDuration":541405,"Delta":121747639},{"NoteNumber":73,"Velocity":24,"Duration":541405,"SoundDuration":541405,"Delta":121747639},{"NoteNumber":67,"Velocity":24,"Duration":541405,"SoundDuration":541405,"Delta":121747639},{"NoteNumber":70,"Velocity":24,"Duration":541405,"SoundDuration":541405,"Delta":121747639},{"NoteNumber":76,"Velocity":29,"Duration":563006,"SoundDuration":563006,"Delta":122289045},{"NoteNumber":73,"Velocity":24,"Duration":563006,"SoundDuration":563006,"Delta":122289045},{"NoteNumber":67,"Velocity":24,"Duration":563006,"SoundDuration":563006,"Delta":122289045},{"NoteNumber":70,"Velocity":24,"Duration":563006,"SoundDuration":563006,"Delta":122289045},{"NoteNumber":77,"Velocity":57,"Duration":1491402,"SoundDuration":1491402,"Delta":122852052},{"NoteNumber":41,"Velocity":36,"Duration":484418,"SoundDuration":484418,"Delta":122852052},{"NoteNumber":48,"Velocity":36,"Duration":505731,"SoundDuration":505731,"Delta":123336470},{"NoteNumber":60,"Velocity":34,"Duration":501253,"SoundDuration":501253,"Delta":123842201},{"NoteNumber":56,"Velocity":34,"Duration":501253,"SoundDuration":501253,"Delta":123842201},{"NoteNumber":76,"Velocity":55,"Duration":1011456,"SoundDuration":1011456,"Delta":124343454},{"NoteNumber":60,"Velocity":39,"Duration":501252,"SoundDuration":501252,"Delta":124343454},{"NoteNumber":58,"Velocity":33,"Duration":501252,"SoundDuration":501252,"Delta":124343454},{"NoteNumber":67,"Velocity":29,"Duration":1020408,"SoundDuration":1020408,"Delta":124844707},{"NoteNumber":72,"Velocity":52,"Duration":510204,"SoundDuration":510204,"Delta":125354911},{"NoteNumber":41,"Velocity":36,"Duration":501253,"SoundDuration":501253,"Delta":125865115},{"NoteNumber":84,"Velocity":58,"Duration":1447818,"SoundDuration":1447818,"Delta":125875558},{"NoteNumber":48,"Velocity":34,"Duration":472589,"SoundDuration":472589,"Delta":126366368},{"NoteNumber":60,"Velocity":31,"Duration":484418,"SoundDuration":484418,"Delta":126838958},{"NoteNumber":56,"Velocity":31,"Duration":484418,"SoundDuration":484418,"Delta":126838958},{"NoteNumber":60,"Velocity":39,"Duration":455816,"SoundDuration":455816,"Delta":127323376},{"NoteNumber":58,"Velocity":33,"Duration":455816,"SoundDuration":455816,"Delta":127323376},{"NoteNumber":79,"Velocity":53,"Duration":225225,"SoundDuration":225225,"Delta":127553968},{"NoteNumber":80,"Velocity":56,"Duration":232450,"SoundDuration":232450,"Delta":127779193},{"NoteNumber":64,"Velocity":29,"Duration":940271,"SoundDuration":940271,"Delta":127779193},{"NoteNumber":82,"Velocity":50,"Duration":111723,"SoundDuration":111723,"Delta":128011643},{"NoteNumber":80,"Velocity":41,"Duration":55861,"SoundDuration":55861,"Delta":128123367},{"NoteNumber":82,"Velocity":41,"Duration":55861,"SoundDuration":55861,"Delta":128179228},{"NoteNumber":80,"Velocity":49,"Duration":234375,"SoundDuration":234375,"Delta":128235090},{"NoteNumber":79,"Velocity":50,"Duration":250000,"SoundDuration":250000,"Delta":128469465},{"NoteNumber":84,"Velocity":53,"Duration":240192,"SoundDuration":240192,"Delta":128719465},{"NoteNumber":41,"Velocity":36,"Duration":467189,"SoundDuration":467189,"Delta":128719465},{"NoteNumber":77,"Velocity":53,"Duration":226997,"SoundDuration":226997,"Delta":128959657},{"NoteNumber":79,"Velocity":56,"Duration":234375,"SoundDuration":234375,"Delta":129186655},{"NoteNumber":48,"Velocity":36,"Duration":449490,"SoundDuration":449490,"Delta":129186655},{"NoteNumber":80,"Velocity":50,"Duration":107557,"SoundDuration":107557,"Delta":129421030},{"NoteNumber":79,"Velocity":44,"Duration":53778,"SoundDuration":53778,"Delta":129528588},{"NoteNumber":80,"Velocity":41,"Duration":53778,"SoundDuration":53778,"Delta":129582366},{"NoteNumber":79,"Velocity":52,"Duration":239143,"SoundDuration":239143,"Delta":129636145},{"NoteNumber":60,"Velocity":36,"Duration":487652,"SoundDuration":487652,"Delta":129636145},{"NoteNumber":56,"Velocity":36,"Duration":487652,"SoundDuration":487652,"Delta":129636145},{"NoteNumber":77,"Velocity":50,"Duration":248509,"SoundDuration":248509,"Delta":129875289},{"NoteNumber":76,"Velocity":53,"Duration":246386,"SoundDuration":246386,"Delta":130123798},{"NoteNumber":60,"Velocity":39,"Duration":484595,"SoundDuration":484595,"Delta":130123798},{"NoteNumber":58,"Velocity":33,"Duration":484595,"SoundDuration":484595,"Delta":130123798},{"NoteNumber":72,"Velocity":53,"Duration":238208,"SoundDuration":238208,"Delta":130370184},{"NoteNumber":71,"Velocity":56,"Duration":238208,"SoundDuration":238208,"Delta":130608393},{"NoteNumber":67,"Velocity":29,"Duration":983730,"SoundDuration":983730,"Delta":130608393},{"NoteNumber":72,"Velocity":50,"Duration":246386,"SoundDuration":246386,"Delta":130846602},{"NoteNumber":75,"Velocity":52,"Duration":248509,"SoundDuration":248509,"Delta":131092988},{"NoteNumber":73,"Velocity":50,"Duration":250626,"SoundDuration":250626,"Delta":131341497},{"NoteNumber":72,"Velocity":49,"Duration":2971449,"SoundDuration":2971449,"Delta":131592124},{"NoteNumber":41,"Velocity":36,"Duration":484804,"SoundDuration":484804,"Delta":131592124},{"NoteNumber":65,"Velocity":49,"Duration":236295,"SoundDuration":236295,"Delta":131840633},{"NoteNumber":67,"Velocity":51,"Duration":244299,"SoundDuration":244299,"Delta":132076928},{"NoteNumber":48,"Velocity":36,"Duration":467746,"SoundDuration":467746,"Delta":132076928},{"NoteNumber":68,"Velocity":46,"Duration":111723,"SoundDuration":111723,"Delta":132321227},{"NoteNumber":67,"Velocity":40,"Duration":55861,"SoundDuration":55861,"Delta":132432951},{"NoteNumber":68,"Velocity":38,"Duration":55861,"SoundDuration":55861,"Delta":132488813},{"NoteNumber":67,"Velocity":48,"Duration":238095,"SoundDuration":238095,"Delta":132544674},{"NoteNumber":60,"Velocity":34,"Duration":486029,"SoundDuration":486029,"Delta":132544674},{"NoteNumber":56,"Velocity":34,"Duration":486029,"SoundDuration":486029,"Delta":132544674},{"NoteNumber":65,"Velocity":46,"Duration":247933,"SoundDuration":247933,"Delta":132782770},{"NoteNumber":64,"Velocity":49,"Duration":247934,"SoundDuration":247934,"Delta":133030704},{"NoteNumber":60,"Velocity":39,"Duration":490143,"SoundDuration":490143,"Delta":133030704},{"NoteNumber":58,"Velocity":33,"Duration":490143,"SoundDuration":490143,"Delta":133030704},{"NoteNumber":61,"Velocity":49,"Duration":242209,"SoundDuration":242209,"Delta":133278638},{"NoteNumber":60,"Velocity":49,"Duration":243254,"SoundDuration":243254,"Delta":133520847},{"NoteNumber":67,"Velocity":29,"Duration":891993,"SoundDuration":891993,"Delta":133520847},{"NoteNumber":58,"Velocity":39,"Duration":247447,"SoundDuration":247447,"Delta":133764101},{"NoteNumber":56,"Velocity":44,"Duration":259941,"SoundDuration":259941,"Delta":134011549},{"NoteNumber":55,"Velocity":38,"Duration":292083,"SoundDuration":292083,"Delta":134271490},{"NoteNumber":53,"Velocity":36,"Duration":191101,"SoundDuration":191101,"Delta":134412840},{"NoteNumber":77,"Velocity":50,"Duration":1491402,"SoundDuration":1491402,"Delta":134563573},{"NoteNumber":41,"Velocity":31,"Duration":484418,"SoundDuration":484418,"Delta":134563573},{"NoteNumber":48,"Velocity":31,"Duration":505731,"SoundDuration":505731,"Delta":135047991},{"NoteNumber":60,"Velocity":29,"Duration":501252,"SoundDuration":501252,"Delta":135553723},{"NoteNumber":56,"Velocity":29,"Duration":501252,"SoundDuration":501252,"Delta":135553723},{"NoteNumber":76,"Velocity":49,"Duration":1011457,"SoundDuration":1011457,"Delta":136054976},{"NoteNumber":60,"Velocity":35,"Duration":501253,"SoundDuration":501253,"Delta":136054976},{"NoteNumber":58,"Velocity":29,"Duration":501253,"SoundDuration":501253,"Delta":136054976},{"NoteNumber":67,"Velocity":26,"Duration":1029594,"SoundDuration":1029594,"Delta":136556229},{"NoteNumber":72,"Velocity":47,"Duration":519390,"SoundDuration":519390,"Delta":137066433},{"NoteNumber":84,"Velocity":51,"Duration":1482688,"SoundDuration":1482688,"Delta":137585823},{"NoteNumber":41,"Velocity":31,"Duration":501252,"SoundDuration":501252,"Delta":137585823},{"NoteNumber":48,"Velocity":29,"Duration":497017,"SoundDuration":497017,"Delta":138087076},{"NoteNumber":60,"Velocity":29,"Duration":484418,"SoundDuration":484418,"Delta":138584094},{"NoteNumber":57,"Velocity":29,"Duration":484418,"SoundDuration":484418,"Delta":138584094},{"NoteNumber":60,"Velocity":35,"Duration":457675,"SoundDuration":457675,"Delta":139068512},{"NoteNumber":58,"Velocity":29,"Duration":457675,"SoundDuration":457675,"Delta":139068512},{"NoteNumber":79,"Velocity":48,"Duration":225225,"SoundDuration":225225,"Delta":139300962},{"NoteNumber":81,"Velocity":49,"Duration":234375,"SoundDuration":234375,"Delta":139526187},{"NoteNumber":64,"Velocity":26,"Duration":942551,"SoundDuration":942551,"Delta":139526187},{"NoteNumber":82,"Velocity":45,"Duration":111723,"SoundDuration":111723,"Delta":139760562},{"NoteNumber":81,"Velocity":37,"Duration":55861,"SoundDuration":55861,"Delta":139872286},{"NoteNumber":82,"Velocity":37,"Duration":55861,"SoundDuration":55861,"Delta":139928148},{"NoteNumber":81,"Velocity":44,"Duration":236220,"SoundDuration":236220,"Delta":139984009},{"NoteNumber":79,"Velocity":45,"Duration":248509,"SoundDuration":248509,"Delta":140220230},{"NoteNumber":84,"Velocity":48,"Duration":240192,"SoundDuration":240192,"Delta":140468739},{"NoteNumber":41,"Velocity":31,"Duration":467189,"SoundDuration":467189,"Delta":140468739},{"NoteNumber":77,"Velocity":48,"Duration":226997,"SoundDuration":226997,"Delta":140708931},{"NoteNumber":79,"Velocity":49,"Duration":234375,"SoundDuration":234375,"Delta":140935929},{"NoteNumber":48,"Velocity":31,"Duration":449490,"SoundDuration":449490,"Delta":140935929},{"NoteNumber":81,"Velocity":45,"Duration":107557,"SoundDuration":107557,"Delta":141170304},{"NoteNumber":79,"Velocity":39,"Duration":53778,"SoundDuration":53778,"Delta":141277861},{"NoteNumber":81,"Velocity":37,"Duration":53778,"SoundDuration":53778,"Delta":141331640},{"NoteNumber":79,"Velocity":47,"Duration":234375,"SoundDuration":234375,"Delta":141385419},{"NoteNumber":60,"Velocity":30,"Duration":482884,"SoundDuration":482884,"Delta":141385419},{"NoteNumber":57,"Velocity":30,"Duration":482884,"SoundDuration":482884,"Delta":141385419},{"NoteNumber":77,"Velocity":45,"Duration":248509,"SoundDuration":248509,"Delta":141619794},{"NoteNumber":82,"Velocity":48,"Duration":973430,"SoundDuration":973430,"Delta":141868303},{"NoteNumber":76,"Velocity":48,"Duration":246386,"SoundDuration":246386,"Delta":141868303},{"NoteNumber":60,"Velocity":35,"Duration":484595,"SoundDuration":484595,"Delta":141868303},{"NoteNumber":58,"Velocity":29,"Duration":484595,"SoundDuration":484595,"Delta":141868303},{"NoteNumber":74,"Velocity":48,"Duration":238208,"SoundDuration":238208,"Delta":142114689},{"NoteNumber":76,"Velocity":49,"Duration":238208,"SoundDuration":238208,"Delta":142352898},{"NoteNumber":67,"Velocity":26,"Duration":1003591,"SoundDuration":1003591,"Delta":142352898},{"NoteNumber":72,"Velocity":45,"Duration":250626,"SoundDuration":250626,"Delta":142591107},{"NoteNumber":81,"Velocity":45,"Duration":514756,"SoundDuration":514756,"Delta":142841733},{"NoteNumber":70,"Velocity":47,"Duration":257378,"SoundDuration":257378,"Delta":142841733},{"NoteNumber":72,"Velocity":45,"Duration":257378,"SoundDuration":257378,"Delta":143099112},{"NoteNumber":69,"Velocity":44,"Duration":2062195,"SoundDuration":2062195,"Delta":143356490},{"NoteNumber":77,"Velocity":44,"Duration":3132035,"SoundDuration":3132035,"Delta":143356490},{"NoteNumber":41,"Velocity":31,"Duration":510203,"SoundDuration":510203,"Delta":143356490},{"NoteNumber":48,"Velocity":31,"Duration":510203,"SoundDuration":510203,"Delta":143866694},{"NoteNumber":60,"Velocity":29,"Duration":510204,"SoundDuration":510204,"Delta":144376898},{"NoteNumber":57,"Velocity":29,"Duration":2111628,"SoundDuration":2111628,"Delta":144376898},{"NoteNumber":65,"Velocity":33,"Duration":533807,"SoundDuration":533807,"Delta":144887102},{"NoteNumber":69,"Velocity":26,"Duration":1063167,"SoundDuration":1063167,"Delta":145420910},{"NoteNumber":57,"Velocity":46,"Duration":1515221,"SoundDuration":1515221,"Delta":146488526},{"NoteNumber":61,"Velocity":46,"Duration":1515221,"SoundDuration":1515221,"Delta":146488526},{"NoteNumber":69,"Velocity":56,"Duration":246386,"SoundDuration":246386,"Delta":146488526},{"NoteNumber":41,"Velocity":44,"Duration":503764,"SoundDuration":503764,"Delta":146488526},{"NoteNumber":67,"Velocity":52,"Duration":257378,"SoundDuration":257378,"Delta":146734912},{"NoteNumber":65,"Velocity":51,"Duration":2555726,"SoundDuration":2555726,"Delta":146992290},{"NoteNumber":49,"Velocity":39,"Duration":501252,"SoundDuration":501252,"Delta":146992290},{"NoteNumber":53,"Velocity":39,"Duration":510203,"SoundDuration":510203,"Delta":147493543},{"NoteNumber":57,"Velocity":42,"Duration":514756,"SoundDuration":514756,"Delta":148003747},{"NoteNumber":61,"Velocity":36,"Duration":1029513,"SoundDuration":1029513,"Delta":148518504},{"NoteNumber":57,"Velocity":46,"Duration":1515221,"SoundDuration":1515221,"Delta":149548017},{"NoteNumber":60,"Velocity":46,"Duration":1515221,"SoundDuration":1515221,"Delta":149548017},{"NoteNumber":69,"Velocity":56,"Duration":246386,"SoundDuration":246386,"Delta":149548017},{"NoteNumber":41,"Velocity":44,"Duration":503764,"SoundDuration":503764,"Delta":149548017},{"NoteNumber":67,"Velocity":52,"Duration":257378,"SoundDuration":257378,"Delta":149794403},{"NoteNumber":65,"Velocity":51,"Duration":2555726,"SoundDuration":2555726,"Delta":150051781},{"NoteNumber":48,"Velocity":39,"Duration":501252,"SoundDuration":501252,"Delta":150051781},{"NoteNumber":53,"Velocity":39,"Duration":510203,"SoundDuration":510203,"Delta":150553034},{"NoteNumber":57,"Velocity":42,"Duration":514756,"SoundDuration":514756,"Delta":151063238},{"NoteNumber":60,"Velocity":36,"Duration":1029513,"SoundDuration":1029513,"Delta":151577995},{"NoteNumber":57,"Velocity":42,"Duration":1504832,"SoundDuration":1504832,"Delta":152607508},{"NoteNumber":61,"Velocity":42,"Duration":1504832,"SoundDuration":1504832,"Delta":152607508},{"NoteNumber":69,"Velocity":51,"Duration":240192,"SoundDuration":240192,"Delta":152607508},{"NoteNumber":41,"Velocity":40,"Duration":493058,"SoundDuration":493058,"Delta":152607508},{"NoteNumber":67,"Velocity":48,"Duration":252865,"SoundDuration":252865,"Delta":152847700},{"NoteNumber":65,"Velocity":47,"Duration":2556044,"SoundDuration":2556044,"Delta":153100566},{"NoteNumber":49,"Velocity":36,"Duration":497017,"SoundDuration":497017,"Delta":153100566},{"NoteNumber":53,"Velocity":36,"Duration":514756,"SoundDuration":514756,"Delta":153597584},{"NoteNumber":57,"Velocity":39,"Duration":514756,"SoundDuration":514756,"Delta":154112340},{"NoteNumber":61,"Velocity":33,"Duration":1029513,"SoundDuration":1029513,"Delta":154627097},{"NoteNumber":57,"Velocity":42,"Duration":1510986,"SoundDuration":1510986,"Delta":155656610},{"NoteNumber":60,"Velocity":42,"Duration":1510986,"SoundDuration":1510986,"Delta":155656610},{"NoteNumber":69,"Velocity":51,"Duration":246386,"SoundDuration":246386,"Delta":155656610},{"NoteNumber":41,"Velocity":40,"Duration":503764,"SoundDuration":503764,"Delta":155656610},{"NoteNumber":67,"Velocity":48,"Duration":257378,"SoundDuration":257378,"Delta":155902996},{"NoteNumber":65,"Velocity":47,"Duration":2551491,"SoundDuration":2551491,"Delta":156160374},{"NoteNumber":48,"Velocity":36,"Duration":497017,"SoundDuration":497017,"Delta":156160374},{"NoteNumber":53,"Velocity":36,"Duration":510203,"SoundDuration":510203,"Delta":156657392},{"NoteNumber":57,"Velocity":39,"Duration":514756,"SoundDuration":514756,"Delta":157167596},{"NoteNumber":60,"Velocity":33,"Duration":1029513,"SoundDuration":1029513,"Delta":157682353},{"NoteNumber":61,"Velocity":56,"Duration":255101,"SoundDuration":255101,"Delta":158711866},{"NoteNumber":65,"Velocity":56,"Duration":255101,"SoundDuration":255101,"Delta":158711866},{"NoteNumber":49,"Velocity":44,"Duration":1577386,"SoundDuration":1577386,"Delta":158711866},{"NoteNumber":53,"Velocity":44,"Duration":1577386,"SoundDuration":1577386,"Delta":158711866},{"NoteNumber":56,"Velocity":44,"Duration":1577386,"SoundDuration":1577386,"Delta":158711866},{"NoteNumber":63,"Velocity":52,"Duration":264456,"SoundDuration":264456,"Delta":158966968},{"NoteNumber":61,"Velocity":51,"Duration":1057828,"SoundDuration":1057828,"Delta":159231425},{"NoteNumber":61,"Velocity":51,"Duration":255101,"SoundDuration":255101,"Delta":160289253},{"NoteNumber":65,"Velocity":51,"Duration":255101,"SoundDuration":255101,"Delta":160289253},{"NoteNumber":46,"Velocity":40,"Duration":1589621,"SoundDuration":1589621,"Delta":160289253},{"NoteNumber":53,"Velocity":40,"Duration":1589621,"SoundDuration":1589621,"Delta":160289253},{"NoteNumber":55,"Velocity":40,"Duration":1589621,"SoundDuration":1589621,"Delta":160289253},{"NoteNumber":63,"Velocity":48,"Duration":266904,"SoundDuration":266904,"Delta":160544355},{"NoteNumber":61,"Velocity":47,"Duration":1067615,"SoundDuration":1067615,"Delta":160811259},{"NoteNumber":36,"Velocity":44,"Duration":514756,"SoundDuration":514756,"Delta":161878875},{"NoteNumber":43,"Velocity":48,"Duration":1002506,"SoundDuration":1002506,"Delta":162393631},{"NoteNumber":55,"Velocity":41,"Duration":988174,"SoundDuration":988174,"Delta":162894884},{"NoteNumber":60,"Velocity":41,"Duration":988174,"SoundDuration":988174,"Delta":162894884},{"NoteNumber":64,"Velocity":41,"Duration":988174,"SoundDuration":988174,"Delta":162894884},{"NoteNumber":67,"Velocity":52,"Duration":988174,"SoundDuration":988174,"Delta":162894884},{"NoteNumber":46,"Velocity":45,"Duration":236295,"SoundDuration":236295,"Delta":163646764},{"NoteNumber":55,"Velocity":33,"Duration":954649,"SoundDuration":954649,"Delta":163883059},{"NoteNumber":61,"Velocity":33,"Duration":954649,"SoundDuration":954649,"Delta":163883059},{"NoteNumber":65,"Velocity":33,"Duration":954649,"SoundDuration":954649,"Delta":163883059},{"NoteNumber":67,"Velocity":42,"Duration":954649,"SoundDuration":954649,"Delta":163883059},{"NoteNumber":44,"Velocity":48,"Duration":228763,"SoundDuration":228763,"Delta":163883059},{"NoteNumber":43,"Velocity":44,"Duration":240192,"SoundDuration":240192,"Delta":164111822},{"NoteNumber":44,"Velocity":49,"Duration":230591,"SoundDuration":230591,"Delta":164352014},{"NoteNumber":46,"Velocity":44,"Duration":255101,"SoundDuration":255101,"Delta":164582606},{"NoteNumber":36,"Velocity":44,"Duration":514756,"SoundDuration":514756,"Delta":164837708},{"NoteNumber":43,"Velocity":48,"Duration":985670,"SoundDuration":985670,"Delta":165352465},{"NoteNumber":55,"Velocity":41,"Duration":959077,"SoundDuration":959077,"Delta":165853718},{"NoteNumber":60,"Velocity":41,"Duration":959077,"SoundDuration":959077,"Delta":165853718},{"NoteNumber":64,"Velocity":41,"Duration":959077,"SoundDuration":959077,"Delta":165853718},{"NoteNumber":67,"Velocity":52,"Duration":959077,"SoundDuration":959077,"Delta":165853718},{"NoteNumber":46,"Velocity":45,"Duration":232450,"SoundDuration":232450,"Delta":166580345},{"NoteNumber":55,"Velocity":33,"Duration":943465,"SoundDuration":943465,"Delta":166812795},{"NoteNumber":61,"Velocity":33,"Duration":943465,"SoundDuration":943465,"Delta":166812795},{"NoteNumber":65,"Velocity":33,"Duration":943465,"SoundDuration":943465,"Delta":166812795},{"NoteNumber":67,"Velocity":42,"Duration":943465,"SoundDuration":943465,"Delta":166812795},{"NoteNumber":44,"Velocity":48,"Duration":225225,"SoundDuration":225225,"Delta":166812795},{"NoteNumber":43,"Velocity":44,"Duration":234375,"SoundDuration":234375,"Delta":167038020},{"NoteNumber":44,"Velocity":49,"Duration":228763,"SoundDuration":228763,"Delta":167272395},{"NoteNumber":46,"Velocity":44,"Duration":255101,"SoundDuration":255101,"Delta":167501158},{"NoteNumber":36,"Velocity":44,"Duration":492772,"SoundDuration":492772,"Delta":167756260},{"NoteNumber":53,"Velocity":40,"Duration":230591,"SoundDuration":230591,"Delta":168249033},{"NoteNumber":49,"Velocity":55,"Duration":461183,"SoundDuration":461183,"Delta":168249033},{"NoteNumber":55,"Velocity":37,"Duration":230591,"SoundDuration":230591,"Delta":168479624},{"NoteNumber":58,"Velocity":43,"Duration":230591,"SoundDuration":230591,"Delta":168710216},{"NoteNumber":46,"Velocity":48,"Duration":468800,"SoundDuration":468800,"Delta":168710216},{"NoteNumber":61,"Velocity":40,"Duration":238208,"SoundDuration":238208,"Delta":168940808},{"NoteNumber":55,"Velocity":43,"Duration":236295,"SoundDuration":236295,"Delta":169179017},{"NoteNumber":52,"Velocity":43,"Duration":236295,"SoundDuration":236295,"Delta":169179017},{"NoteNumber":48,"Velocity":44,"Duration":472589,"SoundDuration":472589,"Delta":169179017},{"NoteNumber":60,"Velocity":39,"Duration":236294,"SoundDuration":236294,"Delta":169415312},{"NoteNumber":65,"Velocity":49,"Duration":228763,"SoundDuration":228763,"Delta":169651607},{"NoteNumber":61,"Velocity":56,"Duration":457526,"SoundDuration":457526,"Delta":169651607},{"NoteNumber":67,"Velocity":46,"Duration":228763,"SoundDuration":228763,"Delta":169880370},{"NoteNumber":70,"Velocity":50,"Duration":228763,"SoundDuration":228763,"Delta":170109133},{"NoteNumber":58,"Velocity":50,"Duration":466971,"SoundDuration":466971,"Delta":170109133},{"NoteNumber":73,"Velocity":48,"Duration":238208,"SoundDuration":238208,"Delta":170337896},{"NoteNumber":67,"Velocity":52,"Duration":230591,"SoundDuration":230591,"Delta":170576105},{"NoteNumber":64,"Velocity":52,"Duration":230591,"SoundDuration":230591,"Delta":170576105},{"NoteNumber":60,"Velocity":48,"Duration":461183,"SoundDuration":461183,"Delta":170576105},{"NoteNumber":72,"Velocity":48,"Duration":230591,"SoundDuration":230591,"Delta":170806697},{"NoteNumber":77,"Velocity":53,"Duration":226997,"SoundDuration":226997,"Delta":171037289},{"NoteNumber":73,"Velocity":61,"Duration":453994,"SoundDuration":453994,"Delta":171037289},{"NoteNumber":79,"Velocity":50,"Duration":226997,"SoundDuration":226997,"Delta":171264286},{"NoteNumber":82,"Velocity":56,"Duration":226997,"SoundDuration":226997,"Delta":171491284},{"NoteNumber":70,"Velocity":56,"Duration":473383,"SoundDuration":473383,"Delta":171491284},{"NoteNumber":85,"Velocity":52,"Duration":246386,"SoundDuration":246386,"Delta":171718281},{"NoteNumber":84,"Velocity":55,"Duration":228763,"SoundDuration":228763,"Delta":171964667},{"NoteNumber":76,"Velocity":55,"Duration":228763,"SoundDuration":228763,"Delta":171964667},{"NoteNumber":72,"Velocity":41,"Duration":945646,"SoundDuration":945646,"Delta":171964667},{"NoteNumber":79,"Velocity":50,"Duration":238208,"SoundDuration":238208,"Delta":172193431},{"NoteNumber":74,"Velocity":52,"Duration":234375,"SoundDuration":234375,"Delta":172431639},{"NoteNumber":82,"Velocity":52,"Duration":234375,"SoundDuration":234375,"Delta":172431639},{"NoteNumber":76,"Velocity":42,"Duration":244299,"SoundDuration":244299,"Delta":172666014},{"NoteNumber":70,"Velocity":48,"Duration":238208,"SoundDuration":238208,"Delta":172910314},{"NoteNumber":81,"Velocity":48,"Duration":238208,"SoundDuration":238208,"Delta":172910314},{"NoteNumber":60,"Velocity":41,"Duration":578984,"SoundDuration":578984,"Delta":172910314},{"NoteNumber":72,"Velocity":37,"Duration":340775,"SoundDuration":340775,"Delta":173148523},{"NoteNumber":41,"Velocity":30,"Duration":1610196,"SoundDuration":1610196,"Delta":173235349},{"NoteNumber":72,"Velocity":26,"Duration":613415,"SoundDuration":613415,"Delta":173319999},{"NoteNumber":48,"Velocity":33,"Duration":1525546,"SoundDuration":1525546,"Delta":173319999},{"NoteNumber":77,"Velocity":26,"Duration":556982,"SoundDuration":556982,"Delta":173376432},{"NoteNumber":57,"Velocity":35,"Duration":1440896,"SoundDuration":1440896,"Delta":173404649},{"NoteNumber":81,"Velocity":26,"Duration":500548,"SoundDuration":500548,"Delta":173432866},{"NoteNumber":84,"Velocity":31,"Duration":444115,"SoundDuration":444115,"Delta":173489299},{"NoteNumber":65,"Velocity":45,"Duration":1356246,"SoundDuration":1356246,"Delta":173489299},{"NoteNumber":84,"Velocity":29,"Duration":456065,"SoundDuration":456065,"Delta":173933414},{"NoteNumber":81,"Velocity":24,"Duration":456065,"SoundDuration":456065,"Delta":173933414},{"NoteNumber":77,"Velocity":24,"Duration":456065,"SoundDuration":456065,"Delta":173933414},{"NoteNumber":72,"Velocity":24,"Duration":456065,"SoundDuration":456065,"Delta":173933414},{"NoteNumber":84,"Velocity":29,"Duration":342049,"SoundDuration":342049,"Delta":174389480},{"NoteNumber":81,"Velocity":24,"Duration":342049,"SoundDuration":342049,"Delta":174389480},{"NoteNumber":77,"Velocity":24,"Duration":342049,"SoundDuration":342049,"Delta":174389480},{"NoteNumber":72,"Velocity":24,"Duration":342049,"SoundDuration":342049,"Delta":174389480},{"NoteNumber":72,"Velocity":26,"Duration":561406,"SoundDuration":561406,"Delta":174731529},{"NoteNumber":77,"Velocity":26,"Duration":523401,"SoundDuration":523401,"Delta":174769535},{"NoteNumber":81,"Velocity":26,"Duration":485395,"SoundDuration":485395,"Delta":174807540},{"NoteNumber":84,"Velocity":31,"Duration":447390,"SoundDuration":447390,"Delta":174845545},{"NoteNumber":64,"Velocity":39,"Duration":228763,"SoundDuration":228763,"Delta":175064172},{"NoteNumber":84,"Velocity":29,"Duration":461372,"SoundDuration":461372,"Delta":175292936},{"NoteNumber":81,"Velocity":24,"Duration":461372,"SoundDuration":461372,"Delta":175292936},{"NoteNumber":77,"Velocity":24,"Duration":461372,"SoundDuration":461372,"Delta":175292936},{"NoteNumber":72,"Velocity":24,"Duration":461372,"SoundDuration":461372,"Delta":175292936},{"NoteNumber":62,"Velocity":44,"Duration":226997,"SoundDuration":226997,"Delta":175292936},{"NoteNumber":60,"Velocity":39,"Duration":234375,"SoundDuration":234375,"Delta":175519933},{"NoteNumber":84,"Velocity":29,"Duration":334305,"SoundDuration":334305,"Delta":175754308},{"NoteNumber":81,"Velocity":24,"Duration":334305,"SoundDuration":334305,"Delta":175754308},{"NoteNumber":77,"Velocity":24,"Duration":334305,"SoundDuration":334305,"Delta":175754308},{"NoteNumber":72,"Velocity":24,"Duration":334305,"SoundDuration":334305,"Delta":175754308},{"NoteNumber":62,"Velocity":44,"Duration":216731,"SoundDuration":216731,"Delta":175754308},{"NoteNumber":64,"Velocity":39,"Duration":235146,"SoundDuration":235146,"Delta":175971040},{"NoteNumber":72,"Velocity":26,"Duration":551538,"SoundDuration":551538,"Delta":176088613},{"NoteNumber":77,"Velocity":26,"Duration":512347,"SoundDuration":512347,"Delta":176127804},{"NoteNumber":81,"Velocity":26,"Duration":473156,"SoundDuration":473156,"Delta":176166995},{"NoteNumber":84,"Velocity":31,"Duration":433965,"SoundDuration":433965,"Delta":176206186},{"NoteNumber":62,"Velocity":39,"Duration":144655,"SoundDuration":144655,"Delta":176206186},{"NoteNumber":53,"Velocity":35,"Duration":1352208,"SoundDuration":1352208,"Delta":176206186},{"NoteNumber":64,"Velocity":37,"Duration":144655,"SoundDuration":144655,"Delta":176350841},{"NoteNumber":62,"Velocity":37,"Duration":144655,"SoundDuration":144655,"Delta":176495496},{"NoteNumber":84,"Velocity":29,"Duration":456065,"SoundDuration":456065,"Delta":176640151},{"NoteNumber":81,"Velocity":24,"Duration":456065,"SoundDuration":456065,"Delta":176640151},{"NoteNumber":77,"Velocity":24,"Duration":456065,"SoundDuration":456065,"Delta":176640151},{"NoteNumber":72,"Velocity":24,"Duration":456065,"SoundDuration":456065,"Delta":176640151},{"NoteNumber":60,"Velocity":40,"Duration":2131151,"SoundDuration":2131151,"Delta":176640151},{"NoteNumber":84,"Velocity":29,"Duration":346633,"SoundDuration":346633,"Delta":177096217},{"NoteNumber":81,"Velocity":24,"Duration":346633,"SoundDuration":346633,"Delta":177096217},{"NoteNumber":77,"Velocity":24,"Duration":346633,"SoundDuration":346633,"Delta":177096217},{"NoteNumber":72,"Velocity":24,"Duration":346633,"SoundDuration":346633,"Delta":177096217},{"NoteNumber":72,"Velocity":26,"Duration":565657,"SoundDuration":565657,"Delta":177442851},{"NoteNumber":77,"Velocity":26,"Duration":527142,"SoundDuration":527142,"Delta":177481366},{"NoteNumber":81,"Velocity":26,"Duration":488627,"SoundDuration":488627,"Delta":177519881},{"NoteNumber":84,"Velocity":31,"Duration":450112,"SoundDuration":450112,"Delta":177558395},{"NoteNumber":84,"Velocity":29,"Duration":450112,"SoundDuration":450112,"Delta":178008508},{"NoteNumber":81,"Velocity":24,"Duration":450112,"SoundDuration":450112,"Delta":178008508},{"NoteNumber":77,"Velocity":24,"Duration":450112,"SoundDuration":450112,"Delta":178008508},{"NoteNumber":72,"Velocity":24,"Duration":450112,"SoundDuration":450112,"Delta":178008508},{"NoteNumber":84,"Velocity":29,"Duration":397333,"SoundDuration":397333,"Delta":178458620},{"NoteNumber":81,"Velocity":24,"Duration":397333,"SoundDuration":397333,"Delta":178458620},{"NoteNumber":77,"Velocity":24,"Duration":397333,"SoundDuration":397333,"Delta":178458620},{"NoteNumber":72,"Velocity":24,"Duration":397333,"SoundDuration":397333,"Delta":178458620},{"NoteNumber":41,"Velocity":29,"Duration":1610196,"SoundDuration":1610196,"Delta":178771303},{"NoteNumber":72,"Velocity":26,"Duration":613415,"SoundDuration":613415,"Delta":178855953},{"NoteNumber":48,"Velocity":33,"Duration":1525546,"SoundDuration":1525546,"Delta":178855953},{"NoteNumber":77,"Velocity":26,"Duration":556982,"SoundDuration":556982,"Delta":178912387},{"NoteNumber":57,"Velocity":35,"Duration":1440896,"SoundDuration":1440896,"Delta":178940604},{"NoteNumber":81,"Velocity":26,"Duration":500548,"SoundDuration":500548,"Delta":178968820},{"NoteNumber":84,"Velocity":31,"Duration":444115,"SoundDuration":444115,"Delta":179025254},{"NoteNumber":65,"Velocity":45,"Duration":1356246,"SoundDuration":1356246,"Delta":179025254},{"NoteNumber":84,"Velocity":29,"Duration":456065,"SoundDuration":456065,"Delta":179469369},{"NoteNumber":81,"Velocity":24,"Duration":456065,"SoundDuration":456065,"Delta":179469369},{"NoteNumber":77,"Velocity":24,"Duration":456065,"SoundDuration":456065,"Delta":179469369},{"NoteNumber":72,"Velocity":24,"Duration":456065,"SoundDuration":456065,"Delta":179469369},{"NoteNumber":84,"Velocity":29,"Duration":342049,"SoundDuration":342049,"Delta":179925435},{"NoteNumber":81,"Velocity":24,"Duration":342049,"SoundDuration":342049,"Delta":179925435},{"NoteNumber":77,"Velocity":24,"Duration":342049,"SoundDuration":342049,"Delta":179925435},{"NoteNumber":72,"Velocity":24,"Duration":342049,"SoundDuration":342049,"Delta":179925435},{"NoteNumber":72,"Velocity":26,"Duration":562887,"SoundDuration":562887,"Delta":180267484},{"NoteNumber":77,"Velocity":26,"Duration":524882,"SoundDuration":524882,"Delta":180305489},{"NoteNumber":81,"Velocity":26,"Duration":486876,"SoundDuration":486876,"Delta":180343495},{"NoteNumber":84,"Velocity":31,"Duration":448871,"SoundDuration":448871,"Delta":180381500},{"NoteNumber":64,"Velocity":39,"Duration":228833,"SoundDuration":228833,"Delta":180601538},{"NoteNumber":84,"Velocity":29,"Duration":445564,"SoundDuration":445564,"Delta":180830371},{"NoteNumber":81,"Velocity":24,"Duration":445564,"SoundDuration":445564,"Delta":180830371},{"NoteNumber":77,"Velocity":24,"Duration":445564,"SoundDuration":445564,"Delta":180830371},{"NoteNumber":72,"Velocity":24,"Duration":445564,"SoundDuration":445564,"Delta":180830371},{"NoteNumber":62,"Velocity":44,"Duration":216731,"SoundDuration":216731,"Delta":180830371},{"NoteNumber":60,"Velocity":39,"Duration":228833,"SoundDuration":228833,"Delta":181047103},{"NoteNumber":84,"Velocity":29,"Duration":338879,"SoundDuration":338879,"Delta":181275936},{"NoteNumber":81,"Velocity":24,"Duration":338879,"SoundDuration":338879,"Delta":181275936},{"NoteNumber":77,"Velocity":24,"Duration":338879,"SoundDuration":338879,"Delta":181275936},{"NoteNumber":72,"Velocity":24,"Duration":338879,"SoundDuration":338879,"Delta":181275936},{"NoteNumber":62,"Velocity":44,"Duration":228763,"SoundDuration":228763,"Delta":181275936},{"NoteNumber":64,"Velocity":39,"Duration":220232,"SoundDuration":220232,"Delta":181504699},{"NoteNumber":72,"Velocity":26,"Duration":540903,"SoundDuration":540903,"Delta":181614815},{"NoteNumber":77,"Velocity":26,"Duration":504197,"SoundDuration":504197,"Delta":181651521},{"NoteNumber":81,"Velocity":26,"Duration":467492,"SoundDuration":467492,"Delta":181688226},{"NoteNumber":84,"Velocity":31,"Duration":430787,"SoundDuration":430787,"Delta":181724931},{"NoteNumber":62,"Velocity":42,"Duration":143595,"SoundDuration":143595,"Delta":181724931},{"NoteNumber":53,"Velocity":36,"Duration":1349030,"SoundDuration":1349030,"Delta":181724931},{"NoteNumber":64,"Velocity":37,"Duration":143595,"SoundDuration":143595,"Delta":181868527},{"NoteNumber":62,"Velocity":37,"Duration":143595,"SoundDuration":143595,"Delta":182012123},{"NoteNumber":84,"Velocity":29,"Duration":456065,"SoundDuration":456065,"Delta":182155718},{"NoteNumber":81,"Velocity":24,"Duration":456065,"SoundDuration":456065,"Delta":182155718},{"NoteNumber":77,"Velocity":24,"Duration":456065,"SoundDuration":456065,"Delta":182155718},{"NoteNumber":72,"Velocity":24,"Duration":456065,"SoundDuration":456065,"Delta":182155718},{"NoteNumber":60,"Velocity":40,"Duration":2117184,"SoundDuration":2117184,"Delta":182155718},{"NoteNumber":84,"Velocity":29,"Duration":346633,"SoundDuration":346633,"Delta":182611784},{"NoteNumber":81,"Velocity":24,"Duration":346633,"SoundDuration":346633,"Delta":182611784},{"NoteNumber":77,"Velocity":24,"Duration":346633,"SoundDuration":346633,"Delta":182611784},{"NoteNumber":72,"Velocity":24,"Duration":346633,"SoundDuration":346633,"Delta":182611784},{"NoteNumber":72,"Velocity":26,"Duration":565657,"SoundDuration":565657,"Delta":182958418},{"NoteNumber":77,"Velocity":26,"Duration":527142,"SoundDuration":527142,"Delta":182996933},{"NoteNumber":81,"Velocity":26,"Duration":488627,"SoundDuration":488627,"Delta":183035448},{"NoteNumber":84,"Velocity":31,"Duration":450112,"SoundDuration":450112,"Delta":183073962},{"NoteNumber":84,"Velocity":29,"Duration":450112,"SoundDuration":450112,"Delta":183524075},{"NoteNumber":81,"Velocity":24,"Duration":450112,"SoundDuration":450112,"Delta":183524075},{"NoteNumber":77,"Velocity":24,"Duration":450112,"SoundDuration":450112,"Delta":183524075},{"NoteNumber":72,"Velocity":24,"Duration":450112,"SoundDuration":450112,"Delta":183524075},{"NoteNumber":84,"Velocity":29,"Duration":361582,"SoundDuration":361582,"Delta":183974187},{"NoteNumber":81,"Velocity":24,"Duration":361582,"SoundDuration":361582,"Delta":183974187},{"NoteNumber":77,"Velocity":24,"Duration":361582,"SoundDuration":361582,"Delta":183974187},{"NoteNumber":72,"Velocity":24,"Duration":361582,"SoundDuration":361582,"Delta":183974187},{"NoteNumber":76,"Velocity":26,"Duration":552288,"SoundDuration":552288,"Delta":184335770},{"NoteNumber":72,"Velocity":26,"Duration":591065,"SoundDuration":591065,"Delta":184335770},{"NoteNumber":41,"Velocity":36,"Duration":591065,"SoundDuration":591065,"Delta":184335770},{"NoteNumber":48,"Velocity":36,"Duration":528199,"SoundDuration":528199,"Delta":184398637},{"NoteNumber":82,"Velocity":26,"Duration":504110,"SoundDuration":504110,"Delta":184461503},{"NoteNumber":84,"Velocity":31,"Duration":465332,"SoundDuration":465332,"Delta":184461503},{"NoteNumber":55,"Velocity":41,"Duration":232666,"SoundDuration":232666,"Delta":184461503},{"NoteNumber":57,"Velocity":46,"Duration":232666,"SoundDuration":232666,"Delta":184694170},{"NoteNumber":84,"Velocity":29,"Duration":480518,"SoundDuration":480518,"Delta":184926836},{"NoteNumber":82,"Velocity":24,"Duration":480518,"SoundDuration":480518,"Delta":184926836},{"NoteNumber":76,"Velocity":24,"Duration":480518,"SoundDuration":480518,"Delta":184926836},{"NoteNumber":72,"Velocity":24,"Duration":480518,"SoundDuration":480518,"Delta":184926836},{"NoteNumber":58,"Velocity":48,"Duration":480518,"SoundDuration":480518,"Delta":184926836},{"NoteNumber":84,"Velocity":29,"Duration":342049,"SoundDuration":342049,"Delta":185407354},{"NoteNumber":82,"Velocity":24,"Duration":342049,"SoundDuration":342049,"Delta":185407354},{"NoteNumber":76,"Velocity":24,"Duration":342049,"SoundDuration":342049,"Delta":185407354},{"NoteNumber":72,"Velocity":24,"Duration":342049,"SoundDuration":342049,"Delta":185407354},{"NoteNumber":58,"Velocity":46,"Duration":228032,"SoundDuration":228032,"Delta":185407354},{"NoteNumber":60,"Velocity":48,"Duration":228032,"SoundDuration":228032,"Delta":185635387},{"NoteNumber":76,"Velocity":26,"Duration":532076,"SoundDuration":532076,"Delta":185749403},{"NoteNumber":72,"Velocity":26,"Duration":570081,"SoundDuration":570081,"Delta":185749403},{"NoteNumber":82,"Velocity":26,"Duration":494639,"SoundDuration":494639,"Delta":185863420},{"NoteNumber":84,"Velocity":31,"Duration":456065,"SoundDuration":456065,"Delta":185863420},{"NoteNumber":62,"Velocity":51,"Duration":687511,"SoundDuration":687511,"Delta":185863420},{"NoteNumber":84,"Velocity":29,"Duration":453175,"SoundDuration":453175,"Delta":186319485},{"NoteNumber":82,"Velocity":24,"Duration":453175,"SoundDuration":453175,"Delta":186319485},{"NoteNumber":76,"Velocity":24,"Duration":453175,"SoundDuration":453175,"Delta":186319485},{"NoteNumber":72,"Velocity":24,"Duration":453175,"SoundDuration":453175,"Delta":186319485},{"NoteNumber":64,"Velocity":51,"Duration":221729,"SoundDuration":221729,"Delta":186550931},{"NoteNumber":84,"Velocity":29,"Duration":330446,"SoundDuration":330446,"Delta":186772660},{"NoteNumber":82,"Velocity":24,"Duration":330446,"SoundDuration":330446,"Delta":186772660},{"NoteNumber":76,"Velocity":24,"Duration":330446,"SoundDuration":330446,"Delta":186772660},{"NoteNumber":72,"Velocity":24,"Duration":330446,"SoundDuration":330446,"Delta":186772660},{"NoteNumber":67,"Velocity":56,"Duration":215115,"SoundDuration":215115,"Delta":186772660},{"NoteNumber":64,"Velocity":50,"Duration":230662,"SoundDuration":230662,"Delta":186987776},{"NoteNumber":76,"Velocity":26,"Duration":512672,"SoundDuration":512672,"Delta":187103107},{"NoteNumber":72,"Velocity":26,"Duration":548794,"SoundDuration":548794,"Delta":187103107},{"NoteNumber":82,"Velocity":26,"Duration":471468,"SoundDuration":471468,"Delta":187218439},{"NoteNumber":84,"Velocity":31,"Duration":433463,"SoundDuration":433463,"Delta":187218439},{"NoteNumber":62,"Velocity":51,"Duration":144487,"SoundDuration":144487,"Delta":187218439},{"NoteNumber":64,"Velocity":48,"Duration":144487,"SoundDuration":144487,"Delta":187362927},{"NoteNumber":62,"Velocity":44,"Duration":144487,"SoundDuration":144487,"Delta":187507414},{"NoteNumber":84,"Velocity":29,"Duration":456065,"SoundDuration":456065,"Delta":187651902},{"NoteNumber":82,"Velocity":24,"Duration":456065,"SoundDuration":456065,"Delta":187651902},{"NoteNumber":76,"Velocity":24,"Duration":456065,"SoundDuration":456065,"Delta":187651902},{"NoteNumber":72,"Velocity":24,"Duration":456065,"SoundDuration":456065,"Delta":187651902},{"NoteNumber":60,"Velocity":44,"Duration":2114418,"SoundDuration":2114418,"Delta":187651902},{"NoteNumber":84,"Velocity":29,"Duration":342049,"SoundDuration":342049,"Delta":188107968},{"NoteNumber":82,"Velocity":24,"Duration":342049,"SoundDuration":342049,"Delta":188107968},{"NoteNumber":76,"Velocity":24,"Duration":342049,"SoundDuration":342049,"Delta":188107968},{"NoteNumber":72,"Velocity":24,"Duration":342049,"SoundDuration":342049,"Delta":188107968},{"NoteNumber":76,"Velocity":26,"Duration":526619,"SoundDuration":526619,"Delta":188450017},{"NoteNumber":72,"Velocity":26,"Duration":564128,"SoundDuration":564128,"Delta":188450017},{"NoteNumber":82,"Velocity":26,"Duration":487621,"SoundDuration":487621,"Delta":188564033},{"NoteNumber":84,"Velocity":31,"Duration":450112,"SoundDuration":450112,"Delta":188564033},{"NoteNumber":84,"Velocity":29,"Duration":450112,"SoundDuration":450112,"Delta":189014146},{"NoteNumber":82,"Velocity":24,"Duration":450112,"SoundDuration":450112,"Delta":189014146},{"NoteNumber":76,"Velocity":24,"Duration":450112,"SoundDuration":450112,"Delta":189014146},{"NoteNumber":72,"Velocity":24,"Duration":450112,"SoundDuration":450112,"Delta":189014146},{"NoteNumber":84,"Velocity":29,"Duration":364929,"SoundDuration":364929,"Delta":189464258},{"NoteNumber":82,"Velocity":24,"Duration":364929,"SoundDuration":364929,"Delta":189464258},{"NoteNumber":76,"Velocity":24,"Duration":364929,"SoundDuration":364929,"Delta":189464258},{"NoteNumber":72,"Velocity":24,"Duration":364929,"SoundDuration":364929,"Delta":189464258},{"NoteNumber":76,"Velocity":26,"Duration":552288,"SoundDuration":552288,"Delta":189829188},{"NoteNumber":72,"Velocity":26,"Duration":591065,"SoundDuration":591065,"Delta":189829188},{"NoteNumber":41,"Velocity":36,"Duration":591065,"SoundDuration":591065,"Delta":189829188},{"NoteNumber":48,"Velocity":36,"Duration":528199,"SoundDuration":528199,"Delta":189892055},{"NoteNumber":82,"Velocity":26,"Duration":504110,"SoundDuration":504110,"Delta":189954921},{"NoteNumber":84,"Velocity":31,"Duration":465332,"SoundDuration":465332,"Delta":189954921},{"NoteNumber":55,"Velocity":41,"Duration":232666,"SoundDuration":232666,"Delta":189954921},{"NoteNumber":57,"Velocity":46,"Duration":232666,"SoundDuration":232666,"Delta":190187588},{"NoteNumber":84,"Velocity":29,"Duration":470196,"SoundDuration":470196,"Delta":190420254},{"NoteNumber":82,"Velocity":24,"Duration":470196,"SoundDuration":470196,"Delta":190420254},{"NoteNumber":76,"Velocity":24,"Duration":470196,"SoundDuration":470196,"Delta":190420254},{"NoteNumber":72,"Velocity":24,"Duration":470196,"SoundDuration":470196,"Delta":190420254},{"NoteNumber":58,"Velocity":48,"Duration":470196,"SoundDuration":470196,"Delta":190420254},{"NoteNumber":84,"Velocity":31,"Duration":342049,"SoundDuration":342049,"Delta":190890450},{"NoteNumber":82,"Velocity":25,"Duration":342049,"SoundDuration":342049,"Delta":190890450},{"NoteNumber":76,"Velocity":25,"Duration":342049,"SoundDuration":342049,"Delta":190890450},{"NoteNumber":72,"Velocity":25,"Duration":342049,"SoundDuration":342049,"Delta":190890450},{"NoteNumber":58,"Velocity":46,"Duration":228032,"SoundDuration":228032,"Delta":190890450},{"NoteNumber":60,"Velocity":48,"Duration":228032,"SoundDuration":228032,"Delta":191118483},{"NoteNumber":76,"Velocity":28,"Duration":533115,"SoundDuration":533115,"Delta":191232499},{"NoteNumber":72,"Velocity":28,"Duration":571862,"SoundDuration":571862,"Delta":191232499},{"NoteNumber":82,"Velocity":28,"Duration":495115,"SoundDuration":495115,"Delta":191346515},{"NoteNumber":84,"Velocity":35,"Duration":457846,"SoundDuration":457846,"Delta":191346515},{"NoteNumber":62,"Velocity":51,"Duration":457846,"SoundDuration":457846,"Delta":191346515},{"NoteNumber":84,"Velocity":33,"Duration":450611,"SoundDuration":450611,"Delta":191804362},{"NoteNumber":82,"Velocity":26,"Duration":450611,"SoundDuration":450611,"Delta":191804362},{"NoteNumber":76,"Velocity":26,"Duration":450611,"SoundDuration":450611,"Delta":191804362},{"NoteNumber":72,"Velocity":26,"Duration":450611,"SoundDuration":450611,"Delta":191804362},{"NoteNumber":64,"Velocity":56,"Duration":223613,"SoundDuration":223613,"Delta":191804362},{"NoteNumber":69,"Velocity":49,"Duration":226997,"SoundDuration":226997,"Delta":192027975},{"NoteNumber":84,"Velocity":33,"Duration":358083,"SoundDuration":358083,"Delta":192254973},{"NoteNumber":82,"Velocity":26,"Duration":358083,"SoundDuration":358083,"Delta":192254973},{"NoteNumber":76,"Velocity":26,"Duration":358083,"SoundDuration":358083,"Delta":192254973},{"NoteNumber":72,"Velocity":26,"Duration":358083,"SoundDuration":358083,"Delta":192254973},{"NoteNumber":67,"Velocity":56,"Duration":230662,"SoundDuration":230662,"Delta":192254973},{"NoteNumber":64,"Velocity":50,"Duration":254841,"SoundDuration":254841,"Delta":192485636},{"NoteNumber":76,"Velocity":28,"Duration":524017,"SoundDuration":524017,"Delta":192613057},{"NoteNumber":72,"Velocity":28,"Duration":560071,"SoundDuration":560071,"Delta":192613057},{"NoteNumber":82,"Velocity":26,"Duration":470655,"SoundDuration":470655,"Delta":192740478},{"NoteNumber":84,"Velocity":31,"Duration":432650,"SoundDuration":432650,"Delta":192740478},{"NoteNumber":62,"Velocity":51,"Duration":144216,"SoundDuration":144216,"Delta":192740478},{"NoteNumber":64,"Velocity":48,"Duration":144216,"SoundDuration":144216,"Delta":192884695},{"NoteNumber":62,"Velocity":44,"Duration":144216,"SoundDuration":144216,"Delta":193028911},{"NoteNumber":84,"Velocity":29,"Duration":456065,"SoundDuration":456065,"Delta":193173128},{"NoteNumber":82,"Velocity":24,"Duration":456065,"SoundDuration":456065,"Delta":193173128},{"NoteNumber":76,"Velocity":24,"Duration":456065,"SoundDuration":456065,"Delta":193173128},{"NoteNumber":72,"Velocity":24,"Duration":456065,"SoundDuration":456065,"Delta":193173128},{"NoteNumber":60,"Velocity":44,"Duration":2132581,"SoundDuration":2132581,"Delta":193173128},{"NoteNumber":84,"Velocity":29,"Duration":342049,"SoundDuration":342049,"Delta":193629194},{"NoteNumber":82,"Velocity":24,"Duration":342049,"SoundDuration":342049,"Delta":193629194},{"NoteNumber":76,"Velocity":24,"Duration":342049,"SoundDuration":342049,"Delta":193629194},{"NoteNumber":72,"Velocity":24,"Duration":342049,"SoundDuration":342049,"Delta":193629194},{"NoteNumber":76,"Velocity":26,"Duration":526619,"SoundDuration":526619,"Delta":193971243},{"NoteNumber":72,"Velocity":26,"Duration":564128,"SoundDuration":564128,"Delta":193971243},{"NoteNumber":82,"Velocity":26,"Duration":487621,"SoundDuration":487621,"Delta":194085259},{"NoteNumber":84,"Velocity":31,"Duration":450112,"SoundDuration":450112,"Delta":194085259},{"NoteNumber":84,"Velocity":33,"Duration":450112,"SoundDuration":450112,"Delta":194535372},{"NoteNumber":82,"Velocity":26,"Duration":450112,"SoundDuration":450112,"Delta":194535372},{"NoteNumber":76,"Velocity":26,"Duration":450112,"SoundDuration":450112,"Delta":194535372},{"NoteNumber":72,"Velocity":26,"Duration":450112,"SoundDuration":450112,"Delta":194535372},{"NoteNumber":84,"Velocity":35,"Duration":403522,"SoundDuration":403522,"Delta":194985484},{"NoteNumber":82,"Velocity":28,"Duration":403522,"SoundDuration":403522,"Delta":194985484},{"NoteNumber":76,"Velocity":28,"Duration":403522,"SoundDuration":403522,"Delta":194985484},{"NoteNumber":72,"Velocity":28,"Duration":403522,"SoundDuration":403522,"Delta":194985484},{"NoteNumber":41,"Velocity":38,"Duration":1606135,"SoundDuration":1606135,"Delta":195305710},{"NoteNumber":72,"Velocity":31,"Duration":610708,"SoundDuration":610708,"Delta":195389006},{"NoteNumber":48,"Velocity":40,"Duration":1522839,"SoundDuration":1522839,"Delta":195389006},{"NoteNumber":77,"Velocity":31,"Duration":555177,"SoundDuration":555177,"Delta":195444537},{"NoteNumber":57,"Velocity":42,"Duration":1439542,"SoundDuration":1439542,"Delta":195472303},{"NoteNumber":81,"Velocity":31,"Duration":499646,"SoundDuration":499646,"Delta":195500068},{"NoteNumber":84,"Velocity":39,"Duration":444115,"SoundDuration":444115,"Delta":195555599},{"NoteNumber":65,"Velocity":55,"Duration":1356246,"SoundDuration":1356246,"Delta":195555599},{"NoteNumber":84,"Velocity":37,"Duration":456065,"SoundDuration":456065,"Delta":195999714},{"NoteNumber":81,"Velocity":29,"Duration":456065,"SoundDuration":456065,"Delta":195999714},{"NoteNumber":77,"Velocity":29,"Duration":456065,"SoundDuration":456065,"Delta":195999714},{"NoteNumber":72,"Velocity":29,"Duration":456065,"SoundDuration":456065,"Delta":195999714},{"NoteNumber":84,"Velocity":37,"Duration":342049,"SoundDuration":342049,"Delta":196455780},{"NoteNumber":81,"Velocity":29,"Duration":342049,"SoundDuration":342049,"Delta":196455780},{"NoteNumber":77,"Velocity":29,"Duration":342049,"SoundDuration":342049,"Delta":196455780},{"NoteNumber":72,"Velocity":29,"Duration":342049,"SoundDuration":342049,"Delta":196455780},{"NoteNumber":72,"Velocity":31,"Duration":564907,"SoundDuration":564907,"Delta":196797829},{"NoteNumber":77,"Velocity":31,"Duration":526901,"SoundDuration":526901,"Delta":196835835},{"NoteNumber":81,"Velocity":31,"Duration":488896,"SoundDuration":488896,"Delta":196873840},{"NoteNumber":84,"Velocity":39,"Duration":450890,"SoundDuration":450890,"Delta":196911845},{"NoteNumber":64,"Velocity":48,"Duration":228833,"SoundDuration":228833,"Delta":197133903},{"NoteNumber":84,"Velocity":37,"Duration":452446,"SoundDuration":452446,"Delta":197362736},{"NoteNumber":81,"Velocity":29,"Duration":452446,"SoundDuration":452446,"Delta":197362736},{"NoteNumber":77,"Velocity":29,"Duration":452446,"SoundDuration":452446,"Delta":197362736},{"NoteNumber":72,"Velocity":29,"Duration":452446,"SoundDuration":452446,"Delta":197362736},{"NoteNumber":62,"Velocity":53,"Duration":223613,"SoundDuration":223613,"Delta":197362736},{"NoteNumber":60,"Velocity":48,"Duration":228833,"SoundDuration":228833,"Delta":197586350},{"NoteNumber":84,"Velocity":37,"Duration":339779,"SoundDuration":339779,"Delta":197815183},{"NoteNumber":81,"Velocity":29,"Duration":339779,"SoundDuration":339779,"Delta":197815183},{"NoteNumber":77,"Velocity":29,"Duration":339779,"SoundDuration":339779,"Delta":197815183},{"NoteNumber":72,"Velocity":29,"Duration":339779,"SoundDuration":339779,"Delta":197815183},{"NoteNumber":62,"Velocity":53,"Duration":228832,"SoundDuration":228832,"Delta":197815183},{"NoteNumber":64,"Velocity":48,"Duration":221893,"SoundDuration":221893,"Delta":198044016},{"NoteNumber":72,"Velocity":31,"Duration":548200,"SoundDuration":548200,"Delta":198154962},{"NoteNumber":77,"Velocity":31,"Duration":511218,"SoundDuration":511218,"Delta":198191945},{"NoteNumber":81,"Velocity":31,"Duration":474236,"SoundDuration":474236,"Delta":198228927},{"NoteNumber":84,"Velocity":39,"Duration":437253,"SoundDuration":437253,"Delta":198265909},{"NoteNumber":62,"Velocity":56,"Duration":145751,"SoundDuration":145751,"Delta":198265909},{"NoteNumber":53,"Velocity":45,"Duration":1355497,"SoundDuration":1355497,"Delta":198265909},{"NoteNumber":64,"Velocity":45,"Duration":145751,"SoundDuration":145751,"Delta":198411661},{"NoteNumber":62,"Velocity":48,"Duration":145751,"SoundDuration":145751,"Delta":198557412},{"NoteNumber":84,"Velocity":37,"Duration":456065,"SoundDuration":456065,"Delta":198703163},{"NoteNumber":81,"Velocity":29,"Duration":456065,"SoundDuration":456065,"Delta":198703163},{"NoteNumber":77,"Velocity":29,"Duration":456065,"SoundDuration":456065,"Delta":198703163},{"NoteNumber":72,"Velocity":29,"Duration":456065,"SoundDuration":456065,"Delta":198703163},{"NoteNumber":60,"Velocity":48,"Duration":2134277,"SoundDuration":2134277,"Delta":198703163},{"NoteNumber":84,"Velocity":37,"Duration":346633,"SoundDuration":346633,"Delta":199159229},{"NoteNumber":81,"Velocity":29,"Duration":346633,"SoundDuration":346633,"Delta":199159229},{"NoteNumber":77,"Velocity":29,"Duration":346633,"SoundDuration":346633,"Delta":199159229},{"NoteNumber":72,"Velocity":29,"Duration":346633,"SoundDuration":346633,"Delta":199159229},{"NoteNumber":72,"Velocity":31,"Duration":565657,"SoundDuration":565657,"Delta":199505863},{"NoteNumber":77,"Velocity":31,"Duration":527142,"SoundDuration":527142,"Delta":199544377},{"NoteNumber":81,"Velocity":31,"Duration":488627,"SoundDuration":488627,"Delta":199582892},{"NoteNumber":84,"Velocity":42,"Duration":450112,"SoundDuration":450112,"Delta":199621407},{"NoteNumber":84,"Velocity":36,"Duration":450112,"SoundDuration":450112,"Delta":200071520},{"NoteNumber":81,"Velocity":28,"Duration":450112,"SoundDuration":450112,"Delta":200071520},{"NoteNumber":77,"Velocity":28,"Duration":450112,"SoundDuration":450112,"Delta":200071520},{"NoteNumber":72,"Velocity":28,"Duration":450112,"SoundDuration":450112,"Delta":200071520},{"NoteNumber":84,"Velocity":34,"Duration":396471,"SoundDuration":396471,"Delta":200521632},{"NoteNumber":81,"Velocity":27,"Duration":396471,"SoundDuration":396471,"Delta":200521632},{"NoteNumber":77,"Velocity":27,"Duration":396471,"SoundDuration":396471,"Delta":200521632},{"NoteNumber":72,"Velocity":27,"Duration":396471,"SoundDuration":396471,"Delta":200521632},{"NoteNumber":72,"Velocity":29,"Duration":605440,"SoundDuration":605440,"Delta":200918104},{"NoteNumber":51,"Velocity":37,"Duration":1517571,"SoundDuration":1517571,"Delta":200918104},{"NoteNumber":75,"Velocity":29,"Duration":551665,"SoundDuration":551665,"Delta":200971879},{"NoteNumber":60,"Velocity":38,"Duration":1436909,"SoundDuration":1436909,"Delta":200998766},{"NoteNumber":80,"Velocity":29,"Duration":497890,"SoundDuration":497890,"Delta":201025654},{"NoteNumber":84,"Velocity":36,"Duration":444115,"SoundDuration":444115,"Delta":201079429},{"NoteNumber":68,"Velocity":49,"Duration":1356246,"SoundDuration":1356246,"Delta":201079429},{"NoteNumber":84,"Velocity":33,"Duration":456065,"SoundDuration":456065,"Delta":201523544},{"NoteNumber":80,"Velocity":27,"Duration":456065,"SoundDuration":456065,"Delta":201523544},{"NoteNumber":75,"Velocity":27,"Duration":456065,"SoundDuration":456065,"Delta":201523544},{"NoteNumber":72,"Velocity":27,"Duration":456065,"SoundDuration":456065,"Delta":201523544},{"NoteNumber":84,"Velocity":33,"Duration":342049,"SoundDuration":342049,"Delta":201979610},{"NoteNumber":80,"Velocity":27,"Duration":342049,"SoundDuration":342049,"Delta":201979610},{"NoteNumber":75,"Velocity":27,"Duration":342049,"SoundDuration":342049,"Delta":201979610},{"NoteNumber":72,"Velocity":27,"Duration":342049,"SoundDuration":342049,"Delta":201979610},{"NoteNumber":72,"Velocity":29,"Duration":559521,"SoundDuration":559521,"Delta":202321659},{"NoteNumber":75,"Velocity":29,"Duration":521515,"SoundDuration":521515,"Delta":202359664},{"NoteNumber":80,"Velocity":29,"Duration":483510,"SoundDuration":483510,"Delta":202397670},{"NoteNumber":84,"Velocity":36,"Duration":445504,"SoundDuration":445504,"Delta":202435675},{"NoteNumber":67,"Velocity":44,"Duration":223446,"SoundDuration":223446,"Delta":202657733},{"NoteNumber":84,"Velocity":33,"Duration":445263,"SoundDuration":445263,"Delta":202881180},{"NoteNumber":80,"Velocity":27,"Duration":445263,"SoundDuration":445263,"Delta":202881180},{"NoteNumber":75,"Velocity":27,"Duration":445263,"SoundDuration":445263,"Delta":202881180},{"NoteNumber":72,"Velocity":27,"Duration":445263,"SoundDuration":445263,"Delta":202881180},{"NoteNumber":65,"Velocity":49,"Duration":220038,"SoundDuration":220038,"Delta":202881180},{"NoteNumber":63,"Velocity":44,"Duration":225225,"SoundDuration":225225,"Delta":203101218},{"NoteNumber":84,"Velocity":33,"Duration":329319,"SoundDuration":329319,"Delta":203326443},{"NoteNumber":80,"Velocity":27,"Duration":329319,"SoundDuration":329319,"Delta":203326443},{"NoteNumber":75,"Velocity":27,"Duration":329319,"SoundDuration":329319,"Delta":203326443},{"NoteNumber":72,"Velocity":27,"Duration":329319,"SoundDuration":329319,"Delta":203326443},{"NoteNumber":65,"Velocity":49,"Duration":218372,"SoundDuration":218372,"Delta":203326443},{"NoteNumber":67,"Velocity":44,"Duration":221893,"SoundDuration":221893,"Delta":203544816},{"NoteNumber":72,"Velocity":29,"Duration":548200,"SoundDuration":548200,"Delta":203655763},{"NoteNumber":75,"Velocity":29,"Duration":511218,"SoundDuration":511218,"Delta":203692745},{"NoteNumber":80,"Velocity":29,"Duration":474236,"SoundDuration":474236,"Delta":203729727},{"NoteNumber":84,"Velocity":36,"Duration":437253,"SoundDuration":437253,"Delta":203766709},{"NoteNumber":65,"Velocity":50,"Duration":145751,"SoundDuration":145751,"Delta":203766709},{"NoteNumber":67,"Velocity":44,"Duration":145751,"SoundDuration":145751,"Delta":203912461},{"NoteNumber":65,"Velocity":44,"Duration":145751,"SoundDuration":145751,"Delta":204058212},{"NoteNumber":84,"Velocity":33,"Duration":456065,"SoundDuration":456065,"Delta":204203963},{"NoteNumber":80,"Velocity":27,"Duration":456065,"SoundDuration":456065,"Delta":204203963},{"NoteNumber":75,"Velocity":27,"Duration":456065,"SoundDuration":456065,"Delta":204203963},{"NoteNumber":72,"Velocity":27,"Duration":456065,"SoundDuration":456065,"Delta":204203963},{"NoteNumber":63,"Velocity":49,"Duration":2301343,"SoundDuration":2301343,"Delta":204203963},{"NoteNumber":84,"Velocity":33,"Duration":346633,"SoundDuration":346633,"Delta":204660029},{"NoteNumber":80,"Velocity":27,"Duration":346633,"SoundDuration":346633,"Delta":204660029},{"NoteNumber":75,"Velocity":27,"Duration":346633,"SoundDuration":346633,"Delta":204660029},{"NoteNumber":72,"Velocity":27,"Duration":346633,"SoundDuration":346633,"Delta":204660029},{"NoteNumber":72,"Velocity":29,"Duration":565657,"SoundDuration":565657,"Delta":205006663},{"NoteNumber":75,"Velocity":29,"Duration":527142,"SoundDuration":527142,"Delta":205045178},{"NoteNumber":80,"Velocity":29,"Duration":488627,"SoundDuration":488627,"Delta":205083693},{"NoteNumber":84,"Velocity":36,"Duration":450112,"SoundDuration":450112,"Delta":205122207},{"NoteNumber":84,"Velocity":33,"Duration":450112,"SoundDuration":450112,"Delta":205572320},{"NoteNumber":80,"Velocity":27,"Duration":450112,"SoundDuration":450112,"Delta":205572320},{"NoteNumber":75,"Velocity":27,"Duration":450112,"SoundDuration":450112,"Delta":205572320},{"NoteNumber":72,"Velocity":27,"Duration":450112,"SoundDuration":450112,"Delta":205572320},{"NoteNumber":84,"Velocity":33,"Duration":482874,"SoundDuration":482874,"Delta":206022432},{"NoteNumber":80,"Velocity":27,"Duration":482874,"SoundDuration":482874,"Delta":206022432},{"NoteNumber":75,"Velocity":27,"Duration":482874,"SoundDuration":482874,"Delta":206022432},{"NoteNumber":72,"Velocity":27,"Duration":482874,"SoundDuration":482874,"Delta":206022432},{"NoteNumber":72,"Velocity":29,"Duration":465332,"SoundDuration":465332,"Delta":206505307},{"NoteNumber":76,"Velocity":29,"Duration":465332,"SoundDuration":465332,"Delta":206505307},{"NoteNumber":82,"Velocity":29,"Duration":465332,"SoundDuration":465332,"Delta":206505307},{"NoteNumber":84,"Velocity":36,"Duration":465332,"SoundDuration":465332,"Delta":206505307},{"NoteNumber":48,"Velocity":40,"Duration":465332,"SoundDuration":465332,"Delta":206505307},{"NoteNumber":55,"Velocity":47,"Duration":232666,"SoundDuration":232666,"Delta":206505307},{"NoteNumber":57,"Velocity":51,"Duration":232666,"SoundDuration":232666,"Delta":206737973},{"NoteNumber":84,"Velocity":34,"Duration":480518,"SoundDuration":480518,"Delta":206970640},{"NoteNumber":82,"Velocity":27,"Duration":480518,"SoundDuration":480518,"Delta":206970640},{"NoteNumber":76,"Velocity":27,"Duration":480518,"SoundDuration":480518,"Delta":206970640},{"NoteNumber":72,"Velocity":27,"Duration":480518,"SoundDuration":480518,"Delta":206970640},{"NoteNumber":58,"Velocity":53,"Duration":480518,"SoundDuration":480518,"Delta":206970640},{"NoteNumber":84,"Velocity":34,"Duration":471512,"SoundDuration":471512,"Delta":207451158},{"NoteNumber":82,"Velocity":27,"Duration":471512,"SoundDuration":471512,"Delta":207451158},{"NoteNumber":76,"Velocity":27,"Duration":471512,"SoundDuration":471512,"Delta":207451158},{"NoteNumber":72,"Velocity":27,"Duration":471512,"SoundDuration":471512,"Delta":207451158},{"NoteNumber":60,"Velocity":55,"Duration":228833,"SoundDuration":228833,"Delta":207451158},{"NoteNumber":62,"Velocity":57,"Duration":242679,"SoundDuration":242679,"Delta":207679991},{"NoteNumber":72,"Velocity":29,"Duration":456065,"SoundDuration":456065,"Delta":207922670},{"NoteNumber":76,"Velocity":29,"Duration":456065,"SoundDuration":456065,"Delta":207922670},{"NoteNumber":82,"Velocity":29,"Duration":456065,"SoundDuration":456065,"Delta":207922670},{"NoteNumber":84,"Velocity":36,"Duration":456065,"SoundDuration":456065,"Delta":207922670},{"NoteNumber":67,"Velocity":61,"Duration":915544,"SoundDuration":915544,"Delta":207922670},{"NoteNumber":84,"Velocity":35,"Duration":459478,"SoundDuration":459478,"Delta":208378736},{"NoteNumber":82,"Velocity":28,"Duration":459478,"SoundDuration":459478,"Delta":208378736},{"NoteNumber":76,"Velocity":28,"Duration":459478,"SoundDuration":459478,"Delta":208378736},{"NoteNumber":72,"Velocity":28,"Duration":459478,"SoundDuration":459478,"Delta":208378736},{"NoteNumber":84,"Velocity":37,"Duration":462891,"SoundDuration":462891,"Delta":208838214},{"NoteNumber":82,"Velocity":30,"Duration":462891,"SoundDuration":462891,"Delta":208838214},{"NoteNumber":76,"Velocity":30,"Duration":462891,"SoundDuration":462891,"Delta":208838214},{"NoteNumber":72,"Velocity":30,"Duration":462891,"SoundDuration":462891,"Delta":208838214},{"NoteNumber":64,"Velocity":61,"Duration":462891,"SoundDuration":462891,"Delta":208838214},{"NoteNumber":72,"Velocity":34,"Duration":447093,"SoundDuration":447093,"Delta":209301106},{"NoteNumber":77,"Velocity":34,"Duration":447093,"SoundDuration":447093,"Delta":209301106},{"NoteNumber":81,"Velocity":34,"Duration":447093,"SoundDuration":447093,"Delta":209301106},{"NoteNumber":84,"Velocity":40,"Duration":447093,"SoundDuration":447093,"Delta":209301106},{"NoteNumber":53,"Velocity":41,"Duration":1369577,"SoundDuration":1369577,"Delta":209301106},{"NoteNumber":62,"Velocity":57,"Duration":149031,"SoundDuration":149031,"Delta":209301106},{"NoteNumber":64,"Velocity":55,"Duration":149031,"SoundDuration":149031,"Delta":209450137},{"NoteNumber":62,"Velocity":51,"Duration":149031,"SoundDuration":149031,"Delta":209599168},{"NoteNumber":84,"Velocity":38,"Duration":456065,"SoundDuration":456065,"Delta":209748200},{"NoteNumber":81,"Velocity":30,"Duration":456065,"SoundDuration":456065,"Delta":209748200},{"NoteNumber":77,"Velocity":30,"Duration":456065,"SoundDuration":456065,"Delta":209748200},{"NoteNumber":72,"Velocity":30,"Duration":456065,"SoundDuration":456065,"Delta":209748200},{"NoteNumber":60,"Velocity":51,"Duration":922483,"SoundDuration":922483,"Delta":209748200},{"NoteNumber":84,"Velocity":38,"Duration":466418,"SoundDuration":466418,"Delta":210204265},{"NoteNumber":81,"Velocity":30,"Duration":466418,"SoundDuration":466418,"Delta":210204265},{"NoteNumber":77,"Velocity":30,"Duration":466418,"SoundDuration":466418,"Delta":210204265},{"NoteNumber":72,"Velocity":30,"Duration":466418,"SoundDuration":466418,"Delta":210204265},{"NoteNumber":72,"Velocity":34,"Duration":473859,"SoundDuration":473859,"Delta":210670683},{"NoteNumber":74,"Velocity":34,"Duration":473859,"SoundDuration":473859,"Delta":210670683},{"NoteNumber":78,"Velocity":34,"Duration":473859,"SoundDuration":473859,"Delta":210670683},{"NoteNumber":81,"Velocity":34,"Duration":473859,"SoundDuration":473859,"Delta":210670683},{"NoteNumber":86,"Velocity":40,"Duration":473859,"SoundDuration":473859,"Delta":210670683},{"NoteNumber":50,"Velocity":66,"Duration":1436466,"SoundDuration":1436466,"Delta":210670683},{"NoteNumber":72,"Velocity":30,"Duration":484781,"SoundDuration":484781,"Delta":211144542},{"NoteNumber":86,"Velocity":38,"Duration":484781,"SoundDuration":484781,"Delta":211144542},{"NoteNumber":81,"Velocity":30,"Duration":484781,"SoundDuration":484781,"Delta":211144542},{"NoteNumber":78,"Velocity":30,"Duration":484781,"SoundDuration":484781,"Delta":211144542},{"NoteNumber":74,"Velocity":30,"Duration":484781,"SoundDuration":484781,"Delta":211144542},{"NoteNumber":57,"Velocity":61,"Duration":484781,"SoundDuration":484781,"Delta":211144542},{"NoteNumber":72,"Velocity":30,"Duration":477825,"SoundDuration":477825,"Delta":211629324},{"NoteNumber":86,"Velocity":38,"Duration":477825,"SoundDuration":477825,"Delta":211629324},{"NoteNumber":81,"Velocity":30,"Duration":477825,"SoundDuration":477825,"Delta":211629324},{"NoteNumber":78,"Velocity":30,"Duration":477825,"SoundDuration":477825,"Delta":211629324},{"NoteNumber":74,"Velocity":30,"Duration":477825,"SoundDuration":477825,"Delta":211629324},{"NoteNumber":62,"Velocity":61,"Duration":477825,"SoundDuration":477825,"Delta":211629324},{"NoteNumber":70,"Velocity":34,"Duration":456065,"SoundDuration":456065,"Delta":212107149},{"NoteNumber":74,"Velocity":34,"Duration":456065,"SoundDuration":456065,"Delta":212107149},{"NoteNumber":79,"Velocity":34,"Duration":456065,"SoundDuration":456065,"Delta":212107149},{"NoteNumber":82,"Velocity":40,"Duration":456065,"SoundDuration":456065,"Delta":212107149},{"NoteNumber":55,"Velocity":49,"Duration":228032,"SoundDuration":228032,"Delta":212107149},{"NoteNumber":62,"Velocity":56,"Duration":228032,"SoundDuration":228032,"Delta":212107149},{"NoteNumber":64,"Velocity":61,"Duration":228032,"SoundDuration":228032,"Delta":212335182},{"NoteNumber":82,"Velocity":38,"Duration":459478,"SoundDuration":459478,"Delta":212563215},{"NoteNumber":79,"Velocity":30,"Duration":459478,"SoundDuration":459478,"Delta":212563215},{"NoteNumber":74,"Velocity":30,"Duration":459478,"SoundDuration":459478,"Delta":212563215},{"NoteNumber":70,"Velocity":30,"Duration":459478,"SoundDuration":459478,"Delta":212563215},{"NoteNumber":65,"Velocity":64,"Duration":459478,"SoundDuration":459478,"Delta":212563215},{"NoteNumber":82,"Velocity":38,"Duration":476724,"SoundDuration":476724,"Delta":213022693},{"NoteNumber":79,"Velocity":30,"Duration":476724,"SoundDuration":476724,"Delta":213022693},{"NoteNumber":74,"Velocity":30,"Duration":476724,"SoundDuration":476724,"Delta":213022693},{"NoteNumber":70,"Velocity":30,"Duration":476724,"SoundDuration":476724,"Delta":213022693},{"NoteNumber":62,"Velocity":62,"Duration":231445,"SoundDuration":231445,"Delta":213022693},{"NoteNumber":55,"Velocity":56,"Duration":158908,"SoundDuration":158908,"Delta":213254139},{"NoteNumber":48,"Velocity":49,"Duration":235402,"SoundDuration":235402,"Delta":213413047},{"NoteNumber":55,"Velocity":49,"Duration":154958,"SoundDuration":154958,"Delta":213456233},{"NoteNumber":70,"Velocity":34,"Duration":447093,"SoundDuration":447093,"Delta":213499418},{"NoteNumber":72,"Velocity":34,"Duration":447093,"SoundDuration":447093,"Delta":213499418},{"NoteNumber":76,"Velocity":34,"Duration":447093,"SoundDuration":447093,"Delta":213499418},{"NoteNumber":82,"Velocity":40,"Duration":447093,"SoundDuration":447093,"Delta":213499418},{"NoteNumber":62,"Velocity":59,"Duration":149031,"SoundDuration":149031,"Delta":213499418},{"NoteNumber":64,"Velocity":51,"Duration":149031,"SoundDuration":149031,"Delta":213648449},{"NoteNumber":62,"Velocity":53,"Duration":149031,"SoundDuration":149031,"Delta":213797481},{"NoteNumber":82,"Velocity":38,"Duration":456065,"SoundDuration":456065,"Delta":213946512},{"NoteNumber":76,"Velocity":30,"Duration":456065,"SoundDuration":456065,"Delta":213946512},{"NoteNumber":72,"Velocity":30,"Duration":456065,"SoundDuration":456065,"Delta":213946512},{"NoteNumber":70,"Velocity":30,"Duration":456065,"SoundDuration":456065,"Delta":213946512},{"NoteNumber":60,"Velocity":50,"Duration":456065,"SoundDuration":456065,"Delta":213946512},{"NoteNumber":82,"Velocity":38,"Duration":493569,"SoundDuration":493569,"Delta":214402578},{"NoteNumber":76,"Velocity":30,"Duration":493569,"SoundDuration":493569,"Delta":214402578},{"NoteNumber":72,"Velocity":30,"Duration":493569,"SoundDuration":493569,"Delta":214402578},{"NoteNumber":70,"Velocity":30,"Duration":493569,"SoundDuration":493569,"Delta":214402578},{"NoteNumber":48,"Velocity":44,"Duration":493569,"SoundDuration":493569,"Delta":214402578},{"NoteNumber":41,"Velocity":41,"Duration":313816,"SoundDuration":313816,"Delta":214805878},{"NoteNumber":48,"Velocity":41,"Duration":231423,"SoundDuration":231423,"Delta":214851013},{"NoteNumber":69,"Velocity":28,"Duration":447093,"SoundDuration":447093,"Delta":214896147},{"NoteNumber":72,"Velocity":28,"Duration":447093,"SoundDuration":447093,"Delta":214896147},{"NoteNumber":77,"Velocity":34,"Duration":447093,"SoundDuration":447093,"Delta":214896147},{"NoteNumber":81,"Velocity":40,"Duration":447093,"SoundDuration":447093,"Delta":214896147},{"NoteNumber":57,"Velocity":51,"Duration":223546,"SoundDuration":223546,"Delta":214896147},{"NoteNumber":55,"Velocity":49,"Duration":223546,"SoundDuration":223546,"Delta":215119694},{"NoteNumber":81,"Velocity":34,"Duration":456065,"SoundDuration":456065,"Delta":215343241},{"NoteNumber":77,"Velocity":27,"Duration":456065,"SoundDuration":456065,"Delta":215343241},{"NoteNumber":72,"Velocity":23,"Duration":456065,"SoundDuration":456065,"Delta":215343241},{"NoteNumber":69,"Velocity":23,"Duration":456065,"SoundDuration":456065,"Delta":215343241},{"NoteNumber":53,"Velocity":45,"Duration":2329090,"SoundDuration":2329090,"Delta":215343241},{"NoteNumber":81,"Velocity":34,"Duration":456065,"SoundDuration":456065,"Delta":215799307},{"NoteNumber":77,"Velocity":27,"Duration":456065,"SoundDuration":456065,"Delta":215799307},{"NoteNumber":72,"Velocity":23,"Duration":456065,"SoundDuration":456065,"Delta":215799307},{"NoteNumber":69,"Velocity":23,"Duration":456065,"SoundDuration":456065,"Delta":215799307},{"NoteNumber":69,"Velocity":26,"Duration":452625,"SoundDuration":452625,"Delta":216255372},{"NoteNumber":72,"Velocity":26,"Duration":452625,"SoundDuration":452625,"Delta":216255372},{"NoteNumber":77,"Velocity":31,"Duration":452625,"SoundDuration":452625,"Delta":216255372},{"NoteNumber":81,"Velocity":31,"Duration":452625,"SoundDuration":452625,"Delta":216255372},{"NoteNumber":81,"Velocity":29,"Duration":452624,"SoundDuration":452624,"Delta":216707997},{"NoteNumber":77,"Velocity":29,"Duration":452624,"SoundDuration":452624,"Delta":216707997},{"NoteNumber":72,"Velocity":24,"Duration":452624,"SoundDuration":452624,"Delta":216707997},{"NoteNumber":69,"Velocity":24,"Duration":452624,"SoundDuration":452624,"Delta":216707997},{"NoteNumber":81,"Velocity":29,"Duration":511709,"SoundDuration":511709,"Delta":217160622},{"NoteNumber":77,"Velocity":29,"Duration":511709,"SoundDuration":511709,"Delta":217160622},{"NoteNumber":72,"Velocity":24,"Duration":511709,"SoundDuration":511709,"Delta":217160622},{"NoteNumber":69,"Velocity":24,"Duration":511709,"SoundDuration":511709,"Delta":217160622},{"NoteNumber":41,"Velocity":37,"Duration":332242,"SoundDuration":332242,"Delta":217568122},{"NoteNumber":49,"Velocity":38,"Duration":242132,"SoundDuration":242132,"Delta":217620227},{"NoteNumber":69,"Velocity":25,"Duration":463179,"SoundDuration":463179,"Delta":217672332},{"NoteNumber":73,"Velocity":25,"Duration":463179,"SoundDuration":463179,"Delta":217672332},{"NoteNumber":77,"Velocity":29,"Duration":463179,"SoundDuration":463179,"Delta":217672332},{"NoteNumber":81,"Velocity":36,"Duration":463179,"SoundDuration":463179,"Delta":217672332},{"NoteNumber":57,"Velocity":46,"Duration":228032,"SoundDuration":228032,"Delta":217672332},{"NoteNumber":55,"Velocity":44,"Duration":235146,"SoundDuration":235146,"Delta":217900364},{"NoteNumber":81,"Velocity":29,"Duration":456065,"SoundDuration":456065,"Delta":218135511},{"NoteNumber":77,"Velocity":24,"Duration":456065,"SoundDuration":456065,"Delta":218135511},{"NoteNumber":73,"Velocity":19,"Duration":456065,"SoundDuration":456065,"Delta":218135511},{"NoteNumber":69,"Velocity":19,"Duration":456065,"SoundDuration":456065,"Delta":218135511},{"NoteNumber":53,"Velocity":39,"Duration":2299953,"SoundDuration":2299953,"Delta":218135511},{"NoteNumber":81,"Velocity":29,"Duration":456065,"SoundDuration":456065,"Delta":218591576},{"NoteNumber":77,"Velocity":24,"Duration":456065,"SoundDuration":456065,"Delta":218591576},{"NoteNumber":73,"Velocity":19,"Duration":456065,"SoundDuration":456065,"Delta":218591576},{"NoteNumber":69,"Velocity":19,"Duration":456065,"SoundDuration":456065,"Delta":218591576},{"NoteNumber":69,"Velocity":23,"Duration":452625,"SoundDuration":452625,"Delta":219047642},{"NoteNumber":73,"Velocity":23,"Duration":452625,"SoundDuration":452625,"Delta":219047642},{"NoteNumber":77,"Velocity":28,"Duration":452625,"SoundDuration":452625,"Delta":219047642},{"NoteNumber":81,"Velocity":28,"Duration":452625,"SoundDuration":452625,"Delta":219047642},{"NoteNumber":81,"Velocity":26,"Duration":452624,"SoundDuration":452624,"Delta":219500267},{"NoteNumber":77,"Velocity":26,"Duration":452624,"SoundDuration":452624,"Delta":219500267},{"NoteNumber":73,"Velocity":20,"Duration":452624,"SoundDuration":452624,"Delta":219500267},{"NoteNumber":69,"Velocity":20,"Duration":452624,"SoundDuration":452624,"Delta":219500267},{"NoteNumber":81,"Velocity":26,"Duration":482572,"SoundDuration":482572,"Delta":219952892},{"NoteNumber":77,"Velocity":26,"Duration":482572,"SoundDuration":482572,"Delta":219952892},{"NoteNumber":73,"Velocity":20,"Duration":482572,"SoundDuration":482572,"Delta":219952892},{"NoteNumber":69,"Velocity":20,"Duration":482572,"SoundDuration":482572,"Delta":219952892},{"NoteNumber":41,"Velocity":37,"Duration":313816,"SoundDuration":313816,"Delta":220345195},{"NoteNumber":48,"Velocity":38,"Duration":231423,"SoundDuration":231423,"Delta":220390330},{"NoteNumber":69,"Velocity":25,"Duration":447093,"SoundDuration":447093,"Delta":220435464},{"NoteNumber":72,"Velocity":25,"Duration":447093,"SoundDuration":447093,"Delta":220435464},{"NoteNumber":77,"Velocity":30,"Duration":447093,"SoundDuration":447093,"Delta":220435464},{"NoteNumber":81,"Velocity":36,"Duration":447093,"SoundDuration":447093,"Delta":220435464},{"NoteNumber":57,"Velocity":46,"Duration":223546,"SoundDuration":223546,"Delta":220435464},{"NoteNumber":55,"Velocity":44,"Duration":223546,"SoundDuration":223546,"Delta":220659011},{"NoteNumber":81,"Velocity":30,"Duration":456065,"SoundDuration":456065,"Delta":220882558},{"NoteNumber":77,"Velocity":24,"Duration":456065,"SoundDuration":456065,"Delta":220882558},{"NoteNumber":72,"Velocity":20,"Duration":456065,"SoundDuration":456065,"Delta":220882558},{"NoteNumber":69,"Velocity":20,"Duration":456065,"SoundDuration":456065,"Delta":220882558},{"NoteNumber":53,"Velocity":40,"Duration":2315795,"SoundDuration":2315795,"Delta":220882558},{"NoteNumber":81,"Velocity":30,"Duration":456065,"SoundDuration":456065,"Delta":221338624},{"NoteNumber":77,"Velocity":24,"Duration":456065,"SoundDuration":456065,"Delta":221338624},{"NoteNumber":72,"Velocity":20,"Duration":456065,"SoundDuration":456065,"Delta":221338624},{"NoteNumber":69,"Velocity":20,"Duration":456065,"SoundDuration":456065,"Delta":221338624},{"NoteNumber":69,"Velocity":24,"Duration":452625,"SoundDuration":452625,"Delta":221794689},{"NoteNumber":72,"Velocity":24,"Duration":452625,"SoundDuration":452625,"Delta":221794689},{"NoteNumber":77,"Velocity":29,"Duration":452625,"SoundDuration":452625,"Delta":221794689},{"NoteNumber":81,"Velocity":29,"Duration":452625,"SoundDuration":452625,"Delta":221794689},{"NoteNumber":81,"Velocity":27,"Duration":452624,"SoundDuration":452624,"Delta":222247314},{"NoteNumber":77,"Velocity":27,"Duration":452624,"SoundDuration":452624,"Delta":222247314},{"NoteNumber":72,"Velocity":22,"Duration":452624,"SoundDuration":452624,"Delta":222247314},{"NoteNumber":69,"Velocity":22,"Duration":452624,"SoundDuration":452624,"Delta":222247314},{"NoteNumber":81,"Velocity":27,"Duration":498414,"SoundDuration":498414,"Delta":222699939},{"NoteNumber":77,"Velocity":27,"Duration":498414,"SoundDuration":498414,"Delta":222699939},{"NoteNumber":72,"Velocity":22,"Duration":498414,"SoundDuration":498414,"Delta":222699939},{"NoteNumber":69,"Velocity":22,"Duration":498414,"SoundDuration":498414,"Delta":222699939},{"NoteNumber":41,"Velocity":35,"Duration":323379,"SoundDuration":323379,"Delta":223103007},{"NoteNumber":49,"Velocity":36,"Duration":237700,"SoundDuration":237700,"Delta":223150680},{"NoteNumber":69,"Velocity":23,"Duration":463179,"SoundDuration":463179,"Delta":223198354},{"NoteNumber":73,"Velocity":23,"Duration":463179,"SoundDuration":463179,"Delta":223198354},{"NoteNumber":77,"Velocity":27,"Duration":463179,"SoundDuration":463179,"Delta":223198354},{"NoteNumber":81,"Velocity":34,"Duration":463179,"SoundDuration":463179,"Delta":223198354},{"NoteNumber":57,"Velocity":42,"Duration":228032,"SoundDuration":228032,"Delta":223198354},{"NoteNumber":55,"Velocity":41,"Duration":235146,"SoundDuration":235146,"Delta":223426387},{"NoteNumber":81,"Velocity":27,"Duration":456065,"SoundDuration":456065,"Delta":223661533},{"NoteNumber":77,"Velocity":22,"Duration":456065,"SoundDuration":456065,"Delta":223661533},{"NoteNumber":73,"Velocity":18,"Duration":456065,"SoundDuration":456065,"Delta":223661533},{"NoteNumber":69,"Velocity":18,"Duration":456065,"SoundDuration":456065,"Delta":223661533},{"NoteNumber":53,"Velocity":37,"Duration":2333508,"SoundDuration":2333508,"Delta":223661533},{"NoteNumber":81,"Velocity":27,"Duration":456065,"SoundDuration":456065,"Delta":224117599},{"NoteNumber":77,"Velocity":22,"Duration":456065,"SoundDuration":456065,"Delta":224117599},{"NoteNumber":73,"Velocity":18,"Duration":456065,"SoundDuration":456065,"Delta":224117599},{"NoteNumber":69,"Velocity":18,"Duration":456065,"SoundDuration":456065,"Delta":224117599},{"NoteNumber":69,"Velocity":20,"Duration":452625,"SoundDuration":452625,"Delta":224573664},{"NoteNumber":73,"Velocity":20,"Duration":452625,"SoundDuration":452625,"Delta":224573664},{"NoteNumber":77,"Velocity":26,"Duration":452625,"SoundDuration":452625,"Delta":224573664},{"NoteNumber":81,"Velocity":26,"Duration":452625,"SoundDuration":452625,"Delta":224573664},{"NoteNumber":81,"Velocity":24,"Duration":452624,"SoundDuration":452624,"Delta":225026289},{"NoteNumber":77,"Velocity":24,"Duration":452624,"SoundDuration":452624,"Delta":225026289},{"NoteNumber":73,"Velocity":19,"Duration":452624,"SoundDuration":452624,"Delta":225026289},{"NoteNumber":69,"Velocity":19,"Duration":452624,"SoundDuration":452624,"Delta":225026289},{"NoteNumber":81,"Velocity":24,"Duration":516127,"SoundDuration":516127,"Delta":225478914},{"NoteNumber":77,"Velocity":24,"Duration":516127,"SoundDuration":516127,"Delta":225478914},{"NoteNumber":73,"Velocity":19,"Duration":516127,"SoundDuration":516127,"Delta":225478914},{"NoteNumber":69,"Velocity":19,"Duration":516127,"SoundDuration":516127,"Delta":225478914},{"NoteNumber":41,"Velocity":30,"Duration":351855,"SoundDuration":351855,"Delta":225889734},{"NoteNumber":48,"Velocity":30,"Duration":258110,"SoundDuration":258110,"Delta":225942388},{"NoteNumber":69,"Velocity":27,"Duration":493096,"SoundDuration":493096,"Delta":225995042},{"NoteNumber":72,"Velocity":27,"Duration":493096,"SoundDuration":493096,"Delta":225995042},{"NoteNumber":77,"Velocity":27,"Duration":493096,"SoundDuration":493096,"Delta":225995042},{"NoteNumber":81,"Velocity":27,"Duration":493096,"SoundDuration":493096,"Delta":225995042},{"NoteNumber":57,"Velocity":37,"Duration":246548,"SoundDuration":246548,"Delta":225995042},{"NoteNumber":55,"Velocity":35,"Duration":246548,"SoundDuration":246548,"Delta":226241590},{"NoteNumber":81,"Velocity":25,"Duration":509683,"SoundDuration":509683,"Delta":226488138},{"NoteNumber":77,"Velocity":25,"Duration":509683,"SoundDuration":509683,"Delta":226488138},{"NoteNumber":72,"Velocity":25,"Duration":509683,"SoundDuration":509683,"Delta":226488138},{"NoteNumber":69,"Velocity":25,"Duration":509683,"SoundDuration":509683,"Delta":226488138},{"NoteNumber":53,"Velocity":33,"Duration":1564721,"SoundDuration":1564721,"Delta":226488138},{"NoteNumber":81,"Velocity":25,"Duration":527519,"SoundDuration":527519,"Delta":226997822},{"NoteNumber":77,"Velocity":25,"Duration":527519,"SoundDuration":527519,"Delta":226997822},{"NoteNumber":72,"Velocity":25,"Duration":527519,"SoundDuration":527519,"Delta":226997822},{"NoteNumber":69,"Velocity":25,"Duration":527519,"SoundDuration":527519,"Delta":226997822},{"NoteNumber":69,"Velocity":24,"Duration":527518,"SoundDuration":527518,"Delta":227525341},{"NoteNumber":72,"Velocity":24,"Duration":527518,"SoundDuration":527518,"Delta":227525341},{"NoteNumber":77,"Velocity":24,"Duration":527518,"SoundDuration":527518,"Delta":227525341},{"NoteNumber":81,"Velocity":24,"Duration":527518,"SoundDuration":527518,"Delta":227525341},{"NoteNumber":48,"Velocity":34,"Duration":756048,"SoundDuration":756048,"Delta":228580379},{"NoteNumber":41,"Velocity":28,"Duration":320307,"SoundDuration":320307,"Delta":229336428},{"NoteNumber":57,"Velocity":34,"Duration":271512,"SoundDuration":271512,"Delta":229656735},{"NoteNumber":48,"Velocity":29,"Duration":271512,"SoundDuration":271512,"Delta":229656735},{"NoteNumber":60,"Velocity":35,"Duration":268150,"SoundDuration":268150,"Delta":229928248},{"NoteNumber":53,"Velocity":30,"Duration":268150,"SoundDuration":268150,"Delta":229928248},{"NoteNumber":65,"Velocity":37,"Duration":264864,"SoundDuration":264864,"Delta":230196398},{"NoteNumber":57,"Velocity":31,"Duration":264864,"SoundDuration":264864,"Delta":230196398},{"NoteNumber":69,"Velocity":38,"Duration":261268,"SoundDuration":261268,"Delta":230461263},{"NoteNumber":60,"Velocity":31,"Duration":261268,"SoundDuration":261268,"Delta":230461263},{"NoteNumber":72,"Velocity":39,"Duration":258150,"SoundDuration":258150,"Delta":230722531},{"NoteNumber":65,"Velocity":33,"Duration":258150,"SoundDuration":258150,"Delta":230722531},{"NoteNumber":77,"Velocity":46,"Duration":269396,"SoundDuration":269396,"Delta":230980682},{"NoteNumber":69,"Velocity":34,"Duration":269396,"SoundDuration":269396,"Delta":230980682},{"NoteNumber":69,"Velocity":33,"Duration":258564,"SoundDuration":258564,"Delta":231250078},{"NoteNumber":60,"Velocity":27,"Duration":258564,"SoundDuration":258564,"Delta":231250078},{"NoteNumber":72,"Velocity":35,"Duration":269867,"SoundDuration":269867,"Delta":231508643},{"NoteNumber":65,"Velocity":29,"Duration":269867,"SoundDuration":269867,"Delta":231508643},{"NoteNumber":77,"Velocity":38,"Duration":282655,"SoundDuration":282655,"Delta":231778510},{"NoteNumber":69,"Velocity":30,"Duration":282655,"SoundDuration":282655,"Delta":231778510},{"NoteNumber":81,"Velocity":40,"Duration":296724,"SoundDuration":296724,"Delta":232061166},{"NoteNumber":72,"Velocity":33,"Duration":296724,"SoundDuration":296724,"Delta":232061166},{"NoteNumber":84,"Velocity":44,"Duration":312288,"SoundDuration":312288,"Delta":232357890},{"NoteNumber":77,"Velocity":35,"Duration":312288,"SoundDuration":312288,"Delta":232357890},{"NoteNumber":89,"Velocity":46,"Duration":1530611,"SoundDuration":1530611,"Delta":232670179},{"NoteNumber":81,"Velocity":36,"Duration":1530611,"SoundDuration":1530611,"Delta":232670179},{"NoteNumber":57,"Velocity":27,"Duration":2882767,"SoundDuration":2882767,"Delta":234200791},{"NoteNumber":60,"Velocity":27,"Duration":2882767,"SoundDuration":2882767,"Delta":234200791},{"NoteNumber":65,"Velocity":33,"Duration":2882767,"SoundDuration":2882767,"Delta":234200791},{"NoteNumber":69,"Velocity":33,"Duration":2882767,"SoundDuration":2882767,"Delta":234200791},{"NoteNumber":41,"Velocity":22,"Duration":2882767,"SoundDuration":2882767,"Delta":234200791},{"NoteNumber":48,"Velocity":22,"Duration":2882767,"SoundDuration":2882767,"Delta":234200791},{"NoteNumber":53,"Velocity":26,"Duration":2882767,"SoundDuration":2882767,"Delta":234200791}],"license":{"name":"Creative Commons Attribution-ShareAlike 3.0 Germany","url":"http://creativecommons.org/licenses/by-sa/3.0/de/deed.en","text":"The MIDI, audio (MP3, OGG) and video files of Bernd Krueger are licensed under the cc-by-sa Germany License. This means that you can use and adapt the files, as long as you attribute the copyright holder.\n\nName: Bernd Krueger\nSource: http://www.piano-midi.de\n\nThe distribution or public playback of the files is only allowed under identical license conditions.\n\nThe scores are open source.","attribution":"MIDI files by Bernd Krueger (piano-midi.de)","attributionUrl":"http://www.piano-midi.de"}}