{"title":"Tango","artist":"Albéniz","durationMs":124956,"midiSha256":"fb547dba233807fb7a6d55df44ceafe51dbec9bccffc739ad47213a42dfc38b1","midiObject":[{"NoteNumber":38,"Velocity":53,"Duration":1418476,"SoundDuration":1418476,"Delta":0},{"NoteNumber":50,"Velocity":53,"Duration":1418476,"SoundDuration":1418476,"Delta":0},{"NoteNumber":57,"Velocity":49,"Duration":233209,"SoundDuration":233209,"Delta":718849},{"NoteNumber":69,"Velocity":55,"Duration":1000987,"SoundDuration":1000987,"Delta":952058},{"NoteNumber":66,"Velocity":49,"Duration":1000987,"SoundDuration":1000987,"Delta":952058},{"NoteNumber":62,"Velocity":49,"Duration":1000987,"SoundDuration":1000987,"Delta":952058},{"NoteNumber":33,"Velocity":51,"Duration":534569,"SoundDuration":534569,"Delta":1418476},{"NoteNumber":45,"Velocity":51,"Duration":534569,"SoundDuration":534569,"Delta":1418476},{"NoteNumber":38,"Velocity":54,"Duration":1418476,"SoundDuration":1418476,"Delta":1953045},{"NoteNumber":50,"Velocity":54,"Duration":1418476,"SoundDuration":1418476,"Delta":1953045},{"NoteNumber":57,"Velocity":46,"Duration":233209,"SoundDuration":233209,"Delta":2671895},{"NoteNumber":62,"Velocity":48,"Duration":973688,"SoundDuration":973688,"Delta":2905104},{"NoteNumber":66,"Velocity":48,"Duration":973688,"SoundDuration":973688,"Delta":2905104},{"NoteNumber":69,"Velocity":54,"Duration":973688,"SoundDuration":973688,"Delta":2905104},{"NoteNumber":33,"Velocity":49,"Duration":507270,"SoundDuration":507270,"Delta":3371522},{"NoteNumber":45,"Velocity":49,"Duration":507270,"SoundDuration":507270,"Delta":3371522},{"NoteNumber":57,"Velocity":45,"Duration":641446,"SoundDuration":641446,"Delta":3878793},{"NoteNumber":62,"Velocity":45,"Duration":641446,"SoundDuration":641446,"Delta":3878793},{"NoteNumber":66,"Velocity":65,"Duration":279056,"SoundDuration":279056,"Delta":3878793},{"NoteNumber":50,"Velocity":44,"Duration":878386,"SoundDuration":878386,"Delta":3878793},{"NoteNumber":66,"Velocity":60,"Duration":279056,"SoundDuration":279056,"Delta":4157849},{"NoteNumber":66,"Velocity":57,"Duration":208333,"SoundDuration":208333,"Delta":4436906},{"NoteNumber":66,"Velocity":55,"Duration":55970,"SoundDuration":55970,"Delta":4645239},{"NoteNumber":56,"Velocity":41,"Duration":111940,"SoundDuration":111940,"Delta":4645239},{"NoteNumber":69,"Velocity":49,"Duration":55970,"SoundDuration":55970,"Delta":4701209},{"NoteNumber":67,"Velocity":58,"Duration":501860,"SoundDuration":501860,"Delta":4757179},{"NoteNumber":57,"Velocity":45,"Duration":501860,"SoundDuration":501860,"Delta":4757179},{"NoteNumber":66,"Velocity":60,"Duration":522465,"SoundDuration":522465,"Delta":5259040},{"NoteNumber":45,"Velocity":45,"Duration":522465,"SoundDuration":522465,"Delta":5259040},{"NoteNumber":57,"Velocity":38,"Duration":1411220,"SoundDuration":1411220,"Delta":5781506},{"NoteNumber":62,"Velocity":38,"Duration":1411220,"SoundDuration":1411220,"Delta":5781506},{"NoteNumber":66,"Velocity":38,"Duration":1411220,"SoundDuration":1411220,"Delta":5781506},{"NoteNumber":69,"Velocity":63,"Duration":1411220,"SoundDuration":1411220,"Delta":5781506},{"NoteNumber":50,"Velocity":39,"Duration":907611,"SoundDuration":907611,"Delta":5781506},{"NoteNumber":56,"Velocity":46,"Duration":110294,"SoundDuration":110294,"Delta":6578823},{"NoteNumber":57,"Velocity":50,"Duration":503609,"SoundDuration":503609,"Delta":6689117},{"NoteNumber":66,"Velocity":56,"Duration":542629,"SoundDuration":542629,"Delta":7192726},{"NoteNumber":74,"Velocity":63,"Duration":255493,"SoundDuration":255493,"Delta":7192726},{"NoteNumber":45,"Velocity":46,"Duration":542629,"SoundDuration":542629,"Delta":7192726},{"NoteNumber":76,"Velocity":70,"Duration":287136,"SoundDuration":287136,"Delta":7448219},{"NoteNumber":66,"Velocity":52,"Duration":1378873,"SoundDuration":1378873,"Delta":7735356},{"NoteNumber":78,"Velocity":75,"Duration":685766,"SoundDuration":685766,"Delta":7735356},{"NoteNumber":50,"Velocity":49,"Duration":905303,"SoundDuration":905303,"Delta":7735356},{"NoteNumber":73,"Velocity":67,"Duration":219537,"SoundDuration":219537,"Delta":8421122},{"NoteNumber":76,"Velocity":55,"Duration":109265,"SoundDuration":109265,"Delta":8531393},{"NoteNumber":56,"Velocity":41,"Duration":109265,"SoundDuration":109265,"Delta":8531393},{"NoteNumber":74,"Velocity":75,"Duration":473569,"SoundDuration":473569,"Delta":8640659},{"NoteNumber":57,"Velocity":46,"Duration":473569,"SoundDuration":473569,"Delta":8640659},{"NoteNumber":65,"Velocity":46,"Duration":275786,"SoundDuration":275786,"Delta":9114229},{"NoteNumber":71,"Velocity":68,"Duration":565361,"SoundDuration":565361,"Delta":9114229},{"NoteNumber":51,"Velocity":45,"Duration":565361,"SoundDuration":565361,"Delta":9114229},{"NoteNumber":66,"Velocity":45,"Duration":289575,"SoundDuration":289575,"Delta":9390015},{"NoteNumber":61,"Velocity":50,"Duration":1414073,"SoundDuration":1414073,"Delta":9679590},{"NoteNumber":67,"Velocity":60,"Duration":1414073,"SoundDuration":1414073,"Delta":9679590},{"NoteNumber":52,"Velocity":45,"Duration":928085,"SoundDuration":928085,"Delta":9679590},{"NoteNumber":56,"Velocity":43,"Duration":109488,"SoundDuration":109488,"Delta":10498187},{"NoteNumber":57,"Velocity":47,"Duration":485987,"SoundDuration":485987,"Delta":10607676},{"NoteNumber":64,"Velocity":50,"Duration":275786,"SoundDuration":275786,"Delta":11093663},{"NoteNumber":67,"Velocity":60,"Duration":275786,"SoundDuration":275786,"Delta":11093663},{"NoteNumber":45,"Velocity":45,"Duration":551572,"SoundDuration":551572,"Delta":11093663},{"NoteNumber":66,"Velocity":50,"Duration":275786,"SoundDuration":275786,"Delta":11369449},{"NoteNumber":69,"Velocity":60,"Duration":275786,"SoundDuration":275786,"Delta":11369449},{"NoteNumber":67,"Velocity":56,"Duration":709107,"SoundDuration":709107,"Delta":11645235},{"NoteNumber":71,"Velocity":67,"Duration":709107,"SoundDuration":709107,"Delta":11645235},{"NoteNumber":49,"Velocity":45,"Duration":952101,"SoundDuration":952101,"Delta":11645235},{"NoteNumber":73,"Velocity":63,"Duration":242993,"SoundDuration":242993,"Delta":12354343},{"NoteNumber":69,"Velocity":53,"Duration":242993,"SoundDuration":242993,"Delta":12354343},{"NoteNumber":56,"Velocity":46,"Duration":121496,"SoundDuration":121496,"Delta":12475840},{"NoteNumber":73,"Velocity":57,"Duration":485987,"SoundDuration":485987,"Delta":12597337},{"NoteNumber":76,"Velocity":68,"Duration":485987,"SoundDuration":485987,"Delta":12597337},{"NoteNumber":57,"Velocity":52,"Duration":485987,"SoundDuration":485987,"Delta":12597337},{"NoteNumber":71,"Velocity":53,"Duration":479233,"SoundDuration":479233,"Delta":13083324},{"NoteNumber":74,"Velocity":63,"Duration":479233,"SoundDuration":479233,"Delta":13083324},{"NoteNumber":45,"Velocity":45,"Duration":479233,"SoundDuration":479233,"Delta":13083324},{"NoteNumber":71,"Velocity":56,"Duration":114503,"SoundDuration":114503,"Delta":13562557},{"NoteNumber":74,"Velocity":67,"Duration":114503,"SoundDuration":114503,"Delta":13562557},{"NoteNumber":52,"Velocity":45,"Duration":1020922,"SoundDuration":1020922,"Delta":13562557},{"NoteNumber":73,"Velocity":49,"Duration":114503,"SoundDuration":114503,"Delta":13677061},{"NoteNumber":76,"Velocity":58,"Duration":114503,"SoundDuration":114503,"Delta":13677061},{"NoteNumber":71,"Velocity":51,"Duration":284846,"SoundDuration":284846,"Delta":13791565},{"NoteNumber":74,"Velocity":61,"Duration":284846,"SoundDuration":284846,"Delta":13791565},{"NoteNumber":73,"Velocity":56,"Duration":1010677,"SoundDuration":1010677,"Delta":14076411},{"NoteNumber":69,"Velocity":47,"Duration":1010677,"SoundDuration":1010677,"Delta":14076411},{"NoteNumber":56,"Velocity":46,"Duration":111111,"SoundDuration":111111,"Delta":14472369},{"NoteNumber":57,"Velocity":52,"Duration":503608,"SoundDuration":503608,"Delta":14583480},{"NoteNumber":73,"Velocity":56,"Duration":267857,"SoundDuration":267857,"Delta":15087089},{"NoteNumber":76,"Velocity":67,"Duration":267857,"SoundDuration":267857,"Delta":15087089},{"NoteNumber":45,"Velocity":45,"Duration":540584,"SoundDuration":540584,"Delta":15087089},{"NoteNumber":67,"Velocity":49,"Duration":272727,"SoundDuration":272727,"Delta":15354946},{"NoteNumber":71,"Velocity":58,"Duration":272727,"SoundDuration":272727,"Delta":15354946},{"NoteNumber":71,"Velocity":54,"Duration":766479,"SoundDuration":766479,"Delta":15627673},{"NoteNumber":74,"Velocity":64,"Duration":766479,"SoundDuration":766479,"Delta":15627673},{"NoteNumber":49,"Velocity":45,"Duration":992042,"SoundDuration":992042,"Delta":15627673},{"NoteNumber":66,"Velocity":48,"Duration":169173,"SoundDuration":169173,"Delta":16394152},{"NoteNumber":69,"Velocity":57,"Duration":169173,"SoundDuration":169173,"Delta":16394152},{"NoteNumber":56,"Velocity":46,"Duration":112781,"SoundDuration":112781,"Delta":16506934},{"NoteNumber":69,"Velocity":51,"Duration":250000,"SoundDuration":250000,"Delta":16619716},{"NoteNumber":73,"Velocity":61,"Duration":250000,"SoundDuration":250000,"Delta":16619716},{"NoteNumber":57,"Velocity":52,"Duration":500000,"SoundDuration":500000,"Delta":16619716},{"NoteNumber":64,"Velocity":45,"Duration":263158,"SoundDuration":263158,"Delta":17119716},{"NoteNumber":67,"Velocity":54,"Duration":263158,"SoundDuration":263158,"Delta":17119716},{"NoteNumber":45,"Velocity":45,"Duration":526316,"SoundDuration":526316,"Delta":17119716},{"NoteNumber":65,"Velocity":49,"Duration":521739,"SoundDuration":521739,"Delta":17646032},{"NoteNumber":71,"Velocity":58,"Duration":521739,"SoundDuration":521739,"Delta":17646032},{"NoteNumber":50,"Velocity":49,"Duration":1003168,"SoundDuration":1003168,"Delta":17646032},{"NoteNumber":69,"Velocity":54,"Duration":996186,"SoundDuration":996186,"Delta":18167771},{"NoteNumber":66,"Velocity":45,"Duration":996186,"SoundDuration":996186,"Delta":18167771},{"NoteNumber":56,"Velocity":45,"Duration":116604,"SoundDuration":116604,"Delta":18532597},{"NoteNumber":57,"Velocity":48,"Duration":1006560,"SoundDuration":1006560,"Delta":18649201},{"NoteNumber":62,"Velocity":61,"Duration":491803,"SoundDuration":491803,"Delta":19163958},{"NoteNumber":74,"Velocity":70,"Duration":491803,"SoundDuration":491803,"Delta":19163958},{"NoteNumber":62,"Velocity":54,"Duration":925834,"SoundDuration":925834,"Delta":19655761},{"NoteNumber":74,"Velocity":76,"Duration":303030,"SoundDuration":303030,"Delta":19655761},{"NoteNumber":47,"Velocity":52,"Duration":925834,"SoundDuration":925834,"Delta":19655761},{"NoteNumber":54,"Velocity":52,"Duration":925834,"SoundDuration":925834,"Delta":19655761},{"NoteNumber":73,"Velocity":72,"Duration":317460,"SoundDuration":317460,"Delta":19958792},{"NoteNumber":71,"Velocity":66,"Duration":305343,"SoundDuration":305343,"Delta":20276252},{"NoteNumber":67,"Velocity":36,"Duration":1001112,"SoundDuration":1001112,"Delta":20581596},{"NoteNumber":62,"Velocity":36,"Duration":1001112,"SoundDuration":1001112,"Delta":20581596},{"NoteNumber":73,"Velocity":77,"Duration":483871,"SoundDuration":483871,"Delta":20581596},{"NoteNumber":47,"Velocity":31,"Duration":1001112,"SoundDuration":1001112,"Delta":20581596},{"NoteNumber":53,"Velocity":31,"Duration":1001112,"SoundDuration":1001112,"Delta":20581596},{"NoteNumber":71,"Velocity":66,"Duration":517241,"SoundDuration":517241,"Delta":21065467},{"NoteNumber":74,"Velocity":75,"Duration":472738,"SoundDuration":472738,"Delta":21582708},{"NoteNumber":62,"Velocity":54,"Duration":983724,"SoundDuration":983724,"Delta":21582708},{"NoteNumber":47,"Velocity":48,"Duration":728231,"SoundDuration":728231,"Delta":21582708},{"NoteNumber":66,"Velocity":66,"Duration":510985,"SoundDuration":510985,"Delta":22055447},{"NoteNumber":54,"Velocity":44,"Duration":255492,"SoundDuration":255492,"Delta":22310940},{"NoteNumber":67,"Velocity":57,"Duration":127746,"SoundDuration":127746,"Delta":22438686},{"NoteNumber":66,"Velocity":65,"Duration":315159,"SoundDuration":315159,"Delta":22566433},{"NoteNumber":62,"Velocity":49,"Duration":472738,"SoundDuration":472738,"Delta":22566433},{"NoteNumber":65,"Velocity":61,"Duration":315159,"SoundDuration":315159,"Delta":22881592},{"NoteNumber":54,"Velocity":41,"Duration":490857,"SoundDuration":490857,"Delta":23039171},{"NoteNumber":66,"Velocity":67,"Duration":333277,"SoundDuration":333277,"Delta":23196751},{"NoteNumber":62,"Velocity":50,"Duration":926784,"SoundDuration":926784,"Delta":23530028},{"NoteNumber":67,"Velocity":71,"Duration":310945,"SoundDuration":310945,"Delta":23530028},{"NoteNumber":47,"Velocity":51,"Duration":692005,"SoundDuration":692005,"Delta":23530028},{"NoteNumber":71,"Velocity":66,"Duration":302801,"SoundDuration":302801,"Delta":23840974},{"NoteNumber":74,"Velocity":68,"Duration":313037,"SoundDuration":313037,"Delta":24143775},{"NoteNumber":55,"Velocity":42,"Duration":234778,"SoundDuration":234778,"Delta":24222034},{"NoteNumber":73,"Velocity":71,"Duration":469557,"SoundDuration":469557,"Delta":24456813},{"NoteNumber":62,"Velocity":46,"Duration":469557,"SoundDuration":469557,"Delta":24456813},{"NoteNumber":71,"Velocity":66,"Duration":482625,"SoundDuration":482625,"Delta":24926370},{"NoteNumber":55,"Velocity":45,"Duration":482625,"SoundDuration":482625,"Delta":24926370},{"NoteNumber":74,"Velocity":72,"Duration":1431869,"SoundDuration":1431869,"Delta":25408995},{"NoteNumber":62,"Velocity":51,"Duration":1431869,"SoundDuration":1431869,"Delta":25408995},{"NoteNumber":66,"Velocity":51,"Duration":1431869,"SoundDuration":1431869,"Delta":25408995},{"NoteNumber":47,"Velocity":49,"Duration":310945,"SoundDuration":310945,"Delta":25408995},{"NoteNumber":53,"Velocity":45,"Duration":310945,"SoundDuration":310945,"Delta":25719941},{"NoteNumber":54,"Velocity":45,"Duration":323991,"SoundDuration":323991,"Delta":26030886},{"NoteNumber":59,"Velocity":51,"Duration":485987,"SoundDuration":485987,"Delta":26354878},{"NoteNumber":68,"Velocity":54,"Duration":514756,"SoundDuration":514756,"Delta":26840865},{"NoteNumber":78,"Velocity":68,"Duration":514756,"SoundDuration":514756,"Delta":26840865},{"NoteNumber":62,"Velocity":52,"Duration":514756,"SoundDuration":514756,"Delta":26840865},{"NoteNumber":69,"Velocity":51,"Duration":306795,"SoundDuration":306795,"Delta":27355622},{"NoteNumber":78,"Velocity":72,"Duration":306795,"SoundDuration":306795,"Delta":27355622},{"NoteNumber":61,"Velocity":56,"Duration":626284,"SoundDuration":626284,"Delta":27355622},{"NoteNumber":76,"Velocity":67,"Duration":319488,"SoundDuration":319488,"Delta":27662417},{"NoteNumber":67,"Velocity":55,"Duration":307692,"SoundDuration":307692,"Delta":27981906},{"NoteNumber":73,"Velocity":67,"Duration":307692,"SoundDuration":307692,"Delta":27981906},{"NoteNumber":58,"Velocity":51,"Duration":307692,"SoundDuration":307692,"Delta":27981906},{"NoteNumber":68,"Velocity":50,"Duration":1034485,"SoundDuration":1034485,"Delta":28289598},{"NoteNumber":74,"Velocity":73,"Duration":499916,"SoundDuration":499916,"Delta":28289598},{"NoteNumber":59,"Velocity":52,"Duration":499916,"SoundDuration":499916,"Delta":28289598},{"NoteNumber":71,"Velocity":65,"Duration":534569,"SoundDuration":534569,"Delta":28789515},{"NoteNumber":62,"Velocity":47,"Duration":534569,"SoundDuration":534569,"Delta":28789515},{"NoteNumber":69,"Velocity":49,"Duration":983724,"SoundDuration":983724,"Delta":29324084},{"NoteNumber":76,"Velocity":72,"Duration":472738,"SoundDuration":472738,"Delta":29324084},{"NoteNumber":64,"Velocity":47,"Duration":983724,"SoundDuration":983724,"Delta":29324084},{"NoteNumber":61,"Velocity":50,"Duration":983724,"SoundDuration":983724,"Delta":29324084},{"NoteNumber":73,"Velocity":66,"Duration":510985,"SoundDuration":510985,"Delta":29796822},{"NoteNumber":61,"Velocity":46,"Duration":956582,"SoundDuration":956582,"Delta":30307808},{"NoteNumber":66,"Velocity":46,"Duration":956582,"SoundDuration":956582,"Delta":30307808},{"NoteNumber":69,"Velocity":64,"Duration":315159,"SoundDuration":315159,"Delta":30307808},{"NoteNumber":54,"Velocity":48,"Duration":956582,"SoundDuration":956582,"Delta":30307808},{"NoteNumber":71,"Velocity":64,"Duration":315159,"SoundDuration":315159,"Delta":30622967},{"NoteNumber":73,"Velocity":71,"Duration":326264,"SoundDuration":326264,"Delta":30938126},{"NoteNumber":69,"Velocity":36,"Duration":939072,"SoundDuration":939072,"Delta":31264391},{"NoteNumber":62,"Velocity":38,"Duration":939072,"SoundDuration":939072,"Delta":31264391},{"NoteNumber":76,"Velocity":72,"Duration":298909,"SoundDuration":298909,"Delta":31264391},{"NoteNumber":47,"Velocity":36,"Duration":939072,"SoundDuration":939072,"Delta":31264391},{"NoteNumber":53,"Velocity":36,"Duration":939072,"SoundDuration":939072,"Delta":31264391},{"NoteNumber":74,"Velocity":68,"Duration":314960,"SoundDuration":314960,"Delta":31563300},{"NoteNumber":73,"Velocity":65,"Duration":325203,"SoundDuration":325203,"Delta":31878260},{"NoteNumber":73,"Velocity":66,"Duration":499916,"SoundDuration":499916,"Delta":32203464},{"NoteNumber":68,"Velocity":47,"Duration":1014672,"SoundDuration":1014672,"Delta":32203464},{"NoteNumber":62,"Velocity":47,"Duration":1014672,"SoundDuration":1014672,"Delta":32203464},{"NoteNumber":40,"Velocity":49,"Duration":499916,"SoundDuration":499916,"Delta":32203464},{"NoteNumber":71,"Velocity":59,"Duration":514756,"SoundDuration":514756,"Delta":32703380},{"NoteNumber":52,"Velocity":42,"Duration":514756,"SoundDuration":514756,"Delta":32703380},{"NoteNumber":61,"Velocity":46,"Duration":994612,"SoundDuration":994612,"Delta":33218137},{"NoteNumber":69,"Velocity":62,"Duration":994612,"SoundDuration":994612,"Delta":33218137},{"NoteNumber":45,"Velocity":47,"Duration":343171,"SoundDuration":343171,"Delta":33218137},{"NoteNumber":56,"Velocity":45,"Duration":343170,"SoundDuration":343170,"Delta":33561308},{"NoteNumber":57,"Velocity":43,"Duration":308270,"SoundDuration":308270,"Delta":33904479},{"NoteNumber":61,"Velocity":36,"Duration":113636,"SoundDuration":113636,"Delta":34099113},{"NoteNumber":59,"Velocity":39,"Duration":517241,"SoundDuration":517241,"Delta":34212749},{"NoteNumber":57,"Velocity":42,"Duration":560747,"SoundDuration":560747,"Delta":34729991},{"NoteNumber":57,"Velocity":41,"Duration":641446,"SoundDuration":641446,"Delta":35290738},{"NoteNumber":62,"Velocity":41,"Duration":641446,"SoundDuration":641446,"Delta":35290738},{"NoteNumber":66,"Velocity":69,"Duration":279056,"SoundDuration":279056,"Delta":35290738},{"NoteNumber":50,"Velocity":39,"Duration":878386,"SoundDuration":878386,"Delta":35290738},{"NoteNumber":66,"Velocity":60,"Duration":279056,"SoundDuration":279056,"Delta":35569795},{"NoteNumber":66,"Velocity":56,"Duration":208333,"SoundDuration":208333,"Delta":35848852},{"NoteNumber":66,"Velocity":50,"Duration":55970,"SoundDuration":55970,"Delta":36057185},{"NoteNumber":56,"Velocity":38,"Duration":111940,"SoundDuration":111940,"Delta":36057185},{"NoteNumber":69,"Velocity":45,"Duration":55970,"SoundDuration":55970,"Delta":36113155},{"NoteNumber":67,"Velocity":58,"Duration":501860,"SoundDuration":501860,"Delta":36169125},{"NoteNumber":57,"Velocity":44,"Duration":501860,"SoundDuration":501860,"Delta":36169125},{"NoteNumber":66,"Velocity":59,"Duration":522466,"SoundDuration":522466,"Delta":36670986},{"NoteNumber":45,"Velocity":42,"Duration":522466,"SoundDuration":522466,"Delta":36670986},{"NoteNumber":62,"Velocity":34,"Duration":1411220,"SoundDuration":1411220,"Delta":37193452},{"NoteNumber":57,"Velocity":34,"Duration":1411220,"SoundDuration":1411220,"Delta":37193452},{"NoteNumber":66,"Velocity":34,"Duration":1411220,"SoundDuration":1411220,"Delta":37193452},{"NoteNumber":69,"Velocity":60,"Duration":1411220,"SoundDuration":1411220,"Delta":37193452},{"NoteNumber":50,"Velocity":35,"Duration":907611,"SoundDuration":907611,"Delta":37193452},{"NoteNumber":56,"Velocity":41,"Duration":110294,"SoundDuration":110294,"Delta":37990769},{"NoteNumber":57,"Velocity":45,"Duration":503608,"SoundDuration":503608,"Delta":38101063},{"NoteNumber":66,"Velocity":54,"Duration":542629,"SoundDuration":542629,"Delta":38604672},{"NoteNumber":74,"Velocity":64,"Duration":255493,"SoundDuration":255493,"Delta":38604672},{"NoteNumber":45,"Velocity":45,"Duration":542629,"SoundDuration":542629,"Delta":38604672},{"NoteNumber":76,"Velocity":70,"Duration":287136,"SoundDuration":287136,"Delta":38860165},{"NoteNumber":78,"Velocity":75,"Duration":685766,"SoundDuration":685766,"Delta":39147301},{"NoteNumber":50,"Velocity":47,"Duration":905303,"SoundDuration":905303,"Delta":39147301},{"NoteNumber":73,"Velocity":64,"Duration":219537,"SoundDuration":219537,"Delta":39833068},{"NoteNumber":76,"Velocity":54,"Duration":109265,"SoundDuration":109265,"Delta":39943339},{"NoteNumber":56,"Velocity":45,"Duration":109265,"SoundDuration":109265,"Delta":39943339},{"NoteNumber":74,"Velocity":72,"Duration":476190,"SoundDuration":476190,"Delta":40052605},{"NoteNumber":57,"Velocity":50,"Duration":476190,"SoundDuration":476190,"Delta":40052605},{"NoteNumber":65,"Velocity":45,"Duration":275785,"SoundDuration":275785,"Delta":40528795},{"NoteNumber":71,"Velocity":66,"Duration":565361,"SoundDuration":565361,"Delta":40528795},{"NoteNumber":51,"Velocity":44,"Duration":565361,"SoundDuration":565361,"Delta":40528795},{"NoteNumber":66,"Velocity":47,"Duration":289575,"SoundDuration":289575,"Delta":40804581},{"NoteNumber":61,"Velocity":48,"Duration":1414073,"SoundDuration":1414073,"Delta":41094156},{"NoteNumber":67,"Velocity":57,"Duration":1414073,"SoundDuration":1414073,"Delta":41094156},{"NoteNumber":52,"Velocity":44,"Duration":928085,"SoundDuration":928085,"Delta":41094156},{"NoteNumber":58,"Velocity":40,"Duration":109488,"SoundDuration":109488,"Delta":41912753},{"NoteNumber":59,"Velocity":45,"Duration":485987,"SoundDuration":485987,"Delta":42022242},{"NoteNumber":64,"Velocity":50,"Duration":265486,"SoundDuration":265486,"Delta":42508230},{"NoteNumber":67,"Velocity":60,"Duration":265486,"SoundDuration":265486,"Delta":42508230},{"NoteNumber":55,"Velocity":44,"Duration":265486,"SoundDuration":265486,"Delta":42508230},{"NoteNumber":66,"Velocity":53,"Duration":275229,"SoundDuration":275229,"Delta":42773716},{"NoteNumber":70,"Velocity":63,"Duration":275229,"SoundDuration":275229,"Delta":42773716},{"NoteNumber":52,"Velocity":39,"Duration":275229,"SoundDuration":275229,"Delta":42773716},{"NoteNumber":67,"Velocity":57,"Duration":709107,"SoundDuration":709107,"Delta":43048946},{"NoteNumber":71,"Velocity":68,"Duration":709107,"SoundDuration":709107,"Delta":43048946},{"NoteNumber":49,"Velocity":44,"Duration":709107,"SoundDuration":709107,"Delta":43048946},{"NoteNumber":70,"Velocity":56,"Duration":242993,"SoundDuration":242993,"Delta":43758053},{"NoteNumber":73,"Velocity":67,"Duration":242993,"SoundDuration":242993,"Delta":43758053},{"NoteNumber":59,"Velocity":45,"Duration":242993,"SoundDuration":242993,"Delta":43758053},{"NoteNumber":76,"Velocity":70,"Duration":485987,"SoundDuration":485987,"Delta":44001047},{"NoteNumber":73,"Velocity":54,"Duration":485987,"SoundDuration":485987,"Delta":44001047},{"NoteNumber":67,"Velocity":50,"Duration":481937,"SoundDuration":481937,"Delta":44001047},{"NoteNumber":74,"Velocity":67,"Duration":526316,"SoundDuration":526316,"Delta":44487035},{"NoteNumber":67,"Velocity":45,"Duration":526316,"SoundDuration":526316,"Delta":44487035},{"NoteNumber":64,"Velocity":45,"Duration":526316,"SoundDuration":526316,"Delta":44487035},{"NoteNumber":59,"Velocity":44,"Duration":526316,"SoundDuration":526316,"Delta":44487035},{"NoteNumber":64,"Velocity":47,"Duration":1015543,"SoundDuration":1015543,"Delta":45013351},{"NoteNumber":66,"Velocity":47,"Duration":1015543,"SoundDuration":1015543,"Delta":45013351},{"NoteNumber":70,"Velocity":47,"Duration":1015543,"SoundDuration":1015543,"Delta":45013351},{"NoteNumber":74,"Velocity":70,"Duration":508474,"SoundDuration":508474,"Delta":45013351},{"NoteNumber":42,"Velocity":44,"Duration":1015543,"SoundDuration":1015543,"Delta":45013351},{"NoteNumber":73,"Velocity":64,"Duration":507068,"SoundDuration":507068,"Delta":45521825},{"NoteNumber":53,"Velocity":42,"Duration":111111,"SoundDuration":111111,"Delta":45917783},{"NoteNumber":54,"Velocity":47,"Duration":472441,"SoundDuration":472441,"Delta":46028894},{"NoteNumber":66,"Velocity":56,"Duration":551572,"SoundDuration":551572,"Delta":46501335},{"NoteNumber":70,"Velocity":63,"Duration":275785,"SoundDuration":275785,"Delta":46501335},{"NoteNumber":64,"Velocity":49,"Duration":275785,"SoundDuration":275785,"Delta":46501335},{"NoteNumber":72,"Velocity":68,"Duration":275786,"SoundDuration":275786,"Delta":46777121},{"NoteNumber":57,"Velocity":44,"Duration":275786,"SoundDuration":275786,"Delta":46777121},{"NoteNumber":66,"Velocity":61,"Duration":952101,"SoundDuration":952101,"Delta":47052907},{"NoteNumber":73,"Velocity":75,"Duration":709107,"SoundDuration":709107,"Delta":47052907},{"NoteNumber":58,"Velocity":51,"Duration":952101,"SoundDuration":952101,"Delta":47052907},{"NoteNumber":66,"Velocity":51,"Duration":952101,"SoundDuration":952101,"Delta":47052907},{"NoteNumber":74,"Velocity":71,"Duration":242993,"SoundDuration":242993,"Delta":47762014},{"NoteNumber":78,"Velocity":76,"Duration":500000,"SoundDuration":500000,"Delta":48005008},{"NoteNumber":70,"Velocity":57,"Duration":1004201,"SoundDuration":1004201,"Delta":48005008},{"NoteNumber":54,"Velocity":48,"Duration":1004201,"SoundDuration":1004201,"Delta":48005008},{"NoteNumber":76,"Velocity":71,"Duration":504201,"SoundDuration":504201,"Delta":48505008},{"NoteNumber":65,"Velocity":55,"Duration":491803,"SoundDuration":491803,"Delta":49009210},{"NoteNumber":71,"Velocity":57,"Duration":998872,"SoundDuration":998872,"Delta":49009210},{"NoteNumber":73,"Velocity":65,"Duration":491803,"SoundDuration":491803,"Delta":49009210},{"NoteNumber":47,"Velocity":50,"Duration":1951793,"SoundDuration":1951793,"Delta":49009210},{"NoteNumber":66,"Velocity":52,"Duration":507068,"SoundDuration":507068,"Delta":49501013},{"NoteNumber":74,"Velocity":70,"Duration":507068,"SoundDuration":507068,"Delta":49501013},{"NoteNumber":54,"Velocity":46,"Duration":222222,"SoundDuration":222222,"Delta":49785859},{"NoteNumber":62,"Velocity":50,"Duration":465116,"SoundDuration":465116,"Delta":50008082},{"NoteNumber":74,"Velocity":74,"Duration":487805,"SoundDuration":487805,"Delta":50473198},{"NoteNumber":54,"Velocity":46,"Duration":487805,"SoundDuration":487805,"Delta":50473198},{"NoteNumber":67,"Velocity":41,"Duration":1953745,"SoundDuration":1953745,"Delta":50961003},{"NoteNumber":71,"Velocity":41,"Duration":1953745,"SoundDuration":1953745,"Delta":50961003},{"NoteNumber":73,"Velocity":76,"Duration":298909,"SoundDuration":298909,"Delta":50961003},{"NoteNumber":47,"Velocity":51,"Duration":1953745,"SoundDuration":1953745,"Delta":50961003},{"NoteNumber":76,"Velocity":68,"Duration":314960,"SoundDuration":314960,"Delta":51259912},{"NoteNumber":78,"Velocity":65,"Duration":325203,"SoundDuration":325203,"Delta":51574873},{"NoteNumber":55,"Velocity":45,"Duration":243902,"SoundDuration":243902,"Delta":51656174},{"NoteNumber":76,"Velocity":71,"Duration":499916,"SoundDuration":499916,"Delta":51900076},{"NoteNumber":61,"Velocity":50,"Duration":499916,"SoundDuration":499916,"Delta":51900076},{"NoteNumber":71,"Velocity":66,"Duration":514756,"SoundDuration":514756,"Delta":52399993},{"NoteNumber":55,"Velocity":47,"Duration":514756,"SoundDuration":514756,"Delta":52399993},{"NoteNumber":66,"Velocity":50,"Duration":1955422,"SoundDuration":1955422,"Delta":52914749},{"NoteNumber":71,"Velocity":50,"Duration":1955422,"SoundDuration":1955422,"Delta":52914749},{"NoteNumber":74,"Velocity":71,"Duration":1467617,"SoundDuration":1467617,"Delta":52914749},{"NoteNumber":47,"Velocity":49,"Duration":1955422,"SoundDuration":1955422,"Delta":52914749},{"NoteNumber":53,"Velocity":46,"Duration":327868,"SoundDuration":327868,"Delta":53242618},{"NoteNumber":54,"Velocity":49,"Duration":308270,"SoundDuration":308270,"Delta":53570487},{"NoteNumber":57,"Velocity":47,"Duration":113636,"SoundDuration":113636,"Delta":53765122},{"NoteNumber":55,"Velocity":50,"Duration":503608,"SoundDuration":503608,"Delta":53878758},{"NoteNumber":74,"Velocity":74,"Duration":487805,"SoundDuration":487805,"Delta":54382367},{"NoteNumber":54,"Velocity":46,"Duration":487805,"SoundDuration":487805,"Delta":54382367},{"NoteNumber":67,"Velocity":41,"Duration":1953745,"SoundDuration":1953745,"Delta":54870172},{"NoteNumber":71,"Velocity":41,"Duration":1953745,"SoundDuration":1953745,"Delta":54870172},{"NoteNumber":73,"Velocity":76,"Duration":298909,"SoundDuration":298909,"Delta":54870172},{"NoteNumber":47,"Velocity":51,"Duration":1953745,"SoundDuration":1953745,"Delta":54870172},{"NoteNumber":76,"Velocity":71,"Duration":314960,"SoundDuration":314960,"Delta":55169081},{"NoteNumber":78,"Velocity":69,"Duration":325203,"SoundDuration":325203,"Delta":55484042},{"NoteNumber":55,"Velocity":50,"Duration":243902,"SoundDuration":243902,"Delta":55565342},{"NoteNumber":76,"Velocity":71,"Duration":499916,"SoundDuration":499916,"Delta":55809245},{"NoteNumber":61,"Velocity":54,"Duration":499916,"SoundDuration":499916,"Delta":55809245},{"NoteNumber":71,"Velocity":69,"Duration":514756,"SoundDuration":514756,"Delta":56309161},{"NoteNumber":55,"Velocity":47,"Duration":514756,"SoundDuration":514756,"Delta":56309161},{"NoteNumber":66,"Velocity":50,"Duration":1955422,"SoundDuration":1955422,"Delta":56823918},{"NoteNumber":71,"Velocity":50,"Duration":1955422,"SoundDuration":1955422,"Delta":56823918},{"NoteNumber":74,"Velocity":71,"Duration":1467617,"SoundDuration":1467617,"Delta":56823918},{"NoteNumber":47,"Velocity":49,"Duration":1955422,"SoundDuration":1955422,"Delta":56823918},{"NoteNumber":53,"Velocity":46,"Duration":327868,"SoundDuration":327868,"Delta":57151787},{"NoteNumber":54,"Velocity":49,"Duration":308270,"SoundDuration":308270,"Delta":57479656},{"NoteNumber":57,"Velocity":45,"Duration":113636,"SoundDuration":113636,"Delta":57674290},{"NoteNumber":55,"Velocity":49,"Duration":503608,"SoundDuration":503608,"Delta":57787927},{"NoteNumber":74,"Velocity":68,"Duration":487805,"SoundDuration":487805,"Delta":58291536},{"NoteNumber":54,"Velocity":43,"Duration":487805,"SoundDuration":487805,"Delta":58291536},{"NoteNumber":62,"Velocity":38,"Duration":1953745,"SoundDuration":1953745,"Delta":58779341},{"NoteNumber":66,"Velocity":38,"Duration":1953745,"SoundDuration":1953745,"Delta":58779341},{"NoteNumber":71,"Velocity":71,"Duration":298909,"SoundDuration":298909,"Delta":58779341},{"NoteNumber":44,"Velocity":48,"Duration":1953745,"SoundDuration":1953745,"Delta":58779341},{"NoteNumber":73,"Velocity":68,"Duration":314960,"SoundDuration":314960,"Delta":59078250},{"NoteNumber":74,"Velocity":64,"Duration":325203,"SoundDuration":325203,"Delta":59393210},{"NoteNumber":49,"Velocity":36,"Duration":243902,"SoundDuration":243902,"Delta":59474511},{"NoteNumber":71,"Velocity":70,"Duration":499916,"SoundDuration":499916,"Delta":59718414},{"NoteNumber":50,"Velocity":42,"Duration":499916,"SoundDuration":499916,"Delta":59718414},{"NoteNumber":66,"Velocity":64,"Duration":514756,"SoundDuration":514756,"Delta":60218330},{"NoteNumber":56,"Velocity":40,"Duration":514756,"SoundDuration":514756,"Delta":60218330},{"NoteNumber":66,"Velocity":47,"Duration":1955422,"SoundDuration":1955422,"Delta":60733087},{"NoteNumber":61,"Velocity":47,"Duration":1955422,"SoundDuration":1955422,"Delta":60733087},{"NoteNumber":70,"Velocity":68,"Duration":1467617,"SoundDuration":1467617,"Delta":60733087},{"NoteNumber":37,"Velocity":46,"Duration":327868,"SoundDuration":327868,"Delta":60733087},{"NoteNumber":48,"Velocity":42,"Duration":327868,"SoundDuration":327868,"Delta":61060956},{"NoteNumber":49,"Velocity":41,"Duration":308270,"SoundDuration":308270,"Delta":61388825},{"NoteNumber":53,"Velocity":34,"Duration":113636,"SoundDuration":113636,"Delta":61583459},{"NoteNumber":51,"Velocity":39,"Duration":503608,"SoundDuration":503608,"Delta":61697095},{"NoteNumber":70,"Velocity":57,"Duration":487805,"SoundDuration":487805,"Delta":62200704},{"NoteNumber":49,"Velocity":43,"Duration":487805,"SoundDuration":487805,"Delta":62200704},{"NoteNumber":68,"Velocity":57,"Duration":298908,"SoundDuration":298908,"Delta":62688509},{"NoteNumber":65,"Velocity":36,"Duration":673728,"SoundDuration":673728,"Delta":62688509},{"NoteNumber":59,"Velocity":45,"Duration":298908,"SoundDuration":298908,"Delta":62688509},{"NoteNumber":49,"Velocity":45,"Duration":2017889,"SoundDuration":2017889,"Delta":62688509},{"NoteNumber":70,"Velocity":63,"Duration":374819,"SoundDuration":374819,"Delta":62987418},{"NoteNumber":61,"Velocity":46,"Duration":374819,"SoundDuration":374819,"Delta":62987418},{"NoteNumber":73,"Velocity":45,"Duration":116279,"SoundDuration":116279,"Delta":63245958},{"NoteNumber":65,"Velocity":28,"Duration":441482,"SoundDuration":441482,"Delta":63245958},{"NoteNumber":71,"Velocity":51,"Duration":325203,"SoundDuration":325203,"Delta":63362237},{"NoteNumber":63,"Velocity":32,"Duration":325203,"SoundDuration":325203,"Delta":63362237},{"NoteNumber":70,"Velocity":60,"Duration":504201,"SoundDuration":504201,"Delta":63687441},{"NoteNumber":61,"Velocity":40,"Duration":504201,"SoundDuration":504201,"Delta":63687441},{"NoteNumber":68,"Velocity":52,"Duration":514756,"SoundDuration":514756,"Delta":64191642},{"NoteNumber":59,"Velocity":35,"Duration":514756,"SoundDuration":514756,"Delta":64191642},{"NoteNumber":73,"Velocity":58,"Duration":1467617,"SoundDuration":1467617,"Delta":64706399},{"NoteNumber":61,"Velocity":44,"Duration":1955422,"SoundDuration":1955422,"Delta":64706399},{"NoteNumber":66,"Velocity":44,"Duration":1955422,"SoundDuration":1955422,"Delta":64706399},{"NoteNumber":70,"Velocity":44,"Duration":1955422,"SoundDuration":1955422,"Delta":64706399},{"NoteNumber":42,"Velocity":41,"Duration":1955422,"SoundDuration":1955422,"Delta":64706399},{"NoteNumber":48,"Velocity":29,"Duration":113636,"SoundDuration":113636,"Delta":65556771},{"NoteNumber":49,"Velocity":34,"Duration":503608,"SoundDuration":503608,"Delta":65670407},{"NoteNumber":70,"Velocity":48,"Duration":487804,"SoundDuration":487804,"Delta":66174016},{"NoteNumber":61,"Velocity":36,"Duration":487804,"SoundDuration":487804,"Delta":66174016},{"NoteNumber":71,"Velocity":48,"Duration":298908,"SoundDuration":298908,"Delta":66661821},{"NoteNumber":65,"Velocity":34,"Duration":1982503,"SoundDuration":1982503,"Delta":66661821},{"NoteNumber":42,"Velocity":45,"Duration":1467746,"SoundDuration":1467746,"Delta":66661821},{"NoteNumber":73,"Velocity":53,"Duration":343718,"SoundDuration":343718,"Delta":66960730},{"NoteNumber":77,"Velocity":51,"Duration":325203,"SoundDuration":325203,"Delta":67304448},{"NoteNumber":49,"Velocity":36,"Duration":243902,"SoundDuration":243902,"Delta":67385749},{"NoteNumber":75,"Velocity":53,"Duration":124979,"SoundDuration":124979,"Delta":67629652},{"NoteNumber":59,"Velocity":38,"Duration":499916,"SoundDuration":499916,"Delta":67629652},{"NoteNumber":77,"Velocity":46,"Duration":124979,"SoundDuration":124979,"Delta":67754631},{"NoteNumber":75,"Velocity":46,"Duration":249958,"SoundDuration":249958,"Delta":67879610},{"NoteNumber":73,"Velocity":51,"Duration":514756,"SoundDuration":514756,"Delta":68129568},{"NoteNumber":54,"Velocity":33,"Duration":514756,"SoundDuration":514756,"Delta":68129568},{"NoteNumber":70,"Velocity":34,"Duration":1705549,"SoundDuration":1705549,"Delta":68644325},{"NoteNumber":61,"Velocity":48,"Duration":298908,"SoundDuration":298908,"Delta":68644325},{"NoteNumber":42,"Velocity":45,"Duration":1525368,"SoundDuration":1525368,"Delta":68644325},{"NoteNumber":63,"Velocity":53,"Duration":343718,"SoundDuration":343718,"Delta":68943234},{"NoteNumber":65,"Velocity":51,"Duration":325203,"SoundDuration":325203,"Delta":69286952},{"NoteNumber":49,"Velocity":36,"Duration":243902,"SoundDuration":243902,"Delta":69368252},{"NoteNumber":63,"Velocity":47,"Duration":94339,"SoundDuration":94339,"Delta":69612155},{"NoteNumber":58,"Velocity":38,"Duration":557538,"SoundDuration":557538,"Delta":69612155},{"NoteNumber":65,"Velocity":37,"Duration":94339,"SoundDuration":94339,"Delta":69706494},{"NoteNumber":63,"Velocity":37,"Duration":188679,"SoundDuration":188679,"Delta":69800834},{"NoteNumber":61,"Velocity":40,"Duration":360360,"SoundDuration":360360,"Delta":69989513},{"NoteNumber":49,"Velocity":33,"Duration":522060,"SoundDuration":522060,"Delta":70169693},{"NoteNumber":70,"Velocity":47,"Duration":341880,"SoundDuration":341880,"Delta":70349874},{"NoteNumber":66,"Velocity":40,"Duration":341880,"SoundDuration":341880,"Delta":70349874},{"NoteNumber":71,"Velocity":34,"Duration":967830,"SoundDuration":967830,"Delta":70691754},{"NoteNumber":66,"Velocity":48,"Duration":298908,"SoundDuration":298908,"Delta":70691754},{"NoteNumber":42,"Velocity":45,"Duration":1511855,"SoundDuration":1511855,"Delta":70691754},{"NoteNumber":65,"Velocity":52,"Duration":343718,"SoundDuration":343718,"Delta":70990663},{"NoteNumber":63,"Velocity":48,"Duration":325203,"SoundDuration":325203,"Delta":71334381},{"NoteNumber":49,"Velocity":36,"Duration":243902,"SoundDuration":243902,"Delta":71415682},{"NoteNumber":65,"Velocity":46,"Duration":544025,"SoundDuration":544025,"Delta":71659584},{"NoteNumber":71,"Velocity":46,"Duration":1058781,"SoundDuration":1058781,"Delta":71659584},{"NoteNumber":56,"Velocity":38,"Duration":544025,"SoundDuration":544025,"Delta":71659584},{"NoteNumber":61,"Velocity":46,"Duration":514756,"SoundDuration":514756,"Delta":72203609},{"NoteNumber":49,"Velocity":33,"Duration":514756,"SoundDuration":514756,"Delta":72203609},{"NoteNumber":66,"Velocity":34,"Duration":1983956,"SoundDuration":1983956,"Delta":72718366},{"NoteNumber":70,"Velocity":48,"Duration":298908,"SoundDuration":298908,"Delta":72718366},{"NoteNumber":42,"Velocity":45,"Duration":1466715,"SoundDuration":1466715,"Delta":72718366},{"NoteNumber":71,"Velocity":53,"Duration":298909,"SoundDuration":298909,"Delta":73017275},{"NoteNumber":72,"Velocity":54,"Duration":319999,"SoundDuration":319999,"Delta":73316184},{"NoteNumber":49,"Velocity":37,"Duration":239999,"SoundDuration":239999,"Delta":73396184},{"NoteNumber":73,"Velocity":57,"Duration":350877,"SoundDuration":350877,"Delta":73636184},{"NoteNumber":58,"Velocity":44,"Duration":548897,"SoundDuration":548897,"Delta":73636184},{"NoteNumber":77,"Velocity":46,"Duration":131579,"SoundDuration":131579,"Delta":73855482},{"NoteNumber":75,"Velocity":49,"Duration":370433,"SoundDuration":370433,"Delta":73987061},{"NoteNumber":54,"Velocity":33,"Duration":517241,"SoundDuration":517241,"Delta":74185081},{"NoteNumber":73,"Velocity":48,"Duration":344827,"SoundDuration":344827,"Delta":74357495},{"NoteNumber":65,"Velocity":34,"Duration":1982503,"SoundDuration":1982503,"Delta":74702322},{"NoteNumber":71,"Velocity":48,"Duration":298908,"SoundDuration":298908,"Delta":74702322},{"NoteNumber":42,"Velocity":45,"Duration":1467746,"SoundDuration":1467746,"Delta":74702322},{"NoteNumber":73,"Velocity":53,"Duration":343718,"SoundDuration":343718,"Delta":75001231},{"NoteNumber":77,"Velocity":51,"Duration":325203,"SoundDuration":325203,"Delta":75344949},{"NoteNumber":49,"Velocity":36,"Duration":243902,"SoundDuration":243902,"Delta":75426250},{"NoteNumber":75,"Velocity":55,"Duration":124979,"SoundDuration":124979,"Delta":75670153},{"NoteNumber":59,"Velocity":38,"Duration":499916,"SoundDuration":499916,"Delta":75670153},{"NoteNumber":77,"Velocity":48,"Duration":124979,"SoundDuration":124979,"Delta":75795132},{"NoteNumber":75,"Velocity":47,"Duration":249958,"SoundDuration":249958,"Delta":75920111},{"NoteNumber":73,"Velocity":51,"Duration":514756,"SoundDuration":514756,"Delta":76170069},{"NoteNumber":54,"Velocity":33,"Duration":514756,"SoundDuration":514756,"Delta":76170069},{"NoteNumber":66,"Velocity":44,"Duration":1029512,"SoundDuration":1029512,"Delta":76684826},{"NoteNumber":61,"Velocity":44,"Duration":1029512,"SoundDuration":1029512,"Delta":76684826},{"NoteNumber":70,"Velocity":52,"Duration":1029512,"SoundDuration":1029512,"Delta":76684826},{"NoteNumber":42,"Velocity":45,"Duration":1029512,"SoundDuration":1029512,"Delta":76684826},{"NoteNumber":62,"Velocity":44,"Duration":943253,"SoundDuration":943253,"Delta":77714339},{"NoteNumber":66,"Velocity":44,"Duration":943253,"SoundDuration":943253,"Delta":77714339},{"NoteNumber":69,"Velocity":57,"Duration":307692,"SoundDuration":307692,"Delta":77714339},{"NoteNumber":50,"Velocity":35,"Duration":943253,"SoundDuration":943253,"Delta":77714339},{"NoteNumber":60,"Velocity":35,"Duration":943253,"SoundDuration":943253,"Delta":77714339},{"NoteNumber":74,"Velocity":50,"Duration":307692,"SoundDuration":307692,"Delta":78022031},{"NoteNumber":71,"Velocity":50,"Duration":327868,"SoundDuration":327868,"Delta":78329723},{"NoteNumber":62,"Velocity":40,"Duration":940588,"SoundDuration":940588,"Delta":78657592},{"NoteNumber":69,"Velocity":52,"Duration":307692,"SoundDuration":307692,"Delta":78657592},{"NoteNumber":55,"Velocity":38,"Duration":940588,"SoundDuration":940588,"Delta":78657592},{"NoteNumber":60,"Velocity":38,"Duration":615384,"SoundDuration":615384,"Delta":78657592},{"NoteNumber":67,"Velocity":44,"Duration":307692,"SoundDuration":307692,"Delta":78965285},{"NoteNumber":74,"Velocity":44,"Duration":325203,"SoundDuration":325203,"Delta":79272977},{"NoteNumber":59,"Velocity":34,"Duration":325203,"SoundDuration":325203,"Delta":79272977},{"NoteNumber":65,"Velocity":47,"Duration":476190,"SoundDuration":476190,"Delta":79598180},{"NoteNumber":61,"Velocity":35,"Duration":980391,"SoundDuration":980391,"Delta":79598180},{"NoteNumber":49,"Velocity":35,"Duration":980391,"SoundDuration":980391,"Delta":79598180},{"NoteNumber":59,"Velocity":35,"Duration":980391,"SoundDuration":980391,"Delta":79598180},{"NoteNumber":73,"Velocity":49,"Duration":504201,"SoundDuration":504201,"Delta":80074371},{"NoteNumber":61,"Velocity":44,"Duration":1052632,"SoundDuration":1052632,"Delta":80578572},{"NoteNumber":66,"Velocity":48,"Duration":1052632,"SoundDuration":1052632,"Delta":80578572},{"NoteNumber":54,"Velocity":37,"Duration":1052632,"SoundDuration":1052632,"Delta":80578572},{"NoteNumber":58,"Velocity":37,"Duration":1052632,"SoundDuration":1052632,"Delta":80578572},{"NoteNumber":60,"Velocity":51,"Duration":943253,"SoundDuration":943253,"Delta":81631204},{"NoteNumber":63,"Velocity":51,"Duration":943253,"SoundDuration":943253,"Delta":81631204},{"NoteNumber":66,"Velocity":60,"Duration":307692,"SoundDuration":307692,"Delta":81631204},{"NoteNumber":47,"Velocity":35,"Duration":943253,"SoundDuration":943253,"Delta":81631204},{"NoteNumber":57,"Velocity":35,"Duration":943253,"SoundDuration":943253,"Delta":81631204},{"NoteNumber":69,"Velocity":53,"Duration":307692,"SoundDuration":307692,"Delta":81938897},{"NoteNumber":67,"Velocity":53,"Duration":327868,"SoundDuration":327868,"Delta":82246589},{"NoteNumber":59,"Velocity":47,"Duration":979021,"SoundDuration":979021,"Delta":82574458},{"NoteNumber":66,"Velocity":56,"Duration":307692,"SoundDuration":307692,"Delta":82574458},{"NoteNumber":52,"Velocity":45,"Duration":979021,"SoundDuration":979021,"Delta":82574458},{"NoteNumber":57,"Velocity":45,"Duration":615384,"SoundDuration":615384,"Delta":82574458},{"NoteNumber":64,"Velocity":51,"Duration":307692,"SoundDuration":307692,"Delta":82882150},{"NoteNumber":71,"Velocity":50,"Duration":363636,"SoundDuration":363636,"Delta":83189843},{"NoteNumber":55,"Velocity":34,"Duration":363636,"SoundDuration":363636,"Delta":83189843},{"NoteNumber":64,"Velocity":50,"Duration":576922,"SoundDuration":576922,"Delta":83553479},{"NoteNumber":61,"Velocity":42,"Duration":1236263,"SoundDuration":1236263,"Delta":83553479},{"NoteNumber":45,"Velocity":35,"Duration":1236263,"SoundDuration":1236263,"Delta":83553479},{"NoteNumber":55,"Velocity":35,"Duration":1236263,"SoundDuration":1236263,"Delta":83553479},{"NoteNumber":65,"Velocity":46,"Duration":659340,"SoundDuration":659340,"Delta":84130402},{"NoteNumber":57,"Velocity":32,"Duration":694020,"SoundDuration":694020,"Delta":84789743},{"NoteNumber":62,"Velocity":32,"Duration":694020,"SoundDuration":694020,"Delta":84789743},{"NoteNumber":66,"Velocity":51,"Duration":305343,"SoundDuration":305343,"Delta":84789743},{"NoteNumber":38,"Velocity":28,"Duration":930960,"SoundDuration":930960,"Delta":84789743},{"NoteNumber":66,"Velocity":49,"Duration":305343,"SoundDuration":305343,"Delta":85095086},{"NoteNumber":66,"Velocity":45,"Duration":208333,"SoundDuration":208333,"Delta":85400430},{"NoteNumber":66,"Velocity":40,"Duration":55970,"SoundDuration":55970,"Delta":85608763},{"NoteNumber":56,"Velocity":33,"Duration":111940,"SoundDuration":111940,"Delta":85608763},{"NoteNumber":69,"Velocity":37,"Duration":55970,"SoundDuration":55970,"Delta":85664733},{"NoteNumber":67,"Velocity":53,"Duration":512820,"SoundDuration":512820,"Delta":85720703},{"NoteNumber":57,"Velocity":36,"Duration":512820,"SoundDuration":512820,"Delta":85720703},{"NoteNumber":66,"Velocity":48,"Duration":540540,"SoundDuration":540540,"Delta":86233524},{"NoteNumber":45,"Velocity":35,"Duration":540540,"SoundDuration":540540,"Delta":86233524},{"NoteNumber":66,"Velocity":30,"Duration":1411220,"SoundDuration":1411220,"Delta":86774064},{"NoteNumber":57,"Velocity":30,"Duration":1411220,"SoundDuration":1411220,"Delta":86774064},{"NoteNumber":62,"Velocity":30,"Duration":1411220,"SoundDuration":1411220,"Delta":86774064},{"NoteNumber":69,"Velocity":49,"Duration":1411220,"SoundDuration":1411220,"Delta":86774064},{"NoteNumber":38,"Velocity":28,"Duration":907611,"SoundDuration":907611,"Delta":86774064},{"NoteNumber":56,"Velocity":33,"Duration":110294,"SoundDuration":110294,"Delta":87571382},{"NoteNumber":57,"Velocity":39,"Duration":503608,"SoundDuration":503608,"Delta":87681676},{"NoteNumber":66,"Velocity":47,"Duration":542629,"SoundDuration":542629,"Delta":88185285},{"NoteNumber":74,"Velocity":51,"Duration":255493,"SoundDuration":255493,"Delta":88185285},{"NoteNumber":45,"Velocity":37,"Duration":542629,"SoundDuration":542629,"Delta":88185285},{"NoteNumber":76,"Velocity":57,"Duration":287136,"SoundDuration":287136,"Delta":88440778},{"NoteNumber":66,"Velocity":49,"Duration":1378873,"SoundDuration":1378873,"Delta":88727914},{"NoteNumber":78,"Velocity":60,"Duration":685766,"SoundDuration":685766,"Delta":88727914},{"NoteNumber":50,"Velocity":38,"Duration":905303,"SoundDuration":905303,"Delta":88727914},{"NoteNumber":73,"Velocity":51,"Duration":219537,"SoundDuration":219537,"Delta":89413680},{"NoteNumber":76,"Velocity":42,"Duration":109265,"SoundDuration":109265,"Delta":89523952},{"NoteNumber":56,"Velocity":33,"Duration":109265,"SoundDuration":109265,"Delta":89523952},{"NoteNumber":74,"Velocity":58,"Duration":473569,"SoundDuration":473569,"Delta":89633218},{"NoteNumber":57,"Velocity":37,"Duration":473569,"SoundDuration":473569,"Delta":89633218},{"NoteNumber":71,"Velocity":52,"Duration":565361,"SoundDuration":565361,"Delta":90106788},{"NoteNumber":65,"Velocity":39,"Duration":275785,"SoundDuration":275785,"Delta":90106788},{"NoteNumber":51,"Velocity":36,"Duration":565361,"SoundDuration":565361,"Delta":90106788},{"NoteNumber":66,"Velocity":41,"Duration":289575,"SoundDuration":289575,"Delta":90382574},{"NoteNumber":61,"Velocity":42,"Duration":1414073,"SoundDuration":1414073,"Delta":90672149},{"NoteNumber":67,"Velocity":46,"Duration":1414073,"SoundDuration":1414073,"Delta":90672149},{"NoteNumber":52,"Velocity":36,"Duration":928085,"SoundDuration":928085,"Delta":90672149},{"NoteNumber":56,"Velocity":35,"Duration":109489,"SoundDuration":109489,"Delta":91490746},{"NoteNumber":57,"Velocity":39,"Duration":485987,"SoundDuration":485987,"Delta":91600235},{"NoteNumber":64,"Velocity":42,"Duration":275785,"SoundDuration":275785,"Delta":92086222},{"NoteNumber":67,"Velocity":46,"Duration":275785,"SoundDuration":275785,"Delta":92086222},{"NoteNumber":45,"Velocity":36,"Duration":551571,"SoundDuration":551571,"Delta":92086222},{"NoteNumber":66,"Velocity":42,"Duration":275785,"SoundDuration":275785,"Delta":92362008},{"NoteNumber":69,"Velocity":46,"Duration":275785,"SoundDuration":275785,"Delta":92362008},{"NoteNumber":67,"Velocity":47,"Duration":709107,"SoundDuration":709107,"Delta":92637794},{"NoteNumber":71,"Velocity":51,"Duration":709107,"SoundDuration":709107,"Delta":92637794},{"NoteNumber":49,"Velocity":36,"Duration":952101,"SoundDuration":952101,"Delta":92637794},{"NoteNumber":69,"Velocity":45,"Duration":242993,"SoundDuration":242993,"Delta":93346902},{"NoteNumber":73,"Velocity":49,"Duration":242993,"SoundDuration":242993,"Delta":93346902},{"NoteNumber":56,"Velocity":37,"Duration":121496,"SoundDuration":121496,"Delta":93468399},{"NoteNumber":73,"Velocity":48,"Duration":485987,"SoundDuration":485987,"Delta":93589896},{"NoteNumber":76,"Velocity":52,"Duration":485987,"SoundDuration":485987,"Delta":93589896},{"NoteNumber":57,"Velocity":41,"Duration":485987,"SoundDuration":485987,"Delta":93589896},{"NoteNumber":71,"Velocity":45,"Duration":479232,"SoundDuration":479232,"Delta":94075883},{"NoteNumber":74,"Velocity":49,"Duration":479232,"SoundDuration":479232,"Delta":94075883},{"NoteNumber":45,"Velocity":36,"Duration":479232,"SoundDuration":479232,"Delta":94075883},{"NoteNumber":74,"Velocity":51,"Duration":114503,"SoundDuration":114503,"Delta":94555116},{"NoteNumber":71,"Velocity":47,"Duration":114503,"SoundDuration":114503,"Delta":94555116},{"NoteNumber":52,"Velocity":36,"Duration":1020922,"SoundDuration":1020922,"Delta":94555116},{"NoteNumber":73,"Velocity":41,"Duration":114503,"SoundDuration":114503,"Delta":94669620},{"NoteNumber":76,"Velocity":45,"Duration":114503,"SoundDuration":114503,"Delta":94669620},{"NoteNumber":71,"Velocity":43,"Duration":284846,"SoundDuration":284846,"Delta":94784124},{"NoteNumber":74,"Velocity":47,"Duration":284846,"SoundDuration":284846,"Delta":94784124},{"NoteNumber":69,"Velocity":40,"Duration":1010677,"SoundDuration":1010677,"Delta":95068970},{"NoteNumber":73,"Velocity":40,"Duration":1010677,"SoundDuration":1010677,"Delta":95068970},{"NoteNumber":56,"Velocity":37,"Duration":111111,"SoundDuration":111111,"Delta":95464927},{"NoteNumber":57,"Velocity":41,"Duration":503608,"SoundDuration":503608,"Delta":95576039},{"NoteNumber":73,"Velocity":47,"Duration":267857,"SoundDuration":267857,"Delta":96079648},{"NoteNumber":76,"Velocity":51,"Duration":267857,"SoundDuration":267857,"Delta":96079648},{"NoteNumber":45,"Velocity":36,"Duration":540584,"SoundDuration":540584,"Delta":96079648},{"NoteNumber":67,"Velocity":41,"Duration":272727,"SoundDuration":272727,"Delta":96347505},{"NoteNumber":71,"Velocity":45,"Duration":272727,"SoundDuration":272727,"Delta":96347505},{"NoteNumber":74,"Velocity":49,"Duration":766479,"SoundDuration":766479,"Delta":96620232},{"NoteNumber":71,"Velocity":45,"Duration":766479,"SoundDuration":766479,"Delta":96620232},{"NoteNumber":49,"Velocity":36,"Duration":992043,"SoundDuration":992043,"Delta":96620232},{"NoteNumber":66,"Velocity":40,"Duration":169173,"SoundDuration":169173,"Delta":97386711},{"NoteNumber":69,"Velocity":44,"Duration":169173,"SoundDuration":169173,"Delta":97386711},{"NoteNumber":56,"Velocity":33,"Duration":112782,"SoundDuration":112782,"Delta":97499493},{"NoteNumber":69,"Velocity":43,"Duration":250000,"SoundDuration":250000,"Delta":97612275},{"NoteNumber":73,"Velocity":47,"Duration":250000,"SoundDuration":250000,"Delta":97612275},{"NoteNumber":57,"Velocity":38,"Duration":500000,"SoundDuration":500000,"Delta":97612275},{"NoteNumber":64,"Velocity":37,"Duration":263158,"SoundDuration":263158,"Delta":98112275},{"NoteNumber":67,"Velocity":40,"Duration":263158,"SoundDuration":263158,"Delta":98112275},{"NoteNumber":45,"Velocity":36,"Duration":526315,"SoundDuration":526315,"Delta":98112275},{"NoteNumber":65,"Velocity":41,"Duration":521738,"SoundDuration":521738,"Delta":98638591},{"NoteNumber":71,"Velocity":45,"Duration":521738,"SoundDuration":521738,"Delta":98638591},{"NoteNumber":50,"Velocity":38,"Duration":1003168,"SoundDuration":1003168,"Delta":98638591},{"NoteNumber":66,"Velocity":37,"Duration":996186,"SoundDuration":996186,"Delta":99160330},{"NoteNumber":69,"Velocity":40,"Duration":996186,"SoundDuration":996186,"Delta":99160330},{"NoteNumber":56,"Velocity":37,"Duration":116604,"SoundDuration":116604,"Delta":99525156},{"NoteNumber":57,"Velocity":39,"Duration":514756,"SoundDuration":514756,"Delta":99641760},{"NoteNumber":62,"Velocity":58,"Duration":513420,"SoundDuration":513420,"Delta":100156517},{"NoteNumber":74,"Velocity":58,"Duration":513420,"SoundDuration":513420,"Delta":100156517},{"NoteNumber":54,"Velocity":52,"Duration":247934,"SoundDuration":247934,"Delta":100156517},{"NoteNumber":50,"Velocity":48,"Duration":265486,"SoundDuration":265486,"Delta":100404451},{"NoteNumber":74,"Velocity":62,"Duration":1237820,"SoundDuration":1237820,"Delta":100669937},{"NoteNumber":64,"Velocity":62,"Duration":314345,"SoundDuration":314345,"Delta":100669937},{"NoteNumber":46,"Velocity":56,"Duration":703153,"SoundDuration":703153,"Delta":100669937},{"NoteNumber":65,"Velocity":56,"Duration":311288,"SoundDuration":311288,"Delta":100984283},{"NoteNumber":69,"Velocity":56,"Duration":308288,"SoundDuration":308288,"Delta":101295572},{"NoteNumber":53,"Velocity":48,"Duration":230769,"SoundDuration":230769,"Delta":101373091},{"NoteNumber":70,"Velocity":58,"Duration":457450,"SoundDuration":457450,"Delta":101603860},{"NoteNumber":62,"Velocity":60,"Duration":457450,"SoundDuration":457450,"Delta":101603860},{"NoteNumber":74,"Velocity":62,"Duration":308293,"SoundDuration":308293,"Delta":101907758},{"NoteNumber":53,"Velocity":52,"Duration":488018,"SoundDuration":488018,"Delta":102061311},{"NoteNumber":76,"Velocity":64,"Duration":333277,"SoundDuration":333277,"Delta":102216051},{"NoteNumber":79,"Velocity":66,"Duration":315158,"SoundDuration":315158,"Delta":102549329},{"NoteNumber":69,"Velocity":66,"Duration":945476,"SoundDuration":945476,"Delta":102549329},{"NoteNumber":41,"Velocity":62,"Duration":709107,"SoundDuration":709107,"Delta":102549329},{"NoteNumber":77,"Velocity":64,"Duration":315159,"SoundDuration":315159,"Delta":102864488},{"NoteNumber":72,"Velocity":61,"Duration":315158,"SoundDuration":315158,"Delta":103179647},{"NoteNumber":47,"Velocity":48,"Duration":236369,"SoundDuration":236369,"Delta":103258437},{"NoteNumber":69,"Velocity":47,"Duration":78789,"SoundDuration":78789,"Delta":103494806},{"NoteNumber":48,"Velocity":60,"Duration":472738,"SoundDuration":472738,"Delta":103494806},{"NoteNumber":70,"Velocity":39,"Duration":78789,"SoundDuration":78789,"Delta":103573596},{"NoteNumber":69,"Velocity":59,"Duration":157579,"SoundDuration":157579,"Delta":103652386},{"NoteNumber":67,"Velocity":61,"Duration":315159,"SoundDuration":315159,"Delta":103809965},{"NoteNumber":57,"Velocity":50,"Duration":490857,"SoundDuration":490857,"Delta":103967545},{"NoteNumber":65,"Velocity":58,"Duration":333277,"SoundDuration":333277,"Delta":104125124},{"NoteNumber":61,"Velocity":61,"Duration":314345,"SoundDuration":314345,"Delta":104458402},{"NoteNumber":70,"Velocity":58,"Duration":1237820,"SoundDuration":1237820,"Delta":104458402},{"NoteNumber":43,"Velocity":56,"Duration":703153,"SoundDuration":703153,"Delta":104458402},{"NoteNumber":62,"Velocity":53,"Duration":311288,"SoundDuration":311288,"Delta":104772747},{"NoteNumber":66,"Velocity":52,"Duration":308288,"SoundDuration":308288,"Delta":105084036},{"NoteNumber":50,"Velocity":48,"Duration":230769,"SoundDuration":230769,"Delta":105161556},{"NoteNumber":67,"Velocity":58,"Duration":457450,"SoundDuration":457450,"Delta":105392325},{"NoteNumber":58,"Velocity":60,"Duration":457450,"SoundDuration":457450,"Delta":105392325},{"NoteNumber":70,"Velocity":62,"Duration":308293,"SoundDuration":308293,"Delta":105696223},{"NoteNumber":50,"Velocity":53,"Duration":488018,"SoundDuration":488018,"Delta":105849775},{"NoteNumber":73,"Velocity":64,"Duration":333277,"SoundDuration":333277,"Delta":106004516},{"NoteNumber":76,"Velocity":66,"Duration":315158,"SoundDuration":315158,"Delta":106337794},{"NoteNumber":66,"Velocity":66,"Duration":945476,"SoundDuration":945476,"Delta":106337794},{"NoteNumber":38,"Velocity":62,"Duration":827292,"SoundDuration":827292,"Delta":106337794},{"NoteNumber":74,"Velocity":64,"Duration":315159,"SoundDuration":315159,"Delta":106652953},{"NoteNumber":65,"Velocity":61,"Duration":315158,"SoundDuration":315158,"Delta":106968112},{"NoteNumber":44,"Velocity":48,"Duration":118184,"SoundDuration":118184,"Delta":107165086},{"NoteNumber":66,"Velocity":56,"Duration":333333,"SoundDuration":333333,"Delta":107283271},{"NoteNumber":45,"Velocity":56,"Duration":333333,"SoundDuration":333333,"Delta":107283271},{"NoteNumber":69,"Velocity":48,"Duration":125000,"SoundDuration":125000,"Delta":107491604},{"NoteNumber":62,"Velocity":53,"Duration":648238,"SoundDuration":648238,"Delta":107616604},{"NoteNumber":67,"Velocity":53,"Duration":314960,"SoundDuration":314960,"Delta":107616604},{"NoteNumber":58,"Velocity":37,"Duration":314960,"SoundDuration":314960,"Delta":107616604},{"NoteNumber":66,"Velocity":50,"Duration":333277,"SoundDuration":333277,"Delta":107931565},{"NoteNumber":57,"Velocity":34,"Duration":333277,"SoundDuration":333277,"Delta":107931565},{"NoteNumber":60,"Velocity":46,"Duration":2000329,"SoundDuration":2000329,"Delta":108264842},{"NoteNumber":63,"Velocity":46,"Duration":2000329,"SoundDuration":2000329,"Delta":108264842},{"NoteNumber":66,"Velocity":54,"Duration":314960,"SoundDuration":314960,"Delta":108264842},{"NoteNumber":47,"Velocity":37,"Duration":2000329,"SoundDuration":2000329,"Delta":108264842},{"NoteNumber":57,"Velocity":42,"Duration":2000329,"SoundDuration":2000329,"Delta":108264842},{"NoteNumber":67,"Velocity":49,"Duration":320000,"SoundDuration":320000,"Delta":108579803},{"NoteNumber":69,"Velocity":49,"Duration":330578,"SoundDuration":330578,"Delta":108899803},{"NoteNumber":67,"Velocity":52,"Duration":508474,"SoundDuration":508474,"Delta":109230382},{"NoteNumber":66,"Velocity":50,"Duration":526315,"SoundDuration":526315,"Delta":109738856},{"NoteNumber":66,"Velocity":54,"Duration":330578,"SoundDuration":330578,"Delta":110265172},{"NoteNumber":59,"Velocity":46,"Duration":1583463,"SoundDuration":1583463,"Delta":110265172},{"NoteNumber":52,"Velocity":37,"Duration":1583463,"SoundDuration":1583463,"Delta":110265172},{"NoteNumber":57,"Velocity":46,"Duration":1012034,"SoundDuration":1012034,"Delta":110265172},{"NoteNumber":71,"Velocity":52,"Duration":330578,"SoundDuration":330578,"Delta":110595751},{"NoteNumber":66,"Velocity":51,"Duration":350877,"SoundDuration":350877,"Delta":110926329},{"NoteNumber":64,"Velocity":50,"Duration":571428,"SoundDuration":571428,"Delta":111277207},{"NoteNumber":55,"Velocity":42,"Duration":571428,"SoundDuration":571428,"Delta":111277207},{"NoteNumber":45,"Velocity":43,"Duration":2561918,"SoundDuration":2561918,"Delta":112538290},{"NoteNumber":61,"Velocity":50,"Duration":2222935,"SoundDuration":2222935,"Delta":112877273},{"NoteNumber":67,"Velocity":50,"Duration":353982,"SoundDuration":353982,"Delta":112877273},{"NoteNumber":58,"Velocity":41,"Duration":353982,"SoundDuration":353982,"Delta":112877273},{"NoteNumber":66,"Velocity":46,"Duration":404040,"SoundDuration":404040,"Delta":113231256},{"NoteNumber":57,"Velocity":38,"Duration":404040,"SoundDuration":404040,"Delta":113231256},{"NoteNumber":66,"Velocity":50,"Duration":631579,"SoundDuration":631579,"Delta":113635296},{"NoteNumber":57,"Velocity":42,"Duration":631579,"SoundDuration":631579,"Delta":113635296},{"NoteNumber":64,"Velocity":45,"Duration":833333,"SoundDuration":833333,"Delta":114266875},{"NoteNumber":55,"Velocity":39,"Duration":833333,"SoundDuration":833333,"Delta":114266875},{"NoteNumber":38,"Velocity":38,"Duration":1698717,"SoundDuration":1698717,"Delta":115100208},{"NoteNumber":57,"Velocity":33,"Duration":277777,"SoundDuration":277777,"Delta":115965593},{"NoteNumber":62,"Velocity":39,"Duration":1214895,"SoundDuration":1214895,"Delta":116243371},{"NoteNumber":66,"Velocity":39,"Duration":1214895,"SoundDuration":1214895,"Delta":116243371},{"NoteNumber":69,"Velocity":39,"Duration":1214895,"SoundDuration":1214895,"Delta":116243371},{"NoteNumber":33,"Velocity":35,"Duration":659340,"SoundDuration":659340,"Delta":116798926},{"NoteNumber":38,"Velocity":38,"Duration":1880215,"SoundDuration":1880215,"Delta":117458267},{"NoteNumber":57,"Velocity":33,"Duration":285714,"SoundDuration":285714,"Delta":118386101},{"NoteNumber":62,"Velocity":39,"Duration":1435897,"SoundDuration":1435897,"Delta":118671816},{"NoteNumber":66,"Velocity":39,"Duration":1435897,"SoundDuration":1435897,"Delta":118671816},{"NoteNumber":69,"Velocity":39,"Duration":1435897,"SoundDuration":1435897,"Delta":118671816},{"NoteNumber":33,"Velocity":35,"Duration":769231,"SoundDuration":769231,"Delta":119338482},{"NoteNumber":54,"Velocity":27,"Duration":2424242,"SoundDuration":2424242,"Delta":120107713},{"NoteNumber":57,"Velocity":27,"Duration":2424242,"SoundDuration":2424242,"Delta":120107713},{"NoteNumber":66,"Velocity":33,"Duration":2424242,"SoundDuration":2424242,"Delta":120107713},{"NoteNumber":62,"Velocity":33,"Duration":2424242,"SoundDuration":2424242,"Delta":120107713},{"NoteNumber":38,"Velocity":25,"Duration":2424242,"SoundDuration":2424242,"Delta":120107713},{"NoteNumber":45,"Velocity":25,"Duration":2424242,"SoundDuration":2424242,"Delta":120107713},{"NoteNumber":50,"Velocity":30,"Duration":2424242,"SoundDuration":2424242,"Delta":120107713},{"NoteNumber":86,"Velocity":37,"Duration":2424241,"SoundDuration":2424241,"Delta":122531955},{"NoteNumber":81,"Velocity":37,"Duration":2424241,"SoundDuration":2424241,"Delta":122531955},{"NoteNumber":74,"Velocity":33,"Duration":2424241,"SoundDuration":2424241,"Delta":122531955},{"NoteNumber":62,"Velocity":31,"Duration":2424241,"SoundDuration":2424241,"Delta":122531955},{"NoteNumber":69,"Velocity":31,"Duration":2424241,"SoundDuration":2424241,"Delta":122531955},{"NoteNumber":78,"Velocity":35,"Duration":2424241,"SoundDuration":2424241,"Delta":122531955}],"license":{"name":"Creative Commons Attribution-ShareAlike 3.0 Germany","url":"http://creativecommons.org/licenses/by-sa/3.0/de/deed.en","text":"The MIDI, audio (MP3, OGG) and video files of Bernd Krueger are licensed under the cc-by-sa Germany License. This means that you can use and adapt the files, as long as you attribute the copyright holder.\n\nName: Bernd Krueger\nSource: http://www.piano-midi.de\n\nThe distribution or public playback of the files is only allowed under identical license conditions.\n\nThe scores are open source.","attribution":"MIDI files by Bernd Krueger (piano-midi.de)","attributionUrl":"http://www.piano-midi.de"}}