{"title":"Das wohltemperierte Klavier I - Praeludium und Fuge 1 in C-Dur BWV 846","artist":"Bach","durationMs":225556,"midiSha256":"107f2b6a298f283f8d26d4e8359669e7780f7ea64011b7844f2ed066d874a37e","midiObject":[{"NoteNumber":60,"Velocity":61,"Duration":1617594,"SoundDuration":1617594,"Delta":0},{"NoteNumber":64,"Velocity":57,"Duration":1414891,"SoundDuration":1414891,"Delta":202702},{"NoteNumber":67,"Velocity":56,"Duration":202702,"SoundDuration":202702,"Delta":405405},{"NoteNumber":72,"Velocity":60,"Duration":202669,"SoundDuration":202669,"Delta":608108},{"NoteNumber":76,"Velocity":63,"Duration":178807,"SoundDuration":178807,"Delta":810777},{"NoteNumber":67,"Velocity":50,"Duration":202702,"SoundDuration":202702,"Delta":1009486},{"NoteNumber":72,"Velocity":47,"Duration":202702,"SoundDuration":202702,"Delta":1212189},{"NoteNumber":76,"Velocity":47,"Duration":202702,"SoundDuration":202702,"Delta":1414892},{"NoteNumber":60,"Velocity":62,"Duration":1613513,"SoundDuration":1613513,"Delta":1617594},{"NoteNumber":64,"Velocity":57,"Duration":1410810,"SoundDuration":1410810,"Delta":1820297},{"NoteNumber":67,"Velocity":56,"Duration":202702,"SoundDuration":202702,"Delta":2023000},{"NoteNumber":72,"Velocity":60,"Duration":202702,"SoundDuration":202702,"Delta":2225703},{"NoteNumber":76,"Velocity":62,"Duration":182432,"SoundDuration":182432,"Delta":2428405},{"NoteNumber":67,"Velocity":50,"Duration":200000,"SoundDuration":200000,"Delta":2631086},{"NoteNumber":72,"Velocity":48,"Duration":200000,"SoundDuration":200000,"Delta":2831086},{"NoteNumber":76,"Velocity":48,"Duration":200022,"SoundDuration":200022,"Delta":3031086},{"NoteNumber":60,"Velocity":65,"Duration":1589856,"SoundDuration":1589856,"Delta":3231108},{"NoteNumber":62,"Velocity":60,"Duration":1387153,"SoundDuration":1387153,"Delta":3433811},{"NoteNumber":69,"Velocity":56,"Duration":202658,"SoundDuration":202658,"Delta":3636514},{"NoteNumber":74,"Velocity":60,"Duration":197326,"SoundDuration":197326,"Delta":3839172},{"NoteNumber":77,"Velocity":65,"Duration":173076,"SoundDuration":173076,"Delta":4036498},{"NoteNumber":69,"Velocity":51,"Duration":197368,"SoundDuration":197368,"Delta":4228848},{"NoteNumber":74,"Velocity":50,"Duration":197368,"SoundDuration":197368,"Delta":4426217},{"NoteNumber":77,"Velocity":50,"Duration":197379,"SoundDuration":197379,"Delta":4623585},{"NoteNumber":60,"Velocity":65,"Duration":1573040,"SoundDuration":1573040,"Delta":4820965},{"NoteNumber":62,"Velocity":60,"Duration":1374365,"SoundDuration":1374365,"Delta":5019640},{"NoteNumber":69,"Velocity":58,"Duration":198643,"SoundDuration":198643,"Delta":5218316},{"NoteNumber":74,"Velocity":60,"Duration":194764,"SoundDuration":194764,"Delta":5416959},{"NoteNumber":77,"Velocity":65,"Duration":170886,"SoundDuration":170886,"Delta":5611723},{"NoteNumber":69,"Velocity":52,"Duration":194805,"SoundDuration":194805,"Delta":5801638},{"NoteNumber":74,"Velocity":50,"Duration":194871,"SoundDuration":194871,"Delta":5996443},{"NoteNumber":77,"Velocity":50,"Duration":202691,"SoundDuration":202691,"Delta":6191314},{"NoteNumber":59,"Velocity":65,"Duration":1570747,"SoundDuration":1570747,"Delta":6394005},{"NoteNumber":62,"Velocity":60,"Duration":1369405,"SoundDuration":1369405,"Delta":6595348},{"NoteNumber":67,"Velocity":56,"Duration":201287,"SoundDuration":201287,"Delta":6796690},{"NoteNumber":74,"Velocity":60,"Duration":194744,"SoundDuration":194744,"Delta":6997978},{"NoteNumber":77,"Velocity":65,"Duration":168749,"SoundDuration":168749,"Delta":7192722},{"NoteNumber":67,"Velocity":51,"Duration":194805,"SoundDuration":194805,"Delta":7380283},{"NoteNumber":74,"Velocity":50,"Duration":194805,"SoundDuration":194805,"Delta":7575088},{"NoteNumber":77,"Velocity":50,"Duration":194859,"SoundDuration":194859,"Delta":7769893},{"NoteNumber":59,"Velocity":65,"Duration":1595303,"SoundDuration":1595303,"Delta":7964753},{"NoteNumber":62,"Velocity":60,"Duration":1393961,"SoundDuration":1393961,"Delta":8166095},{"NoteNumber":67,"Velocity":56,"Duration":201309,"SoundDuration":201309,"Delta":8367438},{"NoteNumber":74,"Velocity":60,"Duration":197326,"SoundDuration":197326,"Delta":8568747},{"NoteNumber":77,"Velocity":65,"Duration":173076,"SoundDuration":173076,"Delta":8766073},{"NoteNumber":67,"Velocity":52,"Duration":197368,"SoundDuration":197368,"Delta":8958423},{"NoteNumber":74,"Velocity":50,"Duration":197447,"SoundDuration":197447,"Delta":9155791},{"NoteNumber":77,"Velocity":50,"Duration":206817,"SoundDuration":206817,"Delta":9353239},{"NoteNumber":60,"Velocity":61,"Duration":1579375,"SoundDuration":1579375,"Delta":9560056},{"NoteNumber":64,"Velocity":57,"Duration":1382006,"SoundDuration":1382006,"Delta":9757425},{"NoteNumber":67,"Velocity":53,"Duration":197368,"SoundDuration":197368,"Delta":9954793},{"NoteNumber":72,"Velocity":55,"Duration":197316,"SoundDuration":197316,"Delta":10152162},{"NoteNumber":76,"Velocity":60,"Duration":171974,"SoundDuration":171974,"Delta":10349478},{"NoteNumber":67,"Velocity":50,"Duration":197368,"SoundDuration":197368,"Delta":10540613},{"NoteNumber":72,"Velocity":47,"Duration":197424,"SoundDuration":197424,"Delta":10737982},{"NoteNumber":76,"Velocity":47,"Duration":204025,"SoundDuration":204025,"Delta":10935406},{"NoteNumber":60,"Velocity":62,"Duration":1573931,"SoundDuration":1573931,"Delta":11139432},{"NoteNumber":64,"Velocity":57,"Duration":1376563,"SoundDuration":1376563,"Delta":11336800},{"NoteNumber":67,"Velocity":55,"Duration":197368,"SoundDuration":197368,"Delta":11534169},{"NoteNumber":72,"Velocity":57,"Duration":197326,"SoundDuration":197326,"Delta":11731537},{"NoteNumber":76,"Velocity":61,"Duration":173076,"SoundDuration":173076,"Delta":11928864},{"NoteNumber":67,"Velocity":50,"Duration":197368,"SoundDuration":197368,"Delta":12121214},{"NoteNumber":72,"Velocity":48,"Duration":197368,"SoundDuration":197368,"Delta":12318582},{"NoteNumber":76,"Velocity":48,"Duration":197412,"SoundDuration":197412,"Delta":12515951},{"NoteNumber":60,"Velocity":67,"Duration":1586019,"SoundDuration":1586019,"Delta":12713364},{"NoteNumber":64,"Velocity":62,"Duration":1383317,"SoundDuration":1383317,"Delta":12916066},{"NoteNumber":69,"Velocity":61,"Duration":202658,"SoundDuration":202658,"Delta":13118769},{"NoteNumber":76,"Velocity":66,"Duration":197326,"SoundDuration":197326,"Delta":13321427},{"NoteNumber":81,"Velocity":70,"Duration":173076,"SoundDuration":173076,"Delta":13518754},{"NoteNumber":69,"Velocity":55,"Duration":196078,"SoundDuration":196078,"Delta":13711093},{"NoteNumber":76,"Velocity":51,"Duration":196078,"SoundDuration":196078,"Delta":13907171},{"NoteNumber":81,"Velocity":51,"Duration":196133,"SoundDuration":196133,"Delta":14103250},{"NoteNumber":60,"Velocity":68,"Duration":1589938,"SoundDuration":1589938,"Delta":14299384},{"NoteNumber":64,"Velocity":62,"Duration":1387235,"SoundDuration":1387235,"Delta":14502086},{"NoteNumber":69,"Velocity":61,"Duration":202647,"SoundDuration":202647,"Delta":14704789},{"NoteNumber":76,"Velocity":65,"Duration":196047,"SoundDuration":196047,"Delta":14907437},{"NoteNumber":81,"Velocity":68,"Duration":173076,"SoundDuration":173076,"Delta":15103484},{"NoteNumber":69,"Velocity":55,"Duration":196078,"SoundDuration":196078,"Delta":15295823},{"NoteNumber":76,"Velocity":52,"Duration":196122,"SoundDuration":196122,"Delta":15491901},{"NoteNumber":81,"Velocity":52,"Duration":201298,"SoundDuration":201298,"Delta":15688024},{"NoteNumber":60,"Velocity":61,"Duration":1559856,"SoundDuration":1559856,"Delta":15889322},{"NoteNumber":62,"Velocity":57,"Duration":1363777,"SoundDuration":1363777,"Delta":16085401},{"NoteNumber":66,"Velocity":56,"Duration":196078,"SoundDuration":196078,"Delta":16281479},{"NoteNumber":69,"Velocity":60,"Duration":196036,"SoundDuration":196036,"Delta":16477558},{"NoteNumber":74,"Velocity":63,"Duration":171974,"SoundDuration":171974,"Delta":16673595},{"NoteNumber":66,"Velocity":50,"Duration":194805,"SoundDuration":194805,"Delta":16864708},{"NoteNumber":69,"Velocity":47,"Duration":194805,"SoundDuration":194805,"Delta":17059514},{"NoteNumber":74,"Velocity":47,"Duration":194859,"SoundDuration":194859,"Delta":17254319},{"NoteNumber":60,"Velocity":62,"Duration":1596670,"SoundDuration":1596670,"Delta":17449179},{"NoteNumber":62,"Velocity":57,"Duration":1395327,"SoundDuration":1395327,"Delta":17650521},{"NoteNumber":66,"Velocity":56,"Duration":201342,"SoundDuration":201342,"Delta":17851863},{"NoteNumber":69,"Velocity":60,"Duration":201287,"SoundDuration":201287,"Delta":18053205},{"NoteNumber":74,"Velocity":62,"Duration":175324,"SoundDuration":175324,"Delta":18254493},{"NoteNumber":66,"Velocity":50,"Duration":194805,"SoundDuration":194805,"Delta":18449298},{"NoteNumber":69,"Velocity":48,"Duration":194906,"SoundDuration":194906,"Delta":18644104},{"NoteNumber":74,"Velocity":48,"Duration":206839,"SoundDuration":206839,"Delta":18839010},{"NoteNumber":59,"Velocity":65,"Duration":1579426,"SoundDuration":1579426,"Delta":19045849},{"NoteNumber":62,"Velocity":60,"Duration":1379426,"SoundDuration":1379426,"Delta":19245849},{"NoteNumber":67,"Velocity":58,"Duration":199956,"SoundDuration":199956,"Delta":19445849},{"NoteNumber":74,"Velocity":63,"Duration":194784,"SoundDuration":194784,"Delta":19645805},{"NoteNumber":79,"Velocity":66,"Duration":173076,"SoundDuration":173076,"Delta":19840590},{"NoteNumber":67,"Velocity":51,"Duration":194805,"SoundDuration":194805,"Delta":20032918},{"NoteNumber":74,"Velocity":50,"Duration":194871,"SoundDuration":194871,"Delta":20227724},{"NoteNumber":79,"Velocity":50,"Duration":202680,"SoundDuration":202680,"Delta":20422595},{"NoteNumber":59,"Velocity":65,"Duration":1581101,"SoundDuration":1581101,"Delta":20625275},{"NoteNumber":62,"Velocity":60,"Duration":1381101,"SoundDuration":1381101,"Delta":20825275},{"NoteNumber":67,"Velocity":58,"Duration":199946,"SoundDuration":199946,"Delta":21025275},{"NoteNumber":74,"Velocity":62,"Duration":193548,"SoundDuration":193548,"Delta":21225221},{"NoteNumber":79,"Velocity":65,"Duration":174193,"SoundDuration":174193,"Delta":21418770},{"NoteNumber":67,"Velocity":52,"Duration":193548,"SoundDuration":193548,"Delta":21612318},{"NoteNumber":74,"Velocity":50,"Duration":193659,"SoundDuration":193659,"Delta":21805867},{"NoteNumber":79,"Velocity":50,"Duration":206850,"SoundDuration":206850,"Delta":21999526},{"NoteNumber":59,"Velocity":61,"Duration":1588673,"SoundDuration":1588673,"Delta":22206377},{"NoteNumber":60,"Velocity":57,"Duration":1387331,"SoundDuration":1387331,"Delta":22407719},{"NoteNumber":64,"Velocity":56,"Duration":201342,"SoundDuration":201342,"Delta":22609061},{"NoteNumber":67,"Velocity":60,"Duration":201277,"SoundDuration":201277,"Delta":22810403},{"NoteNumber":72,"Velocity":63,"Duration":174193,"SoundDuration":174193,"Delta":23011681},{"NoteNumber":64,"Velocity":50,"Duration":193548,"SoundDuration":193548,"Delta":23205229},{"NoteNumber":67,"Velocity":47,"Duration":193624,"SoundDuration":193624,"Delta":23398778},{"NoteNumber":72,"Velocity":47,"Duration":202647,"SoundDuration":202647,"Delta":23592402},{"NoteNumber":59,"Velocity":62,"Duration":1571866,"SoundDuration":1571866,"Delta":23795050},{"NoteNumber":60,"Velocity":57,"Duration":1375788,"SoundDuration":1375788,"Delta":23991128},{"NoteNumber":64,"Velocity":56,"Duration":196078,"SoundDuration":196078,"Delta":24187207},{"NoteNumber":67,"Velocity":60,"Duration":196057,"SoundDuration":196057,"Delta":24383285},{"NoteNumber":72,"Velocity":62,"Duration":174193,"SoundDuration":174193,"Delta":24579343},{"NoteNumber":64,"Velocity":50,"Duration":193548,"SoundDuration":193548,"Delta":24772891},{"NoteNumber":67,"Velocity":48,"Duration":193659,"SoundDuration":193659,"Delta":24966440},{"NoteNumber":72,"Velocity":48,"Duration":206817,"SoundDuration":206817,"Delta":25160100},{"NoteNumber":57,"Velocity":61,"Duration":1594961,"SoundDuration":1594961,"Delta":25366917},{"NoteNumber":60,"Velocity":57,"Duration":1397593,"SoundDuration":1397593,"Delta":25564285},{"NoteNumber":64,"Velocity":56,"Duration":197368,"SoundDuration":197368,"Delta":25761654},{"NoteNumber":67,"Velocity":60,"Duration":197368,"SoundDuration":197368,"Delta":25959022},{"NoteNumber":72,"Velocity":63,"Duration":177631,"SoundDuration":177631,"Delta":26156391},{"NoteNumber":64,"Velocity":50,"Duration":202702,"SoundDuration":202702,"Delta":26353804},{"NoteNumber":67,"Velocity":47,"Duration":202702,"SoundDuration":202702,"Delta":26556506},{"NoteNumber":72,"Velocity":47,"Duration":202669,"SoundDuration":202669,"Delta":26759209},{"NoteNumber":57,"Velocity":62,"Duration":1620564,"SoundDuration":1620564,"Delta":26961878},{"NoteNumber":60,"Velocity":57,"Duration":1421888,"SoundDuration":1421888,"Delta":27160554},{"NoteNumber":64,"Velocity":56,"Duration":198675,"SoundDuration":198675,"Delta":27359229},{"NoteNumber":67,"Velocity":60,"Duration":198675,"SoundDuration":198675,"Delta":27557905},{"NoteNumber":72,"Velocity":62,"Duration":178807,"SoundDuration":178807,"Delta":27756580},{"NoteNumber":64,"Velocity":50,"Duration":204081,"SoundDuration":204081,"Delta":27955301},{"NoteNumber":67,"Velocity":48,"Duration":204205,"SoundDuration":204205,"Delta":28159383},{"NoteNumber":72,"Velocity":48,"Duration":218853,"SoundDuration":218853,"Delta":28363589},{"NoteNumber":50,"Velocity":61,"Duration":1612245,"SoundDuration":1612245,"Delta":28582442},{"NoteNumber":57,"Velocity":57,"Duration":1408163,"SoundDuration":1408163,"Delta":28786524},{"NoteNumber":62,"Velocity":56,"Duration":204047,"SoundDuration":204047,"Delta":28990606},{"NoteNumber":66,"Velocity":60,"Duration":200000,"SoundDuration":200000,"Delta":29194654},{"NoteNumber":72,"Velocity":63,"Duration":179999,"SoundDuration":179999,"Delta":29394654},{"NoteNumber":62,"Velocity":50,"Duration":199999,"SoundDuration":199999,"Delta":29594654},{"NoteNumber":66,"Velocity":47,"Duration":199999,"SoundDuration":199999,"Delta":29794654},{"NoteNumber":72,"Velocity":47,"Duration":200034,"SoundDuration":200034,"Delta":29994654},{"NoteNumber":50,"Velocity":62,"Duration":1613798,"SoundDuration":1613798,"Delta":30194688},{"NoteNumber":57,"Velocity":57,"Duration":1409716,"SoundDuration":1409716,"Delta":30398769},{"NoteNumber":62,"Velocity":56,"Duration":204036,"SoundDuration":204036,"Delta":30602851},{"NoteNumber":66,"Velocity":60,"Duration":198675,"SoundDuration":198675,"Delta":30806888},{"NoteNumber":72,"Velocity":62,"Duration":178807,"SoundDuration":178807,"Delta":31005563},{"NoteNumber":62,"Velocity":50,"Duration":198675,"SoundDuration":198675,"Delta":31204239},{"NoteNumber":66,"Velocity":48,"Duration":198744,"SoundDuration":198744,"Delta":31402914},{"NoteNumber":72,"Velocity":48,"Duration":206827,"SoundDuration":206827,"Delta":31601658},{"NoteNumber":55,"Velocity":57,"Duration":1579015,"SoundDuration":1579015,"Delta":31808486},{"NoteNumber":59,"Velocity":55,"Duration":1380340,"SoundDuration":1380340,"Delta":32007162},{"NoteNumber":62,"Velocity":53,"Duration":198675,"SoundDuration":198675,"Delta":32205837},{"NoteNumber":67,"Velocity":56,"Duration":198653,"SoundDuration":198653,"Delta":32404513},{"NoteNumber":71,"Velocity":60,"Duration":176470,"SoundDuration":176470,"Delta":32603167},{"NoteNumber":62,"Velocity":46,"Duration":196078,"SoundDuration":196078,"Delta":32799245},{"NoteNumber":67,"Velocity":45,"Duration":196078,"SoundDuration":196078,"Delta":32995324},{"NoteNumber":71,"Velocity":45,"Duration":196100,"SoundDuration":196100,"Delta":33191402},{"NoteNumber":55,"Velocity":58,"Duration":1580504,"SoundDuration":1580504,"Delta":33387502},{"NoteNumber":59,"Velocity":55,"Duration":1381828,"SoundDuration":1381828,"Delta":33586178},{"NoteNumber":62,"Velocity":53,"Duration":198675,"SoundDuration":198675,"Delta":33784853},{"NoteNumber":67,"Velocity":56,"Duration":198643,"SoundDuration":198643,"Delta":33983529},{"NoteNumber":71,"Velocity":58,"Duration":175324,"SoundDuration":175324,"Delta":34182172},{"NoteNumber":62,"Velocity":47,"Duration":194805,"SoundDuration":194805,"Delta":34376977},{"NoteNumber":67,"Velocity":45,"Duration":194805,"SoundDuration":194805,"Delta":34571783},{"NoteNumber":71,"Velocity":45,"Duration":201418,"SoundDuration":201418,"Delta":34766588},{"NoteNumber":55,"Velocity":57,"Duration":1586014,"SoundDuration":1586014,"Delta":34968007},{"NoteNumber":58,"Velocity":55,"Duration":1387338,"SoundDuration":1387338,"Delta":35166682},{"NoteNumber":64,"Velocity":53,"Duration":198675,"SoundDuration":198675,"Delta":35365358},{"NoteNumber":67,"Velocity":56,"Duration":198643,"SoundDuration":198643,"Delta":35564033},{"NoteNumber":73,"Velocity":60,"Duration":175324,"SoundDuration":175324,"Delta":35762676},{"NoteNumber":64,"Velocity":46,"Duration":194805,"SoundDuration":194805,"Delta":35957482},{"NoteNumber":67,"Velocity":45,"Duration":194906,"SoundDuration":194906,"Delta":36152287},{"NoteNumber":73,"Velocity":45,"Duration":206827,"SoundDuration":206827,"Delta":36347193},{"NoteNumber":55,"Velocity":58,"Duration":1588930,"SoundDuration":1588930,"Delta":36554021},{"NoteNumber":58,"Velocity":55,"Duration":1390254,"SoundDuration":1390254,"Delta":36752696},{"NoteNumber":64,"Velocity":53,"Duration":198675,"SoundDuration":198675,"Delta":36951372},{"NoteNumber":67,"Velocity":56,"Duration":198675,"SoundDuration":198675,"Delta":37150047},{"NoteNumber":73,"Velocity":58,"Duration":176881,"SoundDuration":176881,"Delta":37348723},{"NoteNumber":64,"Velocity":47,"Duration":196078,"SoundDuration":196078,"Delta":37545213},{"NoteNumber":67,"Velocity":45,"Duration":196156,"SoundDuration":196156,"Delta":37741291},{"NoteNumber":73,"Velocity":45,"Duration":205503,"SoundDuration":205503,"Delta":37937448},{"NoteNumber":53,"Velocity":61,"Duration":1588593,"SoundDuration":1588593,"Delta":38142951},{"NoteNumber":57,"Velocity":57,"Duration":1380340,"SoundDuration":1380340,"Delta":38351204},{"NoteNumber":62,"Velocity":56,"Duration":198675,"SoundDuration":198675,"Delta":38549879},{"NoteNumber":69,"Velocity":60,"Duration":198653,"SoundDuration":198653,"Delta":38748555},{"NoteNumber":74,"Velocity":63,"Duration":176470,"SoundDuration":176470,"Delta":38947209},{"NoteNumber":62,"Velocity":50,"Duration":196078,"SoundDuration":196078,"Delta":39143287},{"NoteNumber":69,"Velocity":47,"Duration":196078,"SoundDuration":196078,"Delta":39339366},{"NoteNumber":74,"Velocity":47,"Duration":196100,"SoundDuration":196100,"Delta":39535444},{"NoteNumber":53,"Velocity":62,"Duration":1591281,"SoundDuration":1591281,"Delta":39731544},{"NoteNumber":57,"Velocity":57,"Duration":1392606,"SoundDuration":1392606,"Delta":39930220},{"NoteNumber":62,"Velocity":56,"Duration":198675,"SoundDuration":198675,"Delta":40128895},{"NoteNumber":69,"Velocity":60,"Duration":198653,"SoundDuration":198653,"Delta":40327571},{"NoteNumber":74,"Velocity":62,"Duration":176470,"SoundDuration":176470,"Delta":40526225},{"NoteNumber":62,"Velocity":50,"Duration":196078,"SoundDuration":196078,"Delta":40722303},{"NoteNumber":69,"Velocity":48,"Duration":196180,"SoundDuration":196180,"Delta":40918382},{"NoteNumber":74,"Velocity":48,"Duration":208263,"SoundDuration":208263,"Delta":41114562},{"NoteNumber":53,"Velocity":57,"Duration":1584313,"SoundDuration":1584313,"Delta":41322826},{"NoteNumber":56,"Velocity":55,"Duration":1384313,"SoundDuration":1384313,"Delta":41522826},{"NoteNumber":62,"Velocity":53,"Duration":200000,"SoundDuration":200000,"Delta":41722826},{"NoteNumber":65,"Velocity":56,"Duration":199967,"SoundDuration":199967,"Delta":41922826},{"NoteNumber":71,"Velocity":60,"Duration":176470,"SoundDuration":176470,"Delta":42122794},{"NoteNumber":62,"Velocity":46,"Duration":196078,"SoundDuration":196078,"Delta":42318872},{"NoteNumber":65,"Velocity":45,"Duration":196078,"SoundDuration":196078,"Delta":42514951},{"NoteNumber":71,"Velocity":45,"Duration":196111,"SoundDuration":196111,"Delta":42711029},{"NoteNumber":53,"Velocity":58,"Duration":1593715,"SoundDuration":1593715,"Delta":42907140},{"NoteNumber":56,"Velocity":55,"Duration":1393715,"SoundDuration":1393715,"Delta":43107140},{"NoteNumber":62,"Velocity":53,"Duration":200000,"SoundDuration":200000,"Delta":43307140},{"NoteNumber":65,"Velocity":56,"Duration":199967,"SoundDuration":199967,"Delta":43507140},{"NoteNumber":71,"Velocity":58,"Duration":176470,"SoundDuration":176470,"Delta":43707108},{"NoteNumber":62,"Velocity":47,"Duration":196078,"SoundDuration":196078,"Delta":43903186},{"NoteNumber":65,"Velocity":45,"Duration":196156,"SoundDuration":196156,"Delta":44099265},{"NoteNumber":71,"Velocity":45,"Duration":205433,"SoundDuration":205433,"Delta":44295421},{"NoteNumber":52,"Velocity":57,"Duration":1572858,"SoundDuration":1572858,"Delta":44500855},{"NoteNumber":55,"Velocity":55,"Duration":1372858,"SoundDuration":1372858,"Delta":44700855},{"NoteNumber":60,"Velocity":53,"Duration":199988,"SoundDuration":199988,"Delta":44900855},{"NoteNumber":67,"Velocity":56,"Duration":198632,"SoundDuration":198632,"Delta":45100844},{"NoteNumber":72,"Velocity":60,"Duration":174193,"SoundDuration":174193,"Delta":45299477},{"NoteNumber":60,"Velocity":46,"Duration":193548,"SoundDuration":193548,"Delta":45493025},{"NoteNumber":67,"Velocity":45,"Duration":193548,"SoundDuration":193548,"Delta":45686574},{"NoteNumber":72,"Velocity":45,"Duration":193591,"SoundDuration":193591,"Delta":45880122},{"NoteNumber":52,"Velocity":58,"Duration":1590407,"SoundDuration":1590407,"Delta":46073714},{"NoteNumber":55,"Velocity":55,"Duration":1391731,"SoundDuration":1391731,"Delta":46272389},{"NoteNumber":60,"Velocity":53,"Duration":198675,"SoundDuration":198675,"Delta":46471065},{"NoteNumber":67,"Velocity":56,"Duration":198643,"SoundDuration":198643,"Delta":46669740},{"NoteNumber":72,"Velocity":58,"Duration":175324,"SoundDuration":175324,"Delta":46868383},{"NoteNumber":60,"Velocity":47,"Duration":194805,"SoundDuration":194805,"Delta":47063189},{"NoteNumber":67,"Velocity":45,"Duration":194942,"SoundDuration":194942,"Delta":47257994},{"NoteNumber":72,"Velocity":45,"Duration":211184,"SoundDuration":211184,"Delta":47452936},{"NoteNumber":52,"Velocity":55,"Duration":1589683,"SoundDuration":1589683,"Delta":47664121},{"NoteNumber":53,"Velocity":51,"Duration":1388340,"SoundDuration":1388340,"Delta":47865463},{"NoteNumber":57,"Velocity":50,"Duration":201342,"SoundDuration":201342,"Delta":48066806},{"NoteNumber":60,"Velocity":53,"Duration":201298,"SoundDuration":201298,"Delta":48268148},{"NoteNumber":65,"Velocity":56,"Duration":176470,"SoundDuration":176470,"Delta":48469446},{"NoteNumber":57,"Velocity":45,"Duration":196078,"SoundDuration":196078,"Delta":48665525},{"NoteNumber":60,"Velocity":42,"Duration":196078,"SoundDuration":196078,"Delta":48861603},{"NoteNumber":65,"Velocity":42,"Duration":196122,"SoundDuration":196122,"Delta":49057682},{"NoteNumber":52,"Velocity":55,"Duration":1610240,"SoundDuration":1610240,"Delta":49253804},{"NoteNumber":53,"Velocity":51,"Duration":1408898,"SoundDuration":1408898,"Delta":49455146},{"NoteNumber":57,"Velocity":50,"Duration":201342,"SoundDuration":201342,"Delta":49656489},{"NoteNumber":60,"Velocity":53,"Duration":201309,"SoundDuration":201309,"Delta":49857831},{"NoteNumber":65,"Velocity":55,"Duration":177631,"SoundDuration":177631,"Delta":50059140},{"NoteNumber":57,"Velocity":45,"Duration":197368,"SoundDuration":197368,"Delta":50256509},{"NoteNumber":60,"Velocity":43,"Duration":197496,"SoundDuration":197496,"Delta":50453877},{"NoteNumber":65,"Velocity":43,"Duration":212670,"SoundDuration":212670,"Delta":50651374},{"NoteNumber":50,"Velocity":55,"Duration":1608741,"SoundDuration":1608741,"Delta":50864045},{"NoteNumber":53,"Velocity":51,"Duration":1407399,"SoundDuration":1407399,"Delta":51065387},{"NoteNumber":57,"Velocity":50,"Duration":201342,"SoundDuration":201342,"Delta":51266729},{"NoteNumber":60,"Velocity":53,"Duration":201309,"SoundDuration":201309,"Delta":51468071},{"NoteNumber":65,"Velocity":56,"Duration":177631,"SoundDuration":177631,"Delta":51669381},{"NoteNumber":57,"Velocity":45,"Duration":197368,"SoundDuration":197368,"Delta":51866749},{"NoteNumber":60,"Velocity":42,"Duration":197484,"SoundDuration":197484,"Delta":52064118},{"NoteNumber":65,"Velocity":42,"Duration":211184,"SoundDuration":211184,"Delta":52261602},{"NoteNumber":50,"Velocity":55,"Duration":1614161,"SoundDuration":1614161,"Delta":52472787},{"NoteNumber":53,"Velocity":51,"Duration":1412819,"SoundDuration":1412819,"Delta":52674129},{"NoteNumber":57,"Velocity":50,"Duration":201342,"SoundDuration":201342,"Delta":52875471},{"NoteNumber":60,"Velocity":53,"Duration":201320,"SoundDuration":201320,"Delta":53076813},{"NoteNumber":65,"Velocity":55,"Duration":178807,"SoundDuration":178807,"Delta":53278133},{"NoteNumber":57,"Velocity":45,"Duration":198675,"SoundDuration":198675,"Delta":53476809},{"NoteNumber":60,"Velocity":43,"Duration":198792,"SoundDuration":198792,"Delta":53675484},{"NoteNumber":65,"Velocity":43,"Duration":212670,"SoundDuration":212670,"Delta":53874277},{"NoteNumber":43,"Velocity":55,"Duration":1610737,"SoundDuration":1610737,"Delta":54086948},{"NoteNumber":50,"Velocity":51,"Duration":1409395,"SoundDuration":1409395,"Delta":54288290},{"NoteNumber":55,"Velocity":50,"Duration":201342,"SoundDuration":201342,"Delta":54489633},{"NoteNumber":59,"Velocity":53,"Duration":201342,"SoundDuration":201342,"Delta":54690975},{"NoteNumber":65,"Velocity":56,"Duration":181208,"SoundDuration":181208,"Delta":54892317},{"NoteNumber":55,"Velocity":45,"Duration":201342,"SoundDuration":201342,"Delta":55093659},{"NoteNumber":59,"Velocity":42,"Duration":201342,"SoundDuration":201342,"Delta":55295002},{"NoteNumber":65,"Velocity":42,"Duration":201342,"SoundDuration":201342,"Delta":55496344},{"NoteNumber":43,"Velocity":55,"Duration":1610784,"SoundDuration":1610784,"Delta":55697686},{"NoteNumber":50,"Velocity":51,"Duration":1409442,"SoundDuration":1409442,"Delta":55899028},{"NoteNumber":55,"Velocity":50,"Duration":201342,"SoundDuration":201342,"Delta":56100371},{"NoteNumber":59,"Velocity":53,"Duration":201342,"SoundDuration":201342,"Delta":56301713},{"NoteNumber":65,"Velocity":55,"Duration":181208,"SoundDuration":181208,"Delta":56503055},{"NoteNumber":55,"Velocity":45,"Duration":201342,"SoundDuration":201342,"Delta":56704397},{"NoteNumber":59,"Velocity":43,"Duration":201342,"SoundDuration":201342,"Delta":56905740},{"NoteNumber":65,"Velocity":43,"Duration":201388,"SoundDuration":201388,"Delta":57107082},{"NoteNumber":48,"Velocity":55,"Duration":1627388,"SoundDuration":1627388,"Delta":57308470},{"NoteNumber":52,"Velocity":51,"Duration":1420492,"SoundDuration":1420492,"Delta":57515367},{"NoteNumber":55,"Velocity":50,"Duration":206850,"SoundDuration":206850,"Delta":57722263},{"NoteNumber":60,"Velocity":53,"Duration":201342,"SoundDuration":201342,"Delta":57929114},{"NoteNumber":64,"Velocity":56,"Duration":181208,"SoundDuration":181208,"Delta":58130456},{"NoteNumber":55,"Velocity":45,"Duration":201342,"SoundDuration":201342,"Delta":58331798},{"NoteNumber":60,"Velocity":42,"Duration":201342,"SoundDuration":201342,"Delta":58533140},{"NoteNumber":64,"Velocity":42,"Duration":201376,"SoundDuration":201376,"Delta":58734483},{"NoteNumber":48,"Velocity":55,"Duration":1616392,"SoundDuration":1616392,"Delta":58935859},{"NoteNumber":52,"Velocity":51,"Duration":1410913,"SoundDuration":1410913,"Delta":59141339},{"NoteNumber":55,"Velocity":50,"Duration":205433,"SoundDuration":205433,"Delta":59346818},{"NoteNumber":60,"Velocity":53,"Duration":200000,"SoundDuration":200000,"Delta":59552252},{"NoteNumber":64,"Velocity":55,"Duration":179999,"SoundDuration":179999,"Delta":59752252},{"NoteNumber":55,"Velocity":45,"Duration":200000,"SoundDuration":200000,"Delta":59952252},{"NoteNumber":60,"Velocity":43,"Duration":200000,"SoundDuration":200000,"Delta":60152252},{"NoteNumber":64,"Velocity":43,"Duration":199999,"SoundDuration":199999,"Delta":60352252},{"NoteNumber":48,"Velocity":51,"Duration":1590831,"SoundDuration":1590831,"Delta":60552252},{"NoteNumber":55,"Velocity":48,"Duration":1390831,"SoundDuration":1390831,"Delta":60752252},{"NoteNumber":58,"Velocity":47,"Duration":200000,"SoundDuration":200000,"Delta":60952252},{"NoteNumber":60,"Velocity":50,"Duration":199956,"SoundDuration":199956,"Delta":61152252},{"NoteNumber":64,"Velocity":53,"Duration":175324,"SoundDuration":175324,"Delta":61352209},{"NoteNumber":58,"Velocity":41,"Duration":198675,"SoundDuration":198675,"Delta":61547046},{"NoteNumber":60,"Velocity":40,"Duration":198675,"SoundDuration":198675,"Delta":61745722},{"NoteNumber":64,"Velocity":40,"Duration":198686,"SoundDuration":198686,"Delta":61944397},{"NoteNumber":48,"Velocity":52,"Duration":1613783,"SoundDuration":1613783,"Delta":62143084},{"NoteNumber":55,"Velocity":48,"Duration":1413783,"SoundDuration":1413783,"Delta":62343084},{"NoteNumber":58,"Velocity":47,"Duration":200000,"SoundDuration":200000,"Delta":62543084},{"NoteNumber":60,"Velocity":50,"Duration":199956,"SoundDuration":199956,"Delta":62743084},{"NoteNumber":64,"Velocity":52,"Duration":175324,"SoundDuration":175324,"Delta":62943041},{"NoteNumber":58,"Velocity":42,"Duration":200000,"SoundDuration":200000,"Delta":63137889},{"NoteNumber":60,"Velocity":40,"Duration":200158,"SoundDuration":200158,"Delta":63337889},{"NoteNumber":64,"Velocity":40,"Duration":218819,"SoundDuration":218819,"Delta":63538047},{"NoteNumber":41,"Velocity":51,"Duration":1584313,"SoundDuration":1584313,"Delta":63756867},{"NoteNumber":53,"Velocity":48,"Duration":1384313,"SoundDuration":1384313,"Delta":63956867},{"NoteNumber":57,"Velocity":47,"Duration":200000,"SoundDuration":200000,"Delta":64156867},{"NoteNumber":60,"Velocity":50,"Duration":199967,"SoundDuration":199967,"Delta":64356867},{"NoteNumber":64,"Velocity":53,"Duration":176470,"SoundDuration":176470,"Delta":64556835},{"NoteNumber":57,"Velocity":41,"Duration":196078,"SoundDuration":196078,"Delta":64752913},{"NoteNumber":60,"Velocity":40,"Duration":196078,"SoundDuration":196078,"Delta":64948992},{"NoteNumber":64,"Velocity":40,"Duration":196111,"SoundDuration":196111,"Delta":65145070},{"NoteNumber":41,"Velocity":52,"Duration":1607966,"SoundDuration":1607966,"Delta":65341181},{"NoteNumber":53,"Velocity":48,"Duration":1407966,"SoundDuration":1407966,"Delta":65541181},{"NoteNumber":57,"Velocity":47,"Duration":200000,"SoundDuration":200000,"Delta":65741181},{"NoteNumber":60,"Velocity":50,"Duration":199978,"SoundDuration":199978,"Delta":65941181},{"NoteNumber":64,"Velocity":52,"Duration":177631,"SoundDuration":177631,"Delta":66141159},{"NoteNumber":57,"Velocity":42,"Duration":197368,"SoundDuration":197368,"Delta":66338528},{"NoteNumber":60,"Velocity":40,"Duration":197522,"SoundDuration":197522,"Delta":66535896},{"NoteNumber":64,"Velocity":40,"Duration":215729,"SoundDuration":215729,"Delta":66733419},{"NoteNumber":42,"Velocity":55,"Duration":1621696,"SoundDuration":1621696,"Delta":66949148},{"NoteNumber":48,"Velocity":51,"Duration":1417614,"SoundDuration":1417614,"Delta":67153230},{"NoteNumber":57,"Velocity":50,"Duration":204081,"SoundDuration":204081,"Delta":67357312},{"NoteNumber":60,"Velocity":53,"Duration":204058,"SoundDuration":204058,"Delta":67561393},{"NoteNumber":63,"Velocity":56,"Duration":181208,"SoundDuration":181208,"Delta":67765452},{"NoteNumber":57,"Velocity":45,"Duration":201342,"SoundDuration":201342,"Delta":67966794},{"NoteNumber":60,"Velocity":42,"Duration":201342,"SoundDuration":201342,"Delta":68168137},{"NoteNumber":63,"Velocity":42,"Duration":201365,"SoundDuration":201365,"Delta":68369479},{"NoteNumber":42,"Velocity":55,"Duration":1650646,"SoundDuration":1650646,"Delta":68570844},{"NoteNumber":48,"Velocity":51,"Duration":1446564,"SoundDuration":1446564,"Delta":68774926},{"NoteNumber":57,"Velocity":50,"Duration":204081,"SoundDuration":204081,"Delta":68979008},{"NoteNumber":60,"Velocity":53,"Duration":204047,"SoundDuration":204047,"Delta":69183089},{"NoteNumber":63,"Velocity":55,"Duration":180000,"SoundDuration":180000,"Delta":69387137},{"NoteNumber":57,"Velocity":45,"Duration":200000,"SoundDuration":200000,"Delta":69587137},{"NoteNumber":60,"Velocity":43,"Duration":200286,"SoundDuration":200286,"Delta":69787137},{"NoteNumber":63,"Velocity":43,"Duration":234066,"SoundDuration":234066,"Delta":69987423},{"NoteNumber":44,"Velocity":51,"Duration":1576937,"SoundDuration":1576937,"Delta":70221490},{"NoteNumber":53,"Velocity":48,"Duration":1379568,"SoundDuration":1379568,"Delta":70418859},{"NoteNumber":59,"Velocity":47,"Duration":197368,"SoundDuration":197368,"Delta":70616227},{"NoteNumber":60,"Velocity":50,"Duration":197368,"SoundDuration":197368,"Delta":70813596},{"NoteNumber":62,"Velocity":53,"Duration":177631,"SoundDuration":177631,"Delta":71010964},{"NoteNumber":59,"Velocity":41,"Duration":192307,"SoundDuration":192307,"Delta":71208290},{"NoteNumber":60,"Velocity":40,"Duration":192417,"SoundDuration":192417,"Delta":71400598},{"NoteNumber":62,"Velocity":40,"Duration":205411,"SoundDuration":205411,"Delta":71593016},{"NoteNumber":44,"Velocity":52,"Duration":1578077,"SoundDuration":1578077,"Delta":71798428},{"NoteNumber":53,"Velocity":48,"Duration":1380708,"SoundDuration":1380708,"Delta":71995796},{"NoteNumber":59,"Velocity":47,"Duration":197368,"SoundDuration":197368,"Delta":72193165},{"NoteNumber":60,"Velocity":50,"Duration":197368,"SoundDuration":197368,"Delta":72390533},{"NoteNumber":62,"Velocity":52,"Duration":177631,"SoundDuration":177631,"Delta":72587902},{"NoteNumber":59,"Velocity":42,"Duration":193548,"SoundDuration":193548,"Delta":72785238},{"NoteNumber":60,"Velocity":40,"Duration":193636,"SoundDuration":193636,"Delta":72978787},{"NoteNumber":62,"Velocity":40,"Duration":204081,"SoundDuration":204081,"Delta":73172423},{"NoteNumber":43,"Velocity":55,"Duration":1599076,"SoundDuration":1599076,"Delta":73376505},{"NoteNumber":53,"Velocity":51,"Duration":1394994,"SoundDuration":1394994,"Delta":73580587},{"NoteNumber":55,"Velocity":50,"Duration":204025,"SoundDuration":204025,"Delta":73784668},{"NoteNumber":59,"Velocity":53,"Duration":197368,"SoundDuration":197368,"Delta":73988694},{"NoteNumber":62,"Velocity":56,"Duration":177631,"SoundDuration":177631,"Delta":74186063},{"NoteNumber":55,"Velocity":45,"Duration":197368,"SoundDuration":197368,"Delta":74383431},{"NoteNumber":59,"Velocity":42,"Duration":197368,"SoundDuration":197368,"Delta":74580800},{"NoteNumber":62,"Velocity":42,"Duration":197412,"SoundDuration":197412,"Delta":74778168},{"NoteNumber":43,"Velocity":55,"Duration":1605904,"SoundDuration":1605904,"Delta":74975581},{"NoteNumber":53,"Velocity":51,"Duration":1403201,"SoundDuration":1403201,"Delta":75178284},{"NoteNumber":55,"Velocity":50,"Duration":202658,"SoundDuration":202658,"Delta":75380987},{"NoteNumber":59,"Velocity":53,"Duration":197368,"SoundDuration":197368,"Delta":75583645},{"NoteNumber":62,"Velocity":55,"Duration":177631,"SoundDuration":177631,"Delta":75781013},{"NoteNumber":55,"Velocity":45,"Duration":197368,"SoundDuration":197368,"Delta":75978382},{"NoteNumber":59,"Velocity":43,"Duration":197459,"SoundDuration":197459,"Delta":76175750},{"NoteNumber":62,"Velocity":43,"Duration":208274,"SoundDuration":208274,"Delta":76373210},{"NoteNumber":43,"Velocity":55,"Duration":1594842,"SoundDuration":1594842,"Delta":76581485},{"NoteNumber":52,"Velocity":51,"Duration":1393500,"SoundDuration":1393500,"Delta":76782827},{"NoteNumber":55,"Velocity":50,"Duration":201342,"SoundDuration":201342,"Delta":76984170},{"NoteNumber":60,"Velocity":53,"Duration":201309,"SoundDuration":201309,"Delta":77185512},{"NoteNumber":64,"Velocity":56,"Duration":177631,"SoundDuration":177631,"Delta":77386821},{"NoteNumber":55,"Velocity":45,"Duration":197368,"SoundDuration":197368,"Delta":77584190},{"NoteNumber":60,"Velocity":42,"Duration":197368,"SoundDuration":197368,"Delta":77781558},{"NoteNumber":64,"Velocity":42,"Duration":197401,"SoundDuration":197401,"Delta":77978927},{"NoteNumber":43,"Velocity":55,"Duration":1589649,"SoundDuration":1589649,"Delta":78176328},{"NoteNumber":52,"Velocity":51,"Duration":1388307,"SoundDuration":1388307,"Delta":78377670},{"NoteNumber":55,"Velocity":50,"Duration":201342,"SoundDuration":201342,"Delta":78579013},{"NoteNumber":60,"Velocity":53,"Duration":201298,"SoundDuration":201298,"Delta":78780355},{"NoteNumber":64,"Velocity":55,"Duration":176470,"SoundDuration":176470,"Delta":78981653},{"NoteNumber":55,"Velocity":45,"Duration":196078,"SoundDuration":196078,"Delta":79177732},{"NoteNumber":60,"Velocity":43,"Duration":196078,"SoundDuration":196078,"Delta":79373810},{"NoteNumber":64,"Velocity":43,"Duration":196089,"SoundDuration":196089,"Delta":79569889},{"NoteNumber":43,"Velocity":57,"Duration":1570523,"SoundDuration":1570523,"Delta":79765978},{"NoteNumber":50,"Velocity":55,"Duration":1373154,"SoundDuration":1373154,"Delta":79963347},{"NoteNumber":55,"Velocity":53,"Duration":197368,"SoundDuration":197368,"Delta":80160715},{"NoteNumber":60,"Velocity":56,"Duration":197326,"SoundDuration":197326,"Delta":80358084},{"NoteNumber":65,"Velocity":60,"Duration":173076,"SoundDuration":173076,"Delta":80555410},{"NoteNumber":55,"Velocity":46,"Duration":192307,"SoundDuration":192307,"Delta":80747718},{"NoteNumber":60,"Velocity":45,"Duration":192405,"SoundDuration":192405,"Delta":80940025},{"NoteNumber":65,"Velocity":45,"Duration":204070,"SoundDuration":204070,"Delta":81132431},{"NoteNumber":43,"Velocity":58,"Duration":1582198,"SoundDuration":1582198,"Delta":81336502},{"NoteNumber":50,"Velocity":55,"Duration":1379528,"SoundDuration":1379528,"Delta":81539171},{"NoteNumber":55,"Velocity":53,"Duration":198675,"SoundDuration":198675,"Delta":81737846},{"NoteNumber":60,"Velocity":56,"Duration":198622,"SoundDuration":198622,"Delta":81936522},{"NoteNumber":65,"Velocity":58,"Duration":173076,"SoundDuration":173076,"Delta":82135144},{"NoteNumber":55,"Velocity":47,"Duration":192328,"SoundDuration":192328,"Delta":82327452},{"NoteNumber":60,"Velocity":45,"Duration":194882,"SoundDuration":194882,"Delta":82519780},{"NoteNumber":65,"Velocity":45,"Duration":204036,"SoundDuration":204036,"Delta":82714663},{"NoteNumber":43,"Velocity":57,"Duration":1573923,"SoundDuration":1573923,"Delta":82918700},{"NoteNumber":50,"Velocity":55,"Duration":1375247,"SoundDuration":1375247,"Delta":83117375},{"NoteNumber":55,"Velocity":53,"Duration":198675,"SoundDuration":198675,"Delta":83316051},{"NoteNumber":59,"Velocity":56,"Duration":198643,"SoundDuration":198643,"Delta":83514726},{"NoteNumber":65,"Velocity":60,"Duration":175324,"SoundDuration":175324,"Delta":83713369},{"NoteNumber":55,"Velocity":46,"Duration":194805,"SoundDuration":194805,"Delta":83908175},{"NoteNumber":59,"Velocity":45,"Duration":194805,"SoundDuration":194805,"Delta":84102980},{"NoteNumber":65,"Velocity":45,"Duration":194837,"SoundDuration":194837,"Delta":84297785},{"NoteNumber":43,"Velocity":58,"Duration":1584597,"SoundDuration":1584597,"Delta":84492623},{"NoteNumber":50,"Velocity":55,"Duration":1385921,"SoundDuration":1385921,"Delta":84691298},{"NoteNumber":55,"Velocity":53,"Duration":198675,"SoundDuration":198675,"Delta":84889974},{"NoteNumber":59,"Velocity":56,"Duration":198643,"SoundDuration":198643,"Delta":85088649},{"NoteNumber":65,"Velocity":58,"Duration":175324,"SoundDuration":175324,"Delta":85287292},{"NoteNumber":55,"Velocity":47,"Duration":194805,"SoundDuration":194805,"Delta":85482098},{"NoteNumber":59,"Velocity":45,"Duration":194894,"SoundDuration":194894,"Delta":85676903},{"NoteNumber":65,"Velocity":45,"Duration":205422,"SoundDuration":205422,"Delta":85871797},{"NoteNumber":43,"Velocity":61,"Duration":1605622,"SoundDuration":1605622,"Delta":86077220},{"NoteNumber":51,"Velocity":57,"Duration":1406947,"SoundDuration":1406947,"Delta":86275895},{"NoteNumber":57,"Velocity":56,"Duration":198675,"SoundDuration":198675,"Delta":86474571},{"NoteNumber":60,"Velocity":60,"Duration":198675,"SoundDuration":198675,"Delta":86673246},{"NoteNumber":66,"Velocity":63,"Duration":178807,"SoundDuration":178807,"Delta":86871922},{"NoteNumber":57,"Velocity":50,"Duration":204081,"SoundDuration":204081,"Delta":87070643},{"NoteNumber":60,"Velocity":47,"Duration":204081,"SoundDuration":204081,"Delta":87274724},{"NoteNumber":66,"Velocity":47,"Duration":204036,"SoundDuration":204036,"Delta":87478806},{"NoteNumber":43,"Velocity":62,"Duration":1621857,"SoundDuration":1621857,"Delta":87682843},{"NoteNumber":51,"Velocity":57,"Duration":1423182,"SoundDuration":1423182,"Delta":87881518},{"NoteNumber":57,"Velocity":56,"Duration":198675,"SoundDuration":198675,"Delta":88080194},{"NoteNumber":60,"Velocity":60,"Duration":198675,"SoundDuration":198675,"Delta":88278869},{"NoteNumber":66,"Velocity":62,"Duration":178807,"SoundDuration":178807,"Delta":88477545},{"NoteNumber":57,"Velocity":50,"Duration":205479,"SoundDuration":205479,"Delta":88676277},{"NoteNumber":60,"Velocity":48,"Duration":205578,"SoundDuration":205578,"Delta":88881756},{"NoteNumber":66,"Velocity":48,"Duration":217365,"SoundDuration":217365,"Delta":89087335},{"NoteNumber":43,"Velocity":65,"Duration":1642819,"SoundDuration":1642819,"Delta":89304701},{"NoteNumber":52,"Velocity":60,"Duration":1428534,"SoundDuration":1428534,"Delta":89518986},{"NoteNumber":55,"Velocity":58,"Duration":214166,"SoundDuration":214166,"Delta":89733272},{"NoteNumber":60,"Velocity":63,"Duration":200000,"SoundDuration":200000,"Delta":89947439},{"NoteNumber":67,"Velocity":66,"Duration":179999,"SoundDuration":179999,"Delta":90147439},{"NoteNumber":55,"Velocity":51,"Duration":200000,"SoundDuration":200000,"Delta":90347439},{"NoteNumber":60,"Velocity":50,"Duration":200000,"SoundDuration":200000,"Delta":90547439},{"NoteNumber":67,"Velocity":50,"Duration":200081,"SoundDuration":200081,"Delta":90747439},{"NoteNumber":43,"Velocity":65,"Duration":1643574,"SoundDuration":1643574,"Delta":90947520},{"NoteNumber":52,"Velocity":60,"Duration":1433784,"SoundDuration":1433784,"Delta":91157311},{"NoteNumber":55,"Velocity":58,"Duration":209708,"SoundDuration":209708,"Delta":91367101},{"NoteNumber":60,"Velocity":62,"Duration":200000,"SoundDuration":200000,"Delta":91576809},{"NoteNumber":67,"Velocity":65,"Duration":179999,"SoundDuration":179999,"Delta":91776809},{"NoteNumber":55,"Velocity":52,"Duration":200000,"SoundDuration":200000,"Delta":91976809},{"NoteNumber":60,"Velocity":50,"Duration":200119,"SoundDuration":200119,"Delta":92176809},{"NoteNumber":67,"Velocity":50,"Duration":214166,"SoundDuration":214166,"Delta":92376929},{"NoteNumber":43,"Velocity":55,"Duration":1588235,"SoundDuration":1588235,"Delta":92591095},{"NoteNumber":50,"Velocity":51,"Duration":1388235,"SoundDuration":1388235,"Delta":92791095},{"NoteNumber":55,"Velocity":50,"Duration":200000,"SoundDuration":200000,"Delta":92991095},{"NoteNumber":60,"Velocity":53,"Duration":199999,"SoundDuration":199999,"Delta":93191095},{"NoteNumber":65,"Velocity":56,"Duration":180000,"SoundDuration":180000,"Delta":93391095},{"NoteNumber":55,"Velocity":45,"Duration":196078,"SoundDuration":196078,"Delta":93591063},{"NoteNumber":60,"Velocity":42,"Duration":196078,"SoundDuration":196078,"Delta":93787141},{"NoteNumber":65,"Velocity":42,"Duration":196111,"SoundDuration":196111,"Delta":93983220},{"NoteNumber":43,"Velocity":55,"Duration":1588341,"SoundDuration":1588341,"Delta":94179331},{"NoteNumber":50,"Velocity":51,"Duration":1388341,"SoundDuration":1388341,"Delta":94379331},{"NoteNumber":55,"Velocity":50,"Duration":200000,"SoundDuration":200000,"Delta":94579331},{"NoteNumber":60,"Velocity":53,"Duration":199999,"SoundDuration":199999,"Delta":94779331},{"NoteNumber":65,"Velocity":55,"Duration":180000,"SoundDuration":180000,"Delta":94979331},{"NoteNumber":55,"Velocity":45,"Duration":196078,"SoundDuration":196078,"Delta":95179298},{"NoteNumber":60,"Velocity":43,"Duration":196078,"SoundDuration":196078,"Delta":95375377},{"NoteNumber":65,"Velocity":43,"Duration":196217,"SoundDuration":196217,"Delta":95571455},{"NoteNumber":43,"Velocity":55,"Duration":1612741,"SoundDuration":1612741,"Delta":95767673},{"NoteNumber":50,"Velocity":51,"Duration":1400081,"SoundDuration":1400081,"Delta":95980332},{"NoteNumber":55,"Velocity":50,"Duration":200000,"SoundDuration":200000,"Delta":96180332},{"NoteNumber":59,"Velocity":53,"Duration":200000,"SoundDuration":200000,"Delta":96380332},{"NoteNumber":65,"Velocity":56,"Duration":179999,"SoundDuration":179999,"Delta":96580332},{"NoteNumber":55,"Velocity":45,"Duration":200000,"SoundDuration":200000,"Delta":96780332},{"NoteNumber":59,"Velocity":42,"Duration":200000,"SoundDuration":200000,"Delta":96980332},{"NoteNumber":65,"Velocity":42,"Duration":200081,"SoundDuration":200081,"Delta":97180332},{"NoteNumber":43,"Velocity":55,"Duration":1619138,"SoundDuration":1619138,"Delta":97380414},{"NoteNumber":50,"Velocity":51,"Duration":1409418,"SoundDuration":1409418,"Delta":97590134},{"NoteNumber":55,"Velocity":50,"Duration":201342,"SoundDuration":201342,"Delta":97791476},{"NoteNumber":59,"Velocity":53,"Duration":201342,"SoundDuration":201342,"Delta":97992818},{"NoteNumber":65,"Velocity":55,"Duration":181208,"SoundDuration":181208,"Delta":98194160},{"NoteNumber":55,"Velocity":45,"Duration":201342,"SoundDuration":201342,"Delta":98395503},{"NoteNumber":59,"Velocity":43,"Duration":201342,"SoundDuration":201342,"Delta":98596845},{"NoteNumber":65,"Velocity":43,"Duration":201365,"SoundDuration":201365,"Delta":98798187},{"NoteNumber":36,"Velocity":57,"Duration":1633119,"SoundDuration":1633119,"Delta":98999552},{"NoteNumber":48,"Velocity":55,"Duration":1429038,"SoundDuration":1429038,"Delta":99203634},{"NoteNumber":55,"Velocity":53,"Duration":204081,"SoundDuration":204081,"Delta":99407716},{"NoteNumber":58,"Velocity":56,"Duration":204058,"SoundDuration":204058,"Delta":99611798},{"NoteNumber":64,"Velocity":60,"Duration":181208,"SoundDuration":181208,"Delta":99815856},{"NoteNumber":55,"Velocity":46,"Duration":201342,"SoundDuration":201342,"Delta":100017199},{"NoteNumber":58,"Velocity":45,"Duration":201437,"SoundDuration":201437,"Delta":100218541},{"NoteNumber":64,"Velocity":45,"Duration":212693,"SoundDuration":212693,"Delta":100419978},{"NoteNumber":36,"Velocity":58,"Duration":1630144,"SoundDuration":1630144,"Delta":100632672},{"NoteNumber":48,"Velocity":55,"Duration":1426062,"SoundDuration":1426062,"Delta":100836754},{"NoteNumber":55,"Velocity":53,"Duration":204081,"SoundDuration":204081,"Delta":101040836},{"NoteNumber":58,"Velocity":56,"Duration":204058,"SoundDuration":204058,"Delta":101244917},{"NoteNumber":64,"Velocity":58,"Duration":181208,"SoundDuration":181208,"Delta":101448976},{"NoteNumber":55,"Velocity":47,"Duration":201342,"SoundDuration":201342,"Delta":101650318},{"NoteNumber":58,"Velocity":45,"Duration":201412,"SoundDuration":201412,"Delta":101851661},{"NoteNumber":64,"Velocity":45,"Duration":209742,"SoundDuration":209742,"Delta":102053073},{"NoteNumber":36,"Velocity":55,"Duration":3332615,"SoundDuration":3332615,"Delta":102262816},{"NoteNumber":48,"Velocity":51,"Duration":3128474,"SoundDuration":3128474,"Delta":102465197},{"NoteNumber":53,"Velocity":50,"Duration":204081,"SoundDuration":204081,"Delta":102669279},{"NoteNumber":57,"Velocity":53,"Duration":198675,"SoundDuration":198675,"Delta":102873361},{"NoteNumber":60,"Velocity":55,"Duration":199576,"SoundDuration":199576,"Delta":103072036},{"NoteNumber":65,"Velocity":53,"Duration":204081,"SoundDuration":204081,"Delta":103271613},{"NoteNumber":60,"Velocity":53,"Duration":204081,"SoundDuration":204081,"Delta":103475694},{"NoteNumber":57,"Velocity":53,"Duration":204081,"SoundDuration":204081,"Delta":103679776},{"NoteNumber":60,"Velocity":55,"Duration":197368,"SoundDuration":197368,"Delta":103883858},{"NoteNumber":57,"Velocity":50,"Duration":204081,"SoundDuration":204081,"Delta":104081226},{"NoteNumber":53,"Velocity":47,"Duration":204081,"SoundDuration":204081,"Delta":104285308},{"NoteNumber":57,"Velocity":46,"Duration":204081,"SoundDuration":204081,"Delta":104489390},{"NoteNumber":53,"Velocity":46,"Duration":211267,"SoundDuration":211267,"Delta":104693472},{"NoteNumber":50,"Velocity":42,"Duration":211267,"SoundDuration":211267,"Delta":104904739},{"NoteNumber":53,"Velocity":43,"Duration":225564,"SoundDuration":225564,"Delta":105116007},{"NoteNumber":50,"Velocity":38,"Duration":252100,"SoundDuration":252100,"Delta":105341571},{"NoteNumber":36,"Velocity":55,"Duration":4042304,"SoundDuration":4042304,"Delta":105595432},{"NoteNumber":50,"Velocity":51,"Duration":3828829,"SoundDuration":3828829,"Delta":105804939},{"NoteNumber":67,"Velocity":50,"Duration":211267,"SoundDuration":211267,"Delta":106016206},{"NoteNumber":71,"Velocity":53,"Duration":211267,"SoundDuration":211267,"Delta":106227474},{"NoteNumber":74,"Velocity":55,"Duration":211267,"SoundDuration":211267,"Delta":106438741},{"NoteNumber":77,"Velocity":60,"Duration":211267,"SoundDuration":211267,"Delta":106650009},{"NoteNumber":74,"Velocity":55,"Duration":211267,"SoundDuration":211267,"Delta":106861276},{"NoteNumber":71,"Velocity":53,"Duration":211267,"SoundDuration":211267,"Delta":107072544},{"NoteNumber":74,"Velocity":56,"Duration":236220,"SoundDuration":236220,"Delta":107283811},{"NoteNumber":71,"Velocity":53,"Duration":236220,"SoundDuration":236220,"Delta":107520032},{"NoteNumber":67,"Velocity":56,"Duration":236220,"SoundDuration":236220,"Delta":107756252},{"NoteNumber":71,"Velocity":53,"Duration":236220,"SoundDuration":236220,"Delta":107992473},{"NoteNumber":62,"Velocity":55,"Duration":283612,"SoundDuration":283612,"Delta":108228693},{"NoteNumber":65,"Velocity":50,"Duration":307894,"SoundDuration":307894,"Delta":108512306},{"NoteNumber":64,"Velocity":50,"Duration":337377,"SoundDuration":337377,"Delta":108820201},{"NoteNumber":62,"Velocity":50,"Duration":476190,"SoundDuration":476190,"Delta":109157578},{"NoteNumber":72,"Velocity":50,"Duration":5714286,"SoundDuration":5714286,"Delta":109637736},{"NoteNumber":67,"Velocity":50,"Duration":5714286,"SoundDuration":5714286,"Delta":109637736},{"NoteNumber":64,"Velocity":50,"Duration":5714286,"SoundDuration":5714286,"Delta":109637736},{"NoteNumber":36,"Velocity":53,"Duration":5714286,"SoundDuration":5714286,"Delta":109637736},{"NoteNumber":48,"Velocity":53,"Duration":5714286,"SoundDuration":5714286,"Delta":109637736},{"NoteNumber":60,"Velocity":53,"Duration":480691,"SoundDuration":480691,"Delta":117733508},{"NoteNumber":62,"Velocity":54,"Duration":480692,"SoundDuration":480692,"Delta":118214200},{"NoteNumber":64,"Velocity":56,"Duration":480692,"SoundDuration":480692,"Delta":118694892},{"NoteNumber":65,"Velocity":60,"Duration":719999,"SoundDuration":719999,"Delta":119175584},{"NoteNumber":67,"Velocity":58,"Duration":111940,"SoundDuration":111940,"Delta":119895584},{"NoteNumber":65,"Velocity":58,"Duration":111940,"SoundDuration":111940,"Delta":120007524},{"NoteNumber":64,"Velocity":60,"Duration":436507,"SoundDuration":436507,"Delta":120119465},{"NoteNumber":69,"Velocity":60,"Duration":476190,"SoundDuration":476190,"Delta":120595655},{"NoteNumber":62,"Velocity":56,"Duration":447154,"SoundDuration":447154,"Delta":121071846},{"NoteNumber":67,"Velocity":60,"Duration":708661,"SoundDuration":708661,"Delta":121559651},{"NoteNumber":69,"Velocity":59,"Duration":236220,"SoundDuration":236220,"Delta":122268312},{"NoteNumber":67,"Velocity":59,"Duration":236220,"SoundDuration":236220,"Delta":122504533},{"NoteNumber":65,"Velocity":59,"Duration":236220,"SoundDuration":236220,"Delta":122740753},{"NoteNumber":64,"Velocity":58,"Duration":236220,"SoundDuration":236220,"Delta":122976974},{"NoteNumber":65,"Velocity":58,"Duration":243902,"SoundDuration":243902,"Delta":123213194},{"NoteNumber":67,"Velocity":53,"Duration":472441,"SoundDuration":472441,"Delta":123457097},{"NoteNumber":64,"Velocity":58,"Duration":236220,"SoundDuration":236220,"Delta":123457097},{"NoteNumber":62,"Velocity":57,"Duration":236220,"SoundDuration":236220,"Delta":123693317},{"NoteNumber":69,"Velocity":54,"Duration":472441,"SoundDuration":472441,"Delta":123929538},{"NoteNumber":60,"Velocity":57,"Duration":236220,"SoundDuration":236220,"Delta":123929538},{"NoteNumber":62,"Velocity":56,"Duration":236220,"SoundDuration":236220,"Delta":124165758},{"NoteNumber":71,"Velocity":55,"Duration":487804,"SoundDuration":487804,"Delta":124401979},{"NoteNumber":60,"Velocity":56,"Duration":243902,"SoundDuration":243902,"Delta":124401979},{"NoteNumber":59,"Velocity":56,"Duration":243902,"SoundDuration":243902,"Delta":124645881},{"NoteNumber":72,"Velocity":60,"Duration":708661,"SoundDuration":708661,"Delta":124889784},{"NoteNumber":57,"Velocity":56,"Duration":472441,"SoundDuration":472441,"Delta":124889784},{"NoteNumber":66,"Velocity":56,"Duration":460101,"SoundDuration":460101,"Delta":125362225},{"NoteNumber":74,"Velocity":57,"Duration":111940,"SoundDuration":111940,"Delta":125598445},{"NoteNumber":72,"Velocity":57,"Duration":111940,"SoundDuration":111940,"Delta":125710385},{"NoteNumber":71,"Velocity":57,"Duration":433070,"SoundDuration":433070,"Delta":125822326},{"NoteNumber":67,"Velocity":60,"Duration":1428753,"SoundDuration":1428753,"Delta":125822326},{"NoteNumber":76,"Velocity":60,"Duration":472441,"SoundDuration":472441,"Delta":126294767},{"NoteNumber":69,"Velocity":56,"Duration":443548,"SoundDuration":443548,"Delta":126767208},{"NoteNumber":74,"Velocity":60,"Duration":703125,"SoundDuration":703125,"Delta":127251079},{"NoteNumber":66,"Velocity":57,"Duration":234375,"SoundDuration":234375,"Delta":127251079},{"NoteNumber":64,"Velocity":57,"Duration":234375,"SoundDuration":234375,"Delta":127485454},{"NoteNumber":66,"Velocity":57,"Duration":429687,"SoundDuration":429687,"Delta":127719829},{"NoteNumber":76,"Velocity":57,"Duration":234374,"SoundDuration":234374,"Delta":127954204},{"NoteNumber":74,"Velocity":57,"Duration":234375,"SoundDuration":234375,"Delta":128188579},{"NoteNumber":62,"Velocity":57,"Duration":468750,"SoundDuration":468750,"Delta":128188579},{"NoteNumber":72,"Velocity":56,"Duration":234375,"SoundDuration":234375,"Delta":128422954},{"NoteNumber":71,"Velocity":55,"Duration":180000,"SoundDuration":180000,"Delta":128657329},{"NoteNumber":67,"Velocity":59,"Duration":479999,"SoundDuration":479999,"Delta":128657329},{"NoteNumber":67,"Velocity":55,"Duration":239999,"SoundDuration":239999,"Delta":128897329},{"NoteNumber":69,"Velocity":56,"Duration":236220,"SoundDuration":236220,"Delta":129137329},{"NoteNumber":65,"Velocity":58,"Duration":472441,"SoundDuration":472441,"Delta":129137329},{"NoteNumber":55,"Velocity":50,"Duration":472441,"SoundDuration":472441,"Delta":129137329},{"NoteNumber":71,"Velocity":57,"Duration":236220,"SoundDuration":236220,"Delta":129373549},{"NoteNumber":72,"Velocity":57,"Duration":234375,"SoundDuration":234375,"Delta":129609770},{"NoteNumber":64,"Velocity":57,"Duration":468750,"SoundDuration":468750,"Delta":129609770},{"NoteNumber":57,"Velocity":52,"Duration":468750,"SoundDuration":468750,"Delta":129609770},{"NoteNumber":71,"Velocity":53,"Duration":234375,"SoundDuration":234375,"Delta":129844145},{"NoteNumber":72,"Velocity":54,"Duration":234375,"SoundDuration":234375,"Delta":130078520},{"NoteNumber":62,"Velocity":56,"Duration":468750,"SoundDuration":468750,"Delta":130078520},{"NoteNumber":59,"Velocity":55,"Duration":468750,"SoundDuration":468750,"Delta":130078520},{"NoteNumber":74,"Velocity":55,"Duration":234375,"SoundDuration":234375,"Delta":130312895},{"NoteNumber":76,"Velocity":56,"Duration":234375,"SoundDuration":234375,"Delta":130547270},{"NoteNumber":60,"Velocity":55,"Duration":468750,"SoundDuration":468750,"Delta":130547270},{"NoteNumber":60,"Velocity":60,"Duration":712652,"SoundDuration":712652,"Delta":130547270},{"NoteNumber":74,"Velocity":57,"Duration":234375,"SoundDuration":234375,"Delta":130781645},{"NoteNumber":76,"Velocity":58,"Duration":243902,"SoundDuration":243902,"Delta":131016020},{"NoteNumber":78,"Velocity":59,"Duration":222222,"SoundDuration":222222,"Delta":131259922},{"NoteNumber":62,"Velocity":57,"Duration":111111,"SoundDuration":111111,"Delta":131259922},{"NoteNumber":60,"Velocity":57,"Duration":111111,"SoundDuration":111111,"Delta":131371033},{"NoteNumber":79,"Velocity":60,"Duration":468750,"SoundDuration":468750,"Delta":131482144},{"NoteNumber":59,"Velocity":57,"Duration":429687,"SoundDuration":429687,"Delta":131482144},{"NoteNumber":71,"Velocity":56,"Duration":468750,"SoundDuration":468750,"Delta":131950894},{"NoteNumber":67,"Velocity":60,"Duration":956555,"SoundDuration":956555,"Delta":131950894},{"NoteNumber":64,"Velocity":60,"Duration":468750,"SoundDuration":468750,"Delta":131950894},{"NoteNumber":72,"Velocity":60,"Duration":447154,"SoundDuration":447154,"Delta":132419644},{"NoteNumber":57,"Velocity":56,"Duration":447154,"SoundDuration":447154,"Delta":132419644},{"NoteNumber":69,"Velocity":55,"Duration":468750,"SoundDuration":468750,"Delta":132907449},{"NoteNumber":65,"Velocity":58,"Duration":234375,"SoundDuration":234375,"Delta":132907449},{"NoteNumber":62,"Velocity":60,"Duration":703125,"SoundDuration":703125,"Delta":132907449},{"NoteNumber":64,"Velocity":58,"Duration":234375,"SoundDuration":234375,"Delta":133141824},{"NoteNumber":74,"Velocity":58,"Duration":234375,"SoundDuration":234375,"Delta":133376199},{"NoteNumber":65,"Velocity":58,"Duration":1171875,"SoundDuration":1171875,"Delta":133376199},{"NoteNumber":72,"Velocity":57,"Duration":234375,"SoundDuration":234375,"Delta":133610574},{"NoteNumber":64,"Velocity":58,"Duration":234375,"SoundDuration":234375,"Delta":133610574},{"NoteNumber":71,"Velocity":56,"Duration":234375,"SoundDuration":234375,"Delta":133844949},{"NoteNumber":62,"Velocity":57,"Duration":234375,"SoundDuration":234375,"Delta":133844949},{"NoteNumber":69,"Velocity":55,"Duration":234375,"SoundDuration":234375,"Delta":134079324},{"NoteNumber":60,"Velocity":56,"Duration":234375,"SoundDuration":234375,"Delta":134079324},{"NoteNumber":67,"Velocity":54,"Duration":710685,"SoundDuration":710685,"Delta":134313699},{"NoteNumber":59,"Velocity":55,"Duration":429687,"SoundDuration":429687,"Delta":134313699},{"NoteNumber":65,"Velocity":57,"Duration":234375,"SoundDuration":234375,"Delta":134548074},{"NoteNumber":64,"Velocity":57,"Duration":483870,"SoundDuration":483870,"Delta":134782449},{"NoteNumber":60,"Velocity":60,"Duration":952620,"SoundDuration":952620,"Delta":134782449},{"NoteNumber":48,"Velocity":51,"Duration":483870,"SoundDuration":483870,"Delta":134782449},{"NoteNumber":67,"Velocity":56,"Duration":241935,"SoundDuration":241935,"Delta":135024385},{"NoteNumber":65,"Velocity":55,"Duration":234375,"SoundDuration":234375,"Delta":135266320},{"NoteNumber":62,"Velocity":57,"Duration":937500,"SoundDuration":937500,"Delta":135266320},{"NoteNumber":50,"Velocity":53,"Duration":468750,"SoundDuration":468750,"Delta":135266320},{"NoteNumber":64,"Velocity":55,"Duration":234375,"SoundDuration":234375,"Delta":135500695},{"NoteNumber":65,"Velocity":55,"Duration":234375,"SoundDuration":234375,"Delta":135735070},{"NoteNumber":58,"Velocity":58,"Duration":468750,"SoundDuration":468750,"Delta":135735070},{"NoteNumber":52,"Velocity":56,"Duration":468750,"SoundDuration":468750,"Delta":135735070},{"NoteNumber":67,"Velocity":55,"Duration":234375,"SoundDuration":234375,"Delta":135969445},{"NoteNumber":69,"Velocity":55,"Duration":234375,"SoundDuration":234375,"Delta":136203820},{"NoteNumber":60,"Velocity":56,"Duration":468750,"SoundDuration":468750,"Delta":136203820},{"NoteNumber":57,"Velocity":56,"Duration":429687,"SoundDuration":429687,"Delta":136203820},{"NoteNumber":53,"Velocity":60,"Duration":703125,"SoundDuration":703125,"Delta":136203820},{"NoteNumber":67,"Velocity":56,"Duration":234375,"SoundDuration":234375,"Delta":136438195},{"NoteNumber":69,"Velocity":55,"Duration":234375,"SoundDuration":234375,"Delta":136672570},{"NoteNumber":65,"Velocity":60,"Duration":453352,"SoundDuration":453352,"Delta":136672570},{"NoteNumber":62,"Velocity":60,"Duration":453352,"SoundDuration":453352,"Delta":136672570},{"NoteNumber":71,"Velocity":57,"Duration":218977,"SoundDuration":218977,"Delta":136906945},{"NoteNumber":55,"Velocity":57,"Duration":109488,"SoundDuration":109488,"Delta":136906945},{"NoteNumber":53,"Velocity":57,"Duration":109488,"SoundDuration":109488,"Delta":137016434},{"NoteNumber":72,"Velocity":59,"Duration":1901194,"SoundDuration":1901194,"Delta":137125923},{"NoteNumber":55,"Velocity":56,"Duration":433070,"SoundDuration":433070,"Delta":137125923},{"NoteNumber":52,"Velocity":57,"Duration":433070,"SoundDuration":433070,"Delta":137125923},{"NoteNumber":67,"Velocity":57,"Duration":236220,"SoundDuration":236220,"Delta":137362144},{"NoteNumber":65,"Velocity":57,"Duration":236220,"SoundDuration":236220,"Delta":137598364},{"NoteNumber":60,"Velocity":60,"Duration":472441,"SoundDuration":472441,"Delta":137598364},{"NoteNumber":57,"Velocity":60,"Duration":472441,"SoundDuration":472441,"Delta":137598364},{"NoteNumber":64,"Velocity":57,"Duration":236220,"SoundDuration":236220,"Delta":137834585},{"NoteNumber":65,"Velocity":57,"Duration":443548,"SoundDuration":443548,"Delta":138070805},{"NoteNumber":50,"Velocity":55,"Duration":443548,"SoundDuration":443548,"Delta":138070805},{"NoteNumber":57,"Velocity":55,"Duration":241935,"SoundDuration":241935,"Delta":138312741},{"NoteNumber":62,"Velocity":56,"Duration":472441,"SoundDuration":472441,"Delta":138554676},{"NoteNumber":59,"Velocity":56,"Duration":236220,"SoundDuration":236220,"Delta":138554676},{"NoteNumber":55,"Velocity":60,"Duration":708661,"SoundDuration":708661,"Delta":138554676},{"NoteNumber":60,"Velocity":58,"Duration":236220,"SoundDuration":236220,"Delta":138790897},{"NoteNumber":71,"Velocity":57,"Duration":923569,"SoundDuration":923569,"Delta":139027117},{"NoteNumber":67,"Velocity":62,"Duration":1868451,"SoundDuration":1868451,"Delta":139027117},{"NoteNumber":62,"Velocity":59,"Duration":923569,"SoundDuration":923569,"Delta":139027117},{"NoteNumber":57,"Velocity":59,"Duration":236220,"SoundDuration":236220,"Delta":139263338},{"NoteNumber":55,"Velocity":58,"Duration":225563,"SoundDuration":225563,"Delta":139499558},{"NoteNumber":53,"Velocity":57,"Duration":225564,"SoundDuration":225564,"Delta":139725122},{"NoteNumber":55,"Velocity":60,"Duration":944882,"SoundDuration":944882,"Delta":139950686},{"NoteNumber":52,"Velocity":56,"Duration":177165,"SoundDuration":177165,"Delta":139950686},{"NoteNumber":53,"Velocity":57,"Duration":236220,"SoundDuration":236220,"Delta":140186907},{"NoteNumber":72,"Velocity":60,"Duration":472441,"SoundDuration":472441,"Delta":140423127},{"NoteNumber":52,"Velocity":56,"Duration":236220,"SoundDuration":236220,"Delta":140423127},{"NoteNumber":50,"Velocity":55,"Duration":236220,"SoundDuration":236220,"Delta":140659348},{"NoteNumber":74,"Velocity":63,"Duration":472441,"SoundDuration":472441,"Delta":140895568},{"NoteNumber":48,"Velocity":54,"Duration":177165,"SoundDuration":177165,"Delta":140895568},{"NoteNumber":50,"Velocity":57,"Duration":236220,"SoundDuration":236220,"Delta":141131789},{"NoteNumber":76,"Velocity":64,"Duration":483870,"SoundDuration":483870,"Delta":141368009},{"NoteNumber":55,"Velocity":53,"Duration":483870,"SoundDuration":483870,"Delta":141368009},{"NoteNumber":48,"Velocity":56,"Duration":241935,"SoundDuration":241935,"Delta":141368009},{"NoteNumber":47,"Velocity":55,"Duration":241935,"SoundDuration":241935,"Delta":141609945},{"NoteNumber":77,"Velocity":69,"Duration":708661,"SoundDuration":708661,"Delta":141851880},{"NoteNumber":57,"Velocity":54,"Duration":472441,"SoundDuration":472441,"Delta":141851880},{"NoteNumber":45,"Velocity":54,"Duration":433070,"SoundDuration":433070,"Delta":141851880},{"NoteNumber":59,"Velocity":55,"Duration":460101,"SoundDuration":460101,"Delta":142324321},{"NoteNumber":50,"Velocity":57,"Duration":460101,"SoundDuration":460101,"Delta":142324321},{"NoteNumber":79,"Velocity":66,"Duration":111940,"SoundDuration":111940,"Delta":142560542},{"NoteNumber":77,"Velocity":66,"Duration":111940,"SoundDuration":111940,"Delta":142672482},{"NoteNumber":76,"Velocity":66,"Duration":429687,"SoundDuration":429687,"Delta":142784422},{"NoteNumber":60,"Velocity":60,"Duration":703125,"SoundDuration":703125,"Delta":142784422},{"NoteNumber":57,"Velocity":60,"Duration":468750,"SoundDuration":468750,"Delta":142784422},{"NoteNumber":81,"Velocity":69,"Duration":468750,"SoundDuration":468750,"Delta":143253172},{"NoteNumber":54,"Velocity":57,"Duration":468750,"SoundDuration":468750,"Delta":143253172},{"NoteNumber":62,"Velocity":58,"Duration":117187,"SoundDuration":117187,"Delta":143487547},{"NoteNumber":60,"Velocity":58,"Duration":117187,"SoundDuration":117187,"Delta":143604735},{"NoteNumber":74,"Velocity":64,"Duration":442288,"SoundDuration":442288,"Delta":143721922},{"NoteNumber":59,"Velocity":58,"Duration":442288,"SoundDuration":442288,"Delta":143721922},{"NoteNumber":55,"Velocity":58,"Duration":240675,"SoundDuration":240675,"Delta":143721922},{"NoteNumber":57,"Velocity":58,"Duration":241935,"SoundDuration":241935,"Delta":143962598},{"NoteNumber":79,"Velocity":69,"Duration":708661,"SoundDuration":708661,"Delta":144204533},{"NoteNumber":64,"Velocity":60,"Duration":472441,"SoundDuration":472441,"Delta":144204533},{"NoteNumber":58,"Velocity":60,"Duration":236220,"SoundDuration":236220,"Delta":144204533},{"NoteNumber":55,"Velocity":58,"Duration":236220,"SoundDuration":236220,"Delta":144440754},{"NoteNumber":57,"Velocity":56,"Duration":433070,"SoundDuration":433070,"Delta":144676974},{"NoteNumber":49,"Velocity":56,"Duration":472441,"SoundDuration":472441,"Delta":144676974},{"NoteNumber":81,"Velocity":67,"Duration":236220,"SoundDuration":236220,"Delta":144913195},{"NoteNumber":79,"Velocity":66,"Duration":227272,"SoundDuration":227272,"Delta":145149415},{"NoteNumber":62,"Velocity":60,"Duration":698447,"SoundDuration":698447,"Delta":145149415},{"NoteNumber":50,"Velocity":57,"Duration":454545,"SoundDuration":454545,"Delta":145149415},{"NoteNumber":77,"Velocity":64,"Duration":227272,"SoundDuration":227272,"Delta":145376688},{"NoteNumber":76,"Velocity":63,"Duration":447154,"SoundDuration":447154,"Delta":145603961},{"NoteNumber":57,"Velocity":58,"Duration":960246,"SoundDuration":960246,"Delta":145603961},{"NoteNumber":64,"Velocity":57,"Duration":243902,"SoundDuration":243902,"Delta":145847863},{"NoteNumber":81,"Velocity":70,"Duration":708661,"SoundDuration":708661,"Delta":146091766},{"NoteNumber":62,"Velocity":56,"Duration":236220,"SoundDuration":236220,"Delta":146091766},{"NoteNumber":60,"Velocity":56,"Duration":236220,"SoundDuration":236220,"Delta":146327986},{"NoteNumber":59,"Velocity":55,"Duration":472441,"SoundDuration":472441,"Delta":146564207},{"NoteNumber":52,"Velocity":56,"Duration":941649,"SoundDuration":941649,"Delta":146564207},{"NoteNumber":83,"Velocity":68,"Duration":236220,"SoundDuration":236220,"Delta":146800427},{"NoteNumber":81,"Velocity":67,"Duration":227272,"SoundDuration":227272,"Delta":147036648},{"NoteNumber":64,"Velocity":60,"Duration":1414090,"SoundDuration":1414090,"Delta":147036648},{"NoteNumber":79,"Velocity":66,"Duration":241935,"SoundDuration":241935,"Delta":147263921},{"NoteNumber":77,"Velocity":65,"Duration":1889764,"SoundDuration":1889764,"Delta":147505856},{"NoteNumber":57,"Velocity":56,"Duration":236220,"SoundDuration":236220,"Delta":147505856},{"NoteNumber":59,"Velocity":57,"Duration":236220,"SoundDuration":236220,"Delta":147742077},{"NoteNumber":67,"Velocity":51,"Duration":472441,"SoundDuration":472441,"Delta":147978297},{"NoteNumber":60,"Velocity":58,"Duration":236220,"SoundDuration":236220,"Delta":147978297},{"NoteNumber":62,"Velocity":59,"Duration":236220,"SoundDuration":236220,"Delta":148214518},{"NoteNumber":69,"Velocity":53,"Duration":472441,"SoundDuration":472441,"Delta":148450738},{"NoteNumber":62,"Velocity":60,"Duration":944882,"SoundDuration":944882,"Delta":148450738},{"NoteNumber":60,"Velocity":60,"Duration":236220,"SoundDuration":236220,"Delta":148450738},{"NoteNumber":59,"Velocity":57,"Duration":236220,"SoundDuration":236220,"Delta":148686959},{"NoteNumber":71,"Velocity":56,"Duration":472441,"SoundDuration":472441,"Delta":148923179},{"NoteNumber":57,"Velocity":56,"Duration":236220,"SoundDuration":236220,"Delta":148923179},{"NoteNumber":55,"Velocity":55,"Duration":236220,"SoundDuration":236220,"Delta":149159400},{"NoteNumber":76,"Velocity":60,"Duration":708661,"SoundDuration":708661,"Delta":149395620},{"NoteNumber":72,"Velocity":60,"Duration":708661,"SoundDuration":708661,"Delta":149395620},{"NoteNumber":60,"Velocity":60,"Duration":472440,"SoundDuration":472440,"Delta":149395620},{"NoteNumber":59,"Velocity":58,"Duration":236220,"SoundDuration":236220,"Delta":149631841},{"NoteNumber":60,"Velocity":60,"Duration":236220,"SoundDuration":236220,"Delta":149868061},{"NoteNumber":78,"Velocity":57,"Duration":223880,"SoundDuration":223880,"Delta":150104282},{"NoteNumber":74,"Velocity":57,"Duration":111940,"SoundDuration":111940,"Delta":150104282},{"NoteNumber":57,"Velocity":57,"Duration":167910,"SoundDuration":167910,"Delta":150104282},{"NoteNumber":72,"Velocity":57,"Duration":111940,"SoundDuration":111940,"Delta":150216222},{"NoteNumber":79,"Velocity":63,"Duration":1899591,"SoundDuration":1899591,"Delta":150328162},{"NoteNumber":71,"Velocity":57,"Duration":433070,"SoundDuration":433070,"Delta":150328162},{"NoteNumber":64,"Velocity":58,"Duration":236220,"SoundDuration":236220,"Delta":150328162},{"NoteNumber":62,"Velocity":58,"Duration":236220,"SoundDuration":236220,"Delta":150564383},{"NoteNumber":76,"Velocity":60,"Duration":470595,"SoundDuration":470595,"Delta":150800603},{"NoteNumber":60,"Velocity":57,"Duration":236220,"SoundDuration":236220,"Delta":150800603},{"NoteNumber":59,"Velocity":57,"Duration":234375,"SoundDuration":234375,"Delta":151036824},{"NoteNumber":69,"Velocity":56,"Duration":447154,"SoundDuration":447154,"Delta":151271199},{"NoteNumber":60,"Velocity":60,"Duration":182926,"SoundDuration":182926,"Delta":151271199},{"NoteNumber":57,"Velocity":54,"Duration":243902,"SoundDuration":243902,"Delta":151515101},{"NoteNumber":74,"Velocity":60,"Duration":694598,"SoundDuration":694598,"Delta":151759004},{"NoteNumber":59,"Velocity":56,"Duration":234375,"SoundDuration":234375,"Delta":151759004},{"NoteNumber":60,"Velocity":58,"Duration":234375,"SoundDuration":234375,"Delta":151993379},{"NoteNumber":78,"Velocity":63,"Duration":915550,"SoundDuration":915550,"Delta":152227754},{"NoteNumber":62,"Velocity":60,"Duration":225848,"SoundDuration":225848,"Delta":152227754},{"NoteNumber":76,"Velocity":57,"Duration":227851,"SoundDuration":227851,"Delta":152453602},{"NoteNumber":60,"Velocity":59,"Duration":227851,"SoundDuration":227851,"Delta":152453602},{"NoteNumber":74,"Velocity":56,"Duration":229888,"SoundDuration":229888,"Delta":152681453},{"NoteNumber":59,"Velocity":58,"Duration":229888,"SoundDuration":229888,"Delta":152681453},{"NoteNumber":72,"Velocity":55,"Duration":231961,"SoundDuration":231961,"Delta":152911342},{"NoteNumber":57,"Velocity":57,"Duration":231961,"SoundDuration":231961,"Delta":152911342},{"NoteNumber":79,"Velocity":60,"Duration":227272,"SoundDuration":227272,"Delta":153143304},{"NoteNumber":71,"Velocity":54,"Duration":456280,"SoundDuration":456280,"Delta":153143304},{"NoteNumber":55,"Velocity":56,"Duration":919608,"SoundDuration":919608,"Delta":153143304},{"NoteNumber":77,"Velocity":59,"Duration":229007,"SoundDuration":229007,"Delta":153370577},{"NoteNumber":76,"Velocity":58,"Duration":230769,"SoundDuration":230769,"Delta":153599584},{"NoteNumber":43,"Velocity":54,"Duration":463327,"SoundDuration":463327,"Delta":153599584},{"NoteNumber":74,"Velocity":57,"Duration":232558,"SoundDuration":232558,"Delta":153830354},{"NoteNumber":72,"Velocity":56,"Duration":234375,"SoundDuration":234375,"Delta":154062912},{"NoteNumber":45,"Velocity":55,"Duration":468750,"SoundDuration":468750,"Delta":154062912},{"NoteNumber":74,"Velocity":57,"Duration":234375,"SoundDuration":234375,"Delta":154297287},{"NoteNumber":72,"Velocity":57,"Duration":240000,"SoundDuration":240000,"Delta":154531662},{"NoteNumber":62,"Velocity":51,"Duration":479999,"SoundDuration":479999,"Delta":154531662},{"NoteNumber":47,"Velocity":55,"Duration":479999,"SoundDuration":479999,"Delta":154531662},{"NoteNumber":71,"Velocity":57,"Duration":239999,"SoundDuration":239999,"Delta":154771662},{"NoteNumber":69,"Velocity":57,"Duration":234375,"SoundDuration":234375,"Delta":155011662},{"NoteNumber":64,"Velocity":52,"Duration":468750,"SoundDuration":468750,"Delta":155011662},{"NoteNumber":48,"Velocity":60,"Duration":703125,"SoundDuration":703125,"Delta":155011662},{"NoteNumber":72,"Velocity":58,"Duration":234375,"SoundDuration":234375,"Delta":155246037},{"NoteNumber":71,"Velocity":58,"Duration":234375,"SoundDuration":234375,"Delta":155480412},{"NoteNumber":66,"Velocity":54,"Duration":458255,"SoundDuration":458255,"Delta":155480412},{"NoteNumber":69,"Velocity":57,"Duration":223880,"SoundDuration":223880,"Delta":155714787},{"NoteNumber":50,"Velocity":58,"Duration":111940,"SoundDuration":111940,"Delta":155714787},{"NoteNumber":48,"Velocity":58,"Duration":111940,"SoundDuration":111940,"Delta":155826727},{"NoteNumber":67,"Velocity":60,"Duration":703125,"SoundDuration":703125,"Delta":155938667},{"NoteNumber":47,"Velocity":58,"Duration":429687,"SoundDuration":429687,"Delta":155938667},{"NoteNumber":52,"Velocity":60,"Duration":456597,"SoundDuration":456597,"Delta":156407417},{"NoteNumber":69,"Velocity":58,"Duration":111111,"SoundDuration":111111,"Delta":156641792},{"NoteNumber":67,"Velocity":58,"Duration":111111,"SoundDuration":111111,"Delta":156752903},{"NoteNumber":66,"Velocity":58,"Duration":429687,"SoundDuration":429687,"Delta":156864015},{"NoteNumber":45,"Velocity":55,"Duration":429687,"SoundDuration":429687,"Delta":156864015},{"NoteNumber":72,"Velocity":58,"Duration":234375,"SoundDuration":234375,"Delta":157098390},{"NoteNumber":71,"Velocity":60,"Duration":468750,"SoundDuration":468750,"Delta":157332765},{"NoteNumber":50,"Velocity":60,"Duration":712652,"SoundDuration":712652,"Delta":157332765},{"NoteNumber":69,"Velocity":55,"Duration":234375,"SoundDuration":234375,"Delta":157567140},{"NoteNumber":68,"Velocity":54,"Duration":365853,"SoundDuration":365853,"Delta":157801515},{"NoteNumber":64,"Velocity":57,"Duration":447154,"SoundDuration":447154,"Delta":157801515},{"NoteNumber":52,"Velocity":60,"Duration":243902,"SoundDuration":243902,"Delta":158045417},{"NoteNumber":76,"Velocity":60,"Duration":468750,"SoundDuration":468750,"Delta":158289320},{"NoteNumber":69,"Velocity":60,"Duration":703125,"SoundDuration":703125,"Delta":158289320},{"NoteNumber":50,"Velocity":58,"Duration":234375,"SoundDuration":234375,"Delta":158289320},{"NoteNumber":48,"Velocity":57,"Duration":234375,"SoundDuration":234375,"Delta":158523695},{"NoteNumber":74,"Velocity":58,"Duration":468750,"SoundDuration":468750,"Delta":158758070},{"NoteNumber":47,"Velocity":55,"Duration":468750,"SoundDuration":468750,"Delta":158758070},{"NoteNumber":71,"Velocity":58,"Duration":234375,"SoundDuration":234375,"Delta":158992445},{"NoteNumber":72,"Velocity":56,"Duration":241935,"SoundDuration":241935,"Delta":159226820},{"NoteNumber":69,"Velocity":58,"Duration":241935,"SoundDuration":241935,"Delta":159226820},{"NoteNumber":52,"Velocity":52,"Duration":483870,"SoundDuration":483870,"Delta":159226820},{"NoteNumber":71,"Velocity":56,"Duration":241935,"SoundDuration":241935,"Delta":159468755},{"NoteNumber":67,"Velocity":58,"Duration":241935,"SoundDuration":241935,"Delta":159468755},{"NoteNumber":69,"Velocity":54,"Duration":236220,"SoundDuration":236220,"Delta":159710691},{"NoteNumber":66,"Velocity":58,"Duration":472441,"SoundDuration":472441,"Delta":159710691},{"NoteNumber":54,"Velocity":54,"Duration":472441,"SoundDuration":472441,"Delta":159710691},{"NoteNumber":68,"Velocity":54,"Duration":236220,"SoundDuration":236220,"Delta":159946911},{"NoteNumber":69,"Velocity":54,"Duration":236220,"SoundDuration":236220,"Delta":160183132},{"NoteNumber":65,"Velocity":57,"Duration":472441,"SoundDuration":472441,"Delta":160183132},{"NoteNumber":56,"Velocity":56,"Duration":472441,"SoundDuration":472441,"Delta":160183132},{"NoteNumber":50,"Velocity":58,"Duration":472441,"SoundDuration":472441,"Delta":160183132},{"NoteNumber":71,"Velocity":53,"Duration":236220,"SoundDuration":236220,"Delta":160419352},{"NoteNumber":72,"Velocity":56,"Duration":177165,"SoundDuration":177165,"Delta":160655573},{"NoteNumber":64,"Velocity":55,"Duration":472441,"SoundDuration":472441,"Delta":160655573},{"NoteNumber":57,"Velocity":60,"Duration":708661,"SoundDuration":708661,"Delta":160655573},{"NoteNumber":48,"Velocity":58,"Duration":472441,"SoundDuration":472441,"Delta":160655573},{"NoteNumber":66,"Velocity":54,"Duration":236220,"SoundDuration":236220,"Delta":160891793},{"NoteNumber":69,"Velocity":54,"Duration":236220,"SoundDuration":236220,"Delta":161128014},{"NoteNumber":62,"Velocity":54,"Duration":694476,"SoundDuration":694476,"Delta":161128014},{"NoteNumber":53,"Velocity":60,"Duration":928851,"SoundDuration":928851,"Delta":161128014},{"NoteNumber":68,"Velocity":55,"Duration":223880,"SoundDuration":223880,"Delta":161364234},{"NoteNumber":59,"Velocity":57,"Duration":111940,"SoundDuration":111940,"Delta":161364234},{"NoteNumber":57,"Velocity":57,"Duration":111940,"SoundDuration":111940,"Delta":161476174},{"NoteNumber":71,"Velocity":58,"Duration":468750,"SoundDuration":468750,"Delta":161588115},{"NoteNumber":56,"Velocity":57,"Duration":429687,"SoundDuration":429687,"Delta":161588115},{"NoteNumber":64,"Velocity":54,"Duration":234375,"SoundDuration":234375,"Delta":161822490},{"NoteNumber":69,"Velocity":56,"Duration":234375,"SoundDuration":234375,"Delta":162056865},{"NoteNumber":66,"Velocity":55,"Duration":234375,"SoundDuration":234375,"Delta":162056865},{"NoteNumber":60,"Velocity":60,"Duration":468750,"SoundDuration":468750,"Delta":162056865},{"NoteNumber":52,"Velocity":58,"Duration":956555,"SoundDuration":956555,"Delta":162056865},{"NoteNumber":71,"Velocity":56,"Duration":234375,"SoundDuration":234375,"Delta":162291240},{"NoteNumber":68,"Velocity":55,"Duration":234375,"SoundDuration":234375,"Delta":162291240},{"NoteNumber":72,"Velocity":58,"Duration":447154,"SoundDuration":447154,"Delta":162525615},{"NoteNumber":69,"Velocity":57,"Duration":243902,"SoundDuration":243902,"Delta":162525615},{"NoteNumber":54,"Velocity":56,"Duration":447154,"SoundDuration":447154,"Delta":162525615},{"NoteNumber":68,"Velocity":56,"Duration":243902,"SoundDuration":243902,"Delta":162769517},{"NoteNumber":77,"Velocity":64,"Duration":468750,"SoundDuration":468750,"Delta":163013420},{"NoteNumber":69,"Velocity":56,"Duration":234375,"SoundDuration":234375,"Delta":163013420},{"NoteNumber":59,"Velocity":60,"Duration":703125,"SoundDuration":703125,"Delta":163013420},{"NoteNumber":50,"Velocity":57,"Duration":937500,"SoundDuration":937500,"Delta":163013420},{"NoteNumber":71,"Velocity":56,"Duration":234375,"SoundDuration":234375,"Delta":163247795},{"NoteNumber":76,"Velocity":62,"Duration":468750,"SoundDuration":468750,"Delta":163482170},{"NoteNumber":68,"Velocity":58,"Duration":234375,"SoundDuration":234375,"Delta":163482170},{"NoteNumber":66,"Velocity":55,"Duration":234375,"SoundDuration":234375,"Delta":163716545},{"NoteNumber":60,"Velocity":60,"Duration":234375,"SoundDuration":234375,"Delta":163716545},{"NoteNumber":74,"Velocity":60,"Duration":937500,"SoundDuration":937500,"Delta":163950920},{"NoteNumber":68,"Velocity":55,"Duration":234375,"SoundDuration":234375,"Delta":163950920},{"NoteNumber":59,"Velocity":59,"Duration":234375,"SoundDuration":234375,"Delta":163950920},{"NoteNumber":52,"Velocity":57,"Duration":468750,"SoundDuration":468750,"Delta":163950920},{"NoteNumber":69,"Velocity":55,"Duration":234375,"SoundDuration":234375,"Delta":164185295},{"NoteNumber":57,"Velocity":57,"Duration":234375,"SoundDuration":234375,"Delta":164185295},{"NoteNumber":71,"Velocity":59,"Duration":468750,"SoundDuration":468750,"Delta":164419670},{"NoteNumber":56,"Velocity":56,"Duration":429687,"SoundDuration":429687,"Delta":164419670},{"NoteNumber":53,"Velocity":60,"Duration":468750,"SoundDuration":468750,"Delta":164419670},{"NoteNumber":72,"Velocity":58,"Duration":248179,"SoundDuration":248179,"Delta":164888420},{"NoteNumber":57,"Velocity":59,"Duration":1022768,"SoundDuration":1022768,"Delta":164888420},{"NoteNumber":52,"Velocity":55,"Duration":248179,"SoundDuration":248179,"Delta":164888420},{"NoteNumber":71,"Velocity":58,"Duration":248180,"SoundDuration":248180,"Delta":165136600},{"NoteNumber":50,"Velocity":55,"Duration":248180,"SoundDuration":248180,"Delta":165136600},{"NoteNumber":71,"Velocity":60,"Duration":98701,"SoundDuration":98701,"Delta":165384780},{"NoteNumber":52,"Velocity":58,"Duration":1052816,"SoundDuration":1052816,"Delta":165384780},{"NoteNumber":72,"Velocity":55,"Duration":98701,"SoundDuration":98701,"Delta":165483481},{"NoteNumber":71,"Velocity":60,"Duration":592208,"SoundDuration":592208,"Delta":165582183},{"NoteNumber":56,"Velocity":57,"Duration":526408,"SoundDuration":526408,"Delta":165911188},{"NoteNumber":69,"Velocity":57,"Duration":263204,"SoundDuration":263204,"Delta":166174392},{"NoteNumber":69,"Velocity":60,"Duration":961384,"SoundDuration":961384,"Delta":166437596},{"NoteNumber":57,"Velocity":60,"Duration":961384,"SoundDuration":961384,"Delta":166437596},{"NoteNumber":45,"Velocity":61,"Duration":961384,"SoundDuration":961384,"Delta":166437596},{"NoteNumber":60,"Velocity":53,"Duration":480692,"SoundDuration":480692,"Delta":166918288},{"NoteNumber":62,"Velocity":54,"Duration":480691,"SoundDuration":480691,"Delta":167398980},{"NoteNumber":64,"Velocity":55,"Duration":504201,"SoundDuration":504201,"Delta":167879672},{"NoteNumber":55,"Velocity":52,"Duration":504201,"SoundDuration":504201,"Delta":167879672},{"NoteNumber":65,"Velocity":60,"Duration":719999,"SoundDuration":719999,"Delta":168383873},{"NoteNumber":57,"Velocity":54,"Duration":479999,"SoundDuration":479999,"Delta":168383873},{"NoteNumber":59,"Velocity":56,"Duration":467272,"SoundDuration":467272,"Delta":168863873},{"NoteNumber":67,"Velocity":58,"Duration":113636,"SoundDuration":113636,"Delta":169103873},{"NoteNumber":65,"Velocity":58,"Duration":113636,"SoundDuration":113636,"Delta":169217509},{"NoteNumber":64,"Velocity":58,"Duration":436507,"SoundDuration":436507,"Delta":169331146},{"NoteNumber":60,"Velocity":60,"Duration":714285,"SoundDuration":714285,"Delta":169331146},{"NoteNumber":69,"Velocity":60,"Duration":476190,"SoundDuration":476190,"Delta":169807336},{"NoteNumber":62,"Velocity":57,"Duration":119047,"SoundDuration":119047,"Delta":170045432},{"NoteNumber":60,"Velocity":57,"Duration":119047,"SoundDuration":119047,"Delta":170164479},{"NoteNumber":62,"Velocity":56,"Duration":447154,"SoundDuration":447154,"Delta":170283527},{"NoteNumber":59,"Velocity":57,"Duration":447154,"SoundDuration":447154,"Delta":170283527},{"NoteNumber":67,"Velocity":60,"Duration":714285,"SoundDuration":714285,"Delta":170771332},{"NoteNumber":64,"Velocity":60,"Duration":476190,"SoundDuration":476190,"Delta":170771332},{"NoteNumber":43,"Velocity":52,"Duration":476190,"SoundDuration":476190,"Delta":170771332},{"NoteNumber":57,"Velocity":55,"Duration":430402,"SoundDuration":430402,"Delta":171247522},{"NoteNumber":45,"Velocity":53,"Duration":468864,"SoundDuration":468864,"Delta":171247522},{"NoteNumber":69,"Velocity":57,"Duration":230769,"SoundDuration":230769,"Delta":171485618},{"NoteNumber":67,"Velocity":57,"Duration":230769,"SoundDuration":230769,"Delta":171716387},{"NoteNumber":62,"Velocity":60,"Duration":950862,"SoundDuration":950862,"Delta":171716387},{"NoteNumber":47,"Velocity":55,"Duration":474671,"SoundDuration":474671,"Delta":171716387},{"NoteNumber":65,"Velocity":57,"Duration":243902,"SoundDuration":243902,"Delta":171947156},{"NoteNumber":64,"Velocity":57,"Duration":436507,"SoundDuration":436507,"Delta":172191059},{"NoteNumber":48,"Velocity":60,"Duration":714285,"SoundDuration":714285,"Delta":172191059},{"NoteNumber":67,"Velocity":53,"Duration":476190,"SoundDuration":476190,"Delta":172667249},{"NoteNumber":64,"Velocity":56,"Duration":476190,"SoundDuration":476190,"Delta":172667249},{"NoteNumber":55,"Velocity":57,"Duration":476190,"SoundDuration":476190,"Delta":172667249},{"NoteNumber":50,"Velocity":57,"Duration":119047,"SoundDuration":119047,"Delta":172905344},{"NoteNumber":48,"Velocity":57,"Duration":119047,"SoundDuration":119047,"Delta":173024392},{"NoteNumber":69,"Velocity":54,"Duration":476190,"SoundDuration":476190,"Delta":173143440},{"NoteNumber":66,"Velocity":56,"Duration":476190,"SoundDuration":476190,"Delta":173143440},{"NoteNumber":62,"Velocity":60,"Duration":967994,"SoundDuration":967994,"Delta":173143440},{"NoteNumber":47,"Velocity":57,"Duration":436507,"SoundDuration":436507,"Delta":173143440},{"NoteNumber":71,"Velocity":55,"Duration":491803,"SoundDuration":491803,"Delta":173619630},{"NoteNumber":67,"Velocity":60,"Duration":848946,"SoundDuration":848946,"Delta":173619630},{"NoteNumber":52,"Velocity":60,"Duration":491803,"SoundDuration":491803,"Delta":173619630},{"NoteNumber":72,"Velocity":60,"Duration":714285,"SoundDuration":714285,"Delta":174111434},{"NoteNumber":60,"Velocity":57,"Duration":436507,"SoundDuration":436507,"Delta":174111434},{"NoteNumber":45,"Velocity":56,"Duration":436507,"SoundDuration":436507,"Delta":174111434},{"NoteNumber":66,"Velocity":58,"Duration":465367,"SoundDuration":465367,"Delta":174587624},{"NoteNumber":57,"Velocity":57,"Duration":465367,"SoundDuration":465367,"Delta":174587624},{"NoteNumber":50,"Velocity":60,"Duration":709270,"SoundDuration":709270,"Delta":174587624},{"NoteNumber":74,"Velocity":57,"Duration":113636,"SoundDuration":113636,"Delta":174825719},{"NoteNumber":72,"Velocity":57,"Duration":113636,"SoundDuration":113636,"Delta":174939356},{"NoteNumber":71,"Velocity":57,"Duration":447154,"SoundDuration":447154,"Delta":175052992},{"NoteNumber":68,"Velocity":58,"Duration":487805,"SoundDuration":487805,"Delta":175052992},{"NoteNumber":64,"Velocity":60,"Duration":963995,"SoundDuration":963995,"Delta":175052992},{"NoteNumber":52,"Velocity":61,"Duration":243902,"SoundDuration":243902,"Delta":175296895},{"NoteNumber":72,"Velocity":53,"Duration":476190,"SoundDuration":476190,"Delta":175540797},{"NoteNumber":69,"Velocity":61,"Duration":952381,"SoundDuration":952381,"Delta":175540797},{"NoteNumber":50,"Velocity":60,"Duration":238095,"SoundDuration":238095,"Delta":175540797},{"NoteNumber":48,"Velocity":59,"Duration":238095,"SoundDuration":238095,"Delta":175778892},{"NoteNumber":74,"Velocity":56,"Duration":476190,"SoundDuration":476190,"Delta":176016988},{"NoteNumber":62,"Velocity":57,"Duration":476190,"SoundDuration":476190,"Delta":176016988},{"NoteNumber":47,"Velocity":58,"Duration":436507,"SoundDuration":436507,"Delta":176016988},{"NoteNumber":76,"Velocity":59,"Duration":488095,"SoundDuration":488095,"Delta":176493178},{"NoteNumber":67,"Velocity":57,"Duration":488095,"SoundDuration":488095,"Delta":176493178},{"NoteNumber":46,"Velocity":57,"Duration":488095,"SoundDuration":488095,"Delta":176493178},{"NoteNumber":77,"Velocity":64,"Duration":714285,"SoundDuration":714285,"Delta":176981273},{"NoteNumber":69,"Velocity":57,"Duration":476190,"SoundDuration":476190,"Delta":176981273},{"NoteNumber":45,"Velocity":57,"Duration":476190,"SoundDuration":476190,"Delta":176981273},{"NoteNumber":71,"Velocity":57,"Duration":467102,"SoundDuration":467102,"Delta":177457464},{"NoteNumber":43,"Velocity":56,"Duration":467102,"SoundDuration":467102,"Delta":177457464},{"NoteNumber":79,"Velocity":60,"Duration":114503,"SoundDuration":114503,"Delta":177695559},{"NoteNumber":77,"Velocity":60,"Duration":114503,"SoundDuration":114503,"Delta":177810063},{"NoteNumber":76,"Velocity":60,"Duration":447154,"SoundDuration":447154,"Delta":177924567},{"NoteNumber":72,"Velocity":60,"Duration":725900,"SoundDuration":725900,"Delta":177924567},{"NoteNumber":45,"Velocity":56,"Duration":365853,"SoundDuration":365853,"Delta":177924567},{"NoteNumber":81,"Velocity":68,"Duration":476190,"SoundDuration":476190,"Delta":178412372},{"NoteNumber":57,"Velocity":51,"Duration":476190,"SoundDuration":476190,"Delta":178412372},{"NoteNumber":54,"Velocity":60,"Duration":476190,"SoundDuration":476190,"Delta":178412372},{"NoteNumber":74,"Velocity":58,"Duration":119047,"SoundDuration":119047,"Delta":178650467},{"NoteNumber":72,"Velocity":58,"Duration":119047,"SoundDuration":119047,"Delta":178769515},{"NoteNumber":74,"Velocity":60,"Duration":436507,"SoundDuration":436507,"Delta":178888562},{"NoteNumber":71,"Velocity":58,"Duration":436507,"SoundDuration":436507,"Delta":178888562},{"NoteNumber":59,"Velocity":53,"Duration":476190,"SoundDuration":476190,"Delta":178888562},{"NoteNumber":55,"Velocity":60,"Duration":476190,"SoundDuration":476190,"Delta":178888562},{"NoteNumber":79,"Velocity":66,"Duration":714285,"SoundDuration":714285,"Delta":179364753},{"NoteNumber":76,"Velocity":60,"Duration":476190,"SoundDuration":476190,"Delta":179364753},{"NoteNumber":61,"Velocity":55,"Duration":476190,"SoundDuration":476190,"Delta":179364753},{"NoteNumber":52,"Velocity":57,"Duration":476190,"SoundDuration":476190,"Delta":179364753},{"NoteNumber":69,"Velocity":58,"Duration":436507,"SoundDuration":436507,"Delta":179840943},{"NoteNumber":62,"Velocity":60,"Duration":703463,"SoundDuration":703463,"Delta":179840943},{"NoteNumber":50,"Velocity":57,"Duration":892857,"SoundDuration":892857,"Delta":179840943},{"NoteNumber":81,"Velocity":66,"Duration":238095,"SoundDuration":238095,"Delta":180079039},{"NoteNumber":79,"Velocity":64,"Duration":227272,"SoundDuration":227272,"Delta":180317134},{"NoteNumber":74,"Velocity":60,"Duration":692640,"SoundDuration":692640,"Delta":180317134},{"NoteNumber":77,"Velocity":63,"Duration":227272,"SoundDuration":227272,"Delta":180544407},{"NoteNumber":64,"Velocity":58,"Duration":113636,"SoundDuration":113636,"Delta":180544407},{"NoteNumber":62,"Velocity":58,"Duration":113636,"SoundDuration":113636,"Delta":180658043},{"NoteNumber":76,"Velocity":61,"Duration":436507,"SoundDuration":436507,"Delta":180771679},{"NoteNumber":60,"Velocity":58,"Duration":436507,"SoundDuration":436507,"Delta":180771679},{"NoteNumber":52,"Velocity":56,"Duration":476190,"SoundDuration":476190,"Delta":180771679},{"NoteNumber":76,"Velocity":57,"Duration":238095,"SoundDuration":238095,"Delta":181009775},{"NoteNumber":81,"Velocity":67,"Duration":476190,"SoundDuration":476190,"Delta":181247870},{"NoteNumber":74,"Velocity":56,"Duration":238095,"SoundDuration":238095,"Delta":181247870},{"NoteNumber":65,"Velocity":60,"Duration":476190,"SoundDuration":476190,"Delta":181247870},{"NoteNumber":53,"Velocity":56,"Duration":476190,"SoundDuration":476190,"Delta":181247870},{"NoteNumber":72,"Velocity":55,"Duration":238095,"SoundDuration":238095,"Delta":181485965},{"NoteNumber":74,"Velocity":60,"Duration":450819,"SoundDuration":450819,"Delta":181724060},{"NoteNumber":71,"Velocity":54,"Duration":450819,"SoundDuration":450819,"Delta":181724060},{"NoteNumber":59,"Velocity":54,"Duration":450819,"SoundDuration":450819,"Delta":181724060},{"NoteNumber":55,"Velocity":60,"Duration":737705,"SoundDuration":737705,"Delta":181724060},{"NoteNumber":82,"Velocity":67,"Duration":491803,"SoundDuration":491803,"Delta":182215864},{"NoteNumber":79,"Velocity":65,"Duration":491803,"SoundDuration":491803,"Delta":182215864},{"NoteNumber":64,"Velocity":60,"Duration":729898,"SoundDuration":729898,"Delta":182215864},{"NoteNumber":57,"Velocity":57,"Duration":122950,"SoundDuration":122950,"Delta":182461766},{"NoteNumber":55,"Velocity":57,"Duration":122950,"SoundDuration":122950,"Delta":182584716},{"NoteNumber":81,"Velocity":67,"Duration":476190,"SoundDuration":476190,"Delta":182707667},{"NoteNumber":73,"Velocity":58,"Duration":476190,"SoundDuration":476190,"Delta":182707667},{"NoteNumber":53,"Velocity":57,"Duration":436507,"SoundDuration":436507,"Delta":182707667},{"NoteNumber":65,"Velocity":61,"Duration":238095,"SoundDuration":238095,"Delta":182945763},{"NoteNumber":79,"Velocity":64,"Duration":229007,"SoundDuration":229007,"Delta":183183858},{"NoteNumber":74,"Velocity":58,"Duration":458015,"SoundDuration":458015,"Delta":183183858},{"NoteNumber":64,"Velocity":59,"Duration":229007,"SoundDuration":229007,"Delta":183183858},{"NoteNumber":58,"Velocity":60,"Duration":458015,"SoundDuration":458015,"Delta":183183858},{"NoteNumber":77,"Velocity":61,"Duration":229007,"SoundDuration":229007,"Delta":183412866},{"NoteNumber":62,"Velocity":58,"Duration":229007,"SoundDuration":229007,"Delta":183412866},{"NoteNumber":79,"Velocity":64,"Duration":238095,"SoundDuration":238095,"Delta":183641873},{"NoteNumber":76,"Velocity":60,"Duration":436507,"SoundDuration":436507,"Delta":183641873},{"NoteNumber":61,"Velocity":56,"Duration":476190,"SoundDuration":476190,"Delta":183641873},{"NoteNumber":52,"Velocity":55,"Duration":436507,"SoundDuration":436507,"Delta":183641873},{"NoteNumber":77,"Velocity":61,"Duration":238095,"SoundDuration":238095,"Delta":183879969},{"NoteNumber":79,"Velocity":64,"Duration":238095,"SoundDuration":238095,"Delta":184118064},{"NoteNumber":73,"Velocity":56,"Duration":476190,"SoundDuration":476190,"Delta":184118064},{"NoteNumber":57,"Velocity":60,"Duration":714285,"SoundDuration":714285,"Delta":184118064},{"NoteNumber":76,"Velocity":60,"Duration":238095,"SoundDuration":238095,"Delta":184356159},{"NoteNumber":77,"Velocity":64,"Duration":238095,"SoundDuration":238095,"Delta":184594254},{"NoteNumber":74,"Velocity":56,"Duration":476190,"SoundDuration":476190,"Delta":184594254},{"NoteNumber":79,"Velocity":60,"Duration":238095,"SoundDuration":238095,"Delta":184832350},{"NoteNumber":58,"Velocity":58,"Duration":238095,"SoundDuration":238095,"Delta":184832350},{"NoteNumber":79,"Velocity":64,"Duration":61983,"SoundDuration":61983,"Delta":185070445},{"NoteNumber":76,"Velocity":56,"Duration":495868,"SoundDuration":495868,"Delta":185070445},{"NoteNumber":57,"Velocity":58,"Duration":247933,"SoundDuration":247933,"Delta":185070445},{"NoteNumber":81,"Velocity":55,"Duration":61983,"SoundDuration":61983,"Delta":185132428},{"NoteNumber":79,"Velocity":55,"Duration":61983,"SoundDuration":61983,"Delta":185194412},{"NoteNumber":77,"Velocity":60,"Duration":123967,"SoundDuration":123967,"Delta":185318379},{"NoteNumber":55,"Velocity":57,"Duration":247934,"SoundDuration":247934,"Delta":185318379},{"NoteNumber":79,"Velocity":60,"Duration":123966,"SoundDuration":123966,"Delta":185442346},{"NoteNumber":81,"Velocity":67,"Duration":178571,"SoundDuration":178571,"Delta":185566313},{"NoteNumber":69,"Velocity":58,"Duration":476190,"SoundDuration":476190,"Delta":185566313},{"NoteNumber":53,"Velocity":58,"Duration":238095,"SoundDuration":238095,"Delta":185566313},{"NoteNumber":73,"Velocity":60,"Duration":238095,"SoundDuration":238095,"Delta":185804408},{"NoteNumber":52,"Velocity":55,"Duration":238095,"SoundDuration":238095,"Delta":185804408},{"NoteNumber":74,"Velocity":60,"Duration":238095,"SoundDuration":238095,"Delta":186042503},{"NoteNumber":57,"Velocity":53,"Duration":486029,"SoundDuration":486029,"Delta":186042503},{"NoteNumber":53,"Velocity":58,"Duration":178571,"SoundDuration":178571,"Delta":186042503},{"NoteNumber":79,"Velocity":60,"Duration":247933,"SoundDuration":247933,"Delta":186280599},{"NoteNumber":50,"Velocity":55,"Duration":247933,"SoundDuration":247933,"Delta":186280599},{"NoteNumber":76,"Velocity":64,"Duration":92975,"SoundDuration":92975,"Delta":186528533},{"NoteNumber":59,"Velocity":54,"Duration":495868,"SoundDuration":495868,"Delta":186528533},{"NoteNumber":55,"Velocity":59,"Duration":495868,"SoundDuration":495868,"Delta":186528533},{"NoteNumber":77,"Velocity":55,"Duration":92975,"SoundDuration":92975,"Delta":186621508},{"NoteNumber":76,"Velocity":60,"Duration":557851,"SoundDuration":557851,"Delta":186714483},{"NoteNumber":64,"Velocity":52,"Duration":495868,"SoundDuration":495868,"Delta":187024401},{"NoteNumber":61,"Velocity":55,"Duration":495868,"SoundDuration":495868,"Delta":187024401},{"NoteNumber":57,"Velocity":59,"Duration":495868,"SoundDuration":495868,"Delta":187024401},{"NoteNumber":74,"Velocity":60,"Duration":247933,"SoundDuration":247933,"Delta":187272335},{"NoteNumber":74,"Velocity":61,"Duration":495868,"SoundDuration":495868,"Delta":187520269},{"NoteNumber":66,"Velocity":53,"Duration":495868,"SoundDuration":495868,"Delta":187520269},{"NoteNumber":62,"Velocity":60,"Duration":743802,"SoundDuration":743802,"Delta":187520269},{"NoteNumber":50,"Velocity":56,"Duration":2191736,"SoundDuration":2191736,"Delta":187520269},{"NoteNumber":67,"Velocity":55,"Duration":495868,"SoundDuration":495868,"Delta":188016137},{"NoteNumber":64,"Velocity":57,"Duration":123966,"SoundDuration":123966,"Delta":188264071},{"NoteNumber":62,"Velocity":57,"Duration":123966,"SoundDuration":123966,"Delta":188388038},{"NoteNumber":69,"Velocity":60,"Duration":719999,"SoundDuration":719999,"Delta":188512005},{"NoteNumber":60,"Velocity":57,"Duration":439999,"SoundDuration":439999,"Delta":188512005},{"NoteNumber":66,"Velocity":60,"Duration":480000,"SoundDuration":480000,"Delta":188992005},{"NoteNumber":71,"Velocity":58,"Duration":120000,"SoundDuration":120000,"Delta":189232005},{"NoteNumber":69,"Velocity":58,"Duration":120000,"SoundDuration":120000,"Delta":189352005},{"NoteNumber":67,"Velocity":58,"Duration":439999,"SoundDuration":439999,"Delta":189472005},{"NoteNumber":59,"Velocity":54,"Duration":439999,"SoundDuration":439999,"Delta":189472005},{"NoteNumber":52,"Velocity":57,"Duration":239999,"SoundDuration":239999,"Delta":189712005},{"NoteNumber":72,"Velocity":60,"Duration":480000,"SoundDuration":480000,"Delta":189952005},{"NoteNumber":64,"Velocity":60,"Duration":719999,"SoundDuration":719999,"Delta":189952005},{"NoteNumber":50,"Velocity":57,"Duration":240000,"SoundDuration":240000,"Delta":189952005},{"NoteNumber":48,"Velocity":56,"Duration":240000,"SoundDuration":240000,"Delta":190192005},{"NoteNumber":66,"Velocity":55,"Duration":235999,"SoundDuration":235999,"Delta":190432005},{"NoteNumber":47,"Velocity":56,"Duration":239999,"SoundDuration":239999,"Delta":190432005},{"NoteNumber":66,"Velocity":63,"Duration":258620,"SoundDuration":258620,"Delta":190672005},{"NoteNumber":45,"Velocity":55,"Duration":258620,"SoundDuration":258620,"Delta":190672005},{"NoteNumber":71,"Velocity":60,"Duration":725806,"SoundDuration":725806,"Delta":190930625},{"NoteNumber":64,"Velocity":63,"Duration":241935,"SoundDuration":241935,"Delta":190930625},{"NoteNumber":43,"Velocity":55,"Duration":241935,"SoundDuration":241935,"Delta":190930625},{"NoteNumber":62,"Velocity":62,"Duration":241935,"SoundDuration":241935,"Delta":191172561},{"NoteNumber":42,"Velocity":54,"Duration":241935,"SoundDuration":241935,"Delta":191172561},{"NoteNumber":60,"Velocity":60,"Duration":2152620,"SoundDuration":2152620,"Delta":191414496},{"NoteNumber":40,"Velocity":54,"Duration":443548,"SoundDuration":443548,"Delta":191414496},{"NoteNumber":72,"Velocity":57,"Duration":241935,"SoundDuration":241935,"Delta":191656432},{"NoteNumber":71,"Velocity":57,"Duration":234375,"SoundDuration":234375,"Delta":191898367},{"NoteNumber":52,"Velocity":52,"Duration":468750,"SoundDuration":468750,"Delta":191898367},{"NoteNumber":69,"Velocity":56,"Duration":234375,"SoundDuration":234375,"Delta":192132742},{"NoteNumber":67,"Velocity":56,"Duration":240000,"SoundDuration":240000,"Delta":192367117},{"NoteNumber":54,"Velocity":54,"Duration":479999,"SoundDuration":479999,"Delta":192367117},{"NoteNumber":66,"Velocity":55,"Duration":239999,"SoundDuration":239999,"Delta":192607117},{"NoteNumber":67,"Velocity":51,"Duration":480000,"SoundDuration":480000,"Delta":192847117},{"NoteNumber":64,"Velocity":54,"Duration":240000,"SoundDuration":240000,"Delta":192847117},{"NoteNumber":55,"Velocity":56,"Duration":960000,"SoundDuration":960000,"Delta":192847117},{"NoteNumber":62,"Velocity":54,"Duration":240000,"SoundDuration":240000,"Delta":193087117},{"NoteNumber":69,"Velocity":53,"Duration":479999,"SoundDuration":479999,"Delta":193327117},{"NoteNumber":64,"Velocity":57,"Duration":972100,"SoundDuration":972100,"Delta":193327117},{"NoteNumber":62,"Velocity":60,"Duration":240000,"SoundDuration":240000,"Delta":193567117},{"NoteNumber":71,"Velocity":55,"Duration":492100,"SoundDuration":492100,"Delta":193807117},{"NoteNumber":60,"Velocity":59,"Duration":240000,"SoundDuration":240000,"Delta":193807117},{"NoteNumber":57,"Velocity":60,"Duration":240000,"SoundDuration":240000,"Delta":193807117},{"NoteNumber":59,"Velocity":58,"Duration":252100,"SoundDuration":252100,"Delta":194047117},{"NoteNumber":55,"Velocity":58,"Duration":252100,"SoundDuration":252100,"Delta":194047117},{"NoteNumber":72,"Velocity":60,"Duration":719999,"SoundDuration":719999,"Delta":194299218},{"NoteNumber":62,"Velocity":58,"Duration":1212100,"SoundDuration":1212100,"Delta":194299218},{"NoteNumber":57,"Velocity":57,"Duration":240000,"SoundDuration":240000,"Delta":194299218},{"NoteNumber":54,"Velocity":60,"Duration":439999,"SoundDuration":439999,"Delta":194299218},{"NoteNumber":55,"Velocity":56,"Duration":239999,"SoundDuration":239999,"Delta":194539218},{"NoteNumber":57,"Velocity":58,"Duration":180000,"SoundDuration":180000,"Delta":194779218},{"NoteNumber":50,"Velocity":57,"Duration":480000,"SoundDuration":480000,"Delta":194779218},{"NoteNumber":74,"Velocity":58,"Duration":120000,"SoundDuration":120000,"Delta":195019218},{"NoteNumber":54,"Velocity":54,"Duration":240000,"SoundDuration":240000,"Delta":195019218},{"NoteNumber":72,"Velocity":58,"Duration":120000,"SoundDuration":120000,"Delta":195139218},{"NoteNumber":71,"Velocity":58,"Duration":462184,"SoundDuration":462184,"Delta":195259218},{"NoteNumber":55,"Velocity":54,"Duration":462184,"SoundDuration":462184,"Delta":195259218},{"NoteNumber":55,"Velocity":59,"Duration":3834972,"SoundDuration":3834972,"Delta":195259218},{"NoteNumber":69,"Velocity":57,"Duration":252100,"SoundDuration":252100,"Delta":195511319},{"NoteNumber":76,"Velocity":60,"Duration":476190,"SoundDuration":476190,"Delta":195763420},{"NoteNumber":67,"Velocity":57,"Duration":238095,"SoundDuration":238095,"Delta":195763420},{"NoteNumber":59,"Velocity":57,"Duration":476190,"SoundDuration":476190,"Delta":195763420},{"NoteNumber":65,"Velocity":56,"Duration":238095,"SoundDuration":238095,"Delta":196001515},{"NoteNumber":69,"Velocity":57,"Duration":436507,"SoundDuration":436507,"Delta":196239610},{"NoteNumber":64,"Velocity":56,"Duration":238095,"SoundDuration":238095,"Delta":196239610},{"NoteNumber":60,"Velocity":60,"Duration":476190,"SoundDuration":476190,"Delta":196239610},{"NoteNumber":67,"Velocity":60,"Duration":238095,"SoundDuration":238095,"Delta":196477705},{"NoteNumber":74,"Velocity":60,"Duration":714285,"SoundDuration":714285,"Delta":196715801},{"NoteNumber":65,"Velocity":56,"Duration":238095,"SoundDuration":238095,"Delta":196715801},{"NoteNumber":62,"Velocity":63,"Duration":476190,"SoundDuration":476190,"Delta":196715801},{"NoteNumber":69,"Velocity":56,"Duration":238095,"SoundDuration":238095,"Delta":196953896},{"NoteNumber":67,"Velocity":58,"Duration":1172301,"SoundDuration":1172301,"Delta":197191991},{"NoteNumber":64,"Velocity":66,"Duration":705198,"SoundDuration":705198,"Delta":197191991},{"NoteNumber":76,"Velocity":60,"Duration":238095,"SoundDuration":238095,"Delta":197430086},{"NoteNumber":74,"Velocity":57,"Duration":229007,"SoundDuration":229007,"Delta":197668182},{"NoteNumber":72,"Velocity":56,"Duration":229007,"SoundDuration":229007,"Delta":197897189},{"NoteNumber":65,"Velocity":60,"Duration":114503,"SoundDuration":114503,"Delta":197897189},{"NoteNumber":64,"Velocity":60,"Duration":114503,"SoundDuration":114503,"Delta":198011693},{"NoteNumber":71,"Velocity":55,"Duration":238095,"SoundDuration":238095,"Delta":198126197},{"NoteNumber":62,"Velocity":60,"Duration":436507,"SoundDuration":436507,"Delta":198126197},{"NoteNumber":72,"Velocity":55,"Duration":238095,"SoundDuration":238095,"Delta":198364292},{"NoteNumber":69,"Velocity":56,"Duration":238095,"SoundDuration":238095,"Delta":198364292},{"NoteNumber":74,"Velocity":57,"Duration":245901,"SoundDuration":245901,"Delta":198602388},{"NoteNumber":70,"Velocity":56,"Duration":491803,"SoundDuration":491803,"Delta":198602388},{"NoteNumber":67,"Velocity":65,"Duration":491803,"SoundDuration":491803,"Delta":198602388},{"NoteNumber":76,"Velocity":59,"Duration":245901,"SoundDuration":245901,"Delta":198848289},{"NoteNumber":77,"Velocity":61,"Duration":245901,"SoundDuration":245901,"Delta":199094191},{"NoteNumber":72,"Velocity":54,"Duration":983607,"SoundDuration":983607,"Delta":199094191},{"NoteNumber":60,"Velocity":58,"Duration":450819,"SoundDuration":450819,"Delta":199094191},{"NoteNumber":57,"Velocity":52,"Duration":983607,"SoundDuration":983607,"Delta":199094191},{"NoteNumber":79,"Velocity":61,"Duration":245901,"SoundDuration":245901,"Delta":199340093},{"NoteNumber":81,"Velocity":61,"Duration":245901,"SoundDuration":245901,"Delta":199585995},{"NoteNumber":65,"Velocity":66,"Duration":737705,"SoundDuration":737705,"Delta":199585995},{"NoteNumber":79,"Velocity":60,"Duration":245901,"SoundDuration":245901,"Delta":199831896},{"NoteNumber":77,"Velocity":60,"Duration":245901,"SoundDuration":245901,"Delta":200077798},{"NoteNumber":74,"Velocity":60,"Duration":450819,"SoundDuration":450819,"Delta":200077798},{"NoteNumber":59,"Velocity":57,"Duration":491803,"SoundDuration":491803,"Delta":200077798},{"NoteNumber":76,"Velocity":59,"Duration":245901,"SoundDuration":245901,"Delta":200323700},{"NoteNumber":67,"Velocity":62,"Duration":245901,"SoundDuration":245901,"Delta":200323700},{"NoteNumber":74,"Velocity":59,"Duration":240000,"SoundDuration":240000,"Delta":200569602},{"NoteNumber":67,"Velocity":57,"Duration":479999,"SoundDuration":479999,"Delta":200569602},{"NoteNumber":65,"Velocity":60,"Duration":240000,"SoundDuration":240000,"Delta":200569602},{"NoteNumber":60,"Velocity":57,"Duration":479999,"SoundDuration":479999,"Delta":200569602},{"NoteNumber":72,"Velocity":58,"Duration":239999,"SoundDuration":239999,"Delta":200809602},{"NoteNumber":64,"Velocity":58,"Duration":239999,"SoundDuration":239999,"Delta":200809602},{"NoteNumber":71,"Velocity":58,"Duration":975609,"SoundDuration":975609,"Delta":201049602},{"NoteNumber":67,"Velocity":60,"Duration":1463414,"SoundDuration":1463414,"Delta":201049602},{"NoteNumber":62,"Velocity":57,"Duration":975609,"SoundDuration":975609,"Delta":201049602},{"NoteNumber":53,"Velocity":58,"Duration":182926,"SoundDuration":182926,"Delta":201049602},{"NoteNumber":57,"Velocity":60,"Duration":243902,"SoundDuration":243902,"Delta":201293504},{"NoteNumber":55,"Velocity":59,"Duration":243902,"SoundDuration":243902,"Delta":201537407},{"NoteNumber":53,"Velocity":58,"Duration":243902,"SoundDuration":243902,"Delta":201781309},{"NoteNumber":72,"Velocity":57,"Duration":487805,"SoundDuration":487805,"Delta":202025212},{"NoteNumber":64,"Velocity":60,"Duration":487805,"SoundDuration":487805,"Delta":202025212},{"NoteNumber":52,"Velocity":57,"Duration":243902,"SoundDuration":243902,"Delta":202025212},{"NoteNumber":50,"Velocity":56,"Duration":243902,"SoundDuration":243902,"Delta":202269114},{"NoteNumber":74,"Velocity":57,"Duration":487805,"SoundDuration":487805,"Delta":202513017},{"NoteNumber":65,"Velocity":57,"Duration":992345,"SoundDuration":992345,"Delta":202513017},{"NoteNumber":62,"Velocity":60,"Duration":992345,"SoundDuration":992345,"Delta":202513017},{"NoteNumber":48,"Velocity":56,"Duration":243902,"SoundDuration":243902,"Delta":202513017},{"NoteNumber":47,"Velocity":55,"Duration":243902,"SoundDuration":243902,"Delta":202756919},{"NoteNumber":67,"Velocity":58,"Duration":462495,"SoundDuration":462495,"Delta":203000822},{"NoteNumber":48,"Velocity":51,"Duration":252270,"SoundDuration":252270,"Delta":203000822},{"NoteNumber":50,"Velocity":53,"Duration":252270,"SoundDuration":252270,"Delta":203253092},{"NoteNumber":72,"Velocity":60,"Duration":1120238,"SoundDuration":1120238,"Delta":203505363},{"NoteNumber":64,"Velocity":57,"Duration":560119,"SoundDuration":560119,"Delta":203505363},{"NoteNumber":55,"Velocity":58,"Duration":560119,"SoundDuration":560119,"Delta":203505363},{"NoteNumber":52,"Velocity":56,"Duration":280059,"SoundDuration":280059,"Delta":203505363},{"NoteNumber":53,"Velocity":58,"Duration":280059,"SoundDuration":280059,"Delta":203785422},{"NoteNumber":62,"Velocity":57,"Duration":1120238,"SoundDuration":1120238,"Delta":204065482},{"NoteNumber":55,"Velocity":61,"Duration":1602779,"SoundDuration":1602779,"Delta":204065482},{"NoteNumber":71,"Velocity":57,"Duration":560119,"SoundDuration":560119,"Delta":204625602},{"NoteNumber":43,"Velocity":57,"Duration":560119,"SoundDuration":560119,"Delta":204625602},{"NoteNumber":72,"Velocity":60,"Duration":1052816,"SoundDuration":1052816,"Delta":205185721},{"NoteNumber":64,"Velocity":56,"Duration":482540,"SoundDuration":482540,"Delta":205185721},{"NoteNumber":48,"Velocity":60,"Duration":20371013,"SoundDuration":20371013,"Delta":205185721},{"NoteNumber":69,"Velocity":68,"Duration":1052816,"SoundDuration":1052816,"Delta":205712129},{"NoteNumber":48,"Velocity":51,"Duration":526408,"SoundDuration":526408,"Delta":205712129},{"NoteNumber":71,"Velocity":67,"Duration":526408,"SoundDuration":526408,"Delta":206238537},{"NoteNumber":50,"Velocity":53,"Duration":526408,"SoundDuration":526408,"Delta":206238537},{"NoteNumber":70,"Velocity":67,"Duration":526407,"SoundDuration":526407,"Delta":206764945},{"NoteNumber":67,"Velocity":56,"Duration":1052815,"SoundDuration":1052815,"Delta":206764945},{"NoteNumber":52,"Velocity":55,"Duration":526407,"SoundDuration":526407,"Delta":206764945},{"NoteNumber":69,"Velocity":66,"Duration":526408,"SoundDuration":526408,"Delta":207291353},{"NoteNumber":53,"Velocity":60,"Duration":776408,"SoundDuration":776408,"Delta":207291353},{"NoteNumber":74,"Velocity":72,"Duration":1056689,"SoundDuration":1056689,"Delta":207817761},{"NoteNumber":65,"Velocity":56,"Duration":530373,"SoundDuration":530373,"Delta":207817761},{"NoteNumber":55,"Velocity":56,"Duration":140186,"SoundDuration":140186,"Delta":208067761},{"NoteNumber":53,"Velocity":56,"Duration":140186,"SoundDuration":140186,"Delta":208207948},{"NoteNumber":67,"Velocity":57,"Duration":526316,"SoundDuration":526316,"Delta":208348135},{"NoteNumber":52,"Velocity":57,"Duration":482456,"SoundDuration":482456,"Delta":208348135},{"NoteNumber":72,"Velocity":67,"Duration":526315,"SoundDuration":526315,"Delta":208874451},{"NoteNumber":69,"Velocity":57,"Duration":526315,"SoundDuration":526315,"Delta":208874451},{"NoteNumber":57,"Velocity":60,"Duration":526315,"SoundDuration":526315,"Delta":208874451},{"NoteNumber":74,"Velocity":67,"Duration":526316,"SoundDuration":526316,"Delta":209400767},{"NoteNumber":70,"Velocity":60,"Duration":778416,"SoundDuration":778416,"Delta":209400767},{"NoteNumber":50,"Velocity":55,"Duration":482456,"SoundDuration":482456,"Delta":209400767},{"NoteNumber":76,"Velocity":70,"Duration":529878,"SoundDuration":529878,"Delta":209927083},{"NoteNumber":55,"Velocity":60,"Duration":793036,"SoundDuration":793036,"Delta":209927083},{"NoteNumber":72,"Velocity":57,"Duration":138888,"SoundDuration":138888,"Delta":210179184},{"NoteNumber":70,"Velocity":57,"Duration":138888,"SoundDuration":138888,"Delta":210318072},{"NoteNumber":77,"Velocity":74,"Duration":1315789,"SoundDuration":1315789,"Delta":210456961},{"NoteNumber":69,"Velocity":57,"Duration":482456,"SoundDuration":482456,"Delta":210456961},{"NoteNumber":57,"Velocity":58,"Duration":263158,"SoundDuration":263158,"Delta":210720119},{"NoteNumber":74,"Velocity":60,"Duration":526315,"SoundDuration":526315,"Delta":210983277},{"NoteNumber":55,"Velocity":58,"Duration":263158,"SoundDuration":263158,"Delta":210983277},{"NoteNumber":53,"Velocity":57,"Duration":263157,"SoundDuration":263157,"Delta":211246435},{"NoteNumber":67,"Velocity":55,"Duration":490306,"SoundDuration":490306,"Delta":211509593},{"NoteNumber":52,"Velocity":57,"Duration":197368,"SoundDuration":197368,"Delta":211509593},{"NoteNumber":81,"Velocity":69,"Duration":272578,"SoundDuration":272578,"Delta":211772751},{"NoteNumber":50,"Velocity":56,"Duration":272578,"SoundDuration":272578,"Delta":211772751},{"NoteNumber":79,"Velocity":69,"Duration":272578,"SoundDuration":272578,"Delta":212045330},{"NoteNumber":72,"Velocity":60,"Duration":817735,"SoundDuration":817735,"Delta":212045330},{"NoteNumber":52,"Velocity":56,"Duration":272578,"SoundDuration":272578,"Delta":212045330},{"NoteNumber":77,"Velocity":68,"Duration":272578,"SoundDuration":272578,"Delta":212317908},{"NoteNumber":53,"Velocity":56,"Duration":272578,"SoundDuration":272578,"Delta":212317908},{"NoteNumber":76,"Velocity":67,"Duration":272578,"SoundDuration":272578,"Delta":212590487},{"NoteNumber":55,"Velocity":57,"Duration":272578,"SoundDuration":272578,"Delta":212590487},{"NoteNumber":77,"Velocity":69,"Duration":272578,"SoundDuration":272578,"Delta":212863065},{"NoteNumber":74,"Velocity":62,"Duration":272578,"SoundDuration":272578,"Delta":212863065},{"NoteNumber":57,"Velocity":59,"Duration":272578,"SoundDuration":272578,"Delta":212863065},{"NoteNumber":76,"Velocity":68,"Duration":272578,"SoundDuration":272578,"Delta":213135644},{"NoteNumber":72,"Velocity":62,"Duration":272578,"SoundDuration":272578,"Delta":213135644},{"NoteNumber":58,"Velocity":63,"Duration":204433,"SoundDuration":204433,"Delta":213135644},{"NoteNumber":74,"Velocity":67,"Duration":272578,"SoundDuration":272578,"Delta":213408222},{"NoteNumber":70,"Velocity":62,"Duration":272578,"SoundDuration":272578,"Delta":213408222},{"NoteNumber":55,"Velocity":60,"Duration":272578,"SoundDuration":272578,"Delta":213408222},{"NoteNumber":72,"Velocity":70,"Duration":2230958,"SoundDuration":2230958,"Delta":213680801},{"NoteNumber":69,"Velocity":61,"Duration":272578,"SoundDuration":272578,"Delta":213680801},{"NoteNumber":57,"Velocity":60,"Duration":204433,"SoundDuration":204433,"Delta":213680801},{"NoteNumber":70,"Velocity":61,"Duration":274211,"SoundDuration":274211,"Delta":213953379},{"NoteNumber":52,"Velocity":63,"Duration":274211,"SoundDuration":274211,"Delta":213953379},{"NoteNumber":69,"Velocity":61,"Duration":275858,"SoundDuration":275858,"Delta":214227590},{"NoteNumber":53,"Velocity":55,"Duration":275858,"SoundDuration":275858,"Delta":214227590},{"NoteNumber":67,"Velocity":60,"Duration":277520,"SoundDuration":277520,"Delta":214503449},{"NoteNumber":55,"Velocity":57,"Duration":277520,"SoundDuration":277520,"Delta":214503449},{"NoteNumber":65,"Velocity":60,"Duration":280059,"SoundDuration":280059,"Delta":214780970},{"NoteNumber":57,"Velocity":59,"Duration":280059,"SoundDuration":280059,"Delta":214780970},{"NoteNumber":67,"Velocity":60,"Duration":281819,"SoundDuration":281819,"Delta":215061030},{"NoteNumber":59,"Velocity":60,"Duration":281819,"SoundDuration":281819,"Delta":215061030},{"NoteNumber":65,"Velocity":59,"Duration":283577,"SoundDuration":283577,"Delta":215342849},{"NoteNumber":60,"Velocity":62,"Duration":212243,"SoundDuration":212243,"Delta":215342849},{"NoteNumber":64,"Velocity":59,"Duration":285333,"SoundDuration":285333,"Delta":215626426},{"NoteNumber":57,"Velocity":58,"Duration":285333,"SoundDuration":285333,"Delta":215626426},{"NoteNumber":62,"Velocity":59,"Duration":2000596,"SoundDuration":2000596,"Delta":215911759},{"NoteNumber":59,"Velocity":62,"Duration":2275825,"SoundDuration":2275825,"Delta":215911759},{"NoteNumber":67,"Velocity":56,"Duration":135135,"SoundDuration":135135,"Delta":216199778},{"NoteNumber":69,"Velocity":57,"Duration":135135,"SoundDuration":135135,"Delta":216334913},{"NoteNumber":71,"Velocity":57,"Duration":288461,"SoundDuration":288461,"Delta":216470048},{"NoteNumber":72,"Velocity":59,"Duration":288461,"SoundDuration":288461,"Delta":216758510},{"NoteNumber":74,"Velocity":60,"Duration":288461,"SoundDuration":288461,"Delta":217046971},{"NoteNumber":76,"Velocity":62,"Duration":288461,"SoundDuration":288461,"Delta":217335433},{"NoteNumber":77,"Velocity":63,"Duration":707921,"SoundDuration":707921,"Delta":217623894},{"NoteNumber":67,"Velocity":57,"Duration":275229,"SoundDuration":275229,"Delta":217912356},{"NoteNumber":69,"Velocity":60,"Duration":1153845,"SoundDuration":1153845,"Delta":218187585},{"NoteNumber":60,"Velocity":60,"Duration":7369149,"SoundDuration":7369149,"Delta":218187585},{"NoteNumber":72,"Velocity":55,"Duration":144230,"SoundDuration":144230,"Delta":218331816},{"NoteNumber":74,"Velocity":57,"Duration":144230,"SoundDuration":144230,"Delta":218476046},{"NoteNumber":76,"Velocity":58,"Duration":144230,"SoundDuration":144230,"Delta":218620277},{"NoteNumber":77,"Velocity":59,"Duration":288461,"SoundDuration":288461,"Delta":218764508},{"NoteNumber":79,"Velocity":62,"Duration":288461,"SoundDuration":288461,"Delta":219052969},{"NoteNumber":81,"Velocity":65,"Duration":1124806,"SoundDuration":1124806,"Delta":219341431},{"NoteNumber":77,"Velocity":57,"Duration":396510,"SoundDuration":396510,"Delta":219673216},{"NoteNumber":74,"Velocity":57,"Duration":962121,"SoundDuration":962121,"Delta":220069727},{"NoteNumber":83,"Velocity":64,"Duration":565610,"SoundDuration":565610,"Delta":220466237},{"NoteNumber":79,"Velocity":52,"Duration":4524886,"SoundDuration":4524886,"Delta":221031848},{"NoteNumber":84,"Velocity":56,"Duration":4524886,"SoundDuration":4524886,"Delta":221031848},{"NoteNumber":76,"Velocity":48,"Duration":4524886,"SoundDuration":4524886,"Delta":221031848}]}