{
  "title": "He's a Pirate",
  "artist": "Jack Sparrow",
  "durationMs": 77625,
  "midiSha256": "853c5d63d49fdfc685f4215092affa83794298347a52e328ee24fe2ee86da522",
  "midiObject": [
    {
      "NoteNumber": 62,
      "Velocity": 110,
      "Duration": 250000,
      "SoundDuration": 250000,
      "Delta": 0
    },
    {
      "NoteNumber": 62,
      "Velocity": 110,
      "Duration": 146874,
      "SoundDuration": 146874,
      "Delta": 300000
    },
    {
      "NoteNumber": 62,
      "Velocity": 110,
      "Duration": 250000,
      "SoundDuration": 250000,
      "Delta": 449999
    },
    {
      "NoteNumber": 62,
      "Velocity": 110,
      "Duration": 146874,
      "SoundDuration": 146874,
      "Delta": 750000
    },
    {
      "NoteNumber": 62,
      "Velocity": 110,
      "Duration": 250000,
      "SoundDuration": 250000,
      "Delta": 899999
    },
    {
      "NoteNumber": 62,
      "Velocity": 110,
      "Duration": 146874,
      "SoundDuration": 146874,
      "Delta": 1200000
    },
    {
      "NoteNumber": 62,
      "Velocity": 110,
      "Duration": 146875,
      "SoundDuration": 146875,
      "Delta": 1349999
    },
    {
      "NoteNumber": 62,
      "Velocity": 110,
      "Duration": 146874,
      "SoundDuration": 146874,
      "Delta": 1500000
    },
    {
      "NoteNumber": 62,
      "Velocity": 110,
      "Duration": 146874,
      "SoundDuration": 146874,
      "Delta": 1650000
    },
    {
      "NoteNumber": 62,
      "Velocity": 110,
      "Duration": 250000,
      "SoundDuration": 250000,
      "Delta": 1799999
    },
    {
      "NoteNumber": 62,
      "Velocity": 110,
      "Duration": 146874,
      "SoundDuration": 146874,
      "Delta": 2100000
    },
    {
      "NoteNumber": 62,
      "Velocity": 110,
      "Duration": 250000,
      "SoundDuration": 250000,
      "Delta": 2250000
    },
    {
      "NoteNumber": 62,
      "Velocity": 110,
      "Duration": 146875,
      "SoundDuration": 146875,
      "Delta": 2550000
    },
    {
      "NoteNumber": 62,
      "Velocity": 110,
      "Duration": 250000,
      "SoundDuration": 250000,
      "Delta": 2699999
    },
    {
      "NoteNumber": 62,
      "Velocity": 110,
      "Duration": 146875,
      "SoundDuration": 146875,
      "Delta": 3000000
    },
    {
      "NoteNumber": 62,
      "Velocity": 110,
      "Duration": 146875,
      "SoundDuration": 146875,
      "Delta": 3150000
    },
    {
      "NoteNumber": 62,
      "Velocity": 110,
      "Duration": 146875,
      "SoundDuration": 146875,
      "Delta": 3300000
    },
    {
      "NoteNumber": 62,
      "Velocity": 110,
      "Duration": 146875,
      "SoundDuration": 146875,
      "Delta": 3449999
    },
    {
      "NoteNumber": 62,
      "Velocity": 110,
      "Duration": 250000,
      "SoundDuration": 250000,
      "Delta": 3599999
    },
    {
      "NoteNumber": 26,
      "Velocity": 110,
      "Duration": 825000,
      "SoundDuration": 825000,
      "Delta": 3599999
    },
    {
      "NoteNumber": 38,
      "Velocity": 110,
      "Duration": 825000,
      "SoundDuration": 825000,
      "Delta": 3599999
    },
    {
      "NoteNumber": 62,
      "Velocity": 110,
      "Duration": 146875,
      "SoundDuration": 146875,
      "Delta": 3900000
    },
    {
      "NoteNumber": 62,
      "Velocity": 110,
      "Duration": 250000,
      "SoundDuration": 250000,
      "Delta": 4050000
    },
    {
      "NoteNumber": 62,
      "Velocity": 110,
      "Duration": 146875,
      "SoundDuration": 146875,
      "Delta": 4350000
    },
    {
      "NoteNumber": 62,
      "Velocity": 110,
      "Duration": 250000,
      "SoundDuration": 250000,
      "Delta": 4500000
    },
    {
      "NoteNumber": 26,
      "Velocity": 110,
      "Duration": 399999,
      "SoundDuration": 399999,
      "Delta": 4500000
    },
    {
      "NoteNumber": 38,
      "Velocity": 110,
      "Duration": 399999,
      "SoundDuration": 399999,
      "Delta": 4500000
    },
    {
      "NoteNumber": 62,
      "Velocity": 110,
      "Duration": 146874,
      "SoundDuration": 146874,
      "Delta": 4800000
    },
    {
      "NoteNumber": 62,
      "Velocity": 110,
      "Duration": 146874,
      "SoundDuration": 146874,
      "Delta": 4950000
    },
    {
      "NoteNumber": 26,
      "Velocity": 110,
      "Duration": 399999,
      "SoundDuration": 399999,
      "Delta": 4950000
    },
    {
      "NoteNumber": 38,
      "Velocity": 110,
      "Duration": 399999,
      "SoundDuration": 399999,
      "Delta": 4950000
    },
    {
      "NoteNumber": 57,
      "Velocity": 110,
      "Duration": 146874,
      "SoundDuration": 146874,
      "Delta": 5100000
    },
    {
      "NoteNumber": 60,
      "Velocity": 110,
      "Duration": 146874,
      "SoundDuration": 146874,
      "Delta": 5250000
    },
    {
      "NoteNumber": 53,
      "Velocity": 110,
      "Duration": 250000,
      "SoundDuration": 250000,
      "Delta": 5399999
    },
    {
      "NoteNumber": 57,
      "Velocity": 110,
      "Duration": 250000,
      "SoundDuration": 250000,
      "Delta": 5399999
    },
    {
      "NoteNumber": 62,
      "Velocity": 110,
      "Duration": 250000,
      "SoundDuration": 250000,
      "Delta": 5399999
    },
    {
      "NoteNumber": 38,
      "Velocity": 110,
      "Duration": 250000,
      "SoundDuration": 250000,
      "Delta": 5399999
    },
    {
      "NoteNumber": 50,
      "Velocity": 110,
      "Duration": 250000,
      "SoundDuration": 250000,
      "Delta": 5399999
    },
    {
      "NoteNumber": 53,
      "Velocity": 110,
      "Duration": 249999,
      "SoundDuration": 249999,
      "Delta": 5700000
    },
    {
      "NoteNumber": 57,
      "Velocity": 110,
      "Duration": 249999,
      "SoundDuration": 249999,
      "Delta": 5700000
    },
    {
      "NoteNumber": 62,
      "Velocity": 110,
      "Duration": 249999,
      "SoundDuration": 249999,
      "Delta": 5700000
    },
    {
      "NoteNumber": 38,
      "Velocity": 110,
      "Duration": 146874,
      "SoundDuration": 146874,
      "Delta": 5700000
    },
    {
      "NoteNumber": 50,
      "Velocity": 110,
      "Duration": 146874,
      "SoundDuration": 146874,
      "Delta": 5700000
    },
    {
      "NoteNumber": 38,
      "Velocity": 110,
      "Duration": 250000,
      "SoundDuration": 250000,
      "Delta": 5850000
    },
    {
      "NoteNumber": 50,
      "Velocity": 110,
      "Duration": 250000,
      "SoundDuration": 250000,
      "Delta": 5850000
    },
    {
      "NoteNumber": 53,
      "Velocity": 110,
      "Duration": 146874,
      "SoundDuration": 146874,
      "Delta": 6000000
    },
    {
      "NoteNumber": 57,
      "Velocity": 110,
      "Duration": 146874,
      "SoundDuration": 146874,
      "Delta": 6000000
    },
    {
      "NoteNumber": 62,
      "Velocity": 110,
      "Duration": 146874,
      "SoundDuration": 146874,
      "Delta": 6000000
    },
    {
      "NoteNumber": 57,
      "Velocity": 110,
      "Duration": 146874,
      "SoundDuration": 146874,
      "Delta": 6149999
    },
    {
      "NoteNumber": 60,
      "Velocity": 110,
      "Duration": 146874,
      "SoundDuration": 146874,
      "Delta": 6149999
    },
    {
      "NoteNumber": 64,
      "Velocity": 110,
      "Duration": 146874,
      "SoundDuration": 146874,
      "Delta": 6149999
    },
    {
      "NoteNumber": 36,
      "Velocity": 110,
      "Duration": 146874,
      "SoundDuration": 146874,
      "Delta": 6149999
    },
    {
      "NoteNumber": 48,
      "Velocity": 110,
      "Duration": 146874,
      "SoundDuration": 146874,
      "Delta": 6149999
    },
    {
      "NoteNumber": 58,
      "Velocity": 110,
      "Duration": 250000,
      "SoundDuration": 250000,
      "Delta": 6300000
    },
    {
      "NoteNumber": 62,
      "Velocity": 110,
      "Duration": 250000,
      "SoundDuration": 250000,
      "Delta": 6300000
    },
    {
      "NoteNumber": 65,
      "Velocity": 110,
      "Duration": 250000,
      "SoundDuration": 250000,
      "Delta": 6300000
    },
    {
      "NoteNumber": 34,
      "Velocity": 110,
      "Duration": 250000,
      "SoundDuration": 250000,
      "Delta": 6300000
    },
    {
      "NoteNumber": 46,
      "Velocity": 110,
      "Duration": 250000,
      "SoundDuration": 250000,
      "Delta": 6300000
    },
    {
      "NoteNumber": 58,
      "Velocity": 110,
      "Duration": 250000,
      "SoundDuration": 250000,
      "Delta": 6600000
    },
    {
      "NoteNumber": 62,
      "Velocity": 110,
      "Duration": 250000,
      "SoundDuration": 250000,
      "Delta": 6600000
    },
    {
      "NoteNumber": 65,
      "Velocity": 110,
      "Duration": 250000,
      "SoundDuration": 250000,
      "Delta": 6600000
    },
    {
      "NoteNumber": 34,
      "Velocity": 110,
      "Duration": 146874,
      "SoundDuration": 146874,
      "Delta": 6600000
    },
    {
      "NoteNumber": 46,
      "Velocity": 110,
      "Duration": 146874,
      "SoundDuration": 146874,
      "Delta": 6600000
    },
    {
      "NoteNumber": 34,
      "Velocity": 110,
      "Duration": 249999,
      "SoundDuration": 249999,
      "Delta": 6750000
    },
    {
      "NoteNumber": 46,
      "Velocity": 110,
      "Duration": 249999,
      "SoundDuration": 249999,
      "Delta": 6750000
    },
    {
      "NoteNumber": 58,
      "Velocity": 110,
      "Duration": 146874,
      "SoundDuration": 146874,
      "Delta": 6899999
    },
    {
      "NoteNumber": 62,
      "Velocity": 110,
      "Duration": 146874,
      "SoundDuration": 146874,
      "Delta": 6899999
    },
    {
      "NoteNumber": 65,
      "Velocity": 110,
      "Duration": 146874,
      "SoundDuration": 146874,
      "Delta": 6899999
    },
    {
      "NoteNumber": 62,
      "Velocity": 110,
      "Duration": 146874,
      "SoundDuration": 146874,
      "Delta": 7050000
    },
    {
      "NoteNumber": 67,
      "Velocity": 110,
      "Duration": 146874,
      "SoundDuration": 146874,
      "Delta": 7050000
    },
    {
      "NoteNumber": 34,
      "Velocity": 110,
      "Duration": 146874,
      "SoundDuration": 146874,
      "Delta": 7050000
    },
    {
      "NoteNumber": 46,
      "Velocity": 110,
      "Duration": 146874,
      "SoundDuration": 146874,
      "Delta": 7050000
    },
    {
      "NoteNumber": 57,
      "Velocity": 110,
      "Duration": 250000,
      "SoundDuration": 250000,
      "Delta": 7199999
    },
    {
      "NoteNumber": 60,
      "Velocity": 110,
      "Duration": 250000,
      "SoundDuration": 250000,
      "Delta": 7199999
    },
    {
      "NoteNumber": 64,
      "Velocity": 110,
      "Duration": 250000,
      "SoundDuration": 250000,
      "Delta": 7199999
    },
    {
      "NoteNumber": 33,
      "Velocity": 110,
      "Duration": 250000,
      "SoundDuration": 250000,
      "Delta": 7199999
    },
    {
      "NoteNumber": 45,
      "Velocity": 110,
      "Duration": 250000,
      "SoundDuration": 250000,
      "Delta": 7199999
    },
    {
      "NoteNumber": 57,
      "Velocity": 110,
      "Duration": 249999,
      "SoundDuration": 249999,
      "Delta": 7500000
    },
    {
      "NoteNumber": 60,
      "Velocity": 110,
      "Duration": 249999,
      "SoundDuration": 249999,
      "Delta": 7500000
    },
    {
      "NoteNumber": 64,
      "Velocity": 110,
      "Duration": 249999,
      "SoundDuration": 249999,
      "Delta": 7500000
    },
    {
      "NoteNumber": 33,
      "Velocity": 110,
      "Duration": 146874,
      "SoundDuration": 146874,
      "Delta": 7500000
    },
    {
      "NoteNumber": 45,
      "Velocity": 110,
      "Duration": 146874,
      "SoundDuration": 146874,
      "Delta": 7500000
    },
    {
      "NoteNumber": 33,
      "Velocity": 110,
      "Duration": 250000,
      "SoundDuration": 250000,
      "Delta": 7649999
    },
    {
      "NoteNumber": 45,
      "Velocity": 110,
      "Duration": 250000,
      "SoundDuration": 250000,
      "Delta": 7649999
    },
    {
      "NoteNumber": 57,
      "Velocity": 110,
      "Duration": 146874,
      "SoundDuration": 146874,
      "Delta": 7800000
    },
    {
      "NoteNumber": 62,
      "Velocity": 110,
      "Duration": 146874,
      "SoundDuration": 146874,
      "Delta": 7800000
    },
    {
      "NoteNumber": 55,
      "Velocity": 110,
      "Duration": 146874,
      "SoundDuration": 146874,
      "Delta": 7949999
    },
    {
      "NoteNumber": 60,
      "Velocity": 110,
      "Duration": 146874,
      "SoundDuration": 146874,
      "Delta": 7949999
    },
    {
      "NoteNumber": 33,
      "Velocity": 110,
      "Duration": 146874,
      "SoundDuration": 146874,
      "Delta": 7949999
    },
    {
      "NoteNumber": 45,
      "Velocity": 110,
      "Duration": 146874,
      "SoundDuration": 146874,
      "Delta": 7949999
    },
    {
      "NoteNumber": 57,
      "Velocity": 110,
      "Duration": 146874,
      "SoundDuration": 146874,
      "Delta": 8100000
    },
    {
      "NoteNumber": 60,
      "Velocity": 110,
      "Duration": 146874,
      "SoundDuration": 146874,
      "Delta": 8100000
    },
    {
      "NoteNumber": 38,
      "Velocity": 110,
      "Duration": 250000,
      "SoundDuration": 250000,
      "Delta": 8100000
    },
    {
      "NoteNumber": 50,
      "Velocity": 110,
      "Duration": 250000,
      "SoundDuration": 250000,
      "Delta": 8100000
    },
    {
      "NoteNumber": 57,
      "Velocity": 110,
      "Duration": 250000,
      "SoundDuration": 250000,
      "Delta": 8250000
    },
    {
      "NoteNumber": 62,
      "Velocity": 110,
      "Duration": 250000,
      "SoundDuration": 250000,
      "Delta": 8250000
    },
    {
      "NoteNumber": 38,
      "Velocity": 110,
      "Duration": 146874,
      "SoundDuration": 146874,
      "Delta": 8400000
    },
    {
      "NoteNumber": 50,
      "Velocity": 110,
      "Duration": 146874,
      "SoundDuration": 146874,
      "Delta": 8400000
    },
    {
      "NoteNumber": 38,
      "Velocity": 110,
      "Duration": 250000,
      "SoundDuration": 250000,
      "Delta": 8549999
    },
    {
      "NoteNumber": 50,
      "Velocity": 110,
      "Duration": 250000,
      "SoundDuration": 250000,
      "Delta": 8549999
    },
    {
      "NoteNumber": 57,
      "Velocity": 110,
      "Duration": 146874,
      "SoundDuration": 146874,
      "Delta": 8700000
    },
    {
      "NoteNumber": 60,
      "Velocity": 110,
      "Duration": 146874,
      "SoundDuration": 146874,
      "Delta": 8850000
    },
    {
      "NoteNumber": 38,
      "Velocity": 110,
      "Duration": 146874,
      "SoundDuration": 146874,
      "Delta": 8850000
    },
    {
      "NoteNumber": 50,
      "Velocity": 110,
      "Duration": 146874,
      "SoundDuration": 146874,
      "Delta": 8850000
    },
    {
      "NoteNumber": 53,
      "Velocity": 110,
      "Duration": 250000,
      "SoundDuration": 250000,
      "Delta": 9000000
    },
    {
      "NoteNumber": 58,
      "Velocity": 110,
      "Duration": 250000,
      "SoundDuration": 250000,
      "Delta": 9000000
    },
    {
      "NoteNumber": 62,
      "Velocity": 110,
      "Duration": 250000,
      "SoundDuration": 250000,
      "Delta": 9000000
    },
    {
      "NoteNumber": 34,
      "Velocity": 110,
      "Duration": 250000,
      "SoundDuration": 250000,
      "Delta": 9000000
    },
    {
      "NoteNumber": 46,
      "Velocity": 110,
      "Duration": 250000,
      "SoundDuration": 250000,
      "Delta": 9000000
    },
    {
      "NoteNumber": 53,
      "Velocity": 110,
      "Duration": 250000,
      "SoundDuration": 250000,
      "Delta": 9299999
    },
    {
      "NoteNumber": 58,
      "Velocity": 110,
      "Duration": 250000,
      "SoundDuration": 250000,
      "Delta": 9299999
    },
    {
      "NoteNumber": 62,
      "Velocity": 110,
      "Duration": 250000,
      "SoundDuration": 250000,
      "Delta": 9299999
    },
    {
      "NoteNumber": 34,
      "Velocity": 110,
      "Duration": 146874,
      "SoundDuration": 146874,
      "Delta": 9299999
    },
    {
      "NoteNumber": 46,
      "Velocity": 110,
      "Duration": 146874,
      "SoundDuration": 146874,
      "Delta": 9299999
    },
    {
      "NoteNumber": 34,
      "Velocity": 110,
      "Duration": 250000,
      "SoundDuration": 250000,
      "Delta": 9450000
    },
    {
      "NoteNumber": 46,
      "Velocity": 110,
      "Duration": 250000,
      "SoundDuration": 250000,
      "Delta": 9450000
    },
    {
      "NoteNumber": 58,
      "Velocity": 110,
      "Duration": 146875,
      "SoundDuration": 146875,
      "Delta": 9600000
    },
    {
      "NoteNumber": 62,
      "Velocity": 110,
      "Duration": 146875,
      "SoundDuration": 146875,
      "Delta": 9600000
    },
    {
      "NoteNumber": 58,
      "Velocity": 110,
      "Duration": 146874,
      "SoundDuration": 146874,
      "Delta": 9750000
    },
    {
      "NoteNumber": 64,
      "Velocity": 110,
      "Duration": 146874,
      "SoundDuration": 146874,
      "Delta": 9750000
    },
    {
      "NoteNumber": 34,
      "Velocity": 110,
      "Duration": 146874,
      "SoundDuration": 146874,
      "Delta": 9750000
    },
    {
      "NoteNumber": 46,
      "Velocity": 110,
      "Duration": 146874,
      "SoundDuration": 146874,
      "Delta": 9750000
    },
    {
      "NoteNumber": 57,
      "Velocity": 110,
      "Duration": 250000,
      "SoundDuration": 250000,
      "Delta": 9900000
    },
    {
      "NoteNumber": 60,
      "Velocity": 110,
      "Duration": 250000,
      "SoundDuration": 250000,
      "Delta": 9900000
    },
    {
      "NoteNumber": 65,
      "Velocity": 110,
      "Duration": 250000,
      "SoundDuration": 250000,
      "Delta": 9900000
    },
    {
      "NoteNumber": 29,
      "Velocity": 110,
      "Duration": 250000,
      "SoundDuration": 250000,
      "Delta": 9900000
    },
    {
      "NoteNumber": 41,
      "Velocity": 110,
      "Duration": 250000,
      "SoundDuration": 250000,
      "Delta": 9900000
    },
    {
      "NoteNumber": 57,
      "Velocity": 110,
      "Duration": 250000,
      "SoundDuration": 250000,
      "Delta": 10200000
    },
    {
      "NoteNumber": 60,
      "Velocity": 110,
      "Duration": 250000,
      "SoundDuration": 250000,
      "Delta": 10200000
    },
    {
      "NoteNumber": 65,
      "Velocity": 110,
      "Duration": 250000,
      "SoundDuration": 250000,
      "Delta": 10200000
    },
    {
      "NoteNumber": 29,
      "Velocity": 110,
      "Duration": 146875,
      "SoundDuration": 146875,
      "Delta": 10200000
    },
    {
      "NoteNumber": 41,
      "Velocity": 110,
      "Duration": 146875,
      "SoundDuration": 146875,
      "Delta": 10200000
    },
    {
      "NoteNumber": 29,
      "Velocity": 110,
      "Duration": 250000,
      "SoundDuration": 250000,
      "Delta": 10350000
    },
    {
      "NoteNumber": 41,
      "Velocity": 110,
      "Duration": 250000,
      "SoundDuration": 250000,
      "Delta": 10350000
    },
    {
      "NoteNumber": 60,
      "Velocity": 110,
      "Duration": 146874,
      "SoundDuration": 146874,
      "Delta": 10500000
    },
    {
      "NoteNumber": 65,
      "Velocity": 110,
      "Duration": 146874,
      "SoundDuration": 146874,
      "Delta": 10500000
    },
    {
      "NoteNumber": 60,
      "Velocity": 110,
      "Duration": 146874,
      "SoundDuration": 146874,
      "Delta": 10650000
    },
    {
      "NoteNumber": 67,
      "Velocity": 110,
      "Duration": 146874,
      "SoundDuration": 146874,
      "Delta": 10650000
    },
    {
      "NoteNumber": 29,
      "Velocity": 110,
      "Duration": 146874,
      "SoundDuration": 146874,
      "Delta": 10650000
    },
    {
      "NoteNumber": 41,
      "Velocity": 110,
      "Duration": 146874,
      "SoundDuration": 146874,
      "Delta": 10650000
    },
    {
      "NoteNumber": 60,
      "Velocity": 110,
      "Duration": 250000,
      "SoundDuration": 250000,
      "Delta": 10799999
    },
    {
      "NoteNumber": 64,
      "Velocity": 110,
      "Duration": 250000,
      "SoundDuration": 250000,
      "Delta": 10799999
    },
    {
      "NoteNumber": 36,
      "Velocity": 110,
      "Duration": 250000,
      "SoundDuration": 250000,
      "Delta": 10799999
    },
    {
      "NoteNumber": 48,
      "Velocity": 110,
      "Duration": 250000,
      "SoundDuration": 250000,
      "Delta": 10799999
    },
    {
      "NoteNumber": 60,
      "Velocity": 110,
      "Duration": 250000,
      "SoundDuration": 250000,
      "Delta": 11100000
    },
    {
      "NoteNumber": 64,
      "Velocity": 110,
      "Duration": 250000,
      "SoundDuration": 250000,
      "Delta": 11100000
    },
    {
      "NoteNumber": 36,
      "Velocity": 110,
      "Duration": 146875,
      "SoundDuration": 146875,
      "Delta": 11100000
    },
    {
      "NoteNumber": 48,
      "Velocity": 110,
      "Duration": 146875,
      "SoundDuration": 146875,
      "Delta": 11100000
    },
    {
      "NoteNumber": 33,
      "Velocity": 110,
      "Duration": 250000,
      "SoundDuration": 250000,
      "Delta": 11250000
    },
    {
      "NoteNumber": 45,
      "Velocity": 110,
      "Duration": 250000,
      "SoundDuration": 250000,
      "Delta": 11250000
    },
    {
      "NoteNumber": 57,
      "Velocity": 110,
      "Duration": 146874,
      "SoundDuration": 146874,
      "Delta": 11400000
    },
    {
      "NoteNumber": 62,
      "Velocity": 110,
      "Duration": 146874,
      "SoundDuration": 146874,
      "Delta": 11400000
    },
    {
      "NoteNumber": 60,
      "Velocity": 110,
      "Duration": 146875,
      "SoundDuration": 146875,
      "Delta": 11549999
    },
    {
      "NoteNumber": 33,
      "Velocity": 110,
      "Duration": 146875,
      "SoundDuration": 146875,
      "Delta": 11549999
    },
    {
      "NoteNumber": 45,
      "Velocity": 110,
      "Duration": 146875,
      "SoundDuration": 146875,
      "Delta": 11549999
    },
    {
      "NoteNumber": 53,
      "Velocity": 110,
      "Duration": 250000,
      "SoundDuration": 250000,
      "Delta": 11700000
    },
    {
      "NoteNumber": 57,
      "Velocity": 110,
      "Duration": 250000,
      "SoundDuration": 250000,
      "Delta": 11700000
    },
    {
      "NoteNumber": 62,
      "Velocity": 110,
      "Duration": 250000,
      "SoundDuration": 250000,
      "Delta": 11700000
    },
    {
      "NoteNumber": 38,
      "Velocity": 110,
      "Duration": 250000,
      "SoundDuration": 250000,
      "Delta": 11700000
    },
    {
      "NoteNumber": 50,
      "Velocity": 110,
      "Duration": 250000,
      "SoundDuration": 250000,
      "Delta": 11700000
    },
    {
      "NoteNumber": 38,
      "Velocity": 110,
      "Duration": 146874,
      "SoundDuration": 146874,
      "Delta": 12000000
    },
    {
      "NoteNumber": 50,
      "Velocity": 110,
      "Duration": 146874,
      "SoundDuration": 146874,
      "Delta": 12000000
    },
    {
      "NoteNumber": 38,
      "Velocity": 110,
      "Duration": 250000,
      "SoundDuration": 250000,
      "Delta": 12150000
    },
    {
      "NoteNumber": 50,
      "Velocity": 110,
      "Duration": 250000,
      "SoundDuration": 250000,
      "Delta": 12150000
    },
    {
      "NoteNumber": 57,
      "Velocity": 110,
      "Duration": 146875,
      "SoundDuration": 146875,
      "Delta": 12299999
    },
    {
      "NoteNumber": 60,
      "Velocity": 110,
      "Duration": 146875,
      "SoundDuration": 146875,
      "Delta": 12450000
    },
    {
      "NoteNumber": 38,
      "Velocity": 110,
      "Duration": 146875,
      "SoundDuration": 146875,
      "Delta": 12450000
    },
    {
      "NoteNumber": 50,
      "Velocity": 110,
      "Duration": 146875,
      "SoundDuration": 146875,
      "Delta": 12450000
    },
    {
      "NoteNumber": 53,
      "Velocity": 110,
      "Duration": 250000,
      "SoundDuration": 250000,
      "Delta": 12600000
    },
    {
      "NoteNumber": 57,
      "Velocity": 110,
      "Duration": 250000,
      "SoundDuration": 250000,
      "Delta": 12600000
    },
    {
      "NoteNumber": 62,
      "Velocity": 110,
      "Duration": 250000,
      "SoundDuration": 250000,
      "Delta": 12600000
    },
    {
      "NoteNumber": 38,
      "Velocity": 110,
      "Duration": 250000,
      "SoundDuration": 250000,
      "Delta": 12600000
    },
    {
      "NoteNumber": 50,
      "Velocity": 110,
      "Duration": 250000,
      "SoundDuration": 250000,
      "Delta": 12600000
    },
    {
      "NoteNumber": 53,
      "Velocity": 110,
      "Duration": 250000,
      "SoundDuration": 250000,
      "Delta": 12900000
    },
    {
      "NoteNumber": 57,
      "Velocity": 110,
      "Duration": 250000,
      "SoundDuration": 250000,
      "Delta": 12900000
    },
    {
      "NoteNumber": 62,
      "Velocity": 110,
      "Duration": 250000,
      "SoundDuration": 250000,
      "Delta": 12900000
    },
    {
      "NoteNumber": 38,
      "Velocity": 110,
      "Duration": 146874,
      "SoundDuration": 146874,
      "Delta": 12900000
    },
    {
      "NoteNumber": 50,
      "Velocity": 110,
      "Duration": 146874,
      "SoundDuration": 146874,
      "Delta": 12900000
    },
    {
      "NoteNumber": 38,
      "Velocity": 110,
      "Duration": 250000,
      "SoundDuration": 250000,
      "Delta": 13049999
    },
    {
      "NoteNumber": 50,
      "Velocity": 110,
      "Duration": 250000,
      "SoundDuration": 250000,
      "Delta": 13049999
    },
    {
      "NoteNumber": 57,
      "Velocity": 110,
      "Duration": 146875,
      "SoundDuration": 146875,
      "Delta": 13200000
    },
    {
      "NoteNumber": 62,
      "Velocity": 110,
      "Duration": 146875,
      "SoundDuration": 146875,
      "Delta": 13200000
    },
    {
      "NoteNumber": 57,
      "Velocity": 110,
      "Duration": 146875,
      "SoundDuration": 146875,
      "Delta": 13350000
    },
    {
      "NoteNumber": 65,
      "Velocity": 110,
      "Duration": 146875,
      "SoundDuration": 146875,
      "Delta": 13350000
    },
    {
      "NoteNumber": 38,
      "Velocity": 110,
      "Duration": 146875,
      "SoundDuration": 146875,
      "Delta": 13350000
    },
    {
      "NoteNumber": 50,
      "Velocity": 110,
      "Duration": 146875,
      "SoundDuration": 146875,
      "Delta": 13350000
    },
    {
      "NoteNumber": 58,
      "Velocity": 110,
      "Duration": 250000,
      "SoundDuration": 250000,
      "Delta": 13500000
    },
    {
      "NoteNumber": 62,
      "Velocity": 110,
      "Duration": 250000,
      "SoundDuration": 250000,
      "Delta": 13500000
    },
    {
      "NoteNumber": 67,
      "Velocity": 110,
      "Duration": 250000,
      "SoundDuration": 250000,
      "Delta": 13500000
    },
    {
      "NoteNumber": 34,
      "Velocity": 110,
      "Duration": 250000,
      "SoundDuration": 250000,
      "Delta": 13500000
    },
    {
      "NoteNumber": 46,
      "Velocity": 110,
      "Duration": 250000,
      "SoundDuration": 250000,
      "Delta": 13500000
    },
    {
      "NoteNumber": 58,
      "Velocity": 110,
      "Duration": 250000,
      "SoundDuration": 250000,
      "Delta": 13799999
    },
    {
      "NoteNumber": 62,
      "Velocity": 110,
      "Duration": 250000,
      "SoundDuration": 250000,
      "Delta": 13799999
    },
    {
      "NoteNumber": 67,
      "Velocity": 110,
      "Duration": 250000,
      "SoundDuration": 250000,
      "Delta": 13799999
    },
    {
      "NoteNumber": 34,
      "Velocity": 110,
      "Duration": 146875,
      "SoundDuration": 146875,
      "Delta": 13799999
    },
    {
      "NoteNumber": 46,
      "Velocity": 110,
      "Duration": 146875,
      "SoundDuration": 146875,
      "Delta": 13799999
    },
    {
      "NoteNumber": 34,
      "Velocity": 110,
      "Duration": 250000,
      "SoundDuration": 250000,
      "Delta": 13950000
    },
    {
      "NoteNumber": 46,
      "Velocity": 110,
      "Duration": 250000,
      "SoundDuration": 250000,
      "Delta": 13950000
    },
    {
      "NoteNumber": 62,
      "Velocity": 110,
      "Duration": 146875,
      "SoundDuration": 146875,
      "Delta": 14100000
    },
    {
      "NoteNumber": 67,
      "Velocity": 110,
      "Duration": 146875,
      "SoundDuration": 146875,
      "Delta": 14100000
    },
    {
      "NoteNumber": 62,
      "Velocity": 110,
      "Duration": 146874,
      "SoundDuration": 146874,
      "Delta": 14250000
    },
    {
      "NoteNumber": 69,
      "Velocity": 110,
      "Duration": 146874,
      "SoundDuration": 146874,
      "Delta": 14250000
    },
    {
      "NoteNumber": 34,
      "Velocity": 110,
      "Duration": 146874,
      "SoundDuration": 146874,
      "Delta": 14250000
    },
    {
      "NoteNumber": 46,
      "Velocity": 110,
      "Duration": 146874,
      "SoundDuration": 146874,
      "Delta": 14250000
    },
    {
      "NoteNumber": 62,
      "Velocity": 110,
      "Duration": 250000,
      "SoundDuration": 250000,
      "Delta": 14399999
    },
    {
      "NoteNumber": 67,
      "Velocity": 110,
      "Duration": 250000,
      "SoundDuration": 250000,
      "Delta": 14399999
    },
    {
      "NoteNumber": 70,
      "Velocity": 110,
      "Duration": 250000,
      "SoundDuration": 250000,
      "Delta": 14399999
    },
    {
      "NoteNumber": 31,
      "Velocity": 110,
      "Duration": 250000,
      "SoundDuration": 250000,
      "Delta": 14399999
    },
    {
      "NoteNumber": 43,
      "Velocity": 110,
      "Duration": 250000,
      "SoundDuration": 250000,
      "Delta": 14399999
    },
    {
      "NoteNumber": 62,
      "Velocity": 110,
      "Duration": 250000,
      "SoundDuration": 250000,
      "Delta": 14700000
    },
    {
      "NoteNumber": 67,
      "Velocity": 110,
      "Duration": 250000,
      "SoundDuration": 250000,
      "Delta": 14700000
    },
    {
      "NoteNumber": 70,
      "Velocity": 110,
      "Duration": 250000,
      "SoundDuration": 250000,
      "Delta": 14700000
    },
    {
      "NoteNumber": 31,
      "Velocity": 110,
      "Duration": 146875,
      "SoundDuration": 146875,
      "Delta": 14700000
    },
    {
      "NoteNumber": 43,
      "Velocity": 110,
      "Duration": 146875,
      "SoundDuration": 146875,
      "Delta": 14700000
    },
    {
      "NoteNumber": 31,
      "Velocity": 110,
      "Duration": 250000,
      "SoundDuration": 250000,
      "Delta": 14850000
    },
    {
      "NoteNumber": 43,
      "Velocity": 110,
      "Duration": 250000,
      "SoundDuration": 250000,
      "Delta": 14850000
    },
    {
      "NoteNumber": 65,
      "Velocity": 110,
      "Duration": 146874,
      "SoundDuration": 146874,
      "Delta": 15000000
    },
    {
      "NoteNumber": 69,
      "Velocity": 110,
      "Duration": 146874,
      "SoundDuration": 146874,
      "Delta": 15000000
    },
    {
      "NoteNumber": 64,
      "Velocity": 110,
      "Duration": 146875,
      "SoundDuration": 146875,
      "Delta": 15149999
    },
    {
      "NoteNumber": 67,
      "Velocity": 110,
      "Duration": 146875,
      "SoundDuration": 146875,
      "Delta": 15149999
    },
    {
      "NoteNumber": 31,
      "Velocity": 110,
      "Duration": 146875,
      "SoundDuration": 146875,
      "Delta": 15149999
    },
    {
      "NoteNumber": 43,
      "Velocity": 110,
      "Duration": 146875,
      "SoundDuration": 146875,
      "Delta": 15149999
    },
    {
      "NoteNumber": 65,
      "Velocity": 110,
      "Duration": 146875,
      "SoundDuration": 146875,
      "Delta": 15299999
    },
    {
      "NoteNumber": 69,
      "Velocity": 110,
      "Duration": 146875,
      "SoundDuration": 146875,
      "Delta": 15299999
    },
    {
      "NoteNumber": 38,
      "Velocity": 110,
      "Duration": 250000,
      "SoundDuration": 250000,
      "Delta": 15299999
    },
    {
      "NoteNumber": 50,
      "Velocity": 110,
      "Duration": 250000,
      "SoundDuration": 250000,
      "Delta": 15299999
    },
    {
      "NoteNumber": 62,
      "Velocity": 110,
      "Duration": 250000,
      "SoundDuration": 250000,
      "Delta": 15450000
    },
    {
      "NoteNumber": 38,
      "Velocity": 110,
      "Duration": 146874,
      "SoundDuration": 146874,
      "Delta": 15600000
    },
    {
      "NoteNumber": 50,
      "Velocity": 110,
      "Duration": 146874,
      "SoundDuration": 146874,
      "Delta": 15600000
    },
    {
      "NoteNumber": 38,
      "Velocity": 110,
      "Duration": 250000,
      "SoundDuration": 250000,
      "Delta": 15750000
    },
    {
      "NoteNumber": 50,
      "Velocity": 110,
      "Duration": 250000,
      "SoundDuration": 250000,
      "Delta": 15750000
    },
    {
      "NoteNumber": 62,
      "Velocity": 110,
      "Duration": 146875,
      "SoundDuration": 146875,
      "Delta": 15899999
    },
    {
      "NoteNumber": 64,
      "Velocity": 110,
      "Duration": 146874,
      "SoundDuration": 146874,
      "Delta": 16050000
    },
    {
      "NoteNumber": 38,
      "Velocity": 110,
      "Duration": 146874,
      "SoundDuration": 146874,
      "Delta": 16050000
    },
    {
      "NoteNumber": 50,
      "Velocity": 110,
      "Duration": 146874,
      "SoundDuration": 146874,
      "Delta": 16050000
    },
    {
      "NoteNumber": 58,
      "Velocity": 110,
      "Duration": 250000,
      "SoundDuration": 250000,
      "Delta": 16200000
    },
    {
      "NoteNumber": 62,
      "Velocity": 110,
      "Duration": 250000,
      "SoundDuration": 250000,
      "Delta": 16200000
    },
    {
      "NoteNumber": 65,
      "Velocity": 110,
      "Duration": 250000,
      "SoundDuration": 250000,
      "Delta": 16200000
    },
    {
      "NoteNumber": 34,
      "Velocity": 110,
      "Duration": 250000,
      "SoundDuration": 250000,
      "Delta": 16200000
    },
    {
      "NoteNumber": 46,
      "Velocity": 110,
      "Duration": 250000,
      "SoundDuration": 250000,
      "Delta": 16200000
    },
    {
      "NoteNumber": 58,
      "Velocity": 110,
      "Duration": 250000,
      "SoundDuration": 250000,
      "Delta": 16500000
    },
    {
      "NoteNumber": 62,
      "Velocity": 110,
      "Duration": 250000,
      "SoundDuration": 250000,
      "Delta": 16500000
    },
    {
      "NoteNumber": 65,
      "Velocity": 110,
      "Duration": 250000,
      "SoundDuration": 250000,
      "Delta": 16500000
    },
    {
      "NoteNumber": 34,
      "Velocity": 110,
      "Duration": 146875,
      "SoundDuration": 146875,
      "Delta": 16500000
    },
    {
      "NoteNumber": 46,
      "Velocity": 110,
      "Duration": 146875,
      "SoundDuration": 146875,
      "Delta": 16500000
    },
    {
      "NoteNumber": 34,
      "Velocity": 110,
      "Duration": 250000,
      "SoundDuration": 250000,
      "Delta": 16649999
    },
    {
      "NoteNumber": 46,
      "Velocity": 110,
      "Duration": 250000,
      "SoundDuration": 250000,
      "Delta": 16649999
    },
    {
      "NoteNumber": 58,
      "Velocity": 110,
      "Duration": 250000,
      "SoundDuration": 250000,
      "Delta": 16800000
    },
    {
      "NoteNumber": 62,
      "Velocity": 110,
      "Duration": 250000,
      "SoundDuration": 250000,
      "Delta": 16800000
    },
    {
      "NoteNumber": 67,
      "Velocity": 110,
      "Duration": 250000,
      "SoundDuration": 250000,
      "Delta": 16800000
    },
    {
      "NoteNumber": 34,
      "Velocity": 110,
      "Duration": 146875,
      "SoundDuration": 146875,
      "Delta": 16950000
    },
    {
      "NoteNumber": 46,
      "Velocity": 110,
      "Duration": 146875,
      "SoundDuration": 146875,
      "Delta": 16950000
    },
    {
      "NoteNumber": 65,
      "Velocity": 110,
      "Duration": 146875,
      "SoundDuration": 146875,
      "Delta": 17099999
    },
    {
      "NoteNumber": 69,
      "Velocity": 110,
      "Duration": 146875,
      "SoundDuration": 146875,
      "Delta": 17099999
    },
    {
      "NoteNumber": 38,
      "Velocity": 110,
      "Duration": 250000,
      "SoundDuration": 250000,
      "Delta": 17099999
    },
    {
      "NoteNumber": 50,
      "Velocity": 110,
      "Duration": 250000,
      "SoundDuration": 250000,
      "Delta": 17099999
    },
    {
      "NoteNumber": 62,
      "Velocity": 110,
      "Duration": 250000,
      "SoundDuration": 250000,
      "Delta": 17250000
    },
    {
      "NoteNumber": 38,
      "Velocity": 110,
      "Duration": 146875,
      "SoundDuration": 146875,
      "Delta": 17400000
    },
    {
      "NoteNumber": 50,
      "Velocity": 110,
      "Duration": 146875,
      "SoundDuration": 146875,
      "Delta": 17400000
    },
    {
      "NoteNumber": 38,
      "Velocity": 110,
      "Duration": 250000,
      "SoundDuration": 250000,
      "Delta": 17550000
    },
    {
      "NoteNumber": 50,
      "Velocity": 110,
      "Duration": 250000,
      "SoundDuration": 250000,
      "Delta": 17550000
    },
    {
      "NoteNumber": 62,
      "Velocity": 110,
      "Duration": 146875,
      "SoundDuration": 146875,
      "Delta": 17700000
    },
    {
      "NoteNumber": 65,
      "Velocity": 110,
      "Duration": 146875,
      "SoundDuration": 146875,
      "Delta": 17849999
    },
    {
      "NoteNumber": 38,
      "Velocity": 110,
      "Duration": 146875,
      "SoundDuration": 146875,
      "Delta": 17849999
    },
    {
      "NoteNumber": 50,
      "Velocity": 110,
      "Duration": 146875,
      "SoundDuration": 146875,
      "Delta": 17849999
    },
    {
      "NoteNumber": 57,
      "Velocity": 110,
      "Duration": 250000,
      "SoundDuration": 250000,
      "Delta": 18000000
    },
    {
      "NoteNumber": 61,
      "Velocity": 110,
      "Duration": 250000,
      "SoundDuration": 250000,
      "Delta": 18000000
    },
    {
      "NoteNumber": 64,
      "Velocity": 110,
      "Duration": 250000,
      "SoundDuration": 250000,
      "Delta": 18000000
    },
    {
      "NoteNumber": 33,
      "Velocity": 110,
      "Duration": 250000,
      "SoundDuration": 250000,
      "Delta": 18000000
    },
    {
      "NoteNumber": 45,
      "Velocity": 110,
      "Duration": 250000,
      "SoundDuration": 250000,
      "Delta": 18000000
    },
    {
      "NoteNumber": 57,
      "Velocity": 110,
      "Duration": 250000,
      "SoundDuration": 250000,
      "Delta": 18300000
    },
    {
      "NoteNumber": 61,
      "Velocity": 110,
      "Duration": 250000,
      "SoundDuration": 250000,
      "Delta": 18300000
    },
    {
      "NoteNumber": 64,
      "Velocity": 110,
      "Duration": 250000,
      "SoundDuration": 250000,
      "Delta": 18300000
    },
    {
      "NoteNumber": 33,
      "Velocity": 110,
      "Duration": 146874,
      "SoundDuration": 146874,
      "Delta": 18300000
    },
    {
      "NoteNumber": 45,
      "Velocity": 110,
      "Duration": 146874,
      "SoundDuration": 146874,
      "Delta": 18300000
    },
    {
      "NoteNumber": 33,
      "Velocity": 110,
      "Duration": 250000,
      "SoundDuration": 250000,
      "Delta": 18450000
    },
    {
      "NoteNumber": 45,
      "Velocity": 110,
      "Duration": 250000,
      "SoundDuration": 250000,
      "Delta": 18450000
    },
    {
      "NoteNumber": 62,
      "Velocity": 110,
      "Duration": 146875,
      "SoundDuration": 146875,
      "Delta": 18599999
    },
    {
      "NoteNumber": 65,
      "Velocity": 110,
      "Duration": 146875,
      "SoundDuration": 146875,
      "Delta": 18599999
    },
    {
      "NoteNumber": 59,
      "Velocity": 110,
      "Duration": 146875,
      "SoundDuration": 146875,
      "Delta": 18750000
    },
    {
      "NoteNumber": 62,
      "Velocity": 110,
      "Duration": 146875,
      "SoundDuration": 146875,
      "Delta": 18750000
    },
    {
      "NoteNumber": 33,
      "Velocity": 110,
      "Duration": 146875,
      "SoundDuration": 146875,
      "Delta": 18750000
    },
    {
      "NoteNumber": 45,
      "Velocity": 110,
      "Duration": 146875,
      "SoundDuration": 146875,
      "Delta": 18750000
    },
    {
      "NoteNumber": 57,
      "Velocity": 110,
      "Duration": 146875,
      "SoundDuration": 146875,
      "Delta": 18900000
    },
    {
      "NoteNumber": 61,
      "Velocity": 110,
      "Duration": 146875,
      "SoundDuration": 146875,
      "Delta": 18900000
    },
    {
      "NoteNumber": 64,
      "Velocity": 110,
      "Duration": 146875,
      "SoundDuration": 146875,
      "Delta": 18900000
    },
    {
      "NoteNumber": 33,
      "Velocity": 110,
      "Duration": 250000,
      "SoundDuration": 250000,
      "Delta": 18900000
    },
    {
      "NoteNumber": 45,
      "Velocity": 110,
      "Duration": 250000,
      "SoundDuration": 250000,
      "Delta": 18900000
    },
    {
      "NoteNumber": 33,
      "Velocity": 110,
      "Duration": 146874,
      "SoundDuration": 146874,
      "Delta": 19200000
    },
    {
      "NoteNumber": 45,
      "Velocity": 110,
      "Duration": 146874,
      "SoundDuration": 146874,
      "Delta": 19200000
    },
    {
      "NoteNumber": 33,
      "Velocity": 110,
      "Duration": 250000,
      "SoundDuration": 250000,
      "Delta": 19349999
    },
    {
      "NoteNumber": 45,
      "Velocity": 110,
      "Duration": 250000,
      "SoundDuration": 250000,
      "Delta": 19349999
    },
    {
      "NoteNumber": 69,
      "Velocity": 110,
      "Duration": 146874,
      "SoundDuration": 146874,
      "Delta": 19500000
    },
    {
      "NoteNumber": 72,
      "Velocity": 110,
      "Duration": 146874,
      "SoundDuration": 146874,
      "Delta": 19650000
    },
    {
      "NoteNumber": 33,
      "Velocity": 110,
      "Duration": 146874,
      "SoundDuration": 146874,
      "Delta": 19650000
    },
    {
      "NoteNumber": 45,
      "Velocity": 110,
      "Duration": 146874,
      "SoundDuration": 146874,
      "Delta": 19650000
    },
    {
      "NoteNumber": 65,
      "Velocity": 110,
      "Duration": 249999,
      "SoundDuration": 249999,
      "Delta": 19800000
    },
    {
      "NoteNumber": 69,
      "Velocity": 110,
      "Duration": 249999,
      "SoundDuration": 249999,
      "Delta": 19800000
    },
    {
      "NoteNumber": 74,
      "Velocity": 110,
      "Duration": 249999,
      "SoundDuration": 249999,
      "Delta": 19800000
    },
    {
      "NoteNumber": 38,
      "Velocity": 110,
      "Duration": 249999,
      "SoundDuration": 249999,
      "Delta": 19800000
    },
    {
      "NoteNumber": 50,
      "Velocity": 110,
      "Duration": 249999,
      "SoundDuration": 249999,
      "Delta": 19800000
    },
    {
      "NoteNumber": 65,
      "Velocity": 110,
      "Duration": 250000,
      "SoundDuration": 250000,
      "Delta": 20099999
    },
    {
      "NoteNumber": 69,
      "Velocity": 110,
      "Duration": 250000,
      "SoundDuration": 250000,
      "Delta": 20099999
    },
    {
      "NoteNumber": 74,
      "Velocity": 110,
      "Duration": 250000,
      "SoundDuration": 250000,
      "Delta": 20099999
    },
    {
      "NoteNumber": 38,
      "Velocity": 110,
      "Duration": 146875,
      "SoundDuration": 146875,
      "Delta": 20099999
    },
    {
      "NoteNumber": 50,
      "Velocity": 110,
      "Duration": 146875,
      "SoundDuration": 146875,
      "Delta": 20099999
    },
    {
      "NoteNumber": 38,
      "Velocity": 110,
      "Duration": 249999,
      "SoundDuration": 249999,
      "Delta": 20250000
    },
    {
      "NoteNumber": 50,
      "Velocity": 110,
      "Duration": 249999,
      "SoundDuration": 249999,
      "Delta": 20250000
    },
    {
      "NoteNumber": 65,
      "Velocity": 110,
      "Duration": 146874,
      "SoundDuration": 146874,
      "Delta": 20400000
    },
    {
      "NoteNumber": 69,
      "Velocity": 110,
      "Duration": 146874,
      "SoundDuration": 146874,
      "Delta": 20400000
    },
    {
      "NoteNumber": 74,
      "Velocity": 110,
      "Duration": 146874,
      "SoundDuration": 146874,
      "Delta": 20400000
    },
    {
      "NoteNumber": 69,
      "Velocity": 110,
      "Duration": 146874,
      "SoundDuration": 146874,
      "Delta": 20550000
    },
    {
      "NoteNumber": 72,
      "Velocity": 110,
      "Duration": 146874,
      "SoundDuration": 146874,
      "Delta": 20550000
    },
    {
      "NoteNumber": 76,
      "Velocity": 110,
      "Duration": 146874,
      "SoundDuration": 146874,
      "Delta": 20550000
    },
    {
      "NoteNumber": 36,
      "Velocity": 110,
      "Duration": 146874,
      "SoundDuration": 146874,
      "Delta": 20550000
    },
    {
      "NoteNumber": 48,
      "Velocity": 110,
      "Duration": 146874,
      "SoundDuration": 146874,
      "Delta": 20550000
    },
    {
      "NoteNumber": 70,
      "Velocity": 110,
      "Duration": 250000,
      "SoundDuration": 250000,
      "Delta": 20700000
    },
    {
      "NoteNumber": 74,
      "Velocity": 110,
      "Duration": 250000,
      "SoundDuration": 250000,
      "Delta": 20700000
    },
    {
      "NoteNumber": 77,
      "Velocity": 110,
      "Duration": 250000,
      "SoundDuration": 250000,
      "Delta": 20700000
    },
    {
      "NoteNumber": 34,
      "Velocity": 110,
      "Duration": 250000,
      "SoundDuration": 250000,
      "Delta": 20700000
    },
    {
      "NoteNumber": 46,
      "Velocity": 110,
      "Duration": 250000,
      "SoundDuration": 250000,
      "Delta": 20700000
    },
    {
      "NoteNumber": 70,
      "Velocity": 110,
      "Duration": 249999,
      "SoundDuration": 249999,
      "Delta": 21000000
    },
    {
      "NoteNumber": 74,
      "Velocity": 110,
      "Duration": 249999,
      "SoundDuration": 249999,
      "Delta": 21000000
    },
    {
      "NoteNumber": 77,
      "Velocity": 110,
      "Duration": 249999,
      "SoundDuration": 249999,
      "Delta": 21000000
    },
    {
      "NoteNumber": 34,
      "Velocity": 110,
      "Duration": 146874,
      "SoundDuration": 146874,
      "Delta": 21000000
    },
    {
      "NoteNumber": 46,
      "Velocity": 110,
      "Duration": 146874,
      "SoundDuration": 146874,
      "Delta": 21000000
    },
    {
      "NoteNumber": 34,
      "Velocity": 110,
      "Duration": 250000,
      "SoundDuration": 250000,
      "Delta": 21150000
    },
    {
      "NoteNumber": 46,
      "Velocity": 110,
      "Duration": 250000,
      "SoundDuration": 250000,
      "Delta": 21150000
    },
    {
      "NoteNumber": 70,
      "Velocity": 110,
      "Duration": 146874,
      "SoundDuration": 146874,
      "Delta": 21300000
    },
    {
      "NoteNumber": 74,
      "Velocity": 110,
      "Duration": 146874,
      "SoundDuration": 146874,
      "Delta": 21300000
    },
    {
      "NoteNumber": 77,
      "Velocity": 110,
      "Duration": 146874,
      "SoundDuration": 146874,
      "Delta": 21300000
    },
    {
      "NoteNumber": 74,
      "Velocity": 110,
      "Duration": 146874,
      "SoundDuration": 146874,
      "Delta": 21450000
    },
    {
      "NoteNumber": 79,
      "Velocity": 110,
      "Duration": 146874,
      "SoundDuration": 146874,
      "Delta": 21450000
    },
    {
      "NoteNumber": 34,
      "Velocity": 110,
      "Duration": 146874,
      "SoundDuration": 146874,
      "Delta": 21450000
    },
    {
      "NoteNumber": 46,
      "Velocity": 110,
      "Duration": 146874,
      "SoundDuration": 146874,
      "Delta": 21450000
    },
    {
      "NoteNumber": 69,
      "Velocity": 110,
      "Duration": 250000,
      "SoundDuration": 250000,
      "Delta": 21599999
    },
    {
      "NoteNumber": 72,
      "Velocity": 110,
      "Duration": 250000,
      "SoundDuration": 250000,
      "Delta": 21599999
    },
    {
      "NoteNumber": 76,
      "Velocity": 110,
      "Duration": 250000,
      "SoundDuration": 250000,
      "Delta": 21599999
    },
    {
      "NoteNumber": 33,
      "Velocity": 110,
      "Duration": 250000,
      "SoundDuration": 250000,
      "Delta": 21599999
    },
    {
      "NoteNumber": 45,
      "Velocity": 110,
      "Duration": 250000,
      "SoundDuration": 250000,
      "Delta": 21599999
    },
    {
      "NoteNumber": 69,
      "Velocity": 110,
      "Duration": 250000,
      "SoundDuration": 250000,
      "Delta": 21900000
    },
    {
      "NoteNumber": 72,
      "Velocity": 110,
      "Duration": 250000,
      "SoundDuration": 250000,
      "Delta": 21900000
    },
    {
      "NoteNumber": 76,
      "Velocity": 110,
      "Duration": 250000,
      "SoundDuration": 250000,
      "Delta": 21900000
    },
    {
      "NoteNumber": 33,
      "Velocity": 110,
      "Duration": 146874,
      "SoundDuration": 146874,
      "Delta": 21900000
    },
    {
      "NoteNumber": 45,
      "Velocity": 110,
      "Duration": 146874,
      "SoundDuration": 146874,
      "Delta": 21900000
    },
    {
      "NoteNumber": 33,
      "Velocity": 110,
      "Duration": 249999,
      "SoundDuration": 249999,
      "Delta": 22050000
    },
    {
      "NoteNumber": 45,
      "Velocity": 110,
      "Duration": 249999,
      "SoundDuration": 249999,
      "Delta": 22050000
    },
    {
      "NoteNumber": 69,
      "Velocity": 110,
      "Duration": 146874,
      "SoundDuration": 146874,
      "Delta": 22200000
    },
    {
      "NoteNumber": 74,
      "Velocity": 110,
      "Duration": 146874,
      "SoundDuration": 146874,
      "Delta": 22200000
    },
    {
      "NoteNumber": 67,
      "Velocity": 110,
      "Duration": 146875,
      "SoundDuration": 146875,
      "Delta": 22349999
    },
    {
      "NoteNumber": 72,
      "Velocity": 110,
      "Duration": 146875,
      "SoundDuration": 146875,
      "Delta": 22349999
    },
    {
      "NoteNumber": 33,
      "Velocity": 110,
      "Duration": 146875,
      "SoundDuration": 146875,
      "Delta": 22349999
    },
    {
      "NoteNumber": 45,
      "Velocity": 110,
      "Duration": 146875,
      "SoundDuration": 146875,
      "Delta": 22349999
    },
    {
      "NoteNumber": 69,
      "Velocity": 110,
      "Duration": 146874,
      "SoundDuration": 146874,
      "Delta": 22500000
    },
    {
      "NoteNumber": 72,
      "Velocity": 110,
      "Duration": 146874,
      "SoundDuration": 146874,
      "Delta": 22500000
    },
    {
      "NoteNumber": 38,
      "Velocity": 110,
      "Duration": 249999,
      "SoundDuration": 249999,
      "Delta": 22500000
    },
    {
      "NoteNumber": 50,
      "Velocity": 110,
      "Duration": 249999,
      "SoundDuration": 249999,
      "Delta": 22500000
    },
    {
      "NoteNumber": 69,
      "Velocity": 110,
      "Duration": 250000,
      "SoundDuration": 250000,
      "Delta": 22650000
    },
    {
      "NoteNumber": 74,
      "Velocity": 110,
      "Duration": 250000,
      "SoundDuration": 250000,
      "Delta": 22650000
    },
    {
      "NoteNumber": 38,
      "Velocity": 110,
      "Duration": 146874,
      "SoundDuration": 146874,
      "Delta": 22800000
    },
    {
      "NoteNumber": 50,
      "Velocity": 110,
      "Duration": 146874,
      "SoundDuration": 146874,
      "Delta": 22800000
    },
    {
      "NoteNumber": 38,
      "Velocity": 110,
      "Duration": 250000,
      "SoundDuration": 250000,
      "Delta": 22950000
    },
    {
      "NoteNumber": 50,
      "Velocity": 110,
      "Duration": 250000,
      "SoundDuration": 250000,
      "Delta": 22950000
    },
    {
      "NoteNumber": 69,
      "Velocity": 110,
      "Duration": 146875,
      "SoundDuration": 146875,
      "Delta": 23099999
    },
    {
      "NoteNumber": 72,
      "Velocity": 110,
      "Duration": 146874,
      "SoundDuration": 146874,
      "Delta": 23250000
    },
    {
      "NoteNumber": 38,
      "Velocity": 110,
      "Duration": 146874,
      "SoundDuration": 146874,
      "Delta": 23250000
    },
    {
      "NoteNumber": 50,
      "Velocity": 110,
      "Duration": 146874,
      "SoundDuration": 146874,
      "Delta": 23250000
    },
    {
      "NoteNumber": 65,
      "Velocity": 110,
      "Duration": 250000,
      "SoundDuration": 250000,
      "Delta": 23400000
    },
    {
      "NoteNumber": 70,
      "Velocity": 110,
      "Duration": 250000,
      "SoundDuration": 250000,
      "Delta": 23400000
    },
    {
      "NoteNumber": 74,
      "Velocity": 110,
      "Duration": 250000,
      "SoundDuration": 250000,
      "Delta": 23400000
    },
    {
      "NoteNumber": 34,
      "Velocity": 110,
      "Duration": 250000,
      "SoundDuration": 250000,
      "Delta": 23400000
    },
    {
      "NoteNumber": 46,
      "Velocity": 110,
      "Duration": 250000,
      "SoundDuration": 250000,
      "Delta": 23400000
    },
    {
      "NoteNumber": 65,
      "Velocity": 110,
      "Duration": 250000,
      "SoundDuration": 250000,
      "Delta": 23700000
    },
    {
      "NoteNumber": 70,
      "Velocity": 110,
      "Duration": 250000,
      "SoundDuration": 250000,
      "Delta": 23700000
    },
    {
      "NoteNumber": 74,
      "Velocity": 110,
      "Duration": 250000,
      "SoundDuration": 250000,
      "Delta": 23700000
    },
    {
      "NoteNumber": 34,
      "Velocity": 110,
      "Duration": 146874,
      "SoundDuration": 146874,
      "Delta": 23700000
    },
    {
      "NoteNumber": 46,
      "Velocity": 110,
      "Duration": 146874,
      "SoundDuration": 146874,
      "Delta": 23700000
    },
    {
      "NoteNumber": 34,
      "Velocity": 110,
      "Duration": 250000,
      "SoundDuration": 250000,
      "Delta": 23849999
    },
    {
      "NoteNumber": 46,
      "Velocity": 110,
      "Duration": 250000,
      "SoundDuration": 250000,
      "Delta": 23849999
    },
    {
      "NoteNumber": 70,
      "Velocity": 110,
      "Duration": 146874,
      "SoundDuration": 146874,
      "Delta": 24000000
    },
    {
      "NoteNumber": 74,
      "Velocity": 110,
      "Duration": 146874,
      "SoundDuration": 146874,
      "Delta": 24000000
    },
    {
      "NoteNumber": 70,
      "Velocity": 110,
      "Duration": 146874,
      "SoundDuration": 146874,
      "Delta": 24150000
    },
    {
      "NoteNumber": 76,
      "Velocity": 110,
      "Duration": 146874,
      "SoundDuration": 146874,
      "Delta": 24150000
    },
    {
      "NoteNumber": 34,
      "Velocity": 110,
      "Duration": 146874,
      "SoundDuration": 146874,
      "Delta": 24150000
    },
    {
      "NoteNumber": 46,
      "Velocity": 110,
      "Duration": 146874,
      "SoundDuration": 146874,
      "Delta": 24150000
    },
    {
      "NoteNumber": 69,
      "Velocity": 110,
      "Duration": 249999,
      "SoundDuration": 249999,
      "Delta": 24300000
    },
    {
      "NoteNumber": 72,
      "Velocity": 110,
      "Duration": 249999,
      "SoundDuration": 249999,
      "Delta": 24300000
    },
    {
      "NoteNumber": 77,
      "Velocity": 110,
      "Duration": 249999,
      "SoundDuration": 249999,
      "Delta": 24300000
    },
    {
      "NoteNumber": 29,
      "Velocity": 110,
      "Duration": 249999,
      "SoundDuration": 249999,
      "Delta": 24300000
    },
    {
      "NoteNumber": 41,
      "Velocity": 110,
      "Duration": 249999,
      "SoundDuration": 249999,
      "Delta": 24300000
    },
    {
      "NoteNumber": 69,
      "Velocity": 110,
      "Duration": 250000,
      "SoundDuration": 250000,
      "Delta": 24599999
    },
    {
      "NoteNumber": 72,
      "Velocity": 110,
      "Duration": 250000,
      "SoundDuration": 250000,
      "Delta": 24599999
    },
    {
      "NoteNumber": 77,
      "Velocity": 110,
      "Duration": 250000,
      "SoundDuration": 250000,
      "Delta": 24599999
    },
    {
      "NoteNumber": 29,
      "Velocity": 110,
      "Duration": 146875,
      "SoundDuration": 146875,
      "Delta": 24599999
    },
    {
      "NoteNumber": 41,
      "Velocity": 110,
      "Duration": 146875,
      "SoundDuration": 146875,
      "Delta": 24599999
    },
    {
      "NoteNumber": 29,
      "Velocity": 110,
      "Duration": 249999,
      "SoundDuration": 249999,
      "Delta": 24750000
    },
    {
      "NoteNumber": 41,
      "Velocity": 110,
      "Duration": 249999,
      "SoundDuration": 249999,
      "Delta": 24750000
    },
    {
      "NoteNumber": 72,
      "Velocity": 110,
      "Duration": 146874,
      "SoundDuration": 146874,
      "Delta": 24900000
    },
    {
      "NoteNumber": 77,
      "Velocity": 110,
      "Duration": 146874,
      "SoundDuration": 146874,
      "Delta": 24900000
    },
    {
      "NoteNumber": 72,
      "Velocity": 110,
      "Duration": 146874,
      "SoundDuration": 146874,
      "Delta": 25050000
    },
    {
      "NoteNumber": 79,
      "Velocity": 110,
      "Duration": 146874,
      "SoundDuration": 146874,
      "Delta": 25050000
    },
    {
      "NoteNumber": 29,
      "Velocity": 110,
      "Duration": 146874,
      "SoundDuration": 146874,
      "Delta": 25050000
    },
    {
      "NoteNumber": 41,
      "Velocity": 110,
      "Duration": 146874,
      "SoundDuration": 146874,
      "Delta": 25050000
    },
    {
      "NoteNumber": 72,
      "Velocity": 110,
      "Duration": 250000,
      "SoundDuration": 250000,
      "Delta": 25200000
    },
    {
      "NoteNumber": 76,
      "Velocity": 110,
      "Duration": 250000,
      "SoundDuration": 250000,
      "Delta": 25200000
    },
    {
      "NoteNumber": 36,
      "Velocity": 110,
      "Duration": 250000,
      "SoundDuration": 250000,
      "Delta": 25200000
    },
    {
      "NoteNumber": 48,
      "Velocity": 110,
      "Duration": 250000,
      "SoundDuration": 250000,
      "Delta": 25200000
    },
    {
      "NoteNumber": 72,
      "Velocity": 110,
      "Duration": 249999,
      "SoundDuration": 249999,
      "Delta": 25500000
    },
    {
      "NoteNumber": 76,
      "Velocity": 110,
      "Duration": 249999,
      "SoundDuration": 249999,
      "Delta": 25500000
    },
    {
      "NoteNumber": 36,
      "Velocity": 110,
      "Duration": 146874,
      "SoundDuration": 146874,
      "Delta": 25500000
    },
    {
      "NoteNumber": 48,
      "Velocity": 110,
      "Duration": 146874,
      "SoundDuration": 146874,
      "Delta": 25500000
    },
    {
      "NoteNumber": 33,
      "Velocity": 110,
      "Duration": 250000,
      "SoundDuration": 250000,
      "Delta": 25650000
    },
    {
      "NoteNumber": 45,
      "Velocity": 110,
      "Duration": 250000,
      "SoundDuration": 250000,
      "Delta": 25650000
    },
    {
      "NoteNumber": 69,
      "Velocity": 110,
      "Duration": 146874,
      "SoundDuration": 146874,
      "Delta": 25800000
    },
    {
      "NoteNumber": 74,
      "Velocity": 110,
      "Duration": 146874,
      "SoundDuration": 146874,
      "Delta": 25800000
    },
    {
      "NoteNumber": 72,
      "Velocity": 110,
      "Duration": 146874,
      "SoundDuration": 146874,
      "Delta": 25950000
    },
    {
      "NoteNumber": 33,
      "Velocity": 110,
      "Duration": 146874,
      "SoundDuration": 146874,
      "Delta": 25950000
    },
    {
      "NoteNumber": 45,
      "Velocity": 110,
      "Duration": 146874,
      "SoundDuration": 146874,
      "Delta": 25950000
    },
    {
      "NoteNumber": 65,
      "Velocity": 110,
      "Duration": 250000,
      "SoundDuration": 250000,
      "Delta": 26099999
    },
    {
      "NoteNumber": 69,
      "Velocity": 110,
      "Duration": 250000,
      "SoundDuration": 250000,
      "Delta": 26099999
    },
    {
      "NoteNumber": 74,
      "Velocity": 110,
      "Duration": 250000,
      "SoundDuration": 250000,
      "Delta": 26099999
    },
    {
      "NoteNumber": 38,
      "Velocity": 110,
      "Duration": 250000,
      "SoundDuration": 250000,
      "Delta": 26099999
    },
    {
      "NoteNumber": 50,
      "Velocity": 110,
      "Duration": 250000,
      "SoundDuration": 250000,
      "Delta": 26099999
    },
    {
      "NoteNumber": 38,
      "Velocity": 110,
      "Duration": 146874,
      "SoundDuration": 146874,
      "Delta": 26400000
    },
    {
      "NoteNumber": 50,
      "Velocity": 110,
      "Duration": 146874,
      "SoundDuration": 146874,
      "Delta": 26400000
    },
    {
      "NoteNumber": 38,
      "Velocity": 110,
      "Duration": 249999,
      "SoundDuration": 249999,
      "Delta": 26550000
    },
    {
      "NoteNumber": 50,
      "Velocity": 110,
      "Duration": 249999,
      "SoundDuration": 249999,
      "Delta": 26550000
    },
    {
      "NoteNumber": 69,
      "Velocity": 110,
      "Duration": 146874,
      "SoundDuration": 146874,
      "Delta": 26700000
    },
    {
      "NoteNumber": 72,
      "Velocity": 110,
      "Duration": 146875,
      "SoundDuration": 146875,
      "Delta": 26849999
    },
    {
      "NoteNumber": 38,
      "Velocity": 110,
      "Duration": 146875,
      "SoundDuration": 146875,
      "Delta": 26849999
    },
    {
      "NoteNumber": 50,
      "Velocity": 110,
      "Duration": 146875,
      "SoundDuration": 146875,
      "Delta": 26849999
    },
    {
      "NoteNumber": 65,
      "Velocity": 110,
      "Duration": 249999,
      "SoundDuration": 249999,
      "Delta": 27000000
    },
    {
      "NoteNumber": 69,
      "Velocity": 110,
      "Duration": 249999,
      "SoundDuration": 249999,
      "Delta": 27000000
    },
    {
      "NoteNumber": 74,
      "Velocity": 110,
      "Duration": 249999,
      "SoundDuration": 249999,
      "Delta": 27000000
    },
    {
      "NoteNumber": 38,
      "Velocity": 110,
      "Duration": 249999,
      "SoundDuration": 249999,
      "Delta": 27000000
    },
    {
      "NoteNumber": 50,
      "Velocity": 110,
      "Duration": 249999,
      "SoundDuration": 249999,
      "Delta": 27000000
    },
    {
      "NoteNumber": 65,
      "Velocity": 110,
      "Duration": 249999,
      "SoundDuration": 249999,
      "Delta": 27300000
    },
    {
      "NoteNumber": 69,
      "Velocity": 110,
      "Duration": 249999,
      "SoundDuration": 249999,
      "Delta": 27300000
    },
    {
      "NoteNumber": 74,
      "Velocity": 110,
      "Duration": 249999,
      "SoundDuration": 249999,
      "Delta": 27300000
    },
    {
      "NoteNumber": 38,
      "Velocity": 110,
      "Duration": 146874,
      "SoundDuration": 146874,
      "Delta": 27300000
    },
    {
      "NoteNumber": 50,
      "Velocity": 110,
      "Duration": 146874,
      "SoundDuration": 146874,
      "Delta": 27300000
    },
    {
      "NoteNumber": 38,
      "Velocity": 110,
      "Duration": 250000,
      "SoundDuration": 250000,
      "Delta": 27450000
    },
    {
      "NoteNumber": 50,
      "Velocity": 110,
      "Duration": 250000,
      "SoundDuration": 250000,
      "Delta": 27450000
    },
    {
      "NoteNumber": 69,
      "Velocity": 110,
      "Duration": 146875,
      "SoundDuration": 146875,
      "Delta": 27599999
    },
    {
      "NoteNumber": 74,
      "Velocity": 110,
      "Duration": 146875,
      "SoundDuration": 146875,
      "Delta": 27599999
    },
    {
      "NoteNumber": 69,
      "Velocity": 110,
      "Duration": 146874,
      "SoundDuration": 146874,
      "Delta": 27750000
    },
    {
      "NoteNumber": 77,
      "Velocity": 110,
      "Duration": 146874,
      "SoundDuration": 146874,
      "Delta": 27750000
    },
    {
      "NoteNumber": 38,
      "Velocity": 110,
      "Duration": 146874,
      "SoundDuration": 146874,
      "Delta": 27750000
    },
    {
      "NoteNumber": 50,
      "Velocity": 110,
      "Duration": 146874,
      "SoundDuration": 146874,
      "Delta": 27750000
    },
    {
      "NoteNumber": 70,
      "Velocity": 110,
      "Duration": 250000,
      "SoundDuration": 250000,
      "Delta": 27900000
    },
    {
      "NoteNumber": 74,
      "Velocity": 110,
      "Duration": 250000,
      "SoundDuration": 250000,
      "Delta": 27900000
    },
    {
      "NoteNumber": 79,
      "Velocity": 110,
      "Duration": 250000,
      "SoundDuration": 250000,
      "Delta": 27900000
    },
    {
      "NoteNumber": 34,
      "Velocity": 110,
      "Duration": 250000,
      "SoundDuration": 250000,
      "Delta": 27900000
    },
    {
      "NoteNumber": 46,
      "Velocity": 110,
      "Duration": 250000,
      "SoundDuration": 250000,
      "Delta": 27900000
    },
    {
      "NoteNumber": 70,
      "Velocity": 110,
      "Duration": 250000,
      "SoundDuration": 250000,
      "Delta": 28200000
    },
    {
      "NoteNumber": 74,
      "Velocity": 110,
      "Duration": 250000,
      "SoundDuration": 250000,
      "Delta": 28200000
    },
    {
      "NoteNumber": 79,
      "Velocity": 110,
      "Duration": 250000,
      "SoundDuration": 250000,
      "Delta": 28200000
    },
    {
      "NoteNumber": 34,
      "Velocity": 110,
      "Duration": 146874,
      "SoundDuration": 146874,
      "Delta": 28200000
    },
    {
      "NoteNumber": 46,
      "Velocity": 110,
      "Duration": 146874,
      "SoundDuration": 146874,
      "Delta": 28200000
    },
    {
      "NoteNumber": 34,
      "Velocity": 110,
      "Duration": 250000,
      "SoundDuration": 250000,
      "Delta": 28349999
    },
    {
      "NoteNumber": 46,
      "Velocity": 110,
      "Duration": 250000,
      "SoundDuration": 250000,
      "Delta": 28349999
    },
    {
      "NoteNumber": 74,
      "Velocity": 110,
      "Duration": 146874,
      "SoundDuration": 146874,
      "Delta": 28500000
    },
    {
      "NoteNumber": 79,
      "Velocity": 110,
      "Duration": 146874,
      "SoundDuration": 146874,
      "Delta": 28500000
    },
    {
      "NoteNumber": 74,
      "Velocity": 110,
      "Duration": 146874,
      "SoundDuration": 146874,
      "Delta": 28650000
    },
    {
      "NoteNumber": 81,
      "Velocity": 110,
      "Duration": 146874,
      "SoundDuration": 146874,
      "Delta": 28650000
    },
    {
      "NoteNumber": 34,
      "Velocity": 110,
      "Duration": 146874,
      "SoundDuration": 146874,
      "Delta": 28650000
    },
    {
      "NoteNumber": 46,
      "Velocity": 110,
      "Duration": 146874,
      "SoundDuration": 146874,
      "Delta": 28650000
    },
    {
      "NoteNumber": 74,
      "Velocity": 110,
      "Duration": 250000,
      "SoundDuration": 250000,
      "Delta": 28799999
    },
    {
      "NoteNumber": 79,
      "Velocity": 110,
      "Duration": 250000,
      "SoundDuration": 250000,
      "Delta": 28799999
    },
    {
      "NoteNumber": 82,
      "Velocity": 110,
      "Duration": 250000,
      "SoundDuration": 250000,
      "Delta": 28799999
    },
    {
      "NoteNumber": 31,
      "Velocity": 110,
      "Duration": 250000,
      "SoundDuration": 250000,
      "Delta": 28799999
    },
    {
      "NoteNumber": 43,
      "Velocity": 110,
      "Duration": 250000,
      "SoundDuration": 250000,
      "Delta": 28799999
    },
    {
      "NoteNumber": 74,
      "Velocity": 110,
      "Duration": 250000,
      "SoundDuration": 250000,
      "Delta": 29099999
    },
    {
      "NoteNumber": 79,
      "Velocity": 110,
      "Duration": 250000,
      "SoundDuration": 250000,
      "Delta": 29099999
    },
    {
      "NoteNumber": 82,
      "Velocity": 110,
      "Duration": 250000,
      "SoundDuration": 250000,
      "Delta": 29099999
    },
    {
      "NoteNumber": 31,
      "Velocity": 110,
      "Duration": 146874,
      "SoundDuration": 146874,
      "Delta": 29099999
    },
    {
      "NoteNumber": 43,
      "Velocity": 110,
      "Duration": 146874,
      "SoundDuration": 146874,
      "Delta": 29099999
    },
    {
      "NoteNumber": 31,
      "Velocity": 110,
      "Duration": 249999,
      "SoundDuration": 249999,
      "Delta": 29250000
    },
    {
      "NoteNumber": 43,
      "Velocity": 110,
      "Duration": 249999,
      "SoundDuration": 249999,
      "Delta": 29250000
    },
    {
      "NoteNumber": 77,
      "Velocity": 110,
      "Duration": 146874,
      "SoundDuration": 146874,
      "Delta": 29400000
    },
    {
      "NoteNumber": 81,
      "Velocity": 110,
      "Duration": 146874,
      "SoundDuration": 146874,
      "Delta": 29400000
    },
    {
      "NoteNumber": 76,
      "Velocity": 110,
      "Duration": 146875,
      "SoundDuration": 146875,
      "Delta": 29549999
    },
    {
      "NoteNumber": 79,
      "Velocity": 110,
      "Duration": 146875,
      "SoundDuration": 146875,
      "Delta": 29549999
    },
    {
      "NoteNumber": 31,
      "Velocity": 110,
      "Duration": 146875,
      "SoundDuration": 146875,
      "Delta": 29549999
    },
    {
      "NoteNumber": 43,
      "Velocity": 110,
      "Duration": 146875,
      "SoundDuration": 146875,
      "Delta": 29549999
    },
    {
      "NoteNumber": 77,
      "Velocity": 110,
      "Duration": 146874,
      "SoundDuration": 146874,
      "Delta": 29700000
    },
    {
      "NoteNumber": 81,
      "Velocity": 110,
      "Duration": 146874,
      "SoundDuration": 146874,
      "Delta": 29700000
    },
    {
      "NoteNumber": 38,
      "Velocity": 110,
      "Duration": 249999,
      "SoundDuration": 249999,
      "Delta": 29700000
    },
    {
      "NoteNumber": 50,
      "Velocity": 110,
      "Duration": 249999,
      "SoundDuration": 249999,
      "Delta": 29700000
    },
    {
      "NoteNumber": 74,
      "Velocity": 110,
      "Duration": 250000,
      "SoundDuration": 250000,
      "Delta": 29849999
    },
    {
      "NoteNumber": 38,
      "Velocity": 110,
      "Duration": 146874,
      "SoundDuration": 146874,
      "Delta": 30000000
    },
    {
      "NoteNumber": 50,
      "Velocity": 110,
      "Duration": 146874,
      "SoundDuration": 146874,
      "Delta": 30000000
    },
    {
      "NoteNumber": 38,
      "Velocity": 110,
      "Duration": 250000,
      "SoundDuration": 250000,
      "Delta": 30150000
    },
    {
      "NoteNumber": 50,
      "Velocity": 110,
      "Duration": 250000,
      "SoundDuration": 250000,
      "Delta": 30150000
    },
    {
      "NoteNumber": 74,
      "Velocity": 110,
      "Duration": 146875,
      "SoundDuration": 146875,
      "Delta": 30299999
    },
    {
      "NoteNumber": 76,
      "Velocity": 110,
      "Duration": 146874,
      "SoundDuration": 146874,
      "Delta": 30450000
    },
    {
      "NoteNumber": 38,
      "Velocity": 110,
      "Duration": 146874,
      "SoundDuration": 146874,
      "Delta": 30450000
    },
    {
      "NoteNumber": 50,
      "Velocity": 110,
      "Duration": 146874,
      "SoundDuration": 146874,
      "Delta": 30450000
    },
    {
      "NoteNumber": 70,
      "Velocity": 110,
      "Duration": 250000,
      "SoundDuration": 250000,
      "Delta": 30599999
    },
    {
      "NoteNumber": 74,
      "Velocity": 110,
      "Duration": 250000,
      "SoundDuration": 250000,
      "Delta": 30599999
    },
    {
      "NoteNumber": 77,
      "Velocity": 110,
      "Duration": 250000,
      "SoundDuration": 250000,
      "Delta": 30599999
    },
    {
      "NoteNumber": 34,
      "Velocity": 110,
      "Duration": 250000,
      "SoundDuration": 250000,
      "Delta": 30599999
    },
    {
      "NoteNumber": 46,
      "Velocity": 110,
      "Duration": 250000,
      "SoundDuration": 250000,
      "Delta": 30599999
    },
    {
      "NoteNumber": 70,
      "Velocity": 110,
      "Duration": 250000,
      "SoundDuration": 250000,
      "Delta": 30900000
    },
    {
      "NoteNumber": 74,
      "Velocity": 110,
      "Duration": 250000,
      "SoundDuration": 250000,
      "Delta": 30900000
    },
    {
      "NoteNumber": 77,
      "Velocity": 110,
      "Duration": 250000,
      "SoundDuration": 250000,
      "Delta": 30900000
    },
    {
      "NoteNumber": 34,
      "Velocity": 110,
      "Duration": 146874,
      "SoundDuration": 146874,
      "Delta": 30900000
    },
    {
      "NoteNumber": 46,
      "Velocity": 110,
      "Duration": 146874,
      "SoundDuration": 146874,
      "Delta": 30900000
    },
    {
      "NoteNumber": 34,
      "Velocity": 110,
      "Duration": 250000,
      "SoundDuration": 250000,
      "Delta": 31049999
    },
    {
      "NoteNumber": 46,
      "Velocity": 110,
      "Duration": 250000,
      "SoundDuration": 250000,
      "Delta": 31049999
    },
    {
      "NoteNumber": 70,
      "Velocity": 110,
      "Duration": 249999,
      "SoundDuration": 249999,
      "Delta": 31200000
    },
    {
      "NoteNumber": 74,
      "Velocity": 110,
      "Duration": 249999,
      "SoundDuration": 249999,
      "Delta": 31200000
    },
    {
      "NoteNumber": 79,
      "Velocity": 110,
      "Duration": 249999,
      "SoundDuration": 249999,
      "Delta": 31200000
    },
    {
      "NoteNumber": 34,
      "Velocity": 110,
      "Duration": 146874,
      "SoundDuration": 146874,
      "Delta": 31349999
    },
    {
      "NoteNumber": 46,
      "Velocity": 110,
      "Duration": 146874,
      "SoundDuration": 146874,
      "Delta": 31349999
    },
    {
      "NoteNumber": 77,
      "Velocity": 110,
      "Duration": 146874,
      "SoundDuration": 146874,
      "Delta": 31500000
    },
    {
      "NoteNumber": 81,
      "Velocity": 110,
      "Duration": 146874,
      "SoundDuration": 146874,
      "Delta": 31500000
    },
    {
      "NoteNumber": 38,
      "Velocity": 110,
      "Duration": 249999,
      "SoundDuration": 249999,
      "Delta": 31500000
    },
    {
      "NoteNumber": 50,
      "Velocity": 110,
      "Duration": 249999,
      "SoundDuration": 249999,
      "Delta": 31500000
    },
    {
      "NoteNumber": 74,
      "Velocity": 110,
      "Duration": 250000,
      "SoundDuration": 250000,
      "Delta": 31650000
    },
    {
      "NoteNumber": 38,
      "Velocity": 110,
      "Duration": 146875,
      "SoundDuration": 146875,
      "Delta": 31799999
    },
    {
      "NoteNumber": 50,
      "Velocity": 110,
      "Duration": 146875,
      "SoundDuration": 146875,
      "Delta": 31799999
    },
    {
      "NoteNumber": 38,
      "Velocity": 110,
      "Duration": 249999,
      "SoundDuration": 249999,
      "Delta": 31950000
    },
    {
      "NoteNumber": 50,
      "Velocity": 110,
      "Duration": 249999,
      "SoundDuration": 249999,
      "Delta": 31950000
    },
    {
      "NoteNumber": 74,
      "Velocity": 110,
      "Duration": 146874,
      "SoundDuration": 146874,
      "Delta": 32100000
    },
    {
      "NoteNumber": 77,
      "Velocity": 110,
      "Duration": 146874,
      "SoundDuration": 146874,
      "Delta": 32250000
    },
    {
      "NoteNumber": 38,
      "Velocity": 110,
      "Duration": 146874,
      "SoundDuration": 146874,
      "Delta": 32250000
    },
    {
      "NoteNumber": 50,
      "Velocity": 110,
      "Duration": 146874,
      "SoundDuration": 146874,
      "Delta": 32250000
    },
    {
      "NoteNumber": 69,
      "Velocity": 110,
      "Duration": 250000,
      "SoundDuration": 250000,
      "Delta": 32400000
    },
    {
      "NoteNumber": 73,
      "Velocity": 110,
      "Duration": 250000,
      "SoundDuration": 250000,
      "Delta": 32400000
    },
    {
      "NoteNumber": 76,
      "Velocity": 110,
      "Duration": 250000,
      "SoundDuration": 250000,
      "Delta": 32400000
    },
    {
      "NoteNumber": 33,
      "Velocity": 110,
      "Duration": 250000,
      "SoundDuration": 250000,
      "Delta": 32400000
    },
    {
      "NoteNumber": 45,
      "Velocity": 110,
      "Duration": 250000,
      "SoundDuration": 250000,
      "Delta": 32400000
    },
    {
      "NoteNumber": 69,
      "Velocity": 110,
      "Duration": 250000,
      "SoundDuration": 250000,
      "Delta": 32699999
    },
    {
      "NoteNumber": 73,
      "Velocity": 110,
      "Duration": 250000,
      "SoundDuration": 250000,
      "Delta": 32699999
    },
    {
      "NoteNumber": 76,
      "Velocity": 110,
      "Duration": 250000,
      "SoundDuration": 250000,
      "Delta": 32699999
    },
    {
      "NoteNumber": 33,
      "Velocity": 110,
      "Duration": 146875,
      "SoundDuration": 146875,
      "Delta": 32699999
    },
    {
      "NoteNumber": 45,
      "Velocity": 110,
      "Duration": 146875,
      "SoundDuration": 146875,
      "Delta": 32699999
    },
    {
      "NoteNumber": 33,
      "Velocity": 110,
      "Duration": 249999,
      "SoundDuration": 249999,
      "Delta": 32850000
    },
    {
      "NoteNumber": 45,
      "Velocity": 110,
      "Duration": 249999,
      "SoundDuration": 249999,
      "Delta": 32850000
    },
    {
      "NoteNumber": 74,
      "Velocity": 110,
      "Duration": 146874,
      "SoundDuration": 146874,
      "Delta": 33000000
    },
    {
      "NoteNumber": 73,
      "Velocity": 110,
      "Duration": 146875,
      "SoundDuration": 146875,
      "Delta": 33150000
    },
    {
      "NoteNumber": 33,
      "Velocity": 110,
      "Duration": 146875,
      "SoundDuration": 146875,
      "Delta": 33150000
    },
    {
      "NoteNumber": 45,
      "Velocity": 110,
      "Duration": 146875,
      "SoundDuration": 146875,
      "Delta": 33150000
    },
    {
      "NoteNumber": 69,
      "Velocity": 110,
      "Duration": 250000,
      "SoundDuration": 250000,
      "Delta": 33299999
    },
    {
      "NoteNumber": 74,
      "Velocity": 110,
      "Duration": 250000,
      "SoundDuration": 250000,
      "Delta": 33299999
    },
    {
      "NoteNumber": 38,
      "Velocity": 110,
      "Duration": 250000,
      "SoundDuration": 250000,
      "Delta": 33299999
    },
    {
      "NoteNumber": 50,
      "Velocity": 110,
      "Duration": 250000,
      "SoundDuration": 250000,
      "Delta": 33299999
    },
    {
      "NoteNumber": 69,
      "Velocity": 110,
      "Duration": 249999,
      "SoundDuration": 249999,
      "Delta": 33600000
    },
    {
      "NoteNumber": 74,
      "Velocity": 110,
      "Duration": 249999,
      "SoundDuration": 249999,
      "Delta": 33600000
    },
    {
      "NoteNumber": 38,
      "Velocity": 110,
      "Duration": 249999,
      "SoundDuration": 249999,
      "Delta": 33600000
    },
    {
      "NoteNumber": 50,
      "Velocity": 110,
      "Duration": 249999,
      "SoundDuration": 249999,
      "Delta": 33600000
    },
    {
      "NoteNumber": 69,
      "Velocity": 110,
      "Duration": 250000,
      "SoundDuration": 250000,
      "Delta": 33900000
    },
    {
      "NoteNumber": 72,
      "Velocity": 110,
      "Duration": 250000,
      "SoundDuration": 250000,
      "Delta": 33900000
    },
    {
      "NoteNumber": 76,
      "Velocity": 110,
      "Duration": 250000,
      "SoundDuration": 250000,
      "Delta": 33900000
    },
    {
      "NoteNumber": 36,
      "Velocity": 110,
      "Duration": 250000,
      "SoundDuration": 250000,
      "Delta": 33900000
    },
    {
      "NoteNumber": 48,
      "Velocity": 110,
      "Duration": 250000,
      "SoundDuration": 250000,
      "Delta": 33900000
    },
    {
      "NoteNumber": 72,
      "Velocity": 110,
      "Duration": 250000,
      "SoundDuration": 250000,
      "Delta": 34199999
    },
    {
      "NoteNumber": 74,
      "Velocity": 110,
      "Duration": 250000,
      "SoundDuration": 250000,
      "Delta": 34199999
    },
    {
      "NoteNumber": 77,
      "Velocity": 110,
      "Duration": 250000,
      "SoundDuration": 250000,
      "Delta": 34199999
    },
    {
      "NoteNumber": 36,
      "Velocity": 110,
      "Duration": 250000,
      "SoundDuration": 250000,
      "Delta": 34199999
    },
    {
      "NoteNumber": 48,
      "Velocity": 110,
      "Duration": 250000,
      "SoundDuration": 250000,
      "Delta": 34199999
    },
    {
      "NoteNumber": 77,
      "Velocity": 110,
      "Duration": 146874,
      "SoundDuration": 146874,
      "Delta": 34500000
    },
    {
      "NoteNumber": 36,
      "Velocity": 110,
      "Duration": 250000,
      "SoundDuration": 250000,
      "Delta": 34500000
    },
    {
      "NoteNumber": 48,
      "Velocity": 110,
      "Duration": 250000,
      "SoundDuration": 250000,
      "Delta": 34500000
    },
    {
      "NoteNumber": 77,
      "Velocity": 110,
      "Duration": 146875,
      "SoundDuration": 146875,
      "Delta": 34650000
    },
    {
      "NoteNumber": 70,
      "Velocity": 110,
      "Duration": 250000,
      "SoundDuration": 250000,
      "Delta": 34800000
    },
    {
      "NoteNumber": 74,
      "Velocity": 110,
      "Duration": 250000,
      "SoundDuration": 250000,
      "Delta": 34800000
    },
    {
      "NoteNumber": 79,
      "Velocity": 110,
      "Duration": 250000,
      "SoundDuration": 250000,
      "Delta": 34800000
    },
    {
      "NoteNumber": 34,
      "Velocity": 110,
      "Duration": 250000,
      "SoundDuration": 250000,
      "Delta": 34800000
    },
    {
      "NoteNumber": 46,
      "Velocity": 110,
      "Duration": 250000,
      "SoundDuration": 250000,
      "Delta": 34800000
    },
    {
      "NoteNumber": 74,
      "Velocity": 110,
      "Duration": 146874,
      "SoundDuration": 146874,
      "Delta": 35100000
    },
    {
      "NoteNumber": 81,
      "Velocity": 110,
      "Duration": 146874,
      "SoundDuration": 146874,
      "Delta": 35100000
    },
    {
      "NoteNumber": 33,
      "Velocity": 110,
      "Duration": 249999,
      "SoundDuration": 249999,
      "Delta": 35100000
    },
    {
      "NoteNumber": 45,
      "Velocity": 110,
      "Duration": 249999,
      "SoundDuration": 249999,
      "Delta": 35100000
    },
    {
      "NoteNumber": 77,
      "Velocity": 110,
      "Duration": 146874,
      "SoundDuration": 146874,
      "Delta": 35250000
    },
    {
      "NoteNumber": 33,
      "Velocity": 110,
      "Duration": 146875,
      "SoundDuration": 146875,
      "Delta": 35400000
    },
    {
      "NoteNumber": 45,
      "Velocity": 110,
      "Duration": 146875,
      "SoundDuration": 146875,
      "Delta": 35400000
    },
    {
      "NoteNumber": 33,
      "Velocity": 110,
      "Duration": 250000,
      "SoundDuration": 250000,
      "Delta": 35550000
    },
    {
      "NoteNumber": 45,
      "Velocity": 110,
      "Duration": 250000,
      "SoundDuration": 250000,
      "Delta": 35550000
    },
    {
      "NoteNumber": 69,
      "Velocity": 110,
      "Duration": 146875,
      "SoundDuration": 146875,
      "Delta": 35699999
    },
    {
      "NoteNumber": 77,
      "Velocity": 110,
      "Duration": 146875,
      "SoundDuration": 146875,
      "Delta": 35699999
    },
    {
      "NoteNumber": 69,
      "Velocity": 110,
      "Duration": 146874,
      "SoundDuration": 146874,
      "Delta": 35850000
    },
    {
      "NoteNumber": 74,
      "Velocity": 110,
      "Duration": 146874,
      "SoundDuration": 146874,
      "Delta": 35850000
    },
    {
      "NoteNumber": 33,
      "Velocity": 110,
      "Duration": 146874,
      "SoundDuration": 146874,
      "Delta": 35850000
    },
    {
      "NoteNumber": 45,
      "Velocity": 110,
      "Duration": 146874,
      "SoundDuration": 146874,
      "Delta": 35850000
    },
    {
      "NoteNumber": 69,
      "Velocity": 110,
      "Duration": 146874,
      "SoundDuration": 146874,
      "Delta": 36000000
    },
    {
      "NoteNumber": 33,
      "Velocity": 110,
      "Duration": 250000,
      "SoundDuration": 250000,
      "Delta": 36000000
    },
    {
      "NoteNumber": 45,
      "Velocity": 110,
      "Duration": 250000,
      "SoundDuration": 250000,
      "Delta": 36000000
    },
    {
      "NoteNumber": 33,
      "Velocity": 110,
      "Duration": 146875,
      "SoundDuration": 146875,
      "Delta": 36300000
    },
    {
      "NoteNumber": 45,
      "Velocity": 110,
      "Duration": 146875,
      "SoundDuration": 146875,
      "Delta": 36300000
    },
    {
      "NoteNumber": 33,
      "Velocity": 110,
      "Duration": 250000,
      "SoundDuration": 250000,
      "Delta": 36449999
    },
    {
      "NoteNumber": 45,
      "Velocity": 110,
      "Duration": 250000,
      "SoundDuration": 250000,
      "Delta": 36449999
    },
    {
      "NoteNumber": 33,
      "Velocity": 110,
      "Duration": 146874,
      "SoundDuration": 146874,
      "Delta": 36750000
    },
    {
      "NoteNumber": 45,
      "Velocity": 110,
      "Duration": 146874,
      "SoundDuration": 146874,
      "Delta": 36750000
    },
    {
      "NoteNumber": 74,
      "Velocity": 110,
      "Duration": 146875,
      "SoundDuration": 146875,
      "Delta": 36900000
    },
    {
      "NoteNumber": 79,
      "Velocity": 110,
      "Duration": 146875,
      "SoundDuration": 146875,
      "Delta": 36900000
    },
    {
      "NoteNumber": 82,
      "Velocity": 110,
      "Duration": 146875,
      "SoundDuration": 146875,
      "Delta": 36900000
    },
    {
      "NoteNumber": 31,
      "Velocity": 110,
      "Duration": 250000,
      "SoundDuration": 250000,
      "Delta": 36900000
    },
    {
      "NoteNumber": 43,
      "Velocity": 110,
      "Duration": 250000,
      "SoundDuration": 250000,
      "Delta": 36900000
    },
    {
      "NoteNumber": 31,
      "Velocity": 110,
      "Duration": 146875,
      "SoundDuration": 146875,
      "Delta": 37199999
    },
    {
      "NoteNumber": 43,
      "Velocity": 110,
      "Duration": 146875,
      "SoundDuration": 146875,
      "Delta": 37199999
    },
    {
      "NoteNumber": 31,
      "Velocity": 110,
      "Duration": 249999,
      "SoundDuration": 249999,
      "Delta": 37350000
    },
    {
      "NoteNumber": 43,
      "Velocity": 110,
      "Duration": 249999,
      "SoundDuration": 249999,
      "Delta": 37350000
    },
    {
      "NoteNumber": 70,
      "Velocity": 110,
      "Duration": 146874,
      "SoundDuration": 146874,
      "Delta": 37500000
    },
    {
      "NoteNumber": 79,
      "Velocity": 110,
      "Duration": 146874,
      "SoundDuration": 146874,
      "Delta": 37500000
    },
    {
      "NoteNumber": 70,
      "Velocity": 110,
      "Duration": 146875,
      "SoundDuration": 146875,
      "Delta": 37650000
    },
    {
      "NoteNumber": 74,
      "Velocity": 110,
      "Duration": 146875,
      "SoundDuration": 146875,
      "Delta": 37650000
    },
    {
      "NoteNumber": 31,
      "Velocity": 110,
      "Duration": 146875,
      "SoundDuration": 146875,
      "Delta": 37650000
    },
    {
      "NoteNumber": 43,
      "Velocity": 110,
      "Duration": 146875,
      "SoundDuration": 146875,
      "Delta": 37650000
    },
    {
      "NoteNumber": 70,
      "Velocity": 110,
      "Duration": 146875,
      "SoundDuration": 146875,
      "Delta": 37800000
    },
    {
      "NoteNumber": 31,
      "Velocity": 110,
      "Duration": 250000,
      "SoundDuration": 250000,
      "Delta": 37800000
    },
    {
      "NoteNumber": 43,
      "Velocity": 110,
      "Duration": 250000,
      "SoundDuration": 250000,
      "Delta": 37800000
    },
    {
      "NoteNumber": 31,
      "Velocity": 110,
      "Duration": 146874,
      "SoundDuration": 146874,
      "Delta": 38100000
    },
    {
      "NoteNumber": 43,
      "Velocity": 110,
      "Duration": 146874,
      "SoundDuration": 146874,
      "Delta": 38100000
    },
    {
      "NoteNumber": 31,
      "Velocity": 110,
      "Duration": 250000,
      "SoundDuration": 250000,
      "Delta": 38250000
    },
    {
      "NoteNumber": 43,
      "Velocity": 110,
      "Duration": 250000,
      "SoundDuration": 250000,
      "Delta": 38250000
    },
    {
      "NoteNumber": 31,
      "Velocity": 110,
      "Duration": 146875,
      "SoundDuration": 146875,
      "Delta": 38550000
    },
    {
      "NoteNumber": 43,
      "Velocity": 110,
      "Duration": 146875,
      "SoundDuration": 146875,
      "Delta": 38550000
    },
    {
      "NoteNumber": 61,
      "Velocity": 110,
      "Duration": 146875,
      "SoundDuration": 146875,
      "Delta": 38699999
    },
    {
      "NoteNumber": 64,
      "Velocity": 110,
      "Duration": 146875,
      "SoundDuration": 146875,
      "Delta": 38699999
    },
    {
      "NoteNumber": 33,
      "Velocity": 110,
      "Duration": 250000,
      "SoundDuration": 250000,
      "Delta": 38699999
    },
    {
      "NoteNumber": 45,
      "Velocity": 110,
      "Duration": 250000,
      "SoundDuration": 250000,
      "Delta": 38699999
    },
    {
      "NoteNumber": 61,
      "Velocity": 110,
      "Duration": 250000,
      "SoundDuration": 250000,
      "Delta": 38850000
    },
    {
      "NoteNumber": 64,
      "Velocity": 110,
      "Duration": 250000,
      "SoundDuration": 250000,
      "Delta": 38850000
    },
    {
      "NoteNumber": 33,
      "Velocity": 110,
      "Duration": 146875,
      "SoundDuration": 146875,
      "Delta": 39000000
    },
    {
      "NoteNumber": 45,
      "Velocity": 110,
      "Duration": 146875,
      "SoundDuration": 146875,
      "Delta": 39000000
    },
    {
      "NoteNumber": 55,
      "Velocity": 110,
      "Duration": 400000,
      "SoundDuration": 400000,
      "Delta": 39150000
    },
    {
      "NoteNumber": 62,
      "Velocity": 110,
      "Duration": 400000,
      "SoundDuration": 400000,
      "Delta": 39150000
    },
    {
      "NoteNumber": 33,
      "Velocity": 110,
      "Duration": 250000,
      "SoundDuration": 250000,
      "Delta": 39150000
    },
    {
      "NoteNumber": 45,
      "Velocity": 110,
      "Duration": 250000,
      "SoundDuration": 250000,
      "Delta": 39150000
    },
    {
      "NoteNumber": 33,
      "Velocity": 110,
      "Duration": 146875,
      "SoundDuration": 146875,
      "Delta": 39449999
    },
    {
      "NoteNumber": 45,
      "Velocity": 110,
      "Duration": 146875,
      "SoundDuration": 146875,
      "Delta": 39449999
    },
    {
      "NoteNumber": 57,
      "Velocity": 110,
      "Duration": 399999,
      "SoundDuration": 399999,
      "Delta": 39600000
    },
    {
      "NoteNumber": 61,
      "Velocity": 110,
      "Duration": 399999,
      "SoundDuration": 399999,
      "Delta": 39600000
    },
    {
      "NoteNumber": 65,
      "Velocity": 110,
      "Duration": 399999,
      "SoundDuration": 399999,
      "Delta": 39600000
    },
    {
      "NoteNumber": 33,
      "Velocity": 110,
      "Duration": 250000,
      "SoundDuration": 250000,
      "Delta": 39600000
    },
    {
      "NoteNumber": 45,
      "Velocity": 110,
      "Duration": 250000,
      "SoundDuration": 250000,
      "Delta": 39600000
    },
    {
      "NoteNumber": 33,
      "Velocity": 110,
      "Duration": 146875,
      "SoundDuration": 146875,
      "Delta": 39900000
    },
    {
      "NoteNumber": 45,
      "Velocity": 110,
      "Duration": 146875,
      "SoundDuration": 146875,
      "Delta": 39900000
    },
    {
      "NoteNumber": 33,
      "Velocity": 110,
      "Duration": 250000,
      "SoundDuration": 250000,
      "Delta": 40050000
    },
    {
      "NoteNumber": 45,
      "Velocity": 110,
      "Duration": 250000,
      "SoundDuration": 250000,
      "Delta": 40050000
    },
    {
      "NoteNumber": 65,
      "Velocity": 110,
      "Duration": 146875,
      "SoundDuration": 146875,
      "Delta": 40199999
    },
    {
      "NoteNumber": 67,
      "Velocity": 110,
      "Duration": 146875,
      "SoundDuration": 146875,
      "Delta": 40350000
    },
    {
      "NoteNumber": 33,
      "Velocity": 110,
      "Duration": 146875,
      "SoundDuration": 146875,
      "Delta": 40350000
    },
    {
      "NoteNumber": 45,
      "Velocity": 110,
      "Duration": 146875,
      "SoundDuration": 146875,
      "Delta": 40350000
    },
    {
      "NoteNumber": 62,
      "Velocity": 110,
      "Duration": 250000,
      "SoundDuration": 250000,
      "Delta": 40500000
    },
    {
      "NoteNumber": 65,
      "Velocity": 110,
      "Duration": 250000,
      "SoundDuration": 250000,
      "Delta": 40500000
    },
    {
      "NoteNumber": 69,
      "Velocity": 110,
      "Duration": 250000,
      "SoundDuration": 250000,
      "Delta": 40500000
    },
    {
      "NoteNumber": 38,
      "Velocity": 110,
      "Duration": 250000,
      "SoundDuration": 250000,
      "Delta": 40500000
    },
    {
      "NoteNumber": 50,
      "Velocity": 110,
      "Duration": 250000,
      "SoundDuration": 250000,
      "Delta": 40500000
    },
    {
      "NoteNumber": 62,
      "Velocity": 110,
      "Duration": 250000,
      "SoundDuration": 250000,
      "Delta": 40800000
    },
    {
      "NoteNumber": 65,
      "Velocity": 110,
      "Duration": 250000,
      "SoundDuration": 250000,
      "Delta": 40800000
    },
    {
      "NoteNumber": 69,
      "Velocity": 110,
      "Duration": 250000,
      "SoundDuration": 250000,
      "Delta": 40800000
    },
    {
      "NoteNumber": 38,
      "Velocity": 110,
      "Duration": 146875,
      "SoundDuration": 146875,
      "Delta": 40800000
    },
    {
      "NoteNumber": 50,
      "Velocity": 110,
      "Duration": 146875,
      "SoundDuration": 146875,
      "Delta": 40800000
    },
    {
      "NoteNumber": 38,
      "Velocity": 110,
      "Duration": 250000,
      "SoundDuration": 250000,
      "Delta": 40949999
    },
    {
      "NoteNumber": 50,
      "Velocity": 110,
      "Duration": 250000,
      "SoundDuration": 250000,
      "Delta": 40949999
    },
    {
      "NoteNumber": 62,
      "Velocity": 110,
      "Duration": 250000,
      "SoundDuration": 250000,
      "Delta": 41100000
    },
    {
      "NoteNumber": 65,
      "Velocity": 110,
      "Duration": 250000,
      "SoundDuration": 250000,
      "Delta": 41100000
    },
    {
      "NoteNumber": 69,
      "Velocity": 110,
      "Duration": 250000,
      "SoundDuration": 250000,
      "Delta": 41100000
    },
    {
      "NoteNumber": 38,
      "Velocity": 110,
      "Duration": 146875,
      "SoundDuration": 146875,
      "Delta": 41250000
    },
    {
      "NoteNumber": 50,
      "Velocity": 110,
      "Duration": 146875,
      "SoundDuration": 146875,
      "Delta": 41250000
    },
    {
      "NoteNumber": 62,
      "Velocity": 110,
      "Duration": 146875,
      "SoundDuration": 146875,
      "Delta": 41400000
    },
    {
      "NoteNumber": 65,
      "Velocity": 110,
      "Duration": 146875,
      "SoundDuration": 146875,
      "Delta": 41400000
    },
    {
      "NoteNumber": 70,
      "Velocity": 110,
      "Duration": 146875,
      "SoundDuration": 146875,
      "Delta": 41400000
    },
    {
      "NoteNumber": 38,
      "Velocity": 110,
      "Duration": 250000,
      "SoundDuration": 250000,
      "Delta": 41400000
    },
    {
      "NoteNumber": 50,
      "Velocity": 110,
      "Duration": 250000,
      "SoundDuration": 250000,
      "Delta": 41400000
    },
    {
      "NoteNumber": 62,
      "Velocity": 110,
      "Duration": 146875,
      "SoundDuration": 146875,
      "Delta": 41550000
    },
    {
      "NoteNumber": 65,
      "Velocity": 110,
      "Duration": 146875,
      "SoundDuration": 146875,
      "Delta": 41550000
    },
    {
      "NoteNumber": 69,
      "Velocity": 110,
      "Duration": 146875,
      "SoundDuration": 146875,
      "Delta": 41550000
    },
    {
      "NoteNumber": 38,
      "Velocity": 110,
      "Duration": 146875,
      "SoundDuration": 146875,
      "Delta": 41699999
    },
    {
      "NoteNumber": 50,
      "Velocity": 110,
      "Duration": 146875,
      "SoundDuration": 146875,
      "Delta": 41699999
    },
    {
      "NoteNumber": 38,
      "Velocity": 110,
      "Duration": 146875,
      "SoundDuration": 146875,
      "Delta": 41850000
    },
    {
      "NoteNumber": 50,
      "Velocity": 110,
      "Duration": 146875,
      "SoundDuration": 146875,
      "Delta": 41850000
    },
    {
      "NoteNumber": 38,
      "Velocity": 110,
      "Duration": 146875,
      "SoundDuration": 146875,
      "Delta": 42000000
    },
    {
      "NoteNumber": 50,
      "Velocity": 110,
      "Duration": 146875,
      "SoundDuration": 146875,
      "Delta": 42000000
    },
    {
      "NoteNumber": 38,
      "Velocity": 110,
      "Duration": 146875,
      "SoundDuration": 146875,
      "Delta": 42150000
    },
    {
      "NoteNumber": 50,
      "Velocity": 110,
      "Duration": 146875,
      "SoundDuration": 146875,
      "Delta": 42150000
    },
    {
      "NoteNumber": 60,
      "Velocity": 110,
      "Duration": 250000,
      "SoundDuration": 250000,
      "Delta": 42300000
    },
    {
      "NoteNumber": 64,
      "Velocity": 110,
      "Duration": 250000,
      "SoundDuration": 250000,
      "Delta": 42300000
    },
    {
      "NoteNumber": 67,
      "Velocity": 110,
      "Duration": 250000,
      "SoundDuration": 250000,
      "Delta": 42300000
    },
    {
      "NoteNumber": 36,
      "Velocity": 110,
      "Duration": 250000,
      "SoundDuration": 250000,
      "Delta": 42300000
    },
    {
      "NoteNumber": 48,
      "Velocity": 110,
      "Duration": 250000,
      "SoundDuration": 250000,
      "Delta": 42300000
    },
    {
      "NoteNumber": 60,
      "Velocity": 110,
      "Duration": 250000,
      "SoundDuration": 250000,
      "Delta": 42600000
    },
    {
      "NoteNumber": 64,
      "Velocity": 110,
      "Duration": 250000,
      "SoundDuration": 250000,
      "Delta": 42600000
    },
    {
      "NoteNumber": 67,
      "Velocity": 110,
      "Duration": 250000,
      "SoundDuration": 250000,
      "Delta": 42600000
    },
    {
      "NoteNumber": 36,
      "Velocity": 110,
      "Duration": 146875,
      "SoundDuration": 146875,
      "Delta": 42600000
    },
    {
      "NoteNumber": 48,
      "Velocity": 110,
      "Duration": 146875,
      "SoundDuration": 146875,
      "Delta": 42600000
    },
    {
      "NoteNumber": 36,
      "Velocity": 110,
      "Duration": 250000,
      "SoundDuration": 250000,
      "Delta": 42750000
    },
    {
      "NoteNumber": 48,
      "Velocity": 110,
      "Duration": 250000,
      "SoundDuration": 250000,
      "Delta": 42750000
    },
    {
      "NoteNumber": 60,
      "Velocity": 110,
      "Duration": 250000,
      "SoundDuration": 250000,
      "Delta": 42900000
    },
    {
      "NoteNumber": 64,
      "Velocity": 110,
      "Duration": 250000,
      "SoundDuration": 250000,
      "Delta": 42900000
    },
    {
      "NoteNumber": 67,
      "Velocity": 110,
      "Duration": 250000,
      "SoundDuration": 250000,
      "Delta": 42900000
    },
    {
      "NoteNumber": 36,
      "Velocity": 110,
      "Duration": 146875,
      "SoundDuration": 146875,
      "Delta": 43050000
    },
    {
      "NoteNumber": 48,
      "Velocity": 110,
      "Duration": 146875,
      "SoundDuration": 146875,
      "Delta": 43050000
    },
    {
      "NoteNumber": 60,
      "Velocity": 110,
      "Duration": 146875,
      "SoundDuration": 146875,
      "Delta": 43199999
    },
    {
      "NoteNumber": 64,
      "Velocity": 110,
      "Duration": 146875,
      "SoundDuration": 146875,
      "Delta": 43199999
    },
    {
      "NoteNumber": 67,
      "Velocity": 110,
      "Duration": 146875,
      "SoundDuration": 146875,
      "Delta": 43199999
    },
    {
      "NoteNumber": 41,
      "Velocity": 110,
      "Duration": 250000,
      "SoundDuration": 250000,
      "Delta": 43199999
    },
    {
      "NoteNumber": 53,
      "Velocity": 110,
      "Duration": 250000,
      "SoundDuration": 250000,
      "Delta": 43199999
    },
    {
      "NoteNumber": 60,
      "Velocity": 110,
      "Duration": 146875,
      "SoundDuration": 146875,
      "Delta": 43350000
    },
    {
      "NoteNumber": 65,
      "Velocity": 110,
      "Duration": 146875,
      "SoundDuration": 146875,
      "Delta": 43350000
    },
    {
      "NoteNumber": 69,
      "Velocity": 110,
      "Duration": 146875,
      "SoundDuration": 146875,
      "Delta": 43350000
    },
    {
      "NoteNumber": 41,
      "Velocity": 110,
      "Duration": 146875,
      "SoundDuration": 146875,
      "Delta": 43500000
    },
    {
      "NoteNumber": 53,
      "Velocity": 110,
      "Duration": 146875,
      "SoundDuration": 146875,
      "Delta": 43500000
    },
    {
      "NoteNumber": 41,
      "Velocity": 110,
      "Duration": 146875,
      "SoundDuration": 146875,
      "Delta": 43650000
    },
    {
      "NoteNumber": 53,
      "Velocity": 110,
      "Duration": 146875,
      "SoundDuration": 146875,
      "Delta": 43650000
    },
    {
      "NoteNumber": 41,
      "Velocity": 110,
      "Duration": 146875,
      "SoundDuration": 146875,
      "Delta": 43800000
    },
    {
      "NoteNumber": 53,
      "Velocity": 110,
      "Duration": 146875,
      "SoundDuration": 146875,
      "Delta": 43800000
    },
    {
      "NoteNumber": 41,
      "Velocity": 110,
      "Duration": 146875,
      "SoundDuration": 146875,
      "Delta": 43949999
    },
    {
      "NoteNumber": 53,
      "Velocity": 110,
      "Duration": 146875,
      "SoundDuration": 146875,
      "Delta": 43949999
    },
    {
      "NoteNumber": 62,
      "Velocity": 110,
      "Duration": 250000,
      "SoundDuration": 250000,
      "Delta": 44100000
    },
    {
      "NoteNumber": 65,
      "Velocity": 110,
      "Duration": 250000,
      "SoundDuration": 250000,
      "Delta": 44100000
    },
    {
      "NoteNumber": 69,
      "Velocity": 110,
      "Duration": 250000,
      "SoundDuration": 250000,
      "Delta": 44100000
    },
    {
      "NoteNumber": 38,
      "Velocity": 110,
      "Duration": 250000,
      "SoundDuration": 250000,
      "Delta": 44100000
    },
    {
      "NoteNumber": 50,
      "Velocity": 110,
      "Duration": 250000,
      "SoundDuration": 250000,
      "Delta": 44100000
    },
    {
      "NoteNumber": 62,
      "Velocity": 110,
      "Duration": 250000,
      "SoundDuration": 250000,
      "Delta": 44400000
    },
    {
      "NoteNumber": 65,
      "Velocity": 110,
      "Duration": 250000,
      "SoundDuration": 250000,
      "Delta": 44400000
    },
    {
      "NoteNumber": 69,
      "Velocity": 110,
      "Duration": 250000,
      "SoundDuration": 250000,
      "Delta": 44400000
    },
    {
      "NoteNumber": 38,
      "Velocity": 110,
      "Duration": 146875,
      "SoundDuration": 146875,
      "Delta": 44400000
    },
    {
      "NoteNumber": 50,
      "Velocity": 110,
      "Duration": 146875,
      "SoundDuration": 146875,
      "Delta": 44400000
    },
    {
      "NoteNumber": 38,
      "Velocity": 110,
      "Duration": 250000,
      "SoundDuration": 250000,
      "Delta": 44550000
    },
    {
      "NoteNumber": 50,
      "Velocity": 110,
      "Duration": 250000,
      "SoundDuration": 250000,
      "Delta": 44550000
    },
    {
      "NoteNumber": 62,
      "Velocity": 110,
      "Duration": 250000,
      "SoundDuration": 250000,
      "Delta": 44699999
    },
    {
      "NoteNumber": 65,
      "Velocity": 110,
      "Duration": 250000,
      "SoundDuration": 250000,
      "Delta": 44699999
    },
    {
      "NoteNumber": 69,
      "Velocity": 110,
      "Duration": 250000,
      "SoundDuration": 250000,
      "Delta": 44699999
    },
    {
      "NoteNumber": 38,
      "Velocity": 110,
      "Duration": 146875,
      "SoundDuration": 146875,
      "Delta": 44850000
    },
    {
      "NoteNumber": 50,
      "Velocity": 110,
      "Duration": 146875,
      "SoundDuration": 146875,
      "Delta": 44850000
    },
    {
      "NoteNumber": 62,
      "Velocity": 110,
      "Duration": 146875,
      "SoundDuration": 146875,
      "Delta": 45000000
    },
    {
      "NoteNumber": 65,
      "Velocity": 110,
      "Duration": 146875,
      "SoundDuration": 146875,
      "Delta": 45000000
    },
    {
      "NoteNumber": 70,
      "Velocity": 110,
      "Duration": 146875,
      "SoundDuration": 146875,
      "Delta": 45000000
    },
    {
      "NoteNumber": 38,
      "Velocity": 110,
      "Duration": 250000,
      "SoundDuration": 250000,
      "Delta": 45000000
    },
    {
      "NoteNumber": 50,
      "Velocity": 110,
      "Duration": 250000,
      "SoundDuration": 250000,
      "Delta": 45000000
    },
    {
      "NoteNumber": 62,
      "Velocity": 110,
      "Duration": 146875,
      "SoundDuration": 146875,
      "Delta": 45150000
    },
    {
      "NoteNumber": 65,
      "Velocity": 110,
      "Duration": 146875,
      "SoundDuration": 146875,
      "Delta": 45150000
    },
    {
      "NoteNumber": 69,
      "Velocity": 110,
      "Duration": 146875,
      "SoundDuration": 146875,
      "Delta": 45150000
    },
    {
      "NoteNumber": 38,
      "Velocity": 110,
      "Duration": 146875,
      "SoundDuration": 146875,
      "Delta": 45300000
    },
    {
      "NoteNumber": 50,
      "Velocity": 110,
      "Duration": 146875,
      "SoundDuration": 146875,
      "Delta": 45300000
    },
    {
      "NoteNumber": 38,
      "Velocity": 110,
      "Duration": 146875,
      "SoundDuration": 146875,
      "Delta": 45449999
    },
    {
      "NoteNumber": 50,
      "Velocity": 110,
      "Duration": 146875,
      "SoundDuration": 146875,
      "Delta": 45449999
    },
    {
      "NoteNumber": 38,
      "Velocity": 110,
      "Duration": 146875,
      "SoundDuration": 146875,
      "Delta": 45600000
    },
    {
      "NoteNumber": 50,
      "Velocity": 110,
      "Duration": 146875,
      "SoundDuration": 146875,
      "Delta": 45600000
    },
    {
      "NoteNumber": 38,
      "Velocity": 110,
      "Duration": 146875,
      "SoundDuration": 146875,
      "Delta": 45750000
    },
    {
      "NoteNumber": 50,
      "Velocity": 110,
      "Duration": 146875,
      "SoundDuration": 146875,
      "Delta": 45750000
    },
    {
      "NoteNumber": 61,
      "Velocity": 110,
      "Duration": 250000,
      "SoundDuration": 250000,
      "Delta": 45900000
    },
    {
      "NoteNumber": 64,
      "Velocity": 110,
      "Duration": 250000,
      "SoundDuration": 250000,
      "Delta": 45900000
    },
    {
      "NoteNumber": 67,
      "Velocity": 110,
      "Duration": 250000,
      "SoundDuration": 250000,
      "Delta": 45900000
    },
    {
      "NoteNumber": 33,
      "Velocity": 110,
      "Duration": 250000,
      "SoundDuration": 250000,
      "Delta": 45900000
    },
    {
      "NoteNumber": 45,
      "Velocity": 110,
      "Duration": 250000,
      "SoundDuration": 250000,
      "Delta": 45900000
    },
    {
      "NoteNumber": 61,
      "Velocity": 110,
      "Duration": 250000,
      "SoundDuration": 250000,
      "Delta": 46199999
    },
    {
      "NoteNumber": 65,
      "Velocity": 110,
      "Duration": 250000,
      "SoundDuration": 250000,
      "Delta": 46199999
    },
    {
      "NoteNumber": 33,
      "Velocity": 110,
      "Duration": 146875,
      "SoundDuration": 146875,
      "Delta": 46199999
    },
    {
      "NoteNumber": 45,
      "Velocity": 110,
      "Duration": 146875,
      "SoundDuration": 146875,
      "Delta": 46199999
    },
    {
      "NoteNumber": 33,
      "Velocity": 110,
      "Duration": 250000,
      "SoundDuration": 250000,
      "Delta": 46350000
    },
    {
      "NoteNumber": 45,
      "Velocity": 110,
      "Duration": 250000,
      "SoundDuration": 250000,
      "Delta": 46350000
    },
    {
      "NoteNumber": 57,
      "Velocity": 110,
      "Duration": 250000,
      "SoundDuration": 250000,
      "Delta": 46500000
    },
    {
      "NoteNumber": 64,
      "Velocity": 110,
      "Duration": 250000,
      "SoundDuration": 250000,
      "Delta": 46500000
    },
    {
      "NoteNumber": 33,
      "Velocity": 110,
      "Duration": 146875,
      "SoundDuration": 146875,
      "Delta": 46650000
    },
    {
      "NoteNumber": 45,
      "Velocity": 110,
      "Duration": 146875,
      "SoundDuration": 146875,
      "Delta": 46650000
    },
    {
      "NoteNumber": 53,
      "Velocity": 110,
      "Duration": 250000,
      "SoundDuration": 250000,
      "Delta": 46800000
    },
    {
      "NoteNumber": 57,
      "Velocity": 110,
      "Duration": 250000,
      "SoundDuration": 250000,
      "Delta": 46800000
    },
    {
      "NoteNumber": 62,
      "Velocity": 110,
      "Duration": 250000,
      "SoundDuration": 250000,
      "Delta": 46800000
    },
    {
      "NoteNumber": 38,
      "Velocity": 110,
      "Duration": 250000,
      "SoundDuration": 250000,
      "Delta": 46800000
    },
    {
      "NoteNumber": 50,
      "Velocity": 110,
      "Duration": 250000,
      "SoundDuration": 250000,
      "Delta": 46800000
    },
    {
      "NoteNumber": 38,
      "Velocity": 110,
      "Duration": 146875,
      "SoundDuration": 146875,
      "Delta": 47100000
    },
    {
      "NoteNumber": 50,
      "Velocity": 110,
      "Duration": 146875,
      "SoundDuration": 146875,
      "Delta": 47100000
    },
    {
      "NoteNumber": 38,
      "Velocity": 110,
      "Duration": 250000,
      "SoundDuration": 250000,
      "Delta": 47250000
    },
    {
      "NoteNumber": 50,
      "Velocity": 110,
      "Duration": 250000,
      "SoundDuration": 250000,
      "Delta": 47250000
    },
    {
      "NoteNumber": 62,
      "Velocity": 110,
      "Duration": 146875,
      "SoundDuration": 146875,
      "Delta": 47400000
    },
    {
      "NoteNumber": 64,
      "Velocity": 110,
      "Duration": 146875,
      "SoundDuration": 146875,
      "Delta": 47550000
    },
    {
      "NoteNumber": 38,
      "Velocity": 110,
      "Duration": 146875,
      "SoundDuration": 146875,
      "Delta": 47550000
    },
    {
      "NoteNumber": 50,
      "Velocity": 110,
      "Duration": 146875,
      "SoundDuration": 146875,
      "Delta": 47550000
    },
    {
      "NoteNumber": 57,
      "Velocity": 110,
      "Duration": 525000,
      "SoundDuration": 525000,
      "Delta": 47699999
    },
    {
      "NoteNumber": 62,
      "Velocity": 110,
      "Duration": 525000,
      "SoundDuration": 525000,
      "Delta": 47699999
    },
    {
      "NoteNumber": 65,
      "Velocity": 110,
      "Duration": 525000,
      "SoundDuration": 525000,
      "Delta": 47699999
    },
    {
      "NoteNumber": 38,
      "Velocity": 110,
      "Duration": 250000,
      "SoundDuration": 250000,
      "Delta": 47699999
    },
    {
      "NoteNumber": 50,
      "Velocity": 110,
      "Duration": 250000,
      "SoundDuration": 250000,
      "Delta": 47699999
    },
    {
      "NoteNumber": 38,
      "Velocity": 110,
      "Duration": 146875,
      "SoundDuration": 146875,
      "Delta": 48000000
    },
    {
      "NoteNumber": 50,
      "Velocity": 110,
      "Duration": 146875,
      "SoundDuration": 146875,
      "Delta": 48000000
    },
    {
      "NoteNumber": 38,
      "Velocity": 110,
      "Duration": 250000,
      "SoundDuration": 250000,
      "Delta": 48150000
    },
    {
      "NoteNumber": 50,
      "Velocity": 110,
      "Duration": 250000,
      "SoundDuration": 250000,
      "Delta": 48150000
    },
    {
      "NoteNumber": 67,
      "Velocity": 110,
      "Duration": 146875,
      "SoundDuration": 146875,
      "Delta": 48300000
    },
    {
      "NoteNumber": 69,
      "Velocity": 110,
      "Duration": 146875,
      "SoundDuration": 146875,
      "Delta": 48449999
    },
    {
      "NoteNumber": 38,
      "Velocity": 110,
      "Duration": 146875,
      "SoundDuration": 146875,
      "Delta": 48449999
    },
    {
      "NoteNumber": 50,
      "Velocity": 110,
      "Duration": 146875,
      "SoundDuration": 146875,
      "Delta": 48449999
    },
    {
      "NoteNumber": 60,
      "Velocity": 110,
      "Duration": 250000,
      "SoundDuration": 250000,
      "Delta": 48600000
    },
    {
      "NoteNumber": 67,
      "Velocity": 110,
      "Duration": 250000,
      "SoundDuration": 250000,
      "Delta": 48600000
    },
    {
      "NoteNumber": 36,
      "Velocity": 110,
      "Duration": 250000,
      "SoundDuration": 250000,
      "Delta": 48600000
    },
    {
      "NoteNumber": 48,
      "Velocity": 110,
      "Duration": 250000,
      "SoundDuration": 250000,
      "Delta": 48600000
    },
    {
      "NoteNumber": 60,
      "Velocity": 110,
      "Duration": 250000,
      "SoundDuration": 250000,
      "Delta": 48900000
    },
    {
      "NoteNumber": 65,
      "Velocity": 110,
      "Duration": 250000,
      "SoundDuration": 250000,
      "Delta": 48900000
    },
    {
      "NoteNumber": 36,
      "Velocity": 110,
      "Duration": 146875,
      "SoundDuration": 146875,
      "Delta": 48900000
    },
    {
      "NoteNumber": 48,
      "Velocity": 110,
      "Duration": 146875,
      "SoundDuration": 146875,
      "Delta": 48900000
    },
    {
      "NoteNumber": 36,
      "Velocity": 110,
      "Duration": 146875,
      "SoundDuration": 146875,
      "Delta": 49050000
    },
    {
      "NoteNumber": 48,
      "Velocity": 110,
      "Duration": 146875,
      "SoundDuration": 146875,
      "Delta": 49050000
    },
    {
      "NoteNumber": 60,
      "Velocity": 110,
      "Duration": 250000,
      "SoundDuration": 250000,
      "Delta": 49199999
    },
    {
      "NoteNumber": 64,
      "Velocity": 110,
      "Duration": 250000,
      "SoundDuration": 250000,
      "Delta": 49199999
    },
    {
      "NoteNumber": 36,
      "Velocity": 110,
      "Duration": 146875,
      "SoundDuration": 146875,
      "Delta": 49199999
    },
    {
      "NoteNumber": 48,
      "Velocity": 110,
      "Duration": 146875,
      "SoundDuration": 146875,
      "Delta": 49199999
    },
    {
      "NoteNumber": 36,
      "Velocity": 110,
      "Duration": 146875,
      "SoundDuration": 146875,
      "Delta": 49350000
    },
    {
      "NoteNumber": 48,
      "Velocity": 110,
      "Duration": 146875,
      "SoundDuration": 146875,
      "Delta": 49350000
    },
    {
      "NoteNumber": 57,
      "Velocity": 110,
      "Duration": 250000,
      "SoundDuration": 250000,
      "Delta": 49500000
    },
    {
      "NoteNumber": 60,
      "Velocity": 110,
      "Duration": 250000,
      "SoundDuration": 250000,
      "Delta": 49500000
    },
    {
      "NoteNumber": 65,
      "Velocity": 110,
      "Duration": 250000,
      "SoundDuration": 250000,
      "Delta": 49500000
    },
    {
      "NoteNumber": 41,
      "Velocity": 110,
      "Duration": 250000,
      "SoundDuration": 250000,
      "Delta": 49500000
    },
    {
      "NoteNumber": 53,
      "Velocity": 110,
      "Duration": 250000,
      "SoundDuration": 250000,
      "Delta": 49500000
    },
    {
      "NoteNumber": 57,
      "Velocity": 110,
      "Duration": 250000,
      "SoundDuration": 250000,
      "Delta": 49800000
    },
    {
      "NoteNumber": 60,
      "Velocity": 110,
      "Duration": 250000,
      "SoundDuration": 250000,
      "Delta": 49800000
    },
    {
      "NoteNumber": 67,
      "Velocity": 110,
      "Duration": 250000,
      "SoundDuration": 250000,
      "Delta": 49800000
    },
    {
      "NoteNumber": 41,
      "Velocity": 110,
      "Duration": 146875,
      "SoundDuration": 146875,
      "Delta": 49800000
    },
    {
      "NoteNumber": 53,
      "Velocity": 110,
      "Duration": 146875,
      "SoundDuration": 146875,
      "Delta": 49800000
    },
    {
      "NoteNumber": 41,
      "Velocity": 110,
      "Duration": 146875,
      "SoundDuration": 146875,
      "Delta": 49949999
    },
    {
      "NoteNumber": 53,
      "Velocity": 110,
      "Duration": 146875,
      "SoundDuration": 146875,
      "Delta": 49949999
    },
    {
      "NoteNumber": 57,
      "Velocity": 110,
      "Duration": 250000,
      "SoundDuration": 250000,
      "Delta": 50100000
    },
    {
      "NoteNumber": 60,
      "Velocity": 110,
      "Duration": 250000,
      "SoundDuration": 250000,
      "Delta": 50100000
    },
    {
      "NoteNumber": 69,
      "Velocity": 110,
      "Duration": 250000,
      "SoundDuration": 250000,
      "Delta": 50100000
    },
    {
      "NoteNumber": 41,
      "Velocity": 110,
      "Duration": 146875,
      "SoundDuration": 146875,
      "Delta": 50100000
    },
    {
      "NoteNumber": 53,
      "Velocity": 110,
      "Duration": 146875,
      "SoundDuration": 146875,
      "Delta": 50100000
    },
    {
      "NoteNumber": 41,
      "Velocity": 110,
      "Duration": 146875,
      "SoundDuration": 146875,
      "Delta": 50250000
    },
    {
      "NoteNumber": 53,
      "Velocity": 110,
      "Duration": 146875,
      "SoundDuration": 146875,
      "Delta": 50250000
    },
    {
      "NoteNumber": 60,
      "Velocity": 110,
      "Duration": 250000,
      "SoundDuration": 250000,
      "Delta": 50400000
    },
    {
      "NoteNumber": 64,
      "Velocity": 110,
      "Duration": 250000,
      "SoundDuration": 250000,
      "Delta": 50400000
    },
    {
      "NoteNumber": 67,
      "Velocity": 110,
      "Duration": 250000,
      "SoundDuration": 250000,
      "Delta": 50400000
    },
    {
      "NoteNumber": 36,
      "Velocity": 110,
      "Duration": 250000,
      "SoundDuration": 250000,
      "Delta": 50400000
    },
    {
      "NoteNumber": 48,
      "Velocity": 110,
      "Duration": 250000,
      "SoundDuration": 250000,
      "Delta": 50400000
    },
    {
      "NoteNumber": 36,
      "Velocity": 110,
      "Duration": 146875,
      "SoundDuration": 146875,
      "Delta": 50699999
    },
    {
      "NoteNumber": 48,
      "Velocity": 110,
      "Duration": 146875,
      "SoundDuration": 146875,
      "Delta": 50699999
    },
    {
      "NoteNumber": 36,
      "Velocity": 110,
      "Duration": 146875,
      "SoundDuration": 146875,
      "Delta": 50850000
    },
    {
      "NoteNumber": 48,
      "Velocity": 110,
      "Duration": 146875,
      "SoundDuration": 146875,
      "Delta": 50850000
    },
    {
      "NoteNumber": 65,
      "Velocity": 110,
      "Duration": 146875,
      "SoundDuration": 146875,
      "Delta": 51000000
    },
    {
      "NoteNumber": 36,
      "Velocity": 110,
      "Duration": 146875,
      "SoundDuration": 146875,
      "Delta": 51000000
    },
    {
      "NoteNumber": 48,
      "Velocity": 110,
      "Duration": 146875,
      "SoundDuration": 146875,
      "Delta": 51000000
    },
    {
      "NoteNumber": 67,
      "Velocity": 110,
      "Duration": 146875,
      "SoundDuration": 146875,
      "Delta": 51150000
    },
    {
      "NoteNumber": 36,
      "Velocity": 110,
      "Duration": 146875,
      "SoundDuration": 146875,
      "Delta": 51150000
    },
    {
      "NoteNumber": 48,
      "Velocity": 110,
      "Duration": 146875,
      "SoundDuration": 146875,
      "Delta": 51150000
    },
    {
      "NoteNumber": 60,
      "Velocity": 110,
      "Duration": 250000,
      "SoundDuration": 250000,
      "Delta": 51300000
    },
    {
      "NoteNumber": 65,
      "Velocity": 110,
      "Duration": 250000,
      "SoundDuration": 250000,
      "Delta": 51300000
    },
    {
      "NoteNumber": 69,
      "Velocity": 110,
      "Duration": 250000,
      "SoundDuration": 250000,
      "Delta": 51300000
    },
    {
      "NoteNumber": 41,
      "Velocity": 110,
      "Duration": 250000,
      "SoundDuration": 250000,
      "Delta": 51300000
    },
    {
      "NoteNumber": 53,
      "Velocity": 110,
      "Duration": 250000,
      "SoundDuration": 250000,
      "Delta": 51300000
    },
    {
      "NoteNumber": 41,
      "Velocity": 110,
      "Duration": 146875,
      "SoundDuration": 146875,
      "Delta": 51600000
    },
    {
      "NoteNumber": 53,
      "Velocity": 110,
      "Duration": 146875,
      "SoundDuration": 146875,
      "Delta": 51600000
    },
    {
      "NoteNumber": 41,
      "Velocity": 110,
      "Duration": 146875,
      "SoundDuration": 146875,
      "Delta": 51750000
    },
    {
      "NoteNumber": 53,
      "Velocity": 110,
      "Duration": 146875,
      "SoundDuration": 146875,
      "Delta": 51750000
    },
    {
      "NoteNumber": 67,
      "Velocity": 110,
      "Duration": 146875,
      "SoundDuration": 146875,
      "Delta": 51900000
    },
    {
      "NoteNumber": 41,
      "Velocity": 110,
      "Duration": 146875,
      "SoundDuration": 146875,
      "Delta": 51900000
    },
    {
      "NoteNumber": 53,
      "Velocity": 110,
      "Duration": 146875,
      "SoundDuration": 146875,
      "Delta": 51900000
    },
    {
      "NoteNumber": 65,
      "Velocity": 110,
      "Duration": 146875,
      "SoundDuration": 146875,
      "Delta": 52050000
    },
    {
      "NoteNumber": 41,
      "Velocity": 110,
      "Duration": 146875,
      "SoundDuration": 146875,
      "Delta": 52050000
    },
    {
      "NoteNumber": 53,
      "Velocity": 110,
      "Duration": 146875,
      "SoundDuration": 146875,
      "Delta": 52050000
    },
    {
      "NoteNumber": 61,
      "Velocity": 110,
      "Duration": 250000,
      "SoundDuration": 250000,
      "Delta": 52199999
    },
    {
      "NoteNumber": 64,
      "Velocity": 110,
      "Duration": 250000,
      "SoundDuration": 250000,
      "Delta": 52199999
    },
    {
      "NoteNumber": 33,
      "Velocity": 110,
      "Duration": 250000,
      "SoundDuration": 250000,
      "Delta": 52199999
    },
    {
      "NoteNumber": 45,
      "Velocity": 110,
      "Duration": 250000,
      "SoundDuration": 250000,
      "Delta": 52199999
    },
    {
      "NoteNumber": 61,
      "Velocity": 110,
      "Duration": 250000,
      "SoundDuration": 250000,
      "Delta": 52500000
    },
    {
      "NoteNumber": 65,
      "Velocity": 110,
      "Duration": 250000,
      "SoundDuration": 250000,
      "Delta": 52500000
    },
    {
      "NoteNumber": 33,
      "Velocity": 110,
      "Duration": 146875,
      "SoundDuration": 146875,
      "Delta": 52500000
    },
    {
      "NoteNumber": 45,
      "Velocity": 110,
      "Duration": 146875,
      "SoundDuration": 146875,
      "Delta": 52500000
    },
    {
      "NoteNumber": 33,
      "Velocity": 110,
      "Duration": 146875,
      "SoundDuration": 146875,
      "Delta": 52650000
    },
    {
      "NoteNumber": 45,
      "Velocity": 110,
      "Duration": 146875,
      "SoundDuration": 146875,
      "Delta": 52650000
    },
    {
      "NoteNumber": 61,
      "Velocity": 110,
      "Duration": 250000,
      "SoundDuration": 250000,
      "Delta": 52800000
    },
    {
      "NoteNumber": 64,
      "Velocity": 110,
      "Duration": 250000,
      "SoundDuration": 250000,
      "Delta": 52800000
    },
    {
      "NoteNumber": 33,
      "Velocity": 110,
      "Duration": 146875,
      "SoundDuration": 146875,
      "Delta": 52800000
    },
    {
      "NoteNumber": 45,
      "Velocity": 110,
      "Duration": 146875,
      "SoundDuration": 146875,
      "Delta": 52800000
    },
    {
      "NoteNumber": 33,
      "Velocity": 110,
      "Duration": 146875,
      "SoundDuration": 146875,
      "Delta": 52949999
    },
    {
      "NoteNumber": 45,
      "Velocity": 110,
      "Duration": 146875,
      "SoundDuration": 146875,
      "Delta": 52949999
    },
    {
      "NoteNumber": 53,
      "Velocity": 110,
      "Duration": 250000,
      "SoundDuration": 250000,
      "Delta": 53100000
    },
    {
      "NoteNumber": 57,
      "Velocity": 110,
      "Duration": 250000,
      "SoundDuration": 250000,
      "Delta": 53100000
    },
    {
      "NoteNumber": 62,
      "Velocity": 110,
      "Duration": 250000,
      "SoundDuration": 250000,
      "Delta": 53100000
    },
    {
      "NoteNumber": 38,
      "Velocity": 110,
      "Duration": 250000,
      "SoundDuration": 250000,
      "Delta": 53100000
    },
    {
      "NoteNumber": 50,
      "Velocity": 110,
      "Duration": 250000,
      "SoundDuration": 250000,
      "Delta": 53100000
    },
    {
      "NoteNumber": 38,
      "Velocity": 110,
      "Duration": 146875,
      "SoundDuration": 146875,
      "Delta": 53400000
    },
    {
      "NoteNumber": 50,
      "Velocity": 110,
      "Duration": 146875,
      "SoundDuration": 146875,
      "Delta": 53400000
    },
    {
      "NoteNumber": 38,
      "Velocity": 110,
      "Duration": 250000,
      "SoundDuration": 250000,
      "Delta": 53550000
    },
    {
      "NoteNumber": 50,
      "Velocity": 110,
      "Duration": 250000,
      "SoundDuration": 250000,
      "Delta": 53550000
    },
    {
      "NoteNumber": 64,
      "Velocity": 110,
      "Duration": 146875,
      "SoundDuration": 146875,
      "Delta": 53699999
    },
    {
      "NoteNumber": 60,
      "Velocity": 110,
      "Duration": 146875,
      "SoundDuration": 146875,
      "Delta": 53850000
    },
    {
      "NoteNumber": 38,
      "Velocity": 110,
      "Duration": 146875,
      "SoundDuration": 146875,
      "Delta": 53850000
    },
    {
      "NoteNumber": 50,
      "Velocity": 110,
      "Duration": 146875,
      "SoundDuration": 146875,
      "Delta": 53850000
    },
    {
      "NoteNumber": 53,
      "Velocity": 110,
      "Duration": 146875,
      "SoundDuration": 146875,
      "Delta": 54000000
    },
    {
      "NoteNumber": 57,
      "Velocity": 110,
      "Duration": 146875,
      "SoundDuration": 146875,
      "Delta": 54000000
    },
    {
      "NoteNumber": 62,
      "Velocity": 110,
      "Duration": 146875,
      "SoundDuration": 146875,
      "Delta": 54000000
    },
    {
      "NoteNumber": 38,
      "Velocity": 110,
      "Duration": 250000,
      "SoundDuration": 250000,
      "Delta": 54000000
    },
    {
      "NoteNumber": 50,
      "Velocity": 110,
      "Duration": 250000,
      "SoundDuration": 250000,
      "Delta": 54000000
    },
    {
      "NoteNumber": 38,
      "Velocity": 110,
      "Duration": 146875,
      "SoundDuration": 146875,
      "Delta": 54300000
    },
    {
      "NoteNumber": 50,
      "Velocity": 110,
      "Duration": 146875,
      "SoundDuration": 146875,
      "Delta": 54300000
    },
    {
      "NoteNumber": 38,
      "Velocity": 110,
      "Duration": 146875,
      "SoundDuration": 146875,
      "Delta": 54449999
    },
    {
      "NoteNumber": 50,
      "Velocity": 110,
      "Duration": 146875,
      "SoundDuration": 146875,
      "Delta": 54449999
    },
    {
      "NoteNumber": 74,
      "Velocity": 110,
      "Duration": 146875,
      "SoundDuration": 146875,
      "Delta": 54600000
    },
    {
      "NoteNumber": 38,
      "Velocity": 110,
      "Duration": 146875,
      "SoundDuration": 146875,
      "Delta": 54600000
    },
    {
      "NoteNumber": 50,
      "Velocity": 110,
      "Duration": 146875,
      "SoundDuration": 146875,
      "Delta": 54600000
    },
    {
      "NoteNumber": 76,
      "Velocity": 110,
      "Duration": 146875,
      "SoundDuration": 146875,
      "Delta": 54750000
    },
    {
      "NoteNumber": 38,
      "Velocity": 110,
      "Duration": 146875,
      "SoundDuration": 146875,
      "Delta": 54750000
    },
    {
      "NoteNumber": 50,
      "Velocity": 110,
      "Duration": 146875,
      "SoundDuration": 146875,
      "Delta": 54750000
    },
    {
      "NoteNumber": 69,
      "Velocity": 110,
      "Duration": 250000,
      "SoundDuration": 250000,
      "Delta": 54900000
    },
    {
      "NoteNumber": 74,
      "Velocity": 110,
      "Duration": 250000,
      "SoundDuration": 250000,
      "Delta": 54900000
    },
    {
      "NoteNumber": 77,
      "Velocity": 110,
      "Duration": 250000,
      "SoundDuration": 250000,
      "Delta": 54900000
    },
    {
      "NoteNumber": 38,
      "Velocity": 110,
      "Duration": 250000,
      "SoundDuration": 250000,
      "Delta": 54900000
    },
    {
      "NoteNumber": 50,
      "Velocity": 110,
      "Duration": 250000,
      "SoundDuration": 250000,
      "Delta": 54900000
    },
    {
      "NoteNumber": 38,
      "Velocity": 110,
      "Duration": 146875,
      "SoundDuration": 146875,
      "Delta": 55199999
    },
    {
      "NoteNumber": 50,
      "Velocity": 110,
      "Duration": 146875,
      "SoundDuration": 146875,
      "Delta": 55199999
    },
    {
      "NoteNumber": 38,
      "Velocity": 110,
      "Duration": 146875,
      "SoundDuration": 146875,
      "Delta": 55350000
    },
    {
      "NoteNumber": 50,
      "Velocity": 110,
      "Duration": 146875,
      "SoundDuration": 146875,
      "Delta": 55350000
    },
    {
      "NoteNumber": 76,
      "Velocity": 110,
      "Duration": 146875,
      "SoundDuration": 146875,
      "Delta": 55500000
    },
    {
      "NoteNumber": 38,
      "Velocity": 110,
      "Duration": 146875,
      "SoundDuration": 146875,
      "Delta": 55500000
    },
    {
      "NoteNumber": 50,
      "Velocity": 110,
      "Duration": 146875,
      "SoundDuration": 146875,
      "Delta": 55500000
    },
    {
      "NoteNumber": 77,
      "Velocity": 110,
      "Duration": 146875,
      "SoundDuration": 146875,
      "Delta": 55650000
    },
    {
      "NoteNumber": 38,
      "Velocity": 110,
      "Duration": 146875,
      "SoundDuration": 146875,
      "Delta": 55650000
    },
    {
      "NoteNumber": 50,
      "Velocity": 110,
      "Duration": 146875,
      "SoundDuration": 146875,
      "Delta": 55650000
    },
    {
      "NoteNumber": 72,
      "Velocity": 110,
      "Duration": 250000,
      "SoundDuration": 250000,
      "Delta": 55800000
    },
    {
      "NoteNumber": 79,
      "Velocity": 110,
      "Duration": 250000,
      "SoundDuration": 250000,
      "Delta": 55800000
    },
    {
      "NoteNumber": 36,
      "Velocity": 110,
      "Duration": 250000,
      "SoundDuration": 250000,
      "Delta": 55800000
    },
    {
      "NoteNumber": 48,
      "Velocity": 110,
      "Duration": 250000,
      "SoundDuration": 250000,
      "Delta": 55800000
    },
    {
      "NoteNumber": 72,
      "Velocity": 110,
      "Duration": 250000,
      "SoundDuration": 250000,
      "Delta": 56100000
    },
    {
      "NoteNumber": 77,
      "Velocity": 110,
      "Duration": 250000,
      "SoundDuration": 250000,
      "Delta": 56100000
    },
    {
      "NoteNumber": 36,
      "Velocity": 110,
      "Duration": 146875,
      "SoundDuration": 146875,
      "Delta": 56100000
    },
    {
      "NoteNumber": 48,
      "Velocity": 110,
      "Duration": 146875,
      "SoundDuration": 146875,
      "Delta": 56100000
    },
    {
      "NoteNumber": 36,
      "Velocity": 110,
      "Duration": 146875,
      "SoundDuration": 146875,
      "Delta": 56250000
    },
    {
      "NoteNumber": 48,
      "Velocity": 110,
      "Duration": 146875,
      "SoundDuration": 146875,
      "Delta": 56250000
    },
    {
      "NoteNumber": 72,
      "Velocity": 110,
      "Duration": 250000,
      "SoundDuration": 250000,
      "Delta": 56400000
    },
    {
      "NoteNumber": 79,
      "Velocity": 110,
      "Duration": 250000,
      "SoundDuration": 250000,
      "Delta": 56400000
    },
    {
      "NoteNumber": 36,
      "Velocity": 110,
      "Duration": 146875,
      "SoundDuration": 146875,
      "Delta": 56400000
    },
    {
      "NoteNumber": 48,
      "Velocity": 110,
      "Duration": 146875,
      "SoundDuration": 146875,
      "Delta": 56400000
    },
    {
      "NoteNumber": 36,
      "Velocity": 110,
      "Duration": 146875,
      "SoundDuration": 146875,
      "Delta": 56550000
    },
    {
      "NoteNumber": 48,
      "Velocity": 110,
      "Duration": 146875,
      "SoundDuration": 146875,
      "Delta": 56550000
    },
    {
      "NoteNumber": 77,
      "Velocity": 110,
      "Duration": 250000,
      "SoundDuration": 250000,
      "Delta": 56699999
    },
    {
      "NoteNumber": 81,
      "Velocity": 110,
      "Duration": 250000,
      "SoundDuration": 250000,
      "Delta": 56699999
    },
    {
      "NoteNumber": 41,
      "Velocity": 110,
      "Duration": 250000,
      "SoundDuration": 250000,
      "Delta": 56699999
    },
    {
      "NoteNumber": 53,
      "Velocity": 110,
      "Duration": 250000,
      "SoundDuration": 250000,
      "Delta": 56699999
    },
    {
      "NoteNumber": 72,
      "Velocity": 110,
      "Duration": 250000,
      "SoundDuration": 250000,
      "Delta": 57000000
    },
    {
      "NoteNumber": 79,
      "Velocity": 110,
      "Duration": 250000,
      "SoundDuration": 250000,
      "Delta": 57000000
    },
    {
      "NoteNumber": 41,
      "Velocity": 110,
      "Duration": 146875,
      "SoundDuration": 146875,
      "Delta": 57000000
    },
    {
      "NoteNumber": 53,
      "Velocity": 110,
      "Duration": 146875,
      "SoundDuration": 146875,
      "Delta": 57000000
    },
    {
      "NoteNumber": 41,
      "Velocity": 110,
      "Duration": 146875,
      "SoundDuration": 146875,
      "Delta": 57150000
    },
    {
      "NoteNumber": 53,
      "Velocity": 110,
      "Duration": 146875,
      "SoundDuration": 146875,
      "Delta": 57150000
    },
    {
      "NoteNumber": 72,
      "Velocity": 110,
      "Duration": 250000,
      "SoundDuration": 250000,
      "Delta": 57300000
    },
    {
      "NoteNumber": 77,
      "Velocity": 110,
      "Duration": 250000,
      "SoundDuration": 250000,
      "Delta": 57300000
    },
    {
      "NoteNumber": 41,
      "Velocity": 110,
      "Duration": 146875,
      "SoundDuration": 146875,
      "Delta": 57300000
    },
    {
      "NoteNumber": 53,
      "Velocity": 110,
      "Duration": 146875,
      "SoundDuration": 146875,
      "Delta": 57300000
    },
    {
      "NoteNumber": 41,
      "Velocity": 110,
      "Duration": 146875,
      "SoundDuration": 146875,
      "Delta": 57449999
    },
    {
      "NoteNumber": 53,
      "Velocity": 110,
      "Duration": 146875,
      "SoundDuration": 146875,
      "Delta": 57449999
    },
    {
      "NoteNumber": 65,
      "Velocity": 110,
      "Duration": 250000,
      "SoundDuration": 250000,
      "Delta": 57599999
    },
    {
      "NoteNumber": 70,
      "Velocity": 110,
      "Duration": 250000,
      "SoundDuration": 250000,
      "Delta": 57599999
    },
    {
      "NoteNumber": 74,
      "Velocity": 110,
      "Duration": 250000,
      "SoundDuration": 250000,
      "Delta": 57599999
    },
    {
      "NoteNumber": 34,
      "Velocity": 110,
      "Duration": 250000,
      "SoundDuration": 250000,
      "Delta": 57599999
    },
    {
      "NoteNumber": 46,
      "Velocity": 110,
      "Duration": 250000,
      "SoundDuration": 250000,
      "Delta": 57599999
    },
    {
      "NoteNumber": 34,
      "Velocity": 110,
      "Duration": 146875,
      "SoundDuration": 146875,
      "Delta": 57900000
    },
    {
      "NoteNumber": 46,
      "Velocity": 110,
      "Duration": 146875,
      "SoundDuration": 146875,
      "Delta": 57900000
    },
    {
      "NoteNumber": 34,
      "Velocity": 110,
      "Duration": 146875,
      "SoundDuration": 146875,
      "Delta": 58050000
    },
    {
      "NoteNumber": 46,
      "Velocity": 110,
      "Duration": 146875,
      "SoundDuration": 146875,
      "Delta": 58050000
    },
    {
      "NoteNumber": 74,
      "Velocity": 110,
      "Duration": 146875,
      "SoundDuration": 146875,
      "Delta": 58199999
    },
    {
      "NoteNumber": 34,
      "Velocity": 110,
      "Duration": 146875,
      "SoundDuration": 146875,
      "Delta": 58199999
    },
    {
      "NoteNumber": 46,
      "Velocity": 110,
      "Duration": 146875,
      "SoundDuration": 146875,
      "Delta": 58199999
    },
    {
      "NoteNumber": 76,
      "Velocity": 110,
      "Duration": 146875,
      "SoundDuration": 146875,
      "Delta": 58349999
    },
    {
      "NoteNumber": 34,
      "Velocity": 110,
      "Duration": 146875,
      "SoundDuration": 146875,
      "Delta": 58349999
    },
    {
      "NoteNumber": 46,
      "Velocity": 110,
      "Duration": 146875,
      "SoundDuration": 146875,
      "Delta": 58349999
    },
    {
      "NoteNumber": 69,
      "Velocity": 110,
      "Duration": 250000,
      "SoundDuration": 250000,
      "Delta": 58500000
    },
    {
      "NoteNumber": 74,
      "Velocity": 110,
      "Duration": 250000,
      "SoundDuration": 250000,
      "Delta": 58500000
    },
    {
      "NoteNumber": 77,
      "Velocity": 110,
      "Duration": 250000,
      "SoundDuration": 250000,
      "Delta": 58500000
    },
    {
      "NoteNumber": 38,
      "Velocity": 110,
      "Duration": 250000,
      "SoundDuration": 250000,
      "Delta": 58500000
    },
    {
      "NoteNumber": 50,
      "Velocity": 110,
      "Duration": 250000,
      "SoundDuration": 250000,
      "Delta": 58500000
    },
    {
      "NoteNumber": 69,
      "Velocity": 110,
      "Duration": 250000,
      "SoundDuration": 250000,
      "Delta": 58800000
    },
    {
      "NoteNumber": 74,
      "Velocity": 110,
      "Duration": 250000,
      "SoundDuration": 250000,
      "Delta": 58800000
    },
    {
      "NoteNumber": 79,
      "Velocity": 110,
      "Duration": 250000,
      "SoundDuration": 250000,
      "Delta": 58800000
    },
    {
      "NoteNumber": 38,
      "Velocity": 110,
      "Duration": 146875,
      "SoundDuration": 146875,
      "Delta": 58800000
    },
    {
      "NoteNumber": 50,
      "Velocity": 110,
      "Duration": 146875,
      "SoundDuration": 146875,
      "Delta": 58800000
    },
    {
      "NoteNumber": 38,
      "Velocity": 110,
      "Duration": 146875,
      "SoundDuration": 146875,
      "Delta": 58949999
    },
    {
      "NoteNumber": 50,
      "Velocity": 110,
      "Duration": 146875,
      "SoundDuration": 146875,
      "Delta": 58949999
    },
    {
      "NoteNumber": 74,
      "Velocity": 110,
      "Duration": 250000,
      "SoundDuration": 250000,
      "Delta": 59099999
    },
    {
      "NoteNumber": 81,
      "Velocity": 110,
      "Duration": 250000,
      "SoundDuration": 250000,
      "Delta": 59099999
    },
    {
      "NoteNumber": 38,
      "Velocity": 110,
      "Duration": 146875,
      "SoundDuration": 146875,
      "Delta": 59099999
    },
    {
      "NoteNumber": 50,
      "Velocity": 110,
      "Duration": 146875,
      "SoundDuration": 146875,
      "Delta": 59099999
    },
    {
      "NoteNumber": 38,
      "Velocity": 110,
      "Duration": 146875,
      "SoundDuration": 146875,
      "Delta": 59250000
    },
    {
      "NoteNumber": 50,
      "Velocity": 110,
      "Duration": 146875,
      "SoundDuration": 146875,
      "Delta": 59250000
    },
    {
      "NoteNumber": 70,
      "Velocity": 110,
      "Duration": 250000,
      "SoundDuration": 250000,
      "Delta": 59400000
    },
    {
      "NoteNumber": 74,
      "Velocity": 110,
      "Duration": 250000,
      "SoundDuration": 250000,
      "Delta": 59400000
    },
    {
      "NoteNumber": 82,
      "Velocity": 110,
      "Duration": 250000,
      "SoundDuration": 250000,
      "Delta": 59400000
    },
    {
      "NoteNumber": 31,
      "Velocity": 110,
      "Duration": 250000,
      "SoundDuration": 250000,
      "Delta": 59400000
    },
    {
      "NoteNumber": 43,
      "Velocity": 110,
      "Duration": 250000,
      "SoundDuration": 250000,
      "Delta": 59400000
    },
    {
      "NoteNumber": 70,
      "Velocity": 110,
      "Duration": 250000,
      "SoundDuration": 250000,
      "Delta": 59699999
    },
    {
      "NoteNumber": 74,
      "Velocity": 110,
      "Duration": 250000,
      "SoundDuration": 250000,
      "Delta": 59699999
    },
    {
      "NoteNumber": 31,
      "Velocity": 110,
      "Duration": 146875,
      "SoundDuration": 146875,
      "Delta": 59699999
    },
    {
      "NoteNumber": 43,
      "Velocity": 110,
      "Duration": 146875,
      "SoundDuration": 146875,
      "Delta": 59699999
    },
    {
      "NoteNumber": 31,
      "Velocity": 110,
      "Duration": 146875,
      "SoundDuration": 146875,
      "Delta": 59849999
    },
    {
      "NoteNumber": 43,
      "Velocity": 110,
      "Duration": 146875,
      "SoundDuration": 146875,
      "Delta": 59849999
    },
    {
      "NoteNumber": 70,
      "Velocity": 110,
      "Duration": 250000,
      "SoundDuration": 250000,
      "Delta": 60000000
    },
    {
      "NoteNumber": 79,
      "Velocity": 110,
      "Duration": 250000,
      "SoundDuration": 250000,
      "Delta": 60000000
    },
    {
      "NoteNumber": 31,
      "Velocity": 110,
      "Duration": 146875,
      "SoundDuration": 146875,
      "Delta": 60000000
    },
    {
      "NoteNumber": 43,
      "Velocity": 110,
      "Duration": 146875,
      "SoundDuration": 146875,
      "Delta": 60000000
    },
    {
      "NoteNumber": 31,
      "Velocity": 110,
      "Duration": 146875,
      "SoundDuration": 146875,
      "Delta": 60150000
    },
    {
      "NoteNumber": 43,
      "Velocity": 110,
      "Duration": 146875,
      "SoundDuration": 146875,
      "Delta": 60150000
    },
    {
      "NoteNumber": 69,
      "Velocity": 110,
      "Duration": 250000,
      "SoundDuration": 250000,
      "Delta": 60300000
    },
    {
      "NoteNumber": 77,
      "Velocity": 110,
      "Duration": 250000,
      "SoundDuration": 250000,
      "Delta": 60300000
    },
    {
      "NoteNumber": 33,
      "Velocity": 110,
      "Duration": 250000,
      "SoundDuration": 250000,
      "Delta": 60300000
    },
    {
      "NoteNumber": 45,
      "Velocity": 110,
      "Duration": 250000,
      "SoundDuration": 250000,
      "Delta": 60300000
    },
    {
      "NoteNumber": 33,
      "Velocity": 110,
      "Duration": 146875,
      "SoundDuration": 146875,
      "Delta": 60599999
    },
    {
      "NoteNumber": 45,
      "Velocity": 110,
      "Duration": 146875,
      "SoundDuration": 146875,
      "Delta": 60599999
    },
    {
      "NoteNumber": 33,
      "Velocity": 110,
      "Duration": 146875,
      "SoundDuration": 146875,
      "Delta": 60750000
    },
    {
      "NoteNumber": 45,
      "Velocity": 110,
      "Duration": 146875,
      "SoundDuration": 146875,
      "Delta": 60750000
    },
    {
      "NoteNumber": 79,
      "Velocity": 110,
      "Duration": 146875,
      "SoundDuration": 146875,
      "Delta": 60900000
    },
    {
      "NoteNumber": 33,
      "Velocity": 110,
      "Duration": 146875,
      "SoundDuration": 146875,
      "Delta": 60900000
    },
    {
      "NoteNumber": 45,
      "Velocity": 110,
      "Duration": 146875,
      "SoundDuration": 146875,
      "Delta": 60900000
    },
    {
      "NoteNumber": 76,
      "Velocity": 110,
      "Duration": 146875,
      "SoundDuration": 146875,
      "Delta": 61050000
    },
    {
      "NoteNumber": 33,
      "Velocity": 110,
      "Duration": 146875,
      "SoundDuration": 146875,
      "Delta": 61050000
    },
    {
      "NoteNumber": 45,
      "Velocity": 110,
      "Duration": 146875,
      "SoundDuration": 146875,
      "Delta": 61050000
    },
    {
      "NoteNumber": 69,
      "Velocity": 110,
      "Duration": 250000,
      "SoundDuration": 250000,
      "Delta": 61199999
    },
    {
      "NoteNumber": 74,
      "Velocity": 110,
      "Duration": 250000,
      "SoundDuration": 250000,
      "Delta": 61199999
    },
    {
      "NoteNumber": 33,
      "Velocity": 110,
      "Duration": 250000,
      "SoundDuration": 250000,
      "Delta": 61199999
    },
    {
      "NoteNumber": 45,
      "Velocity": 110,
      "Duration": 250000,
      "SoundDuration": 250000,
      "Delta": 61199999
    },
    {
      "NoteNumber": 33,
      "Velocity": 110,
      "Duration": 146875,
      "SoundDuration": 146875,
      "Delta": 61500000
    },
    {
      "NoteNumber": 45,
      "Velocity": 110,
      "Duration": 146875,
      "SoundDuration": 146875,
      "Delta": 61500000
    },
    {
      "NoteNumber": 33,
      "Velocity": 110,
      "Duration": 146875,
      "SoundDuration": 146875,
      "Delta": 61650000
    },
    {
      "NoteNumber": 45,
      "Velocity": 110,
      "Duration": 146875,
      "SoundDuration": 146875,
      "Delta": 61650000
    },
    {
      "NoteNumber": 76,
      "Velocity": 110,
      "Duration": 146875,
      "SoundDuration": 146875,
      "Delta": 61800000
    },
    {
      "NoteNumber": 33,
      "Velocity": 110,
      "Duration": 146875,
      "SoundDuration": 146875,
      "Delta": 61800000
    },
    {
      "NoteNumber": 45,
      "Velocity": 110,
      "Duration": 146875,
      "SoundDuration": 146875,
      "Delta": 61800000
    },
    {
      "NoteNumber": 73,
      "Velocity": 110,
      "Duration": 146875,
      "SoundDuration": 146875,
      "Delta": 61949999
    },
    {
      "NoteNumber": 33,
      "Velocity": 110,
      "Duration": 146875,
      "SoundDuration": 146875,
      "Delta": 61949999
    },
    {
      "NoteNumber": 45,
      "Velocity": 110,
      "Duration": 146875,
      "SoundDuration": 146875,
      "Delta": 61949999
    },
    {
      "NoteNumber": 74,
      "Velocity": 110,
      "Duration": 250000,
      "SoundDuration": 250000,
      "Delta": 62099999
    },
    {
      "NoteNumber": 77,
      "Velocity": 110,
      "Duration": 250000,
      "SoundDuration": 250000,
      "Delta": 62099999
    },
    {
      "NoteNumber": 81,
      "Velocity": 110,
      "Duration": 250000,
      "SoundDuration": 250000,
      "Delta": 62099999
    },
    {
      "NoteNumber": 38,
      "Velocity": 110,
      "Duration": 250000,
      "SoundDuration": 250000,
      "Delta": 62099999
    },
    {
      "NoteNumber": 50,
      "Velocity": 110,
      "Duration": 250000,
      "SoundDuration": 250000,
      "Delta": 62099999
    },
    {
      "NoteNumber": 38,
      "Velocity": 110,
      "Duration": 146875,
      "SoundDuration": 146875,
      "Delta": 62400000
    },
    {
      "NoteNumber": 50,
      "Velocity": 110,
      "Duration": 146875,
      "SoundDuration": 146875,
      "Delta": 62400000
    },
    {
      "NoteNumber": 38,
      "Velocity": 110,
      "Duration": 146875,
      "SoundDuration": 146875,
      "Delta": 62550000
    },
    {
      "NoteNumber": 50,
      "Velocity": 110,
      "Duration": 146875,
      "SoundDuration": 146875,
      "Delta": 62550000
    },
    {
      "NoteNumber": 38,
      "Velocity": 110,
      "Duration": 146875,
      "SoundDuration": 146875,
      "Delta": 62699999
    },
    {
      "NoteNumber": 50,
      "Velocity": 110,
      "Duration": 146875,
      "SoundDuration": 146875,
      "Delta": 62699999
    },
    {
      "NoteNumber": 38,
      "Velocity": 110,
      "Duration": 146875,
      "SoundDuration": 146875,
      "Delta": 62849999
    },
    {
      "NoteNumber": 50,
      "Velocity": 110,
      "Duration": 146875,
      "SoundDuration": 146875,
      "Delta": 62849999
    },
    {
      "NoteNumber": 74,
      "Velocity": 110,
      "Duration": 250000,
      "SoundDuration": 250000,
      "Delta": 63000000
    },
    {
      "NoteNumber": 79,
      "Velocity": 110,
      "Duration": 250000,
      "SoundDuration": 250000,
      "Delta": 63000000
    },
    {
      "NoteNumber": 82,
      "Velocity": 110,
      "Duration": 250000,
      "SoundDuration": 250000,
      "Delta": 63000000
    },
    {
      "NoteNumber": 31,
      "Velocity": 110,
      "Duration": 250000,
      "SoundDuration": 250000,
      "Delta": 63000000
    },
    {
      "NoteNumber": 43,
      "Velocity": 110,
      "Duration": 250000,
      "SoundDuration": 250000,
      "Delta": 63000000
    },
    {
      "NoteNumber": 31,
      "Velocity": 110,
      "Duration": 146875,
      "SoundDuration": 146875,
      "Delta": 63300000
    },
    {
      "NoteNumber": 43,
      "Velocity": 110,
      "Duration": 146875,
      "SoundDuration": 146875,
      "Delta": 63300000
    },
    {
      "NoteNumber": 31,
      "Velocity": 110,
      "Duration": 146875,
      "SoundDuration": 146875,
      "Delta": 63449999
    },
    {
      "NoteNumber": 43,
      "Velocity": 110,
      "Duration": 146875,
      "SoundDuration": 146875,
      "Delta": 63449999
    },
    {
      "NoteNumber": 31,
      "Velocity": 110,
      "Duration": 146875,
      "SoundDuration": 146875,
      "Delta": 63599999
    },
    {
      "NoteNumber": 43,
      "Velocity": 110,
      "Duration": 146875,
      "SoundDuration": 146875,
      "Delta": 63599999
    },
    {
      "NoteNumber": 31,
      "Velocity": 110,
      "Duration": 146875,
      "SoundDuration": 146875,
      "Delta": 63750000
    },
    {
      "NoteNumber": 43,
      "Velocity": 110,
      "Duration": 146875,
      "SoundDuration": 146875,
      "Delta": 63750000
    },
    {
      "NoteNumber": 72,
      "Velocity": 110,
      "Duration": 250000,
      "SoundDuration": 250000,
      "Delta": 63900000
    },
    {
      "NoteNumber": 77,
      "Velocity": 110,
      "Duration": 250000,
      "SoundDuration": 250000,
      "Delta": 63900000
    },
    {
      "NoteNumber": 81,
      "Velocity": 110,
      "Duration": 250000,
      "SoundDuration": 250000,
      "Delta": 63900000
    },
    {
      "NoteNumber": 41,
      "Velocity": 110,
      "Duration": 250000,
      "SoundDuration": 250000,
      "Delta": 63900000
    },
    {
      "NoteNumber": 53,
      "Velocity": 110,
      "Duration": 250000,
      "SoundDuration": 250000,
      "Delta": 63900000
    },
    {
      "NoteNumber": 72,
      "Velocity": 110,
      "Duration": 250000,
      "SoundDuration": 250000,
      "Delta": 64200000
    },
    {
      "NoteNumber": 77,
      "Velocity": 110,
      "Duration": 250000,
      "SoundDuration": 250000,
      "Delta": 64200000
    },
    {
      "NoteNumber": 81,
      "Velocity": 110,
      "Duration": 250000,
      "SoundDuration": 250000,
      "Delta": 64200000
    },
    {
      "NoteNumber": 41,
      "Velocity": 110,
      "Duration": 146874,
      "SoundDuration": 146874,
      "Delta": 64200000
    },
    {
      "NoteNumber": 53,
      "Velocity": 110,
      "Duration": 146874,
      "SoundDuration": 146874,
      "Delta": 64200000
    },
    {
      "NoteNumber": 41,
      "Velocity": 110,
      "Duration": 250000,
      "SoundDuration": 250000,
      "Delta": 64349999
    },
    {
      "NoteNumber": 53,
      "Velocity": 110,
      "Duration": 250000,
      "SoundDuration": 250000,
      "Delta": 64349999
    },
    {
      "NoteNumber": 72,
      "Velocity": 110,
      "Duration": 250000,
      "SoundDuration": 250000,
      "Delta": 64500000
    },
    {
      "NoteNumber": 77,
      "Velocity": 110,
      "Duration": 250000,
      "SoundDuration": 250000,
      "Delta": 64500000
    },
    {
      "NoteNumber": 81,
      "Velocity": 110,
      "Duration": 250000,
      "SoundDuration": 250000,
      "Delta": 64500000
    },
    {
      "NoteNumber": 41,
      "Velocity": 110,
      "Duration": 146875,
      "SoundDuration": 146875,
      "Delta": 64649999
    },
    {
      "NoteNumber": 53,
      "Velocity": 110,
      "Duration": 146875,
      "SoundDuration": 146875,
      "Delta": 64649999
    },
    {
      "NoteNumber": 72,
      "Velocity": 110,
      "Duration": 146875,
      "SoundDuration": 146875,
      "Delta": 64800000
    },
    {
      "NoteNumber": 76,
      "Velocity": 110,
      "Duration": 146875,
      "SoundDuration": 146875,
      "Delta": 64800000
    },
    {
      "NoteNumber": 81,
      "Velocity": 110,
      "Duration": 146875,
      "SoundDuration": 146875,
      "Delta": 64800000
    },
    {
      "NoteNumber": 36,
      "Velocity": 110,
      "Duration": 250000,
      "SoundDuration": 250000,
      "Delta": 64800000
    },
    {
      "NoteNumber": 48,
      "Velocity": 110,
      "Duration": 250000,
      "SoundDuration": 250000,
      "Delta": 64800000
    },
    {
      "NoteNumber": 79,
      "Velocity": 110,
      "Duration": 146874,
      "SoundDuration": 146874,
      "Delta": 64950000
    },
    {
      "NoteNumber": 36,
      "Velocity": 110,
      "Duration": 146875,
      "SoundDuration": 146875,
      "Delta": 65099999
    },
    {
      "NoteNumber": 48,
      "Velocity": 110,
      "Duration": 146875,
      "SoundDuration": 146875,
      "Delta": 65099999
    },
    {
      "NoteNumber": 36,
      "Velocity": 110,
      "Duration": 146874,
      "SoundDuration": 146874,
      "Delta": 65250000
    },
    {
      "NoteNumber": 48,
      "Velocity": 110,
      "Duration": 146874,
      "SoundDuration": 146874,
      "Delta": 65250000
    },
    {
      "NoteNumber": 36,
      "Velocity": 110,
      "Duration": 146875,
      "SoundDuration": 146875,
      "Delta": 65399999
    },
    {
      "NoteNumber": 48,
      "Velocity": 110,
      "Duration": 146875,
      "SoundDuration": 146875,
      "Delta": 65399999
    },
    {
      "NoteNumber": 36,
      "Velocity": 110,
      "Duration": 146875,
      "SoundDuration": 146875,
      "Delta": 65550000
    },
    {
      "NoteNumber": 48,
      "Velocity": 110,
      "Duration": 146875,
      "SoundDuration": 146875,
      "Delta": 65550000
    },
    {
      "NoteNumber": 70,
      "Velocity": 110,
      "Duration": 250000,
      "SoundDuration": 250000,
      "Delta": 65700000
    },
    {
      "NoteNumber": 74,
      "Velocity": 110,
      "Duration": 250000,
      "SoundDuration": 250000,
      "Delta": 65700000
    },
    {
      "NoteNumber": 79,
      "Velocity": 110,
      "Duration": 250000,
      "SoundDuration": 250000,
      "Delta": 65700000
    },
    {
      "NoteNumber": 31,
      "Velocity": 110,
      "Duration": 250000,
      "SoundDuration": 250000,
      "Delta": 65700000
    },
    {
      "NoteNumber": 43,
      "Velocity": 110,
      "Duration": 250000,
      "SoundDuration": 250000,
      "Delta": 65700000
    },
    {
      "NoteNumber": 31,
      "Velocity": 110,
      "Duration": 146874,
      "SoundDuration": 146874,
      "Delta": 66000000
    },
    {
      "NoteNumber": 43,
      "Velocity": 110,
      "Duration": 146874,
      "SoundDuration": 146874,
      "Delta": 66000000
    },
    {
      "NoteNumber": 31,
      "Velocity": 110,
      "Duration": 146875,
      "SoundDuration": 146875,
      "Delta": 66149999
    },
    {
      "NoteNumber": 43,
      "Velocity": 110,
      "Duration": 146875,
      "SoundDuration": 146875,
      "Delta": 66149999
    },
    {
      "NoteNumber": 31,
      "Velocity": 110,
      "Duration": 146875,
      "SoundDuration": 146875,
      "Delta": 66300000
    },
    {
      "NoteNumber": 43,
      "Velocity": 110,
      "Duration": 146875,
      "SoundDuration": 146875,
      "Delta": 66300000
    },
    {
      "NoteNumber": 31,
      "Velocity": 110,
      "Duration": 146874,
      "SoundDuration": 146874,
      "Delta": 66450000
    },
    {
      "NoteNumber": 43,
      "Velocity": 110,
      "Duration": 146874,
      "SoundDuration": 146874,
      "Delta": 66450000
    },
    {
      "NoteNumber": 69,
      "Velocity": 110,
      "Duration": 250000,
      "SoundDuration": 250000,
      "Delta": 66599999
    },
    {
      "NoteNumber": 74,
      "Velocity": 110,
      "Duration": 250000,
      "SoundDuration": 250000,
      "Delta": 66599999
    },
    {
      "NoteNumber": 77,
      "Velocity": 110,
      "Duration": 250000,
      "SoundDuration": 250000,
      "Delta": 66599999
    },
    {
      "NoteNumber": 33,
      "Velocity": 110,
      "Duration": 250000,
      "SoundDuration": 250000,
      "Delta": 66599999
    },
    {
      "NoteNumber": 45,
      "Velocity": 110,
      "Duration": 250000,
      "SoundDuration": 250000,
      "Delta": 66599999
    },
    {
      "NoteNumber": 33,
      "Velocity": 110,
      "Duration": 146875,
      "SoundDuration": 146875,
      "Delta": 66899999
    },
    {
      "NoteNumber": 45,
      "Velocity": 110,
      "Duration": 146875,
      "SoundDuration": 146875,
      "Delta": 66899999
    },
    {
      "NoteNumber": 33,
      "Velocity": 110,
      "Duration": 146875,
      "SoundDuration": 146875,
      "Delta": 67050000
    },
    {
      "NoteNumber": 45,
      "Velocity": 110,
      "Duration": 146875,
      "SoundDuration": 146875,
      "Delta": 67050000
    },
    {
      "NoteNumber": 33,
      "Velocity": 110,
      "Duration": 146874,
      "SoundDuration": 146874,
      "Delta": 67200000
    },
    {
      "NoteNumber": 45,
      "Velocity": 110,
      "Duration": 146874,
      "SoundDuration": 146874,
      "Delta": 67200000
    },
    {
      "NoteNumber": 33,
      "Velocity": 110,
      "Duration": 146875,
      "SoundDuration": 146875,
      "Delta": 67350000
    },
    {
      "NoteNumber": 45,
      "Velocity": 110,
      "Duration": 146875,
      "SoundDuration": 146875,
      "Delta": 67350000
    },
    {
      "NoteNumber": 69,
      "Velocity": 110,
      "Duration": 250000,
      "SoundDuration": 250000,
      "Delta": 67500000
    },
    {
      "NoteNumber": 77,
      "Velocity": 110,
      "Duration": 250000,
      "SoundDuration": 250000,
      "Delta": 67500000
    },
    {
      "NoteNumber": 33,
      "Velocity": 110,
      "Duration": 250000,
      "SoundDuration": 250000,
      "Delta": 67500000
    },
    {
      "NoteNumber": 45,
      "Velocity": 110,
      "Duration": 250000,
      "SoundDuration": 250000,
      "Delta": 67500000
    },
    {
      "NoteNumber": 69,
      "Velocity": 110,
      "Duration": 250000,
      "SoundDuration": 250000,
      "Delta": 67800000
    },
    {
      "NoteNumber": 79,
      "Velocity": 110,
      "Duration": 250000,
      "SoundDuration": 250000,
      "Delta": 67800000
    },
    {
      "NoteNumber": 33,
      "Velocity": 110,
      "Duration": 146875,
      "SoundDuration": 146875,
      "Delta": 67800000
    },
    {
      "NoteNumber": 45,
      "Velocity": 110,
      "Duration": 146875,
      "SoundDuration": 146875,
      "Delta": 67800000
    },
    {
      "NoteNumber": 33,
      "Velocity": 110,
      "Duration": 146874,
      "SoundDuration": 146874,
      "Delta": 67950000
    },
    {
      "NoteNumber": 45,
      "Velocity": 110,
      "Duration": 146874,
      "SoundDuration": 146874,
      "Delta": 67950000
    },
    {
      "NoteNumber": 69,
      "Velocity": 110,
      "Duration": 250000,
      "SoundDuration": 250000,
      "Delta": 68100000
    },
    {
      "NoteNumber": 76,
      "Velocity": 110,
      "Duration": 250000,
      "SoundDuration": 250000,
      "Delta": 68100000
    },
    {
      "NoteNumber": 33,
      "Velocity": 110,
      "Duration": 146875,
      "SoundDuration": 146875,
      "Delta": 68100000
    },
    {
      "NoteNumber": 45,
      "Velocity": 110,
      "Duration": 146875,
      "SoundDuration": 146875,
      "Delta": 68100000
    },
    {
      "NoteNumber": 33,
      "Velocity": 110,
      "Duration": 146874,
      "SoundDuration": 146874,
      "Delta": 68250000
    },
    {
      "NoteNumber": 45,
      "Velocity": 110,
      "Duration": 146874,
      "SoundDuration": 146874,
      "Delta": 68250000
    },
    {
      "NoteNumber": 65,
      "Velocity": 110,
      "Duration": 400000,
      "SoundDuration": 400000,
      "Delta": 68399999
    },
    {
      "NoteNumber": 69,
      "Velocity": 110,
      "Duration": 400000,
      "SoundDuration": 400000,
      "Delta": 68399999
    },
    {
      "NoteNumber": 74,
      "Velocity": 110,
      "Duration": 400000,
      "SoundDuration": 400000,
      "Delta": 68399999
    },
    {
      "NoteNumber": 38,
      "Velocity": 110,
      "Duration": 250000,
      "SoundDuration": 250000,
      "Delta": 68399999
    },
    {
      "NoteNumber": 50,
      "Velocity": 110,
      "Duration": 250000,
      "SoundDuration": 250000,
      "Delta": 68399999
    },
    {
      "NoteNumber": 38,
      "Velocity": 110,
      "Duration": 146874,
      "SoundDuration": 146874,
      "Delta": 68700000
    },
    {
      "NoteNumber": 50,
      "Velocity": 110,
      "Duration": 146874,
      "SoundDuration": 146874,
      "Delta": 68700000
    },
    {
      "NoteNumber": 74,
      "Velocity": 110,
      "Duration": 146875,
      "SoundDuration": 146875,
      "Delta": 68850000
    },
    {
      "NoteNumber": 38,
      "Velocity": 110,
      "Duration": 146875,
      "SoundDuration": 146875,
      "Delta": 68850000
    },
    {
      "NoteNumber": 50,
      "Velocity": 110,
      "Duration": 146875,
      "SoundDuration": 146875,
      "Delta": 68850000
    },
    {
      "NoteNumber": 76,
      "Velocity": 110,
      "Duration": 146874,
      "SoundDuration": 146874,
      "Delta": 69000000
    },
    {
      "NoteNumber": 38,
      "Velocity": 110,
      "Duration": 146874,
      "SoundDuration": 146874,
      "Delta": 69000000
    },
    {
      "NoteNumber": 50,
      "Velocity": 110,
      "Duration": 146874,
      "SoundDuration": 146874,
      "Delta": 69000000
    },
    {
      "NoteNumber": 77,
      "Velocity": 110,
      "Duration": 146875,
      "SoundDuration": 146875,
      "Delta": 69149999
    },
    {
      "NoteNumber": 38,
      "Velocity": 110,
      "Duration": 146875,
      "SoundDuration": 146875,
      "Delta": 69149999
    },
    {
      "NoteNumber": 50,
      "Velocity": 110,
      "Duration": 146875,
      "SoundDuration": 146875,
      "Delta": 69149999
    },
    {
      "NoteNumber": 74,
      "Velocity": 110,
      "Duration": 400000,
      "SoundDuration": 400000,
      "Delta": 69300000
    },
    {
      "NoteNumber": 77,
      "Velocity": 110,
      "Duration": 400000,
      "SoundDuration": 400000,
      "Delta": 69300000
    },
    {
      "NoteNumber": 81,
      "Velocity": 110,
      "Duration": 400000,
      "SoundDuration": 400000,
      "Delta": 69300000
    },
    {
      "NoteNumber": 38,
      "Velocity": 110,
      "Duration": 250000,
      "SoundDuration": 250000,
      "Delta": 69300000
    },
    {
      "NoteNumber": 50,
      "Velocity": 110,
      "Duration": 250000,
      "SoundDuration": 250000,
      "Delta": 69300000
    },
    {
      "NoteNumber": 38,
      "Velocity": 110,
      "Duration": 146875,
      "SoundDuration": 146875,
      "Delta": 69600000
    },
    {
      "NoteNumber": 50,
      "Velocity": 110,
      "Duration": 146875,
      "SoundDuration": 146875,
      "Delta": 69600000
    },
    {
      "NoteNumber": 74,
      "Velocity": 110,
      "Duration": 146874,
      "SoundDuration": 146874,
      "Delta": 69750000
    },
    {
      "NoteNumber": 38,
      "Velocity": 110,
      "Duration": 146874,
      "SoundDuration": 146874,
      "Delta": 69750000
    },
    {
      "NoteNumber": 50,
      "Velocity": 110,
      "Duration": 146874,
      "SoundDuration": 146874,
      "Delta": 69750000
    },
    {
      "NoteNumber": 76,
      "Velocity": 110,
      "Duration": 146875,
      "SoundDuration": 146875,
      "Delta": 69899999
    },
    {
      "NoteNumber": 38,
      "Velocity": 110,
      "Duration": 146875,
      "SoundDuration": 146875,
      "Delta": 69899999
    },
    {
      "NoteNumber": 50,
      "Velocity": 110,
      "Duration": 146875,
      "SoundDuration": 146875,
      "Delta": 69899999
    },
    {
      "NoteNumber": 77,
      "Velocity": 110,
      "Duration": 146875,
      "SoundDuration": 146875,
      "Delta": 70050000
    },
    {
      "NoteNumber": 38,
      "Velocity": 110,
      "Duration": 146875,
      "SoundDuration": 146875,
      "Delta": 70050000
    },
    {
      "NoteNumber": 50,
      "Velocity": 110,
      "Duration": 146875,
      "SoundDuration": 146875,
      "Delta": 70050000
    },
    {
      "NoteNumber": 74,
      "Velocity": 110,
      "Duration": 399999,
      "SoundDuration": 399999,
      "Delta": 70200000
    },
    {
      "NoteNumber": 77,
      "Velocity": 110,
      "Duration": 399999,
      "SoundDuration": 399999,
      "Delta": 70200000
    },
    {
      "NoteNumber": 82,
      "Velocity": 110,
      "Duration": 399999,
      "SoundDuration": 399999,
      "Delta": 70200000
    },
    {
      "NoteNumber": 34,
      "Velocity": 110,
      "Duration": 250000,
      "SoundDuration": 250000,
      "Delta": 70200000
    },
    {
      "NoteNumber": 46,
      "Velocity": 110,
      "Duration": 250000,
      "SoundDuration": 250000,
      "Delta": 70200000
    },
    {
      "NoteNumber": 34,
      "Velocity": 110,
      "Duration": 146874,
      "SoundDuration": 146874,
      "Delta": 70500000
    },
    {
      "NoteNumber": 46,
      "Velocity": 110,
      "Duration": 146874,
      "SoundDuration": 146874,
      "Delta": 70500000
    },
    {
      "NoteNumber": 74,
      "Velocity": 110,
      "Duration": 146875,
      "SoundDuration": 146875,
      "Delta": 70649999
    },
    {
      "NoteNumber": 34,
      "Velocity": 110,
      "Duration": 146875,
      "SoundDuration": 146875,
      "Delta": 70649999
    },
    {
      "NoteNumber": 46,
      "Velocity": 110,
      "Duration": 146875,
      "SoundDuration": 146875,
      "Delta": 70649999
    },
    {
      "NoteNumber": 76,
      "Velocity": 110,
      "Duration": 146875,
      "SoundDuration": 146875,
      "Delta": 70800000
    },
    {
      "NoteNumber": 34,
      "Velocity": 110,
      "Duration": 146875,
      "SoundDuration": 146875,
      "Delta": 70800000
    },
    {
      "NoteNumber": 46,
      "Velocity": 110,
      "Duration": 146875,
      "SoundDuration": 146875,
      "Delta": 70800000
    },
    {
      "NoteNumber": 77,
      "Velocity": 110,
      "Duration": 146874,
      "SoundDuration": 146874,
      "Delta": 70950000
    },
    {
      "NoteNumber": 34,
      "Velocity": 110,
      "Duration": 146874,
      "SoundDuration": 146874,
      "Delta": 70950000
    },
    {
      "NoteNumber": 46,
      "Velocity": 110,
      "Duration": 146874,
      "SoundDuration": 146874,
      "Delta": 70950000
    },
    {
      "NoteNumber": 72,
      "Velocity": 110,
      "Duration": 250000,
      "SoundDuration": 250000,
      "Delta": 71100000
    },
    {
      "NoteNumber": 77,
      "Velocity": 110,
      "Duration": 250000,
      "SoundDuration": 250000,
      "Delta": 71100000
    },
    {
      "NoteNumber": 81,
      "Velocity": 110,
      "Duration": 250000,
      "SoundDuration": 250000,
      "Delta": 71100000
    },
    {
      "NoteNumber": 41,
      "Velocity": 110,
      "Duration": 250000,
      "SoundDuration": 250000,
      "Delta": 71100000
    },
    {
      "NoteNumber": 53,
      "Velocity": 110,
      "Duration": 250000,
      "SoundDuration": 250000,
      "Delta": 71100000
    },
    {
      "NoteNumber": 72,
      "Velocity": 110,
      "Duration": 250000,
      "SoundDuration": 250000,
      "Delta": 71399999
    },
    {
      "NoteNumber": 77,
      "Velocity": 110,
      "Duration": 250000,
      "SoundDuration": 250000,
      "Delta": 71399999
    },
    {
      "NoteNumber": 81,
      "Velocity": 110,
      "Duration": 250000,
      "SoundDuration": 250000,
      "Delta": 71399999
    },
    {
      "NoteNumber": 41,
      "Velocity": 110,
      "Duration": 146875,
      "SoundDuration": 146875,
      "Delta": 71399999
    },
    {
      "NoteNumber": 53,
      "Velocity": 110,
      "Duration": 146875,
      "SoundDuration": 146875,
      "Delta": 71399999
    },
    {
      "NoteNumber": 41,
      "Velocity": 110,
      "Duration": 146875,
      "SoundDuration": 146875,
      "Delta": 71550000
    },
    {
      "NoteNumber": 53,
      "Velocity": 110,
      "Duration": 146875,
      "SoundDuration": 146875,
      "Delta": 71550000
    },
    {
      "NoteNumber": 77,
      "Velocity": 110,
      "Duration": 250000,
      "SoundDuration": 250000,
      "Delta": 71700000
    },
    {
      "NoteNumber": 84,
      "Velocity": 110,
      "Duration": 250000,
      "SoundDuration": 250000,
      "Delta": 71700000
    },
    {
      "NoteNumber": 41,
      "Velocity": 110,
      "Duration": 146874,
      "SoundDuration": 146874,
      "Delta": 71700000
    },
    {
      "NoteNumber": 53,
      "Velocity": 110,
      "Duration": 146874,
      "SoundDuration": 146874,
      "Delta": 71700000
    },
    {
      "NoteNumber": 41,
      "Velocity": 110,
      "Duration": 146875,
      "SoundDuration": 146875,
      "Delta": 71850000
    },
    {
      "NoteNumber": 53,
      "Velocity": 110,
      "Duration": 146875,
      "SoundDuration": 146875,
      "Delta": 71850000
    },
    {
      "NoteNumber": 72,
      "Velocity": 110,
      "Duration": 146874,
      "SoundDuration": 146874,
      "Delta": 72000000
    },
    {
      "NoteNumber": 76,
      "Velocity": 110,
      "Duration": 146874,
      "SoundDuration": 146874,
      "Delta": 72000000
    },
    {
      "NoteNumber": 81,
      "Velocity": 110,
      "Duration": 146874,
      "SoundDuration": 146874,
      "Delta": 72000000
    },
    {
      "NoteNumber": 36,
      "Velocity": 110,
      "Duration": 250000,
      "SoundDuration": 250000,
      "Delta": 72000000
    },
    {
      "NoteNumber": 48,
      "Velocity": 110,
      "Duration": 250000,
      "SoundDuration": 250000,
      "Delta": 72000000
    },
    {
      "NoteNumber": 79,
      "Velocity": 110,
      "Duration": 146875,
      "SoundDuration": 146875,
      "Delta": 72149999
    },
    {
      "NoteNumber": 36,
      "Velocity": 110,
      "Duration": 146875,
      "SoundDuration": 146875,
      "Delta": 72300000
    },
    {
      "NoteNumber": 48,
      "Velocity": 110,
      "Duration": 146875,
      "SoundDuration": 146875,
      "Delta": 72300000
    },
    {
      "NoteNumber": 36,
      "Velocity": 110,
      "Duration": 146874,
      "SoundDuration": 146874,
      "Delta": 72450000
    },
    {
      "NoteNumber": 48,
      "Velocity": 110,
      "Duration": 146874,
      "SoundDuration": 146874,
      "Delta": 72450000
    },
    {
      "NoteNumber": 36,
      "Velocity": 110,
      "Duration": 146875,
      "SoundDuration": 146875,
      "Delta": 72600000
    },
    {
      "NoteNumber": 48,
      "Velocity": 110,
      "Duration": 146875,
      "SoundDuration": 146875,
      "Delta": 72600000
    },
    {
      "NoteNumber": 36,
      "Velocity": 110,
      "Duration": 146874,
      "SoundDuration": 146874,
      "Delta": 72750000
    },
    {
      "NoteNumber": 48,
      "Velocity": 110,
      "Duration": 146874,
      "SoundDuration": 146874,
      "Delta": 72750000
    },
    {
      "NoteNumber": 70,
      "Velocity": 110,
      "Duration": 250000,
      "SoundDuration": 250000,
      "Delta": 72899999
    },
    {
      "NoteNumber": 74,
      "Velocity": 110,
      "Duration": 250000,
      "SoundDuration": 250000,
      "Delta": 72899999
    },
    {
      "NoteNumber": 79,
      "Velocity": 110,
      "Duration": 250000,
      "SoundDuration": 250000,
      "Delta": 72899999
    },
    {
      "NoteNumber": 31,
      "Velocity": 110,
      "Duration": 250000,
      "SoundDuration": 250000,
      "Delta": 72899999
    },
    {
      "NoteNumber": 43,
      "Velocity": 110,
      "Duration": 250000,
      "SoundDuration": 250000,
      "Delta": 72899999
    },
    {
      "NoteNumber": 31,
      "Velocity": 110,
      "Duration": 146874,
      "SoundDuration": 146874,
      "Delta": 73200000
    },
    {
      "NoteNumber": 43,
      "Velocity": 110,
      "Duration": 146874,
      "SoundDuration": 146874,
      "Delta": 73200000
    },
    {
      "NoteNumber": 31,
      "Velocity": 110,
      "Duration": 146875,
      "SoundDuration": 146875,
      "Delta": 73350000
    },
    {
      "NoteNumber": 43,
      "Velocity": 110,
      "Duration": 146875,
      "SoundDuration": 146875,
      "Delta": 73350000
    },
    {
      "NoteNumber": 31,
      "Velocity": 110,
      "Duration": 146874,
      "SoundDuration": 146874,
      "Delta": 73500000
    },
    {
      "NoteNumber": 43,
      "Velocity": 110,
      "Duration": 146874,
      "SoundDuration": 146874,
      "Delta": 73500000
    },
    {
      "NoteNumber": 31,
      "Velocity": 110,
      "Duration": 146875,
      "SoundDuration": 146875,
      "Delta": 73649999
    },
    {
      "NoteNumber": 43,
      "Velocity": 110,
      "Duration": 146875,
      "SoundDuration": 146875,
      "Delta": 73649999
    },
    {
      "NoteNumber": 69,
      "Velocity": 110,
      "Duration": 250000,
      "SoundDuration": 250000,
      "Delta": 73800000
    },
    {
      "NoteNumber": 74,
      "Velocity": 110,
      "Duration": 250000,
      "SoundDuration": 250000,
      "Delta": 73800000
    },
    {
      "NoteNumber": 77,
      "Velocity": 110,
      "Duration": 250000,
      "SoundDuration": 250000,
      "Delta": 73800000
    },
    {
      "NoteNumber": 33,
      "Velocity": 110,
      "Duration": 250000,
      "SoundDuration": 250000,
      "Delta": 73800000
    },
    {
      "NoteNumber": 45,
      "Velocity": 110,
      "Duration": 250000,
      "SoundDuration": 250000,
      "Delta": 73800000
    },
    {
      "NoteNumber": 33,
      "Velocity": 110,
      "Duration": 146875,
      "SoundDuration": 146875,
      "Delta": 74100000
    },
    {
      "NoteNumber": 45,
      "Velocity": 110,
      "Duration": 146875,
      "SoundDuration": 146875,
      "Delta": 74100000
    },
    {
      "NoteNumber": 33,
      "Velocity": 110,
      "Duration": 146874,
      "SoundDuration": 146874,
      "Delta": 74250000
    },
    {
      "NoteNumber": 45,
      "Velocity": 110,
      "Duration": 146874,
      "SoundDuration": 146874,
      "Delta": 74250000
    },
    {
      "NoteNumber": 33,
      "Velocity": 110,
      "Duration": 146875,
      "SoundDuration": 146875,
      "Delta": 74399999
    },
    {
      "NoteNumber": 45,
      "Velocity": 110,
      "Duration": 146875,
      "SoundDuration": 146875,
      "Delta": 74399999
    },
    {
      "NoteNumber": 33,
      "Velocity": 110,
      "Duration": 146875,
      "SoundDuration": 146875,
      "Delta": 74550000
    },
    {
      "NoteNumber": 45,
      "Velocity": 110,
      "Duration": 146875,
      "SoundDuration": 146875,
      "Delta": 74550000
    },
    {
      "NoteNumber": 69,
      "Velocity": 110,
      "Duration": 250000,
      "SoundDuration": 250000,
      "Delta": 74700000
    },
    {
      "NoteNumber": 77,
      "Velocity": 110,
      "Duration": 250000,
      "SoundDuration": 250000,
      "Delta": 74700000
    },
    {
      "NoteNumber": 33,
      "Velocity": 110,
      "Duration": 250000,
      "SoundDuration": 250000,
      "Delta": 74700000
    },
    {
      "NoteNumber": 45,
      "Velocity": 110,
      "Duration": 250000,
      "SoundDuration": 250000,
      "Delta": 74700000
    },
    {
      "NoteNumber": 69,
      "Velocity": 110,
      "Duration": 250000,
      "SoundDuration": 250000,
      "Delta": 75000000
    },
    {
      "NoteNumber": 79,
      "Velocity": 110,
      "Duration": 250000,
      "SoundDuration": 250000,
      "Delta": 75000000
    },
    {
      "NoteNumber": 33,
      "Velocity": 110,
      "Duration": 146874,
      "SoundDuration": 146874,
      "Delta": 75000000
    },
    {
      "NoteNumber": 45,
      "Velocity": 110,
      "Duration": 146874,
      "SoundDuration": 146874,
      "Delta": 75000000
    },
    {
      "NoteNumber": 33,
      "Velocity": 110,
      "Duration": 146875,
      "SoundDuration": 146875,
      "Delta": 75149999
    },
    {
      "NoteNumber": 45,
      "Velocity": 110,
      "Duration": 146875,
      "SoundDuration": 146875,
      "Delta": 75149999
    },
    {
      "NoteNumber": 69,
      "Velocity": 110,
      "Duration": 250000,
      "SoundDuration": 250000,
      "Delta": 75300000
    },
    {
      "NoteNumber": 76,
      "Velocity": 110,
      "Duration": 250000,
      "SoundDuration": 250000,
      "Delta": 75300000
    },
    {
      "NoteNumber": 33,
      "Velocity": 110,
      "Duration": 146875,
      "SoundDuration": 146875,
      "Delta": 75300000
    },
    {
      "NoteNumber": 45,
      "Velocity": 110,
      "Duration": 146875,
      "SoundDuration": 146875,
      "Delta": 75300000
    },
    {
      "NoteNumber": 33,
      "Velocity": 110,
      "Duration": 146874,
      "SoundDuration": 146874,
      "Delta": 75450000
    },
    {
      "NoteNumber": 45,
      "Velocity": 110,
      "Duration": 146874,
      "SoundDuration": 146874,
      "Delta": 75450000
    },
    {
      "NoteNumber": 65,
      "Velocity": 110,
      "Duration": 400000,
      "SoundDuration": 400000,
      "Delta": 75600000
    },
    {
      "NoteNumber": 69,
      "Velocity": 110,
      "Duration": 400000,
      "SoundDuration": 400000,
      "Delta": 75600000
    },
    {
      "NoteNumber": 74,
      "Velocity": 110,
      "Duration": 400000,
      "SoundDuration": 400000,
      "Delta": 75600000
    },
    {
      "NoteNumber": 38,
      "Velocity": 110,
      "Duration": 400000,
      "SoundDuration": 400000,
      "Delta": 75600000
    },
    {
      "NoteNumber": 50,
      "Velocity": 110,
      "Duration": 400000,
      "SoundDuration": 400000,
      "Delta": 75600000
    },
    {
      "NoteNumber": 38,
      "Velocity": 110,
      "Duration": 146875,
      "SoundDuration": 146875,
      "Delta": 76050000
    },
    {
      "NoteNumber": 50,
      "Velocity": 110,
      "Duration": 146875,
      "SoundDuration": 146875,
      "Delta": 76050000
    },
    {
      "NoteNumber": 38,
      "Velocity": 110,
      "Duration": 146874,
      "SoundDuration": 146874,
      "Delta": 76200000
    },
    {
      "NoteNumber": 50,
      "Velocity": 110,
      "Duration": 146874,
      "SoundDuration": 146874,
      "Delta": 76200000
    },
    {
      "NoteNumber": 38,
      "Velocity": 110,
      "Duration": 146875,
      "SoundDuration": 146875,
      "Delta": 76350000
    },
    {
      "NoteNumber": 50,
      "Velocity": 110,
      "Duration": 146875,
      "SoundDuration": 146875,
      "Delta": 76350000
    },
    {
      "NoteNumber": 62,
      "Velocity": 110,
      "Duration": 1125000,
      "SoundDuration": 1125000,
      "Delta": 76500000
    },
    {
      "NoteNumber": 26,
      "Velocity": 110,
      "Duration": 1125000,
      "SoundDuration": 1125000,
      "Delta": 76500000
    },
    {
      "NoteNumber": 38,
      "Velocity": 110,
      "Duration": 1125000,
      "SoundDuration": 1125000,
      "Delta": 76500000
    }
  ]
}
