{"title":"Jägerlied","artist":"Mendelssohn","durationMs":137633,"midiSha256":"e34d00f49a377a4a9af1021fd6ad0626625233e3dd31ef2ba1f21b47799a63ad","midiObject":[{"NoteNumber":33,"Velocity":59,"Duration":373482,"SoundDuration":373482,"Delta":0},{"NoteNumber":45,"Velocity":70,"Duration":373482,"SoundDuration":373482,"Delta":0},{"NoteNumber":49,"Velocity":61,"Duration":92856,"SoundDuration":92856,"Delta":188284},{"NoteNumber":52,"Velocity":63,"Duration":92341,"SoundDuration":92341,"Delta":281140},{"NoteNumber":57,"Velocity":67,"Duration":96166,"SoundDuration":96166,"Delta":373482},{"NoteNumber":61,"Velocity":70,"Duration":96166,"SoundDuration":96166,"Delta":469648},{"NoteNumber":64,"Velocity":70,"Duration":752516,"SoundDuration":752516,"Delta":565815},{"NoteNumber":59,"Velocity":63,"Duration":47063,"SoundDuration":47063,"Delta":754068},{"NoteNumber":52,"Velocity":53,"Duration":47063,"SoundDuration":47063,"Delta":754068},{"NoteNumber":59,"Velocity":63,"Duration":47063,"SoundDuration":47063,"Delta":942321},{"NoteNumber":52,"Velocity":53,"Duration":47063,"SoundDuration":47063,"Delta":942321},{"NoteNumber":61,"Velocity":70,"Duration":280702,"SoundDuration":280702,"Delta":1130574},{"NoteNumber":57,"Velocity":70,"Duration":373057,"SoundDuration":373057,"Delta":1130574},{"NoteNumber":61,"Velocity":69,"Duration":185300,"SoundDuration":185300,"Delta":1318331},{"NoteNumber":64,"Velocity":72,"Duration":92354,"SoundDuration":92354,"Delta":1411276},{"NoteNumber":69,"Velocity":75,"Duration":96512,"SoundDuration":96512,"Delta":1503631},{"NoteNumber":73,"Velocity":77,"Duration":96512,"SoundDuration":96512,"Delta":1600144},{"NoteNumber":76,"Velocity":85,"Duration":752317,"SoundDuration":752317,"Delta":1696656},{"NoteNumber":71,"Velocity":66,"Duration":47063,"SoundDuration":47063,"Delta":1885108},{"NoteNumber":64,"Velocity":56,"Duration":47063,"SoundDuration":47063,"Delta":1885108},{"NoteNumber":71,"Velocity":62,"Duration":47063,"SoundDuration":47063,"Delta":2073361},{"NoteNumber":64,"Velocity":52,"Duration":47063,"SoundDuration":47063,"Delta":2073361},{"NoteNumber":69,"Velocity":59,"Duration":371864,"SoundDuration":371864,"Delta":2261614},{"NoteNumber":73,"Velocity":70,"Duration":279945,"SoundDuration":279945,"Delta":2261614},{"NoteNumber":73,"Velocity":73,"Duration":184504,"SoundDuration":184504,"Delta":2448974},{"NoteNumber":76,"Velocity":77,"Duration":91919,"SoundDuration":91919,"Delta":2541560},{"NoteNumber":81,"Velocity":80,"Duration":96512,"SoundDuration":96512,"Delta":2633479},{"NoteNumber":85,"Velocity":81,"Duration":96512,"SoundDuration":96512,"Delta":2729992},{"NoteNumber":88,"Velocity":87,"Duration":566339,"SoundDuration":566339,"Delta":2826504},{"NoteNumber":83,"Velocity":79,"Duration":46734,"SoundDuration":46734,"Delta":3014956},{"NoteNumber":76,"Velocity":67,"Duration":46734,"SoundDuration":46734,"Delta":3014956},{"NoteNumber":71,"Velocity":66,"Duration":46734,"SoundDuration":46734,"Delta":3014956},{"NoteNumber":64,"Velocity":56,"Duration":46734,"SoundDuration":46734,"Delta":3014956},{"NoteNumber":83,"Velocity":70,"Duration":47737,"SoundDuration":47737,"Delta":3201895},{"NoteNumber":76,"Velocity":59,"Duration":47737,"SoundDuration":47737,"Delta":3201895},{"NoteNumber":71,"Velocity":66,"Duration":47737,"SoundDuration":47737,"Delta":3201895},{"NoteNumber":64,"Velocity":56,"Duration":47737,"SoundDuration":47737,"Delta":3201895},{"NoteNumber":88,"Velocity":81,"Duration":571390,"SoundDuration":571390,"Delta":3392844},{"NoteNumber":85,"Velocity":81,"Duration":184343,"SoundDuration":184343,"Delta":3392844},{"NoteNumber":81,"Velocity":68,"Duration":184343,"SoundDuration":184343,"Delta":3392844},{"NoteNumber":69,"Velocity":59,"Duration":184343,"SoundDuration":184343,"Delta":3392844},{"NoteNumber":73,"Velocity":70,"Duration":184343,"SoundDuration":184343,"Delta":3392844},{"NoteNumber":76,"Velocity":59,"Duration":47063,"SoundDuration":47063,"Delta":3577187},{"NoteNumber":83,"Velocity":70,"Duration":47063,"SoundDuration":47063,"Delta":3577187},{"NoteNumber":71,"Velocity":64,"Duration":47063,"SoundDuration":47063,"Delta":3577187},{"NoteNumber":64,"Velocity":54,"Duration":47063,"SoundDuration":47063,"Delta":3577187},{"NoteNumber":76,"Velocity":59,"Duration":49698,"SoundDuration":49698,"Delta":3765440},{"NoteNumber":83,"Velocity":70,"Duration":49698,"SoundDuration":49698,"Delta":3765440},{"NoteNumber":71,"Velocity":64,"Duration":49698,"SoundDuration":49698,"Delta":3765440},{"NoteNumber":64,"Velocity":54,"Duration":49698,"SoundDuration":49698,"Delta":3765440},{"NoteNumber":88,"Velocity":76,"Duration":596798,"SoundDuration":596798,"Delta":3964234},{"NoteNumber":85,"Velocity":76,"Duration":183082,"SoundDuration":183082,"Delta":3964234},{"NoteNumber":81,"Velocity":64,"Duration":183082,"SoundDuration":183082,"Delta":3964234},{"NoteNumber":69,"Velocity":59,"Duration":183082,"SoundDuration":183082,"Delta":3964234},{"NoteNumber":73,"Velocity":70,"Duration":183082,"SoundDuration":183082,"Delta":3964234},{"NoteNumber":76,"Velocity":59,"Duration":47737,"SoundDuration":47737,"Delta":4147317},{"NoteNumber":83,"Velocity":70,"Duration":47737,"SoundDuration":47737,"Delta":4147317},{"NoteNumber":71,"Velocity":64,"Duration":47737,"SoundDuration":47737,"Delta":4147317},{"NoteNumber":64,"Velocity":54,"Duration":47737,"SoundDuration":47737,"Delta":4147317},{"NoteNumber":76,"Velocity":59,"Duration":55691,"SoundDuration":55691,"Delta":4338266},{"NoteNumber":83,"Velocity":70,"Duration":55691,"SoundDuration":55691,"Delta":4338266},{"NoteNumber":71,"Velocity":64,"Duration":55691,"SoundDuration":55691,"Delta":4338266},{"NoteNumber":64,"Velocity":54,"Duration":55691,"SoundDuration":55691,"Delta":4338266},{"NoteNumber":88,"Velocity":83,"Duration":414736,"SoundDuration":414736,"Delta":4561033},{"NoteNumber":81,"Velocity":71,"Duration":414736,"SoundDuration":414736,"Delta":4561033},{"NoteNumber":69,"Velocity":59,"Duration":414736,"SoundDuration":414736,"Delta":4561033},{"NoteNumber":73,"Velocity":70,"Duration":414736,"SoundDuration":414736,"Delta":4561033},{"NoteNumber":45,"Velocity":79,"Duration":309564,"SoundDuration":309564,"Delta":5183139},{"NoteNumber":33,"Velocity":67,"Duration":309564,"SoundDuration":309564,"Delta":5183139},{"NoteNumber":64,"Velocity":59,"Duration":82101,"SoundDuration":82101,"Delta":5492704},{"NoteNumber":69,"Velocity":70,"Duration":82101,"SoundDuration":82101,"Delta":5492704},{"NoteNumber":49,"Velocity":50,"Duration":82101,"SoundDuration":82101,"Delta":5492704},{"NoteNumber":57,"Velocity":59,"Duration":82101,"SoundDuration":82101,"Delta":5492704},{"NoteNumber":69,"Velocity":68,"Duration":136836,"SoundDuration":136836,"Delta":5583928},{"NoteNumber":64,"Velocity":57,"Duration":136836,"SoundDuration":136836,"Delta":5583928},{"NoteNumber":57,"Velocity":54,"Duration":136836,"SoundDuration":136836,"Delta":5583928},{"NoteNumber":49,"Velocity":45,"Duration":136836,"SoundDuration":136836,"Delta":5583928},{"NoteNumber":64,"Velocity":59,"Duration":184343,"SoundDuration":184343,"Delta":5766376},{"NoteNumber":69,"Velocity":70,"Duration":184343,"SoundDuration":184343,"Delta":5766376},{"NoteNumber":49,"Velocity":50,"Duration":184343,"SoundDuration":184343,"Delta":5766376},{"NoteNumber":57,"Velocity":59,"Duration":184343,"SoundDuration":184343,"Delta":5766376},{"NoteNumber":71,"Velocity":69,"Duration":184343,"SoundDuration":184343,"Delta":5950719},{"NoteNumber":68,"Velocity":58,"Duration":184343,"SoundDuration":184343,"Delta":5950719},{"NoteNumber":59,"Velocity":55,"Duration":184343,"SoundDuration":184343,"Delta":5950719},{"NoteNumber":52,"Velocity":46,"Duration":184343,"SoundDuration":184343,"Delta":5950719},{"NoteNumber":73,"Velocity":69,"Duration":96512,"SoundDuration":96512,"Delta":6135062},{"NoteNumber":69,"Velocity":69,"Duration":96512,"SoundDuration":96512,"Delta":6135062},{"NoteNumber":64,"Velocity":58,"Duration":96512,"SoundDuration":96512,"Delta":6135062},{"NoteNumber":57,"Velocity":46,"Duration":96512,"SoundDuration":96512,"Delta":6135062},{"NoteNumber":61,"Velocity":55,"Duration":96512,"SoundDuration":96512,"Delta":6135062},{"NoteNumber":73,"Velocity":73,"Duration":368686,"SoundDuration":368686,"Delta":6328088},{"NoteNumber":69,"Velocity":73,"Duration":368686,"SoundDuration":368686,"Delta":6328088},{"NoteNumber":64,"Velocity":62,"Duration":368686,"SoundDuration":368686,"Delta":6328088},{"NoteNumber":57,"Velocity":51,"Duration":368686,"SoundDuration":368686,"Delta":6328088},{"NoteNumber":61,"Velocity":60,"Duration":368686,"SoundDuration":368686,"Delta":6328088},{"NoteNumber":73,"Velocity":65,"Duration":138257,"SoundDuration":138257,"Delta":6696774},{"NoteNumber":69,"Velocity":55,"Duration":138257,"SoundDuration":138257,"Delta":6696774},{"NoteNumber":57,"Velocity":50,"Duration":138257,"SoundDuration":138257,"Delta":6696774},{"NoteNumber":61,"Velocity":59,"Duration":138257,"SoundDuration":138257,"Delta":6696774},{"NoteNumber":69,"Velocity":59,"Duration":184343,"SoundDuration":184343,"Delta":6881117},{"NoteNumber":73,"Velocity":70,"Duration":184343,"SoundDuration":184343,"Delta":6881117},{"NoteNumber":57,"Velocity":53,"Duration":184343,"SoundDuration":184343,"Delta":6881117},{"NoteNumber":61,"Velocity":63,"Duration":184343,"SoundDuration":184343,"Delta":6881117},{"NoteNumber":74,"Velocity":66,"Duration":184343,"SoundDuration":184343,"Delta":7065460},{"NoteNumber":71,"Velocity":56,"Duration":184343,"SoundDuration":184343,"Delta":7065460},{"NoteNumber":62,"Velocity":59,"Duration":184343,"SoundDuration":184343,"Delta":7065460},{"NoteNumber":59,"Velocity":50,"Duration":184343,"SoundDuration":184343,"Delta":7065460},{"NoteNumber":76,"Velocity":64,"Duration":95135,"SoundDuration":95135,"Delta":7249803},{"NoteNumber":73,"Velocity":54,"Duration":95135,"SoundDuration":95135,"Delta":7249803},{"NoteNumber":69,"Velocity":54,"Duration":95135,"SoundDuration":95135,"Delta":7249803},{"NoteNumber":61,"Velocity":50,"Duration":95135,"SoundDuration":95135,"Delta":7249803},{"NoteNumber":64,"Velocity":59,"Duration":95135,"SoundDuration":95135,"Delta":7249803},{"NoteNumber":76,"Velocity":78,"Duration":276514,"SoundDuration":276514,"Delta":7440074},{"NoteNumber":73,"Velocity":66,"Duration":276514,"SoundDuration":276514,"Delta":7440074},{"NoteNumber":69,"Velocity":66,"Duration":276514,"SoundDuration":276514,"Delta":7440074},{"NoteNumber":64,"Velocity":66,"Duration":276514,"SoundDuration":276514,"Delta":7440074},{"NoteNumber":61,"Velocity":56,"Duration":276514,"SoundDuration":276514,"Delta":7440074},{"NoteNumber":74,"Velocity":59,"Duration":82954,"SoundDuration":82954,"Delta":7716588},{"NoteNumber":78,"Velocity":70,"Duration":82954,"SoundDuration":82954,"Delta":7716588},{"NoteNumber":62,"Velocity":50,"Duration":82954,"SoundDuration":82954,"Delta":7716588},{"NoteNumber":66,"Velocity":59,"Duration":82954,"SoundDuration":82954,"Delta":7716588},{"NoteNumber":74,"Velocity":62,"Duration":156065,"SoundDuration":156065,"Delta":7808760},{"NoteNumber":78,"Velocity":73,"Duration":156065,"SoundDuration":156065,"Delta":7808760},{"NoteNumber":66,"Velocity":62,"Duration":156065,"SoundDuration":156065,"Delta":7808760},{"NoteNumber":62,"Velocity":52,"Duration":156065,"SoundDuration":156065,"Delta":7808760},{"NoteNumber":81,"Velocity":80,"Duration":271820,"SoundDuration":271820,"Delta":8016847},{"NoteNumber":78,"Velocity":68,"Duration":271820,"SoundDuration":271820,"Delta":8016847},{"NoteNumber":69,"Velocity":68,"Duration":271820,"SoundDuration":271820,"Delta":8016847},{"NoteNumber":66,"Velocity":70,"Duration":271820,"SoundDuration":271820,"Delta":8016847},{"NoteNumber":62,"Velocity":59,"Duration":271820,"SoundDuration":271820,"Delta":8016847},{"NoteNumber":57,"Velocity":59,"Duration":271820,"SoundDuration":271820,"Delta":8016847},{"NoteNumber":78,"Velocity":61,"Duration":81546,"SoundDuration":81546,"Delta":8288668},{"NoteNumber":81,"Velocity":72,"Duration":81546,"SoundDuration":81546,"Delta":8288668},{"NoteNumber":62,"Velocity":50,"Duration":81546,"SoundDuration":81546,"Delta":8288668},{"NoteNumber":66,"Velocity":59,"Duration":81546,"SoundDuration":81546,"Delta":8288668},{"NoteNumber":81,"Velocity":72,"Duration":143211,"SoundDuration":143211,"Delta":8379275},{"NoteNumber":78,"Velocity":61,"Duration":143211,"SoundDuration":143211,"Delta":8379275},{"NoteNumber":62,"Velocity":50,"Duration":143211,"SoundDuration":143211,"Delta":8379275},{"NoteNumber":66,"Velocity":59,"Duration":143211,"SoundDuration":143211,"Delta":8379275},{"NoteNumber":69,"Velocity":66,"Duration":198451,"SoundDuration":198451,"Delta":8570224},{"NoteNumber":78,"Velocity":66,"Duration":198451,"SoundDuration":198451,"Delta":8570224},{"NoteNumber":81,"Velocity":78,"Duration":198451,"SoundDuration":198451,"Delta":8570224},{"NoteNumber":66,"Velocity":67,"Duration":198451,"SoundDuration":198451,"Delta":8570224},{"NoteNumber":62,"Velocity":56,"Duration":198451,"SoundDuration":198451,"Delta":8570224},{"NoteNumber":80,"Velocity":66,"Duration":198451,"SoundDuration":198451,"Delta":8768676},{"NoteNumber":76,"Velocity":56,"Duration":198451,"SoundDuration":198451,"Delta":8768676},{"NoteNumber":64,"Velocity":50,"Duration":198451,"SoundDuration":198451,"Delta":8768676},{"NoteNumber":68,"Velocity":59,"Duration":198451,"SoundDuration":198451,"Delta":8768676},{"NoteNumber":78,"Velocity":66,"Duration":120802,"SoundDuration":120802,"Delta":8967128},{"NoteNumber":74,"Velocity":56,"Duration":120802,"SoundDuration":120802,"Delta":8967128},{"NoteNumber":62,"Velocity":50,"Duration":120802,"SoundDuration":120802,"Delta":8967128},{"NoteNumber":66,"Velocity":59,"Duration":120802,"SoundDuration":120802,"Delta":8967128},{"NoteNumber":78,"Velocity":76,"Duration":599320,"SoundDuration":599320,"Delta":9208733},{"NoteNumber":74,"Velocity":64,"Duration":599320,"SoundDuration":599320,"Delta":9208733},{"NoteNumber":69,"Velocity":64,"Duration":599320,"SoundDuration":599320,"Delta":9208733},{"NoteNumber":66,"Velocity":67,"Duration":599320,"SoundDuration":599320,"Delta":9208733},{"NoteNumber":62,"Velocity":56,"Duration":599320,"SoundDuration":599320,"Delta":9208733},{"NoteNumber":57,"Velocity":56,"Duration":599320,"SoundDuration":599320,"Delta":9208733},{"NoteNumber":76,"Velocity":66,"Duration":234980,"SoundDuration":234980,"Delta":9808053},{"NoteNumber":73,"Velocity":56,"Duration":234980,"SoundDuration":234980,"Delta":9808053},{"NoteNumber":64,"Velocity":58,"Duration":234980,"SoundDuration":234980,"Delta":9808053},{"NoteNumber":61,"Velocity":49,"Duration":234980,"SoundDuration":234980,"Delta":9808053},{"NoteNumber":64,"Velocity":59,"Duration":82101,"SoundDuration":82101,"Delta":10160525},{"NoteNumber":69,"Velocity":70,"Duration":82101,"SoundDuration":82101,"Delta":10160525},{"NoteNumber":49,"Velocity":50,"Duration":82101,"SoundDuration":82101,"Delta":10160525},{"NoteNumber":57,"Velocity":59,"Duration":82101,"SoundDuration":82101,"Delta":10160525},{"NoteNumber":69,"Velocity":68,"Duration":136836,"SoundDuration":136836,"Delta":10251749},{"NoteNumber":64,"Velocity":57,"Duration":136836,"SoundDuration":136836,"Delta":10251749},{"NoteNumber":57,"Velocity":54,"Duration":136836,"SoundDuration":136836,"Delta":10251749},{"NoteNumber":49,"Velocity":45,"Duration":136836,"SoundDuration":136836,"Delta":10251749},{"NoteNumber":64,"Velocity":59,"Duration":184343,"SoundDuration":184343,"Delta":10434198},{"NoteNumber":69,"Velocity":70,"Duration":184343,"SoundDuration":184343,"Delta":10434198},{"NoteNumber":49,"Velocity":50,"Duration":184343,"SoundDuration":184343,"Delta":10434198},{"NoteNumber":57,"Velocity":59,"Duration":184343,"SoundDuration":184343,"Delta":10434198},{"NoteNumber":71,"Velocity":69,"Duration":184343,"SoundDuration":184343,"Delta":10618541},{"NoteNumber":68,"Velocity":58,"Duration":184343,"SoundDuration":184343,"Delta":10618541},{"NoteNumber":59,"Velocity":55,"Duration":184343,"SoundDuration":184343,"Delta":10618541},{"NoteNumber":52,"Velocity":46,"Duration":184343,"SoundDuration":184343,"Delta":10618541},{"NoteNumber":73,"Velocity":69,"Duration":96512,"SoundDuration":96512,"Delta":10802884},{"NoteNumber":69,"Velocity":69,"Duration":96512,"SoundDuration":96512,"Delta":10802884},{"NoteNumber":64,"Velocity":58,"Duration":96512,"SoundDuration":96512,"Delta":10802884},{"NoteNumber":57,"Velocity":46,"Duration":96512,"SoundDuration":96512,"Delta":10802884},{"NoteNumber":61,"Velocity":55,"Duration":96512,"SoundDuration":96512,"Delta":10802884},{"NoteNumber":73,"Velocity":73,"Duration":368686,"SoundDuration":368686,"Delta":10995909},{"NoteNumber":69,"Velocity":73,"Duration":368686,"SoundDuration":368686,"Delta":10995909},{"NoteNumber":64,"Velocity":62,"Duration":368686,"SoundDuration":368686,"Delta":10995909},{"NoteNumber":57,"Velocity":51,"Duration":368686,"SoundDuration":368686,"Delta":10995909},{"NoteNumber":61,"Velocity":60,"Duration":368686,"SoundDuration":368686,"Delta":10995909},{"NoteNumber":73,"Velocity":65,"Duration":138257,"SoundDuration":138257,"Delta":11364595},{"NoteNumber":69,"Velocity":55,"Duration":138257,"SoundDuration":138257,"Delta":11364595},{"NoteNumber":57,"Velocity":50,"Duration":138257,"SoundDuration":138257,"Delta":11364595},{"NoteNumber":61,"Velocity":59,"Duration":138257,"SoundDuration":138257,"Delta":11364595},{"NoteNumber":69,"Velocity":59,"Duration":184343,"SoundDuration":184343,"Delta":11548938},{"NoteNumber":73,"Velocity":70,"Duration":184343,"SoundDuration":184343,"Delta":11548938},{"NoteNumber":57,"Velocity":53,"Duration":184343,"SoundDuration":184343,"Delta":11548938},{"NoteNumber":61,"Velocity":63,"Duration":184343,"SoundDuration":184343,"Delta":11548938},{"NoteNumber":74,"Velocity":66,"Duration":184343,"SoundDuration":184343,"Delta":11733281},{"NoteNumber":71,"Velocity":56,"Duration":184343,"SoundDuration":184343,"Delta":11733281},{"NoteNumber":62,"Velocity":59,"Duration":184343,"SoundDuration":184343,"Delta":11733281},{"NoteNumber":59,"Velocity":50,"Duration":184343,"SoundDuration":184343,"Delta":11733281},{"NoteNumber":76,"Velocity":64,"Duration":95135,"SoundDuration":95135,"Delta":11917624},{"NoteNumber":73,"Velocity":54,"Duration":95135,"SoundDuration":95135,"Delta":11917624},{"NoteNumber":69,"Velocity":54,"Duration":95135,"SoundDuration":95135,"Delta":11917624},{"NoteNumber":61,"Velocity":50,"Duration":95135,"SoundDuration":95135,"Delta":11917624},{"NoteNumber":64,"Velocity":59,"Duration":95135,"SoundDuration":95135,"Delta":11917624},{"NoteNumber":76,"Velocity":78,"Duration":293324,"SoundDuration":293324,"Delta":12107895},{"NoteNumber":73,"Velocity":66,"Duration":293324,"SoundDuration":293324,"Delta":12107895},{"NoteNumber":69,"Velocity":66,"Duration":293324,"SoundDuration":293324,"Delta":12107895},{"NoteNumber":64,"Velocity":66,"Duration":385535,"SoundDuration":385535,"Delta":12107895},{"NoteNumber":61,"Velocity":56,"Duration":385535,"SoundDuration":385535,"Delta":12107895},{"NoteNumber":73,"Velocity":44,"Duration":82990,"SoundDuration":82990,"Delta":12401219},{"NoteNumber":78,"Velocity":52,"Duration":82990,"SoundDuration":82990,"Delta":12401219},{"NoteNumber":73,"Velocity":46,"Duration":144769,"SoundDuration":144769,"Delta":12493431},{"NoteNumber":78,"Velocity":54,"Duration":144769,"SoundDuration":144769,"Delta":12493431},{"NoteNumber":81,"Velocity":60,"Duration":271820,"SoundDuration":271820,"Delta":12686456},{"NoteNumber":73,"Velocity":51,"Duration":271820,"SoundDuration":271820,"Delta":12686456},{"NoteNumber":45,"Velocity":52,"Duration":181214,"SoundDuration":181214,"Delta":12686456},{"NoteNumber":33,"Velocity":44,"Duration":181214,"SoundDuration":181214,"Delta":12686456},{"NoteNumber":54,"Velocity":37,"Duration":173663,"SoundDuration":173663,"Delta":12867670},{"NoteNumber":61,"Velocity":37,"Duration":173663,"SoundDuration":173663,"Delta":12867670},{"NoteNumber":64,"Velocity":44,"Duration":173663,"SoundDuration":173663,"Delta":12867670},{"NoteNumber":73,"Velocity":45,"Duration":81546,"SoundDuration":81546,"Delta":12958277},{"NoteNumber":81,"Velocity":54,"Duration":81546,"SoundDuration":81546,"Delta":12958277},{"NoteNumber":81,"Velocity":54,"Duration":143211,"SoundDuration":143211,"Delta":13048884},{"NoteNumber":73,"Velocity":45,"Duration":143211,"SoundDuration":143211,"Delta":13048884},{"NoteNumber":54,"Velocity":37,"Duration":143211,"SoundDuration":143211,"Delta":13048884},{"NoteNumber":61,"Velocity":37,"Duration":143211,"SoundDuration":143211,"Delta":13048884},{"NoteNumber":64,"Velocity":44,"Duration":143211,"SoundDuration":143211,"Delta":13048884},{"NoteNumber":73,"Velocity":51,"Duration":1431741,"SoundDuration":1431741,"Delta":13239833},{"NoteNumber":81,"Velocity":60,"Duration":190948,"SoundDuration":190948,"Delta":13239833},{"NoteNumber":54,"Velocity":29,"Duration":190948,"SoundDuration":190948,"Delta":13239833},{"NoteNumber":61,"Velocity":29,"Duration":190948,"SoundDuration":190948,"Delta":13239833},{"NoteNumber":64,"Velocity":35,"Duration":190948,"SoundDuration":190948,"Delta":13239833},{"NoteNumber":80,"Velocity":60,"Duration":190948,"SoundDuration":190948,"Delta":13430782},{"NoteNumber":54,"Velocity":29,"Duration":190948,"SoundDuration":190948,"Delta":13430782},{"NoteNumber":61,"Velocity":29,"Duration":190948,"SoundDuration":190948,"Delta":13430782},{"NoteNumber":64,"Velocity":35,"Duration":190948,"SoundDuration":190948,"Delta":13430782},{"NoteNumber":78,"Velocity":60,"Duration":190948,"SoundDuration":190948,"Delta":13621731},{"NoteNumber":54,"Velocity":29,"Duration":190948,"SoundDuration":190948,"Delta":13621731},{"NoteNumber":61,"Velocity":29,"Duration":190948,"SoundDuration":190948,"Delta":13621731},{"NoteNumber":64,"Velocity":35,"Duration":190948,"SoundDuration":190948,"Delta":13621731},{"NoteNumber":85,"Velocity":60,"Duration":183711,"SoundDuration":183711,"Delta":13812680},{"NoteNumber":54,"Velocity":37,"Duration":1140658,"SoundDuration":1140658,"Delta":13812680},{"NoteNumber":61,"Velocity":37,"Duration":1140658,"SoundDuration":1140658,"Delta":13812680},{"NoteNumber":64,"Velocity":37,"Duration":1140658,"SoundDuration":1140658,"Delta":13812680},{"NoteNumber":81,"Velocity":60,"Duration":190948,"SoundDuration":190948,"Delta":13996391},{"NoteNumber":80,"Velocity":55,"Duration":190948,"SoundDuration":190948,"Delta":14187340},{"NoteNumber":78,"Velocity":55,"Duration":293285,"SoundDuration":293285,"Delta":14378289},{"NoteNumber":73,"Velocity":45,"Duration":81733,"SoundDuration":81733,"Delta":14671575},{"NoteNumber":78,"Velocity":54,"Duration":81733,"SoundDuration":81733,"Delta":14671575},{"NoteNumber":78,"Velocity":54,"Duration":143211,"SoundDuration":143211,"Delta":14762390},{"NoteNumber":73,"Velocity":45,"Duration":143211,"SoundDuration":143211,"Delta":14762390},{"NoteNumber":73,"Velocity":51,"Duration":1883210,"SoundDuration":1883210,"Delta":14953339},{"NoteNumber":81,"Velocity":60,"Duration":271820,"SoundDuration":271820,"Delta":14953339},{"NoteNumber":45,"Velocity":52,"Duration":181214,"SoundDuration":181214,"Delta":14953339},{"NoteNumber":33,"Velocity":44,"Duration":181214,"SoundDuration":181214,"Delta":14953339},{"NoteNumber":54,"Velocity":37,"Duration":173663,"SoundDuration":173663,"Delta":15134553},{"NoteNumber":61,"Velocity":37,"Duration":173663,"SoundDuration":173663,"Delta":15134553},{"NoteNumber":64,"Velocity":44,"Duration":173663,"SoundDuration":173663,"Delta":15134553},{"NoteNumber":81,"Velocity":54,"Duration":81546,"SoundDuration":81546,"Delta":15225160},{"NoteNumber":81,"Velocity":54,"Duration":143211,"SoundDuration":143211,"Delta":15315767},{"NoteNumber":54,"Velocity":37,"Duration":143211,"SoundDuration":143211,"Delta":15315767},{"NoteNumber":61,"Velocity":37,"Duration":143211,"SoundDuration":143211,"Delta":15315767},{"NoteNumber":64,"Velocity":44,"Duration":143211,"SoundDuration":143211,"Delta":15315767},{"NoteNumber":81,"Velocity":60,"Duration":190948,"SoundDuration":190948,"Delta":15506716},{"NoteNumber":54,"Velocity":29,"Duration":190948,"SoundDuration":190948,"Delta":15506716},{"NoteNumber":61,"Velocity":29,"Duration":190948,"SoundDuration":190948,"Delta":15506716},{"NoteNumber":64,"Velocity":35,"Duration":190948,"SoundDuration":190948,"Delta":15506716},{"NoteNumber":80,"Velocity":60,"Duration":190948,"SoundDuration":190948,"Delta":15697665},{"NoteNumber":54,"Velocity":29,"Duration":190948,"SoundDuration":190948,"Delta":15697665},{"NoteNumber":61,"Velocity":29,"Duration":190948,"SoundDuration":190948,"Delta":15697665},{"NoteNumber":64,"Velocity":35,"Duration":190948,"SoundDuration":190948,"Delta":15697665},{"NoteNumber":78,"Velocity":60,"Duration":190948,"SoundDuration":190948,"Delta":15888614},{"NoteNumber":54,"Velocity":29,"Duration":190948,"SoundDuration":190948,"Delta":15888614},{"NoteNumber":61,"Velocity":29,"Duration":190948,"SoundDuration":190948,"Delta":15888614},{"NoteNumber":64,"Velocity":35,"Duration":190948,"SoundDuration":190948,"Delta":15888614},{"NoteNumber":85,"Velocity":60,"Duration":183710,"SoundDuration":183710,"Delta":16079563},{"NoteNumber":54,"Velocity":37,"Duration":756986,"SoundDuration":756986,"Delta":16079563},{"NoteNumber":61,"Velocity":37,"Duration":756986,"SoundDuration":756986,"Delta":16079563},{"NoteNumber":64,"Velocity":37,"Duration":756986,"SoundDuration":756986,"Delta":16079563},{"NoteNumber":81,"Velocity":60,"Duration":190948,"SoundDuration":190948,"Delta":16263274},{"NoteNumber":80,"Velocity":55,"Duration":201112,"SoundDuration":201112,"Delta":16454223},{"NoteNumber":78,"Velocity":55,"Duration":181214,"SoundDuration":181214,"Delta":16655336},{"NoteNumber":83,"Velocity":83,"Duration":91224,"SoundDuration":91224,"Delta":16836550},{"NoteNumber":71,"Velocity":70,"Duration":91224,"SoundDuration":91224,"Delta":16836550},{"NoteNumber":66,"Velocity":78,"Duration":91224,"SoundDuration":91224,"Delta":16836550},{"NoteNumber":59,"Velocity":66,"Duration":91224,"SoundDuration":91224,"Delta":16836550},{"NoteNumber":71,"Velocity":66,"Duration":91224,"SoundDuration":91224,"Delta":17018999},{"NoteNumber":83,"Velocity":78,"Duration":91224,"SoundDuration":91224,"Delta":17018999},{"NoteNumber":59,"Velocity":59,"Duration":91224,"SoundDuration":91224,"Delta":17018999},{"NoteNumber":66,"Velocity":70,"Duration":91224,"SoundDuration":91224,"Delta":17018999},{"NoteNumber":71,"Velocity":74,"Duration":561711,"SoundDuration":561711,"Delta":17201447},{"NoteNumber":83,"Velocity":88,"Duration":561711,"SoundDuration":561711,"Delta":17201447},{"NoteNumber":66,"Velocity":78,"Duration":184342,"SoundDuration":184342,"Delta":17201447},{"NoteNumber":59,"Velocity":66,"Duration":184342,"SoundDuration":184342,"Delta":17201447},{"NoteNumber":56,"Velocity":63,"Duration":184343,"SoundDuration":184343,"Delta":17385790},{"NoteNumber":64,"Velocity":75,"Duration":184343,"SoundDuration":184343,"Delta":17385790},{"NoteNumber":59,"Velocity":61,"Duration":96512,"SoundDuration":96512,"Delta":17570133},{"NoteNumber":66,"Velocity":72,"Duration":96512,"SoundDuration":96512,"Delta":17570133},{"NoteNumber":71,"Velocity":71,"Duration":368686,"SoundDuration":368686,"Delta":17763159},{"NoteNumber":83,"Velocity":84,"Duration":553028,"SoundDuration":553028,"Delta":17763159},{"NoteNumber":68,"Velocity":78,"Duration":184342,"SoundDuration":184342,"Delta":17763159},{"NoteNumber":64,"Velocity":66,"Duration":184342,"SoundDuration":184342,"Delta":17763159},{"NoteNumber":71,"Velocity":74,"Duration":368686,"SoundDuration":368686,"Delta":17947502},{"NoteNumber":68,"Velocity":62,"Duration":184343,"SoundDuration":184343,"Delta":17947502},{"NoteNumber":59,"Velocity":62,"Duration":92171,"SoundDuration":92171,"Delta":18131845},{"NoteNumber":66,"Velocity":74,"Duration":92171,"SoundDuration":92171,"Delta":18131845},{"NoteNumber":71,"Velocity":86,"Duration":270640,"SoundDuration":270640,"Delta":18316188},{"NoteNumber":83,"Velocity":86,"Duration":730549,"SoundDuration":730549,"Delta":18316188},{"NoteNumber":66,"Velocity":84,"Duration":730549,"SoundDuration":730549,"Delta":18316188},{"NoteNumber":59,"Velocity":71,"Duration":730549,"SoundDuration":730549,"Delta":18316188},{"NoteNumber":71,"Velocity":71,"Duration":82669,"SoundDuration":82669,"Delta":18586828},{"NoteNumber":71,"Velocity":71,"Duration":91855,"SoundDuration":91855,"Delta":18678683},{"NoteNumber":71,"Velocity":85,"Duration":184342,"SoundDuration":184342,"Delta":18862394},{"NoteNumber":76,"Velocity":58,"Duration":108279,"SoundDuration":108279,"Delta":19046737},{"NoteNumber":71,"Velocity":49,"Duration":108279,"SoundDuration":108279,"Delta":19046737},{"NoteNumber":71,"Velocity":45,"Duration":91224,"SoundDuration":91224,"Delta":19246241},{"NoteNumber":76,"Velocity":53,"Duration":91224,"SoundDuration":91224,"Delta":19246241},{"NoteNumber":76,"Velocity":62,"Duration":184342,"SoundDuration":184342,"Delta":19428690},{"NoteNumber":71,"Velocity":52,"Duration":184342,"SoundDuration":184342,"Delta":19428690},{"NoteNumber":32,"Velocity":41,"Duration":184342,"SoundDuration":184342,"Delta":19428690},{"NoteNumber":44,"Velocity":49,"Duration":184342,"SoundDuration":184342,"Delta":19428690},{"NoteNumber":75,"Velocity":45,"Duration":184343,"SoundDuration":184343,"Delta":19613033},{"NoteNumber":78,"Velocity":53,"Duration":184343,"SoundDuration":184343,"Delta":19613033},{"NoteNumber":52,"Velocity":30,"Duration":92171,"SoundDuration":92171,"Delta":19613033},{"NoteNumber":56,"Velocity":30,"Duration":92171,"SoundDuration":92171,"Delta":19613033},{"NoteNumber":64,"Velocity":37,"Duration":92171,"SoundDuration":92171,"Delta":19613033},{"NoteNumber":59,"Velocity":30,"Duration":92171,"SoundDuration":92171,"Delta":19613033},{"NoteNumber":80,"Velocity":49,"Duration":96512,"SoundDuration":96512,"Delta":19797376},{"NoteNumber":76,"Velocity":41,"Duration":96512,"SoundDuration":96512,"Delta":19797376},{"NoteNumber":52,"Velocity":30,"Duration":96512,"SoundDuration":96512,"Delta":19797376},{"NoteNumber":56,"Velocity":30,"Duration":96512,"SoundDuration":96512,"Delta":19797376},{"NoteNumber":59,"Velocity":30,"Duration":96512,"SoundDuration":96512,"Delta":19797376},{"NoteNumber":64,"Velocity":37,"Duration":96512,"SoundDuration":96512,"Delta":19797376},{"NoteNumber":80,"Velocity":53,"Duration":386050,"SoundDuration":386050,"Delta":19990401},{"NoteNumber":76,"Velocity":45,"Duration":386050,"SoundDuration":386050,"Delta":19990401},{"NoteNumber":52,"Velocity":30,"Duration":386050,"SoundDuration":386050,"Delta":19990401},{"NoteNumber":56,"Velocity":30,"Duration":386050,"SoundDuration":386050,"Delta":19990401},{"NoteNumber":59,"Velocity":30,"Duration":386050,"SoundDuration":386050,"Delta":19990401},{"NoteNumber":64,"Velocity":37,"Duration":386050,"SoundDuration":386050,"Delta":19990401},{"NoteNumber":80,"Velocity":55,"Duration":91224,"SoundDuration":91224,"Delta":20376452},{"NoteNumber":76,"Velocity":46,"Duration":91224,"SoundDuration":91224,"Delta":20376452},{"NoteNumber":80,"Velocity":78,"Duration":184342,"SoundDuration":184342,"Delta":20558901},{"NoteNumber":76,"Velocity":66,"Duration":184342,"SoundDuration":184342,"Delta":20558901},{"NoteNumber":33,"Velocity":41,"Duration":184342,"SoundDuration":184342,"Delta":20558901},{"NoteNumber":45,"Velocity":49,"Duration":184342,"SoundDuration":184342,"Delta":20558901},{"NoteNumber":85,"Velocity":68,"Duration":184343,"SoundDuration":184343,"Delta":20743244},{"NoteNumber":52,"Velocity":37,"Duration":92171,"SoundDuration":92171,"Delta":20743244},{"NoteNumber":56,"Velocity":37,"Duration":92171,"SoundDuration":92171,"Delta":20743244},{"NoteNumber":64,"Velocity":45,"Duration":92171,"SoundDuration":92171,"Delta":20743244},{"NoteNumber":61,"Velocity":37,"Duration":92171,"SoundDuration":92171,"Delta":20743244},{"NoteNumber":88,"Velocity":71,"Duration":96512,"SoundDuration":96512,"Delta":20927587},{"NoteNumber":52,"Velocity":37,"Duration":96512,"SoundDuration":96512,"Delta":20927587},{"NoteNumber":56,"Velocity":37,"Duration":96512,"SoundDuration":96512,"Delta":20927587},{"NoteNumber":61,"Velocity":37,"Duration":96512,"SoundDuration":96512,"Delta":20927587},{"NoteNumber":64,"Velocity":45,"Duration":96512,"SoundDuration":96512,"Delta":20927587},{"NoteNumber":88,"Velocity":79,"Duration":289538,"SoundDuration":289538,"Delta":21120612},{"NoteNumber":52,"Velocity":37,"Duration":386050,"SoundDuration":386050,"Delta":21120612},{"NoteNumber":56,"Velocity":37,"Duration":386050,"SoundDuration":386050,"Delta":21120612},{"NoteNumber":61,"Velocity":37,"Duration":386050,"SoundDuration":386050,"Delta":21120612},{"NoteNumber":64,"Velocity":45,"Duration":386050,"SoundDuration":386050,"Delta":21120612},{"NoteNumber":76,"Velocity":72,"Duration":86861,"SoundDuration":86861,"Delta":21410150},{"NoteNumber":73,"Velocity":61,"Duration":86861,"SoundDuration":86861,"Delta":21410150},{"NoteNumber":76,"Velocity":75,"Duration":96512,"SoundDuration":96512,"Delta":21506663},{"NoteNumber":73,"Velocity":63,"Duration":96512,"SoundDuration":96512,"Delta":21506663},{"NoteNumber":76,"Velocity":81,"Duration":184342,"SoundDuration":184342,"Delta":21699689},{"NoteNumber":71,"Velocity":69,"Duration":184342,"SoundDuration":184342,"Delta":21699689},{"NoteNumber":35,"Velocity":53,"Duration":184342,"SoundDuration":184342,"Delta":21699689},{"NoteNumber":47,"Velocity":63,"Duration":184342,"SoundDuration":184342,"Delta":21699689},{"NoteNumber":75,"Velocity":59,"Duration":184343,"SoundDuration":184343,"Delta":21884032},{"NoteNumber":78,"Velocity":70,"Duration":184343,"SoundDuration":184343,"Delta":21884032},{"NoteNumber":52,"Velocity":39,"Duration":92171,"SoundDuration":92171,"Delta":21884032},{"NoteNumber":56,"Velocity":39,"Duration":92171,"SoundDuration":92171,"Delta":21884032},{"NoteNumber":64,"Velocity":48,"Duration":92171,"SoundDuration":92171,"Delta":21884032},{"NoteNumber":59,"Velocity":39,"Duration":92171,"SoundDuration":92171,"Delta":21884032},{"NoteNumber":80,"Velocity":66,"Duration":96512,"SoundDuration":96512,"Delta":22068375},{"NoteNumber":76,"Velocity":55,"Duration":96512,"SoundDuration":96512,"Delta":22068375},{"NoteNumber":52,"Velocity":40,"Duration":96512,"SoundDuration":96512,"Delta":22068375},{"NoteNumber":56,"Velocity":40,"Duration":96512,"SoundDuration":96512,"Delta":22068375},{"NoteNumber":59,"Velocity":40,"Duration":96512,"SoundDuration":96512,"Delta":22068375},{"NoteNumber":64,"Velocity":50,"Duration":96512,"SoundDuration":96512,"Delta":22068375},{"NoteNumber":80,"Velocity":72,"Duration":386050,"SoundDuration":386050,"Delta":22261400},{"NoteNumber":76,"Velocity":61,"Duration":386050,"SoundDuration":386050,"Delta":22261400},{"NoteNumber":52,"Velocity":40,"Duration":386050,"SoundDuration":386050,"Delta":22261400},{"NoteNumber":56,"Velocity":40,"Duration":386050,"SoundDuration":386050,"Delta":22261400},{"NoteNumber":59,"Velocity":40,"Duration":386050,"SoundDuration":386050,"Delta":22261400},{"NoteNumber":64,"Velocity":50,"Duration":386050,"SoundDuration":386050,"Delta":22261400},{"NoteNumber":80,"Velocity":77,"Duration":91224,"SoundDuration":91224,"Delta":22647451},{"NoteNumber":76,"Velocity":63,"Duration":91224,"SoundDuration":91224,"Delta":22647451},{"NoteNumber":80,"Velocity":96,"Duration":184342,"SoundDuration":184342,"Delta":22829900},{"NoteNumber":76,"Velocity":82,"Duration":184342,"SoundDuration":184342,"Delta":22829900},{"NoteNumber":37,"Velocity":51,"Duration":184342,"SoundDuration":184342,"Delta":22829900},{"NoteNumber":49,"Velocity":61,"Duration":184342,"SoundDuration":184342,"Delta":22829900},{"NoteNumber":85,"Velocity":85,"Duration":184343,"SoundDuration":184343,"Delta":23014243},{"NoteNumber":52,"Velocity":46,"Duration":92171,"SoundDuration":92171,"Delta":23014243},{"NoteNumber":56,"Velocity":46,"Duration":92171,"SoundDuration":92171,"Delta":23014243},{"NoteNumber":64,"Velocity":56,"Duration":92171,"SoundDuration":92171,"Delta":23014243},{"NoteNumber":61,"Velocity":46,"Duration":92171,"SoundDuration":92171,"Delta":23014243},{"NoteNumber":88,"Velocity":91,"Duration":96512,"SoundDuration":96512,"Delta":23198586},{"NoteNumber":52,"Velocity":47,"Duration":96512,"SoundDuration":96512,"Delta":23198586},{"NoteNumber":56,"Velocity":47,"Duration":96512,"SoundDuration":96512,"Delta":23198586},{"NoteNumber":61,"Velocity":47,"Duration":96512,"SoundDuration":96512,"Delta":23198586},{"NoteNumber":64,"Velocity":57,"Duration":96512,"SoundDuration":96512,"Delta":23198586},{"NoteNumber":88,"Velocity":102,"Duration":289538,"SoundDuration":289538,"Delta":23391611},{"NoteNumber":52,"Velocity":48,"Duration":386050,"SoundDuration":386050,"Delta":23391611},{"NoteNumber":56,"Velocity":48,"Duration":386050,"SoundDuration":386050,"Delta":23391611},{"NoteNumber":61,"Velocity":48,"Duration":386050,"SoundDuration":386050,"Delta":23391611},{"NoteNumber":64,"Velocity":58,"Duration":386050,"SoundDuration":386050,"Delta":23391611},{"NoteNumber":76,"Velocity":83,"Duration":86861,"SoundDuration":86861,"Delta":23681149},{"NoteNumber":73,"Velocity":70,"Duration":86861,"SoundDuration":86861,"Delta":23681149},{"NoteNumber":76,"Velocity":86,"Duration":96512,"SoundDuration":96512,"Delta":23777662},{"NoteNumber":73,"Velocity":73,"Duration":96512,"SoundDuration":96512,"Delta":23777662},{"NoteNumber":76,"Velocity":83,"Duration":276514,"SoundDuration":276514,"Delta":23970688},{"NoteNumber":71,"Velocity":70,"Duration":276514,"SoundDuration":276514,"Delta":23970688},{"NoteNumber":38,"Velocity":56,"Duration":184342,"SoundDuration":184342,"Delta":23970688},{"NoteNumber":50,"Velocity":66,"Duration":184342,"SoundDuration":184342,"Delta":23970688},{"NoteNumber":52,"Velocity":41,"Duration":92171,"SoundDuration":92171,"Delta":24155031},{"NoteNumber":56,"Velocity":41,"Duration":92171,"SoundDuration":92171,"Delta":24155031},{"NoteNumber":64,"Velocity":50,"Duration":92171,"SoundDuration":92171,"Delta":24155031},{"NoteNumber":59,"Velocity":41,"Duration":92171,"SoundDuration":92171,"Delta":24155031},{"NoteNumber":78,"Velocity":88,"Duration":92171,"SoundDuration":92171,"Delta":24247202},{"NoteNumber":80,"Velocity":81,"Duration":96512,"SoundDuration":96512,"Delta":24339374},{"NoteNumber":52,"Velocity":41,"Duration":96512,"SoundDuration":96512,"Delta":24339374},{"NoteNumber":56,"Velocity":41,"Duration":96512,"SoundDuration":96512,"Delta":24339374},{"NoteNumber":59,"Velocity":41,"Duration":96512,"SoundDuration":96512,"Delta":24339374},{"NoteNumber":64,"Velocity":50,"Duration":96512,"SoundDuration":96512,"Delta":24339374},{"NoteNumber":80,"Velocity":97,"Duration":193025,"SoundDuration":193025,"Delta":24532399},{"NoteNumber":76,"Velocity":82,"Duration":193025,"SoundDuration":193025,"Delta":24532399},{"NoteNumber":52,"Velocity":42,"Duration":386050,"SoundDuration":386050,"Delta":24532399},{"NoteNumber":56,"Velocity":42,"Duration":386050,"SoundDuration":386050,"Delta":24532399},{"NoteNumber":59,"Velocity":42,"Duration":386050,"SoundDuration":386050,"Delta":24532399},{"NoteNumber":64,"Velocity":51,"Duration":386050,"SoundDuration":386050,"Delta":24532399},{"NoteNumber":83,"Velocity":85,"Duration":193025,"SoundDuration":193025,"Delta":24725425},{"NoteNumber":88,"Velocity":90,"Duration":91224,"SoundDuration":91224,"Delta":24918450},{"NoteNumber":81,"Velocity":95,"Duration":754736,"SoundDuration":754736,"Delta":25100899},{"NoteNumber":76,"Velocity":95,"Duration":754736,"SoundDuration":754736,"Delta":25100899},{"NoteNumber":88,"Velocity":112,"Duration":754736,"SoundDuration":754736,"Delta":25100899},{"NoteNumber":37,"Velocity":60,"Duration":184342,"SoundDuration":184342,"Delta":25100899},{"NoteNumber":49,"Velocity":71,"Duration":184342,"SoundDuration":184342,"Delta":25100899},{"NoteNumber":52,"Velocity":53,"Duration":92171,"SoundDuration":92171,"Delta":25285242},{"NoteNumber":57,"Velocity":53,"Duration":92171,"SoundDuration":92171,"Delta":25285242},{"NoteNumber":64,"Velocity":64,"Duration":92171,"SoundDuration":92171,"Delta":25285242},{"NoteNumber":61,"Velocity":53,"Duration":92171,"SoundDuration":92171,"Delta":25285242},{"NoteNumber":52,"Velocity":53,"Duration":96512,"SoundDuration":96512,"Delta":25469585},{"NoteNumber":57,"Velocity":53,"Duration":96512,"SoundDuration":96512,"Delta":25469585},{"NoteNumber":61,"Velocity":53,"Duration":96512,"SoundDuration":96512,"Delta":25469585},{"NoteNumber":64,"Velocity":64,"Duration":96512,"SoundDuration":96512,"Delta":25469585},{"NoteNumber":52,"Velocity":53,"Duration":375473,"SoundDuration":375473,"Delta":25662610},{"NoteNumber":57,"Velocity":53,"Duration":375473,"SoundDuration":375473,"Delta":25662610},{"NoteNumber":61,"Velocity":53,"Duration":375473,"SoundDuration":375473,"Delta":25662610},{"NoteNumber":64,"Velocity":64,"Duration":375473,"SoundDuration":375473,"Delta":25662610},{"NoteNumber":87,"Velocity":78,"Duration":91224,"SoundDuration":91224,"Delta":25855636},{"NoteNumber":85,"Velocity":72,"Duration":91224,"SoundDuration":91224,"Delta":26038084},{"NoteNumber":83,"Velocity":80,"Duration":89089,"SoundDuration":89089,"Delta":26220533},{"NoteNumber":39,"Velocity":46,"Duration":89089,"SoundDuration":89089,"Delta":26220533},{"NoteNumber":51,"Velocity":55,"Duration":89089,"SoundDuration":89089,"Delta":26220533},{"NoteNumber":81,"Velocity":68,"Duration":89089,"SoundDuration":89089,"Delta":26398712},{"NoteNumber":51,"Velocity":41,"Duration":89089,"SoundDuration":89089,"Delta":26398712},{"NoteNumber":54,"Velocity":41,"Duration":89089,"SoundDuration":89089,"Delta":26398712},{"NoteNumber":59,"Velocity":50,"Duration":89089,"SoundDuration":89089,"Delta":26398712},{"NoteNumber":57,"Velocity":41,"Duration":89089,"SoundDuration":89089,"Delta":26398712},{"NoteNumber":80,"Velocity":61,"Duration":89089,"SoundDuration":89089,"Delta":26576891},{"NoteNumber":51,"Velocity":41,"Duration":89089,"SoundDuration":89089,"Delta":26576891},{"NoteNumber":54,"Velocity":41,"Duration":89089,"SoundDuration":89089,"Delta":26576891},{"NoteNumber":57,"Velocity":41,"Duration":89089,"SoundDuration":89089,"Delta":26576891},{"NoteNumber":59,"Velocity":50,"Duration":89089,"SoundDuration":89089,"Delta":26576891},{"NoteNumber":81,"Velocity":72,"Duration":89089,"SoundDuration":89089,"Delta":26755070},{"NoteNumber":51,"Velocity":41,"Duration":178179,"SoundDuration":178179,"Delta":26755070},{"NoteNumber":54,"Velocity":41,"Duration":178179,"SoundDuration":178179,"Delta":26755070},{"NoteNumber":57,"Velocity":41,"Duration":178179,"SoundDuration":178179,"Delta":26755070},{"NoteNumber":59,"Velocity":50,"Duration":178179,"SoundDuration":178179,"Delta":26755070},{"NoteNumber":78,"Velocity":62,"Duration":89089,"SoundDuration":89089,"Delta":26933249},{"NoteNumber":75,"Velocity":62,"Duration":94126,"SoundDuration":94126,"Delta":27111428},{"NoteNumber":95,"Velocity":81,"Duration":718247,"SoundDuration":718247,"Delta":27299681},{"NoteNumber":83,"Velocity":68,"Duration":718247,"SoundDuration":718247,"Delta":27299681},{"NoteNumber":52,"Velocity":46,"Duration":89089,"SoundDuration":89089,"Delta":27299681},{"NoteNumber":47,"Velocity":46,"Duration":89089,"SoundDuration":89089,"Delta":27299681},{"NoteNumber":44,"Velocity":46,"Duration":89089,"SoundDuration":89089,"Delta":27299681},{"NoteNumber":56,"Velocity":55,"Duration":89089,"SoundDuration":89089,"Delta":27299681},{"NoteNumber":44,"Velocity":41,"Duration":89089,"SoundDuration":89089,"Delta":27477860},{"NoteNumber":47,"Velocity":41,"Duration":89089,"SoundDuration":89089,"Delta":27477860},{"NoteNumber":56,"Velocity":50,"Duration":89089,"SoundDuration":89089,"Delta":27477860},{"NoteNumber":52,"Velocity":41,"Duration":89089,"SoundDuration":89089,"Delta":27477860},{"NoteNumber":44,"Velocity":41,"Duration":89089,"SoundDuration":89089,"Delta":27656039},{"NoteNumber":47,"Velocity":41,"Duration":89089,"SoundDuration":89089,"Delta":27656039},{"NoteNumber":52,"Velocity":41,"Duration":89089,"SoundDuration":89089,"Delta":27656039},{"NoteNumber":56,"Velocity":50,"Duration":89089,"SoundDuration":89089,"Delta":27656039},{"NoteNumber":44,"Velocity":41,"Duration":183710,"SoundDuration":183710,"Delta":27834218},{"NoteNumber":47,"Velocity":41,"Duration":183710,"SoundDuration":183710,"Delta":27834218},{"NoteNumber":52,"Velocity":41,"Duration":183710,"SoundDuration":183710,"Delta":27834218},{"NoteNumber":56,"Velocity":50,"Duration":183710,"SoundDuration":183710,"Delta":27834218},{"NoteNumber":81,"Velocity":59,"Duration":89089,"SoundDuration":89089,"Delta":28017929},{"NoteNumber":93,"Velocity":70,"Duration":89089,"SoundDuration":89089,"Delta":28017929},{"NoteNumber":80,"Velocity":59,"Duration":89089,"SoundDuration":89089,"Delta":28196108},{"NoteNumber":92,"Velocity":70,"Duration":89089,"SoundDuration":89089,"Delta":28196108},{"NoteNumber":90,"Velocity":79,"Duration":87341,"SoundDuration":87341,"Delta":28374287},{"NoteNumber":78,"Velocity":67,"Duration":87341,"SoundDuration":87341,"Delta":28374287},{"NoteNumber":52,"Velocity":39,"Duration":87341,"SoundDuration":87341,"Delta":28374287},{"NoteNumber":46,"Velocity":39,"Duration":87341,"SoundDuration":87341,"Delta":28374287},{"NoteNumber":54,"Velocity":46,"Duration":87341,"SoundDuration":87341,"Delta":28374287},{"NoteNumber":76,"Velocity":59,"Duration":89089,"SoundDuration":89089,"Delta":28548969},{"NoteNumber":88,"Velocity":70,"Duration":89089,"SoundDuration":89089,"Delta":28548969},{"NoteNumber":46,"Velocity":34,"Duration":89089,"SoundDuration":89089,"Delta":28548969},{"NoteNumber":54,"Velocity":42,"Duration":89089,"SoundDuration":89089,"Delta":28548969},{"NoteNumber":52,"Velocity":34,"Duration":89089,"SoundDuration":89089,"Delta":28548969},{"NoteNumber":75,"Velocity":59,"Duration":89089,"SoundDuration":89089,"Delta":28727148},{"NoteNumber":87,"Velocity":70,"Duration":89089,"SoundDuration":89089,"Delta":28727148},{"NoteNumber":46,"Velocity":34,"Duration":89089,"SoundDuration":89089,"Delta":28727148},{"NoteNumber":52,"Velocity":34,"Duration":89089,"SoundDuration":89089,"Delta":28727148},{"NoteNumber":54,"Velocity":42,"Duration":89089,"SoundDuration":89089,"Delta":28727148},{"NoteNumber":85,"Velocity":76,"Duration":89089,"SoundDuration":89089,"Delta":28905327},{"NoteNumber":73,"Velocity":64,"Duration":89089,"SoundDuration":89089,"Delta":28905327},{"NoteNumber":52,"Velocity":39,"Duration":89089,"SoundDuration":89089,"Delta":28905327},{"NoteNumber":46,"Velocity":39,"Duration":89089,"SoundDuration":89089,"Delta":28905327},{"NoteNumber":54,"Velocity":46,"Duration":89089,"SoundDuration":89089,"Delta":28905327},{"NoteNumber":71,"Velocity":59,"Duration":89089,"SoundDuration":89089,"Delta":29083506},{"NoteNumber":83,"Velocity":70,"Duration":89089,"SoundDuration":89089,"Delta":29083506},{"NoteNumber":46,"Velocity":34,"Duration":89089,"SoundDuration":89089,"Delta":29083506},{"NoteNumber":54,"Velocity":42,"Duration":89089,"SoundDuration":89089,"Delta":29083506},{"NoteNumber":52,"Velocity":34,"Duration":89089,"SoundDuration":89089,"Delta":29083506},{"NoteNumber":70,"Velocity":59,"Duration":89089,"SoundDuration":89089,"Delta":29261685},{"NoteNumber":82,"Velocity":70,"Duration":89089,"SoundDuration":89089,"Delta":29261685},{"NoteNumber":46,"Velocity":34,"Duration":89089,"SoundDuration":89089,"Delta":29261685},{"NoteNumber":52,"Velocity":34,"Duration":89089,"SoundDuration":89089,"Delta":29261685},{"NoteNumber":54,"Velocity":42,"Duration":89089,"SoundDuration":89089,"Delta":29261685},{"NoteNumber":80,"Velocity":78,"Duration":89089,"SoundDuration":89089,"Delta":29439864},{"NoteNumber":68,"Velocity":66,"Duration":89089,"SoundDuration":89089,"Delta":29439864},{"NoteNumber":52,"Velocity":39,"Duration":89089,"SoundDuration":89089,"Delta":29439864},{"NoteNumber":46,"Velocity":39,"Duration":89089,"SoundDuration":89089,"Delta":29439864},{"NoteNumber":54,"Velocity":46,"Duration":89089,"SoundDuration":89089,"Delta":29439864},{"NoteNumber":78,"Velocity":64,"Duration":89089,"SoundDuration":89089,"Delta":29618043},{"NoteNumber":66,"Velocity":54,"Duration":89089,"SoundDuration":89089,"Delta":29618043},{"NoteNumber":46,"Velocity":33,"Duration":89089,"SoundDuration":89089,"Delta":29618043},{"NoteNumber":54,"Velocity":41,"Duration":89089,"SoundDuration":89089,"Delta":29618043},{"NoteNumber":52,"Velocity":33,"Duration":89089,"SoundDuration":89089,"Delta":29618043},{"NoteNumber":76,"Velocity":64,"Duration":89089,"SoundDuration":89089,"Delta":29796222},{"NoteNumber":64,"Velocity":54,"Duration":89089,"SoundDuration":89089,"Delta":29796222},{"NoteNumber":46,"Velocity":32,"Duration":89089,"SoundDuration":89089,"Delta":29796222},{"NoteNumber":52,"Velocity":32,"Duration":89089,"SoundDuration":89089,"Delta":29796222},{"NoteNumber":54,"Velocity":40,"Duration":89089,"SoundDuration":89089,"Delta":29796222},{"NoteNumber":75,"Velocity":70,"Duration":89089,"SoundDuration":89089,"Delta":29974401},{"NoteNumber":63,"Velocity":59,"Duration":89089,"SoundDuration":89089,"Delta":29974401},{"NoteNumber":52,"Velocity":37,"Duration":89089,"SoundDuration":89089,"Delta":29974401},{"NoteNumber":46,"Velocity":37,"Duration":89089,"SoundDuration":89089,"Delta":29974401},{"NoteNumber":54,"Velocity":43,"Duration":89089,"SoundDuration":89089,"Delta":29974401},{"NoteNumber":76,"Velocity":61,"Duration":89089,"SoundDuration":89089,"Delta":30152580},{"NoteNumber":64,"Velocity":51,"Duration":89089,"SoundDuration":89089,"Delta":30152580},{"NoteNumber":46,"Velocity":31,"Duration":89089,"SoundDuration":89089,"Delta":30152580},{"NoteNumber":54,"Velocity":39,"Duration":89089,"SoundDuration":89089,"Delta":30152580},{"NoteNumber":52,"Velocity":31,"Duration":89089,"SoundDuration":89089,"Delta":30152580},{"NoteNumber":73,"Velocity":61,"Duration":94126,"SoundDuration":94126,"Delta":30330759},{"NoteNumber":61,"Velocity":51,"Duration":94126,"SoundDuration":94126,"Delta":30330759},{"NoteNumber":46,"Velocity":31,"Duration":94126,"SoundDuration":94126,"Delta":30330759},{"NoteNumber":52,"Velocity":31,"Duration":94126,"SoundDuration":94126,"Delta":30330759},{"NoteNumber":54,"Velocity":38,"Duration":94126,"SoundDuration":94126,"Delta":30330759},{"NoteNumber":71,"Velocity":69,"Duration":87341,"SoundDuration":87341,"Delta":30519012},{"NoteNumber":59,"Velocity":58,"Duration":87341,"SoundDuration":87341,"Delta":30519012},{"NoteNumber":47,"Velocity":35,"Duration":87341,"SoundDuration":87341,"Delta":30519012},{"NoteNumber":56,"Velocity":41,"Duration":87341,"SoundDuration":87341,"Delta":30519012},{"NoteNumber":52,"Velocity":35,"Duration":87341,"SoundDuration":87341,"Delta":30523379},{"NoteNumber":76,"Velocity":53,"Duration":88500,"SoundDuration":88500,"Delta":30693695},{"NoteNumber":64,"Velocity":45,"Duration":88500,"SoundDuration":88500,"Delta":30693695},{"NoteNumber":47,"Velocity":29,"Duration":88500,"SoundDuration":88500,"Delta":30693695},{"NoteNumber":56,"Velocity":36,"Duration":88500,"SoundDuration":88500,"Delta":30693695},{"NoteNumber":52,"Velocity":29,"Duration":88500,"SoundDuration":88500,"Delta":30698120},{"NoteNumber":68,"Velocity":53,"Duration":88500,"SoundDuration":88500,"Delta":30870696},{"NoteNumber":64,"Velocity":45,"Duration":88500,"SoundDuration":88500,"Delta":30870696},{"NoteNumber":47,"Velocity":29,"Duration":88500,"SoundDuration":88500,"Delta":30870696},{"NoteNumber":56,"Velocity":36,"Duration":88500,"SoundDuration":88500,"Delta":30870696},{"NoteNumber":52,"Velocity":29,"Duration":88500,"SoundDuration":88500,"Delta":30875121},{"NoteNumber":71,"Velocity":62,"Duration":88500,"SoundDuration":88500,"Delta":31047698},{"NoteNumber":63,"Velocity":52,"Duration":88500,"SoundDuration":88500,"Delta":31047698},{"NoteNumber":47,"Velocity":33,"Duration":88500,"SoundDuration":88500,"Delta":31047698},{"NoteNumber":54,"Velocity":33,"Duration":88500,"SoundDuration":88500,"Delta":31047698},{"NoteNumber":57,"Velocity":39,"Duration":88500,"SoundDuration":88500,"Delta":31047698},{"NoteNumber":69,"Velocity":45,"Duration":91855,"SoundDuration":91855,"Delta":31224699},{"NoteNumber":63,"Velocity":38,"Duration":91855,"SoundDuration":91855,"Delta":31224699},{"NoteNumber":47,"Velocity":28,"Duration":91855,"SoundDuration":91855,"Delta":31224699},{"NoteNumber":54,"Velocity":28,"Duration":91855,"SoundDuration":91855,"Delta":31224699},{"NoteNumber":57,"Velocity":34,"Duration":91855,"SoundDuration":91855,"Delta":31224699},{"NoteNumber":66,"Velocity":45,"Duration":96512,"SoundDuration":96512,"Delta":31408410},{"NoteNumber":63,"Velocity":38,"Duration":96512,"SoundDuration":96512,"Delta":31408410},{"NoteNumber":47,"Velocity":27,"Duration":96512,"SoundDuration":96512,"Delta":31408410},{"NoteNumber":54,"Velocity":27,"Duration":96512,"SoundDuration":96512,"Delta":31408410},{"NoteNumber":57,"Velocity":34,"Duration":96512,"SoundDuration":96512,"Delta":31408410},{"NoteNumber":64,"Velocity":57,"Duration":184342,"SoundDuration":184342,"Delta":31601436},{"NoteNumber":52,"Velocity":33,"Duration":184342,"SoundDuration":184342,"Delta":31601436},{"NoteNumber":56,"Velocity":33,"Duration":184342,"SoundDuration":184342,"Delta":31601436},{"NoteNumber":45,"Velocity":79,"Duration":309564,"SoundDuration":309564,"Delta":32154465},{"NoteNumber":33,"Velocity":67,"Duration":309564,"SoundDuration":309564,"Delta":32154465},{"NoteNumber":64,"Velocity":59,"Duration":82101,"SoundDuration":82101,"Delta":32464029},{"NoteNumber":69,"Velocity":70,"Duration":82101,"SoundDuration":82101,"Delta":32464029},{"NoteNumber":49,"Velocity":50,"Duration":82101,"SoundDuration":82101,"Delta":32464029},{"NoteNumber":57,"Velocity":59,"Duration":82101,"SoundDuration":82101,"Delta":32464029},{"NoteNumber":69,"Velocity":68,"Duration":136836,"SoundDuration":136836,"Delta":32555254},{"NoteNumber":64,"Velocity":57,"Duration":136836,"SoundDuration":136836,"Delta":32555254},{"NoteNumber":57,"Velocity":54,"Duration":136836,"SoundDuration":136836,"Delta":32555254},{"NoteNumber":49,"Velocity":45,"Duration":136836,"SoundDuration":136836,"Delta":32555254},{"NoteNumber":64,"Velocity":59,"Duration":184342,"SoundDuration":184342,"Delta":32737702},{"NoteNumber":69,"Velocity":70,"Duration":184342,"SoundDuration":184342,"Delta":32737702},{"NoteNumber":49,"Velocity":50,"Duration":184342,"SoundDuration":184342,"Delta":32737702},{"NoteNumber":57,"Velocity":59,"Duration":184342,"SoundDuration":184342,"Delta":32737702},{"NoteNumber":71,"Velocity":69,"Duration":184342,"SoundDuration":184342,"Delta":32922045},{"NoteNumber":68,"Velocity":58,"Duration":184342,"SoundDuration":184342,"Delta":32922045},{"NoteNumber":59,"Velocity":55,"Duration":184342,"SoundDuration":184342,"Delta":32922045},{"NoteNumber":52,"Velocity":46,"Duration":184342,"SoundDuration":184342,"Delta":32922045},{"NoteNumber":73,"Velocity":69,"Duration":96512,"SoundDuration":96512,"Delta":33106388},{"NoteNumber":69,"Velocity":69,"Duration":96512,"SoundDuration":96512,"Delta":33106388},{"NoteNumber":64,"Velocity":58,"Duration":96512,"SoundDuration":96512,"Delta":33106388},{"NoteNumber":57,"Velocity":46,"Duration":96512,"SoundDuration":96512,"Delta":33106388},{"NoteNumber":61,"Velocity":55,"Duration":96512,"SoundDuration":96512,"Delta":33106388},{"NoteNumber":73,"Velocity":73,"Duration":368685,"SoundDuration":368685,"Delta":33299414},{"NoteNumber":69,"Velocity":73,"Duration":368685,"SoundDuration":368685,"Delta":33299414},{"NoteNumber":64,"Velocity":62,"Duration":368685,"SoundDuration":368685,"Delta":33299414},{"NoteNumber":57,"Velocity":51,"Duration":368685,"SoundDuration":368685,"Delta":33299414},{"NoteNumber":61,"Velocity":60,"Duration":368685,"SoundDuration":368685,"Delta":33299414},{"NoteNumber":73,"Velocity":65,"Duration":138257,"SoundDuration":138257,"Delta":33668100},{"NoteNumber":69,"Velocity":55,"Duration":138257,"SoundDuration":138257,"Delta":33668100},{"NoteNumber":57,"Velocity":50,"Duration":138257,"SoundDuration":138257,"Delta":33668100},{"NoteNumber":61,"Velocity":59,"Duration":138257,"SoundDuration":138257,"Delta":33668100},{"NoteNumber":69,"Velocity":59,"Duration":184342,"SoundDuration":184342,"Delta":33852443},{"NoteNumber":73,"Velocity":70,"Duration":184342,"SoundDuration":184342,"Delta":33852443},{"NoteNumber":57,"Velocity":53,"Duration":184342,"SoundDuration":184342,"Delta":33852443},{"NoteNumber":61,"Velocity":63,"Duration":184342,"SoundDuration":184342,"Delta":33852443},{"NoteNumber":74,"Velocity":66,"Duration":184342,"SoundDuration":184342,"Delta":34036786},{"NoteNumber":71,"Velocity":56,"Duration":184342,"SoundDuration":184342,"Delta":34036786},{"NoteNumber":62,"Velocity":59,"Duration":184342,"SoundDuration":184342,"Delta":34036786},{"NoteNumber":59,"Velocity":50,"Duration":184342,"SoundDuration":184342,"Delta":34036786},{"NoteNumber":76,"Velocity":64,"Duration":95135,"SoundDuration":95135,"Delta":34221129},{"NoteNumber":73,"Velocity":54,"Duration":95135,"SoundDuration":95135,"Delta":34221129},{"NoteNumber":69,"Velocity":54,"Duration":95135,"SoundDuration":95135,"Delta":34221129},{"NoteNumber":61,"Velocity":50,"Duration":95135,"SoundDuration":95135,"Delta":34221129},{"NoteNumber":64,"Velocity":59,"Duration":95135,"SoundDuration":95135,"Delta":34221129},{"NoteNumber":76,"Velocity":78,"Duration":276514,"SoundDuration":276514,"Delta":34411400},{"NoteNumber":73,"Velocity":66,"Duration":276514,"SoundDuration":276514,"Delta":34411400},{"NoteNumber":69,"Velocity":66,"Duration":276514,"SoundDuration":276514,"Delta":34411400},{"NoteNumber":64,"Velocity":66,"Duration":276514,"SoundDuration":276514,"Delta":34411400},{"NoteNumber":61,"Velocity":56,"Duration":276514,"SoundDuration":276514,"Delta":34411400},{"NoteNumber":74,"Velocity":59,"Duration":82954,"SoundDuration":82954,"Delta":34687914},{"NoteNumber":78,"Velocity":70,"Duration":82954,"SoundDuration":82954,"Delta":34687914},{"NoteNumber":62,"Velocity":50,"Duration":82954,"SoundDuration":82954,"Delta":34687914},{"NoteNumber":66,"Velocity":59,"Duration":82954,"SoundDuration":82954,"Delta":34687914},{"NoteNumber":74,"Velocity":62,"Duration":150834,"SoundDuration":150834,"Delta":34780086},{"NoteNumber":78,"Velocity":73,"Duration":150834,"SoundDuration":150834,"Delta":34780086},{"NoteNumber":66,"Velocity":62,"Duration":150834,"SoundDuration":150834,"Delta":34780086},{"NoteNumber":62,"Velocity":52,"Duration":150834,"SoundDuration":150834,"Delta":34780086},{"NoteNumber":81,"Velocity":80,"Duration":271821,"SoundDuration":271821,"Delta":34981199},{"NoteNumber":78,"Velocity":68,"Duration":271821,"SoundDuration":271821,"Delta":34981199},{"NoteNumber":69,"Velocity":68,"Duration":271821,"SoundDuration":271821,"Delta":34981199},{"NoteNumber":66,"Velocity":70,"Duration":271821,"SoundDuration":271821,"Delta":34981199},{"NoteNumber":62,"Velocity":59,"Duration":271821,"SoundDuration":271821,"Delta":34981199},{"NoteNumber":57,"Velocity":59,"Duration":271821,"SoundDuration":271821,"Delta":34981199},{"NoteNumber":78,"Velocity":61,"Duration":81546,"SoundDuration":81546,"Delta":35253020},{"NoteNumber":81,"Velocity":72,"Duration":81546,"SoundDuration":81546,"Delta":35253020},{"NoteNumber":62,"Velocity":50,"Duration":81546,"SoundDuration":81546,"Delta":35253020},{"NoteNumber":66,"Velocity":59,"Duration":81546,"SoundDuration":81546,"Delta":35253020},{"NoteNumber":81,"Velocity":72,"Duration":143211,"SoundDuration":143211,"Delta":35343627},{"NoteNumber":78,"Velocity":61,"Duration":143211,"SoundDuration":143211,"Delta":35343627},{"NoteNumber":62,"Velocity":50,"Duration":143211,"SoundDuration":143211,"Delta":35343627},{"NoteNumber":66,"Velocity":59,"Duration":143211,"SoundDuration":143211,"Delta":35343627},{"NoteNumber":69,"Velocity":66,"Duration":184342,"SoundDuration":184342,"Delta":35534576},{"NoteNumber":78,"Velocity":66,"Duration":184342,"SoundDuration":184342,"Delta":35534576},{"NoteNumber":81,"Velocity":78,"Duration":184342,"SoundDuration":184342,"Delta":35534576},{"NoteNumber":66,"Velocity":67,"Duration":184342,"SoundDuration":184342,"Delta":35534576},{"NoteNumber":62,"Velocity":56,"Duration":184342,"SoundDuration":184342,"Delta":35534576},{"NoteNumber":80,"Velocity":66,"Duration":200440,"SoundDuration":200440,"Delta":35718919},{"NoteNumber":76,"Velocity":56,"Duration":200440,"SoundDuration":200440,"Delta":35718919},{"NoteNumber":64,"Velocity":50,"Duration":200440,"SoundDuration":200440,"Delta":35718919},{"NoteNumber":68,"Velocity":59,"Duration":200440,"SoundDuration":200440,"Delta":35718919},{"NoteNumber":78,"Velocity":66,"Duration":124823,"SoundDuration":124823,"Delta":35919360},{"NoteNumber":74,"Velocity":56,"Duration":124823,"SoundDuration":124823,"Delta":35919360},{"NoteNumber":62,"Velocity":50,"Duration":124823,"SoundDuration":124823,"Delta":35919360},{"NoteNumber":66,"Velocity":59,"Duration":124823,"SoundDuration":124823,"Delta":35919360},{"NoteNumber":78,"Velocity":76,"Duration":578146,"SoundDuration":578146,"Delta":36169006},{"NoteNumber":74,"Velocity":64,"Duration":578146,"SoundDuration":578146,"Delta":36169006},{"NoteNumber":69,"Velocity":64,"Duration":578146,"SoundDuration":578146,"Delta":36169006},{"NoteNumber":66,"Velocity":67,"Duration":578146,"SoundDuration":578146,"Delta":36169006},{"NoteNumber":62,"Velocity":56,"Duration":578146,"SoundDuration":578146,"Delta":36169006},{"NoteNumber":57,"Velocity":56,"Duration":578146,"SoundDuration":578146,"Delta":36169006},{"NoteNumber":76,"Velocity":66,"Duration":228710,"SoundDuration":228710,"Delta":36747153},{"NoteNumber":73,"Velocity":56,"Duration":228710,"SoundDuration":228710,"Delta":36747153},{"NoteNumber":64,"Velocity":58,"Duration":228710,"SoundDuration":228710,"Delta":36747153},{"NoteNumber":61,"Velocity":49,"Duration":228710,"SoundDuration":228710,"Delta":36747153},{"NoteNumber":64,"Velocity":59,"Duration":82101,"SoundDuration":82101,"Delta":37090219},{"NoteNumber":69,"Velocity":70,"Duration":82101,"SoundDuration":82101,"Delta":37090219},{"NoteNumber":49,"Velocity":50,"Duration":82101,"SoundDuration":82101,"Delta":37090219},{"NoteNumber":57,"Velocity":59,"Duration":82101,"SoundDuration":82101,"Delta":37090219},{"NoteNumber":69,"Velocity":68,"Duration":136836,"SoundDuration":136836,"Delta":37181443},{"NoteNumber":64,"Velocity":57,"Duration":136836,"SoundDuration":136836,"Delta":37181443},{"NoteNumber":57,"Velocity":54,"Duration":136836,"SoundDuration":136836,"Delta":37181443},{"NoteNumber":49,"Velocity":45,"Duration":136836,"SoundDuration":136836,"Delta":37181443},{"NoteNumber":64,"Velocity":59,"Duration":184342,"SoundDuration":184342,"Delta":37363892},{"NoteNumber":69,"Velocity":70,"Duration":184342,"SoundDuration":184342,"Delta":37363892},{"NoteNumber":49,"Velocity":50,"Duration":184342,"SoundDuration":184342,"Delta":37363892},{"NoteNumber":57,"Velocity":59,"Duration":184342,"SoundDuration":184342,"Delta":37363892},{"NoteNumber":71,"Velocity":69,"Duration":184342,"SoundDuration":184342,"Delta":37548235},{"NoteNumber":68,"Velocity":58,"Duration":184342,"SoundDuration":184342,"Delta":37548235},{"NoteNumber":59,"Velocity":55,"Duration":184342,"SoundDuration":184342,"Delta":37548235},{"NoteNumber":52,"Velocity":46,"Duration":184342,"SoundDuration":184342,"Delta":37548235},{"NoteNumber":73,"Velocity":69,"Duration":96512,"SoundDuration":96512,"Delta":37732578},{"NoteNumber":69,"Velocity":69,"Duration":96512,"SoundDuration":96512,"Delta":37732578},{"NoteNumber":64,"Velocity":58,"Duration":96512,"SoundDuration":96512,"Delta":37732578},{"NoteNumber":57,"Velocity":46,"Duration":96512,"SoundDuration":96512,"Delta":37732578},{"NoteNumber":61,"Velocity":55,"Duration":96512,"SoundDuration":96512,"Delta":37732578},{"NoteNumber":73,"Velocity":73,"Duration":368685,"SoundDuration":368685,"Delta":37925603},{"NoteNumber":69,"Velocity":73,"Duration":368685,"SoundDuration":368685,"Delta":37925603},{"NoteNumber":64,"Velocity":62,"Duration":368685,"SoundDuration":368685,"Delta":37925603},{"NoteNumber":57,"Velocity":51,"Duration":368685,"SoundDuration":368685,"Delta":37925603},{"NoteNumber":61,"Velocity":60,"Duration":368685,"SoundDuration":368685,"Delta":37925603},{"NoteNumber":73,"Velocity":65,"Duration":138257,"SoundDuration":138257,"Delta":38294289},{"NoteNumber":69,"Velocity":55,"Duration":138257,"SoundDuration":138257,"Delta":38294289},{"NoteNumber":57,"Velocity":50,"Duration":138257,"SoundDuration":138257,"Delta":38294289},{"NoteNumber":61,"Velocity":59,"Duration":138257,"SoundDuration":138257,"Delta":38294289},{"NoteNumber":69,"Velocity":59,"Duration":184342,"SoundDuration":184342,"Delta":38478632},{"NoteNumber":73,"Velocity":70,"Duration":184342,"SoundDuration":184342,"Delta":38478632},{"NoteNumber":57,"Velocity":53,"Duration":184342,"SoundDuration":184342,"Delta":38478632},{"NoteNumber":61,"Velocity":63,"Duration":184342,"SoundDuration":184342,"Delta":38478632},{"NoteNumber":74,"Velocity":66,"Duration":184342,"SoundDuration":184342,"Delta":38662975},{"NoteNumber":71,"Velocity":56,"Duration":184342,"SoundDuration":184342,"Delta":38662975},{"NoteNumber":62,"Velocity":59,"Duration":184342,"SoundDuration":184342,"Delta":38662975},{"NoteNumber":59,"Velocity":50,"Duration":184342,"SoundDuration":184342,"Delta":38662975},{"NoteNumber":76,"Velocity":64,"Duration":95135,"SoundDuration":95135,"Delta":38847318},{"NoteNumber":73,"Velocity":54,"Duration":95135,"SoundDuration":95135,"Delta":38847318},{"NoteNumber":69,"Velocity":54,"Duration":95135,"SoundDuration":95135,"Delta":38847318},{"NoteNumber":61,"Velocity":50,"Duration":95135,"SoundDuration":95135,"Delta":38847318},{"NoteNumber":64,"Velocity":59,"Duration":95135,"SoundDuration":95135,"Delta":38847318},{"NoteNumber":76,"Velocity":78,"Duration":276514,"SoundDuration":276514,"Delta":39037589},{"NoteNumber":73,"Velocity":66,"Duration":276514,"SoundDuration":276514,"Delta":39037589},{"NoteNumber":69,"Velocity":66,"Duration":276514,"SoundDuration":276514,"Delta":39037589},{"NoteNumber":64,"Velocity":66,"Duration":368685,"SoundDuration":368685,"Delta":39037589},{"NoteNumber":61,"Velocity":56,"Duration":368685,"SoundDuration":368685,"Delta":39037589},{"NoteNumber":73,"Velocity":44,"Duration":82954,"SoundDuration":82954,"Delta":39314104},{"NoteNumber":78,"Velocity":52,"Duration":82954,"SoundDuration":82954,"Delta":39314104},{"NoteNumber":73,"Velocity":46,"Duration":144769,"SoundDuration":144769,"Delta":39406275},{"NoteNumber":78,"Velocity":54,"Duration":144769,"SoundDuration":144769,"Delta":39406275},{"NoteNumber":81,"Velocity":60,"Duration":271821,"SoundDuration":271821,"Delta":39599301},{"NoteNumber":73,"Velocity":51,"Duration":271821,"SoundDuration":271821,"Delta":39599301},{"NoteNumber":45,"Velocity":52,"Duration":181213,"SoundDuration":181213,"Delta":39599301},{"NoteNumber":33,"Velocity":44,"Duration":181213,"SoundDuration":181213,"Delta":39599301},{"NoteNumber":54,"Velocity":37,"Duration":173663,"SoundDuration":173663,"Delta":39780515},{"NoteNumber":61,"Velocity":37,"Duration":173663,"SoundDuration":173663,"Delta":39780515},{"NoteNumber":64,"Velocity":44,"Duration":173663,"SoundDuration":173663,"Delta":39780515},{"NoteNumber":73,"Velocity":45,"Duration":81546,"SoundDuration":81546,"Delta":39871122},{"NoteNumber":81,"Velocity":54,"Duration":81546,"SoundDuration":81546,"Delta":39871122},{"NoteNumber":81,"Velocity":54,"Duration":143211,"SoundDuration":143211,"Delta":39961729},{"NoteNumber":73,"Velocity":45,"Duration":143211,"SoundDuration":143211,"Delta":39961729},{"NoteNumber":54,"Velocity":37,"Duration":143211,"SoundDuration":143211,"Delta":39961729},{"NoteNumber":61,"Velocity":37,"Duration":143211,"SoundDuration":143211,"Delta":39961729},{"NoteNumber":64,"Velocity":44,"Duration":143211,"SoundDuration":143211,"Delta":39961729},{"NoteNumber":73,"Velocity":51,"Duration":1410277,"SoundDuration":1410277,"Delta":40152678},{"NoteNumber":81,"Velocity":60,"Duration":190948,"SoundDuration":190948,"Delta":40152678},{"NoteNumber":54,"Velocity":29,"Duration":190948,"SoundDuration":190948,"Delta":40152678},{"NoteNumber":61,"Velocity":29,"Duration":190948,"SoundDuration":190948,"Delta":40152678},{"NoteNumber":64,"Velocity":35,"Duration":190948,"SoundDuration":190948,"Delta":40152678},{"NoteNumber":80,"Velocity":60,"Duration":190949,"SoundDuration":190949,"Delta":40343627},{"NoteNumber":54,"Velocity":29,"Duration":190949,"SoundDuration":190949,"Delta":40343627},{"NoteNumber":61,"Velocity":29,"Duration":190949,"SoundDuration":190949,"Delta":40343627},{"NoteNumber":64,"Velocity":35,"Duration":190949,"SoundDuration":190949,"Delta":40343627},{"NoteNumber":78,"Velocity":60,"Duration":190948,"SoundDuration":190948,"Delta":40534576},{"NoteNumber":54,"Velocity":29,"Duration":190948,"SoundDuration":190948,"Delta":40534576},{"NoteNumber":61,"Velocity":29,"Duration":190948,"SoundDuration":190948,"Delta":40534576},{"NoteNumber":64,"Velocity":35,"Duration":190948,"SoundDuration":190948,"Delta":40534576},{"NoteNumber":85,"Velocity":60,"Duration":183711,"SoundDuration":183711,"Delta":40725525},{"NoteNumber":54,"Velocity":37,"Duration":1118986,"SoundDuration":1118986,"Delta":40725525},{"NoteNumber":61,"Velocity":37,"Duration":1118986,"SoundDuration":1118986,"Delta":40725525},{"NoteNumber":64,"Velocity":37,"Duration":1118986,"SoundDuration":1118986,"Delta":40725525},{"NoteNumber":81,"Velocity":60,"Duration":190949,"SoundDuration":190949,"Delta":40909236},{"NoteNumber":80,"Velocity":55,"Duration":190948,"SoundDuration":190948,"Delta":41100185},{"NoteNumber":78,"Velocity":55,"Duration":271821,"SoundDuration":271821,"Delta":41291134},{"NoteNumber":73,"Velocity":45,"Duration":81546,"SoundDuration":81546,"Delta":41562955},{"NoteNumber":78,"Velocity":54,"Duration":81546,"SoundDuration":81546,"Delta":41562955},{"NoteNumber":78,"Velocity":54,"Duration":143211,"SoundDuration":143211,"Delta":41653562},{"NoteNumber":73,"Velocity":45,"Duration":143211,"SoundDuration":143211,"Delta":41653562},{"NoteNumber":73,"Velocity":51,"Duration":1878551,"SoundDuration":1878551,"Delta":41844511},{"NoteNumber":81,"Velocity":60,"Duration":271821,"SoundDuration":271821,"Delta":41844511},{"NoteNumber":45,"Velocity":52,"Duration":181213,"SoundDuration":181213,"Delta":41844511},{"NoteNumber":33,"Velocity":44,"Duration":181213,"SoundDuration":181213,"Delta":41844511},{"NoteNumber":54,"Velocity":37,"Duration":173663,"SoundDuration":173663,"Delta":42025725},{"NoteNumber":61,"Velocity":37,"Duration":173663,"SoundDuration":173663,"Delta":42025725},{"NoteNumber":64,"Velocity":44,"Duration":173663,"SoundDuration":173663,"Delta":42025725},{"NoteNumber":81,"Velocity":54,"Duration":81546,"SoundDuration":81546,"Delta":42116332},{"NoteNumber":81,"Velocity":54,"Duration":143211,"SoundDuration":143211,"Delta":42206939},{"NoteNumber":54,"Velocity":37,"Duration":143211,"SoundDuration":143211,"Delta":42206939},{"NoteNumber":61,"Velocity":37,"Duration":143211,"SoundDuration":143211,"Delta":42206939},{"NoteNumber":64,"Velocity":44,"Duration":143211,"SoundDuration":143211,"Delta":42206939},{"NoteNumber":81,"Velocity":60,"Duration":190948,"SoundDuration":190948,"Delta":42397888},{"NoteNumber":54,"Velocity":29,"Duration":190948,"SoundDuration":190948,"Delta":42397888},{"NoteNumber":61,"Velocity":29,"Duration":190948,"SoundDuration":190948,"Delta":42397888},{"NoteNumber":64,"Velocity":35,"Duration":190948,"SoundDuration":190948,"Delta":42397888},{"NoteNumber":80,"Velocity":60,"Duration":190949,"SoundDuration":190949,"Delta":42588837},{"NoteNumber":54,"Velocity":29,"Duration":190949,"SoundDuration":190949,"Delta":42588837},{"NoteNumber":61,"Velocity":29,"Duration":190949,"SoundDuration":190949,"Delta":42588837},{"NoteNumber":64,"Velocity":35,"Duration":190949,"SoundDuration":190949,"Delta":42588837},{"NoteNumber":78,"Velocity":60,"Duration":190948,"SoundDuration":190948,"Delta":42779786},{"NoteNumber":54,"Velocity":29,"Duration":190948,"SoundDuration":190948,"Delta":42779786},{"NoteNumber":61,"Velocity":29,"Duration":190948,"SoundDuration":190948,"Delta":42779786},{"NoteNumber":64,"Velocity":35,"Duration":190948,"SoundDuration":190948,"Delta":42779786},{"NoteNumber":85,"Velocity":60,"Duration":183711,"SoundDuration":183711,"Delta":42970735},{"NoteNumber":54,"Velocity":37,"Duration":752327,"SoundDuration":752327,"Delta":42970735},{"NoteNumber":61,"Velocity":37,"Duration":752327,"SoundDuration":752327,"Delta":42970735},{"NoteNumber":64,"Velocity":37,"Duration":752327,"SoundDuration":752327,"Delta":42970735},{"NoteNumber":81,"Velocity":60,"Duration":190949,"SoundDuration":190949,"Delta":43154446},{"NoteNumber":80,"Velocity":55,"Duration":190948,"SoundDuration":190948,"Delta":43345395},{"NoteNumber":78,"Velocity":55,"Duration":186717,"SoundDuration":186717,"Delta":43536344},{"NoteNumber":83,"Velocity":83,"Duration":91224,"SoundDuration":91224,"Delta":43723062},{"NoteNumber":71,"Velocity":70,"Duration":91224,"SoundDuration":91224,"Delta":43723062},{"NoteNumber":66,"Velocity":78,"Duration":91224,"SoundDuration":91224,"Delta":43723062},{"NoteNumber":59,"Velocity":66,"Duration":91224,"SoundDuration":91224,"Delta":43723062},{"NoteNumber":71,"Velocity":66,"Duration":91224,"SoundDuration":91224,"Delta":43905510},{"NoteNumber":83,"Velocity":78,"Duration":91224,"SoundDuration":91224,"Delta":43905510},{"NoteNumber":59,"Velocity":59,"Duration":91224,"SoundDuration":91224,"Delta":43905510},{"NoteNumber":66,"Velocity":70,"Duration":91224,"SoundDuration":91224,"Delta":43905510},{"NoteNumber":71,"Velocity":74,"Duration":561711,"SoundDuration":561711,"Delta":44087959},{"NoteNumber":83,"Velocity":88,"Duration":561711,"SoundDuration":561711,"Delta":44087959},{"NoteNumber":66,"Velocity":78,"Duration":184342,"SoundDuration":184342,"Delta":44087959},{"NoteNumber":59,"Velocity":66,"Duration":184342,"SoundDuration":184342,"Delta":44087959},{"NoteNumber":56,"Velocity":63,"Duration":184342,"SoundDuration":184342,"Delta":44272302},{"NoteNumber":64,"Velocity":75,"Duration":184342,"SoundDuration":184342,"Delta":44272302},{"NoteNumber":59,"Velocity":61,"Duration":96512,"SoundDuration":96512,"Delta":44456645},{"NoteNumber":66,"Velocity":72,"Duration":96512,"SoundDuration":96512,"Delta":44456645},{"NoteNumber":71,"Velocity":71,"Duration":368685,"SoundDuration":368685,"Delta":44649670},{"NoteNumber":83,"Velocity":84,"Duration":553029,"SoundDuration":553029,"Delta":44649670},{"NoteNumber":68,"Velocity":78,"Duration":184342,"SoundDuration":184342,"Delta":44649670},{"NoteNumber":64,"Velocity":66,"Duration":184342,"SoundDuration":184342,"Delta":44649670},{"NoteNumber":71,"Velocity":74,"Duration":368686,"SoundDuration":368686,"Delta":44834013},{"NoteNumber":68,"Velocity":62,"Duration":184342,"SoundDuration":184342,"Delta":44834013},{"NoteNumber":59,"Velocity":62,"Duration":92171,"SoundDuration":92171,"Delta":45018356},{"NoteNumber":66,"Velocity":74,"Duration":92171,"SoundDuration":92171,"Delta":45018356},{"NoteNumber":71,"Velocity":86,"Duration":270640,"SoundDuration":270640,"Delta":45202699},{"NoteNumber":83,"Velocity":86,"Duration":730549,"SoundDuration":730549,"Delta":45202699},{"NoteNumber":66,"Velocity":84,"Duration":730549,"SoundDuration":730549,"Delta":45202699},{"NoteNumber":59,"Velocity":71,"Duration":730549,"SoundDuration":730549,"Delta":45202699},{"NoteNumber":71,"Velocity":71,"Duration":82669,"SoundDuration":82669,"Delta":45473339},{"NoteNumber":71,"Velocity":71,"Duration":91855,"SoundDuration":91855,"Delta":45565195},{"NoteNumber":71,"Velocity":85,"Duration":184342,"SoundDuration":184342,"Delta":45748906},{"NoteNumber":76,"Velocity":58,"Duration":108279,"SoundDuration":108279,"Delta":45933249},{"NoteNumber":71,"Velocity":49,"Duration":108279,"SoundDuration":108279,"Delta":45933249},{"NoteNumber":71,"Velocity":45,"Duration":91224,"SoundDuration":91224,"Delta":46132753},{"NoteNumber":76,"Velocity":53,"Duration":91224,"SoundDuration":91224,"Delta":46132753},{"NoteNumber":76,"Velocity":62,"Duration":184342,"SoundDuration":184342,"Delta":46315201},{"NoteNumber":71,"Velocity":52,"Duration":184342,"SoundDuration":184342,"Delta":46315201},{"NoteNumber":32,"Velocity":41,"Duration":184342,"SoundDuration":184342,"Delta":46315201},{"NoteNumber":44,"Velocity":49,"Duration":184342,"SoundDuration":184342,"Delta":46315201},{"NoteNumber":75,"Velocity":45,"Duration":184342,"SoundDuration":184342,"Delta":46499544},{"NoteNumber":78,"Velocity":53,"Duration":184342,"SoundDuration":184342,"Delta":46499544},{"NoteNumber":52,"Velocity":30,"Duration":92171,"SoundDuration":92171,"Delta":46499544},{"NoteNumber":56,"Velocity":30,"Duration":92171,"SoundDuration":92171,"Delta":46499544},{"NoteNumber":64,"Velocity":37,"Duration":92171,"SoundDuration":92171,"Delta":46499544},{"NoteNumber":59,"Velocity":30,"Duration":92171,"SoundDuration":92171,"Delta":46499544},{"NoteNumber":80,"Velocity":49,"Duration":96512,"SoundDuration":96512,"Delta":46683887},{"NoteNumber":76,"Velocity":41,"Duration":96512,"SoundDuration":96512,"Delta":46683887},{"NoteNumber":52,"Velocity":30,"Duration":96512,"SoundDuration":96512,"Delta":46683887},{"NoteNumber":56,"Velocity":30,"Duration":96512,"SoundDuration":96512,"Delta":46683887},{"NoteNumber":59,"Velocity":30,"Duration":96512,"SoundDuration":96512,"Delta":46683887},{"NoteNumber":64,"Velocity":37,"Duration":96512,"SoundDuration":96512,"Delta":46683887},{"NoteNumber":80,"Velocity":53,"Duration":386051,"SoundDuration":386051,"Delta":46876913},{"NoteNumber":76,"Velocity":45,"Duration":386051,"SoundDuration":386051,"Delta":46876913},{"NoteNumber":52,"Velocity":30,"Duration":386051,"SoundDuration":386051,"Delta":46876913},{"NoteNumber":56,"Velocity":30,"Duration":386051,"SoundDuration":386051,"Delta":46876913},{"NoteNumber":59,"Velocity":30,"Duration":386051,"SoundDuration":386051,"Delta":46876913},{"NoteNumber":64,"Velocity":37,"Duration":386051,"SoundDuration":386051,"Delta":46876913},{"NoteNumber":80,"Velocity":55,"Duration":91224,"SoundDuration":91224,"Delta":47262964},{"NoteNumber":76,"Velocity":46,"Duration":91224,"SoundDuration":91224,"Delta":47262964},{"NoteNumber":80,"Velocity":78,"Duration":184342,"SoundDuration":184342,"Delta":47445412},{"NoteNumber":76,"Velocity":66,"Duration":184342,"SoundDuration":184342,"Delta":47445412},{"NoteNumber":33,"Velocity":41,"Duration":184342,"SoundDuration":184342,"Delta":47445412},{"NoteNumber":45,"Velocity":49,"Duration":184342,"SoundDuration":184342,"Delta":47445412},{"NoteNumber":85,"Velocity":68,"Duration":184342,"SoundDuration":184342,"Delta":47629755},{"NoteNumber":52,"Velocity":37,"Duration":92171,"SoundDuration":92171,"Delta":47629755},{"NoteNumber":56,"Velocity":37,"Duration":92171,"SoundDuration":92171,"Delta":47629755},{"NoteNumber":64,"Velocity":45,"Duration":92171,"SoundDuration":92171,"Delta":47629755},{"NoteNumber":61,"Velocity":37,"Duration":92171,"SoundDuration":92171,"Delta":47629755},{"NoteNumber":88,"Velocity":71,"Duration":96512,"SoundDuration":96512,"Delta":47814098},{"NoteNumber":52,"Velocity":37,"Duration":96512,"SoundDuration":96512,"Delta":47814098},{"NoteNumber":56,"Velocity":37,"Duration":96512,"SoundDuration":96512,"Delta":47814098},{"NoteNumber":61,"Velocity":37,"Duration":96512,"SoundDuration":96512,"Delta":47814098},{"NoteNumber":64,"Velocity":45,"Duration":96512,"SoundDuration":96512,"Delta":47814098},{"NoteNumber":88,"Velocity":79,"Duration":289538,"SoundDuration":289538,"Delta":48007124},{"NoteNumber":52,"Velocity":37,"Duration":386051,"SoundDuration":386051,"Delta":48007124},{"NoteNumber":56,"Velocity":37,"Duration":386051,"SoundDuration":386051,"Delta":48007124},{"NoteNumber":61,"Velocity":37,"Duration":386051,"SoundDuration":386051,"Delta":48007124},{"NoteNumber":64,"Velocity":45,"Duration":386051,"SoundDuration":386051,"Delta":48007124},{"NoteNumber":76,"Velocity":72,"Duration":86861,"SoundDuration":86861,"Delta":48296662},{"NoteNumber":73,"Velocity":61,"Duration":86861,"SoundDuration":86861,"Delta":48296662},{"NoteNumber":76,"Velocity":75,"Duration":96512,"SoundDuration":96512,"Delta":48393175},{"NoteNumber":73,"Velocity":63,"Duration":96512,"SoundDuration":96512,"Delta":48393175},{"NoteNumber":76,"Velocity":81,"Duration":184342,"SoundDuration":184342,"Delta":48586200},{"NoteNumber":71,"Velocity":69,"Duration":184342,"SoundDuration":184342,"Delta":48586200},{"NoteNumber":35,"Velocity":53,"Duration":184342,"SoundDuration":184342,"Delta":48586200},{"NoteNumber":47,"Velocity":63,"Duration":184342,"SoundDuration":184342,"Delta":48586200},{"NoteNumber":75,"Velocity":59,"Duration":184342,"SoundDuration":184342,"Delta":48770543},{"NoteNumber":78,"Velocity":70,"Duration":184342,"SoundDuration":184342,"Delta":48770543},{"NoteNumber":52,"Velocity":39,"Duration":92171,"SoundDuration":92171,"Delta":48770543},{"NoteNumber":56,"Velocity":39,"Duration":92171,"SoundDuration":92171,"Delta":48770543},{"NoteNumber":64,"Velocity":48,"Duration":92171,"SoundDuration":92171,"Delta":48770543},{"NoteNumber":59,"Velocity":39,"Duration":92171,"SoundDuration":92171,"Delta":48770543},{"NoteNumber":80,"Velocity":66,"Duration":96512,"SoundDuration":96512,"Delta":48954886},{"NoteNumber":76,"Velocity":55,"Duration":96512,"SoundDuration":96512,"Delta":48954886},{"NoteNumber":52,"Velocity":40,"Duration":96512,"SoundDuration":96512,"Delta":48954886},{"NoteNumber":56,"Velocity":40,"Duration":96512,"SoundDuration":96512,"Delta":48954886},{"NoteNumber":59,"Velocity":40,"Duration":96512,"SoundDuration":96512,"Delta":48954886},{"NoteNumber":64,"Velocity":50,"Duration":96512,"SoundDuration":96512,"Delta":48954886},{"NoteNumber":80,"Velocity":72,"Duration":386051,"SoundDuration":386051,"Delta":49147912},{"NoteNumber":76,"Velocity":61,"Duration":386051,"SoundDuration":386051,"Delta":49147912},{"NoteNumber":52,"Velocity":40,"Duration":386051,"SoundDuration":386051,"Delta":49147912},{"NoteNumber":56,"Velocity":40,"Duration":386051,"SoundDuration":386051,"Delta":49147912},{"NoteNumber":59,"Velocity":40,"Duration":386051,"SoundDuration":386051,"Delta":49147912},{"NoteNumber":64,"Velocity":50,"Duration":386051,"SoundDuration":386051,"Delta":49147912},{"NoteNumber":80,"Velocity":77,"Duration":91224,"SoundDuration":91224,"Delta":49533963},{"NoteNumber":76,"Velocity":63,"Duration":91224,"SoundDuration":91224,"Delta":49533963},{"NoteNumber":80,"Velocity":96,"Duration":184342,"SoundDuration":184342,"Delta":49716411},{"NoteNumber":76,"Velocity":82,"Duration":184342,"SoundDuration":184342,"Delta":49716411},{"NoteNumber":37,"Velocity":51,"Duration":184342,"SoundDuration":184342,"Delta":49716411},{"NoteNumber":49,"Velocity":61,"Duration":184342,"SoundDuration":184342,"Delta":49716411},{"NoteNumber":85,"Velocity":85,"Duration":184342,"SoundDuration":184342,"Delta":49900754},{"NoteNumber":52,"Velocity":46,"Duration":92171,"SoundDuration":92171,"Delta":49900754},{"NoteNumber":56,"Velocity":46,"Duration":92171,"SoundDuration":92171,"Delta":49900754},{"NoteNumber":64,"Velocity":56,"Duration":92171,"SoundDuration":92171,"Delta":49900754},{"NoteNumber":61,"Velocity":46,"Duration":92171,"SoundDuration":92171,"Delta":49900754},{"NoteNumber":88,"Velocity":91,"Duration":96512,"SoundDuration":96512,"Delta":50085097},{"NoteNumber":52,"Velocity":47,"Duration":96512,"SoundDuration":96512,"Delta":50085097},{"NoteNumber":56,"Velocity":47,"Duration":96512,"SoundDuration":96512,"Delta":50085097},{"NoteNumber":61,"Velocity":47,"Duration":96512,"SoundDuration":96512,"Delta":50085097},{"NoteNumber":64,"Velocity":57,"Duration":96512,"SoundDuration":96512,"Delta":50085097},{"NoteNumber":88,"Velocity":102,"Duration":289538,"SoundDuration":289538,"Delta":50278123},{"NoteNumber":52,"Velocity":48,"Duration":386051,"SoundDuration":386051,"Delta":50278123},{"NoteNumber":56,"Velocity":48,"Duration":386051,"SoundDuration":386051,"Delta":50278123},{"NoteNumber":61,"Velocity":48,"Duration":386051,"SoundDuration":386051,"Delta":50278123},{"NoteNumber":64,"Velocity":58,"Duration":386051,"SoundDuration":386051,"Delta":50278123},{"NoteNumber":76,"Velocity":83,"Duration":86861,"SoundDuration":86861,"Delta":50567661},{"NoteNumber":73,"Velocity":70,"Duration":86861,"SoundDuration":86861,"Delta":50567661},{"NoteNumber":76,"Velocity":86,"Duration":96512,"SoundDuration":96512,"Delta":50664174},{"NoteNumber":73,"Velocity":73,"Duration":96512,"SoundDuration":96512,"Delta":50664174},{"NoteNumber":76,"Velocity":83,"Duration":276514,"SoundDuration":276514,"Delta":50857199},{"NoteNumber":71,"Velocity":70,"Duration":276514,"SoundDuration":276514,"Delta":50857199},{"NoteNumber":38,"Velocity":56,"Duration":184342,"SoundDuration":184342,"Delta":50857199},{"NoteNumber":50,"Velocity":66,"Duration":184342,"SoundDuration":184342,"Delta":50857199},{"NoteNumber":52,"Velocity":41,"Duration":92171,"SoundDuration":92171,"Delta":51041542},{"NoteNumber":56,"Velocity":41,"Duration":92171,"SoundDuration":92171,"Delta":51041542},{"NoteNumber":64,"Velocity":50,"Duration":92171,"SoundDuration":92171,"Delta":51041542},{"NoteNumber":59,"Velocity":41,"Duration":92171,"SoundDuration":92171,"Delta":51041542},{"NoteNumber":78,"Velocity":88,"Duration":92171,"SoundDuration":92171,"Delta":51133714},{"NoteNumber":80,"Velocity":81,"Duration":96512,"SoundDuration":96512,"Delta":51225885},{"NoteNumber":52,"Velocity":41,"Duration":96512,"SoundDuration":96512,"Delta":51225885},{"NoteNumber":56,"Velocity":41,"Duration":96512,"SoundDuration":96512,"Delta":51225885},{"NoteNumber":59,"Velocity":41,"Duration":96512,"SoundDuration":96512,"Delta":51225885},{"NoteNumber":64,"Velocity":50,"Duration":96512,"SoundDuration":96512,"Delta":51225885},{"NoteNumber":80,"Velocity":97,"Duration":193025,"SoundDuration":193025,"Delta":51418911},{"NoteNumber":76,"Velocity":82,"Duration":193025,"SoundDuration":193025,"Delta":51418911},{"NoteNumber":52,"Velocity":42,"Duration":386051,"SoundDuration":386051,"Delta":51418911},{"NoteNumber":56,"Velocity":42,"Duration":386051,"SoundDuration":386051,"Delta":51418911},{"NoteNumber":59,"Velocity":42,"Duration":386051,"SoundDuration":386051,"Delta":51418911},{"NoteNumber":64,"Velocity":51,"Duration":386051,"SoundDuration":386051,"Delta":51418911},{"NoteNumber":83,"Velocity":85,"Duration":193025,"SoundDuration":193025,"Delta":51611936},{"NoteNumber":88,"Velocity":90,"Duration":91224,"SoundDuration":91224,"Delta":51804962},{"NoteNumber":81,"Velocity":95,"Duration":754736,"SoundDuration":754736,"Delta":51987410},{"NoteNumber":76,"Velocity":95,"Duration":754736,"SoundDuration":754736,"Delta":51987410},{"NoteNumber":88,"Velocity":112,"Duration":754736,"SoundDuration":754736,"Delta":51987410},{"NoteNumber":37,"Velocity":60,"Duration":184342,"SoundDuration":184342,"Delta":51987410},{"NoteNumber":49,"Velocity":71,"Duration":184342,"SoundDuration":184342,"Delta":51987410},{"NoteNumber":52,"Velocity":53,"Duration":92171,"SoundDuration":92171,"Delta":52171753},{"NoteNumber":57,"Velocity":53,"Duration":92171,"SoundDuration":92171,"Delta":52171753},{"NoteNumber":64,"Velocity":64,"Duration":92171,"SoundDuration":92171,"Delta":52171753},{"NoteNumber":61,"Velocity":53,"Duration":92171,"SoundDuration":92171,"Delta":52171753},{"NoteNumber":52,"Velocity":53,"Duration":96512,"SoundDuration":96512,"Delta":52356096},{"NoteNumber":57,"Velocity":53,"Duration":96512,"SoundDuration":96512,"Delta":52356096},{"NoteNumber":61,"Velocity":53,"Duration":96512,"SoundDuration":96512,"Delta":52356096},{"NoteNumber":64,"Velocity":64,"Duration":96512,"SoundDuration":96512,"Delta":52356096},{"NoteNumber":52,"Velocity":53,"Duration":375474,"SoundDuration":375474,"Delta":52549122},{"NoteNumber":57,"Velocity":53,"Duration":375474,"SoundDuration":375474,"Delta":52549122},{"NoteNumber":61,"Velocity":53,"Duration":375474,"SoundDuration":375474,"Delta":52549122},{"NoteNumber":64,"Velocity":64,"Duration":375474,"SoundDuration":375474,"Delta":52549122},{"NoteNumber":87,"Velocity":78,"Duration":91224,"SoundDuration":91224,"Delta":52742147},{"NoteNumber":85,"Velocity":72,"Duration":91224,"SoundDuration":91224,"Delta":52924596},{"NoteNumber":83,"Velocity":80,"Duration":89089,"SoundDuration":89089,"Delta":53107044},{"NoteNumber":39,"Velocity":46,"Duration":89089,"SoundDuration":89089,"Delta":53107044},{"NoteNumber":51,"Velocity":55,"Duration":89089,"SoundDuration":89089,"Delta":53107044},{"NoteNumber":81,"Velocity":68,"Duration":89089,"SoundDuration":89089,"Delta":53285223},{"NoteNumber":51,"Velocity":41,"Duration":89089,"SoundDuration":89089,"Delta":53285223},{"NoteNumber":54,"Velocity":41,"Duration":89089,"SoundDuration":89089,"Delta":53285223},{"NoteNumber":59,"Velocity":50,"Duration":89089,"SoundDuration":89089,"Delta":53285223},{"NoteNumber":57,"Velocity":41,"Duration":89089,"SoundDuration":89089,"Delta":53285223},{"NoteNumber":80,"Velocity":61,"Duration":89089,"SoundDuration":89089,"Delta":53463402},{"NoteNumber":51,"Velocity":41,"Duration":89089,"SoundDuration":89089,"Delta":53463402},{"NoteNumber":54,"Velocity":41,"Duration":89089,"SoundDuration":89089,"Delta":53463402},{"NoteNumber":57,"Velocity":41,"Duration":89089,"SoundDuration":89089,"Delta":53463402},{"NoteNumber":59,"Velocity":50,"Duration":89089,"SoundDuration":89089,"Delta":53463402},{"NoteNumber":81,"Velocity":72,"Duration":89089,"SoundDuration":89089,"Delta":53641581},{"NoteNumber":51,"Velocity":41,"Duration":178179,"SoundDuration":178179,"Delta":53641581},{"NoteNumber":54,"Velocity":41,"Duration":178179,"SoundDuration":178179,"Delta":53641581},{"NoteNumber":57,"Velocity":41,"Duration":178179,"SoundDuration":178179,"Delta":53641581},{"NoteNumber":59,"Velocity":50,"Duration":178179,"SoundDuration":178179,"Delta":53641581},{"NoteNumber":78,"Velocity":62,"Duration":89089,"SoundDuration":89089,"Delta":53819760},{"NoteNumber":75,"Velocity":62,"Duration":94126,"SoundDuration":94126,"Delta":53997939},{"NoteNumber":95,"Velocity":81,"Duration":718248,"SoundDuration":718248,"Delta":54186192},{"NoteNumber":83,"Velocity":68,"Duration":718248,"SoundDuration":718248,"Delta":54186192},{"NoteNumber":52,"Velocity":46,"Duration":89089,"SoundDuration":89089,"Delta":54186192},{"NoteNumber":47,"Velocity":46,"Duration":89089,"SoundDuration":89089,"Delta":54186192},{"NoteNumber":44,"Velocity":46,"Duration":89089,"SoundDuration":89089,"Delta":54186192},{"NoteNumber":56,"Velocity":55,"Duration":89089,"SoundDuration":89089,"Delta":54186192},{"NoteNumber":44,"Velocity":41,"Duration":89089,"SoundDuration":89089,"Delta":54364371},{"NoteNumber":47,"Velocity":41,"Duration":89089,"SoundDuration":89089,"Delta":54364371},{"NoteNumber":56,"Velocity":50,"Duration":89089,"SoundDuration":89089,"Delta":54364371},{"NoteNumber":52,"Velocity":41,"Duration":89089,"SoundDuration":89089,"Delta":54364371},{"NoteNumber":44,"Velocity":41,"Duration":89089,"SoundDuration":89089,"Delta":54542550},{"NoteNumber":47,"Velocity":41,"Duration":89089,"SoundDuration":89089,"Delta":54542550},{"NoteNumber":52,"Velocity":41,"Duration":89089,"SoundDuration":89089,"Delta":54542550},{"NoteNumber":56,"Velocity":50,"Duration":89089,"SoundDuration":89089,"Delta":54542550},{"NoteNumber":44,"Velocity":41,"Duration":183711,"SoundDuration":183711,"Delta":54720729},{"NoteNumber":47,"Velocity":41,"Duration":183711,"SoundDuration":183711,"Delta":54720729},{"NoteNumber":52,"Velocity":41,"Duration":183711,"SoundDuration":183711,"Delta":54720729},{"NoteNumber":56,"Velocity":50,"Duration":183711,"SoundDuration":183711,"Delta":54720729},{"NoteNumber":81,"Velocity":59,"Duration":89089,"SoundDuration":89089,"Delta":54904440},{"NoteNumber":93,"Velocity":70,"Duration":89089,"SoundDuration":89089,"Delta":54904440},{"NoteNumber":80,"Velocity":59,"Duration":89089,"SoundDuration":89089,"Delta":55082619},{"NoteNumber":92,"Velocity":70,"Duration":89089,"SoundDuration":89089,"Delta":55082619},{"NoteNumber":90,"Velocity":79,"Duration":87341,"SoundDuration":87341,"Delta":55260798},{"NoteNumber":78,"Velocity":67,"Duration":87341,"SoundDuration":87341,"Delta":55260798},{"NoteNumber":52,"Velocity":39,"Duration":87341,"SoundDuration":87341,"Delta":55260798},{"NoteNumber":46,"Velocity":39,"Duration":87341,"SoundDuration":87341,"Delta":55260798},{"NoteNumber":54,"Velocity":46,"Duration":87341,"SoundDuration":87341,"Delta":55260798},{"NoteNumber":76,"Velocity":59,"Duration":89089,"SoundDuration":89089,"Delta":55435481},{"NoteNumber":88,"Velocity":70,"Duration":89089,"SoundDuration":89089,"Delta":55435481},{"NoteNumber":46,"Velocity":34,"Duration":89089,"SoundDuration":89089,"Delta":55435481},{"NoteNumber":54,"Velocity":42,"Duration":89089,"SoundDuration":89089,"Delta":55435481},{"NoteNumber":52,"Velocity":34,"Duration":89089,"SoundDuration":89089,"Delta":55435481},{"NoteNumber":75,"Velocity":59,"Duration":89089,"SoundDuration":89089,"Delta":55613660},{"NoteNumber":87,"Velocity":70,"Duration":89089,"SoundDuration":89089,"Delta":55613660},{"NoteNumber":46,"Velocity":34,"Duration":89089,"SoundDuration":89089,"Delta":55613660},{"NoteNumber":52,"Velocity":34,"Duration":89089,"SoundDuration":89089,"Delta":55613660},{"NoteNumber":54,"Velocity":42,"Duration":89089,"SoundDuration":89089,"Delta":55613660},{"NoteNumber":85,"Velocity":76,"Duration":89089,"SoundDuration":89089,"Delta":55791839},{"NoteNumber":73,"Velocity":64,"Duration":89089,"SoundDuration":89089,"Delta":55791839},{"NoteNumber":52,"Velocity":39,"Duration":89089,"SoundDuration":89089,"Delta":55791839},{"NoteNumber":46,"Velocity":39,"Duration":89089,"SoundDuration":89089,"Delta":55791839},{"NoteNumber":54,"Velocity":46,"Duration":89089,"SoundDuration":89089,"Delta":55791839},{"NoteNumber":71,"Velocity":59,"Duration":89089,"SoundDuration":89089,"Delta":55970018},{"NoteNumber":83,"Velocity":70,"Duration":89089,"SoundDuration":89089,"Delta":55970018},{"NoteNumber":46,"Velocity":34,"Duration":89089,"SoundDuration":89089,"Delta":55970018},{"NoteNumber":54,"Velocity":42,"Duration":89089,"SoundDuration":89089,"Delta":55970018},{"NoteNumber":52,"Velocity":34,"Duration":89089,"SoundDuration":89089,"Delta":55970018},{"NoteNumber":70,"Velocity":59,"Duration":89089,"SoundDuration":89089,"Delta":56148197},{"NoteNumber":82,"Velocity":70,"Duration":89089,"SoundDuration":89089,"Delta":56148197},{"NoteNumber":46,"Velocity":34,"Duration":89089,"SoundDuration":89089,"Delta":56148197},{"NoteNumber":52,"Velocity":34,"Duration":89089,"SoundDuration":89089,"Delta":56148197},{"NoteNumber":54,"Velocity":42,"Duration":89089,"SoundDuration":89089,"Delta":56148197},{"NoteNumber":80,"Velocity":78,"Duration":89089,"SoundDuration":89089,"Delta":56326376},{"NoteNumber":68,"Velocity":66,"Duration":89089,"SoundDuration":89089,"Delta":56326376},{"NoteNumber":52,"Velocity":39,"Duration":89089,"SoundDuration":89089,"Delta":56326376},{"NoteNumber":46,"Velocity":39,"Duration":89089,"SoundDuration":89089,"Delta":56326376},{"NoteNumber":54,"Velocity":46,"Duration":89089,"SoundDuration":89089,"Delta":56326376},{"NoteNumber":78,"Velocity":64,"Duration":89089,"SoundDuration":89089,"Delta":56504555},{"NoteNumber":66,"Velocity":54,"Duration":89089,"SoundDuration":89089,"Delta":56504555},{"NoteNumber":46,"Velocity":33,"Duration":89089,"SoundDuration":89089,"Delta":56504555},{"NoteNumber":54,"Velocity":41,"Duration":89089,"SoundDuration":89089,"Delta":56504555},{"NoteNumber":52,"Velocity":33,"Duration":89089,"SoundDuration":89089,"Delta":56504555},{"NoteNumber":76,"Velocity":64,"Duration":89089,"SoundDuration":89089,"Delta":56682734},{"NoteNumber":64,"Velocity":54,"Duration":89089,"SoundDuration":89089,"Delta":56682734},{"NoteNumber":46,"Velocity":32,"Duration":89089,"SoundDuration":89089,"Delta":56682734},{"NoteNumber":52,"Velocity":32,"Duration":89089,"SoundDuration":89089,"Delta":56682734},{"NoteNumber":54,"Velocity":40,"Duration":89089,"SoundDuration":89089,"Delta":56682734},{"NoteNumber":75,"Velocity":70,"Duration":89089,"SoundDuration":89089,"Delta":56860913},{"NoteNumber":63,"Velocity":59,"Duration":89089,"SoundDuration":89089,"Delta":56860913},{"NoteNumber":52,"Velocity":37,"Duration":89089,"SoundDuration":89089,"Delta":56860913},{"NoteNumber":46,"Velocity":37,"Duration":89089,"SoundDuration":89089,"Delta":56860913},{"NoteNumber":54,"Velocity":43,"Duration":89089,"SoundDuration":89089,"Delta":56860913},{"NoteNumber":76,"Velocity":61,"Duration":89089,"SoundDuration":89089,"Delta":57039092},{"NoteNumber":64,"Velocity":51,"Duration":89089,"SoundDuration":89089,"Delta":57039092},{"NoteNumber":46,"Velocity":31,"Duration":89089,"SoundDuration":89089,"Delta":57039092},{"NoteNumber":54,"Velocity":39,"Duration":89089,"SoundDuration":89089,"Delta":57039092},{"NoteNumber":52,"Velocity":31,"Duration":89089,"SoundDuration":89089,"Delta":57039092},{"NoteNumber":73,"Velocity":61,"Duration":94126,"SoundDuration":94126,"Delta":57217271},{"NoteNumber":61,"Velocity":51,"Duration":94126,"SoundDuration":94126,"Delta":57217271},{"NoteNumber":46,"Velocity":31,"Duration":94126,"SoundDuration":94126,"Delta":57217271},{"NoteNumber":52,"Velocity":31,"Duration":94126,"SoundDuration":94126,"Delta":57217271},{"NoteNumber":54,"Velocity":38,"Duration":94126,"SoundDuration":94126,"Delta":57217271},{"NoteNumber":71,"Velocity":69,"Duration":87341,"SoundDuration":87341,"Delta":57405524},{"NoteNumber":59,"Velocity":58,"Duration":87341,"SoundDuration":87341,"Delta":57405524},{"NoteNumber":47,"Velocity":35,"Duration":87341,"SoundDuration":87341,"Delta":57405524},{"NoteNumber":56,"Velocity":41,"Duration":87341,"SoundDuration":87341,"Delta":57405524},{"NoteNumber":52,"Velocity":35,"Duration":87341,"SoundDuration":87341,"Delta":57409891},{"NoteNumber":76,"Velocity":53,"Duration":88500,"SoundDuration":88500,"Delta":57580206},{"NoteNumber":64,"Velocity":45,"Duration":88500,"SoundDuration":88500,"Delta":57580206},{"NoteNumber":47,"Velocity":29,"Duration":88500,"SoundDuration":88500,"Delta":57580206},{"NoteNumber":56,"Velocity":36,"Duration":88500,"SoundDuration":88500,"Delta":57580206},{"NoteNumber":52,"Velocity":29,"Duration":88500,"SoundDuration":88500,"Delta":57584631},{"NoteNumber":68,"Velocity":53,"Duration":88500,"SoundDuration":88500,"Delta":57757208},{"NoteNumber":64,"Velocity":45,"Duration":88500,"SoundDuration":88500,"Delta":57757208},{"NoteNumber":47,"Velocity":29,"Duration":88500,"SoundDuration":88500,"Delta":57757208},{"NoteNumber":56,"Velocity":36,"Duration":88500,"SoundDuration":88500,"Delta":57757208},{"NoteNumber":52,"Velocity":29,"Duration":88500,"SoundDuration":88500,"Delta":57761633},{"NoteNumber":71,"Velocity":62,"Duration":88500,"SoundDuration":88500,"Delta":57934209},{"NoteNumber":63,"Velocity":52,"Duration":88500,"SoundDuration":88500,"Delta":57934209},{"NoteNumber":47,"Velocity":33,"Duration":88500,"SoundDuration":88500,"Delta":57934209},{"NoteNumber":54,"Velocity":33,"Duration":88500,"SoundDuration":88500,"Delta":57934209},{"NoteNumber":57,"Velocity":39,"Duration":88500,"SoundDuration":88500,"Delta":57934209},{"NoteNumber":69,"Velocity":45,"Duration":91855,"SoundDuration":91855,"Delta":58111211},{"NoteNumber":63,"Velocity":38,"Duration":91855,"SoundDuration":91855,"Delta":58111211},{"NoteNumber":47,"Velocity":28,"Duration":91855,"SoundDuration":91855,"Delta":58111211},{"NoteNumber":54,"Velocity":28,"Duration":91855,"SoundDuration":91855,"Delta":58111211},{"NoteNumber":57,"Velocity":34,"Duration":91855,"SoundDuration":91855,"Delta":58111211},{"NoteNumber":66,"Velocity":45,"Duration":96512,"SoundDuration":96512,"Delta":58294922},{"NoteNumber":63,"Velocity":38,"Duration":96512,"SoundDuration":96512,"Delta":58294922},{"NoteNumber":47,"Velocity":27,"Duration":96512,"SoundDuration":96512,"Delta":58294922},{"NoteNumber":54,"Velocity":27,"Duration":96512,"SoundDuration":96512,"Delta":58294922},{"NoteNumber":57,"Velocity":34,"Duration":96512,"SoundDuration":96512,"Delta":58294922},{"NoteNumber":64,"Velocity":57,"Duration":197147,"SoundDuration":197147,"Delta":58487947},{"NoteNumber":52,"Velocity":33,"Duration":197147,"SoundDuration":197147,"Delta":58487947},{"NoteNumber":56,"Velocity":33,"Duration":197147,"SoundDuration":197147,"Delta":58487947},{"NoteNumber":68,"Velocity":70,"Duration":543998,"SoundDuration":543998,"Delta":59079391},{"NoteNumber":80,"Velocity":83,"Duration":543998,"SoundDuration":543998,"Delta":59079391},{"NoteNumber":63,"Velocity":78,"Duration":91224,"SoundDuration":91224,"Delta":59263814},{"NoteNumber":56,"Velocity":66,"Duration":91224,"SoundDuration":91224,"Delta":59263814},{"NoteNumber":56,"Velocity":59,"Duration":91224,"SoundDuration":91224,"Delta":59446262},{"NoteNumber":63,"Velocity":70,"Duration":91224,"SoundDuration":91224,"Delta":59446262},{"NoteNumber":68,"Velocity":74,"Duration":556081,"SoundDuration":556081,"Delta":59628711},{"NoteNumber":80,"Velocity":88,"Duration":556081,"SoundDuration":556081,"Delta":59628711},{"NoteNumber":63,"Velocity":78,"Duration":184342,"SoundDuration":184342,"Delta":59628711},{"NoteNumber":56,"Velocity":66,"Duration":184342,"SoundDuration":184342,"Delta":59628711},{"NoteNumber":52,"Velocity":63,"Duration":184342,"SoundDuration":184342,"Delta":59813054},{"NoteNumber":61,"Velocity":75,"Duration":184342,"SoundDuration":184342,"Delta":59813054},{"NoteNumber":56,"Velocity":61,"Duration":96512,"SoundDuration":96512,"Delta":59997397},{"NoteNumber":63,"Velocity":72,"Duration":96512,"SoundDuration":96512,"Delta":59997397},{"NoteNumber":68,"Velocity":71,"Duration":176662,"SoundDuration":176662,"Delta":60190422},{"NoteNumber":80,"Velocity":84,"Duration":547652,"SoundDuration":547652,"Delta":60190422},{"NoteNumber":64,"Velocity":78,"Duration":184342,"SoundDuration":184342,"Delta":60190422},{"NoteNumber":61,"Velocity":66,"Duration":184342,"SoundDuration":184342,"Delta":60190422},{"NoteNumber":68,"Velocity":74,"Duration":361005,"SoundDuration":361005,"Delta":60374765},{"NoteNumber":56,"Velocity":62,"Duration":92171,"SoundDuration":92171,"Delta":60559108},{"NoteNumber":63,"Velocity":74,"Duration":92171,"SoundDuration":92171,"Delta":60559108},{"NoteNumber":80,"Velocity":78,"Duration":184342,"SoundDuration":184342,"Delta":60743451},{"NoteNumber":68,"Velocity":66,"Duration":184342,"SoundDuration":184342,"Delta":60743451},{"NoteNumber":56,"Velocity":66,"Duration":368685,"SoundDuration":368685,"Delta":60743451},{"NoteNumber":63,"Velocity":78,"Duration":368685,"SoundDuration":368685,"Delta":60743451},{"NoteNumber":69,"Velocity":63,"Duration":184342,"SoundDuration":184342,"Delta":60927794},{"NoteNumber":81,"Velocity":75,"Duration":184342,"SoundDuration":184342,"Delta":60927794},{"NoteNumber":68,"Velocity":61,"Duration":96512,"SoundDuration":96512,"Delta":61112137},{"NoteNumber":80,"Velocity":72,"Duration":96512,"SoundDuration":96512,"Delta":61112137},{"NoteNumber":68,"Velocity":66,"Duration":91052,"SoundDuration":91052,"Delta":61305163},{"NoteNumber":80,"Velocity":78,"Duration":91052,"SoundDuration":91052,"Delta":61305163},{"NoteNumber":68,"Velocity":59,"Duration":91224,"SoundDuration":91224,"Delta":61487268},{"NoteNumber":80,"Velocity":70,"Duration":91224,"SoundDuration":91224,"Delta":61487268},{"NoteNumber":63,"Velocity":78,"Duration":91224,"SoundDuration":91224,"Delta":61487268},{"NoteNumber":56,"Velocity":66,"Duration":91224,"SoundDuration":91224,"Delta":61487268},{"NoteNumber":68,"Velocity":59,"Duration":94197,"SoundDuration":94197,"Delta":61669716},{"NoteNumber":80,"Velocity":70,"Duration":94197,"SoundDuration":94197,"Delta":61669716},{"NoteNumber":56,"Velocity":59,"Duration":94197,"SoundDuration":94197,"Delta":61669716},{"NoteNumber":63,"Velocity":70,"Duration":94197,"SoundDuration":94197,"Delta":61669716},{"NoteNumber":68,"Velocity":74,"Duration":556081,"SoundDuration":556081,"Delta":61858111},{"NoteNumber":80,"Velocity":88,"Duration":556081,"SoundDuration":556081,"Delta":61858111},{"NoteNumber":63,"Velocity":78,"Duration":184342,"SoundDuration":184342,"Delta":61858111},{"NoteNumber":56,"Velocity":66,"Duration":184342,"SoundDuration":184342,"Delta":61858111},{"NoteNumber":52,"Velocity":63,"Duration":184342,"SoundDuration":184342,"Delta":62042454},{"NoteNumber":61,"Velocity":75,"Duration":184342,"SoundDuration":184342,"Delta":62042454},{"NoteNumber":56,"Velocity":61,"Duration":96512,"SoundDuration":96512,"Delta":62226797},{"NoteNumber":63,"Velocity":72,"Duration":96512,"SoundDuration":96512,"Delta":62226797},{"NoteNumber":68,"Velocity":71,"Duration":176662,"SoundDuration":176662,"Delta":62419823},{"NoteNumber":80,"Velocity":84,"Duration":547652,"SoundDuration":547652,"Delta":62419823},{"NoteNumber":64,"Velocity":78,"Duration":184342,"SoundDuration":184342,"Delta":62419823},{"NoteNumber":61,"Velocity":66,"Duration":184342,"SoundDuration":184342,"Delta":62419823},{"NoteNumber":68,"Velocity":74,"Duration":361005,"SoundDuration":361005,"Delta":62604166},{"NoteNumber":56,"Velocity":62,"Duration":92171,"SoundDuration":92171,"Delta":62788509},{"NoteNumber":63,"Velocity":74,"Duration":92171,"SoundDuration":92171,"Delta":62788509},{"NoteNumber":68,"Velocity":74,"Duration":547652,"SoundDuration":547652,"Delta":62972852},{"NoteNumber":80,"Velocity":88,"Duration":547652,"SoundDuration":547652,"Delta":62972852},{"NoteNumber":63,"Velocity":78,"Duration":553029,"SoundDuration":553029,"Delta":62972852},{"NoteNumber":56,"Velocity":66,"Duration":553029,"SoundDuration":553029,"Delta":62972852},{"NoteNumber":49,"Velocity":63,"Duration":543918,"SoundDuration":543918,"Delta":63525881},{"NoteNumber":61,"Velocity":74,"Duration":543918,"SoundDuration":543918,"Delta":63525881},{"NoteNumber":80,"Velocity":85,"Duration":91224,"SoundDuration":91224,"Delta":63710224},{"NoteNumber":73,"Velocity":72,"Duration":91224,"SoundDuration":91224,"Delta":63710224},{"NoteNumber":73,"Velocity":64,"Duration":91224,"SoundDuration":91224,"Delta":63892672},{"NoteNumber":80,"Velocity":77,"Duration":91224,"SoundDuration":91224,"Delta":63892672},{"NoteNumber":80,"Velocity":85,"Duration":184342,"SoundDuration":184342,"Delta":64075121},{"NoteNumber":73,"Velocity":72,"Duration":184342,"SoundDuration":184342,"Delta":64075121},{"NoteNumber":49,"Velocity":66,"Duration":556081,"SoundDuration":556081,"Delta":64075121},{"NoteNumber":61,"Velocity":79,"Duration":556081,"SoundDuration":556081,"Delta":64075121},{"NoteNumber":69,"Velocity":69,"Duration":184342,"SoundDuration":184342,"Delta":64259464},{"NoteNumber":78,"Velocity":82,"Duration":184342,"SoundDuration":184342,"Delta":64259464},{"NoteNumber":73,"Velocity":67,"Duration":96512,"SoundDuration":96512,"Delta":64443807},{"NoteNumber":80,"Velocity":79,"Duration":96512,"SoundDuration":96512,"Delta":64443807},{"NoteNumber":81,"Velocity":85,"Duration":184342,"SoundDuration":184342,"Delta":64636832},{"NoteNumber":78,"Velocity":72,"Duration":184342,"SoundDuration":184342,"Delta":64636832},{"NoteNumber":49,"Velocity":63,"Duration":547652,"SoundDuration":547652,"Delta":64636832},{"NoteNumber":61,"Velocity":75,"Duration":547652,"SoundDuration":547652,"Delta":64636832},{"NoteNumber":85,"Velocity":81,"Duration":184342,"SoundDuration":184342,"Delta":64821175},{"NoteNumber":73,"Velocity":68,"Duration":92171,"SoundDuration":92171,"Delta":65005518},{"NoteNumber":80,"Velocity":81,"Duration":92171,"SoundDuration":92171,"Delta":65005518},{"NoteNumber":73,"Velocity":72,"Duration":368685,"SoundDuration":368685,"Delta":65189861},{"NoteNumber":80,"Velocity":85,"Duration":368685,"SoundDuration":368685,"Delta":65189861},{"NoteNumber":61,"Velocity":70,"Duration":184342,"SoundDuration":184342,"Delta":65189861},{"NoteNumber":49,"Velocity":59,"Duration":184342,"SoundDuration":184342,"Delta":65189861},{"NoteNumber":50,"Velocity":56,"Duration":184342,"SoundDuration":184342,"Delta":65374204},{"NoteNumber":62,"Velocity":67,"Duration":184342,"SoundDuration":184342,"Delta":65374204},{"NoteNumber":49,"Velocity":54,"Duration":96512,"SoundDuration":96512,"Delta":65558547},{"NoteNumber":61,"Velocity":64,"Duration":96512,"SoundDuration":96512,"Delta":65558547},{"NoteNumber":49,"Velocity":59,"Duration":91052,"SoundDuration":91052,"Delta":65751573},{"NoteNumber":61,"Velocity":70,"Duration":91052,"SoundDuration":91052,"Delta":65751573},{"NoteNumber":80,"Velocity":85,"Duration":91224,"SoundDuration":91224,"Delta":65933678},{"NoteNumber":73,"Velocity":72,"Duration":91224,"SoundDuration":91224,"Delta":65933678},{"NoteNumber":49,"Velocity":53,"Duration":91224,"SoundDuration":91224,"Delta":65933678},{"NoteNumber":61,"Velocity":63,"Duration":91224,"SoundDuration":91224,"Delta":65933678},{"NoteNumber":73,"Velocity":64,"Duration":94197,"SoundDuration":94197,"Delta":66116126},{"NoteNumber":80,"Velocity":77,"Duration":94197,"SoundDuration":94197,"Delta":66116126},{"NoteNumber":49,"Velocity":53,"Duration":94197,"SoundDuration":94197,"Delta":66116126},{"NoteNumber":61,"Velocity":63,"Duration":94197,"SoundDuration":94197,"Delta":66116126},{"NoteNumber":80,"Velocity":85,"Duration":184342,"SoundDuration":184342,"Delta":66304521},{"NoteNumber":73,"Velocity":72,"Duration":184342,"SoundDuration":184342,"Delta":66304521},{"NoteNumber":49,"Velocity":66,"Duration":556081,"SoundDuration":556081,"Delta":66304521},{"NoteNumber":61,"Velocity":79,"Duration":556081,"SoundDuration":556081,"Delta":66304521},{"NoteNumber":69,"Velocity":69,"Duration":184342,"SoundDuration":184342,"Delta":66488864},{"NoteNumber":78,"Velocity":82,"Duration":184342,"SoundDuration":184342,"Delta":66488864},{"NoteNumber":73,"Velocity":67,"Duration":96512,"SoundDuration":96512,"Delta":66673207},{"NoteNumber":80,"Velocity":79,"Duration":96512,"SoundDuration":96512,"Delta":66673207},{"NoteNumber":81,"Velocity":85,"Duration":184342,"SoundDuration":184342,"Delta":66866233},{"NoteNumber":78,"Velocity":72,"Duration":184342,"SoundDuration":184342,"Delta":66866233},{"NoteNumber":49,"Velocity":63,"Duration":547652,"SoundDuration":547652,"Delta":66866233},{"NoteNumber":61,"Velocity":75,"Duration":547652,"SoundDuration":547652,"Delta":66866233},{"NoteNumber":85,"Velocity":81,"Duration":184342,"SoundDuration":184342,"Delta":67050576},{"NoteNumber":73,"Velocity":68,"Duration":92171,"SoundDuration":92171,"Delta":67234919},{"NoteNumber":80,"Velocity":81,"Duration":92171,"SoundDuration":92171,"Delta":67234919},{"NoteNumber":80,"Velocity":85,"Duration":547652,"SoundDuration":547652,"Delta":67419262},{"NoteNumber":73,"Velocity":72,"Duration":547652,"SoundDuration":547652,"Delta":67419262},{"NoteNumber":49,"Velocity":66,"Duration":547652,"SoundDuration":547652,"Delta":67419262},{"NoteNumber":61,"Velocity":79,"Duration":547652,"SoundDuration":547652,"Delta":67419262},{"NoteNumber":69,"Velocity":72,"Duration":546772,"SoundDuration":546772,"Delta":67972291},{"NoteNumber":81,"Velocity":85,"Duration":546772,"SoundDuration":546772,"Delta":67972291},{"NoteNumber":66,"Velocity":66,"Duration":91091,"SoundDuration":91091,"Delta":68154473},{"NoteNumber":66,"Velocity":66,"Duration":93943,"SoundDuration":93943,"Delta":68336656},{"NoteNumber":69,"Velocity":72,"Duration":547888,"SoundDuration":547888,"Delta":68524543},{"NoteNumber":81,"Velocity":85,"Duration":547888,"SoundDuration":547888,"Delta":68524543},{"NoteNumber":66,"Velocity":70,"Duration":92211,"SoundDuration":92211,"Delta":68524543},{"NoteNumber":64,"Velocity":66,"Duration":92211,"SoundDuration":92211,"Delta":68708966},{"NoteNumber":63,"Velocity":66,"Duration":92211,"SoundDuration":92211,"Delta":68893388},{"NoteNumber":68,"Velocity":72,"Duration":545100,"SoundDuration":545100,"Delta":69077811},{"NoteNumber":80,"Velocity":85,"Duration":545100,"SoundDuration":545100,"Delta":69077811},{"NoteNumber":64,"Velocity":70,"Duration":90815,"SoundDuration":90815,"Delta":69077811},{"NoteNumber":63,"Velocity":66,"Duration":90815,"SoundDuration":90815,"Delta":69259442},{"NoteNumber":61,"Velocity":65,"Duration":93650,"SoundDuration":93650,"Delta":69441073},{"NoteNumber":66,"Velocity":72,"Duration":547888,"SoundDuration":547888,"Delta":69628374},{"NoteNumber":78,"Velocity":85,"Duration":547888,"SoundDuration":547888,"Delta":69628374},{"NoteNumber":63,"Velocity":70,"Duration":92211,"SoundDuration":92211,"Delta":69628374},{"NoteNumber":60,"Velocity":65,"Duration":92211,"SoundDuration":92211,"Delta":69812796},{"NoteNumber":56,"Velocity":65,"Duration":92211,"SoundDuration":92211,"Delta":69997219},{"NoteNumber":64,"Velocity":72,"Duration":545637,"SoundDuration":545637,"Delta":70181641},{"NoteNumber":76,"Velocity":85,"Duration":545637,"SoundDuration":545637,"Delta":70181641},{"NoteNumber":61,"Velocity":70,"Duration":136636,"SoundDuration":136636,"Delta":70181641},{"NoteNumber":54,"Velocity":64,"Duration":91091,"SoundDuration":91091,"Delta":70363824},{"NoteNumber":42,"Velocity":64,"Duration":91091,"SoundDuration":91091,"Delta":70363824},{"NoteNumber":54,"Velocity":64,"Duration":93359,"SoundDuration":93359,"Delta":70546006},{"NoteNumber":42,"Velocity":64,"Duration":93359,"SoundDuration":93359,"Delta":70546006},{"NoteNumber":57,"Velocity":72,"Duration":551191,"SoundDuration":551191,"Delta":70732724},{"NoteNumber":69,"Velocity":85,"Duration":551191,"SoundDuration":551191,"Delta":70732724},{"NoteNumber":42,"Velocity":70,"Duration":137893,"SoundDuration":137893,"Delta":70732724},{"NoteNumber":54,"Velocity":70,"Duration":137893,"SoundDuration":137893,"Delta":70732724},{"NoteNumber":52,"Velocity":66,"Duration":137893,"SoundDuration":137893,"Delta":70916582},{"NoteNumber":40,"Velocity":66,"Duration":137893,"SoundDuration":137893,"Delta":70916582},{"NoteNumber":51,"Velocity":66,"Duration":141741,"SoundDuration":141741,"Delta":71100439},{"NoteNumber":39,"Velocity":66,"Duration":141741,"SoundDuration":141741,"Delta":71100439},{"NoteNumber":56,"Velocity":72,"Duration":551586,"SoundDuration":551586,"Delta":71289428},{"NoteNumber":68,"Velocity":85,"Duration":551586,"SoundDuration":551586,"Delta":71289428},{"NoteNumber":40,"Velocity":70,"Duration":138257,"SoundDuration":138257,"Delta":71289428},{"NoteNumber":52,"Velocity":70,"Duration":138257,"SoundDuration":138257,"Delta":71289428},{"NoteNumber":51,"Velocity":65,"Duration":138257,"SoundDuration":138257,"Delta":71473771},{"NoteNumber":39,"Velocity":65,"Duration":138257,"SoundDuration":138257,"Delta":71473771},{"NoteNumber":49,"Velocity":65,"Duration":141296,"SoundDuration":141296,"Delta":71658114},{"NoteNumber":37,"Velocity":65,"Duration":141296,"SoundDuration":141296,"Delta":71658114},{"NoteNumber":54,"Velocity":72,"Duration":553877,"SoundDuration":553877,"Delta":71846509},{"NoteNumber":66,"Velocity":85,"Duration":553877,"SoundDuration":553877,"Delta":71846509},{"NoteNumber":39,"Velocity":70,"Duration":138683,"SoundDuration":138683,"Delta":71846509},{"NoteNumber":51,"Velocity":70,"Duration":138683,"SoundDuration":138683,"Delta":71846509},{"NoteNumber":48,"Velocity":66,"Duration":138683,"SoundDuration":138683,"Delta":72031420},{"NoteNumber":36,"Velocity":66,"Duration":138683,"SoundDuration":138683,"Delta":72031420},{"NoteNumber":44,"Velocity":66,"Duration":142189,"SoundDuration":142189,"Delta":72216331},{"NoteNumber":32,"Velocity":66,"Duration":142189,"SoundDuration":142189,"Delta":72216331},{"NoteNumber":64,"Velocity":90,"Duration":184910,"SoundDuration":184910,"Delta":72405916},{"NoteNumber":37,"Velocity":58,"Duration":184910,"SoundDuration":184910,"Delta":72405916},{"NoteNumber":49,"Velocity":76,"Duration":184910,"SoundDuration":184910,"Delta":72405916},{"NoteNumber":73,"Velocity":80,"Duration":92455,"SoundDuration":92455,"Delta":72590827},{"NoteNumber":61,"Velocity":68,"Duration":92455,"SoundDuration":92455,"Delta":72590827},{"NoteNumber":51,"Velocity":68,"Duration":92455,"SoundDuration":92455,"Delta":72590827},{"NoteNumber":39,"Velocity":57,"Duration":92455,"SoundDuration":92455,"Delta":72590827},{"NoteNumber":73,"Velocity":80,"Duration":92455,"SoundDuration":92455,"Delta":72775738},{"NoteNumber":61,"Velocity":68,"Duration":92455,"SoundDuration":92455,"Delta":72775738},{"NoteNumber":52,"Velocity":68,"Duration":92455,"SoundDuration":92455,"Delta":72775738},{"NoteNumber":40,"Velocity":57,"Duration":92455,"SoundDuration":92455,"Delta":72775738},{"NoteNumber":63,"Velocity":72,"Duration":91608,"SoundDuration":91608,"Delta":72960649},{"NoteNumber":75,"Velocity":85,"Duration":91608,"SoundDuration":91608,"Delta":72960649},{"NoteNumber":42,"Velocity":61,"Duration":91608,"SoundDuration":91608,"Delta":72960649},{"NoteNumber":54,"Velocity":72,"Duration":91608,"SoundDuration":91608,"Delta":72960649},{"NoteNumber":76,"Velocity":80,"Duration":92741,"SoundDuration":92741,"Delta":73143867},{"NoteNumber":64,"Velocity":68,"Duration":92741,"SoundDuration":92741,"Delta":73143867},{"NoteNumber":54,"Velocity":57,"Duration":92741,"SoundDuration":92741,"Delta":73143867},{"NoteNumber":61,"Velocity":68,"Duration":92741,"SoundDuration":92741,"Delta":73143867},{"NoteNumber":57,"Velocity":57,"Duration":92741,"SoundDuration":92741,"Delta":73143867},{"NoteNumber":78,"Velocity":80,"Duration":93609,"SoundDuration":93609,"Delta":73329350},{"NoteNumber":66,"Velocity":68,"Duration":93609,"SoundDuration":93609,"Delta":73329350},{"NoteNumber":54,"Velocity":57,"Duration":93609,"SoundDuration":93609,"Delta":73329350},{"NoteNumber":61,"Velocity":68,"Duration":93609,"SoundDuration":93609,"Delta":73329350},{"NoteNumber":57,"Velocity":57,"Duration":93609,"SoundDuration":93609,"Delta":73329350},{"NoteNumber":63,"Velocity":72,"Duration":92171,"SoundDuration":92171,"Delta":73516569},{"NoteNumber":75,"Velocity":85,"Duration":92171,"SoundDuration":92171,"Delta":73516569},{"NoteNumber":54,"Velocity":61,"Duration":92171,"SoundDuration":92171,"Delta":73516569},{"NoteNumber":57,"Velocity":61,"Duration":92171,"SoundDuration":92171,"Delta":73516569},{"NoteNumber":60,"Velocity":72,"Duration":92171,"SoundDuration":92171,"Delta":73516569},{"NoteNumber":76,"Velocity":81,"Duration":92455,"SoundDuration":92455,"Delta":73700912},{"NoteNumber":64,"Velocity":68,"Duration":92455,"SoundDuration":92455,"Delta":73700912},{"NoteNumber":54,"Velocity":57,"Duration":92455,"SoundDuration":92455,"Delta":73700912},{"NoteNumber":60,"Velocity":68,"Duration":92455,"SoundDuration":92455,"Delta":73700912},{"NoteNumber":57,"Velocity":57,"Duration":92455,"SoundDuration":92455,"Delta":73700912},{"NoteNumber":78,"Velocity":81,"Duration":93609,"SoundDuration":93609,"Delta":73885823},{"NoteNumber":66,"Velocity":68,"Duration":93609,"SoundDuration":93609,"Delta":73885823},{"NoteNumber":54,"Velocity":57,"Duration":93609,"SoundDuration":93609,"Delta":73885823},{"NoteNumber":60,"Velocity":68,"Duration":93609,"SoundDuration":93609,"Delta":73885823},{"NoteNumber":57,"Velocity":57,"Duration":93609,"SoundDuration":93609,"Delta":73885823},{"NoteNumber":68,"Velocity":72,"Duration":91608,"SoundDuration":91608,"Delta":74073042},{"NoteNumber":80,"Velocity":85,"Duration":91608,"SoundDuration":91608,"Delta":74073042},{"NoteNumber":52,"Velocity":61,"Duration":91608,"SoundDuration":91608,"Delta":74073042},{"NoteNumber":61,"Velocity":72,"Duration":91608,"SoundDuration":91608,"Delta":74073042},{"NoteNumber":81,"Velocity":79,"Duration":91889,"SoundDuration":91889,"Delta":74256259},{"NoteNumber":69,"Velocity":66,"Duration":91889,"SoundDuration":91889,"Delta":74256259},{"NoteNumber":61,"Velocity":66,"Duration":91889,"SoundDuration":91889,"Delta":74256259},{"NoteNumber":54,"Velocity":55,"Duration":91889,"SoundDuration":91889,"Delta":74256259},{"NoteNumber":83,"Velocity":76,"Duration":93609,"SoundDuration":93609,"Delta":74440038},{"NoteNumber":71,"Velocity":64,"Duration":93609,"SoundDuration":93609,"Delta":74440038},{"NoteNumber":61,"Velocity":64,"Duration":93609,"SoundDuration":93609,"Delta":74440038},{"NoteNumber":56,"Velocity":54,"Duration":93609,"SoundDuration":93609,"Delta":74440038},{"NoteNumber":69,"Velocity":66,"Duration":91052,"SoundDuration":91052,"Delta":74627257},{"NoteNumber":81,"Velocity":79,"Duration":91052,"SoundDuration":91052,"Delta":74627257},{"NoteNumber":54,"Velocity":56,"Duration":91052,"SoundDuration":91052,"Delta":74627257},{"NoteNumber":61,"Velocity":66,"Duration":91052,"SoundDuration":91052,"Delta":74627257},{"NoteNumber":83,"Velocity":72,"Duration":91889,"SoundDuration":91889,"Delta":74809362},{"NoteNumber":71,"Velocity":61,"Duration":91889,"SoundDuration":91889,"Delta":74809362},{"NoteNumber":61,"Velocity":61,"Duration":91889,"SoundDuration":91889,"Delta":74809362},{"NoteNumber":56,"Velocity":51,"Duration":91889,"SoundDuration":91889,"Delta":74809362},{"NoteNumber":85,"Velocity":70,"Duration":93318,"SoundDuration":93318,"Delta":74993140},{"NoteNumber":73,"Velocity":59,"Duration":93318,"SoundDuration":93318,"Delta":74993140},{"NoteNumber":61,"Velocity":59,"Duration":93318,"SoundDuration":93318,"Delta":74993140},{"NoteNumber":57,"Velocity":50,"Duration":93318,"SoundDuration":93318,"Delta":74993140},{"NoteNumber":76,"Velocity":72,"Duration":183778,"SoundDuration":183778,"Delta":75179777},{"NoteNumber":80,"Velocity":72,"Duration":554776,"SoundDuration":554776,"Delta":75179777},{"NoteNumber":56,"Velocity":58,"Duration":552435,"SoundDuration":552435,"Delta":75179777},{"NoteNumber":64,"Velocity":61,"Duration":183778,"SoundDuration":183778,"Delta":75179777},{"NoteNumber":75,"Velocity":67,"Duration":183778,"SoundDuration":183778,"Delta":75363556},{"NoteNumber":63,"Velocity":57,"Duration":183778,"SoundDuration":183778,"Delta":75363556},{"NoteNumber":73,"Velocity":67,"Duration":187218,"SoundDuration":187218,"Delta":75547334},{"NoteNumber":61,"Velocity":57,"Duration":187218,"SoundDuration":187218,"Delta":75547334},{"NoteNumber":75,"Velocity":72,"Duration":183778,"SoundDuration":183778,"Delta":75734553},{"NoteNumber":80,"Velocity":72,"Duration":554194,"SoundDuration":554194,"Delta":75734553},{"NoteNumber":56,"Velocity":58,"Duration":359899,"SoundDuration":359899,"Delta":75734553},{"NoteNumber":63,"Velocity":61,"Duration":183778,"SoundDuration":183778,"Delta":75734553},{"NoteNumber":72,"Velocity":68,"Duration":183778,"SoundDuration":183778,"Delta":75918332},{"NoteNumber":60,"Velocity":57,"Duration":183778,"SoundDuration":183778,"Delta":75918332},{"NoteNumber":68,"Velocity":68,"Duration":186637,"SoundDuration":186637,"Delta":76102110},{"NoteNumber":56,"Velocity":57,"Duration":186637,"SoundDuration":186637,"Delta":76102110},{"NoteNumber":73,"Velocity":80,"Duration":91889,"SoundDuration":91889,"Delta":76288747},{"NoteNumber":49,"Velocity":60,"Duration":367557,"SoundDuration":367557,"Delta":76288747},{"NoteNumber":61,"Velocity":71,"Duration":367557,"SoundDuration":367557,"Delta":76288747},{"NoteNumber":80,"Velocity":80,"Duration":91889,"SoundDuration":91889,"Delta":76472526},{"NoteNumber":77,"Velocity":68,"Duration":91889,"SoundDuration":91889,"Delta":76472526},{"NoteNumber":73,"Velocity":68,"Duration":91889,"SoundDuration":91889,"Delta":76472526},{"NoteNumber":80,"Velocity":88,"Duration":93902,"SoundDuration":93902,"Delta":76656304},{"NoteNumber":77,"Velocity":74,"Duration":93902,"SoundDuration":93902,"Delta":76656304},{"NoteNumber":73,"Velocity":74,"Duration":93902,"SoundDuration":93902,"Delta":76656304},{"NoteNumber":81,"Velocity":95,"Duration":551335,"SoundDuration":551335,"Delta":76844109},{"NoteNumber":78,"Velocity":80,"Duration":551335,"SoundDuration":551335,"Delta":76844109},{"NoteNumber":49,"Velocity":65,"Duration":91889,"SoundDuration":91889,"Delta":77027888},{"NoteNumber":37,"Velocity":55,"Duration":91889,"SoundDuration":91889,"Delta":77027888},{"NoteNumber":37,"Velocity":52,"Duration":91889,"SoundDuration":91889,"Delta":77211666},{"NoteNumber":49,"Velocity":62,"Duration":91889,"SoundDuration":91889,"Delta":77211666},{"NoteNumber":73,"Velocity":80,"Duration":91889,"SoundDuration":91889,"Delta":77395445},{"NoteNumber":49,"Velocity":60,"Duration":367557,"SoundDuration":367557,"Delta":77395445},{"NoteNumber":61,"Velocity":71,"Duration":367557,"SoundDuration":367557,"Delta":77395445},{"NoteNumber":80,"Velocity":80,"Duration":91889,"SoundDuration":91889,"Delta":77579223},{"NoteNumber":77,"Velocity":68,"Duration":91889,"SoundDuration":91889,"Delta":77579223},{"NoteNumber":73,"Velocity":68,"Duration":91889,"SoundDuration":91889,"Delta":77579223},{"NoteNumber":80,"Velocity":88,"Duration":95395,"SoundDuration":95395,"Delta":77763002},{"NoteNumber":77,"Velocity":74,"Duration":95395,"SoundDuration":95395,"Delta":77763002},{"NoteNumber":73,"Velocity":74,"Duration":95395,"SoundDuration":95395,"Delta":77763002},{"NoteNumber":81,"Velocity":95,"Duration":555423,"SoundDuration":555423,"Delta":77953793},{"NoteNumber":78,"Velocity":80,"Duration":555423,"SoundDuration":555423,"Delta":77953793},{"NoteNumber":49,"Velocity":65,"Duration":91608,"SoundDuration":91608,"Delta":78137010},{"NoteNumber":37,"Velocity":55,"Duration":91608,"SoundDuration":91608,"Delta":78137010},{"NoteNumber":37,"Velocity":52,"Duration":94494,"SoundDuration":94494,"Delta":78320228},{"NoteNumber":49,"Velocity":62,"Duration":94494,"SoundDuration":94494,"Delta":78320228},{"NoteNumber":85,"Velocity":105,"Duration":366434,"SoundDuration":366434,"Delta":78509216},{"NoteNumber":80,"Velocity":89,"Duration":366434,"SoundDuration":366434,"Delta":78509216},{"NoteNumber":77,"Velocity":89,"Duration":366434,"SoundDuration":366434,"Delta":78509216},{"NoteNumber":73,"Velocity":89,"Duration":366434,"SoundDuration":366434,"Delta":78509216},{"NoteNumber":61,"Velocity":79,"Duration":366434,"SoundDuration":366434,"Delta":78509216},{"NoteNumber":49,"Velocity":67,"Duration":366434,"SoundDuration":366434,"Delta":78509216},{"NoteNumber":73,"Velocity":76,"Duration":137413,"SoundDuration":137413,"Delta":78875651},{"NoteNumber":85,"Velocity":90,"Duration":137413,"SoundDuration":137413,"Delta":78875651},{"NoteNumber":61,"Velocity":68,"Duration":137413,"SoundDuration":137413,"Delta":78875651},{"NoteNumber":49,"Velocity":57,"Duration":137413,"SoundDuration":137413,"Delta":78875651},{"NoteNumber":73,"Velocity":80,"Duration":137413,"SoundDuration":137413,"Delta":79058869},{"NoteNumber":85,"Velocity":95,"Duration":137413,"SoundDuration":137413,"Delta":79058869},{"NoteNumber":49,"Velocity":60,"Duration":137413,"SoundDuration":137413,"Delta":79058869},{"NoteNumber":61,"Velocity":71,"Duration":137413,"SoundDuration":137413,"Delta":79058869},{"NoteNumber":85,"Velocity":88,"Duration":134537,"SoundDuration":134537,"Delta":79242086},{"NoteNumber":73,"Velocity":74,"Duration":134537,"SoundDuration":134537,"Delta":79242086},{"NoteNumber":61,"Velocity":70,"Duration":134537,"SoundDuration":134537,"Delta":79242086},{"NoteNumber":49,"Velocity":59,"Duration":134537,"SoundDuration":134537,"Delta":79242086},{"NoteNumber":85,"Velocity":89,"Duration":139977,"SoundDuration":139977,"Delta":79421469},{"NoteNumber":73,"Velocity":75,"Duration":139977,"SoundDuration":139977,"Delta":79421469},{"NoteNumber":61,"Velocity":70,"Duration":139977,"SoundDuration":139977,"Delta":79421469},{"NoteNumber":49,"Velocity":59,"Duration":139977,"SoundDuration":139977,"Delta":79421469},{"NoteNumber":85,"Velocity":105,"Duration":366434,"SoundDuration":366434,"Delta":79608106},{"NoteNumber":73,"Velocity":89,"Duration":366434,"SoundDuration":366434,"Delta":79608106},{"NoteNumber":61,"Velocity":79,"Duration":366434,"SoundDuration":366434,"Delta":79608106},{"NoteNumber":49,"Velocity":67,"Duration":366434,"SoundDuration":366434,"Delta":79608106},{"NoteNumber":73,"Velocity":76,"Duration":137413,"SoundDuration":137413,"Delta":79974541},{"NoteNumber":85,"Velocity":90,"Duration":137413,"SoundDuration":137413,"Delta":79974541},{"NoteNumber":61,"Velocity":68,"Duration":137413,"SoundDuration":137413,"Delta":79974541},{"NoteNumber":49,"Velocity":57,"Duration":137413,"SoundDuration":137413,"Delta":79974541},{"NoteNumber":73,"Velocity":80,"Duration":137413,"SoundDuration":137413,"Delta":80157759},{"NoteNumber":85,"Velocity":95,"Duration":137413,"SoundDuration":137413,"Delta":80157759},{"NoteNumber":49,"Velocity":60,"Duration":137413,"SoundDuration":137413,"Delta":80157759},{"NoteNumber":61,"Velocity":71,"Duration":137413,"SoundDuration":137413,"Delta":80157759},{"NoteNumber":85,"Velocity":88,"Duration":144536,"SoundDuration":144536,"Delta":80340976},{"NoteNumber":73,"Velocity":74,"Duration":144536,"SoundDuration":144536,"Delta":80340976},{"NoteNumber":61,"Velocity":70,"Duration":144536,"SoundDuration":144536,"Delta":80340976},{"NoteNumber":49,"Velocity":59,"Duration":144536,"SoundDuration":144536,"Delta":80340976},{"NoteNumber":85,"Velocity":89,"Duration":167075,"SoundDuration":167075,"Delta":80533692},{"NoteNumber":73,"Velocity":75,"Duration":167075,"SoundDuration":167075,"Delta":80533692},{"NoteNumber":61,"Velocity":70,"Duration":167075,"SoundDuration":167075,"Delta":80533692},{"NoteNumber":49,"Velocity":59,"Duration":167075,"SoundDuration":167075,"Delta":80533692},{"NoteNumber":88,"Velocity":105,"Duration":366434,"SoundDuration":366434,"Delta":80756459},{"NoteNumber":85,"Velocity":89,"Duration":366434,"SoundDuration":366434,"Delta":80756459},{"NoteNumber":80,"Velocity":89,"Duration":366434,"SoundDuration":366434,"Delta":80756459},{"NoteNumber":76,"Velocity":89,"Duration":366434,"SoundDuration":366434,"Delta":80756459},{"NoteNumber":61,"Velocity":67,"Duration":366434,"SoundDuration":366434,"Delta":80756459},{"NoteNumber":56,"Velocity":67,"Duration":366434,"SoundDuration":366434,"Delta":80756459},{"NoteNumber":64,"Velocity":79,"Duration":366434,"SoundDuration":366434,"Delta":80756459},{"NoteNumber":52,"Velocity":67,"Duration":366434,"SoundDuration":366434,"Delta":80756459},{"NoteNumber":76,"Velocity":76,"Duration":137413,"SoundDuration":137413,"Delta":81122894},{"NoteNumber":88,"Velocity":90,"Duration":137413,"SoundDuration":137413,"Delta":81122894},{"NoteNumber":64,"Velocity":68,"Duration":137413,"SoundDuration":137413,"Delta":81122894},{"NoteNumber":52,"Velocity":57,"Duration":137413,"SoundDuration":137413,"Delta":81122894},{"NoteNumber":76,"Velocity":80,"Duration":137413,"SoundDuration":137413,"Delta":81306111},{"NoteNumber":88,"Velocity":95,"Duration":137413,"SoundDuration":137413,"Delta":81306111},{"NoteNumber":52,"Velocity":60,"Duration":137413,"SoundDuration":137413,"Delta":81306111},{"NoteNumber":64,"Velocity":71,"Duration":137413,"SoundDuration":137413,"Delta":81306111},{"NoteNumber":88,"Velocity":88,"Duration":134537,"SoundDuration":134537,"Delta":81489329},{"NoteNumber":76,"Velocity":74,"Duration":134537,"SoundDuration":134537,"Delta":81489329},{"NoteNumber":64,"Velocity":70,"Duration":134537,"SoundDuration":134537,"Delta":81489329},{"NoteNumber":52,"Velocity":59,"Duration":134537,"SoundDuration":134537,"Delta":81489329},{"NoteNumber":88,"Velocity":89,"Duration":139977,"SoundDuration":139977,"Delta":81668712},{"NoteNumber":76,"Velocity":75,"Duration":139977,"SoundDuration":139977,"Delta":81668712},{"NoteNumber":64,"Velocity":70,"Duration":139977,"SoundDuration":139977,"Delta":81668712},{"NoteNumber":52,"Velocity":59,"Duration":139977,"SoundDuration":139977,"Delta":81668712},{"NoteNumber":88,"Velocity":105,"Duration":366434,"SoundDuration":366434,"Delta":81855349},{"NoteNumber":76,"Velocity":89,"Duration":366434,"SoundDuration":366434,"Delta":81855349},{"NoteNumber":64,"Velocity":79,"Duration":366434,"SoundDuration":366434,"Delta":81855349},{"NoteNumber":52,"Velocity":67,"Duration":366434,"SoundDuration":366434,"Delta":81855349},{"NoteNumber":76,"Velocity":72,"Duration":137413,"SoundDuration":137413,"Delta":82221784},{"NoteNumber":88,"Velocity":85,"Duration":137413,"SoundDuration":137413,"Delta":82221784},{"NoteNumber":76,"Velocity":76,"Duration":145471,"SoundDuration":145471,"Delta":82405001},{"NoteNumber":88,"Velocity":90,"Duration":145471,"SoundDuration":145471,"Delta":82405001},{"NoteNumber":33,"Velocity":60,"Duration":145471,"SoundDuration":145471,"Delta":82405001},{"NoteNumber":45,"Velocity":71,"Duration":145471,"SoundDuration":145471,"Delta":82405001},{"NoteNumber":88,"Velocity":70,"Duration":135346,"SoundDuration":135346,"Delta":82598963},{"NoteNumber":76,"Velocity":59,"Duration":135346,"SoundDuration":135346,"Delta":82598963},{"NoteNumber":49,"Velocity":61,"Duration":67673,"SoundDuration":67673,"Delta":82689194},{"NoteNumber":57,"Velocity":73,"Duration":67673,"SoundDuration":67673,"Delta":82689194},{"NoteNumber":88,"Velocity":71,"Duration":144009,"SoundDuration":144009,"Delta":82779425},{"NoteNumber":76,"Velocity":60,"Duration":144009,"SoundDuration":144009,"Delta":82779425},{"NoteNumber":57,"Velocity":73,"Duration":144009,"SoundDuration":144009,"Delta":82779425},{"NoteNumber":49,"Velocity":61,"Duration":144009,"SoundDuration":144009,"Delta":82779425},{"NoteNumber":88,"Velocity":76,"Duration":138257,"SoundDuration":138257,"Delta":82971437},{"NoteNumber":76,"Velocity":64,"Duration":138257,"SoundDuration":138257,"Delta":82971437},{"NoteNumber":49,"Velocity":63,"Duration":184342,"SoundDuration":184342,"Delta":82971437},{"NoteNumber":57,"Velocity":73,"Duration":184342,"SoundDuration":184342,"Delta":82971437},{"NoteNumber":88,"Velocity":70,"Duration":138257,"SoundDuration":138257,"Delta":83155780},{"NoteNumber":76,"Velocity":59,"Duration":138257,"SoundDuration":138257,"Delta":83155780},{"NoteNumber":59,"Velocity":69,"Duration":184342,"SoundDuration":184342,"Delta":83155780},{"NoteNumber":52,"Velocity":57,"Duration":184342,"SoundDuration":184342,"Delta":83155780},{"NoteNumber":76,"Velocity":60,"Duration":144769,"SoundDuration":144769,"Delta":83340123},{"NoteNumber":88,"Velocity":71,"Duration":144769,"SoundDuration":144769,"Delta":83340123},{"NoteNumber":57,"Velocity":57,"Duration":96512,"SoundDuration":96512,"Delta":83340123},{"NoteNumber":61,"Velocity":69,"Duration":96512,"SoundDuration":96512,"Delta":83340123},{"NoteNumber":88,"Velocity":76,"Duration":138257,"SoundDuration":138257,"Delta":83533149},{"NoteNumber":76,"Velocity":64,"Duration":138257,"SoundDuration":138257,"Delta":83533149},{"NoteNumber":57,"Velocity":64,"Duration":368685,"SoundDuration":368685,"Delta":83533149},{"NoteNumber":61,"Velocity":75,"Duration":368685,"SoundDuration":368685,"Delta":83533149},{"NoteNumber":88,"Velocity":70,"Duration":138257,"SoundDuration":138257,"Delta":83717492},{"NoteNumber":76,"Velocity":59,"Duration":138257,"SoundDuration":138257,"Delta":83717492},{"NoteNumber":88,"Velocity":71,"Duration":138257,"SoundDuration":138257,"Delta":83901835},{"NoteNumber":76,"Velocity":60,"Duration":138257,"SoundDuration":138257,"Delta":83901835},{"NoteNumber":57,"Velocity":63,"Duration":138257,"SoundDuration":138257,"Delta":83901835},{"NoteNumber":61,"Velocity":73,"Duration":138257,"SoundDuration":138257,"Delta":83901835},{"NoteNumber":88,"Velocity":76,"Duration":138257,"SoundDuration":138257,"Delta":84086178},{"NoteNumber":76,"Velocity":64,"Duration":138257,"SoundDuration":138257,"Delta":84086178},{"NoteNumber":57,"Velocity":66,"Duration":184342,"SoundDuration":184342,"Delta":84086178},{"NoteNumber":61,"Velocity":78,"Duration":184342,"SoundDuration":184342,"Delta":84086178},{"NoteNumber":88,"Velocity":70,"Duration":138257,"SoundDuration":138257,"Delta":84270521},{"NoteNumber":76,"Velocity":59,"Duration":138257,"SoundDuration":138257,"Delta":84270521},{"NoteNumber":62,"Velocity":73,"Duration":184343,"SoundDuration":184343,"Delta":84270521},{"NoteNumber":59,"Velocity":63,"Duration":184343,"SoundDuration":184343,"Delta":84270521},{"NoteNumber":76,"Velocity":60,"Duration":142703,"SoundDuration":142703,"Delta":84454864},{"NoteNumber":88,"Velocity":71,"Duration":142703,"SoundDuration":142703,"Delta":84454864},{"NoteNumber":61,"Velocity":63,"Duration":95135,"SoundDuration":95135,"Delta":84454864},{"NoteNumber":64,"Velocity":73,"Duration":95135,"SoundDuration":95135,"Delta":84454864},{"NoteNumber":88,"Velocity":76,"Duration":138257,"SoundDuration":138257,"Delta":84645135},{"NoteNumber":76,"Velocity":64,"Duration":138257,"SoundDuration":138257,"Delta":84645135},{"NoteNumber":64,"Velocity":82,"Duration":276514,"SoundDuration":276514,"Delta":84645135},{"NoteNumber":61,"Velocity":70,"Duration":276514,"SoundDuration":276514,"Delta":84645135},{"NoteNumber":90,"Velocity":66,"Duration":138257,"SoundDuration":138257,"Delta":84829478},{"NoteNumber":78,"Velocity":56,"Duration":138257,"SoundDuration":138257,"Delta":84829478},{"NoteNumber":62,"Velocity":55,"Duration":82954,"SoundDuration":82954,"Delta":84921649},{"NoteNumber":66,"Velocity":65,"Duration":82954,"SoundDuration":82954,"Delta":84921649},{"NoteNumber":90,"Velocity":64,"Duration":144769,"SoundDuration":144769,"Delta":85013821},{"NoteNumber":78,"Velocity":53,"Duration":144769,"SoundDuration":144769,"Delta":85013821},{"NoteNumber":66,"Velocity":66,"Duration":144769,"SoundDuration":144769,"Delta":85013821},{"NoteNumber":62,"Velocity":55,"Duration":144769,"SoundDuration":144769,"Delta":85013821},{"NoteNumber":93,"Velocity":68,"Duration":135910,"SoundDuration":135910,"Delta":85206846},{"NoteNumber":81,"Velocity":57,"Duration":135910,"SoundDuration":135910,"Delta":85206846},{"NoteNumber":57,"Velocity":59,"Duration":271821,"SoundDuration":271821,"Delta":85206846},{"NoteNumber":69,"Velocity":71,"Duration":271821,"SoundDuration":271821,"Delta":85206846},{"NoteNumber":66,"Velocity":59,"Duration":271821,"SoundDuration":271821,"Delta":85206846},{"NoteNumber":81,"Velocity":52,"Duration":135910,"SoundDuration":135910,"Delta":85388060},{"NoteNumber":93,"Velocity":62,"Duration":135910,"SoundDuration":135910,"Delta":85388060},{"NoteNumber":69,"Velocity":59,"Duration":81546,"SoundDuration":81546,"Delta":85478667},{"NoteNumber":66,"Velocity":51,"Duration":81546,"SoundDuration":81546,"Delta":85478667},{"NoteNumber":81,"Velocity":53,"Duration":143211,"SoundDuration":143211,"Delta":85569274},{"NoteNumber":93,"Velocity":63,"Duration":143211,"SoundDuration":143211,"Delta":85569274},{"NoteNumber":69,"Velocity":59,"Duration":143211,"SoundDuration":143211,"Delta":85569274},{"NoteNumber":66,"Velocity":51,"Duration":143211,"SoundDuration":143211,"Delta":85569274},{"NoteNumber":93,"Velocity":67,"Duration":152366,"SoundDuration":152366,"Delta":85760223},{"NoteNumber":81,"Velocity":47,"Duration":152366,"SoundDuration":152366,"Delta":85760223},{"NoteNumber":69,"Velocity":67,"Duration":203155,"SoundDuration":203155,"Delta":85760223},{"NoteNumber":66,"Velocity":47,"Duration":203155,"SoundDuration":203155,"Delta":85760223},{"NoteNumber":93,"Velocity":63,"Duration":152366,"SoundDuration":152366,"Delta":85963379},{"NoteNumber":81,"Velocity":54,"Duration":152366,"SoundDuration":152366,"Delta":85963379},{"NoteNumber":68,"Velocity":63,"Duration":203155,"SoundDuration":203155,"Delta":85963379},{"NoteNumber":64,"Velocity":53,"Duration":203155,"SoundDuration":203155,"Delta":85963379},{"NoteNumber":81,"Velocity":52,"Duration":181203,"SoundDuration":181203,"Delta":86166534},{"NoteNumber":93,"Velocity":62,"Duration":181203,"SoundDuration":181203,"Delta":86166534},{"NoteNumber":62,"Velocity":42,"Duration":120802,"SoundDuration":120802,"Delta":86166534},{"NoteNumber":66,"Velocity":50,"Duration":120802,"SoundDuration":120802,"Delta":86166534},{"NoteNumber":93,"Velocity":61,"Duration":192715,"SoundDuration":192715,"Delta":86408139},{"NoteNumber":81,"Velocity":51,"Duration":192715,"SoundDuration":192715,"Delta":86408139},{"NoteNumber":57,"Velocity":46,"Duration":578146,"SoundDuration":578146,"Delta":86408139},{"NoteNumber":62,"Velocity":46,"Duration":578146,"SoundDuration":578146,"Delta":86408139},{"NoteNumber":66,"Velocity":55,"Duration":578146,"SoundDuration":578146,"Delta":86408139},{"NoteNumber":61,"Velocity":45,"Duration":216559,"SoundDuration":216559,"Delta":86986285},{"NoteNumber":64,"Velocity":54,"Duration":216559,"SoundDuration":216559,"Delta":86986285},{"NoteNumber":64,"Velocity":59,"Duration":82101,"SoundDuration":82101,"Delta":87311125},{"NoteNumber":69,"Velocity":70,"Duration":82101,"SoundDuration":82101,"Delta":87311125},{"NoteNumber":49,"Velocity":50,"Duration":82101,"SoundDuration":82101,"Delta":87311125},{"NoteNumber":57,"Velocity":59,"Duration":82101,"SoundDuration":82101,"Delta":87311125},{"NoteNumber":69,"Velocity":68,"Duration":136836,"SoundDuration":136836,"Delta":87402349},{"NoteNumber":64,"Velocity":57,"Duration":136836,"SoundDuration":136836,"Delta":87402349},{"NoteNumber":57,"Velocity":54,"Duration":136836,"SoundDuration":136836,"Delta":87402349},{"NoteNumber":49,"Velocity":45,"Duration":136836,"SoundDuration":136836,"Delta":87402349},{"NoteNumber":64,"Velocity":59,"Duration":184342,"SoundDuration":184342,"Delta":87584797},{"NoteNumber":69,"Velocity":70,"Duration":184342,"SoundDuration":184342,"Delta":87584797},{"NoteNumber":49,"Velocity":50,"Duration":184342,"SoundDuration":184342,"Delta":87584797},{"NoteNumber":57,"Velocity":59,"Duration":184342,"SoundDuration":184342,"Delta":87584797},{"NoteNumber":71,"Velocity":69,"Duration":184342,"SoundDuration":184342,"Delta":87769140},{"NoteNumber":68,"Velocity":58,"Duration":184342,"SoundDuration":184342,"Delta":87769140},{"NoteNumber":59,"Velocity":55,"Duration":184342,"SoundDuration":184342,"Delta":87769140},{"NoteNumber":52,"Velocity":46,"Duration":184342,"SoundDuration":184342,"Delta":87769140},{"NoteNumber":73,"Velocity":69,"Duration":96512,"SoundDuration":96512,"Delta":87953483},{"NoteNumber":69,"Velocity":69,"Duration":96512,"SoundDuration":96512,"Delta":87953483},{"NoteNumber":64,"Velocity":58,"Duration":96512,"SoundDuration":96512,"Delta":87953483},{"NoteNumber":57,"Velocity":46,"Duration":96512,"SoundDuration":96512,"Delta":87953483},{"NoteNumber":61,"Velocity":55,"Duration":96512,"SoundDuration":96512,"Delta":87953483},{"NoteNumber":73,"Velocity":73,"Duration":368685,"SoundDuration":368685,"Delta":88146509},{"NoteNumber":69,"Velocity":73,"Duration":368685,"SoundDuration":368685,"Delta":88146509},{"NoteNumber":64,"Velocity":62,"Duration":368685,"SoundDuration":368685,"Delta":88146509},{"NoteNumber":57,"Velocity":51,"Duration":368685,"SoundDuration":368685,"Delta":88146509},{"NoteNumber":61,"Velocity":60,"Duration":368685,"SoundDuration":368685,"Delta":88146509},{"NoteNumber":73,"Velocity":65,"Duration":138257,"SoundDuration":138257,"Delta":88515195},{"NoteNumber":69,"Velocity":55,"Duration":138257,"SoundDuration":138257,"Delta":88515195},{"NoteNumber":57,"Velocity":50,"Duration":138257,"SoundDuration":138257,"Delta":88515195},{"NoteNumber":61,"Velocity":59,"Duration":138257,"SoundDuration":138257,"Delta":88515195},{"NoteNumber":69,"Velocity":59,"Duration":184342,"SoundDuration":184342,"Delta":88699538},{"NoteNumber":73,"Velocity":70,"Duration":184342,"SoundDuration":184342,"Delta":88699538},{"NoteNumber":57,"Velocity":53,"Duration":184342,"SoundDuration":184342,"Delta":88699538},{"NoteNumber":61,"Velocity":63,"Duration":184342,"SoundDuration":184342,"Delta":88699538},{"NoteNumber":74,"Velocity":66,"Duration":184343,"SoundDuration":184343,"Delta":88883881},{"NoteNumber":71,"Velocity":56,"Duration":184343,"SoundDuration":184343,"Delta":88883881},{"NoteNumber":62,"Velocity":59,"Duration":184343,"SoundDuration":184343,"Delta":88883881},{"NoteNumber":59,"Velocity":50,"Duration":184343,"SoundDuration":184343,"Delta":88883881},{"NoteNumber":76,"Velocity":64,"Duration":95135,"SoundDuration":95135,"Delta":89068224},{"NoteNumber":73,"Velocity":54,"Duration":95135,"SoundDuration":95135,"Delta":89068224},{"NoteNumber":61,"Velocity":50,"Duration":95135,"SoundDuration":95135,"Delta":89068224},{"NoteNumber":64,"Velocity":59,"Duration":95135,"SoundDuration":95135,"Delta":89068224},{"NoteNumber":76,"Velocity":54,"Duration":184342,"SoundDuration":184342,"Delta":89258495},{"NoteNumber":73,"Velocity":54,"Duration":184342,"SoundDuration":184342,"Delta":89258495},{"NoteNumber":64,"Velocity":66,"Duration":184342,"SoundDuration":184342,"Delta":89258495},{"NoteNumber":61,"Velocity":56,"Duration":184342,"SoundDuration":184342,"Delta":89258495},{"NoteNumber":74,"Velocity":50,"Duration":184342,"SoundDuration":184342,"Delta":89442838},{"NoteNumber":73,"Velocity":43,"Duration":184342,"SoundDuration":184342,"Delta":89627181},{"NoteNumber":69,"Velocity":49,"Duration":271821,"SoundDuration":271821,"Delta":89811524},{"NoteNumber":71,"Velocity":55,"Duration":271821,"SoundDuration":271821,"Delta":89811524},{"NoteNumber":38,"Velocity":45,"Duration":181213,"SoundDuration":181213,"Delta":89811524},{"NoteNumber":50,"Velocity":45,"Duration":181213,"SoundDuration":181213,"Delta":89811524},{"NoteNumber":59,"Velocity":34,"Duration":172153,"SoundDuration":172153,"Delta":89992738},{"NoteNumber":57,"Velocity":27,"Duration":172153,"SoundDuration":172153,"Delta":89992738},{"NoteNumber":54,"Velocity":27,"Duration":172153,"SoundDuration":172153,"Delta":89992738},{"NoteNumber":50,"Velocity":27,"Duration":172153,"SoundDuration":172153,"Delta":89992738},{"NoteNumber":71,"Velocity":45,"Duration":81546,"SoundDuration":81546,"Delta":90083345},{"NoteNumber":69,"Velocity":45,"Duration":81546,"SoundDuration":81546,"Delta":90083345},{"NoteNumber":71,"Velocity":45,"Duration":143211,"SoundDuration":143211,"Delta":90173952},{"NoteNumber":69,"Velocity":45,"Duration":143211,"SoundDuration":143211,"Delta":90173952},{"NoteNumber":59,"Velocity":34,"Duration":181401,"SoundDuration":181401,"Delta":90173952},{"NoteNumber":57,"Velocity":27,"Duration":181401,"SoundDuration":181401,"Delta":90173952},{"NoteNumber":54,"Velocity":27,"Duration":181401,"SoundDuration":181401,"Delta":90173952},{"NoteNumber":50,"Velocity":27,"Duration":181401,"SoundDuration":181401,"Delta":90173952},{"NoteNumber":69,"Velocity":49,"Duration":1392513,"SoundDuration":1392513,"Delta":90364901},{"NoteNumber":74,"Velocity":54,"Duration":190949,"SoundDuration":190949,"Delta":90364901},{"NoteNumber":59,"Velocity":40,"Duration":181401,"SoundDuration":181401,"Delta":90364901},{"NoteNumber":57,"Velocity":32,"Duration":181401,"SoundDuration":181401,"Delta":90364901},{"NoteNumber":54,"Velocity":32,"Duration":181401,"SoundDuration":181401,"Delta":90364901},{"NoteNumber":50,"Velocity":32,"Duration":181401,"SoundDuration":181401,"Delta":90364901},{"NoteNumber":73,"Velocity":50,"Duration":184626,"SoundDuration":184626,"Delta":90555850},{"NoteNumber":59,"Velocity":34,"Duration":175395,"SoundDuration":175395,"Delta":90555850},{"NoteNumber":57,"Velocity":27,"Duration":175395,"SoundDuration":175395,"Delta":90555850},{"NoteNumber":54,"Velocity":27,"Duration":175395,"SoundDuration":175395,"Delta":90555850},{"NoteNumber":50,"Velocity":27,"Duration":175395,"SoundDuration":175395,"Delta":90555850},{"NoteNumber":71,"Velocity":43,"Duration":184626,"SoundDuration":184626,"Delta":90740476},{"NoteNumber":59,"Velocity":34,"Duration":175395,"SoundDuration":175395,"Delta":90740476},{"NoteNumber":57,"Velocity":27,"Duration":175395,"SoundDuration":175395,"Delta":90740476},{"NoteNumber":54,"Velocity":27,"Duration":175395,"SoundDuration":175395,"Delta":90740476},{"NoteNumber":50,"Velocity":27,"Duration":175395,"SoundDuration":175395,"Delta":90740476},{"NoteNumber":78,"Velocity":54,"Duration":184060,"SoundDuration":184060,"Delta":90925103},{"NoteNumber":59,"Velocity":40,"Duration":1113628,"SoundDuration":1113628,"Delta":90925103},{"NoteNumber":57,"Velocity":32,"Duration":1113628,"SoundDuration":1113628,"Delta":90925103},{"NoteNumber":54,"Velocity":32,"Duration":1113628,"SoundDuration":1113628,"Delta":90925103},{"NoteNumber":50,"Velocity":32,"Duration":1113628,"SoundDuration":1113628,"Delta":90925103},{"NoteNumber":74,"Velocity":50,"Duration":184060,"SoundDuration":184060,"Delta":91109163},{"NoteNumber":73,"Velocity":50,"Duration":188099,"SoundDuration":188099,"Delta":91293224},{"NoteNumber":71,"Velocity":55,"Duration":276090,"SoundDuration":276090,"Delta":91481323},{"NoteNumber":71,"Velocity":45,"Duration":82827,"SoundDuration":82827,"Delta":91757414},{"NoteNumber":69,"Velocity":45,"Duration":82827,"SoundDuration":82827,"Delta":91757414},{"NoteNumber":71,"Velocity":45,"Duration":141964,"SoundDuration":141964,"Delta":91849444},{"NoteNumber":69,"Velocity":45,"Duration":141964,"SoundDuration":141964,"Delta":91849444},{"NoteNumber":69,"Velocity":49,"Duration":1853860,"SoundDuration":1853860,"Delta":92038731},{"NoteNumber":71,"Velocity":55,"Duration":271821,"SoundDuration":271821,"Delta":92038731},{"NoteNumber":38,"Velocity":45,"Duration":181213,"SoundDuration":181213,"Delta":92038731},{"NoteNumber":50,"Velocity":45,"Duration":181213,"SoundDuration":181213,"Delta":92038731},{"NoteNumber":59,"Velocity":34,"Duration":172153,"SoundDuration":172153,"Delta":92219945},{"NoteNumber":57,"Velocity":27,"Duration":172153,"SoundDuration":172153,"Delta":92219945},{"NoteNumber":54,"Velocity":27,"Duration":172153,"SoundDuration":172153,"Delta":92219945},{"NoteNumber":50,"Velocity":27,"Duration":172153,"SoundDuration":172153,"Delta":92219945},{"NoteNumber":71,"Velocity":45,"Duration":81546,"SoundDuration":81546,"Delta":92310552},{"NoteNumber":71,"Velocity":45,"Duration":143211,"SoundDuration":143211,"Delta":92401159},{"NoteNumber":59,"Velocity":34,"Duration":181401,"SoundDuration":181401,"Delta":92401159},{"NoteNumber":57,"Velocity":27,"Duration":181401,"SoundDuration":181401,"Delta":92401159},{"NoteNumber":54,"Velocity":27,"Duration":181401,"SoundDuration":181401,"Delta":92401159},{"NoteNumber":50,"Velocity":27,"Duration":181401,"SoundDuration":181401,"Delta":92401159},{"NoteNumber":74,"Velocity":54,"Duration":190949,"SoundDuration":190949,"Delta":92592108},{"NoteNumber":59,"Velocity":40,"Duration":181401,"SoundDuration":181401,"Delta":92592108},{"NoteNumber":57,"Velocity":32,"Duration":181401,"SoundDuration":181401,"Delta":92592108},{"NoteNumber":54,"Velocity":32,"Duration":181401,"SoundDuration":181401,"Delta":92592108},{"NoteNumber":50,"Velocity":32,"Duration":181401,"SoundDuration":181401,"Delta":92592108},{"NoteNumber":73,"Velocity":50,"Duration":184626,"SoundDuration":184626,"Delta":92783057},{"NoteNumber":59,"Velocity":34,"Duration":175395,"SoundDuration":175395,"Delta":92783057},{"NoteNumber":57,"Velocity":27,"Duration":175395,"SoundDuration":175395,"Delta":92783057},{"NoteNumber":54,"Velocity":27,"Duration":175395,"SoundDuration":175395,"Delta":92783057},{"NoteNumber":50,"Velocity":27,"Duration":175395,"SoundDuration":175395,"Delta":92783057},{"NoteNumber":71,"Velocity":43,"Duration":184626,"SoundDuration":184626,"Delta":92967683},{"NoteNumber":59,"Velocity":34,"Duration":175395,"SoundDuration":175395,"Delta":92967683},{"NoteNumber":57,"Velocity":27,"Duration":175395,"SoundDuration":175395,"Delta":92967683},{"NoteNumber":54,"Velocity":27,"Duration":175395,"SoundDuration":175395,"Delta":92967683},{"NoteNumber":50,"Velocity":27,"Duration":175395,"SoundDuration":175395,"Delta":92967683},{"NoteNumber":78,"Velocity":54,"Duration":184060,"SoundDuration":184060,"Delta":93152310},{"NoteNumber":59,"Velocity":40,"Duration":1123452,"SoundDuration":1123452,"Delta":93152310},{"NoteNumber":57,"Velocity":32,"Duration":1123452,"SoundDuration":1123452,"Delta":93152310},{"NoteNumber":54,"Velocity":32,"Duration":1123452,"SoundDuration":1123452,"Delta":93152310},{"NoteNumber":50,"Velocity":32,"Duration":1123452,"SoundDuration":1123452,"Delta":93152310},{"NoteNumber":74,"Velocity":50,"Duration":184060,"SoundDuration":184060,"Delta":93336370},{"NoteNumber":73,"Velocity":50,"Duration":188099,"SoundDuration":188099,"Delta":93520431},{"NoteNumber":71,"Velocity":55,"Duration":178692,"SoundDuration":178692,"Delta":93708530},{"NoteNumber":71,"Velocity":45,"Duration":168722,"SoundDuration":168722,"Delta":93892591},{"NoteNumber":69,"Velocity":45,"Duration":174857,"SoundDuration":174857,"Delta":93892591},{"NoteNumber":71,"Velocity":45,"Duration":149332,"SoundDuration":149332,"Delta":94076651},{"NoteNumber":69,"Velocity":45,"Duration":149332,"SoundDuration":149332,"Delta":94076651},{"NoteNumber":78,"Velocity":90,"Duration":744884,"SoundDuration":744884,"Delta":94275762},{"NoteNumber":39,"Velocity":60,"Duration":350251,"SoundDuration":350251,"Delta":94275762},{"NoteNumber":51,"Velocity":71,"Duration":350251,"SoundDuration":350251,"Delta":94275762},{"NoteNumber":57,"Velocity":46,"Duration":141074,"SoundDuration":141074,"Delta":94644448},{"NoteNumber":59,"Velocity":55,"Duration":141074,"SoundDuration":141074,"Delta":94644448},{"NoteNumber":54,"Velocity":46,"Duration":141074,"SoundDuration":141074,"Delta":94644448},{"NoteNumber":51,"Velocity":46,"Duration":141074,"SoundDuration":141074,"Delta":94644448},{"NoteNumber":51,"Velocity":45,"Duration":352303,"SoundDuration":352303,"Delta":94832547},{"NoteNumber":57,"Velocity":45,"Duration":352303,"SoundDuration":352303,"Delta":94832547},{"NoteNumber":54,"Velocity":45,"Duration":352303,"SoundDuration":352303,"Delta":94832547},{"NoteNumber":59,"Velocity":64,"Duration":352303,"SoundDuration":352303,"Delta":94832547},{"NoteNumber":75,"Velocity":78,"Duration":91224,"SoundDuration":91224,"Delta":95020647},{"NoteNumber":73,"Velocity":72,"Duration":96469,"SoundDuration":96469,"Delta":95203095},{"NoteNumber":59,"Velocity":56,"Duration":96469,"SoundDuration":96469,"Delta":95203095},{"NoteNumber":57,"Velocity":47,"Duration":96469,"SoundDuration":96469,"Delta":95203095},{"NoteNumber":54,"Velocity":47,"Duration":96469,"SoundDuration":96469,"Delta":95203095},{"NoteNumber":51,"Velocity":47,"Duration":96469,"SoundDuration":96469,"Delta":95203095},{"NoteNumber":71,"Velocity":78,"Duration":744884,"SoundDuration":744884,"Delta":95396034},{"NoteNumber":83,"Velocity":90,"Duration":744884,"SoundDuration":744884,"Delta":95396034},{"NoteNumber":56,"Velocity":60,"Duration":368685,"SoundDuration":368685,"Delta":95396034},{"NoteNumber":52,"Velocity":60,"Duration":368685,"SoundDuration":368685,"Delta":95396034},{"NoteNumber":50,"Velocity":60,"Duration":350251,"SoundDuration":350251,"Delta":95396034},{"NoteNumber":59,"Velocity":71,"Duration":350251,"SoundDuration":350251,"Delta":95396034},{"NoteNumber":56,"Velocity":46,"Duration":141074,"SoundDuration":141074,"Delta":95764720},{"NoteNumber":59,"Velocity":55,"Duration":141074,"SoundDuration":141074,"Delta":95764720},{"NoteNumber":52,"Velocity":46,"Duration":141074,"SoundDuration":141074,"Delta":95764720},{"NoteNumber":50,"Velocity":46,"Duration":141074,"SoundDuration":141074,"Delta":95764720},{"NoteNumber":50,"Velocity":45,"Duration":363800,"SoundDuration":363800,"Delta":95952819},{"NoteNumber":56,"Velocity":45,"Duration":363800,"SoundDuration":363800,"Delta":95952819},{"NoteNumber":52,"Velocity":45,"Duration":363800,"SoundDuration":363800,"Delta":95952819},{"NoteNumber":59,"Velocity":64,"Duration":363800,"SoundDuration":363800,"Delta":95952819},{"NoteNumber":80,"Velocity":97,"Duration":97611,"SoundDuration":97611,"Delta":96140919},{"NoteNumber":78,"Velocity":90,"Duration":108170,"SoundDuration":108170,"Delta":96336142},{"NoteNumber":59,"Velocity":70,"Duration":108170,"SoundDuration":108170,"Delta":96336142},{"NoteNumber":56,"Velocity":58,"Duration":108170,"SoundDuration":108170,"Delta":96336142},{"NoteNumber":52,"Velocity":58,"Duration":108170,"SoundDuration":108170,"Delta":96336142},{"NoteNumber":50,"Velocity":58,"Duration":108170,"SoundDuration":108170,"Delta":96336142},{"NoteNumber":88,"Velocity":101,"Duration":718248,"SoundDuration":718248,"Delta":96552483},{"NoteNumber":76,"Velocity":85,"Duration":718248,"SoundDuration":718248,"Delta":96552483},{"NoteNumber":57,"Velocity":57,"Duration":338540,"SoundDuration":338540,"Delta":96552483},{"NoteNumber":52,"Velocity":57,"Duration":338540,"SoundDuration":338540,"Delta":96552483},{"NoteNumber":49,"Velocity":57,"Duration":338540,"SoundDuration":338540,"Delta":96552483},{"NoteNumber":61,"Velocity":68,"Duration":338540,"SoundDuration":338540,"Delta":96552483},{"NoteNumber":49,"Velocity":51,"Duration":89089,"SoundDuration":89089,"Delta":96908841},{"NoteNumber":52,"Velocity":51,"Duration":89089,"SoundDuration":89089,"Delta":96908841},{"NoteNumber":57,"Velocity":51,"Duration":89089,"SoundDuration":89089,"Delta":96908841},{"NoteNumber":61,"Velocity":62,"Duration":89089,"SoundDuration":89089,"Delta":96908841},{"NoteNumber":49,"Velocity":51,"Duration":361890,"SoundDuration":361890,"Delta":97087020},{"NoteNumber":52,"Velocity":51,"Duration":361890,"SoundDuration":361890,"Delta":97087020},{"NoteNumber":57,"Velocity":51,"Duration":361890,"SoundDuration":361890,"Delta":97087020},{"NoteNumber":61,"Velocity":62,"Duration":361890,"SoundDuration":361890,"Delta":97087020},{"NoteNumber":74,"Velocity":70,"Duration":89089,"SoundDuration":89089,"Delta":97270731},{"NoteNumber":86,"Velocity":84,"Duration":89089,"SoundDuration":89089,"Delta":97270731},{"NoteNumber":73,"Velocity":70,"Duration":89089,"SoundDuration":89089,"Delta":97448910},{"NoteNumber":85,"Velocity":83,"Duration":89089,"SoundDuration":89089,"Delta":97448910},{"NoteNumber":83,"Velocity":94,"Duration":87341,"SoundDuration":87341,"Delta":97627089},{"NoteNumber":71,"Velocity":79,"Duration":87341,"SoundDuration":87341,"Delta":97627089},{"NoteNumber":45,"Velocity":46,"Duration":87341,"SoundDuration":87341,"Delta":97627089},{"NoteNumber":38,"Velocity":46,"Duration":87341,"SoundDuration":87341,"Delta":97627089},{"NoteNumber":47,"Velocity":54,"Duration":87341,"SoundDuration":87341,"Delta":97627089},{"NoteNumber":69,"Velocity":69,"Duration":89089,"SoundDuration":89089,"Delta":97801772},{"NoteNumber":81,"Velocity":82,"Duration":89089,"SoundDuration":89089,"Delta":97801772},{"NoteNumber":38,"Velocity":40,"Duration":89089,"SoundDuration":89089,"Delta":97801772},{"NoteNumber":47,"Velocity":49,"Duration":89089,"SoundDuration":89089,"Delta":97801772},{"NoteNumber":45,"Velocity":40,"Duration":89089,"SoundDuration":89089,"Delta":97801772},{"NoteNumber":68,"Velocity":69,"Duration":89089,"SoundDuration":89089,"Delta":97979951},{"NoteNumber":80,"Velocity":81,"Duration":89089,"SoundDuration":89089,"Delta":97979951},{"NoteNumber":38,"Velocity":39,"Duration":89089,"SoundDuration":89089,"Delta":97979951},{"NoteNumber":45,"Velocity":39,"Duration":89089,"SoundDuration":89089,"Delta":97979951},{"NoteNumber":47,"Velocity":49,"Duration":89089,"SoundDuration":89089,"Delta":97979951},{"NoteNumber":78,"Velocity":88,"Duration":89089,"SoundDuration":89089,"Delta":98158130},{"NoteNumber":66,"Velocity":74,"Duration":89089,"SoundDuration":89089,"Delta":98158130},{"NoteNumber":45,"Velocity":45,"Duration":89089,"SoundDuration":89089,"Delta":98158130},{"NoteNumber":38,"Velocity":45,"Duration":89089,"SoundDuration":89089,"Delta":98158130},{"NoteNumber":47,"Velocity":53,"Duration":89089,"SoundDuration":89089,"Delta":98158130},{"NoteNumber":64,"Velocity":67,"Duration":89089,"SoundDuration":89089,"Delta":98336309},{"NoteNumber":76,"Velocity":80,"Duration":89089,"SoundDuration":89089,"Delta":98336309},{"NoteNumber":38,"Velocity":39,"Duration":89089,"SoundDuration":89089,"Delta":98336309},{"NoteNumber":47,"Velocity":48,"Duration":89089,"SoundDuration":89089,"Delta":98336309},{"NoteNumber":45,"Velocity":39,"Duration":89089,"SoundDuration":89089,"Delta":98336309},{"NoteNumber":62,"Velocity":67,"Duration":89089,"SoundDuration":89089,"Delta":98514488},{"NoteNumber":74,"Velocity":79,"Duration":89089,"SoundDuration":89089,"Delta":98514488},{"NoteNumber":38,"Velocity":38,"Duration":89089,"SoundDuration":89089,"Delta":98514488},{"NoteNumber":45,"Velocity":38,"Duration":89089,"SoundDuration":89089,"Delta":98514488},{"NoteNumber":47,"Velocity":47,"Duration":89089,"SoundDuration":89089,"Delta":98514488},{"NoteNumber":73,"Velocity":88,"Duration":89089,"SoundDuration":89089,"Delta":98692667},{"NoteNumber":61,"Velocity":74,"Duration":89089,"SoundDuration":89089,"Delta":98692667},{"NoteNumber":45,"Velocity":44,"Duration":89089,"SoundDuration":89089,"Delta":98692667},{"NoteNumber":38,"Velocity":44,"Duration":89089,"SoundDuration":89089,"Delta":98692667},{"NoteNumber":47,"Velocity":51,"Duration":89089,"SoundDuration":89089,"Delta":98692667},{"NoteNumber":71,"Velocity":71,"Duration":89089,"SoundDuration":89089,"Delta":98870846},{"NoteNumber":59,"Velocity":60,"Duration":89089,"SoundDuration":89089,"Delta":98870846},{"NoteNumber":38,"Velocity":36,"Duration":89089,"SoundDuration":89089,"Delta":98870846},{"NoteNumber":47,"Velocity":45,"Duration":89089,"SoundDuration":89089,"Delta":98870846},{"NoteNumber":45,"Velocity":36,"Duration":89089,"SoundDuration":89089,"Delta":98870846},{"NoteNumber":69,"Velocity":71,"Duration":89089,"SoundDuration":89089,"Delta":99049025},{"NoteNumber":57,"Velocity":59,"Duration":89089,"SoundDuration":89089,"Delta":99049025},{"NoteNumber":38,"Velocity":35,"Duration":89089,"SoundDuration":89089,"Delta":99049025},{"NoteNumber":45,"Velocity":35,"Duration":89089,"SoundDuration":89089,"Delta":99049025},{"NoteNumber":47,"Velocity":44,"Duration":89089,"SoundDuration":89089,"Delta":99049025},{"NoteNumber":68,"Velocity":77,"Duration":89089,"SoundDuration":89089,"Delta":99227204},{"NoteNumber":56,"Velocity":65,"Duration":89089,"SoundDuration":89089,"Delta":99227204},{"NoteNumber":45,"Velocity":41,"Duration":89089,"SoundDuration":89089,"Delta":99227204},{"NoteNumber":38,"Velocity":41,"Duration":89089,"SoundDuration":89089,"Delta":99227204},{"NoteNumber":47,"Velocity":47,"Duration":89089,"SoundDuration":89089,"Delta":99227204},{"NoteNumber":69,"Velocity":67,"Duration":89089,"SoundDuration":89089,"Delta":99405383},{"NoteNumber":57,"Velocity":56,"Duration":89089,"SoundDuration":89089,"Delta":99405383},{"NoteNumber":38,"Velocity":34,"Duration":89089,"SoundDuration":89089,"Delta":99405383},{"NoteNumber":47,"Velocity":42,"Duration":89089,"SoundDuration":89089,"Delta":99405383},{"NoteNumber":45,"Velocity":34,"Duration":89089,"SoundDuration":89089,"Delta":99405383},{"NoteNumber":66,"Velocity":66,"Duration":94126,"SoundDuration":94126,"Delta":99583562},{"NoteNumber":54,"Velocity":55,"Duration":94126,"SoundDuration":94126,"Delta":99583562},{"NoteNumber":38,"Velocity":33,"Duration":94126,"SoundDuration":94126,"Delta":99583562},{"NoteNumber":45,"Velocity":33,"Duration":94126,"SoundDuration":94126,"Delta":99583562},{"NoteNumber":47,"Velocity":41,"Duration":94126,"SoundDuration":94126,"Delta":99583562},{"NoteNumber":64,"Velocity":74,"Duration":87341,"SoundDuration":87341,"Delta":99771815},{"NoteNumber":52,"Velocity":62,"Duration":87341,"SoundDuration":87341,"Delta":99771815},{"NoteNumber":45,"Velocity":37,"Duration":87341,"SoundDuration":87341,"Delta":99771815},{"NoteNumber":40,"Velocity":37,"Duration":87341,"SoundDuration":87341,"Delta":99771815},{"NoteNumber":49,"Velocity":44,"Duration":87341,"SoundDuration":87341,"Delta":99771815},{"NoteNumber":69,"Velocity":56,"Duration":88500,"SoundDuration":88500,"Delta":99946497},{"NoteNumber":57,"Velocity":48,"Duration":88500,"SoundDuration":88500,"Delta":99946497},{"NoteNumber":45,"Velocity":31,"Duration":88500,"SoundDuration":88500,"Delta":99946497},{"NoteNumber":40,"Velocity":31,"Duration":88500,"SoundDuration":88500,"Delta":99946497},{"NoteNumber":49,"Velocity":38,"Duration":88500,"SoundDuration":88500,"Delta":99946497},{"NoteNumber":61,"Velocity":56,"Duration":88500,"SoundDuration":88500,"Delta":100123499},{"NoteNumber":57,"Velocity":47,"Duration":88500,"SoundDuration":88500,"Delta":100123499},{"NoteNumber":45,"Velocity":30,"Duration":88500,"SoundDuration":88500,"Delta":100123499},{"NoteNumber":40,"Velocity":30,"Duration":88500,"SoundDuration":88500,"Delta":100123499},{"NoteNumber":49,"Velocity":38,"Duration":88500,"SoundDuration":88500,"Delta":100123499},{"NoteNumber":64,"Velocity":65,"Duration":88500,"SoundDuration":88500,"Delta":100300500},{"NoteNumber":56,"Velocity":54,"Duration":88500,"SoundDuration":88500,"Delta":100300500},{"NoteNumber":40,"Velocity":34,"Duration":88500,"SoundDuration":88500,"Delta":100300500},{"NoteNumber":47,"Velocity":40,"Duration":88500,"SoundDuration":88500,"Delta":100300500},{"NoteNumber":62,"Velocity":46,"Duration":91855,"SoundDuration":91855,"Delta":100477502},{"NoteNumber":56,"Velocity":39,"Duration":91855,"SoundDuration":91855,"Delta":100477502},{"NoteNumber":40,"Velocity":29,"Duration":91855,"SoundDuration":91855,"Delta":100477502},{"NoteNumber":47,"Velocity":35,"Duration":91855,"SoundDuration":91855,"Delta":100477502},{"NoteNumber":59,"Velocity":46,"Duration":96512,"SoundDuration":96512,"Delta":100661213},{"NoteNumber":56,"Velocity":39,"Duration":96512,"SoundDuration":96512,"Delta":100661213},{"NoteNumber":38,"Velocity":28,"Duration":96512,"SoundDuration":96512,"Delta":100661213},{"NoteNumber":40,"Velocity":35,"Duration":96512,"SoundDuration":96512,"Delta":100661213},{"NoteNumber":57,"Velocity":49,"Duration":138257,"SoundDuration":138257,"Delta":100854238},{"NoteNumber":37,"Velocity":28,"Duration":368685,"SoundDuration":368685,"Delta":100854238},{"NoteNumber":40,"Velocity":28,"Duration":368685,"SoundDuration":368685,"Delta":100854238},{"NoteNumber":45,"Velocity":28,"Duration":368685,"SoundDuration":368685,"Delta":100854238},{"NoteNumber":57,"Velocity":45,"Duration":92171,"SoundDuration":92171,"Delta":101038581},{"NoteNumber":57,"Velocity":43,"Duration":92171,"SoundDuration":92171,"Delta":101222924},{"NoteNumber":57,"Velocity":49,"Duration":732588,"SoundDuration":732588,"Delta":101407267},{"NoteNumber":52,"Velocity":40,"Duration":92171,"SoundDuration":92171,"Delta":101591610},{"NoteNumber":45,"Velocity":31,"Duration":92171,"SoundDuration":92171,"Delta":101591610},{"NoteNumber":33,"Velocity":26,"Duration":92171,"SoundDuration":92171,"Delta":101591610},{"NoteNumber":52,"Velocity":46,"Duration":93755,"SoundDuration":93755,"Delta":101775953},{"NoteNumber":45,"Velocity":27,"Duration":93755,"SoundDuration":93755,"Delta":101775953},{"NoteNumber":33,"Velocity":22,"Duration":93755,"SoundDuration":93755,"Delta":101775953},{"NoteNumber":54,"Velocity":53,"Duration":368121,"SoundDuration":368121,"Delta":101963465},{"NoteNumber":50,"Velocity":53,"Duration":368121,"SoundDuration":368121,"Delta":101963465},{"NoteNumber":45,"Velocity":34,"Duration":368121,"SoundDuration":368121,"Delta":101963465},{"NoteNumber":38,"Velocity":28,"Duration":368121,"SoundDuration":368121,"Delta":101963465},{"NoteNumber":57,"Velocity":45,"Duration":92030,"SoundDuration":92030,"Delta":102147525},{"NoteNumber":57,"Velocity":43,"Duration":92030,"SoundDuration":92030,"Delta":102331586},{"NoteNumber":57,"Velocity":49,"Duration":733203,"SoundDuration":733203,"Delta":102515646},{"NoteNumber":52,"Velocity":40,"Duration":92030,"SoundDuration":92030,"Delta":102699707},{"NoteNumber":45,"Velocity":34,"Duration":92030,"SoundDuration":92030,"Delta":102699707},{"NoteNumber":33,"Velocity":28,"Duration":92030,"SoundDuration":92030,"Delta":102699707},{"NoteNumber":52,"Velocity":46,"Duration":94345,"SoundDuration":94345,"Delta":102883767},{"NoteNumber":45,"Velocity":32,"Duration":94345,"SoundDuration":94345,"Delta":102883767},{"NoteNumber":33,"Velocity":27,"Duration":94345,"SoundDuration":94345,"Delta":102883767},{"NoteNumber":54,"Velocity":63,"Duration":368121,"SoundDuration":368121,"Delta":103072458},{"NoteNumber":50,"Velocity":63,"Duration":368121,"SoundDuration":368121,"Delta":103072458},{"NoteNumber":45,"Velocity":45,"Duration":368121,"SoundDuration":368121,"Delta":103072458},{"NoteNumber":38,"Velocity":38,"Duration":368121,"SoundDuration":368121,"Delta":103072458},{"NoteNumber":57,"Velocity":53,"Duration":92030,"SoundDuration":92030,"Delta":103256519},{"NoteNumber":57,"Velocity":61,"Duration":93463,"SoundDuration":93463,"Delta":103440579},{"NoteNumber":61,"Velocity":67,"Duration":728572,"SoundDuration":728572,"Delta":103627507},{"NoteNumber":56,"Velocity":45,"Duration":92030,"SoundDuration":92030,"Delta":103811567},{"NoteNumber":49,"Velocity":38,"Duration":92030,"SoundDuration":92030,"Delta":103811567},{"NoteNumber":49,"Velocity":39,"Duration":92030,"SoundDuration":92030,"Delta":103995628},{"NoteNumber":56,"Velocity":47,"Duration":92030,"SoundDuration":92030,"Delta":103995628},{"NoteNumber":54,"Velocity":49,"Duration":368121,"SoundDuration":368121,"Delta":104179688},{"NoteNumber":57,"Velocity":59,"Duration":368121,"SoundDuration":368121,"Delta":104179688},{"NoteNumber":61,"Velocity":59,"Duration":92030,"SoundDuration":92030,"Delta":104363749},{"NoteNumber":61,"Velocity":68,"Duration":92884,"SoundDuration":92884,"Delta":104547809},{"NoteNumber":64,"Velocity":75,"Duration":736193,"SoundDuration":736193,"Delta":104733579},{"NoteNumber":59,"Velocity":50,"Duration":92030,"SoundDuration":92030,"Delta":104917640},{"NoteNumber":52,"Velocity":42,"Duration":92030,"SoundDuration":92030,"Delta":104917640},{"NoteNumber":52,"Velocity":44,"Duration":92030,"SoundDuration":92030,"Delta":105101700},{"NoteNumber":59,"Velocity":52,"Duration":92030,"SoundDuration":92030,"Delta":105101700},{"NoteNumber":57,"Velocity":55,"Duration":365919,"SoundDuration":365919,"Delta":105285761},{"NoteNumber":61,"Velocity":66,"Duration":275131,"SoundDuration":275131,"Delta":105285761},{"NoteNumber":61,"Velocity":70,"Duration":181908,"SoundDuration":181908,"Delta":105469772},{"NoteNumber":64,"Velocity":73,"Duration":90788,"SoundDuration":90788,"Delta":105560892},{"NoteNumber":69,"Velocity":76,"Duration":90460,"SoundDuration":90460,"Delta":105651681},{"NoteNumber":73,"Velocity":84,"Duration":90073,"SoundDuration":90073,"Delta":105742141},{"NoteNumber":76,"Velocity":88,"Duration":735920,"SoundDuration":735920,"Delta":105832214},{"NoteNumber":49,"Velocity":45,"Duration":92030,"SoundDuration":92030,"Delta":106016275},{"NoteNumber":57,"Velocity":52,"Duration":92030,"SoundDuration":92030,"Delta":106016275},{"NoteNumber":52,"Velocity":45,"Duration":92030,"SoundDuration":92030,"Delta":106016275},{"NoteNumber":49,"Velocity":46,"Duration":92030,"SoundDuration":92030,"Delta":106200335},{"NoteNumber":52,"Velocity":46,"Duration":92030,"SoundDuration":92030,"Delta":106200335},{"NoteNumber":57,"Velocity":55,"Duration":92030,"SoundDuration":92030,"Delta":106200335},{"NoteNumber":49,"Velocity":58,"Duration":365084,"SoundDuration":365084,"Delta":106384396},{"NoteNumber":52,"Velocity":58,"Duration":365084,"SoundDuration":365084,"Delta":106384396},{"NoteNumber":58,"Velocity":70,"Duration":365084,"SoundDuration":365084,"Delta":106384396},{"NoteNumber":61,"Velocity":74,"Duration":90915,"SoundDuration":90915,"Delta":106568134},{"NoteNumber":64,"Velocity":77,"Duration":90430,"SoundDuration":90430,"Delta":106659049},{"NoteNumber":67,"Velocity":81,"Duration":89953,"SoundDuration":89953,"Delta":106749480},{"NoteNumber":73,"Velocity":88,"Duration":89966,"SoundDuration":89966,"Delta":106839434},{"NoteNumber":76,"Velocity":93,"Duration":733776,"SoundDuration":733776,"Delta":106929400},{"NoteNumber":49,"Velocity":47,"Duration":91748,"SoundDuration":91748,"Delta":107112898},{"NoteNumber":58,"Velocity":56,"Duration":91748,"SoundDuration":91748,"Delta":107112898},{"NoteNumber":52,"Velocity":47,"Duration":91748,"SoundDuration":91748,"Delta":107112898},{"NoteNumber":49,"Velocity":49,"Duration":91748,"SoundDuration":91748,"Delta":107296395},{"NoteNumber":52,"Velocity":49,"Duration":91748,"SoundDuration":91748,"Delta":107296395},{"NoteNumber":58,"Velocity":58,"Duration":91748,"SoundDuration":91748,"Delta":107296395},{"NoteNumber":50,"Velocity":60,"Duration":364757,"SoundDuration":364757,"Delta":107479893},{"NoteNumber":54,"Velocity":60,"Duration":364757,"SoundDuration":364757,"Delta":107479893},{"NoteNumber":59,"Velocity":73,"Duration":364757,"SoundDuration":364757,"Delta":107479893},{"NoteNumber":66,"Velocity":78,"Duration":90958,"SoundDuration":90958,"Delta":107663177},{"NoteNumber":69,"Velocity":82,"Duration":90514,"SoundDuration":90514,"Delta":107754135},{"NoteNumber":74,"Velocity":85,"Duration":90093,"SoundDuration":90093,"Delta":107844650},{"NoteNumber":78,"Velocity":93,"Duration":89765,"SoundDuration":89765,"Delta":107934744},{"NoteNumber":81,"Velocity":98,"Duration":733989,"SoundDuration":733989,"Delta":108024509},{"NoteNumber":57,"Velocity":50,"Duration":91748,"SoundDuration":91748,"Delta":108208007},{"NoteNumber":50,"Velocity":50,"Duration":91748,"SoundDuration":91748,"Delta":108208007},{"NoteNumber":59,"Velocity":58,"Duration":91748,"SoundDuration":91748,"Delta":108208007},{"NoteNumber":54,"Velocity":50,"Duration":91748,"SoundDuration":91748,"Delta":108208007},{"NoteNumber":57,"Velocity":51,"Duration":91748,"SoundDuration":91748,"Delta":108391504},{"NoteNumber":50,"Velocity":51,"Duration":91748,"SoundDuration":91748,"Delta":108391504},{"NoteNumber":54,"Velocity":51,"Duration":91748,"SoundDuration":91748,"Delta":108391504},{"NoteNumber":59,"Velocity":61,"Duration":91748,"SoundDuration":91748,"Delta":108391504},{"NoteNumber":57,"Velocity":64,"Duration":365724,"SoundDuration":365724,"Delta":108575002},{"NoteNumber":51,"Velocity":64,"Duration":365724,"SoundDuration":365724,"Delta":108575002},{"NoteNumber":54,"Velocity":64,"Duration":365724,"SoundDuration":365724,"Delta":108575002},{"NoteNumber":60,"Velocity":77,"Duration":365724,"SoundDuration":365724,"Delta":108575002},{"NoteNumber":66,"Velocity":82,"Duration":91335,"SoundDuration":91335,"Delta":108758499},{"NoteNumber":69,"Velocity":86,"Duration":90891,"SoundDuration":90891,"Delta":108849834},{"NoteNumber":75,"Velocity":90,"Duration":90546,"SoundDuration":90546,"Delta":108940726},{"NoteNumber":78,"Velocity":98,"Duration":90219,"SoundDuration":90219,"Delta":109031273},{"NoteNumber":81,"Velocity":103,"Duration":731141,"SoundDuration":731141,"Delta":109121493},{"NoteNumber":57,"Velocity":52,"Duration":91468,"SoundDuration":91468,"Delta":109304033},{"NoteNumber":51,"Velocity":52,"Duration":91468,"SoundDuration":91468,"Delta":109304033},{"NoteNumber":60,"Velocity":62,"Duration":91468,"SoundDuration":91468,"Delta":109304033},{"NoteNumber":54,"Velocity":52,"Duration":91468,"SoundDuration":91468,"Delta":109304033},{"NoteNumber":57,"Velocity":54,"Duration":91469,"SoundDuration":91469,"Delta":109486971},{"NoteNumber":51,"Velocity":54,"Duration":91469,"SoundDuration":91469,"Delta":109486971},{"NoteNumber":54,"Velocity":54,"Duration":91469,"SoundDuration":91469,"Delta":109486971},{"NoteNumber":60,"Velocity":64,"Duration":91469,"SoundDuration":91469,"Delta":109486971},{"NoteNumber":57,"Velocity":67,"Duration":364127,"SoundDuration":364127,"Delta":109669909},{"NoteNumber":52,"Velocity":67,"Duration":364127,"SoundDuration":364127,"Delta":109669909},{"NoteNumber":61,"Velocity":81,"Duration":364127,"SoundDuration":364127,"Delta":109669909},{"NoteNumber":73,"Velocity":86,"Duration":90843,"SoundDuration":90843,"Delta":109852635},{"NoteNumber":76,"Velocity":90,"Duration":90558,"SoundDuration":90558,"Delta":109943478},{"NoteNumber":81,"Velocity":94,"Duration":90317,"SoundDuration":90317,"Delta":110034036},{"NoteNumber":85,"Velocity":98,"Duration":90098,"SoundDuration":90098,"Delta":110124354},{"NoteNumber":88,"Velocity":101,"Duration":91163,"SoundDuration":91163,"Delta":110214452},{"NoteNumber":85,"Velocity":94,"Duration":91190,"SoundDuration":91190,"Delta":110305615},{"NoteNumber":81,"Velocity":77,"Duration":91191,"SoundDuration":91191,"Delta":110396806},{"NoteNumber":76,"Velocity":63,"Duration":90231,"SoundDuration":90231,"Delta":110487997},{"NoteNumber":49,"Velocity":61,"Duration":67673,"SoundDuration":67673,"Delta":110487997},{"NoteNumber":57,"Velocity":73,"Duration":67673,"SoundDuration":67673,"Delta":110487997},{"NoteNumber":81,"Velocity":69,"Duration":96006,"SoundDuration":96006,"Delta":110578228},{"NoteNumber":57,"Velocity":73,"Duration":144009,"SoundDuration":144009,"Delta":110578228},{"NoteNumber":49,"Velocity":61,"Duration":144009,"SoundDuration":144009,"Delta":110578228},{"NoteNumber":76,"Velocity":67,"Duration":96006,"SoundDuration":96006,"Delta":110674235},{"NoteNumber":88,"Velocity":76,"Duration":92171,"SoundDuration":92171,"Delta":110770241},{"NoteNumber":49,"Velocity":63,"Duration":184342,"SoundDuration":184342,"Delta":110770241},{"NoteNumber":57,"Velocity":73,"Duration":184342,"SoundDuration":184342,"Delta":110770241},{"NoteNumber":85,"Velocity":67,"Duration":92171,"SoundDuration":92171,"Delta":110862412},{"NoteNumber":81,"Velocity":70,"Duration":92171,"SoundDuration":92171,"Delta":110954584},{"NoteNumber":59,"Velocity":69,"Duration":184342,"SoundDuration":184342,"Delta":110954584},{"NoteNumber":52,"Velocity":57,"Duration":184342,"SoundDuration":184342,"Delta":110954584},{"NoteNumber":76,"Velocity":63,"Duration":92171,"SoundDuration":92171,"Delta":111046755},{"NoteNumber":81,"Velocity":69,"Duration":96512,"SoundDuration":96512,"Delta":111138927},{"NoteNumber":57,"Velocity":57,"Duration":96512,"SoundDuration":96512,"Delta":111138927},{"NoteNumber":61,"Velocity":69,"Duration":96512,"SoundDuration":96512,"Delta":111138927},{"NoteNumber":76,"Velocity":67,"Duration":96512,"SoundDuration":96512,"Delta":111235440},{"NoteNumber":88,"Velocity":76,"Duration":92171,"SoundDuration":92171,"Delta":111331952},{"NoteNumber":57,"Velocity":64,"Duration":368685,"SoundDuration":368685,"Delta":111331952},{"NoteNumber":61,"Velocity":75,"Duration":368685,"SoundDuration":368685,"Delta":111331952},{"NoteNumber":85,"Velocity":67,"Duration":92171,"SoundDuration":92171,"Delta":111424124},{"NoteNumber":81,"Velocity":70,"Duration":92171,"SoundDuration":92171,"Delta":111516295},{"NoteNumber":76,"Velocity":63,"Duration":92171,"SoundDuration":92171,"Delta":111608467},{"NoteNumber":81,"Velocity":69,"Duration":92171,"SoundDuration":92171,"Delta":111700638},{"NoteNumber":57,"Velocity":63,"Duration":138257,"SoundDuration":138257,"Delta":111700638},{"NoteNumber":61,"Velocity":73,"Duration":138257,"SoundDuration":138257,"Delta":111700638},{"NoteNumber":76,"Velocity":67,"Duration":92171,"SoundDuration":92171,"Delta":111792810},{"NoteNumber":88,"Velocity":76,"Duration":92171,"SoundDuration":92171,"Delta":111884981},{"NoteNumber":57,"Velocity":66,"Duration":184342,"SoundDuration":184342,"Delta":111884981},{"NoteNumber":61,"Velocity":78,"Duration":184342,"SoundDuration":184342,"Delta":111884981},{"NoteNumber":85,"Velocity":67,"Duration":92171,"SoundDuration":92171,"Delta":111977153},{"NoteNumber":81,"Velocity":70,"Duration":92171,"SoundDuration":92171,"Delta":112069324},{"NoteNumber":62,"Velocity":73,"Duration":184343,"SoundDuration":184343,"Delta":112069324},{"NoteNumber":59,"Velocity":63,"Duration":184343,"SoundDuration":184343,"Delta":112069324},{"NoteNumber":76,"Velocity":63,"Duration":92171,"SoundDuration":92171,"Delta":112161496},{"NoteNumber":81,"Velocity":69,"Duration":95135,"SoundDuration":95135,"Delta":112253667},{"NoteNumber":61,"Velocity":63,"Duration":95135,"SoundDuration":95135,"Delta":112253667},{"NoteNumber":64,"Velocity":73,"Duration":95135,"SoundDuration":95135,"Delta":112253667},{"NoteNumber":76,"Velocity":67,"Duration":95135,"SoundDuration":95135,"Delta":112348803},{"NoteNumber":88,"Velocity":76,"Duration":92171,"SoundDuration":92171,"Delta":112443938},{"NoteNumber":61,"Velocity":66,"Duration":184342,"SoundDuration":184342,"Delta":112443938},{"NoteNumber":64,"Velocity":78,"Duration":184342,"SoundDuration":184342,"Delta":112443938},{"NoteNumber":85,"Velocity":67,"Duration":92171,"SoundDuration":92171,"Delta":112536110},{"NoteNumber":81,"Velocity":70,"Duration":92171,"SoundDuration":92171,"Delta":112628281},{"NoteNumber":62,"Velocity":73,"Duration":184342,"SoundDuration":184342,"Delta":112628281},{"NoteNumber":59,"Velocity":63,"Duration":184342,"SoundDuration":184342,"Delta":112628281},{"NoteNumber":76,"Velocity":63,"Duration":92171,"SoundDuration":92171,"Delta":112720453},{"NoteNumber":81,"Velocity":69,"Duration":95135,"SoundDuration":95135,"Delta":112812624},{"NoteNumber":57,"Velocity":63,"Duration":95135,"SoundDuration":95135,"Delta":112812624},{"NoteNumber":61,"Velocity":73,"Duration":95135,"SoundDuration":95135,"Delta":112812624},{"NoteNumber":76,"Velocity":67,"Duration":95135,"SoundDuration":95135,"Delta":112907760},{"NoteNumber":88,"Velocity":76,"Duration":92171,"SoundDuration":92171,"Delta":113002895},{"NoteNumber":52,"Velocity":66,"Duration":743299,"SoundDuration":743299,"Delta":113002895},{"NoteNumber":56,"Velocity":66,"Duration":743299,"SoundDuration":743299,"Delta":113002895},{"NoteNumber":59,"Velocity":78,"Duration":743299,"SoundDuration":743299,"Delta":113002895},{"NoteNumber":86,"Velocity":67,"Duration":92171,"SoundDuration":92171,"Delta":113095067},{"NoteNumber":83,"Velocity":70,"Duration":92171,"SoundDuration":92171,"Delta":113187238},{"NoteNumber":76,"Velocity":63,"Duration":92171,"SoundDuration":92171,"Delta":113279410},{"NoteNumber":83,"Velocity":69,"Duration":95135,"SoundDuration":95135,"Delta":113371581},{"NoteNumber":76,"Velocity":67,"Duration":95135,"SoundDuration":95135,"Delta":113466717},{"NoteNumber":88,"Velocity":76,"Duration":92171,"SoundDuration":92171,"Delta":113561852},{"NoteNumber":86,"Velocity":67,"Duration":92171,"SoundDuration":92171,"Delta":113654024},{"NoteNumber":83,"Velocity":70,"Duration":92171,"SoundDuration":92171,"Delta":113746195},{"NoteNumber":52,"Velocity":63,"Duration":92171,"SoundDuration":92171,"Delta":113746195},{"NoteNumber":59,"Velocity":73,"Duration":92171,"SoundDuration":92171,"Delta":113746195},{"NoteNumber":56,"Velocity":63,"Duration":92171,"SoundDuration":92171,"Delta":113746195},{"NoteNumber":76,"Velocity":63,"Duration":92171,"SoundDuration":92171,"Delta":113838367},{"NoteNumber":83,"Velocity":69,"Duration":95135,"SoundDuration":95135,"Delta":113930538},{"NoteNumber":52,"Velocity":63,"Duration":95135,"SoundDuration":95135,"Delta":113930538},{"NoteNumber":56,"Velocity":63,"Duration":95135,"SoundDuration":95135,"Delta":113930538},{"NoteNumber":59,"Velocity":73,"Duration":95135,"SoundDuration":95135,"Delta":113930538},{"NoteNumber":76,"Velocity":67,"Duration":95135,"SoundDuration":95135,"Delta":114025674},{"NoteNumber":88,"Velocity":76,"Duration":92171,"SoundDuration":92171,"Delta":114120809},{"NoteNumber":52,"Velocity":66,"Duration":368685,"SoundDuration":368685,"Delta":114120809},{"NoteNumber":56,"Velocity":66,"Duration":368685,"SoundDuration":368685,"Delta":114120809},{"NoteNumber":59,"Velocity":78,"Duration":368685,"SoundDuration":368685,"Delta":114120809},{"NoteNumber":86,"Velocity":67,"Duration":92171,"SoundDuration":92171,"Delta":114212981},{"NoteNumber":83,"Velocity":70,"Duration":92171,"SoundDuration":92171,"Delta":114305152},{"NoteNumber":76,"Velocity":63,"Duration":92171,"SoundDuration":92171,"Delta":114397324},{"NoteNumber":83,"Velocity":69,"Duration":95135,"SoundDuration":95135,"Delta":114489495},{"NoteNumber":76,"Velocity":67,"Duration":95135,"SoundDuration":95135,"Delta":114584631},{"NoteNumber":88,"Velocity":76,"Duration":92171,"SoundDuration":92171,"Delta":114679766},{"NoteNumber":28,"Velocity":75,"Duration":184342,"SoundDuration":184342,"Delta":114679766},{"NoteNumber":40,"Velocity":78,"Duration":184342,"SoundDuration":184342,"Delta":114679766},{"NoteNumber":85,"Velocity":67,"Duration":92171,"SoundDuration":92171,"Delta":114771938},{"NoteNumber":81,"Velocity":70,"Duration":110156,"SoundDuration":110156,"Delta":114864109},{"NoteNumber":76,"Velocity":63,"Duration":90231,"SoundDuration":90231,"Delta":114974266},{"NoteNumber":49,"Velocity":61,"Duration":67673,"SoundDuration":67673,"Delta":114974266},{"NoteNumber":57,"Velocity":73,"Duration":67673,"SoundDuration":67673,"Delta":114974266},{"NoteNumber":81,"Velocity":69,"Duration":96006,"SoundDuration":96006,"Delta":115064497},{"NoteNumber":57,"Velocity":73,"Duration":144009,"SoundDuration":144009,"Delta":115064497},{"NoteNumber":49,"Velocity":61,"Duration":144009,"SoundDuration":144009,"Delta":115064497},{"NoteNumber":76,"Velocity":67,"Duration":96006,"SoundDuration":96006,"Delta":115160503},{"NoteNumber":88,"Velocity":76,"Duration":92171,"SoundDuration":92171,"Delta":115256509},{"NoteNumber":49,"Velocity":63,"Duration":184342,"SoundDuration":184342,"Delta":115256509},{"NoteNumber":57,"Velocity":73,"Duration":184342,"SoundDuration":184342,"Delta":115256509},{"NoteNumber":85,"Velocity":67,"Duration":92171,"SoundDuration":92171,"Delta":115348681},{"NoteNumber":81,"Velocity":70,"Duration":92171,"SoundDuration":92171,"Delta":115440852},{"NoteNumber":59,"Velocity":69,"Duration":184342,"SoundDuration":184342,"Delta":115440852},{"NoteNumber":52,"Velocity":57,"Duration":184342,"SoundDuration":184342,"Delta":115440852},{"NoteNumber":76,"Velocity":63,"Duration":92171,"SoundDuration":92171,"Delta":115533024},{"NoteNumber":81,"Velocity":69,"Duration":96512,"SoundDuration":96512,"Delta":115625195},{"NoteNumber":57,"Velocity":57,"Duration":96512,"SoundDuration":96512,"Delta":115625195},{"NoteNumber":61,"Velocity":69,"Duration":96512,"SoundDuration":96512,"Delta":115625195},{"NoteNumber":76,"Velocity":67,"Duration":96512,"SoundDuration":96512,"Delta":115721708},{"NoteNumber":88,"Velocity":76,"Duration":92171,"SoundDuration":92171,"Delta":115818221},{"NoteNumber":57,"Velocity":64,"Duration":368685,"SoundDuration":368685,"Delta":115818221},{"NoteNumber":61,"Velocity":75,"Duration":368685,"SoundDuration":368685,"Delta":115818221},{"NoteNumber":85,"Velocity":67,"Duration":92171,"SoundDuration":92171,"Delta":115910392},{"NoteNumber":81,"Velocity":70,"Duration":92171,"SoundDuration":92171,"Delta":116002564},{"NoteNumber":76,"Velocity":63,"Duration":92171,"SoundDuration":92171,"Delta":116094735},{"NoteNumber":81,"Velocity":69,"Duration":92171,"SoundDuration":92171,"Delta":116186907},{"NoteNumber":57,"Velocity":63,"Duration":138257,"SoundDuration":138257,"Delta":116186907},{"NoteNumber":61,"Velocity":73,"Duration":138257,"SoundDuration":138257,"Delta":116186907},{"NoteNumber":76,"Velocity":67,"Duration":92171,"SoundDuration":92171,"Delta":116279078},{"NoteNumber":88,"Velocity":76,"Duration":92171,"SoundDuration":92171,"Delta":116371250},{"NoteNumber":57,"Velocity":66,"Duration":184342,"SoundDuration":184342,"Delta":116371250},{"NoteNumber":61,"Velocity":78,"Duration":184342,"SoundDuration":184342,"Delta":116371250},{"NoteNumber":85,"Velocity":67,"Duration":92171,"SoundDuration":92171,"Delta":116463421},{"NoteNumber":81,"Velocity":70,"Duration":92171,"SoundDuration":92171,"Delta":116555593},{"NoteNumber":62,"Velocity":73,"Duration":184343,"SoundDuration":184343,"Delta":116555593},{"NoteNumber":59,"Velocity":63,"Duration":184343,"SoundDuration":184343,"Delta":116555593},{"NoteNumber":76,"Velocity":63,"Duration":92171,"SoundDuration":92171,"Delta":116647764},{"NoteNumber":81,"Velocity":69,"Duration":95135,"SoundDuration":95135,"Delta":116739936},{"NoteNumber":61,"Velocity":63,"Duration":95135,"SoundDuration":95135,"Delta":116739936},{"NoteNumber":64,"Velocity":73,"Duration":95135,"SoundDuration":95135,"Delta":116739936},{"NoteNumber":76,"Velocity":67,"Duration":95135,"SoundDuration":95135,"Delta":116835071},{"NoteNumber":88,"Velocity":76,"Duration":92171,"SoundDuration":92171,"Delta":116930207},{"NoteNumber":61,"Velocity":66,"Duration":184342,"SoundDuration":184342,"Delta":116930207},{"NoteNumber":64,"Velocity":78,"Duration":184342,"SoundDuration":184342,"Delta":116930207},{"NoteNumber":85,"Velocity":67,"Duration":92171,"SoundDuration":92171,"Delta":117022378},{"NoteNumber":81,"Velocity":70,"Duration":92171,"SoundDuration":92171,"Delta":117114550},{"NoteNumber":62,"Velocity":73,"Duration":184342,"SoundDuration":184342,"Delta":117114550},{"NoteNumber":59,"Velocity":63,"Duration":184342,"SoundDuration":184342,"Delta":117114550},{"NoteNumber":76,"Velocity":63,"Duration":92171,"SoundDuration":92171,"Delta":117206721},{"NoteNumber":81,"Velocity":69,"Duration":95135,"SoundDuration":95135,"Delta":117298893},{"NoteNumber":57,"Velocity":63,"Duration":95135,"SoundDuration":95135,"Delta":117298893},{"NoteNumber":61,"Velocity":73,"Duration":95135,"SoundDuration":95135,"Delta":117298893},{"NoteNumber":76,"Velocity":67,"Duration":95135,"SoundDuration":95135,"Delta":117394028},{"NoteNumber":88,"Velocity":76,"Duration":92171,"SoundDuration":92171,"Delta":117489164},{"NoteNumber":52,"Velocity":66,"Duration":743299,"SoundDuration":743299,"Delta":117489164},{"NoteNumber":56,"Velocity":66,"Duration":743299,"SoundDuration":743299,"Delta":117489164},{"NoteNumber":59,"Velocity":78,"Duration":743299,"SoundDuration":743299,"Delta":117489164},{"NoteNumber":86,"Velocity":67,"Duration":92171,"SoundDuration":92171,"Delta":117581335},{"NoteNumber":83,"Velocity":70,"Duration":92171,"SoundDuration":92171,"Delta":117673507},{"NoteNumber":76,"Velocity":63,"Duration":92171,"SoundDuration":92171,"Delta":117765678},{"NoteNumber":83,"Velocity":69,"Duration":95135,"SoundDuration":95135,"Delta":117857850},{"NoteNumber":76,"Velocity":67,"Duration":95135,"SoundDuration":95135,"Delta":117952985},{"NoteNumber":88,"Velocity":76,"Duration":92171,"SoundDuration":92171,"Delta":118048121},{"NoteNumber":86,"Velocity":67,"Duration":92171,"SoundDuration":92171,"Delta":118140292},{"NoteNumber":83,"Velocity":70,"Duration":92171,"SoundDuration":92171,"Delta":118232464},{"NoteNumber":52,"Velocity":63,"Duration":92171,"SoundDuration":92171,"Delta":118232464},{"NoteNumber":59,"Velocity":73,"Duration":92171,"SoundDuration":92171,"Delta":118232464},{"NoteNumber":56,"Velocity":63,"Duration":92171,"SoundDuration":92171,"Delta":118232464},{"NoteNumber":76,"Velocity":63,"Duration":92171,"SoundDuration":92171,"Delta":118324635},{"NoteNumber":83,"Velocity":69,"Duration":95135,"SoundDuration":95135,"Delta":118416807},{"NoteNumber":52,"Velocity":63,"Duration":95135,"SoundDuration":95135,"Delta":118416807},{"NoteNumber":56,"Velocity":63,"Duration":95135,"SoundDuration":95135,"Delta":118416807},{"NoteNumber":59,"Velocity":73,"Duration":95135,"SoundDuration":95135,"Delta":118416807},{"NoteNumber":76,"Velocity":67,"Duration":95135,"SoundDuration":95135,"Delta":118511942},{"NoteNumber":88,"Velocity":76,"Duration":92171,"SoundDuration":92171,"Delta":118607078},{"NoteNumber":52,"Velocity":66,"Duration":368685,"SoundDuration":368685,"Delta":118607078},{"NoteNumber":56,"Velocity":66,"Duration":368685,"SoundDuration":368685,"Delta":118607078},{"NoteNumber":59,"Velocity":78,"Duration":368685,"SoundDuration":368685,"Delta":118607078},{"NoteNumber":86,"Velocity":67,"Duration":92171,"SoundDuration":92171,"Delta":118699249},{"NoteNumber":83,"Velocity":70,"Duration":92171,"SoundDuration":92171,"Delta":118791421},{"NoteNumber":76,"Velocity":63,"Duration":92171,"SoundDuration":92171,"Delta":118883592},{"NoteNumber":83,"Velocity":69,"Duration":95135,"SoundDuration":95135,"Delta":118975764},{"NoteNumber":76,"Velocity":67,"Duration":95135,"SoundDuration":95135,"Delta":119070899},{"NoteNumber":88,"Velocity":76,"Duration":92171,"SoundDuration":92171,"Delta":119166035},{"NoteNumber":33,"Velocity":75,"Duration":184342,"SoundDuration":184342,"Delta":119166035},{"NoteNumber":45,"Velocity":78,"Duration":184342,"SoundDuration":184342,"Delta":119166035},{"NoteNumber":85,"Velocity":67,"Duration":92171,"SoundDuration":92171,"Delta":119258206},{"NoteNumber":83,"Velocity":70,"Duration":103684,"SoundDuration":103684,"Delta":119350378},{"NoteNumber":81,"Velocity":63,"Duration":90231,"SoundDuration":90231,"Delta":119454062},{"NoteNumber":49,"Velocity":61,"Duration":67673,"SoundDuration":67673,"Delta":119454062},{"NoteNumber":57,"Velocity":73,"Duration":67673,"SoundDuration":67673,"Delta":119454062},{"NoteNumber":83,"Velocity":69,"Duration":96006,"SoundDuration":96006,"Delta":119544293},{"NoteNumber":57,"Velocity":73,"Duration":144009,"SoundDuration":144009,"Delta":119544293},{"NoteNumber":49,"Velocity":61,"Duration":144009,"SoundDuration":144009,"Delta":119544293},{"NoteNumber":81,"Velocity":67,"Duration":96006,"SoundDuration":96006,"Delta":119640299},{"NoteNumber":88,"Velocity":76,"Duration":92171,"SoundDuration":92171,"Delta":119736306},{"NoteNumber":49,"Velocity":63,"Duration":184342,"SoundDuration":184342,"Delta":119736306},{"NoteNumber":57,"Velocity":73,"Duration":184342,"SoundDuration":184342,"Delta":119736306},{"NoteNumber":85,"Velocity":67,"Duration":92171,"SoundDuration":92171,"Delta":119828477},{"NoteNumber":83,"Velocity":70,"Duration":92171,"SoundDuration":92171,"Delta":119920649},{"NoteNumber":59,"Velocity":69,"Duration":184342,"SoundDuration":184342,"Delta":119920649},{"NoteNumber":52,"Velocity":57,"Duration":184342,"SoundDuration":184342,"Delta":119920649},{"NoteNumber":81,"Velocity":63,"Duration":92171,"SoundDuration":92171,"Delta":120012820},{"NoteNumber":83,"Velocity":69,"Duration":96512,"SoundDuration":96512,"Delta":120104992},{"NoteNumber":57,"Velocity":57,"Duration":96512,"SoundDuration":96512,"Delta":120104992},{"NoteNumber":61,"Velocity":69,"Duration":96512,"SoundDuration":96512,"Delta":120104992},{"NoteNumber":81,"Velocity":67,"Duration":96512,"SoundDuration":96512,"Delta":120201504},{"NoteNumber":88,"Velocity":76,"Duration":92171,"SoundDuration":92171,"Delta":120298017},{"NoteNumber":57,"Velocity":64,"Duration":368685,"SoundDuration":368685,"Delta":120298017},{"NoteNumber":61,"Velocity":75,"Duration":368685,"SoundDuration":368685,"Delta":120298017},{"NoteNumber":85,"Velocity":67,"Duration":92171,"SoundDuration":92171,"Delta":120390189},{"NoteNumber":83,"Velocity":70,"Duration":92171,"SoundDuration":92171,"Delta":120482360},{"NoteNumber":81,"Velocity":63,"Duration":92171,"SoundDuration":92171,"Delta":120574532},{"NoteNumber":83,"Velocity":69,"Duration":92171,"SoundDuration":92171,"Delta":120666703},{"NoteNumber":57,"Velocity":63,"Duration":138257,"SoundDuration":138257,"Delta":120666703},{"NoteNumber":61,"Velocity":73,"Duration":138257,"SoundDuration":138257,"Delta":120666703},{"NoteNumber":81,"Velocity":67,"Duration":92171,"SoundDuration":92171,"Delta":120758875},{"NoteNumber":88,"Velocity":76,"Duration":92171,"SoundDuration":92171,"Delta":120851046},{"NoteNumber":57,"Velocity":66,"Duration":184342,"SoundDuration":184342,"Delta":120851046},{"NoteNumber":61,"Velocity":78,"Duration":184342,"SoundDuration":184342,"Delta":120851046},{"NoteNumber":85,"Velocity":67,"Duration":92171,"SoundDuration":92171,"Delta":120943218},{"NoteNumber":83,"Velocity":70,"Duration":92171,"SoundDuration":92171,"Delta":121035389},{"NoteNumber":62,"Velocity":73,"Duration":184343,"SoundDuration":184343,"Delta":121035389},{"NoteNumber":59,"Velocity":63,"Duration":184343,"SoundDuration":184343,"Delta":121035389},{"NoteNumber":81,"Velocity":63,"Duration":92171,"SoundDuration":92171,"Delta":121127561},{"NoteNumber":83,"Velocity":69,"Duration":93069,"SoundDuration":93069,"Delta":121219732},{"NoteNumber":61,"Velocity":63,"Duration":93069,"SoundDuration":93069,"Delta":121219732},{"NoteNumber":64,"Velocity":73,"Duration":93069,"SoundDuration":93069,"Delta":121219732},{"NoteNumber":81,"Velocity":67,"Duration":93069,"SoundDuration":93069,"Delta":121312802},{"NoteNumber":88,"Velocity":76,"Duration":93069,"SoundDuration":93069,"Delta":121405871},{"NoteNumber":61,"Velocity":78,"Duration":286025,"SoundDuration":286025,"Delta":121405871},{"NoteNumber":64,"Velocity":78,"Duration":286025,"SoundDuration":286025,"Delta":121405871},{"NoteNumber":85,"Velocity":67,"Duration":93069,"SoundDuration":93069,"Delta":121498941},{"NoteNumber":83,"Velocity":56,"Duration":99886,"SoundDuration":99886,"Delta":121592010},{"NoteNumber":81,"Velocity":53,"Duration":99886,"SoundDuration":99886,"Delta":121691897},{"NoteNumber":62,"Velocity":68,"Duration":99886,"SoundDuration":99886,"Delta":121691897},{"NoteNumber":66,"Velocity":68,"Duration":99886,"SoundDuration":99886,"Delta":121691897},{"NoteNumber":83,"Velocity":58,"Duration":110971,"SoundDuration":110971,"Delta":121791784},{"NoteNumber":62,"Velocity":64,"Duration":239539,"SoundDuration":239539,"Delta":121791784},{"NoteNumber":66,"Velocity":64,"Duration":239539,"SoundDuration":239539,"Delta":121791784},{"NoteNumber":81,"Velocity":56,"Duration":128567,"SoundDuration":128567,"Delta":121902755},{"NoteNumber":93,"Velocity":71,"Duration":91647,"SoundDuration":91647,"Delta":122031323},{"NoteNumber":69,"Velocity":61,"Duration":1099772,"SoundDuration":1099772,"Delta":122031323},{"NoteNumber":66,"Velocity":51,"Duration":1099772,"SoundDuration":1099772,"Delta":122031323},{"NoteNumber":57,"Velocity":51,"Duration":1099772,"SoundDuration":1099772,"Delta":122031323},{"NoteNumber":90,"Velocity":56,"Duration":91647,"SoundDuration":91647,"Delta":122122970},{"NoteNumber":83,"Velocity":59,"Duration":91647,"SoundDuration":91647,"Delta":122214618},{"NoteNumber":81,"Velocity":53,"Duration":91647,"SoundDuration":91647,"Delta":122306266},{"NoteNumber":83,"Velocity":58,"Duration":91647,"SoundDuration":91647,"Delta":122397914},{"NoteNumber":81,"Velocity":56,"Duration":91647,"SoundDuration":91647,"Delta":122489561},{"NoteNumber":93,"Velocity":64,"Duration":91647,"SoundDuration":91647,"Delta":122581209},{"NoteNumber":90,"Velocity":56,"Duration":91647,"SoundDuration":91647,"Delta":122672857},{"NoteNumber":83,"Velocity":59,"Duration":91647,"SoundDuration":91647,"Delta":122764505},{"NoteNumber":81,"Velocity":53,"Duration":91647,"SoundDuration":91647,"Delta":122856152},{"NoteNumber":83,"Velocity":58,"Duration":91647,"SoundDuration":91647,"Delta":122947800},{"NoteNumber":81,"Velocity":56,"Duration":91647,"SoundDuration":91647,"Delta":123039448},{"NoteNumber":93,"Velocity":71,"Duration":91647,"SoundDuration":91647,"Delta":123131096},{"NoteNumber":66,"Velocity":56,"Duration":366590,"SoundDuration":366590,"Delta":123131096},{"NoteNumber":62,"Velocity":47,"Duration":366590,"SoundDuration":366590,"Delta":123131096},{"NoteNumber":57,"Velocity":47,"Duration":366590,"SoundDuration":366590,"Delta":123131096},{"NoteNumber":90,"Velocity":56,"Duration":91647,"SoundDuration":91647,"Delta":123222743},{"NoteNumber":83,"Velocity":59,"Duration":91647,"SoundDuration":91647,"Delta":123314391},{"NoteNumber":81,"Velocity":53,"Duration":91647,"SoundDuration":91647,"Delta":123406039},{"NoteNumber":83,"Velocity":58,"Duration":91647,"SoundDuration":91647,"Delta":123497687},{"NoteNumber":81,"Velocity":56,"Duration":91647,"SoundDuration":91647,"Delta":123589334},{"NoteNumber":93,"Velocity":64,"Duration":91647,"SoundDuration":91647,"Delta":123680982},{"NoteNumber":90,"Velocity":56,"Duration":91647,"SoundDuration":91647,"Delta":123772630},{"NoteNumber":83,"Velocity":59,"Duration":91647,"SoundDuration":91647,"Delta":123864278},{"NoteNumber":66,"Velocity":49,"Duration":174130,"SoundDuration":174130,"Delta":123864278},{"NoteNumber":62,"Velocity":41,"Duration":174130,"SoundDuration":174130,"Delta":123864278},{"NoteNumber":81,"Velocity":53,"Duration":91647,"SoundDuration":91647,"Delta":123955925},{"NoteNumber":83,"Velocity":58,"Duration":94238,"SoundDuration":94238,"Delta":124047573},{"NoteNumber":66,"Velocity":49,"Duration":187233,"SoundDuration":187233,"Delta":124047573},{"NoteNumber":62,"Velocity":41,"Duration":187233,"SoundDuration":187233,"Delta":124047573},{"NoteNumber":81,"Velocity":56,"Duration":103327,"SoundDuration":103327,"Delta":124141812},{"NoteNumber":93,"Velocity":71,"Duration":91647,"SoundDuration":91647,"Delta":124245139},{"NoteNumber":57,"Velocity":51,"Duration":916477,"SoundDuration":916477,"Delta":124245139},{"NoteNumber":66,"Velocity":51,"Duration":916477,"SoundDuration":916477,"Delta":124245139},{"NoteNumber":69,"Velocity":61,"Duration":916477,"SoundDuration":916477,"Delta":124245139},{"NoteNumber":90,"Velocity":56,"Duration":91647,"SoundDuration":91647,"Delta":124336787},{"NoteNumber":86,"Velocity":58,"Duration":91647,"SoundDuration":91647,"Delta":124428435},{"NoteNumber":81,"Velocity":51,"Duration":91647,"SoundDuration":91647,"Delta":124520082},{"NoteNumber":86,"Velocity":56,"Duration":91647,"SoundDuration":91647,"Delta":124611730},{"NoteNumber":81,"Velocity":53,"Duration":91647,"SoundDuration":91647,"Delta":124703378},{"NoteNumber":93,"Velocity":60,"Duration":91647,"SoundDuration":91647,"Delta":124795026},{"NoteNumber":90,"Velocity":53,"Duration":91647,"SoundDuration":91647,"Delta":124886673},{"NoteNumber":86,"Velocity":55,"Duration":91647,"SoundDuration":91647,"Delta":124978321},{"NoteNumber":81,"Velocity":49,"Duration":91647,"SoundDuration":91647,"Delta":125069969},{"NoteNumber":86,"Velocity":53,"Duration":94238,"SoundDuration":94238,"Delta":125161617},{"NoteNumber":66,"Velocity":46,"Duration":198282,"SoundDuration":198282,"Delta":125161617},{"NoteNumber":62,"Velocity":39,"Duration":198282,"SoundDuration":198282,"Delta":125161617},{"NoteNumber":81,"Velocity":50,"Duration":104043,"SoundDuration":104043,"Delta":125255855},{"NoteNumber":93,"Velocity":63,"Duration":91647,"SoundDuration":91647,"Delta":125359899},{"NoteNumber":57,"Velocity":45,"Duration":549886,"SoundDuration":549886,"Delta":125359899},{"NoteNumber":66,"Velocity":45,"Duration":733181,"SoundDuration":733181,"Delta":125359899},{"NoteNumber":69,"Velocity":54,"Duration":733181,"SoundDuration":733181,"Delta":125359899},{"NoteNumber":90,"Velocity":50,"Duration":91647,"SoundDuration":91647,"Delta":125451547},{"NoteNumber":86,"Velocity":52,"Duration":91647,"SoundDuration":91647,"Delta":125543195},{"NoteNumber":81,"Velocity":46,"Duration":91647,"SoundDuration":91647,"Delta":125634842},{"NoteNumber":86,"Velocity":50,"Duration":91647,"SoundDuration":91647,"Delta":125726490},{"NoteNumber":81,"Velocity":48,"Duration":91647,"SoundDuration":91647,"Delta":125818138},{"NoteNumber":93,"Velocity":54,"Duration":91647,"SoundDuration":91647,"Delta":125909786},{"NoteNumber":90,"Velocity":47,"Duration":91647,"SoundDuration":91647,"Delta":126001433},{"NoteNumber":86,"Velocity":49,"Duration":91647,"SoundDuration":91647,"Delta":126093081},{"NoteNumber":64,"Velocity":39,"Duration":183295,"SoundDuration":183295,"Delta":126093081},{"NoteNumber":68,"Velocity":42,"Duration":183295,"SoundDuration":183295,"Delta":126093081},{"NoteNumber":81,"Velocity":43,"Duration":91647,"SoundDuration":91647,"Delta":126184729},{"NoteNumber":86,"Velocity":47,"Duration":91647,"SoundDuration":91647,"Delta":126276377},{"NoteNumber":66,"Velocity":41,"Duration":183295,"SoundDuration":183295,"Delta":126276377},{"NoteNumber":62,"Velocity":35,"Duration":183295,"SoundDuration":183295,"Delta":126276377},{"NoteNumber":81,"Velocity":45,"Duration":91647,"SoundDuration":91647,"Delta":126368024},{"NoteNumber":93,"Velocity":56,"Duration":91647,"SoundDuration":91647,"Delta":126459672},{"NoteNumber":57,"Velocity":31,"Duration":366590,"SoundDuration":366590,"Delta":126459672},{"NoteNumber":61,"Velocity":31,"Duration":366590,"SoundDuration":366590,"Delta":126459672},{"NoteNumber":64,"Velocity":37,"Duration":366590,"SoundDuration":366590,"Delta":126459672},{"NoteNumber":88,"Velocity":44,"Duration":91647,"SoundDuration":91647,"Delta":126551320},{"NoteNumber":85,"Velocity":47,"Duration":91647,"SoundDuration":91647,"Delta":126642968},{"NoteNumber":81,"Velocity":42,"Duration":91647,"SoundDuration":91647,"Delta":126734615},{"NoteNumber":85,"Velocity":46,"Duration":92781,"SoundDuration":92781,"Delta":126826263},{"NoteNumber":81,"Velocity":44,"Duration":92781,"SoundDuration":92781,"Delta":126919045},{"NoteNumber":90,"Velocity":56,"Duration":88147,"SoundDuration":88147,"Delta":127011826},{"NoteNumber":68,"Velocity":29,"Duration":542885,"SoundDuration":542885,"Delta":127011826},{"NoteNumber":74,"Velocity":40,"Duration":542885,"SoundDuration":542885,"Delta":127011826},{"NoteNumber":88,"Velocity":44,"Duration":88147,"SoundDuration":88147,"Delta":127099973},{"NoteNumber":90,"Velocity":47,"Duration":91647,"SoundDuration":91647,"Delta":127188121},{"NoteNumber":88,"Velocity":42,"Duration":91647,"SoundDuration":91647,"Delta":127279768},{"NoteNumber":90,"Velocity":46,"Duration":91647,"SoundDuration":91647,"Delta":127371416},{"NoteNumber":88,"Velocity":44,"Duration":91647,"SoundDuration":91647,"Delta":127463064},{"NoteNumber":93,"Velocity":56,"Duration":91647,"SoundDuration":91647,"Delta":127554712},{"NoteNumber":69,"Velocity":31,"Duration":366590,"SoundDuration":366590,"Delta":127554712},{"NoteNumber":73,"Velocity":37,"Duration":366590,"SoundDuration":366590,"Delta":127554712},{"NoteNumber":88,"Velocity":44,"Duration":91647,"SoundDuration":91647,"Delta":127646359},{"NoteNumber":85,"Velocity":47,"Duration":91647,"SoundDuration":91647,"Delta":127738007},{"NoteNumber":81,"Velocity":42,"Duration":91647,"SoundDuration":91647,"Delta":127829655},{"NoteNumber":85,"Velocity":46,"Duration":92781,"SoundDuration":92781,"Delta":127921303},{"NoteNumber":81,"Velocity":44,"Duration":92781,"SoundDuration":92781,"Delta":128014084},{"NoteNumber":90,"Velocity":56,"Duration":88406,"SoundDuration":88406,"Delta":128106866},{"NoteNumber":68,"Velocity":31,"Duration":543405,"SoundDuration":543405,"Delta":128106866},{"NoteNumber":62,"Velocity":31,"Duration":543405,"SoundDuration":543405,"Delta":128106866},{"NoteNumber":71,"Velocity":44,"Duration":543405,"SoundDuration":543405,"Delta":128106866},{"NoteNumber":88,"Velocity":44,"Duration":88407,"SoundDuration":88407,"Delta":128195273},{"NoteNumber":90,"Velocity":47,"Duration":91647,"SoundDuration":91647,"Delta":128283680},{"NoteNumber":88,"Velocity":42,"Duration":91647,"SoundDuration":91647,"Delta":128375327},{"NoteNumber":90,"Velocity":46,"Duration":91647,"SoundDuration":91647,"Delta":128466975},{"NoteNumber":88,"Velocity":44,"Duration":91647,"SoundDuration":91647,"Delta":128558623},{"NoteNumber":93,"Velocity":56,"Duration":91647,"SoundDuration":91647,"Delta":128650271},{"NoteNumber":61,"Velocity":31,"Duration":551581,"SoundDuration":551581,"Delta":128650271},{"NoteNumber":64,"Velocity":31,"Duration":551581,"SoundDuration":551581,"Delta":128650271},{"NoteNumber":69,"Velocity":37,"Duration":551581,"SoundDuration":551581,"Delta":128650271},{"NoteNumber":88,"Velocity":44,"Duration":91647,"SoundDuration":91647,"Delta":128741918},{"NoteNumber":85,"Velocity":47,"Duration":91647,"SoundDuration":91647,"Delta":128833566},{"NoteNumber":81,"Velocity":42,"Duration":91647,"SoundDuration":91647,"Delta":128925214},{"NoteNumber":85,"Velocity":45,"Duration":92495,"SoundDuration":92495,"Delta":129016862},{"NoteNumber":81,"Velocity":43,"Duration":92495,"SoundDuration":92495,"Delta":129109357},{"NoteNumber":90,"Velocity":55,"Duration":88406,"SoundDuration":88406,"Delta":129201853},{"NoteNumber":56,"Velocity":30,"Duration":542289,"SoundDuration":542289,"Delta":129201853},{"NoteNumber":62,"Velocity":42,"Duration":542289,"SoundDuration":542289,"Delta":129201853},{"NoteNumber":88,"Velocity":43,"Duration":88407,"SoundDuration":88407,"Delta":129290260},{"NoteNumber":90,"Velocity":46,"Duration":91368,"SoundDuration":91368,"Delta":129378667},{"NoteNumber":88,"Velocity":41,"Duration":91368,"SoundDuration":91368,"Delta":129470035},{"NoteNumber":90,"Velocity":45,"Duration":91368,"SoundDuration":91368,"Delta":129561404},{"NoteNumber":88,"Velocity":42,"Duration":91368,"SoundDuration":91368,"Delta":129652773},{"NoteNumber":93,"Velocity":54,"Duration":91368,"SoundDuration":91368,"Delta":129744142},{"NoteNumber":57,"Velocity":30,"Duration":550466,"SoundDuration":550466,"Delta":129744142},{"NoteNumber":61,"Velocity":35,"Duration":550466,"SoundDuration":550466,"Delta":129744142},{"NoteNumber":88,"Velocity":42,"Duration":91368,"SoundDuration":91368,"Delta":129835510},{"NoteNumber":85,"Velocity":45,"Duration":91368,"SoundDuration":91368,"Delta":129926879},{"NoteNumber":81,"Velocity":40,"Duration":91368,"SoundDuration":91368,"Delta":130018248},{"NoteNumber":85,"Velocity":44,"Duration":92495,"SoundDuration":92495,"Delta":130109617},{"NoteNumber":81,"Velocity":42,"Duration":92495,"SoundDuration":92495,"Delta":130202112},{"NoteNumber":90,"Velocity":53,"Duration":88406,"SoundDuration":88406,"Delta":130294608},{"NoteNumber":52,"Velocity":27,"Duration":176814,"SoundDuration":176814,"Delta":130294608},{"NoteNumber":62,"Velocity":38,"Duration":176814,"SoundDuration":176814,"Delta":130294608},{"NoteNumber":56,"Velocity":27,"Duration":176986,"SoundDuration":176986,"Delta":130299765},{"NoteNumber":88,"Velocity":41,"Duration":88407,"SoundDuration":88407,"Delta":130383015},{"NoteNumber":90,"Velocity":44,"Duration":91368,"SoundDuration":91368,"Delta":130471422},{"NoteNumber":88,"Velocity":39,"Duration":91368,"SoundDuration":91368,"Delta":130562790},{"NoteNumber":90,"Velocity":43,"Duration":91368,"SoundDuration":91368,"Delta":130654159},{"NoteNumber":88,"Velocity":41,"Duration":91368,"SoundDuration":91368,"Delta":130745528},{"NoteNumber":45,"Velocity":29,"Duration":274106,"SoundDuration":274106,"Delta":130745528},{"NoteNumber":52,"Velocity":29,"Duration":228421,"SoundDuration":228421,"Delta":130791212},{"NoteNumber":93,"Velocity":52,"Duration":91368,"SoundDuration":91368,"Delta":130836897},{"NoteNumber":61,"Velocity":34,"Duration":182737,"SoundDuration":182737,"Delta":130836897},{"NoteNumber":88,"Velocity":41,"Duration":91368,"SoundDuration":91368,"Delta":130928265},{"NoteNumber":85,"Velocity":43,"Duration":91368,"SoundDuration":91368,"Delta":131019634},{"NoteNumber":81,"Velocity":39,"Duration":91368,"SoundDuration":91368,"Delta":131111003},{"NoteNumber":85,"Velocity":42,"Duration":91368,"SoundDuration":91368,"Delta":131202372},{"NoteNumber":81,"Velocity":40,"Duration":91368,"SoundDuration":91368,"Delta":131293740},{"NoteNumber":88,"Velocity":51,"Duration":91368,"SoundDuration":91368,"Delta":131385109},{"NoteNumber":85,"Velocity":40,"Duration":91368,"SoundDuration":91368,"Delta":131476478},{"NoteNumber":83,"Velocity":43,"Duration":89195,"SoundDuration":89195,"Delta":131567847},{"NoteNumber":69,"Velocity":26,"Duration":133793,"SoundDuration":133793,"Delta":131567847},{"NoteNumber":73,"Velocity":36,"Duration":133793,"SoundDuration":133793,"Delta":131567847},{"NoteNumber":81,"Velocity":38,"Duration":89195,"SoundDuration":89195,"Delta":131657042},{"NoteNumber":83,"Velocity":41,"Duration":89195,"SoundDuration":89195,"Delta":131746238},{"NoteNumber":69,"Velocity":26,"Duration":136167,"SoundDuration":136167,"Delta":131746238},{"NoteNumber":73,"Velocity":26,"Duration":136167,"SoundDuration":136167,"Delta":131746238},{"NoteNumber":81,"Velocity":40,"Duration":93943,"SoundDuration":93943,"Delta":131835433},{"NoteNumber":88,"Velocity":50,"Duration":91368,"SoundDuration":91368,"Delta":131929377},{"NoteNumber":69,"Velocity":27,"Duration":365475,"SoundDuration":365475,"Delta":131929377},{"NoteNumber":73,"Velocity":33,"Duration":365475,"SoundDuration":365475,"Delta":131929377},{"NoteNumber":85,"Velocity":39,"Duration":91368,"SoundDuration":91368,"Delta":132020746},{"NoteNumber":83,"Velocity":42,"Duration":91368,"SoundDuration":91368,"Delta":132112114},{"NoteNumber":81,"Velocity":37,"Duration":91368,"SoundDuration":91368,"Delta":132203483},{"NoteNumber":83,"Velocity":40,"Duration":91368,"SoundDuration":91368,"Delta":132294852},{"NoteNumber":81,"Velocity":39,"Duration":91368,"SoundDuration":91368,"Delta":132386221},{"NoteNumber":88,"Velocity":49,"Duration":91368,"SoundDuration":91368,"Delta":132477589},{"NoteNumber":85,"Velocity":39,"Duration":91368,"SoundDuration":91368,"Delta":132568958},{"NoteNumber":83,"Velocity":41,"Duration":88668,"SoundDuration":88668,"Delta":132660327},{"NoteNumber":61,"Velocity":25,"Duration":133002,"SoundDuration":133002,"Delta":132660327},{"NoteNumber":69,"Velocity":35,"Duration":133002,"SoundDuration":133002,"Delta":132660327},{"NoteNumber":81,"Velocity":36,"Duration":88668,"SoundDuration":88668,"Delta":132748995},{"NoteNumber":83,"Velocity":40,"Duration":88668,"SoundDuration":88668,"Delta":132837663},{"NoteNumber":61,"Velocity":25,"Duration":135493,"SoundDuration":135493,"Delta":132837663},{"NoteNumber":69,"Velocity":25,"Duration":135493,"SoundDuration":135493,"Delta":132837663},{"NoteNumber":81,"Velocity":38,"Duration":93650,"SoundDuration":93650,"Delta":132926332},{"NoteNumber":88,"Velocity":48,"Duration":91368,"SoundDuration":91368,"Delta":133019982},{"NoteNumber":61,"Velocity":26,"Duration":365475,"SoundDuration":365475,"Delta":133019982},{"NoteNumber":69,"Velocity":32,"Duration":365475,"SoundDuration":365475,"Delta":133019982},{"NoteNumber":85,"Velocity":38,"Duration":91368,"SoundDuration":91368,"Delta":133111351},{"NoteNumber":83,"Velocity":40,"Duration":91368,"SoundDuration":91368,"Delta":133202720},{"NoteNumber":81,"Velocity":36,"Duration":91368,"SoundDuration":91368,"Delta":133294088},{"NoteNumber":83,"Velocity":39,"Duration":91368,"SoundDuration":91368,"Delta":133385457},{"NoteNumber":81,"Velocity":37,"Duration":91368,"SoundDuration":91368,"Delta":133476826},{"NoteNumber":88,"Velocity":47,"Duration":91368,"SoundDuration":91368,"Delta":133568195},{"NoteNumber":85,"Velocity":37,"Duration":91368,"SoundDuration":91368,"Delta":133659563},{"NoteNumber":83,"Velocity":39,"Duration":90269,"SoundDuration":90269,"Delta":133750932},{"NoteNumber":57,"Velocity":24,"Duration":135403,"SoundDuration":135403,"Delta":133750932},{"NoteNumber":61,"Velocity":34,"Duration":135403,"SoundDuration":135403,"Delta":133750932},{"NoteNumber":81,"Velocity":35,"Duration":90269,"SoundDuration":90269,"Delta":133841201},{"NoteNumber":83,"Velocity":39,"Duration":91091,"SoundDuration":91091,"Delta":133931470},{"NoteNumber":57,"Velocity":24,"Duration":137916,"SoundDuration":137916,"Delta":133931470},{"NoteNumber":61,"Velocity":24,"Duration":137916,"SoundDuration":137916,"Delta":133931470},{"NoteNumber":81,"Velocity":45,"Duration":93650,"SoundDuration":93650,"Delta":134022561},{"NoteNumber":88,"Velocity":49,"Duration":91368,"SoundDuration":91368,"Delta":134116212},{"NoteNumber":57,"Velocity":26,"Duration":365475,"SoundDuration":365475,"Delta":134116212},{"NoteNumber":61,"Velocity":31,"Duration":365475,"SoundDuration":365475,"Delta":134116212},{"NoteNumber":85,"Velocity":46,"Duration":91368,"SoundDuration":91368,"Delta":134207581},{"NoteNumber":83,"Velocity":49,"Duration":91368,"SoundDuration":91368,"Delta":134298949},{"NoteNumber":81,"Velocity":53,"Duration":91368,"SoundDuration":91368,"Delta":134390318},{"NoteNumber":83,"Velocity":55,"Duration":91368,"SoundDuration":91368,"Delta":134481687},{"NoteNumber":85,"Velocity":57,"Duration":91368,"SoundDuration":91368,"Delta":134573056},{"NoteNumber":86,"Velocity":61,"Duration":92181,"SoundDuration":92181,"Delta":134664424},{"NoteNumber":52,"Velocity":41,"Duration":365349,"SoundDuration":365349,"Delta":134664424},{"NoteNumber":59,"Velocity":48,"Duration":365349,"SoundDuration":365349,"Delta":134664424},{"NoteNumber":88,"Velocity":65,"Duration":91617,"SoundDuration":91617,"Delta":134756605},{"NoteNumber":90,"Velocity":68,"Duration":91038,"SoundDuration":91038,"Delta":134848223},{"NoteNumber":92,"Velocity":70,"Duration":90512,"SoundDuration":90512,"Delta":134939262},{"NoteNumber":93,"Velocity":73,"Duration":89989,"SoundDuration":89989,"Delta":135029774},{"NoteNumber":95,"Velocity":77,"Duration":89432,"SoundDuration":89432,"Delta":135119764},{"NoteNumber":97,"Velocity":78,"Duration":193961,"SoundDuration":193961,"Delta":135209197},{"NoteNumber":57,"Velocity":56,"Duration":193961,"SoundDuration":193961,"Delta":135209197},{"NoteNumber":49,"Velocity":51,"Duration":193961,"SoundDuration":193961,"Delta":135209197},{"NoteNumber":61,"Velocity":25,"Duration":339432,"SoundDuration":339432,"Delta":136227495},{"NoteNumber":76,"Velocity":41,"Duration":290942,"SoundDuration":290942,"Delta":136275985},{"NoteNumber":64,"Velocity":25,"Duration":290942,"SoundDuration":290942,"Delta":136275985},{"NoteNumber":69,"Velocity":25,"Duration":242451,"SoundDuration":242451,"Delta":136275985},{"NoteNumber":81,"Velocity":41,"Duration":242451,"SoundDuration":242451,"Delta":136324475},{"NoteNumber":88,"Velocity":49,"Duration":193961,"SoundDuration":193961,"Delta":136372966},{"NoteNumber":73,"Velocity":39,"Duration":193961,"SoundDuration":193961,"Delta":136372966},{"NoteNumber":57,"Velocity":34,"Duration":96980,"SoundDuration":96980,"Delta":137536735},{"NoteNumber":45,"Velocity":33,"Duration":96980,"SoundDuration":96980,"Delta":137536735},{"NoteNumber":33,"Velocity":28,"Duration":96980,"SoundDuration":96980,"Delta":137536735}],"license":{"name":"Creative Commons Attribution-ShareAlike 3.0 Germany","url":"http://creativecommons.org/licenses/by-sa/3.0/de/deed.en","text":"The MIDI, audio (MP3, OGG) and video files of Bernd Krueger are licensed under the cc-by-sa Germany License. This means that you can use and adapt the files, as long as you attribute the copyright holder.\n\nName: Bernd Krueger\nSource: http://www.piano-midi.de\n\nThe distribution or public playback of the files is only allowed under identical license conditions.\n\nThe scores are open source.","attribution":"MIDI files by Bernd Krueger (piano-midi.de)","attributionUrl":"http://www.piano-midi.de"}}