{"title":"Mendelssohn: Lieder ohne Worte Opus 30 Nr. 2","artist":"Mendelssohn","durationMs":123433,"midiSha256":"d2938dbae1a44d50036dae699c82a8337767e1a0996cc4fd0ae0a32ed7b53bed","midiObject":[{"NoteNumber":73,"Velocity":43,"Duration":84090,"SoundDuration":84090,"Delta":0},{"NoteNumber":77,"Velocity":43,"Duration":84090,"SoundDuration":84090,"Delta":0},{"NoteNumber":46,"Velocity":35,"Duration":406013,"SoundDuration":406013,"Delta":84090},{"NoteNumber":65,"Velocity":40,"Duration":321922,"SoundDuration":321922,"Delta":168180},{"NoteNumber":73,"Velocity":50,"Duration":160961,"SoundDuration":160961,"Delta":168180},{"NoteNumber":77,"Velocity":50,"Duration":160961,"SoundDuration":160961,"Delta":168180},{"NoteNumber":61,"Velocity":40,"Duration":321922,"SoundDuration":321922,"Delta":168180},{"NoteNumber":73,"Velocity":45,"Duration":160961,"SoundDuration":160961,"Delta":329141},{"NoteNumber":70,"Velocity":45,"Duration":160961,"SoundDuration":160961,"Delta":329141},{"NoteNumber":77,"Velocity":45,"Duration":86019,"SoundDuration":86019,"Delta":490103},{"NoteNumber":73,"Velocity":45,"Duration":86019,"SoundDuration":86019,"Delta":490103},{"NoteNumber":46,"Velocity":35,"Duration":407942,"SoundDuration":407942,"Delta":576122},{"NoteNumber":65,"Velocity":40,"Duration":321922,"SoundDuration":321922,"Delta":662141},{"NoteNumber":73,"Velocity":50,"Duration":160961,"SoundDuration":160961,"Delta":662141},{"NoteNumber":77,"Velocity":50,"Duration":160961,"SoundDuration":160961,"Delta":662141},{"NoteNumber":61,"Velocity":40,"Duration":321922,"SoundDuration":321922,"Delta":662141},{"NoteNumber":73,"Velocity":46,"Duration":160961,"SoundDuration":160961,"Delta":823102},{"NoteNumber":70,"Velocity":46,"Duration":160961,"SoundDuration":160961,"Delta":823102},{"NoteNumber":77,"Velocity":46,"Duration":85043,"SoundDuration":85043,"Delta":984064},{"NoteNumber":73,"Velocity":46,"Duration":85043,"SoundDuration":85043,"Delta":984064},{"NoteNumber":46,"Velocity":35,"Duration":405248,"SoundDuration":405248,"Delta":1069107},{"NoteNumber":65,"Velocity":40,"Duration":320205,"SoundDuration":320205,"Delta":1154151},{"NoteNumber":73,"Velocity":50,"Duration":160102,"SoundDuration":160102,"Delta":1154151},{"NoteNumber":77,"Velocity":50,"Duration":160102,"SoundDuration":160102,"Delta":1154151},{"NoteNumber":61,"Velocity":40,"Duration":320205,"SoundDuration":320205,"Delta":1154151},{"NoteNumber":73,"Velocity":45,"Duration":160102,"SoundDuration":160102,"Delta":1314253},{"NoteNumber":70,"Velocity":45,"Duration":160102,"SoundDuration":160102,"Delta":1314253},{"NoteNumber":77,"Velocity":45,"Duration":85528,"SoundDuration":85528,"Delta":1474356},{"NoteNumber":73,"Velocity":45,"Duration":85528,"SoundDuration":85528,"Delta":1474356},{"NoteNumber":46,"Velocity":35,"Duration":414512,"SoundDuration":414512,"Delta":1559885},{"NoteNumber":65,"Velocity":40,"Duration":328983,"SoundDuration":328983,"Delta":1645413},{"NoteNumber":73,"Velocity":50,"Duration":164491,"SoundDuration":164491,"Delta":1645413},{"NoteNumber":77,"Velocity":50,"Duration":164491,"SoundDuration":164491,"Delta":1645413},{"NoteNumber":61,"Velocity":40,"Duration":328983,"SoundDuration":328983,"Delta":1645413},{"NoteNumber":73,"Velocity":46,"Duration":164491,"SoundDuration":164491,"Delta":1809905},{"NoteNumber":70,"Velocity":46,"Duration":164491,"SoundDuration":164491,"Delta":1809905},{"NoteNumber":77,"Velocity":46,"Duration":88038,"SoundDuration":88038,"Delta":1974397},{"NoteNumber":73,"Velocity":46,"Duration":88038,"SoundDuration":88038,"Delta":1974397},{"NoteNumber":46,"Velocity":35,"Duration":420669,"SoundDuration":420669,"Delta":2062435},{"NoteNumber":66,"Velocity":71,"Duration":831577,"SoundDuration":831577,"Delta":2150474},{"NoteNumber":73,"Velocity":50,"Duration":166315,"SoundDuration":166315,"Delta":2150474},{"NoteNumber":61,"Velocity":40,"Duration":332631,"SoundDuration":332631,"Delta":2150474},{"NoteNumber":70,"Velocity":45,"Duration":166315,"SoundDuration":166315,"Delta":2316789},{"NoteNumber":73,"Velocity":45,"Duration":83157,"SoundDuration":83157,"Delta":2483105},{"NoteNumber":46,"Velocity":35,"Duration":415788,"SoundDuration":415788,"Delta":2566263},{"NoteNumber":73,"Velocity":50,"Duration":166315,"SoundDuration":166315,"Delta":2649420},{"NoteNumber":61,"Velocity":40,"Duration":332631,"SoundDuration":332631,"Delta":2649420},{"NoteNumber":70,"Velocity":46,"Duration":166315,"SoundDuration":166315,"Delta":2815736},{"NoteNumber":65,"Velocity":60,"Duration":168180,"SoundDuration":168180,"Delta":2982051},{"NoteNumber":73,"Velocity":46,"Duration":84090,"SoundDuration":84090,"Delta":2982051},{"NoteNumber":46,"Velocity":35,"Duration":416721,"SoundDuration":416721,"Delta":3066141},{"NoteNumber":64,"Velocity":72,"Duration":748419,"SoundDuration":748419,"Delta":3150231},{"NoteNumber":73,"Velocity":50,"Duration":166315,"SoundDuration":166315,"Delta":3150231},{"NoteNumber":61,"Velocity":40,"Duration":332631,"SoundDuration":332631,"Delta":3150231},{"NoteNumber":70,"Velocity":45,"Duration":166315,"SoundDuration":166315,"Delta":3316547},{"NoteNumber":73,"Velocity":45,"Duration":83157,"SoundDuration":83157,"Delta":3482863},{"NoteNumber":46,"Velocity":35,"Duration":415788,"SoundDuration":415788,"Delta":3566020},{"NoteNumber":73,"Velocity":50,"Duration":166315,"SoundDuration":166315,"Delta":3649178},{"NoteNumber":61,"Velocity":40,"Duration":332631,"SoundDuration":332631,"Delta":3649178},{"NoteNumber":70,"Velocity":46,"Duration":166315,"SoundDuration":166315,"Delta":3815494},{"NoteNumber":73,"Velocity":61,"Duration":83157,"SoundDuration":83157,"Delta":3981809},{"NoteNumber":64,"Velocity":60,"Duration":166315,"SoundDuration":166315,"Delta":3981809},{"NoteNumber":65,"Velocity":75,"Duration":647318,"SoundDuration":647318,"Delta":4148125},{"NoteNumber":45,"Velocity":49,"Duration":161829,"SoundDuration":161829,"Delta":4148125},{"NoteNumber":60,"Velocity":54,"Duration":80914,"SoundDuration":80914,"Delta":4309954},{"NoteNumber":63,"Velocity":54,"Duration":80914,"SoundDuration":80914,"Delta":4309954},{"NoteNumber":53,"Velocity":40,"Duration":80914,"SoundDuration":80914,"Delta":4309954},{"NoteNumber":60,"Velocity":54,"Duration":80914,"SoundDuration":80914,"Delta":4471784},{"NoteNumber":63,"Velocity":54,"Duration":80914,"SoundDuration":80914,"Delta":4471784},{"NoteNumber":53,"Velocity":42,"Duration":80914,"SoundDuration":80914,"Delta":4471784},{"NoteNumber":60,"Velocity":54,"Duration":80914,"SoundDuration":80914,"Delta":4633614},{"NoteNumber":63,"Velocity":54,"Duration":80914,"SoundDuration":80914,"Delta":4633614},{"NoteNumber":41,"Velocity":42,"Duration":161829,"SoundDuration":161829,"Delta":4633614},{"NoteNumber":58,"Velocity":54,"Duration":80914,"SoundDuration":80914,"Delta":4795443},{"NoteNumber":67,"Velocity":56,"Duration":80914,"SoundDuration":80914,"Delta":4795443},{"NoteNumber":53,"Velocity":47,"Duration":80914,"SoundDuration":80914,"Delta":4795443},{"NoteNumber":60,"Velocity":54,"Duration":80914,"SoundDuration":80914,"Delta":4957273},{"NoteNumber":69,"Velocity":61,"Duration":80914,"SoundDuration":80914,"Delta":4957273},{"NoteNumber":53,"Velocity":50,"Duration":80914,"SoundDuration":80914,"Delta":4957273},{"NoteNumber":72,"Velocity":64,"Duration":80914,"SoundDuration":80914,"Delta":5038188},{"NoteNumber":61,"Velocity":61,"Duration":80914,"SoundDuration":80914,"Delta":5119103},{"NoteNumber":70,"Velocity":73,"Duration":80914,"SoundDuration":80914,"Delta":5119103},{"NoteNumber":46,"Velocity":54,"Duration":161829,"SoundDuration":161829,"Delta":5119103},{"NoteNumber":60,"Velocity":54,"Duration":80914,"SoundDuration":80914,"Delta":5280933},{"NoteNumber":69,"Velocity":63,"Duration":80914,"SoundDuration":80914,"Delta":5280933},{"NoteNumber":53,"Velocity":43,"Duration":80914,"SoundDuration":80914,"Delta":5280933},{"NoteNumber":61,"Velocity":53,"Duration":83621,"SoundDuration":83621,"Delta":5442763},{"NoteNumber":70,"Velocity":63,"Duration":83621,"SoundDuration":83621,"Delta":5442763},{"NoteNumber":53,"Velocity":46,"Duration":83621,"SoundDuration":83621,"Delta":5442763},{"NoteNumber":65,"Velocity":60,"Duration":81353,"SoundDuration":81353,"Delta":5610005},{"NoteNumber":73,"Velocity":71,"Duration":81353,"SoundDuration":81353,"Delta":5610005},{"NoteNumber":39,"Velocity":58,"Duration":162707,"SoundDuration":162707,"Delta":5610005},{"NoteNumber":63,"Velocity":53,"Duration":81353,"SoundDuration":81353,"Delta":5772713},{"NoteNumber":72,"Velocity":63,"Duration":81353,"SoundDuration":81353,"Delta":5772713},{"NoteNumber":54,"Velocity":48,"Duration":81353,"SoundDuration":81353,"Delta":5772713},{"NoteNumber":61,"Velocity":58,"Duration":86515,"SoundDuration":86515,"Delta":5935420},{"NoteNumber":70,"Velocity":70,"Duration":86515,"SoundDuration":86515,"Delta":5935420},{"NoteNumber":54,"Velocity":48,"Duration":86515,"SoundDuration":86515,"Delta":5935420},{"NoteNumber":61,"Velocity":70,"Duration":992007,"SoundDuration":992007,"Delta":6108450},{"NoteNumber":70,"Velocity":82,"Duration":992007,"SoundDuration":992007,"Delta":6108450},{"NoteNumber":41,"Velocity":60,"Duration":163594,"SoundDuration":163594,"Delta":6108450},{"NoteNumber":53,"Velocity":49,"Duration":81797,"SoundDuration":81797,"Delta":6272045},{"NoteNumber":53,"Velocity":46,"Duration":81797,"SoundDuration":81797,"Delta":6435640},{"NoteNumber":64,"Velocity":66,"Duration":501223,"SoundDuration":501223,"Delta":6599235},{"NoteNumber":53,"Velocity":55,"Duration":81797,"SoundDuration":81797,"Delta":6599235},{"NoteNumber":53,"Velocity":46,"Duration":81797,"SoundDuration":81797,"Delta":6762829},{"NoteNumber":53,"Velocity":46,"Duration":87017,"SoundDuration":87017,"Delta":6926424},{"NoteNumber":60,"Velocity":67,"Duration":488122,"SoundDuration":488122,"Delta":7100458},{"NoteNumber":65,"Velocity":67,"Duration":488122,"SoundDuration":488122,"Delta":7100458},{"NoteNumber":69,"Velocity":80,"Duration":488122,"SoundDuration":488122,"Delta":7100458},{"NoteNumber":53,"Velocity":56,"Duration":162707,"SoundDuration":162707,"Delta":7100458},{"NoteNumber":54,"Velocity":46,"Duration":162707,"SoundDuration":162707,"Delta":7263166},{"NoteNumber":53,"Velocity":48,"Duration":81353,"SoundDuration":81353,"Delta":7425873},{"NoteNumber":53,"Velocity":52,"Duration":81353,"SoundDuration":81353,"Delta":7588581},{"NoteNumber":53,"Velocity":46,"Duration":91252,"SoundDuration":91252,"Delta":7751288},{"NoteNumber":73,"Velocity":43,"Duration":84090,"SoundDuration":84090,"Delta":7933792},{"NoteNumber":77,"Velocity":43,"Duration":84090,"SoundDuration":84090,"Delta":7933792},{"NoteNumber":53,"Velocity":40,"Duration":84090,"SoundDuration":84090,"Delta":7933792},{"NoteNumber":46,"Velocity":35,"Duration":402595,"SoundDuration":402595,"Delta":8017882},{"NoteNumber":65,"Velocity":40,"Duration":318505,"SoundDuration":318505,"Delta":8101972},{"NoteNumber":73,"Velocity":50,"Duration":159252,"SoundDuration":159252,"Delta":8101972},{"NoteNumber":77,"Velocity":50,"Duration":159252,"SoundDuration":159252,"Delta":8101972},{"NoteNumber":61,"Velocity":40,"Duration":318505,"SoundDuration":318505,"Delta":8101972},{"NoteNumber":73,"Velocity":45,"Duration":159252,"SoundDuration":159252,"Delta":8261225},{"NoteNumber":70,"Velocity":45,"Duration":159252,"SoundDuration":159252,"Delta":8261225},{"NoteNumber":77,"Velocity":45,"Duration":84564,"SoundDuration":84564,"Delta":8420477},{"NoteNumber":73,"Velocity":45,"Duration":84564,"SoundDuration":84564,"Delta":8420477},{"NoteNumber":46,"Velocity":36,"Duration":398076,"SoundDuration":398076,"Delta":8505042},{"NoteNumber":65,"Velocity":41,"Duration":313512,"SoundDuration":313512,"Delta":8589606},{"NoteNumber":73,"Velocity":51,"Duration":156756,"SoundDuration":156756,"Delta":8589606},{"NoteNumber":77,"Velocity":51,"Duration":156756,"SoundDuration":156756,"Delta":8589606},{"NoteNumber":61,"Velocity":41,"Duration":313512,"SoundDuration":313512,"Delta":8589606},{"NoteNumber":73,"Velocity":48,"Duration":156756,"SoundDuration":156756,"Delta":8746362},{"NoteNumber":70,"Velocity":48,"Duration":156756,"SoundDuration":156756,"Delta":8746362},{"NoteNumber":77,"Velocity":48,"Duration":83621,"SoundDuration":83621,"Delta":8903118},{"NoteNumber":73,"Velocity":48,"Duration":83621,"SoundDuration":83621,"Delta":8903118},{"NoteNumber":46,"Velocity":37,"Duration":392294,"SoundDuration":392294,"Delta":8986740},{"NoteNumber":65,"Velocity":42,"Duration":308673,"SoundDuration":308673,"Delta":9070361},{"NoteNumber":73,"Velocity":53,"Duration":154336,"SoundDuration":154336,"Delta":9070361},{"NoteNumber":77,"Velocity":53,"Duration":154336,"SoundDuration":154336,"Delta":9070361},{"NoteNumber":61,"Velocity":42,"Duration":308673,"SoundDuration":308673,"Delta":9070361},{"NoteNumber":73,"Velocity":50,"Duration":154336,"SoundDuration":154336,"Delta":9224698},{"NoteNumber":70,"Velocity":50,"Duration":154336,"SoundDuration":154336,"Delta":9224698},{"NoteNumber":77,"Velocity":55,"Duration":83621,"SoundDuration":83621,"Delta":9379035},{"NoteNumber":73,"Velocity":55,"Duration":83621,"SoundDuration":83621,"Delta":9379035},{"NoteNumber":46,"Velocity":44,"Duration":405544,"SoundDuration":405544,"Delta":9462656},{"NoteNumber":65,"Velocity":53,"Duration":321922,"SoundDuration":321922,"Delta":9546277},{"NoteNumber":73,"Velocity":66,"Duration":160961,"SoundDuration":160961,"Delta":9546277},{"NoteNumber":77,"Velocity":66,"Duration":160961,"SoundDuration":160961,"Delta":9546277},{"NoteNumber":61,"Velocity":53,"Duration":321922,"SoundDuration":321922,"Delta":9546277},{"NoteNumber":73,"Velocity":63,"Duration":160961,"SoundDuration":160961,"Delta":9707239},{"NoteNumber":70,"Velocity":63,"Duration":160961,"SoundDuration":160961,"Delta":9707239},{"NoteNumber":77,"Velocity":68,"Duration":90155,"SoundDuration":90155,"Delta":9868200},{"NoteNumber":73,"Velocity":68,"Duration":90155,"SoundDuration":90155,"Delta":9868200},{"NoteNumber":68,"Velocity":58,"Duration":493475,"SoundDuration":493475,"Delta":10048511},{"NoteNumber":77,"Velocity":66,"Duration":493475,"SoundDuration":493475,"Delta":10048511},{"NoteNumber":80,"Velocity":82,"Duration":493475,"SoundDuration":493475,"Delta":10048511},{"NoteNumber":51,"Velocity":69,"Duration":493475,"SoundDuration":493475,"Delta":10048511},{"NoteNumber":58,"Velocity":49,"Duration":82245,"SoundDuration":82245,"Delta":10213002},{"NoteNumber":58,"Velocity":46,"Duration":82245,"SoundDuration":82245,"Delta":10377494},{"NoteNumber":66,"Velocity":56,"Duration":324594,"SoundDuration":324594,"Delta":10541986},{"NoteNumber":75,"Velocity":56,"Duration":324594,"SoundDuration":324594,"Delta":10541986},{"NoteNumber":78,"Velocity":66,"Duration":324594,"SoundDuration":324594,"Delta":10541986},{"NoteNumber":53,"Velocity":60,"Duration":324594,"SoundDuration":324594,"Delta":10541986},{"NoteNumber":58,"Velocity":55,"Duration":82245,"SoundDuration":82245,"Delta":10541986},{"NoteNumber":58,"Velocity":46,"Duration":80051,"SoundDuration":80051,"Delta":10706478},{"NoteNumber":65,"Velocity":56,"Duration":86019,"SoundDuration":86019,"Delta":10866580},{"NoteNumber":73,"Velocity":56,"Duration":86019,"SoundDuration":86019,"Delta":10866580},{"NoteNumber":77,"Velocity":66,"Duration":86019,"SoundDuration":86019,"Delta":10866580},{"NoteNumber":54,"Velocity":60,"Duration":172038,"SoundDuration":172038,"Delta":10866580},{"NoteNumber":58,"Velocity":46,"Duration":86019,"SoundDuration":86019,"Delta":10866580},{"NoteNumber":65,"Velocity":58,"Duration":490784,"SoundDuration":490784,"Delta":11038618},{"NoteNumber":73,"Velocity":67,"Duration":490784,"SoundDuration":490784,"Delta":11038618},{"NoteNumber":77,"Velocity":82,"Duration":490784,"SoundDuration":490784,"Delta":11038618},{"NoteNumber":56,"Velocity":60,"Duration":245392,"SoundDuration":245392,"Delta":11038618},{"NoteNumber":56,"Velocity":49,"Duration":149961,"SoundDuration":149961,"Delta":11202213},{"NoteNumber":56,"Velocity":46,"Duration":81797,"SoundDuration":81797,"Delta":11365808},{"NoteNumber":63,"Velocity":56,"Duration":327189,"SoundDuration":327189,"Delta":11529402},{"NoteNumber":72,"Velocity":56,"Duration":327189,"SoundDuration":327189,"Delta":11529402},{"NoteNumber":75,"Velocity":66,"Duration":327189,"SoundDuration":327189,"Delta":11529402},{"NoteNumber":54,"Velocity":60,"Duration":355862,"SoundDuration":355862,"Delta":11529402},{"NoteNumber":56,"Velocity":55,"Duration":81797,"SoundDuration":81797,"Delta":11529402},{"NoteNumber":56,"Velocity":46,"Duration":81797,"SoundDuration":81797,"Delta":11692997},{"NoteNumber":56,"Velocity":46,"Duration":86019,"SoundDuration":86019,"Delta":11856592},{"NoteNumber":65,"Velocity":58,"Duration":493475,"SoundDuration":493475,"Delta":12028630},{"NoteNumber":68,"Velocity":66,"Duration":992514,"SoundDuration":992514,"Delta":12028630},{"NoteNumber":77,"Velocity":82,"Duration":493475,"SoundDuration":493475,"Delta":12028630},{"NoteNumber":53,"Velocity":49,"Duration":992514,"SoundDuration":992514,"Delta":12028630},{"NoteNumber":56,"Velocity":56,"Duration":992514,"SoundDuration":992514,"Delta":12028630},{"NoteNumber":73,"Velocity":69,"Duration":321922,"SoundDuration":321922,"Delta":12522105},{"NoteNumber":61,"Velocity":55,"Duration":321922,"SoundDuration":321922,"Delta":12522105},{"NoteNumber":72,"Velocity":65,"Duration":132837,"SoundDuration":132837,"Delta":12844028},{"NoteNumber":60,"Velocity":52,"Duration":132837,"SoundDuration":132837,"Delta":12844028},{"NoteNumber":68,"Velocity":69,"Duration":325414,"SoundDuration":325414,"Delta":13021145},{"NoteNumber":72,"Velocity":69,"Duration":325414,"SoundDuration":325414,"Delta":13021145},{"NoteNumber":54,"Velocity":49,"Duration":1006937,"SoundDuration":1006937,"Delta":13021145},{"NoteNumber":60,"Velocity":55,"Duration":325414,"SoundDuration":325414,"Delta":13021145},{"NoteNumber":66,"Velocity":65,"Duration":126846,"SoundDuration":126846,"Delta":13346560},{"NoteNumber":70,"Velocity":65,"Duration":126846,"SoundDuration":126846,"Delta":13346560},{"NoteNumber":58,"Velocity":52,"Duration":126846,"SoundDuration":126846,"Delta":13346560},{"NoteNumber":73,"Velocity":69,"Duration":329890,"SoundDuration":329890,"Delta":13515688},{"NoteNumber":61,"Velocity":55,"Duration":329890,"SoundDuration":329890,"Delta":13515688},{"NoteNumber":66,"Velocity":65,"Duration":136877,"SoundDuration":136877,"Delta":13845578},{"NoteNumber":70,"Velocity":65,"Duration":136877,"SoundDuration":136877,"Delta":13845578},{"NoteNumber":58,"Velocity":52,"Duration":136877,"SoundDuration":136877,"Delta":13845578},{"NoteNumber":66,"Velocity":69,"Duration":328983,"SoundDuration":328983,"Delta":14028082},{"NoteNumber":70,"Velocity":69,"Duration":328983,"SoundDuration":328983,"Delta":14028082},{"NoteNumber":49,"Velocity":49,"Duration":1001768,"SoundDuration":1001768,"Delta":14028082},{"NoteNumber":58,"Velocity":55,"Duration":328983,"SoundDuration":328983,"Delta":14028082},{"NoteNumber":65,"Velocity":65,"Duration":128292,"SoundDuration":128292,"Delta":14357066},{"NoteNumber":68,"Velocity":65,"Duration":128292,"SoundDuration":128292,"Delta":14357066},{"NoteNumber":56,"Velocity":52,"Duration":128292,"SoundDuration":128292,"Delta":14357066},{"NoteNumber":73,"Velocity":69,"Duration":334485,"SoundDuration":334485,"Delta":14528123},{"NoteNumber":61,"Velocity":55,"Duration":334485,"SoundDuration":334485,"Delta":14528123},{"NoteNumber":65,"Velocity":65,"Duration":125432,"SoundDuration":125432,"Delta":14862609},{"NoteNumber":68,"Velocity":65,"Duration":125432,"SoundDuration":125432,"Delta":14862609},{"NoteNumber":56,"Velocity":52,"Duration":125432,"SoundDuration":125432,"Delta":14862609},{"NoteNumber":65,"Velocity":69,"Duration":330797,"SoundDuration":330797,"Delta":15029851},{"NoteNumber":68,"Velocity":69,"Duration":330797,"SoundDuration":330797,"Delta":15029851},{"NoteNumber":44,"Velocity":41,"Duration":1056085,"SoundDuration":1056085,"Delta":15029851},{"NoteNumber":56,"Velocity":49,"Duration":1056085,"SoundDuration":1056085,"Delta":15029851},{"NoteNumber":69,"Velocity":61,"Duration":172038,"SoundDuration":172038,"Delta":15360648},{"NoteNumber":60,"Velocity":49,"Duration":351067,"SoundDuration":351067,"Delta":15532686},{"NoteNumber":66,"Velocity":49,"Duration":351067,"SoundDuration":351067,"Delta":15532686},{"NoteNumber":70,"Velocity":62,"Duration":351067,"SoundDuration":351067,"Delta":15532686},{"NoteNumber":63,"Velocity":54,"Duration":151637,"SoundDuration":151637,"Delta":15883754},{"NoteNumber":66,"Velocity":54,"Duration":151637,"SoundDuration":151637,"Delta":15883754},{"NoteNumber":66,"Velocity":58,"Duration":498946,"SoundDuration":498946,"Delta":16085937},{"NoteNumber":63,"Velocity":49,"Duration":498946,"SoundDuration":498946,"Delta":16085937},{"NoteNumber":60,"Velocity":49,"Duration":498946,"SoundDuration":498946,"Delta":16085937},{"NoteNumber":37,"Velocity":41,"Duration":997893,"SoundDuration":997893,"Delta":16085937},{"NoteNumber":61,"Velocity":41,"Duration":498946,"SoundDuration":498946,"Delta":16584884},{"NoteNumber":65,"Velocity":49,"Duration":498946,"SoundDuration":498946,"Delta":16584884},{"NoteNumber":53,"Velocity":43,"Duration":163594,"SoundDuration":163594,"Delta":17083830},{"NoteNumber":54,"Velocity":41,"Duration":163594,"SoundDuration":163594,"Delta":17247425},{"NoteNumber":53,"Velocity":38,"Duration":163594,"SoundDuration":163594,"Delta":17411020},{"NoteNumber":51,"Velocity":41,"Duration":166315,"SoundDuration":166315,"Delta":17574615},{"NoteNumber":49,"Velocity":38,"Duration":178168,"SoundDuration":178168,"Delta":17740930},{"NoteNumber":73,"Velocity":43,"Duration":84090,"SoundDuration":84090,"Delta":17919099},{"NoteNumber":77,"Velocity":43,"Duration":84090,"SoundDuration":84090,"Delta":17919099},{"NoteNumber":48,"Velocity":38,"Duration":84090,"SoundDuration":84090,"Delta":17919099},{"NoteNumber":46,"Velocity":35,"Duration":406013,"SoundDuration":406013,"Delta":18003189},{"NoteNumber":65,"Velocity":40,"Duration":321922,"SoundDuration":321922,"Delta":18087279},{"NoteNumber":73,"Velocity":50,"Duration":160961,"SoundDuration":160961,"Delta":18087279},{"NoteNumber":77,"Velocity":50,"Duration":160961,"SoundDuration":160961,"Delta":18087279},{"NoteNumber":61,"Velocity":40,"Duration":321922,"SoundDuration":321922,"Delta":18087279},{"NoteNumber":73,"Velocity":45,"Duration":160961,"SoundDuration":160961,"Delta":18248240},{"NoteNumber":70,"Velocity":45,"Duration":160961,"SoundDuration":160961,"Delta":18248240},{"NoteNumber":77,"Velocity":45,"Duration":86019,"SoundDuration":86019,"Delta":18409202},{"NoteNumber":73,"Velocity":45,"Duration":86019,"SoundDuration":86019,"Delta":18409202},{"NoteNumber":46,"Velocity":35,"Duration":406224,"SoundDuration":406224,"Delta":18495221},{"NoteNumber":65,"Velocity":40,"Duration":320205,"SoundDuration":320205,"Delta":18581240},{"NoteNumber":73,"Velocity":50,"Duration":160102,"SoundDuration":160102,"Delta":18581240},{"NoteNumber":77,"Velocity":50,"Duration":160102,"SoundDuration":160102,"Delta":18581240},{"NoteNumber":61,"Velocity":40,"Duration":320205,"SoundDuration":320205,"Delta":18581240},{"NoteNumber":73,"Velocity":46,"Duration":160102,"SoundDuration":160102,"Delta":18741342},{"NoteNumber":70,"Velocity":46,"Duration":160102,"SoundDuration":160102,"Delta":18741342},{"NoteNumber":77,"Velocity":46,"Duration":85043,"SoundDuration":85043,"Delta":18901445},{"NoteNumber":73,"Velocity":46,"Duration":85043,"SoundDuration":85043,"Delta":18901445},{"NoteNumber":46,"Velocity":35,"Duration":398556,"SoundDuration":398556,"Delta":18986488},{"NoteNumber":65,"Velocity":40,"Duration":313512,"SoundDuration":313512,"Delta":19071532},{"NoteNumber":73,"Velocity":50,"Duration":156756,"SoundDuration":156756,"Delta":19071532},{"NoteNumber":77,"Velocity":50,"Duration":156756,"SoundDuration":156756,"Delta":19071532},{"NoteNumber":61,"Velocity":40,"Duration":313512,"SoundDuration":313512,"Delta":19071532},{"NoteNumber":73,"Velocity":45,"Duration":156756,"SoundDuration":156756,"Delta":19228288},{"NoteNumber":70,"Velocity":45,"Duration":156756,"SoundDuration":156756,"Delta":19228288},{"NoteNumber":77,"Velocity":45,"Duration":85528,"SoundDuration":85528,"Delta":19385045},{"NoteNumber":73,"Velocity":45,"Duration":85528,"SoundDuration":85528,"Delta":19385045},{"NoteNumber":46,"Velocity":35,"Duration":414512,"SoundDuration":414512,"Delta":19470573},{"NoteNumber":65,"Velocity":40,"Duration":328983,"SoundDuration":328983,"Delta":19556102},{"NoteNumber":73,"Velocity":50,"Duration":164491,"SoundDuration":164491,"Delta":19556102},{"NoteNumber":77,"Velocity":50,"Duration":164491,"SoundDuration":164491,"Delta":19556102},{"NoteNumber":61,"Velocity":40,"Duration":328983,"SoundDuration":328983,"Delta":19556102},{"NoteNumber":73,"Velocity":46,"Duration":164491,"SoundDuration":164491,"Delta":19720594},{"NoteNumber":70,"Velocity":46,"Duration":164491,"SoundDuration":164491,"Delta":19720594},{"NoteNumber":77,"Velocity":46,"Duration":92948,"SoundDuration":92948,"Delta":19885085},{"NoteNumber":73,"Velocity":46,"Duration":92948,"SoundDuration":92948,"Delta":19885085},{"NoteNumber":46,"Velocity":35,"Duration":425579,"SoundDuration":425579,"Delta":19978034},{"NoteNumber":66,"Velocity":71,"Duration":831577,"SoundDuration":831577,"Delta":20070982},{"NoteNumber":73,"Velocity":50,"Duration":166315,"SoundDuration":166315,"Delta":20070982},{"NoteNumber":61,"Velocity":40,"Duration":332630,"SoundDuration":332630,"Delta":20070982},{"NoteNumber":70,"Velocity":45,"Duration":166315,"SoundDuration":166315,"Delta":20237298},{"NoteNumber":73,"Velocity":45,"Duration":83157,"SoundDuration":83157,"Delta":20403613},{"NoteNumber":46,"Velocity":35,"Duration":415788,"SoundDuration":415788,"Delta":20486771},{"NoteNumber":73,"Velocity":50,"Duration":166315,"SoundDuration":166315,"Delta":20569929},{"NoteNumber":61,"Velocity":40,"Duration":332631,"SoundDuration":332631,"Delta":20569929},{"NoteNumber":70,"Velocity":46,"Duration":166315,"SoundDuration":166315,"Delta":20736244},{"NoteNumber":65,"Velocity":60,"Duration":168180,"SoundDuration":168180,"Delta":20902560},{"NoteNumber":73,"Velocity":46,"Duration":84090,"SoundDuration":84090,"Delta":20902560},{"NoteNumber":46,"Velocity":35,"Duration":416721,"SoundDuration":416721,"Delta":20986650},{"NoteNumber":64,"Velocity":72,"Duration":748419,"SoundDuration":748419,"Delta":21070740},{"NoteNumber":73,"Velocity":50,"Duration":166315,"SoundDuration":166315,"Delta":21070740},{"NoteNumber":61,"Velocity":40,"Duration":332630,"SoundDuration":332630,"Delta":21070740},{"NoteNumber":70,"Velocity":45,"Duration":166315,"SoundDuration":166315,"Delta":21237055},{"NoteNumber":73,"Velocity":45,"Duration":83157,"SoundDuration":83157,"Delta":21403371},{"NoteNumber":46,"Velocity":35,"Duration":415788,"SoundDuration":415788,"Delta":21486529},{"NoteNumber":73,"Velocity":50,"Duration":166315,"SoundDuration":166315,"Delta":21569686},{"NoteNumber":61,"Velocity":40,"Duration":332631,"SoundDuration":332631,"Delta":21569686},{"NoteNumber":70,"Velocity":46,"Duration":166315,"SoundDuration":166315,"Delta":21736002},{"NoteNumber":73,"Velocity":61,"Duration":83157,"SoundDuration":83157,"Delta":21902317},{"NoteNumber":64,"Velocity":60,"Duration":166315,"SoundDuration":166315,"Delta":21902317},{"NoteNumber":65,"Velocity":75,"Duration":647318,"SoundDuration":647318,"Delta":22068633},{"NoteNumber":45,"Velocity":49,"Duration":161829,"SoundDuration":161829,"Delta":22068633},{"NoteNumber":60,"Velocity":54,"Duration":80914,"SoundDuration":80914,"Delta":22230463},{"NoteNumber":63,"Velocity":54,"Duration":80914,"SoundDuration":80914,"Delta":22230463},{"NoteNumber":53,"Velocity":40,"Duration":80914,"SoundDuration":80914,"Delta":22230463},{"NoteNumber":60,"Velocity":54,"Duration":80914,"SoundDuration":80914,"Delta":22392292},{"NoteNumber":63,"Velocity":54,"Duration":80914,"SoundDuration":80914,"Delta":22392292},{"NoteNumber":53,"Velocity":42,"Duration":80914,"SoundDuration":80914,"Delta":22392292},{"NoteNumber":60,"Velocity":54,"Duration":80914,"SoundDuration":80914,"Delta":22554122},{"NoteNumber":63,"Velocity":54,"Duration":80914,"SoundDuration":80914,"Delta":22554122},{"NoteNumber":41,"Velocity":42,"Duration":161829,"SoundDuration":161829,"Delta":22554122},{"NoteNumber":58,"Velocity":54,"Duration":80914,"SoundDuration":80914,"Delta":22715952},{"NoteNumber":67,"Velocity":56,"Duration":80914,"SoundDuration":80914,"Delta":22715952},{"NoteNumber":53,"Velocity":47,"Duration":80914,"SoundDuration":80914,"Delta":22715952},{"NoteNumber":60,"Velocity":54,"Duration":80914,"SoundDuration":80914,"Delta":22877782},{"NoteNumber":69,"Velocity":61,"Duration":80914,"SoundDuration":80914,"Delta":22877782},{"NoteNumber":53,"Velocity":50,"Duration":80914,"SoundDuration":80914,"Delta":22877782},{"NoteNumber":72,"Velocity":64,"Duration":80914,"SoundDuration":80914,"Delta":22958696},{"NoteNumber":61,"Velocity":61,"Duration":80914,"SoundDuration":80914,"Delta":23039611},{"NoteNumber":70,"Velocity":73,"Duration":80914,"SoundDuration":80914,"Delta":23039611},{"NoteNumber":46,"Velocity":54,"Duration":161829,"SoundDuration":161829,"Delta":23039611},{"NoteNumber":60,"Velocity":54,"Duration":80914,"SoundDuration":80914,"Delta":23201441},{"NoteNumber":69,"Velocity":63,"Duration":80914,"SoundDuration":80914,"Delta":23201441},{"NoteNumber":53,"Velocity":43,"Duration":80914,"SoundDuration":80914,"Delta":23201441},{"NoteNumber":61,"Velocity":53,"Duration":83621,"SoundDuration":83621,"Delta":23363271},{"NoteNumber":70,"Velocity":63,"Duration":83621,"SoundDuration":83621,"Delta":23363271},{"NoteNumber":53,"Velocity":46,"Duration":83621,"SoundDuration":83621,"Delta":23363271},{"NoteNumber":65,"Velocity":60,"Duration":81353,"SoundDuration":81353,"Delta":23530514},{"NoteNumber":73,"Velocity":71,"Duration":81353,"SoundDuration":81353,"Delta":23530514},{"NoteNumber":39,"Velocity":58,"Duration":162707,"SoundDuration":162707,"Delta":23530514},{"NoteNumber":63,"Velocity":53,"Duration":81353,"SoundDuration":81353,"Delta":23693221},{"NoteNumber":72,"Velocity":63,"Duration":81353,"SoundDuration":81353,"Delta":23693221},{"NoteNumber":54,"Velocity":48,"Duration":81353,"SoundDuration":81353,"Delta":23693221},{"NoteNumber":61,"Velocity":58,"Duration":86515,"SoundDuration":86515,"Delta":23855929},{"NoteNumber":70,"Velocity":70,"Duration":86515,"SoundDuration":86515,"Delta":23855929},{"NoteNumber":54,"Velocity":48,"Duration":86515,"SoundDuration":86515,"Delta":23855929},{"NoteNumber":61,"Velocity":70,"Duration":992007,"SoundDuration":992007,"Delta":24028959},{"NoteNumber":70,"Velocity":82,"Duration":992007,"SoundDuration":992007,"Delta":24028959},{"NoteNumber":41,"Velocity":60,"Duration":163594,"SoundDuration":163594,"Delta":24028959},{"NoteNumber":53,"Velocity":49,"Duration":81797,"SoundDuration":81797,"Delta":24192554},{"NoteNumber":53,"Velocity":46,"Duration":81797,"SoundDuration":81797,"Delta":24356148},{"NoteNumber":64,"Velocity":66,"Duration":501223,"SoundDuration":501223,"Delta":24519743},{"NoteNumber":53,"Velocity":55,"Duration":81797,"SoundDuration":81797,"Delta":24519743},{"NoteNumber":53,"Velocity":46,"Duration":81797,"SoundDuration":81797,"Delta":24683338},{"NoteNumber":53,"Velocity":46,"Duration":87016,"SoundDuration":87016,"Delta":24846933},{"NoteNumber":60,"Velocity":67,"Duration":488122,"SoundDuration":488122,"Delta":25020967},{"NoteNumber":65,"Velocity":67,"Duration":488122,"SoundDuration":488122,"Delta":25020967},{"NoteNumber":69,"Velocity":80,"Duration":488122,"SoundDuration":488122,"Delta":25020967},{"NoteNumber":53,"Velocity":56,"Duration":162707,"SoundDuration":162707,"Delta":25020967},{"NoteNumber":54,"Velocity":46,"Duration":162707,"SoundDuration":162707,"Delta":25183674},{"NoteNumber":53,"Velocity":48,"Duration":81353,"SoundDuration":81353,"Delta":25346382},{"NoteNumber":53,"Velocity":52,"Duration":81353,"SoundDuration":81353,"Delta":25509089},{"NoteNumber":53,"Velocity":46,"Duration":91252,"SoundDuration":91252,"Delta":25671797},{"NoteNumber":73,"Velocity":43,"Duration":81353,"SoundDuration":81353,"Delta":25854301},{"NoteNumber":77,"Velocity":43,"Duration":81353,"SoundDuration":81353,"Delta":25854301},{"NoteNumber":53,"Velocity":40,"Duration":81353,"SoundDuration":81353,"Delta":25854301},{"NoteNumber":46,"Velocity":35,"Duration":393236,"SoundDuration":393236,"Delta":25935654},{"NoteNumber":65,"Velocity":40,"Duration":311882,"SoundDuration":311882,"Delta":26017008},{"NoteNumber":73,"Velocity":50,"Duration":155941,"SoundDuration":155941,"Delta":26017008},{"NoteNumber":77,"Velocity":50,"Duration":155941,"SoundDuration":155941,"Delta":26017008},{"NoteNumber":61,"Velocity":40,"Duration":311882,"SoundDuration":311882,"Delta":26017008},{"NoteNumber":73,"Velocity":45,"Duration":155941,"SoundDuration":155941,"Delta":26172949},{"NoteNumber":70,"Velocity":45,"Duration":155941,"SoundDuration":155941,"Delta":26172949},{"NoteNumber":77,"Velocity":45,"Duration":84564,"SoundDuration":84564,"Delta":26328891},{"NoteNumber":73,"Velocity":45,"Duration":84564,"SoundDuration":84564,"Delta":26328891},{"NoteNumber":46,"Velocity":36,"Duration":398076,"SoundDuration":398076,"Delta":26413455},{"NoteNumber":65,"Velocity":41,"Duration":313512,"SoundDuration":313512,"Delta":26498019},{"NoteNumber":73,"Velocity":51,"Duration":156756,"SoundDuration":156756,"Delta":26498019},{"NoteNumber":77,"Velocity":51,"Duration":156756,"SoundDuration":156756,"Delta":26498019},{"NoteNumber":61,"Velocity":41,"Duration":313512,"SoundDuration":313512,"Delta":26498019},{"NoteNumber":73,"Velocity":48,"Duration":156756,"SoundDuration":156756,"Delta":26654775},{"NoteNumber":70,"Velocity":48,"Duration":156756,"SoundDuration":156756,"Delta":26654775},{"NoteNumber":77,"Velocity":48,"Duration":83621,"SoundDuration":83621,"Delta":26811532},{"NoteNumber":73,"Velocity":48,"Duration":83621,"SoundDuration":83621,"Delta":26811532},{"NoteNumber":46,"Velocity":37,"Duration":393891,"SoundDuration":393891,"Delta":26895153},{"NoteNumber":65,"Velocity":42,"Duration":310269,"SoundDuration":310269,"Delta":26978774},{"NoteNumber":73,"Velocity":53,"Duration":155135,"SoundDuration":155135,"Delta":26978774},{"NoteNumber":77,"Velocity":53,"Duration":155135,"SoundDuration":155135,"Delta":26978774},{"NoteNumber":61,"Velocity":42,"Duration":310269,"SoundDuration":310269,"Delta":26978774},{"NoteNumber":73,"Velocity":50,"Duration":155134,"SoundDuration":155134,"Delta":27133909},{"NoteNumber":70,"Velocity":50,"Duration":155134,"SoundDuration":155134,"Delta":27133909},{"NoteNumber":77,"Velocity":55,"Duration":83621,"SoundDuration":83621,"Delta":27289044},{"NoteNumber":73,"Velocity":55,"Duration":83621,"SoundDuration":83621,"Delta":27289044},{"NoteNumber":46,"Velocity":44,"Duration":405544,"SoundDuration":405544,"Delta":27372666},{"NoteNumber":65,"Velocity":53,"Duration":321923,"SoundDuration":321923,"Delta":27456287},{"NoteNumber":73,"Velocity":66,"Duration":160961,"SoundDuration":160961,"Delta":27456287},{"NoteNumber":77,"Velocity":66,"Duration":160961,"SoundDuration":160961,"Delta":27456287},{"NoteNumber":61,"Velocity":53,"Duration":321923,"SoundDuration":321923,"Delta":27456287},{"NoteNumber":73,"Velocity":63,"Duration":160961,"SoundDuration":160961,"Delta":27617249},{"NoteNumber":70,"Velocity":63,"Duration":160961,"SoundDuration":160961,"Delta":27617249},{"NoteNumber":77,"Velocity":68,"Duration":95920,"SoundDuration":95920,"Delta":27778210},{"NoteNumber":73,"Velocity":68,"Duration":95920,"SoundDuration":95920,"Delta":27778210},{"NoteNumber":68,"Velocity":58,"Duration":493475,"SoundDuration":493475,"Delta":27970051},{"NoteNumber":77,"Velocity":66,"Duration":493475,"SoundDuration":493475,"Delta":27970051},{"NoteNumber":80,"Velocity":82,"Duration":493475,"SoundDuration":493475,"Delta":27970051},{"NoteNumber":51,"Velocity":69,"Duration":493475,"SoundDuration":493475,"Delta":27970051},{"NoteNumber":58,"Velocity":49,"Duration":82245,"SoundDuration":82245,"Delta":28134542},{"NoteNumber":58,"Velocity":46,"Duration":82245,"SoundDuration":82245,"Delta":28299034},{"NoteNumber":66,"Velocity":56,"Duration":324594,"SoundDuration":324594,"Delta":28463526},{"NoteNumber":75,"Velocity":56,"Duration":324594,"SoundDuration":324594,"Delta":28463526},{"NoteNumber":78,"Velocity":66,"Duration":324594,"SoundDuration":324594,"Delta":28463526},{"NoteNumber":53,"Velocity":60,"Duration":324594,"SoundDuration":324594,"Delta":28463526},{"NoteNumber":58,"Velocity":55,"Duration":82245,"SoundDuration":82245,"Delta":28463526},{"NoteNumber":58,"Velocity":46,"Duration":80051,"SoundDuration":80051,"Delta":28628018},{"NoteNumber":65,"Velocity":56,"Duration":86019,"SoundDuration":86019,"Delta":28788120},{"NoteNumber":73,"Velocity":56,"Duration":86019,"SoundDuration":86019,"Delta":28788120},{"NoteNumber":77,"Velocity":66,"Duration":86019,"SoundDuration":86019,"Delta":28788120},{"NoteNumber":54,"Velocity":60,"Duration":172038,"SoundDuration":172038,"Delta":28788120},{"NoteNumber":58,"Velocity":46,"Duration":86019,"SoundDuration":86019,"Delta":28788120},{"NoteNumber":65,"Velocity":58,"Duration":490784,"SoundDuration":490784,"Delta":28960158},{"NoteNumber":73,"Velocity":67,"Duration":490784,"SoundDuration":490784,"Delta":28960158},{"NoteNumber":77,"Velocity":82,"Duration":490784,"SoundDuration":490784,"Delta":28960158},{"NoteNumber":56,"Velocity":60,"Duration":245392,"SoundDuration":245392,"Delta":28960158},{"NoteNumber":56,"Velocity":49,"Duration":149961,"SoundDuration":149961,"Delta":29123753},{"NoteNumber":56,"Velocity":46,"Duration":81797,"SoundDuration":81797,"Delta":29287348},{"NoteNumber":63,"Velocity":56,"Duration":327189,"SoundDuration":327189,"Delta":29450942},{"NoteNumber":72,"Velocity":56,"Duration":327189,"SoundDuration":327189,"Delta":29450942},{"NoteNumber":75,"Velocity":66,"Duration":327189,"SoundDuration":327189,"Delta":29450942},{"NoteNumber":54,"Velocity":60,"Duration":355862,"SoundDuration":355862,"Delta":29450942},{"NoteNumber":56,"Velocity":55,"Duration":81797,"SoundDuration":81797,"Delta":29450942},{"NoteNumber":56,"Velocity":46,"Duration":81797,"SoundDuration":81797,"Delta":29614537},{"NoteNumber":56,"Velocity":46,"Duration":86019,"SoundDuration":86019,"Delta":29778132},{"NoteNumber":65,"Velocity":58,"Duration":493475,"SoundDuration":493475,"Delta":29950170},{"NoteNumber":68,"Velocity":66,"Duration":992514,"SoundDuration":992514,"Delta":29950170},{"NoteNumber":77,"Velocity":82,"Duration":493475,"SoundDuration":493475,"Delta":29950170},{"NoteNumber":53,"Velocity":49,"Duration":992514,"SoundDuration":992514,"Delta":29950170},{"NoteNumber":56,"Velocity":56,"Duration":992514,"SoundDuration":992514,"Delta":29950170},{"NoteNumber":73,"Velocity":69,"Duration":321922,"SoundDuration":321922,"Delta":30443645},{"NoteNumber":61,"Velocity":55,"Duration":321922,"SoundDuration":321922,"Delta":30443645},{"NoteNumber":72,"Velocity":65,"Duration":132837,"SoundDuration":132837,"Delta":30765568},{"NoteNumber":60,"Velocity":52,"Duration":132837,"SoundDuration":132837,"Delta":30765568},{"NoteNumber":68,"Velocity":69,"Duration":325415,"SoundDuration":325415,"Delta":30942685},{"NoteNumber":72,"Velocity":69,"Duration":325415,"SoundDuration":325415,"Delta":30942685},{"NoteNumber":54,"Velocity":49,"Duration":1006937,"SoundDuration":1006937,"Delta":30942685},{"NoteNumber":60,"Velocity":55,"Duration":325415,"SoundDuration":325415,"Delta":30942685},{"NoteNumber":66,"Velocity":65,"Duration":126846,"SoundDuration":126846,"Delta":31268100},{"NoteNumber":70,"Velocity":65,"Duration":126846,"SoundDuration":126846,"Delta":31268100},{"NoteNumber":58,"Velocity":52,"Duration":126846,"SoundDuration":126846,"Delta":31268100},{"NoteNumber":73,"Velocity":69,"Duration":329890,"SoundDuration":329890,"Delta":31437228},{"NoteNumber":61,"Velocity":55,"Duration":329890,"SoundDuration":329890,"Delta":31437228},{"NoteNumber":66,"Velocity":65,"Duration":136878,"SoundDuration":136878,"Delta":31767118},{"NoteNumber":70,"Velocity":65,"Duration":136878,"SoundDuration":136878,"Delta":31767118},{"NoteNumber":58,"Velocity":52,"Duration":136878,"SoundDuration":136878,"Delta":31767118},{"NoteNumber":66,"Velocity":69,"Duration":328983,"SoundDuration":328983,"Delta":31949622},{"NoteNumber":70,"Velocity":69,"Duration":328983,"SoundDuration":328983,"Delta":31949622},{"NoteNumber":49,"Velocity":49,"Duration":1001768,"SoundDuration":1001768,"Delta":31949622},{"NoteNumber":58,"Velocity":55,"Duration":328983,"SoundDuration":328983,"Delta":31949622},{"NoteNumber":65,"Velocity":65,"Duration":128292,"SoundDuration":128292,"Delta":32278606},{"NoteNumber":68,"Velocity":65,"Duration":128292,"SoundDuration":128292,"Delta":32278606},{"NoteNumber":56,"Velocity":52,"Duration":128292,"SoundDuration":128292,"Delta":32278606},{"NoteNumber":73,"Velocity":69,"Duration":334485,"SoundDuration":334485,"Delta":32449663},{"NoteNumber":61,"Velocity":55,"Duration":334485,"SoundDuration":334485,"Delta":32449663},{"NoteNumber":65,"Velocity":65,"Duration":125432,"SoundDuration":125432,"Delta":32784149},{"NoteNumber":68,"Velocity":65,"Duration":125432,"SoundDuration":125432,"Delta":32784149},{"NoteNumber":56,"Velocity":52,"Duration":125432,"SoundDuration":125432,"Delta":32784149},{"NoteNumber":65,"Velocity":69,"Duration":330796,"SoundDuration":330796,"Delta":32951391},{"NoteNumber":68,"Velocity":69,"Duration":330796,"SoundDuration":330796,"Delta":32951391},{"NoteNumber":44,"Velocity":41,"Duration":1063174,"SoundDuration":1063174,"Delta":32951391},{"NoteNumber":56,"Velocity":49,"Duration":1063174,"SoundDuration":1063174,"Delta":32951391},{"NoteNumber":69,"Velocity":61,"Duration":172038,"SoundDuration":172038,"Delta":33282188},{"NoteNumber":60,"Velocity":49,"Duration":358156,"SoundDuration":358156,"Delta":33454226},{"NoteNumber":66,"Velocity":49,"Duration":358156,"SoundDuration":358156,"Delta":33454226},{"NoteNumber":70,"Velocity":62,"Duration":358156,"SoundDuration":358156,"Delta":33454226},{"NoteNumber":63,"Velocity":54,"Duration":151637,"SoundDuration":151637,"Delta":33812382},{"NoteNumber":66,"Velocity":54,"Duration":151637,"SoundDuration":151637,"Delta":33812382},{"NoteNumber":66,"Velocity":58,"Duration":498946,"SoundDuration":498946,"Delta":34014566},{"NoteNumber":63,"Velocity":49,"Duration":498946,"SoundDuration":498946,"Delta":34014566},{"NoteNumber":60,"Velocity":49,"Duration":498946,"SoundDuration":498946,"Delta":34014566},{"NoteNumber":37,"Velocity":41,"Duration":997892,"SoundDuration":997892,"Delta":34014566},{"NoteNumber":61,"Velocity":41,"Duration":498946,"SoundDuration":498946,"Delta":34513512},{"NoteNumber":65,"Velocity":49,"Duration":498946,"SoundDuration":498946,"Delta":34513512},{"NoteNumber":53,"Velocity":43,"Duration":163594,"SoundDuration":163594,"Delta":35012459},{"NoteNumber":54,"Velocity":41,"Duration":163594,"SoundDuration":163594,"Delta":35176054},{"NoteNumber":53,"Velocity":38,"Duration":163594,"SoundDuration":163594,"Delta":35339648},{"NoteNumber":51,"Velocity":41,"Duration":166315,"SoundDuration":166315,"Delta":35503243},{"NoteNumber":49,"Velocity":38,"Duration":174033,"SoundDuration":174033,"Delta":35669559},{"NoteNumber":63,"Velocity":43,"Duration":84090,"SoundDuration":84090,"Delta":35843593},{"NoteNumber":65,"Velocity":43,"Duration":84090,"SoundDuration":84090,"Delta":35843593},{"NoteNumber":47,"Velocity":38,"Duration":168180,"SoundDuration":168180,"Delta":35843593},{"NoteNumber":62,"Velocity":50,"Duration":160961,"SoundDuration":160961,"Delta":36011773},{"NoteNumber":65,"Velocity":50,"Duration":160961,"SoundDuration":160961,"Delta":36011773},{"NoteNumber":46,"Velocity":40,"Duration":321922,"SoundDuration":321922,"Delta":36011773},{"NoteNumber":70,"Velocity":45,"Duration":160961,"SoundDuration":160961,"Delta":36172734},{"NoteNumber":58,"Velocity":45,"Duration":160961,"SoundDuration":160961,"Delta":36172734},{"NoteNumber":65,"Velocity":45,"Duration":86019,"SoundDuration":86019,"Delta":36333696},{"NoteNumber":62,"Velocity":45,"Duration":86019,"SoundDuration":86019,"Delta":36333696},{"NoteNumber":62,"Velocity":50,"Duration":160961,"SoundDuration":160961,"Delta":36505734},{"NoteNumber":65,"Velocity":50,"Duration":160961,"SoundDuration":160961,"Delta":36505734},{"NoteNumber":46,"Velocity":40,"Duration":321922,"SoundDuration":321922,"Delta":36505734},{"NoteNumber":70,"Velocity":46,"Duration":160961,"SoundDuration":160961,"Delta":36666695},{"NoteNumber":58,"Velocity":46,"Duration":160961,"SoundDuration":160961,"Delta":36666695},{"NoteNumber":65,"Velocity":46,"Duration":85043,"SoundDuration":85043,"Delta":36827657},{"NoteNumber":62,"Velocity":46,"Duration":85043,"SoundDuration":85043,"Delta":36827657},{"NoteNumber":58,"Velocity":46,"Duration":493746,"SoundDuration":493746,"Delta":36997744},{"NoteNumber":65,"Velocity":46,"Duration":493746,"SoundDuration":493746,"Delta":36997744},{"NoteNumber":68,"Velocity":46,"Duration":493746,"SoundDuration":493746,"Delta":36997744},{"NoteNumber":39,"Velocity":49,"Duration":323659,"SoundDuration":323659,"Delta":36997744},{"NoteNumber":46,"Velocity":39,"Duration":80914,"SoundDuration":80914,"Delta":37159574},{"NoteNumber":46,"Velocity":38,"Duration":85043,"SoundDuration":85043,"Delta":37321404},{"NoteNumber":63,"Velocity":46,"Duration":162707,"SoundDuration":162707,"Delta":37491491},{"NoteNumber":66,"Velocity":46,"Duration":162707,"SoundDuration":162707,"Delta":37491491},{"NoteNumber":42,"Velocity":45,"Duration":325414,"SoundDuration":325414,"Delta":37491491},{"NoteNumber":46,"Velocity":45,"Duration":81353,"SoundDuration":81353,"Delta":37491491},{"NoteNumber":46,"Velocity":42,"Duration":81353,"SoundDuration":81353,"Delta":37654198},{"NoteNumber":63,"Velocity":43,"Duration":84090,"SoundDuration":84090,"Delta":37816906},{"NoteNumber":66,"Velocity":43,"Duration":84090,"SoundDuration":84090,"Delta":37816906},{"NoteNumber":46,"Velocity":42,"Duration":84090,"SoundDuration":84090,"Delta":37816906},{"NoteNumber":62,"Velocity":50,"Duration":160961,"SoundDuration":160961,"Delta":37985086},{"NoteNumber":65,"Velocity":50,"Duration":160961,"SoundDuration":160961,"Delta":37985086},{"NoteNumber":46,"Velocity":40,"Duration":321922,"SoundDuration":321922,"Delta":37985086},{"NoteNumber":70,"Velocity":45,"Duration":160961,"SoundDuration":160961,"Delta":38146048},{"NoteNumber":58,"Velocity":45,"Duration":160961,"SoundDuration":160961,"Delta":38146048},{"NoteNumber":65,"Velocity":45,"Duration":86019,"SoundDuration":86019,"Delta":38307009},{"NoteNumber":62,"Velocity":45,"Duration":86019,"SoundDuration":86019,"Delta":38307009},{"NoteNumber":62,"Velocity":50,"Duration":160961,"SoundDuration":160961,"Delta":38479047},{"NoteNumber":65,"Velocity":50,"Duration":160961,"SoundDuration":160961,"Delta":38479047},{"NoteNumber":46,"Velocity":40,"Duration":321922,"SoundDuration":321922,"Delta":38479047},{"NoteNumber":70,"Velocity":46,"Duration":160961,"SoundDuration":160961,"Delta":38640009},{"NoteNumber":58,"Velocity":46,"Duration":160961,"SoundDuration":160961,"Delta":38640009},{"NoteNumber":65,"Velocity":46,"Duration":85043,"SoundDuration":85043,"Delta":38800970},{"NoteNumber":62,"Velocity":46,"Duration":85043,"SoundDuration":85043,"Delta":38800970},{"NoteNumber":58,"Velocity":46,"Duration":493746,"SoundDuration":493746,"Delta":38971057},{"NoteNumber":65,"Velocity":46,"Duration":493746,"SoundDuration":493746,"Delta":38971057},{"NoteNumber":68,"Velocity":46,"Duration":493746,"SoundDuration":493746,"Delta":38971057},{"NoteNumber":39,"Velocity":49,"Duration":323659,"SoundDuration":323659,"Delta":38971057},{"NoteNumber":46,"Velocity":39,"Duration":80914,"SoundDuration":80914,"Delta":39132887},{"NoteNumber":46,"Velocity":38,"Duration":85043,"SoundDuration":85043,"Delta":39294717},{"NoteNumber":63,"Velocity":46,"Duration":162707,"SoundDuration":162707,"Delta":39464804},{"NoteNumber":66,"Velocity":46,"Duration":162707,"SoundDuration":162707,"Delta":39464804},{"NoteNumber":48,"Velocity":45,"Duration":81353,"SoundDuration":81353,"Delta":39464804},{"NoteNumber":48,"Velocity":42,"Duration":81353,"SoundDuration":81353,"Delta":39627512},{"NoteNumber":66,"Velocity":49,"Duration":84090,"SoundDuration":84090,"Delta":39790219},{"NoteNumber":63,"Velocity":49,"Duration":84090,"SoundDuration":84090,"Delta":39790219},{"NoteNumber":70,"Velocity":49,"Duration":84090,"SoundDuration":84090,"Delta":39790219},{"NoteNumber":48,"Velocity":48,"Duration":84090,"SoundDuration":84090,"Delta":39790219},{"NoteNumber":65,"Velocity":57,"Duration":159252,"SoundDuration":159252,"Delta":39958399},{"NoteNumber":68,"Velocity":57,"Duration":159252,"SoundDuration":159252,"Delta":39958399},{"NoteNumber":41,"Velocity":39,"Duration":318505,"SoundDuration":318505,"Delta":39958399},{"NoteNumber":49,"Velocity":46,"Duration":318505,"SoundDuration":318505,"Delta":39958399},{"NoteNumber":73,"Velocity":51,"Duration":159252,"SoundDuration":159252,"Delta":40117652},{"NoteNumber":61,"Velocity":51,"Duration":159252,"SoundDuration":159252,"Delta":40117652},{"NoteNumber":68,"Velocity":51,"Duration":86019,"SoundDuration":86019,"Delta":40276904},{"NoteNumber":65,"Velocity":51,"Duration":86019,"SoundDuration":86019,"Delta":40276904},{"NoteNumber":65,"Velocity":58,"Duration":158411,"SoundDuration":158411,"Delta":40448942},{"NoteNumber":68,"Velocity":58,"Duration":158411,"SoundDuration":158411,"Delta":40448942},{"NoteNumber":37,"Velocity":39,"Duration":316823,"SoundDuration":316823,"Delta":40448942},{"NoteNumber":49,"Velocity":46,"Duration":316823,"SoundDuration":316823,"Delta":40448942},{"NoteNumber":73,"Velocity":53,"Duration":158411,"SoundDuration":158411,"Delta":40607354},{"NoteNumber":61,"Velocity":53,"Duration":158411,"SoundDuration":158411,"Delta":40607354},{"NoteNumber":68,"Velocity":53,"Duration":89084,"SoundDuration":89084,"Delta":40765766},{"NoteNumber":65,"Velocity":53,"Duration":89084,"SoundDuration":89084,"Delta":40765766},{"NoteNumber":65,"Velocity":54,"Duration":493746,"SoundDuration":493746,"Delta":40943934},{"NoteNumber":61,"Velocity":54,"Duration":493746,"SoundDuration":493746,"Delta":40943934},{"NoteNumber":68,"Velocity":54,"Duration":493746,"SoundDuration":493746,"Delta":40943934},{"NoteNumber":71,"Velocity":54,"Duration":493746,"SoundDuration":493746,"Delta":40943934},{"NoteNumber":42,"Velocity":58,"Duration":323659,"SoundDuration":323659,"Delta":40943934},{"NoteNumber":49,"Velocity":45,"Duration":80914,"SoundDuration":80914,"Delta":41105764},{"NoteNumber":49,"Velocity":45,"Duration":85043,"SoundDuration":85043,"Delta":41267594},{"NoteNumber":66,"Velocity":54,"Duration":162707,"SoundDuration":162707,"Delta":41437681},{"NoteNumber":70,"Velocity":54,"Duration":162707,"SoundDuration":162707,"Delta":41437681},{"NoteNumber":46,"Velocity":58,"Duration":325414,"SoundDuration":325414,"Delta":41437681},{"NoteNumber":49,"Velocity":53,"Duration":81353,"SoundDuration":81353,"Delta":41437681},{"NoteNumber":49,"Velocity":50,"Duration":81353,"SoundDuration":81353,"Delta":41600389},{"NoteNumber":66,"Velocity":59,"Duration":84090,"SoundDuration":84090,"Delta":41763096},{"NoteNumber":70,"Velocity":59,"Duration":84090,"SoundDuration":84090,"Delta":41763096},{"NoteNumber":49,"Velocity":58,"Duration":84090,"SoundDuration":84090,"Delta":41763096},{"NoteNumber":65,"Velocity":69,"Duration":160102,"SoundDuration":160102,"Delta":41931276},{"NoteNumber":68,"Velocity":69,"Duration":160102,"SoundDuration":160102,"Delta":41931276},{"NoteNumber":41,"Velocity":47,"Duration":320205,"SoundDuration":320205,"Delta":41931276},{"NoteNumber":49,"Velocity":55,"Duration":320205,"SoundDuration":320205,"Delta":41931276},{"NoteNumber":73,"Velocity":62,"Duration":160102,"SoundDuration":160102,"Delta":42091379},{"NoteNumber":61,"Velocity":62,"Duration":160102,"SoundDuration":160102,"Delta":42091379},{"NoteNumber":68,"Velocity":63,"Duration":86019,"SoundDuration":86019,"Delta":42251481},{"NoteNumber":65,"Velocity":63,"Duration":86019,"SoundDuration":86019,"Delta":42251481},{"NoteNumber":65,"Velocity":74,"Duration":159252,"SoundDuration":159252,"Delta":42423519},{"NoteNumber":68,"Velocity":74,"Duration":159252,"SoundDuration":159252,"Delta":42423519},{"NoteNumber":37,"Velocity":50,"Duration":318505,"SoundDuration":318505,"Delta":42423519},{"NoteNumber":49,"Velocity":58,"Duration":318505,"SoundDuration":318505,"Delta":42423519},{"NoteNumber":73,"Velocity":68,"Duration":159252,"SoundDuration":159252,"Delta":42582772},{"NoteNumber":61,"Velocity":68,"Duration":159252,"SoundDuration":159252,"Delta":42582772},{"NoteNumber":68,"Velocity":69,"Duration":91810,"SoundDuration":91810,"Delta":42742024},{"NoteNumber":65,"Velocity":69,"Duration":91810,"SoundDuration":91810,"Delta":42742024},{"NoteNumber":65,"Velocity":71,"Duration":493746,"SoundDuration":493746,"Delta":42925645},{"NoteNumber":62,"Velocity":71,"Duration":493746,"SoundDuration":493746,"Delta":42925645},{"NoteNumber":68,"Velocity":71,"Duration":493746,"SoundDuration":493746,"Delta":42925645},{"NoteNumber":71,"Velocity":71,"Duration":493746,"SoundDuration":493746,"Delta":42925645},{"NoteNumber":42,"Velocity":77,"Duration":323659,"SoundDuration":323659,"Delta":42925645},{"NoteNumber":50,"Velocity":61,"Duration":80914,"SoundDuration":80914,"Delta":43087475},{"NoteNumber":50,"Velocity":61,"Duration":85043,"SoundDuration":85043,"Delta":43249305},{"NoteNumber":63,"Velocity":75,"Duration":162707,"SoundDuration":162707,"Delta":43419392},{"NoteNumber":66,"Velocity":75,"Duration":162707,"SoundDuration":162707,"Delta":43419392},{"NoteNumber":70,"Velocity":75,"Duration":162707,"SoundDuration":162707,"Delta":43419392},{"NoteNumber":51,"Velocity":74,"Duration":81353,"SoundDuration":81353,"Delta":43419392},{"NoteNumber":51,"Velocity":71,"Duration":81353,"SoundDuration":81353,"Delta":43582100},{"NoteNumber":51,"Velocity":71,"Duration":94708,"SoundDuration":94708,"Delta":43744807},{"NoteNumber":65,"Velocity":78,"Duration":489494,"SoundDuration":489494,"Delta":43934225},{"NoteNumber":72,"Velocity":78,"Duration":489494,"SoundDuration":489494,"Delta":43934225},{"NoteNumber":77,"Velocity":92,"Duration":489494,"SoundDuration":489494,"Delta":43934225},{"NoteNumber":45,"Velocity":89,"Duration":161829,"SoundDuration":161829,"Delta":43934225},{"NoteNumber":53,"Velocity":70,"Duration":80914,"SoundDuration":80914,"Delta":44096055},{"NoteNumber":53,"Velocity":67,"Duration":85043,"SoundDuration":85043,"Delta":44257884},{"NoteNumber":72,"Velocity":81,"Duration":325414,"SoundDuration":325414,"Delta":44427971},{"NoteNumber":69,"Velocity":69,"Duration":325414,"SoundDuration":325414,"Delta":44427971},{"NoteNumber":41,"Velocity":80,"Duration":162707,"SoundDuration":162707,"Delta":44427971},{"NoteNumber":53,"Velocity":70,"Duration":81353,"SoundDuration":81353,"Delta":44590679},{"NoteNumber":72,"Velocity":77,"Duration":81353,"SoundDuration":81353,"Delta":44753386},{"NoteNumber":69,"Velocity":64,"Duration":81353,"SoundDuration":81353,"Delta":44753386},{"NoteNumber":65,"Velocity":64,"Duration":81353,"SoundDuration":81353,"Delta":44753386},{"NoteNumber":53,"Velocity":71,"Duration":81353,"SoundDuration":81353,"Delta":44753386},{"NoteNumber":66,"Velocity":78,"Duration":323659,"SoundDuration":323659,"Delta":44916094},{"NoteNumber":72,"Velocity":78,"Duration":323659,"SoundDuration":323659,"Delta":44916094},{"NoteNumber":75,"Velocity":92,"Duration":323659,"SoundDuration":323659,"Delta":44916094},{"NoteNumber":46,"Velocity":88,"Duration":161829,"SoundDuration":161829,"Delta":44916094},{"NoteNumber":53,"Velocity":73,"Duration":80914,"SoundDuration":80914,"Delta":45077924},{"NoteNumber":73,"Velocity":80,"Duration":170087,"SoundDuration":170087,"Delta":45239753},{"NoteNumber":70,"Velocity":67,"Duration":170087,"SoundDuration":170087,"Delta":45239753},{"NoteNumber":64,"Velocity":67,"Duration":170087,"SoundDuration":170087,"Delta":45239753},{"NoteNumber":53,"Velocity":72,"Duration":85043,"SoundDuration":85043,"Delta":45239753},{"NoteNumber":72,"Velocity":79,"Duration":510166,"SoundDuration":510166,"Delta":45409841},{"NoteNumber":69,"Velocity":66,"Duration":510166,"SoundDuration":510166,"Delta":45409841},{"NoteNumber":65,"Velocity":66,"Duration":510166,"SoundDuration":510166,"Delta":45409841},{"NoteNumber":41,"Velocity":82,"Duration":162707,"SoundDuration":162707,"Delta":45409841},{"NoteNumber":53,"Velocity":71,"Duration":81353,"SoundDuration":81353,"Delta":45572548},{"NoteNumber":53,"Velocity":71,"Duration":92375,"SoundDuration":92375,"Delta":45735256},{"NoteNumber":65,"Velocity":78,"Duration":489494,"SoundDuration":489494,"Delta":45920007},{"NoteNumber":72,"Velocity":78,"Duration":489494,"SoundDuration":489494,"Delta":45920007},{"NoteNumber":77,"Velocity":92,"Duration":489494,"SoundDuration":489494,"Delta":45920007},{"NoteNumber":45,"Velocity":89,"Duration":161829,"SoundDuration":161829,"Delta":45920007},{"NoteNumber":53,"Velocity":70,"Duration":80914,"SoundDuration":80914,"Delta":46081837},{"NoteNumber":53,"Velocity":67,"Duration":85043,"SoundDuration":85043,"Delta":46243667},{"NoteNumber":72,"Velocity":81,"Duration":325414,"SoundDuration":325414,"Delta":46413754},{"NoteNumber":69,"Velocity":69,"Duration":325414,"SoundDuration":325414,"Delta":46413754},{"NoteNumber":41,"Velocity":80,"Duration":162707,"SoundDuration":162707,"Delta":46413754},{"NoteNumber":53,"Velocity":70,"Duration":81353,"SoundDuration":81353,"Delta":46576462},{"NoteNumber":72,"Velocity":77,"Duration":81353,"SoundDuration":81353,"Delta":46739169},{"NoteNumber":69,"Velocity":64,"Duration":81353,"SoundDuration":81353,"Delta":46739169},{"NoteNumber":65,"Velocity":64,"Duration":81353,"SoundDuration":81353,"Delta":46739169},{"NoteNumber":53,"Velocity":71,"Duration":81353,"SoundDuration":81353,"Delta":46739169},{"NoteNumber":66,"Velocity":78,"Duration":323659,"SoundDuration":323659,"Delta":46901877},{"NoteNumber":72,"Velocity":78,"Duration":323659,"SoundDuration":323659,"Delta":46901877},{"NoteNumber":75,"Velocity":92,"Duration":323659,"SoundDuration":323659,"Delta":46901877},{"NoteNumber":46,"Velocity":88,"Duration":161829,"SoundDuration":161829,"Delta":46901877},{"NoteNumber":53,"Velocity":73,"Duration":80914,"SoundDuration":80914,"Delta":47063707},{"NoteNumber":73,"Velocity":80,"Duration":170087,"SoundDuration":170087,"Delta":47225536},{"NoteNumber":70,"Velocity":67,"Duration":170087,"SoundDuration":170087,"Delta":47225536},{"NoteNumber":64,"Velocity":67,"Duration":170087,"SoundDuration":170087,"Delta":47225536},{"NoteNumber":53,"Velocity":72,"Duration":85043,"SoundDuration":85043,"Delta":47225536},{"NoteNumber":72,"Velocity":79,"Duration":510166,"SoundDuration":510166,"Delta":47395623},{"NoteNumber":69,"Velocity":66,"Duration":510166,"SoundDuration":510166,"Delta":47395623},{"NoteNumber":65,"Velocity":66,"Duration":510166,"SoundDuration":510166,"Delta":47395623},{"NoteNumber":41,"Velocity":82,"Duration":162707,"SoundDuration":162707,"Delta":47395623},{"NoteNumber":53,"Velocity":71,"Duration":81353,"SoundDuration":81353,"Delta":47558331},{"NoteNumber":53,"Velocity":71,"Duration":92375,"SoundDuration":92375,"Delta":47721038},{"NoteNumber":65,"Velocity":78,"Duration":489494,"SoundDuration":489494,"Delta":47905790},{"NoteNumber":72,"Velocity":78,"Duration":489494,"SoundDuration":489494,"Delta":47905790},{"NoteNumber":77,"Velocity":92,"Duration":489494,"SoundDuration":489494,"Delta":47905790},{"NoteNumber":45,"Velocity":89,"Duration":161829,"SoundDuration":161829,"Delta":47905790},{"NoteNumber":53,"Velocity":68,"Duration":80914,"SoundDuration":80914,"Delta":48067620},{"NoteNumber":53,"Velocity":64,"Duration":85043,"SoundDuration":85043,"Delta":48229450},{"NoteNumber":72,"Velocity":76,"Duration":325414,"SoundDuration":325414,"Delta":48399537},{"NoteNumber":69,"Velocity":64,"Duration":325414,"SoundDuration":325414,"Delta":48399537},{"NoteNumber":41,"Velocity":75,"Duration":162707,"SoundDuration":162707,"Delta":48399537},{"NoteNumber":53,"Velocity":64,"Duration":81353,"SoundDuration":81353,"Delta":48562244},{"NoteNumber":72,"Velocity":69,"Duration":81353,"SoundDuration":81353,"Delta":48724952},{"NoteNumber":69,"Velocity":57,"Duration":81353,"SoundDuration":81353,"Delta":48724952},{"NoteNumber":65,"Velocity":57,"Duration":81353,"SoundDuration":81353,"Delta":48724952},{"NoteNumber":53,"Velocity":63,"Duration":81353,"SoundDuration":81353,"Delta":48724952},{"NoteNumber":66,"Velocity":68,"Duration":323659,"SoundDuration":323659,"Delta":48887659},{"NoteNumber":75,"Velocity":80,"Duration":323659,"SoundDuration":323659,"Delta":48887659},{"NoteNumber":46,"Velocity":77,"Duration":1497660,"SoundDuration":1497660,"Delta":48887659},{"NoteNumber":73,"Velocity":63,"Duration":170087,"SoundDuration":170087,"Delta":49211319},{"NoteNumber":65,"Velocity":53,"Duration":170087,"SoundDuration":170087,"Delta":49211319},{"NoteNumber":66,"Velocity":51,"Duration":325414,"SoundDuration":325414,"Delta":49381406},{"NoteNumber":72,"Velocity":60,"Duration":325414,"SoundDuration":325414,"Delta":49381406},{"NoteNumber":63,"Velocity":51,"Duration":325414,"SoundDuration":325414,"Delta":49381406},{"NoteNumber":61,"Velocity":49,"Duration":184751,"SoundDuration":184751,"Delta":49706821},{"NoteNumber":65,"Velocity":49,"Duration":184751,"SoundDuration":184751,"Delta":49706821},{"NoteNumber":70,"Velocity":58,"Duration":184751,"SoundDuration":184751,"Delta":49706821},{"NoteNumber":63,"Velocity":55,"Duration":323659,"SoundDuration":323659,"Delta":49891573},{"NoteNumber":60,"Velocity":55,"Duration":323659,"SoundDuration":323659,"Delta":49891573},{"NoteNumber":68,"Velocity":65,"Duration":323659,"SoundDuration":323659,"Delta":49891573},{"NoteNumber":58,"Velocity":46,"Duration":170087,"SoundDuration":170087,"Delta":50215232},{"NoteNumber":66,"Velocity":54,"Duration":170087,"SoundDuration":170087,"Delta":50215232},{"NoteNumber":61,"Velocity":46,"Duration":170087,"SoundDuration":170087,"Delta":50215232},{"NoteNumber":60,"Velocity":44,"Duration":348361,"SoundDuration":348361,"Delta":50385320},{"NoteNumber":65,"Velocity":52,"Duration":348361,"SoundDuration":348361,"Delta":50385320},{"NoteNumber":57,"Velocity":44,"Duration":348361,"SoundDuration":348361,"Delta":50385320},{"NoteNumber":48,"Velocity":58,"Duration":556146,"SoundDuration":556146,"Delta":50385320},{"NoteNumber":58,"Velocity":42,"Duration":155838,"SoundDuration":155838,"Delta":50733681},{"NoteNumber":55,"Velocity":42,"Duration":155838,"SoundDuration":155838,"Delta":50733681},{"NoteNumber":64,"Velocity":50,"Duration":155838,"SoundDuration":155838,"Delta":50733681},{"NoteNumber":55,"Velocity":37,"Duration":547511,"SoundDuration":547511,"Delta":50941466},{"NoteNumber":58,"Velocity":37,"Duration":547511,"SoundDuration":547511,"Delta":50941466},{"NoteNumber":64,"Velocity":45,"Duration":547511,"SoundDuration":547511,"Delta":50941466},{"NoteNumber":41,"Velocity":52,"Duration":1095024,"SoundDuration":1095024,"Delta":50941466},{"NoteNumber":57,"Velocity":37,"Duration":547512,"SoundDuration":547512,"Delta":51488978},{"NoteNumber":65,"Velocity":45,"Duration":547512,"SoundDuration":547512,"Delta":51488978},{"NoteNumber":53,"Velocity":43,"Duration":163594,"SoundDuration":163594,"Delta":52036490},{"NoteNumber":54,"Velocity":41,"Duration":163594,"SoundDuration":163594,"Delta":52200085},{"NoteNumber":53,"Velocity":38,"Duration":163594,"SoundDuration":163594,"Delta":52363680},{"NoteNumber":51,"Velocity":41,"Duration":166315,"SoundDuration":166315,"Delta":52527274},{"NoteNumber":49,"Velocity":38,"Duration":174033,"SoundDuration":174033,"Delta":52693590},{"NoteNumber":73,"Velocity":43,"Duration":84090,"SoundDuration":84090,"Delta":52867624},{"NoteNumber":77,"Velocity":43,"Duration":84090,"SoundDuration":84090,"Delta":52867624},{"NoteNumber":48,"Velocity":38,"Duration":168180,"SoundDuration":168180,"Delta":52867624},{"NoteNumber":65,"Velocity":40,"Duration":325414,"SoundDuration":325414,"Delta":53035804},{"NoteNumber":73,"Velocity":50,"Duration":162707,"SoundDuration":162707,"Delta":53035804},{"NoteNumber":77,"Velocity":50,"Duration":162707,"SoundDuration":162707,"Delta":53035804},{"NoteNumber":61,"Velocity":40,"Duration":325414,"SoundDuration":325414,"Delta":53035804},{"NoteNumber":73,"Velocity":45,"Duration":162707,"SoundDuration":162707,"Delta":53198512},{"NoteNumber":70,"Velocity":45,"Duration":162707,"SoundDuration":162707,"Delta":53198512},{"NoteNumber":77,"Velocity":45,"Duration":86019,"SoundDuration":86019,"Delta":53361219},{"NoteNumber":73,"Velocity":45,"Duration":86019,"SoundDuration":86019,"Delta":53361219},{"NoteNumber":46,"Velocity":35,"Duration":402842,"SoundDuration":402842,"Delta":53447238},{"NoteNumber":65,"Velocity":40,"Duration":316823,"SoundDuration":316823,"Delta":53533257},{"NoteNumber":73,"Velocity":50,"Duration":158411,"SoundDuration":158411,"Delta":53533257},{"NoteNumber":77,"Velocity":50,"Duration":158411,"SoundDuration":158411,"Delta":53533257},{"NoteNumber":61,"Velocity":40,"Duration":316823,"SoundDuration":316823,"Delta":53533257},{"NoteNumber":73,"Velocity":46,"Duration":158411,"SoundDuration":158411,"Delta":53691669},{"NoteNumber":70,"Velocity":46,"Duration":158411,"SoundDuration":158411,"Delta":53691669},{"NoteNumber":77,"Velocity":46,"Duration":85043,"SoundDuration":85043,"Delta":53850081},{"NoteNumber":73,"Velocity":46,"Duration":85043,"SoundDuration":85043,"Delta":53850081},{"NoteNumber":46,"Velocity":35,"Duration":398556,"SoundDuration":398556,"Delta":53935124},{"NoteNumber":65,"Velocity":40,"Duration":313512,"SoundDuration":313512,"Delta":54020168},{"NoteNumber":73,"Velocity":50,"Duration":156756,"SoundDuration":156756,"Delta":54020168},{"NoteNumber":77,"Velocity":50,"Duration":156756,"SoundDuration":156756,"Delta":54020168},{"NoteNumber":61,"Velocity":40,"Duration":313512,"SoundDuration":313512,"Delta":54020168},{"NoteNumber":73,"Velocity":45,"Duration":156756,"SoundDuration":156756,"Delta":54176924},{"NoteNumber":70,"Velocity":45,"Duration":156756,"SoundDuration":156756,"Delta":54176924},{"NoteNumber":77,"Velocity":45,"Duration":85528,"SoundDuration":85528,"Delta":54333681},{"NoteNumber":73,"Velocity":45,"Duration":85528,"SoundDuration":85528,"Delta":54333681},{"NoteNumber":46,"Velocity":35,"Duration":414512,"SoundDuration":414512,"Delta":54419209},{"NoteNumber":65,"Velocity":40,"Duration":328983,"SoundDuration":328983,"Delta":54504738},{"NoteNumber":73,"Velocity":50,"Duration":164491,"SoundDuration":164491,"Delta":54504738},{"NoteNumber":77,"Velocity":50,"Duration":164491,"SoundDuration":164491,"Delta":54504738},{"NoteNumber":61,"Velocity":40,"Duration":328983,"SoundDuration":328983,"Delta":54504738},{"NoteNumber":73,"Velocity":46,"Duration":164491,"SoundDuration":164491,"Delta":54669230},{"NoteNumber":70,"Velocity":46,"Duration":164491,"SoundDuration":164491,"Delta":54669230},{"NoteNumber":77,"Velocity":46,"Duration":88038,"SoundDuration":88038,"Delta":54833721},{"NoteNumber":73,"Velocity":46,"Duration":88038,"SoundDuration":88038,"Delta":54833721},{"NoteNumber":46,"Velocity":35,"Duration":420669,"SoundDuration":420669,"Delta":54921760},{"NoteNumber":66,"Velocity":71,"Duration":831577,"SoundDuration":831577,"Delta":55009798},{"NoteNumber":73,"Velocity":50,"Duration":166315,"SoundDuration":166315,"Delta":55009798},{"NoteNumber":61,"Velocity":40,"Duration":332630,"SoundDuration":332630,"Delta":55009798},{"NoteNumber":70,"Velocity":45,"Duration":166315,"SoundDuration":166315,"Delta":55176114},{"NoteNumber":73,"Velocity":45,"Duration":83157,"SoundDuration":83157,"Delta":55342429},{"NoteNumber":46,"Velocity":35,"Duration":415788,"SoundDuration":415788,"Delta":55425587},{"NoteNumber":73,"Velocity":50,"Duration":166315,"SoundDuration":166315,"Delta":55508745},{"NoteNumber":61,"Velocity":40,"Duration":332630,"SoundDuration":332630,"Delta":55508745},{"NoteNumber":70,"Velocity":46,"Duration":166315,"SoundDuration":166315,"Delta":55675060},{"NoteNumber":65,"Velocity":60,"Duration":168180,"SoundDuration":168180,"Delta":55841376},{"NoteNumber":73,"Velocity":46,"Duration":84090,"SoundDuration":84090,"Delta":55841376},{"NoteNumber":46,"Velocity":35,"Duration":416721,"SoundDuration":416721,"Delta":55925466},{"NoteNumber":64,"Velocity":72,"Duration":748419,"SoundDuration":748419,"Delta":56009556},{"NoteNumber":73,"Velocity":50,"Duration":166315,"SoundDuration":166315,"Delta":56009556},{"NoteNumber":61,"Velocity":40,"Duration":332630,"SoundDuration":332630,"Delta":56009556},{"NoteNumber":70,"Velocity":45,"Duration":166315,"SoundDuration":166315,"Delta":56175871},{"NoteNumber":73,"Velocity":45,"Duration":83157,"SoundDuration":83157,"Delta":56342187},{"NoteNumber":46,"Velocity":35,"Duration":415788,"SoundDuration":415788,"Delta":56425345},{"NoteNumber":73,"Velocity":50,"Duration":166315,"SoundDuration":166315,"Delta":56508502},{"NoteNumber":61,"Velocity":40,"Duration":332630,"SoundDuration":332630,"Delta":56508502},{"NoteNumber":70,"Velocity":46,"Duration":166315,"SoundDuration":166315,"Delta":56674818},{"NoteNumber":73,"Velocity":61,"Duration":83157,"SoundDuration":83157,"Delta":56841133},{"NoteNumber":64,"Velocity":60,"Duration":166315,"SoundDuration":166315,"Delta":56841133},{"NoteNumber":65,"Velocity":75,"Duration":647319,"SoundDuration":647319,"Delta":57007449},{"NoteNumber":45,"Velocity":49,"Duration":161829,"SoundDuration":161829,"Delta":57007449},{"NoteNumber":60,"Velocity":54,"Duration":80914,"SoundDuration":80914,"Delta":57169279},{"NoteNumber":63,"Velocity":54,"Duration":80914,"SoundDuration":80914,"Delta":57169279},{"NoteNumber":53,"Velocity":40,"Duration":80914,"SoundDuration":80914,"Delta":57169279},{"NoteNumber":60,"Velocity":54,"Duration":80914,"SoundDuration":80914,"Delta":57331108},{"NoteNumber":63,"Velocity":54,"Duration":80914,"SoundDuration":80914,"Delta":57331108},{"NoteNumber":53,"Velocity":42,"Duration":80914,"SoundDuration":80914,"Delta":57331108},{"NoteNumber":60,"Velocity":54,"Duration":80914,"SoundDuration":80914,"Delta":57492938},{"NoteNumber":63,"Velocity":54,"Duration":80914,"SoundDuration":80914,"Delta":57492938},{"NoteNumber":41,"Velocity":42,"Duration":161829,"SoundDuration":161829,"Delta":57492938},{"NoteNumber":58,"Velocity":54,"Duration":80914,"SoundDuration":80914,"Delta":57654768},{"NoteNumber":67,"Velocity":56,"Duration":80914,"SoundDuration":80914,"Delta":57654768},{"NoteNumber":53,"Velocity":47,"Duration":80914,"SoundDuration":80914,"Delta":57654768},{"NoteNumber":60,"Velocity":54,"Duration":80914,"SoundDuration":80914,"Delta":57816598},{"NoteNumber":69,"Velocity":61,"Duration":80914,"SoundDuration":80914,"Delta":57816598},{"NoteNumber":53,"Velocity":50,"Duration":80914,"SoundDuration":80914,"Delta":57816598},{"NoteNumber":72,"Velocity":64,"Duration":80914,"SoundDuration":80914,"Delta":57897513},{"NoteNumber":61,"Velocity":61,"Duration":80914,"SoundDuration":80914,"Delta":57978427},{"NoteNumber":70,"Velocity":73,"Duration":80914,"SoundDuration":80914,"Delta":57978427},{"NoteNumber":46,"Velocity":54,"Duration":161829,"SoundDuration":161829,"Delta":57978427},{"NoteNumber":60,"Velocity":54,"Duration":80914,"SoundDuration":80914,"Delta":58140257},{"NoteNumber":69,"Velocity":63,"Duration":80914,"SoundDuration":80914,"Delta":58140257},{"NoteNumber":53,"Velocity":43,"Duration":80914,"SoundDuration":80914,"Delta":58140257},{"NoteNumber":61,"Velocity":53,"Duration":83621,"SoundDuration":83621,"Delta":58302087},{"NoteNumber":70,"Velocity":63,"Duration":83621,"SoundDuration":83621,"Delta":58302087},{"NoteNumber":53,"Velocity":46,"Duration":83621,"SoundDuration":83621,"Delta":58302087},{"NoteNumber":65,"Velocity":60,"Duration":81353,"SoundDuration":81353,"Delta":58469330},{"NoteNumber":73,"Velocity":71,"Duration":81353,"SoundDuration":81353,"Delta":58469330},{"NoteNumber":39,"Velocity":58,"Duration":162707,"SoundDuration":162707,"Delta":58469330},{"NoteNumber":63,"Velocity":53,"Duration":81353,"SoundDuration":81353,"Delta":58632037},{"NoteNumber":72,"Velocity":63,"Duration":81353,"SoundDuration":81353,"Delta":58632037},{"NoteNumber":54,"Velocity":48,"Duration":81353,"SoundDuration":81353,"Delta":58632037},{"NoteNumber":61,"Velocity":58,"Duration":86515,"SoundDuration":86515,"Delta":58794745},{"NoteNumber":70,"Velocity":70,"Duration":86515,"SoundDuration":86515,"Delta":58794745},{"NoteNumber":54,"Velocity":48,"Duration":86515,"SoundDuration":86515,"Delta":58794745},{"NoteNumber":61,"Velocity":70,"Duration":992007,"SoundDuration":992007,"Delta":58967775},{"NoteNumber":70,"Velocity":82,"Duration":992007,"SoundDuration":992007,"Delta":58967775},{"NoteNumber":41,"Velocity":60,"Duration":163594,"SoundDuration":163594,"Delta":58967775},{"NoteNumber":53,"Velocity":49,"Duration":81797,"SoundDuration":81797,"Delta":59131370},{"NoteNumber":53,"Velocity":46,"Duration":81797,"SoundDuration":81797,"Delta":59294964},{"NoteNumber":64,"Velocity":66,"Duration":501223,"SoundDuration":501223,"Delta":59458559},{"NoteNumber":53,"Velocity":55,"Duration":81797,"SoundDuration":81797,"Delta":59458559},{"NoteNumber":53,"Velocity":46,"Duration":81797,"SoundDuration":81797,"Delta":59622154},{"NoteNumber":53,"Velocity":46,"Duration":87017,"SoundDuration":87017,"Delta":59785749},{"NoteNumber":60,"Velocity":67,"Duration":488122,"SoundDuration":488122,"Delta":59959783},{"NoteNumber":65,"Velocity":67,"Duration":488122,"SoundDuration":488122,"Delta":59959783},{"NoteNumber":69,"Velocity":80,"Duration":488122,"SoundDuration":488122,"Delta":59959783},{"NoteNumber":53,"Velocity":56,"Duration":162707,"SoundDuration":162707,"Delta":59959783},{"NoteNumber":54,"Velocity":46,"Duration":162707,"SoundDuration":162707,"Delta":60122490},{"NoteNumber":53,"Velocity":48,"Duration":81353,"SoundDuration":81353,"Delta":60285198},{"NoteNumber":53,"Velocity":52,"Duration":81353,"SoundDuration":81353,"Delta":60447905},{"NoteNumber":53,"Velocity":46,"Duration":91251,"SoundDuration":91251,"Delta":60610613},{"NoteNumber":73,"Velocity":43,"Duration":81353,"SoundDuration":81353,"Delta":60793117},{"NoteNumber":77,"Velocity":43,"Duration":81353,"SoundDuration":81353,"Delta":60793117},{"NoteNumber":53,"Velocity":40,"Duration":81353,"SoundDuration":81353,"Delta":60793117},{"NoteNumber":46,"Velocity":35,"Duration":393236,"SoundDuration":393236,"Delta":60874470},{"NoteNumber":65,"Velocity":40,"Duration":311882,"SoundDuration":311882,"Delta":60955824},{"NoteNumber":73,"Velocity":50,"Duration":155941,"SoundDuration":155941,"Delta":60955824},{"NoteNumber":77,"Velocity":50,"Duration":155941,"SoundDuration":155941,"Delta":60955824},{"NoteNumber":61,"Velocity":40,"Duration":311882,"SoundDuration":311882,"Delta":60955824},{"NoteNumber":73,"Velocity":45,"Duration":155941,"SoundDuration":155941,"Delta":61111765},{"NoteNumber":70,"Velocity":45,"Duration":155941,"SoundDuration":155941,"Delta":61111765},{"NoteNumber":77,"Velocity":45,"Duration":84564,"SoundDuration":84564,"Delta":61267707},{"NoteNumber":73,"Velocity":45,"Duration":84564,"SoundDuration":84564,"Delta":61267707},{"NoteNumber":46,"Velocity":36,"Duration":396446,"SoundDuration":396446,"Delta":61352271},{"NoteNumber":65,"Velocity":41,"Duration":311882,"SoundDuration":311882,"Delta":61436835},{"NoteNumber":73,"Velocity":51,"Duration":155941,"SoundDuration":155941,"Delta":61436835},{"NoteNumber":77,"Velocity":51,"Duration":155941,"SoundDuration":155941,"Delta":61436835},{"NoteNumber":61,"Velocity":41,"Duration":311882,"SoundDuration":311882,"Delta":61436835},{"NoteNumber":73,"Velocity":48,"Duration":155941,"SoundDuration":155941,"Delta":61592776},{"NoteNumber":70,"Velocity":48,"Duration":155941,"SoundDuration":155941,"Delta":61592776},{"NoteNumber":77,"Velocity":48,"Duration":83621,"SoundDuration":83621,"Delta":61748718},{"NoteNumber":73,"Velocity":48,"Duration":83621,"SoundDuration":83621,"Delta":61748718},{"NoteNumber":46,"Velocity":37,"Duration":393891,"SoundDuration":393891,"Delta":61832339},{"NoteNumber":65,"Velocity":42,"Duration":310270,"SoundDuration":310270,"Delta":61915960},{"NoteNumber":73,"Velocity":53,"Duration":155135,"SoundDuration":155135,"Delta":61915960},{"NoteNumber":77,"Velocity":53,"Duration":155135,"SoundDuration":155135,"Delta":61915960},{"NoteNumber":61,"Velocity":42,"Duration":310270,"SoundDuration":310270,"Delta":61915960},{"NoteNumber":73,"Velocity":50,"Duration":155135,"SoundDuration":155135,"Delta":62071095},{"NoteNumber":70,"Velocity":50,"Duration":155135,"SoundDuration":155135,"Delta":62071095},{"NoteNumber":77,"Velocity":55,"Duration":83621,"SoundDuration":83621,"Delta":62226231},{"NoteNumber":73,"Velocity":55,"Duration":83621,"SoundDuration":83621,"Delta":62226231},{"NoteNumber":46,"Velocity":44,"Duration":405544,"SoundDuration":405544,"Delta":62309852},{"NoteNumber":65,"Velocity":53,"Duration":321922,"SoundDuration":321922,"Delta":62393473},{"NoteNumber":73,"Velocity":66,"Duration":160961,"SoundDuration":160961,"Delta":62393473},{"NoteNumber":77,"Velocity":66,"Duration":160961,"SoundDuration":160961,"Delta":62393473},{"NoteNumber":61,"Velocity":53,"Duration":321922,"SoundDuration":321922,"Delta":62393473},{"NoteNumber":73,"Velocity":63,"Duration":160961,"SoundDuration":160961,"Delta":62554435},{"NoteNumber":70,"Velocity":63,"Duration":160961,"SoundDuration":160961,"Delta":62554435},{"NoteNumber":77,"Velocity":68,"Duration":92948,"SoundDuration":92948,"Delta":62715396},{"NoteNumber":73,"Velocity":68,"Duration":92948,"SoundDuration":92948,"Delta":62715396},{"NoteNumber":68,"Velocity":58,"Duration":493475,"SoundDuration":493475,"Delta":62901293},{"NoteNumber":77,"Velocity":66,"Duration":493475,"SoundDuration":493475,"Delta":62901293},{"NoteNumber":80,"Velocity":82,"Duration":493475,"SoundDuration":493475,"Delta":62901293},{"NoteNumber":62,"Velocity":69,"Duration":493475,"SoundDuration":493475,"Delta":62901293},{"NoteNumber":51,"Velocity":69,"Duration":1988391,"SoundDuration":1988391,"Delta":62901293},{"NoteNumber":59,"Velocity":49,"Duration":82245,"SoundDuration":82245,"Delta":63065785},{"NoteNumber":59,"Velocity":46,"Duration":82245,"SoundDuration":82245,"Delta":63230276},{"NoteNumber":66,"Velocity":56,"Duration":324594,"SoundDuration":324594,"Delta":63394768},{"NoteNumber":75,"Velocity":56,"Duration":324594,"SoundDuration":324594,"Delta":63394768},{"NoteNumber":78,"Velocity":66,"Duration":324594,"SoundDuration":324594,"Delta":63394768},{"NoteNumber":59,"Velocity":55,"Duration":82245,"SoundDuration":82245,"Delta":63394768},{"NoteNumber":59,"Velocity":46,"Duration":80051,"SoundDuration":80051,"Delta":63559260},{"NoteNumber":65,"Velocity":56,"Duration":86018,"SoundDuration":86018,"Delta":63719362},{"NoteNumber":73,"Velocity":56,"Duration":86018,"SoundDuration":86018,"Delta":63719362},{"NoteNumber":77,"Velocity":66,"Duration":86018,"SoundDuration":86018,"Delta":63719362},{"NoteNumber":59,"Velocity":46,"Duration":86018,"SoundDuration":86018,"Delta":63719362},{"NoteNumber":65,"Velocity":58,"Duration":490784,"SoundDuration":490784,"Delta":63891400},{"NoteNumber":68,"Velocity":67,"Duration":490784,"SoundDuration":490784,"Delta":63891400},{"NoteNumber":77,"Velocity":82,"Duration":490784,"SoundDuration":490784,"Delta":63891400},{"NoteNumber":62,"Velocity":60,"Duration":490784,"SoundDuration":490784,"Delta":63891400},{"NoteNumber":58,"Velocity":49,"Duration":81797,"SoundDuration":81797,"Delta":64054995},{"NoteNumber":58,"Velocity":46,"Duration":81797,"SoundDuration":81797,"Delta":64218590},{"NoteNumber":63,"Velocity":56,"Duration":327189,"SoundDuration":327189,"Delta":64382185},{"NoteNumber":75,"Velocity":66,"Duration":327189,"SoundDuration":327189,"Delta":64382185},{"NoteNumber":63,"Velocity":60,"Duration":507499,"SoundDuration":507499,"Delta":64382185},{"NoteNumber":58,"Velocity":55,"Duration":81797,"SoundDuration":81797,"Delta":64382185},{"NoteNumber":58,"Velocity":46,"Duration":81797,"SoundDuration":81797,"Delta":64545780},{"NoteNumber":58,"Velocity":46,"Duration":90155,"SoundDuration":90155,"Delta":64709374},{"NoteNumber":66,"Velocity":58,"Duration":493475,"SoundDuration":493475,"Delta":64889684},{"NoteNumber":70,"Velocity":66,"Duration":992514,"SoundDuration":992514,"Delta":64889684},{"NoteNumber":78,"Velocity":82,"Duration":493475,"SoundDuration":493475,"Delta":64889684},{"NoteNumber":54,"Velocity":49,"Duration":1999452,"SoundDuration":1999452,"Delta":64889684},{"NoteNumber":58,"Velocity":56,"Duration":992514,"SoundDuration":992514,"Delta":64889684},{"NoteNumber":75,"Velocity":69,"Duration":321922,"SoundDuration":321922,"Delta":65383160},{"NoteNumber":63,"Velocity":55,"Duration":321922,"SoundDuration":321922,"Delta":65383160},{"NoteNumber":73,"Velocity":65,"Duration":132837,"SoundDuration":132837,"Delta":65705083},{"NoteNumber":61,"Velocity":52,"Duration":132837,"SoundDuration":132837,"Delta":65705083},{"NoteNumber":70,"Velocity":69,"Duration":325415,"SoundDuration":325415,"Delta":65882199},{"NoteNumber":73,"Velocity":69,"Duration":325415,"SoundDuration":325415,"Delta":65882199},{"NoteNumber":61,"Velocity":55,"Duration":325415,"SoundDuration":325415,"Delta":65882199},{"NoteNumber":72,"Velocity":65,"Duration":126846,"SoundDuration":126846,"Delta":66207614},{"NoteNumber":60,"Velocity":52,"Duration":126846,"SoundDuration":126846,"Delta":66207614},{"NoteNumber":75,"Velocity":69,"Duration":329890,"SoundDuration":329890,"Delta":66376743},{"NoteNumber":63,"Velocity":55,"Duration":329890,"SoundDuration":329890,"Delta":66376743},{"NoteNumber":72,"Velocity":65,"Duration":136877,"SoundDuration":136877,"Delta":66706633},{"NoteNumber":60,"Velocity":52,"Duration":136877,"SoundDuration":136877,"Delta":66706633},{"NoteNumber":65,"Velocity":69,"Duration":1001769,"SoundDuration":1001769,"Delta":66889137},{"NoteNumber":72,"Velocity":69,"Duration":328983,"SoundDuration":328983,"Delta":66889137},{"NoteNumber":53,"Velocity":49,"Duration":1001769,"SoundDuration":1001769,"Delta":66889137},{"NoteNumber":60,"Velocity":55,"Duration":328983,"SoundDuration":328983,"Delta":66889137},{"NoteNumber":70,"Velocity":65,"Duration":128292,"SoundDuration":128292,"Delta":67218120},{"NoteNumber":58,"Velocity":52,"Duration":128292,"SoundDuration":128292,"Delta":67218120},{"NoteNumber":73,"Velocity":69,"Duration":334485,"SoundDuration":334485,"Delta":67389178},{"NoteNumber":61,"Velocity":55,"Duration":832525,"SoundDuration":832525,"Delta":67389178},{"NoteNumber":70,"Velocity":65,"Duration":125432,"SoundDuration":125432,"Delta":67723663},{"NoteNumber":65,"Velocity":69,"Duration":330797,"SoundDuration":330797,"Delta":67890906},{"NoteNumber":70,"Velocity":69,"Duration":330797,"SoundDuration":330797,"Delta":67890906},{"NoteNumber":41,"Velocity":41,"Duration":1111592,"SoundDuration":1111592,"Delta":67890906},{"NoteNumber":69,"Velocity":61,"Duration":178131,"SoundDuration":178131,"Delta":68221703},{"NoteNumber":60,"Velocity":52,"Duration":97162,"SoundDuration":97162,"Delta":68221703},{"NoteNumber":69,"Velocity":69,"Duration":586469,"SoundDuration":586469,"Delta":68416029},{"NoteNumber":65,"Velocity":49,"Duration":364870,"SoundDuration":364870,"Delta":68416029},{"NoteNumber":73,"Velocity":62,"Duration":364870,"SoundDuration":364870,"Delta":68416029},{"NoteNumber":63,"Velocity":54,"Duration":166198,"SoundDuration":166198,"Delta":68780900},{"NoteNumber":72,"Velocity":54,"Duration":166198,"SoundDuration":166198,"Delta":68780900},{"NoteNumber":72,"Velocity":58,"Duration":498946,"SoundDuration":498946,"Delta":69002498},{"NoteNumber":69,"Velocity":49,"Duration":498946,"SoundDuration":498946,"Delta":69002498},{"NoteNumber":63,"Velocity":49,"Duration":498946,"SoundDuration":498946,"Delta":69002498},{"NoteNumber":46,"Velocity":41,"Duration":997893,"SoundDuration":997893,"Delta":69002498},{"NoteNumber":61,"Velocity":41,"Duration":498946,"SoundDuration":498946,"Delta":69501445},{"NoteNumber":70,"Velocity":49,"Duration":498946,"SoundDuration":498946,"Delta":69501445},{"NoteNumber":53,"Velocity":43,"Duration":163594,"SoundDuration":163594,"Delta":70000391},{"NoteNumber":54,"Velocity":41,"Duration":163594,"SoundDuration":163594,"Delta":70163986},{"NoteNumber":53,"Velocity":38,"Duration":163594,"SoundDuration":163594,"Delta":70327581},{"NoteNumber":51,"Velocity":41,"Duration":166315,"SoundDuration":166315,"Delta":70491175},{"NoteNumber":49,"Velocity":38,"Duration":174034,"SoundDuration":174034,"Delta":70657491},{"NoteNumber":63,"Velocity":43,"Duration":84090,"SoundDuration":84090,"Delta":70831525},{"NoteNumber":65,"Velocity":43,"Duration":84090,"SoundDuration":84090,"Delta":70831525},{"NoteNumber":48,"Velocity":38,"Duration":168180,"SoundDuration":168180,"Delta":70831525},{"NoteNumber":62,"Velocity":50,"Duration":160961,"SoundDuration":160961,"Delta":70999705},{"NoteNumber":65,"Velocity":50,"Duration":160961,"SoundDuration":160961,"Delta":70999705},{"NoteNumber":46,"Velocity":40,"Duration":321922,"SoundDuration":321922,"Delta":70999705},{"NoteNumber":70,"Velocity":45,"Duration":160961,"SoundDuration":160961,"Delta":71160667},{"NoteNumber":58,"Velocity":45,"Duration":160961,"SoundDuration":160961,"Delta":71160667},{"NoteNumber":65,"Velocity":45,"Duration":86018,"SoundDuration":86018,"Delta":71321628},{"NoteNumber":62,"Velocity":45,"Duration":86018,"SoundDuration":86018,"Delta":71321628},{"NoteNumber":62,"Velocity":50,"Duration":160961,"SoundDuration":160961,"Delta":71493666},{"NoteNumber":65,"Velocity":50,"Duration":160961,"SoundDuration":160961,"Delta":71493666},{"NoteNumber":46,"Velocity":40,"Duration":321922,"SoundDuration":321922,"Delta":71493666},{"NoteNumber":70,"Velocity":46,"Duration":160961,"SoundDuration":160961,"Delta":71654628},{"NoteNumber":58,"Velocity":46,"Duration":160961,"SoundDuration":160961,"Delta":71654628},{"NoteNumber":65,"Velocity":46,"Duration":85043,"SoundDuration":85043,"Delta":71815589},{"NoteNumber":62,"Velocity":46,"Duration":85043,"SoundDuration":85043,"Delta":71815589},{"NoteNumber":58,"Velocity":46,"Duration":493746,"SoundDuration":493746,"Delta":71985676},{"NoteNumber":65,"Velocity":46,"Duration":493746,"SoundDuration":493746,"Delta":71985676},{"NoteNumber":68,"Velocity":46,"Duration":493746,"SoundDuration":493746,"Delta":71985676},{"NoteNumber":39,"Velocity":49,"Duration":323659,"SoundDuration":323659,"Delta":71985676},{"NoteNumber":46,"Velocity":39,"Duration":80914,"SoundDuration":80914,"Delta":72147506},{"NoteNumber":46,"Velocity":38,"Duration":85043,"SoundDuration":85043,"Delta":72309336},{"NoteNumber":63,"Velocity":46,"Duration":162707,"SoundDuration":162707,"Delta":72479423},{"NoteNumber":66,"Velocity":46,"Duration":162707,"SoundDuration":162707,"Delta":72479423},{"NoteNumber":42,"Velocity":45,"Duration":325415,"SoundDuration":325415,"Delta":72479423},{"NoteNumber":46,"Velocity":45,"Duration":81353,"SoundDuration":81353,"Delta":72479423},{"NoteNumber":46,"Velocity":42,"Duration":81353,"SoundDuration":81353,"Delta":72642131},{"NoteNumber":63,"Velocity":43,"Duration":84090,"SoundDuration":84090,"Delta":72804838},{"NoteNumber":66,"Velocity":43,"Duration":84090,"SoundDuration":84090,"Delta":72804838},{"NoteNumber":46,"Velocity":42,"Duration":84090,"SoundDuration":84090,"Delta":72804838},{"NoteNumber":62,"Velocity":50,"Duration":160961,"SoundDuration":160961,"Delta":72973018},{"NoteNumber":65,"Velocity":50,"Duration":160961,"SoundDuration":160961,"Delta":72973018},{"NoteNumber":46,"Velocity":40,"Duration":321922,"SoundDuration":321922,"Delta":72973018},{"NoteNumber":70,"Velocity":45,"Duration":160961,"SoundDuration":160961,"Delta":73133980},{"NoteNumber":58,"Velocity":45,"Duration":160961,"SoundDuration":160961,"Delta":73133980},{"NoteNumber":65,"Velocity":45,"Duration":86018,"SoundDuration":86018,"Delta":73294941},{"NoteNumber":62,"Velocity":45,"Duration":86018,"SoundDuration":86018,"Delta":73294941},{"NoteNumber":62,"Velocity":50,"Duration":160961,"SoundDuration":160961,"Delta":73466979},{"NoteNumber":65,"Velocity":50,"Duration":160961,"SoundDuration":160961,"Delta":73466979},{"NoteNumber":46,"Velocity":40,"Duration":321922,"SoundDuration":321922,"Delta":73466979},{"NoteNumber":70,"Velocity":46,"Duration":160961,"SoundDuration":160961,"Delta":73627941},{"NoteNumber":58,"Velocity":46,"Duration":160961,"SoundDuration":160961,"Delta":73627941},{"NoteNumber":65,"Velocity":46,"Duration":85043,"SoundDuration":85043,"Delta":73788902},{"NoteNumber":62,"Velocity":46,"Duration":85043,"SoundDuration":85043,"Delta":73788902},{"NoteNumber":58,"Velocity":46,"Duration":493746,"SoundDuration":493746,"Delta":73958990},{"NoteNumber":65,"Velocity":46,"Duration":493746,"SoundDuration":493746,"Delta":73958990},{"NoteNumber":68,"Velocity":46,"Duration":493746,"SoundDuration":493746,"Delta":73958990},{"NoteNumber":39,"Velocity":49,"Duration":323659,"SoundDuration":323659,"Delta":73958990},{"NoteNumber":46,"Velocity":39,"Duration":80914,"SoundDuration":80914,"Delta":74120819},{"NoteNumber":46,"Velocity":38,"Duration":85043,"SoundDuration":85043,"Delta":74282649},{"NoteNumber":63,"Velocity":46,"Duration":162707,"SoundDuration":162707,"Delta":74452736},{"NoteNumber":66,"Velocity":46,"Duration":162707,"SoundDuration":162707,"Delta":74452736},{"NoteNumber":48,"Velocity":45,"Duration":81353,"SoundDuration":81353,"Delta":74452736},{"NoteNumber":48,"Velocity":42,"Duration":81353,"SoundDuration":81353,"Delta":74615444},{"NoteNumber":66,"Velocity":49,"Duration":84090,"SoundDuration":84090,"Delta":74778151},{"NoteNumber":63,"Velocity":49,"Duration":84090,"SoundDuration":84090,"Delta":74778151},{"NoteNumber":70,"Velocity":49,"Duration":84090,"SoundDuration":84090,"Delta":74778151},{"NoteNumber":48,"Velocity":48,"Duration":84090,"SoundDuration":84090,"Delta":74778151},{"NoteNumber":65,"Velocity":57,"Duration":159252,"SoundDuration":159252,"Delta":74946332},{"NoteNumber":68,"Velocity":57,"Duration":159252,"SoundDuration":159252,"Delta":74946332},{"NoteNumber":41,"Velocity":39,"Duration":318505,"SoundDuration":318505,"Delta":74946332},{"NoteNumber":49,"Velocity":46,"Duration":318505,"SoundDuration":318505,"Delta":74946332},{"NoteNumber":73,"Velocity":51,"Duration":159252,"SoundDuration":159252,"Delta":75105584},{"NoteNumber":61,"Velocity":51,"Duration":159252,"SoundDuration":159252,"Delta":75105584},{"NoteNumber":68,"Velocity":51,"Duration":86018,"SoundDuration":86018,"Delta":75264837},{"NoteNumber":65,"Velocity":51,"Duration":86018,"SoundDuration":86018,"Delta":75264837},{"NoteNumber":65,"Velocity":58,"Duration":159252,"SoundDuration":159252,"Delta":75436875},{"NoteNumber":68,"Velocity":58,"Duration":159252,"SoundDuration":159252,"Delta":75436875},{"NoteNumber":37,"Velocity":39,"Duration":318505,"SoundDuration":318505,"Delta":75436875},{"NoteNumber":49,"Velocity":46,"Duration":318505,"SoundDuration":318505,"Delta":75436875},{"NoteNumber":73,"Velocity":53,"Duration":159252,"SoundDuration":159252,"Delta":75596127},{"NoteNumber":61,"Velocity":53,"Duration":159252,"SoundDuration":159252,"Delta":75596127},{"NoteNumber":68,"Velocity":53,"Duration":88038,"SoundDuration":88038,"Delta":75755380},{"NoteNumber":65,"Velocity":53,"Duration":88038,"SoundDuration":88038,"Delta":75755380},{"NoteNumber":65,"Velocity":54,"Duration":493746,"SoundDuration":493746,"Delta":75931457},{"NoteNumber":61,"Velocity":54,"Duration":493746,"SoundDuration":493746,"Delta":75931457},{"NoteNumber":68,"Velocity":54,"Duration":493746,"SoundDuration":493746,"Delta":75931457},{"NoteNumber":71,"Velocity":54,"Duration":493746,"SoundDuration":493746,"Delta":75931457},{"NoteNumber":42,"Velocity":58,"Duration":323659,"SoundDuration":323659,"Delta":75931457},{"NoteNumber":49,"Velocity":45,"Duration":80914,"SoundDuration":80914,"Delta":76093286},{"NoteNumber":49,"Velocity":45,"Duration":85043,"SoundDuration":85043,"Delta":76255116},{"NoteNumber":66,"Velocity":55,"Duration":162707,"SoundDuration":162707,"Delta":76425203},{"NoteNumber":70,"Velocity":55,"Duration":162707,"SoundDuration":162707,"Delta":76425203},{"NoteNumber":46,"Velocity":59,"Duration":325415,"SoundDuration":325415,"Delta":76425203},{"NoteNumber":49,"Velocity":54,"Duration":81353,"SoundDuration":81353,"Delta":76425203},{"NoteNumber":49,"Velocity":50,"Duration":81353,"SoundDuration":81353,"Delta":76587911},{"NoteNumber":66,"Velocity":59,"Duration":84090,"SoundDuration":84090,"Delta":76750618},{"NoteNumber":70,"Velocity":59,"Duration":84090,"SoundDuration":84090,"Delta":76750618},{"NoteNumber":49,"Velocity":58,"Duration":84090,"SoundDuration":84090,"Delta":76750618},{"NoteNumber":65,"Velocity":69,"Duration":160102,"SoundDuration":160102,"Delta":76918799},{"NoteNumber":68,"Velocity":69,"Duration":160102,"SoundDuration":160102,"Delta":76918799},{"NoteNumber":41,"Velocity":47,"Duration":320205,"SoundDuration":320205,"Delta":76918799},{"NoteNumber":49,"Velocity":55,"Duration":320205,"SoundDuration":320205,"Delta":76918799},{"NoteNumber":73,"Velocity":62,"Duration":160102,"SoundDuration":160102,"Delta":77078901},{"NoteNumber":61,"Velocity":62,"Duration":160102,"SoundDuration":160102,"Delta":77078901},{"NoteNumber":68,"Velocity":64,"Duration":86018,"SoundDuration":86018,"Delta":77239004},{"NoteNumber":65,"Velocity":64,"Duration":86018,"SoundDuration":86018,"Delta":77239004},{"NoteNumber":65,"Velocity":74,"Duration":160102,"SoundDuration":160102,"Delta":77411042},{"NoteNumber":68,"Velocity":74,"Duration":160102,"SoundDuration":160102,"Delta":77411042},{"NoteNumber":37,"Velocity":50,"Duration":320205,"SoundDuration":320205,"Delta":77411042},{"NoteNumber":49,"Velocity":58,"Duration":320205,"SoundDuration":320205,"Delta":77411042},{"NoteNumber":73,"Velocity":68,"Duration":160102,"SoundDuration":160102,"Delta":77571144},{"NoteNumber":61,"Velocity":68,"Duration":160102,"SoundDuration":160102,"Delta":77571144},{"NoteNumber":68,"Velocity":69,"Duration":91810,"SoundDuration":91810,"Delta":77731247},{"NoteNumber":65,"Velocity":69,"Duration":91810,"SoundDuration":91810,"Delta":77731247},{"NoteNumber":65,"Velocity":71,"Duration":493746,"SoundDuration":493746,"Delta":77914868},{"NoteNumber":62,"Velocity":71,"Duration":493746,"SoundDuration":493746,"Delta":77914868},{"NoteNumber":68,"Velocity":71,"Duration":493746,"SoundDuration":493746,"Delta":77914868},{"NoteNumber":71,"Velocity":71,"Duration":493746,"SoundDuration":493746,"Delta":77914868},{"NoteNumber":42,"Velocity":77,"Duration":323659,"SoundDuration":323659,"Delta":77914868},{"NoteNumber":50,"Velocity":61,"Duration":80914,"SoundDuration":80914,"Delta":78076697},{"NoteNumber":50,"Velocity":61,"Duration":85043,"SoundDuration":85043,"Delta":78238527},{"NoteNumber":66,"Velocity":75,"Duration":162707,"SoundDuration":162707,"Delta":78408614},{"NoteNumber":70,"Velocity":75,"Duration":162707,"SoundDuration":162707,"Delta":78408614},{"NoteNumber":51,"Velocity":74,"Duration":81353,"SoundDuration":81353,"Delta":78408614},{"NoteNumber":51,"Velocity":71,"Duration":81353,"SoundDuration":81353,"Delta":78571322},{"NoteNumber":51,"Velocity":71,"Duration":94708,"SoundDuration":94708,"Delta":78734029},{"NoteNumber":65,"Velocity":78,"Duration":489494,"SoundDuration":489494,"Delta":78923447},{"NoteNumber":72,"Velocity":78,"Duration":489494,"SoundDuration":489494,"Delta":78923447},{"NoteNumber":77,"Velocity":92,"Duration":489494,"SoundDuration":489494,"Delta":78923447},{"NoteNumber":45,"Velocity":89,"Duration":161829,"SoundDuration":161829,"Delta":78923447},{"NoteNumber":53,"Velocity":70,"Duration":80914,"SoundDuration":80914,"Delta":79085277},{"NoteNumber":53,"Velocity":67,"Duration":85043,"SoundDuration":85043,"Delta":79247107},{"NoteNumber":72,"Velocity":81,"Duration":325415,"SoundDuration":325415,"Delta":79417194},{"NoteNumber":69,"Velocity":69,"Duration":325415,"SoundDuration":325415,"Delta":79417194},{"NoteNumber":41,"Velocity":80,"Duration":162707,"SoundDuration":162707,"Delta":79417194},{"NoteNumber":53,"Velocity":70,"Duration":81353,"SoundDuration":81353,"Delta":79579901},{"NoteNumber":72,"Velocity":77,"Duration":81353,"SoundDuration":81353,"Delta":79742609},{"NoteNumber":69,"Velocity":64,"Duration":81353,"SoundDuration":81353,"Delta":79742609},{"NoteNumber":65,"Velocity":64,"Duration":81353,"SoundDuration":81353,"Delta":79742609},{"NoteNumber":53,"Velocity":71,"Duration":81353,"SoundDuration":81353,"Delta":79742609},{"NoteNumber":66,"Velocity":78,"Duration":323659,"SoundDuration":323659,"Delta":79905316},{"NoteNumber":72,"Velocity":78,"Duration":323659,"SoundDuration":323659,"Delta":79905316},{"NoteNumber":75,"Velocity":92,"Duration":323659,"SoundDuration":323659,"Delta":79905316},{"NoteNumber":46,"Velocity":88,"Duration":161829,"SoundDuration":161829,"Delta":79905316},{"NoteNumber":53,"Velocity":73,"Duration":80914,"SoundDuration":80914,"Delta":80067146},{"NoteNumber":73,"Velocity":80,"Duration":170087,"SoundDuration":170087,"Delta":80228976},{"NoteNumber":70,"Velocity":67,"Duration":170087,"SoundDuration":170087,"Delta":80228976},{"NoteNumber":64,"Velocity":67,"Duration":170087,"SoundDuration":170087,"Delta":80228976},{"NoteNumber":53,"Velocity":72,"Duration":85043,"SoundDuration":85043,"Delta":80228976},{"NoteNumber":72,"Velocity":79,"Duration":510166,"SoundDuration":510166,"Delta":80399063},{"NoteNumber":69,"Velocity":66,"Duration":510166,"SoundDuration":510166,"Delta":80399063},{"NoteNumber":65,"Velocity":66,"Duration":510166,"SoundDuration":510166,"Delta":80399063},{"NoteNumber":41,"Velocity":82,"Duration":162707,"SoundDuration":162707,"Delta":80399063},{"NoteNumber":53,"Velocity":71,"Duration":81353,"SoundDuration":81353,"Delta":80561771},{"NoteNumber":53,"Velocity":71,"Duration":92375,"SoundDuration":92375,"Delta":80724478},{"NoteNumber":65,"Velocity":78,"Duration":489494,"SoundDuration":489494,"Delta":80909230},{"NoteNumber":72,"Velocity":78,"Duration":489494,"SoundDuration":489494,"Delta":80909230},{"NoteNumber":77,"Velocity":92,"Duration":489494,"SoundDuration":489494,"Delta":80909230},{"NoteNumber":45,"Velocity":89,"Duration":161829,"SoundDuration":161829,"Delta":80909230},{"NoteNumber":53,"Velocity":70,"Duration":80914,"SoundDuration":80914,"Delta":81071060},{"NoteNumber":53,"Velocity":67,"Duration":85043,"SoundDuration":85043,"Delta":81232889},{"NoteNumber":72,"Velocity":81,"Duration":325415,"SoundDuration":325415,"Delta":81402977},{"NoteNumber":69,"Velocity":69,"Duration":325415,"SoundDuration":325415,"Delta":81402977},{"NoteNumber":41,"Velocity":80,"Duration":162707,"SoundDuration":162707,"Delta":81402977},{"NoteNumber":53,"Velocity":70,"Duration":81353,"SoundDuration":81353,"Delta":81565684},{"NoteNumber":72,"Velocity":77,"Duration":81353,"SoundDuration":81353,"Delta":81728392},{"NoteNumber":69,"Velocity":64,"Duration":81353,"SoundDuration":81353,"Delta":81728392},{"NoteNumber":65,"Velocity":64,"Duration":81353,"SoundDuration":81353,"Delta":81728392},{"NoteNumber":53,"Velocity":71,"Duration":81353,"SoundDuration":81353,"Delta":81728392},{"NoteNumber":66,"Velocity":78,"Duration":323659,"SoundDuration":323659,"Delta":81891099},{"NoteNumber":72,"Velocity":78,"Duration":323659,"SoundDuration":323659,"Delta":81891099},{"NoteNumber":75,"Velocity":92,"Duration":323659,"SoundDuration":323659,"Delta":81891099},{"NoteNumber":46,"Velocity":88,"Duration":161829,"SoundDuration":161829,"Delta":81891099},{"NoteNumber":53,"Velocity":73,"Duration":80914,"SoundDuration":80914,"Delta":82052929},{"NoteNumber":73,"Velocity":80,"Duration":170087,"SoundDuration":170087,"Delta":82214759},{"NoteNumber":70,"Velocity":67,"Duration":170087,"SoundDuration":170087,"Delta":82214759},{"NoteNumber":64,"Velocity":67,"Duration":170087,"SoundDuration":170087,"Delta":82214759},{"NoteNumber":53,"Velocity":72,"Duration":85043,"SoundDuration":85043,"Delta":82214759},{"NoteNumber":72,"Velocity":79,"Duration":510166,"SoundDuration":510166,"Delta":82384846},{"NoteNumber":69,"Velocity":66,"Duration":510166,"SoundDuration":510166,"Delta":82384846},{"NoteNumber":65,"Velocity":66,"Duration":510166,"SoundDuration":510166,"Delta":82384846},{"NoteNumber":41,"Velocity":82,"Duration":162707,"SoundDuration":162707,"Delta":82384846},{"NoteNumber":53,"Velocity":71,"Duration":81353,"SoundDuration":81353,"Delta":82547553},{"NoteNumber":53,"Velocity":71,"Duration":92375,"SoundDuration":92375,"Delta":82710261},{"NoteNumber":65,"Velocity":78,"Duration":489494,"SoundDuration":489494,"Delta":82895013},{"NoteNumber":72,"Velocity":78,"Duration":489494,"SoundDuration":489494,"Delta":82895013},{"NoteNumber":77,"Velocity":92,"Duration":489494,"SoundDuration":489494,"Delta":82895013},{"NoteNumber":45,"Velocity":89,"Duration":161829,"SoundDuration":161829,"Delta":82895013},{"NoteNumber":53,"Velocity":68,"Duration":80914,"SoundDuration":80914,"Delta":83056842},{"NoteNumber":53,"Velocity":64,"Duration":85043,"SoundDuration":85043,"Delta":83218672},{"NoteNumber":72,"Velocity":76,"Duration":325415,"SoundDuration":325415,"Delta":83388759},{"NoteNumber":69,"Velocity":64,"Duration":325415,"SoundDuration":325415,"Delta":83388759},{"NoteNumber":41,"Velocity":75,"Duration":162707,"SoundDuration":162707,"Delta":83388759},{"NoteNumber":53,"Velocity":64,"Duration":81353,"SoundDuration":81353,"Delta":83551467},{"NoteNumber":72,"Velocity":69,"Duration":81353,"SoundDuration":81353,"Delta":83714174},{"NoteNumber":69,"Velocity":57,"Duration":81353,"SoundDuration":81353,"Delta":83714174},{"NoteNumber":65,"Velocity":57,"Duration":81353,"SoundDuration":81353,"Delta":83714174},{"NoteNumber":53,"Velocity":63,"Duration":81353,"SoundDuration":81353,"Delta":83714174},{"NoteNumber":66,"Velocity":68,"Duration":323659,"SoundDuration":323659,"Delta":83876882},{"NoteNumber":75,"Velocity":80,"Duration":323659,"SoundDuration":323659,"Delta":83876882},{"NoteNumber":46,"Velocity":77,"Duration":1497660,"SoundDuration":1497660,"Delta":83876882},{"NoteNumber":73,"Velocity":63,"Duration":170087,"SoundDuration":170087,"Delta":84200541},{"NoteNumber":65,"Velocity":53,"Duration":170087,"SoundDuration":170087,"Delta":84200541},{"NoteNumber":66,"Velocity":51,"Duration":325415,"SoundDuration":325415,"Delta":84370629},{"NoteNumber":72,"Velocity":60,"Duration":325415,"SoundDuration":325415,"Delta":84370629},{"NoteNumber":63,"Velocity":51,"Duration":325415,"SoundDuration":325415,"Delta":84370629},{"NoteNumber":61,"Velocity":49,"Duration":184751,"SoundDuration":184751,"Delta":84696044},{"NoteNumber":65,"Velocity":49,"Duration":184751,"SoundDuration":184751,"Delta":84696044},{"NoteNumber":70,"Velocity":58,"Duration":184751,"SoundDuration":184751,"Delta":84696044},{"NoteNumber":63,"Velocity":55,"Duration":323659,"SoundDuration":323659,"Delta":84880795},{"NoteNumber":60,"Velocity":55,"Duration":323659,"SoundDuration":323659,"Delta":84880795},{"NoteNumber":68,"Velocity":65,"Duration":323659,"SoundDuration":323659,"Delta":84880795},{"NoteNumber":58,"Velocity":46,"Duration":170087,"SoundDuration":170087,"Delta":85204455},{"NoteNumber":66,"Velocity":54,"Duration":170087,"SoundDuration":170087,"Delta":85204455},{"NoteNumber":61,"Velocity":46,"Duration":170087,"SoundDuration":170087,"Delta":85204455},{"NoteNumber":60,"Velocity":44,"Duration":362263,"SoundDuration":362263,"Delta":85374542},{"NoteNumber":65,"Velocity":52,"Duration":362263,"SoundDuration":362263,"Delta":85374542},{"NoteNumber":57,"Velocity":44,"Duration":362263,"SoundDuration":362263,"Delta":85374542},{"NoteNumber":48,"Velocity":58,"Duration":570048,"SoundDuration":570048,"Delta":85374542},{"NoteNumber":58,"Velocity":42,"Duration":155838,"SoundDuration":155838,"Delta":85736806},{"NoteNumber":55,"Velocity":42,"Duration":155838,"SoundDuration":155838,"Delta":85736806},{"NoteNumber":64,"Velocity":50,"Duration":155838,"SoundDuration":155838,"Delta":85736806},{"NoteNumber":55,"Velocity":37,"Duration":547511,"SoundDuration":547511,"Delta":85944591},{"NoteNumber":58,"Velocity":37,"Duration":547511,"SoundDuration":547511,"Delta":85944591},{"NoteNumber":64,"Velocity":45,"Duration":547511,"SoundDuration":547511,"Delta":85944591},{"NoteNumber":41,"Velocity":52,"Duration":1095023,"SoundDuration":1095023,"Delta":85944591},{"NoteNumber":57,"Velocity":37,"Duration":547511,"SoundDuration":547511,"Delta":86492103},{"NoteNumber":65,"Velocity":45,"Duration":547511,"SoundDuration":547511,"Delta":86492103},{"NoteNumber":53,"Velocity":43,"Duration":163594,"SoundDuration":163594,"Delta":87039615},{"NoteNumber":54,"Velocity":41,"Duration":163594,"SoundDuration":163594,"Delta":87203209},{"NoteNumber":53,"Velocity":38,"Duration":163594,"SoundDuration":163594,"Delta":87366804},{"NoteNumber":51,"Velocity":41,"Duration":166315,"SoundDuration":166315,"Delta":87530399},{"NoteNumber":49,"Velocity":38,"Duration":174034,"SoundDuration":174034,"Delta":87696714},{"NoteNumber":73,"Velocity":43,"Duration":84090,"SoundDuration":84090,"Delta":87870748},{"NoteNumber":77,"Velocity":43,"Duration":84090,"SoundDuration":84090,"Delta":87870748},{"NoteNumber":48,"Velocity":38,"Duration":84090,"SoundDuration":84090,"Delta":87870748},{"NoteNumber":46,"Velocity":35,"Duration":402595,"SoundDuration":402595,"Delta":87954838},{"NoteNumber":65,"Velocity":40,"Duration":318505,"SoundDuration":318505,"Delta":88038929},{"NoteNumber":73,"Velocity":50,"Duration":159252,"SoundDuration":159252,"Delta":88038929},{"NoteNumber":77,"Velocity":50,"Duration":159252,"SoundDuration":159252,"Delta":88038929},{"NoteNumber":61,"Velocity":40,"Duration":318505,"SoundDuration":318505,"Delta":88038929},{"NoteNumber":73,"Velocity":45,"Duration":159252,"SoundDuration":159252,"Delta":88198181},{"NoteNumber":70,"Velocity":45,"Duration":159252,"SoundDuration":159252,"Delta":88198181},{"NoteNumber":77,"Velocity":45,"Duration":86018,"SoundDuration":86018,"Delta":88357434},{"NoteNumber":73,"Velocity":45,"Duration":86018,"SoundDuration":86018,"Delta":88357434},{"NoteNumber":46,"Velocity":35,"Duration":402842,"SoundDuration":402842,"Delta":88443453},{"NoteNumber":65,"Velocity":40,"Duration":316823,"SoundDuration":316823,"Delta":88529472},{"NoteNumber":73,"Velocity":50,"Duration":158411,"SoundDuration":158411,"Delta":88529472},{"NoteNumber":77,"Velocity":50,"Duration":158411,"SoundDuration":158411,"Delta":88529472},{"NoteNumber":61,"Velocity":40,"Duration":316823,"SoundDuration":316823,"Delta":88529472},{"NoteNumber":73,"Velocity":46,"Duration":158411,"SoundDuration":158411,"Delta":88687883},{"NoteNumber":70,"Velocity":46,"Duration":158411,"SoundDuration":158411,"Delta":88687883},{"NoteNumber":77,"Velocity":46,"Duration":85043,"SoundDuration":85043,"Delta":88846295},{"NoteNumber":73,"Velocity":46,"Duration":85043,"SoundDuration":85043,"Delta":88846295},{"NoteNumber":46,"Velocity":35,"Duration":403548,"SoundDuration":403548,"Delta":88931339},{"NoteNumber":65,"Velocity":40,"Duration":318505,"SoundDuration":318505,"Delta":89016382},{"NoteNumber":73,"Velocity":50,"Duration":159252,"SoundDuration":159252,"Delta":89016382},{"NoteNumber":77,"Velocity":50,"Duration":159252,"SoundDuration":159252,"Delta":89016382},{"NoteNumber":61,"Velocity":40,"Duration":318505,"SoundDuration":318505,"Delta":89016382},{"NoteNumber":73,"Velocity":45,"Duration":159252,"SoundDuration":159252,"Delta":89175635},{"NoteNumber":70,"Velocity":45,"Duration":159252,"SoundDuration":159252,"Delta":89175635},{"NoteNumber":77,"Velocity":45,"Duration":85528,"SoundDuration":85528,"Delta":89334887},{"NoteNumber":73,"Velocity":45,"Duration":85528,"SoundDuration":85528,"Delta":89334887},{"NoteNumber":46,"Velocity":35,"Duration":414512,"SoundDuration":414512,"Delta":89420416},{"NoteNumber":65,"Velocity":40,"Duration":328983,"SoundDuration":328983,"Delta":89505945},{"NoteNumber":73,"Velocity":50,"Duration":164491,"SoundDuration":164491,"Delta":89505945},{"NoteNumber":77,"Velocity":50,"Duration":164491,"SoundDuration":164491,"Delta":89505945},{"NoteNumber":61,"Velocity":40,"Duration":328983,"SoundDuration":328983,"Delta":89505945},{"NoteNumber":73,"Velocity":46,"Duration":164491,"SoundDuration":164491,"Delta":89670436},{"NoteNumber":70,"Velocity":46,"Duration":164491,"SoundDuration":164491,"Delta":89670436},{"NoteNumber":77,"Velocity":46,"Duration":90155,"SoundDuration":90155,"Delta":89834928},{"NoteNumber":73,"Velocity":46,"Duration":90155,"SoundDuration":90155,"Delta":89834928},{"NoteNumber":46,"Velocity":35,"Duration":422786,"SoundDuration":422786,"Delta":89925083},{"NoteNumber":66,"Velocity":71,"Duration":831577,"SoundDuration":831577,"Delta":90015238},{"NoteNumber":73,"Velocity":50,"Duration":166315,"SoundDuration":166315,"Delta":90015238},{"NoteNumber":61,"Velocity":40,"Duration":332631,"SoundDuration":332631,"Delta":90015238},{"NoteNumber":70,"Velocity":45,"Duration":166315,"SoundDuration":166315,"Delta":90181554},{"NoteNumber":73,"Velocity":45,"Duration":83157,"SoundDuration":83157,"Delta":90347869},{"NoteNumber":46,"Velocity":35,"Duration":415788,"SoundDuration":415788,"Delta":90431027},{"NoteNumber":73,"Velocity":50,"Duration":166315,"SoundDuration":166315,"Delta":90514185},{"NoteNumber":61,"Velocity":40,"Duration":332630,"SoundDuration":332630,"Delta":90514185},{"NoteNumber":70,"Velocity":46,"Duration":166315,"SoundDuration":166315,"Delta":90680500},{"NoteNumber":65,"Velocity":60,"Duration":168180,"SoundDuration":168180,"Delta":90846816},{"NoteNumber":73,"Velocity":46,"Duration":84090,"SoundDuration":84090,"Delta":90846816},{"NoteNumber":46,"Velocity":35,"Duration":416721,"SoundDuration":416721,"Delta":90930906},{"NoteNumber":64,"Velocity":72,"Duration":748419,"SoundDuration":748419,"Delta":91014996},{"NoteNumber":73,"Velocity":50,"Duration":166315,"SoundDuration":166315,"Delta":91014996},{"NoteNumber":61,"Velocity":40,"Duration":332631,"SoundDuration":332631,"Delta":91014996},{"NoteNumber":70,"Velocity":45,"Duration":166315,"SoundDuration":166315,"Delta":91181312},{"NoteNumber":73,"Velocity":45,"Duration":83157,"SoundDuration":83157,"Delta":91347627},{"NoteNumber":46,"Velocity":35,"Duration":415788,"SoundDuration":415788,"Delta":91430785},{"NoteNumber":73,"Velocity":50,"Duration":166315,"SoundDuration":166315,"Delta":91513943},{"NoteNumber":61,"Velocity":40,"Duration":332630,"SoundDuration":332630,"Delta":91513943},{"NoteNumber":70,"Velocity":46,"Duration":166315,"SoundDuration":166315,"Delta":91680258},{"NoteNumber":73,"Velocity":61,"Duration":83157,"SoundDuration":83157,"Delta":91846574},{"NoteNumber":64,"Velocity":60,"Duration":166315,"SoundDuration":166315,"Delta":91846574},{"NoteNumber":65,"Velocity":75,"Duration":647318,"SoundDuration":647318,"Delta":92012889},{"NoteNumber":45,"Velocity":49,"Duration":161829,"SoundDuration":161829,"Delta":92012889},{"NoteNumber":60,"Velocity":54,"Duration":80914,"SoundDuration":80914,"Delta":92174719},{"NoteNumber":63,"Velocity":54,"Duration":80914,"SoundDuration":80914,"Delta":92174719},{"NoteNumber":53,"Velocity":40,"Duration":80914,"SoundDuration":80914,"Delta":92174719},{"NoteNumber":60,"Velocity":54,"Duration":80914,"SoundDuration":80914,"Delta":92336549},{"NoteNumber":63,"Velocity":54,"Duration":80914,"SoundDuration":80914,"Delta":92336549},{"NoteNumber":53,"Velocity":42,"Duration":80914,"SoundDuration":80914,"Delta":92336549},{"NoteNumber":60,"Velocity":54,"Duration":80914,"SoundDuration":80914,"Delta":92498378},{"NoteNumber":63,"Velocity":54,"Duration":80914,"SoundDuration":80914,"Delta":92498378},{"NoteNumber":41,"Velocity":42,"Duration":161829,"SoundDuration":161829,"Delta":92498378},{"NoteNumber":58,"Velocity":54,"Duration":80914,"SoundDuration":80914,"Delta":92660208},{"NoteNumber":67,"Velocity":56,"Duration":80914,"SoundDuration":80914,"Delta":92660208},{"NoteNumber":53,"Velocity":47,"Duration":80914,"SoundDuration":80914,"Delta":92660208},{"NoteNumber":60,"Velocity":54,"Duration":80914,"SoundDuration":80914,"Delta":92822038},{"NoteNumber":69,"Velocity":61,"Duration":80914,"SoundDuration":80914,"Delta":92822038},{"NoteNumber":53,"Velocity":50,"Duration":80914,"SoundDuration":80914,"Delta":92822038},{"NoteNumber":72,"Velocity":64,"Duration":80914,"SoundDuration":80914,"Delta":92902953},{"NoteNumber":61,"Velocity":61,"Duration":80914,"SoundDuration":80914,"Delta":92983868},{"NoteNumber":70,"Velocity":73,"Duration":80914,"SoundDuration":80914,"Delta":92983868},{"NoteNumber":46,"Velocity":54,"Duration":161829,"SoundDuration":161829,"Delta":92983868},{"NoteNumber":60,"Velocity":54,"Duration":80914,"SoundDuration":80914,"Delta":93145697},{"NoteNumber":69,"Velocity":63,"Duration":80914,"SoundDuration":80914,"Delta":93145697},{"NoteNumber":53,"Velocity":43,"Duration":80914,"SoundDuration":80914,"Delta":93145697},{"NoteNumber":61,"Velocity":53,"Duration":83621,"SoundDuration":83621,"Delta":93307527},{"NoteNumber":70,"Velocity":63,"Duration":83621,"SoundDuration":83621,"Delta":93307527},{"NoteNumber":53,"Velocity":46,"Duration":83621,"SoundDuration":83621,"Delta":93307527},{"NoteNumber":65,"Velocity":60,"Duration":81353,"SoundDuration":81353,"Delta":93474770},{"NoteNumber":73,"Velocity":71,"Duration":81353,"SoundDuration":81353,"Delta":93474770},{"NoteNumber":39,"Velocity":58,"Duration":162707,"SoundDuration":162707,"Delta":93474770},{"NoteNumber":63,"Velocity":53,"Duration":81353,"SoundDuration":81353,"Delta":93637477},{"NoteNumber":72,"Velocity":63,"Duration":81353,"SoundDuration":81353,"Delta":93637477},{"NoteNumber":54,"Velocity":48,"Duration":81353,"SoundDuration":81353,"Delta":93637477},{"NoteNumber":61,"Velocity":58,"Duration":86515,"SoundDuration":86515,"Delta":93800185},{"NoteNumber":70,"Velocity":70,"Duration":86515,"SoundDuration":86515,"Delta":93800185},{"NoteNumber":54,"Velocity":48,"Duration":86515,"SoundDuration":86515,"Delta":93800185},{"NoteNumber":61,"Velocity":70,"Duration":992007,"SoundDuration":992007,"Delta":93973215},{"NoteNumber":70,"Velocity":82,"Duration":992007,"SoundDuration":992007,"Delta":93973215},{"NoteNumber":41,"Velocity":60,"Duration":163594,"SoundDuration":163594,"Delta":93973215},{"NoteNumber":53,"Velocity":49,"Duration":81797,"SoundDuration":81797,"Delta":94136810},{"NoteNumber":53,"Velocity":46,"Duration":81797,"SoundDuration":81797,"Delta":94300405},{"NoteNumber":64,"Velocity":66,"Duration":501223,"SoundDuration":501223,"Delta":94463999},{"NoteNumber":53,"Velocity":55,"Duration":81797,"SoundDuration":81797,"Delta":94463999},{"NoteNumber":53,"Velocity":46,"Duration":81797,"SoundDuration":81797,"Delta":94627594},{"NoteNumber":53,"Velocity":46,"Duration":87017,"SoundDuration":87017,"Delta":94791189},{"NoteNumber":60,"Velocity":67,"Duration":488122,"SoundDuration":488122,"Delta":94965223},{"NoteNumber":65,"Velocity":67,"Duration":488122,"SoundDuration":488122,"Delta":94965223},{"NoteNumber":69,"Velocity":80,"Duration":488122,"SoundDuration":488122,"Delta":94965223},{"NoteNumber":53,"Velocity":56,"Duration":162707,"SoundDuration":162707,"Delta":94965223},{"NoteNumber":54,"Velocity":46,"Duration":162707,"SoundDuration":162707,"Delta":95127930},{"NoteNumber":53,"Velocity":48,"Duration":81353,"SoundDuration":81353,"Delta":95290638},{"NoteNumber":53,"Velocity":52,"Duration":81353,"SoundDuration":81353,"Delta":95453345},{"NoteNumber":53,"Velocity":46,"Duration":91251,"SoundDuration":91251,"Delta":95616053},{"NoteNumber":53,"Velocity":40,"Duration":81353,"SoundDuration":81353,"Delta":95798557},{"NoteNumber":70,"Velocity":62,"Duration":490784,"SoundDuration":490784,"Delta":95961264},{"NoteNumber":65,"Velocity":52,"Duration":992007,"SoundDuration":992007,"Delta":95961264},{"NoteNumber":50,"Velocity":49,"Duration":163594,"SoundDuration":163594,"Delta":95961264},{"NoteNumber":58,"Velocity":39,"Duration":81797,"SoundDuration":81797,"Delta":96124859},{"NoteNumber":58,"Velocity":39,"Duration":81797,"SoundDuration":81797,"Delta":96288454},{"NoteNumber":68,"Velocity":55,"Duration":313556,"SoundDuration":313556,"Delta":96452049},{"NoteNumber":46,"Velocity":48,"Duration":81797,"SoundDuration":81797,"Delta":96452049},{"NoteNumber":58,"Velocity":40,"Duration":81797,"SoundDuration":81797,"Delta":96615643},{"NoteNumber":68,"Velocity":55,"Duration":174034,"SoundDuration":174034,"Delta":96779238},{"NoteNumber":58,"Velocity":40,"Duration":87017,"SoundDuration":87017,"Delta":96779238},{"NoteNumber":66,"Velocity":62,"Duration":490784,"SoundDuration":490784,"Delta":96953272},{"NoteNumber":63,"Velocity":52,"Duration":992007,"SoundDuration":992007,"Delta":96953272},{"NoteNumber":51,"Velocity":49,"Duration":163594,"SoundDuration":163594,"Delta":96953272},{"NoteNumber":58,"Velocity":39,"Duration":81797,"SoundDuration":81797,"Delta":97116867},{"NoteNumber":58,"Velocity":39,"Duration":81797,"SoundDuration":81797,"Delta":97280462},{"NoteNumber":67,"Velocity":55,"Duration":501223,"SoundDuration":501223,"Delta":97444056},{"NoteNumber":46,"Velocity":48,"Duration":81797,"SoundDuration":81797,"Delta":97444056},{"NoteNumber":58,"Velocity":40,"Duration":81797,"SoundDuration":81797,"Delta":97607651},{"NoteNumber":58,"Velocity":40,"Duration":87017,"SoundDuration":87017,"Delta":97771246},{"NoteNumber":70,"Velocity":68,"Duration":490784,"SoundDuration":490784,"Delta":97945280},{"NoteNumber":82,"Velocity":80,"Duration":490784,"SoundDuration":490784,"Delta":97945280},{"NoteNumber":77,"Velocity":68,"Duration":992007,"SoundDuration":992007,"Delta":97945280},{"NoteNumber":50,"Velocity":63,"Duration":163594,"SoundDuration":163594,"Delta":97945280},{"NoteNumber":58,"Velocity":50,"Duration":81797,"SoundDuration":81797,"Delta":98108875},{"NoteNumber":58,"Velocity":50,"Duration":81797,"SoundDuration":81797,"Delta":98272469},{"NoteNumber":68,"Velocity":60,"Duration":313556,"SoundDuration":313556,"Delta":98436064},{"NoteNumber":80,"Velocity":71,"Duration":313556,"SoundDuration":313556,"Delta":98436064},{"NoteNumber":46,"Velocity":62,"Duration":81797,"SoundDuration":81797,"Delta":98436064},{"NoteNumber":58,"Velocity":52,"Duration":81797,"SoundDuration":81797,"Delta":98599659},{"NoteNumber":68,"Velocity":60,"Duration":174034,"SoundDuration":174034,"Delta":98763254},{"NoteNumber":80,"Velocity":71,"Duration":174034,"SoundDuration":174034,"Delta":98763254},{"NoteNumber":58,"Velocity":52,"Duration":87017,"SoundDuration":87017,"Delta":98763254},{"NoteNumber":67,"Velocity":68,"Duration":498946,"SoundDuration":498946,"Delta":98937288},{"NoteNumber":79,"Velocity":80,"Duration":498946,"SoundDuration":498946,"Delta":98937288},{"NoteNumber":75,"Velocity":68,"Duration":1032407,"SoundDuration":1032407,"Delta":98937288},{"NoteNumber":51,"Velocity":63,"Duration":166315,"SoundDuration":166315,"Delta":98937288},{"NoteNumber":58,"Velocity":50,"Duration":83157,"SoundDuration":83157,"Delta":99103603},{"NoteNumber":58,"Velocity":50,"Duration":83157,"SoundDuration":83157,"Delta":99269919},{"NoteNumber":66,"Velocity":60,"Duration":332630,"SoundDuration":332630,"Delta":99436234},{"NoteNumber":78,"Velocity":71,"Duration":332630,"SoundDuration":332630,"Delta":99436234},{"NoteNumber":58,"Velocity":62,"Duration":83157,"SoundDuration":83157,"Delta":99436234},{"NoteNumber":58,"Velocity":52,"Duration":83157,"SoundDuration":83157,"Delta":99602550},{"NoteNumber":67,"Velocity":60,"Duration":150622,"SoundDuration":150622,"Delta":99768865},{"NoteNumber":79,"Velocity":71,"Duration":150622,"SoundDuration":150622,"Delta":99768865},{"NoteNumber":58,"Velocity":52,"Duration":100414,"SoundDuration":100414,"Delta":99768865},{"NoteNumber":67,"Velocity":72,"Duration":92948,"SoundDuration":92948,"Delta":99969695},{"NoteNumber":70,"Velocity":72,"Duration":92948,"SoundDuration":92948,"Delta":99969695},{"NoteNumber":79,"Velocity":85,"Duration":92948,"SoundDuration":92948,"Delta":99969695},{"NoteNumber":60,"Velocity":65,"Duration":92948,"SoundDuration":92948,"Delta":99969695},{"NoteNumber":58,"Velocity":55,"Duration":92948,"SoundDuration":92948,"Delta":99969695},{"NoteNumber":52,"Velocity":55,"Duration":92948,"SoundDuration":92948,"Delta":99969695},{"NoteNumber":67,"Velocity":61,"Duration":95310,"SoundDuration":95310,"Delta":100155592},{"NoteNumber":70,"Velocity":61,"Duration":95310,"SoundDuration":95310,"Delta":100155592},{"NoteNumber":77,"Velocity":72,"Duration":95310,"SoundDuration":95310,"Delta":100155592},{"NoteNumber":52,"Velocity":44,"Duration":95310,"SoundDuration":95310,"Delta":100155592},{"NoteNumber":58,"Velocity":44,"Duration":95310,"SoundDuration":95310,"Delta":100155592},{"NoteNumber":60,"Velocity":52,"Duration":95310,"SoundDuration":95310,"Delta":100155592},{"NoteNumber":76,"Velocity":69,"Duration":97162,"SoundDuration":97162,"Delta":100346213},{"NoteNumber":70,"Velocity":58,"Duration":97162,"SoundDuration":97162,"Delta":100346213},{"NoteNumber":67,"Velocity":58,"Duration":97162,"SoundDuration":97162,"Delta":100346213},{"NoteNumber":52,"Velocity":44,"Duration":97162,"SoundDuration":97162,"Delta":100346213},{"NoteNumber":58,"Velocity":44,"Duration":97162,"SoundDuration":97162,"Delta":100346213},{"NoteNumber":60,"Velocity":52,"Duration":97162,"SoundDuration":97162,"Delta":100346213},{"NoteNumber":76,"Velocity":78,"Duration":99088,"SoundDuration":99088,"Delta":100540539},{"NoteNumber":70,"Velocity":66,"Duration":99088,"SoundDuration":99088,"Delta":100540539},{"NoteNumber":67,"Velocity":66,"Duration":99088,"SoundDuration":99088,"Delta":100540539},{"NoteNumber":60,"Velocity":59,"Duration":99088,"SoundDuration":99088,"Delta":100540539},{"NoteNumber":58,"Velocity":50,"Duration":99088,"SoundDuration":99088,"Delta":100540539},{"NoteNumber":52,"Velocity":50,"Duration":99088,"SoundDuration":99088,"Delta":100540539},{"NoteNumber":67,"Velocity":60,"Duration":101777,"SoundDuration":101777,"Delta":100738716},{"NoteNumber":70,"Velocity":60,"Duration":101777,"SoundDuration":101777,"Delta":100738716},{"NoteNumber":74,"Velocity":71,"Duration":101777,"SoundDuration":101777,"Delta":100738716},{"NoteNumber":52,"Velocity":44,"Duration":101777,"SoundDuration":101777,"Delta":100738716},{"NoteNumber":58,"Velocity":44,"Duration":101777,"SoundDuration":101777,"Delta":100738716},{"NoteNumber":60,"Velocity":52,"Duration":101777,"SoundDuration":101777,"Delta":100738716},{"NoteNumber":67,"Velocity":60,"Duration":109186,"SoundDuration":109186,"Delta":100942271},{"NoteNumber":70,"Velocity":60,"Duration":109186,"SoundDuration":109186,"Delta":100942271},{"NoteNumber":72,"Velocity":71,"Duration":109186,"SoundDuration":109186,"Delta":100942271},{"NoteNumber":52,"Velocity":44,"Duration":109186,"SoundDuration":109186,"Delta":100942271},{"NoteNumber":58,"Velocity":44,"Duration":109186,"SoundDuration":109186,"Delta":100942271},{"NoteNumber":60,"Velocity":52,"Duration":109186,"SoundDuration":109186,"Delta":100942271},{"NoteNumber":72,"Velocity":79,"Duration":507385,"SoundDuration":507385,"Delta":101160644},{"NoteNumber":69,"Velocity":67,"Duration":507385,"SoundDuration":507385,"Delta":101160644},{"NoteNumber":65,"Velocity":67,"Duration":504566,"SoundDuration":504566,"Delta":101160644},{"NoteNumber":51,"Velocity":65,"Duration":169128,"SoundDuration":169128,"Delta":101160644},{"NoteNumber":53,"Velocity":37,"Duration":84564,"SoundDuration":84564,"Delta":101329772},{"NoteNumber":57,"Velocity":37,"Duration":84564,"SoundDuration":84564,"Delta":101329772},{"NoteNumber":60,"Velocity":52,"Duration":84564,"SoundDuration":84564,"Delta":101329772},{"NoteNumber":53,"Velocity":37,"Duration":84564,"SoundDuration":84564,"Delta":101498901},{"NoteNumber":57,"Velocity":37,"Duration":84564,"SoundDuration":84564,"Delta":101498901},{"NoteNumber":60,"Velocity":52,"Duration":84564,"SoundDuration":84564,"Delta":101498901},{"NoteNumber":74,"Velocity":67,"Duration":340261,"SoundDuration":340261,"Delta":101668029},{"NoteNumber":70,"Velocity":56,"Duration":340261,"SoundDuration":340261,"Delta":101668029},{"NoteNumber":65,"Velocity":56,"Duration":340261,"SoundDuration":340261,"Delta":101668029},{"NoteNumber":50,"Velocity":59,"Duration":169128,"SoundDuration":169128,"Delta":101668029},{"NoteNumber":53,"Velocity":37,"Duration":87017,"SoundDuration":87017,"Delta":101837158},{"NoteNumber":58,"Velocity":52,"Duration":87017,"SoundDuration":87017,"Delta":101837158},{"NoteNumber":65,"Velocity":52,"Duration":182503,"SoundDuration":182503,"Delta":102011192},{"NoteNumber":70,"Velocity":52,"Duration":182503,"SoundDuration":182503,"Delta":102011192},{"NoteNumber":74,"Velocity":62,"Duration":182503,"SoundDuration":182503,"Delta":102011192},{"NoteNumber":53,"Velocity":37,"Duration":91251,"SoundDuration":91251,"Delta":102011192},{"NoteNumber":58,"Velocity":52,"Duration":91251,"SoundDuration":91251,"Delta":102011192},{"NoteNumber":75,"Velocity":79,"Duration":498946,"SoundDuration":498946,"Delta":102193696},{"NoteNumber":70,"Velocity":67,"Duration":498946,"SoundDuration":498946,"Delta":102193696},{"NoteNumber":67,"Velocity":67,"Duration":498946,"SoundDuration":498946,"Delta":102193696},{"NoteNumber":48,"Velocity":65,"Duration":166315,"SoundDuration":166315,"Delta":102193696},{"NoteNumber":55,"Velocity":37,"Duration":83157,"SoundDuration":83157,"Delta":102360011},{"NoteNumber":58,"Velocity":37,"Duration":83157,"SoundDuration":83157,"Delta":102360011},{"NoteNumber":60,"Velocity":52,"Duration":83157,"SoundDuration":83157,"Delta":102360011},{"NoteNumber":55,"Velocity":37,"Duration":83157,"SoundDuration":83157,"Delta":102526327},{"NoteNumber":58,"Velocity":37,"Duration":83157,"SoundDuration":83157,"Delta":102526327},{"NoteNumber":60,"Velocity":52,"Duration":83157,"SoundDuration":83157,"Delta":102526327},{"NoteNumber":72,"Velocity":67,"Duration":333567,"SoundDuration":333567,"Delta":102692642},{"NoteNumber":69,"Velocity":56,"Duration":333567,"SoundDuration":333567,"Delta":102692642},{"NoteNumber":51,"Velocity":59,"Duration":166315,"SoundDuration":166315,"Delta":102692642},{"NoteNumber":57,"Velocity":37,"Duration":85043,"SoundDuration":85043,"Delta":102858958},{"NoteNumber":53,"Velocity":37,"Duration":85043,"SoundDuration":85043,"Delta":102858958},{"NoteNumber":60,"Velocity":52,"Duration":85043,"SoundDuration":85043,"Delta":102858958},{"NoteNumber":65,"Velocity":52,"Duration":178168,"SoundDuration":178168,"Delta":103029045},{"NoteNumber":69,"Velocity":52,"Duration":178168,"SoundDuration":178168,"Delta":103029045},{"NoteNumber":72,"Velocity":62,"Duration":178168,"SoundDuration":178168,"Delta":103029045},{"NoteNumber":57,"Velocity":37,"Duration":89084,"SoundDuration":89084,"Delta":103029045},{"NoteNumber":53,"Velocity":37,"Duration":89084,"SoundDuration":89084,"Delta":103029045},{"NoteNumber":60,"Velocity":52,"Duration":89084,"SoundDuration":89084,"Delta":103029045},{"NoteNumber":77,"Velocity":82,"Duration":1004525,"SoundDuration":1004525,"Delta":103207214},{"NoteNumber":50,"Velocity":61,"Duration":173030,"SoundDuration":173030,"Delta":103207214},{"NoteNumber":65,"Velocity":55,"Duration":81797,"SoundDuration":81797,"Delta":103380244},{"NoteNumber":70,"Velocity":55,"Duration":81797,"SoundDuration":81797,"Delta":103380244},{"NoteNumber":58,"Velocity":53,"Duration":81797,"SoundDuration":81797,"Delta":103380244},{"NoteNumber":62,"Velocity":53,"Duration":81797,"SoundDuration":81797,"Delta":103380244},{"NoteNumber":65,"Velocity":56,"Duration":81797,"SoundDuration":81797,"Delta":103543839},{"NoteNumber":70,"Velocity":56,"Duration":81797,"SoundDuration":81797,"Delta":103543839},{"NoteNumber":62,"Velocity":52,"Duration":81797,"SoundDuration":81797,"Delta":103543839},{"NoteNumber":58,"Velocity":52,"Duration":81797,"SoundDuration":81797,"Delta":103543839},{"NoteNumber":70,"Velocity":64,"Duration":81797,"SoundDuration":81797,"Delta":103707433},{"NoteNumber":65,"Velocity":64,"Duration":81797,"SoundDuration":81797,"Delta":103707433},{"NoteNumber":58,"Velocity":60,"Duration":81797,"SoundDuration":81797,"Delta":103707433},{"NoteNumber":62,"Velocity":60,"Duration":81797,"SoundDuration":81797,"Delta":103707433},{"NoteNumber":65,"Velocity":57,"Duration":81797,"SoundDuration":81797,"Delta":103871028},{"NoteNumber":70,"Velocity":57,"Duration":81797,"SoundDuration":81797,"Delta":103871028},{"NoteNumber":62,"Velocity":55,"Duration":81797,"SoundDuration":81797,"Delta":103871028},{"NoteNumber":58,"Velocity":55,"Duration":81797,"SoundDuration":81797,"Delta":103871028},{"NoteNumber":65,"Velocity":58,"Duration":88558,"SoundDuration":88558,"Delta":104034623},{"NoteNumber":70,"Velocity":58,"Duration":88558,"SoundDuration":88558,"Delta":104034623},{"NoteNumber":62,"Velocity":56,"Duration":88558,"SoundDuration":88558,"Delta":104034623},{"NoteNumber":58,"Velocity":56,"Duration":88558,"SoundDuration":88558,"Delta":104034623},{"NoteNumber":68,"Velocity":60,"Duration":85528,"SoundDuration":85528,"Delta":104211739},{"NoteNumber":70,"Velocity":60,"Duration":85528,"SoundDuration":85528,"Delta":104211739},{"NoteNumber":78,"Velocity":90,"Duration":995921,"SoundDuration":995921,"Delta":104211739},{"NoteNumber":62,"Velocity":67,"Duration":171057,"SoundDuration":171057,"Delta":104211739},{"NoteNumber":58,"Velocity":64,"Duration":171057,"SoundDuration":171057,"Delta":104211739},{"NoteNumber":68,"Velocity":60,"Duration":81353,"SoundDuration":81353,"Delta":104382797},{"NoteNumber":70,"Velocity":60,"Duration":81353,"SoundDuration":81353,"Delta":104382797},{"NoteNumber":58,"Velocity":58,"Duration":81353,"SoundDuration":81353,"Delta":104382797},{"NoteNumber":62,"Velocity":58,"Duration":81353,"SoundDuration":81353,"Delta":104382797},{"NoteNumber":68,"Velocity":61,"Duration":81353,"SoundDuration":81353,"Delta":104545504},{"NoteNumber":70,"Velocity":61,"Duration":81353,"SoundDuration":81353,"Delta":104545504},{"NoteNumber":62,"Velocity":57,"Duration":81353,"SoundDuration":81353,"Delta":104545504},{"NoteNumber":58,"Velocity":57,"Duration":81353,"SoundDuration":81353,"Delta":104545504},{"NoteNumber":70,"Velocity":70,"Duration":81353,"SoundDuration":81353,"Delta":104708212},{"NoteNumber":68,"Velocity":70,"Duration":81353,"SoundDuration":81353,"Delta":104708212},{"NoteNumber":58,"Velocity":66,"Duration":81353,"SoundDuration":81353,"Delta":104708212},{"NoteNumber":62,"Velocity":66,"Duration":81353,"SoundDuration":81353,"Delta":104708212},{"NoteNumber":68,"Velocity":62,"Duration":81353,"SoundDuration":81353,"Delta":104870919},{"NoteNumber":70,"Velocity":62,"Duration":81353,"SoundDuration":81353,"Delta":104870919},{"NoteNumber":62,"Velocity":60,"Duration":81353,"SoundDuration":81353,"Delta":104870919},{"NoteNumber":58,"Velocity":60,"Duration":81353,"SoundDuration":81353,"Delta":104870919},{"NoteNumber":68,"Velocity":63,"Duration":87017,"SoundDuration":87017,"Delta":105033627},{"NoteNumber":70,"Velocity":63,"Duration":87017,"SoundDuration":87017,"Delta":105033627},{"NoteNumber":62,"Velocity":61,"Duration":87017,"SoundDuration":87017,"Delta":105033627},{"NoteNumber":58,"Velocity":61,"Duration":87017,"SoundDuration":87017,"Delta":105033627},{"NoteNumber":67,"Velocity":65,"Duration":85043,"SoundDuration":85043,"Delta":105207661},{"NoteNumber":70,"Velocity":65,"Duration":85043,"SoundDuration":85043,"Delta":105207661},{"NoteNumber":79,"Velocity":98,"Duration":998033,"SoundDuration":998033,"Delta":105207661},{"NoteNumber":51,"Velocity":70,"Duration":170087,"SoundDuration":170087,"Delta":105207661},{"NoteNumber":61,"Velocity":73,"Duration":170087,"SoundDuration":170087,"Delta":105207661},{"NoteNumber":58,"Velocity":70,"Duration":170087,"SoundDuration":170087,"Delta":105207661},{"NoteNumber":67,"Velocity":65,"Duration":81353,"SoundDuration":81353,"Delta":105377748},{"NoteNumber":70,"Velocity":65,"Duration":81353,"SoundDuration":81353,"Delta":105377748},{"NoteNumber":51,"Velocity":62,"Duration":81353,"SoundDuration":81353,"Delta":105377748},{"NoteNumber":58,"Velocity":62,"Duration":81353,"SoundDuration":81353,"Delta":105377748},{"NoteNumber":61,"Velocity":62,"Duration":81353,"SoundDuration":81353,"Delta":105377748},{"NoteNumber":67,"Velocity":65,"Duration":81353,"SoundDuration":81353,"Delta":105540455},{"NoteNumber":70,"Velocity":65,"Duration":81353,"SoundDuration":81353,"Delta":105540455},{"NoteNumber":51,"Velocity":61,"Duration":81353,"SoundDuration":81353,"Delta":105540455},{"NoteNumber":61,"Velocity":61,"Duration":81353,"SoundDuration":81353,"Delta":105540455},{"NoteNumber":58,"Velocity":61,"Duration":81353,"SoundDuration":81353,"Delta":105540455},{"NoteNumber":70,"Velocity":73,"Duration":81353,"SoundDuration":81353,"Delta":105703163},{"NoteNumber":67,"Velocity":73,"Duration":81353,"SoundDuration":81353,"Delta":105703163},{"NoteNumber":51,"Velocity":68,"Duration":81353,"SoundDuration":81353,"Delta":105703163},{"NoteNumber":58,"Velocity":68,"Duration":81353,"SoundDuration":81353,"Delta":105703163},{"NoteNumber":61,"Velocity":68,"Duration":81353,"SoundDuration":81353,"Delta":105703163},{"NoteNumber":67,"Velocity":65,"Duration":81353,"SoundDuration":81353,"Delta":105865870},{"NoteNumber":70,"Velocity":65,"Duration":81353,"SoundDuration":81353,"Delta":105865870},{"NoteNumber":51,"Velocity":62,"Duration":81353,"SoundDuration":81353,"Delta":105865870},{"NoteNumber":61,"Velocity":62,"Duration":81353,"SoundDuration":81353,"Delta":105865870},{"NoteNumber":58,"Velocity":62,"Duration":81353,"SoundDuration":81353,"Delta":105865870},{"NoteNumber":67,"Velocity":65,"Duration":88558,"SoundDuration":88558,"Delta":106028578},{"NoteNumber":70,"Velocity":65,"Duration":88558,"SoundDuration":88558,"Delta":106028578},{"NoteNumber":51,"Velocity":62,"Duration":88558,"SoundDuration":88558,"Delta":106028578},{"NoteNumber":61,"Velocity":62,"Duration":88558,"SoundDuration":88558,"Delta":106028578},{"NoteNumber":58,"Velocity":62,"Duration":88558,"SoundDuration":88558,"Delta":106028578},{"NoteNumber":67,"Velocity":72,"Duration":82245,"SoundDuration":82245,"Delta":106205694},{"NoteNumber":70,"Velocity":72,"Duration":82245,"SoundDuration":82245,"Delta":106205694},{"NoteNumber":79,"Velocity":85,"Duration":82245,"SoundDuration":82245,"Delta":106205694},{"NoteNumber":60,"Velocity":65,"Duration":82245,"SoundDuration":82245,"Delta":106205694},{"NoteNumber":58,"Velocity":55,"Duration":82245,"SoundDuration":82245,"Delta":106205694},{"NoteNumber":52,"Velocity":55,"Duration":82245,"SoundDuration":82245,"Delta":106205694},{"NoteNumber":67,"Velocity":61,"Duration":82245,"SoundDuration":82245,"Delta":106370186},{"NoteNumber":70,"Velocity":61,"Duration":82245,"SoundDuration":82245,"Delta":106370186},{"NoteNumber":77,"Velocity":72,"Duration":82245,"SoundDuration":82245,"Delta":106370186},{"NoteNumber":52,"Velocity":44,"Duration":82245,"SoundDuration":82245,"Delta":106370186},{"NoteNumber":58,"Velocity":44,"Duration":82245,"SoundDuration":82245,"Delta":106370186},{"NoteNumber":60,"Velocity":52,"Duration":82245,"SoundDuration":82245,"Delta":106370186},{"NoteNumber":76,"Velocity":69,"Duration":80914,"SoundDuration":80914,"Delta":106534678},{"NoteNumber":70,"Velocity":58,"Duration":80914,"SoundDuration":80914,"Delta":106534678},{"NoteNumber":67,"Velocity":58,"Duration":80914,"SoundDuration":80914,"Delta":106534678},{"NoteNumber":52,"Velocity":44,"Duration":80914,"SoundDuration":80914,"Delta":106534678},{"NoteNumber":58,"Velocity":44,"Duration":80914,"SoundDuration":80914,"Delta":106534678},{"NoteNumber":60,"Velocity":52,"Duration":80914,"SoundDuration":80914,"Delta":106534678},{"NoteNumber":76,"Velocity":78,"Duration":80914,"SoundDuration":80914,"Delta":106696508},{"NoteNumber":70,"Velocity":66,"Duration":80914,"SoundDuration":80914,"Delta":106696508},{"NoteNumber":67,"Velocity":66,"Duration":80914,"SoundDuration":80914,"Delta":106696508},{"NoteNumber":60,"Velocity":59,"Duration":80914,"SoundDuration":80914,"Delta":106696508},{"NoteNumber":58,"Velocity":50,"Duration":80914,"SoundDuration":80914,"Delta":106696508},{"NoteNumber":52,"Velocity":50,"Duration":80914,"SoundDuration":80914,"Delta":106696508},{"NoteNumber":67,"Velocity":60,"Duration":80914,"SoundDuration":80914,"Delta":106858337},{"NoteNumber":70,"Velocity":60,"Duration":80914,"SoundDuration":80914,"Delta":106858337},{"NoteNumber":74,"Velocity":71,"Duration":80914,"SoundDuration":80914,"Delta":106858337},{"NoteNumber":52,"Velocity":44,"Duration":80914,"SoundDuration":80914,"Delta":106858337},{"NoteNumber":58,"Velocity":44,"Duration":80914,"SoundDuration":80914,"Delta":106858337},{"NoteNumber":60,"Velocity":52,"Duration":80914,"SoundDuration":80914,"Delta":106858337},{"NoteNumber":67,"Velocity":60,"Duration":86515,"SoundDuration":86515,"Delta":107020167},{"NoteNumber":70,"Velocity":60,"Duration":86515,"SoundDuration":86515,"Delta":107020167},{"NoteNumber":72,"Velocity":71,"Duration":86515,"SoundDuration":86515,"Delta":107020167},{"NoteNumber":52,"Velocity":44,"Duration":86515,"SoundDuration":86515,"Delta":107020167},{"NoteNumber":58,"Velocity":44,"Duration":86515,"SoundDuration":86515,"Delta":107020167},{"NoteNumber":60,"Velocity":52,"Duration":86515,"SoundDuration":86515,"Delta":107020167},{"NoteNumber":72,"Velocity":79,"Duration":490784,"SoundDuration":490784,"Delta":107193197},{"NoteNumber":51,"Velocity":65,"Duration":163594,"SoundDuration":163594,"Delta":107193197},{"NoteNumber":65,"Velocity":56,"Duration":81797,"SoundDuration":81797,"Delta":107356792},{"NoteNumber":69,"Velocity":56,"Duration":81797,"SoundDuration":81797,"Delta":107356792},{"NoteNumber":53,"Velocity":31,"Duration":81797,"SoundDuration":81797,"Delta":107356792},{"NoteNumber":57,"Velocity":31,"Duration":81797,"SoundDuration":81797,"Delta":107356792},{"NoteNumber":60,"Velocity":44,"Duration":81797,"SoundDuration":81797,"Delta":107356792},{"NoteNumber":65,"Velocity":56,"Duration":81797,"SoundDuration":81797,"Delta":107520387},{"NoteNumber":69,"Velocity":56,"Duration":81797,"SoundDuration":81797,"Delta":107520387},{"NoteNumber":53,"Velocity":31,"Duration":81797,"SoundDuration":81797,"Delta":107520387},{"NoteNumber":57,"Velocity":31,"Duration":81797,"SoundDuration":81797,"Delta":107520387},{"NoteNumber":60,"Velocity":44,"Duration":81797,"SoundDuration":81797,"Delta":107520387},{"NoteNumber":74,"Velocity":67,"Duration":337628,"SoundDuration":337628,"Delta":107683982},{"NoteNumber":50,"Velocity":59,"Duration":163594,"SoundDuration":163594,"Delta":107683982},{"NoteNumber":65,"Velocity":47,"Duration":87017,"SoundDuration":87017,"Delta":107847576},{"NoteNumber":70,"Velocity":47,"Duration":87017,"SoundDuration":87017,"Delta":107847576},{"NoteNumber":53,"Velocity":37,"Duration":87017,"SoundDuration":87017,"Delta":107847576},{"NoteNumber":58,"Velocity":52,"Duration":87017,"SoundDuration":87017,"Delta":107847576},{"NoteNumber":65,"Velocity":52,"Duration":182503,"SoundDuration":182503,"Delta":108021610},{"NoteNumber":70,"Velocity":52,"Duration":182503,"SoundDuration":182503,"Delta":108021610},{"NoteNumber":74,"Velocity":62,"Duration":182503,"SoundDuration":182503,"Delta":108021610},{"NoteNumber":53,"Velocity":37,"Duration":91251,"SoundDuration":91251,"Delta":108021610},{"NoteNumber":58,"Velocity":52,"Duration":91251,"SoundDuration":91251,"Delta":108021610},{"NoteNumber":77,"Velocity":79,"Duration":490784,"SoundDuration":490784,"Delta":108204114},{"NoteNumber":48,"Velocity":65,"Duration":163594,"SoundDuration":163594,"Delta":108204114},{"NoteNumber":67,"Velocity":56,"Duration":81797,"SoundDuration":81797,"Delta":108367709},{"NoteNumber":70,"Velocity":56,"Duration":81797,"SoundDuration":81797,"Delta":108367709},{"NoteNumber":55,"Velocity":31,"Duration":81797,"SoundDuration":81797,"Delta":108367709},{"NoteNumber":58,"Velocity":31,"Duration":81797,"SoundDuration":81797,"Delta":108367709},{"NoteNumber":60,"Velocity":44,"Duration":81797,"SoundDuration":81797,"Delta":108367709},{"NoteNumber":67,"Velocity":56,"Duration":81797,"SoundDuration":81797,"Delta":108531304},{"NoteNumber":70,"Velocity":56,"Duration":81797,"SoundDuration":81797,"Delta":108531304},{"NoteNumber":55,"Velocity":31,"Duration":81797,"SoundDuration":81797,"Delta":108531304},{"NoteNumber":58,"Velocity":31,"Duration":81797,"SoundDuration":81797,"Delta":108531304},{"NoteNumber":60,"Velocity":44,"Duration":81797,"SoundDuration":81797,"Delta":108531304},{"NoteNumber":75,"Velocity":67,"Duration":333681,"SoundDuration":333681,"Delta":108694899},{"NoteNumber":53,"Velocity":59,"Duration":163594,"SoundDuration":163594,"Delta":108694899},{"NoteNumber":65,"Velocity":47,"Duration":85043,"SoundDuration":85043,"Delta":108858493},{"NoteNumber":69,"Velocity":47,"Duration":85043,"SoundDuration":85043,"Delta":108858493},{"NoteNumber":60,"Velocity":31,"Duration":85043,"SoundDuration":85043,"Delta":108858493},{"NoteNumber":57,"Velocity":31,"Duration":85043,"SoundDuration":85043,"Delta":108858493},{"NoteNumber":63,"Velocity":44,"Duration":85043,"SoundDuration":85043,"Delta":108858493},{"NoteNumber":72,"Velocity":49,"Duration":178168,"SoundDuration":178168,"Delta":109028581},{"NoteNumber":69,"Velocity":41,"Duration":178168,"SoundDuration":178168,"Delta":109028581},{"NoteNumber":65,"Velocity":41,"Duration":178168,"SoundDuration":178168,"Delta":109028581},{"NoteNumber":63,"Velocity":42,"Duration":89084,"SoundDuration":89084,"Delta":109028581},{"NoteNumber":57,"Velocity":35,"Duration":89084,"SoundDuration":89084,"Delta":109028581},{"NoteNumber":60,"Velocity":35,"Duration":89084,"SoundDuration":89084,"Delta":109028581},{"NoteNumber":70,"Velocity":61,"Duration":490784,"SoundDuration":490784,"Delta":109206749},{"NoteNumber":58,"Velocity":53,"Duration":163594,"SoundDuration":163594,"Delta":109206749},{"NoteNumber":65,"Velocity":49,"Duration":81797,"SoundDuration":81797,"Delta":109370344},{"NoteNumber":62,"Velocity":45,"Duration":81797,"SoundDuration":81797,"Delta":109370344},{"NoteNumber":65,"Velocity":49,"Duration":81797,"SoundDuration":81797,"Delta":109533939},{"NoteNumber":62,"Velocity":45,"Duration":81797,"SoundDuration":81797,"Delta":109533939},{"NoteNumber":50,"Velocity":53,"Duration":163594,"SoundDuration":163594,"Delta":109697533},{"NoteNumber":53,"Velocity":45,"Duration":81797,"SoundDuration":81797,"Delta":109861128},{"NoteNumber":65,"Velocity":47,"Duration":84090,"SoundDuration":84090,"Delta":110024723},{"NoteNumber":53,"Velocity":49,"Duration":84090,"SoundDuration":84090,"Delta":110024723},{"NoteNumber":60,"Velocity":55,"Duration":155135,"SoundDuration":155135,"Delta":110192903},{"NoteNumber":65,"Velocity":55,"Duration":155135,"SoundDuration":155135,"Delta":110192903},{"NoteNumber":45,"Velocity":55,"Duration":310270,"SoundDuration":310270,"Delta":110192903},{"NoteNumber":63,"Velocity":50,"Duration":155135,"SoundDuration":155135,"Delta":110348038},{"NoteNumber":53,"Velocity":50,"Duration":155135,"SoundDuration":155135,"Delta":110348038},{"NoteNumber":65,"Velocity":50,"Duration":83157,"SoundDuration":83157,"Delta":110503173},{"NoteNumber":60,"Velocity":50,"Duration":83157,"SoundDuration":83157,"Delta":110503173},{"NoteNumber":60,"Velocity":57,"Duration":155135,"SoundDuration":155135,"Delta":110669489},{"NoteNumber":65,"Velocity":57,"Duration":155135,"SoundDuration":155135,"Delta":110669489},{"NoteNumber":29,"Velocity":45,"Duration":310270,"SoundDuration":310270,"Delta":110669489},{"NoteNumber":41,"Velocity":45,"Duration":310270,"SoundDuration":310270,"Delta":110669489},{"NoteNumber":63,"Velocity":54,"Duration":155135,"SoundDuration":155135,"Delta":110824624},{"NoteNumber":53,"Velocity":54,"Duration":155135,"SoundDuration":155135,"Delta":110824624},{"NoteNumber":65,"Velocity":54,"Duration":82245,"SoundDuration":82245,"Delta":110979759},{"NoteNumber":60,"Velocity":54,"Duration":82245,"SoundDuration":82245,"Delta":110979759},{"NoteNumber":58,"Velocity":60,"Duration":155135,"SoundDuration":155135,"Delta":111144250},{"NoteNumber":65,"Velocity":60,"Duration":155135,"SoundDuration":155135,"Delta":111144250},{"NoteNumber":34,"Velocity":59,"Duration":310270,"SoundDuration":310270,"Delta":111144250},{"NoteNumber":46,"Velocity":59,"Duration":310270,"SoundDuration":310270,"Delta":111144250},{"NoteNumber":62,"Velocity":55,"Duration":155135,"SoundDuration":155135,"Delta":111299385},{"NoteNumber":53,"Velocity":55,"Duration":155135,"SoundDuration":155135,"Delta":111299385},{"NoteNumber":65,"Velocity":56,"Duration":82699,"SoundDuration":82699,"Delta":111454520},{"NoteNumber":58,"Velocity":56,"Duration":82699,"SoundDuration":82699,"Delta":111454520},{"NoteNumber":58,"Velocity":64,"Duration":155135,"SoundDuration":155135,"Delta":111619919},{"NoteNumber":65,"Velocity":64,"Duration":155135,"SoundDuration":155135,"Delta":111619919},{"NoteNumber":38,"Velocity":50,"Duration":310270,"SoundDuration":310270,"Delta":111619919},{"NoteNumber":50,"Velocity":50,"Duration":310270,"SoundDuration":310270,"Delta":111619919},{"NoteNumber":62,"Velocity":59,"Duration":155135,"SoundDuration":155135,"Delta":111775054},{"NoteNumber":53,"Velocity":59,"Duration":155135,"SoundDuration":155135,"Delta":111775054},{"NoteNumber":65,"Velocity":60,"Duration":82245,"SoundDuration":82245,"Delta":111930189},{"NoteNumber":58,"Velocity":60,"Duration":82245,"SoundDuration":82245,"Delta":111930189},{"NoteNumber":60,"Velocity":66,"Duration":151224,"SoundDuration":151224,"Delta":112094681},{"NoteNumber":65,"Velocity":66,"Duration":151224,"SoundDuration":151224,"Delta":112094681},{"NoteNumber":33,"Velocity":66,"Duration":302449,"SoundDuration":302449,"Delta":112094681},{"NoteNumber":45,"Velocity":66,"Duration":302449,"SoundDuration":302449,"Delta":112094681},{"NoteNumber":63,"Velocity":61,"Duration":151224,"SoundDuration":151224,"Delta":112245906},{"NoteNumber":53,"Velocity":61,"Duration":151224,"SoundDuration":151224,"Delta":112245906},{"NoteNumber":65,"Velocity":61,"Duration":82245,"SoundDuration":82245,"Delta":112397131},{"NoteNumber":60,"Velocity":61,"Duration":82245,"SoundDuration":82245,"Delta":112397131},{"NoteNumber":60,"Velocity":69,"Duration":151224,"SoundDuration":151224,"Delta":112561622},{"NoteNumber":65,"Velocity":69,"Duration":151224,"SoundDuration":151224,"Delta":112561622},{"NoteNumber":29,"Velocity":55,"Duration":302449,"SoundDuration":302449,"Delta":112561622},{"NoteNumber":41,"Velocity":55,"Duration":302449,"SoundDuration":302449,"Delta":112561622},{"NoteNumber":63,"Velocity":64,"Duration":151224,"SoundDuration":151224,"Delta":112712847},{"NoteNumber":53,"Velocity":64,"Duration":151224,"SoundDuration":151224,"Delta":112712847},{"NoteNumber":65,"Velocity":66,"Duration":81797,"SoundDuration":81797,"Delta":112864072},{"NoteNumber":60,"Velocity":66,"Duration":81797,"SoundDuration":81797,"Delta":112864072},{"NoteNumber":58,"Velocity":73,"Duration":148972,"SoundDuration":148972,"Delta":113027667},{"NoteNumber":65,"Velocity":73,"Duration":148972,"SoundDuration":148972,"Delta":113027667},{"NoteNumber":34,"Velocity":73,"Duration":297944,"SoundDuration":297944,"Delta":113027667},{"NoteNumber":46,"Velocity":73,"Duration":297944,"SoundDuration":297944,"Delta":113027667},{"NoteNumber":62,"Velocity":66,"Duration":148972,"SoundDuration":148972,"Delta":113176639},{"NoteNumber":53,"Velocity":66,"Duration":148972,"SoundDuration":148972,"Delta":113176639},{"NoteNumber":65,"Velocity":67,"Duration":80051,"SoundDuration":80051,"Delta":113325611},{"NoteNumber":58,"Velocity":67,"Duration":80051,"SoundDuration":80051,"Delta":113325611},{"NoteNumber":58,"Velocity":76,"Duration":150466,"SoundDuration":150466,"Delta":113485714},{"NoteNumber":65,"Velocity":76,"Duration":150466,"SoundDuration":150466,"Delta":113485714},{"NoteNumber":38,"Velocity":61,"Duration":300933,"SoundDuration":300933,"Delta":113485714},{"NoteNumber":50,"Velocity":61,"Duration":300933,"SoundDuration":300933,"Delta":113485714},{"NoteNumber":62,"Velocity":71,"Duration":150466,"SoundDuration":150466,"Delta":113636180},{"NoteNumber":53,"Velocity":71,"Duration":150466,"SoundDuration":150466,"Delta":113636180},{"NoteNumber":65,"Velocity":71,"Duration":85043,"SoundDuration":85043,"Delta":113786647},{"NoteNumber":58,"Velocity":71,"Duration":85043,"SoundDuration":85043,"Delta":113786647},{"NoteNumber":65,"Velocity":88,"Duration":465405,"SoundDuration":465405,"Delta":113956734},{"NoteNumber":60,"Velocity":74,"Duration":465405,"SoundDuration":465405,"Delta":113956734},{"NoteNumber":45,"Velocity":70,"Duration":155135,"SoundDuration":155135,"Delta":113956734},{"NoteNumber":51,"Velocity":60,"Duration":77567,"SoundDuration":77567,"Delta":114111869},{"NoteNumber":53,"Velocity":60,"Duration":77567,"SoundDuration":77567,"Delta":114111869},{"NoteNumber":53,"Velocity":59,"Duration":77567,"SoundDuration":77567,"Delta":114267004},{"NoteNumber":51,"Velocity":59,"Duration":77567,"SoundDuration":77567,"Delta":114267004},{"NoteNumber":70,"Velocity":91,"Duration":474761,"SoundDuration":474761,"Delta":114422139},{"NoteNumber":58,"Velocity":77,"Duration":474761,"SoundDuration":474761,"Delta":114422139},{"NoteNumber":50,"Velocity":75,"Duration":155135,"SoundDuration":155135,"Delta":114422139},{"NoteNumber":53,"Velocity":63,"Duration":77567,"SoundDuration":77567,"Delta":114577274},{"NoteNumber":51,"Velocity":63,"Duration":77567,"SoundDuration":77567,"Delta":114577274},{"NoteNumber":53,"Velocity":67,"Duration":82245,"SoundDuration":82245,"Delta":114732409},{"NoteNumber":51,"Velocity":67,"Duration":82245,"SoundDuration":82245,"Delta":114732409},{"NoteNumber":69,"Velocity":94,"Duration":463010,"SoundDuration":463010,"Delta":114896901},{"NoteNumber":57,"Velocity":79,"Duration":463010,"SoundDuration":463010,"Delta":114896901},{"NoteNumber":48,"Velocity":75,"Duration":154336,"SoundDuration":154336,"Delta":114896901},{"NoteNumber":51,"Velocity":64,"Duration":77168,"SoundDuration":77168,"Delta":115051237},{"NoteNumber":53,"Velocity":64,"Duration":77168,"SoundDuration":77168,"Delta":115051237},{"NoteNumber":53,"Velocity":64,"Duration":77168,"SoundDuration":77168,"Delta":115205574},{"NoteNumber":51,"Velocity":64,"Duration":77168,"SoundDuration":77168,"Delta":115205574},{"NoteNumber":74,"Velocity":97,"Duration":474071,"SoundDuration":474071,"Delta":115359911},{"NoteNumber":62,"Velocity":82,"Duration":474071,"SoundDuration":474071,"Delta":115359911},{"NoteNumber":50,"Velocity":81,"Duration":154336,"SoundDuration":154336,"Delta":115359911},{"NoteNumber":53,"Velocity":68,"Duration":77168,"SoundDuration":77168,"Delta":115514248},{"NoteNumber":51,"Velocity":68,"Duration":77168,"SoundDuration":77168,"Delta":115514248},{"NoteNumber":53,"Velocity":72,"Duration":82699,"SoundDuration":82699,"Delta":115668584},{"NoteNumber":51,"Velocity":72,"Duration":82699,"SoundDuration":82699,"Delta":115668584},{"NoteNumber":72,"Velocity":100,"Duration":463010,"SoundDuration":463010,"Delta":115833983},{"NoteNumber":60,"Velocity":85,"Duration":463010,"SoundDuration":463010,"Delta":115833983},{"NoteNumber":45,"Velocity":81,"Duration":154336,"SoundDuration":154336,"Delta":115833983},{"NoteNumber":51,"Velocity":69,"Duration":77168,"SoundDuration":77168,"Delta":115988320},{"NoteNumber":53,"Velocity":69,"Duration":77168,"SoundDuration":77168,"Delta":115988320},{"NoteNumber":53,"Velocity":69,"Duration":77168,"SoundDuration":77168,"Delta":116142656},{"NoteNumber":51,"Velocity":69,"Duration":77168,"SoundDuration":77168,"Delta":116142656},{"NoteNumber":75,"Velocity":103,"Duration":647118,"SoundDuration":647118,"Delta":116296993},{"NoteNumber":63,"Velocity":87,"Duration":647118,"SoundDuration":647118,"Delta":116296993},{"NoteNumber":43,"Velocity":86,"Duration":154336,"SoundDuration":154336,"Delta":116296993},{"NoteNumber":55,"Velocity":72,"Duration":77168,"SoundDuration":77168,"Delta":116451330},{"NoteNumber":51,"Velocity":72,"Duration":77168,"SoundDuration":77168,"Delta":116451330},{"NoteNumber":55,"Velocity":74,"Duration":91251,"SoundDuration":91251,"Delta":116605667},{"NoteNumber":51,"Velocity":74,"Duration":91251,"SoundDuration":91251,"Delta":116605667},{"NoteNumber":41,"Velocity":79,"Duration":155941,"SoundDuration":155941,"Delta":116788171},{"NoteNumber":74,"Velocity":86,"Duration":113993,"SoundDuration":113993,"Delta":116944112},{"NoteNumber":63,"Velocity":73,"Duration":113993,"SoundDuration":113993,"Delta":116944112},{"NoteNumber":57,"Velocity":78,"Duration":113993,"SoundDuration":113993,"Delta":116944112},{"NoteNumber":51,"Velocity":66,"Duration":113993,"SoundDuration":113993,"Delta":116944112},{"NoteNumber":48,"Velocity":66,"Duration":113993,"SoundDuration":113993,"Delta":116944112},{"NoteNumber":72,"Velocity":86,"Duration":113993,"SoundDuration":113993,"Delta":117096103},{"NoteNumber":63,"Velocity":73,"Duration":113993,"SoundDuration":113993,"Delta":117096103},{"NoteNumber":57,"Velocity":78,"Duration":113993,"SoundDuration":113993,"Delta":117096103},{"NoteNumber":51,"Velocity":66,"Duration":113993,"SoundDuration":113993,"Delta":117096103},{"NoteNumber":48,"Velocity":66,"Duration":113993,"SoundDuration":113993,"Delta":117096103},{"NoteNumber":63,"Velocity":79,"Duration":113993,"SoundDuration":113993,"Delta":117248094},{"NoteNumber":72,"Velocity":93,"Duration":113993,"SoundDuration":113993,"Delta":117248094},{"NoteNumber":48,"Velocity":73,"Duration":113993,"SoundDuration":113993,"Delta":117248094},{"NoteNumber":51,"Velocity":73,"Duration":113993,"SoundDuration":113993,"Delta":117248094},{"NoteNumber":57,"Velocity":86,"Duration":113993,"SoundDuration":113993,"Delta":117248094},{"NoteNumber":70,"Velocity":88,"Duration":113993,"SoundDuration":113993,"Delta":117400085},{"NoteNumber":63,"Velocity":74,"Duration":113993,"SoundDuration":113993,"Delta":117400085},{"NoteNumber":57,"Velocity":79,"Duration":113993,"SoundDuration":113993,"Delta":117400085},{"NoteNumber":51,"Velocity":67,"Duration":113993,"SoundDuration":113993,"Delta":117400085},{"NoteNumber":48,"Velocity":67,"Duration":113993,"SoundDuration":113993,"Delta":117400085},{"NoteNumber":69,"Velocity":88,"Duration":120721,"SoundDuration":120721,"Delta":117552076},{"NoteNumber":63,"Velocity":74,"Duration":120721,"SoundDuration":120721,"Delta":117552076},{"NoteNumber":57,"Velocity":79,"Duration":120721,"SoundDuration":120721,"Delta":117552076},{"NoteNumber":51,"Velocity":67,"Duration":120721,"SoundDuration":120721,"Delta":117552076},{"NoteNumber":48,"Velocity":67,"Duration":120721,"SoundDuration":120721,"Delta":117552076},{"NoteNumber":63,"Velocity":79,"Duration":113993,"SoundDuration":113993,"Delta":117713037},{"NoteNumber":69,"Velocity":93,"Duration":113993,"SoundDuration":113993,"Delta":117713037},{"NoteNumber":48,"Velocity":73,"Duration":113993,"SoundDuration":113993,"Delta":117713037},{"NoteNumber":51,"Velocity":73,"Duration":113993,"SoundDuration":113993,"Delta":117713037},{"NoteNumber":57,"Velocity":86,"Duration":113993,"SoundDuration":113993,"Delta":117713037},{"NoteNumber":67,"Velocity":86,"Duration":113993,"SoundDuration":113993,"Delta":117865028},{"NoteNumber":63,"Velocity":73,"Duration":113993,"SoundDuration":113993,"Delta":117865028},{"NoteNumber":57,"Velocity":80,"Duration":113993,"SoundDuration":113993,"Delta":117865028},{"NoteNumber":51,"Velocity":68,"Duration":113993,"SoundDuration":113993,"Delta":117865028},{"NoteNumber":48,"Velocity":68,"Duration":113993,"SoundDuration":113993,"Delta":117865028},{"NoteNumber":65,"Velocity":86,"Duration":113993,"SoundDuration":113993,"Delta":118017019},{"NoteNumber":63,"Velocity":73,"Duration":113993,"SoundDuration":113993,"Delta":118017019},{"NoteNumber":57,"Velocity":80,"Duration":113993,"SoundDuration":113993,"Delta":118017019},{"NoteNumber":51,"Velocity":68,"Duration":113993,"SoundDuration":113993,"Delta":118017019},{"NoteNumber":48,"Velocity":68,"Duration":113993,"SoundDuration":113993,"Delta":118017019},{"NoteNumber":60,"Velocity":79,"Duration":113993,"SoundDuration":113993,"Delta":118169010},{"NoteNumber":65,"Velocity":93,"Duration":113993,"SoundDuration":113993,"Delta":118169010},{"NoteNumber":48,"Velocity":73,"Duration":113993,"SoundDuration":113993,"Delta":118169010},{"NoteNumber":51,"Velocity":73,"Duration":113993,"SoundDuration":113993,"Delta":118169010},{"NoteNumber":57,"Velocity":86,"Duration":113993,"SoundDuration":113993,"Delta":118169010},{"NoteNumber":64,"Velocity":86,"Duration":113993,"SoundDuration":113993,"Delta":118321001},{"NoteNumber":60,"Velocity":73,"Duration":113993,"SoundDuration":113993,"Delta":118321001},{"NoteNumber":57,"Velocity":81,"Duration":113993,"SoundDuration":113993,"Delta":118321001},{"NoteNumber":51,"Velocity":68,"Duration":113993,"SoundDuration":113993,"Delta":118321001},{"NoteNumber":48,"Velocity":68,"Duration":113993,"SoundDuration":113993,"Delta":118321001},{"NoteNumber":63,"Velocity":86,"Duration":120721,"SoundDuration":120721,"Delta":118472992},{"NoteNumber":60,"Velocity":73,"Duration":120721,"SoundDuration":120721,"Delta":118472992},{"NoteNumber":57,"Velocity":81,"Duration":120721,"SoundDuration":120721,"Delta":118472992},{"NoteNumber":51,"Velocity":68,"Duration":120721,"SoundDuration":120721,"Delta":118472992},{"NoteNumber":48,"Velocity":68,"Duration":120721,"SoundDuration":120721,"Delta":118472992},{"NoteNumber":57,"Velocity":79,"Duration":113993,"SoundDuration":113993,"Delta":118633954},{"NoteNumber":63,"Velocity":93,"Duration":113993,"SoundDuration":113993,"Delta":118633954},{"NoteNumber":41,"Velocity":73,"Duration":113993,"SoundDuration":113993,"Delta":118633954},{"NoteNumber":51,"Velocity":86,"Duration":113993,"SoundDuration":113993,"Delta":118633954},{"NoteNumber":62,"Velocity":88,"Duration":113993,"SoundDuration":113993,"Delta":118785945},{"NoteNumber":57,"Velocity":74,"Duration":113993,"SoundDuration":113993,"Delta":118785945},{"NoteNumber":51,"Velocity":81,"Duration":113993,"SoundDuration":113993,"Delta":118785945},{"NoteNumber":41,"Velocity":68,"Duration":113993,"SoundDuration":113993,"Delta":118785945},{"NoteNumber":60,"Velocity":86,"Duration":113993,"SoundDuration":113993,"Delta":118937936},{"NoteNumber":57,"Velocity":73,"Duration":113993,"SoundDuration":113993,"Delta":118937936},{"NoteNumber":51,"Velocity":82,"Duration":113993,"SoundDuration":113993,"Delta":118937936},{"NoteNumber":41,"Velocity":69,"Duration":113993,"SoundDuration":113993,"Delta":118937936},{"NoteNumber":57,"Velocity":79,"Duration":112849,"SoundDuration":112849,"Delta":119089927},{"NoteNumber":60,"Velocity":93,"Duration":112849,"SoundDuration":112849,"Delta":119089927},{"NoteNumber":41,"Velocity":73,"Duration":112849,"SoundDuration":112849,"Delta":119089927},{"NoteNumber":51,"Velocity":86,"Duration":112849,"SoundDuration":112849,"Delta":119089927},{"NoteNumber":58,"Velocity":85,"Duration":112849,"SoundDuration":112849,"Delta":119240393},{"NoteNumber":51,"Velocity":81,"Duration":112849,"SoundDuration":112849,"Delta":119240393},{"NoteNumber":41,"Velocity":68,"Duration":112849,"SoundDuration":112849,"Delta":119240393},{"NoteNumber":57,"Velocity":85,"Duration":132057,"SoundDuration":132057,"Delta":119390860},{"NoteNumber":51,"Velocity":81,"Duration":132057,"SoundDuration":132057,"Delta":119390860},{"NoteNumber":41,"Velocity":68,"Duration":132057,"SoundDuration":132057,"Delta":119390860},{"NoteNumber":58,"Velocity":93,"Duration":219106,"SoundDuration":219106,"Delta":119566937},{"NoteNumber":46,"Velocity":73,"Duration":219106,"SoundDuration":219106,"Delta":119566937},{"NoteNumber":50,"Velocity":86,"Duration":219106,"SoundDuration":219106,"Delta":119566937},{"NoteNumber":53,"Velocity":79,"Duration":219106,"SoundDuration":219106,"Delta":120005149},{"NoteNumber":58,"Velocity":79,"Duration":219106,"SoundDuration":219106,"Delta":120005149},{"NoteNumber":62,"Velocity":93,"Duration":219106,"SoundDuration":219106,"Delta":120005149},{"NoteNumber":46,"Velocity":73,"Duration":219106,"SoundDuration":219106,"Delta":120005149},{"NoteNumber":50,"Velocity":86,"Duration":219106,"SoundDuration":219106,"Delta":120005149},{"NoteNumber":58,"Velocity":79,"Duration":219106,"SoundDuration":219106,"Delta":120443361},{"NoteNumber":62,"Velocity":79,"Duration":219106,"SoundDuration":219106,"Delta":120443361},{"NoteNumber":65,"Velocity":93,"Duration":219106,"SoundDuration":219106,"Delta":120443361},{"NoteNumber":46,"Velocity":73,"Duration":219106,"SoundDuration":219106,"Delta":120443361},{"NoteNumber":50,"Velocity":86,"Duration":219106,"SoundDuration":219106,"Delta":120443361},{"NoteNumber":62,"Velocity":79,"Duration":219106,"SoundDuration":219106,"Delta":120881574},{"NoteNumber":65,"Velocity":79,"Duration":219106,"SoundDuration":219106,"Delta":120881574},{"NoteNumber":70,"Velocity":93,"Duration":219106,"SoundDuration":219106,"Delta":120881574},{"NoteNumber":46,"Velocity":73,"Duration":219106,"SoundDuration":219106,"Delta":120881574},{"NoteNumber":53,"Velocity":73,"Duration":219106,"SoundDuration":219106,"Delta":120881574},{"NoteNumber":58,"Velocity":86,"Duration":219106,"SoundDuration":219106,"Delta":120881574},{"NoteNumber":62,"Velocity":79,"Duration":286560,"SoundDuration":286560,"Delta":121319786},{"NoteNumber":65,"Velocity":79,"Duration":286560,"SoundDuration":286560,"Delta":121319786},{"NoteNumber":70,"Velocity":79,"Duration":286560,"SoundDuration":286560,"Delta":121319786},{"NoteNumber":74,"Velocity":93,"Duration":286560,"SoundDuration":286560,"Delta":121319786},{"NoteNumber":46,"Velocity":73,"Duration":286560,"SoundDuration":286560,"Delta":121319786},{"NoteNumber":53,"Velocity":73,"Duration":286560,"SoundDuration":286560,"Delta":121319786},{"NoteNumber":58,"Velocity":86,"Duration":286560,"SoundDuration":286560,"Delta":121319786},{"NoteNumber":65,"Velocity":79,"Duration":313512,"SoundDuration":313512,"Delta":122179467},{"NoteNumber":70,"Velocity":79,"Duration":313512,"SoundDuration":313512,"Delta":122179467},{"NoteNumber":77,"Velocity":93,"Duration":313512,"SoundDuration":313512,"Delta":122179467},{"NoteNumber":53,"Velocity":73,"Duration":313512,"SoundDuration":313512,"Delta":122179467},{"NoteNumber":58,"Velocity":73,"Duration":313512,"SoundDuration":313512,"Delta":122179467},{"NoteNumber":62,"Velocity":86,"Duration":313512,"SoundDuration":313512,"Delta":122179467},{"NoteNumber":74,"Velocity":99,"Duration":313512,"SoundDuration":313512,"Delta":123120005},{"NoteNumber":82,"Velocity":116,"Duration":313512,"SoundDuration":313512,"Delta":123120005},{"NoteNumber":34,"Velocity":107,"Duration":313512,"SoundDuration":313512,"Delta":123120005}],"license":{"name":"Creative Commons Attribution-ShareAlike 3.0 Germany","url":"http://creativecommons.org/licenses/by-sa/3.0/de/deed.en","text":"The MIDI, audio (MP3, OGG) and video files of Bernd Krueger are licensed under the cc-by-sa Germany License. This means that you can use and adapt the files, as long as you attribute the copyright holder.\n\nName: Bernd Krueger\nSource: http://www.piano-midi.de\n\nThe distribution or public playback of the files is only allowed under identical license conditions.\n\nThe scores are open source.","attribution":"MIDI files by Bernd Krueger (piano-midi.de)","attributionUrl":"http://www.piano-midi.de"}}