{"title":"Lieder ohne Worte Opus 19 Nr. 2","artist":"Mendelssohn","durationMs":167691,"midiSha256":"6c2c33a6058ecd54d0c6084ac99df5931189ddb49b76ea8147b5648e95e043e4","midiObject":[{"NoteNumber":76,"Velocity":65,"Duration":612370,"SoundDuration":612370,"Delta":0},{"NoteNumber":60,"Velocity":40,"Duration":306185,"SoundDuration":306185,"Delta":0},{"NoteNumber":64,"Velocity":32,"Duration":306185,"SoundDuration":306185,"Delta":306185},{"NoteNumber":74,"Velocity":72,"Duration":612370,"SoundDuration":612370,"Delta":612370},{"NoteNumber":59,"Velocity":40,"Duration":306184,"SoundDuration":306184,"Delta":612370},{"NoteNumber":64,"Velocity":29,"Duration":306185,"SoundDuration":306185,"Delta":918555},{"NoteNumber":72,"Velocity":60,"Duration":612370,"SoundDuration":612370,"Delta":1224740},{"NoteNumber":57,"Velocity":32,"Duration":306185,"SoundDuration":306185,"Delta":1224740},{"NoteNumber":64,"Velocity":31,"Duration":306185,"SoundDuration":306185,"Delta":1530925},{"NoteNumber":71,"Velocity":60,"Duration":280669,"SoundDuration":280669,"Delta":1837110},{"NoteNumber":56,"Velocity":38,"Duration":306184,"SoundDuration":306184,"Delta":1837110},{"NoteNumber":71,"Velocity":54,"Duration":102061,"SoundDuration":102061,"Delta":2143295},{"NoteNumber":64,"Velocity":32,"Duration":306185,"SoundDuration":306185,"Delta":2143295},{"NoteNumber":72,"Velocity":49,"Duration":102061,"SoundDuration":102061,"Delta":2245356},{"NoteNumber":74,"Velocity":51,"Duration":102061,"SoundDuration":102061,"Delta":2347418},{"NoteNumber":72,"Velocity":68,"Duration":612370,"SoundDuration":612370,"Delta":2449480},{"NoteNumber":57,"Velocity":40,"Duration":306185,"SoundDuration":306185,"Delta":2449480},{"NoteNumber":64,"Velocity":33,"Duration":306185,"SoundDuration":306185,"Delta":2755665},{"NoteNumber":71,"Velocity":60,"Duration":612369,"SoundDuration":612369,"Delta":3061850},{"NoteNumber":59,"Velocity":38,"Duration":306184,"SoundDuration":306184,"Delta":3061850},{"NoteNumber":64,"Velocity":31,"Duration":306185,"SoundDuration":306185,"Delta":3368035},{"NoteNumber":69,"Velocity":66,"Duration":1243617,"SoundDuration":1243617,"Delta":3674220},{"NoteNumber":60,"Velocity":39,"Duration":306185,"SoundDuration":306185,"Delta":3674220},{"NoteNumber":64,"Velocity":42,"Duration":332594,"SoundDuration":332594,"Delta":3980405},{"NoteNumber":77,"Velocity":77,"Duration":604838,"SoundDuration":604838,"Delta":4312999},{"NoteNumber":50,"Velocity":47,"Duration":302419,"SoundDuration":302419,"Delta":4312999},{"NoteNumber":62,"Velocity":46,"Duration":302419,"SoundDuration":302419,"Delta":4615418},{"NoteNumber":77,"Velocity":63,"Duration":302419,"SoundDuration":302419,"Delta":4917837},{"NoteNumber":69,"Velocity":63,"Duration":302419,"SoundDuration":302419,"Delta":4917837},{"NoteNumber":53,"Velocity":47,"Duration":302419,"SoundDuration":302419,"Delta":4917837},{"NoteNumber":62,"Velocity":40,"Duration":302419,"SoundDuration":302419,"Delta":5220257},{"NoteNumber":77,"Velocity":58,"Duration":302419,"SoundDuration":302419,"Delta":5522676},{"NoteNumber":71,"Velocity":49,"Duration":302419,"SoundDuration":302419,"Delta":5522676},{"NoteNumber":56,"Velocity":31,"Duration":302419,"SoundDuration":302419,"Delta":5522676},{"NoteNumber":62,"Velocity":26,"Duration":318471,"SoundDuration":318471,"Delta":5825095},{"NoteNumber":71,"Velocity":51,"Duration":1209677,"SoundDuration":1209677,"Delta":6143566},{"NoteNumber":77,"Velocity":61,"Duration":1209677,"SoundDuration":1209677,"Delta":6143566},{"NoteNumber":48,"Velocity":33,"Duration":302419,"SoundDuration":302419,"Delta":6143566},{"NoteNumber":62,"Velocity":24,"Duration":302419,"SoundDuration":302419,"Delta":6445986},{"NoteNumber":56,"Velocity":28,"Duration":302419,"SoundDuration":302419,"Delta":6748405},{"NoteNumber":62,"Velocity":23,"Duration":302419,"SoundDuration":302419,"Delta":7050824},{"NoteNumber":72,"Velocity":39,"Duration":557521,"SoundDuration":557521,"Delta":7353243},{"NoteNumber":76,"Velocity":46,"Duration":557521,"SoundDuration":557521,"Delta":7353243},{"NoteNumber":57,"Velocity":27,"Duration":302419,"SoundDuration":302419,"Delta":7353243},{"NoteNumber":59,"Velocity":26,"Duration":340135,"SoundDuration":340135,"Delta":7655663},{"NoteNumber":76,"Velocity":47,"Duration":1197604,"SoundDuration":1197604,"Delta":7995799},{"NoteNumber":81,"Velocity":56,"Duration":1197604,"SoundDuration":1197604,"Delta":7995799},{"NoteNumber":60,"Velocity":25,"Duration":299401,"SoundDuration":299401,"Delta":7995799},{"NoteNumber":64,"Velocity":20,"Duration":299401,"SoundDuration":299401,"Delta":8295200},{"NoteNumber":60,"Velocity":24,"Duration":299401,"SoundDuration":299401,"Delta":8594601},{"NoteNumber":64,"Velocity":21,"Duration":299401,"SoundDuration":299401,"Delta":8894002},{"NoteNumber":80,"Velocity":46,"Duration":523952,"SoundDuration":523952,"Delta":9193403},{"NoteNumber":74,"Velocity":39,"Duration":523952,"SoundDuration":523952,"Delta":9193403},{"NoteNumber":59,"Velocity":22,"Duration":299401,"SoundDuration":299401,"Delta":9193403},{"NoteNumber":64,"Velocity":21,"Duration":299401,"SoundDuration":299401,"Delta":9492805},{"NoteNumber":72,"Velocity":47,"Duration":1197604,"SoundDuration":1197604,"Delta":9792206},{"NoteNumber":77,"Velocity":56,"Duration":1197604,"SoundDuration":1197604,"Delta":9792206},{"NoteNumber":57,"Velocity":24,"Duration":299401,"SoundDuration":299401,"Delta":9792206},{"NoteNumber":64,"Velocity":21,"Duration":299401,"SoundDuration":299401,"Delta":10091607},{"NoteNumber":57,"Velocity":23,"Duration":299401,"SoundDuration":299401,"Delta":10391009},{"NoteNumber":64,"Velocity":22,"Duration":299401,"SoundDuration":299401,"Delta":10690410},{"NoteNumber":71,"Velocity":38,"Duration":540817,"SoundDuration":540817,"Delta":10989811},{"NoteNumber":76,"Velocity":45,"Duration":540817,"SoundDuration":540817,"Delta":10989811},{"NoteNumber":56,"Velocity":24,"Duration":299401,"SoundDuration":299401,"Delta":10989811},{"NoteNumber":64,"Velocity":22,"Duration":321888,"SoundDuration":321888,"Delta":11289212},{"NoteNumber":71,"Velocity":50,"Duration":598802,"SoundDuration":598802,"Delta":11611101},{"NoteNumber":68,"Velocity":42,"Duration":598802,"SoundDuration":598802,"Delta":11611101},{"NoteNumber":52,"Velocity":40,"Duration":299401,"SoundDuration":299401,"Delta":11611101},{"NoteNumber":64,"Velocity":32,"Duration":299401,"SoundDuration":299401,"Delta":11910502},{"NoteNumber":74,"Velocity":50,"Duration":598802,"SoundDuration":598802,"Delta":12209903},{"NoteNumber":71,"Velocity":42,"Duration":598802,"SoundDuration":598802,"Delta":12209903},{"NoteNumber":57,"Velocity":37,"Duration":299401,"SoundDuration":299401,"Delta":12209903},{"NoteNumber":64,"Velocity":31,"Duration":299401,"SoundDuration":299401,"Delta":12509304},{"NoteNumber":72,"Velocity":43,"Duration":617283,"SoundDuration":617283,"Delta":12808706},{"NoteNumber":69,"Velocity":36,"Duration":617283,"SoundDuration":617283,"Delta":12808706},{"NoteNumber":51,"Velocity":37,"Duration":308642,"SoundDuration":308642,"Delta":12808706},{"NoteNumber":66,"Velocity":31,"Duration":308641,"SoundDuration":308641,"Delta":13117348},{"NoteNumber":71,"Velocity":46,"Duration":1264498,"SoundDuration":1264498,"Delta":13425990},{"NoteNumber":68,"Velocity":39,"Duration":1264498,"SoundDuration":1264498,"Delta":13425990},{"NoteNumber":52,"Velocity":40,"Duration":328947,"SoundDuration":328947,"Delta":13425990},{"NoteNumber":65,"Velocity":42,"Duration":311850,"SoundDuration":311850,"Delta":13754937},{"NoteNumber":64,"Velocity":39,"Duration":311850,"SoundDuration":311850,"Delta":14066787},{"NoteNumber":62,"Velocity":37,"Duration":311850,"SoundDuration":311850,"Delta":14378637},{"NoteNumber":76,"Velocity":65,"Duration":646321,"SoundDuration":646321,"Delta":14690488},{"NoteNumber":60,"Velocity":40,"Duration":306184,"SoundDuration":306184,"Delta":14690488},{"NoteNumber":64,"Velocity":32,"Duration":340136,"SoundDuration":340136,"Delta":14996673},{"NoteNumber":74,"Velocity":72,"Duration":610997,"SoundDuration":610997,"Delta":15336809},{"NoteNumber":59,"Velocity":40,"Duration":305499,"SoundDuration":305499,"Delta":15336809},{"NoteNumber":64,"Velocity":29,"Duration":305498,"SoundDuration":305498,"Delta":15642308},{"NoteNumber":72,"Velocity":60,"Duration":610998,"SoundDuration":610998,"Delta":15947807},{"NoteNumber":57,"Velocity":32,"Duration":305499,"SoundDuration":305499,"Delta":15947807},{"NoteNumber":64,"Velocity":31,"Duration":305499,"SoundDuration":305499,"Delta":16253306},{"NoteNumber":71,"Velocity":60,"Duration":280040,"SoundDuration":280040,"Delta":16558805},{"NoteNumber":56,"Velocity":38,"Duration":305498,"SoundDuration":305498,"Delta":16558805},{"NoteNumber":71,"Velocity":54,"Duration":101833,"SoundDuration":101833,"Delta":16864304},{"NoteNumber":64,"Velocity":32,"Duration":305499,"SoundDuration":305499,"Delta":16864304},{"NoteNumber":72,"Velocity":49,"Duration":101832,"SoundDuration":101832,"Delta":16966137},{"NoteNumber":74,"Velocity":51,"Duration":101832,"SoundDuration":101832,"Delta":17067970},{"NoteNumber":72,"Velocity":68,"Duration":610998,"SoundDuration":610998,"Delta":17169803},{"NoteNumber":57,"Velocity":40,"Duration":305499,"SoundDuration":305499,"Delta":17169803},{"NoteNumber":64,"Velocity":33,"Duration":305499,"SoundDuration":305499,"Delta":17475302},{"NoteNumber":71,"Velocity":60,"Duration":610997,"SoundDuration":610997,"Delta":17780801},{"NoteNumber":59,"Velocity":38,"Duration":305498,"SoundDuration":305498,"Delta":17780801},{"NoteNumber":64,"Velocity":31,"Duration":305499,"SoundDuration":305499,"Delta":18086300},{"NoteNumber":69,"Velocity":66,"Duration":641821,"SoundDuration":641821,"Delta":18391799},{"NoteNumber":60,"Velocity":39,"Duration":305499,"SoundDuration":305499,"Delta":18391799},{"NoteNumber":64,"Velocity":42,"Duration":336322,"SoundDuration":336322,"Delta":18697298},{"NoteNumber":77,"Velocity":77,"Duration":610997,"SoundDuration":610997,"Delta":19033621},{"NoteNumber":50,"Velocity":47,"Duration":305499,"SoundDuration":305499,"Delta":19033621},{"NoteNumber":62,"Velocity":46,"Duration":305498,"SoundDuration":305498,"Delta":19339120},{"NoteNumber":77,"Velocity":63,"Duration":305499,"SoundDuration":305499,"Delta":19644619},{"NoteNumber":72,"Velocity":53,"Duration":305499,"SoundDuration":305499,"Delta":19644619},{"NoteNumber":53,"Velocity":47,"Duration":305499,"SoundDuration":305499,"Delta":19644619},{"NoteNumber":62,"Velocity":40,"Duration":305499,"SoundDuration":305499,"Delta":19950118},{"NoteNumber":77,"Velocity":58,"Duration":305498,"SoundDuration":305498,"Delta":20255617},{"NoteNumber":71,"Velocity":49,"Duration":305498,"SoundDuration":305498,"Delta":20255617},{"NoteNumber":56,"Velocity":31,"Duration":305498,"SoundDuration":305498,"Delta":20255617},{"NoteNumber":62,"Velocity":26,"Duration":321888,"SoundDuration":321888,"Delta":20561116},{"NoteNumber":71,"Velocity":51,"Duration":1234567,"SoundDuration":1234567,"Delta":20883004},{"NoteNumber":77,"Velocity":61,"Duration":1234567,"SoundDuration":1234567,"Delta":20883004},{"NoteNumber":48,"Velocity":33,"Duration":308641,"SoundDuration":308641,"Delta":20883004},{"NoteNumber":62,"Velocity":24,"Duration":308642,"SoundDuration":308642,"Delta":21191646},{"NoteNumber":56,"Velocity":28,"Duration":308641,"SoundDuration":308641,"Delta":21500288},{"NoteNumber":62,"Velocity":23,"Duration":308641,"SoundDuration":308641,"Delta":21808930},{"NoteNumber":72,"Velocity":39,"Duration":560884,"SoundDuration":560884,"Delta":22117572},{"NoteNumber":76,"Velocity":46,"Duration":560884,"SoundDuration":560884,"Delta":22117572},{"NoteNumber":57,"Velocity":27,"Duration":308641,"SoundDuration":308641,"Delta":22117572},{"NoteNumber":59,"Velocity":26,"Duration":336322,"SoundDuration":336322,"Delta":22426214},{"NoteNumber":69,"Velocity":47,"Duration":1234567,"SoundDuration":1234567,"Delta":22762537},{"NoteNumber":76,"Velocity":61,"Duration":591563,"SoundDuration":591563,"Delta":22762537},{"NoteNumber":60,"Velocity":42,"Duration":308641,"SoundDuration":308641,"Delta":22762537},{"NoteNumber":64,"Velocity":33,"Duration":308642,"SoundDuration":308642,"Delta":23071179},{"NoteNumber":76,"Velocity":61,"Duration":591563,"SoundDuration":591563,"Delta":23379821},{"NoteNumber":60,"Velocity":39,"Duration":308641,"SoundDuration":308641,"Delta":23379821},{"NoteNumber":64,"Velocity":33,"Duration":308641,"SoundDuration":308641,"Delta":23688463},{"NoteNumber":71,"Velocity":48,"Duration":608043,"SoundDuration":608043,"Delta":23997105},{"NoteNumber":76,"Velocity":60,"Duration":608043,"SoundDuration":608043,"Delta":23997105},{"NoteNumber":59,"Velocity":38,"Duration":308641,"SoundDuration":308641,"Delta":23997105},{"NoteNumber":64,"Velocity":42,"Duration":299401,"SoundDuration":299401,"Delta":24305747},{"NoteNumber":72,"Velocity":48,"Duration":1228535,"SoundDuration":1228535,"Delta":24605148},{"NoteNumber":79,"Velocity":70,"Duration":299401,"SoundDuration":299401,"Delta":24605148},{"NoteNumber":57,"Velocity":53,"Duration":299401,"SoundDuration":299401,"Delta":24605148},{"NoteNumber":78,"Velocity":54,"Duration":311850,"SoundDuration":311850,"Delta":24904549},{"NoteNumber":64,"Velocity":41,"Duration":311850,"SoundDuration":311850,"Delta":24904549},{"NoteNumber":76,"Velocity":56,"Duration":1234567,"SoundDuration":1234567,"Delta":25216399},{"NoteNumber":57,"Velocity":30,"Duration":308641,"SoundDuration":308641,"Delta":25216399},{"NoteNumber":64,"Velocity":24,"Duration":308642,"SoundDuration":308642,"Delta":25525041},{"NoteNumber":71,"Velocity":46,"Duration":617283,"SoundDuration":617283,"Delta":25833683},{"NoteNumber":59,"Velocity":28,"Duration":308641,"SoundDuration":308641,"Delta":25833683},{"NoteNumber":64,"Velocity":26,"Duration":308641,"SoundDuration":308641,"Delta":26142325},{"NoteNumber":69,"Velocity":47,"Duration":1234567,"SoundDuration":1234567,"Delta":26450967},{"NoteNumber":76,"Velocity":61,"Duration":591563,"SoundDuration":591563,"Delta":26450967},{"NoteNumber":60,"Velocity":42,"Duration":308641,"SoundDuration":308641,"Delta":26450967},{"NoteNumber":64,"Velocity":33,"Duration":308642,"SoundDuration":308642,"Delta":26759609},{"NoteNumber":76,"Velocity":61,"Duration":591563,"SoundDuration":591563,"Delta":27068251},{"NoteNumber":60,"Velocity":39,"Duration":308641,"SoundDuration":308641,"Delta":27068251},{"NoteNumber":64,"Velocity":33,"Duration":308641,"SoundDuration":308641,"Delta":27376893},{"NoteNumber":71,"Velocity":48,"Duration":605084,"SoundDuration":605084,"Delta":27685535},{"NoteNumber":76,"Velocity":60,"Duration":605084,"SoundDuration":605084,"Delta":27685535},{"NoteNumber":59,"Velocity":38,"Duration":308641,"SoundDuration":308641,"Delta":27685535},{"NoteNumber":64,"Velocity":42,"Duration":296442,"SoundDuration":296442,"Delta":27994177},{"NoteNumber":72,"Velocity":48,"Duration":1251499,"SoundDuration":1251499,"Delta":28290620},{"NoteNumber":79,"Velocity":70,"Duration":302419,"SoundDuration":302419,"Delta":28290620},{"NoteNumber":57,"Velocity":53,"Duration":302419,"SoundDuration":302419,"Delta":28290620},{"NoteNumber":78,"Velocity":55,"Duration":325379,"SoundDuration":325379,"Delta":28593039},{"NoteNumber":64,"Velocity":33,"Duration":325379,"SoundDuration":325379,"Delta":28593039},{"NoteNumber":76,"Velocity":56,"Duration":1247401,"SoundDuration":1247401,"Delta":28918419},{"NoteNumber":57,"Velocity":31,"Duration":311850,"SoundDuration":311850,"Delta":28918419},{"NoteNumber":64,"Velocity":28,"Duration":311850,"SoundDuration":311850,"Delta":29230269},{"NoteNumber":71,"Velocity":46,"Duration":623700,"SoundDuration":623700,"Delta":29542119},{"NoteNumber":59,"Velocity":33,"Duration":311850,"SoundDuration":311850,"Delta":29542119},{"NoteNumber":64,"Velocity":26,"Duration":311850,"SoundDuration":311850,"Delta":29853970},{"NoteNumber":69,"Velocity":42,"Duration":311850,"SoundDuration":311850,"Delta":30165820},{"NoteNumber":76,"Velocity":61,"Duration":597712,"SoundDuration":597712,"Delta":30165820},{"NoteNumber":60,"Velocity":56,"Duration":1247401,"SoundDuration":1247401,"Delta":30165820},{"NoteNumber":64,"Velocity":33,"Duration":311850,"SoundDuration":311850,"Delta":30477670},{"NoteNumber":72,"Velocity":39,"Duration":311850,"SoundDuration":311850,"Delta":30789520},{"NoteNumber":76,"Velocity":61,"Duration":597712,"SoundDuration":597712,"Delta":30789520},{"NoteNumber":64,"Velocity":33,"Duration":311850,"SoundDuration":311850,"Delta":31101371},{"NoteNumber":71,"Velocity":38,"Duration":311850,"SoundDuration":311850,"Delta":31413221},{"NoteNumber":74,"Velocity":60,"Duration":623700,"SoundDuration":623700,"Delta":31413221},{"NoteNumber":56,"Velocity":50,"Duration":623700,"SoundDuration":623700,"Delta":31413221},{"NoteNumber":64,"Velocity":42,"Duration":311850,"SoundDuration":311850,"Delta":31725071},{"NoteNumber":69,"Velocity":42,"Duration":321888,"SoundDuration":321888,"Delta":32036921},{"NoteNumber":72,"Velocity":61,"Duration":616952,"SoundDuration":616952,"Delta":32036921},{"NoteNumber":57,"Velocity":56,"Duration":643777,"SoundDuration":643777,"Delta":32036921},{"NoteNumber":64,"Velocity":33,"Duration":321888,"SoundDuration":321888,"Delta":32358810},{"NoteNumber":68,"Velocity":39,"Duration":321888,"SoundDuration":321888,"Delta":32680698},{"NoteNumber":71,"Velocity":61,"Duration":616952,"SoundDuration":616952,"Delta":32680698},{"NoteNumber":59,"Velocity":49,"Duration":643777,"SoundDuration":643777,"Delta":32680698},{"NoteNumber":64,"Velocity":33,"Duration":321888,"SoundDuration":321888,"Delta":33002587},{"NoteNumber":67,"Velocity":38,"Duration":325379,"SoundDuration":325379,"Delta":33324475},{"NoteNumber":70,"Velocity":60,"Duration":650759,"SoundDuration":650759,"Delta":33324475},{"NoteNumber":61,"Velocity":55,"Duration":650759,"SoundDuration":650759,"Delta":33324475},{"NoteNumber":64,"Velocity":42,"Duration":325379,"SoundDuration":325379,"Delta":33649855},{"NoteNumber":78,"Velocity":70,"Duration":617283,"SoundDuration":617283,"Delta":33975234},{"NoteNumber":69,"Velocity":70,"Duration":2475552,"SoundDuration":2475552,"Delta":33975234},{"NoteNumber":51,"Velocity":62,"Duration":308641,"SoundDuration":308641,"Delta":33975234},{"NoteNumber":60,"Velocity":45,"Duration":308641,"SoundDuration":308641,"Delta":34283876},{"NoteNumber":72,"Velocity":62,"Duration":1858268,"SoundDuration":1858268,"Delta":34592518},{"NoteNumber":66,"Velocity":54,"Duration":308641,"SoundDuration":308641,"Delta":34592518},{"NoteNumber":60,"Velocity":42,"Duration":308642,"SoundDuration":308642,"Delta":34901160},{"NoteNumber":51,"Velocity":54,"Duration":308641,"SoundDuration":308641,"Delta":35209802},{"NoteNumber":60,"Velocity":41,"Duration":308641,"SoundDuration":308641,"Delta":35518444},{"NoteNumber":51,"Velocity":62,"Duration":311850,"SoundDuration":311850,"Delta":35827086},{"NoteNumber":60,"Velocity":45,"Duration":311850,"SoundDuration":311850,"Delta":36138937},{"NoteNumber":71,"Velocity":62,"Duration":623700,"SoundDuration":623700,"Delta":36450787},{"NoteNumber":66,"Velocity":54,"Duration":311850,"SoundDuration":311850,"Delta":36450787},{"NoteNumber":60,"Velocity":42,"Duration":311850,"SoundDuration":311850,"Delta":36762637},{"NoteNumber":66,"Velocity":54,"Duration":657894,"SoundDuration":657894,"Delta":37074487},{"NoteNumber":69,"Velocity":62,"Duration":657894,"SoundDuration":657894,"Delta":37074487},{"NoteNumber":51,"Velocity":54,"Duration":328947,"SoundDuration":328947,"Delta":37074487},{"NoteNumber":60,"Velocity":41,"Duration":328947,"SoundDuration":328947,"Delta":37403435},{"NoteNumber":67,"Velocity":62,"Duration":1234568,"SoundDuration":1234568,"Delta":37732382},{"NoteNumber":52,"Velocity":56,"Duration":617283,"SoundDuration":617283,"Delta":37732382},{"NoteNumber":59,"Velocity":41,"Duration":308641,"SoundDuration":308641,"Delta":38041024},{"NoteNumber":64,"Velocity":45,"Duration":308641,"SoundDuration":308641,"Delta":38349666},{"NoteNumber":47,"Velocity":56,"Duration":617284,"SoundDuration":617284,"Delta":38349666},{"NoteNumber":59,"Velocity":41,"Duration":308642,"SoundDuration":308642,"Delta":38658308},{"NoteNumber":66,"Velocity":45,"Duration":308641,"SoundDuration":308641,"Delta":38966950},{"NoteNumber":69,"Velocity":62,"Duration":617283,"SoundDuration":617283,"Delta":38966950},{"NoteNumber":45,"Velocity":61,"Duration":617283,"SoundDuration":617283,"Delta":38966950},{"NoteNumber":59,"Velocity":41,"Duration":308641,"SoundDuration":308641,"Delta":39275592},{"NoteNumber":67,"Velocity":62,"Duration":643777,"SoundDuration":643777,"Delta":39584234},{"NoteNumber":71,"Velocity":62,"Duration":643777,"SoundDuration":643777,"Delta":39584234},{"NoteNumber":43,"Velocity":69,"Duration":321888,"SoundDuration":321888,"Delta":39584234},{"NoteNumber":59,"Velocity":45,"Duration":321888,"SoundDuration":321888,"Delta":39906122},{"NoteNumber":79,"Velocity":55,"Duration":617283,"SoundDuration":617283,"Delta":40228011},{"NoteNumber":55,"Velocity":33,"Duration":308641,"SoundDuration":308641,"Delta":40228011},{"NoteNumber":59,"Velocity":30,"Duration":308641,"SoundDuration":308641,"Delta":40536653},{"NoteNumber":78,"Velocity":42,"Duration":644964,"SoundDuration":644964,"Delta":40845295},{"NoteNumber":69,"Velocity":35,"Duration":644964,"SoundDuration":644964,"Delta":40845295},{"NoteNumber":57,"Velocity":37,"Duration":308641,"SoundDuration":308641,"Delta":40845295},{"NoteNumber":60,"Velocity":29,"Duration":336322,"SoundDuration":336322,"Delta":41153937},{"NoteNumber":76,"Velocity":54,"Duration":3106078,"SoundDuration":3106078,"Delta":41490260},{"NoteNumber":59,"Velocity":46,"Duration":308641,"SoundDuration":308641,"Delta":41490260},{"NoteNumber":64,"Velocity":30,"Duration":308641,"SoundDuration":308641,"Delta":41798902},{"NoteNumber":67,"Velocity":35,"Duration":308641,"SoundDuration":308641,"Delta":42107544},{"NoteNumber":71,"Velocity":31,"Duration":308642,"SoundDuration":308642,"Delta":42416186},{"NoteNumber":67,"Velocity":34,"Duration":308641,"SoundDuration":308641,"Delta":42724828},{"NoteNumber":64,"Velocity":34,"Duration":308641,"SoundDuration":308641,"Delta":43033470},{"NoteNumber":59,"Velocity":45,"Duration":1912833,"SoundDuration":1912833,"Delta":43342112},{"NoteNumber":64,"Velocity":27,"Duration":308641,"SoundDuration":308641,"Delta":43650754},{"NoteNumber":67,"Velocity":34,"Duration":318471,"SoundDuration":318471,"Delta":43959396},{"NoteNumber":65,"Velocity":27,"Duration":318471,"SoundDuration":318471,"Delta":44277867},{"NoteNumber":74,"Velocity":48,"Duration":630262,"SoundDuration":630262,"Delta":44596338},{"NoteNumber":67,"Velocity":34,"Duration":318471,"SoundDuration":318471,"Delta":44596338},{"NoteNumber":65,"Velocity":28,"Duration":340136,"SoundDuration":340136,"Delta":44914809},{"NoteNumber":67,"Velocity":37,"Duration":302419,"SoundDuration":302419,"Delta":45254945},{"NoteNumber":74,"Velocity":54,"Duration":579636,"SoundDuration":579636,"Delta":45254945},{"NoteNumber":60,"Velocity":50,"Duration":1839406,"SoundDuration":1839406,"Delta":45254945},{"NoteNumber":64,"Velocity":29,"Duration":302419,"SoundDuration":302419,"Delta":45557365},{"NoteNumber":67,"Velocity":35,"Duration":308641,"SoundDuration":308641,"Delta":45859784},{"NoteNumber":72,"Velocity":54,"Duration":591563,"SoundDuration":591563,"Delta":45859784},{"NoteNumber":64,"Velocity":29,"Duration":308641,"SoundDuration":308641,"Delta":46168426},{"NoteNumber":67,"Velocity":34,"Duration":308641,"SoundDuration":308641,"Delta":46477068},{"NoteNumber":71,"Velocity":54,"Duration":617284,"SoundDuration":617284,"Delta":46477068},{"NoteNumber":64,"Velocity":37,"Duration":308642,"SoundDuration":308642,"Delta":46785710},{"NoteNumber":66,"Velocity":37,"Duration":308641,"SoundDuration":308641,"Delta":47094352},{"NoteNumber":69,"Velocity":54,"Duration":591563,"SoundDuration":591563,"Delta":47094352},{"NoteNumber":48,"Velocity":50,"Duration":617283,"SoundDuration":617283,"Delta":47094352},{"NoteNumber":64,"Velocity":29,"Duration":308641,"SoundDuration":308641,"Delta":47402994},{"NoteNumber":67,"Velocity":35,"Duration":308641,"SoundDuration":308641,"Delta":47711636},{"NoteNumber":71,"Velocity":54,"Duration":591563,"SoundDuration":591563,"Delta":47711636},{"NoteNumber":47,"Velocity":44,"Duration":617283,"SoundDuration":617283,"Delta":47711636},{"NoteNumber":62,"Velocity":29,"Duration":308641,"SoundDuration":308641,"Delta":48020278},{"NoteNumber":69,"Velocity":34,"Duration":308641,"SoundDuration":308641,"Delta":48328920},{"NoteNumber":72,"Velocity":54,"Duration":634021,"SoundDuration":634021,"Delta":48328920},{"NoteNumber":45,"Velocity":49,"Duration":634021,"SoundDuration":634021,"Delta":48328920},{"NoteNumber":60,"Velocity":37,"Duration":325379,"SoundDuration":325379,"Delta":48637562},{"NoteNumber":64,"Velocity":55,"Duration":925925,"SoundDuration":925925,"Delta":48962941},{"NoteNumber":47,"Velocity":50,"Duration":3794838,"SoundDuration":3794838,"Delta":48962941},{"NoteNumber":59,"Velocity":29,"Duration":308641,"SoundDuration":308641,"Delta":49271583},{"NoteNumber":55,"Velocity":35,"Duration":308641,"SoundDuration":308641,"Delta":49580225},{"NoteNumber":66,"Velocity":49,"Duration":154321,"SoundDuration":154321,"Delta":49888867},{"NoteNumber":59,"Velocity":29,"Duration":308642,"SoundDuration":308642,"Delta":49888867},{"NoteNumber":64,"Velocity":46,"Duration":154321,"SoundDuration":154321,"Delta":50043188},{"NoteNumber":63,"Velocity":55,"Duration":308641,"SoundDuration":308641,"Delta":50197509},{"NoteNumber":55,"Velocity":35,"Duration":308641,"SoundDuration":308641,"Delta":50197509},{"NoteNumber":64,"Velocity":62,"Duration":325379,"SoundDuration":325379,"Delta":50506151},{"NoteNumber":59,"Velocity":40,"Duration":325379,"SoundDuration":325379,"Delta":50506151},{"NoteNumber":67,"Velocity":68,"Duration":1261060,"SoundDuration":1261060,"Delta":50831531},{"NoteNumber":55,"Velocity":47,"Duration":308641,"SoundDuration":308641,"Delta":50831531},{"NoteNumber":59,"Velocity":34,"Duration":308641,"SoundDuration":308641,"Delta":51140173},{"NoteNumber":64,"Velocity":37,"Duration":321888,"SoundDuration":321888,"Delta":51448815},{"NoteNumber":59,"Velocity":29,"Duration":321888,"SoundDuration":321888,"Delta":51770703},{"NoteNumber":66,"Velocity":55,"Duration":665188,"SoundDuration":665188,"Delta":52092592},{"NoteNumber":51,"Velocity":35,"Duration":665188,"SoundDuration":665188,"Delta":52092592},{"NoteNumber":59,"Velocity":29,"Duration":332594,"SoundDuration":332594,"Delta":52425186},{"NoteNumber":64,"Velocity":55,"Duration":1834229,"SoundDuration":1834229,"Delta":52757780},{"NoteNumber":40,"Velocity":45,"Duration":1875804,"SoundDuration":1875804,"Delta":52757780},{"NoteNumber":56,"Velocity":35,"Duration":308641,"SoundDuration":308641,"Delta":52757780},{"NoteNumber":59,"Velocity":29,"Duration":308641,"SoundDuration":308641,"Delta":53066422},{"NoteNumber":56,"Velocity":32,"Duration":308641,"SoundDuration":308641,"Delta":53375064},{"NoteNumber":52,"Velocity":29,"Duration":308642,"SoundDuration":308642,"Delta":53683706},{"NoteNumber":51,"Velocity":34,"Duration":308641,"SoundDuration":308641,"Delta":53992348},{"NoteNumber":52,"Velocity":29,"Duration":332594,"SoundDuration":332594,"Delta":54300990},{"NoteNumber":64,"Velocity":52,"Duration":1221707,"SoundDuration":1221707,"Delta":54633585},{"NoteNumber":47,"Velocity":45,"Duration":1851852,"SoundDuration":1851852,"Delta":54633585},{"NoteNumber":56,"Velocity":35,"Duration":308641,"SoundDuration":308641,"Delta":54633585},{"NoteNumber":59,"Velocity":29,"Duration":308641,"SoundDuration":308641,"Delta":54942227},{"NoteNumber":56,"Velocity":32,"Duration":308641,"SoundDuration":308641,"Delta":55250869},{"NoteNumber":52,"Velocity":29,"Duration":308642,"SoundDuration":308642,"Delta":55559511},{"NoteNumber":64,"Velocity":46,"Duration":604423,"SoundDuration":604423,"Delta":55868153},{"NoteNumber":51,"Velocity":34,"Duration":308641,"SoundDuration":308641,"Delta":55868153},{"NoteNumber":52,"Velocity":29,"Duration":308641,"SoundDuration":308641,"Delta":56176795},{"NoteNumber":65,"Velocity":52,"Duration":1195987,"SoundDuration":1195987,"Delta":56485437},{"NoteNumber":45,"Velocity":45,"Duration":1868589,"SoundDuration":1868589,"Delta":56485437},{"NoteNumber":57,"Velocity":35,"Duration":308641,"SoundDuration":308641,"Delta":56485437},{"NoteNumber":60,"Velocity":29,"Duration":308641,"SoundDuration":308641,"Delta":56794079},{"NoteNumber":57,"Velocity":32,"Duration":308641,"SoundDuration":308641,"Delta":57102721},{"NoteNumber":52,"Velocity":29,"Duration":308642,"SoundDuration":308642,"Delta":57411363},{"NoteNumber":65,"Velocity":48,"Duration":593349,"SoundDuration":593349,"Delta":57720005},{"NoteNumber":51,"Velocity":35,"Duration":308641,"SoundDuration":308641,"Delta":57720005},{"NoteNumber":52,"Velocity":30,"Duration":325379,"SoundDuration":325379,"Delta":58028647},{"NoteNumber":65,"Velocity":55,"Duration":1171874,"SoundDuration":1171874,"Delta":58354026},{"NoteNumber":45,"Velocity":48,"Duration":1833984,"SoundDuration":1833984,"Delta":58354026},{"NoteNumber":57,"Velocity":37,"Duration":302419,"SoundDuration":302419,"Delta":58354026},{"NoteNumber":60,"Velocity":31,"Duration":302419,"SoundDuration":302419,"Delta":58656445},{"NoteNumber":57,"Velocity":35,"Duration":302419,"SoundDuration":302419,"Delta":58958865},{"NoteNumber":52,"Velocity":32,"Duration":302419,"SoundDuration":302419,"Delta":59261284},{"NoteNumber":65,"Velocity":51,"Duration":584071,"SoundDuration":584071,"Delta":59563703},{"NoteNumber":51,"Velocity":38,"Duration":302419,"SoundDuration":302419,"Delta":59563703},{"NoteNumber":52,"Velocity":32,"Duration":321888,"SoundDuration":321888,"Delta":59866122},{"NoteNumber":69,"Velocity":59,"Duration":587083,"SoundDuration":587083,"Delta":60188011},{"NoteNumber":40,"Velocity":51,"Duration":1784689,"SoundDuration":1784689,"Delta":60188011},{"NoteNumber":59,"Velocity":40,"Duration":293542,"SoundDuration":293542,"Delta":60188011},{"NoteNumber":62,"Velocity":33,"Duration":293541,"SoundDuration":293541,"Delta":60481553},{"NoteNumber":68,"Velocity":52,"Duration":598802,"SoundDuration":598802,"Delta":60775095},{"NoteNumber":59,"Velocity":36,"Duration":299401,"SoundDuration":299401,"Delta":60775095},{"NoteNumber":52,"Velocity":33,"Duration":299401,"SoundDuration":299401,"Delta":61074496},{"NoteNumber":51,"Velocity":39,"Duration":299401,"SoundDuration":299401,"Delta":61373897},{"NoteNumber":52,"Velocity":33,"Duration":299401,"SoundDuration":299401,"Delta":61673299},{"NoteNumber":68,"Velocity":62,"Duration":1197076,"SoundDuration":1197076,"Delta":61972700},{"NoteNumber":47,"Velocity":54,"Duration":1814515,"SoundDuration":1814515,"Delta":61972700},{"NoteNumber":59,"Velocity":42,"Duration":302419,"SoundDuration":302419,"Delta":61972700},{"NoteNumber":62,"Velocity":34,"Duration":302419,"SoundDuration":302419,"Delta":62275119},{"NoteNumber":59,"Velocity":38,"Duration":302419,"SoundDuration":302419,"Delta":62577538},{"NoteNumber":52,"Velocity":35,"Duration":302419,"SoundDuration":302419,"Delta":62879958},{"NoteNumber":68,"Velocity":56,"Duration":592237,"SoundDuration":592237,"Delta":63182377},{"NoteNumber":51,"Velocity":41,"Duration":302419,"SoundDuration":302419,"Delta":63182377},{"NoteNumber":52,"Velocity":35,"Duration":302419,"SoundDuration":302419,"Delta":63484796},{"NoteNumber":69,"Velocity":65,"Duration":1160179,"SoundDuration":1160179,"Delta":63787215},{"NoteNumber":40,"Velocity":56,"Duration":1805648,"SoundDuration":1805648,"Delta":63787215},{"NoteNumber":60,"Velocity":43,"Duration":299401,"SoundDuration":299401,"Delta":63787215},{"NoteNumber":64,"Velocity":36,"Duration":299401,"SoundDuration":299401,"Delta":64086617},{"NoteNumber":60,"Velocity":40,"Duration":299401,"SoundDuration":299401,"Delta":64386018},{"NoteNumber":52,"Velocity":36,"Duration":299401,"SoundDuration":299401,"Delta":64685419},{"NoteNumber":69,"Velocity":58,"Duration":569462,"SoundDuration":569462,"Delta":64984820},{"NoteNumber":51,"Velocity":43,"Duration":299401,"SoundDuration":299401,"Delta":64984820},{"NoteNumber":52,"Velocity":37,"Duration":308642,"SoundDuration":308642,"Delta":65284222},{"NoteNumber":69,"Velocity":67,"Duration":1171874,"SoundDuration":1171874,"Delta":65592864},{"NoteNumber":48,"Velocity":58,"Duration":1833984,"SoundDuration":1833984,"Delta":65592864},{"NoteNumber":60,"Velocity":45,"Duration":302419,"SoundDuration":302419,"Delta":65592864},{"NoteNumber":64,"Velocity":37,"Duration":302419,"SoundDuration":302419,"Delta":65895283},{"NoteNumber":60,"Velocity":41,"Duration":302419,"SoundDuration":302419,"Delta":66197702},{"NoteNumber":52,"Velocity":38,"Duration":302419,"SoundDuration":302419,"Delta":66500121},{"NoteNumber":69,"Velocity":61,"Duration":584071,"SoundDuration":584071,"Delta":66802541},{"NoteNumber":51,"Velocity":45,"Duration":302419,"SoundDuration":302419,"Delta":66802541},{"NoteNumber":52,"Velocity":38,"Duration":321888,"SoundDuration":321888,"Delta":67104960},{"NoteNumber":72,"Velocity":70,"Duration":581395,"SoundDuration":581395,"Delta":67426848},{"NoteNumber":40,"Velocity":60,"Duration":1773143,"SoundDuration":1773143,"Delta":67426848},{"NoteNumber":62,"Velocity":47,"Duration":290697,"SoundDuration":290697,"Delta":67426848},{"NoteNumber":68,"Velocity":39,"Duration":290697,"SoundDuration":290697,"Delta":67717546},{"NoteNumber":71,"Velocity":62,"Duration":592885,"SoundDuration":592885,"Delta":68008244},{"NoteNumber":62,"Velocity":43,"Duration":296442,"SoundDuration":296442,"Delta":68008244},{"NoteNumber":52,"Velocity":39,"Duration":296442,"SoundDuration":296442,"Delta":68304687},{"NoteNumber":51,"Velocity":45,"Duration":296442,"SoundDuration":296442,"Delta":68601129},{"NoteNumber":52,"Velocity":39,"Duration":302419,"SoundDuration":302419,"Delta":68897572},{"NoteNumber":74,"Velocity":71,"Duration":1148715,"SoundDuration":1148715,"Delta":69199991},{"NoteNumber":47,"Velocity":58,"Duration":1804102,"SoundDuration":1804102,"Delta":69199991},{"NoteNumber":62,"Velocity":45,"Duration":296442,"SoundDuration":296442,"Delta":69199991},{"NoteNumber":65,"Velocity":37,"Duration":296442,"SoundDuration":296442,"Delta":69496434},{"NoteNumber":62,"Velocity":41,"Duration":296442,"SoundDuration":296442,"Delta":69792877},{"NoteNumber":53,"Velocity":38,"Duration":296442,"SoundDuration":296442,"Delta":70089320},{"NoteNumber":72,"Velocity":64,"Duration":222332,"SoundDuration":222332,"Delta":70385762},{"NoteNumber":52,"Velocity":45,"Duration":296442,"SoundDuration":296442,"Delta":70385762},{"NoteNumber":71,"Velocity":61,"Duration":241416,"SoundDuration":241416,"Delta":70682205},{"NoteNumber":53,"Velocity":38,"Duration":321888,"SoundDuration":321888,"Delta":70682205},{"NoteNumber":69,"Velocity":70,"Duration":587084,"SoundDuration":587084,"Delta":71004094},{"NoteNumber":40,"Velocity":60,"Duration":1761251,"SoundDuration":1761251,"Delta":71004094},{"NoteNumber":62,"Velocity":47,"Duration":293542,"SoundDuration":293542,"Delta":71004094},{"NoteNumber":65,"Velocity":39,"Duration":293542,"SoundDuration":293542,"Delta":71297636},{"NoteNumber":68,"Velocity":62,"Duration":587083,"SoundDuration":587083,"Delta":71591178},{"NoteNumber":62,"Velocity":43,"Duration":293542,"SoundDuration":293542,"Delta":71591178},{"NoteNumber":52,"Velocity":39,"Duration":293541,"SoundDuration":293541,"Delta":71884720},{"NoteNumber":51,"Velocity":45,"Duration":293542,"SoundDuration":293542,"Delta":72178262},{"NoteNumber":52,"Velocity":39,"Duration":293542,"SoundDuration":293542,"Delta":72471804},{"NoteNumber":59,"Velocity":40,"Duration":328947,"SoundDuration":328947,"Delta":72765346},{"NoteNumber":65,"Velocity":42,"Duration":311850,"SoundDuration":311850,"Delta":73094293},{"NoteNumber":64,"Velocity":39,"Duration":311850,"SoundDuration":311850,"Delta":73406143},{"NoteNumber":62,"Velocity":37,"Duration":311850,"SoundDuration":311850,"Delta":73717993},{"NoteNumber":76,"Velocity":65,"Duration":612369,"SoundDuration":612369,"Delta":74029844},{"NoteNumber":60,"Velocity":40,"Duration":306184,"SoundDuration":306184,"Delta":74029844},{"NoteNumber":64,"Velocity":32,"Duration":306184,"SoundDuration":306184,"Delta":74336029},{"NoteNumber":74,"Velocity":72,"Duration":612369,"SoundDuration":612369,"Delta":74642214},{"NoteNumber":59,"Velocity":40,"Duration":306184,"SoundDuration":306184,"Delta":74642214},{"NoteNumber":64,"Velocity":29,"Duration":306184,"SoundDuration":306184,"Delta":74948399},{"NoteNumber":72,"Velocity":60,"Duration":612369,"SoundDuration":612369,"Delta":75254584},{"NoteNumber":57,"Velocity":32,"Duration":306184,"SoundDuration":306184,"Delta":75254584},{"NoteNumber":64,"Velocity":31,"Duration":306184,"SoundDuration":306184,"Delta":75560769},{"NoteNumber":71,"Velocity":60,"Duration":280669,"SoundDuration":280669,"Delta":75866954},{"NoteNumber":56,"Velocity":38,"Duration":306184,"SoundDuration":306184,"Delta":75866954},{"NoteNumber":71,"Velocity":54,"Duration":102061,"SoundDuration":102061,"Delta":76173139},{"NoteNumber":64,"Velocity":32,"Duration":306184,"SoundDuration":306184,"Delta":76173139},{"NoteNumber":72,"Velocity":49,"Duration":102061,"SoundDuration":102061,"Delta":76275200},{"NoteNumber":74,"Velocity":51,"Duration":102061,"SoundDuration":102061,"Delta":76377262},{"NoteNumber":72,"Velocity":68,"Duration":612370,"SoundDuration":612370,"Delta":76479324},{"NoteNumber":57,"Velocity":40,"Duration":306185,"SoundDuration":306185,"Delta":76479324},{"NoteNumber":64,"Velocity":33,"Duration":306184,"SoundDuration":306184,"Delta":76785509},{"NoteNumber":71,"Velocity":60,"Duration":612369,"SoundDuration":612369,"Delta":77091694},{"NoteNumber":59,"Velocity":38,"Duration":306184,"SoundDuration":306184,"Delta":77091694},{"NoteNumber":64,"Velocity":31,"Duration":306184,"SoundDuration":306184,"Delta":77397879},{"NoteNumber":69,"Velocity":66,"Duration":1243617,"SoundDuration":1243617,"Delta":77704064},{"NoteNumber":60,"Velocity":39,"Duration":306184,"SoundDuration":306184,"Delta":77704064},{"NoteNumber":64,"Velocity":42,"Duration":332594,"SoundDuration":332594,"Delta":78010249},{"NoteNumber":77,"Velocity":77,"Duration":604838,"SoundDuration":604838,"Delta":78342843},{"NoteNumber":50,"Velocity":47,"Duration":302419,"SoundDuration":302419,"Delta":78342843},{"NoteNumber":62,"Velocity":46,"Duration":302419,"SoundDuration":302419,"Delta":78645262},{"NoteNumber":72,"Velocity":50,"Duration":302419,"SoundDuration":302419,"Delta":78947681},{"NoteNumber":77,"Velocity":63,"Duration":302419,"SoundDuration":302419,"Delta":78947681},{"NoteNumber":69,"Velocity":50,"Duration":302419,"SoundDuration":302419,"Delta":78947681},{"NoteNumber":53,"Velocity":47,"Duration":302419,"SoundDuration":302419,"Delta":78947681},{"NoteNumber":62,"Velocity":40,"Duration":302419,"SoundDuration":302419,"Delta":79250101},{"NoteNumber":77,"Velocity":58,"Duration":302419,"SoundDuration":302419,"Delta":79552520},{"NoteNumber":71,"Velocity":49,"Duration":302419,"SoundDuration":302419,"Delta":79552520},{"NoteNumber":56,"Velocity":31,"Duration":302419,"SoundDuration":302419,"Delta":79552520},{"NoteNumber":62,"Velocity":26,"Duration":318471,"SoundDuration":318471,"Delta":79854939},{"NoteNumber":71,"Velocity":51,"Duration":1209676,"SoundDuration":1209676,"Delta":80173410},{"NoteNumber":77,"Velocity":61,"Duration":1209676,"SoundDuration":1209676,"Delta":80173410},{"NoteNumber":48,"Velocity":33,"Duration":302419,"SoundDuration":302419,"Delta":80173410},{"NoteNumber":62,"Velocity":24,"Duration":302419,"SoundDuration":302419,"Delta":80475830},{"NoteNumber":56,"Velocity":28,"Duration":302419,"SoundDuration":302419,"Delta":80778249},{"NoteNumber":62,"Velocity":23,"Duration":302419,"SoundDuration":302419,"Delta":81080668},{"NoteNumber":72,"Velocity":39,"Duration":557521,"SoundDuration":557521,"Delta":81383087},{"NoteNumber":76,"Velocity":46,"Duration":557521,"SoundDuration":557521,"Delta":81383087},{"NoteNumber":57,"Velocity":27,"Duration":302419,"SoundDuration":302419,"Delta":81383087},{"NoteNumber":59,"Velocity":26,"Duration":340136,"SoundDuration":340136,"Delta":81685507},{"NoteNumber":76,"Velocity":47,"Duration":1197604,"SoundDuration":1197604,"Delta":82025643},{"NoteNumber":81,"Velocity":56,"Duration":1197604,"SoundDuration":1197604,"Delta":82025643},{"NoteNumber":60,"Velocity":25,"Duration":299401,"SoundDuration":299401,"Delta":82025643},{"NoteNumber":64,"Velocity":20,"Duration":299401,"SoundDuration":299401,"Delta":82325044},{"NoteNumber":62,"Velocity":24,"Duration":299401,"SoundDuration":299401,"Delta":82624445},{"NoteNumber":60,"Velocity":21,"Duration":299401,"SoundDuration":299401,"Delta":82923846},{"NoteNumber":80,"Velocity":46,"Duration":523952,"SoundDuration":523952,"Delta":83223248},{"NoteNumber":74,"Velocity":39,"Duration":523952,"SoundDuration":523952,"Delta":83223248},{"NoteNumber":59,"Velocity":22,"Duration":299401,"SoundDuration":299401,"Delta":83223248},{"NoteNumber":64,"Velocity":21,"Duration":299401,"SoundDuration":299401,"Delta":83522649},{"NoteNumber":72,"Velocity":47,"Duration":1197604,"SoundDuration":1197604,"Delta":83822050},{"NoteNumber":77,"Velocity":56,"Duration":1197604,"SoundDuration":1197604,"Delta":83822050},{"NoteNumber":57,"Velocity":24,"Duration":299401,"SoundDuration":299401,"Delta":83822050},{"NoteNumber":64,"Velocity":21,"Duration":299401,"SoundDuration":299401,"Delta":84121451},{"NoteNumber":57,"Velocity":23,"Duration":299401,"SoundDuration":299401,"Delta":84420853},{"NoteNumber":64,"Velocity":22,"Duration":299401,"SoundDuration":299401,"Delta":84720254},{"NoteNumber":71,"Velocity":38,"Duration":540817,"SoundDuration":540817,"Delta":85019655},{"NoteNumber":76,"Velocity":45,"Duration":540817,"SoundDuration":540817,"Delta":85019655},{"NoteNumber":56,"Velocity":24,"Duration":299401,"SoundDuration":299401,"Delta":85019655},{"NoteNumber":64,"Velocity":22,"Duration":321888,"SoundDuration":321888,"Delta":85319056},{"NoteNumber":71,"Velocity":50,"Duration":598802,"SoundDuration":598802,"Delta":85640945},{"NoteNumber":68,"Velocity":42,"Duration":598802,"SoundDuration":598802,"Delta":85640945},{"NoteNumber":52,"Velocity":40,"Duration":299401,"SoundDuration":299401,"Delta":85640945},{"NoteNumber":64,"Velocity":32,"Duration":299401,"SoundDuration":299401,"Delta":85940346},{"NoteNumber":74,"Velocity":50,"Duration":598802,"SoundDuration":598802,"Delta":86239748},{"NoteNumber":71,"Velocity":42,"Duration":598802,"SoundDuration":598802,"Delta":86239748},{"NoteNumber":57,"Velocity":37,"Duration":299401,"SoundDuration":299401,"Delta":86239748},{"NoteNumber":53,"Velocity":31,"Duration":299401,"SoundDuration":299401,"Delta":86539149},{"NoteNumber":72,"Velocity":43,"Duration":617283,"SoundDuration":617283,"Delta":86838550},{"NoteNumber":69,"Velocity":36,"Duration":617283,"SoundDuration":617283,"Delta":86838550},{"NoteNumber":52,"Velocity":37,"Duration":308642,"SoundDuration":308642,"Delta":86838550},{"NoteNumber":51,"Velocity":31,"Duration":308641,"SoundDuration":308641,"Delta":87147192},{"NoteNumber":71,"Velocity":46,"Duration":1264498,"SoundDuration":1264498,"Delta":87455834},{"NoteNumber":68,"Velocity":39,"Duration":1264498,"SoundDuration":1264498,"Delta":87455834},{"NoteNumber":52,"Velocity":40,"Duration":328947,"SoundDuration":328947,"Delta":87455834},{"NoteNumber":62,"Velocity":42,"Duration":311850,"SoundDuration":311850,"Delta":87784781},{"NoteNumber":59,"Velocity":39,"Duration":311850,"SoundDuration":311850,"Delta":88096631},{"NoteNumber":56,"Velocity":37,"Duration":311850,"SoundDuration":311850,"Delta":88408482},{"NoteNumber":71,"Velocity":40,"Duration":640797,"SoundDuration":640797,"Delta":88720332},{"NoteNumber":52,"Velocity":37,"Duration":311850,"SoundDuration":311850,"Delta":88720332},{"NoteNumber":50,"Velocity":37,"Duration":328947,"SoundDuration":328947,"Delta":89032182},{"NoteNumber":76,"Velocity":46,"Duration":610997,"SoundDuration":610997,"Delta":89361129},{"NoteNumber":48,"Velocity":34,"Duration":305498,"SoundDuration":305498,"Delta":89361129},{"NoteNumber":57,"Velocity":26,"Duration":305498,"SoundDuration":305498,"Delta":89666628},{"NoteNumber":72,"Velocity":42,"Duration":610998,"SoundDuration":610998,"Delta":89972127},{"NoteNumber":64,"Velocity":34,"Duration":305499,"SoundDuration":305499,"Delta":89972127},{"NoteNumber":57,"Velocity":30,"Duration":305498,"SoundDuration":305498,"Delta":90277626},{"NoteNumber":69,"Velocity":42,"Duration":623970,"SoundDuration":623970,"Delta":90583125},{"NoteNumber":48,"Velocity":34,"Duration":305498,"SoundDuration":305498,"Delta":90583125},{"NoteNumber":57,"Velocity":30,"Duration":318471,"SoundDuration":318471,"Delta":90888624},{"NoteNumber":72,"Velocity":50,"Duration":610997,"SoundDuration":610997,"Delta":91207096},{"NoteNumber":50,"Velocity":34,"Duration":305498,"SoundDuration":305498,"Delta":91207096},{"NoteNumber":57,"Velocity":30,"Duration":305498,"SoundDuration":305498,"Delta":91512595},{"NoteNumber":70,"Velocity":46,"Duration":552209,"SoundDuration":552209,"Delta":91818094},{"NoteNumber":65,"Velocity":38,"Duration":305499,"SoundDuration":305499,"Delta":91818094},{"NoteNumber":57,"Velocity":31,"Duration":328947,"SoundDuration":328947,"Delta":92123593},{"NoteNumber":70,"Velocity":51,"Duration":617283,"SoundDuration":617283,"Delta":92452540},{"NoteNumber":50,"Velocity":37,"Duration":308642,"SoundDuration":308642,"Delta":92452540},{"NoteNumber":57,"Velocity":44,"Duration":308641,"SoundDuration":308641,"Delta":92761182},{"NoteNumber":79,"Velocity":65,"Duration":617283,"SoundDuration":617283,"Delta":93069824},{"NoteNumber":52,"Velocity":48,"Duration":308642,"SoundDuration":308642,"Delta":93069824},{"NoteNumber":55,"Velocity":37,"Duration":308641,"SoundDuration":308641,"Delta":93378466},{"NoteNumber":77,"Velocity":57,"Duration":296442,"SoundDuration":296442,"Delta":93687108},{"NoteNumber":67,"Velocity":43,"Duration":296442,"SoundDuration":296442,"Delta":93687108},{"NoteNumber":76,"Velocity":50,"Duration":296442,"SoundDuration":296442,"Delta":93983551},{"NoteNumber":55,"Velocity":31,"Duration":296442,"SoundDuration":296442,"Delta":93983551},{"NoteNumber":74,"Velocity":56,"Duration":302419,"SoundDuration":302419,"Delta":94279993},{"NoteNumber":52,"Velocity":38,"Duration":302419,"SoundDuration":302419,"Delta":94279993},{"NoteNumber":72,"Velocity":49,"Duration":318471,"SoundDuration":318471,"Delta":94582413},{"NoteNumber":55,"Velocity":32,"Duration":318471,"SoundDuration":318471,"Delta":94582413},{"NoteNumber":70,"Velocity":54,"Duration":604838,"SoundDuration":604838,"Delta":94900884},{"NoteNumber":53,"Velocity":37,"Duration":302419,"SoundDuration":302419,"Delta":94900884},{"NoteNumber":60,"Velocity":31,"Duration":302419,"SoundDuration":302419,"Delta":95203303},{"NoteNumber":69,"Velocity":47,"Duration":604838,"SoundDuration":604838,"Delta":95505722},{"NoteNumber":65,"Velocity":37,"Duration":302419,"SoundDuration":302419,"Delta":95505722},{"NoteNumber":60,"Velocity":29,"Duration":302419,"SoundDuration":302419,"Delta":95808142},{"NoteNumber":68,"Velocity":40,"Duration":617545,"SoundDuration":617545,"Delta":96110561},{"NoteNumber":59,"Velocity":33,"Duration":302419,"SoundDuration":302419,"Delta":96110561},{"NoteNumber":53,"Velocity":29,"Duration":315126,"SoundDuration":315126,"Delta":96412980},{"NoteNumber":69,"Velocity":46,"Duration":598802,"SoundDuration":598802,"Delta":96728106},{"NoteNumber":60,"Velocity":34,"Duration":299401,"SoundDuration":299401,"Delta":96728106},{"NoteNumber":53,"Velocity":26,"Duration":299401,"SoundDuration":299401,"Delta":97027507},{"NoteNumber":72,"Velocity":42,"Duration":598802,"SoundDuration":598802,"Delta":97326909},{"NoteNumber":57,"Velocity":34,"Duration":299401,"SoundDuration":299401,"Delta":97326909},{"NoteNumber":53,"Velocity":30,"Duration":299401,"SoundDuration":299401,"Delta":97626310},{"NoteNumber":74,"Velocity":42,"Duration":617872,"SoundDuration":617872,"Delta":97925711},{"NoteNumber":59,"Velocity":34,"Duration":299401,"SoundDuration":299401,"Delta":97925711},{"NoteNumber":53,"Velocity":30,"Duration":318471,"SoundDuration":318471,"Delta":98225112},{"NoteNumber":69,"Velocity":39,"Duration":1827856,"SoundDuration":1827856,"Delta":98543584},{"NoteNumber":76,"Velocity":46,"Duration":1197604,"SoundDuration":1197604,"Delta":98543584},{"NoteNumber":60,"Velocity":34,"Duration":299401,"SoundDuration":299401,"Delta":98543584},{"NoteNumber":52,"Velocity":34,"Duration":1827856,"SoundDuration":1827856,"Delta":98543584},{"NoteNumber":64,"Velocity":30,"Duration":299401,"SoundDuration":299401,"Delta":98842985},{"NoteNumber":60,"Velocity":31,"Duration":299401,"SoundDuration":299401,"Delta":99142386},{"NoteNumber":64,"Velocity":27,"Duration":299401,"SoundDuration":299401,"Delta":99441787},{"NoteNumber":74,"Velocity":40,"Duration":315126,"SoundDuration":315126,"Delta":99741189},{"NoteNumber":57,"Velocity":31,"Duration":315126,"SoundDuration":315126,"Delta":99741189},{"NoteNumber":72,"Velocity":40,"Duration":315125,"SoundDuration":315125,"Delta":100056315},{"NoteNumber":64,"Velocity":29,"Duration":315125,"SoundDuration":315125,"Delta":100056315},{"NoteNumber":74,"Velocity":45,"Duration":1234567,"SoundDuration":1234567,"Delta":100371441},{"NoteNumber":68,"Velocity":38,"Duration":1885633,"SoundDuration":1885633,"Delta":100371441},{"NoteNumber":59,"Velocity":34,"Duration":308642,"SoundDuration":308642,"Delta":100371441},{"NoteNumber":52,"Velocity":34,"Duration":1885633,"SoundDuration":1885633,"Delta":100371441},{"NoteNumber":64,"Velocity":27,"Duration":308641,"SoundDuration":308641,"Delta":100680083},{"NoteNumber":59,"Velocity":34,"Duration":308642,"SoundDuration":308642,"Delta":100988725},{"NoteNumber":64,"Velocity":31,"Duration":308641,"SoundDuration":308641,"Delta":101297367},{"NoteNumber":72,"Velocity":40,"Duration":318471,"SoundDuration":318471,"Delta":101606009},{"NoteNumber":62,"Velocity":34,"Duration":318471,"SoundDuration":318471,"Delta":101606009},{"NoteNumber":71,"Velocity":40,"Duration":332594,"SoundDuration":332594,"Delta":101924480},{"NoteNumber":64,"Velocity":27,"Duration":332594,"SoundDuration":332594,"Delta":101924480},{"NoteNumber":69,"Velocity":46,"Duration":926389,"SoundDuration":926389,"Delta":102257074},{"NoteNumber":60,"Velocity":34,"Duration":305498,"SoundDuration":305498,"Delta":102257074},{"NoteNumber":64,"Velocity":29,"Duration":318471,"SoundDuration":318471,"Delta":102562573},{"NoteNumber":69,"Velocity":34,"Duration":604838,"SoundDuration":604838,"Delta":102881044},{"NoteNumber":67,"Velocity":30,"Duration":302419,"SoundDuration":302419,"Delta":103183464},{"NoteNumber":81,"Velocity":47,"Duration":626976,"SoundDuration":626976,"Delta":103485883},{"NoteNumber":65,"Velocity":37,"Duration":311850,"SoundDuration":311850,"Delta":103485883},{"NoteNumber":57,"Velocity":37,"Duration":315126,"SoundDuration":315126,"Delta":103797733},{"NoteNumber":79,"Velocity":54,"Duration":610997,"SoundDuration":610997,"Delta":104112859},{"NoteNumber":64,"Velocity":45,"Duration":305498,"SoundDuration":305498,"Delta":104112859},{"NoteNumber":57,"Velocity":31,"Duration":305498,"SoundDuration":305498,"Delta":104418358},{"NoteNumber":77,"Velocity":46,"Duration":610998,"SoundDuration":610998,"Delta":104723857},{"NoteNumber":62,"Velocity":34,"Duration":305499,"SoundDuration":305499,"Delta":104723857},{"NoteNumber":57,"Velocity":30,"Duration":305498,"SoundDuration":305498,"Delta":105029356},{"NoteNumber":76,"Velocity":43,"Duration":623970,"SoundDuration":623970,"Delta":105334855},{"NoteNumber":67,"Velocity":43,"Duration":623970,"SoundDuration":623970,"Delta":105334855},{"NoteNumber":61,"Velocity":34,"Duration":305498,"SoundDuration":305498,"Delta":105334855},{"NoteNumber":57,"Velocity":30,"Duration":318471,"SoundDuration":318471,"Delta":105640354},{"NoteNumber":76,"Velocity":54,"Duration":610997,"SoundDuration":610997,"Delta":105958825},{"NoteNumber":66,"Velocity":45,"Duration":1245444,"SoundDuration":1245444,"Delta":105958825},{"NoteNumber":60,"Velocity":43,"Duration":305498,"SoundDuration":305498,"Delta":105958825},{"NoteNumber":50,"Velocity":43,"Duration":305498,"SoundDuration":305498,"Delta":105958825},{"NoteNumber":57,"Velocity":30,"Duration":305498,"SoundDuration":305498,"Delta":106264324},{"NoteNumber":74,"Velocity":49,"Duration":552209,"SoundDuration":552209,"Delta":106569823},{"NoteNumber":62,"Velocity":38,"Duration":305499,"SoundDuration":305499,"Delta":106569823},{"NoteNumber":60,"Velocity":31,"Duration":328947,"SoundDuration":328947,"Delta":106875323},{"NoteNumber":67,"Velocity":47,"Duration":626976,"SoundDuration":626976,"Delta":107204270},{"NoteNumber":79,"Velocity":47,"Duration":626976,"SoundDuration":626976,"Delta":107204270},{"NoteNumber":59,"Velocity":37,"Duration":311850,"SoundDuration":311850,"Delta":107204270},{"NoteNumber":55,"Velocity":37,"Duration":315126,"SoundDuration":315126,"Delta":107516120},{"NoteNumber":67,"Velocity":51,"Duration":2456964,"SoundDuration":2456964,"Delta":107831246},{"NoteNumber":77,"Velocity":51,"Duration":610997,"SoundDuration":610997,"Delta":107831246},{"NoteNumber":59,"Velocity":45,"Duration":305498,"SoundDuration":305498,"Delta":107831246},{"NoteNumber":55,"Velocity":31,"Duration":305498,"SoundDuration":305498,"Delta":108136745},{"NoteNumber":76,"Velocity":46,"Duration":610998,"SoundDuration":610998,"Delta":108442244},{"NoteNumber":60,"Velocity":34,"Duration":305499,"SoundDuration":305499,"Delta":108442244},{"NoteNumber":55,"Velocity":30,"Duration":305498,"SoundDuration":305498,"Delta":108747743},{"NoteNumber":74,"Velocity":43,"Duration":544352,"SoundDuration":544352,"Delta":109053242},{"NoteNumber":59,"Velocity":34,"Duration":305498,"SoundDuration":305498,"Delta":109053242},{"NoteNumber":53,"Velocity":30,"Duration":318471,"SoundDuration":318471,"Delta":109358741},{"NoteNumber":74,"Velocity":58,"Duration":610997,"SoundDuration":610997,"Delta":109677212},{"NoteNumber":52,"Velocity":43,"Duration":305498,"SoundDuration":305498,"Delta":109677212},{"NoteNumber":55,"Velocity":30,"Duration":305498,"SoundDuration":305498,"Delta":109982711},{"NoteNumber":72,"Velocity":49,"Duration":305499,"SoundDuration":305499,"Delta":110288210},{"NoteNumber":60,"Velocity":38,"Duration":305499,"SoundDuration":305499,"Delta":110288210},{"NoteNumber":71,"Velocity":41,"Duration":308642,"SoundDuration":308642,"Delta":110593709},{"NoteNumber":64,"Velocity":31,"Duration":308642,"SoundDuration":308642,"Delta":110593709},{"NoteNumber":69,"Velocity":49,"Duration":308641,"SoundDuration":308641,"Delta":110902351},{"NoteNumber":60,"Velocity":31,"Duration":308641,"SoundDuration":308641,"Delta":110902351},{"NoteNumber":68,"Velocity":45,"Duration":318471,"SoundDuration":318471,"Delta":111210993},{"NoteNumber":59,"Velocity":29,"Duration":318471,"SoundDuration":318471,"Delta":111210993},{"NoteNumber":69,"Velocity":49,"Duration":305498,"SoundDuration":305498,"Delta":111529465},{"NoteNumber":57,"Velocity":35,"Duration":305498,"SoundDuration":305498,"Delta":111529465},{"NoteNumber":71,"Velocity":49,"Duration":305498,"SoundDuration":305498,"Delta":111834964},{"NoteNumber":56,"Velocity":31,"Duration":305498,"SoundDuration":305498,"Delta":111834964},{"NoteNumber":72,"Velocity":46,"Duration":610998,"SoundDuration":610998,"Delta":112140463},{"NoteNumber":57,"Velocity":31,"Duration":305499,"SoundDuration":305499,"Delta":112140463},{"NoteNumber":53,"Velocity":26,"Duration":305498,"SoundDuration":305498,"Delta":112445962},{"NoteNumber":74,"Velocity":42,"Duration":638093,"SoundDuration":638093,"Delta":112751461},{"NoteNumber":59,"Velocity":31,"Duration":305498,"SoundDuration":305498,"Delta":112751461},{"NoteNumber":53,"Velocity":27,"Duration":332594,"SoundDuration":332594,"Delta":113056960},{"NoteNumber":69,"Velocity":35,"Duration":1864819,"SoundDuration":1864819,"Delta":113389554},{"NoteNumber":76,"Velocity":42,"Duration":1234567,"SoundDuration":1234567,"Delta":113389554},{"NoteNumber":52,"Velocity":28,"Duration":1864819,"SoundDuration":1864819,"Delta":113389554},{"NoteNumber":60,"Velocity":33,"Duration":308642,"SoundDuration":308642,"Delta":113389554},{"NoteNumber":64,"Velocity":26,"Duration":308641,"SoundDuration":308641,"Delta":113698196},{"NoteNumber":60,"Velocity":29,"Duration":308642,"SoundDuration":308642,"Delta":114006838},{"NoteNumber":64,"Velocity":26,"Duration":308641,"SoundDuration":308641,"Delta":114315480},{"NoteNumber":74,"Velocity":37,"Duration":315126,"SoundDuration":315126,"Delta":114624122},{"NoteNumber":57,"Velocity":29,"Duration":315126,"SoundDuration":315126,"Delta":114624122},{"NoteNumber":72,"Velocity":37,"Duration":315125,"SoundDuration":315125,"Delta":114939248},{"NoteNumber":64,"Velocity":27,"Duration":315125,"SoundDuration":315125,"Delta":114939248},{"NoteNumber":68,"Velocity":35,"Duration":1894819,"SoundDuration":1894819,"Delta":115254374},{"NoteNumber":74,"Velocity":42,"Duration":1247400,"SoundDuration":1247400,"Delta":115254374},{"NoteNumber":52,"Velocity":28,"Duration":1894819,"SoundDuration":1894819,"Delta":115254374},{"NoteNumber":59,"Velocity":33,"Duration":311850,"SoundDuration":311850,"Delta":115254374},{"NoteNumber":64,"Velocity":26,"Duration":311850,"SoundDuration":311850,"Delta":115566224},{"NoteNumber":59,"Velocity":29,"Duration":311850,"SoundDuration":311850,"Delta":115878074},{"NoteNumber":64,"Velocity":26,"Duration":311850,"SoundDuration":311850,"Delta":116189925},{"NoteNumber":72,"Velocity":37,"Duration":318471,"SoundDuration":318471,"Delta":116501775},{"NoteNumber":62,"Velocity":29,"Duration":318471,"SoundDuration":318471,"Delta":116501775},{"NoteNumber":71,"Velocity":37,"Duration":328947,"SoundDuration":328947,"Delta":116820246},{"NoteNumber":64,"Velocity":27,"Duration":328947,"SoundDuration":328947,"Delta":116820246},{"NoteNumber":72,"Velocity":42,"Duration":1213245,"SoundDuration":1213245,"Delta":117149193},{"NoteNumber":60,"Velocity":33,"Duration":302419,"SoundDuration":302419,"Delta":117149193},{"NoteNumber":52,"Velocity":26,"Duration":293542,"SoundDuration":293542,"Delta":117451613},{"NoteNumber":64,"Velocity":35,"Duration":1812290,"SoundDuration":1812290,"Delta":117745155},{"NoteNumber":60,"Velocity":29,"Duration":308642,"SoundDuration":308642,"Delta":117745155},{"NoteNumber":52,"Velocity":26,"Duration":308641,"SoundDuration":308641,"Delta":118053797},{"NoteNumber":71,"Velocity":37,"Duration":308642,"SoundDuration":308642,"Delta":118362439},{"NoteNumber":62,"Velocity":29,"Duration":308642,"SoundDuration":308642,"Delta":118362439},{"NoteNumber":69,"Velocity":37,"Duration":308641,"SoundDuration":308641,"Delta":118671081},{"NoteNumber":60,"Velocity":27,"Duration":308641,"SoundDuration":308641,"Delta":118671081},{"NoteNumber":71,"Velocity":42,"Duration":1219468,"SoundDuration":1219468,"Delta":118979723},{"NoteNumber":62,"Velocity":33,"Duration":308642,"SoundDuration":308642,"Delta":118979723},{"NoteNumber":52,"Velocity":26,"Duration":293542,"SoundDuration":293542,"Delta":119288365},{"NoteNumber":64,"Velocity":35,"Duration":3097442,"SoundDuration":3097442,"Delta":119581907},{"NoteNumber":62,"Velocity":29,"Duration":308642,"SoundDuration":308642,"Delta":119581907},{"NoteNumber":52,"Velocity":26,"Duration":308641,"SoundDuration":308641,"Delta":119890549},{"NoteNumber":69,"Velocity":37,"Duration":296442,"SoundDuration":296442,"Delta":120199191},{"NoteNumber":60,"Velocity":29,"Duration":296442,"SoundDuration":296442,"Delta":120199191},{"NoteNumber":68,"Velocity":37,"Duration":315126,"SoundDuration":315126,"Delta":120495633},{"NoteNumber":59,"Velocity":27,"Duration":315126,"SoundDuration":315126,"Delta":120495633},{"NoteNumber":69,"Velocity":42,"Duration":3115990,"SoundDuration":3115990,"Delta":120810759},{"NoteNumber":60,"Velocity":33,"Duration":308642,"SoundDuration":308642,"Delta":120810759},{"NoteNumber":52,"Velocity":26,"Duration":308641,"SoundDuration":308641,"Delta":121119401},{"NoteNumber":60,"Velocity":29,"Duration":308642,"SoundDuration":308642,"Delta":121428043},{"NoteNumber":52,"Velocity":26,"Duration":308641,"SoundDuration":308641,"Delta":121736685},{"NoteNumber":60,"Velocity":29,"Duration":308642,"SoundDuration":308642,"Delta":122045327},{"NoteNumber":52,"Velocity":27,"Duration":325379,"SoundDuration":325379,"Delta":122353969},{"NoteNumber":58,"Velocity":35,"Duration":1871101,"SoundDuration":1871101,"Delta":122679349},{"NoteNumber":60,"Velocity":33,"Duration":311850,"SoundDuration":311850,"Delta":122679349},{"NoteNumber":52,"Velocity":26,"Duration":311850,"SoundDuration":311850,"Delta":122991199},{"NoteNumber":60,"Velocity":29,"Duration":311850,"SoundDuration":311850,"Delta":123303049},{"NoteNumber":52,"Velocity":26,"Duration":311850,"SoundDuration":311850,"Delta":123614900},{"NoteNumber":67,"Velocity":35,"Duration":1253952,"SoundDuration":1253952,"Delta":123926750},{"NoteNumber":60,"Velocity":29,"Duration":311850,"SoundDuration":311850,"Delta":123926750},{"NoteNumber":52,"Velocity":27,"Duration":311850,"SoundDuration":311850,"Delta":124238600},{"NoteNumber":57,"Velocity":34,"Duration":1890755,"SoundDuration":1890755,"Delta":124550450},{"NoteNumber":60,"Velocity":32,"Duration":315126,"SoundDuration":315126,"Delta":124550450},{"NoteNumber":53,"Velocity":25,"Duration":315125,"SoundDuration":315125,"Delta":124865576},{"NoteNumber":65,"Velocity":33,"Duration":630251,"SoundDuration":630251,"Delta":125180702},{"NoteNumber":60,"Velocity":28,"Duration":315126,"SoundDuration":315126,"Delta":125180702},{"NoteNumber":53,"Velocity":24,"Duration":315125,"SoundDuration":315125,"Delta":125495828},{"NoteNumber":64,"Velocity":33,"Duration":630251,"SoundDuration":630251,"Delta":125810954},{"NoteNumber":60,"Velocity":27,"Duration":315126,"SoundDuration":315126,"Delta":125810954},{"NoteNumber":53,"Velocity":25,"Duration":315125,"SoundDuration":315125,"Delta":126126080},{"NoteNumber":62,"Velocity":32,"Duration":623700,"SoundDuration":623700,"Delta":126441206},{"NoteNumber":59,"Velocity":30,"Duration":311850,"SoundDuration":311850,"Delta":126441206},{"NoteNumber":53,"Velocity":23,"Duration":311850,"SoundDuration":311850,"Delta":126753057},{"NoteNumber":64,"Velocity":31,"Duration":623700,"SoundDuration":623700,"Delta":127064907},{"NoteNumber":60,"Velocity":31,"Duration":623700,"SoundDuration":623700,"Delta":127064907},{"NoteNumber":52,"Velocity":26,"Duration":311850,"SoundDuration":311850,"Delta":127064907},{"NoteNumber":57,"Velocity":23,"Duration":311850,"SoundDuration":311850,"Delta":127376757},{"NoteNumber":62,"Velocity":29,"Duration":630252,"SoundDuration":630252,"Delta":127688607},{"NoteNumber":65,"Velocity":29,"Duration":630252,"SoundDuration":630252,"Delta":127688607},{"NoteNumber":50,"Velocity":25,"Duration":315125,"SoundDuration":315125,"Delta":127688607},{"NoteNumber":53,"Velocity":23,"Duration":315126,"SoundDuration":315126,"Delta":128003733},{"NoteNumber":57,"Velocity":30,"Duration":925926,"SoundDuration":925926,"Delta":128318859},{"NoteNumber":40,"Velocity":27,"Duration":3762979,"SoundDuration":3762979,"Delta":128318859},{"NoteNumber":52,"Velocity":22,"Duration":308642,"SoundDuration":308642,"Delta":128627501},{"NoteNumber":48,"Velocity":24,"Duration":308641,"SoundDuration":308641,"Delta":128936143},{"NoteNumber":59,"Velocity":27,"Duration":154320,"SoundDuration":154320,"Delta":129244785},{"NoteNumber":52,"Velocity":21,"Duration":308641,"SoundDuration":308641,"Delta":129244785},{"NoteNumber":57,"Velocity":27,"Duration":154321,"SoundDuration":154321,"Delta":129399106},{"NoteNumber":56,"Velocity":29,"Duration":315125,"SoundDuration":315125,"Delta":129553427},{"NoteNumber":48,"Velocity":24,"Duration":315125,"SoundDuration":315125,"Delta":129553427},{"NoteNumber":57,"Velocity":26,"Duration":315126,"SoundDuration":315126,"Delta":129868553},{"NoteNumber":52,"Velocity":22,"Duration":315126,"SoundDuration":315126,"Delta":129868553},{"NoteNumber":60,"Velocity":28,"Duration":1247400,"SoundDuration":1247400,"Delta":130183679},{"NoteNumber":48,"Velocity":26,"Duration":311850,"SoundDuration":311850,"Delta":130183679},{"NoteNumber":52,"Velocity":20,"Duration":311850,"SoundDuration":311850,"Delta":130495530},{"NoteNumber":57,"Velocity":22,"Duration":311850,"SoundDuration":311850,"Delta":130807380},{"NoteNumber":52,"Velocity":20,"Duration":311850,"SoundDuration":311850,"Delta":131119230},{"NoteNumber":56,"Velocity":26,"Duration":650758,"SoundDuration":650758,"Delta":131431080},{"NoteNumber":59,"Velocity":26,"Duration":650758,"SoundDuration":650758,"Delta":131431080},{"NoteNumber":50,"Velocity":22,"Duration":325379,"SoundDuration":325379,"Delta":131431080},{"NoteNumber":52,"Velocity":20,"Duration":325379,"SoundDuration":325379,"Delta":131756460},{"NoteNumber":57,"Velocity":30,"Duration":623700,"SoundDuration":623700,"Delta":132081839},{"NoteNumber":45,"Velocity":25,"Duration":1216586,"SoundDuration":1216586,"Delta":132081839},{"NoteNumber":48,"Velocity":26,"Duration":311850,"SoundDuration":311850,"Delta":132081839},{"NoteNumber":52,"Velocity":20,"Duration":311850,"SoundDuration":311850,"Delta":132393690},{"NoteNumber":57,"Velocity":22,"Duration":296442,"SoundDuration":296442,"Delta":132705540},{"NoteNumber":56,"Velocity":20,"Duration":296442,"SoundDuration":296442,"Delta":133001983},{"NoteNumber":57,"Velocity":22,"Duration":305498,"SoundDuration":305498,"Delta":133298425},{"NoteNumber":52,"Velocity":20,"Duration":305498,"SoundDuration":305498,"Delta":133603924},{"NoteNumber":53,"Velocity":26,"Duration":311850,"SoundDuration":311850,"Delta":133909423},{"NoteNumber":33,"Velocity":25,"Duration":1222503,"SoundDuration":1222503,"Delta":133909423},{"NoteNumber":45,"Velocity":25,"Duration":1222503,"SoundDuration":1222503,"Delta":133909423},{"NoteNumber":50,"Velocity":20,"Duration":311850,"SoundDuration":311850,"Delta":134221274},{"NoteNumber":57,"Velocity":22,"Duration":299401,"SoundDuration":299401,"Delta":134533124},{"NoteNumber":56,"Velocity":20,"Duration":299401,"SoundDuration":299401,"Delta":134832525},{"NoteNumber":57,"Velocity":22,"Duration":311850,"SoundDuration":311850,"Delta":135131926},{"NoteNumber":53,"Velocity":20,"Duration":311850,"SoundDuration":311850,"Delta":135443777},{"NoteNumber":52,"Velocity":26,"Duration":311850,"SoundDuration":311850,"Delta":135755627},{"NoteNumber":33,"Velocity":25,"Duration":1240984,"SoundDuration":1240984,"Delta":135755627},{"NoteNumber":45,"Velocity":25,"Duration":1240984,"SoundDuration":1240984,"Delta":135755627},{"NoteNumber":48,"Velocity":20,"Duration":311850,"SoundDuration":311850,"Delta":136067477},{"NoteNumber":57,"Velocity":22,"Duration":308641,"SoundDuration":308641,"Delta":136379327},{"NoteNumber":56,"Velocity":20,"Duration":308642,"SoundDuration":308642,"Delta":136687969},{"NoteNumber":57,"Velocity":22,"Duration":315125,"SoundDuration":315125,"Delta":136996611},{"NoteNumber":52,"Velocity":20,"Duration":315126,"SoundDuration":315126,"Delta":137311737},{"NoteNumber":47,"Velocity":20,"Duration":299401,"SoundDuration":299401,"Delta":137626863},{"NoteNumber":53,"Velocity":20,"Duration":299401,"SoundDuration":299401,"Delta":137626863},{"NoteNumber":56,"Velocity":26,"Duration":299401,"SoundDuration":299401,"Delta":137626863},{"NoteNumber":33,"Velocity":20,"Duration":449101,"SoundDuration":449101,"Delta":137626863},{"NoteNumber":45,"Velocity":25,"Duration":449101,"SoundDuration":449101,"Delta":137626863},{"NoteNumber":50,"Velocity":20,"Duration":299401,"SoundDuration":299401,"Delta":137926265},{"NoteNumber":47,"Velocity":17,"Duration":299401,"SoundDuration":299401,"Delta":138225666},{"NoteNumber":53,"Velocity":17,"Duration":299401,"SoundDuration":299401,"Delta":138225666},{"NoteNumber":56,"Velocity":22,"Duration":299401,"SoundDuration":299401,"Delta":138225666},{"NoteNumber":33,"Velocity":20,"Duration":449101,"SoundDuration":449101,"Delta":138225666},{"NoteNumber":45,"Velocity":25,"Duration":449101,"SoundDuration":449101,"Delta":138225666},{"NoteNumber":50,"Velocity":20,"Duration":299401,"SoundDuration":299401,"Delta":138525067},{"NoteNumber":47,"Velocity":17,"Duration":325379,"SoundDuration":325379,"Delta":138824468},{"NoteNumber":53,"Velocity":17,"Duration":325379,"SoundDuration":325379,"Delta":138824468},{"NoteNumber":56,"Velocity":22,"Duration":325379,"SoundDuration":325379,"Delta":138824468},{"NoteNumber":33,"Velocity":20,"Duration":488069,"SoundDuration":488069,"Delta":138824468},{"NoteNumber":45,"Velocity":25,"Duration":488069,"SoundDuration":488069,"Delta":138824468},{"NoteNumber":50,"Velocity":20,"Duration":325379,"SoundDuration":325379,"Delta":139149848},{"NoteNumber":48,"Velocity":24,"Duration":1235090,"SoundDuration":1235090,"Delta":139475227},{"NoteNumber":57,"Velocity":28,"Duration":1235090,"SoundDuration":1235090,"Delta":139475227},{"NoteNumber":33,"Velocity":26,"Duration":315125,"SoundDuration":315125,"Delta":139475227},{"NoteNumber":40,"Velocity":20,"Duration":315126,"SoundDuration":315126,"Delta":139790353},{"NoteNumber":45,"Velocity":22,"Duration":302419,"SoundDuration":302419,"Delta":140105479},{"NoteNumber":44,"Velocity":20,"Duration":302419,"SoundDuration":302419,"Delta":140407899},{"NoteNumber":45,"Velocity":22,"Duration":302419,"SoundDuration":302419,"Delta":140710318},{"NoteNumber":40,"Velocity":20,"Duration":302419,"SoundDuration":302419,"Delta":141012737},{"NoteNumber":41,"Velocity":26,"Duration":302419,"SoundDuration":302419,"Delta":141315156},{"NoteNumber":38,"Velocity":20,"Duration":302419,"SoundDuration":302419,"Delta":141617576},{"NoteNumber":45,"Velocity":22,"Duration":302419,"SoundDuration":302419,"Delta":141919995},{"NoteNumber":44,"Velocity":20,"Duration":302419,"SoundDuration":302419,"Delta":142222414},{"NoteNumber":81,"Velocity":51,"Duration":630252,"SoundDuration":630252,"Delta":142524833},{"NoteNumber":45,"Velocity":22,"Duration":315125,"SoundDuration":315125,"Delta":142524833},{"NoteNumber":41,"Velocity":20,"Duration":315126,"SoundDuration":315126,"Delta":142839959},{"NoteNumber":79,"Velocity":57,"Duration":610997,"SoundDuration":610997,"Delta":143155085},{"NoteNumber":40,"Velocity":26,"Duration":305498,"SoundDuration":305498,"Delta":143155085},{"NoteNumber":37,"Velocity":20,"Duration":305498,"SoundDuration":305498,"Delta":143460584},{"NoteNumber":77,"Velocity":49,"Duration":610997,"SoundDuration":610997,"Delta":143766083},{"NoteNumber":45,"Velocity":22,"Duration":305498,"SoundDuration":305498,"Delta":143766083},{"NoteNumber":44,"Velocity":20,"Duration":305498,"SoundDuration":305498,"Delta":144053761},{"NoteNumber":76,"Velocity":45,"Duration":332594,"SoundDuration":332594,"Delta":144377081},{"NoteNumber":45,"Velocity":22,"Duration":332594,"SoundDuration":332594,"Delta":144377081},{"NoteNumber":76,"Velocity":37,"Duration":110864,"SoundDuration":110864,"Delta":144709676},{"NoteNumber":40,"Velocity":20,"Duration":332594,"SoundDuration":332594,"Delta":144709676},{"NoteNumber":77,"Velocity":37,"Duration":110864,"SoundDuration":110864,"Delta":144820540},{"NoteNumber":79,"Velocity":37,"Duration":110864,"SoundDuration":110864,"Delta":144931405},{"NoteNumber":77,"Velocity":54,"Duration":604838,"SoundDuration":604838,"Delta":145042270},{"NoteNumber":38,"Velocity":28,"Duration":302419,"SoundDuration":302419,"Delta":145042270},{"NoteNumber":45,"Velocity":23,"Duration":302419,"SoundDuration":302419,"Delta":145344689},{"NoteNumber":76,"Velocity":64,"Duration":604838,"SoundDuration":604838,"Delta":145647108},{"NoteNumber":40,"Velocity":26,"Duration":302419,"SoundDuration":302419,"Delta":145647108},{"NoteNumber":45,"Velocity":25,"Duration":302419,"SoundDuration":302419,"Delta":145949528},{"NoteNumber":74,"Velocity":72,"Duration":636942,"SoundDuration":636942,"Delta":146251947},{"NoteNumber":41,"Velocity":33,"Duration":318471,"SoundDuration":318471,"Delta":146251947},{"NoteNumber":45,"Velocity":42,"Duration":318471,"SoundDuration":318471,"Delta":146570418},{"NoteNumber":82,"Velocity":79,"Duration":623700,"SoundDuration":623700,"Delta":146888889},{"NoteNumber":43,"Velocity":47,"Duration":311850,"SoundDuration":311850,"Delta":146888889},{"NoteNumber":33,"Velocity":41,"Duration":311850,"SoundDuration":311850,"Delta":147200740},{"NoteNumber":82,"Velocity":70,"Duration":467775,"SoundDuration":467775,"Delta":147512590},{"NoteNumber":43,"Velocity":43,"Duration":311850,"SoundDuration":311850,"Delta":147512590},{"NoteNumber":33,"Velocity":38,"Duration":311850,"SoundDuration":311850,"Delta":147824440},{"NoteNumber":82,"Velocity":70,"Duration":490489,"SoundDuration":490489,"Delta":148136290},{"NoteNumber":43,"Velocity":43,"Duration":318471,"SoundDuration":318471,"Delta":148136290},{"NoteNumber":33,"Velocity":38,"Duration":344036,"SoundDuration":344036,"Delta":148454762},{"NoteNumber":82,"Velocity":65,"Duration":1260503,"SoundDuration":1260503,"Delta":148798798},{"NoteNumber":43,"Velocity":48,"Duration":315125,"SoundDuration":315125,"Delta":148798798},{"NoteNumber":33,"Velocity":30,"Duration":315126,"SoundDuration":315126,"Delta":149113924},{"NoteNumber":43,"Velocity":38,"Duration":315125,"SoundDuration":315125,"Delta":149429050},{"NoteNumber":33,"Velocity":26,"Duration":315125,"SoundDuration":315125,"Delta":149744176},{"NoteNumber":81,"Velocity":52,"Duration":4297761,"SoundDuration":4297761,"Delta":150059302},{"NoteNumber":76,"Velocity":40,"Duration":630252,"SoundDuration":630252,"Delta":150059302},{"NoteNumber":43,"Velocity":33,"Duration":315125,"SoundDuration":315125,"Delta":150059302},{"NoteNumber":33,"Velocity":26,"Duration":315126,"SoundDuration":315126,"Delta":150374428},{"NoteNumber":74,"Velocity":46,"Duration":598802,"SoundDuration":598802,"Delta":150689554},{"NoteNumber":41,"Velocity":26,"Duration":299401,"SoundDuration":299401,"Delta":150689554},{"NoteNumber":33,"Velocity":20,"Duration":299401,"SoundDuration":299401,"Delta":150988956},{"NoteNumber":72,"Velocity":40,"Duration":598802,"SoundDuration":598802,"Delta":151288357},{"NoteNumber":40,"Velocity":22,"Duration":299401,"SoundDuration":299401,"Delta":151288357},{"NoteNumber":33,"Velocity":20,"Duration":299401,"SoundDuration":299401,"Delta":151587758},{"NoteNumber":71,"Velocity":37,"Duration":311850,"SoundDuration":311850,"Delta":151887159},{"NoteNumber":38,"Velocity":22,"Duration":311850,"SoundDuration":311850,"Delta":151887159},{"NoteNumber":71,"Velocity":37,"Duration":103950,"SoundDuration":103950,"Delta":152199010},{"NoteNumber":33,"Velocity":20,"Duration":311850,"SoundDuration":311850,"Delta":152199010},{"NoteNumber":72,"Velocity":37,"Duration":103950,"SoundDuration":103950,"Delta":152302960},{"NoteNumber":74,"Velocity":37,"Duration":103950,"SoundDuration":103950,"Delta":152406910},{"NoteNumber":72,"Velocity":49,"Duration":598802,"SoundDuration":598802,"Delta":152510860},{"NoteNumber":40,"Velocity":28,"Duration":299401,"SoundDuration":299401,"Delta":152510860},{"NoteNumber":33,"Velocity":23,"Duration":299401,"SoundDuration":299401,"Delta":152810261},{"NoteNumber":71,"Velocity":53,"Duration":623700,"SoundDuration":623700,"Delta":153109662},{"NoteNumber":38,"Velocity":26,"Duration":311850,"SoundDuration":311850,"Delta":153109662},{"NoteNumber":33,"Velocity":25,"Duration":311850,"SoundDuration":311850,"Delta":153421513},{"NoteNumber":69,"Velocity":56,"Duration":623700,"SoundDuration":623700,"Delta":153733363},{"NoteNumber":36,"Velocity":33,"Duration":311850,"SoundDuration":311850,"Delta":153733363},{"NoteNumber":33,"Velocity":42,"Duration":311850,"SoundDuration":311850,"Delta":154045213},{"NoteNumber":77,"Velocity":65,"Duration":636942,"SoundDuration":636942,"Delta":154357063},{"NoteNumber":35,"Velocity":47,"Duration":318471,"SoundDuration":318471,"Delta":154357063},{"NoteNumber":33,"Velocity":41,"Duration":318471,"SoundDuration":318471,"Delta":154675535},{"NoteNumber":68,"Velocity":48,"Duration":482832,"SoundDuration":482832,"Delta":154994006},{"NoteNumber":74,"Velocity":48,"Duration":482832,"SoundDuration":482832,"Delta":154994006},{"NoteNumber":77,"Velocity":61,"Duration":482832,"SoundDuration":482832,"Delta":154994006},{"NoteNumber":35,"Velocity":43,"Duration":321888,"SoundDuration":321888,"Delta":154994006},{"NoteNumber":33,"Velocity":38,"Duration":321888,"SoundDuration":321888,"Delta":155315894},{"NoteNumber":68,"Velocity":48,"Duration":510203,"SoundDuration":510203,"Delta":155637783},{"NoteNumber":74,"Velocity":48,"Duration":510203,"SoundDuration":510203,"Delta":155637783},{"NoteNumber":77,"Velocity":61,"Duration":510203,"SoundDuration":510203,"Delta":155637783},{"NoteNumber":35,"Velocity":43,"Duration":340136,"SoundDuration":340136,"Delta":155637783},{"NoteNumber":33,"Velocity":38,"Duration":340136,"SoundDuration":340136,"Delta":155977919},{"NoteNumber":68,"Velocity":52,"Duration":7434503,"SoundDuration":7434503,"Delta":156318055},{"NoteNumber":74,"Velocity":52,"Duration":7434503,"SoundDuration":7434503,"Delta":156318055},{"NoteNumber":77,"Velocity":65,"Duration":7434503,"SoundDuration":7434503,"Delta":156318055},{"NoteNumber":35,"Velocity":48,"Duration":302419,"SoundDuration":302419,"Delta":156318055},{"NoteNumber":33,"Velocity":30,"Duration":302419,"SoundDuration":302419,"Delta":156620474},{"NoteNumber":35,"Velocity":38,"Duration":302419,"SoundDuration":302419,"Delta":156922893},{"NoteNumber":38,"Velocity":41,"Duration":302419,"SoundDuration":302419,"Delta":157225313},{"NoteNumber":41,"Velocity":47,"Duration":302419,"SoundDuration":302419,"Delta":157527732},{"NoteNumber":38,"Velocity":26,"Duration":328947,"SoundDuration":328947,"Delta":157830151},{"NoteNumber":35,"Velocity":48,"Duration":311850,"SoundDuration":311850,"Delta":158159098},{"NoteNumber":33,"Velocity":30,"Duration":311850,"SoundDuration":311850,"Delta":158470949},{"NoteNumber":35,"Velocity":38,"Duration":299401,"SoundDuration":299401,"Delta":158782799},{"NoteNumber":38,"Velocity":43,"Duration":299401,"SoundDuration":299401,"Delta":159082200},{"NoteNumber":41,"Velocity":50,"Duration":299401,"SoundDuration":299401,"Delta":159381601},{"NoteNumber":38,"Velocity":26,"Duration":328947,"SoundDuration":328947,"Delta":159681003},{"NoteNumber":33,"Velocity":30,"Duration":462963,"SoundDuration":462963,"Delta":160009950},{"NoteNumber":33,"Velocity":21,"Duration":462962,"SoundDuration":462962,"Delta":160627234},{"NoteNumber":33,"Velocity":21,"Duration":462963,"SoundDuration":462963,"Delta":161244518},{"NoteNumber":33,"Velocity":27,"Duration":472689,"SoundDuration":472689,"Delta":161861802},{"NoteNumber":33,"Velocity":21,"Duration":472688,"SoundDuration":472688,"Delta":162492054},{"NoteNumber":33,"Velocity":20,"Duration":472689,"SoundDuration":472689,"Delta":163122306},{"NoteNumber":72,"Velocity":27,"Duration":630252,"SoundDuration":630252,"Delta":163752558},{"NoteNumber":76,"Velocity":34,"Duration":630252,"SoundDuration":630252,"Delta":163752558},{"NoteNumber":33,"Velocity":21,"Duration":630252,"SoundDuration":630252,"Delta":163752558},{"NoteNumber":69,"Velocity":27,"Duration":630251,"SoundDuration":630251,"Delta":163763062},{"NoteNumber":57,"Velocity":29,"Duration":157563,"SoundDuration":157563,"Delta":165013062},{"NoteNumber":45,"Velocity":18,"Duration":157563,"SoundDuration":157563,"Delta":165013062},{"NoteNumber":33,"Velocity":18,"Duration":157563,"SoundDuration":157563,"Delta":165013062},{"NoteNumber":57,"Velocity":34,"Duration":157562,"SoundDuration":157562,"Delta":165643314},{"NoteNumber":33,"Velocity":21,"Duration":157562,"SoundDuration":157562,"Delta":165643314},{"NoteNumber":45,"Velocity":21,"Duration":157562,"SoundDuration":157562,"Delta":165643314},{"NoteNumber":57,"Velocity":31,"Duration":157562,"SoundDuration":157562,"Delta":166903818},{"NoteNumber":45,"Velocity":17,"Duration":157562,"SoundDuration":157562,"Delta":166903818},{"NoteNumber":33,"Velocity":17,"Duration":157562,"SoundDuration":157562,"Delta":166903818},{"NoteNumber":57,"Velocity":34,"Duration":157563,"SoundDuration":157563,"Delta":167534070},{"NoteNumber":33,"Velocity":21,"Duration":157563,"SoundDuration":157563,"Delta":167534070},{"NoteNumber":45,"Velocity":21,"Duration":157563,"SoundDuration":157563,"Delta":167534070}],"license":{"name":"Creative Commons Attribution-ShareAlike 3.0 Germany","url":"http://creativecommons.org/licenses/by-sa/3.0/de/deed.en","text":"The MIDI, audio (MP3, OGG) and video files of Bernd Krueger are licensed under the cc-by-sa Germany License. This means that you can use and adapt the files, as long as you attribute the copyright holder.\n\nName: Bernd Krueger\nSource: http://www.piano-midi.de\n\nThe distribution or public playback of the files is only allowed under identical license conditions.\n\nThe scores are open source.","attribution":"MIDI files by Bernd Krueger (piano-midi.de)","attributionUrl":"http://www.piano-midi.de"}}