{"title":"Lieder ohne Worte Opus 30 Nr. 3","artist":"Mendelssohn","durationMs":103939,"midiSha256":"35018321dcc15a5bf3685d509e3811815b1676df0c93f1205764f5e9404211a1","midiObject":[{"NoteNumber":40,"Velocity":49,"Duration":242915,"SoundDuration":242915,"Delta":0},{"NoteNumber":47,"Velocity":40,"Duration":242915,"SoundDuration":242915,"Delta":242915},{"NoteNumber":52,"Velocity":40,"Duration":242915,"SoundDuration":242915,"Delta":485830},{"NoteNumber":56,"Velocity":40,"Duration":242915,"SoundDuration":242915,"Delta":728745},{"NoteNumber":59,"Velocity":47,"Duration":242915,"SoundDuration":242915,"Delta":971660},{"NoteNumber":64,"Velocity":40,"Duration":242915,"SoundDuration":242915,"Delta":1214575},{"NoteNumber":68,"Velocity":40,"Duration":242915,"SoundDuration":242915,"Delta":1457490},{"NoteNumber":71,"Velocity":40,"Duration":242915,"SoundDuration":242915,"Delta":1700405},{"NoteNumber":56,"Velocity":45,"Duration":242915,"SoundDuration":242915,"Delta":1943320},{"NoteNumber":59,"Velocity":40,"Duration":242915,"SoundDuration":242915,"Delta":2186235},{"NoteNumber":64,"Velocity":40,"Duration":242915,"SoundDuration":242915,"Delta":2429150},{"NoteNumber":68,"Velocity":40,"Duration":242915,"SoundDuration":242915,"Delta":2672065},{"NoteNumber":71,"Velocity":46,"Duration":242915,"SoundDuration":242915,"Delta":2914980},{"NoteNumber":76,"Velocity":40,"Duration":242915,"SoundDuration":242915,"Delta":3157895},{"NoteNumber":80,"Velocity":40,"Duration":242915,"SoundDuration":242915,"Delta":3400810},{"NoteNumber":83,"Velocity":40,"Duration":242915,"SoundDuration":242915,"Delta":3643725},{"NoteNumber":59,"Velocity":45,"Duration":242915,"SoundDuration":242915,"Delta":3886640},{"NoteNumber":68,"Velocity":40,"Duration":242915,"SoundDuration":242915,"Delta":4129555},{"NoteNumber":71,"Velocity":40,"Duration":242915,"SoundDuration":242915,"Delta":4372470},{"NoteNumber":76,"Velocity":40,"Duration":242915,"SoundDuration":242915,"Delta":4615385},{"NoteNumber":80,"Velocity":47,"Duration":242915,"SoundDuration":242915,"Delta":4858300},{"NoteNumber":83,"Velocity":41,"Duration":241536,"SoundDuration":241536,"Delta":5101215},{"NoteNumber":88,"Velocity":42,"Duration":245799,"SoundDuration":245799,"Delta":5342751},{"NoteNumber":92,"Velocity":45,"Duration":254306,"SoundDuration":254306,"Delta":5588550},{"NoteNumber":95,"Velocity":47,"Duration":517955,"SoundDuration":517955,"Delta":5842857},{"NoteNumber":63,"Velocity":38,"Duration":545058,"SoundDuration":545058,"Delta":6878769},{"NoteNumber":59,"Velocity":32,"Duration":545058,"SoundDuration":545058,"Delta":6878769},{"NoteNumber":57,"Velocity":32,"Duration":545058,"SoundDuration":545058,"Delta":6878769},{"NoteNumber":47,"Velocity":29,"Duration":545058,"SoundDuration":545058,"Delta":6878769},{"NoteNumber":56,"Velocity":34,"Duration":478469,"SoundDuration":478469,"Delta":7968885},{"NoteNumber":59,"Velocity":34,"Duration":478469,"SoundDuration":478469,"Delta":7968885},{"NoteNumber":64,"Velocity":40,"Duration":478469,"SoundDuration":478469,"Delta":7968885},{"NoteNumber":40,"Velocity":37,"Duration":478469,"SoundDuration":478469,"Delta":7968885},{"NoteNumber":68,"Velocity":51,"Duration":956937,"SoundDuration":956937,"Delta":9882761},{"NoteNumber":59,"Velocity":43,"Duration":956937,"SoundDuration":956937,"Delta":9882761},{"NoteNumber":64,"Velocity":43,"Duration":956937,"SoundDuration":956937,"Delta":9882761},{"NoteNumber":56,"Velocity":32,"Duration":1975752,"SoundDuration":1975752,"Delta":9882761},{"NoteNumber":52,"Velocity":27,"Duration":1975752,"SoundDuration":1975752,"Delta":9882761},{"NoteNumber":66,"Velocity":47,"Duration":748642,"SoundDuration":748642,"Delta":10839699},{"NoteNumber":64,"Velocity":42,"Duration":247658,"SoundDuration":247658,"Delta":11588341},{"NoteNumber":64,"Velocity":42,"Duration":1928639,"SoundDuration":1928639,"Delta":11858514},{"NoteNumber":71,"Velocity":50,"Duration":482160,"SoundDuration":482160,"Delta":11858514},{"NoteNumber":57,"Velocity":32,"Duration":1928639,"SoundDuration":1928639,"Delta":11858514},{"NoteNumber":52,"Velocity":27,"Duration":1928639,"SoundDuration":1928639,"Delta":11858514},{"NoteNumber":49,"Velocity":27,"Duration":1928639,"SoundDuration":1928639,"Delta":11858514},{"NoteNumber":69,"Velocity":40,"Duration":964320,"SoundDuration":964320,"Delta":12340674},{"NoteNumber":68,"Velocity":40,"Duration":433943,"SoundDuration":433943,"Delta":13304994},{"NoteNumber":66,"Velocity":43,"Duration":433944,"SoundDuration":433944,"Delta":13787154},{"NoteNumber":58,"Velocity":36,"Duration":2015594,"SoundDuration":2015594,"Delta":13787154},{"NoteNumber":52,"Velocity":32,"Duration":2015594,"SoundDuration":2015594,"Delta":13787154},{"NoteNumber":49,"Velocity":27,"Duration":2015594,"SoundDuration":2015594,"Delta":13787154},{"NoteNumber":64,"Velocity":40,"Duration":433944,"SoundDuration":433944,"Delta":14269314},{"NoteNumber":63,"Velocity":40,"Duration":451278,"SoundDuration":451278,"Delta":14751474},{"NoteNumber":64,"Velocity":40,"Duration":494868,"SoundDuration":494868,"Delta":15252894},{"NoteNumber":68,"Velocity":45,"Duration":994860,"SoundDuration":994860,"Delta":15802748},{"NoteNumber":59,"Velocity":38,"Duration":1492289,"SoundDuration":1492289,"Delta":15802748},{"NoteNumber":52,"Velocity":31,"Duration":994860,"SoundDuration":994860,"Delta":15802748},{"NoteNumber":47,"Velocity":26,"Duration":1492289,"SoundDuration":1492289,"Delta":15802748},{"NoteNumber":66,"Velocity":38,"Duration":497429,"SoundDuration":497429,"Delta":16797608},{"NoteNumber":51,"Velocity":26,"Duration":497429,"SoundDuration":497429,"Delta":16797608},{"NoteNumber":66,"Velocity":60,"Duration":971660,"SoundDuration":971660,"Delta":17792468},{"NoteNumber":62,"Velocity":50,"Duration":971660,"SoundDuration":971660,"Delta":17792468},{"NoteNumber":59,"Velocity":50,"Duration":971660,"SoundDuration":971660,"Delta":17792468},{"NoteNumber":54,"Velocity":45,"Duration":971660,"SoundDuration":971660,"Delta":17792468},{"NoteNumber":47,"Velocity":38,"Duration":971660,"SoundDuration":971660,"Delta":17792468},{"NoteNumber":66,"Velocity":71,"Duration":759082,"SoundDuration":759082,"Delta":18764128},{"NoteNumber":61,"Velocity":56,"Duration":759082,"SoundDuration":759082,"Delta":18764128},{"NoteNumber":54,"Velocity":45,"Duration":759082,"SoundDuration":759082,"Delta":18764128},{"NoteNumber":45,"Velocity":38,"Duration":759082,"SoundDuration":759082,"Delta":18764128},{"NoteNumber":59,"Velocity":56,"Duration":265580,"SoundDuration":265580,"Delta":19523210},{"NoteNumber":65,"Velocity":56,"Duration":265580,"SoundDuration":265580,"Delta":19523210},{"NoteNumber":68,"Velocity":67,"Duration":265580,"SoundDuration":265580,"Delta":19523210},{"NoteNumber":44,"Velocity":44,"Duration":265580,"SoundDuration":265580,"Delta":19523210},{"NoteNumber":54,"Velocity":52,"Duration":265580,"SoundDuration":265580,"Delta":19523210},{"NoteNumber":57,"Velocity":57,"Duration":1457490,"SoundDuration":1457490,"Delta":19788791},{"NoteNumber":66,"Velocity":57,"Duration":1457490,"SoundDuration":1457490,"Delta":19788791},{"NoteNumber":69,"Velocity":68,"Duration":1457490,"SoundDuration":1457490,"Delta":19788791},{"NoteNumber":54,"Velocity":51,"Duration":1943320,"SoundDuration":1943320,"Delta":19788791},{"NoteNumber":42,"Velocity":43,"Duration":1943320,"SoundDuration":1943320,"Delta":19788791},{"NoteNumber":66,"Velocity":42,"Duration":485830,"SoundDuration":485830,"Delta":21246281},{"NoteNumber":61,"Velocity":45,"Duration":497430,"SoundDuration":497430,"Delta":21732111},{"NoteNumber":57,"Velocity":38,"Duration":2079500,"SoundDuration":2079500,"Delta":21732111},{"NoteNumber":54,"Velocity":30,"Duration":2079500,"SoundDuration":2079500,"Delta":21732111},{"NoteNumber":47,"Velocity":25,"Duration":2079500,"SoundDuration":2079500,"Delta":21732111},{"NoteNumber":63,"Velocity":37,"Duration":497429,"SoundDuration":497429,"Delta":22229541},{"NoteNumber":68,"Velocity":45,"Duration":797119,"SoundDuration":797119,"Delta":22726971},{"NoteNumber":66,"Velocity":41,"Duration":287521,"SoundDuration":287521,"Delta":23524090},{"NoteNumber":64,"Velocity":41,"Duration":971660,"SoundDuration":971660,"Delta":23811612},{"NoteNumber":56,"Velocity":34,"Duration":971660,"SoundDuration":971660,"Delta":23811612},{"NoteNumber":40,"Velocity":31,"Duration":971660,"SoundDuration":971660,"Delta":23811612},{"NoteNumber":68,"Velocity":51,"Duration":956938,"SoundDuration":956938,"Delta":25754932},{"NoteNumber":59,"Velocity":43,"Duration":956938,"SoundDuration":956938,"Delta":25754932},{"NoteNumber":64,"Velocity":43,"Duration":956938,"SoundDuration":956938,"Delta":25754932},{"NoteNumber":56,"Velocity":32,"Duration":1975753,"SoundDuration":1975753,"Delta":25754932},{"NoteNumber":52,"Velocity":27,"Duration":1975753,"SoundDuration":1975753,"Delta":25754932},{"NoteNumber":66,"Velocity":47,"Duration":748642,"SoundDuration":748642,"Delta":26711870},{"NoteNumber":64,"Velocity":42,"Duration":247658,"SoundDuration":247658,"Delta":27460512},{"NoteNumber":64,"Velocity":50,"Duration":2882053,"SoundDuration":2882053,"Delta":27730685},{"NoteNumber":76,"Velocity":67,"Duration":1446480,"SoundDuration":1446480,"Delta":27730685},{"NoteNumber":61,"Velocity":38,"Duration":1928640,"SoundDuration":1928640,"Delta":27730685},{"NoteNumber":56,"Velocity":32,"Duration":1928640,"SoundDuration":1928640,"Delta":27730685},{"NoteNumber":49,"Velocity":32,"Duration":1928640,"SoundDuration":1928640,"Delta":27730685},{"NoteNumber":75,"Velocity":55,"Duration":433944,"SoundDuration":433944,"Delta":29177165},{"NoteNumber":73,"Velocity":58,"Duration":433944,"SoundDuration":433944,"Delta":29659325},{"NoteNumber":61,"Velocity":43,"Duration":1962258,"SoundDuration":1962258,"Delta":29659325},{"NoteNumber":71,"Velocity":55,"Duration":424128,"SoundDuration":424128,"Delta":30141485},{"NoteNumber":65,"Velocity":49,"Duration":2003705,"SoundDuration":2003705,"Delta":30612738},{"NoteNumber":69,"Velocity":55,"Duration":433944,"SoundDuration":433944,"Delta":30612738},{"NoteNumber":59,"Velocity":36,"Duration":1008845,"SoundDuration":1008845,"Delta":30612738},{"NoteNumber":68,"Velocity":55,"Duration":474016,"SoundDuration":474016,"Delta":31094898},{"NoteNumber":73,"Velocity":62,"Duration":994859,"SoundDuration":994859,"Delta":31621584},{"NoteNumber":61,"Velocity":42,"Duration":1492290,"SoundDuration":1492290,"Delta":31621584},{"NoteNumber":57,"Velocity":35,"Duration":1492290,"SoundDuration":1492290,"Delta":31621584},{"NoteNumber":66,"Velocity":38,"Duration":497430,"SoundDuration":497430,"Delta":32616444},{"NoteNumber":66,"Velocity":48,"Duration":971660,"SoundDuration":971660,"Delta":33611304},{"NoteNumber":62,"Velocity":40,"Duration":971660,"SoundDuration":971660,"Delta":33611304},{"NoteNumber":59,"Velocity":40,"Duration":971660,"SoundDuration":971660,"Delta":33611304},{"NoteNumber":54,"Velocity":36,"Duration":971660,"SoundDuration":971660,"Delta":33611304},{"NoteNumber":47,"Velocity":30,"Duration":971660,"SoundDuration":971660,"Delta":33611304},{"NoteNumber":66,"Velocity":56,"Duration":759082,"SoundDuration":759082,"Delta":34582964},{"NoteNumber":61,"Velocity":44,"Duration":759082,"SoundDuration":759082,"Delta":34582964},{"NoteNumber":54,"Velocity":36,"Duration":759082,"SoundDuration":759082,"Delta":34582964},{"NoteNumber":45,"Velocity":30,"Duration":759082,"SoundDuration":759082,"Delta":34582964},{"NoteNumber":59,"Velocity":44,"Duration":265580,"SoundDuration":265580,"Delta":35342046},{"NoteNumber":65,"Velocity":44,"Duration":265580,"SoundDuration":265580,"Delta":35342046},{"NoteNumber":68,"Velocity":53,"Duration":265580,"SoundDuration":265580,"Delta":35342046},{"NoteNumber":44,"Velocity":35,"Duration":265580,"SoundDuration":265580,"Delta":35342046},{"NoteNumber":54,"Velocity":41,"Duration":265580,"SoundDuration":265580,"Delta":35342046},{"NoteNumber":57,"Velocity":45,"Duration":1457490,"SoundDuration":1457490,"Delta":35607627},{"NoteNumber":66,"Velocity":45,"Duration":1457490,"SoundDuration":1457490,"Delta":35607627},{"NoteNumber":69,"Velocity":54,"Duration":1457490,"SoundDuration":1457490,"Delta":35607627},{"NoteNumber":54,"Velocity":40,"Duration":1943320,"SoundDuration":1943320,"Delta":35607627},{"NoteNumber":42,"Velocity":34,"Duration":1943320,"SoundDuration":1943320,"Delta":35607627},{"NoteNumber":66,"Velocity":42,"Duration":485830,"SoundDuration":485830,"Delta":37065117},{"NoteNumber":61,"Velocity":45,"Duration":497430,"SoundDuration":497430,"Delta":37550947},{"NoteNumber":57,"Velocity":38,"Duration":2079500,"SoundDuration":2079500,"Delta":37550947},{"NoteNumber":47,"Velocity":30,"Duration":2079500,"SoundDuration":2079500,"Delta":37550947},{"NoteNumber":35,"Velocity":25,"Duration":2079500,"SoundDuration":2079500,"Delta":37550947},{"NoteNumber":63,"Velocity":37,"Duration":497430,"SoundDuration":497430,"Delta":38048377},{"NoteNumber":68,"Velocity":45,"Duration":797118,"SoundDuration":797118,"Delta":38545807},{"NoteNumber":66,"Velocity":41,"Duration":287521,"SoundDuration":287521,"Delta":39342926},{"NoteNumber":64,"Velocity":41,"Duration":1457490,"SoundDuration":1457490,"Delta":39630448},{"NoteNumber":56,"Velocity":34,"Duration":1457490,"SoundDuration":1457490,"Delta":39630448},{"NoteNumber":40,"Velocity":31,"Duration":1457490,"SoundDuration":1457490,"Delta":39630448},{"NoteNumber":59,"Velocity":60,"Duration":971660,"SoundDuration":971660,"Delta":41573768},{"NoteNumber":56,"Velocity":50,"Duration":971660,"SoundDuration":971660,"Delta":41573768},{"NoteNumber":40,"Velocity":39,"Duration":971660,"SoundDuration":971660,"Delta":41573768},{"NoteNumber":52,"Velocity":46,"Duration":971660,"SoundDuration":971660,"Delta":41573768},{"NoteNumber":54,"Velocity":56,"Duration":759082,"SoundDuration":759082,"Delta":42545428},{"NoteNumber":61,"Velocity":71,"Duration":759082,"SoundDuration":759082,"Delta":42545428},{"NoteNumber":58,"Velocity":56,"Duration":759082,"SoundDuration":759082,"Delta":42545428},{"NoteNumber":39,"Velocity":43,"Duration":1024663,"SoundDuration":1024663,"Delta":42545428},{"NoteNumber":51,"Velocity":51,"Duration":1024663,"SoundDuration":1024663,"Delta":42545428},{"NoteNumber":60,"Velocity":56,"Duration":265580,"SoundDuration":265580,"Delta":43304510},{"NoteNumber":63,"Velocity":67,"Duration":265580,"SoundDuration":265580,"Delta":43304510},{"NoteNumber":64,"Velocity":73,"Duration":1457490,"SoundDuration":1457490,"Delta":43570091},{"NoteNumber":61,"Velocity":62,"Duration":1457490,"SoundDuration":1457490,"Delta":43570091},{"NoteNumber":56,"Velocity":62,"Duration":1457490,"SoundDuration":1457490,"Delta":43570091},{"NoteNumber":37,"Velocity":51,"Duration":971660,"SoundDuration":971660,"Delta":43570091},{"NoteNumber":49,"Velocity":60,"Duration":971660,"SoundDuration":971660,"Delta":43570091},{"NoteNumber":47,"Velocity":63,"Duration":971660,"SoundDuration":971660,"Delta":44541751},{"NoteNumber":35,"Velocity":53,"Duration":971660,"SoundDuration":971660,"Delta":44541751},{"NoteNumber":68,"Velocity":62,"Duration":437246,"SoundDuration":437246,"Delta":45027581},{"NoteNumber":64,"Velocity":52,"Duration":437246,"SoundDuration":437246,"Delta":45027581},{"NoteNumber":61,"Velocity":52,"Duration":437246,"SoundDuration":437246,"Delta":45027581},{"NoteNumber":66,"Velocity":59,"Duration":447687,"SoundDuration":447687,"Delta":45513411},{"NoteNumber":64,"Velocity":59,"Duration":447687,"SoundDuration":447687,"Delta":45513411},{"NoteNumber":61,"Velocity":59,"Duration":447687,"SoundDuration":447687,"Delta":45513411},{"NoteNumber":34,"Velocity":56,"Duration":994860,"SoundDuration":994860,"Delta":45513411},{"NoteNumber":46,"Velocity":66,"Duration":994860,"SoundDuration":994860,"Delta":45513411},{"NoteNumber":70,"Velocity":64,"Duration":447687,"SoundDuration":447687,"Delta":46010841},{"NoteNumber":64,"Velocity":54,"Duration":447687,"SoundDuration":447687,"Delta":46010841},{"NoteNumber":61,"Velocity":54,"Duration":447687,"SoundDuration":447687,"Delta":46010841},{"NoteNumber":73,"Velocity":73,"Duration":753990,"SoundDuration":753990,"Delta":46508271},{"NoteNumber":64,"Velocity":62,"Duration":753990,"SoundDuration":753990,"Delta":46508271},{"NoteNumber":61,"Velocity":62,"Duration":753990,"SoundDuration":753990,"Delta":46508271},{"NoteNumber":44,"Velocity":71,"Duration":1084640,"SoundDuration":1084640,"Delta":46508271},{"NoteNumber":32,"Velocity":60,"Duration":1084640,"SoundDuration":1084640,"Delta":46508271},{"NoteNumber":61,"Velocity":55,"Duration":258769,"SoundDuration":258769,"Delta":47305390},{"NoteNumber":64,"Velocity":55,"Duration":258769,"SoundDuration":258769,"Delta":47305390},{"NoteNumber":71,"Velocity":65,"Duration":258769,"SoundDuration":258769,"Delta":47305390},{"NoteNumber":61,"Velocity":60,"Duration":971660,"SoundDuration":971660,"Delta":47592912},{"NoteNumber":71,"Velocity":75,"Duration":971660,"SoundDuration":971660,"Delta":47592912},{"NoteNumber":64,"Velocity":60,"Duration":971660,"SoundDuration":971660,"Delta":47592912},{"NoteNumber":30,"Velocity":62,"Duration":1943320,"SoundDuration":1943320,"Delta":47592912},{"NoteNumber":42,"Velocity":74,"Duration":1943320,"SoundDuration":1943320,"Delta":47592912},{"NoteNumber":70,"Velocity":68,"Duration":485830,"SoundDuration":485830,"Delta":48564572},{"NoteNumber":71,"Velocity":79,"Duration":971660,"SoundDuration":971660,"Delta":49536232},{"NoteNumber":76,"Velocity":79,"Duration":971660,"SoundDuration":971660,"Delta":49536232},{"NoteNumber":68,"Velocity":67,"Duration":971660,"SoundDuration":971660,"Delta":49536232},{"NoteNumber":42,"Velocity":70,"Duration":1996323,"SoundDuration":1996323,"Delta":49536232},{"NoteNumber":30,"Velocity":59,"Duration":1996323,"SoundDuration":1996323,"Delta":49536232},{"NoteNumber":70,"Velocity":65,"Duration":759082,"SoundDuration":759082,"Delta":50507892},{"NoteNumber":75,"Velocity":77,"Duration":759082,"SoundDuration":759082,"Delta":50507892},{"NoteNumber":66,"Velocity":65,"Duration":759082,"SoundDuration":759082,"Delta":50507892},{"NoteNumber":73,"Velocity":63,"Duration":265580,"SoundDuration":265580,"Delta":51266974},{"NoteNumber":64,"Velocity":53,"Duration":265580,"SoundDuration":265580,"Delta":51266974},{"NoteNumber":63,"Velocity":65,"Duration":971660,"SoundDuration":971660,"Delta":51532555},{"NoteNumber":66,"Velocity":65,"Duration":971660,"SoundDuration":971660,"Delta":51532555},{"NoteNumber":71,"Velocity":77,"Duration":971660,"SoundDuration":971660,"Delta":51532555},{"NoteNumber":42,"Velocity":71,"Duration":1943320,"SoundDuration":1943320,"Delta":51532555},{"NoteNumber":30,"Velocity":60,"Duration":1943320,"SoundDuration":1943320,"Delta":51532555},{"NoteNumber":61,"Velocity":52,"Duration":728745,"SoundDuration":728745,"Delta":52504215},{"NoteNumber":70,"Velocity":62,"Duration":728745,"SoundDuration":728745,"Delta":52504215},{"NoteNumber":64,"Velocity":52,"Duration":728745,"SoundDuration":728745,"Delta":52504215},{"NoteNumber":59,"Velocity":44,"Duration":242914,"SoundDuration":242914,"Delta":53232960},{"NoteNumber":63,"Velocity":44,"Duration":242914,"SoundDuration":242914,"Delta":53232960},{"NoteNumber":68,"Velocity":52,"Duration":242914,"SoundDuration":242914,"Delta":53232960},{"NoteNumber":58,"Velocity":58,"Duration":497430,"SoundDuration":497430,"Delta":53475875},{"NoteNumber":64,"Velocity":58,"Duration":497430,"SoundDuration":497430,"Delta":53475875},{"NoteNumber":66,"Velocity":69,"Duration":497430,"SoundDuration":497430,"Delta":53475875},{"NoteNumber":42,"Velocity":63,"Duration":2040171,"SoundDuration":2040171,"Delta":53475875},{"NoteNumber":30,"Velocity":53,"Duration":2040171,"SoundDuration":2040171,"Delta":53475875},{"NoteNumber":61,"Velocity":48,"Duration":497430,"SoundDuration":497430,"Delta":53973305},{"NoteNumber":64,"Velocity":57,"Duration":497430,"SoundDuration":497430,"Delta":53973305},{"NoteNumber":58,"Velocity":56,"Duration":509597,"SoundDuration":509597,"Delta":54470735},{"NoteNumber":64,"Velocity":56,"Duration":509597,"SoundDuration":509597,"Delta":54470735},{"NoteNumber":68,"Velocity":66,"Duration":509597,"SoundDuration":509597,"Delta":54470735},{"NoteNumber":64,"Velocity":56,"Duration":535714,"SoundDuration":535714,"Delta":54980333},{"NoteNumber":61,"Velocity":47,"Duration":535714,"SoundDuration":535714,"Delta":54980333},{"NoteNumber":59,"Velocity":54,"Duration":437246,"SoundDuration":437246,"Delta":55516047},{"NoteNumber":63,"Velocity":64,"Duration":437246,"SoundDuration":437246,"Delta":55516047},{"NoteNumber":35,"Velocity":41,"Duration":2862851,"SoundDuration":2862851,"Delta":55516047},{"NoteNumber":47,"Velocity":49,"Duration":2862851,"SoundDuration":2862851,"Delta":55516047},{"NoteNumber":63,"Velocity":39,"Duration":460829,"SoundDuration":460829,"Delta":56001877},{"NoteNumber":59,"Velocity":39,"Duration":460829,"SoundDuration":460829,"Delta":56001877},{"NoteNumber":66,"Velocity":47,"Duration":942989,"SoundDuration":942989,"Delta":56001877},{"NoteNumber":61,"Velocity":39,"Duration":482160,"SoundDuration":482160,"Delta":56462707},{"NoteNumber":58,"Velocity":39,"Duration":482160,"SoundDuration":482160,"Delta":56462707},{"NoteNumber":59,"Velocity":39,"Duration":418916,"SoundDuration":418916,"Delta":56944867},{"NoteNumber":56,"Velocity":39,"Duration":418916,"SoundDuration":418916,"Delta":56944867},{"NoteNumber":64,"Velocity":47,"Duration":418916,"SoundDuration":418916,"Delta":56944867},{"NoteNumber":54,"Velocity":39,"Duration":967990,"SoundDuration":967990,"Delta":57410908},{"NoteNumber":59,"Velocity":39,"Duration":967990,"SoundDuration":967990,"Delta":57410908},{"NoteNumber":63,"Velocity":51,"Duration":433943,"SoundDuration":433943,"Delta":57410908},{"NoteNumber":64,"Velocity":47,"Duration":437246,"SoundDuration":437246,"Delta":57893068},{"NoteNumber":54,"Velocity":39,"Duration":1030887,"SoundDuration":1030887,"Delta":58378898},{"NoteNumber":58,"Velocity":39,"Duration":1030887,"SoundDuration":1030887,"Delta":58378898},{"NoteNumber":63,"Velocity":52,"Duration":758358,"SoundDuration":758358,"Delta":58378898},{"NoteNumber":52,"Velocity":38,"Duration":1030887,"SoundDuration":1030887,"Delta":58378898},{"NoteNumber":42,"Velocity":32,"Duration":1030887,"SoundDuration":1030887,"Delta":58378898},{"NoteNumber":61,"Velocity":42,"Duration":272528,"SoundDuration":272528,"Delta":59137257},{"NoteNumber":54,"Velocity":43,"Duration":440672,"SoundDuration":440672,"Delta":59409786},{"NoteNumber":59,"Velocity":49,"Duration":440672,"SoundDuration":440672,"Delta":59409786},{"NoteNumber":47,"Velocity":37,"Duration":950465,"SoundDuration":950465,"Delta":59409786},{"NoteNumber":51,"Velocity":44,"Duration":950465,"SoundDuration":950465,"Delta":59409786},{"NoteNumber":63,"Velocity":39,"Duration":460829,"SoundDuration":460829,"Delta":59899422},{"NoteNumber":59,"Velocity":39,"Duration":460829,"SoundDuration":460829,"Delta":59899422},{"NoteNumber":66,"Velocity":47,"Duration":942989,"SoundDuration":942989,"Delta":59899422},{"NoteNumber":61,"Velocity":39,"Duration":482160,"SoundDuration":482160,"Delta":60360252},{"NoteNumber":58,"Velocity":39,"Duration":482160,"SoundDuration":482160,"Delta":60360252},{"NoteNumber":59,"Velocity":39,"Duration":418916,"SoundDuration":418916,"Delta":60842412},{"NoteNumber":56,"Velocity":39,"Duration":418916,"SoundDuration":418916,"Delta":60842412},{"NoteNumber":64,"Velocity":47,"Duration":418916,"SoundDuration":418916,"Delta":60842412},{"NoteNumber":54,"Velocity":39,"Duration":967990,"SoundDuration":967990,"Delta":61308453},{"NoteNumber":59,"Velocity":39,"Duration":967990,"SoundDuration":967990,"Delta":61308453},{"NoteNumber":63,"Velocity":51,"Duration":433943,"SoundDuration":433943,"Delta":61308453},{"NoteNumber":64,"Velocity":47,"Duration":437246,"SoundDuration":437246,"Delta":61790613},{"NoteNumber":54,"Velocity":39,"Duration":1030887,"SoundDuration":1030887,"Delta":62276443},{"NoteNumber":58,"Velocity":39,"Duration":1030887,"SoundDuration":1030887,"Delta":62276443},{"NoteNumber":63,"Velocity":52,"Duration":758358,"SoundDuration":758358,"Delta":62276443},{"NoteNumber":52,"Velocity":38,"Duration":1030887,"SoundDuration":1030887,"Delta":62276443},{"NoteNumber":42,"Velocity":32,"Duration":1030887,"SoundDuration":1030887,"Delta":62276443},{"NoteNumber":61,"Velocity":42,"Duration":272528,"SoundDuration":272528,"Delta":63034802},{"NoteNumber":59,"Velocity":49,"Duration":440672,"SoundDuration":440672,"Delta":63307331},{"NoteNumber":47,"Velocity":37,"Duration":440672,"SoundDuration":440672,"Delta":63307331},{"NoteNumber":51,"Velocity":44,"Duration":440672,"SoundDuration":440672,"Delta":63307331},{"NoteNumber":71,"Velocity":55,"Duration":1062858,"SoundDuration":1062858,"Delta":63796967},{"NoteNumber":63,"Velocity":46,"Duration":512675,"SoundDuration":512675,"Delta":63796967},{"NoteNumber":66,"Velocity":46,"Duration":512675,"SoundDuration":512675,"Delta":63796967},{"NoteNumber":47,"Velocity":42,"Duration":512675,"SoundDuration":512675,"Delta":63796967},{"NoteNumber":59,"Velocity":50,"Duration":512675,"SoundDuration":512675,"Delta":63796967},{"NoteNumber":64,"Velocity":62,"Duration":550183,"SoundDuration":550183,"Delta":64309642},{"NoteNumber":59,"Velocity":59,"Duration":550183,"SoundDuration":550183,"Delta":64309642},{"NoteNumber":49,"Velocity":50,"Duration":550183,"SoundDuration":550183,"Delta":64309642},{"NoteNumber":69,"Velocity":61,"Duration":573871,"SoundDuration":573871,"Delta":64859826},{"NoteNumber":66,"Velocity":51,"Duration":573871,"SoundDuration":573871,"Delta":64859826},{"NoteNumber":59,"Velocity":53,"Duration":573871,"SoundDuration":573871,"Delta":64859826},{"NoteNumber":51,"Velocity":45,"Duration":573871,"SoundDuration":573871,"Delta":64859826},{"NoteNumber":68,"Velocity":51,"Duration":956937,"SoundDuration":956937,"Delta":65506584},{"NoteNumber":59,"Velocity":43,"Duration":956937,"SoundDuration":956937,"Delta":65506584},{"NoteNumber":64,"Velocity":43,"Duration":956937,"SoundDuration":956937,"Delta":65506584},{"NoteNumber":56,"Velocity":32,"Duration":1975752,"SoundDuration":1975752,"Delta":65506584},{"NoteNumber":52,"Velocity":27,"Duration":1975752,"SoundDuration":1975752,"Delta":65506584},{"NoteNumber":66,"Velocity":50,"Duration":748642,"SoundDuration":748642,"Delta":66463522},{"NoteNumber":51,"Velocity":27,"Duration":1018815,"SoundDuration":1018815,"Delta":66463522},{"NoteNumber":64,"Velocity":42,"Duration":247658,"SoundDuration":247658,"Delta":67212164},{"NoteNumber":64,"Velocity":42,"Duration":1928640,"SoundDuration":1928640,"Delta":67482337},{"NoteNumber":71,"Velocity":50,"Duration":482159,"SoundDuration":482159,"Delta":67482337},{"NoteNumber":57,"Velocity":32,"Duration":1928640,"SoundDuration":1928640,"Delta":67482337},{"NoteNumber":52,"Velocity":27,"Duration":1928640,"SoundDuration":1928640,"Delta":67482337},{"NoteNumber":49,"Velocity":27,"Duration":1928640,"SoundDuration":1928640,"Delta":67482337},{"NoteNumber":69,"Velocity":40,"Duration":964320,"SoundDuration":964320,"Delta":67964497},{"NoteNumber":68,"Velocity":40,"Duration":433944,"SoundDuration":433944,"Delta":68928817},{"NoteNumber":66,"Velocity":43,"Duration":433943,"SoundDuration":433943,"Delta":69410977},{"NoteNumber":58,"Velocity":36,"Duration":2015593,"SoundDuration":2015593,"Delta":69410977},{"NoteNumber":52,"Velocity":32,"Duration":2015593,"SoundDuration":2015593,"Delta":69410977},{"NoteNumber":49,"Velocity":27,"Duration":2015593,"SoundDuration":2015593,"Delta":69410977},{"NoteNumber":64,"Velocity":40,"Duration":433944,"SoundDuration":433944,"Delta":69893137},{"NoteNumber":63,"Velocity":40,"Duration":451278,"SoundDuration":451278,"Delta":70375297},{"NoteNumber":64,"Velocity":40,"Duration":494868,"SoundDuration":494868,"Delta":70876717},{"NoteNumber":68,"Velocity":45,"Duration":994860,"SoundDuration":994860,"Delta":71426571},{"NoteNumber":59,"Velocity":38,"Duration":1492289,"SoundDuration":1492289,"Delta":71426571},{"NoteNumber":52,"Velocity":31,"Duration":994860,"SoundDuration":994860,"Delta":71426571},{"NoteNumber":47,"Velocity":26,"Duration":1492289,"SoundDuration":1492289,"Delta":71426571},{"NoteNumber":66,"Velocity":38,"Duration":497429,"SoundDuration":497429,"Delta":72421431},{"NoteNumber":51,"Velocity":26,"Duration":497429,"SoundDuration":497429,"Delta":72421431},{"NoteNumber":66,"Velocity":60,"Duration":971660,"SoundDuration":971660,"Delta":73416291},{"NoteNumber":62,"Velocity":50,"Duration":971660,"SoundDuration":971660,"Delta":73416291},{"NoteNumber":59,"Velocity":50,"Duration":971660,"SoundDuration":971660,"Delta":73416291},{"NoteNumber":54,"Velocity":45,"Duration":971660,"SoundDuration":971660,"Delta":73416291},{"NoteNumber":47,"Velocity":38,"Duration":971660,"SoundDuration":971660,"Delta":73416291},{"NoteNumber":66,"Velocity":71,"Duration":759082,"SoundDuration":759082,"Delta":74387951},{"NoteNumber":61,"Velocity":56,"Duration":759082,"SoundDuration":759082,"Delta":74387951},{"NoteNumber":54,"Velocity":45,"Duration":759082,"SoundDuration":759082,"Delta":74387951},{"NoteNumber":45,"Velocity":38,"Duration":759082,"SoundDuration":759082,"Delta":74387951},{"NoteNumber":59,"Velocity":56,"Duration":265580,"SoundDuration":265580,"Delta":75147033},{"NoteNumber":65,"Velocity":56,"Duration":265580,"SoundDuration":265580,"Delta":75147033},{"NoteNumber":68,"Velocity":67,"Duration":265580,"SoundDuration":265580,"Delta":75147033},{"NoteNumber":44,"Velocity":44,"Duration":265580,"SoundDuration":265580,"Delta":75147033},{"NoteNumber":54,"Velocity":52,"Duration":265580,"SoundDuration":265580,"Delta":75147033},{"NoteNumber":57,"Velocity":57,"Duration":1457490,"SoundDuration":1457490,"Delta":75412614},{"NoteNumber":66,"Velocity":57,"Duration":1449392,"SoundDuration":1449392,"Delta":75412614},{"NoteNumber":69,"Velocity":68,"Duration":1457490,"SoundDuration":1457490,"Delta":75412614},{"NoteNumber":54,"Velocity":51,"Duration":1943320,"SoundDuration":1943320,"Delta":75412614},{"NoteNumber":42,"Velocity":43,"Duration":1943320,"SoundDuration":1943320,"Delta":75412614},{"NoteNumber":66,"Velocity":42,"Duration":485829,"SoundDuration":485829,"Delta":76870104},{"NoteNumber":61,"Velocity":45,"Duration":497429,"SoundDuration":497429,"Delta":77355934},{"NoteNumber":57,"Velocity":38,"Duration":2079500,"SoundDuration":2079500,"Delta":77355934},{"NoteNumber":54,"Velocity":30,"Duration":2079500,"SoundDuration":2079500,"Delta":77355934},{"NoteNumber":47,"Velocity":25,"Duration":2079500,"SoundDuration":2079500,"Delta":77355934},{"NoteNumber":63,"Velocity":37,"Duration":497430,"SoundDuration":497430,"Delta":77853364},{"NoteNumber":68,"Velocity":45,"Duration":797118,"SoundDuration":797118,"Delta":78350794},{"NoteNumber":66,"Velocity":41,"Duration":287521,"SoundDuration":287521,"Delta":79147913},{"NoteNumber":64,"Velocity":41,"Duration":971660,"SoundDuration":971660,"Delta":79435435},{"NoteNumber":56,"Velocity":34,"Duration":971660,"SoundDuration":971660,"Delta":79435435},{"NoteNumber":40,"Velocity":31,"Duration":971660,"SoundDuration":971660,"Delta":79435435},{"NoteNumber":68,"Velocity":69,"Duration":971660,"SoundDuration":971660,"Delta":81378755},{"NoteNumber":71,"Velocity":69,"Duration":971660,"SoundDuration":971660,"Delta":81378755},{"NoteNumber":64,"Velocity":58,"Duration":971660,"SoundDuration":971660,"Delta":81378755},{"NoteNumber":59,"Velocity":53,"Duration":971660,"SoundDuration":971660,"Delta":81378755},{"NoteNumber":52,"Velocity":45,"Duration":971660,"SoundDuration":971660,"Delta":81378755},{"NoteNumber":66,"Velocity":70,"Duration":767001,"SoundDuration":767001,"Delta":82350415},{"NoteNumber":71,"Velocity":83,"Duration":767001,"SoundDuration":767001,"Delta":82350415},{"NoteNumber":59,"Velocity":60,"Duration":767001,"SoundDuration":767001,"Delta":82350415},{"NoteNumber":51,"Velocity":50,"Duration":767001,"SoundDuration":767001,"Delta":82350415},{"NoteNumber":73,"Velocity":74,"Duration":265580,"SoundDuration":265580,"Delta":83117416},{"NoteNumber":70,"Velocity":62,"Duration":265580,"SoundDuration":265580,"Delta":83117416},{"NoteNumber":67,"Velocity":62,"Duration":265580,"SoundDuration":265580,"Delta":83117416},{"NoteNumber":64,"Velocity":62,"Duration":265580,"SoundDuration":265580,"Delta":83117416},{"NoteNumber":59,"Velocity":51,"Duration":243449,"SoundDuration":243449,"Delta":83117416},{"NoteNumber":49,"Velocity":43,"Duration":265580,"SoundDuration":265580,"Delta":83117416},{"NoteNumber":63,"Velocity":73,"Duration":1943320,"SoundDuration":1943320,"Delta":83382997},{"NoteNumber":75,"Velocity":86,"Duration":1943320,"SoundDuration":1943320,"Delta":83382997},{"NoteNumber":71,"Velocity":73,"Duration":1943320,"SoundDuration":1943320,"Delta":83382997},{"NoteNumber":66,"Velocity":73,"Duration":1943320,"SoundDuration":1943320,"Delta":83382997},{"NoteNumber":59,"Velocity":61,"Duration":1943320,"SoundDuration":1943320,"Delta":83382997},{"NoteNumber":47,"Velocity":51,"Duration":1943320,"SoundDuration":1943320,"Delta":83382997},{"NoteNumber":68,"Velocity":69,"Duration":971660,"SoundDuration":971660,"Delta":85326317},{"NoteNumber":71,"Velocity":69,"Duration":971660,"SoundDuration":971660,"Delta":85326317},{"NoteNumber":64,"Velocity":58,"Duration":971660,"SoundDuration":971660,"Delta":85326317},{"NoteNumber":59,"Velocity":53,"Duration":971660,"SoundDuration":971660,"Delta":85326317},{"NoteNumber":52,"Velocity":45,"Duration":971660,"SoundDuration":971660,"Delta":85326317},{"NoteNumber":66,"Velocity":70,"Duration":767001,"SoundDuration":767001,"Delta":86297977},{"NoteNumber":71,"Velocity":83,"Duration":767001,"SoundDuration":767001,"Delta":86297977},{"NoteNumber":59,"Velocity":60,"Duration":767001,"SoundDuration":767001,"Delta":86297977},{"NoteNumber":51,"Velocity":50,"Duration":767001,"SoundDuration":767001,"Delta":86297977},{"NoteNumber":73,"Velocity":74,"Duration":265580,"SoundDuration":265580,"Delta":87064978},{"NoteNumber":70,"Velocity":62,"Duration":265580,"SoundDuration":265580,"Delta":87064978},{"NoteNumber":67,"Velocity":62,"Duration":265580,"SoundDuration":265580,"Delta":87064978},{"NoteNumber":64,"Velocity":62,"Duration":265580,"SoundDuration":265580,"Delta":87064978},{"NoteNumber":59,"Velocity":51,"Duration":265580,"SoundDuration":265580,"Delta":87064978},{"NoteNumber":49,"Velocity":43,"Duration":265580,"SoundDuration":265580,"Delta":87064978},{"NoteNumber":63,"Velocity":73,"Duration":1846153,"SoundDuration":1846153,"Delta":87330559},{"NoteNumber":75,"Velocity":86,"Duration":1846153,"SoundDuration":1846153,"Delta":87330559},{"NoteNumber":71,"Velocity":73,"Duration":1846153,"SoundDuration":1846153,"Delta":87330559},{"NoteNumber":66,"Velocity":73,"Duration":1846153,"SoundDuration":1846153,"Delta":87330559},{"NoteNumber":59,"Velocity":61,"Duration":1846153,"SoundDuration":1846153,"Delta":87330559},{"NoteNumber":47,"Velocity":51,"Duration":1846153,"SoundDuration":1846153,"Delta":87330559},{"NoteNumber":66,"Velocity":54,"Duration":987003,"SoundDuration":987003,"Delta":89273879},{"NoteNumber":62,"Velocity":45,"Duration":987003,"SoundDuration":987003,"Delta":89273879},{"NoteNumber":59,"Velocity":45,"Duration":987003,"SoundDuration":987003,"Delta":89273879},{"NoteNumber":54,"Velocity":40,"Duration":987003,"SoundDuration":987003,"Delta":89273879},{"NoteNumber":47,"Velocity":34,"Duration":987003,"SoundDuration":987003,"Delta":89273879},{"NoteNumber":66,"Velocity":63,"Duration":797754,"SoundDuration":797754,"Delta":90260883},{"NoteNumber":61,"Velocity":50,"Duration":797754,"SoundDuration":797754,"Delta":90260883},{"NoteNumber":54,"Velocity":40,"Duration":797754,"SoundDuration":797754,"Delta":90260883},{"NoteNumber":45,"Velocity":34,"Duration":797754,"SoundDuration":797754,"Delta":90260883},{"NoteNumber":59,"Velocity":50,"Duration":279798,"SoundDuration":279798,"Delta":91058637},{"NoteNumber":65,"Velocity":50,"Duration":279798,"SoundDuration":279798,"Delta":91058637},{"NoteNumber":68,"Velocity":60,"Duration":279798,"SoundDuration":279798,"Delta":91058637},{"NoteNumber":44,"Velocity":39,"Duration":279798,"SoundDuration":279798,"Delta":91058637},{"NoteNumber":54,"Velocity":46,"Duration":279798,"SoundDuration":279798,"Delta":91058637},{"NoteNumber":57,"Velocity":51,"Duration":1504261,"SoundDuration":1504261,"Delta":91338436},{"NoteNumber":66,"Velocity":51,"Duration":1504261,"SoundDuration":1504261,"Delta":91338436},{"NoteNumber":69,"Velocity":61,"Duration":1504261,"SoundDuration":1504261,"Delta":91338436},{"NoteNumber":54,"Velocity":45,"Duration":2005681,"SoundDuration":2005681,"Delta":91338436},{"NoteNumber":42,"Velocity":38,"Duration":2005681,"SoundDuration":2005681,"Delta":91338436},{"NoteNumber":66,"Velocity":37,"Duration":501420,"SoundDuration":501420,"Delta":92842697},{"NoteNumber":61,"Velocity":40,"Duration":513786,"SoundDuration":513786,"Delta":93344118},{"NoteNumber":57,"Velocity":34,"Duration":2147673,"SoundDuration":2147673,"Delta":93344118},{"NoteNumber":47,"Velocity":27,"Duration":2147673,"SoundDuration":2147673,"Delta":93344118},{"NoteNumber":35,"Velocity":22,"Duration":2147673,"SoundDuration":2147673,"Delta":93344118},{"NoteNumber":63,"Velocity":33,"Duration":513786,"SoundDuration":513786,"Delta":93857904},{"NoteNumber":68,"Velocity":40,"Duration":832579,"SoundDuration":832579,"Delta":94371691},{"NoteNumber":66,"Velocity":36,"Duration":287521,"SoundDuration":287521,"Delta":95204270},{"NoteNumber":64,"Velocity":36,"Duration":971660,"SoundDuration":971660,"Delta":95491792},{"NoteNumber":40,"Velocity":41,"Duration":242914,"SoundDuration":242914,"Delta":95491792},{"NoteNumber":47,"Velocity":34,"Duration":242914,"SoundDuration":242914,"Delta":95734707},{"NoteNumber":52,"Velocity":34,"Duration":242915,"SoundDuration":242915,"Delta":95977622},{"NoteNumber":56,"Velocity":34,"Duration":242914,"SoundDuration":242914,"Delta":96220537},{"NoteNumber":59,"Velocity":39,"Duration":242914,"SoundDuration":242914,"Delta":96463452},{"NoteNumber":64,"Velocity":34,"Duration":242915,"SoundDuration":242915,"Delta":96706367},{"NoteNumber":68,"Velocity":34,"Duration":242914,"SoundDuration":242914,"Delta":96949282},{"NoteNumber":71,"Velocity":34,"Duration":242914,"SoundDuration":242914,"Delta":97192197},{"NoteNumber":56,"Velocity":38,"Duration":242914,"SoundDuration":242914,"Delta":97435112},{"NoteNumber":59,"Velocity":34,"Duration":242914,"SoundDuration":242914,"Delta":97678027},{"NoteNumber":64,"Velocity":34,"Duration":242915,"SoundDuration":242915,"Delta":97920942},{"NoteNumber":68,"Velocity":34,"Duration":242914,"SoundDuration":242914,"Delta":98163857},{"NoteNumber":71,"Velocity":39,"Duration":242914,"SoundDuration":242914,"Delta":98406772},{"NoteNumber":76,"Velocity":34,"Duration":242915,"SoundDuration":242915,"Delta":98649687},{"NoteNumber":80,"Velocity":34,"Duration":242914,"SoundDuration":242914,"Delta":98892602},{"NoteNumber":83,"Velocity":34,"Duration":242914,"SoundDuration":242914,"Delta":99135517},{"NoteNumber":59,"Velocity":38,"Duration":242914,"SoundDuration":242914,"Delta":99378432},{"NoteNumber":68,"Velocity":34,"Duration":242914,"SoundDuration":242914,"Delta":99621347},{"NoteNumber":71,"Velocity":34,"Duration":242915,"SoundDuration":242915,"Delta":99864262},{"NoteNumber":76,"Velocity":34,"Duration":242914,"SoundDuration":242914,"Delta":100107177},{"NoteNumber":80,"Velocity":39,"Duration":242914,"SoundDuration":242914,"Delta":100350092},{"NoteNumber":83,"Velocity":34,"Duration":241536,"SoundDuration":241536,"Delta":100593007},{"NoteNumber":88,"Velocity":35,"Duration":245799,"SoundDuration":245799,"Delta":100834543},{"NoteNumber":92,"Velocity":38,"Duration":254306,"SoundDuration":254306,"Delta":101080342},{"NoteNumber":95,"Velocity":39,"Duration":517955,"SoundDuration":517955,"Delta":101334649},{"NoteNumber":63,"Velocity":32,"Duration":545057,"SoundDuration":545057,"Delta":102370561},{"NoteNumber":59,"Velocity":27,"Duration":545057,"SoundDuration":545057,"Delta":102370561},{"NoteNumber":57,"Velocity":27,"Duration":545057,"SoundDuration":545057,"Delta":102370561},{"NoteNumber":35,"Velocity":20,"Duration":545057,"SoundDuration":545057,"Delta":102370561},{"NoteNumber":47,"Velocity":24,"Duration":545057,"SoundDuration":545057,"Delta":102370561},{"NoteNumber":56,"Velocity":28,"Duration":478469,"SoundDuration":478469,"Delta":103460677},{"NoteNumber":59,"Velocity":28,"Duration":478469,"SoundDuration":478469,"Delta":103460677},{"NoteNumber":64,"Velocity":34,"Duration":478469,"SoundDuration":478469,"Delta":103460677},{"NoteNumber":28,"Velocity":26,"Duration":478469,"SoundDuration":478469,"Delta":103460677},{"NoteNumber":40,"Velocity":31,"Duration":478469,"SoundDuration":478469,"Delta":103460677}],"license":{"name":"Creative Commons Attribution-ShareAlike 3.0 Germany","url":"http://creativecommons.org/licenses/by-sa/3.0/de/deed.en","text":"The MIDI, audio (MP3, OGG) and video files of Bernd Krueger are licensed under the cc-by-sa Germany License. This means that you can use and adapt the files, as long as you attribute the copyright holder.\n\nName: Bernd Krueger\nSource: http://www.piano-midi.de\n\nThe distribution or public playback of the files is only allowed under identical license conditions.\n\nThe scores are open source.","attribution":"MIDI files by Bernd Krueger (piano-midi.de)","attributionUrl":"http://www.piano-midi.de"}}