{"title":"Songs without Words, Op. 19, No. 5","artist":"Mendelssohn","durationMs":174463,"midiSha256":"78acb8a6faa89db9e9dc26f0d912e382bbd445065d7e20c92989a88aaab9fcd7","midiObject":[{"NoteNumber":61,"Velocity":50,"Duration":232862,"SoundDuration":232862,"Delta":0},{"NoteNumber":57,"Velocity":40,"Duration":122558,"SoundDuration":122558,"Delta":122559},{"NoteNumber":61,"Velocity":56,"Duration":492531,"SoundDuration":492531,"Delta":245118},{"NoteNumber":30,"Velocity":40,"Duration":492531,"SoundDuration":492531,"Delta":245118},{"NoteNumber":42,"Velocity":48,"Duration":492531,"SoundDuration":492531,"Delta":245118},{"NoteNumber":56,"Velocity":37,"Duration":122558,"SoundDuration":122558,"Delta":367677},{"NoteNumber":57,"Velocity":42,"Duration":122559,"SoundDuration":122559,"Delta":490235},{"NoteNumber":54,"Velocity":34,"Duration":124854,"SoundDuration":124854,"Delta":612795},{"NoteNumber":66,"Velocity":54,"Duration":232862,"SoundDuration":232862,"Delta":737649},{"NoteNumber":61,"Velocity":39,"Duration":122558,"SoundDuration":122558,"Delta":860208},{"NoteNumber":66,"Velocity":55,"Duration":490236,"SoundDuration":490236,"Delta":982767},{"NoteNumber":42,"Velocity":40,"Duration":490236,"SoundDuration":490236,"Delta":982767},{"NoteNumber":54,"Velocity":48,"Duration":490236,"SoundDuration":490236,"Delta":982767},{"NoteNumber":60,"Velocity":45,"Duration":122559,"SoundDuration":122559,"Delta":1105326},{"NoteNumber":61,"Velocity":55,"Duration":122558,"SoundDuration":122558,"Delta":1227885},{"NoteNumber":57,"Velocity":46,"Duration":122559,"SoundDuration":122559,"Delta":1350444},{"NoteNumber":69,"Velocity":66,"Duration":247935,"SoundDuration":247935,"Delta":1473003},{"NoteNumber":66,"Velocity":55,"Duration":125376,"SoundDuration":125376,"Delta":1595562},{"NoteNumber":74,"Velocity":73,"Duration":490235,"SoundDuration":490235,"Delta":1720938},{"NoteNumber":62,"Velocity":60,"Duration":490235,"SoundDuration":490235,"Delta":1720938},{"NoteNumber":57,"Velocity":50,"Duration":1103031,"SoundDuration":1103031,"Delta":1720938},{"NoteNumber":54,"Velocity":50,"Duration":1103031,"SoundDuration":1103031,"Delta":1720938},{"NoteNumber":68,"Velocity":56,"Duration":122559,"SoundDuration":122559,"Delta":1843497},{"NoteNumber":69,"Velocity":61,"Duration":122558,"SoundDuration":122558,"Delta":1966056},{"NoteNumber":66,"Velocity":56,"Duration":122558,"SoundDuration":122558,"Delta":2088615},{"NoteNumber":73,"Velocity":68,"Duration":245118,"SoundDuration":245118,"Delta":2211174},{"NoteNumber":61,"Velocity":48,"Duration":245118,"SoundDuration":245118,"Delta":2211174},{"NoteNumber":69,"Velocity":49,"Duration":122558,"SoundDuration":122558,"Delta":2333733},{"NoteNumber":72,"Velocity":68,"Duration":485129,"SoundDuration":485129,"Delta":2456292},{"NoteNumber":60,"Velocity":54,"Duration":490236,"SoundDuration":490236,"Delta":2456292},{"NoteNumber":68,"Velocity":50,"Duration":122558,"SoundDuration":122558,"Delta":2578851},{"NoteNumber":69,"Velocity":55,"Duration":122559,"SoundDuration":122559,"Delta":2701410},{"NoteNumber":66,"Velocity":45,"Duration":122559,"SoundDuration":122559,"Delta":2823969},{"NoteNumber":72,"Velocity":51,"Duration":247673,"SoundDuration":247673,"Delta":2946528},{"NoteNumber":57,"Velocity":39,"Duration":247673,"SoundDuration":247673,"Delta":2946528},{"NoteNumber":54,"Velocity":33,"Duration":247673,"SoundDuration":247673,"Delta":2946528},{"NoteNumber":69,"Velocity":33,"Duration":125114,"SoundDuration":125114,"Delta":3069087},{"NoteNumber":73,"Velocity":56,"Duration":490236,"SoundDuration":490236,"Delta":3194202},{"NoteNumber":53,"Velocity":40,"Duration":245117,"SoundDuration":245117,"Delta":3194202},{"NoteNumber":56,"Velocity":48,"Duration":245117,"SoundDuration":245117,"Delta":3194202},{"NoteNumber":68,"Velocity":43,"Duration":122558,"SoundDuration":122558,"Delta":3316761},{"NoteNumber":61,"Velocity":46,"Duration":122559,"SoundDuration":122559,"Delta":3439320},{"NoteNumber":63,"Velocity":42,"Duration":122558,"SoundDuration":122558,"Delta":3561879},{"NoteNumber":65,"Velocity":40,"Duration":122558,"SoundDuration":122558,"Delta":3684438},{"NoteNumber":71,"Velocity":50,"Duration":209371,"SoundDuration":209371,"Delta":3684438},{"NoteNumber":49,"Velocity":38,"Duration":245117,"SoundDuration":245117,"Delta":3684438},{"NoteNumber":37,"Velocity":32,"Duration":245117,"SoundDuration":245117,"Delta":3684438},{"NoteNumber":61,"Velocity":38,"Duration":122558,"SoundDuration":122558,"Delta":3806997},{"NoteNumber":71,"Velocity":43,"Duration":30639,"SoundDuration":30639,"Delta":3898916},{"NoteNumber":66,"Velocity":44,"Duration":122558,"SoundDuration":122558,"Delta":3929556},{"NoteNumber":69,"Velocity":55,"Duration":122558,"SoundDuration":122558,"Delta":3929556},{"NoteNumber":42,"Velocity":40,"Duration":241474,"SoundDuration":241474,"Delta":3929556},{"NoteNumber":54,"Velocity":48,"Duration":241474,"SoundDuration":241474,"Delta":3929556},{"NoteNumber":61,"Velocity":46,"Duration":118915,"SoundDuration":118915,"Delta":4052115},{"NoteNumber":65,"Velocity":50,"Duration":118915,"SoundDuration":118915,"Delta":4171030},{"NoteNumber":68,"Velocity":63,"Duration":118915,"SoundDuration":118915,"Delta":4171030},{"NoteNumber":61,"Velocity":54,"Duration":118915,"SoundDuration":118915,"Delta":4289946},{"NoteNumber":66,"Velocity":55,"Duration":118915,"SoundDuration":118915,"Delta":4408861},{"NoteNumber":69,"Velocity":69,"Duration":118915,"SoundDuration":118915,"Delta":4408861},{"NoteNumber":61,"Velocity":57,"Duration":124595,"SoundDuration":124595,"Delta":4527777},{"NoteNumber":66,"Velocity":55,"Duration":122558,"SoundDuration":122558,"Delta":4652372},{"NoteNumber":69,"Velocity":69,"Duration":245117,"SoundDuration":245117,"Delta":4652372},{"NoteNumber":73,"Velocity":76,"Duration":245117,"SoundDuration":245117,"Delta":4652372},{"NoteNumber":35,"Velocity":40,"Duration":245117,"SoundDuration":245117,"Delta":4652372},{"NoteNumber":47,"Velocity":48,"Duration":245117,"SoundDuration":245117,"Delta":4652372},{"NoteNumber":62,"Velocity":54,"Duration":122558,"SoundDuration":122558,"Delta":4774931},{"NoteNumber":68,"Velocity":48,"Duration":122558,"SoundDuration":122558,"Delta":4897490},{"NoteNumber":71,"Velocity":61,"Duration":245118,"SoundDuration":245118,"Delta":4897490},{"NoteNumber":62,"Velocity":49,"Duration":122559,"SoundDuration":122559,"Delta":5020049},{"NoteNumber":66,"Velocity":40,"Duration":126432,"SoundDuration":126432,"Delta":5142608},{"NoteNumber":69,"Velocity":50,"Duration":126432,"SoundDuration":126432,"Delta":5142608},{"NoteNumber":62,"Velocity":41,"Duration":122558,"SoundDuration":122558,"Delta":5269041},{"NoteNumber":66,"Velocity":44,"Duration":122558,"SoundDuration":122558,"Delta":5391600},{"NoteNumber":69,"Velocity":56,"Duration":245117,"SoundDuration":245117,"Delta":5391600},{"NoteNumber":49,"Velocity":41,"Duration":245117,"SoundDuration":245117,"Delta":5391600},{"NoteNumber":37,"Velocity":34,"Duration":245117,"SoundDuration":245117,"Delta":5391600},{"NoteNumber":61,"Velocity":45,"Duration":122558,"SoundDuration":122558,"Delta":5514159},{"NoteNumber":65,"Velocity":40,"Duration":122559,"SoundDuration":122559,"Delta":5636718},{"NoteNumber":68,"Velocity":50,"Duration":252553,"SoundDuration":252553,"Delta":5636718},{"NoteNumber":59,"Velocity":43,"Duration":129993,"SoundDuration":129993,"Delta":5759277},{"NoteNumber":61,"Velocity":50,"Duration":232862,"SoundDuration":232862,"Delta":5889271},{"NoteNumber":57,"Velocity":40,"Duration":122558,"SoundDuration":122558,"Delta":6011830},{"NoteNumber":61,"Velocity":56,"Duration":493315,"SoundDuration":493315,"Delta":6134389},{"NoteNumber":30,"Velocity":40,"Duration":493315,"SoundDuration":493315,"Delta":6134389},{"NoteNumber":42,"Velocity":48,"Duration":493315,"SoundDuration":493315,"Delta":6134389},{"NoteNumber":56,"Velocity":37,"Duration":122558,"SoundDuration":122558,"Delta":6256948},{"NoteNumber":57,"Velocity":42,"Duration":122558,"SoundDuration":122558,"Delta":6379507},{"NoteNumber":54,"Velocity":34,"Duration":125638,"SoundDuration":125638,"Delta":6502066},{"NoteNumber":66,"Velocity":54,"Duration":232387,"SoundDuration":232387,"Delta":6627704},{"NoteNumber":61,"Velocity":39,"Duration":122308,"SoundDuration":122308,"Delta":6750013},{"NoteNumber":66,"Velocity":55,"Duration":493094,"SoundDuration":493094,"Delta":6872322},{"NoteNumber":42,"Velocity":40,"Duration":493094,"SoundDuration":493094,"Delta":6872322},{"NoteNumber":54,"Velocity":48,"Duration":493094,"SoundDuration":493094,"Delta":6872322},{"NoteNumber":60,"Velocity":45,"Duration":122309,"SoundDuration":122309,"Delta":6994631},{"NoteNumber":61,"Velocity":55,"Duration":122308,"SoundDuration":122308,"Delta":7116940},{"NoteNumber":57,"Velocity":46,"Duration":126167,"SoundDuration":126167,"Delta":7239249},{"NoteNumber":69,"Velocity":66,"Duration":245117,"SoundDuration":245117,"Delta":7365416},{"NoteNumber":66,"Velocity":55,"Duration":122558,"SoundDuration":122558,"Delta":7487975},{"NoteNumber":74,"Velocity":73,"Duration":490236,"SoundDuration":490236,"Delta":7610534},{"NoteNumber":62,"Velocity":55,"Duration":490236,"SoundDuration":490236,"Delta":7610534},{"NoteNumber":57,"Velocity":46,"Duration":1104040,"SoundDuration":1104040,"Delta":7610534},{"NoteNumber":54,"Velocity":46,"Duration":1104040,"SoundDuration":1104040,"Delta":7610534},{"NoteNumber":68,"Velocity":56,"Duration":122558,"SoundDuration":122558,"Delta":7733093},{"NoteNumber":69,"Velocity":61,"Duration":122559,"SoundDuration":122559,"Delta":7855652},{"NoteNumber":66,"Velocity":56,"Duration":122559,"SoundDuration":122559,"Delta":7978211},{"NoteNumber":73,"Velocity":68,"Duration":245117,"SoundDuration":245117,"Delta":8100770},{"NoteNumber":61,"Velocity":48,"Duration":245117,"SoundDuration":245117,"Delta":8100770},{"NoteNumber":69,"Velocity":49,"Duration":122559,"SoundDuration":122559,"Delta":8223329},{"NoteNumber":72,"Velocity":68,"Duration":487106,"SoundDuration":487106,"Delta":8345888},{"NoteNumber":60,"Velocity":54,"Duration":492255,"SoundDuration":492255,"Delta":8345888},{"NoteNumber":68,"Velocity":50,"Duration":122559,"SoundDuration":122559,"Delta":8468447},{"NoteNumber":69,"Velocity":55,"Duration":123568,"SoundDuration":123568,"Delta":8591006},{"NoteNumber":66,"Velocity":45,"Duration":123568,"SoundDuration":123568,"Delta":8714575},{"NoteNumber":72,"Velocity":51,"Duration":252865,"SoundDuration":252865,"Delta":8838143},{"NoteNumber":57,"Velocity":39,"Duration":252865,"SoundDuration":252865,"Delta":8838143},{"NoteNumber":54,"Velocity":33,"Duration":252865,"SoundDuration":252865,"Delta":8838143},{"NoteNumber":69,"Velocity":33,"Duration":126432,"SoundDuration":126432,"Delta":8964576},{"NoteNumber":73,"Velocity":56,"Duration":490235,"SoundDuration":490235,"Delta":9091009},{"NoteNumber":53,"Velocity":40,"Duration":245117,"SoundDuration":245117,"Delta":9091009},{"NoteNumber":56,"Velocity":48,"Duration":245117,"SoundDuration":245117,"Delta":9091009},{"NoteNumber":68,"Velocity":43,"Duration":122558,"SoundDuration":122558,"Delta":9213568},{"NoteNumber":61,"Velocity":46,"Duration":122559,"SoundDuration":122559,"Delta":9336127},{"NoteNumber":62,"Velocity":42,"Duration":122558,"SoundDuration":122558,"Delta":9458686},{"NoteNumber":64,"Velocity":40,"Duration":125114,"SoundDuration":125114,"Delta":9581245},{"NoteNumber":70,"Velocity":50,"Duration":125114,"SoundDuration":125114,"Delta":9581245},{"NoteNumber":54,"Velocity":38,"Duration":492041,"SoundDuration":492041,"Delta":9581245},{"NoteNumber":42,"Velocity":32,"Duration":247423,"SoundDuration":247423,"Delta":9581245},{"NoteNumber":61,"Velocity":38,"Duration":122308,"SoundDuration":122308,"Delta":9706360},{"NoteNumber":62,"Velocity":46,"Duration":122309,"SoundDuration":122309,"Delta":9828669},{"NoteNumber":71,"Velocity":56,"Duration":244618,"SoundDuration":244618,"Delta":9828669},{"NoteNumber":47,"Velocity":40,"Duration":244618,"SoundDuration":244618,"Delta":9828669},{"NoteNumber":66,"Velocity":43,"Duration":122308,"SoundDuration":122308,"Delta":9950978},{"NoteNumber":64,"Velocity":46,"Duration":122308,"SoundDuration":122308,"Delta":10073287},{"NoteNumber":62,"Velocity":42,"Duration":122308,"SoundDuration":122308,"Delta":10195596},{"NoteNumber":61,"Velocity":40,"Duration":122308,"SoundDuration":122308,"Delta":10317905},{"NoteNumber":70,"Velocity":50,"Duration":244618,"SoundDuration":244618,"Delta":10317905},{"NoteNumber":54,"Velocity":38,"Duration":244618,"SoundDuration":244618,"Delta":10317905},{"NoteNumber":42,"Velocity":32,"Duration":244618,"SoundDuration":244618,"Delta":10317905},{"NoteNumber":64,"Velocity":38,"Duration":122309,"SoundDuration":122309,"Delta":10440214},{"NoteNumber":62,"Velocity":46,"Duration":122308,"SoundDuration":122308,"Delta":10562523},{"NoteNumber":71,"Velocity":56,"Duration":244617,"SoundDuration":244617,"Delta":10562523},{"NoteNumber":47,"Velocity":48,"Duration":728442,"SoundDuration":728442,"Delta":10562523},{"NoteNumber":66,"Velocity":43,"Duration":122308,"SoundDuration":122308,"Delta":10684832},{"NoteNumber":69,"Velocity":50,"Duration":120346,"SoundDuration":120346,"Delta":10807141},{"NoteNumber":61,"Velocity":46,"Duration":120346,"SoundDuration":120346,"Delta":10807141},{"NoteNumber":64,"Velocity":42,"Duration":120346,"SoundDuration":120346,"Delta":10927487},{"NoteNumber":59,"Velocity":40,"Duration":121565,"SoundDuration":121565,"Delta":11047834},{"NoteNumber":68,"Velocity":50,"Duration":121565,"SoundDuration":121565,"Delta":11047834},{"NoteNumber":62,"Velocity":38,"Duration":121565,"SoundDuration":121565,"Delta":11169400},{"NoteNumber":57,"Velocity":46,"Duration":123568,"SoundDuration":123568,"Delta":11290966},{"NoteNumber":66,"Velocity":56,"Duration":247137,"SoundDuration":247137,"Delta":11290966},{"NoteNumber":49,"Velocity":40,"Duration":494312,"SoundDuration":494312,"Delta":11290966},{"NoteNumber":61,"Velocity":43,"Duration":123568,"SoundDuration":123568,"Delta":11414534},{"NoteNumber":65,"Velocity":56,"Duration":247175,"SoundDuration":247175,"Delta":11538103},{"NoteNumber":56,"Velocity":46,"Duration":125114,"SoundDuration":125114,"Delta":11538103},{"NoteNumber":59,"Velocity":42,"Duration":122060,"SoundDuration":122060,"Delta":11663217},{"NoteNumber":61,"Velocity":40,"Duration":122060,"SoundDuration":122060,"Delta":11785278},{"NoteNumber":70,"Velocity":50,"Duration":247175,"SoundDuration":247175,"Delta":11785278},{"NoteNumber":54,"Velocity":38,"Duration":491296,"SoundDuration":491296,"Delta":11785278},{"NoteNumber":42,"Velocity":32,"Duration":247175,"SoundDuration":247175,"Delta":11785278},{"NoteNumber":64,"Velocity":38,"Duration":125114,"SoundDuration":125114,"Delta":11907338},{"NoteNumber":62,"Velocity":43,"Duration":122060,"SoundDuration":122060,"Delta":12032453},{"NoteNumber":71,"Velocity":56,"Duration":244120,"SoundDuration":244120,"Delta":12032453},{"NoteNumber":47,"Velocity":40,"Duration":244120,"SoundDuration":244120,"Delta":12032453},{"NoteNumber":66,"Velocity":43,"Duration":122060,"SoundDuration":122060,"Delta":12154513},{"NoteNumber":64,"Velocity":46,"Duration":122060,"SoundDuration":122060,"Delta":12276574},{"NoteNumber":62,"Velocity":42,"Duration":122060,"SoundDuration":122060,"Delta":12398634},{"NoteNumber":61,"Velocity":40,"Duration":125375,"SoundDuration":125375,"Delta":12520695},{"NoteNumber":70,"Velocity":50,"Duration":247436,"SoundDuration":247436,"Delta":12520695},{"NoteNumber":54,"Velocity":38,"Duration":491557,"SoundDuration":491557,"Delta":12520695},{"NoteNumber":42,"Velocity":32,"Duration":247436,"SoundDuration":247436,"Delta":12520695},{"NoteNumber":64,"Velocity":38,"Duration":122060,"SoundDuration":122060,"Delta":12646071},{"NoteNumber":62,"Velocity":46,"Duration":122060,"SoundDuration":122060,"Delta":12768131},{"NoteNumber":71,"Velocity":56,"Duration":244120,"SoundDuration":244120,"Delta":12768131},{"NoteNumber":47,"Velocity":40,"Duration":244120,"SoundDuration":244120,"Delta":12768131},{"NoteNumber":66,"Velocity":43,"Duration":122060,"SoundDuration":122060,"Delta":12890192},{"NoteNumber":64,"Velocity":46,"Duration":122060,"SoundDuration":122060,"Delta":13012252},{"NoteNumber":62,"Velocity":42,"Duration":124854,"SoundDuration":124854,"Delta":13134313},{"NoteNumber":61,"Velocity":40,"Duration":122559,"SoundDuration":122559,"Delta":13259167},{"NoteNumber":70,"Velocity":50,"Duration":245117,"SoundDuration":245117,"Delta":13259167},{"NoteNumber":54,"Velocity":38,"Duration":245117,"SoundDuration":245117,"Delta":13259167},{"NoteNumber":42,"Velocity":32,"Duration":245117,"SoundDuration":245117,"Delta":13259167},{"NoteNumber":64,"Velocity":38,"Duration":122558,"SoundDuration":122558,"Delta":13381726},{"NoteNumber":62,"Velocity":46,"Duration":119866,"SoundDuration":119866,"Delta":13504285},{"NoteNumber":71,"Velocity":56,"Duration":239732,"SoundDuration":239732,"Delta":13504285},{"NoteNumber":47,"Velocity":48,"Duration":725011,"SoundDuration":725011,"Delta":13504285},{"NoteNumber":66,"Velocity":43,"Duration":119866,"SoundDuration":119866,"Delta":13624151},{"NoteNumber":69,"Velocity":50,"Duration":121320,"SoundDuration":121320,"Delta":13744017},{"NoteNumber":61,"Velocity":46,"Duration":121320,"SoundDuration":121320,"Delta":13744017},{"NoteNumber":64,"Velocity":42,"Duration":121319,"SoundDuration":121319,"Delta":13865337},{"NoteNumber":59,"Velocity":40,"Duration":121320,"SoundDuration":121320,"Delta":13986657},{"NoteNumber":68,"Velocity":50,"Duration":121320,"SoundDuration":121320,"Delta":13986657},{"NoteNumber":62,"Velocity":38,"Duration":121319,"SoundDuration":121319,"Delta":14107977},{"NoteNumber":57,"Velocity":46,"Duration":123061,"SoundDuration":123061,"Delta":14229297},{"NoteNumber":66,"Velocity":56,"Duration":246124,"SoundDuration":246124,"Delta":14229297},{"NoteNumber":49,"Velocity":40,"Duration":494824,"SoundDuration":494824,"Delta":14229297},{"NoteNumber":61,"Velocity":43,"Duration":123062,"SoundDuration":123062,"Delta":14352359},{"NoteNumber":65,"Velocity":56,"Duration":248700,"SoundDuration":248700,"Delta":14475421},{"NoteNumber":56,"Velocity":46,"Duration":123062,"SoundDuration":123062,"Delta":14475421},{"NoteNumber":59,"Velocity":42,"Duration":125638,"SoundDuration":125638,"Delta":14598483},{"NoteNumber":61,"Velocity":40,"Duration":122559,"SoundDuration":122559,"Delta":14724122},{"NoteNumber":70,"Velocity":50,"Duration":245118,"SoundDuration":245118,"Delta":14724122},{"NoteNumber":54,"Velocity":38,"Duration":490235,"SoundDuration":490235,"Delta":14724122},{"NoteNumber":42,"Velocity":32,"Duration":245118,"SoundDuration":245118,"Delta":14724122},{"NoteNumber":64,"Velocity":38,"Duration":122559,"SoundDuration":122559,"Delta":14846681},{"NoteNumber":62,"Velocity":43,"Duration":122558,"SoundDuration":122558,"Delta":14969240},{"NoteNumber":71,"Velocity":56,"Duration":245117,"SoundDuration":245117,"Delta":14969240},{"NoteNumber":47,"Velocity":40,"Duration":245117,"SoundDuration":245117,"Delta":14969240},{"NoteNumber":66,"Velocity":43,"Duration":122558,"SoundDuration":122558,"Delta":15091799},{"NoteNumber":64,"Velocity":46,"Duration":122558,"SoundDuration":122558,"Delta":15214358},{"NoteNumber":62,"Velocity":42,"Duration":122559,"SoundDuration":122559,"Delta":15336917},{"NoteNumber":70,"Velocity":40,"Duration":122558,"SoundDuration":122558,"Delta":15459476},{"NoteNumber":73,"Velocity":50,"Duration":247673,"SoundDuration":247673,"Delta":15459476},{"NoteNumber":61,"Velocity":38,"Duration":247673,"SoundDuration":247673,"Delta":15459476},{"NoteNumber":66,"Velocity":38,"Duration":125114,"SoundDuration":125114,"Delta":15582035},{"NoteNumber":71,"Velocity":45,"Duration":122558,"SoundDuration":122558,"Delta":15707149},{"NoteNumber":74,"Velocity":56,"Duration":245118,"SoundDuration":245118,"Delta":15707149},{"NoteNumber":59,"Velocity":42,"Duration":245118,"SoundDuration":245118,"Delta":15707149},{"NoteNumber":66,"Velocity":43,"Duration":122559,"SoundDuration":122559,"Delta":15829708},{"NoteNumber":72,"Velocity":48,"Duration":122558,"SoundDuration":122558,"Delta":15952267},{"NoteNumber":75,"Velocity":61,"Duration":245117,"SoundDuration":245117,"Delta":15952267},{"NoteNumber":57,"Velocity":46,"Duration":245117,"SoundDuration":245117,"Delta":15952267},{"NoteNumber":66,"Velocity":48,"Duration":122558,"SoundDuration":122558,"Delta":16074826},{"NoteNumber":71,"Velocity":53,"Duration":122558,"SoundDuration":122558,"Delta":16197385},{"NoteNumber":76,"Velocity":66,"Duration":245118,"SoundDuration":245118,"Delta":16197385},{"NoteNumber":56,"Velocity":50,"Duration":245118,"SoundDuration":245118,"Delta":16197385},{"NoteNumber":68,"Velocity":52,"Duration":122559,"SoundDuration":122559,"Delta":16319944},{"NoteNumber":75,"Velocity":58,"Duration":122558,"SoundDuration":122558,"Delta":16442503},{"NoteNumber":78,"Velocity":72,"Duration":245117,"SoundDuration":245117,"Delta":16442503},{"NoteNumber":54,"Velocity":54,"Duration":245117,"SoundDuration":245117,"Delta":16442503},{"NoteNumber":69,"Velocity":57,"Duration":122558,"SoundDuration":122558,"Delta":16565062},{"NoteNumber":76,"Velocity":62,"Duration":122559,"SoundDuration":122559,"Delta":16687621},{"NoteNumber":79,"Velocity":78,"Duration":245118,"SoundDuration":245118,"Delta":16687621},{"NoteNumber":52,"Velocity":63,"Duration":245118,"SoundDuration":245118,"Delta":16687621},{"NoteNumber":71,"Velocity":62,"Duration":122558,"SoundDuration":122558,"Delta":16810180},{"NoteNumber":76,"Velocity":67,"Duration":121812,"SoundDuration":121812,"Delta":16932739},{"NoteNumber":80,"Velocity":84,"Duration":243625,"SoundDuration":243625,"Delta":16932739},{"NoteNumber":50,"Velocity":72,"Duration":243625,"SoundDuration":243625,"Delta":16932739},{"NoteNumber":71,"Velocity":66,"Duration":121812,"SoundDuration":121812,"Delta":17054552},{"NoteNumber":76,"Velocity":73,"Duration":121812,"SoundDuration":121812,"Delta":17176364},{"NoteNumber":81,"Velocity":91,"Duration":243624,"SoundDuration":243624,"Delta":17176364},{"NoteNumber":49,"Velocity":84,"Duration":243624,"SoundDuration":243624,"Delta":17176364},{"NoteNumber":73,"Velocity":70,"Duration":121812,"SoundDuration":121812,"Delta":17298177},{"NoteNumber":76,"Velocity":75,"Duration":121812,"SoundDuration":121812,"Delta":17419989},{"NoteNumber":85,"Velocity":93,"Duration":243625,"SoundDuration":243625,"Delta":17419989},{"NoteNumber":45,"Velocity":82,"Duration":243625,"SoundDuration":243625,"Delta":17419989},{"NoteNumber":73,"Velocity":71,"Duration":121812,"SoundDuration":121812,"Delta":17541802},{"NoteNumber":76,"Velocity":75,"Duration":121812,"SoundDuration":121812,"Delta":17663614},{"NoteNumber":83,"Velocity":93,"Duration":233381,"SoundDuration":233381,"Delta":17663614},{"NoteNumber":43,"Velocity":82,"Duration":249319,"SoundDuration":249319,"Delta":17663614},{"NoteNumber":73,"Velocity":71,"Duration":127507,"SoundDuration":127507,"Delta":17785426},{"NoteNumber":76,"Velocity":75,"Duration":120831,"SoundDuration":120831,"Delta":17912934},{"NoteNumber":83,"Velocity":93,"Duration":241662,"SoundDuration":241662,"Delta":17912934},{"NoteNumber":42,"Velocity":86,"Duration":1217666,"SoundDuration":1217666,"Delta":17912934},{"NoteNumber":73,"Velocity":71,"Duration":120831,"SoundDuration":120831,"Delta":18033766},{"NoteNumber":76,"Velocity":75,"Duration":122309,"SoundDuration":122309,"Delta":18154597},{"NoteNumber":82,"Velocity":93,"Duration":244617,"SoundDuration":244617,"Delta":18154597},{"NoteNumber":73,"Velocity":71,"Duration":122308,"SoundDuration":122308,"Delta":18276906},{"NoteNumber":74,"Velocity":75,"Duration":122309,"SoundDuration":122309,"Delta":18399215},{"NoteNumber":79,"Velocity":93,"Duration":229329,"SoundDuration":229329,"Delta":18399215},{"NoteNumber":71,"Velocity":63,"Duration":122309,"SoundDuration":122309,"Delta":18521524},{"NoteNumber":73,"Velocity":75,"Duration":121075,"SoundDuration":121075,"Delta":18643833},{"NoteNumber":79,"Velocity":93,"Duration":242149,"SoundDuration":242149,"Delta":18643833},{"NoteNumber":70,"Velocity":68,"Duration":121074,"SoundDuration":121074,"Delta":18764908},{"NoteNumber":73,"Velocity":71,"Duration":122309,"SoundDuration":122309,"Delta":18885983},{"NoteNumber":78,"Velocity":90,"Duration":244617,"SoundDuration":244617,"Delta":18885983},{"NoteNumber":70,"Velocity":65,"Duration":122308,"SoundDuration":122308,"Delta":19008292},{"NoteNumber":73,"Velocity":66,"Duration":122309,"SoundDuration":122309,"Delta":19130601},{"NoteNumber":76,"Velocity":83,"Duration":229329,"SoundDuration":229329,"Delta":19130601},{"NoteNumber":46,"Velocity":72,"Duration":244618,"SoundDuration":244618,"Delta":19130601},{"NoteNumber":67,"Velocity":60,"Duration":122309,"SoundDuration":122309,"Delta":19252910},{"NoteNumber":73,"Velocity":61,"Duration":119627,"SoundDuration":119627,"Delta":19375219},{"NoteNumber":76,"Velocity":77,"Duration":239253,"SoundDuration":239253,"Delta":19375219},{"NoteNumber":47,"Velocity":70,"Duration":484873,"SoundDuration":484873,"Delta":19375219},{"NoteNumber":66,"Velocity":56,"Duration":119626,"SoundDuration":119626,"Delta":19494846},{"NoteNumber":72,"Velocity":57,"Duration":122810,"SoundDuration":122810,"Delta":19614473},{"NoteNumber":75,"Velocity":71,"Duration":245619,"SoundDuration":245619,"Delta":19614473},{"NoteNumber":70,"Velocity":51,"Duration":122809,"SoundDuration":122809,"Delta":19737283},{"NoteNumber":71,"Velocity":52,"Duration":122810,"SoundDuration":122810,"Delta":19860093},{"NoteNumber":74,"Velocity":66,"Duration":232514,"SoundDuration":232514,"Delta":19860093},{"NoteNumber":44,"Velocity":57,"Duration":248186,"SoundDuration":248186,"Delta":19860093},{"NoteNumber":65,"Velocity":47,"Duration":125375,"SoundDuration":125375,"Delta":19982903},{"NoteNumber":71,"Velocity":48,"Duration":120588,"SoundDuration":120588,"Delta":20108279},{"NoteNumber":74,"Velocity":60,"Duration":241177,"SoundDuration":241177,"Delta":20108279},{"NoteNumber":45,"Velocity":55,"Duration":485298,"SoundDuration":485298,"Delta":20108279},{"NoteNumber":64,"Velocity":44,"Duration":120588,"SoundDuration":120588,"Delta":20228867},{"NoteNumber":69,"Velocity":44,"Duration":122060,"SoundDuration":122060,"Delta":20349456},{"NoteNumber":73,"Velocity":55,"Duration":244120,"SoundDuration":244120,"Delta":20349456},{"NoteNumber":68,"Velocity":39,"Duration":122060,"SoundDuration":122060,"Delta":20471517},{"NoteNumber":69,"Velocity":40,"Duration":122060,"SoundDuration":122060,"Delta":20593577},{"NoteNumber":72,"Velocity":50,"Duration":244120,"SoundDuration":244120,"Delta":20593577},{"NoteNumber":39,"Velocity":44,"Duration":244120,"SoundDuration":244120,"Delta":20593577},{"NoteNumber":65,"Velocity":38,"Duration":122060,"SoundDuration":122060,"Delta":20715637},{"NoteNumber":68,"Velocity":40,"Duration":121812,"SoundDuration":121812,"Delta":20837698},{"NoteNumber":71,"Velocity":50,"Duration":251632,"SoundDuration":251632,"Delta":20837698},{"NoteNumber":40,"Velocity":47,"Duration":251632,"SoundDuration":251632,"Delta":20837698},{"NoteNumber":64,"Velocity":38,"Duration":129819,"SoundDuration":129819,"Delta":20959511},{"NoteNumber":74,"Velocity":74,"Duration":240210,"SoundDuration":240210,"Delta":21089330},{"NoteNumber":71,"Velocity":62,"Duration":120105,"SoundDuration":120105,"Delta":21089330},{"NoteNumber":52,"Velocity":69,"Duration":240210,"SoundDuration":240210,"Delta":21089330},{"NoteNumber":44,"Velocity":58,"Duration":240210,"SoundDuration":240210,"Delta":21089330},{"NoteNumber":64,"Velocity":56,"Duration":120105,"SoundDuration":120105,"Delta":21209436},{"NoteNumber":72,"Velocity":62,"Duration":243625,"SoundDuration":243625,"Delta":21329541},{"NoteNumber":69,"Velocity":62,"Duration":121812,"SoundDuration":121812,"Delta":21329541},{"NoteNumber":45,"Velocity":53,"Duration":243625,"SoundDuration":243625,"Delta":21329541},{"NoteNumber":64,"Velocity":38,"Duration":121812,"SoundDuration":121812,"Delta":21451353},{"NoteNumber":68,"Velocity":40,"Duration":121812,"SoundDuration":121812,"Delta":21573166},{"NoteNumber":71,"Velocity":50,"Duration":251351,"SoundDuration":251351,"Delta":21573166},{"NoteNumber":40,"Velocity":54,"Duration":251351,"SoundDuration":251351,"Delta":21573166},{"NoteNumber":64,"Velocity":38,"Duration":129539,"SoundDuration":129539,"Delta":21694978},{"NoteNumber":76,"Velocity":74,"Duration":240693,"SoundDuration":240693,"Delta":21824518},{"NoteNumber":71,"Velocity":62,"Duration":120346,"SoundDuration":120346,"Delta":21824518},{"NoteNumber":52,"Velocity":69,"Duration":240693,"SoundDuration":240693,"Delta":21824518},{"NoteNumber":44,"Velocity":58,"Duration":240693,"SoundDuration":240693,"Delta":21824518},{"NoteNumber":64,"Velocity":56,"Duration":120346,"SoundDuration":120346,"Delta":21944864},{"NoteNumber":72,"Velocity":62,"Duration":244120,"SoundDuration":244120,"Delta":22065211},{"NoteNumber":69,"Velocity":62,"Duration":122060,"SoundDuration":122060,"Delta":22065211},{"NoteNumber":45,"Velocity":53,"Duration":244120,"SoundDuration":244120,"Delta":22065211},{"NoteNumber":64,"Velocity":38,"Duration":122060,"SoundDuration":122060,"Delta":22187271},{"NoteNumber":68,"Velocity":40,"Duration":122060,"SoundDuration":122060,"Delta":22309332},{"NoteNumber":71,"Velocity":50,"Duration":250216,"SoundDuration":250216,"Delta":22309332},{"NoteNumber":40,"Velocity":54,"Duration":250216,"SoundDuration":250216,"Delta":22309332},{"NoteNumber":64,"Velocity":38,"Duration":128156,"SoundDuration":128156,"Delta":22431392},{"NoteNumber":74,"Velocity":74,"Duration":240693,"SoundDuration":240693,"Delta":22559548},{"NoteNumber":71,"Velocity":62,"Duration":120346,"SoundDuration":120346,"Delta":22559548},{"NoteNumber":52,"Velocity":69,"Duration":240693,"SoundDuration":240693,"Delta":22559548},{"NoteNumber":44,"Velocity":58,"Duration":240693,"SoundDuration":240693,"Delta":22559548},{"NoteNumber":64,"Velocity":56,"Duration":120346,"SoundDuration":120346,"Delta":22679895},{"NoteNumber":72,"Velocity":62,"Duration":243131,"SoundDuration":243131,"Delta":22800241},{"NoteNumber":69,"Velocity":62,"Duration":121566,"SoundDuration":121566,"Delta":22800241},{"NoteNumber":45,"Velocity":53,"Duration":243131,"SoundDuration":243131,"Delta":22800241},{"NoteNumber":64,"Velocity":38,"Duration":121565,"SoundDuration":121565,"Delta":22921808},{"NoteNumber":68,"Velocity":40,"Duration":121566,"SoundDuration":121566,"Delta":23043373},{"NoteNumber":71,"Velocity":50,"Duration":251667,"SoundDuration":251667,"Delta":23043373},{"NoteNumber":40,"Velocity":54,"Duration":251667,"SoundDuration":251667,"Delta":23043373},{"NoteNumber":64,"Velocity":38,"Duration":130100,"SoundDuration":130100,"Delta":23164939},{"NoteNumber":76,"Velocity":74,"Duration":238302,"SoundDuration":238302,"Delta":23295040},{"NoteNumber":71,"Velocity":62,"Duration":119151,"SoundDuration":119151,"Delta":23295040},{"NoteNumber":52,"Velocity":69,"Duration":238302,"SoundDuration":238302,"Delta":23295040},{"NoteNumber":44,"Velocity":58,"Duration":238302,"SoundDuration":238302,"Delta":23295040},{"NoteNumber":64,"Velocity":56,"Duration":119151,"SoundDuration":119151,"Delta":23414192},{"NoteNumber":72,"Velocity":62,"Duration":241662,"SoundDuration":241662,"Delta":23533343},{"NoteNumber":69,"Velocity":62,"Duration":120831,"SoundDuration":120831,"Delta":23533343},{"NoteNumber":45,"Velocity":53,"Duration":241662,"SoundDuration":241662,"Delta":23533343},{"NoteNumber":64,"Velocity":38,"Duration":120831,"SoundDuration":120831,"Delta":23654175},{"NoteNumber":68,"Velocity":40,"Duration":121566,"SoundDuration":121566,"Delta":23775006},{"NoteNumber":71,"Velocity":50,"Duration":121566,"SoundDuration":121566,"Delta":23775006},{"NoteNumber":40,"Velocity":54,"Duration":243131,"SoundDuration":243131,"Delta":23775006},{"NoteNumber":64,"Velocity":38,"Duration":121565,"SoundDuration":121565,"Delta":23896572},{"NoteNumber":63,"Velocity":42,"Duration":122654,"SoundDuration":122654,"Delta":24018138},{"NoteNumber":64,"Velocity":38,"Duration":122654,"SoundDuration":122654,"Delta":24140792},{"NoteNumber":68,"Velocity":42,"Duration":122653,"SoundDuration":122653,"Delta":24263446},{"NoteNumber":64,"Velocity":38,"Duration":122654,"SoundDuration":122654,"Delta":24386100},{"NoteNumber":71,"Velocity":45,"Duration":122654,"SoundDuration":122654,"Delta":24508754},{"NoteNumber":68,"Velocity":45,"Duration":122654,"SoundDuration":122654,"Delta":24631408},{"NoteNumber":67,"Velocity":46,"Duration":122654,"SoundDuration":122654,"Delta":24754062},{"NoteNumber":68,"Velocity":49,"Duration":122653,"SoundDuration":122653,"Delta":24876716},{"NoteNumber":71,"Velocity":50,"Duration":122654,"SoundDuration":122654,"Delta":24999370},{"NoteNumber":68,"Velocity":52,"Duration":122525,"SoundDuration":122525,"Delta":25122024},{"NoteNumber":74,"Velocity":54,"Duration":122154,"SoundDuration":122154,"Delta":25244550},{"NoteNumber":71,"Velocity":54,"Duration":122121,"SoundDuration":122121,"Delta":25366705},{"NoteNumber":77,"Velocity":55,"Duration":121906,"SoundDuration":121906,"Delta":25488826},{"NoteNumber":74,"Velocity":56,"Duration":121904,"SoundDuration":121904,"Delta":25610733},{"NoteNumber":80,"Velocity":59,"Duration":121659,"SoundDuration":121659,"Delta":25732637},{"NoteNumber":77,"Velocity":63,"Duration":121659,"SoundDuration":121659,"Delta":25854297},{"NoteNumber":83,"Velocity":70,"Duration":121659,"SoundDuration":121659,"Delta":25975956},{"NoteNumber":80,"Velocity":62,"Duration":121659,"SoundDuration":121659,"Delta":26097616},{"NoteNumber":86,"Velocity":70,"Duration":121879,"SoundDuration":121879,"Delta":26219275},{"NoteNumber":83,"Velocity":59,"Duration":122188,"SoundDuration":122188,"Delta":26341155},{"NoteNumber":81,"Velocity":65,"Duration":122468,"SoundDuration":122468,"Delta":26463343},{"NoteNumber":40,"Velocity":54,"Duration":245218,"SoundDuration":245218,"Delta":26463343},{"NoteNumber":80,"Velocity":61,"Duration":122750,"SoundDuration":122750,"Delta":26585812},{"NoteNumber":88,"Velocity":69,"Duration":122403,"SoundDuration":122403,"Delta":26708562},{"NoteNumber":45,"Velocity":64,"Duration":979231,"SoundDuration":979231,"Delta":26708562},{"NoteNumber":37,"Velocity":64,"Duration":489616,"SoundDuration":489616,"Delta":26708562},{"NoteNumber":86,"Velocity":63,"Duration":122403,"SoundDuration":122403,"Delta":26830966},{"NoteNumber":85,"Velocity":59,"Duration":122403,"SoundDuration":122403,"Delta":26953370},{"NoteNumber":83,"Velocity":58,"Duration":122404,"SoundDuration":122404,"Delta":27075774},{"NoteNumber":81,"Velocity":56,"Duration":122403,"SoundDuration":122403,"Delta":27198178},{"NoteNumber":80,"Velocity":49,"Duration":122403,"SoundDuration":122403,"Delta":27320582},{"NoteNumber":81,"Velocity":55,"Duration":122403,"SoundDuration":122403,"Delta":27442986},{"NoteNumber":42,"Velocity":58,"Duration":488126,"SoundDuration":488126,"Delta":27442986},{"NoteNumber":78,"Velocity":53,"Duration":122403,"SoundDuration":122403,"Delta":27565390},{"NoteNumber":75,"Velocity":51,"Duration":121659,"SoundDuration":121659,"Delta":27687794},{"NoteNumber":44,"Velocity":62,"Duration":243318,"SoundDuration":243318,"Delta":27687794},{"NoteNumber":71,"Velocity":51,"Duration":121659,"SoundDuration":121659,"Delta":27809454},{"NoteNumber":69,"Velocity":48,"Duration":121659,"SoundDuration":121659,"Delta":27931113},{"NoteNumber":45,"Velocity":70,"Duration":246352,"SoundDuration":246352,"Delta":27931113},{"NoteNumber":66,"Velocity":46,"Duration":124693,"SoundDuration":124693,"Delta":28052773},{"NoteNumber":74,"Velocity":61,"Duration":122403,"SoundDuration":122403,"Delta":28177466},{"NoteNumber":68,"Velocity":61,"Duration":122403,"SoundDuration":122403,"Delta":28177466},{"NoteNumber":47,"Velocity":72,"Duration":734424,"SoundDuration":734424,"Delta":28177466},{"NoteNumber":40,"Velocity":72,"Duration":489616,"SoundDuration":489616,"Delta":28177466},{"NoteNumber":71,"Velocity":51,"Duration":122403,"SoundDuration":122403,"Delta":28299870},{"NoteNumber":68,"Velocity":48,"Duration":122403,"SoundDuration":122403,"Delta":28422274},{"NoteNumber":64,"Velocity":47,"Duration":122404,"SoundDuration":122404,"Delta":28544678},{"NoteNumber":62,"Velocity":46,"Duration":122403,"SoundDuration":122403,"Delta":28667082},{"NoteNumber":59,"Velocity":43,"Duration":122403,"SoundDuration":122403,"Delta":28789486},{"NoteNumber":67,"Velocity":49,"Duration":122403,"SoundDuration":122403,"Delta":28911890},{"NoteNumber":45,"Velocity":54,"Duration":489615,"SoundDuration":489615,"Delta":28911890},{"NoteNumber":49,"Velocity":54,"Duration":739359,"SoundDuration":739359,"Delta":28911890},{"NoteNumber":64,"Velocity":42,"Duration":122403,"SoundDuration":122403,"Delta":29034294},{"NoteNumber":61,"Velocity":45,"Duration":122403,"SoundDuration":122403,"Delta":29156698},{"NoteNumber":57,"Velocity":46,"Duration":122403,"SoundDuration":122403,"Delta":29279102},{"NoteNumber":56,"Velocity":48,"Duration":122403,"SoundDuration":122403,"Delta":29401506},{"NoteNumber":55,"Velocity":52,"Duration":127340,"SoundDuration":127340,"Delta":29523910},{"NoteNumber":54,"Velocity":54,"Duration":121168,"SoundDuration":121168,"Delta":29651250},{"NoteNumber":38,"Velocity":73,"Duration":484671,"SoundDuration":484671,"Delta":29651250},{"NoteNumber":52,"Velocity":73,"Duration":242336,"SoundDuration":242336,"Delta":29651250},{"NoteNumber":58,"Velocity":38,"Duration":121168,"SoundDuration":121168,"Delta":29772418},{"NoteNumber":59,"Velocity":45,"Duration":121167,"SoundDuration":121167,"Delta":29893586},{"NoteNumber":50,"Velocity":62,"Duration":242335,"SoundDuration":242335,"Delta":29893586},{"NoteNumber":54,"Velocity":38,"Duration":121168,"SoundDuration":121168,"Delta":30014754},{"NoteNumber":61,"Velocity":43,"Duration":122154,"SoundDuration":122154,"Delta":30135922},{"NoteNumber":49,"Velocity":54,"Duration":247893,"SoundDuration":247893,"Delta":30135922},{"NoteNumber":54,"Velocity":38,"Duration":125738,"SoundDuration":125738,"Delta":30258077},{"NoteNumber":62,"Velocity":50,"Duration":121413,"SoundDuration":121413,"Delta":30383816},{"NoteNumber":40,"Velocity":66,"Duration":485654,"SoundDuration":485654,"Delta":30383816},{"NoteNumber":47,"Velocity":66,"Duration":242826,"SoundDuration":242826,"Delta":30383816},{"NoteNumber":56,"Velocity":38,"Duration":121413,"SoundDuration":121413,"Delta":30505229},{"NoteNumber":52,"Velocity":43,"Duration":121413,"SoundDuration":121413,"Delta":30626643},{"NoteNumber":49,"Velocity":49,"Duration":242827,"SoundDuration":242827,"Delta":30626643},{"NoteNumber":56,"Velocity":38,"Duration":121413,"SoundDuration":121413,"Delta":30748056},{"NoteNumber":50,"Velocity":45,"Duration":124434,"SoundDuration":124434,"Delta":30869470},{"NoteNumber":47,"Velocity":41,"Duration":252317,"SoundDuration":252317,"Delta":30869470},{"NoteNumber":56,"Velocity":37,"Duration":127882,"SoundDuration":127882,"Delta":30993905},{"NoteNumber":49,"Velocity":45,"Duration":122653,"SoundDuration":122653,"Delta":31121787},{"NoteNumber":45,"Velocity":50,"Duration":1231225,"SoundDuration":1231225,"Delta":31121787},{"NoteNumber":52,"Velocity":33,"Duration":122654,"SoundDuration":122654,"Delta":31244441},{"NoteNumber":57,"Velocity":33,"Duration":122653,"SoundDuration":122653,"Delta":31367095},{"NoteNumber":59,"Velocity":33,"Duration":122654,"SoundDuration":122654,"Delta":31489749},{"NoteNumber":61,"Velocity":33,"Duration":122653,"SoundDuration":122653,"Delta":31612403},{"NoteNumber":64,"Velocity":33,"Duration":122653,"SoundDuration":122653,"Delta":31735057},{"NoteNumber":61,"Velocity":36,"Duration":122654,"SoundDuration":122654,"Delta":31857711},{"NoteNumber":59,"Velocity":31,"Duration":122653,"SoundDuration":122653,"Delta":31980365},{"NoteNumber":57,"Velocity":33,"Duration":122654,"SoundDuration":122654,"Delta":32103019},{"NoteNumber":52,"Velocity":33,"Duration":374670,"SoundDuration":374670,"Delta":32225673},{"NoteNumber":64,"Velocity":50,"Duration":247331,"SoundDuration":247331,"Delta":32353013},{"NoteNumber":49,"Velocity":36,"Duration":123665,"SoundDuration":123665,"Delta":32353013},{"NoteNumber":45,"Velocity":36,"Duration":123665,"SoundDuration":123665,"Delta":32476679},{"NoteNumber":69,"Velocity":65,"Duration":979232,"SoundDuration":979232,"Delta":32600344},{"NoteNumber":57,"Velocity":55,"Duration":979232,"SoundDuration":979232,"Delta":32600344},{"NoteNumber":42,"Velocity":48,"Duration":122404,"SoundDuration":122404,"Delta":32600344},{"NoteNumber":45,"Velocity":36,"Duration":122403,"SoundDuration":122403,"Delta":32722748},{"NoteNumber":47,"Velocity":36,"Duration":122404,"SoundDuration":122404,"Delta":32845152},{"NoteNumber":49,"Velocity":36,"Duration":122403,"SoundDuration":122403,"Delta":32967556},{"NoteNumber":47,"Velocity":37,"Duration":122404,"SoundDuration":122404,"Delta":33089960},{"NoteNumber":45,"Velocity":37,"Duration":122403,"SoundDuration":122403,"Delta":33212364},{"NoteNumber":51,"Velocity":47,"Duration":122404,"SoundDuration":122404,"Delta":33334768},{"NoteNumber":42,"Velocity":37,"Duration":122404,"SoundDuration":122404,"Delta":33457172},{"NoteNumber":68,"Velocity":69,"Duration":243318,"SoundDuration":243318,"Delta":33579576},{"NoteNumber":56,"Velocity":58,"Duration":243318,"SoundDuration":243318,"Delta":33579576},{"NoteNumber":44,"Velocity":51,"Duration":121659,"SoundDuration":121659,"Delta":33579576},{"NoteNumber":45,"Velocity":45,"Duration":121659,"SoundDuration":121659,"Delta":33701236},{"NoteNumber":57,"Velocity":62,"Duration":246352,"SoundDuration":246352,"Delta":33822895},{"NoteNumber":69,"Velocity":74,"Duration":246352,"SoundDuration":246352,"Delta":33822895},{"NoteNumber":44,"Velocity":56,"Duration":121659,"SoundDuration":121659,"Delta":33822895},{"NoteNumber":42,"Velocity":50,"Duration":124693,"SoundDuration":124693,"Delta":33944555},{"NoteNumber":71,"Velocity":84,"Duration":734423,"SoundDuration":734423,"Delta":34069248},{"NoteNumber":59,"Velocity":71,"Duration":734423,"SoundDuration":734423,"Delta":34069248},{"NoteNumber":40,"Velocity":65,"Duration":122404,"SoundDuration":122404,"Delta":34069248},{"NoteNumber":50,"Velocity":38,"Duration":122403,"SoundDuration":122403,"Delta":34191652},{"NoteNumber":52,"Velocity":52,"Duration":122404,"SoundDuration":122404,"Delta":34314056},{"NoteNumber":54,"Velocity":39,"Duration":122403,"SoundDuration":122403,"Delta":34436460},{"NoteNumber":52,"Velocity":51,"Duration":122404,"SoundDuration":122404,"Delta":34558864},{"NoteNumber":50,"Velocity":47,"Duration":122403,"SoundDuration":122403,"Delta":34681268},{"NoteNumber":73,"Velocity":77,"Duration":739359,"SoundDuration":739359,"Delta":34803672},{"NoteNumber":61,"Velocity":65,"Duration":739359,"SoundDuration":739359,"Delta":34803672},{"NoteNumber":55,"Velocity":67,"Duration":122404,"SoundDuration":122404,"Delta":34803672},{"NoteNumber":45,"Velocity":67,"Duration":122404,"SoundDuration":122404,"Delta":34803672},{"NoteNumber":52,"Velocity":49,"Duration":122404,"SoundDuration":122404,"Delta":34926076},{"NoteNumber":49,"Velocity":54,"Duration":122403,"SoundDuration":122403,"Delta":35048480},{"NoteNumber":47,"Velocity":47,"Duration":122404,"SoundDuration":122404,"Delta":35170884},{"NoteNumber":43,"Velocity":57,"Duration":122403,"SoundDuration":122403,"Delta":35293288},{"NoteNumber":40,"Velocity":53,"Duration":127339,"SoundDuration":127339,"Delta":35415692},{"NoteNumber":76,"Velocity":89,"Duration":242336,"SoundDuration":242336,"Delta":35543032},{"NoteNumber":73,"Velocity":89,"Duration":242336,"SoundDuration":242336,"Delta":35543032},{"NoteNumber":64,"Velocity":75,"Duration":242336,"SoundDuration":242336,"Delta":35543032},{"NoteNumber":38,"Velocity":72,"Duration":121167,"SoundDuration":121167,"Delta":35543032},{"NoteNumber":42,"Velocity":51,"Duration":121168,"SoundDuration":121168,"Delta":35664200},{"NoteNumber":74,"Velocity":76,"Duration":242336,"SoundDuration":242336,"Delta":35785368},{"NoteNumber":71,"Velocity":76,"Duration":242336,"SoundDuration":242336,"Delta":35785368},{"NoteNumber":62,"Velocity":63,"Duration":242336,"SoundDuration":242336,"Delta":35785368},{"NoteNumber":44,"Velocity":58,"Duration":121167,"SoundDuration":121167,"Delta":35785368},{"NoteNumber":45,"Velocity":48,"Duration":121168,"SoundDuration":121168,"Delta":35906536},{"NoteNumber":73,"Velocity":70,"Duration":247893,"SoundDuration":247893,"Delta":36027704},{"NoteNumber":69,"Velocity":70,"Duration":247893,"SoundDuration":247893,"Delta":36027704},{"NoteNumber":61,"Velocity":59,"Duration":247893,"SoundDuration":247893,"Delta":36027704},{"NoteNumber":47,"Velocity":55,"Duration":122154,"SoundDuration":122154,"Delta":36027704},{"NoteNumber":49,"Velocity":47,"Duration":125738,"SoundDuration":125738,"Delta":36149859},{"NoteNumber":71,"Velocity":82,"Duration":242826,"SoundDuration":242826,"Delta":36275598},{"NoteNumber":68,"Velocity":82,"Duration":242826,"SoundDuration":242826,"Delta":36275598},{"NoteNumber":59,"Velocity":70,"Duration":242826,"SoundDuration":242826,"Delta":36275598},{"NoteNumber":50,"Velocity":64,"Duration":121413,"SoundDuration":121413,"Delta":36275598},{"NoteNumber":40,"Velocity":64,"Duration":121413,"SoundDuration":121413,"Delta":36275598},{"NoteNumber":49,"Velocity":49,"Duration":121413,"SoundDuration":121413,"Delta":36397011},{"NoteNumber":73,"Velocity":75,"Duration":242826,"SoundDuration":242826,"Delta":36518425},{"NoteNumber":61,"Velocity":62,"Duration":242826,"SoundDuration":242826,"Delta":36518425},{"NoteNumber":50,"Velocity":55,"Duration":121413,"SoundDuration":121413,"Delta":36518425},{"NoteNumber":47,"Velocity":48,"Duration":121413,"SoundDuration":121413,"Delta":36639838},{"NoteNumber":71,"Velocity":68,"Duration":252317,"SoundDuration":252317,"Delta":36761252},{"NoteNumber":59,"Velocity":57,"Duration":252317,"SoundDuration":252317,"Delta":36761252},{"NoteNumber":52,"Velocity":54,"Duration":124434,"SoundDuration":124434,"Delta":36761252},{"NoteNumber":50,"Velocity":41,"Duration":127882,"SoundDuration":127882,"Delta":36885687},{"NoteNumber":69,"Velocity":90,"Duration":490616,"SoundDuration":490616,"Delta":37013569},{"NoteNumber":57,"Velocity":77,"Duration":490616,"SoundDuration":490616,"Delta":37013569},{"NoteNumber":49,"Velocity":60,"Duration":122653,"SoundDuration":122653,"Delta":37013569},{"NoteNumber":45,"Velocity":60,"Duration":122653,"SoundDuration":122653,"Delta":37013569},{"NoteNumber":52,"Velocity":54,"Duration":122654,"SoundDuration":122654,"Delta":37136223},{"NoteNumber":50,"Velocity":54,"Duration":122653,"SoundDuration":122653,"Delta":37258877},{"NoteNumber":49,"Velocity":54,"Duration":122654,"SoundDuration":122654,"Delta":37381531},{"NoteNumber":81,"Velocity":86,"Duration":245307,"SoundDuration":245307,"Delta":37504185},{"NoteNumber":69,"Velocity":73,"Duration":245307,"SoundDuration":245307,"Delta":37504185},{"NoteNumber":47,"Velocity":54,"Duration":122653,"SoundDuration":122653,"Delta":37504185},{"NoteNumber":45,"Velocity":51,"Duration":122653,"SoundDuration":122653,"Delta":37626839},{"NoteNumber":83,"Velocity":91,"Duration":490616,"SoundDuration":490616,"Delta":37749493},{"NoteNumber":71,"Velocity":77,"Duration":490616,"SoundDuration":490616,"Delta":37749493},{"NoteNumber":44,"Velocity":55,"Duration":122654,"SoundDuration":122654,"Delta":37749493},{"NoteNumber":45,"Velocity":55,"Duration":122653,"SoundDuration":122653,"Delta":37872147},{"NoteNumber":43,"Velocity":57,"Duration":122654,"SoundDuration":122654,"Delta":37994801},{"NoteNumber":45,"Velocity":60,"Duration":122653,"SoundDuration":122653,"Delta":38117455},{"NoteNumber":85,"Velocity":95,"Duration":245308,"SoundDuration":245308,"Delta":38240109},{"NoteNumber":73,"Velocity":80,"Duration":245308,"SoundDuration":245308,"Delta":38240109},{"NoteNumber":42,"Velocity":61,"Duration":122653,"SoundDuration":122653,"Delta":38240109},{"NoteNumber":46,"Velocity":65,"Duration":122654,"SoundDuration":122654,"Delta":38362763},{"NoteNumber":76,"Velocity":82,"Duration":242336,"SoundDuration":242336,"Delta":38485417},{"NoteNumber":85,"Velocity":97,"Duration":242336,"SoundDuration":242336,"Delta":38485417},{"NoteNumber":88,"Velocity":97,"Duration":242336,"SoundDuration":242336,"Delta":38485417},{"NoteNumber":38,"Velocity":75,"Duration":121167,"SoundDuration":121167,"Delta":38485417},{"NoteNumber":42,"Velocity":53,"Duration":121168,"SoundDuration":121168,"Delta":38606585},{"NoteNumber":74,"Velocity":75,"Duration":242336,"SoundDuration":242336,"Delta":38727753},{"NoteNumber":83,"Velocity":89,"Duration":242336,"SoundDuration":242336,"Delta":38727753},{"NoteNumber":86,"Velocity":89,"Duration":242336,"SoundDuration":242336,"Delta":38727753},{"NoteNumber":44,"Velocity":62,"Duration":121167,"SoundDuration":121167,"Delta":38727753},{"NoteNumber":45,"Velocity":50,"Duration":121168,"SoundDuration":121168,"Delta":38848921},{"NoteNumber":73,"Velocity":69,"Duration":247893,"SoundDuration":247893,"Delta":38970089},{"NoteNumber":81,"Velocity":82,"Duration":247893,"SoundDuration":247893,"Delta":38970089},{"NoteNumber":85,"Velocity":82,"Duration":247893,"SoundDuration":247893,"Delta":38970089},{"NoteNumber":47,"Velocity":65,"Duration":122154,"SoundDuration":122154,"Delta":38970089},{"NoteNumber":49,"Velocity":49,"Duration":125738,"SoundDuration":125738,"Delta":39092244},{"NoteNumber":71,"Velocity":80,"Duration":242826,"SoundDuration":242826,"Delta":39217983},{"NoteNumber":80,"Velocity":95,"Duration":242826,"SoundDuration":242826,"Delta":39217983},{"NoteNumber":83,"Velocity":95,"Duration":242826,"SoundDuration":242826,"Delta":39217983},{"NoteNumber":50,"Velocity":73,"Duration":121413,"SoundDuration":121413,"Delta":39217983},{"NoteNumber":40,"Velocity":51,"Duration":121413,"SoundDuration":121413,"Delta":39339396},{"NoteNumber":73,"Velocity":75,"Duration":242826,"SoundDuration":242826,"Delta":39460810},{"NoteNumber":85,"Velocity":89,"Duration":242826,"SoundDuration":242826,"Delta":39460810},{"NoteNumber":52,"Velocity":64,"Duration":121413,"SoundDuration":121413,"Delta":39460810},{"NoteNumber":40,"Velocity":50,"Duration":121413,"SoundDuration":121413,"Delta":39582223},{"NoteNumber":71,"Velocity":68,"Duration":252317,"SoundDuration":252317,"Delta":39703637},{"NoteNumber":83,"Velocity":80,"Duration":252317,"SoundDuration":252317,"Delta":39703637},{"NoteNumber":50,"Velocity":56,"Duration":124434,"SoundDuration":124434,"Delta":39703637},{"NoteNumber":40,"Velocity":43,"Duration":127882,"SoundDuration":127882,"Delta":39828072},{"NoteNumber":69,"Velocity":79,"Duration":246575,"SoundDuration":246575,"Delta":39955954},{"NoteNumber":81,"Velocity":93,"Duration":246575,"SoundDuration":246575,"Delta":39955954},{"NoteNumber":45,"Velocity":63,"Duration":860468,"SoundDuration":860468,"Delta":39955954},{"NoteNumber":49,"Velocity":48,"Duration":123249,"SoundDuration":123249,"Delta":40079280},{"NoteNumber":76,"Velocity":80,"Duration":245931,"SoundDuration":245931,"Delta":40202530},{"NoteNumber":80,"Velocity":80,"Duration":245931,"SoundDuration":245931,"Delta":40202530},{"NoteNumber":50,"Velocity":50,"Duration":123060,"SoundDuration":123060,"Delta":40202530},{"NoteNumber":52,"Velocity":46,"Duration":122870,"SoundDuration":122870,"Delta":40325590},{"NoteNumber":74,"Velocity":77,"Duration":245308,"SoundDuration":245308,"Delta":40448461},{"NoteNumber":78,"Velocity":77,"Duration":245308,"SoundDuration":245308,"Delta":40448461},{"NoteNumber":54,"Velocity":47,"Duration":122653,"SoundDuration":122653,"Delta":40448461},{"NoteNumber":50,"Velocity":45,"Duration":122654,"SoundDuration":122654,"Delta":40571115},{"NoteNumber":73,"Velocity":72,"Duration":245308,"SoundDuration":245308,"Delta":40693769},{"NoteNumber":76,"Velocity":72,"Duration":245308,"SoundDuration":245308,"Delta":40693769},{"NoteNumber":52,"Velocity":45,"Duration":122653,"SoundDuration":122653,"Delta":40693769},{"NoteNumber":54,"Velocity":41,"Duration":122654,"SoundDuration":122654,"Delta":40816423},{"NoteNumber":72,"Velocity":70,"Duration":245307,"SoundDuration":245307,"Delta":40939077},{"NoteNumber":75,"Velocity":70,"Duration":245307,"SoundDuration":245307,"Delta":40939077},{"NoteNumber":56,"Velocity":43,"Duration":122653,"SoundDuration":122653,"Delta":40939077},{"NoteNumber":52,"Velocity":41,"Duration":122653,"SoundDuration":122653,"Delta":41061731},{"NoteNumber":71,"Velocity":70,"Duration":245304,"SoundDuration":245304,"Delta":41184385},{"NoteNumber":74,"Velocity":70,"Duration":245304,"SoundDuration":245304,"Delta":41184385},{"NoteNumber":54,"Velocity":42,"Duration":122654,"SoundDuration":122654,"Delta":41184385},{"NoteNumber":56,"Velocity":37,"Duration":122650,"SoundDuration":122650,"Delta":41307039},{"NoteNumber":73,"Velocity":74,"Duration":122653,"SoundDuration":122653,"Delta":41429690},{"NoteNumber":69,"Velocity":65,"Duration":122653,"SoundDuration":122653,"Delta":41429690},{"NoteNumber":57,"Velocity":42,"Duration":122653,"SoundDuration":122653,"Delta":41429690},{"NoteNumber":74,"Velocity":57,"Duration":93520,"SoundDuration":93520,"Delta":41674998},{"NoteNumber":69,"Velocity":50,"Duration":93520,"SoundDuration":93520,"Delta":41674998},{"NoteNumber":66,"Velocity":38,"Duration":93520,"SoundDuration":93520,"Delta":41674998},{"NoteNumber":73,"Velocity":51,"Duration":94303,"SoundDuration":94303,"Delta":41924385},{"NoteNumber":69,"Velocity":45,"Duration":94303,"SoundDuration":94303,"Delta":41924385},{"NoteNumber":64,"Velocity":32,"Duration":94303,"SoundDuration":94303,"Delta":41924385},{"NoteNumber":69,"Velocity":50,"Duration":94303,"SoundDuration":94303,"Delta":42175862},{"NoteNumber":66,"Velocity":50,"Duration":94303,"SoundDuration":94303,"Delta":42175862},{"NoteNumber":71,"Velocity":57,"Duration":94303,"SoundDuration":94303,"Delta":42175862},{"NoteNumber":63,"Velocity":38,"Duration":94303,"SoundDuration":94303,"Delta":42175862},{"NoteNumber":68,"Velocity":65,"Duration":124434,"SoundDuration":124434,"Delta":42695089},{"NoteNumber":76,"Velocity":74,"Duration":124434,"SoundDuration":124434,"Delta":42695089},{"NoteNumber":62,"Velocity":38,"Duration":124434,"SoundDuration":124434,"Delta":42695089},{"NoteNumber":69,"Velocity":67,"Duration":246575,"SoundDuration":246575,"Delta":42943959},{"NoteNumber":81,"Velocity":79,"Duration":246575,"SoundDuration":246575,"Delta":42943959},{"NoteNumber":57,"Velocity":63,"Duration":859693,"SoundDuration":859693,"Delta":42943959},{"NoteNumber":61,"Velocity":48,"Duration":123249,"SoundDuration":123249,"Delta":43067285},{"NoteNumber":76,"Velocity":57,"Duration":245931,"SoundDuration":245931,"Delta":43190534},{"NoteNumber":80,"Velocity":68,"Duration":245931,"SoundDuration":245931,"Delta":43190534},{"NoteNumber":62,"Velocity":50,"Duration":123060,"SoundDuration":123060,"Delta":43190534},{"NoteNumber":64,"Velocity":46,"Duration":122870,"SoundDuration":122870,"Delta":43313595},{"NoteNumber":74,"Velocity":55,"Duration":245174,"SoundDuration":245174,"Delta":43436465},{"NoteNumber":78,"Velocity":65,"Duration":245174,"SoundDuration":245174,"Delta":43436465},{"NoteNumber":66,"Velocity":47,"Duration":122653,"SoundDuration":122653,"Delta":43436465},{"NoteNumber":62,"Velocity":45,"Duration":122520,"SoundDuration":122520,"Delta":43559119},{"NoteNumber":73,"Velocity":51,"Duration":244413,"SoundDuration":244413,"Delta":43681640},{"NoteNumber":76,"Velocity":61,"Duration":244413,"SoundDuration":244413,"Delta":43681640},{"NoteNumber":64,"Velocity":45,"Duration":122013,"SoundDuration":122013,"Delta":43681640},{"NoteNumber":66,"Velocity":41,"Duration":122400,"SoundDuration":122400,"Delta":43803653},{"NoteNumber":72,"Velocity":50,"Duration":245915,"SoundDuration":245915,"Delta":43926053},{"NoteNumber":75,"Velocity":59,"Duration":245915,"SoundDuration":245915,"Delta":43926053},{"NoteNumber":68,"Velocity":43,"Duration":122761,"SoundDuration":122761,"Delta":43926053},{"NoteNumber":64,"Velocity":41,"Duration":123153,"SoundDuration":123153,"Delta":44048815},{"NoteNumber":71,"Velocity":50,"Duration":247414,"SoundDuration":247414,"Delta":44171969},{"NoteNumber":74,"Velocity":59,"Duration":247414,"SoundDuration":247414,"Delta":44171969},{"NoteNumber":66,"Velocity":42,"Duration":123520,"SoundDuration":123520,"Delta":44171969},{"NoteNumber":68,"Velocity":37,"Duration":123894,"SoundDuration":123894,"Delta":44295489},{"NoteNumber":69,"Velocity":56,"Duration":871139,"SoundDuration":871139,"Delta":44419384},{"NoteNumber":73,"Velocity":47,"Duration":133279,"SoundDuration":133279,"Delta":44543305},{"NoteNumber":74,"Velocity":47,"Duration":123060,"SoundDuration":123060,"Delta":44676585},{"NoteNumber":64,"Velocity":54,"Duration":245931,"SoundDuration":245931,"Delta":44676585},{"NoteNumber":68,"Velocity":64,"Duration":245931,"SoundDuration":245931,"Delta":44676585},{"NoteNumber":76,"Velocity":47,"Duration":122870,"SoundDuration":122870,"Delta":44799645},{"NoteNumber":78,"Velocity":51,"Duration":122653,"SoundDuration":122653,"Delta":44922516},{"NoteNumber":62,"Velocity":51,"Duration":245307,"SoundDuration":245307,"Delta":44922516},{"NoteNumber":66,"Velocity":61,"Duration":245307,"SoundDuration":245307,"Delta":44922516},{"NoteNumber":74,"Velocity":47,"Duration":122653,"SoundDuration":122653,"Delta":45045170},{"NoteNumber":76,"Velocity":50,"Duration":122699,"SoundDuration":122699,"Delta":45167824},{"NoteNumber":61,"Velocity":48,"Duration":245712,"SoundDuration":245712,"Delta":45167824},{"NoteNumber":64,"Velocity":57,"Duration":245712,"SoundDuration":245712,"Delta":45167824},{"NoteNumber":78,"Velocity":47,"Duration":123013,"SoundDuration":123013,"Delta":45290523},{"NoteNumber":80,"Velocity":49,"Duration":123329,"SoundDuration":123329,"Delta":45413537},{"NoteNumber":60,"Velocity":47,"Duration":247023,"SoundDuration":247023,"Delta":45413537},{"NoteNumber":63,"Velocity":56,"Duration":247023,"SoundDuration":247023,"Delta":45413537},{"NoteNumber":76,"Velocity":47,"Duration":123693,"SoundDuration":123693,"Delta":45536866},{"NoteNumber":78,"Velocity":50,"Duration":124031,"SoundDuration":124031,"Delta":45660560},{"NoteNumber":59,"Velocity":47,"Duration":248383,"SoundDuration":248383,"Delta":45660560},{"NoteNumber":62,"Velocity":56,"Duration":248383,"SoundDuration":248383,"Delta":45660560},{"NoteNumber":80,"Velocity":47,"Duration":124352,"SoundDuration":124352,"Delta":45784591},{"NoteNumber":81,"Velocity":50,"Duration":124721,"SoundDuration":124721,"Delta":45908943},{"NoteNumber":57,"Velocity":47,"Duration":259802,"SoundDuration":259802,"Delta":45908943},{"NoteNumber":61,"Velocity":56,"Duration":259802,"SoundDuration":259802,"Delta":45908943},{"NoteNumber":85,"Velocity":51,"Duration":135080,"SoundDuration":135080,"Delta":46033665},{"NoteNumber":86,"Velocity":51,"Duration":122905,"SoundDuration":122905,"Delta":46168745},{"NoteNumber":52,"Velocity":48,"Duration":245776,"SoundDuration":245776,"Delta":46168745},{"NoteNumber":56,"Velocity":57,"Duration":245776,"SoundDuration":245776,"Delta":46168745},{"NoteNumber":88,"Velocity":50,"Duration":122870,"SoundDuration":122870,"Delta":46291651},{"NoteNumber":90,"Velocity":54,"Duration":122653,"SoundDuration":122653,"Delta":46414522},{"NoteNumber":50,"Velocity":44,"Duration":245308,"SoundDuration":245308,"Delta":46414522},{"NoteNumber":54,"Velocity":53,"Duration":245308,"SoundDuration":245308,"Delta":46414522},{"NoteNumber":86,"Velocity":48,"Duration":122654,"SoundDuration":122654,"Delta":46537176},{"NoteNumber":88,"Velocity":50,"Duration":122653,"SoundDuration":122653,"Delta":46659830},{"NoteNumber":49,"Velocity":40,"Duration":245308,"SoundDuration":245308,"Delta":46659830},{"NoteNumber":52,"Velocity":48,"Duration":245308,"SoundDuration":245308,"Delta":46659830},{"NoteNumber":90,"Velocity":47,"Duration":122654,"SoundDuration":122654,"Delta":46782484},{"NoteNumber":92,"Velocity":47,"Duration":122653,"SoundDuration":122653,"Delta":46905138},{"NoteNumber":48,"Velocity":39,"Duration":245307,"SoundDuration":245307,"Delta":46905138},{"NoteNumber":51,"Velocity":46,"Duration":245307,"SoundDuration":245307,"Delta":46905138},{"NoteNumber":88,"Velocity":45,"Duration":122653,"SoundDuration":122653,"Delta":47027792},{"NoteNumber":90,"Velocity":47,"Duration":122654,"SoundDuration":122654,"Delta":47150446},{"NoteNumber":47,"Velocity":37,"Duration":249188,"SoundDuration":249188,"Delta":47150446},{"NoteNumber":50,"Velocity":44,"Duration":249188,"SoundDuration":249188,"Delta":47150446},{"NoteNumber":92,"Velocity":44,"Duration":126533,"SoundDuration":126533,"Delta":47273100},{"NoteNumber":93,"Velocity":52,"Duration":119956,"SoundDuration":119956,"Delta":47399634},{"NoteNumber":45,"Velocity":39,"Duration":723348,"SoundDuration":723348,"Delta":47399634},{"NoteNumber":49,"Velocity":43,"Duration":723348,"SoundDuration":723348,"Delta":47399634},{"NoteNumber":88,"Velocity":52,"Duration":120324,"SoundDuration":120324,"Delta":47519591},{"NoteNumber":85,"Velocity":48,"Duration":120502,"SoundDuration":120502,"Delta":47639915},{"NoteNumber":81,"Velocity":48,"Duration":120680,"SoundDuration":120680,"Delta":47760417},{"NoteNumber":76,"Velocity":48,"Duration":120866,"SoundDuration":120866,"Delta":47881097},{"NoteNumber":73,"Velocity":48,"Duration":121018,"SoundDuration":121018,"Delta":48001963},{"NoteNumber":69,"Velocity":46,"Duration":121168,"SoundDuration":121168,"Delta":48122982},{"NoteNumber":64,"Velocity":45,"Duration":121385,"SoundDuration":121385,"Delta":48244150},{"NoteNumber":61,"Velocity":43,"Duration":121508,"SoundDuration":121508,"Delta":48365536},{"NoteNumber":57,"Velocity":42,"Duration":133725,"SoundDuration":133725,"Delta":48487045},{"NoteNumber":61,"Velocity":50,"Duration":232567,"SoundDuration":232567,"Delta":48620770},{"NoteNumber":57,"Velocity":40,"Duration":122403,"SoundDuration":122403,"Delta":48743174},{"NoteNumber":61,"Velocity":50,"Duration":492066,"SoundDuration":492066,"Delta":48865578},{"NoteNumber":30,"Velocity":40,"Duration":492066,"SoundDuration":492066,"Delta":48865578},{"NoteNumber":42,"Velocity":48,"Duration":492066,"SoundDuration":492066,"Delta":48865578},{"NoteNumber":56,"Velocity":37,"Duration":122403,"SoundDuration":122403,"Delta":48987982},{"NoteNumber":57,"Velocity":42,"Duration":122404,"SoundDuration":122404,"Delta":49110386},{"NoteNumber":54,"Velocity":34,"Duration":124854,"SoundDuration":124854,"Delta":49232790},{"NoteNumber":66,"Velocity":54,"Duration":232862,"SoundDuration":232862,"Delta":49357645},{"NoteNumber":61,"Velocity":39,"Duration":122558,"SoundDuration":122558,"Delta":49480204},{"NoteNumber":66,"Velocity":55,"Duration":490236,"SoundDuration":490236,"Delta":49602763},{"NoteNumber":42,"Velocity":40,"Duration":490236,"SoundDuration":490236,"Delta":49602763},{"NoteNumber":54,"Velocity":48,"Duration":490236,"SoundDuration":490236,"Delta":49602763},{"NoteNumber":60,"Velocity":45,"Duration":122559,"SoundDuration":122559,"Delta":49725322},{"NoteNumber":61,"Velocity":55,"Duration":122558,"SoundDuration":122558,"Delta":49847881},{"NoteNumber":57,"Velocity":46,"Duration":122559,"SoundDuration":122559,"Delta":49970440},{"NoteNumber":69,"Velocity":66,"Duration":247935,"SoundDuration":247935,"Delta":50092999},{"NoteNumber":66,"Velocity":55,"Duration":125376,"SoundDuration":125376,"Delta":50215558},{"NoteNumber":74,"Velocity":73,"Duration":490236,"SoundDuration":490236,"Delta":50340934},{"NoteNumber":62,"Velocity":60,"Duration":490236,"SoundDuration":490236,"Delta":50340934},{"NoteNumber":57,"Velocity":50,"Duration":1103031,"SoundDuration":1103031,"Delta":50340934},{"NoteNumber":54,"Velocity":50,"Duration":1103031,"SoundDuration":1103031,"Delta":50340934},{"NoteNumber":68,"Velocity":56,"Duration":122558,"SoundDuration":122558,"Delta":50463493},{"NoteNumber":69,"Velocity":61,"Duration":122559,"SoundDuration":122559,"Delta":50586052},{"NoteNumber":66,"Velocity":56,"Duration":122559,"SoundDuration":122559,"Delta":50708611},{"NoteNumber":73,"Velocity":68,"Duration":245117,"SoundDuration":245117,"Delta":50831170},{"NoteNumber":61,"Velocity":48,"Duration":245117,"SoundDuration":245117,"Delta":50831170},{"NoteNumber":69,"Velocity":49,"Duration":122559,"SoundDuration":122559,"Delta":50953729},{"NoteNumber":72,"Velocity":68,"Duration":485129,"SoundDuration":485129,"Delta":51076288},{"NoteNumber":60,"Velocity":54,"Duration":490235,"SoundDuration":490235,"Delta":51076288},{"NoteNumber":68,"Velocity":50,"Duration":122558,"SoundDuration":122558,"Delta":51198847},{"NoteNumber":69,"Velocity":55,"Duration":122559,"SoundDuration":122559,"Delta":51321406},{"NoteNumber":66,"Velocity":45,"Duration":122558,"SoundDuration":122558,"Delta":51443965},{"NoteNumber":72,"Velocity":51,"Duration":247673,"SoundDuration":247673,"Delta":51566524},{"NoteNumber":57,"Velocity":39,"Duration":247673,"SoundDuration":247673,"Delta":51566524},{"NoteNumber":54,"Velocity":33,"Duration":247673,"SoundDuration":247673,"Delta":51566524},{"NoteNumber":69,"Velocity":33,"Duration":125114,"SoundDuration":125114,"Delta":51689083},{"NoteNumber":73,"Velocity":56,"Duration":490236,"SoundDuration":490236,"Delta":51814197},{"NoteNumber":53,"Velocity":40,"Duration":245117,"SoundDuration":245117,"Delta":51814197},{"NoteNumber":56,"Velocity":48,"Duration":245117,"SoundDuration":245117,"Delta":51814197},{"NoteNumber":68,"Velocity":43,"Duration":122558,"SoundDuration":122558,"Delta":51936756},{"NoteNumber":61,"Velocity":46,"Duration":122559,"SoundDuration":122559,"Delta":52059315},{"NoteNumber":63,"Velocity":42,"Duration":122559,"SoundDuration":122559,"Delta":52181874},{"NoteNumber":65,"Velocity":40,"Duration":122558,"SoundDuration":122558,"Delta":52304433},{"NoteNumber":71,"Velocity":50,"Duration":209371,"SoundDuration":209371,"Delta":52304433},{"NoteNumber":49,"Velocity":38,"Duration":245117,"SoundDuration":245117,"Delta":52304433},{"NoteNumber":37,"Velocity":32,"Duration":245117,"SoundDuration":245117,"Delta":52304433},{"NoteNumber":61,"Velocity":38,"Duration":122559,"SoundDuration":122559,"Delta":52426992},{"NoteNumber":71,"Velocity":43,"Duration":30639,"SoundDuration":30639,"Delta":52518911},{"NoteNumber":66,"Velocity":44,"Duration":122559,"SoundDuration":122559,"Delta":52549551},{"NoteNumber":69,"Velocity":55,"Duration":122559,"SoundDuration":122559,"Delta":52549551},{"NoteNumber":42,"Velocity":40,"Duration":241474,"SoundDuration":241474,"Delta":52549551},{"NoteNumber":54,"Velocity":48,"Duration":241474,"SoundDuration":241474,"Delta":52549551},{"NoteNumber":61,"Velocity":46,"Duration":118915,"SoundDuration":118915,"Delta":52672110},{"NoteNumber":65,"Velocity":50,"Duration":118915,"SoundDuration":118915,"Delta":52791026},{"NoteNumber":68,"Velocity":63,"Duration":118915,"SoundDuration":118915,"Delta":52791026},{"NoteNumber":61,"Velocity":54,"Duration":118915,"SoundDuration":118915,"Delta":52909941},{"NoteNumber":66,"Velocity":55,"Duration":118915,"SoundDuration":118915,"Delta":53028857},{"NoteNumber":69,"Velocity":69,"Duration":118915,"SoundDuration":118915,"Delta":53028857},{"NoteNumber":61,"Velocity":57,"Duration":124594,"SoundDuration":124594,"Delta":53147772},{"NoteNumber":66,"Velocity":55,"Duration":122559,"SoundDuration":122559,"Delta":53272367},{"NoteNumber":69,"Velocity":69,"Duration":245117,"SoundDuration":245117,"Delta":53272367},{"NoteNumber":73,"Velocity":76,"Duration":245117,"SoundDuration":245117,"Delta":53272367},{"NoteNumber":35,"Velocity":40,"Duration":245117,"SoundDuration":245117,"Delta":53272367},{"NoteNumber":47,"Velocity":48,"Duration":245117,"SoundDuration":245117,"Delta":53272367},{"NoteNumber":62,"Velocity":54,"Duration":122558,"SoundDuration":122558,"Delta":53394926},{"NoteNumber":68,"Velocity":48,"Duration":122559,"SoundDuration":122559,"Delta":53517485},{"NoteNumber":71,"Velocity":61,"Duration":245118,"SoundDuration":245118,"Delta":53517485},{"NoteNumber":62,"Velocity":49,"Duration":122559,"SoundDuration":122559,"Delta":53640044},{"NoteNumber":66,"Velocity":40,"Duration":126432,"SoundDuration":126432,"Delta":53762603},{"NoteNumber":69,"Velocity":50,"Duration":126432,"SoundDuration":126432,"Delta":53762603},{"NoteNumber":62,"Velocity":41,"Duration":122559,"SoundDuration":122559,"Delta":53889036},{"NoteNumber":66,"Velocity":44,"Duration":122558,"SoundDuration":122558,"Delta":54011595},{"NoteNumber":69,"Velocity":56,"Duration":245117,"SoundDuration":245117,"Delta":54011595},{"NoteNumber":49,"Velocity":41,"Duration":245117,"SoundDuration":245117,"Delta":54011595},{"NoteNumber":37,"Velocity":34,"Duration":245117,"SoundDuration":245117,"Delta":54011595},{"NoteNumber":61,"Velocity":45,"Duration":122559,"SoundDuration":122559,"Delta":54134154},{"NoteNumber":65,"Velocity":40,"Duration":122559,"SoundDuration":122559,"Delta":54256713},{"NoteNumber":68,"Velocity":50,"Duration":252553,"SoundDuration":252553,"Delta":54256713},{"NoteNumber":59,"Velocity":43,"Duration":129994,"SoundDuration":129994,"Delta":54379272},{"NoteNumber":61,"Velocity":50,"Duration":232862,"SoundDuration":232862,"Delta":54509266},{"NoteNumber":57,"Velocity":40,"Duration":122558,"SoundDuration":122558,"Delta":54631825},{"NoteNumber":61,"Velocity":56,"Duration":493315,"SoundDuration":493315,"Delta":54754384},{"NoteNumber":30,"Velocity":40,"Duration":493315,"SoundDuration":493315,"Delta":54754384},{"NoteNumber":42,"Velocity":48,"Duration":493315,"SoundDuration":493315,"Delta":54754384},{"NoteNumber":56,"Velocity":37,"Duration":122559,"SoundDuration":122559,"Delta":54876943},{"NoteNumber":57,"Velocity":42,"Duration":122558,"SoundDuration":122558,"Delta":54999502},{"NoteNumber":54,"Velocity":34,"Duration":125638,"SoundDuration":125638,"Delta":55122061},{"NoteNumber":66,"Velocity":54,"Duration":232387,"SoundDuration":232387,"Delta":55247700},{"NoteNumber":61,"Velocity":39,"Duration":122309,"SoundDuration":122309,"Delta":55370009},{"NoteNumber":66,"Velocity":55,"Duration":493093,"SoundDuration":493093,"Delta":55492318},{"NoteNumber":42,"Velocity":40,"Duration":493093,"SoundDuration":493093,"Delta":55492318},{"NoteNumber":54,"Velocity":48,"Duration":493093,"SoundDuration":493093,"Delta":55492318},{"NoteNumber":60,"Velocity":45,"Duration":122309,"SoundDuration":122309,"Delta":55614627},{"NoteNumber":61,"Velocity":55,"Duration":122309,"SoundDuration":122309,"Delta":55736936},{"NoteNumber":57,"Velocity":46,"Duration":126167,"SoundDuration":126167,"Delta":55859245},{"NoteNumber":69,"Velocity":66,"Duration":245117,"SoundDuration":245117,"Delta":55985412},{"NoteNumber":66,"Velocity":55,"Duration":122558,"SoundDuration":122558,"Delta":56107971},{"NoteNumber":74,"Velocity":73,"Duration":490236,"SoundDuration":490236,"Delta":56230530},{"NoteNumber":62,"Velocity":55,"Duration":490236,"SoundDuration":490236,"Delta":56230530},{"NoteNumber":57,"Velocity":46,"Duration":1104040,"SoundDuration":1104040,"Delta":56230530},{"NoteNumber":54,"Velocity":46,"Duration":1104040,"SoundDuration":1104040,"Delta":56230530},{"NoteNumber":68,"Velocity":56,"Duration":122559,"SoundDuration":122559,"Delta":56353089},{"NoteNumber":69,"Velocity":61,"Duration":122558,"SoundDuration":122558,"Delta":56475648},{"NoteNumber":66,"Velocity":56,"Duration":122559,"SoundDuration":122559,"Delta":56598207},{"NoteNumber":73,"Velocity":68,"Duration":245117,"SoundDuration":245117,"Delta":56720766},{"NoteNumber":61,"Velocity":48,"Duration":245117,"SoundDuration":245117,"Delta":56720766},{"NoteNumber":69,"Velocity":49,"Duration":122558,"SoundDuration":122558,"Delta":56843325},{"NoteNumber":72,"Velocity":68,"Duration":487106,"SoundDuration":487106,"Delta":56965884},{"NoteNumber":60,"Velocity":54,"Duration":492255,"SoundDuration":492255,"Delta":56965884},{"NoteNumber":68,"Velocity":50,"Duration":122558,"SoundDuration":122558,"Delta":57088443},{"NoteNumber":69,"Velocity":55,"Duration":123568,"SoundDuration":123568,"Delta":57211002},{"NoteNumber":66,"Velocity":45,"Duration":123568,"SoundDuration":123568,"Delta":57334570},{"NoteNumber":72,"Velocity":51,"Duration":252865,"SoundDuration":252865,"Delta":57458139},{"NoteNumber":57,"Velocity":39,"Duration":252865,"SoundDuration":252865,"Delta":57458139},{"NoteNumber":54,"Velocity":33,"Duration":252865,"SoundDuration":252865,"Delta":57458139},{"NoteNumber":69,"Velocity":33,"Duration":126432,"SoundDuration":126432,"Delta":57584572},{"NoteNumber":73,"Velocity":56,"Duration":490236,"SoundDuration":490236,"Delta":57711005},{"NoteNumber":53,"Velocity":40,"Duration":245117,"SoundDuration":245117,"Delta":57711005},{"NoteNumber":56,"Velocity":48,"Duration":245117,"SoundDuration":245117,"Delta":57711005},{"NoteNumber":68,"Velocity":43,"Duration":122558,"SoundDuration":122558,"Delta":57833564},{"NoteNumber":61,"Velocity":46,"Duration":122559,"SoundDuration":122559,"Delta":57956123},{"NoteNumber":62,"Velocity":42,"Duration":122559,"SoundDuration":122559,"Delta":58078682},{"NoteNumber":64,"Velocity":40,"Duration":125114,"SoundDuration":125114,"Delta":58201241},{"NoteNumber":70,"Velocity":50,"Duration":125114,"SoundDuration":125114,"Delta":58201241},{"NoteNumber":54,"Velocity":38,"Duration":492041,"SoundDuration":492041,"Delta":58201241},{"NoteNumber":42,"Velocity":32,"Duration":247423,"SoundDuration":247423,"Delta":58201241},{"NoteNumber":61,"Velocity":38,"Duration":122309,"SoundDuration":122309,"Delta":58326355},{"NoteNumber":62,"Velocity":46,"Duration":122309,"SoundDuration":122309,"Delta":58448664},{"NoteNumber":71,"Velocity":56,"Duration":244617,"SoundDuration":244617,"Delta":58448664},{"NoteNumber":47,"Velocity":40,"Duration":244617,"SoundDuration":244617,"Delta":58448664},{"NoteNumber":66,"Velocity":43,"Duration":122308,"SoundDuration":122308,"Delta":58570973},{"NoteNumber":64,"Velocity":46,"Duration":122309,"SoundDuration":122309,"Delta":58693282},{"NoteNumber":62,"Velocity":42,"Duration":122309,"SoundDuration":122309,"Delta":58815591},{"NoteNumber":61,"Velocity":40,"Duration":122309,"SoundDuration":122309,"Delta":58937900},{"NoteNumber":70,"Velocity":50,"Duration":244618,"SoundDuration":244618,"Delta":58937900},{"NoteNumber":54,"Velocity":38,"Duration":244618,"SoundDuration":244618,"Delta":58937900},{"NoteNumber":42,"Velocity":32,"Duration":244618,"SoundDuration":244618,"Delta":58937900},{"NoteNumber":64,"Velocity":38,"Duration":122309,"SoundDuration":122309,"Delta":59060209},{"NoteNumber":62,"Velocity":46,"Duration":122309,"SoundDuration":122309,"Delta":59182518},{"NoteNumber":71,"Velocity":56,"Duration":244617,"SoundDuration":244617,"Delta":59182518},{"NoteNumber":47,"Velocity":48,"Duration":728442,"SoundDuration":728442,"Delta":59182518},{"NoteNumber":66,"Velocity":43,"Duration":122308,"SoundDuration":122308,"Delta":59304827},{"NoteNumber":69,"Velocity":50,"Duration":120346,"SoundDuration":120346,"Delta":59427136},{"NoteNumber":61,"Velocity":46,"Duration":120346,"SoundDuration":120346,"Delta":59427136},{"NoteNumber":64,"Velocity":42,"Duration":120346,"SoundDuration":120346,"Delta":59547483},{"NoteNumber":59,"Velocity":40,"Duration":121566,"SoundDuration":121566,"Delta":59667829},{"NoteNumber":68,"Velocity":50,"Duration":121566,"SoundDuration":121566,"Delta":59667829},{"NoteNumber":62,"Velocity":38,"Duration":121566,"SoundDuration":121566,"Delta":59789395},{"NoteNumber":57,"Velocity":46,"Duration":123568,"SoundDuration":123568,"Delta":59910961},{"NoteNumber":66,"Velocity":56,"Duration":247137,"SoundDuration":247137,"Delta":59910961},{"NoteNumber":49,"Velocity":40,"Duration":494312,"SoundDuration":494312,"Delta":59910961},{"NoteNumber":61,"Velocity":43,"Duration":123568,"SoundDuration":123568,"Delta":60034530},{"NoteNumber":65,"Velocity":56,"Duration":247175,"SoundDuration":247175,"Delta":60158098},{"NoteNumber":56,"Velocity":46,"Duration":125114,"SoundDuration":125114,"Delta":60158098},{"NoteNumber":59,"Velocity":42,"Duration":122060,"SoundDuration":122060,"Delta":60283213},{"NoteNumber":61,"Velocity":40,"Duration":122060,"SoundDuration":122060,"Delta":60405273},{"NoteNumber":70,"Velocity":50,"Duration":247174,"SoundDuration":247174,"Delta":60405273},{"NoteNumber":54,"Velocity":38,"Duration":491295,"SoundDuration":491295,"Delta":60405273},{"NoteNumber":42,"Velocity":32,"Duration":247174,"SoundDuration":247174,"Delta":60405273},{"NoteNumber":64,"Velocity":38,"Duration":125114,"SoundDuration":125114,"Delta":60527334},{"NoteNumber":62,"Velocity":43,"Duration":122060,"SoundDuration":122060,"Delta":60652448},{"NoteNumber":71,"Velocity":56,"Duration":244120,"SoundDuration":244120,"Delta":60652448},{"NoteNumber":47,"Velocity":40,"Duration":244120,"SoundDuration":244120,"Delta":60652448},{"NoteNumber":66,"Velocity":43,"Duration":122060,"SoundDuration":122060,"Delta":60774509},{"NoteNumber":64,"Velocity":46,"Duration":122060,"SoundDuration":122060,"Delta":60896569},{"NoteNumber":62,"Velocity":42,"Duration":122060,"SoundDuration":122060,"Delta":61018630},{"NoteNumber":61,"Velocity":40,"Duration":125376,"SoundDuration":125376,"Delta":61140690},{"NoteNumber":70,"Velocity":50,"Duration":247436,"SoundDuration":247436,"Delta":61140690},{"NoteNumber":54,"Velocity":38,"Duration":491557,"SoundDuration":491557,"Delta":61140690},{"NoteNumber":42,"Velocity":32,"Duration":247436,"SoundDuration":247436,"Delta":61140690},{"NoteNumber":64,"Velocity":38,"Duration":122060,"SoundDuration":122060,"Delta":61266066},{"NoteNumber":62,"Velocity":46,"Duration":122060,"SoundDuration":122060,"Delta":61388127},{"NoteNumber":71,"Velocity":56,"Duration":244120,"SoundDuration":244120,"Delta":61388127},{"NoteNumber":47,"Velocity":40,"Duration":244120,"SoundDuration":244120,"Delta":61388127},{"NoteNumber":66,"Velocity":43,"Duration":122060,"SoundDuration":122060,"Delta":61510187},{"NoteNumber":64,"Velocity":46,"Duration":122060,"SoundDuration":122060,"Delta":61632248},{"NoteNumber":62,"Velocity":42,"Duration":124854,"SoundDuration":124854,"Delta":61754308},{"NoteNumber":61,"Velocity":40,"Duration":122559,"SoundDuration":122559,"Delta":61879163},{"NoteNumber":70,"Velocity":50,"Duration":245117,"SoundDuration":245117,"Delta":61879163},{"NoteNumber":54,"Velocity":38,"Duration":245117,"SoundDuration":245117,"Delta":61879163},{"NoteNumber":42,"Velocity":32,"Duration":245117,"SoundDuration":245117,"Delta":61879163},{"NoteNumber":64,"Velocity":38,"Duration":122558,"SoundDuration":122558,"Delta":62001722},{"NoteNumber":62,"Velocity":46,"Duration":119866,"SoundDuration":119866,"Delta":62124281},{"NoteNumber":71,"Velocity":56,"Duration":239731,"SoundDuration":239731,"Delta":62124281},{"NoteNumber":47,"Velocity":48,"Duration":725011,"SoundDuration":725011,"Delta":62124281},{"NoteNumber":66,"Velocity":43,"Duration":119865,"SoundDuration":119865,"Delta":62244147},{"NoteNumber":69,"Velocity":50,"Duration":121319,"SoundDuration":121319,"Delta":62364013},{"NoteNumber":61,"Velocity":46,"Duration":121319,"SoundDuration":121319,"Delta":62364013},{"NoteNumber":64,"Velocity":42,"Duration":121320,"SoundDuration":121320,"Delta":62485333},{"NoteNumber":59,"Velocity":40,"Duration":121319,"SoundDuration":121319,"Delta":62606653},{"NoteNumber":68,"Velocity":50,"Duration":121319,"SoundDuration":121319,"Delta":62606653},{"NoteNumber":62,"Velocity":38,"Duration":121320,"SoundDuration":121320,"Delta":62727973},{"NoteNumber":57,"Velocity":46,"Duration":123062,"SoundDuration":123062,"Delta":62849293},{"NoteNumber":66,"Velocity":56,"Duration":246123,"SoundDuration":246123,"Delta":62849293},{"NoteNumber":49,"Velocity":40,"Duration":494824,"SoundDuration":494824,"Delta":62849293},{"NoteNumber":61,"Velocity":43,"Duration":123061,"SoundDuration":123061,"Delta":62972355},{"NoteNumber":65,"Velocity":56,"Duration":248700,"SoundDuration":248700,"Delta":63095417},{"NoteNumber":56,"Velocity":46,"Duration":123062,"SoundDuration":123062,"Delta":63095417},{"NoteNumber":59,"Velocity":42,"Duration":125638,"SoundDuration":125638,"Delta":63218479},{"NoteNumber":61,"Velocity":40,"Duration":122558,"SoundDuration":122558,"Delta":63344117},{"NoteNumber":70,"Velocity":50,"Duration":245118,"SoundDuration":245118,"Delta":63344117},{"NoteNumber":54,"Velocity":38,"Duration":490235,"SoundDuration":490235,"Delta":63344117},{"NoteNumber":42,"Velocity":32,"Duration":245118,"SoundDuration":245118,"Delta":63344117},{"NoteNumber":64,"Velocity":38,"Duration":122559,"SoundDuration":122559,"Delta":63466676},{"NoteNumber":62,"Velocity":43,"Duration":122558,"SoundDuration":122558,"Delta":63589235},{"NoteNumber":71,"Velocity":56,"Duration":245117,"SoundDuration":245117,"Delta":63589235},{"NoteNumber":47,"Velocity":40,"Duration":245117,"SoundDuration":245117,"Delta":63589235},{"NoteNumber":66,"Velocity":43,"Duration":122558,"SoundDuration":122558,"Delta":63711794},{"NoteNumber":64,"Velocity":46,"Duration":122559,"SoundDuration":122559,"Delta":63834353},{"NoteNumber":62,"Velocity":42,"Duration":122558,"SoundDuration":122558,"Delta":63956912},{"NoteNumber":70,"Velocity":40,"Duration":122558,"SoundDuration":122558,"Delta":64079471},{"NoteNumber":73,"Velocity":50,"Duration":247673,"SoundDuration":247673,"Delta":64079471},{"NoteNumber":61,"Velocity":38,"Duration":247673,"SoundDuration":247673,"Delta":64079471},{"NoteNumber":66,"Velocity":38,"Duration":125114,"SoundDuration":125114,"Delta":64202030},{"NoteNumber":71,"Velocity":45,"Duration":122558,"SoundDuration":122558,"Delta":64327145},{"NoteNumber":74,"Velocity":56,"Duration":245118,"SoundDuration":245118,"Delta":64327145},{"NoteNumber":59,"Velocity":42,"Duration":245118,"SoundDuration":245118,"Delta":64327145},{"NoteNumber":66,"Velocity":43,"Duration":122559,"SoundDuration":122559,"Delta":64449704},{"NoteNumber":72,"Velocity":48,"Duration":122558,"SoundDuration":122558,"Delta":64572263},{"NoteNumber":75,"Velocity":61,"Duration":245117,"SoundDuration":245117,"Delta":64572263},{"NoteNumber":57,"Velocity":46,"Duration":245117,"SoundDuration":245117,"Delta":64572263},{"NoteNumber":66,"Velocity":48,"Duration":122558,"SoundDuration":122558,"Delta":64694822},{"NoteNumber":71,"Velocity":53,"Duration":122559,"SoundDuration":122559,"Delta":64817381},{"NoteNumber":76,"Velocity":66,"Duration":245118,"SoundDuration":245118,"Delta":64817381},{"NoteNumber":56,"Velocity":50,"Duration":245118,"SoundDuration":245118,"Delta":64817381},{"NoteNumber":68,"Velocity":52,"Duration":122558,"SoundDuration":122558,"Delta":64939940},{"NoteNumber":75,"Velocity":58,"Duration":122558,"SoundDuration":122558,"Delta":65062499},{"NoteNumber":78,"Velocity":72,"Duration":245118,"SoundDuration":245118,"Delta":65062499},{"NoteNumber":54,"Velocity":54,"Duration":245118,"SoundDuration":245118,"Delta":65062499},{"NoteNumber":69,"Velocity":57,"Duration":122559,"SoundDuration":122559,"Delta":65185058},{"NoteNumber":76,"Velocity":62,"Duration":122558,"SoundDuration":122558,"Delta":65307617},{"NoteNumber":79,"Velocity":78,"Duration":245117,"SoundDuration":245117,"Delta":65307617},{"NoteNumber":52,"Velocity":63,"Duration":245117,"SoundDuration":245117,"Delta":65307617},{"NoteNumber":71,"Velocity":62,"Duration":122558,"SoundDuration":122558,"Delta":65430176},{"NoteNumber":76,"Velocity":67,"Duration":121812,"SoundDuration":121812,"Delta":65552735},{"NoteNumber":80,"Velocity":84,"Duration":243624,"SoundDuration":243624,"Delta":65552735},{"NoteNumber":50,"Velocity":72,"Duration":243624,"SoundDuration":243624,"Delta":65552735},{"NoteNumber":71,"Velocity":66,"Duration":121812,"SoundDuration":121812,"Delta":65674547},{"NoteNumber":76,"Velocity":73,"Duration":121812,"SoundDuration":121812,"Delta":65796360},{"NoteNumber":81,"Velocity":91,"Duration":243625,"SoundDuration":243625,"Delta":65796360},{"NoteNumber":49,"Velocity":84,"Duration":243625,"SoundDuration":243625,"Delta":65796360},{"NoteNumber":73,"Velocity":70,"Duration":121812,"SoundDuration":121812,"Delta":65918172},{"NoteNumber":76,"Velocity":75,"Duration":121812,"SoundDuration":121812,"Delta":66039985},{"NoteNumber":85,"Velocity":93,"Duration":243624,"SoundDuration":243624,"Delta":66039985},{"NoteNumber":45,"Velocity":82,"Duration":243624,"SoundDuration":243624,"Delta":66039985},{"NoteNumber":73,"Velocity":71,"Duration":121812,"SoundDuration":121812,"Delta":66161797},{"NoteNumber":76,"Velocity":75,"Duration":121812,"SoundDuration":121812,"Delta":66283610},{"NoteNumber":83,"Velocity":93,"Duration":233381,"SoundDuration":233381,"Delta":66283610},{"NoteNumber":43,"Velocity":82,"Duration":249319,"SoundDuration":249319,"Delta":66283610},{"NoteNumber":73,"Velocity":71,"Duration":127507,"SoundDuration":127507,"Delta":66405422},{"NoteNumber":76,"Velocity":75,"Duration":120831,"SoundDuration":120831,"Delta":66532930},{"NoteNumber":83,"Velocity":93,"Duration":241663,"SoundDuration":241663,"Delta":66532930},{"NoteNumber":42,"Velocity":86,"Duration":1217667,"SoundDuration":1217667,"Delta":66532930},{"NoteNumber":73,"Velocity":71,"Duration":120831,"SoundDuration":120831,"Delta":66653761},{"NoteNumber":76,"Velocity":75,"Duration":122309,"SoundDuration":122309,"Delta":66774593},{"NoteNumber":82,"Velocity":93,"Duration":244618,"SoundDuration":244618,"Delta":66774593},{"NoteNumber":73,"Velocity":71,"Duration":122309,"SoundDuration":122309,"Delta":66896902},{"NoteNumber":74,"Velocity":75,"Duration":122309,"SoundDuration":122309,"Delta":67019211},{"NoteNumber":79,"Velocity":93,"Duration":229329,"SoundDuration":229329,"Delta":67019211},{"NoteNumber":71,"Velocity":63,"Duration":122309,"SoundDuration":122309,"Delta":67141520},{"NoteNumber":73,"Velocity":75,"Duration":121075,"SoundDuration":121075,"Delta":67263829},{"NoteNumber":79,"Velocity":93,"Duration":242149,"SoundDuration":242149,"Delta":67263829},{"NoteNumber":70,"Velocity":68,"Duration":121074,"SoundDuration":121074,"Delta":67384904},{"NoteNumber":73,"Velocity":71,"Duration":122309,"SoundDuration":122309,"Delta":67505979},{"NoteNumber":78,"Velocity":90,"Duration":244618,"SoundDuration":244618,"Delta":67505979},{"NoteNumber":70,"Velocity":65,"Duration":122309,"SoundDuration":122309,"Delta":67628288},{"NoteNumber":73,"Velocity":66,"Duration":122309,"SoundDuration":122309,"Delta":67750597},{"NoteNumber":76,"Velocity":83,"Duration":229329,"SoundDuration":229329,"Delta":67750597},{"NoteNumber":46,"Velocity":72,"Duration":244618,"SoundDuration":244618,"Delta":67750597},{"NoteNumber":67,"Velocity":60,"Duration":122309,"SoundDuration":122309,"Delta":67872906},{"NoteNumber":73,"Velocity":61,"Duration":119626,"SoundDuration":119626,"Delta":67995215},{"NoteNumber":76,"Velocity":77,"Duration":239254,"SoundDuration":239254,"Delta":67995215},{"NoteNumber":47,"Velocity":70,"Duration":484874,"SoundDuration":484874,"Delta":67995215},{"NoteNumber":66,"Velocity":56,"Duration":119627,"SoundDuration":119627,"Delta":68114842},{"NoteNumber":72,"Velocity":57,"Duration":122810,"SoundDuration":122810,"Delta":68234469},{"NoteNumber":75,"Velocity":71,"Duration":245620,"SoundDuration":245620,"Delta":68234469},{"NoteNumber":70,"Velocity":51,"Duration":122810,"SoundDuration":122810,"Delta":68357279},{"NoteNumber":71,"Velocity":52,"Duration":122810,"SoundDuration":122810,"Delta":68480089},{"NoteNumber":74,"Velocity":66,"Duration":232513,"SoundDuration":232513,"Delta":68480089},{"NoteNumber":44,"Velocity":57,"Duration":248186,"SoundDuration":248186,"Delta":68480089},{"NoteNumber":65,"Velocity":47,"Duration":125376,"SoundDuration":125376,"Delta":68602899},{"NoteNumber":71,"Velocity":48,"Duration":120588,"SoundDuration":120588,"Delta":68728275},{"NoteNumber":74,"Velocity":60,"Duration":241176,"SoundDuration":241176,"Delta":68728275},{"NoteNumber":45,"Velocity":55,"Duration":485298,"SoundDuration":485298,"Delta":68728275},{"NoteNumber":64,"Velocity":44,"Duration":120588,"SoundDuration":120588,"Delta":68848863},{"NoteNumber":69,"Velocity":44,"Duration":122060,"SoundDuration":122060,"Delta":68969452},{"NoteNumber":73,"Velocity":55,"Duration":244121,"SoundDuration":244121,"Delta":68969452},{"NoteNumber":68,"Velocity":39,"Duration":122060,"SoundDuration":122060,"Delta":69091512},{"NoteNumber":69,"Velocity":40,"Duration":122060,"SoundDuration":122060,"Delta":69213573},{"NoteNumber":72,"Velocity":50,"Duration":244120,"SoundDuration":244120,"Delta":69213573},{"NoteNumber":39,"Velocity":44,"Duration":244120,"SoundDuration":244120,"Delta":69213573},{"NoteNumber":65,"Velocity":38,"Duration":122060,"SoundDuration":122060,"Delta":69335633},{"NoteNumber":68,"Velocity":40,"Duration":121812,"SoundDuration":121812,"Delta":69457694},{"NoteNumber":71,"Velocity":50,"Duration":251632,"SoundDuration":251632,"Delta":69457694},{"NoteNumber":40,"Velocity":47,"Duration":251632,"SoundDuration":251632,"Delta":69457694},{"NoteNumber":64,"Velocity":38,"Duration":129819,"SoundDuration":129819,"Delta":69579506},{"NoteNumber":74,"Velocity":74,"Duration":240211,"SoundDuration":240211,"Delta":69709326},{"NoteNumber":71,"Velocity":62,"Duration":120105,"SoundDuration":120105,"Delta":69709326},{"NoteNumber":52,"Velocity":69,"Duration":240211,"SoundDuration":240211,"Delta":69709326},{"NoteNumber":44,"Velocity":58,"Duration":240211,"SoundDuration":240211,"Delta":69709326},{"NoteNumber":64,"Velocity":56,"Duration":120105,"SoundDuration":120105,"Delta":69829431},{"NoteNumber":72,"Velocity":62,"Duration":243624,"SoundDuration":243624,"Delta":69949537},{"NoteNumber":69,"Velocity":62,"Duration":121812,"SoundDuration":121812,"Delta":69949537},{"NoteNumber":45,"Velocity":53,"Duration":243624,"SoundDuration":243624,"Delta":69949537},{"NoteNumber":64,"Velocity":38,"Duration":121812,"SoundDuration":121812,"Delta":70071349},{"NoteNumber":68,"Velocity":40,"Duration":121812,"SoundDuration":121812,"Delta":70193162},{"NoteNumber":71,"Velocity":50,"Duration":251352,"SoundDuration":251352,"Delta":70193162},{"NoteNumber":40,"Velocity":54,"Duration":251352,"SoundDuration":251352,"Delta":70193162},{"NoteNumber":64,"Velocity":38,"Duration":129539,"SoundDuration":129539,"Delta":70314974},{"NoteNumber":76,"Velocity":74,"Duration":240692,"SoundDuration":240692,"Delta":70444514},{"NoteNumber":71,"Velocity":62,"Duration":120346,"SoundDuration":120346,"Delta":70444514},{"NoteNumber":52,"Velocity":69,"Duration":240692,"SoundDuration":240692,"Delta":70444514},{"NoteNumber":44,"Velocity":58,"Duration":240692,"SoundDuration":240692,"Delta":70444514},{"NoteNumber":64,"Velocity":56,"Duration":120346,"SoundDuration":120346,"Delta":70564860},{"NoteNumber":72,"Velocity":62,"Duration":244121,"SoundDuration":244121,"Delta":70685207},{"NoteNumber":69,"Velocity":62,"Duration":122060,"SoundDuration":122060,"Delta":70685207},{"NoteNumber":45,"Velocity":53,"Duration":244121,"SoundDuration":244121,"Delta":70685207},{"NoteNumber":64,"Velocity":38,"Duration":122060,"SoundDuration":122060,"Delta":70807267},{"NoteNumber":68,"Velocity":40,"Duration":122060,"SoundDuration":122060,"Delta":70929328},{"NoteNumber":71,"Velocity":50,"Duration":250216,"SoundDuration":250216,"Delta":70929328},{"NoteNumber":40,"Velocity":54,"Duration":250216,"SoundDuration":250216,"Delta":70929328},{"NoteNumber":64,"Velocity":38,"Duration":128156,"SoundDuration":128156,"Delta":71051388},{"NoteNumber":74,"Velocity":74,"Duration":240692,"SoundDuration":240692,"Delta":71179544},{"NoteNumber":71,"Velocity":62,"Duration":120346,"SoundDuration":120346,"Delta":71179544},{"NoteNumber":52,"Velocity":69,"Duration":240692,"SoundDuration":240692,"Delta":71179544},{"NoteNumber":44,"Velocity":58,"Duration":240692,"SoundDuration":240692,"Delta":71179544},{"NoteNumber":64,"Velocity":56,"Duration":120346,"SoundDuration":120346,"Delta":71299891},{"NoteNumber":72,"Velocity":62,"Duration":243132,"SoundDuration":243132,"Delta":71420237},{"NoteNumber":69,"Velocity":62,"Duration":121566,"SoundDuration":121566,"Delta":71420237},{"NoteNumber":45,"Velocity":53,"Duration":243132,"SoundDuration":243132,"Delta":71420237},{"NoteNumber":64,"Velocity":38,"Duration":121566,"SoundDuration":121566,"Delta":71541803},{"NoteNumber":68,"Velocity":40,"Duration":121566,"SoundDuration":121566,"Delta":71663369},{"NoteNumber":71,"Velocity":50,"Duration":251666,"SoundDuration":251666,"Delta":71663369},{"NoteNumber":40,"Velocity":54,"Duration":251666,"SoundDuration":251666,"Delta":71663369},{"NoteNumber":64,"Velocity":38,"Duration":130100,"SoundDuration":130100,"Delta":71784935},{"NoteNumber":76,"Velocity":74,"Duration":238303,"SoundDuration":238303,"Delta":71915036},{"NoteNumber":71,"Velocity":62,"Duration":119151,"SoundDuration":119151,"Delta":71915036},{"NoteNumber":52,"Velocity":69,"Duration":238303,"SoundDuration":238303,"Delta":71915036},{"NoteNumber":44,"Velocity":58,"Duration":238303,"SoundDuration":238303,"Delta":71915036},{"NoteNumber":64,"Velocity":56,"Duration":119151,"SoundDuration":119151,"Delta":72034188},{"NoteNumber":72,"Velocity":62,"Duration":241663,"SoundDuration":241663,"Delta":72153339},{"NoteNumber":69,"Velocity":62,"Duration":120831,"SoundDuration":120831,"Delta":72153339},{"NoteNumber":45,"Velocity":53,"Duration":241663,"SoundDuration":241663,"Delta":72153339},{"NoteNumber":64,"Velocity":38,"Duration":120831,"SoundDuration":120831,"Delta":72274171},{"NoteNumber":68,"Velocity":40,"Duration":121566,"SoundDuration":121566,"Delta":72395002},{"NoteNumber":71,"Velocity":50,"Duration":121566,"SoundDuration":121566,"Delta":72395002},{"NoteNumber":40,"Velocity":54,"Duration":243132,"SoundDuration":243132,"Delta":72395002},{"NoteNumber":64,"Velocity":38,"Duration":121566,"SoundDuration":121566,"Delta":72516568},{"NoteNumber":63,"Velocity":42,"Duration":122653,"SoundDuration":122653,"Delta":72638134},{"NoteNumber":64,"Velocity":38,"Duration":122653,"SoundDuration":122653,"Delta":72760788},{"NoteNumber":68,"Velocity":42,"Duration":122654,"SoundDuration":122654,"Delta":72883442},{"NoteNumber":64,"Velocity":38,"Duration":122653,"SoundDuration":122653,"Delta":73006096},{"NoteNumber":71,"Velocity":45,"Duration":122653,"SoundDuration":122653,"Delta":73128750},{"NoteNumber":68,"Velocity":45,"Duration":122653,"SoundDuration":122653,"Delta":73251404},{"NoteNumber":67,"Velocity":46,"Duration":122653,"SoundDuration":122653,"Delta":73374058},{"NoteNumber":68,"Velocity":49,"Duration":122654,"SoundDuration":122654,"Delta":73496712},{"NoteNumber":71,"Velocity":50,"Duration":122653,"SoundDuration":122653,"Delta":73619366},{"NoteNumber":68,"Velocity":52,"Duration":122525,"SoundDuration":122525,"Delta":73742020},{"NoteNumber":74,"Velocity":54,"Duration":122155,"SoundDuration":122155,"Delta":73864545},{"NoteNumber":71,"Velocity":54,"Duration":122121,"SoundDuration":122121,"Delta":73986700},{"NoteNumber":77,"Velocity":55,"Duration":121906,"SoundDuration":121906,"Delta":74108822},{"NoteNumber":74,"Velocity":56,"Duration":121904,"SoundDuration":121904,"Delta":74230729},{"NoteNumber":80,"Velocity":59,"Duration":121659,"SoundDuration":121659,"Delta":74352633},{"NoteNumber":77,"Velocity":63,"Duration":121659,"SoundDuration":121659,"Delta":74474293},{"NoteNumber":83,"Velocity":70,"Duration":121659,"SoundDuration":121659,"Delta":74595952},{"NoteNumber":80,"Velocity":62,"Duration":121659,"SoundDuration":121659,"Delta":74717612},{"NoteNumber":86,"Velocity":70,"Duration":121879,"SoundDuration":121879,"Delta":74839271},{"NoteNumber":83,"Velocity":59,"Duration":122188,"SoundDuration":122188,"Delta":74961151},{"NoteNumber":81,"Velocity":65,"Duration":122468,"SoundDuration":122468,"Delta":75083339},{"NoteNumber":40,"Velocity":54,"Duration":245218,"SoundDuration":245218,"Delta":75083339},{"NoteNumber":80,"Velocity":61,"Duration":122750,"SoundDuration":122750,"Delta":75205808},{"NoteNumber":88,"Velocity":69,"Duration":122404,"SoundDuration":122404,"Delta":75328558},{"NoteNumber":37,"Velocity":64,"Duration":489615,"SoundDuration":489615,"Delta":75328558},{"NoteNumber":45,"Velocity":64,"Duration":979231,"SoundDuration":979231,"Delta":75328558},{"NoteNumber":86,"Velocity":63,"Duration":122404,"SoundDuration":122404,"Delta":75450962},{"NoteNumber":85,"Velocity":59,"Duration":122403,"SoundDuration":122403,"Delta":75573366},{"NoteNumber":83,"Velocity":58,"Duration":122404,"SoundDuration":122404,"Delta":75695770},{"NoteNumber":81,"Velocity":56,"Duration":122404,"SoundDuration":122404,"Delta":75818174},{"NoteNumber":80,"Velocity":49,"Duration":122404,"SoundDuration":122404,"Delta":75940578},{"NoteNumber":81,"Velocity":55,"Duration":122403,"SoundDuration":122403,"Delta":76062982},{"NoteNumber":42,"Velocity":58,"Duration":488126,"SoundDuration":488126,"Delta":76062982},{"NoteNumber":78,"Velocity":53,"Duration":122404,"SoundDuration":122404,"Delta":76185386},{"NoteNumber":75,"Velocity":51,"Duration":121659,"SoundDuration":121659,"Delta":76307790},{"NoteNumber":44,"Velocity":62,"Duration":243318,"SoundDuration":243318,"Delta":76307790},{"NoteNumber":71,"Velocity":51,"Duration":121659,"SoundDuration":121659,"Delta":76429449},{"NoteNumber":69,"Velocity":48,"Duration":121659,"SoundDuration":121659,"Delta":76551109},{"NoteNumber":45,"Velocity":70,"Duration":246353,"SoundDuration":246353,"Delta":76551109},{"NoteNumber":66,"Velocity":46,"Duration":124693,"SoundDuration":124693,"Delta":76672768},{"NoteNumber":74,"Velocity":61,"Duration":122404,"SoundDuration":122404,"Delta":76797462},{"NoteNumber":68,"Velocity":61,"Duration":122404,"SoundDuration":122404,"Delta":76797462},{"NoteNumber":47,"Velocity":72,"Duration":734424,"SoundDuration":734424,"Delta":76797462},{"NoteNumber":40,"Velocity":72,"Duration":489615,"SoundDuration":489615,"Delta":76797462},{"NoteNumber":71,"Velocity":51,"Duration":122404,"SoundDuration":122404,"Delta":76919866},{"NoteNumber":68,"Velocity":48,"Duration":122403,"SoundDuration":122403,"Delta":77042270},{"NoteNumber":64,"Velocity":47,"Duration":122404,"SoundDuration":122404,"Delta":77164674},{"NoteNumber":62,"Velocity":46,"Duration":122404,"SoundDuration":122404,"Delta":77287078},{"NoteNumber":59,"Velocity":43,"Duration":122404,"SoundDuration":122404,"Delta":77409482},{"NoteNumber":67,"Velocity":49,"Duration":122403,"SoundDuration":122403,"Delta":77531886},{"NoteNumber":45,"Velocity":54,"Duration":489615,"SoundDuration":489615,"Delta":77531886},{"NoteNumber":49,"Velocity":54,"Duration":739360,"SoundDuration":739360,"Delta":77531886},{"NoteNumber":64,"Velocity":42,"Duration":122404,"SoundDuration":122404,"Delta":77654290},{"NoteNumber":61,"Velocity":45,"Duration":122404,"SoundDuration":122404,"Delta":77776694},{"NoteNumber":57,"Velocity":46,"Duration":122404,"SoundDuration":122404,"Delta":77899098},{"NoteNumber":56,"Velocity":48,"Duration":122404,"SoundDuration":122404,"Delta":78021502},{"NoteNumber":55,"Velocity":52,"Duration":127340,"SoundDuration":127340,"Delta":78143906},{"NoteNumber":54,"Velocity":54,"Duration":121167,"SoundDuration":121167,"Delta":78271246},{"NoteNumber":52,"Velocity":73,"Duration":242335,"SoundDuration":242335,"Delta":78271246},{"NoteNumber":38,"Velocity":73,"Duration":484672,"SoundDuration":484672,"Delta":78271246},{"NoteNumber":58,"Velocity":38,"Duration":121167,"SoundDuration":121167,"Delta":78392414},{"NoteNumber":59,"Velocity":45,"Duration":121168,"SoundDuration":121168,"Delta":78513582},{"NoteNumber":50,"Velocity":62,"Duration":242336,"SoundDuration":242336,"Delta":78513582},{"NoteNumber":54,"Velocity":38,"Duration":121167,"SoundDuration":121167,"Delta":78634750},{"NoteNumber":61,"Velocity":43,"Duration":122155,"SoundDuration":122155,"Delta":78755918},{"NoteNumber":49,"Velocity":54,"Duration":247893,"SoundDuration":247893,"Delta":78755918},{"NoteNumber":54,"Velocity":38,"Duration":125738,"SoundDuration":125738,"Delta":78878073},{"NoteNumber":62,"Velocity":50,"Duration":121413,"SoundDuration":121413,"Delta":79003811},{"NoteNumber":47,"Velocity":66,"Duration":242827,"SoundDuration":242827,"Delta":79003811},{"NoteNumber":40,"Velocity":66,"Duration":485653,"SoundDuration":485653,"Delta":79003811},{"NoteNumber":56,"Velocity":38,"Duration":121413,"SoundDuration":121413,"Delta":79125225},{"NoteNumber":52,"Velocity":43,"Duration":121413,"SoundDuration":121413,"Delta":79246638},{"NoteNumber":49,"Velocity":49,"Duration":242826,"SoundDuration":242826,"Delta":79246638},{"NoteNumber":56,"Velocity":38,"Duration":121413,"SoundDuration":121413,"Delta":79368052},{"NoteNumber":50,"Velocity":45,"Duration":124435,"SoundDuration":124435,"Delta":79489465},{"NoteNumber":47,"Velocity":41,"Duration":252317,"SoundDuration":252317,"Delta":79489465},{"NoteNumber":56,"Velocity":37,"Duration":127882,"SoundDuration":127882,"Delta":79613900},{"NoteNumber":49,"Velocity":45,"Duration":122653,"SoundDuration":122653,"Delta":79741783},{"NoteNumber":45,"Velocity":50,"Duration":1231226,"SoundDuration":1231226,"Delta":79741783},{"NoteNumber":52,"Velocity":33,"Duration":122653,"SoundDuration":122653,"Delta":79864437},{"NoteNumber":57,"Velocity":33,"Duration":122654,"SoundDuration":122654,"Delta":79987091},{"NoteNumber":59,"Velocity":33,"Duration":122653,"SoundDuration":122653,"Delta":80109745},{"NoteNumber":61,"Velocity":33,"Duration":122653,"SoundDuration":122653,"Delta":80232399},{"NoteNumber":64,"Velocity":33,"Duration":122653,"SoundDuration":122653,"Delta":80355053},{"NoteNumber":61,"Velocity":36,"Duration":122653,"SoundDuration":122653,"Delta":80477707},{"NoteNumber":59,"Velocity":31,"Duration":122654,"SoundDuration":122654,"Delta":80600361},{"NoteNumber":57,"Velocity":33,"Duration":122653,"SoundDuration":122653,"Delta":80723015},{"NoteNumber":52,"Velocity":33,"Duration":374671,"SoundDuration":374671,"Delta":80845669},{"NoteNumber":64,"Velocity":50,"Duration":247331,"SoundDuration":247331,"Delta":80973009},{"NoteNumber":49,"Velocity":36,"Duration":123665,"SoundDuration":123665,"Delta":80973009},{"NoteNumber":45,"Velocity":36,"Duration":123665,"SoundDuration":123665,"Delta":81096674},{"NoteNumber":69,"Velocity":65,"Duration":979231,"SoundDuration":979231,"Delta":81220340},{"NoteNumber":57,"Velocity":55,"Duration":979231,"SoundDuration":979231,"Delta":81220340},{"NoteNumber":42,"Velocity":48,"Duration":122404,"SoundDuration":122404,"Delta":81220340},{"NoteNumber":45,"Velocity":36,"Duration":122404,"SoundDuration":122404,"Delta":81342744},{"NoteNumber":47,"Velocity":36,"Duration":122403,"SoundDuration":122403,"Delta":81465148},{"NoteNumber":49,"Velocity":36,"Duration":122404,"SoundDuration":122404,"Delta":81587552},{"NoteNumber":47,"Velocity":37,"Duration":122404,"SoundDuration":122404,"Delta":81709956},{"NoteNumber":45,"Velocity":37,"Duration":122404,"SoundDuration":122404,"Delta":81832360},{"NoteNumber":51,"Velocity":47,"Duration":122403,"SoundDuration":122403,"Delta":81954764},{"NoteNumber":42,"Velocity":37,"Duration":122404,"SoundDuration":122404,"Delta":82077168},{"NoteNumber":68,"Velocity":69,"Duration":243318,"SoundDuration":243318,"Delta":82199572},{"NoteNumber":56,"Velocity":58,"Duration":243318,"SoundDuration":243318,"Delta":82199572},{"NoteNumber":44,"Velocity":51,"Duration":121659,"SoundDuration":121659,"Delta":82199572},{"NoteNumber":45,"Velocity":45,"Duration":121659,"SoundDuration":121659,"Delta":82321231},{"NoteNumber":57,"Velocity":62,"Duration":246353,"SoundDuration":246353,"Delta":82442891},{"NoteNumber":69,"Velocity":74,"Duration":246353,"SoundDuration":246353,"Delta":82442891},{"NoteNumber":44,"Velocity":56,"Duration":121659,"SoundDuration":121659,"Delta":82442891},{"NoteNumber":42,"Velocity":50,"Duration":124693,"SoundDuration":124693,"Delta":82564550},{"NoteNumber":71,"Velocity":84,"Duration":734424,"SoundDuration":734424,"Delta":82689244},{"NoteNumber":59,"Velocity":71,"Duration":734424,"SoundDuration":734424,"Delta":82689244},{"NoteNumber":40,"Velocity":65,"Duration":122404,"SoundDuration":122404,"Delta":82689244},{"NoteNumber":50,"Velocity":38,"Duration":122404,"SoundDuration":122404,"Delta":82811648},{"NoteNumber":52,"Velocity":52,"Duration":122403,"SoundDuration":122403,"Delta":82934052},{"NoteNumber":54,"Velocity":39,"Duration":122404,"SoundDuration":122404,"Delta":83056456},{"NoteNumber":52,"Velocity":51,"Duration":122404,"SoundDuration":122404,"Delta":83178860},{"NoteNumber":50,"Velocity":47,"Duration":122404,"SoundDuration":122404,"Delta":83301264},{"NoteNumber":73,"Velocity":77,"Duration":739360,"SoundDuration":739360,"Delta":83423668},{"NoteNumber":61,"Velocity":65,"Duration":739360,"SoundDuration":739360,"Delta":83423668},{"NoteNumber":55,"Velocity":67,"Duration":122403,"SoundDuration":122403,"Delta":83423668},{"NoteNumber":45,"Velocity":67,"Duration":122403,"SoundDuration":122403,"Delta":83423668},{"NoteNumber":52,"Velocity":49,"Duration":122404,"SoundDuration":122404,"Delta":83546072},{"NoteNumber":49,"Velocity":62,"Duration":122404,"SoundDuration":122404,"Delta":83668476},{"NoteNumber":47,"Velocity":56,"Duration":122404,"SoundDuration":122404,"Delta":83790880},{"NoteNumber":43,"Velocity":65,"Duration":122404,"SoundDuration":122404,"Delta":83913284},{"NoteNumber":40,"Velocity":62,"Duration":127340,"SoundDuration":127340,"Delta":84035688},{"NoteNumber":76,"Velocity":89,"Duration":242335,"SoundDuration":242335,"Delta":84163028},{"NoteNumber":73,"Velocity":89,"Duration":242335,"SoundDuration":242335,"Delta":84163028},{"NoteNumber":64,"Velocity":75,"Duration":242335,"SoundDuration":242335,"Delta":84163028},{"NoteNumber":38,"Velocity":72,"Duration":121167,"SoundDuration":121167,"Delta":84163028},{"NoteNumber":42,"Velocity":51,"Duration":121167,"SoundDuration":121167,"Delta":84284196},{"NoteNumber":74,"Velocity":76,"Duration":242336,"SoundDuration":242336,"Delta":84405364},{"NoteNumber":71,"Velocity":76,"Duration":242336,"SoundDuration":242336,"Delta":84405364},{"NoteNumber":62,"Velocity":63,"Duration":242336,"SoundDuration":242336,"Delta":84405364},{"NoteNumber":44,"Velocity":58,"Duration":121168,"SoundDuration":121168,"Delta":84405364},{"NoteNumber":45,"Velocity":48,"Duration":121167,"SoundDuration":121167,"Delta":84526532},{"NoteNumber":73,"Velocity":70,"Duration":247893,"SoundDuration":247893,"Delta":84647700},{"NoteNumber":69,"Velocity":70,"Duration":247893,"SoundDuration":247893,"Delta":84647700},{"NoteNumber":61,"Velocity":59,"Duration":247893,"SoundDuration":247893,"Delta":84647700},{"NoteNumber":47,"Velocity":55,"Duration":122155,"SoundDuration":122155,"Delta":84647700},{"NoteNumber":49,"Velocity":47,"Duration":125738,"SoundDuration":125738,"Delta":84769855},{"NoteNumber":71,"Velocity":82,"Duration":242827,"SoundDuration":242827,"Delta":84895593},{"NoteNumber":68,"Velocity":82,"Duration":242827,"SoundDuration":242827,"Delta":84895593},{"NoteNumber":59,"Velocity":70,"Duration":242827,"SoundDuration":242827,"Delta":84895593},{"NoteNumber":50,"Velocity":64,"Duration":121413,"SoundDuration":121413,"Delta":84895593},{"NoteNumber":40,"Velocity":64,"Duration":121413,"SoundDuration":121413,"Delta":84895593},{"NoteNumber":49,"Velocity":49,"Duration":121413,"SoundDuration":121413,"Delta":85017007},{"NoteNumber":73,"Velocity":75,"Duration":242826,"SoundDuration":242826,"Delta":85138420},{"NoteNumber":61,"Velocity":62,"Duration":242826,"SoundDuration":242826,"Delta":85138420},{"NoteNumber":50,"Velocity":55,"Duration":121413,"SoundDuration":121413,"Delta":85138420},{"NoteNumber":47,"Velocity":48,"Duration":121413,"SoundDuration":121413,"Delta":85259834},{"NoteNumber":71,"Velocity":68,"Duration":252317,"SoundDuration":252317,"Delta":85381247},{"NoteNumber":59,"Velocity":57,"Duration":252317,"SoundDuration":252317,"Delta":85381247},{"NoteNumber":52,"Velocity":54,"Duration":124435,"SoundDuration":124435,"Delta":85381247},{"NoteNumber":50,"Velocity":41,"Duration":127882,"SoundDuration":127882,"Delta":85505682},{"NoteNumber":69,"Velocity":90,"Duration":490616,"SoundDuration":490616,"Delta":85633565},{"NoteNumber":57,"Velocity":77,"Duration":490616,"SoundDuration":490616,"Delta":85633565},{"NoteNumber":49,"Velocity":60,"Duration":122653,"SoundDuration":122653,"Delta":85633565},{"NoteNumber":45,"Velocity":60,"Duration":122653,"SoundDuration":122653,"Delta":85633565},{"NoteNumber":52,"Velocity":54,"Duration":122653,"SoundDuration":122653,"Delta":85756219},{"NoteNumber":50,"Velocity":54,"Duration":122654,"SoundDuration":122654,"Delta":85878873},{"NoteNumber":49,"Velocity":54,"Duration":122653,"SoundDuration":122653,"Delta":86001527},{"NoteNumber":81,"Velocity":86,"Duration":245307,"SoundDuration":245307,"Delta":86124181},{"NoteNumber":69,"Velocity":73,"Duration":245307,"SoundDuration":245307,"Delta":86124181},{"NoteNumber":47,"Velocity":54,"Duration":122653,"SoundDuration":122653,"Delta":86124181},{"NoteNumber":45,"Velocity":51,"Duration":122653,"SoundDuration":122653,"Delta":86246835},{"NoteNumber":83,"Velocity":91,"Duration":490616,"SoundDuration":490616,"Delta":86369489},{"NoteNumber":71,"Velocity":77,"Duration":490616,"SoundDuration":490616,"Delta":86369489},{"NoteNumber":44,"Velocity":55,"Duration":122653,"SoundDuration":122653,"Delta":86369489},{"NoteNumber":45,"Velocity":55,"Duration":122654,"SoundDuration":122654,"Delta":86492143},{"NoteNumber":43,"Velocity":57,"Duration":122653,"SoundDuration":122653,"Delta":86614797},{"NoteNumber":45,"Velocity":60,"Duration":122653,"SoundDuration":122653,"Delta":86737451},{"NoteNumber":85,"Velocity":95,"Duration":245307,"SoundDuration":245307,"Delta":86860105},{"NoteNumber":73,"Velocity":80,"Duration":245307,"SoundDuration":245307,"Delta":86860105},{"NoteNumber":42,"Velocity":61,"Duration":122653,"SoundDuration":122653,"Delta":86860105},{"NoteNumber":46,"Velocity":65,"Duration":122653,"SoundDuration":122653,"Delta":86982759},{"NoteNumber":76,"Velocity":82,"Duration":242335,"SoundDuration":242335,"Delta":87105413},{"NoteNumber":85,"Velocity":97,"Duration":242335,"SoundDuration":242335,"Delta":87105413},{"NoteNumber":88,"Velocity":97,"Duration":242335,"SoundDuration":242335,"Delta":87105413},{"NoteNumber":38,"Velocity":75,"Duration":121167,"SoundDuration":121167,"Delta":87105413},{"NoteNumber":42,"Velocity":53,"Duration":121167,"SoundDuration":121167,"Delta":87226581},{"NoteNumber":74,"Velocity":75,"Duration":242336,"SoundDuration":242336,"Delta":87347749},{"NoteNumber":83,"Velocity":89,"Duration":242336,"SoundDuration":242336,"Delta":87347749},{"NoteNumber":86,"Velocity":89,"Duration":242336,"SoundDuration":242336,"Delta":87347749},{"NoteNumber":44,"Velocity":66,"Duration":121168,"SoundDuration":121168,"Delta":87347749},{"NoteNumber":45,"Velocity":50,"Duration":121167,"SoundDuration":121167,"Delta":87468917},{"NoteNumber":73,"Velocity":69,"Duration":247893,"SoundDuration":247893,"Delta":87590085},{"NoteNumber":81,"Velocity":82,"Duration":247893,"SoundDuration":247893,"Delta":87590085},{"NoteNumber":85,"Velocity":82,"Duration":247893,"SoundDuration":247893,"Delta":87590085},{"NoteNumber":47,"Velocity":63,"Duration":122155,"SoundDuration":122155,"Delta":87590085},{"NoteNumber":49,"Velocity":49,"Duration":125738,"SoundDuration":125738,"Delta":87712240},{"NoteNumber":71,"Velocity":80,"Duration":242827,"SoundDuration":242827,"Delta":87837978},{"NoteNumber":80,"Velocity":95,"Duration":242827,"SoundDuration":242827,"Delta":87837978},{"NoteNumber":83,"Velocity":95,"Duration":242827,"SoundDuration":242827,"Delta":87837978},{"NoteNumber":50,"Velocity":67,"Duration":121413,"SoundDuration":121413,"Delta":87837978},{"NoteNumber":40,"Velocity":51,"Duration":121413,"SoundDuration":121413,"Delta":87959392},{"NoteNumber":73,"Velocity":75,"Duration":242826,"SoundDuration":242826,"Delta":88080805},{"NoteNumber":85,"Velocity":89,"Duration":242826,"SoundDuration":242826,"Delta":88080805},{"NoteNumber":52,"Velocity":57,"Duration":121413,"SoundDuration":121413,"Delta":88080805},{"NoteNumber":40,"Velocity":50,"Duration":121413,"SoundDuration":121413,"Delta":88202219},{"NoteNumber":71,"Velocity":68,"Duration":252317,"SoundDuration":252317,"Delta":88323632},{"NoteNumber":83,"Velocity":80,"Duration":252317,"SoundDuration":252317,"Delta":88323632},{"NoteNumber":50,"Velocity":56,"Duration":124435,"SoundDuration":124435,"Delta":88323632},{"NoteNumber":40,"Velocity":43,"Duration":127882,"SoundDuration":127882,"Delta":88448067},{"NoteNumber":69,"Velocity":79,"Duration":246575,"SoundDuration":246575,"Delta":88575950},{"NoteNumber":81,"Velocity":93,"Duration":246575,"SoundDuration":246575,"Delta":88575950},{"NoteNumber":45,"Velocity":63,"Duration":860468,"SoundDuration":860468,"Delta":88575950},{"NoteNumber":49,"Velocity":48,"Duration":123249,"SoundDuration":123249,"Delta":88699276},{"NoteNumber":76,"Velocity":80,"Duration":245931,"SoundDuration":245931,"Delta":88822526},{"NoteNumber":80,"Velocity":80,"Duration":245931,"SoundDuration":245931,"Delta":88822526},{"NoteNumber":50,"Velocity":50,"Duration":123060,"SoundDuration":123060,"Delta":88822526},{"NoteNumber":52,"Velocity":46,"Duration":122870,"SoundDuration":122870,"Delta":88945586},{"NoteNumber":74,"Velocity":77,"Duration":245308,"SoundDuration":245308,"Delta":89068457},{"NoteNumber":78,"Velocity":77,"Duration":245308,"SoundDuration":245308,"Delta":89068457},{"NoteNumber":54,"Velocity":47,"Duration":122654,"SoundDuration":122654,"Delta":89068457},{"NoteNumber":50,"Velocity":45,"Duration":122653,"SoundDuration":122653,"Delta":89191111},{"NoteNumber":73,"Velocity":72,"Duration":245307,"SoundDuration":245307,"Delta":89313765},{"NoteNumber":76,"Velocity":72,"Duration":245307,"SoundDuration":245307,"Delta":89313765},{"NoteNumber":52,"Velocity":45,"Duration":122653,"SoundDuration":122653,"Delta":89313765},{"NoteNumber":54,"Velocity":41,"Duration":122653,"SoundDuration":122653,"Delta":89436419},{"NoteNumber":72,"Velocity":70,"Duration":245308,"SoundDuration":245308,"Delta":89559073},{"NoteNumber":75,"Velocity":70,"Duration":245308,"SoundDuration":245308,"Delta":89559073},{"NoteNumber":56,"Velocity":43,"Duration":122653,"SoundDuration":122653,"Delta":89559073},{"NoteNumber":52,"Velocity":41,"Duration":122654,"SoundDuration":122654,"Delta":89681727},{"NoteNumber":71,"Velocity":70,"Duration":245304,"SoundDuration":245304,"Delta":89804381},{"NoteNumber":74,"Velocity":70,"Duration":245304,"SoundDuration":245304,"Delta":89804381},{"NoteNumber":54,"Velocity":42,"Duration":122653,"SoundDuration":122653,"Delta":89804381},{"NoteNumber":56,"Velocity":37,"Duration":122650,"SoundDuration":122650,"Delta":89927035},{"NoteNumber":73,"Velocity":74,"Duration":122653,"SoundDuration":122653,"Delta":90049685},{"NoteNumber":69,"Velocity":65,"Duration":122653,"SoundDuration":122653,"Delta":90049685},{"NoteNumber":57,"Velocity":42,"Duration":122653,"SoundDuration":122653,"Delta":90049685},{"NoteNumber":74,"Velocity":57,"Duration":93520,"SoundDuration":93520,"Delta":90294993},{"NoteNumber":69,"Velocity":50,"Duration":93520,"SoundDuration":93520,"Delta":90294993},{"NoteNumber":66,"Velocity":38,"Duration":93520,"SoundDuration":93520,"Delta":90294993},{"NoteNumber":73,"Velocity":51,"Duration":94303,"SoundDuration":94303,"Delta":90544380},{"NoteNumber":69,"Velocity":45,"Duration":94303,"SoundDuration":94303,"Delta":90544380},{"NoteNumber":64,"Velocity":32,"Duration":94303,"SoundDuration":94303,"Delta":90544380},{"NoteNumber":69,"Velocity":50,"Duration":94303,"SoundDuration":94303,"Delta":90795857},{"NoteNumber":66,"Velocity":50,"Duration":94303,"SoundDuration":94303,"Delta":90795857},{"NoteNumber":71,"Velocity":57,"Duration":94303,"SoundDuration":94303,"Delta":90795857},{"NoteNumber":63,"Velocity":38,"Duration":94303,"SoundDuration":94303,"Delta":90795857},{"NoteNumber":68,"Velocity":65,"Duration":124435,"SoundDuration":124435,"Delta":91315084},{"NoteNumber":76,"Velocity":74,"Duration":124435,"SoundDuration":124435,"Delta":91315084},{"NoteNumber":62,"Velocity":38,"Duration":124435,"SoundDuration":124435,"Delta":91315084},{"NoteNumber":69,"Velocity":67,"Duration":246575,"SoundDuration":246575,"Delta":91563954},{"NoteNumber":81,"Velocity":79,"Duration":246575,"SoundDuration":246575,"Delta":91563954},{"NoteNumber":57,"Velocity":63,"Duration":859693,"SoundDuration":859693,"Delta":91563954},{"NoteNumber":61,"Velocity":48,"Duration":123249,"SoundDuration":123249,"Delta":91687280},{"NoteNumber":76,"Velocity":57,"Duration":245931,"SoundDuration":245931,"Delta":91810530},{"NoteNumber":80,"Velocity":68,"Duration":245931,"SoundDuration":245931,"Delta":91810530},{"NoteNumber":62,"Velocity":50,"Duration":123060,"SoundDuration":123060,"Delta":91810530},{"NoteNumber":64,"Velocity":46,"Duration":122870,"SoundDuration":122870,"Delta":91933590},{"NoteNumber":74,"Velocity":55,"Duration":245174,"SoundDuration":245174,"Delta":92056461},{"NoteNumber":78,"Velocity":65,"Duration":245174,"SoundDuration":245174,"Delta":92056461},{"NoteNumber":66,"Velocity":47,"Duration":122654,"SoundDuration":122654,"Delta":92056461},{"NoteNumber":62,"Velocity":45,"Duration":122520,"SoundDuration":122520,"Delta":92179115},{"NoteNumber":73,"Velocity":51,"Duration":244413,"SoundDuration":244413,"Delta":92301635},{"NoteNumber":76,"Velocity":61,"Duration":244413,"SoundDuration":244413,"Delta":92301635},{"NoteNumber":64,"Velocity":45,"Duration":122013,"SoundDuration":122013,"Delta":92301635},{"NoteNumber":66,"Velocity":41,"Duration":122400,"SoundDuration":122400,"Delta":92423648},{"NoteNumber":72,"Velocity":50,"Duration":245915,"SoundDuration":245915,"Delta":92546048},{"NoteNumber":75,"Velocity":59,"Duration":245915,"SoundDuration":245915,"Delta":92546048},{"NoteNumber":68,"Velocity":43,"Duration":122761,"SoundDuration":122761,"Delta":92546048},{"NoteNumber":64,"Velocity":41,"Duration":123153,"SoundDuration":123153,"Delta":92668810},{"NoteNumber":71,"Velocity":50,"Duration":247414,"SoundDuration":247414,"Delta":92791964},{"NoteNumber":74,"Velocity":59,"Duration":247414,"SoundDuration":247414,"Delta":92791964},{"NoteNumber":66,"Velocity":42,"Duration":123520,"SoundDuration":123520,"Delta":92791964},{"NoteNumber":68,"Velocity":37,"Duration":123894,"SoundDuration":123894,"Delta":92915484},{"NoteNumber":69,"Velocity":56,"Duration":871139,"SoundDuration":871139,"Delta":93039379},{"NoteNumber":73,"Velocity":47,"Duration":133279,"SoundDuration":133279,"Delta":93163300},{"NoteNumber":74,"Velocity":47,"Duration":123060,"SoundDuration":123060,"Delta":93296580},{"NoteNumber":64,"Velocity":54,"Duration":245931,"SoundDuration":245931,"Delta":93296580},{"NoteNumber":68,"Velocity":64,"Duration":245931,"SoundDuration":245931,"Delta":93296580},{"NoteNumber":76,"Velocity":47,"Duration":122870,"SoundDuration":122870,"Delta":93419640},{"NoteNumber":78,"Velocity":51,"Duration":122654,"SoundDuration":122654,"Delta":93542511},{"NoteNumber":66,"Velocity":61,"Duration":245308,"SoundDuration":245308,"Delta":93542511},{"NoteNumber":62,"Velocity":51,"Duration":245308,"SoundDuration":245308,"Delta":93542511},{"NoteNumber":74,"Velocity":47,"Duration":122654,"SoundDuration":122654,"Delta":93665165},{"NoteNumber":76,"Velocity":50,"Duration":122699,"SoundDuration":122699,"Delta":93787819},{"NoteNumber":61,"Velocity":48,"Duration":245712,"SoundDuration":245712,"Delta":93787819},{"NoteNumber":64,"Velocity":57,"Duration":245712,"SoundDuration":245712,"Delta":93787819},{"NoteNumber":78,"Velocity":47,"Duration":123013,"SoundDuration":123013,"Delta":93910518},{"NoteNumber":80,"Velocity":49,"Duration":123329,"SoundDuration":123329,"Delta":94033532},{"NoteNumber":60,"Velocity":47,"Duration":247023,"SoundDuration":247023,"Delta":94033532},{"NoteNumber":63,"Velocity":56,"Duration":247023,"SoundDuration":247023,"Delta":94033532},{"NoteNumber":76,"Velocity":47,"Duration":123693,"SoundDuration":123693,"Delta":94156862},{"NoteNumber":78,"Velocity":50,"Duration":124031,"SoundDuration":124031,"Delta":94280555},{"NoteNumber":59,"Velocity":47,"Duration":248383,"SoundDuration":248383,"Delta":94280555},{"NoteNumber":62,"Velocity":56,"Duration":248383,"SoundDuration":248383,"Delta":94280555},{"NoteNumber":80,"Velocity":47,"Duration":124352,"SoundDuration":124352,"Delta":94404586},{"NoteNumber":81,"Velocity":50,"Duration":124721,"SoundDuration":124721,"Delta":94528939},{"NoteNumber":57,"Velocity":47,"Duration":259802,"SoundDuration":259802,"Delta":94528939},{"NoteNumber":61,"Velocity":56,"Duration":259802,"SoundDuration":259802,"Delta":94528939},{"NoteNumber":85,"Velocity":51,"Duration":135080,"SoundDuration":135080,"Delta":94653660},{"NoteNumber":86,"Velocity":51,"Duration":122905,"SoundDuration":122905,"Delta":94788741},{"NoteNumber":56,"Velocity":57,"Duration":245776,"SoundDuration":245776,"Delta":94788741},{"NoteNumber":52,"Velocity":48,"Duration":245776,"SoundDuration":245776,"Delta":94788741},{"NoteNumber":88,"Velocity":50,"Duration":122870,"SoundDuration":122870,"Delta":94911646},{"NoteNumber":90,"Velocity":54,"Duration":122654,"SoundDuration":122654,"Delta":95034517},{"NoteNumber":50,"Velocity":44,"Duration":245308,"SoundDuration":245308,"Delta":95034517},{"NoteNumber":54,"Velocity":53,"Duration":245308,"SoundDuration":245308,"Delta":95034517},{"NoteNumber":86,"Velocity":48,"Duration":122653,"SoundDuration":122653,"Delta":95157171},{"NoteNumber":88,"Velocity":50,"Duration":122653,"SoundDuration":122653,"Delta":95279825},{"NoteNumber":52,"Velocity":48,"Duration":245307,"SoundDuration":245307,"Delta":95279825},{"NoteNumber":49,"Velocity":40,"Duration":245307,"SoundDuration":245307,"Delta":95279825},{"NoteNumber":90,"Velocity":47,"Duration":122653,"SoundDuration":122653,"Delta":95402479},{"NoteNumber":92,"Velocity":47,"Duration":122653,"SoundDuration":122653,"Delta":95525133},{"NoteNumber":48,"Velocity":39,"Duration":245308,"SoundDuration":245308,"Delta":95525133},{"NoteNumber":51,"Velocity":46,"Duration":245308,"SoundDuration":245308,"Delta":95525133},{"NoteNumber":88,"Velocity":45,"Duration":122654,"SoundDuration":122654,"Delta":95647787},{"NoteNumber":90,"Velocity":47,"Duration":122653,"SoundDuration":122653,"Delta":95770441},{"NoteNumber":47,"Velocity":37,"Duration":249188,"SoundDuration":249188,"Delta":95770441},{"NoteNumber":50,"Velocity":44,"Duration":249188,"SoundDuration":249188,"Delta":95770441},{"NoteNumber":92,"Velocity":44,"Duration":126534,"SoundDuration":126534,"Delta":95893095},{"NoteNumber":93,"Velocity":52,"Duration":119956,"SoundDuration":119956,"Delta":96019629},{"NoteNumber":45,"Velocity":39,"Duration":723348,"SoundDuration":723348,"Delta":96019629},{"NoteNumber":49,"Velocity":43,"Duration":723348,"SoundDuration":723348,"Delta":96019629},{"NoteNumber":88,"Velocity":52,"Duration":120324,"SoundDuration":120324,"Delta":96139586},{"NoteNumber":85,"Velocity":48,"Duration":120502,"SoundDuration":120502,"Delta":96259910},{"NoteNumber":81,"Velocity":48,"Duration":120680,"SoundDuration":120680,"Delta":96380412},{"NoteNumber":76,"Velocity":48,"Duration":120866,"SoundDuration":120866,"Delta":96501093},{"NoteNumber":73,"Velocity":48,"Duration":121018,"SoundDuration":121018,"Delta":96621959},{"NoteNumber":69,"Velocity":46,"Duration":121167,"SoundDuration":121167,"Delta":96742978},{"NoteNumber":64,"Velocity":45,"Duration":121385,"SoundDuration":121385,"Delta":96864146},{"NoteNumber":61,"Velocity":43,"Duration":121508,"SoundDuration":121508,"Delta":96985532},{"NoteNumber":57,"Velocity":42,"Duration":121662,"SoundDuration":121662,"Delta":97107040},{"NoteNumber":52,"Velocity":50,"Duration":121906,"SoundDuration":121906,"Delta":97228703},{"NoteNumber":48,"Velocity":42,"Duration":121906,"SoundDuration":121906,"Delta":97350609},{"NoteNumber":52,"Velocity":56,"Duration":492531,"SoundDuration":492531,"Delta":97472516},{"NoteNumber":33,"Velocity":48,"Duration":492531,"SoundDuration":492531,"Delta":97472516},{"NoteNumber":47,"Velocity":37,"Duration":122559,"SoundDuration":122559,"Delta":97595075},{"NoteNumber":48,"Velocity":42,"Duration":122558,"SoundDuration":122558,"Delta":97717634},{"NoteNumber":45,"Velocity":34,"Duration":124854,"SoundDuration":124854,"Delta":97840193},{"NoteNumber":57,"Velocity":54,"Duration":232862,"SoundDuration":232862,"Delta":97965047},{"NoteNumber":52,"Velocity":39,"Duration":122559,"SoundDuration":122559,"Delta":98087606},{"NoteNumber":57,"Velocity":55,"Duration":490235,"SoundDuration":490235,"Delta":98210165},{"NoteNumber":33,"Velocity":40,"Duration":490235,"SoundDuration":490235,"Delta":98210165},{"NoteNumber":45,"Velocity":48,"Duration":490235,"SoundDuration":490235,"Delta":98210165},{"NoteNumber":51,"Velocity":45,"Duration":122558,"SoundDuration":122558,"Delta":98332724},{"NoteNumber":52,"Velocity":55,"Duration":122559,"SoundDuration":122559,"Delta":98455283},{"NoteNumber":48,"Velocity":46,"Duration":122558,"SoundDuration":122558,"Delta":98577842},{"NoteNumber":60,"Velocity":66,"Duration":247934,"SoundDuration":247934,"Delta":98700401},{"NoteNumber":57,"Velocity":55,"Duration":125376,"SoundDuration":125376,"Delta":98822960},{"NoteNumber":65,"Velocity":73,"Duration":490235,"SoundDuration":490235,"Delta":98948336},{"NoteNumber":53,"Velocity":60,"Duration":490235,"SoundDuration":490235,"Delta":98948336},{"NoteNumber":48,"Velocity":50,"Duration":1103031,"SoundDuration":1103031,"Delta":98948336},{"NoteNumber":45,"Velocity":50,"Duration":1103031,"SoundDuration":1103031,"Delta":98948336},{"NoteNumber":59,"Velocity":56,"Duration":122559,"SoundDuration":122559,"Delta":99070895},{"NoteNumber":60,"Velocity":61,"Duration":122558,"SoundDuration":122558,"Delta":99193454},{"NoteNumber":57,"Velocity":56,"Duration":122558,"SoundDuration":122558,"Delta":99316013},{"NoteNumber":64,"Velocity":68,"Duration":245118,"SoundDuration":245118,"Delta":99438572},{"NoteNumber":52,"Velocity":48,"Duration":245118,"SoundDuration":245118,"Delta":99438572},{"NoteNumber":60,"Velocity":49,"Duration":122558,"SoundDuration":122558,"Delta":99561131},{"NoteNumber":63,"Velocity":68,"Duration":485129,"SoundDuration":485129,"Delta":99683690},{"NoteNumber":51,"Velocity":54,"Duration":490235,"SoundDuration":490235,"Delta":99683690},{"NoteNumber":59,"Velocity":50,"Duration":122559,"SoundDuration":122559,"Delta":99806249},{"NoteNumber":60,"Velocity":55,"Duration":122558,"SoundDuration":122558,"Delta":99928808},{"NoteNumber":57,"Velocity":45,"Duration":122558,"SoundDuration":122558,"Delta":100051367},{"NoteNumber":63,"Velocity":51,"Duration":247673,"SoundDuration":247673,"Delta":100173926},{"NoteNumber":48,"Velocity":39,"Duration":247673,"SoundDuration":247673,"Delta":100173926},{"NoteNumber":45,"Velocity":33,"Duration":247673,"SoundDuration":247673,"Delta":100173926},{"NoteNumber":60,"Velocity":33,"Duration":125114,"SoundDuration":125114,"Delta":100296485},{"NoteNumber":64,"Velocity":45,"Duration":244808,"SoundDuration":244808,"Delta":100421600},{"NoteNumber":32,"Velocity":35,"Duration":122404,"SoundDuration":122404,"Delta":100544004},{"NoteNumber":47,"Velocity":42,"Duration":122403,"SoundDuration":122403,"Delta":100666408},{"NoteNumber":52,"Velocity":39,"Duration":122404,"SoundDuration":122404,"Delta":100788812},{"NoteNumber":59,"Velocity":40,"Duration":122404,"SoundDuration":122404,"Delta":100911216},{"NoteNumber":63,"Velocity":42,"Duration":122404,"SoundDuration":122404,"Delta":101033620},{"NoteNumber":64,"Velocity":44,"Duration":250286,"SoundDuration":250286,"Delta":101156024},{"NoteNumber":43,"Velocity":36,"Duration":122404,"SoundDuration":122404,"Delta":101283906},{"NoteNumber":59,"Velocity":39,"Duration":122404,"SoundDuration":122404,"Delta":101406310},{"NoteNumber":64,"Velocity":43,"Duration":122403,"SoundDuration":122403,"Delta":101528714},{"NoteNumber":71,"Velocity":48,"Duration":122404,"SoundDuration":122404,"Delta":101651118},{"NoteNumber":75,"Velocity":50,"Duration":122404,"SoundDuration":122404,"Delta":101773522},{"NoteNumber":76,"Velocity":52,"Duration":250014,"SoundDuration":250014,"Delta":101895926},{"NoteNumber":54,"Velocity":36,"Duration":122404,"SoundDuration":122404,"Delta":102023537},{"NoteNumber":67,"Velocity":39,"Duration":122404,"SoundDuration":122404,"Delta":102145941},{"NoteNumber":88,"Velocity":58,"Duration":119751,"SoundDuration":119751,"Delta":102268345},{"NoteNumber":85,"Velocity":57,"Duration":119981,"SoundDuration":119981,"Delta":102388096},{"NoteNumber":82,"Velocity":55,"Duration":120254,"SoundDuration":120254,"Delta":102508077},{"NoteNumber":79,"Velocity":54,"Duration":120526,"SoundDuration":120526,"Delta":102628331},{"NoteNumber":76,"Velocity":54,"Duration":120799,"SoundDuration":120799,"Delta":102748858},{"NoteNumber":73,"Velocity":54,"Duration":121042,"SoundDuration":121042,"Delta":102869657},{"NoteNumber":70,"Velocity":53,"Duration":121318,"SoundDuration":121318,"Delta":102990700},{"NoteNumber":66,"Velocity":50,"Duration":121594,"SoundDuration":121594,"Delta":103112018},{"NoteNumber":62,"Velocity":46,"Duration":121872,"SoundDuration":121872,"Delta":103233613},{"NoteNumber":66,"Velocity":56,"Duration":492531,"SoundDuration":492531,"Delta":103355486},{"NoteNumber":35,"Velocity":44,"Duration":492531,"SoundDuration":492531,"Delta":103355486},{"NoteNumber":47,"Velocity":48,"Duration":492531,"SoundDuration":492531,"Delta":103355486},{"NoteNumber":61,"Velocity":37,"Duration":122559,"SoundDuration":122559,"Delta":103478045},{"NoteNumber":62,"Velocity":42,"Duration":122558,"SoundDuration":122558,"Delta":103600604},{"NoteNumber":59,"Velocity":34,"Duration":124854,"SoundDuration":124854,"Delta":103723163},{"NoteNumber":71,"Velocity":54,"Duration":232862,"SoundDuration":232862,"Delta":103848017},{"NoteNumber":66,"Velocity":39,"Duration":122559,"SoundDuration":122559,"Delta":103970576},{"NoteNumber":71,"Velocity":55,"Duration":490235,"SoundDuration":490235,"Delta":104093135},{"NoteNumber":47,"Velocity":40,"Duration":490235,"SoundDuration":490235,"Delta":104093135},{"NoteNumber":59,"Velocity":48,"Duration":490235,"SoundDuration":490235,"Delta":104093135},{"NoteNumber":65,"Velocity":45,"Duration":122558,"SoundDuration":122558,"Delta":104215694},{"NoteNumber":66,"Velocity":55,"Duration":122559,"SoundDuration":122559,"Delta":104338253},{"NoteNumber":62,"Velocity":46,"Duration":122558,"SoundDuration":122558,"Delta":104460812},{"NoteNumber":74,"Velocity":66,"Duration":247934,"SoundDuration":247934,"Delta":104583371},{"NoteNumber":71,"Velocity":55,"Duration":125376,"SoundDuration":125376,"Delta":104705930},{"NoteNumber":79,"Velocity":73,"Duration":490235,"SoundDuration":490235,"Delta":104831306},{"NoteNumber":67,"Velocity":60,"Duration":490235,"SoundDuration":490235,"Delta":104831306},{"NoteNumber":62,"Velocity":50,"Duration":1103031,"SoundDuration":1103031,"Delta":104831306},{"NoteNumber":59,"Velocity":50,"Duration":1103031,"SoundDuration":1103031,"Delta":104831306},{"NoteNumber":73,"Velocity":56,"Duration":122559,"SoundDuration":122559,"Delta":104953865},{"NoteNumber":74,"Velocity":61,"Duration":122558,"SoundDuration":122558,"Delta":105076424},{"NoteNumber":71,"Velocity":56,"Duration":122558,"SoundDuration":122558,"Delta":105198983},{"NoteNumber":78,"Velocity":68,"Duration":245118,"SoundDuration":245118,"Delta":105321542},{"NoteNumber":66,"Velocity":48,"Duration":245118,"SoundDuration":245118,"Delta":105321542},{"NoteNumber":74,"Velocity":49,"Duration":122558,"SoundDuration":122558,"Delta":105444101},{"NoteNumber":77,"Velocity":68,"Duration":485129,"SoundDuration":485129,"Delta":105566660},{"NoteNumber":65,"Velocity":54,"Duration":490235,"SoundDuration":490235,"Delta":105566660},{"NoteNumber":73,"Velocity":50,"Duration":122559,"SoundDuration":122559,"Delta":105689219},{"NoteNumber":74,"Velocity":55,"Duration":122558,"SoundDuration":122558,"Delta":105811778},{"NoteNumber":71,"Velocity":45,"Duration":122558,"SoundDuration":122558,"Delta":105934337},{"NoteNumber":77,"Velocity":51,"Duration":247673,"SoundDuration":247673,"Delta":106056896},{"NoteNumber":62,"Velocity":39,"Duration":247673,"SoundDuration":247673,"Delta":106056896},{"NoteNumber":59,"Velocity":33,"Duration":247673,"SoundDuration":247673,"Delta":106056896},{"NoteNumber":74,"Velocity":33,"Duration":125114,"SoundDuration":125114,"Delta":106179455},{"NoteNumber":73,"Velocity":45,"Duration":244808,"SoundDuration":244808,"Delta":106304570},{"NoteNumber":78,"Velocity":45,"Duration":244808,"SoundDuration":244808,"Delta":106304570},{"NoteNumber":46,"Velocity":35,"Duration":122404,"SoundDuration":122404,"Delta":106426974},{"NoteNumber":61,"Velocity":42,"Duration":122403,"SoundDuration":122403,"Delta":106549378},{"NoteNumber":66,"Velocity":39,"Duration":122404,"SoundDuration":122404,"Delta":106671782},{"NoteNumber":73,"Velocity":40,"Duration":122404,"SoundDuration":122404,"Delta":106794186},{"NoteNumber":77,"Velocity":42,"Duration":122404,"SoundDuration":122404,"Delta":106916590},{"NoteNumber":78,"Velocity":44,"Duration":250286,"SoundDuration":250286,"Delta":107038994},{"NoteNumber":57,"Velocity":36,"Duration":122404,"SoundDuration":122404,"Delta":107166876},{"NoteNumber":73,"Velocity":39,"Duration":122404,"SoundDuration":122404,"Delta":107289280},{"NoteNumber":78,"Velocity":43,"Duration":122403,"SoundDuration":122403,"Delta":107411684},{"NoteNumber":85,"Velocity":48,"Duration":122404,"SoundDuration":122404,"Delta":107534088},{"NoteNumber":89,"Velocity":50,"Duration":122404,"SoundDuration":122404,"Delta":107656492},{"NoteNumber":90,"Velocity":52,"Duration":250014,"SoundDuration":250014,"Delta":107778896},{"NoteNumber":68,"Velocity":36,"Duration":122404,"SoundDuration":122404,"Delta":107906507},{"NoteNumber":81,"Velocity":39,"Duration":122404,"SoundDuration":122404,"Delta":108028911},{"NoteNumber":87,"Velocity":58,"Duration":119751,"SoundDuration":119751,"Delta":108151315},{"NoteNumber":84,"Velocity":57,"Duration":119981,"SoundDuration":119981,"Delta":108271066},{"NoteNumber":81,"Velocity":55,"Duration":120254,"SoundDuration":120254,"Delta":108391047},{"NoteNumber":78,"Velocity":54,"Duration":120526,"SoundDuration":120526,"Delta":108511301},{"NoteNumber":75,"Velocity":54,"Duration":120799,"SoundDuration":120799,"Delta":108631827},{"NoteNumber":72,"Velocity":54,"Duration":121042,"SoundDuration":121042,"Delta":108752627},{"NoteNumber":69,"Velocity":53,"Duration":121318,"SoundDuration":121318,"Delta":108873669},{"NoteNumber":66,"Velocity":50,"Duration":121594,"SoundDuration":121594,"Delta":108994988},{"NoteNumber":63,"Velocity":46,"Duration":121872,"SoundDuration":121872,"Delta":109116583},{"NoteNumber":61,"Velocity":45,"Duration":244808,"SoundDuration":244808,"Delta":109238455},{"NoteNumber":41,"Velocity":35,"Duration":122404,"SoundDuration":122404,"Delta":109360859},{"NoteNumber":56,"Velocity":42,"Duration":122403,"SoundDuration":122403,"Delta":109483263},{"NoteNumber":61,"Velocity":42,"Duration":122404,"SoundDuration":122404,"Delta":109605667},{"NoteNumber":68,"Velocity":44,"Duration":122404,"SoundDuration":122404,"Delta":109728071},{"NoteNumber":71,"Velocity":46,"Duration":122404,"SoundDuration":122404,"Delta":109850475},{"NoteNumber":70,"Velocity":49,"Duration":250286,"SoundDuration":250286,"Delta":109972879},{"NoteNumber":52,"Velocity":40,"Duration":122404,"SoundDuration":122404,"Delta":110100762},{"NoteNumber":66,"Velocity":44,"Duration":122404,"SoundDuration":122404,"Delta":110223166},{"NoteNumber":73,"Velocity":49,"Duration":122403,"SoundDuration":122403,"Delta":110345570},{"NoteNumber":78,"Velocity":55,"Duration":122404,"SoundDuration":122404,"Delta":110467974},{"NoteNumber":82,"Velocity":57,"Duration":127070,"SoundDuration":127070,"Delta":110590378},{"NoteNumber":85,"Velocity":67,"Duration":122404,"SoundDuration":122404,"Delta":110717448},{"NoteNumber":83,"Velocity":58,"Duration":122404,"SoundDuration":122404,"Delta":110839852},{"NoteNumber":39,"Velocity":40,"Duration":122404,"SoundDuration":122404,"Delta":110839852},{"NoteNumber":54,"Velocity":49,"Duration":122403,"SoundDuration":122403,"Delta":110962256},{"NoteNumber":59,"Velocity":46,"Duration":122404,"SoundDuration":122404,"Delta":111084660},{"NoteNumber":66,"Velocity":47,"Duration":122404,"SoundDuration":122404,"Delta":111207064},{"NoteNumber":69,"Velocity":50,"Duration":122404,"SoundDuration":122404,"Delta":111329468},{"NoteNumber":68,"Velocity":52,"Duration":250286,"SoundDuration":250286,"Delta":111451872},{"NoteNumber":50,"Velocity":43,"Duration":122404,"SoundDuration":122404,"Delta":111579754},{"NoteNumber":64,"Velocity":47,"Duration":122404,"SoundDuration":122404,"Delta":111702158},{"NoteNumber":71,"Velocity":52,"Duration":122403,"SoundDuration":122403,"Delta":111824562},{"NoteNumber":76,"Velocity":59,"Duration":122404,"SoundDuration":122404,"Delta":111946966},{"NoteNumber":80,"Velocity":62,"Duration":126267,"SoundDuration":126267,"Delta":112069370},{"NoteNumber":83,"Velocity":70,"Duration":122404,"SoundDuration":122404,"Delta":112195638},{"NoteNumber":81,"Velocity":62,"Duration":122404,"SoundDuration":122404,"Delta":112318042},{"NoteNumber":37,"Velocity":43,"Duration":122404,"SoundDuration":122404,"Delta":112318042},{"NoteNumber":52,"Velocity":52,"Duration":122403,"SoundDuration":122403,"Delta":112440446},{"NoteNumber":57,"Velocity":49,"Duration":122404,"SoundDuration":122404,"Delta":112562850},{"NoteNumber":64,"Velocity":51,"Duration":122404,"SoundDuration":122404,"Delta":112685254},{"NoteNumber":68,"Velocity":53,"Duration":122404,"SoundDuration":122404,"Delta":112807658},{"NoteNumber":67,"Velocity":56,"Duration":250286,"SoundDuration":250286,"Delta":112930062},{"NoteNumber":49,"Velocity":46,"Duration":122404,"SoundDuration":122404,"Delta":113057945},{"NoteNumber":63,"Velocity":51,"Duration":122404,"SoundDuration":122404,"Delta":113180349},{"NoteNumber":70,"Velocity":56,"Duration":122403,"SoundDuration":122403,"Delta":113302753},{"NoteNumber":75,"Velocity":63,"Duration":122404,"SoundDuration":122404,"Delta":113425157},{"NoteNumber":79,"Velocity":66,"Duration":126267,"SoundDuration":126267,"Delta":113547561},{"NoteNumber":81,"Velocity":73,"Duration":122404,"SoundDuration":122404,"Delta":113673829},{"NoteNumber":80,"Velocity":67,"Duration":122404,"SoundDuration":122404,"Delta":113796233},{"NoteNumber":36,"Velocity":46,"Duration":122404,"SoundDuration":122404,"Delta":113796233},{"NoteNumber":51,"Velocity":56,"Duration":122403,"SoundDuration":122403,"Delta":113918637},{"NoteNumber":56,"Velocity":53,"Duration":122404,"SoundDuration":122404,"Delta":114041041},{"NoteNumber":63,"Velocity":54,"Duration":122404,"SoundDuration":122404,"Delta":114163445},{"NoteNumber":66,"Velocity":57,"Duration":122404,"SoundDuration":122404,"Delta":114285849},{"NoteNumber":65,"Velocity":60,"Duration":250286,"SoundDuration":250286,"Delta":114408253},{"NoteNumber":47,"Velocity":49,"Duration":122404,"SoundDuration":122404,"Delta":114536135},{"NoteNumber":61,"Velocity":54,"Duration":122404,"SoundDuration":122404,"Delta":114658539},{"NoteNumber":71,"Velocity":60,"Duration":122403,"SoundDuration":122403,"Delta":114780943},{"NoteNumber":73,"Velocity":67,"Duration":122404,"SoundDuration":122404,"Delta":114903347},{"NoteNumber":77,"Velocity":70,"Duration":126801,"SoundDuration":126801,"Delta":115025751},{"NoteNumber":80,"Velocity":77,"Duration":122404,"SoundDuration":122404,"Delta":115152553},{"NoteNumber":78,"Velocity":71,"Duration":122404,"SoundDuration":122404,"Delta":115274957},{"NoteNumber":57,"Velocity":50,"Duration":122404,"SoundDuration":122404,"Delta":115274957},{"NoteNumber":61,"Velocity":60,"Duration":122403,"SoundDuration":122403,"Delta":115397361},{"NoteNumber":66,"Velocity":56,"Duration":122404,"SoundDuration":122404,"Delta":115519765},{"NoteNumber":71,"Velocity":58,"Duration":122404,"SoundDuration":122404,"Delta":115642169},{"NoteNumber":56,"Velocity":59,"Duration":244808,"SoundDuration":244808,"Delta":115642169},{"NoteNumber":76,"Velocity":61,"Duration":122404,"SoundDuration":122404,"Delta":115764573},{"NoteNumber":74,"Velocity":64,"Duration":250286,"SoundDuration":250286,"Delta":115886977},{"NoteNumber":54,"Velocity":52,"Duration":122404,"SoundDuration":122404,"Delta":116014859},{"NoteNumber":61,"Velocity":57,"Duration":122404,"SoundDuration":122404,"Delta":116137263},{"NoteNumber":69,"Velocity":64,"Duration":122403,"SoundDuration":122403,"Delta":116259667},{"NoteNumber":68,"Velocity":71,"Duration":122404,"SoundDuration":122404,"Delta":116382071},{"NoteNumber":53,"Velocity":61,"Duration":248938,"SoundDuration":248938,"Delta":116382071},{"NoteNumber":73,"Velocity":75,"Duration":126534,"SoundDuration":126534,"Delta":116504475},{"NoteNumber":80,"Velocity":79,"Duration":122155,"SoundDuration":122155,"Delta":116631009},{"NoteNumber":78,"Velocity":76,"Duration":122154,"SoundDuration":122154,"Delta":116753164},{"NoteNumber":57,"Velocity":53,"Duration":122154,"SoundDuration":122154,"Delta":116753164},{"NoteNumber":61,"Velocity":63,"Duration":122155,"SoundDuration":122155,"Delta":116875319},{"NoteNumber":66,"Velocity":59,"Duration":122154,"SoundDuration":122154,"Delta":116997474},{"NoteNumber":71,"Velocity":61,"Duration":122155,"SoundDuration":122155,"Delta":117119629},{"NoteNumber":56,"Velocity":63,"Duration":244309,"SoundDuration":244309,"Delta":117119629},{"NoteNumber":76,"Velocity":64,"Duration":122154,"SoundDuration":122154,"Delta":117241784},{"NoteNumber":74,"Velocity":68,"Duration":250286,"SoundDuration":250286,"Delta":117363939},{"NoteNumber":54,"Velocity":56,"Duration":122404,"SoundDuration":122404,"Delta":117491822},{"NoteNumber":61,"Velocity":61,"Duration":122404,"SoundDuration":122404,"Delta":117614226},{"NoteNumber":69,"Velocity":67,"Duration":122403,"SoundDuration":122403,"Delta":117736630},{"NoteNumber":68,"Velocity":75,"Duration":122404,"SoundDuration":122404,"Delta":117859034},{"NoteNumber":53,"Velocity":64,"Duration":249205,"SoundDuration":249205,"Delta":117859034},{"NoteNumber":73,"Velocity":79,"Duration":126801,"SoundDuration":126801,"Delta":117981438},{"NoteNumber":71,"Velocity":90,"Duration":244808,"SoundDuration":244808,"Delta":118108239},{"NoteNumber":50,"Velocity":56,"Duration":122404,"SoundDuration":122404,"Delta":118230643},{"NoteNumber":54,"Velocity":67,"Duration":122403,"SoundDuration":122403,"Delta":118353047},{"NoteNumber":59,"Velocity":62,"Duration":122404,"SoundDuration":122404,"Delta":118475451},{"NoteNumber":64,"Velocity":64,"Duration":122404,"SoundDuration":122404,"Delta":118597855},{"NoteNumber":49,"Velocity":65,"Duration":248142,"SoundDuration":248142,"Delta":118597855},{"NoteNumber":55,"Velocity":65,"Duration":248142,"SoundDuration":248142,"Delta":118597855},{"NoteNumber":70,"Velocity":67,"Duration":125738,"SoundDuration":125738,"Delta":118720259},{"NoteNumber":71,"Velocity":70,"Duration":246069,"SoundDuration":246069,"Delta":118845998},{"NoteNumber":50,"Velocity":57,"Duration":122404,"SoundDuration":122404,"Delta":118969663},{"NoteNumber":54,"Velocity":62,"Duration":122404,"SoundDuration":122404,"Delta":119092067},{"NoteNumber":59,"Velocity":68,"Duration":122403,"SoundDuration":122403,"Delta":119214471},{"NoteNumber":64,"Velocity":76,"Duration":122404,"SoundDuration":122404,"Delta":119336875},{"NoteNumber":49,"Velocity":65,"Duration":249205,"SoundDuration":249205,"Delta":119336875},{"NoteNumber":55,"Velocity":65,"Duration":249205,"SoundDuration":249205,"Delta":119336875},{"NoteNumber":70,"Velocity":80,"Duration":126801,"SoundDuration":126801,"Delta":119459279},{"NoteNumber":71,"Velocity":90,"Duration":121413,"SoundDuration":121413,"Delta":119586081},{"NoteNumber":54,"Velocity":56,"Duration":121413,"SoundDuration":121413,"Delta":119586081},{"NoteNumber":50,"Velocity":56,"Duration":121413,"SoundDuration":121413,"Delta":119586081},{"NoteNumber":59,"Velocity":62,"Duration":121413,"SoundDuration":121413,"Delta":119707494},{"NoteNumber":64,"Velocity":66,"Duration":121413,"SoundDuration":121413,"Delta":119828908},{"NoteNumber":49,"Velocity":66,"Duration":242826,"SoundDuration":242826,"Delta":119828908},{"NoteNumber":55,"Velocity":66,"Duration":242826,"SoundDuration":242826,"Delta":119828908},{"NoteNumber":70,"Velocity":72,"Duration":121413,"SoundDuration":121413,"Delta":119950321},{"NoteNumber":71,"Velocity":84,"Duration":121413,"SoundDuration":121413,"Delta":120071735},{"NoteNumber":50,"Velocity":58,"Duration":121413,"SoundDuration":121413,"Delta":120071735},{"NoteNumber":54,"Velocity":58,"Duration":121413,"SoundDuration":121413,"Delta":120071735},{"NoteNumber":59,"Velocity":72,"Duration":125738,"SoundDuration":125738,"Delta":120193148},{"NoteNumber":64,"Velocity":75,"Duration":123665,"SoundDuration":123665,"Delta":120318887},{"NoteNumber":49,"Velocity":69,"Duration":245079,"SoundDuration":245079,"Delta":120318887},{"NoteNumber":55,"Velocity":69,"Duration":245079,"SoundDuration":245079,"Delta":120318887},{"NoteNumber":70,"Velocity":82,"Duration":121413,"SoundDuration":121413,"Delta":120442552},{"NoteNumber":71,"Velocity":89,"Duration":121413,"SoundDuration":121413,"Delta":120563966},{"NoteNumber":50,"Velocity":61,"Duration":121413,"SoundDuration":121413,"Delta":120563966},{"NoteNumber":54,"Velocity":61,"Duration":121413,"SoundDuration":121413,"Delta":120563966},{"NoteNumber":59,"Velocity":77,"Duration":121413,"SoundDuration":121413,"Delta":120685379},{"NoteNumber":64,"Velocity":81,"Duration":121413,"SoundDuration":121413,"Delta":120806793},{"NoteNumber":49,"Velocity":72,"Duration":248215,"SoundDuration":248215,"Delta":120806793},{"NoteNumber":55,"Velocity":72,"Duration":248215,"SoundDuration":248215,"Delta":120806793},{"NoteNumber":70,"Velocity":88,"Duration":126801,"SoundDuration":126801,"Delta":120928206},{"NoteNumber":66,"Velocity":81,"Duration":119478,"SoundDuration":119478,"Delta":121055008},{"NoteNumber":72,"Velocity":103,"Duration":721316,"SoundDuration":721316,"Delta":121055008},{"NoteNumber":50,"Velocity":74,"Duration":721316,"SoundDuration":721316,"Delta":121055008},{"NoteNumber":54,"Velocity":74,"Duration":960751,"SoundDuration":960751,"Delta":121055008},{"NoteNumber":65,"Velocity":67,"Duration":119478,"SoundDuration":119478,"Delta":121174487},{"NoteNumber":66,"Velocity":71,"Duration":119478,"SoundDuration":119478,"Delta":121293966},{"NoteNumber":68,"Velocity":72,"Duration":119478,"SoundDuration":119478,"Delta":121413445},{"NoteNumber":69,"Velocity":78,"Duration":119479,"SoundDuration":119479,"Delta":121532924},{"NoteNumber":68,"Velocity":72,"Duration":123920,"SoundDuration":123920,"Delta":121652403},{"NoteNumber":66,"Velocity":81,"Duration":119717,"SoundDuration":119717,"Delta":121776324},{"NoteNumber":73,"Velocity":103,"Duration":239435,"SoundDuration":239435,"Delta":121776324},{"NoteNumber":49,"Velocity":74,"Duration":239435,"SoundDuration":239435,"Delta":121776324},{"NoteNumber":57,"Velocity":74,"Duration":239435,"SoundDuration":239435,"Delta":121776324},{"NoteNumber":65,"Velocity":70,"Duration":119717,"SoundDuration":119717,"Delta":121896041},{"NoteNumber":66,"Velocity":72,"Duration":119717,"SoundDuration":119717,"Delta":122015759},{"NoteNumber":68,"Velocity":74,"Duration":119717,"SoundDuration":119717,"Delta":122135476},{"NoteNumber":69,"Velocity":76,"Duration":119717,"SoundDuration":119717,"Delta":122255194},{"NoteNumber":68,"Velocity":72,"Duration":124177,"SoundDuration":124177,"Delta":122374911},{"NoteNumber":66,"Velocity":81,"Duration":119478,"SoundDuration":119478,"Delta":122499089},{"NoteNumber":72,"Velocity":103,"Duration":721316,"SoundDuration":721316,"Delta":122499089},{"NoteNumber":50,"Velocity":74,"Duration":721316,"SoundDuration":721316,"Delta":122499089},{"NoteNumber":54,"Velocity":74,"Duration":960751,"SoundDuration":960751,"Delta":122499089},{"NoteNumber":65,"Velocity":67,"Duration":119478,"SoundDuration":119478,"Delta":122618568},{"NoteNumber":66,"Velocity":71,"Duration":119478,"SoundDuration":119478,"Delta":122738047},{"NoteNumber":68,"Velocity":72,"Duration":119478,"SoundDuration":119478,"Delta":122857526},{"NoteNumber":69,"Velocity":78,"Duration":119479,"SoundDuration":119479,"Delta":122977005},{"NoteNumber":68,"Velocity":72,"Duration":123920,"SoundDuration":123920,"Delta":123096484},{"NoteNumber":66,"Velocity":81,"Duration":119717,"SoundDuration":119717,"Delta":123220405},{"NoteNumber":73,"Velocity":103,"Duration":239435,"SoundDuration":239435,"Delta":123220405},{"NoteNumber":49,"Velocity":74,"Duration":239435,"SoundDuration":239435,"Delta":123220405},{"NoteNumber":57,"Velocity":74,"Duration":239435,"SoundDuration":239435,"Delta":123220405},{"NoteNumber":65,"Velocity":70,"Duration":119717,"SoundDuration":119717,"Delta":123340122},{"NoteNumber":66,"Velocity":72,"Duration":119717,"SoundDuration":119717,"Delta":123459840},{"NoteNumber":68,"Velocity":74,"Duration":119717,"SoundDuration":119717,"Delta":123579557},{"NoteNumber":69,"Velocity":76,"Duration":123411,"SoundDuration":123411,"Delta":123699275},{"NoteNumber":68,"Velocity":72,"Duration":134776,"SoundDuration":134776,"Delta":123822686},{"NoteNumber":66,"Velocity":81,"Duration":119478,"SoundDuration":119478,"Delta":123957463},{"NoteNumber":72,"Velocity":103,"Duration":1444080,"SoundDuration":1444080,"Delta":123957463},{"NoteNumber":62,"Velocity":74,"Duration":1444080,"SoundDuration":1444080,"Delta":123957463},{"NoteNumber":65,"Velocity":67,"Duration":119478,"SoundDuration":119478,"Delta":124076942},{"NoteNumber":66,"Velocity":71,"Duration":119478,"SoundDuration":119478,"Delta":124196421},{"NoteNumber":68,"Velocity":72,"Duration":119478,"SoundDuration":119478,"Delta":124315900},{"NoteNumber":69,"Velocity":78,"Duration":119479,"SoundDuration":119479,"Delta":124435379},{"NoteNumber":68,"Velocity":72,"Duration":123920,"SoundDuration":123920,"Delta":124554858},{"NoteNumber":66,"Velocity":52,"Duration":119717,"SoundDuration":119717,"Delta":124678779},{"NoteNumber":65,"Velocity":53,"Duration":119717,"SoundDuration":119717,"Delta":124798496},{"NoteNumber":66,"Velocity":54,"Duration":119717,"SoundDuration":119717,"Delta":124918214},{"NoteNumber":67,"Velocity":55,"Duration":119717,"SoundDuration":119717,"Delta":125037931},{"NoteNumber":69,"Velocity":61,"Duration":119717,"SoundDuration":119717,"Delta":125157649},{"NoteNumber":66,"Velocity":54,"Duration":124177,"SoundDuration":124177,"Delta":125277366},{"NoteNumber":71,"Velocity":62,"Duration":722764,"SoundDuration":722764,"Delta":125401544},{"NoteNumber":69,"Velocity":58,"Duration":119717,"SoundDuration":119717,"Delta":125401544},{"NoteNumber":55,"Velocity":40,"Duration":722764,"SoundDuration":722764,"Delta":125401544},{"NoteNumber":67,"Velocity":47,"Duration":119717,"SoundDuration":119717,"Delta":125521261},{"NoteNumber":66,"Velocity":47,"Duration":119717,"SoundDuration":119717,"Delta":125640979},{"NoteNumber":67,"Velocity":47,"Duration":119717,"SoundDuration":119717,"Delta":125760696},{"NoteNumber":69,"Velocity":54,"Duration":119717,"SoundDuration":119717,"Delta":125880414},{"NoteNumber":67,"Velocity":47,"Duration":124177,"SoundDuration":124177,"Delta":126000131},{"NoteNumber":74,"Velocity":60,"Duration":722764,"SoundDuration":722764,"Delta":126124309},{"NoteNumber":68,"Velocity":56,"Duration":119717,"SoundDuration":119717,"Delta":126124309},{"NoteNumber":52,"Velocity":38,"Duration":722764,"SoundDuration":722764,"Delta":126124309},{"NoteNumber":66,"Velocity":45,"Duration":119717,"SoundDuration":119717,"Delta":126244026},{"NoteNumber":68,"Velocity":45,"Duration":119717,"SoundDuration":119717,"Delta":126363744},{"NoteNumber":69,"Velocity":45,"Duration":119717,"SoundDuration":119717,"Delta":126483461},{"NoteNumber":71,"Velocity":52,"Duration":119717,"SoundDuration":119717,"Delta":126603179},{"NoteNumber":68,"Velocity":45,"Duration":124177,"SoundDuration":124177,"Delta":126722896},{"NoteNumber":73,"Velocity":57,"Duration":722765,"SoundDuration":722765,"Delta":126847074},{"NoteNumber":71,"Velocity":53,"Duration":119717,"SoundDuration":119717,"Delta":126847074},{"NoteNumber":45,"Velocity":37,"Duration":722765,"SoundDuration":722765,"Delta":126847074},{"NoteNumber":69,"Velocity":43,"Duration":119717,"SoundDuration":119717,"Delta":126966791},{"NoteNumber":68,"Velocity":44,"Duration":119717,"SoundDuration":119717,"Delta":127086509},{"NoteNumber":69,"Velocity":44,"Duration":119717,"SoundDuration":119717,"Delta":127206226},{"NoteNumber":71,"Velocity":49,"Duration":119717,"SoundDuration":119717,"Delta":127325944},{"NoteNumber":69,"Velocity":44,"Duration":124177,"SoundDuration":124177,"Delta":127445661},{"NoteNumber":76,"Velocity":55,"Duration":722765,"SoundDuration":722765,"Delta":127569839},{"NoteNumber":70,"Velocity":51,"Duration":119717,"SoundDuration":119717,"Delta":127569839},{"NoteNumber":42,"Velocity":35,"Duration":722765,"SoundDuration":722765,"Delta":127569839},{"NoteNumber":68,"Velocity":42,"Duration":119717,"SoundDuration":119717,"Delta":127689556},{"NoteNumber":70,"Velocity":42,"Duration":119717,"SoundDuration":119717,"Delta":127809274},{"NoteNumber":71,"Velocity":41,"Duration":119717,"SoundDuration":119717,"Delta":127928991},{"NoteNumber":73,"Velocity":47,"Duration":119717,"SoundDuration":119717,"Delta":128048709},{"NoteNumber":70,"Velocity":42,"Duration":124177,"SoundDuration":124177,"Delta":128168426},{"NoteNumber":74,"Velocity":52,"Duration":722765,"SoundDuration":722765,"Delta":128292604},{"NoteNumber":73,"Velocity":49,"Duration":119717,"SoundDuration":119717,"Delta":128292604},{"NoteNumber":35,"Velocity":34,"Duration":722765,"SoundDuration":722765,"Delta":128292604},{"NoteNumber":71,"Velocity":40,"Duration":119717,"SoundDuration":119717,"Delta":128412321},{"NoteNumber":70,"Velocity":40,"Duration":119717,"SoundDuration":119717,"Delta":128532039},{"NoteNumber":71,"Velocity":40,"Duration":119717,"SoundDuration":119717,"Delta":128651756},{"NoteNumber":73,"Velocity":46,"Duration":119717,"SoundDuration":119717,"Delta":128771474},{"NoteNumber":71,"Velocity":41,"Duration":124177,"SoundDuration":124177,"Delta":128891191},{"NoteNumber":73,"Velocity":52,"Duration":722765,"SoundDuration":722765,"Delta":129015369},{"NoteNumber":71,"Velocity":49,"Duration":119717,"SoundDuration":119717,"Delta":129015369},{"NoteNumber":37,"Velocity":34,"Duration":722765,"SoundDuration":722765,"Delta":129015369},{"NoteNumber":69,"Velocity":40,"Duration":119717,"SoundDuration":119717,"Delta":129135086},{"NoteNumber":68,"Velocity":40,"Duration":119717,"SoundDuration":119717,"Delta":129254804},{"NoteNumber":69,"Velocity":40,"Duration":119717,"SoundDuration":119717,"Delta":129374521},{"NoteNumber":71,"Velocity":46,"Duration":119717,"SoundDuration":119717,"Delta":129494239},{"NoteNumber":69,"Velocity":41,"Duration":124177,"SoundDuration":124177,"Delta":129613956},{"NoteNumber":72,"Velocity":52,"Duration":722765,"SoundDuration":722765,"Delta":129738134},{"NoteNumber":69,"Velocity":49,"Duration":119717,"SoundDuration":119717,"Delta":129738134},{"NoteNumber":39,"Velocity":34,"Duration":722765,"SoundDuration":722765,"Delta":129738134},{"NoteNumber":68,"Velocity":40,"Duration":119717,"SoundDuration":119717,"Delta":129857851},{"NoteNumber":67,"Velocity":40,"Duration":119717,"SoundDuration":119717,"Delta":129977569},{"NoteNumber":68,"Velocity":40,"Duration":119717,"SoundDuration":119717,"Delta":130097286},{"NoteNumber":69,"Velocity":46,"Duration":119717,"SoundDuration":119717,"Delta":130217004},{"NoteNumber":68,"Velocity":41,"Duration":124177,"SoundDuration":124177,"Delta":130336721},{"NoteNumber":71,"Velocity":52,"Duration":722765,"SoundDuration":722765,"Delta":130460899},{"NoteNumber":69,"Velocity":49,"Duration":119717,"SoundDuration":119717,"Delta":130460899},{"NoteNumber":41,"Velocity":34,"Duration":722765,"SoundDuration":722765,"Delta":130460899},{"NoteNumber":68,"Velocity":40,"Duration":119717,"SoundDuration":119717,"Delta":130580616},{"NoteNumber":66,"Velocity":40,"Duration":119717,"SoundDuration":119717,"Delta":130700334},{"NoteNumber":68,"Velocity":40,"Duration":119717,"SoundDuration":119717,"Delta":130820051},{"NoteNumber":69,"Velocity":46,"Duration":119717,"SoundDuration":119717,"Delta":130939769},{"NoteNumber":68,"Velocity":41,"Duration":124177,"SoundDuration":124177,"Delta":131059486},{"NoteNumber":70,"Velocity":52,"Duration":722765,"SoundDuration":722765,"Delta":131183664},{"NoteNumber":68,"Velocity":49,"Duration":119717,"SoundDuration":119717,"Delta":131183664},{"NoteNumber":42,"Velocity":34,"Duration":722765,"SoundDuration":722765,"Delta":131183664},{"NoteNumber":66,"Velocity":40,"Duration":119717,"SoundDuration":119717,"Delta":131303381},{"NoteNumber":65,"Velocity":40,"Duration":119717,"SoundDuration":119717,"Delta":131423099},{"NoteNumber":66,"Velocity":40,"Duration":119717,"SoundDuration":119717,"Delta":131542816},{"NoteNumber":68,"Velocity":46,"Duration":119717,"SoundDuration":119717,"Delta":131662534},{"NoteNumber":66,"Velocity":41,"Duration":124177,"SoundDuration":124177,"Delta":131782251},{"NoteNumber":69,"Velocity":52,"Duration":722765,"SoundDuration":722765,"Delta":131906429},{"NoteNumber":68,"Velocity":49,"Duration":119717,"SoundDuration":119717,"Delta":131906429},{"NoteNumber":36,"Velocity":34,"Duration":722765,"SoundDuration":722765,"Delta":131906429},{"NoteNumber":66,"Velocity":40,"Duration":119717,"SoundDuration":119717,"Delta":132026146},{"NoteNumber":65,"Velocity":40,"Duration":119717,"SoundDuration":119717,"Delta":132145864},{"NoteNumber":66,"Velocity":40,"Duration":119717,"SoundDuration":119717,"Delta":132265581},{"NoteNumber":68,"Velocity":46,"Duration":119717,"SoundDuration":119717,"Delta":132385299},{"NoteNumber":66,"Velocity":41,"Duration":124177,"SoundDuration":124177,"Delta":132505016},{"NoteNumber":65,"Velocity":55,"Duration":119717,"SoundDuration":119717,"Delta":132629194},{"NoteNumber":37,"Velocity":63,"Duration":718304,"SoundDuration":718304,"Delta":132629194},{"NoteNumber":61,"Velocity":45,"Duration":119717,"SoundDuration":119717,"Delta":132748911},{"NoteNumber":56,"Velocity":49,"Duration":119717,"SoundDuration":119717,"Delta":132868629},{"NoteNumber":61,"Velocity":47,"Duration":119717,"SoundDuration":119717,"Delta":132988346},{"NoteNumber":65,"Velocity":49,"Duration":119717,"SoundDuration":119717,"Delta":133108064},{"NoteNumber":68,"Velocity":49,"Duration":119717,"SoundDuration":119717,"Delta":133227781},{"NoteNumber":65,"Velocity":57,"Duration":119717,"SoundDuration":119717,"Delta":133347499},{"NoteNumber":41,"Velocity":60,"Duration":239435,"SoundDuration":239435,"Delta":133347499},{"NoteNumber":61,"Velocity":45,"Duration":119717,"SoundDuration":119717,"Delta":133467216},{"NoteNumber":56,"Velocity":49,"Duration":119717,"SoundDuration":119717,"Delta":133586934},{"NoteNumber":44,"Velocity":56,"Duration":239434,"SoundDuration":239434,"Delta":133586934},{"NoteNumber":61,"Velocity":47,"Duration":119717,"SoundDuration":119717,"Delta":133706651},{"NoteNumber":65,"Velocity":46,"Duration":119717,"SoundDuration":119717,"Delta":133826369},{"NoteNumber":47,"Velocity":51,"Duration":206954,"SoundDuration":206954,"Delta":133826369},{"NoteNumber":68,"Velocity":43,"Duration":123157,"SoundDuration":123157,"Delta":133946086},{"NoteNumber":47,"Velocity":56,"Duration":30789,"SoundDuration":30789,"Delta":134038455},{"NoteNumber":66,"Velocity":55,"Duration":119479,"SoundDuration":119479,"Delta":134069244},{"NoteNumber":37,"Velocity":69,"Duration":720049,"SoundDuration":720049,"Delta":134069244},{"NoteNumber":45,"Velocity":69,"Duration":238957,"SoundDuration":238957,"Delta":134069244},{"NoteNumber":61,"Velocity":45,"Duration":119478,"SoundDuration":119478,"Delta":134188723},{"NoteNumber":57,"Velocity":49,"Duration":119479,"SoundDuration":119479,"Delta":134308202},{"NoteNumber":44,"Velocity":64,"Duration":238957,"SoundDuration":238957,"Delta":134308202},{"NoteNumber":61,"Velocity":47,"Duration":119478,"SoundDuration":119478,"Delta":134427681},{"NoteNumber":66,"Velocity":49,"Duration":119479,"SoundDuration":119479,"Delta":134547160},{"NoteNumber":42,"Velocity":54,"Duration":242133,"SoundDuration":242133,"Delta":134547160},{"NoteNumber":69,"Velocity":49,"Duration":122654,"SoundDuration":122654,"Delta":134666639},{"NoteNumber":66,"Velocity":57,"Duration":119479,"SoundDuration":119479,"Delta":134789293},{"NoteNumber":45,"Velocity":64,"Duration":238957,"SoundDuration":238957,"Delta":134789293},{"NoteNumber":63,"Velocity":45,"Duration":119478,"SoundDuration":119478,"Delta":134908772},{"NoteNumber":60,"Velocity":49,"Duration":119479,"SoundDuration":119479,"Delta":135028251},{"NoteNumber":44,"Velocity":59,"Duration":238957,"SoundDuration":238957,"Delta":135028251},{"NoteNumber":63,"Velocity":47,"Duration":119478,"SoundDuration":119478,"Delta":135147730},{"NoteNumber":66,"Velocity":46,"Duration":119479,"SoundDuration":119479,"Delta":135267209},{"NoteNumber":42,"Velocity":59,"Duration":242637,"SoundDuration":242637,"Delta":135267209},{"NoteNumber":69,"Velocity":43,"Duration":123157,"SoundDuration":123157,"Delta":135386688},{"NoteNumber":68,"Velocity":55,"Duration":119717,"SoundDuration":119717,"Delta":135509846},{"NoteNumber":37,"Velocity":59,"Duration":478870,"SoundDuration":478870,"Delta":135509846},{"NoteNumber":49,"Velocity":63,"Duration":718304,"SoundDuration":718304,"Delta":135509846},{"NoteNumber":65,"Velocity":45,"Duration":119717,"SoundDuration":119717,"Delta":135629564},{"NoteNumber":61,"Velocity":49,"Duration":119717,"SoundDuration":119717,"Delta":135749281},{"NoteNumber":65,"Velocity":47,"Duration":119717,"SoundDuration":119717,"Delta":135868999},{"NoteNumber":68,"Velocity":49,"Duration":119717,"SoundDuration":119717,"Delta":135988716},{"NoteNumber":73,"Velocity":49,"Duration":119717,"SoundDuration":119717,"Delta":136108434},{"NoteNumber":68,"Velocity":57,"Duration":119717,"SoundDuration":119717,"Delta":136228151},{"NoteNumber":50,"Velocity":60,"Duration":239435,"SoundDuration":239435,"Delta":136228151},{"NoteNumber":65,"Velocity":45,"Duration":119717,"SoundDuration":119717,"Delta":136347869},{"NoteNumber":61,"Velocity":49,"Duration":119717,"SoundDuration":119717,"Delta":136467586},{"NoteNumber":49,"Velocity":56,"Duration":239434,"SoundDuration":239434,"Delta":136467586},{"NoteNumber":65,"Velocity":47,"Duration":119717,"SoundDuration":119717,"Delta":136587304},{"NoteNumber":68,"Velocity":46,"Duration":119717,"SoundDuration":119717,"Delta":136707021},{"NoteNumber":47,"Velocity":51,"Duration":206954,"SoundDuration":206954,"Delta":136707021},{"NoteNumber":73,"Velocity":43,"Duration":123157,"SoundDuration":123157,"Delta":136826739},{"NoteNumber":47,"Velocity":56,"Duration":30789,"SoundDuration":30789,"Delta":136919107},{"NoteNumber":69,"Velocity":55,"Duration":119479,"SoundDuration":119479,"Delta":136949897},{"NoteNumber":45,"Velocity":69,"Duration":238957,"SoundDuration":238957,"Delta":136949897},{"NoteNumber":66,"Velocity":45,"Duration":119478,"SoundDuration":119478,"Delta":137069376},{"NoteNumber":61,"Velocity":49,"Duration":119479,"SoundDuration":119479,"Delta":137188855},{"NoteNumber":44,"Velocity":64,"Duration":238957,"SoundDuration":238957,"Delta":137188855},{"NoteNumber":66,"Velocity":47,"Duration":119478,"SoundDuration":119478,"Delta":137308334},{"NoteNumber":69,"Velocity":49,"Duration":119479,"SoundDuration":119479,"Delta":137427813},{"NoteNumber":42,"Velocity":54,"Duration":242133,"SoundDuration":242133,"Delta":137427813},{"NoteNumber":73,"Velocity":49,"Duration":122654,"SoundDuration":122654,"Delta":137547292},{"NoteNumber":69,"Velocity":57,"Duration":119479,"SoundDuration":119479,"Delta":137669946},{"NoteNumber":45,"Velocity":64,"Duration":238957,"SoundDuration":238957,"Delta":137669946},{"NoteNumber":66,"Velocity":45,"Duration":119478,"SoundDuration":119478,"Delta":137789425},{"NoteNumber":63,"Velocity":49,"Duration":119479,"SoundDuration":119479,"Delta":137908904},{"NoteNumber":44,"Velocity":59,"Duration":238957,"SoundDuration":238957,"Delta":137908904},{"NoteNumber":66,"Velocity":47,"Duration":119478,"SoundDuration":119478,"Delta":138028383},{"NoteNumber":69,"Velocity":46,"Duration":119479,"SoundDuration":119479,"Delta":138147862},{"NoteNumber":42,"Velocity":59,"Duration":242637,"SoundDuration":242637,"Delta":138147862},{"NoteNumber":72,"Velocity":43,"Duration":123157,"SoundDuration":123157,"Delta":138267341},{"NoteNumber":73,"Velocity":55,"Duration":119717,"SoundDuration":119717,"Delta":138390499},{"NoteNumber":37,"Velocity":59,"Duration":957739,"SoundDuration":957739,"Delta":138390499},{"NoteNumber":44,"Velocity":63,"Duration":957739,"SoundDuration":957739,"Delta":138390499},{"NoteNumber":68,"Velocity":45,"Duration":119717,"SoundDuration":119717,"Delta":138510216},{"NoteNumber":65,"Velocity":49,"Duration":119717,"SoundDuration":119717,"Delta":138629934},{"NoteNumber":68,"Velocity":47,"Duration":119717,"SoundDuration":119717,"Delta":138749651},{"NoteNumber":73,"Velocity":49,"Duration":119717,"SoundDuration":119717,"Delta":138869369},{"NoteNumber":77,"Velocity":49,"Duration":119717,"SoundDuration":119717,"Delta":138989086},{"NoteNumber":80,"Velocity":55,"Duration":119717,"SoundDuration":119717,"Delta":139108804},{"NoteNumber":77,"Velocity":45,"Duration":119717,"SoundDuration":119717,"Delta":139228521},{"NoteNumber":83,"Velocity":55,"Duration":119717,"SoundDuration":119717,"Delta":139348239},{"NoteNumber":80,"Velocity":53,"Duration":119717,"SoundDuration":119717,"Delta":139467956},{"NoteNumber":78,"Velocity":49,"Duration":119717,"SoundDuration":119717,"Delta":139587674},{"NoteNumber":49,"Velocity":59,"Duration":239434,"SoundDuration":239434,"Delta":139587674},{"NoteNumber":77,"Velocity":49,"Duration":119717,"SoundDuration":119717,"Delta":139707391},{"NoteNumber":85,"Velocity":69,"Duration":122403,"SoundDuration":122403,"Delta":139827109},{"NoteNumber":54,"Velocity":64,"Duration":979231,"SoundDuration":979231,"Delta":139827109},{"NoteNumber":46,"Velocity":64,"Duration":489616,"SoundDuration":489616,"Delta":139827109},{"NoteNumber":83,"Velocity":63,"Duration":122404,"SoundDuration":122404,"Delta":139949513},{"NoteNumber":82,"Velocity":59,"Duration":122403,"SoundDuration":122403,"Delta":140071917},{"NoteNumber":80,"Velocity":58,"Duration":122404,"SoundDuration":122404,"Delta":140194321},{"NoteNumber":78,"Velocity":56,"Duration":122403,"SoundDuration":122403,"Delta":140316725},{"NoteNumber":77,"Velocity":49,"Duration":122403,"SoundDuration":122403,"Delta":140439129},{"NoteNumber":78,"Velocity":55,"Duration":122404,"SoundDuration":122404,"Delta":140561533},{"NoteNumber":51,"Velocity":58,"Duration":488127,"SoundDuration":488127,"Delta":140561533},{"NoteNumber":75,"Velocity":53,"Duration":122403,"SoundDuration":122403,"Delta":140683937},{"NoteNumber":72,"Velocity":51,"Duration":121659,"SoundDuration":121659,"Delta":140806341},{"NoteNumber":53,"Velocity":62,"Duration":243319,"SoundDuration":243319,"Delta":140806341},{"NoteNumber":68,"Velocity":51,"Duration":121659,"SoundDuration":121659,"Delta":140928000},{"NoteNumber":66,"Velocity":48,"Duration":121659,"SoundDuration":121659,"Delta":141049660},{"NoteNumber":54,"Velocity":70,"Duration":246352,"SoundDuration":246352,"Delta":141049660},{"NoteNumber":63,"Velocity":46,"Duration":124693,"SoundDuration":124693,"Delta":141171319},{"NoteNumber":71,"Velocity":61,"Duration":122403,"SoundDuration":122403,"Delta":141296013},{"NoteNumber":65,"Velocity":61,"Duration":122403,"SoundDuration":122403,"Delta":141296013},{"NoteNumber":56,"Velocity":72,"Duration":734423,"SoundDuration":734423,"Delta":141296013},{"NoteNumber":49,"Velocity":72,"Duration":489616,"SoundDuration":489616,"Delta":141296013},{"NoteNumber":68,"Velocity":51,"Duration":122404,"SoundDuration":122404,"Delta":141418417},{"NoteNumber":65,"Velocity":48,"Duration":122403,"SoundDuration":122403,"Delta":141540821},{"NoteNumber":61,"Velocity":47,"Duration":122404,"SoundDuration":122404,"Delta":141663225},{"NoteNumber":60,"Velocity":46,"Duration":122403,"SoundDuration":122403,"Delta":141785629},{"NoteNumber":59,"Velocity":43,"Duration":122403,"SoundDuration":122403,"Delta":141908033},{"NoteNumber":58,"Velocity":49,"Duration":122404,"SoundDuration":122404,"Delta":142030437},{"NoteNumber":54,"Velocity":54,"Duration":489616,"SoundDuration":489616,"Delta":142030437},{"NoteNumber":58,"Velocity":54,"Duration":739360,"SoundDuration":739360,"Delta":142030437},{"NoteNumber":61,"Velocity":42,"Duration":122403,"SoundDuration":122403,"Delta":142152841},{"NoteNumber":64,"Velocity":45,"Duration":122404,"SoundDuration":122404,"Delta":142275245},{"NoteNumber":76,"Velocity":46,"Duration":122403,"SoundDuration":122403,"Delta":142397649},{"NoteNumber":73,"Velocity":48,"Duration":122403,"SoundDuration":122403,"Delta":142520053},{"NoteNumber":70,"Velocity":52,"Duration":127340,"SoundDuration":127340,"Delta":142642457},{"NoteNumber":67,"Velocity":54,"Duration":121168,"SoundDuration":121168,"Delta":142769797},{"NoteNumber":47,"Velocity":73,"Duration":484671,"SoundDuration":484671,"Delta":142769797},{"NoteNumber":61,"Velocity":73,"Duration":242335,"SoundDuration":242335,"Delta":142769797},{"NoteNumber":63,"Velocity":38,"Duration":121167,"SoundDuration":121167,"Delta":142879353},{"NoteNumber":68,"Velocity":45,"Duration":121168,"SoundDuration":121168,"Delta":143012133},{"NoteNumber":59,"Velocity":62,"Duration":242335,"SoundDuration":242335,"Delta":143012133},{"NoteNumber":63,"Velocity":38,"Duration":121167,"SoundDuration":121167,"Delta":143133301},{"NoteNumber":70,"Velocity":43,"Duration":122154,"SoundDuration":122154,"Delta":143254469},{"NoteNumber":58,"Velocity":54,"Duration":247893,"SoundDuration":247893,"Delta":143254469},{"NoteNumber":63,"Velocity":38,"Duration":125738,"SoundDuration":125738,"Delta":143376624},{"NoteNumber":71,"Velocity":50,"Duration":121413,"SoundDuration":121413,"Delta":143502362},{"NoteNumber":49,"Velocity":66,"Duration":485654,"SoundDuration":485654,"Delta":143502362},{"NoteNumber":56,"Velocity":66,"Duration":242827,"SoundDuration":242827,"Delta":143502362},{"NoteNumber":65,"Velocity":38,"Duration":121413,"SoundDuration":121413,"Delta":143623776},{"NoteNumber":61,"Velocity":43,"Duration":121413,"SoundDuration":121413,"Delta":143745189},{"NoteNumber":58,"Velocity":49,"Duration":242827,"SoundDuration":242827,"Delta":143745189},{"NoteNumber":65,"Velocity":38,"Duration":121413,"SoundDuration":121413,"Delta":143866603},{"NoteNumber":59,"Velocity":45,"Duration":124435,"SoundDuration":124435,"Delta":143988016},{"NoteNumber":56,"Velocity":41,"Duration":252317,"SoundDuration":252317,"Delta":143988016},{"NoteNumber":65,"Velocity":37,"Duration":127882,"SoundDuration":127882,"Delta":144112451},{"NoteNumber":58,"Velocity":45,"Duration":122654,"SoundDuration":122654,"Delta":144240334},{"NoteNumber":54,"Velocity":50,"Duration":1103885,"SoundDuration":1103885,"Delta":144240334},{"NoteNumber":61,"Velocity":33,"Duration":122653,"SoundDuration":122653,"Delta":144362988},{"NoteNumber":66,"Velocity":33,"Duration":122654,"SoundDuration":122654,"Delta":144485642},{"NoteNumber":70,"Velocity":33,"Duration":122654,"SoundDuration":122654,"Delta":144615451},{"NoteNumber":66,"Velocity":33,"Duration":122654,"SoundDuration":122654,"Delta":144730950},{"NoteNumber":61,"Velocity":33,"Duration":122654,"SoundDuration":122654,"Delta":144853604},{"NoteNumber":58,"Velocity":36,"Duration":122653,"SoundDuration":122653,"Delta":144976258},{"NoteNumber":56,"Velocity":31,"Duration":122654,"SoundDuration":122654,"Delta":145098912},{"NoteNumber":54,"Velocity":34,"Duration":249993,"SoundDuration":249993,"Delta":145221566},{"NoteNumber":49,"Velocity":31,"Duration":127340,"SoundDuration":127340,"Delta":145344220},{"NoteNumber":61,"Velocity":59,"Duration":484242,"SoundDuration":484242,"Delta":145471560},{"NoteNumber":46,"Velocity":31,"Duration":119717,"SoundDuration":119717,"Delta":145471560},{"NoteNumber":42,"Velocity":26,"Duration":119717,"SoundDuration":119717,"Delta":145591277},{"NoteNumber":66,"Velocity":64,"Duration":979231,"SoundDuration":979231,"Delta":145710995},{"NoteNumber":39,"Velocity":42,"Duration":122403,"SoundDuration":122403,"Delta":145710995},{"NoteNumber":51,"Velocity":31,"Duration":122404,"SoundDuration":122404,"Delta":145833399},{"NoteNumber":63,"Velocity":55,"Duration":244808,"SoundDuration":244808,"Delta":145955803},{"NoteNumber":54,"Velocity":37,"Duration":122403,"SoundDuration":122403,"Delta":145955803},{"NoteNumber":58,"Velocity":31,"Duration":122404,"SoundDuration":122404,"Delta":146078207},{"NoteNumber":61,"Velocity":55,"Duration":244807,"SoundDuration":244807,"Delta":146200611},{"NoteNumber":54,"Velocity":37,"Duration":122403,"SoundDuration":122403,"Delta":146200611},{"NoteNumber":51,"Velocity":31,"Duration":122403,"SoundDuration":122403,"Delta":146323015},{"NoteNumber":60,"Velocity":58,"Duration":734480,"SoundDuration":734480,"Delta":146445419},{"NoteNumber":39,"Velocity":40,"Duration":122404,"SoundDuration":122404,"Delta":146445419},{"NoteNumber":51,"Velocity":31,"Duration":122403,"SoundDuration":122403,"Delta":146567823},{"NoteNumber":65,"Velocity":62,"Duration":243319,"SoundDuration":243319,"Delta":146690227},{"NoteNumber":54,"Velocity":49,"Duration":121659,"SoundDuration":121659,"Delta":146690227},{"NoteNumber":56,"Velocity":39,"Duration":121659,"SoundDuration":121659,"Delta":146811886},{"NoteNumber":66,"Velocity":70,"Duration":246352,"SoundDuration":246352,"Delta":146933546},{"NoteNumber":54,"Velocity":50,"Duration":121659,"SoundDuration":121659,"Delta":146933546},{"NoteNumber":51,"Velocity":47,"Duration":124693,"SoundDuration":124693,"Delta":147055205},{"NoteNumber":59,"Velocity":58,"Duration":734423,"SoundDuration":734423,"Delta":147179899},{"NoteNumber":68,"Velocity":72,"Duration":734423,"SoundDuration":734423,"Delta":147179899},{"NoteNumber":65,"Velocity":60,"Duration":734423,"SoundDuration":734423,"Delta":147179899},{"NoteNumber":37,"Velocity":61,"Duration":122403,"SoundDuration":122403,"Delta":147179899},{"NoteNumber":51,"Velocity":45,"Duration":122404,"SoundDuration":122404,"Delta":147302303},{"NoteNumber":49,"Velocity":44,"Duration":122403,"SoundDuration":122403,"Delta":147424707},{"NoteNumber":47,"Velocity":38,"Duration":122404,"SoundDuration":122404,"Delta":147547111},{"NoteNumber":46,"Velocity":50,"Duration":122403,"SoundDuration":122403,"Delta":147669515},{"NoteNumber":44,"Velocity":31,"Duration":122403,"SoundDuration":122403,"Delta":147791919},{"NoteNumber":58,"Velocity":54,"Duration":739360,"SoundDuration":739360,"Delta":147914323},{"NoteNumber":64,"Velocity":54,"Duration":739360,"SoundDuration":739360,"Delta":147914323},{"NoteNumber":70,"Velocity":54,"Duration":739360,"SoundDuration":739360,"Delta":147914323},{"NoteNumber":42,"Velocity":49,"Duration":122404,"SoundDuration":122404,"Delta":147914323},{"NoteNumber":49,"Velocity":31,"Duration":122403,"SoundDuration":122403,"Delta":148036727},{"NoteNumber":52,"Velocity":39,"Duration":122404,"SoundDuration":122404,"Delta":148159131},{"NoteNumber":54,"Velocity":31,"Duration":122403,"SoundDuration":122403,"Delta":148281535},{"NoteNumber":52,"Velocity":38,"Duration":122403,"SoundDuration":122403,"Delta":148403939},{"NoteNumber":49,"Velocity":31,"Duration":127340,"SoundDuration":127340,"Delta":148526343},{"NoteNumber":70,"Velocity":62,"Duration":242335,"SoundDuration":242335,"Delta":148653683},{"NoteNumber":63,"Velocity":62,"Duration":732565,"SoundDuration":732565,"Delta":148653683},{"NoteNumber":73,"Velocity":73,"Duration":242335,"SoundDuration":242335,"Delta":148653683},{"NoteNumber":47,"Velocity":52,"Duration":121168,"SoundDuration":121168,"Delta":148653683},{"NoteNumber":51,"Velocity":31,"Duration":121167,"SoundDuration":121167,"Delta":148774851},{"NoteNumber":68,"Velocity":52,"Duration":242335,"SoundDuration":242335,"Delta":148896019},{"NoteNumber":71,"Velocity":62,"Duration":242335,"SoundDuration":242335,"Delta":148896019},{"NoteNumber":56,"Velocity":45,"Duration":121168,"SoundDuration":121168,"Delta":148896019},{"NoteNumber":51,"Velocity":31,"Duration":121167,"SoundDuration":121167,"Delta":149017187},{"NoteNumber":66,"Velocity":45,"Duration":247893,"SoundDuration":247893,"Delta":149138355},{"NoteNumber":70,"Velocity":54,"Duration":247893,"SoundDuration":247893,"Delta":149138355},{"NoteNumber":58,"Velocity":46,"Duration":122154,"SoundDuration":122154,"Delta":149138355},{"NoteNumber":51,"Velocity":33,"Duration":125738,"SoundDuration":125738,"Delta":149260510},{"NoteNumber":65,"Velocity":66,"Duration":737971,"SoundDuration":737971,"Delta":149386248},{"NoteNumber":68,"Velocity":66,"Duration":242827,"SoundDuration":242827,"Delta":149386248},{"NoteNumber":59,"Velocity":55,"Duration":121413,"SoundDuration":121413,"Delta":149386248},{"NoteNumber":49,"Velocity":48,"Duration":121413,"SoundDuration":121413,"Delta":149507662},{"NoteNumber":70,"Velocity":49,"Duration":242827,"SoundDuration":242827,"Delta":149629075},{"NoteNumber":61,"Velocity":43,"Duration":121413,"SoundDuration":121413,"Delta":149629075},{"NoteNumber":49,"Velocity":37,"Duration":121413,"SoundDuration":121413,"Delta":149750489},{"NoteNumber":68,"Velocity":41,"Duration":252317,"SoundDuration":252317,"Delta":149871902},{"NoteNumber":59,"Velocity":45,"Duration":124435,"SoundDuration":124435,"Delta":149871902},{"NoteNumber":49,"Velocity":40,"Duration":127882,"SoundDuration":127882,"Delta":149996337},{"NoteNumber":66,"Velocity":50,"Duration":245307,"SoundDuration":245307,"Delta":150124220},{"NoteNumber":42,"Velocity":46,"Duration":122654,"SoundDuration":122654,"Delta":150124220},{"NoteNumber":54,"Velocity":39,"Duration":122653,"SoundDuration":122653,"Delta":150246874},{"NoteNumber":58,"Velocity":43,"Duration":122654,"SoundDuration":122654,"Delta":150369528},{"NoteNumber":54,"Velocity":37,"Duration":122653,"SoundDuration":122653,"Delta":150492182},{"NoteNumber":78,"Velocity":58,"Duration":245308,"SoundDuration":245308,"Delta":150614836},{"NoteNumber":66,"Velocity":49,"Duration":245308,"SoundDuration":245308,"Delta":150614836},{"NoteNumber":58,"Velocity":48,"Duration":122654,"SoundDuration":122654,"Delta":150614836},{"NoteNumber":54,"Velocity":40,"Duration":122654,"SoundDuration":122654,"Delta":150737490},{"NoteNumber":68,"Velocity":58,"Duration":495301,"SoundDuration":495301,"Delta":150860144},{"NoteNumber":77,"Velocity":58,"Duration":495301,"SoundDuration":495301,"Delta":150860144},{"NoteNumber":80,"Velocity":69,"Duration":495301,"SoundDuration":495301,"Delta":150860144},{"NoteNumber":59,"Velocity":56,"Duration":122653,"SoundDuration":122653,"Delta":150860144},{"NoteNumber":54,"Velocity":46,"Duration":122654,"SoundDuration":122654,"Delta":150982798},{"NoteNumber":59,"Velocity":58,"Duration":122653,"SoundDuration":122653,"Delta":151105452},{"NoteNumber":54,"Velocity":48,"Duration":127340,"SoundDuration":127340,"Delta":151228106},{"NoteNumber":70,"Velocity":62,"Duration":249374,"SoundDuration":249374,"Delta":151355446},{"NoteNumber":76,"Velocity":62,"Duration":249374,"SoundDuration":249374,"Delta":151355446},{"NoteNumber":82,"Velocity":73,"Duration":249374,"SoundDuration":249374,"Delta":151355446},{"NoteNumber":61,"Velocity":67,"Duration":127340,"SoundDuration":127340,"Delta":151355446},{"NoteNumber":54,"Velocity":56,"Duration":127340,"SoundDuration":127340,"Delta":151482786},{"NoteNumber":85,"Velocity":89,"Duration":242335,"SoundDuration":242335,"Delta":151610126},{"NoteNumber":82,"Velocity":75,"Duration":242335,"SoundDuration":242335,"Delta":151610126},{"NoteNumber":73,"Velocity":75,"Duration":242335,"SoundDuration":242335,"Delta":151610126},{"NoteNumber":47,"Velocity":65,"Duration":732565,"SoundDuration":732565,"Delta":151610126},{"NoteNumber":55,"Velocity":72,"Duration":121168,"SoundDuration":121168,"Delta":151610126},{"NoteNumber":51,"Velocity":51,"Duration":121167,"SoundDuration":121167,"Delta":151731294},{"NoteNumber":83,"Velocity":76,"Duration":242335,"SoundDuration":242335,"Delta":151852462},{"NoteNumber":80,"Velocity":64,"Duration":242335,"SoundDuration":242335,"Delta":151852462},{"NoteNumber":71,"Velocity":63,"Duration":242335,"SoundDuration":242335,"Delta":151852462},{"NoteNumber":56,"Velocity":58,"Duration":121168,"SoundDuration":121168,"Delta":151852462},{"NoteNumber":51,"Velocity":48,"Duration":121167,"SoundDuration":121167,"Delta":151973630},{"NoteNumber":82,"Velocity":70,"Duration":247893,"SoundDuration":247893,"Delta":152094798},{"NoteNumber":78,"Velocity":70,"Duration":247893,"SoundDuration":247893,"Delta":152094798},{"NoteNumber":58,"Velocity":55,"Duration":122154,"SoundDuration":122154,"Delta":152094798},{"NoteNumber":51,"Velocity":47,"Duration":125738,"SoundDuration":125738,"Delta":152216953},{"NoteNumber":77,"Velocity":82,"Duration":737971,"SoundDuration":737971,"Delta":152342691},{"NoteNumber":80,"Velocity":82,"Duration":242827,"SoundDuration":242827,"Delta":152342691},{"NoteNumber":59,"Velocity":64,"Duration":121413,"SoundDuration":121413,"Delta":152342691},{"NoteNumber":49,"Velocity":49,"Duration":121413,"SoundDuration":121413,"Delta":152464105},{"NoteNumber":82,"Velocity":75,"Duration":242827,"SoundDuration":242827,"Delta":152585518},{"NoteNumber":61,"Velocity":55,"Duration":121413,"SoundDuration":121413,"Delta":152585518},{"NoteNumber":49,"Velocity":48,"Duration":121413,"SoundDuration":121413,"Delta":152706932},{"NoteNumber":80,"Velocity":68,"Duration":252317,"SoundDuration":252317,"Delta":152828345},{"NoteNumber":59,"Velocity":54,"Duration":124435,"SoundDuration":124435,"Delta":152828345},{"NoteNumber":49,"Velocity":41,"Duration":127882,"SoundDuration":127882,"Delta":152952780},{"NoteNumber":78,"Velocity":90,"Duration":245307,"SoundDuration":245307,"Delta":153080663},{"NoteNumber":54,"Velocity":54,"Duration":122653,"SoundDuration":122653,"Delta":153203317},{"NoteNumber":53,"Velocity":54,"Duration":122654,"SoundDuration":122654,"Delta":153325971},{"NoteNumber":54,"Velocity":54,"Duration":122653,"SoundDuration":122653,"Delta":153448625},{"NoteNumber":66,"Velocity":73,"Duration":248130,"SoundDuration":248130,"Delta":153571279},{"NoteNumber":78,"Velocity":86,"Duration":248130,"SoundDuration":248130,"Delta":153571279},{"NoteNumber":70,"Velocity":73,"Duration":248130,"SoundDuration":248130,"Delta":153571279},{"NoteNumber":58,"Velocity":54,"Duration":122654,"SoundDuration":122654,"Delta":153571279},{"NoteNumber":54,"Velocity":51,"Duration":125475,"SoundDuration":125475,"Delta":153693933},{"NoteNumber":68,"Velocity":77,"Duration":488619,"SoundDuration":488619,"Delta":153819409},{"NoteNumber":80,"Velocity":91,"Duration":488619,"SoundDuration":488619,"Delta":153819409},{"NoteNumber":71,"Velocity":77,"Duration":488619,"SoundDuration":488619,"Delta":153819409},{"NoteNumber":53,"Velocity":55,"Duration":122154,"SoundDuration":122154,"Delta":153819409},{"NoteNumber":54,"Velocity":55,"Duration":122155,"SoundDuration":122155,"Delta":153941564},{"NoteNumber":53,"Velocity":57,"Duration":122154,"SoundDuration":122154,"Delta":154063719},{"NoteNumber":54,"Velocity":60,"Duration":122154,"SoundDuration":122154,"Delta":154185874},{"NoteNumber":70,"Velocity":80,"Duration":251587,"SoundDuration":251587,"Delta":154308029},{"NoteNumber":82,"Velocity":95,"Duration":251587,"SoundDuration":251587,"Delta":154308029},{"NoteNumber":73,"Velocity":80,"Duration":251587,"SoundDuration":251587,"Delta":154308029},{"NoteNumber":52,"Velocity":61,"Duration":123157,"SoundDuration":123157,"Delta":154308029},{"NoteNumber":54,"Velocity":65,"Duration":128430,"SoundDuration":128430,"Delta":154431187},{"NoteNumber":73,"Velocity":82,"Duration":242335,"SoundDuration":242335,"Delta":154559617},{"NoteNumber":78,"Velocity":97,"Duration":242335,"SoundDuration":242335,"Delta":154559617},{"NoteNumber":85,"Velocity":97,"Duration":242335,"SoundDuration":242335,"Delta":154559617},{"NoteNumber":51,"Velocity":75,"Duration":121168,"SoundDuration":121168,"Delta":154559617},{"NoteNumber":54,"Velocity":53,"Duration":121167,"SoundDuration":121167,"Delta":154680785},{"NoteNumber":71,"Velocity":75,"Duration":242335,"SoundDuration":242335,"Delta":154801953},{"NoteNumber":83,"Velocity":89,"Duration":242335,"SoundDuration":242335,"Delta":154801953},{"NoteNumber":59,"Velocity":60,"Duration":121168,"SoundDuration":121168,"Delta":154801953},{"NoteNumber":54,"Velocity":50,"Duration":121167,"SoundDuration":121167,"Delta":154923121},{"NoteNumber":70,"Velocity":69,"Duration":242654,"SoundDuration":242654,"Delta":155044289},{"NoteNumber":82,"Velocity":82,"Duration":242654,"SoundDuration":242654,"Delta":155044289},{"NoteNumber":49,"Velocity":57,"Duration":122154,"SoundDuration":122154,"Delta":155044289},{"NoteNumber":54,"Velocity":49,"Duration":125738,"SoundDuration":125738,"Delta":155166444},{"NoteNumber":70,"Velocity":76,"Duration":242827,"SoundDuration":242827,"Delta":155292182},{"NoteNumber":75,"Velocity":90,"Duration":242827,"SoundDuration":242827,"Delta":155292182},{"NoteNumber":82,"Velocity":90,"Duration":242827,"SoundDuration":242827,"Delta":155292182},{"NoteNumber":48,"Velocity":63,"Duration":121413,"SoundDuration":121413,"Delta":155292182},{"NoteNumber":54,"Velocity":47,"Duration":121413,"SoundDuration":121413,"Delta":155413596},{"NoteNumber":68,"Velocity":69,"Duration":242827,"SoundDuration":242827,"Delta":155535009},{"NoteNumber":80,"Velocity":81,"Duration":242827,"SoundDuration":242827,"Delta":155535009},{"NoteNumber":56,"Velocity":52,"Duration":121413,"SoundDuration":121413,"Delta":155535009},{"NoteNumber":54,"Velocity":45,"Duration":121413,"SoundDuration":121413,"Delta":155656423},{"NoteNumber":78,"Velocity":71,"Duration":246989,"SoundDuration":246989,"Delta":155777836},{"NoteNumber":66,"Velocity":60,"Duration":246989,"SoundDuration":246989,"Delta":155777836},{"NoteNumber":48,"Velocity":49,"Duration":124435,"SoundDuration":124435,"Delta":155777836},{"NoteNumber":54,"Velocity":37,"Duration":127882,"SoundDuration":127882,"Delta":155902271},{"NoteNumber":66,"Velocity":69,"Duration":242335,"SoundDuration":242335,"Delta":156030154},{"NoteNumber":78,"Velocity":82,"Duration":242335,"SoundDuration":242335,"Delta":156030154},{"NoteNumber":49,"Velocity":63,"Duration":121168,"SoundDuration":121168,"Delta":156030154},{"NoteNumber":56,"Velocity":44,"Duration":121167,"SoundDuration":121167,"Delta":156151322},{"NoteNumber":77,"Velocity":72,"Duration":242335,"SoundDuration":242335,"Delta":156272490},{"NoteNumber":65,"Velocity":61,"Duration":242335,"SoundDuration":242335,"Delta":156272490},{"NoteNumber":59,"Velocity":49,"Duration":121168,"SoundDuration":121168,"Delta":156272490},{"NoteNumber":56,"Velocity":40,"Duration":121167,"SoundDuration":121167,"Delta":156393658},{"NoteNumber":63,"Velocity":54,"Duration":242654,"SoundDuration":242654,"Delta":156514826},{"NoteNumber":75,"Velocity":64,"Duration":242654,"SoundDuration":242654,"Delta":156514826},{"NoteNumber":51,"Velocity":45,"Duration":122154,"SoundDuration":122154,"Delta":156514826},{"NoteNumber":59,"Velocity":45,"Duration":122154,"SoundDuration":122154,"Delta":156514826},{"NoteNumber":56,"Velocity":37,"Duration":125738,"SoundDuration":125738,"Delta":156636981},{"NoteNumber":73,"Velocity":71,"Duration":218544,"SoundDuration":218544,"Delta":156762719},{"NoteNumber":61,"Velocity":60,"Duration":218544,"SoundDuration":218544,"Delta":156762719},{"NoteNumber":53,"Velocity":42,"Duration":121413,"SoundDuration":121413,"Delta":156762719},{"NoteNumber":59,"Velocity":50,"Duration":121413,"SoundDuration":121413,"Delta":156762719},{"NoteNumber":56,"Velocity":38,"Duration":121413,"SoundDuration":121413,"Delta":156884133},{"NoteNumber":61,"Velocity":56,"Duration":218544,"SoundDuration":218544,"Delta":157005546},{"NoteNumber":73,"Velocity":66,"Duration":218544,"SoundDuration":218544,"Delta":157005546},{"NoteNumber":51,"Velocity":42,"Duration":121413,"SoundDuration":121413,"Delta":157005546},{"NoteNumber":59,"Velocity":42,"Duration":121413,"SoundDuration":121413,"Delta":157005546},{"NoteNumber":56,"Velocity":37,"Duration":121413,"SoundDuration":121413,"Delta":157126960},{"NoteNumber":73,"Velocity":60,"Duration":246989,"SoundDuration":246989,"Delta":157248373},{"NoteNumber":61,"Velocity":51,"Duration":246989,"SoundDuration":246989,"Delta":157248373},{"NoteNumber":53,"Velocity":42,"Duration":124435,"SoundDuration":124435,"Delta":157248373},{"NoteNumber":59,"Velocity":42,"Duration":124435,"SoundDuration":124435,"Delta":157248373},{"NoteNumber":56,"Velocity":32,"Duration":127882,"SoundDuration":127882,"Delta":157372808},{"NoteNumber":73,"Velocity":62,"Duration":242827,"SoundDuration":242827,"Delta":157500691},{"NoteNumber":61,"Velocity":52,"Duration":242827,"SoundDuration":242827,"Delta":157500691},{"NoteNumber":70,"Velocity":52,"Duration":242827,"SoundDuration":242827,"Delta":157500691},{"NoteNumber":58,"Velocity":50,"Duration":121413,"SoundDuration":121413,"Delta":157500691},{"NoteNumber":54,"Velocity":38,"Duration":121413,"SoundDuration":121413,"Delta":157622104},{"NoteNumber":68,"Velocity":48,"Duration":242827,"SoundDuration":242827,"Delta":157743518},{"NoteNumber":71,"Velocity":57,"Duration":242827,"SoundDuration":242827,"Delta":157743518},{"NoteNumber":59,"Velocity":42,"Duration":121413,"SoundDuration":121413,"Delta":157743518},{"NoteNumber":54,"Velocity":37,"Duration":121413,"SoundDuration":121413,"Delta":157864931},{"NoteNumber":66,"Velocity":39,"Duration":252317,"SoundDuration":252317,"Delta":157986345},{"NoteNumber":70,"Velocity":46,"Duration":252317,"SoundDuration":252317,"Delta":157986345},{"NoteNumber":61,"Velocity":42,"Duration":124435,"SoundDuration":124435,"Delta":157986345},{"NoteNumber":54,"Velocity":32,"Duration":127882,"SoundDuration":127882,"Delta":158110780},{"NoteNumber":73,"Velocity":56,"Duration":242827,"SoundDuration":242827,"Delta":158238662},{"NoteNumber":63,"Velocity":47,"Duration":744519,"SoundDuration":744519,"Delta":158238662},{"NoteNumber":47,"Velocity":45,"Duration":121413,"SoundDuration":121413,"Delta":158238662},{"NoteNumber":51,"Velocity":33,"Duration":121413,"SoundDuration":121413,"Delta":158360076},{"NoteNumber":71,"Velocity":49,"Duration":245811,"SoundDuration":245811,"Delta":158481489},{"NoteNumber":56,"Velocity":43,"Duration":122905,"SoundDuration":122905,"Delta":158481489},{"NoteNumber":59,"Velocity":32,"Duration":122905,"SoundDuration":122905,"Delta":158604395},{"NoteNumber":68,"Velocity":41,"Duration":255881,"SoundDuration":255881,"Delta":158727300},{"NoteNumber":56,"Velocity":41,"Duration":125213,"SoundDuration":125213,"Delta":158727300},{"NoteNumber":51,"Velocity":32,"Duration":130667,"SoundDuration":130667,"Delta":158852514},{"NoteNumber":66,"Velocity":51,"Duration":729957,"SoundDuration":729957,"Delta":158983182},{"NoteNumber":49,"Velocity":50,"Duration":729957,"SoundDuration":729957,"Delta":158983182},{"NoteNumber":58,"Velocity":50,"Duration":121659,"SoundDuration":121659,"Delta":158983182},{"NoteNumber":61,"Velocity":43,"Duration":121659,"SoundDuration":121659,"Delta":159104841},{"NoteNumber":60,"Velocity":43,"Duration":121659,"SoundDuration":121659,"Delta":159226501},{"NoteNumber":61,"Velocity":40,"Duration":121659,"SoundDuration":121659,"Delta":159348160},{"NoteNumber":63,"Velocity":43,"Duration":121659,"SoundDuration":121659,"Delta":159469820},{"NoteNumber":61,"Velocity":40,"Duration":121659,"SoundDuration":121659,"Delta":159591479},{"NoteNumber":65,"Velocity":49,"Duration":729956,"SoundDuration":729956,"Delta":159713139},{"NoteNumber":59,"Velocity":41,"Duration":121659,"SoundDuration":121659,"Delta":159713139},{"NoteNumber":56,"Velocity":35,"Duration":121659,"SoundDuration":121659,"Delta":159834798},{"NoteNumber":53,"Velocity":41,"Duration":121659,"SoundDuration":121659,"Delta":159956458},{"NoteNumber":49,"Velocity":38,"Duration":121659,"SoundDuration":121659,"Delta":160078117},{"NoteNumber":47,"Velocity":41,"Duration":121659,"SoundDuration":121659,"Delta":160199777},{"NoteNumber":44,"Velocity":37,"Duration":121659,"SoundDuration":121659,"Delta":160321436},{"NoteNumber":66,"Velocity":67,"Duration":246575,"SoundDuration":246575,"Delta":160443096},{"NoteNumber":78,"Velocity":79,"Duration":246575,"SoundDuration":246575,"Delta":160443096},{"NoteNumber":42,"Velocity":53,"Duration":123325,"SoundDuration":123325,"Delta":160443096},{"NoteNumber":41,"Velocity":40,"Duration":123249,"SoundDuration":123249,"Delta":160566422},{"NoteNumber":73,"Velocity":68,"Duration":245931,"SoundDuration":245931,"Delta":160689671},{"NoteNumber":77,"Velocity":68,"Duration":245931,"SoundDuration":245931,"Delta":160689671},{"NoteNumber":42,"Velocity":42,"Duration":123060,"SoundDuration":123060,"Delta":160689671},{"NoteNumber":44,"Velocity":39,"Duration":122870,"SoundDuration":122870,"Delta":160812732},{"NoteNumber":71,"Velocity":65,"Duration":245307,"SoundDuration":245307,"Delta":160935602},{"NoteNumber":75,"Velocity":65,"Duration":245307,"SoundDuration":245307,"Delta":160935602},{"NoteNumber":46,"Velocity":39,"Duration":122654,"SoundDuration":122654,"Delta":160935602},{"NoteNumber":47,"Velocity":38,"Duration":122653,"SoundDuration":122653,"Delta":161058256},{"NoteNumber":70,"Velocity":61,"Duration":245308,"SoundDuration":245308,"Delta":161180910},{"NoteNumber":73,"Velocity":61,"Duration":245308,"SoundDuration":245308,"Delta":161180910},{"NoteNumber":49,"Velocity":38,"Duration":122654,"SoundDuration":122654,"Delta":161180910},{"NoteNumber":48,"Velocity":34,"Duration":122654,"SoundDuration":122654,"Delta":161303564},{"NoteNumber":69,"Velocity":59,"Duration":245307,"SoundDuration":245307,"Delta":161426218},{"NoteNumber":72,"Velocity":59,"Duration":245307,"SoundDuration":245307,"Delta":161426218},{"NoteNumber":49,"Velocity":36,"Duration":122653,"SoundDuration":122653,"Delta":161426218},{"NoteNumber":51,"Velocity":34,"Duration":122654,"SoundDuration":122654,"Delta":161548872},{"NoteNumber":68,"Velocity":59,"Duration":245304,"SoundDuration":245304,"Delta":161671526},{"NoteNumber":71,"Velocity":59,"Duration":245304,"SoundDuration":245304,"Delta":161671526},{"NoteNumber":52,"Velocity":35,"Duration":122653,"SoundDuration":122653,"Delta":161671526},{"NoteNumber":53,"Velocity":31,"Duration":122650,"SoundDuration":122650,"Delta":161794180},{"NoteNumber":70,"Velocity":62,"Duration":122654,"SoundDuration":122654,"Delta":161916831},{"NoteNumber":66,"Velocity":55,"Duration":122654,"SoundDuration":122654,"Delta":161916831},{"NoteNumber":54,"Velocity":35,"Duration":746172,"SoundDuration":746172,"Delta":161916831},{"NoteNumber":71,"Velocity":57,"Duration":93520,"SoundDuration":93520,"Delta":162162139},{"NoteNumber":66,"Velocity":50,"Duration":93520,"SoundDuration":93520,"Delta":162162139},{"NoteNumber":63,"Velocity":38,"Duration":93520,"SoundDuration":93520,"Delta":162162139},{"NoteNumber":70,"Velocity":51,"Duration":94303,"SoundDuration":94303,"Delta":162411526},{"NoteNumber":66,"Velocity":45,"Duration":94303,"SoundDuration":94303,"Delta":162411526},{"NoteNumber":61,"Velocity":32,"Duration":94303,"SoundDuration":94303,"Delta":162411526},{"NoteNumber":66,"Velocity":50,"Duration":94303,"SoundDuration":94303,"Delta":162663003},{"NoteNumber":63,"Velocity":50,"Duration":94303,"SoundDuration":94303,"Delta":162663003},{"NoteNumber":68,"Velocity":57,"Duration":94303,"SoundDuration":94303,"Delta":162663003},{"NoteNumber":49,"Velocity":35,"Duration":768097,"SoundDuration":768097,"Delta":162663003},{"NoteNumber":60,"Velocity":38,"Duration":94303,"SoundDuration":94303,"Delta":162663003},{"NoteNumber":65,"Velocity":66,"Duration":124435,"SoundDuration":124435,"Delta":163182230},{"NoteNumber":59,"Velocity":38,"Duration":124435,"SoundDuration":124435,"Delta":163182230},{"NoteNumber":66,"Velocity":60,"Duration":246575,"SoundDuration":246575,"Delta":163431100},{"NoteNumber":78,"Velocity":71,"Duration":246575,"SoundDuration":246575,"Delta":163431100},{"NoteNumber":54,"Velocity":51,"Duration":123325,"SoundDuration":123325,"Delta":163431100},{"NoteNumber":58,"Velocity":51,"Duration":123325,"SoundDuration":123325,"Delta":163431100},{"NoteNumber":53,"Velocity":43,"Duration":123249,"SoundDuration":123249,"Delta":163554426},{"NoteNumber":73,"Velocity":51,"Duration":245931,"SoundDuration":245931,"Delta":163677676},{"NoteNumber":77,"Velocity":61,"Duration":245931,"SoundDuration":245931,"Delta":163677676},{"NoteNumber":54,"Velocity":45,"Duration":123060,"SoundDuration":123060,"Delta":163677676},{"NoteNumber":56,"Velocity":41,"Duration":122870,"SoundDuration":122870,"Delta":163800736},{"NoteNumber":71,"Velocity":49,"Duration":245174,"SoundDuration":245174,"Delta":163923607},{"NoteNumber":75,"Velocity":58,"Duration":245174,"SoundDuration":245174,"Delta":163923607},{"NoteNumber":58,"Velocity":42,"Duration":122654,"SoundDuration":122654,"Delta":163923607},{"NoteNumber":59,"Velocity":40,"Duration":122520,"SoundDuration":122520,"Delta":164046261},{"NoteNumber":70,"Velocity":45,"Duration":244413,"SoundDuration":244413,"Delta":164168781},{"NoteNumber":73,"Velocity":54,"Duration":244413,"SoundDuration":244413,"Delta":164168781},{"NoteNumber":61,"Velocity":40,"Duration":122013,"SoundDuration":122013,"Delta":164168781},{"NoteNumber":60,"Velocity":36,"Duration":122400,"SoundDuration":122400,"Delta":164290794},{"NoteNumber":69,"Velocity":45,"Duration":245915,"SoundDuration":245915,"Delta":164413194},{"NoteNumber":72,"Velocity":53,"Duration":245915,"SoundDuration":245915,"Delta":164413194},{"NoteNumber":61,"Velocity":38,"Duration":122761,"SoundDuration":122761,"Delta":164413194},{"NoteNumber":63,"Velocity":36,"Duration":123153,"SoundDuration":123153,"Delta":164535956},{"NoteNumber":68,"Velocity":45,"Duration":247414,"SoundDuration":247414,"Delta":164659110},{"NoteNumber":71,"Velocity":53,"Duration":247414,"SoundDuration":247414,"Delta":164659110},{"NoteNumber":64,"Velocity":37,"Duration":123520,"SoundDuration":123520,"Delta":164659110},{"NoteNumber":65,"Velocity":33,"Duration":123894,"SoundDuration":123894,"Delta":164782630},{"NoteNumber":70,"Velocity":50,"Duration":123920,"SoundDuration":123920,"Delta":164906525},{"NoteNumber":66,"Velocity":44,"Duration":257201,"SoundDuration":257201,"Delta":164906525},{"NoteNumber":65,"Velocity":47,"Duration":133280,"SoundDuration":133280,"Delta":165030446},{"NoteNumber":66,"Velocity":47,"Duration":123060,"SoundDuration":123060,"Delta":165163726},{"NoteNumber":61,"Velocity":43,"Duration":245931,"SoundDuration":245931,"Delta":165163726},{"NoteNumber":65,"Velocity":51,"Duration":245931,"SoundDuration":245931,"Delta":165163726},{"NoteNumber":68,"Velocity":47,"Duration":122870,"SoundDuration":122870,"Delta":165286786},{"NoteNumber":70,"Velocity":51,"Duration":122654,"SoundDuration":122654,"Delta":165409657},{"NoteNumber":59,"Velocity":40,"Duration":245308,"SoundDuration":245308,"Delta":165409657},{"NoteNumber":63,"Velocity":48,"Duration":245308,"SoundDuration":245308,"Delta":165409657},{"NoteNumber":71,"Velocity":47,"Duration":122654,"SoundDuration":122654,"Delta":165532311},{"NoteNumber":73,"Velocity":50,"Duration":122699,"SoundDuration":122699,"Delta":165654965},{"NoteNumber":58,"Velocity":38,"Duration":245712,"SoundDuration":245712,"Delta":165654965},{"NoteNumber":61,"Velocity":45,"Duration":245712,"SoundDuration":245712,"Delta":165654965},{"NoteNumber":72,"Velocity":47,"Duration":123013,"SoundDuration":123013,"Delta":165777664},{"NoteNumber":73,"Velocity":49,"Duration":123329,"SoundDuration":123329,"Delta":165900678},{"NoteNumber":57,"Velocity":37,"Duration":247023,"SoundDuration":247023,"Delta":165900678},{"NoteNumber":60,"Velocity":44,"Duration":247023,"SoundDuration":247023,"Delta":165900678},{"NoteNumber":75,"Velocity":47,"Duration":123693,"SoundDuration":123693,"Delta":166024008},{"NoteNumber":76,"Velocity":50,"Duration":124031,"SoundDuration":124031,"Delta":166147701},{"NoteNumber":56,"Velocity":37,"Duration":248383,"SoundDuration":248383,"Delta":166147701},{"NoteNumber":59,"Velocity":44,"Duration":248383,"SoundDuration":248383,"Delta":166147701},{"NoteNumber":77,"Velocity":47,"Duration":124352,"SoundDuration":124352,"Delta":166271732},{"NoteNumber":78,"Velocity":50,"Duration":124721,"SoundDuration":124721,"Delta":166396085},{"NoteNumber":54,"Velocity":37,"Duration":259802,"SoundDuration":259802,"Delta":166396085},{"NoteNumber":58,"Velocity":44,"Duration":259802,"SoundDuration":259802,"Delta":166396085},{"NoteNumber":77,"Velocity":50,"Duration":135080,"SoundDuration":135080,"Delta":166520806},{"NoteNumber":78,"Velocity":49,"Duration":122905,"SoundDuration":122905,"Delta":166655887},{"NoteNumber":49,"Velocity":37,"Duration":245776,"SoundDuration":245776,"Delta":166655887},{"NoteNumber":53,"Velocity":44,"Duration":245776,"SoundDuration":245776,"Delta":166655887},{"NoteNumber":80,"Velocity":48,"Duration":122870,"SoundDuration":122870,"Delta":166778792},{"NoteNumber":82,"Velocity":51,"Duration":122654,"SoundDuration":122654,"Delta":166901663},{"NoteNumber":47,"Velocity":33,"Duration":245307,"SoundDuration":245307,"Delta":166901663},{"NoteNumber":51,"Velocity":39,"Duration":245307,"SoundDuration":245307,"Delta":166901663},{"NoteNumber":83,"Velocity":45,"Duration":122653,"SoundDuration":122653,"Delta":167024317},{"NoteNumber":85,"Velocity":46,"Duration":122654,"SoundDuration":122654,"Delta":167146971},{"NoteNumber":46,"Velocity":29,"Duration":245308,"SoundDuration":245308,"Delta":167146971},{"NoteNumber":49,"Velocity":35,"Duration":245308,"SoundDuration":245308,"Delta":167146971},{"NoteNumber":84,"Velocity":43,"Duration":122654,"SoundDuration":122654,"Delta":167269625},{"NoteNumber":85,"Velocity":42,"Duration":122653,"SoundDuration":122653,"Delta":167392279},{"NoteNumber":45,"Velocity":27,"Duration":245307,"SoundDuration":245307,"Delta":167392279},{"NoteNumber":48,"Velocity":32,"Duration":245307,"SoundDuration":245307,"Delta":167392279},{"NoteNumber":87,"Velocity":40,"Duration":122654,"SoundDuration":122654,"Delta":167514933},{"NoteNumber":88,"Velocity":41,"Duration":122654,"SoundDuration":122654,"Delta":167637587},{"NoteNumber":44,"Velocity":25,"Duration":249188,"SoundDuration":249188,"Delta":167637587},{"NoteNumber":47,"Velocity":30,"Duration":249188,"SoundDuration":249188,"Delta":167637587},{"NoteNumber":89,"Velocity":38,"Duration":126533,"SoundDuration":126533,"Delta":167760241},{"NoteNumber":90,"Velocity":44,"Duration":119956,"SoundDuration":119956,"Delta":167886775},{"NoteNumber":42,"Velocity":26,"Duration":3195944,"SoundDuration":3195944,"Delta":167886775},{"NoteNumber":46,"Velocity":28,"Duration":3195944,"SoundDuration":3195944,"Delta":167886775},{"NoteNumber":85,"Velocity":44,"Duration":120324,"SoundDuration":120324,"Delta":168006732},{"NoteNumber":82,"Velocity":40,"Duration":120502,"SoundDuration":120502,"Delta":168127056},{"NoteNumber":80,"Velocity":37,"Duration":120680,"SoundDuration":120680,"Delta":168247558},{"NoteNumber":82,"Velocity":40,"Duration":120866,"SoundDuration":120866,"Delta":168368239},{"NoteNumber":78,"Velocity":36,"Duration":121018,"SoundDuration":121018,"Delta":168489105},{"NoteNumber":85,"Velocity":45,"Duration":121168,"SoundDuration":121168,"Delta":168610124},{"NoteNumber":82,"Velocity":36,"Duration":121385,"SoundDuration":121385,"Delta":168731292},{"NoteNumber":78,"Velocity":40,"Duration":121508,"SoundDuration":121508,"Delta":168852677},{"NoteNumber":77,"Velocity":36,"Duration":133725,"SoundDuration":133725,"Delta":168974186},{"NoteNumber":78,"Velocity":40,"Duration":122403,"SoundDuration":122403,"Delta":169107912},{"NoteNumber":73,"Velocity":36,"Duration":122404,"SoundDuration":122404,"Delta":169230316},{"NoteNumber":82,"Velocity":45,"Duration":121168,"SoundDuration":121168,"Delta":169352720},{"NoteNumber":49,"Velocity":26,"Duration":1730000,"SoundDuration":1730000,"Delta":169352720},{"NoteNumber":78,"Velocity":36,"Duration":121385,"SoundDuration":121385,"Delta":169473888},{"NoteNumber":73,"Velocity":40,"Duration":121508,"SoundDuration":121508,"Delta":169595273},{"NoteNumber":71,"Velocity":36,"Duration":133725,"SoundDuration":133725,"Delta":169716782},{"NoteNumber":73,"Velocity":40,"Duration":122403,"SoundDuration":122403,"Delta":169850508},{"NoteNumber":70,"Velocity":36,"Duration":122404,"SoundDuration":122404,"Delta":169972912},{"NoteNumber":78,"Velocity":45,"Duration":121168,"SoundDuration":121168,"Delta":170095316},{"NoteNumber":73,"Velocity":36,"Duration":121385,"SoundDuration":121385,"Delta":170216484},{"NoteNumber":70,"Velocity":40,"Duration":121508,"SoundDuration":121508,"Delta":170337870},{"NoteNumber":68,"Velocity":36,"Duration":133725,"SoundDuration":133725,"Delta":170459378},{"NoteNumber":70,"Velocity":40,"Duration":122403,"SoundDuration":122403,"Delta":170593104},{"NoteNumber":66,"Velocity":36,"Duration":122404,"SoundDuration":122404,"Delta":170715508},{"NoteNumber":73,"Velocity":45,"Duration":122403,"SoundDuration":122403,"Delta":170837912},{"NoteNumber":70,"Velocity":37,"Duration":122404,"SoundDuration":122404,"Delta":170960316},{"NoteNumber":66,"Velocity":37,"Duration":122403,"SoundDuration":122403,"Delta":171082720},{"NoteNumber":61,"Velocity":37,"Duration":122403,"SoundDuration":122403,"Delta":171205124},{"NoteNumber":58,"Velocity":33,"Duration":122518,"SoundDuration":122518,"Delta":171327528},{"NoteNumber":54,"Velocity":29,"Duration":123300,"SoundDuration":123300,"Delta":171450047},{"NoteNumber":49,"Velocity":33,"Duration":124220,"SoundDuration":124220,"Delta":171573347},{"NoteNumber":70,"Velocity":39,"Duration":125132,"SoundDuration":125132,"Delta":171697568},{"NoteNumber":73,"Velocity":42,"Duration":126080,"SoundDuration":126080,"Delta":171822701},{"NoteNumber":78,"Velocity":40,"Duration":127020,"SoundDuration":127020,"Delta":171948782},{"NoteNumber":82,"Velocity":43,"Duration":127997,"SoundDuration":127997,"Delta":172075802},{"NoteNumber":85,"Velocity":39,"Duration":138510,"SoundDuration":138510,"Delta":172203799},{"NoteNumber":90,"Velocity":45,"Duration":145215,"SoundDuration":145215,"Delta":172342309},{"NoteNumber":58,"Velocity":26,"Duration":300615,"SoundDuration":300615,"Delta":173213599},{"NoteNumber":66,"Velocity":26,"Duration":300615,"SoundDuration":300615,"Delta":173213599},{"NoteNumber":70,"Velocity":31,"Duration":300615,"SoundDuration":300615,"Delta":173213599},{"NoteNumber":42,"Velocity":21,"Duration":300615,"SoundDuration":300615,"Delta":173213599},{"NoteNumber":49,"Velocity":25,"Duration":300615,"SoundDuration":300615,"Delta":173213599},{"NoteNumber":78,"Velocity":38,"Duration":324167,"SoundDuration":324167,"Delta":174138998},{"NoteNumber":70,"Velocity":32,"Duration":324167,"SoundDuration":324167,"Delta":174138998},{"NoteNumber":54,"Velocity":21,"Duration":324167,"SoundDuration":324167,"Delta":174138998},{"NoteNumber":61,"Velocity":25,"Duration":324167,"SoundDuration":324167,"Delta":174138998}],"license":{"name":"Creative Commons Attribution-ShareAlike 3.0 Germany","url":"http://creativecommons.org/licenses/by-sa/3.0/de/deed.en","text":"The MIDI files in this folder were downloaded from http://www.piano-midi.de and are licensed under the Creative Commons Attribution-ShareAlike 3.0 Germany license by Bernd Krueger.\n\nThe MIDI, audio(MP3, OGG) and video files of Bernd Krueger are licensed under the cc-by-sa Germany License . This means, that you can use and adapt the files, as long as you attribute to the copyright holder Name: Bernd Krueger Source: http://www.piano-midi.de The distribution or public playback of the files is only allowed under identical license conditions . The scores are open source.","attribution":"Bernd Krueger","attributionUrl":"http://www.piano-midi.de"}}