{"title":"Trauermarsch","artist":"Mendelssohn","durationMs":175311,"midiSha256":"4f51db6550deb9d57a7c7c54e2434735bb8e76e398a74964f675d623aa334a09","midiObject":[{"NoteNumber":59,"Velocity":66,"Duration":66702,"SoundDuration":66702,"Delta":0},{"NoteNumber":64,"Velocity":76,"Duration":66702,"SoundDuration":66702,"Delta":0},{"NoteNumber":52,"Velocity":50,"Duration":66702,"SoundDuration":66702,"Delta":0},{"NoteNumber":55,"Velocity":59,"Duration":66702,"SoundDuration":66702,"Delta":0},{"NoteNumber":59,"Velocity":66,"Duration":66702,"SoundDuration":66702,"Delta":133404},{"NoteNumber":64,"Velocity":76,"Duration":66702,"SoundDuration":66702,"Delta":133404},{"NoteNumber":52,"Velocity":50,"Duration":66702,"SoundDuration":66702,"Delta":133404},{"NoteNumber":55,"Velocity":59,"Duration":66702,"SoundDuration":66702,"Delta":133404},{"NoteNumber":59,"Velocity":66,"Duration":66702,"SoundDuration":66702,"Delta":266809},{"NoteNumber":64,"Velocity":76,"Duration":66702,"SoundDuration":66702,"Delta":266809},{"NoteNumber":52,"Velocity":50,"Duration":66702,"SoundDuration":66702,"Delta":266809},{"NoteNumber":55,"Velocity":59,"Duration":66702,"SoundDuration":66702,"Delta":266809},{"NoteNumber":59,"Velocity":70,"Duration":1286449,"SoundDuration":1286449,"Delta":400213},{"NoteNumber":64,"Velocity":80,"Duration":1286449,"SoundDuration":1286449,"Delta":400213},{"NoteNumber":52,"Velocity":53,"Duration":1286449,"SoundDuration":1286449,"Delta":400213},{"NoteNumber":55,"Velocity":63,"Duration":1286449,"SoundDuration":1286449,"Delta":400213},{"NoteNumber":59,"Velocity":66,"Duration":67159,"SoundDuration":67159,"Delta":1686662},{"NoteNumber":64,"Velocity":76,"Duration":67159,"SoundDuration":67159,"Delta":1686662},{"NoteNumber":52,"Velocity":50,"Duration":67159,"SoundDuration":67159,"Delta":1686662},{"NoteNumber":55,"Velocity":59,"Duration":67159,"SoundDuration":67159,"Delta":1686662},{"NoteNumber":59,"Velocity":66,"Duration":67159,"SoundDuration":67159,"Delta":1820981},{"NoteNumber":64,"Velocity":76,"Duration":67159,"SoundDuration":67159,"Delta":1820981},{"NoteNumber":52,"Velocity":50,"Duration":67159,"SoundDuration":67159,"Delta":1820981},{"NoteNumber":55,"Velocity":59,"Duration":67159,"SoundDuration":67159,"Delta":1820981},{"NoteNumber":59,"Velocity":66,"Duration":67159,"SoundDuration":67159,"Delta":1955299},{"NoteNumber":64,"Velocity":76,"Duration":67159,"SoundDuration":67159,"Delta":1955299},{"NoteNumber":52,"Velocity":50,"Duration":67159,"SoundDuration":67159,"Delta":1955299},{"NoteNumber":55,"Velocity":59,"Duration":67159,"SoundDuration":67159,"Delta":1955299},{"NoteNumber":59,"Velocity":70,"Duration":1286449,"SoundDuration":1286449,"Delta":2089617},{"NoteNumber":64,"Velocity":80,"Duration":1286449,"SoundDuration":1286449,"Delta":2089617},{"NoteNumber":52,"Velocity":53,"Duration":1286449,"SoundDuration":1286449,"Delta":2089617},{"NoteNumber":55,"Velocity":63,"Duration":1286449,"SoundDuration":1286449,"Delta":2089617},{"NoteNumber":59,"Velocity":66,"Duration":66269,"SoundDuration":66269,"Delta":3376067},{"NoteNumber":64,"Velocity":76,"Duration":66269,"SoundDuration":66269,"Delta":3376067},{"NoteNumber":52,"Velocity":50,"Duration":66269,"SoundDuration":66269,"Delta":3376067},{"NoteNumber":55,"Velocity":59,"Duration":66269,"SoundDuration":66269,"Delta":3376067},{"NoteNumber":59,"Velocity":66,"Duration":66269,"SoundDuration":66269,"Delta":3508605},{"NoteNumber":64,"Velocity":76,"Duration":66269,"SoundDuration":66269,"Delta":3508605},{"NoteNumber":52,"Velocity":50,"Duration":66269,"SoundDuration":66269,"Delta":3508605},{"NoteNumber":55,"Velocity":59,"Duration":66269,"SoundDuration":66269,"Delta":3508605},{"NoteNumber":59,"Velocity":66,"Duration":66269,"SoundDuration":66269,"Delta":3641143},{"NoteNumber":64,"Velocity":76,"Duration":66269,"SoundDuration":66269,"Delta":3641143},{"NoteNumber":52,"Velocity":50,"Duration":66269,"SoundDuration":66269,"Delta":3641143},{"NoteNumber":55,"Velocity":59,"Duration":66269,"SoundDuration":66269,"Delta":3641143},{"NoteNumber":59,"Velocity":70,"Duration":1715265,"SoundDuration":1715265,"Delta":3773681},{"NoteNumber":64,"Velocity":70,"Duration":1715265,"SoundDuration":1715265,"Delta":3773681},{"NoteNumber":67,"Velocity":80,"Duration":1715265,"SoundDuration":1715265,"Delta":3773681},{"NoteNumber":40,"Velocity":53,"Duration":2604681,"SoundDuration":2604681,"Delta":3773681},{"NoteNumber":52,"Velocity":63,"Duration":2604681,"SoundDuration":2604681,"Delta":3773681},{"NoteNumber":55,"Velocity":62,"Duration":889415,"SoundDuration":889415,"Delta":5488947},{"NoteNumber":59,"Velocity":62,"Duration":889415,"SoundDuration":889415,"Delta":5488947},{"NoteNumber":64,"Velocity":72,"Duration":889415,"SoundDuration":889415,"Delta":5488947},{"NoteNumber":76,"Velocity":72,"Duration":66702,"SoundDuration":66702,"Delta":6823072},{"NoteNumber":71,"Velocity":72,"Duration":66702,"SoundDuration":66702,"Delta":6823072},{"NoteNumber":83,"Velocity":83,"Duration":66702,"SoundDuration":66702,"Delta":6823072},{"NoteNumber":64,"Velocity":55,"Duration":66702,"SoundDuration":66702,"Delta":6823072},{"NoteNumber":67,"Velocity":64,"Duration":66702,"SoundDuration":66702,"Delta":6823072},{"NoteNumber":76,"Velocity":72,"Duration":66702,"SoundDuration":66702,"Delta":6956476},{"NoteNumber":71,"Velocity":72,"Duration":66702,"SoundDuration":66702,"Delta":6956476},{"NoteNumber":83,"Velocity":83,"Duration":66702,"SoundDuration":66702,"Delta":6956476},{"NoteNumber":64,"Velocity":55,"Duration":66702,"SoundDuration":66702,"Delta":6956476},{"NoteNumber":67,"Velocity":64,"Duration":66702,"SoundDuration":66702,"Delta":6956476},{"NoteNumber":76,"Velocity":72,"Duration":66702,"SoundDuration":66702,"Delta":7089881},{"NoteNumber":71,"Velocity":72,"Duration":66702,"SoundDuration":66702,"Delta":7089881},{"NoteNumber":83,"Velocity":83,"Duration":66702,"SoundDuration":66702,"Delta":7089881},{"NoteNumber":64,"Velocity":55,"Duration":66702,"SoundDuration":66702,"Delta":7089881},{"NoteNumber":67,"Velocity":64,"Duration":66702,"SoundDuration":66702,"Delta":7089881},{"NoteNumber":75,"Velocity":77,"Duration":1286449,"SoundDuration":1286449,"Delta":7223285},{"NoteNumber":71,"Velocity":77,"Duration":1286449,"SoundDuration":1286449,"Delta":7223285},{"NoteNumber":83,"Velocity":88,"Duration":1286449,"SoundDuration":1286449,"Delta":7223285},{"NoteNumber":59,"Velocity":58,"Duration":1286449,"SoundDuration":1286449,"Delta":7223285},{"NoteNumber":66,"Velocity":69,"Duration":1286449,"SoundDuration":1286449,"Delta":7223285},{"NoteNumber":76,"Velocity":72,"Duration":67159,"SoundDuration":67159,"Delta":8509735},{"NoteNumber":71,"Velocity":72,"Duration":67159,"SoundDuration":67159,"Delta":8509735},{"NoteNumber":83,"Velocity":83,"Duration":67159,"SoundDuration":67159,"Delta":8509735},{"NoteNumber":64,"Velocity":55,"Duration":67159,"SoundDuration":67159,"Delta":8509735},{"NoteNumber":67,"Velocity":64,"Duration":67159,"SoundDuration":67159,"Delta":8509735},{"NoteNumber":76,"Velocity":72,"Duration":67159,"SoundDuration":67159,"Delta":8644053},{"NoteNumber":71,"Velocity":72,"Duration":67159,"SoundDuration":67159,"Delta":8644053},{"NoteNumber":83,"Velocity":83,"Duration":67159,"SoundDuration":67159,"Delta":8644053},{"NoteNumber":64,"Velocity":55,"Duration":67159,"SoundDuration":67159,"Delta":8644053},{"NoteNumber":67,"Velocity":64,"Duration":67159,"SoundDuration":67159,"Delta":8644053},{"NoteNumber":76,"Velocity":72,"Duration":67159,"SoundDuration":67159,"Delta":8778371},{"NoteNumber":71,"Velocity":72,"Duration":67159,"SoundDuration":67159,"Delta":8778371},{"NoteNumber":83,"Velocity":83,"Duration":67159,"SoundDuration":67159,"Delta":8778371},{"NoteNumber":64,"Velocity":55,"Duration":67159,"SoundDuration":67159,"Delta":8778371},{"NoteNumber":67,"Velocity":64,"Duration":67159,"SoundDuration":67159,"Delta":8778371},{"NoteNumber":75,"Velocity":77,"Duration":1286449,"SoundDuration":1286449,"Delta":8912690},{"NoteNumber":71,"Velocity":77,"Duration":1286449,"SoundDuration":1286449,"Delta":8912690},{"NoteNumber":83,"Velocity":88,"Duration":1286449,"SoundDuration":1286449,"Delta":8912690},{"NoteNumber":59,"Velocity":58,"Duration":1286449,"SoundDuration":1286449,"Delta":8912690},{"NoteNumber":66,"Velocity":69,"Duration":1286449,"SoundDuration":1286449,"Delta":8912690},{"NoteNumber":76,"Velocity":72,"Duration":66269,"SoundDuration":66269,"Delta":10199139},{"NoteNumber":71,"Velocity":72,"Duration":66269,"SoundDuration":66269,"Delta":10199139},{"NoteNumber":83,"Velocity":83,"Duration":66269,"SoundDuration":66269,"Delta":10199139},{"NoteNumber":64,"Velocity":55,"Duration":66269,"SoundDuration":66269,"Delta":10199139},{"NoteNumber":67,"Velocity":64,"Duration":66269,"SoundDuration":66269,"Delta":10199139},{"NoteNumber":76,"Velocity":72,"Duration":66269,"SoundDuration":66269,"Delta":10331677},{"NoteNumber":71,"Velocity":72,"Duration":66269,"SoundDuration":66269,"Delta":10331677},{"NoteNumber":83,"Velocity":83,"Duration":66269,"SoundDuration":66269,"Delta":10331677},{"NoteNumber":64,"Velocity":55,"Duration":66269,"SoundDuration":66269,"Delta":10331677},{"NoteNumber":67,"Velocity":64,"Duration":66269,"SoundDuration":66269,"Delta":10331677},{"NoteNumber":76,"Velocity":72,"Duration":66269,"SoundDuration":66269,"Delta":10464215},{"NoteNumber":71,"Velocity":72,"Duration":66269,"SoundDuration":66269,"Delta":10464215},{"NoteNumber":83,"Velocity":83,"Duration":66269,"SoundDuration":66269,"Delta":10464215},{"NoteNumber":64,"Velocity":55,"Duration":66269,"SoundDuration":66269,"Delta":10464215},{"NoteNumber":67,"Velocity":64,"Duration":66269,"SoundDuration":66269,"Delta":10464215},{"NoteNumber":75,"Velocity":77,"Duration":1715265,"SoundDuration":1715265,"Delta":10596754},{"NoteNumber":78,"Velocity":77,"Duration":1715265,"SoundDuration":1715265,"Delta":10596754},{"NoteNumber":87,"Velocity":88,"Duration":1715265,"SoundDuration":1715265,"Delta":10596754},{"NoteNumber":59,"Velocity":58,"Duration":2600976,"SoundDuration":2600976,"Delta":10596754},{"NoteNumber":63,"Velocity":58,"Duration":2604682,"SoundDuration":2604682,"Delta":10596754},{"NoteNumber":66,"Velocity":58,"Duration":2604682,"SoundDuration":2604682,"Delta":10596754},{"NoteNumber":71,"Velocity":69,"Duration":2604682,"SoundDuration":2604682,"Delta":10596754},{"NoteNumber":78,"Velocity":61,"Duration":889416,"SoundDuration":889416,"Delta":12312019},{"NoteNumber":90,"Velocity":71,"Duration":889416,"SoundDuration":889416,"Delta":12312019},{"NoteNumber":57,"Velocity":57,"Duration":889415,"SoundDuration":889415,"Delta":13201436},{"NoteNumber":59,"Velocity":68,"Duration":889415,"SoundDuration":889415,"Delta":13201436},{"NoteNumber":55,"Velocity":59,"Duration":863931,"SoundDuration":863931,"Delta":14090851},{"NoteNumber":59,"Velocity":59,"Duration":863931,"SoundDuration":863931,"Delta":14090851},{"NoteNumber":64,"Velocity":70,"Duration":863931,"SoundDuration":863931,"Delta":14090851},{"NoteNumber":28,"Velocity":52,"Duration":3506694,"SoundDuration":3506694,"Delta":14090851},{"NoteNumber":40,"Velocity":62,"Duration":3506694,"SoundDuration":3506694,"Delta":14090851},{"NoteNumber":55,"Velocity":59,"Duration":889416,"SoundDuration":889416,"Delta":14954783},{"NoteNumber":59,"Velocity":59,"Duration":889416,"SoundDuration":889416,"Delta":14954783},{"NoteNumber":64,"Velocity":70,"Duration":889416,"SoundDuration":889416,"Delta":14954783},{"NoteNumber":59,"Velocity":60,"Duration":863931,"SoundDuration":863931,"Delta":15844199},{"NoteNumber":64,"Velocity":60,"Duration":863931,"SoundDuration":863931,"Delta":15844199},{"NoteNumber":67,"Velocity":71,"Duration":863931,"SoundDuration":863931,"Delta":15844199},{"NoteNumber":59,"Velocity":60,"Duration":889416,"SoundDuration":889416,"Delta":16708130},{"NoteNumber":66,"Velocity":60,"Duration":889416,"SoundDuration":889416,"Delta":16708130},{"NoteNumber":69,"Velocity":71,"Duration":889416,"SoundDuration":889416,"Delta":16708130},{"NoteNumber":59,"Velocity":61,"Duration":889416,"SoundDuration":889416,"Delta":17597546},{"NoteNumber":64,"Velocity":61,"Duration":889416,"SoundDuration":889416,"Delta":17597546},{"NoteNumber":67,"Velocity":61,"Duration":889416,"SoundDuration":889416,"Delta":17597546},{"NoteNumber":71,"Velocity":72,"Duration":889416,"SoundDuration":889416,"Delta":17597546},{"NoteNumber":40,"Velocity":50,"Duration":3506473,"SoundDuration":3506473,"Delta":17597546},{"NoteNumber":52,"Velocity":59,"Duration":3506473,"SoundDuration":3506473,"Delta":17597546},{"NoteNumber":64,"Velocity":58,"Duration":147145,"SoundDuration":147145,"Delta":18486962},{"NoteNumber":66,"Velocity":58,"Duration":147145,"SoundDuration":147145,"Delta":18486962},{"NoteNumber":69,"Velocity":69,"Duration":147145,"SoundDuration":147145,"Delta":18486962},{"NoteNumber":64,"Velocity":58,"Duration":147145,"SoundDuration":147145,"Delta":18781252},{"NoteNumber":67,"Velocity":58,"Duration":147145,"SoundDuration":147145,"Delta":18781252},{"NoteNumber":71,"Velocity":69,"Duration":147145,"SoundDuration":147145,"Delta":18781252},{"NoteNumber":64,"Velocity":58,"Duration":140924,"SoundDuration":140924,"Delta":19069322},{"NoteNumber":69,"Velocity":58,"Duration":140924,"SoundDuration":140924,"Delta":19069322},{"NoteNumber":72,"Velocity":69,"Duration":140924,"SoundDuration":140924,"Delta":19069322},{"NoteNumber":64,"Velocity":62,"Duration":876424,"SoundDuration":876424,"Delta":19351171},{"NoteNumber":67,"Velocity":62,"Duration":876424,"SoundDuration":876424,"Delta":19351171},{"NoteNumber":71,"Velocity":73,"Duration":876424,"SoundDuration":876424,"Delta":19351171},{"NoteNumber":59,"Velocity":57,"Duration":657318,"SoundDuration":657318,"Delta":20227595},{"NoteNumber":64,"Velocity":57,"Duration":657318,"SoundDuration":657318,"Delta":20227595},{"NoteNumber":67,"Velocity":68,"Duration":657318,"SoundDuration":657318,"Delta":20227595},{"NoteNumber":66,"Velocity":61,"Duration":219106,"SoundDuration":219106,"Delta":20884913},{"NoteNumber":69,"Velocity":72,"Duration":219106,"SoundDuration":219106,"Delta":20884913},{"NoteNumber":64,"Velocity":61,"Duration":857632,"SoundDuration":857632,"Delta":21104019},{"NoteNumber":67,"Velocity":61,"Duration":857632,"SoundDuration":857632,"Delta":21104019},{"NoteNumber":71,"Velocity":72,"Duration":857632,"SoundDuration":857632,"Delta":21104019},{"NoteNumber":40,"Velocity":50,"Duration":1753824,"SoundDuration":1753824,"Delta":21104019},{"NoteNumber":52,"Velocity":59,"Duration":1753824,"SoundDuration":1753824,"Delta":21104019},{"NoteNumber":64,"Velocity":59,"Duration":896191,"SoundDuration":896191,"Delta":21961652},{"NoteNumber":67,"Velocity":59,"Duration":896191,"SoundDuration":896191,"Delta":21961652},{"NoteNumber":71,"Velocity":71,"Duration":896191,"SoundDuration":896191,"Delta":21961652},{"NoteNumber":69,"Velocity":66,"Duration":902934,"SoundDuration":902934,"Delta":22857843},{"NoteNumber":72,"Velocity":66,"Duration":902934,"SoundDuration":902934,"Delta":22857843},{"NoteNumber":79,"Velocity":78,"Duration":902934,"SoundDuration":902934,"Delta":22857843},{"NoteNumber":33,"Velocity":53,"Duration":1833745,"SoundDuration":1833745,"Delta":22857843},{"NoteNumber":45,"Velocity":63,"Duration":1833745,"SoundDuration":1833745,"Delta":22857843},{"NoteNumber":69,"Velocity":61,"Duration":930810,"SoundDuration":930810,"Delta":23760778},{"NoteNumber":72,"Velocity":61,"Duration":930810,"SoundDuration":930810,"Delta":23760778},{"NoteNumber":78,"Velocity":73,"Duration":930810,"SoundDuration":930810,"Delta":23760778},{"NoteNumber":67,"Velocity":55,"Duration":1861619,"SoundDuration":1861619,"Delta":24691588},{"NoteNumber":71,"Velocity":55,"Duration":1861619,"SoundDuration":1861619,"Delta":24691588},{"NoteNumber":76,"Velocity":65,"Duration":1861619,"SoundDuration":1861619,"Delta":24691588},{"NoteNumber":35,"Velocity":50,"Duration":2792429,"SoundDuration":2792429,"Delta":24691588},{"NoteNumber":47,"Velocity":59,"Duration":2792429,"SoundDuration":2792429,"Delta":24691588},{"NoteNumber":66,"Velocity":45,"Duration":930810,"SoundDuration":930810,"Delta":26553208},{"NoteNumber":71,"Velocity":45,"Duration":930810,"SoundDuration":930810,"Delta":26553208},{"NoteNumber":75,"Velocity":54,"Duration":930810,"SoundDuration":930810,"Delta":26553208},{"NoteNumber":66,"Velocity":49,"Duration":896191,"SoundDuration":896191,"Delta":27484018},{"NoteNumber":59,"Velocity":44,"Duration":896191,"SoundDuration":896191,"Delta":27484018},{"NoteNumber":67,"Velocity":53,"Duration":863931,"SoundDuration":863931,"Delta":28380209},{"NoteNumber":64,"Velocity":48,"Duration":863931,"SoundDuration":863931,"Delta":28380209},{"NoteNumber":66,"Velocity":45,"Duration":889416,"SoundDuration":889416,"Delta":29244140},{"NoteNumber":67,"Velocity":54,"Duration":889416,"SoundDuration":889416,"Delta":29244140},{"NoteNumber":62,"Velocity":48,"Duration":889416,"SoundDuration":889416,"Delta":29244140},{"NoteNumber":64,"Velocity":45,"Duration":863930,"SoundDuration":863930,"Delta":30133556},{"NoteNumber":67,"Velocity":54,"Duration":863930,"SoundDuration":863930,"Delta":30133556},{"NoteNumber":60,"Velocity":48,"Duration":863930,"SoundDuration":863930,"Delta":30133556},{"NoteNumber":62,"Velocity":45,"Duration":889415,"SoundDuration":889415,"Delta":30997487},{"NoteNumber":67,"Velocity":53,"Duration":889415,"SoundDuration":889415,"Delta":30997487},{"NoteNumber":59,"Velocity":48,"Duration":889415,"SoundDuration":889415,"Delta":30997487},{"NoteNumber":60,"Velocity":45,"Duration":889416,"SoundDuration":889416,"Delta":31886903},{"NoteNumber":67,"Velocity":54,"Duration":889416,"SoundDuration":889416,"Delta":31886903},{"NoteNumber":57,"Velocity":48,"Duration":889416,"SoundDuration":889416,"Delta":31886903},{"NoteNumber":62,"Velocity":43,"Duration":864209,"SoundDuration":864209,"Delta":32776319},{"NoteNumber":66,"Velocity":51,"Duration":294290,"SoundDuration":294290,"Delta":32776319},{"NoteNumber":45,"Velocity":47,"Duration":864209,"SoundDuration":864209,"Delta":32776319},{"NoteNumber":69,"Velocity":51,"Duration":288069,"SoundDuration":288069,"Delta":33070610},{"NoteNumber":72,"Velocity":50,"Duration":281849,"SoundDuration":281849,"Delta":33358680},{"NoteNumber":67,"Velocity":49,"Duration":916730,"SoundDuration":916730,"Delta":33640529},{"NoteNumber":62,"Velocity":45,"Duration":916730,"SoundDuration":916730,"Delta":33640529},{"NoteNumber":71,"Velocity":54,"Duration":916730,"SoundDuration":916730,"Delta":33640529},{"NoteNumber":55,"Velocity":48,"Duration":916730,"SoundDuration":916730,"Delta":33640529},{"NoteNumber":59,"Velocity":45,"Duration":876424,"SoundDuration":876424,"Delta":34557259},{"NoteNumber":63,"Velocity":45,"Duration":876424,"SoundDuration":876424,"Delta":34557259},{"NoteNumber":67,"Velocity":53,"Duration":657317,"SoundDuration":657317,"Delta":34557259},{"NoteNumber":43,"Velocity":42,"Duration":876424,"SoundDuration":876424,"Delta":34557259},{"NoteNumber":66,"Velocity":49,"Duration":219106,"SoundDuration":219106,"Delta":35214577},{"NoteNumber":60,"Velocity":44,"Duration":896191,"SoundDuration":896191,"Delta":35433683},{"NoteNumber":64,"Velocity":52,"Duration":896191,"SoundDuration":896191,"Delta":35433683},{"NoteNumber":48,"Velocity":41,"Duration":896191,"SoundDuration":896191,"Delta":35433683},{"NoteNumber":60,"Velocity":42,"Duration":923645,"SoundDuration":923645,"Delta":36329874},{"NoteNumber":64,"Velocity":50,"Duration":923645,"SoundDuration":923645,"Delta":36329874},{"NoteNumber":45,"Velocity":34,"Duration":923645,"SoundDuration":923645,"Delta":36329874},{"NoteNumber":52,"Velocity":41,"Duration":923645,"SoundDuration":923645,"Delta":36329874},{"NoteNumber":59,"Velocity":42,"Duration":896191,"SoundDuration":896191,"Delta":37253519},{"NoteNumber":64,"Velocity":50,"Duration":896191,"SoundDuration":896191,"Delta":37253519},{"NoteNumber":43,"Velocity":34,"Duration":896191,"SoundDuration":896191,"Delta":37253519},{"NoteNumber":52,"Velocity":40,"Duration":896191,"SoundDuration":896191,"Delta":37253519},{"NoteNumber":54,"Velocity":42,"Duration":974029,"SoundDuration":974029,"Delta":38149710},{"NoteNumber":57,"Velocity":42,"Duration":974029,"SoundDuration":974029,"Delta":38149710},{"NoteNumber":60,"Velocity":42,"Duration":974029,"SoundDuration":974029,"Delta":38149710},{"NoteNumber":66,"Velocity":50,"Duration":703564,"SoundDuration":703564,"Delta":38149710},{"NoteNumber":45,"Velocity":31,"Duration":974029,"SoundDuration":974029,"Delta":38149710},{"NoteNumber":52,"Velocity":37,"Duration":974029,"SoundDuration":974029,"Delta":38149710},{"NoteNumber":63,"Velocity":45,"Duration":270465,"SoundDuration":270465,"Delta":38853274},{"NoteNumber":54,"Velocity":38,"Duration":992392,"SoundDuration":992392,"Delta":39123739},{"NoteNumber":57,"Velocity":41,"Duration":992392,"SoundDuration":992392,"Delta":39123739},{"NoteNumber":60,"Velocity":41,"Duration":992392,"SoundDuration":992392,"Delta":39123739},{"NoteNumber":63,"Velocity":49,"Duration":992392,"SoundDuration":992392,"Delta":39123739},{"NoteNumber":40,"Velocity":28,"Duration":2977176,"SoundDuration":2977176,"Delta":39123739},{"NoteNumber":52,"Velocity":34,"Duration":2977176,"SoundDuration":2977176,"Delta":39123739},{"NoteNumber":55,"Velocity":35,"Duration":1984783,"SoundDuration":1984783,"Delta":40116131},{"NoteNumber":59,"Velocity":35,"Duration":1984783,"SoundDuration":1984783,"Delta":40116131},{"NoteNumber":64,"Velocity":42,"Duration":1984783,"SoundDuration":1984783,"Delta":40116131},{"NoteNumber":59,"Velocity":68,"Duration":889415,"SoundDuration":889415,"Delta":42100915},{"NoteNumber":47,"Velocity":57,"Duration":885710,"SoundDuration":885710,"Delta":42100915},{"NoteNumber":52,"Velocity":59,"Duration":863931,"SoundDuration":863931,"Delta":42990331},{"NoteNumber":55,"Velocity":59,"Duration":863931,"SoundDuration":863931,"Delta":42990331},{"NoteNumber":59,"Velocity":59,"Duration":863931,"SoundDuration":863931,"Delta":42990331},{"NoteNumber":64,"Velocity":70,"Duration":863931,"SoundDuration":863931,"Delta":42990331},{"NoteNumber":28,"Velocity":52,"Duration":1753346,"SoundDuration":1753346,"Delta":42990331},{"NoteNumber":40,"Velocity":62,"Duration":1753346,"SoundDuration":1753346,"Delta":42990331},{"NoteNumber":52,"Velocity":59,"Duration":889415,"SoundDuration":889415,"Delta":43854262},{"NoteNumber":55,"Velocity":59,"Duration":889415,"SoundDuration":889415,"Delta":43854262},{"NoteNumber":59,"Velocity":59,"Duration":889415,"SoundDuration":889415,"Delta":43854262},{"NoteNumber":64,"Velocity":70,"Duration":889415,"SoundDuration":889415,"Delta":43854262},{"NoteNumber":55,"Velocity":60,"Duration":863931,"SoundDuration":863931,"Delta":44743678},{"NoteNumber":59,"Velocity":60,"Duration":863931,"SoundDuration":863931,"Delta":44743678},{"NoteNumber":64,"Velocity":60,"Duration":863931,"SoundDuration":863931,"Delta":44743678},{"NoteNumber":67,"Velocity":71,"Duration":863931,"SoundDuration":863931,"Delta":44743678},{"NoteNumber":35,"Velocity":52,"Duration":1753346,"SoundDuration":1753346,"Delta":44743678},{"NoteNumber":47,"Velocity":62,"Duration":1753346,"SoundDuration":1753346,"Delta":44743678},{"NoteNumber":57,"Velocity":60,"Duration":889415,"SoundDuration":889415,"Delta":45607609},{"NoteNumber":59,"Velocity":60,"Duration":889415,"SoundDuration":889415,"Delta":45607609},{"NoteNumber":66,"Velocity":60,"Duration":889415,"SoundDuration":889415,"Delta":45607609},{"NoteNumber":69,"Velocity":71,"Duration":889415,"SoundDuration":889415,"Delta":45607609},{"NoteNumber":59,"Velocity":61,"Duration":889416,"SoundDuration":889416,"Delta":46497025},{"NoteNumber":64,"Velocity":61,"Duration":889416,"SoundDuration":889416,"Delta":46497025},{"NoteNumber":67,"Velocity":61,"Duration":889416,"SoundDuration":889416,"Delta":46497025},{"NoteNumber":71,"Velocity":72,"Duration":889416,"SoundDuration":889416,"Delta":46497025},{"NoteNumber":40,"Velocity":50,"Duration":2630049,"SoundDuration":2630049,"Delta":46497025},{"NoteNumber":52,"Velocity":59,"Duration":2630049,"SoundDuration":2630049,"Delta":46497025},{"NoteNumber":57,"Velocity":58,"Duration":147145,"SoundDuration":147145,"Delta":47386441},{"NoteNumber":64,"Velocity":58,"Duration":147145,"SoundDuration":147145,"Delta":47386441},{"NoteNumber":66,"Velocity":58,"Duration":147145,"SoundDuration":147145,"Delta":47386441},{"NoteNumber":69,"Velocity":69,"Duration":147145,"SoundDuration":147145,"Delta":47386441},{"NoteNumber":59,"Velocity":58,"Duration":147145,"SoundDuration":147145,"Delta":47680732},{"NoteNumber":64,"Velocity":58,"Duration":147145,"SoundDuration":147145,"Delta":47680732},{"NoteNumber":67,"Velocity":58,"Duration":147145,"SoundDuration":147145,"Delta":47680732},{"NoteNumber":71,"Velocity":69,"Duration":147145,"SoundDuration":147145,"Delta":47680732},{"NoteNumber":60,"Velocity":58,"Duration":140924,"SoundDuration":140924,"Delta":47968802},{"NoteNumber":64,"Velocity":58,"Duration":140924,"SoundDuration":140924,"Delta":47968802},{"NoteNumber":69,"Velocity":58,"Duration":140924,"SoundDuration":140924,"Delta":47968802},{"NoteNumber":72,"Velocity":69,"Duration":140924,"SoundDuration":140924,"Delta":47968802},{"NoteNumber":59,"Velocity":62,"Duration":876424,"SoundDuration":876424,"Delta":48250651},{"NoteNumber":64,"Velocity":62,"Duration":876424,"SoundDuration":876424,"Delta":48250651},{"NoteNumber":67,"Velocity":62,"Duration":876424,"SoundDuration":876424,"Delta":48250651},{"NoteNumber":71,"Velocity":73,"Duration":876424,"SoundDuration":876424,"Delta":48250651},{"NoteNumber":55,"Velocity":57,"Duration":657317,"SoundDuration":657317,"Delta":49127075},{"NoteNumber":59,"Velocity":57,"Duration":657317,"SoundDuration":657317,"Delta":49127075},{"NoteNumber":64,"Velocity":57,"Duration":657317,"SoundDuration":657317,"Delta":49127075},{"NoteNumber":67,"Velocity":68,"Duration":657317,"SoundDuration":657317,"Delta":49127075},{"NoteNumber":35,"Velocity":54,"Duration":876424,"SoundDuration":876424,"Delta":49127075},{"NoteNumber":47,"Velocity":57,"Duration":876424,"SoundDuration":876424,"Delta":49127075},{"NoteNumber":57,"Velocity":61,"Duration":219106,"SoundDuration":219106,"Delta":49784393},{"NoteNumber":66,"Velocity":61,"Duration":219106,"SoundDuration":219106,"Delta":49784393},{"NoteNumber":69,"Velocity":72,"Duration":219106,"SoundDuration":219106,"Delta":49784393},{"NoteNumber":59,"Velocity":61,"Duration":857632,"SoundDuration":857632,"Delta":50003499},{"NoteNumber":64,"Velocity":61,"Duration":857632,"SoundDuration":857632,"Delta":50003499},{"NoteNumber":67,"Velocity":61,"Duration":857632,"SoundDuration":857632,"Delta":50003499},{"NoteNumber":71,"Velocity":72,"Duration":857632,"SoundDuration":857632,"Delta":50003499},{"NoteNumber":40,"Velocity":50,"Duration":1753824,"SoundDuration":1753824,"Delta":50003499},{"NoteNumber":52,"Velocity":59,"Duration":1753824,"SoundDuration":1753824,"Delta":50003499},{"NoteNumber":59,"Velocity":59,"Duration":896191,"SoundDuration":896191,"Delta":50861132},{"NoteNumber":64,"Velocity":59,"Duration":896191,"SoundDuration":896191,"Delta":50861132},{"NoteNumber":67,"Velocity":59,"Duration":896191,"SoundDuration":896191,"Delta":50861132},{"NoteNumber":71,"Velocity":71,"Duration":896191,"SoundDuration":896191,"Delta":50861132},{"NoteNumber":71,"Velocity":66,"Duration":902934,"SoundDuration":902934,"Delta":51757323},{"NoteNumber":72,"Velocity":68,"Duration":902934,"SoundDuration":902934,"Delta":51757323},{"NoteNumber":79,"Velocity":80,"Duration":902934,"SoundDuration":902934,"Delta":51757323},{"NoteNumber":45,"Velocity":59,"Duration":1833745,"SoundDuration":1833745,"Delta":51757323},{"NoteNumber":57,"Velocity":65,"Duration":1833745,"SoundDuration":1833745,"Delta":51757323},{"NoteNumber":69,"Velocity":61,"Duration":930810,"SoundDuration":930810,"Delta":52660258},{"NoteNumber":72,"Velocity":61,"Duration":930810,"SoundDuration":930810,"Delta":52660258},{"NoteNumber":78,"Velocity":73,"Duration":930810,"SoundDuration":930810,"Delta":52660258},{"NoteNumber":67,"Velocity":55,"Duration":1861620,"SoundDuration":1861620,"Delta":53591068},{"NoteNumber":71,"Velocity":55,"Duration":1861620,"SoundDuration":1861620,"Delta":53591068},{"NoteNumber":76,"Velocity":65,"Duration":1861620,"SoundDuration":1861620,"Delta":53591068},{"NoteNumber":47,"Velocity":50,"Duration":2792430,"SoundDuration":2792430,"Delta":53591068},{"NoteNumber":59,"Velocity":59,"Duration":2792430,"SoundDuration":2792430,"Delta":53591068},{"NoteNumber":66,"Velocity":45,"Duration":884269,"SoundDuration":884269,"Delta":55452688},{"NoteNumber":71,"Velocity":45,"Duration":884269,"SoundDuration":884269,"Delta":55452688},{"NoteNumber":75,"Velocity":54,"Duration":884269,"SoundDuration":884269,"Delta":55452688},{"NoteNumber":66,"Velocity":49,"Duration":896191,"SoundDuration":896191,"Delta":56383498},{"NoteNumber":59,"Velocity":44,"Duration":896191,"SoundDuration":896191,"Delta":56383498},{"NoteNumber":67,"Velocity":53,"Duration":863931,"SoundDuration":863931,"Delta":57279689},{"NoteNumber":64,"Velocity":48,"Duration":863931,"SoundDuration":863931,"Delta":57279689},{"NoteNumber":66,"Velocity":45,"Duration":889415,"SoundDuration":889415,"Delta":58143620},{"NoteNumber":67,"Velocity":54,"Duration":889415,"SoundDuration":889415,"Delta":58143620},{"NoteNumber":62,"Velocity":48,"Duration":889415,"SoundDuration":889415,"Delta":58143620},{"NoteNumber":64,"Velocity":45,"Duration":863931,"SoundDuration":863931,"Delta":59033036},{"NoteNumber":67,"Velocity":54,"Duration":863931,"SoundDuration":863931,"Delta":59033036},{"NoteNumber":60,"Velocity":48,"Duration":863931,"SoundDuration":863931,"Delta":59033036},{"NoteNumber":62,"Velocity":45,"Duration":889415,"SoundDuration":889415,"Delta":59896967},{"NoteNumber":67,"Velocity":53,"Duration":889415,"SoundDuration":889415,"Delta":59896967},{"NoteNumber":59,"Velocity":48,"Duration":889415,"SoundDuration":889415,"Delta":59896967},{"NoteNumber":61,"Velocity":45,"Duration":889416,"SoundDuration":889416,"Delta":60786383},{"NoteNumber":67,"Velocity":54,"Duration":889416,"SoundDuration":889416,"Delta":60786383},{"NoteNumber":57,"Velocity":48,"Duration":889416,"SoundDuration":889416,"Delta":60786383},{"NoteNumber":62,"Velocity":43,"Duration":864209,"SoundDuration":864209,"Delta":61675799},{"NoteNumber":66,"Velocity":51,"Duration":294290,"SoundDuration":294290,"Delta":61675799},{"NoteNumber":50,"Velocity":47,"Duration":864209,"SoundDuration":864209,"Delta":61675799},{"NoteNumber":69,"Velocity":51,"Duration":288069,"SoundDuration":288069,"Delta":61970089},{"NoteNumber":72,"Velocity":50,"Duration":281849,"SoundDuration":281849,"Delta":62258159},{"NoteNumber":67,"Velocity":49,"Duration":938085,"SoundDuration":938085,"Delta":62540008},{"NoteNumber":62,"Velocity":45,"Duration":938085,"SoundDuration":938085,"Delta":62540008},{"NoteNumber":71,"Velocity":54,"Duration":938085,"SoundDuration":938085,"Delta":62540008},{"NoteNumber":55,"Velocity":48,"Duration":938085,"SoundDuration":938085,"Delta":62540008},{"NoteNumber":59,"Velocity":45,"Duration":893724,"SoundDuration":893724,"Delta":63478094},{"NoteNumber":62,"Velocity":45,"Duration":893724,"SoundDuration":893724,"Delta":63478094},{"NoteNumber":67,"Velocity":53,"Duration":657318,"SoundDuration":657318,"Delta":63478094},{"NoteNumber":43,"Velocity":42,"Duration":893724,"SoundDuration":893724,"Delta":63478094},{"NoteNumber":65,"Velocity":49,"Duration":236406,"SoundDuration":236406,"Delta":64135412},{"NoteNumber":60,"Velocity":44,"Duration":916730,"SoundDuration":916730,"Delta":64371819},{"NoteNumber":64,"Velocity":52,"Duration":916730,"SoundDuration":916730,"Delta":64371819},{"NoteNumber":48,"Velocity":41,"Duration":916730,"SoundDuration":916730,"Delta":64371819},{"NoteNumber":60,"Velocity":42,"Duration":945626,"SoundDuration":945626,"Delta":65288549},{"NoteNumber":64,"Velocity":50,"Duration":945626,"SoundDuration":945626,"Delta":65288549},{"NoteNumber":45,"Velocity":34,"Duration":945626,"SoundDuration":945626,"Delta":65288549},{"NoteNumber":52,"Velocity":41,"Duration":945626,"SoundDuration":945626,"Delta":65288549},{"NoteNumber":59,"Velocity":42,"Duration":916730,"SoundDuration":916730,"Delta":66234175},{"NoteNumber":64,"Velocity":50,"Duration":916730,"SoundDuration":916730,"Delta":66234175},{"NoteNumber":43,"Velocity":34,"Duration":916730,"SoundDuration":916730,"Delta":66234175},{"NoteNumber":52,"Velocity":40,"Duration":916730,"SoundDuration":916730,"Delta":66234175},{"NoteNumber":54,"Velocity":42,"Duration":974029,"SoundDuration":974029,"Delta":67150905},{"NoteNumber":57,"Velocity":42,"Duration":974029,"SoundDuration":974029,"Delta":67150905},{"NoteNumber":60,"Velocity":42,"Duration":974029,"SoundDuration":974029,"Delta":67150905},{"NoteNumber":66,"Velocity":50,"Duration":703564,"SoundDuration":703564,"Delta":67150905},{"NoteNumber":45,"Velocity":31,"Duration":974029,"SoundDuration":974029,"Delta":67150905},{"NoteNumber":52,"Velocity":37,"Duration":974029,"SoundDuration":974029,"Delta":67150905},{"NoteNumber":63,"Velocity":45,"Duration":270465,"SoundDuration":270465,"Delta":67854469},{"NoteNumber":54,"Velocity":38,"Duration":992391,"SoundDuration":992391,"Delta":68124935},{"NoteNumber":57,"Velocity":41,"Duration":992391,"SoundDuration":992391,"Delta":68124935},{"NoteNumber":60,"Velocity":41,"Duration":992391,"SoundDuration":992391,"Delta":68124935},{"NoteNumber":63,"Velocity":49,"Duration":992391,"SoundDuration":992391,"Delta":68124935},{"NoteNumber":40,"Velocity":28,"Duration":2977176,"SoundDuration":2977176,"Delta":68124935},{"NoteNumber":52,"Velocity":34,"Duration":2977176,"SoundDuration":2977176,"Delta":68124935},{"NoteNumber":55,"Velocity":35,"Duration":1966176,"SoundDuration":1966176,"Delta":69117327},{"NoteNumber":59,"Velocity":35,"Duration":1966176,"SoundDuration":1966176,"Delta":69117327},{"NoteNumber":64,"Velocity":42,"Duration":1966176,"SoundDuration":1966176,"Delta":69117327},{"NoteNumber":59,"Velocity":57,"Duration":889415,"SoundDuration":889415,"Delta":71102111},{"NoteNumber":54,"Velocity":51,"Duration":863930,"SoundDuration":863930,"Delta":71991527},{"NoteNumber":59,"Velocity":51,"Duration":863930,"SoundDuration":863930,"Delta":71991527},{"NoteNumber":63,"Velocity":60,"Duration":863930,"SoundDuration":863930,"Delta":71991527},{"NoteNumber":35,"Velocity":45,"Duration":1727861,"SoundDuration":1727861,"Delta":71991527},{"NoteNumber":47,"Velocity":53,"Duration":1727861,"SoundDuration":1727861,"Delta":71991527},{"NoteNumber":54,"Velocity":52,"Duration":863930,"SoundDuration":863930,"Delta":72855458},{"NoteNumber":59,"Velocity":52,"Duration":863930,"SoundDuration":863930,"Delta":72855458},{"NoteNumber":63,"Velocity":62,"Duration":863930,"SoundDuration":863930,"Delta":72855458},{"NoteNumber":55,"Velocity":54,"Duration":863905,"SoundDuration":863905,"Delta":73719389},{"NoteNumber":59,"Velocity":54,"Duration":863905,"SoundDuration":863905,"Delta":73719389},{"NoteNumber":61,"Velocity":54,"Duration":863905,"SoundDuration":863905,"Delta":73719389},{"NoteNumber":64,"Velocity":64,"Duration":863905,"SoundDuration":863905,"Delta":73719389},{"NoteNumber":35,"Velocity":42,"Duration":1703536,"SoundDuration":1703536,"Delta":73719389},{"NoteNumber":47,"Velocity":50,"Duration":1703536,"SoundDuration":1703536,"Delta":73719389},{"NoteNumber":55,"Velocity":54,"Duration":139938,"SoundDuration":139938,"Delta":74583294},{"NoteNumber":61,"Velocity":54,"Duration":139938,"SoundDuration":139938,"Delta":74583294},{"NoteNumber":64,"Velocity":65,"Duration":139938,"SoundDuration":139938,"Delta":74583294},{"NoteNumber":57,"Velocity":53,"Duration":139938,"SoundDuration":139938,"Delta":74863171},{"NoteNumber":63,"Velocity":53,"Duration":139938,"SoundDuration":139938,"Delta":74863171},{"NoteNumber":66,"Velocity":63,"Duration":139938,"SoundDuration":139938,"Delta":74863171},{"NoteNumber":59,"Velocity":53,"Duration":139938,"SoundDuration":139938,"Delta":75143048},{"NoteNumber":64,"Velocity":53,"Duration":139938,"SoundDuration":139938,"Delta":75143048},{"NoteNumber":67,"Velocity":63,"Duration":139938,"SoundDuration":139938,"Delta":75143048},{"NoteNumber":57,"Velocity":57,"Duration":863930,"SoundDuration":863930,"Delta":75422925},{"NoteNumber":63,"Velocity":57,"Duration":863930,"SoundDuration":863930,"Delta":75422925},{"NoteNumber":66,"Velocity":67,"Duration":863930,"SoundDuration":863930,"Delta":75422925},{"NoteNumber":35,"Velocity":48,"Duration":1727861,"SoundDuration":1727861,"Delta":75422925},{"NoteNumber":47,"Velocity":58,"Duration":863930,"SoundDuration":863930,"Delta":75422925},{"NoteNumber":57,"Velocity":58,"Duration":863930,"SoundDuration":863930,"Delta":76286856},{"NoteNumber":63,"Velocity":58,"Duration":863930,"SoundDuration":863930,"Delta":76286856},{"NoteNumber":66,"Velocity":69,"Duration":863930,"SoundDuration":863930,"Delta":76286856},{"NoteNumber":47,"Velocity":55,"Duration":863930,"SoundDuration":863930,"Delta":76286856},{"NoteNumber":59,"Velocity":60,"Duration":863905,"SoundDuration":863905,"Delta":77150787},{"NoteNumber":64,"Velocity":60,"Duration":863905,"SoundDuration":863905,"Delta":77150787},{"NoteNumber":67,"Velocity":72,"Duration":863905,"SoundDuration":863905,"Delta":77150787},{"NoteNumber":35,"Velocity":51,"Duration":1703536,"SoundDuration":1703536,"Delta":77150787},{"NoteNumber":47,"Velocity":61,"Duration":863905,"SoundDuration":863905,"Delta":77150787},{"NoteNumber":59,"Velocity":62,"Duration":139938,"SoundDuration":139938,"Delta":78014692},{"NoteNumber":64,"Velocity":62,"Duration":139938,"SoundDuration":139938,"Delta":78014692},{"NoteNumber":67,"Velocity":73,"Duration":139938,"SoundDuration":139938,"Delta":78014692},{"NoteNumber":47,"Velocity":56,"Duration":839630,"SoundDuration":839630,"Delta":78014692},{"NoteNumber":59,"Velocity":61,"Duration":139938,"SoundDuration":139938,"Delta":78294569},{"NoteNumber":66,"Velocity":61,"Duration":139938,"SoundDuration":139938,"Delta":78294569},{"NoteNumber":69,"Velocity":72,"Duration":139938,"SoundDuration":139938,"Delta":78294569},{"NoteNumber":59,"Velocity":61,"Duration":139938,"SoundDuration":139938,"Delta":78574446},{"NoteNumber":67,"Velocity":61,"Duration":139938,"SoundDuration":139938,"Delta":78574446},{"NoteNumber":71,"Velocity":72,"Duration":139938,"SoundDuration":139938,"Delta":78574446},{"NoteNumber":60,"Velocity":55,"Duration":863930,"SoundDuration":863930,"Delta":78854323},{"NoteNumber":64,"Velocity":57,"Duration":863930,"SoundDuration":863930,"Delta":78854323},{"NoteNumber":66,"Velocity":63,"Duration":863930,"SoundDuration":863930,"Delta":78854323},{"NoteNumber":69,"Velocity":75,"Duration":863930,"SoundDuration":863930,"Delta":78854323},{"NoteNumber":35,"Velocity":55,"Duration":863930,"SoundDuration":863930,"Delta":78854323},{"NoteNumber":47,"Velocity":66,"Duration":863930,"SoundDuration":863930,"Delta":78854323},{"NoteNumber":60,"Velocity":60,"Duration":139938,"SoundDuration":139938,"Delta":79718254},{"NoteNumber":64,"Velocity":64,"Duration":139938,"SoundDuration":139938,"Delta":79718254},{"NoteNumber":66,"Velocity":66,"Duration":139938,"SoundDuration":139938,"Delta":79718254},{"NoteNumber":69,"Velocity":77,"Duration":139938,"SoundDuration":139938,"Delta":79718254},{"NoteNumber":35,"Velocity":53,"Duration":839630,"SoundDuration":839630,"Delta":79718254},{"NoteNumber":47,"Velocity":63,"Duration":839630,"SoundDuration":839630,"Delta":79718254},{"NoteNumber":67,"Velocity":64,"Duration":139938,"SoundDuration":139938,"Delta":79998131},{"NoteNumber":64,"Velocity":64,"Duration":139938,"SoundDuration":139938,"Delta":79998131},{"NoteNumber":71,"Velocity":76,"Duration":139938,"SoundDuration":139938,"Delta":79998131},{"NoteNumber":64,"Velocity":64,"Duration":139938,"SoundDuration":139938,"Delta":80278008},{"NoteNumber":72,"Velocity":77,"Duration":139938,"SoundDuration":139938,"Delta":80278008},{"NoteNumber":69,"Velocity":64,"Duration":139938,"SoundDuration":139938,"Delta":80278008},{"NoteNumber":67,"Velocity":67,"Duration":857633,"SoundDuration":857633,"Delta":80557885},{"NoteNumber":64,"Velocity":67,"Duration":857633,"SoundDuration":857633,"Delta":80557885},{"NoteNumber":71,"Velocity":79,"Duration":857633,"SoundDuration":857633,"Delta":80557885},{"NoteNumber":35,"Velocity":57,"Duration":857633,"SoundDuration":857633,"Delta":80557885},{"NoteNumber":47,"Velocity":67,"Duration":857633,"SoundDuration":857633,"Delta":80557885},{"NoteNumber":64,"Velocity":71,"Duration":139938,"SoundDuration":139938,"Delta":81415518},{"NoteNumber":71,"Velocity":83,"Duration":139938,"SoundDuration":139938,"Delta":81415518},{"NoteNumber":67,"Velocity":71,"Duration":139938,"SoundDuration":139938,"Delta":81415518},{"NoteNumber":35,"Velocity":55,"Duration":839630,"SoundDuration":839630,"Delta":81415518},{"NoteNumber":47,"Velocity":65,"Duration":839630,"SoundDuration":839630,"Delta":81415518},{"NoteNumber":66,"Velocity":67,"Duration":139938,"SoundDuration":139938,"Delta":81695395},{"NoteNumber":75,"Velocity":80,"Duration":139938,"SoundDuration":139938,"Delta":81695395},{"NoteNumber":69,"Velocity":67,"Duration":139938,"SoundDuration":139938,"Delta":81695395},{"NoteNumber":76,"Velocity":81,"Duration":139938,"SoundDuration":139938,"Delta":81975272},{"NoteNumber":67,"Velocity":68,"Duration":139938,"SoundDuration":139938,"Delta":81975272},{"NoteNumber":71,"Velocity":68,"Duration":139938,"SoundDuration":139938,"Delta":81975272},{"NoteNumber":66,"Velocity":69,"Duration":863930,"SoundDuration":863930,"Delta":82255149},{"NoteNumber":69,"Velocity":69,"Duration":863930,"SoundDuration":863930,"Delta":82255149},{"NoteNumber":75,"Velocity":82,"Duration":863930,"SoundDuration":863930,"Delta":82255149},{"NoteNumber":35,"Velocity":59,"Duration":863930,"SoundDuration":863930,"Delta":82255149},{"NoteNumber":47,"Velocity":70,"Duration":863930,"SoundDuration":863930,"Delta":82255149},{"NoteNumber":66,"Velocity":75,"Duration":139938,"SoundDuration":139938,"Delta":83119080},{"NoteNumber":69,"Velocity":75,"Duration":139938,"SoundDuration":139938,"Delta":83119080},{"NoteNumber":75,"Velocity":89,"Duration":139938,"SoundDuration":139938,"Delta":83119080},{"NoteNumber":35,"Velocity":61,"Duration":139938,"SoundDuration":139938,"Delta":83119080},{"NoteNumber":47,"Velocity":73,"Duration":139938,"SoundDuration":139938,"Delta":83119080},{"NoteNumber":71,"Velocity":72,"Duration":139938,"SoundDuration":139938,"Delta":83398957},{"NoteNumber":67,"Velocity":72,"Duration":139938,"SoundDuration":139938,"Delta":83398957},{"NoteNumber":76,"Velocity":85,"Duration":139938,"SoundDuration":139938,"Delta":83398957},{"NoteNumber":35,"Velocity":58,"Duration":139938,"SoundDuration":139938,"Delta":83398957},{"NoteNumber":47,"Velocity":69,"Duration":139938,"SoundDuration":139938,"Delta":83398957},{"NoteNumber":69,"Velocity":74,"Duration":139938,"SoundDuration":139938,"Delta":83678834},{"NoteNumber":78,"Velocity":87,"Duration":139938,"SoundDuration":139938,"Delta":83678834},{"NoteNumber":72,"Velocity":74,"Duration":139938,"SoundDuration":139938,"Delta":83678834},{"NoteNumber":35,"Velocity":59,"Duration":139938,"SoundDuration":139938,"Delta":83678834},{"NoteNumber":47,"Velocity":70,"Duration":139938,"SoundDuration":139938,"Delta":83678834},{"NoteNumber":71,"Velocity":74,"Duration":851546,"SoundDuration":851546,"Delta":83958711},{"NoteNumber":67,"Velocity":74,"Duration":851546,"SoundDuration":851546,"Delta":83958711},{"NoteNumber":76,"Velocity":87,"Duration":851546,"SoundDuration":851546,"Delta":83958711},{"NoteNumber":35,"Velocity":54,"Duration":851546,"SoundDuration":851546,"Delta":83958711},{"NoteNumber":47,"Velocity":76,"Duration":851546,"SoundDuration":851546,"Delta":83958711},{"NoteNumber":67,"Velocity":79,"Duration":138966,"SoundDuration":138966,"Delta":84810258},{"NoteNumber":76,"Velocity":94,"Duration":138966,"SoundDuration":138966,"Delta":84810258},{"NoteNumber":71,"Velocity":79,"Duration":138966,"SoundDuration":138966,"Delta":84810258},{"NoteNumber":35,"Velocity":65,"Duration":138966,"SoundDuration":138966,"Delta":84810258},{"NoteNumber":47,"Velocity":78,"Duration":138966,"SoundDuration":138966,"Delta":84810258},{"NoteNumber":67,"Velocity":75,"Duration":138966,"SoundDuration":138966,"Delta":85088190},{"NoteNumber":78,"Velocity":89,"Duration":138966,"SoundDuration":138966,"Delta":85088190},{"NoteNumber":71,"Velocity":75,"Duration":138966,"SoundDuration":138966,"Delta":85088190},{"NoteNumber":35,"Velocity":61,"Duration":138966,"SoundDuration":138966,"Delta":85088190},{"NoteNumber":47,"Velocity":73,"Duration":138966,"SoundDuration":138966,"Delta":85088190},{"NoteNumber":79,"Velocity":90,"Duration":138966,"SoundDuration":138966,"Delta":85366123},{"NoteNumber":67,"Velocity":76,"Duration":138966,"SoundDuration":138966,"Delta":85366123},{"NoteNumber":71,"Velocity":76,"Duration":138966,"SoundDuration":138966,"Delta":85366123},{"NoteNumber":35,"Velocity":62,"Duration":138966,"SoundDuration":138966,"Delta":85366123},{"NoteNumber":47,"Velocity":73,"Duration":138966,"SoundDuration":138966,"Delta":85366123},{"NoteNumber":76,"Velocity":80,"Duration":859732,"SoundDuration":859732,"Delta":85644055},{"NoteNumber":81,"Velocity":94,"Duration":859732,"SoundDuration":859732,"Delta":85644055},{"NoteNumber":48,"Velocity":67,"Duration":859732,"SoundDuration":859732,"Delta":85644055},{"NoteNumber":60,"Velocity":79,"Duration":859732,"SoundDuration":859732,"Delta":85644055},{"NoteNumber":74,"Velocity":80,"Duration":868107,"SoundDuration":868107,"Delta":86503787},{"NoteNumber":79,"Velocity":94,"Duration":868107,"SoundDuration":868107,"Delta":86503787},{"NoteNumber":81,"Velocity":94,"Duration":868107,"SoundDuration":868107,"Delta":86503787},{"NoteNumber":47,"Velocity":64,"Duration":868107,"SoundDuration":868107,"Delta":86503787},{"NoteNumber":59,"Velocity":77,"Duration":868107,"SoundDuration":868107,"Delta":86503787},{"NoteNumber":72,"Velocity":80,"Duration":878573,"SoundDuration":878573,"Delta":87371895},{"NoteNumber":78,"Velocity":94,"Duration":878573,"SoundDuration":878573,"Delta":87371895},{"NoteNumber":81,"Velocity":94,"Duration":878573,"SoundDuration":878573,"Delta":87371895},{"NoteNumber":45,"Velocity":62,"Duration":878573,"SoundDuration":878573,"Delta":87371895},{"NoteNumber":57,"Velocity":74,"Duration":878573,"SoundDuration":878573,"Delta":87371895},{"NoteNumber":71,"Velocity":80,"Duration":887799,"SoundDuration":887799,"Delta":88250468},{"NoteNumber":76,"Velocity":94,"Duration":887799,"SoundDuration":887799,"Delta":88250468},{"NoteNumber":81,"Velocity":94,"Duration":887799,"SoundDuration":887799,"Delta":88250468},{"NoteNumber":43,"Velocity":63,"Duration":887799,"SoundDuration":887799,"Delta":88250468},{"NoteNumber":55,"Velocity":75,"Duration":887799,"SoundDuration":887799,"Delta":88250468},{"NoteNumber":69,"Velocity":80,"Duration":923644,"SoundDuration":923644,"Delta":89138267},{"NoteNumber":74,"Velocity":94,"Duration":923644,"SoundDuration":923644,"Delta":89138267},{"NoteNumber":81,"Velocity":94,"Duration":923644,"SoundDuration":923644,"Delta":89138267},{"NoteNumber":42,"Velocity":64,"Duration":923644,"SoundDuration":923644,"Delta":89138267},{"NoteNumber":54,"Velocity":77,"Duration":923644,"SoundDuration":923644,"Delta":89138267},{"NoteNumber":67,"Velocity":74,"Duration":692733,"SoundDuration":692733,"Delta":90061912},{"NoteNumber":72,"Velocity":90,"Duration":692733,"SoundDuration":692733,"Delta":90061912},{"NoteNumber":81,"Velocity":92,"Duration":692733,"SoundDuration":692733,"Delta":90061912},{"NoteNumber":40,"Velocity":64,"Duration":923645,"SoundDuration":923645,"Delta":90061912},{"NoteNumber":52,"Velocity":77,"Duration":923645,"SoundDuration":923645,"Delta":90061912},{"NoteNumber":66,"Velocity":75,"Duration":1154556,"SoundDuration":1154556,"Delta":90754646},{"NoteNumber":71,"Velocity":90,"Duration":1039100,"SoundDuration":1039100,"Delta":90870102},{"NoteNumber":81,"Velocity":90,"Duration":923644,"SoundDuration":923644,"Delta":90985557},{"NoteNumber":39,"Velocity":64,"Duration":923644,"SoundDuration":923644,"Delta":90985557},{"NoteNumber":51,"Velocity":77,"Duration":923644,"SoundDuration":923644,"Delta":90985557},{"NoteNumber":63,"Velocity":79,"Duration":138966,"SoundDuration":138966,"Delta":91909202},{"NoteNumber":71,"Velocity":95,"Duration":138966,"SoundDuration":138966,"Delta":91909202},{"NoteNumber":69,"Velocity":79,"Duration":138966,"SoundDuration":138966,"Delta":91909202},{"NoteNumber":35,"Velocity":66,"Duration":138966,"SoundDuration":138966,"Delta":91909202},{"NoteNumber":47,"Velocity":78,"Duration":138966,"SoundDuration":138966,"Delta":91909202},{"NoteNumber":64,"Velocity":75,"Duration":138966,"SoundDuration":138966,"Delta":92187135},{"NoteNumber":73,"Velocity":90,"Duration":138966,"SoundDuration":138966,"Delta":92187135},{"NoteNumber":69,"Velocity":75,"Duration":138966,"SoundDuration":138966,"Delta":92187135},{"NoteNumber":35,"Velocity":60,"Duration":138966,"SoundDuration":138966,"Delta":92187135},{"NoteNumber":47,"Velocity":73,"Duration":138966,"SoundDuration":138966,"Delta":92187135},{"NoteNumber":75,"Velocity":91,"Duration":138966,"SoundDuration":138966,"Delta":92465067},{"NoteNumber":66,"Velocity":76,"Duration":138966,"SoundDuration":138966,"Delta":92465067},{"NoteNumber":69,"Velocity":76,"Duration":138966,"SoundDuration":138966,"Delta":92465067},{"NoteNumber":35,"Velocity":61,"Duration":138966,"SoundDuration":138966,"Delta":92465067},{"NoteNumber":47,"Velocity":73,"Duration":138966,"SoundDuration":138966,"Delta":92465067},{"NoteNumber":64,"Velocity":79,"Duration":859732,"SoundDuration":859732,"Delta":92742999},{"NoteNumber":67,"Velocity":79,"Duration":859732,"SoundDuration":859732,"Delta":92742999},{"NoteNumber":76,"Velocity":94,"Duration":859732,"SoundDuration":859732,"Delta":92742999},{"NoteNumber":36,"Velocity":67,"Duration":859732,"SoundDuration":859732,"Delta":92742999},{"NoteNumber":48,"Velocity":78,"Duration":859732,"SoundDuration":859732,"Delta":92742999},{"NoteNumber":69,"Velocity":79,"Duration":868107,"SoundDuration":868107,"Delta":93602732},{"NoteNumber":66,"Velocity":79,"Duration":868107,"SoundDuration":868107,"Delta":93602732},{"NoteNumber":74,"Velocity":94,"Duration":868107,"SoundDuration":868107,"Delta":93602732},{"NoteNumber":76,"Velocity":94,"Duration":868107,"SoundDuration":868107,"Delta":93602732},{"NoteNumber":36,"Velocity":64,"Duration":868107,"SoundDuration":868107,"Delta":93602732},{"NoteNumber":48,"Velocity":76,"Duration":868107,"SoundDuration":868107,"Delta":93602732},{"NoteNumber":64,"Velocity":79,"Duration":878573,"SoundDuration":878573,"Delta":94470839},{"NoteNumber":67,"Velocity":79,"Duration":878573,"SoundDuration":878573,"Delta":94470839},{"NoteNumber":72,"Velocity":94,"Duration":878573,"SoundDuration":878573,"Delta":94470839},{"NoteNumber":76,"Velocity":94,"Duration":878573,"SoundDuration":878573,"Delta":94470839},{"NoteNumber":36,"Velocity":61,"Duration":878573,"SoundDuration":878573,"Delta":94470839},{"NoteNumber":48,"Velocity":74,"Duration":878573,"SoundDuration":878573,"Delta":94470839},{"NoteNumber":62,"Velocity":79,"Duration":887799,"SoundDuration":887799,"Delta":95349413},{"NoteNumber":66,"Velocity":79,"Duration":887799,"SoundDuration":887799,"Delta":95349413},{"NoteNumber":71,"Velocity":94,"Duration":887799,"SoundDuration":887799,"Delta":95349413},{"NoteNumber":76,"Velocity":94,"Duration":887799,"SoundDuration":887799,"Delta":95349413},{"NoteNumber":36,"Velocity":63,"Duration":887799,"SoundDuration":887799,"Delta":95349413},{"NoteNumber":48,"Velocity":75,"Duration":887799,"SoundDuration":887799,"Delta":95349413},{"NoteNumber":64,"Velocity":79,"Duration":923644,"SoundDuration":923644,"Delta":96237212},{"NoteNumber":69,"Velocity":94,"Duration":923644,"SoundDuration":923644,"Delta":96237212},{"NoteNumber":76,"Velocity":94,"Duration":923644,"SoundDuration":923644,"Delta":96237212},{"NoteNumber":48,"Velocity":64,"Duration":923644,"SoundDuration":923644,"Delta":96237212},{"NoteNumber":60,"Velocity":76,"Duration":923644,"SoundDuration":923644,"Delta":96237212},{"NoteNumber":62,"Velocity":74,"Duration":923645,"SoundDuration":923645,"Delta":97160857},{"NoteNumber":67,"Velocity":90,"Duration":923645,"SoundDuration":923645,"Delta":97160857},{"NoteNumber":76,"Velocity":92,"Duration":923645,"SoundDuration":923645,"Delta":97160857},{"NoteNumber":48,"Velocity":64,"Duration":923645,"SoundDuration":923645,"Delta":97160857},{"NoteNumber":59,"Velocity":76,"Duration":923645,"SoundDuration":923645,"Delta":97160857},{"NoteNumber":66,"Velocity":91,"Duration":923644,"SoundDuration":923644,"Delta":98084502},{"NoteNumber":76,"Velocity":93,"Duration":923644,"SoundDuration":923644,"Delta":98084502},{"NoteNumber":48,"Velocity":64,"Duration":923644,"SoundDuration":923644,"Delta":98084502},{"NoteNumber":57,"Velocity":64,"Duration":919796,"SoundDuration":919796,"Delta":98084502},{"NoteNumber":60,"Velocity":76,"Duration":923644,"SoundDuration":923644,"Delta":98084502},{"NoteNumber":57,"Velocity":86,"Duration":951279,"SoundDuration":951279,"Delta":99008147},{"NoteNumber":64,"Velocity":86,"Duration":951279,"SoundDuration":951279,"Delta":99008147},{"NoteNumber":36,"Velocity":73,"Duration":951279,"SoundDuration":951279,"Delta":99008147},{"NoteNumber":48,"Velocity":73,"Duration":951279,"SoundDuration":951279,"Delta":99008147},{"NoteNumber":54,"Velocity":75,"Duration":66702,"SoundDuration":66702,"Delta":99559213},{"NoteNumber":66,"Velocity":87,"Duration":66702,"SoundDuration":66702,"Delta":99559213},{"NoteNumber":54,"Velocity":75,"Duration":66702,"SoundDuration":66702,"Delta":99692617},{"NoteNumber":66,"Velocity":87,"Duration":66702,"SoundDuration":66702,"Delta":99692617},{"NoteNumber":54,"Velocity":75,"Duration":66702,"SoundDuration":66702,"Delta":99826022},{"NoteNumber":66,"Velocity":87,"Duration":66702,"SoundDuration":66702,"Delta":99826022},{"NoteNumber":54,"Velocity":68,"Duration":1286449,"SoundDuration":1286449,"Delta":99959426},{"NoteNumber":63,"Velocity":80,"Duration":1286449,"SoundDuration":1286449,"Delta":99959426},{"NoteNumber":59,"Velocity":80,"Duration":1286449,"SoundDuration":1286449,"Delta":99959426},{"NoteNumber":66,"Velocity":92,"Duration":1286449,"SoundDuration":1286449,"Delta":99959426},{"NoteNumber":35,"Velocity":60,"Duration":857633,"SoundDuration":857633,"Delta":99959426},{"NoteNumber":47,"Velocity":72,"Duration":857633,"SoundDuration":857633,"Delta":99959426},{"NoteNumber":54,"Velocity":75,"Duration":67159,"SoundDuration":67159,"Delta":101245876},{"NoteNumber":66,"Velocity":87,"Duration":67159,"SoundDuration":67159,"Delta":101245876},{"NoteNumber":54,"Velocity":75,"Duration":67159,"SoundDuration":67159,"Delta":101380194},{"NoteNumber":66,"Velocity":87,"Duration":67159,"SoundDuration":67159,"Delta":101380194},{"NoteNumber":54,"Velocity":75,"Duration":67159,"SoundDuration":67159,"Delta":101514512},{"NoteNumber":66,"Velocity":87,"Duration":67159,"SoundDuration":67159,"Delta":101514512},{"NoteNumber":54,"Velocity":80,"Duration":1257846,"SoundDuration":1257846,"Delta":101648831},{"NoteNumber":66,"Velocity":92,"Duration":1257846,"SoundDuration":1257846,"Delta":101648831},{"NoteNumber":54,"Velocity":75,"Duration":66269,"SoundDuration":66269,"Delta":102906677},{"NoteNumber":66,"Velocity":87,"Duration":66269,"SoundDuration":66269,"Delta":102906677},{"NoteNumber":54,"Velocity":75,"Duration":66269,"SoundDuration":66269,"Delta":103039215},{"NoteNumber":66,"Velocity":87,"Duration":66269,"SoundDuration":66269,"Delta":103039215},{"NoteNumber":54,"Velocity":75,"Duration":66269,"SoundDuration":66269,"Delta":103171753},{"NoteNumber":66,"Velocity":87,"Duration":66269,"SoundDuration":66269,"Delta":103171753},{"NoteNumber":57,"Velocity":80,"Duration":1715265,"SoundDuration":1715265,"Delta":103304292},{"NoteNumber":69,"Velocity":92,"Duration":1715265,"SoundDuration":1715265,"Delta":103304292},{"NoteNumber":54,"Velocity":71,"Duration":889415,"SoundDuration":889415,"Delta":105019558},{"NoteNumber":66,"Velocity":82,"Duration":889415,"SoundDuration":889415,"Delta":105019558},{"NoteNumber":78,"Velocity":82,"Duration":66702,"SoundDuration":66702,"Delta":106353682},{"NoteNumber":76,"Velocity":82,"Duration":66702,"SoundDuration":66702,"Delta":106353682},{"NoteNumber":72,"Velocity":69,"Duration":66702,"SoundDuration":66702,"Delta":106353682},{"NoteNumber":81,"Velocity":95,"Duration":66702,"SoundDuration":66702,"Delta":106353682},{"NoteNumber":66,"Velocity":63,"Duration":66702,"SoundDuration":66702,"Delta":106353682},{"NoteNumber":69,"Velocity":73,"Duration":66702,"SoundDuration":66702,"Delta":106353682},{"NoteNumber":78,"Velocity":82,"Duration":66702,"SoundDuration":66702,"Delta":106487086},{"NoteNumber":76,"Velocity":82,"Duration":66702,"SoundDuration":66702,"Delta":106487086},{"NoteNumber":72,"Velocity":69,"Duration":66702,"SoundDuration":66702,"Delta":106487086},{"NoteNumber":81,"Velocity":95,"Duration":66702,"SoundDuration":66702,"Delta":106487086},{"NoteNumber":66,"Velocity":63,"Duration":66702,"SoundDuration":66702,"Delta":106487086},{"NoteNumber":69,"Velocity":73,"Duration":66702,"SoundDuration":66702,"Delta":106487086},{"NoteNumber":78,"Velocity":82,"Duration":66702,"SoundDuration":66702,"Delta":106620491},{"NoteNumber":76,"Velocity":82,"Duration":66702,"SoundDuration":66702,"Delta":106620491},{"NoteNumber":72,"Velocity":69,"Duration":66702,"SoundDuration":66702,"Delta":106620491},{"NoteNumber":81,"Velocity":95,"Duration":66702,"SoundDuration":66702,"Delta":106620491},{"NoteNumber":66,"Velocity":63,"Duration":66702,"SoundDuration":66702,"Delta":106620491},{"NoteNumber":69,"Velocity":73,"Duration":66702,"SoundDuration":66702,"Delta":106620491},{"NoteNumber":78,"Velocity":88,"Duration":1286449,"SoundDuration":1286449,"Delta":106753895},{"NoteNumber":75,"Velocity":88,"Duration":1286449,"SoundDuration":1286449,"Delta":106753895},{"NoteNumber":71,"Velocity":74,"Duration":1286449,"SoundDuration":1286449,"Delta":106753895},{"NoteNumber":81,"Velocity":101,"Duration":1286449,"SoundDuration":1286449,"Delta":106753895},{"NoteNumber":59,"Velocity":66,"Duration":1286449,"SoundDuration":1286449,"Delta":106753895},{"NoteNumber":66,"Velocity":79,"Duration":1286449,"SoundDuration":1286449,"Delta":106753895},{"NoteNumber":78,"Velocity":82,"Duration":67159,"SoundDuration":67159,"Delta":108040345},{"NoteNumber":76,"Velocity":82,"Duration":67159,"SoundDuration":67159,"Delta":108040345},{"NoteNumber":71,"Velocity":69,"Duration":67159,"SoundDuration":67159,"Delta":108040345},{"NoteNumber":81,"Velocity":95,"Duration":67159,"SoundDuration":67159,"Delta":108040345},{"NoteNumber":66,"Velocity":63,"Duration":67159,"SoundDuration":67159,"Delta":108040345},{"NoteNumber":69,"Velocity":73,"Duration":67159,"SoundDuration":67159,"Delta":108040345},{"NoteNumber":78,"Velocity":82,"Duration":67159,"SoundDuration":67159,"Delta":108174663},{"NoteNumber":76,"Velocity":82,"Duration":67159,"SoundDuration":67159,"Delta":108174663},{"NoteNumber":71,"Velocity":69,"Duration":67159,"SoundDuration":67159,"Delta":108174663},{"NoteNumber":81,"Velocity":95,"Duration":67159,"SoundDuration":67159,"Delta":108174663},{"NoteNumber":66,"Velocity":63,"Duration":67159,"SoundDuration":67159,"Delta":108174663},{"NoteNumber":69,"Velocity":73,"Duration":67159,"SoundDuration":67159,"Delta":108174663},{"NoteNumber":78,"Velocity":82,"Duration":67159,"SoundDuration":67159,"Delta":108308981},{"NoteNumber":76,"Velocity":82,"Duration":67159,"SoundDuration":67159,"Delta":108308981},{"NoteNumber":71,"Velocity":69,"Duration":67159,"SoundDuration":67159,"Delta":108308981},{"NoteNumber":81,"Velocity":95,"Duration":67159,"SoundDuration":67159,"Delta":108308981},{"NoteNumber":66,"Velocity":63,"Duration":67159,"SoundDuration":67159,"Delta":108308981},{"NoteNumber":69,"Velocity":73,"Duration":67159,"SoundDuration":67159,"Delta":108308981},{"NoteNumber":78,"Velocity":88,"Duration":1286449,"SoundDuration":1286449,"Delta":108443300},{"NoteNumber":75,"Velocity":88,"Duration":1286449,"SoundDuration":1286449,"Delta":108443300},{"NoteNumber":71,"Velocity":74,"Duration":1286449,"SoundDuration":1286449,"Delta":108443300},{"NoteNumber":81,"Velocity":101,"Duration":1286449,"SoundDuration":1286449,"Delta":108443300},{"NoteNumber":59,"Velocity":66,"Duration":1286449,"SoundDuration":1286449,"Delta":108443300},{"NoteNumber":66,"Velocity":79,"Duration":1286449,"SoundDuration":1286449,"Delta":108443300},{"NoteNumber":78,"Velocity":82,"Duration":66269,"SoundDuration":66269,"Delta":109729749},{"NoteNumber":76,"Velocity":82,"Duration":66269,"SoundDuration":66269,"Delta":109729749},{"NoteNumber":71,"Velocity":69,"Duration":66269,"SoundDuration":66269,"Delta":109729749},{"NoteNumber":81,"Velocity":95,"Duration":66269,"SoundDuration":66269,"Delta":109729749},{"NoteNumber":66,"Velocity":63,"Duration":66269,"SoundDuration":66269,"Delta":109729749},{"NoteNumber":69,"Velocity":73,"Duration":66269,"SoundDuration":66269,"Delta":109729749},{"NoteNumber":78,"Velocity":82,"Duration":66269,"SoundDuration":66269,"Delta":109862287},{"NoteNumber":76,"Velocity":82,"Duration":66269,"SoundDuration":66269,"Delta":109862287},{"NoteNumber":71,"Velocity":69,"Duration":66269,"SoundDuration":66269,"Delta":109862287},{"NoteNumber":81,"Velocity":95,"Duration":66269,"SoundDuration":66269,"Delta":109862287},{"NoteNumber":66,"Velocity":63,"Duration":66269,"SoundDuration":66269,"Delta":109862287},{"NoteNumber":69,"Velocity":73,"Duration":66269,"SoundDuration":66269,"Delta":109862287},{"NoteNumber":78,"Velocity":82,"Duration":66269,"SoundDuration":66269,"Delta":109994825},{"NoteNumber":76,"Velocity":82,"Duration":66269,"SoundDuration":66269,"Delta":109994825},{"NoteNumber":71,"Velocity":69,"Duration":66269,"SoundDuration":66269,"Delta":109994825},{"NoteNumber":81,"Velocity":95,"Duration":66269,"SoundDuration":66269,"Delta":109994825},{"NoteNumber":66,"Velocity":63,"Duration":66269,"SoundDuration":66269,"Delta":109994825},{"NoteNumber":69,"Velocity":73,"Duration":66269,"SoundDuration":66269,"Delta":109994825},{"NoteNumber":75,"Velocity":88,"Duration":1715265,"SoundDuration":1715265,"Delta":110127364},{"NoteNumber":81,"Velocity":88,"Duration":1715265,"SoundDuration":1715265,"Delta":110127364},{"NoteNumber":87,"Velocity":101,"Duration":1715265,"SoundDuration":1715265,"Delta":110127364},{"NoteNumber":59,"Velocity":66,"Duration":2600976,"SoundDuration":2600976,"Delta":110127364},{"NoteNumber":66,"Velocity":66,"Duration":2604681,"SoundDuration":2604681,"Delta":110127364},{"NoteNumber":69,"Velocity":66,"Duration":2604681,"SoundDuration":2604681,"Delta":110127364},{"NoteNumber":71,"Velocity":79,"Duration":2604681,"SoundDuration":2604681,"Delta":110127364},{"NoteNumber":78,"Velocity":70,"Duration":889415,"SoundDuration":889415,"Delta":111842630},{"NoteNumber":90,"Velocity":81,"Duration":889415,"SoundDuration":889415,"Delta":111842630},{"NoteNumber":57,"Velocity":74,"Duration":889415,"SoundDuration":889415,"Delta":112732046},{"NoteNumber":59,"Velocity":89,"Duration":889415,"SoundDuration":889415,"Delta":112732046},{"NoteNumber":35,"Velocity":67,"Duration":889415,"SoundDuration":889415,"Delta":112732046},{"NoteNumber":47,"Velocity":74,"Duration":889415,"SoundDuration":889415,"Delta":112732046},{"NoteNumber":52,"Velocity":65,"Duration":863930,"SoundDuration":863930,"Delta":113621462},{"NoteNumber":55,"Velocity":77,"Duration":863930,"SoundDuration":863930,"Delta":113621462},{"NoteNumber":59,"Velocity":77,"Duration":863930,"SoundDuration":863930,"Delta":113621462},{"NoteNumber":64,"Velocity":92,"Duration":863930,"SoundDuration":863930,"Delta":113621462},{"NoteNumber":28,"Velocity":67,"Duration":1753346,"SoundDuration":1753346,"Delta":113621462},{"NoteNumber":40,"Velocity":81,"Duration":1753346,"SoundDuration":1753346,"Delta":113621462},{"NoteNumber":52,"Velocity":65,"Duration":889415,"SoundDuration":889415,"Delta":114485393},{"NoteNumber":55,"Velocity":77,"Duration":889415,"SoundDuration":889415,"Delta":114485393},{"NoteNumber":59,"Velocity":77,"Duration":889415,"SoundDuration":889415,"Delta":114485393},{"NoteNumber":64,"Velocity":92,"Duration":889415,"SoundDuration":889415,"Delta":114485393},{"NoteNumber":55,"Velocity":67,"Duration":863930,"SoundDuration":863930,"Delta":115374809},{"NoteNumber":59,"Velocity":79,"Duration":863930,"SoundDuration":863930,"Delta":115374809},{"NoteNumber":62,"Velocity":79,"Duration":863930,"SoundDuration":863930,"Delta":115374809},{"NoteNumber":67,"Velocity":93,"Duration":863930,"SoundDuration":863930,"Delta":115374809},{"NoteNumber":26,"Velocity":67,"Duration":1753346,"SoundDuration":1753346,"Delta":115374809},{"NoteNumber":38,"Velocity":81,"Duration":1753346,"SoundDuration":1753346,"Delta":115374809},{"NoteNumber":62,"Velocity":78,"Duration":889415,"SoundDuration":889415,"Delta":116238740},{"NoteNumber":57,"Velocity":62,"Duration":889415,"SoundDuration":889415,"Delta":116238740},{"NoteNumber":66,"Velocity":79,"Duration":889415,"SoundDuration":889415,"Delta":116238740},{"NoteNumber":69,"Velocity":93,"Duration":889415,"SoundDuration":889415,"Delta":116238740},{"NoteNumber":59,"Velocity":68,"Duration":889415,"SoundDuration":889415,"Delta":117128156},{"NoteNumber":62,"Velocity":80,"Duration":889415,"SoundDuration":889415,"Delta":117128156},{"NoteNumber":67,"Velocity":80,"Duration":889415,"SoundDuration":889415,"Delta":117128156},{"NoteNumber":71,"Velocity":94,"Duration":889415,"SoundDuration":889415,"Delta":117128156},{"NoteNumber":31,"Velocity":65,"Duration":2630049,"SoundDuration":2630049,"Delta":117128156},{"NoteNumber":43,"Velocity":77,"Duration":2630049,"SoundDuration":2630049,"Delta":117128156},{"NoteNumber":57,"Velocity":63,"Duration":147145,"SoundDuration":147145,"Delta":118017572},{"NoteNumber":62,"Velocity":75,"Duration":147145,"SoundDuration":147145,"Delta":118017572},{"NoteNumber":66,"Velocity":75,"Duration":147145,"SoundDuration":147145,"Delta":118017572},{"NoteNumber":69,"Velocity":90,"Duration":147145,"SoundDuration":147145,"Delta":118017572},{"NoteNumber":59,"Velocity":61,"Duration":147145,"SoundDuration":147145,"Delta":118311862},{"NoteNumber":62,"Velocity":72,"Duration":147145,"SoundDuration":147145,"Delta":118311862},{"NoteNumber":67,"Velocity":72,"Duration":147145,"SoundDuration":147145,"Delta":118311862},{"NoteNumber":71,"Velocity":87,"Duration":147145,"SoundDuration":147145,"Delta":118311862},{"NoteNumber":60,"Velocity":61,"Duration":140924,"SoundDuration":140924,"Delta":118599932},{"NoteNumber":62,"Velocity":72,"Duration":140924,"SoundDuration":140924,"Delta":118599932},{"NoteNumber":69,"Velocity":72,"Duration":140924,"SoundDuration":140924,"Delta":118599932},{"NoteNumber":72,"Velocity":87,"Duration":140924,"SoundDuration":140924,"Delta":118599932},{"NoteNumber":59,"Velocity":68,"Duration":876424,"SoundDuration":876424,"Delta":118881781},{"NoteNumber":62,"Velocity":81,"Duration":876424,"SoundDuration":876424,"Delta":118881781},{"NoteNumber":67,"Velocity":81,"Duration":876424,"SoundDuration":876424,"Delta":118881781},{"NoteNumber":71,"Velocity":95,"Duration":876424,"SoundDuration":876424,"Delta":118881781},{"NoteNumber":55,"Velocity":62,"Duration":657318,"SoundDuration":657318,"Delta":119758205},{"NoteNumber":59,"Velocity":74,"Duration":657318,"SoundDuration":657318,"Delta":119758205},{"NoteNumber":62,"Velocity":74,"Duration":657318,"SoundDuration":657318,"Delta":119758205},{"NoteNumber":67,"Velocity":89,"Duration":657318,"SoundDuration":657318,"Delta":119758205},{"NoteNumber":26,"Velocity":65,"Duration":876424,"SoundDuration":876424,"Delta":119758205},{"NoteNumber":38,"Velocity":77,"Duration":876424,"SoundDuration":876424,"Delta":119758205},{"NoteNumber":57,"Velocity":65,"Duration":219105,"SoundDuration":219105,"Delta":120415523},{"NoteNumber":62,"Velocity":77,"Duration":219105,"SoundDuration":219105,"Delta":120415523},{"NoteNumber":66,"Velocity":77,"Duration":219105,"SoundDuration":219105,"Delta":120415523},{"NoteNumber":69,"Velocity":91,"Duration":219105,"SoundDuration":219105,"Delta":120415523},{"NoteNumber":59,"Velocity":68,"Duration":857633,"SoundDuration":857633,"Delta":120634629},{"NoteNumber":62,"Velocity":80,"Duration":857633,"SoundDuration":857633,"Delta":120634629},{"NoteNumber":67,"Velocity":80,"Duration":857633,"SoundDuration":857633,"Delta":120634629},{"NoteNumber":71,"Velocity":94,"Duration":857633,"SoundDuration":857633,"Delta":120634629},{"NoteNumber":31,"Velocity":65,"Duration":1753824,"SoundDuration":1753824,"Delta":120634629},{"NoteNumber":43,"Velocity":77,"Duration":1753824,"SoundDuration":1753824,"Delta":120634629},{"NoteNumber":59,"Velocity":65,"Duration":896191,"SoundDuration":896191,"Delta":121492262},{"NoteNumber":62,"Velocity":77,"Duration":896191,"SoundDuration":896191,"Delta":121492262},{"NoteNumber":67,"Velocity":77,"Duration":896191,"SoundDuration":896191,"Delta":121492262},{"NoteNumber":71,"Velocity":93,"Duration":896191,"SoundDuration":896191,"Delta":121492262},{"NoteNumber":67,"Velocity":73,"Duration":902934,"SoundDuration":902934,"Delta":122388453},{"NoteNumber":76,"Velocity":86,"Duration":902934,"SoundDuration":902934,"Delta":122388453},{"NoteNumber":70,"Velocity":86,"Duration":902934,"SoundDuration":902934,"Delta":122388453},{"NoteNumber":73,"Velocity":86,"Duration":902934,"SoundDuration":902934,"Delta":122388453},{"NoteNumber":79,"Velocity":102,"Duration":902934,"SoundDuration":902934,"Delta":122388453},{"NoteNumber":30,"Velocity":69,"Duration":1833744,"SoundDuration":1833744,"Delta":122388453},{"NoteNumber":42,"Velocity":82,"Duration":1833744,"SoundDuration":1833744,"Delta":122388453},{"NoteNumber":66,"Velocity":68,"Duration":930809,"SoundDuration":930809,"Delta":123291388},{"NoteNumber":70,"Velocity":80,"Duration":930809,"SoundDuration":930809,"Delta":123291388},{"NoteNumber":73,"Velocity":80,"Duration":930809,"SoundDuration":930809,"Delta":123291388},{"NoteNumber":78,"Velocity":95,"Duration":930809,"SoundDuration":930809,"Delta":123291388},{"NoteNumber":64,"Velocity":61,"Duration":1861620,"SoundDuration":1861620,"Delta":124222198},{"NoteNumber":67,"Velocity":72,"Duration":1861620,"SoundDuration":1861620,"Delta":124222198},{"NoteNumber":71,"Velocity":72,"Duration":1861620,"SoundDuration":1861620,"Delta":124222198},{"NoteNumber":76,"Velocity":85,"Duration":1861620,"SoundDuration":1861620,"Delta":124222198},{"NoteNumber":35,"Velocity":65,"Duration":2792430,"SoundDuration":2792430,"Delta":124222198},{"NoteNumber":47,"Velocity":77,"Duration":2792430,"SoundDuration":2792430,"Delta":124222198},{"NoteNumber":63,"Velocity":49,"Duration":930810,"SoundDuration":930810,"Delta":126083818},{"NoteNumber":66,"Velocity":58,"Duration":930810,"SoundDuration":930810,"Delta":126083818},{"NoteNumber":71,"Velocity":58,"Duration":930810,"SoundDuration":930810,"Delta":126083818},{"NoteNumber":75,"Velocity":71,"Duration":930810,"SoundDuration":930810,"Delta":126083818},{"NoteNumber":54,"Velocity":43,"Duration":896190,"SoundDuration":896190,"Delta":127014628},{"NoteNumber":59,"Velocity":43,"Duration":896190,"SoundDuration":896190,"Delta":127014628},{"NoteNumber":63,"Velocity":43,"Duration":896190,"SoundDuration":896190,"Delta":127014628},{"NoteNumber":66,"Velocity":49,"Duration":896190,"SoundDuration":896190,"Delta":127014628},{"NoteNumber":35,"Velocity":42,"Duration":224047,"SoundDuration":224047,"Delta":127014628},{"NoteNumber":47,"Velocity":44,"Duration":224047,"SoundDuration":224047,"Delta":127014628},{"NoteNumber":55,"Velocity":45,"Duration":863931,"SoundDuration":863931,"Delta":127910819},{"NoteNumber":59,"Velocity":45,"Duration":863931,"SoundDuration":863931,"Delta":127910819},{"NoteNumber":67,"Velocity":53,"Duration":863931,"SoundDuration":863931,"Delta":127910819},{"NoteNumber":40,"Velocity":40,"Duration":215982,"SoundDuration":215982,"Delta":127910819},{"NoteNumber":52,"Velocity":48,"Duration":215982,"SoundDuration":215982,"Delta":127910819},{"NoteNumber":55,"Velocity":45,"Duration":889416,"SoundDuration":889416,"Delta":128774750},{"NoteNumber":59,"Velocity":45,"Duration":889416,"SoundDuration":889416,"Delta":128774750},{"NoteNumber":65,"Velocity":45,"Duration":889416,"SoundDuration":889416,"Delta":128774750},{"NoteNumber":67,"Velocity":54,"Duration":889416,"SoundDuration":889416,"Delta":128774750},{"NoteNumber":38,"Velocity":40,"Duration":222353,"SoundDuration":222353,"Delta":128774750},{"NoteNumber":50,"Velocity":48,"Duration":222353,"SoundDuration":222353,"Delta":128774750},{"NoteNumber":55,"Velocity":45,"Duration":863931,"SoundDuration":863931,"Delta":129664166},{"NoteNumber":60,"Velocity":45,"Duration":863931,"SoundDuration":863931,"Delta":129664166},{"NoteNumber":64,"Velocity":45,"Duration":863931,"SoundDuration":863931,"Delta":129664166},{"NoteNumber":67,"Velocity":54,"Duration":863931,"SoundDuration":863931,"Delta":129664166},{"NoteNumber":36,"Velocity":40,"Duration":215982,"SoundDuration":215982,"Delta":129664166},{"NoteNumber":48,"Velocity":48,"Duration":215982,"SoundDuration":215982,"Delta":129664166},{"NoteNumber":55,"Velocity":45,"Duration":889416,"SoundDuration":889416,"Delta":130528097},{"NoteNumber":62,"Velocity":45,"Duration":889416,"SoundDuration":889416,"Delta":130528097},{"NoteNumber":67,"Velocity":53,"Duration":889416,"SoundDuration":889416,"Delta":130528097},{"NoteNumber":34,"Velocity":40,"Duration":222353,"SoundDuration":222353,"Delta":130528097},{"NoteNumber":46,"Velocity":48,"Duration":222353,"SoundDuration":222353,"Delta":130528097},{"NoteNumber":57,"Velocity":45,"Duration":889415,"SoundDuration":889415,"Delta":131417513},{"NoteNumber":64,"Velocity":45,"Duration":889415,"SoundDuration":889415,"Delta":131417513},{"NoteNumber":61,"Velocity":45,"Duration":889415,"SoundDuration":889415,"Delta":131417513},{"NoteNumber":67,"Velocity":54,"Duration":889415,"SoundDuration":889415,"Delta":131417513},{"NoteNumber":33,"Velocity":40,"Duration":222353,"SoundDuration":222353,"Delta":131417513},{"NoteNumber":45,"Velocity":48,"Duration":222353,"SoundDuration":222353,"Delta":131417513},{"NoteNumber":60,"Velocity":43,"Duration":864209,"SoundDuration":864209,"Delta":132306929},{"NoteNumber":62,"Velocity":43,"Duration":864209,"SoundDuration":864209,"Delta":132306929},{"NoteNumber":66,"Velocity":51,"Duration":294290,"SoundDuration":294290,"Delta":132306929},{"NoteNumber":38,"Velocity":39,"Duration":220718,"SoundDuration":220718,"Delta":132306929},{"NoteNumber":50,"Velocity":47,"Duration":220718,"SoundDuration":220718,"Delta":132306929},{"NoteNumber":69,"Velocity":51,"Duration":288069,"SoundDuration":288069,"Delta":132601220},{"NoteNumber":72,"Velocity":50,"Duration":281848,"SoundDuration":281848,"Delta":132889290},{"NoteNumber":59,"Velocity":45,"Duration":916730,"SoundDuration":916730,"Delta":133171139},{"NoteNumber":67,"Velocity":49,"Duration":916730,"SoundDuration":916730,"Delta":133171139},{"NoteNumber":62,"Velocity":45,"Duration":916730,"SoundDuration":916730,"Delta":133171139},{"NoteNumber":71,"Velocity":54,"Duration":916730,"SoundDuration":916730,"Delta":133171139},{"NoteNumber":43,"Velocity":40,"Duration":229182,"SoundDuration":229182,"Delta":133171139},{"NoteNumber":55,"Velocity":48,"Duration":229182,"SoundDuration":229182,"Delta":133171139},{"NoteNumber":59,"Velocity":45,"Duration":876423,"SoundDuration":876423,"Delta":134087869},{"NoteNumber":63,"Velocity":45,"Duration":876423,"SoundDuration":876423,"Delta":134087869},{"NoteNumber":67,"Velocity":53,"Duration":657318,"SoundDuration":657318,"Delta":134087869},{"NoteNumber":31,"Velocity":35,"Duration":219106,"SoundDuration":219106,"Delta":134087869},{"NoteNumber":43,"Velocity":42,"Duration":219106,"SoundDuration":219106,"Delta":134087869},{"NoteNumber":66,"Velocity":49,"Duration":219105,"SoundDuration":219105,"Delta":134745187},{"NoteNumber":60,"Velocity":44,"Duration":896190,"SoundDuration":896190,"Delta":134964293},{"NoteNumber":64,"Velocity":52,"Duration":896190,"SoundDuration":896190,"Delta":134964293},{"NoteNumber":36,"Velocity":34,"Duration":224047,"SoundDuration":224047,"Delta":134964293},{"NoteNumber":48,"Velocity":41,"Duration":224047,"SoundDuration":224047,"Delta":134964293},{"NoteNumber":57,"Velocity":42,"Duration":923644,"SoundDuration":923644,"Delta":135860484},{"NoteNumber":64,"Velocity":50,"Duration":923644,"SoundDuration":923644,"Delta":135860484},{"NoteNumber":36,"Velocity":34,"Duration":230911,"SoundDuration":230911,"Delta":135860484},{"NoteNumber":48,"Velocity":41,"Duration":230911,"SoundDuration":230911,"Delta":135860484},{"NoteNumber":56,"Velocity":42,"Duration":896190,"SoundDuration":896190,"Delta":136784129},{"NoteNumber":59,"Velocity":42,"Duration":896190,"SoundDuration":896190,"Delta":136784129},{"NoteNumber":64,"Velocity":50,"Duration":896190,"SoundDuration":896190,"Delta":136784129},{"NoteNumber":35,"Velocity":34,"Duration":224047,"SoundDuration":224047,"Delta":136784129},{"NoteNumber":47,"Velocity":40,"Duration":224047,"SoundDuration":224047,"Delta":136784129},{"NoteNumber":57,"Velocity":42,"Duration":974029,"SoundDuration":974029,"Delta":137680320},{"NoteNumber":60,"Velocity":42,"Duration":974029,"SoundDuration":974029,"Delta":137680320},{"NoteNumber":64,"Velocity":50,"Duration":974029,"SoundDuration":974029,"Delta":137680320},{"NoteNumber":33,"Velocity":31,"Duration":234521,"SoundDuration":234521,"Delta":137680320},{"NoteNumber":45,"Velocity":37,"Duration":234521,"SoundDuration":234521,"Delta":137680320},{"NoteNumber":52,"Velocity":41,"Duration":78173,"SoundDuration":78173,"Delta":138149363},{"NoteNumber":52,"Velocity":41,"Duration":78173,"SoundDuration":78173,"Delta":138305710},{"NoteNumber":52,"Velocity":41,"Duration":90155,"SoundDuration":90155,"Delta":138474039},{"NoteNumber":59,"Velocity":41,"Duration":2987851,"SoundDuration":2987851,"Delta":138654349},{"NoteNumber":62,"Velocity":41,"Duration":2987851,"SoundDuration":2987851,"Delta":138654349},{"NoteNumber":64,"Velocity":49,"Duration":2987851,"SoundDuration":2987851,"Delta":138654349},{"NoteNumber":52,"Velocity":41,"Duration":1488587,"SoundDuration":1488587,"Delta":138654349},{"NoteNumber":32,"Velocity":28,"Duration":2987851,"SoundDuration":2987851,"Delta":138654349},{"NoteNumber":44,"Velocity":34,"Duration":2987851,"SoundDuration":2987851,"Delta":138654349},{"NoteNumber":52,"Velocity":41,"Duration":78802,"SoundDuration":78802,"Delta":140142937},{"NoteNumber":52,"Velocity":41,"Duration":78802,"SoundDuration":78802,"Delta":140300542},{"NoteNumber":52,"Velocity":41,"Duration":90155,"SoundDuration":90155,"Delta":140469499},{"NoteNumber":52,"Velocity":41,"Duration":1430603,"SoundDuration":1430603,"Delta":140649809},{"NoteNumber":67,"Velocity":53,"Duration":657318,"SoundDuration":657318,"Delta":141642201},{"NoteNumber":65,"Velocity":49,"Duration":219105,"SoundDuration":219105,"Delta":142299519},{"NoteNumber":64,"Velocity":52,"Duration":896190,"SoundDuration":896190,"Delta":142518625},{"NoteNumber":57,"Velocity":42,"Duration":923644,"SoundDuration":923644,"Delta":143414816},{"NoteNumber":64,"Velocity":50,"Duration":923644,"SoundDuration":923644,"Delta":143414816},{"NoteNumber":36,"Velocity":34,"Duration":230911,"SoundDuration":230911,"Delta":143414816},{"NoteNumber":48,"Velocity":41,"Duration":230911,"SoundDuration":230911,"Delta":143414816},{"NoteNumber":56,"Velocity":42,"Duration":896190,"SoundDuration":896190,"Delta":144338461},{"NoteNumber":59,"Velocity":42,"Duration":896190,"SoundDuration":896190,"Delta":144338461},{"NoteNumber":64,"Velocity":50,"Duration":896190,"SoundDuration":896190,"Delta":144338461},{"NoteNumber":35,"Velocity":34,"Duration":224047,"SoundDuration":224047,"Delta":144338461},{"NoteNumber":47,"Velocity":40,"Duration":224047,"SoundDuration":224047,"Delta":144338461},{"NoteNumber":57,"Velocity":42,"Duration":974029,"SoundDuration":974029,"Delta":145234652},{"NoteNumber":60,"Velocity":42,"Duration":974029,"SoundDuration":974029,"Delta":145234652},{"NoteNumber":64,"Velocity":50,"Duration":974029,"SoundDuration":974029,"Delta":145234652},{"NoteNumber":33,"Velocity":31,"Duration":234521,"SoundDuration":234521,"Delta":145234652},{"NoteNumber":45,"Velocity":37,"Duration":234521,"SoundDuration":234521,"Delta":145234652},{"NoteNumber":52,"Velocity":41,"Duration":78173,"SoundDuration":78173,"Delta":145703695},{"NoteNumber":52,"Velocity":41,"Duration":78173,"SoundDuration":78173,"Delta":145860043},{"NoteNumber":52,"Velocity":41,"Duration":90155,"SoundDuration":90155,"Delta":146028372},{"NoteNumber":59,"Velocity":41,"Duration":2948445,"SoundDuration":2948445,"Delta":146208682},{"NoteNumber":62,"Velocity":41,"Duration":2948445,"SoundDuration":2948445,"Delta":146208682},{"NoteNumber":64,"Velocity":49,"Duration":2948445,"SoundDuration":2948445,"Delta":146208682},{"NoteNumber":52,"Velocity":41,"Duration":1488587,"SoundDuration":1488587,"Delta":146208682},{"NoteNumber":32,"Velocity":28,"Duration":2948445,"SoundDuration":2948445,"Delta":146208682},{"NoteNumber":44,"Velocity":34,"Duration":2948445,"SoundDuration":2948445,"Delta":146208682},{"NoteNumber":52,"Velocity":41,"Duration":78802,"SoundDuration":78802,"Delta":147697270},{"NoteNumber":52,"Velocity":41,"Duration":78802,"SoundDuration":78802,"Delta":147854874},{"NoteNumber":52,"Velocity":41,"Duration":90155,"SoundDuration":90155,"Delta":148023831},{"NoteNumber":52,"Velocity":41,"Duration":1401081,"SoundDuration":1401081,"Delta":148204142},{"NoteNumber":67,"Velocity":53,"Duration":672143,"SoundDuration":672143,"Delta":149157128},{"NoteNumber":65,"Velocity":49,"Duration":224047,"SoundDuration":224047,"Delta":149829271},{"NoteNumber":64,"Velocity":52,"Duration":923644,"SoundDuration":923644,"Delta":150053319},{"NoteNumber":60,"Velocity":37,"Duration":952986,"SoundDuration":952986,"Delta":150976964},{"NoteNumber":57,"Velocity":37,"Duration":952986,"SoundDuration":952986,"Delta":150976964},{"NoteNumber":64,"Velocity":45,"Duration":952986,"SoundDuration":952986,"Delta":150976964},{"NoteNumber":33,"Velocity":30,"Duration":238246,"SoundDuration":238246,"Delta":150976964},{"NoteNumber":45,"Velocity":36,"Duration":238246,"SoundDuration":238246,"Delta":150976964},{"NoteNumber":57,"Velocity":36,"Duration":952986,"SoundDuration":952986,"Delta":151929950},{"NoteNumber":60,"Velocity":36,"Duration":952986,"SoundDuration":952986,"Delta":151929950},{"NoteNumber":64,"Velocity":43,"Duration":952986,"SoundDuration":952986,"Delta":151929950},{"NoteNumber":36,"Velocity":29,"Duration":238246,"SoundDuration":238246,"Delta":151929950},{"NoteNumber":48,"Velocity":34,"Duration":238246,"SoundDuration":238246,"Delta":151929950},{"NoteNumber":54,"Velocity":30,"Duration":933570,"SoundDuration":933570,"Delta":152882936},{"NoteNumber":57,"Velocity":32,"Duration":933570,"SoundDuration":933570,"Delta":152882936},{"NoteNumber":60,"Velocity":34,"Duration":933570,"SoundDuration":933570,"Delta":152882936},{"NoteNumber":66,"Velocity":41,"Duration":687547,"SoundDuration":687547,"Delta":152882936},{"NoteNumber":33,"Velocity":26,"Duration":229182,"SoundDuration":229182,"Delta":152882936},{"NoteNumber":45,"Velocity":31,"Duration":229182,"SoundDuration":229182,"Delta":152882936},{"NoteNumber":63,"Velocity":39,"Duration":246022,"SoundDuration":246022,"Delta":153570483},{"NoteNumber":54,"Velocity":33,"Duration":1968181,"SoundDuration":1968181,"Delta":153816506},{"NoteNumber":57,"Velocity":33,"Duration":1968181,"SoundDuration":1968181,"Delta":153816506},{"NoteNumber":60,"Velocity":33,"Duration":1968181,"SoundDuration":1968181,"Delta":153816506},{"NoteNumber":63,"Velocity":39,"Duration":1968181,"SoundDuration":1968181,"Delta":153816506},{"NoteNumber":28,"Velocity":26,"Duration":7774151,"SoundDuration":7774151,"Delta":153816506},{"NoteNumber":40,"Velocity":31,"Duration":7774151,"SoundDuration":7774151,"Delta":153816506},{"NoteNumber":55,"Velocity":33,"Duration":5805969,"SoundDuration":5805969,"Delta":155784688},{"NoteNumber":59,"Velocity":33,"Duration":5805969,"SoundDuration":5805969,"Delta":155784688},{"NoteNumber":64,"Velocity":39,"Duration":5805969,"SoundDuration":5805969,"Delta":155784688},{"NoteNumber":52,"Velocity":41,"Duration":77567,"SoundDuration":77567,"Delta":157260824},{"NoteNumber":52,"Velocity":41,"Duration":77567,"SoundDuration":77567,"Delta":157415959},{"NoteNumber":52,"Velocity":41,"Duration":77567,"SoundDuration":77567,"Delta":157571094},{"NoteNumber":52,"Velocity":41,"Duration":1418439,"SoundDuration":1418439,"Delta":157726229},{"NoteNumber":52,"Velocity":41,"Duration":78173,"SoundDuration":78173,"Delta":159144668},{"NoteNumber":52,"Velocity":41,"Duration":78173,"SoundDuration":78173,"Delta":159301016},{"NoteNumber":52,"Velocity":41,"Duration":78173,"SoundDuration":78173,"Delta":159457364},{"NoteNumber":52,"Velocity":41,"Duration":1464367,"SoundDuration":1464367,"Delta":159613711},{"NoteNumber":52,"Velocity":41,"Duration":80697,"SoundDuration":80697,"Delta":161078079},{"NoteNumber":52,"Velocity":41,"Duration":84090,"SoundDuration":84090,"Delta":161240784},{"NoteNumber":52,"Velocity":41,"Duration":88558,"SoundDuration":88558,"Delta":161411140},{"NoteNumber":55,"Velocity":41,"Duration":1984783,"SoundDuration":1984783,"Delta":161590657},{"NoteNumber":52,"Velocity":37,"Duration":992392,"SoundDuration":992392,"Delta":163575441},{"NoteNumber":71,"Velocity":32,"Duration":86655,"SoundDuration":86655,"Delta":165087764},{"NoteNumber":76,"Velocity":32,"Duration":86655,"SoundDuration":86655,"Delta":165087764},{"NoteNumber":83,"Velocity":38,"Duration":86655,"SoundDuration":86655,"Delta":165087764},{"NoteNumber":67,"Velocity":31,"Duration":86655,"SoundDuration":86655,"Delta":165087764},{"NoteNumber":64,"Velocity":26,"Duration":86655,"SoundDuration":86655,"Delta":165087764},{"NoteNumber":59,"Velocity":26,"Duration":86655,"SoundDuration":86655,"Delta":165087764},{"NoteNumber":71,"Velocity":32,"Duration":86655,"SoundDuration":86655,"Delta":165261074},{"NoteNumber":76,"Velocity":32,"Duration":86655,"SoundDuration":86655,"Delta":165261074},{"NoteNumber":83,"Velocity":38,"Duration":86655,"SoundDuration":86655,"Delta":165261074},{"NoteNumber":67,"Velocity":31,"Duration":86655,"SoundDuration":86655,"Delta":165261074},{"NoteNumber":64,"Velocity":26,"Duration":86655,"SoundDuration":86655,"Delta":165261074},{"NoteNumber":59,"Velocity":26,"Duration":86655,"SoundDuration":86655,"Delta":165261074},{"NoteNumber":71,"Velocity":32,"Duration":86655,"SoundDuration":86655,"Delta":165434384},{"NoteNumber":76,"Velocity":32,"Duration":86655,"SoundDuration":86655,"Delta":165434384},{"NoteNumber":83,"Velocity":38,"Duration":86655,"SoundDuration":86655,"Delta":165434384},{"NoteNumber":67,"Velocity":31,"Duration":86655,"SoundDuration":86655,"Delta":165434384},{"NoteNumber":64,"Velocity":26,"Duration":86655,"SoundDuration":86655,"Delta":165434384},{"NoteNumber":59,"Velocity":26,"Duration":86655,"SoundDuration":86655,"Delta":165434384},{"NoteNumber":71,"Velocity":34,"Duration":1618123,"SoundDuration":1618123,"Delta":165607694},{"NoteNumber":76,"Velocity":34,"Duration":1618123,"SoundDuration":1618123,"Delta":165607694},{"NoteNumber":83,"Velocity":41,"Duration":1618123,"SoundDuration":1618123,"Delta":165607694},{"NoteNumber":67,"Velocity":34,"Duration":1618123,"SoundDuration":1618123,"Delta":165607694},{"NoteNumber":64,"Velocity":28,"Duration":1618123,"SoundDuration":1618123,"Delta":165607694},{"NoteNumber":59,"Velocity":28,"Duration":1618123,"SoundDuration":1618123,"Delta":165607694},{"NoteNumber":71,"Velocity":32,"Duration":84359,"SoundDuration":84359,"Delta":167225818},{"NoteNumber":76,"Velocity":32,"Duration":84359,"SoundDuration":84359,"Delta":167225818},{"NoteNumber":83,"Velocity":38,"Duration":84359,"SoundDuration":84359,"Delta":167225818},{"NoteNumber":67,"Velocity":31,"Duration":84359,"SoundDuration":84359,"Delta":167225818},{"NoteNumber":64,"Velocity":26,"Duration":84359,"SoundDuration":84359,"Delta":167225818},{"NoteNumber":59,"Velocity":26,"Duration":84359,"SoundDuration":84359,"Delta":167225818},{"NoteNumber":55,"Velocity":26,"Duration":84359,"SoundDuration":84359,"Delta":167225818},{"NoteNumber":71,"Velocity":32,"Duration":84359,"SoundDuration":84359,"Delta":167394537},{"NoteNumber":76,"Velocity":32,"Duration":84359,"SoundDuration":84359,"Delta":167394537},{"NoteNumber":83,"Velocity":38,"Duration":84359,"SoundDuration":84359,"Delta":167394537},{"NoteNumber":67,"Velocity":31,"Duration":84359,"SoundDuration":84359,"Delta":167394537},{"NoteNumber":64,"Velocity":26,"Duration":84359,"SoundDuration":84359,"Delta":167394537},{"NoteNumber":59,"Velocity":26,"Duration":84359,"SoundDuration":84359,"Delta":167394537},{"NoteNumber":55,"Velocity":26,"Duration":84359,"SoundDuration":84359,"Delta":167394537},{"NoteNumber":71,"Velocity":32,"Duration":84359,"SoundDuration":84359,"Delta":167563257},{"NoteNumber":76,"Velocity":32,"Duration":84359,"SoundDuration":84359,"Delta":167563257},{"NoteNumber":83,"Velocity":38,"Duration":84359,"SoundDuration":84359,"Delta":167563257},{"NoteNumber":67,"Velocity":31,"Duration":84359,"SoundDuration":84359,"Delta":167563257},{"NoteNumber":64,"Velocity":26,"Duration":84359,"SoundDuration":84359,"Delta":167563257},{"NoteNumber":59,"Velocity":26,"Duration":84359,"SoundDuration":84359,"Delta":167563257},{"NoteNumber":55,"Velocity":26,"Duration":84359,"SoundDuration":84359,"Delta":167563257},{"NoteNumber":71,"Velocity":34,"Duration":1633097,"SoundDuration":1633097,"Delta":167731976},{"NoteNumber":76,"Velocity":34,"Duration":1633097,"SoundDuration":1633097,"Delta":167731976},{"NoteNumber":83,"Velocity":41,"Duration":1633097,"SoundDuration":1633097,"Delta":167731976},{"NoteNumber":67,"Velocity":33,"Duration":1633097,"SoundDuration":1633097,"Delta":167731976},{"NoteNumber":64,"Velocity":28,"Duration":1633097,"SoundDuration":1633097,"Delta":167731976},{"NoteNumber":59,"Velocity":28,"Duration":1633097,"SoundDuration":1633097,"Delta":167731976},{"NoteNumber":55,"Velocity":28,"Duration":1633097,"SoundDuration":1633097,"Delta":167731976},{"NoteNumber":76,"Velocity":32,"Duration":98135,"SoundDuration":98135,"Delta":169365074},{"NoteNumber":79,"Velocity":32,"Duration":98135,"SoundDuration":98135,"Delta":169365074},{"NoteNumber":83,"Velocity":38,"Duration":98135,"SoundDuration":98135,"Delta":169365074},{"NoteNumber":40,"Velocity":26,"Duration":98135,"SoundDuration":98135,"Delta":169365074},{"NoteNumber":52,"Velocity":31,"Duration":98135,"SoundDuration":98135,"Delta":169365074},{"NoteNumber":76,"Velocity":32,"Duration":98135,"SoundDuration":98135,"Delta":169561345},{"NoteNumber":79,"Velocity":32,"Duration":98135,"SoundDuration":98135,"Delta":169561345},{"NoteNumber":83,"Velocity":38,"Duration":98135,"SoundDuration":98135,"Delta":169561345},{"NoteNumber":40,"Velocity":26,"Duration":98135,"SoundDuration":98135,"Delta":169561345},{"NoteNumber":52,"Velocity":31,"Duration":98135,"SoundDuration":98135,"Delta":169561345},{"NoteNumber":76,"Velocity":32,"Duration":98135,"SoundDuration":98135,"Delta":169757616},{"NoteNumber":79,"Velocity":32,"Duration":98135,"SoundDuration":98135,"Delta":169757616},{"NoteNumber":83,"Velocity":38,"Duration":98135,"SoundDuration":98135,"Delta":169757616},{"NoteNumber":40,"Velocity":26,"Duration":98135,"SoundDuration":98135,"Delta":169757616},{"NoteNumber":52,"Velocity":31,"Duration":98135,"SoundDuration":98135,"Delta":169757616},{"NoteNumber":76,"Velocity":34,"Duration":2355250,"SoundDuration":2355250,"Delta":169953887},{"NoteNumber":79,"Velocity":34,"Duration":2355250,"SoundDuration":2355250,"Delta":169953887},{"NoteNumber":83,"Velocity":41,"Duration":2355250,"SoundDuration":2355250,"Delta":169953887},{"NoteNumber":40,"Velocity":28,"Duration":2355250,"SoundDuration":2355250,"Delta":169953887},{"NoteNumber":52,"Velocity":33,"Duration":2355250,"SoundDuration":2355250,"Delta":169953887},{"NoteNumber":88,"Velocity":41,"Duration":3002251,"SoundDuration":3002251,"Delta":172309137},{"NoteNumber":28,"Velocity":24,"Duration":3002251,"SoundDuration":3002251,"Delta":172309137}],"license":{"name":"Creative Commons Attribution-ShareAlike 3.0 Germany","url":"http://creativecommons.org/licenses/by-sa/3.0/de/deed.en","text":"The MIDI, audio (MP3, OGG) and video files of Bernd Krueger are licensed under the cc-by-sa Germany License. This means that you can use and adapt the files, as long as you attribute the copyright holder.\n\nName: Bernd Krueger\nSource: http://www.piano-midi.de\n\nThe distribution or public playback of the files is only allowed under identical license conditions.\n\nThe scores are open source.","attribution":"MIDI files by Bernd Krueger (piano-midi.de)","attributionUrl":"http://www.piano-midi.de"}}