{"title":"Venetianisches Gondellied","artist":"Mendelssohn","durationMs":151763,"midiSha256":"68c9e4d5171257404dae7cc27ff2c66d957ca37f37d012e9070981af7cceeed8","midiObject":[{"NoteNumber":52,"Velocity":30,"Duration":436554,"SoundDuration":436554,"Delta":0},{"NoteNumber":60,"Velocity":32,"Duration":424508,"SoundDuration":424508,"Delta":436554},{"NoteNumber":57,"Velocity":27,"Duration":424508,"SoundDuration":424508,"Delta":436554},{"NoteNumber":45,"Velocity":29,"Duration":439624,"SoundDuration":439624,"Delta":861062},{"NoteNumber":52,"Velocity":30,"Duration":439625,"SoundDuration":439625,"Delta":1300687},{"NoteNumber":60,"Velocity":32,"Duration":427411,"SoundDuration":427411,"Delta":1740313},{"NoteNumber":57,"Velocity":27,"Duration":427411,"SoundDuration":427411,"Delta":1740313},{"NoteNumber":45,"Velocity":30,"Duration":439625,"SoundDuration":439625,"Delta":2167724},{"NoteNumber":52,"Velocity":31,"Duration":470021,"SoundDuration":470021,"Delta":2607349},{"NoteNumber":69,"Velocity":77,"Duration":1318875,"SoundDuration":1318875,"Delta":3077370},{"NoteNumber":60,"Velocity":32,"Duration":439625,"SoundDuration":439625,"Delta":3077370},{"NoteNumber":57,"Velocity":27,"Duration":439625,"SoundDuration":439625,"Delta":3077370},{"NoteNumber":45,"Velocity":30,"Duration":439624,"SoundDuration":439624,"Delta":3516995},{"NoteNumber":52,"Velocity":30,"Duration":439625,"SoundDuration":439625,"Delta":3956620},{"NoteNumber":64,"Velocity":68,"Duration":879249,"SoundDuration":879249,"Delta":4396245},{"NoteNumber":57,"Velocity":27,"Duration":439624,"SoundDuration":439624,"Delta":4396245},{"NoteNumber":60,"Velocity":32,"Duration":439624,"SoundDuration":439624,"Delta":4396245},{"NoteNumber":45,"Velocity":31,"Duration":439625,"SoundDuration":439625,"Delta":4835870},{"NoteNumber":52,"Velocity":31,"Duration":439625,"SoundDuration":439625,"Delta":5275495},{"NoteNumber":60,"Velocity":33,"Duration":424508,"SoundDuration":424508,"Delta":5715120},{"NoteNumber":57,"Velocity":28,"Duration":424508,"SoundDuration":424508,"Delta":5715120},{"NoteNumber":45,"Velocity":30,"Duration":439624,"SoundDuration":439624,"Delta":6139629},{"NoteNumber":52,"Velocity":30,"Duration":465996,"SoundDuration":465996,"Delta":6579254},{"NoteNumber":57,"Velocity":76,"Duration":1311547,"SoundDuration":1311547,"Delta":7045250},{"NoteNumber":60,"Velocity":33,"Duration":439624,"SoundDuration":439624,"Delta":7045250},{"NoteNumber":45,"Velocity":30,"Duration":439625,"SoundDuration":439625,"Delta":7484875},{"NoteNumber":52,"Velocity":30,"Duration":439624,"SoundDuration":439624,"Delta":7924500},{"NoteNumber":52,"Velocity":70,"Duration":867036,"SoundDuration":867036,"Delta":8364125},{"NoteNumber":60,"Velocity":33,"Duration":427411,"SoundDuration":427411,"Delta":8364125},{"NoteNumber":57,"Velocity":28,"Duration":427411,"SoundDuration":427411,"Delta":8364125},{"NoteNumber":45,"Velocity":31,"Duration":439624,"SoundDuration":439624,"Delta":8791537},{"NoteNumber":52,"Velocity":31,"Duration":476266,"SoundDuration":476266,"Delta":9231162},{"NoteNumber":76,"Velocity":44,"Duration":863488,"SoundDuration":863488,"Delta":9707428},{"NoteNumber":72,"Velocity":35,"Duration":863488,"SoundDuration":863488,"Delta":9707428},{"NoteNumber":60,"Velocity":29,"Duration":425532,"SoundDuration":425532,"Delta":9707428},{"NoteNumber":57,"Velocity":25,"Duration":425532,"SoundDuration":425532,"Delta":9707428},{"NoteNumber":40,"Velocity":27,"Duration":437955,"SoundDuration":437955,"Delta":10132960},{"NoteNumber":69,"Velocity":33,"Duration":437955,"SoundDuration":437955,"Delta":10570916},{"NoteNumber":72,"Velocity":40,"Duration":437955,"SoundDuration":437955,"Delta":10570916},{"NoteNumber":52,"Velocity":27,"Duration":437955,"SoundDuration":437955,"Delta":10570916},{"NoteNumber":64,"Velocity":33,"Duration":866969,"SoundDuration":866969,"Delta":11008872},{"NoteNumber":69,"Velocity":40,"Duration":866969,"SoundDuration":866969,"Delta":11008872},{"NoteNumber":60,"Velocity":29,"Duration":430415,"SoundDuration":430415,"Delta":11008872},{"NoteNumber":57,"Velocity":25,"Duration":430415,"SoundDuration":430415,"Delta":11008872},{"NoteNumber":33,"Velocity":27,"Duration":436553,"SoundDuration":436553,"Delta":11439288},{"NoteNumber":68,"Velocity":34,"Duration":418701,"SoundDuration":418701,"Delta":11875842},{"NoteNumber":71,"Velocity":42,"Duration":418701,"SoundDuration":418701,"Delta":11875842},{"NoteNumber":52,"Velocity":27,"Duration":418701,"SoundDuration":418701,"Delta":11875842},{"NoteNumber":69,"Velocity":32,"Duration":404913,"SoundDuration":404913,"Delta":12294544},{"NoteNumber":72,"Velocity":39,"Duration":404913,"SoundDuration":404913,"Delta":12294544},{"NoteNumber":60,"Velocity":29,"Duration":404913,"SoundDuration":404913,"Delta":12294544},{"NoteNumber":57,"Velocity":25,"Duration":404913,"SoundDuration":404913,"Delta":12294544},{"NoteNumber":71,"Velocity":35,"Duration":430415,"SoundDuration":430415,"Delta":12699457},{"NoteNumber":74,"Velocity":44,"Duration":430415,"SoundDuration":430415,"Delta":12699457},{"NoteNumber":45,"Velocity":27,"Duration":430415,"SoundDuration":430415,"Delta":12699457},{"NoteNumber":72,"Velocity":36,"Duration":442804,"SoundDuration":442804,"Delta":13129873},{"NoteNumber":76,"Velocity":46,"Duration":442804,"SoundDuration":442804,"Delta":13129873},{"NoteNumber":52,"Velocity":27,"Duration":442804,"SoundDuration":442804,"Delta":13129873},{"NoteNumber":76,"Velocity":39,"Duration":864732,"SoundDuration":864732,"Delta":13572678},{"NoteNumber":79,"Velocity":49,"Duration":864732,"SoundDuration":864732,"Delta":13572678},{"NoteNumber":62,"Velocity":29,"Duration":446030,"SoundDuration":446030,"Delta":13572678},{"NoteNumber":57,"Velocity":25,"Duration":446030,"SoundDuration":446030,"Delta":13572678},{"NoteNumber":45,"Velocity":27,"Duration":418701,"SoundDuration":418701,"Delta":14018708},{"NoteNumber":74,"Velocity":38,"Duration":839530,"SoundDuration":839530,"Delta":14437410},{"NoteNumber":77,"Velocity":48,"Duration":839530,"SoundDuration":839530,"Delta":14437410},{"NoteNumber":53,"Velocity":27,"Duration":410958,"SoundDuration":410958,"Delta":14437410},{"NoteNumber":62,"Velocity":26,"Duration":428571,"SoundDuration":428571,"Delta":14848369},{"NoteNumber":57,"Velocity":22,"Duration":428571,"SoundDuration":428571,"Delta":14848369},{"NoteNumber":72,"Velocity":33,"Duration":436554,"SoundDuration":436554,"Delta":15276941},{"NoteNumber":76,"Velocity":40,"Duration":436554,"SoundDuration":436554,"Delta":15276941},{"NoteNumber":45,"Velocity":27,"Duration":436554,"SoundDuration":436554,"Delta":15276941},{"NoteNumber":71,"Velocity":35,"Duration":436553,"SoundDuration":436553,"Delta":15713495},{"NoteNumber":74,"Velocity":44,"Duration":436553,"SoundDuration":436553,"Delta":15713495},{"NoteNumber":53,"Velocity":27,"Duration":436553,"SoundDuration":436553,"Delta":15713495},{"NoteNumber":72,"Velocity":39,"Duration":860831,"SoundDuration":860831,"Delta":16150049},{"NoteNumber":76,"Velocity":49,"Duration":860831,"SoundDuration":860831,"Delta":16150049},{"NoteNumber":60,"Velocity":29,"Duration":430416,"SoundDuration":430416,"Delta":16150049},{"NoteNumber":57,"Velocity":25,"Duration":430416,"SoundDuration":430416,"Delta":16150049},{"NoteNumber":45,"Velocity":27,"Duration":430415,"SoundDuration":430415,"Delta":16580465},{"NoteNumber":69,"Velocity":38,"Duration":236742,"SoundDuration":236742,"Delta":17010881},{"NoteNumber":72,"Velocity":46,"Duration":236742,"SoundDuration":236742,"Delta":17010881},{"NoteNumber":52,"Velocity":27,"Duration":494902,"SoundDuration":494902,"Delta":17010881},{"NoteNumber":63,"Velocity":31,"Duration":1561683,"SoundDuration":1561683,"Delta":17247623},{"NoteNumber":66,"Velocity":32,"Duration":628549,"SoundDuration":628549,"Delta":17307649},{"NoteNumber":68,"Velocity":33,"Duration":65919,"SoundDuration":65919,"Delta":17370282},{"NoteNumber":71,"Velocity":34,"Duration":69581,"SoundDuration":69581,"Delta":17436201},{"NoteNumber":69,"Velocity":44,"Duration":430416,"SoundDuration":430416,"Delta":17505783},{"NoteNumber":60,"Velocity":29,"Duration":430416,"SoundDuration":430416,"Delta":17505783},{"NoteNumber":57,"Velocity":25,"Duration":430416,"SoundDuration":430416,"Delta":17505783},{"NoteNumber":64,"Velocity":33,"Duration":436554,"SoundDuration":436554,"Delta":17936199},{"NoteNumber":68,"Velocity":40,"Duration":436554,"SoundDuration":436554,"Delta":17936199},{"NoteNumber":45,"Velocity":27,"Duration":436554,"SoundDuration":436554,"Delta":17936199},{"NoteNumber":66,"Velocity":35,"Duration":436553,"SoundDuration":436553,"Delta":18372753},{"NoteNumber":69,"Velocity":44,"Duration":436553,"SoundDuration":436553,"Delta":18372753},{"NoteNumber":52,"Velocity":27,"Duration":436553,"SoundDuration":436553,"Delta":18372753},{"NoteNumber":68,"Velocity":36,"Duration":1332455,"SoundDuration":1332455,"Delta":18809307},{"NoteNumber":71,"Velocity":43,"Duration":1332455,"SoundDuration":1332455,"Delta":18809307},{"NoteNumber":56,"Velocity":27,"Duration":436554,"SoundDuration":436554,"Delta":18809307},{"NoteNumber":59,"Velocity":32,"Duration":436554,"SoundDuration":436554,"Delta":18809307},{"NoteNumber":40,"Velocity":27,"Duration":436554,"SoundDuration":436554,"Delta":19245861},{"NoteNumber":52,"Velocity":27,"Duration":459347,"SoundDuration":459347,"Delta":19682415},{"NoteNumber":76,"Velocity":44,"Duration":879249,"SoundDuration":879249,"Delta":20141762},{"NoteNumber":68,"Velocity":35,"Duration":1331806,"SoundDuration":1331806,"Delta":20141762},{"NoteNumber":62,"Velocity":29,"Duration":439624,"SoundDuration":439624,"Delta":20141762},{"NoteNumber":59,"Velocity":25,"Duration":439624,"SoundDuration":439624,"Delta":20141762},{"NoteNumber":40,"Velocity":27,"Duration":439624,"SoundDuration":439624,"Delta":20581387},{"NoteNumber":72,"Velocity":40,"Duration":452556,"SoundDuration":452556,"Delta":21021012},{"NoteNumber":52,"Velocity":27,"Duration":452556,"SoundDuration":452556,"Delta":21021012},{"NoteNumber":64,"Velocity":33,"Duration":866970,"SoundDuration":866970,"Delta":21473569},{"NoteNumber":69,"Velocity":40,"Duration":866970,"SoundDuration":866970,"Delta":21473569},{"NoteNumber":60,"Velocity":29,"Duration":430416,"SoundDuration":430416,"Delta":21473569},{"NoteNumber":57,"Velocity":25,"Duration":430416,"SoundDuration":430416,"Delta":21473569},{"NoteNumber":45,"Velocity":27,"Duration":436554,"SoundDuration":436554,"Delta":21903985},{"NoteNumber":68,"Velocity":34,"Duration":413109,"SoundDuration":413109,"Delta":22340539},{"NoteNumber":71,"Velocity":42,"Duration":413109,"SoundDuration":413109,"Delta":22340539},{"NoteNumber":52,"Velocity":27,"Duration":413109,"SoundDuration":413109,"Delta":22340539},{"NoteNumber":69,"Velocity":32,"Duration":404913,"SoundDuration":404913,"Delta":22753649},{"NoteNumber":72,"Velocity":39,"Duration":404913,"SoundDuration":404913,"Delta":22753649},{"NoteNumber":60,"Velocity":29,"Duration":404913,"SoundDuration":404913,"Delta":22753649},{"NoteNumber":57,"Velocity":25,"Duration":404913,"SoundDuration":404913,"Delta":22753649},{"NoteNumber":71,"Velocity":35,"Duration":418701,"SoundDuration":418701,"Delta":23158562},{"NoteNumber":74,"Velocity":44,"Duration":418701,"SoundDuration":418701,"Delta":23158562},{"NoteNumber":45,"Velocity":27,"Duration":418701,"SoundDuration":418701,"Delta":23158562},{"NoteNumber":72,"Velocity":36,"Duration":442804,"SoundDuration":442804,"Delta":23577264},{"NoteNumber":76,"Velocity":46,"Duration":442804,"SoundDuration":442804,"Delta":23577264},{"NoteNumber":52,"Velocity":27,"Duration":442804,"SoundDuration":442804,"Delta":23577264},{"NoteNumber":74,"Velocity":41,"Duration":421585,"SoundDuration":421585,"Delta":24020068},{"NoteNumber":79,"Velocity":49,"Duration":1731720,"SoundDuration":1731720,"Delta":24020068},{"NoteNumber":62,"Velocity":29,"Duration":421585,"SoundDuration":421585,"Delta":24020068},{"NoteNumber":59,"Velocity":25,"Duration":421585,"SoundDuration":421585,"Delta":24020068},{"NoteNumber":76,"Velocity":43,"Duration":430416,"SoundDuration":430416,"Delta":24441653},{"NoteNumber":47,"Velocity":27,"Duration":430416,"SoundDuration":430416,"Delta":24441653},{"NoteNumber":77,"Velocity":40,"Duration":430416,"SoundDuration":430416,"Delta":24872069},{"NoteNumber":55,"Velocity":27,"Duration":430416,"SoundDuration":430416,"Delta":24872069},{"NoteNumber":76,"Velocity":43,"Duration":449303,"SoundDuration":449303,"Delta":25302485},{"NoteNumber":64,"Velocity":29,"Duration":449303,"SoundDuration":449303,"Delta":25302485},{"NoteNumber":60,"Velocity":25,"Duration":449303,"SoundDuration":449303,"Delta":25302485},{"NoteNumber":74,"Velocity":33,"Duration":640358,"SoundDuration":640358,"Delta":25751789},{"NoteNumber":77,"Velocity":40,"Duration":640358,"SoundDuration":640358,"Delta":25751789},{"NoteNumber":48,"Velocity":27,"Duration":422081,"SoundDuration":422081,"Delta":25751789},{"NoteNumber":55,"Velocity":27,"Duration":436554,"SoundDuration":436554,"Delta":26173870},{"NoteNumber":72,"Velocity":35,"Duration":207363,"SoundDuration":207363,"Delta":26392147},{"NoteNumber":76,"Velocity":44,"Duration":207363,"SoundDuration":207363,"Delta":26392147},{"NoteNumber":72,"Velocity":37,"Duration":430416,"SoundDuration":430416,"Delta":26610424},{"NoteNumber":76,"Velocity":46,"Duration":430416,"SoundDuration":430416,"Delta":26610424},{"NoteNumber":65,"Velocity":27,"Duration":430416,"SoundDuration":430416,"Delta":26610424},{"NoteNumber":62,"Velocity":23,"Duration":430416,"SoundDuration":430416,"Delta":26610424},{"NoteNumber":71,"Velocity":39,"Duration":634220,"SoundDuration":634220,"Delta":27040840},{"NoteNumber":74,"Velocity":47,"Duration":634220,"SoundDuration":634220,"Delta":27040840},{"NoteNumber":50,"Velocity":27,"Duration":419012,"SoundDuration":419012,"Delta":27040840},{"NoteNumber":57,"Velocity":27,"Duration":430416,"SoundDuration":430416,"Delta":27459852},{"NoteNumber":69,"Velocity":38,"Duration":204447,"SoundDuration":204447,"Delta":27675060},{"NoteNumber":72,"Velocity":48,"Duration":204447,"SoundDuration":204447,"Delta":27675060},{"NoteNumber":69,"Velocity":35,"Duration":452556,"SoundDuration":452556,"Delta":27890268},{"NoteNumber":72,"Velocity":39,"Duration":452556,"SoundDuration":452556,"Delta":27890268},{"NoteNumber":64,"Velocity":29,"Duration":452556,"SoundDuration":452556,"Delta":27890268},{"NoteNumber":68,"Velocity":33,"Duration":721269,"SoundDuration":721269,"Delta":28342825},{"NoteNumber":71,"Velocity":40,"Duration":721269,"SoundDuration":721269,"Delta":28342825},{"NoteNumber":52,"Velocity":27,"Duration":480846,"SoundDuration":480846,"Delta":28342825},{"NoteNumber":62,"Velocity":27,"Duration":520221,"SoundDuration":520221,"Delta":28823672},{"NoteNumber":69,"Velocity":37,"Duration":265808,"SoundDuration":265808,"Delta":29064095},{"NoteNumber":69,"Velocity":34,"Duration":1318875,"SoundDuration":1318875,"Delta":29343894},{"NoteNumber":57,"Velocity":27,"Duration":434129,"SoundDuration":434129,"Delta":29343894},{"NoteNumber":60,"Velocity":32,"Duration":439624,"SoundDuration":439624,"Delta":29343894},{"NoteNumber":45,"Velocity":27,"Duration":439624,"SoundDuration":439624,"Delta":29783519},{"NoteNumber":52,"Velocity":27,"Duration":439625,"SoundDuration":439625,"Delta":30223144},{"NoteNumber":57,"Velocity":76,"Duration":1318874,"SoundDuration":1318874,"Delta":30662769},{"NoteNumber":60,"Velocity":29,"Duration":439624,"SoundDuration":439624,"Delta":30662769},{"NoteNumber":45,"Velocity":27,"Duration":439624,"SoundDuration":439624,"Delta":31102394},{"NoteNumber":52,"Velocity":27,"Duration":439624,"SoundDuration":439624,"Delta":31542019},{"NoteNumber":52,"Velocity":70,"Duration":867036,"SoundDuration":867036,"Delta":31981644},{"NoteNumber":60,"Velocity":29,"Duration":427411,"SoundDuration":427411,"Delta":31981644},{"NoteNumber":57,"Velocity":25,"Duration":427411,"SoundDuration":427411,"Delta":31981644},{"NoteNumber":45,"Velocity":27,"Duration":439624,"SoundDuration":439624,"Delta":32409055},{"NoteNumber":52,"Velocity":27,"Duration":476266,"SoundDuration":476266,"Delta":32848680},{"NoteNumber":76,"Velocity":36,"Duration":879249,"SoundDuration":879249,"Delta":33324947},{"NoteNumber":88,"Velocity":48,"Duration":879249,"SoundDuration":879249,"Delta":33324947},{"NoteNumber":84,"Velocity":36,"Duration":879249,"SoundDuration":879249,"Delta":33324947},{"NoteNumber":60,"Velocity":29,"Duration":439624,"SoundDuration":439624,"Delta":33324947},{"NoteNumber":57,"Velocity":25,"Duration":439624,"SoundDuration":439624,"Delta":33324947},{"NoteNumber":40,"Velocity":27,"Duration":439624,"SoundDuration":439624,"Delta":33764572},{"NoteNumber":72,"Velocity":34,"Duration":439624,"SoundDuration":439624,"Delta":34204197},{"NoteNumber":81,"Velocity":34,"Duration":439624,"SoundDuration":439624,"Delta":34204197},{"NoteNumber":84,"Velocity":44,"Duration":439624,"SoundDuration":439624,"Delta":34204197},{"NoteNumber":52,"Velocity":27,"Duration":439624,"SoundDuration":439624,"Delta":34204197},{"NoteNumber":69,"Velocity":34,"Duration":866970,"SoundDuration":866970,"Delta":34643822},{"NoteNumber":76,"Velocity":34,"Duration":866970,"SoundDuration":866970,"Delta":34643822},{"NoteNumber":81,"Velocity":44,"Duration":866970,"SoundDuration":866970,"Delta":34643822},{"NoteNumber":60,"Velocity":29,"Duration":430416,"SoundDuration":430416,"Delta":34643822},{"NoteNumber":57,"Velocity":25,"Duration":430416,"SoundDuration":430416,"Delta":34643822},{"NoteNumber":33,"Velocity":27,"Duration":436554,"SoundDuration":436554,"Delta":35074238},{"NoteNumber":71,"Velocity":35,"Duration":418702,"SoundDuration":418702,"Delta":35510792},{"NoteNumber":80,"Velocity":35,"Duration":418702,"SoundDuration":418702,"Delta":35510792},{"NoteNumber":83,"Velocity":46,"Duration":418702,"SoundDuration":418702,"Delta":35510792},{"NoteNumber":52,"Velocity":27,"Duration":418702,"SoundDuration":418702,"Delta":35510792},{"NoteNumber":72,"Velocity":33,"Duration":404913,"SoundDuration":404913,"Delta":35929494},{"NoteNumber":81,"Velocity":33,"Duration":404913,"SoundDuration":404913,"Delta":35929494},{"NoteNumber":84,"Velocity":42,"Duration":404913,"SoundDuration":404913,"Delta":35929494},{"NoteNumber":60,"Velocity":29,"Duration":404913,"SoundDuration":404913,"Delta":35929494},{"NoteNumber":57,"Velocity":25,"Duration":404913,"SoundDuration":404913,"Delta":35929494},{"NoteNumber":74,"Velocity":36,"Duration":430416,"SoundDuration":430416,"Delta":36334407},{"NoteNumber":83,"Velocity":36,"Duration":430416,"SoundDuration":430416,"Delta":36334407},{"NoteNumber":86,"Velocity":48,"Duration":430416,"SoundDuration":430416,"Delta":36334407},{"NoteNumber":45,"Velocity":27,"Duration":430416,"SoundDuration":430416,"Delta":36334407},{"NoteNumber":76,"Velocity":37,"Duration":442804,"SoundDuration":442804,"Delta":36764823},{"NoteNumber":84,"Velocity":37,"Duration":442804,"SoundDuration":442804,"Delta":36764823},{"NoteNumber":88,"Velocity":50,"Duration":442804,"SoundDuration":442804,"Delta":36764823},{"NoteNumber":52,"Velocity":27,"Duration":442804,"SoundDuration":442804,"Delta":36764823},{"NoteNumber":79,"Velocity":40,"Duration":864732,"SoundDuration":864732,"Delta":37207627},{"NoteNumber":88,"Velocity":40,"Duration":864732,"SoundDuration":864732,"Delta":37207627},{"NoteNumber":91,"Velocity":53,"Duration":864732,"SoundDuration":864732,"Delta":37207627},{"NoteNumber":62,"Velocity":29,"Duration":446030,"SoundDuration":446030,"Delta":37207627},{"NoteNumber":57,"Velocity":25,"Duration":446030,"SoundDuration":446030,"Delta":37207627},{"NoteNumber":45,"Velocity":27,"Duration":418702,"SoundDuration":418702,"Delta":37653658},{"NoteNumber":77,"Velocity":39,"Duration":830539,"SoundDuration":830539,"Delta":38072360},{"NoteNumber":86,"Velocity":39,"Duration":830539,"SoundDuration":830539,"Delta":38072360},{"NoteNumber":89,"Velocity":52,"Duration":830539,"SoundDuration":830539,"Delta":38072360},{"NoteNumber":53,"Velocity":27,"Duration":410958,"SoundDuration":410958,"Delta":38072360},{"NoteNumber":62,"Velocity":26,"Duration":419580,"SoundDuration":419580,"Delta":38483319},{"NoteNumber":57,"Velocity":22,"Duration":419580,"SoundDuration":419580,"Delta":38483319},{"NoteNumber":76,"Velocity":34,"Duration":436554,"SoundDuration":436554,"Delta":38902899},{"NoteNumber":84,"Velocity":34,"Duration":436554,"SoundDuration":436554,"Delta":38902899},{"NoteNumber":88,"Velocity":44,"Duration":436554,"SoundDuration":436554,"Delta":38902899},{"NoteNumber":45,"Velocity":27,"Duration":436554,"SoundDuration":436554,"Delta":38902899},{"NoteNumber":74,"Velocity":36,"Duration":434782,"SoundDuration":434782,"Delta":39339453},{"NoteNumber":83,"Velocity":36,"Duration":434782,"SoundDuration":434782,"Delta":39339453},{"NoteNumber":86,"Velocity":48,"Duration":434782,"SoundDuration":434782,"Delta":39339453},{"NoteNumber":53,"Velocity":27,"Duration":434782,"SoundDuration":434782,"Delta":39339453},{"NoteNumber":76,"Velocity":40,"Duration":860832,"SoundDuration":860832,"Delta":39774236},{"NoteNumber":84,"Velocity":40,"Duration":860832,"SoundDuration":860832,"Delta":39774236},{"NoteNumber":88,"Velocity":53,"Duration":860832,"SoundDuration":860832,"Delta":39774236},{"NoteNumber":60,"Velocity":29,"Duration":430416,"SoundDuration":430416,"Delta":39774236},{"NoteNumber":57,"Velocity":25,"Duration":430416,"SoundDuration":430416,"Delta":39774236},{"NoteNumber":45,"Velocity":27,"Duration":430416,"SoundDuration":430416,"Delta":40204652},{"NoteNumber":72,"Velocity":39,"Duration":236742,"SoundDuration":236742,"Delta":40635068},{"NoteNumber":81,"Velocity":39,"Duration":236742,"SoundDuration":236742,"Delta":40635068},{"NoteNumber":84,"Velocity":52,"Duration":236742,"SoundDuration":236742,"Delta":40635068},{"NoteNumber":52,"Velocity":27,"Duration":494902,"SoundDuration":494902,"Delta":40635068},{"NoteNumber":69,"Velocity":33,"Duration":1561683,"SoundDuration":1561683,"Delta":40871810},{"NoteNumber":75,"Velocity":35,"Duration":628549,"SoundDuration":628549,"Delta":40931836},{"NoteNumber":78,"Velocity":36,"Duration":565916,"SoundDuration":565916,"Delta":40994469},{"NoteNumber":83,"Velocity":38,"Duration":69581,"SoundDuration":69581,"Delta":41060388},{"NoteNumber":81,"Velocity":48,"Duration":430416,"SoundDuration":430416,"Delta":41129970},{"NoteNumber":60,"Velocity":29,"Duration":430416,"SoundDuration":430416,"Delta":41129970},{"NoteNumber":57,"Velocity":25,"Duration":430416,"SoundDuration":430416,"Delta":41129970},{"NoteNumber":68,"Velocity":34,"Duration":436554,"SoundDuration":436554,"Delta":41560386},{"NoteNumber":80,"Velocity":44,"Duration":436554,"SoundDuration":436554,"Delta":41560386},{"NoteNumber":45,"Velocity":27,"Duration":436554,"SoundDuration":436554,"Delta":41560386},{"NoteNumber":69,"Velocity":36,"Duration":436554,"SoundDuration":436554,"Delta":41996940},{"NoteNumber":81,"Velocity":48,"Duration":436554,"SoundDuration":436554,"Delta":41996940},{"NoteNumber":52,"Velocity":27,"Duration":436554,"SoundDuration":436554,"Delta":41996940},{"NoteNumber":71,"Velocity":37,"Duration":1332455,"SoundDuration":1332455,"Delta":42433494},{"NoteNumber":80,"Velocity":37,"Duration":1332455,"SoundDuration":1332455,"Delta":42433494},{"NoteNumber":83,"Velocity":47,"Duration":1332455,"SoundDuration":1332455,"Delta":42433494},{"NoteNumber":56,"Velocity":27,"Duration":436554,"SoundDuration":436554,"Delta":42433494},{"NoteNumber":59,"Velocity":32,"Duration":436554,"SoundDuration":436554,"Delta":42433494},{"NoteNumber":40,"Velocity":27,"Duration":436553,"SoundDuration":436553,"Delta":42870048},{"NoteNumber":52,"Velocity":27,"Duration":459347,"SoundDuration":459347,"Delta":43306602},{"NoteNumber":76,"Velocity":39,"Duration":1331806,"SoundDuration":1331806,"Delta":43765949},{"NoteNumber":88,"Velocity":52,"Duration":879249,"SoundDuration":879249,"Delta":43765949},{"NoteNumber":80,"Velocity":39,"Duration":879249,"SoundDuration":879249,"Delta":43765949},{"NoteNumber":62,"Velocity":29,"Duration":439624,"SoundDuration":439624,"Delta":43765949},{"NoteNumber":59,"Velocity":25,"Duration":439624,"SoundDuration":439624,"Delta":43765949},{"NoteNumber":40,"Velocity":27,"Duration":439624,"SoundDuration":439624,"Delta":44205574},{"NoteNumber":72,"Velocity":44,"Duration":452556,"SoundDuration":452556,"Delta":44645199},{"NoteNumber":84,"Velocity":48,"Duration":452556,"SoundDuration":452556,"Delta":44645199},{"NoteNumber":52,"Velocity":27,"Duration":452556,"SoundDuration":452556,"Delta":44645199},{"NoteNumber":69,"Velocity":37,"Duration":866970,"SoundDuration":866970,"Delta":45097756},{"NoteNumber":76,"Velocity":37,"Duration":866970,"SoundDuration":866970,"Delta":45097756},{"NoteNumber":81,"Velocity":48,"Duration":866970,"SoundDuration":866970,"Delta":45097756},{"NoteNumber":60,"Velocity":29,"Duration":430416,"SoundDuration":430416,"Delta":45097756},{"NoteNumber":57,"Velocity":25,"Duration":430416,"SoundDuration":430416,"Delta":45097756},{"NoteNumber":45,"Velocity":27,"Duration":436554,"SoundDuration":436554,"Delta":45528172},{"NoteNumber":71,"Velocity":38,"Duration":413109,"SoundDuration":413109,"Delta":45964726},{"NoteNumber":80,"Velocity":38,"Duration":413109,"SoundDuration":413109,"Delta":45964726},{"NoteNumber":83,"Velocity":50,"Duration":413109,"SoundDuration":413109,"Delta":45964726},{"NoteNumber":52,"Velocity":27,"Duration":413109,"SoundDuration":413109,"Delta":45964726},{"NoteNumber":72,"Velocity":36,"Duration":404913,"SoundDuration":404913,"Delta":46377836},{"NoteNumber":81,"Velocity":36,"Duration":404913,"SoundDuration":404913,"Delta":46377836},{"NoteNumber":84,"Velocity":46,"Duration":404913,"SoundDuration":404913,"Delta":46377836},{"NoteNumber":60,"Velocity":29,"Duration":404913,"SoundDuration":404913,"Delta":46377836},{"NoteNumber":57,"Velocity":25,"Duration":404913,"SoundDuration":404913,"Delta":46377836},{"NoteNumber":74,"Velocity":39,"Duration":418702,"SoundDuration":418702,"Delta":46782749},{"NoteNumber":83,"Velocity":39,"Duration":418702,"SoundDuration":418702,"Delta":46782749},{"NoteNumber":86,"Velocity":52,"Duration":418702,"SoundDuration":418702,"Delta":46782749},{"NoteNumber":45,"Velocity":27,"Duration":418702,"SoundDuration":418702,"Delta":46782749},{"NoteNumber":76,"Velocity":40,"Duration":442804,"SoundDuration":442804,"Delta":47201451},{"NoteNumber":84,"Velocity":40,"Duration":442804,"SoundDuration":442804,"Delta":47201451},{"NoteNumber":88,"Velocity":55,"Duration":442804,"SoundDuration":442804,"Delta":47201451},{"NoteNumber":52,"Velocity":27,"Duration":442804,"SoundDuration":442804,"Delta":47201451},{"NoteNumber":79,"Velocity":47,"Duration":480846,"SoundDuration":480846,"Delta":47644255},{"NoteNumber":86,"Velocity":47,"Duration":480846,"SoundDuration":480846,"Delta":47644255},{"NoteNumber":91,"Velocity":58,"Duration":1818777,"SoundDuration":1818777,"Delta":47644255},{"NoteNumber":62,"Velocity":29,"Duration":480846,"SoundDuration":480846,"Delta":47644255},{"NoteNumber":59,"Velocity":25,"Duration":480846,"SoundDuration":480846,"Delta":47644255},{"NoteNumber":77,"Velocity":51,"Duration":645623,"SoundDuration":645623,"Delta":48125102},{"NoteNumber":47,"Velocity":27,"Duration":430416,"SoundDuration":430416,"Delta":48125102},{"NoteNumber":55,"Velocity":27,"Duration":430416,"SoundDuration":430416,"Delta":48555518},{"NoteNumber":76,"Velocity":48,"Duration":215208,"SoundDuration":215208,"Delta":48770726},{"NoteNumber":76,"Velocity":51,"Duration":1766150,"SoundDuration":1766150,"Delta":48985934},{"NoteNumber":64,"Velocity":29,"Duration":477099,"SoundDuration":477099,"Delta":48985934},{"NoteNumber":60,"Velocity":25,"Duration":477099,"SoundDuration":477099,"Delta":48985934},{"NoteNumber":86,"Velocity":40,"Duration":640358,"SoundDuration":640358,"Delta":49463033},{"NoteNumber":89,"Velocity":52,"Duration":640358,"SoundDuration":640358,"Delta":49463033},{"NoteNumber":48,"Velocity":27,"Duration":422081,"SoundDuration":422081,"Delta":49463033},{"NoteNumber":55,"Velocity":27,"Duration":436554,"SoundDuration":436554,"Delta":49885114},{"NoteNumber":84,"Velocity":39,"Duration":207363,"SoundDuration":207363,"Delta":50103391},{"NoteNumber":88,"Velocity":52,"Duration":207363,"SoundDuration":207363,"Delta":50103391},{"NoteNumber":84,"Velocity":44,"Duration":430416,"SoundDuration":430416,"Delta":50321668},{"NoteNumber":88,"Velocity":58,"Duration":430416,"SoundDuration":430416,"Delta":50321668},{"NoteNumber":65,"Velocity":29,"Duration":430416,"SoundDuration":430416,"Delta":50321668},{"NoteNumber":62,"Velocity":25,"Duration":430416,"SoundDuration":430416,"Delta":50321668},{"NoteNumber":74,"Velocity":40,"Duration":634220,"SoundDuration":634220,"Delta":50752084},{"NoteNumber":83,"Velocity":40,"Duration":634220,"SoundDuration":634220,"Delta":50752084},{"NoteNumber":86,"Velocity":53,"Duration":634220,"SoundDuration":634220,"Delta":50752084},{"NoteNumber":50,"Velocity":27,"Duration":419012,"SoundDuration":419012,"Delta":50752084},{"NoteNumber":57,"Velocity":27,"Duration":430416,"SoundDuration":430416,"Delta":51171096},{"NoteNumber":72,"Velocity":39,"Duration":204447,"SoundDuration":204447,"Delta":51386304},{"NoteNumber":81,"Velocity":39,"Duration":204447,"SoundDuration":204447,"Delta":51386304},{"NoteNumber":84,"Velocity":52,"Duration":204447,"SoundDuration":204447,"Delta":51386304},{"NoteNumber":72,"Velocity":36,"Duration":452556,"SoundDuration":452556,"Delta":51601512},{"NoteNumber":81,"Velocity":36,"Duration":452556,"SoundDuration":452556,"Delta":51601512},{"NoteNumber":84,"Velocity":42,"Duration":452556,"SoundDuration":452556,"Delta":51601512},{"NoteNumber":64,"Velocity":29,"Duration":452556,"SoundDuration":452556,"Delta":51601512},{"NoteNumber":71,"Velocity":34,"Duration":721269,"SoundDuration":721269,"Delta":52054069},{"NoteNumber":80,"Velocity":34,"Duration":721269,"SoundDuration":721269,"Delta":52054069},{"NoteNumber":83,"Velocity":44,"Duration":721269,"SoundDuration":721269,"Delta":52054069},{"NoteNumber":52,"Velocity":27,"Duration":480846,"SoundDuration":480846,"Delta":52054069},{"NoteNumber":62,"Velocity":27,"Duration":528055,"SoundDuration":528055,"Delta":52534916},{"NoteNumber":69,"Velocity":34,"Duration":273250,"SoundDuration":273250,"Delta":52775339},{"NoteNumber":81,"Velocity":41,"Duration":273250,"SoundDuration":273250,"Delta":52775339},{"NoteNumber":69,"Velocity":32,"Duration":1318874,"SoundDuration":1318874,"Delta":53062971},{"NoteNumber":81,"Velocity":37,"Duration":1318874,"SoundDuration":1318874,"Delta":53062971},{"NoteNumber":57,"Velocity":27,"Duration":439624,"SoundDuration":439624,"Delta":53062971},{"NoteNumber":60,"Velocity":32,"Duration":439624,"SoundDuration":439624,"Delta":53062971},{"NoteNumber":45,"Velocity":27,"Duration":439624,"SoundDuration":439624,"Delta":53502596},{"NoteNumber":52,"Velocity":27,"Duration":439624,"SoundDuration":439624,"Delta":53942221},{"NoteNumber":63,"Velocity":39,"Duration":430416,"SoundDuration":430416,"Delta":54381846},{"NoteNumber":66,"Velocity":46,"Duration":430416,"SoundDuration":430416,"Delta":54381846},{"NoteNumber":57,"Velocity":29,"Duration":430416,"SoundDuration":430416,"Delta":54381846},{"NoteNumber":60,"Velocity":35,"Duration":430416,"SoundDuration":430416,"Delta":54381846},{"NoteNumber":64,"Velocity":40,"Duration":418702,"SoundDuration":418702,"Delta":54812262},{"NoteNumber":68,"Velocity":48,"Duration":418702,"SoundDuration":418702,"Delta":54812262},{"NoteNumber":45,"Velocity":32,"Duration":418702,"SoundDuration":418702,"Delta":54812262},{"NoteNumber":66,"Velocity":42,"Duration":427411,"SoundDuration":427411,"Delta":55230964},{"NoteNumber":69,"Velocity":50,"Duration":427411,"SoundDuration":427411,"Delta":55230964},{"NoteNumber":52,"Velocity":32,"Duration":427411,"SoundDuration":427411,"Delta":55230964},{"NoteNumber":68,"Velocity":44,"Duration":413109,"SoundDuration":413109,"Delta":55658375},{"NoteNumber":71,"Velocity":52,"Duration":413109,"SoundDuration":413109,"Delta":55658375},{"NoteNumber":59,"Velocity":36,"Duration":413109,"SoundDuration":413109,"Delta":55658375},{"NoteNumber":56,"Velocity":30,"Duration":413109,"SoundDuration":413109,"Delta":55658375},{"NoteNumber":76,"Velocity":50,"Duration":413109,"SoundDuration":413109,"Delta":56071485},{"NoteNumber":40,"Velocity":32,"Duration":413109,"SoundDuration":413109,"Delta":56071485},{"NoteNumber":68,"Velocity":42,"Duration":318381,"SoundDuration":318381,"Delta":56484594},{"NoteNumber":71,"Velocity":50,"Duration":318381,"SoundDuration":318381,"Delta":56484594},{"NoteNumber":52,"Velocity":32,"Duration":415771,"SoundDuration":415771,"Delta":56484594},{"NoteNumber":68,"Velocity":35,"Duration":97389,"SoundDuration":97389,"Delta":56802975},{"NoteNumber":71,"Velocity":42,"Duration":97389,"SoundDuration":97389,"Delta":56802975},{"NoteNumber":66,"Velocity":43,"Duration":407608,"SoundDuration":407608,"Delta":56900365},{"NoteNumber":69,"Velocity":51,"Duration":407608,"SoundDuration":407608,"Delta":56900365},{"NoteNumber":60,"Velocity":36,"Duration":407608,"SoundDuration":407608,"Delta":56900365},{"NoteNumber":57,"Velocity":30,"Duration":407608,"SoundDuration":407608,"Delta":56900365},{"NoteNumber":64,"Velocity":40,"Duration":421585,"SoundDuration":421585,"Delta":57307974},{"NoteNumber":68,"Velocity":48,"Duration":421585,"SoundDuration":421585,"Delta":57307974},{"NoteNumber":40,"Velocity":32,"Duration":421585,"SoundDuration":421585,"Delta":57307974},{"NoteNumber":63,"Velocity":40,"Duration":430416,"SoundDuration":430416,"Delta":57729559},{"NoteNumber":66,"Velocity":48,"Duration":430416,"SoundDuration":430416,"Delta":57729559},{"NoteNumber":52,"Velocity":32,"Duration":430416,"SoundDuration":430416,"Delta":57729559},{"NoteNumber":68,"Velocity":44,"Duration":860832,"SoundDuration":860832,"Delta":58159975},{"NoteNumber":71,"Velocity":52,"Duration":860832,"SoundDuration":860832,"Delta":58159975},{"NoteNumber":59,"Velocity":36,"Duration":430416,"SoundDuration":430416,"Delta":58159975},{"NoteNumber":56,"Velocity":30,"Duration":430416,"SoundDuration":430416,"Delta":58159975},{"NoteNumber":40,"Velocity":32,"Duration":430416,"SoundDuration":430416,"Delta":58590391},{"NoteNumber":64,"Velocity":41,"Duration":430415,"SoundDuration":430415,"Delta":59020807},{"NoteNumber":68,"Velocity":49,"Duration":430415,"SoundDuration":430415,"Delta":59020807},{"NoteNumber":52,"Velocity":32,"Duration":430415,"SoundDuration":430415,"Delta":59020807},{"NoteNumber":63,"Velocity":39,"Duration":407608,"SoundDuration":407608,"Delta":59451223},{"NoteNumber":66,"Velocity":46,"Duration":407608,"SoundDuration":407608,"Delta":59451223},{"NoteNumber":57,"Velocity":29,"Duration":407608,"SoundDuration":407608,"Delta":59451223},{"NoteNumber":60,"Velocity":35,"Duration":407608,"SoundDuration":407608,"Delta":59451223},{"NoteNumber":64,"Velocity":40,"Duration":407608,"SoundDuration":407608,"Delta":59858831},{"NoteNumber":68,"Velocity":48,"Duration":407608,"SoundDuration":407608,"Delta":59858831},{"NoteNumber":45,"Velocity":32,"Duration":407608,"SoundDuration":407608,"Delta":59858831},{"NoteNumber":66,"Velocity":42,"Duration":427411,"SoundDuration":427411,"Delta":60266440},{"NoteNumber":69,"Velocity":50,"Duration":427411,"SoundDuration":427411,"Delta":60266440},{"NoteNumber":52,"Velocity":32,"Duration":427411,"SoundDuration":427411,"Delta":60266440},{"NoteNumber":68,"Velocity":44,"Duration":413109,"SoundDuration":413109,"Delta":60693851},{"NoteNumber":71,"Velocity":52,"Duration":413109,"SoundDuration":413109,"Delta":60693851},{"NoteNumber":59,"Velocity":36,"Duration":413109,"SoundDuration":413109,"Delta":60693851},{"NoteNumber":56,"Velocity":30,"Duration":413109,"SoundDuration":413109,"Delta":60693851},{"NoteNumber":76,"Velocity":50,"Duration":413109,"SoundDuration":413109,"Delta":61106961},{"NoteNumber":40,"Velocity":32,"Duration":413109,"SoundDuration":413109,"Delta":61106961},{"NoteNumber":68,"Velocity":42,"Duration":318381,"SoundDuration":318381,"Delta":61520070},{"NoteNumber":71,"Velocity":50,"Duration":318381,"SoundDuration":318381,"Delta":61520070},{"NoteNumber":52,"Velocity":32,"Duration":415771,"SoundDuration":415771,"Delta":61520070},{"NoteNumber":68,"Velocity":35,"Duration":97389,"SoundDuration":97389,"Delta":61838452},{"NoteNumber":71,"Velocity":42,"Duration":97389,"SoundDuration":97389,"Delta":61838452},{"NoteNumber":66,"Velocity":43,"Duration":407608,"SoundDuration":407608,"Delta":61935842},{"NoteNumber":69,"Velocity":51,"Duration":407608,"SoundDuration":407608,"Delta":61935842},{"NoteNumber":60,"Velocity":36,"Duration":407608,"SoundDuration":407608,"Delta":61935842},{"NoteNumber":57,"Velocity":30,"Duration":407608,"SoundDuration":407608,"Delta":61935842},{"NoteNumber":64,"Velocity":40,"Duration":421584,"SoundDuration":421584,"Delta":62343450},{"NoteNumber":68,"Velocity":48,"Duration":421584,"SoundDuration":421584,"Delta":62343450},{"NoteNumber":40,"Velocity":32,"Duration":421584,"SoundDuration":421584,"Delta":62343450},{"NoteNumber":63,"Velocity":40,"Duration":430415,"SoundDuration":430415,"Delta":62765035},{"NoteNumber":66,"Velocity":48,"Duration":430415,"SoundDuration":430415,"Delta":62765035},{"NoteNumber":52,"Velocity":32,"Duration":430415,"SoundDuration":430415,"Delta":62765035},{"NoteNumber":68,"Velocity":44,"Duration":2547618,"SoundDuration":2547618,"Delta":63195451},{"NoteNumber":71,"Velocity":52,"Duration":2547618,"SoundDuration":2547618,"Delta":63195451},{"NoteNumber":59,"Velocity":40,"Duration":416666,"SoundDuration":416666,"Delta":63195451},{"NoteNumber":56,"Velocity":28,"Duration":416666,"SoundDuration":416666,"Delta":63195451},{"NoteNumber":40,"Velocity":36,"Duration":428571,"SoundDuration":428571,"Delta":63612118},{"NoteNumber":52,"Velocity":36,"Duration":428571,"SoundDuration":428571,"Delta":64040689},{"NoteNumber":56,"Velocity":28,"Duration":416666,"SoundDuration":416666,"Delta":64469261},{"NoteNumber":59,"Velocity":40,"Duration":416666,"SoundDuration":416666,"Delta":64469261},{"NoteNumber":40,"Velocity":36,"Duration":428571,"SoundDuration":428571,"Delta":64885927},{"NoteNumber":52,"Velocity":36,"Duration":428571,"SoundDuration":428571,"Delta":65314499},{"NoteNumber":67,"Velocity":54,"Duration":1267820,"SoundDuration":1267820,"Delta":65743070},{"NoteNumber":73,"Velocity":64,"Duration":1267820,"SoundDuration":1267820,"Delta":65743070},{"NoteNumber":57,"Velocity":42,"Duration":418701,"SoundDuration":418701,"Delta":65743070},{"NoteNumber":61,"Velocity":50,"Duration":418701,"SoundDuration":418701,"Delta":65743070},{"NoteNumber":45,"Velocity":53,"Duration":418702,"SoundDuration":418702,"Delta":66161772},{"NoteNumber":52,"Velocity":53,"Duration":430415,"SoundDuration":430415,"Delta":66580474},{"NoteNumber":66,"Velocity":57,"Duration":1285974,"SoundDuration":1285974,"Delta":67010890},{"NoteNumber":74,"Velocity":68,"Duration":1285974,"SoundDuration":1285974,"Delta":67010890},{"NoteNumber":57,"Velocity":44,"Duration":421584,"SoundDuration":421584,"Delta":67010890},{"NoteNumber":62,"Velocity":52,"Duration":421584,"SoundDuration":421584,"Delta":67010890},{"NoteNumber":50,"Velocity":57,"Duration":421585,"SoundDuration":421585,"Delta":67432475},{"NoteNumber":54,"Velocity":57,"Duration":442804,"SoundDuration":442804,"Delta":67854060},{"NoteNumber":69,"Velocity":62,"Duration":1276633,"SoundDuration":1276633,"Delta":68296865},{"NoteNumber":75,"Velocity":73,"Duration":1276633,"SoundDuration":1276633,"Delta":68296865},{"NoteNumber":63,"Velocity":58,"Duration":421584,"SoundDuration":421584,"Delta":68296865},{"NoteNumber":59,"Velocity":49,"Duration":421584,"SoundDuration":421584,"Delta":68296865},{"NoteNumber":47,"Velocity":63,"Duration":421585,"SoundDuration":421585,"Delta":68718450},{"NoteNumber":54,"Velocity":62,"Duration":433463,"SoundDuration":433463,"Delta":69140035},{"NoteNumber":69,"Velocity":65,"Duration":1289200,"SoundDuration":1289200,"Delta":69573498},{"NoteNumber":72,"Velocity":65,"Duration":1289200,"SoundDuration":1289200,"Delta":69573498},{"NoteNumber":76,"Velocity":77,"Duration":1289200,"SoundDuration":1289200,"Delta":69573498},{"NoteNumber":64,"Velocity":59,"Duration":421584,"SoundDuration":421584,"Delta":69573498},{"NoteNumber":60,"Velocity":50,"Duration":421584,"SoundDuration":421584,"Delta":69573498},{"NoteNumber":48,"Velocity":65,"Duration":421585,"SoundDuration":421585,"Delta":69995083},{"NoteNumber":57,"Velocity":65,"Duration":446030,"SoundDuration":446030,"Delta":70416668},{"NoteNumber":70,"Velocity":69,"Duration":1291625,"SoundDuration":1291625,"Delta":70862699},{"NoteNumber":76,"Velocity":69,"Duration":1291625,"SoundDuration":1291625,"Delta":70862699},{"NoteNumber":79,"Velocity":82,"Duration":1291625,"SoundDuration":1291625,"Delta":70862699},{"NoteNumber":64,"Velocity":62,"Duration":430415,"SoundDuration":430415,"Delta":70862699},{"NoteNumber":61,"Velocity":53,"Duration":430415,"SoundDuration":430415,"Delta":70862699},{"NoteNumber":49,"Velocity":67,"Duration":421584,"SoundDuration":421584,"Delta":71293115},{"NoteNumber":58,"Velocity":68,"Duration":439625,"SoundDuration":439625,"Delta":71714700},{"NoteNumber":70,"Velocity":73,"Duration":1318273,"SoundDuration":1318273,"Delta":72154325},{"NoteNumber":74,"Velocity":73,"Duration":1318273,"SoundDuration":1318273,"Delta":72154325},{"NoteNumber":77,"Velocity":86,"Duration":1318273,"SoundDuration":1318273,"Delta":72154325},{"NoteNumber":65,"Velocity":66,"Duration":430415,"SoundDuration":430415,"Delta":72154325},{"NoteNumber":62,"Velocity":56,"Duration":430415,"SoundDuration":430415,"Delta":72154325},{"NoteNumber":50,"Velocity":73,"Duration":421584,"SoundDuration":421584,"Delta":72584741},{"NoteNumber":58,"Velocity":74,"Duration":466273,"SoundDuration":466273,"Delta":73006326},{"NoteNumber":69,"Velocity":71,"Duration":2621020,"SoundDuration":2621020,"Delta":73472599},{"NoteNumber":72,"Velocity":71,"Duration":2621020,"SoundDuration":2621020,"Delta":73472599},{"NoteNumber":75,"Velocity":77,"Duration":2621020,"SoundDuration":2621020,"Delta":73472599},{"NoteNumber":78,"Velocity":81,"Duration":2621020,"SoundDuration":2621020,"Delta":73472599},{"NoteNumber":81,"Velocity":91,"Duration":2621020,"SoundDuration":2621020,"Delta":73472599},{"NoteNumber":63,"Velocity":59,"Duration":455927,"SoundDuration":455927,"Delta":73472599},{"NoteNumber":66,"Velocity":70,"Duration":455927,"SoundDuration":455927,"Delta":73472599},{"NoteNumber":51,"Velocity":75,"Duration":422534,"SoundDuration":422534,"Delta":73928526},{"NoteNumber":60,"Velocity":76,"Duration":431654,"SoundDuration":431654,"Delta":74351061},{"NoteNumber":66,"Velocity":72,"Duration":431654,"SoundDuration":431654,"Delta":74782715},{"NoteNumber":63,"Velocity":61,"Duration":431654,"SoundDuration":431654,"Delta":74782715},{"NoteNumber":51,"Velocity":72,"Duration":439625,"SoundDuration":439625,"Delta":75214370},{"NoteNumber":60,"Velocity":72,"Duration":439624,"SoundDuration":439624,"Delta":75653995},{"NoteNumber":45,"Velocity":88,"Duration":1309618,"SoundDuration":1309618,"Delta":76093620},{"NoteNumber":63,"Velocity":53,"Duration":449303,"SoundDuration":449303,"Delta":76093620},{"NoteNumber":66,"Velocity":63,"Duration":449303,"SoundDuration":449303,"Delta":76093620},{"NoteNumber":51,"Velocity":61,"Duration":425532,"SoundDuration":425532,"Delta":76542923},{"NoteNumber":60,"Velocity":61,"Duration":434782,"SoundDuration":434782,"Delta":76968455},{"NoteNumber":39,"Velocity":78,"Duration":878192,"SoundDuration":878192,"Delta":77403238},{"NoteNumber":66,"Velocity":56,"Duration":444729,"SoundDuration":444729,"Delta":77403238},{"NoteNumber":63,"Velocity":48,"Duration":444729,"SoundDuration":444729,"Delta":77403238},{"NoteNumber":51,"Velocity":51,"Duration":433463,"SoundDuration":433463,"Delta":77847967},{"NoteNumber":60,"Velocity":48,"Duration":433463,"SoundDuration":433463,"Delta":78281431},{"NoteNumber":63,"Velocity":40,"Duration":430415,"SoundDuration":430415,"Delta":78714894},{"NoteNumber":66,"Velocity":47,"Duration":430415,"SoundDuration":430415,"Delta":78714894},{"NoteNumber":51,"Velocity":40,"Duration":419580,"SoundDuration":419580,"Delta":79145310},{"NoteNumber":60,"Velocity":38,"Duration":473484,"SoundDuration":473484,"Delta":79564891},{"NoteNumber":76,"Velocity":44,"Duration":863488,"SoundDuration":863488,"Delta":80038376},{"NoteNumber":72,"Velocity":35,"Duration":863488,"SoundDuration":863488,"Delta":80038376},{"NoteNumber":52,"Velocity":29,"Duration":425532,"SoundDuration":425532,"Delta":80038376},{"NoteNumber":40,"Velocity":27,"Duration":437955,"SoundDuration":437955,"Delta":80463908},{"NoteNumber":69,"Velocity":33,"Duration":437955,"SoundDuration":437955,"Delta":80901864},{"NoteNumber":72,"Velocity":40,"Duration":437955,"SoundDuration":437955,"Delta":80901864},{"NoteNumber":52,"Velocity":27,"Duration":437955,"SoundDuration":437955,"Delta":80901864},{"NoteNumber":64,"Velocity":31,"Duration":866969,"SoundDuration":866969,"Delta":81339820},{"NoteNumber":69,"Velocity":38,"Duration":866969,"SoundDuration":866969,"Delta":81339820},{"NoteNumber":60,"Velocity":29,"Duration":430415,"SoundDuration":430415,"Delta":81339820},{"NoteNumber":57,"Velocity":25,"Duration":430415,"SoundDuration":430415,"Delta":81339820},{"NoteNumber":40,"Velocity":27,"Duration":436554,"SoundDuration":436554,"Delta":81770236},{"NoteNumber":68,"Velocity":34,"Duration":418701,"SoundDuration":418701,"Delta":82206790},{"NoteNumber":71,"Velocity":42,"Duration":418701,"SoundDuration":418701,"Delta":82206790},{"NoteNumber":52,"Velocity":27,"Duration":418701,"SoundDuration":418701,"Delta":82206790},{"NoteNumber":69,"Velocity":32,"Duration":404912,"SoundDuration":404912,"Delta":82625492},{"NoteNumber":72,"Velocity":39,"Duration":404912,"SoundDuration":404912,"Delta":82625492},{"NoteNumber":64,"Velocity":29,"Duration":404912,"SoundDuration":404912,"Delta":82625492},{"NoteNumber":57,"Velocity":25,"Duration":404912,"SoundDuration":404912,"Delta":82625492},{"NoteNumber":60,"Velocity":25,"Duration":406081,"SoundDuration":406081,"Delta":82644050},{"NoteNumber":71,"Velocity":35,"Duration":430415,"SoundDuration":430415,"Delta":83030405},{"NoteNumber":74,"Velocity":44,"Duration":430415,"SoundDuration":430415,"Delta":83030405},{"NoteNumber":40,"Velocity":27,"Duration":430415,"SoundDuration":430415,"Delta":83030405},{"NoteNumber":72,"Velocity":36,"Duration":442804,"SoundDuration":442804,"Delta":83460821},{"NoteNumber":76,"Velocity":46,"Duration":442804,"SoundDuration":442804,"Delta":83460821},{"NoteNumber":52,"Velocity":27,"Duration":442804,"SoundDuration":442804,"Delta":83460821},{"NoteNumber":64,"Velocity":31,"Duration":866969,"SoundDuration":866969,"Delta":83903625},{"NoteNumber":69,"Velocity":38,"Duration":866969,"SoundDuration":866969,"Delta":83903625},{"NoteNumber":60,"Velocity":29,"Duration":430415,"SoundDuration":430415,"Delta":83903625},{"NoteNumber":57,"Velocity":25,"Duration":430415,"SoundDuration":430415,"Delta":83903625},{"NoteNumber":40,"Velocity":27,"Duration":436554,"SoundDuration":436554,"Delta":84334041},{"NoteNumber":68,"Velocity":34,"Duration":418701,"SoundDuration":418701,"Delta":84770595},{"NoteNumber":71,"Velocity":42,"Duration":418701,"SoundDuration":418701,"Delta":84770595},{"NoteNumber":52,"Velocity":27,"Duration":418701,"SoundDuration":418701,"Delta":84770595},{"NoteNumber":69,"Velocity":32,"Duration":404912,"SoundDuration":404912,"Delta":85189297},{"NoteNumber":72,"Velocity":39,"Duration":404912,"SoundDuration":404912,"Delta":85189297},{"NoteNumber":64,"Velocity":29,"Duration":404912,"SoundDuration":404912,"Delta":85189297},{"NoteNumber":57,"Velocity":25,"Duration":404912,"SoundDuration":404912,"Delta":85189297},{"NoteNumber":60,"Velocity":25,"Duration":406081,"SoundDuration":406081,"Delta":85207856},{"NoteNumber":71,"Velocity":35,"Duration":430415,"SoundDuration":430415,"Delta":85594210},{"NoteNumber":74,"Velocity":44,"Duration":430415,"SoundDuration":430415,"Delta":85594210},{"NoteNumber":40,"Velocity":27,"Duration":430415,"SoundDuration":430415,"Delta":85594210},{"NoteNumber":72,"Velocity":36,"Duration":886342,"SoundDuration":886342,"Delta":86024626},{"NoteNumber":76,"Velocity":46,"Duration":886342,"SoundDuration":886342,"Delta":86024626},{"NoteNumber":52,"Velocity":27,"Duration":455927,"SoundDuration":455927,"Delta":86024626},{"NoteNumber":65,"Velocity":29,"Duration":1279844,"SoundDuration":1279844,"Delta":86480553},{"NoteNumber":71,"Velocity":39,"Duration":634220,"SoundDuration":634220,"Delta":86910969},{"NoteNumber":74,"Velocity":49,"Duration":634220,"SoundDuration":634220,"Delta":86910969},{"NoteNumber":52,"Velocity":27,"Duration":419012,"SoundDuration":419012,"Delta":86910969},{"NoteNumber":57,"Velocity":27,"Duration":430415,"SoundDuration":430415,"Delta":87329981},{"NoteNumber":69,"Velocity":38,"Duration":215208,"SoundDuration":215208,"Delta":87545189},{"NoteNumber":72,"Velocity":48,"Duration":215208,"SoundDuration":215208,"Delta":87545189},{"NoteNumber":69,"Velocity":35,"Duration":452556,"SoundDuration":452556,"Delta":87760397},{"NoteNumber":72,"Velocity":39,"Duration":452556,"SoundDuration":452556,"Delta":87760397},{"NoteNumber":64,"Velocity":29,"Duration":933403,"SoundDuration":933403,"Delta":87760397},{"NoteNumber":68,"Velocity":33,"Duration":721269,"SoundDuration":721269,"Delta":88212954},{"NoteNumber":71,"Velocity":40,"Duration":721269,"SoundDuration":721269,"Delta":88212954},{"NoteNumber":52,"Velocity":27,"Duration":480846,"SoundDuration":480846,"Delta":88212954},{"NoteNumber":62,"Velocity":27,"Duration":520221,"SoundDuration":520221,"Delta":88693801},{"NoteNumber":69,"Velocity":37,"Duration":279798,"SoundDuration":279798,"Delta":88934224},{"NoteNumber":69,"Velocity":37,"Duration":1318875,"SoundDuration":1318875,"Delta":89214023},{"NoteNumber":57,"Velocity":27,"Duration":439625,"SoundDuration":439625,"Delta":89214023},{"NoteNumber":60,"Velocity":32,"Duration":439625,"SoundDuration":439625,"Delta":89214023},{"NoteNumber":45,"Velocity":27,"Duration":439624,"SoundDuration":439624,"Delta":89653648},{"NoteNumber":52,"Velocity":27,"Duration":439625,"SoundDuration":439625,"Delta":90093273},{"NoteNumber":63,"Velocity":35,"Duration":430415,"SoundDuration":430415,"Delta":90532898},{"NoteNumber":66,"Velocity":41,"Duration":430415,"SoundDuration":430415,"Delta":90532898},{"NoteNumber":57,"Velocity":26,"Duration":430415,"SoundDuration":430415,"Delta":90532898},{"NoteNumber":60,"Velocity":31,"Duration":430415,"SoundDuration":430415,"Delta":90532898},{"NoteNumber":64,"Velocity":27,"Duration":424558,"SoundDuration":424558,"Delta":90748106},{"NoteNumber":68,"Velocity":43,"Duration":418701,"SoundDuration":418701,"Delta":90963314},{"NoteNumber":45,"Velocity":28,"Duration":418701,"SoundDuration":418701,"Delta":90963314},{"NoteNumber":64,"Velocity":27,"Duration":423056,"SoundDuration":423056,"Delta":91172665},{"NoteNumber":66,"Velocity":37,"Duration":427411,"SoundDuration":427411,"Delta":91382016},{"NoteNumber":69,"Velocity":45,"Duration":427411,"SoundDuration":427411,"Delta":91382016},{"NoteNumber":52,"Velocity":28,"Duration":427411,"SoundDuration":427411,"Delta":91382016},{"NoteNumber":64,"Velocity":27,"Duration":420260,"SoundDuration":420260,"Delta":91595721},{"NoteNumber":68,"Velocity":39,"Duration":413109,"SoundDuration":413109,"Delta":91809427},{"NoteNumber":71,"Velocity":46,"Duration":413109,"SoundDuration":413109,"Delta":91809427},{"NoteNumber":59,"Velocity":32,"Duration":413109,"SoundDuration":413109,"Delta":91809427},{"NoteNumber":56,"Velocity":27,"Duration":413109,"SoundDuration":413109,"Delta":91809427},{"NoteNumber":64,"Velocity":31,"Duration":413109,"SoundDuration":413109,"Delta":92015982},{"NoteNumber":76,"Velocity":45,"Duration":413109,"SoundDuration":413109,"Delta":92222537},{"NoteNumber":40,"Velocity":28,"Duration":413109,"SoundDuration":413109,"Delta":92222537},{"NoteNumber":64,"Velocity":31,"Duration":418808,"SoundDuration":418808,"Delta":92429091},{"NoteNumber":68,"Velocity":37,"Duration":318381,"SoundDuration":318381,"Delta":92635646},{"NoteNumber":71,"Velocity":45,"Duration":318381,"SoundDuration":318381,"Delta":92635646},{"NoteNumber":52,"Velocity":28,"Duration":415771,"SoundDuration":415771,"Delta":92635646},{"NoteNumber":64,"Velocity":31,"Duration":407321,"SoundDuration":407321,"Delta":92847900},{"NoteNumber":68,"Velocity":31,"Duration":97390,"SoundDuration":97390,"Delta":92954027},{"NoteNumber":71,"Velocity":37,"Duration":97390,"SoundDuration":97390,"Delta":92954027},{"NoteNumber":66,"Velocity":38,"Duration":407608,"SoundDuration":407608,"Delta":93051417},{"NoteNumber":69,"Velocity":45,"Duration":407608,"SoundDuration":407608,"Delta":93051417},{"NoteNumber":60,"Velocity":32,"Duration":407608,"SoundDuration":407608,"Delta":93051417},{"NoteNumber":57,"Velocity":27,"Duration":407608,"SoundDuration":407608,"Delta":93051417},{"NoteNumber":64,"Velocity":28,"Duration":414596,"SoundDuration":414596,"Delta":93255222},{"NoteNumber":68,"Velocity":43,"Duration":421584,"SoundDuration":421584,"Delta":93459026},{"NoteNumber":40,"Velocity":28,"Duration":421584,"SoundDuration":421584,"Delta":93459026},{"NoteNumber":64,"Velocity":28,"Duration":426000,"SoundDuration":426000,"Delta":93669818},{"NoteNumber":63,"Velocity":36,"Duration":430415,"SoundDuration":430415,"Delta":93880611},{"NoteNumber":66,"Velocity":43,"Duration":430415,"SoundDuration":430415,"Delta":93880611},{"NoteNumber":52,"Velocity":28,"Duration":430415,"SoundDuration":430415,"Delta":93880611},{"NoteNumber":64,"Velocity":28,"Duration":430415,"SoundDuration":430415,"Delta":94095819},{"NoteNumber":68,"Velocity":39,"Duration":860832,"SoundDuration":860832,"Delta":94311027},{"NoteNumber":71,"Velocity":46,"Duration":860832,"SoundDuration":860832,"Delta":94311027},{"NoteNumber":59,"Velocity":32,"Duration":430416,"SoundDuration":430416,"Delta":94311027},{"NoteNumber":56,"Velocity":27,"Duration":430416,"SoundDuration":430416,"Delta":94311027},{"NoteNumber":64,"Velocity":28,"Duration":430416,"SoundDuration":430416,"Delta":94526235},{"NoteNumber":40,"Velocity":28,"Duration":430415,"SoundDuration":430415,"Delta":94741443},{"NoteNumber":64,"Velocity":29,"Duration":430415,"SoundDuration":430415,"Delta":94956651},{"NoteNumber":68,"Velocity":44,"Duration":430416,"SoundDuration":430416,"Delta":95171859},{"NoteNumber":52,"Velocity":28,"Duration":430416,"SoundDuration":430416,"Delta":95171859},{"NoteNumber":64,"Velocity":28,"Duration":419012,"SoundDuration":419012,"Delta":95387067},{"NoteNumber":63,"Velocity":35,"Duration":407608,"SoundDuration":407608,"Delta":95602275},{"NoteNumber":66,"Velocity":41,"Duration":407608,"SoundDuration":407608,"Delta":95602275},{"NoteNumber":57,"Velocity":26,"Duration":407608,"SoundDuration":407608,"Delta":95602275},{"NoteNumber":60,"Velocity":31,"Duration":407608,"SoundDuration":407608,"Delta":95602275},{"NoteNumber":64,"Velocity":28,"Duration":407608,"SoundDuration":407608,"Delta":95806079},{"NoteNumber":68,"Velocity":43,"Duration":407608,"SoundDuration":407608,"Delta":96009883},{"NoteNumber":45,"Velocity":28,"Duration":407608,"SoundDuration":407608,"Delta":96009883},{"NoteNumber":64,"Velocity":27,"Duration":417510,"SoundDuration":417510,"Delta":96213688},{"NoteNumber":66,"Velocity":37,"Duration":427411,"SoundDuration":427411,"Delta":96417492},{"NoteNumber":69,"Velocity":45,"Duration":427411,"SoundDuration":427411,"Delta":96417492},{"NoteNumber":52,"Velocity":28,"Duration":427411,"SoundDuration":427411,"Delta":96417492},{"NoteNumber":64,"Velocity":27,"Duration":420260,"SoundDuration":420260,"Delta":96631198},{"NoteNumber":68,"Velocity":39,"Duration":413109,"SoundDuration":413109,"Delta":96844903},{"NoteNumber":71,"Velocity":46,"Duration":413109,"SoundDuration":413109,"Delta":96844903},{"NoteNumber":59,"Velocity":32,"Duration":413109,"SoundDuration":413109,"Delta":96844903},{"NoteNumber":56,"Velocity":27,"Duration":413109,"SoundDuration":413109,"Delta":96844903},{"NoteNumber":64,"Velocity":27,"Duration":413109,"SoundDuration":413109,"Delta":97051458},{"NoteNumber":76,"Velocity":45,"Duration":413109,"SoundDuration":413109,"Delta":97258013},{"NoteNumber":40,"Velocity":28,"Duration":413109,"SoundDuration":413109,"Delta":97258013},{"NoteNumber":64,"Velocity":27,"Duration":418808,"SoundDuration":418808,"Delta":97464568},{"NoteNumber":68,"Velocity":37,"Duration":318381,"SoundDuration":318381,"Delta":97671122},{"NoteNumber":71,"Velocity":45,"Duration":318381,"SoundDuration":318381,"Delta":97671122},{"NoteNumber":52,"Velocity":28,"Duration":415771,"SoundDuration":415771,"Delta":97671122},{"NoteNumber":64,"Velocity":31,"Duration":407321,"SoundDuration":407321,"Delta":97883377},{"NoteNumber":68,"Velocity":31,"Duration":97390,"SoundDuration":97390,"Delta":97989504},{"NoteNumber":71,"Velocity":37,"Duration":97390,"SoundDuration":97390,"Delta":97989504},{"NoteNumber":66,"Velocity":38,"Duration":407608,"SoundDuration":407608,"Delta":98086894},{"NoteNumber":69,"Velocity":45,"Duration":407608,"SoundDuration":407608,"Delta":98086894},{"NoteNumber":60,"Velocity":32,"Duration":407608,"SoundDuration":407608,"Delta":98086894},{"NoteNumber":57,"Velocity":27,"Duration":407608,"SoundDuration":407608,"Delta":98086894},{"NoteNumber":64,"Velocity":30,"Duration":414596,"SoundDuration":414596,"Delta":98290698},{"NoteNumber":68,"Velocity":43,"Duration":421584,"SoundDuration":421584,"Delta":98494502},{"NoteNumber":40,"Velocity":28,"Duration":421584,"SoundDuration":421584,"Delta":98494502},{"NoteNumber":64,"Velocity":29,"Duration":426000,"SoundDuration":426000,"Delta":98705295},{"NoteNumber":63,"Velocity":36,"Duration":430415,"SoundDuration":430415,"Delta":98916087},{"NoteNumber":66,"Velocity":43,"Duration":430415,"SoundDuration":430415,"Delta":98916087},{"NoteNumber":52,"Velocity":28,"Duration":430415,"SoundDuration":430415,"Delta":98916087},{"NoteNumber":64,"Velocity":29,"Duration":430415,"SoundDuration":430415,"Delta":99131295},{"NoteNumber":68,"Velocity":44,"Duration":2568651,"SoundDuration":2568651,"Delta":99346503},{"NoteNumber":71,"Velocity":52,"Duration":2568651,"SoundDuration":2568651,"Delta":99346503},{"NoteNumber":59,"Velocity":36,"Duration":430416,"SoundDuration":430416,"Delta":99346503},{"NoteNumber":56,"Velocity":25,"Duration":430416,"SoundDuration":430416,"Delta":99346503},{"NoteNumber":64,"Velocity":35,"Duration":430416,"SoundDuration":430416,"Delta":99561711},{"NoteNumber":40,"Velocity":33,"Duration":430415,"SoundDuration":430415,"Delta":99776919},{"NoteNumber":64,"Velocity":36,"Duration":430415,"SoundDuration":430415,"Delta":99992127},{"NoteNumber":52,"Velocity":34,"Duration":422104,"SoundDuration":422104,"Delta":100207335},{"NoteNumber":64,"Velocity":38,"Duration":421182,"SoundDuration":421182,"Delta":100422543},{"NoteNumber":56,"Velocity":27,"Duration":428571,"SoundDuration":428571,"Delta":100629440},{"NoteNumber":59,"Velocity":39,"Duration":428571,"SoundDuration":428571,"Delta":100629440},{"NoteNumber":64,"Velocity":39,"Duration":428571,"SoundDuration":428571,"Delta":100843726},{"NoteNumber":40,"Velocity":36,"Duration":428571,"SoundDuration":428571,"Delta":101058011},{"NoteNumber":64,"Velocity":41,"Duration":428571,"SoundDuration":428571,"Delta":101272297},{"NoteNumber":52,"Velocity":37,"Duration":428571,"SoundDuration":428571,"Delta":101486583},{"NoteNumber":64,"Velocity":42,"Duration":423636,"SoundDuration":423636,"Delta":101700869},{"NoteNumber":67,"Velocity":54,"Duration":1267820,"SoundDuration":1267820,"Delta":101915154},{"NoteNumber":73,"Velocity":64,"Duration":1267820,"SoundDuration":1267820,"Delta":101915154},{"NoteNumber":57,"Velocity":42,"Duration":418701,"SoundDuration":418701,"Delta":101915154},{"NoteNumber":61,"Velocity":50,"Duration":418701,"SoundDuration":418701,"Delta":101915154},{"NoteNumber":64,"Velocity":46,"Duration":418701,"SoundDuration":418701,"Delta":102124505},{"NoteNumber":45,"Velocity":54,"Duration":418702,"SoundDuration":418702,"Delta":102333856},{"NoteNumber":64,"Velocity":47,"Duration":424559,"SoundDuration":424559,"Delta":102543207},{"NoteNumber":52,"Velocity":54,"Duration":430415,"SoundDuration":430415,"Delta":102752558},{"NoteNumber":64,"Velocity":48,"Duration":215207,"SoundDuration":215207,"Delta":102967766},{"NoteNumber":69,"Velocity":57,"Duration":1285974,"SoundDuration":1285974,"Delta":103182974},{"NoteNumber":74,"Velocity":68,"Duration":1285974,"SoundDuration":1285974,"Delta":103182974},{"NoteNumber":57,"Velocity":44,"Duration":421584,"SoundDuration":421584,"Delta":103182974},{"NoteNumber":62,"Velocity":52,"Duration":421584,"SoundDuration":421584,"Delta":103182974},{"NoteNumber":66,"Velocity":48,"Duration":421585,"SoundDuration":421585,"Delta":103393767},{"NoteNumber":50,"Velocity":58,"Duration":421585,"SoundDuration":421585,"Delta":103604559},{"NoteNumber":66,"Velocity":49,"Duration":432194,"SoundDuration":432194,"Delta":103815352},{"NoteNumber":54,"Velocity":58,"Duration":442804,"SoundDuration":442804,"Delta":104026144},{"NoteNumber":66,"Velocity":50,"Duration":432194,"SoundDuration":432194,"Delta":104247547},{"NoteNumber":69,"Velocity":62,"Duration":1276633,"SoundDuration":1276633,"Delta":104468949},{"NoteNumber":75,"Velocity":73,"Duration":1276633,"SoundDuration":1276633,"Delta":104468949},{"NoteNumber":63,"Velocity":58,"Duration":421584,"SoundDuration":421584,"Delta":104468949},{"NoteNumber":59,"Velocity":49,"Duration":421584,"SoundDuration":421584,"Delta":104468949},{"NoteNumber":66,"Velocity":50,"Duration":421585,"SoundDuration":421585,"Delta":104679741},{"NoteNumber":47,"Velocity":64,"Duration":421585,"SoundDuration":421585,"Delta":104890534},{"NoteNumber":66,"Velocity":52,"Duration":427524,"SoundDuration":427524,"Delta":105101326},{"NoteNumber":54,"Velocity":64,"Duration":433463,"SoundDuration":433463,"Delta":105312119},{"NoteNumber":66,"Velocity":54,"Duration":216731,"SoundDuration":216731,"Delta":105528851},{"NoteNumber":72,"Velocity":65,"Duration":1289200,"SoundDuration":1289200,"Delta":105745582},{"NoteNumber":76,"Velocity":77,"Duration":1289200,"SoundDuration":1289200,"Delta":105745582},{"NoteNumber":64,"Velocity":59,"Duration":421584,"SoundDuration":421584,"Delta":105745582},{"NoteNumber":60,"Velocity":50,"Duration":421584,"SoundDuration":421584,"Delta":105745582},{"NoteNumber":69,"Velocity":54,"Duration":421585,"SoundDuration":421585,"Delta":105956375},{"NoteNumber":48,"Velocity":67,"Duration":421585,"SoundDuration":421585,"Delta":106167167},{"NoteNumber":69,"Velocity":56,"Duration":433807,"SoundDuration":433807,"Delta":106377960},{"NoteNumber":57,"Velocity":67,"Duration":446030,"SoundDuration":446030,"Delta":106588752},{"NoteNumber":69,"Velocity":57,"Duration":223015,"SoundDuration":223015,"Delta":106811768},{"NoteNumber":76,"Velocity":69,"Duration":1291625,"SoundDuration":1291625,"Delta":107034783},{"NoteNumber":79,"Velocity":82,"Duration":1291625,"SoundDuration":1291625,"Delta":107034783},{"NoteNumber":64,"Velocity":62,"Duration":430415,"SoundDuration":430415,"Delta":107034783},{"NoteNumber":61,"Velocity":53,"Duration":430415,"SoundDuration":430415,"Delta":107034783},{"NoteNumber":70,"Velocity":59,"Duration":426000,"SoundDuration":426000,"Delta":107249991},{"NoteNumber":49,"Velocity":70,"Duration":421584,"SoundDuration":421584,"Delta":107465199},{"NoteNumber":70,"Velocity":60,"Duration":430604,"SoundDuration":430604,"Delta":107675991},{"NoteNumber":58,"Velocity":70,"Duration":439625,"SoundDuration":439625,"Delta":107886784},{"NoteNumber":70,"Velocity":61,"Duration":435020,"SoundDuration":435020,"Delta":108106596},{"NoteNumber":74,"Velocity":73,"Duration":1318273,"SoundDuration":1318273,"Delta":108326409},{"NoteNumber":77,"Velocity":86,"Duration":1318273,"SoundDuration":1318273,"Delta":108326409},{"NoteNumber":65,"Velocity":66,"Duration":430415,"SoundDuration":430415,"Delta":108326409},{"NoteNumber":62,"Velocity":56,"Duration":430415,"SoundDuration":430415,"Delta":108326409},{"NoteNumber":70,"Velocity":61,"Duration":426000,"SoundDuration":426000,"Delta":108541617},{"NoteNumber":50,"Velocity":74,"Duration":421584,"SoundDuration":421584,"Delta":108756825},{"NoteNumber":70,"Velocity":63,"Duration":443928,"SoundDuration":443928,"Delta":108967617},{"NoteNumber":58,"Velocity":74,"Duration":466273,"SoundDuration":466273,"Delta":109178410},{"NoteNumber":70,"Velocity":64,"Duration":233136,"SoundDuration":233136,"Delta":109411546},{"NoteNumber":69,"Velocity":71,"Duration":2635567,"SoundDuration":2635567,"Delta":109644683},{"NoteNumber":72,"Velocity":71,"Duration":2635567,"SoundDuration":2635567,"Delta":109644683},{"NoteNumber":75,"Velocity":77,"Duration":2635567,"SoundDuration":2635567,"Delta":109644683},{"NoteNumber":78,"Velocity":78,"Duration":2635567,"SoundDuration":2635567,"Delta":109644683},{"NoteNumber":81,"Velocity":91,"Duration":2635567,"SoundDuration":2635567,"Delta":109644683},{"NoteNumber":63,"Velocity":59,"Duration":455927,"SoundDuration":455927,"Delta":109644683},{"NoteNumber":66,"Velocity":70,"Duration":455927,"SoundDuration":455927,"Delta":109644683},{"NoteNumber":51,"Velocity":79,"Duration":433463,"SoundDuration":433463,"Delta":110100610},{"NoteNumber":60,"Velocity":78,"Duration":433463,"SoundDuration":433463,"Delta":110534073},{"NoteNumber":66,"Velocity":72,"Duration":433463,"SoundDuration":433463,"Delta":110967537},{"NoteNumber":63,"Velocity":61,"Duration":433463,"SoundDuration":433463,"Delta":110967537},{"NoteNumber":51,"Velocity":70,"Duration":439625,"SoundDuration":439625,"Delta":111401000},{"NoteNumber":60,"Velocity":71,"Duration":439624,"SoundDuration":439624,"Delta":111840625},{"NoteNumber":45,"Velocity":88,"Duration":1306620,"SoundDuration":1306620,"Delta":112280250},{"NoteNumber":63,"Velocity":53,"Duration":449303,"SoundDuration":449303,"Delta":112280250},{"NoteNumber":66,"Velocity":63,"Duration":449303,"SoundDuration":449303,"Delta":112280250},{"NoteNumber":51,"Velocity":55,"Duration":422534,"SoundDuration":422534,"Delta":112729554},{"NoteNumber":60,"Velocity":53,"Duration":434782,"SoundDuration":434782,"Delta":113152089},{"NoteNumber":39,"Velocity":76,"Duration":867264,"SoundDuration":867264,"Delta":113586871},{"NoteNumber":66,"Velocity":56,"Duration":444729,"SoundDuration":444729,"Delta":113586871},{"NoteNumber":63,"Velocity":48,"Duration":444729,"SoundDuration":444729,"Delta":113586871},{"NoteNumber":51,"Velocity":51,"Duration":422534,"SoundDuration":422534,"Delta":114031601},{"NoteNumber":60,"Velocity":48,"Duration":431654,"SoundDuration":431654,"Delta":114454136},{"NoteNumber":63,"Velocity":40,"Duration":430415,"SoundDuration":430415,"Delta":114885790},{"NoteNumber":66,"Velocity":47,"Duration":430415,"SoundDuration":430415,"Delta":114885790},{"NoteNumber":51,"Velocity":40,"Duration":419580,"SoundDuration":419580,"Delta":115316206},{"NoteNumber":60,"Velocity":38,"Duration":473484,"SoundDuration":473484,"Delta":115735787},{"NoteNumber":76,"Velocity":46,"Duration":860490,"SoundDuration":860490,"Delta":116209272},{"NoteNumber":72,"Velocity":38,"Duration":860490,"SoundDuration":860490,"Delta":116209272},{"NoteNumber":52,"Velocity":32,"Duration":422534,"SoundDuration":422534,"Delta":116209272},{"NoteNumber":64,"Velocity":30,"Duration":430245,"SoundDuration":430245,"Delta":116420539},{"NoteNumber":40,"Velocity":29,"Duration":437955,"SoundDuration":437955,"Delta":116631807},{"NoteNumber":64,"Velocity":30,"Duration":439566,"SoundDuration":439566,"Delta":116850785},{"NoteNumber":69,"Velocity":36,"Duration":441176,"SoundDuration":441176,"Delta":117069763},{"NoteNumber":72,"Velocity":42,"Duration":441176,"SoundDuration":441176,"Delta":117069763},{"NoteNumber":52,"Velocity":29,"Duration":441176,"SoundDuration":441176,"Delta":117069763},{"NoteNumber":64,"Velocity":29,"Duration":435796,"SoundDuration":435796,"Delta":117290351},{"NoteNumber":69,"Velocity":42,"Duration":855589,"SoundDuration":855589,"Delta":117510939},{"NoteNumber":60,"Velocity":32,"Duration":430415,"SoundDuration":430415,"Delta":117510939},{"NoteNumber":57,"Velocity":27,"Duration":430415,"SoundDuration":430415,"Delta":117510939},{"NoteNumber":64,"Velocity":30,"Duration":433484,"SoundDuration":433484,"Delta":117726147},{"NoteNumber":40,"Velocity":29,"Duration":425173,"SoundDuration":425173,"Delta":117941355},{"NoteNumber":64,"Velocity":30,"Duration":416247,"SoundDuration":416247,"Delta":118159632},{"NoteNumber":68,"Velocity":37,"Duration":418701,"SoundDuration":418701,"Delta":118366529},{"NoteNumber":71,"Velocity":44,"Duration":418701,"SoundDuration":418701,"Delta":118366529},{"NoteNumber":52,"Velocity":29,"Duration":418701,"SoundDuration":418701,"Delta":118366529},{"NoteNumber":64,"Velocity":29,"Duration":411807,"SoundDuration":411807,"Delta":118575880},{"NoteNumber":69,"Velocity":35,"Duration":404912,"SoundDuration":404912,"Delta":118785231},{"NoteNumber":72,"Velocity":41,"Duration":404912,"SoundDuration":404912,"Delta":118785231},{"NoteNumber":60,"Velocity":32,"Duration":404912,"SoundDuration":404912,"Delta":118785231},{"NoteNumber":57,"Velocity":27,"Duration":404912,"SoundDuration":404912,"Delta":118785231},{"NoteNumber":64,"Velocity":30,"Duration":417664,"SoundDuration":417664,"Delta":118987687},{"NoteNumber":71,"Velocity":38,"Duration":430415,"SoundDuration":430415,"Delta":119190144},{"NoteNumber":74,"Velocity":46,"Duration":430415,"SoundDuration":430415,"Delta":119190144},{"NoteNumber":40,"Velocity":30,"Duration":430415,"SoundDuration":430415,"Delta":119190144},{"NoteNumber":64,"Velocity":31,"Duration":436610,"SoundDuration":436610,"Delta":119405352},{"NoteNumber":72,"Velocity":39,"Duration":442804,"SoundDuration":442804,"Delta":119620560},{"NoteNumber":76,"Velocity":48,"Duration":442804,"SoundDuration":442804,"Delta":119620560},{"NoteNumber":52,"Velocity":30,"Duration":442804,"SoundDuration":442804,"Delta":119620560},{"NoteNumber":64,"Velocity":30,"Duration":436610,"SoundDuration":436610,"Delta":119841962},{"NoteNumber":69,"Velocity":42,"Duration":866969,"SoundDuration":866969,"Delta":120063364},{"NoteNumber":60,"Velocity":32,"Duration":430415,"SoundDuration":430415,"Delta":120063364},{"NoteNumber":57,"Velocity":27,"Duration":430415,"SoundDuration":430415,"Delta":120063364},{"NoteNumber":64,"Velocity":31,"Duration":433484,"SoundDuration":433484,"Delta":120278572},{"NoteNumber":40,"Velocity":29,"Duration":436554,"SoundDuration":436554,"Delta":120493780},{"NoteNumber":64,"Velocity":29,"Duration":427627,"SoundDuration":427627,"Delta":120712057},{"NoteNumber":68,"Velocity":37,"Duration":418701,"SoundDuration":418701,"Delta":120930334},{"NoteNumber":71,"Velocity":44,"Duration":418701,"SoundDuration":418701,"Delta":120930334},{"NoteNumber":52,"Velocity":29,"Duration":418701,"SoundDuration":418701,"Delta":120930334},{"NoteNumber":64,"Velocity":29,"Duration":411807,"SoundDuration":411807,"Delta":121139685},{"NoteNumber":69,"Velocity":35,"Duration":404912,"SoundDuration":404912,"Delta":121349036},{"NoteNumber":72,"Velocity":41,"Duration":404912,"SoundDuration":404912,"Delta":121349036},{"NoteNumber":60,"Velocity":32,"Duration":404912,"SoundDuration":404912,"Delta":121349036},{"NoteNumber":57,"Velocity":27,"Duration":404912,"SoundDuration":404912,"Delta":121349036},{"NoteNumber":64,"Velocity":30,"Duration":417664,"SoundDuration":417664,"Delta":121551493},{"NoteNumber":71,"Velocity":38,"Duration":430415,"SoundDuration":430415,"Delta":121753949},{"NoteNumber":74,"Velocity":46,"Duration":430415,"SoundDuration":430415,"Delta":121753949},{"NoteNumber":40,"Velocity":30,"Duration":430415,"SoundDuration":430415,"Delta":121753949},{"NoteNumber":64,"Velocity":31,"Duration":443171,"SoundDuration":443171,"Delta":121969157},{"NoteNumber":72,"Velocity":39,"Duration":886342,"SoundDuration":886342,"Delta":122184365},{"NoteNumber":76,"Velocity":48,"Duration":886342,"SoundDuration":886342,"Delta":122184365},{"NoteNumber":52,"Velocity":30,"Duration":455927,"SoundDuration":455927,"Delta":122184365},{"NoteNumber":64,"Velocity":33,"Duration":443171,"SoundDuration":443171,"Delta":122412329},{"NoteNumber":65,"Velocity":32,"Duration":1279844,"SoundDuration":1279844,"Delta":122640292},{"NoteNumber":64,"Velocity":34,"Duration":419012,"SoundDuration":419012,"Delta":122855500},{"NoteNumber":71,"Velocity":42,"Duration":634220,"SoundDuration":634220,"Delta":123070708},{"NoteNumber":74,"Velocity":51,"Duration":634220,"SoundDuration":634220,"Delta":123070708},{"NoteNumber":52,"Velocity":29,"Duration":419012,"SoundDuration":419012,"Delta":123070708},{"NoteNumber":64,"Velocity":31,"Duration":430415,"SoundDuration":430415,"Delta":123274512},{"NoteNumber":57,"Velocity":29,"Duration":430415,"SoundDuration":430415,"Delta":123489720},{"NoteNumber":69,"Velocity":41,"Duration":204447,"SoundDuration":204447,"Delta":123704928},{"NoteNumber":72,"Velocity":50,"Duration":204447,"SoundDuration":204447,"Delta":123704928},{"NoteNumber":69,"Velocity":35,"Duration":452556,"SoundDuration":452556,"Delta":123920136},{"NoteNumber":72,"Velocity":38,"Duration":452556,"SoundDuration":452556,"Delta":123920136},{"NoteNumber":64,"Velocity":29,"Duration":933403,"SoundDuration":933403,"Delta":123920136},{"NoteNumber":68,"Velocity":33,"Duration":721269,"SoundDuration":721269,"Delta":124372693},{"NoteNumber":71,"Velocity":39,"Duration":721269,"SoundDuration":721269,"Delta":124372693},{"NoteNumber":52,"Velocity":27,"Duration":480846,"SoundDuration":480846,"Delta":124372693},{"NoteNumber":62,"Velocity":27,"Duration":520221,"SoundDuration":520221,"Delta":124853540},{"NoteNumber":69,"Velocity":37,"Duration":265808,"SoundDuration":265808,"Delta":125093963},{"NoteNumber":69,"Velocity":34,"Duration":1347910,"SoundDuration":1347910,"Delta":125373762},{"NoteNumber":57,"Velocity":26,"Duration":449303,"SoundDuration":449303,"Delta":125373762},{"NoteNumber":61,"Velocity":32,"Duration":449303,"SoundDuration":449303,"Delta":125373762},{"NoteNumber":45,"Velocity":27,"Duration":449303,"SoundDuration":449303,"Delta":125823065},{"NoteNumber":52,"Velocity":27,"Duration":449303,"SoundDuration":449303,"Delta":126272369},{"NoteNumber":68,"Velocity":37,"Duration":453240,"SoundDuration":453240,"Delta":126721672},{"NoteNumber":71,"Velocity":46,"Duration":453240,"SoundDuration":453240,"Delta":126721672},{"NoteNumber":62,"Velocity":29,"Duration":453240,"SoundDuration":453240,"Delta":126721672},{"NoteNumber":65,"Velocity":30,"Duration":453240,"SoundDuration":453240,"Delta":126721672},{"NoteNumber":69,"Velocity":38,"Duration":428571,"SoundDuration":428571,"Delta":127174913},{"NoteNumber":73,"Velocity":48,"Duration":428571,"SoundDuration":428571,"Delta":127174913},{"NoteNumber":45,"Velocity":32,"Duration":428571,"SoundDuration":428571,"Delta":127174913},{"NoteNumber":71,"Velocity":39,"Duration":450112,"SoundDuration":450112,"Delta":127603484},{"NoteNumber":74,"Velocity":50,"Duration":450112,"SoundDuration":450112,"Delta":127603484},{"NoteNumber":57,"Velocity":32,"Duration":450112,"SoundDuration":450112,"Delta":127603484},{"NoteNumber":73,"Velocity":41,"Duration":428571,"SoundDuration":428571,"Delta":128053597},{"NoteNumber":76,"Velocity":52,"Duration":428571,"SoundDuration":428571,"Delta":128053597},{"NoteNumber":64,"Velocity":36,"Duration":428571,"SoundDuration":428571,"Delta":128053597},{"NoteNumber":61,"Velocity":30,"Duration":428571,"SoundDuration":428571,"Delta":128053597},{"NoteNumber":81,"Velocity":50,"Duration":434782,"SoundDuration":434782,"Delta":128482168},{"NoteNumber":45,"Velocity":32,"Duration":434782,"SoundDuration":434782,"Delta":128482168},{"NoteNumber":73,"Velocity":39,"Duration":335220,"SoundDuration":335220,"Delta":128916951},{"NoteNumber":76,"Velocity":50,"Duration":335220,"SoundDuration":335220,"Delta":128916951},{"NoteNumber":57,"Velocity":32,"Duration":437777,"SoundDuration":437777,"Delta":128916951},{"NoteNumber":73,"Velocity":33,"Duration":102557,"SoundDuration":102557,"Delta":129252171},{"NoteNumber":76,"Velocity":42,"Duration":102557,"SoundDuration":102557,"Delta":129252171},{"NoteNumber":71,"Velocity":40,"Duration":429246,"SoundDuration":429246,"Delta":129354728},{"NoteNumber":74,"Velocity":51,"Duration":429246,"SoundDuration":429246,"Delta":129354728},{"NoteNumber":65,"Velocity":36,"Duration":429246,"SoundDuration":429246,"Delta":129354728},{"NoteNumber":62,"Velocity":30,"Duration":429246,"SoundDuration":429246,"Delta":129354728},{"NoteNumber":69,"Velocity":38,"Duration":422535,"SoundDuration":422535,"Delta":129783974},{"NoteNumber":73,"Velocity":48,"Duration":422535,"SoundDuration":422535,"Delta":129783974},{"NoteNumber":38,"Velocity":32,"Duration":422535,"SoundDuration":422535,"Delta":129783974},{"NoteNumber":68,"Velocity":36,"Duration":453240,"SoundDuration":453240,"Delta":130206509},{"NoteNumber":71,"Velocity":46,"Duration":453240,"SoundDuration":453240,"Delta":130206509},{"NoteNumber":57,"Velocity":30,"Duration":453240,"SoundDuration":453240,"Delta":130206509},{"NoteNumber":73,"Velocity":41,"Duration":894417,"SoundDuration":894417,"Delta":130659750},{"NoteNumber":76,"Velocity":52,"Duration":894417,"SoundDuration":894417,"Delta":130659750},{"NoteNumber":64,"Velocity":36,"Duration":453240,"SoundDuration":453240,"Delta":130659750},{"NoteNumber":61,"Velocity":30,"Duration":453240,"SoundDuration":453240,"Delta":130659750},{"NoteNumber":45,"Velocity":32,"Duration":441176,"SoundDuration":441176,"Delta":131112990},{"NoteNumber":69,"Velocity":38,"Duration":451128,"SoundDuration":451128,"Delta":131554167},{"NoteNumber":73,"Velocity":49,"Duration":451128,"SoundDuration":451128,"Delta":131554167},{"NoteNumber":57,"Velocity":32,"Duration":451128,"SoundDuration":451128,"Delta":131554167},{"NoteNumber":68,"Velocity":37,"Duration":429246,"SoundDuration":429246,"Delta":132005295},{"NoteNumber":71,"Velocity":46,"Duration":429246,"SoundDuration":429246,"Delta":132005295},{"NoteNumber":62,"Velocity":29,"Duration":429246,"SoundDuration":429246,"Delta":132005295},{"NoteNumber":65,"Velocity":30,"Duration":429246,"SoundDuration":429246,"Delta":132005295},{"NoteNumber":69,"Velocity":38,"Duration":422535,"SoundDuration":422535,"Delta":132434541},{"NoteNumber":73,"Velocity":48,"Duration":422535,"SoundDuration":422535,"Delta":132434541},{"NoteNumber":45,"Velocity":32,"Duration":422535,"SoundDuration":422535,"Delta":132434541},{"NoteNumber":71,"Velocity":39,"Duration":450112,"SoundDuration":450112,"Delta":132857076},{"NoteNumber":74,"Velocity":50,"Duration":450112,"SoundDuration":450112,"Delta":132857076},{"NoteNumber":57,"Velocity":32,"Duration":450112,"SoundDuration":450112,"Delta":132857076},{"NoteNumber":73,"Velocity":41,"Duration":434971,"SoundDuration":434971,"Delta":133307188},{"NoteNumber":76,"Velocity":52,"Duration":434971,"SoundDuration":434971,"Delta":133307188},{"NoteNumber":64,"Velocity":36,"Duration":434971,"SoundDuration":434971,"Delta":133307188},{"NoteNumber":61,"Velocity":30,"Duration":434971,"SoundDuration":434971,"Delta":133307188},{"NoteNumber":81,"Velocity":50,"Duration":425532,"SoundDuration":425532,"Delta":133742160},{"NoteNumber":45,"Velocity":32,"Duration":425532,"SoundDuration":425532,"Delta":133742160},{"NoteNumber":73,"Velocity":39,"Duration":335220,"SoundDuration":335220,"Delta":134167692},{"NoteNumber":76,"Velocity":50,"Duration":335220,"SoundDuration":335220,"Delta":134167692},{"NoteNumber":57,"Velocity":32,"Duration":437777,"SoundDuration":437777,"Delta":134167692},{"NoteNumber":73,"Velocity":33,"Duration":102557,"SoundDuration":102557,"Delta":134502912},{"NoteNumber":76,"Velocity":42,"Duration":102557,"SoundDuration":102557,"Delta":134502912},{"NoteNumber":71,"Velocity":40,"Duration":429246,"SoundDuration":429246,"Delta":134605469},{"NoteNumber":74,"Velocity":51,"Duration":429246,"SoundDuration":429246,"Delta":134605469},{"NoteNumber":65,"Velocity":36,"Duration":429246,"SoundDuration":429246,"Delta":134605469},{"NoteNumber":62,"Velocity":30,"Duration":429246,"SoundDuration":429246,"Delta":134605469},{"NoteNumber":69,"Velocity":38,"Duration":443984,"SoundDuration":443984,"Delta":135034715},{"NoteNumber":73,"Velocity":48,"Duration":443984,"SoundDuration":443984,"Delta":135034715},{"NoteNumber":38,"Velocity":32,"Duration":443984,"SoundDuration":443984,"Delta":135034715},{"NoteNumber":68,"Velocity":36,"Duration":453240,"SoundDuration":453240,"Delta":135478699},{"NoteNumber":71,"Velocity":46,"Duration":453240,"SoundDuration":453240,"Delta":135478699},{"NoteNumber":57,"Velocity":30,"Duration":453240,"SoundDuration":453240,"Delta":135478699},{"NoteNumber":73,"Velocity":41,"Duration":1573427,"SoundDuration":1573427,"Delta":135931940},{"NoteNumber":76,"Velocity":47,"Duration":1573427,"SoundDuration":1573427,"Delta":135931940},{"NoteNumber":64,"Velocity":36,"Duration":453240,"SoundDuration":453240,"Delta":135931940},{"NoteNumber":61,"Velocity":25,"Duration":453240,"SoundDuration":453240,"Delta":135931940},{"NoteNumber":45,"Velocity":32,"Duration":453240,"SoundDuration":453240,"Delta":136385180},{"NoteNumber":52,"Velocity":32,"Duration":453240,"SoundDuration":453240,"Delta":136838421},{"NoteNumber":57,"Velocity":28,"Duration":427411,"SoundDuration":427411,"Delta":137291661},{"NoteNumber":61,"Velocity":34,"Duration":427411,"SoundDuration":427411,"Delta":137291661},{"NoteNumber":64,"Velocity":47,"Duration":213705,"SoundDuration":213705,"Delta":137505367},{"NoteNumber":69,"Velocity":51,"Duration":213705,"SoundDuration":213705,"Delta":137719073},{"NoteNumber":45,"Velocity":29,"Duration":427411,"SoundDuration":427411,"Delta":137719073},{"NoteNumber":71,"Velocity":43,"Duration":213705,"SoundDuration":213705,"Delta":137932778},{"NoteNumber":69,"Velocity":50,"Duration":213705,"SoundDuration":213705,"Delta":138146484},{"NoteNumber":52,"Velocity":29,"Duration":427411,"SoundDuration":427411,"Delta":138146484},{"NoteNumber":71,"Velocity":43,"Duration":213705,"SoundDuration":213705,"Delta":138360190},{"NoteNumber":73,"Velocity":48,"Duration":208418,"SoundDuration":208418,"Delta":138573896},{"NoteNumber":61,"Velocity":34,"Duration":417058,"SoundDuration":417058,"Delta":138573896},{"NoteNumber":57,"Velocity":28,"Duration":417058,"SoundDuration":417058,"Delta":138573896},{"NoteNumber":76,"Velocity":43,"Duration":208639,"SoundDuration":208639,"Delta":138782315},{"NoteNumber":73,"Velocity":48,"Duration":207470,"SoundDuration":207470,"Delta":138990955},{"NoteNumber":45,"Velocity":29,"Duration":413615,"SoundDuration":413615,"Delta":138990955},{"NoteNumber":76,"Velocity":42,"Duration":206144,"SoundDuration":206144,"Delta":139198425},{"NoteNumber":73,"Velocity":47,"Duration":205479,"SoundDuration":205479,"Delta":139404570},{"NoteNumber":52,"Velocity":29,"Duration":410958,"SoundDuration":410958,"Delta":139404570},{"NoteNumber":74,"Velocity":41,"Duration":205479,"SoundDuration":205479,"Delta":139610050},{"NoteNumber":76,"Velocity":46,"Duration":205479,"SoundDuration":205479,"Delta":139815529},{"NoteNumber":61,"Velocity":28,"Duration":410726,"SoundDuration":410726,"Delta":139815529},{"NoteNumber":57,"Velocity":23,"Duration":410726,"SoundDuration":410726,"Delta":139815529},{"NoteNumber":81,"Velocity":41,"Duration":205246,"SoundDuration":205246,"Delta":140021009},{"NoteNumber":76,"Velocity":45,"Duration":204081,"SoundDuration":204081,"Delta":140226255},{"NoteNumber":45,"Velocity":28,"Duration":408163,"SoundDuration":408163,"Delta":140226255},{"NoteNumber":80,"Velocity":39,"Duration":204081,"SoundDuration":204081,"Delta":140430337},{"NoteNumber":76,"Velocity":45,"Duration":204081,"SoundDuration":204081,"Delta":140634419},{"NoteNumber":52,"Velocity":28,"Duration":408163,"SoundDuration":408163,"Delta":140634419},{"NoteNumber":80,"Velocity":39,"Duration":204081,"SoundDuration":204081,"Delta":140838501},{"NoteNumber":81,"Velocity":44,"Duration":204081,"SoundDuration":204081,"Delta":141042582},{"NoteNumber":61,"Velocity":32,"Duration":408163,"SoundDuration":408163,"Delta":141042582},{"NoteNumber":57,"Velocity":27,"Duration":408163,"SoundDuration":408163,"Delta":141042582},{"NoteNumber":85,"Velocity":38,"Duration":204081,"SoundDuration":204081,"Delta":141246664},{"NoteNumber":81,"Velocity":43,"Duration":204081,"SoundDuration":204081,"Delta":141450746},{"NoteNumber":45,"Velocity":28,"Duration":408163,"SoundDuration":408163,"Delta":141450746},{"NoteNumber":83,"Velocity":38,"Duration":204081,"SoundDuration":204081,"Delta":141654828},{"NoteNumber":81,"Velocity":42,"Duration":204081,"SoundDuration":204081,"Delta":141858909},{"NoteNumber":52,"Velocity":28,"Duration":408163,"SoundDuration":408163,"Delta":141858909},{"NoteNumber":83,"Velocity":38,"Duration":204081,"SoundDuration":204081,"Delta":142062991},{"NoteNumber":85,"Velocity":39,"Duration":204314,"SoundDuration":204314,"Delta":142267073},{"NoteNumber":61,"Velocity":32,"Duration":409794,"SoundDuration":409794,"Delta":142267073},{"NoteNumber":57,"Velocity":27,"Duration":409794,"SoundDuration":409794,"Delta":142267073},{"NoteNumber":88,"Velocity":38,"Duration":205479,"SoundDuration":205479,"Delta":142471388},{"NoteNumber":93,"Velocity":38,"Duration":206188,"SoundDuration":206188,"Delta":142676867},{"NoteNumber":97,"Velocity":38,"Duration":206896,"SoundDuration":206896,"Delta":142883055},{"NoteNumber":100,"Velocity":38,"Duration":208093,"SoundDuration":208093,"Delta":143089952},{"NoteNumber":97,"Velocity":38,"Duration":208576,"SoundDuration":208576,"Delta":143298045},{"NoteNumber":93,"Velocity":43,"Duration":196078,"SoundDuration":196078,"Delta":143506621},{"NoteNumber":69,"Velocity":65,"Duration":392156,"SoundDuration":392156,"Delta":143506621},{"NoteNumber":88,"Velocity":38,"Duration":196078,"SoundDuration":196078,"Delta":143702700},{"NoteNumber":85,"Velocity":39,"Duration":204081,"SoundDuration":204081,"Delta":143898778},{"NoteNumber":64,"Velocity":60,"Duration":1634983,"SoundDuration":1634983,"Delta":143898778},{"NoteNumber":81,"Velocity":39,"Duration":204081,"SoundDuration":204081,"Delta":144102860},{"NoteNumber":76,"Velocity":39,"Duration":204081,"SoundDuration":204081,"Delta":144306942},{"NoteNumber":81,"Velocity":39,"Duration":204081,"SoundDuration":204081,"Delta":144511024},{"NoteNumber":85,"Velocity":43,"Duration":204081,"SoundDuration":204081,"Delta":144715105},{"NoteNumber":88,"Velocity":43,"Duration":204081,"SoundDuration":204081,"Delta":144919187},{"NoteNumber":85,"Velocity":38,"Duration":205013,"SoundDuration":205013,"Delta":145123269},{"NoteNumber":81,"Velocity":38,"Duration":205479,"SoundDuration":205479,"Delta":145328282},{"NoteNumber":76,"Velocity":38,"Duration":206896,"SoundDuration":206896,"Delta":145533762},{"NoteNumber":73,"Velocity":38,"Duration":207375,"SoundDuration":207375,"Delta":145740658},{"NoteNumber":69,"Velocity":43,"Duration":215827,"SoundDuration":215827,"Delta":145948034},{"NoteNumber":57,"Velocity":50,"Duration":431654,"SoundDuration":431654,"Delta":145948034},{"NoteNumber":64,"Velocity":36,"Duration":215827,"SoundDuration":215827,"Delta":146163861},{"NoteNumber":69,"Velocity":36,"Duration":208333,"SoundDuration":208333,"Delta":146379688},{"NoteNumber":52,"Velocity":43,"Duration":1684421,"SoundDuration":1684421,"Delta":146379688},{"NoteNumber":73,"Velocity":36,"Duration":208333,"SoundDuration":208333,"Delta":146588022},{"NoteNumber":76,"Velocity":35,"Duration":208333,"SoundDuration":208333,"Delta":146796355},{"NoteNumber":73,"Velocity":34,"Duration":208093,"SoundDuration":208093,"Delta":147004688},{"NoteNumber":69,"Velocity":38,"Duration":208097,"SoundDuration":208097,"Delta":147212782},{"NoteNumber":64,"Velocity":32,"Duration":211024,"SoundDuration":211024,"Delta":147420879},{"NoteNumber":61,"Velocity":32,"Duration":214546,"SoundDuration":214546,"Delta":147631904},{"NoteNumber":57,"Velocity":31,"Duration":217659,"SoundDuration":217659,"Delta":147846450},{"NoteNumber":52,"Velocity":31,"Duration":221405,"SoundDuration":221405,"Delta":148064110},{"NoteNumber":49,"Velocity":30,"Duration":225007,"SoundDuration":225007,"Delta":148285515},{"NoteNumber":33,"Velocity":20,"Duration":439625,"SoundDuration":439625,"Delta":148510522},{"NoteNumber":45,"Velocity":24,"Duration":439625,"SoundDuration":439625,"Delta":148510522},{"NoteNumber":61,"Velocity":26,"Duration":439625,"SoundDuration":439625,"Delta":149829397},{"NoteNumber":64,"Velocity":26,"Duration":439625,"SoundDuration":439625,"Delta":149829397},{"NoteNumber":73,"Velocity":31,"Duration":439625,"SoundDuration":439625,"Delta":149829397},{"NoteNumber":33,"Velocity":20,"Duration":439625,"SoundDuration":439625,"Delta":149829397},{"NoteNumber":45,"Velocity":24,"Duration":439625,"SoundDuration":439625,"Delta":149829397},{"NoteNumber":61,"Velocity":26,"Duration":615510,"SoundDuration":615510,"Delta":151148272},{"NoteNumber":64,"Velocity":26,"Duration":615510,"SoundDuration":615510,"Delta":151148272},{"NoteNumber":69,"Velocity":31,"Duration":615510,"SoundDuration":615510,"Delta":151148272},{"NoteNumber":33,"Velocity":20,"Duration":615510,"SoundDuration":615510,"Delta":151148272},{"NoteNumber":45,"Velocity":24,"Duration":615510,"SoundDuration":615510,"Delta":151148272}],"license":{"name":"Creative Commons Attribution-ShareAlike 3.0 Germany","url":"http://creativecommons.org/licenses/by-sa/3.0/de/deed.en","text":"The MIDI, audio (MP3, OGG) and video files of Bernd Krueger are licensed under the cc-by-sa Germany License. This means that you can use and adapt the files, as long as you attribute the copyright holder.\n\nName: Bernd Krueger\nSource: http://www.piano-midi.de\n\nThe distribution or public playback of the files is only allowed under identical license conditions.\n\nThe scores are open source.","attribution":"MIDI files by Bernd Krueger (piano-midi.de)","attributionUrl":"http://www.piano-midi.de"}}