{"title":"Christfreuden - Weihnachtsfantasie","artist":"Christmas","durationMs":224111,"midiSha256":"51af00441887b3809e59aad29170704b8bf2193bff9f735168d4c40c355ef09c","midiObject":[{"NoteNumber":67,"Velocity":63,"Duration":256696,"SoundDuration":256696,"Delta":0},{"NoteNumber":67,"Velocity":58,"Duration":459183,"SoundDuration":459183,"Delta":267857},{"NoteNumber":72,"Velocity":69,"Duration":459183,"SoundDuration":459183,"Delta":267857},{"NoteNumber":64,"Velocity":58,"Duration":459183,"SoundDuration":459183,"Delta":267857},{"NoteNumber":60,"Velocity":49,"Duration":459183,"SoundDuration":459183,"Delta":267857},{"NoteNumber":67,"Velocity":52,"Duration":153061,"SoundDuration":153061,"Delta":727041},{"NoteNumber":72,"Velocity":62,"Duration":153061,"SoundDuration":153061,"Delta":727041},{"NoteNumber":60,"Velocity":44,"Duration":153061,"SoundDuration":153061,"Delta":727041},{"NoteNumber":64,"Velocity":52,"Duration":153061,"SoundDuration":153061,"Delta":727041},{"NoteNumber":67,"Velocity":58,"Duration":612245,"SoundDuration":612245,"Delta":880102},{"NoteNumber":72,"Velocity":69,"Duration":612245,"SoundDuration":612245,"Delta":880102},{"NoteNumber":64,"Velocity":58,"Duration":612245,"SoundDuration":612245,"Delta":880102},{"NoteNumber":60,"Velocity":49,"Duration":612245,"SoundDuration":612245,"Delta":880102},{"NoteNumber":67,"Velocity":63,"Duration":256696,"SoundDuration":256696,"Delta":1833256},{"NoteNumber":67,"Velocity":58,"Duration":459183,"SoundDuration":459183,"Delta":2101114},{"NoteNumber":74,"Velocity":69,"Duration":459183,"SoundDuration":459183,"Delta":2101114},{"NoteNumber":65,"Velocity":58,"Duration":459183,"SoundDuration":459183,"Delta":2101114},{"NoteNumber":59,"Velocity":49,"Duration":459183,"SoundDuration":459183,"Delta":2101114},{"NoteNumber":67,"Velocity":52,"Duration":153061,"SoundDuration":153061,"Delta":2560297},{"NoteNumber":74,"Velocity":62,"Duration":153061,"SoundDuration":153061,"Delta":2560297},{"NoteNumber":59,"Velocity":44,"Duration":153061,"SoundDuration":153061,"Delta":2560297},{"NoteNumber":65,"Velocity":52,"Duration":153061,"SoundDuration":153061,"Delta":2560297},{"NoteNumber":67,"Velocity":58,"Duration":612244,"SoundDuration":612244,"Delta":2713358},{"NoteNumber":74,"Velocity":69,"Duration":612244,"SoundDuration":612244,"Delta":2713358},{"NoteNumber":65,"Velocity":58,"Duration":612244,"SoundDuration":612244,"Delta":2713358},{"NoteNumber":59,"Velocity":49,"Duration":612244,"SoundDuration":612244,"Delta":2713358},{"NoteNumber":67,"Velocity":63,"Duration":268691,"SoundDuration":268691,"Delta":3674440},{"NoteNumber":67,"Velocity":58,"Duration":291261,"SoundDuration":291261,"Delta":3954814},{"NoteNumber":76,"Velocity":69,"Duration":291261,"SoundDuration":291261,"Delta":3954814},{"NoteNumber":64,"Velocity":60,"Duration":291261,"SoundDuration":291261,"Delta":3954814},{"NoteNumber":60,"Velocity":51,"Duration":291261,"SoundDuration":291261,"Delta":3954814},{"NoteNumber":67,"Velocity":53,"Duration":291262,"SoundDuration":291262,"Delta":4246076},{"NoteNumber":74,"Velocity":63,"Duration":291262,"SoundDuration":291262,"Delta":4246076},{"NoteNumber":62,"Velocity":55,"Duration":291262,"SoundDuration":291262,"Delta":4246076},{"NoteNumber":59,"Velocity":46,"Duration":291262,"SoundDuration":291262,"Delta":4246076},{"NoteNumber":67,"Velocity":56,"Duration":303030,"SoundDuration":303030,"Delta":4537338},{"NoteNumber":76,"Velocity":66,"Duration":303030,"SoundDuration":303030,"Delta":4537338},{"NoteNumber":60,"Velocity":50,"Duration":303030,"SoundDuration":303030,"Delta":4537338},{"NoteNumber":64,"Velocity":59,"Duration":303030,"SoundDuration":303030,"Delta":4537338},{"NoteNumber":67,"Velocity":53,"Duration":303030,"SoundDuration":303030,"Delta":4840369},{"NoteNumber":77,"Velocity":63,"Duration":303030,"SoundDuration":303030,"Delta":4840369},{"NoteNumber":65,"Velocity":52,"Duration":303030,"SoundDuration":303030,"Delta":4840369},{"NoteNumber":62,"Velocity":44,"Duration":303030,"SoundDuration":303030,"Delta":4840369},{"NoteNumber":67,"Velocity":56,"Duration":288461,"SoundDuration":288461,"Delta":5143399},{"NoteNumber":76,"Velocity":66,"Duration":288461,"SoundDuration":288461,"Delta":5143399},{"NoteNumber":64,"Velocity":52,"Duration":288461,"SoundDuration":288461,"Delta":5143399},{"NoteNumber":60,"Velocity":44,"Duration":288461,"SoundDuration":288461,"Delta":5143399},{"NoteNumber":67,"Velocity":53,"Duration":319149,"SoundDuration":319149,"Delta":5431861},{"NoteNumber":74,"Velocity":63,"Duration":319149,"SoundDuration":319149,"Delta":5431861},{"NoteNumber":62,"Velocity":52,"Duration":319149,"SoundDuration":319149,"Delta":5431861},{"NoteNumber":59,"Velocity":44,"Duration":319149,"SoundDuration":319149,"Delta":5431861},{"NoteNumber":67,"Velocity":57,"Duration":1165047,"SoundDuration":1165047,"Delta":5751010},{"NoteNumber":76,"Velocity":67,"Duration":1165047,"SoundDuration":1165047,"Delta":5751010},{"NoteNumber":64,"Velocity":57,"Duration":1165047,"SoundDuration":1165047,"Delta":5751010},{"NoteNumber":60,"Velocity":48,"Duration":1165047,"SoundDuration":1165047,"Delta":5751010},{"NoteNumber":67,"Velocity":42,"Duration":288461,"SoundDuration":288461,"Delta":7561219},{"NoteNumber":75,"Velocity":51,"Duration":288461,"SoundDuration":288461,"Delta":7561219},{"NoteNumber":63,"Velocity":44,"Duration":288461,"SoundDuration":288461,"Delta":7561219},{"NoteNumber":60,"Velocity":37,"Duration":288461,"SoundDuration":288461,"Delta":7561219},{"NoteNumber":67,"Velocity":39,"Duration":288461,"SoundDuration":288461,"Delta":7849681},{"NoteNumber":74,"Velocity":48,"Duration":288461,"SoundDuration":288461,"Delta":7849681},{"NoteNumber":62,"Velocity":40,"Duration":288461,"SoundDuration":288461,"Delta":7849681},{"NoteNumber":59,"Velocity":34,"Duration":288461,"SoundDuration":288461,"Delta":7849681},{"NoteNumber":67,"Velocity":40,"Duration":297029,"SoundDuration":297029,"Delta":8138142},{"NoteNumber":75,"Velocity":49,"Duration":297029,"SoundDuration":297029,"Delta":8138142},{"NoteNumber":60,"Velocity":37,"Duration":297029,"SoundDuration":297029,"Delta":8138142},{"NoteNumber":63,"Velocity":44,"Duration":297029,"SoundDuration":297029,"Delta":8138142},{"NoteNumber":67,"Velocity":39,"Duration":297029,"SoundDuration":297029,"Delta":8435172},{"NoteNumber":77,"Velocity":48,"Duration":297029,"SoundDuration":297029,"Delta":8435172},{"NoteNumber":65,"Velocity":38,"Duration":297029,"SoundDuration":297029,"Delta":8435172},{"NoteNumber":62,"Velocity":31,"Duration":297029,"SoundDuration":297029,"Delta":8435172},{"NoteNumber":67,"Velocity":40,"Duration":306122,"SoundDuration":306122,"Delta":8732201},{"NoteNumber":75,"Velocity":49,"Duration":306122,"SoundDuration":306122,"Delta":8732201},{"NoteNumber":63,"Velocity":38,"Duration":306122,"SoundDuration":306122,"Delta":8732201},{"NoteNumber":60,"Velocity":31,"Duration":306122,"SoundDuration":306122,"Delta":8732201},{"NoteNumber":67,"Velocity":39,"Duration":319148,"SoundDuration":319148,"Delta":9038324},{"NoteNumber":74,"Velocity":48,"Duration":319148,"SoundDuration":319148,"Delta":9038324},{"NoteNumber":62,"Velocity":38,"Duration":319148,"SoundDuration":319148,"Delta":9038324},{"NoteNumber":59,"Velocity":31,"Duration":319148,"SoundDuration":319148,"Delta":9038324},{"NoteNumber":67,"Velocity":41,"Duration":594058,"SoundDuration":594058,"Delta":9357473},{"NoteNumber":75,"Velocity":50,"Duration":594058,"SoundDuration":594058,"Delta":9357473},{"NoteNumber":63,"Velocity":41,"Duration":594058,"SoundDuration":594058,"Delta":9357473},{"NoteNumber":60,"Velocity":35,"Duration":594058,"SoundDuration":594058,"Delta":9357473},{"NoteNumber":66,"Velocity":53,"Duration":588235,"SoundDuration":588235,"Delta":10545591},{"NoteNumber":74,"Velocity":63,"Duration":588235,"SoundDuration":588235,"Delta":10545591},{"NoteNumber":50,"Velocity":35,"Duration":588235,"SoundDuration":588235,"Delta":10545591},{"NoteNumber":57,"Velocity":35,"Duration":588235,"SoundDuration":588235,"Delta":10545591},{"NoteNumber":60,"Velocity":41,"Duration":588235,"SoundDuration":588235,"Delta":10545591},{"NoteNumber":67,"Velocity":57,"Duration":322580,"SoundDuration":322580,"Delta":11133826},{"NoteNumber":71,"Velocity":67,"Duration":322580,"SoundDuration":322580,"Delta":11133826},{"NoteNumber":38,"Velocity":48,"Duration":645161,"SoundDuration":645161,"Delta":11133826},{"NoteNumber":67,"Velocity":63,"Duration":322580,"SoundDuration":322580,"Delta":11456406},{"NoteNumber":67,"Velocity":58,"Duration":1280913,"SoundDuration":1280913,"Delta":11778987},{"NoteNumber":71,"Velocity":58,"Duration":1280913,"SoundDuration":1280913,"Delta":11778987},{"NoteNumber":76,"Velocity":70,"Duration":968413,"SoundDuration":968413,"Delta":11778987},{"NoteNumber":50,"Velocity":42,"Duration":161290,"SoundDuration":161290,"Delta":11940277},{"NoteNumber":55,"Velocity":47,"Duration":156250,"SoundDuration":156250,"Delta":12101567},{"NoteNumber":59,"Velocity":49,"Duration":156250,"SoundDuration":156250,"Delta":12257817},{"NoteNumber":62,"Velocity":51,"Duration":645833,"SoundDuration":645833,"Delta":12414067},{"NoteNumber":74,"Velocity":59,"Duration":312500,"SoundDuration":312500,"Delta":12747401},{"NoteNumber":62,"Velocity":53,"Duration":663489,"SoundDuration":663489,"Delta":13059901},{"NoteNumber":66,"Velocity":63,"Duration":663489,"SoundDuration":663489,"Delta":13059901},{"NoteNumber":72,"Velocity":63,"Duration":493035,"SoundDuration":493035,"Delta":13059901},{"NoteNumber":50,"Velocity":41,"Duration":663489,"SoundDuration":663489,"Delta":13059901},{"NoteNumber":57,"Velocity":50,"Duration":663489,"SoundDuration":663489,"Delta":13059901},{"NoteNumber":71,"Velocity":59,"Duration":170454,"SoundDuration":170454,"Delta":13552936},{"NoteNumber":62,"Velocity":53,"Duration":723836,"SoundDuration":723836,"Delta":13723390},{"NoteNumber":66,"Velocity":63,"Duration":723836,"SoundDuration":723836,"Delta":13723390},{"NoteNumber":69,"Velocity":63,"Duration":723836,"SoundDuration":723836,"Delta":13723390},{"NoteNumber":60,"Velocity":48,"Duration":536336,"SoundDuration":536336,"Delta":13723390},{"NoteNumber":59,"Velocity":44,"Duration":187500,"SoundDuration":187500,"Delta":14259727},{"NoteNumber":57,"Velocity":44,"Duration":375000,"SoundDuration":375000,"Delta":14447227},{"NoteNumber":62,"Velocity":51,"Duration":333333,"SoundDuration":333333,"Delta":14822227},{"NoteNumber":59,"Velocity":48,"Duration":449999,"SoundDuration":449999,"Delta":15155561},{"NoteNumber":67,"Velocity":57,"Duration":449999,"SoundDuration":449999,"Delta":15155561},{"NoteNumber":43,"Velocity":38,"Duration":591509,"SoundDuration":591509,"Delta":15155561},{"NoteNumber":50,"Velocity":38,"Duration":591509,"SoundDuration":591509,"Delta":15155561},{"NoteNumber":55,"Velocity":46,"Duration":591509,"SoundDuration":591509,"Delta":15155561},{"NoteNumber":67,"Velocity":51,"Duration":141509,"SoundDuration":141509,"Delta":15605561},{"NoteNumber":67,"Velocity":55,"Duration":303030,"SoundDuration":303030,"Delta":15747070},{"NoteNumber":59,"Velocity":48,"Duration":303030,"SoundDuration":303030,"Delta":15747070},{"NoteNumber":69,"Velocity":57,"Duration":303030,"SoundDuration":303030,"Delta":16050101},{"NoteNumber":62,"Velocity":41,"Duration":303030,"SoundDuration":303030,"Delta":16050101},{"NoteNumber":67,"Velocity":50,"Duration":629117,"SoundDuration":629117,"Delta":16353131},{"NoteNumber":71,"Velocity":59,"Duration":303030,"SoundDuration":303030,"Delta":16353131},{"NoteNumber":55,"Velocity":46,"Duration":303030,"SoundDuration":303030,"Delta":16353131},{"NoteNumber":76,"Velocity":66,"Duration":326087,"SoundDuration":326087,"Delta":16656162},{"NoteNumber":61,"Velocity":51,"Duration":326087,"SoundDuration":326087,"Delta":16656162},{"NoteNumber":72,"Velocity":53,"Duration":597402,"SoundDuration":597402,"Delta":16982249},{"NoteNumber":74,"Velocity":63,"Duration":454545,"SoundDuration":454545,"Delta":16982249},{"NoteNumber":66,"Velocity":52,"Duration":597402,"SoundDuration":597402,"Delta":16982249},{"NoteNumber":62,"Velocity":44,"Duration":597402,"SoundDuration":597402,"Delta":16982249},{"NoteNumber":76,"Velocity":57,"Duration":142857,"SoundDuration":142857,"Delta":17436794},{"NoteNumber":72,"Velocity":51,"Duration":614381,"SoundDuration":614381,"Delta":17579652},{"NoteNumber":78,"Velocity":61,"Duration":614381,"SoundDuration":614381,"Delta":17579652},{"NoteNumber":62,"Velocity":42,"Duration":920503,"SoundDuration":920503,"Delta":17579652},{"NoteNumber":66,"Velocity":51,"Duration":468750,"SoundDuration":468750,"Delta":17579652},{"NoteNumber":67,"Velocity":46,"Duration":145631,"SoundDuration":145631,"Delta":18048402},{"NoteNumber":69,"Velocity":53,"Duration":306122,"SoundDuration":306122,"Delta":18194033},{"NoteNumber":74,"Velocity":66,"Duration":340908,"SoundDuration":340908,"Delta":18500155},{"NoteNumber":79,"Velocity":64,"Duration":463917,"SoundDuration":463917,"Delta":18841064},{"NoteNumber":86,"Velocity":78,"Duration":463917,"SoundDuration":463917,"Delta":18841064},{"NoteNumber":67,"Velocity":44,"Duration":606774,"SoundDuration":606774,"Delta":18841064},{"NoteNumber":71,"Velocity":52,"Duration":606774,"SoundDuration":606774,"Delta":18841064},{"NoteNumber":83,"Velocity":66,"Duration":142857,"SoundDuration":142857,"Delta":19304982},{"NoteNumber":79,"Velocity":70,"Duration":625000,"SoundDuration":625000,"Delta":19447839},{"NoteNumber":67,"Velocity":49,"Duration":468750,"SoundDuration":468750,"Delta":19447839},{"NoteNumber":71,"Velocity":49,"Duration":468750,"SoundDuration":468750,"Delta":19447839},{"NoteNumber":74,"Velocity":58,"Duration":468750,"SoundDuration":468750,"Delta":19447839},{"NoteNumber":71,"Velocity":46,"Duration":156250,"SoundDuration":156250,"Delta":19916589},{"NoteNumber":67,"Velocity":56,"Duration":312500,"SoundDuration":312500,"Delta":20072839},{"NoteNumber":74,"Velocity":59,"Duration":340908,"SoundDuration":340908,"Delta":20385339},{"NoteNumber":70,"Velocity":58,"Duration":463917,"SoundDuration":463917,"Delta":20726248},{"NoteNumber":79,"Velocity":70,"Duration":463917,"SoundDuration":463917,"Delta":20726248},{"NoteNumber":63,"Velocity":38,"Duration":606774,"SoundDuration":606774,"Delta":20726248},{"NoteNumber":67,"Velocity":47,"Duration":606774,"SoundDuration":606774,"Delta":20726248},{"NoteNumber":75,"Velocity":59,"Duration":142857,"SoundDuration":142857,"Delta":21190166},{"NoteNumber":70,"Velocity":61,"Duration":625000,"SoundDuration":625000,"Delta":21333023},{"NoteNumber":63,"Velocity":42,"Duration":468750,"SoundDuration":468750,"Delta":21333023},{"NoteNumber":67,"Velocity":51,"Duration":468750,"SoundDuration":468750,"Delta":21333023},{"NoteNumber":63,"Velocity":40,"Duration":156250,"SoundDuration":156250,"Delta":21801773},{"NoteNumber":58,"Velocity":50,"Duration":312500,"SoundDuration":312500,"Delta":21958023},{"NoteNumber":72,"Velocity":46,"Duration":333333,"SoundDuration":333333,"Delta":22270523},{"NoteNumber":67,"Velocity":42,"Duration":449999,"SoundDuration":449999,"Delta":22603857},{"NoteNumber":74,"Velocity":51,"Duration":449999,"SoundDuration":449999,"Delta":22603857},{"NoteNumber":50,"Velocity":34,"Duration":591509,"SoundDuration":591509,"Delta":22603857},{"NoteNumber":55,"Velocity":34,"Duration":591509,"SoundDuration":591509,"Delta":22603857},{"NoteNumber":59,"Velocity":40,"Duration":591509,"SoundDuration":591509,"Delta":22603857},{"NoteNumber":74,"Velocity":46,"Duration":141509,"SoundDuration":141509,"Delta":23053856},{"NoteNumber":74,"Velocity":49,"Duration":303030,"SoundDuration":303030,"Delta":23195366},{"NoteNumber":71,"Velocity":42,"Duration":319148,"SoundDuration":319148,"Delta":23498396},{"NoteNumber":74,"Velocity":51,"Duration":319148,"SoundDuration":319148,"Delta":23498396},{"NoteNumber":62,"Velocity":31,"Duration":319148,"SoundDuration":319148,"Delta":23498396},{"NoteNumber":67,"Velocity":37,"Duration":319148,"SoundDuration":319148,"Delta":23498396},{"NoteNumber":72,"Velocity":44,"Duration":329670,"SoundDuration":329670,"Delta":23817545},{"NoteNumber":76,"Velocity":52,"Duration":329670,"SoundDuration":329670,"Delta":23817545},{"NoteNumber":62,"Velocity":34,"Duration":329670,"SoundDuration":329670,"Delta":23817545},{"NoteNumber":67,"Velocity":40,"Duration":329670,"SoundDuration":329670,"Delta":23817545},{"NoteNumber":72,"Velocity":42,"Duration":365853,"SoundDuration":365853,"Delta":24147216},{"NoteNumber":83,"Velocity":55,"Duration":365853,"SoundDuration":365853,"Delta":24147216},{"NoteNumber":62,"Velocity":38,"Duration":365853,"SoundDuration":365853,"Delta":24147216},{"NoteNumber":64,"Velocity":46,"Duration":365853,"SoundDuration":365853,"Delta":24147216},{"NoteNumber":72,"Velocity":44,"Duration":674157,"SoundDuration":674157,"Delta":24513069},{"NoteNumber":81,"Velocity":53,"Duration":674157,"SoundDuration":674157,"Delta":24513069},{"NoteNumber":66,"Velocity":46,"Duration":674157,"SoundDuration":674157,"Delta":24513069},{"NoteNumber":62,"Velocity":38,"Duration":674157,"SoundDuration":674157,"Delta":24513069},{"NoteNumber":71,"Velocity":37,"Duration":365853,"SoundDuration":365853,"Delta":25187226},{"NoteNumber":79,"Velocity":44,"Duration":365853,"SoundDuration":365853,"Delta":25187226},{"NoteNumber":67,"Velocity":37,"Duration":365853,"SoundDuration":365853,"Delta":25187226},{"NoteNumber":59,"Velocity":31,"Duration":337078,"SoundDuration":337078,"Delta":25553080},{"NoteNumber":62,"Velocity":38,"Duration":337078,"SoundDuration":337078,"Delta":25553080},{"NoteNumber":55,"Velocity":30,"Duration":337078,"SoundDuration":337078,"Delta":25553080},{"NoteNumber":60,"Velocity":36,"Duration":361446,"SoundDuration":361446,"Delta":25890158},{"NoteNumber":64,"Velocity":42,"Duration":361446,"SoundDuration":361446,"Delta":25890158},{"NoteNumber":48,"Velocity":29,"Duration":361446,"SoundDuration":361446,"Delta":25890158},{"NoteNumber":55,"Velocity":35,"Duration":361446,"SoundDuration":361446,"Delta":25890158},{"NoteNumber":64,"Velocity":39,"Duration":416666,"SoundDuration":416666,"Delta":26251605},{"NoteNumber":72,"Velocity":48,"Duration":416666,"SoundDuration":416666,"Delta":26251605},{"NoteNumber":45,"Velocity":31,"Duration":416666,"SoundDuration":416666,"Delta":26251605},{"NoteNumber":55,"Velocity":38,"Duration":416666,"SoundDuration":416666,"Delta":26251605},{"NoteNumber":60,"Velocity":42,"Duration":2248844,"SoundDuration":2248844,"Delta":26668271},{"NoteNumber":69,"Velocity":51,"Duration":2248844,"SoundDuration":2248844,"Delta":26668271},{"NoteNumber":55,"Velocity":42,"Duration":740740,"SoundDuration":740740,"Delta":26668271},{"NoteNumber":50,"Velocity":36,"Duration":2248844,"SoundDuration":2248844,"Delta":26668271},{"NoteNumber":54,"Velocity":34,"Duration":370370,"SoundDuration":370370,"Delta":27409012},{"NoteNumber":52,"Velocity":30,"Duration":370370,"SoundDuration":370370,"Delta":27779383},{"NoteNumber":54,"Velocity":36,"Duration":767362,"SoundDuration":767362,"Delta":28149753},{"NoteNumber":59,"Velocity":36,"Duration":309278,"SoundDuration":309278,"Delta":28917116},{"NoteNumber":67,"Velocity":42,"Duration":296391,"SoundDuration":296391,"Delta":28917116},{"NoteNumber":43,"Velocity":34,"Duration":606308,"SoundDuration":606308,"Delta":28917116},{"NoteNumber":55,"Velocity":40,"Duration":606308,"SoundDuration":606308,"Delta":28917116},{"NoteNumber":67,"Velocity":35,"Duration":297029,"SoundDuration":297029,"Delta":29226394},{"NoteNumber":79,"Velocity":46,"Duration":306122,"SoundDuration":306122,"Delta":29523424},{"NoteNumber":67,"Velocity":37,"Duration":280373,"SoundDuration":280373,"Delta":29829546},{"NoteNumber":79,"Velocity":52,"Duration":291261,"SoundDuration":291261,"Delta":30109920},{"NoteNumber":67,"Velocity":46,"Duration":272727,"SoundDuration":272727,"Delta":30401182},{"NoteNumber":79,"Velocity":56,"Duration":288461,"SoundDuration":288461,"Delta":30673910},{"NoteNumber":67,"Velocity":47,"Duration":277777,"SoundDuration":277777,"Delta":30962371},{"NoteNumber":79,"Velocity":56,"Duration":291262,"SoundDuration":291262,"Delta":31240149},{"NoteNumber":67,"Velocity":46,"Duration":280374,"SoundDuration":280374,"Delta":31531411},{"NoteNumber":79,"Velocity":51,"Duration":299999,"SoundDuration":299999,"Delta":31811785},{"NoteNumber":55,"Velocity":40,"Duration":580373,"SoundDuration":580373,"Delta":31811785},{"NoteNumber":67,"Velocity":42,"Duration":280374,"SoundDuration":280374,"Delta":32111785},{"NoteNumber":79,"Velocity":49,"Duration":277777,"SoundDuration":277777,"Delta":32392159},{"NoteNumber":53,"Velocity":38,"Duration":416666,"SoundDuration":416666,"Delta":32392159},{"NoteNumber":62,"Velocity":47,"Duration":416666,"SoundDuration":416666,"Delta":32392159},{"NoteNumber":67,"Velocity":36,"Duration":280398,"SoundDuration":280398,"Delta":32669937},{"NoteNumber":53,"Velocity":31,"Duration":141509,"SoundDuration":141509,"Delta":32808826},{"NoteNumber":62,"Velocity":38,"Duration":141509,"SoundDuration":141509,"Delta":32808826},{"NoteNumber":79,"Velocity":47,"Duration":283019,"SoundDuration":283019,"Delta":32950336},{"NoteNumber":53,"Velocity":38,"Duration":568733,"SoundDuration":568733,"Delta":32950336},{"NoteNumber":62,"Velocity":46,"Duration":568733,"SoundDuration":568733,"Delta":32950336},{"NoteNumber":67,"Velocity":39,"Duration":285714,"SoundDuration":285714,"Delta":33233355},{"NoteNumber":79,"Velocity":48,"Duration":277777,"SoundDuration":277777,"Delta":33519069},{"NoteNumber":43,"Velocity":60,"Duration":277777,"SoundDuration":277777,"Delta":33519069},{"NoteNumber":67,"Velocity":37,"Duration":299999,"SoundDuration":299999,"Delta":33796847},{"NoteNumber":59,"Velocity":41,"Duration":299999,"SoundDuration":299999,"Delta":33796847},{"NoteNumber":79,"Velocity":49,"Duration":280374,"SoundDuration":280374,"Delta":34096847},{"NoteNumber":52,"Velocity":38,"Duration":445209,"SoundDuration":445209,"Delta":34096847},{"NoteNumber":60,"Velocity":47,"Duration":445209,"SoundDuration":445209,"Delta":34096847},{"NoteNumber":67,"Velocity":38,"Duration":302450,"SoundDuration":302450,"Delta":34377221},{"NoteNumber":52,"Velocity":31,"Duration":137614,"SoundDuration":137614,"Delta":34542056},{"NoteNumber":60,"Velocity":38,"Duration":137614,"SoundDuration":137614,"Delta":34542056},{"NoteNumber":79,"Velocity":49,"Duration":294117,"SoundDuration":294117,"Delta":34679671},{"NoteNumber":52,"Velocity":38,"Duration":577136,"SoundDuration":577136,"Delta":34679671},{"NoteNumber":60,"Velocity":46,"Duration":577136,"SoundDuration":577136,"Delta":34679671},{"NoteNumber":67,"Velocity":40,"Duration":283019,"SoundDuration":283019,"Delta":34973788},{"NoteNumber":79,"Velocity":48,"Duration":288461,"SoundDuration":288461,"Delta":35256808},{"NoteNumber":43,"Velocity":63,"Duration":288461,"SoundDuration":288461,"Delta":35256808},{"NoteNumber":67,"Velocity":37,"Duration":285714,"SoundDuration":285714,"Delta":35545269},{"NoteNumber":57,"Velocity":48,"Duration":285714,"SoundDuration":285714,"Delta":35545269},{"NoteNumber":79,"Velocity":55,"Duration":294117,"SoundDuration":294117,"Delta":35830983},{"NoteNumber":50,"Velocity":38,"Duration":294117,"SoundDuration":294117,"Delta":35830983},{"NoteNumber":59,"Velocity":46,"Duration":294117,"SoundDuration":294117,"Delta":35830983},{"NoteNumber":67,"Velocity":42,"Duration":285714,"SoundDuration":285714,"Delta":36125101},{"NoteNumber":52,"Velocity":38,"Duration":285714,"SoundDuration":285714,"Delta":36125101},{"NoteNumber":60,"Velocity":46,"Duration":285714,"SoundDuration":285714,"Delta":36125101},{"NoteNumber":79,"Velocity":58,"Duration":291262,"SoundDuration":291262,"Delta":36410815},{"NoteNumber":53,"Velocity":44,"Duration":576976,"SoundDuration":576976,"Delta":36410815},{"NoteNumber":62,"Velocity":52,"Duration":576976,"SoundDuration":576976,"Delta":36410815},{"NoteNumber":67,"Velocity":48,"Duration":285714,"SoundDuration":285714,"Delta":36702077},{"NoteNumber":79,"Velocity":58,"Duration":283019,"SoundDuration":283019,"Delta":36987792},{"NoteNumber":52,"Velocity":42,"Duration":283019,"SoundDuration":283019,"Delta":36987792},{"NoteNumber":60,"Velocity":51,"Duration":283019,"SoundDuration":283019,"Delta":36987792},{"NoteNumber":67,"Velocity":51,"Duration":312500,"SoundDuration":312500,"Delta":37270811},{"NoteNumber":53,"Velocity":46,"Duration":312500,"SoundDuration":312500,"Delta":37270811},{"NoteNumber":62,"Velocity":55,"Duration":312500,"SoundDuration":312500,"Delta":37270811},{"NoteNumber":79,"Velocity":62,"Duration":283019,"SoundDuration":283019,"Delta":37583311},{"NoteNumber":55,"Velocity":51,"Duration":566037,"SoundDuration":566037,"Delta":37583311},{"NoteNumber":64,"Velocity":60,"Duration":566037,"SoundDuration":566037,"Delta":37583311},{"NoteNumber":67,"Velocity":50,"Duration":283018,"SoundDuration":283018,"Delta":37866330},{"NoteNumber":79,"Velocity":60,"Duration":291262,"SoundDuration":291262,"Delta":38149349},{"NoteNumber":52,"Velocity":44,"Duration":571636,"SoundDuration":571636,"Delta":38149349},{"NoteNumber":60,"Velocity":52,"Duration":571636,"SoundDuration":571636,"Delta":38149349},{"NoteNumber":67,"Velocity":48,"Duration":280374,"SoundDuration":280374,"Delta":38440611},{"NoteNumber":79,"Velocity":58,"Duration":303030,"SoundDuration":303030,"Delta":38720985},{"NoteNumber":48,"Velocity":50,"Duration":583404,"SoundDuration":583404,"Delta":38720985},{"NoteNumber":67,"Velocity":47,"Duration":280374,"SoundDuration":280374,"Delta":39024015},{"NoteNumber":82,"Velocity":62,"Duration":288461,"SoundDuration":288461,"Delta":39304389},{"NoteNumber":55,"Velocity":52,"Duration":432692,"SoundDuration":432692,"Delta":39304389},{"NoteNumber":63,"Velocity":62,"Duration":432692,"SoundDuration":432692,"Delta":39304389},{"NoteNumber":70,"Velocity":53,"Duration":285740,"SoundDuration":285740,"Delta":39592851},{"NoteNumber":58,"Velocity":49,"Duration":141509,"SoundDuration":141509,"Delta":39737082},{"NoteNumber":65,"Velocity":58,"Duration":141509,"SoundDuration":141509,"Delta":39737082},{"NoteNumber":82,"Velocity":69,"Duration":291262,"SoundDuration":291262,"Delta":39878591},{"NoteNumber":63,"Velocity":55,"Duration":569040,"SoundDuration":569040,"Delta":39878591},{"NoteNumber":67,"Velocity":64,"Duration":569040,"SoundDuration":569040,"Delta":39878591},{"NoteNumber":70,"Velocity":60,"Duration":277777,"SoundDuration":277777,"Delta":40169853},{"NoteNumber":82,"Velocity":69,"Duration":280374,"SoundDuration":280374,"Delta":40447631},{"NoteNumber":51,"Velocity":60,"Duration":549981,"SoundDuration":549981,"Delta":40447631},{"NoteNumber":70,"Velocity":62,"Duration":294117,"SoundDuration":294117,"Delta":40728005},{"NoteNumber":86,"Velocity":62,"Duration":285714,"SoundDuration":285714,"Delta":41022123},{"NoteNumber":59,"Velocity":52,"Duration":428571,"SoundDuration":428571,"Delta":41022123},{"NoteNumber":67,"Velocity":62,"Duration":428571,"SoundDuration":428571,"Delta":41022123},{"NoteNumber":74,"Velocity":53,"Duration":280472,"SoundDuration":280472,"Delta":41307837},{"NoteNumber":62,"Velocity":49,"Duration":137614,"SoundDuration":137614,"Delta":41450695},{"NoteNumber":69,"Velocity":58,"Duration":137614,"SoundDuration":137614,"Delta":41450695},{"NoteNumber":86,"Velocity":69,"Duration":294117,"SoundDuration":294117,"Delta":41588309},{"NoteNumber":67,"Velocity":55,"Duration":574491,"SoundDuration":574491,"Delta":41588309},{"NoteNumber":71,"Velocity":64,"Duration":574491,"SoundDuration":574491,"Delta":41588309},{"NoteNumber":74,"Velocity":60,"Duration":280374,"SoundDuration":280374,"Delta":41882427},{"NoteNumber":83,"Velocity":69,"Duration":291262,"SoundDuration":291262,"Delta":42162801},{"NoteNumber":43,"Velocity":60,"Duration":558252,"SoundDuration":558252,"Delta":42162801},{"NoteNumber":74,"Velocity":62,"Duration":291262,"SoundDuration":291262,"Delta":42454063},{"NoteNumber":82,"Velocity":62,"Duration":294117,"SoundDuration":294117,"Delta":42745325},{"NoteNumber":55,"Velocity":52,"Duration":441176,"SoundDuration":441176,"Delta":42745325},{"NoteNumber":63,"Velocity":62,"Duration":441176,"SoundDuration":441176,"Delta":42745325},{"NoteNumber":70,"Velocity":53,"Duration":288568,"SoundDuration":288568,"Delta":43039442},{"NoteNumber":58,"Velocity":49,"Duration":141509,"SoundDuration":141509,"Delta":43186501},{"NoteNumber":65,"Velocity":58,"Duration":141509,"SoundDuration":141509,"Delta":43186501},{"NoteNumber":82,"Velocity":69,"Duration":275229,"SoundDuration":275229,"Delta":43328011},{"NoteNumber":63,"Velocity":55,"Duration":560943,"SoundDuration":560943,"Delta":43328011},{"NoteNumber":67,"Velocity":64,"Duration":560943,"SoundDuration":560943,"Delta":43328011},{"NoteNumber":70,"Velocity":60,"Duration":285714,"SoundDuration":285714,"Delta":43603240},{"NoteNumber":82,"Velocity":69,"Duration":288461,"SoundDuration":288461,"Delta":43888955},{"NoteNumber":51,"Velocity":60,"Duration":550366,"SoundDuration":550366,"Delta":43888955},{"NoteNumber":70,"Velocity":62,"Duration":285714,"SoundDuration":285714,"Delta":44177416},{"NoteNumber":86,"Velocity":62,"Duration":288461,"SoundDuration":288461,"Delta":44463130},{"NoteNumber":59,"Velocity":52,"Duration":428648,"SoundDuration":428648,"Delta":44463130},{"NoteNumber":67,"Velocity":62,"Duration":428648,"SoundDuration":428648,"Delta":44463130},{"NoteNumber":74,"Velocity":53,"Duration":276550,"SoundDuration":276550,"Delta":44751592},{"NoteNumber":62,"Velocity":49,"Duration":136363,"SoundDuration":136363,"Delta":44891779},{"NoteNumber":69,"Velocity":58,"Duration":136363,"SoundDuration":136363,"Delta":44891779},{"NoteNumber":86,"Velocity":69,"Duration":283019,"SoundDuration":283019,"Delta":45028143},{"NoteNumber":67,"Velocity":55,"Duration":571480,"SoundDuration":571480,"Delta":45028143},{"NoteNumber":71,"Velocity":64,"Duration":571480,"SoundDuration":571480,"Delta":45028143},{"NoteNumber":74,"Velocity":60,"Duration":288461,"SoundDuration":288461,"Delta":45311162},{"NoteNumber":83,"Velocity":69,"Duration":299999,"SoundDuration":299999,"Delta":45599623},{"NoteNumber":43,"Velocity":60,"Duration":586458,"SoundDuration":586458,"Delta":45599623},{"NoteNumber":74,"Velocity":62,"Duration":312500,"SoundDuration":312500,"Delta":45899623},{"NoteNumber":69,"Velocity":55,"Duration":283019,"SoundDuration":283019,"Delta":46212123},{"NoteNumber":55,"Velocity":52,"Duration":430077,"SoundDuration":430077,"Delta":46212123},{"NoteNumber":60,"Velocity":52,"Duration":430077,"SoundDuration":430077,"Delta":46212123},{"NoteNumber":64,"Velocity":62,"Duration":430077,"SoundDuration":430077,"Delta":46212123},{"NoteNumber":76,"Velocity":59,"Duration":294117,"SoundDuration":294117,"Delta":46495142},{"NoteNumber":60,"Velocity":58,"Duration":147058,"SoundDuration":147058,"Delta":46642201},{"NoteNumber":71,"Velocity":53,"Duration":277777,"SoundDuration":277777,"Delta":46789260},{"NoteNumber":79,"Velocity":63,"Duration":277777,"SoundDuration":277777,"Delta":46789260},{"NoteNumber":55,"Velocity":55,"Duration":569040,"SoundDuration":569040,"Delta":46789260},{"NoteNumber":62,"Velocity":64,"Duration":569040,"SoundDuration":569040,"Delta":46789260},{"NoteNumber":67,"Velocity":57,"Duration":291262,"SoundDuration":291262,"Delta":47067038},{"NoteNumber":74,"Velocity":60,"Duration":283019,"SoundDuration":283019,"Delta":47358300},{"NoteNumber":71,"Velocity":51,"Duration":283019,"SoundDuration":283019,"Delta":47358300},{"NoteNumber":43,"Velocity":58,"Duration":577136,"SoundDuration":577136,"Delta":47358300},{"NoteNumber":67,"Velocity":55,"Duration":294117,"SoundDuration":294117,"Delta":47641319},{"NoteNumber":69,"Velocity":55,"Duration":285714,"SoundDuration":285714,"Delta":47935436},{"NoteNumber":55,"Velocity":52,"Duration":432773,"SoundDuration":432773,"Delta":47935436},{"NoteNumber":60,"Velocity":52,"Duration":432773,"SoundDuration":432773,"Delta":47935436},{"NoteNumber":64,"Velocity":62,"Duration":432773,"SoundDuration":432773,"Delta":47935436},{"NoteNumber":76,"Velocity":59,"Duration":294117,"SoundDuration":294117,"Delta":48221151},{"NoteNumber":60,"Velocity":58,"Duration":147058,"SoundDuration":147058,"Delta":48368209},{"NoteNumber":71,"Velocity":53,"Duration":280374,"SoundDuration":280374,"Delta":48515268},{"NoteNumber":79,"Velocity":63,"Duration":280374,"SoundDuration":280374,"Delta":48515268},{"NoteNumber":55,"Velocity":55,"Duration":560747,"SoundDuration":560747,"Delta":48515268},{"NoteNumber":62,"Velocity":64,"Duration":560747,"SoundDuration":560747,"Delta":48515268},{"NoteNumber":67,"Velocity":57,"Duration":280373,"SoundDuration":280373,"Delta":48795642},{"NoteNumber":74,"Velocity":60,"Duration":283019,"SoundDuration":283019,"Delta":49076016},{"NoteNumber":71,"Velocity":51,"Duration":283019,"SoundDuration":283019,"Delta":49076016},{"NoteNumber":43,"Velocity":58,"Duration":566037,"SoundDuration":566037,"Delta":49076016},{"NoteNumber":67,"Velocity":55,"Duration":283018,"SoundDuration":283018,"Delta":49359035},{"NoteNumber":72,"Velocity":40,"Duration":277777,"SoundDuration":277777,"Delta":49642054},{"NoteNumber":79,"Velocity":49,"Duration":277777,"SoundDuration":277777,"Delta":49642054},{"NoteNumber":43,"Velocity":44,"Duration":277777,"SoundDuration":277777,"Delta":49642054},{"NoteNumber":69,"Velocity":38,"Duration":299999,"SoundDuration":299999,"Delta":49919832},{"NoteNumber":48,"Velocity":40,"Duration":299999,"SoundDuration":299999,"Delta":49919832},{"NoteNumber":67,"Velocity":35,"Duration":285714,"SoundDuration":285714,"Delta":50219832},{"NoteNumber":72,"Velocity":41,"Duration":285714,"SoundDuration":285714,"Delta":50219832},{"NoteNumber":50,"Velocity":44,"Duration":285714,"SoundDuration":285714,"Delta":50219832},{"NoteNumber":69,"Velocity":31,"Duration":297029,"SoundDuration":297029,"Delta":50505547},{"NoteNumber":55,"Velocity":48,"Duration":297029,"SoundDuration":297029,"Delta":50505547},{"NoteNumber":67,"Velocity":49,"Duration":288461,"SoundDuration":288461,"Delta":50802576},{"NoteNumber":76,"Velocity":49,"Duration":288461,"SoundDuration":288461,"Delta":50802576},{"NoteNumber":60,"Velocity":51,"Duration":288461,"SoundDuration":288461,"Delta":50802576},{"NoteNumber":69,"Velocity":41,"Duration":297029,"SoundDuration":297029,"Delta":51091038},{"NoteNumber":64,"Velocity":55,"Duration":297029,"SoundDuration":297029,"Delta":51091038},{"NoteNumber":67,"Velocity":55,"Duration":283019,"SoundDuration":283019,"Delta":51388067},{"NoteNumber":76,"Velocity":55,"Duration":1163186,"SoundDuration":1163186,"Delta":51388067},{"NoteNumber":50,"Velocity":50,"Duration":1163186,"SoundDuration":1163186,"Delta":51388067},{"NoteNumber":57,"Velocity":50,"Duration":1163186,"SoundDuration":1163186,"Delta":51388067},{"NoteNumber":60,"Velocity":59,"Duration":1163186,"SoundDuration":1163186,"Delta":51388067},{"NoteNumber":69,"Velocity":44,"Duration":303030,"SoundDuration":303030,"Delta":51671086},{"NoteNumber":67,"Velocity":41,"Duration":283019,"SoundDuration":283019,"Delta":51974117},{"NoteNumber":69,"Velocity":39,"Duration":294117,"SoundDuration":294117,"Delta":52257136},{"NoteNumber":66,"Velocity":34,"Duration":306122,"SoundDuration":306122,"Delta":52551253},{"NoteNumber":74,"Velocity":40,"Duration":606122,"SoundDuration":606122,"Delta":52551253},{"NoteNumber":38,"Velocity":41,"Duration":606122,"SoundDuration":606122,"Delta":52551253},{"NoteNumber":69,"Velocity":36,"Duration":299999,"SoundDuration":299999,"Delta":52857376},{"NoteNumber":66,"Velocity":38,"Duration":283019,"SoundDuration":283019,"Delta":53157376},{"NoteNumber":74,"Velocity":46,"Duration":283019,"SoundDuration":283019,"Delta":53157376},{"NoteNumber":50,"Velocity":33,"Duration":574281,"SoundDuration":574281,"Delta":53157376},{"NoteNumber":57,"Velocity":33,"Duration":574281,"SoundDuration":574281,"Delta":53157376},{"NoteNumber":60,"Velocity":39,"Duration":574281,"SoundDuration":574281,"Delta":53157376},{"NoteNumber":69,"Velocity":39,"Duration":291262,"SoundDuration":291262,"Delta":53440395},{"NoteNumber":67,"Velocity":38,"Duration":277777,"SoundDuration":277777,"Delta":53731657},{"NoteNumber":76,"Velocity":47,"Duration":277777,"SoundDuration":277777,"Delta":53731657},{"NoteNumber":38,"Velocity":41,"Duration":569040,"SoundDuration":569040,"Delta":53731657},{"NoteNumber":73,"Velocity":40,"Duration":291262,"SoundDuration":291262,"Delta":54009435},{"NoteNumber":66,"Velocity":38,"Duration":283019,"SoundDuration":283019,"Delta":54300697},{"NoteNumber":74,"Velocity":47,"Duration":283019,"SoundDuration":283019,"Delta":54300697},{"NoteNumber":50,"Velocity":33,"Duration":568733,"SoundDuration":568733,"Delta":54300697},{"NoteNumber":60,"Velocity":39,"Duration":568733,"SoundDuration":568733,"Delta":54300697},{"NoteNumber":57,"Velocity":33,"Duration":568733,"SoundDuration":568733,"Delta":54300697},{"NoteNumber":69,"Velocity":38,"Duration":285714,"SoundDuration":285714,"Delta":54583716},{"NoteNumber":67,"Velocity":39,"Duration":280374,"SoundDuration":280374,"Delta":54869430},{"NoteNumber":76,"Velocity":48,"Duration":280374,"SoundDuration":280374,"Delta":54869430},{"NoteNumber":38,"Velocity":41,"Duration":571636,"SoundDuration":571636,"Delta":54869430},{"NoteNumber":73,"Velocity":39,"Duration":291262,"SoundDuration":291262,"Delta":55149804},{"NoteNumber":66,"Velocity":39,"Duration":283019,"SoundDuration":283019,"Delta":55441066},{"NoteNumber":74,"Velocity":48,"Duration":283019,"SoundDuration":283019,"Delta":55441066},{"NoteNumber":50,"Velocity":38,"Duration":568733,"SoundDuration":568733,"Delta":55441066},{"NoteNumber":60,"Velocity":46,"Duration":568733,"SoundDuration":568733,"Delta":55441066},{"NoteNumber":57,"Velocity":38,"Duration":568733,"SoundDuration":568733,"Delta":55441066},{"NoteNumber":69,"Velocity":42,"Duration":285714,"SoundDuration":285714,"Delta":55724085},{"NoteNumber":67,"Velocity":44,"Duration":285714,"SoundDuration":285714,"Delta":56009800},{"NoteNumber":76,"Velocity":52,"Duration":285714,"SoundDuration":285714,"Delta":56009800},{"NoteNumber":38,"Velocity":50,"Duration":579831,"SoundDuration":579831,"Delta":56009800},{"NoteNumber":73,"Velocity":48,"Duration":294117,"SoundDuration":294117,"Delta":56295514},{"NoteNumber":66,"Velocity":42,"Duration":280374,"SoundDuration":280374,"Delta":56589632},{"NoteNumber":74,"Velocity":51,"Duration":280374,"SoundDuration":280374,"Delta":56589632},{"NoteNumber":50,"Velocity":42,"Duration":1753582,"SoundDuration":1753582,"Delta":56589632},{"NoteNumber":57,"Velocity":42,"Duration":1753582,"SoundDuration":1753582,"Delta":56589632},{"NoteNumber":60,"Velocity":51,"Duration":1753582,"SoundDuration":1753582,"Delta":56589632},{"NoteNumber":69,"Velocity":42,"Duration":288461,"SoundDuration":288461,"Delta":56870006},{"NoteNumber":67,"Velocity":46,"Duration":283019,"SoundDuration":283019,"Delta":57158467},{"NoteNumber":76,"Velocity":55,"Duration":283019,"SoundDuration":283019,"Delta":57158467},{"NoteNumber":73,"Velocity":46,"Duration":294117,"SoundDuration":294117,"Delta":57441486},{"NoteNumber":66,"Velocity":47,"Duration":288461,"SoundDuration":288461,"Delta":57735604},{"NoteNumber":74,"Velocity":55,"Duration":288461,"SoundDuration":288461,"Delta":57735604},{"NoteNumber":69,"Velocity":49,"Duration":319149,"SoundDuration":319149,"Delta":58024065},{"NoteNumber":66,"Velocity":50,"Duration":297029,"SoundDuration":297029,"Delta":58343214},{"NoteNumber":74,"Velocity":61,"Duration":297029,"SoundDuration":297029,"Delta":58343214},{"NoteNumber":38,"Velocity":56,"Duration":609529,"SoundDuration":609529,"Delta":58343214},{"NoteNumber":69,"Velocity":39,"Duration":312500,"SoundDuration":312500,"Delta":58640244},{"NoteNumber":50,"Velocity":48,"Duration":312500,"SoundDuration":312500,"Delta":58952744},{"NoteNumber":48,"Velocity":41,"Duration":312500,"SoundDuration":312500,"Delta":59265244},{"NoteNumber":62,"Velocity":55,"Duration":625000,"SoundDuration":625000,"Delta":59577744},{"NoteNumber":47,"Velocity":47,"Duration":312500,"SoundDuration":312500,"Delta":59577744},{"NoteNumber":45,"Velocity":49,"Duration":312500,"SoundDuration":312500,"Delta":59890244},{"NoteNumber":59,"Velocity":51,"Duration":474661,"SoundDuration":474661,"Delta":60202744},{"NoteNumber":67,"Velocity":61,"Duration":474661,"SoundDuration":474661,"Delta":60202744},{"NoteNumber":50,"Velocity":51,"Duration":474661,"SoundDuration":474661,"Delta":60202744},{"NoteNumber":43,"Velocity":42,"Duration":474661,"SoundDuration":474661,"Delta":60202744},{"NoteNumber":59,"Velocity":47,"Duration":137614,"SoundDuration":137614,"Delta":60677405},{"NoteNumber":67,"Velocity":56,"Duration":137614,"SoundDuration":137614,"Delta":60677405},{"NoteNumber":43,"Velocity":39,"Duration":137614,"SoundDuration":137614,"Delta":60677405},{"NoteNumber":50,"Velocity":47,"Duration":137614,"SoundDuration":137614,"Delta":60677405},{"NoteNumber":59,"Velocity":51,"Duration":618557,"SoundDuration":618557,"Delta":60815020},{"NoteNumber":67,"Velocity":61,"Duration":618557,"SoundDuration":618557,"Delta":60815020},{"NoteNumber":50,"Velocity":51,"Duration":618557,"SoundDuration":618557,"Delta":60815020},{"NoteNumber":43,"Velocity":42,"Duration":618557,"SoundDuration":618557,"Delta":60815020},{"NoteNumber":62,"Velocity":49,"Duration":290404,"SoundDuration":290404,"Delta":61736608},{"NoteNumber":66,"Velocity":49,"Duration":303030,"SoundDuration":303030,"Delta":61736608},{"NoteNumber":69,"Velocity":57,"Duration":303030,"SoundDuration":303030,"Delta":61736608},{"NoteNumber":50,"Velocity":49,"Duration":290404,"SoundDuration":290404,"Delta":61736608},{"NoteNumber":62,"Velocity":51,"Duration":474661,"SoundDuration":474661,"Delta":62039638},{"NoteNumber":67,"Velocity":51,"Duration":474661,"SoundDuration":474661,"Delta":62039638},{"NoteNumber":71,"Velocity":61,"Duration":474661,"SoundDuration":474661,"Delta":62039638},{"NoteNumber":50,"Velocity":51,"Duration":473835,"SoundDuration":473835,"Delta":62048567},{"NoteNumber":43,"Velocity":42,"Duration":473835,"SoundDuration":473835,"Delta":62048567},{"NoteNumber":62,"Velocity":47,"Duration":138888,"SoundDuration":138888,"Delta":62514300},{"NoteNumber":67,"Velocity":47,"Duration":138888,"SoundDuration":138888,"Delta":62514300},{"NoteNumber":71,"Velocity":56,"Duration":138888,"SoundDuration":138888,"Delta":62514300},{"NoteNumber":43,"Velocity":39,"Duration":138888,"SoundDuration":138888,"Delta":62514300},{"NoteNumber":50,"Velocity":47,"Duration":138888,"SoundDuration":138888,"Delta":62514300},{"NoteNumber":62,"Velocity":51,"Duration":618557,"SoundDuration":618557,"Delta":62653189},{"NoteNumber":67,"Velocity":51,"Duration":618557,"SoundDuration":618557,"Delta":62653189},{"NoteNumber":71,"Velocity":61,"Duration":618557,"SoundDuration":618557,"Delta":62653189},{"NoteNumber":43,"Velocity":42,"Duration":618557,"SoundDuration":618557,"Delta":62653189},{"NoteNumber":50,"Velocity":51,"Duration":618557,"SoundDuration":618557,"Delta":62653189},{"NoteNumber":71,"Velocity":51,"Duration":303030,"SoundDuration":303030,"Delta":63574776},{"NoteNumber":64,"Velocity":48,"Duration":625611,"SoundDuration":625611,"Delta":63877807},{"NoteNumber":69,"Velocity":57,"Duration":303030,"SoundDuration":303030,"Delta":63877807},{"NoteNumber":48,"Velocity":50,"Duration":303030,"SoundDuration":303030,"Delta":63877807},{"NoteNumber":71,"Velocity":58,"Duration":322580,"SoundDuration":322580,"Delta":64180837},{"NoteNumber":47,"Velocity":47,"Duration":322580,"SoundDuration":322580,"Delta":64180837},{"NoteNumber":64,"Velocity":48,"Duration":636364,"SoundDuration":636364,"Delta":64503418},{"NoteNumber":69,"Velocity":48,"Duration":636364,"SoundDuration":636364,"Delta":64503418},{"NoteNumber":72,"Velocity":57,"Duration":636364,"SoundDuration":636364,"Delta":64503418},{"NoteNumber":45,"Velocity":52,"Duration":636364,"SoundDuration":636364,"Delta":64503418},{"NoteNumber":60,"Velocity":42,"Duration":631579,"SoundDuration":631579,"Delta":65139782},{"NoteNumber":66,"Velocity":51,"Duration":631579,"SoundDuration":631579,"Delta":65139782},{"NoteNumber":50,"Velocity":47,"Duration":631579,"SoundDuration":631579,"Delta":65139782},{"NoteNumber":60,"Velocity":46,"Duration":645161,"SoundDuration":645161,"Delta":65771361},{"NoteNumber":66,"Velocity":46,"Duration":645161,"SoundDuration":645161,"Delta":65771361},{"NoteNumber":69,"Velocity":55,"Duration":645161,"SoundDuration":645161,"Delta":65771361},{"NoteNumber":43,"Velocity":55,"Duration":645161,"SoundDuration":645161,"Delta":65771361},{"NoteNumber":59,"Velocity":39,"Duration":645161,"SoundDuration":645161,"Delta":66416522},{"NoteNumber":67,"Velocity":48,"Duration":645161,"SoundDuration":645161,"Delta":66416522},{"NoteNumber":55,"Velocity":48,"Duration":645161,"SoundDuration":645161,"Delta":66416522},{"NoteNumber":71,"Velocity":42,"Duration":290322,"SoundDuration":290322,"Delta":67364714},{"NoteNumber":74,"Velocity":51,"Duration":290322,"SoundDuration":290322,"Delta":67364714},{"NoteNumber":71,"Velocity":48,"Duration":299999,"SoundDuration":299999,"Delta":67687294},{"NoteNumber":74,"Velocity":57,"Duration":299999,"SoundDuration":299999,"Delta":67687294},{"NoteNumber":43,"Velocity":46,"Duration":299999,"SoundDuration":299999,"Delta":67687294},{"NoteNumber":67,"Velocity":41,"Duration":315789,"SoundDuration":315789,"Delta":67987294},{"NoteNumber":71,"Velocity":50,"Duration":315789,"SoundDuration":315789,"Delta":67987294},{"NoteNumber":50,"Velocity":31,"Duration":315789,"SoundDuration":315789,"Delta":67987294},{"NoteNumber":72,"Velocity":50,"Duration":904336,"SoundDuration":904336,"Delta":68303084},{"NoteNumber":76,"Velocity":59,"Duration":904336,"SoundDuration":904336,"Delta":68303084},{"NoteNumber":55,"Velocity":41,"Duration":306122,"SoundDuration":306122,"Delta":68303084},{"NoteNumber":50,"Velocity":31,"Duration":312500,"SoundDuration":312500,"Delta":68609206},{"NoteNumber":55,"Velocity":41,"Duration":285714,"SoundDuration":285714,"Delta":68921706},{"NoteNumber":71,"Velocity":40,"Duration":281250,"SoundDuration":281250,"Delta":69207421},{"NoteNumber":74,"Velocity":49,"Duration":281250,"SoundDuration":281250,"Delta":69207421},{"NoteNumber":50,"Velocity":31,"Duration":312500,"SoundDuration":312500,"Delta":69207421},{"NoteNumber":66,"Velocity":46,"Duration":294117,"SoundDuration":294117,"Delta":69519921},{"NoteNumber":71,"Velocity":46,"Duration":294117,"SoundDuration":294117,"Delta":69519921},{"NoteNumber":74,"Velocity":55,"Duration":294117,"SoundDuration":294117,"Delta":69519921},{"NoteNumber":38,"Velocity":42,"Duration":294117,"SoundDuration":294117,"Delta":69519921},{"NoteNumber":69,"Velocity":40,"Duration":281250,"SoundDuration":281250,"Delta":69814038},{"NoteNumber":72,"Velocity":49,"Duration":281250,"SoundDuration":281250,"Delta":69814038},{"NoteNumber":50,"Velocity":30,"Duration":312500,"SoundDuration":312500,"Delta":69814038},{"NoteNumber":69,"Velocity":40,"Duration":603396,"SoundDuration":603396,"Delta":70126538},{"NoteNumber":72,"Velocity":49,"Duration":603396,"SoundDuration":603396,"Delta":70126538},{"NoteNumber":54,"Velocity":38,"Duration":294117,"SoundDuration":294117,"Delta":70126538},{"NoteNumber":50,"Velocity":31,"Duration":309278,"SoundDuration":309278,"Delta":70420655},{"NoteNumber":54,"Velocity":39,"Duration":283018,"SoundDuration":283018,"Delta":70729934},{"NoteNumber":69,"Velocity":42,"Duration":281250,"SoundDuration":281250,"Delta":71012953},{"NoteNumber":72,"Velocity":51,"Duration":281250,"SoundDuration":281250,"Delta":71012953},{"NoteNumber":50,"Velocity":33,"Duration":312500,"SoundDuration":312500,"Delta":71012953},{"NoteNumber":69,"Velocity":48,"Duration":288461,"SoundDuration":288461,"Delta":71325453},{"NoteNumber":72,"Velocity":57,"Duration":288461,"SoundDuration":288461,"Delta":71325453},{"NoteNumber":38,"Velocity":46,"Duration":288461,"SoundDuration":288461,"Delta":71325453},{"NoteNumber":66,"Velocity":41,"Duration":309278,"SoundDuration":309278,"Delta":71613914},{"NoteNumber":69,"Velocity":50,"Duration":309278,"SoundDuration":309278,"Delta":71613914},{"NoteNumber":50,"Velocity":31,"Duration":309278,"SoundDuration":309278,"Delta":71613914},{"NoteNumber":71,"Velocity":50,"Duration":884135,"SoundDuration":884135,"Delta":71923193},{"NoteNumber":74,"Velocity":59,"Duration":884135,"SoundDuration":884135,"Delta":71923193},{"NoteNumber":54,"Velocity":41,"Duration":291262,"SoundDuration":291262,"Delta":71923193},{"NoteNumber":50,"Velocity":31,"Duration":312500,"SoundDuration":312500,"Delta":72214455},{"NoteNumber":54,"Velocity":41,"Duration":280373,"SoundDuration":280373,"Delta":72526955},{"NoteNumber":69,"Velocity":40,"Duration":293478,"SoundDuration":293478,"Delta":72807329},{"NoteNumber":72,"Velocity":49,"Duration":293478,"SoundDuration":293478,"Delta":72807329},{"NoteNumber":50,"Velocity":31,"Duration":326087,"SoundDuration":326087,"Delta":72807329},{"NoteNumber":69,"Velocity":46,"Duration":303030,"SoundDuration":303030,"Delta":73133416},{"NoteNumber":72,"Velocity":55,"Duration":303030,"SoundDuration":303030,"Delta":73133416},{"NoteNumber":43,"Velocity":42,"Duration":304170,"SoundDuration":304170,"Delta":73151093},{"NoteNumber":67,"Velocity":40,"Duration":290322,"SoundDuration":290322,"Delta":73436447},{"NoteNumber":71,"Velocity":49,"Duration":290322,"SoundDuration":290322,"Delta":73436447},{"NoteNumber":50,"Velocity":30,"Duration":322580,"SoundDuration":322580,"Delta":73436447},{"NoteNumber":67,"Velocity":40,"Duration":622179,"SoundDuration":622179,"Delta":73759027},{"NoteNumber":71,"Velocity":49,"Duration":622179,"SoundDuration":622179,"Delta":73759027},{"NoteNumber":55,"Velocity":38,"Duration":303030,"SoundDuration":303030,"Delta":73759027},{"NoteNumber":50,"Velocity":31,"Duration":319148,"SoundDuration":319148,"Delta":74062058},{"NoteNumber":55,"Velocity":38,"Duration":319149,"SoundDuration":319149,"Delta":74399824},{"NoteNumber":62,"Velocity":56,"Duration":319148,"SoundDuration":319148,"Delta":74700356},{"NoteNumber":59,"Velocity":51,"Duration":474661,"SoundDuration":474661,"Delta":75019505},{"NoteNumber":67,"Velocity":61,"Duration":474661,"SoundDuration":474661,"Delta":75019505},{"NoteNumber":50,"Velocity":51,"Duration":474661,"SoundDuration":474661,"Delta":75019505},{"NoteNumber":43,"Velocity":42,"Duration":474661,"SoundDuration":474661,"Delta":75019505},{"NoteNumber":59,"Velocity":47,"Duration":137614,"SoundDuration":137614,"Delta":75494166},{"NoteNumber":67,"Velocity":56,"Duration":137614,"SoundDuration":137614,"Delta":75494166},{"NoteNumber":43,"Velocity":39,"Duration":137614,"SoundDuration":137614,"Delta":75494166},{"NoteNumber":50,"Velocity":47,"Duration":137614,"SoundDuration":137614,"Delta":75494166},{"NoteNumber":59,"Velocity":51,"Duration":618556,"SoundDuration":618556,"Delta":75631781},{"NoteNumber":67,"Velocity":61,"Duration":618556,"SoundDuration":618556,"Delta":75631781},{"NoteNumber":50,"Velocity":51,"Duration":618556,"SoundDuration":618556,"Delta":75631781},{"NoteNumber":43,"Velocity":42,"Duration":618556,"SoundDuration":618556,"Delta":75631781},{"NoteNumber":62,"Velocity":49,"Duration":272727,"SoundDuration":272727,"Delta":76553369},{"NoteNumber":66,"Velocity":49,"Duration":272727,"SoundDuration":272727,"Delta":76553369},{"NoteNumber":69,"Velocity":57,"Duration":272727,"SoundDuration":272727,"Delta":76553369},{"NoteNumber":50,"Velocity":49,"Duration":272727,"SoundDuration":272727,"Delta":76553369},{"NoteNumber":62,"Velocity":51,"Duration":474661,"SoundDuration":474661,"Delta":76856399},{"NoteNumber":67,"Velocity":51,"Duration":474661,"SoundDuration":474661,"Delta":76856399},{"NoteNumber":71,"Velocity":61,"Duration":474661,"SoundDuration":474661,"Delta":76856399},{"NoteNumber":50,"Velocity":51,"Duration":473835,"SoundDuration":473835,"Delta":76865328},{"NoteNumber":43,"Velocity":42,"Duration":473835,"SoundDuration":473835,"Delta":76865328},{"NoteNumber":62,"Velocity":47,"Duration":138889,"SoundDuration":138889,"Delta":77331061},{"NoteNumber":67,"Velocity":47,"Duration":138889,"SoundDuration":138889,"Delta":77331061},{"NoteNumber":71,"Velocity":56,"Duration":138889,"SoundDuration":138889,"Delta":77331061},{"NoteNumber":43,"Velocity":39,"Duration":138889,"SoundDuration":138889,"Delta":77331061},{"NoteNumber":50,"Velocity":47,"Duration":138889,"SoundDuration":138889,"Delta":77331061},{"NoteNumber":62,"Velocity":51,"Duration":618556,"SoundDuration":618556,"Delta":77469950},{"NoteNumber":67,"Velocity":51,"Duration":618556,"SoundDuration":618556,"Delta":77469950},{"NoteNumber":71,"Velocity":61,"Duration":618556,"SoundDuration":618556,"Delta":77469950},{"NoteNumber":43,"Velocity":42,"Duration":618556,"SoundDuration":618556,"Delta":77469950},{"NoteNumber":50,"Velocity":51,"Duration":618556,"SoundDuration":618556,"Delta":77469950},{"NoteNumber":71,"Velocity":51,"Duration":303030,"SoundDuration":303030,"Delta":78391537},{"NoteNumber":52,"Velocity":49,"Duration":303030,"SoundDuration":303030,"Delta":78391537},{"NoteNumber":64,"Velocity":48,"Duration":625611,"SoundDuration":625611,"Delta":78694568},{"NoteNumber":69,"Velocity":57,"Duration":303030,"SoundDuration":303030,"Delta":78694568},{"NoteNumber":48,"Velocity":50,"Duration":303030,"SoundDuration":303030,"Delta":78694568},{"NoteNumber":68,"Velocity":48,"Duration":322580,"SoundDuration":322580,"Delta":78997598},{"NoteNumber":71,"Velocity":58,"Duration":322580,"SoundDuration":322580,"Delta":78997598},{"NoteNumber":47,"Velocity":47,"Duration":322580,"SoundDuration":322580,"Delta":78997598},{"NoteNumber":64,"Velocity":48,"Duration":636364,"SoundDuration":636364,"Delta":79320179},{"NoteNumber":69,"Velocity":48,"Duration":636364,"SoundDuration":636364,"Delta":79320179},{"NoteNumber":72,"Velocity":57,"Duration":636364,"SoundDuration":636364,"Delta":79320179},{"NoteNumber":45,"Velocity":52,"Duration":636364,"SoundDuration":636364,"Delta":79320179},{"NoteNumber":60,"Velocity":42,"Duration":631579,"SoundDuration":631579,"Delta":79956543},{"NoteNumber":66,"Velocity":51,"Duration":631579,"SoundDuration":631579,"Delta":79956543},{"NoteNumber":50,"Velocity":47,"Duration":631579,"SoundDuration":631579,"Delta":79956543},{"NoteNumber":60,"Velocity":46,"Duration":645161,"SoundDuration":645161,"Delta":80588122},{"NoteNumber":66,"Velocity":46,"Duration":645161,"SoundDuration":645161,"Delta":80588122},{"NoteNumber":69,"Velocity":55,"Duration":645161,"SoundDuration":645161,"Delta":80588122},{"NoteNumber":43,"Velocity":55,"Duration":645161,"SoundDuration":645161,"Delta":80588122},{"NoteNumber":59,"Velocity":39,"Duration":645161,"SoundDuration":645161,"Delta":81233283},{"NoteNumber":67,"Velocity":48,"Duration":645161,"SoundDuration":645161,"Delta":81233283},{"NoteNumber":55,"Velocity":48,"Duration":645161,"SoundDuration":645161,"Delta":81233283},{"NoteNumber":71,"Velocity":42,"Duration":281250,"SoundDuration":281250,"Delta":82201024},{"NoteNumber":74,"Velocity":51,"Duration":281250,"SoundDuration":281250,"Delta":82201024},{"NoteNumber":67,"Velocity":42,"Duration":281250,"SoundDuration":281250,"Delta":82201024},{"NoteNumber":71,"Velocity":48,"Duration":299999,"SoundDuration":299999,"Delta":82513524},{"NoteNumber":74,"Velocity":57,"Duration":299999,"SoundDuration":299999,"Delta":82513524},{"NoteNumber":67,"Velocity":46,"Duration":599999,"SoundDuration":599999,"Delta":82513524},{"NoteNumber":71,"Velocity":50,"Duration":299999,"SoundDuration":299999,"Delta":82813524},{"NoteNumber":72,"Velocity":50,"Duration":288461,"SoundDuration":288461,"Delta":83113524},{"NoteNumber":76,"Velocity":59,"Duration":288461,"SoundDuration":288461,"Delta":83113524},{"NoteNumber":67,"Velocity":41,"Duration":865437,"SoundDuration":865437,"Delta":83113524},{"NoteNumber":79,"Velocity":59,"Duration":291262,"SoundDuration":291262,"Delta":83401986},{"NoteNumber":72,"Velocity":50,"Duration":285714,"SoundDuration":285714,"Delta":83693248},{"NoteNumber":76,"Velocity":59,"Duration":285714,"SoundDuration":285714,"Delta":83693248},{"NoteNumber":71,"Velocity":40,"Duration":294117,"SoundDuration":294117,"Delta":83978962},{"NoteNumber":74,"Velocity":49,"Duration":294117,"SoundDuration":294117,"Delta":83978962},{"NoteNumber":68,"Velocity":46,"Duration":294117,"SoundDuration":294117,"Delta":83978962},{"NoteNumber":71,"Velocity":46,"Duration":294117,"SoundDuration":294117,"Delta":84273080},{"NoteNumber":74,"Velocity":55,"Duration":294117,"SoundDuration":294117,"Delta":84273080},{"NoteNumber":69,"Velocity":51,"Duration":294117,"SoundDuration":294117,"Delta":84273080},{"NoteNumber":72,"Velocity":49,"Duration":275510,"SoundDuration":275510,"Delta":84567197},{"NoteNumber":69,"Velocity":40,"Duration":579831,"SoundDuration":579831,"Delta":84873320},{"NoteNumber":72,"Velocity":49,"Duration":579831,"SoundDuration":579831,"Delta":84873320},{"NoteNumber":57,"Velocity":38,"Duration":285714,"SoundDuration":285714,"Delta":84873320},{"NoteNumber":64,"Velocity":34,"Duration":294117,"SoundDuration":294117,"Delta":85159034},{"NoteNumber":69,"Velocity":39,"Duration":285714,"SoundDuration":285714,"Delta":85453152},{"NoteNumber":72,"Velocity":50,"Duration":272727,"SoundDuration":272727,"Delta":85738866},{"NoteNumber":67,"Velocity":35,"Duration":303030,"SoundDuration":303030,"Delta":85738866},{"NoteNumber":69,"Velocity":48,"Duration":868293,"SoundDuration":868293,"Delta":86041897},{"NoteNumber":72,"Velocity":57,"Duration":868293,"SoundDuration":868293,"Delta":86041897},{"NoteNumber":66,"Velocity":46,"Duration":285714,"SoundDuration":285714,"Delta":86041897},{"NoteNumber":64,"Velocity":38,"Duration":294117,"SoundDuration":294117,"Delta":86327611},{"NoteNumber":62,"Velocity":41,"Duration":579723,"SoundDuration":579723,"Delta":86621729},{"NoteNumber":72,"Velocity":50,"Duration":291262,"SoundDuration":291262,"Delta":86910190},{"NoteNumber":76,"Velocity":50,"Duration":291262,"SoundDuration":291262,"Delta":86910190},{"NoteNumber":71,"Velocity":50,"Duration":294117,"SoundDuration":294117,"Delta":87201452},{"NoteNumber":74,"Velocity":50,"Duration":294117,"SoundDuration":294117,"Delta":87201452},{"NoteNumber":64,"Velocity":41,"Duration":294117,"SoundDuration":294117,"Delta":87201452},{"NoteNumber":69,"Velocity":40,"Duration":278350,"SoundDuration":278350,"Delta":87495570},{"NoteNumber":72,"Velocity":49,"Duration":278350,"SoundDuration":278350,"Delta":87495570},{"NoteNumber":66,"Velocity":40,"Duration":309278,"SoundDuration":309278,"Delta":87495570},{"NoteNumber":69,"Velocity":46,"Duration":291262,"SoundDuration":291262,"Delta":87804848},{"NoteNumber":72,"Velocity":55,"Duration":291262,"SoundDuration":291262,"Delta":87804848},{"NoteNumber":67,"Velocity":42,"Duration":291262,"SoundDuration":291262,"Delta":87804848},{"NoteNumber":71,"Velocity":49,"Duration":306122,"SoundDuration":306122,"Delta":88096110},{"NoteNumber":67,"Velocity":40,"Duration":297029,"SoundDuration":297029,"Delta":88402233},{"NoteNumber":71,"Velocity":49,"Duration":616178,"SoundDuration":616178,"Delta":88402233},{"NoteNumber":55,"Velocity":47,"Duration":297029,"SoundDuration":297029,"Delta":88402233},{"NoteNumber":69,"Velocity":46,"Duration":319148,"SoundDuration":319148,"Delta":88699262},{"NoteNumber":65,"Velocity":40,"Duration":319148,"SoundDuration":319148,"Delta":88699262},{"NoteNumber":67,"Velocity":51,"Duration":319149,"SoundDuration":319149,"Delta":89018411},{"NoteNumber":64,"Velocity":46,"Duration":319149,"SoundDuration":319149,"Delta":89018411},{"NoteNumber":67,"Velocity":55,"Duration":319148,"SoundDuration":319148,"Delta":89337560},{"NoteNumber":65,"Velocity":55,"Duration":319148,"SoundDuration":319148,"Delta":89337560},{"NoteNumber":62,"Velocity":51,"Duration":319148,"SoundDuration":319148,"Delta":89337560},{"NoteNumber":64,"Velocity":51,"Duration":474661,"SoundDuration":474661,"Delta":89656709},{"NoteNumber":72,"Velocity":61,"Duration":474661,"SoundDuration":474661,"Delta":89656709},{"NoteNumber":60,"Velocity":51,"Duration":612276,"SoundDuration":612276,"Delta":89656709},{"NoteNumber":64,"Velocity":47,"Duration":123853,"SoundDuration":123853,"Delta":90131371},{"NoteNumber":72,"Velocity":56,"Duration":123853,"SoundDuration":123853,"Delta":90131371},{"NoteNumber":64,"Velocity":51,"Duration":616552,"SoundDuration":616552,"Delta":90268986},{"NoteNumber":72,"Velocity":61,"Duration":616552,"SoundDuration":616552,"Delta":90268986},{"NoteNumber":48,"Velocity":51,"Duration":472322,"SoundDuration":472322,"Delta":90268986},{"NoteNumber":55,"Velocity":60,"Duration":472322,"SoundDuration":472322,"Delta":90268986},{"NoteNumber":48,"Velocity":47,"Duration":129807,"SoundDuration":129807,"Delta":90741308},{"NoteNumber":55,"Velocity":56,"Duration":129807,"SoundDuration":129807,"Delta":90741308},{"NoteNumber":48,"Velocity":51,"Duration":303030,"SoundDuration":303030,"Delta":90885538},{"NoteNumber":55,"Velocity":60,"Duration":303030,"SoundDuration":303030,"Delta":90885538},{"NoteNumber":67,"Velocity":64,"Duration":340908,"SoundDuration":340908,"Delta":91188569},{"NoteNumber":67,"Velocity":58,"Duration":484328,"SoundDuration":484328,"Delta":91529478},{"NoteNumber":76,"Velocity":71,"Duration":484328,"SoundDuration":484328,"Delta":91529478},{"NoteNumber":49,"Velocity":52,"Duration":632843,"SoundDuration":632843,"Delta":91529478},{"NoteNumber":58,"Velocity":58,"Duration":632843,"SoundDuration":632843,"Delta":91529478},{"NoteNumber":67,"Velocity":53,"Duration":133663,"SoundDuration":133663,"Delta":92013807},{"NoteNumber":76,"Velocity":63,"Duration":133663,"SoundDuration":133663,"Delta":92013807},{"NoteNumber":67,"Velocity":58,"Duration":626332,"SoundDuration":626332,"Delta":92162321},{"NoteNumber":76,"Velocity":71,"Duration":626332,"SoundDuration":626332,"Delta":92162321},{"NoteNumber":49,"Velocity":58,"Duration":477817,"SoundDuration":477817,"Delta":92162321},{"NoteNumber":58,"Velocity":70,"Duration":477817,"SoundDuration":477817,"Delta":92162321},{"NoteNumber":49,"Velocity":55,"Duration":133663,"SoundDuration":133663,"Delta":92640139},{"NoteNumber":58,"Velocity":63,"Duration":133663,"SoundDuration":133663,"Delta":92640139},{"NoteNumber":49,"Velocity":58,"Duration":303030,"SoundDuration":303030,"Delta":92788654},{"NoteNumber":58,"Velocity":70,"Duration":303030,"SoundDuration":303030,"Delta":92788654},{"NoteNumber":76,"Velocity":62,"Duration":319148,"SoundDuration":319148,"Delta":93091685},{"NoteNumber":67,"Velocity":58,"Duration":658115,"SoundDuration":658115,"Delta":93410833},{"NoteNumber":71,"Velocity":58,"Duration":658115,"SoundDuration":658115,"Delta":93410833},{"NoteNumber":74,"Velocity":70,"Duration":658115,"SoundDuration":658115,"Delta":93410833},{"NoteNumber":50,"Velocity":50,"Duration":309278,"SoundDuration":309278,"Delta":93410833},{"NoteNumber":55,"Velocity":47,"Duration":174418,"SoundDuration":174418,"Delta":93720112},{"NoteNumber":59,"Velocity":51,"Duration":174418,"SoundDuration":174418,"Delta":93894531},{"NoteNumber":62,"Velocity":56,"Duration":322580,"SoundDuration":322580,"Delta":94068949},{"NoteNumber":64,"Velocity":51,"Duration":344827,"SoundDuration":344827,"Delta":94391530},{"NoteNumber":60,"Velocity":44,"Duration":329670,"SoundDuration":329670,"Delta":94736357},{"NoteNumber":66,"Velocity":52,"Duration":329670,"SoundDuration":329670,"Delta":94736357},{"NoteNumber":38,"Velocity":38,"Duration":678507,"SoundDuration":678507,"Delta":94736357},{"NoteNumber":50,"Velocity":47,"Duration":678507,"SoundDuration":678507,"Delta":94736357},{"NoteNumber":71,"Velocity":49,"Duration":348837,"SoundDuration":348837,"Delta":95066028},{"NoteNumber":59,"Velocity":37,"Duration":1290322,"SoundDuration":1290322,"Delta":95414865},{"NoteNumber":67,"Velocity":44,"Duration":1290322,"SoundDuration":1290322,"Delta":95414865},{"NoteNumber":43,"Velocity":42,"Duration":322580,"SoundDuration":322580,"Delta":95414865},{"NoteNumber":50,"Velocity":36,"Duration":322580,"SoundDuration":322580,"Delta":95737445},{"NoteNumber":55,"Velocity":39,"Duration":322580,"SoundDuration":322580,"Delta":96060026},{"NoteNumber":50,"Velocity":36,"Duration":322580,"SoundDuration":322580,"Delta":96382606},{"NoteNumber":55,"Velocity":39,"Duration":322580,"SoundDuration":322580,"Delta":96705187},{"NoteNumber":50,"Velocity":36,"Duration":322580,"SoundDuration":322580,"Delta":97027767},{"NoteNumber":66,"Velocity":49,"Duration":1844064,"SoundDuration":1844064,"Delta":97350348},{"NoteNumber":74,"Velocity":49,"Duration":1212485,"SoundDuration":1212485,"Delta":97350348},{"NoteNumber":72,"Velocity":49,"Duration":1212485,"SoundDuration":1212485,"Delta":97350348},{"NoteNumber":43,"Velocity":44,"Duration":306122,"SoundDuration":306122,"Delta":97350348},{"NoteNumber":50,"Velocity":36,"Duration":306122,"SoundDuration":306122,"Delta":97656470},{"NoteNumber":54,"Velocity":39,"Duration":294117,"SoundDuration":294117,"Delta":97962593},{"NoteNumber":50,"Velocity":36,"Duration":306122,"SoundDuration":306122,"Delta":98256710},{"NoteNumber":72,"Velocity":44,"Duration":631579,"SoundDuration":631579,"Delta":98562833},{"NoteNumber":76,"Velocity":44,"Duration":631579,"SoundDuration":631579,"Delta":98562833},{"NoteNumber":54,"Velocity":41,"Duration":315789,"SoundDuration":315789,"Delta":98562833},{"NoteNumber":50,"Velocity":36,"Duration":315789,"SoundDuration":315789,"Delta":98878622},{"NoteNumber":67,"Velocity":49,"Duration":906362,"SoundDuration":906362,"Delta":99194412},{"NoteNumber":71,"Velocity":49,"Duration":906362,"SoundDuration":906362,"Delta":99194412},{"NoteNumber":74,"Velocity":49,"Duration":906362,"SoundDuration":906362,"Delta":99194412},{"NoteNumber":43,"Velocity":44,"Duration":306122,"SoundDuration":306122,"Delta":99194412},{"NoteNumber":50,"Velocity":35,"Duration":294117,"SoundDuration":294117,"Delta":99500534},{"NoteNumber":55,"Velocity":39,"Duration":306122,"SoundDuration":306122,"Delta":99794652},{"NoteNumber":69,"Velocity":44,"Duration":294117,"SoundDuration":294117,"Delta":100100774},{"NoteNumber":72,"Velocity":44,"Duration":294117,"SoundDuration":294117,"Delta":100100774},{"NoteNumber":50,"Velocity":35,"Duration":294117,"SoundDuration":294117,"Delta":100100774},{"NoteNumber":67,"Velocity":44,"Duration":622179,"SoundDuration":622179,"Delta":100394892},{"NoteNumber":71,"Velocity":44,"Duration":622179,"SoundDuration":622179,"Delta":100394892},{"NoteNumber":55,"Velocity":35,"Duration":303030,"SoundDuration":303030,"Delta":100394892},{"NoteNumber":50,"Velocity":35,"Duration":319148,"SoundDuration":319148,"Delta":100697922},{"NoteNumber":62,"Velocity":49,"Duration":1206060,"SoundDuration":1206060,"Delta":101017071},{"NoteNumber":60,"Velocity":49,"Duration":1206060,"SoundDuration":1206060,"Delta":101017071},{"NoteNumber":43,"Velocity":44,"Duration":303030,"SoundDuration":303030,"Delta":101017071},{"NoteNumber":50,"Velocity":38,"Duration":303030,"SoundDuration":303030,"Delta":101320102},{"NoteNumber":54,"Velocity":41,"Duration":299999,"SoundDuration":299999,"Delta":101623132},{"NoteNumber":50,"Velocity":38,"Duration":299999,"SoundDuration":299999,"Delta":101923132},{"NoteNumber":60,"Velocity":44,"Duration":618556,"SoundDuration":618556,"Delta":102223132},{"NoteNumber":62,"Velocity":44,"Duration":605670,"SoundDuration":605670,"Delta":102223132},{"NoteNumber":54,"Velocity":42,"Duration":309278,"SoundDuration":309278,"Delta":102223132},{"NoteNumber":50,"Velocity":38,"Duration":309278,"SoundDuration":309278,"Delta":102532411},{"NoteNumber":59,"Velocity":50,"Duration":1212121,"SoundDuration":1212121,"Delta":102841689},{"NoteNumber":62,"Velocity":50,"Duration":1212121,"SoundDuration":1212121,"Delta":102841689},{"NoteNumber":67,"Velocity":50,"Duration":1212121,"SoundDuration":1212121,"Delta":102841689},{"NoteNumber":43,"Velocity":44,"Duration":303030,"SoundDuration":303030,"Delta":102841689},{"NoteNumber":50,"Velocity":34,"Duration":303030,"SoundDuration":303030,"Delta":103144720},{"NoteNumber":55,"Velocity":41,"Duration":303030,"SoundDuration":303030,"Delta":103447750},{"NoteNumber":50,"Velocity":34,"Duration":303030,"SoundDuration":303030,"Delta":103750781},{"NoteNumber":55,"Velocity":34,"Duration":303030,"SoundDuration":303030,"Delta":104053811},{"NoteNumber":50,"Velocity":34,"Duration":319148,"SoundDuration":319148,"Delta":104356842},{"NoteNumber":59,"Velocity":47,"Duration":1212121,"SoundDuration":1212121,"Delta":104675991},{"NoteNumber":62,"Velocity":47,"Duration":1212121,"SoundDuration":1212121,"Delta":104675991},{"NoteNumber":67,"Velocity":47,"Duration":1212121,"SoundDuration":1212121,"Delta":104675991},{"NoteNumber":43,"Velocity":44,"Duration":303030,"SoundDuration":303030,"Delta":104675991},{"NoteNumber":50,"Velocity":35,"Duration":303030,"SoundDuration":303030,"Delta":104979021},{"NoteNumber":55,"Velocity":44,"Duration":303030,"SoundDuration":303030,"Delta":105282051},{"NoteNumber":50,"Velocity":34,"Duration":303030,"SoundDuration":303030,"Delta":105585082},{"NoteNumber":57,"Velocity":37,"Duration":625000,"SoundDuration":625000,"Delta":105888112},{"NoteNumber":60,"Velocity":37,"Duration":625000,"SoundDuration":625000,"Delta":105888112},{"NoteNumber":64,"Velocity":37,"Duration":625000,"SoundDuration":625000,"Delta":105888112},{"NoteNumber":55,"Velocity":34,"Duration":312500,"SoundDuration":312500,"Delta":105888112},{"NoteNumber":50,"Velocity":34,"Duration":312500,"SoundDuration":312500,"Delta":106200612},{"NoteNumber":59,"Velocity":42,"Duration":1212121,"SoundDuration":1212121,"Delta":106513112},{"NoteNumber":62,"Velocity":42,"Duration":1212121,"SoundDuration":1212121,"Delta":106513112},{"NoteNumber":67,"Velocity":42,"Duration":1212121,"SoundDuration":1212121,"Delta":106513112},{"NoteNumber":43,"Velocity":44,"Duration":303030,"SoundDuration":303030,"Delta":106513112},{"NoteNumber":50,"Velocity":36,"Duration":303030,"SoundDuration":303030,"Delta":106816143},{"NoteNumber":55,"Velocity":42,"Duration":303030,"SoundDuration":303030,"Delta":107119173},{"NoteNumber":50,"Velocity":33,"Duration":303030,"SoundDuration":303030,"Delta":107422204},{"NoteNumber":57,"Velocity":37,"Duration":618556,"SoundDuration":618556,"Delta":107725234},{"NoteNumber":60,"Velocity":37,"Duration":618556,"SoundDuration":618556,"Delta":107725234},{"NoteNumber":64,"Velocity":37,"Duration":618556,"SoundDuration":618556,"Delta":107725234},{"NoteNumber":55,"Velocity":37,"Duration":309278,"SoundDuration":309278,"Delta":107725234},{"NoteNumber":50,"Velocity":31,"Duration":309278,"SoundDuration":309278,"Delta":108034513},{"NoteNumber":59,"Velocity":44,"Duration":2770907,"SoundDuration":2770907,"Delta":108343791},{"NoteNumber":62,"Velocity":44,"Duration":2770907,"SoundDuration":2770907,"Delta":108343791},{"NoteNumber":67,"Velocity":44,"Duration":2770907,"SoundDuration":2770907,"Delta":108343791},{"NoteNumber":43,"Velocity":44,"Duration":303030,"SoundDuration":303030,"Delta":108343791},{"NoteNumber":50,"Velocity":34,"Duration":303030,"SoundDuration":303030,"Delta":108646822},{"NoteNumber":55,"Velocity":39,"Duration":315789,"SoundDuration":315789,"Delta":108949852},{"NoteNumber":50,"Velocity":36,"Duration":315789,"SoundDuration":315789,"Delta":109265642},{"NoteNumber":55,"Velocity":39,"Duration":348837,"SoundDuration":348837,"Delta":109581431},{"NoteNumber":50,"Velocity":34,"Duration":461538,"SoundDuration":461538,"Delta":109930268},{"NoteNumber":43,"Velocity":38,"Duration":722892,"SoundDuration":722892,"Delta":110391807},{"NoteNumber":59,"Velocity":33,"Duration":886170,"SoundDuration":886170,"Delta":112560483},{"NoteNumber":62,"Velocity":39,"Duration":886170,"SoundDuration":886170,"Delta":112560483},{"NoteNumber":67,"Velocity":33,"Duration":2403205,"SoundDuration":2403205,"Delta":112560483},{"NoteNumber":43,"Velocity":37,"Duration":306122,"SoundDuration":306122,"Delta":112560483},{"NoteNumber":55,"Velocity":29,"Duration":283018,"SoundDuration":283018,"Delta":112866605},{"NoteNumber":43,"Velocity":29,"Duration":297029,"SoundDuration":297029,"Delta":113149624},{"NoteNumber":60,"Velocity":28,"Duration":312500,"SoundDuration":312500,"Delta":113446654},{"NoteNumber":64,"Velocity":34,"Duration":312500,"SoundDuration":312500,"Delta":113446654},{"NoteNumber":55,"Velocity":29,"Duration":312500,"SoundDuration":312500,"Delta":113446654},{"NoteNumber":59,"Velocity":33,"Duration":588745,"SoundDuration":588745,"Delta":113759154},{"NoteNumber":62,"Velocity":39,"Duration":588745,"SoundDuration":588745,"Delta":113759154},{"NoteNumber":43,"Velocity":37,"Duration":303030,"SoundDuration":303030,"Delta":113759154},{"NoteNumber":55,"Velocity":29,"Duration":285714,"SoundDuration":285714,"Delta":114062184},{"NoteNumber":60,"Velocity":30,"Duration":615789,"SoundDuration":615789,"Delta":114347899},{"NoteNumber":64,"Velocity":37,"Duration":615789,"SoundDuration":615789,"Delta":114347899},{"NoteNumber":43,"Velocity":29,"Duration":299999,"SoundDuration":299999,"Delta":114347899},{"NoteNumber":55,"Velocity":29,"Duration":315789,"SoundDuration":315789,"Delta":114647899},{"NoteNumber":71,"Velocity":33,"Duration":2382343,"SoundDuration":2382343,"Delta":114963688},{"NoteNumber":62,"Velocity":33,"Duration":880048,"SoundDuration":880048,"Delta":114963688},{"NoteNumber":65,"Velocity":39,"Duration":880048,"SoundDuration":880048,"Delta":114963688},{"NoteNumber":43,"Velocity":37,"Duration":299999,"SoundDuration":299999,"Delta":114963688},{"NoteNumber":55,"Velocity":29,"Duration":283018,"SoundDuration":283018,"Delta":115263688},{"NoteNumber":43,"Velocity":29,"Duration":297029,"SoundDuration":297029,"Delta":115546707},{"NoteNumber":64,"Velocity":28,"Duration":315789,"SoundDuration":315789,"Delta":115843737},{"NoteNumber":67,"Velocity":34,"Duration":315789,"SoundDuration":315789,"Delta":115843737},{"NoteNumber":55,"Velocity":29,"Duration":315789,"SoundDuration":315789,"Delta":115843737},{"NoteNumber":62,"Velocity":28,"Duration":1186505,"SoundDuration":1186505,"Delta":116159526},{"NoteNumber":65,"Velocity":34,"Duration":1186505,"SoundDuration":1186505,"Delta":116159526},{"NoteNumber":43,"Velocity":36,"Duration":291262,"SoundDuration":291262,"Delta":116159526},{"NoteNumber":55,"Velocity":29,"Duration":285714,"SoundDuration":285714,"Delta":116450788},{"NoteNumber":43,"Velocity":29,"Duration":297029,"SoundDuration":297029,"Delta":116736503},{"NoteNumber":55,"Velocity":29,"Duration":312500,"SoundDuration":312500,"Delta":117033532},{"NoteNumber":60,"Velocity":35,"Duration":874855,"SoundDuration":874855,"Delta":117346032},{"NoteNumber":64,"Velocity":42,"Duration":874855,"SoundDuration":874855,"Delta":117346032},{"NoteNumber":69,"Velocity":35,"Duration":2373310,"SoundDuration":2373310,"Delta":117346032},{"NoteNumber":43,"Velocity":40,"Duration":306122,"SoundDuration":306122,"Delta":117346032},{"NoteNumber":55,"Velocity":30,"Duration":283018,"SoundDuration":283018,"Delta":117652155},{"NoteNumber":43,"Velocity":30,"Duration":285714,"SoundDuration":285714,"Delta":117935174},{"NoteNumber":62,"Velocity":30,"Duration":312500,"SoundDuration":312500,"Delta":118220888},{"NoteNumber":65,"Velocity":37,"Duration":312500,"SoundDuration":312500,"Delta":118220888},{"NoteNumber":55,"Velocity":30,"Duration":312500,"SoundDuration":312500,"Delta":118220888},{"NoteNumber":60,"Velocity":35,"Duration":579831,"SoundDuration":579831,"Delta":118533388},{"NoteNumber":64,"Velocity":42,"Duration":579831,"SoundDuration":579831,"Delta":118533388},{"NoteNumber":43,"Velocity":40,"Duration":294117,"SoundDuration":294117,"Delta":118533388},{"NoteNumber":55,"Velocity":33,"Duration":285714,"SoundDuration":285714,"Delta":118827506},{"NoteNumber":62,"Velocity":34,"Duration":606122,"SoundDuration":606122,"Delta":119113220},{"NoteNumber":65,"Velocity":40,"Duration":606122,"SoundDuration":606122,"Delta":119113220},{"NoteNumber":43,"Velocity":33,"Duration":299999,"SoundDuration":299999,"Delta":119113220},{"NoteNumber":55,"Velocity":33,"Duration":306122,"SoundDuration":306122,"Delta":119413220},{"NoteNumber":72,"Velocity":35,"Duration":2342523,"SoundDuration":2342523,"Delta":119719343},{"NoteNumber":64,"Velocity":35,"Duration":868398,"SoundDuration":868398,"Delta":119719343},{"NoteNumber":67,"Velocity":42,"Duration":868398,"SoundDuration":868398,"Delta":119719343},{"NoteNumber":43,"Velocity":40,"Duration":294117,"SoundDuration":294117,"Delta":119719343},{"NoteNumber":55,"Velocity":30,"Duration":283018,"SoundDuration":283018,"Delta":120013460},{"NoteNumber":43,"Velocity":30,"Duration":291262,"SoundDuration":291262,"Delta":120296479},{"NoteNumber":65,"Velocity":30,"Duration":294117,"SoundDuration":294117,"Delta":120587741},{"NoteNumber":69,"Velocity":37,"Duration":294117,"SoundDuration":294117,"Delta":120587741},{"NoteNumber":55,"Velocity":30,"Duration":294117,"SoundDuration":294117,"Delta":120587741},{"NoteNumber":64,"Velocity":34,"Duration":1180007,"SoundDuration":1180007,"Delta":120881859},{"NoteNumber":67,"Velocity":40,"Duration":1180007,"SoundDuration":1180007,"Delta":120881859},{"NoteNumber":43,"Velocity":39,"Duration":299999,"SoundDuration":299999,"Delta":120881859},{"NoteNumber":55,"Velocity":30,"Duration":285714,"SoundDuration":285714,"Delta":121181859},{"NoteNumber":43,"Velocity":30,"Duration":291262,"SoundDuration":291262,"Delta":121467573},{"NoteNumber":55,"Velocity":30,"Duration":303030,"SoundDuration":303030,"Delta":121758835},{"NoteNumber":62,"Velocity":39,"Duration":874280,"SoundDuration":874280,"Delta":122061866},{"NoteNumber":65,"Velocity":47,"Duration":874280,"SoundDuration":874280,"Delta":122061866},{"NoteNumber":71,"Velocity":39,"Duration":1736971,"SoundDuration":1736971,"Delta":122061866},{"NoteNumber":43,"Velocity":46,"Duration":299999,"SoundDuration":299999,"Delta":122061866},{"NoteNumber":55,"Velocity":36,"Duration":283018,"SoundDuration":283018,"Delta":122361866},{"NoteNumber":43,"Velocity":36,"Duration":291262,"SoundDuration":291262,"Delta":122644885},{"NoteNumber":64,"Velocity":35,"Duration":291262,"SoundDuration":291262,"Delta":122936147},{"NoteNumber":67,"Velocity":44,"Duration":291262,"SoundDuration":291262,"Delta":122936147},{"NoteNumber":55,"Velocity":36,"Duration":291262,"SoundDuration":291262,"Delta":122936147},{"NoteNumber":62,"Velocity":39,"Duration":571428,"SoundDuration":571428,"Delta":123227409},{"NoteNumber":65,"Velocity":48,"Duration":571428,"SoundDuration":571428,"Delta":123227409},{"NoteNumber":43,"Velocity":46,"Duration":285714,"SoundDuration":285714,"Delta":123227409},{"NoteNumber":55,"Velocity":38,"Duration":285714,"SoundDuration":285714,"Delta":123513123},{"NoteNumber":72,"Velocity":49,"Duration":576976,"SoundDuration":576976,"Delta":123798838},{"NoteNumber":64,"Velocity":40,"Duration":576976,"SoundDuration":576976,"Delta":123798838},{"NoteNumber":67,"Velocity":40,"Duration":576976,"SoundDuration":576976,"Delta":123798838},{"NoteNumber":43,"Velocity":38,"Duration":285714,"SoundDuration":285714,"Delta":123798838},{"NoteNumber":55,"Velocity":38,"Duration":291262,"SoundDuration":291262,"Delta":124084552},{"NoteNumber":65,"Velocity":45,"Duration":862850,"SoundDuration":862850,"Delta":124375814},{"NoteNumber":69,"Velocity":53,"Duration":862850,"SoundDuration":862850,"Delta":124375814},{"NoteNumber":74,"Velocity":45,"Duration":1719994,"SoundDuration":1719994,"Delta":124375814},{"NoteNumber":43,"Velocity":48,"Duration":294117,"SoundDuration":294117,"Delta":124375814},{"NoteNumber":55,"Velocity":37,"Duration":283018,"SoundDuration":283018,"Delta":124669932},{"NoteNumber":43,"Velocity":37,"Duration":285714,"SoundDuration":285714,"Delta":124952951},{"NoteNumber":67,"Velocity":39,"Duration":285714,"SoundDuration":285714,"Delta":125238665},{"NoteNumber":71,"Velocity":48,"Duration":285714,"SoundDuration":285714,"Delta":125238665},{"NoteNumber":55,"Velocity":37,"Duration":285714,"SoundDuration":285714,"Delta":125238665},{"NoteNumber":65,"Velocity":46,"Duration":571428,"SoundDuration":571428,"Delta":125524380},{"NoteNumber":69,"Velocity":55,"Duration":571428,"SoundDuration":571428,"Delta":125524380},{"NoteNumber":43,"Velocity":50,"Duration":285714,"SoundDuration":285714,"Delta":125524380},{"NoteNumber":55,"Velocity":41,"Duration":285714,"SoundDuration":285714,"Delta":125810094},{"NoteNumber":76,"Velocity":59,"Duration":609906,"SoundDuration":609906,"Delta":126095809},{"NoteNumber":67,"Velocity":49,"Duration":609906,"SoundDuration":609906,"Delta":126095809},{"NoteNumber":71,"Velocity":49,"Duration":609906,"SoundDuration":609906,"Delta":126095809},{"NoteNumber":43,"Velocity":41,"Duration":294117,"SoundDuration":294117,"Delta":126095809},{"NoteNumber":55,"Velocity":41,"Duration":315789,"SoundDuration":315789,"Delta":126389926},{"NoteNumber":69,"Velocity":58,"Duration":630460,"SoundDuration":630460,"Delta":126705716},{"NoteNumber":72,"Velocity":58,"Duration":630460,"SoundDuration":630460,"Delta":126705716},{"NoteNumber":77,"Velocity":69,"Duration":630460,"SoundDuration":630460,"Delta":126705716},{"NoteNumber":43,"Velocity":57,"Duration":630460,"SoundDuration":630460,"Delta":126705716},{"NoteNumber":77,"Velocity":71,"Duration":300063,"SoundDuration":300063,"Delta":127336177},{"NoteNumber":69,"Velocity":59,"Duration":300063,"SoundDuration":300063,"Delta":127336177},{"NoteNumber":76,"Velocity":71,"Duration":303249,"SoundDuration":303249,"Delta":127636240},{"NoteNumber":67,"Velocity":59,"Duration":303249,"SoundDuration":303249,"Delta":127636240},{"NoteNumber":74,"Velocity":70,"Duration":306516,"SoundDuration":306516,"Delta":127939489},{"NoteNumber":65,"Velocity":59,"Duration":306516,"SoundDuration":306516,"Delta":127939489},{"NoteNumber":72,"Velocity":69,"Duration":309842,"SoundDuration":309842,"Delta":128246006},{"NoteNumber":64,"Velocity":58,"Duration":309842,"SoundDuration":309842,"Delta":128246006},{"NoteNumber":71,"Velocity":69,"Duration":329670,"SoundDuration":329670,"Delta":128555848},{"NoteNumber":62,"Velocity":58,"Duration":329670,"SoundDuration":329670,"Delta":128555848},{"NoteNumber":69,"Velocity":67,"Duration":329670,"SoundDuration":329670,"Delta":128885519},{"NoteNumber":60,"Velocity":57,"Duration":329670,"SoundDuration":329670,"Delta":128885519},{"NoteNumber":65,"Velocity":67,"Duration":2117646,"SoundDuration":2117646,"Delta":129215189},{"NoteNumber":69,"Velocity":67,"Duration":1411764,"SoundDuration":1411764,"Delta":129215189},{"NoteNumber":60,"Velocity":57,"Duration":705882,"SoundDuration":705882,"Delta":129215189},{"NoteNumber":55,"Velocity":52,"Duration":705882,"SoundDuration":705882,"Delta":129921071},{"NoteNumber":67,"Velocity":62,"Duration":705882,"SoundDuration":705882,"Delta":130626953},{"NoteNumber":59,"Velocity":59,"Duration":705882,"SoundDuration":705882,"Delta":130626953},{"NoteNumber":72,"Velocity":66,"Duration":1304502,"SoundDuration":1304502,"Delta":132038717},{"NoteNumber":76,"Velocity":66,"Duration":1304502,"SoundDuration":1304502,"Delta":132038717},{"NoteNumber":79,"Velocity":78,"Duration":1304502,"SoundDuration":1304502,"Delta":132038717},{"NoteNumber":60,"Velocity":53,"Duration":645161,"SoundDuration":645161,"Delta":132038717},{"NoteNumber":64,"Velocity":53,"Duration":645161,"SoundDuration":645161,"Delta":132038717},{"NoteNumber":67,"Velocity":63,"Duration":645161,"SoundDuration":645161,"Delta":132038717},{"NoteNumber":36,"Velocity":79,"Duration":659341,"SoundDuration":659341,"Delta":132683878},{"NoteNumber":72,"Velocity":66,"Duration":1283752,"SoundDuration":1283752,"Delta":133343219},{"NoteNumber":77,"Velocity":66,"Duration":1283752,"SoundDuration":1283752,"Delta":133343219},{"NoteNumber":81,"Velocity":78,"Duration":1283752,"SoundDuration":1283752,"Delta":133343219},{"NoteNumber":60,"Velocity":53,"Duration":631578,"SoundDuration":631578,"Delta":133343219},{"NoteNumber":65,"Velocity":53,"Duration":631578,"SoundDuration":631578,"Delta":133343219},{"NoteNumber":69,"Velocity":53,"Duration":631578,"SoundDuration":631578,"Delta":133343219},{"NoteNumber":41,"Velocity":79,"Duration":652174,"SoundDuration":652174,"Delta":133974798},{"NoteNumber":72,"Velocity":67,"Duration":959466,"SoundDuration":959466,"Delta":134626972},{"NoteNumber":76,"Velocity":67,"Duration":959466,"SoundDuration":959466,"Delta":134626972},{"NoteNumber":79,"Velocity":79,"Duration":959466,"SoundDuration":959466,"Delta":134626972},{"NoteNumber":60,"Velocity":60,"Duration":618557,"SoundDuration":618557,"Delta":134626972},{"NoteNumber":64,"Velocity":60,"Duration":618557,"SoundDuration":618557,"Delta":134626972},{"NoteNumber":67,"Velocity":70,"Duration":618557,"SoundDuration":618557,"Delta":134626972},{"NoteNumber":36,"Velocity":78,"Duration":340909,"SoundDuration":340909,"Delta":135245529},{"NoteNumber":74,"Velocity":60,"Duration":315789,"SoundDuration":315789,"Delta":135586438},{"NoteNumber":77,"Velocity":70,"Duration":315789,"SoundDuration":315789,"Delta":135586438},{"NoteNumber":62,"Velocity":55,"Duration":315789,"SoundDuration":315789,"Delta":135586438},{"NoteNumber":65,"Velocity":66,"Duration":315789,"SoundDuration":315789,"Delta":135586438},{"NoteNumber":72,"Velocity":63,"Duration":625000,"SoundDuration":625000,"Delta":135902228},{"NoteNumber":76,"Velocity":75,"Duration":625000,"SoundDuration":625000,"Delta":135902228},{"NoteNumber":60,"Velocity":60,"Duration":625000,"SoundDuration":625000,"Delta":135902228},{"NoteNumber":64,"Velocity":70,"Duration":625000,"SoundDuration":625000,"Delta":135902228},{"NoteNumber":74,"Velocity":61,"Duration":638297,"SoundDuration":638297,"Delta":136527228},{"NoteNumber":77,"Velocity":72,"Duration":638297,"SoundDuration":638297,"Delta":136527228},{"NoteNumber":62,"Velocity":55,"Duration":638297,"SoundDuration":638297,"Delta":136527228},{"NoteNumber":65,"Velocity":66,"Duration":638297,"SoundDuration":638297,"Delta":136527228},{"NoteNumber":72,"Velocity":66,"Duration":1290919,"SoundDuration":1290919,"Delta":137165526},{"NoteNumber":76,"Velocity":66,"Duration":1290919,"SoundDuration":1290919,"Delta":137165526},{"NoteNumber":79,"Velocity":78,"Duration":1290919,"SoundDuration":1290919,"Delta":137165526},{"NoteNumber":60,"Velocity":53,"Duration":631578,"SoundDuration":631578,"Delta":137165526},{"NoteNumber":64,"Velocity":53,"Duration":631578,"SoundDuration":631578,"Delta":137165526},{"NoteNumber":67,"Velocity":63,"Duration":631578,"SoundDuration":631578,"Delta":137165526},{"NoteNumber":36,"Velocity":75,"Duration":659341,"SoundDuration":659341,"Delta":137797105},{"NoteNumber":72,"Velocity":66,"Duration":1283752,"SoundDuration":1283752,"Delta":138456446},{"NoteNumber":77,"Velocity":66,"Duration":1283752,"SoundDuration":1283752,"Delta":138456446},{"NoteNumber":81,"Velocity":78,"Duration":1283752,"SoundDuration":1283752,"Delta":138456446},{"NoteNumber":60,"Velocity":53,"Duration":631578,"SoundDuration":631578,"Delta":138456446},{"NoteNumber":65,"Velocity":53,"Duration":631578,"SoundDuration":631578,"Delta":138456446},{"NoteNumber":69,"Velocity":53,"Duration":631578,"SoundDuration":631578,"Delta":138456446},{"NoteNumber":41,"Velocity":79,"Duration":652174,"SoundDuration":652174,"Delta":139088025},{"NoteNumber":72,"Velocity":67,"Duration":948227,"SoundDuration":948227,"Delta":139740199},{"NoteNumber":76,"Velocity":67,"Duration":948227,"SoundDuration":948227,"Delta":139740199},{"NoteNumber":79,"Velocity":79,"Duration":948227,"SoundDuration":948227,"Delta":139740199},{"NoteNumber":60,"Velocity":60,"Duration":618557,"SoundDuration":618557,"Delta":139740199},{"NoteNumber":64,"Velocity":60,"Duration":618557,"SoundDuration":618557,"Delta":139740199},{"NoteNumber":67,"Velocity":70,"Duration":618557,"SoundDuration":618557,"Delta":139740199},{"NoteNumber":36,"Velocity":77,"Duration":329670,"SoundDuration":329670,"Delta":140358756},{"NoteNumber":74,"Velocity":60,"Duration":309278,"SoundDuration":309278,"Delta":140688426},{"NoteNumber":77,"Velocity":70,"Duration":309278,"SoundDuration":309278,"Delta":140688426},{"NoteNumber":62,"Velocity":55,"Duration":309278,"SoundDuration":309278,"Delta":140688426},{"NoteNumber":65,"Velocity":66,"Duration":309278,"SoundDuration":309278,"Delta":140688426},{"NoteNumber":72,"Velocity":63,"Duration":631578,"SoundDuration":631578,"Delta":140997705},{"NoteNumber":76,"Velocity":75,"Duration":631578,"SoundDuration":631578,"Delta":140997705},{"NoteNumber":60,"Velocity":60,"Duration":631578,"SoundDuration":631578,"Delta":140997705},{"NoteNumber":64,"Velocity":70,"Duration":631578,"SoundDuration":631578,"Delta":140997705},{"NoteNumber":74,"Velocity":61,"Duration":659341,"SoundDuration":659341,"Delta":141629284},{"NoteNumber":77,"Velocity":72,"Duration":659341,"SoundDuration":659341,"Delta":141629284},{"NoteNumber":62,"Velocity":55,"Duration":659341,"SoundDuration":659341,"Delta":141629284},{"NoteNumber":65,"Velocity":66,"Duration":659341,"SoundDuration":659341,"Delta":141629284},{"NoteNumber":72,"Velocity":66,"Duration":1304502,"SoundDuration":1304502,"Delta":142288625},{"NoteNumber":76,"Velocity":66,"Duration":1304502,"SoundDuration":1304502,"Delta":142288625},{"NoteNumber":79,"Velocity":78,"Duration":1304502,"SoundDuration":1304502,"Delta":142288625},{"NoteNumber":60,"Velocity":53,"Duration":645161,"SoundDuration":645161,"Delta":142288625},{"NoteNumber":64,"Velocity":53,"Duration":645161,"SoundDuration":645161,"Delta":142288625},{"NoteNumber":67,"Velocity":63,"Duration":645161,"SoundDuration":645161,"Delta":142288625},{"NoteNumber":36,"Velocity":76,"Duration":659341,"SoundDuration":659341,"Delta":142933786},{"NoteNumber":74,"Velocity":72,"Duration":1283752,"SoundDuration":1283752,"Delta":143593127},{"NoteNumber":79,"Velocity":85,"Duration":1283752,"SoundDuration":1283752,"Delta":143593127},{"NoteNumber":59,"Velocity":53,"Duration":631578,"SoundDuration":631578,"Delta":143593127},{"NoteNumber":62,"Velocity":53,"Duration":631578,"SoundDuration":631578,"Delta":143593127},{"NoteNumber":67,"Velocity":53,"Duration":631578,"SoundDuration":631578,"Delta":143593127},{"NoteNumber":31,"Velocity":79,"Duration":652174,"SoundDuration":652174,"Delta":144224706},{"NoteNumber":74,"Velocity":69,"Duration":1275255,"SoundDuration":1275255,"Delta":144876880},{"NoteNumber":78,"Velocity":69,"Duration":1275255,"SoundDuration":1275255,"Delta":144876880},{"NoteNumber":81,"Velocity":82,"Duration":1275255,"SoundDuration":1275255,"Delta":144876880},{"NoteNumber":62,"Velocity":62,"Duration":618557,"SoundDuration":618557,"Delta":144876880},{"NoteNumber":66,"Velocity":62,"Duration":618557,"SoundDuration":618557,"Delta":144876880},{"NoteNumber":69,"Velocity":73,"Duration":618557,"SoundDuration":618557,"Delta":144876880},{"NoteNumber":38,"Velocity":80,"Duration":656698,"SoundDuration":656698,"Delta":145495437},{"NoteNumber":79,"Velocity":69,"Duration":625000,"SoundDuration":625000,"Delta":146152135},{"NoteNumber":74,"Velocity":69,"Duration":625000,"SoundDuration":625000,"Delta":146152135},{"NoteNumber":83,"Velocity":82,"Duration":625000,"SoundDuration":625000,"Delta":146152135},{"NoteNumber":62,"Velocity":66,"Duration":625000,"SoundDuration":625000,"Delta":146152135},{"NoteNumber":67,"Velocity":66,"Duration":625000,"SoundDuration":625000,"Delta":146152135},{"NoteNumber":71,"Velocity":77,"Duration":625000,"SoundDuration":625000,"Delta":146152135},{"NoteNumber":81,"Velocity":68,"Duration":638297,"SoundDuration":638297,"Delta":146777135},{"NoteNumber":76,"Velocity":68,"Duration":638297,"SoundDuration":638297,"Delta":146777135},{"NoteNumber":84,"Velocity":80,"Duration":638297,"SoundDuration":638297,"Delta":146777135},{"NoteNumber":64,"Velocity":61,"Duration":638297,"SoundDuration":638297,"Delta":146777135},{"NoteNumber":69,"Velocity":61,"Duration":638297,"SoundDuration":638297,"Delta":146777135},{"NoteNumber":72,"Velocity":73,"Duration":638297,"SoundDuration":638297,"Delta":146777135},{"NoteNumber":74,"Velocity":75,"Duration":1277898,"SoundDuration":1277898,"Delta":147415433},{"NoteNumber":79,"Velocity":75,"Duration":1277898,"SoundDuration":1277898,"Delta":147415433},{"NoteNumber":83,"Velocity":89,"Duration":1277898,"SoundDuration":1277898,"Delta":147415433},{"NoteNumber":62,"Velocity":61,"Duration":618557,"SoundDuration":618557,"Delta":147415433},{"NoteNumber":67,"Velocity":61,"Duration":618557,"SoundDuration":618557,"Delta":147415433},{"NoteNumber":71,"Velocity":72,"Duration":618557,"SoundDuration":618557,"Delta":147415433},{"NoteNumber":38,"Velocity":82,"Duration":659341,"SoundDuration":659341,"Delta":148033990},{"NoteNumber":79,"Velocity":74,"Duration":631578,"SoundDuration":631578,"Delta":148693331},{"NoteNumber":81,"Velocity":81,"Duration":1283752,"SoundDuration":1283752,"Delta":148693331},{"NoteNumber":74,"Velocity":66,"Duration":631578,"SoundDuration":631578,"Delta":148693331},{"NoteNumber":62,"Velocity":53,"Duration":631578,"SoundDuration":631578,"Delta":148693331},{"NoteNumber":69,"Velocity":53,"Duration":631578,"SoundDuration":631578,"Delta":148693331},{"NoteNumber":72,"Velocity":66,"Duration":652174,"SoundDuration":652174,"Delta":149324910},{"NoteNumber":78,"Velocity":66,"Duration":652174,"SoundDuration":652174,"Delta":149324910},{"NoteNumber":38,"Velocity":72,"Duration":652174,"SoundDuration":652174,"Delta":149324910},{"NoteNumber":71,"Velocity":67,"Duration":2161088,"SoundDuration":2161088,"Delta":149977084},{"NoteNumber":74,"Velocity":67,"Duration":2161088,"SoundDuration":2161088,"Delta":149977084},{"NoteNumber":79,"Velocity":78,"Duration":2161088,"SoundDuration":2161088,"Delta":149977084},{"NoteNumber":59,"Velocity":53,"Duration":697674,"SoundDuration":697674,"Delta":149977084},{"NoteNumber":62,"Velocity":53,"Duration":697674,"SoundDuration":697674,"Delta":149977084},{"NoteNumber":67,"Velocity":63,"Duration":697674,"SoundDuration":697674,"Delta":149977084},{"NoteNumber":43,"Velocity":58,"Duration":731707,"SoundDuration":731707,"Delta":150674758},{"NoteNumber":31,"Velocity":63,"Duration":731707,"SoundDuration":731707,"Delta":151406465},{"NoteNumber":67,"Velocity":51,"Duration":312500,"SoundDuration":312500,"Delta":152869879},{"NoteNumber":55,"Velocity":45,"Duration":600961,"SoundDuration":600961,"Delta":152869879},{"NoteNumber":59,"Velocity":45,"Duration":600961,"SoundDuration":600961,"Delta":152869879},{"NoteNumber":62,"Velocity":53,"Duration":600961,"SoundDuration":600961,"Delta":152869879},{"NoteNumber":79,"Velocity":44,"Duration":288461,"SoundDuration":288461,"Delta":153182379},{"NoteNumber":67,"Velocity":51,"Duration":291261,"SoundDuration":291261,"Delta":153470841},{"NoteNumber":43,"Velocity":53,"Duration":291261,"SoundDuration":291261,"Delta":153470841},{"NoteNumber":79,"Velocity":46,"Duration":291261,"SoundDuration":291261,"Delta":153762103},{"NoteNumber":60,"Velocity":40,"Duration":291261,"SoundDuration":291261,"Delta":153762103},{"NoteNumber":64,"Velocity":49,"Duration":291261,"SoundDuration":291261,"Delta":153762103},{"NoteNumber":67,"Velocity":50,"Duration":294117,"SoundDuration":294117,"Delta":154053365},{"NoteNumber":59,"Velocity":45,"Duration":574491,"SoundDuration":574491,"Delta":154053365},{"NoteNumber":62,"Velocity":53,"Duration":574491,"SoundDuration":574491,"Delta":154053365},{"NoteNumber":79,"Velocity":45,"Duration":280373,"SoundDuration":280373,"Delta":154347482},{"NoteNumber":67,"Velocity":50,"Duration":283018,"SoundDuration":283018,"Delta":154627856},{"NoteNumber":60,"Velocity":44,"Duration":566037,"SoundDuration":566037,"Delta":154627856},{"NoteNumber":64,"Velocity":51,"Duration":566037,"SoundDuration":566037,"Delta":154627856},{"NoteNumber":79,"Velocity":47,"Duration":283018,"SoundDuration":283018,"Delta":154910875},{"NoteNumber":67,"Velocity":53,"Duration":294117,"SoundDuration":294117,"Delta":155193894},{"NoteNumber":55,"Velocity":47,"Duration":860357,"SoundDuration":860357,"Delta":155193894},{"NoteNumber":62,"Velocity":47,"Duration":860357,"SoundDuration":860357,"Delta":155193894},{"NoteNumber":65,"Velocity":56,"Duration":860357,"SoundDuration":860357,"Delta":155193894},{"NoteNumber":79,"Velocity":47,"Duration":277778,"SoundDuration":277778,"Delta":155488012},{"NoteNumber":67,"Velocity":53,"Duration":288461,"SoundDuration":288461,"Delta":155765790},{"NoteNumber":79,"Velocity":48,"Duration":280373,"SoundDuration":280373,"Delta":156054251},{"NoteNumber":67,"Velocity":53,"Duration":280373,"SoundDuration":280373,"Delta":156054251},{"NoteNumber":64,"Velocity":45,"Duration":280373,"SoundDuration":280373,"Delta":156054251},{"NoteNumber":67,"Velocity":53,"Duration":277778,"SoundDuration":277778,"Delta":156334625},{"NoteNumber":62,"Velocity":47,"Duration":1144967,"SoundDuration":1144967,"Delta":156334625},{"NoteNumber":65,"Velocity":56,"Duration":1144967,"SoundDuration":1144967,"Delta":156334625},{"NoteNumber":79,"Velocity":48,"Duration":283018,"SoundDuration":283018,"Delta":156612403},{"NoteNumber":67,"Velocity":53,"Duration":287140,"SoundDuration":287140,"Delta":156895422},{"NoteNumber":79,"Velocity":49,"Duration":297029,"SoundDuration":297029,"Delta":157182563},{"NoteNumber":67,"Velocity":57,"Duration":283018,"SoundDuration":283018,"Delta":157479592},{"NoteNumber":55,"Velocity":49,"Duration":563392,"SoundDuration":563392,"Delta":157479592},{"NoteNumber":60,"Velocity":49,"Duration":563392,"SoundDuration":563392,"Delta":157479592},{"NoteNumber":64,"Velocity":59,"Duration":563392,"SoundDuration":563392,"Delta":157479592},{"NoteNumber":79,"Velocity":48,"Duration":280373,"SoundDuration":280373,"Delta":157762611},{"NoteNumber":67,"Velocity":57,"Duration":291261,"SoundDuration":291261,"Delta":158042985},{"NoteNumber":48,"Velocity":59,"Duration":291261,"SoundDuration":291261,"Delta":158042985},{"NoteNumber":79,"Velocity":49,"Duration":280373,"SoundDuration":280373,"Delta":158334247},{"NoteNumber":62,"Velocity":45,"Duration":280373,"SoundDuration":280373,"Delta":158334247},{"NoteNumber":65,"Velocity":55,"Duration":280373,"SoundDuration":280373,"Delta":158334247},{"NoteNumber":67,"Velocity":56,"Duration":285714,"SoundDuration":285714,"Delta":158614621},{"NoteNumber":60,"Velocity":49,"Duration":563492,"SoundDuration":563492,"Delta":158614621},{"NoteNumber":64,"Velocity":59,"Duration":563492,"SoundDuration":563492,"Delta":158614621},{"NoteNumber":79,"Velocity":49,"Duration":277778,"SoundDuration":277778,"Delta":158900336},{"NoteNumber":67,"Velocity":56,"Duration":277778,"SoundDuration":277778,"Delta":159178114},{"NoteNumber":62,"Velocity":48,"Duration":555555,"SoundDuration":555555,"Delta":159178114},{"NoteNumber":65,"Velocity":57,"Duration":555555,"SoundDuration":555555,"Delta":159178114},{"NoteNumber":79,"Velocity":50,"Duration":277777,"SoundDuration":277777,"Delta":159455892},{"NoteNumber":72,"Velocity":59,"Duration":277778,"SoundDuration":277778,"Delta":159733670},{"NoteNumber":60,"Velocity":50,"Duration":836026,"SoundDuration":836026,"Delta":159733670},{"NoteNumber":64,"Velocity":50,"Duration":836026,"SoundDuration":836026,"Delta":159733670},{"NoteNumber":67,"Velocity":60,"Duration":836026,"SoundDuration":836026,"Delta":159733670},{"NoteNumber":79,"Velocity":50,"Duration":275229,"SoundDuration":275229,"Delta":160011448},{"NoteNumber":72,"Velocity":59,"Duration":283018,"SoundDuration":283018,"Delta":160286677},{"NoteNumber":84,"Velocity":51,"Duration":277778,"SoundDuration":277778,"Delta":160569696},{"NoteNumber":69,"Velocity":59,"Duration":277778,"SoundDuration":277778,"Delta":160569696},{"NoteNumber":65,"Velocity":49,"Duration":277778,"SoundDuration":277778,"Delta":160569696},{"NoteNumber":72,"Velocity":59,"Duration":270270,"SoundDuration":270270,"Delta":160847474},{"NoteNumber":64,"Velocity":50,"Duration":1124291,"SoundDuration":1124291,"Delta":160847474},{"NoteNumber":67,"Velocity":60,"Duration":1124291,"SoundDuration":1124291,"Delta":160847474},{"NoteNumber":79,"Velocity":51,"Duration":275229,"SoundDuration":275229,"Delta":161117745},{"NoteNumber":72,"Velocity":59,"Duration":284673,"SoundDuration":284673,"Delta":161392974},{"NoteNumber":84,"Velocity":53,"Duration":294117,"SoundDuration":294117,"Delta":161677648},{"NoteNumber":76,"Velocity":62,"Duration":288461,"SoundDuration":288461,"Delta":161971765},{"NoteNumber":84,"Velocity":88,"Duration":568835,"SoundDuration":568835,"Delta":161971765},{"NoteNumber":69,"Velocity":58,"Duration":568835,"SoundDuration":568835,"Delta":161971765},{"NoteNumber":72,"Velocity":69,"Duration":568835,"SoundDuration":568835,"Delta":161971765},{"NoteNumber":78,"Velocity":65,"Duration":280373,"SoundDuration":280373,"Delta":162260227},{"NoteNumber":79,"Velocity":62,"Duration":291261,"SoundDuration":291261,"Delta":162540601},{"NoteNumber":83,"Velocity":81,"Duration":571635,"SoundDuration":571635,"Delta":162540601},{"NoteNumber":64,"Velocity":53,"Duration":571635,"SoundDuration":571635,"Delta":162540601},{"NoteNumber":71,"Velocity":64,"Duration":571635,"SoundDuration":571635,"Delta":162540601},{"NoteNumber":76,"Velocity":66,"Duration":280373,"SoundDuration":280373,"Delta":162831863},{"NoteNumber":72,"Velocity":72,"Duration":291261,"SoundDuration":291261,"Delta":163112237},{"NoteNumber":81,"Velocity":84,"Duration":582524,"SoundDuration":582524,"Delta":163112237},{"NoteNumber":65,"Velocity":56,"Duration":582524,"SoundDuration":582524,"Delta":163112237},{"NoteNumber":69,"Velocity":67,"Duration":582524,"SoundDuration":582524,"Delta":163112237},{"NoteNumber":74,"Velocity":68,"Duration":291262,"SoundDuration":291262,"Delta":163403499},{"NoteNumber":76,"Velocity":72,"Duration":306122,"SoundDuration":306122,"Delta":163694761},{"NoteNumber":79,"Velocity":79,"Duration":612245,"SoundDuration":612245,"Delta":163694761},{"NoteNumber":60,"Velocity":52,"Duration":612245,"SoundDuration":612245,"Delta":163694761},{"NoteNumber":67,"Velocity":62,"Duration":612245,"SoundDuration":612245,"Delta":163694761},{"NoteNumber":72,"Velocity":65,"Duration":306122,"SoundDuration":306122,"Delta":164000883},{"NoteNumber":69,"Velocity":69,"Duration":297029,"SoundDuration":297029,"Delta":164307006},{"NoteNumber":72,"Velocity":81,"Duration":603151,"SoundDuration":603151,"Delta":164307006},{"NoteNumber":53,"Velocity":53,"Duration":1200299,"SoundDuration":1200299,"Delta":164307006},{"NoteNumber":60,"Velocity":64,"Duration":1200299,"SoundDuration":1200299,"Delta":164307006},{"NoteNumber":65,"Velocity":63,"Duration":306122,"SoundDuration":306122,"Delta":164604035},{"NoteNumber":69,"Velocity":72,"Duration":597148,"SoundDuration":597148,"Delta":164910158},{"NoteNumber":65,"Velocity":60,"Duration":294117,"SoundDuration":294117,"Delta":165213188},{"NoteNumber":67,"Velocity":79,"Duration":606061,"SoundDuration":606061,"Delta":165507306},{"NoteNumber":49,"Velocity":53,"Duration":606061,"SoundDuration":606061,"Delta":165507306},{"NoteNumber":58,"Velocity":63,"Duration":606061,"SoundDuration":606061,"Delta":165507306},{"NoteNumber":64,"Velocity":66,"Duration":303030,"SoundDuration":303030,"Delta":165810336},{"NoteNumber":65,"Velocity":78,"Duration":625610,"SoundDuration":625610,"Delta":166113367},{"NoteNumber":50,"Velocity":49,"Duration":625610,"SoundDuration":625610,"Delta":166113367},{"NoteNumber":57,"Velocity":58,"Duration":625610,"SoundDuration":625610,"Delta":166113367},{"NoteNumber":62,"Velocity":63,"Duration":322580,"SoundDuration":322580,"Delta":166416397},{"NoteNumber":60,"Velocity":81,"Duration":1237442,"SoundDuration":1237442,"Delta":166738978},{"NoteNumber":64,"Velocity":81,"Duration":1237442,"SoundDuration":1237442,"Delta":166738978},{"NoteNumber":43,"Velocity":50,"Duration":306122,"SoundDuration":306122,"Delta":166738978},{"NoteNumber":55,"Velocity":37,"Duration":315789,"SoundDuration":315789,"Delta":167045100},{"NoteNumber":43,"Velocity":48,"Duration":303030,"SoundDuration":303030,"Delta":167360890},{"NoteNumber":55,"Velocity":41,"Duration":312500,"SoundDuration":312500,"Delta":167663920},{"NoteNumber":60,"Velocity":48,"Duration":621778,"SoundDuration":621778,"Delta":167976420},{"NoteNumber":62,"Velocity":72,"Duration":1304389,"SoundDuration":1304389,"Delta":167976420},{"NoteNumber":43,"Velocity":37,"Duration":309278,"SoundDuration":309278,"Delta":167976420},{"NoteNumber":55,"Velocity":30,"Duration":312500,"SoundDuration":312500,"Delta":168285699},{"NoteNumber":59,"Velocity":48,"Duration":682611,"SoundDuration":682611,"Delta":168598199},{"NoteNumber":43,"Velocity":37,"Duration":329670,"SoundDuration":329670,"Delta":168598199},{"NoteNumber":55,"Velocity":29,"Duration":352940,"SoundDuration":352940,"Delta":168927869},{"NoteNumber":60,"Velocity":67,"Duration":617365,"SoundDuration":617365,"Delta":169280810},{"NoteNumber":48,"Velocity":38,"Duration":315789,"SoundDuration":315789,"Delta":169280810},{"NoteNumber":52,"Velocity":38,"Duration":315789,"SoundDuration":315789,"Delta":169280810},{"NoteNumber":48,"Velocity":42,"Duration":301576,"SoundDuration":301576,"Delta":169596600},{"NoteNumber":52,"Velocity":45,"Duration":306122,"SoundDuration":306122,"Delta":169898176},{"NoteNumber":55,"Velocity":48,"Duration":283018,"SoundDuration":283018,"Delta":170204298},{"NoteNumber":60,"Velocity":50,"Duration":283018,"SoundDuration":283018,"Delta":170487317},{"NoteNumber":64,"Velocity":41,"Duration":288461,"SoundDuration":288461,"Delta":170770336},{"NoteNumber":67,"Velocity":45,"Duration":285714,"SoundDuration":285714,"Delta":171058798},{"NoteNumber":72,"Velocity":49,"Duration":285714,"SoundDuration":285714,"Delta":171344512},{"NoteNumber":71,"Velocity":44,"Duration":880808,"SoundDuration":880808,"Delta":171630227},{"NoteNumber":74,"Velocity":53,"Duration":880808,"SoundDuration":880808,"Delta":171630227},{"NoteNumber":67,"Velocity":48,"Duration":577778,"SoundDuration":577778,"Delta":171630227},{"NoteNumber":67,"Velocity":48,"Duration":1180167,"SoundDuration":1180167,"Delta":172208005},{"NoteNumber":72,"Velocity":41,"Duration":294117,"SoundDuration":294117,"Delta":172511035},{"NoteNumber":76,"Velocity":50,"Duration":294117,"SoundDuration":294117,"Delta":172511035},{"NoteNumber":71,"Velocity":44,"Duration":583019,"SoundDuration":583019,"Delta":172805153},{"NoteNumber":74,"Velocity":53,"Duration":583019,"SoundDuration":583019,"Delta":172805153},{"NoteNumber":72,"Velocity":42,"Duration":588234,"SoundDuration":588234,"Delta":173388172},{"NoteNumber":76,"Velocity":52,"Duration":588234,"SoundDuration":588234,"Delta":173388172},{"NoteNumber":67,"Velocity":41,"Duration":1138879,"SoundDuration":1138879,"Delta":173388172},{"NoteNumber":74,"Velocity":46,"Duration":825873,"SoundDuration":825873,"Delta":173976407},{"NoteNumber":77,"Velocity":55,"Duration":825873,"SoundDuration":825873,"Delta":173976407},{"NoteNumber":67,"Velocity":42,"Duration":1132526,"SoundDuration":1132526,"Delta":174527051},{"NoteNumber":79,"Velocity":53,"Duration":280373,"SoundDuration":280373,"Delta":174802281},{"NoteNumber":76,"Velocity":44,"Duration":280373,"SoundDuration":280373,"Delta":174802281},{"NoteNumber":74,"Velocity":46,"Duration":1165158,"SoundDuration":1165158,"Delta":175082655},{"NoteNumber":77,"Velocity":55,"Duration":1165158,"SoundDuration":1165158,"Delta":175082655},{"NoteNumber":68,"Velocity":48,"Duration":588235,"SoundDuration":588235,"Delta":175659578},{"NoteNumber":72,"Velocity":49,"Duration":835977,"SoundDuration":835977,"Delta":176247813},{"NoteNumber":76,"Velocity":58,"Duration":835977,"SoundDuration":835977,"Delta":176247813},{"NoteNumber":69,"Velocity":48,"Duration":555603,"SoundDuration":555603,"Delta":176247813},{"NoteNumber":69,"Velocity":44,"Duration":563392,"SoundDuration":563392,"Delta":176803416},{"NoteNumber":74,"Velocity":44,"Duration":283018,"SoundDuration":283018,"Delta":177083790},{"NoteNumber":77,"Velocity":53,"Duration":283018,"SoundDuration":283018,"Delta":177083790},{"NoteNumber":72,"Velocity":49,"Duration":574280,"SoundDuration":574280,"Delta":177366809},{"NoteNumber":76,"Velocity":58,"Duration":574280,"SoundDuration":574280,"Delta":177366809},{"NoteNumber":67,"Velocity":44,"Duration":574280,"SoundDuration":574280,"Delta":177366809},{"NoteNumber":72,"Velocity":48,"Duration":582524,"SoundDuration":582524,"Delta":177941090},{"NoteNumber":77,"Velocity":56,"Duration":582524,"SoundDuration":582524,"Delta":177941090},{"NoteNumber":65,"Velocity":48,"Duration":582524,"SoundDuration":582524,"Delta":177941090},{"NoteNumber":69,"Velocity":48,"Duration":582524,"SoundDuration":582524,"Delta":177941090},{"NoteNumber":72,"Velocity":51,"Duration":835977,"SoundDuration":835977,"Delta":178523614},{"NoteNumber":79,"Velocity":61,"Duration":835977,"SoundDuration":835977,"Delta":178523614},{"NoteNumber":64,"Velocity":48,"Duration":555603,"SoundDuration":555603,"Delta":178523614},{"NoteNumber":67,"Velocity":48,"Duration":555603,"SoundDuration":555603,"Delta":178523614},{"NoteNumber":63,"Velocity":46,"Duration":566088,"SoundDuration":566088,"Delta":179079218},{"NoteNumber":66,"Velocity":46,"Duration":566088,"SoundDuration":566088,"Delta":179079218},{"NoteNumber":81,"Velocity":60,"Duration":285714,"SoundDuration":285714,"Delta":179359592},{"NoteNumber":71,"Velocity":55,"Duration":1192072,"SoundDuration":1192072,"Delta":179645306},{"NoteNumber":79,"Velocity":64,"Duration":1192072,"SoundDuration":1192072,"Delta":179645306},{"NoteNumber":62,"Velocity":47,"Duration":582524,"SoundDuration":582524,"Delta":179645306},{"NoteNumber":65,"Velocity":47,"Duration":582524,"SoundDuration":582524,"Delta":179645306},{"NoteNumber":67,"Velocity":49,"Duration":609548,"SoundDuration":609548,"Delta":180227830},{"NoteNumber":76,"Velocity":62,"Duration":1163453,"SoundDuration":1163453,"Delta":180837379},{"NoteNumber":84,"Velocity":88,"Duration":580048,"SoundDuration":580048,"Delta":180837379},{"NoteNumber":60,"Velocity":58,"Duration":1163453,"SoundDuration":1163453,"Delta":180837379},{"NoteNumber":67,"Velocity":69,"Duration":1163453,"SoundDuration":1163453,"Delta":180837379},{"NoteNumber":83,"Velocity":79,"Duration":583404,"SoundDuration":583404,"Delta":181417428},{"NoteNumber":77,"Velocity":72,"Duration":1182293,"SoundDuration":1182293,"Delta":182000832},{"NoteNumber":81,"Velocity":84,"Duration":594058,"SoundDuration":594058,"Delta":182000832},{"NoteNumber":53,"Velocity":56,"Duration":1182293,"SoundDuration":1182293,"Delta":182000832},{"NoteNumber":60,"Velocity":67,"Duration":1182293,"SoundDuration":1182293,"Delta":182000832},{"NoteNumber":83,"Velocity":79,"Duration":588234,"SoundDuration":588234,"Delta":182594891},{"NoteNumber":76,"Velocity":69,"Duration":1209393,"SoundDuration":1209393,"Delta":183183126},{"NoteNumber":84,"Velocity":81,"Duration":612245,"SoundDuration":612245,"Delta":183183126},{"NoteNumber":48,"Velocity":53,"Duration":1209393,"SoundDuration":1209393,"Delta":183183126},{"NoteNumber":55,"Velocity":53,"Duration":1209393,"SoundDuration":1209393,"Delta":183183126},{"NoteNumber":60,"Velocity":64,"Duration":1209393,"SoundDuration":1209393,"Delta":183183126},{"NoteNumber":79,"Velocity":78,"Duration":597148,"SoundDuration":597148,"Delta":183795371},{"NoteNumber":69,"Velocity":62,"Duration":1221591,"SoundDuration":1221591,"Delta":184392519},{"NoteNumber":74,"Velocity":62,"Duration":1221591,"SoundDuration":1221591,"Delta":184392519},{"NoteNumber":79,"Velocity":79,"Duration":606061,"SoundDuration":606061,"Delta":184392519},{"NoteNumber":41,"Velocity":53,"Duration":1221591,"SoundDuration":1221591,"Delta":184392519},{"NoteNumber":53,"Velocity":63,"Duration":1221591,"SoundDuration":1221591,"Delta":184392519},{"NoteNumber":77,"Velocity":78,"Duration":615530,"SoundDuration":615530,"Delta":184998580},{"NoteNumber":67,"Velocity":64,"Duration":1250000,"SoundDuration":1250000,"Delta":185614111},{"NoteNumber":72,"Velocity":64,"Duration":1250000,"SoundDuration":1250000,"Delta":185614111},{"NoteNumber":76,"Velocity":77,"Duration":1250000,"SoundDuration":1250000,"Delta":185614111},{"NoteNumber":55,"Velocity":46,"Duration":1250000,"SoundDuration":1250000,"Delta":185614111},{"NoteNumber":43,"Velocity":37,"Duration":1250000,"SoundDuration":1250000,"Delta":185614111},{"NoteNumber":65,"Velocity":61,"Duration":1270161,"SoundDuration":1270161,"Delta":186864111},{"NoteNumber":74,"Velocity":61,"Duration":1270161,"SoundDuration":1270161,"Delta":186864111},{"NoteNumber":43,"Velocity":39,"Duration":1270161,"SoundDuration":1270161,"Delta":186864111},{"NoteNumber":55,"Velocity":39,"Duration":1270161,"SoundDuration":1270161,"Delta":186864111},{"NoteNumber":72,"Velocity":61,"Duration":625294,"SoundDuration":625294,"Delta":186873225},{"NoteNumber":71,"Velocity":55,"Duration":644572,"SoundDuration":644572,"Delta":187470882},{"NoteNumber":64,"Velocity":48,"Duration":1167488,"SoundDuration":1167488,"Delta":188134272},{"NoteNumber":67,"Velocity":48,"Duration":1167488,"SoundDuration":1167488,"Delta":188134272},{"NoteNumber":72,"Velocity":48,"Duration":2305159,"SoundDuration":2305159,"Delta":188134272},{"NoteNumber":36,"Velocity":36,"Duration":301818,"SoundDuration":301818,"Delta":188134272},{"NoteNumber":48,"Velocity":29,"Duration":295072,"SoundDuration":295072,"Delta":188436090},{"NoteNumber":36,"Velocity":30,"Duration":288442,"SoundDuration":288442,"Delta":188731163},{"NoteNumber":48,"Velocity":30,"Duration":282154,"SoundDuration":282154,"Delta":189019605},{"NoteNumber":64,"Velocity":38,"Duration":1137670,"SoundDuration":1137670,"Delta":189301760},{"NoteNumber":67,"Velocity":38,"Duration":1137670,"SoundDuration":1137670,"Delta":189301760},{"NoteNumber":36,"Velocity":28,"Duration":280373,"SoundDuration":280373,"Delta":189301760},{"NoteNumber":48,"Velocity":28,"Duration":280373,"SoundDuration":280373,"Delta":189582134},{"NoteNumber":36,"Velocity":28,"Duration":288461,"SoundDuration":288461,"Delta":189862508},{"NoteNumber":48,"Velocity":28,"Duration":288461,"SoundDuration":288461,"Delta":190150969},{"NoteNumber":62,"Velocity":38,"Duration":1121496,"SoundDuration":1121496,"Delta":190439431},{"NoteNumber":67,"Velocity":38,"Duration":1121496,"SoundDuration":1121496,"Delta":190439431},{"NoteNumber":71,"Velocity":38,"Duration":1121496,"SoundDuration":1121496,"Delta":190439431},{"NoteNumber":36,"Velocity":34,"Duration":280373,"SoundDuration":280373,"Delta":190439431},{"NoteNumber":48,"Velocity":29,"Duration":280373,"SoundDuration":280373,"Delta":190719805},{"NoteNumber":36,"Velocity":29,"Duration":280374,"SoundDuration":280374,"Delta":191000179},{"NoteNumber":48,"Velocity":29,"Duration":280373,"SoundDuration":280373,"Delta":191280553},{"NoteNumber":60,"Velocity":38,"Duration":1165048,"SoundDuration":1165048,"Delta":191560927},{"NoteNumber":65,"Velocity":38,"Duration":1165048,"SoundDuration":1165048,"Delta":191560927},{"NoteNumber":69,"Velocity":38,"Duration":1165048,"SoundDuration":1165048,"Delta":191560927},{"NoteNumber":36,"Velocity":29,"Duration":291261,"SoundDuration":291261,"Delta":191560927},{"NoteNumber":48,"Velocity":29,"Duration":291262,"SoundDuration":291262,"Delta":191852189},{"NoteNumber":36,"Velocity":29,"Duration":291261,"SoundDuration":291261,"Delta":192143451},{"NoteNumber":48,"Velocity":29,"Duration":291262,"SoundDuration":291262,"Delta":192434713},{"NoteNumber":62,"Velocity":38,"Duration":1111111,"SoundDuration":1111111,"Delta":192725975},{"NoteNumber":67,"Velocity":38,"Duration":1111111,"SoundDuration":1111111,"Delta":192725975},{"NoteNumber":71,"Velocity":38,"Duration":1111111,"SoundDuration":1111111,"Delta":192725975},{"NoteNumber":36,"Velocity":33,"Duration":277778,"SoundDuration":277778,"Delta":192725975},{"NoteNumber":48,"Velocity":28,"Duration":277777,"SoundDuration":277777,"Delta":193003753},{"NoteNumber":36,"Velocity":28,"Duration":277778,"SoundDuration":277778,"Delta":193281531},{"NoteNumber":48,"Velocity":28,"Duration":277777,"SoundDuration":277777,"Delta":193559309},{"NoteNumber":64,"Velocity":38,"Duration":1142960,"SoundDuration":1142960,"Delta":193837087},{"NoteNumber":67,"Velocity":38,"Duration":1142960,"SoundDuration":1142960,"Delta":193837087},{"NoteNumber":36,"Velocity":28,"Duration":288461,"SoundDuration":288461,"Delta":193837087},{"NoteNumber":48,"Velocity":28,"Duration":288461,"SoundDuration":288461,"Delta":194125548},{"NoteNumber":36,"Velocity":28,"Duration":283018,"SoundDuration":283018,"Delta":194414010},{"NoteNumber":48,"Velocity":28,"Duration":283018,"SoundDuration":283018,"Delta":194697029},{"NoteNumber":65,"Velocity":41,"Duration":1111111,"SoundDuration":1111111,"Delta":194980048},{"NoteNumber":69,"Velocity":41,"Duration":1111111,"SoundDuration":1111111,"Delta":194980048},{"NoteNumber":72,"Velocity":41,"Duration":1111111,"SoundDuration":1111111,"Delta":194980048},{"NoteNumber":36,"Velocity":34,"Duration":277778,"SoundDuration":277778,"Delta":194980048},{"NoteNumber":48,"Velocity":34,"Duration":277777,"SoundDuration":277777,"Delta":195257826},{"NoteNumber":36,"Velocity":35,"Duration":277778,"SoundDuration":277778,"Delta":195535604},{"NoteNumber":48,"Velocity":36,"Duration":277777,"SoundDuration":277777,"Delta":195813382},{"NoteNumber":65,"Velocity":50,"Duration":1130363,"SoundDuration":1130363,"Delta":196091160},{"NoteNumber":71,"Velocity":50,"Duration":1130363,"SoundDuration":1130363,"Delta":196091160},{"NoteNumber":74,"Velocity":50,"Duration":1130363,"SoundDuration":1130363,"Delta":196091160},{"NoteNumber":36,"Velocity":37,"Duration":277778,"SoundDuration":277778,"Delta":196091160},{"NoteNumber":48,"Velocity":37,"Duration":277777,"SoundDuration":277777,"Delta":196368938},{"NoteNumber":36,"Velocity":38,"Duration":277778,"SoundDuration":277778,"Delta":196646716},{"NoteNumber":48,"Velocity":39,"Duration":297029,"SoundDuration":297029,"Delta":196924494},{"NoteNumber":72,"Velocity":60,"Duration":1677052,"SoundDuration":1677052,"Delta":197221523},{"NoteNumber":76,"Velocity":60,"Duration":1677052,"SoundDuration":1677052,"Delta":197221523},{"NoteNumber":79,"Velocity":60,"Duration":1677052,"SoundDuration":1677052,"Delta":197221523},{"NoteNumber":36,"Velocity":40,"Duration":280373,"SoundDuration":280373,"Delta":197221523},{"NoteNumber":48,"Velocity":40,"Duration":280373,"SoundDuration":280373,"Delta":197501897},{"NoteNumber":36,"Velocity":41,"Duration":280374,"SoundDuration":280374,"Delta":197782271},{"NoteNumber":48,"Velocity":42,"Duration":280373,"SoundDuration":280373,"Delta":198062645},{"NoteNumber":36,"Velocity":44,"Duration":277778,"SoundDuration":277778,"Delta":198343019},{"NoteNumber":48,"Velocity":46,"Duration":277777,"SoundDuration":277777,"Delta":198620797},{"NoteNumber":74,"Velocity":60,"Duration":583404,"SoundDuration":583404,"Delta":198898575},{"NoteNumber":65,"Velocity":60,"Duration":583404,"SoundDuration":583404,"Delta":198898575},{"NoteNumber":69,"Velocity":60,"Duration":583404,"SoundDuration":583404,"Delta":198898575},{"NoteNumber":72,"Velocity":60,"Duration":583404,"SoundDuration":583404,"Delta":198898575},{"NoteNumber":36,"Velocity":47,"Duration":280373,"SoundDuration":280373,"Delta":198898575},{"NoteNumber":48,"Velocity":48,"Duration":303030,"SoundDuration":303030,"Delta":199178949},{"NoteNumber":72,"Velocity":70,"Duration":1651652,"SoundDuration":1651652,"Delta":199481980},{"NoteNumber":76,"Velocity":70,"Duration":1651652,"SoundDuration":1651652,"Delta":199481980},{"NoteNumber":79,"Velocity":70,"Duration":1651652,"SoundDuration":1651652,"Delta":199481980},{"NoteNumber":36,"Velocity":49,"Duration":277778,"SoundDuration":277778,"Delta":199481980},{"NoteNumber":48,"Velocity":42,"Duration":277777,"SoundDuration":277777,"Delta":199759758},{"NoteNumber":36,"Velocity":42,"Duration":277778,"SoundDuration":277778,"Delta":200037536},{"NoteNumber":48,"Velocity":42,"Duration":277777,"SoundDuration":277777,"Delta":200315314},{"NoteNumber":36,"Velocity":42,"Duration":270270,"SoundDuration":270270,"Delta":200593092},{"NoteNumber":48,"Velocity":42,"Duration":270270,"SoundDuration":270270,"Delta":200863362},{"NoteNumber":65,"Velocity":59,"Duration":574807,"SoundDuration":574807,"Delta":201133633},{"NoteNumber":69,"Velocity":59,"Duration":574807,"SoundDuration":574807,"Delta":201133633},{"NoteNumber":72,"Velocity":59,"Duration":574807,"SoundDuration":574807,"Delta":201133633},{"NoteNumber":74,"Velocity":59,"Duration":574807,"SoundDuration":574807,"Delta":201133633},{"NoteNumber":36,"Velocity":35,"Duration":277778,"SoundDuration":277778,"Delta":201133633},{"NoteNumber":48,"Velocity":35,"Duration":297029,"SoundDuration":297029,"Delta":201411411},{"NoteNumber":72,"Velocity":67,"Duration":1666951,"SoundDuration":1666951,"Delta":201708440},{"NoteNumber":76,"Velocity":67,"Duration":1666951,"SoundDuration":1666951,"Delta":201708440},{"NoteNumber":79,"Velocity":67,"Duration":1666951,"SoundDuration":1666951,"Delta":201708440},{"NoteNumber":36,"Velocity":42,"Duration":280373,"SoundDuration":280373,"Delta":201708440},{"NoteNumber":48,"Velocity":35,"Duration":280373,"SoundDuration":280373,"Delta":201988814},{"NoteNumber":36,"Velocity":34,"Duration":280374,"SoundDuration":280374,"Delta":202269188},{"NoteNumber":48,"Velocity":33,"Duration":280373,"SoundDuration":280373,"Delta":202549562},{"NoteNumber":36,"Velocity":31,"Duration":272727,"SoundDuration":272727,"Delta":202829936},{"NoteNumber":48,"Velocity":30,"Duration":272727,"SoundDuration":272727,"Delta":203102664},{"NoteNumber":65,"Velocity":48,"Duration":577778,"SoundDuration":577778,"Delta":203375391},{"NoteNumber":69,"Velocity":48,"Duration":577778,"SoundDuration":577778,"Delta":203375391},{"NoteNumber":72,"Velocity":48,"Duration":577778,"SoundDuration":577778,"Delta":203375391},{"NoteNumber":74,"Velocity":48,"Duration":577778,"SoundDuration":577778,"Delta":203375391},{"NoteNumber":36,"Velocity":29,"Duration":277778,"SoundDuration":277778,"Delta":203375391},{"NoteNumber":48,"Velocity":29,"Duration":300000,"SoundDuration":300000,"Delta":203653169},{"NoteNumber":72,"Velocity":53,"Duration":571895,"SoundDuration":571895,"Delta":203953169},{"NoteNumber":76,"Velocity":53,"Duration":571895,"SoundDuration":571895,"Delta":203953169},{"NoteNumber":79,"Velocity":53,"Duration":571895,"SoundDuration":571895,"Delta":203953169},{"NoteNumber":36,"Velocity":29,"Duration":263889,"SoundDuration":263889,"Delta":203953169},{"NoteNumber":36,"Velocity":28,"Duration":294117,"SoundDuration":294117,"Delta":204230947},{"NoteNumber":40,"Velocity":29,"Duration":294117,"SoundDuration":294117,"Delta":204525065},{"NoteNumber":43,"Velocity":30,"Duration":294117,"SoundDuration":294117,"Delta":204819182},{"NoteNumber":48,"Velocity":31,"Duration":294117,"SoundDuration":294117,"Delta":205113300},{"NoteNumber":52,"Velocity":30,"Duration":294117,"SoundDuration":294117,"Delta":205407417},{"NoteNumber":55,"Velocity":31,"Duration":294117,"SoundDuration":294117,"Delta":205701535},{"NoteNumber":60,"Velocity":34,"Duration":294117,"SoundDuration":294117,"Delta":205995652},{"NoteNumber":64,"Velocity":35,"Duration":294117,"SoundDuration":294117,"Delta":206289770},{"NoteNumber":67,"Velocity":31,"Duration":294117,"SoundDuration":294117,"Delta":206583887},{"NoteNumber":72,"Velocity":33,"Duration":294117,"SoundDuration":294117,"Delta":206878005},{"NoteNumber":76,"Velocity":34,"Duration":322580,"SoundDuration":322580,"Delta":207172122},{"NoteNumber":79,"Velocity":35,"Duration":322580,"SoundDuration":322580,"Delta":207494703},{"NoteNumber":84,"Velocity":34,"Duration":322580,"SoundDuration":322580,"Delta":207817283},{"NoteNumber":88,"Velocity":36,"Duration":322580,"SoundDuration":322580,"Delta":208139864},{"NoteNumber":91,"Velocity":38,"Duration":370370,"SoundDuration":370370,"Delta":208462444},{"NoteNumber":88,"Velocity":39,"Duration":1836735,"SoundDuration":1836735,"Delta":208832815},{"NoteNumber":91,"Velocity":39,"Duration":1836735,"SoundDuration":1836735,"Delta":208832815},{"NoteNumber":96,"Velocity":39,"Duration":1836735,"SoundDuration":1836735,"Delta":208832815},{"NoteNumber":72,"Velocity":34,"Duration":1836735,"SoundDuration":1836735,"Delta":208832815},{"NoteNumber":79,"Velocity":34,"Duration":1836735,"SoundDuration":1836735,"Delta":208832815},{"NoteNumber":64,"Velocity":30,"Duration":1251315,"SoundDuration":1251315,"Delta":211281795},{"NoteNumber":67,"Velocity":30,"Duration":1251315,"SoundDuration":1251315,"Delta":211281795},{"NoteNumber":72,"Velocity":36,"Duration":1251315,"SoundDuration":1251315,"Delta":211281795},{"NoteNumber":48,"Velocity":24,"Duration":1251315,"SoundDuration":1251315,"Delta":211281795},{"NoteNumber":55,"Velocity":28,"Duration":1251315,"SoundDuration":1251315,"Delta":211281795},{"NoteNumber":64,"Velocity":30,"Duration":1251315,"SoundDuration":1251315,"Delta":212544953},{"NoteNumber":67,"Velocity":30,"Duration":1251315,"SoundDuration":1251315,"Delta":212544953},{"NoteNumber":72,"Velocity":36,"Duration":1251315,"SoundDuration":1251315,"Delta":212544953},{"NoteNumber":48,"Velocity":24,"Duration":1251315,"SoundDuration":1251315,"Delta":212544953},{"NoteNumber":55,"Velocity":28,"Duration":1251315,"SoundDuration":1251315,"Delta":212544953},{"NoteNumber":64,"Velocity":30,"Duration":1818183,"SoundDuration":1818183,"Delta":213808111},{"NoteNumber":67,"Velocity":30,"Duration":1818183,"SoundDuration":1818183,"Delta":213808111},{"NoteNumber":72,"Velocity":36,"Duration":1818183,"SoundDuration":1818183,"Delta":213808111},{"NoteNumber":48,"Velocity":24,"Duration":1818183,"SoundDuration":1818183,"Delta":213808111},{"NoteNumber":55,"Velocity":28,"Duration":1818183,"SoundDuration":1818183,"Delta":213808111},{"NoteNumber":67,"Velocity":29,"Duration":1818183,"SoundDuration":1818183,"Delta":216232355},{"NoteNumber":72,"Velocity":29,"Duration":1818183,"SoundDuration":1818183,"Delta":216232355},{"NoteNumber":76,"Velocity":35,"Duration":1818183,"SoundDuration":1818183,"Delta":216232355},{"NoteNumber":48,"Velocity":24,"Duration":1818183,"SoundDuration":1818183,"Delta":216232355},{"NoteNumber":55,"Velocity":28,"Duration":1818183,"SoundDuration":1818183,"Delta":216232355},{"NoteNumber":52,"Velocity":29,"Duration":5454545,"SoundDuration":5454545,"Delta":218656599},{"NoteNumber":55,"Velocity":29,"Duration":5454545,"SoundDuration":5454545,"Delta":218656599},{"NoteNumber":60,"Velocity":35,"Duration":5454545,"SoundDuration":5454545,"Delta":218656599},{"NoteNumber":36,"Velocity":28,"Duration":5454545,"SoundDuration":5454545,"Delta":218656599}],"license":{"name":"Creative Commons Attribution-ShareAlike 3.0 Germany","url":"http://creativecommons.org/licenses/by-sa/3.0/de/deed.en","text":"The MIDI, audio (MP3, OGG) and video files of Bernd Krueger are licensed under the cc-by-sa Germany License. This means that you can use and adapt the files, as long as you attribute the copyright holder.\n\nName: Bernd Krueger\nSource: http://www.piano-midi.de\n\nThe distribution or public playback of the files is only allowed under identical license conditions.\n\nThe scores are open source.","attribution":"MIDI files by Bernd Krueger (piano-midi.de)","attributionUrl":"http://www.piano-midi.de"}}