{"title":"Weihnachts-Fantasie","artist":"Christmas","durationMs":495791,"midiSha256":"61b232a4540f3876c83f7eb9af6380a49cee25138e07c2ca744d9f5add56840b","midiObject":[{"NoteNumber":39,"Velocity":70,"Duration":625889,"SoundDuration":625889,"Delta":0},{"NoteNumber":51,"Velocity":84,"Duration":625889,"SoundDuration":625889,"Delta":0},{"NoteNumber":58,"Velocity":74,"Duration":610314,"SoundDuration":610314,"Delta":601504},{"NoteNumber":46,"Velocity":63,"Duration":610314,"SoundDuration":610314,"Delta":601504},{"NoteNumber":39,"Velocity":70,"Duration":626023,"SoundDuration":626023,"Delta":1186756},{"NoteNumber":51,"Velocity":84,"Duration":626023,"SoundDuration":626023,"Delta":1186756},{"NoteNumber":34,"Velocity":62,"Duration":613528,"SoundDuration":613528,"Delta":1788260},{"NoteNumber":46,"Velocity":73,"Duration":613528,"SoundDuration":613528,"Delta":1788260},{"NoteNumber":39,"Velocity":75,"Duration":626023,"SoundDuration":626023,"Delta":2376725},{"NoteNumber":27,"Velocity":63,"Duration":626023,"SoundDuration":626023,"Delta":2376725},{"NoteNumber":34,"Velocity":58,"Duration":588465,"SoundDuration":588465,"Delta":2978230},{"NoteNumber":46,"Velocity":69,"Duration":588465,"SoundDuration":588465,"Delta":2978230},{"NoteNumber":39,"Velocity":70,"Duration":625889,"SoundDuration":625889,"Delta":3566696},{"NoteNumber":51,"Velocity":84,"Duration":625889,"SoundDuration":625889,"Delta":3566696},{"NoteNumber":58,"Velocity":74,"Duration":610314,"SoundDuration":610314,"Delta":4168199},{"NoteNumber":46,"Velocity":63,"Duration":610314,"SoundDuration":610314,"Delta":4168199},{"NoteNumber":39,"Velocity":70,"Duration":625889,"SoundDuration":625889,"Delta":4753451},{"NoteNumber":51,"Velocity":84,"Duration":625889,"SoundDuration":625889,"Delta":4753451},{"NoteNumber":46,"Velocity":73,"Duration":610314,"SoundDuration":610314,"Delta":5354956},{"NoteNumber":34,"Velocity":62,"Duration":610314,"SoundDuration":610314,"Delta":5354956},{"NoteNumber":27,"Velocity":64,"Duration":626156,"SoundDuration":626156,"Delta":5940207},{"NoteNumber":39,"Velocity":77,"Duration":626156,"SoundDuration":626156,"Delta":5940207},{"NoteNumber":34,"Velocity":60,"Duration":591657,"SoundDuration":591657,"Delta":6541711},{"NoteNumber":46,"Velocity":72,"Duration":591657,"SoundDuration":591657,"Delta":6541711},{"NoteNumber":70,"Velocity":84,"Duration":1153138,"SoundDuration":1153138,"Delta":7133369},{"NoteNumber":75,"Velocity":84,"Duration":1153138,"SoundDuration":1153138,"Delta":7133369},{"NoteNumber":67,"Velocity":70,"Duration":1153138,"SoundDuration":1153138,"Delta":7133369},{"NoteNumber":63,"Velocity":70,"Duration":1153138,"SoundDuration":1153138,"Delta":7133369},{"NoteNumber":51,"Velocity":84,"Duration":588235,"SoundDuration":588235,"Delta":7133369},{"NoteNumber":39,"Velocity":70,"Duration":588235,"SoundDuration":588235,"Delta":7133369},{"NoteNumber":58,"Velocity":73,"Duration":576922,"SoundDuration":576922,"Delta":7721604},{"NoteNumber":46,"Velocity":62,"Duration":576922,"SoundDuration":576922,"Delta":7721604},{"NoteNumber":63,"Velocity":68,"Duration":1159663,"SoundDuration":1159663,"Delta":8298527},{"NoteNumber":67,"Velocity":68,"Duration":1159663,"SoundDuration":1159663,"Delta":8298527},{"NoteNumber":72,"Velocity":81,"Duration":1159663,"SoundDuration":1159663,"Delta":8298527},{"NoteNumber":75,"Velocity":81,"Duration":1159663,"SoundDuration":1159663,"Delta":8298527},{"NoteNumber":48,"Velocity":70,"Duration":588234,"SoundDuration":588234,"Delta":8298527},{"NoteNumber":60,"Velocity":84,"Duration":588234,"SoundDuration":588234,"Delta":8298527},{"NoteNumber":43,"Velocity":64,"Duration":571429,"SoundDuration":571429,"Delta":8886762},{"NoteNumber":55,"Velocity":75,"Duration":571429,"SoundDuration":571429,"Delta":8886762},{"NoteNumber":70,"Velocity":70,"Duration":1159663,"SoundDuration":1159663,"Delta":9458191},{"NoteNumber":74,"Velocity":70,"Duration":1159663,"SoundDuration":1159663,"Delta":9458191},{"NoteNumber":77,"Velocity":84,"Duration":1159663,"SoundDuration":1159663,"Delta":9458191},{"NoteNumber":82,"Velocity":84,"Duration":1159663,"SoundDuration":1159663,"Delta":9458191},{"NoteNumber":50,"Velocity":80,"Duration":588234,"SoundDuration":588234,"Delta":9458191},{"NoteNumber":38,"Velocity":67,"Duration":588234,"SoundDuration":588234,"Delta":9458191},{"NoteNumber":34,"Velocity":62,"Duration":571429,"SoundDuration":571429,"Delta":10046426},{"NoteNumber":46,"Velocity":74,"Duration":571429,"SoundDuration":571429,"Delta":10046426},{"NoteNumber":67,"Velocity":70,"Duration":1165076,"SoundDuration":1165076,"Delta":10617855},{"NoteNumber":70,"Velocity":70,"Duration":1165076,"SoundDuration":1165076,"Delta":10617855},{"NoteNumber":75,"Velocity":84,"Duration":1165076,"SoundDuration":1165076,"Delta":10617855},{"NoteNumber":79,"Velocity":84,"Duration":1165076,"SoundDuration":1165076,"Delta":10617855},{"NoteNumber":39,"Velocity":70,"Duration":585366,"SoundDuration":585366,"Delta":10617855},{"NoteNumber":51,"Velocity":84,"Duration":585366,"SoundDuration":585366,"Delta":10617855},{"NoteNumber":46,"Velocity":62,"Duration":579710,"SoundDuration":579710,"Delta":11203221},{"NoteNumber":58,"Velocity":73,"Duration":579710,"SoundDuration":579710,"Delta":11203221},{"NoteNumber":65,"Velocity":68,"Duration":1160409,"SoundDuration":1160409,"Delta":11782931},{"NoteNumber":70,"Velocity":68,"Duration":1160409,"SoundDuration":1160409,"Delta":11782931},{"NoteNumber":77,"Velocity":81,"Duration":1160409,"SoundDuration":1160409,"Delta":11782931},{"NoteNumber":74,"Velocity":81,"Duration":1160409,"SoundDuration":1160409,"Delta":11782931},{"NoteNumber":44,"Velocity":67,"Duration":585366,"SoundDuration":585366,"Delta":11782931},{"NoteNumber":56,"Velocity":80,"Duration":585366,"SoundDuration":585366,"Delta":11782931},{"NoteNumber":46,"Velocity":60,"Duration":575043,"SoundDuration":575043,"Delta":12368298},{"NoteNumber":58,"Velocity":71,"Duration":575043,"SoundDuration":575043,"Delta":12368298},{"NoteNumber":72,"Velocity":79,"Duration":1179477,"SoundDuration":1179477,"Delta":12943341},{"NoteNumber":67,"Velocity":67,"Duration":1179477,"SoundDuration":1179477,"Delta":12943341},{"NoteNumber":63,"Velocity":67,"Duration":1179477,"SoundDuration":1179477,"Delta":12943341},{"NoteNumber":75,"Velocity":79,"Duration":1179477,"SoundDuration":1179477,"Delta":12943341},{"NoteNumber":48,"Velocity":67,"Duration":577452,"SoundDuration":577452,"Delta":12943341},{"NoteNumber":60,"Velocity":79,"Duration":589738,"SoundDuration":589738,"Delta":12943341},{"NoteNumber":36,"Velocity":58,"Duration":589738,"SoundDuration":589738,"Delta":13533080},{"NoteNumber":48,"Velocity":69,"Duration":589738,"SoundDuration":589738,"Delta":13533080},{"NoteNumber":70,"Velocity":84,"Duration":1165295,"SoundDuration":1165295,"Delta":14122819},{"NoteNumber":67,"Velocity":70,"Duration":1165295,"SoundDuration":1165295,"Delta":14122819},{"NoteNumber":62,"Velocity":70,"Duration":1165295,"SoundDuration":1165295,"Delta":14122819},{"NoteNumber":74,"Velocity":84,"Duration":1165295,"SoundDuration":1165295,"Delta":14122819},{"NoteNumber":43,"Velocity":66,"Duration":591132,"SoundDuration":591132,"Delta":14122819},{"NoteNumber":55,"Velocity":78,"Duration":591132,"SoundDuration":591132,"Delta":14122819},{"NoteNumber":46,"Velocity":66,"Duration":574163,"SoundDuration":574163,"Delta":14713951},{"NoteNumber":58,"Velocity":66,"Duration":574163,"SoundDuration":574163,"Delta":14713951},{"NoteNumber":68,"Velocity":80,"Duration":1166363,"SoundDuration":1166363,"Delta":15288115},{"NoteNumber":63,"Velocity":67,"Duration":1166363,"SoundDuration":1166363,"Delta":15288115},{"NoteNumber":60,"Velocity":67,"Duration":1166363,"SoundDuration":1166363,"Delta":15288115},{"NoteNumber":72,"Velocity":80,"Duration":1166363,"SoundDuration":1166363,"Delta":15288115},{"NoteNumber":44,"Velocity":67,"Duration":588440,"SoundDuration":588440,"Delta":15288115},{"NoteNumber":56,"Velocity":79,"Duration":588440,"SoundDuration":588440,"Delta":15288115},{"NoteNumber":39,"Velocity":56,"Duration":577923,"SoundDuration":577923,"Delta":15876555},{"NoteNumber":51,"Velocity":67,"Duration":577923,"SoundDuration":577923,"Delta":15876555},{"NoteNumber":63,"Velocity":69,"Duration":1179477,"SoundDuration":1179477,"Delta":16454479},{"NoteNumber":58,"Velocity":69,"Duration":1179477,"SoundDuration":1179477,"Delta":16454479},{"NoteNumber":70,"Velocity":82,"Duration":1179477,"SoundDuration":1179477,"Delta":16454479},{"NoteNumber":67,"Velocity":82,"Duration":1179477,"SoundDuration":1179477,"Delta":16454479},{"NoteNumber":55,"Velocity":79,"Duration":589739,"SoundDuration":589739,"Delta":16454479},{"NoteNumber":43,"Velocity":66,"Duration":589739,"SoundDuration":589739,"Delta":16454479},{"NoteNumber":31,"Velocity":60,"Duration":589738,"SoundDuration":589738,"Delta":17044218},{"NoteNumber":43,"Velocity":70,"Duration":589738,"SoundDuration":589738,"Delta":17044218},{"NoteNumber":63,"Velocity":67,"Duration":1180333,"SoundDuration":1180333,"Delta":17633957},{"NoteNumber":72,"Velocity":80,"Duration":1180333,"SoundDuration":1180333,"Delta":17633957},{"NoteNumber":68,"Velocity":80,"Duration":1180333,"SoundDuration":1180333,"Delta":17633957},{"NoteNumber":60,"Velocity":67,"Duration":1180333,"SoundDuration":1180333,"Delta":17633957},{"NoteNumber":32,"Velocity":67,"Duration":598205,"SoundDuration":598205,"Delta":17633957},{"NoteNumber":44,"Velocity":80,"Duration":598205,"SoundDuration":598205,"Delta":17633957},{"NoteNumber":56,"Velocity":72,"Duration":582128,"SoundDuration":582128,"Delta":18232162},{"NoteNumber":44,"Velocity":61,"Duration":582128,"SoundDuration":582128,"Delta":18232162},{"NoteNumber":70,"Velocity":84,"Duration":1180195,"SoundDuration":1180195,"Delta":18814290},{"NoteNumber":74,"Velocity":84,"Duration":1180195,"SoundDuration":1180195,"Delta":18814290},{"NoteNumber":62,"Velocity":70,"Duration":1180195,"SoundDuration":1180195,"Delta":18814290},{"NoteNumber":68,"Velocity":70,"Duration":1180195,"SoundDuration":1180195,"Delta":18814290},{"NoteNumber":53,"Velocity":81,"Duration":594943,"SoundDuration":594943,"Delta":18814290},{"NoteNumber":41,"Velocity":68,"Duration":594943,"SoundDuration":594943,"Delta":18814290},{"NoteNumber":58,"Velocity":72,"Duration":585252,"SoundDuration":585252,"Delta":19409233},{"NoteNumber":46,"Velocity":61,"Duration":585252,"SoundDuration":585252,"Delta":19409233},{"NoteNumber":70,"Velocity":86,"Duration":1196410,"SoundDuration":1196410,"Delta":19994486},{"NoteNumber":75,"Velocity":86,"Duration":1196410,"SoundDuration":1196410,"Delta":19994486},{"NoteNumber":63,"Velocity":73,"Duration":1196410,"SoundDuration":1196410,"Delta":19994486},{"NoteNumber":67,"Velocity":73,"Duration":1196410,"SoundDuration":1196410,"Delta":19994486},{"NoteNumber":55,"Velocity":85,"Duration":598205,"SoundDuration":598205,"Delta":19994486},{"NoteNumber":43,"Velocity":70,"Duration":598205,"SoundDuration":598205,"Delta":19994486},{"NoteNumber":51,"Velocity":77,"Duration":598205,"SoundDuration":598205,"Delta":20592691},{"NoteNumber":39,"Velocity":63,"Duration":598205,"SoundDuration":598205,"Delta":20592691},{"NoteNumber":77,"Velocity":90,"Duration":1196410,"SoundDuration":1196410,"Delta":21190896},{"NoteNumber":75,"Velocity":90,"Duration":1196410,"SoundDuration":1196410,"Delta":21190896},{"NoteNumber":65,"Velocity":75,"Duration":1196410,"SoundDuration":1196410,"Delta":21190896},{"NoteNumber":72,"Velocity":75,"Duration":1196410,"SoundDuration":1196410,"Delta":21190896},{"NoteNumber":32,"Velocity":70,"Duration":598205,"SoundDuration":598205,"Delta":21190896},{"NoteNumber":44,"Velocity":84,"Duration":598205,"SoundDuration":598205,"Delta":21190896},{"NoteNumber":44,"Velocity":64,"Duration":598205,"SoundDuration":598205,"Delta":21789101},{"NoteNumber":56,"Velocity":77,"Duration":598205,"SoundDuration":598205,"Delta":21789101},{"NoteNumber":74,"Velocity":73,"Duration":2465491,"SoundDuration":2465491,"Delta":22387306},{"NoteNumber":77,"Velocity":86,"Duration":2465491,"SoundDuration":2465491,"Delta":22387306},{"NoteNumber":65,"Velocity":73,"Duration":2465491,"SoundDuration":2465491,"Delta":22387306},{"NoteNumber":70,"Velocity":86,"Duration":1209800,"SoundDuration":1209800,"Delta":22387306},{"NoteNumber":46,"Velocity":70,"Duration":604900,"SoundDuration":604900,"Delta":22387306},{"NoteNumber":58,"Velocity":84,"Duration":604900,"SoundDuration":604900,"Delta":22387306},{"NoteNumber":48,"Velocity":64,"Duration":604900,"SoundDuration":604900,"Delta":22992206},{"NoteNumber":60,"Velocity":77,"Duration":604900,"SoundDuration":604900,"Delta":22992206},{"NoteNumber":68,"Velocity":81,"Duration":1255690,"SoundDuration":1255690,"Delta":23597106},{"NoteNumber":46,"Velocity":66,"Duration":618748,"SoundDuration":618748,"Delta":23597106},{"NoteNumber":58,"Velocity":78,"Duration":618748,"SoundDuration":618748,"Delta":23597106},{"NoteNumber":46,"Velocity":69,"Duration":636942,"SoundDuration":636942,"Delta":24215854},{"NoteNumber":34,"Velocity":58,"Duration":636942,"SoundDuration":636942,"Delta":24215854},{"NoteNumber":70,"Velocity":84,"Duration":1421385,"SoundDuration":1421385,"Delta":24852797},{"NoteNumber":75,"Velocity":84,"Duration":1421385,"SoundDuration":1421385,"Delta":24852797},{"NoteNumber":63,"Velocity":70,"Duration":1421385,"SoundDuration":1421385,"Delta":24852797},{"NoteNumber":67,"Velocity":70,"Duration":1421385,"SoundDuration":1421385,"Delta":24852797},{"NoteNumber":46,"Velocity":51,"Duration":117647,"SoundDuration":117647,"Delta":24852797},{"NoteNumber":39,"Velocity":34,"Duration":117647,"SoundDuration":117647,"Delta":24852797},{"NoteNumber":51,"Velocity":46,"Duration":88235,"SoundDuration":88235,"Delta":24941032},{"NoteNumber":39,"Velocity":34,"Duration":117646,"SoundDuration":117646,"Delta":25029267},{"NoteNumber":46,"Velocity":51,"Duration":117646,"SoundDuration":117646,"Delta":25029267},{"NoteNumber":51,"Velocity":45,"Duration":88235,"SoundDuration":88235,"Delta":25117502},{"NoteNumber":39,"Velocity":36,"Duration":117646,"SoundDuration":117646,"Delta":25205738},{"NoteNumber":46,"Velocity":52,"Duration":117646,"SoundDuration":117646,"Delta":25205738},{"NoteNumber":51,"Velocity":45,"Duration":88235,"SoundDuration":88235,"Delta":25293973},{"NoteNumber":46,"Velocity":52,"Duration":117647,"SoundDuration":117647,"Delta":25382208},{"NoteNumber":39,"Velocity":36,"Duration":117647,"SoundDuration":117647,"Delta":25382208},{"NoteNumber":51,"Velocity":45,"Duration":88235,"SoundDuration":88235,"Delta":25470443},{"NoteNumber":46,"Velocity":51,"Duration":117303,"SoundDuration":117303,"Delta":25558678},{"NoteNumber":39,"Velocity":34,"Duration":117303,"SoundDuration":117303,"Delta":25558678},{"NoteNumber":51,"Velocity":44,"Duration":87719,"SoundDuration":87719,"Delta":25646742},{"NoteNumber":46,"Velocity":52,"Duration":117995,"SoundDuration":117995,"Delta":25734461},{"NoteNumber":39,"Velocity":36,"Duration":117995,"SoundDuration":117995,"Delta":25734461},{"NoteNumber":51,"Velocity":44,"Duration":89109,"SoundDuration":89109,"Delta":25822870},{"NoteNumber":39,"Velocity":36,"Duration":119404,"SoundDuration":119404,"Delta":25911980},{"NoteNumber":46,"Velocity":52,"Duration":119404,"SoundDuration":119404,"Delta":25911980},{"NoteNumber":51,"Velocity":45,"Duration":90181,"SoundDuration":90181,"Delta":26001444},{"NoteNumber":39,"Velocity":34,"Duration":121581,"SoundDuration":121581,"Delta":26091625},{"NoteNumber":46,"Velocity":51,"Duration":121581,"SoundDuration":121581,"Delta":26091625},{"NoteNumber":51,"Velocity":45,"Duration":91463,"SoundDuration":91463,"Delta":26182719},{"NoteNumber":55,"Velocity":53,"Duration":81081,"SoundDuration":81081,"Delta":26274182},{"NoteNumber":46,"Velocity":51,"Duration":135135,"SoundDuration":135135,"Delta":26274182},{"NoteNumber":39,"Velocity":34,"Duration":135135,"SoundDuration":135135,"Delta":26274182},{"NoteNumber":58,"Velocity":56,"Duration":80899,"SoundDuration":80899,"Delta":26355263},{"NoteNumber":51,"Velocity":45,"Duration":100897,"SoundDuration":100897,"Delta":26375534},{"NoteNumber":60,"Velocity":58,"Duration":80268,"SoundDuration":80268,"Delta":26436163},{"NoteNumber":46,"Velocity":51,"Duration":133333,"SoundDuration":133333,"Delta":26476432},{"NoteNumber":39,"Velocity":34,"Duration":133333,"SoundDuration":133333,"Delta":26476432},{"NoteNumber":63,"Velocity":57,"Duration":80000,"SoundDuration":80000,"Delta":26516432},{"NoteNumber":51,"Velocity":45,"Duration":99558,"SoundDuration":99558,"Delta":26576432},{"NoteNumber":60,"Velocity":53,"Duration":79558,"SoundDuration":79558,"Delta":26596432},{"NoteNumber":58,"Velocity":53,"Duration":78947,"SoundDuration":78947,"Delta":26675990},{"NoteNumber":39,"Velocity":36,"Duration":131578,"SoundDuration":131578,"Delta":26675990},{"NoteNumber":46,"Velocity":52,"Duration":131578,"SoundDuration":131578,"Delta":26675990},{"NoteNumber":55,"Velocity":51,"Duration":78775,"SoundDuration":78775,"Delta":26754937},{"NoteNumber":51,"Velocity":46,"Duration":98254,"SoundDuration":98254,"Delta":26774674},{"NoteNumber":58,"Velocity":53,"Duration":78176,"SoundDuration":78176,"Delta":26833713},{"NoteNumber":39,"Velocity":36,"Duration":129870,"SoundDuration":129870,"Delta":26872929},{"NoteNumber":46,"Velocity":52,"Duration":129870,"SoundDuration":129870,"Delta":26872929},{"NoteNumber":60,"Velocity":56,"Duration":77922,"SoundDuration":77922,"Delta":26911890},{"NoteNumber":51,"Velocity":46,"Duration":96983,"SoundDuration":96983,"Delta":26970331},{"NoteNumber":63,"Velocity":57,"Duration":96733,"SoundDuration":96733,"Delta":26989812},{"NoteNumber":67,"Velocity":57,"Duration":76923,"SoundDuration":76923,"Delta":27067315},{"NoteNumber":39,"Velocity":37,"Duration":128205,"SoundDuration":128205,"Delta":27067315},{"NoteNumber":46,"Velocity":53,"Duration":128205,"SoundDuration":128205,"Delta":27067315},{"NoteNumber":70,"Velocity":60,"Duration":76759,"SoundDuration":76759,"Delta":27144238},{"NoteNumber":51,"Velocity":47,"Duration":95745,"SoundDuration":95745,"Delta":27163469},{"NoteNumber":72,"Velocity":62,"Duration":76433,"SoundDuration":76433,"Delta":27220998},{"NoteNumber":39,"Velocity":38,"Duration":126985,"SoundDuration":126985,"Delta":27259214},{"NoteNumber":46,"Velocity":55,"Duration":126985,"SoundDuration":126985,"Delta":27259214},{"NoteNumber":75,"Velocity":61,"Duration":76110,"SoundDuration":76110,"Delta":27297431},{"NoteNumber":51,"Velocity":47,"Duration":94936,"SoundDuration":94936,"Delta":27354554},{"NoteNumber":72,"Velocity":57,"Duration":75949,"SoundDuration":75949,"Delta":27373541},{"NoteNumber":70,"Velocity":57,"Duration":75471,"SoundDuration":75471,"Delta":27449491},{"NoteNumber":39,"Velocity":38,"Duration":125786,"SoundDuration":125786,"Delta":27449491},{"NoteNumber":46,"Velocity":55,"Duration":125786,"SoundDuration":125786,"Delta":27449491},{"NoteNumber":67,"Velocity":53,"Duration":75314,"SoundDuration":75314,"Delta":27524963},{"NoteNumber":51,"Velocity":47,"Duration":93946,"SoundDuration":93946,"Delta":27543830},{"NoteNumber":70,"Velocity":57,"Duration":75000,"SoundDuration":75000,"Delta":27600277},{"NoteNumber":39,"Velocity":37,"Duration":124611,"SoundDuration":124611,"Delta":27637777},{"NoteNumber":46,"Velocity":53,"Duration":124611,"SoundDuration":124611,"Delta":27637777},{"NoteNumber":72,"Velocity":60,"Duration":74689,"SoundDuration":74689,"Delta":27675277},{"NoteNumber":51,"Velocity":47,"Duration":93167,"SoundDuration":93167,"Delta":27731333},{"NoteNumber":75,"Velocity":61,"Duration":93052,"SoundDuration":93052,"Delta":27749966},{"NoteNumber":79,"Velocity":61,"Duration":74074,"SoundDuration":74074,"Delta":27824501},{"NoteNumber":46,"Velocity":57,"Duration":123456,"SoundDuration":123456,"Delta":27824501},{"NoteNumber":39,"Velocity":39,"Duration":123456,"SoundDuration":123456,"Delta":27824501},{"NoteNumber":82,"Velocity":63,"Duration":73922,"SoundDuration":73922,"Delta":27898575},{"NoteNumber":51,"Velocity":50,"Duration":92213,"SoundDuration":92213,"Delta":27917093},{"NoteNumber":84,"Velocity":67,"Duration":73619,"SoundDuration":73619,"Delta":27972497},{"NoteNumber":39,"Velocity":40,"Duration":122325,"SoundDuration":122325,"Delta":28009307},{"NoteNumber":46,"Velocity":58,"Duration":122325,"SoundDuration":122325,"Delta":28009307},{"NoteNumber":87,"Velocity":67,"Duration":73320,"SoundDuration":73320,"Delta":28046117},{"NoteNumber":51,"Velocity":52,"Duration":91463,"SoundDuration":91463,"Delta":28101145},{"NoteNumber":84,"Velocity":64,"Duration":73170,"SoundDuration":73170,"Delta":28119437},{"NoteNumber":82,"Velocity":64,"Duration":72727,"SoundDuration":72727,"Delta":28192608},{"NoteNumber":39,"Velocity":42,"Duration":121212,"SoundDuration":121212,"Delta":28192608},{"NoteNumber":46,"Velocity":62,"Duration":121212,"SoundDuration":121212,"Delta":28192608},{"NoteNumber":79,"Velocity":62,"Duration":72581,"SoundDuration":72581,"Delta":28265335},{"NoteNumber":51,"Velocity":57,"Duration":90544,"SoundDuration":90544,"Delta":28283517},{"NoteNumber":82,"Velocity":67,"Duration":72289,"SoundDuration":72289,"Delta":28337917},{"NoteNumber":46,"Velocity":64,"Duration":120121,"SoundDuration":120121,"Delta":28374061},{"NoteNumber":39,"Velocity":44,"Duration":120121,"SoundDuration":120121,"Delta":28374061},{"NoteNumber":84,"Velocity":70,"Duration":72000,"SoundDuration":72000,"Delta":28410206},{"NoteNumber":51,"Velocity":57,"Duration":89820,"SoundDuration":89820,"Delta":28464242},{"NoteNumber":87,"Velocity":73,"Duration":89713,"SoundDuration":89713,"Delta":28482206},{"NoteNumber":91,"Velocity":69,"Duration":71428,"SoundDuration":71428,"Delta":28554063},{"NoteNumber":39,"Velocity":44,"Duration":119047,"SoundDuration":119047,"Delta":28554063},{"NoteNumber":46,"Velocity":66,"Duration":119047,"SoundDuration":119047,"Delta":28554063},{"NoteNumber":94,"Velocity":75,"Duration":71287,"SoundDuration":71287,"Delta":28625491},{"NoteNumber":51,"Velocity":59,"Duration":88933,"SoundDuration":88933,"Delta":28643348},{"NoteNumber":96,"Velocity":82,"Duration":71005,"SoundDuration":71005,"Delta":28696779},{"NoteNumber":39,"Velocity":48,"Duration":117995,"SoundDuration":117995,"Delta":28732282},{"NoteNumber":46,"Velocity":68,"Duration":117995,"SoundDuration":117995,"Delta":28732282},{"NoteNumber":99,"Velocity":84,"Duration":70727,"SoundDuration":70727,"Delta":28767785},{"NoteNumber":51,"Velocity":61,"Duration":88235,"SoundDuration":88235,"Delta":28820865},{"NoteNumber":96,"Velocity":80,"Duration":70588,"SoundDuration":70588,"Delta":28838512},{"NoteNumber":94,"Velocity":80,"Duration":70175,"SoundDuration":70175,"Delta":28909101},{"NoteNumber":46,"Velocity":70,"Duration":116958,"SoundDuration":116958,"Delta":28909101},{"NoteNumber":39,"Velocity":49,"Duration":116958,"SoundDuration":116958,"Delta":28909101},{"NoteNumber":91,"Velocity":89,"Duration":70039,"SoundDuration":70039,"Delta":28979276},{"NoteNumber":51,"Velocity":62,"Duration":87379,"SoundDuration":87379,"Delta":28996820},{"NoteNumber":94,"Velocity":91,"Duration":68217,"SoundDuration":68217,"Delta":29049315},{"NoteNumber":39,"Velocity":49,"Duration":114469,"SoundDuration":114469,"Delta":29084199},{"NoteNumber":46,"Velocity":72,"Duration":114469,"SoundDuration":114469,"Delta":29084199},{"NoteNumber":96,"Velocity":92,"Duration":69353,"SoundDuration":69353,"Delta":29117532},{"NoteNumber":51,"Velocity":62,"Duration":88370,"SoundDuration":88370,"Delta":29169211},{"NoteNumber":99,"Velocity":95,"Duration":88343,"SoundDuration":88343,"Delta":29186886},{"NoteNumber":75,"Velocity":64,"Duration":1944292,"SoundDuration":1944292,"Delta":29257582},{"NoteNumber":82,"Velocity":64,"Duration":1899752,"SoundDuration":1899752,"Delta":29302122},{"NoteNumber":87,"Velocity":76,"Duration":1854053,"SoundDuration":1854053,"Delta":29347821},{"NoteNumber":91,"Velocity":84,"Duration":1807058,"SoundDuration":1807058,"Delta":29394817},{"NoteNumber":94,"Velocity":84,"Duration":1758688,"SoundDuration":1758688,"Delta":29443186},{"NoteNumber":99,"Velocity":87,"Duration":1708816,"SoundDuration":1708816,"Delta":29493058},{"NoteNumber":103,"Velocity":90,"Duration":1656443,"SoundDuration":1656443,"Delta":29545431},{"NoteNumber":63,"Velocity":36,"Duration":1072487,"SoundDuration":1072487,"Delta":31201875},{"NoteNumber":67,"Velocity":36,"Duration":1036149,"SoundDuration":1036149,"Delta":31238212},{"NoteNumber":70,"Velocity":42,"Duration":1000082,"SoundDuration":1000082,"Delta":31274280},{"NoteNumber":75,"Velocity":49,"Duration":964281,"SoundDuration":964281,"Delta":31310080},{"NoteNumber":79,"Velocity":49,"Duration":928746,"SoundDuration":928746,"Delta":31345615},{"NoteNumber":82,"Velocity":58,"Duration":893601,"SoundDuration":893601,"Delta":31380761},{"NoteNumber":87,"Velocity":58,"Duration":858710,"SoundDuration":858710,"Delta":31415652},{"NoteNumber":60,"Velocity":34,"Duration":1051963,"SoundDuration":1051963,"Delta":32274362},{"NoteNumber":67,"Velocity":34,"Duration":1016623,"SoundDuration":1016623,"Delta":32309703},{"NoteNumber":72,"Velocity":41,"Duration":981412,"SoundDuration":981412,"Delta":32344913},{"NoteNumber":75,"Velocity":46,"Duration":946331,"SoundDuration":946331,"Delta":32379995},{"NoteNumber":79,"Velocity":46,"Duration":911375,"SoundDuration":911375,"Delta":32414950},{"NoteNumber":84,"Velocity":56,"Duration":876794,"SoundDuration":876794,"Delta":32449531},{"NoteNumber":87,"Velocity":56,"Duration":842335,"SoundDuration":842335,"Delta":32483990},{"NoteNumber":62,"Velocity":36,"Duration":1050800,"SoundDuration":1050800,"Delta":33326326},{"NoteNumber":70,"Velocity":36,"Duration":1015069,"SoundDuration":1015069,"Delta":33362057},{"NoteNumber":74,"Velocity":42,"Duration":979468,"SoundDuration":979468,"Delta":33397658},{"NoteNumber":82,"Velocity":49,"Duration":944063,"SoundDuration":944063,"Delta":33433063},{"NoteNumber":86,"Velocity":49,"Duration":908918,"SoundDuration":908918,"Delta":33468208},{"NoteNumber":89,"Velocity":58,"Duration":873963,"SoundDuration":873963,"Delta":33503163},{"NoteNumber":94,"Velocity":58,"Duration":839257,"SoundDuration":839257,"Delta":33537869},{"NoteNumber":63,"Velocity":36,"Duration":1048784,"SoundDuration":1048784,"Delta":34377127},{"NoteNumber":70,"Velocity":36,"Duration":1013828,"SoundDuration":1013828,"Delta":34412082},{"NoteNumber":75,"Velocity":42,"Duration":978873,"SoundDuration":978873,"Delta":34447037},{"NoteNumber":79,"Velocity":49,"Duration":943918,"SoundDuration":943918,"Delta":34481992},{"NoteNumber":82,"Velocity":49,"Duration":908963,"SoundDuration":908963,"Delta":34516948},{"NoteNumber":87,"Velocity":58,"Duration":874007,"SoundDuration":874007,"Delta":34551903},{"NoteNumber":91,"Velocity":58,"Duration":839052,"SoundDuration":839052,"Delta":34586858},{"NoteNumber":58,"Velocity":34,"Duration":1063347,"SoundDuration":1063347,"Delta":35425911},{"NoteNumber":65,"Velocity":34,"Duration":1027213,"SoundDuration":1027213,"Delta":35462045},{"NoteNumber":70,"Velocity":41,"Duration":991347,"SoundDuration":991347,"Delta":35497910},{"NoteNumber":77,"Velocity":46,"Duration":955746,"SoundDuration":955746,"Delta":35533511},{"NoteNumber":82,"Velocity":46,"Duration":920406,"SoundDuration":920406,"Delta":35568852},{"NoteNumber":89,"Velocity":56,"Duration":885450,"SoundDuration":885450,"Delta":35603807},{"NoteNumber":86,"Velocity":56,"Duration":885450,"SoundDuration":885450,"Delta":35603807},{"NoteNumber":60,"Velocity":34,"Duration":1067962,"SoundDuration":1067962,"Delta":36489258},{"NoteNumber":67,"Velocity":41,"Duration":1032029,"SoundDuration":1032029,"Delta":36525191},{"NoteNumber":72,"Velocity":41,"Duration":996230,"SoundDuration":996230,"Delta":36560990},{"NoteNumber":75,"Velocity":46,"Duration":960564,"SoundDuration":960564,"Delta":36596656},{"NoteNumber":79,"Velocity":46,"Duration":925029,"SoundDuration":925029,"Delta":36632191},{"NoteNumber":84,"Velocity":55,"Duration":889689,"SoundDuration":889689,"Delta":36667532},{"NoteNumber":87,"Velocity":55,"Duration":854478,"SoundDuration":854478,"Delta":36702742},{"NoteNumber":55,"Velocity":36,"Duration":1062676,"SoundDuration":1062676,"Delta":37557221},{"NoteNumber":62,"Velocity":36,"Duration":1025495,"SoundDuration":1025495,"Delta":37594401},{"NoteNumber":67,"Velocity":42,"Duration":988457,"SoundDuration":988457,"Delta":37631439},{"NoteNumber":74,"Velocity":49,"Duration":951630,"SoundDuration":951630,"Delta":37668267},{"NoteNumber":79,"Velocity":49,"Duration":915084,"SoundDuration":915084,"Delta":37704813},{"NoteNumber":82,"Velocity":58,"Duration":878746,"SoundDuration":878746,"Delta":37741150},{"NoteNumber":86,"Velocity":58,"Duration":842678,"SoundDuration":842678,"Delta":37777218},{"NoteNumber":56,"Velocity":34,"Duration":1070493,"SoundDuration":1070493,"Delta":38619897},{"NoteNumber":63,"Velocity":34,"Duration":1034762,"SoundDuration":1034762,"Delta":38655628},{"NoteNumber":68,"Velocity":41,"Duration":999161,"SoundDuration":999161,"Delta":38691229},{"NoteNumber":72,"Velocity":46,"Duration":963756,"SoundDuration":963756,"Delta":38726634},{"NoteNumber":75,"Velocity":46,"Duration":928611,"SoundDuration":928611,"Delta":38761779},{"NoteNumber":80,"Velocity":55,"Duration":893656,"SoundDuration":893656,"Delta":38796734},{"NoteNumber":84,"Velocity":55,"Duration":858950,"SoundDuration":858950,"Delta":38831440},{"NoteNumber":51,"Velocity":36,"Duration":1095609,"SoundDuration":1095609,"Delta":39690391},{"NoteNumber":58,"Velocity":36,"Duration":1060464,"SoundDuration":1060464,"Delta":39725536},{"NoteNumber":63,"Velocity":42,"Duration":1025319,"SoundDuration":1025319,"Delta":39760681},{"NoteNumber":70,"Velocity":48,"Duration":990174,"SoundDuration":990174,"Delta":39795826},{"NoteNumber":75,"Velocity":48,"Duration":955028,"SoundDuration":955028,"Delta":39830972},{"NoteNumber":79,"Velocity":57,"Duration":919883,"SoundDuration":919883,"Delta":39866117},{"NoteNumber":82,"Velocity":57,"Duration":884738,"SoundDuration":884738,"Delta":39901262},{"NoteNumber":56,"Velocity":34,"Duration":1084333,"SoundDuration":1084333,"Delta":40786001},{"NoteNumber":63,"Velocity":34,"Duration":1048798,"SoundDuration":1048798,"Delta":40821535},{"NoteNumber":68,"Velocity":41,"Duration":1013263,"SoundDuration":1013263,"Delta":40857070},{"NoteNumber":72,"Velocity":46,"Duration":977728,"SoundDuration":977728,"Delta":40892605},{"NoteNumber":75,"Velocity":46,"Duration":942193,"SoundDuration":942193,"Delta":40928140},{"NoteNumber":80,"Velocity":55,"Duration":906658,"SoundDuration":906658,"Delta":40963675},{"NoteNumber":84,"Velocity":55,"Duration":871123,"SoundDuration":871123,"Delta":40999210},{"NoteNumber":53,"Velocity":36,"Duration":1092601,"SoundDuration":1092601,"Delta":41870334},{"NoteNumber":58,"Velocity":36,"Duration":1057260,"SoundDuration":1057260,"Delta":41905674},{"NoteNumber":65,"Velocity":42,"Duration":1021659,"SoundDuration":1021659,"Delta":41941275},{"NoteNumber":74,"Velocity":49,"Duration":985993,"SoundDuration":985993,"Delta":41976941},{"NoteNumber":80,"Velocity":49,"Duration":950458,"SoundDuration":950458,"Delta":42012476},{"NoteNumber":82,"Velocity":58,"Duration":915313,"SoundDuration":915313,"Delta":42047621},{"NoteNumber":86,"Velocity":58,"Duration":880422,"SoundDuration":880422,"Delta":42082512},{"NoteNumber":55,"Velocity":37,"Duration":1137118,"SoundDuration":1137118,"Delta":42962935},{"NoteNumber":63,"Velocity":44,"Duration":1101583,"SoundDuration":1101583,"Delta":42998470},{"NoteNumber":67,"Velocity":44,"Duration":1066048,"SoundDuration":1066048,"Delta":43034005},{"NoteNumber":75,"Velocity":50,"Duration":1030513,"SoundDuration":1030513,"Delta":43069540},{"NoteNumber":79,"Velocity":50,"Duration":994978,"SoundDuration":994978,"Delta":43105075},{"NoteNumber":82,"Velocity":60,"Duration":959443,"SoundDuration":959443,"Delta":43140610},{"NoteNumber":87,"Velocity":60,"Duration":923908,"SoundDuration":923908,"Delta":43176145},{"NoteNumber":56,"Velocity":39,"Duration":1137118,"SoundDuration":1137118,"Delta":44100053},{"NoteNumber":63,"Velocity":39,"Duration":1101583,"SoundDuration":1101583,"Delta":44135588},{"NoteNumber":68,"Velocity":46,"Duration":1066048,"SoundDuration":1066048,"Delta":44171123},{"NoteNumber":77,"Velocity":52,"Duration":1030513,"SoundDuration":1030513,"Delta":44206658},{"NoteNumber":84,"Velocity":52,"Duration":994978,"SoundDuration":994978,"Delta":44242193},{"NoteNumber":87,"Velocity":62,"Duration":959443,"SoundDuration":959443,"Delta":44277728},{"NoteNumber":89,"Velocity":62,"Duration":923908,"SoundDuration":923908,"Delta":44313263},{"NoteNumber":58,"Velocity":37,"Duration":2334523,"SoundDuration":2334523,"Delta":45237171},{"NoteNumber":65,"Velocity":37,"Duration":2298186,"SoundDuration":2298186,"Delta":45273508},{"NoteNumber":70,"Velocity":44,"Duration":2261848,"SoundDuration":2261848,"Delta":45309845},{"NoteNumber":77,"Velocity":50,"Duration":2225579,"SoundDuration":2225579,"Delta":45346115},{"NoteNumber":86,"Velocity":50,"Duration":2189445,"SoundDuration":2189445,"Delta":45382249},{"NoteNumber":82,"Velocity":60,"Duration":960123,"SoundDuration":960123,"Delta":45418182},{"NoteNumber":89,"Velocity":60,"Duration":2153512,"SoundDuration":2153512,"Delta":45418182},{"NoteNumber":80,"Velocity":56,"Duration":1193389,"SoundDuration":1193389,"Delta":46378305},{"NoteNumber":63,"Velocity":36,"Duration":3964651,"SoundDuration":3964651,"Delta":47571694},{"NoteNumber":67,"Velocity":36,"Duration":3925669,"SoundDuration":3925669,"Delta":47610676},{"NoteNumber":70,"Velocity":42,"Duration":3886206,"SoundDuration":3886206,"Delta":47650139},{"NoteNumber":75,"Velocity":49,"Duration":3846167,"SoundDuration":3846167,"Delta":47690178},{"NoteNumber":79,"Velocity":49,"Duration":3805454,"SoundDuration":3805454,"Delta":47730891},{"NoteNumber":82,"Velocity":58,"Duration":3763958,"SoundDuration":3763958,"Delta":47772387},{"NoteNumber":87,"Velocity":58,"Duration":3721730,"SoundDuration":3721730,"Delta":47814615},{"NoteNumber":99,"Velocity":69,"Duration":3678748,"SoundDuration":3678748,"Delta":47857597},{"NoteNumber":75,"Velocity":70,"Duration":1036017,"SoundDuration":1036017,"Delta":51536346},{"NoteNumber":82,"Velocity":70,"Duration":1036017,"SoundDuration":1036017,"Delta":51536346},{"NoteNumber":63,"Velocity":57,"Duration":259089,"SoundDuration":259089,"Delta":52064980},{"NoteNumber":82,"Velocity":69,"Duration":1043223,"SoundDuration":1043223,"Delta":52583159},{"NoteNumber":74,"Velocity":69,"Duration":1043223,"SoundDuration":1043223,"Delta":52583159},{"NoteNumber":70,"Velocity":63,"Duration":265486,"SoundDuration":265486,"Delta":52583159},{"NoteNumber":68,"Velocity":60,"Duration":261574,"SoundDuration":261574,"Delta":53114132},{"NoteNumber":75,"Velocity":70,"Duration":1061501,"SoundDuration":1061501,"Delta":53637281},{"NoteNumber":82,"Velocity":70,"Duration":1061501,"SoundDuration":1061501,"Delta":53637281},{"NoteNumber":67,"Velocity":60,"Duration":266666,"SoundDuration":266666,"Delta":53637281},{"NoteNumber":63,"Velocity":55,"Duration":264084,"SoundDuration":264084,"Delta":54170614},{"NoteNumber":56,"Velocity":38,"Duration":1654309,"SoundDuration":1654309,"Delta":54698783},{"NoteNumber":63,"Velocity":40,"Duration":1619279,"SoundDuration":1619279,"Delta":54733813},{"NoteNumber":68,"Velocity":44,"Duration":1584248,"SoundDuration":1584248,"Delta":54768843},{"NoteNumber":72,"Velocity":49,"Duration":1549218,"SoundDuration":1549218,"Delta":54803874},{"NoteNumber":75,"Velocity":56,"Duration":1514188,"SoundDuration":1514188,"Delta":54838904},{"NoteNumber":80,"Velocity":60,"Duration":1478976,"SoundDuration":1478976,"Delta":54874115},{"NoteNumber":84,"Velocity":67,"Duration":1443765,"SoundDuration":1443765,"Delta":54909327},{"NoteNumber":99,"Velocity":50,"Duration":69231,"SoundDuration":69231,"Delta":56353092},{"NoteNumber":96,"Velocity":49,"Duration":69659,"SoundDuration":69659,"Delta":56422323},{"NoteNumber":92,"Velocity":48,"Duration":70203,"SoundDuration":70203,"Delta":56491983},{"NoteNumber":87,"Velocity":45,"Duration":70867,"SoundDuration":70867,"Delta":56562186},{"NoteNumber":84,"Velocity":48,"Duration":71542,"SoundDuration":71542,"Delta":56633054},{"NoteNumber":80,"Velocity":46,"Duration":72000,"SoundDuration":72000,"Delta":56704596},{"NoteNumber":75,"Velocity":44,"Duration":72017,"SoundDuration":72017,"Delta":56776597},{"NoteNumber":72,"Velocity":42,"Duration":69557,"SoundDuration":69557,"Delta":56848614},{"NoteNumber":96,"Velocity":48,"Duration":69552,"SoundDuration":69552,"Delta":56918172},{"NoteNumber":92,"Velocity":46,"Duration":70204,"SoundDuration":70204,"Delta":56987724},{"NoteNumber":87,"Velocity":45,"Duration":70866,"SoundDuration":70866,"Delta":57057928},{"NoteNumber":84,"Velocity":42,"Duration":71543,"SoundDuration":71543,"Delta":57128794},{"NoteNumber":80,"Velocity":44,"Duration":72231,"SoundDuration":72231,"Delta":57200338},{"NoteNumber":75,"Velocity":42,"Duration":72935,"SoundDuration":72935,"Delta":57272569},{"NoteNumber":72,"Velocity":42,"Duration":73772,"SoundDuration":73772,"Delta":57345505},{"NoteNumber":68,"Velocity":41,"Duration":78291,"SoundDuration":78291,"Delta":57419277},{"NoteNumber":63,"Velocity":55,"Duration":1492329,"SoundDuration":1492329,"Delta":57497568},{"NoteNumber":75,"Velocity":70,"Duration":1036017,"SoundDuration":1036017,"Delta":58989898},{"NoteNumber":79,"Velocity":70,"Duration":1036017,"SoundDuration":1036017,"Delta":58989898},{"NoteNumber":74,"Velocity":55,"Duration":259089,"SoundDuration":259089,"Delta":59518532},{"NoteNumber":80,"Velocity":69,"Duration":1033699,"SoundDuration":1033699,"Delta":60036711},{"NoteNumber":75,"Velocity":69,"Duration":1033699,"SoundDuration":1033699,"Delta":60036711},{"NoteNumber":72,"Velocity":63,"Duration":263157,"SoundDuration":263157,"Delta":60036711},{"NoteNumber":68,"Velocity":60,"Duration":259089,"SoundDuration":259089,"Delta":60563027},{"NoteNumber":75,"Velocity":70,"Duration":1038356,"SoundDuration":1038356,"Delta":61081206},{"NoteNumber":82,"Velocity":70,"Duration":1038356,"SoundDuration":1038356,"Delta":61081206},{"NoteNumber":67,"Velocity":60,"Duration":265486,"SoundDuration":265486,"Delta":61081206},{"NoteNumber":70,"Velocity":55,"Duration":259089,"SoundDuration":259089,"Delta":61612179},{"NoteNumber":82,"Velocity":70,"Duration":1054121,"SoundDuration":1054121,"Delta":62130358},{"NoteNumber":77,"Velocity":70,"Duration":2118005,"SoundDuration":2118005,"Delta":62130358},{"NoteNumber":62,"Velocity":58,"Duration":265486,"SoundDuration":265486,"Delta":62130358},{"NoteNumber":65,"Velocity":55,"Duration":261574,"SoundDuration":261574,"Delta":62661331},{"NoteNumber":80,"Velocity":69,"Duration":1063883,"SoundDuration":1063883,"Delta":63184480},{"NoteNumber":70,"Velocity":63,"Duration":267856,"SoundDuration":267856,"Delta":63184480},{"NoteNumber":74,"Velocity":53,"Duration":264084,"SoundDuration":264084,"Delta":63720194},{"NoteNumber":75,"Velocity":68,"Duration":1093822,"SoundDuration":1093822,"Delta":64248363},{"NoteNumber":79,"Velocity":68,"Duration":1093822,"SoundDuration":1093822,"Delta":64248363},{"NoteNumber":72,"Velocity":60,"Duration":276039,"SoundDuration":276039,"Delta":64248363},{"NoteNumber":69,"Velocity":55,"Duration":266643,"SoundDuration":266643,"Delta":64800442},{"NoteNumber":58,"Velocity":49,"Duration":1715086,"SoundDuration":1715086,"Delta":65342185},{"NoteNumber":65,"Velocity":53,"Duration":1671481,"SoundDuration":1671481,"Delta":65385790},{"NoteNumber":70,"Velocity":57,"Duration":1627876,"SoundDuration":1627876,"Delta":65429394},{"NoteNumber":74,"Velocity":57,"Duration":1585920,"SoundDuration":1585920,"Delta":65471351},{"NoteNumber":77,"Velocity":66,"Duration":1547849,"SoundDuration":1547849,"Delta":65509422},{"NoteNumber":101,"Velocity":50,"Duration":68246,"SoundDuration":68246,"Delta":67057271},{"NoteNumber":98,"Velocity":49,"Duration":69659,"SoundDuration":69659,"Delta":67125517},{"NoteNumber":94,"Velocity":48,"Duration":70203,"SoundDuration":70203,"Delta":67195177},{"NoteNumber":89,"Velocity":45,"Duration":70643,"SoundDuration":70643,"Delta":67265380},{"NoteNumber":86,"Velocity":48,"Duration":71202,"SoundDuration":71202,"Delta":67336024},{"NoteNumber":82,"Velocity":46,"Duration":71656,"SoundDuration":71656,"Delta":67407227},{"NoteNumber":77,"Velocity":44,"Duration":72231,"SoundDuration":72231,"Delta":67478883},{"NoteNumber":74,"Velocity":42,"Duration":72935,"SoundDuration":72935,"Delta":67551115},{"NoteNumber":98,"Velocity":48,"Duration":68913,"SoundDuration":68913,"Delta":67624050},{"NoteNumber":94,"Velocity":46,"Duration":69337,"SoundDuration":69337,"Delta":67692963},{"NoteNumber":89,"Velocity":45,"Duration":70203,"SoundDuration":70203,"Delta":67762301},{"NoteNumber":86,"Velocity":42,"Duration":70643,"SoundDuration":70643,"Delta":67832504},{"NoteNumber":82,"Velocity":44,"Duration":71542,"SoundDuration":71542,"Delta":67903148},{"NoteNumber":77,"Velocity":42,"Duration":72000,"SoundDuration":72000,"Delta":67974691},{"NoteNumber":74,"Velocity":42,"Duration":72933,"SoundDuration":72933,"Delta":68046691},{"NoteNumber":70,"Velocity":41,"Duration":73651,"SoundDuration":73651,"Delta":68119625},{"NoteNumber":62,"Velocity":55,"Duration":1499810,"SoundDuration":1499810,"Delta":68193276},{"NoteNumber":58,"Velocity":80,"Duration":1048156,"SoundDuration":1048156,"Delta":69693087},{"NoteNumber":55,"Velocity":67,"Duration":1048156,"SoundDuration":1048156,"Delta":69693087},{"NoteNumber":51,"Velocity":66,"Duration":1048156,"SoundDuration":1048156,"Delta":69693087},{"NoteNumber":60,"Velocity":84,"Duration":1053176,"SoundDuration":1053176,"Delta":70752142},{"NoteNumber":56,"Velocity":70,"Duration":1053176,"SoundDuration":1053176,"Delta":70752142},{"NoteNumber":44,"Velocity":53,"Duration":1053176,"SoundDuration":1053176,"Delta":70752142},{"NoteNumber":51,"Velocity":63,"Duration":1053176,"SoundDuration":1053176,"Delta":70752142},{"NoteNumber":56,"Velocity":73,"Duration":1055847,"SoundDuration":1055847,"Delta":71816269},{"NoteNumber":62,"Velocity":86,"Duration":1055847,"SoundDuration":1055847,"Delta":71816269},{"NoteNumber":53,"Velocity":67,"Duration":1055847,"SoundDuration":1055847,"Delta":71816269},{"NoteNumber":41,"Velocity":56,"Duration":1055847,"SoundDuration":1055847,"Delta":71816269},{"NoteNumber":58,"Velocity":73,"Duration":1053176,"SoundDuration":1053176,"Delta":72883067},{"NoteNumber":63,"Velocity":86,"Duration":1053176,"SoundDuration":1053176,"Delta":72883067},{"NoteNumber":43,"Velocity":56,"Duration":1053176,"SoundDuration":1053176,"Delta":72883067},{"NoteNumber":51,"Velocity":67,"Duration":1053176,"SoundDuration":1053176,"Delta":72883067},{"NoteNumber":60,"Velocity":70,"Duration":1063713,"SoundDuration":1063713,"Delta":73947194},{"NoteNumber":65,"Velocity":84,"Duration":1063713,"SoundDuration":1063713,"Delta":73947194},{"NoteNumber":44,"Velocity":53,"Duration":1063713,"SoundDuration":1063713,"Delta":73947194},{"NoteNumber":51,"Velocity":63,"Duration":1063713,"SoundDuration":1063713,"Delta":73947194},{"NoteNumber":58,"Velocity":73,"Duration":1109295,"SoundDuration":1109295,"Delta":75021911},{"NoteNumber":67,"Velocity":86,"Duration":1109295,"SoundDuration":1109295,"Delta":75021911},{"NoteNumber":46,"Velocity":55,"Duration":1109295,"SoundDuration":1109295,"Delta":75021911},{"NoteNumber":51,"Velocity":66,"Duration":1109295,"SoundDuration":1109295,"Delta":75021911},{"NoteNumber":60,"Velocity":70,"Duration":1087156,"SoundDuration":1087156,"Delta":76142883},{"NoteNumber":63,"Velocity":70,"Duration":1087156,"SoundDuration":1087156,"Delta":76142883},{"NoteNumber":65,"Velocity":84,"Duration":1087156,"SoundDuration":1087156,"Delta":76142883},{"NoteNumber":44,"Velocity":67,"Duration":1098600,"SoundDuration":1098600,"Delta":76142883},{"NoteNumber":58,"Velocity":80,"Duration":1066571,"SoundDuration":1066571,"Delta":77241483},{"NoteNumber":65,"Velocity":80,"Duration":2204983,"SoundDuration":2204983,"Delta":77241483},{"NoteNumber":62,"Velocity":63,"Duration":2204983,"SoundDuration":2204983,"Delta":77241483},{"NoteNumber":46,"Velocity":67,"Duration":2204983,"SoundDuration":2204983,"Delta":77241483},{"NoteNumber":56,"Velocity":68,"Duration":1138412,"SoundDuration":1138412,"Delta":78308055},{"NoteNumber":58,"Velocity":63,"Duration":1138412,"SoundDuration":1138412,"Delta":79446467},{"NoteNumber":55,"Velocity":63,"Duration":1138412,"SoundDuration":1138412,"Delta":79446467},{"NoteNumber":63,"Velocity":75,"Duration":1138412,"SoundDuration":1138412,"Delta":79446467},{"NoteNumber":51,"Velocity":62,"Duration":1138412,"SoundDuration":1138412,"Delta":79446467},{"NoteNumber":39,"Velocity":52,"Duration":1138412,"SoundDuration":1138412,"Delta":79446467},{"NoteNumber":39,"Velocity":39,"Duration":190730,"SoundDuration":190730,"Delta":80584879},{"NoteNumber":46,"Velocity":39,"Duration":190730,"SoundDuration":190730,"Delta":80775610},{"NoteNumber":51,"Velocity":39,"Duration":190730,"SoundDuration":190730,"Delta":80966340},{"NoteNumber":55,"Velocity":38,"Duration":190730,"SoundDuration":190730,"Delta":81157070},{"NoteNumber":58,"Velocity":40,"Duration":190730,"SoundDuration":190730,"Delta":81347801},{"NoteNumber":63,"Velocity":45,"Duration":190730,"SoundDuration":190730,"Delta":81538531},{"NoteNumber":67,"Velocity":48,"Duration":190481,"SoundDuration":190481,"Delta":81729261},{"NoteNumber":70,"Velocity":46,"Duration":189251,"SoundDuration":189251,"Delta":81919743},{"NoteNumber":63,"Velocity":39,"Duration":189251,"SoundDuration":189251,"Delta":81919743},{"NoteNumber":75,"Velocity":48,"Duration":188280,"SoundDuration":188280,"Delta":82108995},{"NoteNumber":67,"Velocity":40,"Duration":188280,"SoundDuration":188280,"Delta":82108995},{"NoteNumber":79,"Velocity":48,"Duration":187069,"SoundDuration":187069,"Delta":82297275},{"NoteNumber":70,"Velocity":44,"Duration":187069,"SoundDuration":187069,"Delta":82297275},{"NoteNumber":82,"Velocity":49,"Duration":186125,"SoundDuration":186125,"Delta":82484345},{"NoteNumber":75,"Velocity":44,"Duration":186125,"SoundDuration":186125,"Delta":82484345},{"NoteNumber":87,"Velocity":50,"Duration":184715,"SoundDuration":184715,"Delta":82670471},{"NoteNumber":79,"Velocity":44,"Duration":184715,"SoundDuration":184715,"Delta":82670471},{"NoteNumber":75,"Velocity":55,"Duration":1112538,"SoundDuration":1112538,"Delta":82855186},{"NoteNumber":94,"Velocity":55,"Duration":184026,"SoundDuration":184026,"Delta":82855186},{"NoteNumber":79,"Velocity":44,"Duration":184026,"SoundDuration":184026,"Delta":82855186},{"NoteNumber":91,"Velocity":49,"Duration":184026,"SoundDuration":184026,"Delta":83039213},{"NoteNumber":82,"Velocity":37,"Duration":184026,"SoundDuration":184026,"Delta":83039213},{"NoteNumber":94,"Velocity":53,"Duration":184026,"SoundDuration":184026,"Delta":83223239},{"NoteNumber":79,"Velocity":44,"Duration":184026,"SoundDuration":184026,"Delta":83223239},{"NoteNumber":91,"Velocity":49,"Duration":184026,"SoundDuration":184026,"Delta":83407265},{"NoteNumber":82,"Velocity":37,"Duration":184026,"SoundDuration":184026,"Delta":83407265},{"NoteNumber":94,"Velocity":53,"Duration":185702,"SoundDuration":185702,"Delta":83591292},{"NoteNumber":79,"Velocity":44,"Duration":185702,"SoundDuration":185702,"Delta":83591292},{"NoteNumber":91,"Velocity":49,"Duration":190730,"SoundDuration":190730,"Delta":83776994},{"NoteNumber":82,"Velocity":37,"Duration":190730,"SoundDuration":190730,"Delta":83776994},{"NoteNumber":75,"Velocity":53,"Duration":1106894,"SoundDuration":1106894,"Delta":83967724},{"NoteNumber":95,"Velocity":53,"Duration":183099,"SoundDuration":183099,"Delta":83967724},{"NoteNumber":80,"Velocity":40,"Duration":183099,"SoundDuration":183099,"Delta":83967724},{"NoteNumber":92,"Velocity":49,"Duration":183100,"SoundDuration":183100,"Delta":84150824},{"NoteNumber":83,"Velocity":36,"Duration":183100,"SoundDuration":183100,"Delta":84150824},{"NoteNumber":95,"Velocity":53,"Duration":183099,"SoundDuration":183099,"Delta":84333924},{"NoteNumber":80,"Velocity":39,"Duration":183099,"SoundDuration":183099,"Delta":84333924},{"NoteNumber":92,"Velocity":49,"Duration":183099,"SoundDuration":183099,"Delta":84517024},{"NoteNumber":83,"Velocity":35,"Duration":183099,"SoundDuration":183099,"Delta":84517024},{"NoteNumber":95,"Velocity":51,"Duration":184758,"SoundDuration":184758,"Delta":84700124},{"NoteNumber":80,"Velocity":39,"Duration":184758,"SoundDuration":184758,"Delta":84700124},{"NoteNumber":92,"Velocity":49,"Duration":189735,"SoundDuration":189735,"Delta":84884883},{"NoteNumber":83,"Velocity":35,"Duration":189735,"SoundDuration":189735,"Delta":84884883},{"NoteNumber":99,"Velocity":51,"Duration":183099,"SoundDuration":183099,"Delta":85074618},{"NoteNumber":91,"Velocity":51,"Duration":183099,"SoundDuration":183099,"Delta":85074618},{"NoteNumber":82,"Velocity":44,"Duration":1098600,"SoundDuration":1098600,"Delta":85074618},{"NoteNumber":75,"Velocity":44,"Duration":1098600,"SoundDuration":1098600,"Delta":85074618},{"NoteNumber":96,"Velocity":49,"Duration":183100,"SoundDuration":183100,"Delta":85257718},{"NoteNumber":94,"Velocity":49,"Duration":183099,"SoundDuration":183099,"Delta":85440818},{"NoteNumber":91,"Velocity":48,"Duration":183099,"SoundDuration":183099,"Delta":85623918},{"NoteNumber":87,"Velocity":48,"Duration":183099,"SoundDuration":183099,"Delta":85807018},{"NoteNumber":84,"Velocity":48,"Duration":183100,"SoundDuration":183100,"Delta":85990118},{"NoteNumber":82,"Velocity":48,"Duration":183099,"SoundDuration":183099,"Delta":86173218},{"NoteNumber":79,"Velocity":48,"Duration":183100,"SoundDuration":183100,"Delta":86356318},{"NoteNumber":75,"Velocity":48,"Duration":183099,"SoundDuration":183099,"Delta":86539418},{"NoteNumber":72,"Velocity":47,"Duration":183100,"SoundDuration":183100,"Delta":86722518},{"NoteNumber":70,"Velocity":46,"Duration":185663,"SoundDuration":185663,"Delta":86905618},{"NoteNumber":67,"Velocity":46,"Duration":190492,"SoundDuration":190492,"Delta":87091282},{"NoteNumber":63,"Velocity":49,"Duration":1156404,"SoundDuration":1156404,"Delta":87281774},{"NoteNumber":56,"Velocity":40,"Duration":1132552,"SoundDuration":1132552,"Delta":88438178},{"NoteNumber":63,"Velocity":40,"Duration":1132552,"SoundDuration":1132552,"Delta":88438178},{"NoteNumber":48,"Velocity":39,"Duration":563379,"SoundDuration":563379,"Delta":88438178},{"NoteNumber":39,"Velocity":39,"Duration":1132552,"SoundDuration":1132552,"Delta":88438178},{"NoteNumber":47,"Velocity":36,"Duration":581282,"SoundDuration":581282,"Delta":89001558},{"NoteNumber":55,"Velocity":35,"Duration":1150455,"SoundDuration":1150455,"Delta":89582841},{"NoteNumber":63,"Velocity":42,"Duration":1150455,"SoundDuration":1150455,"Delta":89582841},{"NoteNumber":39,"Velocity":28,"Duration":1150455,"SoundDuration":1150455,"Delta":89582841},{"NoteNumber":46,"Velocity":34,"Duration":1150455,"SoundDuration":1150455,"Delta":89582841},{"NoteNumber":55,"Velocity":32,"Duration":1188093,"SoundDuration":1188093,"Delta":90745407},{"NoteNumber":63,"Velocity":38,"Duration":1188093,"SoundDuration":1188093,"Delta":90745407},{"NoteNumber":39,"Velocity":23,"Duration":1188093,"SoundDuration":1188093,"Delta":90745407},{"NoteNumber":46,"Velocity":28,"Duration":1188093,"SoundDuration":1188093,"Delta":90745407},{"NoteNumber":55,"Velocity":32,"Duration":1250000,"SoundDuration":1250000,"Delta":91946007},{"NoteNumber":63,"Velocity":38,"Duration":1250000,"SoundDuration":1250000,"Delta":91946007},{"NoteNumber":39,"Velocity":23,"Duration":1250000,"SoundDuration":1250000,"Delta":91946007},{"NoteNumber":46,"Velocity":28,"Duration":1250000,"SoundDuration":1250000,"Delta":91946007},{"NoteNumber":55,"Velocity":32,"Duration":4000001,"SoundDuration":4000001,"Delta":93209165},{"NoteNumber":63,"Velocity":38,"Duration":4000001,"SoundDuration":4000001,"Delta":93209165},{"NoteNumber":46,"Velocity":28,"Duration":4000001,"SoundDuration":4000001,"Delta":93209165},{"NoteNumber":39,"Velocity":23,"Duration":4000001,"SoundDuration":4000001,"Delta":93209165},{"NoteNumber":36,"Velocity":45,"Duration":1186396,"SoundDuration":1186396,"Delta":97572803},{"NoteNumber":43,"Velocity":41,"Duration":395465,"SoundDuration":395465,"Delta":97968269},{"NoteNumber":50,"Velocity":42,"Duration":395465,"SoundDuration":395465,"Delta":98363734},{"NoteNumber":55,"Velocity":50,"Duration":395465,"SoundDuration":395465,"Delta":98759200},{"NoteNumber":50,"Velocity":41,"Duration":395465,"SoundDuration":395465,"Delta":99154665},{"NoteNumber":43,"Velocity":38,"Duration":408440,"SoundDuration":408440,"Delta":99550131},{"NoteNumber":36,"Velocity":45,"Duration":1186396,"SoundDuration":1186396,"Delta":99958572},{"NoteNumber":43,"Velocity":41,"Duration":395465,"SoundDuration":395465,"Delta":100354037},{"NoteNumber":50,"Velocity":42,"Duration":395465,"SoundDuration":395465,"Delta":100749503},{"NoteNumber":55,"Velocity":50,"Duration":395465,"SoundDuration":395465,"Delta":101144968},{"NoteNumber":50,"Velocity":40,"Duration":395465,"SoundDuration":395465,"Delta":101540434},{"NoteNumber":43,"Velocity":37,"Duration":408440,"SoundDuration":408440,"Delta":101935899},{"NoteNumber":62,"Velocity":41,"Duration":768011,"SoundDuration":768011,"Delta":102344340},{"NoteNumber":67,"Velocity":50,"Duration":768011,"SoundDuration":768011,"Delta":102344340},{"NoteNumber":36,"Velocity":45,"Duration":1164143,"SoundDuration":1164143,"Delta":102344340},{"NoteNumber":43,"Velocity":41,"Duration":388047,"SoundDuration":388047,"Delta":102732388},{"NoteNumber":62,"Velocity":40,"Duration":383197,"SoundDuration":383197,"Delta":103120436},{"NoteNumber":67,"Velocity":48,"Duration":383197,"SoundDuration":383197,"Delta":103120436},{"NoteNumber":50,"Velocity":42,"Duration":388047,"SoundDuration":388047,"Delta":103120436},{"NoteNumber":62,"Velocity":50,"Duration":1199371,"SoundDuration":1199371,"Delta":103508484},{"NoteNumber":55,"Velocity":41,"Duration":1199371,"SoundDuration":1199371,"Delta":103508484},{"NoteNumber":50,"Velocity":41,"Duration":395465,"SoundDuration":395465,"Delta":103903950},{"NoteNumber":43,"Velocity":39,"Duration":408440,"SoundDuration":408440,"Delta":104299415},{"NoteNumber":62,"Velocity":41,"Duration":768011,"SoundDuration":768011,"Delta":104707856},{"NoteNumber":67,"Velocity":50,"Duration":768011,"SoundDuration":768011,"Delta":104707856},{"NoteNumber":36,"Velocity":45,"Duration":1164143,"SoundDuration":1164143,"Delta":104707856},{"NoteNumber":43,"Velocity":41,"Duration":388047,"SoundDuration":388047,"Delta":105095904},{"NoteNumber":62,"Velocity":39,"Duration":383197,"SoundDuration":383197,"Delta":105483952},{"NoteNumber":67,"Velocity":47,"Duration":383197,"SoundDuration":383197,"Delta":105483952},{"NoteNumber":50,"Velocity":42,"Duration":388047,"SoundDuration":388047,"Delta":105483952},{"NoteNumber":62,"Velocity":50,"Duration":1199371,"SoundDuration":1199371,"Delta":105872000},{"NoteNumber":55,"Velocity":41,"Duration":1199371,"SoundDuration":1199371,"Delta":105872000},{"NoteNumber":50,"Velocity":41,"Duration":395465,"SoundDuration":395465,"Delta":106267466},{"NoteNumber":43,"Velocity":38,"Duration":408440,"SoundDuration":408440,"Delta":106662931},{"NoteNumber":71,"Velocity":50,"Duration":582071,"SoundDuration":582071,"Delta":107071372},{"NoteNumber":62,"Velocity":41,"Duration":1174132,"SoundDuration":1174132,"Delta":107071372},{"NoteNumber":36,"Velocity":45,"Duration":1174132,"SoundDuration":1174132,"Delta":107071372},{"NoteNumber":43,"Velocity":41,"Duration":388047,"SoundDuration":388047,"Delta":107459420},{"NoteNumber":72,"Velocity":48,"Duration":194023,"SoundDuration":194023,"Delta":107653444},{"NoteNumber":71,"Velocity":45,"Duration":398036,"SoundDuration":398036,"Delta":107847468},{"NoteNumber":50,"Velocity":42,"Duration":398036,"SoundDuration":398036,"Delta":107847468},{"NoteNumber":67,"Velocity":49,"Duration":1199371,"SoundDuration":1199371,"Delta":108245505},{"NoteNumber":59,"Velocity":41,"Duration":1199371,"SoundDuration":1199371,"Delta":108245505},{"NoteNumber":53,"Velocity":42,"Duration":395465,"SoundDuration":395465,"Delta":108245505},{"NoteNumber":50,"Velocity":41,"Duration":395465,"SoundDuration":395465,"Delta":108640970},{"NoteNumber":43,"Velocity":39,"Duration":408440,"SoundDuration":408440,"Delta":109036436},{"NoteNumber":71,"Velocity":50,"Duration":582071,"SoundDuration":582071,"Delta":109444877},{"NoteNumber":62,"Velocity":41,"Duration":1174132,"SoundDuration":1174132,"Delta":109444877},{"NoteNumber":36,"Velocity":45,"Duration":1174132,"SoundDuration":1174132,"Delta":109444877},{"NoteNumber":43,"Velocity":41,"Duration":388047,"SoundDuration":388047,"Delta":109832925},{"NoteNumber":72,"Velocity":48,"Duration":194023,"SoundDuration":194023,"Delta":110026949},{"NoteNumber":71,"Velocity":45,"Duration":398036,"SoundDuration":398036,"Delta":110220973},{"NoteNumber":50,"Velocity":42,"Duration":398036,"SoundDuration":398036,"Delta":110220973},{"NoteNumber":67,"Velocity":49,"Duration":1199371,"SoundDuration":1199371,"Delta":110619009},{"NoteNumber":59,"Velocity":41,"Duration":1199371,"SoundDuration":1199371,"Delta":110619009},{"NoteNumber":53,"Velocity":42,"Duration":395465,"SoundDuration":395465,"Delta":110619009},{"NoteNumber":50,"Velocity":41,"Duration":395465,"SoundDuration":395465,"Delta":111014475},{"NoteNumber":43,"Velocity":38,"Duration":408440,"SoundDuration":408440,"Delta":111409940},{"NoteNumber":69,"Velocity":52,"Duration":768011,"SoundDuration":768011,"Delta":111818381},{"NoteNumber":74,"Velocity":62,"Duration":768011,"SoundDuration":768011,"Delta":111818381},{"NoteNumber":36,"Velocity":45,"Duration":1164143,"SoundDuration":1164143,"Delta":111818381},{"NoteNumber":43,"Velocity":41,"Duration":388047,"SoundDuration":388047,"Delta":112206429},{"NoteNumber":69,"Velocity":49,"Duration":383197,"SoundDuration":383197,"Delta":112594477},{"NoteNumber":74,"Velocity":59,"Duration":383197,"SoundDuration":383197,"Delta":112594477},{"NoteNumber":50,"Velocity":42,"Duration":388047,"SoundDuration":388047,"Delta":112594477},{"NoteNumber":71,"Velocity":62,"Duration":1199371,"SoundDuration":1199371,"Delta":112982525},{"NoteNumber":65,"Velocity":52,"Duration":1199371,"SoundDuration":1199371,"Delta":112982525},{"NoteNumber":55,"Velocity":42,"Duration":395465,"SoundDuration":395465,"Delta":112982525},{"NoteNumber":50,"Velocity":41,"Duration":395465,"SoundDuration":395465,"Delta":113377991},{"NoteNumber":43,"Velocity":39,"Duration":408440,"SoundDuration":408440,"Delta":113773456},{"NoteNumber":69,"Velocity":52,"Duration":768011,"SoundDuration":768011,"Delta":114181897},{"NoteNumber":74,"Velocity":62,"Duration":768011,"SoundDuration":768011,"Delta":114181897},{"NoteNumber":36,"Velocity":45,"Duration":1164143,"SoundDuration":1164143,"Delta":114181897},{"NoteNumber":43,"Velocity":41,"Duration":388047,"SoundDuration":388047,"Delta":114569945},{"NoteNumber":69,"Velocity":49,"Duration":383197,"SoundDuration":383197,"Delta":114957993},{"NoteNumber":74,"Velocity":59,"Duration":383197,"SoundDuration":383197,"Delta":114957993},{"NoteNumber":50,"Velocity":42,"Duration":388047,"SoundDuration":388047,"Delta":114957993},{"NoteNumber":71,"Velocity":62,"Duration":1199371,"SoundDuration":1199371,"Delta":115346041},{"NoteNumber":65,"Velocity":52,"Duration":1199371,"SoundDuration":1199371,"Delta":115346041},{"NoteNumber":55,"Velocity":42,"Duration":395465,"SoundDuration":395465,"Delta":115346041},{"NoteNumber":50,"Velocity":42,"Duration":395465,"SoundDuration":395465,"Delta":115741507},{"NoteNumber":43,"Velocity":39,"Duration":408440,"SoundDuration":408440,"Delta":116136972},{"NoteNumber":71,"Velocity":58,"Duration":582071,"SoundDuration":582071,"Delta":116545413},{"NoteNumber":77,"Velocity":69,"Duration":582071,"SoundDuration":582071,"Delta":116545413},{"NoteNumber":36,"Velocity":49,"Duration":1170560,"SoundDuration":1170560,"Delta":116545413},{"NoteNumber":43,"Velocity":45,"Duration":384475,"SoundDuration":384475,"Delta":116933461},{"NoteNumber":74,"Velocity":55,"Duration":190451,"SoundDuration":190451,"Delta":117127485},{"NoteNumber":79,"Velocity":64,"Duration":190451,"SoundDuration":190451,"Delta":117127485},{"NoteNumber":71,"Velocity":51,"Duration":398036,"SoundDuration":398036,"Delta":117317937},{"NoteNumber":77,"Velocity":62,"Duration":398036,"SoundDuration":398036,"Delta":117317937},{"NoteNumber":50,"Velocity":47,"Duration":398036,"SoundDuration":398036,"Delta":117317937},{"NoteNumber":74,"Velocity":68,"Duration":1199371,"SoundDuration":1199371,"Delta":117715974},{"NoteNumber":65,"Velocity":57,"Duration":1199371,"SoundDuration":1199371,"Delta":117715974},{"NoteNumber":55,"Velocity":47,"Duration":395465,"SoundDuration":395465,"Delta":117715974},{"NoteNumber":50,"Velocity":49,"Duration":395465,"SoundDuration":395465,"Delta":118111439},{"NoteNumber":43,"Velocity":46,"Duration":408440,"SoundDuration":408440,"Delta":118506905},{"NoteNumber":71,"Velocity":58,"Duration":582071,"SoundDuration":582071,"Delta":118915346},{"NoteNumber":77,"Velocity":69,"Duration":582071,"SoundDuration":582071,"Delta":118915346},{"NoteNumber":36,"Velocity":49,"Duration":1168243,"SoundDuration":1168243,"Delta":118915346},{"NoteNumber":43,"Velocity":45,"Duration":382159,"SoundDuration":382159,"Delta":119303394},{"NoteNumber":74,"Velocity":55,"Duration":188135,"SoundDuration":188135,"Delta":119497418},{"NoteNumber":79,"Velocity":64,"Duration":188135,"SoundDuration":188135,"Delta":119497418},{"NoteNumber":71,"Velocity":51,"Duration":398036,"SoundDuration":398036,"Delta":119685553},{"NoteNumber":77,"Velocity":62,"Duration":398036,"SoundDuration":398036,"Delta":119685553},{"NoteNumber":50,"Velocity":47,"Duration":398036,"SoundDuration":398036,"Delta":119685553},{"NoteNumber":74,"Velocity":68,"Duration":1199371,"SoundDuration":1199371,"Delta":120083589},{"NoteNumber":65,"Velocity":57,"Duration":1199371,"SoundDuration":1199371,"Delta":120083589},{"NoteNumber":55,"Velocity":47,"Duration":395465,"SoundDuration":395465,"Delta":120083589},{"NoteNumber":50,"Velocity":49,"Duration":395465,"SoundDuration":395465,"Delta":120479055},{"NoteNumber":43,"Velocity":46,"Duration":408440,"SoundDuration":408440,"Delta":120874520},{"NoteNumber":71,"Velocity":60,"Duration":572668,"SoundDuration":572668,"Delta":121282961},{"NoteNumber":79,"Velocity":71,"Duration":572668,"SoundDuration":572668,"Delta":121282961},{"NoteNumber":36,"Velocity":51,"Duration":1154918,"SoundDuration":1154918,"Delta":121282961},{"NoteNumber":43,"Velocity":47,"Duration":383346,"SoundDuration":383346,"Delta":121661606},{"NoteNumber":67,"Velocity":58,"Duration":189322,"SoundDuration":189322,"Delta":121855630},{"NoteNumber":77,"Velocity":69,"Duration":189322,"SoundDuration":189322,"Delta":121855630},{"NoteNumber":71,"Velocity":55,"Duration":392927,"SoundDuration":392927,"Delta":122044952},{"NoteNumber":79,"Velocity":64,"Duration":392927,"SoundDuration":392927,"Delta":122044952},{"NoteNumber":50,"Velocity":50,"Duration":392927,"SoundDuration":392927,"Delta":122044952},{"NoteNumber":77,"Velocity":72,"Duration":380904,"SoundDuration":380904,"Delta":122437880},{"NoteNumber":67,"Velocity":62,"Duration":380904,"SoundDuration":380904,"Delta":122437880},{"NoteNumber":55,"Velocity":51,"Duration":380904,"SoundDuration":380904,"Delta":122437880},{"NoteNumber":71,"Velocity":58,"Duration":388047,"SoundDuration":388047,"Delta":122818784},{"NoteNumber":79,"Velocity":69,"Duration":388047,"SoundDuration":388047,"Delta":122818784},{"NoteNumber":50,"Velocity":53,"Duration":388047,"SoundDuration":388047,"Delta":122818784},{"NoteNumber":67,"Velocity":60,"Duration":398036,"SoundDuration":398036,"Delta":123206832},{"NoteNumber":77,"Velocity":71,"Duration":398036,"SoundDuration":398036,"Delta":123206832},{"NoteNumber":43,"Velocity":50,"Duration":398036,"SoundDuration":398036,"Delta":123206832},{"NoteNumber":74,"Velocity":63,"Duration":572668,"SoundDuration":572668,"Delta":123604868},{"NoteNumber":83,"Velocity":77,"Duration":572668,"SoundDuration":572668,"Delta":123604868},{"NoteNumber":36,"Velocity":53,"Duration":1154918,"SoundDuration":1154918,"Delta":123604868},{"NoteNumber":43,"Velocity":50,"Duration":383346,"SoundDuration":383346,"Delta":123983513},{"NoteNumber":71,"Velocity":62,"Duration":189322,"SoundDuration":189322,"Delta":124177537},{"NoteNumber":79,"Velocity":74,"Duration":189322,"SoundDuration":189322,"Delta":124177537},{"NoteNumber":74,"Velocity":59,"Duration":392927,"SoundDuration":392927,"Delta":124366859},{"NoteNumber":83,"Velocity":70,"Duration":392927,"SoundDuration":392927,"Delta":124366859},{"NoteNumber":50,"Velocity":53,"Duration":392927,"SoundDuration":392927,"Delta":124366859},{"NoteNumber":86,"Velocity":78,"Duration":380904,"SoundDuration":380904,"Delta":124759786},{"NoteNumber":77,"Velocity":64,"Duration":380904,"SoundDuration":380904,"Delta":124759786},{"NoteNumber":55,"Velocity":55,"Duration":380904,"SoundDuration":380904,"Delta":124759786},{"NoteNumber":74,"Velocity":62,"Duration":398036,"SoundDuration":398036,"Delta":125140690},{"NoteNumber":83,"Velocity":74,"Duration":398036,"SoundDuration":398036,"Delta":125140690},{"NoteNumber":50,"Velocity":57,"Duration":398036,"SoundDuration":398036,"Delta":125140690},{"NoteNumber":77,"Velocity":62,"Duration":413907,"SoundDuration":413907,"Delta":125538727},{"NoteNumber":86,"Velocity":74,"Duration":413907,"SoundDuration":413907,"Delta":125538727},{"NoteNumber":43,"Velocity":53,"Duration":413907,"SoundDuration":413907,"Delta":125538727},{"NoteNumber":72,"Velocity":68,"Duration":1216216,"SoundDuration":1216216,"Delta":125952634},{"NoteNumber":76,"Velocity":68,"Duration":1216216,"SoundDuration":1216216,"Delta":125952634},{"NoteNumber":84,"Velocity":81,"Duration":1216216,"SoundDuration":1216216,"Delta":125952634},{"NoteNumber":36,"Velocity":53,"Duration":405405,"SoundDuration":405405,"Delta":125952634},{"NoteNumber":43,"Velocity":41,"Duration":405405,"SoundDuration":405405,"Delta":126358040},{"NoteNumber":48,"Velocity":41,"Duration":405405,"SoundDuration":405405,"Delta":126763445},{"NoteNumber":52,"Velocity":37,"Duration":198675,"SoundDuration":198675,"Delta":127168851},{"NoteNumber":55,"Velocity":39,"Duration":197368,"SoundDuration":197368,"Delta":127367526},{"NoteNumber":57,"Velocity":42,"Duration":196078,"SoundDuration":196078,"Delta":127564895},{"NoteNumber":55,"Velocity":42,"Duration":197368,"SoundDuration":197368,"Delta":127760973},{"NoteNumber":52,"Velocity":42,"Duration":198675,"SoundDuration":198675,"Delta":127958342},{"NoteNumber":48,"Velocity":41,"Duration":217801,"SoundDuration":217801,"Delta":128157017},{"NoteNumber":36,"Velocity":45,"Duration":408163,"SoundDuration":408163,"Delta":128374819},{"NoteNumber":43,"Velocity":41,"Duration":408163,"SoundDuration":408163,"Delta":128782983},{"NoteNumber":48,"Velocity":41,"Duration":405405,"SoundDuration":405405,"Delta":129191146},{"NoteNumber":52,"Velocity":37,"Duration":199809,"SoundDuration":199809,"Delta":129596552},{"NoteNumber":55,"Velocity":39,"Duration":198896,"SoundDuration":198896,"Delta":129796362},{"NoteNumber":57,"Velocity":42,"Duration":197368,"SoundDuration":197368,"Delta":129995258},{"NoteNumber":55,"Velocity":42,"Duration":197586,"SoundDuration":197586,"Delta":130192626},{"NoteNumber":52,"Velocity":42,"Duration":197586,"SoundDuration":197586,"Delta":130390213},{"NoteNumber":48,"Velocity":41,"Duration":214868,"SoundDuration":214868,"Delta":130587799},{"NoteNumber":64,"Velocity":41,"Duration":649012,"SoundDuration":649012,"Delta":130802668},{"NoteNumber":67,"Velocity":50,"Duration":649012,"SoundDuration":649012,"Delta":130802668},{"NoteNumber":36,"Velocity":45,"Duration":410452,"SoundDuration":410452,"Delta":130802668},{"NoteNumber":43,"Velocity":41,"Duration":405226,"SoundDuration":405226,"Delta":131213121},{"NoteNumber":65,"Velocity":40,"Duration":234204,"SoundDuration":234204,"Delta":131418348},{"NoteNumber":69,"Velocity":46,"Duration":234204,"SoundDuration":234204,"Delta":131418348},{"NoteNumber":64,"Velocity":38,"Duration":410452,"SoundDuration":410452,"Delta":131618348},{"NoteNumber":67,"Velocity":45,"Duration":410452,"SoundDuration":410452,"Delta":131618348},{"NoteNumber":48,"Velocity":41,"Duration":410452,"SoundDuration":410452,"Delta":131618348},{"NoteNumber":60,"Velocity":36,"Duration":397719,"SoundDuration":397719,"Delta":132028801},{"NoteNumber":64,"Velocity":41,"Duration":397719,"SoundDuration":397719,"Delta":132028801},{"NoteNumber":52,"Velocity":37,"Duration":198859,"SoundDuration":198859,"Delta":132028801},{"NoteNumber":55,"Velocity":39,"Duration":198859,"SoundDuration":198859,"Delta":132227660},{"NoteNumber":79,"Velocity":47,"Duration":99429,"SoundDuration":99429,"Delta":132327090},{"NoteNumber":91,"Velocity":53,"Duration":397719,"SoundDuration":397719,"Delta":132426520},{"NoteNumber":57,"Velocity":42,"Duration":198859,"SoundDuration":198859,"Delta":132426520},{"NoteNumber":55,"Velocity":42,"Duration":198859,"SoundDuration":198859,"Delta":132625380},{"NoteNumber":52,"Velocity":42,"Duration":206896,"SoundDuration":206896,"Delta":132824240},{"NoteNumber":48,"Velocity":41,"Duration":214868,"SoundDuration":214868,"Delta":133031136},{"NoteNumber":64,"Velocity":41,"Duration":649012,"SoundDuration":649012,"Delta":133246005},{"NoteNumber":67,"Velocity":50,"Duration":649012,"SoundDuration":649012,"Delta":133246005},{"NoteNumber":36,"Velocity":45,"Duration":410452,"SoundDuration":410452,"Delta":133246005},{"NoteNumber":43,"Velocity":41,"Duration":405226,"SoundDuration":405226,"Delta":133656458},{"NoteNumber":65,"Velocity":40,"Duration":234204,"SoundDuration":234204,"Delta":133861685},{"NoteNumber":69,"Velocity":46,"Duration":234204,"SoundDuration":234204,"Delta":133861685},{"NoteNumber":64,"Velocity":38,"Duration":410452,"SoundDuration":410452,"Delta":134061685},{"NoteNumber":67,"Velocity":45,"Duration":410452,"SoundDuration":410452,"Delta":134061685},{"NoteNumber":48,"Velocity":41,"Duration":410452,"SoundDuration":410452,"Delta":134061685},{"NoteNumber":60,"Velocity":36,"Duration":397719,"SoundDuration":397719,"Delta":134472138},{"NoteNumber":64,"Velocity":41,"Duration":397719,"SoundDuration":397719,"Delta":134472138},{"NoteNumber":52,"Velocity":37,"Duration":198859,"SoundDuration":198859,"Delta":134472138},{"NoteNumber":55,"Velocity":39,"Duration":198859,"SoundDuration":198859,"Delta":134670997},{"NoteNumber":79,"Velocity":47,"Duration":99429,"SoundDuration":99429,"Delta":134770427},{"NoteNumber":91,"Velocity":53,"Duration":397719,"SoundDuration":397719,"Delta":134869857},{"NoteNumber":57,"Velocity":42,"Duration":198859,"SoundDuration":198859,"Delta":134869857},{"NoteNumber":55,"Velocity":42,"Duration":198859,"SoundDuration":198859,"Delta":135068717},{"NoteNumber":52,"Velocity":42,"Duration":205479,"SoundDuration":205479,"Delta":135267577},{"NoteNumber":48,"Velocity":41,"Duration":214868,"SoundDuration":214868,"Delta":135473056},{"NoteNumber":65,"Velocity":47,"Duration":813137,"SoundDuration":813137,"Delta":135687925},{"NoteNumber":74,"Velocity":57,"Duration":813137,"SoundDuration":813137,"Delta":135687925},{"NoteNumber":43,"Velocity":45,"Duration":410452,"SoundDuration":410452,"Delta":135687925},{"NoteNumber":47,"Velocity":41,"Duration":402684,"SoundDuration":402684,"Delta":136098378},{"NoteNumber":65,"Velocity":47,"Duration":410452,"SoundDuration":410452,"Delta":136501063},{"NoteNumber":74,"Velocity":57,"Duration":410452,"SoundDuration":410452,"Delta":136501063},{"NoteNumber":50,"Velocity":41,"Duration":410452,"SoundDuration":410452,"Delta":136501063},{"NoteNumber":62,"Velocity":42,"Duration":397719,"SoundDuration":397719,"Delta":136911516},{"NoteNumber":71,"Velocity":52,"Duration":397719,"SoundDuration":397719,"Delta":136911516},{"NoteNumber":55,"Velocity":37,"Duration":198859,"SoundDuration":198859,"Delta":136911516},{"NoteNumber":57,"Velocity":39,"Duration":198859,"SoundDuration":198859,"Delta":137110375},{"NoteNumber":79,"Velocity":47,"Duration":99429,"SoundDuration":99429,"Delta":137209805},{"NoteNumber":91,"Velocity":53,"Duration":397719,"SoundDuration":397719,"Delta":137309235},{"NoteNumber":55,"Velocity":42,"Duration":198859,"SoundDuration":198859,"Delta":137309235},{"NoteNumber":53,"Velocity":42,"Duration":198859,"SoundDuration":198859,"Delta":137508095},{"NoteNumber":52,"Velocity":42,"Duration":205479,"SoundDuration":205479,"Delta":137706955},{"NoteNumber":50,"Velocity":41,"Duration":214868,"SoundDuration":214868,"Delta":137912434},{"NoteNumber":64,"Velocity":42,"Duration":821956,"SoundDuration":821956,"Delta":138127303},{"NoteNumber":72,"Velocity":52,"Duration":821956,"SoundDuration":821956,"Delta":138127303},{"NoteNumber":36,"Velocity":45,"Duration":413792,"SoundDuration":413792,"Delta":138127303},{"NoteNumber":43,"Velocity":41,"Duration":408163,"SoundDuration":408163,"Delta":138541096},{"NoteNumber":64,"Velocity":41,"Duration":413792,"SoundDuration":413792,"Delta":138949260},{"NoteNumber":72,"Velocity":50,"Duration":413792,"SoundDuration":413792,"Delta":138949260},{"NoteNumber":48,"Velocity":41,"Duration":413792,"SoundDuration":413792,"Delta":138949260},{"NoteNumber":64,"Velocity":40,"Duration":401342,"SoundDuration":401342,"Delta":139363053},{"NoteNumber":67,"Velocity":48,"Duration":401342,"SoundDuration":401342,"Delta":139363053},{"NoteNumber":52,"Velocity":37,"Duration":201342,"SoundDuration":201342,"Delta":139363053},{"NoteNumber":55,"Velocity":39,"Duration":199999,"SoundDuration":199999,"Delta":139564395},{"NoteNumber":79,"Velocity":47,"Duration":99999,"SoundDuration":99999,"Delta":139664395},{"NoteNumber":91,"Velocity":53,"Duration":397350,"SoundDuration":397350,"Delta":139764395},{"NoteNumber":57,"Velocity":42,"Duration":198675,"SoundDuration":198675,"Delta":139764395},{"NoteNumber":55,"Velocity":42,"Duration":198675,"SoundDuration":198675,"Delta":139963070},{"NoteNumber":52,"Velocity":42,"Duration":205479,"SoundDuration":205479,"Delta":140161746},{"NoteNumber":48,"Velocity":41,"Duration":214868,"SoundDuration":214868,"Delta":140367225},{"NoteNumber":65,"Velocity":52,"Duration":813453,"SoundDuration":813453,"Delta":140582094},{"NoteNumber":69,"Velocity":52,"Duration":813453,"SoundDuration":813453,"Delta":140582094},{"NoteNumber":41,"Velocity":45,"Duration":413792,"SoundDuration":413792,"Delta":140582094},{"NoteNumber":48,"Velocity":41,"Duration":408163,"SoundDuration":408163,"Delta":140995887},{"NoteNumber":65,"Velocity":52,"Duration":408620,"SoundDuration":408620,"Delta":141404051},{"NoteNumber":69,"Velocity":52,"Duration":408620,"SoundDuration":408620,"Delta":141404051},{"NoteNumber":53,"Velocity":41,"Duration":413792,"SoundDuration":413792,"Delta":141404051},{"NoteNumber":69,"Velocity":53,"Duration":647445,"SoundDuration":647445,"Delta":141817844},{"NoteNumber":72,"Velocity":53,"Duration":647445,"SoundDuration":647445,"Delta":141817844},{"NoteNumber":57,"Velocity":37,"Duration":205479,"SoundDuration":205479,"Delta":141817844},{"NoteNumber":48,"Velocity":39,"Duration":205479,"SoundDuration":205479,"Delta":142023323},{"NoteNumber":53,"Velocity":42,"Duration":202702,"SoundDuration":202702,"Delta":142228803},{"NoteNumber":67,"Velocity":51,"Duration":236949,"SoundDuration":236949,"Delta":142431506},{"NoteNumber":71,"Velocity":51,"Duration":236949,"SoundDuration":236949,"Delta":142431506},{"NoteNumber":55,"Velocity":42,"Duration":202702,"SoundDuration":202702,"Delta":142431506},{"NoteNumber":65,"Velocity":50,"Duration":420348,"SoundDuration":420348,"Delta":142634208},{"NoteNumber":69,"Velocity":50,"Duration":420348,"SoundDuration":420348,"Delta":142634208},{"NoteNumber":57,"Velocity":42,"Duration":205479,"SoundDuration":205479,"Delta":142634208},{"NoteNumber":59,"Velocity":41,"Duration":214868,"SoundDuration":214868,"Delta":142839688},{"NoteNumber":64,"Velocity":41,"Duration":649012,"SoundDuration":649012,"Delta":143054557},{"NoteNumber":67,"Velocity":50,"Duration":649012,"SoundDuration":649012,"Delta":143054557},{"NoteNumber":60,"Velocity":48,"Duration":410452,"SoundDuration":410452,"Delta":143054557},{"NoteNumber":55,"Velocity":41,"Duration":405226,"SoundDuration":405226,"Delta":143465010},{"NoteNumber":65,"Velocity":40,"Duration":234204,"SoundDuration":234204,"Delta":143670236},{"NoteNumber":69,"Velocity":46,"Duration":234204,"SoundDuration":234204,"Delta":143670236},{"NoteNumber":64,"Velocity":38,"Duration":410452,"SoundDuration":410452,"Delta":143870236},{"NoteNumber":67,"Velocity":45,"Duration":410452,"SoundDuration":410452,"Delta":143870236},{"NoteNumber":48,"Velocity":41,"Duration":410452,"SoundDuration":410452,"Delta":143870236},{"NoteNumber":60,"Velocity":36,"Duration":397719,"SoundDuration":397719,"Delta":144280689},{"NoteNumber":64,"Velocity":41,"Duration":397719,"SoundDuration":397719,"Delta":144280689},{"NoteNumber":36,"Velocity":37,"Duration":198859,"SoundDuration":198859,"Delta":144280689},{"NoteNumber":43,"Velocity":39,"Duration":198859,"SoundDuration":198859,"Delta":144479549},{"NoteNumber":79,"Velocity":47,"Duration":99429,"SoundDuration":99429,"Delta":144578979},{"NoteNumber":91,"Velocity":53,"Duration":397719,"SoundDuration":397719,"Delta":144678409},{"NoteNumber":48,"Velocity":42,"Duration":198859,"SoundDuration":198859,"Delta":144678409},{"NoteNumber":52,"Velocity":42,"Duration":198859,"SoundDuration":198859,"Delta":144877269},{"NoteNumber":55,"Velocity":42,"Duration":206896,"SoundDuration":206896,"Delta":145076128},{"NoteNumber":60,"Velocity":41,"Duration":214868,"SoundDuration":214868,"Delta":145283025},{"NoteNumber":65,"Velocity":52,"Duration":813453,"SoundDuration":813453,"Delta":145497894},{"NoteNumber":69,"Velocity":52,"Duration":813453,"SoundDuration":813453,"Delta":145497894},{"NoteNumber":41,"Velocity":45,"Duration":413792,"SoundDuration":413792,"Delta":145497894},{"NoteNumber":48,"Velocity":41,"Duration":408163,"SoundDuration":408163,"Delta":145911687},{"NoteNumber":65,"Velocity":52,"Duration":408620,"SoundDuration":408620,"Delta":146319850},{"NoteNumber":69,"Velocity":52,"Duration":408620,"SoundDuration":408620,"Delta":146319850},{"NoteNumber":53,"Velocity":41,"Duration":413792,"SoundDuration":413792,"Delta":146319850},{"NoteNumber":69,"Velocity":53,"Duration":647445,"SoundDuration":647445,"Delta":146733643},{"NoteNumber":72,"Velocity":53,"Duration":647445,"SoundDuration":647445,"Delta":146733643},{"NoteNumber":57,"Velocity":37,"Duration":205479,"SoundDuration":205479,"Delta":146733643},{"NoteNumber":48,"Velocity":39,"Duration":205479,"SoundDuration":205479,"Delta":146939123},{"NoteNumber":53,"Velocity":42,"Duration":202702,"SoundDuration":202702,"Delta":147144602},{"NoteNumber":67,"Velocity":51,"Duration":236949,"SoundDuration":236949,"Delta":147347305},{"NoteNumber":71,"Velocity":51,"Duration":236949,"SoundDuration":236949,"Delta":147347305},{"NoteNumber":55,"Velocity":42,"Duration":202702,"SoundDuration":202702,"Delta":147347305},{"NoteNumber":65,"Velocity":50,"Duration":420348,"SoundDuration":420348,"Delta":147550008},{"NoteNumber":69,"Velocity":50,"Duration":420348,"SoundDuration":420348,"Delta":147550008},{"NoteNumber":57,"Velocity":42,"Duration":205479,"SoundDuration":205479,"Delta":147550008},{"NoteNumber":59,"Velocity":41,"Duration":214868,"SoundDuration":214868,"Delta":147755487},{"NoteNumber":64,"Velocity":41,"Duration":649012,"SoundDuration":649012,"Delta":147970356},{"NoteNumber":67,"Velocity":50,"Duration":649012,"SoundDuration":649012,"Delta":147970356},{"NoteNumber":60,"Velocity":48,"Duration":410452,"SoundDuration":410452,"Delta":147970356},{"NoteNumber":55,"Velocity":41,"Duration":405226,"SoundDuration":405226,"Delta":148380809},{"NoteNumber":65,"Velocity":40,"Duration":234204,"SoundDuration":234204,"Delta":148586036},{"NoteNumber":69,"Velocity":46,"Duration":234204,"SoundDuration":234204,"Delta":148586036},{"NoteNumber":64,"Velocity":38,"Duration":410452,"SoundDuration":410452,"Delta":148786036},{"NoteNumber":67,"Velocity":45,"Duration":410452,"SoundDuration":410452,"Delta":148786036},{"NoteNumber":48,"Velocity":41,"Duration":410452,"SoundDuration":410452,"Delta":148786036},{"NoteNumber":60,"Velocity":36,"Duration":397719,"SoundDuration":397719,"Delta":149196489},{"NoteNumber":64,"Velocity":41,"Duration":397719,"SoundDuration":397719,"Delta":149196489},{"NoteNumber":36,"Velocity":37,"Duration":198859,"SoundDuration":198859,"Delta":149196489},{"NoteNumber":43,"Velocity":39,"Duration":198859,"SoundDuration":198859,"Delta":149395349},{"NoteNumber":79,"Velocity":47,"Duration":99429,"SoundDuration":99429,"Delta":149494778},{"NoteNumber":91,"Velocity":53,"Duration":397719,"SoundDuration":397719,"Delta":149594208},{"NoteNumber":48,"Velocity":42,"Duration":198859,"SoundDuration":198859,"Delta":149594208},{"NoteNumber":52,"Velocity":42,"Duration":198859,"SoundDuration":198859,"Delta":149793068},{"NoteNumber":55,"Velocity":42,"Duration":206896,"SoundDuration":206896,"Delta":149991928},{"NoteNumber":60,"Velocity":41,"Duration":214868,"SoundDuration":214868,"Delta":150198824},{"NoteNumber":86,"Velocity":64,"Duration":821956,"SoundDuration":821956,"Delta":150413693},{"NoteNumber":67,"Velocity":42,"Duration":813453,"SoundDuration":813453,"Delta":150413693},{"NoteNumber":71,"Velocity":51,"Duration":813453,"SoundDuration":813453,"Delta":150413693},{"NoteNumber":77,"Velocity":44,"Duration":206896,"SoundDuration":206896,"Delta":150620590},{"NoteNumber":79,"Velocity":51,"Duration":204081,"SoundDuration":204081,"Delta":150827486},{"NoteNumber":83,"Velocity":44,"Duration":204081,"SoundDuration":204081,"Delta":151031568},{"NoteNumber":86,"Velocity":64,"Duration":413792,"SoundDuration":413792,"Delta":151235650},{"NoteNumber":67,"Velocity":42,"Duration":408620,"SoundDuration":408620,"Delta":151235650},{"NoteNumber":71,"Velocity":50,"Duration":408620,"SoundDuration":408620,"Delta":151235650},{"NoteNumber":79,"Velocity":50,"Duration":206896,"SoundDuration":206896,"Delta":151442546},{"NoteNumber":89,"Velocity":66,"Duration":647445,"SoundDuration":647445,"Delta":151649443},{"NoteNumber":67,"Velocity":43,"Duration":1274151,"SoundDuration":1274151,"Delta":151649443},{"NoteNumber":74,"Velocity":52,"Duration":647445,"SoundDuration":647445,"Delta":151649443},{"NoteNumber":83,"Velocity":51,"Duration":205479,"SoundDuration":205479,"Delta":151854922},{"NoteNumber":79,"Velocity":55,"Duration":202702,"SoundDuration":202702,"Delta":152060402},{"NoteNumber":86,"Velocity":65,"Duration":241164,"SoundDuration":241164,"Delta":152263105},{"NoteNumber":71,"Velocity":51,"Duration":241164,"SoundDuration":241164,"Delta":152263105},{"NoteNumber":83,"Velocity":61,"Duration":457787,"SoundDuration":457787,"Delta":152465807},{"NoteNumber":74,"Velocity":48,"Duration":457787,"SoundDuration":457787,"Delta":152465807},{"NoteNumber":77,"Velocity":52,"Duration":119783,"SoundDuration":119783,"Delta":152696577},{"NoteNumber":76,"Velocity":51,"Duration":1299378,"SoundDuration":1299378,"Delta":152816360},{"NoteNumber":79,"Velocity":55,"Duration":1244483,"SoundDuration":1244483,"Delta":152871255},{"NoteNumber":84,"Velocity":63,"Duration":1192144,"SoundDuration":1192144,"Delta":152923595},{"NoteNumber":72,"Velocity":44,"Duration":205479,"SoundDuration":205479,"Delta":152923595},{"NoteNumber":67,"Velocity":39,"Duration":205479,"SoundDuration":205479,"Delta":153129074},{"NoteNumber":60,"Velocity":43,"Duration":205479,"SoundDuration":205479,"Delta":153334554},{"NoteNumber":64,"Velocity":38,"Duration":205479,"SoundDuration":205479,"Delta":153540033},{"NoteNumber":67,"Velocity":43,"Duration":196078,"SoundDuration":196078,"Delta":153745513},{"NoteNumber":72,"Velocity":39,"Duration":174147,"SoundDuration":174147,"Delta":153941591},{"NoteNumber":60,"Velocity":44,"Duration":1124191,"SoundDuration":1124191,"Delta":154115739},{"NoteNumber":67,"Velocity":44,"Duration":1072585,"SoundDuration":1072585,"Delta":154167345},{"NoteNumber":72,"Velocity":44,"Duration":1021215,"SoundDuration":1021215,"Delta":154218714},{"NoteNumber":76,"Velocity":50,"Duration":970309,"SoundDuration":970309,"Delta":154269620},{"NoteNumber":79,"Velocity":52,"Duration":919634,"SoundDuration":919634,"Delta":154320296},{"NoteNumber":84,"Velocity":55,"Duration":869410,"SoundDuration":869410,"Delta":154370519},{"NoteNumber":88,"Velocity":60,"Duration":819410,"SoundDuration":819410,"Delta":154420519},{"NoteNumber":60,"Velocity":47,"Duration":917260,"SoundDuration":917260,"Delta":155239930},{"NoteNumber":67,"Velocity":53,"Duration":860008,"SoundDuration":860008,"Delta":155297182},{"NoteNumber":76,"Velocity":60,"Duration":802756,"SoundDuration":802756,"Delta":155354434},{"NoteNumber":96,"Velocity":67,"Duration":405170,"SoundDuration":405170,"Delta":155366258},{"NoteNumber":84,"Velocity":38,"Duration":202702,"SoundDuration":202702,"Delta":155557136},{"NoteNumber":88,"Velocity":38,"Duration":202702,"SoundDuration":202702,"Delta":155557136},{"NoteNumber":91,"Velocity":63,"Duration":397350,"SoundDuration":397350,"Delta":155759839},{"NoteNumber":79,"Velocity":38,"Duration":198675,"SoundDuration":198675,"Delta":155958515},{"NoteNumber":84,"Velocity":38,"Duration":198675,"SoundDuration":198675,"Delta":155958515},{"NoteNumber":88,"Velocity":64,"Duration":413792,"SoundDuration":413792,"Delta":156157190},{"NoteNumber":67,"Velocity":51,"Duration":413792,"SoundDuration":413792,"Delta":156157190},{"NoteNumber":72,"Velocity":51,"Duration":413792,"SoundDuration":413792,"Delta":156157190},{"NoteNumber":76,"Velocity":38,"Duration":206896,"SoundDuration":206896,"Delta":156364087},{"NoteNumber":79,"Velocity":38,"Duration":206896,"SoundDuration":206896,"Delta":156364087},{"NoteNumber":91,"Velocity":66,"Duration":647445,"SoundDuration":647445,"Delta":156570983},{"NoteNumber":67,"Velocity":54,"Duration":807918,"SoundDuration":807918,"Delta":156570983},{"NoteNumber":71,"Velocity":54,"Duration":807918,"SoundDuration":807918,"Delta":156570983},{"NoteNumber":79,"Velocity":38,"Duration":205479,"SoundDuration":205479,"Delta":156776463},{"NoteNumber":83,"Velocity":38,"Duration":205479,"SoundDuration":205479,"Delta":156776463},{"NoteNumber":79,"Velocity":38,"Duration":405405,"SoundDuration":405405,"Delta":156981942},{"NoteNumber":83,"Velocity":38,"Duration":405405,"SoundDuration":405405,"Delta":156981942},{"NoteNumber":89,"Velocity":61,"Duration":237185,"SoundDuration":237185,"Delta":157184645},{"NoteNumber":79,"Velocity":38,"Duration":206896,"SoundDuration":206896,"Delta":157387348},{"NoteNumber":83,"Velocity":38,"Duration":206896,"SoundDuration":206896,"Delta":157387348},{"NoteNumber":86,"Velocity":59,"Duration":421182,"SoundDuration":421182,"Delta":157387348},{"NoteNumber":67,"Velocity":50,"Duration":415825,"SoundDuration":415825,"Delta":157387348},{"NoteNumber":71,"Velocity":50,"Duration":415825,"SoundDuration":415825,"Delta":157387348},{"NoteNumber":77,"Velocity":38,"Duration":214285,"SoundDuration":214285,"Delta":157594244},{"NoteNumber":76,"Velocity":43,"Duration":204081,"SoundDuration":204081,"Delta":157808530},{"NoteNumber":79,"Velocity":43,"Duration":204081,"SoundDuration":204081,"Delta":157808530},{"NoteNumber":84,"Velocity":52,"Duration":204081,"SoundDuration":204081,"Delta":157808530},{"NoteNumber":60,"Velocity":39,"Duration":1223377,"SoundDuration":1223377,"Delta":157808530},{"NoteNumber":67,"Velocity":39,"Duration":1223377,"SoundDuration":1223377,"Delta":157808530},{"NoteNumber":72,"Velocity":48,"Duration":1205895,"SoundDuration":1205895,"Delta":157808530},{"NoteNumber":76,"Velocity":44,"Duration":199999,"SoundDuration":199999,"Delta":158012612},{"NoteNumber":79,"Velocity":48,"Duration":204081,"SoundDuration":204081,"Delta":158212612},{"NoteNumber":84,"Velocity":43,"Duration":201342,"SoundDuration":201342,"Delta":158416693},{"NoteNumber":79,"Velocity":49,"Duration":204081,"SoundDuration":204081,"Delta":158618036},{"NoteNumber":76,"Velocity":44,"Duration":209790,"SoundDuration":209790,"Delta":158822117},{"NoteNumber":72,"Velocity":44,"Duration":204081,"SoundDuration":204081,"Delta":159031908},{"NoteNumber":76,"Velocity":43,"Duration":198675,"SoundDuration":198675,"Delta":159235989},{"NoteNumber":79,"Velocity":44,"Duration":204081,"SoundDuration":204081,"Delta":159434665},{"NoteNumber":84,"Velocity":43,"Duration":201342,"SoundDuration":201342,"Delta":159638747},{"NoteNumber":79,"Velocity":44,"Duration":204081,"SoundDuration":204081,"Delta":159840089},{"NoteNumber":76,"Velocity":42,"Duration":209790,"SoundDuration":209790,"Delta":160044171},{"NoteNumber":72,"Velocity":44,"Duration":204081,"SoundDuration":204081,"Delta":160253961},{"NoteNumber":60,"Velocity":40,"Duration":2442909,"SoundDuration":2442909,"Delta":160253961},{"NoteNumber":63,"Velocity":40,"Duration":2442909,"SoundDuration":2442909,"Delta":160253961},{"NoteNumber":66,"Velocity":40,"Duration":2442909,"SoundDuration":2442909,"Delta":160253961},{"NoteNumber":69,"Velocity":48,"Duration":1826977,"SoundDuration":1826977,"Delta":160253961},{"NoteNumber":75,"Velocity":43,"Duration":199999,"SoundDuration":199999,"Delta":160458043},{"NoteNumber":78,"Velocity":44,"Duration":204081,"SoundDuration":204081,"Delta":160658043},{"NoteNumber":84,"Velocity":43,"Duration":199999,"SoundDuration":199999,"Delta":160862124},{"NoteNumber":78,"Velocity":44,"Duration":204081,"SoundDuration":204081,"Delta":161062124},{"NoteNumber":75,"Velocity":42,"Duration":204081,"SoundDuration":204081,"Delta":161266206},{"NoteNumber":72,"Velocity":50,"Duration":205226,"SoundDuration":205226,"Delta":161470288},{"NoteNumber":75,"Velocity":44,"Duration":201342,"SoundDuration":201342,"Delta":161675514},{"NoteNumber":78,"Velocity":51,"Duration":204081,"SoundDuration":204081,"Delta":161876857},{"NoteNumber":84,"Velocity":44,"Duration":205479,"SoundDuration":205479,"Delta":162080938},{"NoteNumber":71,"Velocity":53,"Duration":205479,"SoundDuration":205479,"Delta":162080938},{"NoteNumber":78,"Velocity":51,"Duration":205226,"SoundDuration":205226,"Delta":162286418},{"NoteNumber":69,"Velocity":51,"Duration":410452,"SoundDuration":410452,"Delta":162286418},{"NoteNumber":75,"Velocity":47,"Duration":205226,"SoundDuration":205226,"Delta":162491644},{"NoteNumber":72,"Velocity":51,"Duration":204081,"SoundDuration":204081,"Delta":162696871},{"NoteNumber":60,"Velocity":39,"Duration":1632654,"SoundDuration":1632654,"Delta":162696871},{"NoteNumber":64,"Velocity":39,"Duration":1632654,"SoundDuration":1632654,"Delta":162696871},{"NoteNumber":67,"Velocity":48,"Duration":1632654,"SoundDuration":1632654,"Delta":162696871},{"NoteNumber":76,"Velocity":44,"Duration":204081,"SoundDuration":204081,"Delta":162900953},{"NoteNumber":79,"Velocity":51,"Duration":204081,"SoundDuration":204081,"Delta":163105034},{"NoteNumber":84,"Velocity":44,"Duration":204081,"SoundDuration":204081,"Delta":163309116},{"NoteNumber":79,"Velocity":52,"Duration":204081,"SoundDuration":204081,"Delta":163513198},{"NoteNumber":76,"Velocity":48,"Duration":204081,"SoundDuration":204081,"Delta":163717280},{"NoteNumber":72,"Velocity":50,"Duration":204081,"SoundDuration":204081,"Delta":163921361},{"NoteNumber":76,"Velocity":44,"Duration":204081,"SoundDuration":204081,"Delta":164125443},{"NoteNumber":79,"Velocity":49,"Duration":204081,"SoundDuration":204081,"Delta":164329525},{"NoteNumber":84,"Velocity":40,"Duration":204081,"SoundDuration":204081,"Delta":164533607},{"NoteNumber":79,"Velocity":49,"Duration":204081,"SoundDuration":204081,"Delta":164737688},{"NoteNumber":76,"Velocity":43,"Duration":204081,"SoundDuration":204081,"Delta":164941770},{"NoteNumber":84,"Velocity":44,"Duration":204081,"SoundDuration":204081,"Delta":165145852},{"NoteNumber":72,"Velocity":40,"Duration":2442909,"SoundDuration":2442909,"Delta":165145852},{"NoteNumber":75,"Velocity":40,"Duration":2442909,"SoundDuration":2442909,"Delta":165145852},{"NoteNumber":78,"Velocity":40,"Duration":2442909,"SoundDuration":2442909,"Delta":165145852},{"NoteNumber":81,"Velocity":48,"Duration":1826977,"SoundDuration":1826977,"Delta":165145852},{"NoteNumber":87,"Velocity":43,"Duration":199999,"SoundDuration":199999,"Delta":165349934},{"NoteNumber":90,"Velocity":44,"Duration":204081,"SoundDuration":204081,"Delta":165549934},{"NoteNumber":96,"Velocity":43,"Duration":199999,"SoundDuration":199999,"Delta":165754015},{"NoteNumber":90,"Velocity":44,"Duration":204081,"SoundDuration":204081,"Delta":165954015},{"NoteNumber":87,"Velocity":42,"Duration":204081,"SoundDuration":204081,"Delta":166158097},{"NoteNumber":84,"Velocity":50,"Duration":205226,"SoundDuration":205226,"Delta":166362179},{"NoteNumber":87,"Velocity":44,"Duration":201342,"SoundDuration":201342,"Delta":166567405},{"NoteNumber":90,"Velocity":51,"Duration":204081,"SoundDuration":204081,"Delta":166768748},{"NoteNumber":96,"Velocity":44,"Duration":205479,"SoundDuration":205479,"Delta":166972829},{"NoteNumber":83,"Velocity":52,"Duration":205479,"SoundDuration":205479,"Delta":166972829},{"NoteNumber":90,"Velocity":51,"Duration":205226,"SoundDuration":205226,"Delta":167178309},{"NoteNumber":81,"Velocity":49,"Duration":410452,"SoundDuration":410452,"Delta":167178309},{"NoteNumber":87,"Velocity":47,"Duration":205226,"SoundDuration":205226,"Delta":167383535},{"NoteNumber":84,"Velocity":51,"Duration":204081,"SoundDuration":204081,"Delta":167588762},{"NoteNumber":72,"Velocity":39,"Duration":1204422,"SoundDuration":1204422,"Delta":167588762},{"NoteNumber":76,"Velocity":39,"Duration":1204422,"SoundDuration":1204422,"Delta":167588762},{"NoteNumber":79,"Velocity":48,"Duration":1204422,"SoundDuration":1204422,"Delta":167588762},{"NoteNumber":88,"Velocity":44,"Duration":199999,"SoundDuration":199999,"Delta":167792844},{"NoteNumber":91,"Velocity":48,"Duration":204081,"SoundDuration":204081,"Delta":167992844},{"NoteNumber":96,"Velocity":40,"Duration":199999,"SoundDuration":199999,"Delta":168196925},{"NoteNumber":91,"Velocity":47,"Duration":204081,"SoundDuration":204081,"Delta":168396925},{"NoteNumber":88,"Velocity":44,"Duration":204081,"SoundDuration":204081,"Delta":168601007},{"NoteNumber":84,"Velocity":47,"Duration":205226,"SoundDuration":205226,"Delta":168805089},{"NoteNumber":67,"Velocity":37,"Duration":1214611,"SoundDuration":1214611,"Delta":168805089},{"NoteNumber":72,"Velocity":37,"Duration":1214611,"SoundDuration":1214611,"Delta":168805089},{"NoteNumber":76,"Velocity":43,"Duration":1214611,"SoundDuration":1214611,"Delta":168805089},{"NoteNumber":88,"Velocity":42,"Duration":201342,"SoundDuration":201342,"Delta":169010315},{"NoteNumber":91,"Velocity":39,"Duration":204081,"SoundDuration":204081,"Delta":169211658},{"NoteNumber":96,"Velocity":37,"Duration":205479,"SoundDuration":205479,"Delta":169415739},{"NoteNumber":91,"Velocity":39,"Duration":205226,"SoundDuration":205226,"Delta":169621219},{"NoteNumber":88,"Velocity":37,"Duration":205226,"SoundDuration":205226,"Delta":169826445},{"NoteNumber":84,"Velocity":44,"Duration":204081,"SoundDuration":204081,"Delta":170031672},{"NoteNumber":64,"Velocity":35,"Duration":1204422,"SoundDuration":1204422,"Delta":170031672},{"NoteNumber":67,"Velocity":35,"Duration":1204422,"SoundDuration":1204422,"Delta":170031672},{"NoteNumber":72,"Velocity":42,"Duration":1204422,"SoundDuration":1204422,"Delta":170031672},{"NoteNumber":88,"Velocity":39,"Duration":199999,"SoundDuration":199999,"Delta":170235754},{"NoteNumber":91,"Velocity":42,"Duration":204081,"SoundDuration":204081,"Delta":170435754},{"NoteNumber":96,"Velocity":36,"Duration":199999,"SoundDuration":199999,"Delta":170639835},{"NoteNumber":91,"Velocity":42,"Duration":204081,"SoundDuration":204081,"Delta":170839835},{"NoteNumber":88,"Velocity":40,"Duration":204081,"SoundDuration":204081,"Delta":171043917},{"NoteNumber":84,"Velocity":42,"Duration":205226,"SoundDuration":205226,"Delta":171247999},{"NoteNumber":60,"Velocity":31,"Duration":1262809,"SoundDuration":1262809,"Delta":171247999},{"NoteNumber":64,"Velocity":31,"Duration":1262809,"SoundDuration":1262809,"Delta":171247999},{"NoteNumber":67,"Velocity":39,"Duration":1262809,"SoundDuration":1262809,"Delta":171247999},{"NoteNumber":88,"Velocity":37,"Duration":201342,"SoundDuration":201342,"Delta":171453225},{"NoteNumber":91,"Velocity":35,"Duration":204081,"SoundDuration":204081,"Delta":171654568},{"NoteNumber":96,"Velocity":31,"Duration":205479,"SoundDuration":205479,"Delta":171858649},{"NoteNumber":91,"Velocity":35,"Duration":205226,"SoundDuration":205226,"Delta":172064129},{"NoteNumber":88,"Velocity":31,"Duration":128205,"SoundDuration":128205,"Delta":172269355},{"NoteNumber":48,"Velocity":28,"Duration":3059878,"SoundDuration":3059878,"Delta":172397561},{"NoteNumber":55,"Velocity":28,"Duration":2995776,"SoundDuration":2995776,"Delta":172461663},{"NoteNumber":84,"Velocity":40,"Duration":204081,"SoundDuration":204081,"Delta":172525766},{"NoteNumber":64,"Velocity":35,"Duration":2931673,"SoundDuration":2931673,"Delta":172525766},{"NoteNumber":88,"Velocity":38,"Duration":204081,"SoundDuration":204081,"Delta":172933929},{"NoteNumber":91,"Velocity":37,"Duration":204081,"SoundDuration":204081,"Delta":173342093},{"NoteNumber":96,"Velocity":35,"Duration":204081,"SoundDuration":204081,"Delta":173750256},{"NoteNumber":91,"Velocity":36,"Duration":208333,"SoundDuration":208333,"Delta":174158420},{"NoteNumber":88,"Velocity":35,"Duration":220588,"SoundDuration":220588,"Delta":174575086},{"NoteNumber":84,"Velocity":38,"Duration":220588,"SoundDuration":220588,"Delta":175016263},{"NoteNumber":84,"Velocity":70,"Duration":138888,"SoundDuration":138888,"Delta":177222145},{"NoteNumber":72,"Velocity":63,"Duration":138888,"SoundDuration":138888,"Delta":177361034},{"NoteNumber":81,"Velocity":57,"Duration":138888,"SoundDuration":138888,"Delta":177499923},{"NoteNumber":79,"Velocity":70,"Duration":215517,"SoundDuration":215517,"Delta":177638812},{"NoteNumber":60,"Velocity":55,"Duration":1288201,"SoundDuration":1288201,"Delta":177638812},{"NoteNumber":64,"Velocity":55,"Duration":1288201,"SoundDuration":1288201,"Delta":177638812},{"NoteNumber":70,"Velocity":61,"Duration":1288201,"SoundDuration":1288201,"Delta":177638812},{"NoteNumber":79,"Velocity":66,"Duration":220264,"SoundDuration":220264,"Delta":178069846},{"NoteNumber":84,"Velocity":70,"Duration":138879,"SoundDuration":138879,"Delta":178510375},{"NoteNumber":72,"Velocity":64,"Duration":138879,"SoundDuration":138879,"Delta":178649254},{"NoteNumber":79,"Velocity":60,"Duration":138879,"SoundDuration":138879,"Delta":178788133},{"NoteNumber":77,"Velocity":72,"Duration":214576,"SoundDuration":214576,"Delta":178927013},{"NoteNumber":60,"Velocity":49,"Duration":1296869,"SoundDuration":1296869,"Delta":178927013},{"NoteNumber":65,"Velocity":49,"Duration":1296869,"SoundDuration":1296869,"Delta":178927013},{"NoteNumber":69,"Velocity":56,"Duration":1296869,"SoundDuration":1296869,"Delta":178927013},{"NoteNumber":77,"Velocity":69,"Duration":218340,"SoundDuration":218340,"Delta":179356167},{"NoteNumber":84,"Velocity":70,"Duration":143677,"SoundDuration":143677,"Delta":179792848},{"NoteNumber":72,"Velocity":64,"Duration":143677,"SoundDuration":143677,"Delta":179936526},{"NoteNumber":77,"Velocity":64,"Duration":143678,"SoundDuration":143678,"Delta":180080204},{"NoteNumber":70,"Velocity":61,"Duration":213674,"SoundDuration":213674,"Delta":180223882},{"NoteNumber":76,"Velocity":64,"Duration":213674,"SoundDuration":213674,"Delta":180223882},{"NoteNumber":60,"Velocity":49,"Duration":213674,"SoundDuration":213674,"Delta":180223882},{"NoteNumber":67,"Velocity":56,"Duration":213674,"SoundDuration":213674,"Delta":180223882},{"NoteNumber":70,"Velocity":51,"Duration":444444,"SoundDuration":444444,"Delta":180651232},{"NoteNumber":76,"Velocity":64,"Duration":333333,"SoundDuration":333333,"Delta":180651232},{"NoteNumber":60,"Velocity":47,"Duration":444444,"SoundDuration":444444,"Delta":180651232},{"NoteNumber":67,"Velocity":52,"Duration":444444,"SoundDuration":444444,"Delta":180651232},{"NoteNumber":79,"Velocity":58,"Duration":111110,"SoundDuration":111110,"Delta":180984565},{"NoteNumber":70,"Velocity":48,"Duration":444444,"SoundDuration":444444,"Delta":181095676},{"NoteNumber":74,"Velocity":60,"Duration":333332,"SoundDuration":333332,"Delta":181095676},{"NoteNumber":60,"Velocity":47,"Duration":444444,"SoundDuration":444444,"Delta":181095676},{"NoteNumber":65,"Velocity":52,"Duration":444444,"SoundDuration":444444,"Delta":181095676},{"NoteNumber":79,"Velocity":58,"Duration":111111,"SoundDuration":111111,"Delta":181429009},{"NoteNumber":70,"Velocity":60,"Duration":222221,"SoundDuration":222221,"Delta":181540120},{"NoteNumber":72,"Velocity":63,"Duration":222221,"SoundDuration":222221,"Delta":181540120},{"NoteNumber":60,"Velocity":46,"Duration":222221,"SoundDuration":222221,"Delta":181540120},{"NoteNumber":67,"Velocity":51,"Duration":222221,"SoundDuration":222221,"Delta":181540120},{"NoteNumber":48,"Velocity":51,"Duration":242600,"SoundDuration":242600,"Delta":181984564},{"NoteNumber":84,"Velocity":70,"Duration":138879,"SoundDuration":138879,"Delta":182469765},{"NoteNumber":72,"Velocity":64,"Duration":138879,"SoundDuration":138879,"Delta":182608644},{"NoteNumber":81,"Velocity":59,"Duration":138879,"SoundDuration":138879,"Delta":182747523},{"NoteNumber":77,"Velocity":72,"Duration":214576,"SoundDuration":214576,"Delta":182886403},{"NoteNumber":53,"Velocity":55,"Duration":214576,"SoundDuration":214576,"Delta":182886403},{"NoteNumber":77,"Velocity":69,"Duration":218340,"SoundDuration":218340,"Delta":183315557},{"NoteNumber":60,"Velocity":46,"Duration":218340,"SoundDuration":218340,"Delta":183315557},{"NoteNumber":69,"Velocity":53,"Duration":218340,"SoundDuration":218340,"Delta":183315557},{"NoteNumber":65,"Velocity":48,"Duration":218340,"SoundDuration":218340,"Delta":183315557},{"NoteNumber":84,"Velocity":70,"Duration":138879,"SoundDuration":138879,"Delta":183752238},{"NoteNumber":72,"Velocity":64,"Duration":138879,"SoundDuration":138879,"Delta":183891117},{"NoteNumber":81,"Velocity":59,"Duration":138879,"SoundDuration":138879,"Delta":184029996},{"NoteNumber":77,"Velocity":72,"Duration":214576,"SoundDuration":214576,"Delta":184168876},{"NoteNumber":53,"Velocity":55,"Duration":214576,"SoundDuration":214576,"Delta":184168876},{"NoteNumber":77,"Velocity":69,"Duration":218340,"SoundDuration":218340,"Delta":184598030},{"NoteNumber":60,"Velocity":46,"Duration":218340,"SoundDuration":218340,"Delta":184598030},{"NoteNumber":69,"Velocity":51,"Duration":218340,"SoundDuration":218340,"Delta":184598030},{"NoteNumber":65,"Velocity":46,"Duration":218340,"SoundDuration":218340,"Delta":184598030},{"NoteNumber":86,"Velocity":64,"Duration":54585,"SoundDuration":54585,"Delta":184980126},{"NoteNumber":84,"Velocity":71,"Duration":214899,"SoundDuration":214899,"Delta":185034711},{"NoteNumber":83,"Velocity":66,"Duration":167401,"SoundDuration":167401,"Delta":185249610},{"NoteNumber":86,"Velocity":65,"Duration":54151,"SoundDuration":54151,"Delta":185417012},{"NoteNumber":84,"Velocity":72,"Duration":107449,"SoundDuration":107449,"Delta":185471164},{"NoteNumber":53,"Velocity":55,"Duration":214899,"SoundDuration":214899,"Delta":185471164},{"NoteNumber":83,"Velocity":69,"Duration":107449,"SoundDuration":107449,"Delta":185686063},{"NoteNumber":84,"Velocity":67,"Duration":107449,"SoundDuration":107449,"Delta":185900963},{"NoteNumber":60,"Velocity":46,"Duration":214899,"SoundDuration":214899,"Delta":185900963},{"NoteNumber":65,"Velocity":46,"Duration":214899,"SoundDuration":214899,"Delta":185900963},{"NoteNumber":69,"Velocity":51,"Duration":214899,"SoundDuration":214899,"Delta":185900963},{"NoteNumber":86,"Velocity":69,"Duration":106194,"SoundDuration":106194,"Delta":186115862},{"NoteNumber":88,"Velocity":71,"Duration":109609,"SoundDuration":109609,"Delta":186328252},{"NoteNumber":89,"Velocity":73,"Duration":110946,"SoundDuration":110946,"Delta":186547470},{"NoteNumber":85,"Velocity":80,"Duration":436680,"SoundDuration":436680,"Delta":186769363},{"NoteNumber":58,"Velocity":55,"Duration":436680,"SoundDuration":436680,"Delta":186769363},{"NoteNumber":86,"Velocity":77,"Duration":218340,"SoundDuration":218340,"Delta":187206044},{"NoteNumber":62,"Velocity":46,"Duration":218340,"SoundDuration":218340,"Delta":187206044},{"NoteNumber":65,"Velocity":46,"Duration":218340,"SoundDuration":218340,"Delta":187206044},{"NoteNumber":70,"Velocity":51,"Duration":218340,"SoundDuration":218340,"Delta":187206044},{"NoteNumber":86,"Velocity":70,"Duration":138879,"SoundDuration":138879,"Delta":187642725},{"NoteNumber":79,"Velocity":64,"Duration":138879,"SoundDuration":138879,"Delta":187781605},{"NoteNumber":82,"Velocity":60,"Duration":138879,"SoundDuration":138879,"Delta":187920484},{"NoteNumber":76,"Velocity":72,"Duration":214576,"SoundDuration":214576,"Delta":188059363},{"NoteNumber":60,"Velocity":55,"Duration":214576,"SoundDuration":214576,"Delta":188059363},{"NoteNumber":76,"Velocity":69,"Duration":218340,"SoundDuration":218340,"Delta":188488517},{"NoteNumber":67,"Velocity":39,"Duration":218340,"SoundDuration":218340,"Delta":188488517},{"NoteNumber":72,"Velocity":44,"Duration":218340,"SoundDuration":218340,"Delta":188488517},{"NoteNumber":70,"Velocity":39,"Duration":218340,"SoundDuration":218340,"Delta":188488517},{"NoteNumber":85,"Velocity":65,"Duration":138879,"SoundDuration":138879,"Delta":188925198},{"NoteNumber":79,"Velocity":64,"Duration":138879,"SoundDuration":138879,"Delta":189064078},{"NoteNumber":82,"Velocity":60,"Duration":138879,"SoundDuration":138879,"Delta":189202957},{"NoteNumber":76,"Velocity":70,"Duration":214576,"SoundDuration":214576,"Delta":189341836},{"NoteNumber":60,"Velocity":55,"Duration":214576,"SoundDuration":214576,"Delta":189341836},{"NoteNumber":76,"Velocity":69,"Duration":218340,"SoundDuration":218340,"Delta":189770990},{"NoteNumber":67,"Velocity":39,"Duration":218340,"SoundDuration":218340,"Delta":189770990},{"NoteNumber":72,"Velocity":44,"Duration":218340,"SoundDuration":218340,"Delta":189770990},{"NoteNumber":70,"Velocity":39,"Duration":218340,"SoundDuration":218340,"Delta":189770990},{"NoteNumber":81,"Velocity":64,"Duration":68231,"SoundDuration":68231,"Delta":190153086},{"NoteNumber":79,"Velocity":71,"Duration":214899,"SoundDuration":214899,"Delta":190221318},{"NoteNumber":78,"Velocity":66,"Duration":167401,"SoundDuration":167401,"Delta":190436217},{"NoteNumber":81,"Velocity":65,"Duration":54151,"SoundDuration":54151,"Delta":190603619},{"NoteNumber":79,"Velocity":72,"Duration":107449,"SoundDuration":107449,"Delta":190657771},{"NoteNumber":60,"Velocity":55,"Duration":214899,"SoundDuration":214899,"Delta":190657771},{"NoteNumber":78,"Velocity":69,"Duration":107449,"SoundDuration":107449,"Delta":190872670},{"NoteNumber":79,"Velocity":67,"Duration":107449,"SoundDuration":107449,"Delta":191087570},{"NoteNumber":64,"Velocity":46,"Duration":214899,"SoundDuration":214899,"Delta":191087570},{"NoteNumber":70,"Velocity":46,"Duration":214899,"SoundDuration":214899,"Delta":191087570},{"NoteNumber":72,"Velocity":51,"Duration":214899,"SoundDuration":214899,"Delta":191087570},{"NoteNumber":81,"Velocity":69,"Duration":106194,"SoundDuration":106194,"Delta":191302469},{"NoteNumber":82,"Velocity":71,"Duration":109609,"SoundDuration":109609,"Delta":191514859},{"NoteNumber":84,"Velocity":73,"Duration":110946,"SoundDuration":110946,"Delta":191734077},{"NoteNumber":80,"Velocity":80,"Duration":436680,"SoundDuration":436680,"Delta":191955970},{"NoteNumber":53,"Velocity":55,"Duration":436680,"SoundDuration":436680,"Delta":191955970},{"NoteNumber":81,"Velocity":77,"Duration":218340,"SoundDuration":218340,"Delta":192392651},{"NoteNumber":65,"Velocity":39,"Duration":218340,"SoundDuration":218340,"Delta":192392651},{"NoteNumber":69,"Velocity":39,"Duration":218340,"SoundDuration":218340,"Delta":192392651},{"NoteNumber":72,"Velocity":45,"Duration":218340,"SoundDuration":218340,"Delta":192392651},{"NoteNumber":84,"Velocity":70,"Duration":138879,"SoundDuration":138879,"Delta":192829332},{"NoteNumber":72,"Velocity":64,"Duration":138879,"SoundDuration":138879,"Delta":192968211},{"NoteNumber":81,"Velocity":59,"Duration":138879,"SoundDuration":138879,"Delta":193107091},{"NoteNumber":77,"Velocity":72,"Duration":214576,"SoundDuration":214576,"Delta":193245970},{"NoteNumber":53,"Velocity":55,"Duration":214576,"SoundDuration":214576,"Delta":193245970},{"NoteNumber":77,"Velocity":69,"Duration":218340,"SoundDuration":218340,"Delta":193675124},{"NoteNumber":63,"Velocity":46,"Duration":218340,"SoundDuration":218340,"Delta":193675124},{"NoteNumber":69,"Velocity":51,"Duration":218340,"SoundDuration":218340,"Delta":193675124},{"NoteNumber":65,"Velocity":46,"Duration":218340,"SoundDuration":218340,"Delta":193675124},{"NoteNumber":84,"Velocity":70,"Duration":138879,"SoundDuration":138879,"Delta":194111805},{"NoteNumber":72,"Velocity":64,"Duration":138879,"SoundDuration":138879,"Delta":194250684},{"NoteNumber":81,"Velocity":61,"Duration":138879,"SoundDuration":138879,"Delta":194389564},{"NoteNumber":77,"Velocity":72,"Duration":214576,"SoundDuration":214576,"Delta":194528443},{"NoteNumber":53,"Velocity":55,"Duration":214576,"SoundDuration":214576,"Delta":194528443},{"NoteNumber":77,"Velocity":69,"Duration":218340,"SoundDuration":218340,"Delta":194957597},{"NoteNumber":63,"Velocity":46,"Duration":218340,"SoundDuration":218340,"Delta":194957597},{"NoteNumber":69,"Velocity":51,"Duration":218340,"SoundDuration":218340,"Delta":194957597},{"NoteNumber":65,"Velocity":46,"Duration":218340,"SoundDuration":218340,"Delta":194957597},{"NoteNumber":79,"Velocity":64,"Duration":54585,"SoundDuration":54585,"Delta":195339693},{"NoteNumber":77,"Velocity":71,"Duration":107449,"SoundDuration":107449,"Delta":195394278},{"NoteNumber":76,"Velocity":66,"Duration":109170,"SoundDuration":109170,"Delta":195609178},{"NoteNumber":77,"Velocity":72,"Duration":107449,"SoundDuration":107449,"Delta":195826651},{"NoteNumber":53,"Velocity":55,"Duration":214899,"SoundDuration":214899,"Delta":195826651},{"NoteNumber":79,"Velocity":69,"Duration":107449,"SoundDuration":107449,"Delta":196041551},{"NoteNumber":89,"Velocity":63,"Duration":107449,"SoundDuration":107449,"Delta":196256450},{"NoteNumber":81,"Velocity":66,"Duration":107449,"SoundDuration":107449,"Delta":196256450},{"NoteNumber":63,"Velocity":46,"Duration":214899,"SoundDuration":214899,"Delta":196256450},{"NoteNumber":65,"Velocity":46,"Duration":214899,"SoundDuration":214899,"Delta":196256450},{"NoteNumber":69,"Velocity":51,"Duration":214899,"SoundDuration":214899,"Delta":196256450},{"NoteNumber":89,"Velocity":67,"Duration":106194,"SoundDuration":106194,"Delta":196471350},{"NoteNumber":82,"Velocity":70,"Duration":106194,"SoundDuration":106194,"Delta":196471350},{"NoteNumber":89,"Velocity":72,"Duration":109609,"SoundDuration":109609,"Delta":196683739},{"NoteNumber":83,"Velocity":75,"Duration":109609,"SoundDuration":109609,"Delta":196683739},{"NoteNumber":89,"Velocity":78,"Duration":110946,"SoundDuration":110946,"Delta":196902957},{"NoteNumber":84,"Velocity":81,"Duration":110946,"SoundDuration":110946,"Delta":196902957},{"NoteNumber":89,"Velocity":81,"Duration":436680,"SoundDuration":436680,"Delta":197124851},{"NoteNumber":85,"Velocity":85,"Duration":436680,"SoundDuration":436680,"Delta":197124851},{"NoteNumber":53,"Velocity":55,"Duration":436680,"SoundDuration":436680,"Delta":197124851},{"NoteNumber":89,"Velocity":78,"Duration":218340,"SoundDuration":218340,"Delta":197561532},{"NoteNumber":86,"Velocity":81,"Duration":218340,"SoundDuration":218340,"Delta":197561532},{"NoteNumber":62,"Velocity":46,"Duration":218340,"SoundDuration":218340,"Delta":197561532},{"NoteNumber":65,"Velocity":46,"Duration":218340,"SoundDuration":218340,"Delta":197561532},{"NoteNumber":70,"Velocity":51,"Duration":218340,"SoundDuration":218340,"Delta":197561532},{"NoteNumber":86,"Velocity":80,"Duration":138879,"SoundDuration":138879,"Delta":197998213},{"NoteNumber":79,"Velocity":72,"Duration":138879,"SoundDuration":138879,"Delta":198137092},{"NoteNumber":82,"Velocity":66,"Duration":138879,"SoundDuration":138879,"Delta":198275971},{"NoteNumber":76,"Velocity":80,"Duration":214576,"SoundDuration":214576,"Delta":198414851},{"NoteNumber":84,"Velocity":88,"Duration":432132,"SoundDuration":432132,"Delta":198844005},{"NoteNumber":72,"Velocity":75,"Duration":432132,"SoundDuration":432132,"Delta":198844005},{"NoteNumber":58,"Velocity":49,"Duration":432132,"SoundDuration":432132,"Delta":198844005},{"NoteNumber":60,"Velocity":49,"Duration":432132,"SoundDuration":432132,"Delta":198844005},{"NoteNumber":64,"Velocity":55,"Duration":432132,"SoundDuration":432132,"Delta":198844005},{"NoteNumber":67,"Velocity":55,"Duration":432132,"SoundDuration":432132,"Delta":198844005},{"NoteNumber":72,"Velocity":70,"Duration":442766,"SoundDuration":442766,"Delta":199280686},{"NoteNumber":84,"Velocity":82,"Duration":442766,"SoundDuration":442766,"Delta":199280686},{"NoteNumber":58,"Velocity":49,"Duration":442766,"SoundDuration":442766,"Delta":199280686},{"NoteNumber":60,"Velocity":49,"Duration":442766,"SoundDuration":442766,"Delta":199280686},{"NoteNumber":64,"Velocity":55,"Duration":442766,"SoundDuration":442766,"Delta":199280686},{"NoteNumber":67,"Velocity":55,"Duration":442766,"SoundDuration":442766,"Delta":199280686},{"NoteNumber":84,"Velocity":88,"Duration":584438,"SoundDuration":584438,"Delta":199728113},{"NoteNumber":72,"Velocity":75,"Duration":447427,"SoundDuration":447427,"Delta":199728113},{"NoteNumber":57,"Velocity":51,"Duration":885863,"SoundDuration":885863,"Delta":199728113},{"NoteNumber":60,"Velocity":51,"Duration":885863,"SoundDuration":885863,"Delta":199728113},{"NoteNumber":65,"Velocity":58,"Duration":885863,"SoundDuration":885863,"Delta":199728113},{"NoteNumber":81,"Velocity":72,"Duration":146145,"SoundDuration":146145,"Delta":200321685},{"NoteNumber":77,"Velocity":70,"Duration":146145,"SoundDuration":146145,"Delta":200467830},{"NoteNumber":72,"Velocity":69,"Duration":146145,"SoundDuration":146145,"Delta":200613976},{"NoteNumber":69,"Velocity":69,"Duration":146145,"SoundDuration":146145,"Delta":200760121},{"NoteNumber":65,"Velocity":67,"Duration":159604,"SoundDuration":159604,"Delta":200906266},{"NoteNumber":60,"Velocity":58,"Duration":226415,"SoundDuration":226415,"Delta":201065871},{"NoteNumber":64,"Velocity":64,"Duration":113207,"SoundDuration":113207,"Delta":201065871},{"NoteNumber":43,"Velocity":46,"Duration":226415,"SoundDuration":226415,"Delta":201065871},{"NoteNumber":55,"Velocity":51,"Duration":226415,"SoundDuration":226415,"Delta":201065871},{"NoteNumber":67,"Velocity":55,"Duration":113207,"SoundDuration":113207,"Delta":201179078},{"NoteNumber":60,"Velocity":59,"Duration":226415,"SoundDuration":226415,"Delta":201520423},{"NoteNumber":63,"Velocity":67,"Duration":113207,"SoundDuration":113207,"Delta":201520423},{"NoteNumber":43,"Velocity":46,"Duration":226415,"SoundDuration":226415,"Delta":201520423},{"NoteNumber":54,"Velocity":51,"Duration":226415,"SoundDuration":226415,"Delta":201520423},{"NoteNumber":67,"Velocity":52,"Duration":113207,"SoundDuration":113207,"Delta":201633630},{"NoteNumber":59,"Velocity":59,"Duration":227272,"SoundDuration":227272,"Delta":201974975},{"NoteNumber":62,"Velocity":66,"Duration":113636,"SoundDuration":113636,"Delta":201974975},{"NoteNumber":53,"Velocity":51,"Duration":227272,"SoundDuration":227272,"Delta":201974975},{"NoteNumber":43,"Velocity":46,"Duration":227272,"SoundDuration":227272,"Delta":201974975},{"NoteNumber":67,"Velocity":52,"Duration":113636,"SoundDuration":113636,"Delta":202088611},{"NoteNumber":55,"Velocity":59,"Duration":236294,"SoundDuration":236294,"Delta":202438542},{"NoteNumber":60,"Velocity":67,"Duration":236294,"SoundDuration":236294,"Delta":202438542},{"NoteNumber":48,"Velocity":46,"Duration":236294,"SoundDuration":236294,"Delta":202438542},{"NoteNumber":52,"Velocity":51,"Duration":236294,"SoundDuration":236294,"Delta":202438542},{"NoteNumber":36,"Velocity":44,"Duration":236294,"SoundDuration":236294,"Delta":202911132},{"NoteNumber":60,"Velocity":62,"Duration":222386,"SoundDuration":222386,"Delta":203383722},{"NoteNumber":62,"Velocity":60,"Duration":55596,"SoundDuration":55596,"Delta":203606109},{"NoteNumber":60,"Velocity":57,"Duration":55596,"SoundDuration":55596,"Delta":203661706},{"NoteNumber":59,"Velocity":57,"Duration":55596,"SoundDuration":55596,"Delta":203717303},{"NoteNumber":60,"Velocity":57,"Duration":55596,"SoundDuration":55596,"Delta":203772899},{"NoteNumber":65,"Velocity":67,"Duration":871451,"SoundDuration":871451,"Delta":203828496},{"NoteNumber":41,"Velocity":46,"Duration":1312815,"SoundDuration":1312815,"Delta":203828496},{"NoteNumber":48,"Velocity":44,"Duration":879321,"SoundDuration":879321,"Delta":204261991},{"NoteNumber":64,"Velocity":62,"Duration":218977,"SoundDuration":218977,"Delta":204699947},{"NoteNumber":53,"Velocity":44,"Duration":441364,"SoundDuration":441364,"Delta":204699947},{"NoteNumber":62,"Velocity":60,"Duration":222386,"SoundDuration":222386,"Delta":204918925},{"NoteNumber":58,"Velocity":57,"Duration":866989,"SoundDuration":866989,"Delta":205141312},{"NoteNumber":60,"Velocity":63,"Duration":866989,"SoundDuration":866989,"Delta":205141312},{"NoteNumber":43,"Velocity":45,"Duration":1300485,"SoundDuration":1300485,"Delta":205141312},{"NoteNumber":52,"Velocity":44,"Duration":866990,"SoundDuration":866990,"Delta":205574807},{"NoteNumber":62,"Velocity":63,"Duration":216747,"SoundDuration":216747,"Delta":206008302},{"NoteNumber":48,"Velocity":44,"Duration":433495,"SoundDuration":433495,"Delta":206008302},{"NoteNumber":64,"Velocity":60,"Duration":216747,"SoundDuration":216747,"Delta":206225050},{"NoteNumber":65,"Velocity":67,"Duration":433494,"SoundDuration":433494,"Delta":206441797},{"NoteNumber":45,"Velocity":48,"Duration":870048,"SoundDuration":870048,"Delta":206441797},{"NoteNumber":68,"Velocity":67,"Duration":327415,"SoundDuration":327415,"Delta":206875292},{"NoteNumber":48,"Velocity":44,"Duration":873012,"SoundDuration":873012,"Delta":206875292},{"NoteNumber":69,"Velocity":62,"Duration":109138,"SoundDuration":109138,"Delta":207202708},{"NoteNumber":74,"Velocity":67,"Duration":325265,"SoundDuration":325265,"Delta":207311846},{"NoteNumber":41,"Velocity":39,"Duration":436458,"SoundDuration":436458,"Delta":207311846},{"NoteNumber":72,"Velocity":62,"Duration":111193,"SoundDuration":111193,"Delta":207637111},{"NoteNumber":64,"Velocity":59,"Duration":435318,"SoundDuration":435318,"Delta":207748305},{"NoteNumber":67,"Velocity":67,"Duration":435318,"SoundDuration":435318,"Delta":207748305},{"NoteNumber":36,"Velocity":44,"Duration":870638,"SoundDuration":870638,"Delta":207748305},{"NoteNumber":48,"Velocity":44,"Duration":435319,"SoundDuration":435319,"Delta":208183624},{"NoteNumber":72,"Velocity":62,"Duration":222386,"SoundDuration":222386,"Delta":208618943},{"NoteNumber":74,"Velocity":60,"Duration":55596,"SoundDuration":55596,"Delta":208841330},{"NoteNumber":72,"Velocity":57,"Duration":55596,"SoundDuration":55596,"Delta":208896926},{"NoteNumber":71,"Velocity":57,"Duration":55596,"SoundDuration":55596,"Delta":208952523},{"NoteNumber":72,"Velocity":57,"Duration":55596,"SoundDuration":55596,"Delta":209008120},{"NoteNumber":77,"Velocity":67,"Duration":871451,"SoundDuration":871451,"Delta":209063717},{"NoteNumber":53,"Velocity":46,"Duration":1312815,"SoundDuration":1312815,"Delta":209063717},{"NoteNumber":60,"Velocity":39,"Duration":879321,"SoundDuration":879321,"Delta":209497212},{"NoteNumber":76,"Velocity":62,"Duration":218977,"SoundDuration":218977,"Delta":209935168},{"NoteNumber":65,"Velocity":44,"Duration":441364,"SoundDuration":441364,"Delta":209935168},{"NoteNumber":74,"Velocity":60,"Duration":222386,"SoundDuration":222386,"Delta":210154146},{"NoteNumber":70,"Velocity":57,"Duration":866989,"SoundDuration":866989,"Delta":210376533},{"NoteNumber":72,"Velocity":63,"Duration":866989,"SoundDuration":866989,"Delta":210376533},{"NoteNumber":55,"Velocity":45,"Duration":1300485,"SoundDuration":1300485,"Delta":210376533},{"NoteNumber":64,"Velocity":44,"Duration":866990,"SoundDuration":866990,"Delta":210810028},{"NoteNumber":74,"Velocity":63,"Duration":216747,"SoundDuration":216747,"Delta":211243523},{"NoteNumber":60,"Velocity":44,"Duration":433495,"SoundDuration":433495,"Delta":211243523},{"NoteNumber":76,"Velocity":60,"Duration":216747,"SoundDuration":216747,"Delta":211460270},{"NoteNumber":72,"Velocity":59,"Duration":422832,"SoundDuration":422832,"Delta":211677018},{"NoteNumber":77,"Velocity":67,"Duration":211416,"SoundDuration":211416,"Delta":211677018},{"NoteNumber":57,"Velocity":44,"Duration":211416,"SoundDuration":211416,"Delta":211677018},{"NoteNumber":79,"Velocity":53,"Duration":52854,"SoundDuration":52854,"Delta":211888434},{"NoteNumber":77,"Velocity":53,"Duration":52854,"SoundDuration":52854,"Delta":211941288},{"NoteNumber":76,"Velocity":53,"Duration":52854,"SoundDuration":52854,"Delta":211994142},{"NoteNumber":77,"Velocity":53,"Duration":52854,"SoundDuration":52854,"Delta":212046996},{"NoteNumber":74,"Velocity":56,"Duration":216747,"SoundDuration":216747,"Delta":212099851},{"NoteNumber":81,"Velocity":62,"Duration":216747,"SoundDuration":216747,"Delta":212099851},{"NoteNumber":58,"Velocity":41,"Duration":216747,"SoundDuration":216747,"Delta":212099851},{"NoteNumber":79,"Velocity":57,"Duration":221418,"SoundDuration":221418,"Delta":212316598},{"NoteNumber":70,"Velocity":56,"Duration":214071,"SoundDuration":214071,"Delta":212538017},{"NoteNumber":77,"Velocity":62,"Duration":214071,"SoundDuration":214071,"Delta":212538017},{"NoteNumber":60,"Velocity":41,"Duration":214071,"SoundDuration":214071,"Delta":212538017},{"NoteNumber":76,"Velocity":57,"Duration":221418,"SoundDuration":221418,"Delta":212752088},{"NoteNumber":69,"Velocity":62,"Duration":442836,"SoundDuration":442836,"Delta":212973507},{"NoteNumber":77,"Velocity":62,"Duration":442836,"SoundDuration":442836,"Delta":212973507},{"NoteNumber":65,"Velocity":44,"Duration":442836,"SoundDuration":442836,"Delta":212973507},{"NoteNumber":53,"Velocity":44,"Duration":442836,"SoundDuration":442836,"Delta":213416344},{"NoteNumber":84,"Velocity":67,"Duration":140845,"SoundDuration":140845,"Delta":213859181},{"NoteNumber":72,"Velocity":61,"Duration":140844,"SoundDuration":140844,"Delta":214000026},{"NoteNumber":81,"Velocity":57,"Duration":140845,"SoundDuration":140845,"Delta":214140871},{"NoteNumber":79,"Velocity":74,"Duration":213523,"SoundDuration":213523,"Delta":214281716},{"NoteNumber":64,"Velocity":55,"Duration":1281311,"SoundDuration":1281311,"Delta":214281716},{"NoteNumber":70,"Velocity":61,"Duration":1281311,"SoundDuration":1281311,"Delta":214281716},{"NoteNumber":60,"Velocity":55,"Duration":1281311,"SoundDuration":1281311,"Delta":214281716},{"NoteNumber":79,"Velocity":73,"Duration":216606,"SoundDuration":216606,"Delta":214708762},{"NoteNumber":84,"Velocity":67,"Duration":140351,"SoundDuration":140351,"Delta":215141975},{"NoteNumber":72,"Velocity":61,"Duration":140350,"SoundDuration":140350,"Delta":215282326},{"NoteNumber":79,"Velocity":57,"Duration":140351,"SoundDuration":140351,"Delta":215422677},{"NoteNumber":77,"Velocity":69,"Duration":214576,"SoundDuration":214576,"Delta":215563028},{"NoteNumber":65,"Velocity":49,"Duration":1296869,"SoundDuration":1296869,"Delta":215563028},{"NoteNumber":69,"Velocity":56,"Duration":1296869,"SoundDuration":1296869,"Delta":215563028},{"NoteNumber":60,"Velocity":49,"Duration":1296869,"SoundDuration":1296869,"Delta":215563028},{"NoteNumber":77,"Velocity":66,"Duration":218340,"SoundDuration":218340,"Delta":215992182},{"NoteNumber":84,"Velocity":67,"Duration":143677,"SoundDuration":143677,"Delta":216428863},{"NoteNumber":72,"Velocity":61,"Duration":143677,"SoundDuration":143677,"Delta":216572541},{"NoteNumber":77,"Velocity":61,"Duration":143678,"SoundDuration":143678,"Delta":216716219},{"NoteNumber":76,"Velocity":61,"Duration":213674,"SoundDuration":213674,"Delta":216859897},{"NoteNumber":72,"Velocity":61,"Duration":213674,"SoundDuration":213674,"Delta":216859897},{"NoteNumber":67,"Velocity":56,"Duration":213674,"SoundDuration":213674,"Delta":216859897},{"NoteNumber":60,"Velocity":49,"Duration":213674,"SoundDuration":213674,"Delta":216859897},{"NoteNumber":70,"Velocity":55,"Duration":444444,"SoundDuration":444444,"Delta":217287247},{"NoteNumber":76,"Velocity":61,"Duration":333333,"SoundDuration":333333,"Delta":217287247},{"NoteNumber":67,"Velocity":52,"Duration":222221,"SoundDuration":222221,"Delta":217287247},{"NoteNumber":60,"Velocity":47,"Duration":222221,"SoundDuration":222221,"Delta":217287247},{"NoteNumber":79,"Velocity":56,"Duration":111110,"SoundDuration":111110,"Delta":217620580},{"NoteNumber":70,"Velocity":52,"Duration":444444,"SoundDuration":444444,"Delta":217731691},{"NoteNumber":76,"Velocity":61,"Duration":333332,"SoundDuration":333332,"Delta":217731691},{"NoteNumber":60,"Velocity":47,"Duration":222221,"SoundDuration":222221,"Delta":217731691},{"NoteNumber":67,"Velocity":52,"Duration":222221,"SoundDuration":222221,"Delta":217731691},{"NoteNumber":79,"Velocity":56,"Duration":111111,"SoundDuration":111111,"Delta":218065024},{"NoteNumber":69,"Velocity":58,"Duration":160804,"SoundDuration":160804,"Delta":218176135},{"NoteNumber":77,"Velocity":63,"Duration":160804,"SoundDuration":160804,"Delta":218176135},{"NoteNumber":53,"Velocity":52,"Duration":244259,"SoundDuration":244259,"Delta":218176135},{"NoteNumber":65,"Velocity":52,"Duration":244259,"SoundDuration":244259,"Delta":218176135},{"NoteNumber":69,"Velocity":56,"Duration":160804,"SoundDuration":160804,"Delta":218338975},{"NoteNumber":77,"Velocity":61,"Duration":160804,"SoundDuration":160804,"Delta":218338975},{"NoteNumber":69,"Velocity":56,"Duration":160804,"SoundDuration":160804,"Delta":218501815},{"NoteNumber":77,"Velocity":61,"Duration":160804,"SoundDuration":160804,"Delta":218501815},{"NoteNumber":65,"Velocity":57,"Duration":164583,"SoundDuration":164583,"Delta":218664655},{"NoteNumber":69,"Velocity":57,"Duration":164583,"SoundDuration":164583,"Delta":218664655},{"NoteNumber":77,"Velocity":62,"Duration":164583,"SoundDuration":164583,"Delta":218664655},{"NoteNumber":51,"Velocity":56,"Duration":500000,"SoundDuration":500000,"Delta":218664655},{"NoteNumber":63,"Velocity":56,"Duration":500000,"SoundDuration":500000,"Delta":218664655},{"NoteNumber":65,"Velocity":60,"Duration":164583,"SoundDuration":164583,"Delta":218831321},{"NoteNumber":69,"Velocity":60,"Duration":164583,"SoundDuration":164583,"Delta":218831321},{"NoteNumber":77,"Velocity":66,"Duration":164583,"SoundDuration":164583,"Delta":218831321},{"NoteNumber":65,"Velocity":61,"Duration":164583,"SoundDuration":164583,"Delta":218997988},{"NoteNumber":69,"Velocity":61,"Duration":164583,"SoundDuration":164583,"Delta":218997988},{"NoteNumber":77,"Velocity":67,"Duration":164583,"SoundDuration":164583,"Delta":218997988},{"NoteNumber":65,"Velocity":61,"Duration":167373,"SoundDuration":167373,"Delta":219164655},{"NoteNumber":70,"Velocity":61,"Duration":167373,"SoundDuration":167373,"Delta":219164655},{"NoteNumber":77,"Velocity":67,"Duration":167373,"SoundDuration":167373,"Delta":219164655},{"NoteNumber":50,"Velocity":57,"Duration":508475,"SoundDuration":508475,"Delta":219164655},{"NoteNumber":62,"Velocity":57,"Duration":508475,"SoundDuration":508475,"Delta":219164655},{"NoteNumber":65,"Velocity":63,"Duration":167373,"SoundDuration":167373,"Delta":219334146},{"NoteNumber":70,"Velocity":63,"Duration":167373,"SoundDuration":167373,"Delta":219334146},{"NoteNumber":77,"Velocity":69,"Duration":167373,"SoundDuration":167373,"Delta":219334146},{"NoteNumber":65,"Velocity":63,"Duration":167373,"SoundDuration":167373,"Delta":219503638},{"NoteNumber":70,"Velocity":63,"Duration":167373,"SoundDuration":167373,"Delta":219503638},{"NoteNumber":77,"Velocity":69,"Duration":167373,"SoundDuration":167373,"Delta":219503638},{"NoteNumber":65,"Velocity":66,"Duration":175966,"SoundDuration":175966,"Delta":219673130},{"NoteNumber":69,"Velocity":66,"Duration":175966,"SoundDuration":175966,"Delta":219673130},{"NoteNumber":75,"Velocity":72,"Duration":175966,"SoundDuration":175966,"Delta":219673130},{"NoteNumber":77,"Velocity":72,"Duration":175966,"SoundDuration":175966,"Delta":219673130},{"NoteNumber":48,"Velocity":60,"Duration":558565,"SoundDuration":558565,"Delta":219673130},{"NoteNumber":60,"Velocity":60,"Duration":558565,"SoundDuration":558565,"Delta":219673130},{"NoteNumber":65,"Velocity":67,"Duration":191783,"SoundDuration":191783,"Delta":219851389},{"NoteNumber":69,"Velocity":67,"Duration":191783,"SoundDuration":191783,"Delta":219851389},{"NoteNumber":75,"Velocity":73,"Duration":191783,"SoundDuration":191783,"Delta":219851389},{"NoteNumber":77,"Velocity":73,"Duration":191783,"SoundDuration":191783,"Delta":219851389},{"NoteNumber":65,"Velocity":68,"Duration":183232,"SoundDuration":183232,"Delta":220045685},{"NoteNumber":69,"Velocity":68,"Duration":183232,"SoundDuration":183232,"Delta":220045685},{"NoteNumber":75,"Velocity":74,"Duration":183232,"SoundDuration":183232,"Delta":220045685},{"NoteNumber":77,"Velocity":74,"Duration":183232,"SoundDuration":183232,"Delta":220045685},{"NoteNumber":65,"Velocity":88,"Duration":1136561,"SoundDuration":1136561,"Delta":220259473},{"NoteNumber":46,"Velocity":72,"Duration":1136561,"SoundDuration":1136561,"Delta":220259473},{"NoteNumber":70,"Velocity":57,"Duration":145278,"SoundDuration":145278,"Delta":220404751},{"NoteNumber":74,"Velocity":57,"Duration":140160,"SoundDuration":140160,"Delta":220550030},{"NoteNumber":53,"Velocity":53,"Duration":280321,"SoundDuration":280321,"Delta":220550030},{"NoteNumber":77,"Velocity":57,"Duration":140160,"SoundDuration":140160,"Delta":220690191},{"NoteNumber":74,"Velocity":66,"Duration":140160,"SoundDuration":140160,"Delta":220830351},{"NoteNumber":58,"Velocity":58,"Duration":280321,"SoundDuration":280321,"Delta":220830351},{"NoteNumber":70,"Velocity":57,"Duration":140160,"SoundDuration":140160,"Delta":220970512},{"NoteNumber":74,"Velocity":57,"Duration":142680,"SoundDuration":142680,"Delta":221110673},{"NoteNumber":53,"Velocity":52,"Duration":285360,"SoundDuration":285360,"Delta":221110673},{"NoteNumber":77,"Velocity":57,"Duration":142680,"SoundDuration":142680,"Delta":221253353},{"NoteNumber":67,"Velocity":82,"Duration":1135092,"SoundDuration":1135092,"Delta":221396034},{"NoteNumber":51,"Velocity":72,"Duration":1135092,"SoundDuration":1135092,"Delta":221396034},{"NoteNumber":70,"Velocity":63,"Duration":143321,"SoundDuration":143321,"Delta":221539355},{"NoteNumber":75,"Velocity":63,"Duration":140160,"SoundDuration":140160,"Delta":221682676},{"NoteNumber":58,"Velocity":52,"Duration":280321,"SoundDuration":280321,"Delta":221682676},{"NoteNumber":79,"Velocity":63,"Duration":140160,"SoundDuration":140160,"Delta":221822837},{"NoteNumber":75,"Velocity":72,"Duration":142032,"SoundDuration":142032,"Delta":221962998},{"NoteNumber":63,"Velocity":57,"Duration":284064,"SoundDuration":284064,"Delta":221962998},{"NoteNumber":70,"Velocity":63,"Duration":142032,"SoundDuration":142032,"Delta":222105030},{"NoteNumber":75,"Velocity":63,"Duration":142032,"SoundDuration":142032,"Delta":222247062},{"NoteNumber":58,"Velocity":52,"Duration":284064,"SoundDuration":284064,"Delta":222247062},{"NoteNumber":79,"Velocity":66,"Duration":142032,"SoundDuration":142032,"Delta":222389094},{"NoteNumber":65,"Velocity":82,"Duration":842384,"SoundDuration":842384,"Delta":222531126},{"NoteNumber":46,"Velocity":72,"Duration":842384,"SoundDuration":842384,"Delta":222531126},{"NoteNumber":70,"Velocity":68,"Duration":142680,"SoundDuration":142680,"Delta":222673806},{"NoteNumber":74,"Velocity":68,"Duration":140160,"SoundDuration":140160,"Delta":222816487},{"NoteNumber":53,"Velocity":52,"Duration":280321,"SoundDuration":280321,"Delta":222816487},{"NoteNumber":77,"Velocity":68,"Duration":140160,"SoundDuration":140160,"Delta":222956648},{"NoteNumber":74,"Velocity":72,"Duration":138350,"SoundDuration":138350,"Delta":223096808},{"NoteNumber":58,"Velocity":57,"Duration":276701,"SoundDuration":276701,"Delta":223096808},{"NoteNumber":70,"Velocity":66,"Duration":138350,"SoundDuration":138350,"Delta":223235159},{"NoteNumber":63,"Velocity":79,"Duration":276701,"SoundDuration":276701,"Delta":223373510},{"NoteNumber":60,"Velocity":52,"Duration":276701,"SoundDuration":276701,"Delta":223373510},{"NoteNumber":75,"Velocity":57,"Duration":138350,"SoundDuration":138350,"Delta":223511861},{"NoteNumber":62,"Velocity":79,"Duration":563379,"SoundDuration":563379,"Delta":223650211},{"NoteNumber":58,"Velocity":67,"Duration":563379,"SoundDuration":563379,"Delta":223650211},{"NoteNumber":65,"Velocity":60,"Duration":140844,"SoundDuration":140844,"Delta":223791056},{"NoteNumber":70,"Velocity":63,"Duration":140845,"SoundDuration":140845,"Delta":223931901},{"NoteNumber":53,"Velocity":44,"Duration":281689,"SoundDuration":281689,"Delta":223931901},{"NoteNumber":74,"Velocity":60,"Duration":140844,"SoundDuration":140844,"Delta":224072746},{"NoteNumber":63,"Velocity":74,"Duration":579723,"SoundDuration":579723,"Delta":224213591},{"NoteNumber":60,"Velocity":61,"Duration":579723,"SoundDuration":579723,"Delta":224213591},{"NoteNumber":65,"Velocity":57,"Duration":144230,"SoundDuration":144230,"Delta":224357822},{"NoteNumber":69,"Velocity":57,"Duration":145631,"SoundDuration":145631,"Delta":224502053},{"NoteNumber":53,"Velocity":42,"Duration":291261,"SoundDuration":291261,"Delta":224502053},{"NoteNumber":75,"Velocity":57,"Duration":145630,"SoundDuration":145630,"Delta":224647684},{"NoteNumber":65,"Velocity":88,"Duration":1136561,"SoundDuration":1136561,"Delta":224793315},{"NoteNumber":46,"Velocity":72,"Duration":1136561,"SoundDuration":1136561,"Delta":224793315},{"NoteNumber":70,"Velocity":57,"Duration":145278,"SoundDuration":145278,"Delta":224938593},{"NoteNumber":74,"Velocity":57,"Duration":140160,"SoundDuration":140160,"Delta":225083872},{"NoteNumber":53,"Velocity":53,"Duration":280321,"SoundDuration":280321,"Delta":225083872},{"NoteNumber":77,"Velocity":57,"Duration":140160,"SoundDuration":140160,"Delta":225224033},{"NoteNumber":74,"Velocity":66,"Duration":140160,"SoundDuration":140160,"Delta":225364193},{"NoteNumber":58,"Velocity":58,"Duration":280321,"SoundDuration":280321,"Delta":225364193},{"NoteNumber":70,"Velocity":57,"Duration":140160,"SoundDuration":140160,"Delta":225504354},{"NoteNumber":74,"Velocity":57,"Duration":142680,"SoundDuration":142680,"Delta":225644515},{"NoteNumber":53,"Velocity":52,"Duration":285360,"SoundDuration":285360,"Delta":225644515},{"NoteNumber":77,"Velocity":57,"Duration":142680,"SoundDuration":142680,"Delta":225787195},{"NoteNumber":67,"Velocity":82,"Duration":1135092,"SoundDuration":1135092,"Delta":225929876},{"NoteNumber":51,"Velocity":72,"Duration":1135092,"SoundDuration":1135092,"Delta":225929876},{"NoteNumber":70,"Velocity":63,"Duration":143321,"SoundDuration":143321,"Delta":226073197},{"NoteNumber":75,"Velocity":63,"Duration":140160,"SoundDuration":140160,"Delta":226216518},{"NoteNumber":58,"Velocity":52,"Duration":280321,"SoundDuration":280321,"Delta":226216518},{"NoteNumber":79,"Velocity":63,"Duration":140160,"SoundDuration":140160,"Delta":226356679},{"NoteNumber":75,"Velocity":72,"Duration":142032,"SoundDuration":142032,"Delta":226496840},{"NoteNumber":63,"Velocity":57,"Duration":284064,"SoundDuration":284064,"Delta":226496840},{"NoteNumber":70,"Velocity":63,"Duration":142032,"SoundDuration":142032,"Delta":226638872},{"NoteNumber":75,"Velocity":63,"Duration":142032,"SoundDuration":142032,"Delta":226780904},{"NoteNumber":58,"Velocity":52,"Duration":284064,"SoundDuration":284064,"Delta":226780904},{"NoteNumber":79,"Velocity":66,"Duration":142032,"SoundDuration":142032,"Delta":226922936},{"NoteNumber":65,"Velocity":82,"Duration":842384,"SoundDuration":842384,"Delta":227064968},{"NoteNumber":46,"Velocity":72,"Duration":842384,"SoundDuration":842384,"Delta":227064968},{"NoteNumber":70,"Velocity":68,"Duration":142680,"SoundDuration":142680,"Delta":227207648},{"NoteNumber":74,"Velocity":68,"Duration":140160,"SoundDuration":140160,"Delta":227350329},{"NoteNumber":53,"Velocity":52,"Duration":280321,"SoundDuration":280321,"Delta":227350329},{"NoteNumber":77,"Velocity":68,"Duration":140160,"SoundDuration":140160,"Delta":227490490},{"NoteNumber":74,"Velocity":72,"Duration":138350,"SoundDuration":138350,"Delta":227630650},{"NoteNumber":58,"Velocity":57,"Duration":276701,"SoundDuration":276701,"Delta":227630650},{"NoteNumber":70,"Velocity":66,"Duration":138350,"SoundDuration":138350,"Delta":227769001},{"NoteNumber":63,"Velocity":79,"Duration":276701,"SoundDuration":276701,"Delta":227907352},{"NoteNumber":60,"Velocity":52,"Duration":276701,"SoundDuration":276701,"Delta":227907352},{"NoteNumber":75,"Velocity":57,"Duration":138350,"SoundDuration":138350,"Delta":228045703},{"NoteNumber":62,"Velocity":79,"Duration":566037,"SoundDuration":566037,"Delta":228184053},{"NoteNumber":58,"Velocity":67,"Duration":566037,"SoundDuration":566037,"Delta":228184053},{"NoteNumber":65,"Velocity":60,"Duration":141509,"SoundDuration":141509,"Delta":228325563},{"NoteNumber":70,"Velocity":63,"Duration":141509,"SoundDuration":141509,"Delta":228467072},{"NoteNumber":53,"Velocity":44,"Duration":283018,"SoundDuration":283018,"Delta":228467072},{"NoteNumber":74,"Velocity":60,"Duration":141509,"SoundDuration":141509,"Delta":228608582},{"NoteNumber":63,"Velocity":74,"Duration":574162,"SoundDuration":574162,"Delta":228750091},{"NoteNumber":60,"Velocity":61,"Duration":574162,"SoundDuration":574162,"Delta":228750091},{"NoteNumber":65,"Velocity":57,"Duration":143540,"SoundDuration":143540,"Delta":228893632},{"NoteNumber":69,"Velocity":57,"Duration":143540,"SoundDuration":143540,"Delta":229037173},{"NoteNumber":53,"Velocity":42,"Duration":287081,"SoundDuration":287081,"Delta":229037173},{"NoteNumber":75,"Velocity":57,"Duration":143540,"SoundDuration":143540,"Delta":229180714},{"NoteNumber":65,"Velocity":88,"Duration":1124670,"SoundDuration":1124670,"Delta":229324254},{"NoteNumber":46,"Velocity":72,"Duration":1136561,"SoundDuration":1136561,"Delta":229324254},{"NoteNumber":70,"Velocity":57,"Duration":145278,"SoundDuration":145278,"Delta":229469533},{"NoteNumber":74,"Velocity":57,"Duration":140160,"SoundDuration":140160,"Delta":229614811},{"NoteNumber":53,"Velocity":53,"Duration":280321,"SoundDuration":280321,"Delta":229614811},{"NoteNumber":77,"Velocity":57,"Duration":140160,"SoundDuration":140160,"Delta":229754972},{"NoteNumber":74,"Velocity":66,"Duration":140160,"SoundDuration":140160,"Delta":229895133},{"NoteNumber":58,"Velocity":58,"Duration":280321,"SoundDuration":280321,"Delta":229895133},{"NoteNumber":70,"Velocity":57,"Duration":140160,"SoundDuration":140160,"Delta":230035294},{"NoteNumber":74,"Velocity":57,"Duration":142680,"SoundDuration":142680,"Delta":230175454},{"NoteNumber":53,"Velocity":52,"Duration":285360,"SoundDuration":285360,"Delta":230175454},{"NoteNumber":77,"Velocity":57,"Duration":142680,"SoundDuration":142680,"Delta":230318135},{"NoteNumber":65,"Velocity":90,"Duration":1141140,"SoundDuration":1141140,"Delta":230460815},{"NoteNumber":45,"Velocity":74,"Duration":1141140,"SoundDuration":1141140,"Delta":230460815},{"NoteNumber":69,"Velocity":66,"Duration":143321,"SoundDuration":143321,"Delta":230604137},{"NoteNumber":72,"Velocity":66,"Duration":140160,"SoundDuration":140160,"Delta":230747458},{"NoteNumber":53,"Velocity":53,"Duration":280321,"SoundDuration":280321,"Delta":230747458},{"NoteNumber":77,"Velocity":67,"Duration":140160,"SoundDuration":140160,"Delta":230887619},{"NoteNumber":72,"Velocity":74,"Duration":142857,"SoundDuration":142857,"Delta":231027779},{"NoteNumber":57,"Velocity":62,"Duration":285714,"SoundDuration":285714,"Delta":231027779},{"NoteNumber":69,"Velocity":68,"Duration":142857,"SoundDuration":142857,"Delta":231170637},{"NoteNumber":72,"Velocity":68,"Duration":144230,"SoundDuration":144230,"Delta":231313494},{"NoteNumber":53,"Velocity":53,"Duration":288461,"SoundDuration":288461,"Delta":231313494},{"NoteNumber":77,"Velocity":68,"Duration":144230,"SoundDuration":144230,"Delta":231457725},{"NoteNumber":67,"Velocity":93,"Duration":842384,"SoundDuration":842384,"Delta":231601955},{"NoteNumber":43,"Velocity":74,"Duration":842384,"SoundDuration":842384,"Delta":231601955},{"NoteNumber":72,"Velocity":74,"Duration":142680,"SoundDuration":142680,"Delta":231744636},{"NoteNumber":76,"Velocity":75,"Duration":140160,"SoundDuration":140160,"Delta":231887316},{"NoteNumber":48,"Velocity":68,"Duration":280321,"SoundDuration":280321,"Delta":231887316},{"NoteNumber":79,"Velocity":75,"Duration":140160,"SoundDuration":140160,"Delta":232027477},{"NoteNumber":76,"Velocity":75,"Duration":138350,"SoundDuration":138350,"Delta":232167638},{"NoteNumber":52,"Velocity":73,"Duration":276701,"SoundDuration":276701,"Delta":232167638},{"NoteNumber":72,"Velocity":66,"Duration":138350,"SoundDuration":138350,"Delta":232305989},{"NoteNumber":76,"Velocity":72,"Duration":138350,"SoundDuration":138350,"Delta":232444339},{"NoteNumber":48,"Velocity":66,"Duration":276701,"SoundDuration":276701,"Delta":232444339},{"NoteNumber":79,"Velocity":66,"Duration":138350,"SoundDuration":138350,"Delta":232582690},{"NoteNumber":69,"Velocity":93,"Duration":574214,"SoundDuration":574214,"Delta":232721041},{"NoteNumber":41,"Velocity":73,"Duration":574214,"SoundDuration":574214,"Delta":232721041},{"NoteNumber":72,"Velocity":72,"Duration":144927,"SoundDuration":144927,"Delta":232865968},{"NoteNumber":77,"Velocity":79,"Duration":142179,"SoundDuration":142179,"Delta":233010896},{"NoteNumber":48,"Velocity":68,"Duration":284359,"SoundDuration":284359,"Delta":233010896},{"NoteNumber":81,"Velocity":69,"Duration":142179,"SoundDuration":142179,"Delta":233153076},{"NoteNumber":70,"Velocity":97,"Duration":578343,"SoundDuration":578343,"Delta":233295256},{"NoteNumber":50,"Velocity":75,"Duration":578343,"SoundDuration":578343,"Delta":233295256},{"NoteNumber":74,"Velocity":81,"Duration":145630,"SoundDuration":145630,"Delta":233440887},{"NoteNumber":77,"Velocity":86,"Duration":143540,"SoundDuration":143540,"Delta":233586518},{"NoteNumber":53,"Velocity":69,"Duration":287081,"SoundDuration":287081,"Delta":233586518},{"NoteNumber":82,"Velocity":80,"Duration":143540,"SoundDuration":143540,"Delta":233730059},{"NoteNumber":69,"Velocity":94,"Duration":1139297,"SoundDuration":1139297,"Delta":233873599},{"NoteNumber":48,"Velocity":72,"Duration":1139297,"SoundDuration":1139297,"Delta":233873599},{"NoteNumber":72,"Velocity":67,"Duration":145278,"SoundDuration":145278,"Delta":234018878},{"NoteNumber":77,"Velocity":79,"Duration":140845,"SoundDuration":140845,"Delta":234164156},{"NoteNumber":53,"Velocity":58,"Duration":281689,"SoundDuration":281689,"Delta":234164156},{"NoteNumber":81,"Velocity":68,"Duration":140844,"SoundDuration":140844,"Delta":234305001},{"NoteNumber":77,"Velocity":80,"Duration":140845,"SoundDuration":140845,"Delta":234445846},{"NoteNumber":57,"Velocity":69,"Duration":281689,"SoundDuration":281689,"Delta":234445846},{"NoteNumber":72,"Velocity":67,"Duration":140844,"SoundDuration":140844,"Delta":234586691},{"NoteNumber":77,"Velocity":68,"Duration":142680,"SoundDuration":142680,"Delta":234727536},{"NoteNumber":60,"Velocity":58,"Duration":285360,"SoundDuration":285360,"Delta":234727536},{"NoteNumber":81,"Velocity":68,"Duration":142680,"SoundDuration":142680,"Delta":234870217},{"NoteNumber":67,"Velocity":90,"Duration":1138109,"SoundDuration":1138109,"Delta":235012897},{"NoteNumber":48,"Velocity":69,"Duration":1138109,"SoundDuration":1138109,"Delta":235012897},{"NoteNumber":70,"Velocity":72,"Duration":143321,"SoundDuration":143321,"Delta":235156219},{"NoteNumber":76,"Velocity":74,"Duration":140160,"SoundDuration":140160,"Delta":235299540},{"NoteNumber":55,"Velocity":58,"Duration":280321,"SoundDuration":280321,"Delta":235299540},{"NoteNumber":79,"Velocity":72,"Duration":140160,"SoundDuration":140160,"Delta":235439701},{"NoteNumber":76,"Velocity":75,"Duration":142032,"SoundDuration":142032,"Delta":235579861},{"NoteNumber":58,"Velocity":69,"Duration":284064,"SoundDuration":284064,"Delta":235579861},{"NoteNumber":72,"Velocity":63,"Duration":142032,"SoundDuration":142032,"Delta":235721893},{"NoteNumber":76,"Velocity":68,"Duration":143540,"SoundDuration":143540,"Delta":235863925},{"NoteNumber":60,"Velocity":58,"Duration":287081,"SoundDuration":287081,"Delta":235863925},{"NoteNumber":79,"Velocity":66,"Duration":143540,"SoundDuration":143540,"Delta":236007466},{"NoteNumber":65,"Velocity":90,"Duration":566037,"SoundDuration":566037,"Delta":236151007},{"NoteNumber":41,"Velocity":72,"Duration":283018,"SoundDuration":283018,"Delta":236151007},{"NoteNumber":69,"Velocity":72,"Duration":141509,"SoundDuration":141509,"Delta":236292516},{"NoteNumber":72,"Velocity":74,"Duration":141509,"SoundDuration":141509,"Delta":236434026},{"NoteNumber":48,"Velocity":55,"Duration":283018,"SoundDuration":283018,"Delta":236434026},{"NoteNumber":77,"Velocity":72,"Duration":141509,"SoundDuration":141509,"Delta":236575535},{"NoteNumber":81,"Velocity":79,"Duration":141509,"SoundDuration":141509,"Delta":236717045},{"NoteNumber":53,"Velocity":62,"Duration":283915,"SoundDuration":283915,"Delta":236717045},{"NoteNumber":77,"Velocity":72,"Duration":142405,"SoundDuration":142405,"Delta":236858554},{"NoteNumber":81,"Velocity":72,"Duration":143312,"SoundDuration":143312,"Delta":237000960},{"NoteNumber":57,"Velocity":52,"Duration":287775,"SoundDuration":287775,"Delta":237000960},{"NoteNumber":84,"Velocity":72,"Duration":144463,"SoundDuration":144463,"Delta":237144273},{"NoteNumber":89,"Velocity":97,"Duration":582289,"SoundDuration":582289,"Delta":237288736},{"NoteNumber":81,"Velocity":86,"Duration":582289,"SoundDuration":582289,"Delta":237288736},{"NoteNumber":53,"Velocity":63,"Duration":582289,"SoundDuration":582289,"Delta":237288736},{"NoteNumber":60,"Velocity":72,"Duration":582289,"SoundDuration":582289,"Delta":237288736},{"NoteNumber":72,"Velocity":79,"Duration":832089,"SoundDuration":832089,"Delta":238453550},{"NoteNumber":53,"Velocity":49,"Duration":2229337,"SoundDuration":2229337,"Delta":238453550},{"NoteNumber":57,"Velocity":49,"Duration":832089,"SoundDuration":832089,"Delta":238453550},{"NoteNumber":60,"Velocity":55,"Duration":832089,"SoundDuration":832089,"Delta":238453550},{"NoteNumber":77,"Velocity":52,"Duration":139534,"SoundDuration":139534,"Delta":238593737},{"NoteNumber":81,"Velocity":56,"Duration":138889,"SoundDuration":138889,"Delta":238733272},{"NoteNumber":84,"Velocity":60,"Duration":138248,"SoundDuration":138248,"Delta":238872161},{"NoteNumber":81,"Velocity":58,"Duration":137614,"SoundDuration":137614,"Delta":239010409},{"NoteNumber":77,"Velocity":55,"Duration":137614,"SoundDuration":137614,"Delta":239148024},{"NoteNumber":74,"Velocity":72,"Duration":280373,"SoundDuration":280373,"Delta":239285639},{"NoteNumber":58,"Velocity":42,"Duration":280373,"SoundDuration":280373,"Delta":239285639},{"NoteNumber":62,"Velocity":49,"Duration":280373,"SoundDuration":280373,"Delta":239285639},{"NoteNumber":86,"Velocity":58,"Duration":140186,"SoundDuration":140186,"Delta":239425826},{"NoteNumber":72,"Velocity":79,"Duration":554078,"SoundDuration":554078,"Delta":239566013},{"NoteNumber":57,"Velocity":49,"Duration":554078,"SoundDuration":554078,"Delta":239566013},{"NoteNumber":60,"Velocity":55,"Duration":554078,"SoundDuration":554078,"Delta":239566013},{"NoteNumber":77,"Velocity":58,"Duration":138037,"SoundDuration":138037,"Delta":239705117},{"NoteNumber":81,"Velocity":62,"Duration":137616,"SoundDuration":137616,"Delta":239843155},{"NoteNumber":84,"Velocity":67,"Duration":139319,"SoundDuration":139319,"Delta":239980771},{"NoteNumber":74,"Velocity":73,"Duration":568720,"SoundDuration":568720,"Delta":240120091},{"NoteNumber":58,"Velocity":50,"Duration":568720,"SoundDuration":568720,"Delta":240120091},{"NoteNumber":62,"Velocity":50,"Duration":568720,"SoundDuration":568720,"Delta":240120091},{"NoteNumber":77,"Velocity":58,"Duration":142179,"SoundDuration":142179,"Delta":240262271},{"NoteNumber":82,"Velocity":62,"Duration":142179,"SoundDuration":142179,"Delta":240404451},{"NoteNumber":86,"Velocity":69,"Duration":142180,"SoundDuration":142180,"Delta":240546631},{"NoteNumber":75,"Velocity":75,"Duration":835764,"SoundDuration":835764,"Delta":240688811},{"NoteNumber":53,"Velocity":49,"Duration":1963814,"SoundDuration":1963814,"Delta":240688811},{"NoteNumber":60,"Velocity":46,"Duration":835764,"SoundDuration":835764,"Delta":240688811},{"NoteNumber":63,"Velocity":52,"Duration":835764,"SoundDuration":835764,"Delta":240688811},{"NoteNumber":81,"Velocity":57,"Duration":139104,"SoundDuration":139104,"Delta":240828563},{"NoteNumber":84,"Velocity":61,"Duration":138037,"SoundDuration":138037,"Delta":240967668},{"NoteNumber":87,"Velocity":66,"Duration":137616,"SoundDuration":137616,"Delta":241105705},{"NoteNumber":84,"Velocity":68,"Duration":140408,"SoundDuration":140408,"Delta":241243322},{"NoteNumber":81,"Velocity":62,"Duration":140845,"SoundDuration":140845,"Delta":241383730},{"NoteNumber":77,"Velocity":69,"Duration":285714,"SoundDuration":285714,"Delta":241524575},{"NoteNumber":62,"Velocity":42,"Duration":285714,"SoundDuration":285714,"Delta":241524575},{"NoteNumber":65,"Velocity":48,"Duration":285714,"SoundDuration":285714,"Delta":241524575},{"NoteNumber":89,"Velocity":63,"Duration":142857,"SoundDuration":142857,"Delta":241667432},{"NoteNumber":75,"Velocity":72,"Duration":842335,"SoundDuration":842335,"Delta":241810289},{"NoteNumber":60,"Velocity":42,"Duration":842335,"SoundDuration":842335,"Delta":241810289},{"NoteNumber":63,"Velocity":49,"Duration":842335,"SoundDuration":842335,"Delta":241810289},{"NoteNumber":81,"Velocity":58,"Duration":138890,"SoundDuration":138890,"Delta":241950696},{"NoteNumber":84,"Velocity":62,"Duration":138250,"SoundDuration":138250,"Delta":242089587},{"NoteNumber":87,"Velocity":66,"Duration":128618,"SoundDuration":128618,"Delta":242227837},{"NoteNumber":87,"Velocity":69,"Duration":143085,"SoundDuration":143085,"Delta":242368248},{"NoteNumber":84,"Velocity":62,"Duration":141292,"SoundDuration":141292,"Delta":242511333},{"NoteNumber":81,"Velocity":58,"Duration":140625,"SoundDuration":140625,"Delta":242652625},{"NoteNumber":77,"Velocity":58,"Duration":140851,"SoundDuration":140851,"Delta":242793251},{"NoteNumber":74,"Velocity":79,"Duration":827823,"SoundDuration":827823,"Delta":242934102},{"NoteNumber":58,"Velocity":51,"Duration":1096515,"SoundDuration":1096515,"Delta":242934102},{"NoteNumber":62,"Velocity":57,"Duration":827823,"SoundDuration":827823,"Delta":242934102},{"NoteNumber":77,"Velocity":55,"Duration":138462,"SoundDuration":138462,"Delta":243073422},{"NoteNumber":82,"Velocity":58,"Duration":137826,"SoundDuration":137826,"Delta":243211884},{"NoteNumber":86,"Velocity":62,"Duration":125570,"SoundDuration":125570,"Delta":243349710},{"NoteNumber":86,"Velocity":61,"Duration":137614,"SoundDuration":137614,"Delta":243486696},{"NoteNumber":82,"Velocity":57,"Duration":137614,"SoundDuration":137614,"Delta":243624311},{"NoteNumber":75,"Velocity":75,"Duration":280373,"SoundDuration":280373,"Delta":243761926},{"NoteNumber":60,"Velocity":46,"Duration":280373,"SoundDuration":280373,"Delta":243761926},{"NoteNumber":63,"Velocity":52,"Duration":280373,"SoundDuration":280373,"Delta":243761926},{"NoteNumber":87,"Velocity":62,"Duration":140186,"SoundDuration":140186,"Delta":243902113},{"NoteNumber":74,"Velocity":84,"Duration":552995,"SoundDuration":552995,"Delta":244042300},{"NoteNumber":58,"Velocity":51,"Duration":1100067,"SoundDuration":1100067,"Delta":244042300},{"NoteNumber":62,"Velocity":57,"Duration":552995,"SoundDuration":552995,"Delta":244042300},{"NoteNumber":77,"Velocity":62,"Duration":138248,"SoundDuration":138248,"Delta":244180549},{"NoteNumber":82,"Velocity":67,"Duration":138248,"SoundDuration":138248,"Delta":244318797},{"NoteNumber":86,"Velocity":72,"Duration":138248,"SoundDuration":138248,"Delta":244457046},{"NoteNumber":75,"Velocity":79,"Duration":558809,"SoundDuration":558809,"Delta":244595295},{"NoteNumber":60,"Velocity":49,"Duration":558809,"SoundDuration":558809,"Delta":244595295},{"NoteNumber":63,"Velocity":55,"Duration":558809,"SoundDuration":558809,"Delta":244595295},{"NoteNumber":81,"Velocity":63,"Duration":139104,"SoundDuration":139104,"Delta":244735265},{"NoteNumber":84,"Velocity":68,"Duration":138890,"SoundDuration":138890,"Delta":244874369},{"NoteNumber":87,"Velocity":74,"Duration":140845,"SoundDuration":140845,"Delta":245013260},{"NoteNumber":77,"Velocity":82,"Duration":839884,"SoundDuration":839884,"Delta":245154105},{"NoteNumber":58,"Velocity":53,"Duration":1976033,"SoundDuration":1976033,"Delta":245154105},{"NoteNumber":62,"Velocity":51,"Duration":839884,"SoundDuration":839884,"Delta":245154105},{"NoteNumber":65,"Velocity":57,"Duration":839884,"SoundDuration":839884,"Delta":245154105},{"NoteNumber":82,"Velocity":67,"Duration":139752,"SoundDuration":139752,"Delta":245294292},{"NoteNumber":86,"Velocity":72,"Duration":138889,"SoundDuration":138889,"Delta":245434044},{"NoteNumber":89,"Velocity":75,"Duration":126569,"SoundDuration":126569,"Delta":245572933},{"NoteNumber":89,"Velocity":77,"Duration":141509,"SoundDuration":141509,"Delta":245710971},{"NoteNumber":86,"Velocity":73,"Duration":141509,"SoundDuration":141509,"Delta":245852480},{"NoteNumber":79,"Velocity":77,"Duration":289854,"SoundDuration":289854,"Delta":245993990},{"NoteNumber":63,"Velocity":46,"Duration":289854,"SoundDuration":289854,"Delta":245993990},{"NoteNumber":67,"Velocity":52,"Duration":289854,"SoundDuration":289854,"Delta":245993990},{"NoteNumber":91,"Velocity":69,"Duration":144927,"SoundDuration":144927,"Delta":246138917},{"NoteNumber":77,"Velocity":85,"Duration":846293,"SoundDuration":846293,"Delta":246283845},{"NoteNumber":62,"Velocity":48,"Duration":846293,"SoundDuration":846293,"Delta":246283845},{"NoteNumber":65,"Velocity":53,"Duration":846293,"SoundDuration":846293,"Delta":246283845},{"NoteNumber":82,"Velocity":70,"Duration":138890,"SoundDuration":138890,"Delta":246424470},{"NoteNumber":86,"Velocity":74,"Duration":139553,"SoundDuration":139553,"Delta":246563361},{"NoteNumber":89,"Velocity":79,"Duration":284366,"SoundDuration":284366,"Delta":246702914},{"NoteNumber":89,"Velocity":79,"Duration":857985,"SoundDuration":857985,"Delta":246844424},{"NoteNumber":86,"Velocity":75,"Duration":142857,"SoundDuration":142857,"Delta":246987281},{"NoteNumber":82,"Velocity":73,"Duration":142857,"SoundDuration":142857,"Delta":247130138},{"NoteNumber":77,"Velocity":70,"Duration":147058,"SoundDuration":147058,"Delta":247272995},{"NoteNumber":94,"Velocity":92,"Duration":562728,"SoundDuration":562728,"Delta":247420054},{"NoteNumber":82,"Velocity":82,"Duration":562728,"SoundDuration":562728,"Delta":247420054},{"NoteNumber":58,"Velocity":69,"Duration":1120868,"SoundDuration":1120868,"Delta":247420054},{"NoteNumber":62,"Velocity":69,"Duration":562728,"SoundDuration":562728,"Delta":247420054},{"NoteNumber":65,"Velocity":78,"Duration":562728,"SoundDuration":562728,"Delta":247420054},{"NoteNumber":89,"Velocity":82,"Duration":421219,"SoundDuration":421219,"Delta":247561564},{"NoteNumber":86,"Velocity":88,"Duration":140186,"SoundDuration":140186,"Delta":247702409},{"NoteNumber":89,"Velocity":81,"Duration":186698,"SoundDuration":186698,"Delta":247842596},{"NoteNumber":93,"Velocity":85,"Duration":558140,"SoundDuration":558140,"Delta":247982783},{"NoteNumber":81,"Velocity":75,"Duration":558140,"SoundDuration":558140,"Delta":247982783},{"NoteNumber":69,"Velocity":68,"Duration":558140,"SoundDuration":558140,"Delta":247982783},{"NoteNumber":65,"Velocity":61,"Duration":558140,"SoundDuration":558140,"Delta":247982783},{"NoteNumber":89,"Velocity":77,"Duration":139534,"SoundDuration":139534,"Delta":248122318},{"NoteNumber":86,"Velocity":79,"Duration":139535,"SoundDuration":139535,"Delta":248261853},{"NoteNumber":89,"Velocity":77,"Duration":139534,"SoundDuration":139534,"Delta":248401388},{"NoteNumber":91,"Velocity":91,"Duration":558140,"SoundDuration":558140,"Delta":248540923},{"NoteNumber":79,"Velocity":81,"Duration":558140,"SoundDuration":558140,"Delta":248540923},{"NoteNumber":63,"Velocity":62,"Duration":558140,"SoundDuration":558140,"Delta":248540923},{"NoteNumber":70,"Velocity":62,"Duration":558140,"SoundDuration":558140,"Delta":248540923},{"NoteNumber":75,"Velocity":69,"Duration":558140,"SoundDuration":558140,"Delta":248540923},{"NoteNumber":87,"Velocity":78,"Duration":139534,"SoundDuration":139534,"Delta":248680458},{"NoteNumber":82,"Velocity":82,"Duration":139535,"SoundDuration":139535,"Delta":248819993},{"NoteNumber":87,"Velocity":78,"Duration":139534,"SoundDuration":139534,"Delta":248959528},{"NoteNumber":89,"Velocity":84,"Duration":552995,"SoundDuration":552995,"Delta":249099063},{"NoteNumber":77,"Velocity":75,"Duration":552995,"SoundDuration":552995,"Delta":249099063},{"NoteNumber":62,"Velocity":61,"Duration":552995,"SoundDuration":552995,"Delta":249099063},{"NoteNumber":65,"Velocity":61,"Duration":552995,"SoundDuration":552995,"Delta":249099063},{"NoteNumber":74,"Velocity":68,"Duration":552995,"SoundDuration":552995,"Delta":249099063},{"NoteNumber":86,"Velocity":69,"Duration":138248,"SoundDuration":138248,"Delta":249237311},{"NoteNumber":82,"Velocity":75,"Duration":138248,"SoundDuration":138248,"Delta":249375560},{"NoteNumber":86,"Velocity":69,"Duration":138248,"SoundDuration":138248,"Delta":249513809},{"NoteNumber":94,"Velocity":94,"Duration":563160,"SoundDuration":563160,"Delta":249652058},{"NoteNumber":82,"Velocity":85,"Duration":563160,"SoundDuration":563160,"Delta":249652058},{"NoteNumber":58,"Velocity":64,"Duration":563160,"SoundDuration":563160,"Delta":249652058},{"NoteNumber":62,"Velocity":64,"Duration":563160,"SoundDuration":563160,"Delta":249652058},{"NoteNumber":65,"Velocity":72,"Duration":563160,"SoundDuration":563160,"Delta":249652058},{"NoteNumber":89,"Velocity":82,"Duration":140844,"SoundDuration":140844,"Delta":249792903},{"NoteNumber":86,"Velocity":85,"Duration":140845,"SoundDuration":140845,"Delta":249933748},{"NoteNumber":89,"Velocity":80,"Duration":140625,"SoundDuration":140625,"Delta":250074593},{"NoteNumber":91,"Velocity":91,"Duration":560747,"SoundDuration":560747,"Delta":250215218},{"NoteNumber":79,"Velocity":81,"Duration":560747,"SoundDuration":560747,"Delta":250215218},{"NoteNumber":63,"Velocity":61,"Duration":560747,"SoundDuration":560747,"Delta":250215218},{"NoteNumber":70,"Velocity":61,"Duration":560747,"SoundDuration":560747,"Delta":250215218},{"NoteNumber":75,"Velocity":68,"Duration":560747,"SoundDuration":560747,"Delta":250215218},{"NoteNumber":87,"Velocity":79,"Duration":140186,"SoundDuration":140186,"Delta":250355405},{"NoteNumber":82,"Velocity":81,"Duration":140186,"SoundDuration":140186,"Delta":250495592},{"NoteNumber":87,"Velocity":77,"Duration":140186,"SoundDuration":140186,"Delta":250635779},{"NoteNumber":89,"Velocity":91,"Duration":566037,"SoundDuration":566037,"Delta":250775966},{"NoteNumber":77,"Velocity":81,"Duration":566037,"SoundDuration":566037,"Delta":250775966},{"NoteNumber":62,"Velocity":62,"Duration":566037,"SoundDuration":566037,"Delta":250775966},{"NoteNumber":70,"Velocity":69,"Duration":566037,"SoundDuration":566037,"Delta":250775966},{"NoteNumber":74,"Velocity":69,"Duration":566037,"SoundDuration":566037,"Delta":250775966},{"NoteNumber":86,"Velocity":80,"Duration":141509,"SoundDuration":141509,"Delta":250917476},{"NoteNumber":82,"Velocity":84,"Duration":141509,"SoundDuration":141509,"Delta":251058985},{"NoteNumber":86,"Velocity":79,"Duration":141509,"SoundDuration":141509,"Delta":251200495},{"NoteNumber":87,"Velocity":90,"Duration":574162,"SoundDuration":574162,"Delta":251342004},{"NoteNumber":75,"Velocity":80,"Duration":574162,"SoundDuration":574162,"Delta":251342004},{"NoteNumber":60,"Velocity":61,"Duration":574162,"SoundDuration":574162,"Delta":251342004},{"NoteNumber":67,"Velocity":61,"Duration":574162,"SoundDuration":574162,"Delta":251342004},{"NoteNumber":72,"Velocity":68,"Duration":574162,"SoundDuration":574162,"Delta":251342004},{"NoteNumber":84,"Velocity":79,"Duration":143540,"SoundDuration":143540,"Delta":251485545},{"NoteNumber":79,"Velocity":84,"Duration":143540,"SoundDuration":143540,"Delta":251629086},{"NoteNumber":84,"Velocity":79,"Duration":143540,"SoundDuration":143540,"Delta":251772627},{"NoteNumber":86,"Velocity":91,"Duration":1170875,"SoundDuration":1170875,"Delta":251916167},{"NoteNumber":74,"Velocity":81,"Duration":575395,"SoundDuration":575395,"Delta":251916167},{"NoteNumber":53,"Velocity":61,"Duration":1170875,"SoundDuration":1170875,"Delta":251916167},{"NoteNumber":65,"Velocity":68,"Duration":1170875,"SoundDuration":1170875,"Delta":251916167},{"NoteNumber":58,"Velocity":61,"Duration":1170875,"SoundDuration":1170875,"Delta":251916167},{"NoteNumber":62,"Velocity":68,"Duration":1170875,"SoundDuration":1170875,"Delta":251916167},{"NoteNumber":82,"Velocity":78,"Duration":147300,"SoundDuration":147300,"Delta":252063951},{"NoteNumber":77,"Velocity":75,"Duration":146580,"SoundDuration":146580,"Delta":252211251},{"NoteNumber":74,"Velocity":74,"Duration":290563,"SoundDuration":290563,"Delta":252357831},{"NoteNumber":74,"Velocity":79,"Duration":583343,"SoundDuration":583343,"Delta":252503699},{"NoteNumber":77,"Velocity":80,"Duration":144695,"SoundDuration":144695,"Delta":252648395},{"NoteNumber":82,"Velocity":82,"Duration":145631,"SoundDuration":145631,"Delta":252793090},{"NoteNumber":86,"Velocity":84,"Duration":148322,"SoundDuration":148322,"Delta":252938721},{"NoteNumber":84,"Velocity":90,"Duration":1204721,"SoundDuration":1204721,"Delta":253087043},{"NoteNumber":72,"Velocity":80,"Duration":589917,"SoundDuration":589917,"Delta":253087043},{"NoteNumber":65,"Velocity":67,"Duration":1204721,"SoundDuration":1204721,"Delta":253087043},{"NoteNumber":63,"Velocity":67,"Duration":1204721,"SoundDuration":1204721,"Delta":253087043},{"NoteNumber":53,"Velocity":60,"Duration":1204721,"SoundDuration":1204721,"Delta":253087043},{"NoteNumber":57,"Velocity":60,"Duration":1204721,"SoundDuration":1204721,"Delta":253087043},{"NoteNumber":81,"Velocity":81,"Duration":151007,"SoundDuration":151007,"Delta":253239071},{"NoteNumber":75,"Velocity":80,"Duration":150251,"SoundDuration":150251,"Delta":253390079},{"NoteNumber":72,"Velocity":79,"Duration":297522,"SoundDuration":297522,"Delta":253540330},{"NoteNumber":72,"Velocity":75,"Duration":602427,"SoundDuration":602427,"Delta":253689337},{"NoteNumber":75,"Velocity":77,"Duration":147790,"SoundDuration":147790,"Delta":253837852},{"NoteNumber":81,"Velocity":79,"Duration":153061,"SoundDuration":153061,"Delta":253985642},{"NoteNumber":84,"Velocity":81,"Duration":153061,"SoundDuration":153061,"Delta":254138704},{"NoteNumber":70,"Velocity":73,"Duration":1176685,"SoundDuration":1176685,"Delta":254291765},{"NoteNumber":74,"Velocity":73,"Duration":1176685,"SoundDuration":1176685,"Delta":254291765},{"NoteNumber":77,"Velocity":73,"Duration":1176685,"SoundDuration":1176685,"Delta":254291765},{"NoteNumber":82,"Velocity":82,"Duration":1176685,"SoundDuration":1176685,"Delta":254291765},{"NoteNumber":46,"Velocity":80,"Duration":589150,"SoundDuration":589150,"Delta":254291765},{"NoteNumber":50,"Velocity":51,"Duration":145730,"SoundDuration":145730,"Delta":254437495},{"NoteNumber":53,"Velocity":56,"Duration":145729,"SoundDuration":145729,"Delta":254583225},{"NoteNumber":58,"Velocity":51,"Duration":151960,"SoundDuration":151960,"Delta":254728955},{"NoteNumber":41,"Velocity":74,"Duration":587535,"SoundDuration":587535,"Delta":254880915},{"NoteNumber":46,"Velocity":51,"Duration":145730,"SoundDuration":145730,"Delta":255026645},{"NoteNumber":50,"Velocity":55,"Duration":145729,"SoundDuration":145729,"Delta":255172375},{"NoteNumber":53,"Velocity":51,"Duration":150345,"SoundDuration":150345,"Delta":255318105},{"NoteNumber":43,"Velocity":78,"Duration":586399,"SoundDuration":586399,"Delta":255468451},{"NoteNumber":46,"Velocity":51,"Duration":145730,"SoundDuration":145730,"Delta":255614181},{"NoteNumber":50,"Velocity":55,"Duration":145729,"SoundDuration":145729,"Delta":255759911},{"NoteNumber":55,"Velocity":51,"Duration":149209,"SoundDuration":149209,"Delta":255905641},{"NoteNumber":69,"Velocity":61,"Duration":96780,"SoundDuration":96780,"Delta":256054850},{"NoteNumber":41,"Velocity":74,"Duration":606668,"SoundDuration":606668,"Delta":256054850},{"NoteNumber":72,"Velocity":62,"Duration":97404,"SoundDuration":97404,"Delta":256127342},{"NoteNumber":75,"Velocity":63,"Duration":98030,"SoundDuration":98030,"Delta":256200333},{"NoteNumber":48,"Velocity":55,"Duration":172160,"SoundDuration":172160,"Delta":256200333},{"NoteNumber":77,"Velocity":63,"Duration":98669,"SoundDuration":98669,"Delta":256273824},{"NoteNumber":81,"Velocity":63,"Duration":99448,"SoundDuration":99448,"Delta":256347697},{"NoteNumber":51,"Velocity":57,"Duration":176940,"SoundDuration":176940,"Delta":256347697},{"NoteNumber":84,"Velocity":64,"Duration":102419,"SoundDuration":102419,"Delta":256422218},{"NoteNumber":87,"Velocity":64,"Duration":109505,"SoundDuration":109505,"Delta":256497261},{"NoteNumber":53,"Velocity":51,"Duration":164257,"SoundDuration":164257,"Delta":256497261},{"NoteNumber":89,"Velocity":67,"Duration":82128,"SoundDuration":82128,"Delta":256579390},{"NoteNumber":82,"Velocity":71,"Duration":1224307,"SoundDuration":1224307,"Delta":256620454},{"NoteNumber":86,"Velocity":73,"Duration":1210619,"SoundDuration":1210619,"Delta":256634142},{"NoteNumber":89,"Velocity":74,"Duration":1196931,"SoundDuration":1196931,"Delta":256647830},{"NoteNumber":94,"Velocity":77,"Duration":1183243,"SoundDuration":1183243,"Delta":256661518},{"NoteNumber":46,"Velocity":78,"Duration":591413,"SoundDuration":591413,"Delta":256661518},{"NoteNumber":50,"Velocity":51,"Duration":146484,"SoundDuration":146484,"Delta":256808003},{"NoteNumber":53,"Velocity":56,"Duration":146484,"SoundDuration":146484,"Delta":256954487},{"NoteNumber":58,"Velocity":51,"Duration":151960,"SoundDuration":151960,"Delta":257100972},{"NoteNumber":41,"Velocity":67,"Duration":591829,"SoundDuration":591829,"Delta":257252932},{"NoteNumber":46,"Velocity":51,"Duration":145729,"SoundDuration":145729,"Delta":257398662},{"NoteNumber":50,"Velocity":55,"Duration":145730,"SoundDuration":145730,"Delta":257544392},{"NoteNumber":53,"Velocity":51,"Duration":154639,"SoundDuration":154639,"Delta":257690122},{"NoteNumber":42,"Velocity":72,"Duration":595549,"SoundDuration":595549,"Delta":257844761},{"NoteNumber":46,"Velocity":51,"Duration":148779,"SoundDuration":148779,"Delta":257993541},{"NoteNumber":49,"Velocity":55,"Duration":148780,"SoundDuration":148780,"Delta":258142321},{"NoteNumber":54,"Velocity":51,"Duration":149209,"SoundDuration":149209,"Delta":258291101},{"NoteNumber":57,"Velocity":50,"Duration":96780,"SoundDuration":96780,"Delta":258440311},{"NoteNumber":41,"Velocity":64,"Duration":606668,"SoundDuration":606668,"Delta":258440311},{"NoteNumber":60,"Velocity":50,"Duration":97404,"SoundDuration":97404,"Delta":258512802},{"NoteNumber":63,"Velocity":51,"Duration":98030,"SoundDuration":98030,"Delta":258585793},{"NoteNumber":48,"Velocity":40,"Duration":172160,"SoundDuration":172160,"Delta":258585793},{"NoteNumber":65,"Velocity":52,"Duration":98669,"SoundDuration":98669,"Delta":258659285},{"NoteNumber":69,"Velocity":52,"Duration":99448,"SoundDuration":99448,"Delta":258733157},{"NoteNumber":51,"Velocity":46,"Duration":176940,"SoundDuration":176940,"Delta":258733157},{"NoteNumber":72,"Velocity":53,"Duration":102419,"SoundDuration":102419,"Delta":258807678},{"NoteNumber":75,"Velocity":53,"Duration":109505,"SoundDuration":109505,"Delta":258882721},{"NoteNumber":53,"Velocity":40,"Duration":164257,"SoundDuration":164257,"Delta":258882721},{"NoteNumber":77,"Velocity":55,"Duration":82128,"SoundDuration":82128,"Delta":258964850},{"NoteNumber":70,"Velocity":57,"Duration":1216817,"SoundDuration":1216817,"Delta":259005914},{"NoteNumber":74,"Velocity":59,"Duration":1203129,"SoundDuration":1203129,"Delta":259019602},{"NoteNumber":77,"Velocity":59,"Duration":1189440,"SoundDuration":1189440,"Delta":259033291},{"NoteNumber":82,"Velocity":61,"Duration":1175752,"SoundDuration":1175752,"Delta":259046979},{"NoteNumber":46,"Velocity":40,"Duration":293400,"SoundDuration":293400,"Delta":259046979},{"NoteNumber":53,"Velocity":39,"Duration":294117,"SoundDuration":294117,"Delta":259340379},{"NoteNumber":58,"Velocity":39,"Duration":294117,"SoundDuration":294117,"Delta":259634496},{"NoteNumber":62,"Velocity":39,"Duration":294117,"SoundDuration":294117,"Delta":259928614},{"NoteNumber":65,"Velocity":35,"Duration":294117,"SoundDuration":294117,"Delta":260222731},{"NoteNumber":77,"Velocity":48,"Duration":294117,"SoundDuration":294117,"Delta":260516849},{"NoteNumber":70,"Velocity":36,"Duration":294117,"SoundDuration":294117,"Delta":260516849},{"NoteNumber":82,"Velocity":49,"Duration":294117,"SoundDuration":294117,"Delta":260810966},{"NoteNumber":74,"Velocity":38,"Duration":294117,"SoundDuration":294117,"Delta":260810966},{"NoteNumber":86,"Velocity":51,"Duration":301507,"SoundDuration":301507,"Delta":261105084},{"NoteNumber":77,"Velocity":40,"Duration":301507,"SoundDuration":301507,"Delta":261105084},{"NoteNumber":89,"Velocity":53,"Duration":289854,"SoundDuration":289854,"Delta":261406591},{"NoteNumber":82,"Velocity":42,"Duration":289854,"SoundDuration":289854,"Delta":261406591},{"NoteNumber":94,"Velocity":50,"Duration":294117,"SoundDuration":294117,"Delta":261696446},{"NoteNumber":86,"Velocity":40,"Duration":294117,"SoundDuration":294117,"Delta":261696446},{"NoteNumber":89,"Velocity":49,"Duration":294117,"SoundDuration":294117,"Delta":261990564},{"NoteNumber":82,"Velocity":40,"Duration":294117,"SoundDuration":294117,"Delta":261990564},{"NoteNumber":86,"Velocity":49,"Duration":294117,"SoundDuration":294117,"Delta":262284681},{"NoteNumber":77,"Velocity":40,"Duration":294117,"SoundDuration":294117,"Delta":262284681},{"NoteNumber":82,"Velocity":49,"Duration":294117,"SoundDuration":294117,"Delta":262578799},{"NoteNumber":74,"Velocity":44,"Duration":294117,"SoundDuration":294117,"Delta":262578799},{"NoteNumber":77,"Velocity":44,"Duration":294117,"SoundDuration":294117,"Delta":262872916},{"NoteNumber":70,"Velocity":40,"Duration":294117,"SoundDuration":294117,"Delta":262872916},{"NoteNumber":74,"Velocity":44,"Duration":294117,"SoundDuration":294117,"Delta":263167034},{"NoteNumber":65,"Velocity":40,"Duration":294117,"SoundDuration":294117,"Delta":263167034},{"NoteNumber":77,"Velocity":44,"Duration":300000,"SoundDuration":300000,"Delta":263461151},{"NoteNumber":70,"Velocity":40,"Duration":300000,"SoundDuration":300000,"Delta":263461151},{"NoteNumber":82,"Velocity":50,"Duration":289854,"SoundDuration":289854,"Delta":263761151},{"NoteNumber":74,"Velocity":42,"Duration":289854,"SoundDuration":289854,"Delta":263761151},{"NoteNumber":86,"Velocity":46,"Duration":294117,"SoundDuration":294117,"Delta":264051006},{"NoteNumber":77,"Velocity":40,"Duration":294117,"SoundDuration":294117,"Delta":264051006},{"NoteNumber":82,"Velocity":47,"Duration":294117,"SoundDuration":294117,"Delta":264345124},{"NoteNumber":74,"Velocity":40,"Duration":294117,"SoundDuration":294117,"Delta":264345124},{"NoteNumber":77,"Velocity":47,"Duration":294117,"SoundDuration":294117,"Delta":264639241},{"NoteNumber":70,"Velocity":40,"Duration":294117,"SoundDuration":294117,"Delta":264639241},{"NoteNumber":74,"Velocity":47,"Duration":289854,"SoundDuration":289854,"Delta":264933359},{"NoteNumber":65,"Velocity":41,"Duration":289854,"SoundDuration":289854,"Delta":264933359},{"NoteNumber":70,"Velocity":40,"Duration":294117,"SoundDuration":294117,"Delta":265223214},{"NoteNumber":62,"Velocity":37,"Duration":294117,"SoundDuration":294117,"Delta":265223214},{"NoteNumber":65,"Velocity":42,"Duration":294117,"SoundDuration":294117,"Delta":265517331},{"NoteNumber":58,"Velocity":38,"Duration":294117,"SoundDuration":294117,"Delta":265517331},{"NoteNumber":70,"Velocity":40,"Duration":298507,"SoundDuration":298507,"Delta":265811449},{"NoteNumber":62,"Velocity":38,"Duration":298507,"SoundDuration":298507,"Delta":265811449},{"NoteNumber":74,"Velocity":48,"Duration":289854,"SoundDuration":289854,"Delta":266109956},{"NoteNumber":65,"Velocity":40,"Duration":289854,"SoundDuration":289854,"Delta":266109956},{"NoteNumber":77,"Velocity":42,"Duration":294117,"SoundDuration":294117,"Delta":266399811},{"NoteNumber":70,"Velocity":37,"Duration":294117,"SoundDuration":294117,"Delta":266399811},{"NoteNumber":74,"Velocity":40,"Duration":294117,"SoundDuration":294117,"Delta":266693929},{"NoteNumber":65,"Velocity":37,"Duration":294117,"SoundDuration":294117,"Delta":266693929},{"NoteNumber":70,"Velocity":40,"Duration":294117,"SoundDuration":294117,"Delta":266988046},{"NoteNumber":62,"Velocity":37,"Duration":294117,"SoundDuration":294117,"Delta":266988046},{"NoteNumber":65,"Velocity":44,"Duration":294117,"SoundDuration":294117,"Delta":267282164},{"NoteNumber":58,"Velocity":39,"Duration":294117,"SoundDuration":294117,"Delta":267282164},{"NoteNumber":62,"Velocity":39,"Duration":294117,"SoundDuration":294117,"Delta":267576281},{"NoteNumber":53,"Velocity":36,"Duration":294117,"SoundDuration":294117,"Delta":267576281},{"NoteNumber":58,"Velocity":40,"Duration":294117,"SoundDuration":294117,"Delta":267870399},{"NoteNumber":50,"Velocity":36,"Duration":294117,"SoundDuration":294117,"Delta":267870399},{"NoteNumber":62,"Velocity":39,"Duration":294117,"SoundDuration":294117,"Delta":268164516},{"NoteNumber":53,"Velocity":37,"Duration":294117,"SoundDuration":294117,"Delta":268164516},{"NoteNumber":50,"Velocity":25,"Duration":75376,"SoundDuration":75376,"Delta":268458634},{"NoteNumber":53,"Velocity":31,"Duration":75376,"SoundDuration":75376,"Delta":268458634},{"NoteNumber":34,"Velocity":27,"Duration":75376,"SoundDuration":75376,"Delta":268458634},{"NoteNumber":58,"Velocity":29,"Duration":75376,"SoundDuration":75376,"Delta":268534011},{"NoteNumber":46,"Velocity":25,"Duration":75376,"SoundDuration":75376,"Delta":268534011},{"NoteNumber":50,"Velocity":25,"Duration":74999,"SoundDuration":74999,"Delta":268609388},{"NoteNumber":53,"Velocity":31,"Duration":74999,"SoundDuration":74999,"Delta":268609388},{"NoteNumber":34,"Velocity":27,"Duration":74999,"SoundDuration":74999,"Delta":268609388},{"NoteNumber":58,"Velocity":29,"Duration":74751,"SoundDuration":74751,"Delta":268684388},{"NoteNumber":46,"Velocity":25,"Duration":74751,"SoundDuration":74751,"Delta":268684388},{"NoteNumber":50,"Velocity":25,"Duration":74626,"SoundDuration":74626,"Delta":268759139},{"NoteNumber":53,"Velocity":31,"Duration":74626,"SoundDuration":74626,"Delta":268759139},{"NoteNumber":34,"Velocity":27,"Duration":74626,"SoundDuration":74626,"Delta":268759139},{"NoteNumber":58,"Velocity":29,"Duration":74380,"SoundDuration":74380,"Delta":268833766},{"NoteNumber":46,"Velocity":24,"Duration":74380,"SoundDuration":74380,"Delta":268833766},{"NoteNumber":50,"Velocity":25,"Duration":74135,"SoundDuration":74135,"Delta":268908146},{"NoteNumber":53,"Velocity":31,"Duration":74135,"SoundDuration":74135,"Delta":268908146},{"NoteNumber":34,"Velocity":27,"Duration":74135,"SoundDuration":74135,"Delta":268908146},{"NoteNumber":58,"Velocity":28,"Duration":73891,"SoundDuration":73891,"Delta":268982282},{"NoteNumber":46,"Velocity":24,"Duration":73891,"SoundDuration":73891,"Delta":268982282},{"NoteNumber":50,"Velocity":25,"Duration":73529,"SoundDuration":73529,"Delta":269056173},{"NoteNumber":53,"Velocity":31,"Duration":73529,"SoundDuration":73529,"Delta":269056173},{"NoteNumber":34,"Velocity":27,"Duration":73529,"SoundDuration":73529,"Delta":269056173},{"NoteNumber":58,"Velocity":29,"Duration":73529,"SoundDuration":73529,"Delta":269129703},{"NoteNumber":46,"Velocity":25,"Duration":73529,"SoundDuration":73529,"Delta":269129703},{"NoteNumber":50,"Velocity":25,"Duration":73529,"SoundDuration":73529,"Delta":269203232},{"NoteNumber":53,"Velocity":31,"Duration":73529,"SoundDuration":73529,"Delta":269203232},{"NoteNumber":34,"Velocity":27,"Duration":73529,"SoundDuration":73529,"Delta":269203232},{"NoteNumber":58,"Velocity":29,"Duration":73529,"SoundDuration":73529,"Delta":269276762},{"NoteNumber":46,"Velocity":25,"Duration":73529,"SoundDuration":73529,"Delta":269276762},{"NoteNumber":50,"Velocity":25,"Duration":73529,"SoundDuration":73529,"Delta":269350291},{"NoteNumber":53,"Velocity":31,"Duration":73529,"SoundDuration":73529,"Delta":269350291},{"NoteNumber":34,"Velocity":27,"Duration":73529,"SoundDuration":73529,"Delta":269350291},{"NoteNumber":58,"Velocity":29,"Duration":73529,"SoundDuration":73529,"Delta":269423820},{"NoteNumber":46,"Velocity":24,"Duration":73529,"SoundDuration":73529,"Delta":269423820},{"NoteNumber":50,"Velocity":25,"Duration":73529,"SoundDuration":73529,"Delta":269497350},{"NoteNumber":53,"Velocity":31,"Duration":73529,"SoundDuration":73529,"Delta":269497350},{"NoteNumber":34,"Velocity":27,"Duration":73529,"SoundDuration":73529,"Delta":269497350},{"NoteNumber":58,"Velocity":28,"Duration":73529,"SoundDuration":73529,"Delta":269570879},{"NoteNumber":46,"Velocity":24,"Duration":73529,"SoundDuration":73529,"Delta":269570879},{"NoteNumber":50,"Velocity":25,"Duration":72815,"SoundDuration":72815,"Delta":269644408},{"NoteNumber":53,"Velocity":31,"Duration":72815,"SoundDuration":72815,"Delta":269644408},{"NoteNumber":34,"Velocity":27,"Duration":72815,"SoundDuration":72815,"Delta":269644408},{"NoteNumber":58,"Velocity":29,"Duration":72815,"SoundDuration":72815,"Delta":269717224},{"NoteNumber":46,"Velocity":25,"Duration":72815,"SoundDuration":72815,"Delta":269717224},{"NoteNumber":50,"Velocity":25,"Duration":72815,"SoundDuration":72815,"Delta":269790039},{"NoteNumber":53,"Velocity":31,"Duration":72815,"SoundDuration":72815,"Delta":269790039},{"NoteNumber":34,"Velocity":27,"Duration":72815,"SoundDuration":72815,"Delta":269790039},{"NoteNumber":58,"Velocity":29,"Duration":72815,"SoundDuration":72815,"Delta":269862855},{"NoteNumber":46,"Velocity":25,"Duration":72815,"SoundDuration":72815,"Delta":269862855},{"NoteNumber":50,"Velocity":25,"Duration":73170,"SoundDuration":73170,"Delta":269935670},{"NoteNumber":53,"Velocity":31,"Duration":73170,"SoundDuration":73170,"Delta":269935670},{"NoteNumber":34,"Velocity":27,"Duration":73170,"SoundDuration":73170,"Delta":269935670},{"NoteNumber":58,"Velocity":29,"Duration":73170,"SoundDuration":73170,"Delta":270008841},{"NoteNumber":46,"Velocity":24,"Duration":73170,"SoundDuration":73170,"Delta":270008841},{"NoteNumber":50,"Velocity":25,"Duration":73170,"SoundDuration":73170,"Delta":270082012},{"NoteNumber":53,"Velocity":31,"Duration":73170,"SoundDuration":73170,"Delta":270082012},{"NoteNumber":34,"Velocity":27,"Duration":73170,"SoundDuration":73170,"Delta":270082012},{"NoteNumber":58,"Velocity":28,"Duration":73170,"SoundDuration":73170,"Delta":270155183},{"NoteNumber":46,"Velocity":24,"Duration":73170,"SoundDuration":73170,"Delta":270155183},{"NoteNumber":50,"Velocity":25,"Duration":73529,"SoundDuration":73529,"Delta":270228353},{"NoteNumber":53,"Velocity":31,"Duration":73529,"SoundDuration":73529,"Delta":270228353},{"NoteNumber":34,"Velocity":27,"Duration":73529,"SoundDuration":73529,"Delta":270228353},{"NoteNumber":58,"Velocity":29,"Duration":73529,"SoundDuration":73529,"Delta":270301883},{"NoteNumber":46,"Velocity":25,"Duration":73529,"SoundDuration":73529,"Delta":270301883},{"NoteNumber":50,"Velocity":25,"Duration":73529,"SoundDuration":73529,"Delta":270375412},{"NoteNumber":53,"Velocity":31,"Duration":73529,"SoundDuration":73529,"Delta":270375412},{"NoteNumber":34,"Velocity":27,"Duration":73529,"SoundDuration":73529,"Delta":270375412},{"NoteNumber":58,"Velocity":29,"Duration":73529,"SoundDuration":73529,"Delta":270448942},{"NoteNumber":46,"Velocity":25,"Duration":73529,"SoundDuration":73529,"Delta":270448942},{"NoteNumber":50,"Velocity":25,"Duration":73891,"SoundDuration":73891,"Delta":270522471},{"NoteNumber":53,"Velocity":31,"Duration":73891,"SoundDuration":73891,"Delta":270522471},{"NoteNumber":34,"Velocity":27,"Duration":73891,"SoundDuration":73891,"Delta":270522471},{"NoteNumber":58,"Velocity":29,"Duration":73891,"SoundDuration":73891,"Delta":270596363},{"NoteNumber":46,"Velocity":24,"Duration":73891,"SoundDuration":73891,"Delta":270596363},{"NoteNumber":50,"Velocity":25,"Duration":73891,"SoundDuration":73891,"Delta":270670254},{"NoteNumber":53,"Velocity":31,"Duration":73891,"SoundDuration":73891,"Delta":270670254},{"NoteNumber":34,"Velocity":27,"Duration":73891,"SoundDuration":73891,"Delta":270670254},{"NoteNumber":58,"Velocity":28,"Duration":61759,"SoundDuration":61759,"Delta":270744146},{"NoteNumber":46,"Velocity":24,"Duration":61759,"SoundDuration":61759,"Delta":270744146},{"NoteNumber":58,"Velocity":26,"Duration":2353425,"SoundDuration":2353425,"Delta":270818281},{"NoteNumber":50,"Velocity":26,"Duration":2353425,"SoundDuration":2353425,"Delta":270818281},{"NoteNumber":53,"Velocity":26,"Duration":2353425,"SoundDuration":2353425,"Delta":270818281},{"NoteNumber":34,"Velocity":24,"Duration":2353425,"SoundDuration":2353425,"Delta":270818281},{"NoteNumber":46,"Velocity":24,"Duration":2353425,"SoundDuration":2353425,"Delta":270818281},{"NoteNumber":50,"Velocity":31,"Duration":882352,"SoundDuration":882352,"Delta":273171707},{"NoteNumber":53,"Velocity":31,"Duration":882352,"SoundDuration":882352,"Delta":273171707},{"NoteNumber":34,"Velocity":24,"Duration":73529,"SoundDuration":73529,"Delta":273171707},{"NoteNumber":46,"Velocity":22,"Duration":73529,"SoundDuration":73529,"Delta":273245236},{"NoteNumber":34,"Velocity":24,"Duration":73529,"SoundDuration":73529,"Delta":273318765},{"NoteNumber":46,"Velocity":22,"Duration":73529,"SoundDuration":73529,"Delta":273392295},{"NoteNumber":34,"Velocity":24,"Duration":73529,"SoundDuration":73529,"Delta":273465824},{"NoteNumber":46,"Velocity":20,"Duration":73529,"SoundDuration":73529,"Delta":273539353},{"NoteNumber":34,"Velocity":24,"Duration":73529,"SoundDuration":73529,"Delta":273612883},{"NoteNumber":46,"Velocity":20,"Duration":73529,"SoundDuration":73529,"Delta":273686412},{"NoteNumber":34,"Velocity":24,"Duration":73529,"SoundDuration":73529,"Delta":273759942},{"NoteNumber":46,"Velocity":22,"Duration":73529,"SoundDuration":73529,"Delta":273833471},{"NoteNumber":34,"Velocity":24,"Duration":73529,"SoundDuration":73529,"Delta":273907000},{"NoteNumber":46,"Velocity":22,"Duration":73529,"SoundDuration":73529,"Delta":273980530},{"NoteNumber":51,"Velocity":31,"Duration":288461,"SoundDuration":288461,"Delta":274054059},{"NoteNumber":55,"Velocity":31,"Duration":288461,"SoundDuration":288461,"Delta":274054059},{"NoteNumber":34,"Velocity":24,"Duration":72115,"SoundDuration":72115,"Delta":274054059},{"NoteNumber":46,"Velocity":20,"Duration":72115,"SoundDuration":72115,"Delta":274126174},{"NoteNumber":34,"Velocity":24,"Duration":72115,"SoundDuration":72115,"Delta":274198290},{"NoteNumber":46,"Velocity":20,"Duration":72115,"SoundDuration":72115,"Delta":274270405},{"NoteNumber":50,"Velocity":31,"Duration":588234,"SoundDuration":588234,"Delta":274342521},{"NoteNumber":53,"Velocity":31,"Duration":588234,"SoundDuration":588234,"Delta":274342521},{"NoteNumber":34,"Velocity":24,"Duration":73529,"SoundDuration":73529,"Delta":274342521},{"NoteNumber":46,"Velocity":22,"Duration":73529,"SoundDuration":73529,"Delta":274416050},{"NoteNumber":34,"Velocity":24,"Duration":73529,"SoundDuration":73529,"Delta":274489579},{"NoteNumber":46,"Velocity":22,"Duration":73529,"SoundDuration":73529,"Delta":274563109},{"NoteNumber":34,"Velocity":24,"Duration":73529,"SoundDuration":73529,"Delta":274636638},{"NoteNumber":46,"Velocity":20,"Duration":73529,"SoundDuration":73529,"Delta":274710167},{"NoteNumber":34,"Velocity":24,"Duration":73529,"SoundDuration":73529,"Delta":274783697},{"NoteNumber":46,"Velocity":20,"Duration":73529,"SoundDuration":73529,"Delta":274857226},{"NoteNumber":51,"Velocity":31,"Duration":588234,"SoundDuration":588234,"Delta":274930756},{"NoteNumber":55,"Velocity":31,"Duration":588234,"SoundDuration":588234,"Delta":274930756},{"NoteNumber":34,"Velocity":24,"Duration":73529,"SoundDuration":73529,"Delta":274930756},{"NoteNumber":46,"Velocity":22,"Duration":73529,"SoundDuration":73529,"Delta":275004285},{"NoteNumber":34,"Velocity":24,"Duration":73529,"SoundDuration":73529,"Delta":275077814},{"NoteNumber":46,"Velocity":22,"Duration":73529,"SoundDuration":73529,"Delta":275151344},{"NoteNumber":34,"Velocity":24,"Duration":73529,"SoundDuration":73529,"Delta":275224873},{"NoteNumber":46,"Velocity":20,"Duration":73529,"SoundDuration":73529,"Delta":275298402},{"NoteNumber":34,"Velocity":24,"Duration":73529,"SoundDuration":73529,"Delta":275371932},{"NoteNumber":46,"Velocity":20,"Duration":73529,"SoundDuration":73529,"Delta":275445461},{"NoteNumber":50,"Velocity":34,"Duration":1170814,"SoundDuration":1170814,"Delta":275518991},{"NoteNumber":53,"Velocity":34,"Duration":882352,"SoundDuration":882352,"Delta":275518991},{"NoteNumber":56,"Velocity":34,"Duration":882352,"SoundDuration":882352,"Delta":275518991},{"NoteNumber":34,"Velocity":24,"Duration":73529,"SoundDuration":73529,"Delta":275518991},{"NoteNumber":46,"Velocity":22,"Duration":73529,"SoundDuration":73529,"Delta":275592520},{"NoteNumber":34,"Velocity":24,"Duration":73529,"SoundDuration":73529,"Delta":275666049},{"NoteNumber":46,"Velocity":22,"Duration":73529,"SoundDuration":73529,"Delta":275739579},{"NoteNumber":34,"Velocity":24,"Duration":73529,"SoundDuration":73529,"Delta":275813108},{"NoteNumber":46,"Velocity":20,"Duration":73529,"SoundDuration":73529,"Delta":275886637},{"NoteNumber":34,"Velocity":24,"Duration":73529,"SoundDuration":73529,"Delta":275960167},{"NoteNumber":46,"Velocity":20,"Duration":73529,"SoundDuration":73529,"Delta":276033696},{"NoteNumber":34,"Velocity":24,"Duration":73529,"SoundDuration":73529,"Delta":276107226},{"NoteNumber":46,"Velocity":22,"Duration":73529,"SoundDuration":73529,"Delta":276180755},{"NoteNumber":34,"Velocity":24,"Duration":73529,"SoundDuration":73529,"Delta":276254284},{"NoteNumber":46,"Velocity":22,"Duration":73529,"SoundDuration":73529,"Delta":276327814},{"NoteNumber":55,"Velocity":31,"Duration":288461,"SoundDuration":288461,"Delta":276401343},{"NoteNumber":58,"Velocity":31,"Duration":288461,"SoundDuration":288461,"Delta":276401343},{"NoteNumber":34,"Velocity":24,"Duration":72115,"SoundDuration":72115,"Delta":276401343},{"NoteNumber":46,"Velocity":20,"Duration":72115,"SoundDuration":72115,"Delta":276473458},{"NoteNumber":34,"Velocity":24,"Duration":72115,"SoundDuration":72115,"Delta":276545574},{"NoteNumber":46,"Velocity":20,"Duration":72115,"SoundDuration":72115,"Delta":276617689},{"NoteNumber":50,"Velocity":31,"Duration":588234,"SoundDuration":588234,"Delta":276689805},{"NoteNumber":53,"Velocity":31,"Duration":588234,"SoundDuration":588234,"Delta":276689805},{"NoteNumber":56,"Velocity":31,"Duration":588234,"SoundDuration":588234,"Delta":276689805},{"NoteNumber":46,"Velocity":24,"Duration":588234,"SoundDuration":588234,"Delta":276689805},{"NoteNumber":34,"Velocity":24,"Duration":588234,"SoundDuration":588234,"Delta":276689805},{"NoteNumber":46,"Velocity":25,"Duration":73170,"SoundDuration":73170,"Delta":277278040},{"NoteNumber":53,"Velocity":27,"Duration":73170,"SoundDuration":73170,"Delta":277351210},{"NoteNumber":56,"Velocity":28,"Duration":72815,"SoundDuration":72815,"Delta":277424381},{"NoteNumber":58,"Velocity":29,"Duration":72581,"SoundDuration":72581,"Delta":277497197},{"NoteNumber":62,"Velocity":30,"Duration":2053340,"SoundDuration":2053340,"Delta":277569778},{"NoteNumber":65,"Velocity":33,"Duration":1995369,"SoundDuration":1995369,"Delta":277627749},{"NoteNumber":68,"Velocity":34,"Duration":1937491,"SoundDuration":1937491,"Delta":277685627},{"NoteNumber":70,"Velocity":37,"Duration":1879799,"SoundDuration":1879799,"Delta":277743319},{"NoteNumber":74,"Velocity":39,"Duration":1822290,"SoundDuration":1822290,"Delta":277800827},{"NoteNumber":80,"Velocity":44,"Duration":873785,"SoundDuration":873785,"Delta":277858244},{"NoteNumber":82,"Velocity":40,"Duration":297029,"SoundDuration":297029,"Delta":278732030},{"NoteNumber":80,"Velocity":42,"Duration":594059,"SoundDuration":594059,"Delta":279029059},{"NoteNumber":50,"Velocity":31,"Duration":899999,"SoundDuration":899999,"Delta":280217177},{"NoteNumber":54,"Velocity":31,"Duration":899999,"SoundDuration":899999,"Delta":280217177},{"NoteNumber":33,"Velocity":24,"Duration":74999,"SoundDuration":74999,"Delta":280217177},{"NoteNumber":45,"Velocity":22,"Duration":74999,"SoundDuration":74999,"Delta":280292177},{"NoteNumber":33,"Velocity":24,"Duration":75000,"SoundDuration":75000,"Delta":280367177},{"NoteNumber":45,"Velocity":22,"Duration":74999,"SoundDuration":74999,"Delta":280442177},{"NoteNumber":33,"Velocity":24,"Duration":74999,"SoundDuration":74999,"Delta":280517177},{"NoteNumber":45,"Velocity":20,"Duration":74999,"SoundDuration":74999,"Delta":280592177},{"NoteNumber":33,"Velocity":24,"Duration":74999,"SoundDuration":74999,"Delta":280667177},{"NoteNumber":45,"Velocity":20,"Duration":75000,"SoundDuration":75000,"Delta":280742177},{"NoteNumber":33,"Velocity":24,"Duration":74999,"SoundDuration":74999,"Delta":280817177},{"NoteNumber":45,"Velocity":22,"Duration":74999,"SoundDuration":74999,"Delta":280892177},{"NoteNumber":33,"Velocity":24,"Duration":74999,"SoundDuration":74999,"Delta":280967177},{"NoteNumber":45,"Velocity":22,"Duration":74999,"SoundDuration":74999,"Delta":281042177},{"NoteNumber":52,"Velocity":31,"Duration":288461,"SoundDuration":288461,"Delta":281117177},{"NoteNumber":55,"Velocity":31,"Duration":288461,"SoundDuration":288461,"Delta":281117177},{"NoteNumber":33,"Velocity":24,"Duration":72115,"SoundDuration":72115,"Delta":281117177},{"NoteNumber":45,"Velocity":20,"Duration":72115,"SoundDuration":72115,"Delta":281189292},{"NoteNumber":33,"Velocity":24,"Duration":72115,"SoundDuration":72115,"Delta":281261408},{"NoteNumber":45,"Velocity":20,"Duration":72115,"SoundDuration":72115,"Delta":281333523},{"NoteNumber":50,"Velocity":31,"Duration":588234,"SoundDuration":588234,"Delta":281405639},{"NoteNumber":54,"Velocity":31,"Duration":588234,"SoundDuration":588234,"Delta":281405639},{"NoteNumber":33,"Velocity":24,"Duration":73529,"SoundDuration":73529,"Delta":281405639},{"NoteNumber":45,"Velocity":22,"Duration":73529,"SoundDuration":73529,"Delta":281479168},{"NoteNumber":33,"Velocity":24,"Duration":73529,"SoundDuration":73529,"Delta":281552697},{"NoteNumber":45,"Velocity":22,"Duration":73529,"SoundDuration":73529,"Delta":281626227},{"NoteNumber":33,"Velocity":24,"Duration":73529,"SoundDuration":73529,"Delta":281699756},{"NoteNumber":45,"Velocity":20,"Duration":73529,"SoundDuration":73529,"Delta":281773285},{"NoteNumber":33,"Velocity":24,"Duration":73529,"SoundDuration":73529,"Delta":281846815},{"NoteNumber":45,"Velocity":20,"Duration":73529,"SoundDuration":73529,"Delta":281920344},{"NoteNumber":52,"Velocity":31,"Duration":588234,"SoundDuration":588234,"Delta":281993874},{"NoteNumber":55,"Velocity":31,"Duration":588234,"SoundDuration":588234,"Delta":281993874},{"NoteNumber":33,"Velocity":24,"Duration":73529,"SoundDuration":73529,"Delta":281993874},{"NoteNumber":45,"Velocity":22,"Duration":73529,"SoundDuration":73529,"Delta":282067403},{"NoteNumber":33,"Velocity":24,"Duration":73529,"SoundDuration":73529,"Delta":282140932},{"NoteNumber":45,"Velocity":22,"Duration":73529,"SoundDuration":73529,"Delta":282214462},{"NoteNumber":33,"Velocity":24,"Duration":73529,"SoundDuration":73529,"Delta":282287991},{"NoteNumber":45,"Velocity":20,"Duration":73529,"SoundDuration":73529,"Delta":282361520},{"NoteNumber":33,"Velocity":24,"Duration":73529,"SoundDuration":73529,"Delta":282435050},{"NoteNumber":45,"Velocity":20,"Duration":73529,"SoundDuration":73529,"Delta":282508579},{"NoteNumber":50,"Velocity":34,"Duration":1759049,"SoundDuration":1759049,"Delta":282582109},{"NoteNumber":54,"Velocity":34,"Duration":882352,"SoundDuration":882352,"Delta":282582109},{"NoteNumber":57,"Velocity":34,"Duration":882352,"SoundDuration":882352,"Delta":282582109},{"NoteNumber":33,"Velocity":24,"Duration":73529,"SoundDuration":73529,"Delta":282582109},{"NoteNumber":45,"Velocity":22,"Duration":73529,"SoundDuration":73529,"Delta":282655638},{"NoteNumber":33,"Velocity":24,"Duration":73529,"SoundDuration":73529,"Delta":282729167},{"NoteNumber":45,"Velocity":22,"Duration":73529,"SoundDuration":73529,"Delta":282802697},{"NoteNumber":33,"Velocity":24,"Duration":73529,"SoundDuration":73529,"Delta":282876226},{"NoteNumber":45,"Velocity":20,"Duration":73529,"SoundDuration":73529,"Delta":282949755},{"NoteNumber":33,"Velocity":24,"Duration":73529,"SoundDuration":73529,"Delta":283023285},{"NoteNumber":45,"Velocity":20,"Duration":73529,"SoundDuration":73529,"Delta":283096814},{"NoteNumber":33,"Velocity":24,"Duration":73529,"SoundDuration":73529,"Delta":283170344},{"NoteNumber":45,"Velocity":22,"Duration":73529,"SoundDuration":73529,"Delta":283243873},{"NoteNumber":33,"Velocity":24,"Duration":73529,"SoundDuration":73529,"Delta":283317402},{"NoteNumber":45,"Velocity":22,"Duration":73529,"SoundDuration":73529,"Delta":283390932},{"NoteNumber":55,"Velocity":31,"Duration":288461,"SoundDuration":288461,"Delta":283464461},{"NoteNumber":59,"Velocity":31,"Duration":288461,"SoundDuration":288461,"Delta":283464461},{"NoteNumber":33,"Velocity":24,"Duration":72115,"SoundDuration":72115,"Delta":283464461},{"NoteNumber":45,"Velocity":20,"Duration":72115,"SoundDuration":72115,"Delta":283536576},{"NoteNumber":33,"Velocity":24,"Duration":72115,"SoundDuration":72115,"Delta":283608692},{"NoteNumber":45,"Velocity":20,"Duration":72115,"SoundDuration":72115,"Delta":283680807},{"NoteNumber":54,"Velocity":31,"Duration":588234,"SoundDuration":588234,"Delta":283752923},{"NoteNumber":57,"Velocity":31,"Duration":588234,"SoundDuration":588234,"Delta":283752923},{"NoteNumber":45,"Velocity":24,"Duration":588234,"SoundDuration":588234,"Delta":283752923},{"NoteNumber":33,"Velocity":24,"Duration":588234,"SoundDuration":588234,"Delta":283752923},{"NoteNumber":45,"Velocity":25,"Duration":73170,"SoundDuration":73170,"Delta":284341158},{"NoteNumber":50,"Velocity":27,"Duration":73170,"SoundDuration":73170,"Delta":284414328},{"NoteNumber":54,"Velocity":28,"Duration":72815,"SoundDuration":72815,"Delta":284487499},{"NoteNumber":57,"Velocity":29,"Duration":72581,"SoundDuration":72581,"Delta":284560315},{"NoteNumber":62,"Velocity":30,"Duration":2049119,"SoundDuration":2049119,"Delta":284632896},{"NoteNumber":66,"Velocity":33,"Duration":1991148,"SoundDuration":1991148,"Delta":284690867},{"NoteNumber":69,"Velocity":34,"Duration":1933270,"SoundDuration":1933270,"Delta":284748745},{"NoteNumber":71,"Velocity":37,"Duration":1875578,"SoundDuration":1875578,"Delta":284806437},{"NoteNumber":74,"Velocity":39,"Duration":1818069,"SoundDuration":1818069,"Delta":284863945},{"NoteNumber":81,"Velocity":44,"Duration":869565,"SoundDuration":869565,"Delta":284921362},{"NoteNumber":83,"Velocity":40,"Duration":297029,"SoundDuration":297029,"Delta":285790927},{"NoteNumber":81,"Velocity":42,"Duration":594059,"SoundDuration":594059,"Delta":286087956},{"NoteNumber":83,"Velocity":40,"Duration":993874,"SoundDuration":993874,"Delta":287186227},{"NoteNumber":85,"Velocity":46,"Duration":952437,"SoundDuration":952437,"Delta":287227663},{"NoteNumber":91,"Velocity":49,"Duration":911001,"SoundDuration":911001,"Delta":287269100},{"NoteNumber":95,"Velocity":52,"Duration":869565,"SoundDuration":869565,"Delta":287310536},{"NoteNumber":69,"Velocity":31,"Duration":1744841,"SoundDuration":1744841,"Delta":287310536},{"NoteNumber":75,"Velocity":31,"Duration":1744841,"SoundDuration":1744841,"Delta":287310536},{"NoteNumber":79,"Velocity":36,"Duration":1744841,"SoundDuration":1744841,"Delta":287310536},{"NoteNumber":85,"Velocity":45,"Duration":295566,"SoundDuration":295566,"Delta":288180101},{"NoteNumber":97,"Velocity":50,"Duration":295566,"SoundDuration":295566,"Delta":288180101},{"NoteNumber":83,"Velocity":44,"Duration":579709,"SoundDuration":579709,"Delta":288475668},{"NoteNumber":95,"Velocity":49,"Duration":579709,"SoundDuration":579709,"Delta":288475668},{"NoteNumber":82,"Velocity":40,"Duration":993874,"SoundDuration":993874,"Delta":289552415},{"NoteNumber":86,"Velocity":46,"Duration":952437,"SoundDuration":952437,"Delta":289593851},{"NoteNumber":89,"Velocity":49,"Duration":911001,"SoundDuration":911001,"Delta":289635288},{"NoteNumber":94,"Velocity":52,"Duration":869565,"SoundDuration":869565,"Delta":289676724},{"NoteNumber":68,"Velocity":31,"Duration":1744841,"SoundDuration":1744841,"Delta":289676724},{"NoteNumber":74,"Velocity":31,"Duration":1744841,"SoundDuration":1744841,"Delta":289676724},{"NoteNumber":77,"Velocity":36,"Duration":1744841,"SoundDuration":1744841,"Delta":289676724},{"NoteNumber":84,"Velocity":45,"Duration":295566,"SoundDuration":295566,"Delta":290546289},{"NoteNumber":96,"Velocity":50,"Duration":295566,"SoundDuration":295566,"Delta":290546289},{"NoteNumber":82,"Velocity":44,"Duration":579709,"SoundDuration":579709,"Delta":290841856},{"NoteNumber":94,"Velocity":49,"Duration":579709,"SoundDuration":579709,"Delta":290841856},{"NoteNumber":81,"Velocity":40,"Duration":993874,"SoundDuration":993874,"Delta":291918603},{"NoteNumber":85,"Velocity":46,"Duration":952437,"SoundDuration":952437,"Delta":291960039},{"NoteNumber":88,"Velocity":49,"Duration":911001,"SoundDuration":911001,"Delta":292001476},{"NoteNumber":93,"Velocity":52,"Duration":869565,"SoundDuration":869565,"Delta":292042912},{"NoteNumber":69,"Velocity":31,"Duration":1744841,"SoundDuration":1744841,"Delta":292042912},{"NoteNumber":73,"Velocity":31,"Duration":1744841,"SoundDuration":1744841,"Delta":292042912},{"NoteNumber":79,"Velocity":36,"Duration":1744841,"SoundDuration":1744841,"Delta":292042912},{"NoteNumber":83,"Velocity":45,"Duration":295566,"SoundDuration":295566,"Delta":292912477},{"NoteNumber":95,"Velocity":50,"Duration":295566,"SoundDuration":295566,"Delta":292912477},{"NoteNumber":81,"Velocity":44,"Duration":1739129,"SoundDuration":1739129,"Delta":293208044},{"NoteNumber":93,"Velocity":49,"Duration":1739129,"SoundDuration":1739129,"Delta":293208044},{"NoteNumber":91,"Velocity":79,"Duration":71428,"SoundDuration":71428,"Delta":294947174},{"NoteNumber":88,"Velocity":67,"Duration":71428,"SoundDuration":71428,"Delta":295018602},{"NoteNumber":85,"Velocity":64,"Duration":71770,"SoundDuration":71770,"Delta":295090031},{"NoteNumber":81,"Velocity":63,"Duration":72000,"SoundDuration":72000,"Delta":295161801},{"NoteNumber":79,"Velocity":70,"Duration":72115,"SoundDuration":72115,"Delta":295233802},{"NoteNumber":76,"Velocity":61,"Duration":72347,"SoundDuration":72347,"Delta":295305917},{"NoteNumber":73,"Velocity":60,"Duration":72580,"SoundDuration":72580,"Delta":295378265},{"NoteNumber":69,"Velocity":59,"Duration":72815,"SoundDuration":72815,"Delta":295450846},{"NoteNumber":79,"Velocity":79,"Duration":72590,"SoundDuration":72590,"Delta":295523661},{"NoteNumber":76,"Velocity":67,"Duration":71428,"SoundDuration":71428,"Delta":295596251},{"NoteNumber":73,"Velocity":64,"Duration":71770,"SoundDuration":71770,"Delta":295667680},{"NoteNumber":69,"Velocity":63,"Duration":72000,"SoundDuration":72000,"Delta":295739450},{"NoteNumber":67,"Velocity":70,"Duration":72463,"SoundDuration":72463,"Delta":295811451},{"NoteNumber":64,"Velocity":61,"Duration":72698,"SoundDuration":72698,"Delta":295883914},{"NoteNumber":61,"Velocity":60,"Duration":73170,"SoundDuration":73170,"Delta":295956613},{"NoteNumber":57,"Velocity":59,"Duration":73409,"SoundDuration":73409,"Delta":296029783},{"NoteNumber":67,"Velocity":79,"Duration":72115,"SoundDuration":72115,"Delta":296103193},{"NoteNumber":64,"Velocity":67,"Duration":72115,"SoundDuration":72115,"Delta":296175308},{"NoteNumber":61,"Velocity":64,"Duration":72463,"SoundDuration":72463,"Delta":296247424},{"NoteNumber":57,"Velocity":63,"Duration":72463,"SoundDuration":72463,"Delta":296319888},{"NoteNumber":55,"Velocity":70,"Duration":72815,"SoundDuration":72815,"Delta":296392351},{"NoteNumber":52,"Velocity":61,"Duration":72815,"SoundDuration":72815,"Delta":296465167},{"NoteNumber":49,"Velocity":60,"Duration":73170,"SoundDuration":73170,"Delta":296537982},{"NoteNumber":45,"Velocity":59,"Duration":73409,"SoundDuration":73409,"Delta":296611153},{"NoteNumber":33,"Velocity":77,"Duration":872392,"SoundDuration":872392,"Delta":296684563},{"NoteNumber":35,"Velocity":72,"Duration":309278,"SoundDuration":309278,"Delta":297556956},{"NoteNumber":33,"Velocity":79,"Duration":1304347,"SoundDuration":1304347,"Delta":297866234},{"NoteNumber":37,"Velocity":56,"Duration":144695,"SoundDuration":144695,"Delta":299170582},{"NoteNumber":40,"Velocity":58,"Duration":144230,"SoundDuration":144230,"Delta":299315277},{"NoteNumber":43,"Velocity":60,"Duration":143770,"SoundDuration":143770,"Delta":299459508},{"NoteNumber":45,"Velocity":59,"Duration":143312,"SoundDuration":143312,"Delta":299603279},{"NoteNumber":49,"Velocity":59,"Duration":142857,"SoundDuration":142857,"Delta":299746592},{"NoteNumber":52,"Velocity":60,"Duration":142405,"SoundDuration":142405,"Delta":299889449},{"NoteNumber":55,"Velocity":61,"Duration":141956,"SoundDuration":141956,"Delta":300031855},{"NoteNumber":57,"Velocity":59,"Duration":141509,"SoundDuration":141509,"Delta":300173811},{"NoteNumber":61,"Velocity":60,"Duration":141509,"SoundDuration":141509,"Delta":300315321},{"NoteNumber":64,"Velocity":61,"Duration":142179,"SoundDuration":142179,"Delta":300456830},{"NoteNumber":67,"Velocity":62,"Duration":142179,"SoundDuration":142179,"Delta":300599010},{"NoteNumber":69,"Velocity":66,"Duration":142857,"SoundDuration":142857,"Delta":300741190},{"NoteNumber":73,"Velocity":68,"Duration":142857,"SoundDuration":142857,"Delta":300884047},{"NoteNumber":76,"Velocity":69,"Duration":143540,"SoundDuration":143540,"Delta":301026905},{"NoteNumber":79,"Velocity":71,"Duration":143540,"SoundDuration":143540,"Delta":301170445},{"NoteNumber":83,"Velocity":71,"Duration":434782,"SoundDuration":434782,"Delta":301313986},{"NoteNumber":85,"Velocity":69,"Duration":144927,"SoundDuration":144927,"Delta":301748769},{"NoteNumber":83,"Velocity":64,"Duration":1191871,"SoundDuration":1191871,"Delta":301893696},{"NoteNumber":77,"Velocity":55,"Duration":1183004,"SoundDuration":1183004,"Delta":302493696},{"NoteNumber":74,"Velocity":49,"Duration":1183004,"SoundDuration":1183004,"Delta":302493696},{"NoteNumber":68,"Velocity":50,"Duration":1183004,"SoundDuration":1183004,"Delta":302493696},{"NoteNumber":57,"Velocity":45,"Duration":1183004,"SoundDuration":1183004,"Delta":302493696},{"NoteNumber":80,"Velocity":62,"Duration":591133,"SoundDuration":591133,"Delta":303085568},{"NoteNumber":73,"Velocity":55,"Duration":1203989,"SoundDuration":1203989,"Delta":303676701},{"NoteNumber":76,"Velocity":55,"Duration":1203989,"SoundDuration":1203989,"Delta":303676701},{"NoteNumber":83,"Velocity":61,"Duration":291262,"SoundDuration":291262,"Delta":303676701},{"NoteNumber":67,"Velocity":44,"Duration":1900435,"SoundDuration":1900435,"Delta":303676701},{"NoteNumber":57,"Velocity":39,"Duration":1900435,"SoundDuration":1900435,"Delta":303676701},{"NoteNumber":81,"Velocity":56,"Duration":295566,"SoundDuration":295566,"Delta":303967963},{"NoteNumber":80,"Velocity":53,"Duration":303820,"SoundDuration":303820,"Delta":304263530},{"NoteNumber":79,"Velocity":52,"Duration":313340,"SoundDuration":313340,"Delta":304567350},{"NoteNumber":76,"Velocity":50,"Duration":323774,"SoundDuration":323774,"Delta":304880691},{"NoteNumber":73,"Velocity":49,"Duration":372671,"SoundDuration":372671,"Delta":305204465},{"NoteNumber":66,"Velocity":36,"Duration":252695,"SoundDuration":252695,"Delta":305577136},{"NoteNumber":69,"Velocity":55,"Duration":673854,"SoundDuration":673854,"Delta":305577136},{"NoteNumber":38,"Velocity":31,"Duration":673854,"SoundDuration":673854,"Delta":305577136},{"NoteNumber":50,"Velocity":35,"Duration":673854,"SoundDuration":673854,"Delta":305577136},{"NoteNumber":57,"Velocity":36,"Duration":252695,"SoundDuration":252695,"Delta":305801754},{"NoteNumber":62,"Velocity":37,"Duration":224618,"SoundDuration":224618,"Delta":306026372},{"NoteNumber":67,"Velocity":36,"Duration":254065,"SoundDuration":254065,"Delta":306250990},{"NoteNumber":69,"Velocity":58,"Duration":677506,"SoundDuration":677506,"Delta":306250990},{"NoteNumber":37,"Velocity":31,"Duration":677506,"SoundDuration":677506,"Delta":306250990},{"NoteNumber":49,"Velocity":36,"Duration":677506,"SoundDuration":677506,"Delta":306250990},{"NoteNumber":57,"Velocity":36,"Duration":254065,"SoundDuration":254065,"Delta":306476826},{"NoteNumber":64,"Velocity":37,"Duration":225835,"SoundDuration":225835,"Delta":306702662},{"NoteNumber":66,"Velocity":36,"Duration":670240,"SoundDuration":670240,"Delta":306928497},{"NoteNumber":69,"Velocity":55,"Duration":670240,"SoundDuration":670240,"Delta":306928497},{"NoteNumber":38,"Velocity":29,"Duration":670240,"SoundDuration":670240,"Delta":306928497},{"NoteNumber":50,"Velocity":32,"Duration":670240,"SoundDuration":670240,"Delta":306928497},{"NoteNumber":57,"Velocity":37,"Duration":223413,"SoundDuration":223413,"Delta":307151911},{"NoteNumber":62,"Velocity":35,"Duration":223413,"SoundDuration":223413,"Delta":307375325},{"NoteNumber":62,"Velocity":36,"Duration":681198,"SoundDuration":681198,"Delta":307598738},{"NoteNumber":71,"Velocity":58,"Duration":681198,"SoundDuration":681198,"Delta":307598738},{"NoteNumber":43,"Velocity":32,"Duration":681198,"SoundDuration":681198,"Delta":307598738},{"NoteNumber":55,"Velocity":37,"Duration":681198,"SoundDuration":681198,"Delta":307598738},{"NoteNumber":59,"Velocity":37,"Duration":227066,"SoundDuration":227066,"Delta":307825805},{"NoteNumber":62,"Velocity":37,"Duration":227066,"SoundDuration":227066,"Delta":308052871},{"NoteNumber":66,"Velocity":36,"Duration":255449,"SoundDuration":255449,"Delta":308279937},{"NoteNumber":69,"Velocity":54,"Duration":681198,"SoundDuration":681198,"Delta":308279937},{"NoteNumber":38,"Velocity":29,"Duration":681198,"SoundDuration":681198,"Delta":308279937},{"NoteNumber":50,"Velocity":32,"Duration":681198,"SoundDuration":681198,"Delta":308279937},{"NoteNumber":57,"Velocity":37,"Duration":255449,"SoundDuration":255449,"Delta":308507004},{"NoteNumber":62,"Velocity":37,"Duration":227066,"SoundDuration":227066,"Delta":308734070},{"NoteNumber":61,"Velocity":36,"Duration":668184,"SoundDuration":668184,"Delta":308961136},{"NoteNumber":69,"Velocity":54,"Duration":668184,"SoundDuration":668184,"Delta":308961136},{"NoteNumber":33,"Velocity":31,"Duration":668184,"SoundDuration":668184,"Delta":308961136},{"NoteNumber":45,"Velocity":35,"Duration":668184,"SoundDuration":668184,"Delta":308961136},{"NoteNumber":57,"Velocity":31,"Duration":252062,"SoundDuration":252062,"Delta":309185855},{"NoteNumber":73,"Velocity":43,"Duration":661048,"SoundDuration":661048,"Delta":309410574},{"NoteNumber":81,"Velocity":43,"Duration":653986,"SoundDuration":653986,"Delta":309410574},{"NoteNumber":79,"Velocity":43,"Duration":661048,"SoundDuration":661048,"Delta":309410574},{"NoteNumber":61,"Velocity":36,"Duration":218746,"SoundDuration":218746,"Delta":309410574},{"NoteNumber":64,"Velocity":37,"Duration":246447,"SoundDuration":246447,"Delta":309629321},{"NoteNumber":67,"Velocity":32,"Duration":251813,"SoundDuration":251813,"Delta":309848220},{"NoteNumber":73,"Velocity":42,"Duration":245671,"SoundDuration":245671,"Delta":310071623},{"NoteNumber":81,"Velocity":42,"Duration":245671,"SoundDuration":245671,"Delta":310071623},{"NoteNumber":79,"Velocity":42,"Duration":245671,"SoundDuration":245671,"Delta":310071623},{"NoteNumber":69,"Velocity":42,"Duration":245671,"SoundDuration":245671,"Delta":310071623},{"NoteNumber":61,"Velocity":35,"Duration":245671,"SoundDuration":245671,"Delta":310071623},{"NoteNumber":74,"Velocity":42,"Duration":714286,"SoundDuration":714286,"Delta":310317295},{"NoteNumber":81,"Velocity":42,"Duration":714286,"SoundDuration":714286,"Delta":310317295},{"NoteNumber":78,"Velocity":42,"Duration":714286,"SoundDuration":714286,"Delta":310317295},{"NoteNumber":62,"Velocity":35,"Duration":714286,"SoundDuration":714286,"Delta":310317295},{"NoteNumber":66,"Velocity":35,"Duration":714286,"SoundDuration":714286,"Delta":310317295},{"NoteNumber":59,"Velocity":38,"Duration":252695,"SoundDuration":252695,"Delta":311031581},{"NoteNumber":67,"Velocity":60,"Duration":673854,"SoundDuration":673854,"Delta":311031581},{"NoteNumber":43,"Velocity":34,"Duration":673854,"SoundDuration":673854,"Delta":311031581},{"NoteNumber":50,"Velocity":38,"Duration":673854,"SoundDuration":673854,"Delta":311031581},{"NoteNumber":55,"Velocity":38,"Duration":252695,"SoundDuration":252695,"Delta":311256199},{"NoteNumber":59,"Velocity":40,"Duration":224618,"SoundDuration":224618,"Delta":311480817},{"NoteNumber":57,"Velocity":38,"Duration":677506,"SoundDuration":677506,"Delta":311705435},{"NoteNumber":66,"Velocity":63,"Duration":677506,"SoundDuration":677506,"Delta":311705435},{"NoteNumber":38,"Velocity":35,"Duration":677506,"SoundDuration":677506,"Delta":311705435},{"NoteNumber":50,"Velocity":39,"Duration":677506,"SoundDuration":677506,"Delta":311705435},{"NoteNumber":54,"Velocity":38,"Duration":254065,"SoundDuration":254065,"Delta":311931271},{"NoteNumber":57,"Velocity":40,"Duration":225835,"SoundDuration":225835,"Delta":312157106},{"NoteNumber":59,"Velocity":38,"Duration":670240,"SoundDuration":670240,"Delta":312382942},{"NoteNumber":64,"Velocity":60,"Duration":670240,"SoundDuration":670240,"Delta":312382942},{"NoteNumber":31,"Velocity":31,"Duration":670240,"SoundDuration":670240,"Delta":312382942},{"NoteNumber":43,"Velocity":31,"Duration":670240,"SoundDuration":670240,"Delta":312382942},{"NoteNumber":55,"Velocity":42,"Duration":251340,"SoundDuration":251340,"Delta":312606356},{"NoteNumber":59,"Velocity":37,"Duration":223413,"SoundDuration":223413,"Delta":312829769},{"NoteNumber":54,"Velocity":38,"Duration":681198,"SoundDuration":681198,"Delta":313053183},{"NoteNumber":62,"Velocity":63,"Duration":681198,"SoundDuration":681198,"Delta":313053183},{"NoteNumber":33,"Velocity":36,"Duration":681198,"SoundDuration":681198,"Delta":313053183},{"NoteNumber":45,"Velocity":40,"Duration":681198,"SoundDuration":681198,"Delta":313053183},{"NoteNumber":50,"Velocity":42,"Duration":255449,"SoundDuration":255449,"Delta":313280249},{"NoteNumber":54,"Velocity":42,"Duration":227066,"SoundDuration":227066,"Delta":313507316},{"NoteNumber":55,"Velocity":38,"Duration":681198,"SoundDuration":681198,"Delta":313734382},{"NoteNumber":61,"Velocity":59,"Duration":681198,"SoundDuration":681198,"Delta":313734382},{"NoteNumber":33,"Velocity":31,"Duration":681198,"SoundDuration":681198,"Delta":313734382},{"NoteNumber":45,"Velocity":35,"Duration":681198,"SoundDuration":681198,"Delta":313734382},{"NoteNumber":52,"Velocity":42,"Duration":255449,"SoundDuration":255449,"Delta":313961448},{"NoteNumber":57,"Velocity":42,"Duration":227066,"SoundDuration":227066,"Delta":314188515},{"NoteNumber":54,"Velocity":38,"Duration":481888,"SoundDuration":481888,"Delta":314415581},{"NoteNumber":62,"Velocity":59,"Duration":673292,"SoundDuration":673292,"Delta":314415581},{"NoteNumber":38,"Velocity":34,"Duration":673292,"SoundDuration":673292,"Delta":314415581},{"NoteNumber":50,"Velocity":38,"Duration":673292,"SoundDuration":673292,"Delta":314415581},{"NoteNumber":54,"Velocity":34,"Duration":446019,"SoundDuration":446019,"Delta":314642854},{"NoteNumber":57,"Velocity":38,"Duration":218746,"SoundDuration":218746,"Delta":314870126},{"NoteNumber":69,"Velocity":46,"Duration":218746,"SoundDuration":218746,"Delta":314870126},{"NoteNumber":78,"Velocity":46,"Duration":218746,"SoundDuration":218746,"Delta":314870126},{"NoteNumber":74,"Velocity":46,"Duration":218746,"SoundDuration":218746,"Delta":314870126},{"NoteNumber":62,"Velocity":48,"Duration":248966,"SoundDuration":248966,"Delta":315088873},{"NoteNumber":66,"Velocity":42,"Duration":259143,"SoundDuration":259143,"Delta":315309430},{"NoteNumber":69,"Velocity":48,"Duration":237415,"SoundDuration":237415,"Delta":315539334},{"NoteNumber":62,"Velocity":36,"Duration":869565,"SoundDuration":869565,"Delta":315776750},{"NoteNumber":69,"Velocity":36,"Duration":815217,"SoundDuration":815217,"Delta":315831098},{"NoteNumber":74,"Velocity":48,"Duration":760869,"SoundDuration":760869,"Delta":315885446},{"NoteNumber":78,"Velocity":52,"Duration":706521,"SoundDuration":706521,"Delta":315939793},{"NoteNumber":86,"Velocity":58,"Duration":652173,"SoundDuration":652173,"Delta":315994141},{"NoteNumber":57,"Velocity":40,"Duration":247252,"SoundDuration":247252,"Delta":316646315},{"NoteNumber":66,"Velocity":65,"Duration":659340,"SoundDuration":659340,"Delta":316646315},{"NoteNumber":38,"Velocity":36,"Duration":659340,"SoundDuration":659340,"Delta":316646315},{"NoteNumber":50,"Velocity":40,"Duration":659340,"SoundDuration":659340,"Delta":316646315},{"NoteNumber":54,"Velocity":40,"Duration":247252,"SoundDuration":247252,"Delta":316866095},{"NoteNumber":57,"Velocity":43,"Duration":219780,"SoundDuration":219780,"Delta":317085876},{"NoteNumber":56,"Velocity":40,"Duration":677506,"SoundDuration":677506,"Delta":317305656},{"NoteNumber":64,"Velocity":67,"Duration":677506,"SoundDuration":677506,"Delta":317305656},{"NoteNumber":40,"Velocity":37,"Duration":677506,"SoundDuration":677506,"Delta":317305656},{"NoteNumber":47,"Velocity":42,"Duration":677506,"SoundDuration":677506,"Delta":317305656},{"NoteNumber":52,"Velocity":40,"Duration":254065,"SoundDuration":254065,"Delta":317531492},{"NoteNumber":56,"Velocity":43,"Duration":225835,"SoundDuration":225835,"Delta":317757327},{"NoteNumber":57,"Velocity":40,"Duration":670240,"SoundDuration":670240,"Delta":317983163},{"NoteNumber":61,"Velocity":65,"Duration":670240,"SoundDuration":670240,"Delta":317983163},{"NoteNumber":42,"Velocity":37,"Duration":670240,"SoundDuration":670240,"Delta":317983163},{"NoteNumber":54,"Velocity":46,"Duration":251340,"SoundDuration":251340,"Delta":318206577},{"NoteNumber":57,"Velocity":39,"Duration":223413,"SoundDuration":223413,"Delta":318429990},{"NoteNumber":54,"Velocity":40,"Duration":670390,"SoundDuration":670390,"Delta":318653404},{"NoteNumber":62,"Velocity":67,"Duration":670390,"SoundDuration":670390,"Delta":318653404},{"NoteNumber":35,"Velocity":38,"Duration":670390,"SoundDuration":670390,"Delta":318653404},{"NoteNumber":47,"Velocity":43,"Duration":670390,"SoundDuration":670390,"Delta":318653404},{"NoteNumber":50,"Velocity":46,"Duration":251396,"SoundDuration":251396,"Delta":318876868},{"NoteNumber":54,"Velocity":46,"Duration":223463,"SoundDuration":223463,"Delta":319100331},{"NoteNumber":56,"Velocity":46,"Duration":677966,"SoundDuration":677966,"Delta":319323795},{"NoteNumber":59,"Velocity":64,"Duration":677966,"SoundDuration":677966,"Delta":319323795},{"NoteNumber":37,"Velocity":32,"Duration":677966,"SoundDuration":677966,"Delta":319323795},{"NoteNumber":52,"Velocity":37,"Duration":677966,"SoundDuration":677966,"Delta":319323795},{"NoteNumber":50,"Velocity":46,"Duration":254237,"SoundDuration":254237,"Delta":319549784},{"NoteNumber":52,"Velocity":46,"Duration":225988,"SoundDuration":225988,"Delta":319775772},{"NoteNumber":49,"Velocity":40,"Duration":476781,"SoundDuration":476781,"Delta":320001761},{"NoteNumber":57,"Velocity":64,"Duration":668184,"SoundDuration":668184,"Delta":320001761},{"NoteNumber":33,"Velocity":36,"Duration":668184,"SoundDuration":668184,"Delta":320001761},{"NoteNumber":45,"Velocity":40,"Duration":668184,"SoundDuration":668184,"Delta":320001761},{"NoteNumber":49,"Velocity":35,"Duration":443465,"SoundDuration":443465,"Delta":320226480},{"NoteNumber":52,"Velocity":39,"Duration":218746,"SoundDuration":218746,"Delta":320451199},{"NoteNumber":57,"Velocity":50,"Duration":248966,"SoundDuration":248966,"Delta":320669946},{"NoteNumber":49,"Velocity":38,"Duration":248966,"SoundDuration":248966,"Delta":320669946},{"NoteNumber":61,"Velocity":44,"Duration":259143,"SoundDuration":259143,"Delta":320890503},{"NoteNumber":52,"Velocity":35,"Duration":259143,"SoundDuration":259143,"Delta":320890503},{"NoteNumber":64,"Velocity":50,"Duration":237415,"SoundDuration":237415,"Delta":321120407},{"NoteNumber":57,"Velocity":38,"Duration":255273,"SoundDuration":255273,"Delta":321120407},{"NoteNumber":57,"Velocity":37,"Duration":857143,"SoundDuration":857143,"Delta":321357823},{"NoteNumber":64,"Velocity":37,"Duration":803571,"SoundDuration":803571,"Delta":321411394},{"NoteNumber":69,"Velocity":50,"Duration":750000,"SoundDuration":750000,"Delta":321464966},{"NoteNumber":73,"Velocity":52,"Duration":696428,"SoundDuration":696428,"Delta":321518537},{"NoteNumber":81,"Velocity":55,"Duration":642857,"SoundDuration":642857,"Delta":321572108},{"NoteNumber":66,"Velocity":36,"Duration":252695,"SoundDuration":252695,"Delta":322214966},{"NoteNumber":69,"Velocity":55,"Duration":673854,"SoundDuration":673854,"Delta":322214966},{"NoteNumber":38,"Velocity":31,"Duration":673854,"SoundDuration":673854,"Delta":322214966},{"NoteNumber":50,"Velocity":35,"Duration":673854,"SoundDuration":673854,"Delta":322214966},{"NoteNumber":57,"Velocity":36,"Duration":252695,"SoundDuration":252695,"Delta":322439584},{"NoteNumber":62,"Velocity":37,"Duration":224618,"SoundDuration":224618,"Delta":322664202},{"NoteNumber":67,"Velocity":36,"Duration":254065,"SoundDuration":254065,"Delta":322888820},{"NoteNumber":69,"Velocity":58,"Duration":677506,"SoundDuration":677506,"Delta":322888820},{"NoteNumber":37,"Velocity":31,"Duration":677506,"SoundDuration":677506,"Delta":322888820},{"NoteNumber":49,"Velocity":36,"Duration":677506,"SoundDuration":677506,"Delta":322888820},{"NoteNumber":57,"Velocity":36,"Duration":254065,"SoundDuration":254065,"Delta":323114655},{"NoteNumber":64,"Velocity":37,"Duration":225835,"SoundDuration":225835,"Delta":323340491},{"NoteNumber":66,"Velocity":36,"Duration":670240,"SoundDuration":670240,"Delta":323566327},{"NoteNumber":69,"Velocity":55,"Duration":670240,"SoundDuration":670240,"Delta":323566327},{"NoteNumber":38,"Velocity":29,"Duration":670240,"SoundDuration":670240,"Delta":323566327},{"NoteNumber":50,"Velocity":32,"Duration":670240,"SoundDuration":670240,"Delta":323566327},{"NoteNumber":57,"Velocity":37,"Duration":223413,"SoundDuration":223413,"Delta":323789740},{"NoteNumber":62,"Velocity":35,"Duration":223413,"SoundDuration":223413,"Delta":324013154},{"NoteNumber":62,"Velocity":36,"Duration":681198,"SoundDuration":681198,"Delta":324236568},{"NoteNumber":71,"Velocity":58,"Duration":681198,"SoundDuration":681198,"Delta":324236568},{"NoteNumber":43,"Velocity":32,"Duration":681198,"SoundDuration":681198,"Delta":324236568},{"NoteNumber":55,"Velocity":37,"Duration":681198,"SoundDuration":681198,"Delta":324236568},{"NoteNumber":59,"Velocity":37,"Duration":227066,"SoundDuration":227066,"Delta":324463634},{"NoteNumber":62,"Velocity":37,"Duration":227066,"SoundDuration":227066,"Delta":324690700},{"NoteNumber":66,"Velocity":36,"Duration":255449,"SoundDuration":255449,"Delta":324917767},{"NoteNumber":69,"Velocity":54,"Duration":681198,"SoundDuration":681198,"Delta":324917767},{"NoteNumber":38,"Velocity":29,"Duration":681198,"SoundDuration":681198,"Delta":324917767},{"NoteNumber":50,"Velocity":32,"Duration":681198,"SoundDuration":681198,"Delta":324917767},{"NoteNumber":57,"Velocity":37,"Duration":255449,"SoundDuration":255449,"Delta":325144833},{"NoteNumber":62,"Velocity":37,"Duration":227066,"SoundDuration":227066,"Delta":325371899},{"NoteNumber":61,"Velocity":36,"Duration":668184,"SoundDuration":668184,"Delta":325598966},{"NoteNumber":69,"Velocity":54,"Duration":668184,"SoundDuration":668184,"Delta":325598966},{"NoteNumber":33,"Velocity":31,"Duration":668184,"SoundDuration":668184,"Delta":325598966},{"NoteNumber":45,"Velocity":35,"Duration":668184,"SoundDuration":668184,"Delta":325598966},{"NoteNumber":57,"Velocity":31,"Duration":252062,"SoundDuration":252062,"Delta":325823685},{"NoteNumber":73,"Velocity":43,"Duration":661048,"SoundDuration":661048,"Delta":326048404},{"NoteNumber":81,"Velocity":43,"Duration":661048,"SoundDuration":661048,"Delta":326048404},{"NoteNumber":79,"Velocity":43,"Duration":661048,"SoundDuration":661048,"Delta":326048404},{"NoteNumber":61,"Velocity":36,"Duration":218746,"SoundDuration":218746,"Delta":326048404},{"NoteNumber":64,"Velocity":37,"Duration":246447,"SoundDuration":246447,"Delta":326267150},{"NoteNumber":67,"Velocity":32,"Duration":251813,"SoundDuration":251813,"Delta":326486049},{"NoteNumber":73,"Velocity":42,"Duration":245671,"SoundDuration":245671,"Delta":326709452},{"NoteNumber":81,"Velocity":42,"Duration":245671,"SoundDuration":245671,"Delta":326709452},{"NoteNumber":79,"Velocity":42,"Duration":245671,"SoundDuration":245671,"Delta":326709452},{"NoteNumber":69,"Velocity":42,"Duration":245671,"SoundDuration":245671,"Delta":326709452},{"NoteNumber":61,"Velocity":35,"Duration":245671,"SoundDuration":245671,"Delta":326709452},{"NoteNumber":74,"Velocity":42,"Duration":714286,"SoundDuration":714286,"Delta":326955124},{"NoteNumber":81,"Velocity":42,"Duration":714286,"SoundDuration":714286,"Delta":326955124},{"NoteNumber":78,"Velocity":42,"Duration":714286,"SoundDuration":714286,"Delta":326955124},{"NoteNumber":62,"Velocity":35,"Duration":714286,"SoundDuration":714286,"Delta":326955124},{"NoteNumber":66,"Velocity":35,"Duration":714286,"SoundDuration":714286,"Delta":326955124},{"NoteNumber":59,"Velocity":38,"Duration":252695,"SoundDuration":252695,"Delta":327669410},{"NoteNumber":67,"Velocity":60,"Duration":673854,"SoundDuration":673854,"Delta":327669410},{"NoteNumber":43,"Velocity":34,"Duration":673854,"SoundDuration":673854,"Delta":327669410},{"NoteNumber":50,"Velocity":38,"Duration":673854,"SoundDuration":673854,"Delta":327669410},{"NoteNumber":55,"Velocity":38,"Duration":252695,"SoundDuration":252695,"Delta":327894028},{"NoteNumber":59,"Velocity":40,"Duration":224618,"SoundDuration":224618,"Delta":328118646},{"NoteNumber":57,"Velocity":38,"Duration":677506,"SoundDuration":677506,"Delta":328343264},{"NoteNumber":66,"Velocity":63,"Duration":677506,"SoundDuration":677506,"Delta":328343264},{"NoteNumber":38,"Velocity":35,"Duration":677506,"SoundDuration":677506,"Delta":328343264},{"NoteNumber":50,"Velocity":39,"Duration":677506,"SoundDuration":677506,"Delta":328343264},{"NoteNumber":54,"Velocity":38,"Duration":254065,"SoundDuration":254065,"Delta":328569100},{"NoteNumber":57,"Velocity":40,"Duration":225835,"SoundDuration":225835,"Delta":328794936},{"NoteNumber":59,"Velocity":38,"Duration":670240,"SoundDuration":670240,"Delta":329020771},{"NoteNumber":64,"Velocity":60,"Duration":670240,"SoundDuration":670240,"Delta":329020771},{"NoteNumber":31,"Velocity":31,"Duration":670240,"SoundDuration":670240,"Delta":329020771},{"NoteNumber":43,"Velocity":35,"Duration":670240,"SoundDuration":670240,"Delta":329020771},{"NoteNumber":55,"Velocity":42,"Duration":251340,"SoundDuration":251340,"Delta":329244185},{"NoteNumber":59,"Velocity":37,"Duration":223413,"SoundDuration":223413,"Delta":329467599},{"NoteNumber":54,"Velocity":38,"Duration":681198,"SoundDuration":681198,"Delta":329691012},{"NoteNumber":62,"Velocity":63,"Duration":681198,"SoundDuration":681198,"Delta":329691012},{"NoteNumber":33,"Velocity":36,"Duration":681198,"SoundDuration":681198,"Delta":329691012},{"NoteNumber":45,"Velocity":40,"Duration":681198,"SoundDuration":681198,"Delta":329691012},{"NoteNumber":50,"Velocity":42,"Duration":255449,"SoundDuration":255449,"Delta":329918079},{"NoteNumber":54,"Velocity":42,"Duration":227066,"SoundDuration":227066,"Delta":330145145},{"NoteNumber":55,"Velocity":38,"Duration":681198,"SoundDuration":681198,"Delta":330372211},{"NoteNumber":61,"Velocity":59,"Duration":681198,"SoundDuration":681198,"Delta":330372211},{"NoteNumber":33,"Velocity":31,"Duration":681198,"SoundDuration":681198,"Delta":330372211},{"NoteNumber":45,"Velocity":35,"Duration":681198,"SoundDuration":681198,"Delta":330372211},{"NoteNumber":52,"Velocity":42,"Duration":255449,"SoundDuration":255449,"Delta":330599278},{"NoteNumber":57,"Velocity":42,"Duration":227066,"SoundDuration":227066,"Delta":330826344},{"NoteNumber":54,"Velocity":38,"Duration":481888,"SoundDuration":481888,"Delta":331053410},{"NoteNumber":62,"Velocity":59,"Duration":673292,"SoundDuration":673292,"Delta":331053410},{"NoteNumber":38,"Velocity":34,"Duration":673292,"SoundDuration":673292,"Delta":331053410},{"NoteNumber":50,"Velocity":38,"Duration":673292,"SoundDuration":673292,"Delta":331053410},{"NoteNumber":54,"Velocity":34,"Duration":446019,"SoundDuration":446019,"Delta":331280683},{"NoteNumber":57,"Velocity":38,"Duration":218746,"SoundDuration":218746,"Delta":331507956},{"NoteNumber":69,"Velocity":46,"Duration":218746,"SoundDuration":218746,"Delta":331507956},{"NoteNumber":78,"Velocity":46,"Duration":218746,"SoundDuration":218746,"Delta":331507956},{"NoteNumber":74,"Velocity":46,"Duration":218746,"SoundDuration":218746,"Delta":331507956},{"NoteNumber":62,"Velocity":48,"Duration":248966,"SoundDuration":248966,"Delta":331726702},{"NoteNumber":66,"Velocity":42,"Duration":259143,"SoundDuration":259143,"Delta":331947260},{"NoteNumber":69,"Velocity":48,"Duration":237415,"SoundDuration":237415,"Delta":332177164},{"NoteNumber":62,"Velocity":36,"Duration":600000,"SoundDuration":600000,"Delta":332414579},{"NoteNumber":69,"Velocity":36,"Duration":525000,"SoundDuration":525000,"Delta":332489579},{"NoteNumber":74,"Velocity":52,"Duration":450000,"SoundDuration":450000,"Delta":332564579},{"NoteNumber":78,"Velocity":55,"Duration":375000,"SoundDuration":375000,"Delta":332639579},{"NoteNumber":86,"Velocity":60,"Duration":300000,"SoundDuration":300000,"Delta":332714579},{"NoteNumber":74,"Velocity":51,"Duration":375000,"SoundDuration":375000,"Delta":333014579},{"NoteNumber":74,"Velocity":54,"Duration":328125,"SoundDuration":328125,"Delta":333389579},{"NoteNumber":74,"Velocity":51,"Duration":328125,"SoundDuration":328125,"Delta":333764579},{"NoteNumber":74,"Velocity":54,"Duration":326087,"SoundDuration":326087,"Delta":334139579},{"NoteNumber":74,"Velocity":49,"Duration":324074,"SoundDuration":324074,"Delta":334512250},{"NoteNumber":74,"Velocity":54,"Duration":322085,"SoundDuration":322085,"Delta":334882621},{"NoteNumber":74,"Velocity":50,"Duration":320029,"SoundDuration":320029,"Delta":335250719},{"NoteNumber":96,"Velocity":63,"Duration":303888,"SoundDuration":303888,"Delta":335614636},{"NoteNumber":91,"Velocity":57,"Duration":303888,"SoundDuration":303888,"Delta":335614636},{"NoteNumber":88,"Velocity":57,"Duration":303888,"SoundDuration":303888,"Delta":335614636},{"NoteNumber":74,"Velocity":47,"Duration":303888,"SoundDuration":303888,"Delta":335614636},{"NoteNumber":86,"Velocity":49,"Duration":306337,"SoundDuration":306337,"Delta":335962129},{"NoteNumber":90,"Velocity":49,"Duration":306337,"SoundDuration":306337,"Delta":335962129},{"NoteNumber":95,"Velocity":55,"Duration":306337,"SoundDuration":306337,"Delta":335962129},{"NoteNumber":74,"Velocity":40,"Duration":306337,"SoundDuration":306337,"Delta":335962129},{"NoteNumber":84,"Velocity":50,"Duration":308823,"SoundDuration":308823,"Delta":336312326},{"NoteNumber":88,"Velocity":57,"Duration":308823,"SoundDuration":308823,"Delta":336312326},{"NoteNumber":93,"Velocity":57,"Duration":308823,"SoundDuration":308823,"Delta":336312326},{"NoteNumber":74,"Velocity":41,"Duration":308823,"SoundDuration":308823,"Delta":336312326},{"NoteNumber":83,"Velocity":49,"Duration":308823,"SoundDuration":308823,"Delta":336665267},{"NoteNumber":86,"Velocity":49,"Duration":308823,"SoundDuration":308823,"Delta":336665267},{"NoteNumber":91,"Velocity":56,"Duration":308823,"SoundDuration":308823,"Delta":336665267},{"NoteNumber":74,"Velocity":40,"Duration":308823,"SoundDuration":308823,"Delta":336665267},{"NoteNumber":81,"Velocity":56,"Duration":712222,"SoundDuration":712222,"Delta":337018208},{"NoteNumber":84,"Velocity":56,"Duration":712222,"SoundDuration":712222,"Delta":337018208},{"NoteNumber":90,"Velocity":62,"Duration":712222,"SoundDuration":712222,"Delta":337018208},{"NoteNumber":74,"Velocity":46,"Duration":308823,"SoundDuration":308823,"Delta":337018208},{"NoteNumber":74,"Velocity":39,"Duration":314371,"SoundDuration":314371,"Delta":337371149},{"NoteNumber":79,"Velocity":51,"Duration":712222,"SoundDuration":712222,"Delta":337730430},{"NoteNumber":83,"Velocity":51,"Duration":712222,"SoundDuration":712222,"Delta":337730430},{"NoteNumber":88,"Velocity":58,"Duration":712222,"SoundDuration":712222,"Delta":337730430},{"NoteNumber":74,"Velocity":47,"Duration":308823,"SoundDuration":308823,"Delta":337730430},{"NoteNumber":74,"Velocity":44,"Duration":314371,"SoundDuration":314371,"Delta":338083371},{"NoteNumber":78,"Velocity":55,"Duration":352940,"SoundDuration":352940,"Delta":338442653},{"NoteNumber":86,"Velocity":61,"Duration":352940,"SoundDuration":352940,"Delta":338442653},{"NoteNumber":81,"Velocity":55,"Duration":352940,"SoundDuration":352940,"Delta":338442653},{"NoteNumber":62,"Velocity":47,"Duration":2152048,"SoundDuration":2152048,"Delta":338442653},{"NoteNumber":74,"Velocity":50,"Duration":359281,"SoundDuration":359281,"Delta":338795594},{"NoteNumber":77,"Velocity":50,"Duration":359281,"SoundDuration":359281,"Delta":338795594},{"NoteNumber":83,"Velocity":57,"Duration":359281,"SoundDuration":359281,"Delta":338795594},{"NoteNumber":68,"Velocity":48,"Duration":359281,"SoundDuration":359281,"Delta":338795594},{"NoteNumber":74,"Velocity":57,"Duration":348837,"SoundDuration":348837,"Delta":339154875},{"NoteNumber":78,"Velocity":57,"Duration":348837,"SoundDuration":348837,"Delta":339154875},{"NoteNumber":84,"Velocity":63,"Duration":348837,"SoundDuration":348837,"Delta":339154875},{"NoteNumber":69,"Velocity":50,"Duration":348837,"SoundDuration":348837,"Delta":339154875},{"NoteNumber":74,"Velocity":52,"Duration":365853,"SoundDuration":365853,"Delta":339503712},{"NoteNumber":77,"Velocity":52,"Duration":365853,"SoundDuration":365853,"Delta":339503712},{"NoteNumber":80,"Velocity":59,"Duration":365853,"SoundDuration":365853,"Delta":339503712},{"NoteNumber":71,"Velocity":51,"Duration":365853,"SoundDuration":365853,"Delta":339503712},{"NoteNumber":74,"Velocity":58,"Duration":679403,"SoundDuration":679403,"Delta":339869566},{"NoteNumber":78,"Velocity":58,"Duration":725135,"SoundDuration":725135,"Delta":339869566},{"NoteNumber":81,"Velocity":64,"Duration":725135,"SoundDuration":725135,"Delta":339869566},{"NoteNumber":72,"Velocity":48,"Duration":359281,"SoundDuration":359281,"Delta":339869566},{"NoteNumber":74,"Velocity":42,"Duration":365853,"SoundDuration":365853,"Delta":340228847},{"NoteNumber":74,"Velocity":44,"Duration":320121,"SoundDuration":320121,"Delta":340594701},{"NoteNumber":74,"Velocity":42,"Duration":320121,"SoundDuration":320121,"Delta":340960554},{"NoteNumber":84,"Velocity":57,"Duration":303552,"SoundDuration":303552,"Delta":341326408},{"NoteNumber":79,"Velocity":57,"Duration":303552,"SoundDuration":303552,"Delta":341326408},{"NoteNumber":76,"Velocity":50,"Duration":303552,"SoundDuration":303552,"Delta":341326408},{"NoteNumber":74,"Velocity":44,"Duration":303552,"SoundDuration":303552,"Delta":341326408},{"NoteNumber":74,"Velocity":44,"Duration":305657,"SoundDuration":305657,"Delta":341673565},{"NoteNumber":78,"Velocity":49,"Duration":305657,"SoundDuration":305657,"Delta":341673565},{"NoteNumber":83,"Velocity":49,"Duration":305657,"SoundDuration":305657,"Delta":341673565},{"NoteNumber":62,"Velocity":38,"Duration":305657,"SoundDuration":305657,"Delta":341673565},{"NoteNumber":72,"Velocity":45,"Duration":307791,"SoundDuration":307791,"Delta":342023082},{"NoteNumber":76,"Velocity":45,"Duration":307791,"SoundDuration":307791,"Delta":342023082},{"NoteNumber":81,"Velocity":50,"Duration":307791,"SoundDuration":307791,"Delta":342023082},{"NoteNumber":62,"Velocity":41,"Duration":307791,"SoundDuration":307791,"Delta":342023082},{"NoteNumber":71,"Velocity":45,"Duration":309954,"SoundDuration":309954,"Delta":342374991},{"NoteNumber":74,"Velocity":45,"Duration":309954,"SoundDuration":309954,"Delta":342374991},{"NoteNumber":79,"Velocity":50,"Duration":309954,"SoundDuration":309954,"Delta":342374991},{"NoteNumber":62,"Velocity":38,"Duration":309954,"SoundDuration":309954,"Delta":342374991},{"NoteNumber":69,"Velocity":49,"Duration":708020,"SoundDuration":708020,"Delta":342729324},{"NoteNumber":72,"Velocity":49,"Duration":708020,"SoundDuration":708020,"Delta":342729324},{"NoteNumber":78,"Velocity":56,"Duration":708020,"SoundDuration":708020,"Delta":342729324},{"NoteNumber":62,"Velocity":44,"Duration":307017,"SoundDuration":307017,"Delta":342729324},{"NoteNumber":62,"Velocity":38,"Duration":312500,"SoundDuration":312500,"Delta":343080201},{"NoteNumber":67,"Velocity":46,"Duration":708020,"SoundDuration":708020,"Delta":343437344},{"NoteNumber":71,"Velocity":46,"Duration":708020,"SoundDuration":708020,"Delta":343437344},{"NoteNumber":76,"Velocity":51,"Duration":708020,"SoundDuration":708020,"Delta":343437344},{"NoteNumber":62,"Velocity":44,"Duration":307017,"SoundDuration":307017,"Delta":343437344},{"NoteNumber":62,"Velocity":39,"Duration":312500,"SoundDuration":312500,"Delta":343788221},{"NoteNumber":66,"Velocity":50,"Duration":368097,"SoundDuration":368097,"Delta":344145364},{"NoteNumber":74,"Velocity":57,"Duration":368097,"SoundDuration":368097,"Delta":344145364},{"NoteNumber":69,"Velocity":50,"Duration":368097,"SoundDuration":368097,"Delta":344145364},{"NoteNumber":50,"Velocity":41,"Duration":2277753,"SoundDuration":2277753,"Delta":344145364},{"NoteNumber":62,"Velocity":46,"Duration":379747,"SoundDuration":379747,"Delta":344513462},{"NoteNumber":65,"Velocity":46,"Duration":379747,"SoundDuration":379747,"Delta":344513462},{"NoteNumber":71,"Velocity":51,"Duration":379747,"SoundDuration":379747,"Delta":344513462},{"NoteNumber":56,"Velocity":42,"Duration":379747,"SoundDuration":379747,"Delta":344513462},{"NoteNumber":62,"Velocity":51,"Duration":368097,"SoundDuration":368097,"Delta":344893209},{"NoteNumber":66,"Velocity":51,"Duration":368097,"SoundDuration":368097,"Delta":344893209},{"NoteNumber":72,"Velocity":58,"Duration":368097,"SoundDuration":368097,"Delta":344893209},{"NoteNumber":57,"Velocity":45,"Duration":368097,"SoundDuration":368097,"Delta":344893209},{"NoteNumber":62,"Velocity":49,"Duration":382165,"SoundDuration":382165,"Delta":345261307},{"NoteNumber":65,"Velocity":49,"Duration":382165,"SoundDuration":382165,"Delta":345261307},{"NoteNumber":68,"Velocity":55,"Duration":382165,"SoundDuration":382165,"Delta":345261307},{"NoteNumber":59,"Velocity":46,"Duration":382165,"SoundDuration":382165,"Delta":345261307},{"NoteNumber":62,"Velocity":55,"Duration":779645,"SoundDuration":779645,"Delta":345643472},{"NoteNumber":66,"Velocity":55,"Duration":779645,"SoundDuration":779645,"Delta":345643472},{"NoteNumber":69,"Velocity":61,"Duration":779645,"SoundDuration":779645,"Delta":345643472},{"NoteNumber":60,"Velocity":48,"Duration":389610,"SoundDuration":389610,"Delta":345643472},{"NoteNumber":48,"Velocity":52,"Duration":390034,"SoundDuration":390034,"Delta":346033083},{"NoteNumber":47,"Velocity":56,"Duration":392586,"SoundDuration":392586,"Delta":346423118},{"NoteNumber":45,"Velocity":55,"Duration":430948,"SoundDuration":430948,"Delta":346815705},{"NoteNumber":79,"Velocity":54,"Duration":358218,"SoundDuration":358218,"Delta":347156292},{"NoteNumber":83,"Velocity":59,"Duration":313038,"SoundDuration":313038,"Delta":347201473},{"NoteNumber":86,"Velocity":65,"Duration":267857,"SoundDuration":267857,"Delta":347246653},{"NoteNumber":43,"Velocity":52,"Duration":712209,"SoundDuration":712209,"Delta":347246653},{"NoteNumber":78,"Velocity":49,"Duration":357143,"SoundDuration":357143,"Delta":347514511},{"NoteNumber":83,"Velocity":52,"Duration":312500,"SoundDuration":312500,"Delta":347559153},{"NoteNumber":86,"Velocity":57,"Duration":267857,"SoundDuration":267857,"Delta":347603796},{"NoteNumber":76,"Velocity":52,"Duration":348837,"SoundDuration":348837,"Delta":347871654},{"NoteNumber":83,"Velocity":57,"Duration":305232,"SoundDuration":305232,"Delta":347915258},{"NoteNumber":86,"Velocity":61,"Duration":261627,"SoundDuration":261627,"Delta":347958863},{"NoteNumber":50,"Velocity":43,"Duration":708157,"SoundDuration":708157,"Delta":347958863},{"NoteNumber":78,"Velocity":50,"Duration":355066,"SoundDuration":355066,"Delta":348220491},{"NoteNumber":83,"Velocity":53,"Duration":311461,"SoundDuration":311461,"Delta":348264095},{"NoteNumber":86,"Velocity":57,"Duration":267857,"SoundDuration":267857,"Delta":348307700},{"NoteNumber":76,"Velocity":53,"Duration":731706,"SoundDuration":731706,"Delta":348575557},{"NoteNumber":83,"Velocity":58,"Duration":685975,"SoundDuration":685975,"Delta":348621289},{"NoteNumber":86,"Velocity":64,"Duration":640243,"SoundDuration":640243,"Delta":348667020},{"NoteNumber":55,"Velocity":44,"Duration":731707,"SoundDuration":731707,"Delta":348667020},{"NoteNumber":59,"Velocity":44,"Duration":731707,"SoundDuration":731707,"Delta":348667020},{"NoteNumber":74,"Velocity":50,"Duration":731707,"SoundDuration":731707,"Delta":349307264},{"NoteNumber":83,"Velocity":57,"Duration":685975,"SoundDuration":685975,"Delta":349352996},{"NoteNumber":86,"Velocity":64,"Duration":640243,"SoundDuration":640243,"Delta":349398727},{"NoteNumber":50,"Velocity":39,"Duration":729529,"SoundDuration":729529,"Delta":349398727},{"NoteNumber":78,"Velocity":51,"Duration":357143,"SoundDuration":357143,"Delta":350038971},{"NoteNumber":84,"Velocity":55,"Duration":312500,"SoundDuration":312500,"Delta":350083614},{"NoteNumber":86,"Velocity":59,"Duration":267857,"SoundDuration":267857,"Delta":350128257},{"NoteNumber":45,"Velocity":50,"Duration":695996,"SoundDuration":695996,"Delta":350128257},{"NoteNumber":74,"Velocity":49,"Duration":340682,"SoundDuration":340682,"Delta":350396114},{"NoteNumber":77,"Velocity":51,"Duration":296039,"SoundDuration":296039,"Delta":350440757},{"NoteNumber":83,"Velocity":54,"Duration":251396,"SoundDuration":251396,"Delta":350485400},{"NoteNumber":74,"Velocity":52,"Duration":353728,"SoundDuration":353728,"Delta":350736796},{"NoteNumber":78,"Velocity":55,"Duration":310915,"SoundDuration":310915,"Delta":350779610},{"NoteNumber":84,"Velocity":60,"Duration":266272,"SoundDuration":266272,"Delta":350824253},{"NoteNumber":50,"Velocity":39,"Duration":729461,"SoundDuration":729461,"Delta":350824253},{"NoteNumber":71,"Velocity":43,"Duration":366414,"SoundDuration":366414,"Delta":351090525},{"NoteNumber":74,"Velocity":50,"Duration":320402,"SoundDuration":320402,"Delta":351136538},{"NoteNumber":80,"Velocity":54,"Duration":274390,"SoundDuration":274390,"Delta":351182550},{"NoteNumber":72,"Velocity":50,"Duration":765563,"SoundDuration":765563,"Delta":351456940},{"NoteNumber":74,"Velocity":53,"Duration":717176,"SoundDuration":717176,"Delta":351505327},{"NoteNumber":81,"Velocity":58,"Duration":668789,"SoundDuration":668789,"Delta":351553714},{"NoteNumber":60,"Velocity":42,"Duration":764331,"SoundDuration":764331,"Delta":351553714},{"NoteNumber":54,"Velocity":42,"Duration":764331,"SoundDuration":764331,"Delta":351553714},{"NoteNumber":50,"Velocity":39,"Duration":759151,"SoundDuration":759151,"Delta":352318045},{"NoteNumber":78,"Velocity":54,"Duration":358218,"SoundDuration":358218,"Delta":352986835},{"NoteNumber":84,"Velocity":59,"Duration":313038,"SoundDuration":313038,"Delta":353032016},{"NoteNumber":86,"Velocity":65,"Duration":267857,"SoundDuration":267857,"Delta":353077196},{"NoteNumber":45,"Velocity":50,"Duration":714286,"SoundDuration":714286,"Delta":353077196},{"NoteNumber":76,"Velocity":49,"Duration":357143,"SoundDuration":357143,"Delta":353345054},{"NoteNumber":84,"Velocity":52,"Duration":312500,"SoundDuration":312500,"Delta":353389697},{"NoteNumber":86,"Velocity":57,"Duration":267857,"SoundDuration":267857,"Delta":353434339},{"NoteNumber":74,"Velocity":53,"Duration":350913,"SoundDuration":350913,"Delta":353702197},{"NoteNumber":84,"Velocity":57,"Duration":306270,"SoundDuration":306270,"Delta":353746840},{"NoteNumber":86,"Velocity":60,"Duration":261627,"SoundDuration":261627,"Delta":353791482},{"NoteNumber":50,"Velocity":43,"Duration":708157,"SoundDuration":708157,"Delta":353791482},{"NoteNumber":76,"Velocity":50,"Duration":355066,"SoundDuration":355066,"Delta":354053110},{"NoteNumber":84,"Velocity":53,"Duration":311461,"SoundDuration":311461,"Delta":354096715},{"NoteNumber":86,"Velocity":57,"Duration":267857,"SoundDuration":267857,"Delta":354140319},{"NoteNumber":78,"Velocity":53,"Duration":731706,"SoundDuration":731706,"Delta":354408177},{"NoteNumber":84,"Velocity":58,"Duration":685975,"SoundDuration":685975,"Delta":354453908},{"NoteNumber":86,"Velocity":64,"Duration":640243,"SoundDuration":640243,"Delta":354499640},{"NoteNumber":54,"Velocity":44,"Duration":731707,"SoundDuration":731707,"Delta":354499640},{"NoteNumber":60,"Velocity":44,"Duration":731707,"SoundDuration":731707,"Delta":354499640},{"NoteNumber":74,"Velocity":50,"Duration":731707,"SoundDuration":731707,"Delta":355139884},{"NoteNumber":84,"Velocity":57,"Duration":685975,"SoundDuration":685975,"Delta":355185615},{"NoteNumber":86,"Velocity":64,"Duration":640243,"SoundDuration":640243,"Delta":355231347},{"NoteNumber":50,"Velocity":39,"Duration":728478,"SoundDuration":728478,"Delta":355231347},{"NoteNumber":79,"Velocity":51,"Duration":352940,"SoundDuration":352940,"Delta":355871591},{"NoteNumber":83,"Velocity":55,"Duration":308823,"SoundDuration":308823,"Delta":355915708},{"NoteNumber":86,"Velocity":59,"Duration":264705,"SoundDuration":264705,"Delta":355959826},{"NoteNumber":43,"Velocity":50,"Duration":698178,"SoundDuration":698178,"Delta":355959826},{"NoteNumber":73,"Velocity":50,"Duration":345378,"SoundDuration":345378,"Delta":356224532},{"NoteNumber":79,"Velocity":52,"Duration":301260,"SoundDuration":301260,"Delta":356268649},{"NoteNumber":82,"Velocity":54,"Duration":257142,"SoundDuration":257142,"Delta":356312767},{"NoteNumber":74,"Velocity":52,"Duration":354367,"SoundDuration":354367,"Delta":356569910},{"NoteNumber":79,"Velocity":55,"Duration":310915,"SoundDuration":310915,"Delta":356613362},{"NoteNumber":83,"Velocity":59,"Duration":266272,"SoundDuration":266272,"Delta":356658005},{"NoteNumber":50,"Velocity":39,"Duration":729461,"SoundDuration":729461,"Delta":356658005},{"NoteNumber":70,"Velocity":48,"Duration":366414,"SoundDuration":366414,"Delta":356924277},{"NoteNumber":73,"Velocity":50,"Duration":320402,"SoundDuration":320402,"Delta":356970289},{"NoteNumber":78,"Velocity":54,"Duration":274390,"SoundDuration":274390,"Delta":357016302},{"NoteNumber":71,"Velocity":50,"Duration":744922,"SoundDuration":744922,"Delta":357290692},{"NoteNumber":74,"Velocity":53,"Duration":696535,"SoundDuration":696535,"Delta":357339079},{"NoteNumber":79,"Velocity":55,"Duration":648148,"SoundDuration":648148,"Delta":357387466},{"NoteNumber":59,"Velocity":42,"Duration":740741,"SoundDuration":740741,"Delta":357387466},{"NoteNumber":55,"Velocity":42,"Duration":740741,"SoundDuration":740741,"Delta":357387466},{"NoteNumber":50,"Velocity":35,"Duration":763438,"SoundDuration":763438,"Delta":358128207},{"NoteNumber":79,"Velocity":54,"Duration":358218,"SoundDuration":358218,"Delta":358801284},{"NoteNumber":83,"Velocity":59,"Duration":313038,"SoundDuration":313038,"Delta":358846465},{"NoteNumber":86,"Velocity":65,"Duration":267857,"SoundDuration":267857,"Delta":358891646},{"NoteNumber":43,"Velocity":50,"Duration":714286,"SoundDuration":714286,"Delta":358891646},{"NoteNumber":78,"Velocity":49,"Duration":357143,"SoundDuration":357143,"Delta":359159503},{"NoteNumber":83,"Velocity":52,"Duration":312500,"SoundDuration":312500,"Delta":359204146},{"NoteNumber":86,"Velocity":57,"Duration":267857,"SoundDuration":267857,"Delta":359248789},{"NoteNumber":76,"Velocity":53,"Duration":350913,"SoundDuration":350913,"Delta":359516646},{"NoteNumber":83,"Velocity":57,"Duration":306270,"SoundDuration":306270,"Delta":359561289},{"NoteNumber":86,"Velocity":60,"Duration":261627,"SoundDuration":261627,"Delta":359605932},{"NoteNumber":50,"Velocity":43,"Duration":708157,"SoundDuration":708157,"Delta":359605932},{"NoteNumber":78,"Velocity":50,"Duration":355066,"SoundDuration":355066,"Delta":359867559},{"NoteNumber":83,"Velocity":53,"Duration":311461,"SoundDuration":311461,"Delta":359911164},{"NoteNumber":86,"Velocity":57,"Duration":267857,"SoundDuration":267857,"Delta":359954769},{"NoteNumber":76,"Velocity":53,"Duration":731706,"SoundDuration":731706,"Delta":360222626},{"NoteNumber":83,"Velocity":58,"Duration":685975,"SoundDuration":685975,"Delta":360268357},{"NoteNumber":86,"Velocity":63,"Duration":640243,"SoundDuration":640243,"Delta":360314089},{"NoteNumber":55,"Velocity":44,"Duration":731707,"SoundDuration":731707,"Delta":360314089},{"NoteNumber":59,"Velocity":44,"Duration":731707,"SoundDuration":731707,"Delta":360314089},{"NoteNumber":74,"Velocity":53,"Duration":731707,"SoundDuration":731707,"Delta":360954333},{"NoteNumber":83,"Velocity":55,"Duration":685975,"SoundDuration":685975,"Delta":361000064},{"NoteNumber":86,"Velocity":60,"Duration":640243,"SoundDuration":640243,"Delta":361045796},{"NoteNumber":50,"Velocity":39,"Duration":727962,"SoundDuration":727962,"Delta":361045796},{"NoteNumber":81,"Velocity":55,"Duration":350877,"SoundDuration":350877,"Delta":361686040},{"NoteNumber":86,"Velocity":61,"Duration":307017,"SoundDuration":307017,"Delta":361729899},{"NoteNumber":90,"Velocity":66,"Duration":263157,"SoundDuration":263157,"Delta":361773759},{"NoteNumber":45,"Velocity":50,"Duration":692886,"SoundDuration":692886,"Delta":361773759},{"NoteNumber":78,"Velocity":52,"Duration":341956,"SoundDuration":341956,"Delta":362036917},{"NoteNumber":81,"Velocity":55,"Duration":298096,"SoundDuration":298096,"Delta":362080776},{"NoteNumber":86,"Velocity":58,"Duration":254237,"SoundDuration":254237,"Delta":362124636},{"NoteNumber":69,"Velocity":49,"Duration":354044,"SoundDuration":354044,"Delta":362378873},{"NoteNumber":74,"Velocity":54,"Duration":310915,"SoundDuration":310915,"Delta":362422003},{"NoteNumber":78,"Velocity":58,"Duration":266272,"SoundDuration":266272,"Delta":362466646},{"NoteNumber":50,"Velocity":39,"Duration":726193,"SoundDuration":726193,"Delta":362466646},{"NoteNumber":74,"Velocity":51,"Duration":363147,"SoundDuration":363147,"Delta":362732918},{"NoteNumber":78,"Velocity":55,"Duration":318768,"SoundDuration":318768,"Delta":362777296},{"NoteNumber":83,"Velocity":59,"Duration":274390,"SoundDuration":274390,"Delta":362821675},{"NoteNumber":74,"Velocity":52,"Duration":742118,"SoundDuration":742118,"Delta":363096065},{"NoteNumber":78,"Velocity":57,"Duration":693730,"SoundDuration":693730,"Delta":363144452},{"NoteNumber":81,"Velocity":58,"Duration":645343,"SoundDuration":645343,"Delta":363192840},{"NoteNumber":54,"Velocity":42,"Duration":737368,"SoundDuration":737368,"Delta":363192840},{"NoteNumber":57,"Velocity":38,"Duration":757024,"SoundDuration":757024,"Delta":363930208},{"NoteNumber":75,"Velocity":55,"Duration":352940,"SoundDuration":352940,"Delta":364598997},{"NoteNumber":78,"Velocity":61,"Duration":308823,"SoundDuration":308823,"Delta":364643115},{"NoteNumber":83,"Velocity":66,"Duration":264705,"SoundDuration":264705,"Delta":364687233},{"NoteNumber":59,"Velocity":50,"Duration":696555,"SoundDuration":696555,"Delta":364687233},{"NoteNumber":71,"Velocity":52,"Duration":343917,"SoundDuration":343917,"Delta":364951938},{"NoteNumber":75,"Velocity":55,"Duration":299799,"SoundDuration":299799,"Delta":364996056},{"NoteNumber":78,"Velocity":58,"Duration":255681,"SoundDuration":255681,"Delta":365040174},{"NoteNumber":71,"Velocity":52,"Duration":354205,"SoundDuration":354205,"Delta":365295855},{"NoteNumber":75,"Velocity":57,"Duration":310915,"SoundDuration":310915,"Delta":365339146},{"NoteNumber":77,"Velocity":63,"Duration":266272,"SoundDuration":266272,"Delta":365383788},{"NoteNumber":66,"Velocity":39,"Duration":719896,"SoundDuration":719896,"Delta":365383788},{"NoteNumber":71,"Velocity":51,"Duration":366414,"SoundDuration":366414,"Delta":365650061},{"NoteNumber":75,"Velocity":55,"Duration":320402,"SoundDuration":320402,"Delta":365696073},{"NoteNumber":78,"Velocity":59,"Duration":274390,"SoundDuration":274390,"Delta":365742085},{"NoteNumber":71,"Velocity":55,"Duration":348837,"SoundDuration":348837,"Delta":366016475},{"NoteNumber":76,"Velocity":61,"Duration":305232,"SoundDuration":305232,"Delta":366060080},{"NoteNumber":81,"Velocity":66,"Duration":261627,"SoundDuration":261627,"Delta":366103684},{"NoteNumber":52,"Velocity":44,"Duration":691728,"SoundDuration":691728,"Delta":366103684},{"NoteNumber":71,"Velocity":58,"Duration":342891,"SoundDuration":342891,"Delta":366365312},{"NoteNumber":76,"Velocity":60,"Duration":299286,"SoundDuration":299286,"Delta":366408917},{"NoteNumber":80,"Velocity":64,"Duration":255681,"SoundDuration":255681,"Delta":366452521},{"NoteNumber":71,"Velocity":52,"Duration":353481,"SoundDuration":353481,"Delta":366708203},{"NoteNumber":76,"Velocity":59,"Duration":309876,"SoundDuration":309876,"Delta":366751808},{"NoteNumber":79,"Velocity":63,"Duration":266272,"SoundDuration":266272,"Delta":366795412},{"NoteNumber":59,"Velocity":39,"Duration":721450,"SoundDuration":721450,"Delta":366795412},{"NoteNumber":67,"Velocity":44,"Duration":366414,"SoundDuration":366414,"Delta":367061685},{"NoteNumber":71,"Velocity":52,"Duration":320402,"SoundDuration":320402,"Delta":367107697},{"NoteNumber":76,"Velocity":55,"Duration":274390,"SoundDuration":274390,"Delta":367153709},{"NoteNumber":67,"Velocity":55,"Duration":178049,"SoundDuration":178049,"Delta":367428099},{"NoteNumber":73,"Velocity":61,"Duration":133928,"SoundDuration":133928,"Delta":367472220},{"NoteNumber":78,"Velocity":66,"Duration":89285,"SoundDuration":89285,"Delta":367516863},{"NoteNumber":57,"Velocity":50,"Duration":178571,"SoundDuration":178571,"Delta":367516863},{"NoteNumber":67,"Velocity":52,"Duration":176568,"SoundDuration":176568,"Delta":368141863},{"NoteNumber":73,"Velocity":59,"Duration":133464,"SoundDuration":133464,"Delta":368184966},{"NoteNumber":76,"Velocity":64,"Duration":90361,"SoundDuration":90361,"Delta":368228070},{"NoteNumber":45,"Velocity":39,"Duration":180723,"SoundDuration":180723,"Delta":368228070},{"NoteNumber":66,"Velocity":55,"Duration":338840,"SoundDuration":338840,"Delta":368865569},{"NoteNumber":69,"Velocity":61,"Duration":293902,"SoundDuration":293902,"Delta":368910508},{"NoteNumber":74,"Velocity":66,"Duration":250549,"SoundDuration":250549,"Delta":368953860},{"NoteNumber":50,"Velocity":44,"Duration":336427,"SoundDuration":336427,"Delta":368953860},{"NoteNumber":48,"Velocity":58,"Duration":346994,"SoundDuration":346994,"Delta":369290288},{"NoteNumber":47,"Velocity":57,"Duration":354198,"SoundDuration":354198,"Delta":369637283},{"NoteNumber":45,"Velocity":54,"Duration":308219,"SoundDuration":308219,"Delta":369991481},{"NoteNumber":79,"Velocity":54,"Duration":358218,"SoundDuration":358218,"Delta":370299701},{"NoteNumber":83,"Velocity":59,"Duration":313038,"SoundDuration":313038,"Delta":370344881},{"NoteNumber":86,"Velocity":65,"Duration":267857,"SoundDuration":267857,"Delta":370390062},{"NoteNumber":43,"Velocity":50,"Duration":712209,"SoundDuration":712209,"Delta":370390062},{"NoteNumber":78,"Velocity":49,"Duration":357143,"SoundDuration":357143,"Delta":370657919},{"NoteNumber":83,"Velocity":52,"Duration":312500,"SoundDuration":312500,"Delta":370702562},{"NoteNumber":86,"Velocity":57,"Duration":267857,"SoundDuration":267857,"Delta":370747205},{"NoteNumber":76,"Velocity":54,"Duration":348837,"SoundDuration":348837,"Delta":371015062},{"NoteNumber":83,"Velocity":57,"Duration":305232,"SoundDuration":305232,"Delta":371058667},{"NoteNumber":86,"Velocity":60,"Duration":261627,"SoundDuration":261627,"Delta":371102272},{"NoteNumber":50,"Velocity":43,"Duration":708157,"SoundDuration":708157,"Delta":371102272},{"NoteNumber":78,"Velocity":50,"Duration":355066,"SoundDuration":355066,"Delta":371363899},{"NoteNumber":83,"Velocity":53,"Duration":311461,"SoundDuration":311461,"Delta":371407504},{"NoteNumber":86,"Velocity":57,"Duration":267857,"SoundDuration":267857,"Delta":371451109},{"NoteNumber":76,"Velocity":53,"Duration":731706,"SoundDuration":731706,"Delta":371718966},{"NoteNumber":83,"Velocity":58,"Duration":685975,"SoundDuration":685975,"Delta":371764698},{"NoteNumber":86,"Velocity":64,"Duration":640243,"SoundDuration":640243,"Delta":371810429},{"NoteNumber":55,"Velocity":44,"Duration":731707,"SoundDuration":731707,"Delta":371810429},{"NoteNumber":59,"Velocity":44,"Duration":731707,"SoundDuration":731707,"Delta":371810429},{"NoteNumber":74,"Velocity":50,"Duration":731707,"SoundDuration":731707,"Delta":372450673},{"NoteNumber":83,"Velocity":57,"Duration":685975,"SoundDuration":685975,"Delta":372496405},{"NoteNumber":86,"Velocity":61,"Duration":640243,"SoundDuration":640243,"Delta":372542136},{"NoteNumber":50,"Velocity":39,"Duration":727962,"SoundDuration":727962,"Delta":372542136},{"NoteNumber":78,"Velocity":51,"Duration":350877,"SoundDuration":350877,"Delta":373182380},{"NoteNumber":84,"Velocity":55,"Duration":307017,"SoundDuration":307017,"Delta":373226240},{"NoteNumber":86,"Velocity":59,"Duration":263157,"SoundDuration":263157,"Delta":373270099},{"NoteNumber":45,"Velocity":50,"Duration":689730,"SoundDuration":689730,"Delta":373270099},{"NoteNumber":74,"Velocity":49,"Duration":339115,"SoundDuration":339115,"Delta":373533257},{"NoteNumber":77,"Velocity":51,"Duration":295256,"SoundDuration":295256,"Delta":373577117},{"NoteNumber":83,"Velocity":54,"Duration":251396,"SoundDuration":251396,"Delta":373620976},{"NoteNumber":74,"Velocity":52,"Duration":353728,"SoundDuration":353728,"Delta":373872373},{"NoteNumber":78,"Velocity":55,"Duration":310915,"SoundDuration":310915,"Delta":373915187},{"NoteNumber":84,"Velocity":59,"Duration":266272,"SoundDuration":266272,"Delta":373959830},{"NoteNumber":50,"Velocity":39,"Duration":729461,"SoundDuration":729461,"Delta":373959830},{"NoteNumber":71,"Velocity":46,"Duration":366414,"SoundDuration":366414,"Delta":374226102},{"NoteNumber":74,"Velocity":50,"Duration":320402,"SoundDuration":320402,"Delta":374272114},{"NoteNumber":80,"Velocity":52,"Duration":274390,"SoundDuration":274390,"Delta":374318126},{"NoteNumber":72,"Velocity":50,"Duration":765563,"SoundDuration":765563,"Delta":374592516},{"NoteNumber":74,"Velocity":53,"Duration":717176,"SoundDuration":717176,"Delta":374640903},{"NoteNumber":81,"Velocity":58,"Duration":668789,"SoundDuration":668789,"Delta":374689291},{"NoteNumber":60,"Velocity":42,"Duration":764331,"SoundDuration":764331,"Delta":374689291},{"NoteNumber":54,"Velocity":42,"Duration":764331,"SoundDuration":764331,"Delta":374689291},{"NoteNumber":50,"Velocity":39,"Duration":759151,"SoundDuration":759151,"Delta":375453622},{"NoteNumber":78,"Velocity":54,"Duration":358218,"SoundDuration":358218,"Delta":376122411},{"NoteNumber":84,"Velocity":59,"Duration":313038,"SoundDuration":313038,"Delta":376167592},{"NoteNumber":86,"Velocity":65,"Duration":267857,"SoundDuration":267857,"Delta":376212773},{"NoteNumber":45,"Velocity":50,"Duration":714286,"SoundDuration":714286,"Delta":376212773},{"NoteNumber":76,"Velocity":49,"Duration":357143,"SoundDuration":357143,"Delta":376480630},{"NoteNumber":84,"Velocity":52,"Duration":312500,"SoundDuration":312500,"Delta":376525273},{"NoteNumber":86,"Velocity":57,"Duration":267857,"SoundDuration":267857,"Delta":376569916},{"NoteNumber":74,"Velocity":53,"Duration":350913,"SoundDuration":350913,"Delta":376837773},{"NoteNumber":84,"Velocity":55,"Duration":306270,"SoundDuration":306270,"Delta":376882416},{"NoteNumber":86,"Velocity":59,"Duration":261627,"SoundDuration":261627,"Delta":376927059},{"NoteNumber":50,"Velocity":43,"Duration":708157,"SoundDuration":708157,"Delta":376927059},{"NoteNumber":76,"Velocity":50,"Duration":355066,"SoundDuration":355066,"Delta":377188686},{"NoteNumber":84,"Velocity":53,"Duration":311461,"SoundDuration":311461,"Delta":377232291},{"NoteNumber":86,"Velocity":57,"Duration":267857,"SoundDuration":267857,"Delta":377275896},{"NoteNumber":78,"Velocity":53,"Duration":731706,"SoundDuration":731706,"Delta":377543753},{"NoteNumber":84,"Velocity":58,"Duration":685975,"SoundDuration":685975,"Delta":377589485},{"NoteNumber":86,"Velocity":64,"Duration":640243,"SoundDuration":640243,"Delta":377635216},{"NoteNumber":54,"Velocity":44,"Duration":731707,"SoundDuration":731707,"Delta":377635216},{"NoteNumber":60,"Velocity":44,"Duration":731707,"SoundDuration":731707,"Delta":377635216},{"NoteNumber":74,"Velocity":50,"Duration":731707,"SoundDuration":731707,"Delta":378275460},{"NoteNumber":84,"Velocity":57,"Duration":685975,"SoundDuration":685975,"Delta":378321192},{"NoteNumber":86,"Velocity":64,"Duration":640243,"SoundDuration":640243,"Delta":378366923},{"NoteNumber":50,"Velocity":39,"Duration":728478,"SoundDuration":728478,"Delta":378366923},{"NoteNumber":79,"Velocity":51,"Duration":352940,"SoundDuration":352940,"Delta":379007167},{"NoteNumber":83,"Velocity":55,"Duration":308823,"SoundDuration":308823,"Delta":379051285},{"NoteNumber":86,"Velocity":59,"Duration":264705,"SoundDuration":264705,"Delta":379095402},{"NoteNumber":43,"Velocity":50,"Duration":695657,"SoundDuration":695657,"Delta":379095402},{"NoteNumber":73,"Velocity":50,"Duration":342856,"SoundDuration":342856,"Delta":379360108},{"NoteNumber":79,"Velocity":52,"Duration":299999,"SoundDuration":299999,"Delta":379402965},{"NoteNumber":82,"Velocity":54,"Duration":257142,"SoundDuration":257142,"Delta":379445822},{"NoteNumber":74,"Velocity":52,"Duration":354367,"SoundDuration":354367,"Delta":379702965},{"NoteNumber":79,"Velocity":55,"Duration":310915,"SoundDuration":310915,"Delta":379746417},{"NoteNumber":83,"Velocity":59,"Duration":266272,"SoundDuration":266272,"Delta":379791060},{"NoteNumber":50,"Velocity":39,"Duration":726193,"SoundDuration":726193,"Delta":379791060},{"NoteNumber":70,"Velocity":43,"Duration":363147,"SoundDuration":363147,"Delta":380057332},{"NoteNumber":73,"Velocity":48,"Duration":318768,"SoundDuration":318768,"Delta":380101711},{"NoteNumber":78,"Velocity":53,"Duration":274390,"SoundDuration":274390,"Delta":380146090},{"NoteNumber":71,"Velocity":47,"Duration":744922,"SoundDuration":744922,"Delta":380420480},{"NoteNumber":74,"Velocity":53,"Duration":696535,"SoundDuration":696535,"Delta":380468867},{"NoteNumber":79,"Velocity":54,"Duration":648148,"SoundDuration":648148,"Delta":380517254},{"NoteNumber":59,"Velocity":42,"Duration":740741,"SoundDuration":740741,"Delta":380517254},{"NoteNumber":55,"Velocity":42,"Duration":740741,"SoundDuration":740741,"Delta":380517254},{"NoteNumber":50,"Velocity":35,"Duration":763438,"SoundDuration":763438,"Delta":381257995},{"NoteNumber":79,"Velocity":54,"Duration":358218,"SoundDuration":358218,"Delta":381931072},{"NoteNumber":83,"Velocity":59,"Duration":313038,"SoundDuration":313038,"Delta":381976253},{"NoteNumber":86,"Velocity":65,"Duration":267857,"SoundDuration":267857,"Delta":382021434},{"NoteNumber":43,"Velocity":50,"Duration":714286,"SoundDuration":714286,"Delta":382021434},{"NoteNumber":78,"Velocity":49,"Duration":357143,"SoundDuration":357143,"Delta":382289291},{"NoteNumber":83,"Velocity":52,"Duration":312500,"SoundDuration":312500,"Delta":382333934},{"NoteNumber":86,"Velocity":57,"Duration":267857,"SoundDuration":267857,"Delta":382378577},{"NoteNumber":76,"Velocity":52,"Duration":350913,"SoundDuration":350913,"Delta":382646434},{"NoteNumber":83,"Velocity":57,"Duration":306270,"SoundDuration":306270,"Delta":382691077},{"NoteNumber":86,"Velocity":59,"Duration":261627,"SoundDuration":261627,"Delta":382735720},{"NoteNumber":50,"Velocity":43,"Duration":708157,"SoundDuration":708157,"Delta":382735720},{"NoteNumber":78,"Velocity":50,"Duration":355066,"SoundDuration":355066,"Delta":382997347},{"NoteNumber":83,"Velocity":53,"Duration":311461,"SoundDuration":311461,"Delta":383040952},{"NoteNumber":86,"Velocity":57,"Duration":267857,"SoundDuration":267857,"Delta":383084557},{"NoteNumber":76,"Velocity":53,"Duration":731706,"SoundDuration":731706,"Delta":383352414},{"NoteNumber":83,"Velocity":58,"Duration":685975,"SoundDuration":685975,"Delta":383398146},{"NoteNumber":86,"Velocity":64,"Duration":640243,"SoundDuration":640243,"Delta":383443877},{"NoteNumber":55,"Velocity":44,"Duration":731707,"SoundDuration":731707,"Delta":383443877},{"NoteNumber":59,"Velocity":44,"Duration":731707,"SoundDuration":731707,"Delta":383443877},{"NoteNumber":74,"Velocity":49,"Duration":731707,"SoundDuration":731707,"Delta":384084121},{"NoteNumber":83,"Velocity":55,"Duration":685975,"SoundDuration":685975,"Delta":384129853},{"NoteNumber":86,"Velocity":59,"Duration":640243,"SoundDuration":640243,"Delta":384175584},{"NoteNumber":50,"Velocity":39,"Duration":727962,"SoundDuration":727962,"Delta":384175584},{"NoteNumber":79,"Velocity":55,"Duration":350877,"SoundDuration":350877,"Delta":384815828},{"NoteNumber":84,"Velocity":61,"Duration":307017,"SoundDuration":307017,"Delta":384859688},{"NoteNumber":88,"Velocity":66,"Duration":263157,"SoundDuration":263157,"Delta":384903547},{"NoteNumber":48,"Velocity":50,"Duration":687955,"SoundDuration":687955,"Delta":384903547},{"NoteNumber":78,"Velocity":52,"Duration":340528,"SoundDuration":340528,"Delta":385166705},{"NoteNumber":84,"Velocity":55,"Duration":296668,"SoundDuration":296668,"Delta":385210565},{"NoteNumber":87,"Velocity":58,"Duration":252808,"SoundDuration":252808,"Delta":385254424},{"NoteNumber":79,"Velocity":52,"Duration":353730,"SoundDuration":353730,"Delta":385507233},{"NoteNumber":88,"Velocity":59,"Duration":311595,"SoundDuration":311595,"Delta":385549368},{"NoteNumber":84,"Velocity":64,"Duration":269461,"SoundDuration":269461,"Delta":385591503},{"NoteNumber":55,"Velocity":39,"Duration":732650,"SoundDuration":732650,"Delta":385591503},{"NoteNumber":75,"Velocity":50,"Duration":366414,"SoundDuration":366414,"Delta":385860964},{"NoteNumber":78,"Velocity":55,"Duration":320402,"SoundDuration":320402,"Delta":385906976},{"NoteNumber":83,"Velocity":59,"Duration":274390,"SoundDuration":274390,"Delta":385952988},{"NoteNumber":76,"Velocity":52,"Duration":742118,"SoundDuration":742118,"Delta":386227378},{"NoteNumber":79,"Velocity":57,"Duration":693730,"SoundDuration":693730,"Delta":386275766},{"NoteNumber":84,"Velocity":58,"Duration":645343,"SoundDuration":645343,"Delta":386324153},{"NoteNumber":60,"Velocity":42,"Duration":737368,"SoundDuration":737368,"Delta":386324153},{"NoteNumber":55,"Velocity":38,"Duration":755998,"SoundDuration":755998,"Delta":387061521},{"NoteNumber":79,"Velocity":55,"Duration":348837,"SoundDuration":348837,"Delta":387730311},{"NoteNumber":83,"Velocity":61,"Duration":305232,"SoundDuration":305232,"Delta":387773915},{"NoteNumber":86,"Velocity":66,"Duration":261627,"SoundDuration":261627,"Delta":387817520},{"NoteNumber":62,"Velocity":50,"Duration":1360213,"SoundDuration":1360213,"Delta":387817520},{"NoteNumber":74,"Velocity":52,"Duration":346820,"SoundDuration":346820,"Delta":388079148},{"NoteNumber":79,"Velocity":55,"Duration":303468,"SoundDuration":303468,"Delta":388122500},{"NoteNumber":83,"Velocity":58,"Duration":260115,"SoundDuration":260115,"Delta":388165853},{"NoteNumber":72,"Velocity":51,"Duration":340942,"SoundDuration":340942,"Delta":388425969},{"NoteNumber":76,"Velocity":57,"Duration":297589,"SoundDuration":297589,"Delta":388469321},{"NoteNumber":81,"Velocity":60,"Duration":254237,"SoundDuration":254237,"Delta":388512674},{"NoteNumber":71,"Velocity":52,"Duration":338982,"SoundDuration":338982,"Delta":388766911},{"NoteNumber":74,"Velocity":55,"Duration":296610,"SoundDuration":296610,"Delta":388809284},{"NoteNumber":79,"Velocity":59,"Duration":254237,"SoundDuration":254237,"Delta":388851657},{"NoteNumber":70,"Velocity":54,"Duration":344827,"SoundDuration":344827,"Delta":389105894},{"NoteNumber":73,"Velocity":57,"Duration":301724,"SoundDuration":301724,"Delta":389148998},{"NoteNumber":78,"Velocity":59,"Duration":258620,"SoundDuration":258620,"Delta":389192101},{"NoteNumber":62,"Velocity":44,"Duration":1415317,"SoundDuration":1415317,"Delta":389192101},{"NoteNumber":69,"Velocity":48,"Duration":346820,"SoundDuration":346820,"Delta":389450722},{"NoteNumber":72,"Velocity":50,"Duration":303468,"SoundDuration":303468,"Delta":389494074},{"NoteNumber":77,"Velocity":52,"Duration":260115,"SoundDuration":260115,"Delta":389537427},{"NoteNumber":68,"Velocity":50,"Duration":354697,"SoundDuration":354697,"Delta":389797543},{"NoteNumber":71,"Velocity":51,"Duration":310915,"SoundDuration":310915,"Delta":389841325},{"NoteNumber":76,"Velocity":54,"Duration":266272,"SoundDuration":266272,"Delta":389885968},{"NoteNumber":67,"Velocity":48,"Duration":366414,"SoundDuration":366414,"Delta":390152240},{"NoteNumber":70,"Velocity":52,"Duration":320402,"SoundDuration":320402,"Delta":390198253},{"NoteNumber":75,"Velocity":55,"Duration":274390,"SoundDuration":274390,"Delta":390244265},{"NoteNumber":66,"Velocity":49,"Duration":429672,"SoundDuration":429672,"Delta":390518655},{"NoteNumber":72,"Velocity":54,"Duration":385551,"SoundDuration":385551,"Delta":390562776},{"NoteNumber":74,"Velocity":57,"Duration":340909,"SoundDuration":340909,"Delta":390607419},{"NoteNumber":62,"Velocity":46,"Duration":340909,"SoundDuration":340909,"Delta":390607419},{"NoteNumber":81,"Velocity":85,"Duration":681818,"SoundDuration":681818,"Delta":391289237},{"NoteNumber":74,"Velocity":75,"Duration":681818,"SoundDuration":681818,"Delta":391289237},{"NoteNumber":72,"Velocity":75,"Duration":681818,"SoundDuration":681818,"Delta":391289237},{"NoteNumber":66,"Velocity":51,"Duration":681818,"SoundDuration":681818,"Delta":391289237},{"NoteNumber":62,"Velocity":45,"Duration":681818,"SoundDuration":681818,"Delta":391289237},{"NoteNumber":71,"Velocity":69,"Duration":346820,"SoundDuration":346820,"Delta":391971055},{"NoteNumber":74,"Velocity":69,"Duration":346820,"SoundDuration":346820,"Delta":391971055},{"NoteNumber":79,"Velocity":78,"Duration":346820,"SoundDuration":346820,"Delta":391971055},{"NoteNumber":55,"Velocity":42,"Duration":346820,"SoundDuration":346820,"Delta":391971055},{"NoteNumber":62,"Velocity":42,"Duration":346820,"SoundDuration":346820,"Delta":391971055},{"NoteNumber":67,"Velocity":48,"Duration":346820,"SoundDuration":346820,"Delta":391971055},{"NoteNumber":91,"Velocity":90,"Duration":365853,"SoundDuration":365853,"Delta":392664697},{"NoteNumber":83,"Velocity":80,"Duration":365853,"SoundDuration":365853,"Delta":392664697},{"NoteNumber":79,"Velocity":80,"Duration":365853,"SoundDuration":365853,"Delta":392664697},{"NoteNumber":67,"Velocity":52,"Duration":365853,"SoundDuration":365853,"Delta":392664697},{"NoteNumber":74,"Velocity":58,"Duration":365853,"SoundDuration":365853,"Delta":392664697},{"NoteNumber":62,"Velocity":79,"Duration":1541917,"SoundDuration":1541917,"Delta":393396404},{"NoteNumber":66,"Velocity":79,"Duration":1541917,"SoundDuration":1541917,"Delta":393396404},{"NoteNumber":69,"Velocity":79,"Duration":1541917,"SoundDuration":1541917,"Delta":393396404},{"NoteNumber":74,"Velocity":86,"Duration":947610,"SoundDuration":947610,"Delta":393396404},{"NoteNumber":38,"Velocity":66,"Duration":1541917,"SoundDuration":1541917,"Delta":393396404},{"NoteNumber":42,"Velocity":63,"Duration":378548,"SoundDuration":378548,"Delta":393774953},{"NoteNumber":86,"Velocity":78,"Duration":94757,"SoundDuration":94757,"Delta":394153502},{"NoteNumber":45,"Velocity":63,"Duration":380989,"SoundDuration":380989,"Delta":394153502},{"NoteNumber":81,"Velocity":75,"Duration":95755,"SoundDuration":95755,"Delta":394248259},{"NoteNumber":78,"Velocity":72,"Duration":95645,"SoundDuration":95645,"Delta":394344014},{"NoteNumber":74,"Velocity":70,"Duration":94831,"SoundDuration":94831,"Delta":394439659},{"NoteNumber":74,"Velocity":68,"Duration":96976,"SoundDuration":96976,"Delta":394534491},{"NoteNumber":50,"Velocity":63,"Duration":403830,"SoundDuration":403830,"Delta":394534491},{"NoteNumber":78,"Velocity":69,"Duration":99643,"SoundDuration":99643,"Delta":394631468},{"NoteNumber":81,"Velocity":73,"Duration":102237,"SoundDuration":102237,"Delta":394731111},{"NoteNumber":86,"Velocity":77,"Duration":104972,"SoundDuration":104972,"Delta":394833349},{"NoteNumber":61,"Velocity":82,"Duration":1524550,"SoundDuration":1524550,"Delta":394938322},{"NoteNumber":64,"Velocity":82,"Duration":1524550,"SoundDuration":1524550,"Delta":394938322},{"NoteNumber":69,"Velocity":82,"Duration":1524550,"SoundDuration":1524550,"Delta":394938322},{"NoteNumber":73,"Velocity":90,"Duration":946771,"SoundDuration":946771,"Delta":394938322},{"NoteNumber":45,"Velocity":66,"Duration":1524550,"SoundDuration":1524550,"Delta":394938322},{"NoteNumber":49,"Velocity":66,"Duration":378548,"SoundDuration":378548,"Delta":395316871},{"NoteNumber":85,"Velocity":75,"Duration":94868,"SoundDuration":94868,"Delta":395695419},{"NoteNumber":52,"Velocity":63,"Duration":379110,"SoundDuration":379110,"Delta":395695419},{"NoteNumber":81,"Velocity":73,"Duration":94805,"SoundDuration":94805,"Delta":395790288},{"NoteNumber":76,"Velocity":71,"Duration":94639,"SoundDuration":94639,"Delta":395885093},{"NoteNumber":73,"Velocity":69,"Duration":94796,"SoundDuration":94796,"Delta":395979733},{"NoteNumber":73,"Velocity":68,"Duration":93711,"SoundDuration":93711,"Delta":396074530},{"NoteNumber":57,"Velocity":63,"Duration":388342,"SoundDuration":388342,"Delta":396074530},{"NoteNumber":76,"Velocity":70,"Duration":96378,"SoundDuration":96378,"Delta":396168241},{"NoteNumber":81,"Velocity":72,"Duration":98187,"SoundDuration":98187,"Delta":396264620},{"NoteNumber":85,"Velocity":74,"Duration":100064,"SoundDuration":100064,"Delta":396362807},{"NoteNumber":59,"Velocity":79,"Duration":1532131,"SoundDuration":1532131,"Delta":396462872},{"NoteNumber":64,"Velocity":79,"Duration":1532131,"SoundDuration":1532131,"Delta":396462872},{"NoteNumber":68,"Velocity":79,"Duration":1532131,"SoundDuration":1532131,"Delta":396462872},{"NoteNumber":71,"Velocity":86,"Duration":947806,"SoundDuration":947806,"Delta":396462872},{"NoteNumber":40,"Velocity":62,"Duration":1532131,"SoundDuration":1532131,"Delta":396462872},{"NoteNumber":44,"Velocity":59,"Duration":378548,"SoundDuration":378548,"Delta":396841421},{"NoteNumber":83,"Velocity":73,"Duration":95523,"SoundDuration":95523,"Delta":397219970},{"NoteNumber":47,"Velocity":60,"Duration":381442,"SoundDuration":381442,"Delta":397219970},{"NoteNumber":80,"Velocity":72,"Duration":95185,"SoundDuration":95185,"Delta":397315494},{"NoteNumber":76,"Velocity":71,"Duration":95368,"SoundDuration":95368,"Delta":397410679},{"NoteNumber":71,"Velocity":70,"Duration":95365,"SoundDuration":95365,"Delta":397506047},{"NoteNumber":71,"Velocity":68,"Duration":95226,"SoundDuration":95226,"Delta":397601413},{"NoteNumber":52,"Velocity":60,"Duration":393591,"SoundDuration":393591,"Delta":397601413},{"NoteNumber":76,"Velocity":71,"Duration":97578,"SoundDuration":97578,"Delta":397696639},{"NoteNumber":80,"Velocity":73,"Duration":99432,"SoundDuration":99432,"Delta":397794217},{"NoteNumber":83,"Velocity":77,"Duration":101354,"SoundDuration":101354,"Delta":397893650},{"NoteNumber":61,"Velocity":82,"Duration":1530956,"SoundDuration":1530956,"Delta":397995004},{"NoteNumber":64,"Velocity":82,"Duration":1530956,"SoundDuration":1530956,"Delta":397995004},{"NoteNumber":69,"Velocity":82,"Duration":1530956,"SoundDuration":1530956,"Delta":397995004},{"NoteNumber":73,"Velocity":90,"Duration":946436,"SoundDuration":946436,"Delta":397995004},{"NoteNumber":45,"Velocity":66,"Duration":1530956,"SoundDuration":1530956,"Delta":397995004},{"NoteNumber":49,"Velocity":61,"Duration":378548,"SoundDuration":378548,"Delta":398373553},{"NoteNumber":85,"Velocity":75,"Duration":94077,"SoundDuration":94077,"Delta":398752102},{"NoteNumber":52,"Velocity":61,"Duration":378185,"SoundDuration":378185,"Delta":398752102},{"NoteNumber":81,"Velocity":73,"Duration":95261,"SoundDuration":95261,"Delta":398846180},{"NoteNumber":76,"Velocity":71,"Duration":93672,"SoundDuration":93672,"Delta":398941441},{"NoteNumber":73,"Velocity":70,"Duration":95174,"SoundDuration":95174,"Delta":399035113},{"NoteNumber":73,"Velocity":68,"Duration":95791,"SoundDuration":95791,"Delta":399130288},{"NoteNumber":57,"Velocity":61,"Duration":395672,"SoundDuration":395672,"Delta":399130288},{"NoteNumber":76,"Velocity":68,"Duration":97578,"SoundDuration":97578,"Delta":399226080},{"NoteNumber":81,"Velocity":71,"Duration":100064,"SoundDuration":100064,"Delta":399323658},{"NoteNumber":85,"Velocity":74,"Duration":102237,"SoundDuration":102237,"Delta":399423723},{"NoteNumber":57,"Velocity":78,"Duration":1528642,"SoundDuration":1528642,"Delta":399525961},{"NoteNumber":62,"Velocity":78,"Duration":1528642,"SoundDuration":1528642,"Delta":399525961},{"NoteNumber":66,"Velocity":78,"Duration":1528642,"SoundDuration":1528642,"Delta":399525961},{"NoteNumber":69,"Velocity":85,"Duration":947731,"SoundDuration":947731,"Delta":399525961},{"NoteNumber":38,"Velocity":62,"Duration":1528642,"SoundDuration":1528642,"Delta":399525961},{"NoteNumber":42,"Velocity":58,"Duration":378548,"SoundDuration":378548,"Delta":399904510},{"NoteNumber":81,"Velocity":71,"Duration":94605,"SoundDuration":94605,"Delta":400283059},{"NoteNumber":45,"Velocity":58,"Duration":381121,"SoundDuration":381121,"Delta":400283059},{"NoteNumber":78,"Velocity":69,"Duration":96027,"SoundDuration":96027,"Delta":400377664},{"NoteNumber":74,"Velocity":68,"Duration":94758,"SoundDuration":94758,"Delta":400473692},{"NoteNumber":69,"Velocity":66,"Duration":95730,"SoundDuration":95730,"Delta":400568450},{"NoteNumber":69,"Velocity":63,"Duration":95404,"SoundDuration":95404,"Delta":400664180},{"NoteNumber":50,"Velocity":58,"Duration":390422,"SoundDuration":390422,"Delta":400664180},{"NoteNumber":74,"Velocity":67,"Duration":96976,"SoundDuration":96976,"Delta":400759585},{"NoteNumber":78,"Velocity":70,"Duration":98187,"SoundDuration":98187,"Delta":400856561},{"NoteNumber":81,"Velocity":73,"Duration":99854,"SoundDuration":99854,"Delta":400954749},{"NoteNumber":59,"Velocity":82,"Duration":1525667,"SoundDuration":1525667,"Delta":401054603},{"NoteNumber":62,"Velocity":82,"Duration":1525667,"SoundDuration":1525667,"Delta":401054603},{"NoteNumber":67,"Velocity":82,"Duration":1525667,"SoundDuration":1525667,"Delta":401054603},{"NoteNumber":71,"Velocity":90,"Duration":947186,"SoundDuration":947186,"Delta":401054603},{"NoteNumber":43,"Velocity":66,"Duration":1525667,"SoundDuration":1525667,"Delta":401054603},{"NoteNumber":47,"Velocity":62,"Duration":378548,"SoundDuration":378548,"Delta":401433152},{"NoteNumber":83,"Velocity":75,"Duration":94602,"SoundDuration":94602,"Delta":401811701},{"NoteNumber":50,"Velocity":62,"Duration":379108,"SoundDuration":379108,"Delta":401811701},{"NoteNumber":79,"Velocity":74,"Duration":95485,"SoundDuration":95485,"Delta":401906304},{"NoteNumber":74,"Velocity":73,"Duration":94571,"SoundDuration":94571,"Delta":402001789},{"NoteNumber":71,"Velocity":71,"Duration":94449,"SoundDuration":94449,"Delta":402096360},{"NoteNumber":71,"Velocity":70,"Duration":94829,"SoundDuration":94829,"Delta":402190810},{"NoteNumber":55,"Velocity":62,"Duration":389460,"SoundDuration":389460,"Delta":402190810},{"NoteNumber":74,"Velocity":70,"Duration":96378,"SoundDuration":96378,"Delta":402285639},{"NoteNumber":79,"Velocity":73,"Duration":98187,"SoundDuration":98187,"Delta":402382018},{"NoteNumber":83,"Velocity":78,"Duration":100064,"SoundDuration":100064,"Delta":402480205},{"NoteNumber":61,"Velocity":84,"Duration":1546743,"SoundDuration":1546743,"Delta":402580270},{"NoteNumber":64,"Velocity":84,"Duration":1546743,"SoundDuration":1546743,"Delta":402580270},{"NoteNumber":67,"Velocity":84,"Duration":1546743,"SoundDuration":1546743,"Delta":402580270},{"NoteNumber":73,"Velocity":92,"Duration":948577,"SoundDuration":948577,"Delta":402580270},{"NoteNumber":45,"Velocity":70,"Duration":1546743,"SoundDuration":1546743,"Delta":402580270},{"NoteNumber":52,"Velocity":62,"Duration":378548,"SoundDuration":378548,"Delta":402958819},{"NoteNumber":85,"Velocity":78,"Duration":95990,"SoundDuration":95990,"Delta":403337368},{"NoteNumber":55,"Velocity":62,"Duration":383402,"SoundDuration":383402,"Delta":403337368},{"NoteNumber":81,"Velocity":77,"Duration":95488,"SoundDuration":95488,"Delta":403433359},{"NoteNumber":79,"Velocity":75,"Duration":97018,"SoundDuration":97018,"Delta":403528847},{"NoteNumber":73,"Velocity":74,"Duration":94905,"SoundDuration":94905,"Delta":403625866},{"NoteNumber":73,"Velocity":74,"Duration":96580,"SoundDuration":96580,"Delta":403720771},{"NoteNumber":57,"Velocity":62,"Duration":406242,"SoundDuration":406242,"Delta":403720771},{"NoteNumber":79,"Velocity":74,"Duration":99643,"SoundDuration":99643,"Delta":403817352},{"NoteNumber":81,"Velocity":79,"Duration":103132,"SoundDuration":103132,"Delta":403916995},{"NoteNumber":85,"Velocity":83,"Duration":106886,"SoundDuration":106886,"Delta":404020128},{"NoteNumber":62,"Velocity":89,"Duration":189274,"SoundDuration":189274,"Delta":404127014},{"NoteNumber":66,"Velocity":89,"Duration":567823,"SoundDuration":567823,"Delta":404127014},{"NoteNumber":69,"Velocity":89,"Duration":757097,"SoundDuration":757097,"Delta":404127014},{"NoteNumber":74,"Velocity":97,"Duration":883881,"SoundDuration":883881,"Delta":404127014},{"NoteNumber":38,"Velocity":73,"Duration":757097,"SoundDuration":757097,"Delta":404127014},{"NoteNumber":50,"Velocity":73,"Duration":757097,"SoundDuration":757097,"Delta":404127014},{"NoteNumber":62,"Velocity":71,"Duration":189274,"SoundDuration":189274,"Delta":404316289},{"NoteNumber":66,"Velocity":71,"Duration":1159732,"SoundDuration":1159732,"Delta":404505563},{"NoteNumber":69,"Velocity":71,"Duration":316058,"SoundDuration":316058,"Delta":404694838},{"NoteNumber":74,"Velocity":74,"Duration":384236,"SoundDuration":384236,"Delta":404884112},{"NoteNumber":69,"Velocity":57,"Duration":254784,"SoundDuration":254784,"Delta":404884112},{"NoteNumber":78,"Velocity":68,"Duration":128001,"SoundDuration":128001,"Delta":405010896},{"NoteNumber":69,"Velocity":59,"Duration":654399,"SoundDuration":654399,"Delta":405010896},{"NoteNumber":81,"Velocity":70,"Duration":129451,"SoundDuration":129451,"Delta":405138897},{"NoteNumber":74,"Velocity":60,"Duration":526398,"SoundDuration":526398,"Delta":405138897},{"NoteNumber":86,"Velocity":72,"Duration":130934,"SoundDuration":130934,"Delta":405268348},{"NoteNumber":78,"Velocity":61,"Duration":130934,"SoundDuration":130934,"Delta":405268348},{"NoteNumber":90,"Velocity":75,"Duration":132232,"SoundDuration":132232,"Delta":405399282},{"NoteNumber":81,"Velocity":63,"Duration":132232,"SoundDuration":132232,"Delta":405399282},{"NoteNumber":93,"Velocity":78,"Duration":133780,"SoundDuration":133780,"Delta":405531515},{"NoteNumber":86,"Velocity":64,"Duration":133780,"SoundDuration":133780,"Delta":405531515},{"NoteNumber":98,"Velocity":81,"Duration":1507351,"SoundDuration":1507351,"Delta":405665295},{"NoteNumber":90,"Velocity":81,"Duration":1507351,"SoundDuration":1507351,"Delta":405665295},{"NoteNumber":86,"Velocity":81,"Duration":1507351,"SoundDuration":1507351,"Delta":405665295},{"NoteNumber":81,"Velocity":66,"Duration":1507351,"SoundDuration":1507351,"Delta":405665295},{"NoteNumber":74,"Velocity":66,"Duration":1507351,"SoundDuration":1507351,"Delta":405665295},{"NoteNumber":62,"Velocity":79,"Duration":1541917,"SoundDuration":1541917,"Delta":407677909},{"NoteNumber":66,"Velocity":79,"Duration":1541917,"SoundDuration":1541917,"Delta":407677909},{"NoteNumber":69,"Velocity":79,"Duration":1541917,"SoundDuration":1541917,"Delta":407677909},{"NoteNumber":74,"Velocity":86,"Duration":1334707,"SoundDuration":1334707,"Delta":407677909},{"NoteNumber":38,"Velocity":66,"Duration":1541917,"SoundDuration":1541917,"Delta":407677909},{"NoteNumber":42,"Velocity":63,"Duration":378548,"SoundDuration":378548,"Delta":408056458},{"NoteNumber":98,"Velocity":75,"Duration":94757,"SoundDuration":94757,"Delta":408435007},{"NoteNumber":45,"Velocity":63,"Duration":380989,"SoundDuration":380989,"Delta":408435007},{"NoteNumber":93,"Velocity":74,"Duration":95755,"SoundDuration":95755,"Delta":408529765},{"NoteNumber":90,"Velocity":73,"Duration":95645,"SoundDuration":95645,"Delta":408625520},{"NoteNumber":86,"Velocity":73,"Duration":94831,"SoundDuration":94831,"Delta":408721165},{"NoteNumber":86,"Velocity":72,"Duration":96976,"SoundDuration":96976,"Delta":408815997},{"NoteNumber":50,"Velocity":63,"Duration":403830,"SoundDuration":403830,"Delta":408815997},{"NoteNumber":81,"Velocity":71,"Duration":99643,"SoundDuration":99643,"Delta":408912974},{"NoteNumber":78,"Velocity":70,"Duration":102237,"SoundDuration":102237,"Delta":409012617},{"NoteNumber":74,"Velocity":72,"Duration":104972,"SoundDuration":104972,"Delta":409114855},{"NoteNumber":63,"Velocity":79,"Duration":1541917,"SoundDuration":1541917,"Delta":409219827},{"NoteNumber":67,"Velocity":79,"Duration":1541917,"SoundDuration":1541917,"Delta":409219827},{"NoteNumber":72,"Velocity":79,"Duration":1541917,"SoundDuration":1541917,"Delta":409219827},{"NoteNumber":75,"Velocity":86,"Duration":1334707,"SoundDuration":1334707,"Delta":409219827},{"NoteNumber":36,"Velocity":66,"Duration":1541917,"SoundDuration":1541917,"Delta":409219827},{"NoteNumber":39,"Velocity":63,"Duration":378548,"SoundDuration":378548,"Delta":409598376},{"NoteNumber":99,"Velocity":72,"Duration":94757,"SoundDuration":94757,"Delta":409976925},{"NoteNumber":43,"Velocity":63,"Duration":380989,"SoundDuration":380989,"Delta":409976925},{"NoteNumber":96,"Velocity":72,"Duration":95755,"SoundDuration":95755,"Delta":410071683},{"NoteNumber":91,"Velocity":71,"Duration":95645,"SoundDuration":95645,"Delta":410167438},{"NoteNumber":87,"Velocity":70,"Duration":94831,"SoundDuration":94831,"Delta":410263083},{"NoteNumber":87,"Velocity":70,"Duration":96976,"SoundDuration":96976,"Delta":410357915},{"NoteNumber":48,"Velocity":63,"Duration":403830,"SoundDuration":403830,"Delta":410357915},{"NoteNumber":84,"Velocity":69,"Duration":99643,"SoundDuration":99643,"Delta":410454892},{"NoteNumber":79,"Velocity":68,"Duration":102237,"SoundDuration":102237,"Delta":410554535},{"NoteNumber":75,"Velocity":68,"Duration":104972,"SoundDuration":104972,"Delta":410656773},{"NoteNumber":58,"Velocity":79,"Duration":1541917,"SoundDuration":1541917,"Delta":410761745},{"NoteNumber":63,"Velocity":79,"Duration":1541917,"SoundDuration":1541917,"Delta":410761745},{"NoteNumber":67,"Velocity":79,"Duration":1541917,"SoundDuration":1541917,"Delta":410761745},{"NoteNumber":70,"Velocity":86,"Duration":1334707,"SoundDuration":1334707,"Delta":410761745},{"NoteNumber":39,"Velocity":66,"Duration":1541917,"SoundDuration":1541917,"Delta":410761745},{"NoteNumber":43,"Velocity":63,"Duration":378548,"SoundDuration":378548,"Delta":411140294},{"NoteNumber":94,"Velocity":72,"Duration":94757,"SoundDuration":94757,"Delta":411518843},{"NoteNumber":46,"Velocity":63,"Duration":380989,"SoundDuration":380989,"Delta":411518843},{"NoteNumber":91,"Velocity":72,"Duration":95755,"SoundDuration":95755,"Delta":411613601},{"NoteNumber":87,"Velocity":71,"Duration":95645,"SoundDuration":95645,"Delta":411709356},{"NoteNumber":82,"Velocity":70,"Duration":94831,"SoundDuration":94831,"Delta":411805001},{"NoteNumber":82,"Velocity":70,"Duration":96976,"SoundDuration":96976,"Delta":411899833},{"NoteNumber":51,"Velocity":63,"Duration":403830,"SoundDuration":403830,"Delta":411899833},{"NoteNumber":79,"Velocity":69,"Duration":99643,"SoundDuration":99643,"Delta":411996810},{"NoteNumber":75,"Velocity":68,"Duration":102237,"SoundDuration":102237,"Delta":412096453},{"NoteNumber":70,"Velocity":68,"Duration":104972,"SoundDuration":104972,"Delta":412198691},{"NoteNumber":58,"Velocity":79,"Duration":1541917,"SoundDuration":1541917,"Delta":412303663},{"NoteNumber":62,"Velocity":79,"Duration":1541917,"SoundDuration":1541917,"Delta":412303663},{"NoteNumber":65,"Velocity":79,"Duration":1541917,"SoundDuration":1541917,"Delta":412303663},{"NoteNumber":70,"Velocity":86,"Duration":1334707,"SoundDuration":1334707,"Delta":412303663},{"NoteNumber":34,"Velocity":66,"Duration":1541917,"SoundDuration":1541917,"Delta":412303663},{"NoteNumber":38,"Velocity":63,"Duration":378548,"SoundDuration":378548,"Delta":412682212},{"NoteNumber":94,"Velocity":72,"Duration":94757,"SoundDuration":94757,"Delta":413060761},{"NoteNumber":41,"Velocity":63,"Duration":380989,"SoundDuration":380989,"Delta":413060761},{"NoteNumber":89,"Velocity":72,"Duration":95755,"SoundDuration":95755,"Delta":413155519},{"NoteNumber":86,"Velocity":71,"Duration":95645,"SoundDuration":95645,"Delta":413251274},{"NoteNumber":82,"Velocity":70,"Duration":94831,"SoundDuration":94831,"Delta":413346919},{"NoteNumber":82,"Velocity":70,"Duration":96976,"SoundDuration":96976,"Delta":413441751},{"NoteNumber":46,"Velocity":63,"Duration":403830,"SoundDuration":403830,"Delta":413441751},{"NoteNumber":77,"Velocity":69,"Duration":99643,"SoundDuration":99643,"Delta":413538728},{"NoteNumber":74,"Velocity":68,"Duration":102237,"SoundDuration":102237,"Delta":413638371},{"NoteNumber":70,"Velocity":68,"Duration":104972,"SoundDuration":104972,"Delta":413740609},{"NoteNumber":55,"Velocity":79,"Duration":759615,"SoundDuration":759615,"Delta":413845581},{"NoteNumber":60,"Velocity":79,"Duration":759615,"SoundDuration":759615,"Delta":413845581},{"NoteNumber":63,"Velocity":79,"Duration":759615,"SoundDuration":759615,"Delta":413845581},{"NoteNumber":67,"Velocity":86,"Duration":759615,"SoundDuration":759615,"Delta":413845581},{"NoteNumber":36,"Velocity":66,"Duration":384615,"SoundDuration":384615,"Delta":413845581},{"NoteNumber":48,"Velocity":66,"Duration":384615,"SoundDuration":384615,"Delta":413845581},{"NoteNumber":39,"Velocity":66,"Duration":375000,"SoundDuration":375000,"Delta":414230197},{"NoteNumber":51,"Velocity":66,"Duration":375000,"SoundDuration":375000,"Delta":414230197},{"NoteNumber":56,"Velocity":79,"Duration":759768,"SoundDuration":759768,"Delta":414605197},{"NoteNumber":60,"Velocity":79,"Duration":759768,"SoundDuration":759768,"Delta":414605197},{"NoteNumber":63,"Velocity":79,"Duration":759768,"SoundDuration":759768,"Delta":414605197},{"NoteNumber":68,"Velocity":86,"Duration":759768,"SoundDuration":759768,"Delta":414605197},{"NoteNumber":36,"Velocity":66,"Duration":372671,"SoundDuration":372671,"Delta":414605197},{"NoteNumber":48,"Velocity":66,"Duration":372671,"SoundDuration":372671,"Delta":414605197},{"NoteNumber":32,"Velocity":66,"Duration":387096,"SoundDuration":387096,"Delta":414977868},{"NoteNumber":44,"Velocity":66,"Duration":387096,"SoundDuration":387096,"Delta":414977868},{"NoteNumber":58,"Velocity":79,"Duration":1541917,"SoundDuration":1541917,"Delta":415364965},{"NoteNumber":63,"Velocity":79,"Duration":1541917,"SoundDuration":1541917,"Delta":415364965},{"NoteNumber":67,"Velocity":79,"Duration":1541917,"SoundDuration":1541917,"Delta":415364965},{"NoteNumber":70,"Velocity":86,"Duration":1334707,"SoundDuration":1334707,"Delta":415364965},{"NoteNumber":34,"Velocity":66,"Duration":1541917,"SoundDuration":1541917,"Delta":415364965},{"NoteNumber":39,"Velocity":63,"Duration":378548,"SoundDuration":378548,"Delta":415743514},{"NoteNumber":94,"Velocity":72,"Duration":94757,"SoundDuration":94757,"Delta":416122063},{"NoteNumber":43,"Velocity":63,"Duration":380989,"SoundDuration":380989,"Delta":416122063},{"NoteNumber":91,"Velocity":72,"Duration":95755,"SoundDuration":95755,"Delta":416216820},{"NoteNumber":87,"Velocity":71,"Duration":95645,"SoundDuration":95645,"Delta":416312575},{"NoteNumber":82,"Velocity":70,"Duration":94831,"SoundDuration":94831,"Delta":416408221},{"NoteNumber":82,"Velocity":70,"Duration":96976,"SoundDuration":96976,"Delta":416503053},{"NoteNumber":46,"Velocity":63,"Duration":403830,"SoundDuration":403830,"Delta":416503053},{"NoteNumber":79,"Velocity":69,"Duration":99643,"SoundDuration":99643,"Delta":416600029},{"NoteNumber":75,"Velocity":68,"Duration":102237,"SoundDuration":102237,"Delta":416699673},{"NoteNumber":70,"Velocity":68,"Duration":104972,"SoundDuration":104972,"Delta":416801910},{"NoteNumber":58,"Velocity":79,"Duration":1541917,"SoundDuration":1541917,"Delta":416906883},{"NoteNumber":63,"Velocity":79,"Duration":1541917,"SoundDuration":1541917,"Delta":416906883},{"NoteNumber":66,"Velocity":79,"Duration":1541917,"SoundDuration":1541917,"Delta":416906883},{"NoteNumber":70,"Velocity":86,"Duration":1334707,"SoundDuration":1334707,"Delta":416906883},{"NoteNumber":34,"Velocity":66,"Duration":1541917,"SoundDuration":1541917,"Delta":416906883},{"NoteNumber":39,"Velocity":63,"Duration":378548,"SoundDuration":378548,"Delta":417285432},{"NoteNumber":94,"Velocity":72,"Duration":94757,"SoundDuration":94757,"Delta":417663981},{"NoteNumber":42,"Velocity":63,"Duration":380989,"SoundDuration":380989,"Delta":417663981},{"NoteNumber":90,"Velocity":72,"Duration":95755,"SoundDuration":95755,"Delta":417758738},{"NoteNumber":87,"Velocity":71,"Duration":95645,"SoundDuration":95645,"Delta":417854493},{"NoteNumber":82,"Velocity":70,"Duration":94831,"SoundDuration":94831,"Delta":417950139},{"NoteNumber":82,"Velocity":70,"Duration":96976,"SoundDuration":96976,"Delta":418044971},{"NoteNumber":46,"Velocity":63,"Duration":403830,"SoundDuration":403830,"Delta":418044971},{"NoteNumber":78,"Velocity":69,"Duration":99643,"SoundDuration":99643,"Delta":418141947},{"NoteNumber":75,"Velocity":68,"Duration":102237,"SoundDuration":102237,"Delta":418241591},{"NoteNumber":70,"Velocity":68,"Duration":104972,"SoundDuration":104972,"Delta":418343828},{"NoteNumber":58,"Velocity":79,"Duration":1541917,"SoundDuration":1541917,"Delta":418448801},{"NoteNumber":63,"Velocity":79,"Duration":1541917,"SoundDuration":1541917,"Delta":418448801},{"NoteNumber":65,"Velocity":79,"Duration":1541917,"SoundDuration":1541917,"Delta":418448801},{"NoteNumber":70,"Velocity":86,"Duration":1334707,"SoundDuration":1334707,"Delta":418448801},{"NoteNumber":34,"Velocity":66,"Duration":1541917,"SoundDuration":1541917,"Delta":418448801},{"NoteNumber":39,"Velocity":63,"Duration":378548,"SoundDuration":378548,"Delta":418827350},{"NoteNumber":94,"Velocity":72,"Duration":94757,"SoundDuration":94757,"Delta":419205899},{"NoteNumber":41,"Velocity":63,"Duration":380989,"SoundDuration":380989,"Delta":419205899},{"NoteNumber":89,"Velocity":72,"Duration":95755,"SoundDuration":95755,"Delta":419300656},{"NoteNumber":87,"Velocity":71,"Duration":95645,"SoundDuration":95645,"Delta":419396411},{"NoteNumber":82,"Velocity":70,"Duration":94831,"SoundDuration":94831,"Delta":419492057},{"NoteNumber":82,"Velocity":70,"Duration":96976,"SoundDuration":96976,"Delta":419586889},{"NoteNumber":46,"Velocity":63,"Duration":403830,"SoundDuration":403830,"Delta":419586889},{"NoteNumber":77,"Velocity":69,"Duration":99643,"SoundDuration":99643,"Delta":419683865},{"NoteNumber":75,"Velocity":68,"Duration":102237,"SoundDuration":102237,"Delta":419783509},{"NoteNumber":70,"Velocity":68,"Duration":104972,"SoundDuration":104972,"Delta":419885746},{"NoteNumber":58,"Velocity":79,"Duration":1541917,"SoundDuration":1541917,"Delta":419990719},{"NoteNumber":62,"Velocity":79,"Duration":1541917,"SoundDuration":1541917,"Delta":419990719},{"NoteNumber":68,"Velocity":79,"Duration":1541917,"SoundDuration":1541917,"Delta":419990719},{"NoteNumber":70,"Velocity":86,"Duration":1334707,"SoundDuration":1334707,"Delta":419990719},{"NoteNumber":34,"Velocity":66,"Duration":1541917,"SoundDuration":1541917,"Delta":419990719},{"NoteNumber":41,"Velocity":63,"Duration":378548,"SoundDuration":378548,"Delta":420369268},{"NoteNumber":94,"Velocity":72,"Duration":94757,"SoundDuration":94757,"Delta":420747817},{"NoteNumber":44,"Velocity":63,"Duration":380989,"SoundDuration":380989,"Delta":420747817},{"NoteNumber":92,"Velocity":72,"Duration":95755,"SoundDuration":95755,"Delta":420842574},{"NoteNumber":86,"Velocity":71,"Duration":95645,"SoundDuration":95645,"Delta":420938329},{"NoteNumber":82,"Velocity":70,"Duration":94831,"SoundDuration":94831,"Delta":421033975},{"NoteNumber":82,"Velocity":70,"Duration":96976,"SoundDuration":96976,"Delta":421128807},{"NoteNumber":46,"Velocity":63,"Duration":403830,"SoundDuration":403830,"Delta":421128807},{"NoteNumber":80,"Velocity":69,"Duration":99643,"SoundDuration":99643,"Delta":421225783},{"NoteNumber":74,"Velocity":68,"Duration":102237,"SoundDuration":102237,"Delta":421325427},{"NoteNumber":70,"Velocity":68,"Duration":104972,"SoundDuration":104972,"Delta":421427664},{"NoteNumber":58,"Velocity":70,"Duration":1578982,"SoundDuration":1578982,"Delta":421532637},{"NoteNumber":65,"Velocity":63,"Duration":99337,"SoundDuration":99337,"Delta":421631975},{"NoteNumber":68,"Velocity":63,"Duration":99337,"SoundDuration":99337,"Delta":421731312},{"NoteNumber":70,"Velocity":63,"Duration":99337,"SoundDuration":99337,"Delta":421830650},{"NoteNumber":62,"Velocity":67,"Duration":98684,"SoundDuration":98684,"Delta":421929988},{"NoteNumber":68,"Velocity":62,"Duration":98684,"SoundDuration":98684,"Delta":422028672},{"NoteNumber":70,"Velocity":60,"Duration":98684,"SoundDuration":98684,"Delta":422127356},{"NoteNumber":74,"Velocity":60,"Duration":98684,"SoundDuration":98684,"Delta":422226041},{"NoteNumber":70,"Velocity":75,"Duration":1577717,"SoundDuration":1577717,"Delta":422324725},{"NoteNumber":77,"Velocity":67,"Duration":98039,"SoundDuration":98039,"Delta":422422764},{"NoteNumber":80,"Velocity":67,"Duration":98039,"SoundDuration":98039,"Delta":422520803},{"NoteNumber":82,"Velocity":67,"Duration":98039,"SoundDuration":98039,"Delta":422618843},{"NoteNumber":74,"Velocity":76,"Duration":98684,"SoundDuration":98684,"Delta":422716882},{"NoteNumber":80,"Velocity":79,"Duration":98684,"SoundDuration":98684,"Delta":422815566},{"NoteNumber":82,"Velocity":83,"Duration":98684,"SoundDuration":98684,"Delta":422914250},{"NoteNumber":86,"Velocity":87,"Duration":98684,"SoundDuration":98684,"Delta":423012935},{"NoteNumber":82,"Velocity":90,"Duration":251655,"SoundDuration":251655,"Delta":423111619},{"NoteNumber":80,"Velocity":75,"Duration":251655,"SoundDuration":251655,"Delta":423111619},{"NoteNumber":74,"Velocity":75,"Duration":251655,"SoundDuration":251655,"Delta":423111619},{"NoteNumber":89,"Velocity":51,"Duration":251655,"SoundDuration":251655,"Delta":423244069},{"NoteNumber":92,"Velocity":51,"Duration":251655,"SoundDuration":251655,"Delta":423244069},{"NoteNumber":94,"Velocity":51,"Duration":251655,"SoundDuration":251655,"Delta":423244069},{"NoteNumber":101,"Velocity":68,"Duration":251655,"SoundDuration":251655,"Delta":423244069},{"NoteNumber":82,"Velocity":84,"Duration":251655,"SoundDuration":251655,"Delta":423376520},{"NoteNumber":80,"Velocity":70,"Duration":251655,"SoundDuration":251655,"Delta":423376520},{"NoteNumber":74,"Velocity":70,"Duration":251655,"SoundDuration":251655,"Delta":423376520},{"NoteNumber":89,"Velocity":51,"Duration":250527,"SoundDuration":250527,"Delta":423508970},{"NoteNumber":92,"Velocity":51,"Duration":250527,"SoundDuration":250527,"Delta":423508970},{"NoteNumber":94,"Velocity":51,"Duration":250527,"SoundDuration":250527,"Delta":423508970},{"NoteNumber":101,"Velocity":67,"Duration":250527,"SoundDuration":250527,"Delta":423508970},{"NoteNumber":82,"Velocity":84,"Duration":248118,"SoundDuration":248118,"Delta":423641420},{"NoteNumber":80,"Velocity":70,"Duration":248118,"SoundDuration":248118,"Delta":423641420},{"NoteNumber":74,"Velocity":70,"Duration":248118,"SoundDuration":248118,"Delta":423641420},{"NoteNumber":89,"Velocity":50,"Duration":123421,"SoundDuration":123421,"Delta":423772569},{"NoteNumber":92,"Velocity":50,"Duration":123421,"SoundDuration":123421,"Delta":423772569},{"NoteNumber":94,"Velocity":50,"Duration":123421,"SoundDuration":123421,"Delta":423772569},{"NoteNumber":101,"Velocity":67,"Duration":123421,"SoundDuration":123421,"Delta":423772569},{"NoteNumber":82,"Velocity":88,"Duration":250348,"SoundDuration":250348,"Delta":423902442},{"NoteNumber":80,"Velocity":74,"Duration":250348,"SoundDuration":250348,"Delta":423902442},{"NoteNumber":74,"Velocity":74,"Duration":250348,"SoundDuration":250348,"Delta":423902442},{"NoteNumber":89,"Velocity":50,"Duration":251219,"SoundDuration":251219,"Delta":424034021},{"NoteNumber":92,"Velocity":50,"Duration":251219,"SoundDuration":251219,"Delta":424034021},{"NoteNumber":94,"Velocity":50,"Duration":251219,"SoundDuration":251219,"Delta":424034021},{"NoteNumber":101,"Velocity":67,"Duration":251219,"SoundDuration":251219,"Delta":424034021},{"NoteNumber":82,"Velocity":86,"Duration":252450,"SoundDuration":252450,"Delta":424166036},{"NoteNumber":80,"Velocity":73,"Duration":252450,"SoundDuration":252450,"Delta":424166036},{"NoteNumber":74,"Velocity":73,"Duration":252450,"SoundDuration":252450,"Delta":424166036},{"NoteNumber":89,"Velocity":52,"Duration":253691,"SoundDuration":253691,"Delta":424298486},{"NoteNumber":92,"Velocity":52,"Duration":253691,"SoundDuration":253691,"Delta":424298486},{"NoteNumber":94,"Velocity":52,"Duration":253691,"SoundDuration":253691,"Delta":424298486},{"NoteNumber":101,"Velocity":69,"Duration":253691,"SoundDuration":253691,"Delta":424298486},{"NoteNumber":82,"Velocity":86,"Duration":254586,"SoundDuration":254586,"Delta":424431819},{"NoteNumber":80,"Velocity":73,"Duration":254586,"SoundDuration":254586,"Delta":424431819},{"NoteNumber":74,"Velocity":73,"Duration":254586,"SoundDuration":254586,"Delta":424431819},{"NoteNumber":89,"Velocity":53,"Duration":127516,"SoundDuration":127516,"Delta":424565600},{"NoteNumber":92,"Velocity":53,"Duration":127516,"SoundDuration":127516,"Delta":424565600},{"NoteNumber":94,"Velocity":53,"Duration":127516,"SoundDuration":127516,"Delta":424565600},{"NoteNumber":101,"Velocity":73,"Duration":127516,"SoundDuration":127516,"Delta":424565600},{"NoteNumber":70,"Velocity":83,"Duration":256756,"SoundDuration":256756,"Delta":424699828},{"NoteNumber":68,"Velocity":71,"Duration":256756,"SoundDuration":256756,"Delta":424699828},{"NoteNumber":62,"Velocity":71,"Duration":256756,"SoundDuration":256756,"Delta":424699828},{"NoteNumber":77,"Velocity":67,"Duration":257124,"SoundDuration":257124,"Delta":424834964},{"NoteNumber":80,"Velocity":67,"Duration":257124,"SoundDuration":257124,"Delta":424834964},{"NoteNumber":82,"Velocity":67,"Duration":257124,"SoundDuration":257124,"Delta":424834964},{"NoteNumber":89,"Velocity":80,"Duration":257124,"SoundDuration":257124,"Delta":424834964},{"NoteNumber":70,"Velocity":83,"Duration":258043,"SoundDuration":258043,"Delta":424970099},{"NoteNumber":68,"Velocity":71,"Duration":258043,"SoundDuration":258043,"Delta":424970099},{"NoteNumber":62,"Velocity":71,"Duration":258043,"SoundDuration":258043,"Delta":424970099},{"NoteNumber":77,"Velocity":61,"Duration":259342,"SoundDuration":259342,"Delta":425105694},{"NoteNumber":80,"Velocity":61,"Duration":259342,"SoundDuration":259342,"Delta":425105694},{"NoteNumber":82,"Velocity":61,"Duration":259342,"SoundDuration":259342,"Delta":425105694},{"NoteNumber":89,"Velocity":73,"Duration":259342,"SoundDuration":259342,"Delta":425105694},{"NoteNumber":70,"Velocity":83,"Duration":260746,"SoundDuration":260746,"Delta":425241748},{"NoteNumber":68,"Velocity":71,"Duration":260746,"SoundDuration":260746,"Delta":425241748},{"NoteNumber":62,"Velocity":71,"Duration":260746,"SoundDuration":260746,"Delta":425241748},{"NoteNumber":77,"Velocity":61,"Duration":130609,"SoundDuration":130609,"Delta":425378734},{"NoteNumber":80,"Velocity":61,"Duration":130609,"SoundDuration":130609,"Delta":425378734},{"NoteNumber":82,"Velocity":61,"Duration":130609,"SoundDuration":130609,"Delta":425378734},{"NoteNumber":89,"Velocity":73,"Duration":130609,"SoundDuration":130609,"Delta":425378734},{"NoteNumber":70,"Velocity":89,"Duration":270153,"SoundDuration":270153,"Delta":425516193},{"NoteNumber":68,"Velocity":73,"Duration":270153,"SoundDuration":270153,"Delta":425516193},{"NoteNumber":62,"Velocity":73,"Duration":270153,"SoundDuration":270153,"Delta":425516193},{"NoteNumber":77,"Velocity":67,"Duration":283244,"SoundDuration":283244,"Delta":425655581},{"NoteNumber":80,"Velocity":67,"Duration":283244,"SoundDuration":283244,"Delta":425655581},{"NoteNumber":82,"Velocity":67,"Duration":283244,"SoundDuration":283244,"Delta":425655581},{"NoteNumber":89,"Velocity":79,"Duration":283244,"SoundDuration":283244,"Delta":425655581},{"NoteNumber":70,"Velocity":82,"Duration":297682,"SoundDuration":297682,"Delta":425801053},{"NoteNumber":68,"Velocity":70,"Duration":297682,"SoundDuration":297682,"Delta":425801053},{"NoteNumber":62,"Velocity":70,"Duration":297682,"SoundDuration":297682,"Delta":425801053},{"NoteNumber":77,"Velocity":61,"Duration":313665,"SoundDuration":313665,"Delta":425954330},{"NoteNumber":80,"Velocity":61,"Duration":313665,"SoundDuration":313665,"Delta":425954330},{"NoteNumber":82,"Velocity":61,"Duration":313665,"SoundDuration":313665,"Delta":425954330},{"NoteNumber":89,"Velocity":72,"Duration":313665,"SoundDuration":313665,"Delta":425954330},{"NoteNumber":46,"Velocity":105,"Duration":350479,"SoundDuration":350479,"Delta":426114996},{"NoteNumber":34,"Velocity":89,"Duration":350479,"SoundDuration":350479,"Delta":426114996},{"NoteNumber":70,"Velocity":81,"Duration":180238,"SoundDuration":180238,"Delta":426285236},{"NoteNumber":82,"Velocity":96,"Duration":180238,"SoundDuration":180238,"Delta":426285236},{"NoteNumber":82,"Velocity":92,"Duration":1608429,"SoundDuration":1608429,"Delta":426465475},{"NoteNumber":79,"Velocity":84,"Duration":1608429,"SoundDuration":1608429,"Delta":426465475},{"NoteNumber":75,"Velocity":70,"Duration":1608429,"SoundDuration":1608429,"Delta":426465475},{"NoteNumber":70,"Velocity":70,"Duration":1608429,"SoundDuration":1608429,"Delta":426465475},{"NoteNumber":39,"Velocity":70,"Duration":307808,"SoundDuration":307808,"Delta":426465475},{"NoteNumber":51,"Velocity":84,"Duration":307808,"SoundDuration":307808,"Delta":426465475},{"NoteNumber":63,"Velocity":59,"Duration":307808,"SoundDuration":307808,"Delta":426789484},{"NoteNumber":58,"Velocity":50,"Duration":307808,"SoundDuration":307808,"Delta":426789484},{"NoteNumber":55,"Velocity":50,"Duration":307808,"SoundDuration":307808,"Delta":426789484},{"NoteNumber":63,"Velocity":60,"Duration":307808,"SoundDuration":307808,"Delta":427113493},{"NoteNumber":58,"Velocity":51,"Duration":307808,"SoundDuration":307808,"Delta":427113493},{"NoteNumber":55,"Velocity":51,"Duration":307808,"SoundDuration":307808,"Delta":427113493},{"NoteNumber":63,"Velocity":63,"Duration":302290,"SoundDuration":302290,"Delta":427437502},{"NoteNumber":58,"Velocity":53,"Duration":302290,"SoundDuration":302290,"Delta":427437502},{"NoteNumber":55,"Velocity":53,"Duration":302290,"SoundDuration":302290,"Delta":427437502},{"NoteNumber":63,"Velocity":60,"Duration":302290,"SoundDuration":302290,"Delta":427755703},{"NoteNumber":58,"Velocity":50,"Duration":302290,"SoundDuration":302290,"Delta":427755703},{"NoteNumber":55,"Velocity":50,"Duration":302290,"SoundDuration":302290,"Delta":427755703},{"NoteNumber":72,"Velocity":67,"Duration":318200,"SoundDuration":318200,"Delta":428073904},{"NoteNumber":75,"Velocity":79,"Duration":318200,"SoundDuration":318200,"Delta":428073904},{"NoteNumber":80,"Velocity":79,"Duration":318200,"SoundDuration":318200,"Delta":428073904},{"NoteNumber":84,"Velocity":86,"Duration":318200,"SoundDuration":318200,"Delta":428073904},{"NoteNumber":63,"Velocity":65,"Duration":302290,"SoundDuration":302290,"Delta":428073904},{"NoteNumber":60,"Velocity":65,"Duration":302290,"SoundDuration":302290,"Delta":428073904},{"NoteNumber":56,"Velocity":55,"Duration":302290,"SoundDuration":302290,"Delta":428073904},{"NoteNumber":70,"Velocity":69,"Duration":976226,"SoundDuration":976226,"Delta":428392105},{"NoteNumber":75,"Velocity":69,"Duration":976226,"SoundDuration":976226,"Delta":428392105},{"NoteNumber":79,"Velocity":82,"Duration":976226,"SoundDuration":976226,"Delta":428392105},{"NoteNumber":82,"Velocity":90,"Duration":976226,"SoundDuration":976226,"Delta":428392105},{"NoteNumber":63,"Velocity":72,"Duration":307808,"SoundDuration":307808,"Delta":428392105},{"NoteNumber":58,"Velocity":61,"Duration":307808,"SoundDuration":307808,"Delta":428392105},{"NoteNumber":55,"Velocity":61,"Duration":307808,"SoundDuration":307808,"Delta":428392105},{"NoteNumber":63,"Velocity":62,"Duration":304097,"SoundDuration":304097,"Delta":428716114},{"NoteNumber":58,"Velocity":52,"Duration":304097,"SoundDuration":304097,"Delta":428716114},{"NoteNumber":55,"Velocity":52,"Duration":304097,"SoundDuration":304097,"Delta":428716114},{"NoteNumber":63,"Velocity":62,"Duration":315509,"SoundDuration":315509,"Delta":429036216},{"NoteNumber":58,"Velocity":52,"Duration":315509,"SoundDuration":315509,"Delta":429036216},{"NoteNumber":55,"Velocity":52,"Duration":315509,"SoundDuration":315509,"Delta":429036216},{"NoteNumber":67,"Velocity":70,"Duration":972123,"SoundDuration":972123,"Delta":429368332},{"NoteNumber":70,"Velocity":70,"Duration":972123,"SoundDuration":972123,"Delta":429368332},{"NoteNumber":75,"Velocity":84,"Duration":972123,"SoundDuration":972123,"Delta":429368332},{"NoteNumber":79,"Velocity":92,"Duration":972123,"SoundDuration":972123,"Delta":429368332},{"NoteNumber":39,"Velocity":66,"Duration":307808,"SoundDuration":307808,"Delta":429368332},{"NoteNumber":51,"Velocity":77,"Duration":307808,"SoundDuration":307808,"Delta":429368332},{"NoteNumber":63,"Velocity":60,"Duration":304097,"SoundDuration":304097,"Delta":429692341},{"NoteNumber":58,"Velocity":50,"Duration":304097,"SoundDuration":304097,"Delta":429692341},{"NoteNumber":55,"Velocity":50,"Duration":304097,"SoundDuration":304097,"Delta":429692341},{"NoteNumber":55,"Velocity":50,"Duration":311611,"SoundDuration":311611,"Delta":430012443},{"NoteNumber":58,"Velocity":50,"Duration":311611,"SoundDuration":311611,"Delta":430012443},{"NoteNumber":63,"Velocity":60,"Duration":311611,"SoundDuration":311611,"Delta":430012443},{"NoteNumber":68,"Velocity":72,"Duration":966218,"SoundDuration":966218,"Delta":430340455},{"NoteNumber":70,"Velocity":72,"Duration":966218,"SoundDuration":966218,"Delta":430340455},{"NoteNumber":74,"Velocity":85,"Duration":966218,"SoundDuration":966218,"Delta":430340455},{"NoteNumber":80,"Velocity":93,"Duration":966218,"SoundDuration":966218,"Delta":430340455},{"NoteNumber":41,"Velocity":80,"Duration":307808,"SoundDuration":307808,"Delta":430340455},{"NoteNumber":53,"Velocity":80,"Duration":307808,"SoundDuration":307808,"Delta":430340455},{"NoteNumber":62,"Velocity":58,"Duration":302290,"SoundDuration":302290,"Delta":430664464},{"NoteNumber":58,"Velocity":49,"Duration":302290,"SoundDuration":302290,"Delta":430664464},{"NoteNumber":56,"Velocity":49,"Duration":302290,"SoundDuration":302290,"Delta":430664464},{"NoteNumber":53,"Velocity":49,"Duration":302290,"SoundDuration":302290,"Delta":430664464},{"NoteNumber":53,"Velocity":49,"Duration":307808,"SoundDuration":307808,"Delta":430982665},{"NoteNumber":56,"Velocity":49,"Duration":307808,"SoundDuration":307808,"Delta":430982665},{"NoteNumber":58,"Velocity":49,"Duration":307808,"SoundDuration":307808,"Delta":430982665},{"NoteNumber":62,"Velocity":58,"Duration":307808,"SoundDuration":307808,"Delta":430982665},{"NoteNumber":75,"Velocity":73,"Duration":964977,"SoundDuration":964977,"Delta":431306674},{"NoteNumber":82,"Velocity":94,"Duration":964977,"SoundDuration":964977,"Delta":431306674},{"NoteNumber":79,"Velocity":86,"Duration":964977,"SoundDuration":964977,"Delta":431306674},{"NoteNumber":70,"Velocity":73,"Duration":964977,"SoundDuration":964977,"Delta":431306674},{"NoteNumber":43,"Velocity":63,"Duration":305957,"SoundDuration":305957,"Delta":431306674},{"NoteNumber":55,"Velocity":75,"Duration":305957,"SoundDuration":305957,"Delta":431306674},{"NoteNumber":63,"Velocity":63,"Duration":305957,"SoundDuration":305957,"Delta":431628735},{"NoteNumber":58,"Velocity":53,"Duration":305957,"SoundDuration":305957,"Delta":431628735},{"NoteNumber":55,"Velocity":53,"Duration":305957,"SoundDuration":305957,"Delta":431628735},{"NoteNumber":55,"Velocity":53,"Duration":304812,"SoundDuration":304812,"Delta":431950796},{"NoteNumber":58,"Velocity":53,"Duration":304812,"SoundDuration":304812,"Delta":431950796},{"NoteNumber":63,"Velocity":63,"Duration":304812,"SoundDuration":304812,"Delta":431950796},{"NoteNumber":68,"Velocity":73,"Duration":1586122,"SoundDuration":1586122,"Delta":432271652},{"NoteNumber":70,"Velocity":73,"Duration":1586122,"SoundDuration":1586122,"Delta":432271652},{"NoteNumber":74,"Velocity":86,"Duration":1586122,"SoundDuration":1586122,"Delta":432271652},{"NoteNumber":80,"Velocity":94,"Duration":1586122,"SoundDuration":1586122,"Delta":432271652},{"NoteNumber":41,"Velocity":66,"Duration":304812,"SoundDuration":304812,"Delta":432271652},{"NoteNumber":53,"Velocity":77,"Duration":304812,"SoundDuration":304812,"Delta":432271652},{"NoteNumber":56,"Velocity":51,"Duration":302290,"SoundDuration":302290,"Delta":432592507},{"NoteNumber":58,"Velocity":51,"Duration":302290,"SoundDuration":302290,"Delta":432592507},{"NoteNumber":62,"Velocity":61,"Duration":302290,"SoundDuration":302290,"Delta":432592507},{"NoteNumber":56,"Velocity":48,"Duration":302290,"SoundDuration":302290,"Delta":432910708},{"NoteNumber":58,"Velocity":48,"Duration":302290,"SoundDuration":302290,"Delta":432910708},{"NoteNumber":62,"Velocity":57,"Duration":302290,"SoundDuration":302290,"Delta":432910708},{"NoteNumber":62,"Velocity":60,"Duration":298710,"SoundDuration":298710,"Delta":433228909},{"NoteNumber":58,"Velocity":50,"Duration":298710,"SoundDuration":298710,"Delta":433228909},{"NoteNumber":56,"Velocity":50,"Duration":298710,"SoundDuration":298710,"Delta":433228909},{"NoteNumber":62,"Velocity":57,"Duration":298710,"SoundDuration":298710,"Delta":433543342},{"NoteNumber":58,"Velocity":48,"Duration":298710,"SoundDuration":298710,"Delta":433543342},{"NoteNumber":56,"Velocity":48,"Duration":298710,"SoundDuration":298710,"Delta":433543342},{"NoteNumber":67,"Velocity":69,"Duration":320102,"SoundDuration":320102,"Delta":433857774},{"NoteNumber":70,"Velocity":69,"Duration":320102,"SoundDuration":320102,"Delta":433857774},{"NoteNumber":74,"Velocity":82,"Duration":320102,"SoundDuration":320102,"Delta":433857774},{"NoteNumber":79,"Velocity":90,"Duration":320102,"SoundDuration":320102,"Delta":433857774},{"NoteNumber":62,"Velocity":57,"Duration":304097,"SoundDuration":304097,"Delta":433857774},{"NoteNumber":58,"Velocity":48,"Duration":304097,"SoundDuration":304097,"Delta":433857774},{"NoteNumber":56,"Velocity":48,"Duration":304097,"SoundDuration":304097,"Delta":433857774},{"NoteNumber":65,"Velocity":67,"Duration":972027,"SoundDuration":972027,"Delta":434177877},{"NoteNumber":68,"Velocity":67,"Duration":972027,"SoundDuration":972027,"Delta":434177877},{"NoteNumber":74,"Velocity":80,"Duration":972027,"SoundDuration":972027,"Delta":434177877},{"NoteNumber":77,"Velocity":88,"Duration":972027,"SoundDuration":972027,"Delta":434177877},{"NoteNumber":46,"Velocity":80,"Duration":307808,"SoundDuration":307808,"Delta":434177877},{"NoteNumber":62,"Velocity":56,"Duration":307808,"SoundDuration":307808,"Delta":434501886},{"NoteNumber":56,"Velocity":47,"Duration":307808,"SoundDuration":307808,"Delta":434501886},{"NoteNumber":58,"Velocity":47,"Duration":307808,"SoundDuration":307808,"Delta":434501886},{"NoteNumber":62,"Velocity":56,"Duration":307808,"SoundDuration":307808,"Delta":434825895},{"NoteNumber":56,"Velocity":46,"Duration":307808,"SoundDuration":307808,"Delta":434825895},{"NoteNumber":58,"Velocity":46,"Duration":307808,"SoundDuration":307808,"Delta":434825895},{"NoteNumber":67,"Velocity":74,"Duration":966692,"SoundDuration":966692,"Delta":435149904},{"NoteNumber":70,"Velocity":74,"Duration":966692,"SoundDuration":966692,"Delta":435149904},{"NoteNumber":75,"Velocity":89,"Duration":966692,"SoundDuration":966692,"Delta":435149904},{"NoteNumber":79,"Velocity":97,"Duration":966692,"SoundDuration":966692,"Delta":435149904},{"NoteNumber":39,"Velocity":68,"Duration":307808,"SoundDuration":307808,"Delta":435149904},{"NoteNumber":51,"Velocity":81,"Duration":307808,"SoundDuration":307808,"Delta":435149904},{"NoteNumber":63,"Velocity":68,"Duration":304097,"SoundDuration":304097,"Delta":435473913},{"NoteNumber":58,"Velocity":57,"Duration":304097,"SoundDuration":304097,"Delta":435473913},{"NoteNumber":55,"Velocity":57,"Duration":304097,"SoundDuration":304097,"Delta":435473913},{"NoteNumber":55,"Velocity":53,"Duration":306451,"SoundDuration":306451,"Delta":435794015},{"NoteNumber":58,"Velocity":53,"Duration":306451,"SoundDuration":306451,"Delta":435794015},{"NoteNumber":63,"Velocity":63,"Duration":306451,"SoundDuration":306451,"Delta":435794015},{"NoteNumber":67,"Velocity":77,"Duration":970078,"SoundDuration":970078,"Delta":436116596},{"NoteNumber":70,"Velocity":77,"Duration":970078,"SoundDuration":970078,"Delta":436116596},{"NoteNumber":75,"Velocity":99,"Duration":970078,"SoundDuration":970078,"Delta":436116596},{"NoteNumber":55,"Velocity":52,"Duration":307808,"SoundDuration":307808,"Delta":436116596},{"NoteNumber":58,"Velocity":52,"Duration":307808,"SoundDuration":307808,"Delta":436116596},{"NoteNumber":63,"Velocity":62,"Duration":307808,"SoundDuration":307808,"Delta":436116596},{"NoteNumber":63,"Velocity":62,"Duration":302290,"SoundDuration":302290,"Delta":436440605},{"NoteNumber":58,"Velocity":52,"Duration":302290,"SoundDuration":302290,"Delta":436440605},{"NoteNumber":55,"Velocity":52,"Duration":302290,"SoundDuration":302290,"Delta":436440605},{"NoteNumber":55,"Velocity":52,"Duration":311475,"SoundDuration":311475,"Delta":436758806},{"NoteNumber":58,"Velocity":52,"Duration":311475,"SoundDuration":311475,"Delta":436758806},{"NoteNumber":63,"Velocity":62,"Duration":311475,"SoundDuration":311475,"Delta":436758806},{"NoteNumber":75,"Velocity":73,"Duration":979317,"SoundDuration":979317,"Delta":437086675},{"NoteNumber":82,"Velocity":94,"Duration":979317,"SoundDuration":979317,"Delta":437086675},{"NoteNumber":79,"Velocity":86,"Duration":979317,"SoundDuration":979317,"Delta":437086675},{"NoteNumber":70,"Velocity":73,"Duration":979317,"SoundDuration":979317,"Delta":437086675},{"NoteNumber":51,"Velocity":73,"Duration":305957,"SoundDuration":305957,"Delta":437086675},{"NoteNumber":63,"Velocity":67,"Duration":305957,"SoundDuration":305957,"Delta":437408736},{"NoteNumber":58,"Velocity":56,"Duration":305957,"SoundDuration":305957,"Delta":437408736},{"NoteNumber":55,"Velocity":56,"Duration":305957,"SoundDuration":305957,"Delta":437408736},{"NoteNumber":55,"Velocity":56,"Duration":318435,"SoundDuration":318435,"Delta":437730797},{"NoteNumber":58,"Velocity":56,"Duration":318435,"SoundDuration":318435,"Delta":437730797},{"NoteNumber":63,"Velocity":67,"Duration":318435,"SoundDuration":318435,"Delta":437730797},{"NoteNumber":70,"Velocity":75,"Duration":1586122,"SoundDuration":1586122,"Delta":438065992},{"NoteNumber":74,"Velocity":75,"Duration":1586122,"SoundDuration":1586122,"Delta":438065992},{"NoteNumber":77,"Velocity":90,"Duration":1586122,"SoundDuration":1586122,"Delta":438065992},{"NoteNumber":82,"Velocity":99,"Duration":1586122,"SoundDuration":1586122,"Delta":438065992},{"NoteNumber":38,"Velocity":66,"Duration":304812,"SoundDuration":304812,"Delta":438065992},{"NoteNumber":50,"Velocity":77,"Duration":304812,"SoundDuration":304812,"Delta":438065992},{"NoteNumber":53,"Velocity":51,"Duration":302290,"SoundDuration":302290,"Delta":438386848},{"NoteNumber":58,"Velocity":51,"Duration":302290,"SoundDuration":302290,"Delta":438386848},{"NoteNumber":62,"Velocity":61,"Duration":302290,"SoundDuration":302290,"Delta":438386848},{"NoteNumber":53,"Velocity":48,"Duration":302290,"SoundDuration":302290,"Delta":438705049},{"NoteNumber":58,"Velocity":48,"Duration":302290,"SoundDuration":302290,"Delta":438705049},{"NoteNumber":62,"Velocity":57,"Duration":302290,"SoundDuration":302290,"Delta":438705049},{"NoteNumber":62,"Velocity":61,"Duration":298710,"SoundDuration":298710,"Delta":439023250},{"NoteNumber":58,"Velocity":51,"Duration":298710,"SoundDuration":298710,"Delta":439023250},{"NoteNumber":53,"Velocity":51,"Duration":298710,"SoundDuration":298710,"Delta":439023250},{"NoteNumber":62,"Velocity":56,"Duration":298710,"SoundDuration":298710,"Delta":439337682},{"NoteNumber":58,"Velocity":46,"Duration":298710,"SoundDuration":298710,"Delta":439337682},{"NoteNumber":53,"Velocity":46,"Duration":298710,"SoundDuration":298710,"Delta":439337682},{"NoteNumber":72,"Velocity":84,"Duration":320102,"SoundDuration":320102,"Delta":439652115},{"NoteNumber":77,"Velocity":84,"Duration":320102,"SoundDuration":320102,"Delta":439652115},{"NoteNumber":84,"Velocity":100,"Duration":320102,"SoundDuration":320102,"Delta":439652115},{"NoteNumber":62,"Velocity":57,"Duration":304097,"SoundDuration":304097,"Delta":439652115},{"NoteNumber":58,"Velocity":48,"Duration":304097,"SoundDuration":304097,"Delta":439652115},{"NoteNumber":53,"Velocity":48,"Duration":304097,"SoundDuration":304097,"Delta":439652115},{"NoteNumber":74,"Velocity":67,"Duration":979509,"SoundDuration":979509,"Delta":439972217},{"NoteNumber":77,"Velocity":67,"Duration":979509,"SoundDuration":979509,"Delta":439972217},{"NoteNumber":82,"Velocity":93,"Duration":979509,"SoundDuration":979509,"Delta":439972217},{"NoteNumber":86,"Velocity":102,"Duration":979509,"SoundDuration":979509,"Delta":439972217},{"NoteNumber":50,"Velocity":70,"Duration":307808,"SoundDuration":307808,"Delta":439972217},{"NoteNumber":62,"Velocity":63,"Duration":307808,"SoundDuration":307808,"Delta":440296226},{"NoteNumber":53,"Velocity":53,"Duration":307808,"SoundDuration":307808,"Delta":440296226},{"NoteNumber":58,"Velocity":53,"Duration":307808,"SoundDuration":307808,"Delta":440296226},{"NoteNumber":62,"Velocity":63,"Duration":314916,"SoundDuration":314916,"Delta":440620235},{"NoteNumber":53,"Velocity":53,"Duration":314916,"SoundDuration":314916,"Delta":440620235},{"NoteNumber":58,"Velocity":53,"Duration":314916,"SoundDuration":314916,"Delta":440620235},{"NoteNumber":75,"Velocity":88,"Duration":1586122,"SoundDuration":1586122,"Delta":440951727},{"NoteNumber":79,"Velocity":88,"Duration":957257,"SoundDuration":957257,"Delta":440951727},{"NoteNumber":84,"Velocity":104,"Duration":1586122,"SoundDuration":1586122,"Delta":440951727},{"NoteNumber":87,"Velocity":104,"Duration":1586122,"SoundDuration":1586122,"Delta":440951727},{"NoteNumber":36,"Velocity":66,"Duration":304812,"SoundDuration":304812,"Delta":440951727},{"NoteNumber":48,"Velocity":77,"Duration":304812,"SoundDuration":304812,"Delta":440951727},{"NoteNumber":55,"Velocity":53,"Duration":302290,"SoundDuration":302290,"Delta":441272582},{"NoteNumber":60,"Velocity":53,"Duration":302290,"SoundDuration":302290,"Delta":441272582},{"NoteNumber":63,"Velocity":63,"Duration":302290,"SoundDuration":302290,"Delta":441272582},{"NoteNumber":55,"Velocity":53,"Duration":302290,"SoundDuration":302290,"Delta":441590783},{"NoteNumber":60,"Velocity":53,"Duration":302290,"SoundDuration":302290,"Delta":441590783},{"NoteNumber":63,"Velocity":63,"Duration":302290,"SoundDuration":302290,"Delta":441590783},{"NoteNumber":81,"Velocity":96,"Duration":628865,"SoundDuration":628865,"Delta":441908984},{"NoteNumber":53,"Velocity":68,"Duration":298710,"SoundDuration":298710,"Delta":441908984},{"NoteNumber":41,"Velocity":57,"Duration":298710,"SoundDuration":298710,"Delta":441908984},{"NoteNumber":63,"Velocity":60,"Duration":298710,"SoundDuration":298710,"Delta":442223417},{"NoteNumber":57,"Velocity":50,"Duration":298710,"SoundDuration":298710,"Delta":442223417},{"NoteNumber":53,"Velocity":50,"Duration":298710,"SoundDuration":298710,"Delta":442223417},{"NoteNumber":77,"Velocity":84,"Duration":320102,"SoundDuration":320102,"Delta":442537849},{"NoteNumber":81,"Velocity":84,"Duration":320102,"SoundDuration":320102,"Delta":442537849},{"NoteNumber":84,"Velocity":100,"Duration":320102,"SoundDuration":320102,"Delta":442537849},{"NoteNumber":89,"Velocity":100,"Duration":320102,"SoundDuration":320102,"Delta":442537849},{"NoteNumber":63,"Velocity":57,"Duration":304097,"SoundDuration":304097,"Delta":442537849},{"NoteNumber":57,"Velocity":48,"Duration":304097,"SoundDuration":304097,"Delta":442537849},{"NoteNumber":53,"Velocity":48,"Duration":304097,"SoundDuration":304097,"Delta":442537849},{"NoteNumber":74,"Velocity":86,"Duration":972027,"SoundDuration":972027,"Delta":442857952},{"NoteNumber":77,"Velocity":86,"Duration":972027,"SoundDuration":972027,"Delta":442857952},{"NoteNumber":82,"Velocity":102,"Duration":972027,"SoundDuration":972027,"Delta":442857952},{"NoteNumber":86,"Velocity":102,"Duration":972027,"SoundDuration":972027,"Delta":442857952},{"NoteNumber":46,"Velocity":60,"Duration":307808,"SoundDuration":307808,"Delta":442857952},{"NoteNumber":58,"Velocity":70,"Duration":307808,"SoundDuration":307808,"Delta":442857952},{"NoteNumber":62,"Velocity":55,"Duration":307808,"SoundDuration":307808,"Delta":443181961},{"NoteNumber":53,"Velocity":46,"Duration":307808,"SoundDuration":307808,"Delta":443181961},{"NoteNumber":58,"Velocity":46,"Duration":307808,"SoundDuration":307808,"Delta":443181961},{"NoteNumber":62,"Velocity":56,"Duration":307808,"SoundDuration":307808,"Delta":443505970},{"NoteNumber":53,"Velocity":46,"Duration":307808,"SoundDuration":307808,"Delta":443505970},{"NoteNumber":58,"Velocity":46,"Duration":307808,"SoundDuration":307808,"Delta":443505970},{"NoteNumber":84,"Velocity":96,"Duration":957257,"SoundDuration":957257,"Delta":443829979},{"NoteNumber":79,"Velocity":88,"Duration":957257,"SoundDuration":957257,"Delta":443829979},{"NoteNumber":75,"Velocity":74,"Duration":957257,"SoundDuration":957257,"Delta":443829979},{"NoteNumber":72,"Velocity":74,"Duration":957257,"SoundDuration":957257,"Delta":443829979},{"NoteNumber":36,"Velocity":66,"Duration":304812,"SoundDuration":304812,"Delta":443829979},{"NoteNumber":48,"Velocity":77,"Duration":304812,"SoundDuration":304812,"Delta":443829979},{"NoteNumber":55,"Velocity":53,"Duration":302290,"SoundDuration":302290,"Delta":444150834},{"NoteNumber":60,"Velocity":53,"Duration":302290,"SoundDuration":302290,"Delta":444150834},{"NoteNumber":63,"Velocity":64,"Duration":302290,"SoundDuration":302290,"Delta":444150834},{"NoteNumber":55,"Velocity":53,"Duration":302290,"SoundDuration":302290,"Delta":444469035},{"NoteNumber":60,"Velocity":53,"Duration":302290,"SoundDuration":302290,"Delta":444469035},{"NoteNumber":63,"Velocity":64,"Duration":302290,"SoundDuration":302290,"Delta":444469035},{"NoteNumber":75,"Velocity":75,"Duration":1596985,"SoundDuration":1596985,"Delta":444787236},{"NoteNumber":84,"Velocity":99,"Duration":1596985,"SoundDuration":1596985,"Delta":444787236},{"NoteNumber":72,"Velocity":75,"Duration":1596985,"SoundDuration":1596985,"Delta":444787236},{"NoteNumber":81,"Velocity":90,"Duration":1596985,"SoundDuration":1596985,"Delta":444787236},{"NoteNumber":53,"Velocity":74,"Duration":298710,"SoundDuration":298710,"Delta":444787236},{"NoteNumber":41,"Velocity":62,"Duration":298710,"SoundDuration":298710,"Delta":444787236},{"NoteNumber":63,"Velocity":60,"Duration":298710,"SoundDuration":298710,"Delta":445101669},{"NoteNumber":57,"Velocity":51,"Duration":298710,"SoundDuration":298710,"Delta":445101669},{"NoteNumber":53,"Velocity":51,"Duration":298710,"SoundDuration":298710,"Delta":445101669},{"NoteNumber":63,"Velocity":60,"Duration":304097,"SoundDuration":304097,"Delta":445416101},{"NoteNumber":57,"Velocity":51,"Duration":304097,"SoundDuration":304097,"Delta":445416101},{"NoteNumber":53,"Velocity":51,"Duration":304097,"SoundDuration":304097,"Delta":445416101},{"NoteNumber":63,"Velocity":61,"Duration":307808,"SoundDuration":307808,"Delta":445736204},{"NoteNumber":57,"Velocity":61,"Duration":307808,"SoundDuration":307808,"Delta":445736204},{"NoteNumber":65,"Velocity":61,"Duration":307808,"SoundDuration":307808,"Delta":445736204},{"NoteNumber":65,"Velocity":57,"Duration":307808,"SoundDuration":307808,"Delta":446060213},{"NoteNumber":57,"Velocity":57,"Duration":307808,"SoundDuration":307808,"Delta":446060213},{"NoteNumber":63,"Velocity":57,"Duration":307808,"SoundDuration":307808,"Delta":446060213},{"NoteNumber":70,"Velocity":70,"Duration":307262,"SoundDuration":307262,"Delta":446384222},{"NoteNumber":74,"Velocity":70,"Duration":307262,"SoundDuration":307262,"Delta":446384222},{"NoteNumber":77,"Velocity":84,"Duration":307262,"SoundDuration":307262,"Delta":446384222},{"NoteNumber":82,"Velocity":92,"Duration":307262,"SoundDuration":307262,"Delta":446384222},{"NoteNumber":65,"Velocity":56,"Duration":318435,"SoundDuration":318435,"Delta":446384222},{"NoteNumber":58,"Velocity":47,"Duration":318435,"SoundDuration":318435,"Delta":446384222},{"NoteNumber":62,"Velocity":47,"Duration":318435,"SoundDuration":318435,"Delta":446384222},{"NoteNumber":70,"Velocity":74,"Duration":1923109,"SoundDuration":1923109,"Delta":446719417},{"NoteNumber":74,"Velocity":74,"Duration":1923109,"SoundDuration":1923109,"Delta":446719417},{"NoteNumber":77,"Velocity":89,"Duration":1923109,"SoundDuration":1923109,"Delta":446719417},{"NoteNumber":82,"Velocity":97,"Duration":1923109,"SoundDuration":1923109,"Delta":446719417},{"NoteNumber":34,"Velocity":66,"Duration":307808,"SoundDuration":307808,"Delta":446719417},{"NoteNumber":46,"Velocity":77,"Duration":307808,"SoundDuration":307808,"Delta":446719417},{"NoteNumber":62,"Velocity":57,"Duration":304097,"SoundDuration":304097,"Delta":447043426},{"NoteNumber":58,"Velocity":47,"Duration":304097,"SoundDuration":304097,"Delta":447043426},{"NoteNumber":53,"Velocity":47,"Duration":304097,"SoundDuration":304097,"Delta":447043426},{"NoteNumber":53,"Velocity":47,"Duration":306451,"SoundDuration":306451,"Delta":447363529},{"NoteNumber":58,"Velocity":47,"Duration":306451,"SoundDuration":306451,"Delta":447363529},{"NoteNumber":62,"Velocity":57,"Duration":306451,"SoundDuration":306451,"Delta":447363529},{"NoteNumber":53,"Velocity":47,"Duration":307808,"SoundDuration":307808,"Delta":447686109},{"NoteNumber":58,"Velocity":47,"Duration":307808,"SoundDuration":307808,"Delta":447686109},{"NoteNumber":62,"Velocity":57,"Duration":307808,"SoundDuration":307808,"Delta":447686109},{"NoteNumber":62,"Velocity":57,"Duration":302290,"SoundDuration":302290,"Delta":448010118},{"NoteNumber":58,"Velocity":47,"Duration":302290,"SoundDuration":302290,"Delta":448010118},{"NoteNumber":53,"Velocity":47,"Duration":302290,"SoundDuration":302290,"Delta":448010118},{"NoteNumber":53,"Velocity":47,"Duration":311475,"SoundDuration":311475,"Delta":448328319},{"NoteNumber":58,"Velocity":47,"Duration":311475,"SoundDuration":311475,"Delta":448328319},{"NoteNumber":62,"Velocity":57,"Duration":311475,"SoundDuration":311475,"Delta":448328319},{"NoteNumber":74,"Velocity":75,"Duration":959826,"SoundDuration":959826,"Delta":448656188},{"NoteNumber":82,"Velocity":99,"Duration":959826,"SoundDuration":959826,"Delta":448656188},{"NoteNumber":77,"Velocity":90,"Duration":959826,"SoundDuration":959826,"Delta":448656188},{"NoteNumber":70,"Velocity":75,"Duration":959826,"SoundDuration":959826,"Delta":448656188},{"NoteNumber":58,"Velocity":47,"Duration":302065,"SoundDuration":302065,"Delta":448656188},{"NoteNumber":62,"Velocity":47,"Duration":302065,"SoundDuration":302065,"Delta":448656188},{"NoteNumber":65,"Velocity":58,"Duration":302065,"SoundDuration":302065,"Delta":448656188},{"NoteNumber":65,"Velocity":61,"Duration":304445,"SoundDuration":304445,"Delta":448974212},{"NoteNumber":62,"Velocity":51,"Duration":304445,"SoundDuration":304445,"Delta":448974212},{"NoteNumber":58,"Velocity":51,"Duration":304445,"SoundDuration":304445,"Delta":448974212},{"NoteNumber":58,"Velocity":56,"Duration":318435,"SoundDuration":318435,"Delta":449294786},{"NoteNumber":62,"Velocity":56,"Duration":318435,"SoundDuration":318435,"Delta":449294786},{"NoteNumber":65,"Velocity":66,"Duration":318435,"SoundDuration":318435,"Delta":449294786},{"NoteNumber":70,"Velocity":78,"Duration":1586122,"SoundDuration":1586122,"Delta":449629981},{"NoteNumber":74,"Velocity":78,"Duration":1586122,"SoundDuration":1586122,"Delta":449629981},{"NoteNumber":77,"Velocity":92,"Duration":1586122,"SoundDuration":1586122,"Delta":449629981},{"NoteNumber":82,"Velocity":101,"Duration":1586122,"SoundDuration":1586122,"Delta":449629981},{"NoteNumber":46,"Velocity":82,"Duration":304812,"SoundDuration":304812,"Delta":449629981},{"NoteNumber":56,"Velocity":51,"Duration":302290,"SoundDuration":302290,"Delta":449950837},{"NoteNumber":58,"Velocity":51,"Duration":302290,"SoundDuration":302290,"Delta":449950837},{"NoteNumber":62,"Velocity":61,"Duration":302290,"SoundDuration":302290,"Delta":449950837},{"NoteNumber":56,"Velocity":49,"Duration":302290,"SoundDuration":302290,"Delta":450269038},{"NoteNumber":58,"Velocity":49,"Duration":302290,"SoundDuration":302290,"Delta":450269038},{"NoteNumber":62,"Velocity":58,"Duration":302290,"SoundDuration":302290,"Delta":450269038},{"NoteNumber":62,"Velocity":66,"Duration":298710,"SoundDuration":298710,"Delta":450587239},{"NoteNumber":58,"Velocity":56,"Duration":298710,"SoundDuration":298710,"Delta":450587239},{"NoteNumber":56,"Velocity":56,"Duration":298710,"SoundDuration":298710,"Delta":450587239},{"NoteNumber":62,"Velocity":60,"Duration":298710,"SoundDuration":298710,"Delta":450901671},{"NoteNumber":58,"Velocity":51,"Duration":298710,"SoundDuration":298710,"Delta":450901671},{"NoteNumber":56,"Velocity":51,"Duration":298710,"SoundDuration":298710,"Delta":450901671},{"NoteNumber":80,"Velocity":90,"Duration":320102,"SoundDuration":320102,"Delta":451216104},{"NoteNumber":72,"Velocity":75,"Duration":320102,"SoundDuration":320102,"Delta":451216104},{"NoteNumber":77,"Velocity":75,"Duration":320102,"SoundDuration":320102,"Delta":451216104},{"NoteNumber":84,"Velocity":99,"Duration":320102,"SoundDuration":320102,"Delta":451216104},{"NoteNumber":62,"Velocity":62,"Duration":304097,"SoundDuration":304097,"Delta":451216104},{"NoteNumber":58,"Velocity":52,"Duration":304097,"SoundDuration":304097,"Delta":451216104},{"NoteNumber":56,"Velocity":52,"Duration":304097,"SoundDuration":304097,"Delta":451216104},{"NoteNumber":74,"Velocity":80,"Duration":979509,"SoundDuration":979509,"Delta":451536206},{"NoteNumber":77,"Velocity":80,"Duration":979509,"SoundDuration":979509,"Delta":451536206},{"NoteNumber":82,"Velocity":94,"Duration":979509,"SoundDuration":979509,"Delta":451536206},{"NoteNumber":86,"Velocity":103,"Duration":979509,"SoundDuration":979509,"Delta":451536206},{"NoteNumber":46,"Velocity":73,"Duration":307808,"SoundDuration":307808,"Delta":451536206},{"NoteNumber":62,"Velocity":66,"Duration":307808,"SoundDuration":307808,"Delta":451860215},{"NoteNumber":56,"Velocity":56,"Duration":307808,"SoundDuration":307808,"Delta":451860215},{"NoteNumber":58,"Velocity":56,"Duration":307808,"SoundDuration":307808,"Delta":451860215},{"NoteNumber":62,"Velocity":66,"Duration":314916,"SoundDuration":314916,"Delta":452184224},{"NoteNumber":56,"Velocity":56,"Duration":314916,"SoundDuration":314916,"Delta":452184224},{"NoteNumber":58,"Velocity":56,"Duration":314916,"SoundDuration":314916,"Delta":452184224},{"NoteNumber":75,"Velocity":85,"Duration":1906225,"SoundDuration":1906225,"Delta":452515716},{"NoteNumber":79,"Velocity":85,"Duration":1906225,"SoundDuration":1906225,"Delta":452515716},{"NoteNumber":82,"Velocity":101,"Duration":1906225,"SoundDuration":1906225,"Delta":452515716},{"NoteNumber":87,"Velocity":111,"Duration":1906225,"SoundDuration":1906225,"Delta":452515716},{"NoteNumber":43,"Velocity":68,"Duration":304812,"SoundDuration":304812,"Delta":452515716},{"NoteNumber":55,"Velocity":80,"Duration":304812,"SoundDuration":304812,"Delta":452515716},{"NoteNumber":55,"Velocity":53,"Duration":302290,"SoundDuration":302290,"Delta":452836571},{"NoteNumber":58,"Velocity":53,"Duration":302290,"SoundDuration":302290,"Delta":452836571},{"NoteNumber":63,"Velocity":63,"Duration":302290,"SoundDuration":302290,"Delta":452836571},{"NoteNumber":55,"Velocity":53,"Duration":302290,"SoundDuration":302290,"Delta":453154772},{"NoteNumber":58,"Velocity":53,"Duration":302290,"SoundDuration":302290,"Delta":453154772},{"NoteNumber":63,"Velocity":63,"Duration":302290,"SoundDuration":302290,"Delta":453154772},{"NoteNumber":55,"Velocity":52,"Duration":298710,"SoundDuration":298710,"Delta":453472973},{"NoteNumber":58,"Velocity":52,"Duration":298710,"SoundDuration":298710,"Delta":453472973},{"NoteNumber":63,"Velocity":62,"Duration":298710,"SoundDuration":298710,"Delta":453472973},{"NoteNumber":63,"Velocity":62,"Duration":298710,"SoundDuration":298710,"Delta":453787406},{"NoteNumber":58,"Velocity":52,"Duration":298710,"SoundDuration":298710,"Delta":453787406},{"NoteNumber":55,"Velocity":52,"Duration":298710,"SoundDuration":298710,"Delta":453787406},{"NoteNumber":63,"Velocity":60,"Duration":304097,"SoundDuration":304097,"Delta":454101838},{"NoteNumber":58,"Velocity":50,"Duration":304097,"SoundDuration":304097,"Delta":454101838},{"NoteNumber":55,"Velocity":50,"Duration":304097,"SoundDuration":304097,"Delta":454101838},{"NoteNumber":70,"Velocity":74,"Duration":958526,"SoundDuration":958526,"Delta":454421941},{"NoteNumber":75,"Velocity":74,"Duration":958526,"SoundDuration":958526,"Delta":454421941},{"NoteNumber":79,"Velocity":88,"Duration":958526,"SoundDuration":958526,"Delta":454421941},{"NoteNumber":82,"Velocity":96,"Duration":958526,"SoundDuration":958526,"Delta":454421941},{"NoteNumber":58,"Velocity":48,"Duration":307808,"SoundDuration":307808,"Delta":454421941},{"NoteNumber":63,"Velocity":48,"Duration":307808,"SoundDuration":307808,"Delta":454421941},{"NoteNumber":67,"Velocity":57,"Duration":307808,"SoundDuration":307808,"Delta":454421941},{"NoteNumber":67,"Velocity":57,"Duration":307808,"SoundDuration":307808,"Delta":454745950},{"NoteNumber":58,"Velocity":48,"Duration":307808,"SoundDuration":307808,"Delta":454745950},{"NoteNumber":63,"Velocity":48,"Duration":307808,"SoundDuration":307808,"Delta":454745950},{"NoteNumber":67,"Velocity":58,"Duration":307808,"SoundDuration":307808,"Delta":455069959},{"NoteNumber":58,"Velocity":48,"Duration":307808,"SoundDuration":307808,"Delta":455069959},{"NoteNumber":63,"Velocity":48,"Duration":307808,"SoundDuration":307808,"Delta":455069959},{"NoteNumber":70,"Velocity":75,"Duration":1586122,"SoundDuration":1586122,"Delta":455393968},{"NoteNumber":75,"Velocity":90,"Duration":1586122,"SoundDuration":1586122,"Delta":455393968},{"NoteNumber":82,"Velocity":99,"Duration":1586122,"SoundDuration":1586122,"Delta":455393968},{"NoteNumber":41,"Velocity":66,"Duration":304812,"SoundDuration":304812,"Delta":455393968},{"NoteNumber":53,"Velocity":77,"Duration":304812,"SoundDuration":304812,"Delta":455393968},{"NoteNumber":53,"Velocity":51,"Duration":302290,"SoundDuration":302290,"Delta":455714823},{"NoteNumber":60,"Velocity":51,"Duration":302290,"SoundDuration":302290,"Delta":455714823},{"NoteNumber":63,"Velocity":61,"Duration":302290,"SoundDuration":302290,"Delta":455714823},{"NoteNumber":53,"Velocity":48,"Duration":302290,"SoundDuration":302290,"Delta":456033024},{"NoteNumber":60,"Velocity":48,"Duration":302290,"SoundDuration":302290,"Delta":456033024},{"NoteNumber":63,"Velocity":57,"Duration":302290,"SoundDuration":302290,"Delta":456033024},{"NoteNumber":63,"Velocity":61,"Duration":298710,"SoundDuration":298710,"Delta":456351225},{"NoteNumber":60,"Velocity":51,"Duration":298710,"SoundDuration":298710,"Delta":456351225},{"NoteNumber":53,"Velocity":51,"Duration":298710,"SoundDuration":298710,"Delta":456351225},{"NoteNumber":63,"Velocity":56,"Duration":298710,"SoundDuration":298710,"Delta":456665658},{"NoteNumber":60,"Velocity":46,"Duration":298710,"SoundDuration":298710,"Delta":456665658},{"NoteNumber":53,"Velocity":46,"Duration":298710,"SoundDuration":298710,"Delta":456665658},{"NoteNumber":72,"Velocity":70,"Duration":320102,"SoundDuration":320102,"Delta":456980090},{"NoteNumber":75,"Velocity":70,"Duration":320102,"SoundDuration":320102,"Delta":456980090},{"NoteNumber":84,"Velocity":92,"Duration":320102,"SoundDuration":320102,"Delta":456980090},{"NoteNumber":63,"Velocity":57,"Duration":304097,"SoundDuration":304097,"Delta":456980090},{"NoteNumber":60,"Velocity":48,"Duration":304097,"SoundDuration":304097,"Delta":456980090},{"NoteNumber":53,"Velocity":48,"Duration":304097,"SoundDuration":304097,"Delta":456980090},{"NoteNumber":70,"Velocity":74,"Duration":648017,"SoundDuration":648017,"Delta":457300193},{"NoteNumber":74,"Velocity":74,"Duration":648017,"SoundDuration":648017,"Delta":457300193},{"NoteNumber":80,"Velocity":96,"Duration":648017,"SoundDuration":648017,"Delta":457300193},{"NoteNumber":46,"Velocity":55,"Duration":307808,"SoundDuration":307808,"Delta":457300193},{"NoteNumber":62,"Velocity":58,"Duration":307808,"SoundDuration":307808,"Delta":457624202},{"NoteNumber":56,"Velocity":49,"Duration":307808,"SoundDuration":307808,"Delta":457624202},{"NoteNumber":58,"Velocity":49,"Duration":307808,"SoundDuration":307808,"Delta":457624202},{"NoteNumber":70,"Velocity":69,"Duration":331491,"SoundDuration":331491,"Delta":457948211},{"NoteNumber":74,"Velocity":69,"Duration":331491,"SoundDuration":331491,"Delta":457948211},{"NoteNumber":82,"Velocity":90,"Duration":331491,"SoundDuration":331491,"Delta":457948211},{"NoteNumber":62,"Velocity":58,"Duration":314916,"SoundDuration":314916,"Delta":457948211},{"NoteNumber":56,"Velocity":49,"Duration":314916,"SoundDuration":314916,"Delta":457948211},{"NoteNumber":58,"Velocity":49,"Duration":314916,"SoundDuration":314916,"Delta":457948211},{"NoteNumber":67,"Velocity":73,"Duration":953251,"SoundDuration":953251,"Delta":458279702},{"NoteNumber":70,"Velocity":73,"Duration":953251,"SoundDuration":953251,"Delta":458279702},{"NoteNumber":75,"Velocity":86,"Duration":953251,"SoundDuration":953251,"Delta":458279702},{"NoteNumber":79,"Velocity":94,"Duration":966692,"SoundDuration":966692,"Delta":458279702},{"NoteNumber":39,"Velocity":62,"Duration":307808,"SoundDuration":307808,"Delta":458279702},{"NoteNumber":51,"Velocity":74,"Duration":307808,"SoundDuration":307808,"Delta":458279702},{"NoteNumber":58,"Velocity":59,"Duration":304097,"SoundDuration":304097,"Delta":458603711},{"NoteNumber":55,"Velocity":49,"Duration":304097,"SoundDuration":304097,"Delta":458603711},{"NoteNumber":51,"Velocity":49,"Duration":304097,"SoundDuration":304097,"Delta":458603711},{"NoteNumber":51,"Velocity":49,"Duration":306451,"SoundDuration":306451,"Delta":458923814},{"NoteNumber":55,"Velocity":49,"Duration":306451,"SoundDuration":306451,"Delta":458923814},{"NoteNumber":58,"Velocity":59,"Duration":306451,"SoundDuration":306451,"Delta":458923814},{"NoteNumber":63,"Velocity":72,"Duration":956417,"SoundDuration":956417,"Delta":459246394},{"NoteNumber":67,"Velocity":72,"Duration":956417,"SoundDuration":956417,"Delta":459246394},{"NoteNumber":70,"Velocity":85,"Duration":956417,"SoundDuration":956417,"Delta":459246394},{"NoteNumber":75,"Velocity":93,"Duration":956417,"SoundDuration":956417,"Delta":459246394},{"NoteNumber":51,"Velocity":49,"Duration":307808,"SoundDuration":307808,"Delta":459246394},{"NoteNumber":55,"Velocity":49,"Duration":307808,"SoundDuration":307808,"Delta":459246394},{"NoteNumber":58,"Velocity":59,"Duration":307808,"SoundDuration":307808,"Delta":459246394},{"NoteNumber":58,"Velocity":59,"Duration":302290,"SoundDuration":302290,"Delta":459570403},{"NoteNumber":55,"Velocity":49,"Duration":302290,"SoundDuration":302290,"Delta":459570403},{"NoteNumber":51,"Velocity":49,"Duration":302290,"SoundDuration":302290,"Delta":459570403},{"NoteNumber":51,"Velocity":49,"Duration":311475,"SoundDuration":311475,"Delta":459888604},{"NoteNumber":55,"Velocity":49,"Duration":311475,"SoundDuration":311475,"Delta":459888604},{"NoteNumber":58,"Velocity":59,"Duration":311475,"SoundDuration":311475,"Delta":459888604},{"NoteNumber":67,"Velocity":70,"Duration":965351,"SoundDuration":965351,"Delta":460216473},{"NoteNumber":75,"Velocity":92,"Duration":965351,"SoundDuration":965351,"Delta":460216473},{"NoteNumber":70,"Velocity":84,"Duration":965351,"SoundDuration":965351,"Delta":460216473},{"NoteNumber":63,"Velocity":70,"Duration":965351,"SoundDuration":965351,"Delta":460216473},{"NoteNumber":39,"Velocity":55,"Duration":305957,"SoundDuration":305957,"Delta":460216473},{"NoteNumber":51,"Velocity":64,"Duration":305957,"SoundDuration":305957,"Delta":460216473},{"NoteNumber":58,"Velocity":61,"Duration":305957,"SoundDuration":305957,"Delta":460538534},{"NoteNumber":55,"Velocity":50,"Duration":305957,"SoundDuration":305957,"Delta":460538534},{"NoteNumber":51,"Velocity":50,"Duration":305957,"SoundDuration":305957,"Delta":460538534},{"NoteNumber":51,"Velocity":50,"Duration":318435,"SoundDuration":318435,"Delta":460860595},{"NoteNumber":55,"Velocity":50,"Duration":318435,"SoundDuration":318435,"Delta":460860595},{"NoteNumber":58,"Velocity":61,"Duration":318435,"SoundDuration":318435,"Delta":460860595},{"NoteNumber":68,"Velocity":75,"Duration":1586122,"SoundDuration":1586122,"Delta":461195791},{"NoteNumber":72,"Velocity":75,"Duration":1586122,"SoundDuration":1586122,"Delta":461195791},{"NoteNumber":75,"Velocity":90,"Duration":1586122,"SoundDuration":1586122,"Delta":461195791},{"NoteNumber":80,"Velocity":99,"Duration":1586122,"SoundDuration":1586122,"Delta":461195791},{"NoteNumber":36,"Velocity":66,"Duration":304812,"SoundDuration":304812,"Delta":461195791},{"NoteNumber":48,"Velocity":77,"Duration":304812,"SoundDuration":304812,"Delta":461195791},{"NoteNumber":60,"Velocity":61,"Duration":302290,"SoundDuration":302290,"Delta":461516646},{"NoteNumber":63,"Velocity":61,"Duration":302290,"SoundDuration":302290,"Delta":461516646},{"NoteNumber":60,"Velocity":57,"Duration":302290,"SoundDuration":302290,"Delta":461834847},{"NoteNumber":63,"Velocity":57,"Duration":302290,"SoundDuration":302290,"Delta":461834847},{"NoteNumber":63,"Velocity":61,"Duration":298710,"SoundDuration":298710,"Delta":462153048},{"NoteNumber":60,"Velocity":61,"Duration":298710,"SoundDuration":298710,"Delta":462153048},{"NoteNumber":63,"Velocity":56,"Duration":298710,"SoundDuration":298710,"Delta":462467481},{"NoteNumber":60,"Velocity":56,"Duration":298710,"SoundDuration":298710,"Delta":462467481},{"NoteNumber":79,"Velocity":88,"Duration":320102,"SoundDuration":320102,"Delta":462781913},{"NoteNumber":70,"Velocity":74,"Duration":320102,"SoundDuration":320102,"Delta":462781913},{"NoteNumber":75,"Velocity":74,"Duration":320102,"SoundDuration":320102,"Delta":462781913},{"NoteNumber":82,"Velocity":96,"Duration":320102,"SoundDuration":320102,"Delta":462781913},{"NoteNumber":63,"Velocity":57,"Duration":304097,"SoundDuration":304097,"Delta":462781913},{"NoteNumber":58,"Velocity":57,"Duration":304097,"SoundDuration":304097,"Delta":462781913},{"NoteNumber":72,"Velocity":77,"Duration":648017,"SoundDuration":648017,"Delta":463102016},{"NoteNumber":75,"Velocity":77,"Duration":648017,"SoundDuration":648017,"Delta":463102016},{"NoteNumber":80,"Velocity":91,"Duration":648017,"SoundDuration":648017,"Delta":463102016},{"NoteNumber":84,"Velocity":100,"Duration":648017,"SoundDuration":648017,"Delta":463102016},{"NoteNumber":56,"Velocity":57,"Duration":307808,"SoundDuration":307808,"Delta":463102016},{"NoteNumber":63,"Velocity":57,"Duration":307808,"SoundDuration":307808,"Delta":463102016},{"NoteNumber":63,"Velocity":63,"Duration":307808,"SoundDuration":307808,"Delta":463426025},{"NoteNumber":56,"Velocity":63,"Duration":307808,"SoundDuration":307808,"Delta":463426025},{"NoteNumber":68,"Velocity":74,"Duration":331491,"SoundDuration":331491,"Delta":463750034},{"NoteNumber":72,"Velocity":74,"Duration":331491,"SoundDuration":331491,"Delta":463750034},{"NoteNumber":75,"Velocity":88,"Duration":331491,"SoundDuration":331491,"Delta":463750034},{"NoteNumber":80,"Velocity":96,"Duration":331491,"SoundDuration":331491,"Delta":463750034},{"NoteNumber":63,"Velocity":63,"Duration":314916,"SoundDuration":314916,"Delta":463750034},{"NoteNumber":60,"Velocity":63,"Duration":314916,"SoundDuration":314916,"Delta":463750034},{"NoteNumber":70,"Velocity":75,"Duration":1586122,"SoundDuration":1586122,"Delta":464081525},{"NoteNumber":74,"Velocity":75,"Duration":1586122,"SoundDuration":1586122,"Delta":464081525},{"NoteNumber":77,"Velocity":90,"Duration":1586122,"SoundDuration":1586122,"Delta":464081525},{"NoteNumber":82,"Velocity":99,"Duration":1586122,"SoundDuration":1586122,"Delta":464081525},{"NoteNumber":38,"Velocity":63,"Duration":304812,"SoundDuration":304812,"Delta":464081525},{"NoteNumber":50,"Velocity":75,"Duration":304812,"SoundDuration":304812,"Delta":464081525},{"NoteNumber":53,"Velocity":49,"Duration":302290,"SoundDuration":302290,"Delta":464402381},{"NoteNumber":58,"Velocity":49,"Duration":302290,"SoundDuration":302290,"Delta":464402381},{"NoteNumber":62,"Velocity":59,"Duration":302290,"SoundDuration":302290,"Delta":464402381},{"NoteNumber":53,"Velocity":49,"Duration":302290,"SoundDuration":302290,"Delta":464720582},{"NoteNumber":58,"Velocity":49,"Duration":302290,"SoundDuration":302290,"Delta":464720582},{"NoteNumber":62,"Velocity":59,"Duration":302290,"SoundDuration":302290,"Delta":464720582},{"NoteNumber":53,"Velocity":47,"Duration":298710,"SoundDuration":298710,"Delta":465038783},{"NoteNumber":58,"Velocity":47,"Duration":298710,"SoundDuration":298710,"Delta":465038783},{"NoteNumber":62,"Velocity":57,"Duration":298710,"SoundDuration":298710,"Delta":465038783},{"NoteNumber":62,"Velocity":57,"Duration":298710,"SoundDuration":298710,"Delta":465353215},{"NoteNumber":58,"Velocity":47,"Duration":298710,"SoundDuration":298710,"Delta":465353215},{"NoteNumber":53,"Velocity":47,"Duration":298710,"SoundDuration":298710,"Delta":465353215},{"NoteNumber":68,"Velocity":70,"Duration":320102,"SoundDuration":320102,"Delta":465667648},{"NoteNumber":74,"Velocity":70,"Duration":320102,"SoundDuration":320102,"Delta":465667648},{"NoteNumber":77,"Velocity":84,"Duration":320102,"SoundDuration":320102,"Delta":465667648},{"NoteNumber":80,"Velocity":92,"Duration":320102,"SoundDuration":320102,"Delta":465667648},{"NoteNumber":62,"Velocity":53,"Duration":304097,"SoundDuration":304097,"Delta":465667648},{"NoteNumber":58,"Velocity":45,"Duration":304097,"SoundDuration":304097,"Delta":465667648},{"NoteNumber":53,"Velocity":45,"Duration":304097,"SoundDuration":304097,"Delta":465667648},{"NoteNumber":67,"Velocity":74,"Duration":972027,"SoundDuration":972027,"Delta":465987750},{"NoteNumber":70,"Velocity":74,"Duration":972027,"SoundDuration":972027,"Delta":465987750},{"NoteNumber":75,"Velocity":88,"Duration":972027,"SoundDuration":972027,"Delta":465987750},{"NoteNumber":79,"Velocity":96,"Duration":972027,"SoundDuration":972027,"Delta":465987750},{"NoteNumber":39,"Velocity":60,"Duration":307808,"SoundDuration":307808,"Delta":465987750},{"NoteNumber":51,"Velocity":70,"Duration":307808,"SoundDuration":307808,"Delta":465987750},{"NoteNumber":63,"Velocity":55,"Duration":307808,"SoundDuration":307808,"Delta":466311759},{"NoteNumber":55,"Velocity":46,"Duration":307808,"SoundDuration":307808,"Delta":466311759},{"NoteNumber":58,"Velocity":46,"Duration":307808,"SoundDuration":307808,"Delta":466311759},{"NoteNumber":63,"Velocity":56,"Duration":307808,"SoundDuration":307808,"Delta":466635768},{"NoteNumber":55,"Velocity":46,"Duration":307808,"SoundDuration":307808,"Delta":466635768},{"NoteNumber":58,"Velocity":46,"Duration":307808,"SoundDuration":307808,"Delta":466635768},{"NoteNumber":80,"Velocity":96,"Duration":957257,"SoundDuration":957257,"Delta":466959777},{"NoteNumber":75,"Velocity":88,"Duration":957257,"SoundDuration":957257,"Delta":466959777},{"NoteNumber":72,"Velocity":74,"Duration":957257,"SoundDuration":957257,"Delta":466959777},{"NoteNumber":68,"Velocity":74,"Duration":957257,"SoundDuration":957257,"Delta":466959777},{"NoteNumber":41,"Velocity":66,"Duration":304812,"SoundDuration":304812,"Delta":466959777},{"NoteNumber":53,"Velocity":77,"Duration":304812,"SoundDuration":304812,"Delta":466959777},{"NoteNumber":53,"Velocity":51,"Duration":302290,"SoundDuration":302290,"Delta":467280633},{"NoteNumber":60,"Velocity":51,"Duration":302290,"SoundDuration":302290,"Delta":467280633},{"NoteNumber":63,"Velocity":61,"Duration":302290,"SoundDuration":302290,"Delta":467280633},{"NoteNumber":53,"Velocity":51,"Duration":302290,"SoundDuration":302290,"Delta":467598834},{"NoteNumber":60,"Velocity":51,"Duration":302290,"SoundDuration":302290,"Delta":467598834},{"NoteNumber":63,"Velocity":61,"Duration":302290,"SoundDuration":302290,"Delta":467598834},{"NoteNumber":70,"Velocity":75,"Duration":1596985,"SoundDuration":1596985,"Delta":467917035},{"NoteNumber":77,"Velocity":99,"Duration":1596985,"SoundDuration":1596985,"Delta":467917035},{"NoteNumber":65,"Velocity":75,"Duration":1596985,"SoundDuration":1596985,"Delta":467917035},{"NoteNumber":74,"Velocity":90,"Duration":1596985,"SoundDuration":1596985,"Delta":467917035},{"NoteNumber":46,"Velocity":74,"Duration":298710,"SoundDuration":298710,"Delta":467917035},{"NoteNumber":34,"Velocity":62,"Duration":298710,"SoundDuration":298710,"Delta":467917035},{"NoteNumber":62,"Velocity":53,"Duration":298710,"SoundDuration":298710,"Delta":468231467},{"NoteNumber":58,"Velocity":45,"Duration":298710,"SoundDuration":298710,"Delta":468231467},{"NoteNumber":56,"Velocity":45,"Duration":298710,"SoundDuration":298710,"Delta":468231467},{"NoteNumber":62,"Velocity":53,"Duration":304097,"SoundDuration":304097,"Delta":468545900},{"NoteNumber":58,"Velocity":45,"Duration":304097,"SoundDuration":304097,"Delta":468545900},{"NoteNumber":56,"Velocity":45,"Duration":304097,"SoundDuration":304097,"Delta":468545900},{"NoteNumber":58,"Velocity":53,"Duration":307808,"SoundDuration":307808,"Delta":468866002},{"NoteNumber":56,"Velocity":53,"Duration":307808,"SoundDuration":307808,"Delta":468866002},{"NoteNumber":62,"Velocity":63,"Duration":307808,"SoundDuration":307808,"Delta":468866002},{"NoteNumber":62,"Velocity":53,"Duration":307808,"SoundDuration":307808,"Delta":469190011},{"NoteNumber":56,"Velocity":45,"Duration":307808,"SoundDuration":307808,"Delta":469190011},{"NoteNumber":58,"Velocity":45,"Duration":307808,"SoundDuration":307808,"Delta":469190011},{"NoteNumber":63,"Velocity":70,"Duration":318435,"SoundDuration":318435,"Delta":469514020},{"NoteNumber":67,"Velocity":70,"Duration":318435,"SoundDuration":318435,"Delta":469514020},{"NoteNumber":70,"Velocity":84,"Duration":318435,"SoundDuration":318435,"Delta":469514020},{"NoteNumber":75,"Velocity":92,"Duration":318435,"SoundDuration":318435,"Delta":469514020},{"NoteNumber":39,"Velocity":44,"Duration":318435,"SoundDuration":318435,"Delta":469514020},{"NoteNumber":51,"Velocity":52,"Duration":318435,"SoundDuration":318435,"Delta":469514020},{"NoteNumber":67,"Velocity":70,"Duration":313186,"SoundDuration":313186,"Delta":469849216},{"NoteNumber":70,"Velocity":70,"Duration":313186,"SoundDuration":313186,"Delta":469849216},{"NoteNumber":63,"Velocity":70,"Duration":313186,"SoundDuration":313186,"Delta":469849216},{"NoteNumber":75,"Velocity":92,"Duration":989011,"SoundDuration":989011,"Delta":469849216},{"NoteNumber":27,"Velocity":57,"Duration":989011,"SoundDuration":989011,"Delta":469849216},{"NoteNumber":39,"Velocity":57,"Duration":989011,"SoundDuration":989011,"Delta":469849216},{"NoteNumber":63,"Velocity":62,"Duration":313186,"SoundDuration":313186,"Delta":470178886},{"NoteNumber":67,"Velocity":62,"Duration":313186,"SoundDuration":313186,"Delta":470178886},{"NoteNumber":70,"Velocity":62,"Duration":313186,"SoundDuration":313186,"Delta":470178886},{"NoteNumber":63,"Velocity":62,"Duration":313186,"SoundDuration":313186,"Delta":470508557},{"NoteNumber":67,"Velocity":62,"Duration":313186,"SoundDuration":313186,"Delta":470508557},{"NoteNumber":70,"Velocity":62,"Duration":313186,"SoundDuration":313186,"Delta":470508557},{"NoteNumber":63,"Velocity":62,"Duration":311571,"SoundDuration":311571,"Delta":470838227},{"NoteNumber":67,"Velocity":62,"Duration":311571,"SoundDuration":311571,"Delta":470838227},{"NoteNumber":70,"Velocity":62,"Duration":311571,"SoundDuration":311571,"Delta":470838227},{"NoteNumber":39,"Velocity":73,"Duration":191857,"SoundDuration":191857,"Delta":470838227},{"NoteNumber":38,"Velocity":68,"Duration":190367,"SoundDuration":190367,"Delta":471002762},{"NoteNumber":63,"Velocity":62,"Duration":306742,"SoundDuration":306742,"Delta":471166103},{"NoteNumber":67,"Velocity":62,"Duration":306742,"SoundDuration":306742,"Delta":471166103},{"NoteNumber":70,"Velocity":62,"Duration":306742,"SoundDuration":306742,"Delta":471166103},{"NoteNumber":39,"Velocity":68,"Duration":188462,"SoundDuration":188462,"Delta":471166103},{"NoteNumber":41,"Velocity":66,"Duration":188317,"SoundDuration":188317,"Delta":471327684},{"NoteNumber":63,"Velocity":62,"Duration":308607,"SoundDuration":308607,"Delta":471488974},{"NoteNumber":67,"Velocity":62,"Duration":308607,"SoundDuration":308607,"Delta":471488974},{"NoteNumber":70,"Velocity":62,"Duration":308607,"SoundDuration":308607,"Delta":471488974},{"NoteNumber":43,"Velocity":68,"Duration":189189,"SoundDuration":189189,"Delta":471488974},{"NoteNumber":46,"Velocity":70,"Duration":189631,"SoundDuration":189631,"Delta":471651136},{"NoteNumber":63,"Velocity":62,"Duration":306451,"SoundDuration":306451,"Delta":471813886},{"NoteNumber":67,"Velocity":62,"Duration":306451,"SoundDuration":306451,"Delta":471813886},{"NoteNumber":70,"Velocity":62,"Duration":306451,"SoundDuration":306451,"Delta":471813886},{"NoteNumber":51,"Velocity":73,"Duration":188171,"SoundDuration":188171,"Delta":471813886},{"NoteNumber":50,"Velocity":68,"Duration":188171,"SoundDuration":188171,"Delta":471975176},{"NoteNumber":63,"Velocity":62,"Duration":306451,"SoundDuration":306451,"Delta":472136467},{"NoteNumber":67,"Velocity":62,"Duration":306451,"SoundDuration":306451,"Delta":472136467},{"NoteNumber":70,"Velocity":62,"Duration":306451,"SoundDuration":306451,"Delta":472136467},{"NoteNumber":51,"Velocity":68,"Duration":188171,"SoundDuration":188171,"Delta":472136467},{"NoteNumber":53,"Velocity":64,"Duration":188464,"SoundDuration":188464,"Delta":472297757},{"NoteNumber":63,"Velocity":62,"Duration":309782,"SoundDuration":309782,"Delta":472459047},{"NoteNumber":67,"Velocity":62,"Duration":309782,"SoundDuration":309782,"Delta":472459047},{"NoteNumber":70,"Velocity":62,"Duration":309782,"SoundDuration":309782,"Delta":472459047},{"NoteNumber":55,"Velocity":72,"Duration":190217,"SoundDuration":190217,"Delta":472459047},{"NoteNumber":58,"Velocity":73,"Duration":163043,"SoundDuration":163043,"Delta":472622091},{"NoteNumber":75,"Velocity":85,"Duration":157894,"SoundDuration":157894,"Delta":472785134},{"NoteNumber":51,"Velocity":49,"Duration":300000,"SoundDuration":300000,"Delta":472785134},{"NoteNumber":56,"Velocity":49,"Duration":300000,"SoundDuration":300000,"Delta":472785134},{"NoteNumber":59,"Velocity":56,"Duration":300000,"SoundDuration":300000,"Delta":472785134},{"NoteNumber":71,"Velocity":68,"Duration":157894,"SoundDuration":157894,"Delta":472943029},{"NoteNumber":68,"Velocity":70,"Duration":160143,"SoundDuration":160143,"Delta":473100924},{"NoteNumber":51,"Velocity":49,"Duration":304528,"SoundDuration":304528,"Delta":473100924},{"NoteNumber":56,"Velocity":49,"Duration":304528,"SoundDuration":304528,"Delta":473100924},{"NoteNumber":59,"Velocity":56,"Duration":304528,"SoundDuration":304528,"Delta":473100924},{"NoteNumber":65,"Velocity":67,"Duration":160427,"SoundDuration":160427,"Delta":473261067},{"NoteNumber":68,"Velocity":72,"Duration":161299,"SoundDuration":161299,"Delta":473421495},{"NoteNumber":51,"Velocity":49,"Duration":305684,"SoundDuration":305684,"Delta":473421495},{"NoteNumber":56,"Velocity":49,"Duration":305684,"SoundDuration":305684,"Delta":473421495},{"NoteNumber":59,"Velocity":56,"Duration":305684,"SoundDuration":305684,"Delta":473421495},{"NoteNumber":71,"Velocity":67,"Duration":160427,"SoundDuration":160427,"Delta":473582794},{"NoteNumber":75,"Velocity":84,"Duration":159574,"SoundDuration":159574,"Delta":473743222},{"NoteNumber":51,"Velocity":49,"Duration":303191,"SoundDuration":303191,"Delta":473743222},{"NoteNumber":56,"Velocity":49,"Duration":303191,"SoundDuration":303191,"Delta":473743222},{"NoteNumber":59,"Velocity":56,"Duration":303191,"SoundDuration":303191,"Delta":473743222},{"NoteNumber":71,"Velocity":66,"Duration":159574,"SoundDuration":159574,"Delta":473902797},{"NoteNumber":68,"Velocity":70,"Duration":159574,"SoundDuration":159574,"Delta":474062371},{"NoteNumber":51,"Velocity":49,"Duration":303191,"SoundDuration":303191,"Delta":474062371},{"NoteNumber":56,"Velocity":49,"Duration":303191,"SoundDuration":303191,"Delta":474062371},{"NoteNumber":59,"Velocity":56,"Duration":303191,"SoundDuration":303191,"Delta":474062371},{"NoteNumber":65,"Velocity":67,"Duration":159574,"SoundDuration":159574,"Delta":474221946},{"NoteNumber":68,"Velocity":70,"Duration":161290,"SoundDuration":161290,"Delta":474381520},{"NoteNumber":51,"Velocity":49,"Duration":306451,"SoundDuration":306451,"Delta":474381520},{"NoteNumber":56,"Velocity":49,"Duration":306451,"SoundDuration":306451,"Delta":474381520},{"NoteNumber":59,"Velocity":56,"Duration":306451,"SoundDuration":306451,"Delta":474381520},{"NoteNumber":71,"Velocity":68,"Duration":161290,"SoundDuration":161290,"Delta":474542810},{"NoteNumber":77,"Velocity":85,"Duration":159574,"SoundDuration":159574,"Delta":474704101},{"NoteNumber":51,"Velocity":49,"Duration":303191,"SoundDuration":303191,"Delta":474704101},{"NoteNumber":56,"Velocity":49,"Duration":303191,"SoundDuration":303191,"Delta":474704101},{"NoteNumber":59,"Velocity":56,"Duration":303191,"SoundDuration":303191,"Delta":474704101},{"NoteNumber":75,"Velocity":69,"Duration":159574,"SoundDuration":159574,"Delta":474863675},{"NoteNumber":71,"Velocity":74,"Duration":159574,"SoundDuration":159574,"Delta":475023250},{"NoteNumber":51,"Velocity":49,"Duration":303191,"SoundDuration":303191,"Delta":475023250},{"NoteNumber":56,"Velocity":49,"Duration":303191,"SoundDuration":303191,"Delta":475023250},{"NoteNumber":59,"Velocity":56,"Duration":303191,"SoundDuration":303191,"Delta":475023250},{"NoteNumber":68,"Velocity":68,"Duration":159574,"SoundDuration":159574,"Delta":475182824},{"NoteNumber":71,"Velocity":73,"Duration":163043,"SoundDuration":163043,"Delta":475342399},{"NoteNumber":51,"Velocity":49,"Duration":309782,"SoundDuration":309782,"Delta":475342399},{"NoteNumber":56,"Velocity":49,"Duration":309782,"SoundDuration":309782,"Delta":475342399},{"NoteNumber":59,"Velocity":56,"Duration":309782,"SoundDuration":309782,"Delta":475342399},{"NoteNumber":75,"Velocity":67,"Duration":163043,"SoundDuration":163043,"Delta":475505442},{"NoteNumber":70,"Velocity":70,"Duration":309782,"SoundDuration":309782,"Delta":475668486},{"NoteNumber":75,"Velocity":70,"Duration":309782,"SoundDuration":309782,"Delta":475668486},{"NoteNumber":67,"Velocity":70,"Duration":309782,"SoundDuration":309782,"Delta":475668486},{"NoteNumber":79,"Velocity":101,"Duration":978260,"SoundDuration":978260,"Delta":475668486},{"NoteNumber":27,"Velocity":57,"Duration":978260,"SoundDuration":978260,"Delta":475668486},{"NoteNumber":39,"Velocity":57,"Duration":978260,"SoundDuration":978260,"Delta":475668486},{"NoteNumber":67,"Velocity":62,"Duration":309782,"SoundDuration":309782,"Delta":475994573},{"NoteNumber":70,"Velocity":62,"Duration":309782,"SoundDuration":309782,"Delta":475994573},{"NoteNumber":75,"Velocity":62,"Duration":309782,"SoundDuration":309782,"Delta":475994573},{"NoteNumber":67,"Velocity":62,"Duration":309782,"SoundDuration":309782,"Delta":476320660},{"NoteNumber":70,"Velocity":62,"Duration":309782,"SoundDuration":309782,"Delta":476320660},{"NoteNumber":75,"Velocity":62,"Duration":309782,"SoundDuration":309782,"Delta":476320660},{"NoteNumber":67,"Velocity":62,"Duration":311571,"SoundDuration":311571,"Delta":476646747},{"NoteNumber":70,"Velocity":62,"Duration":311571,"SoundDuration":311571,"Delta":476646747},{"NoteNumber":75,"Velocity":62,"Duration":311571,"SoundDuration":311571,"Delta":476646747},{"NoteNumber":39,"Velocity":73,"Duration":191857,"SoundDuration":191857,"Delta":476646747},{"NoteNumber":38,"Velocity":68,"Duration":190367,"SoundDuration":190367,"Delta":476811282},{"NoteNumber":67,"Velocity":62,"Duration":306742,"SoundDuration":306742,"Delta":476974622},{"NoteNumber":70,"Velocity":62,"Duration":306742,"SoundDuration":306742,"Delta":476974622},{"NoteNumber":75,"Velocity":62,"Duration":306742,"SoundDuration":306742,"Delta":476974622},{"NoteNumber":39,"Velocity":68,"Duration":188462,"SoundDuration":188462,"Delta":476974622},{"NoteNumber":41,"Velocity":66,"Duration":188317,"SoundDuration":188317,"Delta":477136203},{"NoteNumber":67,"Velocity":62,"Duration":308607,"SoundDuration":308607,"Delta":477297493},{"NoteNumber":70,"Velocity":62,"Duration":308607,"SoundDuration":308607,"Delta":477297493},{"NoteNumber":75,"Velocity":62,"Duration":308607,"SoundDuration":308607,"Delta":477297493},{"NoteNumber":43,"Velocity":68,"Duration":189189,"SoundDuration":189189,"Delta":477297493},{"NoteNumber":46,"Velocity":70,"Duration":189631,"SoundDuration":189631,"Delta":477459656},{"NoteNumber":67,"Velocity":62,"Duration":306451,"SoundDuration":306451,"Delta":477622405},{"NoteNumber":70,"Velocity":62,"Duration":306451,"SoundDuration":306451,"Delta":477622405},{"NoteNumber":75,"Velocity":62,"Duration":306451,"SoundDuration":306451,"Delta":477622405},{"NoteNumber":51,"Velocity":73,"Duration":188171,"SoundDuration":188171,"Delta":477622405},{"NoteNumber":50,"Velocity":68,"Duration":188171,"SoundDuration":188171,"Delta":477783696},{"NoteNumber":67,"Velocity":62,"Duration":306451,"SoundDuration":306451,"Delta":477944986},{"NoteNumber":70,"Velocity":62,"Duration":306451,"SoundDuration":306451,"Delta":477944986},{"NoteNumber":75,"Velocity":62,"Duration":306451,"SoundDuration":306451,"Delta":477944986},{"NoteNumber":51,"Velocity":68,"Duration":188171,"SoundDuration":188171,"Delta":477944986},{"NoteNumber":53,"Velocity":64,"Duration":188464,"SoundDuration":188464,"Delta":478106276},{"NoteNumber":67,"Velocity":62,"Duration":309782,"SoundDuration":309782,"Delta":478267566},{"NoteNumber":70,"Velocity":62,"Duration":309782,"SoundDuration":309782,"Delta":478267566},{"NoteNumber":75,"Velocity":62,"Duration":309782,"SoundDuration":309782,"Delta":478267566},{"NoteNumber":55,"Velocity":72,"Duration":190217,"SoundDuration":190217,"Delta":478267566},{"NoteNumber":58,"Velocity":73,"Duration":163043,"SoundDuration":163043,"Delta":478430610},{"NoteNumber":87,"Velocity":93,"Duration":155440,"SoundDuration":155440,"Delta":478593653},{"NoteNumber":51,"Velocity":53,"Duration":295336,"SoundDuration":295336,"Delta":478593653},{"NoteNumber":56,"Velocity":53,"Duration":295336,"SoundDuration":295336,"Delta":478593653},{"NoteNumber":59,"Velocity":61,"Duration":295336,"SoundDuration":295336,"Delta":478593653},{"NoteNumber":83,"Velocity":74,"Duration":155440,"SoundDuration":155440,"Delta":478749094},{"NoteNumber":80,"Velocity":77,"Duration":156250,"SoundDuration":156250,"Delta":478904534},{"NoteNumber":51,"Velocity":53,"Duration":296875,"SoundDuration":296875,"Delta":478904534},{"NoteNumber":56,"Velocity":53,"Duration":296875,"SoundDuration":296875,"Delta":478904534},{"NoteNumber":59,"Velocity":61,"Duration":296875,"SoundDuration":296875,"Delta":478904534},{"NoteNumber":77,"Velocity":73,"Duration":156250,"SoundDuration":156250,"Delta":479060784},{"NoteNumber":80,"Velocity":79,"Duration":159861,"SoundDuration":159861,"Delta":479217034},{"NoteNumber":51,"Velocity":53,"Duration":304246,"SoundDuration":304246,"Delta":479217034},{"NoteNumber":56,"Velocity":53,"Duration":304246,"SoundDuration":304246,"Delta":479217034},{"NoteNumber":59,"Velocity":61,"Duration":304246,"SoundDuration":304246,"Delta":479217034},{"NoteNumber":83,"Velocity":73,"Duration":160427,"SoundDuration":160427,"Delta":479376896},{"NoteNumber":87,"Velocity":92,"Duration":157067,"SoundDuration":157067,"Delta":479537324},{"NoteNumber":51,"Velocity":53,"Duration":298429,"SoundDuration":298429,"Delta":479537324},{"NoteNumber":56,"Velocity":53,"Duration":298429,"SoundDuration":298429,"Delta":479537324},{"NoteNumber":59,"Velocity":61,"Duration":298429,"SoundDuration":298429,"Delta":479537324},{"NoteNumber":83,"Velocity":72,"Duration":157068,"SoundDuration":157068,"Delta":479694392},{"NoteNumber":80,"Velocity":77,"Duration":157067,"SoundDuration":157067,"Delta":479851460},{"NoteNumber":51,"Velocity":53,"Duration":298429,"SoundDuration":298429,"Delta":479851460},{"NoteNumber":56,"Velocity":53,"Duration":298429,"SoundDuration":298429,"Delta":479851460},{"NoteNumber":59,"Velocity":61,"Duration":298429,"SoundDuration":298429,"Delta":479851460},{"NoteNumber":77,"Velocity":73,"Duration":157067,"SoundDuration":157067,"Delta":480008528},{"NoteNumber":80,"Velocity":77,"Duration":158730,"SoundDuration":158730,"Delta":480165596},{"NoteNumber":51,"Velocity":53,"Duration":301587,"SoundDuration":301587,"Delta":480165596},{"NoteNumber":56,"Velocity":53,"Duration":301587,"SoundDuration":301587,"Delta":480165596},{"NoteNumber":59,"Velocity":61,"Duration":301587,"SoundDuration":301587,"Delta":480165596},{"NoteNumber":83,"Velocity":74,"Duration":158730,"SoundDuration":158730,"Delta":480324326},{"NoteNumber":89,"Velocity":93,"Duration":157067,"SoundDuration":157067,"Delta":480483056},{"NoteNumber":51,"Velocity":53,"Duration":298429,"SoundDuration":298429,"Delta":480483056},{"NoteNumber":56,"Velocity":53,"Duration":298429,"SoundDuration":298429,"Delta":480483056},{"NoteNumber":59,"Velocity":61,"Duration":298429,"SoundDuration":298429,"Delta":480483056},{"NoteNumber":87,"Velocity":75,"Duration":157068,"SoundDuration":157068,"Delta":480640124},{"NoteNumber":83,"Velocity":81,"Duration":156250,"SoundDuration":156250,"Delta":480797192},{"NoteNumber":51,"Velocity":53,"Duration":296875,"SoundDuration":296875,"Delta":480797192},{"NoteNumber":56,"Velocity":53,"Duration":296875,"SoundDuration":296875,"Delta":480797192},{"NoteNumber":59,"Velocity":61,"Duration":296875,"SoundDuration":296875,"Delta":480797192},{"NoteNumber":80,"Velocity":74,"Duration":156250,"SoundDuration":156250,"Delta":480953442},{"NoteNumber":83,"Velocity":80,"Duration":159574,"SoundDuration":159574,"Delta":481109692},{"NoteNumber":51,"Velocity":53,"Duration":303191,"SoundDuration":303191,"Delta":481109692},{"NoteNumber":56,"Velocity":53,"Duration":303191,"SoundDuration":303191,"Delta":481109692},{"NoteNumber":59,"Velocity":61,"Duration":303191,"SoundDuration":303191,"Delta":481109692},{"NoteNumber":87,"Velocity":73,"Duration":159574,"SoundDuration":159574,"Delta":481269267},{"NoteNumber":82,"Velocity":71,"Duration":303676,"SoundDuration":303676,"Delta":481428841},{"NoteNumber":79,"Velocity":71,"Duration":303676,"SoundDuration":303676,"Delta":481428841},{"NoteNumber":87,"Velocity":75,"Duration":303676,"SoundDuration":303676,"Delta":481428841},{"NoteNumber":91,"Velocity":84,"Duration":303676,"SoundDuration":303676,"Delta":481428841},{"NoteNumber":27,"Velocity":75,"Duration":942222,"SoundDuration":942222,"Delta":481428841},{"NoteNumber":39,"Velocity":90,"Duration":942222,"SoundDuration":942222,"Delta":481428841},{"NoteNumber":79,"Velocity":70,"Duration":300410,"SoundDuration":300410,"Delta":481748500},{"NoteNumber":82,"Velocity":70,"Duration":300410,"SoundDuration":300410,"Delta":481748500},{"NoteNumber":87,"Velocity":74,"Duration":300410,"SoundDuration":300410,"Delta":481748500},{"NoteNumber":91,"Velocity":83,"Duration":300410,"SoundDuration":300410,"Delta":481748500},{"NoteNumber":79,"Velocity":70,"Duration":291024,"SoundDuration":291024,"Delta":482064722},{"NoteNumber":82,"Velocity":70,"Duration":291024,"SoundDuration":291024,"Delta":482064722},{"NoteNumber":87,"Velocity":74,"Duration":291024,"SoundDuration":291024,"Delta":482064722},{"NoteNumber":91,"Velocity":83,"Duration":291024,"SoundDuration":291024,"Delta":482064722},{"NoteNumber":79,"Velocity":70,"Duration":295612,"SoundDuration":295612,"Delta":482371064},{"NoteNumber":82,"Velocity":70,"Duration":295612,"SoundDuration":295612,"Delta":482371064},{"NoteNumber":87,"Velocity":74,"Duration":295612,"SoundDuration":295612,"Delta":482371064},{"NoteNumber":91,"Velocity":83,"Duration":295612,"SoundDuration":295612,"Delta":482371064},{"NoteNumber":62,"Velocity":81,"Duration":923415,"SoundDuration":923415,"Delta":482371064},{"NoteNumber":74,"Velocity":96,"Duration":923415,"SoundDuration":923415,"Delta":482371064},{"NoteNumber":79,"Velocity":70,"Duration":290816,"SoundDuration":290816,"Delta":482682235},{"NoteNumber":82,"Velocity":70,"Duration":290816,"SoundDuration":290816,"Delta":482682235},{"NoteNumber":87,"Velocity":74,"Duration":290816,"SoundDuration":290816,"Delta":482682235},{"NoteNumber":91,"Velocity":83,"Duration":290816,"SoundDuration":290816,"Delta":482682235},{"NoteNumber":79,"Velocity":70,"Duration":290816,"SoundDuration":290816,"Delta":482988357},{"NoteNumber":82,"Velocity":70,"Duration":290816,"SoundDuration":290816,"Delta":482988357},{"NoteNumber":87,"Velocity":74,"Duration":290816,"SoundDuration":290816,"Delta":482988357},{"NoteNumber":91,"Velocity":83,"Duration":290816,"SoundDuration":290816,"Delta":482988357},{"NoteNumber":79,"Velocity":70,"Duration":285000,"SoundDuration":285000,"Delta":483294480},{"NoteNumber":82,"Velocity":70,"Duration":285000,"SoundDuration":285000,"Delta":483294480},{"NoteNumber":87,"Velocity":74,"Duration":285000,"SoundDuration":285000,"Delta":483294480},{"NoteNumber":91,"Velocity":83,"Duration":285000,"SoundDuration":285000,"Delta":483294480},{"NoteNumber":60,"Velocity":77,"Duration":909136,"SoundDuration":909136,"Delta":483294480},{"NoteNumber":72,"Velocity":91,"Duration":909136,"SoundDuration":909136,"Delta":483294480},{"NoteNumber":79,"Velocity":70,"Duration":289340,"SoundDuration":289340,"Delta":483594480},{"NoteNumber":82,"Velocity":70,"Duration":289340,"SoundDuration":289340,"Delta":483594480},{"NoteNumber":87,"Velocity":74,"Duration":289340,"SoundDuration":289340,"Delta":483594480},{"NoteNumber":91,"Velocity":83,"Duration":289340,"SoundDuration":289340,"Delta":483594480},{"NoteNumber":79,"Velocity":70,"Duration":289340,"SoundDuration":289340,"Delta":483899048},{"NoteNumber":82,"Velocity":70,"Duration":289340,"SoundDuration":289340,"Delta":483899048},{"NoteNumber":87,"Velocity":74,"Duration":289340,"SoundDuration":289340,"Delta":483899048},{"NoteNumber":91,"Velocity":83,"Duration":289340,"SoundDuration":289340,"Delta":483899048},{"NoteNumber":82,"Velocity":71,"Duration":279357,"SoundDuration":279357,"Delta":484203617},{"NoteNumber":79,"Velocity":71,"Duration":279357,"SoundDuration":279357,"Delta":484203617},{"NoteNumber":87,"Velocity":75,"Duration":279357,"SoundDuration":279357,"Delta":484203617},{"NoteNumber":91,"Velocity":84,"Duration":279357,"SoundDuration":279357,"Delta":484203617},{"NoteNumber":58,"Velocity":81,"Duration":908739,"SoundDuration":908739,"Delta":484203617},{"NoteNumber":70,"Velocity":96,"Duration":908739,"SoundDuration":908739,"Delta":484203617},{"NoteNumber":75,"Velocity":66,"Duration":290172,"SoundDuration":290172,"Delta":484497677},{"NoteNumber":79,"Velocity":66,"Duration":290172,"SoundDuration":290172,"Delta":484497677},{"NoteNumber":82,"Velocity":70,"Duration":290172,"SoundDuration":290172,"Delta":484497677},{"NoteNumber":87,"Velocity":79,"Duration":290172,"SoundDuration":290172,"Delta":484497677},{"NoteNumber":75,"Velocity":66,"Duration":293814,"SoundDuration":293814,"Delta":484803078},{"NoteNumber":79,"Velocity":66,"Duration":293814,"SoundDuration":293814,"Delta":484803078},{"NoteNumber":82,"Velocity":70,"Duration":293814,"SoundDuration":293814,"Delta":484803078},{"NoteNumber":87,"Velocity":79,"Duration":293814,"SoundDuration":293814,"Delta":484803078},{"NoteNumber":75,"Velocity":66,"Duration":287125,"SoundDuration":287125,"Delta":485112357},{"NoteNumber":79,"Velocity":66,"Duration":287125,"SoundDuration":287125,"Delta":485112357},{"NoteNumber":82,"Velocity":70,"Duration":287125,"SoundDuration":287125,"Delta":485112357},{"NoteNumber":87,"Velocity":79,"Duration":287125,"SoundDuration":287125,"Delta":485112357},{"NoteNumber":55,"Velocity":81,"Duration":917661,"SoundDuration":917661,"Delta":485112357},{"NoteNumber":67,"Velocity":96,"Duration":917661,"SoundDuration":917661,"Delta":485112357},{"NoteNumber":75,"Velocity":66,"Duration":292307,"SoundDuration":292307,"Delta":485414633},{"NoteNumber":79,"Velocity":66,"Duration":292307,"SoundDuration":292307,"Delta":485414633},{"NoteNumber":82,"Velocity":70,"Duration":292307,"SoundDuration":292307,"Delta":485414633},{"NoteNumber":87,"Velocity":79,"Duration":292307,"SoundDuration":292307,"Delta":485414633},{"NoteNumber":75,"Velocity":66,"Duration":292307,"SoundDuration":292307,"Delta":485722326},{"NoteNumber":79,"Velocity":66,"Duration":292307,"SoundDuration":292307,"Delta":485722326},{"NoteNumber":82,"Velocity":70,"Duration":292307,"SoundDuration":292307,"Delta":485722326},{"NoteNumber":87,"Velocity":79,"Duration":292307,"SoundDuration":292307,"Delta":485722326},{"NoteNumber":75,"Velocity":66,"Duration":286432,"SoundDuration":286432,"Delta":486030018},{"NoteNumber":79,"Velocity":66,"Duration":286432,"SoundDuration":286432,"Delta":486030018},{"NoteNumber":82,"Velocity":70,"Duration":286432,"SoundDuration":286432,"Delta":486030018},{"NoteNumber":87,"Velocity":79,"Duration":286432,"SoundDuration":286432,"Delta":486030018},{"NoteNumber":51,"Velocity":81,"Duration":916892,"SoundDuration":916892,"Delta":486030018},{"NoteNumber":63,"Velocity":96,"Duration":916892,"SoundDuration":916892,"Delta":486030018},{"NoteNumber":75,"Velocity":66,"Duration":292307,"SoundDuration":292307,"Delta":486331526},{"NoteNumber":79,"Velocity":66,"Duration":292307,"SoundDuration":292307,"Delta":486331526},{"NoteNumber":82,"Velocity":70,"Duration":292307,"SoundDuration":292307,"Delta":486331526},{"NoteNumber":87,"Velocity":79,"Duration":292307,"SoundDuration":292307,"Delta":486331526},{"NoteNumber":75,"Velocity":66,"Duration":292307,"SoundDuration":292307,"Delta":486639218},{"NoteNumber":79,"Velocity":66,"Duration":292307,"SoundDuration":292307,"Delta":486639218},{"NoteNumber":82,"Velocity":70,"Duration":292307,"SoundDuration":292307,"Delta":486639218},{"NoteNumber":87,"Velocity":79,"Duration":292307,"SoundDuration":292307,"Delta":486639218},{"NoteNumber":79,"Velocity":67,"Duration":279357,"SoundDuration":279357,"Delta":486946911},{"NoteNumber":75,"Velocity":67,"Duration":279357,"SoundDuration":279357,"Delta":486946911},{"NoteNumber":82,"Velocity":71,"Duration":279357,"SoundDuration":279357,"Delta":486946911},{"NoteNumber":87,"Velocity":80,"Duration":279357,"SoundDuration":279357,"Delta":486946911},{"NoteNumber":48,"Velocity":81,"Duration":897075,"SoundDuration":897075,"Delta":486946911},{"NoteNumber":60,"Velocity":96,"Duration":897075,"SoundDuration":897075,"Delta":486946911},{"NoteNumber":70,"Velocity":62,"Duration":286432,"SoundDuration":286432,"Delta":487240971},{"NoteNumber":79,"Velocity":62,"Duration":286432,"SoundDuration":286432,"Delta":487240971},{"NoteNumber":75,"Velocity":67,"Duration":286432,"SoundDuration":286432,"Delta":487240971},{"NoteNumber":82,"Velocity":74,"Duration":286432,"SoundDuration":286432,"Delta":487240971},{"NoteNumber":70,"Velocity":62,"Duration":286432,"SoundDuration":286432,"Delta":487542478},{"NoteNumber":75,"Velocity":62,"Duration":286432,"SoundDuration":286432,"Delta":487542478},{"NoteNumber":79,"Velocity":67,"Duration":286432,"SoundDuration":286432,"Delta":487542478},{"NoteNumber":82,"Velocity":74,"Duration":286432,"SoundDuration":286432,"Delta":487542478},{"NoteNumber":70,"Velocity":62,"Duration":286432,"SoundDuration":286432,"Delta":487843986},{"NoteNumber":75,"Velocity":62,"Duration":286432,"SoundDuration":286432,"Delta":487843986},{"NoteNumber":79,"Velocity":67,"Duration":286432,"SoundDuration":286432,"Delta":487843986},{"NoteNumber":82,"Velocity":74,"Duration":286432,"SoundDuration":286432,"Delta":487843986},{"NoteNumber":46,"Velocity":81,"Duration":911230,"SoundDuration":911230,"Delta":487843986},{"NoteNumber":58,"Velocity":96,"Duration":911230,"SoundDuration":911230,"Delta":487843986},{"NoteNumber":70,"Velocity":62,"Duration":286432,"SoundDuration":286432,"Delta":488145493},{"NoteNumber":75,"Velocity":62,"Duration":286432,"SoundDuration":286432,"Delta":488145493},{"NoteNumber":79,"Velocity":67,"Duration":286432,"SoundDuration":286432,"Delta":488145493},{"NoteNumber":82,"Velocity":74,"Duration":286432,"SoundDuration":286432,"Delta":488145493},{"NoteNumber":70,"Velocity":62,"Duration":292736,"SoundDuration":292736,"Delta":488447001},{"NoteNumber":75,"Velocity":62,"Duration":292736,"SoundDuration":292736,"Delta":488447001},{"NoteNumber":79,"Velocity":67,"Duration":292736,"SoundDuration":292736,"Delta":488447001},{"NoteNumber":82,"Velocity":74,"Duration":292736,"SoundDuration":292736,"Delta":488447001},{"NoteNumber":70,"Velocity":62,"Duration":294542,"SoundDuration":294542,"Delta":488755216},{"NoteNumber":75,"Velocity":62,"Duration":294542,"SoundDuration":294542,"Delta":488755216},{"NoteNumber":79,"Velocity":67,"Duration":294542,"SoundDuration":294542,"Delta":488755216},{"NoteNumber":82,"Velocity":74,"Duration":294542,"SoundDuration":294542,"Delta":488755216},{"NoteNumber":43,"Velocity":81,"Duration":936909,"SoundDuration":936909,"Delta":488755216},{"NoteNumber":55,"Velocity":96,"Duration":936909,"SoundDuration":936909,"Delta":488755216},{"NoteNumber":70,"Velocity":62,"Duration":296653,"SoundDuration":296653,"Delta":489065317},{"NoteNumber":75,"Velocity":62,"Duration":296653,"SoundDuration":296653,"Delta":489065317},{"NoteNumber":79,"Velocity":67,"Duration":296653,"SoundDuration":296653,"Delta":489065317},{"NoteNumber":82,"Velocity":74,"Duration":296653,"SoundDuration":296653,"Delta":489065317},{"NoteNumber":70,"Velocity":62,"Duration":298701,"SoundDuration":298701,"Delta":489377613},{"NoteNumber":75,"Velocity":62,"Duration":298701,"SoundDuration":298701,"Delta":489377613},{"NoteNumber":79,"Velocity":67,"Duration":298701,"SoundDuration":298701,"Delta":489377613},{"NoteNumber":82,"Velocity":74,"Duration":298701,"SoundDuration":298701,"Delta":489377613},{"NoteNumber":63,"Velocity":74,"Duration":1579885,"SoundDuration":1579885,"Delta":489692125},{"NoteNumber":67,"Velocity":74,"Duration":1579885,"SoundDuration":1579885,"Delta":489692125},{"NoteNumber":70,"Velocity":74,"Duration":1579885,"SoundDuration":1579885,"Delta":489692125},{"NoteNumber":75,"Velocity":88,"Duration":1579885,"SoundDuration":1579885,"Delta":489692125},{"NoteNumber":39,"Velocity":44,"Duration":104422,"SoundDuration":104422,"Delta":489692125},{"NoteNumber":46,"Velocity":67,"Duration":104422,"SoundDuration":104422,"Delta":489692125},{"NoteNumber":51,"Velocity":59,"Duration":78494,"SoundDuration":78494,"Delta":489770476},{"NoteNumber":39,"Velocity":44,"Duration":105977,"SoundDuration":105977,"Delta":489848971},{"NoteNumber":46,"Velocity":67,"Duration":105977,"SoundDuration":105977,"Delta":489848971},{"NoteNumber":51,"Velocity":58,"Duration":79340,"SoundDuration":79340,"Delta":489928454},{"NoteNumber":46,"Velocity":68,"Duration":103730,"SoundDuration":103730,"Delta":490007795},{"NoteNumber":39,"Velocity":46,"Duration":103730,"SoundDuration":103730,"Delta":490007795},{"NoteNumber":51,"Velocity":60,"Duration":77802,"SoundDuration":77802,"Delta":490085728},{"NoteNumber":39,"Velocity":46,"Duration":105834,"SoundDuration":105834,"Delta":490163530},{"NoteNumber":46,"Velocity":68,"Duration":105834,"SoundDuration":105834,"Delta":490163530},{"NoteNumber":51,"Velocity":59,"Duration":79482,"SoundDuration":79482,"Delta":490242871},{"NoteNumber":39,"Velocity":44,"Duration":104983,"SoundDuration":104983,"Delta":490322354},{"NoteNumber":46,"Velocity":67,"Duration":104983,"SoundDuration":104983,"Delta":490322354},{"NoteNumber":51,"Velocity":60,"Duration":79197,"SoundDuration":79197,"Delta":490400985},{"NoteNumber":39,"Velocity":46,"Duration":107429,"SoundDuration":107429,"Delta":490480183},{"NoteNumber":46,"Velocity":68,"Duration":107429,"SoundDuration":107429,"Delta":490480183},{"NoteNumber":51,"Velocity":60,"Duration":80801,"SoundDuration":80801,"Delta":490560679},{"NoteNumber":46,"Velocity":68,"Duration":106418,"SoundDuration":106418,"Delta":490641480},{"NoteNumber":39,"Velocity":46,"Duration":106418,"SoundDuration":106418,"Delta":490641480},{"NoteNumber":51,"Velocity":60,"Duration":78631,"SoundDuration":78631,"Delta":490721547},{"NoteNumber":39,"Velocity":44,"Duration":104286,"SoundDuration":104286,"Delta":490800178},{"NoteNumber":46,"Velocity":67,"Duration":104286,"SoundDuration":104286,"Delta":490800178},{"NoteNumber":51,"Velocity":59,"Duration":78214,"SoundDuration":78214,"Delta":490878393},{"NoteNumber":46,"Velocity":67,"Duration":106266,"SoundDuration":106266,"Delta":490956608},{"NoteNumber":39,"Velocity":44,"Duration":106266,"SoundDuration":106266,"Delta":490956608},{"NoteNumber":51,"Velocity":59,"Duration":79770,"SoundDuration":79770,"Delta":491036236},{"NoteNumber":39,"Velocity":44,"Duration":104141,"SoundDuration":104141,"Delta":491116007},{"NoteNumber":46,"Velocity":67,"Duration":104141,"SoundDuration":104141,"Delta":491116007},{"NoteNumber":51,"Velocity":59,"Duration":77792,"SoundDuration":77792,"Delta":491194217},{"NoteNumber":82,"Velocity":82,"Duration":302034,"SoundDuration":302034,"Delta":491272010},{"NoteNumber":79,"Velocity":82,"Duration":302034,"SoundDuration":302034,"Delta":491272010},{"NoteNumber":87,"Velocity":97,"Duration":302034,"SoundDuration":302034,"Delta":491272010},{"NoteNumber":91,"Velocity":97,"Duration":302034,"SoundDuration":302034,"Delta":491272010},{"NoteNumber":39,"Velocity":44,"Duration":105977,"SoundDuration":105977,"Delta":491272010},{"NoteNumber":46,"Velocity":67,"Duration":105977,"SoundDuration":105977,"Delta":491272010},{"NoteNumber":51,"Velocity":59,"Duration":79482,"SoundDuration":79482,"Delta":491351493},{"NoteNumber":39,"Velocity":44,"Duration":105977,"SoundDuration":105977,"Delta":491430976},{"NoteNumber":46,"Velocity":67,"Duration":105977,"SoundDuration":105977,"Delta":491430976},{"NoteNumber":51,"Velocity":59,"Duration":79482,"SoundDuration":79482,"Delta":491510459},{"NoteNumber":79,"Velocity":82,"Duration":631615,"SoundDuration":631615,"Delta":491589942},{"NoteNumber":82,"Velocity":82,"Duration":631615,"SoundDuration":631615,"Delta":491589942},{"NoteNumber":87,"Velocity":97,"Duration":631615,"SoundDuration":631615,"Delta":491589942},{"NoteNumber":91,"Velocity":97,"Duration":631615,"SoundDuration":631615,"Delta":491589942},{"NoteNumber":39,"Velocity":48,"Duration":105550,"SoundDuration":105550,"Delta":491589942},{"NoteNumber":46,"Velocity":69,"Duration":105550,"SoundDuration":105550,"Delta":491589942},{"NoteNumber":51,"Velocity":61,"Duration":78631,"SoundDuration":78631,"Delta":491669284},{"NoteNumber":39,"Velocity":49,"Duration":105977,"SoundDuration":105977,"Delta":491747915},{"NoteNumber":46,"Velocity":71,"Duration":105977,"SoundDuration":105977,"Delta":491747915},{"NoteNumber":51,"Velocity":61,"Duration":79482,"SoundDuration":79482,"Delta":491827398},{"NoteNumber":39,"Velocity":49,"Duration":104282,"SoundDuration":104282,"Delta":491906881},{"NoteNumber":46,"Velocity":71,"Duration":104282,"SoundDuration":104282,"Delta":491906881},{"NoteNumber":51,"Velocity":61,"Duration":78213,"SoundDuration":78213,"Delta":491985232},{"NoteNumber":39,"Velocity":48,"Duration":105407,"SoundDuration":105407,"Delta":492063446},{"NoteNumber":46,"Velocity":69,"Duration":105407,"SoundDuration":105407,"Delta":492063446},{"NoteNumber":51,"Velocity":61,"Duration":79055,"SoundDuration":79055,"Delta":492142501},{"NoteNumber":55,"Velocity":74,"Duration":317478,"SoundDuration":317478,"Delta":492221557},{"NoteNumber":58,"Velocity":74,"Duration":317478,"SoundDuration":317478,"Delta":492221557},{"NoteNumber":63,"Velocity":89,"Duration":317478,"SoundDuration":317478,"Delta":492221557},{"NoteNumber":39,"Velocity":73,"Duration":334187,"SoundDuration":334187,"Delta":492221557},{"NoteNumber":46,"Velocity":73,"Duration":334187,"SoundDuration":334187,"Delta":492221557},{"NoteNumber":51,"Velocity":73,"Duration":334187,"SoundDuration":334187,"Delta":492221557},{"NoteNumber":55,"Velocity":74,"Duration":111238,"SoundDuration":111238,"Delta":492555744},{"NoteNumber":58,"Velocity":74,"Duration":111238,"SoundDuration":111238,"Delta":492555744},{"NoteNumber":39,"Velocity":73,"Duration":111238,"SoundDuration":111238,"Delta":492555744},{"NoteNumber":46,"Velocity":73,"Duration":111238,"SoundDuration":111238,"Delta":492555744},{"NoteNumber":63,"Velocity":57,"Duration":83074,"SoundDuration":83074,"Delta":492639291},{"NoteNumber":51,"Velocity":52,"Duration":83074,"SoundDuration":83074,"Delta":492639291},{"NoteNumber":55,"Velocity":42,"Duration":110156,"SoundDuration":110156,"Delta":492722366},{"NoteNumber":58,"Velocity":67,"Duration":110156,"SoundDuration":110156,"Delta":492722366},{"NoteNumber":39,"Velocity":39,"Duration":110156,"SoundDuration":110156,"Delta":492722366},{"NoteNumber":46,"Velocity":60,"Duration":110156,"SoundDuration":110156,"Delta":492722366},{"NoteNumber":63,"Velocity":56,"Duration":82303,"SoundDuration":82303,"Delta":492804984},{"NoteNumber":51,"Velocity":53,"Duration":82303,"SoundDuration":82303,"Delta":492804984},{"NoteNumber":58,"Velocity":69,"Duration":109063,"SoundDuration":109063,"Delta":492887287},{"NoteNumber":55,"Velocity":46,"Duration":109063,"SoundDuration":109063,"Delta":492887287},{"NoteNumber":39,"Velocity":41,"Duration":109063,"SoundDuration":109063,"Delta":492887287},{"NoteNumber":46,"Velocity":62,"Duration":109063,"SoundDuration":109063,"Delta":492887287},{"NoteNumber":63,"Velocity":57,"Duration":81534,"SoundDuration":81534,"Delta":492969124},{"NoteNumber":51,"Velocity":54,"Duration":81534,"SoundDuration":81534,"Delta":492969124},{"NoteNumber":55,"Velocity":47,"Duration":108027,"SoundDuration":108027,"Delta":493050658},{"NoteNumber":58,"Velocity":71,"Duration":108027,"SoundDuration":108027,"Delta":493050658},{"NoteNumber":39,"Velocity":42,"Duration":108027,"SoundDuration":108027,"Delta":493050658},{"NoteNumber":46,"Velocity":63,"Duration":108027,"SoundDuration":108027,"Delta":493050658},{"NoteNumber":63,"Velocity":58,"Duration":80801,"SoundDuration":80801,"Delta":493131751},{"NoteNumber":51,"Velocity":55,"Duration":80801,"SoundDuration":80801,"Delta":493131751},{"NoteNumber":55,"Velocity":45,"Duration":106981,"SoundDuration":106981,"Delta":493212553},{"NoteNumber":58,"Velocity":71,"Duration":106981,"SoundDuration":106981,"Delta":493212553},{"NoteNumber":39,"Velocity":42,"Duration":106981,"SoundDuration":106981,"Delta":493212553},{"NoteNumber":46,"Velocity":63,"Duration":106981,"SoundDuration":106981,"Delta":493212553},{"NoteNumber":63,"Velocity":60,"Duration":79914,"SoundDuration":79914,"Delta":493292895},{"NoteNumber":51,"Velocity":57,"Duration":79914,"SoundDuration":79914,"Delta":493292895},{"NoteNumber":55,"Velocity":49,"Duration":105977,"SoundDuration":105977,"Delta":493372810},{"NoteNumber":58,"Velocity":74,"Duration":105977,"SoundDuration":105977,"Delta":493372810},{"NoteNumber":46,"Velocity":66,"Duration":105977,"SoundDuration":105977,"Delta":493372810},{"NoteNumber":39,"Velocity":44,"Duration":105977,"SoundDuration":105977,"Delta":493372810},{"NoteNumber":63,"Velocity":59,"Duration":79197,"SoundDuration":79197,"Delta":493452293},{"NoteNumber":51,"Velocity":59,"Duration":79197,"SoundDuration":79197,"Delta":493452293},{"NoteNumber":58,"Velocity":75,"Duration":104976,"SoundDuration":104976,"Delta":493531491},{"NoteNumber":55,"Velocity":50,"Duration":104976,"SoundDuration":104976,"Delta":493531491},{"NoteNumber":39,"Velocity":45,"Duration":104976,"SoundDuration":104976,"Delta":493531491},{"NoteNumber":46,"Velocity":67,"Duration":104976,"SoundDuration":104976,"Delta":493531491},{"NoteNumber":63,"Velocity":60,"Duration":78487,"SoundDuration":78487,"Delta":493610259},{"NoteNumber":51,"Velocity":59,"Duration":78487,"SoundDuration":78487,"Delta":493610259},{"NoteNumber":55,"Velocity":48,"Duration":104004,"SoundDuration":104004,"Delta":493688747},{"NoteNumber":58,"Velocity":75,"Duration":104004,"SoundDuration":104004,"Delta":493688747},{"NoteNumber":39,"Velocity":44,"Duration":104004,"SoundDuration":104004,"Delta":493688747},{"NoteNumber":46,"Velocity":67,"Duration":104004,"SoundDuration":104004,"Delta":493688747},{"NoteNumber":63,"Velocity":61,"Duration":77792,"SoundDuration":77792,"Delta":493766821},{"NoteNumber":51,"Velocity":60,"Duration":77792,"SoundDuration":77792,"Delta":493766821},{"NoteNumber":58,"Velocity":77,"Duration":103053,"SoundDuration":103053,"Delta":493844614},{"NoteNumber":55,"Velocity":49,"Duration":103053,"SoundDuration":103053,"Delta":493844614},{"NoteNumber":46,"Velocity":69,"Duration":103053,"SoundDuration":103053,"Delta":493844614},{"NoteNumber":39,"Velocity":45,"Duration":103053,"SoundDuration":103053,"Delta":493844614},{"NoteNumber":63,"Velocity":64,"Duration":76986,"SoundDuration":76986,"Delta":493922005},{"NoteNumber":51,"Velocity":62,"Duration":76986,"SoundDuration":76986,"Delta":493922005},{"NoteNumber":55,"Velocity":50,"Duration":102247,"SoundDuration":102247,"Delta":493998991},{"NoteNumber":58,"Velocity":79,"Duration":102247,"SoundDuration":102247,"Delta":493998991},{"NoteNumber":46,"Velocity":70,"Duration":102247,"SoundDuration":102247,"Delta":493998991},{"NoteNumber":39,"Velocity":46,"Duration":102247,"SoundDuration":102247,"Delta":493998991},{"NoteNumber":63,"Velocity":66,"Duration":76315,"SoundDuration":76315,"Delta":494075710},{"NoteNumber":51,"Velocity":61,"Duration":76315,"SoundDuration":76315,"Delta":494075710},{"NoteNumber":55,"Velocity":51,"Duration":101317,"SoundDuration":101317,"Delta":494152026},{"NoteNumber":58,"Velocity":80,"Duration":101317,"SoundDuration":101317,"Delta":494152026},{"NoteNumber":39,"Velocity":47,"Duration":101317,"SoundDuration":101317,"Delta":494152026},{"NoteNumber":46,"Velocity":71,"Duration":101317,"SoundDuration":101317,"Delta":494152026},{"NoteNumber":63,"Velocity":65,"Duration":76315,"SoundDuration":76315,"Delta":494227950},{"NoteNumber":51,"Velocity":62,"Duration":76315,"SoundDuration":76315,"Delta":494227950},{"NoteNumber":55,"Velocity":52,"Duration":102649,"SoundDuration":102649,"Delta":494304266},{"NoteNumber":58,"Velocity":81,"Duration":102649,"SoundDuration":102649,"Delta":494304266},{"NoteNumber":39,"Velocity":48,"Duration":102649,"SoundDuration":102649,"Delta":494304266},{"NoteNumber":46,"Velocity":73,"Duration":102649,"SoundDuration":102649,"Delta":494304266},{"NoteNumber":63,"Velocity":65,"Duration":77525,"SoundDuration":77525,"Delta":494381118},{"NoteNumber":51,"Velocity":63,"Duration":77525,"SoundDuration":77525,"Delta":494381118},{"NoteNumber":58,"Velocity":84,"Duration":104282,"SoundDuration":104282,"Delta":494458644},{"NoteNumber":55,"Velocity":56,"Duration":104282,"SoundDuration":104282,"Delta":494458644},{"NoteNumber":39,"Velocity":50,"Duration":104282,"SoundDuration":104282,"Delta":494458644},{"NoteNumber":46,"Velocity":75,"Duration":104282,"SoundDuration":104282,"Delta":494458644},{"NoteNumber":63,"Velocity":66,"Duration":78768,"SoundDuration":78768,"Delta":494536718},{"NoteNumber":51,"Velocity":64,"Duration":78768,"SoundDuration":78768,"Delta":494536718},{"NoteNumber":55,"Velocity":57,"Duration":106265,"SoundDuration":106265,"Delta":494615486},{"NoteNumber":58,"Velocity":85,"Duration":106265,"SoundDuration":106265,"Delta":494615486},{"NoteNumber":46,"Velocity":76,"Duration":106265,"SoundDuration":106265,"Delta":494615486},{"NoteNumber":39,"Velocity":51,"Duration":106265,"SoundDuration":106265,"Delta":494615486},{"NoteNumber":63,"Velocity":72,"Duration":80200,"SoundDuration":80200,"Delta":494695113},{"NoteNumber":51,"Velocity":67,"Duration":80200,"SoundDuration":80200,"Delta":494695113},{"NoteNumber":55,"Velocity":55,"Duration":108027,"SoundDuration":108027,"Delta":494775313},{"NoteNumber":58,"Velocity":86,"Duration":108027,"SoundDuration":108027,"Delta":494775313},{"NoteNumber":39,"Velocity":51,"Duration":108027,"SoundDuration":108027,"Delta":494775313},{"NoteNumber":46,"Velocity":77,"Duration":108027,"SoundDuration":108027,"Delta":494775313},{"NoteNumber":63,"Velocity":73,"Duration":81534,"SoundDuration":81534,"Delta":494856260},{"NoteNumber":51,"Velocity":68,"Duration":81534,"SoundDuration":81534,"Delta":494856260},{"NoteNumber":55,"Velocity":59,"Duration":109995,"SoundDuration":109995,"Delta":494937794},{"NoteNumber":58,"Velocity":89,"Duration":109995,"SoundDuration":109995,"Delta":494937794},{"NoteNumber":39,"Velocity":53,"Duration":109995,"SoundDuration":109995,"Delta":494937794},{"NoteNumber":46,"Velocity":79,"Duration":109995,"SoundDuration":109995,"Delta":494937794},{"NoteNumber":63,"Velocity":75,"Duration":83232,"SoundDuration":83232,"Delta":495020098},{"NoteNumber":51,"Velocity":71,"Duration":83232,"SoundDuration":83232,"Delta":495020098},{"NoteNumber":58,"Velocity":90,"Duration":112030,"SoundDuration":112030,"Delta":495103330},{"NoteNumber":55,"Velocity":60,"Duration":112030,"SoundDuration":112030,"Delta":495103330},{"NoteNumber":39,"Velocity":54,"Duration":112030,"SoundDuration":112030,"Delta":495103330},{"NoteNumber":46,"Velocity":81,"Duration":112030,"SoundDuration":112030,"Delta":495103330},{"NoteNumber":63,"Velocity":74,"Duration":84666,"SoundDuration":84666,"Delta":495187195},{"NoteNumber":51,"Velocity":72,"Duration":84666,"SoundDuration":84666,"Delta":495187195},{"NoteNumber":55,"Velocity":57,"Duration":113991,"SoundDuration":113991,"Delta":495271862},{"NoteNumber":58,"Velocity":90,"Duration":113991,"SoundDuration":113991,"Delta":495271862},{"NoteNumber":39,"Velocity":53,"Duration":113991,"SoundDuration":113991,"Delta":495271862},{"NoteNumber":46,"Velocity":80,"Duration":113991,"SoundDuration":113991,"Delta":495271862},{"NoteNumber":63,"Velocity":75,"Duration":86158,"SoundDuration":86158,"Delta":495357190},{"NoteNumber":51,"Velocity":71,"Duration":86158,"SoundDuration":86158,"Delta":495357190},{"NoteNumber":75,"Velocity":99,"Duration":348068,"SoundDuration":348068,"Delta":495443348},{"NoteNumber":79,"Velocity":99,"Duration":348068,"SoundDuration":348068,"Delta":495443348},{"NoteNumber":82,"Velocity":103,"Duration":348068,"SoundDuration":348068,"Delta":495443348},{"NoteNumber":87,"Velocity":105,"Duration":348068,"SoundDuration":348068,"Delta":495443348},{"NoteNumber":27,"Velocity":79,"Duration":348068,"SoundDuration":348068,"Delta":495443348},{"NoteNumber":39,"Velocity":91,"Duration":348068,"SoundDuration":348068,"Delta":495443348}],"license":{"name":"Creative Commons Attribution-ShareAlike 3.0 Germany","url":"http://creativecommons.org/licenses/by-sa/3.0/de/deed.en","text":"The MIDI, audio (MP3, OGG) and video files of Bernd Krueger are licensed under the cc-by-sa Germany License. This means that you can use and adapt the files, as long as you attribute the copyright holder.\n\nName: Bernd Krueger\nSource: http://www.piano-midi.de\n\nThe distribution or public playback of the files is only allowed under identical license conditions.\n\nThe scores are open source.","attribution":"MIDI files by Bernd Krueger (piano-midi.de)","attributionUrl":"http://www.piano-midi.de"}}