{"title":"Zu Weihnachten - Fantasie","artist":"Christmas","durationMs":391300,"midiSha256":"43fb503250b4aa962425178b6763d8cf984ff26e9092cf2a42c87d894985b4f7","midiObject":[{"NoteNumber":63,"Velocity":66,"Duration":971766,"SoundDuration":971766,"Delta":0},{"NoteNumber":58,"Velocity":56,"Duration":971766,"SoundDuration":971766,"Delta":0},{"NoteNumber":55,"Velocity":56,"Duration":971766,"SoundDuration":971766,"Delta":0},{"NoteNumber":51,"Velocity":41,"Duration":971766,"SoundDuration":971766,"Delta":0},{"NoteNumber":55,"Velocity":49,"Duration":971766,"SoundDuration":971766,"Delta":0},{"NoteNumber":58,"Velocity":61,"Duration":1004652,"SoundDuration":1004652,"Delta":981996},{"NoteNumber":62,"Velocity":72,"Duration":1004652,"SoundDuration":1004652,"Delta":981996},{"NoteNumber":53,"Velocity":55,"Duration":1004652,"SoundDuration":1004652,"Delta":981996},{"NoteNumber":46,"Velocity":46,"Duration":1004652,"SoundDuration":1004652,"Delta":981996},{"NoteNumber":57,"Velocity":57,"Duration":1035310,"SoundDuration":1035310,"Delta":1997224},{"NoteNumber":60,"Velocity":68,"Duration":1035310,"SoundDuration":1035310,"Delta":1997224},{"NoteNumber":53,"Velocity":51,"Duration":1035310,"SoundDuration":1035310,"Delta":1997224},{"NoteNumber":41,"Velocity":43,"Duration":1035310,"SoundDuration":1035310,"Delta":1997224},{"NoteNumber":58,"Velocity":59,"Duration":1008921,"SoundDuration":1008921,"Delta":3043433},{"NoteNumber":62,"Velocity":70,"Duration":1008921,"SoundDuration":1008921,"Delta":3043433},{"NoteNumber":46,"Velocity":45,"Duration":1008921,"SoundDuration":1008921,"Delta":3043433},{"NoteNumber":53,"Velocity":54,"Duration":1008921,"SoundDuration":1008921,"Delta":3043433},{"NoteNumber":58,"Velocity":81,"Duration":1035310,"SoundDuration":1035310,"Delta":4062974},{"NoteNumber":55,"Velocity":68,"Duration":1035310,"SoundDuration":1035310,"Delta":4062974},{"NoteNumber":51,"Velocity":54,"Duration":1035310,"SoundDuration":1035310,"Delta":4062974},{"NoteNumber":39,"Velocity":45,"Duration":1035310,"SoundDuration":1035310,"Delta":4062974},{"NoteNumber":60,"Velocity":82,"Duration":1039842,"SoundDuration":1039842,"Delta":5109182},{"NoteNumber":56,"Velocity":69,"Duration":1039842,"SoundDuration":1039842,"Delta":5109182},{"NoteNumber":44,"Velocity":46,"Duration":1039842,"SoundDuration":1039842,"Delta":5109182},{"NoteNumber":51,"Velocity":55,"Duration":1039842,"SoundDuration":1039842,"Delta":5109182},{"NoteNumber":56,"Velocity":70,"Duration":1063115,"SoundDuration":1063115,"Delta":6159970},{"NoteNumber":62,"Velocity":83,"Duration":1063115,"SoundDuration":1063115,"Delta":6159970},{"NoteNumber":41,"Velocity":50,"Duration":1063115,"SoundDuration":1063115,"Delta":6159970},{"NoteNumber":46,"Velocity":60,"Duration":1063115,"SoundDuration":1063115,"Delta":6159970},{"NoteNumber":55,"Velocity":76,"Duration":1063115,"SoundDuration":1063115,"Delta":7234277},{"NoteNumber":63,"Velocity":86,"Duration":1063115,"SoundDuration":1063115,"Delta":7234277},{"NoteNumber":39,"Velocity":50,"Duration":1063115,"SoundDuration":1063115,"Delta":7234277},{"NoteNumber":46,"Velocity":60,"Duration":1063115,"SoundDuration":1063115,"Delta":7234277},{"NoteNumber":39,"Velocity":39,"Duration":96061,"SoundDuration":96061,"Delta":8308583},{"NoteNumber":46,"Velocity":35,"Duration":96061,"SoundDuration":96061,"Delta":8404644},{"NoteNumber":51,"Velocity":35,"Duration":96061,"SoundDuration":96061,"Delta":8500706},{"NoteNumber":55,"Velocity":39,"Duration":91658,"SoundDuration":91658,"Delta":8596767},{"NoteNumber":58,"Velocity":35,"Duration":91658,"SoundDuration":91658,"Delta":8688426},{"NoteNumber":63,"Velocity":35,"Duration":91658,"SoundDuration":91658,"Delta":8780085},{"NoteNumber":67,"Velocity":50,"Duration":90380,"SoundDuration":90380,"Delta":8871744},{"NoteNumber":70,"Velocity":44,"Duration":89346,"SoundDuration":89346,"Delta":8962125},{"NoteNumber":75,"Velocity":44,"Duration":88574,"SoundDuration":88574,"Delta":9051471},{"NoteNumber":70,"Velocity":54,"Duration":87917,"SoundDuration":87917,"Delta":9140045},{"NoteNumber":67,"Velocity":51,"Duration":87118,"SoundDuration":87118,"Delta":9227963},{"NoteNumber":70,"Velocity":52,"Duration":86515,"SoundDuration":86515,"Delta":9315081},{"NoteNumber":75,"Velocity":61,"Duration":85745,"SoundDuration":85745,"Delta":9401597},{"NoteNumber":79,"Velocity":57,"Duration":85161,"SoundDuration":85161,"Delta":9487342},{"NoteNumber":82,"Velocity":61,"Duration":85255,"SoundDuration":85255,"Delta":9572504},{"NoteNumber":87,"Velocity":67,"Duration":90555,"SoundDuration":90555,"Delta":9657760},{"NoteNumber":91,"Velocity":58,"Duration":97545,"SoundDuration":97545,"Delta":9748315},{"NoteNumber":94,"Velocity":53,"Duration":105627,"SoundDuration":105627,"Delta":9845861},{"NoteNumber":99,"Velocity":60,"Duration":981996,"SoundDuration":981996,"Delta":9951488},{"NoteNumber":63,"Velocity":59,"Duration":1017828,"SoundDuration":1017828,"Delta":10933485},{"NoteNumber":60,"Velocity":69,"Duration":1017828,"SoundDuration":1017828,"Delta":10933485},{"NoteNumber":55,"Velocity":49,"Duration":1017828,"SoundDuration":1017828,"Delta":10933485},{"NoteNumber":48,"Velocity":41,"Duration":1017828,"SoundDuration":1017828,"Delta":10933485},{"NoteNumber":63,"Velocity":74,"Duration":1013224,"SoundDuration":1013224,"Delta":11962027},{"NoteNumber":60,"Velocity":62,"Duration":1013224,"SoundDuration":1013224,"Delta":11962027},{"NoteNumber":56,"Velocity":54,"Duration":1013224,"SoundDuration":1013224,"Delta":11962027},{"NoteNumber":44,"Velocity":45,"Duration":1013224,"SoundDuration":1013224,"Delta":11962027},{"NoteNumber":58,"Velocity":75,"Duration":1039842,"SoundDuration":1039842,"Delta":12985917},{"NoteNumber":43,"Velocity":39,"Duration":1039842,"SoundDuration":1039842,"Delta":12985917},{"NoteNumber":51,"Velocity":54,"Duration":1039842,"SoundDuration":1039842,"Delta":12985917},{"NoteNumber":53,"Velocity":61,"Duration":1021944,"SoundDuration":1021944,"Delta":14036705},{"NoteNumber":58,"Velocity":73,"Duration":1021944,"SoundDuration":1021944,"Delta":14036705},{"NoteNumber":46,"Velocity":53,"Duration":1021944,"SoundDuration":1021944,"Delta":14036705},{"NoteNumber":38,"Velocity":44,"Duration":1021944,"SoundDuration":1021944,"Delta":14036705},{"NoteNumber":51,"Velocity":66,"Duration":1058377,"SoundDuration":1058377,"Delta":15069407},{"NoteNumber":55,"Velocity":77,"Duration":1058377,"SoundDuration":1058377,"Delta":15069407},{"NoteNumber":39,"Velocity":45,"Duration":1058377,"SoundDuration":1058377,"Delta":15069407},{"NoteNumber":46,"Velocity":54,"Duration":1058377,"SoundDuration":1058377,"Delta":15069407},{"NoteNumber":58,"Velocity":81,"Duration":1039842,"SoundDuration":1039842,"Delta":16138925},{"NoteNumber":55,"Velocity":68,"Duration":1039842,"SoundDuration":1039842,"Delta":16138925},{"NoteNumber":40,"Velocity":49,"Duration":1039842,"SoundDuration":1039842,"Delta":16138925},{"NoteNumber":49,"Velocity":59,"Duration":1039842,"SoundDuration":1039842,"Delta":16138925},{"NoteNumber":56,"Velocity":68,"Duration":1068039,"SoundDuration":1068039,"Delta":17189713},{"NoteNumber":53,"Velocity":57,"Duration":1068039,"SoundDuration":1068039,"Delta":17189713},{"NoteNumber":48,"Velocity":59,"Duration":1068039,"SoundDuration":1068039,"Delta":17189713},{"NoteNumber":41,"Velocity":66,"Duration":530035,"SoundDuration":530035,"Delta":17189713},{"NoteNumber":44,"Velocity":61,"Duration":549451,"SoundDuration":549451,"Delta":17719748},{"NoteNumber":51,"Velocity":61,"Duration":1039842,"SoundDuration":1039842,"Delta":18269199},{"NoteNumber":55,"Velocity":73,"Duration":1039842,"SoundDuration":1039842,"Delta":18269199},{"NoteNumber":36,"Velocity":50,"Duration":1039842,"SoundDuration":1039842,"Delta":18269199},{"NoteNumber":48,"Velocity":60,"Duration":1039842,"SoundDuration":1039842,"Delta":18269199},{"NoteNumber":36,"Velocity":39,"Duration":96061,"SoundDuration":96061,"Delta":19319987},{"NoteNumber":48,"Velocity":35,"Duration":96061,"SoundDuration":96061,"Delta":19416049},{"NoteNumber":51,"Velocity":35,"Duration":96061,"SoundDuration":96061,"Delta":19512110},{"NoteNumber":55,"Velocity":39,"Duration":91658,"SoundDuration":91658,"Delta":19608172},{"NoteNumber":60,"Velocity":35,"Duration":91658,"SoundDuration":91658,"Delta":19699831},{"NoteNumber":63,"Velocity":35,"Duration":91658,"SoundDuration":91658,"Delta":19791490},{"NoteNumber":67,"Velocity":50,"Duration":90380,"SoundDuration":90380,"Delta":19883149},{"NoteNumber":72,"Velocity":44,"Duration":89346,"SoundDuration":89346,"Delta":19973529},{"NoteNumber":75,"Velocity":44,"Duration":88574,"SoundDuration":88574,"Delta":20062876},{"NoteNumber":72,"Velocity":54,"Duration":87917,"SoundDuration":87917,"Delta":20151450},{"NoteNumber":67,"Velocity":51,"Duration":87118,"SoundDuration":87118,"Delta":20239368},{"NoteNumber":72,"Velocity":52,"Duration":86515,"SoundDuration":86515,"Delta":20326486},{"NoteNumber":75,"Velocity":61,"Duration":85745,"SoundDuration":85745,"Delta":20413001},{"NoteNumber":79,"Velocity":57,"Duration":85161,"SoundDuration":85161,"Delta":20498747},{"NoteNumber":84,"Velocity":61,"Duration":85255,"SoundDuration":85255,"Delta":20583908},{"NoteNumber":87,"Velocity":67,"Duration":67325,"SoundDuration":67325,"Delta":20669164},{"NoteNumber":91,"Velocity":59,"Duration":71016,"SoundDuration":71016,"Delta":20736490},{"NoteNumber":96,"Velocity":56,"Duration":75315,"SoundDuration":75315,"Delta":20807506},{"NoteNumber":99,"Velocity":55,"Duration":80071,"SoundDuration":80071,"Delta":20882822},{"NoteNumber":103,"Velocity":63,"Duration":981996,"SoundDuration":981996,"Delta":20962893},{"NoteNumber":55,"Velocity":66,"Duration":1040754,"SoundDuration":1040754,"Delta":21944890},{"NoteNumber":51,"Velocity":55,"Duration":1040754,"SoundDuration":1040754,"Delta":21944890},{"NoteNumber":48,"Velocity":51,"Duration":525855,"SoundDuration":525855,"Delta":21944890},{"NoteNumber":46,"Velocity":58,"Duration":525855,"SoundDuration":525855,"Delta":22470745},{"NoteNumber":60,"Velocity":74,"Duration":1004652,"SoundDuration":1004652,"Delta":22996600},{"NoteNumber":56,"Velocity":62,"Duration":1004652,"SoundDuration":1004652,"Delta":22996600},{"NoteNumber":44,"Velocity":43,"Duration":1004652,"SoundDuration":1004652,"Delta":22996600},{"NoteNumber":51,"Velocity":51,"Duration":1004652,"SoundDuration":1004652,"Delta":22996600},{"NoteNumber":60,"Velocity":72,"Duration":1039842,"SoundDuration":1039842,"Delta":24011828},{"NoteNumber":56,"Velocity":61,"Duration":1039842,"SoundDuration":1039842,"Delta":24011828},{"NoteNumber":41,"Velocity":41,"Duration":1039842,"SoundDuration":1039842,"Delta":24011828},{"NoteNumber":50,"Velocity":50,"Duration":1039842,"SoundDuration":1039842,"Delta":24011828},{"NoteNumber":58,"Velocity":79,"Duration":1021944,"SoundDuration":1021944,"Delta":25062616},{"NoteNumber":43,"Velocity":45,"Duration":1021944,"SoundDuration":1021944,"Delta":25062616},{"NoteNumber":51,"Velocity":54,"Duration":1021944,"SoundDuration":1021944,"Delta":25062616},{"NoteNumber":56,"Velocity":69,"Duration":1039842,"SoundDuration":1039842,"Delta":26095318},{"NoteNumber":62,"Velocity":82,"Duration":1039842,"SoundDuration":1039842,"Delta":26095318},{"NoteNumber":53,"Velocity":52,"Duration":1039842,"SoundDuration":1039842,"Delta":26095318},{"NoteNumber":47,"Velocity":44,"Duration":1039842,"SoundDuration":1039842,"Delta":26095318},{"NoteNumber":63,"Velocity":86,"Duration":1039842,"SoundDuration":1039842,"Delta":27146106},{"NoteNumber":55,"Velocity":74,"Duration":1039842,"SoundDuration":1039842,"Delta":27146106},{"NoteNumber":51,"Velocity":56,"Duration":1039842,"SoundDuration":1039842,"Delta":27146106},{"NoteNumber":48,"Velocity":48,"Duration":1039842,"SoundDuration":1039842,"Delta":27146106},{"NoteNumber":60,"Velocity":76,"Duration":1058377,"SoundDuration":1058377,"Delta":28196894},{"NoteNumber":57,"Velocity":61,"Duration":1058377,"SoundDuration":1058377,"Delta":28196894},{"NoteNumber":41,"Velocity":41,"Duration":1058377,"SoundDuration":1058377,"Delta":28196894},{"NoteNumber":51,"Velocity":50,"Duration":1058377,"SoundDuration":1058377,"Delta":28196894},{"NoteNumber":58,"Velocity":76,"Duration":1058377,"SoundDuration":1058377,"Delta":29266412},{"NoteNumber":50,"Velocity":52,"Duration":1058377,"SoundDuration":1058377,"Delta":29266412},{"NoteNumber":46,"Velocity":44,"Duration":1058377,"SoundDuration":1058377,"Delta":29266412},{"NoteNumber":46,"Velocity":39,"Duration":96061,"SoundDuration":96061,"Delta":30335930},{"NoteNumber":53,"Velocity":35,"Duration":96061,"SoundDuration":96061,"Delta":30431991},{"NoteNumber":58,"Velocity":35,"Duration":96061,"SoundDuration":96061,"Delta":30528053},{"NoteNumber":62,"Velocity":39,"Duration":91658,"SoundDuration":91658,"Delta":30624114},{"NoteNumber":65,"Velocity":35,"Duration":91658,"SoundDuration":91658,"Delta":30715773},{"NoteNumber":70,"Velocity":35,"Duration":91658,"SoundDuration":91658,"Delta":30807432},{"NoteNumber":74,"Velocity":50,"Duration":90380,"SoundDuration":90380,"Delta":30899091},{"NoteNumber":77,"Velocity":44,"Duration":89346,"SoundDuration":89346,"Delta":30989472},{"NoteNumber":82,"Velocity":44,"Duration":88574,"SoundDuration":88574,"Delta":31078818},{"NoteNumber":77,"Velocity":57,"Duration":87917,"SoundDuration":87917,"Delta":31167393},{"NoteNumber":74,"Velocity":54,"Duration":87118,"SoundDuration":87118,"Delta":31255310},{"NoteNumber":77,"Velocity":54,"Duration":86574,"SoundDuration":86574,"Delta":31342429},{"NoteNumber":82,"Velocity":67,"Duration":91945,"SoundDuration":91945,"Delta":31429003},{"NoteNumber":86,"Velocity":63,"Duration":102049,"SoundDuration":102049,"Delta":31520949},{"NoteNumber":89,"Velocity":61,"Duration":111905,"SoundDuration":111905,"Delta":31622998},{"NoteNumber":94,"Velocity":57,"Duration":964629,"SoundDuration":964629,"Delta":31734904},{"NoteNumber":63,"Velocity":80,"Duration":1021944,"SoundDuration":1021944,"Delta":32699534},{"NoteNumber":60,"Velocity":67,"Duration":1021944,"SoundDuration":1021944,"Delta":32699534},{"NoteNumber":48,"Velocity":38,"Duration":1021944,"SoundDuration":1021944,"Delta":32699534},{"NoteNumber":55,"Velocity":45,"Duration":1021944,"SoundDuration":1021944,"Delta":32699534},{"NoteNumber":62,"Velocity":85,"Duration":1017566,"SoundDuration":1017566,"Delta":33732236},{"NoteNumber":58,"Velocity":72,"Duration":1017566,"SoundDuration":1017566,"Delta":33732236},{"NoteNumber":43,"Velocity":43,"Duration":1017566,"SoundDuration":1017566,"Delta":33732236},{"NoteNumber":55,"Velocity":51,"Duration":1017566,"SoundDuration":1017566,"Delta":33732236},{"NoteNumber":60,"Velocity":85,"Duration":1053682,"SoundDuration":1053682,"Delta":34760514},{"NoteNumber":56,"Velocity":71,"Duration":1053682,"SoundDuration":1053682,"Delta":34760514},{"NoteNumber":44,"Velocity":43,"Duration":1053682,"SoundDuration":1053682,"Delta":34760514},{"NoteNumber":51,"Velocity":52,"Duration":1053682,"SoundDuration":1053682,"Delta":34760514},{"NoteNumber":55,"Velocity":76,"Duration":1044414,"SoundDuration":1044414,"Delta":35825288},{"NoteNumber":58,"Velocity":89,"Duration":1044414,"SoundDuration":1044414,"Delta":35825288},{"NoteNumber":51,"Velocity":55,"Duration":1044414,"SoundDuration":1044414,"Delta":35825288},{"NoteNumber":39,"Velocity":46,"Duration":1044414,"SoundDuration":1044414,"Delta":35825288},{"NoteNumber":55,"Velocity":85,"Duration":1039842,"SoundDuration":1039842,"Delta":36880696},{"NoteNumber":49,"Velocity":55,"Duration":1039842,"SoundDuration":1039842,"Delta":36880696},{"NoteNumber":40,"Velocity":44,"Duration":1039842,"SoundDuration":1039842,"Delta":36880696},{"NoteNumber":53,"Velocity":58,"Duration":527704,"SoundDuration":527704,"Delta":37931484},{"NoteNumber":56,"Velocity":69,"Duration":527704,"SoundDuration":527704,"Delta":37931484},{"NoteNumber":41,"Velocity":38,"Duration":1044414,"SoundDuration":1044414,"Delta":37931484},{"NoteNumber":48,"Velocity":45,"Duration":1044414,"SoundDuration":1044414,"Delta":37931484},{"NoteNumber":55,"Velocity":63,"Duration":527704,"SoundDuration":527704,"Delta":38459188},{"NoteNumber":53,"Velocity":60,"Duration":1049027,"SoundDuration":1049027,"Delta":38986892},{"NoteNumber":50,"Velocity":50,"Duration":1049027,"SoundDuration":1049027,"Delta":38986892},{"NoteNumber":34,"Velocity":33,"Duration":1049027,"SoundDuration":1049027,"Delta":38986892},{"NoteNumber":44,"Velocity":39,"Duration":1049027,"SoundDuration":1049027,"Delta":38986892},{"NoteNumber":51,"Velocity":67,"Duration":1049027,"SoundDuration":1049027,"Delta":40046962},{"NoteNumber":43,"Velocity":45,"Duration":1049027,"SoundDuration":1049027,"Delta":40046962},{"NoteNumber":39,"Velocity":38,"Duration":1049027,"SoundDuration":1049027,"Delta":40046962},{"NoteNumber":39,"Velocity":39,"Duration":96061,"SoundDuration":96061,"Delta":41107032},{"NoteNumber":46,"Velocity":35,"Duration":96061,"SoundDuration":96061,"Delta":41203093},{"NoteNumber":51,"Velocity":35,"Duration":96061,"SoundDuration":96061,"Delta":41299155},{"NoteNumber":55,"Velocity":39,"Duration":91658,"SoundDuration":91658,"Delta":41395216},{"NoteNumber":58,"Velocity":35,"Duration":91658,"SoundDuration":91658,"Delta":41486875},{"NoteNumber":63,"Velocity":35,"Duration":91658,"SoundDuration":91658,"Delta":41578534},{"NoteNumber":67,"Velocity":50,"Duration":90380,"SoundDuration":90380,"Delta":41670193},{"NoteNumber":70,"Velocity":44,"Duration":89346,"SoundDuration":89346,"Delta":41760574},{"NoteNumber":75,"Velocity":44,"Duration":88574,"SoundDuration":88574,"Delta":41849920},{"NoteNumber":70,"Velocity":54,"Duration":87917,"SoundDuration":87917,"Delta":41938494},{"NoteNumber":67,"Velocity":51,"Duration":87118,"SoundDuration":87118,"Delta":42026412},{"NoteNumber":70,"Velocity":52,"Duration":86515,"SoundDuration":86515,"Delta":42113530},{"NoteNumber":75,"Velocity":61,"Duration":85745,"SoundDuration":85745,"Delta":42200046},{"NoteNumber":79,"Velocity":57,"Duration":85161,"SoundDuration":85161,"Delta":42285791},{"NoteNumber":82,"Velocity":61,"Duration":85255,"SoundDuration":85255,"Delta":42370953},{"NoteNumber":87,"Velocity":67,"Duration":90555,"SoundDuration":90555,"Delta":42456209},{"NoteNumber":91,"Velocity":58,"Duration":97545,"SoundDuration":97545,"Delta":42546764},{"NoteNumber":94,"Velocity":53,"Duration":105627,"SoundDuration":105627,"Delta":42644310},{"NoteNumber":99,"Velocity":60,"Duration":981996,"SoundDuration":981996,"Delta":42749937},{"NoteNumber":67,"Velocity":60,"Duration":516529,"SoundDuration":516529,"Delta":44686570},{"NoteNumber":67,"Velocity":54,"Duration":161745,"SoundDuration":161745,"Delta":45217857},{"NoteNumber":67,"Velocity":60,"Duration":860091,"SoundDuration":860091,"Delta":45393937},{"NoteNumber":55,"Velocity":51,"Duration":326834,"SoundDuration":326834,"Delta":45393937},{"NoteNumber":43,"Velocity":44,"Duration":326834,"SoundDuration":326834,"Delta":45393937},{"NoteNumber":55,"Velocity":25,"Duration":326834,"SoundDuration":326834,"Delta":45737974},{"NoteNumber":62,"Velocity":34,"Duration":326834,"SoundDuration":326834,"Delta":45737974},{"NoteNumber":59,"Velocity":25,"Duration":326834,"SoundDuration":326834,"Delta":45737974},{"NoteNumber":55,"Velocity":25,"Duration":326262,"SoundDuration":326262,"Delta":46082010},{"NoteNumber":59,"Velocity":25,"Duration":326262,"SoundDuration":326262,"Delta":46082010},{"NoteNumber":62,"Velocity":34,"Duration":326262,"SoundDuration":326262,"Delta":46082010},{"NoteNumber":66,"Velocity":51,"Duration":170873,"SoundDuration":170873,"Delta":46254029},{"NoteNumber":67,"Velocity":56,"Duration":166297,"SoundDuration":166297,"Delta":46424903},{"NoteNumber":55,"Velocity":25,"Duration":315964,"SoundDuration":315964,"Delta":46424903},{"NoteNumber":62,"Velocity":34,"Duration":315964,"SoundDuration":315964,"Delta":46424903},{"NoteNumber":59,"Velocity":25,"Duration":315964,"SoundDuration":315964,"Delta":46424903},{"NoteNumber":69,"Velocity":51,"Duration":166297,"SoundDuration":166297,"Delta":46591200},{"NoteNumber":71,"Velocity":60,"Duration":166297,"SoundDuration":166297,"Delta":46757497},{"NoteNumber":59,"Velocity":25,"Duration":321889,"SoundDuration":321889,"Delta":46757497},{"NoteNumber":62,"Velocity":34,"Duration":321889,"SoundDuration":321889,"Delta":46757497},{"NoteNumber":55,"Velocity":25,"Duration":321889,"SoundDuration":321889,"Delta":46757497},{"NoteNumber":70,"Velocity":56,"Duration":173407,"SoundDuration":173407,"Delta":46923794},{"NoteNumber":71,"Velocity":54,"Duration":178147,"SoundDuration":178147,"Delta":47097201},{"NoteNumber":55,"Velocity":25,"Duration":338479,"SoundDuration":338479,"Delta":47097201},{"NoteNumber":62,"Velocity":34,"Duration":338479,"SoundDuration":338479,"Delta":47097201},{"NoteNumber":59,"Velocity":25,"Duration":338479,"SoundDuration":338479,"Delta":47097201},{"NoteNumber":72,"Velocity":59,"Duration":178147,"SoundDuration":178147,"Delta":47275348},{"NoteNumber":74,"Velocity":64,"Duration":346021,"SoundDuration":346021,"Delta":47453495},{"NoteNumber":55,"Velocity":51,"Duration":328719,"SoundDuration":328719,"Delta":47453495},{"NoteNumber":43,"Velocity":44,"Duration":328719,"SoundDuration":328719,"Delta":47453495},{"NoteNumber":55,"Velocity":25,"Duration":328719,"SoundDuration":328719,"Delta":47799516},{"NoteNumber":59,"Velocity":25,"Duration":328719,"SoundDuration":328719,"Delta":47799516},{"NoteNumber":62,"Velocity":34,"Duration":328719,"SoundDuration":328719,"Delta":47799516},{"NoteNumber":62,"Velocity":34,"Duration":328719,"SoundDuration":328719,"Delta":48145537},{"NoteNumber":55,"Velocity":25,"Duration":328719,"SoundDuration":328719,"Delta":48145537},{"NoteNumber":59,"Velocity":25,"Duration":328719,"SoundDuration":328719,"Delta":48145537},{"NoteNumber":59,"Velocity":25,"Duration":329128,"SoundDuration":329128,"Delta":48491558},{"NoteNumber":62,"Velocity":34,"Duration":329128,"SoundDuration":329128,"Delta":48491558},{"NoteNumber":55,"Velocity":25,"Duration":329128,"SoundDuration":329128,"Delta":48491558},{"NoteNumber":67,"Velocity":66,"Duration":531287,"SoundDuration":531287,"Delta":48838396},{"NoteNumber":59,"Velocity":25,"Duration":336481,"SoundDuration":336481,"Delta":48838396},{"NoteNumber":62,"Velocity":34,"Duration":336481,"SoundDuration":336481,"Delta":48838396},{"NoteNumber":55,"Velocity":25,"Duration":336481,"SoundDuration":336481,"Delta":48838396},{"NoteNumber":62,"Velocity":34,"Duration":336073,"SoundDuration":336073,"Delta":49192588},{"NoteNumber":59,"Velocity":25,"Duration":336073,"SoundDuration":336073,"Delta":49192588},{"NoteNumber":55,"Velocity":25,"Duration":336073,"SoundDuration":336073,"Delta":49192588},{"NoteNumber":67,"Velocity":58,"Duration":176278,"SoundDuration":176278,"Delta":49369684},{"NoteNumber":67,"Velocity":68,"Duration":865052,"SoundDuration":865052,"Delta":49545962},{"NoteNumber":48,"Velocity":51,"Duration":328719,"SoundDuration":328719,"Delta":49545962},{"NoteNumber":36,"Velocity":44,"Duration":328719,"SoundDuration":328719,"Delta":49545962},{"NoteNumber":63,"Velocity":38,"Duration":328719,"SoundDuration":328719,"Delta":49891983},{"NoteNumber":60,"Velocity":28,"Duration":328719,"SoundDuration":328719,"Delta":49891983},{"NoteNumber":55,"Velocity":28,"Duration":328719,"SoundDuration":328719,"Delta":49891983},{"NoteNumber":55,"Velocity":28,"Duration":328425,"SoundDuration":328425,"Delta":50238004},{"NoteNumber":63,"Velocity":38,"Duration":328425,"SoundDuration":328425,"Delta":50238004},{"NoteNumber":60,"Velocity":28,"Duration":328425,"SoundDuration":328425,"Delta":50238004},{"NoteNumber":66,"Velocity":56,"Duration":172422,"SoundDuration":172422,"Delta":50411015},{"NoteNumber":67,"Velocity":62,"Duration":170068,"SoundDuration":170068,"Delta":50583437},{"NoteNumber":63,"Velocity":38,"Duration":323129,"SoundDuration":323129,"Delta":50583437},{"NoteNumber":55,"Velocity":28,"Duration":323129,"SoundDuration":323129,"Delta":50583437},{"NoteNumber":60,"Velocity":28,"Duration":323129,"SoundDuration":323129,"Delta":50583437},{"NoteNumber":71,"Velocity":59,"Duration":170068,"SoundDuration":170068,"Delta":50753505},{"NoteNumber":72,"Velocity":69,"Duration":170068,"SoundDuration":170068,"Delta":50923573},{"NoteNumber":60,"Velocity":28,"Duration":323831,"SoundDuration":323831,"Delta":50923573},{"NoteNumber":55,"Velocity":28,"Duration":323831,"SoundDuration":323831,"Delta":50923573},{"NoteNumber":63,"Velocity":38,"Duration":323831,"SoundDuration":323831,"Delta":50923573},{"NoteNumber":71,"Velocity":58,"Duration":171473,"SoundDuration":171473,"Delta":51093641},{"NoteNumber":72,"Velocity":67,"Duration":177095,"SoundDuration":177095,"Delta":51265114},{"NoteNumber":55,"Velocity":28,"Duration":336073,"SoundDuration":336073,"Delta":51265114},{"NoteNumber":60,"Velocity":28,"Duration":336073,"SoundDuration":336073,"Delta":51265114},{"NoteNumber":63,"Velocity":38,"Duration":336073,"SoundDuration":336073,"Delta":51265114},{"NoteNumber":74,"Velocity":64,"Duration":176278,"SoundDuration":176278,"Delta":51442210},{"NoteNumber":75,"Velocity":74,"Duration":346021,"SoundDuration":346021,"Delta":51618489},{"NoteNumber":48,"Velocity":51,"Duration":328719,"SoundDuration":328719,"Delta":51618489},{"NoteNumber":63,"Velocity":38,"Duration":328719,"SoundDuration":328719,"Delta":51964510},{"NoteNumber":55,"Velocity":28,"Duration":328719,"SoundDuration":328719,"Delta":51964510},{"NoteNumber":60,"Velocity":28,"Duration":328719,"SoundDuration":328719,"Delta":51964510},{"NoteNumber":55,"Velocity":28,"Duration":328719,"SoundDuration":328719,"Delta":52310531},{"NoteNumber":63,"Velocity":38,"Duration":328719,"SoundDuration":328719,"Delta":52310531},{"NoteNumber":60,"Velocity":28,"Duration":328719,"SoundDuration":328719,"Delta":52310531},{"NoteNumber":60,"Velocity":28,"Duration":329233,"SoundDuration":329233,"Delta":52656552},{"NoteNumber":63,"Velocity":38,"Duration":329233,"SoundDuration":329233,"Delta":52656552},{"NoteNumber":55,"Velocity":28,"Duration":329233,"SoundDuration":329233,"Delta":52656552},{"NoteNumber":72,"Velocity":71,"Duration":534441,"SoundDuration":534441,"Delta":53003600},{"NoteNumber":63,"Velocity":38,"Duration":338479,"SoundDuration":338479,"Delta":53003600},{"NoteNumber":60,"Velocity":28,"Duration":338479,"SoundDuration":338479,"Delta":53003600},{"NoteNumber":55,"Velocity":28,"Duration":338479,"SoundDuration":338479,"Delta":53003600},{"NoteNumber":63,"Velocity":38,"Duration":338479,"SoundDuration":338479,"Delta":53359895},{"NoteNumber":55,"Velocity":28,"Duration":338479,"SoundDuration":338479,"Delta":53359895},{"NoteNumber":60,"Velocity":28,"Duration":338479,"SoundDuration":338479,"Delta":53359895},{"NoteNumber":72,"Velocity":65,"Duration":178147,"SoundDuration":178147,"Delta":53538042},{"NoteNumber":70,"Velocity":71,"Duration":860091,"SoundDuration":860091,"Delta":53716189},{"NoteNumber":34,"Velocity":44,"Duration":326834,"SoundDuration":326834,"Delta":53716189},{"NoteNumber":46,"Velocity":51,"Duration":326834,"SoundDuration":326834,"Delta":53716189},{"NoteNumber":58,"Velocity":32,"Duration":326834,"SoundDuration":326834,"Delta":54060226},{"NoteNumber":62,"Velocity":43,"Duration":326834,"SoundDuration":326834,"Delta":54060226},{"NoteNumber":56,"Velocity":32,"Duration":326834,"SoundDuration":326834,"Delta":54060226},{"NoteNumber":62,"Velocity":43,"Duration":326834,"SoundDuration":326834,"Delta":54404262},{"NoteNumber":56,"Velocity":32,"Duration":326834,"SoundDuration":326834,"Delta":54404262},{"NoteNumber":58,"Velocity":32,"Duration":326834,"SoundDuration":326834,"Delta":54404262},{"NoteNumber":69,"Velocity":57,"Duration":172018,"SoundDuration":172018,"Delta":54576280},{"NoteNumber":70,"Velocity":65,"Duration":167223,"SoundDuration":167223,"Delta":54748299},{"NoteNumber":58,"Velocity":32,"Duration":317725,"SoundDuration":317725,"Delta":54748299},{"NoteNumber":56,"Velocity":32,"Duration":317725,"SoundDuration":317725,"Delta":54748299},{"NoteNumber":62,"Velocity":43,"Duration":317725,"SoundDuration":317725,"Delta":54748299},{"NoteNumber":72,"Velocity":60,"Duration":167224,"SoundDuration":167224,"Delta":54915523},{"NoteNumber":74,"Velocity":70,"Duration":167223,"SoundDuration":167223,"Delta":55082747},{"NoteNumber":58,"Velocity":32,"Duration":319032,"SoundDuration":319032,"Delta":55082747},{"NoteNumber":56,"Velocity":32,"Duration":319032,"SoundDuration":319032,"Delta":55082747},{"NoteNumber":62,"Velocity":43,"Duration":319032,"SoundDuration":319032,"Delta":55082747},{"NoteNumber":73,"Velocity":60,"Duration":169836,"SoundDuration":169836,"Delta":55249971},{"NoteNumber":74,"Velocity":65,"Duration":180288,"SoundDuration":180288,"Delta":55419808},{"NoteNumber":56,"Velocity":32,"Duration":341721,"SoundDuration":341721,"Delta":55419808},{"NoteNumber":58,"Velocity":32,"Duration":341721,"SoundDuration":341721,"Delta":55419808},{"NoteNumber":62,"Velocity":43,"Duration":341721,"SoundDuration":341721,"Delta":55419808},{"NoteNumber":75,"Velocity":69,"Duration":178634,"SoundDuration":178634,"Delta":55600096},{"NoteNumber":77,"Velocity":74,"Duration":860091,"SoundDuration":860091,"Delta":55778731},{"NoteNumber":46,"Velocity":51,"Duration":326834,"SoundDuration":326834,"Delta":55778731},{"NoteNumber":62,"Velocity":43,"Duration":326834,"SoundDuration":326834,"Delta":56122767},{"NoteNumber":58,"Velocity":32,"Duration":326834,"SoundDuration":326834,"Delta":56122767},{"NoteNumber":56,"Velocity":32,"Duration":326834,"SoundDuration":326834,"Delta":56122767},{"NoteNumber":56,"Velocity":32,"Duration":326355,"SoundDuration":326355,"Delta":56466804},{"NoteNumber":62,"Velocity":43,"Duration":326355,"SoundDuration":326355,"Delta":56466804},{"NoteNumber":58,"Velocity":32,"Duration":326355,"SoundDuration":326355,"Delta":56466804},{"NoteNumber":76,"Velocity":56,"Duration":171059,"SoundDuration":171059,"Delta":56638822},{"NoteNumber":77,"Velocity":61,"Duration":167224,"SoundDuration":167224,"Delta":56809881},{"NoteNumber":62,"Velocity":43,"Duration":317725,"SoundDuration":317725,"Delta":56809881},{"NoteNumber":56,"Velocity":32,"Duration":317725,"SoundDuration":317725,"Delta":56809881},{"NoteNumber":58,"Velocity":32,"Duration":317725,"SoundDuration":317725,"Delta":56809881},{"NoteNumber":79,"Velocity":62,"Duration":167223,"SoundDuration":167223,"Delta":56977105},{"NoteNumber":80,"Velocity":64,"Duration":167223,"SoundDuration":167223,"Delta":57144329},{"NoteNumber":58,"Velocity":32,"Duration":317725,"SoundDuration":317725,"Delta":57144329},{"NoteNumber":62,"Velocity":43,"Duration":317725,"SoundDuration":317725,"Delta":57144329},{"NoteNumber":56,"Velocity":32,"Duration":317725,"SoundDuration":317725,"Delta":57144329},{"NoteNumber":79,"Velocity":56,"Duration":167224,"SoundDuration":167224,"Delta":57311553},{"NoteNumber":80,"Velocity":62,"Duration":167223,"SoundDuration":167223,"Delta":57478777},{"NoteNumber":58,"Velocity":32,"Duration":317725,"SoundDuration":317725,"Delta":57478777},{"NoteNumber":62,"Velocity":43,"Duration":317725,"SoundDuration":317725,"Delta":57478777},{"NoteNumber":56,"Velocity":32,"Duration":317725,"SoundDuration":317725,"Delta":57478777},{"NoteNumber":81,"Velocity":58,"Duration":167224,"SoundDuration":167224,"Delta":57646001},{"NoteNumber":82,"Velocity":68,"Duration":167223,"SoundDuration":167223,"Delta":57813225},{"NoteNumber":58,"Velocity":51,"Duration":668895,"SoundDuration":668895,"Delta":57813225},{"NoteNumber":56,"Velocity":51,"Duration":668895,"SoundDuration":668895,"Delta":57813225},{"NoteNumber":62,"Velocity":61,"Duration":668895,"SoundDuration":668895,"Delta":57813225},{"NoteNumber":81,"Velocity":59,"Duration":167223,"SoundDuration":167223,"Delta":57980449},{"NoteNumber":82,"Velocity":63,"Duration":167224,"SoundDuration":167224,"Delta":58147673},{"NoteNumber":84,"Velocity":59,"Duration":167223,"SoundDuration":167223,"Delta":58314897},{"NoteNumber":86,"Velocity":73,"Duration":167223,"SoundDuration":167223,"Delta":58482121},{"NoteNumber":85,"Velocity":61,"Duration":167223,"SoundDuration":167223,"Delta":58649345},{"NoteNumber":86,"Velocity":66,"Duration":174013,"SoundDuration":174013,"Delta":58816569},{"NoteNumber":87,"Velocity":62,"Duration":174013,"SoundDuration":174013,"Delta":58990583},{"NoteNumber":46,"Velocity":48,"Duration":670975,"SoundDuration":670975,"Delta":59034087},{"NoteNumber":53,"Velocity":48,"Duration":669046,"SoundDuration":669046,"Delta":59077590},{"NoteNumber":56,"Velocity":52,"Duration":625543,"SoundDuration":625543,"Delta":59121094},{"NoteNumber":89,"Velocity":72,"Duration":166297,"SoundDuration":166297,"Delta":59164597},{"NoteNumber":62,"Velocity":55,"Duration":582039,"SoundDuration":582039,"Delta":59164597},{"NoteNumber":88,"Velocity":61,"Duration":166297,"SoundDuration":166297,"Delta":59330894},{"NoteNumber":89,"Velocity":64,"Duration":166297,"SoundDuration":166297,"Delta":59497191},{"NoteNumber":91,"Velocity":66,"Duration":166297,"SoundDuration":166297,"Delta":59663488},{"NoteNumber":46,"Velocity":48,"Duration":665188,"SoundDuration":665188,"Delta":59705062},{"NoteNumber":53,"Velocity":52,"Duration":748336,"SoundDuration":748336,"Delta":59746637},{"NoteNumber":56,"Velocity":55,"Duration":706762,"SoundDuration":706762,"Delta":59788211},{"NoteNumber":92,"Velocity":74,"Duration":166297,"SoundDuration":166297,"Delta":59829785},{"NoteNumber":62,"Velocity":58,"Duration":665188,"SoundDuration":665188,"Delta":59829785},{"NoteNumber":91,"Velocity":64,"Duration":166297,"SoundDuration":166297,"Delta":59996082},{"NoteNumber":92,"Velocity":67,"Duration":166297,"SoundDuration":166297,"Delta":60162379},{"NoteNumber":93,"Velocity":62,"Duration":166297,"SoundDuration":166297,"Delta":60328676},{"NoteNumber":94,"Velocity":74,"Duration":166297,"SoundDuration":166297,"Delta":60494973},{"NoteNumber":93,"Velocity":66,"Duration":169789,"SoundDuration":169789,"Delta":60661270},{"NoteNumber":94,"Velocity":68,"Duration":175029,"SoundDuration":175029,"Delta":60831060},{"NoteNumber":96,"Velocity":69,"Duration":173282,"SoundDuration":173282,"Delta":61006089},{"NoteNumber":46,"Velocity":56,"Duration":669990,"SoundDuration":669990,"Delta":61049847},{"NoteNumber":53,"Velocity":56,"Duration":667807,"SoundDuration":667807,"Delta":61093604},{"NoteNumber":56,"Velocity":59,"Duration":624050,"SoundDuration":624050,"Delta":61137361},{"NoteNumber":98,"Velocity":72,"Duration":166297,"SoundDuration":166297,"Delta":61179372},{"NoteNumber":62,"Velocity":62,"Duration":582039,"SoundDuration":582039,"Delta":61179372},{"NoteNumber":99,"Velocity":73,"Duration":166297,"SoundDuration":166297,"Delta":61345669},{"NoteNumber":101,"Velocity":76,"Duration":166297,"SoundDuration":166297,"Delta":61511966},{"NoteNumber":103,"Velocity":77,"Duration":166297,"SoundDuration":166297,"Delta":61678263},{"NoteNumber":46,"Velocity":60,"Duration":1406947,"SoundDuration":1406947,"Delta":61719837},{"NoteNumber":53,"Velocity":60,"Duration":1408084,"SoundDuration":1408084,"Delta":61761412},{"NoteNumber":56,"Velocity":62,"Duration":1366510,"SoundDuration":1366510,"Delta":61802986},{"NoteNumber":104,"Velocity":79,"Duration":163576,"SoundDuration":163576,"Delta":61844560},{"NoteNumber":62,"Velocity":65,"Duration":1324935,"SoundDuration":1324935,"Delta":61844560},{"NoteNumber":101,"Velocity":78,"Duration":163577,"SoundDuration":163577,"Delta":62008137},{"NoteNumber":98,"Velocity":76,"Duration":163576,"SoundDuration":163576,"Delta":62171714},{"NoteNumber":94,"Velocity":75,"Duration":164121,"SoundDuration":164121,"Delta":62335291},{"NoteNumber":92,"Velocity":73,"Duration":110864,"SoundDuration":110864,"Delta":62499412},{"NoteNumber":89,"Velocity":71,"Duration":110375,"SoundDuration":110375,"Delta":62610277},{"NoteNumber":86,"Velocity":70,"Duration":110988,"SoundDuration":110988,"Delta":62720653},{"NoteNumber":82,"Velocity":68,"Duration":111732,"SoundDuration":111732,"Delta":62831641},{"NoteNumber":80,"Velocity":67,"Duration":112613,"SoundDuration":112613,"Delta":62943374},{"NoteNumber":77,"Velocity":65,"Duration":113508,"SoundDuration":113508,"Delta":63055987},{"NoteNumber":74,"Velocity":63,"Duration":75819,"SoundDuration":75819,"Delta":63169496},{"NoteNumber":70,"Velocity":61,"Duration":78240,"SoundDuration":78240,"Delta":63245316},{"NoteNumber":68,"Velocity":63,"Duration":77785,"SoundDuration":77785,"Delta":63323556},{"NoteNumber":65,"Velocity":66,"Duration":78797,"SoundDuration":78797,"Delta":63401342},{"NoteNumber":62,"Velocity":68,"Duration":81375,"SoundDuration":81375,"Delta":63480140},{"NoteNumber":58,"Velocity":69,"Duration":80969,"SoundDuration":80969,"Delta":63561516},{"NoteNumber":56,"Velocity":72,"Duration":83128,"SoundDuration":83128,"Delta":63642485},{"NoteNumber":53,"Velocity":74,"Duration":92311,"SoundDuration":92311,"Delta":63725613},{"NoteNumber":50,"Velocity":76,"Duration":162776,"SoundDuration":162776,"Delta":63817924},{"NoteNumber":34,"Velocity":76,"Duration":412654,"SoundDuration":412654,"Delta":63980701},{"NoteNumber":46,"Velocity":81,"Duration":412654,"SoundDuration":412654,"Delta":63980701},{"NoteNumber":68,"Velocity":73,"Duration":82179,"SoundDuration":82179,"Delta":65478180},{"NoteNumber":63,"Velocity":62,"Duration":82179,"SoundDuration":82179,"Delta":65478180},{"NoteNumber":65,"Velocity":62,"Duration":82179,"SoundDuration":82179,"Delta":65478180},{"NoteNumber":68,"Velocity":80,"Duration":364963,"SoundDuration":364963,"Delta":65564685},{"NoteNumber":63,"Velocity":68,"Duration":364963,"SoundDuration":364963,"Delta":65564685},{"NoteNumber":65,"Velocity":68,"Duration":364963,"SoundDuration":364963,"Delta":65564685},{"NoteNumber":47,"Velocity":45,"Duration":364963,"SoundDuration":364963,"Delta":65564685},{"NoteNumber":56,"Velocity":54,"Duration":364963,"SoundDuration":364963,"Delta":65564685},{"NoteNumber":53,"Velocity":45,"Duration":364963,"SoundDuration":364963,"Delta":65564685},{"NoteNumber":68,"Velocity":78,"Duration":364963,"SoundDuration":364963,"Delta":66294612},{"NoteNumber":62,"Velocity":66,"Duration":364963,"SoundDuration":364963,"Delta":66294612},{"NoteNumber":65,"Velocity":66,"Duration":364963,"SoundDuration":364963,"Delta":66294612},{"NoteNumber":53,"Velocity":45,"Duration":364963,"SoundDuration":364963,"Delta":66294612},{"NoteNumber":46,"Velocity":45,"Duration":364963,"SoundDuration":364963,"Delta":66294612},{"NoteNumber":56,"Velocity":54,"Duration":364963,"SoundDuration":364963,"Delta":66294612},{"NoteNumber":77,"Velocity":62,"Duration":83643,"SoundDuration":83643,"Delta":67656539},{"NoteNumber":75,"Velocity":62,"Duration":83643,"SoundDuration":83643,"Delta":67656539},{"NoteNumber":80,"Velocity":73,"Duration":83643,"SoundDuration":83643,"Delta":67656539},{"NoteNumber":80,"Velocity":80,"Duration":362757,"SoundDuration":362757,"Delta":67749476},{"NoteNumber":77,"Velocity":68,"Duration":362757,"SoundDuration":362757,"Delta":67749476},{"NoteNumber":75,"Velocity":68,"Duration":362757,"SoundDuration":362757,"Delta":67749476},{"NoteNumber":65,"Velocity":51,"Duration":362757,"SoundDuration":362757,"Delta":67749476},{"NoteNumber":68,"Velocity":61,"Duration":362757,"SoundDuration":362757,"Delta":67749476},{"NoteNumber":59,"Velocity":51,"Duration":362757,"SoundDuration":362757,"Delta":67749476},{"NoteNumber":80,"Velocity":78,"Duration":393855,"SoundDuration":393855,"Delta":68474990},{"NoteNumber":74,"Velocity":66,"Duration":393855,"SoundDuration":393855,"Delta":68474990},{"NoteNumber":77,"Velocity":66,"Duration":393855,"SoundDuration":393855,"Delta":68474990},{"NoteNumber":65,"Velocity":51,"Duration":1502592,"SoundDuration":1502592,"Delta":68474990},{"NoteNumber":68,"Velocity":61,"Duration":1502592,"SoundDuration":1502592,"Delta":68474990},{"NoteNumber":58,"Velocity":51,"Duration":1502592,"SoundDuration":1502592,"Delta":68474990},{"NoteNumber":96,"Velocity":93,"Duration":824171,"SoundDuration":824171,"Delta":69262702},{"NoteNumber":94,"Velocity":84,"Duration":108225,"SoundDuration":108225,"Delta":70086873},{"NoteNumber":92,"Velocity":82,"Duration":107297,"SoundDuration":107297,"Delta":70195099},{"NoteNumber":89,"Velocity":89,"Duration":106383,"SoundDuration":106383,"Delta":70302397},{"NoteNumber":86,"Velocity":80,"Duration":105374,"SoundDuration":105374,"Delta":70408780},{"NoteNumber":82,"Velocity":80,"Duration":104494,"SoundDuration":104494,"Delta":70514155},{"NoteNumber":81,"Velocity":85,"Duration":103627,"SoundDuration":103627,"Delta":70618649},{"NoteNumber":82,"Velocity":77,"Duration":102617,"SoundDuration":102617,"Delta":70722277},{"NoteNumber":80,"Velocity":78,"Duration":101833,"SoundDuration":101833,"Delta":70824895},{"NoteNumber":77,"Velocity":81,"Duration":102145,"SoundDuration":102145,"Delta":70926728},{"NoteNumber":74,"Velocity":79,"Duration":102933,"SoundDuration":102933,"Delta":71028874},{"NoteNumber":70,"Velocity":77,"Duration":103681,"SoundDuration":103681,"Delta":71131808},{"NoteNumber":68,"Velocity":75,"Duration":105439,"SoundDuration":105439,"Delta":71235489},{"NoteNumber":65,"Velocity":74,"Duration":109727,"SoundDuration":109727,"Delta":71340928},{"NoteNumber":62,"Velocity":72,"Duration":110509,"SoundDuration":110509,"Delta":71450655},{"NoteNumber":58,"Velocity":80,"Duration":162689,"SoundDuration":162689,"Delta":71561165},{"NoteNumber":54,"Velocity":38,"Duration":88289,"SoundDuration":88289,"Delta":72781339},{"NoteNumber":59,"Velocity":45,"Duration":88289,"SoundDuration":88289,"Delta":72781339},{"NoteNumber":54,"Velocity":43,"Duration":410004,"SoundDuration":410004,"Delta":72874275},{"NoteNumber":59,"Velocity":51,"Duration":410004,"SoundDuration":410004,"Delta":72874275},{"NoteNumber":45,"Velocity":35,"Duration":410004,"SoundDuration":410004,"Delta":72874275},{"NoteNumber":51,"Velocity":41,"Duration":410004,"SoundDuration":410004,"Delta":72874275},{"NoteNumber":54,"Velocity":49,"Duration":2602283,"SoundDuration":2602283,"Delta":73694283},{"NoteNumber":60,"Velocity":58,"Duration":2602283,"SoundDuration":2602283,"Delta":73694283},{"NoteNumber":51,"Velocity":46,"Duration":2602283,"SoundDuration":2602283,"Delta":73694283},{"NoteNumber":44,"Velocity":39,"Duration":2602283,"SoundDuration":2602283,"Delta":73694283},{"NoteNumber":58,"Velocity":37,"Duration":2602283,"SoundDuration":2602283,"Delta":76296567},{"NoteNumber":62,"Velocity":44,"Duration":2602283,"SoundDuration":2602283,"Delta":76296567},{"NoteNumber":56,"Velocity":37,"Duration":2602283,"SoundDuration":2602283,"Delta":76296567},{"NoteNumber":41,"Velocity":27,"Duration":2602283,"SoundDuration":2602283,"Delta":76296567},{"NoteNumber":46,"Velocity":27,"Duration":2602283,"SoundDuration":2602283,"Delta":76296567},{"NoteNumber":53,"Velocity":33,"Duration":2602283,"SoundDuration":2602283,"Delta":76296567},{"NoteNumber":55,"Velocity":37,"Duration":643993,"SoundDuration":643993,"Delta":78898851},{"NoteNumber":58,"Velocity":37,"Duration":643993,"SoundDuration":643993,"Delta":78898851},{"NoteNumber":63,"Velocity":44,"Duration":643993,"SoundDuration":643993,"Delta":78898851},{"NoteNumber":51,"Velocity":37,"Duration":335795,"SoundDuration":335795,"Delta":78898851},{"NoteNumber":39,"Velocity":29,"Duration":335795,"SoundDuration":335795,"Delta":78898851},{"NoteNumber":55,"Velocity":33,"Duration":308198,"SoundDuration":308198,"Delta":79234647},{"NoteNumber":58,"Velocity":33,"Duration":308197,"SoundDuration":308197,"Delta":79542845},{"NoteNumber":63,"Velocity":37,"Duration":308198,"SoundDuration":308198,"Delta":79851043},{"NoteNumber":58,"Velocity":33,"Duration":308198,"SoundDuration":308198,"Delta":80159241},{"NoteNumber":55,"Velocity":30,"Duration":332078,"SoundDuration":332078,"Delta":80467439},{"NoteNumber":51,"Velocity":35,"Duration":311397,"SoundDuration":311397,"Delta":80799518},{"NoteNumber":55,"Velocity":31,"Duration":296033,"SoundDuration":296033,"Delta":81110915},{"NoteNumber":58,"Velocity":31,"Duration":296033,"SoundDuration":296033,"Delta":81406948},{"NoteNumber":63,"Velocity":37,"Duration":296033,"SoundDuration":296033,"Delta":81702982},{"NoteNumber":58,"Velocity":32,"Duration":296033,"SoundDuration":296033,"Delta":81999015},{"NoteNumber":55,"Velocity":32,"Duration":317998,"SoundDuration":317998,"Delta":82295048},{"NoteNumber":39,"Velocity":37,"Duration":298983,"SoundDuration":298983,"Delta":82613047},{"NoteNumber":51,"Velocity":37,"Duration":298983,"SoundDuration":298983,"Delta":82613047},{"NoteNumber":55,"Velocity":33,"Duration":290303,"SoundDuration":290303,"Delta":82912030},{"NoteNumber":58,"Velocity":33,"Duration":290303,"SoundDuration":290303,"Delta":83202334},{"NoteNumber":63,"Velocity":37,"Duration":290303,"SoundDuration":290303,"Delta":83492638},{"NoteNumber":58,"Velocity":33,"Duration":290303,"SoundDuration":290303,"Delta":83782942},{"NoteNumber":55,"Velocity":30,"Duration":317998,"SoundDuration":317998,"Delta":84073245},{"NoteNumber":51,"Velocity":35,"Duration":296033,"SoundDuration":296033,"Delta":84391244},{"NoteNumber":55,"Velocity":31,"Duration":287521,"SoundDuration":287521,"Delta":84687277},{"NoteNumber":58,"Velocity":31,"Duration":287521,"SoundDuration":287521,"Delta":84974799},{"NoteNumber":63,"Velocity":37,"Duration":287521,"SoundDuration":287521,"Delta":85262320},{"NoteNumber":58,"Velocity":32,"Duration":287521,"SoundDuration":287521,"Delta":85549842},{"NoteNumber":55,"Velocity":32,"Duration":335795,"SoundDuration":335795,"Delta":85837363},{"NoteNumber":70,"Velocity":44,"Duration":868567,"SoundDuration":868567,"Delta":86173159},{"NoteNumber":67,"Velocity":44,"Duration":868567,"SoundDuration":868567,"Delta":86173159},{"NoteNumber":51,"Velocity":37,"Duration":298983,"SoundDuration":298983,"Delta":86173159},{"NoteNumber":39,"Velocity":37,"Duration":298983,"SoundDuration":298983,"Delta":86173159},{"NoteNumber":55,"Velocity":33,"Duration":284791,"SoundDuration":284791,"Delta":86472143},{"NoteNumber":58,"Velocity":33,"Duration":284792,"SoundDuration":284792,"Delta":86756935},{"NoteNumber":68,"Velocity":41,"Duration":301993,"SoundDuration":301993,"Delta":87041727},{"NoteNumber":72,"Velocity":41,"Duration":301993,"SoundDuration":301993,"Delta":87041727},{"NoteNumber":63,"Velocity":37,"Duration":301993,"SoundDuration":301993,"Delta":87041727},{"NoteNumber":67,"Velocity":45,"Duration":639840,"SoundDuration":639840,"Delta":87343720},{"NoteNumber":70,"Velocity":45,"Duration":639840,"SoundDuration":639840,"Delta":87343720},{"NoteNumber":58,"Velocity":33,"Duration":311397,"SoundDuration":311397,"Delta":87343720},{"NoteNumber":55,"Velocity":30,"Duration":328443,"SoundDuration":328443,"Delta":87655117},{"NoteNumber":63,"Velocity":37,"Duration":586505,"SoundDuration":586505,"Delta":87983560},{"NoteNumber":67,"Velocity":37,"Duration":1795055,"SoundDuration":1795055,"Delta":87983560},{"NoteNumber":51,"Velocity":32,"Duration":298983,"SoundDuration":298983,"Delta":87983560},{"NoteNumber":55,"Velocity":28,"Duration":287521,"SoundDuration":287521,"Delta":88282544},{"NoteNumber":58,"Velocity":28,"Duration":287521,"SoundDuration":287521,"Delta":88570065},{"NoteNumber":63,"Velocity":34,"Duration":287521,"SoundDuration":287521,"Delta":88857587},{"NoteNumber":58,"Velocity":28,"Duration":305064,"SoundDuration":305064,"Delta":89145108},{"NoteNumber":55,"Velocity":28,"Duration":328443,"SoundDuration":328443,"Delta":89450172},{"NoteNumber":67,"Velocity":44,"Duration":868567,"SoundDuration":868567,"Delta":89778616},{"NoteNumber":70,"Velocity":44,"Duration":868567,"SoundDuration":868567,"Delta":89778616},{"NoteNumber":39,"Velocity":37,"Duration":298983,"SoundDuration":298983,"Delta":89778616},{"NoteNumber":51,"Velocity":37,"Duration":298983,"SoundDuration":298983,"Delta":89778616},{"NoteNumber":55,"Velocity":33,"Duration":284791,"SoundDuration":284791,"Delta":90077599},{"NoteNumber":58,"Velocity":33,"Duration":284792,"SoundDuration":284792,"Delta":90362391},{"NoteNumber":68,"Velocity":41,"Duration":305064,"SoundDuration":305064,"Delta":90647183},{"NoteNumber":72,"Velocity":41,"Duration":305064,"SoundDuration":305064,"Delta":90647183},{"NoteNumber":63,"Velocity":37,"Duration":305064,"SoundDuration":305064,"Delta":90647183},{"NoteNumber":67,"Velocity":45,"Duration":646741,"SoundDuration":646741,"Delta":90952247},{"NoteNumber":70,"Velocity":45,"Duration":646741,"SoundDuration":646741,"Delta":90952247},{"NoteNumber":58,"Velocity":33,"Duration":314663,"SoundDuration":314663,"Delta":90952247},{"NoteNumber":55,"Velocity":30,"Duration":332078,"SoundDuration":332078,"Delta":91266910},{"NoteNumber":63,"Velocity":37,"Duration":586505,"SoundDuration":586505,"Delta":91598989},{"NoteNumber":67,"Velocity":37,"Duration":1806209,"SoundDuration":1806209,"Delta":91598989},{"NoteNumber":51,"Velocity":35,"Duration":298983,"SoundDuration":298983,"Delta":91598989},{"NoteNumber":55,"Velocity":26,"Duration":287521,"SoundDuration":287521,"Delta":91897973},{"NoteNumber":58,"Velocity":26,"Duration":287521,"SoundDuration":287521,"Delta":92185494},{"NoteNumber":63,"Velocity":33,"Duration":287521,"SoundDuration":287521,"Delta":92473016},{"NoteNumber":58,"Velocity":28,"Duration":305064,"SoundDuration":305064,"Delta":92760537},{"NoteNumber":55,"Velocity":28,"Duration":339596,"SoundDuration":339596,"Delta":93065601},{"NoteNumber":65,"Velocity":37,"Duration":169798,"SoundDuration":169798,"Delta":93235400},{"NoteNumber":68,"Velocity":42,"Duration":1225353,"SoundDuration":1225353,"Delta":93320299},{"NoteNumber":77,"Velocity":46,"Duration":1140454,"SoundDuration":1140454,"Delta":93405198},{"NoteNumber":34,"Velocity":37,"Duration":298983,"SoundDuration":298983,"Delta":93405198},{"NoteNumber":46,"Velocity":37,"Duration":298983,"SoundDuration":298983,"Delta":93405198},{"NoteNumber":56,"Velocity":33,"Duration":284791,"SoundDuration":284791,"Delta":93704182},{"NoteNumber":58,"Velocity":33,"Duration":284792,"SoundDuration":284792,"Delta":93988974},{"NoteNumber":62,"Velocity":37,"Duration":271887,"SoundDuration":271887,"Delta":94273766},{"NoteNumber":77,"Velocity":51,"Duration":462072,"SoundDuration":462072,"Delta":94545653},{"NoteNumber":68,"Velocity":51,"Duration":628111,"SoundDuration":628111,"Delta":94545653},{"NoteNumber":58,"Velocity":36,"Duration":296033,"SoundDuration":296033,"Delta":94545653},{"NoteNumber":56,"Velocity":41,"Duration":332078,"SoundDuration":332078,"Delta":94841686},{"NoteNumber":74,"Velocity":49,"Duration":138366,"SoundDuration":138366,"Delta":95007725},{"NoteNumber":68,"Velocity":44,"Duration":1806209,"SoundDuration":1806209,"Delta":95173765},{"NoteNumber":74,"Velocity":44,"Duration":1806209,"SoundDuration":1806209,"Delta":95173765},{"NoteNumber":46,"Velocity":43,"Duration":298983,"SoundDuration":298983,"Delta":95173765},{"NoteNumber":56,"Velocity":26,"Duration":287521,"SoundDuration":287521,"Delta":95472748},{"NoteNumber":58,"Velocity":26,"Duration":287521,"SoundDuration":287521,"Delta":95760270},{"NoteNumber":62,"Velocity":33,"Duration":287521,"SoundDuration":287521,"Delta":96047791},{"NoteNumber":58,"Velocity":28,"Duration":305064,"SoundDuration":305064,"Delta":96335313},{"NoteNumber":56,"Velocity":28,"Duration":339596,"SoundDuration":339596,"Delta":96640377},{"NoteNumber":63,"Velocity":37,"Duration":169798,"SoundDuration":169798,"Delta":96810175},{"NoteNumber":67,"Velocity":42,"Duration":1225353,"SoundDuration":1225353,"Delta":96895074},{"NoteNumber":75,"Velocity":46,"Duration":1140454,"SoundDuration":1140454,"Delta":96979974},{"NoteNumber":51,"Velocity":37,"Duration":298983,"SoundDuration":298983,"Delta":96979974},{"NoteNumber":39,"Velocity":37,"Duration":298983,"SoundDuration":298983,"Delta":96979974},{"NoteNumber":55,"Velocity":33,"Duration":284791,"SoundDuration":284791,"Delta":97278957},{"NoteNumber":58,"Velocity":33,"Duration":284792,"SoundDuration":284792,"Delta":97563749},{"NoteNumber":63,"Velocity":37,"Duration":271887,"SoundDuration":271887,"Delta":97848541},{"NoteNumber":75,"Velocity":51,"Duration":434944,"SoundDuration":434944,"Delta":98120428},{"NoteNumber":67,"Velocity":51,"Duration":602842,"SoundDuration":602842,"Delta":98120428},{"NoteNumber":58,"Velocity":36,"Duration":267046,"SoundDuration":267046,"Delta":98120428},{"NoteNumber":55,"Velocity":41,"Duration":335795,"SoundDuration":335795,"Delta":98387475},{"NoteNumber":70,"Velocity":49,"Duration":139914,"SoundDuration":139914,"Delta":98555372},{"NoteNumber":70,"Velocity":44,"Duration":1829459,"SoundDuration":1829459,"Delta":98723270},{"NoteNumber":67,"Velocity":44,"Duration":1829459,"SoundDuration":1829459,"Delta":98723270},{"NoteNumber":51,"Velocity":43,"Duration":332078,"SoundDuration":332078,"Delta":98723270},{"NoteNumber":55,"Velocity":26,"Duration":290303,"SoundDuration":290303,"Delta":99055349},{"NoteNumber":58,"Velocity":26,"Duration":290303,"SoundDuration":290303,"Delta":99345653},{"NoteNumber":63,"Velocity":33,"Duration":290303,"SoundDuration":290303,"Delta":99635957},{"NoteNumber":58,"Velocity":28,"Duration":305064,"SoundDuration":305064,"Delta":99926260},{"NoteNumber":55,"Velocity":28,"Duration":321405,"SoundDuration":321405,"Delta":100231324},{"NoteNumber":68,"Velocity":44,"Duration":1133935,"SoundDuration":1133935,"Delta":100552730},{"NoteNumber":72,"Velocity":44,"Duration":1133935,"SoundDuration":1133935,"Delta":100552730},{"NoteNumber":56,"Velocity":37,"Duration":298983,"SoundDuration":298983,"Delta":100552730},{"NoteNumber":44,"Velocity":37,"Duration":298983,"SoundDuration":298983,"Delta":100552730},{"NoteNumber":56,"Velocity":33,"Duration":284791,"SoundDuration":284791,"Delta":100851713},{"NoteNumber":60,"Velocity":33,"Duration":284792,"SoundDuration":284792,"Delta":101136505},{"NoteNumber":63,"Velocity":37,"Duration":276905,"SoundDuration":276905,"Delta":101421297},{"NoteNumber":72,"Velocity":47,"Duration":527781,"SoundDuration":527781,"Delta":101698203},{"NoteNumber":68,"Velocity":47,"Duration":604047,"SoundDuration":604047,"Delta":101698203},{"NoteNumber":60,"Velocity":38,"Duration":298983,"SoundDuration":298983,"Delta":101698203},{"NoteNumber":56,"Velocity":42,"Duration":305064,"SoundDuration":305064,"Delta":101997187},{"NoteNumber":72,"Velocity":52,"Duration":929486,"SoundDuration":929486,"Delta":102225985},{"NoteNumber":75,"Velocity":56,"Duration":853220,"SoundDuration":853220,"Delta":102302251},{"NoteNumber":44,"Velocity":46,"Duration":298983,"SoundDuration":298983,"Delta":102302251},{"NoteNumber":56,"Velocity":46,"Duration":298983,"SoundDuration":298983,"Delta":102302251},{"NoteNumber":56,"Velocity":33,"Duration":269445,"SoundDuration":269445,"Delta":102601234},{"NoteNumber":60,"Velocity":36,"Duration":284791,"SoundDuration":284791,"Delta":102870679},{"NoteNumber":70,"Velocity":50,"Duration":284792,"SoundDuration":284792,"Delta":103155471},{"NoteNumber":74,"Velocity":50,"Duration":284792,"SoundDuration":284792,"Delta":103155471},{"NoteNumber":63,"Velocity":42,"Duration":284792,"SoundDuration":284792,"Delta":103155471},{"NoteNumber":68,"Velocity":45,"Duration":610128,"SoundDuration":610128,"Delta":103440263},{"NoteNumber":72,"Velocity":45,"Duration":610128,"SoundDuration":610128,"Delta":103440263},{"NoteNumber":60,"Velocity":28,"Duration":305064,"SoundDuration":305064,"Delta":103440263},{"NoteNumber":56,"Velocity":28,"Duration":305064,"SoundDuration":305064,"Delta":103745327},{"NoteNumber":67,"Velocity":44,"Duration":852795,"SoundDuration":852795,"Delta":104050391},{"NoteNumber":70,"Velocity":44,"Duration":852795,"SoundDuration":852795,"Delta":104050391},{"NoteNumber":51,"Velocity":37,"Duration":298983,"SoundDuration":298983,"Delta":104050391},{"NoteNumber":39,"Velocity":37,"Duration":298983,"SoundDuration":298983,"Delta":104050391},{"NoteNumber":55,"Velocity":33,"Duration":276905,"SoundDuration":276905,"Delta":104349375},{"NoteNumber":58,"Velocity":33,"Duration":276905,"SoundDuration":276905,"Delta":104626281},{"NoteNumber":68,"Velocity":41,"Duration":287521,"SoundDuration":287521,"Delta":104903187},{"NoteNumber":72,"Velocity":41,"Duration":287521,"SoundDuration":287521,"Delta":104903187},{"NoteNumber":63,"Velocity":37,"Duration":287521,"SoundDuration":287521,"Delta":104903187},{"NoteNumber":67,"Velocity":45,"Duration":619991,"SoundDuration":619991,"Delta":105190708},{"NoteNumber":70,"Velocity":45,"Duration":619991,"SoundDuration":619991,"Delta":105190708},{"NoteNumber":58,"Velocity":33,"Duration":301993,"SoundDuration":301993,"Delta":105190708},{"NoteNumber":55,"Velocity":30,"Duration":317998,"SoundDuration":317998,"Delta":105492702},{"NoteNumber":63,"Velocity":37,"Duration":578469,"SoundDuration":578469,"Delta":105810700},{"NoteNumber":67,"Velocity":37,"Duration":1760503,"SoundDuration":1760503,"Delta":105810700},{"NoteNumber":51,"Velocity":32,"Duration":298983,"SoundDuration":298983,"Delta":105810700},{"NoteNumber":55,"Velocity":28,"Duration":279485,"SoundDuration":279485,"Delta":106109684},{"NoteNumber":58,"Velocity":28,"Duration":279485,"SoundDuration":279485,"Delta":106389170},{"NoteNumber":63,"Velocity":34,"Duration":279485,"SoundDuration":279485,"Delta":106668655},{"NoteNumber":58,"Velocity":28,"Duration":305064,"SoundDuration":305064,"Delta":106948141},{"NoteNumber":55,"Velocity":28,"Duration":317998,"SoundDuration":317998,"Delta":107253205},{"NoteNumber":72,"Velocity":44,"Duration":1133935,"SoundDuration":1133935,"Delta":107571204},{"NoteNumber":68,"Velocity":44,"Duration":1133935,"SoundDuration":1133935,"Delta":107571204},{"NoteNumber":56,"Velocity":37,"Duration":298983,"SoundDuration":298983,"Delta":107571204},{"NoteNumber":44,"Velocity":37,"Duration":298983,"SoundDuration":298983,"Delta":107571204},{"NoteNumber":56,"Velocity":33,"Duration":284791,"SoundDuration":284791,"Delta":107870187},{"NoteNumber":60,"Velocity":33,"Duration":284792,"SoundDuration":284792,"Delta":108154979},{"NoteNumber":63,"Velocity":37,"Duration":276905,"SoundDuration":276905,"Delta":108439771},{"NoteNumber":68,"Velocity":47,"Duration":604047,"SoundDuration":604047,"Delta":108716677},{"NoteNumber":72,"Velocity":47,"Duration":527781,"SoundDuration":527781,"Delta":108716677},{"NoteNumber":60,"Velocity":38,"Duration":298983,"SoundDuration":298983,"Delta":108716677},{"NoteNumber":56,"Velocity":42,"Duration":305064,"SoundDuration":305064,"Delta":109015661},{"NoteNumber":72,"Velocity":52,"Duration":929486,"SoundDuration":929486,"Delta":109244459},{"NoteNumber":75,"Velocity":56,"Duration":853220,"SoundDuration":853220,"Delta":109320725},{"NoteNumber":44,"Velocity":46,"Duration":298983,"SoundDuration":298983,"Delta":109320725},{"NoteNumber":56,"Velocity":46,"Duration":298983,"SoundDuration":298983,"Delta":109320725},{"NoteNumber":56,"Velocity":33,"Duration":269445,"SoundDuration":269445,"Delta":109619708},{"NoteNumber":60,"Velocity":36,"Duration":284791,"SoundDuration":284791,"Delta":109889153},{"NoteNumber":70,"Velocity":50,"Duration":284792,"SoundDuration":284792,"Delta":110173945},{"NoteNumber":74,"Velocity":50,"Duration":284792,"SoundDuration":284792,"Delta":110173945},{"NoteNumber":63,"Velocity":42,"Duration":284792,"SoundDuration":284792,"Delta":110173945},{"NoteNumber":72,"Velocity":45,"Duration":610128,"SoundDuration":610128,"Delta":110458737},{"NoteNumber":68,"Velocity":45,"Duration":610128,"SoundDuration":610128,"Delta":110458737},{"NoteNumber":60,"Velocity":28,"Duration":305064,"SoundDuration":305064,"Delta":110458737},{"NoteNumber":56,"Velocity":28,"Duration":305064,"SoundDuration":305064,"Delta":110763801},{"NoteNumber":70,"Velocity":44,"Duration":852795,"SoundDuration":852795,"Delta":111068865},{"NoteNumber":67,"Velocity":44,"Duration":852795,"SoundDuration":852795,"Delta":111068865},{"NoteNumber":51,"Velocity":37,"Duration":298983,"SoundDuration":298983,"Delta":111068865},{"NoteNumber":39,"Velocity":37,"Duration":298983,"SoundDuration":298983,"Delta":111068865},{"NoteNumber":55,"Velocity":33,"Duration":276905,"SoundDuration":276905,"Delta":111367849},{"NoteNumber":58,"Velocity":33,"Duration":276905,"SoundDuration":276905,"Delta":111644755},{"NoteNumber":72,"Velocity":41,"Duration":290303,"SoundDuration":290303,"Delta":111921661},{"NoteNumber":68,"Velocity":41,"Duration":290303,"SoundDuration":290303,"Delta":111921661},{"NoteNumber":63,"Velocity":37,"Duration":290303,"SoundDuration":290303,"Delta":111921661},{"NoteNumber":70,"Velocity":45,"Duration":593492,"SoundDuration":593492,"Delta":112211965},{"NoteNumber":67,"Velocity":45,"Duration":593492,"SoundDuration":593492,"Delta":112211965},{"NoteNumber":58,"Velocity":33,"Duration":301993,"SoundDuration":301993,"Delta":112211965},{"NoteNumber":55,"Velocity":30,"Duration":317998,"SoundDuration":317998,"Delta":112513958},{"NoteNumber":67,"Velocity":37,"Duration":1776204,"SoundDuration":1776204,"Delta":112831957},{"NoteNumber":63,"Velocity":37,"Duration":578469,"SoundDuration":578469,"Delta":112831957},{"NoteNumber":51,"Velocity":32,"Duration":298983,"SoundDuration":298983,"Delta":112831957},{"NoteNumber":55,"Velocity":28,"Duration":279485,"SoundDuration":279485,"Delta":113130940},{"NoteNumber":58,"Velocity":28,"Duration":282114,"SoundDuration":282114,"Delta":113410426},{"NoteNumber":63,"Velocity":34,"Duration":282113,"SoundDuration":282113,"Delta":113692540},{"NoteNumber":58,"Velocity":28,"Duration":305064,"SoundDuration":305064,"Delta":113974654},{"NoteNumber":55,"Velocity":28,"Duration":328443,"SoundDuration":328443,"Delta":114279718},{"NoteNumber":65,"Velocity":44,"Duration":164221,"SoundDuration":164221,"Delta":114443939},{"NoteNumber":70,"Velocity":44,"Duration":1227584,"SoundDuration":1227584,"Delta":114526050},{"NoteNumber":77,"Velocity":44,"Duration":1145473,"SoundDuration":1145473,"Delta":114608161},{"NoteNumber":46,"Velocity":37,"Duration":298983,"SoundDuration":298983,"Delta":114608161},{"NoteNumber":34,"Velocity":37,"Duration":298983,"SoundDuration":298983,"Delta":114608161},{"NoteNumber":56,"Velocity":33,"Duration":284791,"SoundDuration":284791,"Delta":114907145},{"NoteNumber":58,"Velocity":33,"Duration":284792,"SoundDuration":284792,"Delta":115191937},{"NoteNumber":62,"Velocity":37,"Duration":276905,"SoundDuration":276905,"Delta":115476729},{"NoteNumber":77,"Velocity":51,"Duration":527781,"SoundDuration":527781,"Delta":115753635},{"NoteNumber":58,"Velocity":38,"Duration":298983,"SoundDuration":298983,"Delta":115753635},{"NoteNumber":56,"Velocity":42,"Duration":305064,"SoundDuration":305064,"Delta":116052618},{"NoteNumber":68,"Velocity":52,"Duration":152532,"SoundDuration":152532,"Delta":116205150},{"NoteNumber":70,"Velocity":59,"Duration":929486,"SoundDuration":929486,"Delta":116281416},{"NoteNumber":80,"Velocity":59,"Duration":853220,"SoundDuration":853220,"Delta":116357682},{"NoteNumber":46,"Velocity":51,"Duration":298983,"SoundDuration":298983,"Delta":116357682},{"NoteNumber":56,"Velocity":36,"Duration":269445,"SoundDuration":269445,"Delta":116656666},{"NoteNumber":58,"Velocity":39,"Duration":284791,"SoundDuration":284791,"Delta":116926111},{"NoteNumber":77,"Velocity":52,"Duration":284792,"SoundDuration":284792,"Delta":117210903},{"NoteNumber":62,"Velocity":42,"Duration":284792,"SoundDuration":284792,"Delta":117210903},{"NoteNumber":74,"Velocity":47,"Duration":610128,"SoundDuration":610128,"Delta":117495695},{"NoteNumber":58,"Velocity":28,"Duration":305064,"SoundDuration":305064,"Delta":117495695},{"NoteNumber":56,"Velocity":28,"Duration":305064,"SoundDuration":305064,"Delta":117800759},{"NoteNumber":67,"Velocity":44,"Duration":1825787,"SoundDuration":1825787,"Delta":118029557},{"NoteNumber":75,"Velocity":44,"Duration":1749521,"SoundDuration":1749521,"Delta":118105823},{"NoteNumber":39,"Velocity":37,"Duration":298983,"SoundDuration":298983,"Delta":118105823},{"NoteNumber":51,"Velocity":37,"Duration":298983,"SoundDuration":298983,"Delta":118105823},{"NoteNumber":55,"Velocity":33,"Duration":284791,"SoundDuration":284791,"Delta":118404806},{"NoteNumber":58,"Velocity":33,"Duration":284792,"SoundDuration":284792,"Delta":118689598},{"NoteNumber":63,"Velocity":37,"Duration":276905,"SoundDuration":276905,"Delta":118974390},{"NoteNumber":58,"Velocity":26,"Duration":298983,"SoundDuration":298983,"Delta":119251296},{"NoteNumber":55,"Velocity":25,"Duration":305064,"SoundDuration":305064,"Delta":119550280},{"NoteNumber":70,"Velocity":41,"Duration":1770217,"SoundDuration":1770217,"Delta":119855344},{"NoteNumber":79,"Velocity":41,"Duration":1770217,"SoundDuration":1770217,"Delta":119855344},{"NoteNumber":51,"Velocity":31,"Duration":298983,"SoundDuration":298983,"Delta":119855344},{"NoteNumber":55,"Velocity":24,"Duration":274373,"SoundDuration":274373,"Delta":120154327},{"NoteNumber":58,"Velocity":24,"Duration":287521,"SoundDuration":287521,"Delta":120428701},{"NoteNumber":63,"Velocity":24,"Duration":287521,"SoundDuration":287521,"Delta":120716222},{"NoteNumber":58,"Velocity":27,"Duration":305064,"SoundDuration":305064,"Delta":121003744},{"NoteNumber":55,"Velocity":22,"Duration":316753,"SoundDuration":316753,"Delta":121308808},{"NoteNumber":63,"Velocity":44,"Duration":164221,"SoundDuration":164221,"Delta":121461340},{"NoteNumber":67,"Velocity":44,"Duration":1227584,"SoundDuration":1227584,"Delta":121543450},{"NoteNumber":75,"Velocity":44,"Duration":868567,"SoundDuration":868567,"Delta":121625561},{"NoteNumber":46,"Velocity":37,"Duration":298983,"SoundDuration":298983,"Delta":121625561},{"NoteNumber":55,"Velocity":33,"Duration":284791,"SoundDuration":284791,"Delta":121924545},{"NoteNumber":58,"Velocity":33,"Duration":284792,"SoundDuration":284792,"Delta":122209337},{"NoteNumber":70,"Velocity":51,"Duration":276905,"SoundDuration":276905,"Delta":122494129},{"NoteNumber":63,"Velocity":37,"Duration":276905,"SoundDuration":276905,"Delta":122494129},{"NoteNumber":67,"Velocity":44,"Duration":527781,"SoundDuration":527781,"Delta":122771035},{"NoteNumber":58,"Velocity":38,"Duration":298983,"SoundDuration":298983,"Delta":122771035},{"NoteNumber":55,"Velocity":42,"Duration":305064,"SoundDuration":305064,"Delta":123070018},{"NoteNumber":62,"Velocity":52,"Duration":152532,"SoundDuration":152532,"Delta":123222550},{"NoteNumber":70,"Velocity":55,"Duration":853220,"SoundDuration":853220,"Delta":123375082},{"NoteNumber":46,"Velocity":51,"Duration":298983,"SoundDuration":298983,"Delta":123375082},{"NoteNumber":34,"Velocity":48,"Duration":298983,"SoundDuration":298983,"Delta":123375082},{"NoteNumber":56,"Velocity":36,"Duration":269445,"SoundDuration":269445,"Delta":123674066},{"NoteNumber":58,"Velocity":39,"Duration":284791,"SoundDuration":284791,"Delta":123943511},{"NoteNumber":68,"Velocity":47,"Duration":284792,"SoundDuration":284792,"Delta":124228303},{"NoteNumber":62,"Velocity":42,"Duration":284792,"SoundDuration":284792,"Delta":124228303},{"NoteNumber":65,"Velocity":42,"Duration":610128,"SoundDuration":610128,"Delta":124513095},{"NoteNumber":58,"Velocity":28,"Duration":305064,"SoundDuration":305064,"Delta":124513095},{"NoteNumber":56,"Velocity":28,"Duration":305064,"SoundDuration":305064,"Delta":124818159},{"NoteNumber":63,"Velocity":39,"Duration":1194251,"SoundDuration":1194251,"Delta":125123223},{"NoteNumber":51,"Velocity":37,"Duration":314663,"SoundDuration":314663,"Delta":125123223},{"NoteNumber":39,"Velocity":37,"Duration":314663,"SoundDuration":314663,"Delta":125123223},{"NoteNumber":55,"Velocity":28,"Duration":296033,"SoundDuration":296033,"Delta":125437886},{"NoteNumber":58,"Velocity":28,"Duration":296033,"SoundDuration":296033,"Delta":125733919},{"NoteNumber":63,"Velocity":35,"Duration":2241648,"SoundDuration":2241648,"Delta":126029952},{"NoteNumber":58,"Velocity":29,"Duration":343485,"SoundDuration":343485,"Delta":126317474},{"NoteNumber":55,"Velocity":30,"Duration":414708,"SoundDuration":414708,"Delta":126660959},{"NoteNumber":51,"Velocity":39,"Duration":1793901,"SoundDuration":1793901,"Delta":127075667},{"NoteNumber":65,"Velocity":38,"Duration":74745,"SoundDuration":74745,"Delta":128645331},{"NoteNumber":70,"Velocity":42,"Duration":1018059,"SoundDuration":1018059,"Delta":128720077},{"NoteNumber":74,"Velocity":45,"Duration":943313,"SoundDuration":943313,"Delta":128794823},{"NoteNumber":77,"Velocity":48,"Duration":868567,"SoundDuration":868567,"Delta":128869568},{"NoteNumber":46,"Velocity":37,"Duration":298983,"SoundDuration":298983,"Delta":128869568},{"NoteNumber":34,"Velocity":37,"Duration":298983,"SoundDuration":298983,"Delta":128869568},{"NoteNumber":53,"Velocity":33,"Duration":284792,"SoundDuration":284792,"Delta":129168552},{"NoteNumber":58,"Velocity":33,"Duration":284791,"SoundDuration":284791,"Delta":129453344},{"NoteNumber":79,"Velocity":41,"Duration":301993,"SoundDuration":301993,"Delta":129738136},{"NoteNumber":62,"Velocity":37,"Duration":301993,"SoundDuration":301993,"Delta":129738136},{"NoteNumber":77,"Velocity":45,"Duration":619991,"SoundDuration":619991,"Delta":130040129},{"NoteNumber":58,"Velocity":33,"Duration":301993,"SoundDuration":301993,"Delta":130040129},{"NoteNumber":53,"Velocity":30,"Duration":317998,"SoundDuration":317998,"Delta":130342122},{"NoteNumber":65,"Velocity":40,"Duration":1831155,"SoundDuration":1831155,"Delta":130501122},{"NoteNumber":70,"Velocity":44,"Duration":1751656,"SoundDuration":1751656,"Delta":130580621},{"NoteNumber":74,"Velocity":47,"Duration":1672156,"SoundDuration":1672156,"Delta":130660121},{"NoteNumber":50,"Velocity":32,"Duration":298983,"SoundDuration":298983,"Delta":130660121},{"NoteNumber":53,"Velocity":28,"Duration":287521,"SoundDuration":287521,"Delta":130959105},{"NoteNumber":58,"Velocity":28,"Duration":287521,"SoundDuration":287521,"Delta":131246626},{"NoteNumber":62,"Velocity":34,"Duration":287521,"SoundDuration":287521,"Delta":131534148},{"NoteNumber":58,"Velocity":28,"Duration":305063,"SoundDuration":305063,"Delta":131821669},{"NoteNumber":53,"Velocity":28,"Duration":355036,"SoundDuration":355036,"Delta":132126733},{"NoteNumber":65,"Velocity":38,"Duration":74745,"SoundDuration":74745,"Delta":132257532},{"NoteNumber":69,"Velocity":42,"Duration":1018059,"SoundDuration":1018059,"Delta":132332278},{"NoteNumber":75,"Velocity":45,"Duration":943313,"SoundDuration":943313,"Delta":132407024},{"NoteNumber":77,"Velocity":48,"Duration":868567,"SoundDuration":868567,"Delta":132481770},{"NoteNumber":34,"Velocity":37,"Duration":298983,"SoundDuration":298983,"Delta":132481770},{"NoteNumber":46,"Velocity":37,"Duration":298983,"SoundDuration":298983,"Delta":132481770},{"NoteNumber":53,"Velocity":33,"Duration":284792,"SoundDuration":284792,"Delta":132780753},{"NoteNumber":57,"Velocity":33,"Duration":284791,"SoundDuration":284791,"Delta":133065545},{"NoteNumber":79,"Velocity":41,"Duration":301993,"SoundDuration":301993,"Delta":133350337},{"NoteNumber":63,"Velocity":37,"Duration":301993,"SoundDuration":301993,"Delta":133350337},{"NoteNumber":77,"Velocity":45,"Duration":619991,"SoundDuration":619991,"Delta":133652330},{"NoteNumber":57,"Velocity":33,"Duration":301993,"SoundDuration":301993,"Delta":133652330},{"NoteNumber":53,"Velocity":30,"Duration":317998,"SoundDuration":317998,"Delta":133954324},{"NoteNumber":65,"Velocity":40,"Duration":1782468,"SoundDuration":1782468,"Delta":134113323},{"NoteNumber":69,"Velocity":44,"Duration":1852460,"SoundDuration":1852460,"Delta":134192823},{"NoteNumber":72,"Velocity":47,"Duration":1772960,"SoundDuration":1772960,"Delta":134272322},{"NoteNumber":46,"Velocity":32,"Duration":298983,"SoundDuration":298983,"Delta":134272322},{"NoteNumber":53,"Velocity":28,"Duration":287521,"SoundDuration":287521,"Delta":134571306},{"NoteNumber":57,"Velocity":28,"Duration":287521,"SoundDuration":287521,"Delta":134858827},{"NoteNumber":63,"Velocity":34,"Duration":287521,"SoundDuration":287521,"Delta":135146349},{"NoteNumber":57,"Velocity":28,"Duration":305063,"SoundDuration":305063,"Delta":135433870},{"NoteNumber":53,"Velocity":28,"Duration":306348,"SoundDuration":306348,"Delta":135738934},{"NoteNumber":65,"Velocity":38,"Duration":224237,"SoundDuration":224237,"Delta":135821045},{"NoteNumber":70,"Velocity":42,"Duration":74745,"SoundDuration":74745,"Delta":135895791},{"NoteNumber":74,"Velocity":38,"Duration":943313,"SoundDuration":943313,"Delta":135970537},{"NoteNumber":77,"Velocity":48,"Duration":868567,"SoundDuration":868567,"Delta":136045283},{"NoteNumber":46,"Velocity":37,"Duration":298983,"SoundDuration":298983,"Delta":136045283},{"NoteNumber":34,"Velocity":37,"Duration":298983,"SoundDuration":298983,"Delta":136045283},{"NoteNumber":53,"Velocity":33,"Duration":284792,"SoundDuration":284792,"Delta":136344266},{"NoteNumber":58,"Velocity":33,"Duration":284791,"SoundDuration":284791,"Delta":136629058},{"NoteNumber":73,"Velocity":40,"Duration":287521,"SoundDuration":287521,"Delta":136913850},{"NoteNumber":76,"Velocity":48,"Duration":287521,"SoundDuration":287521,"Delta":136913850},{"NoteNumber":62,"Velocity":38,"Duration":287521,"SoundDuration":287521,"Delta":136913850},{"NoteNumber":74,"Velocity":46,"Duration":619991,"SoundDuration":619991,"Delta":137201372},{"NoteNumber":77,"Velocity":55,"Duration":619991,"SoundDuration":619991,"Delta":137201372},{"NoteNumber":58,"Velocity":36,"Duration":301993,"SoundDuration":301993,"Delta":137201372},{"NoteNumber":53,"Velocity":41,"Duration":317998,"SoundDuration":317998,"Delta":137503365},{"NoteNumber":75,"Velocity":56,"Duration":863211,"SoundDuration":863211,"Delta":137821364},{"NoteNumber":79,"Velocity":66,"Duration":863211,"SoundDuration":863211,"Delta":137821364},{"NoteNumber":51,"Velocity":47,"Duration":284034,"SoundDuration":284034,"Delta":137821364},{"NoteNumber":39,"Velocity":47,"Duration":284034,"SoundDuration":284034,"Delta":137821364},{"NoteNumber":51,"Velocity":37,"Duration":282114,"SoundDuration":282114,"Delta":138120347},{"NoteNumber":55,"Velocity":36,"Duration":282114,"SoundDuration":282114,"Delta":138402461},{"NoteNumber":74,"Velocity":47,"Duration":282113,"SoundDuration":282113,"Delta":138684575},{"NoteNumber":77,"Velocity":56,"Duration":282113,"SoundDuration":282113,"Delta":138684575},{"NoteNumber":60,"Velocity":44,"Duration":282113,"SoundDuration":282113,"Delta":138684575},{"NoteNumber":75,"Velocity":60,"Duration":616461,"SoundDuration":616461,"Delta":138966689},{"NoteNumber":72,"Velocity":51,"Duration":616461,"SoundDuration":616461,"Delta":138966689},{"NoteNumber":55,"Velocity":33,"Duration":305063,"SoundDuration":305063,"Delta":138966689},{"NoteNumber":51,"Velocity":32,"Duration":311397,"SoundDuration":311397,"Delta":139271753},{"NoteNumber":70,"Velocity":54,"Duration":1772847,"SoundDuration":1772847,"Delta":139583150},{"NoteNumber":74,"Velocity":64,"Duration":1161707,"SoundDuration":1161707,"Delta":139583150},{"NoteNumber":41,"Velocity":42,"Duration":298983,"SoundDuration":298983,"Delta":139583150},{"NoteNumber":53,"Velocity":42,"Duration":298983,"SoundDuration":298983,"Delta":139583150},{"NoteNumber":53,"Velocity":35,"Duration":284792,"SoundDuration":284792,"Delta":139882134},{"NoteNumber":58,"Velocity":33,"Duration":284791,"SoundDuration":284791,"Delta":140166926},{"NoteNumber":62,"Velocity":37,"Duration":293140,"SoundDuration":293140,"Delta":140451718},{"NoteNumber":77,"Velocity":59,"Duration":611139,"SoundDuration":611139,"Delta":140744858},{"NoteNumber":58,"Velocity":33,"Duration":293140,"SoundDuration":293140,"Delta":140744858},{"NoteNumber":53,"Velocity":30,"Duration":317998,"SoundDuration":317998,"Delta":141037999},{"NoteNumber":69,"Velocity":47,"Duration":1548722,"SoundDuration":1548722,"Delta":141355998},{"NoteNumber":72,"Velocity":56,"Duration":1548722,"SoundDuration":1548722,"Delta":141355998},{"NoteNumber":41,"Velocity":32,"Duration":298983,"SoundDuration":298983,"Delta":141355998},{"NoteNumber":53,"Velocity":32,"Duration":298983,"SoundDuration":298983,"Delta":141355998},{"NoteNumber":53,"Velocity":28,"Duration":287521,"SoundDuration":287521,"Delta":141654981},{"NoteNumber":57,"Velocity":28,"Duration":287521,"SoundDuration":287521,"Delta":141942503},{"NoteNumber":60,"Velocity":34,"Duration":287521,"SoundDuration":287521,"Delta":142230024},{"NoteNumber":57,"Velocity":28,"Duration":305063,"SoundDuration":305063,"Delta":142517546},{"NoteNumber":53,"Velocity":28,"Duration":306348,"SoundDuration":306348,"Delta":142822610},{"NoteNumber":65,"Velocity":41,"Duration":74745,"SoundDuration":74745,"Delta":142904721},{"NoteNumber":70,"Velocity":46,"Duration":1018059,"SoundDuration":1018059,"Delta":142979466},{"NoteNumber":74,"Velocity":49,"Duration":943313,"SoundDuration":943313,"Delta":143054212},{"NoteNumber":77,"Velocity":52,"Duration":868567,"SoundDuration":868567,"Delta":143128958},{"NoteNumber":34,"Velocity":40,"Duration":298983,"SoundDuration":298983,"Delta":143128958},{"NoteNumber":46,"Velocity":40,"Duration":298983,"SoundDuration":298983,"Delta":143128958},{"NoteNumber":53,"Velocity":36,"Duration":284792,"SoundDuration":284792,"Delta":143427942},{"NoteNumber":58,"Velocity":36,"Duration":284791,"SoundDuration":284791,"Delta":143712734},{"NoteNumber":79,"Velocity":45,"Duration":301993,"SoundDuration":301993,"Delta":143997526},{"NoteNumber":62,"Velocity":40,"Duration":301993,"SoundDuration":301993,"Delta":143997526},{"NoteNumber":77,"Velocity":49,"Duration":619991,"SoundDuration":619991,"Delta":144299519},{"NoteNumber":58,"Velocity":36,"Duration":301993,"SoundDuration":301993,"Delta":144299519},{"NoteNumber":53,"Velocity":33,"Duration":317998,"SoundDuration":317998,"Delta":144601512},{"NoteNumber":65,"Velocity":44,"Duration":1831155,"SoundDuration":1831155,"Delta":144760512},{"NoteNumber":70,"Velocity":48,"Duration":1751656,"SoundDuration":1751656,"Delta":144840011},{"NoteNumber":74,"Velocity":51,"Duration":1672156,"SoundDuration":1672156,"Delta":144919511},{"NoteNumber":46,"Velocity":35,"Duration":298983,"SoundDuration":298983,"Delta":144919511},{"NoteNumber":53,"Velocity":30,"Duration":287521,"SoundDuration":287521,"Delta":145218494},{"NoteNumber":58,"Velocity":30,"Duration":287521,"SoundDuration":287521,"Delta":145506016},{"NoteNumber":62,"Velocity":37,"Duration":287521,"SoundDuration":287521,"Delta":145793537},{"NoteNumber":58,"Velocity":30,"Duration":305063,"SoundDuration":305063,"Delta":146081059},{"NoteNumber":53,"Velocity":30,"Duration":355036,"SoundDuration":355036,"Delta":146386123},{"NoteNumber":69,"Velocity":47,"Duration":74745,"SoundDuration":74745,"Delta":146516922},{"NoteNumber":74,"Velocity":52,"Duration":1018059,"SoundDuration":1018059,"Delta":146591668},{"NoteNumber":78,"Velocity":56,"Duration":943313,"SoundDuration":943313,"Delta":146666413},{"NoteNumber":81,"Velocity":60,"Duration":868567,"SoundDuration":868567,"Delta":146741159},{"NoteNumber":50,"Velocity":42,"Duration":298983,"SoundDuration":298983,"Delta":146741159},{"NoteNumber":38,"Velocity":42,"Duration":298983,"SoundDuration":298983,"Delta":146741159},{"NoteNumber":54,"Velocity":37,"Duration":284792,"SoundDuration":284792,"Delta":147040143},{"NoteNumber":57,"Velocity":37,"Duration":284791,"SoundDuration":284791,"Delta":147324935},{"NoteNumber":83,"Velocity":55,"Duration":301993,"SoundDuration":301993,"Delta":147609727},{"NoteNumber":62,"Velocity":42,"Duration":301993,"SoundDuration":301993,"Delta":147609727},{"NoteNumber":81,"Velocity":56,"Duration":619991,"SoundDuration":619991,"Delta":147911720},{"NoteNumber":57,"Velocity":37,"Duration":301993,"SoundDuration":301993,"Delta":147911720},{"NoteNumber":54,"Velocity":34,"Duration":317998,"SoundDuration":317998,"Delta":148213713},{"NoteNumber":69,"Velocity":50,"Duration":1931959,"SoundDuration":1931959,"Delta":148372713},{"NoteNumber":74,"Velocity":55,"Duration":1852460,"SoundDuration":1852460,"Delta":148452212},{"NoteNumber":78,"Velocity":59,"Duration":1772960,"SoundDuration":1772960,"Delta":148531712},{"NoteNumber":50,"Velocity":36,"Duration":298983,"SoundDuration":298983,"Delta":148531712},{"NoteNumber":54,"Velocity":32,"Duration":287521,"SoundDuration":287521,"Delta":148830696},{"NoteNumber":57,"Velocity":32,"Duration":287521,"SoundDuration":287521,"Delta":149118217},{"NoteNumber":62,"Velocity":39,"Duration":287521,"SoundDuration":287521,"Delta":149405739},{"NoteNumber":57,"Velocity":32,"Duration":305063,"SoundDuration":305063,"Delta":149693260},{"NoteNumber":54,"Velocity":32,"Duration":306348,"SoundDuration":306348,"Delta":149998324},{"NoteNumber":69,"Velocity":52,"Duration":1018059,"SoundDuration":1018059,"Delta":150155181},{"NoteNumber":73,"Velocity":47,"Duration":943313,"SoundDuration":943313,"Delta":150229927},{"NoteNumber":81,"Velocity":60,"Duration":868567,"SoundDuration":868567,"Delta":150304672},{"NoteNumber":38,"Velocity":42,"Duration":298983,"SoundDuration":298983,"Delta":150304672},{"NoteNumber":50,"Velocity":42,"Duration":298983,"SoundDuration":298983,"Delta":150304672},{"NoteNumber":55,"Velocity":37,"Duration":284792,"SoundDuration":284792,"Delta":150603656},{"NoteNumber":57,"Velocity":38,"Duration":284791,"SoundDuration":284791,"Delta":150888448},{"NoteNumber":81,"Velocity":62,"Duration":273145,"SoundDuration":273145,"Delta":151173240},{"NoteNumber":73,"Velocity":52,"Duration":273145,"SoundDuration":273145,"Delta":151173240},{"NoteNumber":76,"Velocity":52,"Duration":273145,"SoundDuration":273145,"Delta":151173240},{"NoteNumber":61,"Velocity":45,"Duration":287521,"SoundDuration":287521,"Delta":151173240},{"NoteNumber":81,"Velocity":73,"Duration":588192,"SoundDuration":588192,"Delta":151460761},{"NoteNumber":74,"Velocity":60,"Duration":588192,"SoundDuration":588192,"Delta":151460761},{"NoteNumber":78,"Velocity":60,"Duration":588192,"SoundDuration":588192,"Delta":151460761},{"NoteNumber":57,"Velocity":43,"Duration":301993,"SoundDuration":301993,"Delta":151460761},{"NoteNumber":55,"Velocity":50,"Duration":317998,"SoundDuration":317998,"Delta":151762755},{"NoteNumber":79,"Velocity":70,"Duration":820894,"SoundDuration":820894,"Delta":152080753},{"NoteNumber":76,"Velocity":63,"Duration":820894,"SoundDuration":820894,"Delta":152080753},{"NoteNumber":81,"Velocity":78,"Duration":820894,"SoundDuration":820894,"Delta":152080753},{"NoteNumber":50,"Velocity":59,"Duration":298983,"SoundDuration":298983,"Delta":152080753},{"NoteNumber":55,"Velocity":47,"Duration":282114,"SoundDuration":282114,"Delta":152379737},{"NoteNumber":76,"Velocity":61,"Duration":536016,"SoundDuration":536016,"Delta":152661851},{"NoteNumber":81,"Velocity":72,"Duration":536016,"SoundDuration":536016,"Delta":152661851},{"NoteNumber":78,"Velocity":61,"Duration":536016,"SoundDuration":536016,"Delta":152661851},{"NoteNumber":57,"Velocity":46,"Duration":282113,"SoundDuration":282113,"Delta":152661851},{"NoteNumber":61,"Velocity":57,"Duration":282114,"SoundDuration":282114,"Delta":152943965},{"NoteNumber":73,"Velocity":67,"Duration":585321,"SoundDuration":585321,"Delta":153226079},{"NoteNumber":76,"Velocity":67,"Duration":585321,"SoundDuration":585321,"Delta":153226079},{"NoteNumber":81,"Velocity":80,"Duration":585321,"SoundDuration":585321,"Delta":153226079},{"NoteNumber":57,"Velocity":42,"Duration":305063,"SoundDuration":305063,"Delta":153226079},{"NoteNumber":55,"Velocity":42,"Duration":311397,"SoundDuration":311397,"Delta":153531143},{"NoteNumber":86,"Velocity":54,"Duration":81062,"SoundDuration":81062,"Delta":153842540},{"NoteNumber":50,"Velocity":61,"Duration":655391,"SoundDuration":655391,"Delta":153842540},{"NoteNumber":62,"Velocity":72,"Duration":655391,"SoundDuration":655391,"Delta":153842540},{"NoteNumber":54,"Velocity":61,"Duration":655391,"SoundDuration":655391,"Delta":153842540},{"NoteNumber":57,"Velocity":61,"Duration":655391,"SoundDuration":655391,"Delta":153842540},{"NoteNumber":87,"Velocity":46,"Duration":83203,"SoundDuration":83203,"Delta":153923602},{"NoteNumber":86,"Velocity":54,"Duration":83112,"SoundDuration":83112,"Delta":154006806},{"NoteNumber":87,"Velocity":46,"Duration":82290,"SoundDuration":82290,"Delta":154089919},{"NoteNumber":86,"Velocity":54,"Duration":82290,"SoundDuration":82290,"Delta":154172210},{"NoteNumber":87,"Velocity":48,"Duration":81755,"SoundDuration":81755,"Delta":154254501},{"NoteNumber":86,"Velocity":54,"Duration":81397,"SoundDuration":81397,"Delta":154336256},{"NoteNumber":87,"Velocity":47,"Duration":80277,"SoundDuration":80277,"Delta":154417654},{"NoteNumber":86,"Velocity":55,"Duration":76850,"SoundDuration":76850,"Delta":154497931},{"NoteNumber":87,"Velocity":48,"Duration":73398,"SoundDuration":73398,"Delta":154574782},{"NoteNumber":86,"Velocity":56,"Duration":70547,"SoundDuration":70547,"Delta":154648180},{"NoteNumber":87,"Velocity":47,"Duration":69442,"SoundDuration":69442,"Delta":154718727},{"NoteNumber":86,"Velocity":56,"Duration":70664,"SoundDuration":70664,"Delta":154788170},{"NoteNumber":87,"Velocity":47,"Duration":71928,"SoundDuration":71928,"Delta":154858834},{"NoteNumber":86,"Velocity":57,"Duration":73239,"SoundDuration":73239,"Delta":154930763},{"NoteNumber":87,"Velocity":50,"Duration":74648,"SoundDuration":74648,"Delta":155004002},{"NoteNumber":86,"Velocity":57,"Duration":75261,"SoundDuration":75261,"Delta":155078651},{"NoteNumber":38,"Velocity":69,"Duration":606987,"SoundDuration":606987,"Delta":155078651},{"NoteNumber":87,"Velocity":49,"Duration":77208,"SoundDuration":77208,"Delta":155153912},{"NoteNumber":86,"Velocity":58,"Duration":77208,"SoundDuration":77208,"Delta":155231120},{"NoteNumber":87,"Velocity":50,"Duration":76736,"SoundDuration":76736,"Delta":155308328},{"NoteNumber":86,"Velocity":59,"Duration":76421,"SoundDuration":76421,"Delta":155385064},{"NoteNumber":87,"Velocity":51,"Duration":76344,"SoundDuration":76344,"Delta":155461486},{"NoteNumber":86,"Velocity":59,"Duration":75650,"SoundDuration":75650,"Delta":155537830},{"NoteNumber":87,"Velocity":50,"Duration":72157,"SoundDuration":72157,"Delta":155613481},{"NoteNumber":86,"Velocity":60,"Duration":71515,"SoundDuration":71515,"Delta":155685638},{"NoteNumber":50,"Velocity":78,"Duration":558546,"SoundDuration":558546,"Delta":155685638},{"NoteNumber":87,"Velocity":52,"Duration":70884,"SoundDuration":70884,"Delta":155757153},{"NoteNumber":86,"Velocity":60,"Duration":70091,"SoundDuration":70091,"Delta":155828038},{"NoteNumber":87,"Velocity":53,"Duration":69355,"SoundDuration":69355,"Delta":155898130},{"NoteNumber":86,"Velocity":61,"Duration":68845,"SoundDuration":68845,"Delta":155967485},{"NoteNumber":87,"Velocity":53,"Duration":68887,"SoundDuration":68887,"Delta":156036331},{"NoteNumber":86,"Velocity":62,"Duration":69483,"SoundDuration":69483,"Delta":156105218},{"NoteNumber":87,"Velocity":54,"Duration":69483,"SoundDuration":69483,"Delta":156174701},{"NoteNumber":86,"Velocity":62,"Duration":70089,"SoundDuration":70089,"Delta":156244185},{"NoteNumber":87,"Velocity":55,"Duration":70353,"SoundDuration":70353,"Delta":156314274},{"NoteNumber":86,"Velocity":63,"Duration":70794,"SoundDuration":70794,"Delta":156384628},{"NoteNumber":87,"Velocity":54,"Duration":70794,"SoundDuration":70794,"Delta":156455422},{"NoteNumber":86,"Velocity":63,"Duration":72375,"SoundDuration":72375,"Delta":156526217},{"NoteNumber":87,"Velocity":54,"Duration":73428,"SoundDuration":73428,"Delta":156598592},{"NoteNumber":86,"Velocity":63,"Duration":73428,"SoundDuration":73428,"Delta":156672021},{"NoteNumber":87,"Velocity":55,"Duration":72857,"SoundDuration":72857,"Delta":156745449},{"NoteNumber":86,"Velocity":64,"Duration":72577,"SoundDuration":72577,"Delta":156818307},{"NoteNumber":62,"Velocity":66,"Duration":537094,"SoundDuration":537094,"Delta":156818307},{"NoteNumber":55,"Velocity":56,"Duration":537094,"SoundDuration":537094,"Delta":156818307},{"NoteNumber":58,"Velocity":56,"Duration":537094,"SoundDuration":537094,"Delta":156818307},{"NoteNumber":87,"Velocity":58,"Duration":71927,"SoundDuration":71927,"Delta":156890885},{"NoteNumber":86,"Velocity":64,"Duration":71289,"SoundDuration":71289,"Delta":156962813},{"NoteNumber":87,"Velocity":57,"Duration":70794,"SoundDuration":70794,"Delta":157034102},{"NoteNumber":86,"Velocity":65,"Duration":70353,"SoundDuration":70353,"Delta":157104897},{"NoteNumber":87,"Velocity":59,"Duration":69742,"SoundDuration":69742,"Delta":157175251},{"NoteNumber":86,"Velocity":65,"Duration":69142,"SoundDuration":69142,"Delta":157244994},{"NoteNumber":87,"Velocity":57,"Duration":68552,"SoundDuration":68552,"Delta":157314137},{"NoteNumber":86,"Velocity":67,"Duration":68219,"SoundDuration":68219,"Delta":157382690},{"NoteNumber":57,"Velocity":71,"Duration":544088,"SoundDuration":544088,"Delta":157382690},{"NoteNumber":62,"Velocity":80,"Duration":544088,"SoundDuration":544088,"Delta":157382690},{"NoteNumber":54,"Velocity":73,"Duration":544088,"SoundDuration":544088,"Delta":157382690},{"NoteNumber":87,"Velocity":58,"Duration":68218,"SoundDuration":68218,"Delta":157450909},{"NoteNumber":86,"Velocity":67,"Duration":68218,"SoundDuration":68218,"Delta":157519128},{"NoteNumber":87,"Velocity":57,"Duration":68218,"SoundDuration":68218,"Delta":157587347},{"NoteNumber":86,"Velocity":66,"Duration":67406,"SoundDuration":67406,"Delta":157655566},{"NoteNumber":87,"Velocity":57,"Duration":67362,"SoundDuration":67362,"Delta":157722972},{"NoteNumber":86,"Velocity":65,"Duration":67932,"SoundDuration":67932,"Delta":157790335},{"NoteNumber":87,"Velocity":56,"Duration":68511,"SoundDuration":68511,"Delta":157858267},{"NoteNumber":86,"Velocity":65,"Duration":69440,"SoundDuration":69440,"Delta":157926778},{"NoteNumber":87,"Velocity":57,"Duration":69483,"SoundDuration":69483,"Delta":157996218},{"NoteNumber":86,"Velocity":65,"Duration":69483,"SoundDuration":69483,"Delta":158065702},{"NoteNumber":87,"Velocity":55,"Duration":69483,"SoundDuration":69483,"Delta":158135185},{"NoteNumber":86,"Velocity":64,"Duration":69483,"SoundDuration":69483,"Delta":158204668},{"NoteNumber":87,"Velocity":55,"Duration":69483,"SoundDuration":69483,"Delta":158274151},{"NoteNumber":86,"Velocity":64,"Duration":69483,"SoundDuration":69483,"Delta":158343634},{"NoteNumber":87,"Velocity":55,"Duration":69483,"SoundDuration":69483,"Delta":158413117},{"NoteNumber":86,"Velocity":63,"Duration":74674,"SoundDuration":74674,"Delta":158482600},{"NoteNumber":38,"Velocity":74,"Duration":594137,"SoundDuration":594137,"Delta":158482600},{"NoteNumber":87,"Velocity":54,"Duration":75044,"SoundDuration":75044,"Delta":158557274},{"NoteNumber":86,"Velocity":63,"Duration":74450,"SoundDuration":74450,"Delta":158632319},{"NoteNumber":87,"Velocity":54,"Duration":74301,"SoundDuration":74301,"Delta":158706769},{"NoteNumber":86,"Velocity":63,"Duration":73815,"SoundDuration":73815,"Delta":158781071},{"NoteNumber":87,"Velocity":54,"Duration":73525,"SoundDuration":73525,"Delta":158854887},{"NoteNumber":86,"Velocity":63,"Duration":72857,"SoundDuration":72857,"Delta":158928412},{"NoteNumber":87,"Velocity":53,"Duration":75468,"SoundDuration":75468,"Delta":159001270},{"NoteNumber":86,"Velocity":62,"Duration":77208,"SoundDuration":77208,"Delta":159076738},{"NoteNumber":50,"Velocity":84,"Duration":623884,"SoundDuration":623884,"Delta":159076738},{"NoteNumber":87,"Velocity":54,"Duration":77208,"SoundDuration":77208,"Delta":159153946},{"NoteNumber":86,"Velocity":62,"Duration":77689,"SoundDuration":77689,"Delta":159231154},{"NoteNumber":87,"Velocity":55,"Duration":78011,"SoundDuration":78011,"Delta":159308844},{"NoteNumber":86,"Velocity":62,"Duration":78011,"SoundDuration":78011,"Delta":159386855},{"NoteNumber":87,"Velocity":54,"Duration":78093,"SoundDuration":78093,"Delta":159464866},{"NoteNumber":86,"Velocity":61,"Duration":78831,"SoundDuration":78831,"Delta":159542960},{"NoteNumber":87,"Velocity":54,"Duration":78831,"SoundDuration":78831,"Delta":159621791},{"NoteNumber":86,"Velocity":60,"Duration":78914,"SoundDuration":78914,"Delta":159700622},{"NoteNumber":87,"Velocity":53,"Duration":79668,"SoundDuration":79668,"Delta":159779537},{"NoteNumber":86,"Velocity":60,"Duration":79668,"SoundDuration":79668,"Delta":159859206},{"NoteNumber":87,"Velocity":53,"Duration":79668,"SoundDuration":79668,"Delta":159938874},{"NoteNumber":86,"Velocity":60,"Duration":79668,"SoundDuration":79668,"Delta":160018543},{"NoteNumber":87,"Velocity":53,"Duration":79668,"SoundDuration":79668,"Delta":160098211},{"NoteNumber":86,"Velocity":59,"Duration":79668,"SoundDuration":79668,"Delta":160177880},{"NoteNumber":87,"Velocity":53,"Duration":79668,"SoundDuration":79668,"Delta":160257548},{"NoteNumber":86,"Velocity":54,"Duration":106224,"SoundDuration":106224,"Delta":160337217},{"NoteNumber":62,"Velocity":69,"Duration":637348,"SoundDuration":637348,"Delta":160366429},{"NoteNumber":87,"Velocity":55,"Duration":106224,"SoundDuration":106224,"Delta":160443442},{"NoteNumber":86,"Velocity":59,"Duration":106224,"SoundDuration":106224,"Delta":160549666},{"NoteNumber":85,"Velocity":74,"Duration":159337,"SoundDuration":159337,"Delta":160655891},{"NoteNumber":46,"Velocity":58,"Duration":4547843,"SoundDuration":4547843,"Delta":160735560},{"NoteNumber":86,"Velocity":81,"Duration":159337,"SoundDuration":159337,"Delta":160815228},{"NoteNumber":53,"Velocity":64,"Duration":4468174,"SoundDuration":4468174,"Delta":160815228},{"NoteNumber":56,"Velocity":69,"Duration":4388506,"SoundDuration":4388506,"Delta":160894897},{"NoteNumber":98,"Velocity":95,"Duration":2030151,"SoundDuration":2030151,"Delta":160974565},{"NoteNumber":62,"Velocity":76,"Duration":4308837,"SoundDuration":4308837,"Delta":160974565},{"NoteNumber":96,"Velocity":65,"Duration":118105,"SoundDuration":118105,"Delta":163004717},{"NoteNumber":91,"Velocity":65,"Duration":118105,"SoundDuration":118105,"Delta":163122822},{"NoteNumber":94,"Velocity":70,"Duration":118105,"SoundDuration":118105,"Delta":163240928},{"NoteNumber":92,"Velocity":64,"Duration":118105,"SoundDuration":118105,"Delta":163359034},{"NoteNumber":88,"Velocity":70,"Duration":118105,"SoundDuration":118105,"Delta":163477139},{"NoteNumber":91,"Velocity":70,"Duration":118105,"SoundDuration":118105,"Delta":163595245},{"NoteNumber":89,"Velocity":63,"Duration":116794,"SoundDuration":116794,"Delta":163713351},{"NoteNumber":85,"Velocity":63,"Duration":115589,"SoundDuration":115589,"Delta":163830146},{"NoteNumber":87,"Velocity":70,"Duration":114892,"SoundDuration":114892,"Delta":163945735},{"NoteNumber":86,"Velocity":62,"Duration":114098,"SoundDuration":114098,"Delta":164060627},{"NoteNumber":81,"Velocity":62,"Duration":113281,"SoundDuration":113281,"Delta":164174725},{"NoteNumber":84,"Velocity":70,"Duration":112611,"SoundDuration":112611,"Delta":164288006},{"NoteNumber":82,"Velocity":63,"Duration":111942,"SoundDuration":111942,"Delta":164400618},{"NoteNumber":79,"Velocity":62,"Duration":111094,"SoundDuration":111094,"Delta":164512560},{"NoteNumber":82,"Velocity":63,"Duration":110450,"SoundDuration":110450,"Delta":164623655},{"NoteNumber":80,"Velocity":57,"Duration":109716,"SoundDuration":109716,"Delta":164734106},{"NoteNumber":76,"Velocity":56,"Duration":109086,"SoundDuration":109086,"Delta":164843822},{"NoteNumber":79,"Velocity":62,"Duration":109086,"SoundDuration":109086,"Delta":164952909},{"NoteNumber":77,"Velocity":54,"Duration":110040,"SoundDuration":110040,"Delta":165061996},{"NoteNumber":73,"Velocity":54,"Duration":111365,"SoundDuration":111365,"Delta":165172037},{"NoteNumber":75,"Velocity":58,"Duration":116151,"SoundDuration":116151,"Delta":165283403},{"NoteNumber":74,"Velocity":44,"Duration":136071,"SoundDuration":136071,"Delta":165399554},{"NoteNumber":69,"Velocity":44,"Duration":163263,"SoundDuration":163263,"Delta":165535626},{"NoteNumber":72,"Velocity":49,"Duration":796389,"SoundDuration":796389,"Delta":165698889},{"NoteNumber":71,"Velocity":42,"Duration":796389,"SoundDuration":796389,"Delta":166495278},{"NoteNumber":70,"Velocity":40,"Duration":1775848,"SoundDuration":1775848,"Delta":167291668},{"NoteNumber":70,"Velocity":67,"Duration":1251412,"SoundDuration":1251412,"Delta":169135903},{"NoteNumber":51,"Velocity":70,"Duration":590101,"SoundDuration":590101,"Delta":169135903},{"NoteNumber":39,"Velocity":60,"Duration":590101,"SoundDuration":590101,"Delta":169135903},{"NoteNumber":75,"Velocity":56,"Duration":141951,"SoundDuration":141951,"Delta":169299534},{"NoteNumber":79,"Velocity":60,"Duration":141951,"SoundDuration":141951,"Delta":169441485},{"NoteNumber":82,"Velocity":54,"Duration":178210,"SoundDuration":178210,"Delta":169583436},{"NoteNumber":79,"Velocity":62,"Duration":152796,"SoundDuration":152796,"Delta":169761647},{"NoteNumber":58,"Velocity":46,"Duration":592212,"SoundDuration":592212,"Delta":169761647},{"NoteNumber":55,"Velocity":46,"Duration":592212,"SoundDuration":592212,"Delta":169761647},{"NoteNumber":63,"Velocity":55,"Duration":592212,"SoundDuration":592212,"Delta":169761647},{"NoteNumber":82,"Velocity":53,"Duration":152796,"SoundDuration":152796,"Delta":169914443},{"NoteNumber":79,"Velocity":58,"Duration":152796,"SoundDuration":152796,"Delta":170067240},{"NoteNumber":75,"Velocity":51,"Duration":167280,"SoundDuration":167280,"Delta":170220036},{"NoteNumber":72,"Velocity":65,"Duration":1265776,"SoundDuration":1265776,"Delta":170387316},{"NoteNumber":44,"Velocity":60,"Duration":596034,"SoundDuration":596034,"Delta":170387316},{"NoteNumber":56,"Velocity":70,"Duration":596034,"SoundDuration":596034,"Delta":170387316},{"NoteNumber":75,"Velocity":53,"Duration":150496,"SoundDuration":150496,"Delta":170536318},{"NoteNumber":80,"Velocity":57,"Duration":150496,"SoundDuration":150496,"Delta":170686814},{"NoteNumber":84,"Velocity":52,"Duration":182548,"SoundDuration":182548,"Delta":170837311},{"NoteNumber":80,"Velocity":57,"Duration":154368,"SoundDuration":154368,"Delta":171019860},{"NoteNumber":60,"Velocity":48,"Duration":599207,"SoundDuration":599207,"Delta":171019860},{"NoteNumber":56,"Velocity":48,"Duration":599207,"SoundDuration":599207,"Delta":171019860},{"NoteNumber":63,"Velocity":56,"Duration":599207,"SoundDuration":599207,"Delta":171019860},{"NoteNumber":84,"Velocity":53,"Duration":154368,"SoundDuration":154368,"Delta":171174228},{"NoteNumber":80,"Velocity":58,"Duration":154368,"SoundDuration":154368,"Delta":171328597},{"NoteNumber":75,"Velocity":53,"Duration":170126,"SoundDuration":170126,"Delta":171482966},{"NoteNumber":70,"Velocity":68,"Duration":890468,"SoundDuration":890468,"Delta":171653092},{"NoteNumber":51,"Velocity":70,"Duration":592464,"SoundDuration":592464,"Delta":171653092},{"NoteNumber":39,"Velocity":60,"Duration":592464,"SoundDuration":592464,"Delta":171653092},{"NoteNumber":75,"Velocity":53,"Duration":146814,"SoundDuration":146814,"Delta":171805114},{"NoteNumber":79,"Velocity":57,"Duration":146814,"SoundDuration":146814,"Delta":171951928},{"NoteNumber":82,"Velocity":53,"Duration":146814,"SoundDuration":146814,"Delta":172098742},{"NoteNumber":79,"Velocity":57,"Duration":149001,"SoundDuration":149001,"Delta":172245557},{"NoteNumber":55,"Velocity":54,"Duration":298003,"SoundDuration":298003,"Delta":172245557},{"NoteNumber":63,"Velocity":54,"Duration":1817451,"SoundDuration":1817451,"Delta":172245557},{"NoteNumber":75,"Velocity":51,"Duration":149001,"SoundDuration":149001,"Delta":172394558},{"NoteNumber":68,"Velocity":61,"Duration":311744,"SoundDuration":311744,"Delta":172543560},{"NoteNumber":53,"Velocity":50,"Duration":311744,"SoundDuration":311744,"Delta":172543560},{"NoteNumber":80,"Velocity":51,"Duration":162742,"SoundDuration":162742,"Delta":172692562},{"NoteNumber":67,"Velocity":62,"Duration":592464,"SoundDuration":592464,"Delta":172855305},{"NoteNumber":51,"Velocity":55,"Duration":592464,"SoundDuration":592464,"Delta":172855305},{"NoteNumber":70,"Velocity":53,"Duration":146814,"SoundDuration":146814,"Delta":173007327},{"NoteNumber":75,"Velocity":59,"Duration":146814,"SoundDuration":146814,"Delta":173154141},{"NoteNumber":79,"Velocity":52,"Duration":146814,"SoundDuration":146814,"Delta":173300955},{"NoteNumber":68,"Velocity":61,"Duration":615239,"SoundDuration":615239,"Delta":173447769},{"NoteNumber":53,"Velocity":52,"Duration":615239,"SoundDuration":615239,"Delta":173447769},{"NoteNumber":70,"Velocity":52,"Duration":146814,"SoundDuration":146814,"Delta":173594584},{"NoteNumber":75,"Velocity":59,"Duration":147536,"SoundDuration":147536,"Delta":173741398},{"NoteNumber":80,"Velocity":62,"Duration":174074,"SoundDuration":174074,"Delta":173888934},{"NoteNumber":70,"Velocity":67,"Duration":1240362,"SoundDuration":1240362,"Delta":174063009},{"NoteNumber":39,"Velocity":60,"Duration":578860,"SoundDuration":578860,"Delta":174063009},{"NoteNumber":51,"Velocity":70,"Duration":578860,"SoundDuration":578860,"Delta":174063009},{"NoteNumber":75,"Velocity":56,"Duration":144689,"SoundDuration":144689,"Delta":174222295},{"NoteNumber":79,"Velocity":60,"Duration":144689,"SoundDuration":144689,"Delta":174366985},{"NoteNumber":82,"Velocity":54,"Duration":162742,"SoundDuration":162742,"Delta":174511675},{"NoteNumber":79,"Velocity":62,"Duration":153578,"SoundDuration":153578,"Delta":174674418},{"NoteNumber":63,"Velocity":55,"Duration":595309,"SoundDuration":595309,"Delta":174674418},{"NoteNumber":58,"Velocity":46,"Duration":595309,"SoundDuration":595309,"Delta":174674418},{"NoteNumber":55,"Velocity":46,"Duration":595309,"SoundDuration":595309,"Delta":174674418},{"NoteNumber":82,"Velocity":53,"Duration":153578,"SoundDuration":153578,"Delta":174827996},{"NoteNumber":79,"Velocity":58,"Duration":153578,"SoundDuration":153578,"Delta":174981575},{"NoteNumber":75,"Velocity":51,"Duration":168217,"SoundDuration":168217,"Delta":175135153},{"NoteNumber":72,"Velocity":65,"Duration":1250668,"SoundDuration":1250668,"Delta":175303371},{"NoteNumber":44,"Velocity":60,"Duration":583273,"SoundDuration":583273,"Delta":175303371},{"NoteNumber":56,"Velocity":70,"Duration":583273,"SoundDuration":583273,"Delta":175303371},{"NoteNumber":75,"Velocity":53,"Duration":149001,"SoundDuration":149001,"Delta":175450186},{"NoteNumber":80,"Velocity":57,"Duration":149001,"SoundDuration":149001,"Delta":175599187},{"NoteNumber":84,"Velocity":52,"Duration":173070,"SoundDuration":173070,"Delta":175748189},{"NoteNumber":80,"Velocity":57,"Duration":155167,"SoundDuration":155167,"Delta":175921259},{"NoteNumber":60,"Velocity":48,"Duration":599324,"SoundDuration":599324,"Delta":175921259},{"NoteNumber":63,"Velocity":56,"Duration":599324,"SoundDuration":599324,"Delta":175921259},{"NoteNumber":56,"Velocity":48,"Duration":599324,"SoundDuration":599324,"Delta":175921259},{"NoteNumber":84,"Velocity":53,"Duration":155167,"SoundDuration":155167,"Delta":176076426},{"NoteNumber":80,"Velocity":58,"Duration":155166,"SoundDuration":155166,"Delta":176231593},{"NoteNumber":75,"Velocity":53,"Duration":167280,"SoundDuration":167280,"Delta":176386760},{"NoteNumber":70,"Velocity":68,"Duration":893348,"SoundDuration":893348,"Delta":176554040},{"NoteNumber":51,"Velocity":70,"Duration":596817,"SoundDuration":596817,"Delta":176554040},{"NoteNumber":39,"Velocity":60,"Duration":596817,"SoundDuration":596817,"Delta":176554040},{"NoteNumber":75,"Velocity":53,"Duration":148265,"SoundDuration":148265,"Delta":176706062},{"NoteNumber":79,"Velocity":57,"Duration":148265,"SoundDuration":148265,"Delta":176854328},{"NoteNumber":82,"Velocity":53,"Duration":148265,"SoundDuration":148265,"Delta":177002593},{"NoteNumber":79,"Velocity":57,"Duration":148265,"SoundDuration":148265,"Delta":177150858},{"NoteNumber":55,"Velocity":54,"Duration":296530,"SoundDuration":296530,"Delta":177150858},{"NoteNumber":63,"Velocity":54,"Duration":1825655,"SoundDuration":1825655,"Delta":177150858},{"NoteNumber":75,"Velocity":51,"Duration":148265,"SoundDuration":148265,"Delta":177299123},{"NoteNumber":68,"Velocity":61,"Duration":321335,"SoundDuration":321335,"Delta":177447389},{"NoteNumber":53,"Velocity":50,"Duration":321335,"SoundDuration":321335,"Delta":177447389},{"NoteNumber":80,"Velocity":51,"Duration":173070,"SoundDuration":173070,"Delta":177595654},{"NoteNumber":67,"Velocity":61,"Duration":590188,"SoundDuration":590188,"Delta":177768724},{"NoteNumber":51,"Velocity":55,"Duration":590188,"SoundDuration":590188,"Delta":177768724},{"NoteNumber":70,"Velocity":52,"Duration":146814,"SoundDuration":146814,"Delta":177918470},{"NoteNumber":75,"Velocity":58,"Duration":146814,"SoundDuration":146814,"Delta":178065284},{"NoteNumber":79,"Velocity":54,"Duration":146814,"SoundDuration":146814,"Delta":178212098},{"NoteNumber":68,"Velocity":61,"Duration":617601,"SoundDuration":617601,"Delta":178358912},{"NoteNumber":53,"Velocity":52,"Duration":617601,"SoundDuration":617601,"Delta":178358912},{"NoteNumber":70,"Velocity":49,"Duration":146814,"SoundDuration":146814,"Delta":178505727},{"NoteNumber":75,"Velocity":60,"Duration":146814,"SoundDuration":146814,"Delta":178652541},{"NoteNumber":80,"Velocity":62,"Duration":177158,"SoundDuration":177158,"Delta":178799355},{"NoteNumber":70,"Velocity":67,"Duration":1242168,"SoundDuration":1242168,"Delta":178976514},{"NoteNumber":51,"Velocity":70,"Duration":591096,"SoundDuration":591096,"Delta":178976514},{"NoteNumber":39,"Velocity":60,"Duration":591096,"SoundDuration":591096,"Delta":178976514},{"NoteNumber":75,"Velocity":56,"Duration":152021,"SoundDuration":152021,"Delta":179141949},{"NoteNumber":79,"Velocity":60,"Duration":152022,"SoundDuration":152022,"Delta":179293971},{"NoteNumber":82,"Velocity":54,"Duration":152021,"SoundDuration":152021,"Delta":179445993},{"NoteNumber":79,"Velocity":62,"Duration":155167,"SoundDuration":155167,"Delta":179598015},{"NoteNumber":55,"Velocity":46,"Duration":589634,"SoundDuration":589634,"Delta":179598015},{"NoteNumber":58,"Velocity":46,"Duration":589634,"SoundDuration":589634,"Delta":179598015},{"NoteNumber":63,"Velocity":55,"Duration":589634,"SoundDuration":589634,"Delta":179598015},{"NoteNumber":82,"Velocity":53,"Duration":155167,"SoundDuration":155167,"Delta":179753182},{"NoteNumber":79,"Velocity":58,"Duration":155166,"SoundDuration":155166,"Delta":179908349},{"NoteNumber":75,"Velocity":51,"Duration":155167,"SoundDuration":155167,"Delta":180063516},{"NoteNumber":70,"Velocity":72,"Duration":1257498,"SoundDuration":1257498,"Delta":180218683},{"NoteNumber":38,"Velocity":60,"Duration":577683,"SoundDuration":577683,"Delta":180218683},{"NoteNumber":50,"Velocity":70,"Duration":577683,"SoundDuration":577683,"Delta":180218683},{"NoteNumber":74,"Velocity":57,"Duration":152022,"SoundDuration":152022,"Delta":180370705},{"NoteNumber":77,"Velocity":62,"Duration":152021,"SoundDuration":152021,"Delta":180522727},{"NoteNumber":82,"Velocity":56,"Duration":152022,"SoundDuration":152022,"Delta":180674749},{"NoteNumber":77,"Velocity":62,"Duration":158445,"SoundDuration":158445,"Delta":180826771},{"NoteNumber":53,"Velocity":48,"Duration":614595,"SoundDuration":614595,"Delta":180826771},{"NoteNumber":58,"Velocity":48,"Duration":614595,"SoundDuration":614595,"Delta":180826771},{"NoteNumber":65,"Velocity":56,"Duration":614595,"SoundDuration":614595,"Delta":180826771},{"NoteNumber":82,"Velocity":57,"Duration":158445,"SoundDuration":158445,"Delta":180985216},{"NoteNumber":77,"Velocity":65,"Duration":158445,"SoundDuration":158445,"Delta":181143661},{"NoteNumber":74,"Velocity":60,"Duration":172971,"SoundDuration":172971,"Delta":181312261},{"NoteNumber":72,"Velocity":71,"Duration":1230929,"SoundDuration":1230929,"Delta":181476181},{"NoteNumber":48,"Velocity":76,"Duration":580828,"SoundDuration":580828,"Delta":181476181},{"NoteNumber":36,"Velocity":76,"Duration":580828,"SoundDuration":580828,"Delta":181476181},{"NoteNumber":75,"Velocity":57,"Duration":152021,"SoundDuration":152021,"Delta":181631348},{"NoteNumber":81,"Velocity":65,"Duration":152022,"SoundDuration":152022,"Delta":181783370},{"NoteNumber":84,"Velocity":58,"Duration":152021,"SoundDuration":152021,"Delta":181935392},{"NoteNumber":81,"Velocity":63,"Duration":152022,"SoundDuration":152022,"Delta":182087414},{"NoteNumber":57,"Velocity":60,"Duration":586970,"SoundDuration":586970,"Delta":182087414},{"NoteNumber":63,"Velocity":60,"Duration":586970,"SoundDuration":586970,"Delta":182087414},{"NoteNumber":53,"Velocity":60,"Duration":587647,"SoundDuration":587647,"Delta":182096282},{"NoteNumber":84,"Velocity":57,"Duration":152021,"SoundDuration":152021,"Delta":182239436},{"NoteNumber":81,"Velocity":57,"Duration":152022,"SoundDuration":152022,"Delta":182391458},{"NoteNumber":75,"Velocity":51,"Duration":163630,"SoundDuration":163630,"Delta":182543480},{"NoteNumber":74,"Velocity":73,"Duration":629653,"SoundDuration":629653,"Delta":182707110},{"NoteNumber":53,"Velocity":65,"Duration":598295,"SoundDuration":598295,"Delta":182707110},{"NoteNumber":46,"Velocity":65,"Duration":598295,"SoundDuration":598295,"Delta":182707110},{"NoteNumber":58,"Velocity":77,"Duration":598295,"SoundDuration":598295,"Delta":182707110},{"NoteNumber":77,"Velocity":63,"Duration":156789,"SoundDuration":156789,"Delta":182866397},{"NoteNumber":82,"Velocity":68,"Duration":156789,"SoundDuration":156789,"Delta":183023186},{"NoteNumber":86,"Velocity":64,"Duration":156789,"SoundDuration":156789,"Delta":183179975},{"NoteNumber":75,"Velocity":79,"Duration":645093,"SoundDuration":645093,"Delta":183336764},{"NoteNumber":55,"Velocity":59,"Duration":610479,"SoundDuration":610479,"Delta":183336764},{"NoteNumber":51,"Velocity":55,"Duration":610479,"SoundDuration":610479,"Delta":183336764},{"NoteNumber":60,"Velocity":70,"Duration":610479,"SoundDuration":610479,"Delta":183336764},{"NoteNumber":79,"Velocity":62,"Duration":156788,"SoundDuration":156788,"Delta":183493553},{"NoteNumber":84,"Velocity":70,"Duration":158445,"SoundDuration":158445,"Delta":183650342},{"NoteNumber":87,"Velocity":66,"Duration":173070,"SoundDuration":173070,"Delta":183808787},{"NoteNumber":74,"Velocity":83,"Duration":1275190,"SoundDuration":1275190,"Delta":183981857},{"NoteNumber":53,"Velocity":60,"Duration":589634,"SoundDuration":589634,"Delta":183981857},{"NoteNumber":58,"Velocity":60,"Duration":589634,"SoundDuration":589634,"Delta":183981857},{"NoteNumber":62,"Velocity":70,"Duration":589634,"SoundDuration":589634,"Delta":183981857},{"NoteNumber":77,"Velocity":66,"Duration":155167,"SoundDuration":155167,"Delta":184137024},{"NoteNumber":82,"Velocity":74,"Duration":155166,"SoundDuration":155166,"Delta":184292191},{"NoteNumber":86,"Velocity":66,"Duration":155167,"SoundDuration":155167,"Delta":184447358},{"NoteNumber":82,"Velocity":79,"Duration":163630,"SoundDuration":163630,"Delta":184602525},{"NoteNumber":53,"Velocity":74,"Duration":621795,"SoundDuration":621795,"Delta":184602525},{"NoteNumber":41,"Velocity":74,"Duration":621795,"SoundDuration":621795,"Delta":184602525},{"NoteNumber":86,"Velocity":66,"Duration":163630,"SoundDuration":163630,"Delta":184766156},{"NoteNumber":82,"Velocity":73,"Duration":163630,"SoundDuration":163630,"Delta":184929786},{"NoteNumber":77,"Velocity":65,"Duration":163630,"SoundDuration":163630,"Delta":185093417},{"NoteNumber":72,"Velocity":79,"Duration":1310922,"SoundDuration":1310922,"Delta":185257047},{"NoteNumber":63,"Velocity":70,"Duration":605288,"SoundDuration":605288,"Delta":185257047},{"NoteNumber":57,"Velocity":60,"Duration":605288,"SoundDuration":605288,"Delta":185257047},{"NoteNumber":53,"Velocity":60,"Duration":605288,"SoundDuration":605288,"Delta":185257047},{"NoteNumber":75,"Velocity":61,"Duration":159286,"SoundDuration":159286,"Delta":185416334},{"NoteNumber":81,"Velocity":75,"Duration":159286,"SoundDuration":159286,"Delta":185575620},{"NoteNumber":84,"Velocity":62,"Duration":159286,"SoundDuration":159286,"Delta":185734907},{"NoteNumber":81,"Velocity":74,"Duration":163630,"SoundDuration":163630,"Delta":185894193},{"NoteNumber":41,"Velocity":75,"Duration":637921,"SoundDuration":637921,"Delta":185894193},{"NoteNumber":53,"Velocity":75,"Duration":637921,"SoundDuration":637921,"Delta":185894193},{"NoteNumber":84,"Velocity":60,"Duration":165435,"SoundDuration":165435,"Delta":186057824},{"NoteNumber":81,"Velocity":71,"Duration":165435,"SoundDuration":165435,"Delta":186223259},{"NoteNumber":75,"Velocity":62,"Duration":179275,"SoundDuration":179275,"Delta":186388694},{"NoteNumber":70,"Velocity":85,"Duration":644776,"SoundDuration":644776,"Delta":186567970},{"NoteNumber":34,"Velocity":64,"Duration":613743,"SoundDuration":613743,"Delta":186567970},{"NoteNumber":46,"Velocity":75,"Duration":613743,"SoundDuration":613743,"Delta":186567970},{"NoteNumber":74,"Velocity":76,"Duration":155167,"SoundDuration":155167,"Delta":186747245},{"NoteNumber":77,"Velocity":73,"Duration":155167,"SoundDuration":155167,"Delta":186902412},{"NoteNumber":82,"Velocity":71,"Duration":148701,"SoundDuration":148701,"Delta":187057579},{"NoteNumber":82,"Velocity":75,"Duration":161864,"SoundDuration":161864,"Delta":187212746},{"NoteNumber":58,"Velocity":64,"Duration":642739,"SoundDuration":642739,"Delta":187212746},{"NoteNumber":53,"Velocity":64,"Duration":642739,"SoundDuration":642739,"Delta":187212746},{"NoteNumber":62,"Velocity":64,"Duration":642739,"SoundDuration":642739,"Delta":187212746},{"NoteNumber":86,"Velocity":73,"Duration":161864,"SoundDuration":161864,"Delta":187374611},{"NoteNumber":89,"Velocity":70,"Duration":172077,"SoundDuration":172077,"Delta":187536476},{"NoteNumber":94,"Velocity":67,"Duration":183665,"SoundDuration":183665,"Delta":187708553},{"NoteNumber":82,"Velocity":76,"Duration":183666,"SoundDuration":183666,"Delta":187892219},{"NoteNumber":70,"Velocity":55,"Duration":183666,"SoundDuration":183666,"Delta":187892219},{"NoteNumber":65,"Velocity":55,"Duration":183666,"SoundDuration":183666,"Delta":187892219},{"NoteNumber":62,"Velocity":55,"Duration":183666,"SoundDuration":183666,"Delta":187892219},{"NoteNumber":62,"Velocity":56,"Duration":91833,"SoundDuration":91833,"Delta":189269714},{"NoteNumber":65,"Velocity":62,"Duration":273548,"SoundDuration":273548,"Delta":189361547},{"NoteNumber":46,"Velocity":50,"Duration":273548,"SoundDuration":273548,"Delta":189361547},{"NoteNumber":34,"Velocity":42,"Duration":273548,"SoundDuration":273548,"Delta":189361547},{"NoteNumber":56,"Velocity":35,"Duration":259870,"SoundDuration":259870,"Delta":189635095},{"NoteNumber":62,"Velocity":42,"Duration":259870,"SoundDuration":259870,"Delta":189635095},{"NoteNumber":58,"Velocity":35,"Duration":259870,"SoundDuration":259870,"Delta":189635095},{"NoteNumber":77,"Velocity":65,"Duration":128567,"SoundDuration":128567,"Delta":189908643},{"NoteNumber":58,"Velocity":35,"Duration":244278,"SoundDuration":244278,"Delta":189908643},{"NoteNumber":62,"Velocity":42,"Duration":244278,"SoundDuration":244278,"Delta":189908643},{"NoteNumber":56,"Velocity":35,"Duration":244278,"SoundDuration":244278,"Delta":189908643},{"NoteNumber":79,"Velocity":55,"Duration":128567,"SoundDuration":128567,"Delta":190037211},{"NoteNumber":77,"Velocity":55,"Duration":128567,"SoundDuration":128567,"Delta":190165779},{"NoteNumber":62,"Velocity":42,"Duration":258788,"SoundDuration":258788,"Delta":190165779},{"NoteNumber":58,"Velocity":35,"Duration":258788,"SoundDuration":258788,"Delta":190165779},{"NoteNumber":56,"Velocity":35,"Duration":258788,"SoundDuration":258788,"Delta":190165779},{"NoteNumber":76,"Velocity":55,"Duration":144689,"SoundDuration":144689,"Delta":190294347},{"NoteNumber":77,"Velocity":64,"Duration":136153,"SoundDuration":136153,"Delta":190439037},{"NoteNumber":58,"Velocity":39,"Duration":258691,"SoundDuration":258691,"Delta":190439037},{"NoteNumber":56,"Velocity":39,"Duration":258691,"SoundDuration":258691,"Delta":190439037},{"NoteNumber":62,"Velocity":46,"Duration":258691,"SoundDuration":258691,"Delta":190439037},{"NoteNumber":56,"Velocity":35,"Duration":258691,"SoundDuration":258691,"Delta":190711343},{"NoteNumber":62,"Velocity":42,"Duration":258691,"SoundDuration":258691,"Delta":190711343},{"NoteNumber":58,"Velocity":35,"Duration":258691,"SoundDuration":258691,"Delta":190711343},{"NoteNumber":79,"Velocity":74,"Duration":278628,"SoundDuration":278628,"Delta":190983650},{"NoteNumber":58,"Velocity":41,"Duration":264697,"SoundDuration":264697,"Delta":190983650},{"NoteNumber":61,"Velocity":41,"Duration":264697,"SoundDuration":264697,"Delta":190983650},{"NoteNumber":64,"Velocity":49,"Duration":264697,"SoundDuration":264697,"Delta":190983650},{"NoteNumber":61,"Velocity":38,"Duration":264697,"SoundDuration":264697,"Delta":191262279},{"NoteNumber":64,"Velocity":45,"Duration":264697,"SoundDuration":264697,"Delta":191262279},{"NoteNumber":58,"Velocity":38,"Duration":264697,"SoundDuration":264697,"Delta":191262279},{"NoteNumber":80,"Velocity":79,"Duration":679844,"SoundDuration":679844,"Delta":191540908},{"NoteNumber":46,"Velocity":42,"Duration":261060,"SoundDuration":261060,"Delta":191540908},{"NoteNumber":58,"Velocity":50,"Duration":261060,"SoundDuration":261060,"Delta":191540908},{"NoteNumber":65,"Velocity":43,"Duration":261060,"SoundDuration":261060,"Delta":191815709},{"NoteNumber":62,"Velocity":36,"Duration":261060,"SoundDuration":261060,"Delta":191815709},{"NoteNumber":58,"Velocity":36,"Duration":261060,"SoundDuration":261060,"Delta":191815709},{"NoteNumber":62,"Velocity":37,"Duration":247460,"SoundDuration":247460,"Delta":192090510},{"NoteNumber":58,"Velocity":37,"Duration":247460,"SoundDuration":247460,"Delta":192090510},{"NoteNumber":65,"Velocity":44,"Duration":247460,"SoundDuration":247460,"Delta":192090510},{"NoteNumber":82,"Velocity":62,"Duration":130242,"SoundDuration":130242,"Delta":192220752},{"NoteNumber":80,"Velocity":70,"Duration":130242,"SoundDuration":130242,"Delta":192350994},{"NoteNumber":62,"Velocity":33,"Duration":247460,"SoundDuration":247460,"Delta":192350994},{"NoteNumber":65,"Velocity":39,"Duration":247460,"SoundDuration":247460,"Delta":192350994},{"NoteNumber":58,"Velocity":33,"Duration":247460,"SoundDuration":247460,"Delta":192350994},{"NoteNumber":79,"Velocity":66,"Duration":130242,"SoundDuration":130242,"Delta":192481236},{"NoteNumber":80,"Velocity":58,"Duration":824402,"SoundDuration":824402,"Delta":192611479},{"NoteNumber":65,"Velocity":46,"Duration":261060,"SoundDuration":261060,"Delta":192611479},{"NoteNumber":62,"Velocity":39,"Duration":261060,"SoundDuration":261060,"Delta":192611479},{"NoteNumber":58,"Velocity":39,"Duration":261060,"SoundDuration":261060,"Delta":192611479},{"NoteNumber":58,"Velocity":28,"Duration":261060,"SoundDuration":261060,"Delta":192886280},{"NoteNumber":65,"Velocity":34,"Duration":261060,"SoundDuration":261060,"Delta":192886280},{"NoteNumber":62,"Velocity":28,"Duration":261060,"SoundDuration":261060,"Delta":192886280},{"NoteNumber":58,"Velocity":28,"Duration":261060,"SoundDuration":261060,"Delta":193161081},{"NoteNumber":62,"Velocity":28,"Duration":261060,"SoundDuration":261060,"Delta":193161081},{"NoteNumber":65,"Velocity":34,"Duration":261060,"SoundDuration":261060,"Delta":193161081},{"NoteNumber":58,"Velocity":28,"Duration":206100,"SoundDuration":206100,"Delta":193435882},{"NoteNumber":65,"Velocity":34,"Duration":206100,"SoundDuration":206100,"Delta":193435882},{"NoteNumber":62,"Velocity":28,"Duration":206100,"SoundDuration":206100,"Delta":193435882},{"NoteNumber":63,"Velocity":65,"Duration":307741,"SoundDuration":307741,"Delta":193676176},{"NoteNumber":67,"Velocity":70,"Duration":273548,"SoundDuration":273548,"Delta":193710369},{"NoteNumber":51,"Velocity":50,"Duration":273548,"SoundDuration":273548,"Delta":193710369},{"NoteNumber":39,"Velocity":42,"Duration":273548,"SoundDuration":273548,"Delta":193710369},{"NoteNumber":55,"Velocity":35,"Duration":259870,"SoundDuration":259870,"Delta":193983917},{"NoteNumber":58,"Velocity":35,"Duration":259870,"SoundDuration":259870,"Delta":193983917},{"NoteNumber":63,"Velocity":42,"Duration":259870,"SoundDuration":259870,"Delta":193983917},{"NoteNumber":79,"Velocity":72,"Duration":130242,"SoundDuration":130242,"Delta":194257465},{"NoteNumber":58,"Velocity":35,"Duration":247460,"SoundDuration":247460,"Delta":194257465},{"NoteNumber":63,"Velocity":42,"Duration":247460,"SoundDuration":247460,"Delta":194257465},{"NoteNumber":55,"Velocity":35,"Duration":247460,"SoundDuration":247460,"Delta":194257465},{"NoteNumber":80,"Velocity":61,"Duration":130242,"SoundDuration":130242,"Delta":194387708},{"NoteNumber":79,"Velocity":61,"Duration":130242,"SoundDuration":130242,"Delta":194517950},{"NoteNumber":58,"Velocity":35,"Duration":263024,"SoundDuration":263024,"Delta":194517950},{"NoteNumber":63,"Velocity":42,"Duration":263024,"SoundDuration":263024,"Delta":194517950},{"NoteNumber":55,"Velocity":35,"Duration":263024,"SoundDuration":263024,"Delta":194517950},{"NoteNumber":78,"Velocity":61,"Duration":147536,"SoundDuration":147536,"Delta":194648192},{"NoteNumber":79,"Velocity":73,"Duration":136774,"SoundDuration":136774,"Delta":194795728},{"NoteNumber":55,"Velocity":39,"Duration":259870,"SoundDuration":259870,"Delta":194795728},{"NoteNumber":63,"Velocity":46,"Duration":259870,"SoundDuration":259870,"Delta":194795728},{"NoteNumber":58,"Velocity":39,"Duration":259870,"SoundDuration":259870,"Delta":194795728},{"NoteNumber":58,"Velocity":35,"Duration":259870,"SoundDuration":259870,"Delta":195069276},{"NoteNumber":55,"Velocity":35,"Duration":259870,"SoundDuration":259870,"Delta":195069276},{"NoteNumber":63,"Velocity":42,"Duration":259870,"SoundDuration":259870,"Delta":195069276},{"NoteNumber":80,"Velocity":74,"Duration":278628,"SoundDuration":278628,"Delta":195342824},{"NoteNumber":65,"Velocity":49,"Duration":264697,"SoundDuration":264697,"Delta":195342824},{"NoteNumber":56,"Velocity":41,"Duration":264697,"SoundDuration":264697,"Delta":195342824},{"NoteNumber":58,"Velocity":41,"Duration":264697,"SoundDuration":264697,"Delta":195342824},{"NoteNumber":56,"Velocity":38,"Duration":264697,"SoundDuration":264697,"Delta":195621453},{"NoteNumber":65,"Velocity":45,"Duration":264697,"SoundDuration":264697,"Delta":195621453},{"NoteNumber":58,"Velocity":38,"Duration":264697,"SoundDuration":264697,"Delta":195621453},{"NoteNumber":82,"Velocity":79,"Duration":679057,"SoundDuration":679057,"Delta":195900082},{"NoteNumber":51,"Velocity":50,"Duration":273548,"SoundDuration":273548,"Delta":195900082},{"NoteNumber":39,"Velocity":42,"Duration":273548,"SoundDuration":273548,"Delta":195900082},{"NoteNumber":63,"Velocity":36,"Duration":259870,"SoundDuration":259870,"Delta":196173630},{"NoteNumber":67,"Velocity":43,"Duration":259870,"SoundDuration":259870,"Delta":196173630},{"NoteNumber":58,"Velocity":36,"Duration":259870,"SoundDuration":259870,"Delta":196173630},{"NoteNumber":63,"Velocity":37,"Duration":250725,"SoundDuration":250725,"Delta":196447178},{"NoteNumber":58,"Velocity":37,"Duration":250725,"SoundDuration":250725,"Delta":196447178},{"NoteNumber":67,"Velocity":44,"Duration":250725,"SoundDuration":250725,"Delta":196447178},{"NoteNumber":84,"Velocity":62,"Duration":131961,"SoundDuration":131961,"Delta":196579139},{"NoteNumber":82,"Velocity":70,"Duration":131960,"SoundDuration":131960,"Delta":196711100},{"NoteNumber":67,"Velocity":39,"Duration":250725,"SoundDuration":250725,"Delta":196711100},{"NoteNumber":63,"Velocity":33,"Duration":250725,"SoundDuration":250725,"Delta":196711100},{"NoteNumber":58,"Velocity":33,"Duration":250725,"SoundDuration":250725,"Delta":196711100},{"NoteNumber":81,"Velocity":66,"Duration":131960,"SoundDuration":131960,"Delta":196843061},{"NoteNumber":82,"Velocity":60,"Duration":820643,"SoundDuration":820643,"Delta":196975022},{"NoteNumber":63,"Velocity":39,"Duration":259870,"SoundDuration":259870,"Delta":196975022},{"NoteNumber":58,"Velocity":39,"Duration":259870,"SoundDuration":259870,"Delta":196975022},{"NoteNumber":67,"Velocity":46,"Duration":259870,"SoundDuration":259870,"Delta":196975022},{"NoteNumber":63,"Velocity":28,"Duration":259870,"SoundDuration":259870,"Delta":197248570},{"NoteNumber":58,"Velocity":28,"Duration":259870,"SoundDuration":259870,"Delta":197248570},{"NoteNumber":67,"Velocity":34,"Duration":259870,"SoundDuration":259870,"Delta":197248570},{"NoteNumber":67,"Velocity":34,"Duration":259870,"SoundDuration":259870,"Delta":197522118},{"NoteNumber":58,"Velocity":28,"Duration":259870,"SoundDuration":259870,"Delta":197522118},{"NoteNumber":63,"Velocity":28,"Duration":259870,"SoundDuration":259870,"Delta":197522118},{"NoteNumber":63,"Velocity":28,"Duration":238214,"SoundDuration":238214,"Delta":197795666},{"NoteNumber":67,"Velocity":34,"Duration":238214,"SoundDuration":238214,"Delta":197795666},{"NoteNumber":58,"Velocity":28,"Duration":238214,"SoundDuration":238214,"Delta":197795666},{"NoteNumber":87,"Velocity":80,"Duration":533125,"SoundDuration":533125,"Delta":198069214},{"NoteNumber":48,"Velocity":49,"Duration":252951,"SoundDuration":252951,"Delta":198069214},{"NoteNumber":60,"Velocity":58,"Duration":252951,"SoundDuration":252951,"Delta":198069214},{"NoteNumber":75,"Velocity":51,"Duration":133132,"SoundDuration":133132,"Delta":198202347},{"NoteNumber":79,"Velocity":60,"Duration":133132,"SoundDuration":133132,"Delta":198335479},{"NoteNumber":60,"Velocity":42,"Duration":253428,"SoundDuration":253428,"Delta":198335479},{"NoteNumber":63,"Velocity":50,"Duration":253428,"SoundDuration":253428,"Delta":198335479},{"NoteNumber":75,"Velocity":51,"Duration":133728,"SoundDuration":133728,"Delta":198468611},{"NoteNumber":86,"Velocity":77,"Duration":537296,"SoundDuration":537296,"Delta":198602339},{"NoteNumber":58,"Velocity":60,"Duration":255216,"SoundDuration":255216,"Delta":198602339},{"NoteNumber":46,"Velocity":51,"Duration":255216,"SoundDuration":255216,"Delta":198602339},{"NoteNumber":74,"Velocity":53,"Duration":134324,"SoundDuration":134324,"Delta":198736664},{"NoteNumber":79,"Velocity":60,"Duration":134324,"SoundDuration":134324,"Delta":198870988},{"NoteNumber":62,"Velocity":50,"Duration":255216,"SoundDuration":255216,"Delta":198870988},{"NoteNumber":58,"Velocity":42,"Duration":255216,"SoundDuration":255216,"Delta":198870988},{"NoteNumber":74,"Velocity":52,"Duration":134324,"SoundDuration":134324,"Delta":199005312},{"NoteNumber":84,"Velocity":75,"Duration":539714,"SoundDuration":539714,"Delta":199139636},{"NoteNumber":56,"Velocity":59,"Duration":256364,"SoundDuration":256364,"Delta":199139636},{"NoteNumber":44,"Velocity":50,"Duration":256364,"SoundDuration":256364,"Delta":199139636},{"NoteNumber":72,"Velocity":56,"Duration":134928,"SoundDuration":134928,"Delta":199274565},{"NoteNumber":75,"Velocity":60,"Duration":134928,"SoundDuration":134928,"Delta":199409493},{"NoteNumber":56,"Velocity":42,"Duration":256364,"SoundDuration":256364,"Delta":199409493},{"NoteNumber":60,"Velocity":50,"Duration":256364,"SoundDuration":256364,"Delta":199409493},{"NoteNumber":72,"Velocity":55,"Duration":134928,"SoundDuration":134928,"Delta":199544422},{"NoteNumber":82,"Velocity":74,"Duration":567804,"SoundDuration":567804,"Delta":199679350},{"NoteNumber":43,"Velocity":49,"Duration":269707,"SoundDuration":269707,"Delta":199679350},{"NoteNumber":55,"Velocity":58,"Duration":269707,"SoundDuration":269707,"Delta":199679350},{"NoteNumber":70,"Velocity":53,"Duration":141951,"SoundDuration":141951,"Delta":199821302},{"NoteNumber":75,"Velocity":60,"Duration":141951,"SoundDuration":141951,"Delta":199963253},{"NoteNumber":58,"Velocity":50,"Duration":269707,"SoundDuration":269707,"Delta":199963253},{"NoteNumber":55,"Velocity":42,"Duration":269707,"SoundDuration":269707,"Delta":199963253},{"NoteNumber":70,"Velocity":60,"Duration":141951,"SoundDuration":141951,"Delta":200105204},{"NoteNumber":87,"Velocity":85,"Duration":547096,"SoundDuration":547096,"Delta":200247155},{"NoteNumber":60,"Velocity":58,"Duration":259870,"SoundDuration":259870,"Delta":200247155},{"NoteNumber":48,"Velocity":49,"Duration":259870,"SoundDuration":259870,"Delta":200247155},{"NoteNumber":75,"Velocity":51,"Duration":136774,"SoundDuration":136774,"Delta":200383929},{"NoteNumber":79,"Velocity":60,"Duration":136774,"SoundDuration":136774,"Delta":200520703},{"NoteNumber":60,"Velocity":42,"Duration":259870,"SoundDuration":259870,"Delta":200520703},{"NoteNumber":63,"Velocity":50,"Duration":259870,"SoundDuration":259870,"Delta":200520703},{"NoteNumber":75,"Velocity":51,"Duration":136774,"SoundDuration":136774,"Delta":200657477},{"NoteNumber":84,"Velocity":77,"Duration":547095,"SoundDuration":547095,"Delta":200794251},{"NoteNumber":56,"Velocity":60,"Duration":259870,"SoundDuration":259870,"Delta":200794251},{"NoteNumber":44,"Velocity":51,"Duration":259870,"SoundDuration":259870,"Delta":200794251},{"NoteNumber":72,"Velocity":53,"Duration":136773,"SoundDuration":136773,"Delta":200931025},{"NoteNumber":77,"Velocity":60,"Duration":136774,"SoundDuration":136774,"Delta":201067799},{"NoteNumber":56,"Velocity":42,"Duration":259870,"SoundDuration":259870,"Delta":201067799},{"NoteNumber":62,"Velocity":50,"Duration":259870,"SoundDuration":259870,"Delta":201067799},{"NoteNumber":72,"Velocity":52,"Duration":136774,"SoundDuration":136774,"Delta":201204573},{"NoteNumber":82,"Velocity":76,"Duration":554682,"SoundDuration":554682,"Delta":201341347},{"NoteNumber":55,"Velocity":59,"Duration":263473,"SoundDuration":263473,"Delta":201341347},{"NoteNumber":43,"Velocity":50,"Duration":263473,"SoundDuration":263473,"Delta":201341347},{"NoteNumber":70,"Velocity":56,"Duration":138670,"SoundDuration":138670,"Delta":201480018},{"NoteNumber":75,"Velocity":60,"Duration":138670,"SoundDuration":138670,"Delta":201618688},{"NoteNumber":58,"Velocity":42,"Duration":263473,"SoundDuration":263473,"Delta":201618688},{"NoteNumber":63,"Velocity":50,"Duration":263473,"SoundDuration":263473,"Delta":201618688},{"NoteNumber":70,"Velocity":55,"Duration":138670,"SoundDuration":138670,"Delta":201757359},{"NoteNumber":80,"Velocity":76,"Duration":567804,"SoundDuration":567804,"Delta":201896029},{"NoteNumber":44,"Velocity":49,"Duration":269707,"SoundDuration":269707,"Delta":201896029},{"NoteNumber":56,"Velocity":58,"Duration":269707,"SoundDuration":269707,"Delta":201896029},{"NoteNumber":68,"Velocity":53,"Duration":141951,"SoundDuration":141951,"Delta":202037981},{"NoteNumber":72,"Velocity":60,"Duration":141951,"SoundDuration":141951,"Delta":202179932},{"NoteNumber":60,"Velocity":42,"Duration":269707,"SoundDuration":269707,"Delta":202179932},{"NoteNumber":65,"Velocity":50,"Duration":269707,"SoundDuration":269707,"Delta":202179932},{"NoteNumber":68,"Velocity":60,"Duration":141951,"SoundDuration":141951,"Delta":202321883},{"NoteNumber":79,"Velocity":80,"Duration":1094191,"SoundDuration":1094191,"Delta":202463834},{"NoteNumber":46,"Velocity":49,"Duration":547096,"SoundDuration":547096,"Delta":202463834},{"NoteNumber":58,"Velocity":58,"Duration":535698,"SoundDuration":535698,"Delta":202463834},{"NoteNumber":67,"Velocity":51,"Duration":136774,"SoundDuration":136774,"Delta":202600608},{"NoteNumber":70,"Velocity":60,"Duration":136774,"SoundDuration":136774,"Delta":202737382},{"NoteNumber":67,"Velocity":51,"Duration":136774,"SoundDuration":136774,"Delta":202874156},{"NoteNumber":63,"Velocity":60,"Duration":547095,"SoundDuration":547095,"Delta":203010930},{"NoteNumber":58,"Velocity":51,"Duration":547095,"SoundDuration":547095,"Delta":203010930},{"NoteNumber":67,"Velocity":53,"Duration":136773,"SoundDuration":136773,"Delta":203147704},{"NoteNumber":70,"Velocity":60,"Duration":136774,"SoundDuration":136774,"Delta":203284478},{"NoteNumber":67,"Velocity":52,"Duration":136774,"SoundDuration":136774,"Delta":203421252},{"NoteNumber":77,"Velocity":73,"Duration":1122487,"SoundDuration":1122487,"Delta":203558026},{"NoteNumber":34,"Velocity":50,"Duration":554682,"SoundDuration":554682,"Delta":203558026},{"NoteNumber":46,"Velocity":59,"Duration":554682,"SoundDuration":554682,"Delta":203558026},{"NoteNumber":65,"Velocity":56,"Duration":138670,"SoundDuration":138670,"Delta":203696697},{"NoteNumber":68,"Velocity":60,"Duration":138670,"SoundDuration":138670,"Delta":203835367},{"NoteNumber":65,"Velocity":55,"Duration":138670,"SoundDuration":138670,"Delta":203974038},{"NoteNumber":56,"Velocity":49,"Duration":567804,"SoundDuration":567804,"Delta":204112708},{"NoteNumber":62,"Velocity":58,"Duration":567804,"SoundDuration":567804,"Delta":204112708},{"NoteNumber":58,"Velocity":49,"Duration":567804,"SoundDuration":567804,"Delta":204112708},{"NoteNumber":65,"Velocity":53,"Duration":141951,"SoundDuration":141951,"Delta":204254660},{"NoteNumber":68,"Velocity":60,"Duration":141951,"SoundDuration":141951,"Delta":204396611},{"NoteNumber":65,"Velocity":60,"Duration":106463,"SoundDuration":106463,"Delta":204538562},{"NoteNumber":75,"Velocity":73,"Duration":140777,"SoundDuration":140777,"Delta":204680513},{"NoteNumber":39,"Velocity":62,"Duration":554907,"SoundDuration":554907,"Delta":204680513},{"NoteNumber":51,"Velocity":62,"Duration":554907,"SoundDuration":554907,"Delta":204680513},{"NoteNumber":67,"Velocity":63,"Duration":139402,"SoundDuration":139402,"Delta":204821291},{"NoteNumber":70,"Velocity":66,"Duration":138034,"SoundDuration":138034,"Delta":204960694},{"NoteNumber":75,"Velocity":68,"Duration":136692,"SoundDuration":136692,"Delta":205098728},{"NoteNumber":79,"Velocity":70,"Duration":108391,"SoundDuration":108391,"Delta":205235420},{"NoteNumber":55,"Velocity":55,"Duration":135376,"SoundDuration":135376,"Delta":205235420},{"NoteNumber":58,"Velocity":55,"Duration":135376,"SoundDuration":135376,"Delta":205235420},{"NoteNumber":63,"Velocity":65,"Duration":135376,"SoundDuration":135376,"Delta":205235420},{"NoteNumber":82,"Velocity":72,"Duration":107922,"SoundDuration":107922,"Delta":205343812},{"NoteNumber":87,"Velocity":74,"Duration":108005,"SoundDuration":108005,"Delta":205451734},{"NoteNumber":91,"Velocity":76,"Duration":109483,"SoundDuration":109483,"Delta":205559739},{"NoteNumber":94,"Velocity":78,"Duration":111024,"SoundDuration":111024,"Delta":205669223},{"NoteNumber":99,"Velocity":87,"Duration":140620,"SoundDuration":140620,"Delta":205780247},{"NoteNumber":67,"Velocity":69,"Duration":140620,"SoundDuration":140620,"Delta":205780247},{"NoteNumber":63,"Velocity":58,"Duration":140620,"SoundDuration":140620,"Delta":205780247},{"NoteNumber":58,"Velocity":58,"Duration":140620,"SoundDuration":140620,"Delta":205780247},{"NoteNumber":65,"Velocity":49,"Duration":341935,"SoundDuration":341935,"Delta":206834901},{"NoteNumber":70,"Velocity":52,"Duration":307741,"SoundDuration":307741,"Delta":206869094},{"NoteNumber":77,"Velocity":62,"Duration":273548,"SoundDuration":273548,"Delta":206903288},{"NoteNumber":46,"Velocity":50,"Duration":259870,"SoundDuration":259870,"Delta":206903288},{"NoteNumber":34,"Velocity":42,"Duration":259870,"SoundDuration":259870,"Delta":206903288},{"NoteNumber":58,"Velocity":35,"Duration":259870,"SoundDuration":259870,"Delta":207176836},{"NoteNumber":56,"Velocity":35,"Duration":259870,"SoundDuration":259870,"Delta":207176836},{"NoteNumber":62,"Velocity":42,"Duration":259870,"SoundDuration":259870,"Delta":207176836},{"NoteNumber":89,"Velocity":65,"Duration":128567,"SoundDuration":128567,"Delta":207450384},{"NoteNumber":56,"Velocity":35,"Duration":244278,"SoundDuration":244278,"Delta":207450384},{"NoteNumber":58,"Velocity":35,"Duration":244278,"SoundDuration":244278,"Delta":207450384},{"NoteNumber":62,"Velocity":42,"Duration":244278,"SoundDuration":244278,"Delta":207450384},{"NoteNumber":91,"Velocity":55,"Duration":128567,"SoundDuration":128567,"Delta":207578952},{"NoteNumber":89,"Velocity":55,"Duration":128567,"SoundDuration":128567,"Delta":207707519},{"NoteNumber":56,"Velocity":35,"Duration":258788,"SoundDuration":258788,"Delta":207707519},{"NoteNumber":62,"Velocity":42,"Duration":258788,"SoundDuration":258788,"Delta":207707519},{"NoteNumber":58,"Velocity":35,"Duration":258788,"SoundDuration":258788,"Delta":207707519},{"NoteNumber":88,"Velocity":55,"Duration":144689,"SoundDuration":144689,"Delta":207836087},{"NoteNumber":89,"Velocity":64,"Duration":136153,"SoundDuration":136153,"Delta":207980777},{"NoteNumber":62,"Velocity":46,"Duration":258691,"SoundDuration":258691,"Delta":207980777},{"NoteNumber":58,"Velocity":39,"Duration":258691,"SoundDuration":258691,"Delta":207980777},{"NoteNumber":56,"Velocity":39,"Duration":258691,"SoundDuration":258691,"Delta":207980777},{"NoteNumber":62,"Velocity":42,"Duration":258691,"SoundDuration":258691,"Delta":208253084},{"NoteNumber":56,"Velocity":35,"Duration":258691,"SoundDuration":258691,"Delta":208253084},{"NoteNumber":58,"Velocity":35,"Duration":258691,"SoundDuration":258691,"Delta":208253084},{"NoteNumber":91,"Velocity":74,"Duration":278628,"SoundDuration":278628,"Delta":208525390},{"NoteNumber":61,"Velocity":41,"Duration":264697,"SoundDuration":264697,"Delta":208525390},{"NoteNumber":58,"Velocity":41,"Duration":264697,"SoundDuration":264697,"Delta":208525390},{"NoteNumber":64,"Velocity":49,"Duration":264697,"SoundDuration":264697,"Delta":208525390},{"NoteNumber":58,"Velocity":38,"Duration":264697,"SoundDuration":264697,"Delta":208804019},{"NoteNumber":64,"Velocity":45,"Duration":264697,"SoundDuration":264697,"Delta":208804019},{"NoteNumber":61,"Velocity":38,"Duration":264697,"SoundDuration":264697,"Delta":208804019},{"NoteNumber":92,"Velocity":79,"Duration":636430,"SoundDuration":636430,"Delta":209082648},{"NoteNumber":46,"Velocity":42,"Duration":261060,"SoundDuration":261060,"Delta":209082648},{"NoteNumber":58,"Velocity":50,"Duration":261060,"SoundDuration":261060,"Delta":209082648},{"NoteNumber":62,"Velocity":36,"Duration":261060,"SoundDuration":261060,"Delta":209357449},{"NoteNumber":65,"Velocity":43,"Duration":261060,"SoundDuration":261060,"Delta":209357449},{"NoteNumber":58,"Velocity":36,"Duration":261060,"SoundDuration":261060,"Delta":209357449},{"NoteNumber":65,"Velocity":44,"Duration":247460,"SoundDuration":247460,"Delta":209632250},{"NoteNumber":62,"Velocity":37,"Duration":247460,"SoundDuration":247460,"Delta":209632250},{"NoteNumber":58,"Velocity":37,"Duration":247460,"SoundDuration":247460,"Delta":209632250},{"NoteNumber":94,"Velocity":62,"Duration":86828,"SoundDuration":86828,"Delta":209719078},{"NoteNumber":92,"Velocity":62,"Duration":86828,"SoundDuration":86828,"Delta":209805906},{"NoteNumber":89,"Velocity":70,"Duration":86828,"SoundDuration":86828,"Delta":209892735},{"NoteNumber":62,"Velocity":33,"Duration":247460,"SoundDuration":247460,"Delta":209892735},{"NoteNumber":65,"Velocity":39,"Duration":247460,"SoundDuration":247460,"Delta":209892735},{"NoteNumber":58,"Velocity":33,"Duration":247460,"SoundDuration":247460,"Delta":209892735},{"NoteNumber":86,"Velocity":66,"Duration":86828,"SoundDuration":86828,"Delta":209979563},{"NoteNumber":82,"Velocity":62,"Duration":86828,"SoundDuration":86828,"Delta":210066391},{"NoteNumber":80,"Velocity":58,"Duration":824402,"SoundDuration":824402,"Delta":210153219},{"NoteNumber":58,"Velocity":35,"Duration":261060,"SoundDuration":261060,"Delta":210153219},{"NoteNumber":62,"Velocity":35,"Duration":261060,"SoundDuration":261060,"Delta":210153219},{"NoteNumber":65,"Velocity":41,"Duration":261060,"SoundDuration":261060,"Delta":210153219},{"NoteNumber":62,"Velocity":25,"Duration":261060,"SoundDuration":261060,"Delta":210428020},{"NoteNumber":65,"Velocity":30,"Duration":261060,"SoundDuration":261060,"Delta":210428020},{"NoteNumber":58,"Velocity":25,"Duration":261060,"SoundDuration":261060,"Delta":210428020},{"NoteNumber":58,"Velocity":25,"Duration":261060,"SoundDuration":261060,"Delta":210702821},{"NoteNumber":62,"Velocity":25,"Duration":261060,"SoundDuration":261060,"Delta":210702821},{"NoteNumber":65,"Velocity":30,"Duration":261060,"SoundDuration":261060,"Delta":210702821},{"NoteNumber":62,"Velocity":25,"Duration":206100,"SoundDuration":206100,"Delta":210977622},{"NoteNumber":65,"Velocity":30,"Duration":206100,"SoundDuration":206100,"Delta":210977622},{"NoteNumber":58,"Velocity":25,"Duration":206100,"SoundDuration":206100,"Delta":210977622},{"NoteNumber":67,"Velocity":62,"Duration":341935,"SoundDuration":341935,"Delta":211183723},{"NoteNumber":75,"Velocity":65,"Duration":307741,"SoundDuration":307741,"Delta":211217916},{"NoteNumber":79,"Velocity":70,"Duration":273548,"SoundDuration":273548,"Delta":211252110},{"NoteNumber":39,"Velocity":42,"Duration":259870,"SoundDuration":259870,"Delta":211252110},{"NoteNumber":51,"Velocity":50,"Duration":259870,"SoundDuration":259870,"Delta":211252110},{"NoteNumber":55,"Velocity":35,"Duration":259870,"SoundDuration":259870,"Delta":211525658},{"NoteNumber":63,"Velocity":42,"Duration":259870,"SoundDuration":259870,"Delta":211525658},{"NoteNumber":58,"Velocity":35,"Duration":259870,"SoundDuration":259870,"Delta":211525658},{"NoteNumber":91,"Velocity":72,"Duration":130242,"SoundDuration":130242,"Delta":211799206},{"NoteNumber":55,"Velocity":35,"Duration":247460,"SoundDuration":247460,"Delta":211799206},{"NoteNumber":58,"Velocity":35,"Duration":247460,"SoundDuration":247460,"Delta":211799206},{"NoteNumber":63,"Velocity":42,"Duration":247460,"SoundDuration":247460,"Delta":211799206},{"NoteNumber":92,"Velocity":61,"Duration":130242,"SoundDuration":130242,"Delta":211929448},{"NoteNumber":91,"Velocity":61,"Duration":130242,"SoundDuration":130242,"Delta":212059690},{"NoteNumber":58,"Velocity":35,"Duration":263024,"SoundDuration":263024,"Delta":212059690},{"NoteNumber":55,"Velocity":35,"Duration":263024,"SoundDuration":263024,"Delta":212059690},{"NoteNumber":63,"Velocity":42,"Duration":263024,"SoundDuration":263024,"Delta":212059690},{"NoteNumber":90,"Velocity":61,"Duration":147536,"SoundDuration":147536,"Delta":212189933},{"NoteNumber":91,"Velocity":73,"Duration":136774,"SoundDuration":136774,"Delta":212337469},{"NoteNumber":58,"Velocity":39,"Duration":259870,"SoundDuration":259870,"Delta":212337469},{"NoteNumber":63,"Velocity":46,"Duration":259870,"SoundDuration":259870,"Delta":212337469},{"NoteNumber":55,"Velocity":39,"Duration":259870,"SoundDuration":259870,"Delta":212337469},{"NoteNumber":63,"Velocity":42,"Duration":259870,"SoundDuration":259870,"Delta":212611017},{"NoteNumber":58,"Velocity":35,"Duration":259870,"SoundDuration":259870,"Delta":212611017},{"NoteNumber":55,"Velocity":35,"Duration":259870,"SoundDuration":259870,"Delta":212611017},{"NoteNumber":92,"Velocity":74,"Duration":278628,"SoundDuration":278628,"Delta":212884565},{"NoteNumber":65,"Velocity":49,"Duration":264697,"SoundDuration":264697,"Delta":212884565},{"NoteNumber":58,"Velocity":41,"Duration":264697,"SoundDuration":264697,"Delta":212884565},{"NoteNumber":56,"Velocity":41,"Duration":264697,"SoundDuration":264697,"Delta":212884565},{"NoteNumber":65,"Velocity":45,"Duration":264697,"SoundDuration":264697,"Delta":213163194},{"NoteNumber":56,"Velocity":38,"Duration":264697,"SoundDuration":264697,"Delta":213163194},{"NoteNumber":58,"Velocity":38,"Duration":264697,"SoundDuration":264697,"Delta":213163194},{"NoteNumber":94,"Velocity":79,"Duration":635070,"SoundDuration":635070,"Delta":213441823},{"NoteNumber":39,"Velocity":42,"Duration":259870,"SoundDuration":259870,"Delta":213441823},{"NoteNumber":51,"Velocity":50,"Duration":259870,"SoundDuration":259870,"Delta":213441823},{"NoteNumber":58,"Velocity":36,"Duration":259870,"SoundDuration":259870,"Delta":213715371},{"NoteNumber":67,"Velocity":43,"Duration":259870,"SoundDuration":259870,"Delta":213715371},{"NoteNumber":63,"Velocity":36,"Duration":259870,"SoundDuration":259870,"Delta":213715371},{"NoteNumber":58,"Velocity":37,"Duration":250725,"SoundDuration":250725,"Delta":213988919},{"NoteNumber":67,"Velocity":44,"Duration":250725,"SoundDuration":250725,"Delta":213988919},{"NoteNumber":63,"Velocity":37,"Duration":250725,"SoundDuration":250725,"Delta":213988919},{"NoteNumber":96,"Velocity":62,"Duration":87974,"SoundDuration":87974,"Delta":214076893},{"NoteNumber":94,"Velocity":62,"Duration":87974,"SoundDuration":87974,"Delta":214164867},{"NoteNumber":91,"Velocity":70,"Duration":87974,"SoundDuration":87974,"Delta":214252841},{"NoteNumber":67,"Velocity":39,"Duration":250725,"SoundDuration":250725,"Delta":214252841},{"NoteNumber":63,"Velocity":33,"Duration":250725,"SoundDuration":250725,"Delta":214252841},{"NoteNumber":58,"Velocity":33,"Duration":250725,"SoundDuration":250725,"Delta":214252841},{"NoteNumber":87,"Velocity":66,"Duration":87974,"SoundDuration":87974,"Delta":214340815},{"NoteNumber":84,"Velocity":62,"Duration":87973,"SoundDuration":87973,"Delta":214428789},{"NoteNumber":82,"Velocity":58,"Duration":820643,"SoundDuration":820643,"Delta":214516763},{"NoteNumber":63,"Velocity":35,"Duration":259870,"SoundDuration":259870,"Delta":214516763},{"NoteNumber":67,"Velocity":41,"Duration":259870,"SoundDuration":259870,"Delta":214516763},{"NoteNumber":58,"Velocity":35,"Duration":259870,"SoundDuration":259870,"Delta":214516763},{"NoteNumber":67,"Velocity":30,"Duration":259870,"SoundDuration":259870,"Delta":214790311},{"NoteNumber":63,"Velocity":25,"Duration":259870,"SoundDuration":259870,"Delta":214790311},{"NoteNumber":58,"Velocity":25,"Duration":259870,"SoundDuration":259870,"Delta":214790311},{"NoteNumber":58,"Velocity":25,"Duration":259870,"SoundDuration":259870,"Delta":215063859},{"NoteNumber":67,"Velocity":30,"Duration":259870,"SoundDuration":259870,"Delta":215063859},{"NoteNumber":63,"Velocity":25,"Duration":259870,"SoundDuration":259870,"Delta":215063859},{"NoteNumber":58,"Velocity":25,"Duration":238214,"SoundDuration":238214,"Delta":215337407},{"NoteNumber":67,"Velocity":30,"Duration":238214,"SoundDuration":238214,"Delta":215337407},{"NoteNumber":63,"Velocity":25,"Duration":238214,"SoundDuration":238214,"Delta":215337407},{"NoteNumber":87,"Velocity":92,"Duration":533953,"SoundDuration":533953,"Delta":215610955},{"NoteNumber":48,"Velocity":56,"Duration":253401,"SoundDuration":253401,"Delta":215610955},{"NoteNumber":60,"Velocity":66,"Duration":253401,"SoundDuration":253401,"Delta":215610955},{"NoteNumber":75,"Velocity":58,"Duration":133369,"SoundDuration":133369,"Delta":215744324},{"NoteNumber":79,"Velocity":69,"Duration":133368,"SoundDuration":133368,"Delta":215877693},{"NoteNumber":60,"Velocity":48,"Duration":253783,"SoundDuration":253783,"Delta":215877693},{"NoteNumber":63,"Velocity":48,"Duration":253783,"SoundDuration":253783,"Delta":215877693},{"NoteNumber":67,"Velocity":57,"Duration":253783,"SoundDuration":253783,"Delta":215877693},{"NoteNumber":75,"Velocity":58,"Duration":133846,"SoundDuration":133846,"Delta":216011062},{"NoteNumber":86,"Velocity":88,"Duration":543134,"SoundDuration":543134,"Delta":216144908},{"NoteNumber":46,"Velocity":58,"Duration":257988,"SoundDuration":257988,"Delta":216144908},{"NoteNumber":58,"Velocity":69,"Duration":257988,"SoundDuration":257988,"Delta":216144908},{"NoteNumber":74,"Velocity":60,"Duration":135783,"SoundDuration":135783,"Delta":216280692},{"NoteNumber":79,"Velocity":69,"Duration":135783,"SoundDuration":135783,"Delta":216416475},{"NoteNumber":67,"Velocity":57,"Duration":257988,"SoundDuration":257988,"Delta":216416475},{"NoteNumber":62,"Velocity":48,"Duration":257988,"SoundDuration":257988,"Delta":216416475},{"NoteNumber":58,"Velocity":48,"Duration":257988,"SoundDuration":257988,"Delta":216416475},{"NoteNumber":74,"Velocity":59,"Duration":135783,"SoundDuration":135783,"Delta":216552259},{"NoteNumber":84,"Velocity":86,"Duration":555710,"SoundDuration":555710,"Delta":216688042},{"NoteNumber":56,"Velocity":67,"Duration":263962,"SoundDuration":263962,"Delta":216688042},{"NoteNumber":44,"Velocity":57,"Duration":263962,"SoundDuration":263962,"Delta":216688042},{"NoteNumber":72,"Velocity":64,"Duration":138927,"SoundDuration":138927,"Delta":216826970},{"NoteNumber":75,"Velocity":69,"Duration":138927,"SoundDuration":138927,"Delta":216965897},{"NoteNumber":67,"Velocity":57,"Duration":263962,"SoundDuration":263962,"Delta":216965897},{"NoteNumber":60,"Velocity":48,"Duration":263962,"SoundDuration":263962,"Delta":216965897},{"NoteNumber":63,"Velocity":48,"Duration":263962,"SoundDuration":263962,"Delta":216965897},{"NoteNumber":72,"Velocity":63,"Duration":138927,"SoundDuration":138927,"Delta":217104825},{"NoteNumber":82,"Velocity":85,"Duration":567804,"SoundDuration":567804,"Delta":217243752},{"NoteNumber":55,"Velocity":66,"Duration":269707,"SoundDuration":269707,"Delta":217243752},{"NoteNumber":43,"Velocity":56,"Duration":269707,"SoundDuration":269707,"Delta":217243752},{"NoteNumber":70,"Velocity":60,"Duration":141951,"SoundDuration":141951,"Delta":217385704},{"NoteNumber":75,"Velocity":69,"Duration":141951,"SoundDuration":141951,"Delta":217527655},{"NoteNumber":63,"Velocity":57,"Duration":269707,"SoundDuration":269707,"Delta":217527655},{"NoteNumber":58,"Velocity":48,"Duration":269707,"SoundDuration":269707,"Delta":217527655},{"NoteNumber":55,"Velocity":48,"Duration":269707,"SoundDuration":269707,"Delta":217527655},{"NoteNumber":70,"Velocity":69,"Duration":141951,"SoundDuration":141951,"Delta":217669606},{"NoteNumber":87,"Velocity":97,"Duration":548094,"SoundDuration":548094,"Delta":217811557},{"NoteNumber":48,"Velocity":56,"Duration":260345,"SoundDuration":260345,"Delta":217811557},{"NoteNumber":60,"Velocity":66,"Duration":260345,"SoundDuration":260345,"Delta":217811557},{"NoteNumber":75,"Velocity":58,"Duration":137023,"SoundDuration":137023,"Delta":217948581},{"NoteNumber":79,"Velocity":69,"Duration":137023,"SoundDuration":137023,"Delta":218085605},{"NoteNumber":60,"Velocity":48,"Duration":260345,"SoundDuration":260345,"Delta":218085605},{"NoteNumber":63,"Velocity":48,"Duration":260345,"SoundDuration":260345,"Delta":218085605},{"NoteNumber":67,"Velocity":57,"Duration":260345,"SoundDuration":260345,"Delta":218085605},{"NoteNumber":75,"Velocity":58,"Duration":137023,"SoundDuration":137023,"Delta":218222629},{"NoteNumber":84,"Velocity":87,"Duration":548095,"SoundDuration":548095,"Delta":218359652},{"NoteNumber":56,"Velocity":68,"Duration":260345,"SoundDuration":260345,"Delta":218359652},{"NoteNumber":44,"Velocity":58,"Duration":260345,"SoundDuration":260345,"Delta":218359652},{"NoteNumber":72,"Velocity":60,"Duration":137023,"SoundDuration":137023,"Delta":218496676},{"NoteNumber":77,"Velocity":68,"Duration":137023,"SoundDuration":137023,"Delta":218633700},{"NoteNumber":62,"Velocity":57,"Duration":260345,"SoundDuration":260345,"Delta":218633700},{"NoteNumber":56,"Velocity":47,"Duration":260345,"SoundDuration":260345,"Delta":218633700},{"NoteNumber":72,"Velocity":58,"Duration":137023,"SoundDuration":137023,"Delta":218770724},{"NoteNumber":82,"Velocity":85,"Duration":560904,"SoundDuration":560904,"Delta":218907747},{"NoteNumber":55,"Velocity":66,"Duration":266429,"SoundDuration":266429,"Delta":218907747},{"NoteNumber":43,"Velocity":56,"Duration":266429,"SoundDuration":266429,"Delta":218907747},{"NoteNumber":70,"Velocity":63,"Duration":140226,"SoundDuration":140226,"Delta":219047974},{"NoteNumber":75,"Velocity":67,"Duration":140226,"SoundDuration":140226,"Delta":219188200},{"NoteNumber":63,"Velocity":56,"Duration":266429,"SoundDuration":266429,"Delta":219188200},{"NoteNumber":55,"Velocity":47,"Duration":266429,"SoundDuration":266429,"Delta":219188200},{"NoteNumber":58,"Velocity":47,"Duration":266429,"SoundDuration":266429,"Delta":219188200},{"NoteNumber":70,"Velocity":61,"Duration":140226,"SoundDuration":140226,"Delta":219328426},{"NoteNumber":80,"Velocity":85,"Duration":585536,"SoundDuration":585536,"Delta":219468652},{"NoteNumber":44,"Velocity":54,"Duration":278130,"SoundDuration":278130,"Delta":219468652},{"NoteNumber":56,"Velocity":64,"Duration":278130,"SoundDuration":278130,"Delta":219468652},{"NoteNumber":68,"Velocity":58,"Duration":146384,"SoundDuration":146384,"Delta":219615037},{"NoteNumber":72,"Velocity":66,"Duration":146384,"SoundDuration":146384,"Delta":219761421},{"NoteNumber":60,"Velocity":46,"Duration":278130,"SoundDuration":278130,"Delta":219761421},{"NoteNumber":56,"Velocity":46,"Duration":278130,"SoundDuration":278130,"Delta":219761421},{"NoteNumber":65,"Velocity":55,"Duration":278130,"SoundDuration":278130,"Delta":219761421},{"NoteNumber":68,"Velocity":66,"Duration":146384,"SoundDuration":146384,"Delta":219907805},{"NoteNumber":79,"Velocity":88,"Duration":1101220,"SoundDuration":1101220,"Delta":220054189},{"NoteNumber":58,"Velocity":63,"Duration":544874,"SoundDuration":544874,"Delta":220054189},{"NoteNumber":46,"Velocity":53,"Duration":544874,"SoundDuration":544874,"Delta":220054189},{"NoteNumber":67,"Velocity":56,"Duration":137652,"SoundDuration":137652,"Delta":220191842},{"NoteNumber":70,"Velocity":65,"Duration":137652,"SoundDuration":137652,"Delta":220329494},{"NoteNumber":67,"Velocity":55,"Duration":137652,"SoundDuration":137652,"Delta":220467147},{"NoteNumber":63,"Velocity":64,"Duration":544874,"SoundDuration":544874,"Delta":220604799},{"NoteNumber":58,"Velocity":55,"Duration":544874,"SoundDuration":544874,"Delta":220604799},{"NoteNumber":55,"Velocity":55,"Duration":544874,"SoundDuration":544874,"Delta":220604799},{"NoteNumber":67,"Velocity":56,"Duration":137652,"SoundDuration":137652,"Delta":220742452},{"NoteNumber":70,"Velocity":64,"Duration":137652,"SoundDuration":137652,"Delta":220880104},{"NoteNumber":67,"Velocity":55,"Duration":137652,"SoundDuration":137652,"Delta":221017757},{"NoteNumber":77,"Velocity":76,"Duration":1140782,"SoundDuration":1140782,"Delta":221155409},{"NoteNumber":34,"Velocity":52,"Duration":555062,"SoundDuration":555062,"Delta":221155409},{"NoteNumber":46,"Velocity":61,"Duration":555062,"SoundDuration":555062,"Delta":221155409},{"NoteNumber":65,"Velocity":58,"Duration":140226,"SoundDuration":140226,"Delta":221295636},{"NoteNumber":68,"Velocity":62,"Duration":140226,"SoundDuration":140226,"Delta":221435862},{"NoteNumber":65,"Velocity":57,"Duration":140226,"SoundDuration":140226,"Delta":221576088},{"NoteNumber":58,"Velocity":50,"Duration":573837,"SoundDuration":573837,"Delta":221716314},{"NoteNumber":62,"Velocity":59,"Duration":573837,"SoundDuration":573837,"Delta":221716314},{"NoteNumber":56,"Velocity":50,"Duration":573837,"SoundDuration":573837,"Delta":221716314},{"NoteNumber":65,"Velocity":54,"Duration":144969,"SoundDuration":144969,"Delta":221861284},{"NoteNumber":68,"Velocity":61,"Duration":144969,"SoundDuration":144969,"Delta":222006253},{"NoteNumber":65,"Velocity":60,"Duration":108727,"SoundDuration":108727,"Delta":222151223},{"NoteNumber":67,"Velocity":59,"Duration":601373,"SoundDuration":601373,"Delta":222259950},{"NoteNumber":75,"Velocity":73,"Duration":706413,"SoundDuration":706413,"Delta":222296192},{"NoteNumber":51,"Velocity":54,"Duration":134218,"SoundDuration":134218,"Delta":222296192},{"NoteNumber":39,"Velocity":45,"Duration":134218,"SoundDuration":134218,"Delta":222296192},{"NoteNumber":51,"Velocity":39,"Duration":141282,"SoundDuration":141282,"Delta":222437475},{"NoteNumber":55,"Velocity":41,"Duration":141282,"SoundDuration":141282,"Delta":222578758},{"NoteNumber":58,"Velocity":43,"Duration":141282,"SoundDuration":141282,"Delta":222720041},{"NoteNumber":63,"Velocity":46,"Duration":141120,"SoundDuration":141120,"Delta":222867210},{"NoteNumber":79,"Velocity":59,"Duration":137400,"SoundDuration":137400,"Delta":223002606},{"NoteNumber":78,"Velocity":62,"Duration":137400,"SoundDuration":137400,"Delta":223140007},{"NoteNumber":79,"Velocity":64,"Duration":150496,"SoundDuration":150496,"Delta":223277407},{"NoteNumber":84,"Velocity":75,"Duration":706413,"SoundDuration":706413,"Delta":223427904},{"NoteNumber":39,"Velocity":43,"Duration":134218,"SoundDuration":134218,"Delta":223427904},{"NoteNumber":51,"Velocity":51,"Duration":134218,"SoundDuration":134218,"Delta":223427904},{"NoteNumber":51,"Velocity":39,"Duration":141282,"SoundDuration":141282,"Delta":223569187},{"NoteNumber":55,"Velocity":41,"Duration":141282,"SoundDuration":141282,"Delta":223710469},{"NoteNumber":58,"Velocity":44,"Duration":141282,"SoundDuration":141282,"Delta":223851752},{"NoteNumber":63,"Velocity":46,"Duration":141282,"SoundDuration":141282,"Delta":223993035},{"NoteNumber":82,"Velocity":68,"Duration":138032,"SoundDuration":138032,"Delta":224134318},{"NoteNumber":79,"Velocity":65,"Duration":138032,"SoundDuration":138032,"Delta":224272350},{"NoteNumber":75,"Velocity":63,"Duration":146099,"SoundDuration":146099,"Delta":224410383},{"NoteNumber":74,"Velocity":71,"Duration":704445,"SoundDuration":704445,"Delta":224556482},{"NoteNumber":53,"Velocity":54,"Duration":134218,"SoundDuration":134218,"Delta":224556482},{"NoteNumber":41,"Velocity":45,"Duration":134218,"SoundDuration":134218,"Delta":224556482},{"NoteNumber":53,"Velocity":34,"Duration":141282,"SoundDuration":141282,"Delta":224697765},{"NoteNumber":56,"Velocity":37,"Duration":141282,"SoundDuration":141282,"Delta":224839047},{"NoteNumber":58,"Velocity":39,"Duration":141282,"SoundDuration":141282,"Delta":224980330},{"NoteNumber":62,"Velocity":42,"Duration":139314,"SoundDuration":139314,"Delta":225121613},{"NoteNumber":70,"Velocity":51,"Duration":139314,"SoundDuration":139314,"Delta":225260927},{"NoteNumber":69,"Velocity":55,"Duration":139314,"SoundDuration":139314,"Delta":225400242},{"NoteNumber":70,"Velocity":59,"Duration":146099,"SoundDuration":146099,"Delta":225539556},{"NoteNumber":72,"Velocity":68,"Duration":703102,"SoundDuration":703102,"Delta":225685656},{"NoteNumber":46,"Velocity":45,"Duration":133589,"SoundDuration":133589,"Delta":225685656},{"NoteNumber":34,"Velocity":38,"Duration":133589,"SoundDuration":133589,"Delta":225685656},{"NoteNumber":53,"Velocity":35,"Duration":140620,"SoundDuration":140620,"Delta":225826276},{"NoteNumber":56,"Velocity":37,"Duration":140620,"SoundDuration":140620,"Delta":225966897},{"NoteNumber":58,"Velocity":39,"Duration":140620,"SoundDuration":140620,"Delta":226107517},{"NoteNumber":62,"Velocity":41,"Duration":140620,"SoundDuration":140620,"Delta":226248138},{"NoteNumber":70,"Velocity":61,"Duration":141951,"SoundDuration":141951,"Delta":226388758},{"NoteNumber":65,"Velocity":58,"Duration":141951,"SoundDuration":141951,"Delta":226530709},{"NoteNumber":66,"Velocity":55,"Duration":148265,"SoundDuration":148265,"Delta":226672661},{"NoteNumber":67,"Velocity":66,"Duration":703102,"SoundDuration":703102,"Delta":226820926},{"NoteNumber":51,"Velocity":54,"Duration":133589,"SoundDuration":133589,"Delta":226820926},{"NoteNumber":39,"Velocity":45,"Duration":133589,"SoundDuration":133589,"Delta":226820926},{"NoteNumber":51,"Velocity":39,"Duration":140620,"SoundDuration":140620,"Delta":226961546},{"NoteNumber":55,"Velocity":41,"Duration":140620,"SoundDuration":140620,"Delta":227102167},{"NoteNumber":58,"Velocity":43,"Duration":140620,"SoundDuration":140620,"Delta":227242787},{"NoteNumber":63,"Velocity":46,"Duration":140460,"SoundDuration":140460,"Delta":227389267},{"NoteNumber":79,"Velocity":59,"Duration":136774,"SoundDuration":136774,"Delta":227524028},{"NoteNumber":78,"Velocity":62,"Duration":136774,"SoundDuration":136774,"Delta":227660802},{"NoteNumber":79,"Velocity":64,"Duration":145390,"SoundDuration":145390,"Delta":227797576},{"NoteNumber":84,"Velocity":75,"Duration":703102,"SoundDuration":703102,"Delta":227942967},{"NoteNumber":39,"Velocity":43,"Duration":133589,"SoundDuration":133589,"Delta":227942967},{"NoteNumber":51,"Velocity":51,"Duration":133589,"SoundDuration":133589,"Delta":227942967},{"NoteNumber":51,"Velocity":39,"Duration":140620,"SoundDuration":140620,"Delta":228083588},{"NoteNumber":55,"Velocity":41,"Duration":140620,"SoundDuration":140620,"Delta":228224208},{"NoteNumber":58,"Velocity":44,"Duration":140620,"SoundDuration":140620,"Delta":228364829},{"NoteNumber":63,"Velocity":46,"Duration":140620,"SoundDuration":140620,"Delta":228505449},{"NoteNumber":82,"Velocity":68,"Duration":137400,"SoundDuration":137400,"Delta":228646070},{"NoteNumber":79,"Velocity":65,"Duration":137400,"SoundDuration":137400,"Delta":228783470},{"NoteNumber":75,"Velocity":63,"Duration":146814,"SoundDuration":146814,"Delta":228920871},{"NoteNumber":74,"Velocity":71,"Duration":703102,"SoundDuration":703102,"Delta":229067685},{"NoteNumber":53,"Velocity":54,"Duration":133589,"SoundDuration":133589,"Delta":229067685},{"NoteNumber":41,"Velocity":45,"Duration":133589,"SoundDuration":133589,"Delta":229067685},{"NoteNumber":53,"Velocity":34,"Duration":140620,"SoundDuration":140620,"Delta":229208306},{"NoteNumber":56,"Velocity":37,"Duration":140620,"SoundDuration":140620,"Delta":229348926},{"NoteNumber":58,"Velocity":39,"Duration":140620,"SoundDuration":140620,"Delta":229489547},{"NoteNumber":62,"Velocity":42,"Duration":140620,"SoundDuration":140620,"Delta":229630167},{"NoteNumber":70,"Velocity":51,"Duration":137400,"SoundDuration":137400,"Delta":229770788},{"NoteNumber":69,"Velocity":55,"Duration":137400,"SoundDuration":137400,"Delta":229908188},{"NoteNumber":70,"Velocity":59,"Duration":142626,"SoundDuration":142626,"Delta":230045589},{"NoteNumber":72,"Velocity":68,"Duration":703102,"SoundDuration":703102,"Delta":230188215},{"NoteNumber":34,"Velocity":38,"Duration":133589,"SoundDuration":133589,"Delta":230188215},{"NoteNumber":46,"Velocity":45,"Duration":133589,"SoundDuration":133589,"Delta":230188215},{"NoteNumber":53,"Velocity":35,"Duration":140620,"SoundDuration":140620,"Delta":230328835},{"NoteNumber":56,"Velocity":37,"Duration":140620,"SoundDuration":140620,"Delta":230469456},{"NoteNumber":58,"Velocity":39,"Duration":140620,"SoundDuration":140620,"Delta":230610076},{"NoteNumber":62,"Velocity":41,"Duration":140620,"SoundDuration":140620,"Delta":230750697},{"NoteNumber":70,"Velocity":61,"Duration":141951,"SoundDuration":141951,"Delta":230891317},{"NoteNumber":65,"Velocity":58,"Duration":141951,"SoundDuration":141951,"Delta":231033269},{"NoteNumber":66,"Velocity":55,"Duration":150496,"SoundDuration":150496,"Delta":231175220},{"NoteNumber":67,"Velocity":66,"Duration":703102,"SoundDuration":703102,"Delta":231325717},{"NoteNumber":51,"Velocity":54,"Duration":133589,"SoundDuration":133589,"Delta":231325717},{"NoteNumber":39,"Velocity":45,"Duration":133589,"SoundDuration":133589,"Delta":231325717},{"NoteNumber":51,"Velocity":39,"Duration":140620,"SoundDuration":140620,"Delta":231466337},{"NoteNumber":55,"Velocity":41,"Duration":140620,"SoundDuration":140620,"Delta":231606958},{"NoteNumber":58,"Velocity":43,"Duration":140620,"SoundDuration":140620,"Delta":231747578},{"NoteNumber":63,"Velocity":46,"Duration":140460,"SoundDuration":140460,"Delta":231894058},{"NoteNumber":79,"Velocity":59,"Duration":136774,"SoundDuration":136774,"Delta":232028819},{"NoteNumber":78,"Velocity":62,"Duration":136774,"SoundDuration":136774,"Delta":232165593},{"NoteNumber":79,"Velocity":64,"Duration":109043,"SoundDuration":109043,"Delta":232302367},{"NoteNumber":76,"Velocity":64,"Duration":36347,"SoundDuration":36347,"Delta":232411410},{"NoteNumber":85,"Velocity":75,"Duration":703102,"SoundDuration":703102,"Delta":232447758},{"NoteNumber":39,"Velocity":43,"Duration":133589,"SoundDuration":133589,"Delta":232447758},{"NoteNumber":51,"Velocity":51,"Duration":133589,"SoundDuration":133589,"Delta":232447758},{"NoteNumber":55,"Velocity":39,"Duration":140620,"SoundDuration":140620,"Delta":232588379},{"NoteNumber":58,"Velocity":41,"Duration":140620,"SoundDuration":140620,"Delta":232728999},{"NoteNumber":60,"Velocity":44,"Duration":140620,"SoundDuration":140620,"Delta":232869620},{"NoteNumber":64,"Velocity":46,"Duration":140620,"SoundDuration":140620,"Delta":233010240},{"NoteNumber":85,"Velocity":68,"Duration":137400,"SoundDuration":137400,"Delta":233150861},{"NoteNumber":84,"Velocity":65,"Duration":137400,"SoundDuration":137400,"Delta":233288261},{"NoteNumber":82,"Velocity":63,"Duration":146814,"SoundDuration":146814,"Delta":233425662},{"NoteNumber":80,"Velocity":69,"Duration":703102,"SoundDuration":703102,"Delta":233572476},{"NoteNumber":53,"Velocity":54,"Duration":133589,"SoundDuration":133589,"Delta":233572476},{"NoteNumber":41,"Velocity":45,"Duration":133589,"SoundDuration":133589,"Delta":233572476},{"NoteNumber":53,"Velocity":39,"Duration":140620,"SoundDuration":140620,"Delta":233713096},{"NoteNumber":56,"Velocity":41,"Duration":140620,"SoundDuration":140620,"Delta":233853717},{"NoteNumber":60,"Velocity":43,"Duration":140620,"SoundDuration":140620,"Delta":233994337},{"NoteNumber":65,"Velocity":46,"Duration":140620,"SoundDuration":140620,"Delta":234134958},{"NoteNumber":84,"Velocity":64,"Duration":136774,"SoundDuration":136774,"Delta":234275578},{"NoteNumber":83,"Velocity":69,"Duration":136774,"SoundDuration":136774,"Delta":234412352},{"NoteNumber":84,"Velocity":72,"Duration":109043,"SoundDuration":109043,"Delta":234549126},{"NoteNumber":78,"Velocity":64,"Duration":36347,"SoundDuration":36347,"Delta":234658170},{"NoteNumber":87,"Velocity":85,"Duration":703102,"SoundDuration":703102,"Delta":234694517},{"NoteNumber":50,"Velocity":51,"Duration":133589,"SoundDuration":133589,"Delta":234694517},{"NoteNumber":38,"Velocity":43,"Duration":133589,"SoundDuration":133589,"Delta":234694517},{"NoteNumber":57,"Velocity":39,"Duration":140620,"SoundDuration":140620,"Delta":234835138},{"NoteNumber":60,"Velocity":41,"Duration":140620,"SoundDuration":140620,"Delta":234975758},{"NoteNumber":62,"Velocity":44,"Duration":140620,"SoundDuration":140620,"Delta":235116379},{"NoteNumber":66,"Velocity":46,"Duration":140620,"SoundDuration":140620,"Delta":235256999},{"NoteNumber":87,"Velocity":72,"Duration":137400,"SoundDuration":137400,"Delta":235397620},{"NoteNumber":86,"Velocity":69,"Duration":137400,"SoundDuration":137400,"Delta":235535020},{"NoteNumber":84,"Velocity":66,"Duration":146814,"SoundDuration":146814,"Delta":235672421},{"NoteNumber":82,"Velocity":76,"Duration":703102,"SoundDuration":703102,"Delta":235819235},{"NoteNumber":55,"Velocity":54,"Duration":133589,"SoundDuration":133589,"Delta":235819235},{"NoteNumber":43,"Velocity":45,"Duration":133589,"SoundDuration":133589,"Delta":235819235},{"NoteNumber":55,"Velocity":39,"Duration":140620,"SoundDuration":140620,"Delta":235959856},{"NoteNumber":58,"Velocity":41,"Duration":140620,"SoundDuration":140620,"Delta":236100476},{"NoteNumber":62,"Velocity":43,"Duration":140620,"SoundDuration":140620,"Delta":236241097},{"NoteNumber":67,"Velocity":46,"Duration":140620,"SoundDuration":140620,"Delta":236381717},{"NoteNumber":91,"Velocity":67,"Duration":136774,"SoundDuration":136774,"Delta":236522338},{"NoteNumber":90,"Velocity":71,"Duration":136774,"SoundDuration":136774,"Delta":236659112},{"NoteNumber":91,"Velocity":76,"Duration":109043,"SoundDuration":109043,"Delta":236795886},{"NoteNumber":84,"Velocity":64,"Duration":36347,"SoundDuration":36347,"Delta":236904929},{"NoteNumber":94,"Velocity":85,"Duration":703102,"SoundDuration":703102,"Delta":236941277},{"NoteNumber":56,"Velocity":51,"Duration":133589,"SoundDuration":133589,"Delta":236941277},{"NoteNumber":44,"Velocity":43,"Duration":133589,"SoundDuration":133589,"Delta":236941277},{"NoteNumber":56,"Velocity":39,"Duration":140620,"SoundDuration":140620,"Delta":237085413},{"NoteNumber":60,"Velocity":41,"Duration":140620,"SoundDuration":140620,"Delta":237222518},{"NoteNumber":65,"Velocity":44,"Duration":140620,"SoundDuration":140620,"Delta":237363138},{"NoteNumber":68,"Velocity":46,"Duration":140620,"SoundDuration":140620,"Delta":237503759},{"NoteNumber":92,"Velocity":77,"Duration":137400,"SoundDuration":137400,"Delta":237644379},{"NoteNumber":86,"Velocity":72,"Duration":137400,"SoundDuration":137400,"Delta":237778345},{"NoteNumber":89,"Velocity":66,"Duration":110110,"SoundDuration":110110,"Delta":237919180},{"NoteNumber":79,"Velocity":65,"Duration":36703,"SoundDuration":36703,"Delta":238029291},{"NoteNumber":89,"Velocity":76,"Duration":703102,"SoundDuration":703102,"Delta":238065994},{"NoteNumber":58,"Velocity":54,"Duration":133589,"SoundDuration":133589,"Delta":238065994},{"NoteNumber":46,"Velocity":45,"Duration":133589,"SoundDuration":133589,"Delta":238065994},{"NoteNumber":55,"Velocity":39,"Duration":140620,"SoundDuration":140620,"Delta":238206615},{"NoteNumber":58,"Velocity":41,"Duration":140620,"SoundDuration":140620,"Delta":238347235},{"NoteNumber":63,"Velocity":43,"Duration":140620,"SoundDuration":140620,"Delta":238487856},{"NoteNumber":67,"Velocity":46,"Duration":140620,"SoundDuration":140620,"Delta":238628476},{"NoteNumber":87,"Velocity":71,"Duration":136774,"SoundDuration":136774,"Delta":238769097},{"NoteNumber":79,"Velocity":63,"Duration":136774,"SoundDuration":136774,"Delta":238905871},{"NoteNumber":84,"Velocity":70,"Duration":109043,"SoundDuration":109043,"Delta":239042645},{"NoteNumber":74,"Velocity":58,"Duration":36347,"SoundDuration":36347,"Delta":239151688},{"NoteNumber":84,"Velocity":76,"Duration":703102,"SoundDuration":703102,"Delta":239188036},{"NoteNumber":46,"Velocity":51,"Duration":133589,"SoundDuration":133589,"Delta":239188036},{"NoteNumber":34,"Velocity":43,"Duration":133589,"SoundDuration":133589,"Delta":239188036},{"NoteNumber":53,"Velocity":39,"Duration":140620,"SoundDuration":140620,"Delta":239328656},{"NoteNumber":56,"Velocity":41,"Duration":140620,"SoundDuration":140620,"Delta":239469277},{"NoteNumber":58,"Velocity":44,"Duration":140620,"SoundDuration":140620,"Delta":239609897},{"NoteNumber":62,"Velocity":46,"Duration":140620,"SoundDuration":140620,"Delta":239750518},{"NoteNumber":82,"Velocity":65,"Duration":137400,"SoundDuration":137400,"Delta":239891138},{"NoteNumber":80,"Velocity":59,"Duration":137400,"SoundDuration":137400,"Delta":240028539},{"NoteNumber":77,"Velocity":55,"Duration":146814,"SoundDuration":146814,"Delta":240165939},{"NoteNumber":75,"Velocity":64,"Duration":706413,"SoundDuration":706413,"Delta":240312754},{"NoteNumber":51,"Velocity":54,"Duration":134218,"SoundDuration":134218,"Delta":240312754},{"NoteNumber":39,"Velocity":45,"Duration":134218,"SoundDuration":134218,"Delta":240312754},{"NoteNumber":51,"Velocity":39,"Duration":141282,"SoundDuration":141282,"Delta":240454036},{"NoteNumber":55,"Velocity":41,"Duration":141282,"SoundDuration":141282,"Delta":240595319},{"NoteNumber":58,"Velocity":43,"Duration":141282,"SoundDuration":141282,"Delta":240736602},{"NoteNumber":63,"Velocity":46,"Duration":141120,"SoundDuration":141120,"Delta":240883771},{"NoteNumber":79,"Velocity":59,"Duration":137400,"SoundDuration":137400,"Delta":241019167},{"NoteNumber":78,"Velocity":62,"Duration":137400,"SoundDuration":137400,"Delta":241156568},{"NoteNumber":79,"Velocity":64,"Duration":150496,"SoundDuration":150496,"Delta":241293968},{"NoteNumber":84,"Velocity":70,"Duration":141282,"SoundDuration":141282,"Delta":241444465},{"NoteNumber":46,"Velocity":51,"Duration":141282,"SoundDuration":141282,"Delta":241444465},{"NoteNumber":34,"Velocity":43,"Duration":141282,"SoundDuration":141282,"Delta":241444465},{"NoteNumber":82,"Velocity":63,"Duration":141282,"SoundDuration":141282,"Delta":241585748},{"NoteNumber":80,"Velocity":62,"Duration":141282,"SoundDuration":141282,"Delta":241727031},{"NoteNumber":77,"Velocity":60,"Duration":141282,"SoundDuration":141282,"Delta":241868313},{"NoteNumber":74,"Velocity":55,"Duration":141282,"SoundDuration":141282,"Delta":242009596},{"NoteNumber":56,"Velocity":39,"Duration":141282,"SoundDuration":141282,"Delta":242009596},{"NoteNumber":58,"Velocity":39,"Duration":141282,"SoundDuration":141282,"Delta":242009596},{"NoteNumber":62,"Velocity":46,"Duration":141282,"SoundDuration":141282,"Delta":242009596},{"NoteNumber":75,"Velocity":53,"Duration":138032,"SoundDuration":138032,"Delta":242150879},{"NoteNumber":77,"Velocity":51,"Duration":138032,"SoundDuration":138032,"Delta":242288911},{"NoteNumber":79,"Velocity":50,"Duration":146099,"SoundDuration":146099,"Delta":242426944},{"NoteNumber":75,"Velocity":64,"Duration":706413,"SoundDuration":706413,"Delta":242573043},{"NoteNumber":51,"Velocity":54,"Duration":134218,"SoundDuration":134218,"Delta":242573043},{"NoteNumber":39,"Velocity":45,"Duration":134218,"SoundDuration":134218,"Delta":242573043},{"NoteNumber":51,"Velocity":39,"Duration":141282,"SoundDuration":141282,"Delta":242714326},{"NoteNumber":55,"Velocity":41,"Duration":141282,"SoundDuration":141282,"Delta":242855609},{"NoteNumber":58,"Velocity":43,"Duration":141282,"SoundDuration":141282,"Delta":242996891},{"NoteNumber":63,"Velocity":46,"Duration":141120,"SoundDuration":141120,"Delta":243144061},{"NoteNumber":79,"Velocity":59,"Duration":137400,"SoundDuration":137400,"Delta":243279457},{"NoteNumber":78,"Velocity":62,"Duration":137400,"SoundDuration":137400,"Delta":243416857},{"NoteNumber":79,"Velocity":64,"Duration":150496,"SoundDuration":150496,"Delta":243554258},{"NoteNumber":84,"Velocity":70,"Duration":141282,"SoundDuration":141282,"Delta":243704755},{"NoteNumber":46,"Velocity":51,"Duration":141282,"SoundDuration":141282,"Delta":243704755},{"NoteNumber":34,"Velocity":43,"Duration":141282,"SoundDuration":141282,"Delta":243704755},{"NoteNumber":82,"Velocity":63,"Duration":141282,"SoundDuration":141282,"Delta":243846037},{"NoteNumber":80,"Velocity":62,"Duration":141282,"SoundDuration":141282,"Delta":243987320},{"NoteNumber":77,"Velocity":60,"Duration":141282,"SoundDuration":141282,"Delta":244128603},{"NoteNumber":74,"Velocity":55,"Duration":141282,"SoundDuration":141282,"Delta":244269886},{"NoteNumber":58,"Velocity":39,"Duration":141282,"SoundDuration":141282,"Delta":244269886},{"NoteNumber":56,"Velocity":39,"Duration":141282,"SoundDuration":141282,"Delta":244269886},{"NoteNumber":62,"Velocity":46,"Duration":141282,"SoundDuration":141282,"Delta":244269886},{"NoteNumber":75,"Velocity":53,"Duration":138032,"SoundDuration":138032,"Delta":244411168},{"NoteNumber":77,"Velocity":51,"Duration":138032,"SoundDuration":138032,"Delta":244549201},{"NoteNumber":79,"Velocity":50,"Duration":146099,"SoundDuration":146099,"Delta":244687233},{"NoteNumber":75,"Velocity":64,"Duration":706413,"SoundDuration":706413,"Delta":244833333},{"NoteNumber":51,"Velocity":54,"Duration":134218,"SoundDuration":134218,"Delta":244833333},{"NoteNumber":39,"Velocity":45,"Duration":134218,"SoundDuration":134218,"Delta":244833333},{"NoteNumber":51,"Velocity":39,"Duration":141282,"SoundDuration":141282,"Delta":244974615},{"NoteNumber":55,"Velocity":41,"Duration":141282,"SoundDuration":141282,"Delta":245115898},{"NoteNumber":58,"Velocity":43,"Duration":141282,"SoundDuration":141282,"Delta":245257181},{"NoteNumber":63,"Velocity":46,"Duration":141147,"SoundDuration":141147,"Delta":245404350},{"NoteNumber":75,"Velocity":54,"Duration":138032,"SoundDuration":138032,"Delta":245539746},{"NoteNumber":77,"Velocity":55,"Duration":138032,"SoundDuration":138032,"Delta":245677779},{"NoteNumber":79,"Velocity":57,"Duration":138982,"SoundDuration":138982,"Delta":245815811},{"NoteNumber":80,"Velocity":59,"Duration":111162,"SoundDuration":111162,"Delta":245954794},{"NoteNumber":67,"Velocity":51,"Duration":138795,"SoundDuration":138795,"Delta":245954794},{"NoteNumber":63,"Velocity":51,"Duration":138795,"SoundDuration":138795,"Delta":245954794},{"NoteNumber":82,"Velocity":60,"Duration":110141,"SoundDuration":110141,"Delta":246065956},{"NoteNumber":84,"Velocity":61,"Duration":109140,"SoundDuration":109140,"Delta":246176098},{"NoteNumber":86,"Velocity":65,"Duration":108156,"SoundDuration":108156,"Delta":246285238},{"NoteNumber":87,"Velocity":67,"Duration":107190,"SoundDuration":107190,"Delta":246393394},{"NoteNumber":89,"Velocity":69,"Duration":88515,"SoundDuration":88515,"Delta":246500584},{"NoteNumber":70,"Velocity":55,"Duration":132687,"SoundDuration":132687,"Delta":246500584},{"NoteNumber":67,"Velocity":55,"Duration":132687,"SoundDuration":132687,"Delta":246500584},{"NoteNumber":91,"Velocity":71,"Duration":88818,"SoundDuration":88818,"Delta":246589100},{"NoteNumber":92,"Velocity":73,"Duration":90866,"SoundDuration":90866,"Delta":246677918},{"NoteNumber":94,"Velocity":74,"Duration":94034,"SoundDuration":94034,"Delta":246768784},{"NoteNumber":96,"Velocity":76,"Duration":102391,"SoundDuration":102391,"Delta":246862819},{"NoteNumber":98,"Velocity":78,"Duration":112811,"SoundDuration":112811,"Delta":246965210},{"NoteNumber":99,"Velocity":79,"Duration":1408945,"SoundDuration":1408945,"Delta":247078021},{"NoteNumber":75,"Velocity":61,"Duration":1408945,"SoundDuration":1408945,"Delta":247078021},{"NoteNumber":79,"Velocity":61,"Duration":1408945,"SoundDuration":1408945,"Delta":247078021},{"NoteNumber":67,"Velocity":69,"Duration":207250,"SoundDuration":207250,"Delta":249191440},{"NoteNumber":67,"Velocity":62,"Duration":210272,"SoundDuration":210272,"Delta":249412508},{"NoteNumber":67,"Velocity":62,"Duration":224094,"SoundDuration":224094,"Delta":249636799},{"NoteNumber":67,"Velocity":64,"Duration":673415,"SoundDuration":673415,"Delta":249875833},{"NoteNumber":63,"Velocity":59,"Duration":673415,"SoundDuration":673415,"Delta":249875833},{"NoteNumber":72,"Velocity":77,"Duration":673415,"SoundDuration":673415,"Delta":249875833},{"NoteNumber":48,"Velocity":51,"Duration":673415,"SoundDuration":673415,"Delta":249875833},{"NoteNumber":60,"Velocity":60,"Duration":673415,"SoundDuration":673415,"Delta":249875833},{"NoteNumber":55,"Velocity":47,"Duration":673415,"SoundDuration":673415,"Delta":249875833},{"NoteNumber":74,"Velocity":79,"Duration":211936,"SoundDuration":211936,"Delta":250556337},{"NoteNumber":71,"Velocity":67,"Duration":211936,"SoundDuration":211936,"Delta":250556337},{"NoteNumber":67,"Velocity":67,"Duration":211936,"SoundDuration":211936,"Delta":250556337},{"NoteNumber":62,"Velocity":53,"Duration":678433,"SoundDuration":678433,"Delta":250556337},{"NoteNumber":55,"Velocity":45,"Duration":678433,"SoundDuration":678433,"Delta":250556337},{"NoteNumber":59,"Velocity":45,"Duration":678433,"SoundDuration":678433,"Delta":250556337},{"NoteNumber":74,"Velocity":75,"Duration":209567,"SoundDuration":209567,"Delta":250782402},{"NoteNumber":67,"Velocity":63,"Duration":209567,"SoundDuration":209567,"Delta":250782402},{"NoteNumber":71,"Velocity":63,"Duration":209567,"SoundDuration":209567,"Delta":250782402},{"NoteNumber":67,"Velocity":63,"Duration":221448,"SoundDuration":221448,"Delta":251005941},{"NoteNumber":71,"Velocity":63,"Duration":221448,"SoundDuration":221448,"Delta":251005941},{"NoteNumber":74,"Velocity":75,"Duration":221448,"SoundDuration":221448,"Delta":251005941},{"NoteNumber":72,"Velocity":68,"Duration":673415,"SoundDuration":673415,"Delta":251242152},{"NoteNumber":67,"Velocity":68,"Duration":673415,"SoundDuration":673415,"Delta":251242152},{"NoteNumber":75,"Velocity":80,"Duration":673415,"SoundDuration":673415,"Delta":251242152},{"NoteNumber":63,"Velocity":56,"Duration":673415,"SoundDuration":673415,"Delta":251242152},{"NoteNumber":60,"Velocity":47,"Duration":673415,"SoundDuration":673415,"Delta":251242152},{"NoteNumber":74,"Velocity":80,"Duration":207250,"SoundDuration":207250,"Delta":251922656},{"NoteNumber":67,"Velocity":68,"Duration":207250,"SoundDuration":207250,"Delta":251922656},{"NoteNumber":71,"Velocity":68,"Duration":207250,"SoundDuration":207250,"Delta":251922656},{"NoteNumber":59,"Velocity":44,"Duration":680089,"SoundDuration":680089,"Delta":251922656},{"NoteNumber":62,"Velocity":52,"Duration":680089,"SoundDuration":680089,"Delta":251922656},{"NoteNumber":55,"Velocity":44,"Duration":680089,"SoundDuration":680089,"Delta":251922656},{"NoteNumber":67,"Velocity":63,"Duration":211936,"SoundDuration":211936,"Delta":252143724},{"NoteNumber":71,"Velocity":63,"Duration":211936,"SoundDuration":211936,"Delta":252143724},{"NoteNumber":74,"Velocity":75,"Duration":211936,"SoundDuration":211936,"Delta":252143724},{"NoteNumber":67,"Velocity":63,"Duration":225441,"SoundDuration":225441,"Delta":252369789},{"NoteNumber":71,"Velocity":63,"Duration":225441,"SoundDuration":225441,"Delta":252369789},{"NoteNumber":74,"Velocity":75,"Duration":225441,"SoundDuration":225441,"Delta":252369789},{"NoteNumber":72,"Velocity":81,"Duration":740614,"SoundDuration":740614,"Delta":252610261},{"NoteNumber":63,"Velocity":68,"Duration":740614,"SoundDuration":740614,"Delta":252610261},{"NoteNumber":67,"Velocity":60,"Duration":740614,"SoundDuration":740614,"Delta":252610261},{"NoteNumber":55,"Velocity":51,"Duration":740614,"SoundDuration":740614,"Delta":252610261},{"NoteNumber":48,"Velocity":51,"Duration":740614,"SoundDuration":740614,"Delta":252610261},{"NoteNumber":60,"Velocity":60,"Duration":740614,"SoundDuration":740614,"Delta":252610261},{"NoteNumber":68,"Velocity":84,"Duration":222763,"SoundDuration":222763,"Delta":253358671},{"NoteNumber":60,"Velocity":70,"Duration":222763,"SoundDuration":222763,"Delta":253358671},{"NoteNumber":65,"Velocity":70,"Duration":222763,"SoundDuration":222763,"Delta":253358671},{"NoteNumber":53,"Velocity":50,"Duration":718419,"SoundDuration":718419,"Delta":253358671},{"NoteNumber":56,"Velocity":60,"Duration":718419,"SoundDuration":718419,"Delta":253358671},{"NoteNumber":48,"Velocity":50,"Duration":718419,"SoundDuration":718419,"Delta":253358671},{"NoteNumber":60,"Velocity":67,"Duration":222763,"SoundDuration":222763,"Delta":253596285},{"NoteNumber":65,"Velocity":67,"Duration":222763,"SoundDuration":222763,"Delta":253596285},{"NoteNumber":68,"Velocity":79,"Duration":222763,"SoundDuration":222763,"Delta":253596285},{"NoteNumber":68,"Velocity":79,"Duration":235345,"SoundDuration":235345,"Delta":253833899},{"NoteNumber":60,"Velocity":67,"Duration":235345,"SoundDuration":235345,"Delta":253833899},{"NoteNumber":65,"Velocity":67,"Duration":235345,"SoundDuration":235345,"Delta":253833899},{"NoteNumber":63,"Velocity":70,"Duration":693066,"SoundDuration":693066,"Delta":254084935},{"NoteNumber":67,"Velocity":84,"Duration":693066,"SoundDuration":693066,"Delta":254084935},{"NoteNumber":60,"Velocity":64,"Duration":693066,"SoundDuration":693066,"Delta":254084935},{"NoteNumber":48,"Velocity":51,"Duration":693066,"SoundDuration":693066,"Delta":254084935},{"NoteNumber":55,"Velocity":61,"Duration":693066,"SoundDuration":693066,"Delta":254084935},{"NoteNumber":67,"Velocity":70,"Duration":213140,"SoundDuration":213140,"Delta":254785297},{"NoteNumber":67,"Velocity":62,"Duration":217593,"SoundDuration":217593,"Delta":255012647},{"NoteNumber":67,"Velocity":62,"Duration":229582,"SoundDuration":229582,"Delta":255244747},{"NoteNumber":75,"Velocity":80,"Duration":685069,"SoundDuration":685069,"Delta":255489635},{"NoteNumber":67,"Velocity":67,"Duration":685069,"SoundDuration":685069,"Delta":255489635},{"NoteNumber":72,"Velocity":67,"Duration":685069,"SoundDuration":685069,"Delta":255489635},{"NoteNumber":55,"Velocity":53,"Duration":685069,"SoundDuration":685069,"Delta":255489635},{"NoteNumber":60,"Velocity":63,"Duration":685069,"SoundDuration":685069,"Delta":255489635},{"NoteNumber":48,"Velocity":53,"Duration":685069,"SoundDuration":685069,"Delta":255489635},{"NoteNumber":79,"Velocity":90,"Duration":210745,"SoundDuration":210745,"Delta":256181916},{"NoteNumber":67,"Velocity":75,"Duration":210745,"SoundDuration":210745,"Delta":256181916},{"NoteNumber":75,"Velocity":75,"Duration":210745,"SoundDuration":210745,"Delta":256181916},{"NoteNumber":39,"Velocity":52,"Duration":686510,"SoundDuration":686510,"Delta":256181916},{"NoteNumber":51,"Velocity":62,"Duration":686510,"SoundDuration":686510,"Delta":256181916},{"NoteNumber":67,"Velocity":68,"Duration":213140,"SoundDuration":213140,"Delta":256406711},{"NoteNumber":79,"Velocity":81,"Duration":213140,"SoundDuration":213140,"Delta":256406711},{"NoteNumber":75,"Velocity":68,"Duration":213140,"SoundDuration":213140,"Delta":256406711},{"NoteNumber":79,"Velocity":81,"Duration":226805,"SoundDuration":226805,"Delta":256634061},{"NoteNumber":75,"Velocity":68,"Duration":226805,"SoundDuration":226805,"Delta":256634061},{"NoteNumber":67,"Velocity":68,"Duration":226805,"SoundDuration":226805,"Delta":256634061},{"NoteNumber":77,"Velocity":88,"Duration":693066,"SoundDuration":693066,"Delta":256875987},{"NoteNumber":74,"Velocity":74,"Duration":693066,"SoundDuration":693066,"Delta":256875987},{"NoteNumber":68,"Velocity":74,"Duration":693066,"SoundDuration":693066,"Delta":256875987},{"NoteNumber":41,"Velocity":56,"Duration":693066,"SoundDuration":693066,"Delta":256875987},{"NoteNumber":53,"Velocity":66,"Duration":693066,"SoundDuration":693066,"Delta":256875987},{"NoteNumber":72,"Velocity":71,"Duration":214359,"SoundDuration":214359,"Delta":257576349},{"NoteNumber":75,"Velocity":84,"Duration":214359,"SoundDuration":214359,"Delta":257576349},{"NoteNumber":69,"Velocity":71,"Duration":214359,"SoundDuration":214359,"Delta":257576349},{"NoteNumber":54,"Velocity":59,"Duration":701465,"SoundDuration":701465,"Delta":257576349},{"NoteNumber":42,"Velocity":50,"Duration":701465,"SoundDuration":701465,"Delta":257576349},{"NoteNumber":72,"Velocity":63,"Duration":218099,"SoundDuration":218099,"Delta":257804998},{"NoteNumber":69,"Velocity":63,"Duration":218099,"SoundDuration":218099,"Delta":257804998},{"NoteNumber":75,"Velocity":75,"Duration":218099,"SoundDuration":218099,"Delta":257804998},{"NoteNumber":69,"Velocity":63,"Duration":232428,"SoundDuration":232428,"Delta":258037638},{"NoteNumber":75,"Velocity":75,"Duration":232428,"SoundDuration":232428,"Delta":258037638},{"NoteNumber":72,"Velocity":63,"Duration":232428,"SoundDuration":232428,"Delta":258037638},{"NoteNumber":67,"Velocity":71,"Duration":705417,"SoundDuration":705417,"Delta":258285561},{"NoteNumber":71,"Velocity":71,"Duration":705417,"SoundDuration":705417,"Delta":258285561},{"NoteNumber":74,"Velocity":84,"Duration":2159539,"SoundDuration":2159539,"Delta":258285561},{"NoteNumber":43,"Velocity":53,"Duration":705417,"SoundDuration":705417,"Delta":258285561},{"NoteNumber":55,"Velocity":63,"Duration":705417,"SoundDuration":705417,"Delta":258285561},{"NoteNumber":66,"Velocity":57,"Duration":228185,"SoundDuration":228185,"Delta":258998404},{"NoteNumber":69,"Velocity":68,"Duration":228185,"SoundDuration":228185,"Delta":258998404},{"NoteNumber":62,"Velocity":57,"Duration":228185,"SoundDuration":228185,"Delta":258998404},{"NoteNumber":50,"Velocity":45,"Duration":722587,"SoundDuration":722587,"Delta":258998404},{"NoteNumber":57,"Velocity":45,"Duration":722587,"SoundDuration":722587,"Delta":258998404},{"NoteNumber":60,"Velocity":53,"Duration":722587,"SoundDuration":722587,"Delta":258998404},{"NoteNumber":69,"Velocity":57,"Duration":228185,"SoundDuration":228185,"Delta":259241802},{"NoteNumber":62,"Velocity":48,"Duration":228185,"SoundDuration":228185,"Delta":259241802},{"NoteNumber":66,"Velocity":48,"Duration":228185,"SoundDuration":228185,"Delta":259241802},{"NoteNumber":69,"Velocity":57,"Duration":228185,"SoundDuration":228185,"Delta":259485200},{"NoteNumber":66,"Velocity":48,"Duration":228185,"SoundDuration":228185,"Delta":259485200},{"NoteNumber":62,"Velocity":48,"Duration":228185,"SoundDuration":228185,"Delta":259485200},{"NoteNumber":62,"Velocity":52,"Duration":722587,"SoundDuration":722587,"Delta":259728598},{"NoteNumber":67,"Velocity":52,"Duration":722587,"SoundDuration":722587,"Delta":259728598},{"NoteNumber":71,"Velocity":62,"Duration":722587,"SoundDuration":722587,"Delta":259728598},{"NoteNumber":55,"Velocity":44,"Duration":722587,"SoundDuration":722587,"Delta":259728598},{"NoteNumber":59,"Velocity":52,"Duration":722587,"SoundDuration":722587,"Delta":259728598},{"NoteNumber":67,"Velocity":70,"Duration":213140,"SoundDuration":213140,"Delta":260458792},{"NoteNumber":67,"Velocity":63,"Duration":215096,"SoundDuration":215096,"Delta":260686143},{"NoteNumber":67,"Velocity":63,"Duration":243601,"SoundDuration":243601,"Delta":260915579},{"NoteNumber":72,"Velocity":77,"Duration":673415,"SoundDuration":673415,"Delta":261175421},{"NoteNumber":67,"Velocity":59,"Duration":673415,"SoundDuration":673415,"Delta":261175421},{"NoteNumber":64,"Velocity":64,"Duration":673415,"SoundDuration":673415,"Delta":261175421},{"NoteNumber":48,"Velocity":48,"Duration":673415,"SoundDuration":673415,"Delta":261175421},{"NoteNumber":60,"Velocity":60,"Duration":673415,"SoundDuration":673415,"Delta":261175421},{"NoteNumber":55,"Velocity":51,"Duration":673415,"SoundDuration":673415,"Delta":261175421},{"NoteNumber":74,"Velocity":79,"Duration":211936,"SoundDuration":211936,"Delta":261855925},{"NoteNumber":71,"Velocity":67,"Duration":211936,"SoundDuration":211936,"Delta":261855925},{"NoteNumber":67,"Velocity":67,"Duration":211936,"SoundDuration":211936,"Delta":261855925},{"NoteNumber":62,"Velocity":53,"Duration":684721,"SoundDuration":684721,"Delta":261855925},{"NoteNumber":55,"Velocity":45,"Duration":684721,"SoundDuration":684721,"Delta":261855925},{"NoteNumber":59,"Velocity":45,"Duration":684721,"SoundDuration":684721,"Delta":261855925},{"NoteNumber":74,"Velocity":75,"Duration":210272,"SoundDuration":210272,"Delta":262081990},{"NoteNumber":67,"Velocity":63,"Duration":210272,"SoundDuration":210272,"Delta":262081990},{"NoteNumber":71,"Velocity":63,"Duration":210272,"SoundDuration":210272,"Delta":262081990},{"NoteNumber":74,"Velocity":75,"Duration":226805,"SoundDuration":226805,"Delta":262306281},{"NoteNumber":71,"Velocity":63,"Duration":226805,"SoundDuration":226805,"Delta":262306281},{"NoteNumber":67,"Velocity":63,"Duration":226805,"SoundDuration":226805,"Delta":262306281},{"NoteNumber":72,"Velocity":68,"Duration":673415,"SoundDuration":673415,"Delta":262548206},{"NoteNumber":76,"Velocity":80,"Duration":673415,"SoundDuration":673415,"Delta":262548206},{"NoteNumber":67,"Velocity":68,"Duration":673415,"SoundDuration":673415,"Delta":262548206},{"NoteNumber":60,"Velocity":47,"Duration":673415,"SoundDuration":673415,"Delta":262548206},{"NoteNumber":64,"Velocity":56,"Duration":673415,"SoundDuration":673415,"Delta":262548206},{"NoteNumber":74,"Velocity":80,"Duration":211936,"SoundDuration":211936,"Delta":263228710},{"NoteNumber":67,"Velocity":68,"Duration":211936,"SoundDuration":211936,"Delta":263228710},{"NoteNumber":71,"Velocity":68,"Duration":211936,"SoundDuration":211936,"Delta":263228710},{"NoteNumber":55,"Velocity":44,"Duration":688559,"SoundDuration":688559,"Delta":263228710},{"NoteNumber":59,"Velocity":44,"Duration":688559,"SoundDuration":688559,"Delta":263228710},{"NoteNumber":62,"Velocity":52,"Duration":688559,"SoundDuration":688559,"Delta":263228710},{"NoteNumber":71,"Velocity":63,"Duration":213870,"SoundDuration":213870,"Delta":263454776},{"NoteNumber":67,"Velocity":63,"Duration":213870,"SoundDuration":213870,"Delta":263454776},{"NoteNumber":74,"Velocity":75,"Duration":213870,"SoundDuration":213870,"Delta":263454776},{"NoteNumber":71,"Velocity":63,"Duration":226805,"SoundDuration":226805,"Delta":263682904},{"NoteNumber":74,"Velocity":75,"Duration":226805,"SoundDuration":226805,"Delta":263682904},{"NoteNumber":67,"Velocity":63,"Duration":226805,"SoundDuration":226805,"Delta":263682904},{"NoteNumber":64,"Velocity":68,"Duration":711333,"SoundDuration":711333,"Delta":263924830},{"NoteNumber":67,"Velocity":68,"Duration":711333,"SoundDuration":711333,"Delta":263924830},{"NoteNumber":72,"Velocity":81,"Duration":711333,"SoundDuration":711333,"Delta":263924830},{"NoteNumber":55,"Velocity":51,"Duration":711333,"SoundDuration":711333,"Delta":263924830},{"NoteNumber":48,"Velocity":51,"Duration":711333,"SoundDuration":711333,"Delta":263924830},{"NoteNumber":60,"Velocity":60,"Duration":711333,"SoundDuration":711333,"Delta":263924830},{"NoteNumber":69,"Velocity":84,"Duration":226805,"SoundDuration":226805,"Delta":264643651},{"NoteNumber":65,"Velocity":70,"Duration":226805,"SoundDuration":226805,"Delta":264643651},{"NoteNumber":60,"Velocity":70,"Duration":226805,"SoundDuration":226805,"Delta":264643651},{"NoteNumber":48,"Velocity":50,"Duration":740575,"SoundDuration":740575,"Delta":264643651},{"NoteNumber":53,"Velocity":50,"Duration":740575,"SoundDuration":740575,"Delta":264643651},{"NoteNumber":57,"Velocity":60,"Duration":740575,"SoundDuration":740575,"Delta":264643651},{"NoteNumber":65,"Velocity":67,"Duration":226805,"SoundDuration":226805,"Delta":264885576},{"NoteNumber":69,"Velocity":79,"Duration":226805,"SoundDuration":226805,"Delta":264885576},{"NoteNumber":60,"Velocity":67,"Duration":226805,"SoundDuration":226805,"Delta":264885576},{"NoteNumber":69,"Velocity":79,"Duration":248443,"SoundDuration":248443,"Delta":265127502},{"NoteNumber":60,"Velocity":67,"Duration":248443,"SoundDuration":248443,"Delta":265127502},{"NoteNumber":65,"Velocity":67,"Duration":248443,"SoundDuration":248443,"Delta":265127502},{"NoteNumber":64,"Velocity":70,"Duration":693066,"SoundDuration":693066,"Delta":265392508},{"NoteNumber":60,"Velocity":70,"Duration":693066,"SoundDuration":693066,"Delta":265392508},{"NoteNumber":67,"Velocity":84,"Duration":693066,"SoundDuration":693066,"Delta":265392508},{"NoteNumber":55,"Velocity":61,"Duration":693066,"SoundDuration":693066,"Delta":265392508},{"NoteNumber":48,"Velocity":51,"Duration":693066,"SoundDuration":693066,"Delta":265392508},{"NoteNumber":64,"Velocity":70,"Duration":218099,"SoundDuration":218099,"Delta":266092870},{"NoteNumber":66,"Velocity":70,"Duration":218099,"SoundDuration":218099,"Delta":266092870},{"NoteNumber":54,"Velocity":51,"Duration":703575,"SoundDuration":703575,"Delta":266092870},{"NoteNumber":45,"Velocity":51,"Duration":703575,"SoundDuration":703575,"Delta":266092870},{"NoteNumber":57,"Velocity":61,"Duration":703575,"SoundDuration":703575,"Delta":266092870},{"NoteNumber":76,"Velocity":77,"Duration":218099,"SoundDuration":218099,"Delta":266098686},{"NoteNumber":66,"Velocity":70,"Duration":216337,"SoundDuration":216337,"Delta":266325509},{"NoteNumber":64,"Velocity":70,"Duration":216337,"SoundDuration":216337,"Delta":266325509},{"NoteNumber":76,"Velocity":71,"Duration":217780,"SoundDuration":217780,"Delta":266326952},{"NoteNumber":76,"Velocity":71,"Duration":233763,"SoundDuration":233763,"Delta":266553385},{"NoteNumber":64,"Velocity":70,"Duration":232428,"SoundDuration":232428,"Delta":266556270},{"NoteNumber":66,"Velocity":70,"Duration":232428,"SoundDuration":232428,"Delta":266556270},{"NoteNumber":67,"Velocity":67,"Duration":685069,"SoundDuration":685069,"Delta":266804193},{"NoteNumber":74,"Velocity":80,"Duration":685069,"SoundDuration":685069,"Delta":266804193},{"NoteNumber":62,"Velocity":67,"Duration":685069,"SoundDuration":685069,"Delta":266804193},{"NoteNumber":47,"Velocity":53,"Duration":685069,"SoundDuration":685069,"Delta":266804193},{"NoteNumber":59,"Velocity":63,"Duration":685069,"SoundDuration":685069,"Delta":266804193},{"NoteNumber":55,"Velocity":53,"Duration":685069,"SoundDuration":685069,"Delta":266804193},{"NoteNumber":67,"Velocity":86,"Duration":218099,"SoundDuration":218099,"Delta":267496474},{"NoteNumber":64,"Velocity":72,"Duration":218099,"SoundDuration":218099,"Delta":267496474},{"NoteNumber":59,"Velocity":62,"Duration":696441,"SoundDuration":696441,"Delta":267496474},{"NoteNumber":52,"Velocity":52,"Duration":696441,"SoundDuration":696441,"Delta":267496474},{"NoteNumber":55,"Velocity":46,"Duration":696441,"SoundDuration":696441,"Delta":267496474},{"NoteNumber":64,"Velocity":66,"Duration":215096,"SoundDuration":215096,"Delta":267729114},{"NoteNumber":67,"Velocity":78,"Duration":215096,"SoundDuration":215096,"Delta":267729114},{"NoteNumber":64,"Velocity":66,"Duration":226805,"SoundDuration":226805,"Delta":267958550},{"NoteNumber":67,"Velocity":78,"Duration":226805,"SoundDuration":226805,"Delta":267958550},{"NoteNumber":67,"Velocity":71,"Duration":693066,"SoundDuration":693066,"Delta":268200476},{"NoteNumber":64,"Velocity":71,"Duration":693066,"SoundDuration":693066,"Delta":268200476},{"NoteNumber":69,"Velocity":84,"Duration":693066,"SoundDuration":693066,"Delta":268200476},{"NoteNumber":57,"Velocity":66,"Duration":693066,"SoundDuration":693066,"Delta":268200476},{"NoteNumber":55,"Velocity":56,"Duration":693066,"SoundDuration":693066,"Delta":268200476},{"NoteNumber":48,"Velocity":56,"Duration":693066,"SoundDuration":693066,"Delta":268200476},{"NoteNumber":66,"Velocity":71,"Duration":222763,"SoundDuration":222763,"Delta":268900838},{"NoteNumber":71,"Velocity":84,"Duration":222763,"SoundDuration":222763,"Delta":268900838},{"NoteNumber":60,"Velocity":71,"Duration":222763,"SoundDuration":222763,"Delta":268900838},{"NoteNumber":38,"Velocity":50,"Duration":719955,"SoundDuration":719955,"Delta":268900838},{"NoteNumber":50,"Velocity":59,"Duration":719955,"SoundDuration":719955,"Delta":268900838},{"NoteNumber":60,"Velocity":63,"Duration":222763,"SoundDuration":222763,"Delta":269138452},{"NoteNumber":66,"Velocity":63,"Duration":222763,"SoundDuration":222763,"Delta":269138452},{"NoteNumber":71,"Velocity":75,"Duration":222763,"SoundDuration":222763,"Delta":269138452},{"NoteNumber":71,"Velocity":75,"Duration":236832,"SoundDuration":236832,"Delta":269376067},{"NoteNumber":66,"Velocity":63,"Duration":236832,"SoundDuration":236832,"Delta":269376067},{"NoteNumber":60,"Velocity":63,"Duration":236832,"SoundDuration":236832,"Delta":269376067},{"NoteNumber":62,"Velocity":71,"Duration":2150412,"SoundDuration":2150412,"Delta":269628688},{"NoteNumber":59,"Velocity":71,"Duration":2150412,"SoundDuration":2150412,"Delta":269628688},{"NoteNumber":67,"Velocity":84,"Duration":2150412,"SoundDuration":2150412,"Delta":269628688},{"NoteNumber":43,"Velocity":66,"Duration":705417,"SoundDuration":705417,"Delta":269628688},{"NoteNumber":55,"Velocity":66,"Duration":705417,"SoundDuration":705417,"Delta":269628688},{"NoteNumber":43,"Velocity":65,"Duration":547645,"SoundDuration":547645,"Delta":270341531},{"NoteNumber":31,"Velocity":69,"Duration":547645,"SoundDuration":547645,"Delta":271071725},{"NoteNumber":67,"Velocity":55,"Duration":463106,"SoundDuration":463106,"Delta":271801919},{"NoteNumber":62,"Velocity":57,"Duration":365175,"SoundDuration":365175,"Delta":272342209},{"NoteNumber":68,"Velocity":61,"Duration":326583,"SoundDuration":326583,"Delta":272380802},{"NoteNumber":70,"Velocity":65,"Duration":287990,"SoundDuration":287990,"Delta":272419394},{"NoteNumber":46,"Velocity":48,"Duration":287990,"SoundDuration":287990,"Delta":272419394},{"NoteNumber":34,"Velocity":48,"Duration":287990,"SoundDuration":287990,"Delta":272419394},{"NoteNumber":56,"Velocity":42,"Duration":287991,"SoundDuration":287991,"Delta":272707385},{"NoteNumber":58,"Velocity":42,"Duration":284730,"SoundDuration":284730,"Delta":272995376},{"NoteNumber":70,"Velocity":59,"Duration":140610,"SoundDuration":140610,"Delta":273280107},{"NoteNumber":62,"Velocity":48,"Duration":280121,"SoundDuration":280121,"Delta":273280107},{"NoteNumber":65,"Velocity":55,"Duration":139510,"SoundDuration":139510,"Delta":273420717},{"NoteNumber":70,"Velocity":59,"Duration":138288,"SoundDuration":138288,"Delta":273560228},{"NoteNumber":58,"Velocity":42,"Duration":275401,"SoundDuration":275401,"Delta":273560228},{"NoteNumber":74,"Velocity":62,"Duration":137113,"SoundDuration":137113,"Delta":273698516},{"NoteNumber":77,"Velocity":66,"Duration":90836,"SoundDuration":90836,"Delta":273835629},{"NoteNumber":56,"Velocity":42,"Duration":270869,"SoundDuration":270869,"Delta":273835629},{"NoteNumber":82,"Velocity":69,"Duration":90292,"SoundDuration":90292,"Delta":273926466},{"NoteNumber":86,"Velocity":71,"Duration":89740,"SoundDuration":89740,"Delta":274016758},{"NoteNumber":89,"Velocity":74,"Duration":286614,"SoundDuration":286614,"Delta":274106499},{"NoteNumber":46,"Velocity":48,"Duration":286614,"SoundDuration":286614,"Delta":274106499},{"NoteNumber":56,"Velocity":41,"Duration":286615,"SoundDuration":286615,"Delta":274393114},{"NoteNumber":58,"Velocity":41,"Duration":286614,"SoundDuration":286614,"Delta":274679729},{"NoteNumber":62,"Velocity":48,"Duration":286614,"SoundDuration":286614,"Delta":274966344},{"NoteNumber":58,"Velocity":40,"Duration":286614,"SoundDuration":286614,"Delta":275252959},{"NoteNumber":70,"Velocity":56,"Duration":143307,"SoundDuration":143307,"Delta":275539574},{"NoteNumber":56,"Velocity":41,"Duration":286614,"SoundDuration":286614,"Delta":275539574},{"NoteNumber":63,"Velocity":58,"Duration":358268,"SoundDuration":358268,"Delta":275754535},{"NoteNumber":67,"Velocity":62,"Duration":322441,"SoundDuration":322441,"Delta":275790362},{"NoteNumber":70,"Velocity":66,"Duration":286615,"SoundDuration":286615,"Delta":275826189},{"NoteNumber":46,"Velocity":48,"Duration":286615,"SoundDuration":286615,"Delta":275826189},{"NoteNumber":34,"Velocity":48,"Duration":286615,"SoundDuration":286615,"Delta":275826189},{"NoteNumber":55,"Velocity":41,"Duration":286614,"SoundDuration":286614,"Delta":276112804},{"NoteNumber":58,"Velocity":41,"Duration":286525,"SoundDuration":286525,"Delta":276399419},{"NoteNumber":70,"Velocity":56,"Duration":140091,"SoundDuration":140091,"Delta":276685945},{"NoteNumber":63,"Velocity":48,"Duration":278683,"SoundDuration":278683,"Delta":276685945},{"NoteNumber":67,"Velocity":53,"Duration":138592,"SoundDuration":138592,"Delta":276826036},{"NoteNumber":70,"Velocity":63,"Duration":137067,"SoundDuration":137067,"Delta":276964628},{"NoteNumber":58,"Velocity":42,"Duration":272657,"SoundDuration":272657,"Delta":276964628},{"NoteNumber":75,"Velocity":58,"Duration":135590,"SoundDuration":135590,"Delta":277101695},{"NoteNumber":79,"Velocity":64,"Duration":89615,"SoundDuration":89615,"Delta":277237286},{"NoteNumber":55,"Velocity":42,"Duration":270532,"SoundDuration":270532,"Delta":277237286},{"NoteNumber":82,"Velocity":68,"Duration":88962,"SoundDuration":88962,"Delta":277326901},{"NoteNumber":87,"Velocity":71,"Duration":91955,"SoundDuration":91955,"Delta":277415864},{"NoteNumber":91,"Velocity":75,"Duration":142626,"SoundDuration":142626,"Delta":277507819},{"NoteNumber":46,"Velocity":48,"Duration":285252,"SoundDuration":285252,"Delta":277507819},{"NoteNumber":55,"Velocity":42,"Duration":285252,"SoundDuration":285252,"Delta":277793072},{"NoteNumber":58,"Velocity":42,"Duration":285252,"SoundDuration":285252,"Delta":278078324},{"NoteNumber":63,"Velocity":48,"Duration":285252,"SoundDuration":285252,"Delta":278363577},{"NoteNumber":58,"Velocity":42,"Duration":287409,"SoundDuration":287409,"Delta":278648829},{"NoteNumber":70,"Velocity":59,"Duration":151255,"SoundDuration":151255,"Delta":278936239},{"NoteNumber":55,"Velocity":42,"Duration":302511,"SoundDuration":302511,"Delta":278936239},{"NoteNumber":64,"Velocity":64,"Duration":363325,"SoundDuration":363325,"Delta":279163122},{"NoteNumber":67,"Velocity":67,"Duration":325511,"SoundDuration":325511,"Delta":279200936},{"NoteNumber":70,"Velocity":70,"Duration":287697,"SoundDuration":287697,"Delta":279238750},{"NoteNumber":46,"Velocity":48,"Duration":287697,"SoundDuration":287697,"Delta":279238750},{"NoteNumber":34,"Velocity":48,"Duration":287697,"SoundDuration":287697,"Delta":279238750},{"NoteNumber":55,"Velocity":43,"Duration":285252,"SoundDuration":285252,"Delta":279526447},{"NoteNumber":58,"Velocity":43,"Duration":283946,"SoundDuration":283946,"Delta":279811700},{"NoteNumber":70,"Velocity":67,"Duration":137149,"SoundDuration":137149,"Delta":280095646},{"NoteNumber":64,"Velocity":52,"Duration":273355,"SoundDuration":273355,"Delta":280095646},{"NoteNumber":67,"Velocity":62,"Duration":136205,"SoundDuration":136205,"Delta":280232796},{"NoteNumber":70,"Velocity":66,"Duration":135228,"SoundDuration":135228,"Delta":280369002},{"NoteNumber":58,"Velocity":43,"Duration":269478,"SoundDuration":269478,"Delta":280369002},{"NoteNumber":76,"Velocity":69,"Duration":134250,"SoundDuration":134250,"Delta":280504230},{"NoteNumber":79,"Velocity":72,"Duration":88982,"SoundDuration":88982,"Delta":280638480},{"NoteNumber":55,"Velocity":44,"Duration":267124,"SoundDuration":267124,"Delta":280638480},{"NoteNumber":82,"Velocity":74,"Duration":88568,"SoundDuration":88568,"Delta":280727462},{"NoteNumber":88,"Velocity":77,"Duration":89573,"SoundDuration":89573,"Delta":280816031},{"NoteNumber":91,"Velocity":79,"Duration":141951,"SoundDuration":141951,"Delta":280905605},{"NoteNumber":46,"Velocity":50,"Duration":283902,"SoundDuration":283902,"Delta":280905605},{"NoteNumber":55,"Velocity":43,"Duration":283902,"SoundDuration":283902,"Delta":281189507},{"NoteNumber":58,"Velocity":43,"Duration":283902,"SoundDuration":283902,"Delta":281473410},{"NoteNumber":64,"Velocity":51,"Duration":283902,"SoundDuration":283902,"Delta":281757312},{"NoteNumber":58,"Velocity":44,"Duration":284017,"SoundDuration":284017,"Delta":282041215},{"NoteNumber":55,"Velocity":44,"Duration":290782,"SoundDuration":290782,"Delta":282325232},{"NoteNumber":70,"Velocity":58,"Duration":145391,"SoundDuration":145391,"Delta":282328866},{"NoteNumber":70,"Velocity":61,"Duration":268711,"SoundDuration":268711,"Delta":282616014},{"NoteNumber":80,"Velocity":72,"Duration":268711,"SoundDuration":268711,"Delta":282616014},{"NoteNumber":46,"Velocity":51,"Duration":282839,"SoundDuration":282839,"Delta":282616014},{"NoteNumber":58,"Velocity":61,"Duration":282839,"SoundDuration":282839,"Delta":282616014},{"NoteNumber":56,"Velocity":51,"Duration":282839,"SoundDuration":282839,"Delta":282616014},{"NoteNumber":70,"Velocity":57,"Duration":264751,"SoundDuration":264751,"Delta":282898853},{"NoteNumber":70,"Velocity":57,"Duration":267178,"SoundDuration":267178,"Delta":283177667},{"NoteNumber":79,"Velocity":73,"Duration":264697,"SoundDuration":264697,"Delta":283458908},{"NoteNumber":70,"Velocity":62,"Duration":264697,"SoundDuration":264697,"Delta":283458908},{"NoteNumber":64,"Velocity":43,"Duration":278629,"SoundDuration":278629,"Delta":283458908},{"NoteNumber":58,"Velocity":43,"Duration":278629,"SoundDuration":278629,"Delta":283458908},{"NoteNumber":67,"Velocity":51,"Duration":278629,"SoundDuration":278629,"Delta":283458908},{"NoteNumber":70,"Velocity":56,"Duration":267178,"SoundDuration":267178,"Delta":283737537},{"NoteNumber":70,"Velocity":57,"Duration":267178,"SoundDuration":267178,"Delta":284018778},{"NoteNumber":80,"Velocity":76,"Duration":267178,"SoundDuration":267178,"Delta":284300019},{"NoteNumber":70,"Velocity":64,"Duration":267178,"SoundDuration":267178,"Delta":284300019},{"NoteNumber":65,"Velocity":44,"Duration":281241,"SoundDuration":281241,"Delta":284300019},{"NoteNumber":68,"Velocity":53,"Duration":281241,"SoundDuration":281241,"Delta":284300019},{"NoteNumber":58,"Velocity":44,"Duration":281241,"SoundDuration":281241,"Delta":284300019},{"NoteNumber":70,"Velocity":57,"Duration":263473,"SoundDuration":263473,"Delta":284581260},{"NoteNumber":70,"Velocity":57,"Duration":267178,"SoundDuration":267178,"Delta":284858601},{"NoteNumber":79,"Velocity":76,"Duration":267178,"SoundDuration":267178,"Delta":285139842},{"NoteNumber":70,"Velocity":63,"Duration":267178,"SoundDuration":267178,"Delta":285139842},{"NoteNumber":67,"Velocity":51,"Duration":281240,"SoundDuration":281240,"Delta":285139842},{"NoteNumber":58,"Velocity":43,"Duration":281240,"SoundDuration":281240,"Delta":285139842},{"NoteNumber":64,"Velocity":43,"Duration":281240,"SoundDuration":281240,"Delta":285139842},{"NoteNumber":70,"Velocity":59,"Duration":267178,"SoundDuration":267178,"Delta":285421083},{"NoteNumber":70,"Velocity":59,"Duration":267348,"SoundDuration":267348,"Delta":285702324},{"NoteNumber":80,"Velocity":75,"Duration":274910,"SoundDuration":274910,"Delta":285984142},{"NoteNumber":70,"Velocity":64,"Duration":274910,"SoundDuration":274910,"Delta":285984142},{"NoteNumber":65,"Velocity":57,"Duration":289379,"SoundDuration":289379,"Delta":285984142},{"NoteNumber":58,"Velocity":57,"Duration":289379,"SoundDuration":289379,"Delta":285984142},{"NoteNumber":68,"Velocity":68,"Duration":289379,"SoundDuration":289379,"Delta":285984142},{"NoteNumber":82,"Velocity":59,"Duration":265932,"SoundDuration":265932,"Delta":286273522},{"NoteNumber":70,"Velocity":50,"Duration":265932,"SoundDuration":265932,"Delta":286273522},{"NoteNumber":82,"Velocity":59,"Duration":265932,"SoundDuration":265932,"Delta":286553451},{"NoteNumber":70,"Velocity":50,"Duration":265932,"SoundDuration":265932,"Delta":286553451},{"NoteNumber":57,"Velocity":53,"Duration":279929,"SoundDuration":279929,"Delta":286553451},{"NoteNumber":69,"Velocity":63,"Duration":279929,"SoundDuration":279929,"Delta":286553451},{"NoteNumber":70,"Velocity":54,"Duration":265932,"SoundDuration":265932,"Delta":286833380},{"NoteNumber":82,"Velocity":64,"Duration":265932,"SoundDuration":265932,"Delta":286833380},{"NoteNumber":56,"Velocity":58,"Duration":559857,"SoundDuration":559857,"Delta":286833380},{"NoteNumber":68,"Velocity":68,"Duration":559857,"SoundDuration":559857,"Delta":286833380},{"NoteNumber":82,"Velocity":60,"Duration":265932,"SoundDuration":265932,"Delta":287113309},{"NoteNumber":70,"Velocity":50,"Duration":265932,"SoundDuration":265932,"Delta":287113309},{"NoteNumber":82,"Velocity":60,"Duration":265932,"SoundDuration":265932,"Delta":287393238},{"NoteNumber":70,"Velocity":51,"Duration":265932,"SoundDuration":265932,"Delta":287393238},{"NoteNumber":55,"Velocity":59,"Duration":279929,"SoundDuration":279929,"Delta":287393238},{"NoteNumber":67,"Velocity":70,"Duration":279929,"SoundDuration":279929,"Delta":287393238},{"NoteNumber":70,"Velocity":57,"Duration":265932,"SoundDuration":265932,"Delta":287673167},{"NoteNumber":82,"Velocity":68,"Duration":265932,"SoundDuration":265932,"Delta":287673167},{"NoteNumber":65,"Velocity":71,"Duration":561170,"SoundDuration":561170,"Delta":287673167},{"NoteNumber":53,"Velocity":59,"Duration":561170,"SoundDuration":561170,"Delta":287673167},{"NoteNumber":70,"Velocity":51,"Duration":267178,"SoundDuration":267178,"Delta":287953096},{"NoteNumber":82,"Velocity":60,"Duration":267178,"SoundDuration":267178,"Delta":287953096},{"NoteNumber":82,"Velocity":61,"Duration":262261,"SoundDuration":262261,"Delta":288234337},{"NoteNumber":70,"Velocity":51,"Duration":262261,"SoundDuration":262261,"Delta":288234337},{"NoteNumber":63,"Velocity":73,"Duration":276065,"SoundDuration":276065,"Delta":288234337},{"NoteNumber":51,"Velocity":61,"Duration":276065,"SoundDuration":276065,"Delta":288234337},{"NoteNumber":70,"Velocity":58,"Duration":262261,"SoundDuration":262261,"Delta":288510402},{"NoteNumber":82,"Velocity":69,"Duration":262261,"SoundDuration":262261,"Delta":288510402},{"NoteNumber":62,"Velocity":74,"Duration":552129,"SoundDuration":552129,"Delta":288510402},{"NoteNumber":50,"Velocity":62,"Duration":552129,"SoundDuration":552129,"Delta":288510402},{"NoteNumber":82,"Velocity":62,"Duration":262261,"SoundDuration":262261,"Delta":288786467},{"NoteNumber":70,"Velocity":52,"Duration":262261,"SoundDuration":262261,"Delta":288786467},{"NoteNumber":70,"Velocity":52,"Duration":262261,"SoundDuration":262261,"Delta":289062532},{"NoteNumber":82,"Velocity":62,"Duration":262261,"SoundDuration":262261,"Delta":289062532},{"NoteNumber":60,"Velocity":77,"Duration":276065,"SoundDuration":276065,"Delta":289062532},{"NoteNumber":48,"Velocity":65,"Duration":276065,"SoundDuration":276065,"Delta":289062532},{"NoteNumber":70,"Velocity":56,"Duration":257988,"SoundDuration":257988,"Delta":289338597},{"NoteNumber":82,"Velocity":66,"Duration":257988,"SoundDuration":257988,"Delta":289338597},{"NoteNumber":46,"Velocity":67,"Duration":546872,"SoundDuration":546872,"Delta":289338597},{"NoteNumber":58,"Velocity":79,"Duration":546872,"SoundDuration":546872,"Delta":289338597},{"NoteNumber":82,"Velocity":67,"Duration":261539,"SoundDuration":261539,"Delta":289610164},{"NoteNumber":70,"Velocity":56,"Duration":261539,"SoundDuration":261539,"Delta":289610164},{"NoteNumber":82,"Velocity":69,"Duration":256826,"SoundDuration":256826,"Delta":289885469},{"NoteNumber":70,"Velocity":58,"Duration":256826,"SoundDuration":256826,"Delta":289885469},{"NoteNumber":45,"Velocity":68,"Duration":270343,"SoundDuration":270343,"Delta":289885469},{"NoteNumber":57,"Velocity":81,"Duration":270343,"SoundDuration":270343,"Delta":289885469},{"NoteNumber":82,"Velocity":71,"Duration":259161,"SoundDuration":259161,"Delta":290155812},{"NoteNumber":70,"Velocity":59,"Duration":259161,"SoundDuration":259161,"Delta":290155812},{"NoteNumber":56,"Velocity":83,"Duration":550142,"SoundDuration":550142,"Delta":290155812},{"NoteNumber":44,"Velocity":69,"Duration":550142,"SoundDuration":550142,"Delta":290155812},{"NoteNumber":82,"Velocity":72,"Duration":263473,"SoundDuration":263473,"Delta":290428614},{"NoteNumber":70,"Velocity":61,"Duration":263473,"SoundDuration":263473,"Delta":290428614},{"NoteNumber":82,"Velocity":75,"Duration":264110,"SoundDuration":264110,"Delta":290705955},{"NoteNumber":70,"Velocity":62,"Duration":264110,"SoundDuration":264110,"Delta":290705955},{"NoteNumber":43,"Velocity":72,"Duration":278106,"SoundDuration":278106,"Delta":290705955},{"NoteNumber":55,"Velocity":86,"Duration":278106,"SoundDuration":278106,"Delta":290705955},{"NoteNumber":82,"Velocity":76,"Duration":267667,"SoundDuration":267667,"Delta":290984061},{"NoteNumber":70,"Velocity":63,"Duration":267667,"SoundDuration":267667,"Delta":290984061},{"NoteNumber":41,"Velocity":73,"Duration":567135,"SoundDuration":567135,"Delta":290984061},{"NoteNumber":53,"Velocity":87,"Duration":567135,"SoundDuration":567135,"Delta":290984061},{"NoteNumber":70,"Velocity":65,"Duration":270942,"SoundDuration":270942,"Delta":291265924},{"NoteNumber":82,"Velocity":77,"Duration":270942,"SoundDuration":270942,"Delta":291265924},{"NoteNumber":82,"Velocity":80,"Duration":274537,"SoundDuration":274537,"Delta":291551197},{"NoteNumber":70,"Velocity":67,"Duration":274537,"SoundDuration":274537,"Delta":291551197},{"NoteNumber":39,"Velocity":75,"Duration":289076,"SoundDuration":289076,"Delta":291551197},{"NoteNumber":51,"Velocity":89,"Duration":289076,"SoundDuration":289076,"Delta":291551197},{"NoteNumber":70,"Velocity":68,"Duration":277883,"SoundDuration":277883,"Delta":291840273},{"NoteNumber":82,"Velocity":81,"Duration":277883,"SoundDuration":277883,"Delta":291840273},{"NoteNumber":50,"Velocity":90,"Duration":589031,"SoundDuration":589031,"Delta":291840273},{"NoteNumber":38,"Velocity":76,"Duration":589031,"SoundDuration":589031,"Delta":291840273},{"NoteNumber":82,"Velocity":84,"Duration":281494,"SoundDuration":281494,"Delta":292132910},{"NoteNumber":70,"Velocity":70,"Duration":281494,"SoundDuration":281494,"Delta":292132910},{"NoteNumber":70,"Velocity":71,"Duration":284820,"SoundDuration":284820,"Delta":292429305},{"NoteNumber":82,"Velocity":85,"Duration":284820,"SoundDuration":284820,"Delta":292429305},{"NoteNumber":36,"Velocity":78,"Duration":299945,"SoundDuration":299945,"Delta":292429305},{"NoteNumber":48,"Velocity":93,"Duration":299945,"SoundDuration":299945,"Delta":292429305},{"NoteNumber":70,"Velocity":73,"Duration":274910,"SoundDuration":274910,"Delta":292729250},{"NoteNumber":82,"Velocity":87,"Duration":274910,"SoundDuration":274910,"Delta":292729250},{"NoteNumber":34,"Velocity":83,"Duration":569308,"SoundDuration":569308,"Delta":292729250},{"NoteNumber":46,"Velocity":100,"Duration":569308,"SoundDuration":569308,"Delta":292729250},{"NoteNumber":82,"Velocity":79,"Duration":265932,"SoundDuration":265932,"Delta":293018630},{"NoteNumber":70,"Velocity":66,"Duration":265932,"SoundDuration":265932,"Delta":293018630},{"NoteNumber":82,"Velocity":79,"Duration":265932,"SoundDuration":265932,"Delta":293298559},{"NoteNumber":70,"Velocity":66,"Duration":265932,"SoundDuration":265932,"Delta":293298559},{"NoteNumber":70,"Velocity":77,"Duration":265932,"SoundDuration":265932,"Delta":293578488},{"NoteNumber":77,"Velocity":77,"Duration":265932,"SoundDuration":265932,"Delta":293578488},{"NoteNumber":74,"Velocity":77,"Duration":265932,"SoundDuration":265932,"Delta":293578488},{"NoteNumber":82,"Velocity":90,"Duration":265932,"SoundDuration":265932,"Delta":293578488},{"NoteNumber":58,"Velocity":70,"Duration":559857,"SoundDuration":559857,"Delta":293578488},{"NoteNumber":53,"Velocity":70,"Duration":559857,"SoundDuration":559857,"Delta":293578488},{"NoteNumber":62,"Velocity":82,"Duration":559857,"SoundDuration":559857,"Delta":293578488},{"NoteNumber":70,"Velocity":71,"Duration":265932,"SoundDuration":265932,"Delta":293858417},{"NoteNumber":82,"Velocity":85,"Duration":265932,"SoundDuration":265932,"Delta":293858417},{"NoteNumber":82,"Velocity":85,"Duration":290312,"SoundDuration":290312,"Delta":294138346},{"NoteNumber":70,"Velocity":71,"Duration":290312,"SoundDuration":290312,"Delta":294138346},{"NoteNumber":71,"Velocity":78,"Duration":265932,"SoundDuration":265932,"Delta":294443939},{"NoteNumber":83,"Velocity":93,"Duration":265932,"SoundDuration":265932,"Delta":294443939},{"NoteNumber":33,"Velocity":83,"Duration":559858,"SoundDuration":559858,"Delta":294443939},{"NoteNumber":45,"Velocity":98,"Duration":559858,"SoundDuration":559858,"Delta":294443939},{"NoteNumber":71,"Velocity":69,"Duration":265932,"SoundDuration":265932,"Delta":294723868},{"NoteNumber":83,"Velocity":81,"Duration":265932,"SoundDuration":265932,"Delta":294723868},{"NoteNumber":83,"Velocity":81,"Duration":265932,"SoundDuration":265932,"Delta":295003797},{"NoteNumber":71,"Velocity":69,"Duration":265932,"SoundDuration":265932,"Delta":295003797},{"NoteNumber":78,"Velocity":78,"Duration":265932,"SoundDuration":265932,"Delta":295283726},{"NoteNumber":71,"Velocity":78,"Duration":265932,"SoundDuration":265932,"Delta":295283726},{"NoteNumber":75,"Velocity":78,"Duration":265932,"SoundDuration":265932,"Delta":295283726},{"NoteNumber":83,"Velocity":93,"Duration":265932,"SoundDuration":265932,"Delta":295283726},{"NoteNumber":57,"Velocity":67,"Duration":559858,"SoundDuration":559858,"Delta":295283726},{"NoteNumber":66,"Velocity":80,"Duration":559858,"SoundDuration":559858,"Delta":295283726},{"NoteNumber":63,"Velocity":67,"Duration":559858,"SoundDuration":559858,"Delta":295283726},{"NoteNumber":71,"Velocity":69,"Duration":265932,"SoundDuration":265932,"Delta":295563655},{"NoteNumber":83,"Velocity":81,"Duration":265932,"SoundDuration":265932,"Delta":295563655},{"NoteNumber":71,"Velocity":67,"Duration":280318,"SoundDuration":280318,"Delta":295843584},{"NoteNumber":83,"Velocity":80,"Duration":280318,"SoundDuration":280318,"Delta":295843584},{"NoteNumber":84,"Velocity":87,"Duration":265932,"SoundDuration":265932,"Delta":296138656},{"NoteNumber":72,"Velocity":73,"Duration":265932,"SoundDuration":265932,"Delta":296138656},{"NoteNumber":44,"Velocity":100,"Duration":559858,"SoundDuration":559858,"Delta":296138656},{"NoteNumber":32,"Velocity":83,"Duration":559858,"SoundDuration":559858,"Delta":296138656},{"NoteNumber":84,"Velocity":79,"Duration":265932,"SoundDuration":265932,"Delta":296418585},{"NoteNumber":72,"Velocity":66,"Duration":265932,"SoundDuration":265932,"Delta":296418585},{"NoteNumber":72,"Velocity":66,"Duration":265932,"SoundDuration":265932,"Delta":296698514},{"NoteNumber":84,"Velocity":79,"Duration":265932,"SoundDuration":265932,"Delta":296698514},{"NoteNumber":78,"Velocity":77,"Duration":265932,"SoundDuration":265932,"Delta":296978443},{"NoteNumber":75,"Velocity":77,"Duration":265932,"SoundDuration":265932,"Delta":296978443},{"NoteNumber":72,"Velocity":77,"Duration":265932,"SoundDuration":265932,"Delta":296978443},{"NoteNumber":84,"Velocity":90,"Duration":265932,"SoundDuration":265932,"Delta":296978443},{"NoteNumber":56,"Velocity":70,"Duration":559858,"SoundDuration":559858,"Delta":296978443},{"NoteNumber":66,"Velocity":82,"Duration":559858,"SoundDuration":559858,"Delta":296978443},{"NoteNumber":63,"Velocity":70,"Duration":559858,"SoundDuration":559858,"Delta":296978443},{"NoteNumber":72,"Velocity":71,"Duration":265932,"SoundDuration":265932,"Delta":297258372},{"NoteNumber":84,"Velocity":85,"Duration":265932,"SoundDuration":265932,"Delta":297258372},{"NoteNumber":72,"Velocity":71,"Duration":277588,"SoundDuration":277588,"Delta":297538301},{"NoteNumber":84,"Velocity":85,"Duration":277588,"SoundDuration":277588,"Delta":297538301},{"NoteNumber":74,"Velocity":78,"Duration":265932,"SoundDuration":265932,"Delta":297830500},{"NoteNumber":86,"Velocity":93,"Duration":265932,"SoundDuration":265932,"Delta":297830500},{"NoteNumber":29,"Velocity":83,"Duration":559858,"SoundDuration":559858,"Delta":297830500},{"NoteNumber":41,"Velocity":98,"Duration":559858,"SoundDuration":559858,"Delta":297830500},{"NoteNumber":74,"Velocity":69,"Duration":265932,"SoundDuration":265932,"Delta":298110429},{"NoteNumber":86,"Velocity":81,"Duration":265932,"SoundDuration":265932,"Delta":298110429},{"NoteNumber":74,"Velocity":69,"Duration":265932,"SoundDuration":265932,"Delta":298390358},{"NoteNumber":86,"Velocity":81,"Duration":265932,"SoundDuration":265932,"Delta":298390358},{"NoteNumber":80,"Velocity":78,"Duration":2922689,"SoundDuration":2922689,"Delta":298670287},{"NoteNumber":74,"Velocity":78,"Duration":2922689,"SoundDuration":2922689,"Delta":298670287},{"NoteNumber":77,"Velocity":78,"Duration":2922689,"SoundDuration":2922689,"Delta":298670287},{"NoteNumber":86,"Velocity":93,"Duration":2922689,"SoundDuration":2922689,"Delta":298670287},{"NoteNumber":56,"Velocity":67,"Duration":559858,"SoundDuration":559858,"Delta":298670287},{"NoteNumber":58,"Velocity":67,"Duration":559858,"SoundDuration":559858,"Delta":298670287},{"NoteNumber":65,"Velocity":80,"Duration":559858,"SoundDuration":559858,"Delta":298670287},{"NoteNumber":62,"Velocity":67,"Duration":559858,"SoundDuration":559858,"Delta":298670287},{"NoteNumber":34,"Velocity":98,"Duration":1808862,"SoundDuration":1808862,"Delta":299510074},{"NoteNumber":41,"Velocity":51,"Duration":69210,"SoundDuration":69210,"Delta":301318937},{"NoteNumber":44,"Velocity":53,"Duration":68637,"SoundDuration":68637,"Delta":301388148},{"NoteNumber":46,"Velocity":54,"Duration":68273,"SoundDuration":68273,"Delta":301456785},{"NoteNumber":50,"Velocity":56,"Duration":67917,"SoundDuration":67917,"Delta":301525058},{"NoteNumber":53,"Velocity":57,"Duration":67692,"SoundDuration":67692,"Delta":301592976},{"NoteNumber":56,"Velocity":59,"Duration":67338,"SoundDuration":67338,"Delta":301660669},{"NoteNumber":58,"Velocity":60,"Duration":67037,"SoundDuration":67037,"Delta":301728007},{"NoteNumber":62,"Velocity":56,"Duration":67704,"SoundDuration":67704,"Delta":301795045},{"NoteNumber":65,"Velocity":61,"Duration":68807,"SoundDuration":68807,"Delta":301862749},{"NoteNumber":68,"Velocity":63,"Duration":69994,"SoundDuration":69994,"Delta":301931556},{"NoteNumber":70,"Velocity":66,"Duration":71151,"SoundDuration":71151,"Delta":302001551},{"NoteNumber":74,"Velocity":69,"Duration":72376,"SoundDuration":72376,"Delta":302072703},{"NoteNumber":77,"Velocity":72,"Duration":73631,"SoundDuration":73631,"Delta":302145079},{"NoteNumber":80,"Velocity":74,"Duration":74905,"SoundDuration":74905,"Delta":302218711},{"NoteNumber":82,"Velocity":82,"Duration":2125601,"SoundDuration":2125601,"Delta":302293617},{"NoteNumber":70,"Velocity":47,"Duration":322920,"SoundDuration":322920,"Delta":304705834},{"NoteNumber":82,"Velocity":58,"Duration":322920,"SoundDuration":322920,"Delta":304705834},{"NoteNumber":81,"Velocity":55,"Duration":327654,"SoundDuration":327654,"Delta":305028754},{"NoteNumber":69,"Velocity":44,"Duration":327654,"SoundDuration":327654,"Delta":305028754},{"NoteNumber":82,"Velocity":61,"Duration":332804,"SoundDuration":332804,"Delta":305356409},{"NoteNumber":70,"Velocity":49,"Duration":332804,"SoundDuration":332804,"Delta":305356409},{"NoteNumber":71,"Velocity":53,"Duration":338085,"SoundDuration":338085,"Delta":305689213},{"NoteNumber":83,"Velocity":66,"Duration":338085,"SoundDuration":338085,"Delta":305689213},{"NoteNumber":84,"Velocity":70,"Duration":389762,"SoundDuration":389762,"Delta":306027299},{"NoteNumber":72,"Velocity":56,"Duration":389762,"SoundDuration":389762,"Delta":306027299},{"NoteNumber":73,"Velocity":55,"Duration":1087548,"SoundDuration":1087548,"Delta":306417061},{"NoteNumber":85,"Velocity":69,"Duration":1087548,"SoundDuration":1087548,"Delta":306417061},{"NoteNumber":86,"Velocity":62,"Duration":1614205,"SoundDuration":1614205,"Delta":307504609},{"NoteNumber":74,"Velocity":50,"Duration":1614205,"SoundDuration":1614205,"Delta":307504609},{"NoteNumber":87,"Velocity":85,"Duration":1582462,"SoundDuration":1582462,"Delta":309118814},{"NoteNumber":75,"Velocity":72,"Duration":1582462,"SoundDuration":1582462,"Delta":309118814},{"NoteNumber":39,"Velocity":62,"Duration":530515,"SoundDuration":530515,"Delta":309118814},{"NoteNumber":51,"Velocity":74,"Duration":530515,"SoundDuration":530515,"Delta":309118814},{"NoteNumber":79,"Velocity":62,"Duration":237559,"SoundDuration":237559,"Delta":309399267},{"NoteNumber":82,"Velocity":62,"Duration":237559,"SoundDuration":237559,"Delta":309399267},{"NoteNumber":82,"Velocity":62,"Duration":237559,"SoundDuration":237559,"Delta":309649329},{"NoteNumber":79,"Velocity":62,"Duration":237559,"SoundDuration":237559,"Delta":309649329},{"NoteNumber":63,"Velocity":63,"Duration":518785,"SoundDuration":518785,"Delta":309899392},{"NoteNumber":55,"Velocity":53,"Duration":518785,"SoundDuration":518785,"Delta":309899392},{"NoteNumber":58,"Velocity":53,"Duration":518785,"SoundDuration":518785,"Delta":309899392},{"NoteNumber":79,"Velocity":62,"Duration":240567,"SoundDuration":240567,"Delta":310164949},{"NoteNumber":82,"Velocity":62,"Duration":240567,"SoundDuration":240567,"Delta":310164949},{"NoteNumber":79,"Velocity":62,"Duration":268944,"SoundDuration":268944,"Delta":310418177},{"NoteNumber":82,"Velocity":62,"Duration":268944,"SoundDuration":268944,"Delta":310418177},{"NoteNumber":74,"Velocity":69,"Duration":1565095,"SoundDuration":1565095,"Delta":310701276},{"NoteNumber":86,"Velocity":82,"Duration":1565095,"SoundDuration":1565095,"Delta":310701276},{"NoteNumber":46,"Velocity":74,"Duration":529477,"SoundDuration":529477,"Delta":310701276},{"NoteNumber":34,"Velocity":62,"Duration":529477,"SoundDuration":529477,"Delta":310701276},{"NoteNumber":82,"Velocity":61,"Duration":236573,"SoundDuration":236573,"Delta":310981729},{"NoteNumber":77,"Velocity":61,"Duration":236573,"SoundDuration":236573,"Delta":310981729},{"NoteNumber":77,"Velocity":61,"Duration":236573,"SoundDuration":236573,"Delta":311230753},{"NoteNumber":82,"Velocity":61,"Duration":236573,"SoundDuration":236573,"Delta":311230753},{"NoteNumber":53,"Velocity":54,"Duration":498049,"SoundDuration":498049,"Delta":311479778},{"NoteNumber":62,"Velocity":64,"Duration":498049,"SoundDuration":498049,"Delta":311479778},{"NoteNumber":58,"Velocity":54,"Duration":498049,"SoundDuration":498049,"Delta":311479778},{"NoteNumber":77,"Velocity":59,"Duration":236573,"SoundDuration":236573,"Delta":311728802},{"NoteNumber":82,"Velocity":59,"Duration":236573,"SoundDuration":236573,"Delta":311728802},{"NoteNumber":82,"Velocity":59,"Duration":274117,"SoundDuration":274117,"Delta":311977827},{"NoteNumber":77,"Velocity":59,"Duration":274117,"SoundDuration":274117,"Delta":311977827},{"NoteNumber":72,"Velocity":68,"Duration":1586330,"SoundDuration":1586330,"Delta":312266372},{"NoteNumber":84,"Velocity":81,"Duration":1586330,"SoundDuration":1586330,"Delta":312266372},{"NoteNumber":41,"Velocity":62,"Duration":522358,"SoundDuration":522358,"Delta":312266372},{"NoteNumber":53,"Velocity":74,"Duration":522358,"SoundDuration":522358,"Delta":312266372},{"NoteNumber":77,"Velocity":60,"Duration":240567,"SoundDuration":240567,"Delta":312535502},{"NoteNumber":81,"Velocity":60,"Duration":240567,"SoundDuration":240567,"Delta":312535502},{"NoteNumber":77,"Velocity":60,"Duration":240567,"SoundDuration":240567,"Delta":312788731},{"NoteNumber":81,"Velocity":60,"Duration":240567,"SoundDuration":240567,"Delta":312788731},{"NoteNumber":57,"Velocity":56,"Duration":520803,"SoundDuration":520803,"Delta":313041959},{"NoteNumber":53,"Velocity":56,"Duration":520803,"SoundDuration":520803,"Delta":313041959},{"NoteNumber":60,"Velocity":66,"Duration":520803,"SoundDuration":520803,"Delta":313041959},{"NoteNumber":81,"Velocity":62,"Duration":250065,"SoundDuration":250065,"Delta":313299536},{"NoteNumber":77,"Velocity":62,"Duration":250065,"SoundDuration":250065,"Delta":313299536},{"NoteNumber":81,"Velocity":62,"Duration":275442,"SoundDuration":275442,"Delta":313562763},{"NoteNumber":77,"Velocity":62,"Duration":275442,"SoundDuration":275442,"Delta":313562763},{"NoteNumber":86,"Velocity":88,"Duration":1584622,"SoundDuration":1584622,"Delta":313852702},{"NoteNumber":74,"Velocity":74,"Duration":1584622,"SoundDuration":1584622,"Delta":313852702},{"NoteNumber":46,"Velocity":74,"Duration":534997,"SoundDuration":534997,"Delta":313852702},{"NoteNumber":34,"Velocity":62,"Duration":534997,"SoundDuration":534997,"Delta":313852702},{"NoteNumber":77,"Velocity":65,"Duration":240567,"SoundDuration":240567,"Delta":314134472},{"NoteNumber":82,"Velocity":65,"Duration":240567,"SoundDuration":240567,"Delta":314134472},{"NoteNumber":77,"Velocity":66,"Duration":240567,"SoundDuration":240567,"Delta":314387700},{"NoteNumber":82,"Velocity":66,"Duration":240567,"SoundDuration":240567,"Delta":314387700},{"NoteNumber":53,"Velocity":56,"Duration":506457,"SoundDuration":506457,"Delta":314640929},{"NoteNumber":58,"Velocity":56,"Duration":506457,"SoundDuration":506457,"Delta":314640929},{"NoteNumber":62,"Velocity":67,"Duration":506457,"SoundDuration":506457,"Delta":314640929},{"NoteNumber":82,"Velocity":65,"Duration":240567,"SoundDuration":240567,"Delta":314894157},{"NoteNumber":77,"Velocity":65,"Duration":240567,"SoundDuration":240567,"Delta":314894157},{"NoteNumber":77,"Velocity":65,"Duration":275442,"SoundDuration":275442,"Delta":315147386},{"NoteNumber":82,"Velocity":65,"Duration":275442,"SoundDuration":275442,"Delta":315147386},{"NoteNumber":70,"Velocity":71,"Duration":1573655,"SoundDuration":1573655,"Delta":315437325},{"NoteNumber":82,"Velocity":84,"Duration":1573655,"SoundDuration":1573655,"Delta":315437325},{"NoteNumber":39,"Velocity":69,"Duration":534532,"SoundDuration":534532,"Delta":315437325},{"NoteNumber":51,"Velocity":82,"Duration":534532,"SoundDuration":534532,"Delta":315437325},{"NoteNumber":79,"Velocity":72,"Duration":242615,"SoundDuration":242615,"Delta":315716472},{"NoteNumber":75,"Velocity":72,"Duration":242615,"SoundDuration":242615,"Delta":315716472},{"NoteNumber":75,"Velocity":72,"Duration":238553,"SoundDuration":238553,"Delta":315971857},{"NoteNumber":79,"Velocity":72,"Duration":238553,"SoundDuration":238553,"Delta":315971857},{"NoteNumber":58,"Velocity":63,"Duration":502218,"SoundDuration":502218,"Delta":316222966},{"NoteNumber":55,"Velocity":63,"Duration":502218,"SoundDuration":502218,"Delta":316222966},{"NoteNumber":63,"Velocity":75,"Duration":502218,"SoundDuration":502218,"Delta":316222966},{"NoteNumber":79,"Velocity":71,"Duration":238553,"SoundDuration":238553,"Delta":316474075},{"NoteNumber":75,"Velocity":71,"Duration":238553,"SoundDuration":238553,"Delta":316474075},{"NoteNumber":79,"Velocity":71,"Duration":271506,"SoundDuration":271506,"Delta":316725184},{"NoteNumber":75,"Velocity":71,"Duration":271506,"SoundDuration":271506,"Delta":316725184},{"NoteNumber":72,"Velocity":73,"Duration":1594914,"SoundDuration":1594914,"Delta":317010980},{"NoteNumber":84,"Velocity":86,"Duration":1594914,"SoundDuration":1594914,"Delta":317010980},{"NoteNumber":56,"Velocity":82,"Duration":539575,"SoundDuration":539575,"Delta":317010980},{"NoteNumber":44,"Velocity":69,"Duration":539575,"SoundDuration":539575,"Delta":317010980},{"NoteNumber":80,"Velocity":72,"Duration":243652,"SoundDuration":243652,"Delta":317294079},{"NoteNumber":75,"Velocity":72,"Duration":243652,"SoundDuration":243652,"Delta":317294079},{"NoteNumber":75,"Velocity":72,"Duration":240567,"SoundDuration":240567,"Delta":317550555},{"NoteNumber":80,"Velocity":72,"Duration":240567,"SoundDuration":240567,"Delta":317550555},{"NoteNumber":60,"Velocity":63,"Duration":506457,"SoundDuration":506457,"Delta":317803783},{"NoteNumber":56,"Velocity":63,"Duration":506457,"SoundDuration":506457,"Delta":317803783},{"NoteNumber":63,"Velocity":75,"Duration":506457,"SoundDuration":506457,"Delta":317803783},{"NoteNumber":75,"Velocity":72,"Duration":240567,"SoundDuration":240567,"Delta":318057012},{"NoteNumber":80,"Velocity":72,"Duration":240567,"SoundDuration":240567,"Delta":318057012},{"NoteNumber":80,"Velocity":68,"Duration":280871,"SoundDuration":280871,"Delta":318310240},{"NoteNumber":75,"Velocity":68,"Duration":280871,"SoundDuration":280871,"Delta":318310240},{"NoteNumber":74,"Velocity":73,"Duration":1605846,"SoundDuration":1605846,"Delta":318605894},{"NoteNumber":86,"Velocity":87,"Duration":1605846,"SoundDuration":1605846,"Delta":318605894},{"NoteNumber":53,"Velocity":82,"Duration":536724,"SoundDuration":536724,"Delta":318605894},{"NoteNumber":41,"Velocity":69,"Duration":536724,"SoundDuration":536724,"Delta":318605894},{"NoteNumber":80,"Velocity":75,"Duration":244698,"SoundDuration":244698,"Delta":318885042},{"NoteNumber":77,"Velocity":75,"Duration":244698,"SoundDuration":244698,"Delta":318885042},{"NoteNumber":80,"Velocity":75,"Duration":241586,"SoundDuration":241586,"Delta":319142619},{"NoteNumber":77,"Velocity":75,"Duration":241586,"SoundDuration":241586,"Delta":319142619},{"NoteNumber":58,"Velocity":61,"Duration":508603,"SoundDuration":508603,"Delta":319396921},{"NoteNumber":56,"Velocity":61,"Duration":508603,"SoundDuration":508603,"Delta":319396921},{"NoteNumber":53,"Velocity":61,"Duration":508603,"SoundDuration":508603,"Delta":319396921},{"NoteNumber":62,"Velocity":72,"Duration":508603,"SoundDuration":508603,"Delta":319396921},{"NoteNumber":77,"Velocity":68,"Duration":241586,"SoundDuration":241586,"Delta":319651223},{"NoteNumber":80,"Velocity":68,"Duration":241586,"SoundDuration":241586,"Delta":319651223},{"NoteNumber":80,"Velocity":74,"Duration":290905,"SoundDuration":290905,"Delta":319905525},{"NoteNumber":77,"Velocity":74,"Duration":290905,"SoundDuration":290905,"Delta":319905525},{"NoteNumber":87,"Velocity":90,"Duration":820128,"SoundDuration":820128,"Delta":320211741},{"NoteNumber":75,"Velocity":76,"Duration":820128,"SoundDuration":820128,"Delta":320211741},{"NoteNumber":51,"Velocity":93,"Duration":547326,"SoundDuration":547326,"Delta":320211741},{"NoteNumber":39,"Velocity":79,"Duration":547326,"SoundDuration":547326,"Delta":320211741},{"NoteNumber":82,"Velocity":77,"Duration":252279,"SoundDuration":252279,"Delta":320493510},{"NoteNumber":79,"Velocity":77,"Duration":252279,"SoundDuration":252279,"Delta":320493510},{"NoteNumber":82,"Velocity":77,"Duration":259161,"SoundDuration":259161,"Delta":320759067},{"NoteNumber":79,"Velocity":77,"Duration":259161,"SoundDuration":259161,"Delta":320759067},{"NoteNumber":39,"Velocity":58,"Duration":96061,"SoundDuration":96061,"Delta":321031869},{"NoteNumber":46,"Velocity":52,"Duration":96061,"SoundDuration":96061,"Delta":321127930},{"NoteNumber":51,"Velocity":52,"Duration":96061,"SoundDuration":96061,"Delta":321223992},{"NoteNumber":55,"Velocity":58,"Duration":91658,"SoundDuration":91658,"Delta":321320053},{"NoteNumber":58,"Velocity":52,"Duration":91658,"SoundDuration":91658,"Delta":321411712},{"NoteNumber":63,"Velocity":52,"Duration":91658,"SoundDuration":91658,"Delta":321503371},{"NoteNumber":67,"Velocity":70,"Duration":90380,"SoundDuration":90380,"Delta":321595030},{"NoteNumber":70,"Velocity":66,"Duration":89346,"SoundDuration":89346,"Delta":321685411},{"NoteNumber":75,"Velocity":66,"Duration":88574,"SoundDuration":88574,"Delta":321774757},{"NoteNumber":70,"Velocity":75,"Duration":87917,"SoundDuration":87917,"Delta":321863331},{"NoteNumber":67,"Velocity":73,"Duration":87118,"SoundDuration":87118,"Delta":321951249},{"NoteNumber":70,"Velocity":70,"Duration":86515,"SoundDuration":86515,"Delta":322038367},{"NoteNumber":75,"Velocity":84,"Duration":85745,"SoundDuration":85745,"Delta":322124883},{"NoteNumber":79,"Velocity":80,"Duration":85161,"SoundDuration":85161,"Delta":322210628},{"NoteNumber":82,"Velocity":80,"Duration":85255,"SoundDuration":85255,"Delta":322295790},{"NoteNumber":87,"Velocity":100,"Duration":90555,"SoundDuration":90555,"Delta":322381046},{"NoteNumber":91,"Velocity":87,"Duration":97545,"SoundDuration":97545,"Delta":322471601},{"NoteNumber":94,"Velocity":95,"Duration":105627,"SoundDuration":105627,"Delta":322569147},{"NoteNumber":99,"Velocity":100,"Duration":1487357,"SoundDuration":1487357,"Delta":322674774},{"NoteNumber":87,"Velocity":85,"Duration":1582462,"SoundDuration":1582462,"Delta":324162132},{"NoteNumber":75,"Velocity":72,"Duration":1582462,"SoundDuration":1582462,"Delta":324162132},{"NoteNumber":48,"Velocity":62,"Duration":530515,"SoundDuration":530515,"Delta":324162132},{"NoteNumber":60,"Velocity":74,"Duration":530515,"SoundDuration":530515,"Delta":324162132},{"NoteNumber":84,"Velocity":62,"Duration":237559,"SoundDuration":237559,"Delta":324442584},{"NoteNumber":79,"Velocity":62,"Duration":237559,"SoundDuration":237559,"Delta":324442584},{"NoteNumber":79,"Velocity":62,"Duration":237559,"SoundDuration":237559,"Delta":324692647},{"NoteNumber":84,"Velocity":62,"Duration":237559,"SoundDuration":237559,"Delta":324692647},{"NoteNumber":55,"Velocity":53,"Duration":518785,"SoundDuration":518785,"Delta":324942709},{"NoteNumber":60,"Velocity":53,"Duration":518785,"SoundDuration":518785,"Delta":324942709},{"NoteNumber":63,"Velocity":63,"Duration":518785,"SoundDuration":518785,"Delta":324942709},{"NoteNumber":84,"Velocity":62,"Duration":240567,"SoundDuration":240567,"Delta":325208266},{"NoteNumber":79,"Velocity":62,"Duration":240567,"SoundDuration":240567,"Delta":325208266},{"NoteNumber":79,"Velocity":62,"Duration":268944,"SoundDuration":268944,"Delta":325461495},{"NoteNumber":84,"Velocity":62,"Duration":268944,"SoundDuration":268944,"Delta":325461495},{"NoteNumber":75,"Velocity":74,"Duration":1565095,"SoundDuration":1565095,"Delta":325744594},{"NoteNumber":87,"Velocity":87,"Duration":1565095,"SoundDuration":1565095,"Delta":325744594},{"NoteNumber":44,"Velocity":62,"Duration":529477,"SoundDuration":529477,"Delta":325744594},{"NoteNumber":56,"Velocity":74,"Duration":529477,"SoundDuration":529477,"Delta":325744594},{"NoteNumber":84,"Velocity":67,"Duration":236573,"SoundDuration":236573,"Delta":326025046},{"NoteNumber":80,"Velocity":67,"Duration":236573,"SoundDuration":236573,"Delta":326025046},{"NoteNumber":84,"Velocity":67,"Duration":236573,"SoundDuration":236573,"Delta":326274071},{"NoteNumber":80,"Velocity":67,"Duration":236573,"SoundDuration":236573,"Delta":326274071},{"NoteNumber":56,"Velocity":54,"Duration":498049,"SoundDuration":498049,"Delta":326523095},{"NoteNumber":63,"Velocity":64,"Duration":498049,"SoundDuration":498049,"Delta":326523095},{"NoteNumber":60,"Velocity":54,"Duration":498049,"SoundDuration":498049,"Delta":326523095},{"NoteNumber":80,"Velocity":64,"Duration":236573,"SoundDuration":236573,"Delta":326772120},{"NoteNumber":84,"Velocity":64,"Duration":236573,"SoundDuration":236573,"Delta":326772120},{"NoteNumber":80,"Velocity":64,"Duration":274117,"SoundDuration":274117,"Delta":327021144},{"NoteNumber":84,"Velocity":64,"Duration":274117,"SoundDuration":274117,"Delta":327021144},{"NoteNumber":82,"Velocity":81,"Duration":1586330,"SoundDuration":1586330,"Delta":327309689},{"NoteNumber":70,"Velocity":68,"Duration":1586330,"SoundDuration":1586330,"Delta":327309689},{"NoteNumber":43,"Velocity":62,"Duration":522358,"SoundDuration":522358,"Delta":327309689},{"NoteNumber":55,"Velocity":74,"Duration":522358,"SoundDuration":522358,"Delta":327309689},{"NoteNumber":75,"Velocity":60,"Duration":240567,"SoundDuration":240567,"Delta":327578820},{"NoteNumber":79,"Velocity":64,"Duration":240567,"SoundDuration":240567,"Delta":327578820},{"NoteNumber":79,"Velocity":64,"Duration":240567,"SoundDuration":240567,"Delta":327832048},{"NoteNumber":75,"Velocity":60,"Duration":240567,"SoundDuration":240567,"Delta":327832048},{"NoteNumber":55,"Velocity":56,"Duration":520803,"SoundDuration":520803,"Delta":328085277},{"NoteNumber":63,"Velocity":66,"Duration":520803,"SoundDuration":520803,"Delta":328085277},{"NoteNumber":58,"Velocity":56,"Duration":520803,"SoundDuration":520803,"Delta":328085277},{"NoteNumber":79,"Velocity":65,"Duration":250065,"SoundDuration":250065,"Delta":328342854},{"NoteNumber":75,"Velocity":62,"Duration":250065,"SoundDuration":250065,"Delta":328342854},{"NoteNumber":75,"Velocity":62,"Duration":275442,"SoundDuration":275442,"Delta":328606081},{"NoteNumber":79,"Velocity":65,"Duration":275442,"SoundDuration":275442,"Delta":328606081},{"NoteNumber":70,"Velocity":74,"Duration":1584622,"SoundDuration":1584622,"Delta":328896020},{"NoteNumber":82,"Velocity":88,"Duration":1584622,"SoundDuration":1584622,"Delta":328896020},{"NoteNumber":34,"Velocity":62,"Duration":534997,"SoundDuration":534997,"Delta":328896020},{"NoteNumber":46,"Velocity":74,"Duration":534997,"SoundDuration":534997,"Delta":328896020},{"NoteNumber":77,"Velocity":65,"Duration":240567,"SoundDuration":240567,"Delta":329177789},{"NoteNumber":77,"Velocity":66,"Duration":240567,"SoundDuration":240567,"Delta":329431018},{"NoteNumber":53,"Velocity":56,"Duration":506457,"SoundDuration":506457,"Delta":329684246},{"NoteNumber":65,"Velocity":67,"Duration":506457,"SoundDuration":506457,"Delta":329684246},{"NoteNumber":58,"Velocity":56,"Duration":506457,"SoundDuration":506457,"Delta":329684246},{"NoteNumber":77,"Velocity":65,"Duration":240567,"SoundDuration":240567,"Delta":329937475},{"NoteNumber":77,"Velocity":65,"Duration":275442,"SoundDuration":275442,"Delta":330190703},{"NoteNumber":67,"Velocity":71,"Duration":1573655,"SoundDuration":1573655,"Delta":330480642},{"NoteNumber":79,"Velocity":84,"Duration":1573655,"SoundDuration":1573655,"Delta":330480642},{"NoteNumber":39,"Velocity":69,"Duration":534532,"SoundDuration":534532,"Delta":330480642},{"NoteNumber":51,"Velocity":82,"Duration":534532,"SoundDuration":534532,"Delta":330480642},{"NoteNumber":75,"Velocity":64,"Duration":242615,"SoundDuration":242615,"Delta":330759790},{"NoteNumber":70,"Velocity":64,"Duration":242615,"SoundDuration":242615,"Delta":330759790},{"NoteNumber":75,"Velocity":64,"Duration":238553,"SoundDuration":238553,"Delta":331015174},{"NoteNumber":70,"Velocity":64,"Duration":238553,"SoundDuration":238553,"Delta":331015174},{"NoteNumber":58,"Velocity":63,"Duration":502218,"SoundDuration":502218,"Delta":331266283},{"NoteNumber":55,"Velocity":63,"Duration":502218,"SoundDuration":502218,"Delta":331266283},{"NoteNumber":63,"Velocity":75,"Duration":502218,"SoundDuration":502218,"Delta":331266283},{"NoteNumber":70,"Velocity":63,"Duration":238553,"SoundDuration":238553,"Delta":331517392},{"NoteNumber":75,"Velocity":63,"Duration":238553,"SoundDuration":238553,"Delta":331517392},{"NoteNumber":70,"Velocity":63,"Duration":271506,"SoundDuration":271506,"Delta":331768501},{"NoteNumber":75,"Velocity":63,"Duration":271506,"SoundDuration":271506,"Delta":331768501},{"NoteNumber":82,"Velocity":86,"Duration":1594914,"SoundDuration":1594914,"Delta":332054297},{"NoteNumber":70,"Velocity":73,"Duration":1594914,"SoundDuration":1594914,"Delta":332054297},{"NoteNumber":52,"Velocity":82,"Duration":539575,"SoundDuration":539575,"Delta":332054297},{"NoteNumber":40,"Velocity":69,"Duration":539575,"SoundDuration":539575,"Delta":332054297},{"NoteNumber":79,"Velocity":72,"Duration":243652,"SoundDuration":243652,"Delta":332337396},{"NoteNumber":73,"Velocity":72,"Duration":243652,"SoundDuration":243652,"Delta":332337396},{"NoteNumber":79,"Velocity":72,"Duration":240567,"SoundDuration":240567,"Delta":332593872},{"NoteNumber":73,"Velocity":72,"Duration":240567,"SoundDuration":240567,"Delta":332593872},{"NoteNumber":52,"Velocity":63,"Duration":506457,"SoundDuration":506457,"Delta":332847101},{"NoteNumber":61,"Velocity":75,"Duration":506457,"SoundDuration":506457,"Delta":332847101},{"NoteNumber":58,"Velocity":63,"Duration":506457,"SoundDuration":506457,"Delta":332847101},{"NoteNumber":73,"Velocity":72,"Duration":240567,"SoundDuration":240567,"Delta":333100329},{"NoteNumber":79,"Velocity":72,"Duration":240567,"SoundDuration":240567,"Delta":333100329},{"NoteNumber":79,"Velocity":68,"Duration":280871,"SoundDuration":280871,"Delta":333353558},{"NoteNumber":73,"Velocity":68,"Duration":280871,"SoundDuration":280871,"Delta":333353558},{"NoteNumber":80,"Velocity":87,"Duration":1605846,"SoundDuration":1605846,"Delta":333649212},{"NoteNumber":68,"Velocity":73,"Duration":1605846,"SoundDuration":1605846,"Delta":333649212},{"NoteNumber":53,"Velocity":82,"Duration":536724,"SoundDuration":536724,"Delta":333649212},{"NoteNumber":41,"Velocity":69,"Duration":1299630,"SoundDuration":1299630,"Delta":333649212},{"NoteNumber":72,"Velocity":75,"Duration":244698,"SoundDuration":244698,"Delta":333928359},{"NoteNumber":77,"Velocity":75,"Duration":244698,"SoundDuration":244698,"Delta":333928359},{"NoteNumber":77,"Velocity":75,"Duration":241586,"SoundDuration":241586,"Delta":334185936},{"NoteNumber":72,"Velocity":75,"Duration":241586,"SoundDuration":241586,"Delta":334185936},{"NoteNumber":60,"Velocity":72,"Duration":508603,"SoundDuration":508603,"Delta":334440238},{"NoteNumber":53,"Velocity":61,"Duration":508603,"SoundDuration":508603,"Delta":334440238},{"NoteNumber":56,"Velocity":61,"Duration":508603,"SoundDuration":508603,"Delta":334440238},{"NoteNumber":72,"Velocity":68,"Duration":254301,"SoundDuration":254301,"Delta":334694540},{"NoteNumber":77,"Velocity":68,"Duration":254301,"SoundDuration":254301,"Delta":334694540},{"NoteNumber":34,"Velocity":74,"Duration":306216,"SoundDuration":306216,"Delta":334948842},{"NoteNumber":46,"Velocity":74,"Duration":306216,"SoundDuration":306216,"Delta":334948842},{"NoteNumber":79,"Velocity":90,"Duration":820128,"SoundDuration":820128,"Delta":335255058},{"NoteNumber":67,"Velocity":76,"Duration":820128,"SoundDuration":820128,"Delta":335255058},{"NoteNumber":48,"Velocity":93,"Duration":547326,"SoundDuration":547326,"Delta":335255058},{"NoteNumber":36,"Velocity":79,"Duration":547326,"SoundDuration":547326,"Delta":335255058},{"NoteNumber":72,"Velocity":77,"Duration":252279,"SoundDuration":252279,"Delta":335536828},{"NoteNumber":75,"Velocity":77,"Duration":252279,"SoundDuration":252279,"Delta":335536828},{"NoteNumber":72,"Velocity":77,"Duration":259161,"SoundDuration":259161,"Delta":335802385},{"NoteNumber":75,"Velocity":77,"Duration":259161,"SoundDuration":259161,"Delta":335802385},{"NoteNumber":36,"Velocity":58,"Duration":96061,"SoundDuration":96061,"Delta":336075186},{"NoteNumber":48,"Velocity":52,"Duration":96061,"SoundDuration":96061,"Delta":336171248},{"NoteNumber":51,"Velocity":52,"Duration":96061,"SoundDuration":96061,"Delta":336267309},{"NoteNumber":55,"Velocity":58,"Duration":91658,"SoundDuration":91658,"Delta":336363371},{"NoteNumber":60,"Velocity":52,"Duration":91658,"SoundDuration":91658,"Delta":336455030},{"NoteNumber":63,"Velocity":52,"Duration":91658,"SoundDuration":91658,"Delta":336546689},{"NoteNumber":67,"Velocity":75,"Duration":90380,"SoundDuration":90380,"Delta":336638348},{"NoteNumber":72,"Velocity":66,"Duration":89346,"SoundDuration":89346,"Delta":336728729},{"NoteNumber":75,"Velocity":66,"Duration":88574,"SoundDuration":88574,"Delta":336818075},{"NoteNumber":72,"Velocity":81,"Duration":87917,"SoundDuration":87917,"Delta":336906649},{"NoteNumber":67,"Velocity":76,"Duration":87118,"SoundDuration":87118,"Delta":336994567},{"NoteNumber":72,"Velocity":76,"Duration":86515,"SoundDuration":86515,"Delta":337081685},{"NoteNumber":75,"Velocity":87,"Duration":85745,"SoundDuration":85745,"Delta":337168200},{"NoteNumber":79,"Velocity":85,"Duration":85161,"SoundDuration":85161,"Delta":337253946},{"NoteNumber":84,"Velocity":85,"Duration":85255,"SoundDuration":85255,"Delta":337339107},{"NoteNumber":87,"Velocity":86,"Duration":67325,"SoundDuration":67325,"Delta":337424363},{"NoteNumber":91,"Velocity":89,"Duration":71016,"SoundDuration":71016,"Delta":337491689},{"NoteNumber":96,"Velocity":92,"Duration":75315,"SoundDuration":75315,"Delta":337562705},{"NoteNumber":99,"Velocity":95,"Duration":80071,"SoundDuration":80071,"Delta":337638021},{"NoteNumber":103,"Velocity":98,"Duration":1487357,"SoundDuration":1487357,"Delta":337718092},{"NoteNumber":79,"Velocity":85,"Duration":1582462,"SoundDuration":1582462,"Delta":339205450},{"NoteNumber":67,"Velocity":72,"Duration":1582462,"SoundDuration":1582462,"Delta":339205450},{"NoteNumber":36,"Velocity":62,"Duration":530515,"SoundDuration":530515,"Delta":339205450},{"NoteNumber":48,"Velocity":74,"Duration":530515,"SoundDuration":530515,"Delta":339205450},{"NoteNumber":72,"Velocity":62,"Duration":237559,"SoundDuration":237559,"Delta":339485902},{"NoteNumber":75,"Velocity":62,"Duration":237559,"SoundDuration":237559,"Delta":339485902},{"NoteNumber":75,"Velocity":62,"Duration":237559,"SoundDuration":237559,"Delta":339735965},{"NoteNumber":72,"Velocity":62,"Duration":237559,"SoundDuration":237559,"Delta":339735965},{"NoteNumber":55,"Velocity":53,"Duration":518785,"SoundDuration":518785,"Delta":339986027},{"NoteNumber":60,"Velocity":53,"Duration":518785,"SoundDuration":518785,"Delta":339986027},{"NoteNumber":63,"Velocity":63,"Duration":518785,"SoundDuration":518785,"Delta":339986027},{"NoteNumber":72,"Velocity":62,"Duration":240567,"SoundDuration":240567,"Delta":340251584},{"NoteNumber":75,"Velocity":62,"Duration":240567,"SoundDuration":240567,"Delta":340251584},{"NoteNumber":75,"Velocity":62,"Duration":268944,"SoundDuration":268944,"Delta":340504813},{"NoteNumber":72,"Velocity":62,"Duration":268944,"SoundDuration":268944,"Delta":340504813},{"NoteNumber":72,"Velocity":69,"Duration":1565095,"SoundDuration":1565095,"Delta":340787912},{"NoteNumber":84,"Velocity":83,"Duration":1565095,"SoundDuration":1565095,"Delta":340787912},{"NoteNumber":44,"Velocity":62,"Duration":529477,"SoundDuration":529477,"Delta":340787912},{"NoteNumber":56,"Velocity":74,"Duration":529477,"SoundDuration":529477,"Delta":340787912},{"NoteNumber":75,"Velocity":61,"Duration":236573,"SoundDuration":236573,"Delta":341068364},{"NoteNumber":80,"Velocity":61,"Duration":236573,"SoundDuration":236573,"Delta":341068364},{"NoteNumber":80,"Velocity":61,"Duration":236573,"SoundDuration":236573,"Delta":341317389},{"NoteNumber":75,"Velocity":61,"Duration":236573,"SoundDuration":236573,"Delta":341317389},{"NoteNumber":56,"Velocity":54,"Duration":498049,"SoundDuration":498049,"Delta":341566413},{"NoteNumber":60,"Velocity":54,"Duration":498049,"SoundDuration":498049,"Delta":341566413},{"NoteNumber":63,"Velocity":64,"Duration":498049,"SoundDuration":498049,"Delta":341566413},{"NoteNumber":80,"Velocity":59,"Duration":236573,"SoundDuration":236573,"Delta":341815438},{"NoteNumber":75,"Velocity":59,"Duration":236573,"SoundDuration":236573,"Delta":341815438},{"NoteNumber":80,"Velocity":59,"Duration":274117,"SoundDuration":274117,"Delta":342064462},{"NoteNumber":75,"Velocity":59,"Duration":274117,"SoundDuration":274117,"Delta":342064462},{"NoteNumber":84,"Velocity":89,"Duration":1586330,"SoundDuration":1586330,"Delta":342353007},{"NoteNumber":72,"Velocity":74,"Duration":1586330,"SoundDuration":1586330,"Delta":342353007},{"NoteNumber":56,"Velocity":81,"Duration":522358,"SoundDuration":522358,"Delta":342353007},{"NoteNumber":44,"Velocity":68,"Duration":522358,"SoundDuration":522358,"Delta":342353007},{"NoteNumber":77,"Velocity":66,"Duration":240567,"SoundDuration":240567,"Delta":342622138},{"NoteNumber":74,"Velocity":66,"Duration":240567,"SoundDuration":240567,"Delta":342622138},{"NoteNumber":74,"Velocity":66,"Duration":240567,"SoundDuration":240567,"Delta":342875366},{"NoteNumber":77,"Velocity":66,"Duration":240567,"SoundDuration":240567,"Delta":342875366},{"NoteNumber":58,"Velocity":61,"Duration":520803,"SoundDuration":520803,"Delta":343128595},{"NoteNumber":56,"Velocity":61,"Duration":520803,"SoundDuration":520803,"Delta":343128595},{"NoteNumber":62,"Velocity":61,"Duration":520803,"SoundDuration":520803,"Delta":343128595},{"NoteNumber":65,"Velocity":72,"Duration":520803,"SoundDuration":520803,"Delta":343128595},{"NoteNumber":77,"Velocity":68,"Duration":250065,"SoundDuration":250065,"Delta":343386172},{"NoteNumber":74,"Velocity":68,"Duration":250065,"SoundDuration":250065,"Delta":343386172},{"NoteNumber":74,"Velocity":68,"Duration":275442,"SoundDuration":275442,"Delta":343649399},{"NoteNumber":77,"Velocity":68,"Duration":275442,"SoundDuration":275442,"Delta":343649399},{"NoteNumber":70,"Velocity":74,"Duration":1584622,"SoundDuration":1584622,"Delta":343939338},{"NoteNumber":82,"Velocity":88,"Duration":1584622,"SoundDuration":1584622,"Delta":343939338},{"NoteNumber":43,"Velocity":62,"Duration":534997,"SoundDuration":534997,"Delta":343939338},{"NoteNumber":55,"Velocity":74,"Duration":534997,"SoundDuration":534997,"Delta":343939338},{"NoteNumber":79,"Velocity":65,"Duration":240567,"SoundDuration":240567,"Delta":344221107},{"NoteNumber":75,"Velocity":65,"Duration":240567,"SoundDuration":240567,"Delta":344221107},{"NoteNumber":79,"Velocity":66,"Duration":240567,"SoundDuration":240567,"Delta":344474336},{"NoteNumber":75,"Velocity":66,"Duration":240567,"SoundDuration":240567,"Delta":344474336},{"NoteNumber":63,"Velocity":67,"Duration":506457,"SoundDuration":506457,"Delta":344727564},{"NoteNumber":55,"Velocity":56,"Duration":506457,"SoundDuration":506457,"Delta":344727564},{"NoteNumber":58,"Velocity":56,"Duration":506457,"SoundDuration":506457,"Delta":344727564},{"NoteNumber":75,"Velocity":65,"Duration":240567,"SoundDuration":240567,"Delta":344980793},{"NoteNumber":79,"Velocity":65,"Duration":240567,"SoundDuration":240567,"Delta":344980793},{"NoteNumber":79,"Velocity":65,"Duration":275442,"SoundDuration":275442,"Delta":345234021},{"NoteNumber":75,"Velocity":65,"Duration":275442,"SoundDuration":275442,"Delta":345234021},{"NoteNumber":74,"Velocity":75,"Duration":1573655,"SoundDuration":1573655,"Delta":345523960},{"NoteNumber":86,"Velocity":87,"Duration":1573655,"SoundDuration":1573655,"Delta":345523960},{"NoteNumber":47,"Velocity":82,"Duration":534532,"SoundDuration":534532,"Delta":345523960},{"NoteNumber":35,"Velocity":69,"Duration":534532,"SoundDuration":534532,"Delta":345523960},{"NoteNumber":80,"Velocity":72,"Duration":242615,"SoundDuration":242615,"Delta":345803108},{"NoteNumber":77,"Velocity":72,"Duration":242615,"SoundDuration":242615,"Delta":345803108},{"NoteNumber":77,"Velocity":72,"Duration":238553,"SoundDuration":238553,"Delta":346058492},{"NoteNumber":80,"Velocity":72,"Duration":238553,"SoundDuration":238553,"Delta":346058492},{"NoteNumber":53,"Velocity":63,"Duration":502218,"SoundDuration":502218,"Delta":346309601},{"NoteNumber":62,"Velocity":75,"Duration":502218,"SoundDuration":502218,"Delta":346309601},{"NoteNumber":56,"Velocity":63,"Duration":502218,"SoundDuration":502218,"Delta":346309601},{"NoteNumber":80,"Velocity":71,"Duration":238553,"SoundDuration":238553,"Delta":346560710},{"NoteNumber":77,"Velocity":71,"Duration":238553,"SoundDuration":238553,"Delta":346560710},{"NoteNumber":80,"Velocity":71,"Duration":271506,"SoundDuration":271506,"Delta":346811819},{"NoteNumber":77,"Velocity":71,"Duration":271506,"SoundDuration":271506,"Delta":346811819},{"NoteNumber":87,"Velocity":96,"Duration":1594914,"SoundDuration":1594914,"Delta":347097615},{"NoteNumber":75,"Velocity":81,"Duration":1594914,"SoundDuration":1594914,"Delta":347097615},{"NoteNumber":48,"Velocity":82,"Duration":539575,"SoundDuration":539575,"Delta":347097615},{"NoteNumber":36,"Velocity":69,"Duration":539575,"SoundDuration":539575,"Delta":347097615},{"NoteNumber":79,"Velocity":72,"Duration":243652,"SoundDuration":243652,"Delta":347380714},{"NoteNumber":84,"Velocity":72,"Duration":243652,"SoundDuration":243652,"Delta":347380714},{"NoteNumber":84,"Velocity":72,"Duration":240567,"SoundDuration":240567,"Delta":347637190},{"NoteNumber":79,"Velocity":72,"Duration":240567,"SoundDuration":240567,"Delta":347637190},{"NoteNumber":60,"Velocity":63,"Duration":506457,"SoundDuration":506457,"Delta":347890419},{"NoteNumber":55,"Velocity":63,"Duration":506457,"SoundDuration":506457,"Delta":347890419},{"NoteNumber":63,"Velocity":75,"Duration":506457,"SoundDuration":506457,"Delta":347890419},{"NoteNumber":79,"Velocity":72,"Duration":240567,"SoundDuration":240567,"Delta":348143647},{"NoteNumber":84,"Velocity":72,"Duration":240567,"SoundDuration":240567,"Delta":348143647},{"NoteNumber":79,"Velocity":68,"Duration":280871,"SoundDuration":280871,"Delta":348396876},{"NoteNumber":84,"Velocity":68,"Duration":280871,"SoundDuration":280871,"Delta":348396876},{"NoteNumber":72,"Velocity":73,"Duration":1605846,"SoundDuration":1605846,"Delta":348692530},{"NoteNumber":84,"Velocity":87,"Duration":1605846,"SoundDuration":1605846,"Delta":348692530},{"NoteNumber":53,"Velocity":82,"Duration":536724,"SoundDuration":536724,"Delta":348692530},{"NoteNumber":41,"Velocity":69,"Duration":536724,"SoundDuration":536724,"Delta":348692530},{"NoteNumber":81,"Velocity":75,"Duration":244698,"SoundDuration":244698,"Delta":348971677},{"NoteNumber":75,"Velocity":75,"Duration":244698,"SoundDuration":244698,"Delta":348971677},{"NoteNumber":81,"Velocity":75,"Duration":241586,"SoundDuration":241586,"Delta":349229254},{"NoteNumber":75,"Velocity":75,"Duration":241586,"SoundDuration":241586,"Delta":349229254},{"NoteNumber":63,"Velocity":72,"Duration":508603,"SoundDuration":508603,"Delta":349483556},{"NoteNumber":53,"Velocity":61,"Duration":508603,"SoundDuration":508603,"Delta":349483556},{"NoteNumber":57,"Velocity":61,"Duration":508603,"SoundDuration":508603,"Delta":349483556},{"NoteNumber":75,"Velocity":68,"Duration":241586,"SoundDuration":241586,"Delta":349737858},{"NoteNumber":81,"Velocity":68,"Duration":241586,"SoundDuration":241586,"Delta":349737858},{"NoteNumber":81,"Velocity":74,"Duration":290905,"SoundDuration":290905,"Delta":349992160},{"NoteNumber":75,"Velocity":74,"Duration":290905,"SoundDuration":290905,"Delta":349992160},{"NoteNumber":70,"Velocity":76,"Duration":820128,"SoundDuration":820128,"Delta":350298376},{"NoteNumber":82,"Velocity":90,"Duration":820128,"SoundDuration":820128,"Delta":350298376},{"NoteNumber":34,"Velocity":79,"Duration":547326,"SoundDuration":547326,"Delta":350298376},{"NoteNumber":46,"Velocity":93,"Duration":547326,"SoundDuration":547326,"Delta":350298376},{"NoteNumber":74,"Velocity":77,"Duration":252279,"SoundDuration":252279,"Delta":350580146},{"NoteNumber":77,"Velocity":77,"Duration":252279,"SoundDuration":252279,"Delta":350580146},{"NoteNumber":74,"Velocity":77,"Duration":259161,"SoundDuration":259161,"Delta":350845703},{"NoteNumber":77,"Velocity":77,"Duration":259161,"SoundDuration":259161,"Delta":350845703},{"NoteNumber":46,"Velocity":60,"Duration":96061,"SoundDuration":96061,"Delta":351118504},{"NoteNumber":53,"Velocity":53,"Duration":96061,"SoundDuration":96061,"Delta":351214566},{"NoteNumber":58,"Velocity":53,"Duration":96061,"SoundDuration":96061,"Delta":351310627},{"NoteNumber":62,"Velocity":65,"Duration":91658,"SoundDuration":91658,"Delta":351406689},{"NoteNumber":65,"Velocity":59,"Duration":91658,"SoundDuration":91658,"Delta":351498348},{"NoteNumber":70,"Velocity":60,"Duration":91658,"SoundDuration":91658,"Delta":351590007},{"NoteNumber":74,"Velocity":70,"Duration":90380,"SoundDuration":90380,"Delta":351681666},{"NoteNumber":77,"Velocity":63,"Duration":89346,"SoundDuration":89346,"Delta":351772046},{"NoteNumber":82,"Velocity":65,"Duration":88574,"SoundDuration":88574,"Delta":351861392},{"NoteNumber":77,"Velocity":75,"Duration":87917,"SoundDuration":87917,"Delta":351949967},{"NoteNumber":74,"Velocity":69,"Duration":87118,"SoundDuration":87118,"Delta":352037885},{"NoteNumber":77,"Velocity":73,"Duration":86574,"SoundDuration":86574,"Delta":352125003},{"NoteNumber":82,"Velocity":81,"Duration":91945,"SoundDuration":91945,"Delta":352211577},{"NoteNumber":86,"Velocity":86,"Duration":102049,"SoundDuration":102049,"Delta":352303523},{"NoteNumber":89,"Velocity":92,"Duration":111905,"SoundDuration":111905,"Delta":352405573},{"NoteNumber":94,"Velocity":103,"Duration":964629,"SoundDuration":964629,"Delta":352517478},{"NoteNumber":75,"Velocity":75,"Duration":1582462,"SoundDuration":1582462,"Delta":353482108},{"NoteNumber":87,"Velocity":89,"Duration":1582462,"SoundDuration":1582462,"Delta":353482108},{"NoteNumber":60,"Velocity":77,"Duration":530515,"SoundDuration":530515,"Delta":353482108},{"NoteNumber":48,"Velocity":65,"Duration":530515,"SoundDuration":530515,"Delta":353482108},{"NoteNumber":84,"Velocity":65,"Duration":237559,"SoundDuration":237559,"Delta":353762560},{"NoteNumber":79,"Velocity":65,"Duration":237559,"SoundDuration":237559,"Delta":353762560},{"NoteNumber":79,"Velocity":65,"Duration":237559,"SoundDuration":237559,"Delta":354012623},{"NoteNumber":84,"Velocity":65,"Duration":237559,"SoundDuration":237559,"Delta":354012623},{"NoteNumber":55,"Velocity":55,"Duration":518785,"SoundDuration":518785,"Delta":354262685},{"NoteNumber":60,"Velocity":55,"Duration":518785,"SoundDuration":518785,"Delta":354262685},{"NoteNumber":63,"Velocity":66,"Duration":518785,"SoundDuration":518785,"Delta":354262685},{"NoteNumber":79,"Velocity":65,"Duration":240567,"SoundDuration":240567,"Delta":354528242},{"NoteNumber":84,"Velocity":65,"Duration":240567,"SoundDuration":240567,"Delta":354528242},{"NoteNumber":79,"Velocity":65,"Duration":268944,"SoundDuration":268944,"Delta":354781471},{"NoteNumber":84,"Velocity":65,"Duration":268944,"SoundDuration":268944,"Delta":354781471},{"NoteNumber":86,"Velocity":91,"Duration":1565095,"SoundDuration":1565095,"Delta":355064570},{"NoteNumber":74,"Velocity":72,"Duration":1565095,"SoundDuration":1565095,"Delta":355064570},{"NoteNumber":55,"Velocity":77,"Duration":529477,"SoundDuration":529477,"Delta":355064570},{"NoteNumber":43,"Velocity":65,"Duration":529477,"SoundDuration":529477,"Delta":355064570},{"NoteNumber":79,"Velocity":64,"Duration":236573,"SoundDuration":236573,"Delta":355345022},{"NoteNumber":82,"Velocity":64,"Duration":236573,"SoundDuration":236573,"Delta":355345022},{"NoteNumber":79,"Velocity":64,"Duration":236573,"SoundDuration":236573,"Delta":355594047},{"NoteNumber":82,"Velocity":64,"Duration":236573,"SoundDuration":236573,"Delta":355594047},{"NoteNumber":55,"Velocity":56,"Duration":498049,"SoundDuration":498049,"Delta":355843071},{"NoteNumber":62,"Velocity":67,"Duration":498049,"SoundDuration":498049,"Delta":355843071},{"NoteNumber":58,"Velocity":56,"Duration":498049,"SoundDuration":498049,"Delta":355843071},{"NoteNumber":79,"Velocity":61,"Duration":236573,"SoundDuration":236573,"Delta":356092096},{"NoteNumber":82,"Velocity":61,"Duration":236573,"SoundDuration":236573,"Delta":356092096},{"NoteNumber":79,"Velocity":61,"Duration":274117,"SoundDuration":274117,"Delta":356341120},{"NoteNumber":82,"Velocity":61,"Duration":274117,"SoundDuration":274117,"Delta":356341120},{"NoteNumber":72,"Velocity":71,"Duration":1586330,"SoundDuration":1586330,"Delta":356629665},{"NoteNumber":84,"Velocity":85,"Duration":1586330,"SoundDuration":1586330,"Delta":356629665},{"NoteNumber":56,"Velocity":77,"Duration":522358,"SoundDuration":522358,"Delta":356629665},{"NoteNumber":44,"Velocity":65,"Duration":522358,"SoundDuration":522358,"Delta":356629665},{"NoteNumber":80,"Velocity":63,"Duration":240567,"SoundDuration":240567,"Delta":356898796},{"NoteNumber":75,"Velocity":63,"Duration":240567,"SoundDuration":240567,"Delta":356898796},{"NoteNumber":75,"Velocity":63,"Duration":240567,"SoundDuration":240567,"Delta":357152024},{"NoteNumber":80,"Velocity":63,"Duration":240567,"SoundDuration":240567,"Delta":357152024},{"NoteNumber":56,"Velocity":58,"Duration":520803,"SoundDuration":520803,"Delta":357405253},{"NoteNumber":53,"Velocity":58,"Duration":520803,"SoundDuration":520803,"Delta":357405253},{"NoteNumber":60,"Velocity":69,"Duration":520803,"SoundDuration":520803,"Delta":357405253},{"NoteNumber":75,"Velocity":65,"Duration":250065,"SoundDuration":250065,"Delta":357662830},{"NoteNumber":80,"Velocity":65,"Duration":250065,"SoundDuration":250065,"Delta":357662830},{"NoteNumber":75,"Velocity":65,"Duration":275442,"SoundDuration":275442,"Delta":357926057},{"NoteNumber":80,"Velocity":65,"Duration":275442,"SoundDuration":275442,"Delta":357926057},{"NoteNumber":70,"Velocity":74,"Duration":1584622,"SoundDuration":1584622,"Delta":358215996},{"NoteNumber":82,"Velocity":88,"Duration":1584622,"SoundDuration":1584622,"Delta":358215996},{"NoteNumber":51,"Velocity":74,"Duration":534997,"SoundDuration":534997,"Delta":358215996},{"NoteNumber":39,"Velocity":62,"Duration":534997,"SoundDuration":534997,"Delta":358215996},{"NoteNumber":75,"Velocity":68,"Duration":240567,"SoundDuration":240567,"Delta":358497765},{"NoteNumber":79,"Velocity":68,"Duration":240567,"SoundDuration":240567,"Delta":358497765},{"NoteNumber":79,"Velocity":66,"Duration":240567,"SoundDuration":240567,"Delta":358750994},{"NoteNumber":75,"Velocity":66,"Duration":240567,"SoundDuration":240567,"Delta":358750994},{"NoteNumber":58,"Velocity":56,"Duration":506457,"SoundDuration":506457,"Delta":359004222},{"NoteNumber":55,"Velocity":56,"Duration":506457,"SoundDuration":506457,"Delta":359004222},{"NoteNumber":63,"Velocity":67,"Duration":506457,"SoundDuration":506457,"Delta":359004222},{"NoteNumber":75,"Velocity":65,"Duration":240567,"SoundDuration":240567,"Delta":359257451},{"NoteNumber":79,"Velocity":65,"Duration":240567,"SoundDuration":240567,"Delta":359257451},{"NoteNumber":75,"Velocity":65,"Duration":275442,"SoundDuration":275442,"Delta":359510679},{"NoteNumber":79,"Velocity":65,"Duration":275442,"SoundDuration":275442,"Delta":359510679},{"NoteNumber":67,"Velocity":71,"Duration":1573655,"SoundDuration":1573655,"Delta":359800618},{"NoteNumber":79,"Velocity":84,"Duration":1573655,"SoundDuration":1573655,"Delta":359800618},{"NoteNumber":40,"Velocity":69,"Duration":534532,"SoundDuration":534532,"Delta":359800618},{"NoteNumber":52,"Velocity":82,"Duration":534532,"SoundDuration":534532,"Delta":359800618},{"NoteNumber":70,"Velocity":68,"Duration":242615,"SoundDuration":242615,"Delta":360079766},{"NoteNumber":73,"Velocity":68,"Duration":242615,"SoundDuration":242615,"Delta":360079766},{"NoteNumber":73,"Velocity":68,"Duration":238553,"SoundDuration":238553,"Delta":360335150},{"NoteNumber":70,"Velocity":68,"Duration":238553,"SoundDuration":238553,"Delta":360335150},{"NoteNumber":58,"Velocity":63,"Duration":502218,"SoundDuration":502218,"Delta":360586259},{"NoteNumber":61,"Velocity":75,"Duration":502218,"SoundDuration":502218,"Delta":360586259},{"NoteNumber":52,"Velocity":63,"Duration":502218,"SoundDuration":502218,"Delta":360586259},{"NoteNumber":70,"Velocity":67,"Duration":238553,"SoundDuration":238553,"Delta":360837368},{"NoteNumber":73,"Velocity":67,"Duration":238553,"SoundDuration":238553,"Delta":360837368},{"NoteNumber":73,"Velocity":67,"Duration":285796,"SoundDuration":285796,"Delta":361088477},{"NoteNumber":70,"Velocity":67,"Duration":285796,"SoundDuration":285796,"Delta":361088477},{"NoteNumber":80,"Velocity":86,"Duration":792803,"SoundDuration":792803,"Delta":361374273},{"NoteNumber":68,"Velocity":73,"Duration":792803,"SoundDuration":792803,"Delta":361374273},{"NoteNumber":53,"Velocity":82,"Duration":792803,"SoundDuration":792803,"Delta":361374273},{"NoteNumber":41,"Velocity":69,"Duration":792803,"SoundDuration":792803,"Delta":361374273},{"NoteNumber":72,"Velocity":68,"Duration":243652,"SoundDuration":243652,"Delta":361657372},{"NoteNumber":77,"Velocity":68,"Duration":243652,"SoundDuration":243652,"Delta":361657372},{"NoteNumber":72,"Velocity":70,"Duration":240567,"SoundDuration":240567,"Delta":361913848},{"NoteNumber":77,"Velocity":70,"Duration":240567,"SoundDuration":240567,"Delta":361913848},{"NoteNumber":67,"Velocity":76,"Duration":807748,"SoundDuration":807748,"Delta":362167077},{"NoteNumber":79,"Velocity":90,"Duration":807748,"SoundDuration":807748,"Delta":362167077},{"NoteNumber":43,"Velocity":72,"Duration":807748,"SoundDuration":807748,"Delta":362167077},{"NoteNumber":55,"Velocity":86,"Duration":807748,"SoundDuration":807748,"Delta":362167077},{"NoteNumber":75,"Velocity":72,"Duration":239094,"SoundDuration":239094,"Delta":362427493},{"NoteNumber":70,"Velocity":72,"Duration":239094,"SoundDuration":239094,"Delta":362427493},{"NoteNumber":70,"Velocity":69,"Duration":280871,"SoundDuration":280871,"Delta":362679171},{"NoteNumber":75,"Velocity":69,"Duration":280871,"SoundDuration":280871,"Delta":362679171},{"NoteNumber":65,"Velocity":77,"Duration":1605846,"SoundDuration":1605846,"Delta":362974825},{"NoteNumber":77,"Velocity":90,"Duration":1605846,"SoundDuration":1605846,"Delta":362974825},{"NoteNumber":58,"Velocity":86,"Duration":1204267,"SoundDuration":1204267,"Delta":362974825},{"NoteNumber":46,"Velocity":73,"Duration":1605846,"SoundDuration":1605846,"Delta":362974825},{"NoteNumber":70,"Velocity":68,"Duration":244698,"SoundDuration":244698,"Delta":363253973},{"NoteNumber":75,"Velocity":81,"Duration":244698,"SoundDuration":244698,"Delta":363253973},{"NoteNumber":70,"Velocity":68,"Duration":241586,"SoundDuration":241586,"Delta":363511550},{"NoteNumber":75,"Velocity":81,"Duration":241586,"SoundDuration":241586,"Delta":363511550},{"NoteNumber":63,"Velocity":79,"Duration":413240,"SoundDuration":413240,"Delta":363765852},{"NoteNumber":58,"Velocity":67,"Duration":814819,"SoundDuration":814819,"Delta":363765852},{"NoteNumber":75,"Velocity":79,"Duration":241586,"SoundDuration":241586,"Delta":364020154},{"NoteNumber":70,"Velocity":67,"Duration":241586,"SoundDuration":241586,"Delta":364020154},{"NoteNumber":70,"Velocity":68,"Duration":290905,"SoundDuration":290905,"Delta":364274456},{"NoteNumber":75,"Velocity":80,"Duration":290905,"SoundDuration":290905,"Delta":364274456},{"NoteNumber":46,"Velocity":51,"Duration":1753363,"SoundDuration":1753363,"Delta":364465841},{"NoteNumber":53,"Velocity":55,"Duration":1715086,"SoundDuration":1715086,"Delta":364504118},{"NoteNumber":56,"Velocity":57,"Duration":1676809,"SoundDuration":1676809,"Delta":364542395},{"NoteNumber":65,"Velocity":73,"Duration":1365730,"SoundDuration":1365730,"Delta":364580672},{"NoteNumber":68,"Velocity":73,"Duration":1365730,"SoundDuration":1365730,"Delta":364580672},{"NoteNumber":74,"Velocity":73,"Duration":1365730,"SoundDuration":1365730,"Delta":364580672},{"NoteNumber":77,"Velocity":87,"Duration":1365730,"SoundDuration":1365730,"Delta":364580672},{"NoteNumber":62,"Velocity":61,"Duration":1638532,"SoundDuration":1638532,"Delta":364580672},{"NoteNumber":75,"Velocity":80,"Duration":259161,"SoundDuration":259161,"Delta":365946403},{"NoteNumber":63,"Velocity":72,"Duration":545603,"SoundDuration":545603,"Delta":366219204},{"NoteNumber":67,"Velocity":72,"Duration":545603,"SoundDuration":545603,"Delta":366219204},{"NoteNumber":75,"Velocity":72,"Duration":545603,"SoundDuration":545603,"Delta":366219204},{"NoteNumber":51,"Velocity":72,"Duration":259161,"SoundDuration":259161,"Delta":366219204},{"NoteNumber":39,"Velocity":61,"Duration":259161,"SoundDuration":259161,"Delta":366219204},{"NoteNumber":55,"Velocity":46,"Duration":259161,"SoundDuration":259161,"Delta":366492006},{"NoteNumber":58,"Velocity":55,"Duration":259161,"SoundDuration":259161,"Delta":366492006},{"NoteNumber":51,"Velocity":46,"Duration":259161,"SoundDuration":259161,"Delta":366492006},{"NoteNumber":58,"Velocity":56,"Duration":259161,"SoundDuration":259161,"Delta":366764807},{"NoteNumber":55,"Velocity":47,"Duration":259161,"SoundDuration":259161,"Delta":366764807},{"NoteNumber":51,"Velocity":47,"Duration":259161,"SoundDuration":259161,"Delta":366764807},{"NoteNumber":63,"Velocity":65,"Duration":132544,"SoundDuration":132544,"Delta":367037488},{"NoteNumber":51,"Velocity":44,"Duration":251112,"SoundDuration":251112,"Delta":367037488},{"NoteNumber":58,"Velocity":52,"Duration":251112,"SoundDuration":251112,"Delta":367037488},{"NoteNumber":55,"Velocity":44,"Duration":251112,"SoundDuration":251112,"Delta":367037488},{"NoteNumber":67,"Velocity":68,"Duration":131672,"SoundDuration":131672,"Delta":367170032},{"NoteNumber":70,"Velocity":70,"Duration":130753,"SoundDuration":130753,"Delta":367301705},{"NoteNumber":51,"Velocity":38,"Duration":247658,"SoundDuration":247658,"Delta":367301705},{"NoteNumber":58,"Velocity":45,"Duration":247658,"SoundDuration":247658,"Delta":367301705},{"NoteNumber":55,"Velocity":38,"Duration":247658,"SoundDuration":247658,"Delta":367301705},{"NoteNumber":75,"Velocity":73,"Duration":129839,"SoundDuration":129839,"Delta":367432458},{"NoteNumber":79,"Velocity":75,"Duration":135783,"SoundDuration":135783,"Delta":367562297},{"NoteNumber":51,"Velocity":38,"Duration":257988,"SoundDuration":257988,"Delta":367562297},{"NoteNumber":58,"Velocity":45,"Duration":257988,"SoundDuration":257988,"Delta":367562297},{"NoteNumber":55,"Velocity":38,"Duration":257988,"SoundDuration":257988,"Delta":367562297},{"NoteNumber":82,"Velocity":78,"Duration":135783,"SoundDuration":135783,"Delta":367698081},{"NoteNumber":87,"Velocity":89,"Duration":264386,"SoundDuration":264386,"Delta":367833864},{"NoteNumber":55,"Velocity":44,"Duration":251167,"SoundDuration":251167,"Delta":367833864},{"NoteNumber":51,"Velocity":44,"Duration":251167,"SoundDuration":251167,"Delta":367833864},{"NoteNumber":58,"Velocity":52,"Duration":251167,"SoundDuration":251167,"Delta":367833864},{"NoteNumber":55,"Velocity":37,"Duration":251167,"SoundDuration":251167,"Delta":368098251},{"NoteNumber":51,"Velocity":37,"Duration":251167,"SoundDuration":251167,"Delta":368098251},{"NoteNumber":58,"Velocity":43,"Duration":251167,"SoundDuration":251167,"Delta":368098251},{"NoteNumber":55,"Velocity":38,"Duration":251167,"SoundDuration":251167,"Delta":368362638},{"NoteNumber":51,"Velocity":38,"Duration":251167,"SoundDuration":251167,"Delta":368362638},{"NoteNumber":58,"Velocity":44,"Duration":251167,"SoundDuration":251167,"Delta":368362638},{"NoteNumber":51,"Velocity":41,"Duration":251167,"SoundDuration":251167,"Delta":368627025},{"NoteNumber":55,"Velocity":41,"Duration":251167,"SoundDuration":251167,"Delta":368627025},{"NoteNumber":58,"Velocity":49,"Duration":251167,"SoundDuration":251167,"Delta":368627025},{"NoteNumber":51,"Velocity":38,"Duration":251167,"SoundDuration":251167,"Delta":368891412},{"NoteNumber":58,"Velocity":47,"Duration":251167,"SoundDuration":251167,"Delta":368891412},{"NoteNumber":55,"Velocity":38,"Duration":251167,"SoundDuration":251167,"Delta":368891412},{"NoteNumber":63,"Velocity":69,"Duration":265190,"SoundDuration":265190,"Delta":369155799},{"NoteNumber":75,"Velocity":74,"Duration":265190,"SoundDuration":265190,"Delta":369155799},{"NoteNumber":55,"Velocity":42,"Duration":265190,"SoundDuration":265190,"Delta":369155799},{"NoteNumber":58,"Velocity":50,"Duration":265190,"SoundDuration":265190,"Delta":369155799},{"NoteNumber":51,"Velocity":42,"Duration":265190,"SoundDuration":265190,"Delta":369155799},{"NoteNumber":70,"Velocity":63,"Duration":814562,"SoundDuration":814562,"Delta":369434947},{"NoteNumber":67,"Velocity":63,"Duration":814562,"SoundDuration":814562,"Delta":369434947},{"NoteNumber":63,"Velocity":63,"Duration":814562,"SoundDuration":814562,"Delta":369434947},{"NoteNumber":75,"Velocity":74,"Duration":814562,"SoundDuration":814562,"Delta":369434947},{"NoteNumber":37,"Velocity":63,"Duration":257988,"SoundDuration":257988,"Delta":369434947},{"NoteNumber":49,"Velocity":74,"Duration":257988,"SoundDuration":257988,"Delta":369434947},{"NoteNumber":58,"Velocity":57,"Duration":257988,"SoundDuration":257988,"Delta":369706514},{"NoteNumber":49,"Velocity":48,"Duration":257988,"SoundDuration":257988,"Delta":369706514},{"NoteNumber":55,"Velocity":48,"Duration":257988,"SoundDuration":257988,"Delta":369706514},{"NoteNumber":51,"Velocity":48,"Duration":257988,"SoundDuration":257988,"Delta":369706514},{"NoteNumber":51,"Velocity":49,"Duration":257988,"SoundDuration":257988,"Delta":369978081},{"NoteNumber":55,"Velocity":49,"Duration":257988,"SoundDuration":257988,"Delta":369978081},{"NoteNumber":49,"Velocity":49,"Duration":257988,"SoundDuration":257988,"Delta":369978081},{"NoteNumber":58,"Velocity":58,"Duration":257988,"SoundDuration":257988,"Delta":369978081},{"NoteNumber":63,"Velocity":67,"Duration":131613,"SoundDuration":131613,"Delta":370249509},{"NoteNumber":51,"Velocity":45,"Duration":249682,"SoundDuration":249682,"Delta":370249509},{"NoteNumber":49,"Velocity":45,"Duration":249682,"SoundDuration":249682,"Delta":370249509},{"NoteNumber":58,"Velocity":54,"Duration":249682,"SoundDuration":249682,"Delta":370249509},{"NoteNumber":55,"Velocity":45,"Duration":249682,"SoundDuration":249682,"Delta":370249509},{"NoteNumber":67,"Velocity":65,"Duration":131172,"SoundDuration":131172,"Delta":370381122},{"NoteNumber":70,"Velocity":74,"Duration":130753,"SoundDuration":130753,"Delta":370512295},{"NoteNumber":55,"Velocity":40,"Duration":248095,"SoundDuration":248095,"Delta":370512295},{"NoteNumber":49,"Velocity":40,"Duration":248095,"SoundDuration":248095,"Delta":370512295},{"NoteNumber":58,"Velocity":47,"Duration":248095,"SoundDuration":248095,"Delta":370512295},{"NoteNumber":51,"Velocity":40,"Duration":248095,"SoundDuration":248095,"Delta":370512295},{"NoteNumber":75,"Velocity":77,"Duration":130332,"SoundDuration":130332,"Delta":370643049},{"NoteNumber":79,"Velocity":79,"Duration":137023,"SoundDuration":137023,"Delta":370773381},{"NoteNumber":49,"Velocity":40,"Duration":260345,"SoundDuration":260345,"Delta":370773381},{"NoteNumber":58,"Velocity":47,"Duration":260345,"SoundDuration":260345,"Delta":370773381},{"NoteNumber":55,"Velocity":40,"Duration":260345,"SoundDuration":260345,"Delta":370773381},{"NoteNumber":51,"Velocity":40,"Duration":260345,"SoundDuration":260345,"Delta":370773381},{"NoteNumber":82,"Velocity":78,"Duration":137023,"SoundDuration":137023,"Delta":370910405},{"NoteNumber":87,"Velocity":92,"Duration":264386,"SoundDuration":264386,"Delta":371047429},{"NoteNumber":49,"Velocity":45,"Duration":251167,"SoundDuration":251167,"Delta":371047429},{"NoteNumber":58,"Velocity":54,"Duration":251167,"SoundDuration":251167,"Delta":371047429},{"NoteNumber":55,"Velocity":45,"Duration":251167,"SoundDuration":251167,"Delta":371047429},{"NoteNumber":51,"Velocity":45,"Duration":251167,"SoundDuration":251167,"Delta":371047429},{"NoteNumber":58,"Velocity":46,"Duration":251167,"SoundDuration":251167,"Delta":371311816},{"NoteNumber":51,"Velocity":38,"Duration":251167,"SoundDuration":251167,"Delta":371311816},{"NoteNumber":49,"Velocity":38,"Duration":251167,"SoundDuration":251167,"Delta":371311816},{"NoteNumber":55,"Velocity":38,"Duration":251167,"SoundDuration":251167,"Delta":371311816},{"NoteNumber":55,"Velocity":38,"Duration":247890,"SoundDuration":247890,"Delta":371576203},{"NoteNumber":49,"Velocity":38,"Duration":247890,"SoundDuration":247890,"Delta":371576203},{"NoteNumber":58,"Velocity":46,"Duration":247890,"SoundDuration":247890,"Delta":371576203},{"NoteNumber":51,"Velocity":38,"Duration":247890,"SoundDuration":247890,"Delta":371576203},{"NoteNumber":49,"Velocity":42,"Duration":248973,"SoundDuration":248973,"Delta":371837140},{"NoteNumber":51,"Velocity":42,"Duration":248973,"SoundDuration":248973,"Delta":371837140},{"NoteNumber":58,"Velocity":51,"Duration":248973,"SoundDuration":248973,"Delta":371837140},{"NoteNumber":55,"Velocity":42,"Duration":248973,"SoundDuration":248973,"Delta":371837140},{"NoteNumber":55,"Velocity":40,"Duration":252279,"SoundDuration":252279,"Delta":372099218},{"NoteNumber":58,"Velocity":49,"Duration":252279,"SoundDuration":252279,"Delta":372099218},{"NoteNumber":49,"Velocity":40,"Duration":252279,"SoundDuration":252279,"Delta":372099218},{"NoteNumber":51,"Velocity":40,"Duration":252279,"SoundDuration":252279,"Delta":372099218},{"NoteNumber":75,"Velocity":76,"Duration":271506,"SoundDuration":271506,"Delta":372364775},{"NoteNumber":63,"Velocity":72,"Duration":271506,"SoundDuration":271506,"Delta":372364775},{"NoteNumber":55,"Velocity":43,"Duration":271506,"SoundDuration":271506,"Delta":372364775},{"NoteNumber":51,"Velocity":43,"Duration":271506,"SoundDuration":271506,"Delta":372364775},{"NoteNumber":49,"Velocity":43,"Duration":271506,"SoundDuration":271506,"Delta":372364775},{"NoteNumber":58,"Velocity":52,"Duration":271506,"SoundDuration":271506,"Delta":372364775},{"NoteNumber":75,"Velocity":76,"Duration":810854,"SoundDuration":810854,"Delta":372650571},{"NoteNumber":63,"Velocity":65,"Duration":810854,"SoundDuration":810854,"Delta":372650571},{"NoteNumber":68,"Velocity":65,"Duration":810854,"SoundDuration":810854,"Delta":372650571},{"NoteNumber":36,"Velocity":65,"Duration":256826,"SoundDuration":256826,"Delta":372650571},{"NoteNumber":48,"Velocity":76,"Duration":256826,"SoundDuration":256826,"Delta":372650571},{"NoteNumber":48,"Velocity":49,"Duration":256826,"SoundDuration":256826,"Delta":372920914},{"NoteNumber":56,"Velocity":49,"Duration":256826,"SoundDuration":256826,"Delta":372920914},{"NoteNumber":51,"Velocity":49,"Duration":256826,"SoundDuration":256826,"Delta":372920914},{"NoteNumber":60,"Velocity":59,"Duration":256826,"SoundDuration":256826,"Delta":372920914},{"NoteNumber":51,"Velocity":51,"Duration":256826,"SoundDuration":256826,"Delta":373191258},{"NoteNumber":60,"Velocity":61,"Duration":256826,"SoundDuration":256826,"Delta":373191258},{"NoteNumber":48,"Velocity":51,"Duration":256826,"SoundDuration":256826,"Delta":373191258},{"NoteNumber":56,"Velocity":51,"Duration":256826,"SoundDuration":256826,"Delta":373191258},{"NoteNumber":63,"Velocity":73,"Duration":129679,"SoundDuration":129679,"Delta":373461426},{"NoteNumber":56,"Velocity":47,"Duration":245700,"SoundDuration":245700,"Delta":373461426},{"NoteNumber":48,"Velocity":47,"Duration":245700,"SoundDuration":245700,"Delta":373461426},{"NoteNumber":60,"Velocity":56,"Duration":245700,"SoundDuration":245700,"Delta":373461426},{"NoteNumber":51,"Velocity":47,"Duration":245700,"SoundDuration":245700,"Delta":373461426},{"NoteNumber":68,"Velocity":76,"Duration":128844,"SoundDuration":128844,"Delta":373591105},{"NoteNumber":72,"Velocity":79,"Duration":127965,"SoundDuration":127965,"Delta":373719950},{"NoteNumber":60,"Velocity":49,"Duration":242392,"SoundDuration":242392,"Delta":373719950},{"NoteNumber":51,"Velocity":41,"Duration":242392,"SoundDuration":242392,"Delta":373719950},{"NoteNumber":56,"Velocity":41,"Duration":242392,"SoundDuration":242392,"Delta":373719950},{"NoteNumber":48,"Velocity":41,"Duration":242392,"SoundDuration":242392,"Delta":373719950},{"NoteNumber":75,"Velocity":80,"Duration":127088,"SoundDuration":127088,"Delta":373847915},{"NoteNumber":80,"Velocity":86,"Duration":137023,"SoundDuration":137023,"Delta":373975004},{"NoteNumber":51,"Velocity":42,"Duration":260345,"SoundDuration":260345,"Delta":373975004},{"NoteNumber":48,"Velocity":42,"Duration":260345,"SoundDuration":260345,"Delta":373975004},{"NoteNumber":60,"Velocity":49,"Duration":260345,"SoundDuration":260345,"Delta":373975004},{"NoteNumber":56,"Velocity":42,"Duration":260345,"SoundDuration":260345,"Delta":373975004},{"NoteNumber":84,"Velocity":85,"Duration":137023,"SoundDuration":137023,"Delta":374112028},{"NoteNumber":87,"Velocity":97,"Duration":271567,"SoundDuration":271567,"Delta":374249052},{"NoteNumber":51,"Velocity":46,"Duration":257988,"SoundDuration":257988,"Delta":374249052},{"NoteNumber":60,"Velocity":55,"Duration":257988,"SoundDuration":257988,"Delta":374249052},{"NoteNumber":56,"Velocity":46,"Duration":257988,"SoundDuration":257988,"Delta":374249052},{"NoteNumber":48,"Velocity":46,"Duration":257988,"SoundDuration":257988,"Delta":374249052},{"NoteNumber":48,"Velocity":40,"Duration":251167,"SoundDuration":251167,"Delta":374520619},{"NoteNumber":56,"Velocity":40,"Duration":251167,"SoundDuration":251167,"Delta":374520619},{"NoteNumber":60,"Velocity":47,"Duration":251167,"SoundDuration":251167,"Delta":374520619},{"NoteNumber":51,"Velocity":40,"Duration":251167,"SoundDuration":251167,"Delta":374520619},{"NoteNumber":51,"Velocity":40,"Duration":248973,"SoundDuration":248973,"Delta":374785006},{"NoteNumber":56,"Velocity":40,"Duration":248973,"SoundDuration":248973,"Delta":374785006},{"NoteNumber":48,"Velocity":40,"Duration":248973,"SoundDuration":248973,"Delta":374785006},{"NoteNumber":60,"Velocity":47,"Duration":248973,"SoundDuration":248973,"Delta":374785006},{"NoteNumber":51,"Velocity":44,"Duration":252279,"SoundDuration":252279,"Delta":375047083},{"NoteNumber":60,"Velocity":53,"Duration":252279,"SoundDuration":252279,"Delta":375047083},{"NoteNumber":56,"Velocity":44,"Duration":252279,"SoundDuration":252279,"Delta":375047083},{"NoteNumber":48,"Velocity":44,"Duration":252279,"SoundDuration":252279,"Delta":375047083},{"NoteNumber":48,"Velocity":42,"Duration":254532,"SoundDuration":254532,"Delta":375312640},{"NoteNumber":60,"Velocity":51,"Duration":254532,"SoundDuration":254532,"Delta":375312640},{"NoteNumber":56,"Velocity":42,"Duration":254532,"SoundDuration":254532,"Delta":375312640},{"NoteNumber":51,"Velocity":42,"Duration":254532,"SoundDuration":254532,"Delta":375312640},{"NoteNumber":63,"Velocity":74,"Duration":276779,"SoundDuration":276779,"Delta":375580569},{"NoteNumber":75,"Velocity":79,"Duration":276779,"SoundDuration":276779,"Delta":375580569},{"NoteNumber":51,"Velocity":45,"Duration":276779,"SoundDuration":276779,"Delta":375580569},{"NoteNumber":48,"Velocity":45,"Duration":276779,"SoundDuration":276779,"Delta":375580569},{"NoteNumber":60,"Velocity":54,"Duration":276779,"SoundDuration":276779,"Delta":375580569},{"NoteNumber":56,"Velocity":45,"Duration":276779,"SoundDuration":276779,"Delta":375580569},{"NoteNumber":77,"Velocity":80,"Duration":814523,"SoundDuration":814523,"Delta":375871916},{"NoteNumber":75,"Velocity":68,"Duration":814523,"SoundDuration":814523,"Delta":375871916},{"NoteNumber":68,"Velocity":68,"Duration":814523,"SoundDuration":814523,"Delta":375871916},{"NoteNumber":71,"Velocity":68,"Duration":814523,"SoundDuration":814523,"Delta":375871916},{"NoteNumber":44,"Velocity":80,"Duration":257988,"SoundDuration":257988,"Delta":375871916},{"NoteNumber":32,"Velocity":68,"Duration":257988,"SoundDuration":257988,"Delta":375871916},{"NoteNumber":56,"Velocity":52,"Duration":257988,"SoundDuration":257988,"Delta":376143483},{"NoteNumber":51,"Velocity":52,"Duration":257988,"SoundDuration":257988,"Delta":376143483},{"NoteNumber":59,"Velocity":62,"Duration":257988,"SoundDuration":257988,"Delta":376143483},{"NoteNumber":51,"Velocity":53,"Duration":257988,"SoundDuration":257988,"Delta":376415050},{"NoteNumber":56,"Velocity":53,"Duration":257988,"SoundDuration":257988,"Delta":376415050},{"NoteNumber":59,"Velocity":63,"Duration":257988,"SoundDuration":257988,"Delta":376415050},{"NoteNumber":65,"Velocity":75,"Duration":130242,"SoundDuration":130242,"Delta":376686440},{"NoteNumber":51,"Velocity":49,"Duration":246648,"SoundDuration":246648,"Delta":376686440},{"NoteNumber":56,"Velocity":49,"Duration":246648,"SoundDuration":246648,"Delta":376686440},{"NoteNumber":59,"Velocity":58,"Duration":246648,"SoundDuration":246648,"Delta":376686440},{"NoteNumber":71,"Velocity":73,"Duration":129284,"SoundDuration":129284,"Delta":376816683},{"NoteNumber":75,"Velocity":82,"Duration":128234,"SoundDuration":128234,"Delta":376945967},{"NoteNumber":51,"Velocity":43,"Duration":242779,"SoundDuration":242779,"Delta":376945967},{"NoteNumber":59,"Velocity":51,"Duration":242779,"SoundDuration":242779,"Delta":376945967},{"NoteNumber":56,"Velocity":43,"Duration":242779,"SoundDuration":242779,"Delta":376945967},{"NoteNumber":77,"Velocity":79,"Duration":127206,"SoundDuration":127206,"Delta":377074202},{"NoteNumber":83,"Velocity":88,"Duration":138927,"SoundDuration":138927,"Delta":377201408},{"NoteNumber":51,"Velocity":43,"Duration":263962,"SoundDuration":263962,"Delta":377201408},{"NoteNumber":59,"Velocity":51,"Duration":263962,"SoundDuration":263962,"Delta":377201408},{"NoteNumber":56,"Velocity":43,"Duration":263962,"SoundDuration":263962,"Delta":377201408},{"NoteNumber":87,"Velocity":88,"Duration":138927,"SoundDuration":138927,"Delta":377340336},{"NoteNumber":89,"Velocity":99,"Duration":270343,"SoundDuration":270343,"Delta":377479263},{"NoteNumber":56,"Velocity":48,"Duration":256826,"SoundDuration":256826,"Delta":377479263},{"NoteNumber":59,"Velocity":57,"Duration":256826,"SoundDuration":256826,"Delta":377479263},{"NoteNumber":51,"Velocity":48,"Duration":256826,"SoundDuration":256826,"Delta":377479263},{"NoteNumber":56,"Velocity":41,"Duration":253401,"SoundDuration":253401,"Delta":377749607},{"NoteNumber":51,"Velocity":41,"Duration":253401,"SoundDuration":253401,"Delta":377749607},{"NoteNumber":59,"Velocity":49,"Duration":253401,"SoundDuration":253401,"Delta":377749607},{"NoteNumber":56,"Velocity":41,"Duration":250065,"SoundDuration":250065,"Delta":378016345},{"NoteNumber":59,"Velocity":49,"Duration":250065,"SoundDuration":250065,"Delta":378016345},{"NoteNumber":51,"Velocity":41,"Duration":250065,"SoundDuration":250065,"Delta":378016345},{"NoteNumber":56,"Velocity":45,"Duration":252279,"SoundDuration":252279,"Delta":378279572},{"NoteNumber":59,"Velocity":54,"Duration":252279,"SoundDuration":252279,"Delta":378279572},{"NoteNumber":51,"Velocity":45,"Duration":252279,"SoundDuration":252279,"Delta":378279572},{"NoteNumber":59,"Velocity":51,"Duration":254532,"SoundDuration":254532,"Delta":378545129},{"NoteNumber":51,"Velocity":42,"Duration":254532,"SoundDuration":254532,"Delta":378545129},{"NoteNumber":56,"Velocity":42,"Duration":254532,"SoundDuration":254532,"Delta":378545129},{"NoteNumber":65,"Velocity":75,"Duration":267681,"SoundDuration":267681,"Delta":378813058},{"NoteNumber":77,"Velocity":80,"Duration":267681,"SoundDuration":267681,"Delta":378813058},{"NoteNumber":51,"Velocity":45,"Duration":267681,"SoundDuration":267681,"Delta":378813058},{"NoteNumber":59,"Velocity":54,"Duration":267681,"SoundDuration":267681,"Delta":378813058},{"NoteNumber":56,"Velocity":45,"Duration":267681,"SoundDuration":267681,"Delta":378813058},{"NoteNumber":70,"Velocity":68,"Duration":812414,"SoundDuration":812414,"Delta":379094827},{"NoteNumber":79,"Velocity":80,"Duration":812414,"SoundDuration":812414,"Delta":379094827},{"NoteNumber":67,"Velocity":68,"Duration":812414,"SoundDuration":812414,"Delta":379094827},{"NoteNumber":75,"Velocity":68,"Duration":812414,"SoundDuration":812414,"Delta":379094827},{"NoteNumber":39,"Velocity":80,"Duration":259161,"SoundDuration":259161,"Delta":379094827},{"NoteNumber":27,"Velocity":68,"Duration":259161,"SoundDuration":259161,"Delta":379094827},{"NoteNumber":55,"Velocity":52,"Duration":259161,"SoundDuration":259161,"Delta":379367629},{"NoteNumber":63,"Velocity":62,"Duration":259161,"SoundDuration":259161,"Delta":379367629},{"NoteNumber":58,"Velocity":52,"Duration":259161,"SoundDuration":259161,"Delta":379367629},{"NoteNumber":51,"Velocity":52,"Duration":259161,"SoundDuration":259161,"Delta":379367629},{"NoteNumber":63,"Velocity":64,"Duration":253533,"SoundDuration":253533,"Delta":379640430},{"NoteNumber":51,"Velocity":54,"Duration":253533,"SoundDuration":253533,"Delta":379640430},{"NoteNumber":55,"Velocity":54,"Duration":253533,"SoundDuration":253533,"Delta":379640430},{"NoteNumber":58,"Velocity":54,"Duration":253533,"SoundDuration":253533,"Delta":379640430},{"NoteNumber":67,"Velocity":81,"Duration":132544,"SoundDuration":132544,"Delta":379907242},{"NoteNumber":63,"Velocity":66,"Duration":251499,"SoundDuration":251499,"Delta":379907242},{"NoteNumber":58,"Velocity":56,"Duration":251499,"SoundDuration":251499,"Delta":379907242},{"NoteNumber":51,"Velocity":56,"Duration":251499,"SoundDuration":251499,"Delta":379907242},{"NoteNumber":55,"Velocity":56,"Duration":251499,"SoundDuration":251499,"Delta":379907242},{"NoteNumber":70,"Velocity":70,"Duration":132116,"SoundDuration":132116,"Delta":380039786},{"NoteNumber":75,"Velocity":88,"Duration":131201,"SoundDuration":131201,"Delta":380171902},{"NoteNumber":63,"Velocity":58,"Duration":249337,"SoundDuration":249337,"Delta":380171902},{"NoteNumber":58,"Velocity":49,"Duration":249337,"SoundDuration":249337,"Delta":380171902},{"NoteNumber":51,"Velocity":49,"Duration":249337,"SoundDuration":249337,"Delta":380171902},{"NoteNumber":55,"Velocity":49,"Duration":249337,"SoundDuration":249337,"Delta":380171902},{"NoteNumber":79,"Velocity":83,"Duration":131297,"SoundDuration":131297,"Delta":380303104},{"NoteNumber":82,"Velocity":95,"Duration":131845,"SoundDuration":131845,"Delta":380434401},{"NoteNumber":63,"Velocity":59,"Duration":250961,"SoundDuration":250961,"Delta":380434401},{"NoteNumber":58,"Velocity":49,"Duration":250961,"SoundDuration":250961,"Delta":380434401},{"NoteNumber":51,"Velocity":49,"Duration":250961,"SoundDuration":250961,"Delta":380434401},{"NoteNumber":55,"Velocity":49,"Duration":250961,"SoundDuration":250961,"Delta":380434401},{"NoteNumber":87,"Velocity":87,"Duration":132393,"SoundDuration":132393,"Delta":380566247},{"NoteNumber":91,"Velocity":102,"Duration":135783,"SoundDuration":135783,"Delta":380698640},{"NoteNumber":51,"Velocity":56,"Duration":257988,"SoundDuration":257988,"Delta":380698640},{"NoteNumber":55,"Velocity":56,"Duration":257988,"SoundDuration":257988,"Delta":380698640},{"NoteNumber":58,"Velocity":67,"Duration":257988,"SoundDuration":257988,"Delta":380698640},{"NoteNumber":46,"Velocity":56,"Duration":257988,"SoundDuration":257988,"Delta":380698640},{"NoteNumber":87,"Velocity":81,"Duration":135783,"SoundDuration":135783,"Delta":380834424},{"NoteNumber":82,"Velocity":93,"Duration":132518,"SoundDuration":132518,"Delta":380970207},{"NoteNumber":58,"Velocity":61,"Duration":251492,"SoundDuration":251492,"Delta":380970207},{"NoteNumber":51,"Velocity":51,"Duration":251492,"SoundDuration":251492,"Delta":380970207},{"NoteNumber":55,"Velocity":51,"Duration":251492,"SoundDuration":251492,"Delta":380970207},{"NoteNumber":46,"Velocity":51,"Duration":251492,"SoundDuration":251492,"Delta":380970207},{"NoteNumber":79,"Velocity":87,"Duration":132193,"SoundDuration":132193,"Delta":381102725},{"NoteNumber":82,"Velocity":94,"Duration":132193,"SoundDuration":132193,"Delta":381234919},{"NoteNumber":51,"Velocity":51,"Duration":251167,"SoundDuration":251167,"Delta":381234919},{"NoteNumber":55,"Velocity":51,"Duration":251167,"SoundDuration":251167,"Delta":381234919},{"NoteNumber":58,"Velocity":61,"Duration":251167,"SoundDuration":251167,"Delta":381234919},{"NoteNumber":46,"Velocity":51,"Duration":251167,"SoundDuration":251167,"Delta":381234919},{"NoteNumber":87,"Velocity":89,"Duration":132193,"SoundDuration":132193,"Delta":381367112},{"NoteNumber":91,"Velocity":110,"Duration":131719,"SoundDuration":131719,"Delta":381499306},{"NoteNumber":51,"Velocity":57,"Duration":250698,"SoundDuration":250698,"Delta":381499306},{"NoteNumber":43,"Velocity":57,"Duration":250698,"SoundDuration":250698,"Delta":381499306},{"NoteNumber":46,"Velocity":57,"Duration":250698,"SoundDuration":250698,"Delta":381499306},{"NoteNumber":55,"Velocity":68,"Duration":250698,"SoundDuration":250698,"Delta":381499306},{"NoteNumber":87,"Velocity":85,"Duration":132256,"SoundDuration":132256,"Delta":381631026},{"NoteNumber":82,"Velocity":96,"Duration":132950,"SoundDuration":132950,"Delta":381763283},{"NoteNumber":55,"Velocity":65,"Duration":253315,"SoundDuration":253315,"Delta":381763283},{"NoteNumber":43,"Velocity":55,"Duration":253315,"SoundDuration":253315,"Delta":381763283},{"NoteNumber":46,"Velocity":55,"Duration":253315,"SoundDuration":253315,"Delta":381763283},{"NoteNumber":51,"Velocity":55,"Duration":253315,"SoundDuration":253315,"Delta":381763283},{"NoteNumber":79,"Velocity":86,"Duration":133761,"SoundDuration":133761,"Delta":381896233},{"NoteNumber":82,"Velocity":98,"Duration":139573,"SoundDuration":139573,"Delta":382029994},{"NoteNumber":55,"Velocity":66,"Duration":265190,"SoundDuration":265190,"Delta":382029994},{"NoteNumber":43,"Velocity":55,"Duration":265190,"SoundDuration":265190,"Delta":382029994},{"NoteNumber":46,"Velocity":55,"Duration":265190,"SoundDuration":265190,"Delta":382029994},{"NoteNumber":51,"Velocity":55,"Duration":265190,"SoundDuration":265190,"Delta":382029994},{"NoteNumber":87,"Velocity":84,"Duration":139573,"SoundDuration":139573,"Delta":382169568},{"NoteNumber":91,"Velocity":107,"Duration":269130,"SoundDuration":269130,"Delta":382309142},{"NoteNumber":46,"Velocity":74,"Duration":255673,"SoundDuration":255673,"Delta":382309142},{"NoteNumber":39,"Velocity":74,"Duration":255673,"SoundDuration":255673,"Delta":382309142},{"NoteNumber":51,"Velocity":88,"Duration":255673,"SoundDuration":255673,"Delta":382309142},{"NoteNumber":51,"Velocity":68,"Duration":255673,"SoundDuration":255673,"Delta":382578272},{"NoteNumber":46,"Velocity":57,"Duration":255673,"SoundDuration":255673,"Delta":382578272},{"NoteNumber":39,"Velocity":57,"Duration":255673,"SoundDuration":255673,"Delta":382578272},{"NoteNumber":39,"Velocity":58,"Duration":255673,"SoundDuration":255673,"Delta":382847403},{"NoteNumber":51,"Velocity":69,"Duration":255673,"SoundDuration":255673,"Delta":382847403},{"NoteNumber":46,"Velocity":58,"Duration":255673,"SoundDuration":255673,"Delta":382847403},{"NoteNumber":79,"Velocity":90,"Duration":132422,"SoundDuration":132422,"Delta":383116533},{"NoteNumber":46,"Velocity":60,"Duration":251130,"SoundDuration":251130,"Delta":383116533},{"NoteNumber":39,"Velocity":60,"Duration":251130,"SoundDuration":251130,"Delta":383116533},{"NoteNumber":51,"Velocity":71,"Duration":251130,"SoundDuration":251130,"Delta":383116533},{"NoteNumber":43,"Velocity":60,"Duration":251130,"SoundDuration":251130,"Delta":383116533},{"NoteNumber":82,"Velocity":87,"Duration":131869,"SoundDuration":131869,"Delta":383248956},{"NoteNumber":87,"Velocity":97,"Duration":131326,"SoundDuration":131326,"Delta":383380826},{"NoteNumber":43,"Velocity":53,"Duration":249061,"SoundDuration":249061,"Delta":383380826},{"NoteNumber":39,"Velocity":53,"Duration":249061,"SoundDuration":249061,"Delta":383380826},{"NoteNumber":51,"Velocity":63,"Duration":249061,"SoundDuration":249061,"Delta":383380826},{"NoteNumber":46,"Velocity":53,"Duration":249061,"SoundDuration":249061,"Delta":383380826},{"NoteNumber":91,"Velocity":91,"Duration":130782,"SoundDuration":130782,"Delta":383512152},{"NoteNumber":94,"Velocity":104,"Duration":130242,"SoundDuration":130242,"Delta":383642934},{"NoteNumber":46,"Velocity":53,"Duration":246899,"SoundDuration":246899,"Delta":383642934},{"NoteNumber":39,"Velocity":53,"Duration":246899,"SoundDuration":246899,"Delta":383642934},{"NoteNumber":51,"Velocity":63,"Duration":246899,"SoundDuration":246899,"Delta":383642934},{"NoteNumber":43,"Velocity":53,"Duration":246899,"SoundDuration":246899,"Delta":383642934},{"NoteNumber":99,"Velocity":100,"Duration":129591,"SoundDuration":129591,"Delta":383773177},{"NoteNumber":103,"Velocity":111,"Duration":129507,"SoundDuration":129507,"Delta":383902768},{"NoteNumber":34,"Velocity":59,"Duration":246500,"SoundDuration":246500,"Delta":383902768},{"NoteNumber":39,"Velocity":59,"Duration":246500,"SoundDuration":246500,"Delta":383902768},{"NoteNumber":46,"Velocity":71,"Duration":246500,"SoundDuration":246500,"Delta":383902768},{"NoteNumber":43,"Velocity":59,"Duration":246500,"SoundDuration":246500,"Delta":383902768},{"NoteNumber":99,"Velocity":97,"Duration":130040,"SoundDuration":130040,"Delta":384032275},{"NoteNumber":94,"Velocity":104,"Duration":130573,"SoundDuration":130573,"Delta":384162315},{"NoteNumber":46,"Velocity":64,"Duration":248128,"SoundDuration":248128,"Delta":384162315},{"NoteNumber":34,"Velocity":54,"Duration":248128,"SoundDuration":248128,"Delta":384162315},{"NoteNumber":39,"Velocity":54,"Duration":248128,"SoundDuration":248128,"Delta":384162315},{"NoteNumber":43,"Velocity":54,"Duration":248128,"SoundDuration":248128,"Delta":384162315},{"NoteNumber":91,"Velocity":99,"Duration":130601,"SoundDuration":130601,"Delta":384292889},{"NoteNumber":94,"Velocity":104,"Duration":130468,"SoundDuration":130468,"Delta":384423490},{"NoteNumber":43,"Velocity":54,"Duration":247452,"SoundDuration":247452,"Delta":384423490},{"NoteNumber":34,"Velocity":54,"Duration":247452,"SoundDuration":247452,"Delta":384423490},{"NoteNumber":39,"Velocity":54,"Duration":247452,"SoundDuration":247452,"Delta":384423490},{"NoteNumber":46,"Velocity":64,"Duration":247452,"SoundDuration":247452,"Delta":384423490},{"NoteNumber":99,"Velocity":95,"Duration":129974,"SoundDuration":129974,"Delta":384553959},{"NoteNumber":103,"Velocity":111,"Duration":129903,"SoundDuration":129903,"Delta":384683933},{"NoteNumber":43,"Velocity":71,"Duration":246345,"SoundDuration":246345,"Delta":384683933},{"NoteNumber":31,"Velocity":60,"Duration":246345,"SoundDuration":246345,"Delta":384683933},{"NoteNumber":34,"Velocity":60,"Duration":246345,"SoundDuration":246345,"Delta":384683933},{"NoteNumber":39,"Velocity":60,"Duration":246345,"SoundDuration":246345,"Delta":384683933},{"NoteNumber":99,"Velocity":96,"Duration":129432,"SoundDuration":129432,"Delta":384813837},{"NoteNumber":94,"Velocity":101,"Duration":130186,"SoundDuration":130186,"Delta":384943270},{"NoteNumber":43,"Velocity":68,"Duration":248131,"SoundDuration":248131,"Delta":384943270},{"NoteNumber":31,"Velocity":57,"Duration":248131,"SoundDuration":248131,"Delta":384943270},{"NoteNumber":34,"Velocity":57,"Duration":248131,"SoundDuration":248131,"Delta":384943270},{"NoteNumber":39,"Velocity":57,"Duration":248131,"SoundDuration":248131,"Delta":384943270},{"NoteNumber":91,"Velocity":97,"Duration":131106,"SoundDuration":131106,"Delta":385073456},{"NoteNumber":94,"Velocity":102,"Duration":142898,"SoundDuration":142898,"Delta":385204562},{"NoteNumber":39,"Velocity":57,"Duration":271506,"SoundDuration":271506,"Delta":385204562},{"NoteNumber":31,"Velocity":57,"Duration":271506,"SoundDuration":271506,"Delta":385204562},{"NoteNumber":34,"Velocity":57,"Duration":271506,"SoundDuration":271506,"Delta":385204562},{"NoteNumber":43,"Velocity":68,"Duration":271506,"SoundDuration":271506,"Delta":385204562},{"NoteNumber":99,"Velocity":95,"Duration":142898,"SoundDuration":142898,"Delta":385347460},{"NoteNumber":103,"Velocity":116,"Duration":1317440,"SoundDuration":1317440,"Delta":385490358},{"NoteNumber":94,"Velocity":83,"Duration":1317440,"SoundDuration":1317440,"Delta":385490358},{"NoteNumber":91,"Velocity":83,"Duration":1317440,"SoundDuration":1317440,"Delta":385490358},{"NoteNumber":99,"Velocity":98,"Duration":1317440,"SoundDuration":1317440,"Delta":385490358},{"NoteNumber":27,"Velocity":74,"Duration":1317440,"SoundDuration":1317440,"Delta":385490358},{"NoteNumber":39,"Velocity":90,"Duration":1317440,"SoundDuration":1317440,"Delta":385490358},{"NoteNumber":34,"Velocity":74,"Duration":1317440,"SoundDuration":1317440,"Delta":385490358},{"NoteNumber":79,"Velocity":80,"Duration":54599,"SoundDuration":54599,"Delta":387004357},{"NoteNumber":70,"Velocity":56,"Duration":54599,"SoundDuration":54599,"Delta":387004357},{"NoteNumber":67,"Velocity":56,"Duration":54599,"SoundDuration":54599,"Delta":387004357},{"NoteNumber":75,"Velocity":67,"Duration":54599,"SoundDuration":54599,"Delta":387004357},{"NoteNumber":70,"Velocity":84,"Duration":1310387,"SoundDuration":1310387,"Delta":387069876},{"NoteNumber":67,"Velocity":84,"Duration":1310387,"SoundDuration":1310387,"Delta":387069876},{"NoteNumber":79,"Velocity":99,"Duration":1310387,"SoundDuration":1310387,"Delta":387069876},{"NoteNumber":75,"Velocity":99,"Duration":1310387,"SoundDuration":1310387,"Delta":387069876},{"NoteNumber":51,"Velocity":68,"Duration":1310387,"SoundDuration":1310387,"Delta":387069876},{"NoteNumber":55,"Velocity":68,"Duration":1310387,"SoundDuration":1310387,"Delta":387069876},{"NoteNumber":58,"Velocity":68,"Duration":1310387,"SoundDuration":1310387,"Delta":387069876},{"NoteNumber":63,"Velocity":81,"Duration":1310387,"SoundDuration":1310387,"Delta":387069876},{"NoteNumber":55,"Velocity":67,"Duration":67589,"SoundDuration":67589,"Delta":388623586},{"NoteNumber":63,"Velocity":80,"Duration":67589,"SoundDuration":67589,"Delta":388623586},{"NoteNumber":58,"Velocity":67,"Duration":67589,"SoundDuration":67589,"Delta":388623586},{"NoteNumber":58,"Velocity":84,"Duration":2595436,"SoundDuration":2595436,"Delta":388704693},{"NoteNumber":55,"Velocity":84,"Duration":2595436,"SoundDuration":2595436,"Delta":388704693},{"NoteNumber":63,"Velocity":99,"Duration":2595436,"SoundDuration":2595436,"Delta":388704693},{"NoteNumber":39,"Velocity":68,"Duration":2595436,"SoundDuration":2595436,"Delta":388704693},{"NoteNumber":46,"Velocity":68,"Duration":2595436,"SoundDuration":2595436,"Delta":388704693},{"NoteNumber":51,"Velocity":81,"Duration":2595436,"SoundDuration":2595436,"Delta":388704693}],"license":{"name":"Creative Commons Attribution-ShareAlike 3.0 Germany","url":"http://creativecommons.org/licenses/by-sa/3.0/de/deed.en","text":"The MIDI, audio (MP3, OGG) and video files of Bernd Krueger are licensed under the cc-by-sa Germany License. This means that you can use and adapt the files, as long as you attribute the copyright holder.\n\nName: Bernd Krueger\nSource: http://www.piano-midi.de\n\nThe distribution or public playback of the files is only allowed under identical license conditions.\n\nThe scores are open source.","attribution":"MIDI files by Bernd Krueger (piano-midi.de)","attributionUrl":"http://www.piano-midi.de"}}