{"title":"Childrens Corner 5","artist":"Debussy","durationMs":132673,"midiSha256":"dc8a601e39afc499761f2a0f0b18d7cfbf0d2fafd9f492fa11407d29a1dcb9ca","midiObject":[{"NoteNumber":80,"Velocity":50,"Duration":1446945,"SoundDuration":1446945,"Delta":0},{"NoteNumber":78,"Velocity":47,"Duration":241157,"SoundDuration":241157,"Delta":1446945},{"NoteNumber":76,"Velocity":45,"Duration":241157,"SoundDuration":241157,"Delta":1688102},{"NoteNumber":74,"Velocity":49,"Duration":482315,"SoundDuration":482315,"Delta":1929260},{"NoteNumber":76,"Velocity":42,"Duration":151057,"SoundDuration":151057,"Delta":2411575},{"NoteNumber":74,"Velocity":42,"Duration":151057,"SoundDuration":151057,"Delta":2562632},{"NoteNumber":73,"Velocity":42,"Duration":151057,"SoundDuration":151057,"Delta":2713689},{"NoteNumber":71,"Velocity":48,"Duration":478469,"SoundDuration":478469,"Delta":2864747},{"NoteNumber":83,"Velocity":50,"Duration":635593,"SoundDuration":635593,"Delta":3343216},{"NoteNumber":80,"Velocity":46,"Duration":2411575,"SoundDuration":2411575,"Delta":3978809},{"NoteNumber":78,"Velocity":47,"Duration":262237,"SoundDuration":262237,"Delta":6390384},{"NoteNumber":76,"Velocity":42,"Duration":262237,"SoundDuration":262237,"Delta":6652621},{"NoteNumber":74,"Velocity":50,"Duration":1828472,"SoundDuration":1828472,"Delta":6914859},{"NoteNumber":76,"Velocity":46,"Duration":102458,"SoundDuration":102458,"Delta":8743331},{"NoteNumber":74,"Velocity":53,"Duration":1778519,"SoundDuration":1778519,"Delta":8845790},{"NoteNumber":77,"Velocity":49,"Duration":103878,"SoundDuration":103878,"Delta":10624310},{"NoteNumber":74,"Velocity":59,"Duration":1785794,"SoundDuration":1785794,"Delta":10728188},{"NoteNumber":79,"Velocity":43,"Duration":213068,"SoundDuration":213068,"Delta":12513982},{"NoteNumber":77,"Velocity":37,"Duration":213068,"SoundDuration":213068,"Delta":12727050},{"NoteNumber":74,"Velocity":33,"Duration":3321033,"SoundDuration":3321033,"Delta":12940119},{"NoteNumber":73,"Velocity":49,"Duration":358851,"SoundDuration":358851,"Delta":16261152},{"NoteNumber":65,"Velocity":28,"Duration":1913875,"SoundDuration":1913875,"Delta":16261152},{"NoteNumber":67,"Velocity":34,"Duration":956938,"SoundDuration":956938,"Delta":16261152},{"NoteNumber":71,"Velocity":45,"Duration":119617,"SoundDuration":119617,"Delta":16620003},{"NoteNumber":73,"Velocity":49,"Duration":358851,"SoundDuration":358851,"Delta":16739621},{"NoteNumber":74,"Velocity":43,"Duration":119617,"SoundDuration":119617,"Delta":17098472},{"NoteNumber":76,"Velocity":49,"Duration":358851,"SoundDuration":358851,"Delta":17218090},{"NoteNumber":68,"Velocity":29,"Duration":956937,"SoundDuration":956937,"Delta":17218090},{"NoteNumber":74,"Velocity":45,"Duration":119617,"SoundDuration":119617,"Delta":17576941},{"NoteNumber":73,"Velocity":49,"Duration":358851,"SoundDuration":358851,"Delta":17696559},{"NoteNumber":71,"Velocity":46,"Duration":119617,"SoundDuration":119617,"Delta":18055410},{"NoteNumber":73,"Velocity":49,"Duration":358851,"SoundDuration":358851,"Delta":18175027},{"NoteNumber":65,"Velocity":28,"Duration":1913876,"SoundDuration":1913876,"Delta":18175027},{"NoteNumber":67,"Velocity":34,"Duration":956938,"SoundDuration":956938,"Delta":18175027},{"NoteNumber":71,"Velocity":46,"Duration":119617,"SoundDuration":119617,"Delta":18533879},{"NoteNumber":73,"Velocity":49,"Duration":358851,"SoundDuration":358851,"Delta":18653496},{"NoteNumber":74,"Velocity":43,"Duration":119617,"SoundDuration":119617,"Delta":19012348},{"NoteNumber":76,"Velocity":49,"Duration":159489,"SoundDuration":159489,"Delta":19131966},{"NoteNumber":68,"Velocity":32,"Duration":956938,"SoundDuration":956938,"Delta":19131966},{"NoteNumber":77,"Velocity":43,"Duration":159489,"SoundDuration":159489,"Delta":19291455},{"NoteNumber":76,"Velocity":43,"Duration":159489,"SoundDuration":159489,"Delta":19450945},{"NoteNumber":74,"Velocity":48,"Duration":159489,"SoundDuration":159489,"Delta":19610435},{"NoteNumber":73,"Velocity":45,"Duration":159489,"SoundDuration":159489,"Delta":19769924},{"NoteNumber":71,"Velocity":45,"Duration":159489,"SoundDuration":159489,"Delta":19929414},{"NoteNumber":73,"Velocity":45,"Duration":433862,"SoundDuration":433862,"Delta":20088904},{"NoteNumber":64,"Velocity":28,"Duration":2029537,"SoundDuration":2029537,"Delta":20088904},{"NoteNumber":67,"Velocity":34,"Duration":2029537,"SoundDuration":2029537,"Delta":20088904},{"NoteNumber":74,"Velocity":45,"Duration":171624,"SoundDuration":171624,"Delta":20522766},{"NoteNumber":71,"Velocity":38,"Duration":3322784,"SoundDuration":3322784,"Delta":20694391},{"NoteNumber":66,"Velocity":27,"Duration":1898734,"SoundDuration":1898734,"Delta":22118441},{"NoteNumber":63,"Velocity":22,"Duration":1898734,"SoundDuration":1898734,"Delta":22118441},{"NoteNumber":73,"Velocity":49,"Duration":356012,"SoundDuration":356012,"Delta":24017175},{"NoteNumber":62,"Velocity":28,"Duration":949366,"SoundDuration":949366,"Delta":24017175},{"NoteNumber":65,"Velocity":34,"Duration":949366,"SoundDuration":949366,"Delta":24017175},{"NoteNumber":71,"Velocity":45,"Duration":118670,"SoundDuration":118670,"Delta":24373188},{"NoteNumber":73,"Velocity":49,"Duration":356012,"SoundDuration":356012,"Delta":24491859},{"NoteNumber":74,"Velocity":43,"Duration":118670,"SoundDuration":118670,"Delta":24847871},{"NoteNumber":76,"Velocity":49,"Duration":356012,"SoundDuration":356012,"Delta":24966542},{"NoteNumber":57,"Velocity":24,"Duration":949366,"SoundDuration":949366,"Delta":24966542},{"NoteNumber":64,"Velocity":29,"Duration":949366,"SoundDuration":949366,"Delta":24966542},{"NoteNumber":74,"Velocity":45,"Duration":118670,"SoundDuration":118670,"Delta":25322555},{"NoteNumber":73,"Velocity":49,"Duration":356012,"SoundDuration":356012,"Delta":25441226},{"NoteNumber":71,"Velocity":46,"Duration":118670,"SoundDuration":118670,"Delta":25797238},{"NoteNumber":73,"Velocity":49,"Duration":356012,"SoundDuration":356012,"Delta":25915909},{"NoteNumber":62,"Velocity":28,"Duration":949367,"SoundDuration":949367,"Delta":25915909},{"NoteNumber":65,"Velocity":34,"Duration":949367,"SoundDuration":949367,"Delta":25915909},{"NoteNumber":71,"Velocity":46,"Duration":118670,"SoundDuration":118670,"Delta":26271922},{"NoteNumber":73,"Velocity":49,"Duration":356012,"SoundDuration":356012,"Delta":26390593},{"NoteNumber":74,"Velocity":43,"Duration":118670,"SoundDuration":118670,"Delta":26746605},{"NoteNumber":76,"Velocity":49,"Duration":158227,"SoundDuration":158227,"Delta":26865276},{"NoteNumber":57,"Velocity":27,"Duration":949366,"SoundDuration":949366,"Delta":26865276},{"NoteNumber":64,"Velocity":32,"Duration":949366,"SoundDuration":949366,"Delta":26865276},{"NoteNumber":77,"Velocity":43,"Duration":158227,"SoundDuration":158227,"Delta":27023504},{"NoteNumber":76,"Velocity":43,"Duration":158227,"SoundDuration":158227,"Delta":27181732},{"NoteNumber":74,"Velocity":48,"Duration":158227,"SoundDuration":158227,"Delta":27339960},{"NoteNumber":73,"Velocity":45,"Duration":158227,"SoundDuration":158227,"Delta":27498188},{"NoteNumber":71,"Velocity":45,"Duration":158227,"SoundDuration":158227,"Delta":27656415},{"NoteNumber":73,"Velocity":45,"Duration":414964,"SoundDuration":414964,"Delta":27814643},{"NoteNumber":62,"Velocity":28,"Duration":2947162,"SoundDuration":2947162,"Delta":27814643},{"NoteNumber":65,"Velocity":34,"Duration":1996248,"SoundDuration":1996248,"Delta":27814643},{"NoteNumber":74,"Velocity":45,"Duration":157232,"SoundDuration":157232,"Delta":28229608},{"NoteNumber":71,"Velocity":38,"Duration":2708745,"SoundDuration":2708745,"Delta":28386841},{"NoteNumber":66,"Velocity":26,"Duration":950914,"SoundDuration":950914,"Delta":29810891},{"NoteNumber":64,"Velocity":25,"Duration":1033400,"SoundDuration":1033400,"Delta":30761806},{"NoteNumber":61,"Velocity":25,"Duration":1033400,"SoundDuration":1033400,"Delta":30761806},{"NoteNumber":69,"Velocity":32,"Duration":344366,"SoundDuration":344366,"Delta":31095586},{"NoteNumber":68,"Velocity":30,"Duration":355253,"SoundDuration":355253,"Delta":31439953},{"NoteNumber":66,"Velocity":34,"Duration":496204,"SoundDuration":496204,"Delta":31795206},{"NoteNumber":62,"Velocity":27,"Duration":5118460,"SoundDuration":5118460,"Delta":31795206},{"NoteNumber":57,"Velocity":23,"Duration":687530,"SoundDuration":687530,"Delta":31795206},{"NoteNumber":47,"Velocity":19,"Duration":687530,"SoundDuration":687530,"Delta":31795206},{"NoteNumber":68,"Velocity":30,"Duration":191326,"SoundDuration":191326,"Delta":32291411},{"NoteNumber":56,"Velocity":22,"Duration":2848750,"SoundDuration":2848750,"Delta":32473171},{"NoteNumber":52,"Velocity":18,"Duration":2848750,"SoundDuration":2848750,"Delta":32473171},{"NoteNumber":64,"Velocity":25,"Duration":4430929,"SoundDuration":4430929,"Delta":32482737},{"NoteNumber":52,"Velocity":22,"Duration":838544,"SoundDuration":838544,"Delta":35329037},{"NoteNumber":50,"Velocity":22,"Duration":216138,"SoundDuration":216138,"Delta":36167582},{"NoteNumber":49,"Velocity":21,"Duration":222649,"SoundDuration":222649,"Delta":36398130},{"NoteNumber":47,"Velocity":20,"Duration":308924,"SoundDuration":308924,"Delta":36589052},{"NoteNumber":61,"Velocity":23,"Duration":7297165,"SoundDuration":7297165,"Delta":36913666},{"NoteNumber":64,"Velocity":28,"Duration":7297165,"SoundDuration":7297165,"Delta":36913666},{"NoteNumber":52,"Velocity":22,"Duration":7297165,"SoundDuration":7297165,"Delta":36913666},{"NoteNumber":45,"Velocity":18,"Duration":7297165,"SoundDuration":7297165,"Delta":36913666},{"NoteNumber":33,"Velocity":16,"Duration":5577967,"SoundDuration":5577967,"Delta":38632864},{"NoteNumber":40,"Velocity":19,"Duration":5577967,"SoundDuration":5577967,"Delta":38632864},{"NoteNumber":88,"Velocity":33,"Duration":3858770,"SoundDuration":3858770,"Delta":40352062},{"NoteNumber":85,"Velocity":28,"Duration":3858770,"SoundDuration":3858770,"Delta":40352062},{"NoteNumber":68,"Velocity":45,"Duration":239234,"SoundDuration":239234,"Delta":46124708},{"NoteNumber":71,"Velocity":41,"Duration":239234,"SoundDuration":239234,"Delta":46363943},{"NoteNumber":73,"Velocity":49,"Duration":956938,"SoundDuration":956938,"Delta":46603177},{"NoteNumber":76,"Velocity":49,"Duration":478468,"SoundDuration":478468,"Delta":47560115},{"NoteNumber":75,"Velocity":49,"Duration":478469,"SoundDuration":478469,"Delta":48038584},{"NoteNumber":73,"Velocity":54,"Duration":239234,"SoundDuration":239234,"Delta":48517053},{"NoteNumber":71,"Velocity":46,"Duration":239234,"SoundDuration":239234,"Delta":48756288},{"NoteNumber":68,"Velocity":51,"Duration":455235,"SoundDuration":455235,"Delta":48995522},{"NoteNumber":78,"Velocity":58,"Duration":476947,"SoundDuration":476947,"Delta":49450757},{"NoteNumber":76,"Velocity":56,"Duration":476947,"SoundDuration":476947,"Delta":49927705},{"NoteNumber":75,"Velocity":49,"Duration":158982,"SoundDuration":158982,"Delta":50404652},{"NoteNumber":73,"Velocity":46,"Duration":158982,"SoundDuration":158982,"Delta":50563635},{"NoteNumber":71,"Velocity":46,"Duration":192678,"SoundDuration":192678,"Delta":50722617},{"NoteNumber":68,"Velocity":54,"Duration":1928181,"SoundDuration":1928181,"Delta":50915296},{"NoteNumber":75,"Velocity":46,"Duration":531914,"SoundDuration":531914,"Delta":52843477},{"NoteNumber":73,"Velocity":42,"Duration":177305,"SoundDuration":177305,"Delta":53375392},{"NoteNumber":71,"Velocity":41,"Duration":177305,"SoundDuration":177305,"Delta":53552697},{"NoteNumber":68,"Velocity":40,"Duration":260416,"SoundDuration":260416,"Delta":53730002},{"NoteNumber":66,"Velocity":38,"Duration":3574133,"SoundDuration":3574133,"Delta":53990418},{"NoteNumber":57,"Velocity":20,"Duration":2395350,"SoundDuration":2395350,"Delta":53990418},{"NoteNumber":59,"Velocity":20,"Duration":2395350,"SoundDuration":2395350,"Delta":53990418},{"NoteNumber":64,"Velocity":25,"Duration":583657,"SoundDuration":583657,"Delta":53990418},{"NoteNumber":63,"Velocity":23,"Duration":632911,"SoundDuration":632911,"Delta":54574076},{"NoteNumber":61,"Velocity":23,"Duration":2357564,"SoundDuration":2357564,"Delta":55206987},{"NoteNumber":75,"Velocity":46,"Duration":531914,"SoundDuration":531914,"Delta":57564551},{"NoteNumber":54,"Velocity":21,"Duration":531914,"SoundDuration":531914,"Delta":57564551},{"NoteNumber":57,"Velocity":21,"Duration":531914,"SoundDuration":531914,"Delta":57564551},{"NoteNumber":64,"Velocity":25,"Duration":531914,"SoundDuration":531914,"Delta":57564551},{"NoteNumber":73,"Velocity":42,"Duration":177305,"SoundDuration":177305,"Delta":58096466},{"NoteNumber":56,"Velocity":21,"Duration":531915,"SoundDuration":531915,"Delta":58096466},{"NoteNumber":62,"Velocity":25,"Duration":531915,"SoundDuration":531915,"Delta":58096466},{"NoteNumber":59,"Velocity":21,"Duration":531915,"SoundDuration":531915,"Delta":58096466},{"NoteNumber":71,"Velocity":41,"Duration":177304,"SoundDuration":177304,"Delta":58273771},{"NoteNumber":68,"Velocity":40,"Duration":177305,"SoundDuration":177305,"Delta":58451076},{"NoteNumber":66,"Velocity":38,"Duration":1108246,"SoundDuration":1108246,"Delta":58628381},{"NoteNumber":57,"Velocity":21,"Duration":546447,"SoundDuration":546447,"Delta":58628381},{"NoteNumber":61,"Velocity":25,"Duration":546447,"SoundDuration":546447,"Delta":58628381},{"NoteNumber":56,"Velocity":19,"Duration":561798,"SoundDuration":561798,"Delta":59174829},{"NoteNumber":59,"Velocity":19,"Duration":561798,"SoundDuration":561798,"Delta":59174829},{"NoteNumber":63,"Velocity":23,"Duration":561798,"SoundDuration":561798,"Delta":59174829},{"NoteNumber":75,"Velocity":46,"Duration":531914,"SoundDuration":531914,"Delta":59736627},{"NoteNumber":54,"Velocity":21,"Duration":531914,"SoundDuration":531914,"Delta":59736627},{"NoteNumber":57,"Velocity":21,"Duration":531914,"SoundDuration":531914,"Delta":59736627},{"NoteNumber":64,"Velocity":25,"Duration":531914,"SoundDuration":531914,"Delta":59736627},{"NoteNumber":73,"Velocity":42,"Duration":177305,"SoundDuration":177305,"Delta":60268542},{"NoteNumber":56,"Velocity":21,"Duration":531915,"SoundDuration":531915,"Delta":60268542},{"NoteNumber":63,"Velocity":25,"Duration":531915,"SoundDuration":531915,"Delta":60268542},{"NoteNumber":59,"Velocity":21,"Duration":531915,"SoundDuration":531915,"Delta":60268542},{"NoteNumber":71,"Velocity":41,"Duration":177304,"SoundDuration":177304,"Delta":60445847},{"NoteNumber":68,"Velocity":40,"Duration":177305,"SoundDuration":177305,"Delta":60623152},{"NoteNumber":66,"Velocity":38,"Duration":1118966,"SoundDuration":1118966,"Delta":60800457},{"NoteNumber":57,"Velocity":21,"Duration":1118966,"SoundDuration":1118966,"Delta":60800457},{"NoteNumber":61,"Velocity":25,"Duration":1118966,"SoundDuration":1118966,"Delta":60800457},{"NoteNumber":69,"Velocity":46,"Duration":531914,"SoundDuration":531914,"Delta":61919424},{"NoteNumber":49,"Velocity":25,"Duration":1119625,"SoundDuration":1119625,"Delta":61919424},{"NoteNumber":68,"Velocity":46,"Duration":177305,"SoundDuration":177305,"Delta":62451339},{"NoteNumber":66,"Velocity":41,"Duration":177305,"SoundDuration":177305,"Delta":62628644},{"NoteNumber":64,"Velocity":40,"Duration":233100,"SoundDuration":233100,"Delta":62805949},{"NoteNumber":61,"Velocity":34,"Duration":496204,"SoundDuration":496204,"Delta":63039049},{"NoteNumber":57,"Velocity":27,"Duration":5118460,"SoundDuration":5118460,"Delta":63039049},{"NoteNumber":52,"Velocity":23,"Duration":687530,"SoundDuration":687530,"Delta":63039049},{"NoteNumber":42,"Velocity":19,"Duration":687530,"SoundDuration":687530,"Delta":63039049},{"NoteNumber":63,"Velocity":30,"Duration":191326,"SoundDuration":191326,"Delta":63535254},{"NoteNumber":51,"Velocity":22,"Duration":2848750,"SoundDuration":2848750,"Delta":63717014},{"NoteNumber":47,"Velocity":18,"Duration":2848750,"SoundDuration":2848750,"Delta":63717014},{"NoteNumber":59,"Velocity":25,"Duration":4430929,"SoundDuration":4430929,"Delta":63726580},{"NoteNumber":47,"Velocity":22,"Duration":838544,"SoundDuration":838544,"Delta":66572880},{"NoteNumber":45,"Velocity":22,"Duration":216138,"SoundDuration":216138,"Delta":67411425},{"NoteNumber":44,"Velocity":21,"Duration":222649,"SoundDuration":222649,"Delta":67641973},{"NoteNumber":42,"Velocity":20,"Duration":308924,"SoundDuration":308924,"Delta":67832895},{"NoteNumber":56,"Velocity":23,"Duration":7313056,"SoundDuration":7313056,"Delta":68157510},{"NoteNumber":59,"Velocity":28,"Duration":7313056,"SoundDuration":7313056,"Delta":68157510},{"NoteNumber":47,"Velocity":22,"Duration":7313056,"SoundDuration":7313056,"Delta":68157510},{"NoteNumber":40,"Velocity":18,"Duration":7313056,"SoundDuration":7313056,"Delta":68157510},{"NoteNumber":28,"Velocity":16,"Duration":5593857,"SoundDuration":5593857,"Delta":69876708},{"NoteNumber":35,"Velocity":19,"Duration":5593857,"SoundDuration":5593857,"Delta":69876708},{"NoteNumber":83,"Velocity":33,"Duration":3874660,"SoundDuration":3874660,"Delta":71595906},{"NoteNumber":80,"Velocity":28,"Duration":3874660,"SoundDuration":3874660,"Delta":71595906},{"NoteNumber":74,"Velocity":45,"Duration":159489,"SoundDuration":159489,"Delta":77862911},{"NoteNumber":77,"Velocity":45,"Duration":159489,"SoundDuration":159489,"Delta":78022400},{"NoteNumber":78,"Velocity":47,"Duration":159489,"SoundDuration":159489,"Delta":78181890},{"NoteNumber":80,"Velocity":49,"Duration":1435406,"SoundDuration":1435406,"Delta":78341380},{"NoteNumber":81,"Velocity":49,"Duration":466238,"SoundDuration":466238,"Delta":79776787},{"NoteNumber":80,"Velocity":49,"Duration":455235,"SoundDuration":455235,"Delta":80243025},{"NoteNumber":78,"Velocity":54,"Duration":238473,"SoundDuration":238473,"Delta":80698260},{"NoteNumber":77,"Velocity":46,"Duration":238473,"SoundDuration":238473,"Delta":80936733},{"NoteNumber":74,"Velocity":56,"Duration":158982,"SoundDuration":158982,"Delta":81175207},{"NoteNumber":83,"Velocity":62,"Duration":149924,"SoundDuration":149924,"Delta":81334190},{"NoteNumber":81,"Velocity":56,"Duration":149925,"SoundDuration":149925,"Delta":81484115},{"NoteNumber":80,"Velocity":54,"Duration":149924,"SoundDuration":149924,"Delta":81634040},{"NoteNumber":78,"Velocity":57,"Duration":149924,"SoundDuration":149924,"Delta":81783965},{"NoteNumber":77,"Velocity":60,"Duration":211864,"SoundDuration":211864,"Delta":81933890},{"NoteNumber":74,"Velocity":61,"Duration":1928180,"SoundDuration":1928180,"Delta":82145754},{"NoteNumber":78,"Velocity":46,"Duration":1063829,"SoundDuration":1063829,"Delta":84073935},{"NoteNumber":77,"Velocity":49,"Duration":358851,"SoundDuration":358851,"Delta":85137765},{"NoteNumber":61,"Velocity":28,"Duration":3798170,"SoundDuration":3798170,"Delta":85137765},{"NoteNumber":70,"Velocity":34,"Duration":956937,"SoundDuration":956937,"Delta":85137765},{"NoteNumber":75,"Velocity":45,"Duration":119617,"SoundDuration":119617,"Delta":85496617},{"NoteNumber":77,"Velocity":49,"Duration":358851,"SoundDuration":358851,"Delta":85616234},{"NoteNumber":78,"Velocity":43,"Duration":119617,"SoundDuration":119617,"Delta":85975086},{"NoteNumber":80,"Velocity":49,"Duration":358851,"SoundDuration":358851,"Delta":86094703},{"NoteNumber":69,"Velocity":29,"Duration":956938,"SoundDuration":956938,"Delta":86094703},{"NoteNumber":78,"Velocity":45,"Duration":119617,"SoundDuration":119617,"Delta":86453555},{"NoteNumber":77,"Velocity":49,"Duration":358851,"SoundDuration":358851,"Delta":86573172},{"NoteNumber":75,"Velocity":46,"Duration":119617,"SoundDuration":119617,"Delta":86932024},{"NoteNumber":77,"Velocity":49,"Duration":358851,"SoundDuration":358851,"Delta":87051641},{"NoteNumber":68,"Velocity":34,"Duration":956937,"SoundDuration":956937,"Delta":87051641},{"NoteNumber":75,"Velocity":46,"Duration":119617,"SoundDuration":119617,"Delta":87410493},{"NoteNumber":77,"Velocity":49,"Duration":358851,"SoundDuration":358851,"Delta":87530110},{"NoteNumber":78,"Velocity":43,"Duration":119617,"SoundDuration":119617,"Delta":87888962},{"NoteNumber":80,"Velocity":49,"Duration":154559,"SoundDuration":154559,"Delta":88008579},{"NoteNumber":69,"Velocity":32,"Duration":927357,"SoundDuration":927357,"Delta":88008579},{"NoteNumber":81,"Velocity":43,"Duration":154559,"SoundDuration":154559,"Delta":88163138},{"NoteNumber":80,"Velocity":43,"Duration":154559,"SoundDuration":154559,"Delta":88317698},{"NoteNumber":78,"Velocity":48,"Duration":154559,"SoundDuration":154559,"Delta":88472257},{"NoteNumber":77,"Velocity":45,"Duration":154559,"SoundDuration":154559,"Delta":88626817},{"NoteNumber":75,"Velocity":45,"Duration":154559,"SoundDuration":154559,"Delta":88781376},{"NoteNumber":73,"Velocity":45,"Duration":386781,"SoundDuration":386781,"Delta":88935936},{"NoteNumber":66,"Velocity":28,"Duration":1715349,"SoundDuration":1715349,"Delta":88935936},{"NoteNumber":70,"Velocity":34,"Duration":1715349,"SoundDuration":1715349,"Delta":88935936},{"NoteNumber":75,"Velocity":45,"Duration":139664,"SoundDuration":139664,"Delta":89322718},{"NoteNumber":72,"Velocity":38,"Duration":2314518,"SoundDuration":2314518,"Delta":89462382},{"NoteNumber":68,"Velocity":27,"Duration":825765,"SoundDuration":825765,"Delta":90651285},{"NoteNumber":65,"Velocity":22,"Duration":825765,"SoundDuration":825765,"Delta":90651285},{"NoteNumber":63,"Velocity":22,"Duration":899550,"SoundDuration":899550,"Delta":91477051},{"NoteNumber":66,"Velocity":27,"Duration":899550,"SoundDuration":899550,"Delta":91477051},{"NoteNumber":73,"Velocity":45,"Duration":299849,"SoundDuration":299849,"Delta":91776901},{"NoteNumber":75,"Velocity":50,"Duration":299850,"SoundDuration":299850,"Delta":92076751},{"NoteNumber":77,"Velocity":54,"Duration":359607,"SoundDuration":359607,"Delta":92376601},{"NoteNumber":70,"Velocity":22,"Duration":940547,"SoundDuration":940547,"Delta":92376601},{"NoteNumber":73,"Velocity":27,"Duration":940547,"SoundDuration":940547,"Delta":92376601},{"NoteNumber":78,"Velocity":47,"Duration":127768,"SoundDuration":127768,"Delta":92736209},{"NoteNumber":75,"Velocity":46,"Duration":744292,"SoundDuration":744292,"Delta":92863977},{"NoteNumber":68,"Velocity":23,"Duration":436680,"SoundDuration":436680,"Delta":93317149},{"NoteNumber":72,"Velocity":28,"Duration":436680,"SoundDuration":436680,"Delta":93317149},{"NoteNumber":77,"Velocity":48,"Duration":291120,"SoundDuration":291120,"Delta":93608270},{"NoteNumber":70,"Velocity":32,"Duration":436681,"SoundDuration":436681,"Delta":93753830},{"NoteNumber":66,"Velocity":27,"Duration":436681,"SoundDuration":436681,"Delta":93753830},{"NoteNumber":78,"Velocity":58,"Duration":291120,"SoundDuration":291120,"Delta":93899390},{"NoteNumber":80,"Velocity":60,"Duration":353619,"SoundDuration":353619,"Delta":94190511},{"NoteNumber":77,"Velocity":39,"Duration":933799,"SoundDuration":933799,"Delta":94190511},{"NoteNumber":73,"Velocity":32,"Duration":933799,"SoundDuration":933799,"Delta":94190511},{"NoteNumber":82,"Velocity":57,"Duration":123558,"SoundDuration":123558,"Delta":94544131},{"NoteNumber":78,"Velocity":57,"Duration":761035,"SoundDuration":761035,"Delta":94667689},{"NoteNumber":72,"Velocity":38,"Duration":980789,"SoundDuration":980789,"Delta":95124310},{"NoteNumber":75,"Velocity":46,"Duration":980789,"SoundDuration":980789,"Delta":95124310},{"NoteNumber":80,"Velocity":63,"Duration":304413,"SoundDuration":304413,"Delta":95428724},{"NoteNumber":82,"Velocity":67,"Duration":371961,"SoundDuration":371961,"Delta":95733138},{"NoteNumber":84,"Velocity":59,"Duration":418994,"SoundDuration":418994,"Delta":96105100},{"NoteNumber":73,"Velocity":59,"Duration":2053676,"SoundDuration":2053676,"Delta":96105100},{"NoteNumber":58,"Velocity":33,"Duration":2053676,"SoundDuration":2053676,"Delta":96105100},{"NoteNumber":65,"Velocity":39,"Duration":2053676,"SoundDuration":2053676,"Delta":96105100},{"NoteNumber":85,"Velocity":50,"Duration":139664,"SoundDuration":139664,"Delta":96524094},{"NoteNumber":82,"Velocity":53,"Duration":1495017,"SoundDuration":1495017,"Delta":96663759},{"NoteNumber":70,"Velocity":30,"Duration":2343750,"SoundDuration":2343750,"Delta":98158776},{"NoteNumber":65,"Velocity":30,"Duration":439453,"SoundDuration":439453,"Delta":98158776},{"NoteNumber":51,"Velocity":18,"Duration":2343750,"SoundDuration":2343750,"Delta":98158776},{"NoteNumber":58,"Velocity":22,"Duration":2343750,"SoundDuration":2343750,"Delta":98158776},{"NoteNumber":67,"Velocity":28,"Duration":1904296,"SoundDuration":1904296,"Delta":98598229},{"NoteNumber":63,"Velocity":31,"Duration":1757812,"SoundDuration":1757812,"Delta":98744713},{"NoteNumber":84,"Velocity":41,"Duration":403949,"SoundDuration":403949,"Delta":100502526},{"NoteNumber":73,"Velocity":41,"Duration":2033616,"SoundDuration":2033616,"Delta":100502526},{"NoteNumber":58,"Velocity":23,"Duration":2033616,"SoundDuration":2033616,"Delta":100502526},{"NoteNumber":65,"Velocity":27,"Duration":2033616,"SoundDuration":2033616,"Delta":100502526},{"NoteNumber":85,"Velocity":37,"Duration":134649,"SoundDuration":134649,"Delta":100906475},{"NoteNumber":82,"Velocity":34,"Duration":1495017,"SoundDuration":1495017,"Delta":101041125},{"NoteNumber":70,"Velocity":30,"Duration":3269936,"SoundDuration":3269936,"Delta":102536142},{"NoteNumber":65,"Velocity":30,"Duration":439453,"SoundDuration":439453,"Delta":102536142},{"NoteNumber":51,"Velocity":18,"Duration":3269936,"SoundDuration":3269936,"Delta":102536142},{"NoteNumber":58,"Velocity":22,"Duration":3269936,"SoundDuration":3269936,"Delta":102536142},{"NoteNumber":67,"Velocity":28,"Duration":2830483,"SoundDuration":2830483,"Delta":102975595},{"NoteNumber":63,"Velocity":31,"Duration":2164068,"SoundDuration":2164068,"Delta":103122080},{"NoteNumber":63,"Velocity":31,"Duration":3639513,"SoundDuration":3639513,"Delta":105286149},{"NoteNumber":73,"Velocity":39,"Duration":364667,"SoundDuration":364667,"Delta":108925662},{"NoteNumber":62,"Velocity":22,"Duration":972447,"SoundDuration":972447,"Delta":108925662},{"NoteNumber":65,"Velocity":27,"Duration":972447,"SoundDuration":972447,"Delta":108925662},{"NoteNumber":71,"Velocity":36,"Duration":121555,"SoundDuration":121555,"Delta":109290330},{"NoteNumber":73,"Velocity":39,"Duration":364667,"SoundDuration":364667,"Delta":109411886},{"NoteNumber":74,"Velocity":34,"Duration":121555,"SoundDuration":121555,"Delta":109776553},{"NoteNumber":76,"Velocity":39,"Duration":364667,"SoundDuration":364667,"Delta":109898109},{"NoteNumber":57,"Velocity":19,"Duration":972447,"SoundDuration":972447,"Delta":109898109},{"NoteNumber":64,"Velocity":23,"Duration":972447,"SoundDuration":972447,"Delta":109898109},{"NoteNumber":74,"Velocity":36,"Duration":121555,"SoundDuration":121555,"Delta":110262777},{"NoteNumber":73,"Velocity":39,"Duration":364667,"SoundDuration":364667,"Delta":110384333},{"NoteNumber":71,"Velocity":36,"Duration":121555,"SoundDuration":121555,"Delta":110749000},{"NoteNumber":73,"Velocity":39,"Duration":373754,"SoundDuration":373754,"Delta":110870556},{"NoteNumber":62,"Velocity":22,"Duration":996678,"SoundDuration":996678,"Delta":110870556},{"NoteNumber":65,"Velocity":27,"Duration":996678,"SoundDuration":996678,"Delta":110870556},{"NoteNumber":71,"Velocity":36,"Duration":124584,"SoundDuration":124584,"Delta":111244310},{"NoteNumber":73,"Velocity":39,"Duration":373754,"SoundDuration":373754,"Delta":111368895},{"NoteNumber":74,"Velocity":34,"Duration":124584,"SoundDuration":124584,"Delta":111742649},{"NoteNumber":76,"Velocity":39,"Duration":170357,"SoundDuration":170357,"Delta":111867234},{"NoteNumber":57,"Velocity":21,"Duration":1040173,"SoundDuration":1040173,"Delta":111867234},{"NoteNumber":64,"Velocity":25,"Duration":1040173,"SoundDuration":1040173,"Delta":111867234},{"NoteNumber":77,"Velocity":34,"Duration":170357,"SoundDuration":170357,"Delta":112037592},{"NoteNumber":76,"Velocity":34,"Duration":170357,"SoundDuration":170357,"Delta":112207950},{"NoteNumber":74,"Velocity":38,"Duration":176366,"SoundDuration":176366,"Delta":112378308},{"NoteNumber":73,"Velocity":36,"Duration":176366,"SoundDuration":176366,"Delta":112554675},{"NoteNumber":71,"Velocity":36,"Duration":176366,"SoundDuration":176366,"Delta":112731041},{"NoteNumber":73,"Velocity":36,"Duration":454477,"SoundDuration":454477,"Delta":112907408},{"NoteNumber":62,"Velocity":22,"Duration":3186887,"SoundDuration":3186887,"Delta":112907408},{"NoteNumber":65,"Velocity":27,"Duration":2165423,"SoundDuration":2165423,"Delta":112907408},{"NoteNumber":74,"Velocity":36,"Duration":177725,"SoundDuration":177725,"Delta":113361886},{"NoteNumber":71,"Velocity":30,"Duration":2902244,"SoundDuration":2902244,"Delta":113539611},{"NoteNumber":66,"Velocity":20,"Duration":1021463,"SoundDuration":1021463,"Delta":115072832},{"NoteNumber":64,"Velocity":20,"Duration":1089036,"SoundDuration":1089036,"Delta":116094295},{"NoteNumber":61,"Velocity":20,"Duration":1089036,"SoundDuration":1089036,"Delta":116094295},{"NoteNumber":69,"Velocity":25,"Duration":362602,"SoundDuration":362602,"Delta":116441856},{"NoteNumber":68,"Velocity":24,"Duration":378872,"SoundDuration":378872,"Delta":116804458},{"NoteNumber":66,"Velocity":27,"Duration":564928,"SoundDuration":564928,"Delta":117183331},{"NoteNumber":62,"Velocity":21,"Duration":5774597,"SoundDuration":5774597,"Delta":117183331},{"NoteNumber":57,"Velocity":18,"Duration":794285,"SoundDuration":794285,"Delta":117183331},{"NoteNumber":47,"Velocity":15,"Duration":794285,"SoundDuration":794285,"Delta":117183331},{"NoteNumber":68,"Velocity":24,"Duration":229357,"SoundDuration":229357,"Delta":117748260},{"NoteNumber":56,"Velocity":17,"Duration":3396648,"SoundDuration":3396648,"Delta":117966149},{"NoteNumber":52,"Velocity":14,"Duration":3396648,"SoundDuration":3396648,"Delta":117966149},{"NoteNumber":64,"Velocity":20,"Duration":4980311,"SoundDuration":4980311,"Delta":117977617},{"NoteNumber":52,"Velocity":17,"Duration":944157,"SoundDuration":944157,"Delta":121371282},{"NoteNumber":50,"Velocity":17,"Duration":197889,"SoundDuration":197889,"Delta":122315440},{"NoteNumber":49,"Velocity":16,"Duration":201143,"SoundDuration":201143,"Delta":122526522},{"NoteNumber":47,"Velocity":16,"Duration":244269,"SoundDuration":244269,"Delta":122701324},{"NoteNumber":61,"Velocity":18,"Duration":9715319,"SoundDuration":9715319,"Delta":122957929},{"NoteNumber":64,"Velocity":22,"Duration":9715319,"SoundDuration":9715319,"Delta":122957929},{"NoteNumber":45,"Velocity":14,"Duration":9715319,"SoundDuration":9715319,"Delta":122957929},{"NoteNumber":52,"Velocity":17,"Duration":9715319,"SoundDuration":9715319,"Delta":122957929},{"NoteNumber":40,"Velocity":15,"Duration":7996121,"SoundDuration":7996121,"Delta":124677127},{"NoteNumber":33,"Velocity":12,"Duration":7996121,"SoundDuration":7996121,"Delta":124677127},{"NoteNumber":88,"Velocity":26,"Duration":5995508,"SoundDuration":5995508,"Delta":126677740},{"NoteNumber":85,"Velocity":22,"Duration":5995508,"SoundDuration":5995508,"Delta":126677740}],"license":{"name":"Creative Commons Attribution-ShareAlike 3.0 Germany","url":"http://creativecommons.org/licenses/by-sa/3.0/de/deed.en","text":"The MIDI, audio (MP3, OGG) and video files of Bernd Krueger are licensed under the cc-by-sa Germany License. This means that you can use and adapt the files, as long as you attribute the copyright holder.\n\nName: Bernd Krueger\nSource: http://www.piano-midi.de\n\nThe distribution or public playback of the files is only allowed under identical license conditions.\n\nThe scores are open source.","attribution":"MIDI files by Bernd Krueger (piano-midi.de)"}}