{"title":"Clair de Lune","artist":"Debussy","durationMs":247376,"midiSha256":"4dee23c00aed6742905a65f374f231d7a827010400146be7577b1df808a927d0","midiObject":[{"NoteNumber":65,"Velocity":36,"Duration":4048611,"SoundDuration":4048611,"Delta":0},{"NoteNumber":68,"Velocity":43,"Duration":4048611,"SoundDuration":4048611,"Delta":0},{"NoteNumber":80,"Velocity":43,"Duration":1777778,"SoundDuration":1777778,"Delta":937500},{"NoteNumber":77,"Velocity":36,"Duration":1777778,"SoundDuration":1777778,"Delta":937500},{"NoteNumber":77,"Velocity":39,"Duration":1744292,"SoundDuration":1744292,"Delta":2715278},{"NoteNumber":73,"Velocity":33,"Duration":1744292,"SoundDuration":1744292,"Delta":2715278},{"NoteNumber":69,"Velocity":36,"Duration":3772560,"SoundDuration":3772560,"Delta":4048611},{"NoteNumber":66,"Velocity":30,"Duration":3772560,"SoundDuration":3772560,"Delta":4048611},{"NoteNumber":72,"Velocity":31,"Duration":394737,"SoundDuration":394737,"Delta":4459570},{"NoteNumber":75,"Velocity":37,"Duration":394737,"SoundDuration":394737,"Delta":4459570},{"NoteNumber":73,"Velocity":27,"Duration":431654,"SoundDuration":431654,"Delta":4854307},{"NoteNumber":77,"Velocity":32,"Duration":431654,"SoundDuration":431654,"Delta":4854307},{"NoteNumber":75,"Velocity":30,"Duration":2969992,"SoundDuration":2969992,"Delta":5285962},{"NoteNumber":72,"Velocity":25,"Duration":2969992,"SoundDuration":2969992,"Delta":5285962},{"NoteNumber":65,"Velocity":33,"Duration":3870715,"SoundDuration":3870715,"Delta":7821172},{"NoteNumber":68,"Velocity":39,"Duration":3870715,"SoundDuration":3870715,"Delta":7821172},{"NoteNumber":73,"Velocity":40,"Duration":413793,"SoundDuration":413793,"Delta":8255954},{"NoteNumber":70,"Velocity":34,"Duration":413793,"SoundDuration":413793,"Delta":8255954},{"NoteNumber":75,"Velocity":34,"Duration":400000,"SoundDuration":400000,"Delta":8669747},{"NoteNumber":72,"Velocity":28,"Duration":400000,"SoundDuration":400000,"Delta":8669747},{"NoteNumber":70,"Velocity":27,"Duration":3041720,"SoundDuration":3041720,"Delta":9069747},{"NoteNumber":73,"Velocity":32,"Duration":671641,"SoundDuration":671641,"Delta":9069747},{"NoteNumber":77,"Velocity":46,"Duration":1303016,"SoundDuration":1303016,"Delta":9741389},{"NoteNumber":73,"Velocity":45,"Duration":1067062,"SoundDuration":1067062,"Delta":11044405},{"NoteNumber":63,"Velocity":32,"Duration":3774141,"SoundDuration":3774141,"Delta":11691887},{"NoteNumber":66,"Velocity":38,"Duration":3767099,"SoundDuration":3767099,"Delta":11691887},{"NoteNumber":72,"Velocity":34,"Duration":402684,"SoundDuration":402684,"Delta":12111468},{"NoteNumber":68,"Velocity":28,"Duration":402684,"SoundDuration":402684,"Delta":12111468},{"NoteNumber":70,"Velocity":26,"Duration":416666,"SoundDuration":416666,"Delta":12514152},{"NoteNumber":73,"Velocity":31,"Duration":416666,"SoundDuration":416666,"Delta":12514152},{"NoteNumber":72,"Velocity":27,"Duration":2957745,"SoundDuration":2957745,"Delta":12930819},{"NoteNumber":68,"Velocity":22,"Duration":2957745,"SoundDuration":2957745,"Delta":12930819},{"NoteNumber":66,"Velocity":33,"Duration":2417826,"SoundDuration":2417826,"Delta":15466029},{"NoteNumber":63,"Velocity":37,"Duration":2417826,"SoundDuration":2417826,"Delta":15466029},{"NoteNumber":61,"Velocity":31,"Duration":2417826,"SoundDuration":2417826,"Delta":15466029},{"NoteNumber":70,"Velocity":39,"Duration":412643,"SoundDuration":412643,"Delta":15888564},{"NoteNumber":72,"Velocity":36,"Duration":399999,"SoundDuration":399999,"Delta":16301207},{"NoteNumber":70,"Velocity":36,"Duration":408163,"SoundDuration":408163,"Delta":16701207},{"NoteNumber":75,"Velocity":39,"Duration":379746,"SoundDuration":379746,"Delta":17109371},{"NoteNumber":70,"Velocity":37,"Duration":394736,"SoundDuration":394736,"Delta":17489118},{"NoteNumber":68,"Velocity":40,"Duration":389610,"SoundDuration":389610,"Delta":17883855},{"NoteNumber":66,"Velocity":28,"Duration":1158872,"SoundDuration":1158872,"Delta":17883855},{"NoteNumber":60,"Velocity":28,"Duration":1158872,"SoundDuration":1158872,"Delta":17883855},{"NoteNumber":63,"Velocity":33,"Duration":1155647,"SoundDuration":1155647,"Delta":17883855},{"NoteNumber":70,"Velocity":37,"Duration":382165,"SoundDuration":382165,"Delta":18273465},{"NoteNumber":68,"Velocity":36,"Duration":789781,"SoundDuration":789781,"Delta":18655631},{"NoteNumber":63,"Velocity":30,"Duration":2341252,"SoundDuration":2341252,"Delta":19042728},{"NoteNumber":58,"Velocity":30,"Duration":2341252,"SoundDuration":2341252,"Delta":19042728},{"NoteNumber":61,"Velocity":33,"Duration":2341252,"SoundDuration":2341252,"Delta":19042728},{"NoteNumber":66,"Velocity":34,"Duration":387097,"SoundDuration":387097,"Delta":19445412},{"NoteNumber":68,"Velocity":33,"Duration":375000,"SoundDuration":375000,"Delta":19832509},{"NoteNumber":66,"Velocity":33,"Duration":1176470,"SoundDuration":1176470,"Delta":20207509},{"NoteNumber":63,"Velocity":30,"Duration":1176470,"SoundDuration":1176470,"Delta":21383980},{"NoteNumber":65,"Velocity":34,"Duration":1590263,"SoundDuration":1590263,"Delta":21383980},{"NoteNumber":57,"Velocity":28,"Duration":1176470,"SoundDuration":1176470,"Delta":21383980},{"NoteNumber":60,"Velocity":33,"Duration":1176470,"SoundDuration":1176470,"Delta":21383980},{"NoteNumber":61,"Velocity":28,"Duration":2403967,"SoundDuration":2403967,"Delta":22560451},{"NoteNumber":56,"Velocity":28,"Duration":2403967,"SoundDuration":2403967,"Delta":22560451},{"NoteNumber":58,"Velocity":33,"Duration":3569628,"SoundDuration":3569628,"Delta":22560451},{"NoteNumber":65,"Velocity":38,"Duration":405405,"SoundDuration":405405,"Delta":22974244},{"NoteNumber":66,"Velocity":37,"Duration":397351,"SoundDuration":397351,"Delta":23379650},{"NoteNumber":65,"Velocity":37,"Duration":408163,"SoundDuration":408163,"Delta":23777001},{"NoteNumber":70,"Velocity":39,"Duration":387097,"SoundDuration":387097,"Delta":24185164},{"NoteNumber":65,"Velocity":37,"Duration":392157,"SoundDuration":392157,"Delta":24572261},{"NoteNumber":63,"Velocity":39,"Duration":384615,"SoundDuration":384615,"Delta":24964418},{"NoteNumber":54,"Velocity":38,"Duration":1168929,"SoundDuration":1168929,"Delta":24964418},{"NoteNumber":65,"Velocity":37,"Duration":392157,"SoundDuration":392157,"Delta":25349034},{"NoteNumber":63,"Velocity":37,"Duration":784314,"SoundDuration":784314,"Delta":25741191},{"NoteNumber":58,"Velocity":28,"Duration":2340209,"SoundDuration":2340209,"Delta":26133348},{"NoteNumber":53,"Velocity":26,"Duration":2340209,"SoundDuration":2340209,"Delta":26133348},{"NoteNumber":56,"Velocity":31,"Duration":1168131,"SoundDuration":1168131,"Delta":26133348},{"NoteNumber":61,"Velocity":34,"Duration":389610,"SoundDuration":389610,"Delta":26525505},{"NoteNumber":63,"Velocity":34,"Duration":389610,"SoundDuration":389610,"Delta":26915115},{"NoteNumber":61,"Velocity":34,"Duration":1168831,"SoundDuration":1168831,"Delta":27304726},{"NoteNumber":56,"Velocity":22,"Duration":1650055,"SoundDuration":1650055,"Delta":28473557},{"NoteNumber":60,"Velocity":27,"Duration":1650055,"SoundDuration":1650055,"Delta":28473557},{"NoteNumber":51,"Velocity":23,"Duration":714285,"SoundDuration":714285,"Delta":28473557},{"NoteNumber":54,"Velocity":28,"Duration":1650055,"SoundDuration":1650055,"Delta":28473557},{"NoteNumber":44,"Velocity":28,"Duration":1380214,"SoundDuration":1380214,"Delta":29187843},{"NoteNumber":37,"Velocity":30,"Duration":444444,"SoundDuration":444444,"Delta":30123613},{"NoteNumber":56,"Velocity":28,"Duration":392157,"SoundDuration":392157,"Delta":30568057},{"NoteNumber":53,"Velocity":23,"Duration":392157,"SoundDuration":392157,"Delta":30568057},{"NoteNumber":65,"Velocity":30,"Duration":3222222,"SoundDuration":3222222,"Delta":30960214},{"NoteNumber":68,"Velocity":36,"Duration":3222222,"SoundDuration":3222222,"Delta":30960214},{"NoteNumber":80,"Velocity":39,"Duration":1333333,"SoundDuration":1333333,"Delta":31515770},{"NoteNumber":77,"Velocity":33,"Duration":1333333,"SoundDuration":1333333,"Delta":31515770},{"NoteNumber":73,"Velocity":29,"Duration":1744292,"SoundDuration":1744292,"Delta":32849103},{"NoteNumber":77,"Velocity":35,"Duration":1744292,"SoundDuration":1744292,"Delta":32849103},{"NoteNumber":42,"Velocity":28,"Duration":2493379,"SoundDuration":2493379,"Delta":34182437},{"NoteNumber":49,"Velocity":33,"Duration":2493379,"SoundDuration":2493379,"Delta":34182437},{"NoteNumber":66,"Velocity":27,"Duration":3315297,"SoundDuration":3315297,"Delta":34593396},{"NoteNumber":75,"Velocity":42,"Duration":394736,"SoundDuration":394736,"Delta":34593396},{"NoteNumber":70,"Velocity":27,"Duration":3315297,"SoundDuration":3315297,"Delta":34593396},{"NoteNumber":61,"Velocity":27,"Duration":3315297,"SoundDuration":3315297,"Delta":34593396},{"NoteNumber":58,"Velocity":22,"Duration":3315297,"SoundDuration":3315297,"Delta":34593396},{"NoteNumber":54,"Velocity":22,"Duration":3315297,"SoundDuration":3315297,"Delta":34593396},{"NoteNumber":49,"Velocity":22,"Duration":3315297,"SoundDuration":3315297,"Delta":34593396},{"NoteNumber":77,"Velocity":37,"Duration":431654,"SoundDuration":431654,"Delta":34988133},{"NoteNumber":75,"Velocity":31,"Duration":2923688,"SoundDuration":2923688,"Delta":35419787},{"NoteNumber":41,"Velocity":30,"Duration":2584930,"SoundDuration":2584930,"Delta":37908693},{"NoteNumber":49,"Velocity":36,"Duration":2584930,"SoundDuration":2584930,"Delta":37908693},{"NoteNumber":73,"Velocity":39,"Duration":413792,"SoundDuration":413792,"Delta":38343476},{"NoteNumber":68,"Velocity":39,"Duration":882542,"SoundDuration":882542,"Delta":38343476},{"NoteNumber":61,"Velocity":33,"Duration":413792,"SoundDuration":413792,"Delta":38343476},{"NoteNumber":53,"Velocity":28,"Duration":882542,"SoundDuration":882542,"Delta":38343476},{"NoteNumber":56,"Velocity":33,"Duration":882542,"SoundDuration":882542,"Delta":38343476},{"NoteNumber":75,"Velocity":40,"Duration":468750,"SoundDuration":468750,"Delta":38757269},{"NoteNumber":63,"Velocity":34,"Duration":468750,"SoundDuration":468750,"Delta":38757269},{"NoteNumber":68,"Velocity":34,"Duration":1267605,"SoundDuration":1267605,"Delta":39226019},{"NoteNumber":73,"Velocity":34,"Duration":1267605,"SoundDuration":1267605,"Delta":39226019},{"NoteNumber":80,"Velocity":40,"Duration":1267605,"SoundDuration":1267605,"Delta":39226019},{"NoteNumber":65,"Velocity":33,"Duration":1264083,"SoundDuration":1264083,"Delta":39226019},{"NoteNumber":61,"Velocity":28,"Duration":1267605,"SoundDuration":1267605,"Delta":39226019},{"NoteNumber":73,"Velocity":32,"Duration":1267604,"SoundDuration":1267604,"Delta":40493624},{"NoteNumber":65,"Velocity":32,"Duration":1267604,"SoundDuration":1267604,"Delta":40493624},{"NoteNumber":77,"Velocity":38,"Duration":1678563,"SoundDuration":1678563,"Delta":40493624},{"NoteNumber":56,"Velocity":27,"Duration":1267604,"SoundDuration":1267604,"Delta":40493624},{"NoteNumber":61,"Velocity":32,"Duration":1267604,"SoundDuration":1267604,"Delta":40493624},{"NoteNumber":42,"Velocity":28,"Duration":2504955,"SoundDuration":2504955,"Delta":41761229},{"NoteNumber":49,"Velocity":33,"Duration":2504955,"SoundDuration":2504955,"Delta":41761229},{"NoteNumber":75,"Velocity":42,"Duration":394736,"SoundDuration":394736,"Delta":42172188},{"NoteNumber":66,"Velocity":27,"Duration":3361601,"SoundDuration":3361601,"Delta":42172188},{"NoteNumber":70,"Velocity":27,"Duration":3361601,"SoundDuration":3361601,"Delta":42172188},{"NoteNumber":61,"Velocity":27,"Duration":3361601,"SoundDuration":3361601,"Delta":42172188},{"NoteNumber":58,"Velocity":22,"Duration":3361601,"SoundDuration":3361601,"Delta":42172188},{"NoteNumber":54,"Velocity":22,"Duration":3361601,"SoundDuration":3361601,"Delta":42172188},{"NoteNumber":49,"Velocity":22,"Duration":3361601,"SoundDuration":3361601,"Delta":42172188},{"NoteNumber":77,"Velocity":37,"Duration":431654,"SoundDuration":431654,"Delta":42566925},{"NoteNumber":75,"Velocity":31,"Duration":1267605,"SoundDuration":1267605,"Delta":42998579},{"NoteNumber":73,"Velocity":37,"Duration":1702387,"SoundDuration":1702387,"Delta":44266184},{"NoteNumber":44,"Velocity":36,"Duration":3941389,"SoundDuration":3941389,"Delta":45533789},{"NoteNumber":68,"Velocity":33,"Duration":886234,"SoundDuration":886234,"Delta":45968572},{"NoteNumber":73,"Velocity":39,"Duration":413792,"SoundDuration":413792,"Delta":45968572},{"NoteNumber":61,"Velocity":33,"Duration":413792,"SoundDuration":413792,"Delta":45968572},{"NoteNumber":53,"Velocity":28,"Duration":886234,"SoundDuration":886234,"Delta":45968572},{"NoteNumber":59,"Velocity":33,"Duration":886234,"SoundDuration":886234,"Delta":45968572},{"NoteNumber":63,"Velocity":34,"Duration":472441,"SoundDuration":472441,"Delta":46382365},{"NoteNumber":75,"Velocity":40,"Duration":472441,"SoundDuration":472441,"Delta":46382365},{"NoteNumber":70,"Velocity":40,"Duration":697674,"SoundDuration":697674,"Delta":46854806},{"NoteNumber":82,"Velocity":48,"Duration":697674,"SoundDuration":697674,"Delta":46854806},{"NoteNumber":77,"Velocity":45,"Duration":2620373,"SoundDuration":2620373,"Delta":46854806},{"NoteNumber":65,"Velocity":33,"Duration":1775303,"SoundDuration":1775303,"Delta":46854806},{"NoteNumber":61,"Velocity":28,"Duration":1775303,"SoundDuration":1775303,"Delta":46854806},{"NoteNumber":59,"Velocity":28,"Duration":1775303,"SoundDuration":1775303,"Delta":46854806},{"NoteNumber":80,"Velocity":46,"Duration":1288895,"SoundDuration":1288895,"Delta":47552480},{"NoteNumber":68,"Velocity":39,"Duration":1288895,"SoundDuration":1288895,"Delta":47552480},{"NoteNumber":65,"Velocity":37,"Duration":1044761,"SoundDuration":1044761,"Delta":48841376},{"NoteNumber":77,"Velocity":44,"Duration":1044761,"SoundDuration":1044761,"Delta":48841376},{"NoteNumber":46,"Velocity":39,"Duration":2606787,"SoundDuration":2606787,"Delta":49475179},{"NoteNumber":65,"Velocity":32,"Duration":4027996,"SoundDuration":4027996,"Delta":49886138},{"NoteNumber":75,"Velocity":40,"Duration":379747,"SoundDuration":379747,"Delta":49886138},{"NoteNumber":70,"Velocity":32,"Duration":4027996,"SoundDuration":4027996,"Delta":49886138},{"NoteNumber":63,"Velocity":40,"Duration":1504991,"SoundDuration":1504991,"Delta":49886138},{"NoteNumber":53,"Velocity":32,"Duration":4027996,"SoundDuration":4027996,"Delta":49886138},{"NoteNumber":58,"Velocity":32,"Duration":4027996,"SoundDuration":4027996,"Delta":49886138},{"NoteNumber":77,"Velocity":37,"Duration":410958,"SoundDuration":410958,"Delta":50265885},{"NoteNumber":75,"Velocity":33,"Duration":714285,"SoundDuration":714285,"Delta":50676844},{"NoteNumber":73,"Velocity":37,"Duration":1372655,"SoundDuration":1372655,"Delta":51391129},{"NoteNumber":61,"Velocity":37,"Duration":2523004,"SoundDuration":2523004,"Delta":51391129},{"NoteNumber":70,"Velocity":33,"Duration":1150349,"SoundDuration":1150349,"Delta":52763785},{"NoteNumber":27,"Velocity":30,"Duration":2450381,"SoundDuration":2450381,"Delta":53914134},{"NoteNumber":39,"Velocity":36,"Duration":2450381,"SoundDuration":2450381,"Delta":53914134},{"NoteNumber":82,"Velocity":37,"Duration":1424484,"SoundDuration":1424484,"Delta":54557914},{"NoteNumber":77,"Velocity":37,"Duration":1806601,"SoundDuration":1806601,"Delta":54557914},{"NoteNumber":89,"Velocity":40,"Duration":1806601,"SoundDuration":1806601,"Delta":54557914},{"NoteNumber":70,"Velocity":32,"Duration":1424484,"SoundDuration":1424484,"Delta":54557914},{"NoteNumber":66,"Velocity":32,"Duration":1424484,"SoundDuration":1424484,"Delta":54557914},{"NoteNumber":65,"Velocity":32,"Duration":1806601,"SoundDuration":1806601,"Delta":54557914},{"NoteNumber":87,"Velocity":39,"Duration":382117,"SoundDuration":382117,"Delta":55600282},{"NoteNumber":82,"Velocity":36,"Duration":732390,"SoundDuration":732390,"Delta":55600282},{"NoteNumber":75,"Velocity":36,"Duration":382117,"SoundDuration":382117,"Delta":55600282},{"NoteNumber":63,"Velocity":31,"Duration":382117,"SoundDuration":382117,"Delta":55600282},{"NoteNumber":66,"Velocity":31,"Duration":732390,"SoundDuration":732390,"Delta":55600282},{"NoteNumber":70,"Velocity":31,"Duration":732390,"SoundDuration":732390,"Delta":55600282},{"NoteNumber":82,"Velocity":36,"Duration":382117,"SoundDuration":382117,"Delta":55982399},{"NoteNumber":87,"Velocity":39,"Duration":350273,"SoundDuration":350273,"Delta":55982399},{"NoteNumber":75,"Velocity":36,"Duration":350273,"SoundDuration":350273,"Delta":55982399},{"NoteNumber":63,"Velocity":31,"Duration":350273,"SoundDuration":350273,"Delta":55982399},{"NoteNumber":66,"Velocity":31,"Duration":382117,"SoundDuration":382117,"Delta":55982399},{"NoteNumber":70,"Velocity":31,"Duration":382117,"SoundDuration":382117,"Delta":55982399},{"NoteNumber":75,"Velocity":38,"Duration":394789,"SoundDuration":394789,"Delta":56364516},{"NoteNumber":87,"Velocity":41,"Duration":394789,"SoundDuration":394789,"Delta":56364516},{"NoteNumber":82,"Velocity":38,"Duration":394789,"SoundDuration":394789,"Delta":56364516},{"NoteNumber":63,"Velocity":32,"Duration":394789,"SoundDuration":394789,"Delta":56364516},{"NoteNumber":66,"Velocity":32,"Duration":394789,"SoundDuration":394789,"Delta":56364516},{"NoteNumber":70,"Velocity":32,"Duration":394789,"SoundDuration":394789,"Delta":56364516},{"NoteNumber":82,"Velocity":37,"Duration":382117,"SoundDuration":382117,"Delta":56759305},{"NoteNumber":73,"Velocity":37,"Duration":382117,"SoundDuration":382117,"Delta":56759305},{"NoteNumber":85,"Velocity":40,"Duration":382117,"SoundDuration":382117,"Delta":56759305},{"NoteNumber":61,"Velocity":31,"Duration":382117,"SoundDuration":382117,"Delta":56759305},{"NoteNumber":66,"Velocity":31,"Duration":382117,"SoundDuration":382117,"Delta":56759305},{"NoteNumber":70,"Velocity":31,"Duration":382117,"SoundDuration":382117,"Delta":56759305},{"NoteNumber":73,"Velocity":37,"Duration":350273,"SoundDuration":350273,"Delta":57141422},{"NoteNumber":85,"Velocity":40,"Duration":350273,"SoundDuration":350273,"Delta":57141422},{"NoteNumber":82,"Velocity":37,"Duration":350273,"SoundDuration":350273,"Delta":57141422},{"NoteNumber":61,"Velocity":31,"Duration":350273,"SoundDuration":350273,"Delta":57141422},{"NoteNumber":66,"Velocity":31,"Duration":350273,"SoundDuration":350273,"Delta":57141422},{"NoteNumber":70,"Velocity":31,"Duration":350273,"SoundDuration":350273,"Delta":57141422},{"NoteNumber":85,"Velocity":41,"Duration":394789,"SoundDuration":394789,"Delta":57523539},{"NoteNumber":73,"Velocity":38,"Duration":394789,"SoundDuration":394789,"Delta":57523539},{"NoteNumber":82,"Velocity":38,"Duration":394789,"SoundDuration":394789,"Delta":57523539},{"NoteNumber":61,"Velocity":34,"Duration":394789,"SoundDuration":394789,"Delta":57523539},{"NoteNumber":66,"Velocity":34,"Duration":394789,"SoundDuration":394789,"Delta":57523539},{"NoteNumber":70,"Velocity":34,"Duration":394789,"SoundDuration":394789,"Delta":57523539},{"NoteNumber":82,"Velocity":36,"Duration":382117,"SoundDuration":382117,"Delta":57918328},{"NoteNumber":78,"Velocity":36,"Duration":382117,"SoundDuration":382117,"Delta":57918328},{"NoteNumber":72,"Velocity":36,"Duration":382117,"SoundDuration":382117,"Delta":57918328},{"NoteNumber":84,"Velocity":39,"Duration":382117,"SoundDuration":382117,"Delta":57918328},{"NoteNumber":60,"Velocity":32,"Duration":382117,"SoundDuration":382117,"Delta":57918328},{"NoteNumber":66,"Velocity":32,"Duration":382117,"SoundDuration":382117,"Delta":57918328},{"NoteNumber":70,"Velocity":32,"Duration":382117,"SoundDuration":382117,"Delta":57918328},{"NoteNumber":72,"Velocity":36,"Duration":350273,"SoundDuration":350273,"Delta":58300445},{"NoteNumber":82,"Velocity":36,"Duration":350273,"SoundDuration":350273,"Delta":58300445},{"NoteNumber":84,"Velocity":39,"Duration":350273,"SoundDuration":350273,"Delta":58300445},{"NoteNumber":78,"Velocity":36,"Duration":350273,"SoundDuration":350273,"Delta":58300445},{"NoteNumber":60,"Velocity":32,"Duration":350273,"SoundDuration":350273,"Delta":58300445},{"NoteNumber":66,"Velocity":32,"Duration":350273,"SoundDuration":350273,"Delta":58300445},{"NoteNumber":70,"Velocity":32,"Duration":350273,"SoundDuration":350273,"Delta":58300445},{"NoteNumber":84,"Velocity":39,"Duration":602497,"SoundDuration":602497,"Delta":58682562},{"NoteNumber":72,"Velocity":36,"Duration":602497,"SoundDuration":602497,"Delta":58682562},{"NoteNumber":82,"Velocity":36,"Duration":602497,"SoundDuration":602497,"Delta":58682562},{"NoteNumber":78,"Velocity":36,"Duration":602497,"SoundDuration":602497,"Delta":58682562},{"NoteNumber":60,"Velocity":31,"Duration":602497,"SoundDuration":602497,"Delta":58682562},{"NoteNumber":66,"Velocity":31,"Duration":602497,"SoundDuration":602497,"Delta":58682562},{"NoteNumber":70,"Velocity":31,"Duration":602497,"SoundDuration":602497,"Delta":58682562},{"NoteNumber":82,"Velocity":33,"Duration":678003,"SoundDuration":678003,"Delta":59285059},{"NoteNumber":73,"Velocity":33,"Duration":678003,"SoundDuration":678003,"Delta":59285059},{"NoteNumber":85,"Velocity":36,"Duration":678003,"SoundDuration":678003,"Delta":59285059},{"NoteNumber":61,"Velocity":30,"Duration":678003,"SoundDuration":678003,"Delta":59285059},{"NoteNumber":66,"Velocity":30,"Duration":678003,"SoundDuration":678003,"Delta":59285059},{"NoteNumber":70,"Velocity":30,"Duration":678003,"SoundDuration":678003,"Delta":59285059},{"NoteNumber":70,"Velocity":33,"Duration":1394242,"SoundDuration":1394242,"Delta":59963063},{"NoteNumber":82,"Velocity":36,"Duration":1394242,"SoundDuration":1394242,"Delta":59963063},{"NoteNumber":78,"Velocity":33,"Duration":1394242,"SoundDuration":1394242,"Delta":59963063},{"NoteNumber":58,"Velocity":28,"Duration":1394242,"SoundDuration":1394242,"Delta":59963063},{"NoteNumber":61,"Velocity":28,"Duration":1394242,"SoundDuration":1394242,"Delta":59963063},{"NoteNumber":66,"Velocity":28,"Duration":1394242,"SoundDuration":1394242,"Delta":59963063},{"NoteNumber":46,"Velocity":36,"Duration":2431489,"SoundDuration":2431489,"Delta":61357305},{"NoteNumber":27,"Velocity":30,"Duration":2431489,"SoundDuration":2431489,"Delta":61357305},{"NoteNumber":39,"Velocity":30,"Duration":2431489,"SoundDuration":2431489,"Delta":61357305},{"NoteNumber":82,"Velocity":46,"Duration":1415039,"SoundDuration":1415039,"Delta":62001084},{"NoteNumber":89,"Velocity":48,"Duration":1756654,"SoundDuration":1756654,"Delta":62001084},{"NoteNumber":77,"Velocity":46,"Duration":1756654,"SoundDuration":1756654,"Delta":62001084},{"NoteNumber":70,"Velocity":34,"Duration":1415039,"SoundDuration":1415039,"Delta":62001084},{"NoteNumber":66,"Velocity":34,"Duration":1415039,"SoundDuration":1415039,"Delta":62001084},{"NoteNumber":65,"Velocity":34,"Duration":1756654,"SoundDuration":1756654,"Delta":62001084},{"NoteNumber":78,"Velocity":40,"Duration":372670,"SoundDuration":372670,"Delta":63043452},{"NoteNumber":90,"Velocity":42,"Duration":372670,"SoundDuration":372670,"Delta":63043452},{"NoteNumber":82,"Velocity":40,"Duration":714286,"SoundDuration":714286,"Delta":63043452},{"NoteNumber":66,"Velocity":34,"Duration":714286,"SoundDuration":714286,"Delta":63043452},{"NoteNumber":75,"Velocity":34,"Duration":372670,"SoundDuration":372670,"Delta":63043452},{"NoteNumber":70,"Velocity":34,"Duration":714286,"SoundDuration":714286,"Delta":63043452},{"NoteNumber":82,"Velocity":37,"Duration":372671,"SoundDuration":372671,"Delta":63416123},{"NoteNumber":89,"Velocity":38,"Duration":372671,"SoundDuration":372671,"Delta":63416123},{"NoteNumber":77,"Velocity":37,"Duration":372671,"SoundDuration":372671,"Delta":63416123},{"NoteNumber":65,"Velocity":32,"Duration":372671,"SoundDuration":372671,"Delta":63416123},{"NoteNumber":66,"Velocity":32,"Duration":372671,"SoundDuration":372671,"Delta":63416123},{"NoteNumber":70,"Velocity":32,"Duration":372671,"SoundDuration":372671,"Delta":63416123},{"NoteNumber":87,"Velocity":40,"Duration":348101,"SoundDuration":348101,"Delta":63788794},{"NoteNumber":75,"Velocity":39,"Duration":348101,"SoundDuration":348101,"Delta":63788794},{"NoteNumber":82,"Velocity":39,"Duration":348101,"SoundDuration":348101,"Delta":63788794},{"NoteNumber":63,"Velocity":33,"Duration":348101,"SoundDuration":348101,"Delta":63788794},{"NoteNumber":66,"Velocity":33,"Duration":348101,"SoundDuration":348101,"Delta":63788794},{"NoteNumber":70,"Velocity":33,"Duration":348101,"SoundDuration":348101,"Delta":63788794},{"NoteNumber":77,"Velocity":38,"Duration":370370,"SoundDuration":370370,"Delta":64168541},{"NoteNumber":89,"Velocity":39,"Duration":370370,"SoundDuration":370370,"Delta":64168541},{"NoteNumber":82,"Velocity":38,"Duration":370370,"SoundDuration":370370,"Delta":64168541},{"NoteNumber":65,"Velocity":32,"Duration":370370,"SoundDuration":370370,"Delta":64168541},{"NoteNumber":66,"Velocity":32,"Duration":370370,"SoundDuration":370370,"Delta":64168541},{"NoteNumber":70,"Velocity":32,"Duration":370370,"SoundDuration":370370,"Delta":64168541},{"NoteNumber":82,"Velocity":38,"Duration":368098,"SoundDuration":368098,"Delta":64538912},{"NoteNumber":87,"Velocity":39,"Duration":368098,"SoundDuration":368098,"Delta":64538912},{"NoteNumber":75,"Velocity":38,"Duration":368098,"SoundDuration":368098,"Delta":64538912},{"NoteNumber":63,"Velocity":32,"Duration":368098,"SoundDuration":368098,"Delta":64538912},{"NoteNumber":66,"Velocity":32,"Duration":368098,"SoundDuration":368098,"Delta":64538912},{"NoteNumber":70,"Velocity":32,"Duration":368098,"SoundDuration":368098,"Delta":64538912},{"NoteNumber":85,"Velocity":40,"Duration":357142,"SoundDuration":357142,"Delta":64907010},{"NoteNumber":82,"Velocity":39,"Duration":357142,"SoundDuration":357142,"Delta":64907010},{"NoteNumber":73,"Velocity":39,"Duration":357142,"SoundDuration":357142,"Delta":64907010},{"NoteNumber":61,"Velocity":35,"Duration":357142,"SoundDuration":357142,"Delta":64907010},{"NoteNumber":66,"Velocity":35,"Duration":357142,"SoundDuration":357142,"Delta":64907010},{"NoteNumber":70,"Velocity":35,"Duration":357142,"SoundDuration":357142,"Delta":64907010},{"NoteNumber":82,"Velocity":37,"Duration":382116,"SoundDuration":382116,"Delta":65296620},{"NoteNumber":75,"Velocity":37,"Duration":382116,"SoundDuration":382116,"Delta":65296620},{"NoteNumber":87,"Velocity":38,"Duration":382116,"SoundDuration":382116,"Delta":65296620},{"NoteNumber":63,"Velocity":33,"Duration":382116,"SoundDuration":382116,"Delta":65296620},{"NoteNumber":66,"Velocity":33,"Duration":382116,"SoundDuration":382116,"Delta":65296620},{"NoteNumber":70,"Velocity":33,"Duration":382116,"SoundDuration":382116,"Delta":65296620},{"NoteNumber":73,"Velocity":37,"Duration":350273,"SoundDuration":350273,"Delta":65678737},{"NoteNumber":82,"Velocity":37,"Duration":350273,"SoundDuration":350273,"Delta":65678737},{"NoteNumber":85,"Velocity":38,"Duration":350273,"SoundDuration":350273,"Delta":65678737},{"NoteNumber":61,"Velocity":33,"Duration":350273,"SoundDuration":350273,"Delta":65678737},{"NoteNumber":66,"Velocity":33,"Duration":350273,"SoundDuration":350273,"Delta":65678737},{"NoteNumber":70,"Velocity":33,"Duration":350273,"SoundDuration":350273,"Delta":65678737},{"NoteNumber":82,"Velocity":37,"Duration":549275,"SoundDuration":549275,"Delta":66060854},{"NoteNumber":72,"Velocity":37,"Duration":549275,"SoundDuration":549275,"Delta":66060854},{"NoteNumber":84,"Velocity":38,"Duration":549275,"SoundDuration":549275,"Delta":66060854},{"NoteNumber":60,"Velocity":32,"Duration":602497,"SoundDuration":602497,"Delta":66060854},{"NoteNumber":66,"Velocity":32,"Duration":602497,"SoundDuration":602497,"Delta":66060854},{"NoteNumber":70,"Velocity":32,"Duration":602497,"SoundDuration":602497,"Delta":66060854},{"NoteNumber":87,"Velocity":43,"Duration":53221,"SoundDuration":53221,"Delta":66610130},{"NoteNumber":85,"Velocity":37,"Duration":678003,"SoundDuration":678003,"Delta":66663352},{"NoteNumber":73,"Velocity":34,"Duration":678003,"SoundDuration":678003,"Delta":66663352},{"NoteNumber":82,"Velocity":34,"Duration":678003,"SoundDuration":678003,"Delta":66663352},{"NoteNumber":61,"Velocity":31,"Duration":678003,"SoundDuration":678003,"Delta":66663352},{"NoteNumber":66,"Velocity":31,"Duration":678003,"SoundDuration":678003,"Delta":66663352},{"NoteNumber":70,"Velocity":31,"Duration":678003,"SoundDuration":678003,"Delta":66663352},{"NoteNumber":70,"Velocity":33,"Duration":1872637,"SoundDuration":1872637,"Delta":67341355},{"NoteNumber":78,"Velocity":33,"Duration":1872637,"SoundDuration":1872637,"Delta":67341355},{"NoteNumber":82,"Velocity":35,"Duration":1872637,"SoundDuration":1872637,"Delta":67341355},{"NoteNumber":58,"Velocity":30,"Duration":1322259,"SoundDuration":1322259,"Delta":67341355},{"NoteNumber":63,"Velocity":30,"Duration":1322259,"SoundDuration":1322259,"Delta":67341355},{"NoteNumber":66,"Velocity":30,"Duration":1322259,"SoundDuration":1322259,"Delta":67341355},{"NoteNumber":32,"Velocity":35,"Duration":2118514,"SoundDuration":2118514,"Delta":68663614},{"NoteNumber":44,"Velocity":42,"Duration":2118514,"SoundDuration":2118514,"Delta":68663614},{"NoteNumber":78,"Velocity":51,"Duration":517776,"SoundDuration":517776,"Delta":69213993},{"NoteNumber":66,"Velocity":49,"Duration":517776,"SoundDuration":517776,"Delta":69213993},{"NoteNumber":54,"Velocity":48,"Duration":517776,"SoundDuration":517776,"Delta":69213993},{"NoteNumber":75,"Velocity":45,"Duration":517057,"SoundDuration":517057,"Delta":69731769},{"NoteNumber":80,"Velocity":47,"Duration":517057,"SoundDuration":517057,"Delta":69731769},{"NoteNumber":68,"Velocity":45,"Duration":517057,"SoundDuration":517057,"Delta":69731769},{"NoteNumber":63,"Velocity":39,"Duration":1050359,"SoundDuration":1050359,"Delta":69731769},{"NoteNumber":60,"Velocity":33,"Duration":1050359,"SoundDuration":1050359,"Delta":69731769},{"NoteNumber":56,"Velocity":38,"Duration":517057,"SoundDuration":517057,"Delta":69731769},{"NoteNumber":72,"Velocity":49,"Duration":533301,"SoundDuration":533301,"Delta":70248827},{"NoteNumber":84,"Velocity":51,"Duration":533301,"SoundDuration":533301,"Delta":70248827},{"NoteNumber":60,"Velocity":50,"Duration":533301,"SoundDuration":533301,"Delta":70248827},{"NoteNumber":70,"Velocity":46,"Duration":546381,"SoundDuration":546381,"Delta":70782128},{"NoteNumber":82,"Velocity":48,"Duration":546381,"SoundDuration":546381,"Delta":70782128},{"NoteNumber":78,"Velocity":46,"Duration":546381,"SoundDuration":546381,"Delta":70782128},{"NoteNumber":66,"Velocity":40,"Duration":1093081,"SoundDuration":1093081,"Delta":70782128},{"NoteNumber":63,"Velocity":34,"Duration":1093081,"SoundDuration":1093081,"Delta":70782128},{"NoteNumber":58,"Velocity":39,"Duration":546381,"SoundDuration":546381,"Delta":70782128},{"NoteNumber":66,"Velocity":44,"Duration":546699,"SoundDuration":546699,"Delta":71328510},{"NoteNumber":78,"Velocity":46,"Duration":546699,"SoundDuration":546699,"Delta":71328510},{"NoteNumber":54,"Velocity":44,"Duration":546699,"SoundDuration":546699,"Delta":71328510},{"NoteNumber":33,"Velocity":35,"Duration":2021795,"SoundDuration":2021795,"Delta":71875210},{"NoteNumber":45,"Velocity":42,"Duration":2021795,"SoundDuration":2021795,"Delta":71875210},{"NoteNumber":75,"Velocity":36,"Duration":335195,"SoundDuration":335195,"Delta":72241317},{"NoteNumber":66,"Velocity":36,"Duration":335195,"SoundDuration":335195,"Delta":72241317},{"NoteNumber":78,"Velocity":39,"Duration":335195,"SoundDuration":335195,"Delta":72241317},{"NoteNumber":72,"Velocity":36,"Duration":335195,"SoundDuration":335195,"Delta":72241317},{"NoteNumber":63,"Velocity":30,"Duration":335195,"SoundDuration":335195,"Delta":72241317},{"NoteNumber":60,"Velocity":30,"Duration":335195,"SoundDuration":335195,"Delta":72241317},{"NoteNumber":54,"Velocity":30,"Duration":335195,"SoundDuration":335195,"Delta":72241317},{"NoteNumber":66,"Velocity":36,"Duration":312500,"SoundDuration":312500,"Delta":72576513},{"NoteNumber":72,"Velocity":36,"Duration":326087,"SoundDuration":326087,"Delta":72576513},{"NoteNumber":75,"Velocity":36,"Duration":312500,"SoundDuration":312500,"Delta":72576513},{"NoteNumber":78,"Velocity":39,"Duration":312500,"SoundDuration":312500,"Delta":72576513},{"NoteNumber":63,"Velocity":30,"Duration":312500,"SoundDuration":312500,"Delta":72576513},{"NoteNumber":60,"Velocity":30,"Duration":312500,"SoundDuration":312500,"Delta":72576513},{"NoteNumber":54,"Velocity":30,"Duration":312500,"SoundDuration":312500,"Delta":72576513},{"NoteNumber":75,"Velocity":39,"Duration":329670,"SoundDuration":329670,"Delta":72902600},{"NoteNumber":78,"Velocity":42,"Duration":329670,"SoundDuration":329670,"Delta":72902600},{"NoteNumber":66,"Velocity":39,"Duration":329670,"SoundDuration":329670,"Delta":72902600},{"NoteNumber":72,"Velocity":39,"Duration":329670,"SoundDuration":329670,"Delta":72902600},{"NoteNumber":63,"Velocity":33,"Duration":329670,"SoundDuration":329670,"Delta":72902600},{"NoteNumber":60,"Velocity":33,"Duration":329670,"SoundDuration":329670,"Delta":72902600},{"NoteNumber":54,"Velocity":33,"Duration":329670,"SoundDuration":329670,"Delta":72902600},{"NoteNumber":72,"Velocity":37,"Duration":294117,"SoundDuration":294117,"Delta":73232270},{"NoteNumber":75,"Velocity":37,"Duration":294117,"SoundDuration":294117,"Delta":73232270},{"NoteNumber":78,"Velocity":40,"Duration":294117,"SoundDuration":294117,"Delta":73232270},{"NoteNumber":66,"Velocity":37,"Duration":294117,"SoundDuration":294117,"Delta":73232270},{"NoteNumber":63,"Velocity":31,"Duration":294117,"SoundDuration":294117,"Delta":73232270},{"NoteNumber":60,"Velocity":31,"Duration":294117,"SoundDuration":294117,"Delta":73232270},{"NoteNumber":54,"Velocity":31,"Duration":294117,"SoundDuration":294117,"Delta":73232270},{"NoteNumber":80,"Velocity":44,"Duration":343879,"SoundDuration":343879,"Delta":73553126},{"NoteNumber":72,"Velocity":40,"Duration":343879,"SoundDuration":343879,"Delta":73553126},{"NoteNumber":68,"Velocity":40,"Duration":343879,"SoundDuration":343879,"Delta":73553126},{"NoteNumber":75,"Velocity":40,"Duration":343879,"SoundDuration":343879,"Delta":73553126},{"NoteNumber":56,"Velocity":34,"Duration":343879,"SoundDuration":343879,"Delta":73553126},{"NoteNumber":60,"Velocity":34,"Duration":343879,"SoundDuration":343879,"Delta":73553126},{"NoteNumber":63,"Velocity":34,"Duration":343879,"SoundDuration":343879,"Delta":73553126},{"NoteNumber":66,"Velocity":39,"Duration":1031637,"SoundDuration":1031637,"Delta":73897005},{"NoteNumber":78,"Velocity":42,"Duration":1031637,"SoundDuration":1031637,"Delta":73897005},{"NoteNumber":72,"Velocity":39,"Duration":1031637,"SoundDuration":1031637,"Delta":73897005},{"NoteNumber":75,"Velocity":39,"Duration":1031637,"SoundDuration":1031637,"Delta":73897005},{"NoteNumber":54,"Velocity":33,"Duration":1031637,"SoundDuration":1031637,"Delta":73897005},{"NoteNumber":60,"Velocity":33,"Duration":1031637,"SoundDuration":1031637,"Delta":73897005},{"NoteNumber":63,"Velocity":33,"Duration":1031637,"SoundDuration":1031637,"Delta":73897005},{"NoteNumber":34,"Velocity":39,"Duration":2052750,"SoundDuration":2052750,"Delta":74928642},{"NoteNumber":46,"Velocity":46,"Duration":2052750,"SoundDuration":2052750,"Delta":74928642},{"NoteNumber":66,"Velocity":41,"Duration":506756,"SoundDuration":506756,"Delta":75456842},{"NoteNumber":78,"Velocity":53,"Duration":506756,"SoundDuration":506756,"Delta":75456842},{"NoteNumber":73,"Velocity":45,"Duration":1010264,"SoundDuration":1010264,"Delta":75456842},{"NoteNumber":61,"Velocity":38,"Duration":1010264,"SoundDuration":1010264,"Delta":75456842},{"NoteNumber":58,"Velocity":38,"Duration":1010264,"SoundDuration":1010264,"Delta":75456842},{"NoteNumber":54,"Velocity":40,"Duration":506756,"SoundDuration":506756,"Delta":75456842},{"NoteNumber":68,"Velocity":55,"Duration":503507,"SoundDuration":503507,"Delta":75963599},{"NoteNumber":80,"Velocity":60,"Duration":503507,"SoundDuration":503507,"Delta":75963599},{"NoteNumber":56,"Velocity":45,"Duration":503507,"SoundDuration":503507,"Delta":75963599},{"NoteNumber":85,"Velocity":60,"Duration":514285,"SoundDuration":514285,"Delta":76467107},{"NoteNumber":73,"Velocity":55,"Duration":514285,"SoundDuration":514285,"Delta":76467107},{"NoteNumber":61,"Velocity":44,"Duration":514285,"SoundDuration":514285,"Delta":76467107},{"NoteNumber":70,"Velocity":44,"Duration":534758,"SoundDuration":534758,"Delta":76981392},{"NoteNumber":82,"Velocity":57,"Duration":534758,"SoundDuration":534758,"Delta":76981392},{"NoteNumber":78,"Velocity":52,"Duration":1069518,"SoundDuration":1069518,"Delta":76981392},{"NoteNumber":66,"Velocity":43,"Duration":1069518,"SoundDuration":1069518,"Delta":76981392},{"NoteNumber":61,"Velocity":43,"Duration":1069518,"SoundDuration":1069518,"Delta":76981392},{"NoteNumber":58,"Velocity":43,"Duration":534758,"SoundDuration":534758,"Delta":76981392},{"NoteNumber":78,"Velocity":52,"Duration":534759,"SoundDuration":534759,"Delta":77516151},{"NoteNumber":66,"Velocity":48,"Duration":534759,"SoundDuration":534759,"Delta":77516151},{"NoteNumber":54,"Velocity":41,"Duration":534759,"SoundDuration":534759,"Delta":77516151},{"NoteNumber":36,"Velocity":38,"Duration":1970790,"SoundDuration":1970790,"Delta":78050910},{"NoteNumber":48,"Velocity":45,"Duration":1970790,"SoundDuration":1970790,"Delta":78050910},{"NoteNumber":70,"Velocity":39,"Duration":325132,"SoundDuration":325132,"Delta":78397731},{"NoteNumber":66,"Velocity":39,"Duration":325132,"SoundDuration":325132,"Delta":78397731},{"NoteNumber":75,"Velocity":39,"Duration":325132,"SoundDuration":325132,"Delta":78397731},{"NoteNumber":78,"Velocity":42,"Duration":325132,"SoundDuration":325132,"Delta":78397731},{"NoteNumber":63,"Velocity":33,"Duration":325132,"SoundDuration":325132,"Delta":78397731},{"NoteNumber":58,"Velocity":33,"Duration":325132,"SoundDuration":325132,"Delta":78397731},{"NoteNumber":54,"Velocity":33,"Duration":325132,"SoundDuration":325132,"Delta":78397731},{"NoteNumber":70,"Velocity":39,"Duration":319489,"SoundDuration":319489,"Delta":78722864},{"NoteNumber":75,"Velocity":39,"Duration":306176,"SoundDuration":306176,"Delta":78722864},{"NoteNumber":66,"Velocity":39,"Duration":306176,"SoundDuration":306176,"Delta":78722864},{"NoteNumber":78,"Velocity":42,"Duration":306176,"SoundDuration":306176,"Delta":78722864},{"NoteNumber":63,"Velocity":33,"Duration":306176,"SoundDuration":306176,"Delta":78722864},{"NoteNumber":58,"Velocity":33,"Duration":306176,"SoundDuration":306176,"Delta":78722864},{"NoteNumber":54,"Velocity":33,"Duration":306176,"SoundDuration":306176,"Delta":78722864},{"NoteNumber":70,"Velocity":42,"Duration":325132,"SoundDuration":325132,"Delta":79042353},{"NoteNumber":78,"Velocity":46,"Duration":325132,"SoundDuration":325132,"Delta":79042353},{"NoteNumber":66,"Velocity":42,"Duration":325132,"SoundDuration":325132,"Delta":79042353},{"NoteNumber":75,"Velocity":42,"Duration":325132,"SoundDuration":325132,"Delta":79042353},{"NoteNumber":63,"Velocity":35,"Duration":325132,"SoundDuration":325132,"Delta":79042353},{"NoteNumber":58,"Velocity":35,"Duration":325132,"SoundDuration":325132,"Delta":79042353},{"NoteNumber":54,"Velocity":35,"Duration":325132,"SoundDuration":325132,"Delta":79042353},{"NoteNumber":66,"Velocity":40,"Duration":292709,"SoundDuration":292709,"Delta":79367486},{"NoteNumber":70,"Velocity":40,"Duration":292709,"SoundDuration":292709,"Delta":79367486},{"NoteNumber":75,"Velocity":40,"Duration":292709,"SoundDuration":292709,"Delta":79367486},{"NoteNumber":78,"Velocity":44,"Duration":292709,"SoundDuration":292709,"Delta":79367486},{"NoteNumber":63,"Velocity":34,"Duration":292709,"SoundDuration":292709,"Delta":79367486},{"NoteNumber":58,"Velocity":34,"Duration":292709,"SoundDuration":292709,"Delta":79367486},{"NoteNumber":54,"Velocity":34,"Duration":292709,"SoundDuration":292709,"Delta":79367486},{"NoteNumber":72,"Velocity":43,"Duration":334896,"SoundDuration":334896,"Delta":79686805},{"NoteNumber":68,"Velocity":43,"Duration":334896,"SoundDuration":334896,"Delta":79686805},{"NoteNumber":80,"Velocity":47,"Duration":334896,"SoundDuration":334896,"Delta":79686805},{"NoteNumber":77,"Velocity":43,"Duration":334896,"SoundDuration":334896,"Delta":79686805},{"NoteNumber":56,"Velocity":36,"Duration":334896,"SoundDuration":334896,"Delta":79686805},{"NoteNumber":60,"Velocity":36,"Duration":334896,"SoundDuration":334896,"Delta":79686805},{"NoteNumber":65,"Velocity":36,"Duration":334896,"SoundDuration":334896,"Delta":79686805},{"NoteNumber":70,"Velocity":42,"Duration":1004688,"SoundDuration":1004688,"Delta":80021701},{"NoteNumber":75,"Velocity":42,"Duration":1004688,"SoundDuration":1004688,"Delta":80021701},{"NoteNumber":78,"Velocity":46,"Duration":1004688,"SoundDuration":1004688,"Delta":80021701},{"NoteNumber":66,"Velocity":42,"Duration":1004688,"SoundDuration":1004688,"Delta":80021701},{"NoteNumber":54,"Velocity":35,"Duration":1004688,"SoundDuration":1004688,"Delta":80021701},{"NoteNumber":58,"Velocity":35,"Duration":1004688,"SoundDuration":1004688,"Delta":80021701},{"NoteNumber":63,"Velocity":35,"Duration":1004688,"SoundDuration":1004688,"Delta":80021701},{"NoteNumber":37,"Velocity":43,"Duration":2041193,"SoundDuration":2041193,"Delta":81026389},{"NoteNumber":49,"Velocity":51,"Duration":2041193,"SoundDuration":2041193,"Delta":81026389},{"NoteNumber":78,"Velocity":61,"Duration":506756,"SoundDuration":506756,"Delta":81554590},{"NoteNumber":73,"Velocity":49,"Duration":1007375,"SoundDuration":1007375,"Delta":81554590},{"NoteNumber":70,"Velocity":49,"Duration":1007375,"SoundDuration":1007375,"Delta":81554590},{"NoteNumber":66,"Velocity":54,"Duration":506756,"SoundDuration":506756,"Delta":81554590},{"NoteNumber":61,"Velocity":41,"Duration":1007375,"SoundDuration":1007375,"Delta":81554590},{"NoteNumber":58,"Velocity":41,"Duration":1007375,"SoundDuration":1007375,"Delta":81554590},{"NoteNumber":54,"Velocity":44,"Duration":506756,"SoundDuration":506756,"Delta":81554590},{"NoteNumber":68,"Velocity":61,"Duration":500618,"SoundDuration":500618,"Delta":82061347},{"NoteNumber":80,"Velocity":70,"Duration":500618,"SoundDuration":500618,"Delta":82061347},{"NoteNumber":56,"Velocity":49,"Duration":500618,"SoundDuration":500618,"Delta":82061347},{"NoteNumber":87,"Velocity":71,"Duration":505617,"SoundDuration":505617,"Delta":82561965},{"NoteNumber":75,"Velocity":62,"Duration":505617,"SoundDuration":505617,"Delta":82561965},{"NoteNumber":63,"Velocity":51,"Duration":505617,"SoundDuration":505617,"Delta":82561965},{"NoteNumber":73,"Velocity":48,"Duration":534758,"SoundDuration":534758,"Delta":83067583},{"NoteNumber":78,"Velocity":49,"Duration":1069518,"SoundDuration":1069518,"Delta":83067583},{"NoteNumber":82,"Velocity":49,"Duration":1069518,"SoundDuration":1069518,"Delta":83067583},{"NoteNumber":85,"Velocity":65,"Duration":534758,"SoundDuration":534758,"Delta":83067583},{"NoteNumber":70,"Velocity":47,"Duration":1069518,"SoundDuration":1069518,"Delta":83067583},{"NoteNumber":66,"Velocity":47,"Duration":1069518,"SoundDuration":1069518,"Delta":83067583},{"NoteNumber":61,"Velocity":47,"Duration":534758,"SoundDuration":534758,"Delta":83067583},{"NoteNumber":70,"Velocity":57,"Duration":534759,"SoundDuration":534759,"Delta":83602342},{"NoteNumber":82,"Velocity":65,"Duration":534759,"SoundDuration":534759,"Delta":83602342},{"NoteNumber":58,"Velocity":49,"Duration":534759,"SoundDuration":534759,"Delta":83602342},{"NoteNumber":39,"Velocity":41,"Duration":1970790,"SoundDuration":1970790,"Delta":84137101},{"NoteNumber":51,"Velocity":49,"Duration":1970790,"SoundDuration":1970790,"Delta":84137101},{"NoteNumber":82,"Velocity":50,"Duration":325132,"SoundDuration":325132,"Delta":84483922},{"NoteNumber":70,"Velocity":48,"Duration":325132,"SoundDuration":325132,"Delta":84483922},{"NoteNumber":78,"Velocity":48,"Duration":325132,"SoundDuration":325132,"Delta":84483922},{"NoteNumber":63,"Velocity":40,"Duration":325132,"SoundDuration":325132,"Delta":84483922},{"NoteNumber":58,"Velocity":40,"Duration":325132,"SoundDuration":325132,"Delta":84483922},{"NoteNumber":54,"Velocity":40,"Duration":325132,"SoundDuration":325132,"Delta":84483922},{"NoteNumber":82,"Velocity":50,"Duration":306176,"SoundDuration":306176,"Delta":84809055},{"NoteNumber":78,"Velocity":48,"Duration":306176,"SoundDuration":306176,"Delta":84809055},{"NoteNumber":70,"Velocity":48,"Duration":319489,"SoundDuration":319489,"Delta":84809055},{"NoteNumber":63,"Velocity":40,"Duration":306176,"SoundDuration":306176,"Delta":84809055},{"NoteNumber":58,"Velocity":40,"Duration":306176,"SoundDuration":306176,"Delta":84809055},{"NoteNumber":54,"Velocity":40,"Duration":306176,"SoundDuration":306176,"Delta":84809055},{"NoteNumber":82,"Velocity":53,"Duration":325132,"SoundDuration":325132,"Delta":85128544},{"NoteNumber":70,"Velocity":51,"Duration":325132,"SoundDuration":325132,"Delta":85128544},{"NoteNumber":78,"Velocity":51,"Duration":325132,"SoundDuration":325132,"Delta":85128544},{"NoteNumber":63,"Velocity":43,"Duration":325132,"SoundDuration":325132,"Delta":85128544},{"NoteNumber":58,"Velocity":43,"Duration":325132,"SoundDuration":325132,"Delta":85128544},{"NoteNumber":54,"Velocity":43,"Duration":325132,"SoundDuration":325132,"Delta":85128544},{"NoteNumber":70,"Velocity":49,"Duration":292709,"SoundDuration":292709,"Delta":85453677},{"NoteNumber":82,"Velocity":51,"Duration":292709,"SoundDuration":292709,"Delta":85453677},{"NoteNumber":78,"Velocity":49,"Duration":292709,"SoundDuration":292709,"Delta":85453677},{"NoteNumber":63,"Velocity":41,"Duration":292709,"SoundDuration":292709,"Delta":85453677},{"NoteNumber":58,"Velocity":41,"Duration":292709,"SoundDuration":292709,"Delta":85453677},{"NoteNumber":54,"Velocity":41,"Duration":292709,"SoundDuration":292709,"Delta":85453677},{"NoteNumber":80,"Velocity":50,"Duration":334896,"SoundDuration":334896,"Delta":85772996},{"NoteNumber":72,"Velocity":50,"Duration":334896,"SoundDuration":334896,"Delta":85772996},{"NoteNumber":84,"Velocity":52,"Duration":334896,"SoundDuration":334896,"Delta":85772996},{"NoteNumber":56,"Velocity":42,"Duration":334896,"SoundDuration":334896,"Delta":85772996},{"NoteNumber":60,"Velocity":42,"Duration":334896,"SoundDuration":334896,"Delta":85772996},{"NoteNumber":65,"Velocity":42,"Duration":334896,"SoundDuration":334896,"Delta":85772996},{"NoteNumber":78,"Velocity":50,"Duration":317919,"SoundDuration":317919,"Delta":86107892},{"NoteNumber":70,"Velocity":50,"Duration":317919,"SoundDuration":317919,"Delta":86107892},{"NoteNumber":82,"Velocity":52,"Duration":317919,"SoundDuration":317919,"Delta":86107892},{"NoteNumber":63,"Velocity":42,"Duration":317919,"SoundDuration":317919,"Delta":86107892},{"NoteNumber":58,"Velocity":42,"Duration":317919,"SoundDuration":317919,"Delta":86107892},{"NoteNumber":54,"Velocity":42,"Duration":317919,"SoundDuration":317919,"Delta":86107892},{"NoteNumber":82,"Velocity":51,"Duration":333333,"SoundDuration":333333,"Delta":86454713},{"NoteNumber":73,"Velocity":51,"Duration":333333,"SoundDuration":333333,"Delta":86454713},{"NoteNumber":85,"Velocity":53,"Duration":333333,"SoundDuration":333333,"Delta":86454713},{"NoteNumber":61,"Velocity":43,"Duration":333333,"SoundDuration":333333,"Delta":86454713},{"NoteNumber":66,"Velocity":43,"Duration":333333,"SoundDuration":333333,"Delta":86454713},{"NoteNumber":70,"Velocity":43,"Duration":333333,"SoundDuration":333333,"Delta":86454713},{"NoteNumber":87,"Velocity":57,"Duration":173410,"SoundDuration":173410,"Delta":86788046},{"NoteNumber":75,"Velocity":55,"Duration":173410,"SoundDuration":173410,"Delta":86788046},{"NoteNumber":82,"Velocity":55,"Duration":173410,"SoundDuration":173410,"Delta":86788046},{"NoteNumber":63,"Velocity":45,"Duration":173410,"SoundDuration":173410,"Delta":86788046},{"NoteNumber":66,"Velocity":45,"Duration":173410,"SoundDuration":173410,"Delta":86788046},{"NoteNumber":70,"Velocity":45,"Duration":173410,"SoundDuration":173410,"Delta":86788046},{"NoteNumber":65,"Velocity":38,"Duration":2073852,"SoundDuration":2073852,"Delta":86961457},{"NoteNumber":68,"Velocity":39,"Duration":2027123,"SoundDuration":2027123,"Delta":87008186},{"NoteNumber":73,"Velocity":40,"Duration":1980394,"SoundDuration":1980394,"Delta":87054915},{"NoteNumber":77,"Velocity":42,"Duration":1933665,"SoundDuration":1933665,"Delta":87101644},{"NoteNumber":80,"Velocity":51,"Duration":1886936,"SoundDuration":1886936,"Delta":87148373},{"NoteNumber":85,"Velocity":56,"Duration":1840207,"SoundDuration":1840207,"Delta":87195102},{"NoteNumber":92,"Velocity":65,"Duration":1793478,"SoundDuration":1793478,"Delta":87241831},{"NoteNumber":64,"Velocity":33,"Duration":1127831,"SoundDuration":1127831,"Delta":89035309},{"NoteNumber":68,"Velocity":34,"Duration":1088111,"SoundDuration":1088111,"Delta":89075029},{"NoteNumber":70,"Velocity":34,"Duration":1048392,"SoundDuration":1048392,"Delta":89114748},{"NoteNumber":73,"Velocity":36,"Duration":1008672,"SoundDuration":1008672,"Delta":89154468},{"NoteNumber":76,"Velocity":37,"Duration":968952,"SoundDuration":968952,"Delta":89194187},{"NoteNumber":80,"Velocity":45,"Duration":929233,"SoundDuration":929233,"Delta":89233907},{"NoteNumber":85,"Velocity":50,"Duration":889513,"SoundDuration":889513,"Delta":89273627},{"NoteNumber":92,"Velocity":55,"Duration":847457,"SoundDuration":847457,"Delta":89315683},{"NoteNumber":63,"Velocity":33,"Duration":2096284,"SoundDuration":2096284,"Delta":90163140},{"NoteNumber":66,"Velocity":34,"Duration":2052013,"SoundDuration":2052013,"Delta":90207411},{"NoteNumber":68,"Velocity":34,"Duration":2007743,"SoundDuration":2007743,"Delta":90251682},{"NoteNumber":73,"Velocity":36,"Duration":1963472,"SoundDuration":1963472,"Delta":90295953},{"NoteNumber":75,"Velocity":37,"Duration":1919201,"SoundDuration":1919201,"Delta":90340224},{"NoteNumber":80,"Velocity":45,"Duration":1874930,"SoundDuration":1874930,"Delta":90384494},{"NoteNumber":85,"Velocity":50,"Duration":1830659,"SoundDuration":1830659,"Delta":90428765},{"NoteNumber":92,"Velocity":55,"Duration":1783784,"SoundDuration":1783784,"Delta":90475640},{"NoteNumber":56,"Velocity":27,"Duration":1803450,"SoundDuration":1803450,"Delta":92259425},{"NoteNumber":63,"Velocity":28,"Duration":1724085,"SoundDuration":1724085,"Delta":92338790},{"NoteNumber":66,"Velocity":30,"Duration":1640752,"SoundDuration":1640752,"Delta":92422123},{"NoteNumber":72,"Velocity":31,"Duration":1553032,"SoundDuration":1553032,"Delta":92509843},{"NoteNumber":68,"Velocity":32,"Duration":1460440,"SoundDuration":1460440,"Delta":92602435},{"NoteNumber":75,"Velocity":33,"Duration":1362401,"SoundDuration":1362401,"Delta":92700475},{"NoteNumber":80,"Velocity":39,"Duration":1258234,"SoundDuration":1258234,"Delta":92804641},{"NoteNumber":68,"Velocity":40,"Duration":2072522,"SoundDuration":2072522,"Delta":94062876},{"NoteNumber":65,"Velocity":37,"Duration":2072522,"SoundDuration":2072522,"Delta":94062876},{"NoteNumber":37,"Velocity":32,"Duration":514285,"SoundDuration":514285,"Delta":94062876},{"NoteNumber":44,"Velocity":30,"Duration":171428,"SoundDuration":171428,"Delta":94234304},{"NoteNumber":49,"Velocity":30,"Duration":171428,"SoundDuration":171428,"Delta":94405733},{"NoteNumber":53,"Velocity":30,"Duration":171428,"SoundDuration":171428,"Delta":94577161},{"NoteNumber":56,"Velocity":30,"Duration":171428,"SoundDuration":171428,"Delta":94748590},{"NoteNumber":61,"Velocity":30,"Duration":180723,"SoundDuration":180723,"Delta":94920018},{"NoteNumber":41,"Velocity":33,"Duration":514285,"SoundDuration":514285,"Delta":95100741},{"NoteNumber":48,"Velocity":26,"Duration":171428,"SoundDuration":171428,"Delta":95272170},{"NoteNumber":53,"Velocity":27,"Duration":171428,"SoundDuration":171428,"Delta":95443598},{"NoteNumber":56,"Velocity":28,"Duration":171428,"SoundDuration":171428,"Delta":95615027},{"NoteNumber":60,"Velocity":30,"Duration":171428,"SoundDuration":171428,"Delta":95786455},{"NoteNumber":65,"Velocity":31,"Duration":177514,"SoundDuration":177514,"Delta":95957884},{"NoteNumber":68,"Velocity":36,"Duration":1089893,"SoundDuration":1089893,"Delta":96135398},{"NoteNumber":71,"Velocity":39,"Duration":693641,"SoundDuration":693641,"Delta":96135398},{"NoteNumber":44,"Velocity":34,"Duration":520231,"SoundDuration":520231,"Delta":96135398},{"NoteNumber":52,"Velocity":32,"Duration":173410,"SoundDuration":173410,"Delta":96308809},{"NoteNumber":56,"Velocity":32,"Duration":173410,"SoundDuration":173410,"Delta":96482219},{"NoteNumber":59,"Velocity":32,"Duration":173410,"SoundDuration":173410,"Delta":96655630},{"NoteNumber":73,"Velocity":37,"Duration":396251,"SoundDuration":396251,"Delta":96829040},{"NoteNumber":64,"Velocity":32,"Duration":193548,"SoundDuration":193548,"Delta":96829040},{"NoteNumber":68,"Velocity":32,"Duration":199324,"SoundDuration":199324,"Delta":97022589},{"NoteNumber":65,"Velocity":37,"Duration":1842794,"SoundDuration":1842794,"Delta":97225292},{"NoteNumber":68,"Velocity":40,"Duration":2035027,"SoundDuration":2035027,"Delta":97225292},{"NoteNumber":37,"Velocity":33,"Duration":514285,"SoundDuration":514285,"Delta":97225292},{"NoteNumber":44,"Velocity":30,"Duration":171428,"SoundDuration":171428,"Delta":97396720},{"NoteNumber":49,"Velocity":30,"Duration":171428,"SoundDuration":171428,"Delta":97568149},{"NoteNumber":53,"Velocity":30,"Duration":171428,"SoundDuration":171428,"Delta":97739577},{"NoteNumber":56,"Velocity":30,"Duration":171428,"SoundDuration":171428,"Delta":97911006},{"NoteNumber":61,"Velocity":30,"Duration":179640,"SoundDuration":179640,"Delta":98082434},{"NoteNumber":41,"Velocity":33,"Duration":491803,"SoundDuration":491803,"Delta":98262075},{"NoteNumber":48,"Velocity":30,"Duration":163934,"SoundDuration":163934,"Delta":98426009},{"NoteNumber":53,"Velocity":30,"Duration":163934,"SoundDuration":163934,"Delta":98589944},{"NoteNumber":56,"Velocity":31,"Duration":163934,"SoundDuration":163934,"Delta":98753878},{"NoteNumber":60,"Velocity":32,"Duration":163934,"SoundDuration":163934,"Delta":98917813},{"NoteNumber":65,"Velocity":32,"Duration":178571,"SoundDuration":178571,"Delta":99081747},{"NoteNumber":68,"Velocity":37,"Duration":652174,"SoundDuration":652174,"Delta":99260319},{"NoteNumber":71,"Velocity":40,"Duration":652174,"SoundDuration":652174,"Delta":99260319},{"NoteNumber":44,"Velocity":34,"Duration":489130,"SoundDuration":489130,"Delta":99260319},{"NoteNumber":52,"Velocity":32,"Duration":163043,"SoundDuration":163043,"Delta":99423362},{"NoteNumber":56,"Velocity":32,"Duration":163043,"SoundDuration":163043,"Delta":99586406},{"NoteNumber":59,"Velocity":32,"Duration":163043,"SoundDuration":163043,"Delta":99749449},{"NoteNumber":68,"Velocity":40,"Duration":319148,"SoundDuration":319148,"Delta":99912493},{"NoteNumber":64,"Velocity":32,"Duration":159574,"SoundDuration":159574,"Delta":100072067},{"NoteNumber":65,"Velocity":42,"Duration":634921,"SoundDuration":634921,"Delta":100231642},{"NoteNumber":73,"Velocity":46,"Duration":634921,"SoundDuration":634921,"Delta":100231642},{"NoteNumber":37,"Velocity":33,"Duration":158730,"SoundDuration":158730,"Delta":100231642},{"NoteNumber":44,"Velocity":33,"Duration":158730,"SoundDuration":158730,"Delta":100390372},{"NoteNumber":49,"Velocity":33,"Duration":158730,"SoundDuration":158730,"Delta":100549102},{"NoteNumber":53,"Velocity":33,"Duration":158730,"SoundDuration":158730,"Delta":100707833},{"NoteNumber":75,"Velocity":44,"Duration":315162,"SoundDuration":315162,"Delta":100866563},{"NoteNumber":68,"Velocity":40,"Duration":315162,"SoundDuration":315162,"Delta":100866563},{"NoteNumber":56,"Velocity":33,"Duration":156225,"SoundDuration":156225,"Delta":100866563},{"NoteNumber":61,"Velocity":33,"Duration":158936,"SoundDuration":158936,"Delta":101022788},{"NoteNumber":77,"Velocity":48,"Duration":927835,"SoundDuration":927835,"Delta":101181725},{"NoteNumber":73,"Velocity":44,"Duration":927835,"SoundDuration":927835,"Delta":101181725},{"NoteNumber":65,"Velocity":34,"Duration":154639,"SoundDuration":154639,"Delta":101181725},{"NoteNumber":68,"Velocity":34,"Duration":154639,"SoundDuration":154639,"Delta":101336364},{"NoteNumber":65,"Velocity":34,"Duration":154639,"SoundDuration":154639,"Delta":101491004},{"NoteNumber":61,"Velocity":34,"Duration":154639,"SoundDuration":154639,"Delta":101645643},{"NoteNumber":56,"Velocity":34,"Duration":154639,"SoundDuration":154639,"Delta":101800282},{"NoteNumber":53,"Velocity":36,"Duration":154639,"SoundDuration":154639,"Delta":101954921},{"NoteNumber":65,"Velocity":43,"Duration":638298,"SoundDuration":638298,"Delta":102109561},{"NoteNumber":73,"Velocity":47,"Duration":638298,"SoundDuration":638298,"Delta":102109561},{"NoteNumber":56,"Velocity":36,"Duration":159574,"SoundDuration":159574,"Delta":102109561},{"NoteNumber":53,"Velocity":36,"Duration":159574,"SoundDuration":159574,"Delta":102269135},{"NoteNumber":49,"Velocity":36,"Duration":159574,"SoundDuration":159574,"Delta":102428710},{"NoteNumber":44,"Velocity":36,"Duration":159574,"SoundDuration":159574,"Delta":102588284},{"NoteNumber":73,"Velocity":44,"Duration":332172,"SoundDuration":332172,"Delta":102747859},{"NoteNumber":77,"Velocity":48,"Duration":332172,"SoundDuration":332172,"Delta":102747859},{"NoteNumber":49,"Velocity":36,"Duration":161134,"SoundDuration":161134,"Delta":102747859},{"NoteNumber":44,"Velocity":37,"Duration":171037,"SoundDuration":171037,"Delta":102908993},{"NoteNumber":79,"Velocity":53,"Duration":311171,"SoundDuration":311171,"Delta":103080031},{"NoteNumber":75,"Velocity":49,"Duration":311171,"SoundDuration":311171,"Delta":103080031},{"NoteNumber":39,"Velocity":37,"Duration":155585,"SoundDuration":155585,"Delta":103080031},{"NoteNumber":46,"Velocity":37,"Duration":155585,"SoundDuration":155585,"Delta":103235616},{"NoteNumber":77,"Velocity":47,"Duration":306591,"SoundDuration":306591,"Delta":103391202},{"NoteNumber":73,"Velocity":43,"Duration":306591,"SoundDuration":306591,"Delta":103391202},{"NoteNumber":51,"Velocity":37,"Duration":153295,"SoundDuration":153295,"Delta":103391202},{"NoteNumber":55,"Velocity":37,"Duration":153295,"SoundDuration":153295,"Delta":103544498},{"NoteNumber":73,"Velocity":47,"Duration":306724,"SoundDuration":306724,"Delta":103697793},{"NoteNumber":70,"Velocity":43,"Duration":306724,"SoundDuration":306724,"Delta":103697793},{"NoteNumber":58,"Velocity":37,"Duration":148912,"SoundDuration":148912,"Delta":103697793},{"NoteNumber":63,"Velocity":37,"Duration":157811,"SoundDuration":157811,"Delta":103846706},{"NoteNumber":70,"Velocity":39,"Duration":925688,"SoundDuration":925688,"Delta":104004518},{"NoteNumber":67,"Velocity":43,"Duration":306461,"SoundDuration":306461,"Delta":104004518},{"NoteNumber":73,"Velocity":42,"Duration":925688,"SoundDuration":925688,"Delta":104004518},{"NoteNumber":63,"Velocity":36,"Duration":153217,"SoundDuration":153217,"Delta":104157762},{"NoteNumber":65,"Velocity":36,"Duration":306435,"SoundDuration":306435,"Delta":104310979},{"NoteNumber":58,"Velocity":36,"Duration":153217,"SoundDuration":153217,"Delta":104310979},{"NoteNumber":55,"Velocity":34,"Duration":153217,"SoundDuration":153217,"Delta":104464197},{"NoteNumber":61,"Velocity":34,"Duration":312792,"SoundDuration":312792,"Delta":104617414},{"NoteNumber":51,"Velocity":34,"Duration":153217,"SoundDuration":153217,"Delta":104617414},{"NoteNumber":46,"Velocity":34,"Duration":159574,"SoundDuration":159574,"Delta":104770632},{"NoteNumber":61,"Velocity":38,"Duration":459979,"SoundDuration":459979,"Delta":104930206},{"NoteNumber":39,"Velocity":33,"Duration":152413,"SoundDuration":152413,"Delta":104930206},{"NoteNumber":46,"Velocity":33,"Duration":153322,"SoundDuration":153322,"Delta":105082620},{"NoteNumber":51,"Velocity":33,"Duration":154242,"SoundDuration":154242,"Delta":105235943},{"NoteNumber":58,"Velocity":36,"Duration":476279,"SoundDuration":476279,"Delta":105390186},{"NoteNumber":55,"Velocity":33,"Duration":155173,"SoundDuration":155173,"Delta":105390186},{"NoteNumber":51,"Velocity":33,"Duration":156115,"SoundDuration":156115,"Delta":105545359},{"NoteNumber":46,"Velocity":33,"Duration":164991,"SoundDuration":164991,"Delta":105701474},{"NoteNumber":70,"Velocity":52,"Duration":1789539,"SoundDuration":1789539,"Delta":105866465},{"NoteNumber":44,"Velocity":37,"Duration":893555,"SoundDuration":893555,"Delta":105866465},{"NoteNumber":51,"Velocity":33,"Duration":147783,"SoundDuration":147783,"Delta":106014249},{"NoteNumber":54,"Velocity":33,"Duration":147783,"SoundDuration":147783,"Delta":106162032},{"NoteNumber":58,"Velocity":33,"Duration":147783,"SoundDuration":147783,"Delta":106309815},{"NoteNumber":60,"Velocity":33,"Duration":147783,"SoundDuration":147783,"Delta":106457598},{"NoteNumber":66,"Velocity":33,"Duration":154639,"SoundDuration":154639,"Delta":106605382},{"NoteNumber":42,"Velocity":38,"Duration":895984,"SoundDuration":895984,"Delta":106760021},{"NoteNumber":49,"Velocity":32,"Duration":147783,"SoundDuration":147783,"Delta":106907804},{"NoteNumber":54,"Velocity":33,"Duration":147783,"SoundDuration":147783,"Delta":107055587},{"NoteNumber":58,"Velocity":34,"Duration":147783,"SoundDuration":147783,"Delta":107203371},{"NoteNumber":61,"Velocity":34,"Duration":147783,"SoundDuration":147783,"Delta":107351154},{"NoteNumber":66,"Velocity":36,"Duration":157067,"SoundDuration":157067,"Delta":107498937},{"NoteNumber":72,"Velocity":51,"Duration":603259,"SoundDuration":603259,"Delta":107656005},{"NoteNumber":41,"Velocity":40,"Duration":929346,"SoundDuration":929346,"Delta":107656005},{"NoteNumber":48,"Velocity":36,"Duration":147783,"SoundDuration":147783,"Delta":107803788},{"NoteNumber":53,"Velocity":37,"Duration":153846,"SoundDuration":153846,"Delta":107951572},{"NoteNumber":56,"Velocity":38,"Duration":153846,"SoundDuration":153846,"Delta":108105418},{"NoteNumber":77,"Velocity":56,"Duration":326087,"SoundDuration":326087,"Delta":108259264},{"NoteNumber":60,"Velocity":39,"Duration":326087,"SoundDuration":326087,"Delta":108259264},{"NoteNumber":68,"Velocity":38,"Duration":163043,"SoundDuration":163043,"Delta":108268775},{"NoteNumber":65,"Velocity":38,"Duration":163043,"SoundDuration":163043,"Delta":108412797},{"NoteNumber":70,"Velocity":52,"Duration":1775844,"SoundDuration":1775844,"Delta":108605731},{"NoteNumber":44,"Velocity":37,"Duration":893555,"SoundDuration":893555,"Delta":108605731},{"NoteNumber":51,"Velocity":33,"Duration":147783,"SoundDuration":147783,"Delta":108753515},{"NoteNumber":54,"Velocity":33,"Duration":147783,"SoundDuration":147783,"Delta":108901298},{"NoteNumber":58,"Velocity":33,"Duration":147783,"SoundDuration":147783,"Delta":109049081},{"NoteNumber":60,"Velocity":33,"Duration":147783,"SoundDuration":147783,"Delta":109196864},{"NoteNumber":66,"Velocity":34,"Duration":154639,"SoundDuration":154639,"Delta":109344648},{"NoteNumber":42,"Velocity":39,"Duration":882289,"SoundDuration":882289,"Delta":109499287},{"NoteNumber":49,"Velocity":34,"Duration":145631,"SoundDuration":145631,"Delta":109646801},{"NoteNumber":54,"Velocity":37,"Duration":145630,"SoundDuration":145630,"Delta":109792432},{"NoteNumber":58,"Velocity":38,"Duration":145630,"SoundDuration":145630,"Delta":109938063},{"NoteNumber":61,"Velocity":38,"Duration":146366,"SoundDuration":146366,"Delta":110083694},{"NoteNumber":66,"Velocity":39,"Duration":151515,"SoundDuration":151515,"Delta":110230061},{"NoteNumber":72,"Velocity":56,"Duration":585064,"SoundDuration":585064,"Delta":110381576},{"NoteNumber":41,"Velocity":44,"Duration":909335,"SoundDuration":909335,"Delta":110381576},{"NoteNumber":48,"Velocity":39,"Duration":147426,"SoundDuration":147426,"Delta":110529359},{"NoteNumber":53,"Velocity":40,"Duration":144927,"SoundDuration":144927,"Delta":110676785},{"NoteNumber":56,"Velocity":43,"Duration":144927,"SoundDuration":144927,"Delta":110821713},{"NoteNumber":77,"Velocity":60,"Duration":324270,"SoundDuration":324270,"Delta":110966640},{"NoteNumber":60,"Velocity":44,"Duration":324270,"SoundDuration":324270,"Delta":110966640},{"NoteNumber":68,"Velocity":38,"Duration":163043,"SoundDuration":163043,"Delta":110976151},{"NoteNumber":65,"Velocity":38,"Duration":162074,"SoundDuration":162074,"Delta":111120173},{"NoteNumber":78,"Velocity":64,"Duration":1325870,"SoundDuration":1325870,"Delta":111272347},{"NoteNumber":39,"Velocity":45,"Duration":891088,"SoundDuration":891088,"Delta":111272347},{"NoteNumber":46,"Velocity":40,"Duration":148514,"SoundDuration":148514,"Delta":111420862},{"NoteNumber":51,"Velocity":40,"Duration":148514,"SoundDuration":148514,"Delta":111569377},{"NoteNumber":54,"Velocity":40,"Duration":148514,"SoundDuration":148514,"Delta":111717891},{"NoteNumber":58,"Velocity":40,"Duration":148514,"SoundDuration":148514,"Delta":111866406},{"NoteNumber":63,"Velocity":40,"Duration":148514,"SoundDuration":148514,"Delta":112014921},{"NoteNumber":66,"Velocity":60,"Duration":142512,"SoundDuration":142512,"Delta":112163436},{"NoteNumber":66,"Velocity":46,"Duration":289855,"SoundDuration":289855,"Delta":112308363},{"NoteNumber":70,"Velocity":46,"Duration":144927,"SoundDuration":144927,"Delta":112453291},{"NoteNumber":77,"Velocity":58,"Duration":434782,"SoundDuration":434782,"Delta":112598218},{"NoteNumber":65,"Velocity":58,"Duration":434782,"SoundDuration":434782,"Delta":112598218},{"NoteNumber":66,"Velocity":46,"Duration":144927,"SoundDuration":144927,"Delta":112743146},{"NoteNumber":70,"Velocity":46,"Duration":144927,"SoundDuration":144927,"Delta":112888073},{"NoteNumber":74,"Velocity":58,"Duration":434782,"SoundDuration":434782,"Delta":113033001},{"NoteNumber":62,"Velocity":57,"Duration":434782,"SoundDuration":434782,"Delta":113033001},{"NoteNumber":66,"Velocity":46,"Duration":144927,"SoundDuration":144927,"Delta":113177928},{"NoteNumber":70,"Velocity":46,"Duration":144927,"SoundDuration":144927,"Delta":113322856},{"NoteNumber":75,"Velocity":60,"Duration":422534,"SoundDuration":422534,"Delta":113467783},{"NoteNumber":63,"Velocity":58,"Duration":422534,"SoundDuration":422534,"Delta":113467783},{"NoteNumber":66,"Velocity":49,"Duration":140844,"SoundDuration":140844,"Delta":113608628},{"NoteNumber":70,"Velocity":49,"Duration":140844,"SoundDuration":140844,"Delta":113749473},{"NoteNumber":82,"Velocity":67,"Duration":698356,"SoundDuration":698356,"Delta":113890318},{"NoteNumber":62,"Velocity":55,"Duration":422535,"SoundDuration":422535,"Delta":113890318},{"NoteNumber":66,"Velocity":43,"Duration":140844,"SoundDuration":140844,"Delta":114031163},{"NoteNumber":70,"Velocity":43,"Duration":140845,"SoundDuration":140845,"Delta":114172008},{"NoteNumber":70,"Velocity":43,"Duration":140844,"SoundDuration":140844,"Delta":114312853},{"NoteNumber":78,"Velocity":43,"Duration":140844,"SoundDuration":140844,"Delta":114453698},{"NoteNumber":82,"Velocity":43,"Duration":845069,"SoundDuration":845069,"Delta":114594543},{"NoteNumber":63,"Velocity":50,"Duration":422534,"SoundDuration":422534,"Delta":114735388},{"NoteNumber":66,"Velocity":38,"Duration":140844,"SoundDuration":140844,"Delta":114876233},{"NoteNumber":70,"Velocity":38,"Duration":140844,"SoundDuration":140844,"Delta":115017078},{"NoteNumber":70,"Velocity":38,"Duration":140844,"SoundDuration":140844,"Delta":115157923},{"NoteNumber":78,"Velocity":38,"Duration":140844,"SoundDuration":140844,"Delta":115298768},{"NoteNumber":82,"Velocity":38,"Duration":146341,"SoundDuration":146341,"Delta":115439613},{"NoteNumber":80,"Velocity":51,"Duration":735609,"SoundDuration":735609,"Delta":115585955},{"NoteNumber":60,"Velocity":44,"Duration":144001,"SoundDuration":144001,"Delta":115585955},{"NoteNumber":56,"Velocity":44,"Duration":437656,"SoundDuration":437656,"Delta":115585955},{"NoteNumber":64,"Velocity":37,"Duration":145869,"SoundDuration":145869,"Delta":115729956},{"NoteNumber":68,"Velocity":36,"Duration":147785,"SoundDuration":147785,"Delta":115875825},{"NoteNumber":72,"Velocity":34,"Duration":149752,"SoundDuration":149752,"Delta":116023611},{"NoteNumber":76,"Velocity":34,"Duration":154814,"SoundDuration":154814,"Delta":116173364},{"NoteNumber":80,"Velocity":33,"Duration":162068,"SoundDuration":162068,"Delta":116328178},{"NoteNumber":80,"Velocity":51,"Duration":1753346,"SoundDuration":1753346,"Delta":116493071},{"NoteNumber":77,"Velocity":51,"Duration":1753346,"SoundDuration":1753346,"Delta":116493071},{"NoteNumber":49,"Velocity":43,"Duration":892718,"SoundDuration":892718,"Delta":116493071},{"NoteNumber":56,"Velocity":37,"Duration":150126,"SoundDuration":150126,"Delta":116650451},{"NoteNumber":61,"Velocity":37,"Duration":148639,"SoundDuration":148639,"Delta":116800578},{"NoteNumber":65,"Velocity":37,"Duration":146940,"SoundDuration":146940,"Delta":116949217},{"NoteNumber":68,"Velocity":37,"Duration":145514,"SoundDuration":145514,"Delta":117096158},{"NoteNumber":73,"Velocity":37,"Duration":144116,"SoundDuration":144116,"Delta":117241673},{"NoteNumber":56,"Velocity":46,"Duration":142857,"SoundDuration":142857,"Delta":117385790},{"NoteNumber":53,"Velocity":39,"Duration":860627,"SoundDuration":860627,"Delta":117385790},{"NoteNumber":60,"Velocity":38,"Duration":142857,"SoundDuration":142857,"Delta":117528647},{"NoteNumber":65,"Velocity":40,"Duration":142857,"SoundDuration":142857,"Delta":117671504},{"NoteNumber":68,"Velocity":42,"Duration":142857,"SoundDuration":142857,"Delta":117814361},{"NoteNumber":72,"Velocity":44,"Duration":142857,"SoundDuration":142857,"Delta":117957219},{"NoteNumber":77,"Velocity":46,"Duration":146341,"SoundDuration":146341,"Delta":118100076},{"NoteNumber":80,"Velocity":57,"Duration":567633,"SoundDuration":567633,"Delta":118246417},{"NoteNumber":83,"Velocity":57,"Duration":567633,"SoundDuration":567633,"Delta":118246417},{"NoteNumber":59,"Velocity":50,"Duration":138889,"SoundDuration":138889,"Delta":118246417},{"NoteNumber":56,"Velocity":42,"Duration":880133,"SoundDuration":880133,"Delta":118246417},{"NoteNumber":64,"Velocity":43,"Duration":138888,"SoundDuration":138888,"Delta":118385306},{"NoteNumber":68,"Velocity":43,"Duration":144927,"SoundDuration":144927,"Delta":118524195},{"NoteNumber":71,"Velocity":43,"Duration":144927,"SoundDuration":144927,"Delta":118669123},{"NoteNumber":85,"Velocity":60,"Duration":312500,"SoundDuration":312500,"Delta":118814050},{"NoteNumber":76,"Velocity":43,"Duration":156250,"SoundDuration":156250,"Delta":118814050},{"NoteNumber":80,"Velocity":43,"Duration":153645,"SoundDuration":153645,"Delta":118970300},{"NoteNumber":77,"Velocity":57,"Duration":1722217,"SoundDuration":1722217,"Delta":119126550},{"NoteNumber":80,"Velocity":57,"Duration":1722217,"SoundDuration":1722217,"Delta":119126550},{"NoteNumber":49,"Velocity":48,"Duration":861589,"SoundDuration":861589,"Delta":119126550},{"NoteNumber":56,"Velocity":43,"Duration":143540,"SoundDuration":143540,"Delta":119270091},{"NoteNumber":61,"Velocity":43,"Duration":143540,"SoundDuration":143540,"Delta":119413632},{"NoteNumber":65,"Velocity":43,"Duration":143540,"SoundDuration":143540,"Delta":119557173},{"NoteNumber":68,"Velocity":43,"Duration":143540,"SoundDuration":143540,"Delta":119700713},{"NoteNumber":73,"Velocity":43,"Duration":143885,"SoundDuration":143885,"Delta":119844254},{"NoteNumber":56,"Velocity":51,"Duration":142857,"SoundDuration":142857,"Delta":119988140},{"NoteNumber":53,"Velocity":43,"Duration":860627,"SoundDuration":860627,"Delta":119988140},{"NoteNumber":60,"Velocity":40,"Duration":142857,"SoundDuration":142857,"Delta":120130997},{"NoteNumber":65,"Velocity":42,"Duration":142857,"SoundDuration":142857,"Delta":120273854},{"NoteNumber":68,"Velocity":43,"Duration":142857,"SoundDuration":142857,"Delta":120416712},{"NoteNumber":72,"Velocity":44,"Duration":142857,"SoundDuration":142857,"Delta":120559569},{"NoteNumber":77,"Velocity":45,"Duration":146341,"SoundDuration":146341,"Delta":120702426},{"NoteNumber":83,"Velocity":62,"Duration":535713,"SoundDuration":535713,"Delta":120848768},{"NoteNumber":80,"Velocity":62,"Duration":535713,"SoundDuration":535713,"Delta":120848768},{"NoteNumber":59,"Velocity":54,"Duration":133928,"SoundDuration":133928,"Delta":120848768},{"NoteNumber":56,"Velocity":45,"Duration":793622,"SoundDuration":793622,"Delta":120848768},{"NoteNumber":64,"Velocity":45,"Duration":133928,"SoundDuration":133928,"Delta":120982696},{"NoteNumber":68,"Velocity":45,"Duration":133928,"SoundDuration":133928,"Delta":121116625},{"NoteNumber":71,"Velocity":45,"Duration":133928,"SoundDuration":133928,"Delta":121250553},{"NoteNumber":80,"Velocity":70,"Duration":257908,"SoundDuration":257908,"Delta":121384482},{"NoteNumber":80,"Velocity":45,"Duration":128954,"SoundDuration":128954,"Delta":121384482},{"NoteNumber":76,"Velocity":45,"Duration":128954,"SoundDuration":128954,"Delta":121513436},{"NoteNumber":85,"Velocity":87,"Duration":764825,"SoundDuration":764825,"Delta":121642391},{"NoteNumber":59,"Velocity":44,"Duration":393012,"SoundDuration":393012,"Delta":121642391},{"NoteNumber":61,"Velocity":52,"Duration":131004,"SoundDuration":131004,"Delta":121642391},{"NoteNumber":64,"Velocity":50,"Duration":131004,"SoundDuration":131004,"Delta":121773395},{"NoteNumber":68,"Velocity":50,"Duration":131004,"SoundDuration":131004,"Delta":121904399},{"NoteNumber":73,"Velocity":51,"Duration":131004,"SoundDuration":131004,"Delta":122035403},{"NoteNumber":71,"Velocity":50,"Duration":371813,"SoundDuration":371813,"Delta":122035403},{"NoteNumber":80,"Velocity":73,"Duration":240808,"SoundDuration":240808,"Delta":122166408},{"NoteNumber":76,"Velocity":51,"Duration":120404,"SoundDuration":120404,"Delta":122286812},{"NoteNumber":88,"Velocity":86,"Duration":734986,"SoundDuration":734986,"Delta":122407217},{"NoteNumber":61,"Velocity":44,"Duration":373598,"SoundDuration":373598,"Delta":122407217},{"NoteNumber":64,"Velocity":52,"Duration":124532,"SoundDuration":124532,"Delta":122407217},{"NoteNumber":68,"Velocity":50,"Duration":124532,"SoundDuration":124532,"Delta":122531750},{"NoteNumber":71,"Velocity":50,"Duration":124532,"SoundDuration":124532,"Delta":122656283},{"NoteNumber":76,"Velocity":54,"Duration":124532,"SoundDuration":124532,"Delta":122780816},{"NoteNumber":73,"Velocity":50,"Duration":361387,"SoundDuration":361387,"Delta":122780816},{"NoteNumber":85,"Velocity":70,"Duration":236854,"SoundDuration":236854,"Delta":122905349},{"NoteNumber":80,"Velocity":54,"Duration":118427,"SoundDuration":118427,"Delta":123023776},{"NoteNumber":92,"Velocity":90,"Duration":742307,"SoundDuration":742307,"Delta":123142203},{"NoteNumber":64,"Velocity":46,"Duration":371993,"SoundDuration":371993,"Delta":123142203},{"NoteNumber":68,"Velocity":55,"Duration":123997,"SoundDuration":123997,"Delta":123142203},{"NoteNumber":71,"Velocity":52,"Duration":123997,"SoundDuration":123997,"Delta":123266201},{"NoteNumber":73,"Velocity":52,"Duration":123997,"SoundDuration":123997,"Delta":123390199},{"NoteNumber":80,"Velocity":56,"Duration":123997,"SoundDuration":123997,"Delta":123514196},{"NoteNumber":76,"Velocity":52,"Duration":370313,"SoundDuration":370313,"Delta":123514196},{"NoteNumber":88,"Velocity":70,"Duration":246316,"SoundDuration":246316,"Delta":123638194},{"NoteNumber":83,"Velocity":56,"Duration":133108,"SoundDuration":133108,"Delta":123751402},{"NoteNumber":92,"Velocity":92,"Duration":743986,"SoundDuration":743986,"Delta":123884510},{"NoteNumber":68,"Velocity":57,"Duration":371993,"SoundDuration":371993,"Delta":123884510},{"NoteNumber":69,"Velocity":54,"Duration":123997,"SoundDuration":123997,"Delta":124008508},{"NoteNumber":73,"Velocity":54,"Duration":123997,"SoundDuration":123997,"Delta":124132506},{"NoteNumber":80,"Velocity":56,"Duration":123997,"SoundDuration":123997,"Delta":124256503},{"NoteNumber":85,"Velocity":56,"Duration":123997,"SoundDuration":123997,"Delta":124380501},{"NoteNumber":81,"Velocity":56,"Duration":123997,"SoundDuration":123997,"Delta":124504499},{"NoteNumber":90,"Velocity":91,"Duration":1493721,"SoundDuration":1493721,"Delta":124628497},{"NoteNumber":66,"Velocity":56,"Duration":371993,"SoundDuration":371993,"Delta":124628497},{"NoteNumber":69,"Velocity":52,"Duration":123997,"SoundDuration":123997,"Delta":124752494},{"NoteNumber":73,"Velocity":52,"Duration":123997,"SoundDuration":123997,"Delta":124876492},{"NoteNumber":78,"Velocity":52,"Duration":123997,"SoundDuration":123997,"Delta":125000490},{"NoteNumber":85,"Velocity":52,"Duration":123997,"SoundDuration":123997,"Delta":125124488},{"NoteNumber":81,"Velocity":52,"Duration":123997,"SoundDuration":123997,"Delta":125248485},{"NoteNumber":66,"Velocity":56,"Duration":123997,"SoundDuration":123997,"Delta":125372483},{"NoteNumber":65,"Velocity":47,"Duration":371993,"SoundDuration":371993,"Delta":125372483},{"NoteNumber":69,"Velocity":52,"Duration":123997,"SoundDuration":123997,"Delta":125496481},{"NoteNumber":73,"Velocity":52,"Duration":123997,"SoundDuration":123997,"Delta":125620479},{"NoteNumber":78,"Velocity":52,"Duration":123997,"SoundDuration":123997,"Delta":125744476},{"NoteNumber":85,"Velocity":52,"Duration":123997,"SoundDuration":123997,"Delta":125868474},{"NoteNumber":81,"Velocity":52,"Duration":129746,"SoundDuration":129746,"Delta":125992472},{"NoteNumber":90,"Velocity":91,"Duration":1481480,"SoundDuration":1481480,"Delta":126122218},{"NoteNumber":64,"Velocity":56,"Duration":370370,"SoundDuration":370370,"Delta":126122218},{"NoteNumber":66,"Velocity":52,"Duration":123456,"SoundDuration":123456,"Delta":126245675},{"NoteNumber":69,"Velocity":52,"Duration":123456,"SoundDuration":123456,"Delta":126369132},{"NoteNumber":78,"Velocity":52,"Duration":123456,"SoundDuration":123456,"Delta":126492588},{"NoteNumber":85,"Velocity":52,"Duration":123456,"SoundDuration":123456,"Delta":126616045},{"NoteNumber":81,"Velocity":52,"Duration":123456,"SoundDuration":123456,"Delta":126739502},{"NoteNumber":66,"Velocity":56,"Duration":123456,"SoundDuration":123456,"Delta":126862959},{"NoteNumber":63,"Velocity":47,"Duration":370370,"SoundDuration":370370,"Delta":126862959},{"NoteNumber":69,"Velocity":52,"Duration":123456,"SoundDuration":123456,"Delta":126986415},{"NoteNumber":73,"Velocity":52,"Duration":123456,"SoundDuration":123456,"Delta":127109872},{"NoteNumber":78,"Velocity":52,"Duration":123456,"SoundDuration":123456,"Delta":127233329},{"NoteNumber":85,"Velocity":52,"Duration":123456,"SoundDuration":123456,"Delta":127356786},{"NoteNumber":81,"Velocity":52,"Duration":123456,"SoundDuration":123456,"Delta":127480242},{"NoteNumber":93,"Velocity":91,"Duration":504202,"SoundDuration":504202,"Delta":127603699},{"NoteNumber":64,"Velocity":56,"Duration":126050,"SoundDuration":126050,"Delta":127603699},{"NoteNumber":61,"Velocity":47,"Duration":378151,"SoundDuration":378151,"Delta":127603699},{"NoteNumber":69,"Velocity":52,"Duration":126050,"SoundDuration":126050,"Delta":127729750},{"NoteNumber":73,"Velocity":52,"Duration":126050,"SoundDuration":126050,"Delta":127855800},{"NoteNumber":76,"Velocity":52,"Duration":126050,"SoundDuration":126050,"Delta":127981851},{"NoteNumber":97,"Velocity":91,"Duration":263158,"SoundDuration":263158,"Delta":128107901},{"NoteNumber":85,"Velocity":52,"Duration":131579,"SoundDuration":131579,"Delta":128239480},{"NoteNumber":78,"Velocity":82,"Duration":1481481,"SoundDuration":1481481,"Delta":128371059},{"NoteNumber":59,"Velocity":56,"Duration":370370,"SoundDuration":370370,"Delta":128371059},{"NoteNumber":63,"Velocity":52,"Duration":123456,"SoundDuration":123456,"Delta":128494516},{"NoteNumber":66,"Velocity":52,"Duration":123456,"SoundDuration":123456,"Delta":128617973},{"NoteNumber":66,"Velocity":52,"Duration":123456,"SoundDuration":123456,"Delta":128741429},{"NoteNumber":73,"Velocity":52,"Duration":123456,"SoundDuration":123456,"Delta":128864886},{"NoteNumber":69,"Velocity":52,"Duration":123456,"SoundDuration":123456,"Delta":128988343},{"NoteNumber":57,"Velocity":56,"Duration":370370,"SoundDuration":370370,"Delta":129111800},{"NoteNumber":61,"Velocity":52,"Duration":123456,"SoundDuration":123456,"Delta":129235256},{"NoteNumber":64,"Velocity":52,"Duration":123456,"SoundDuration":123456,"Delta":129358713},{"NoteNumber":66,"Velocity":52,"Duration":123456,"SoundDuration":123456,"Delta":129482170},{"NoteNumber":73,"Velocity":52,"Duration":123456,"SoundDuration":123456,"Delta":129605627},{"NoteNumber":69,"Velocity":52,"Duration":123456,"SoundDuration":123456,"Delta":129729083},{"NoteNumber":81,"Velocity":84,"Duration":504201,"SoundDuration":504201,"Delta":129852540},{"NoteNumber":56,"Velocity":56,"Duration":378151,"SoundDuration":378151,"Delta":129852540},{"NoteNumber":61,"Velocity":52,"Duration":126050,"SoundDuration":126050,"Delta":129978591},{"NoteNumber":64,"Velocity":52,"Duration":126050,"SoundDuration":126050,"Delta":130104641},{"NoteNumber":69,"Velocity":52,"Duration":126050,"SoundDuration":126050,"Delta":130230692},{"NoteNumber":76,"Velocity":52,"Duration":137614,"SoundDuration":137614,"Delta":130356742},{"NoteNumber":85,"Velocity":79,"Duration":275229,"SoundDuration":275229,"Delta":130356742},{"NoteNumber":81,"Velocity":52,"Duration":137614,"SoundDuration":137614,"Delta":130494357},{"NoteNumber":88,"Velocity":79,"Duration":280373,"SoundDuration":280373,"Delta":130631972},{"NoteNumber":85,"Velocity":79,"Duration":280373,"SoundDuration":280373,"Delta":130631972},{"NoteNumber":54,"Velocity":56,"Duration":2525130,"SoundDuration":2525130,"Delta":130631972},{"NoteNumber":61,"Velocity":43,"Duration":140186,"SoundDuration":140186,"Delta":130772159},{"NoteNumber":87,"Velocity":69,"Duration":280373,"SoundDuration":280373,"Delta":130912346},{"NoteNumber":83,"Velocity":69,"Duration":280373,"SoundDuration":280373,"Delta":130912346},{"NoteNumber":64,"Velocity":45,"Duration":140186,"SoundDuration":140186,"Delta":130912346},{"NoteNumber":66,"Velocity":46,"Duration":140186,"SoundDuration":140186,"Delta":131052533},{"NoteNumber":85,"Velocity":69,"Duration":275229,"SoundDuration":275229,"Delta":131192720},{"NoteNumber":81,"Velocity":69,"Duration":275229,"SoundDuration":275229,"Delta":131192720},{"NoteNumber":69,"Velocity":49,"Duration":137614,"SoundDuration":137614,"Delta":131192720},{"NoteNumber":73,"Velocity":50,"Duration":137614,"SoundDuration":137614,"Delta":131330334},{"NoteNumber":80,"Velocity":74,"Duration":441176,"SoundDuration":441176,"Delta":131467949},{"NoteNumber":83,"Velocity":74,"Duration":441176,"SoundDuration":441176,"Delta":131467949},{"NoteNumber":76,"Velocity":50,"Duration":147058,"SoundDuration":147058,"Delta":131467949},{"NoteNumber":78,"Velocity":50,"Duration":147058,"SoundDuration":147058,"Delta":131615008},{"NoteNumber":76,"Velocity":49,"Duration":147058,"SoundDuration":147058,"Delta":131762067},{"NoteNumber":78,"Velocity":67,"Duration":697517,"SoundDuration":697517,"Delta":131909125},{"NoteNumber":81,"Velocity":67,"Duration":697517,"SoundDuration":697517,"Delta":131909125},{"NoteNumber":73,"Velocity":48,"Duration":147058,"SoundDuration":147058,"Delta":131909125},{"NoteNumber":69,"Velocity":46,"Duration":137614,"SoundDuration":137614,"Delta":132056184},{"NoteNumber":66,"Velocity":46,"Duration":137614,"SoundDuration":137614,"Delta":132193799},{"NoteNumber":64,"Velocity":43,"Duration":137614,"SoundDuration":137614,"Delta":132331414},{"NoteNumber":66,"Velocity":42,"Duration":137614,"SoundDuration":137614,"Delta":132469028},{"NoteNumber":80,"Velocity":60,"Duration":275229,"SoundDuration":275229,"Delta":132606643},{"NoteNumber":76,"Velocity":60,"Duration":275229,"SoundDuration":275229,"Delta":132606643},{"NoteNumber":64,"Velocity":40,"Duration":137614,"SoundDuration":137614,"Delta":132606643},{"NoteNumber":61,"Velocity":39,"Duration":137614,"SoundDuration":137614,"Delta":132744258},{"NoteNumber":78,"Velocity":60,"Duration":275229,"SoundDuration":275229,"Delta":132881873},{"NoteNumber":75,"Velocity":60,"Duration":275229,"SoundDuration":275229,"Delta":132881873},{"NoteNumber":57,"Velocity":38,"Duration":137614,"SoundDuration":137614,"Delta":132881873},{"NoteNumber":54,"Velocity":37,"Duration":137614,"SoundDuration":137614,"Delta":133019487},{"NoteNumber":73,"Velocity":62,"Duration":281689,"SoundDuration":281689,"Delta":133157102},{"NoteNumber":76,"Velocity":62,"Duration":281689,"SoundDuration":281689,"Delta":133157102},{"NoteNumber":42,"Velocity":43,"Duration":140845,"SoundDuration":140845,"Delta":133157102},{"NoteNumber":49,"Velocity":38,"Duration":140844,"SoundDuration":140844,"Delta":133297947},{"NoteNumber":75,"Velocity":58,"Duration":281689,"SoundDuration":281689,"Delta":133438792},{"NoteNumber":71,"Velocity":58,"Duration":281689,"SoundDuration":281689,"Delta":133438792},{"NoteNumber":52,"Velocity":39,"Duration":140845,"SoundDuration":140845,"Delta":133438792},{"NoteNumber":54,"Velocity":40,"Duration":140844,"SoundDuration":140844,"Delta":133579637},{"NoteNumber":69,"Velocity":56,"Duration":277778,"SoundDuration":277778,"Delta":133720482},{"NoteNumber":73,"Velocity":56,"Duration":277778,"SoundDuration":277778,"Delta":133720482},{"NoteNumber":57,"Velocity":42,"Duration":138889,"SoundDuration":138889,"Delta":133720482},{"NoteNumber":61,"Velocity":43,"Duration":138889,"SoundDuration":138889,"Delta":133859371},{"NoteNumber":71,"Velocity":57,"Duration":298507,"SoundDuration":298507,"Delta":133998260},{"NoteNumber":68,"Velocity":57,"Duration":298507,"SoundDuration":298507,"Delta":133998260},{"NoteNumber":64,"Velocity":42,"Duration":149253,"SoundDuration":149253,"Delta":133998260},{"NoteNumber":61,"Velocity":42,"Duration":149253,"SoundDuration":149253,"Delta":134147514},{"NoteNumber":66,"Velocity":52,"Duration":298507,"SoundDuration":298507,"Delta":134296768},{"NoteNumber":69,"Velocity":52,"Duration":298507,"SoundDuration":298507,"Delta":134296768},{"NoteNumber":57,"Velocity":40,"Duration":149253,"SoundDuration":149253,"Delta":134296768},{"NoteNumber":54,"Velocity":40,"Duration":149253,"SoundDuration":149253,"Delta":134446021},{"NoteNumber":68,"Velocity":49,"Duration":558140,"SoundDuration":558140,"Delta":134595275},{"NoteNumber":64,"Velocity":49,"Duration":558140,"SoundDuration":558140,"Delta":134595275},{"NoteNumber":52,"Velocity":39,"Duration":139534,"SoundDuration":139534,"Delta":134595275},{"NoteNumber":49,"Velocity":38,"Duration":139534,"SoundDuration":139534,"Delta":134734810},{"NoteNumber":57,"Velocity":46,"Duration":871955,"SoundDuration":871955,"Delta":134874345},{"NoteNumber":42,"Velocity":37,"Duration":139535,"SoundDuration":139535,"Delta":134874345},{"NoteNumber":49,"Velocity":34,"Duration":139534,"SoundDuration":139534,"Delta":135013880},{"NoteNumber":66,"Velocity":43,"Duration":289854,"SoundDuration":289854,"Delta":135153415},{"NoteNumber":63,"Velocity":43,"Duration":289854,"SoundDuration":289854,"Delta":135153415},{"NoteNumber":42,"Velocity":37,"Duration":144927,"SoundDuration":144927,"Delta":135153415},{"NoteNumber":49,"Velocity":34,"Duration":144927,"SoundDuration":144927,"Delta":135298343},{"NoteNumber":61,"Velocity":40,"Duration":303030,"SoundDuration":303030,"Delta":135443270},{"NoteNumber":64,"Velocity":40,"Duration":303030,"SoundDuration":303030,"Delta":135443270},{"NoteNumber":42,"Velocity":37,"Duration":151515,"SoundDuration":151515,"Delta":135443270},{"NoteNumber":49,"Velocity":34,"Duration":151515,"SoundDuration":151515,"Delta":135594785},{"NoteNumber":61,"Velocity":37,"Duration":1900288,"SoundDuration":1900288,"Delta":135746301},{"NoteNumber":63,"Velocity":40,"Duration":1900288,"SoundDuration":1900288,"Delta":135746301},{"NoteNumber":54,"Velocity":37,"Duration":674157,"SoundDuration":674157,"Delta":135746301},{"NoteNumber":44,"Velocity":32,"Duration":168539,"SoundDuration":168539,"Delta":135746301},{"NoteNumber":51,"Velocity":31,"Duration":168539,"SoundDuration":168539,"Delta":135914840},{"NoteNumber":44,"Velocity":33,"Duration":168539,"SoundDuration":168539,"Delta":136083379},{"NoteNumber":51,"Velocity":31,"Duration":168539,"SoundDuration":168539,"Delta":136251918},{"NoteNumber":56,"Velocity":36,"Duration":326087,"SoundDuration":326087,"Delta":136420458},{"NoteNumber":44,"Velocity":33,"Duration":163043,"SoundDuration":163043,"Delta":136420458},{"NoteNumber":51,"Velocity":32,"Duration":163043,"SoundDuration":163043,"Delta":136583501},{"NoteNumber":58,"Velocity":38,"Duration":603014,"SoundDuration":603014,"Delta":136746545},{"NoteNumber":44,"Velocity":34,"Duration":150753,"SoundDuration":150753,"Delta":136746545},{"NoteNumber":51,"Velocity":32,"Duration":150753,"SoundDuration":150753,"Delta":136897298},{"NoteNumber":44,"Velocity":34,"Duration":150753,"SoundDuration":150753,"Delta":137048052},{"NoteNumber":51,"Velocity":34,"Duration":150753,"SoundDuration":150753,"Delta":137198806},{"NoteNumber":61,"Velocity":37,"Duration":297029,"SoundDuration":297029,"Delta":137349560},{"NoteNumber":44,"Velocity":36,"Duration":148514,"SoundDuration":148514,"Delta":137349560},{"NoteNumber":51,"Velocity":34,"Duration":148514,"SoundDuration":148514,"Delta":137498074},{"NoteNumber":66,"Velocity":44,"Duration":599999,"SoundDuration":599999,"Delta":137646589},{"NoteNumber":60,"Velocity":37,"Duration":917460,"SoundDuration":917460,"Delta":137646589},{"NoteNumber":63,"Velocity":37,"Duration":599999,"SoundDuration":599999,"Delta":137646589},{"NoteNumber":44,"Velocity":33,"Duration":150000,"SoundDuration":150000,"Delta":137646589},{"NoteNumber":51,"Velocity":31,"Duration":150000,"SoundDuration":150000,"Delta":137796589},{"NoteNumber":44,"Velocity":33,"Duration":149999,"SoundDuration":149999,"Delta":137946589},{"NoteNumber":51,"Velocity":31,"Duration":150000,"SoundDuration":150000,"Delta":138096589},{"NoteNumber":63,"Velocity":40,"Duration":317460,"SoundDuration":317460,"Delta":138246589},{"NoteNumber":66,"Velocity":37,"Duration":317460,"SoundDuration":317460,"Delta":138246589},{"NoteNumber":70,"Velocity":44,"Duration":317460,"SoundDuration":317460,"Delta":138246589},{"NoteNumber":44,"Velocity":33,"Duration":158730,"SoundDuration":158730,"Delta":138246589},{"NoteNumber":51,"Velocity":31,"Duration":158730,"SoundDuration":158730,"Delta":138405319},{"NoteNumber":61,"Velocity":37,"Duration":1868352,"SoundDuration":1868352,"Delta":138564050},{"NoteNumber":63,"Velocity":40,"Duration":1868352,"SoundDuration":1868352,"Delta":138564050},{"NoteNumber":54,"Velocity":37,"Duration":652174,"SoundDuration":652174,"Delta":138564050},{"NoteNumber":44,"Velocity":32,"Duration":163043,"SoundDuration":163043,"Delta":138564050},{"NoteNumber":51,"Velocity":31,"Duration":163043,"SoundDuration":163043,"Delta":138727093},{"NoteNumber":44,"Velocity":33,"Duration":163043,"SoundDuration":163043,"Delta":138890137},{"NoteNumber":51,"Velocity":31,"Duration":163043,"SoundDuration":163043,"Delta":139053180},{"NoteNumber":56,"Velocity":34,"Duration":319149,"SoundDuration":319149,"Delta":139216224},{"NoteNumber":44,"Velocity":33,"Duration":159574,"SoundDuration":159574,"Delta":139216224},{"NoteNumber":51,"Velocity":32,"Duration":159574,"SoundDuration":159574,"Delta":139375798},{"NoteNumber":58,"Velocity":38,"Duration":599999,"SoundDuration":599999,"Delta":139535373},{"NoteNumber":44,"Velocity":34,"Duration":150000,"SoundDuration":150000,"Delta":139535373},{"NoteNumber":51,"Velocity":32,"Duration":150000,"SoundDuration":150000,"Delta":139685373},{"NoteNumber":44,"Velocity":34,"Duration":149999,"SoundDuration":149999,"Delta":139835373},{"NoteNumber":51,"Velocity":33,"Duration":150000,"SoundDuration":150000,"Delta":139985373},{"NoteNumber":61,"Velocity":37,"Duration":297029,"SoundDuration":297029,"Delta":140135373},{"NoteNumber":44,"Velocity":36,"Duration":148514,"SoundDuration":148514,"Delta":140135373},{"NoteNumber":51,"Velocity":34,"Duration":148514,"SoundDuration":148514,"Delta":140283887},{"NoteNumber":66,"Velocity":40,"Duration":599999,"SoundDuration":599999,"Delta":140432402},{"NoteNumber":60,"Velocity":37,"Duration":906122,"SoundDuration":906122,"Delta":140432402},{"NoteNumber":63,"Velocity":37,"Duration":599999,"SoundDuration":599999,"Delta":140432402},{"NoteNumber":44,"Velocity":33,"Duration":150000,"SoundDuration":150000,"Delta":140432402},{"NoteNumber":51,"Velocity":31,"Duration":150000,"SoundDuration":150000,"Delta":140582402},{"NoteNumber":44,"Velocity":33,"Duration":149999,"SoundDuration":149999,"Delta":140732402},{"NoteNumber":51,"Velocity":31,"Duration":150000,"SoundDuration":150000,"Delta":140882402},{"NoteNumber":63,"Velocity":36,"Duration":306122,"SoundDuration":306122,"Delta":141032402},{"NoteNumber":66,"Velocity":36,"Duration":586734,"SoundDuration":586734,"Delta":141032402},{"NoteNumber":70,"Velocity":39,"Duration":586734,"SoundDuration":586734,"Delta":141032402},{"NoteNumber":44,"Velocity":33,"Duration":153061,"SoundDuration":153061,"Delta":141032402},{"NoteNumber":51,"Velocity":31,"Duration":153061,"SoundDuration":153061,"Delta":141185463},{"NoteNumber":61,"Velocity":34,"Duration":280612,"SoundDuration":280612,"Delta":141338525},{"NoteNumber":44,"Velocity":37,"Duration":153061,"SoundDuration":153061,"Delta":141338525},{"NoteNumber":39,"Velocity":33,"Duration":153061,"SoundDuration":153061,"Delta":141491586},{"NoteNumber":68,"Velocity":39,"Duration":292683,"SoundDuration":292683,"Delta":141644647},{"NoteNumber":77,"Velocity":42,"Duration":292683,"SoundDuration":292683,"Delta":141644647},{"NoteNumber":72,"Velocity":39,"Duration":292683,"SoundDuration":292683,"Delta":141644647},{"NoteNumber":44,"Velocity":37,"Duration":146341,"SoundDuration":146341,"Delta":141644647},{"NoteNumber":51,"Velocity":36,"Duration":146341,"SoundDuration":146341,"Delta":141790989},{"NoteNumber":70,"Velocity":38,"Duration":292682,"SoundDuration":292682,"Delta":141937330},{"NoteNumber":75,"Velocity":41,"Duration":292682,"SoundDuration":292682,"Delta":141937330},{"NoteNumber":66,"Velocity":38,"Duration":292682,"SoundDuration":292682,"Delta":141937330},{"NoteNumber":44,"Velocity":37,"Duration":146341,"SoundDuration":146341,"Delta":141937330},{"NoteNumber":51,"Velocity":36,"Duration":146341,"SoundDuration":146341,"Delta":142083672},{"NoteNumber":61,"Velocity":36,"Duration":298507,"SoundDuration":298507,"Delta":142230013},{"NoteNumber":66,"Velocity":36,"Duration":883886,"SoundDuration":883886,"Delta":142230013},{"NoteNumber":70,"Velocity":39,"Duration":883886,"SoundDuration":883886,"Delta":142230013},{"NoteNumber":56,"Velocity":39,"Duration":149253,"SoundDuration":149253,"Delta":142230013},{"NoteNumber":51,"Velocity":34,"Duration":149253,"SoundDuration":149253,"Delta":142379267},{"NoteNumber":58,"Velocity":34,"Duration":294117,"SoundDuration":294117,"Delta":142528521},{"NoteNumber":56,"Velocity":37,"Duration":147058,"SoundDuration":147058,"Delta":142528521},{"NoteNumber":63,"Velocity":34,"Duration":147058,"SoundDuration":147058,"Delta":142675579},{"NoteNumber":61,"Velocity":34,"Duration":291261,"SoundDuration":291261,"Delta":142822638},{"NoteNumber":56,"Velocity":36,"Duration":145631,"SoundDuration":145631,"Delta":142822638},{"NoteNumber":51,"Velocity":34,"Duration":145630,"SoundDuration":145630,"Delta":142968269},{"NoteNumber":58,"Velocity":31,"Duration":294117,"SoundDuration":294117,"Delta":143113900},{"NoteNumber":68,"Velocity":36,"Duration":873840,"SoundDuration":873840,"Delta":143113900},{"NoteNumber":66,"Velocity":33,"Duration":873840,"SoundDuration":873840,"Delta":143113900},{"NoteNumber":56,"Velocity":37,"Duration":147058,"SoundDuration":147058,"Delta":143113900},{"NoteNumber":51,"Velocity":34,"Duration":147058,"SoundDuration":147058,"Delta":143260959},{"NoteNumber":60,"Velocity":34,"Duration":291261,"SoundDuration":291261,"Delta":143408018},{"NoteNumber":44,"Velocity":34,"Duration":145631,"SoundDuration":145631,"Delta":143408018},{"NoteNumber":51,"Velocity":33,"Duration":145630,"SoundDuration":145630,"Delta":143553649},{"NoteNumber":63,"Velocity":34,"Duration":288461,"SoundDuration":288461,"Delta":143699280},{"NoteNumber":44,"Velocity":34,"Duration":144230,"SoundDuration":144230,"Delta":143699280},{"NoteNumber":39,"Velocity":33,"Duration":144230,"SoundDuration":144230,"Delta":143843510},{"NoteNumber":66,"Velocity":34,"Duration":266990,"SoundDuration":266990,"Delta":143987741},{"NoteNumber":70,"Velocity":34,"Duration":266990,"SoundDuration":266990,"Delta":143987741},{"NoteNumber":61,"Velocity":34,"Duration":266990,"SoundDuration":266990,"Delta":143987741},{"NoteNumber":44,"Velocity":37,"Duration":145631,"SoundDuration":145631,"Delta":143987741},{"NoteNumber":39,"Velocity":33,"Duration":145630,"SoundDuration":145630,"Delta":144133372},{"NoteNumber":68,"Velocity":39,"Duration":289854,"SoundDuration":289854,"Delta":144279003},{"NoteNumber":77,"Velocity":42,"Duration":289854,"SoundDuration":289854,"Delta":144279003},{"NoteNumber":72,"Velocity":39,"Duration":289854,"SoundDuration":289854,"Delta":144279003},{"NoteNumber":44,"Velocity":37,"Duration":144927,"SoundDuration":144927,"Delta":144279003},{"NoteNumber":51,"Velocity":36,"Duration":144927,"SoundDuration":144927,"Delta":144423931},{"NoteNumber":66,"Velocity":38,"Duration":289855,"SoundDuration":289855,"Delta":144568858},{"NoteNumber":75,"Velocity":41,"Duration":289855,"SoundDuration":289855,"Delta":144568858},{"NoteNumber":70,"Velocity":38,"Duration":289855,"SoundDuration":289855,"Delta":144568858},{"NoteNumber":44,"Velocity":37,"Duration":144927,"SoundDuration":144927,"Delta":144568858},{"NoteNumber":51,"Velocity":36,"Duration":144927,"SoundDuration":144927,"Delta":144713786},{"NoteNumber":66,"Velocity":36,"Duration":886887,"SoundDuration":886887,"Delta":144858713},{"NoteNumber":70,"Velocity":39,"Duration":886887,"SoundDuration":886887,"Delta":144858713},{"NoteNumber":61,"Velocity":36,"Duration":301507,"SoundDuration":301507,"Delta":144858713},{"NoteNumber":56,"Velocity":39,"Duration":150753,"SoundDuration":150753,"Delta":144858713},{"NoteNumber":51,"Velocity":34,"Duration":150753,"SoundDuration":150753,"Delta":145009467},{"NoteNumber":58,"Velocity":34,"Duration":294117,"SoundDuration":294117,"Delta":145160221},{"NoteNumber":56,"Velocity":37,"Duration":147058,"SoundDuration":147058,"Delta":145160221},{"NoteNumber":63,"Velocity":34,"Duration":147058,"SoundDuration":147058,"Delta":145307279},{"NoteNumber":61,"Velocity":34,"Duration":291261,"SoundDuration":291261,"Delta":145454338},{"NoteNumber":56,"Velocity":36,"Duration":145631,"SoundDuration":145631,"Delta":145454338},{"NoteNumber":51,"Velocity":34,"Duration":145630,"SoundDuration":145630,"Delta":145599969},{"NoteNumber":58,"Velocity":31,"Duration":300000,"SoundDuration":300000,"Delta":145745600},{"NoteNumber":68,"Velocity":36,"Duration":911378,"SoundDuration":911378,"Delta":145745600},{"NoteNumber":66,"Velocity":33,"Duration":911378,"SoundDuration":911378,"Delta":145745600},{"NoteNumber":56,"Velocity":37,"Duration":150000,"SoundDuration":150000,"Delta":145745600},{"NoteNumber":51,"Velocity":37,"Duration":150000,"SoundDuration":150000,"Delta":145895600},{"NoteNumber":60,"Velocity":34,"Duration":294117,"SoundDuration":294117,"Delta":146045600},{"NoteNumber":56,"Velocity":34,"Duration":147058,"SoundDuration":147058,"Delta":146045600},{"NoteNumber":51,"Velocity":33,"Duration":147058,"SoundDuration":147058,"Delta":146192659},{"NoteNumber":63,"Velocity":34,"Duration":317261,"SoundDuration":317261,"Delta":146339718},{"NoteNumber":56,"Velocity":34,"Duration":151515,"SoundDuration":151515,"Delta":146339718},{"NoteNumber":51,"Velocity":33,"Duration":165745,"SoundDuration":165745,"Delta":146491233},{"NoteNumber":75,"Velocity":48,"Duration":1827965,"SoundDuration":1827965,"Delta":146656979},{"NoteNumber":61,"Velocity":40,"Duration":1827965,"SoundDuration":1827965,"Delta":146656979},{"NoteNumber":54,"Velocity":40,"Duration":618690,"SoundDuration":618690,"Delta":146656979},{"NoteNumber":63,"Velocity":32,"Duration":154639,"SoundDuration":154639,"Delta":146811618},{"NoteNumber":66,"Velocity":34,"Duration":154639,"SoundDuration":154639,"Delta":146966257},{"NoteNumber":70,"Velocity":32,"Duration":154772,"SoundDuration":154772,"Delta":147120896},{"NoteNumber":66,"Velocity":34,"Duration":150000,"SoundDuration":150000,"Delta":147275669},{"NoteNumber":56,"Velocity":39,"Duration":300000,"SoundDuration":300000,"Delta":147275669},{"NoteNumber":63,"Velocity":32,"Duration":150000,"SoundDuration":150000,"Delta":147425669},{"NoteNumber":58,"Velocity":42,"Duration":612245,"SoundDuration":612245,"Delta":147575669},{"NoteNumber":63,"Velocity":32,"Duration":153061,"SoundDuration":153061,"Delta":147728730},{"NoteNumber":66,"Velocity":36,"Duration":153061,"SoundDuration":153061,"Delta":147881792},{"NoteNumber":70,"Velocity":32,"Duration":153061,"SoundDuration":153061,"Delta":148034853},{"NoteNumber":66,"Velocity":36,"Duration":148514,"SoundDuration":148514,"Delta":148187914},{"NoteNumber":61,"Velocity":40,"Duration":297029,"SoundDuration":297029,"Delta":148187914},{"NoteNumber":63,"Velocity":32,"Duration":148514,"SoundDuration":148514,"Delta":148336429},{"NoteNumber":78,"Velocity":53,"Duration":625000,"SoundDuration":625000,"Delta":148484944},{"NoteNumber":60,"Velocity":40,"Duration":956491,"SoundDuration":956491,"Delta":148484944},{"NoteNumber":63,"Velocity":30,"Duration":156250,"SoundDuration":156250,"Delta":148641194},{"NoteNumber":66,"Velocity":30,"Duration":156250,"SoundDuration":156250,"Delta":148797444},{"NoteNumber":70,"Velocity":30,"Duration":156250,"SoundDuration":156250,"Delta":148953694},{"NoteNumber":82,"Velocity":50,"Duration":331491,"SoundDuration":331491,"Delta":149109944},{"NoteNumber":72,"Velocity":30,"Duration":165745,"SoundDuration":165745,"Delta":149109944},{"NoteNumber":75,"Velocity":32,"Duration":165745,"SoundDuration":165745,"Delta":149275689},{"NoteNumber":75,"Velocity":48,"Duration":1932749,"SoundDuration":1932749,"Delta":149441435},{"NoteNumber":61,"Velocity":40,"Duration":1932749,"SoundDuration":1932749,"Delta":149441435},{"NoteNumber":54,"Velocity":40,"Duration":628000,"SoundDuration":628000,"Delta":149441435},{"NoteNumber":63,"Velocity":32,"Duration":157067,"SoundDuration":157067,"Delta":149598503},{"NoteNumber":66,"Velocity":34,"Duration":157068,"SoundDuration":157068,"Delta":149755571},{"NoteNumber":70,"Velocity":32,"Duration":156796,"SoundDuration":156796,"Delta":149912639},{"NoteNumber":66,"Velocity":34,"Duration":154639,"SoundDuration":154639,"Delta":150069436},{"NoteNumber":56,"Velocity":39,"Duration":309278,"SoundDuration":309278,"Delta":150069436},{"NoteNumber":63,"Velocity":32,"Duration":154639,"SoundDuration":154639,"Delta":150224075},{"NoteNumber":58,"Velocity":42,"Duration":648649,"SoundDuration":648649,"Delta":150378714},{"NoteNumber":63,"Velocity":32,"Duration":162162,"SoundDuration":162162,"Delta":150540877},{"NoteNumber":66,"Velocity":36,"Duration":162162,"SoundDuration":162162,"Delta":150703039},{"NoteNumber":70,"Velocity":32,"Duration":162162,"SoundDuration":162162,"Delta":150865201},{"NoteNumber":66,"Velocity":36,"Duration":173410,"SoundDuration":173410,"Delta":151027363},{"NoteNumber":61,"Velocity":40,"Duration":346821,"SoundDuration":346821,"Delta":151027363},{"NoteNumber":63,"Velocity":32,"Duration":173410,"SoundDuration":173410,"Delta":151200774},{"NoteNumber":78,"Velocity":53,"Duration":674157,"SoundDuration":674157,"Delta":151374184},{"NoteNumber":60,"Velocity":40,"Duration":1074157,"SoundDuration":1074157,"Delta":151374184},{"NoteNumber":63,"Velocity":30,"Duration":168539,"SoundDuration":168539,"Delta":151542724},{"NoteNumber":66,"Velocity":30,"Duration":168539,"SoundDuration":168539,"Delta":151711263},{"NoteNumber":70,"Velocity":30,"Duration":168539,"SoundDuration":168539,"Delta":151879802},{"NoteNumber":72,"Velocity":32,"Duration":199999,"SoundDuration":199999,"Delta":152048341},{"NoteNumber":82,"Velocity":52,"Duration":400000,"SoundDuration":400000,"Delta":152048341},{"NoteNumber":75,"Velocity":32,"Duration":200000,"SoundDuration":200000,"Delta":152248341},{"NoteNumber":87,"Velocity":52,"Duration":3786782,"SoundDuration":3786782,"Delta":152448341},{"NoteNumber":66,"Velocity":44,"Duration":1101706,"SoundDuration":1101706,"Delta":152448341},{"NoteNumber":70,"Velocity":37,"Duration":157068,"SoundDuration":157068,"Delta":152610504},{"NoteNumber":73,"Velocity":37,"Duration":156522,"SoundDuration":156522,"Delta":152767572},{"NoteNumber":75,"Velocity":36,"Duration":155845,"SoundDuration":155845,"Delta":152924094},{"NoteNumber":78,"Velocity":33,"Duration":155173,"SoundDuration":155173,"Delta":153079940},{"NoteNumber":82,"Velocity":32,"Duration":154507,"SoundDuration":154507,"Delta":153235113},{"NoteNumber":66,"Velocity":36,"Duration":1093198,"SoundDuration":1093198,"Delta":153389620},{"NoteNumber":70,"Velocity":32,"Duration":154639,"SoundDuration":154639,"Delta":153550048},{"NoteNumber":73,"Velocity":32,"Duration":154639,"SoundDuration":154639,"Delta":153704687},{"NoteNumber":75,"Velocity":36,"Duration":154639,"SoundDuration":154639,"Delta":153859326},{"NoteNumber":78,"Velocity":33,"Duration":154639,"SoundDuration":154639,"Delta":154013966},{"NoteNumber":84,"Velocity":32,"Duration":154639,"SoundDuration":154639,"Delta":154168605},{"NoteNumber":66,"Velocity":37,"Duration":942143,"SoundDuration":942143,"Delta":154323244},{"NoteNumber":70,"Velocity":31,"Duration":154639,"SoundDuration":154639,"Delta":154482819},{"NoteNumber":73,"Velocity":31,"Duration":154906,"SoundDuration":154906,"Delta":154637458},{"NoteNumber":75,"Velocity":33,"Duration":156251,"SoundDuration":156251,"Delta":154792364},{"NoteNumber":78,"Velocity":32,"Duration":157619,"SoundDuration":157619,"Delta":154948616},{"NoteNumber":82,"Velocity":31,"Duration":159152,"SoundDuration":159152,"Delta":155106235},{"NoteNumber":66,"Velocity":39,"Duration":1135482,"SoundDuration":1135482,"Delta":155265387},{"NoteNumber":69,"Velocity":30,"Duration":160427,"SoundDuration":160427,"Delta":155432985},{"NoteNumber":73,"Velocity":30,"Duration":160427,"SoundDuration":160427,"Delta":155593413},{"NoteNumber":75,"Velocity":32,"Duration":160427,"SoundDuration":160427,"Delta":155753840},{"NoteNumber":78,"Velocity":31,"Duration":160427,"SoundDuration":160427,"Delta":155914268},{"NoteNumber":81,"Velocity":31,"Duration":160427,"SoundDuration":160427,"Delta":156074696},{"NoteNumber":85,"Velocity":52,"Duration":994474,"SoundDuration":994474,"Delta":156235124},{"NoteNumber":66,"Velocity":34,"Duration":1167564,"SoundDuration":1167564,"Delta":156235124},{"NoteNumber":69,"Velocity":30,"Duration":165745,"SoundDuration":165745,"Delta":156400869},{"NoteNumber":73,"Velocity":28,"Duration":165745,"SoundDuration":165745,"Delta":156566615},{"NoteNumber":75,"Velocity":31,"Duration":165745,"SoundDuration":165745,"Delta":156732361},{"NoteNumber":78,"Velocity":30,"Duration":165745,"SoundDuration":165745,"Delta":156898107},{"NoteNumber":83,"Velocity":28,"Duration":165745,"SoundDuration":165745,"Delta":157063852},{"NoteNumber":87,"Velocity":52,"Duration":1193053,"SoundDuration":1193053,"Delta":157229598},{"NoteNumber":66,"Velocity":34,"Duration":1193053,"SoundDuration":1193053,"Delta":157229598},{"NoteNumber":69,"Velocity":28,"Duration":178405,"SoundDuration":178405,"Delta":157402688},{"NoteNumber":73,"Velocity":28,"Duration":184250,"SoundDuration":184250,"Delta":157581094},{"NoteNumber":75,"Velocity":28,"Duration":190291,"SoundDuration":190291,"Delta":157765344},{"NoteNumber":78,"Velocity":28,"Duration":196746,"SoundDuration":196746,"Delta":157955636},{"NoteNumber":81,"Velocity":27,"Duration":270270,"SoundDuration":270270,"Delta":158152382},{"NoteNumber":65,"Velocity":32,"Duration":2641027,"SoundDuration":2641027,"Delta":158422652},{"NoteNumber":68,"Velocity":32,"Duration":217961,"SoundDuration":217961,"Delta":158669925},{"NoteNumber":72,"Velocity":32,"Duration":199999,"SoundDuration":199999,"Delta":158887886},{"NoteNumber":77,"Velocity":32,"Duration":191082,"SoundDuration":191082,"Delta":159087886},{"NoteNumber":80,"Velocity":32,"Duration":184181,"SoundDuration":184181,"Delta":159278969},{"NoteNumber":84,"Velocity":32,"Duration":267195,"SoundDuration":267195,"Delta":159463151},{"NoteNumber":89,"Velocity":38,"Duration":1333333,"SoundDuration":1333333,"Delta":159730346},{"NoteNumber":92,"Velocity":38,"Duration":1333333,"SoundDuration":1333333,"Delta":159730346},{"NoteNumber":89,"Velocity":39,"Duration":1735884,"SoundDuration":1735884,"Delta":161063680},{"NoteNumber":65,"Velocity":29,"Duration":1333333,"SoundDuration":1333333,"Delta":161063680},{"NoteNumber":65,"Velocity":30,"Duration":2444738,"SoundDuration":2444738,"Delta":162397013},{"NoteNumber":69,"Velocity":30,"Duration":198690,"SoundDuration":198690,"Delta":162600875},{"NoteNumber":84,"Velocity":33,"Duration":382165,"SoundDuration":382165,"Delta":162799565},{"NoteNumber":87,"Velocity":36,"Duration":382165,"SoundDuration":382165,"Delta":162799565},{"NoteNumber":72,"Velocity":29,"Duration":191082,"SoundDuration":191082,"Delta":162799565},{"NoteNumber":75,"Velocity":28,"Duration":191082,"SoundDuration":191082,"Delta":162990647},{"NoteNumber":89,"Velocity":31,"Duration":392416,"SoundDuration":392416,"Delta":163181730},{"NoteNumber":85,"Velocity":29,"Duration":392416,"SoundDuration":392416,"Delta":163181730},{"NoteNumber":77,"Velocity":27,"Duration":194389,"SoundDuration":194389,"Delta":163181730},{"NoteNumber":81,"Velocity":27,"Duration":198027,"SoundDuration":198027,"Delta":163376119},{"NoteNumber":87,"Velocity":29,"Duration":2925564,"SoundDuration":2925564,"Delta":163574147},{"NoteNumber":84,"Velocity":27,"Duration":2925564,"SoundDuration":2925564,"Delta":163574147},{"NoteNumber":65,"Velocity":28,"Duration":1267605,"SoundDuration":1267605,"Delta":164841752},{"NoteNumber":65,"Velocity":29,"Duration":2483474,"SoundDuration":2483474,"Delta":166109357},{"NoteNumber":68,"Velocity":29,"Duration":192320,"SoundDuration":192320,"Delta":166307390},{"NoteNumber":82,"Velocity":36,"Duration":377358,"SoundDuration":377358,"Delta":166499711},{"NoteNumber":85,"Velocity":39,"Duration":377358,"SoundDuration":377358,"Delta":166499711},{"NoteNumber":70,"Velocity":28,"Duration":188679,"SoundDuration":188679,"Delta":166499711},{"NoteNumber":73,"Velocity":28,"Duration":188679,"SoundDuration":188679,"Delta":166688391},{"NoteNumber":84,"Velocity":30,"Duration":388585,"SoundDuration":388585,"Delta":166877070},{"NoteNumber":87,"Velocity":33,"Duration":388585,"SoundDuration":388585,"Delta":166877070},{"NoteNumber":77,"Velocity":27,"Duration":192928,"SoundDuration":192928,"Delta":166877070},{"NoteNumber":80,"Velocity":27,"Duration":195656,"SoundDuration":195656,"Delta":167069998},{"NoteNumber":85,"Velocity":30,"Duration":671641,"SoundDuration":671641,"Delta":167265655},{"NoteNumber":82,"Velocity":28,"Duration":671641,"SoundDuration":671641,"Delta":167265655},{"NoteNumber":89,"Velocity":41,"Duration":1303016,"SoundDuration":1303016,"Delta":167937296},{"NoteNumber":85,"Velocity":38,"Duration":1303016,"SoundDuration":1303016,"Delta":167937296},{"NoteNumber":65,"Velocity":28,"Duration":1294963,"SoundDuration":1294963,"Delta":168592831},{"NoteNumber":85,"Velocity":36,"Duration":1040896,"SoundDuration":1040896,"Delta":169240313},{"NoteNumber":82,"Velocity":33,"Duration":1040896,"SoundDuration":1040896,"Delta":169240313},{"NoteNumber":63,"Velocity":28,"Duration":2411565,"SoundDuration":2411565,"Delta":169887795},{"NoteNumber":66,"Velocity":28,"Duration":192949,"SoundDuration":192949,"Delta":170088260},{"NoteNumber":84,"Velocity":30,"Duration":368098,"SoundDuration":368098,"Delta":170281209},{"NoteNumber":80,"Velocity":28,"Duration":368098,"SoundDuration":368098,"Delta":170281209},{"NoteNumber":68,"Velocity":26,"Duration":184048,"SoundDuration":184048,"Delta":170281209},{"NoteNumber":72,"Velocity":25,"Duration":184049,"SoundDuration":184049,"Delta":170465258},{"NoteNumber":82,"Velocity":27,"Duration":382447,"SoundDuration":382447,"Delta":170649307},{"NoteNumber":85,"Velocity":29,"Duration":382447,"SoundDuration":382447,"Delta":170649307},{"NoteNumber":75,"Velocity":25,"Duration":188885,"SoundDuration":188885,"Delta":170649307},{"NoteNumber":78,"Velocity":23,"Duration":193561,"SoundDuration":193561,"Delta":170838193},{"NoteNumber":84,"Velocity":26,"Duration":2535210,"SoundDuration":2535210,"Delta":171031755},{"NoteNumber":80,"Velocity":24,"Duration":2535210,"SoundDuration":2535210,"Delta":171031755},{"NoteNumber":63,"Velocity":27,"Duration":1267605,"SoundDuration":1267605,"Delta":172299360},{"NoteNumber":61,"Velocity":32,"Duration":2302164,"SoundDuration":2302164,"Delta":173566965},{"NoteNumber":63,"Velocity":32,"Duration":189281,"SoundDuration":189281,"Delta":173760519},{"NoteNumber":78,"Velocity":35,"Duration":373059,"SoundDuration":373059,"Delta":173949800},{"NoteNumber":82,"Velocity":38,"Duration":373059,"SoundDuration":373059,"Delta":173949800},{"NoteNumber":66,"Velocity":32,"Duration":186335,"SoundDuration":186335,"Delta":173949800},{"NoteNumber":70,"Velocity":32,"Duration":186723,"SoundDuration":186723,"Delta":174136136},{"NoteNumber":84,"Velocity":35,"Duration":380782,"SoundDuration":380782,"Delta":174322860},{"NoteNumber":80,"Velocity":32,"Duration":380782,"SoundDuration":380782,"Delta":174322860},{"NoteNumber":73,"Velocity":32,"Duration":188880,"SoundDuration":188880,"Delta":174322860},{"NoteNumber":75,"Velocity":32,"Duration":191902,"SoundDuration":191902,"Delta":174511740},{"NoteNumber":82,"Velocity":35,"Duration":408163,"SoundDuration":408163,"Delta":174703642},{"NoteNumber":78,"Velocity":29,"Duration":1165487,"SoundDuration":1165487,"Delta":174703642},{"NoteNumber":87,"Velocity":38,"Duration":379747,"SoundDuration":379747,"Delta":175111806},{"NoteNumber":82,"Velocity":36,"Duration":377576,"SoundDuration":377576,"Delta":175491553},{"NoteNumber":60,"Velocity":24,"Duration":1521960,"SoundDuration":1521960,"Delta":175491553},{"NoteNumber":63,"Velocity":24,"Duration":1423485,"SoundDuration":1423485,"Delta":175590028},{"NoteNumber":65,"Velocity":24,"Duration":1327734,"SoundDuration":1327734,"Delta":175685779},{"NoteNumber":68,"Velocity":24,"Duration":1234753,"SoundDuration":1234753,"Delta":175778759},{"NoteNumber":77,"Velocity":29,"Duration":1518803,"SoundDuration":1518803,"Delta":175869129},{"NoteNumber":80,"Velocity":39,"Duration":384615,"SoundDuration":384615,"Delta":175869129},{"NoteNumber":72,"Velocity":24,"Duration":1144383,"SoundDuration":1144383,"Delta":175869129},{"NoteNumber":82,"Velocity":36,"Duration":372670,"SoundDuration":372670,"Delta":176253745},{"NoteNumber":80,"Velocity":35,"Duration":761517,"SoundDuration":761517,"Delta":176626416},{"NoteNumber":48,"Velocity":30,"Duration":2289527,"SoundDuration":2289527,"Delta":177013513},{"NoteNumber":54,"Velocity":30,"Duration":183317,"SoundDuration":183317,"Delta":177204616},{"NoteNumber":78,"Velocity":33,"Duration":363636,"SoundDuration":363636,"Delta":177387933},{"NoteNumber":75,"Velocity":30,"Duration":363636,"SoundDuration":363636,"Delta":177387933},{"NoteNumber":58,"Velocity":29,"Duration":181818,"SoundDuration":181818,"Delta":177387933},{"NoteNumber":60,"Velocity":29,"Duration":181818,"SoundDuration":181818,"Delta":177569752},{"NoteNumber":80,"Velocity":31,"Duration":375000,"SoundDuration":375000,"Delta":177751570},{"NoteNumber":77,"Velocity":29,"Duration":375000,"SoundDuration":375000,"Delta":177751570},{"NoteNumber":63,"Velocity":28,"Duration":187500,"SoundDuration":187500,"Delta":177751570},{"NoteNumber":66,"Velocity":28,"Duration":187500,"SoundDuration":187500,"Delta":177939070},{"NoteNumber":78,"Velocity":31,"Duration":1176470,"SoundDuration":1176470,"Delta":178126570},{"NoteNumber":75,"Velocity":29,"Duration":1176470,"SoundDuration":1176470,"Delta":178126570},{"NoteNumber":70,"Velocity":29,"Duration":1176470,"SoundDuration":1176470,"Delta":178126570},{"NoteNumber":69,"Velocity":32,"Duration":1176471,"SoundDuration":1176471,"Delta":179303041},{"NoteNumber":77,"Velocity":33,"Duration":1564255,"SoundDuration":1564255,"Delta":179303041},{"NoteNumber":63,"Velocity":29,"Duration":1176471,"SoundDuration":1176471,"Delta":179303041},{"NoteNumber":60,"Velocity":29,"Duration":1176471,"SoundDuration":1176471,"Delta":179303041},{"NoteNumber":53,"Velocity":29,"Duration":1176471,"SoundDuration":1176471,"Delta":179303041},{"NoteNumber":56,"Velocity":30,"Duration":2326988,"SoundDuration":2326988,"Delta":180479512},{"NoteNumber":58,"Velocity":28,"Duration":191700,"SoundDuration":191700,"Delta":180675596},{"NoteNumber":77,"Velocity":37,"Duration":377358,"SoundDuration":377358,"Delta":180867296},{"NoteNumber":73,"Velocity":34,"Duration":377358,"SoundDuration":377358,"Delta":180867296},{"NoteNumber":61,"Velocity":28,"Duration":188679,"SoundDuration":188679,"Delta":180867296},{"NoteNumber":65,"Velocity":27,"Duration":188679,"SoundDuration":188679,"Delta":181055976},{"NoteNumber":75,"Velocity":33,"Duration":378754,"SoundDuration":378754,"Delta":181244655},{"NoteNumber":78,"Velocity":36,"Duration":378754,"SoundDuration":378754,"Delta":181244655},{"NoteNumber":68,"Velocity":27,"Duration":188679,"SoundDuration":188679,"Delta":181244655},{"NoteNumber":70,"Velocity":27,"Duration":190075,"SoundDuration":190075,"Delta":181433334},{"NoteNumber":77,"Velocity":36,"Duration":408163,"SoundDuration":408163,"Delta":181623409},{"NoteNumber":73,"Velocity":29,"Duration":1183091,"SoundDuration":1183091,"Delta":181623409},{"NoteNumber":82,"Velocity":38,"Duration":387097,"SoundDuration":387097,"Delta":182031573},{"NoteNumber":77,"Velocity":36,"Duration":387830,"SoundDuration":387830,"Delta":182418670},{"NoteNumber":54,"Velocity":27,"Duration":1414874,"SoundDuration":1414874,"Delta":182517790},{"NoteNumber":58,"Velocity":27,"Duration":1317259,"SoundDuration":1317259,"Delta":182615405},{"NoteNumber":61,"Velocity":27,"Duration":1221103,"SoundDuration":1221103,"Delta":182711561},{"NoteNumber":73,"Velocity":28,"Duration":1126164,"SoundDuration":1126164,"Delta":182806500},{"NoteNumber":75,"Velocity":37,"Duration":363636,"SoundDuration":363636,"Delta":182806500},{"NoteNumber":63,"Velocity":27,"Duration":1126164,"SoundDuration":1126164,"Delta":182806500},{"NoteNumber":77,"Velocity":36,"Duration":370370,"SoundDuration":370370,"Delta":183170137},{"NoteNumber":75,"Velocity":36,"Duration":766031,"SoundDuration":766031,"Delta":183540507},{"NoteNumber":53,"Velocity":29,"Duration":2325411,"SoundDuration":2325411,"Delta":183932664},{"NoteNumber":56,"Velocity":29,"Duration":185189,"SoundDuration":185189,"Delta":184121349},{"NoteNumber":73,"Velocity":33,"Duration":366040,"SoundDuration":366040,"Delta":184306538},{"NoteNumber":70,"Velocity":30,"Duration":366040,"SoundDuration":366040,"Delta":184306538},{"NoteNumber":58,"Velocity":28,"Duration":182926,"SoundDuration":182926,"Delta":184306538},{"NoteNumber":61,"Velocity":28,"Duration":183113,"SoundDuration":183113,"Delta":184489465},{"NoteNumber":75,"Velocity":31,"Duration":377443,"SoundDuration":377443,"Delta":184672579},{"NoteNumber":72,"Velocity":29,"Duration":377443,"SoundDuration":377443,"Delta":184672579},{"NoteNumber":65,"Velocity":27,"Duration":186347,"SoundDuration":186347,"Delta":184672579},{"NoteNumber":68,"Velocity":27,"Duration":191095,"SoundDuration":191095,"Delta":184858926},{"NoteNumber":73,"Velocity":31,"Duration":1208053,"SoundDuration":1208053,"Delta":185050022},{"NoteNumber":70,"Velocity":29,"Duration":1208053,"SoundDuration":1208053,"Delta":185050022},{"NoteNumber":72,"Velocity":26,"Duration":1760966,"SoundDuration":1760966,"Delta":186258076},{"NoteNumber":68,"Velocity":24,"Duration":1760966,"SoundDuration":1760966,"Delta":186258076},{"NoteNumber":51,"Velocity":32,"Duration":743801,"SoundDuration":743801,"Delta":186258076},{"NoteNumber":54,"Velocity":32,"Duration":1760966,"SoundDuration":1760966,"Delta":186258076},{"NoteNumber":60,"Velocity":32,"Duration":1760966,"SoundDuration":1760966,"Delta":186258076},{"NoteNumber":44,"Velocity":32,"Duration":3975236,"SoundDuration":3975236,"Delta":187001878},{"NoteNumber":37,"Velocity":28,"Duration":2958071,"SoundDuration":2958071,"Delta":188019043},{"NoteNumber":53,"Velocity":26,"Duration":416203,"SoundDuration":416203,"Delta":188490741},{"NoteNumber":56,"Velocity":26,"Duration":416203,"SoundDuration":416203,"Delta":188490741},{"NoteNumber":65,"Velocity":33,"Duration":3487492,"SoundDuration":3487492,"Delta":188906945},{"NoteNumber":68,"Velocity":33,"Duration":3487492,"SoundDuration":3487492,"Delta":188906945},{"NoteNumber":80,"Velocity":36,"Duration":1451613,"SoundDuration":1451613,"Delta":189525501},{"NoteNumber":77,"Velocity":36,"Duration":1451613,"SoundDuration":1451613,"Delta":189525501},{"NoteNumber":59,"Velocity":28,"Duration":2868936,"SoundDuration":2868936,"Delta":189525501},{"NoteNumber":73,"Velocity":33,"Duration":1853496,"SoundDuration":1853496,"Delta":190977114},{"NoteNumber":77,"Velocity":33,"Duration":1853496,"SoundDuration":1853496,"Delta":190977114},{"NoteNumber":42,"Velocity":26,"Duration":2646298,"SoundDuration":2646298,"Delta":192394437},{"NoteNumber":49,"Velocity":31,"Duration":2646298,"SoundDuration":2646298,"Delta":192394437},{"NoteNumber":70,"Velocity":25,"Duration":3518646,"SoundDuration":3518646,"Delta":192830611},{"NoteNumber":75,"Velocity":39,"Duration":418936,"SoundDuration":418936,"Delta":192830611},{"NoteNumber":66,"Velocity":25,"Duration":3518646,"SoundDuration":3518646,"Delta":192830611},{"NoteNumber":61,"Velocity":25,"Duration":3518646,"SoundDuration":3518646,"Delta":192830611},{"NoteNumber":58,"Velocity":21,"Duration":3518646,"SoundDuration":3518646,"Delta":192830611},{"NoteNumber":54,"Velocity":21,"Duration":3518646,"SoundDuration":3518646,"Delta":192830611},{"NoteNumber":49,"Velocity":21,"Duration":3518646,"SoundDuration":3518646,"Delta":192830611},{"NoteNumber":77,"Velocity":34,"Duration":458155,"SoundDuration":458155,"Delta":193249547},{"NoteNumber":75,"Velocity":29,"Duration":3103022,"SoundDuration":3103022,"Delta":193707702},{"NoteNumber":44,"Velocity":33,"Duration":2743446,"SoundDuration":2743446,"Delta":196349257},{"NoteNumber":68,"Velocity":36,"Duration":936687,"SoundDuration":936687,"Delta":196810724},{"NoteNumber":61,"Velocity":36,"Duration":439174,"SoundDuration":439174,"Delta":196810724},{"NoteNumber":73,"Velocity":36,"Duration":439174,"SoundDuration":439174,"Delta":196810724},{"NoteNumber":53,"Velocity":31,"Duration":936687,"SoundDuration":936687,"Delta":196810724},{"NoteNumber":56,"Velocity":31,"Duration":936687,"SoundDuration":936687,"Delta":196810724},{"NoteNumber":75,"Velocity":37,"Duration":497512,"SoundDuration":497512,"Delta":197249899},{"NoteNumber":63,"Velocity":37,"Duration":497512,"SoundDuration":497512,"Delta":197249899},{"NoteNumber":68,"Velocity":37,"Duration":1345291,"SoundDuration":1345291,"Delta":197747411},{"NoteNumber":80,"Velocity":37,"Duration":1345291,"SoundDuration":1345291,"Delta":197747411},{"NoteNumber":77,"Velocity":37,"Duration":1345291,"SoundDuration":1345291,"Delta":197747411},{"NoteNumber":59,"Velocity":26,"Duration":2690583,"SoundDuration":2690583,"Delta":197747411},{"NoteNumber":65,"Velocity":31,"Duration":1341554,"SoundDuration":1341554,"Delta":197747411},{"NoteNumber":61,"Velocity":31,"Duration":1345291,"SoundDuration":1345291,"Delta":197747411},{"NoteNumber":73,"Velocity":33,"Duration":1345291,"SoundDuration":1345291,"Delta":199092703},{"NoteNumber":77,"Velocity":33,"Duration":1781464,"SoundDuration":1781464,"Delta":199092703},{"NoteNumber":65,"Velocity":33,"Duration":1345291,"SoundDuration":1345291,"Delta":199092703},{"NoteNumber":61,"Velocity":30,"Duration":1345291,"SoundDuration":1345291,"Delta":199092703},{"NoteNumber":46,"Velocity":31,"Duration":2658556,"SoundDuration":2658556,"Delta":200437994},{"NoteNumber":65,"Velocity":25,"Duration":3650954,"SoundDuration":3650954,"Delta":200874168},{"NoteNumber":70,"Velocity":25,"Duration":3650954,"SoundDuration":3650954,"Delta":200874168},{"NoteNumber":75,"Velocity":39,"Duration":418936,"SoundDuration":418936,"Delta":200874168},{"NoteNumber":63,"Velocity":25,"Duration":2222382,"SoundDuration":2222382,"Delta":200874168},{"NoteNumber":58,"Velocity":25,"Duration":3650954,"SoundDuration":3650954,"Delta":200874168},{"NoteNumber":53,"Velocity":21,"Duration":3650954,"SoundDuration":3650954,"Delta":200874168},{"NoteNumber":77,"Velocity":34,"Duration":458155,"SoundDuration":458155,"Delta":201293104},{"NoteNumber":75,"Velocity":29,"Duration":1345291,"SoundDuration":1345291,"Delta":201751259},{"NoteNumber":73,"Velocity":29,"Duration":1428571,"SoundDuration":1428571,"Delta":203096550},{"NoteNumber":61,"Velocity":30,"Duration":1428571,"SoundDuration":1428571,"Delta":203096550},{"NoteNumber":41,"Velocity":34,"Duration":4347010,"SoundDuration":4347010,"Delta":204525122},{"NoteNumber":61,"Velocity":37,"Duration":472441,"SoundDuration":472441,"Delta":205008993},{"NoteNumber":56,"Velocity":33,"Duration":1072440,"SoundDuration":1072440,"Delta":205008993},{"NoteNumber":63,"Velocity":40,"Duration":599999,"SoundDuration":599999,"Delta":205481434},{"NoteNumber":65,"Velocity":33,"Duration":1395349,"SoundDuration":1395349,"Delta":206081434},{"NoteNumber":70,"Velocity":37,"Duration":1395349,"SoundDuration":1395349,"Delta":206081434},{"NoteNumber":61,"Velocity":33,"Duration":1395349,"SoundDuration":1395349,"Delta":206081434},{"NoteNumber":56,"Velocity":27,"Duration":1395349,"SoundDuration":1395349,"Delta":207476783},{"NoteNumber":61,"Velocity":27,"Duration":1395349,"SoundDuration":1395349,"Delta":207476783},{"NoteNumber":65,"Velocity":31,"Duration":1395349,"SoundDuration":1395349,"Delta":207476783},{"NoteNumber":39,"Velocity":34,"Duration":2975627,"SoundDuration":2975627,"Delta":208872133},{"NoteNumber":58,"Velocity":33,"Duration":1066500,"SoundDuration":1066500,"Delta":209363936},{"NoteNumber":61,"Velocity":33,"Duration":1066500,"SoundDuration":1066500,"Delta":209363936},{"NoteNumber":66,"Velocity":37,"Duration":472441,"SoundDuration":472441,"Delta":209363936},{"NoteNumber":68,"Velocity":40,"Duration":594059,"SoundDuration":594059,"Delta":209836377},{"NoteNumber":66,"Velocity":29,"Duration":1417323,"SoundDuration":1417323,"Delta":210430437},{"NoteNumber":70,"Velocity":29,"Duration":1417323,"SoundDuration":1417323,"Delta":210430437},{"NoteNumber":73,"Velocity":33,"Duration":1417323,"SoundDuration":1417323,"Delta":210430437},{"NoteNumber":51,"Velocity":25,"Duration":1417323,"SoundDuration":1417323,"Delta":210430437},{"NoteNumber":70,"Velocity":29,"Duration":1417322,"SoundDuration":1417322,"Delta":211847760},{"NoteNumber":61,"Velocity":26,"Duration":1417322,"SoundDuration":1417322,"Delta":211847760},{"NoteNumber":66,"Velocity":26,"Duration":1417322,"SoundDuration":1417322,"Delta":211847760},{"NoteNumber":63,"Velocity":26,"Duration":1417322,"SoundDuration":1417322,"Delta":211847760},{"NoteNumber":44,"Velocity":34,"Duration":3123520,"SoundDuration":3123520,"Delta":213265083},{"NoteNumber":60,"Velocity":35,"Duration":1066500,"SoundDuration":1066500,"Delta":213756886},{"NoteNumber":70,"Velocity":35,"Duration":472441,"SoundDuration":472441,"Delta":213756886},{"NoteNumber":66,"Velocity":35,"Duration":1066500,"SoundDuration":1066500,"Delta":213756886},{"NoteNumber":51,"Velocity":31,"Duration":830279,"SoundDuration":830279,"Delta":213993107},{"NoteNumber":72,"Velocity":37,"Duration":594059,"SoundDuration":594059,"Delta":214229327},{"NoteNumber":72,"Velocity":29,"Duration":1565216,"SoundDuration":1565216,"Delta":214823387},{"NoteNumber":77,"Velocity":29,"Duration":1565216,"SoundDuration":1565216,"Delta":214823387},{"NoteNumber":68,"Velocity":24,"Duration":1565216,"SoundDuration":1565216,"Delta":214823387},{"NoteNumber":80,"Velocity":25,"Duration":1565216,"SoundDuration":1565216,"Delta":214823387},{"NoteNumber":60,"Velocity":21,"Duration":1636363,"SoundDuration":1636363,"Delta":216388604},{"NoteNumber":68,"Velocity":25,"Duration":1636363,"SoundDuration":1636363,"Delta":216388604},{"NoteNumber":66,"Velocity":25,"Duration":1636363,"SoundDuration":1636363,"Delta":216388604},{"NoteNumber":56,"Velocity":25,"Duration":1636363,"SoundDuration":1636363,"Delta":216388604},{"NoteNumber":37,"Velocity":31,"Duration":1406920,"SoundDuration":1406920,"Delta":218024967},{"NoteNumber":44,"Velocity":27,"Duration":236220,"SoundDuration":236220,"Delta":218316229},{"NoteNumber":49,"Velocity":26,"Duration":227281,"SoundDuration":227281,"Delta":218552450},{"NoteNumber":53,"Velocity":26,"Duration":222230,"SoundDuration":222230,"Delta":218779731},{"NoteNumber":56,"Velocity":25,"Duration":217398,"SoundDuration":217398,"Delta":219001962},{"NoteNumber":61,"Velocity":25,"Duration":212526,"SoundDuration":212526,"Delta":219219361},{"NoteNumber":41,"Velocity":31,"Duration":1250089,"SoundDuration":1250089,"Delta":219431887},{"NoteNumber":48,"Velocity":28,"Duration":212773,"SoundDuration":212773,"Delta":219660895},{"NoteNumber":53,"Velocity":27,"Duration":208339,"SoundDuration":208339,"Delta":219873668},{"NoteNumber":56,"Velocity":26,"Duration":204088,"SoundDuration":204088,"Delta":220082008},{"NoteNumber":60,"Velocity":26,"Duration":200005,"SoundDuration":200005,"Delta":220286096},{"NoteNumber":65,"Velocity":26,"Duration":195874,"SoundDuration":195874,"Delta":220486102},{"NoteNumber":37,"Velocity":31,"Duration":1229069,"SoundDuration":1229069,"Delta":220681977},{"NoteNumber":44,"Velocity":28,"Duration":206188,"SoundDuration":206188,"Delta":220907541},{"NoteNumber":49,"Velocity":28,"Duration":203392,"SoundDuration":203392,"Delta":221113729},{"NoteNumber":53,"Velocity":27,"Duration":200671,"SoundDuration":200671,"Delta":221317121},{"NoteNumber":56,"Velocity":28,"Duration":198021,"SoundDuration":198021,"Delta":221517792},{"NoteNumber":61,"Velocity":26,"Duration":195232,"SoundDuration":195232,"Delta":221715814},{"NoteNumber":41,"Velocity":31,"Duration":1275416,"SoundDuration":1275416,"Delta":221911047},{"NoteNumber":48,"Velocity":28,"Duration":207378,"SoundDuration":207378,"Delta":222138319},{"NoteNumber":53,"Velocity":28,"Duration":203625,"SoundDuration":203625,"Delta":222345698},{"NoteNumber":56,"Velocity":27,"Duration":200005,"SoundDuration":200005,"Delta":222549323},{"NoteNumber":60,"Velocity":27,"Duration":200912,"SoundDuration":200912,"Delta":222749329},{"NoteNumber":65,"Velocity":27,"Duration":236220,"SoundDuration":236220,"Delta":222950242},{"NoteNumber":68,"Velocity":30,"Duration":1335690,"SoundDuration":1335690,"Delta":223186463},{"NoteNumber":71,"Velocity":33,"Duration":1335690,"SoundDuration":1335690,"Delta":223186463},{"NoteNumber":44,"Velocity":31,"Duration":2731039,"SoundDuration":2731039,"Delta":223186463},{"NoteNumber":52,"Velocity":28,"Duration":206427,"SoundDuration":206427,"Delta":223410343},{"NoteNumber":56,"Velocity":28,"Duration":209797,"SoundDuration":209797,"Delta":223616771},{"NoteNumber":59,"Velocity":27,"Duration":213276,"SoundDuration":213276,"Delta":223826568},{"NoteNumber":64,"Velocity":27,"Duration":234375,"SoundDuration":234375,"Delta":224039844},{"NoteNumber":66,"Velocity":27,"Duration":247933,"SoundDuration":247933,"Delta":224274219},{"NoteNumber":73,"Velocity":29,"Duration":1395349,"SoundDuration":1395349,"Delta":224522153},{"NoteNumber":64,"Velocity":27,"Duration":1395349,"SoundDuration":1395349,"Delta":224522153},{"NoteNumber":68,"Velocity":27,"Duration":1395349,"SoundDuration":1395349,"Delta":224522153},{"NoteNumber":49,"Velocity":31,"Duration":1350946,"SoundDuration":1350946,"Delta":225917502},{"NoteNumber":56,"Velocity":30,"Duration":230489,"SoundDuration":230489,"Delta":226176123},{"NoteNumber":61,"Velocity":26,"Duration":224454,"SoundDuration":224454,"Delta":226406612},{"NoteNumber":65,"Velocity":26,"Duration":218192,"SoundDuration":218192,"Delta":226631067},{"NoteNumber":68,"Velocity":25,"Duration":212277,"SoundDuration":212277,"Delta":226849259},{"NoteNumber":73,"Velocity":25,"Duration":206912,"SoundDuration":206912,"Delta":227061536},{"NoteNumber":53,"Velocity":31,"Duration":1250089,"SoundDuration":1250089,"Delta":227268449},{"NoteNumber":60,"Velocity":28,"Duration":212773,"SoundDuration":212773,"Delta":227497457},{"NoteNumber":65,"Velocity":27,"Duration":208339,"SoundDuration":208339,"Delta":227710230},{"NoteNumber":68,"Velocity":26,"Duration":204088,"SoundDuration":204088,"Delta":227918570},{"NoteNumber":72,"Velocity":26,"Duration":200005,"SoundDuration":200005,"Delta":228122658},{"NoteNumber":77,"Velocity":26,"Duration":195874,"SoundDuration":195874,"Delta":228322664},{"NoteNumber":49,"Velocity":31,"Duration":1229069,"SoundDuration":1229069,"Delta":228518538},{"NoteNumber":56,"Velocity":28,"Duration":206188,"SoundDuration":206188,"Delta":228744102},{"NoteNumber":61,"Velocity":28,"Duration":203392,"SoundDuration":203392,"Delta":228950290},{"NoteNumber":65,"Velocity":27,"Duration":200671,"SoundDuration":200671,"Delta":229153683},{"NoteNumber":68,"Velocity":28,"Duration":198021,"SoundDuration":198021,"Delta":229354354},{"NoteNumber":73,"Velocity":26,"Duration":195232,"SoundDuration":195232,"Delta":229552376},{"NoteNumber":53,"Velocity":31,"Duration":1275416,"SoundDuration":1275416,"Delta":229747608},{"NoteNumber":60,"Velocity":28,"Duration":207378,"SoundDuration":207378,"Delta":229974881},{"NoteNumber":65,"Velocity":28,"Duration":203625,"SoundDuration":203625,"Delta":230182260},{"NoteNumber":68,"Velocity":27,"Duration":200005,"SoundDuration":200005,"Delta":230385885},{"NoteNumber":72,"Velocity":27,"Duration":200912,"SoundDuration":200912,"Delta":230585891},{"NoteNumber":77,"Velocity":27,"Duration":236220,"SoundDuration":236220,"Delta":230786804},{"NoteNumber":83,"Velocity":33,"Duration":1335690,"SoundDuration":1335690,"Delta":231023024},{"NoteNumber":80,"Velocity":30,"Duration":2731039,"SoundDuration":2731039,"Delta":231023024},{"NoteNumber":56,"Velocity":31,"Duration":2731039,"SoundDuration":2731039,"Delta":231023024},{"NoteNumber":59,"Velocity":25,"Duration":206427,"SoundDuration":206427,"Delta":231246905},{"NoteNumber":64,"Velocity":25,"Duration":209797,"SoundDuration":209797,"Delta":231453332},{"NoteNumber":68,"Velocity":24,"Duration":213276,"SoundDuration":213276,"Delta":231663129},{"NoteNumber":71,"Velocity":24,"Duration":234375,"SoundDuration":234375,"Delta":231876405},{"NoteNumber":76,"Velocity":22,"Duration":1643283,"SoundDuration":1643283,"Delta":232110780},{"NoteNumber":85,"Velocity":34,"Duration":1395349,"SoundDuration":1395349,"Delta":232358714},{"NoteNumber":83,"Velocity":33,"Duration":1335690,"SoundDuration":1335690,"Delta":233754064},{"NoteNumber":80,"Velocity":30,"Duration":4159611,"SoundDuration":4159611,"Delta":233754064},{"NoteNumber":56,"Velocity":31,"Duration":2731039,"SoundDuration":2731039,"Delta":233754064},{"NoteNumber":59,"Velocity":25,"Duration":206427,"SoundDuration":206427,"Delta":233977944},{"NoteNumber":64,"Velocity":25,"Duration":209797,"SoundDuration":209797,"Delta":234184372},{"NoteNumber":68,"Velocity":24,"Duration":213276,"SoundDuration":213276,"Delta":234394169},{"NoteNumber":71,"Velocity":24,"Duration":234375,"SoundDuration":234375,"Delta":234607445},{"NoteNumber":76,"Velocity":22,"Duration":1643283,"SoundDuration":1643283,"Delta":234841820},{"NoteNumber":85,"Velocity":34,"Duration":1395349,"SoundDuration":1395349,"Delta":235089754},{"NoteNumber":88,"Velocity":37,"Duration":1428571,"SoundDuration":1428571,"Delta":236485103},{"NoteNumber":44,"Velocity":30,"Duration":1428571,"SoundDuration":1428571,"Delta":236485103},{"NoteNumber":89,"Velocity":37,"Duration":5826451,"SoundDuration":5826451,"Delta":237913675},{"NoteNumber":92,"Velocity":40,"Duration":5826451,"SoundDuration":5826451,"Delta":237913675},{"NoteNumber":37,"Velocity":33,"Duration":3259586,"SoundDuration":3259586,"Delta":237913675},{"NoteNumber":44,"Velocity":26,"Duration":265486,"SoundDuration":265486,"Delta":238179162},{"NoteNumber":49,"Velocity":24,"Duration":265486,"SoundDuration":265486,"Delta":238444648},{"NoteNumber":53,"Velocity":22,"Duration":265486,"SoundDuration":265486,"Delta":238710135},{"NoteNumber":56,"Velocity":21,"Duration":265486,"SoundDuration":265486,"Delta":238975622},{"NoteNumber":61,"Velocity":20,"Duration":265486,"SoundDuration":265486,"Delta":239241109},{"NoteNumber":65,"Velocity":27,"Duration":555555,"SoundDuration":555555,"Delta":239506595},{"NoteNumber":68,"Velocity":22,"Duration":555555,"SoundDuration":555555,"Delta":240062151},{"NoteNumber":73,"Velocity":22,"Duration":555555,"SoundDuration":555555,"Delta":240617706},{"NoteNumber":77,"Velocity":27,"Duration":561670,"SoundDuration":561670,"Delta":241173262},{"NoteNumber":80,"Velocity":22,"Duration":580235,"SoundDuration":580235,"Delta":241734932},{"NoteNumber":85,"Velocity":22,"Duration":491837,"SoundDuration":491837,"Delta":242315168},{"NoteNumber":61,"Velocity":20,"Duration":4569484,"SoundDuration":4569484,"Delta":242807005},{"NoteNumber":68,"Velocity":22,"Duration":4484893,"SoundDuration":4484893,"Delta":242891596},{"NoteNumber":73,"Velocity":22,"Duration":4389080,"SoundDuration":4389080,"Delta":242987409},{"NoteNumber":77,"Velocity":25,"Duration":4261362,"SoundDuration":4261362,"Delta":243115126},{"NoteNumber":80,"Velocity":24,"Duration":4105112,"SoundDuration":4105112,"Delta":243271376},{"NoteNumber":85,"Velocity":26,"Duration":3948863,"SoundDuration":3948863,"Delta":243427626},{"NoteNumber":89,"Velocity":28,"Duration":3792612,"SoundDuration":3792612,"Delta":243583876},{"NoteNumber":92,"Velocity":34,"Duration":3636362,"SoundDuration":3636362,"Delta":243740126}],"license":{"name":"Creative Commons Attribution-ShareAlike 3.0 Germany","url":"http://creativecommons.org/licenses/by-sa/3.0/de/deed.en","text":"The MIDI, audio (MP3, OGG) and video files of Bernd Krueger are licensed under the cc-by-sa Germany License. This means that you can use and adapt the files, as long as you attribute the copyright holder.\n\nName: Bernd Krueger\nSource: http://www.piano-midi.de\n\nThe distribution or public playback of the files is only allowed under identical license conditions.\n\nThe scores are open source.","attribution":"MIDI files by Bernd Krueger (piano-midi.de)"}}