{"title":"Doctor Gradus ad Parnassum","artist":"Debussy","durationMs":143430,"midiSha256":"bb5c78ecbba0bb00f7b8256efe446945635b0bad6115b7da1a2e48eede4b182e","midiObject":[{"NoteNumber":36,"Velocity":28,"Duration":61055,"SoundDuration":61055,"Delta":0},{"NoteNumber":48,"Velocity":28,"Duration":4359076,"SoundDuration":4359076,"Delta":61055},{"NoteNumber":55,"Velocity":25,"Duration":130949,"SoundDuration":130949,"Delta":122110},{"NoteNumber":60,"Velocity":26,"Duration":130423,"SoundDuration":130423,"Delta":253059},{"NoteNumber":62,"Velocity":24,"Duration":130423,"SoundDuration":130423,"Delta":383483},{"NoteNumber":64,"Velocity":29,"Duration":130330,"SoundDuration":130330,"Delta":513906},{"NoteNumber":55,"Velocity":27,"Duration":127457,"SoundDuration":127457,"Delta":644237},{"NoteNumber":60,"Velocity":27,"Duration":125392,"SoundDuration":125392,"Delta":771694},{"NoteNumber":64,"Velocity":26,"Duration":123331,"SoundDuration":123331,"Delta":897087},{"NoteNumber":62,"Velocity":31,"Duration":121941,"SoundDuration":121941,"Delta":1020418},{"NoteNumber":53,"Velocity":29,"Duration":121941,"SoundDuration":121941,"Delta":1142359},{"NoteNumber":60,"Velocity":30,"Duration":121941,"SoundDuration":121941,"Delta":1264300},{"NoteNumber":62,"Velocity":27,"Duration":121941,"SoundDuration":121941,"Delta":1386242},{"NoteNumber":65,"Velocity":34,"Duration":120472,"SoundDuration":120472,"Delta":1508183},{"NoteNumber":57,"Velocity":31,"Duration":120472,"SoundDuration":120472,"Delta":1628655},{"NoteNumber":59,"Velocity":32,"Duration":120472,"SoundDuration":120472,"Delta":1749127},{"NoteNumber":65,"Velocity":30,"Duration":120472,"SoundDuration":120472,"Delta":1869600},{"NoteNumber":64,"Velocity":37,"Duration":118101,"SoundDuration":118101,"Delta":1990072},{"NoteNumber":55,"Velocity":34,"Duration":118100,"SoundDuration":118100,"Delta":2108173},{"NoteNumber":60,"Velocity":34,"Duration":118100,"SoundDuration":118100,"Delta":2226274},{"NoteNumber":64,"Velocity":32,"Duration":118101,"SoundDuration":118101,"Delta":2344375},{"NoteNumber":67,"Velocity":37,"Duration":117178,"SoundDuration":117178,"Delta":2462476},{"NoteNumber":59,"Velocity":34,"Duration":117178,"SoundDuration":117178,"Delta":2579654},{"NoteNumber":60,"Velocity":34,"Duration":117178,"SoundDuration":117178,"Delta":2696832},{"NoteNumber":67,"Velocity":32,"Duration":117178,"SoundDuration":117178,"Delta":2814011},{"NoteNumber":65,"Velocity":38,"Duration":117178,"SoundDuration":117178,"Delta":2931189},{"NoteNumber":57,"Velocity":35,"Duration":117178,"SoundDuration":117178,"Delta":3048367},{"NoteNumber":60,"Velocity":35,"Duration":117178,"SoundDuration":117178,"Delta":3165545},{"NoteNumber":65,"Velocity":32,"Duration":125512,"SoundDuration":125512,"Delta":3282724},{"NoteNumber":69,"Velocity":38,"Duration":127713,"SoundDuration":127713,"Delta":3408236},{"NoteNumber":59,"Velocity":35,"Duration":130105,"SoundDuration":130105,"Delta":3535950},{"NoteNumber":65,"Velocity":35,"Duration":132685,"SoundDuration":132685,"Delta":3666055},{"NoteNumber":69,"Velocity":32,"Duration":135365,"SoundDuration":135365,"Delta":3798741},{"NoteNumber":67,"Velocity":42,"Duration":117032,"SoundDuration":117032,"Delta":3934106},{"NoteNumber":60,"Velocity":36,"Duration":117032,"SoundDuration":117032,"Delta":4051138},{"NoteNumber":64,"Velocity":36,"Duration":117032,"SoundDuration":117032,"Delta":4168170},{"NoteNumber":67,"Velocity":30,"Duration":134928,"SoundDuration":134928,"Delta":4285202},{"NoteNumber":72,"Velocity":50,"Duration":179899,"SoundDuration":179899,"Delta":4420131},{"NoteNumber":60,"Velocity":35,"Duration":1899961,"SoundDuration":1899961,"Delta":4420131},{"NoteNumber":64,"Velocity":38,"Duration":119932,"SoundDuration":119932,"Delta":4540064},{"NoteNumber":67,"Velocity":38,"Duration":119932,"SoundDuration":119932,"Delta":4659996},{"NoteNumber":72,"Velocity":32,"Duration":119932,"SoundDuration":119932,"Delta":4779929},{"NoteNumber":74,"Velocity":53,"Duration":177528,"SoundDuration":177528,"Delta":4899862},{"NoteNumber":59,"Velocity":29,"Duration":473410,"SoundDuration":473410,"Delta":4899862},{"NoteNumber":64,"Velocity":42,"Duration":118352,"SoundDuration":118352,"Delta":5018214},{"NoteNumber":67,"Velocity":42,"Duration":118352,"SoundDuration":118352,"Delta":5136567},{"NoteNumber":74,"Velocity":35,"Duration":118352,"SoundDuration":118352,"Delta":5254919},{"NoteNumber":72,"Velocity":52,"Duration":177528,"SoundDuration":177528,"Delta":5373272},{"NoteNumber":57,"Velocity":29,"Duration":473409,"SoundDuration":473409,"Delta":5373272},{"NoteNumber":64,"Velocity":41,"Duration":118352,"SoundDuration":118352,"Delta":5491624},{"NoteNumber":67,"Velocity":41,"Duration":118352,"SoundDuration":118352,"Delta":5609977},{"NoteNumber":72,"Velocity":38,"Duration":118352,"SoundDuration":118352,"Delta":5728329},{"NoteNumber":71,"Velocity":47,"Duration":177528,"SoundDuration":177528,"Delta":5846682},{"NoteNumber":59,"Velocity":29,"Duration":473410,"SoundDuration":473410,"Delta":5846682},{"NoteNumber":64,"Velocity":38,"Duration":118352,"SoundDuration":118352,"Delta":5965034},{"NoteNumber":67,"Velocity":38,"Duration":118352,"SoundDuration":118352,"Delta":6083387},{"NoteNumber":71,"Velocity":27,"Duration":118352,"SoundDuration":118352,"Delta":6201739},{"NoteNumber":69,"Velocity":47,"Duration":177528,"SoundDuration":177528,"Delta":6320092},{"NoteNumber":60,"Velocity":28,"Duration":477837,"SoundDuration":477837,"Delta":6320092},{"NoteNumber":64,"Velocity":35,"Duration":118352,"SoundDuration":118352,"Delta":6438444},{"NoteNumber":67,"Velocity":35,"Duration":118352,"SoundDuration":118352,"Delta":6556797},{"NoteNumber":69,"Velocity":27,"Duration":122779,"SoundDuration":122779,"Delta":6675149},{"NoteNumber":67,"Velocity":45,"Duration":177627,"SoundDuration":177627,"Delta":6797929},{"NoteNumber":59,"Velocity":28,"Duration":473671,"SoundDuration":473671,"Delta":6797929},{"NoteNumber":60,"Velocity":35,"Duration":118418,"SoundDuration":118418,"Delta":6916347},{"NoteNumber":64,"Velocity":35,"Duration":118417,"SoundDuration":118417,"Delta":7034765},{"NoteNumber":67,"Velocity":27,"Duration":118418,"SoundDuration":118418,"Delta":7153183},{"NoteNumber":65,"Velocity":46,"Duration":177627,"SoundDuration":177627,"Delta":7271601},{"NoteNumber":57,"Velocity":28,"Duration":473672,"SoundDuration":473672,"Delta":7271601},{"NoteNumber":60,"Velocity":35,"Duration":118418,"SoundDuration":118418,"Delta":7390019},{"NoteNumber":64,"Velocity":35,"Duration":118418,"SoundDuration":118418,"Delta":7508437},{"NoteNumber":65,"Velocity":27,"Duration":118418,"SoundDuration":118418,"Delta":7626855},{"NoteNumber":64,"Velocity":41,"Duration":342680,"SoundDuration":342680,"Delta":7745273},{"NoteNumber":55,"Velocity":29,"Duration":469962,"SoundDuration":469962,"Delta":7745273},{"NoteNumber":59,"Velocity":32,"Duration":117490,"SoundDuration":117490,"Delta":7862764},{"NoteNumber":60,"Velocity":32,"Duration":117490,"SoundDuration":117490,"Delta":7980254},{"NoteNumber":64,"Velocity":27,"Duration":117490,"SoundDuration":117490,"Delta":8097745},{"NoteNumber":62,"Velocity":35,"Duration":342680,"SoundDuration":342680,"Delta":8215235},{"NoteNumber":53,"Velocity":27,"Duration":481592,"SoundDuration":481592,"Delta":8215235},{"NoteNumber":57,"Velocity":32,"Duration":117490,"SoundDuration":117490,"Delta":8332726},{"NoteNumber":60,"Velocity":32,"Duration":117490,"SoundDuration":117490,"Delta":8450216},{"NoteNumber":62,"Velocity":27,"Duration":129120,"SoundDuration":129120,"Delta":8567707},{"NoteNumber":67,"Velocity":41,"Duration":345194,"SoundDuration":345194,"Delta":8696828},{"NoteNumber":52,"Velocity":27,"Duration":492670,"SoundDuration":492670,"Delta":8696828},{"NoteNumber":59,"Velocity":32,"Duration":118352,"SoundDuration":118352,"Delta":8815180},{"NoteNumber":64,"Velocity":32,"Duration":118352,"SoundDuration":118352,"Delta":8933533},{"NoteNumber":67,"Velocity":33,"Duration":137612,"SoundDuration":137612,"Delta":9051885},{"NoteNumber":69,"Velocity":47,"Duration":388198,"SoundDuration":388198,"Delta":9189498},{"NoteNumber":57,"Velocity":27,"Duration":558041,"SoundDuration":558041,"Delta":9189498},{"NoteNumber":60,"Velocity":37,"Duration":133226,"SoundDuration":133226,"Delta":9319541},{"NoteNumber":64,"Velocity":32,"Duration":136326,"SoundDuration":136326,"Delta":9452768},{"NoteNumber":69,"Velocity":27,"Duration":158445,"SoundDuration":158445,"Delta":9589094},{"NoteNumber":64,"Velocity":40,"Duration":364297,"SoundDuration":364297,"Delta":9747540},{"NoteNumber":55,"Velocity":29,"Duration":491181,"SoundDuration":491181,"Delta":9747540},{"NoteNumber":57,"Velocity":32,"Duration":117490,"SoundDuration":117490,"Delta":9886984},{"NoteNumber":60,"Velocity":32,"Duration":117123,"SoundDuration":117123,"Delta":10004474},{"NoteNumber":64,"Velocity":27,"Duration":117123,"SoundDuration":117123,"Delta":10121598},{"NoteNumber":62,"Velocity":39,"Duration":341610,"SoundDuration":341610,"Delta":10238721},{"NoteNumber":53,"Velocity":27,"Duration":468493,"SoundDuration":468493,"Delta":10238721},{"NoteNumber":57,"Velocity":32,"Duration":117123,"SoundDuration":117123,"Delta":10355845},{"NoteNumber":60,"Velocity":32,"Duration":117123,"SoundDuration":117123,"Delta":10472968},{"NoteNumber":62,"Velocity":27,"Duration":117123,"SoundDuration":117123,"Delta":10590092},{"NoteNumber":60,"Velocity":35,"Duration":348272,"SoundDuration":348272,"Delta":10707215},{"NoteNumber":52,"Velocity":27,"Duration":477631,"SoundDuration":477631,"Delta":10707215},{"NoteNumber":55,"Velocity":32,"Duration":119407,"SoundDuration":119407,"Delta":10826623},{"NoteNumber":57,"Velocity":32,"Duration":119407,"SoundDuration":119407,"Delta":10946031},{"NoteNumber":60,"Velocity":27,"Duration":119407,"SoundDuration":119407,"Delta":11065438},{"NoteNumber":59,"Velocity":35,"Duration":354538,"SoundDuration":354538,"Delta":11184846},{"NoteNumber":50,"Velocity":27,"Duration":486224,"SoundDuration":486224,"Delta":11184846},{"NoteNumber":53,"Velocity":32,"Duration":121556,"SoundDuration":121556,"Delta":11306402},{"NoteNumber":55,"Velocity":32,"Duration":121556,"SoundDuration":121556,"Delta":11427958},{"NoteNumber":59,"Velocity":27,"Duration":121556,"SoundDuration":121556,"Delta":11549514},{"NoteNumber":41,"Velocity":21,"Duration":1946179,"SoundDuration":1946179,"Delta":11671070},{"NoteNumber":48,"Velocity":20,"Duration":121006,"SoundDuration":121006,"Delta":11805999},{"NoteNumber":50,"Velocity":21,"Duration":121006,"SoundDuration":121006,"Delta":11927005},{"NoteNumber":52,"Velocity":23,"Duration":121006,"SoundDuration":121006,"Delta":12048012},{"NoteNumber":53,"Velocity":28,"Duration":119701,"SoundDuration":119701,"Delta":12169019},{"NoteNumber":57,"Velocity":31,"Duration":120811,"SoundDuration":120811,"Delta":12288720},{"NoteNumber":60,"Velocity":34,"Duration":121952,"SoundDuration":121952,"Delta":12409532},{"NoteNumber":62,"Velocity":36,"Duration":122326,"SoundDuration":122326,"Delta":12531485},{"NoteNumber":64,"Velocity":41,"Duration":121556,"SoundDuration":121556,"Delta":12653811},{"NoteNumber":62,"Velocity":41,"Duration":121015,"SoundDuration":121015,"Delta":12775367},{"NoteNumber":60,"Velocity":38,"Duration":120717,"SoundDuration":120717,"Delta":12896383},{"NoteNumber":57,"Velocity":35,"Duration":120418,"SoundDuration":120418,"Delta":13017100},{"NoteNumber":53,"Velocity":32,"Duration":119932,"SoundDuration":119932,"Delta":13137519},{"NoteNumber":52,"Velocity":30,"Duration":119932,"SoundDuration":119932,"Delta":13257451},{"NoteNumber":50,"Velocity":26,"Duration":119932,"SoundDuration":119932,"Delta":13377384},{"NoteNumber":48,"Velocity":24,"Duration":119932,"SoundDuration":119932,"Delta":13497317},{"NoteNumber":41,"Velocity":21,"Duration":1941906,"SoundDuration":1941906,"Delta":13617250},{"NoteNumber":48,"Velocity":21,"Duration":119932,"SoundDuration":119932,"Delta":13756345},{"NoteNumber":50,"Velocity":22,"Duration":119932,"SoundDuration":119932,"Delta":13876277},{"NoteNumber":52,"Velocity":25,"Duration":119519,"SoundDuration":119519,"Delta":13996210},{"NoteNumber":53,"Velocity":30,"Duration":117878,"SoundDuration":117878,"Delta":14115730},{"NoteNumber":57,"Velocity":34,"Duration":119508,"SoundDuration":119508,"Delta":14233609},{"NoteNumber":60,"Velocity":38,"Duration":121184,"SoundDuration":121184,"Delta":14353117},{"NoteNumber":62,"Velocity":42,"Duration":122905,"SoundDuration":122905,"Delta":14474301},{"NoteNumber":64,"Velocity":48,"Duration":122129,"SoundDuration":122129,"Delta":14597207},{"NoteNumber":62,"Velocity":41,"Duration":121368,"SoundDuration":121368,"Delta":14719336},{"NoteNumber":60,"Velocity":38,"Duration":120717,"SoundDuration":120717,"Delta":14840705},{"NoteNumber":59,"Velocity":35,"Duration":120072,"SoundDuration":120072,"Delta":14961422},{"NoteNumber":57,"Velocity":32,"Duration":119438,"SoundDuration":119438,"Delta":15081494},{"NoteNumber":52,"Velocity":30,"Duration":119407,"SoundDuration":119407,"Delta":15200932},{"NoteNumber":50,"Velocity":26,"Duration":119407,"SoundDuration":119407,"Delta":15320340},{"NoteNumber":48,"Velocity":24,"Duration":119407,"SoundDuration":119407,"Delta":15439748},{"NoteNumber":41,"Velocity":21,"Duration":1934792,"SoundDuration":1934792,"Delta":15559156},{"NoteNumber":48,"Velocity":21,"Duration":119932,"SoundDuration":119932,"Delta":15695445},{"NoteNumber":50,"Velocity":22,"Duration":119932,"SoundDuration":119932,"Delta":15815378},{"NoteNumber":52,"Velocity":25,"Duration":119932,"SoundDuration":119932,"Delta":15935310},{"NoteNumber":53,"Velocity":30,"Duration":119242,"SoundDuration":119242,"Delta":16055243},{"NoteNumber":56,"Velocity":34,"Duration":119617,"SoundDuration":119617,"Delta":16174486},{"NoteNumber":60,"Velocity":39,"Duration":120404,"SoundDuration":120404,"Delta":16294104},{"NoteNumber":62,"Velocity":42,"Duration":121267,"SoundDuration":121267,"Delta":16414508},{"NoteNumber":64,"Velocity":48,"Duration":121343,"SoundDuration":121343,"Delta":16535776},{"NoteNumber":62,"Velocity":42,"Duration":120256,"SoundDuration":120256,"Delta":16657119},{"NoteNumber":60,"Velocity":40,"Duration":119534,"SoundDuration":119534,"Delta":16777375},{"NoteNumber":56,"Velocity":36,"Duration":119407,"SoundDuration":119407,"Delta":16896910},{"NoteNumber":53,"Velocity":33,"Duration":119407,"SoundDuration":119407,"Delta":17016317},{"NoteNumber":52,"Velocity":30,"Duration":119407,"SoundDuration":119407,"Delta":17135725},{"NoteNumber":50,"Velocity":26,"Duration":119407,"SoundDuration":119407,"Delta":17255133},{"NoteNumber":48,"Velocity":24,"Duration":119407,"SoundDuration":119407,"Delta":17374541},{"NoteNumber":41,"Velocity":21,"Duration":1931111,"SoundDuration":1931111,"Delta":17493948},{"NoteNumber":48,"Velocity":21,"Duration":119932,"SoundDuration":119932,"Delta":17631626},{"NoteNumber":50,"Velocity":22,"Duration":119932,"SoundDuration":119932,"Delta":17751559},{"NoteNumber":52,"Velocity":25,"Duration":119259,"SoundDuration":119259,"Delta":17871492},{"NoteNumber":53,"Velocity":31,"Duration":117882,"SoundDuration":117882,"Delta":17990751},{"NoteNumber":56,"Velocity":35,"Duration":119055,"SoundDuration":119055,"Delta":18108634},{"NoteNumber":60,"Velocity":39,"Duration":120340,"SoundDuration":120340,"Delta":18227689},{"NoteNumber":62,"Velocity":42,"Duration":121557,"SoundDuration":121557,"Delta":18348030},{"NoteNumber":64,"Velocity":48,"Duration":121943,"SoundDuration":121943,"Delta":18469587},{"NoteNumber":62,"Velocity":41,"Duration":121009,"SoundDuration":121009,"Delta":18591531},{"NoteNumber":60,"Velocity":40,"Duration":120063,"SoundDuration":120063,"Delta":18712540},{"NoteNumber":58,"Velocity":35,"Duration":119046,"SoundDuration":119046,"Delta":18832604},{"NoteNumber":56,"Velocity":33,"Duration":118352,"SoundDuration":118352,"Delta":18951650},{"NoteNumber":52,"Velocity":30,"Duration":118352,"SoundDuration":118352,"Delta":19070003},{"NoteNumber":50,"Velocity":26,"Duration":118352,"SoundDuration":118352,"Delta":19188355},{"NoteNumber":48,"Velocity":24,"Duration":118352,"SoundDuration":118352,"Delta":19306708},{"NoteNumber":40,"Velocity":28,"Duration":118352,"SoundDuration":118352,"Delta":19425060},{"NoteNumber":47,"Velocity":23,"Duration":118352,"SoundDuration":118352,"Delta":19543413},{"NoteNumber":52,"Velocity":26,"Duration":118352,"SoundDuration":118352,"Delta":19661765},{"NoteNumber":56,"Velocity":26,"Duration":127291,"SoundDuration":127291,"Delta":19780118},{"NoteNumber":47,"Velocity":35,"Duration":119932,"SoundDuration":119932,"Delta":19907409},{"NoteNumber":52,"Velocity":30,"Duration":119932,"SoundDuration":119932,"Delta":20027342},{"NoteNumber":56,"Velocity":31,"Duration":119932,"SoundDuration":119932,"Delta":20147274},{"NoteNumber":59,"Velocity":32,"Duration":127888,"SoundDuration":127888,"Delta":20267207},{"NoteNumber":52,"Velocity":42,"Duration":119932,"SoundDuration":119932,"Delta":20395095},{"NoteNumber":56,"Velocity":39,"Duration":119932,"SoundDuration":119932,"Delta":20515028},{"NoteNumber":59,"Velocity":43,"Duration":119932,"SoundDuration":119932,"Delta":20634961},{"NoteNumber":64,"Velocity":43,"Duration":128501,"SoundDuration":128501,"Delta":20754894},{"NoteNumber":56,"Velocity":49,"Duration":120493,"SoundDuration":120493,"Delta":20883395},{"NoteNumber":59,"Velocity":40,"Duration":121983,"SoundDuration":121983,"Delta":21003889},{"NoteNumber":64,"Velocity":47,"Duration":123626,"SoundDuration":123626,"Delta":21125873},{"NoteNumber":68,"Velocity":47,"Duration":161568,"SoundDuration":161568,"Delta":21249499},{"NoteNumber":64,"Velocity":61,"Duration":1918924,"SoundDuration":1918924,"Delta":21411067},{"NoteNumber":64,"Velocity":32,"Duration":89949,"SoundDuration":89949,"Delta":23329991},{"NoteNumber":69,"Velocity":32,"Duration":115821,"SoundDuration":115821,"Delta":23449924},{"NoteNumber":65,"Velocity":32,"Duration":115821,"SoundDuration":115821,"Delta":23565745},{"NoteNumber":62,"Velocity":27,"Duration":115821,"SoundDuration":115821,"Delta":23681567},{"NoteNumber":64,"Velocity":34,"Duration":86865,"SoundDuration":86865,"Delta":23797388},{"NoteNumber":65,"Velocity":32,"Duration":115821,"SoundDuration":115821,"Delta":23913209},{"NoteNumber":62,"Velocity":32,"Duration":115821,"SoundDuration":115821,"Delta":24029030},{"NoteNumber":59,"Velocity":27,"Duration":119407,"SoundDuration":119407,"Delta":24144852},{"NoteNumber":64,"Velocity":34,"Duration":89555,"SoundDuration":89555,"Delta":24264259},{"NoteNumber":69,"Velocity":32,"Duration":115821,"SoundDuration":115821,"Delta":24383667},{"NoteNumber":65,"Velocity":32,"Duration":115821,"SoundDuration":115821,"Delta":24499488},{"NoteNumber":62,"Velocity":27,"Duration":115821,"SoundDuration":115821,"Delta":24615310},{"NoteNumber":64,"Velocity":31,"Duration":86865,"SoundDuration":86865,"Delta":24731131},{"NoteNumber":65,"Velocity":34,"Duration":115821,"SoundDuration":115821,"Delta":24846952},{"NoteNumber":62,"Velocity":38,"Duration":115821,"SoundDuration":115821,"Delta":24962773},{"NoteNumber":59,"Velocity":38,"Duration":119932,"SoundDuration":119932,"Delta":25078595},{"NoteNumber":67,"Velocity":53,"Duration":97775,"SoundDuration":97775,"Delta":25198527},{"NoteNumber":72,"Velocity":44,"Duration":118352,"SoundDuration":118352,"Delta":25328894},{"NoteNumber":69,"Velocity":35,"Duration":114346,"SoundDuration":114346,"Delta":25447247},{"NoteNumber":65,"Velocity":30,"Duration":114346,"SoundDuration":114346,"Delta":25561593},{"NoteNumber":64,"Velocity":37,"Duration":85760,"SoundDuration":85760,"Delta":25675940},{"NoteNumber":69,"Velocity":38,"Duration":114346,"SoundDuration":114346,"Delta":25790287},{"NoteNumber":65,"Velocity":32,"Duration":114346,"SoundDuration":114346,"Delta":25904634},{"NoteNumber":62,"Velocity":27,"Duration":116822,"SoundDuration":116822,"Delta":26018980},{"NoteNumber":60,"Velocity":33,"Duration":89555,"SoundDuration":89555,"Delta":26135803},{"NoteNumber":65,"Velocity":31,"Duration":114346,"SoundDuration":114346,"Delta":26255211},{"NoteNumber":62,"Velocity":32,"Duration":114346,"SoundDuration":114346,"Delta":26369557},{"NoteNumber":59,"Velocity":27,"Duration":114346,"SoundDuration":114346,"Delta":26483904},{"NoteNumber":57,"Velocity":30,"Duration":85760,"SoundDuration":85760,"Delta":26598251},{"NoteNumber":62,"Velocity":30,"Duration":114346,"SoundDuration":114346,"Delta":26712598},{"NoteNumber":59,"Velocity":32,"Duration":114346,"SoundDuration":114346,"Delta":26826944},{"NoteNumber":55,"Velocity":25,"Duration":127888,"SoundDuration":127888,"Delta":26941291},{"NoteNumber":64,"Velocity":32,"Duration":89949,"SoundDuration":89949,"Delta":27069179},{"NoteNumber":69,"Velocity":32,"Duration":115821,"SoundDuration":115821,"Delta":27189112},{"NoteNumber":65,"Velocity":32,"Duration":115821,"SoundDuration":115821,"Delta":27304933},{"NoteNumber":62,"Velocity":27,"Duration":115821,"SoundDuration":115821,"Delta":27420755},{"NoteNumber":64,"Velocity":34,"Duration":86865,"SoundDuration":86865,"Delta":27536576},{"NoteNumber":65,"Velocity":32,"Duration":115821,"SoundDuration":115821,"Delta":27652397},{"NoteNumber":62,"Velocity":32,"Duration":115821,"SoundDuration":115821,"Delta":27768218},{"NoteNumber":59,"Velocity":27,"Duration":119407,"SoundDuration":119407,"Delta":27884040},{"NoteNumber":64,"Velocity":34,"Duration":89555,"SoundDuration":89555,"Delta":28003447},{"NoteNumber":69,"Velocity":32,"Duration":115821,"SoundDuration":115821,"Delta":28122855},{"NoteNumber":65,"Velocity":32,"Duration":115821,"SoundDuration":115821,"Delta":28238676},{"NoteNumber":62,"Velocity":27,"Duration":115821,"SoundDuration":115821,"Delta":28354498},{"NoteNumber":64,"Velocity":31,"Duration":86865,"SoundDuration":86865,"Delta":28470319},{"NoteNumber":65,"Velocity":33,"Duration":115821,"SoundDuration":115821,"Delta":28586140},{"NoteNumber":62,"Velocity":37,"Duration":115821,"SoundDuration":115821,"Delta":28701961},{"NoteNumber":59,"Velocity":38,"Duration":132543,"SoundDuration":132543,"Delta":28817783},{"NoteNumber":67,"Velocity":48,"Duration":97775,"SoundDuration":97775,"Delta":28950327},{"NoteNumber":72,"Velocity":43,"Duration":119407,"SoundDuration":119407,"Delta":29080693},{"NoteNumber":69,"Velocity":40,"Duration":116822,"SoundDuration":116822,"Delta":29200101},{"NoteNumber":65,"Velocity":30,"Duration":116822,"SoundDuration":116822,"Delta":29316924},{"NoteNumber":64,"Velocity":37,"Duration":87616,"SoundDuration":87616,"Delta":29433746},{"NoteNumber":69,"Velocity":40,"Duration":116822,"SoundDuration":116822,"Delta":29550569},{"NoteNumber":65,"Velocity":32,"Duration":116822,"SoundDuration":116822,"Delta":29667391},{"NoteNumber":62,"Velocity":27,"Duration":119407,"SoundDuration":119407,"Delta":29784214},{"NoteNumber":60,"Velocity":33,"Duration":87236,"SoundDuration":87236,"Delta":29903621},{"NoteNumber":65,"Velocity":31,"Duration":115821,"SoundDuration":115821,"Delta":30019937},{"NoteNumber":62,"Velocity":32,"Duration":115821,"SoundDuration":115821,"Delta":30135758},{"NoteNumber":59,"Velocity":27,"Duration":115821,"SoundDuration":115821,"Delta":30251579},{"NoteNumber":57,"Velocity":30,"Duration":86865,"SoundDuration":86865,"Delta":30367400},{"NoteNumber":62,"Velocity":30,"Duration":115821,"SoundDuration":115821,"Delta":30483222},{"NoteNumber":59,"Velocity":32,"Duration":115821,"SoundDuration":115821,"Delta":30599043},{"NoteNumber":55,"Velocity":25,"Duration":119932,"SoundDuration":119932,"Delta":30714864},{"NoteNumber":53,"Velocity":32,"Duration":89949,"SoundDuration":89949,"Delta":30834797},{"NoteNumber":59,"Velocity":32,"Duration":115821,"SoundDuration":115821,"Delta":30954730},{"NoteNumber":56,"Velocity":32,"Duration":115821,"SoundDuration":115821,"Delta":31070551},{"NoteNumber":52,"Velocity":27,"Duration":115821,"SoundDuration":115821,"Delta":31186372},{"NoteNumber":55,"Velocity":46,"Duration":86865,"SoundDuration":86865,"Delta":31302193},{"NoteNumber":61,"Velocity":38,"Duration":115821,"SoundDuration":115821,"Delta":31418015},{"NoteNumber":58,"Velocity":32,"Duration":115821,"SoundDuration":115821,"Delta":31533836},{"NoteNumber":54,"Velocity":27,"Duration":119407,"SoundDuration":119407,"Delta":31649657},{"NoteNumber":53,"Velocity":32,"Duration":89949,"SoundDuration":89949,"Delta":31769065},{"NoteNumber":59,"Velocity":32,"Duration":115821,"SoundDuration":115821,"Delta":31888998},{"NoteNumber":56,"Velocity":32,"Duration":115821,"SoundDuration":115821,"Delta":32004819},{"NoteNumber":52,"Velocity":27,"Duration":115821,"SoundDuration":115821,"Delta":32120640},{"NoteNumber":55,"Velocity":46,"Duration":86865,"SoundDuration":86865,"Delta":32236461},{"NoteNumber":61,"Velocity":39,"Duration":115821,"SoundDuration":115821,"Delta":32352283},{"NoteNumber":58,"Velocity":32,"Duration":115821,"SoundDuration":115821,"Delta":32468104},{"NoteNumber":54,"Velocity":27,"Duration":119407,"SoundDuration":119407,"Delta":32583925},{"NoteNumber":53,"Velocity":32,"Duration":89949,"SoundDuration":89949,"Delta":32703333},{"NoteNumber":59,"Velocity":32,"Duration":115821,"SoundDuration":115821,"Delta":32823266},{"NoteNumber":56,"Velocity":32,"Duration":115821,"SoundDuration":115821,"Delta":32939087},{"NoteNumber":52,"Velocity":27,"Duration":115821,"SoundDuration":115821,"Delta":33054908},{"NoteNumber":53,"Velocity":34,"Duration":86865,"SoundDuration":86865,"Delta":33170729},{"NoteNumber":59,"Velocity":32,"Duration":115821,"SoundDuration":115821,"Delta":33286551},{"NoteNumber":56,"Velocity":32,"Duration":115821,"SoundDuration":115821,"Delta":33402372},{"NoteNumber":52,"Velocity":27,"Duration":116822,"SoundDuration":116822,"Delta":33518193},{"NoteNumber":53,"Velocity":32,"Duration":87236,"SoundDuration":87236,"Delta":33635016},{"NoteNumber":59,"Velocity":32,"Duration":115821,"SoundDuration":115821,"Delta":33751331},{"NoteNumber":56,"Velocity":32,"Duration":115821,"SoundDuration":115821,"Delta":33867152},{"NoteNumber":52,"Velocity":27,"Duration":115821,"SoundDuration":115821,"Delta":33982973},{"NoteNumber":53,"Velocity":34,"Duration":86865,"SoundDuration":86865,"Delta":34098795},{"NoteNumber":59,"Velocity":30,"Duration":115821,"SoundDuration":115821,"Delta":34214616},{"NoteNumber":56,"Velocity":32,"Duration":115821,"SoundDuration":115821,"Delta":34330437},{"NoteNumber":52,"Velocity":27,"Duration":119407,"SoundDuration":119407,"Delta":34446258},{"NoteNumber":52,"Velocity":32,"Duration":89949,"SoundDuration":89949,"Delta":34565666},{"NoteNumber":57,"Velocity":32,"Duration":115821,"SoundDuration":115821,"Delta":34685599},{"NoteNumber":53,"Velocity":32,"Duration":115821,"SoundDuration":115821,"Delta":34801420},{"NoteNumber":50,"Velocity":27,"Duration":115821,"SoundDuration":115821,"Delta":34917241},{"NoteNumber":55,"Velocity":46,"Duration":86865,"SoundDuration":86865,"Delta":35033063},{"NoteNumber":60,"Velocity":39,"Duration":115821,"SoundDuration":115821,"Delta":35148884},{"NoteNumber":56,"Velocity":32,"Duration":115821,"SoundDuration":115821,"Delta":35264705},{"NoteNumber":53,"Velocity":27,"Duration":119407,"SoundDuration":119407,"Delta":35380526},{"NoteNumber":52,"Velocity":32,"Duration":89949,"SoundDuration":89949,"Delta":35499934},{"NoteNumber":57,"Velocity":32,"Duration":115821,"SoundDuration":115821,"Delta":35619867},{"NoteNumber":53,"Velocity":32,"Duration":115821,"SoundDuration":115821,"Delta":35735688},{"NoteNumber":50,"Velocity":27,"Duration":115821,"SoundDuration":115821,"Delta":35851509},{"NoteNumber":55,"Velocity":46,"Duration":86865,"SoundDuration":86865,"Delta":35967331},{"NoteNumber":60,"Velocity":38,"Duration":115821,"SoundDuration":115821,"Delta":36083152},{"NoteNumber":56,"Velocity":32,"Duration":115821,"SoundDuration":115821,"Delta":36198973},{"NoteNumber":53,"Velocity":27,"Duration":119407,"SoundDuration":119407,"Delta":36314794},{"NoteNumber":52,"Velocity":32,"Duration":89949,"SoundDuration":89949,"Delta":36434202},{"NoteNumber":57,"Velocity":32,"Duration":115821,"SoundDuration":115821,"Delta":36554135},{"NoteNumber":53,"Velocity":32,"Duration":115821,"SoundDuration":115821,"Delta":36669956},{"NoteNumber":50,"Velocity":27,"Duration":115821,"SoundDuration":115821,"Delta":36785777},{"NoteNumber":52,"Velocity":34,"Duration":86865,"SoundDuration":86865,"Delta":36901599},{"NoteNumber":57,"Velocity":32,"Duration":115821,"SoundDuration":115821,"Delta":37017420},{"NoteNumber":53,"Velocity":32,"Duration":115821,"SoundDuration":115821,"Delta":37133241},{"NoteNumber":50,"Velocity":27,"Duration":116822,"SoundDuration":116822,"Delta":37249062},{"NoteNumber":52,"Velocity":32,"Duration":87236,"SoundDuration":87236,"Delta":37365885},{"NoteNumber":57,"Velocity":32,"Duration":115821,"SoundDuration":115821,"Delta":37482200},{"NoteNumber":53,"Velocity":32,"Duration":115821,"SoundDuration":115821,"Delta":37598021},{"NoteNumber":50,"Velocity":27,"Duration":115821,"SoundDuration":115821,"Delta":37713843},{"NoteNumber":52,"Velocity":34,"Duration":86865,"SoundDuration":86865,"Delta":37829664},{"NoteNumber":57,"Velocity":30,"Duration":115821,"SoundDuration":115821,"Delta":37945485},{"NoteNumber":53,"Velocity":32,"Duration":115821,"SoundDuration":115821,"Delta":38061306},{"NoteNumber":50,"Velocity":27,"Duration":119407,"SoundDuration":119407,"Delta":38177128},{"NoteNumber":52,"Velocity":28,"Duration":89949,"SoundDuration":89949,"Delta":38296535},{"NoteNumber":59,"Velocity":28,"Duration":115821,"SoundDuration":115821,"Delta":38416468},{"NoteNumber":56,"Velocity":28,"Duration":115821,"SoundDuration":115821,"Delta":38532289},{"NoteNumber":50,"Velocity":23,"Duration":115821,"SoundDuration":115821,"Delta":38648111},{"NoteNumber":52,"Velocity":28,"Duration":88346,"SoundDuration":88346,"Delta":38763932},{"NoteNumber":59,"Velocity":26,"Duration":117795,"SoundDuration":117795,"Delta":38881727},{"NoteNumber":56,"Velocity":26,"Duration":117795,"SoundDuration":117795,"Delta":38999522},{"NoteNumber":50,"Velocity":22,"Duration":133606,"SoundDuration":133606,"Delta":39117317},{"NoteNumber":52,"Velocity":25,"Duration":98450,"SoundDuration":98450,"Delta":39250923},{"NoteNumber":59,"Velocity":25,"Duration":129567,"SoundDuration":129567,"Delta":39382191},{"NoteNumber":56,"Velocity":24,"Duration":128457,"SoundDuration":128457,"Delta":39511759},{"NoteNumber":50,"Velocity":20,"Duration":128111,"SoundDuration":128111,"Delta":39640216},{"NoteNumber":52,"Velocity":25,"Duration":96131,"SoundDuration":96131,"Delta":39768328},{"NoteNumber":59,"Velocity":22,"Duration":140282,"SoundDuration":140282,"Delta":39897882},{"NoteNumber":56,"Velocity":23,"Duration":151957,"SoundDuration":151957,"Delta":40038165},{"NoteNumber":50,"Velocity":19,"Duration":213462,"SoundDuration":213462,"Delta":40190122},{"NoteNumber":36,"Velocity":23,"Duration":73335,"SoundDuration":73335,"Delta":40403585},{"NoteNumber":48,"Velocity":30,"Duration":2455497,"SoundDuration":2455497,"Delta":40476920},{"NoteNumber":55,"Velocity":24,"Duration":155006,"SoundDuration":155006,"Delta":40550255},{"NoteNumber":60,"Velocity":24,"Duration":134711,"SoundDuration":134711,"Delta":40705262},{"NoteNumber":62,"Velocity":21,"Duration":133651,"SoundDuration":133651,"Delta":40839974},{"NoteNumber":64,"Velocity":28,"Duration":132520,"SoundDuration":132520,"Delta":40973626},{"NoteNumber":55,"Velocity":24,"Duration":130949,"SoundDuration":130949,"Delta":41106147},{"NoteNumber":60,"Velocity":24,"Duration":126909,"SoundDuration":126909,"Delta":41237097},{"NoteNumber":64,"Velocity":24,"Duration":122676,"SoundDuration":122676,"Delta":41364006},{"NoteNumber":62,"Velocity":31,"Duration":122608,"SoundDuration":122608,"Delta":41486682},{"NoteNumber":53,"Velocity":29,"Duration":122609,"SoundDuration":122609,"Delta":41609291},{"NoteNumber":60,"Velocity":30,"Duration":122608,"SoundDuration":122608,"Delta":41731900},{"NoteNumber":62,"Velocity":27,"Duration":122609,"SoundDuration":122609,"Delta":41854509},{"NoteNumber":65,"Velocity":34,"Duration":120472,"SoundDuration":120472,"Delta":41977118},{"NoteNumber":57,"Velocity":31,"Duration":120472,"SoundDuration":120472,"Delta":42097591},{"NoteNumber":59,"Velocity":32,"Duration":120472,"SoundDuration":120472,"Delta":42218063},{"NoteNumber":65,"Velocity":30,"Duration":120472,"SoundDuration":120472,"Delta":42338535},{"NoteNumber":64,"Velocity":37,"Duration":118352,"SoundDuration":118352,"Delta":42459007},{"NoteNumber":55,"Velocity":34,"Duration":118352,"SoundDuration":118352,"Delta":42577360},{"NoteNumber":60,"Velocity":34,"Duration":118352,"SoundDuration":118352,"Delta":42695712},{"NoteNumber":64,"Velocity":32,"Duration":118352,"SoundDuration":118352,"Delta":42814065},{"NoteNumber":67,"Velocity":37,"Duration":118352,"SoundDuration":118352,"Delta":42932417},{"NoteNumber":45,"Velocity":30,"Duration":473410,"SoundDuration":473410,"Delta":42932417},{"NoteNumber":59,"Velocity":34,"Duration":118352,"SoundDuration":118352,"Delta":43050770},{"NoteNumber":60,"Velocity":34,"Duration":118352,"SoundDuration":118352,"Delta":43169122},{"NoteNumber":67,"Velocity":32,"Duration":118352,"SoundDuration":118352,"Delta":43287475},{"NoteNumber":66,"Velocity":38,"Duration":118352,"SoundDuration":118352,"Delta":43405827},{"NoteNumber":50,"Velocity":30,"Duration":480570,"SoundDuration":480570,"Delta":43405827},{"NoteNumber":57,"Velocity":35,"Duration":118352,"SoundDuration":118352,"Delta":43524180},{"NoteNumber":62,"Velocity":35,"Duration":118352,"SoundDuration":118352,"Delta":43642532},{"NoteNumber":66,"Velocity":32,"Duration":125512,"SoundDuration":125512,"Delta":43760885},{"NoteNumber":69,"Velocity":38,"Duration":118352,"SoundDuration":118352,"Delta":43886397},{"NoteNumber":47,"Velocity":30,"Duration":473410,"SoundDuration":473410,"Delta":43886397},{"NoteNumber":60,"Velocity":35,"Duration":118352,"SoundDuration":118352,"Delta":44004750},{"NoteNumber":66,"Velocity":35,"Duration":118352,"SoundDuration":118352,"Delta":44123102},{"NoteNumber":69,"Velocity":32,"Duration":118352,"SoundDuration":118352,"Delta":44241455},{"NoteNumber":67,"Velocity":39,"Duration":118352,"SoundDuration":118352,"Delta":44359807},{"NoteNumber":52,"Velocity":43,"Duration":1917715,"SoundDuration":1917715,"Delta":44359807},{"NoteNumber":62,"Velocity":37,"Duration":118352,"SoundDuration":118352,"Delta":44478160},{"NoteNumber":67,"Velocity":40,"Duration":118352,"SoundDuration":118352,"Delta":44596512},{"NoteNumber":71,"Velocity":42,"Duration":134928,"SoundDuration":134928,"Delta":44714865},{"NoteNumber":76,"Velocity":62,"Duration":239865,"SoundDuration":239865,"Delta":44849793},{"NoteNumber":71,"Velocity":38,"Duration":119932,"SoundDuration":119932,"Delta":44969726},{"NoteNumber":67,"Velocity":38,"Duration":117032,"SoundDuration":117032,"Delta":45089659},{"NoteNumber":62,"Velocity":32,"Duration":116577,"SoundDuration":116577,"Delta":45206691},{"NoteNumber":61,"Velocity":50,"Duration":87774,"SoundDuration":87774,"Delta":45323268},{"NoteNumber":64,"Velocity":36,"Duration":117031,"SoundDuration":117031,"Delta":45440300},{"NoteNumber":67,"Velocity":39,"Duration":117032,"SoundDuration":117032,"Delta":45557332},{"NoteNumber":69,"Velocity":36,"Duration":133132,"SoundDuration":133132,"Delta":45674364},{"NoteNumber":78,"Velocity":62,"Duration":237774,"SoundDuration":237774,"Delta":45807496},{"NoteNumber":69,"Velocity":40,"Duration":118887,"SoundDuration":118887,"Delta":45926384},{"NoteNumber":67,"Velocity":37,"Duration":116126,"SoundDuration":116126,"Delta":46045271},{"NoteNumber":64,"Velocity":35,"Duration":116126,"SoundDuration":116126,"Delta":46161397},{"NoteNumber":52,"Velocity":43,"Duration":952838,"SoundDuration":952838,"Delta":46277523},{"NoteNumber":62,"Velocity":37,"Duration":118352,"SoundDuration":118352,"Delta":46395875},{"NoteNumber":67,"Velocity":40,"Duration":118352,"SoundDuration":118352,"Delta":46514228},{"NoteNumber":71,"Velocity":42,"Duration":124305,"SoundDuration":124305,"Delta":46632580},{"NoteNumber":76,"Velocity":63,"Duration":239865,"SoundDuration":239865,"Delta":46756886},{"NoteNumber":71,"Velocity":38,"Duration":119932,"SoundDuration":119932,"Delta":46876819},{"NoteNumber":67,"Velocity":38,"Duration":117032,"SoundDuration":117032,"Delta":46996752},{"NoteNumber":62,"Velocity":32,"Duration":116577,"SoundDuration":116577,"Delta":47113784},{"NoteNumber":61,"Velocity":50,"Duration":87774,"SoundDuration":87774,"Delta":47230361},{"NoteNumber":64,"Velocity":36,"Duration":117031,"SoundDuration":117031,"Delta":47347393},{"NoteNumber":67,"Velocity":39,"Duration":117032,"SoundDuration":117032,"Delta":47464425},{"NoteNumber":70,"Velocity":36,"Duration":133132,"SoundDuration":133132,"Delta":47581457},{"NoteNumber":78,"Velocity":61,"Duration":237774,"SoundDuration":237774,"Delta":47714589},{"NoteNumber":70,"Velocity":40,"Duration":118887,"SoundDuration":118887,"Delta":47833477},{"NoteNumber":67,"Velocity":37,"Duration":116126,"SoundDuration":116126,"Delta":47952364},{"NoteNumber":64,"Velocity":35,"Duration":116126,"SoundDuration":116126,"Delta":48068490},{"NoteNumber":59,"Velocity":43,"Duration":952838,"SoundDuration":952838,"Delta":48184616},{"NoteNumber":64,"Velocity":37,"Duration":118352,"SoundDuration":118352,"Delta":48302968},{"NoteNumber":67,"Velocity":40,"Duration":118352,"SoundDuration":118352,"Delta":48421321},{"NoteNumber":74,"Velocity":42,"Duration":124305,"SoundDuration":124305,"Delta":48539673},{"NoteNumber":78,"Velocity":63,"Duration":473474,"SoundDuration":473474,"Delta":48663979},{"NoteNumber":74,"Velocity":38,"Duration":119932,"SoundDuration":119932,"Delta":48783912},{"NoteNumber":67,"Velocity":38,"Duration":117032,"SoundDuration":117032,"Delta":48903845},{"NoteNumber":64,"Velocity":32,"Duration":116577,"SoundDuration":116577,"Delta":49020877},{"NoteNumber":58,"Velocity":50,"Duration":954254,"SoundDuration":954254,"Delta":49137454},{"NoteNumber":64,"Velocity":36,"Duration":117031,"SoundDuration":117031,"Delta":49254486},{"NoteNumber":67,"Velocity":39,"Duration":117032,"SoundDuration":117032,"Delta":49371518},{"NoteNumber":73,"Velocity":36,"Duration":133132,"SoundDuration":133132,"Delta":49488550},{"NoteNumber":78,"Velocity":63,"Duration":470026,"SoundDuration":470026,"Delta":49621682},{"NoteNumber":73,"Velocity":40,"Duration":118887,"SoundDuration":118887,"Delta":49740570},{"NoteNumber":67,"Velocity":37,"Duration":116126,"SoundDuration":116126,"Delta":49859457},{"NoteNumber":64,"Velocity":35,"Duration":116126,"SoundDuration":116126,"Delta":49975583},{"NoteNumber":57,"Velocity":43,"Duration":1889151,"SoundDuration":1889151,"Delta":50091709},{"NoteNumber":64,"Velocity":37,"Duration":118352,"SoundDuration":118352,"Delta":50210061},{"NoteNumber":67,"Velocity":40,"Duration":118352,"SoundDuration":118352,"Delta":50328414},{"NoteNumber":72,"Velocity":42,"Duration":124305,"SoundDuration":124305,"Delta":50446766},{"NoteNumber":79,"Velocity":63,"Duration":352012,"SoundDuration":352012,"Delta":50571072},{"NoteNumber":72,"Velocity":38,"Duration":117490,"SoundDuration":117490,"Delta":50688563},{"NoteNumber":67,"Velocity":38,"Duration":117032,"SoundDuration":117032,"Delta":50806053},{"NoteNumber":64,"Velocity":32,"Duration":116577,"SoundDuration":116577,"Delta":50923085},{"NoteNumber":78,"Velocity":63,"Duration":351095,"SoundDuration":351095,"Delta":51039663},{"NoteNumber":72,"Velocity":38,"Duration":117031,"SoundDuration":117031,"Delta":51156695},{"NoteNumber":67,"Velocity":38,"Duration":117032,"SoundDuration":117032,"Delta":51273727},{"NoteNumber":64,"Velocity":32,"Duration":116577,"SoundDuration":116577,"Delta":51390759},{"NoteNumber":76,"Velocity":63,"Duration":349731,"SoundDuration":349731,"Delta":51507336},{"NoteNumber":72,"Velocity":38,"Duration":116577,"SoundDuration":116577,"Delta":51623913},{"NoteNumber":67,"Velocity":38,"Duration":116577,"SoundDuration":116577,"Delta":51740490},{"NoteNumber":64,"Velocity":32,"Duration":123792,"SoundDuration":123792,"Delta":51857068},{"NoteNumber":58,"Velocity":43,"Duration":1896605,"SoundDuration":1896605,"Delta":51980861},{"NoteNumber":64,"Velocity":41,"Duration":118352,"SoundDuration":118352,"Delta":52099213},{"NoteNumber":67,"Velocity":41,"Duration":118352,"SoundDuration":118352,"Delta":52217566},{"NoteNumber":72,"Velocity":45,"Duration":120317,"SoundDuration":120317,"Delta":52335918},{"NoteNumber":74,"Velocity":58,"Duration":234980,"SoundDuration":234980,"Delta":52456236},{"NoteNumber":72,"Velocity":46,"Duration":117490,"SoundDuration":117490,"Delta":52573726},{"NoteNumber":67,"Velocity":54,"Duration":117032,"SoundDuration":117032,"Delta":52691217},{"NoteNumber":76,"Velocity":54,"Duration":245051,"SoundDuration":245051,"Delta":52691217},{"NoteNumber":64,"Velocity":47,"Duration":128019,"SoundDuration":128019,"Delta":52808249},{"NoteNumber":78,"Velocity":63,"Duration":941198,"SoundDuration":941198,"Delta":52936268},{"NoteNumber":72,"Velocity":51,"Duration":117031,"SoundDuration":117031,"Delta":53053300},{"NoteNumber":67,"Velocity":41,"Duration":117032,"SoundDuration":117032,"Delta":53170332},{"NoteNumber":64,"Velocity":32,"Duration":233154,"SoundDuration":233154,"Delta":53287364},{"NoteNumber":72,"Velocity":41,"Duration":116577,"SoundDuration":116577,"Delta":53520518},{"NoteNumber":67,"Velocity":41,"Duration":116577,"SoundDuration":116577,"Delta":53637096},{"NoteNumber":64,"Velocity":34,"Duration":123792,"SoundDuration":123792,"Delta":53753673},{"NoteNumber":59,"Velocity":49,"Duration":1936880,"SoundDuration":1936880,"Delta":53877466},{"NoteNumber":64,"Velocity":41,"Duration":118352,"SoundDuration":118352,"Delta":53995818},{"NoteNumber":67,"Velocity":41,"Duration":118352,"SoundDuration":118352,"Delta":54114171},{"NoteNumber":71,"Velocity":45,"Duration":120317,"SoundDuration":120317,"Delta":54232523},{"NoteNumber":74,"Velocity":58,"Duration":251952,"SoundDuration":251952,"Delta":54352841},{"NoteNumber":71,"Velocity":46,"Duration":125976,"SoundDuration":125976,"Delta":54478817},{"NoteNumber":67,"Velocity":55,"Duration":132077,"SoundDuration":132077,"Delta":54604794},{"NoteNumber":76,"Velocity":55,"Duration":268354,"SoundDuration":268354,"Delta":54604794},{"NoteNumber":64,"Velocity":47,"Duration":136276,"SoundDuration":136276,"Delta":54736871},{"NoteNumber":78,"Velocity":63,"Duration":941198,"SoundDuration":941198,"Delta":54873148},{"NoteNumber":71,"Velocity":51,"Duration":117031,"SoundDuration":117031,"Delta":54990180},{"NoteNumber":67,"Velocity":41,"Duration":117032,"SoundDuration":117032,"Delta":55107212},{"NoteNumber":64,"Velocity":32,"Duration":233154,"SoundDuration":233154,"Delta":55224244},{"NoteNumber":71,"Velocity":41,"Duration":116577,"SoundDuration":116577,"Delta":55457398},{"NoteNumber":67,"Velocity":41,"Duration":116577,"SoundDuration":116577,"Delta":55573976},{"NoteNumber":64,"Velocity":34,"Duration":123792,"SoundDuration":123792,"Delta":55690553},{"NoteNumber":60,"Velocity":58,"Duration":1898746,"SoundDuration":1898746,"Delta":55814346},{"NoteNumber":64,"Velocity":37,"Duration":118352,"SoundDuration":118352,"Delta":55932698},{"NoteNumber":67,"Velocity":40,"Duration":118352,"SoundDuration":118352,"Delta":56051051},{"NoteNumber":70,"Velocity":42,"Duration":124305,"SoundDuration":124305,"Delta":56169403},{"NoteNumber":74,"Velocity":55,"Duration":352012,"SoundDuration":352012,"Delta":56293709},{"NoteNumber":70,"Velocity":38,"Duration":117490,"SoundDuration":117490,"Delta":56411200},{"NoteNumber":67,"Velocity":38,"Duration":117032,"SoundDuration":117032,"Delta":56528690},{"NoteNumber":64,"Velocity":32,"Duration":116577,"SoundDuration":116577,"Delta":56645722},{"NoteNumber":76,"Velocity":57,"Duration":351095,"SoundDuration":351095,"Delta":56762300},{"NoteNumber":70,"Velocity":37,"Duration":117031,"SoundDuration":117031,"Delta":56879332},{"NoteNumber":67,"Velocity":35,"Duration":117032,"SoundDuration":117032,"Delta":56996364},{"NoteNumber":64,"Velocity":32,"Duration":116577,"SoundDuration":116577,"Delta":57113396},{"NoteNumber":72,"Velocity":53,"Duration":349731,"SoundDuration":349731,"Delta":57229973},{"NoteNumber":70,"Velocity":38,"Duration":116577,"SoundDuration":116577,"Delta":57346550},{"NoteNumber":67,"Velocity":38,"Duration":116577,"SoundDuration":116577,"Delta":57463127},{"NoteNumber":64,"Velocity":32,"Duration":133388,"SoundDuration":133388,"Delta":57579705},{"NoteNumber":74,"Velocity":41,"Duration":113490,"SoundDuration":113490,"Delta":57713093},{"NoteNumber":70,"Velocity":41,"Duration":113741,"SoundDuration":113741,"Delta":57826583},{"NoteNumber":69,"Velocity":40,"Duration":113982,"SoundDuration":113982,"Delta":57940325},{"NoteNumber":67,"Velocity":40,"Duration":114355,"SoundDuration":114355,"Delta":58054307},{"NoteNumber":65,"Velocity":39,"Duration":114661,"SoundDuration":114661,"Delta":58168663},{"NoteNumber":64,"Velocity":39,"Duration":114976,"SoundDuration":114976,"Delta":58283325},{"NoteNumber":62,"Velocity":39,"Duration":115234,"SoundDuration":115234,"Delta":58398301},{"NoteNumber":60,"Velocity":38,"Duration":115670,"SoundDuration":115670,"Delta":58513535},{"NoteNumber":62,"Velocity":38,"Duration":115920,"SoundDuration":115920,"Delta":58629206},{"NoteNumber":58,"Velocity":37,"Duration":116171,"SoundDuration":116171,"Delta":58745127},{"NoteNumber":57,"Velocity":35,"Duration":116577,"SoundDuration":116577,"Delta":58861298},{"NoteNumber":55,"Velocity":31,"Duration":116948,"SoundDuration":116948,"Delta":58977875},{"NoteNumber":53,"Velocity":37,"Duration":117207,"SoundDuration":117207,"Delta":59094824},{"NoteNumber":52,"Velocity":34,"Duration":117490,"SoundDuration":117490,"Delta":59212032},{"NoteNumber":50,"Velocity":34,"Duration":117925,"SoundDuration":117925,"Delta":59329522},{"NoteNumber":48,"Velocity":34,"Duration":118099,"SoundDuration":118099,"Delta":59447448},{"NoteNumber":46,"Velocity":33,"Duration":118531,"SoundDuration":118531,"Delta":59565547},{"NoteNumber":45,"Velocity":33,"Duration":119559,"SoundDuration":119559,"Delta":59684079},{"NoteNumber":43,"Velocity":33,"Duration":120685,"SoundDuration":120685,"Delta":59803639},{"NoteNumber":41,"Velocity":33,"Duration":121705,"SoundDuration":121705,"Delta":59924325},{"NoteNumber":62,"Velocity":38,"Duration":574134,"SoundDuration":574134,"Delta":60046030},{"NoteNumber":40,"Velocity":31,"Duration":574134,"SoundDuration":574134,"Delta":60046030},{"NoteNumber":58,"Velocity":30,"Duration":141817,"SoundDuration":141817,"Delta":60187848},{"NoteNumber":55,"Velocity":30,"Duration":145250,"SoundDuration":145250,"Delta":60329665},{"NoteNumber":58,"Velocity":30,"Duration":145250,"SoundDuration":145250,"Delta":60474915},{"NoteNumber":64,"Velocity":38,"Duration":556741,"SoundDuration":556741,"Delta":60620165},{"NoteNumber":38,"Velocity":35,"Duration":556741,"SoundDuration":556741,"Delta":60620165},{"NoteNumber":58,"Velocity":31,"Duration":139185,"SoundDuration":139185,"Delta":60759351},{"NoteNumber":55,"Velocity":31,"Duration":139185,"SoundDuration":139185,"Delta":60898536},{"NoteNumber":58,"Velocity":31,"Duration":139185,"SoundDuration":139185,"Delta":61037721},{"NoteNumber":60,"Velocity":39,"Duration":615130,"SoundDuration":615130,"Delta":61176906},{"NoteNumber":36,"Velocity":29,"Duration":615130,"SoundDuration":615130,"Delta":61176906},{"NoteNumber":58,"Velocity":32,"Duration":144486,"SoundDuration":144486,"Delta":61317455},{"NoteNumber":55,"Velocity":32,"Duration":148870,"SoundDuration":148870,"Delta":61461942},{"NoteNumber":58,"Velocity":32,"Duration":181224,"SoundDuration":181224,"Delta":61610812},{"NoteNumber":34,"Velocity":26,"Duration":4769125,"SoundDuration":4769125,"Delta":61792037},{"NoteNumber":53,"Velocity":25,"Duration":303121,"SoundDuration":303121,"Delta":62095159},{"NoteNumber":58,"Velocity":25,"Duration":303122,"SoundDuration":303122,"Delta":62398281},{"NoteNumber":60,"Velocity":29,"Duration":303122,"SoundDuration":303122,"Delta":62701403},{"NoteNumber":62,"Velocity":32,"Duration":588762,"SoundDuration":588762,"Delta":63004525},{"NoteNumber":65,"Velocity":25,"Duration":301598,"SoundDuration":301598,"Delta":63291689},{"NoteNumber":70,"Velocity":29,"Duration":301598,"SoundDuration":301598,"Delta":63593287},{"NoteNumber":72,"Velocity":32,"Duration":301598,"SoundDuration":301598,"Delta":63894886},{"NoteNumber":74,"Velocity":37,"Duration":585760,"SoundDuration":585760,"Delta":64196484},{"NoteNumber":53,"Velocity":25,"Duration":298596,"SoundDuration":298596,"Delta":64483648},{"NoteNumber":58,"Velocity":25,"Duration":298596,"SoundDuration":298596,"Delta":64782245},{"NoteNumber":62,"Velocity":29,"Duration":298596,"SoundDuration":298596,"Delta":65080841},{"NoteNumber":60,"Velocity":33,"Duration":284441,"SoundDuration":284441,"Delta":65379438},{"NoteNumber":54,"Velocity":32,"Duration":5858385,"SoundDuration":5858385,"Delta":65663879},{"NoteNumber":58,"Velocity":32,"Duration":5558295,"SoundDuration":5558295,"Delta":65963969},{"NoteNumber":60,"Velocity":31,"Duration":5259699,"SoundDuration":5259699,"Delta":66262565},{"NoteNumber":63,"Velocity":33,"Duration":4961102,"SoundDuration":4961102,"Delta":66561162},{"NoteNumber":34,"Velocity":26,"Duration":1194385,"SoundDuration":1194385,"Delta":66561162},{"NoteNumber":39,"Velocity":23,"Duration":577089,"SoundDuration":577089,"Delta":67755548},{"NoteNumber":34,"Velocity":26,"Duration":1173096,"SoundDuration":1173096,"Delta":68332638},{"NoteNumber":39,"Velocity":22,"Duration":1192014,"SoundDuration":1192014,"Delta":69505735},{"NoteNumber":34,"Velocity":23,"Duration":824516,"SoundDuration":824516,"Delta":70697749},{"NoteNumber":32,"Velocity":26,"Duration":3969553,"SoundDuration":3969553,"Delta":71538280},{"NoteNumber":51,"Velocity":22,"Duration":251530,"SoundDuration":251530,"Delta":71796814},{"NoteNumber":56,"Velocity":22,"Duration":243368,"SoundDuration":243368,"Delta":72048344},{"NoteNumber":58,"Velocity":26,"Duration":243367,"SoundDuration":243367,"Delta":72291712},{"NoteNumber":60,"Velocity":33,"Duration":243368,"SoundDuration":243368,"Delta":72535080},{"NoteNumber":51,"Velocity":28,"Duration":243368,"SoundDuration":243368,"Delta":72778448},{"NoteNumber":56,"Velocity":28,"Duration":243368,"SoundDuration":243368,"Delta":73021816},{"NoteNumber":60,"Velocity":28,"Duration":267212,"SoundDuration":267212,"Delta":73265184},{"NoteNumber":58,"Velocity":31,"Duration":243368,"SoundDuration":243368,"Delta":73532397},{"NoteNumber":51,"Velocity":28,"Duration":258020,"SoundDuration":258020,"Delta":73775765},{"NoteNumber":54,"Velocity":28,"Duration":240442,"SoundDuration":240442,"Delta":74033785},{"NoteNumber":70,"Velocity":41,"Duration":961770,"SoundDuration":961770,"Delta":74033785},{"NoteNumber":66,"Velocity":41,"Duration":961770,"SoundDuration":961770,"Delta":74033785},{"NoteNumber":58,"Velocity":28,"Duration":240442,"SoundDuration":240442,"Delta":74274228},{"NoteNumber":61,"Velocity":33,"Duration":240442,"SoundDuration":240442,"Delta":74514670},{"NoteNumber":51,"Velocity":28,"Duration":240442,"SoundDuration":240442,"Delta":74755113},{"NoteNumber":54,"Velocity":28,"Duration":240442,"SoundDuration":240442,"Delta":74995555},{"NoteNumber":68,"Velocity":35,"Duration":496262,"SoundDuration":496262,"Delta":74995555},{"NoteNumber":65,"Velocity":35,"Duration":496262,"SoundDuration":496262,"Delta":74995555},{"NoteNumber":61,"Velocity":28,"Duration":255819,"SoundDuration":255819,"Delta":75235998},{"NoteNumber":32,"Velocity":26,"Duration":3969553,"SoundDuration":3969553,"Delta":75507833},{"NoteNumber":51,"Velocity":22,"Duration":251530,"SoundDuration":251530,"Delta":75766367},{"NoteNumber":56,"Velocity":22,"Duration":243368,"SoundDuration":243368,"Delta":76017897},{"NoteNumber":58,"Velocity":26,"Duration":243367,"SoundDuration":243367,"Delta":76261265},{"NoteNumber":60,"Velocity":33,"Duration":243368,"SoundDuration":243368,"Delta":76504633},{"NoteNumber":63,"Velocity":41,"Duration":997317,"SoundDuration":997317,"Delta":76504633},{"NoteNumber":66,"Velocity":41,"Duration":997317,"SoundDuration":997317,"Delta":76504633},{"NoteNumber":51,"Velocity":28,"Duration":243368,"SoundDuration":243368,"Delta":76748001},{"NoteNumber":56,"Velocity":28,"Duration":243368,"SoundDuration":243368,"Delta":76991369},{"NoteNumber":60,"Velocity":28,"Duration":267212,"SoundDuration":267212,"Delta":77234737},{"NoteNumber":58,"Velocity":31,"Duration":243368,"SoundDuration":243368,"Delta":77501950},{"NoteNumber":51,"Velocity":28,"Duration":258020,"SoundDuration":258020,"Delta":77745318},{"NoteNumber":54,"Velocity":28,"Duration":240442,"SoundDuration":240442,"Delta":78003338},{"NoteNumber":70,"Velocity":41,"Duration":961770,"SoundDuration":961770,"Delta":78003338},{"NoteNumber":66,"Velocity":41,"Duration":961770,"SoundDuration":961770,"Delta":78003338},{"NoteNumber":58,"Velocity":28,"Duration":240442,"SoundDuration":240442,"Delta":78243781},{"NoteNumber":61,"Velocity":33,"Duration":240442,"SoundDuration":240442,"Delta":78484223},{"NoteNumber":51,"Velocity":28,"Duration":240442,"SoundDuration":240442,"Delta":78724666},{"NoteNumber":54,"Velocity":28,"Duration":240442,"SoundDuration":240442,"Delta":78965108},{"NoteNumber":68,"Velocity":35,"Duration":496262,"SoundDuration":496262,"Delta":78965108},{"NoteNumber":65,"Velocity":35,"Duration":496262,"SoundDuration":496262,"Delta":78965108},{"NoteNumber":61,"Velocity":28,"Duration":255819,"SoundDuration":255819,"Delta":79205551},{"NoteNumber":32,"Velocity":26,"Duration":7758719,"SoundDuration":7758719,"Delta":79477386},{"NoteNumber":54,"Velocity":22,"Duration":251530,"SoundDuration":251530,"Delta":79735920},{"NoteNumber":60,"Velocity":22,"Duration":243368,"SoundDuration":243368,"Delta":79987450},{"NoteNumber":61,"Velocity":26,"Duration":243367,"SoundDuration":243367,"Delta":80230818},{"NoteNumber":63,"Velocity":33,"Duration":237585,"SoundDuration":237585,"Delta":80474186},{"NoteNumber":54,"Velocity":29,"Duration":237586,"SoundDuration":237586,"Delta":80711772},{"NoteNumber":60,"Velocity":29,"Duration":237585,"SoundDuration":237585,"Delta":80949358},{"NoteNumber":63,"Velocity":29,"Duration":237586,"SoundDuration":237586,"Delta":81186944},{"NoteNumber":61,"Velocity":41,"Duration":230290,"SoundDuration":230290,"Delta":81424530},{"NoteNumber":54,"Velocity":34,"Duration":230291,"SoundDuration":230291,"Delta":81654821},{"NoteNumber":58,"Velocity":34,"Duration":230290,"SoundDuration":230290,"Delta":81885112},{"NoteNumber":61,"Velocity":41,"Duration":230291,"SoundDuration":230291,"Delta":82115403},{"NoteNumber":65,"Velocity":31,"Duration":230290,"SoundDuration":230290,"Delta":82345694},{"NoteNumber":54,"Velocity":37,"Duration":230291,"SoundDuration":230291,"Delta":82575985},{"NoteNumber":58,"Velocity":43,"Duration":230290,"SoundDuration":230290,"Delta":82806276},{"NoteNumber":65,"Velocity":49,"Duration":496623,"SoundDuration":496623,"Delta":83036567},{"NoteNumber":68,"Velocity":60,"Duration":1863185,"SoundDuration":1863185,"Delta":83303780},{"NoteNumber":54,"Velocity":29,"Duration":240910,"SoundDuration":240910,"Delta":83533191},{"NoteNumber":60,"Velocity":29,"Duration":230291,"SoundDuration":230291,"Delta":83774101},{"NoteNumber":61,"Velocity":29,"Duration":230290,"SoundDuration":230290,"Delta":84004392},{"NoteNumber":63,"Velocity":35,"Duration":230290,"SoundDuration":230290,"Delta":84234683},{"NoteNumber":54,"Velocity":27,"Duration":230291,"SoundDuration":230291,"Delta":84464974},{"NoteNumber":60,"Velocity":27,"Duration":230290,"SoundDuration":230290,"Delta":84695265},{"NoteNumber":63,"Velocity":26,"Duration":241410,"SoundDuration":241410,"Delta":84925556},{"NoteNumber":61,"Velocity":30,"Duration":232072,"SoundDuration":232072,"Delta":85166966},{"NoteNumber":51,"Velocity":27,"Duration":939515,"SoundDuration":939515,"Delta":85166966},{"NoteNumber":54,"Velocity":25,"Duration":232072,"SoundDuration":232072,"Delta":85399039},{"NoteNumber":58,"Velocity":24,"Duration":232072,"SoundDuration":232072,"Delta":85631111},{"NoteNumber":61,"Velocity":24,"Duration":243297,"SoundDuration":243297,"Delta":85863184},{"NoteNumber":65,"Velocity":30,"Duration":254159,"SoundDuration":254159,"Delta":86106482},{"NoteNumber":44,"Velocity":26,"Duration":1115983,"SoundDuration":1115983,"Delta":86106482},{"NoteNumber":54,"Velocity":23,"Duration":275955,"SoundDuration":275955,"Delta":86360641},{"NoteNumber":58,"Velocity":23,"Duration":286979,"SoundDuration":286979,"Delta":86636597},{"NoteNumber":65,"Velocity":22,"Duration":298889,"SoundDuration":298889,"Delta":86923576},{"NoteNumber":31,"Velocity":24,"Duration":3754971,"SoundDuration":3754971,"Delta":87222466},{"NoteNumber":43,"Velocity":28,"Duration":4224373,"SoundDuration":4224373,"Delta":87222466},{"NoteNumber":55,"Velocity":25,"Duration":127397,"SoundDuration":127397,"Delta":87339379},{"NoteNumber":60,"Velocity":26,"Duration":125010,"SoundDuration":125010,"Delta":87466776},{"NoteNumber":62,"Velocity":24,"Duration":125010,"SoundDuration":125010,"Delta":87591787},{"NoteNumber":64,"Velocity":29,"Duration":124858,"SoundDuration":124858,"Delta":87716797},{"NoteNumber":55,"Velocity":27,"Duration":123656,"SoundDuration":123656,"Delta":87841656},{"NoteNumber":60,"Velocity":27,"Duration":121246,"SoundDuration":121246,"Delta":87965312},{"NoteNumber":64,"Velocity":26,"Duration":118825,"SoundDuration":118825,"Delta":88086559},{"NoteNumber":62,"Velocity":31,"Duration":117215,"SoundDuration":117215,"Delta":88205384},{"NoteNumber":53,"Velocity":29,"Duration":117196,"SoundDuration":117196,"Delta":88322600},{"NoteNumber":60,"Velocity":30,"Duration":117196,"SoundDuration":117196,"Delta":88439797},{"NoteNumber":62,"Velocity":27,"Duration":117196,"SoundDuration":117196,"Delta":88556993},{"NoteNumber":65,"Velocity":34,"Duration":115348,"SoundDuration":115348,"Delta":88674190},{"NoteNumber":57,"Velocity":31,"Duration":115349,"SoundDuration":115349,"Delta":88789539},{"NoteNumber":59,"Velocity":32,"Duration":115348,"SoundDuration":115348,"Delta":88904888},{"NoteNumber":65,"Velocity":30,"Duration":115348,"SoundDuration":115348,"Delta":89020237},{"NoteNumber":64,"Velocity":37,"Duration":113318,"SoundDuration":113318,"Delta":89135586},{"NoteNumber":55,"Velocity":34,"Duration":113318,"SoundDuration":113318,"Delta":89248905},{"NoteNumber":60,"Velocity":34,"Duration":113318,"SoundDuration":113318,"Delta":89362224},{"NoteNumber":64,"Velocity":32,"Duration":113318,"SoundDuration":113318,"Delta":89475542},{"NoteNumber":67,"Velocity":37,"Duration":113318,"SoundDuration":113318,"Delta":89588861},{"NoteNumber":59,"Velocity":34,"Duration":113318,"SoundDuration":113318,"Delta":89702180},{"NoteNumber":60,"Velocity":34,"Duration":113318,"SoundDuration":113318,"Delta":89815499},{"NoteNumber":67,"Velocity":32,"Duration":113318,"SoundDuration":113318,"Delta":89928817},{"NoteNumber":65,"Velocity":38,"Duration":113318,"SoundDuration":113318,"Delta":90042136},{"NoteNumber":57,"Velocity":35,"Duration":113318,"SoundDuration":113318,"Delta":90155455},{"NoteNumber":60,"Velocity":35,"Duration":113318,"SoundDuration":113318,"Delta":90268774},{"NoteNumber":65,"Velocity":32,"Duration":120172,"SoundDuration":120172,"Delta":90382092},{"NoteNumber":69,"Velocity":38,"Duration":118792,"SoundDuration":118792,"Delta":90502265},{"NoteNumber":59,"Velocity":35,"Duration":118792,"SoundDuration":118792,"Delta":90621058},{"NoteNumber":65,"Velocity":35,"Duration":118793,"SoundDuration":118793,"Delta":90739851},{"NoteNumber":69,"Velocity":32,"Duration":118792,"SoundDuration":118792,"Delta":90858644},{"NoteNumber":67,"Velocity":42,"Duration":113404,"SoundDuration":113404,"Delta":90977437},{"NoteNumber":36,"Velocity":28,"Duration":469401,"SoundDuration":469401,"Delta":90977437},{"NoteNumber":60,"Velocity":36,"Duration":113404,"SoundDuration":113404,"Delta":91090842},{"NoteNumber":64,"Velocity":36,"Duration":113404,"SoundDuration":113404,"Delta":91204246},{"NoteNumber":67,"Velocity":30,"Duration":129187,"SoundDuration":129187,"Delta":91317651},{"NoteNumber":72,"Velocity":50,"Duration":172242,"SoundDuration":172242,"Delta":91446839},{"NoteNumber":60,"Velocity":35,"Duration":1819137,"SoundDuration":1819137,"Delta":91446839},{"NoteNumber":64,"Velocity":38,"Duration":114828,"SoundDuration":114828,"Delta":91561667},{"NoteNumber":67,"Velocity":38,"Duration":114828,"SoundDuration":114828,"Delta":91676495},{"NoteNumber":72,"Velocity":32,"Duration":114828,"SoundDuration":114828,"Delta":91791323},{"NoteNumber":74,"Velocity":53,"Duration":169978,"SoundDuration":169978,"Delta":91906152},{"NoteNumber":59,"Velocity":29,"Duration":453275,"SoundDuration":453275,"Delta":91906152},{"NoteNumber":64,"Velocity":42,"Duration":113318,"SoundDuration":113318,"Delta":92019470},{"NoteNumber":67,"Velocity":42,"Duration":113318,"SoundDuration":113318,"Delta":92132789},{"NoteNumber":74,"Velocity":35,"Duration":113318,"SoundDuration":113318,"Delta":92246108},{"NoteNumber":72,"Velocity":52,"Duration":169978,"SoundDuration":169978,"Delta":92359427},{"NoteNumber":57,"Velocity":29,"Duration":453274,"SoundDuration":453274,"Delta":92359427},{"NoteNumber":64,"Velocity":41,"Duration":113318,"SoundDuration":113318,"Delta":92472745},{"NoteNumber":67,"Velocity":41,"Duration":113318,"SoundDuration":113318,"Delta":92586064},{"NoteNumber":72,"Velocity":38,"Duration":113318,"SoundDuration":113318,"Delta":92699383},{"NoteNumber":71,"Velocity":47,"Duration":169978,"SoundDuration":169978,"Delta":92812702},{"NoteNumber":59,"Velocity":29,"Duration":453275,"SoundDuration":453275,"Delta":92812702},{"NoteNumber":64,"Velocity":38,"Duration":113318,"SoundDuration":113318,"Delta":92926020},{"NoteNumber":67,"Velocity":38,"Duration":113318,"SoundDuration":113318,"Delta":93039339},{"NoteNumber":71,"Velocity":27,"Duration":113318,"SoundDuration":113318,"Delta":93152658},{"NoteNumber":69,"Velocity":47,"Duration":169978,"SoundDuration":169978,"Delta":93265977},{"NoteNumber":60,"Velocity":28,"Duration":453275,"SoundDuration":453275,"Delta":93265977},{"NoteNumber":64,"Velocity":35,"Duration":113318,"SoundDuration":113318,"Delta":93379295},{"NoteNumber":67,"Velocity":35,"Duration":113318,"SoundDuration":113318,"Delta":93492614},{"NoteNumber":69,"Velocity":27,"Duration":113318,"SoundDuration":113318,"Delta":93605933},{"NoteNumber":67,"Velocity":45,"Duration":169978,"SoundDuration":169978,"Delta":93719252},{"NoteNumber":59,"Velocity":28,"Duration":453274,"SoundDuration":453274,"Delta":93719252},{"NoteNumber":60,"Velocity":35,"Duration":113318,"SoundDuration":113318,"Delta":93832570},{"NoteNumber":64,"Velocity":35,"Duration":113318,"SoundDuration":113318,"Delta":93945889},{"NoteNumber":67,"Velocity":27,"Duration":113318,"SoundDuration":113318,"Delta":94059208},{"NoteNumber":65,"Velocity":46,"Duration":169978,"SoundDuration":169978,"Delta":94172527},{"NoteNumber":57,"Velocity":28,"Duration":453275,"SoundDuration":453275,"Delta":94172527},{"NoteNumber":60,"Velocity":35,"Duration":113318,"SoundDuration":113318,"Delta":94285845},{"NoteNumber":64,"Velocity":35,"Duration":113318,"SoundDuration":113318,"Delta":94399164},{"NoteNumber":65,"Velocity":27,"Duration":113318,"SoundDuration":113318,"Delta":94512483},{"NoteNumber":64,"Velocity":41,"Duration":331967,"SoundDuration":331967,"Delta":94625802},{"NoteNumber":55,"Velocity":29,"Duration":455269,"SoundDuration":455269,"Delta":94625802},{"NoteNumber":57,"Velocity":32,"Duration":113817,"SoundDuration":113817,"Delta":94739619},{"NoteNumber":60,"Velocity":32,"Duration":113817,"SoundDuration":113817,"Delta":94853437},{"NoteNumber":64,"Velocity":27,"Duration":113817,"SoundDuration":113817,"Delta":94967254},{"NoteNumber":62,"Velocity":35,"Duration":331967,"SoundDuration":331967,"Delta":95081072},{"NoteNumber":53,"Velocity":27,"Duration":465082,"SoundDuration":465082,"Delta":95081072},{"NoteNumber":57,"Velocity":32,"Duration":113817,"SoundDuration":113817,"Delta":95194889},{"NoteNumber":60,"Velocity":32,"Duration":113817,"SoundDuration":113817,"Delta":95308707},{"NoteNumber":62,"Velocity":27,"Duration":123629,"SoundDuration":123629,"Delta":95422524},{"NoteNumber":67,"Velocity":41,"Duration":330513,"SoundDuration":330513,"Delta":95546154},{"NoteNumber":52,"Velocity":27,"Duration":473348,"SoundDuration":473348,"Delta":95546154},{"NoteNumber":59,"Velocity":32,"Duration":113318,"SoundDuration":113318,"Delta":95659473},{"NoteNumber":64,"Velocity":32,"Duration":113318,"SoundDuration":113318,"Delta":95772791},{"NoteNumber":67,"Velocity":33,"Duration":133392,"SoundDuration":133392,"Delta":95886110},{"NoteNumber":69,"Velocity":47,"Duration":380016,"SoundDuration":380016,"Delta":96019503},{"NoteNumber":57,"Velocity":27,"Duration":533239,"SoundDuration":533239,"Delta":96019503},{"NoteNumber":60,"Velocity":37,"Duration":130115,"SoundDuration":130115,"Delta":96145296},{"NoteNumber":64,"Velocity":32,"Duration":135631,"SoundDuration":135631,"Delta":96275412},{"NoteNumber":69,"Velocity":27,"Duration":141699,"SoundDuration":141699,"Delta":96411043},{"NoteNumber":64,"Velocity":40,"Duration":361974,"SoundDuration":361974,"Delta":96552743},{"NoteNumber":55,"Velocity":29,"Duration":484829,"SoundDuration":484829,"Delta":96552743},{"NoteNumber":57,"Velocity":32,"Duration":129010,"SoundDuration":129010,"Delta":96681753},{"NoteNumber":60,"Velocity":32,"Duration":113404,"SoundDuration":113404,"Delta":96810763},{"NoteNumber":64,"Velocity":27,"Duration":113404,"SoundDuration":113404,"Delta":96924167},{"NoteNumber":62,"Velocity":39,"Duration":330763,"SoundDuration":330763,"Delta":97037572},{"NoteNumber":53,"Velocity":27,"Duration":453617,"SoundDuration":453617,"Delta":97037572},{"NoteNumber":57,"Velocity":32,"Duration":113404,"SoundDuration":113404,"Delta":97150976},{"NoteNumber":60,"Velocity":32,"Duration":113404,"SoundDuration":113404,"Delta":97264381},{"NoteNumber":62,"Velocity":27,"Duration":113404,"SoundDuration":113404,"Delta":97377785},{"NoteNumber":60,"Velocity":35,"Duration":333460,"SoundDuration":333460,"Delta":97491190},{"NoteNumber":52,"Velocity":27,"Duration":457317,"SoundDuration":457317,"Delta":97491190},{"NoteNumber":55,"Velocity":32,"Duration":114329,"SoundDuration":114329,"Delta":97605519},{"NoteNumber":57,"Velocity":32,"Duration":114329,"SoundDuration":114329,"Delta":97719848},{"NoteNumber":60,"Velocity":27,"Duration":114329,"SoundDuration":114329,"Delta":97834177},{"NoteNumber":59,"Velocity":35,"Duration":339462,"SoundDuration":339462,"Delta":97948507},{"NoteNumber":50,"Velocity":27,"Duration":465548,"SoundDuration":465548,"Delta":97948507},{"NoteNumber":53,"Velocity":32,"Duration":116387,"SoundDuration":116387,"Delta":98064894},{"NoteNumber":55,"Velocity":32,"Duration":116387,"SoundDuration":116387,"Delta":98181281},{"NoteNumber":59,"Velocity":27,"Duration":116387,"SoundDuration":116387,"Delta":98297668},{"NoteNumber":41,"Velocity":21,"Duration":1863374,"SoundDuration":1863374,"Delta":98414056},{"NoteNumber":48,"Velocity":20,"Duration":115857,"SoundDuration":115857,"Delta":98543243},{"NoteNumber":50,"Velocity":21,"Duration":115856,"SoundDuration":115856,"Delta":98659100},{"NoteNumber":52,"Velocity":23,"Duration":115857,"SoundDuration":115857,"Delta":98774957},{"NoteNumber":53,"Velocity":28,"Duration":114608,"SoundDuration":114608,"Delta":98890814},{"NoteNumber":57,"Velocity":31,"Duration":115672,"SoundDuration":115672,"Delta":99005423},{"NoteNumber":60,"Velocity":34,"Duration":116764,"SoundDuration":116764,"Delta":99121095},{"NoteNumber":62,"Velocity":36,"Duration":117124,"SoundDuration":117124,"Delta":99237860},{"NoteNumber":64,"Velocity":41,"Duration":116387,"SoundDuration":116387,"Delta":99354985},{"NoteNumber":62,"Velocity":41,"Duration":115865,"SoundDuration":115865,"Delta":99471372},{"NoteNumber":60,"Velocity":38,"Duration":115581,"SoundDuration":115581,"Delta":99587238},{"NoteNumber":57,"Velocity":35,"Duration":115296,"SoundDuration":115296,"Delta":99702820},{"NoteNumber":53,"Velocity":32,"Duration":114828,"SoundDuration":114828,"Delta":99818117},{"NoteNumber":52,"Velocity":30,"Duration":114828,"SoundDuration":114828,"Delta":99932945},{"NoteNumber":50,"Velocity":26,"Duration":114828,"SoundDuration":114828,"Delta":100047773},{"NoteNumber":48,"Velocity":24,"Duration":114828,"SoundDuration":114828,"Delta":100162602},{"NoteNumber":41,"Velocity":21,"Duration":1859292,"SoundDuration":1859292,"Delta":100277430},{"NoteNumber":48,"Velocity":21,"Duration":114828,"SoundDuration":114828,"Delta":100410609},{"NoteNumber":50,"Velocity":22,"Duration":114828,"SoundDuration":114828,"Delta":100525438},{"NoteNumber":52,"Velocity":25,"Duration":114433,"SoundDuration":114433,"Delta":100640266},{"NoteNumber":53,"Velocity":30,"Duration":112862,"SoundDuration":112862,"Delta":100754699},{"NoteNumber":57,"Velocity":34,"Duration":114422,"SoundDuration":114422,"Delta":100867562},{"NoteNumber":60,"Velocity":38,"Duration":116029,"SoundDuration":116029,"Delta":100981985},{"NoteNumber":62,"Velocity":42,"Duration":117678,"SoundDuration":117678,"Delta":101098015},{"NoteNumber":64,"Velocity":48,"Duration":116932,"SoundDuration":116932,"Delta":101215693},{"NoteNumber":62,"Velocity":41,"Duration":116206,"SoundDuration":116206,"Delta":101332626},{"NoteNumber":60,"Velocity":38,"Duration":115581,"SoundDuration":115581,"Delta":101448832},{"NoteNumber":59,"Velocity":35,"Duration":114962,"SoundDuration":114962,"Delta":101564414},{"NoteNumber":57,"Velocity":32,"Duration":114358,"SoundDuration":114358,"Delta":101679377},{"NoteNumber":52,"Velocity":30,"Duration":114329,"SoundDuration":114329,"Delta":101793735},{"NoteNumber":50,"Velocity":26,"Duration":114329,"SoundDuration":114329,"Delta":101908064},{"NoteNumber":48,"Velocity":24,"Duration":114329,"SoundDuration":114329,"Delta":102022393},{"NoteNumber":41,"Velocity":21,"Duration":1852479,"SoundDuration":1852479,"Delta":102136723},{"NoteNumber":48,"Velocity":21,"Duration":114828,"SoundDuration":114828,"Delta":102267214},{"NoteNumber":50,"Velocity":22,"Duration":114828,"SoundDuration":114828,"Delta":102382042},{"NoteNumber":52,"Velocity":25,"Duration":114828,"SoundDuration":114828,"Delta":102496871},{"NoteNumber":53,"Velocity":30,"Duration":114167,"SoundDuration":114167,"Delta":102611699},{"NoteNumber":56,"Velocity":34,"Duration":114528,"SoundDuration":114528,"Delta":102725866},{"NoteNumber":60,"Velocity":39,"Duration":115282,"SoundDuration":115282,"Delta":102840395},{"NoteNumber":62,"Velocity":42,"Duration":116108,"SoundDuration":116108,"Delta":102955678},{"NoteNumber":64,"Velocity":48,"Duration":116179,"SoundDuration":116179,"Delta":103071786},{"NoteNumber":62,"Velocity":42,"Duration":115140,"SoundDuration":115140,"Delta":103187966},{"NoteNumber":60,"Velocity":40,"Duration":114449,"SoundDuration":114449,"Delta":103303106},{"NoteNumber":56,"Velocity":36,"Duration":114329,"SoundDuration":114329,"Delta":103417556},{"NoteNumber":53,"Velocity":33,"Duration":114329,"SoundDuration":114329,"Delta":103531885},{"NoteNumber":52,"Velocity":30,"Duration":114329,"SoundDuration":114329,"Delta":103646215},{"NoteNumber":50,"Velocity":26,"Duration":114329,"SoundDuration":114329,"Delta":103760544},{"NoteNumber":48,"Velocity":24,"Duration":114329,"SoundDuration":114329,"Delta":103874873},{"NoteNumber":41,"Velocity":21,"Duration":1848953,"SoundDuration":1848953,"Delta":103989202},{"NoteNumber":48,"Velocity":21,"Duration":114828,"SoundDuration":114828,"Delta":104121024},{"NoteNumber":50,"Velocity":22,"Duration":114828,"SoundDuration":114828,"Delta":104235852},{"NoteNumber":52,"Velocity":25,"Duration":114183,"SoundDuration":114183,"Delta":104350681},{"NoteNumber":53,"Velocity":31,"Duration":112866,"SoundDuration":112866,"Delta":104464865},{"NoteNumber":56,"Velocity":35,"Duration":113990,"SoundDuration":113990,"Delta":104577731},{"NoteNumber":60,"Velocity":39,"Duration":115220,"SoundDuration":115220,"Delta":104691721},{"NoteNumber":62,"Velocity":42,"Duration":116386,"SoundDuration":116386,"Delta":104806942},{"NoteNumber":64,"Velocity":48,"Duration":116755,"SoundDuration":116755,"Delta":104923328},{"NoteNumber":62,"Velocity":41,"Duration":115861,"SoundDuration":115861,"Delta":105040084},{"NoteNumber":60,"Velocity":40,"Duration":114955,"SoundDuration":114955,"Delta":105155945},{"NoteNumber":58,"Velocity":35,"Duration":113980,"SoundDuration":113980,"Delta":105270900},{"NoteNumber":56,"Velocity":33,"Duration":113318,"SoundDuration":113318,"Delta":105384881},{"NoteNumber":52,"Velocity":30,"Duration":113318,"SoundDuration":113318,"Delta":105498200},{"NoteNumber":50,"Velocity":26,"Duration":113318,"SoundDuration":113318,"Delta":105611518},{"NoteNumber":48,"Velocity":24,"Duration":113318,"SoundDuration":113318,"Delta":105724837},{"NoteNumber":40,"Velocity":28,"Duration":113318,"SoundDuration":113318,"Delta":105838156},{"NoteNumber":48,"Velocity":23,"Duration":113318,"SoundDuration":113318,"Delta":105951475},{"NoteNumber":52,"Velocity":26,"Duration":113318,"SoundDuration":113318,"Delta":106064793},{"NoteNumber":56,"Velocity":26,"Duration":121871,"SoundDuration":121871,"Delta":106178112},{"NoteNumber":48,"Velocity":35,"Duration":114828,"SoundDuration":114828,"Delta":106299984},{"NoteNumber":52,"Velocity":30,"Duration":114828,"SoundDuration":114828,"Delta":106414812},{"NoteNumber":56,"Velocity":31,"Duration":114828,"SoundDuration":114828,"Delta":106529641},{"NoteNumber":60,"Velocity":32,"Duration":122449,"SoundDuration":122449,"Delta":106644469},{"NoteNumber":52,"Velocity":42,"Duration":114828,"SoundDuration":114828,"Delta":106766918},{"NoteNumber":56,"Velocity":39,"Duration":114828,"SoundDuration":114828,"Delta":106881746},{"NoteNumber":60,"Velocity":43,"Duration":114828,"SoundDuration":114828,"Delta":106996574},{"NoteNumber":64,"Velocity":43,"Duration":123031,"SoundDuration":123031,"Delta":107111403},{"NoteNumber":56,"Velocity":49,"Duration":115009,"SoundDuration":115009,"Delta":107234434},{"NoteNumber":60,"Velocity":40,"Duration":115039,"SoundDuration":115039,"Delta":107349444},{"NoteNumber":64,"Velocity":47,"Duration":115648,"SoundDuration":115648,"Delta":107464483},{"NoteNumber":68,"Velocity":47,"Duration":117942,"SoundDuration":117942,"Delta":107580132},{"NoteNumber":56,"Velocity":52,"Duration":115110,"SoundDuration":115110,"Delta":107698075},{"NoteNumber":60,"Velocity":45,"Duration":115110,"SoundDuration":115110,"Delta":107813185},{"NoteNumber":64,"Velocity":50,"Duration":115110,"SoundDuration":115110,"Delta":107928295},{"NoteNumber":68,"Velocity":50,"Duration":117462,"SoundDuration":117462,"Delta":108043405},{"NoteNumber":60,"Velocity":55,"Duration":114828,"SoundDuration":114828,"Delta":108160868},{"NoteNumber":64,"Velocity":46,"Duration":114828,"SoundDuration":114828,"Delta":108275696},{"NoteNumber":68,"Velocity":55,"Duration":114828,"SoundDuration":114828,"Delta":108390524},{"NoteNumber":72,"Velocity":53,"Duration":122449,"SoundDuration":122449,"Delta":108505353},{"NoteNumber":64,"Velocity":67,"Duration":114828,"SoundDuration":114828,"Delta":108627802},{"NoteNumber":68,"Velocity":56,"Duration":114828,"SoundDuration":114828,"Delta":108742630},{"NoteNumber":72,"Velocity":65,"Duration":114828,"SoundDuration":114828,"Delta":108857458},{"NoteNumber":76,"Velocity":62,"Duration":123031,"SoundDuration":123031,"Delta":108972286},{"NoteNumber":68,"Velocity":71,"Duration":115009,"SoundDuration":115009,"Delta":109095318},{"NoteNumber":72,"Velocity":64,"Duration":115039,"SoundDuration":115039,"Delta":109210327},{"NoteNumber":76,"Velocity":68,"Duration":116252,"SoundDuration":116252,"Delta":109325367},{"NoteNumber":80,"Velocity":63,"Duration":119913,"SoundDuration":119913,"Delta":109441619},{"NoteNumber":72,"Velocity":79,"Duration":451422,"SoundDuration":451422,"Delta":109561533},{"NoteNumber":76,"Velocity":72,"Duration":114740,"SoundDuration":114740,"Delta":109676273},{"NoteNumber":79,"Velocity":68,"Duration":110971,"SoundDuration":110971,"Delta":109791013},{"NoteNumber":84,"Velocity":64,"Duration":110971,"SoundDuration":110971,"Delta":109901985},{"NoteNumber":72,"Velocity":71,"Duration":451432,"SoundDuration":451432,"Delta":110012956},{"NoteNumber":76,"Velocity":64,"Duration":112858,"SoundDuration":112858,"Delta":110125814},{"NoteNumber":79,"Velocity":68,"Duration":112858,"SoundDuration":112858,"Delta":110238672},{"NoteNumber":84,"Velocity":67,"Duration":112858,"SoundDuration":112858,"Delta":110351531},{"NoteNumber":74,"Velocity":74,"Duration":441468,"SoundDuration":441468,"Delta":110464389},{"NoteNumber":76,"Velocity":68,"Duration":110367,"SoundDuration":110367,"Delta":110574756},{"NoteNumber":79,"Velocity":68,"Duration":110367,"SoundDuration":110367,"Delta":110685123},{"NoteNumber":86,"Velocity":64,"Duration":110367,"SoundDuration":110367,"Delta":110795491},{"NoteNumber":72,"Velocity":71,"Duration":459011,"SoundDuration":459011,"Delta":110905858},{"NoteNumber":76,"Velocity":64,"Duration":110367,"SoundDuration":110367,"Delta":111016225},{"NoteNumber":79,"Velocity":68,"Duration":110367,"SoundDuration":110367,"Delta":111126592},{"NoteNumber":84,"Velocity":64,"Duration":127909,"SoundDuration":127909,"Delta":111236960},{"NoteNumber":77,"Velocity":63,"Duration":519124,"SoundDuration":519124,"Delta":111364870},{"NoteNumber":80,"Velocity":57,"Duration":139141,"SoundDuration":139141,"Delta":111506687},{"NoteNumber":84,"Velocity":54,"Duration":122048,"SoundDuration":122048,"Delta":111645829},{"NoteNumber":89,"Velocity":51,"Duration":116116,"SoundDuration":116116,"Delta":111767877},{"NoteNumber":75,"Velocity":57,"Duration":449376,"SoundDuration":449376,"Delta":111883994},{"NoteNumber":80,"Velocity":51,"Duration":112716,"SoundDuration":112716,"Delta":111997566},{"NoteNumber":84,"Velocity":54,"Duration":111976,"SoundDuration":111976,"Delta":112110282},{"NoteNumber":87,"Velocity":53,"Duration":111112,"SoundDuration":111112,"Delta":112222259},{"NoteNumber":74,"Velocity":58,"Duration":442250,"SoundDuration":442250,"Delta":112333371},{"NoteNumber":75,"Velocity":54,"Duration":110562,"SoundDuration":110562,"Delta":112443934},{"NoteNumber":80,"Velocity":54,"Duration":110562,"SoundDuration":110562,"Delta":112554496},{"NoteNumber":86,"Velocity":51,"Duration":110562,"SoundDuration":110562,"Delta":112665059},{"NoteNumber":72,"Velocity":57,"Duration":459597,"SoundDuration":459597,"Delta":112775621},{"NoteNumber":75,"Velocity":51,"Duration":110562,"SoundDuration":110562,"Delta":112886184},{"NoteNumber":80,"Velocity":54,"Duration":110562,"SoundDuration":110562,"Delta":112996746},{"NoteNumber":84,"Velocity":51,"Duration":127909,"SoundDuration":127909,"Delta":113107309},{"NoteNumber":74,"Velocity":63,"Duration":454901,"SoundDuration":454901,"Delta":113235219},{"NoteNumber":76,"Velocity":57,"Duration":115234,"SoundDuration":115234,"Delta":113350453},{"NoteNumber":79,"Velocity":54,"Duration":112216,"SoundDuration":112216,"Delta":113465687},{"NoteNumber":86,"Velocity":51,"Duration":112216,"SoundDuration":112216,"Delta":113577903},{"NoteNumber":72,"Velocity":57,"Duration":447725,"SoundDuration":447725,"Delta":113690120},{"NoteNumber":76,"Velocity":51,"Duration":112420,"SoundDuration":112420,"Delta":113802337},{"NoteNumber":79,"Velocity":54,"Duration":111976,"SoundDuration":111976,"Delta":113914757},{"NoteNumber":84,"Velocity":53,"Duration":111112,"SoundDuration":111112,"Delta":114026734},{"NoteNumber":71,"Velocity":58,"Duration":442250,"SoundDuration":442250,"Delta":114137846},{"NoteNumber":72,"Velocity":54,"Duration":110562,"SoundDuration":110562,"Delta":114248409},{"NoteNumber":76,"Velocity":54,"Duration":110562,"SoundDuration":110562,"Delta":114358971},{"NoteNumber":83,"Velocity":51,"Duration":110562,"SoundDuration":110562,"Delta":114469534},{"NoteNumber":69,"Velocity":57,"Duration":442250,"SoundDuration":442250,"Delta":114580096},{"NoteNumber":72,"Velocity":51,"Duration":110562,"SoundDuration":110562,"Delta":114690659},{"NoteNumber":76,"Velocity":54,"Duration":110562,"SoundDuration":110562,"Delta":114801221},{"NoteNumber":81,"Velocity":51,"Duration":110562,"SoundDuration":110562,"Delta":114911784},{"NoteNumber":67,"Velocity":63,"Duration":431939,"SoundDuration":431939,"Delta":115022346},{"NoteNumber":69,"Velocity":57,"Duration":107596,"SoundDuration":107596,"Delta":115129942},{"NoteNumber":72,"Velocity":53,"Duration":108373,"SoundDuration":108373,"Delta":115237539},{"NoteNumber":79,"Velocity":49,"Duration":108373,"SoundDuration":108373,"Delta":115345912},{"NoteNumber":65,"Velocity":55,"Duration":441629,"SoundDuration":441629,"Delta":115454286},{"NoteNumber":69,"Velocity":48,"Duration":111145,"SoundDuration":111145,"Delta":115562660},{"NoteNumber":72,"Velocity":51,"Duration":110997,"SoundDuration":110997,"Delta":115673805},{"NoteNumber":77,"Velocity":49,"Duration":111112,"SoundDuration":111112,"Delta":115784803},{"NoteNumber":64,"Velocity":54,"Duration":442250,"SoundDuration":442250,"Delta":115895916},{"NoteNumber":65,"Velocity":49,"Duration":110562,"SoundDuration":110562,"Delta":116006478},{"NoteNumber":68,"Velocity":48,"Duration":110562,"SoundDuration":110562,"Delta":116117041},{"NoteNumber":76,"Velocity":45,"Duration":110562,"SoundDuration":110562,"Delta":116227603},{"NoteNumber":62,"Velocity":50,"Duration":473504,"SoundDuration":473504,"Delta":116338166},{"NoteNumber":65,"Velocity":44,"Duration":110562,"SoundDuration":110562,"Delta":116448728},{"NoteNumber":68,"Velocity":46,"Duration":110562,"SoundDuration":110562,"Delta":116559291},{"NoteNumber":74,"Velocity":43,"Duration":141817,"SoundDuration":141817,"Delta":116669853},{"NoteNumber":62,"Velocity":48,"Duration":439362,"SoundDuration":439362,"Delta":116811670},{"NoteNumber":64,"Velocity":45,"Duration":108766,"SoundDuration":108766,"Delta":116920437},{"NoteNumber":67,"Velocity":48,"Duration":108766,"SoundDuration":108766,"Delta":117029203},{"NoteNumber":74,"Velocity":45,"Duration":113062,"SoundDuration":113062,"Delta":117137970},{"NoteNumber":60,"Velocity":63,"Duration":442076,"SoundDuration":442076,"Delta":117251032},{"NoteNumber":64,"Velocity":57,"Duration":110971,"SoundDuration":110971,"Delta":117362004},{"NoteNumber":67,"Velocity":61,"Duration":110971,"SoundDuration":110971,"Delta":117472975},{"NoteNumber":72,"Velocity":60,"Duration":109162,"SoundDuration":109162,"Delta":117583946},{"NoteNumber":62,"Velocity":66,"Duration":436649,"SoundDuration":436649,"Delta":117693108},{"NoteNumber":64,"Velocity":61,"Duration":109162,"SoundDuration":109162,"Delta":117802271},{"NoteNumber":67,"Velocity":61,"Duration":109162,"SoundDuration":109162,"Delta":117911433},{"NoteNumber":74,"Velocity":57,"Duration":109162,"SoundDuration":109162,"Delta":118020595},{"NoteNumber":60,"Velocity":63,"Duration":440977,"SoundDuration":440977,"Delta":118129757},{"NoteNumber":64,"Velocity":57,"Duration":109162,"SoundDuration":109162,"Delta":118238920},{"NoteNumber":67,"Velocity":61,"Duration":109162,"SoundDuration":109162,"Delta":118348082},{"NoteNumber":72,"Velocity":57,"Duration":113490,"SoundDuration":113490,"Delta":118457244},{"NoteNumber":65,"Velocity":63,"Duration":447193,"SoundDuration":447193,"Delta":118570734},{"NoteNumber":68,"Velocity":57,"Duration":111798,"SoundDuration":111798,"Delta":118682533},{"NoteNumber":72,"Velocity":61,"Duration":111798,"SoundDuration":111798,"Delta":118794331},{"NoteNumber":77,"Velocity":60,"Duration":111798,"SoundDuration":111798,"Delta":118901471},{"NoteNumber":63,"Velocity":63,"Duration":443884,"SoundDuration":443884,"Delta":119017928},{"NoteNumber":68,"Velocity":57,"Duration":110971,"SoundDuration":110971,"Delta":119128900},{"NoteNumber":72,"Velocity":61,"Duration":110971,"SoundDuration":110971,"Delta":119239871},{"NoteNumber":75,"Velocity":60,"Duration":110971,"SoundDuration":110971,"Delta":119350842},{"NoteNumber":62,"Velocity":66,"Duration":431933,"SoundDuration":431933,"Delta":119461813},{"NoteNumber":63,"Velocity":61,"Duration":107983,"SoundDuration":107983,"Delta":119569797},{"NoteNumber":68,"Velocity":61,"Duration":107983,"SoundDuration":107983,"Delta":119677780},{"NoteNumber":74,"Velocity":57,"Duration":107983,"SoundDuration":107983,"Delta":119785764},{"NoteNumber":60,"Velocity":63,"Duration":448153,"SoundDuration":448153,"Delta":119893747},{"NoteNumber":63,"Velocity":57,"Duration":107983,"SoundDuration":107983,"Delta":120001731},{"NoteNumber":68,"Velocity":61,"Duration":107983,"SoundDuration":107983,"Delta":120109714},{"NoteNumber":72,"Velocity":57,"Duration":124202,"SoundDuration":124202,"Delta":120217698},{"NoteNumber":62,"Velocity":63,"Duration":439850,"SoundDuration":439850,"Delta":120341901},{"NoteNumber":64,"Velocity":57,"Duration":109962,"SoundDuration":109962,"Delta":120451863},{"NoteNumber":67,"Velocity":61,"Duration":109962,"SoundDuration":109962,"Delta":120561826},{"NoteNumber":74,"Velocity":60,"Duration":109962,"SoundDuration":109962,"Delta":120671788},{"NoteNumber":60,"Velocity":63,"Duration":433494,"SoundDuration":433494,"Delta":120781751},{"NoteNumber":64,"Velocity":57,"Duration":108373,"SoundDuration":108373,"Delta":120890125},{"NoteNumber":67,"Velocity":61,"Duration":108373,"SoundDuration":108373,"Delta":120998498},{"NoteNumber":72,"Velocity":60,"Duration":108373,"SoundDuration":108373,"Delta":121106872},{"NoteNumber":59,"Velocity":66,"Duration":433495,"SoundDuration":433495,"Delta":121215246},{"NoteNumber":60,"Velocity":61,"Duration":108373,"SoundDuration":108373,"Delta":121323620},{"NoteNumber":64,"Velocity":61,"Duration":108373,"SoundDuration":108373,"Delta":121425671},{"NoteNumber":71,"Velocity":57,"Duration":108373,"SoundDuration":108373,"Delta":121540367},{"NoteNumber":57,"Velocity":63,"Duration":440355,"SoundDuration":440355,"Delta":121648741},{"NoteNumber":60,"Velocity":57,"Duration":108373,"SoundDuration":108373,"Delta":121757115},{"NoteNumber":64,"Velocity":61,"Duration":108373,"SoundDuration":108373,"Delta":121859166},{"NoteNumber":69,"Velocity":57,"Duration":115234,"SoundDuration":115234,"Delta":121973862},{"NoteNumber":55,"Velocity":59,"Duration":443099,"SoundDuration":443099,"Delta":122089096},{"NoteNumber":57,"Velocity":53,"Duration":110774,"SoundDuration":110774,"Delta":122199871},{"NoteNumber":60,"Velocity":56,"Duration":110774,"SoundDuration":110774,"Delta":122310646},{"NoteNumber":67,"Velocity":55,"Duration":110774,"SoundDuration":110774,"Delta":122421420},{"NoteNumber":53,"Velocity":56,"Duration":438243,"SoundDuration":438243,"Delta":122532195},{"NoteNumber":57,"Velocity":50,"Duration":109560,"SoundDuration":109560,"Delta":122641756},{"NoteNumber":60,"Velocity":53,"Duration":109560,"SoundDuration":109560,"Delta":122751317},{"NoteNumber":65,"Velocity":52,"Duration":109560,"SoundDuration":109560,"Delta":122860878},{"NoteNumber":52,"Velocity":56,"Duration":438243,"SoundDuration":438243,"Delta":122970439},{"NoteNumber":53,"Velocity":51,"Duration":109560,"SoundDuration":109560,"Delta":123080000},{"NoteNumber":56,"Velocity":50,"Duration":109560,"SoundDuration":109560,"Delta":123189561},{"NoteNumber":64,"Velocity":46,"Duration":109560,"SoundDuration":109560,"Delta":123299122},{"NoteNumber":50,"Velocity":50,"Duration":443917,"SoundDuration":443917,"Delta":123408683},{"NoteNumber":53,"Velocity":45,"Duration":109560,"SoundDuration":109560,"Delta":123518244},{"NoteNumber":56,"Velocity":47,"Duration":109561,"SoundDuration":109561,"Delta":123627805},{"NoteNumber":62,"Velocity":43,"Duration":115234,"SoundDuration":115234,"Delta":123737366},{"NoteNumber":50,"Velocity":66,"Duration":435066,"SoundDuration":435066,"Delta":123852600},{"NoteNumber":52,"Velocity":59,"Duration":108766,"SoundDuration":108766,"Delta":123961367},{"NoteNumber":55,"Velocity":56,"Duration":108766,"SoundDuration":108766,"Delta":124070133},{"NoteNumber":62,"Velocity":51,"Duration":108766,"SoundDuration":108766,"Delta":124178900},{"NoteNumber":48,"Velocity":55,"Duration":448147,"SoundDuration":448147,"Delta":124287666},{"NoteNumber":52,"Velocity":48,"Duration":110971,"SoundDuration":110971,"Delta":124398637},{"NoteNumber":55,"Velocity":53,"Duration":110971,"SoundDuration":110971,"Delta":124509609},{"NoteNumber":60,"Velocity":48,"Duration":115234,"SoundDuration":115234,"Delta":124620580},{"NoteNumber":50,"Velocity":61,"Duration":435066,"SoundDuration":435066,"Delta":124735814},{"NoteNumber":41,"Velocity":61,"Duration":882260,"SoundDuration":882260,"Delta":124735814},{"NoteNumber":53,"Velocity":46,"Duration":108766,"SoundDuration":108766,"Delta":124844580},{"NoteNumber":57,"Velocity":48,"Duration":108766,"SoundDuration":108766,"Delta":124953347},{"NoteNumber":62,"Velocity":50,"Duration":108766,"SoundDuration":108766,"Delta":125062113},{"NoteNumber":48,"Velocity":55,"Duration":447193,"SoundDuration":447193,"Delta":125170880},{"NoteNumber":53,"Velocity":56,"Duration":111798,"SoundDuration":111798,"Delta":125282678},{"NoteNumber":57,"Velocity":60,"Duration":111798,"SoundDuration":111798,"Delta":125394477},{"NoteNumber":60,"Velocity":63,"Duration":111798,"SoundDuration":111798,"Delta":125506275},{"NoteNumber":62,"Velocity":66,"Duration":439014,"SoundDuration":439014,"Delta":125618074},{"NoteNumber":64,"Velocity":59,"Duration":109753,"SoundDuration":109753,"Delta":125727827},{"NoteNumber":67,"Velocity":56,"Duration":109753,"SoundDuration":109753,"Delta":125837581},{"NoteNumber":74,"Velocity":51,"Duration":109753,"SoundDuration":109753,"Delta":125947334},{"NoteNumber":60,"Velocity":55,"Duration":448147,"SoundDuration":448147,"Delta":126057088},{"NoteNumber":64,"Velocity":48,"Duration":110971,"SoundDuration":110971,"Delta":126168059},{"NoteNumber":67,"Velocity":53,"Duration":110971,"SoundDuration":110971,"Delta":126279030},{"NoteNumber":72,"Velocity":48,"Duration":115234,"SoundDuration":115234,"Delta":126390002},{"NoteNumber":53,"Velocity":57,"Duration":887819,"SoundDuration":887819,"Delta":126505236},{"NoteNumber":62,"Velocity":66,"Duration":440625,"SoundDuration":440625,"Delta":126505236},{"NoteNumber":65,"Velocity":47,"Duration":110156,"SoundDuration":110156,"Delta":126615392},{"NoteNumber":69,"Velocity":50,"Duration":110156,"SoundDuration":110156,"Delta":126725549},{"NoteNumber":74,"Velocity":54,"Duration":110156,"SoundDuration":110156,"Delta":126835705},{"NoteNumber":60,"Velocity":55,"Duration":447193,"SoundDuration":447193,"Delta":126945862},{"NoteNumber":65,"Velocity":57,"Duration":111798,"SoundDuration":111798,"Delta":127057660},{"NoteNumber":69,"Velocity":61,"Duration":111798,"SoundDuration":111798,"Delta":127169459},{"NoteNumber":72,"Velocity":62,"Duration":111798,"SoundDuration":111798,"Delta":127281257},{"NoteNumber":60,"Velocity":57,"Duration":873307,"SoundDuration":873307,"Delta":127393056},{"NoteNumber":67,"Velocity":55,"Duration":432681,"SoundDuration":432681,"Delta":127393056},{"NoteNumber":76,"Velocity":50,"Duration":108170,"SoundDuration":108170,"Delta":127501226},{"NoteNumber":72,"Velocity":57,"Duration":108170,"SoundDuration":108170,"Delta":127609397},{"NoteNumber":64,"Velocity":61,"Duration":108170,"SoundDuration":108170,"Delta":127717567},{"NoteNumber":69,"Velocity":61,"Duration":220312,"SoundDuration":220312,"Delta":127825738},{"NoteNumber":76,"Velocity":55,"Duration":110156,"SoundDuration":110156,"Delta":127935894},{"NoteNumber":71,"Velocity":62,"Duration":220313,"SoundDuration":220313,"Delta":128046051},{"NoteNumber":64,"Velocity":54,"Duration":110156,"SoundDuration":110156,"Delta":128156207},{"NoteNumber":60,"Velocity":57,"Duration":868506,"SoundDuration":868506,"Delta":128266364},{"NoteNumber":67,"Velocity":55,"Duration":432681,"SoundDuration":432681,"Delta":128266364},{"NoteNumber":76,"Velocity":50,"Duration":108170,"SoundDuration":108170,"Delta":128374534},{"NoteNumber":72,"Velocity":57,"Duration":108170,"SoundDuration":108170,"Delta":128482705},{"NoteNumber":64,"Velocity":61,"Duration":108170,"SoundDuration":108170,"Delta":128590875},{"NoteNumber":69,"Velocity":61,"Duration":217912,"SoundDuration":217912,"Delta":128699046},{"NoteNumber":76,"Velocity":55,"Duration":108956,"SoundDuration":108956,"Delta":128808002},{"NoteNumber":71,"Velocity":62,"Duration":217912,"SoundDuration":217912,"Delta":128916958},{"NoteNumber":64,"Velocity":54,"Duration":108956,"SoundDuration":108956,"Delta":129025914},{"NoteNumber":60,"Velocity":47,"Duration":432681,"SoundDuration":432681,"Delta":129134871},{"NoteNumber":67,"Velocity":56,"Duration":432681,"SoundDuration":432681,"Delta":129134871},{"NoteNumber":76,"Velocity":55,"Duration":108170,"SoundDuration":108170,"Delta":129243041},{"NoteNumber":72,"Velocity":50,"Duration":108170,"SoundDuration":108170,"Delta":129351212},{"NoteNumber":64,"Velocity":50,"Duration":108170,"SoundDuration":108170,"Delta":129459382},{"NoteNumber":63,"Velocity":51,"Duration":428052,"SoundDuration":428052,"Delta":129567553},{"NoteNumber":70,"Velocity":61,"Duration":428052,"SoundDuration":428052,"Delta":129567553},{"NoteNumber":79,"Velocity":59,"Duration":107012,"SoundDuration":107012,"Delta":129674566},{"NoteNumber":75,"Velocity":50,"Duration":107013,"SoundDuration":107013,"Delta":129781579},{"NoteNumber":67,"Velocity":55,"Duration":107012,"SoundDuration":107012,"Delta":129888592},{"NoteNumber":73,"Velocity":64,"Duration":421319,"SoundDuration":421319,"Delta":129995605},{"NoteNumber":66,"Velocity":54,"Duration":421319,"SoundDuration":421319,"Delta":129995605},{"NoteNumber":82,"Velocity":61,"Duration":105329,"SoundDuration":105329,"Delta":130100934},{"NoteNumber":78,"Velocity":56,"Duration":105329,"SoundDuration":105329,"Delta":130206264},{"NoteNumber":70,"Velocity":55,"Duration":105329,"SoundDuration":105329,"Delta":130311594},{"NoteNumber":67,"Velocity":56,"Duration":431667,"SoundDuration":431667,"Delta":130416924},{"NoteNumber":74,"Velocity":67,"Duration":431667,"SoundDuration":431667,"Delta":130416924},{"NoteNumber":83,"Velocity":64,"Duration":105329,"SoundDuration":105329,"Delta":130522253},{"NoteNumber":79,"Velocity":55,"Duration":105329,"SoundDuration":105329,"Delta":130627583},{"NoteNumber":71,"Velocity":55,"Duration":115678,"SoundDuration":115678,"Delta":130732913},{"NoteNumber":60,"Velocity":57,"Duration":873308,"SoundDuration":873308,"Delta":130848591},{"NoteNumber":67,"Velocity":55,"Duration":432681,"SoundDuration":432681,"Delta":130848591},{"NoteNumber":76,"Velocity":50,"Duration":108170,"SoundDuration":108170,"Delta":130956762},{"NoteNumber":72,"Velocity":57,"Duration":108170,"SoundDuration":108170,"Delta":131064932},{"NoteNumber":64,"Velocity":61,"Duration":108170,"SoundDuration":108170,"Delta":131173103},{"NoteNumber":69,"Velocity":61,"Duration":220313,"SoundDuration":220313,"Delta":131281273},{"NoteNumber":76,"Velocity":55,"Duration":110156,"SoundDuration":110156,"Delta":131391430},{"NoteNumber":71,"Velocity":62,"Duration":220313,"SoundDuration":220313,"Delta":131501586},{"NoteNumber":64,"Velocity":54,"Duration":110156,"SoundDuration":110156,"Delta":131611743},{"NoteNumber":60,"Velocity":57,"Duration":868506,"SoundDuration":868506,"Delta":131721899},{"NoteNumber":67,"Velocity":55,"Duration":432681,"SoundDuration":432681,"Delta":131721899},{"NoteNumber":76,"Velocity":50,"Duration":108170,"SoundDuration":108170,"Delta":131830070},{"NoteNumber":72,"Velocity":57,"Duration":108170,"SoundDuration":108170,"Delta":131938240},{"NoteNumber":64,"Velocity":61,"Duration":108170,"SoundDuration":108170,"Delta":132046411},{"NoteNumber":69,"Velocity":61,"Duration":217912,"SoundDuration":217912,"Delta":132154581},{"NoteNumber":76,"Velocity":55,"Duration":108956,"SoundDuration":108956,"Delta":132263537},{"NoteNumber":71,"Velocity":62,"Duration":217912,"SoundDuration":217912,"Delta":132372494},{"NoteNumber":64,"Velocity":54,"Duration":108956,"SoundDuration":108956,"Delta":132481450},{"NoteNumber":60,"Velocity":47,"Duration":432681,"SoundDuration":432681,"Delta":132590406},{"NoteNumber":67,"Velocity":56,"Duration":432681,"SoundDuration":432681,"Delta":132590406},{"NoteNumber":76,"Velocity":55,"Duration":108170,"SoundDuration":108170,"Delta":132698577},{"NoteNumber":72,"Velocity":50,"Duration":108170,"SoundDuration":108170,"Delta":132806747},{"NoteNumber":64,"Velocity":50,"Duration":108170,"SoundDuration":108170,"Delta":132914918},{"NoteNumber":63,"Velocity":51,"Duration":428052,"SoundDuration":428052,"Delta":133023088},{"NoteNumber":70,"Velocity":61,"Duration":428052,"SoundDuration":428052,"Delta":133023088},{"NoteNumber":79,"Velocity":59,"Duration":107012,"SoundDuration":107012,"Delta":133130101},{"NoteNumber":75,"Velocity":50,"Duration":107013,"SoundDuration":107013,"Delta":133237114},{"NoteNumber":67,"Velocity":55,"Duration":107012,"SoundDuration":107012,"Delta":133344127},{"NoteNumber":73,"Velocity":64,"Duration":422802,"SoundDuration":422802,"Delta":133451140},{"NoteNumber":66,"Velocity":54,"Duration":422802,"SoundDuration":422802,"Delta":133451140},{"NoteNumber":82,"Velocity":61,"Duration":105700,"SoundDuration":105700,"Delta":133556841},{"NoteNumber":78,"Velocity":56,"Duration":105700,"SoundDuration":105700,"Delta":133662542},{"NoteNumber":70,"Velocity":55,"Duration":105700,"SoundDuration":105700,"Delta":133768242},{"NoteNumber":67,"Velocity":56,"Duration":432780,"SoundDuration":432780,"Delta":133873943},{"NoteNumber":74,"Velocity":67,"Duration":432780,"SoundDuration":432780,"Delta":133873943},{"NoteNumber":83,"Velocity":64,"Duration":105700,"SoundDuration":105700,"Delta":133979644},{"NoteNumber":79,"Velocity":55,"Duration":105700,"SoundDuration":105700,"Delta":134085345},{"NoteNumber":71,"Velocity":55,"Duration":115678,"SoundDuration":115678,"Delta":134191045},{"NoteNumber":79,"Velocity":70,"Duration":832349,"SoundDuration":832349,"Delta":134306724},{"NoteNumber":88,"Velocity":73,"Duration":104043,"SoundDuration":104043,"Delta":134410767},{"NoteNumber":84,"Velocity":59,"Duration":104043,"SoundDuration":104043,"Delta":134514811},{"NoteNumber":76,"Velocity":59,"Duration":104043,"SoundDuration":104043,"Delta":134618855},{"NoteNumber":72,"Velocity":65,"Duration":416174,"SoundDuration":416174,"Delta":134722899},{"NoteNumber":88,"Velocity":72,"Duration":104043,"SoundDuration":104043,"Delta":134826942},{"NoteNumber":84,"Velocity":60,"Duration":104043,"SoundDuration":104043,"Delta":134930986},{"NoteNumber":76,"Velocity":60,"Duration":104043,"SoundDuration":104043,"Delta":135035030},{"NoteNumber":67,"Velocity":67,"Duration":832350,"SoundDuration":832350,"Delta":135139074},{"NoteNumber":76,"Velocity":71,"Duration":104043,"SoundDuration":104043,"Delta":135243117},{"NoteNumber":72,"Velocity":58,"Duration":104043,"SoundDuration":104043,"Delta":135347161},{"NoteNumber":64,"Velocity":58,"Duration":104043,"SoundDuration":104043,"Delta":135451205},{"NoteNumber":60,"Velocity":64,"Duration":416175,"SoundDuration":416175,"Delta":135555249},{"NoteNumber":76,"Velocity":71,"Duration":104043,"SoundDuration":104043,"Delta":135659292},{"NoteNumber":72,"Velocity":59,"Duration":104043,"SoundDuration":104043,"Delta":135763336},{"NoteNumber":64,"Velocity":59,"Duration":104043,"SoundDuration":104043,"Delta":135867380},{"NoteNumber":55,"Velocity":70,"Duration":416503,"SoundDuration":416503,"Delta":135971424},{"NoteNumber":64,"Velocity":73,"Duration":104152,"SoundDuration":104152,"Delta":136076420},{"NoteNumber":60,"Velocity":60,"Duration":103834,"SoundDuration":103834,"Delta":136180572},{"NoteNumber":52,"Velocity":60,"Duration":103520,"SoundDuration":103520,"Delta":136284406},{"NoteNumber":48,"Velocity":66,"Duration":410955,"SoundDuration":410955,"Delta":136387927},{"NoteNumber":64,"Velocity":73,"Duration":102893,"SoundDuration":102893,"Delta":136491133},{"NoteNumber":60,"Velocity":61,"Duration":102585,"SoundDuration":102585,"Delta":136594026},{"NoteNumber":52,"Velocity":61,"Duration":102270,"SoundDuration":102270,"Delta":136696611},{"NoteNumber":43,"Velocity":73,"Duration":406209,"SoundDuration":406209,"Delta":136798882},{"NoteNumber":64,"Velocity":76,"Duration":101626,"SoundDuration":101626,"Delta":136900810},{"NoteNumber":60,"Velocity":62,"Duration":101323,"SoundDuration":101323,"Delta":137002437},{"NoteNumber":52,"Velocity":62,"Duration":101330,"SoundDuration":101330,"Delta":137103761},{"NoteNumber":36,"Velocity":68,"Duration":571694,"SoundDuration":571694,"Delta":137205091},{"NoteNumber":64,"Velocity":75,"Duration":104214,"SoundDuration":104214,"Delta":137307836},{"NoteNumber":60,"Velocity":63,"Duration":105533,"SoundDuration":105533,"Delta":137412051},{"NoteNumber":52,"Velocity":63,"Duration":259201,"SoundDuration":259201,"Delta":137517584},{"NoteNumber":52,"Velocity":85,"Duration":2550114,"SoundDuration":2550114,"Delta":137776786},{"NoteNumber":48,"Velocity":72,"Duration":2550114,"SoundDuration":2550114,"Delta":137776786},{"NoteNumber":41,"Velocity":64,"Duration":3504996,"SoundDuration":3504996,"Delta":137776786},{"NoteNumber":45,"Velocity":76,"Duration":3504996,"SoundDuration":3504996,"Delta":137776786},{"NoteNumber":47,"Velocity":79,"Duration":954881,"SoundDuration":954881,"Delta":140326900},{"NoteNumber":50,"Velocity":79,"Duration":954881,"SoundDuration":954881,"Delta":140326900},{"NoteNumber":52,"Velocity":81,"Duration":238720,"SoundDuration":238720,"Delta":141281782},{"NoteNumber":48,"Velocity":81,"Duration":238720,"SoundDuration":238720,"Delta":141281782},{"NoteNumber":43,"Velocity":61,"Duration":238720,"SoundDuration":238720,"Delta":141281782},{"NoteNumber":36,"Velocity":61,"Duration":238720,"SoundDuration":238720,"Delta":141281782},{"NoteNumber":24,"Velocity":69,"Duration":238720,"SoundDuration":238720,"Delta":143190551},{"NoteNumber":36,"Velocity":92,"Duration":238720,"SoundDuration":238720,"Delta":143191546}],"license":{"name":"Creative Commons Attribution-ShareAlike 3.0 Germany","url":"http://creativecommons.org/licenses/by-sa/3.0/de/deed.en","text":"The MIDI, audio (MP3, OGG) and video files of Bernd Krueger are licensed under the cc-by-sa Germany License. This means that you can use and adapt the files, as long as you attribute the copyright holder.\n\nName: Bernd Krueger\nSource: http://www.piano-midi.de\n\nThe distribution or public playback of the files is only allowed under identical license conditions.\n\nThe scores are open source.","attribution":"MIDI files by Bernd Krueger (piano-midi.de)"}}