{"title":"Children's Corner No. 6: Golliwogg's Cakewalk","artist":"Debussy","durationMs":142959,"midiSha256":"d5c3c0cc24d1bcf8389a0a4032834c2cd8e6ddb06f5c788d2616c6bf654d66bf","midiObject":[{"NoteNumber":82,"Velocity":80,"Duration":132931,"SoundDuration":132931,"Delta":0},{"NoteNumber":70,"Velocity":68,"Duration":132931,"SoundDuration":132931,"Delta":0},{"NoteNumber":80,"Velocity":74,"Duration":132931,"SoundDuration":132931,"Delta":132931},{"NoteNumber":68,"Velocity":62,"Duration":132931,"SoundDuration":132931,"Delta":132931},{"NoteNumber":82,"Velocity":74,"Duration":132931,"SoundDuration":132931,"Delta":398794},{"NoteNumber":70,"Velocity":62,"Duration":132931,"SoundDuration":132931,"Delta":398794},{"NoteNumber":77,"Velocity":76,"Duration":139925,"SoundDuration":139925,"Delta":531726},{"NoteNumber":65,"Velocity":64,"Duration":139925,"SoundDuration":139925,"Delta":531726},{"NoteNumber":82,"Velocity":80,"Duration":99698,"SoundDuration":99698,"Delta":811576},{"NoteNumber":70,"Velocity":68,"Duration":99698,"SoundDuration":99698,"Delta":811576},{"NoteNumber":80,"Velocity":80,"Duration":132931,"SoundDuration":132931,"Delta":1077439},{"NoteNumber":68,"Velocity":68,"Duration":132931,"SoundDuration":132931,"Delta":1077439},{"NoteNumber":77,"Velocity":80,"Duration":132931,"SoundDuration":132931,"Delta":1210371},{"NoteNumber":65,"Velocity":68,"Duration":132931,"SoundDuration":132931,"Delta":1210371},{"NoteNumber":75,"Velocity":74,"Duration":138708,"SoundDuration":138708,"Delta":1482011},{"NoteNumber":63,"Velocity":62,"Duration":138708,"SoundDuration":138708,"Delta":1482011},{"NoteNumber":71,"Velocity":80,"Duration":529520,"SoundDuration":529520,"Delta":1620720},{"NoteNumber":59,"Velocity":68,"Duration":529520,"SoundDuration":529520,"Delta":1620720},{"NoteNumber":68,"Velocity":80,"Duration":129690,"SoundDuration":129690,"Delta":2282621},{"NoteNumber":56,"Velocity":65,"Duration":129690,"SoundDuration":129690,"Delta":2282621},{"NoteNumber":65,"Velocity":79,"Duration":129690,"SoundDuration":129690,"Delta":2412312},{"NoteNumber":53,"Velocity":65,"Duration":129690,"SoundDuration":129690,"Delta":2412312},{"NoteNumber":63,"Velocity":84,"Duration":129690,"SoundDuration":129690,"Delta":2542002},{"NoteNumber":51,"Velocity":67,"Duration":129690,"SoundDuration":129690,"Delta":2542002},{"NoteNumber":59,"Velocity":86,"Duration":529520,"SoundDuration":529520,"Delta":2671693},{"NoteNumber":47,"Velocity":71,"Duration":529520,"SoundDuration":529520,"Delta":2671693},{"NoteNumber":56,"Velocity":80,"Duration":130219,"SoundDuration":130219,"Delta":3333594},{"NoteNumber":44,"Velocity":65,"Duration":130219,"SoundDuration":130219,"Delta":3333594},{"NoteNumber":53,"Velocity":79,"Duration":130219,"SoundDuration":130219,"Delta":3463814},{"NoteNumber":41,"Velocity":65,"Duration":130219,"SoundDuration":130219,"Delta":3463814},{"NoteNumber":51,"Velocity":84,"Duration":130219,"SoundDuration":130219,"Delta":3594034},{"NoteNumber":39,"Velocity":67,"Duration":130219,"SoundDuration":130219,"Delta":3594034},{"NoteNumber":47,"Velocity":86,"Duration":278629,"SoundDuration":278629,"Delta":3724253},{"NoteNumber":35,"Velocity":71,"Duration":278629,"SoundDuration":278629,"Delta":3724253},{"NoteNumber":55,"Velocity":97,"Duration":262582,"SoundDuration":262582,"Delta":4002882},{"NoteNumber":50,"Velocity":82,"Duration":262582,"SoundDuration":262582,"Delta":4002882},{"NoteNumber":46,"Velocity":78,"Duration":262582,"SoundDuration":262582,"Delta":4002882},{"NoteNumber":34,"Velocity":66,"Duration":262582,"SoundDuration":262582,"Delta":4002882},{"NoteNumber":39,"Velocity":40,"Duration":98874,"SoundDuration":98874,"Delta":5315792},{"NoteNumber":46,"Velocity":40,"Duration":98874,"SoundDuration":98874,"Delta":5315792},{"NoteNumber":51,"Velocity":40,"Duration":98874,"SoundDuration":98874,"Delta":5579459},{"NoteNumber":58,"Velocity":40,"Duration":98874,"SoundDuration":98874,"Delta":5579459},{"NoteNumber":55,"Velocity":33,"Duration":98874,"SoundDuration":98874,"Delta":5579459},{"NoteNumber":53,"Velocity":33,"Duration":98874,"SoundDuration":98874,"Delta":5579459},{"NoteNumber":39,"Velocity":40,"Duration":100725,"SoundDuration":100725,"Delta":5843125},{"NoteNumber":46,"Velocity":40,"Duration":100725,"SoundDuration":100725,"Delta":5843125},{"NoteNumber":58,"Velocity":57,"Duration":57830,"SoundDuration":57830,"Delta":6111726},{"NoteNumber":51,"Velocity":50,"Duration":57830,"SoundDuration":57830,"Delta":6111726},{"NoteNumber":55,"Velocity":35,"Duration":86745,"SoundDuration":86745,"Delta":6111726},{"NoteNumber":53,"Velocity":35,"Duration":86745,"SoundDuration":86745,"Delta":6111726},{"NoteNumber":58,"Velocity":64,"Duration":57830,"SoundDuration":57830,"Delta":6227386},{"NoteNumber":51,"Velocity":56,"Duration":57830,"SoundDuration":57830,"Delta":6227386},{"NoteNumber":39,"Velocity":40,"Duration":98874,"SoundDuration":98874,"Delta":6343047},{"NoteNumber":46,"Velocity":40,"Duration":98874,"SoundDuration":98874,"Delta":6343047},{"NoteNumber":51,"Velocity":40,"Duration":98874,"SoundDuration":98874,"Delta":6606713},{"NoteNumber":58,"Velocity":40,"Duration":98874,"SoundDuration":98874,"Delta":6606713},{"NoteNumber":55,"Velocity":33,"Duration":98874,"SoundDuration":98874,"Delta":6606713},{"NoteNumber":53,"Velocity":33,"Duration":98874,"SoundDuration":98874,"Delta":6606713},{"NoteNumber":39,"Velocity":40,"Duration":98874,"SoundDuration":98874,"Delta":6870380},{"NoteNumber":46,"Velocity":40,"Duration":98874,"SoundDuration":98874,"Delta":6870380},{"NoteNumber":51,"Velocity":40,"Duration":98874,"SoundDuration":98874,"Delta":7134046},{"NoteNumber":58,"Velocity":40,"Duration":98874,"SoundDuration":98874,"Delta":7134046},{"NoteNumber":55,"Velocity":33,"Duration":98874,"SoundDuration":98874,"Delta":7134046},{"NoteNumber":53,"Velocity":33,"Duration":98874,"SoundDuration":98874,"Delta":7134046},{"NoteNumber":39,"Velocity":40,"Duration":101178,"SoundDuration":101178,"Delta":7397713},{"NoteNumber":46,"Velocity":40,"Duration":101178,"SoundDuration":101178,"Delta":7397713},{"NoteNumber":58,"Velocity":57,"Duration":57608,"SoundDuration":57608,"Delta":7667521},{"NoteNumber":51,"Velocity":50,"Duration":57608,"SoundDuration":57608,"Delta":7667521},{"NoteNumber":55,"Velocity":35,"Duration":86412,"SoundDuration":86412,"Delta":7667521},{"NoteNumber":53,"Velocity":35,"Duration":86412,"SoundDuration":86412,"Delta":7667521},{"NoteNumber":58,"Velocity":64,"Duration":57608,"SoundDuration":57608,"Delta":7782738},{"NoteNumber":51,"Velocity":56,"Duration":57608,"SoundDuration":57608,"Delta":7782738},{"NoteNumber":39,"Velocity":40,"Duration":99285,"SoundDuration":99285,"Delta":7897954},{"NoteNumber":46,"Velocity":40,"Duration":99285,"SoundDuration":99285,"Delta":7897954},{"NoteNumber":51,"Velocity":40,"Duration":99285,"SoundDuration":99285,"Delta":8162714},{"NoteNumber":58,"Velocity":40,"Duration":99285,"SoundDuration":99285,"Delta":8162714},{"NoteNumber":55,"Velocity":33,"Duration":99285,"SoundDuration":99285,"Delta":8162714},{"NoteNumber":53,"Velocity":33,"Duration":99285,"SoundDuration":99285,"Delta":8162714},{"NoteNumber":39,"Velocity":34,"Duration":99285,"SoundDuration":99285,"Delta":8427475},{"NoteNumber":46,"Velocity":34,"Duration":99285,"SoundDuration":99285,"Delta":8427475},{"NoteNumber":51,"Velocity":32,"Duration":99285,"SoundDuration":99285,"Delta":8692235},{"NoteNumber":58,"Velocity":32,"Duration":99285,"SoundDuration":99285,"Delta":8692235},{"NoteNumber":55,"Velocity":27,"Duration":99285,"SoundDuration":99285,"Delta":8692235},{"NoteNumber":53,"Velocity":27,"Duration":99285,"SoundDuration":99285,"Delta":8692235},{"NoteNumber":39,"Velocity":31,"Duration":99285,"SoundDuration":99285,"Delta":8956996},{"NoteNumber":46,"Velocity":31,"Duration":99285,"SoundDuration":99285,"Delta":8956996},{"NoteNumber":51,"Velocity":29,"Duration":102692,"SoundDuration":102692,"Delta":9221756},{"NoteNumber":58,"Velocity":29,"Duration":102692,"SoundDuration":102692,"Delta":9221756},{"NoteNumber":55,"Velocity":24,"Duration":102692,"SoundDuration":102692,"Delta":9221756},{"NoteNumber":53,"Velocity":24,"Duration":102692,"SoundDuration":102692,"Delta":9221756},{"NoteNumber":70,"Velocity":80,"Duration":128128,"SoundDuration":128128,"Delta":9495604},{"NoteNumber":39,"Velocity":40,"Duration":96096,"SoundDuration":96096,"Delta":9495604},{"NoteNumber":46,"Velocity":40,"Duration":96096,"SoundDuration":96096,"Delta":9495604},{"NoteNumber":68,"Velocity":74,"Duration":128128,"SoundDuration":128128,"Delta":9623732},{"NoteNumber":59,"Velocity":45,"Duration":132380,"SoundDuration":132380,"Delta":9751861},{"NoteNumber":63,"Velocity":45,"Duration":132380,"SoundDuration":132380,"Delta":9751861},{"NoteNumber":56,"Velocity":33,"Duration":99285,"SoundDuration":99285,"Delta":9751861},{"NoteNumber":53,"Velocity":33,"Duration":99285,"SoundDuration":99285,"Delta":9751861},{"NoteNumber":70,"Velocity":74,"Duration":132380,"SoundDuration":132380,"Delta":9884241},{"NoteNumber":65,"Velocity":76,"Duration":132380,"SoundDuration":132380,"Delta":10016621},{"NoteNumber":39,"Velocity":40,"Duration":99285,"SoundDuration":99285,"Delta":10016621},{"NoteNumber":46,"Velocity":40,"Duration":99285,"SoundDuration":99285,"Delta":10016621},{"NoteNumber":59,"Velocity":45,"Duration":132380,"SoundDuration":132380,"Delta":10281382},{"NoteNumber":63,"Velocity":45,"Duration":132380,"SoundDuration":132380,"Delta":10281382},{"NoteNumber":70,"Velocity":80,"Duration":99285,"SoundDuration":99285,"Delta":10281382},{"NoteNumber":56,"Velocity":35,"Duration":99285,"SoundDuration":99285,"Delta":10281382},{"NoteNumber":53,"Velocity":35,"Duration":99285,"SoundDuration":99285,"Delta":10281382},{"NoteNumber":68,"Velocity":80,"Duration":128128,"SoundDuration":128128,"Delta":10546142},{"NoteNumber":39,"Velocity":40,"Duration":96096,"SoundDuration":96096,"Delta":10546142},{"NoteNumber":46,"Velocity":40,"Duration":96096,"SoundDuration":96096,"Delta":10546142},{"NoteNumber":65,"Velocity":80,"Duration":128128,"SoundDuration":128128,"Delta":10674271},{"NoteNumber":59,"Velocity":45,"Duration":98874,"SoundDuration":98874,"Delta":10802399},{"NoteNumber":56,"Velocity":33,"Duration":98874,"SoundDuration":98874,"Delta":10802399},{"NoteNumber":53,"Velocity":33,"Duration":98874,"SoundDuration":98874,"Delta":10802399},{"NoteNumber":63,"Velocity":74,"Duration":131833,"SoundDuration":131833,"Delta":10934233},{"NoteNumber":59,"Velocity":80,"Duration":137513,"SoundDuration":137513,"Delta":11066066},{"NoteNumber":39,"Velocity":40,"Duration":103135,"SoundDuration":103135,"Delta":11066066},{"NoteNumber":46,"Velocity":40,"Duration":103135,"SoundDuration":103135,"Delta":11066066},{"NoteNumber":59,"Velocity":72,"Duration":65916,"SoundDuration":65916,"Delta":11341093},{"NoteNumber":63,"Velocity":80,"Duration":65916,"SoundDuration":65916,"Delta":11341093},{"NoteNumber":56,"Velocity":33,"Duration":98874,"SoundDuration":98874,"Delta":11341093},{"NoteNumber":53,"Velocity":33,"Duration":98874,"SoundDuration":98874,"Delta":11341093},{"NoteNumber":58,"Velocity":80,"Duration":103135,"SoundDuration":103135,"Delta":11604760},{"NoteNumber":39,"Velocity":34,"Duration":103135,"SoundDuration":103135,"Delta":11604760},{"NoteNumber":46,"Velocity":40,"Duration":103135,"SoundDuration":103135,"Delta":11604760},{"NoteNumber":58,"Velocity":74,"Duration":137513,"SoundDuration":137513,"Delta":11742274},{"NoteNumber":55,"Velocity":33,"Duration":100115,"SoundDuration":100115,"Delta":11879787},{"NoteNumber":53,"Velocity":28,"Duration":100115,"SoundDuration":100115,"Delta":11879787},{"NoteNumber":60,"Velocity":74,"Duration":133487,"SoundDuration":133487,"Delta":12013275},{"NoteNumber":58,"Velocity":76,"Duration":131833,"SoundDuration":131833,"Delta":12146762},{"NoteNumber":46,"Velocity":47,"Duration":98874,"SoundDuration":98874,"Delta":12146762},{"NoteNumber":39,"Velocity":39,"Duration":98874,"SoundDuration":98874,"Delta":12146762},{"NoteNumber":63,"Velocity":68,"Duration":138830,"SoundDuration":138830,"Delta":12377470},{"NoteNumber":70,"Velocity":80,"Duration":105872,"SoundDuration":105872,"Delta":12410429},{"NoteNumber":53,"Velocity":34,"Duration":105872,"SoundDuration":105872,"Delta":12410429},{"NoteNumber":55,"Velocity":41,"Duration":105872,"SoundDuration":105872,"Delta":12410429},{"NoteNumber":58,"Velocity":80,"Duration":1090709,"SoundDuration":1090709,"Delta":12692755},{"NoteNumber":46,"Velocity":50,"Duration":102254,"SoundDuration":102254,"Delta":12692755},{"NoteNumber":39,"Velocity":42,"Duration":102254,"SoundDuration":102254,"Delta":12692755},{"NoteNumber":53,"Velocity":34,"Duration":102254,"SoundDuration":102254,"Delta":12965433},{"NoteNumber":55,"Velocity":40,"Duration":102254,"SoundDuration":102254,"Delta":12965433},{"NoteNumber":46,"Velocity":43,"Duration":102254,"SoundDuration":102254,"Delta":13238110},{"NoteNumber":39,"Velocity":36,"Duration":102254,"SoundDuration":102254,"Delta":13238110},{"NoteNumber":53,"Velocity":29,"Duration":102254,"SoundDuration":102254,"Delta":13510788},{"NoteNumber":55,"Velocity":35,"Duration":102254,"SoundDuration":102254,"Delta":13510788},{"NoteNumber":58,"Velocity":64,"Duration":128128,"SoundDuration":128128,"Delta":13783465},{"NoteNumber":39,"Velocity":40,"Duration":96096,"SoundDuration":96096,"Delta":13783465},{"NoteNumber":46,"Velocity":40,"Duration":96096,"SoundDuration":96096,"Delta":13783465},{"NoteNumber":56,"Velocity":57,"Duration":128128,"SoundDuration":128128,"Delta":13911594},{"NoteNumber":53,"Velocity":33,"Duration":99285,"SoundDuration":99285,"Delta":14039722},{"NoteNumber":51,"Velocity":33,"Duration":99285,"SoundDuration":99285,"Delta":14039722},{"NoteNumber":58,"Velocity":56,"Duration":132380,"SoundDuration":132380,"Delta":14172103},{"NoteNumber":60,"Velocity":64,"Duration":132380,"SoundDuration":132380,"Delta":14304483},{"NoteNumber":39,"Velocity":40,"Duration":99285,"SoundDuration":99285,"Delta":14304483},{"NoteNumber":46,"Velocity":40,"Duration":99285,"SoundDuration":99285,"Delta":14304483},{"NoteNumber":56,"Velocity":53,"Duration":103135,"SoundDuration":103135,"Delta":14569243},{"NoteNumber":53,"Velocity":35,"Duration":103135,"SoundDuration":103135,"Delta":14569243},{"NoteNumber":51,"Velocity":35,"Duration":103135,"SoundDuration":103135,"Delta":14569243},{"NoteNumber":58,"Velocity":64,"Duration":128128,"SoundDuration":128128,"Delta":14844271},{"NoteNumber":39,"Velocity":40,"Duration":96096,"SoundDuration":96096,"Delta":14844271},{"NoteNumber":46,"Velocity":40,"Duration":96096,"SoundDuration":96096,"Delta":14844271},{"NoteNumber":56,"Velocity":57,"Duration":128128,"SoundDuration":128128,"Delta":14972399},{"NoteNumber":53,"Velocity":33,"Duration":99285,"SoundDuration":99285,"Delta":15100528},{"NoteNumber":51,"Velocity":33,"Duration":99285,"SoundDuration":99285,"Delta":15100528},{"NoteNumber":58,"Velocity":56,"Duration":132380,"SoundDuration":132380,"Delta":15232908},{"NoteNumber":59,"Velocity":64,"Duration":132380,"SoundDuration":132380,"Delta":15365288},{"NoteNumber":39,"Velocity":40,"Duration":99285,"SoundDuration":99285,"Delta":15365288},{"NoteNumber":46,"Velocity":40,"Duration":99285,"SoundDuration":99285,"Delta":15365288},{"NoteNumber":56,"Velocity":53,"Duration":103135,"SoundDuration":103135,"Delta":15630049},{"NoteNumber":53,"Velocity":35,"Duration":103135,"SoundDuration":103135,"Delta":15630049},{"NoteNumber":51,"Velocity":35,"Duration":103135,"SoundDuration":103135,"Delta":15630049},{"NoteNumber":58,"Velocity":64,"Duration":128128,"SoundDuration":128128,"Delta":15905076},{"NoteNumber":46,"Velocity":54,"Duration":128128,"SoundDuration":128128,"Delta":15905076},{"NoteNumber":56,"Velocity":59,"Duration":128128,"SoundDuration":128128,"Delta":16033205},{"NoteNumber":44,"Velocity":50,"Duration":128128,"SoundDuration":128128,"Delta":16033205},{"NoteNumber":53,"Velocity":59,"Duration":99285,"SoundDuration":99285,"Delta":16293714},{"NoteNumber":41,"Velocity":50,"Duration":99285,"SoundDuration":99285,"Delta":16293714},{"NoteNumber":51,"Velocity":61,"Duration":132380,"SoundDuration":132380,"Delta":16426094},{"NoteNumber":39,"Velocity":51,"Duration":132380,"SoundDuration":132380,"Delta":16426094},{"NoteNumber":50,"Velocity":65,"Duration":132380,"SoundDuration":132380,"Delta":16690854},{"NoteNumber":38,"Velocity":55,"Duration":132380,"SoundDuration":132380,"Delta":16690854},{"NoteNumber":48,"Velocity":71,"Duration":135759,"SoundDuration":135759,"Delta":16955615},{"NoteNumber":36,"Velocity":60,"Duration":135759,"SoundDuration":135759,"Delta":16955615},{"NoteNumber":43,"Velocity":68,"Duration":139314,"SoundDuration":139314,"Delta":17227133},{"NoteNumber":31,"Velocity":57,"Duration":139314,"SoundDuration":139314,"Delta":17227133},{"NoteNumber":48,"Velocity":76,"Duration":142436,"SoundDuration":142436,"Delta":17505762},{"NoteNumber":36,"Velocity":64,"Duration":142436,"SoundDuration":142436,"Delta":17505762},{"NoteNumber":50,"Velocity":80,"Duration":142436,"SoundDuration":142436,"Delta":17790635},{"NoteNumber":38,"Velocity":68,"Duration":142436,"SoundDuration":142436,"Delta":17790635},{"NoteNumber":70,"Velocity":80,"Duration":128128,"SoundDuration":128128,"Delta":18075508},{"NoteNumber":39,"Velocity":40,"Duration":96096,"SoundDuration":96096,"Delta":18075508},{"NoteNumber":46,"Velocity":40,"Duration":96096,"SoundDuration":96096,"Delta":18075508},{"NoteNumber":68,"Velocity":74,"Duration":128128,"SoundDuration":128128,"Delta":18203636},{"NoteNumber":59,"Velocity":45,"Duration":132380,"SoundDuration":132380,"Delta":18331765},{"NoteNumber":63,"Velocity":45,"Duration":132380,"SoundDuration":132380,"Delta":18331765},{"NoteNumber":56,"Velocity":33,"Duration":99285,"SoundDuration":99285,"Delta":18331765},{"NoteNumber":53,"Velocity":33,"Duration":99285,"SoundDuration":99285,"Delta":18331765},{"NoteNumber":70,"Velocity":74,"Duration":132380,"SoundDuration":132380,"Delta":18464145},{"NoteNumber":65,"Velocity":76,"Duration":132380,"SoundDuration":132380,"Delta":18596525},{"NoteNumber":39,"Velocity":40,"Duration":99285,"SoundDuration":99285,"Delta":18596525},{"NoteNumber":46,"Velocity":40,"Duration":99285,"SoundDuration":99285,"Delta":18596525},{"NoteNumber":59,"Velocity":45,"Duration":132380,"SoundDuration":132380,"Delta":18861286},{"NoteNumber":63,"Velocity":45,"Duration":132380,"SoundDuration":132380,"Delta":18861286},{"NoteNumber":70,"Velocity":80,"Duration":99285,"SoundDuration":99285,"Delta":18861286},{"NoteNumber":56,"Velocity":35,"Duration":99285,"SoundDuration":99285,"Delta":18861286},{"NoteNumber":53,"Velocity":35,"Duration":99285,"SoundDuration":99285,"Delta":18861286},{"NoteNumber":68,"Velocity":80,"Duration":128128,"SoundDuration":128128,"Delta":19126046},{"NoteNumber":39,"Velocity":40,"Duration":96096,"SoundDuration":96096,"Delta":19126046},{"NoteNumber":46,"Velocity":40,"Duration":96096,"SoundDuration":96096,"Delta":19126046},{"NoteNumber":65,"Velocity":80,"Duration":128128,"SoundDuration":128128,"Delta":19254175},{"NoteNumber":59,"Velocity":45,"Duration":98874,"SoundDuration":98874,"Delta":19382303},{"NoteNumber":56,"Velocity":33,"Duration":98874,"SoundDuration":98874,"Delta":19382303},{"NoteNumber":53,"Velocity":33,"Duration":98874,"SoundDuration":98874,"Delta":19382303},{"NoteNumber":63,"Velocity":74,"Duration":131833,"SoundDuration":131833,"Delta":19514137},{"NoteNumber":59,"Velocity":80,"Duration":137513,"SoundDuration":137513,"Delta":19645970},{"NoteNumber":39,"Velocity":40,"Duration":103135,"SoundDuration":103135,"Delta":19645970},{"NoteNumber":46,"Velocity":40,"Duration":103135,"SoundDuration":103135,"Delta":19645970},{"NoteNumber":59,"Velocity":72,"Duration":65916,"SoundDuration":65916,"Delta":19920997},{"NoteNumber":63,"Velocity":80,"Duration":65916,"SoundDuration":65916,"Delta":19920997},{"NoteNumber":56,"Velocity":33,"Duration":98874,"SoundDuration":98874,"Delta":19920997},{"NoteNumber":53,"Velocity":33,"Duration":98874,"SoundDuration":98874,"Delta":19920997},{"NoteNumber":58,"Velocity":80,"Duration":103135,"SoundDuration":103135,"Delta":20184664},{"NoteNumber":39,"Velocity":34,"Duration":103135,"SoundDuration":103135,"Delta":20184664},{"NoteNumber":46,"Velocity":40,"Duration":103135,"SoundDuration":103135,"Delta":20184664},{"NoteNumber":58,"Velocity":74,"Duration":137513,"SoundDuration":137513,"Delta":20322178},{"NoteNumber":55,"Velocity":33,"Duration":100115,"SoundDuration":100115,"Delta":20459691},{"NoteNumber":53,"Velocity":28,"Duration":100115,"SoundDuration":100115,"Delta":20459691},{"NoteNumber":60,"Velocity":74,"Duration":133487,"SoundDuration":133487,"Delta":20593179},{"NoteNumber":58,"Velocity":76,"Duration":131833,"SoundDuration":131833,"Delta":20726666},{"NoteNumber":46,"Velocity":47,"Duration":98874,"SoundDuration":98874,"Delta":20726666},{"NoteNumber":39,"Velocity":39,"Duration":98874,"SoundDuration":98874,"Delta":20726666},{"NoteNumber":63,"Velocity":68,"Duration":138830,"SoundDuration":138830,"Delta":20957374},{"NoteNumber":70,"Velocity":80,"Duration":105872,"SoundDuration":105872,"Delta":20990333},{"NoteNumber":53,"Velocity":34,"Duration":105872,"SoundDuration":105872,"Delta":20990333},{"NoteNumber":55,"Velocity":41,"Duration":105872,"SoundDuration":105872,"Delta":20990333},{"NoteNumber":58,"Velocity":80,"Duration":1090710,"SoundDuration":1090710,"Delta":21272659},{"NoteNumber":46,"Velocity":50,"Duration":102254,"SoundDuration":102254,"Delta":21272659},{"NoteNumber":39,"Velocity":42,"Duration":102254,"SoundDuration":102254,"Delta":21272659},{"NoteNumber":53,"Velocity":34,"Duration":102254,"SoundDuration":102254,"Delta":21545337},{"NoteNumber":55,"Velocity":40,"Duration":102254,"SoundDuration":102254,"Delta":21545337},{"NoteNumber":46,"Velocity":43,"Duration":102254,"SoundDuration":102254,"Delta":21818014},{"NoteNumber":39,"Velocity":36,"Duration":102254,"SoundDuration":102254,"Delta":21818014},{"NoteNumber":53,"Velocity":29,"Duration":102254,"SoundDuration":102254,"Delta":22090692},{"NoteNumber":55,"Velocity":35,"Duration":102254,"SoundDuration":102254,"Delta":22090692},{"NoteNumber":58,"Velocity":55,"Duration":96096,"SoundDuration":96096,"Delta":22363369},{"NoteNumber":42,"Velocity":34,"Duration":96096,"SoundDuration":96096,"Delta":22363369},{"NoteNumber":49,"Velocity":40,"Duration":96096,"SoundDuration":96096,"Delta":22363369},{"NoteNumber":58,"Velocity":49,"Duration":128128,"SoundDuration":128128,"Delta":22491498},{"NoteNumber":49,"Velocity":28,"Duration":66190,"SoundDuration":66190,"Delta":22619626},{"NoteNumber":56,"Velocity":33,"Duration":99285,"SoundDuration":99285,"Delta":22619626},{"NoteNumber":54,"Velocity":28,"Duration":99285,"SoundDuration":99285,"Delta":22619626},{"NoteNumber":60,"Velocity":53,"Duration":132380,"SoundDuration":132380,"Delta":22752007},{"NoteNumber":58,"Velocity":61,"Duration":132380,"SoundDuration":132380,"Delta":22884387},{"NoteNumber":42,"Velocity":34,"Duration":99285,"SoundDuration":99285,"Delta":22884387},{"NoteNumber":49,"Velocity":40,"Duration":99285,"SoundDuration":99285,"Delta":22884387},{"NoteNumber":61,"Velocity":53,"Duration":103135,"SoundDuration":103135,"Delta":23149147},{"NoteNumber":49,"Velocity":29,"Duration":68756,"SoundDuration":68756,"Delta":23149147},{"NoteNumber":57,"Velocity":35,"Duration":103135,"SoundDuration":103135,"Delta":23149147},{"NoteNumber":54,"Velocity":29,"Duration":103135,"SoundDuration":103135,"Delta":23149147},{"NoteNumber":63,"Velocity":64,"Duration":96096,"SoundDuration":96096,"Delta":23424175},{"NoteNumber":49,"Velocity":43,"Duration":96096,"SoundDuration":96096,"Delta":23424175},{"NoteNumber":42,"Velocity":36,"Duration":96096,"SoundDuration":96096,"Delta":23424175},{"NoteNumber":65,"Velocity":61,"Duration":99285,"SoundDuration":99285,"Delta":23680432},{"NoteNumber":54,"Velocity":31,"Duration":99285,"SoundDuration":99285,"Delta":23680432},{"NoteNumber":58,"Velocity":37,"Duration":99285,"SoundDuration":99285,"Delta":23680432},{"NoteNumber":49,"Velocity":31,"Duration":66190,"SoundDuration":66190,"Delta":23680432},{"NoteNumber":63,"Velocity":65,"Duration":99285,"SoundDuration":99285,"Delta":23945192},{"NoteNumber":49,"Velocity":45,"Duration":99285,"SoundDuration":99285,"Delta":23945192},{"NoteNumber":42,"Velocity":38,"Duration":99285,"SoundDuration":99285,"Delta":23945192},{"NoteNumber":66,"Velocity":71,"Duration":99285,"SoundDuration":99285,"Delta":24209953},{"NoteNumber":54,"Velocity":35,"Duration":99285,"SoundDuration":99285,"Delta":24209953},{"NoteNumber":59,"Velocity":42,"Duration":99285,"SoundDuration":99285,"Delta":24209953},{"NoteNumber":49,"Velocity":35,"Duration":66190,"SoundDuration":66190,"Delta":24209953},{"NoteNumber":65,"Velocity":80,"Duration":103135,"SoundDuration":103135,"Delta":24474713},{"NoteNumber":65,"Velocity":74,"Duration":137513,"SoundDuration":137513,"Delta":24612227},{"NoteNumber":64,"Velocity":67,"Duration":133487,"SoundDuration":133487,"Delta":24749741},{"NoteNumber":61,"Velocity":42,"Duration":100115,"SoundDuration":100115,"Delta":24749741},{"NoteNumber":67,"Velocity":74,"Duration":133487,"SoundDuration":133487,"Delta":24883228},{"NoteNumber":65,"Velocity":76,"Duration":230708,"SoundDuration":230708,"Delta":25016716},{"NoteNumber":60,"Velocity":57,"Duration":263666,"SoundDuration":263666,"Delta":25016716},{"NoteNumber":63,"Velocity":64,"Duration":263666,"SoundDuration":263666,"Delta":25016716},{"NoteNumber":67,"Velocity":68,"Duration":138830,"SoundDuration":138830,"Delta":25247424},{"NoteNumber":74,"Velocity":80,"Duration":105872,"SoundDuration":105872,"Delta":25280382},{"NoteNumber":63,"Velocity":58,"Duration":105872,"SoundDuration":105872,"Delta":25280382},{"NoteNumber":57,"Velocity":49,"Duration":105872,"SoundDuration":105872,"Delta":25280382},{"NoteNumber":53,"Velocity":49,"Duration":70581,"SoundDuration":70581,"Delta":25280382},{"NoteNumber":70,"Velocity":85,"Duration":588120,"SoundDuration":588120,"Delta":25562709},{"NoteNumber":62,"Velocity":72,"Duration":588120,"SoundDuration":588120,"Delta":25562709},{"NoteNumber":53,"Velocity":62,"Duration":294059,"SoundDuration":294059,"Delta":25562709},{"NoteNumber":58,"Velocity":73,"Duration":294059,"SoundDuration":294059,"Delta":25562709},{"NoteNumber":46,"Velocity":62,"Duration":294059,"SoundDuration":294059,"Delta":25562709},{"NoteNumber":82,"Velocity":90,"Duration":294060,"SoundDuration":294060,"Delta":26150829},{"NoteNumber":94,"Velocity":106,"Duration":294060,"SoundDuration":294060,"Delta":26150829},{"NoteNumber":34,"Velocity":60,"Duration":294060,"SoundDuration":294060,"Delta":26150829},{"NoteNumber":46,"Velocity":71,"Duration":294060,"SoundDuration":294060,"Delta":26150829},{"NoteNumber":60,"Velocity":54,"Duration":128128,"SoundDuration":128128,"Delta":26738949},{"NoteNumber":63,"Velocity":64,"Duration":128128,"SoundDuration":128128,"Delta":26738949},{"NoteNumber":56,"Velocity":40,"Duration":96096,"SoundDuration":96096,"Delta":26738949},{"NoteNumber":58,"Velocity":40,"Duration":96096,"SoundDuration":96096,"Delta":26738949},{"NoteNumber":62,"Velocity":48,"Duration":260508,"SoundDuration":260508,"Delta":26867077},{"NoteNumber":65,"Velocity":57,"Duration":260508,"SoundDuration":260508,"Delta":26867077},{"NoteNumber":70,"Velocity":33,"Duration":99285,"SoundDuration":99285,"Delta":26995206},{"NoteNumber":68,"Velocity":33,"Duration":99285,"SoundDuration":99285,"Delta":26995206},{"NoteNumber":63,"Velocity":47,"Duration":132380,"SoundDuration":132380,"Delta":27127586},{"NoteNumber":67,"Velocity":56,"Duration":132380,"SoundDuration":132380,"Delta":27127586},{"NoteNumber":62,"Velocity":54,"Duration":99285,"SoundDuration":99285,"Delta":27259966},{"NoteNumber":65,"Velocity":64,"Duration":99285,"SoundDuration":99285,"Delta":27259966},{"NoteNumber":56,"Velocity":40,"Duration":99285,"SoundDuration":99285,"Delta":27259966},{"NoteNumber":58,"Velocity":40,"Duration":99285,"SoundDuration":99285,"Delta":27259966},{"NoteNumber":60,"Velocity":45,"Duration":106635,"SoundDuration":106635,"Delta":27524727},{"NoteNumber":63,"Velocity":53,"Duration":106635,"SoundDuration":106635,"Delta":27524727},{"NoteNumber":70,"Velocity":35,"Duration":106635,"SoundDuration":106635,"Delta":27524727},{"NoteNumber":68,"Velocity":35,"Duration":106635,"SoundDuration":106635,"Delta":27524727},{"NoteNumber":65,"Velocity":53,"Duration":1159420,"SoundDuration":1159420,"Delta":27809087},{"NoteNumber":62,"Velocity":45,"Duration":1159420,"SoundDuration":1159420,"Delta":27809087},{"NoteNumber":56,"Velocity":40,"Duration":108695,"SoundDuration":108695,"Delta":27809087},{"NoteNumber":58,"Velocity":40,"Duration":108695,"SoundDuration":108695,"Delta":27809087},{"NoteNumber":70,"Velocity":33,"Duration":108695,"SoundDuration":108695,"Delta":28098942},{"NoteNumber":68,"Velocity":33,"Duration":108695,"SoundDuration":108695,"Delta":28098942},{"NoteNumber":94,"Velocity":64,"Duration":289855,"SoundDuration":289855,"Delta":28388797},{"NoteNumber":82,"Velocity":54,"Duration":289855,"SoundDuration":289855,"Delta":28388797},{"NoteNumber":56,"Velocity":40,"Duration":108695,"SoundDuration":108695,"Delta":28388797},{"NoteNumber":58,"Velocity":40,"Duration":108695,"SoundDuration":108695,"Delta":28388797},{"NoteNumber":70,"Velocity":35,"Duration":108695,"SoundDuration":108695,"Delta":28678652},{"NoteNumber":68,"Velocity":35,"Duration":108695,"SoundDuration":108695,"Delta":28678652},{"NoteNumber":60,"Velocity":54,"Duration":128128,"SoundDuration":128128,"Delta":28968507},{"NoteNumber":63,"Velocity":64,"Duration":128128,"SoundDuration":128128,"Delta":28968507},{"NoteNumber":55,"Velocity":40,"Duration":96096,"SoundDuration":96096,"Delta":28968507},{"NoteNumber":58,"Velocity":40,"Duration":96096,"SoundDuration":96096,"Delta":28968507},{"NoteNumber":62,"Velocity":48,"Duration":260508,"SoundDuration":260508,"Delta":29096635},{"NoteNumber":65,"Velocity":57,"Duration":260508,"SoundDuration":260508,"Delta":29096635},{"NoteNumber":70,"Velocity":33,"Duration":99285,"SoundDuration":99285,"Delta":29224764},{"NoteNumber":63,"Velocity":47,"Duration":132380,"SoundDuration":132380,"Delta":29357144},{"NoteNumber":67,"Velocity":56,"Duration":132380,"SoundDuration":132380,"Delta":29357144},{"NoteNumber":62,"Velocity":54,"Duration":132380,"SoundDuration":132380,"Delta":29489524},{"NoteNumber":65,"Velocity":64,"Duration":132380,"SoundDuration":132380,"Delta":29489524},{"NoteNumber":55,"Velocity":40,"Duration":99285,"SoundDuration":99285,"Delta":29489524},{"NoteNumber":58,"Velocity":40,"Duration":99285,"SoundDuration":99285,"Delta":29489524},{"NoteNumber":60,"Velocity":45,"Duration":104651,"SoundDuration":104651,"Delta":29754285},{"NoteNumber":63,"Velocity":53,"Duration":104651,"SoundDuration":104651,"Delta":29754285},{"NoteNumber":70,"Velocity":35,"Duration":104651,"SoundDuration":104651,"Delta":29754285},{"NoteNumber":65,"Velocity":53,"Duration":136363,"SoundDuration":136363,"Delta":30033355},{"NoteNumber":62,"Velocity":45,"Duration":136363,"SoundDuration":136363,"Delta":30033355},{"NoteNumber":55,"Velocity":40,"Duration":136363,"SoundDuration":136363,"Delta":30033355},{"NoteNumber":58,"Velocity":40,"Duration":136363,"SoundDuration":136363,"Delta":30033355},{"NoteNumber":60,"Velocity":53,"Duration":277778,"SoundDuration":277778,"Delta":30306082},{"NoteNumber":63,"Velocity":53,"Duration":277778,"SoundDuration":277778,"Delta":30306082},{"NoteNumber":70,"Velocity":33,"Duration":104166,"SoundDuration":104166,"Delta":30306082},{"NoteNumber":62,"Velocity":53,"Duration":266666,"SoundDuration":266666,"Delta":30583860},{"NoteNumber":65,"Velocity":53,"Duration":266666,"SoundDuration":266666,"Delta":30583860},{"NoteNumber":55,"Velocity":40,"Duration":266666,"SoundDuration":266666,"Delta":30583860},{"NoteNumber":58,"Velocity":40,"Duration":266666,"SoundDuration":266666,"Delta":30583860},{"NoteNumber":67,"Velocity":53,"Duration":133333,"SoundDuration":133333,"Delta":30850527},{"NoteNumber":70,"Velocity":53,"Duration":133333,"SoundDuration":133333,"Delta":30850527},{"NoteNumber":72,"Velocity":53,"Duration":133333,"SoundDuration":133333,"Delta":30850527},{"NoteNumber":63,"Velocity":35,"Duration":99999,"SoundDuration":99999,"Delta":30850527},{"NoteNumber":56,"Velocity":36,"Duration":2140276,"SoundDuration":2140276,"Delta":31117193},{"NoteNumber":60,"Velocity":36,"Duration":2140276,"SoundDuration":2140276,"Delta":31117193},{"NoteNumber":63,"Velocity":42,"Duration":2140276,"SoundDuration":2140276,"Delta":31117193},{"NoteNumber":46,"Velocity":44,"Duration":128128,"SoundDuration":128128,"Delta":31117193},{"NoteNumber":48,"Velocity":39,"Duration":128128,"SoundDuration":128128,"Delta":31245322},{"NoteNumber":50,"Velocity":39,"Duration":132380,"SoundDuration":132380,"Delta":31505831},{"NoteNumber":48,"Velocity":44,"Duration":132380,"SoundDuration":132380,"Delta":31638211},{"NoteNumber":46,"Velocity":37,"Duration":106635,"SoundDuration":106635,"Delta":31902971},{"NoteNumber":46,"Velocity":44,"Duration":128128,"SoundDuration":128128,"Delta":32187331},{"NoteNumber":48,"Velocity":39,"Duration":128128,"SoundDuration":128128,"Delta":32315460},{"NoteNumber":50,"Velocity":39,"Duration":132380,"SoundDuration":132380,"Delta":32575969},{"NoteNumber":48,"Velocity":44,"Duration":132380,"SoundDuration":132380,"Delta":32708349},{"NoteNumber":46,"Velocity":37,"Duration":106634,"SoundDuration":106634,"Delta":32973109},{"NoteNumber":55,"Velocity":30,"Duration":1084901,"SoundDuration":1084901,"Delta":33257469},{"NoteNumber":60,"Velocity":30,"Duration":1084901,"SoundDuration":1084901,"Delta":33257469},{"NoteNumber":63,"Velocity":36,"Duration":1084901,"SoundDuration":1084901,"Delta":33257469},{"NoteNumber":46,"Velocity":37,"Duration":128755,"SoundDuration":128755,"Delta":33257469},{"NoteNumber":48,"Velocity":33,"Duration":128755,"SoundDuration":128755,"Delta":33386225},{"NoteNumber":50,"Velocity":33,"Duration":134529,"SoundDuration":134529,"Delta":33649509},{"NoteNumber":48,"Velocity":37,"Duration":136986,"SoundDuration":136986,"Delta":33784038},{"NoteNumber":46,"Velocity":31,"Duration":106634,"SoundDuration":106634,"Delta":34058011},{"NoteNumber":46,"Velocity":65,"Duration":128128,"SoundDuration":128128,"Delta":34470499},{"NoteNumber":34,"Velocity":65,"Duration":128128,"SoundDuration":128128,"Delta":34470499},{"NoteNumber":48,"Velocity":65,"Duration":135746,"SoundDuration":135746,"Delta":34598628},{"NoteNumber":36,"Velocity":65,"Duration":135746,"SoundDuration":135746,"Delta":34598628},{"NoteNumber":50,"Velocity":67,"Duration":135746,"SoundDuration":135746,"Delta":34734374},{"NoteNumber":38,"Velocity":67,"Duration":135746,"SoundDuration":135746,"Delta":34734374},{"NoteNumber":48,"Velocity":68,"Duration":144927,"SoundDuration":144927,"Delta":34870121},{"NoteNumber":36,"Velocity":68,"Duration":144927,"SoundDuration":144927,"Delta":34870121},{"NoteNumber":46,"Velocity":62,"Duration":112499,"SoundDuration":112499,"Delta":35159976},{"NoteNumber":22,"Velocity":55,"Duration":112499,"SoundDuration":112499,"Delta":35159976},{"NoteNumber":34,"Velocity":62,"Duration":112499,"SoundDuration":112499,"Delta":35159976},{"NoteNumber":60,"Velocity":54,"Duration":128128,"SoundDuration":128128,"Delta":35459976},{"NoteNumber":63,"Velocity":64,"Duration":128128,"SoundDuration":128128,"Delta":35459976},{"NoteNumber":56,"Velocity":40,"Duration":96096,"SoundDuration":96096,"Delta":35459976},{"NoteNumber":58,"Velocity":40,"Duration":96096,"SoundDuration":96096,"Delta":35459976},{"NoteNumber":62,"Velocity":48,"Duration":260508,"SoundDuration":260508,"Delta":35588104},{"NoteNumber":65,"Velocity":57,"Duration":260508,"SoundDuration":260508,"Delta":35588104},{"NoteNumber":70,"Velocity":33,"Duration":99285,"SoundDuration":99285,"Delta":35716233},{"NoteNumber":68,"Velocity":33,"Duration":99285,"SoundDuration":99285,"Delta":35716233},{"NoteNumber":63,"Velocity":47,"Duration":132380,"SoundDuration":132380,"Delta":35848613},{"NoteNumber":67,"Velocity":56,"Duration":132380,"SoundDuration":132380,"Delta":35848613},{"NoteNumber":62,"Velocity":54,"Duration":99285,"SoundDuration":99285,"Delta":35980993},{"NoteNumber":65,"Velocity":64,"Duration":99285,"SoundDuration":99285,"Delta":35980993},{"NoteNumber":56,"Velocity":40,"Duration":99285,"SoundDuration":99285,"Delta":35980993},{"NoteNumber":58,"Velocity":40,"Duration":99285,"SoundDuration":99285,"Delta":35980993},{"NoteNumber":60,"Velocity":45,"Duration":106634,"SoundDuration":106634,"Delta":36245754},{"NoteNumber":63,"Velocity":53,"Duration":106634,"SoundDuration":106634,"Delta":36245754},{"NoteNumber":70,"Velocity":35,"Duration":106634,"SoundDuration":106634,"Delta":36245754},{"NoteNumber":68,"Velocity":35,"Duration":106634,"SoundDuration":106634,"Delta":36245754},{"NoteNumber":65,"Velocity":53,"Duration":1159419,"SoundDuration":1159419,"Delta":36530114},{"NoteNumber":62,"Velocity":45,"Duration":1159419,"SoundDuration":1159419,"Delta":36530114},{"NoteNumber":56,"Velocity":40,"Duration":108695,"SoundDuration":108695,"Delta":36530114},{"NoteNumber":58,"Velocity":40,"Duration":108695,"SoundDuration":108695,"Delta":36530114},{"NoteNumber":70,"Velocity":33,"Duration":108695,"SoundDuration":108695,"Delta":36819969},{"NoteNumber":68,"Velocity":33,"Duration":108695,"SoundDuration":108695,"Delta":36819969},{"NoteNumber":94,"Velocity":64,"Duration":289855,"SoundDuration":289855,"Delta":37109824},{"NoteNumber":82,"Velocity":54,"Duration":289855,"SoundDuration":289855,"Delta":37109824},{"NoteNumber":56,"Velocity":40,"Duration":108695,"SoundDuration":108695,"Delta":37109824},{"NoteNumber":58,"Velocity":40,"Duration":108695,"SoundDuration":108695,"Delta":37109824},{"NoteNumber":70,"Velocity":35,"Duration":108695,"SoundDuration":108695,"Delta":37399679},{"NoteNumber":68,"Velocity":35,"Duration":108695,"SoundDuration":108695,"Delta":37399679},{"NoteNumber":60,"Velocity":54,"Duration":128128,"SoundDuration":128128,"Delta":37689534},{"NoteNumber":63,"Velocity":64,"Duration":128128,"SoundDuration":128128,"Delta":37689534},{"NoteNumber":55,"Velocity":40,"Duration":96096,"SoundDuration":96096,"Delta":37689534},{"NoteNumber":58,"Velocity":40,"Duration":96096,"SoundDuration":96096,"Delta":37689534},{"NoteNumber":62,"Velocity":48,"Duration":260508,"SoundDuration":260508,"Delta":37817662},{"NoteNumber":65,"Velocity":57,"Duration":260508,"SoundDuration":260508,"Delta":37817662},{"NoteNumber":67,"Velocity":33,"Duration":99285,"SoundDuration":99285,"Delta":37945791},{"NoteNumber":70,"Velocity":33,"Duration":99285,"SoundDuration":99285,"Delta":37945791},{"NoteNumber":63,"Velocity":47,"Duration":132380,"SoundDuration":132380,"Delta":38078171},{"NoteNumber":67,"Velocity":56,"Duration":132380,"SoundDuration":132380,"Delta":38078171},{"NoteNumber":62,"Velocity":54,"Duration":132380,"SoundDuration":132380,"Delta":38210551},{"NoteNumber":65,"Velocity":64,"Duration":132380,"SoundDuration":132380,"Delta":38210551},{"NoteNumber":55,"Velocity":40,"Duration":99285,"SoundDuration":99285,"Delta":38210551},{"NoteNumber":58,"Velocity":40,"Duration":99285,"SoundDuration":99285,"Delta":38210551},{"NoteNumber":60,"Velocity":45,"Duration":104651,"SoundDuration":104651,"Delta":38475312},{"NoteNumber":63,"Velocity":53,"Duration":104651,"SoundDuration":104651,"Delta":38475312},{"NoteNumber":67,"Velocity":33,"Duration":104651,"SoundDuration":104651,"Delta":38475312},{"NoteNumber":70,"Velocity":35,"Duration":104651,"SoundDuration":104651,"Delta":38475312},{"NoteNumber":65,"Velocity":53,"Duration":136363,"SoundDuration":136363,"Delta":38754382},{"NoteNumber":62,"Velocity":45,"Duration":136363,"SoundDuration":136363,"Delta":38754382},{"NoteNumber":55,"Velocity":40,"Duration":136363,"SoundDuration":136363,"Delta":38754382},{"NoteNumber":58,"Velocity":40,"Duration":136363,"SoundDuration":136363,"Delta":38754382},{"NoteNumber":60,"Velocity":53,"Duration":277777,"SoundDuration":277777,"Delta":39027109},{"NoteNumber":63,"Velocity":53,"Duration":277777,"SoundDuration":277777,"Delta":39027109},{"NoteNumber":67,"Velocity":33,"Duration":104166,"SoundDuration":104166,"Delta":39027109},{"NoteNumber":70,"Velocity":33,"Duration":104166,"SoundDuration":104166,"Delta":39027109},{"NoteNumber":62,"Velocity":53,"Duration":266666,"SoundDuration":266666,"Delta":39304887},{"NoteNumber":65,"Velocity":53,"Duration":266666,"SoundDuration":266666,"Delta":39304887},{"NoteNumber":55,"Velocity":40,"Duration":266666,"SoundDuration":266666,"Delta":39304887},{"NoteNumber":58,"Velocity":40,"Duration":266666,"SoundDuration":266666,"Delta":39304887},{"NoteNumber":67,"Velocity":53,"Duration":133333,"SoundDuration":133333,"Delta":39571554},{"NoteNumber":70,"Velocity":53,"Duration":133333,"SoundDuration":133333,"Delta":39571554},{"NoteNumber":72,"Velocity":53,"Duration":133333,"SoundDuration":133333,"Delta":39571554},{"NoteNumber":63,"Velocity":35,"Duration":99999,"SoundDuration":99999,"Delta":39571554},{"NoteNumber":71,"Velocity":60,"Duration":1620720,"SoundDuration":1620720,"Delta":39838220},{"NoteNumber":75,"Velocity":60,"Duration":1620720,"SoundDuration":1620720,"Delta":39838220},{"NoteNumber":82,"Velocity":80,"Duration":132931,"SoundDuration":132931,"Delta":39838220},{"NoteNumber":59,"Velocity":51,"Duration":1620720,"SoundDuration":1620720,"Delta":39838220},{"NoteNumber":63,"Velocity":51,"Duration":1620720,"SoundDuration":1620720,"Delta":39838220},{"NoteNumber":70,"Velocity":68,"Duration":132931,"SoundDuration":132931,"Delta":39838220},{"NoteNumber":80,"Velocity":74,"Duration":132931,"SoundDuration":132931,"Delta":39971152},{"NoteNumber":68,"Velocity":62,"Duration":132931,"SoundDuration":132931,"Delta":39971152},{"NoteNumber":82,"Velocity":74,"Duration":132931,"SoundDuration":132931,"Delta":40237015},{"NoteNumber":70,"Velocity":62,"Duration":132931,"SoundDuration":132931,"Delta":40237015},{"NoteNumber":77,"Velocity":76,"Duration":139925,"SoundDuration":139925,"Delta":40369946},{"NoteNumber":65,"Velocity":64,"Duration":139925,"SoundDuration":139925,"Delta":40369946},{"NoteNumber":82,"Velocity":80,"Duration":99698,"SoundDuration":99698,"Delta":40649797},{"NoteNumber":70,"Velocity":68,"Duration":99698,"SoundDuration":99698,"Delta":40649797},{"NoteNumber":80,"Velocity":80,"Duration":132931,"SoundDuration":132931,"Delta":40915660},{"NoteNumber":68,"Velocity":68,"Duration":132931,"SoundDuration":132931,"Delta":40915660},{"NoteNumber":77,"Velocity":80,"Duration":132931,"SoundDuration":132931,"Delta":41048591},{"NoteNumber":65,"Velocity":68,"Duration":132931,"SoundDuration":132931,"Delta":41048591},{"NoteNumber":75,"Velocity":74,"Duration":138708,"SoundDuration":138708,"Delta":41320232},{"NoteNumber":63,"Velocity":62,"Duration":138708,"SoundDuration":138708,"Delta":41320232},{"NoteNumber":71,"Velocity":80,"Duration":529521,"SoundDuration":529521,"Delta":41458941},{"NoteNumber":59,"Velocity":68,"Duration":529521,"SoundDuration":529521,"Delta":41458941},{"NoteNumber":68,"Velocity":80,"Duration":130219,"SoundDuration":130219,"Delta":42120842},{"NoteNumber":56,"Velocity":65,"Duration":130219,"SoundDuration":130219,"Delta":42120842},{"NoteNumber":65,"Velocity":79,"Duration":130219,"SoundDuration":130219,"Delta":42251062},{"NoteNumber":53,"Velocity":65,"Duration":130219,"SoundDuration":130219,"Delta":42251062},{"NoteNumber":63,"Velocity":84,"Duration":130219,"SoundDuration":130219,"Delta":42381281},{"NoteNumber":51,"Velocity":67,"Duration":130219,"SoundDuration":130219,"Delta":42381281},{"NoteNumber":59,"Velocity":86,"Duration":139314,"SoundDuration":139314,"Delta":42511501},{"NoteNumber":47,"Velocity":71,"Duration":139314,"SoundDuration":139314,"Delta":42511501},{"NoteNumber":55,"Velocity":97,"Duration":262582,"SoundDuration":262582,"Delta":42790130},{"NoteNumber":50,"Velocity":82,"Duration":262582,"SoundDuration":262582,"Delta":42790130},{"NoteNumber":46,"Velocity":78,"Duration":262582,"SoundDuration":262582,"Delta":42790130},{"NoteNumber":34,"Velocity":66,"Duration":262582,"SoundDuration":262582,"Delta":42790130},{"NoteNumber":51,"Velocity":40,"Duration":98874,"SoundDuration":98874,"Delta":43316379},{"NoteNumber":58,"Velocity":40,"Duration":98874,"SoundDuration":98874,"Delta":43316379},{"NoteNumber":55,"Velocity":33,"Duration":98874,"SoundDuration":98874,"Delta":43316379},{"NoteNumber":53,"Velocity":33,"Duration":98874,"SoundDuration":98874,"Delta":43316379},{"NoteNumber":39,"Velocity":40,"Duration":98874,"SoundDuration":98874,"Delta":43580045},{"NoteNumber":46,"Velocity":40,"Duration":98874,"SoundDuration":98874,"Delta":43580045},{"NoteNumber":51,"Velocity":40,"Duration":110837,"SoundDuration":110837,"Delta":43843712},{"NoteNumber":58,"Velocity":40,"Duration":110837,"SoundDuration":110837,"Delta":43843712},{"NoteNumber":55,"Velocity":33,"Duration":110837,"SoundDuration":110837,"Delta":43843712},{"NoteNumber":53,"Velocity":33,"Duration":110837,"SoundDuration":110837,"Delta":43843712},{"NoteNumber":39,"Velocity":34,"Duration":526316,"SoundDuration":526316,"Delta":44139278},{"NoteNumber":46,"Velocity":40,"Duration":526316,"SoundDuration":526316,"Delta":44139278},{"NoteNumber":51,"Velocity":39,"Duration":98874,"SoundDuration":98874,"Delta":45455577},{"NoteNumber":58,"Velocity":39,"Duration":98874,"SoundDuration":98874,"Delta":45455577},{"NoteNumber":55,"Velocity":32,"Duration":98874,"SoundDuration":98874,"Delta":45455577},{"NoteNumber":53,"Velocity":32,"Duration":98874,"SoundDuration":98874,"Delta":45455577},{"NoteNumber":39,"Velocity":38,"Duration":98874,"SoundDuration":98874,"Delta":45719243},{"NoteNumber":46,"Velocity":38,"Duration":98874,"SoundDuration":98874,"Delta":45719243},{"NoteNumber":51,"Velocity":36,"Duration":110837,"SoundDuration":110837,"Delta":45982910},{"NoteNumber":58,"Velocity":36,"Duration":110837,"SoundDuration":110837,"Delta":45982910},{"NoteNumber":55,"Velocity":29,"Duration":110837,"SoundDuration":110837,"Delta":45982910},{"NoteNumber":53,"Velocity":29,"Duration":110837,"SoundDuration":110837,"Delta":45982910},{"NoteNumber":39,"Velocity":29,"Duration":526316,"SoundDuration":526316,"Delta":46278476},{"NoteNumber":46,"Velocity":34,"Duration":526316,"SoundDuration":526316,"Delta":46278476},{"NoteNumber":51,"Velocity":39,"Duration":98874,"SoundDuration":98874,"Delta":47594775},{"NoteNumber":58,"Velocity":39,"Duration":98874,"SoundDuration":98874,"Delta":47594775},{"NoteNumber":55,"Velocity":32,"Duration":98874,"SoundDuration":98874,"Delta":47594775},{"NoteNumber":53,"Velocity":32,"Duration":98874,"SoundDuration":98874,"Delta":47594775},{"NoteNumber":39,"Velocity":38,"Duration":98874,"SoundDuration":98874,"Delta":47858441},{"NoteNumber":46,"Velocity":38,"Duration":98874,"SoundDuration":98874,"Delta":47858441},{"NoteNumber":51,"Velocity":36,"Duration":110837,"SoundDuration":110837,"Delta":48122108},{"NoteNumber":58,"Velocity":36,"Duration":110837,"SoundDuration":110837,"Delta":48122108},{"NoteNumber":55,"Velocity":30,"Duration":110837,"SoundDuration":110837,"Delta":48122108},{"NoteNumber":53,"Velocity":30,"Duration":110837,"SoundDuration":110837,"Delta":48122108},{"NoteNumber":39,"Velocity":34,"Duration":526316,"SoundDuration":526316,"Delta":48417674},{"NoteNumber":41,"Velocity":34,"Duration":526316,"SoundDuration":526316,"Delta":48943990},{"NoteNumber":42,"Velocity":30,"Duration":133928,"SoundDuration":133928,"Delta":49470306},{"NoteNumber":49,"Velocity":30,"Duration":2120842,"SoundDuration":2120842,"Delta":49470306},{"NoteNumber":57,"Velocity":25,"Duration":66964,"SoundDuration":66964,"Delta":49671199},{"NoteNumber":61,"Velocity":30,"Duration":66964,"SoundDuration":66964,"Delta":49738163},{"NoteNumber":58,"Velocity":25,"Duration":66964,"SoundDuration":66964,"Delta":49738163},{"NoteNumber":42,"Velocity":29,"Duration":133928,"SoundDuration":133928,"Delta":50006020},{"NoteNumber":57,"Velocity":25,"Duration":66964,"SoundDuration":66964,"Delta":50206913},{"NoteNumber":61,"Velocity":30,"Duration":66964,"SoundDuration":66964,"Delta":50273877},{"NoteNumber":58,"Velocity":25,"Duration":66964,"SoundDuration":66964,"Delta":50273877},{"NoteNumber":42,"Velocity":30,"Duration":133928,"SoundDuration":133928,"Delta":50541734},{"NoteNumber":55,"Velocity":25,"Duration":66964,"SoundDuration":66964,"Delta":50742627},{"NoteNumber":56,"Velocity":28,"Duration":66079,"SoundDuration":66079,"Delta":50809591},{"NoteNumber":59,"Velocity":33,"Duration":66079,"SoundDuration":66079,"Delta":50809591},{"NoteNumber":42,"Velocity":29,"Duration":129310,"SoundDuration":129310,"Delta":51073908},{"NoteNumber":56,"Velocity":25,"Duration":64655,"SoundDuration":64655,"Delta":51267874},{"NoteNumber":65,"Velocity":38,"Duration":64655,"SoundDuration":64655,"Delta":51332529},{"NoteNumber":60,"Velocity":38,"Duration":64655,"SoundDuration":64655,"Delta":51332529},{"NoteNumber":57,"Velocity":32,"Duration":64655,"SoundDuration":64655,"Delta":51332529},{"NoteNumber":51,"Velocity":24,"Duration":64655,"SoundDuration":64655,"Delta":51526494},{"NoteNumber":42,"Velocity":30,"Duration":133928,"SoundDuration":133928,"Delta":51591149},{"NoteNumber":49,"Velocity":30,"Duration":2120842,"SoundDuration":2120842,"Delta":51591149},{"NoteNumber":57,"Velocity":25,"Duration":66964,"SoundDuration":66964,"Delta":51792042},{"NoteNumber":61,"Velocity":30,"Duration":66964,"SoundDuration":66964,"Delta":51859006},{"NoteNumber":58,"Velocity":25,"Duration":66964,"SoundDuration":66964,"Delta":51859006},{"NoteNumber":42,"Velocity":29,"Duration":133928,"SoundDuration":133928,"Delta":52126863},{"NoteNumber":57,"Velocity":25,"Duration":66964,"SoundDuration":66964,"Delta":52327756},{"NoteNumber":61,"Velocity":30,"Duration":66964,"SoundDuration":66964,"Delta":52394720},{"NoteNumber":58,"Velocity":25,"Duration":66964,"SoundDuration":66964,"Delta":52394720},{"NoteNumber":42,"Velocity":30,"Duration":133928,"SoundDuration":133928,"Delta":52662577},{"NoteNumber":55,"Velocity":25,"Duration":66964,"SoundDuration":66964,"Delta":52863470},{"NoteNumber":56,"Velocity":28,"Duration":66079,"SoundDuration":66079,"Delta":52930434},{"NoteNumber":59,"Velocity":33,"Duration":66079,"SoundDuration":66079,"Delta":52930434},{"NoteNumber":42,"Velocity":29,"Duration":129310,"SoundDuration":129310,"Delta":53194751},{"NoteNumber":56,"Velocity":25,"Duration":64655,"SoundDuration":64655,"Delta":53388717},{"NoteNumber":65,"Velocity":38,"Duration":64655,"SoundDuration":64655,"Delta":53453372},{"NoteNumber":60,"Velocity":38,"Duration":64655,"SoundDuration":64655,"Delta":53453372},{"NoteNumber":57,"Velocity":32,"Duration":64655,"SoundDuration":64655,"Delta":53453372},{"NoteNumber":49,"Velocity":30,"Duration":2137508,"SoundDuration":2137508,"Delta":53711992},{"NoteNumber":57,"Velocity":25,"Duration":66964,"SoundDuration":66964,"Delta":53912885},{"NoteNumber":61,"Velocity":30,"Duration":66964,"SoundDuration":66964,"Delta":53979849},{"NoteNumber":58,"Velocity":25,"Duration":66964,"SoundDuration":66964,"Delta":53979849},{"NoteNumber":42,"Velocity":29,"Duration":133928,"SoundDuration":133928,"Delta":53979849},{"NoteNumber":41,"Velocity":29,"Duration":135135,"SoundDuration":135135,"Delta":54247706},{"NoteNumber":39,"Velocity":29,"Duration":140844,"SoundDuration":140844,"Delta":54517977},{"NoteNumber":37,"Velocity":37,"Duration":273972,"SoundDuration":273972,"Delta":54799667},{"NoteNumber":57,"Velocity":25,"Duration":64655,"SoundDuration":64655,"Delta":55267605},{"NoteNumber":58,"Velocity":28,"Duration":64655,"SoundDuration":64655,"Delta":55332260},{"NoteNumber":61,"Velocity":33,"Duration":64655,"SoundDuration":64655,"Delta":55332260},{"NoteNumber":42,"Velocity":29,"Duration":133928,"SoundDuration":133928,"Delta":56117358},{"NoteNumber":41,"Velocity":29,"Duration":135135,"SoundDuration":135135,"Delta":56385215},{"NoteNumber":39,"Velocity":29,"Duration":140844,"SoundDuration":140844,"Delta":56655485},{"NoteNumber":37,"Velocity":37,"Duration":136986,"SoundDuration":136986,"Delta":56937175},{"NoteNumber":35,"Velocity":32,"Duration":130957,"SoundDuration":130957,"Delta":57211148},{"NoteNumber":48,"Velocity":21,"Duration":67782,"SoundDuration":67782,"Delta":57408941},{"NoteNumber":47,"Velocity":22,"Duration":68655,"SoundDuration":68655,"Delta":57476724},{"NoteNumber":51,"Velocity":27,"Duration":68655,"SoundDuration":68655,"Delta":57476724},{"NoteNumber":34,"Velocity":30,"Duration":137463,"SoundDuration":137463,"Delta":57476724},{"NoteNumber":32,"Velocity":30,"Duration":147058,"SoundDuration":147058,"Delta":57751802},{"NoteNumber":42,"Velocity":30,"Duration":133928,"SoundDuration":133928,"Delta":58045919},{"NoteNumber":49,"Velocity":30,"Duration":2120842,"SoundDuration":2120842,"Delta":58045919},{"NoteNumber":57,"Velocity":25,"Duration":66964,"SoundDuration":66964,"Delta":58246812},{"NoteNumber":61,"Velocity":30,"Duration":66964,"SoundDuration":66964,"Delta":58313776},{"NoteNumber":58,"Velocity":25,"Duration":66964,"SoundDuration":66964,"Delta":58313776},{"NoteNumber":42,"Velocity":29,"Duration":133928,"SoundDuration":133928,"Delta":58581633},{"NoteNumber":57,"Velocity":25,"Duration":66964,"SoundDuration":66964,"Delta":58782526},{"NoteNumber":61,"Velocity":30,"Duration":66964,"SoundDuration":66964,"Delta":58849490},{"NoteNumber":58,"Velocity":25,"Duration":66964,"SoundDuration":66964,"Delta":58849490},{"NoteNumber":42,"Velocity":30,"Duration":133928,"SoundDuration":133928,"Delta":59117347},{"NoteNumber":55,"Velocity":25,"Duration":66964,"SoundDuration":66964,"Delta":59318240},{"NoteNumber":56,"Velocity":28,"Duration":66079,"SoundDuration":66079,"Delta":59385204},{"NoteNumber":59,"Velocity":33,"Duration":66079,"SoundDuration":66079,"Delta":59385204},{"NoteNumber":42,"Velocity":29,"Duration":129310,"SoundDuration":129310,"Delta":59649521},{"NoteNumber":56,"Velocity":25,"Duration":64655,"SoundDuration":64655,"Delta":59843486},{"NoteNumber":65,"Velocity":38,"Duration":64655,"SoundDuration":64655,"Delta":59908142},{"NoteNumber":60,"Velocity":38,"Duration":64655,"SoundDuration":64655,"Delta":59908142},{"NoteNumber":57,"Velocity":32,"Duration":64655,"SoundDuration":64655,"Delta":59908142},{"NoteNumber":51,"Velocity":24,"Duration":64655,"SoundDuration":64655,"Delta":60102107},{"NoteNumber":42,"Velocity":30,"Duration":133928,"SoundDuration":133928,"Delta":60166762},{"NoteNumber":49,"Velocity":30,"Duration":2120842,"SoundDuration":2120842,"Delta":60166762},{"NoteNumber":57,"Velocity":25,"Duration":66964,"SoundDuration":66964,"Delta":60367655},{"NoteNumber":61,"Velocity":30,"Duration":66964,"SoundDuration":66964,"Delta":60434619},{"NoteNumber":58,"Velocity":25,"Duration":66964,"SoundDuration":66964,"Delta":60434619},{"NoteNumber":42,"Velocity":29,"Duration":133928,"SoundDuration":133928,"Delta":60702476},{"NoteNumber":57,"Velocity":25,"Duration":66964,"SoundDuration":66964,"Delta":60903369},{"NoteNumber":61,"Velocity":30,"Duration":66964,"SoundDuration":66964,"Delta":60970333},{"NoteNumber":58,"Velocity":25,"Duration":66964,"SoundDuration":66964,"Delta":60970333},{"NoteNumber":42,"Velocity":30,"Duration":133928,"SoundDuration":133928,"Delta":61238190},{"NoteNumber":55,"Velocity":25,"Duration":66964,"SoundDuration":66964,"Delta":61439083},{"NoteNumber":56,"Velocity":28,"Duration":66079,"SoundDuration":66079,"Delta":61506047},{"NoteNumber":59,"Velocity":33,"Duration":66079,"SoundDuration":66079,"Delta":61506047},{"NoteNumber":42,"Velocity":29,"Duration":129310,"SoundDuration":129310,"Delta":61770364},{"NoteNumber":56,"Velocity":25,"Duration":64655,"SoundDuration":64655,"Delta":61964329},{"NoteNumber":65,"Velocity":38,"Duration":64655,"SoundDuration":64655,"Delta":62028985},{"NoteNumber":60,"Velocity":38,"Duration":64655,"SoundDuration":64655,"Delta":62028985},{"NoteNumber":57,"Velocity":32,"Duration":64655,"SoundDuration":64655,"Delta":62028985},{"NoteNumber":49,"Velocity":30,"Duration":2396128,"SoundDuration":2396128,"Delta":62287605},{"NoteNumber":57,"Velocity":25,"Duration":66964,"SoundDuration":66964,"Delta":62488498},{"NoteNumber":61,"Velocity":30,"Duration":66964,"SoundDuration":66964,"Delta":62555462},{"NoteNumber":58,"Velocity":25,"Duration":66964,"SoundDuration":66964,"Delta":62555462},{"NoteNumber":42,"Velocity":29,"Duration":133928,"SoundDuration":133928,"Delta":62555462},{"NoteNumber":41,"Velocity":29,"Duration":135135,"SoundDuration":135135,"Delta":62823319},{"NoteNumber":39,"Velocity":29,"Duration":140844,"SoundDuration":140844,"Delta":63093590},{"NoteNumber":37,"Velocity":37,"Duration":273972,"SoundDuration":273972,"Delta":63375280},{"NoteNumber":39,"Velocity":37,"Duration":324324,"SoundDuration":324324,"Delta":64683734},{"NoteNumber":57,"Velocity":46,"Duration":1817067,"SoundDuration":1817067,"Delta":65008059},{"NoteNumber":41,"Velocity":41,"Duration":324324,"SoundDuration":324324,"Delta":65008059},{"NoteNumber":42,"Velocity":38,"Duration":324324,"SoundDuration":324324,"Delta":65332383},{"NoteNumber":65,"Velocity":63,"Duration":1168418,"SoundDuration":1168418,"Delta":65656708},{"NoteNumber":45,"Velocity":49,"Duration":368098,"SoundDuration":368098,"Delta":65656708},{"NoteNumber":46,"Velocity":42,"Duration":392156,"SoundDuration":392156,"Delta":66024806},{"NoteNumber":47,"Velocity":55,"Duration":408163,"SoundDuration":408163,"Delta":66416963},{"NoteNumber":64,"Velocity":68,"Duration":476190,"SoundDuration":476190,"Delta":66825126},{"NoteNumber":58,"Velocity":68,"Duration":476190,"SoundDuration":476190,"Delta":66825126},{"NoteNumber":48,"Velocity":46,"Duration":476190,"SoundDuration":476190,"Delta":66825126},{"NoteNumber":63,"Velocity":49,"Duration":1171978,"SoundDuration":1171978,"Delta":67301317},{"NoteNumber":59,"Velocity":41,"Duration":456499,"SoundDuration":456499,"Delta":67301317},{"NoteNumber":49,"Velocity":29,"Duration":1171978,"SoundDuration":1171978,"Delta":67301317},{"NoteNumber":44,"Velocity":24,"Duration":1171978,"SoundDuration":1171978,"Delta":67301317},{"NoteNumber":74,"Velocity":25,"Duration":66785,"SoundDuration":66785,"Delta":67624951},{"NoteNumber":71,"Velocity":28,"Duration":66079,"SoundDuration":66079,"Delta":67691737},{"NoteNumber":75,"Velocity":33,"Duration":66079,"SoundDuration":66079,"Delta":67691737},{"NoteNumber":56,"Velocity":29,"Duration":66079,"SoundDuration":66079,"Delta":67691737},{"NoteNumber":59,"Velocity":29,"Duration":328972,"SoundDuration":328972,"Delta":67691737},{"NoteNumber":65,"Velocity":29,"Duration":66079,"SoundDuration":66079,"Delta":67691737},{"NoteNumber":72,"Velocity":25,"Duration":66079,"SoundDuration":66079,"Delta":67889974},{"NoteNumber":71,"Velocity":28,"Duration":64655,"SoundDuration":64655,"Delta":67956054},{"NoteNumber":73,"Velocity":33,"Duration":64655,"SoundDuration":64655,"Delta":67956054},{"NoteNumber":56,"Velocity":29,"Duration":64655,"SoundDuration":64655,"Delta":67956054},{"NoteNumber":59,"Velocity":29,"Duration":323275,"SoundDuration":323275,"Delta":67956054},{"NoteNumber":65,"Velocity":29,"Duration":64655,"SoundDuration":64655,"Delta":67956054},{"NoteNumber":74,"Velocity":25,"Duration":64655,"SoundDuration":64655,"Delta":68150019},{"NoteNumber":75,"Velocity":38,"Duration":64655,"SoundDuration":64655,"Delta":68214674},{"NoteNumber":71,"Velocity":38,"Duration":64655,"SoundDuration":64655,"Delta":68214674},{"NoteNumber":59,"Velocity":29,"Duration":258620,"SoundDuration":258620,"Delta":68214674},{"NoteNumber":56,"Velocity":29,"Duration":64655,"SoundDuration":64655,"Delta":68214674},{"NoteNumber":65,"Velocity":29,"Duration":64655,"SoundDuration":64655,"Delta":68214674},{"NoteNumber":74,"Velocity":25,"Duration":66785,"SoundDuration":66785,"Delta":68667260},{"NoteNumber":71,"Velocity":28,"Duration":66079,"SoundDuration":66079,"Delta":68734045},{"NoteNumber":75,"Velocity":33,"Duration":66079,"SoundDuration":66079,"Delta":68734045},{"NoteNumber":56,"Velocity":29,"Duration":66079,"SoundDuration":66079,"Delta":68734045},{"NoteNumber":59,"Velocity":29,"Duration":66079,"SoundDuration":66079,"Delta":68734045},{"NoteNumber":65,"Velocity":29,"Duration":66079,"SoundDuration":66079,"Delta":68734045},{"NoteNumber":72,"Velocity":25,"Duration":66079,"SoundDuration":66079,"Delta":68932283},{"NoteNumber":71,"Velocity":28,"Duration":64655,"SoundDuration":64655,"Delta":68998362},{"NoteNumber":73,"Velocity":33,"Duration":64655,"SoundDuration":64655,"Delta":68998362},{"NoteNumber":56,"Velocity":29,"Duration":64655,"SoundDuration":64655,"Delta":68998362},{"NoteNumber":59,"Velocity":29,"Duration":64655,"SoundDuration":64655,"Delta":68998362},{"NoteNumber":65,"Velocity":29,"Duration":64655,"SoundDuration":64655,"Delta":68998362},{"NoteNumber":74,"Velocity":25,"Duration":64655,"SoundDuration":64655,"Delta":69192328},{"NoteNumber":75,"Velocity":38,"Duration":64655,"SoundDuration":64655,"Delta":69256983},{"NoteNumber":71,"Velocity":38,"Duration":64655,"SoundDuration":64655,"Delta":69256983},{"NoteNumber":59,"Velocity":29,"Duration":64655,"SoundDuration":64655,"Delta":69256983},{"NoteNumber":56,"Velocity":29,"Duration":64655,"SoundDuration":64655,"Delta":69256983},{"NoteNumber":65,"Velocity":29,"Duration":64655,"SoundDuration":64655,"Delta":69256983},{"NoteNumber":57,"Velocity":46,"Duration":2293258,"SoundDuration":2293258,"Delta":70032844},{"NoteNumber":65,"Velocity":63,"Duration":1168418,"SoundDuration":1168418,"Delta":70681493},{"NoteNumber":49,"Velocity":29,"Duration":2816587,"SoundDuration":2816587,"Delta":70681493},{"NoteNumber":64,"Velocity":68,"Duration":476190,"SoundDuration":476190,"Delta":71849912},{"NoteNumber":63,"Velocity":49,"Duration":1171978,"SoundDuration":1171978,"Delta":72326102},{"NoteNumber":58,"Velocity":41,"Duration":456499,"SoundDuration":456499,"Delta":72326102},{"NoteNumber":42,"Velocity":24,"Duration":1171978,"SoundDuration":1171978,"Delta":72326102},{"NoteNumber":74,"Velocity":25,"Duration":66785,"SoundDuration":66785,"Delta":72649737},{"NoteNumber":70,"Velocity":28,"Duration":66079,"SoundDuration":66079,"Delta":72716522},{"NoteNumber":75,"Velocity":33,"Duration":66079,"SoundDuration":66079,"Delta":72716522},{"NoteNumber":58,"Velocity":29,"Duration":328972,"SoundDuration":328972,"Delta":72716522},{"NoteNumber":61,"Velocity":29,"Duration":66079,"SoundDuration":66079,"Delta":72716522},{"NoteNumber":66,"Velocity":29,"Duration":66079,"SoundDuration":66079,"Delta":72716522},{"NoteNumber":72,"Velocity":25,"Duration":66079,"SoundDuration":66079,"Delta":72914760},{"NoteNumber":70,"Velocity":28,"Duration":64655,"SoundDuration":64655,"Delta":72980839},{"NoteNumber":73,"Velocity":33,"Duration":64655,"SoundDuration":64655,"Delta":72980839},{"NoteNumber":58,"Velocity":29,"Duration":323275,"SoundDuration":323275,"Delta":72980839},{"NoteNumber":61,"Velocity":29,"Duration":64655,"SoundDuration":64655,"Delta":72980839},{"NoteNumber":66,"Velocity":29,"Duration":64655,"SoundDuration":64655,"Delta":72980839},{"NoteNumber":74,"Velocity":25,"Duration":64655,"SoundDuration":64655,"Delta":73174805},{"NoteNumber":75,"Velocity":38,"Duration":64655,"SoundDuration":64655,"Delta":73239460},{"NoteNumber":70,"Velocity":38,"Duration":64655,"SoundDuration":64655,"Delta":73239460},{"NoteNumber":61,"Velocity":29,"Duration":64655,"SoundDuration":64655,"Delta":73239460},{"NoteNumber":58,"Velocity":29,"Duration":258620,"SoundDuration":258620,"Delta":73239460},{"NoteNumber":66,"Velocity":29,"Duration":64655,"SoundDuration":64655,"Delta":73239460},{"NoteNumber":74,"Velocity":25,"Duration":66785,"SoundDuration":66785,"Delta":73692046},{"NoteNumber":70,"Velocity":28,"Duration":66079,"SoundDuration":66079,"Delta":73758831},{"NoteNumber":75,"Velocity":33,"Duration":66079,"SoundDuration":66079,"Delta":73758831},{"NoteNumber":58,"Velocity":29,"Duration":66079,"SoundDuration":66079,"Delta":73758831},{"NoteNumber":61,"Velocity":29,"Duration":66079,"SoundDuration":66079,"Delta":73758831},{"NoteNumber":66,"Velocity":29,"Duration":66079,"SoundDuration":66079,"Delta":73758831},{"NoteNumber":72,"Velocity":25,"Duration":66079,"SoundDuration":66079,"Delta":73957069},{"NoteNumber":70,"Velocity":28,"Duration":64655,"SoundDuration":64655,"Delta":74023148},{"NoteNumber":73,"Velocity":33,"Duration":64655,"SoundDuration":64655,"Delta":74023148},{"NoteNumber":58,"Velocity":29,"Duration":64655,"SoundDuration":64655,"Delta":74023148},{"NoteNumber":61,"Velocity":29,"Duration":64655,"SoundDuration":64655,"Delta":74023148},{"NoteNumber":66,"Velocity":29,"Duration":64655,"SoundDuration":64655,"Delta":74023148},{"NoteNumber":74,"Velocity":25,"Duration":64655,"SoundDuration":64655,"Delta":74217113},{"NoteNumber":75,"Velocity":38,"Duration":64655,"SoundDuration":64655,"Delta":74281769},{"NoteNumber":70,"Velocity":38,"Duration":64655,"SoundDuration":64655,"Delta":74281769},{"NoteNumber":61,"Velocity":29,"Duration":64655,"SoundDuration":64655,"Delta":74281769},{"NoteNumber":58,"Velocity":29,"Duration":64655,"SoundDuration":64655,"Delta":74281769},{"NoteNumber":66,"Velocity":29,"Duration":64655,"SoundDuration":64655,"Delta":74281769},{"NoteNumber":69,"Velocity":50,"Duration":648649,"SoundDuration":648649,"Delta":75057630},{"NoteNumber":57,"Velocity":42,"Duration":648649,"SoundDuration":648649,"Delta":75057630},{"NoteNumber":77,"Velocity":63,"Duration":368098,"SoundDuration":368098,"Delta":75706279},{"NoteNumber":65,"Velocity":53,"Duration":368098,"SoundDuration":368098,"Delta":75706279},{"NoteNumber":80,"Velocity":74,"Duration":800320,"SoundDuration":800320,"Delta":76074377},{"NoteNumber":68,"Velocity":62,"Duration":800320,"SoundDuration":800320,"Delta":76074377},{"NoteNumber":78,"Velocity":68,"Duration":476190,"SoundDuration":476190,"Delta":76874698},{"NoteNumber":66,"Velocity":57,"Duration":476190,"SoundDuration":476190,"Delta":76874698},{"NoteNumber":70,"Velocity":57,"Duration":258843,"SoundDuration":258843,"Delta":77350888},{"NoteNumber":75,"Velocity":68,"Duration":129422,"SoundDuration":129422,"Delta":77350888},{"NoteNumber":49,"Velocity":29,"Duration":1054223,"SoundDuration":1054223,"Delta":77350888},{"NoteNumber":78,"Velocity":74,"Duration":258843,"SoundDuration":258843,"Delta":77480310},{"NoteNumber":68,"Velocity":72,"Duration":268439,"SoundDuration":268439,"Delta":77609732},{"NoteNumber":65,"Velocity":49,"Duration":268439,"SoundDuration":268439,"Delta":77609732},{"NoteNumber":56,"Velocity":41,"Duration":795379,"SoundDuration":795379,"Delta":77609732},{"NoteNumber":59,"Velocity":41,"Duration":795379,"SoundDuration":795379,"Delta":77609732},{"NoteNumber":77,"Velocity":68,"Duration":139017,"SoundDuration":139017,"Delta":77739154},{"NoteNumber":73,"Velocity":78,"Duration":526940,"SoundDuration":526940,"Delta":77878172},{"NoteNumber":66,"Velocity":66,"Duration":258843,"SoundDuration":258843,"Delta":77878172},{"NoteNumber":63,"Velocity":49,"Duration":258843,"SoundDuration":258843,"Delta":77878172},{"NoteNumber":65,"Velocity":57,"Duration":268096,"SoundDuration":268096,"Delta":78137016},{"NoteNumber":61,"Velocity":41,"Duration":268096,"SoundDuration":268096,"Delta":78137016},{"NoteNumber":63,"Velocity":48,"Duration":275481,"SoundDuration":275481,"Delta":78405112},{"NoteNumber":68,"Velocity":57,"Duration":137741,"SoundDuration":137741,"Delta":78405112},{"NoteNumber":54,"Velocity":41,"Duration":275481,"SoundDuration":275481,"Delta":78405112},{"NoteNumber":59,"Velocity":34,"Duration":922761,"SoundDuration":922761,"Delta":78405112},{"NoteNumber":71,"Velocity":61,"Duration":287143,"SoundDuration":287143,"Delta":78542853},{"NoteNumber":61,"Velocity":55,"Duration":326080,"SoundDuration":326080,"Delta":78680594},{"NoteNumber":53,"Velocity":41,"Duration":326080,"SoundDuration":326080,"Delta":78680594},{"NoteNumber":70,"Velocity":57,"Duration":176678,"SoundDuration":176678,"Delta":78829997},{"NoteNumber":59,"Velocity":42,"Duration":1744425,"SoundDuration":1744425,"Delta":79006675},{"NoteNumber":61,"Velocity":50,"Duration":687499,"SoundDuration":687499,"Delta":79006675},{"NoteNumber":51,"Velocity":36,"Duration":321199,"SoundDuration":321199,"Delta":79006675},{"NoteNumber":58,"Velocity":42,"Duration":732601,"SoundDuration":732601,"Delta":79327874},{"NoteNumber":49,"Velocity":34,"Duration":732601,"SoundDuration":732601,"Delta":79327874},{"NoteNumber":42,"Velocity":29,"Duration":1381250,"SoundDuration":1381250,"Delta":79694175},{"NoteNumber":49,"Velocity":34,"Duration":690624,"SoundDuration":690624,"Delta":80060475},{"NoteNumber":57,"Velocity":46,"Duration":1408904,"SoundDuration":1408904,"Delta":80426776},{"NoteNumber":49,"Velocity":34,"Duration":692422,"SoundDuration":692422,"Delta":80751100},{"NoteNumber":65,"Velocity":63,"Duration":1168418,"SoundDuration":1168418,"Delta":81075425},{"NoteNumber":43,"Velocity":29,"Duration":1644609,"SoundDuration":1644609,"Delta":81075425},{"NoteNumber":49,"Velocity":42,"Duration":1276510,"SoundDuration":1276510,"Delta":81443523},{"NoteNumber":58,"Velocity":68,"Duration":884354,"SoundDuration":884354,"Delta":81835680},{"NoteNumber":64,"Velocity":68,"Duration":476190,"SoundDuration":476190,"Delta":82243843},{"NoteNumber":63,"Velocity":49,"Duration":978012,"SoundDuration":978012,"Delta":82720034},{"NoteNumber":59,"Velocity":41,"Duration":456499,"SoundDuration":456499,"Delta":82720034},{"NoteNumber":49,"Velocity":29,"Duration":1171978,"SoundDuration":1171978,"Delta":82720034},{"NoteNumber":44,"Velocity":24,"Duration":1171978,"SoundDuration":1171978,"Delta":82720034},{"NoteNumber":74,"Velocity":25,"Duration":66785,"SoundDuration":66785,"Delta":83043668},{"NoteNumber":71,"Velocity":28,"Duration":66079,"SoundDuration":66079,"Delta":83110454},{"NoteNumber":75,"Velocity":33,"Duration":66079,"SoundDuration":66079,"Delta":83110454},{"NoteNumber":56,"Velocity":29,"Duration":66079,"SoundDuration":66079,"Delta":83110454},{"NoteNumber":59,"Velocity":29,"Duration":328972,"SoundDuration":328972,"Delta":83110454},{"NoteNumber":66,"Velocity":29,"Duration":66079,"SoundDuration":66079,"Delta":83110454},{"NoteNumber":72,"Velocity":25,"Duration":66079,"SoundDuration":66079,"Delta":83308691},{"NoteNumber":71,"Velocity":28,"Duration":64655,"SoundDuration":64655,"Delta":83374771},{"NoteNumber":73,"Velocity":33,"Duration":64655,"SoundDuration":64655,"Delta":83374771},{"NoteNumber":56,"Velocity":29,"Duration":64655,"SoundDuration":64655,"Delta":83374771},{"NoteNumber":59,"Velocity":29,"Duration":323275,"SoundDuration":323275,"Delta":83374771},{"NoteNumber":65,"Velocity":29,"Duration":64655,"SoundDuration":64655,"Delta":83374771},{"NoteNumber":74,"Velocity":25,"Duration":64655,"SoundDuration":64655,"Delta":83568736},{"NoteNumber":75,"Velocity":38,"Duration":64655,"SoundDuration":64655,"Delta":83633391},{"NoteNumber":71,"Velocity":38,"Duration":64655,"SoundDuration":64655,"Delta":83633391},{"NoteNumber":59,"Velocity":29,"Duration":258620,"SoundDuration":258620,"Delta":83633391},{"NoteNumber":56,"Velocity":29,"Duration":64655,"SoundDuration":64655,"Delta":83633391},{"NoteNumber":63,"Velocity":29,"Duration":258620,"SoundDuration":258620,"Delta":83633391},{"NoteNumber":54,"Velocity":34,"Duration":285540,"SoundDuration":285540,"Delta":84150632},{"NoteNumber":57,"Velocity":46,"Duration":2293258,"SoundDuration":2293258,"Delta":84436173},{"NoteNumber":53,"Velocity":34,"Duration":324324,"SoundDuration":324324,"Delta":84436173},{"NoteNumber":51,"Velocity":34,"Duration":1084579,"SoundDuration":1084579,"Delta":84760497},{"NoteNumber":65,"Velocity":63,"Duration":1168418,"SoundDuration":1168418,"Delta":85084822},{"NoteNumber":48,"Velocity":32,"Duration":884354,"SoundDuration":884354,"Delta":85845077},{"NoteNumber":64,"Velocity":53,"Duration":476190,"SoundDuration":476190,"Delta":86253240},{"NoteNumber":63,"Velocity":49,"Duration":978012,"SoundDuration":978012,"Delta":86729431},{"NoteNumber":58,"Velocity":41,"Duration":456499,"SoundDuration":456499,"Delta":86729431},{"NoteNumber":49,"Velocity":29,"Duration":1171978,"SoundDuration":1171978,"Delta":86729431},{"NoteNumber":42,"Velocity":24,"Duration":1171978,"SoundDuration":1171978,"Delta":86729431},{"NoteNumber":74,"Velocity":25,"Duration":66785,"SoundDuration":66785,"Delta":87053065},{"NoteNumber":70,"Velocity":28,"Duration":66079,"SoundDuration":66079,"Delta":87119851},{"NoteNumber":75,"Velocity":33,"Duration":66079,"SoundDuration":66079,"Delta":87119851},{"NoteNumber":58,"Velocity":29,"Duration":328972,"SoundDuration":328972,"Delta":87119851},{"NoteNumber":61,"Velocity":29,"Duration":66079,"SoundDuration":66079,"Delta":87119851},{"NoteNumber":66,"Velocity":29,"Duration":66079,"SoundDuration":66079,"Delta":87119851},{"NoteNumber":72,"Velocity":25,"Duration":66079,"SoundDuration":66079,"Delta":87318088},{"NoteNumber":70,"Velocity":28,"Duration":64655,"SoundDuration":64655,"Delta":87384168},{"NoteNumber":73,"Velocity":33,"Duration":64655,"SoundDuration":64655,"Delta":87384168},{"NoteNumber":58,"Velocity":29,"Duration":323275,"SoundDuration":323275,"Delta":87384168},{"NoteNumber":61,"Velocity":29,"Duration":64655,"SoundDuration":64655,"Delta":87384168},{"NoteNumber":65,"Velocity":29,"Duration":64655,"SoundDuration":64655,"Delta":87384168},{"NoteNumber":74,"Velocity":25,"Duration":64655,"SoundDuration":64655,"Delta":87578133},{"NoteNumber":75,"Velocity":38,"Duration":64655,"SoundDuration":64655,"Delta":87642788},{"NoteNumber":70,"Velocity":38,"Duration":64655,"SoundDuration":64655,"Delta":87642788},{"NoteNumber":61,"Velocity":29,"Duration":64655,"SoundDuration":64655,"Delta":87642788},{"NoteNumber":58,"Velocity":29,"Duration":258620,"SoundDuration":258620,"Delta":87642788},{"NoteNumber":63,"Velocity":29,"Duration":258620,"SoundDuration":258620,"Delta":87642788},{"NoteNumber":73,"Velocity":50,"Duration":648649,"SoundDuration":648649,"Delta":88418650},{"NoteNumber":61,"Velocity":42,"Duration":648649,"SoundDuration":648649,"Delta":88418650},{"NoteNumber":81,"Velocity":63,"Duration":368098,"SoundDuration":368098,"Delta":89067299},{"NoteNumber":69,"Velocity":53,"Duration":368098,"SoundDuration":368098,"Delta":89067299},{"NoteNumber":83,"Velocity":74,"Duration":800320,"SoundDuration":800320,"Delta":89435397},{"NoteNumber":71,"Velocity":62,"Duration":800320,"SoundDuration":800320,"Delta":89435397},{"NoteNumber":82,"Velocity":68,"Duration":476190,"SoundDuration":476190,"Delta":90235717},{"NoteNumber":70,"Velocity":57,"Duration":476190,"SoundDuration":476190,"Delta":90235717},{"NoteNumber":70,"Velocity":57,"Duration":258843,"SoundDuration":258843,"Delta":90711908},{"NoteNumber":77,"Velocity":68,"Duration":129422,"SoundDuration":129422,"Delta":90711908},{"NoteNumber":47,"Velocity":29,"Duration":1054223,"SoundDuration":1054223,"Delta":90711908},{"NoteNumber":80,"Velocity":74,"Duration":258843,"SoundDuration":258843,"Delta":90841330},{"NoteNumber":68,"Velocity":72,"Duration":268439,"SoundDuration":268439,"Delta":90970752},{"NoteNumber":59,"Velocity":41,"Duration":795379,"SoundDuration":795379,"Delta":90970752},{"NoteNumber":63,"Velocity":49,"Duration":795379,"SoundDuration":795379,"Delta":90970752},{"NoteNumber":56,"Velocity":30,"Duration":795379,"SoundDuration":795379,"Delta":90970752},{"NoteNumber":54,"Velocity":30,"Duration":795379,"SoundDuration":795379,"Delta":90970752},{"NoteNumber":78,"Velocity":68,"Duration":139017,"SoundDuration":139017,"Delta":91100174},{"NoteNumber":75,"Velocity":78,"Duration":526940,"SoundDuration":526940,"Delta":91239191},{"NoteNumber":66,"Velocity":66,"Duration":258843,"SoundDuration":258843,"Delta":91239191},{"NoteNumber":65,"Velocity":57,"Duration":268096,"SoundDuration":268096,"Delta":91498035},{"NoteNumber":70,"Velocity":57,"Duration":131463,"SoundDuration":131463,"Delta":91766132},{"NoteNumber":63,"Velocity":41,"Duration":262927,"SoundDuration":262927,"Delta":91766132},{"NoteNumber":73,"Velocity":61,"Duration":274185,"SoundDuration":274185,"Delta":91897595},{"NoteNumber":61,"Velocity":41,"Duration":285442,"SoundDuration":285442,"Delta":92029059},{"NoteNumber":71,"Velocity":57,"Duration":142721,"SoundDuration":142721,"Delta":92171780},{"NoteNumber":65,"Velocity":50,"Duration":390964,"SoundDuration":390964,"Delta":92314502},{"NoteNumber":59,"Velocity":36,"Duration":173761,"SoundDuration":173761,"Delta":92314502},{"NoteNumber":58,"Velocity":36,"Duration":173762,"SoundDuration":173762,"Delta":92488264},{"NoteNumber":56,"Velocity":36,"Duration":226367,"SoundDuration":226367,"Delta":92662026},{"NoteNumber":66,"Velocity":50,"Duration":182926,"SoundDuration":182926,"Delta":92705466},{"NoteNumber":54,"Velocity":31,"Duration":4428935,"SoundDuration":4428935,"Delta":92888393},{"NoteNumber":59,"Velocity":31,"Duration":4428935,"SoundDuration":4428935,"Delta":92888393},{"NoteNumber":63,"Velocity":31,"Duration":4428935,"SoundDuration":4428935,"Delta":92888393},{"NoteNumber":46,"Velocity":31,"Duration":131463,"SoundDuration":131463,"Delta":92888393},{"NoteNumber":49,"Velocity":41,"Duration":274185,"SoundDuration":274185,"Delta":93019857},{"NoteNumber":47,"Velocity":37,"Duration":142721,"SoundDuration":142721,"Delta":93294042},{"NoteNumber":37,"Velocity":31,"Duration":707883,"SoundDuration":707883,"Delta":93436763},{"NoteNumber":39,"Velocity":33,"Duration":273997,"SoundDuration":273997,"Delta":94144647},{"NoteNumber":41,"Velocity":27,"Duration":151530,"SoundDuration":151530,"Delta":94418644},{"NoteNumber":39,"Velocity":34,"Duration":275254,"SoundDuration":275254,"Delta":94570175},{"NoteNumber":37,"Velocity":31,"Duration":2471898,"SoundDuration":2471898,"Delta":94845429},{"NoteNumber":70,"Velocity":43,"Duration":132170,"SoundDuration":132170,"Delta":95528108},{"NoteNumber":68,"Velocity":47,"Duration":273997,"SoundDuration":273997,"Delta":95660279},{"NoteNumber":70,"Velocity":41,"Duration":273997,"SoundDuration":273997,"Delta":95934276},{"NoteNumber":70,"Velocity":43,"Duration":131015,"SoundDuration":131015,"Delta":96613287},{"NoteNumber":68,"Velocity":47,"Duration":271518,"SoundDuration":271518,"Delta":96744303},{"NoteNumber":70,"Velocity":41,"Duration":301507,"SoundDuration":301507,"Delta":97015821},{"NoteNumber":54,"Velocity":31,"Duration":1096365,"SoundDuration":1096365,"Delta":97317328},{"NoteNumber":59,"Velocity":31,"Duration":3524284,"SoundDuration":3524284,"Delta":97317328},{"NoteNumber":61,"Velocity":31,"Duration":3524284,"SoundDuration":3524284,"Delta":97317328},{"NoteNumber":46,"Velocity":31,"Duration":131463,"SoundDuration":131463,"Delta":97317328},{"NoteNumber":49,"Velocity":41,"Duration":274185,"SoundDuration":274185,"Delta":97448792},{"NoteNumber":47,"Velocity":37,"Duration":142721,"SoundDuration":142721,"Delta":97722977},{"NoteNumber":37,"Velocity":31,"Duration":136998,"SoundDuration":136998,"Delta":97865698},{"NoteNumber":39,"Velocity":30,"Duration":273997,"SoundDuration":273997,"Delta":98002697},{"NoteNumber":41,"Velocity":33,"Duration":136998,"SoundDuration":136998,"Delta":98276694},{"NoteNumber":53,"Velocity":31,"Duration":2427919,"SoundDuration":2427919,"Delta":98413693},{"NoteNumber":39,"Velocity":30,"Duration":273997,"SoundDuration":273997,"Delta":98413693},{"NoteNumber":37,"Velocity":27,"Duration":2151433,"SoundDuration":2151433,"Delta":98679699},{"NoteNumber":70,"Velocity":34,"Duration":134541,"SoundDuration":134541,"Delta":98824689},{"NoteNumber":68,"Velocity":39,"Duration":285741,"SoundDuration":285741,"Delta":98959231},{"NoteNumber":70,"Velocity":34,"Duration":285741,"SoundDuration":285741,"Delta":99244972},{"NoteNumber":70,"Velocity":33,"Duration":165764,"SoundDuration":165764,"Delta":99959326},{"NoteNumber":68,"Velocity":40,"Duration":357198,"SoundDuration":357198,"Delta":100125090},{"NoteNumber":70,"Velocity":32,"Duration":359324,"SoundDuration":359324,"Delta":100482288},{"NoteNumber":70,"Velocity":39,"Duration":137375,"SoundDuration":137375,"Delta":100841613},{"NoteNumber":68,"Velocity":34,"Duration":137375,"SoundDuration":137375,"Delta":100978988},{"NoteNumber":70,"Velocity":42,"Duration":137375,"SoundDuration":137375,"Delta":101253738},{"NoteNumber":65,"Velocity":45,"Duration":146070,"SoundDuration":146070,"Delta":101391114},{"NoteNumber":70,"Velocity":48,"Duration":103505,"SoundDuration":103505,"Delta":101683255},{"NoteNumber":68,"Velocity":39,"Duration":145363,"SoundDuration":145363,"Delta":101959270},{"NoteNumber":65,"Velocity":34,"Duration":145363,"SoundDuration":145363,"Delta":102104633},{"NoteNumber":63,"Velocity":42,"Duration":145363,"SoundDuration":145363,"Delta":102395359},{"NoteNumber":59,"Velocity":45,"Duration":160102,"SoundDuration":160102,"Delta":102540722},{"NoteNumber":63,"Velocity":48,"Duration":114573,"SoundDuration":114573,"Delta":102860927},{"NoteNumber":58,"Velocity":80,"Duration":103135,"SoundDuration":103135,"Delta":103166457},{"NoteNumber":39,"Velocity":34,"Duration":103135,"SoundDuration":103135,"Delta":103166457},{"NoteNumber":46,"Velocity":40,"Duration":103135,"SoundDuration":103135,"Delta":103166457},{"NoteNumber":58,"Velocity":74,"Duration":137513,"SoundDuration":137513,"Delta":103303970},{"NoteNumber":55,"Velocity":33,"Duration":100115,"SoundDuration":100115,"Delta":103441484},{"NoteNumber":53,"Velocity":28,"Duration":100115,"SoundDuration":100115,"Delta":103441484},{"NoteNumber":60,"Velocity":74,"Duration":133487,"SoundDuration":133487,"Delta":103574972},{"NoteNumber":58,"Velocity":76,"Duration":131833,"SoundDuration":131833,"Delta":103708459},{"NoteNumber":46,"Velocity":47,"Duration":98874,"SoundDuration":98874,"Delta":103708459},{"NoteNumber":39,"Velocity":39,"Duration":98874,"SoundDuration":98874,"Delta":103708459},{"NoteNumber":63,"Velocity":68,"Duration":138830,"SoundDuration":138830,"Delta":103939167},{"NoteNumber":70,"Velocity":80,"Duration":105872,"SoundDuration":105872,"Delta":103972126},{"NoteNumber":53,"Velocity":34,"Duration":105872,"SoundDuration":105872,"Delta":103972126},{"NoteNumber":55,"Velocity":41,"Duration":105872,"SoundDuration":105872,"Delta":103972126},{"NoteNumber":58,"Velocity":80,"Duration":1090710,"SoundDuration":1090710,"Delta":104254452},{"NoteNumber":46,"Velocity":50,"Duration":102254,"SoundDuration":102254,"Delta":104254452},{"NoteNumber":39,"Velocity":42,"Duration":102254,"SoundDuration":102254,"Delta":104254452},{"NoteNumber":53,"Velocity":34,"Duration":102254,"SoundDuration":102254,"Delta":104527130},{"NoteNumber":55,"Velocity":40,"Duration":102254,"SoundDuration":102254,"Delta":104527130},{"NoteNumber":46,"Velocity":43,"Duration":102254,"SoundDuration":102254,"Delta":104799807},{"NoteNumber":39,"Velocity":36,"Duration":102254,"SoundDuration":102254,"Delta":104799807},{"NoteNumber":53,"Velocity":29,"Duration":102254,"SoundDuration":102254,"Delta":105072485},{"NoteNumber":55,"Velocity":35,"Duration":102254,"SoundDuration":102254,"Delta":105072485},{"NoteNumber":58,"Velocity":64,"Duration":128128,"SoundDuration":128128,"Delta":105345162},{"NoteNumber":39,"Velocity":40,"Duration":96096,"SoundDuration":96096,"Delta":105345162},{"NoteNumber":46,"Velocity":40,"Duration":96096,"SoundDuration":96096,"Delta":105345162},{"NoteNumber":56,"Velocity":57,"Duration":128128,"SoundDuration":128128,"Delta":105473291},{"NoteNumber":53,"Velocity":33,"Duration":99285,"SoundDuration":99285,"Delta":105601419},{"NoteNumber":51,"Velocity":33,"Duration":99285,"SoundDuration":99285,"Delta":105601419},{"NoteNumber":58,"Velocity":56,"Duration":132380,"SoundDuration":132380,"Delta":105733799},{"NoteNumber":60,"Velocity":64,"Duration":99285,"SoundDuration":99285,"Delta":105866180},{"NoteNumber":39,"Velocity":40,"Duration":99285,"SoundDuration":99285,"Delta":105866180},{"NoteNumber":46,"Velocity":40,"Duration":99285,"SoundDuration":99285,"Delta":105866180},{"NoteNumber":56,"Velocity":53,"Duration":103135,"SoundDuration":103135,"Delta":106130940},{"NoteNumber":53,"Velocity":35,"Duration":103135,"SoundDuration":103135,"Delta":106130940},{"NoteNumber":51,"Velocity":35,"Duration":103135,"SoundDuration":103135,"Delta":106130940},{"NoteNumber":58,"Velocity":64,"Duration":128128,"SoundDuration":128128,"Delta":106405968},{"NoteNumber":39,"Velocity":40,"Duration":96096,"SoundDuration":96096,"Delta":106405968},{"NoteNumber":46,"Velocity":40,"Duration":96096,"SoundDuration":96096,"Delta":106405968},{"NoteNumber":56,"Velocity":57,"Duration":128128,"SoundDuration":128128,"Delta":106534096},{"NoteNumber":53,"Velocity":33,"Duration":99285,"SoundDuration":99285,"Delta":106662225},{"NoteNumber":51,"Velocity":33,"Duration":99285,"SoundDuration":99285,"Delta":106662225},{"NoteNumber":58,"Velocity":56,"Duration":132380,"SoundDuration":132380,"Delta":106794605},{"NoteNumber":59,"Velocity":64,"Duration":99285,"SoundDuration":99285,"Delta":106926985},{"NoteNumber":39,"Velocity":40,"Duration":99285,"SoundDuration":99285,"Delta":106926985},{"NoteNumber":46,"Velocity":40,"Duration":99285,"SoundDuration":99285,"Delta":106926985},{"NoteNumber":56,"Velocity":53,"Duration":103135,"SoundDuration":103135,"Delta":107191746},{"NoteNumber":53,"Velocity":35,"Duration":103135,"SoundDuration":103135,"Delta":107191746},{"NoteNumber":51,"Velocity":35,"Duration":103135,"SoundDuration":103135,"Delta":107191746},{"NoteNumber":58,"Velocity":64,"Duration":128128,"SoundDuration":128128,"Delta":107466773},{"NoteNumber":46,"Velocity":54,"Duration":128128,"SoundDuration":128128,"Delta":107466773},{"NoteNumber":56,"Velocity":59,"Duration":128128,"SoundDuration":128128,"Delta":107594902},{"NoteNumber":44,"Velocity":50,"Duration":128128,"SoundDuration":128128,"Delta":107594902},{"NoteNumber":53,"Velocity":59,"Duration":99285,"SoundDuration":99285,"Delta":107855410},{"NoteNumber":41,"Velocity":50,"Duration":99285,"SoundDuration":99285,"Delta":107855410},{"NoteNumber":51,"Velocity":61,"Duration":132380,"SoundDuration":132380,"Delta":107987791},{"NoteNumber":39,"Velocity":51,"Duration":132380,"SoundDuration":132380,"Delta":107987791},{"NoteNumber":50,"Velocity":65,"Duration":132380,"SoundDuration":132380,"Delta":108252551},{"NoteNumber":38,"Velocity":55,"Duration":132380,"SoundDuration":132380,"Delta":108252551},{"NoteNumber":48,"Velocity":71,"Duration":135758,"SoundDuration":135758,"Delta":108517312},{"NoteNumber":36,"Velocity":60,"Duration":135758,"SoundDuration":135758,"Delta":108517312},{"NoteNumber":43,"Velocity":68,"Duration":139314,"SoundDuration":139314,"Delta":108788830},{"NoteNumber":31,"Velocity":57,"Duration":139314,"SoundDuration":139314,"Delta":108788830},{"NoteNumber":48,"Velocity":76,"Duration":142436,"SoundDuration":142436,"Delta":109067459},{"NoteNumber":36,"Velocity":64,"Duration":142436,"SoundDuration":142436,"Delta":109067459},{"NoteNumber":50,"Velocity":80,"Duration":142436,"SoundDuration":142436,"Delta":109352332},{"NoteNumber":38,"Velocity":68,"Duration":142436,"SoundDuration":142436,"Delta":109352332},{"NoteNumber":70,"Velocity":80,"Duration":128128,"SoundDuration":128128,"Delta":109637205},{"NoteNumber":39,"Velocity":40,"Duration":96096,"SoundDuration":96096,"Delta":109637205},{"NoteNumber":46,"Velocity":40,"Duration":96096,"SoundDuration":96096,"Delta":109637205},{"NoteNumber":68,"Velocity":74,"Duration":128128,"SoundDuration":128128,"Delta":109765333},{"NoteNumber":63,"Velocity":45,"Duration":132380,"SoundDuration":132380,"Delta":109893462},{"NoteNumber":59,"Velocity":45,"Duration":132380,"SoundDuration":132380,"Delta":109893462},{"NoteNumber":56,"Velocity":33,"Duration":99285,"SoundDuration":99285,"Delta":109893462},{"NoteNumber":53,"Velocity":33,"Duration":99285,"SoundDuration":99285,"Delta":109893462},{"NoteNumber":70,"Velocity":74,"Duration":132380,"SoundDuration":132380,"Delta":110025842},{"NoteNumber":65,"Velocity":76,"Duration":132380,"SoundDuration":132380,"Delta":110158222},{"NoteNumber":39,"Velocity":40,"Duration":99285,"SoundDuration":99285,"Delta":110158222},{"NoteNumber":46,"Velocity":40,"Duration":99285,"SoundDuration":99285,"Delta":110158222},{"NoteNumber":59,"Velocity":45,"Duration":132380,"SoundDuration":132380,"Delta":110422983},{"NoteNumber":63,"Velocity":45,"Duration":132380,"SoundDuration":132380,"Delta":110422983},{"NoteNumber":70,"Velocity":80,"Duration":99285,"SoundDuration":99285,"Delta":110422983},{"NoteNumber":56,"Velocity":35,"Duration":99285,"SoundDuration":99285,"Delta":110422983},{"NoteNumber":53,"Velocity":35,"Duration":99285,"SoundDuration":99285,"Delta":110422983},{"NoteNumber":68,"Velocity":80,"Duration":128128,"SoundDuration":128128,"Delta":110687743},{"NoteNumber":39,"Velocity":40,"Duration":96096,"SoundDuration":96096,"Delta":110687743},{"NoteNumber":46,"Velocity":40,"Duration":96096,"SoundDuration":96096,"Delta":110687743},{"NoteNumber":65,"Velocity":80,"Duration":128128,"SoundDuration":128128,"Delta":110815872},{"NoteNumber":59,"Velocity":45,"Duration":98874,"SoundDuration":98874,"Delta":110944000},{"NoteNumber":56,"Velocity":33,"Duration":98874,"SoundDuration":98874,"Delta":110944000},{"NoteNumber":53,"Velocity":33,"Duration":98874,"SoundDuration":98874,"Delta":110944000},{"NoteNumber":63,"Velocity":74,"Duration":131833,"SoundDuration":131833,"Delta":111075833},{"NoteNumber":59,"Velocity":80,"Duration":137513,"SoundDuration":137513,"Delta":111207667},{"NoteNumber":39,"Velocity":40,"Duration":103135,"SoundDuration":103135,"Delta":111207667},{"NoteNumber":46,"Velocity":40,"Duration":103135,"SoundDuration":103135,"Delta":111207667},{"NoteNumber":63,"Velocity":80,"Duration":65916,"SoundDuration":65916,"Delta":111482694},{"NoteNumber":59,"Velocity":72,"Duration":65916,"SoundDuration":65916,"Delta":111482694},{"NoteNumber":56,"Velocity":33,"Duration":65916,"SoundDuration":65916,"Delta":111482694},{"NoteNumber":53,"Velocity":33,"Duration":65916,"SoundDuration":65916,"Delta":111482694},{"NoteNumber":58,"Velocity":80,"Duration":103135,"SoundDuration":103135,"Delta":111746361},{"NoteNumber":39,"Velocity":34,"Duration":103135,"SoundDuration":103135,"Delta":111746361},{"NoteNumber":46,"Velocity":40,"Duration":103135,"SoundDuration":103135,"Delta":111746361},{"NoteNumber":58,"Velocity":74,"Duration":137513,"SoundDuration":137513,"Delta":111883874},{"NoteNumber":55,"Velocity":33,"Duration":100115,"SoundDuration":100115,"Delta":112021388},{"NoteNumber":53,"Velocity":28,"Duration":100115,"SoundDuration":100115,"Delta":112021388},{"NoteNumber":60,"Velocity":74,"Duration":133487,"SoundDuration":133487,"Delta":112154876},{"NoteNumber":58,"Velocity":76,"Duration":131833,"SoundDuration":131833,"Delta":112288363},{"NoteNumber":46,"Velocity":47,"Duration":98874,"SoundDuration":98874,"Delta":112288363},{"NoteNumber":39,"Velocity":39,"Duration":98874,"SoundDuration":98874,"Delta":112288363},{"NoteNumber":63,"Velocity":68,"Duration":138830,"SoundDuration":138830,"Delta":112519071},{"NoteNumber":70,"Velocity":80,"Duration":105872,"SoundDuration":105872,"Delta":112552030},{"NoteNumber":53,"Velocity":34,"Duration":105872,"SoundDuration":105872,"Delta":112552030},{"NoteNumber":55,"Velocity":41,"Duration":105872,"SoundDuration":105872,"Delta":112552030},{"NoteNumber":58,"Velocity":80,"Duration":1090710,"SoundDuration":1090710,"Delta":112834356},{"NoteNumber":46,"Velocity":50,"Duration":102254,"SoundDuration":102254,"Delta":112834356},{"NoteNumber":39,"Velocity":42,"Duration":102254,"SoundDuration":102254,"Delta":112834356},{"NoteNumber":53,"Velocity":34,"Duration":102254,"SoundDuration":102254,"Delta":113107034},{"NoteNumber":55,"Velocity":40,"Duration":102254,"SoundDuration":102254,"Delta":113107034},{"NoteNumber":46,"Velocity":43,"Duration":102254,"SoundDuration":102254,"Delta":113379711},{"NoteNumber":39,"Velocity":36,"Duration":102254,"SoundDuration":102254,"Delta":113379711},{"NoteNumber":53,"Velocity":29,"Duration":102254,"SoundDuration":102254,"Delta":113652389},{"NoteNumber":55,"Velocity":35,"Duration":102254,"SoundDuration":102254,"Delta":113652389},{"NoteNumber":58,"Velocity":55,"Duration":96096,"SoundDuration":96096,"Delta":113925066},{"NoteNumber":42,"Velocity":34,"Duration":96096,"SoundDuration":96096,"Delta":113925066},{"NoteNumber":49,"Velocity":40,"Duration":96096,"SoundDuration":96096,"Delta":113925066},{"NoteNumber":58,"Velocity":49,"Duration":128128,"SoundDuration":128128,"Delta":114053195},{"NoteNumber":49,"Velocity":28,"Duration":66190,"SoundDuration":66190,"Delta":114181323},{"NoteNumber":56,"Velocity":33,"Duration":99285,"SoundDuration":99285,"Delta":114181323},{"NoteNumber":54,"Velocity":28,"Duration":99285,"SoundDuration":99285,"Delta":114181323},{"NoteNumber":60,"Velocity":53,"Duration":132380,"SoundDuration":132380,"Delta":114313703},{"NoteNumber":58,"Velocity":61,"Duration":99285,"SoundDuration":99285,"Delta":114446084},{"NoteNumber":42,"Velocity":34,"Duration":99285,"SoundDuration":99285,"Delta":114446084},{"NoteNumber":49,"Velocity":40,"Duration":99285,"SoundDuration":99285,"Delta":114446084},{"NoteNumber":61,"Velocity":53,"Duration":103135,"SoundDuration":103135,"Delta":114710844},{"NoteNumber":49,"Velocity":29,"Duration":68756,"SoundDuration":68756,"Delta":114710844},{"NoteNumber":57,"Velocity":35,"Duration":103135,"SoundDuration":103135,"Delta":114710844},{"NoteNumber":54,"Velocity":29,"Duration":103135,"SoundDuration":103135,"Delta":114710844},{"NoteNumber":63,"Velocity":64,"Duration":96096,"SoundDuration":96096,"Delta":114985872},{"NoteNumber":49,"Velocity":43,"Duration":96096,"SoundDuration":96096,"Delta":114985872},{"NoteNumber":42,"Velocity":36,"Duration":96096,"SoundDuration":96096,"Delta":114985872},{"NoteNumber":65,"Velocity":61,"Duration":99285,"SoundDuration":99285,"Delta":115242129},{"NoteNumber":54,"Velocity":31,"Duration":99285,"SoundDuration":99285,"Delta":115242129},{"NoteNumber":58,"Velocity":37,"Duration":99285,"SoundDuration":99285,"Delta":115242129},{"NoteNumber":49,"Velocity":31,"Duration":66190,"SoundDuration":66190,"Delta":115242129},{"NoteNumber":63,"Velocity":65,"Duration":99285,"SoundDuration":99285,"Delta":115506889},{"NoteNumber":49,"Velocity":45,"Duration":99285,"SoundDuration":99285,"Delta":115506889},{"NoteNumber":42,"Velocity":38,"Duration":99285,"SoundDuration":99285,"Delta":115506889},{"NoteNumber":66,"Velocity":71,"Duration":99285,"SoundDuration":99285,"Delta":115771650},{"NoteNumber":54,"Velocity":35,"Duration":99285,"SoundDuration":99285,"Delta":115771650},{"NoteNumber":59,"Velocity":42,"Duration":99285,"SoundDuration":99285,"Delta":115771650},{"NoteNumber":49,"Velocity":35,"Duration":66190,"SoundDuration":66190,"Delta":115771650},{"NoteNumber":65,"Velocity":80,"Duration":103135,"SoundDuration":103135,"Delta":116036410},{"NoteNumber":65,"Velocity":74,"Duration":137513,"SoundDuration":137513,"Delta":116173924},{"NoteNumber":64,"Velocity":67,"Duration":133487,"SoundDuration":133487,"Delta":116311438},{"NoteNumber":61,"Velocity":42,"Duration":100115,"SoundDuration":100115,"Delta":116311438},{"NoteNumber":67,"Velocity":74,"Duration":133487,"SoundDuration":133487,"Delta":116444925},{"NoteNumber":65,"Velocity":76,"Duration":230708,"SoundDuration":230708,"Delta":116578413},{"NoteNumber":60,"Velocity":57,"Duration":263666,"SoundDuration":263666,"Delta":116578413},{"NoteNumber":63,"Velocity":64,"Duration":263666,"SoundDuration":263666,"Delta":116578413},{"NoteNumber":67,"Velocity":68,"Duration":138830,"SoundDuration":138830,"Delta":116809121},{"NoteNumber":74,"Velocity":80,"Duration":105872,"SoundDuration":105872,"Delta":116842079},{"NoteNumber":63,"Velocity":58,"Duration":105872,"SoundDuration":105872,"Delta":116842079},{"NoteNumber":57,"Velocity":49,"Duration":105872,"SoundDuration":105872,"Delta":116842079},{"NoteNumber":53,"Velocity":49,"Duration":70581,"SoundDuration":70581,"Delta":116842079},{"NoteNumber":62,"Velocity":72,"Duration":588120,"SoundDuration":588120,"Delta":117124406},{"NoteNumber":70,"Velocity":85,"Duration":588120,"SoundDuration":588120,"Delta":117124406},{"NoteNumber":53,"Velocity":62,"Duration":294060,"SoundDuration":294060,"Delta":117124406},{"NoteNumber":58,"Velocity":73,"Duration":294060,"SoundDuration":294060,"Delta":117124406},{"NoteNumber":46,"Velocity":62,"Duration":294060,"SoundDuration":294060,"Delta":117124406},{"NoteNumber":94,"Velocity":106,"Duration":294060,"SoundDuration":294060,"Delta":117712526},{"NoteNumber":82,"Velocity":90,"Duration":294060,"SoundDuration":294060,"Delta":117712526},{"NoteNumber":34,"Velocity":60,"Duration":294060,"SoundDuration":294060,"Delta":117712526},{"NoteNumber":46,"Velocity":71,"Duration":294060,"SoundDuration":294060,"Delta":117712526},{"NoteNumber":63,"Velocity":64,"Duration":128128,"SoundDuration":128128,"Delta":118300646},{"NoteNumber":60,"Velocity":54,"Duration":128128,"SoundDuration":128128,"Delta":118300646},{"NoteNumber":56,"Velocity":40,"Duration":96096,"SoundDuration":96096,"Delta":118300646},{"NoteNumber":58,"Velocity":40,"Duration":96096,"SoundDuration":96096,"Delta":118300646},{"NoteNumber":62,"Velocity":48,"Duration":260508,"SoundDuration":260508,"Delta":118428774},{"NoteNumber":65,"Velocity":57,"Duration":260508,"SoundDuration":260508,"Delta":118428774},{"NoteNumber":70,"Velocity":33,"Duration":99285,"SoundDuration":99285,"Delta":118556903},{"NoteNumber":68,"Velocity":33,"Duration":99285,"SoundDuration":99285,"Delta":118556903},{"NoteNumber":67,"Velocity":56,"Duration":132380,"SoundDuration":132380,"Delta":118689283},{"NoteNumber":63,"Velocity":47,"Duration":132380,"SoundDuration":132380,"Delta":118689283},{"NoteNumber":62,"Velocity":54,"Duration":99285,"SoundDuration":99285,"Delta":118821663},{"NoteNumber":65,"Velocity":64,"Duration":99285,"SoundDuration":99285,"Delta":118821663},{"NoteNumber":56,"Velocity":40,"Duration":99285,"SoundDuration":99285,"Delta":118821663},{"NoteNumber":58,"Velocity":40,"Duration":99285,"SoundDuration":99285,"Delta":118821663},{"NoteNumber":60,"Velocity":45,"Duration":106634,"SoundDuration":106634,"Delta":119086424},{"NoteNumber":63,"Velocity":53,"Duration":106634,"SoundDuration":106634,"Delta":119086424},{"NoteNumber":70,"Velocity":35,"Duration":106634,"SoundDuration":106634,"Delta":119086424},{"NoteNumber":68,"Velocity":35,"Duration":106634,"SoundDuration":106634,"Delta":119086424},{"NoteNumber":65,"Velocity":53,"Duration":1159419,"SoundDuration":1159419,"Delta":119370784},{"NoteNumber":62,"Velocity":45,"Duration":1159419,"SoundDuration":1159419,"Delta":119370784},{"NoteNumber":56,"Velocity":40,"Duration":108695,"SoundDuration":108695,"Delta":119370784},{"NoteNumber":58,"Velocity":40,"Duration":108695,"SoundDuration":108695,"Delta":119370784},{"NoteNumber":70,"Velocity":33,"Duration":108695,"SoundDuration":108695,"Delta":119660639},{"NoteNumber":68,"Velocity":33,"Duration":108695,"SoundDuration":108695,"Delta":119660639},{"NoteNumber":94,"Velocity":64,"Duration":289854,"SoundDuration":289854,"Delta":119950494},{"NoteNumber":82,"Velocity":54,"Duration":289854,"SoundDuration":289854,"Delta":119950494},{"NoteNumber":56,"Velocity":40,"Duration":108695,"SoundDuration":108695,"Delta":119950494},{"NoteNumber":58,"Velocity":40,"Duration":108695,"SoundDuration":108695,"Delta":119950494},{"NoteNumber":70,"Velocity":35,"Duration":108695,"SoundDuration":108695,"Delta":120240349},{"NoteNumber":68,"Velocity":35,"Duration":108695,"SoundDuration":108695,"Delta":120240349},{"NoteNumber":60,"Velocity":54,"Duration":128128,"SoundDuration":128128,"Delta":120530204},{"NoteNumber":63,"Velocity":64,"Duration":128128,"SoundDuration":128128,"Delta":120530204},{"NoteNumber":55,"Velocity":40,"Duration":96096,"SoundDuration":96096,"Delta":120530204},{"NoteNumber":58,"Velocity":40,"Duration":96096,"SoundDuration":96096,"Delta":120530204},{"NoteNumber":65,"Velocity":57,"Duration":260508,"SoundDuration":260508,"Delta":120658332},{"NoteNumber":62,"Velocity":48,"Duration":260508,"SoundDuration":260508,"Delta":120658332},{"NoteNumber":70,"Velocity":33,"Duration":99285,"SoundDuration":99285,"Delta":120786461},{"NoteNumber":67,"Velocity":56,"Duration":132380,"SoundDuration":132380,"Delta":120918841},{"NoteNumber":63,"Velocity":47,"Duration":132380,"SoundDuration":132380,"Delta":120918841},{"NoteNumber":65,"Velocity":64,"Duration":99285,"SoundDuration":99285,"Delta":121051221},{"NoteNumber":62,"Velocity":54,"Duration":99285,"SoundDuration":99285,"Delta":121051221},{"NoteNumber":55,"Velocity":40,"Duration":99285,"SoundDuration":99285,"Delta":121051221},{"NoteNumber":58,"Velocity":40,"Duration":99285,"SoundDuration":99285,"Delta":121051221},{"NoteNumber":60,"Velocity":45,"Duration":104651,"SoundDuration":104651,"Delta":121315982},{"NoteNumber":63,"Velocity":53,"Duration":104651,"SoundDuration":104651,"Delta":121315982},{"NoteNumber":70,"Velocity":35,"Duration":104651,"SoundDuration":104651,"Delta":121315982},{"NoteNumber":65,"Velocity":53,"Duration":136363,"SoundDuration":136363,"Delta":121595052},{"NoteNumber":62,"Velocity":45,"Duration":136363,"SoundDuration":136363,"Delta":121595052},{"NoteNumber":55,"Velocity":40,"Duration":136363,"SoundDuration":136363,"Delta":121595052},{"NoteNumber":58,"Velocity":40,"Duration":136363,"SoundDuration":136363,"Delta":121595052},{"NoteNumber":60,"Velocity":53,"Duration":277777,"SoundDuration":277777,"Delta":121867779},{"NoteNumber":63,"Velocity":53,"Duration":277777,"SoundDuration":277777,"Delta":121867779},{"NoteNumber":70,"Velocity":33,"Duration":104166,"SoundDuration":104166,"Delta":121867779},{"NoteNumber":62,"Velocity":53,"Duration":266666,"SoundDuration":266666,"Delta":122145557},{"NoteNumber":65,"Velocity":53,"Duration":266666,"SoundDuration":266666,"Delta":122145557},{"NoteNumber":55,"Velocity":40,"Duration":266666,"SoundDuration":266666,"Delta":122145557},{"NoteNumber":58,"Velocity":40,"Duration":266666,"SoundDuration":266666,"Delta":122145557},{"NoteNumber":70,"Velocity":53,"Duration":133333,"SoundDuration":133333,"Delta":122412224},{"NoteNumber":72,"Velocity":53,"Duration":133333,"SoundDuration":133333,"Delta":122412224},{"NoteNumber":67,"Velocity":53,"Duration":133333,"SoundDuration":133333,"Delta":122412224},{"NoteNumber":63,"Velocity":35,"Duration":99999,"SoundDuration":99999,"Delta":122412224},{"NoteNumber":57,"Velocity":36,"Duration":1070138,"SoundDuration":1070138,"Delta":122692616},{"NoteNumber":61,"Velocity":36,"Duration":1070138,"SoundDuration":1070138,"Delta":122692616},{"NoteNumber":64,"Velocity":42,"Duration":1070138,"SoundDuration":1070138,"Delta":122692616},{"NoteNumber":47,"Velocity":44,"Duration":128128,"SoundDuration":128128,"Delta":122692616},{"NoteNumber":49,"Velocity":39,"Duration":128128,"SoundDuration":128128,"Delta":122820744},{"NoteNumber":51,"Velocity":39,"Duration":132380,"SoundDuration":132380,"Delta":123081253},{"NoteNumber":49,"Velocity":44,"Duration":132380,"SoundDuration":132380,"Delta":123213633},{"NoteNumber":47,"Velocity":37,"Duration":106634,"SoundDuration":106634,"Delta":123478394},{"NoteNumber":56,"Velocity":36,"Duration":1070138,"SoundDuration":1070138,"Delta":123762754},{"NoteNumber":60,"Velocity":36,"Duration":1070138,"SoundDuration":1070138,"Delta":123762754},{"NoteNumber":65,"Velocity":42,"Duration":1070138,"SoundDuration":1070138,"Delta":123762754},{"NoteNumber":46,"Velocity":44,"Duration":128128,"SoundDuration":128128,"Delta":123762754},{"NoteNumber":48,"Velocity":39,"Duration":128128,"SoundDuration":128128,"Delta":123890882},{"NoteNumber":50,"Velocity":39,"Duration":132380,"SoundDuration":132380,"Delta":124151391},{"NoteNumber":48,"Velocity":44,"Duration":132380,"SoundDuration":132380,"Delta":124283771},{"NoteNumber":46,"Velocity":37,"Duration":106634,"SoundDuration":106634,"Delta":124548532},{"NoteNumber":55,"Velocity":30,"Duration":2376515,"SoundDuration":2376515,"Delta":124832892},{"NoteNumber":58,"Velocity":36,"Duration":2376515,"SoundDuration":2376515,"Delta":124832892},{"NoteNumber":53,"Velocity":30,"Duration":1084901,"SoundDuration":1084901,"Delta":124832892},{"NoteNumber":46,"Velocity":37,"Duration":128755,"SoundDuration":128755,"Delta":124832892},{"NoteNumber":48,"Velocity":33,"Duration":128755,"SoundDuration":128755,"Delta":124961647},{"NoteNumber":50,"Velocity":33,"Duration":134529,"SoundDuration":134529,"Delta":125224931},{"NoteNumber":48,"Velocity":37,"Duration":136986,"SoundDuration":136986,"Delta":125359461},{"NoteNumber":46,"Velocity":31,"Duration":106634,"SoundDuration":106634,"Delta":125633433},{"NoteNumber":51,"Velocity":30,"Duration":1291613,"SoundDuration":1291613,"Delta":125917793},{"NoteNumber":46,"Velocity":70,"Duration":128128,"SoundDuration":128128,"Delta":126045922},{"NoteNumber":34,"Velocity":70,"Duration":128128,"SoundDuration":128128,"Delta":126045922},{"NoteNumber":48,"Velocity":69,"Duration":135746,"SoundDuration":135746,"Delta":126174050},{"NoteNumber":36,"Velocity":70,"Duration":135746,"SoundDuration":135746,"Delta":126174050},{"NoteNumber":50,"Velocity":73,"Duration":135746,"SoundDuration":135746,"Delta":126309797},{"NoteNumber":38,"Velocity":73,"Duration":135746,"SoundDuration":135746,"Delta":126309797},{"NoteNumber":48,"Velocity":76,"Duration":144927,"SoundDuration":144927,"Delta":126445543},{"NoteNumber":36,"Velocity":78,"Duration":144927,"SoundDuration":144927,"Delta":126445543},{"NoteNumber":22,"Velocity":74,"Duration":177753,"SoundDuration":177753,"Delta":126735398},{"NoteNumber":34,"Velocity":83,"Duration":177753,"SoundDuration":177753,"Delta":126735398},{"NoteNumber":60,"Velocity":54,"Duration":128128,"SoundDuration":128128,"Delta":127209407},{"NoteNumber":63,"Velocity":64,"Duration":128128,"SoundDuration":128128,"Delta":127209407},{"NoteNumber":56,"Velocity":40,"Duration":96096,"SoundDuration":96096,"Delta":127209407},{"NoteNumber":58,"Velocity":40,"Duration":96096,"SoundDuration":96096,"Delta":127209407},{"NoteNumber":62,"Velocity":48,"Duration":260508,"SoundDuration":260508,"Delta":127337535},{"NoteNumber":65,"Velocity":57,"Duration":260508,"SoundDuration":260508,"Delta":127337535},{"NoteNumber":70,"Velocity":33,"Duration":99285,"SoundDuration":99285,"Delta":127465664},{"NoteNumber":68,"Velocity":33,"Duration":99285,"SoundDuration":99285,"Delta":127465664},{"NoteNumber":67,"Velocity":56,"Duration":132380,"SoundDuration":132380,"Delta":127598044},{"NoteNumber":63,"Velocity":47,"Duration":132380,"SoundDuration":132380,"Delta":127598044},{"NoteNumber":65,"Velocity":64,"Duration":99285,"SoundDuration":99285,"Delta":127730424},{"NoteNumber":62,"Velocity":54,"Duration":99285,"SoundDuration":99285,"Delta":127730424},{"NoteNumber":56,"Velocity":40,"Duration":99285,"SoundDuration":99285,"Delta":127730424},{"NoteNumber":58,"Velocity":40,"Duration":99285,"SoundDuration":99285,"Delta":127730424},{"NoteNumber":63,"Velocity":53,"Duration":106635,"SoundDuration":106635,"Delta":127995185},{"NoteNumber":60,"Velocity":45,"Duration":106635,"SoundDuration":106635,"Delta":127995185},{"NoteNumber":70,"Velocity":35,"Duration":106635,"SoundDuration":106635,"Delta":127995185},{"NoteNumber":68,"Velocity":35,"Duration":106635,"SoundDuration":106635,"Delta":127995185},{"NoteNumber":62,"Velocity":45,"Duration":1185354,"SoundDuration":1185354,"Delta":128279545},{"NoteNumber":65,"Velocity":53,"Duration":1185354,"SoundDuration":1185354,"Delta":128279545},{"NoteNumber":56,"Velocity":40,"Duration":108695,"SoundDuration":108695,"Delta":128279545},{"NoteNumber":58,"Velocity":40,"Duration":108695,"SoundDuration":108695,"Delta":128279545},{"NoteNumber":70,"Velocity":33,"Duration":118421,"SoundDuration":118421,"Delta":128569400},{"NoteNumber":68,"Velocity":33,"Duration":118421,"SoundDuration":118421,"Delta":128569400},{"NoteNumber":94,"Velocity":64,"Duration":289854,"SoundDuration":289854,"Delta":128885189},{"NoteNumber":82,"Velocity":54,"Duration":289854,"SoundDuration":289854,"Delta":128885189},{"NoteNumber":56,"Velocity":40,"Duration":108695,"SoundDuration":108695,"Delta":128885189},{"NoteNumber":58,"Velocity":40,"Duration":108695,"SoundDuration":108695,"Delta":128885189},{"NoteNumber":70,"Velocity":35,"Duration":108695,"SoundDuration":108695,"Delta":129175044},{"NoteNumber":68,"Velocity":35,"Duration":108695,"SoundDuration":108695,"Delta":129175044},{"NoteNumber":60,"Velocity":54,"Duration":128128,"SoundDuration":128128,"Delta":129464899},{"NoteNumber":63,"Velocity":64,"Duration":128128,"SoundDuration":128128,"Delta":129464899},{"NoteNumber":55,"Velocity":40,"Duration":96096,"SoundDuration":96096,"Delta":129464899},{"NoteNumber":58,"Velocity":40,"Duration":96096,"SoundDuration":96096,"Delta":129464899},{"NoteNumber":62,"Velocity":48,"Duration":260508,"SoundDuration":260508,"Delta":129593028},{"NoteNumber":65,"Velocity":57,"Duration":260508,"SoundDuration":260508,"Delta":129593028},{"NoteNumber":67,"Velocity":33,"Duration":99285,"SoundDuration":99285,"Delta":129721156},{"NoteNumber":70,"Velocity":33,"Duration":99285,"SoundDuration":99285,"Delta":129721156},{"NoteNumber":67,"Velocity":56,"Duration":132380,"SoundDuration":132380,"Delta":129853536},{"NoteNumber":63,"Velocity":47,"Duration":132380,"SoundDuration":132380,"Delta":129853536},{"NoteNumber":65,"Velocity":64,"Duration":99285,"SoundDuration":99285,"Delta":129985917},{"NoteNumber":62,"Velocity":54,"Duration":99285,"SoundDuration":99285,"Delta":129985917},{"NoteNumber":55,"Velocity":40,"Duration":99285,"SoundDuration":99285,"Delta":129985917},{"NoteNumber":58,"Velocity":40,"Duration":99285,"SoundDuration":99285,"Delta":129985917},{"NoteNumber":63,"Velocity":53,"Duration":104651,"SoundDuration":104651,"Delta":130250677},{"NoteNumber":60,"Velocity":45,"Duration":104651,"SoundDuration":104651,"Delta":130250677},{"NoteNumber":67,"Velocity":33,"Duration":104651,"SoundDuration":104651,"Delta":130250677},{"NoteNumber":70,"Velocity":35,"Duration":104651,"SoundDuration":104651,"Delta":130250677},{"NoteNumber":62,"Velocity":45,"Duration":136363,"SoundDuration":136363,"Delta":130529747},{"NoteNumber":65,"Velocity":53,"Duration":136363,"SoundDuration":136363,"Delta":130529747},{"NoteNumber":55,"Velocity":40,"Duration":136363,"SoundDuration":136363,"Delta":130529747},{"NoteNumber":58,"Velocity":40,"Duration":136363,"SoundDuration":136363,"Delta":130529747},{"NoteNumber":63,"Velocity":53,"Duration":277778,"SoundDuration":277778,"Delta":130802475},{"NoteNumber":60,"Velocity":53,"Duration":277778,"SoundDuration":277778,"Delta":130802475},{"NoteNumber":67,"Velocity":33,"Duration":104166,"SoundDuration":104166,"Delta":130802475},{"NoteNumber":70,"Velocity":33,"Duration":104166,"SoundDuration":104166,"Delta":130802475},{"NoteNumber":65,"Velocity":53,"Duration":266666,"SoundDuration":266666,"Delta":131080253},{"NoteNumber":62,"Velocity":53,"Duration":266666,"SoundDuration":266666,"Delta":131080253},{"NoteNumber":55,"Velocity":40,"Duration":266666,"SoundDuration":266666,"Delta":131080253},{"NoteNumber":58,"Velocity":40,"Duration":266666,"SoundDuration":266666,"Delta":131080253},{"NoteNumber":70,"Velocity":53,"Duration":133333,"SoundDuration":133333,"Delta":131346919},{"NoteNumber":67,"Velocity":53,"Duration":133333,"SoundDuration":133333,"Delta":131346919},{"NoteNumber":72,"Velocity":53,"Duration":133333,"SoundDuration":133333,"Delta":131346919},{"NoteNumber":63,"Velocity":35,"Duration":99999,"SoundDuration":99999,"Delta":131346919},{"NoteNumber":71,"Velocity":60,"Duration":1620720,"SoundDuration":1620720,"Delta":131613586},{"NoteNumber":82,"Velocity":80,"Duration":132931,"SoundDuration":132931,"Delta":131613586},{"NoteNumber":75,"Velocity":60,"Duration":1620720,"SoundDuration":1620720,"Delta":131613586},{"NoteNumber":59,"Velocity":51,"Duration":1620720,"SoundDuration":1620720,"Delta":131613586},{"NoteNumber":63,"Velocity":51,"Duration":1620720,"SoundDuration":1620720,"Delta":131613586},{"NoteNumber":70,"Velocity":68,"Duration":132931,"SoundDuration":132931,"Delta":131613586},{"NoteNumber":80,"Velocity":74,"Duration":132931,"SoundDuration":132931,"Delta":131746517},{"NoteNumber":68,"Velocity":62,"Duration":132931,"SoundDuration":132931,"Delta":131746517},{"NoteNumber":82,"Velocity":74,"Duration":132931,"SoundDuration":132931,"Delta":132012380},{"NoteNumber":70,"Velocity":62,"Duration":132931,"SoundDuration":132931,"Delta":132012380},{"NoteNumber":77,"Velocity":76,"Duration":139925,"SoundDuration":139925,"Delta":132145312},{"NoteNumber":65,"Velocity":64,"Duration":139925,"SoundDuration":139925,"Delta":132145312},{"NoteNumber":82,"Velocity":80,"Duration":99698,"SoundDuration":99698,"Delta":132425162},{"NoteNumber":70,"Velocity":68,"Duration":99698,"SoundDuration":99698,"Delta":132425162},{"NoteNumber":80,"Velocity":80,"Duration":132931,"SoundDuration":132931,"Delta":132691025},{"NoteNumber":68,"Velocity":68,"Duration":132931,"SoundDuration":132931,"Delta":132691025},{"NoteNumber":77,"Velocity":80,"Duration":132931,"SoundDuration":132931,"Delta":132823957},{"NoteNumber":65,"Velocity":68,"Duration":132931,"SoundDuration":132931,"Delta":132823957},{"NoteNumber":75,"Velocity":74,"Duration":138709,"SoundDuration":138709,"Delta":133095597},{"NoteNumber":63,"Velocity":62,"Duration":138709,"SoundDuration":138709,"Delta":133095597},{"NoteNumber":71,"Velocity":80,"Duration":529520,"SoundDuration":529520,"Delta":133234306},{"NoteNumber":59,"Velocity":68,"Duration":529520,"SoundDuration":529520,"Delta":133234306},{"NoteNumber":68,"Velocity":80,"Duration":130219,"SoundDuration":130219,"Delta":133896207},{"NoteNumber":56,"Velocity":65,"Duration":130219,"SoundDuration":130219,"Delta":133896207},{"NoteNumber":65,"Velocity":79,"Duration":130219,"SoundDuration":130219,"Delta":134026427},{"NoteNumber":53,"Velocity":65,"Duration":130219,"SoundDuration":130219,"Delta":134026427},{"NoteNumber":63,"Velocity":84,"Duration":130219,"SoundDuration":130219,"Delta":134156647},{"NoteNumber":51,"Velocity":67,"Duration":130219,"SoundDuration":130219,"Delta":134156647},{"NoteNumber":59,"Velocity":86,"Duration":139314,"SoundDuration":139314,"Delta":134286867},{"NoteNumber":47,"Velocity":71,"Duration":139314,"SoundDuration":139314,"Delta":134286867},{"NoteNumber":55,"Velocity":97,"Duration":262582,"SoundDuration":262582,"Delta":134565496},{"NoteNumber":50,"Velocity":82,"Duration":262582,"SoundDuration":262582,"Delta":134565496},{"NoteNumber":46,"Velocity":78,"Duration":262582,"SoundDuration":262582,"Delta":134565496},{"NoteNumber":34,"Velocity":66,"Duration":262582,"SoundDuration":262582,"Delta":134565496},{"NoteNumber":58,"Velocity":40,"Duration":98874,"SoundDuration":98874,"Delta":135091744},{"NoteNumber":51,"Velocity":40,"Duration":98874,"SoundDuration":98874,"Delta":135091744},{"NoteNumber":55,"Velocity":33,"Duration":98874,"SoundDuration":98874,"Delta":135091744},{"NoteNumber":53,"Velocity":33,"Duration":98874,"SoundDuration":98874,"Delta":135091744},{"NoteNumber":39,"Velocity":40,"Duration":98874,"SoundDuration":98874,"Delta":135355411},{"NoteNumber":46,"Velocity":40,"Duration":98874,"SoundDuration":98874,"Delta":135355411},{"NoteNumber":58,"Velocity":40,"Duration":110837,"SoundDuration":110837,"Delta":135619077},{"NoteNumber":51,"Velocity":40,"Duration":110837,"SoundDuration":110837,"Delta":135619077},{"NoteNumber":55,"Velocity":33,"Duration":110837,"SoundDuration":110837,"Delta":135619077},{"NoteNumber":53,"Velocity":33,"Duration":110837,"SoundDuration":110837,"Delta":135619077},{"NoteNumber":39,"Velocity":34,"Duration":526316,"SoundDuration":526316,"Delta":135914644},{"NoteNumber":46,"Velocity":40,"Duration":526316,"SoundDuration":526316,"Delta":135914644},{"NoteNumber":51,"Velocity":33,"Duration":98874,"SoundDuration":98874,"Delta":137230942},{"NoteNumber":58,"Velocity":33,"Duration":98874,"SoundDuration":98874,"Delta":137230942},{"NoteNumber":55,"Velocity":27,"Duration":98874,"SoundDuration":98874,"Delta":137230942},{"NoteNumber":53,"Velocity":27,"Duration":98874,"SoundDuration":98874,"Delta":137230942},{"NoteNumber":39,"Velocity":32,"Duration":98874,"SoundDuration":98874,"Delta":137494609},{"NoteNumber":46,"Velocity":32,"Duration":98874,"SoundDuration":98874,"Delta":137494609},{"NoteNumber":51,"Velocity":30,"Duration":110837,"SoundDuration":110837,"Delta":137758275},{"NoteNumber":58,"Velocity":30,"Duration":110837,"SoundDuration":110837,"Delta":137758275},{"NoteNumber":55,"Velocity":24,"Duration":110837,"SoundDuration":110837,"Delta":137758275},{"NoteNumber":53,"Velocity":24,"Duration":110837,"SoundDuration":110837,"Delta":137758275},{"NoteNumber":39,"Velocity":24,"Duration":526316,"SoundDuration":526316,"Delta":138053842},{"NoteNumber":46,"Velocity":28,"Duration":526316,"SoundDuration":526316,"Delta":138053842},{"NoteNumber":58,"Velocity":28,"Duration":107142,"SoundDuration":107142,"Delta":139413817},{"NoteNumber":51,"Velocity":28,"Duration":107142,"SoundDuration":107142,"Delta":139413817},{"NoteNumber":55,"Velocity":22,"Duration":107142,"SoundDuration":107142,"Delta":139413817},{"NoteNumber":53,"Velocity":22,"Duration":107142,"SoundDuration":107142,"Delta":139413817},{"NoteNumber":39,"Velocity":27,"Duration":107142,"SoundDuration":107142,"Delta":139699532},{"NoteNumber":46,"Velocity":27,"Duration":107142,"SoundDuration":107142,"Delta":139699532},{"NoteNumber":58,"Velocity":25,"Duration":116580,"SoundDuration":116580,"Delta":139985246},{"NoteNumber":51,"Velocity":25,"Duration":116580,"SoundDuration":116580,"Delta":139985246},{"NoteNumber":55,"Velocity":21,"Duration":116580,"SoundDuration":116580,"Delta":139985246},{"NoteNumber":53,"Velocity":21,"Duration":116580,"SoundDuration":116580,"Delta":139985246},{"NoteNumber":47,"Velocity":70,"Duration":311828,"SoundDuration":311828,"Delta":140889055},{"NoteNumber":35,"Velocity":59,"Duration":311828,"SoundDuration":311828,"Delta":140889055},{"NoteNumber":46,"Velocity":75,"Duration":78414,"SoundDuration":78414,"Delta":141200883},{"NoteNumber":34,"Velocity":63,"Duration":78414,"SoundDuration":78414,"Delta":141200883},{"NoteNumber":44,"Velocity":77,"Duration":77317,"SoundDuration":77317,"Delta":141272223},{"NoteNumber":32,"Velocity":65,"Duration":77317,"SoundDuration":77317,"Delta":141272223},{"NoteNumber":43,"Velocity":79,"Duration":76513,"SoundDuration":76513,"Delta":141342543},{"NoteNumber":31,"Velocity":67,"Duration":76513,"SoundDuration":76513,"Delta":141342543},{"NoteNumber":41,"Velocity":81,"Duration":76915,"SoundDuration":76915,"Delta":141412156},{"NoteNumber":29,"Velocity":68,"Duration":76915,"SoundDuration":76915,"Delta":141412156},{"NoteNumber":51,"Velocity":85,"Duration":287659,"SoundDuration":287659,"Delta":141481881},{"NoteNumber":27,"Velocity":61,"Duration":287659,"SoundDuration":287659,"Delta":141481881},{"NoteNumber":39,"Velocity":72,"Duration":287659,"SoundDuration":287659,"Delta":141481881},{"NoteNumber":51,"Velocity":89,"Duration":326832,"SoundDuration":326832,"Delta":142632519},{"NoteNumber":27,"Velocity":62,"Duration":326832,"SoundDuration":326832,"Delta":142632519},{"NoteNumber":39,"Velocity":74,"Duration":326832,"SoundDuration":326832,"Delta":142632519}],"license":{"name":"Creative Commons Attribution-ShareAlike 3.0 Germany","url":"http://creativecommons.org/licenses/by-sa/3.0/de/deed.en","text":"The MIDI files in this folder were downloaded from http://www.piano-midi.de and are licensed under the Creative Commons Attribution-ShareAlike 3.0 Germany license by Bernd Krueger.\n\nThe MIDI, audio(MP3, OGG) and video files of Bernd Krueger are licensed under the cc-by-sa Germany License . This means, that you can use and adapt the files, as long as you attribute to the copyright holder Name: Bernd Krueger Source: http://www.piano-midi.de The distribution or public playback of the files is only allowed under identical license conditions . The scores are open source.","attribution":"Bernd Krueger","attributionUrl":"http://www.piano-midi.de"}}