{"title":"Children's Corner: No. 2, Jimbo's Lullaby","artist":"Debussy","durationMs":188834,"midiSha256":"f7543cdada0ee8b7e2e6a1a937a797b730d5e96cd7ab3144a4e04306100d9d61","midiObject":[{"NoteNumber":41,"Velocity":34,"Duration":647738,"SoundDuration":647738,"Delta":0},{"NoteNumber":38,"Velocity":40,"Duration":1295476,"SoundDuration":1295476,"Delta":647738},{"NoteNumber":41,"Velocity":38,"Duration":299491,"SoundDuration":299491,"Delta":1943214},{"NoteNumber":43,"Velocity":38,"Duration":299490,"SoundDuration":299490,"Delta":2242705},{"NoteNumber":36,"Velocity":40,"Duration":310334,"SoundDuration":310334,"Delta":2542196},{"NoteNumber":38,"Velocity":34,"Duration":350181,"SoundDuration":350181,"Delta":2852530},{"NoteNumber":41,"Velocity":40,"Duration":1294917,"SoundDuration":1294917,"Delta":3202711},{"NoteNumber":38,"Velocity":34,"Duration":313577,"SoundDuration":313577,"Delta":4497629},{"NoteNumber":36,"Velocity":31,"Duration":287446,"SoundDuration":287446,"Delta":4811207},{"NoteNumber":36,"Velocity":38,"Duration":313577,"SoundDuration":313577,"Delta":5124785},{"NoteNumber":38,"Velocity":32,"Duration":303297,"SoundDuration":303297,"Delta":5438363},{"NoteNumber":38,"Velocity":35,"Duration":627156,"SoundDuration":627156,"Delta":5769233},{"NoteNumber":36,"Velocity":35,"Duration":637146,"SoundDuration":637146,"Delta":6396389},{"NoteNumber":41,"Velocity":39,"Duration":627156,"SoundDuration":627156,"Delta":7033535},{"NoteNumber":38,"Velocity":33,"Duration":4390092,"SoundDuration":4390092,"Delta":7660691},{"NoteNumber":53,"Velocity":21,"Duration":156788,"SoundDuration":156788,"Delta":8287847},{"NoteNumber":55,"Velocity":25,"Duration":156788,"SoundDuration":156788,"Delta":8287847},{"NoteNumber":53,"Velocity":21,"Duration":156788,"SoundDuration":156788,"Delta":8601425},{"NoteNumber":55,"Velocity":25,"Duration":156788,"SoundDuration":156788,"Delta":8601425},{"NoteNumber":41,"Velocity":19,"Duration":156788,"SoundDuration":156788,"Delta":11423627},{"NoteNumber":43,"Velocity":23,"Duration":156788,"SoundDuration":156788,"Delta":11423627},{"NoteNumber":36,"Velocity":31,"Duration":300993,"SoundDuration":300993,"Delta":12050783},{"NoteNumber":33,"Velocity":27,"Duration":300993,"SoundDuration":300993,"Delta":12351776},{"NoteNumber":31,"Velocity":31,"Duration":300993,"SoundDuration":300993,"Delta":12652770},{"NoteNumber":29,"Velocity":29,"Duration":329055,"SoundDuration":329055,"Delta":12953763},{"NoteNumber":31,"Velocity":31,"Duration":1254312,"SoundDuration":1254312,"Delta":13282819},{"NoteNumber":33,"Velocity":34,"Duration":307157,"SoundDuration":307157,"Delta":14537131},{"NoteNumber":36,"Velocity":31,"Duration":323729,"SoundDuration":323729,"Delta":14844288},{"NoteNumber":31,"Velocity":38,"Duration":637145,"SoundDuration":637145,"Delta":15168017},{"NoteNumber":38,"Velocity":38,"Duration":623895,"SoundDuration":623895,"Delta":15805163},{"NoteNumber":36,"Velocity":33,"Duration":640547,"SoundDuration":640547,"Delta":16429058},{"NoteNumber":33,"Velocity":30,"Duration":661739,"SoundDuration":661739,"Delta":17069605},{"NoteNumber":31,"Velocity":29,"Duration":311947,"SoundDuration":311947,"Delta":17731345},{"NoteNumber":29,"Velocity":24,"Duration":311947,"SoundDuration":311947,"Delta":18043293},{"NoteNumber":31,"Velocity":30,"Duration":650970,"SoundDuration":650970,"Delta":18355240},{"NoteNumber":33,"Velocity":33,"Duration":712842,"SoundDuration":712842,"Delta":19006211},{"NoteNumber":36,"Velocity":37,"Duration":861202,"SoundDuration":861202,"Delta":19719054},{"NoteNumber":79,"Velocity":40,"Duration":2535123,"SoundDuration":2535123,"Delta":20580257},{"NoteNumber":31,"Velocity":30,"Duration":5070247,"SoundDuration":5070247,"Delta":20580257},{"NoteNumber":65,"Velocity":17,"Duration":158445,"SoundDuration":158445,"Delta":21847819},{"NoteNumber":67,"Velocity":21,"Duration":158445,"SoundDuration":158445,"Delta":21847819},{"NoteNumber":55,"Velocity":14,"Duration":158445,"SoundDuration":158445,"Delta":21847819},{"NoteNumber":53,"Velocity":11,"Duration":158445,"SoundDuration":158445,"Delta":21847819},{"NoteNumber":65,"Velocity":17,"Duration":1584452,"SoundDuration":1584452,"Delta":22164710},{"NoteNumber":67,"Velocity":21,"Duration":1584452,"SoundDuration":1584452,"Delta":22164710},{"NoteNumber":55,"Velocity":14,"Duration":1584452,"SoundDuration":1584452,"Delta":22164710},{"NoteNumber":53,"Velocity":11,"Duration":1584452,"SoundDuration":1584452,"Delta":22164710},{"NoteNumber":65,"Velocity":17,"Duration":2518817,"SoundDuration":2518817,"Delta":23749162},{"NoteNumber":67,"Velocity":21,"Duration":2518817,"SoundDuration":2518817,"Delta":23749162},{"NoteNumber":53,"Velocity":11,"Duration":2518817,"SoundDuration":2518817,"Delta":23749162},{"NoteNumber":55,"Velocity":14,"Duration":2518817,"SoundDuration":2518817,"Delta":23749162},{"NoteNumber":63,"Velocity":33,"Duration":2518817,"SoundDuration":2518817,"Delta":25650505},{"NoteNumber":65,"Velocity":17,"Duration":2522010,"SoundDuration":2522010,"Delta":26267980},{"NoteNumber":67,"Velocity":21,"Duration":2522010,"SoundDuration":2522010,"Delta":26267980},{"NoteNumber":53,"Velocity":11,"Duration":2522010,"SoundDuration":2522010,"Delta":26267980},{"NoteNumber":55,"Velocity":14,"Duration":2522010,"SoundDuration":2522010,"Delta":26267980},{"NoteNumber":61,"Velocity":33,"Duration":2522010,"SoundDuration":2522010,"Delta":28169323},{"NoteNumber":65,"Velocity":17,"Duration":2522010,"SoundDuration":2522010,"Delta":28789991},{"NoteNumber":67,"Velocity":21,"Duration":2522010,"SoundDuration":2522010,"Delta":28789991},{"NoteNumber":53,"Velocity":11,"Duration":2522010,"SoundDuration":2522010,"Delta":28789991},{"NoteNumber":55,"Velocity":14,"Duration":2522010,"SoundDuration":2522010,"Delta":28789991},{"NoteNumber":63,"Velocity":33,"Duration":1261215,"SoundDuration":1261215,"Delta":30691334},{"NoteNumber":65,"Velocity":17,"Duration":2545290,"SoundDuration":2545290,"Delta":31312002},{"NoteNumber":67,"Velocity":21,"Duration":2545290,"SoundDuration":2545290,"Delta":31312002},{"NoteNumber":53,"Velocity":11,"Duration":2545290,"SoundDuration":2545290,"Delta":31312002},{"NoteNumber":55,"Velocity":14,"Duration":2545290,"SoundDuration":2545290,"Delta":31312002},{"NoteNumber":63,"Velocity":33,"Duration":1274291,"SoundDuration":1274291,"Delta":31952549},{"NoteNumber":61,"Velocity":35,"Duration":2587109,"SoundDuration":2587109,"Delta":33226841},{"NoteNumber":65,"Velocity":17,"Duration":1956658,"SoundDuration":1956658,"Delta":33857292},{"NoteNumber":67,"Velocity":21,"Duration":1956658,"SoundDuration":1956658,"Delta":33857292},{"NoteNumber":53,"Velocity":11,"Duration":1956658,"SoundDuration":1956658,"Delta":33857292},{"NoteNumber":55,"Velocity":14,"Duration":1956658,"SoundDuration":1956658,"Delta":33857292},{"NoteNumber":39,"Velocity":26,"Duration":2589835,"SoundDuration":2589835,"Delta":35813950},{"NoteNumber":41,"Velocity":22,"Duration":161864,"SoundDuration":161864,"Delta":36461409},{"NoteNumber":43,"Velocity":26,"Duration":161864,"SoundDuration":161864,"Delta":36461409},{"NoteNumber":41,"Velocity":24,"Duration":161864,"SoundDuration":161864,"Delta":36785139},{"NoteNumber":43,"Velocity":29,"Duration":161864,"SoundDuration":161864,"Delta":36785139},{"NoteNumber":37,"Velocity":26,"Duration":3970440,"SoundDuration":3970440,"Delta":38403786},{"NoteNumber":41,"Velocity":19,"Duration":165435,"SoundDuration":165435,"Delta":39727266},{"NoteNumber":43,"Velocity":23,"Duration":165435,"SoundDuration":165435,"Delta":39727266},{"NoteNumber":34,"Velocity":26,"Duration":1506214,"SoundDuration":1506214,"Delta":42374226},{"NoteNumber":30,"Velocity":19,"Duration":1565150,"SoundDuration":1565150,"Delta":43880440},{"NoteNumber":41,"Velocity":19,"Duration":195643,"SoundDuration":195643,"Delta":45445590},{"NoteNumber":43,"Velocity":23,"Duration":195643,"SoundDuration":195643,"Delta":45445590},{"NoteNumber":29,"Velocity":13,"Duration":195643,"SoundDuration":195643,"Delta":45445590},{"NoteNumber":31,"Velocity":15,"Duration":195643,"SoundDuration":195643,"Delta":45445590},{"NoteNumber":67,"Velocity":26,"Duration":672871,"SoundDuration":672871,"Delta":47409965},{"NoteNumber":65,"Velocity":26,"Duration":672871,"SoundDuration":672871,"Delta":47409965},{"NoteNumber":53,"Velocity":13,"Duration":672871,"SoundDuration":672871,"Delta":47409965},{"NoteNumber":55,"Velocity":16,"Duration":672871,"SoundDuration":672871,"Delta":47409965},{"NoteNumber":60,"Velocity":17,"Duration":672872,"SoundDuration":672872,"Delta":48082837},{"NoteNumber":62,"Velocity":21,"Duration":672872,"SoundDuration":672872,"Delta":48082837},{"NoteNumber":50,"Velocity":17,"Duration":672872,"SoundDuration":672872,"Delta":48082837},{"NoteNumber":48,"Velocity":14,"Duration":672872,"SoundDuration":672872,"Delta":48082837},{"NoteNumber":65,"Velocity":24,"Duration":620027,"SoundDuration":620027,"Delta":48755709},{"NoteNumber":67,"Velocity":24,"Duration":620027,"SoundDuration":620027,"Delta":48755709},{"NoteNumber":41,"Velocity":16,"Duration":620027,"SoundDuration":620027,"Delta":48755709},{"NoteNumber":60,"Velocity":17,"Duration":672117,"SoundDuration":672117,"Delta":49375736},{"NoteNumber":62,"Velocity":21,"Duration":672117,"SoundDuration":672117,"Delta":49375736},{"NoteNumber":34,"Velocity":16,"Duration":672117,"SoundDuration":672117,"Delta":49375736},{"NoteNumber":67,"Velocity":25,"Duration":672118,"SoundDuration":672118,"Delta":50047854},{"NoteNumber":65,"Velocity":21,"Duration":672118,"SoundDuration":672118,"Delta":50047854},{"NoteNumber":53,"Velocity":13,"Duration":672118,"SoundDuration":672118,"Delta":50047854},{"NoteNumber":55,"Velocity":16,"Duration":672118,"SoundDuration":672118,"Delta":50047854},{"NoteNumber":60,"Velocity":17,"Duration":672117,"SoundDuration":672117,"Delta":50719972},{"NoteNumber":62,"Velocity":21,"Duration":672117,"SoundDuration":672117,"Delta":50719972},{"NoteNumber":50,"Velocity":16,"Duration":672117,"SoundDuration":672117,"Delta":50719972},{"NoteNumber":48,"Velocity":13,"Duration":672117,"SoundDuration":672117,"Delta":50719972},{"NoteNumber":65,"Velocity":19,"Duration":626500,"SoundDuration":626500,"Delta":51392090},{"NoteNumber":67,"Velocity":23,"Duration":626500,"SoundDuration":626500,"Delta":51392090},{"NoteNumber":41,"Velocity":16,"Duration":626500,"SoundDuration":626500,"Delta":51392090},{"NoteNumber":60,"Velocity":17,"Duration":672117,"SoundDuration":672117,"Delta":52018591},{"NoteNumber":62,"Velocity":21,"Duration":672117,"SoundDuration":672117,"Delta":52018591},{"NoteNumber":34,"Velocity":16,"Duration":672117,"SoundDuration":672117,"Delta":52018591},{"NoteNumber":65,"Velocity":30,"Duration":647737,"SoundDuration":647737,"Delta":52690709},{"NoteNumber":53,"Velocity":13,"Duration":647737,"SoundDuration":647737,"Delta":52690709},{"NoteNumber":55,"Velocity":16,"Duration":647737,"SoundDuration":647737,"Delta":52690709},{"NoteNumber":62,"Velocity":36,"Duration":1295476,"SoundDuration":1295476,"Delta":53338447},{"NoteNumber":50,"Velocity":16,"Duration":647738,"SoundDuration":647738,"Delta":53338447},{"NoteNumber":48,"Velocity":13,"Duration":647738,"SoundDuration":647738,"Delta":53338447},{"NoteNumber":41,"Velocity":16,"Duration":647737,"SoundDuration":647737,"Delta":53986185},{"NoteNumber":65,"Velocity":34,"Duration":299491,"SoundDuration":299491,"Delta":54633923},{"NoteNumber":34,"Velocity":16,"Duration":598981,"SoundDuration":598981,"Delta":54633923},{"NoteNumber":67,"Velocity":34,"Duration":299490,"SoundDuration":299490,"Delta":54933414},{"NoteNumber":60,"Velocity":36,"Duration":310333,"SoundDuration":310333,"Delta":55232905},{"NoteNumber":53,"Velocity":13,"Duration":672784,"SoundDuration":672784,"Delta":55232905},{"NoteNumber":55,"Velocity":16,"Duration":672784,"SoundDuration":672784,"Delta":55232905},{"NoteNumber":62,"Velocity":30,"Duration":362450,"SoundDuration":362450,"Delta":55543239},{"NoteNumber":65,"Velocity":36,"Duration":1294918,"SoundDuration":1294918,"Delta":55905689},{"NoteNumber":50,"Velocity":16,"Duration":647458,"SoundDuration":647458,"Delta":55905689},{"NoteNumber":48,"Velocity":13,"Duration":647458,"SoundDuration":647458,"Delta":55905689},{"NoteNumber":41,"Velocity":16,"Duration":647459,"SoundDuration":647459,"Delta":56553148},{"NoteNumber":62,"Velocity":30,"Duration":313577,"SoundDuration":313577,"Delta":57200607},{"NoteNumber":34,"Velocity":16,"Duration":627155,"SoundDuration":627155,"Delta":57200607},{"NoteNumber":60,"Velocity":27,"Duration":287446,"SoundDuration":287446,"Delta":57514185},{"NoteNumber":60,"Velocity":34,"Duration":302205,"SoundDuration":302205,"Delta":57827763},{"NoteNumber":53,"Velocity":13,"Duration":633075,"SoundDuration":633075,"Delta":57827763},{"NoteNumber":55,"Velocity":16,"Duration":633075,"SoundDuration":633075,"Delta":57827763},{"NoteNumber":62,"Velocity":28,"Duration":303297,"SoundDuration":303297,"Delta":58129969},{"NoteNumber":62,"Velocity":31,"Duration":627155,"SoundDuration":627155,"Delta":58460839},{"NoteNumber":50,"Velocity":16,"Duration":627155,"SoundDuration":627155,"Delta":58460839},{"NoteNumber":48,"Velocity":13,"Duration":627155,"SoundDuration":627155,"Delta":58460839},{"NoteNumber":60,"Velocity":31,"Duration":637146,"SoundDuration":637146,"Delta":59087995},{"NoteNumber":41,"Velocity":16,"Duration":637146,"SoundDuration":637146,"Delta":59087995},{"NoteNumber":65,"Velocity":35,"Duration":672117,"SoundDuration":672117,"Delta":59725141},{"NoteNumber":34,"Velocity":16,"Duration":672117,"SoundDuration":672117,"Delta":59725141},{"NoteNumber":62,"Velocity":29,"Duration":2462068,"SoundDuration":2462068,"Delta":60397259},{"NoteNumber":53,"Velocity":13,"Duration":620027,"SoundDuration":620027,"Delta":60397259},{"NoteNumber":55,"Velocity":16,"Duration":620027,"SoundDuration":620027,"Delta":60397259},{"NoteNumber":50,"Velocity":16,"Duration":620027,"SoundDuration":620027,"Delta":61017286},{"NoteNumber":48,"Velocity":13,"Duration":620027,"SoundDuration":620027,"Delta":61017286},{"NoteNumber":41,"Velocity":16,"Duration":620027,"SoundDuration":620027,"Delta":61637313},{"NoteNumber":72,"Velocity":33,"Duration":300993,"SoundDuration":300993,"Delta":62257340},{"NoteNumber":34,"Velocity":16,"Duration":601987,"SoundDuration":601987,"Delta":62257340},{"NoteNumber":69,"Velocity":29,"Duration":300993,"SoundDuration":300993,"Delta":62558333},{"NoteNumber":60,"Velocity":21,"Duration":2523786,"SoundDuration":2523786,"Delta":62859327},{"NoteNumber":62,"Velocity":21,"Duration":2523786,"SoundDuration":2523786,"Delta":62859327},{"NoteNumber":67,"Velocity":33,"Duration":300993,"SoundDuration":300993,"Delta":62859327},{"NoteNumber":55,"Velocity":16,"Duration":648738,"SoundDuration":648738,"Delta":62859327},{"NoteNumber":53,"Velocity":13,"Duration":648738,"SoundDuration":648738,"Delta":62859327},{"NoteNumber":65,"Velocity":32,"Duration":347745,"SoundDuration":347745,"Delta":63160320},{"NoteNumber":67,"Velocity":33,"Duration":1254311,"SoundDuration":1254311,"Delta":63508066},{"NoteNumber":50,"Velocity":16,"Duration":627155,"SoundDuration":627155,"Delta":63508066},{"NoteNumber":48,"Velocity":13,"Duration":627155,"SoundDuration":627155,"Delta":63508066},{"NoteNumber":41,"Velocity":16,"Duration":627155,"SoundDuration":627155,"Delta":64135222},{"NoteNumber":69,"Velocity":37,"Duration":307157,"SoundDuration":307157,"Delta":64762378},{"NoteNumber":34,"Velocity":16,"Duration":620735,"SoundDuration":620735,"Delta":64762378},{"NoteNumber":72,"Velocity":33,"Duration":313578,"SoundDuration":313578,"Delta":65069535},{"NoteNumber":60,"Velocity":21,"Duration":2552559,"SoundDuration":2552559,"Delta":65383113},{"NoteNumber":62,"Velocity":21,"Duration":2552559,"SoundDuration":2552559,"Delta":65383113},{"NoteNumber":67,"Velocity":42,"Duration":637146,"SoundDuration":637146,"Delta":65383113},{"NoteNumber":55,"Velocity":16,"Duration":637146,"SoundDuration":637146,"Delta":65383113},{"NoteNumber":53,"Velocity":13,"Duration":637146,"SoundDuration":637146,"Delta":65383113},{"NoteNumber":74,"Velocity":42,"Duration":623895,"SoundDuration":623895,"Delta":66020259},{"NoteNumber":50,"Velocity":16,"Duration":623895,"SoundDuration":623895,"Delta":66020259},{"NoteNumber":48,"Velocity":13,"Duration":623895,"SoundDuration":623895,"Delta":66020259},{"NoteNumber":72,"Velocity":35,"Duration":640546,"SoundDuration":640546,"Delta":66644154},{"NoteNumber":41,"Velocity":16,"Duration":640546,"SoundDuration":640546,"Delta":66644154},{"NoteNumber":69,"Velocity":33,"Duration":650970,"SoundDuration":650970,"Delta":67284701},{"NoteNumber":34,"Velocity":16,"Duration":650970,"SoundDuration":650970,"Delta":67284701},{"NoteNumber":60,"Velocity":21,"Duration":2616934,"SoundDuration":2616934,"Delta":67935672},{"NoteNumber":62,"Velocity":21,"Duration":2616934,"SoundDuration":2616934,"Delta":67935672},{"NoteNumber":67,"Velocity":32,"Duration":294782,"SoundDuration":294782,"Delta":67935672},{"NoteNumber":53,"Velocity":13,"Duration":606405,"SoundDuration":606405,"Delta":67935672},{"NoteNumber":55,"Velocity":16,"Duration":606405,"SoundDuration":606405,"Delta":67935672},{"NoteNumber":65,"Velocity":26,"Duration":311623,"SoundDuration":311623,"Delta":68230455},{"NoteNumber":67,"Velocity":33,"Duration":650970,"SoundDuration":650970,"Delta":68542078},{"NoteNumber":48,"Velocity":13,"Duration":650970,"SoundDuration":650970,"Delta":68542078},{"NoteNumber":50,"Velocity":16,"Duration":650970,"SoundDuration":650970,"Delta":68542078},{"NoteNumber":69,"Velocity":35,"Duration":633780,"SoundDuration":633780,"Delta":69193049},{"NoteNumber":41,"Velocity":16,"Duration":633780,"SoundDuration":633780,"Delta":69193049},{"NoteNumber":72,"Velocity":41,"Duration":725776,"SoundDuration":725776,"Delta":69826830},{"NoteNumber":34,"Velocity":16,"Duration":725776,"SoundDuration":725776,"Delta":69826830},{"NoteNumber":60,"Velocity":21,"Duration":2502056,"SoundDuration":2502056,"Delta":70552607},{"NoteNumber":62,"Velocity":21,"Duration":2502056,"SoundDuration":2502056,"Delta":70552607},{"NoteNumber":67,"Velocity":34,"Duration":2502056,"SoundDuration":2502056,"Delta":70552607},{"NoteNumber":53,"Velocity":13,"Duration":633780,"SoundDuration":633780,"Delta":70552607},{"NoteNumber":55,"Velocity":16,"Duration":633780,"SoundDuration":633780,"Delta":70552607},{"NoteNumber":48,"Velocity":13,"Duration":633780,"SoundDuration":633780,"Delta":71186388},{"NoteNumber":50,"Velocity":16,"Duration":633780,"SoundDuration":633780,"Delta":71186388},{"NoteNumber":41,"Velocity":16,"Duration":601382,"SoundDuration":601382,"Delta":71820169},{"NoteNumber":34,"Velocity":16,"Duration":633111,"SoundDuration":633111,"Delta":72421552},{"NoteNumber":32,"Velocity":33,"Duration":2493150,"SoundDuration":2493150,"Delta":73054664},{"NoteNumber":44,"Velocity":21,"Duration":148118,"SoundDuration":148118,"Delta":73687776},{"NoteNumber":46,"Velocity":25,"Duration":148118,"SoundDuration":148118,"Delta":73687776},{"NoteNumber":44,"Velocity":21,"Duration":930019,"SoundDuration":930019,"Delta":73984014},{"NoteNumber":46,"Velocity":25,"Duration":930019,"SoundDuration":930019,"Delta":73984014},{"NoteNumber":43,"Velocity":31,"Duration":633780,"SoundDuration":633780,"Delta":74280252},{"NoteNumber":44,"Velocity":21,"Duration":158445,"SoundDuration":158445,"Delta":74914033},{"NoteNumber":46,"Velocity":25,"Duration":158445,"SoundDuration":158445,"Delta":74914033},{"NoteNumber":32,"Velocity":33,"Duration":2431380,"SoundDuration":2431380,"Delta":75547814},{"NoteNumber":41,"Velocity":25,"Duration":151103,"SoundDuration":151103,"Delta":76181311},{"NoteNumber":41,"Velocity":25,"Duration":151103,"SoundDuration":151103,"Delta":76483517},{"NoteNumber":39,"Velocity":31,"Duration":575428,"SoundDuration":575428,"Delta":76786151},{"NoteNumber":46,"Velocity":31,"Duration":563525,"SoundDuration":563525,"Delta":77073866},{"NoteNumber":44,"Velocity":26,"Duration":563525,"SoundDuration":563525,"Delta":77073866},{"NoteNumber":48,"Velocity":36,"Duration":275811,"SoundDuration":275811,"Delta":77361580},{"NoteNumber":58,"Velocity":37,"Duration":341802,"SoundDuration":341802,"Delta":77637392},{"NoteNumber":56,"Velocity":31,"Duration":341802,"SoundDuration":341802,"Delta":77637392},{"NoteNumber":32,"Velocity":33,"Duration":4298348,"SoundDuration":4298348,"Delta":77979194},{"NoteNumber":44,"Velocity":21,"Duration":142680,"SoundDuration":142680,"Delta":78612975},{"NoteNumber":46,"Velocity":25,"Duration":142680,"SoundDuration":142680,"Delta":78612975},{"NoteNumber":44,"Velocity":21,"Duration":919142,"SoundDuration":919142,"Delta":78898336},{"NoteNumber":46,"Velocity":25,"Duration":919142,"SoundDuration":919142,"Delta":78898336},{"NoteNumber":43,"Velocity":31,"Duration":633780,"SoundDuration":633780,"Delta":79183697},{"NoteNumber":44,"Velocity":21,"Duration":158445,"SoundDuration":158445,"Delta":79817478},{"NoteNumber":46,"Velocity":25,"Duration":158445,"SoundDuration":158445,"Delta":79817478},{"NoteNumber":41,"Velocity":31,"Duration":633497,"SoundDuration":633497,"Delta":80451259},{"NoteNumber":48,"Velocity":31,"Duration":149805,"SoundDuration":149805,"Delta":81084757},{"NoteNumber":46,"Velocity":26,"Duration":149805,"SoundDuration":149805,"Delta":81084757},{"NoteNumber":58,"Velocity":31,"Duration":148265,"SoundDuration":148265,"Delta":81684482},{"NoteNumber":60,"Velocity":37,"Duration":148265,"SoundDuration":148265,"Delta":81684482},{"NoteNumber":32,"Velocity":29,"Duration":637146,"SoundDuration":637146,"Delta":82277543},{"NoteNumber":44,"Velocity":37,"Duration":581564,"SoundDuration":581564,"Delta":82914689},{"NoteNumber":58,"Velocity":26,"Duration":143307,"SoundDuration":143307,"Delta":83496253},{"NoteNumber":61,"Velocity":26,"Duration":143307,"SoundDuration":143307,"Delta":83496253},{"NoteNumber":66,"Velocity":31,"Duration":143307,"SoundDuration":143307,"Delta":83496253},{"NoteNumber":46,"Velocity":34,"Duration":590350,"SoundDuration":590350,"Delta":83496253},{"NoteNumber":58,"Velocity":26,"Duration":151867,"SoundDuration":151867,"Delta":83782868},{"NoteNumber":61,"Velocity":26,"Duration":151867,"SoundDuration":151867,"Delta":83782868},{"NoteNumber":66,"Velocity":31,"Duration":151867,"SoundDuration":151867,"Delta":83782868},{"NoteNumber":65,"Velocity":29,"Duration":578760,"SoundDuration":578760,"Delta":84086604},{"NoteNumber":60,"Velocity":24,"Duration":578760,"SoundDuration":578760,"Delta":84086604},{"NoteNumber":56,"Velocity":24,"Duration":578760,"SoundDuration":578760,"Delta":84086604},{"NoteNumber":44,"Velocity":30,"Duration":578760,"SoundDuration":578760,"Delta":84086604},{"NoteNumber":65,"Velocity":25,"Duration":578760,"SoundDuration":578760,"Delta":84665364},{"NoteNumber":60,"Velocity":21,"Duration":578760,"SoundDuration":578760,"Delta":84665364},{"NoteNumber":56,"Velocity":21,"Duration":578760,"SoundDuration":578760,"Delta":84665364},{"NoteNumber":32,"Velocity":31,"Duration":578760,"SoundDuration":578760,"Delta":84665364},{"NoteNumber":44,"Velocity":37,"Duration":590145,"SoundDuration":590145,"Delta":85244124},{"NoteNumber":54,"Velocity":26,"Duration":142626,"SoundDuration":142626,"Delta":85834269},{"NoteNumber":58,"Velocity":26,"Duration":142626,"SoundDuration":142626,"Delta":85834269},{"NoteNumber":63,"Velocity":31,"Duration":142626,"SoundDuration":142626,"Delta":85834269},{"NoteNumber":46,"Velocity":34,"Duration":570504,"SoundDuration":570504,"Delta":85834269},{"NoteNumber":54,"Velocity":26,"Duration":142626,"SoundDuration":142626,"Delta":86119521},{"NoteNumber":58,"Velocity":26,"Duration":142626,"SoundDuration":142626,"Delta":86119521},{"NoteNumber":63,"Velocity":31,"Duration":142626,"SoundDuration":142626,"Delta":86119521},{"NoteNumber":61,"Velocity":29,"Duration":620667,"SoundDuration":620667,"Delta":86404774},{"NoteNumber":56,"Velocity":24,"Duration":620667,"SoundDuration":620667,"Delta":86404774},{"NoteNumber":53,"Velocity":24,"Duration":620667,"SoundDuration":620667,"Delta":86404774},{"NoteNumber":44,"Velocity":30,"Duration":620667,"SoundDuration":620667,"Delta":86404774},{"NoteNumber":59,"Velocity":21,"Duration":581564,"SoundDuration":581564,"Delta":87025442},{"NoteNumber":70,"Velocity":35,"Duration":581564,"SoundDuration":581564,"Delta":87025442},{"NoteNumber":65,"Velocity":27,"Duration":581564,"SoundDuration":581564,"Delta":87025442},{"NoteNumber":62,"Velocity":21,"Duration":581564,"SoundDuration":581564,"Delta":87025442},{"NoteNumber":32,"Velocity":31,"Duration":581564,"SoundDuration":581564,"Delta":87025442},{"NoteNumber":44,"Velocity":37,"Duration":581564,"SoundDuration":581564,"Delta":87607006},{"NoteNumber":58,"Velocity":26,"Duration":136202,"SoundDuration":136202,"Delta":88188570},{"NoteNumber":61,"Velocity":26,"Duration":136202,"SoundDuration":136202,"Delta":88188570},{"NoteNumber":66,"Velocity":31,"Duration":136202,"SoundDuration":136202,"Delta":88188570},{"NoteNumber":46,"Velocity":34,"Duration":544810,"SoundDuration":544810,"Delta":88188570},{"NoteNumber":58,"Velocity":26,"Duration":136202,"SoundDuration":136202,"Delta":88460975},{"NoteNumber":61,"Velocity":26,"Duration":136202,"SoundDuration":136202,"Delta":88460975},{"NoteNumber":66,"Velocity":31,"Duration":136202,"SoundDuration":136202,"Delta":88460975},{"NoteNumber":65,"Velocity":29,"Duration":131428,"SoundDuration":131428,"Delta":88733381},{"NoteNumber":60,"Velocity":24,"Duration":131428,"SoundDuration":131428,"Delta":88733381},{"NoteNumber":56,"Velocity":24,"Duration":131428,"SoundDuration":131428,"Delta":88733381},{"NoteNumber":44,"Velocity":30,"Duration":535263,"SoundDuration":535263,"Delta":88733381},{"NoteNumber":56,"Velocity":22,"Duration":136202,"SoundDuration":136202,"Delta":88996239},{"NoteNumber":60,"Velocity":22,"Duration":136202,"SoundDuration":136202,"Delta":88996239},{"NoteNumber":65,"Velocity":27,"Duration":136202,"SoundDuration":136202,"Delta":88996239},{"NoteNumber":65,"Velocity":25,"Duration":141951,"SoundDuration":141951,"Delta":89268644},{"NoteNumber":60,"Velocity":21,"Duration":141951,"SoundDuration":141951,"Delta":89268644},{"NoteNumber":56,"Velocity":21,"Duration":141951,"SoundDuration":141951,"Delta":89268644},{"NoteNumber":32,"Velocity":31,"Duration":577530,"SoundDuration":577530,"Delta":89268644},{"NoteNumber":56,"Velocity":19,"Duration":146814,"SoundDuration":146814,"Delta":89552547},{"NoteNumber":60,"Velocity":19,"Duration":146814,"SoundDuration":146814,"Delta":89552547},{"NoteNumber":65,"Velocity":23,"Duration":146814,"SoundDuration":146814,"Delta":89552547},{"NoteNumber":44,"Velocity":37,"Duration":590145,"SoundDuration":590145,"Delta":89846175},{"NoteNumber":54,"Velocity":26,"Duration":142626,"SoundDuration":142626,"Delta":90436320},{"NoteNumber":58,"Velocity":26,"Duration":142626,"SoundDuration":142626,"Delta":90436320},{"NoteNumber":63,"Velocity":31,"Duration":142626,"SoundDuration":142626,"Delta":90436320},{"NoteNumber":46,"Velocity":34,"Duration":570504,"SoundDuration":570504,"Delta":90436320},{"NoteNumber":54,"Velocity":26,"Duration":142626,"SoundDuration":142626,"Delta":90721573},{"NoteNumber":58,"Velocity":26,"Duration":142626,"SoundDuration":142626,"Delta":90721573},{"NoteNumber":63,"Velocity":31,"Duration":142626,"SoundDuration":142626,"Delta":90721573},{"NoteNumber":61,"Velocity":29,"Duration":605022,"SoundDuration":605022,"Delta":91006825},{"NoteNumber":58,"Velocity":24,"Duration":605022,"SoundDuration":605022,"Delta":91006825},{"NoteNumber":54,"Velocity":24,"Duration":605022,"SoundDuration":605022,"Delta":91006825},{"NoteNumber":44,"Velocity":30,"Duration":605022,"SoundDuration":605022,"Delta":91006825},{"NoteNumber":53,"Velocity":21,"Duration":581564,"SoundDuration":581564,"Delta":91611847},{"NoteNumber":63,"Velocity":27,"Duration":581564,"SoundDuration":581564,"Delta":91611847},{"NoteNumber":56,"Velocity":21,"Duration":581564,"SoundDuration":581564,"Delta":91611847},{"NoteNumber":32,"Velocity":31,"Duration":581564,"SoundDuration":581564,"Delta":91611847},{"NoteNumber":52,"Velocity":19,"Duration":2942685,"SoundDuration":2942685,"Delta":92193411},{"NoteNumber":55,"Velocity":19,"Duration":2942685,"SoundDuration":2942685,"Delta":92193411},{"NoteNumber":58,"Velocity":24,"Duration":2942685,"SoundDuration":2942685,"Delta":92193411},{"NoteNumber":44,"Velocity":37,"Duration":596007,"SoundDuration":596007,"Delta":92193411},{"NoteNumber":46,"Velocity":34,"Duration":581564,"SoundDuration":581564,"Delta":92789418},{"NoteNumber":44,"Velocity":30,"Duration":581564,"SoundDuration":581564,"Delta":93370982},{"NoteNumber":32,"Velocity":31,"Duration":601986,"SoundDuration":601986,"Delta":93952546},{"NoteNumber":44,"Velocity":37,"Duration":581564,"SoundDuration":581564,"Delta":94554533},{"NoteNumber":46,"Velocity":34,"Duration":581564,"SoundDuration":581564,"Delta":95136097},{"NoteNumber":44,"Velocity":30,"Duration":581564,"SoundDuration":581564,"Delta":95717661},{"NoteNumber":34,"Velocity":31,"Duration":305592,"SoundDuration":305592,"Delta":96299225},{"NoteNumber":51,"Velocity":20,"Duration":995271,"SoundDuration":995271,"Delta":96910410},{"NoteNumber":55,"Velocity":24,"Duration":1990543,"SoundDuration":1990543,"Delta":96910410},{"NoteNumber":33,"Velocity":31,"Duration":124408,"SoundDuration":124408,"Delta":96910410},{"NoteNumber":45,"Velocity":24,"Duration":124408,"SoundDuration":124408,"Delta":97159228},{"NoteNumber":35,"Velocity":32,"Duration":124408,"SoundDuration":124408,"Delta":97408046},{"NoteNumber":47,"Velocity":25,"Duration":124408,"SoundDuration":124408,"Delta":97656864},{"NoteNumber":49,"Velocity":20,"Duration":995271,"SoundDuration":995271,"Delta":97905682},{"NoteNumber":33,"Velocity":31,"Duration":124408,"SoundDuration":124408,"Delta":97905682},{"NoteNumber":45,"Velocity":25,"Duration":124408,"SoundDuration":124408,"Delta":98154500},{"NoteNumber":35,"Velocity":29,"Duration":124408,"SoundDuration":124408,"Delta":98403318},{"NoteNumber":47,"Velocity":25,"Duration":124408,"SoundDuration":124408,"Delta":98652136},{"NoteNumber":51,"Velocity":20,"Duration":497635,"SoundDuration":497635,"Delta":98900954},{"NoteNumber":55,"Velocity":24,"Duration":1990815,"SoundDuration":1990815,"Delta":98900954},{"NoteNumber":33,"Velocity":31,"Duration":124408,"SoundDuration":124408,"Delta":98900954},{"NoteNumber":45,"Velocity":24,"Duration":124408,"SoundDuration":124408,"Delta":99149772},{"NoteNumber":51,"Velocity":20,"Duration":497635,"SoundDuration":497635,"Delta":99398590},{"NoteNumber":35,"Velocity":32,"Duration":124408,"SoundDuration":124408,"Delta":99398590},{"NoteNumber":47,"Velocity":25,"Duration":124408,"SoundDuration":124408,"Delta":99647408},{"NoteNumber":49,"Velocity":20,"Duration":995543,"SoundDuration":995543,"Delta":99896226},{"NoteNumber":33,"Velocity":31,"Duration":124408,"SoundDuration":124408,"Delta":99896226},{"NoteNumber":45,"Velocity":25,"Duration":124408,"SoundDuration":124408,"Delta":100145044},{"NoteNumber":35,"Velocity":29,"Duration":124408,"SoundDuration":124408,"Delta":100393862},{"NoteNumber":47,"Velocity":25,"Duration":124408,"SoundDuration":124408,"Delta":100642680},{"NoteNumber":67,"Velocity":24,"Duration":1930924,"SoundDuration":1930924,"Delta":100891769},{"NoteNumber":63,"Velocity":24,"Duration":1930924,"SoundDuration":1930924,"Delta":100891769},{"NoteNumber":55,"Velocity":24,"Duration":1930924,"SoundDuration":1930924,"Delta":100891769},{"NoteNumber":33,"Velocity":31,"Duration":125314,"SoundDuration":125314,"Delta":100891769},{"NoteNumber":45,"Velocity":24,"Duration":124070,"SoundDuration":124070,"Delta":101141774},{"NoteNumber":35,"Velocity":33,"Duration":122750,"SoundDuration":122750,"Delta":101389273},{"NoteNumber":47,"Velocity":27,"Duration":121557,"SoundDuration":121557,"Delta":101634175},{"NoteNumber":37,"Velocity":34,"Duration":120289,"SoundDuration":120289,"Delta":101876672},{"NoteNumber":49,"Velocity":28,"Duration":119143,"SoundDuration":119143,"Delta":102116676},{"NoteNumber":39,"Velocity":34,"Duration":117925,"SoundDuration":117925,"Delta":102354370},{"NoteNumber":51,"Velocity":30,"Duration":116823,"SoundDuration":116823,"Delta":102589668},{"NoteNumber":73,"Velocity":31,"Duration":1932547,"SoundDuration":1932547,"Delta":102822694},{"NoteNumber":69,"Velocity":31,"Duration":1932547,"SoundDuration":1932547,"Delta":102822694},{"NoteNumber":61,"Velocity":31,"Duration":1932547,"SoundDuration":1932547,"Delta":102822694},{"NoteNumber":41,"Velocity":40,"Duration":114906,"SoundDuration":114906,"Delta":102822694},{"NoteNumber":53,"Velocity":30,"Duration":115973,"SoundDuration":115973,"Delta":103053038},{"NoteNumber":39,"Velocity":39,"Duration":116967,"SoundDuration":116967,"Delta":103285525},{"NoteNumber":51,"Velocity":29,"Duration":118165,"SoundDuration":118165,"Delta":103520037},{"NoteNumber":37,"Velocity":35,"Duration":119198,"SoundDuration":119198,"Delta":103756930},{"NoteNumber":49,"Velocity":28,"Duration":120374,"SoundDuration":120374,"Delta":103995898},{"NoteNumber":35,"Velocity":31,"Duration":121516,"SoundDuration":121516,"Delta":104237298},{"NoteNumber":47,"Velocity":26,"Duration":137526,"SoundDuration":137526,"Delta":104480924},{"NoteNumber":51,"Velocity":20,"Duration":999418,"SoundDuration":999418,"Delta":104755242},{"NoteNumber":55,"Velocity":24,"Duration":1983651,"SoundDuration":1983651,"Delta":104755242},{"NoteNumber":33,"Velocity":31,"Duration":124927,"SoundDuration":124927,"Delta":104755242},{"NoteNumber":45,"Velocity":24,"Duration":124927,"SoundDuration":124927,"Delta":105005096},{"NoteNumber":35,"Velocity":32,"Duration":124927,"SoundDuration":124927,"Delta":105254951},{"NoteNumber":47,"Velocity":25,"Duration":124927,"SoundDuration":124927,"Delta":105504805},{"NoteNumber":49,"Velocity":20,"Duration":984233,"SoundDuration":984233,"Delta":105754660},{"NoteNumber":33,"Velocity":31,"Duration":124927,"SoundDuration":124927,"Delta":105754660},{"NoteNumber":45,"Velocity":25,"Duration":124927,"SoundDuration":124927,"Delta":106004514},{"NoteNumber":35,"Velocity":29,"Duration":120840,"SoundDuration":120840,"Delta":106254369},{"NoteNumber":47,"Velocity":25,"Duration":120840,"SoundDuration":120840,"Delta":106496051},{"NoteNumber":51,"Velocity":20,"Duration":501863,"SoundDuration":501863,"Delta":106738893},{"NoteNumber":55,"Velocity":24,"Duration":1995844,"SoundDuration":1995844,"Delta":106738893},{"NoteNumber":33,"Velocity":31,"Duration":125515,"SoundDuration":125515,"Delta":106738893},{"NoteNumber":45,"Velocity":24,"Duration":125449,"SoundDuration":125449,"Delta":106989857},{"NoteNumber":51,"Velocity":20,"Duration":501797,"SoundDuration":501797,"Delta":107240756},{"NoteNumber":35,"Velocity":32,"Duration":125449,"SoundDuration":125449,"Delta":107240756},{"NoteNumber":47,"Velocity":25,"Duration":125449,"SoundDuration":125449,"Delta":107491655},{"NoteNumber":49,"Velocity":20,"Duration":992183,"SoundDuration":992183,"Delta":107742554},{"NoteNumber":33,"Velocity":31,"Duration":125449,"SoundDuration":125449,"Delta":107742554},{"NoteNumber":45,"Velocity":25,"Duration":125449,"SoundDuration":125449,"Delta":107993453},{"NoteNumber":35,"Velocity":29,"Duration":119875,"SoundDuration":119875,"Delta":108244352},{"NoteNumber":47,"Velocity":25,"Duration":125386,"SoundDuration":125386,"Delta":108484103},{"NoteNumber":79,"Velocity":35,"Duration":2874439,"SoundDuration":2874439,"Delta":108734737},{"NoteNumber":83,"Velocity":37,"Duration":2874439,"SoundDuration":2874439,"Delta":108734737},{"NoteNumber":71,"Velocity":31,"Duration":2874439,"SoundDuration":2874439,"Delta":108734737},{"NoteNumber":33,"Velocity":31,"Duration":124444,"SoundDuration":124444,"Delta":108734737},{"NoteNumber":45,"Velocity":24,"Duration":123661,"SoundDuration":123661,"Delta":108983355},{"NoteNumber":35,"Velocity":34,"Duration":122750,"SoundDuration":122750,"Delta":109230272},{"NoteNumber":47,"Velocity":27,"Duration":121852,"SoundDuration":121852,"Delta":109475373},{"NoteNumber":37,"Velocity":34,"Duration":120968,"SoundDuration":120968,"Delta":109718615},{"NoteNumber":49,"Velocity":28,"Duration":120097,"SoundDuration":120097,"Delta":109960066},{"NoteNumber":39,"Velocity":38,"Duration":119238,"SoundDuration":119238,"Delta":110199782},{"NoteNumber":51,"Velocity":35,"Duration":118391,"SoundDuration":118391,"Delta":110437786},{"NoteNumber":41,"Velocity":40,"Duration":117582,"SoundDuration":117582,"Delta":110674103},{"NoteNumber":53,"Velocity":33,"Duration":117123,"SoundDuration":117123,"Delta":110909241},{"NoteNumber":43,"Velocity":42,"Duration":116668,"SoundDuration":116668,"Delta":111143462},{"NoteNumber":55,"Velocity":34,"Duration":116215,"SoundDuration":116215,"Delta":111376771},{"NoteNumber":45,"Velocity":48,"Duration":115767,"SoundDuration":115767,"Delta":111609177},{"NoteNumber":57,"Velocity":39,"Duration":115322,"SoundDuration":115322,"Delta":111840686},{"NoteNumber":47,"Velocity":50,"Duration":114880,"SoundDuration":114880,"Delta":112071305},{"NoteNumber":59,"Velocity":42,"Duration":114442,"SoundDuration":114442,"Delta":112301042},{"NoteNumber":55,"Velocity":38,"Duration":484998,"SoundDuration":484998,"Delta":112529902},{"NoteNumber":59,"Velocity":45,"Duration":484998,"SoundDuration":484998,"Delta":112529902},{"NoteNumber":49,"Velocity":35,"Duration":122719,"SoundDuration":122719,"Delta":112529902},{"NoteNumber":61,"Velocity":39,"Duration":479117,"SoundDuration":479117,"Delta":112775341},{"NoteNumber":59,"Velocity":41,"Duration":119779,"SoundDuration":119779,"Delta":113014900},{"NoteNumber":55,"Velocity":34,"Duration":119779,"SoundDuration":119779,"Delta":113014900},{"NoteNumber":59,"Velocity":41,"Duration":119779,"SoundDuration":119779,"Delta":113254459},{"NoteNumber":55,"Velocity":34,"Duration":119779,"SoundDuration":119779,"Delta":113254459},{"NoteNumber":58,"Velocity":43,"Duration":123223,"SoundDuration":123223,"Delta":113494018},{"NoteNumber":54,"Velocity":36,"Duration":123223,"SoundDuration":123223,"Delta":113494018},{"NoteNumber":49,"Velocity":35,"Duration":123223,"SoundDuration":123223,"Delta":113494018},{"NoteNumber":58,"Velocity":37,"Duration":120259,"SoundDuration":120259,"Delta":113740465},{"NoteNumber":54,"Velocity":31,"Duration":120259,"SoundDuration":120259,"Delta":113740465},{"NoteNumber":61,"Velocity":41,"Duration":481038,"SoundDuration":481038,"Delta":113740465},{"NoteNumber":58,"Velocity":37,"Duration":120259,"SoundDuration":120259,"Delta":113980984},{"NoteNumber":54,"Velocity":31,"Duration":120259,"SoundDuration":120259,"Delta":113980984},{"NoteNumber":58,"Velocity":37,"Duration":120259,"SoundDuration":120259,"Delta":114221504},{"NoteNumber":54,"Velocity":31,"Duration":120259,"SoundDuration":120259,"Delta":114221504},{"NoteNumber":53,"Velocity":38,"Duration":484998,"SoundDuration":484998,"Delta":114462023},{"NoteNumber":57,"Velocity":45,"Duration":484998,"SoundDuration":484998,"Delta":114462023},{"NoteNumber":49,"Velocity":35,"Duration":122719,"SoundDuration":122719,"Delta":114462023},{"NoteNumber":61,"Velocity":39,"Duration":479117,"SoundDuration":479117,"Delta":114707462},{"NoteNumber":57,"Velocity":41,"Duration":119779,"SoundDuration":119779,"Delta":114947021},{"NoteNumber":53,"Velocity":34,"Duration":119779,"SoundDuration":119779,"Delta":114953010},{"NoteNumber":57,"Velocity":41,"Duration":119779,"SoundDuration":119779,"Delta":115186580},{"NoteNumber":53,"Velocity":34,"Duration":119779,"SoundDuration":119779,"Delta":115186580},{"NoteNumber":56,"Velocity":43,"Duration":486966,"SoundDuration":486966,"Delta":115426139},{"NoteNumber":52,"Velocity":36,"Duration":486966,"SoundDuration":486966,"Delta":115426139},{"NoteNumber":49,"Velocity":35,"Duration":123223,"SoundDuration":123223,"Delta":115426139},{"NoteNumber":61,"Velocity":41,"Duration":481038,"SoundDuration":481038,"Delta":115672586},{"NoteNumber":60,"Velocity":37,"Duration":481038,"SoundDuration":481038,"Delta":115913106},{"NoteNumber":56,"Velocity":31,"Duration":481038,"SoundDuration":481038,"Delta":115913106},{"NoteNumber":55,"Velocity":39,"Duration":480862,"SoundDuration":480862,"Delta":116394145},{"NoteNumber":59,"Velocity":46,"Duration":480862,"SoundDuration":480862,"Delta":116394145},{"NoteNumber":49,"Velocity":35,"Duration":122719,"SoundDuration":122719,"Delta":116394145},{"NoteNumber":61,"Velocity":39,"Duration":470847,"SoundDuration":470847,"Delta":116639584},{"NoteNumber":64,"Velocity":45,"Duration":470847,"SoundDuration":470847,"Delta":116875007},{"NoteNumber":57,"Velocity":38,"Duration":470847,"SoundDuration":470847,"Delta":116875007},{"NoteNumber":59,"Velocity":44,"Duration":481870,"SoundDuration":481870,"Delta":117345854},{"NoteNumber":67,"Velocity":52,"Duration":481870,"SoundDuration":481870,"Delta":117345854},{"NoteNumber":61,"Velocity":35,"Duration":123223,"SoundDuration":123223,"Delta":117345854},{"NoteNumber":49,"Velocity":41,"Duration":470847,"SoundDuration":470847,"Delta":117592301},{"NoteNumber":57,"Velocity":38,"Duration":470847,"SoundDuration":470847,"Delta":117827725},{"NoteNumber":64,"Velocity":45,"Duration":470847,"SoundDuration":470847,"Delta":117827725},{"NoteNumber":55,"Velocity":42,"Duration":481789,"SoundDuration":481789,"Delta":118298572},{"NoteNumber":59,"Velocity":50,"Duration":481789,"SoundDuration":481789,"Delta":118298572},{"NoteNumber":49,"Velocity":29,"Duration":122719,"SoundDuration":122719,"Delta":118298572},{"NoteNumber":61,"Velocity":42,"Duration":472701,"SoundDuration":472701,"Delta":118544011},{"NoteNumber":57,"Velocity":43,"Duration":472701,"SoundDuration":472701,"Delta":118780361},{"NoteNumber":52,"Velocity":36,"Duration":472701,"SoundDuration":472701,"Delta":118780361},{"NoteNumber":59,"Velocity":47,"Duration":1448868,"SoundDuration":1448868,"Delta":119253062},{"NoteNumber":55,"Velocity":39,"Duration":1448868,"SoundDuration":1448868,"Delta":119253062},{"NoteNumber":61,"Velocity":30,"Duration":123223,"SoundDuration":123223,"Delta":119253062},{"NoteNumber":49,"Velocity":38,"Duration":481038,"SoundDuration":481038,"Delta":119499509},{"NoteNumber":49,"Velocity":35,"Duration":122719,"SoundDuration":122719,"Delta":120221068},{"NoteNumber":61,"Velocity":39,"Duration":470847,"SoundDuration":470847,"Delta":120466507},{"NoteNumber":57,"Velocity":45,"Duration":470847,"SoundDuration":470847,"Delta":120701930},{"NoteNumber":52,"Velocity":38,"Duration":470847,"SoundDuration":470847,"Delta":120701930},{"NoteNumber":59,"Velocity":52,"Duration":471773,"SoundDuration":471773,"Delta":121172777},{"NoteNumber":55,"Velocity":37,"Duration":471773,"SoundDuration":471773,"Delta":121172777},{"NoteNumber":49,"Velocity":35,"Duration":942621,"SoundDuration":942621,"Delta":121172777},{"NoteNumber":64,"Velocity":50,"Duration":470847,"SoundDuration":470847,"Delta":121644551},{"NoteNumber":57,"Velocity":42,"Duration":470847,"SoundDuration":470847,"Delta":121644551},{"NoteNumber":59,"Velocity":54,"Duration":954490,"SoundDuration":954490,"Delta":122115398},{"NoteNumber":55,"Velocity":45,"Duration":954490,"SoundDuration":954490,"Delta":122115398},{"NoteNumber":49,"Velocity":29,"Duration":122719,"SoundDuration":122719,"Delta":122115398},{"NoteNumber":61,"Velocity":39,"Duration":472701,"SoundDuration":472701,"Delta":122360837},{"NoteNumber":52,"Velocity":30,"Duration":478746,"SoundDuration":478746,"Delta":123069889},{"NoteNumber":57,"Velocity":43,"Duration":478746,"SoundDuration":478746,"Delta":123069889},{"NoteNumber":49,"Velocity":30,"Duration":1002098,"SoundDuration":1002098,"Delta":123069889},{"NoteNumber":59,"Velocity":42,"Duration":523351,"SoundDuration":523351,"Delta":123548636},{"NoteNumber":55,"Velocity":35,"Duration":523351,"SoundDuration":523351,"Delta":123548636},{"NoteNumber":58,"Velocity":48,"Duration":1870982,"SoundDuration":1870982,"Delta":124071987},{"NoteNumber":61,"Velocity":48,"Duration":470263,"SoundDuration":470263,"Delta":124071987},{"NoteNumber":42,"Velocity":30,"Duration":1870982,"SoundDuration":1870982,"Delta":124071987},{"NoteNumber":49,"Velocity":30,"Duration":120067,"SoundDuration":120067,"Delta":124312122},{"NoteNumber":61,"Velocity":37,"Duration":115892,"SoundDuration":115892,"Delta":124552256},{"NoteNumber":49,"Velocity":30,"Duration":115892,"SoundDuration":115892,"Delta":124784042},{"NoteNumber":49,"Velocity":30,"Duration":115892,"SoundDuration":115892,"Delta":125015827},{"NoteNumber":49,"Velocity":30,"Duration":115892,"SoundDuration":115892,"Delta":125247613},{"NoteNumber":61,"Velocity":34,"Duration":115892,"SoundDuration":115892,"Delta":125479398},{"NoteNumber":49,"Velocity":30,"Duration":115892,"SoundDuration":115892,"Delta":125711184},{"NoteNumber":42,"Velocity":38,"Duration":480269,"SoundDuration":480269,"Delta":125942969},{"NoteNumber":49,"Velocity":30,"Duration":240134,"SoundDuration":240134,"Delta":126183104},{"NoteNumber":61,"Velocity":38,"Duration":236350,"SoundDuration":236350,"Delta":126423238},{"NoteNumber":58,"Velocity":38,"Duration":236350,"SoundDuration":236350,"Delta":126423238},{"NoteNumber":42,"Velocity":35,"Duration":118175,"SoundDuration":118175,"Delta":126423238},{"NoteNumber":49,"Velocity":30,"Duration":694610,"SoundDuration":694610,"Delta":126659589},{"NoteNumber":42,"Velocity":30,"Duration":118175,"SoundDuration":118175,"Delta":126659589},{"NoteNumber":41,"Velocity":34,"Duration":114564,"SoundDuration":114564,"Delta":126895939},{"NoteNumber":41,"Velocity":30,"Duration":114564,"SoundDuration":114564,"Delta":127125069},{"NoteNumber":49,"Velocity":33,"Duration":229129,"SoundDuration":229129,"Delta":127354199},{"NoteNumber":41,"Velocity":34,"Duration":114564,"SoundDuration":114564,"Delta":127354199},{"NoteNumber":41,"Velocity":31,"Duration":122518,"SoundDuration":122518,"Delta":127583329},{"NoteNumber":40,"Velocity":38,"Duration":480268,"SoundDuration":480268,"Delta":127828367},{"NoteNumber":49,"Velocity":30,"Duration":240134,"SoundDuration":240134,"Delta":128068502},{"NoteNumber":61,"Velocity":38,"Duration":236350,"SoundDuration":236350,"Delta":128308636},{"NoteNumber":58,"Velocity":38,"Duration":236350,"SoundDuration":236350,"Delta":128308636},{"NoteNumber":40,"Velocity":32,"Duration":118175,"SoundDuration":118175,"Delta":128308636},{"NoteNumber":49,"Velocity":30,"Duration":236350,"SoundDuration":236350,"Delta":128544987},{"NoteNumber":40,"Velocity":24,"Duration":118175,"SoundDuration":118175,"Delta":128544987},{"NoteNumber":39,"Velocity":29,"Duration":458259,"SoundDuration":458259,"Delta":128781337},{"NoteNumber":49,"Velocity":37,"Duration":114564,"SoundDuration":114564,"Delta":129010467},{"NoteNumber":46,"Velocity":37,"Duration":474167,"SoundDuration":474167,"Delta":129239597},{"NoteNumber":49,"Velocity":41,"Duration":122519,"SoundDuration":122519,"Delta":129468727},{"NoteNumber":42,"Velocity":38,"Duration":480268,"SoundDuration":480268,"Delta":129713765},{"NoteNumber":49,"Velocity":30,"Duration":240134,"SoundDuration":240134,"Delta":129953900},{"NoteNumber":61,"Velocity":38,"Duration":236350,"SoundDuration":236350,"Delta":130194034},{"NoteNumber":58,"Velocity":38,"Duration":236350,"SoundDuration":236350,"Delta":130194034},{"NoteNumber":42,"Velocity":35,"Duration":118175,"SoundDuration":118175,"Delta":130194034},{"NoteNumber":49,"Velocity":30,"Duration":720647,"SoundDuration":720647,"Delta":130430385},{"NoteNumber":42,"Velocity":30,"Duration":118175,"SoundDuration":118175,"Delta":130430385},{"NoteNumber":41,"Velocity":34,"Duration":114564,"SoundDuration":114564,"Delta":130666735},{"NoteNumber":41,"Velocity":30,"Duration":127583,"SoundDuration":127583,"Delta":130895865},{"NoteNumber":49,"Velocity":33,"Duration":268889,"SoundDuration":268889,"Delta":131151032},{"NoteNumber":41,"Velocity":34,"Duration":134444,"SoundDuration":134444,"Delta":131151032},{"NoteNumber":41,"Velocity":31,"Duration":153735,"SoundDuration":153735,"Delta":131419922},{"NoteNumber":51,"Velocity":30,"Duration":1022052,"SoundDuration":1022052,"Delta":131727393},{"NoteNumber":58,"Velocity":30,"Duration":1022052,"SoundDuration":1022052,"Delta":131727393},{"NoteNumber":63,"Velocity":51,"Duration":517553,"SoundDuration":517553,"Delta":131727393},{"NoteNumber":46,"Velocity":30,"Duration":517553,"SoundDuration":517553,"Delta":131727393},{"NoteNumber":63,"Velocity":47,"Duration":126124,"SoundDuration":126124,"Delta":132244947},{"NoteNumber":39,"Velocity":28,"Duration":504498,"SoundDuration":504498,"Delta":132244947},{"NoteNumber":63,"Velocity":40,"Duration":126124,"SoundDuration":126124,"Delta":132497196},{"NoteNumber":53,"Velocity":27,"Duration":977408,"SoundDuration":977408,"Delta":132749445},{"NoteNumber":58,"Velocity":27,"Duration":977408,"SoundDuration":977408,"Delta":132749445},{"NoteNumber":61,"Velocity":46,"Duration":121036,"SoundDuration":121036,"Delta":132749445},{"NoteNumber":46,"Velocity":30,"Duration":484143,"SoundDuration":484143,"Delta":132749445},{"NoteNumber":61,"Velocity":40,"Duration":121036,"SoundDuration":121036,"Delta":132991517},{"NoteNumber":61,"Velocity":46,"Duration":121036,"SoundDuration":121036,"Delta":133233589},{"NoteNumber":39,"Velocity":25,"Duration":493265,"SoundDuration":493265,"Delta":133233589},{"NoteNumber":61,"Velocity":41,"Duration":125596,"SoundDuration":125596,"Delta":133475661},{"NoteNumber":54,"Velocity":30,"Duration":508776,"SoundDuration":508776,"Delta":133726854},{"NoteNumber":58,"Velocity":30,"Duration":1004930,"SoundDuration":1004930,"Delta":133726854},{"NoteNumber":60,"Velocity":51,"Duration":508776,"SoundDuration":508776,"Delta":133726854},{"NoteNumber":46,"Velocity":30,"Duration":508776,"SoundDuration":508776,"Delta":133726854},{"NoteNumber":55,"Velocity":25,"Duration":496154,"SoundDuration":496154,"Delta":134235630},{"NoteNumber":60,"Velocity":44,"Duration":124038,"SoundDuration":124038,"Delta":134235630},{"NoteNumber":39,"Velocity":25,"Duration":496154,"SoundDuration":496154,"Delta":134235630},{"NoteNumber":60,"Velocity":33,"Duration":124038,"SoundDuration":124038,"Delta":134483708},{"NoteNumber":56,"Velocity":23,"Duration":1114698,"SoundDuration":1114698,"Delta":134731785},{"NoteNumber":59,"Velocity":39,"Duration":1114698,"SoundDuration":1114698,"Delta":134731785},{"NoteNumber":46,"Velocity":30,"Duration":535380,"SoundDuration":535380,"Delta":134731785},{"NoteNumber":66,"Velocity":50,"Duration":579318,"SoundDuration":579318,"Delta":135267165},{"NoteNumber":39,"Velocity":26,"Duration":579318,"SoundDuration":579318,"Delta":135267165},{"NoteNumber":63,"Velocity":40,"Duration":4045952,"SoundDuration":4045952,"Delta":135846483},{"NoteNumber":58,"Velocity":37,"Duration":3012492,"SoundDuration":3012492,"Delta":135846483},{"NoteNumber":51,"Velocity":37,"Duration":4045952,"SoundDuration":4045952,"Delta":135846483},{"NoteNumber":46,"Velocity":30,"Duration":502386,"SoundDuration":502386,"Delta":135846483},{"NoteNumber":39,"Velocity":25,"Duration":502386,"SoundDuration":502386,"Delta":136348869},{"NoteNumber":70,"Velocity":37,"Duration":246042,"SoundDuration":246042,"Delta":136851255},{"NoteNumber":46,"Velocity":30,"Duration":492086,"SoundDuration":492086,"Delta":136851255},{"NoteNumber":70,"Velocity":45,"Duration":246043,"SoundDuration":246043,"Delta":137097298},{"NoteNumber":39,"Velocity":26,"Duration":521422,"SoundDuration":521422,"Delta":137343341},{"NoteNumber":37,"Velocity":30,"Duration":499708,"SoundDuration":499708,"Delta":137864763},{"NoteNumber":39,"Velocity":25,"Duration":499708,"SoundDuration":499708,"Delta":138364472},{"NoteNumber":58,"Velocity":40,"Duration":244041,"SoundDuration":244041,"Delta":138864181},{"NoteNumber":34,"Velocity":30,"Duration":488082,"SoundDuration":488082,"Delta":138864181},{"NoteNumber":58,"Velocity":33,"Duration":244041,"SoundDuration":244041,"Delta":139108223},{"NoteNumber":39,"Velocity":26,"Duration":540172,"SoundDuration":540172,"Delta":139352264},{"NoteNumber":63,"Velocity":33,"Duration":4372932,"SoundDuration":4372932,"Delta":139892436},{"NoteNumber":58,"Velocity":33,"Duration":3162854,"SoundDuration":3162854,"Delta":139892436},{"NoteNumber":51,"Velocity":33,"Duration":4372932,"SoundDuration":4372932,"Delta":139892436},{"NoteNumber":46,"Velocity":27,"Duration":517553,"SoundDuration":517553,"Delta":139892436},{"NoteNumber":39,"Velocity":22,"Duration":517554,"SoundDuration":517554,"Delta":140409990},{"NoteNumber":70,"Velocity":31,"Duration":253313,"SoundDuration":253313,"Delta":140927544},{"NoteNumber":46,"Velocity":25,"Duration":506628,"SoundDuration":506628,"Delta":140927544},{"NoteNumber":70,"Velocity":37,"Duration":253314,"SoundDuration":253314,"Delta":141180858},{"NoteNumber":39,"Velocity":21,"Duration":526638,"SoundDuration":526638,"Delta":141434172},{"NoteNumber":37,"Velocity":24,"Duration":550105,"SoundDuration":550105,"Delta":141960811},{"NoteNumber":39,"Velocity":19,"Duration":550105,"SoundDuration":550105,"Delta":142510916},{"NoteNumber":58,"Velocity":30,"Duration":288267,"SoundDuration":288267,"Delta":143061021},{"NoteNumber":35,"Velocity":22,"Duration":576535,"SoundDuration":576535,"Delta":143061021},{"NoteNumber":58,"Velocity":24,"Duration":288267,"SoundDuration":288267,"Delta":143349289},{"NoteNumber":39,"Velocity":18,"Duration":627812,"SoundDuration":627812,"Delta":143637556},{"NoteNumber":70,"Velocity":30,"Duration":612932,"SoundDuration":612932,"Delta":144265368},{"NoteNumber":77,"Velocity":33,"Duration":612932,"SoundDuration":612932,"Delta":144265368},{"NoteNumber":34,"Velocity":17,"Duration":4243519,"SoundDuration":4243519,"Delta":144265368},{"NoteNumber":41,"Velocity":21,"Duration":4243519,"SoundDuration":4243519,"Delta":144265368},{"NoteNumber":70,"Velocity":30,"Duration":153233,"SoundDuration":153233,"Delta":144878301},{"NoteNumber":74,"Velocity":39,"Duration":1225865,"SoundDuration":1225865,"Delta":144878301},{"NoteNumber":70,"Velocity":30,"Duration":153233,"SoundDuration":153233,"Delta":145184768},{"NoteNumber":69,"Velocity":30,"Duration":153233,"SoundDuration":153233,"Delta":145491234},{"NoteNumber":69,"Velocity":30,"Duration":153233,"SoundDuration":153233,"Delta":145797701},{"NoteNumber":69,"Velocity":28,"Duration":141696,"SoundDuration":141696,"Delta":146104167},{"NoteNumber":77,"Velocity":37,"Duration":283392,"SoundDuration":283392,"Delta":146104167},{"NoteNumber":69,"Velocity":28,"Duration":141696,"SoundDuration":141696,"Delta":146387560},{"NoteNumber":79,"Velocity":37,"Duration":283393,"SoundDuration":283393,"Delta":146387560},{"NoteNumber":67,"Velocity":30,"Duration":612568,"SoundDuration":612568,"Delta":146670953},{"NoteNumber":72,"Velocity":39,"Duration":293656,"SoundDuration":293656,"Delta":146670953},{"NoteNumber":74,"Velocity":33,"Duration":318911,"SoundDuration":318911,"Delta":146964610},{"NoteNumber":67,"Velocity":30,"Duration":153170,"SoundDuration":153170,"Delta":147283522},{"NoteNumber":77,"Velocity":39,"Duration":1225366,"SoundDuration":1225366,"Delta":147283522},{"NoteNumber":67,"Velocity":30,"Duration":153170,"SoundDuration":153170,"Delta":147589863},{"NoteNumber":65,"Velocity":30,"Duration":612683,"SoundDuration":612683,"Delta":147896205},{"NoteNumber":74,"Velocity":33,"Duration":593412,"SoundDuration":593412,"Delta":148508888},{"NoteNumber":41,"Velocity":21,"Duration":4773165,"SoundDuration":4773165,"Delta":148508888},{"NoteNumber":72,"Velocity":27,"Duration":271980,"SoundDuration":271980,"Delta":148805594},{"NoteNumber":72,"Velocity":37,"Duration":296706,"SoundDuration":296706,"Delta":149102301},{"NoteNumber":70,"Velocity":30,"Duration":609793,"SoundDuration":609793,"Delta":149102301},{"NoteNumber":34,"Velocity":17,"Duration":4179752,"SoundDuration":4179752,"Delta":149102301},{"NoteNumber":74,"Velocity":30,"Duration":286996,"SoundDuration":286996,"Delta":149399007},{"NoteNumber":74,"Velocity":34,"Duration":593412,"SoundDuration":593412,"Delta":149712094},{"NoteNumber":70,"Velocity":30,"Duration":148353,"SoundDuration":148353,"Delta":149712094},{"NoteNumber":70,"Velocity":30,"Duration":148353,"SoundDuration":148353,"Delta":150008801},{"NoteNumber":72,"Velocity":34,"Duration":602893,"SoundDuration":602893,"Delta":150305507},{"NoteNumber":69,"Velocity":30,"Duration":150723,"SoundDuration":150723,"Delta":150305507},{"NoteNumber":69,"Velocity":30,"Duration":150723,"SoundDuration":150723,"Delta":150606954},{"NoteNumber":69,"Velocity":28,"Duration":148353,"SoundDuration":148353,"Delta":150908401},{"NoteNumber":77,"Velocity":38,"Duration":593412,"SoundDuration":593412,"Delta":150908401},{"NoteNumber":69,"Velocity":28,"Duration":148353,"SoundDuration":148353,"Delta":151205108},{"NoteNumber":74,"Velocity":31,"Duration":2349876,"SoundDuration":2349876,"Delta":151501814},{"NoteNumber":67,"Velocity":30,"Duration":593412,"SoundDuration":593412,"Delta":151501814},{"NoteNumber":67,"Velocity":30,"Duration":148353,"SoundDuration":148353,"Delta":152095227},{"NoteNumber":67,"Velocity":30,"Duration":148353,"SoundDuration":148353,"Delta":152391934},{"NoteNumber":65,"Velocity":30,"Duration":593412,"SoundDuration":593412,"Delta":152688640},{"NoteNumber":62,"Velocity":30,"Duration":569637,"SoundDuration":569637,"Delta":153282053},{"NoteNumber":72,"Velocity":31,"Duration":284818,"SoundDuration":284818,"Delta":153282053},{"NoteNumber":41,"Velocity":21,"Duration":569637,"SoundDuration":569637,"Delta":153282053},{"NoteNumber":69,"Velocity":28,"Duration":284818,"SoundDuration":284818,"Delta":153566872},{"NoteNumber":62,"Velocity":21,"Duration":2370357,"SoundDuration":2370357,"Delta":153851691},{"NoteNumber":67,"Velocity":31,"Duration":284818,"SoundDuration":284818,"Delta":153851691},{"NoteNumber":60,"Velocity":21,"Duration":2370357,"SoundDuration":2370357,"Delta":153851691},{"NoteNumber":55,"Velocity":17,"Duration":596183,"SoundDuration":596183,"Delta":153851691},{"NoteNumber":53,"Velocity":14,"Duration":596183,"SoundDuration":596183,"Delta":153851691},{"NoteNumber":65,"Velocity":30,"Duration":311364,"SoundDuration":311364,"Delta":154136510},{"NoteNumber":67,"Velocity":31,"Duration":1186825,"SoundDuration":1186825,"Delta":154447875},{"NoteNumber":50,"Velocity":17,"Duration":593412,"SoundDuration":593412,"Delta":154447875},{"NoteNumber":48,"Velocity":14,"Duration":593412,"SoundDuration":593412,"Delta":154447875},{"NoteNumber":41,"Velocity":17,"Duration":593412,"SoundDuration":593412,"Delta":155041288},{"NoteNumber":69,"Velocity":36,"Duration":290641,"SoundDuration":290641,"Delta":155634701},{"NoteNumber":34,"Velocity":17,"Duration":587347,"SoundDuration":587347,"Delta":155634701},{"NoteNumber":72,"Velocity":31,"Duration":296706,"SoundDuration":296706,"Delta":155925343},{"NoteNumber":67,"Velocity":40,"Duration":611807,"SoundDuration":611807,"Delta":156222049},{"NoteNumber":62,"Velocity":21,"Duration":2424259,"SoundDuration":2424259,"Delta":156222049},{"NoteNumber":60,"Velocity":21,"Duration":2424259,"SoundDuration":2424259,"Delta":156222049},{"NoteNumber":55,"Velocity":17,"Duration":611807,"SoundDuration":611807,"Delta":156222049},{"NoteNumber":53,"Velocity":14,"Duration":611807,"SoundDuration":611807,"Delta":156222049},{"NoteNumber":74,"Velocity":40,"Duration":590376,"SoundDuration":590376,"Delta":156833857},{"NoteNumber":50,"Velocity":17,"Duration":590376,"SoundDuration":590376,"Delta":156833857},{"NoteNumber":48,"Velocity":14,"Duration":590376,"SoundDuration":590376,"Delta":156833857},{"NoteNumber":72,"Velocity":34,"Duration":606121,"SoundDuration":606121,"Delta":157424234},{"NoteNumber":41,"Velocity":17,"Duration":606121,"SoundDuration":606121,"Delta":157424234},{"NoteNumber":69,"Velocity":31,"Duration":615952,"SoundDuration":615952,"Delta":158030356},{"NoteNumber":34,"Velocity":17,"Duration":615952,"SoundDuration":615952,"Delta":158030356},{"NoteNumber":62,"Velocity":21,"Duration":2519721,"SoundDuration":2519721,"Delta":158646309},{"NoteNumber":60,"Velocity":21,"Duration":2519721,"SoundDuration":2519721,"Delta":158646309},{"NoteNumber":67,"Velocity":30,"Duration":295188,"SoundDuration":295188,"Delta":158646309},{"NoteNumber":53,"Velocity":14,"Duration":590376,"SoundDuration":590376,"Delta":158646309},{"NoteNumber":55,"Velocity":17,"Duration":590376,"SoundDuration":590376,"Delta":158646309},{"NoteNumber":65,"Velocity":25,"Duration":295188,"SoundDuration":295188,"Delta":158941498},{"NoteNumber":67,"Velocity":31,"Duration":615952,"SoundDuration":615952,"Delta":159236686},{"NoteNumber":48,"Velocity":14,"Duration":615952,"SoundDuration":615952,"Delta":159236686},{"NoteNumber":50,"Velocity":17,"Duration":615952,"SoundDuration":615952,"Delta":159236686},{"NoteNumber":69,"Velocity":34,"Duration":599700,"SoundDuration":599700,"Delta":159852639},{"NoteNumber":41,"Velocity":21,"Duration":6201895,"SoundDuration":6201895,"Delta":159852639},{"NoteNumber":72,"Velocity":39,"Duration":713691,"SoundDuration":713691,"Delta":160452339},{"NoteNumber":34,"Velocity":21,"Duration":1341267,"SoundDuration":1341267,"Delta":160452339},{"NoteNumber":60,"Velocity":21,"Duration":4888504,"SoundDuration":4888504,"Delta":161166030},{"NoteNumber":67,"Velocity":33,"Duration":4587511,"SoundDuration":4587511,"Delta":161166030},{"NoteNumber":62,"Velocity":21,"Duration":4888504,"SoundDuration":4888504,"Delta":161166030},{"NoteNumber":34,"Velocity":27,"Duration":149894,"SoundDuration":149894,"Delta":161793607},{"NoteNumber":34,"Velocity":27,"Duration":149894,"SoundDuration":149894,"Delta":162093397},{"NoteNumber":33,"Velocity":27,"Duration":156136,"SoundDuration":156136,"Delta":162393187},{"NoteNumber":33,"Velocity":27,"Duration":156136,"SoundDuration":156136,"Delta":162705459},{"NoteNumber":33,"Velocity":25,"Duration":152175,"SoundDuration":152175,"Delta":163017732},{"NoteNumber":33,"Velocity":25,"Duration":152175,"SoundDuration":152175,"Delta":163322084},{"NoteNumber":32,"Velocity":27,"Duration":608704,"SoundDuration":608704,"Delta":163626436},{"NoteNumber":32,"Velocity":27,"Duration":152175,"SoundDuration":152175,"Delta":164235140},{"NoteNumber":32,"Velocity":27,"Duration":152175,"SoundDuration":152175,"Delta":164539492},{"NoteNumber":31,"Velocity":27,"Duration":608703,"SoundDuration":608703,"Delta":164837503},{"NoteNumber":38,"Velocity":27,"Duration":601987,"SoundDuration":601987,"Delta":165452548},{"NoteNumber":65,"Velocity":30,"Duration":300993,"SoundDuration":300993,"Delta":165753541},{"NoteNumber":60,"Velocity":21,"Duration":4356114,"SoundDuration":4356114,"Delta":166054535},{"NoteNumber":67,"Velocity":31,"Duration":4356114,"SoundDuration":4356114,"Delta":166054535},{"NoteNumber":62,"Velocity":21,"Duration":4356114,"SoundDuration":4356114,"Delta":166054535},{"NoteNumber":41,"Velocity":21,"Duration":4356114,"SoundDuration":4356114,"Delta":166054535},{"NoteNumber":34,"Velocity":27,"Duration":151408,"SoundDuration":151408,"Delta":166698983},{"NoteNumber":34,"Velocity":27,"Duration":151408,"SoundDuration":151408,"Delta":167001799},{"NoteNumber":33,"Velocity":27,"Duration":156136,"SoundDuration":156136,"Delta":167304615},{"NoteNumber":33,"Velocity":27,"Duration":156136,"SoundDuration":156136,"Delta":167616887},{"NoteNumber":33,"Velocity":25,"Duration":156789,"SoundDuration":156789,"Delta":167929160},{"NoteNumber":33,"Velocity":25,"Duration":156789,"SoundDuration":156789,"Delta":168242738},{"NoteNumber":32,"Velocity":27,"Duration":618110,"SoundDuration":618110,"Delta":168556316},{"NoteNumber":32,"Velocity":27,"Duration":154527,"SoundDuration":154527,"Delta":169174427},{"NoteNumber":32,"Velocity":27,"Duration":463583,"SoundDuration":463583,"Delta":169483482},{"NoteNumber":31,"Velocity":27,"Duration":624545,"SoundDuration":624545,"Delta":170410649},{"NoteNumber":48,"Velocity":21,"Duration":2498179,"SoundDuration":2498179,"Delta":171035194},{"NoteNumber":50,"Velocity":28,"Duration":2498179,"SoundDuration":2498179,"Delta":171035194},{"NoteNumber":30,"Velocity":27,"Duration":312272,"SoundDuration":312272,"Delta":171659739},{"NoteNumber":29,"Velocity":20,"Duration":624544,"SoundDuration":624544,"Delta":172284284},{"NoteNumber":38,"Velocity":17,"Duration":624545,"SoundDuration":624545,"Delta":172908829},{"NoteNumber":48,"Velocity":21,"Duration":2498179,"SoundDuration":2498179,"Delta":173533374},{"NoteNumber":50,"Velocity":28,"Duration":2498179,"SoundDuration":2498179,"Delta":173533374},{"NoteNumber":30,"Velocity":27,"Duration":312272,"SoundDuration":312272,"Delta":174157919},{"NoteNumber":29,"Velocity":22,"Duration":624545,"SoundDuration":624545,"Delta":174782464},{"NoteNumber":38,"Velocity":21,"Duration":624544,"SoundDuration":624544,"Delta":175407009},{"NoteNumber":48,"Velocity":21,"Duration":4996360,"SoundDuration":4996360,"Delta":176031554},{"NoteNumber":50,"Velocity":28,"Duration":4996360,"SoundDuration":4996360,"Delta":176031554},{"NoteNumber":30,"Velocity":22,"Duration":1249090,"SoundDuration":1249090,"Delta":177280644},{"NoteNumber":29,"Velocity":22,"Duration":1249089,"SoundDuration":1249089,"Delta":178529734},{"NoteNumber":26,"Velocity":22,"Duration":1249089,"SoundDuration":1249089,"Delta":179778824},{"NoteNumber":53,"Velocity":21,"Duration":7494540,"SoundDuration":7494540,"Delta":181027914},{"NoteNumber":55,"Velocity":28,"Duration":7494540,"SoundDuration":7494540,"Delta":181027914},{"NoteNumber":22,"Velocity":22,"Duration":7494540,"SoundDuration":7494540,"Delta":181027914},{"NoteNumber":75,"Velocity":37,"Duration":1249089,"SoundDuration":1249089,"Delta":182277004},{"NoteNumber":73,"Velocity":36,"Duration":1249090,"SoundDuration":1249090,"Delta":184775184},{"NoteNumber":22,"Velocity":22,"Duration":312272,"SoundDuration":312272,"Delta":188522454}],"license":{"name":"Creative Commons Attribution-ShareAlike 3.0 Germany","url":"http://creativecommons.org/licenses/by-sa/3.0/de/deed.en","text":"The MIDI files in this folder were downloaded from http://www.piano-midi.de and are licensed under the Creative Commons Attribution-ShareAlike 3.0 Germany license by Bernd Krueger.\n\nThe MIDI, audio(MP3, OGG) and video files of Bernd Krueger are licensed under the cc-by-sa Germany License . This means, that you can use and adapt the files, as long as you attribute to the copyright holder Name: Bernd Krueger Source: http://www.piano-midi.de The distribution or public playback of the files is only allowed under identical license conditions . The scores are open source.","attribution":"Bernd Krueger","attributionUrl":"http://www.piano-midi.de"}}