{"title":"Menuet","artist":"Debussy","durationMs":248891,"midiSha256":"649181d2f6f6e66c4a46d4c90dd48e40c506a95b515456b7d5617572e470f709","midiObject":[{"NoteNumber":50,"Velocity":48,"Duration":52011,"SoundDuration":52011,"Delta":0},{"NoteNumber":57,"Velocity":48,"Duration":52011,"SoundDuration":52011,"Delta":0},{"NoteNumber":59,"Velocity":45,"Duration":50992,"SoundDuration":50992,"Delta":208044},{"NoteNumber":65,"Velocity":45,"Duration":50992,"SoundDuration":50992,"Delta":208044},{"NoteNumber":60,"Velocity":48,"Duration":49387,"SoundDuration":49387,"Delta":412015},{"NoteNumber":53,"Velocity":48,"Duration":49387,"SoundDuration":49387,"Delta":412015},{"NoteNumber":69,"Velocity":45,"Duration":53426,"SoundDuration":53426,"Delta":609565},{"NoteNumber":62,"Velocity":45,"Duration":53426,"SoundDuration":53426,"Delta":609565},{"NoteNumber":59,"Velocity":48,"Duration":168896,"SoundDuration":168896,"Delta":823271},{"NoteNumber":50,"Velocity":48,"Duration":202675,"SoundDuration":202675,"Delta":823271},{"NoteNumber":59,"Velocity":44,"Duration":100684,"SoundDuration":100684,"Delta":1025946},{"NoteNumber":60,"Velocity":44,"Duration":100684,"SoundDuration":100684,"Delta":1126631},{"NoteNumber":69,"Velocity":45,"Duration":196334,"SoundDuration":196334,"Delta":1227315},{"NoteNumber":65,"Velocity":45,"Duration":196334,"SoundDuration":196334,"Delta":1227315},{"NoteNumber":59,"Velocity":45,"Duration":196334,"SoundDuration":196334,"Delta":1227315},{"NoteNumber":57,"Velocity":45,"Duration":163612,"SoundDuration":163612,"Delta":1423650},{"NoteNumber":59,"Velocity":48,"Duration":78528,"SoundDuration":78528,"Delta":1641800},{"NoteNumber":50,"Velocity":48,"Duration":78528,"SoundDuration":78528,"Delta":1641800},{"NoteNumber":65,"Velocity":43,"Duration":161359,"SoundDuration":161359,"Delta":2060619},{"NoteNumber":69,"Velocity":43,"Duration":161359,"SoundDuration":161359,"Delta":2060619},{"NoteNumber":60,"Velocity":43,"Duration":161359,"SoundDuration":161359,"Delta":2060619},{"NoteNumber":59,"Velocity":48,"Duration":208044,"SoundDuration":208044,"Delta":2490912},{"NoteNumber":45,"Velocity":48,"Duration":412015,"SoundDuration":412015,"Delta":2490912},{"NoteNumber":60,"Velocity":45,"Duration":203970,"SoundDuration":203970,"Delta":2698956},{"NoteNumber":72,"Velocity":48,"Duration":400160,"SoundDuration":400160,"Delta":2902927},{"NoteNumber":69,"Velocity":48,"Duration":400160,"SoundDuration":400160,"Delta":2902927},{"NoteNumber":62,"Velocity":48,"Duration":100039,"SoundDuration":100039,"Delta":2902927},{"NoteNumber":64,"Velocity":45,"Duration":100040,"SoundDuration":100040,"Delta":3103007},{"NoteNumber":66,"Velocity":48,"Duration":98775,"SoundDuration":98775,"Delta":3303087},{"NoteNumber":38,"Velocity":45,"Duration":390253,"SoundDuration":390253,"Delta":3303087},{"NoteNumber":66,"Velocity":45,"Duration":64234,"SoundDuration":64234,"Delta":3500638},{"NoteNumber":67,"Velocity":44,"Duration":64234,"SoundDuration":64234,"Delta":3564872},{"NoteNumber":66,"Velocity":44,"Duration":64234,"SoundDuration":64234,"Delta":3629106},{"NoteNumber":64,"Velocity":48,"Duration":200079,"SoundDuration":200079,"Delta":3693341},{"NoteNumber":72,"Velocity":42,"Duration":409489,"SoundDuration":409489,"Delta":3693341},{"NoteNumber":69,"Velocity":42,"Duration":409489,"SoundDuration":409489,"Delta":3693341},{"NoteNumber":62,"Velocity":45,"Duration":209409,"SoundDuration":209409,"Delta":3893421},{"NoteNumber":60,"Velocity":48,"Duration":174507,"SoundDuration":174507,"Delta":4102830},{"NoteNumber":45,"Velocity":48,"Duration":418819,"SoundDuration":418819,"Delta":4102830},{"NoteNumber":62,"Velocity":44,"Duration":174507,"SoundDuration":174507,"Delta":4312240},{"NoteNumber":72,"Velocity":44,"Duration":383917,"SoundDuration":383917,"Delta":4521649},{"NoteNumber":69,"Velocity":44,"Duration":383917,"SoundDuration":383917,"Delta":4521649},{"NoteNumber":64,"Velocity":44,"Duration":383917,"SoundDuration":383917,"Delta":4521649},{"NoteNumber":64,"Velocity":48,"Duration":208044,"SoundDuration":208044,"Delta":4940468},{"NoteNumber":40,"Velocity":48,"Duration":412015,"SoundDuration":412015,"Delta":4940468},{"NoteNumber":66,"Velocity":45,"Duration":203970,"SoundDuration":203970,"Delta":5148513},{"NoteNumber":68,"Velocity":45,"Duration":96949,"SoundDuration":96949,"Delta":5352483},{"NoteNumber":59,"Velocity":48,"Duration":407604,"SoundDuration":407604,"Delta":5352483},{"NoteNumber":69,"Velocity":45,"Duration":106852,"SoundDuration":106852,"Delta":5546382},{"NoteNumber":66,"Velocity":48,"Duration":171092,"SoundDuration":171092,"Delta":5760088},{"NoteNumber":52,"Velocity":48,"Duration":409281,"SoundDuration":409281,"Delta":5760088},{"NoteNumber":66,"Velocity":49,"Duration":101985,"SoundDuration":101985,"Delta":5965399},{"NoteNumber":68,"Velocity":51,"Duration":101985,"SoundDuration":101985,"Delta":6067384},{"NoteNumber":66,"Velocity":55,"Duration":200079,"SoundDuration":200079,"Delta":6169369},{"NoteNumber":62,"Velocity":48,"Duration":200079,"SoundDuration":200079,"Delta":6169369},{"NoteNumber":57,"Velocity":51,"Duration":418229,"SoundDuration":418229,"Delta":6169369},{"NoteNumber":60,"Velocity":43,"Duration":163612,"SoundDuration":163612,"Delta":6369449},{"NoteNumber":64,"Velocity":50,"Duration":163612,"SoundDuration":163612,"Delta":6369449},{"NoteNumber":66,"Velocity":55,"Duration":206668,"SoundDuration":206668,"Delta":6587599},{"NoteNumber":62,"Velocity":48,"Duration":206668,"SoundDuration":206668,"Delta":6587599},{"NoteNumber":40,"Velocity":48,"Duration":206668,"SoundDuration":206668,"Delta":6587599},{"NoteNumber":62,"Velocity":57,"Duration":215146,"SoundDuration":215146,"Delta":7000936},{"NoteNumber":66,"Velocity":57,"Duration":215146,"SoundDuration":215146,"Delta":7000936},{"NoteNumber":69,"Velocity":57,"Duration":215146,"SoundDuration":215146,"Delta":7000936},{"NoteNumber":68,"Velocity":49,"Duration":213705,"SoundDuration":213705,"Delta":7431229},{"NoteNumber":64,"Velocity":49,"Duration":213705,"SoundDuration":213705,"Delta":7431229},{"NoteNumber":59,"Velocity":54,"Duration":627491,"SoundDuration":627491,"Delta":7431229},{"NoteNumber":52,"Velocity":54,"Duration":2517231,"SoundDuration":2517231,"Delta":7431229},{"NoteNumber":66,"Velocity":46,"Duration":200079,"SoundDuration":200079,"Delta":7644935},{"NoteNumber":69,"Velocity":46,"Duration":200079,"SoundDuration":200079,"Delta":7644935},{"NoteNumber":64,"Velocity":49,"Duration":597435,"SoundDuration":597435,"Delta":7845015},{"NoteNumber":68,"Velocity":49,"Duration":597435,"SoundDuration":597435,"Delta":7845015},{"NoteNumber":60,"Velocity":54,"Duration":208044,"SoundDuration":208044,"Delta":8058720},{"NoteNumber":59,"Velocity":51,"Duration":624445,"SoundDuration":624445,"Delta":8266765},{"NoteNumber":66,"Velocity":48,"Duration":201369,"SoundDuration":201369,"Delta":8477587},{"NoteNumber":69,"Velocity":48,"Duration":201369,"SoundDuration":201369,"Delta":8477587},{"NoteNumber":68,"Velocity":51,"Duration":592293,"SoundDuration":592293,"Delta":8678956},{"NoteNumber":71,"Velocity":51,"Duration":592293,"SoundDuration":592293,"Delta":8678956},{"NoteNumber":60,"Velocity":48,"Duration":206668,"SoundDuration":206668,"Delta":8891211},{"NoteNumber":62,"Velocity":51,"Duration":616168,"SoundDuration":616168,"Delta":9097879},{"NoteNumber":69,"Velocity":50,"Duration":200079,"SoundDuration":200079,"Delta":9305924},{"NoteNumber":72,"Velocity":50,"Duration":200079,"SoundDuration":200079,"Delta":9305924},{"NoteNumber":64,"Velocity":45,"Duration":442456,"SoundDuration":442456,"Delta":9506004},{"NoteNumber":68,"Velocity":45,"Duration":442456,"SoundDuration":442456,"Delta":9506004},{"NoteNumber":64,"Velocity":48,"Duration":234411,"SoundDuration":234411,"Delta":9714048},{"NoteNumber":76,"Velocity":45,"Duration":206668,"SoundDuration":206668,"Delta":9948460},{"NoteNumber":79,"Velocity":45,"Duration":206668,"SoundDuration":206668,"Delta":9948460},{"NoteNumber":69,"Velocity":42,"Duration":818676,"SoundDuration":818676,"Delta":9948460},{"NoteNumber":60,"Velocity":42,"Duration":818676,"SoundDuration":818676,"Delta":9948460},{"NoteNumber":53,"Velocity":42,"Duration":818676,"SoundDuration":818676,"Delta":9948460},{"NoteNumber":74,"Velocity":43,"Duration":100684,"SoundDuration":100684,"Delta":10155128},{"NoteNumber":77,"Velocity":43,"Duration":100684,"SoundDuration":100684,"Delta":10155128},{"NoteNumber":76,"Velocity":43,"Duration":100684,"SoundDuration":100684,"Delta":10255813},{"NoteNumber":79,"Velocity":43,"Duration":100684,"SoundDuration":100684,"Delta":10255813},{"NoteNumber":74,"Velocity":45,"Duration":206668,"SoundDuration":206668,"Delta":10356498},{"NoteNumber":77,"Velocity":45,"Duration":206668,"SoundDuration":206668,"Delta":10356498},{"NoteNumber":72,"Velocity":42,"Duration":203970,"SoundDuration":203970,"Delta":10563166},{"NoteNumber":76,"Velocity":42,"Duration":203970,"SoundDuration":203970,"Delta":10563166},{"NoteNumber":74,"Velocity":45,"Duration":206668,"SoundDuration":206668,"Delta":10767137},{"NoteNumber":70,"Velocity":45,"Duration":206668,"SoundDuration":206668,"Delta":10767137},{"NoteNumber":65,"Velocity":34,"Duration":832259,"SoundDuration":832259,"Delta":10767137},{"NoteNumber":62,"Velocity":34,"Duration":832259,"SoundDuration":832259,"Delta":10767137},{"NoteNumber":55,"Velocity":34,"Duration":832259,"SoundDuration":832259,"Delta":10767137},{"NoteNumber":69,"Velocity":43,"Duration":212254,"SoundDuration":212254,"Delta":10973805},{"NoteNumber":72,"Velocity":43,"Duration":212254,"SoundDuration":212254,"Delta":10973805},{"NoteNumber":70,"Velocity":44,"Duration":620005,"SoundDuration":620005,"Delta":11186060},{"NoteNumber":74,"Velocity":44,"Duration":620005,"SoundDuration":620005,"Delta":11186060},{"NoteNumber":48,"Velocity":38,"Duration":821374,"SoundDuration":821374,"Delta":11599397},{"NoteNumber":55,"Velocity":38,"Duration":821374,"SoundDuration":821374,"Delta":11599397},{"NoteNumber":64,"Velocity":38,"Duration":821374,"SoundDuration":821374,"Delta":11599397},{"NoteNumber":69,"Velocity":42,"Duration":100684,"SoundDuration":100684,"Delta":11806065},{"NoteNumber":72,"Velocity":42,"Duration":100684,"SoundDuration":100684,"Delta":11806065},{"NoteNumber":70,"Velocity":42,"Duration":100684,"SoundDuration":100684,"Delta":11906750},{"NoteNumber":74,"Velocity":42,"Duration":100684,"SoundDuration":100684,"Delta":11906750},{"NoteNumber":72,"Velocity":44,"Duration":206668,"SoundDuration":206668,"Delta":12007434},{"NoteNumber":69,"Velocity":44,"Duration":206668,"SoundDuration":206668,"Delta":12007434},{"NoteNumber":70,"Velocity":42,"Duration":206668,"SoundDuration":206668,"Delta":12214103},{"NoteNumber":67,"Velocity":42,"Duration":206668,"SoundDuration":206668,"Delta":12214103},{"NoteNumber":65,"Velocity":44,"Duration":208044,"SoundDuration":208044,"Delta":12420771},{"NoteNumber":69,"Velocity":44,"Duration":208044,"SoundDuration":208044,"Delta":12420771},{"NoteNumber":53,"Velocity":36,"Duration":420298,"SoundDuration":420298,"Delta":12420771},{"NoteNumber":57,"Velocity":36,"Duration":420298,"SoundDuration":420298,"Delta":12420771},{"NoteNumber":60,"Velocity":36,"Duration":420298,"SoundDuration":420298,"Delta":12420771},{"NoteNumber":64,"Velocity":43,"Duration":212254,"SoundDuration":212254,"Delta":12628816},{"NoteNumber":67,"Velocity":43,"Duration":212254,"SoundDuration":212254,"Delta":12628816},{"NoteNumber":65,"Velocity":43,"Duration":381414,"SoundDuration":381414,"Delta":12841070},{"NoteNumber":69,"Velocity":43,"Duration":381414,"SoundDuration":381414,"Delta":12841070},{"NoteNumber":50,"Velocity":34,"Duration":381414,"SoundDuration":381414,"Delta":12841070},{"NoteNumber":57,"Velocity":34,"Duration":381414,"SoundDuration":381414,"Delta":12841070},{"NoteNumber":62,"Velocity":34,"Duration":381414,"SoundDuration":381414,"Delta":12841070},{"NoteNumber":69,"Velocity":48,"Duration":809520,"SoundDuration":809520,"Delta":13257159},{"NoteNumber":76,"Velocity":51,"Duration":202675,"SoundDuration":202675,"Delta":13257159},{"NoteNumber":79,"Velocity":51,"Duration":202675,"SoundDuration":202675,"Delta":13257159},{"NoteNumber":41,"Velocity":48,"Duration":809520,"SoundDuration":809520,"Delta":13257159},{"NoteNumber":57,"Velocity":48,"Duration":809520,"SoundDuration":809520,"Delta":13257159},{"NoteNumber":48,"Velocity":48,"Duration":809520,"SoundDuration":809520,"Delta":13257159},{"NoteNumber":74,"Velocity":49,"Duration":99403,"SoundDuration":99403,"Delta":13459834},{"NoteNumber":77,"Velocity":49,"Duration":99403,"SoundDuration":99403,"Delta":13459834},{"NoteNumber":76,"Velocity":49,"Duration":99403,"SoundDuration":99403,"Delta":13559238},{"NoteNumber":79,"Velocity":49,"Duration":99403,"SoundDuration":99403,"Delta":13559238},{"NoteNumber":74,"Velocity":51,"Duration":206668,"SoundDuration":206668,"Delta":13658642},{"NoteNumber":77,"Velocity":51,"Duration":206668,"SoundDuration":206668,"Delta":13658642},{"NoteNumber":72,"Velocity":48,"Duration":201369,"SoundDuration":201369,"Delta":13865310},{"NoteNumber":76,"Velocity":48,"Duration":201369,"SoundDuration":201369,"Delta":13865310},{"NoteNumber":65,"Velocity":39,"Duration":828112,"SoundDuration":828112,"Delta":14066679},{"NoteNumber":70,"Velocity":51,"Duration":206668,"SoundDuration":206668,"Delta":14066679},{"NoteNumber":74,"Velocity":51,"Duration":206668,"SoundDuration":206668,"Delta":14066679},{"NoteNumber":43,"Velocity":39,"Duration":828112,"SoundDuration":828112,"Delta":14066679},{"NoteNumber":58,"Velocity":39,"Duration":828112,"SoundDuration":828112,"Delta":14066679},{"NoteNumber":50,"Velocity":39,"Duration":828112,"SoundDuration":828112,"Delta":14066679},{"NoteNumber":69,"Velocity":49,"Duration":210822,"SoundDuration":210822,"Delta":14273348},{"NoteNumber":72,"Velocity":49,"Duration":210822,"SoundDuration":210822,"Delta":14273348},{"NoteNumber":70,"Velocity":50,"Duration":615932,"SoundDuration":615932,"Delta":14484170},{"NoteNumber":74,"Velocity":50,"Duration":615932,"SoundDuration":615932,"Delta":14484170},{"NoteNumber":64,"Velocity":43,"Duration":820017,"SoundDuration":820017,"Delta":14894792},{"NoteNumber":48,"Velocity":43,"Duration":820017,"SoundDuration":820017,"Delta":14894792},{"NoteNumber":55,"Velocity":43,"Duration":820017,"SoundDuration":820017,"Delta":14894792},{"NoteNumber":60,"Velocity":43,"Duration":820017,"SoundDuration":820017,"Delta":14894792},{"NoteNumber":69,"Velocity":46,"Duration":100684,"SoundDuration":100684,"Delta":15100102},{"NoteNumber":72,"Velocity":46,"Duration":100684,"SoundDuration":100684,"Delta":15100102},{"NoteNumber":70,"Velocity":46,"Duration":100684,"SoundDuration":100684,"Delta":15200787},{"NoteNumber":74,"Velocity":46,"Duration":100684,"SoundDuration":100684,"Delta":15200787},{"NoteNumber":72,"Velocity":49,"Duration":206668,"SoundDuration":206668,"Delta":15301472},{"NoteNumber":69,"Velocity":49,"Duration":206668,"SoundDuration":206668,"Delta":15301472},{"NoteNumber":70,"Velocity":45,"Duration":206668,"SoundDuration":206668,"Delta":15508140},{"NoteNumber":67,"Velocity":45,"Duration":206668,"SoundDuration":206668,"Delta":15508140},{"NoteNumber":65,"Velocity":46,"Duration":210940,"SoundDuration":210940,"Delta":15714809},{"NoteNumber":69,"Velocity":46,"Duration":210940,"SoundDuration":210940,"Delta":15714809},{"NoteNumber":53,"Velocity":38,"Duration":634337,"SoundDuration":634337,"Delta":15714809},{"NoteNumber":60,"Velocity":38,"Duration":634337,"SoundDuration":634337,"Delta":15714809},{"NoteNumber":64,"Velocity":45,"Duration":215207,"SoundDuration":215207,"Delta":15925749},{"NoteNumber":67,"Velocity":45,"Duration":215207,"SoundDuration":215207,"Delta":15925749},{"NoteNumber":65,"Velocity":49,"Duration":1037025,"SoundDuration":1037025,"Delta":16140957},{"NoteNumber":69,"Velocity":49,"Duration":617895,"SoundDuration":617895,"Delta":16140957},{"NoteNumber":52,"Velocity":43,"Duration":202867,"SoundDuration":202867,"Delta":16349146},{"NoteNumber":50,"Velocity":45,"Duration":625969,"SoundDuration":625969,"Delta":16552014},{"NoteNumber":53,"Velocity":45,"Duration":828836,"SoundDuration":828836,"Delta":16552014},{"NoteNumber":67,"Velocity":48,"Duration":210940,"SoundDuration":210940,"Delta":16758853},{"NoteNumber":69,"Velocity":49,"Duration":617895,"SoundDuration":617895,"Delta":16969794},{"NoteNumber":64,"Velocity":46,"Duration":202867,"SoundDuration":202867,"Delta":17177983},{"NoteNumber":48,"Velocity":45,"Duration":202867,"SoundDuration":202867,"Delta":17177983},{"NoteNumber":62,"Velocity":46,"Duration":2447964,"SoundDuration":2447964,"Delta":17380850},{"NoteNumber":53,"Velocity":48,"Duration":2036908,"SoundDuration":2036908,"Delta":17380850},{"NoteNumber":47,"Velocity":48,"Duration":616546,"SoundDuration":616546,"Delta":17380850},{"NoteNumber":67,"Velocity":46,"Duration":202867,"SoundDuration":202867,"Delta":17587689},{"NoteNumber":69,"Velocity":49,"Duration":612574,"SoundDuration":612574,"Delta":17790557},{"NoteNumber":45,"Velocity":50,"Duration":202867,"SoundDuration":202867,"Delta":17997396},{"NoteNumber":43,"Velocity":54,"Duration":613923,"SoundDuration":613923,"Delta":18200263},{"NoteNumber":71,"Velocity":52,"Duration":208188,"SoundDuration":208188,"Delta":18403131},{"NoteNumber":74,"Velocity":56,"Duration":202867,"SoundDuration":202867,"Delta":18611319},{"NoteNumber":71,"Velocity":52,"Duration":197836,"SoundDuration":197836,"Delta":18814187},{"NoteNumber":45,"Velocity":57,"Duration":197836,"SoundDuration":197836,"Delta":18814187},{"NoteNumber":69,"Velocity":50,"Duration":202867,"SoundDuration":202867,"Delta":19012024},{"NoteNumber":47,"Velocity":62,"Duration":816790,"SoundDuration":816790,"Delta":19012024},{"NoteNumber":71,"Velocity":49,"Duration":202867,"SoundDuration":202867,"Delta":19214891},{"NoteNumber":64,"Velocity":50,"Duration":202867,"SoundDuration":202867,"Delta":19417758},{"NoteNumber":55,"Velocity":48,"Duration":202867,"SoundDuration":202867,"Delta":19417758},{"NoteNumber":67,"Velocity":49,"Duration":208188,"SoundDuration":208188,"Delta":19620625},{"NoteNumber":52,"Velocity":48,"Duration":208188,"SoundDuration":208188,"Delta":19620625},{"NoteNumber":62,"Velocity":52,"Duration":2442809,"SoundDuration":2442809,"Delta":19828814},{"NoteNumber":69,"Velocity":52,"Duration":205507,"SoundDuration":205507,"Delta":19828814},{"NoteNumber":47,"Velocity":52,"Duration":616522,"SoundDuration":616522,"Delta":19828814},{"NoteNumber":53,"Velocity":52,"Duration":2234620,"SoundDuration":2234620,"Delta":19828814},{"NoteNumber":67,"Velocity":49,"Duration":205507,"SoundDuration":205507,"Delta":20034322},{"NoteNumber":69,"Velocity":52,"Duration":608678,"SoundDuration":608678,"Delta":20239829},{"NoteNumber":45,"Velocity":49,"Duration":201585,"SoundDuration":201585,"Delta":20445337},{"NoteNumber":43,"Velocity":54,"Duration":611292,"SoundDuration":611292,"Delta":20646922},{"NoteNumber":71,"Velocity":54,"Duration":206839,"SoundDuration":206839,"Delta":20848508},{"NoteNumber":74,"Velocity":56,"Duration":202867,"SoundDuration":202867,"Delta":21055348},{"NoteNumber":71,"Velocity":52,"Duration":196618,"SoundDuration":196618,"Delta":21258215},{"NoteNumber":45,"Velocity":55,"Duration":196618,"SoundDuration":196618,"Delta":21258215},{"NoteNumber":69,"Velocity":55,"Duration":202867,"SoundDuration":202867,"Delta":21454833},{"NoteNumber":47,"Velocity":61,"Duration":816790,"SoundDuration":816790,"Delta":21454833},{"NoteNumber":71,"Velocity":50,"Duration":202867,"SoundDuration":202867,"Delta":21657700},{"NoteNumber":69,"Velocity":49,"Duration":202867,"SoundDuration":202867,"Delta":21860568},{"NoteNumber":65,"Velocity":48,"Duration":208188,"SoundDuration":208188,"Delta":22063435},{"NoteNumber":55,"Velocity":52,"Duration":208188,"SoundDuration":208188,"Delta":22063435},{"NoteNumber":64,"Velocity":39,"Duration":1901565,"SoundDuration":1901565,"Delta":22271624},{"NoteNumber":60,"Velocity":39,"Duration":1503155,"SoundDuration":1503155,"Delta":22271624},{"NoteNumber":56,"Velocity":45,"Duration":206773,"SoundDuration":206773,"Delta":22271624},{"NoteNumber":48,"Velocity":45,"Duration":2432252,"SoundDuration":2432252,"Delta":22271624},{"NoteNumber":54,"Velocity":43,"Duration":205310,"SoundDuration":205310,"Delta":22478397},{"NoteNumber":52,"Velocity":43,"Duration":205310,"SoundDuration":205310,"Delta":22683708},{"NoteNumber":54,"Velocity":43,"Duration":205310,"SoundDuration":205310,"Delta":22889019},{"NoteNumber":56,"Velocity":46,"Duration":202675,"SoundDuration":202675,"Delta":23094329},{"NoteNumber":57,"Velocity":44,"Duration":75948,"SoundDuration":75948,"Delta":23297005},{"NoteNumber":59,"Velocity":44,"Duration":75513,"SoundDuration":75513,"Delta":23498809},{"NoteNumber":60,"Velocity":44,"Duration":1004127,"SoundDuration":1004127,"Delta":23699749},{"NoteNumber":62,"Velocity":46,"Duration":74552,"SoundDuration":74552,"Delta":23899829},{"NoteNumber":64,"Velocity":42,"Duration":605240,"SoundDuration":605240,"Delta":24098636},{"NoteNumber":66,"Velocity":42,"Duration":74552,"SoundDuration":74552,"Delta":24297443},{"NoteNumber":68,"Velocity":42,"Duration":78016,"SoundDuration":78016,"Delta":24495832},{"NoteNumber":62,"Velocity":40,"Duration":1743034,"SoundDuration":1743034,"Delta":24703876},{"NoteNumber":64,"Velocity":40,"Duration":1955833,"SoundDuration":1955833,"Delta":24703876},{"NoteNumber":47,"Velocity":44,"Duration":2548396,"SoundDuration":2548396,"Delta":24703876},{"NoteNumber":56,"Velocity":44,"Duration":208044,"SoundDuration":208044,"Delta":24703876},{"NoteNumber":54,"Velocity":40,"Duration":208044,"SoundDuration":208044,"Delta":24911921},{"NoteNumber":52,"Velocity":40,"Duration":208044,"SoundDuration":208044,"Delta":25119965},{"NoteNumber":54,"Velocity":40,"Duration":208044,"SoundDuration":208044,"Delta":25328010},{"NoteNumber":56,"Velocity":44,"Duration":208044,"SoundDuration":208044,"Delta":25536054},{"NoteNumber":57,"Velocity":40,"Duration":78016,"SoundDuration":78016,"Delta":25744099},{"NoteNumber":59,"Velocity":40,"Duration":77500,"SoundDuration":77500,"Delta":25951248},{"NoteNumber":60,"Velocity":40,"Duration":78301,"SoundDuration":78301,"Delta":26158375},{"NoteNumber":62,"Velocity":44,"Duration":884479,"SoundDuration":884479,"Delta":26367793},{"NoteNumber":64,"Velocity":38,"Duration":672702,"SoundDuration":672702,"Delta":26579570},{"NoteNumber":66,"Velocity":37,"Duration":80990,"SoundDuration":80990,"Delta":26793996},{"NoteNumber":68,"Velocity":34,"Duration":92032,"SoundDuration":92032,"Delta":27010889},{"NoteNumber":57,"Velocity":44,"Duration":52011,"SoundDuration":52011,"Delta":27252272},{"NoteNumber":38,"Velocity":44,"Duration":52011,"SoundDuration":52011,"Delta":27252272},{"NoteNumber":59,"Velocity":42,"Duration":50019,"SoundDuration":50019,"Delta":27460317},{"NoteNumber":65,"Velocity":39,"Duration":49387,"SoundDuration":49387,"Delta":27660397},{"NoteNumber":69,"Velocity":39,"Duration":49387,"SoundDuration":49387,"Delta":27660397},{"NoteNumber":60,"Velocity":44,"Duration":49387,"SoundDuration":49387,"Delta":27660397},{"NoteNumber":45,"Velocity":39,"Duration":49387,"SoundDuration":49387,"Delta":27660397},{"NoteNumber":53,"Velocity":39,"Duration":49387,"SoundDuration":49387,"Delta":27660397},{"NoteNumber":62,"Velocity":42,"Duration":53426,"SoundDuration":53426,"Delta":27857947},{"NoteNumber":59,"Velocity":44,"Duration":169975,"SoundDuration":169975,"Delta":28071653},{"NoteNumber":38,"Velocity":44,"Duration":203970,"SoundDuration":203970,"Delta":28071653},{"NoteNumber":59,"Velocity":40,"Duration":99403,"SoundDuration":99403,"Delta":28275624},{"NoteNumber":60,"Velocity":40,"Duration":99403,"SoundDuration":99403,"Delta":28375028},{"NoteNumber":69,"Velocity":39,"Duration":192703,"SoundDuration":192703,"Delta":28474431},{"NoteNumber":65,"Velocity":39,"Duration":192703,"SoundDuration":192703,"Delta":28474431},{"NoteNumber":59,"Velocity":42,"Duration":192703,"SoundDuration":192703,"Delta":28474431},{"NoteNumber":53,"Velocity":39,"Duration":48175,"SoundDuration":48175,"Delta":28474431},{"NoteNumber":45,"Velocity":39,"Duration":48175,"SoundDuration":48175,"Delta":28474431},{"NoteNumber":57,"Velocity":42,"Duration":159190,"SoundDuration":159190,"Delta":28667134},{"NoteNumber":59,"Velocity":44,"Duration":76003,"SoundDuration":76003,"Delta":28879388},{"NoteNumber":38,"Velocity":44,"Duration":76003,"SoundDuration":76003,"Delta":28879388},{"NoteNumber":65,"Velocity":39,"Duration":53786,"SoundDuration":53786,"Delta":29284739},{"NoteNumber":69,"Velocity":39,"Duration":53786,"SoundDuration":53786,"Delta":29284739},{"NoteNumber":60,"Velocity":39,"Duration":53786,"SoundDuration":53786,"Delta":29284739},{"NoteNumber":53,"Velocity":44,"Duration":53786,"SoundDuration":53786,"Delta":29284739},{"NoteNumber":45,"Velocity":44,"Duration":53786,"SoundDuration":53786,"Delta":29284739},{"NoteNumber":59,"Velocity":44,"Duration":206668,"SoundDuration":206668,"Delta":29715031},{"NoteNumber":38,"Velocity":44,"Duration":51667,"SoundDuration":51667,"Delta":29715031},{"NoteNumber":60,"Velocity":42,"Duration":201369,"SoundDuration":201369,"Delta":29921700},{"NoteNumber":72,"Velocity":39,"Duration":395101,"SoundDuration":395101,"Delta":30123069},{"NoteNumber":69,"Velocity":39,"Duration":395101,"SoundDuration":395101,"Delta":30123069},{"NoteNumber":62,"Velocity":44,"Duration":98775,"SoundDuration":98775,"Delta":30123069},{"NoteNumber":54,"Velocity":39,"Duration":49387,"SoundDuration":49387,"Delta":30123069},{"NoteNumber":45,"Velocity":39,"Duration":49387,"SoundDuration":49387,"Delta":30123069},{"NoteNumber":64,"Velocity":42,"Duration":98775,"SoundDuration":98775,"Delta":30320620},{"NoteNumber":66,"Velocity":44,"Duration":98775,"SoundDuration":98775,"Delta":30518170},{"NoteNumber":38,"Velocity":44,"Duration":197550,"SoundDuration":197550,"Delta":30518170},{"NoteNumber":66,"Velocity":42,"Duration":64632,"SoundDuration":64632,"Delta":30715721},{"NoteNumber":67,"Velocity":40,"Duration":64632,"SoundDuration":64632,"Delta":30780354},{"NoteNumber":66,"Velocity":40,"Duration":64632,"SoundDuration":64632,"Delta":30844986},{"NoteNumber":72,"Velocity":38,"Duration":401521,"SoundDuration":401521,"Delta":30909619},{"NoteNumber":69,"Velocity":38,"Duration":401521,"SoundDuration":401521,"Delta":30909619},{"NoteNumber":64,"Velocity":44,"Duration":197550,"SoundDuration":197550,"Delta":30909619},{"NoteNumber":54,"Velocity":39,"Duration":49387,"SoundDuration":49387,"Delta":30909619},{"NoteNumber":45,"Velocity":39,"Duration":49387,"SoundDuration":49387,"Delta":30909619},{"NoteNumber":62,"Velocity":42,"Duration":203970,"SoundDuration":203970,"Delta":31107170},{"NoteNumber":60,"Velocity":44,"Duration":168896,"SoundDuration":168896,"Delta":31311141},{"NoteNumber":38,"Velocity":44,"Duration":202675,"SoundDuration":202675,"Delta":31311141},{"NoteNumber":62,"Velocity":40,"Duration":168896,"SoundDuration":168896,"Delta":31513816},{"NoteNumber":64,"Velocity":40,"Duration":418819,"SoundDuration":418819,"Delta":31716491},{"NoteNumber":72,"Velocity":40,"Duration":418819,"SoundDuration":418819,"Delta":31716491},{"NoteNumber":69,"Velocity":40,"Duration":418819,"SoundDuration":418819,"Delta":31716491},{"NoteNumber":54,"Velocity":39,"Duration":52352,"SoundDuration":52352,"Delta":31716491},{"NoteNumber":45,"Velocity":39,"Duration":52352,"SoundDuration":52352,"Delta":31716491},{"NoteNumber":69,"Velocity":44,"Duration":52011,"SoundDuration":52011,"Delta":32135310},{"NoteNumber":38,"Velocity":44,"Duration":52011,"SoundDuration":52011,"Delta":32135310},{"NoteNumber":71,"Velocity":42,"Duration":50020,"SoundDuration":50020,"Delta":32343355},{"NoteNumber":65,"Velocity":39,"Duration":49387,"SoundDuration":49387,"Delta":32543435},{"NoteNumber":62,"Velocity":39,"Duration":49387,"SoundDuration":49387,"Delta":32543435},{"NoteNumber":72,"Velocity":44,"Duration":49387,"SoundDuration":49387,"Delta":32543435},{"NoteNumber":45,"Velocity":39,"Duration":49387,"SoundDuration":49387,"Delta":32543435},{"NoteNumber":53,"Velocity":39,"Duration":49387,"SoundDuration":49387,"Delta":32543435},{"NoteNumber":74,"Velocity":43,"Duration":53426,"SoundDuration":53426,"Delta":32740985},{"NoteNumber":71,"Velocity":45,"Duration":169975,"SoundDuration":169975,"Delta":32954691},{"NoteNumber":38,"Velocity":45,"Duration":203970,"SoundDuration":203970,"Delta":32954691},{"NoteNumber":71,"Velocity":43,"Duration":99403,"SoundDuration":99403,"Delta":33158662},{"NoteNumber":72,"Velocity":43,"Duration":99403,"SoundDuration":99403,"Delta":33258065},{"NoteNumber":62,"Velocity":42,"Duration":192703,"SoundDuration":192703,"Delta":33357469},{"NoteNumber":65,"Velocity":42,"Duration":192703,"SoundDuration":192703,"Delta":33357469},{"NoteNumber":71,"Velocity":44,"Duration":192703,"SoundDuration":192703,"Delta":33357469},{"NoteNumber":53,"Velocity":42,"Duration":48175,"SoundDuration":48175,"Delta":33357469},{"NoteNumber":45,"Velocity":42,"Duration":48175,"SoundDuration":48175,"Delta":33357469},{"NoteNumber":69,"Velocity":44,"Duration":159190,"SoundDuration":159190,"Delta":33550172},{"NoteNumber":71,"Velocity":48,"Duration":76003,"SoundDuration":76003,"Delta":33762426},{"NoteNumber":38,"Velocity":48,"Duration":76003,"SoundDuration":76003,"Delta":33762426},{"NoteNumber":65,"Velocity":43,"Duration":53786,"SoundDuration":53786,"Delta":34167777},{"NoteNumber":62,"Velocity":43,"Duration":53786,"SoundDuration":53786,"Delta":34167777},{"NoteNumber":72,"Velocity":43,"Duration":53786,"SoundDuration":53786,"Delta":34167777},{"NoteNumber":53,"Velocity":49,"Duration":53786,"SoundDuration":53786,"Delta":34167777},{"NoteNumber":45,"Velocity":49,"Duration":53786,"SoundDuration":53786,"Delta":34167777},{"NoteNumber":71,"Velocity":50,"Duration":206668,"SoundDuration":206668,"Delta":34598069},{"NoteNumber":38,"Velocity":50,"Duration":51667,"SoundDuration":51667,"Delta":34598069},{"NoteNumber":72,"Velocity":48,"Duration":201369,"SoundDuration":201369,"Delta":34804738},{"NoteNumber":72,"Velocity":44,"Duration":395100,"SoundDuration":395100,"Delta":35006107},{"NoteNumber":69,"Velocity":44,"Duration":395100,"SoundDuration":395100,"Delta":35006107},{"NoteNumber":74,"Velocity":52,"Duration":98775,"SoundDuration":98775,"Delta":35006107},{"NoteNumber":62,"Velocity":50,"Duration":98775,"SoundDuration":98775,"Delta":35006107},{"NoteNumber":76,"Velocity":50,"Duration":98775,"SoundDuration":98775,"Delta":35203657},{"NoteNumber":64,"Velocity":48,"Duration":98775,"SoundDuration":98775,"Delta":35203657},{"NoteNumber":78,"Velocity":52,"Duration":98775,"SoundDuration":98775,"Delta":35401208},{"NoteNumber":66,"Velocity":50,"Duration":98775,"SoundDuration":98775,"Delta":35401208},{"NoteNumber":78,"Velocity":48,"Duration":63848,"SoundDuration":63848,"Delta":35598758},{"NoteNumber":66,"Velocity":48,"Duration":63848,"SoundDuration":63848,"Delta":35598758},{"NoteNumber":79,"Velocity":48,"Duration":63848,"SoundDuration":63848,"Delta":35662607},{"NoteNumber":67,"Velocity":46,"Duration":63848,"SoundDuration":63848,"Delta":35662607},{"NoteNumber":78,"Velocity":48,"Duration":63848,"SoundDuration":63848,"Delta":35726456},{"NoteNumber":66,"Velocity":46,"Duration":63848,"SoundDuration":63848,"Delta":35726456},{"NoteNumber":76,"Velocity":52,"Duration":200079,"SoundDuration":200079,"Delta":35790305},{"NoteNumber":64,"Velocity":50,"Duration":200079,"SoundDuration":200079,"Delta":35790305},{"NoteNumber":74,"Velocity":50,"Duration":209409,"SoundDuration":209409,"Delta":35990385},{"NoteNumber":62,"Velocity":48,"Duration":209409,"SoundDuration":209409,"Delta":35990385},{"NoteNumber":72,"Velocity":52,"Duration":203970,"SoundDuration":203970,"Delta":36199794},{"NoteNumber":60,"Velocity":50,"Duration":203970,"SoundDuration":203970,"Delta":36199794},{"NoteNumber":74,"Velocity":48,"Duration":213705,"SoundDuration":213705,"Delta":36403765},{"NoteNumber":62,"Velocity":46,"Duration":213705,"SoundDuration":213705,"Delta":36403765},{"NoteNumber":76,"Velocity":48,"Duration":825499,"SoundDuration":825499,"Delta":36617471},{"NoteNumber":64,"Velocity":46,"Duration":825499,"SoundDuration":825499,"Delta":36617471},{"NoteNumber":69,"Velocity":45,"Duration":201369,"SoundDuration":201369,"Delta":37036290},{"NoteNumber":72,"Velocity":50,"Duration":201369,"SoundDuration":201369,"Delta":37036290},{"NoteNumber":57,"Velocity":45,"Duration":201369,"SoundDuration":201369,"Delta":37036290},{"NoteNumber":60,"Velocity":50,"Duration":201369,"SoundDuration":201369,"Delta":37036290},{"NoteNumber":74,"Velocity":48,"Duration":205310,"SoundDuration":205310,"Delta":37237659},{"NoteNumber":62,"Velocity":46,"Duration":205310,"SoundDuration":205310,"Delta":37237659},{"NoteNumber":67,"Velocity":40,"Duration":373946,"SoundDuration":373946,"Delta":37442970},{"NoteNumber":71,"Velocity":40,"Duration":373946,"SoundDuration":373946,"Delta":37442970},{"NoteNumber":76,"Velocity":48,"Duration":373946,"SoundDuration":373946,"Delta":37442970},{"NoteNumber":55,"Velocity":40,"Duration":373946,"SoundDuration":373946,"Delta":37442970},{"NoteNumber":59,"Velocity":40,"Duration":373946,"SoundDuration":373946,"Delta":37442970},{"NoteNumber":64,"Velocity":46,"Duration":373946,"SoundDuration":373946,"Delta":37442970},{"NoteNumber":66,"Velocity":40,"Duration":413497,"SoundDuration":413497,"Delta":37850911},{"NoteNumber":69,"Velocity":46,"Duration":202675,"SoundDuration":202675,"Delta":37850911},{"NoteNumber":54,"Velocity":40,"Duration":413497,"SoundDuration":413497,"Delta":37850911},{"NoteNumber":57,"Velocity":44,"Duration":202675,"SoundDuration":202675,"Delta":37850911},{"NoteNumber":71,"Velocity":45,"Duration":210822,"SoundDuration":210822,"Delta":38053587},{"NoteNumber":59,"Velocity":43,"Duration":210822,"SoundDuration":210822,"Delta":38053587},{"NoteNumber":65,"Velocity":39,"Duration":413336,"SoundDuration":413336,"Delta":38264409},{"NoteNumber":68,"Velocity":39,"Duration":413336,"SoundDuration":413336,"Delta":38264409},{"NoteNumber":72,"Velocity":46,"Duration":802469,"SoundDuration":802469,"Delta":38264409},{"NoteNumber":53,"Velocity":39,"Duration":413336,"SoundDuration":413336,"Delta":38264409},{"NoteNumber":56,"Velocity":39,"Duration":413336,"SoundDuration":413336,"Delta":38264409},{"NoteNumber":60,"Velocity":44,"Duration":802469,"SoundDuration":802469,"Delta":38264409},{"NoteNumber":64,"Velocity":38,"Duration":424508,"SoundDuration":424508,"Delta":38677746},{"NoteNumber":67,"Velocity":38,"Duration":424508,"SoundDuration":424508,"Delta":38677746},{"NoteNumber":52,"Velocity":39,"Duration":424508,"SoundDuration":424508,"Delta":38677746},{"NoteNumber":55,"Velocity":39,"Duration":424508,"SoundDuration":424508,"Delta":38677746},{"NoteNumber":68,"Velocity":37,"Duration":826673,"SoundDuration":826673,"Delta":39102254},{"NoteNumber":63,"Velocity":34,"Duration":413336,"SoundDuration":413336,"Delta":39102254},{"NoteNumber":66,"Velocity":34,"Duration":413336,"SoundDuration":413336,"Delta":39102254},{"NoteNumber":51,"Velocity":34,"Duration":413336,"SoundDuration":413336,"Delta":39102254},{"NoteNumber":54,"Velocity":34,"Duration":413336,"SoundDuration":413336,"Delta":39102254},{"NoteNumber":56,"Velocity":38,"Duration":826673,"SoundDuration":826673,"Delta":39102254},{"NoteNumber":65,"Velocity":31,"Duration":413336,"SoundDuration":413336,"Delta":39515591},{"NoteNumber":62,"Velocity":31,"Duration":413336,"SoundDuration":413336,"Delta":39515591},{"NoteNumber":50,"Velocity":33,"Duration":413336,"SoundDuration":413336,"Delta":39515591},{"NoteNumber":53,"Velocity":33,"Duration":413336,"SoundDuration":413336,"Delta":39515591},{"NoteNumber":64,"Velocity":32,"Duration":2398173,"SoundDuration":2398173,"Delta":39928928},{"NoteNumber":61,"Velocity":32,"Duration":429100,"SoundDuration":429100,"Delta":39928928},{"NoteNumber":52,"Velocity":33,"Duration":2398173,"SoundDuration":2398173,"Delta":39928928},{"NoteNumber":49,"Velocity":33,"Duration":429100,"SoundDuration":429100,"Delta":39928928},{"NoteNumber":60,"Velocity":32,"Duration":162604,"SoundDuration":162604,"Delta":40358029},{"NoteNumber":48,"Velocity":33,"Duration":162604,"SoundDuration":162604,"Delta":40358029},{"NoteNumber":59,"Velocity":31,"Duration":165397,"SoundDuration":165397,"Delta":40794088},{"NoteNumber":47,"Velocity":32,"Duration":165397,"SoundDuration":165397,"Delta":40794088},{"NoteNumber":62,"Velocity":31,"Duration":188473,"SoundDuration":188473,"Delta":41237307},{"NoteNumber":58,"Velocity":31,"Duration":188473,"SoundDuration":188473,"Delta":41237307},{"NoteNumber":46,"Velocity":31,"Duration":188473,"SoundDuration":188473,"Delta":41237307},{"NoteNumber":50,"Velocity":31,"Duration":188473,"SoundDuration":188473,"Delta":41237307},{"NoteNumber":40,"Velocity":37,"Duration":220199,"SoundDuration":220199,"Delta":41739903},{"NoteNumber":33,"Velocity":34,"Duration":457038,"SoundDuration":457038,"Delta":42327102},{"NoteNumber":60,"Velocity":38,"Duration":75472,"SoundDuration":75472,"Delta":42834615},{"NoteNumber":64,"Velocity":38,"Duration":75472,"SoundDuration":75472,"Delta":42834615},{"NoteNumber":69,"Velocity":45,"Duration":75472,"SoundDuration":75472,"Delta":42834615},{"NoteNumber":57,"Velocity":44,"Duration":75472,"SoundDuration":75472,"Delta":42834615},{"NoteNumber":59,"Velocity":33,"Duration":73204,"SoundDuration":73204,"Delta":43035877},{"NoteNumber":62,"Velocity":33,"Duration":73204,"SoundDuration":73204,"Delta":43035877},{"NoteNumber":64,"Velocity":39,"Duration":73204,"SoundDuration":73204,"Delta":43035877},{"NoteNumber":52,"Velocity":38,"Duration":73204,"SoundDuration":73204,"Delta":43035877},{"NoteNumber":59,"Velocity":33,"Duration":55309,"SoundDuration":55309,"Delta":43231087},{"NoteNumber":62,"Velocity":33,"Duration":55309,"SoundDuration":55309,"Delta":43231087},{"NoteNumber":64,"Velocity":39,"Duration":55309,"SoundDuration":55309,"Delta":43231087},{"NoteNumber":52,"Velocity":38,"Duration":55309,"SoundDuration":55309,"Delta":43231087},{"NoteNumber":60,"Velocity":33,"Duration":74542,"SoundDuration":74542,"Delta":43426298},{"NoteNumber":64,"Velocity":33,"Duration":74542,"SoundDuration":74542,"Delta":43426298},{"NoteNumber":69,"Velocity":39,"Duration":74542,"SoundDuration":74542,"Delta":43426298},{"NoteNumber":57,"Velocity":38,"Duration":74542,"SoundDuration":74542,"Delta":43426298},{"NoteNumber":60,"Velocity":37,"Duration":74542,"SoundDuration":74542,"Delta":43625079},{"NoteNumber":64,"Velocity":37,"Duration":74542,"SoundDuration":74542,"Delta":43625079},{"NoteNumber":69,"Velocity":44,"Duration":74542,"SoundDuration":74542,"Delta":43625079},{"NoteNumber":57,"Velocity":44,"Duration":74542,"SoundDuration":74542,"Delta":43625079},{"NoteNumber":64,"Velocity":44,"Duration":72758,"SoundDuration":72758,"Delta":43823860},{"NoteNumber":59,"Velocity":37,"Duration":72758,"SoundDuration":72758,"Delta":43823860},{"NoteNumber":62,"Velocity":37,"Duration":72758,"SoundDuration":72758,"Delta":43823860},{"NoteNumber":52,"Velocity":44,"Duration":72758,"SoundDuration":72758,"Delta":43823860},{"NoteNumber":59,"Velocity":34,"Duration":55980,"SoundDuration":55980,"Delta":44017884},{"NoteNumber":64,"Velocity":40,"Duration":55980,"SoundDuration":55980,"Delta":44017884},{"NoteNumber":62,"Velocity":34,"Duration":55980,"SoundDuration":55980,"Delta":44017884},{"NoteNumber":52,"Velocity":39,"Duration":55980,"SoundDuration":55980,"Delta":44017884},{"NoteNumber":60,"Velocity":36,"Duration":76896,"SoundDuration":76896,"Delta":44215460},{"NoteNumber":64,"Velocity":36,"Duration":76896,"SoundDuration":76896,"Delta":44215460},{"NoteNumber":69,"Velocity":43,"Duration":76896,"SoundDuration":76896,"Delta":44215460},{"NoteNumber":45,"Velocity":42,"Duration":76896,"SoundDuration":76896,"Delta":44215460},{"NoteNumber":62,"Velocity":41,"Duration":61809,"SoundDuration":61809,"Delta":44420518},{"NoteNumber":67,"Velocity":41,"Duration":61809,"SoundDuration":61809,"Delta":44420518},{"NoteNumber":71,"Velocity":49,"Duration":61809,"SoundDuration":61809,"Delta":44420518},{"NoteNumber":40,"Velocity":49,"Duration":61809,"SoundDuration":61809,"Delta":44420518},{"NoteNumber":81,"Velocity":78,"Duration":393512,"SoundDuration":393512,"Delta":44856781},{"NoteNumber":69,"Velocity":68,"Duration":393512,"SoundDuration":393512,"Delta":44856781},{"NoteNumber":33,"Velocity":68,"Duration":393512,"SoundDuration":393512,"Delta":44856781},{"NoteNumber":60,"Velocity":38,"Duration":74800,"SoundDuration":74800,"Delta":45267403},{"NoteNumber":64,"Velocity":38,"Duration":74800,"SoundDuration":74800,"Delta":45267403},{"NoteNumber":69,"Velocity":45,"Duration":74800,"SoundDuration":74800,"Delta":45267403},{"NoteNumber":57,"Velocity":44,"Duration":74800,"SoundDuration":74800,"Delta":45267403},{"NoteNumber":59,"Velocity":33,"Duration":71392,"SoundDuration":71392,"Delta":45466871},{"NoteNumber":62,"Velocity":33,"Duration":71392,"SoundDuration":71392,"Delta":45466871},{"NoteNumber":64,"Velocity":39,"Duration":71392,"SoundDuration":71392,"Delta":45466871},{"NoteNumber":52,"Velocity":38,"Duration":71392,"SoundDuration":71392,"Delta":45466871},{"NoteNumber":59,"Velocity":33,"Duration":53940,"SoundDuration":53940,"Delta":45657250},{"NoteNumber":62,"Velocity":33,"Duration":53940,"SoundDuration":53940,"Delta":45657250},{"NoteNumber":64,"Velocity":39,"Duration":53940,"SoundDuration":53940,"Delta":45657250},{"NoteNumber":52,"Velocity":38,"Duration":53940,"SoundDuration":53940,"Delta":45657250},{"NoteNumber":60,"Velocity":33,"Duration":73877,"SoundDuration":73877,"Delta":45847630},{"NoteNumber":64,"Velocity":33,"Duration":73877,"SoundDuration":73877,"Delta":45847630},{"NoteNumber":69,"Velocity":39,"Duration":73877,"SoundDuration":73877,"Delta":45847630},{"NoteNumber":57,"Velocity":38,"Duration":73877,"SoundDuration":73877,"Delta":45847630},{"NoteNumber":64,"Velocity":37,"Duration":73877,"SoundDuration":73877,"Delta":46044635},{"NoteNumber":69,"Velocity":44,"Duration":73877,"SoundDuration":73877,"Delta":46044635},{"NoteNumber":60,"Velocity":37,"Duration":73877,"SoundDuration":73877,"Delta":46044635},{"NoteNumber":57,"Velocity":44,"Duration":73877,"SoundDuration":73877,"Delta":46044635},{"NoteNumber":62,"Velocity":37,"Duration":70960,"SoundDuration":70960,"Delta":46241641},{"NoteNumber":59,"Velocity":37,"Duration":70960,"SoundDuration":70960,"Delta":46241641},{"NoteNumber":64,"Velocity":44,"Duration":70960,"SoundDuration":70960,"Delta":46241641},{"NoteNumber":52,"Velocity":44,"Duration":70960,"SoundDuration":70960,"Delta":46241641},{"NoteNumber":59,"Velocity":34,"Duration":56871,"SoundDuration":56871,"Delta":46430867},{"NoteNumber":64,"Velocity":40,"Duration":56871,"SoundDuration":56871,"Delta":46430867},{"NoteNumber":62,"Velocity":34,"Duration":56871,"SoundDuration":56871,"Delta":46430867},{"NoteNumber":52,"Velocity":39,"Duration":56871,"SoundDuration":56871,"Delta":46430867},{"NoteNumber":60,"Velocity":39,"Duration":78715,"SoundDuration":78715,"Delta":46631590},{"NoteNumber":64,"Velocity":39,"Duration":78715,"SoundDuration":78715,"Delta":46631590},{"NoteNumber":69,"Velocity":46,"Duration":78715,"SoundDuration":78715,"Delta":46631590},{"NoteNumber":45,"Velocity":46,"Duration":78715,"SoundDuration":78715,"Delta":46631590},{"NoteNumber":62,"Velocity":43,"Duration":62243,"SoundDuration":62243,"Delta":46841498},{"NoteNumber":67,"Velocity":43,"Duration":62243,"SoundDuration":62243,"Delta":46841498},{"NoteNumber":71,"Velocity":51,"Duration":62243,"SoundDuration":62243,"Delta":46841498},{"NoteNumber":43,"Velocity":51,"Duration":62243,"SoundDuration":62243,"Delta":46841498},{"NoteNumber":84,"Velocity":79,"Duration":396114,"SoundDuration":396114,"Delta":47280865},{"NoteNumber":72,"Velocity":69,"Duration":396114,"SoundDuration":396114,"Delta":47280865},{"NoteNumber":36,"Velocity":69,"Duration":396114,"SoundDuration":396114,"Delta":47280865},{"NoteNumber":64,"Velocity":42,"Duration":74592,"SoundDuration":74592,"Delta":47694202},{"NoteNumber":67,"Velocity":42,"Duration":74592,"SoundDuration":74592,"Delta":47694202},{"NoteNumber":72,"Velocity":50,"Duration":74592,"SoundDuration":74592,"Delta":47694202},{"NoteNumber":60,"Velocity":49,"Duration":74592,"SoundDuration":74592,"Delta":47694202},{"NoteNumber":62,"Velocity":36,"Duration":71392,"SoundDuration":71392,"Delta":47893115},{"NoteNumber":65,"Velocity":36,"Duration":71392,"SoundDuration":71392,"Delta":47893115},{"NoteNumber":67,"Velocity":43,"Duration":71392,"SoundDuration":71392,"Delta":47893115},{"NoteNumber":55,"Velocity":42,"Duration":71392,"SoundDuration":71392,"Delta":47893115},{"NoteNumber":62,"Velocity":36,"Duration":53940,"SoundDuration":53940,"Delta":48083494},{"NoteNumber":65,"Velocity":36,"Duration":53940,"SoundDuration":53940,"Delta":48083494},{"NoteNumber":67,"Velocity":43,"Duration":53940,"SoundDuration":53940,"Delta":48083494},{"NoteNumber":55,"Velocity":42,"Duration":53940,"SoundDuration":53940,"Delta":48083494},{"NoteNumber":72,"Velocity":43,"Duration":73673,"SoundDuration":73673,"Delta":48273874},{"NoteNumber":64,"Velocity":36,"Duration":73673,"SoundDuration":73673,"Delta":48273874},{"NoteNumber":67,"Velocity":36,"Duration":73673,"SoundDuration":73673,"Delta":48273874},{"NoteNumber":60,"Velocity":42,"Duration":73673,"SoundDuration":73673,"Delta":48273874},{"NoteNumber":64,"Velocity":41,"Duration":73673,"SoundDuration":73673,"Delta":48470337},{"NoteNumber":67,"Velocity":41,"Duration":73673,"SoundDuration":73673,"Delta":48470337},{"NoteNumber":72,"Velocity":49,"Duration":73673,"SoundDuration":73673,"Delta":48470337},{"NoteNumber":60,"Velocity":49,"Duration":73673,"SoundDuration":73673,"Delta":48470337},{"NoteNumber":62,"Velocity":41,"Duration":70960,"SoundDuration":70960,"Delta":48666801},{"NoteNumber":65,"Velocity":41,"Duration":70960,"SoundDuration":70960,"Delta":48666801},{"NoteNumber":67,"Velocity":49,"Duration":70960,"SoundDuration":70960,"Delta":48666801},{"NoteNumber":55,"Velocity":49,"Duration":70960,"SoundDuration":70960,"Delta":48666801},{"NoteNumber":62,"Velocity":37,"Duration":57069,"SoundDuration":57069,"Delta":48856028},{"NoteNumber":67,"Velocity":44,"Duration":57069,"SoundDuration":57069,"Delta":48856028},{"NoteNumber":65,"Velocity":37,"Duration":57069,"SoundDuration":57069,"Delta":48856028},{"NoteNumber":55,"Velocity":43,"Duration":57069,"SoundDuration":57069,"Delta":48856028},{"NoteNumber":64,"Velocity":43,"Duration":78484,"SoundDuration":78484,"Delta":49057451},{"NoteNumber":67,"Velocity":43,"Duration":78484,"SoundDuration":78484,"Delta":49057451},{"NoteNumber":72,"Velocity":51,"Duration":78484,"SoundDuration":78484,"Delta":49057451},{"NoteNumber":48,"Velocity":51,"Duration":78484,"SoundDuration":78484,"Delta":49057451},{"NoteNumber":65,"Velocity":47,"Duration":61728,"SoundDuration":61728,"Delta":49266744},{"NoteNumber":70,"Velocity":47,"Duration":61728,"SoundDuration":61728,"Delta":49266744},{"NoteNumber":74,"Velocity":56,"Duration":61728,"SoundDuration":61728,"Delta":49266744},{"NoteNumber":43,"Velocity":56,"Duration":61728,"SoundDuration":61728,"Delta":49266744},{"NoteNumber":84,"Velocity":88,"Duration":393512,"SoundDuration":393512,"Delta":49702474},{"NoteNumber":72,"Velocity":75,"Duration":393512,"SoundDuration":393512,"Delta":49702474},{"NoteNumber":36,"Velocity":75,"Duration":393512,"SoundDuration":393512,"Delta":49702474},{"NoteNumber":64,"Velocity":48,"Duration":73683,"SoundDuration":73683,"Delta":50113095},{"NoteNumber":67,"Velocity":48,"Duration":73683,"SoundDuration":73683,"Delta":50113095},{"NoteNumber":72,"Velocity":57,"Duration":73683,"SoundDuration":73683,"Delta":50113095},{"NoteNumber":60,"Velocity":56,"Duration":73683,"SoundDuration":73683,"Delta":50113095},{"NoteNumber":62,"Velocity":41,"Duration":71473,"SoundDuration":71473,"Delta":50309585},{"NoteNumber":65,"Velocity":41,"Duration":71473,"SoundDuration":71473,"Delta":50309585},{"NoteNumber":67,"Velocity":49,"Duration":71473,"SoundDuration":71473,"Delta":50309585},{"NoteNumber":55,"Velocity":48,"Duration":71473,"SoundDuration":71473,"Delta":50309585},{"NoteNumber":67,"Velocity":49,"Duration":54002,"SoundDuration":54002,"Delta":50500182},{"NoteNumber":65,"Velocity":41,"Duration":54002,"SoundDuration":54002,"Delta":50500182},{"NoteNumber":62,"Velocity":41,"Duration":54002,"SoundDuration":54002,"Delta":50500182},{"NoteNumber":55,"Velocity":48,"Duration":54002,"SoundDuration":54002,"Delta":50500182},{"NoteNumber":64,"Velocity":41,"Duration":72777,"SoundDuration":72777,"Delta":50690779},{"NoteNumber":67,"Velocity":41,"Duration":72777,"SoundDuration":72777,"Delta":50690779},{"NoteNumber":72,"Velocity":49,"Duration":72777,"SoundDuration":72777,"Delta":50690779},{"NoteNumber":60,"Velocity":48,"Duration":72777,"SoundDuration":72777,"Delta":50690779},{"NoteNumber":64,"Velocity":47,"Duration":72777,"SoundDuration":72777,"Delta":50884854},{"NoteNumber":67,"Velocity":47,"Duration":72777,"SoundDuration":72777,"Delta":50884854},{"NoteNumber":72,"Velocity":56,"Duration":72777,"SoundDuration":72777,"Delta":50884854},{"NoteNumber":60,"Velocity":56,"Duration":72777,"SoundDuration":72777,"Delta":50884854},{"NoteNumber":62,"Velocity":47,"Duration":71473,"SoundDuration":71473,"Delta":51078928},{"NoteNumber":65,"Velocity":47,"Duration":71473,"SoundDuration":71473,"Delta":51078928},{"NoteNumber":67,"Velocity":56,"Duration":71473,"SoundDuration":71473,"Delta":51078928},{"NoteNumber":55,"Velocity":56,"Duration":71473,"SoundDuration":71473,"Delta":51078928},{"NoteNumber":62,"Velocity":42,"Duration":56373,"SoundDuration":56373,"Delta":51269525},{"NoteNumber":67,"Velocity":50,"Duration":56373,"SoundDuration":56373,"Delta":51269525},{"NoteNumber":65,"Velocity":42,"Duration":56373,"SoundDuration":56373,"Delta":51269525},{"NoteNumber":55,"Velocity":49,"Duration":56373,"SoundDuration":56373,"Delta":51269525},{"NoteNumber":64,"Velocity":49,"Duration":79091,"SoundDuration":79091,"Delta":51468491},{"NoteNumber":67,"Velocity":49,"Duration":79091,"SoundDuration":79091,"Delta":51468491},{"NoteNumber":72,"Velocity":58,"Duration":79091,"SoundDuration":79091,"Delta":51468491},{"NoteNumber":60,"Velocity":58,"Duration":79091,"SoundDuration":79091,"Delta":51468491},{"NoteNumber":65,"Velocity":55,"Duration":445566,"SoundDuration":445566,"Delta":51679402},{"NoteNumber":70,"Velocity":55,"Duration":445566,"SoundDuration":445566,"Delta":51679402},{"NoteNumber":74,"Velocity":65,"Duration":445566,"SoundDuration":445566,"Delta":51679402},{"NoteNumber":58,"Velocity":65,"Duration":445566,"SoundDuration":445566,"Delta":51679402},{"NoteNumber":75,"Velocity":62,"Duration":221482,"SoundDuration":221482,"Delta":52124968},{"NoteNumber":70,"Velocity":57,"Duration":2505122,"SoundDuration":2505122,"Delta":52124968},{"NoteNumber":67,"Velocity":57,"Duration":643126,"SoundDuration":643126,"Delta":52124968},{"NoteNumber":63,"Velocity":57,"Duration":643126,"SoundDuration":643126,"Delta":52124968},{"NoteNumber":74,"Velocity":60,"Duration":210822,"SoundDuration":210822,"Delta":52346451},{"NoteNumber":75,"Velocity":63,"Duration":627047,"SoundDuration":627047,"Delta":52557273},{"NoteNumber":58,"Velocity":52,"Duration":203970,"SoundDuration":203970,"Delta":52768095},{"NoteNumber":65,"Velocity":52,"Duration":203970,"SoundDuration":203970,"Delta":52768095},{"NoteNumber":63,"Velocity":57,"Duration":625751,"SoundDuration":625751,"Delta":52972066},{"NoteNumber":67,"Velocity":57,"Duration":625751,"SoundDuration":625751,"Delta":52972066},{"NoteNumber":74,"Velocity":60,"Duration":202675,"SoundDuration":202675,"Delta":53184320},{"NoteNumber":75,"Velocity":63,"Duration":622906,"SoundDuration":622906,"Delta":53386995},{"NoteNumber":65,"Velocity":52,"Duration":202675,"SoundDuration":202675,"Delta":53597818},{"NoteNumber":69,"Velocity":52,"Duration":202675,"SoundDuration":202675,"Delta":53597818},{"NoteNumber":63,"Velocity":58,"Duration":620188,"SoundDuration":620188,"Delta":53800493},{"NoteNumber":67,"Velocity":58,"Duration":620188,"SoundDuration":620188,"Delta":53800493},{"NoteNumber":74,"Velocity":61,"Duration":201369,"SoundDuration":201369,"Delta":54009902},{"NoteNumber":75,"Velocity":64,"Duration":628228,"SoundDuration":628228,"Delta":54211272},{"NoteNumber":65,"Velocity":54,"Duration":209409,"SoundDuration":209409,"Delta":54420681},{"NoteNumber":58,"Velocity":54,"Duration":209409,"SoundDuration":209409,"Delta":54420681},{"NoteNumber":57,"Velocity":57,"Duration":825571,"SoundDuration":825571,"Delta":54630091},{"NoteNumber":67,"Velocity":57,"Duration":825571,"SoundDuration":825571,"Delta":54630091},{"NoteNumber":74,"Velocity":60,"Duration":203970,"SoundDuration":203970,"Delta":54839500},{"NoteNumber":75,"Velocity":60,"Duration":201369,"SoundDuration":201369,"Delta":55043471},{"NoteNumber":79,"Velocity":62,"Duration":210822,"SoundDuration":210822,"Delta":55244840},{"NoteNumber":67,"Velocity":48,"Duration":203970,"SoundDuration":203970,"Delta":55455662},{"NoteNumber":74,"Velocity":62,"Duration":1604820,"SoundDuration":1604820,"Delta":55455662},{"NoteNumber":50,"Velocity":52,"Duration":1604820,"SoundDuration":1604820,"Delta":55455662},{"NoteNumber":57,"Velocity":52,"Duration":1604820,"SoundDuration":1604820,"Delta":55455662},{"NoteNumber":69,"Velocity":52,"Duration":203970,"SoundDuration":203970,"Delta":55659633},{"NoteNumber":67,"Velocity":51,"Duration":203970,"SoundDuration":203970,"Delta":55863604},{"NoteNumber":64,"Velocity":46,"Duration":203970,"SoundDuration":203970,"Delta":56067575},{"NoteNumber":67,"Velocity":48,"Duration":205310,"SoundDuration":205310,"Delta":56271545},{"NoteNumber":69,"Velocity":45,"Duration":203970,"SoundDuration":203970,"Delta":56476856},{"NoteNumber":67,"Velocity":44,"Duration":203970,"SoundDuration":203970,"Delta":56680827},{"NoteNumber":64,"Velocity":38,"Duration":175685,"SoundDuration":175685,"Delta":56884798},{"NoteNumber":74,"Velocity":55,"Duration":209409,"SoundDuration":209409,"Delta":57095620},{"NoteNumber":69,"Velocity":50,"Duration":2476396,"SoundDuration":2476396,"Delta":57095620},{"NoteNumber":65,"Velocity":51,"Duration":621388,"SoundDuration":621388,"Delta":57095620},{"NoteNumber":62,"Velocity":51,"Duration":621388,"SoundDuration":621388,"Delta":57095620},{"NoteNumber":72,"Velocity":54,"Duration":205310,"SoundDuration":205310,"Delta":57305029},{"NoteNumber":74,"Velocity":56,"Duration":620048,"SoundDuration":620048,"Delta":57510340},{"NoteNumber":57,"Velocity":46,"Duration":203970,"SoundDuration":203970,"Delta":57717009},{"NoteNumber":64,"Velocity":46,"Duration":203970,"SoundDuration":203970,"Delta":57717009},{"NoteNumber":62,"Velocity":51,"Duration":620129,"SoundDuration":620129,"Delta":57920979},{"NoteNumber":65,"Velocity":51,"Duration":620129,"SoundDuration":620129,"Delta":57920979},{"NoteNumber":72,"Velocity":54,"Duration":202675,"SoundDuration":202675,"Delta":58130389},{"NoteNumber":74,"Velocity":56,"Duration":618764,"SoundDuration":618764,"Delta":58333064},{"NoteNumber":64,"Velocity":46,"Duration":202675,"SoundDuration":202675,"Delta":58541109},{"NoteNumber":67,"Velocity":46,"Duration":202675,"SoundDuration":202675,"Delta":58541109},{"NoteNumber":62,"Velocity":52,"Duration":618823,"SoundDuration":618823,"Delta":58743784},{"NoteNumber":65,"Velocity":52,"Duration":618823,"SoundDuration":618823,"Delta":58743784},{"NoteNumber":72,"Velocity":54,"Duration":201369,"SoundDuration":201369,"Delta":58951828},{"NoteNumber":74,"Velocity":57,"Duration":625487,"SoundDuration":625487,"Delta":59153198},{"NoteNumber":64,"Velocity":48,"Duration":209409,"SoundDuration":209409,"Delta":59362607},{"NoteNumber":57,"Velocity":48,"Duration":209409,"SoundDuration":209409,"Delta":59362607},{"NoteNumber":70,"Velocity":51,"Duration":829788,"SoundDuration":829788,"Delta":59572017},{"NoteNumber":55,"Velocity":51,"Duration":829788,"SoundDuration":829788,"Delta":59572017},{"NoteNumber":65,"Velocity":51,"Duration":829788,"SoundDuration":829788,"Delta":59572017},{"NoteNumber":72,"Velocity":55,"Duration":201369,"SoundDuration":201369,"Delta":59778685},{"NoteNumber":74,"Velocity":55,"Duration":208044,"SoundDuration":208044,"Delta":59980054},{"NoteNumber":77,"Velocity":57,"Duration":213705,"SoundDuration":213705,"Delta":60188099},{"NoteNumber":65,"Velocity":43,"Duration":203970,"SoundDuration":203970,"Delta":60401805},{"NoteNumber":70,"Velocity":55,"Duration":2447648,"SoundDuration":2447648,"Delta":60401805},{"NoteNumber":48,"Velocity":46,"Duration":1631765,"SoundDuration":1631765,"Delta":60401805},{"NoteNumber":55,"Velocity":46,"Duration":2447648,"SoundDuration":2447648,"Delta":60401805},{"NoteNumber":63,"Velocity":46,"Duration":203970,"SoundDuration":203970,"Delta":60605775},{"NoteNumber":62,"Velocity":45,"Duration":203970,"SoundDuration":203970,"Delta":60809746},{"NoteNumber":63,"Velocity":44,"Duration":203970,"SoundDuration":203970,"Delta":61013717},{"NoteNumber":65,"Velocity":43,"Duration":203970,"SoundDuration":203970,"Delta":61217688},{"NoteNumber":63,"Velocity":40,"Duration":203970,"SoundDuration":203970,"Delta":61421658},{"NoteNumber":62,"Velocity":39,"Duration":203970,"SoundDuration":203970,"Delta":61625629},{"NoteNumber":63,"Velocity":38,"Duration":407941,"SoundDuration":407941,"Delta":61829600},{"NoteNumber":41,"Velocity":46,"Duration":4888904,"SoundDuration":4888904,"Delta":62033571},{"NoteNumber":62,"Velocity":46,"Duration":203970,"SoundDuration":203970,"Delta":62237541},{"NoteNumber":60,"Velocity":46,"Duration":203970,"SoundDuration":203970,"Delta":62441512},{"NoteNumber":63,"Velocity":46,"Duration":416194,"SoundDuration":416194,"Delta":62645483},{"NoteNumber":69,"Velocity":55,"Duration":864646,"SoundDuration":864646,"Delta":62849454},{"NoteNumber":53,"Velocity":38,"Duration":864646,"SoundDuration":864646,"Delta":62849454},{"NoteNumber":62,"Velocity":34,"Duration":205395,"SoundDuration":205395,"Delta":63061678},{"NoteNumber":60,"Velocity":34,"Duration":208044,"SoundDuration":208044,"Delta":63267073},{"NoteNumber":63,"Velocity":34,"Duration":204081,"SoundDuration":204081,"Delta":63475117},{"NoteNumber":60,"Velocity":38,"Duration":209409,"SoundDuration":209409,"Delta":63679199},{"NoteNumber":67,"Velocity":54,"Duration":852666,"SoundDuration":852666,"Delta":63679199},{"NoteNumber":51,"Velocity":38,"Duration":852666,"SoundDuration":852666,"Delta":63679199},{"NoteNumber":58,"Velocity":36,"Duration":202784,"SoundDuration":202784,"Delta":63888608},{"NoteNumber":57,"Velocity":36,"Duration":202785,"SoundDuration":202785,"Delta":64091393},{"NoteNumber":60,"Velocity":36,"Duration":412194,"SoundDuration":412194,"Delta":64294178},{"NoteNumber":65,"Velocity":54,"Duration":1218523,"SoundDuration":1218523,"Delta":64496963},{"NoteNumber":50,"Velocity":38,"Duration":1218523,"SoundDuration":1218523,"Delta":64496963},{"NoteNumber":58,"Velocity":34,"Duration":202785,"SoundDuration":202785,"Delta":64706373},{"NoteNumber":57,"Velocity":34,"Duration":202784,"SoundDuration":202784,"Delta":64909158},{"NoteNumber":60,"Velocity":34,"Duration":202785,"SoundDuration":202785,"Delta":65111943},{"NoteNumber":58,"Velocity":34,"Duration":205394,"SoundDuration":205394,"Delta":65314728},{"NoteNumber":62,"Velocity":34,"Duration":195363,"SoundDuration":195363,"Delta":65520123},{"NoteNumber":65,"Velocity":38,"Duration":203970,"SoundDuration":203970,"Delta":65715486},{"NoteNumber":67,"Velocity":52,"Duration":441111,"SoundDuration":441111,"Delta":65715486},{"NoteNumber":53,"Velocity":39,"Duration":441111,"SoundDuration":441111,"Delta":65715486},{"NoteNumber":62,"Velocity":36,"Duration":203970,"SoundDuration":203970,"Delta":65919457},{"NoteNumber":67,"Velocity":39,"Duration":199018,"SoundDuration":199018,"Delta":66123428},{"NoteNumber":70,"Velocity":57,"Duration":424896,"SoundDuration":424896,"Delta":66123428},{"NoteNumber":55,"Velocity":40,"Duration":424896,"SoundDuration":424896,"Delta":66123428},{"NoteNumber":65,"Velocity":36,"Duration":191865,"SoundDuration":191865,"Delta":66322446},{"NoteNumber":70,"Velocity":40,"Duration":204081,"SoundDuration":204081,"Delta":66514311},{"NoteNumber":74,"Velocity":55,"Duration":408163,"SoundDuration":408163,"Delta":66514311},{"NoteNumber":58,"Velocity":38,"Duration":408163,"SoundDuration":408163,"Delta":66514311},{"NoteNumber":67,"Velocity":37,"Duration":204081,"SoundDuration":204081,"Delta":66718393},{"NoteNumber":63,"Velocity":30,"Duration":203970,"SoundDuration":203970,"Delta":66922475},{"NoteNumber":70,"Velocity":55,"Duration":839112,"SoundDuration":839112,"Delta":66922475},{"NoteNumber":41,"Velocity":46,"Duration":4856772,"SoundDuration":4856772,"Delta":66922475},{"NoteNumber":62,"Velocity":37,"Duration":200079,"SoundDuration":200079,"Delta":67126445},{"NoteNumber":60,"Velocity":37,"Duration":200079,"SoundDuration":200079,"Delta":67326525},{"NoteNumber":63,"Velocity":37,"Duration":409489,"SoundDuration":409489,"Delta":67526605},{"NoteNumber":69,"Velocity":55,"Duration":857706,"SoundDuration":857706,"Delta":67726685},{"NoteNumber":53,"Velocity":38,"Duration":857706,"SoundDuration":857706,"Delta":67726685},{"NoteNumber":62,"Velocity":34,"Duration":202675,"SoundDuration":202675,"Delta":67936095},{"NoteNumber":60,"Velocity":34,"Duration":208044,"SoundDuration":208044,"Delta":68138770},{"NoteNumber":63,"Velocity":34,"Duration":202675,"SoundDuration":202675,"Delta":68346815},{"NoteNumber":60,"Velocity":38,"Duration":209409,"SoundDuration":209409,"Delta":68549490},{"NoteNumber":67,"Velocity":54,"Duration":852666,"SoundDuration":852666,"Delta":68549490},{"NoteNumber":51,"Velocity":38,"Duration":852666,"SoundDuration":852666,"Delta":68549490},{"NoteNumber":58,"Velocity":36,"Duration":202785,"SoundDuration":202785,"Delta":68758899},{"NoteNumber":57,"Velocity":36,"Duration":202784,"SoundDuration":202784,"Delta":68961684},{"NoteNumber":60,"Velocity":36,"Duration":412194,"SoundDuration":412194,"Delta":69164469},{"NoteNumber":65,"Velocity":54,"Duration":1215598,"SoundDuration":1215598,"Delta":69367254},{"NoteNumber":50,"Velocity":38,"Duration":1215598,"SoundDuration":1215598,"Delta":69367254},{"NoteNumber":58,"Velocity":34,"Duration":200079,"SoundDuration":200079,"Delta":69576664},{"NoteNumber":57,"Velocity":34,"Duration":202675,"SoundDuration":202675,"Delta":69776744},{"NoteNumber":60,"Velocity":34,"Duration":202675,"SoundDuration":202675,"Delta":69979419},{"NoteNumber":58,"Velocity":34,"Duration":205394,"SoundDuration":205394,"Delta":70182094},{"NoteNumber":62,"Velocity":34,"Duration":195363,"SoundDuration":195363,"Delta":70387489},{"NoteNumber":65,"Velocity":38,"Duration":202675,"SoundDuration":202675,"Delta":70582853},{"NoteNumber":67,"Velocity":54,"Duration":438520,"SoundDuration":438520,"Delta":70582853},{"NoteNumber":53,"Velocity":39,"Duration":438520,"SoundDuration":438520,"Delta":70582853},{"NoteNumber":62,"Velocity":36,"Duration":202675,"SoundDuration":202675,"Delta":70785528},{"NoteNumber":67,"Velocity":39,"Duration":199018,"SoundDuration":199018,"Delta":70988203},{"NoteNumber":70,"Velocity":57,"Duration":424229,"SoundDuration":424229,"Delta":70988203},{"NoteNumber":55,"Velocity":40,"Duration":424229,"SoundDuration":424229,"Delta":70988203},{"NoteNumber":65,"Velocity":36,"Duration":191865,"SoundDuration":191865,"Delta":71187222},{"NoteNumber":74,"Velocity":55,"Duration":433506,"SoundDuration":433506,"Delta":71379087},{"NoteNumber":70,"Velocity":40,"Duration":200079,"SoundDuration":200079,"Delta":71379087},{"NoteNumber":58,"Velocity":39,"Duration":400159,"SoundDuration":400159,"Delta":71379087},{"NoteNumber":67,"Velocity":37,"Duration":200079,"SoundDuration":200079,"Delta":71579167},{"NoteNumber":70,"Velocity":42,"Duration":200079,"SoundDuration":200079,"Delta":71779247},{"NoteNumber":76,"Velocity":58,"Duration":432678,"SoundDuration":432678,"Delta":71779247},{"NoteNumber":43,"Velocity":50,"Duration":1180597,"SoundDuration":1180597,"Delta":71779247},{"NoteNumber":67,"Velocity":37,"Duration":200079,"SoundDuration":200079,"Delta":71979327},{"NoteNumber":72,"Velocity":39,"Duration":195109,"SoundDuration":195109,"Delta":72179407},{"NoteNumber":77,"Velocity":54,"Duration":390218,"SoundDuration":390218,"Delta":72179407},{"NoteNumber":57,"Velocity":39,"Duration":390218,"SoundDuration":390218,"Delta":72179407},{"NoteNumber":60,"Velocity":39,"Duration":390218,"SoundDuration":390218,"Delta":72179407},{"NoteNumber":65,"Velocity":39,"Duration":390218,"SoundDuration":390218,"Delta":72179407},{"NoteNumber":69,"Velocity":37,"Duration":195109,"SoundDuration":195109,"Delta":72374516},{"NoteNumber":70,"Velocity":39,"Duration":195109,"SoundDuration":195109,"Delta":72569625},{"NoteNumber":74,"Velocity":55,"Duration":780436,"SoundDuration":780436,"Delta":72569625},{"NoteNumber":58,"Velocity":39,"Duration":780436,"SoundDuration":780436,"Delta":72569625},{"NoteNumber":62,"Velocity":39,"Duration":780436,"SoundDuration":780436,"Delta":72569625},{"NoteNumber":55,"Velocity":39,"Duration":780436,"SoundDuration":780436,"Delta":72569625},{"NoteNumber":67,"Velocity":37,"Duration":195109,"SoundDuration":195109,"Delta":72764734},{"NoteNumber":70,"Velocity":39,"Duration":195109,"SoundDuration":195109,"Delta":72959844},{"NoteNumber":41,"Velocity":48,"Duration":390218,"SoundDuration":390218,"Delta":72959844},{"NoteNumber":67,"Velocity":37,"Duration":195109,"SoundDuration":195109,"Delta":73154953},{"NoteNumber":70,"Velocity":42,"Duration":202675,"SoundDuration":202675,"Delta":73350062},{"NoteNumber":72,"Velocity":55,"Duration":439345,"SoundDuration":439345,"Delta":73350062},{"NoteNumber":40,"Velocity":50,"Duration":405350,"SoundDuration":405350,"Delta":73350062},{"NoteNumber":67,"Velocity":37,"Duration":202675,"SoundDuration":202675,"Delta":73552737},{"NoteNumber":70,"Velocity":42,"Duration":203970,"SoundDuration":203970,"Delta":73755413},{"NoteNumber":74,"Velocity":55,"Duration":441503,"SoundDuration":441503,"Delta":73755413},{"NoteNumber":38,"Velocity":52,"Duration":407941,"SoundDuration":407941,"Delta":73755413},{"NoteNumber":67,"Velocity":37,"Duration":203970,"SoundDuration":203970,"Delta":73959383},{"NoteNumber":79,"Velocity":63,"Duration":402738,"SoundDuration":402738,"Delta":74163354},{"NoteNumber":74,"Velocity":45,"Duration":201369,"SoundDuration":201369,"Delta":74163354},{"NoteNumber":36,"Velocity":57,"Duration":2411465,"SoundDuration":2411465,"Delta":74163354},{"NoteNumber":70,"Velocity":40,"Duration":201369,"SoundDuration":201369,"Delta":74364723},{"NoteNumber":76,"Velocity":44,"Duration":203970,"SoundDuration":203970,"Delta":74566093},{"NoteNumber":81,"Velocity":57,"Duration":407941,"SoundDuration":407941,"Delta":74566093},{"NoteNumber":69,"Velocity":40,"Duration":407941,"SoundDuration":407941,"Delta":74566093},{"NoteNumber":64,"Velocity":40,"Duration":407941,"SoundDuration":407941,"Delta":74566093},{"NoteNumber":60,"Velocity":40,"Duration":407941,"SoundDuration":407941,"Delta":74566093},{"NoteNumber":72,"Velocity":40,"Duration":203970,"SoundDuration":203970,"Delta":74770063},{"NoteNumber":76,"Velocity":46,"Duration":198807,"SoundDuration":198807,"Delta":74974034},{"NoteNumber":81,"Velocity":63,"Duration":397614,"SoundDuration":397614,"Delta":74974034},{"NoteNumber":60,"Velocity":44,"Duration":397614,"SoundDuration":397614,"Delta":74974034},{"NoteNumber":64,"Velocity":44,"Duration":397614,"SoundDuration":397614,"Delta":74974034},{"NoteNumber":69,"Velocity":44,"Duration":397614,"SoundDuration":397614,"Delta":74974034},{"NoteNumber":72,"Velocity":40,"Duration":198807,"SoundDuration":198807,"Delta":75172841},{"NoteNumber":72,"Velocity":44,"Duration":198807,"SoundDuration":198807,"Delta":75371649},{"NoteNumber":76,"Velocity":57,"Duration":397614,"SoundDuration":397614,"Delta":75371649},{"NoteNumber":64,"Velocity":40,"Duration":397614,"SoundDuration":397614,"Delta":75371649},{"NoteNumber":57,"Velocity":40,"Duration":397614,"SoundDuration":397614,"Delta":75371649},{"NoteNumber":60,"Velocity":40,"Duration":397614,"SoundDuration":397614,"Delta":75371649},{"NoteNumber":69,"Velocity":38,"Duration":198807,"SoundDuration":198807,"Delta":75570456},{"NoteNumber":72,"Velocity":44,"Duration":198807,"SoundDuration":198807,"Delta":75769263},{"NoteNumber":76,"Velocity":57,"Duration":805555,"SoundDuration":805555,"Delta":75769263},{"NoteNumber":57,"Velocity":40,"Duration":805555,"SoundDuration":805555,"Delta":75769263},{"NoteNumber":60,"Velocity":40,"Duration":805555,"SoundDuration":805555,"Delta":75769263},{"NoteNumber":64,"Velocity":40,"Duration":805555,"SoundDuration":805555,"Delta":75769263},{"NoteNumber":69,"Velocity":36,"Duration":198807,"SoundDuration":198807,"Delta":75968070},{"NoteNumber":72,"Velocity":44,"Duration":203970,"SoundDuration":203970,"Delta":76166878},{"NoteNumber":69,"Velocity":36,"Duration":203970,"SoundDuration":203970,"Delta":76370848},{"NoteNumber":70,"Velocity":44,"Duration":200079,"SoundDuration":200079,"Delta":76574819},{"NoteNumber":76,"Velocity":61,"Duration":432678,"SoundDuration":432678,"Delta":76574819},{"NoteNumber":43,"Velocity":52,"Duration":1180597,"SoundDuration":1180597,"Delta":76574819},{"NoteNumber":67,"Velocity":38,"Duration":200079,"SoundDuration":200079,"Delta":76774899},{"NoteNumber":72,"Velocity":40,"Duration":195109,"SoundDuration":195109,"Delta":76974979},{"NoteNumber":77,"Velocity":56,"Duration":390218,"SoundDuration":390218,"Delta":76974979},{"NoteNumber":57,"Velocity":40,"Duration":390218,"SoundDuration":390218,"Delta":76974979},{"NoteNumber":60,"Velocity":40,"Duration":390218,"SoundDuration":390218,"Delta":76974979},{"NoteNumber":65,"Velocity":40,"Duration":390218,"SoundDuration":390218,"Delta":76974979},{"NoteNumber":69,"Velocity":38,"Duration":195109,"SoundDuration":195109,"Delta":77170088},{"NoteNumber":70,"Velocity":40,"Duration":195109,"SoundDuration":195109,"Delta":77365198},{"NoteNumber":74,"Velocity":57,"Duration":780436,"SoundDuration":780436,"Delta":77365198},{"NoteNumber":58,"Velocity":40,"Duration":780436,"SoundDuration":780436,"Delta":77365198},{"NoteNumber":62,"Velocity":40,"Duration":780436,"SoundDuration":780436,"Delta":77365198},{"NoteNumber":55,"Velocity":40,"Duration":780436,"SoundDuration":780436,"Delta":77365198},{"NoteNumber":67,"Velocity":38,"Duration":195109,"SoundDuration":195109,"Delta":77560307},{"NoteNumber":70,"Velocity":40,"Duration":195109,"SoundDuration":195109,"Delta":77755416},{"NoteNumber":41,"Velocity":50,"Duration":390218,"SoundDuration":390218,"Delta":77755416},{"NoteNumber":67,"Velocity":38,"Duration":195109,"SoundDuration":195109,"Delta":77950525},{"NoteNumber":70,"Velocity":44,"Duration":202675,"SoundDuration":202675,"Delta":78145635},{"NoteNumber":72,"Velocity":57,"Duration":438485,"SoundDuration":438485,"Delta":78145635},{"NoteNumber":40,"Velocity":52,"Duration":405350,"SoundDuration":405350,"Delta":78145635},{"NoteNumber":67,"Velocity":38,"Duration":202675,"SoundDuration":202675,"Delta":78348310},{"NoteNumber":70,"Velocity":44,"Duration":198807,"SoundDuration":198807,"Delta":78550985},{"NoteNumber":74,"Velocity":57,"Duration":430609,"SoundDuration":430609,"Delta":78550985},{"NoteNumber":38,"Velocity":55,"Duration":397614,"SoundDuration":397614,"Delta":78550985},{"NoteNumber":67,"Velocity":38,"Duration":198807,"SoundDuration":198807,"Delta":78749792},{"NoteNumber":74,"Velocity":48,"Duration":197967,"SoundDuration":197967,"Delta":78948600},{"NoteNumber":79,"Velocity":67,"Duration":395934,"SoundDuration":395934,"Delta":78948600},{"NoteNumber":36,"Velocity":60,"Duration":4636337,"SoundDuration":4636337,"Delta":78948600},{"NoteNumber":70,"Velocity":43,"Duration":197967,"SoundDuration":197967,"Delta":79146567},{"NoteNumber":76,"Velocity":46,"Duration":201694,"SoundDuration":201694,"Delta":79344535},{"NoteNumber":81,"Velocity":60,"Duration":403388,"SoundDuration":403388,"Delta":79344535},{"NoteNumber":69,"Velocity":43,"Duration":403388,"SoundDuration":403388,"Delta":79344535},{"NoteNumber":64,"Velocity":43,"Duration":403388,"SoundDuration":403388,"Delta":79344535},{"NoteNumber":60,"Velocity":43,"Duration":403388,"SoundDuration":403388,"Delta":79344535},{"NoteNumber":72,"Velocity":43,"Duration":201694,"SoundDuration":201694,"Delta":79546229},{"NoteNumber":76,"Velocity":49,"Duration":196747,"SoundDuration":196747,"Delta":79747923},{"NoteNumber":81,"Velocity":67,"Duration":393494,"SoundDuration":393494,"Delta":79747923},{"NoteNumber":60,"Velocity":46,"Duration":393494,"SoundDuration":393494,"Delta":79747923},{"NoteNumber":64,"Velocity":46,"Duration":393494,"SoundDuration":393494,"Delta":79747923},{"NoteNumber":69,"Velocity":46,"Duration":393494,"SoundDuration":393494,"Delta":79747923},{"NoteNumber":72,"Velocity":43,"Duration":196747,"SoundDuration":196747,"Delta":79944670},{"NoteNumber":72,"Velocity":46,"Duration":189777,"SoundDuration":189777,"Delta":80141417},{"NoteNumber":76,"Velocity":60,"Duration":379554,"SoundDuration":379554,"Delta":80141417},{"NoteNumber":64,"Velocity":43,"Duration":379554,"SoundDuration":379554,"Delta":80141417},{"NoteNumber":57,"Velocity":43,"Duration":379554,"SoundDuration":379554,"Delta":80141417},{"NoteNumber":60,"Velocity":43,"Duration":379554,"SoundDuration":379554,"Delta":80141417},{"NoteNumber":69,"Velocity":39,"Duration":189777,"SoundDuration":189777,"Delta":80331194},{"NoteNumber":72,"Velocity":46,"Duration":200427,"SoundDuration":200427,"Delta":80520972},{"NoteNumber":76,"Velocity":60,"Duration":400855,"SoundDuration":400855,"Delta":80520972},{"NoteNumber":57,"Velocity":45,"Duration":400855,"SoundDuration":400855,"Delta":80520972},{"NoteNumber":60,"Velocity":45,"Duration":400855,"SoundDuration":400855,"Delta":80520972},{"NoteNumber":64,"Velocity":45,"Duration":400855,"SoundDuration":400855,"Delta":80520972},{"NoteNumber":69,"Velocity":37,"Duration":200427,"SoundDuration":200427,"Delta":80721399},{"NoteNumber":82,"Velocity":70,"Duration":377311,"SoundDuration":377311,"Delta":80921827},{"NoteNumber":77,"Velocity":52,"Duration":188655,"SoundDuration":188655,"Delta":80921827},{"NoteNumber":70,"Velocity":48,"Duration":377311,"SoundDuration":377311,"Delta":80921827},{"NoteNumber":62,"Velocity":48,"Duration":377311,"SoundDuration":377311,"Delta":80921827},{"NoteNumber":65,"Velocity":48,"Duration":377311,"SoundDuration":377311,"Delta":80921827},{"NoteNumber":74,"Velocity":44,"Duration":188655,"SoundDuration":188655,"Delta":81110482},{"NoteNumber":77,"Velocity":58,"Duration":196747,"SoundDuration":196747,"Delta":81299138},{"NoteNumber":82,"Velocity":76,"Duration":393494,"SoundDuration":393494,"Delta":81299138},{"NoteNumber":62,"Velocity":52,"Duration":393494,"SoundDuration":393494,"Delta":81299138},{"NoteNumber":65,"Velocity":52,"Duration":393494,"SoundDuration":393494,"Delta":81299138},{"NoteNumber":70,"Velocity":52,"Duration":393494,"SoundDuration":393494,"Delta":81299138},{"NoteNumber":74,"Velocity":40,"Duration":196747,"SoundDuration":196747,"Delta":81495885},{"NoteNumber":79,"Velocity":58,"Duration":188655,"SoundDuration":188655,"Delta":81692632},{"NoteNumber":84,"Velocity":70,"Duration":377311,"SoundDuration":377311,"Delta":81692632},{"NoteNumber":64,"Velocity":48,"Duration":377311,"SoundDuration":377311,"Delta":81692632},{"NoteNumber":67,"Velocity":48,"Duration":377311,"SoundDuration":377311,"Delta":81692632},{"NoteNumber":72,"Velocity":48,"Duration":377311,"SoundDuration":377311,"Delta":81692632},{"NoteNumber":76,"Velocity":40,"Duration":188655,"SoundDuration":188655,"Delta":81881287},{"NoteNumber":79,"Velocity":58,"Duration":195541,"SoundDuration":195541,"Delta":82069943},{"NoteNumber":84,"Velocity":78,"Duration":391083,"SoundDuration":391083,"Delta":82069943},{"NoteNumber":64,"Velocity":52,"Duration":391083,"SoundDuration":391083,"Delta":82069943},{"NoteNumber":67,"Velocity":52,"Duration":391083,"SoundDuration":391083,"Delta":82069943},{"NoteNumber":72,"Velocity":52,"Duration":391083,"SoundDuration":391083,"Delta":82069943},{"NoteNumber":76,"Velocity":40,"Duration":195541,"SoundDuration":195541,"Delta":82265484},{"NoteNumber":76,"Velocity":58,"Duration":188981,"SoundDuration":188981,"Delta":82461026},{"NoteNumber":81,"Velocity":70,"Duration":375967,"SoundDuration":375967,"Delta":82461026},{"NoteNumber":60,"Velocity":48,"Duration":375967,"SoundDuration":375967,"Delta":82461026},{"NoteNumber":64,"Velocity":48,"Duration":375967,"SoundDuration":375967,"Delta":82461026},{"NoteNumber":69,"Velocity":48,"Duration":375967,"SoundDuration":375967,"Delta":82461026},{"NoteNumber":72,"Velocity":40,"Duration":186985,"SoundDuration":186985,"Delta":82650008},{"NoteNumber":76,"Velocity":58,"Duration":186985,"SoundDuration":186985,"Delta":82836994},{"NoteNumber":81,"Velocity":76,"Duration":373971,"SoundDuration":373971,"Delta":82836994},{"NoteNumber":60,"Velocity":52,"Duration":373971,"SoundDuration":373971,"Delta":82836994},{"NoteNumber":64,"Velocity":52,"Duration":373971,"SoundDuration":373971,"Delta":82836994},{"NoteNumber":69,"Velocity":52,"Duration":373971,"SoundDuration":373971,"Delta":82836994},{"NoteNumber":72,"Velocity":40,"Duration":186985,"SoundDuration":186985,"Delta":83023979},{"NoteNumber":81,"Velocity":58,"Duration":186985,"SoundDuration":186985,"Delta":83210965},{"NoteNumber":84,"Velocity":79,"Duration":373971,"SoundDuration":373971,"Delta":83210965},{"NoteNumber":64,"Velocity":56,"Duration":373971,"SoundDuration":373971,"Delta":83210965},{"NoteNumber":69,"Velocity":56,"Duration":373971,"SoundDuration":373971,"Delta":83210965},{"NoteNumber":72,"Velocity":56,"Duration":373971,"SoundDuration":373971,"Delta":83210965},{"NoteNumber":76,"Velocity":40,"Duration":186985,"SoundDuration":186985,"Delta":83397951},{"NoteNumber":82,"Velocity":78,"Duration":186985,"SoundDuration":186985,"Delta":83584937},{"NoteNumber":86,"Velocity":78,"Duration":373971,"SoundDuration":373971,"Delta":83584937},{"NoteNumber":34,"Velocity":66,"Duration":2248669,"SoundDuration":2248669,"Delta":83584937},{"NoteNumber":41,"Velocity":66,"Duration":2248669,"SoundDuration":2248669,"Delta":83584937},{"NoteNumber":76,"Velocity":44,"Duration":186985,"SoundDuration":186985,"Delta":83771922},{"NoteNumber":82,"Velocity":76,"Duration":192702,"SoundDuration":192702,"Delta":83958908},{"NoteNumber":86,"Velocity":76,"Duration":385406,"SoundDuration":385406,"Delta":83958908},{"NoteNumber":65,"Velocity":71,"Duration":385406,"SoundDuration":385406,"Delta":83958908},{"NoteNumber":77,"Velocity":44,"Duration":192703,"SoundDuration":192703,"Delta":84151611},{"NoteNumber":82,"Velocity":66,"Duration":186985,"SoundDuration":186985,"Delta":84344314},{"NoteNumber":86,"Velocity":66,"Duration":186985,"SoundDuration":186985,"Delta":84344314},{"NoteNumber":55,"Velocity":44,"Duration":1489291,"SoundDuration":1489291,"Delta":84344314},{"NoteNumber":58,"Velocity":44,"Duration":1489291,"SoundDuration":1489291,"Delta":84344314},{"NoteNumber":62,"Velocity":74,"Duration":747943,"SoundDuration":747943,"Delta":84344314},{"NoteNumber":74,"Velocity":51,"Duration":186985,"SoundDuration":186985,"Delta":84531300},{"NoteNumber":82,"Velocity":65,"Duration":186985,"SoundDuration":186985,"Delta":84718286},{"NoteNumber":86,"Velocity":65,"Duration":186985,"SoundDuration":186985,"Delta":84718286},{"NoteNumber":74,"Velocity":51,"Duration":186985,"SoundDuration":186985,"Delta":84905271},{"NoteNumber":82,"Velocity":63,"Duration":186985,"SoundDuration":186985,"Delta":85092257},{"NoteNumber":86,"Velocity":63,"Duration":186985,"SoundDuration":186985,"Delta":85092257},{"NoteNumber":60,"Velocity":68,"Duration":373971,"SoundDuration":373971,"Delta":85092257},{"NoteNumber":72,"Velocity":50,"Duration":186985,"SoundDuration":186985,"Delta":85279243},{"NoteNumber":82,"Velocity":60,"Duration":183688,"SoundDuration":183688,"Delta":85466229},{"NoteNumber":86,"Velocity":60,"Duration":183688,"SoundDuration":183688,"Delta":85466229},{"NoteNumber":62,"Velocity":63,"Duration":367377,"SoundDuration":367377,"Delta":85466229},{"NoteNumber":74,"Velocity":52,"Duration":183688,"SoundDuration":183688,"Delta":85649917},{"NoteNumber":82,"Velocity":60,"Duration":190379,"SoundDuration":190379,"Delta":85833606},{"NoteNumber":86,"Velocity":60,"Duration":190379,"SoundDuration":190379,"Delta":85833606},{"NoteNumber":58,"Velocity":44,"Duration":2285601,"SoundDuration":2285601,"Delta":85833606},{"NoteNumber":62,"Velocity":44,"Duration":2285601,"SoundDuration":2285601,"Delta":85833606},{"NoteNumber":67,"Velocity":67,"Duration":380758,"SoundDuration":380758,"Delta":85833606},{"NoteNumber":79,"Velocity":53,"Duration":190379,"SoundDuration":190379,"Delta":86023985},{"NoteNumber":82,"Velocity":60,"Duration":182637,"SoundDuration":182637,"Delta":86214365},{"NoteNumber":86,"Velocity":60,"Duration":182637,"SoundDuration":182637,"Delta":86214365},{"NoteNumber":69,"Velocity":58,"Duration":365274,"SoundDuration":365274,"Delta":86214365},{"NoteNumber":81,"Velocity":52,"Duration":182637,"SoundDuration":182637,"Delta":86397002},{"NoteNumber":82,"Velocity":59,"Duration":188087,"SoundDuration":188087,"Delta":86579639},{"NoteNumber":86,"Velocity":59,"Duration":188087,"SoundDuration":188087,"Delta":86579639},{"NoteNumber":69,"Velocity":60,"Duration":376175,"SoundDuration":376175,"Delta":86579639},{"NoteNumber":81,"Velocity":45,"Duration":188087,"SoundDuration":188087,"Delta":86767727},{"NoteNumber":82,"Velocity":57,"Duration":193898,"SoundDuration":193898,"Delta":86955815},{"NoteNumber":86,"Velocity":57,"Duration":193898,"SoundDuration":193898,"Delta":86955815},{"NoteNumber":64,"Velocity":58,"Duration":387797,"SoundDuration":387797,"Delta":86955815},{"NoteNumber":76,"Velocity":43,"Duration":193898,"SoundDuration":193898,"Delta":87149713},{"NoteNumber":82,"Velocity":49,"Duration":193898,"SoundDuration":193898,"Delta":87343612},{"NoteNumber":86,"Velocity":49,"Duration":193898,"SoundDuration":193898,"Delta":87343612},{"NoteNumber":64,"Velocity":57,"Duration":775594,"SoundDuration":775594,"Delta":87343612},{"NoteNumber":76,"Velocity":39,"Duration":193898,"SoundDuration":193898,"Delta":87537511},{"NoteNumber":82,"Velocity":47,"Duration":193898,"SoundDuration":193898,"Delta":87731410},{"NoteNumber":86,"Velocity":47,"Duration":193898,"SoundDuration":193898,"Delta":87731410},{"NoteNumber":76,"Velocity":38,"Duration":193898,"SoundDuration":193898,"Delta":87925308},{"NoteNumber":82,"Velocity":50,"Duration":200079,"SoundDuration":200079,"Delta":88119207},{"NoteNumber":86,"Velocity":69,"Duration":400159,"SoundDuration":400159,"Delta":88119207},{"NoteNumber":34,"Velocity":52,"Duration":2442200,"SoundDuration":2442200,"Delta":88119207},{"NoteNumber":41,"Velocity":52,"Duration":2442200,"SoundDuration":2442200,"Delta":88119207},{"NoteNumber":76,"Velocity":34,"Duration":200079,"SoundDuration":200079,"Delta":88319287},{"NoteNumber":82,"Velocity":49,"Duration":205310,"SoundDuration":205310,"Delta":88519367},{"NoteNumber":86,"Velocity":67,"Duration":410621,"SoundDuration":410621,"Delta":88519367},{"NoteNumber":65,"Velocity":49,"Duration":410621,"SoundDuration":410621,"Delta":88519367},{"NoteNumber":77,"Velocity":34,"Duration":205310,"SoundDuration":205310,"Delta":88724678},{"NoteNumber":82,"Velocity":58,"Duration":197550,"SoundDuration":197550,"Delta":88929989},{"NoteNumber":86,"Velocity":58,"Duration":197550,"SoundDuration":197550,"Delta":88929989},{"NoteNumber":53,"Velocity":29,"Duration":1631418,"SoundDuration":1631418,"Delta":88929989},{"NoteNumber":58,"Velocity":29,"Duration":1631418,"SoundDuration":1631418,"Delta":88929989},{"NoteNumber":62,"Velocity":49,"Duration":790201,"SoundDuration":790201,"Delta":88929989},{"NoteNumber":74,"Velocity":37,"Duration":197550,"SoundDuration":197550,"Delta":89127539},{"NoteNumber":82,"Velocity":57,"Duration":197550,"SoundDuration":197550,"Delta":89325090},{"NoteNumber":86,"Velocity":57,"Duration":197550,"SoundDuration":197550,"Delta":89325090},{"NoteNumber":74,"Velocity":37,"Duration":197550,"SoundDuration":197550,"Delta":89522640},{"NoteNumber":82,"Velocity":51,"Duration":203970,"SoundDuration":203970,"Delta":89720191},{"NoteNumber":86,"Velocity":51,"Duration":203970,"SoundDuration":203970,"Delta":89720191},{"NoteNumber":60,"Velocity":47,"Duration":407941,"SoundDuration":407941,"Delta":89720191},{"NoteNumber":72,"Velocity":35,"Duration":203970,"SoundDuration":203970,"Delta":89924161},{"NoteNumber":82,"Velocity":48,"Duration":216637,"SoundDuration":216637,"Delta":90128132},{"NoteNumber":86,"Velocity":48,"Duration":216637,"SoundDuration":216637,"Delta":90128132},{"NoteNumber":62,"Velocity":44,"Duration":397169,"SoundDuration":397169,"Delta":90128132},{"NoteNumber":74,"Velocity":33,"Duration":180531,"SoundDuration":180531,"Delta":90344770},{"NoteNumber":83,"Velocity":44,"Duration":190379,"SoundDuration":190379,"Delta":90561408},{"NoteNumber":88,"Velocity":44,"Duration":190379,"SoundDuration":190379,"Delta":90561408},{"NoteNumber":28,"Velocity":40,"Duration":744703,"SoundDuration":744703,"Delta":90561408},{"NoteNumber":40,"Velocity":40,"Duration":744703,"SoundDuration":744703,"Delta":90561408},{"NoteNumber":76,"Velocity":38,"Duration":184774,"SoundDuration":184774,"Delta":90751787},{"NoteNumber":71,"Velocity":38,"Duration":184774,"SoundDuration":184774,"Delta":90936562},{"NoteNumber":76,"Velocity":38,"Duration":184774,"SoundDuration":184774,"Delta":90936562},{"NoteNumber":64,"Velocity":38,"Duration":184774,"SoundDuration":184774,"Delta":91121336},{"NoteNumber":76,"Velocity":45,"Duration":190379,"SoundDuration":190379,"Delta":91306111},{"NoteNumber":69,"Velocity":45,"Duration":190379,"SoundDuration":190379,"Delta":91306111},{"NoteNumber":29,"Velocity":42,"Duration":748000,"SoundDuration":748000,"Delta":91306111},{"NoteNumber":41,"Velocity":42,"Duration":748000,"SoundDuration":748000,"Delta":91306111},{"NoteNumber":64,"Velocity":42,"Duration":185873,"SoundDuration":185873,"Delta":91496490},{"NoteNumber":57,"Velocity":45,"Duration":185873,"SoundDuration":185873,"Delta":91682364},{"NoteNumber":64,"Velocity":45,"Duration":185873,"SoundDuration":185873,"Delta":91682364},{"NoteNumber":52,"Velocity":42,"Duration":185873,"SoundDuration":185873,"Delta":91868237},{"NoteNumber":59,"Velocity":47,"Duration":190379,"SoundDuration":190379,"Delta":92054111},{"NoteNumber":64,"Velocity":47,"Duration":190379,"SoundDuration":190379,"Delta":92054111},{"NoteNumber":31,"Velocity":45,"Duration":748000,"SoundDuration":748000,"Delta":92054111},{"NoteNumber":43,"Velocity":45,"Duration":748000,"SoundDuration":748000,"Delta":92054111},{"NoteNumber":52,"Velocity":45,"Duration":185873,"SoundDuration":185873,"Delta":92244490},{"NoteNumber":59,"Velocity":48,"Duration":185873,"SoundDuration":185873,"Delta":92430364},{"NoteNumber":64,"Velocity":48,"Duration":185873,"SoundDuration":185873,"Delta":92430364},{"NoteNumber":52,"Velocity":46,"Duration":185873,"SoundDuration":185873,"Delta":92616237},{"NoteNumber":60,"Velocity":50,"Duration":185873,"SoundDuration":185873,"Delta":92802111},{"NoteNumber":64,"Velocity":50,"Duration":185873,"SoundDuration":185873,"Delta":92802111},{"NoteNumber":33,"Velocity":47,"Duration":743493,"SoundDuration":743493,"Delta":92802111},{"NoteNumber":45,"Velocity":47,"Duration":743493,"SoundDuration":743493,"Delta":92802111},{"NoteNumber":52,"Velocity":47,"Duration":185873,"SoundDuration":185873,"Delta":92987984},{"NoteNumber":60,"Velocity":50,"Duration":185873,"SoundDuration":185873,"Delta":93173858},{"NoteNumber":64,"Velocity":50,"Duration":185873,"SoundDuration":185873,"Delta":93173858},{"NoteNumber":52,"Velocity":48,"Duration":185873,"SoundDuration":185873,"Delta":93359731},{"NoteNumber":64,"Velocity":49,"Duration":189226,"SoundDuration":189226,"Delta":93545605},{"NoteNumber":62,"Velocity":49,"Duration":189226,"SoundDuration":189226,"Delta":93545605},{"NoteNumber":35,"Velocity":42,"Duration":378453,"SoundDuration":378453,"Delta":93545605},{"NoteNumber":47,"Velocity":42,"Duration":378453,"SoundDuration":378453,"Delta":93545605},{"NoteNumber":52,"Velocity":47,"Duration":189226,"SoundDuration":189226,"Delta":93734831},{"NoteNumber":60,"Velocity":49,"Duration":193898,"SoundDuration":193898,"Delta":93924058},{"NoteNumber":64,"Velocity":49,"Duration":193898,"SoundDuration":193898,"Delta":93924058},{"NoteNumber":33,"Velocity":42,"Duration":387797,"SoundDuration":387797,"Delta":93924058},{"NoteNumber":45,"Velocity":42,"Duration":387797,"SoundDuration":387797,"Delta":93924058},{"NoteNumber":52,"Velocity":47,"Duration":193898,"SoundDuration":193898,"Delta":94117957},{"NoteNumber":59,"Velocity":41,"Duration":855749,"SoundDuration":855749,"Delta":94311856},{"NoteNumber":62,"Velocity":41,"Duration":855749,"SoundDuration":855749,"Delta":94311856},{"NoteNumber":65,"Velocity":41,"Duration":413336,"SoundDuration":413336,"Delta":94311856},{"NoteNumber":31,"Velocity":40,"Duration":413336,"SoundDuration":413336,"Delta":94311856},{"NoteNumber":43,"Velocity":40,"Duration":413336,"SoundDuration":413336,"Delta":94311856},{"NoteNumber":69,"Velocity":39,"Duration":442412,"SoundDuration":442412,"Delta":94725193},{"NoteNumber":29,"Velocity":39,"Duration":442412,"SoundDuration":442412,"Delta":94725193},{"NoteNumber":41,"Velocity":39,"Duration":442412,"SoundDuration":442412,"Delta":94725193},{"NoteNumber":83,"Velocity":44,"Duration":190379,"SoundDuration":190379,"Delta":95167605},{"NoteNumber":88,"Velocity":44,"Duration":190379,"SoundDuration":190379,"Delta":95167605},{"NoteNumber":28,"Velocity":40,"Duration":744703,"SoundDuration":744703,"Delta":95167605},{"NoteNumber":40,"Velocity":40,"Duration":744703,"SoundDuration":744703,"Delta":95167605},{"NoteNumber":76,"Velocity":38,"Duration":184774,"SoundDuration":184774,"Delta":95357985},{"NoteNumber":71,"Velocity":38,"Duration":184774,"SoundDuration":184774,"Delta":95542759},{"NoteNumber":76,"Velocity":38,"Duration":184774,"SoundDuration":184774,"Delta":95542759},{"NoteNumber":64,"Velocity":38,"Duration":184774,"SoundDuration":184774,"Delta":95727534},{"NoteNumber":69,"Velocity":45,"Duration":190379,"SoundDuration":190379,"Delta":95912308},{"NoteNumber":76,"Velocity":45,"Duration":190379,"SoundDuration":190379,"Delta":95912308},{"NoteNumber":29,"Velocity":42,"Duration":748000,"SoundDuration":748000,"Delta":95912308},{"NoteNumber":41,"Velocity":42,"Duration":748000,"SoundDuration":748000,"Delta":95912308},{"NoteNumber":64,"Velocity":42,"Duration":185873,"SoundDuration":185873,"Delta":96102688},{"NoteNumber":64,"Velocity":45,"Duration":185873,"SoundDuration":185873,"Delta":96288561},{"NoteNumber":57,"Velocity":45,"Duration":185873,"SoundDuration":185873,"Delta":96288561},{"NoteNumber":52,"Velocity":42,"Duration":185873,"SoundDuration":185873,"Delta":96474435},{"NoteNumber":59,"Velocity":46,"Duration":190379,"SoundDuration":190379,"Delta":96660308},{"NoteNumber":64,"Velocity":46,"Duration":190379,"SoundDuration":190379,"Delta":96660308},{"NoteNumber":31,"Velocity":42,"Duration":748000,"SoundDuration":748000,"Delta":96660308},{"NoteNumber":43,"Velocity":42,"Duration":748000,"SoundDuration":748000,"Delta":96660308},{"NoteNumber":52,"Velocity":43,"Duration":185873,"SoundDuration":185873,"Delta":96850688},{"NoteNumber":59,"Velocity":46,"Duration":185873,"SoundDuration":185873,"Delta":97036561},{"NoteNumber":64,"Velocity":46,"Duration":185873,"SoundDuration":185873,"Delta":97036561},{"NoteNumber":52,"Velocity":43,"Duration":185873,"SoundDuration":185873,"Delta":97222435},{"NoteNumber":60,"Velocity":45,"Duration":185873,"SoundDuration":185873,"Delta":97408308},{"NoteNumber":64,"Velocity":45,"Duration":185873,"SoundDuration":185873,"Delta":97408308},{"NoteNumber":33,"Velocity":36,"Duration":754840,"SoundDuration":754840,"Delta":97408308},{"NoteNumber":45,"Velocity":36,"Duration":754840,"SoundDuration":754840,"Delta":97408308},{"NoteNumber":52,"Velocity":41,"Duration":185873,"SoundDuration":185873,"Delta":97594182},{"NoteNumber":60,"Velocity":44,"Duration":191546,"SoundDuration":191546,"Delta":97780055},{"NoteNumber":64,"Velocity":44,"Duration":191546,"SoundDuration":191546,"Delta":97780055},{"NoteNumber":52,"Velocity":41,"Duration":191546,"SoundDuration":191546,"Delta":97971602},{"NoteNumber":62,"Velocity":41,"Duration":203970,"SoundDuration":203970,"Delta":98163148},{"NoteNumber":64,"Velocity":41,"Duration":203970,"SoundDuration":203970,"Delta":98163148},{"NoteNumber":47,"Velocity":32,"Duration":844241,"SoundDuration":844241,"Delta":98163148},{"NoteNumber":35,"Velocity":32,"Duration":844241,"SoundDuration":844241,"Delta":98163148},{"NoteNumber":52,"Velocity":39,"Duration":203970,"SoundDuration":203970,"Delta":98367119},{"NoteNumber":64,"Velocity":40,"Duration":218149,"SoundDuration":218149,"Delta":98571090},{"NoteNumber":62,"Velocity":40,"Duration":218149,"SoundDuration":218149,"Delta":98571090},{"NoteNumber":52,"Velocity":38,"Duration":218150,"SoundDuration":218150,"Delta":98789240},{"NoteNumber":64,"Velocity":39,"Duration":243506,"SoundDuration":243506,"Delta":99007390},{"NoteNumber":36,"Velocity":29,"Duration":1051680,"SoundDuration":1051680,"Delta":99007390},{"NoteNumber":48,"Velocity":29,"Duration":1051680,"SoundDuration":1051680,"Delta":99007390},{"NoteNumber":52,"Velocity":34,"Duration":243506,"SoundDuration":243506,"Delta":99250896},{"NoteNumber":64,"Velocity":36,"Duration":308008,"SoundDuration":308008,"Delta":99494403},{"NoteNumber":52,"Velocity":32,"Duration":256659,"SoundDuration":256659,"Delta":99802411},{"NoteNumber":38,"Velocity":29,"Duration":153648,"SoundDuration":153648,"Delta":99956415},{"NoteNumber":45,"Velocity":33,"Duration":102320,"SoundDuration":102320,"Delta":100007743},{"NoteNumber":69,"Velocity":44,"Duration":50992,"SoundDuration":50992,"Delta":100059070},{"NoteNumber":54,"Velocity":37,"Duration":50992,"SoundDuration":50992,"Delta":100059070},{"NoteNumber":60,"Velocity":37,"Duration":50992,"SoundDuration":50992,"Delta":100065869},{"NoteNumber":64,"Velocity":37,"Duration":50992,"SoundDuration":50992,"Delta":100065869},{"NoteNumber":71,"Velocity":42,"Duration":49387,"SoundDuration":49387,"Delta":100263041},{"NoteNumber":72,"Velocity":44,"Duration":48474,"SoundDuration":48474,"Delta":100460592},{"NoteNumber":74,"Velocity":43,"Duration":52705,"SoundDuration":52705,"Delta":100654490},{"NoteNumber":71,"Velocity":44,"Duration":169975,"SoundDuration":169975,"Delta":100865313},{"NoteNumber":71,"Velocity":39,"Duration":99403,"SoundDuration":99403,"Delta":101069283},{"NoteNumber":72,"Velocity":39,"Duration":99403,"SoundDuration":99403,"Delta":101168687},{"NoteNumber":71,"Velocity":44,"Duration":192702,"SoundDuration":192702,"Delta":101268091},{"NoteNumber":69,"Velocity":44,"Duration":159190,"SoundDuration":159190,"Delta":101460794},{"NoteNumber":38,"Velocity":27,"Duration":308802,"SoundDuration":308802,"Delta":101566921},{"NoteNumber":45,"Velocity":32,"Duration":255738,"SoundDuration":255738,"Delta":101619984},{"NoteNumber":60,"Velocity":34,"Duration":152006,"SoundDuration":152006,"Delta":101673048},{"NoteNumber":64,"Velocity":34,"Duration":152006,"SoundDuration":152006,"Delta":101673048},{"NoteNumber":71,"Velocity":48,"Duration":76003,"SoundDuration":76003,"Delta":101673048},{"NoteNumber":54,"Velocity":35,"Duration":202675,"SoundDuration":202675,"Delta":101673048},{"NoteNumber":72,"Velocity":43,"Duration":161359,"SoundDuration":161359,"Delta":102078398},{"NoteNumber":38,"Velocity":37,"Duration":159240,"SoundDuration":159240,"Delta":102401118},{"NoteNumber":45,"Velocity":37,"Duration":105453,"SoundDuration":105453,"Delta":102454904},{"NoteNumber":71,"Velocity":45,"Duration":206668,"SoundDuration":206668,"Delta":102508691},{"NoteNumber":64,"Velocity":37,"Duration":408037,"SoundDuration":408037,"Delta":102508691},{"NoteNumber":60,"Velocity":37,"Duration":408037,"SoundDuration":408037,"Delta":102508691},{"NoteNumber":54,"Velocity":37,"Duration":51667,"SoundDuration":51667,"Delta":102508691},{"NoteNumber":72,"Velocity":43,"Duration":201369,"SoundDuration":201369,"Delta":102715359},{"NoteNumber":74,"Velocity":45,"Duration":98775,"SoundDuration":98775,"Delta":102916729},{"NoteNumber":76,"Velocity":43,"Duration":98775,"SoundDuration":98775,"Delta":103114279},{"NoteNumber":78,"Velocity":45,"Duration":98775,"SoundDuration":98775,"Delta":103311830},{"NoteNumber":69,"Velocity":39,"Duration":49387,"SoundDuration":49387,"Delta":103311830},{"NoteNumber":78,"Velocity":43,"Duration":63848,"SoundDuration":63848,"Delta":103509380},{"NoteNumber":79,"Velocity":41,"Duration":63848,"SoundDuration":63848,"Delta":103573229},{"NoteNumber":78,"Velocity":41,"Duration":63848,"SoundDuration":63848,"Delta":103637078},{"NoteNumber":76,"Velocity":45,"Duration":200079,"SoundDuration":200079,"Delta":103700927},{"NoteNumber":74,"Velocity":43,"Duration":209409,"SoundDuration":209409,"Delta":103901007},{"NoteNumber":72,"Velocity":45,"Duration":216637,"SoundDuration":216637,"Delta":104110416},{"NoteNumber":62,"Velocity":39,"Duration":54159,"SoundDuration":54159,"Delta":104110416},{"NoteNumber":74,"Velocity":41,"Duration":226005,"SoundDuration":226005,"Delta":104327054},{"NoteNumber":76,"Velocity":41,"Duration":452011,"SoundDuration":452011,"Delta":104553060},{"NoteNumber":74,"Velocity":37,"Duration":2428242,"SoundDuration":2428242,"Delta":105005071},{"NoteNumber":81,"Velocity":44,"Duration":50992,"SoundDuration":50992,"Delta":105005071},{"NoteNumber":60,"Velocity":33,"Duration":4029967,"SoundDuration":4029967,"Delta":105005071},{"NoteNumber":62,"Velocity":33,"Duration":4029967,"SoundDuration":4029967,"Delta":105005071},{"NoteNumber":65,"Velocity":37,"Duration":2428242,"SoundDuration":2428242,"Delta":105005071},{"NoteNumber":83,"Velocity":42,"Duration":48175,"SoundDuration":48175,"Delta":105209042},{"NoteNumber":84,"Velocity":44,"Duration":47021,"SoundDuration":47021,"Delta":105401745},{"NoteNumber":86,"Velocity":43,"Duration":52705,"SoundDuration":52705,"Delta":105589833},{"NoteNumber":83,"Velocity":44,"Duration":169975,"SoundDuration":169975,"Delta":105800655},{"NoteNumber":83,"Velocity":39,"Duration":96351,"SoundDuration":96351,"Delta":106004626},{"NoteNumber":84,"Velocity":39,"Duration":96351,"SoundDuration":96351,"Delta":106100977},{"NoteNumber":83,"Velocity":44,"Duration":188087,"SoundDuration":188087,"Delta":106197329},{"NoteNumber":81,"Velocity":44,"Duration":159190,"SoundDuration":159190,"Delta":106385416},{"NoteNumber":83,"Velocity":48,"Duration":76003,"SoundDuration":76003,"Delta":106597671},{"NoteNumber":84,"Velocity":43,"Duration":161359,"SoundDuration":161359,"Delta":107003021},{"NoteNumber":74,"Velocity":37,"Duration":2496380,"SoundDuration":2496380,"Delta":107433314},{"NoteNumber":83,"Velocity":45,"Duration":206668,"SoundDuration":206668,"Delta":107433314},{"NoteNumber":66,"Velocity":37,"Duration":803138,"SoundDuration":803138,"Delta":107433314},{"NoteNumber":84,"Velocity":43,"Duration":201369,"SoundDuration":201369,"Delta":107639982},{"NoteNumber":86,"Velocity":45,"Duration":98775,"SoundDuration":98775,"Delta":107841351},{"NoteNumber":88,"Velocity":43,"Duration":98775,"SoundDuration":98775,"Delta":108038902},{"NoteNumber":90,"Velocity":45,"Duration":98775,"SoundDuration":98775,"Delta":108236452},{"NoteNumber":69,"Velocity":37,"Duration":798586,"SoundDuration":798586,"Delta":108236452},{"NoteNumber":90,"Velocity":43,"Duration":63848,"SoundDuration":63848,"Delta":108434003},{"NoteNumber":91,"Velocity":41,"Duration":63848,"SoundDuration":63848,"Delta":108497852},{"NoteNumber":90,"Velocity":41,"Duration":63848,"SoundDuration":63848,"Delta":108561701},{"NoteNumber":88,"Velocity":45,"Duration":200079,"SoundDuration":200079,"Delta":108625549},{"NoteNumber":86,"Velocity":43,"Duration":209409,"SoundDuration":209409,"Delta":108825629},{"NoteNumber":84,"Velocity":45,"Duration":216637,"SoundDuration":216637,"Delta":109035039},{"NoteNumber":50,"Velocity":37,"Duration":216637,"SoundDuration":216637,"Delta":109035039},{"NoteNumber":86,"Velocity":41,"Duration":226005,"SoundDuration":226005,"Delta":109251677},{"NoteNumber":88,"Velocity":41,"Duration":654686,"SoundDuration":654686,"Delta":109477682},{"NoteNumber":55,"Velocity":31,"Duration":512013,"SoundDuration":512013,"Delta":109816691},{"NoteNumber":62,"Velocity":35,"Duration":406427,"SoundDuration":406427,"Delta":109873193},{"NoteNumber":74,"Velocity":30,"Duration":791680,"SoundDuration":791680,"Delta":109929694},{"NoteNumber":79,"Velocity":30,"Duration":791680,"SoundDuration":791680,"Delta":109929694},{"NoteNumber":83,"Velocity":30,"Duration":497177,"SoundDuration":497177,"Delta":109929694},{"NoteNumber":71,"Velocity":37,"Duration":399010,"SoundDuration":399010,"Delta":109929694},{"NoteNumber":86,"Velocity":42,"Duration":98167,"SoundDuration":98167,"Delta":110132369},{"NoteNumber":83,"Velocity":41,"Duration":392669,"SoundDuration":392669,"Delta":110328704},{"NoteNumber":81,"Velocity":41,"Duration":98167,"SoundDuration":98167,"Delta":110525039},{"NoteNumber":83,"Velocity":44,"Duration":100684,"SoundDuration":100684,"Delta":110721374},{"NoteNumber":79,"Velocity":41,"Duration":96949,"SoundDuration":96949,"Delta":110922743},{"NoteNumber":76,"Velocity":41,"Duration":96949,"SoundDuration":96949,"Delta":111116642},{"NoteNumber":74,"Velocity":41,"Duration":102655,"SoundDuration":102655,"Delta":111310541},{"NoteNumber":72,"Velocity":46,"Duration":416088,"SoundDuration":416088,"Delta":111515852},{"NoteNumber":67,"Velocity":31,"Duration":861655,"SoundDuration":861655,"Delta":111515852},{"NoteNumber":76,"Velocity":31,"Duration":1064330,"SoundDuration":1064330,"Delta":111515852},{"NoteNumber":48,"Velocity":32,"Duration":861655,"SoundDuration":861655,"Delta":111515852},{"NoteNumber":64,"Velocity":32,"Duration":861655,"SoundDuration":861655,"Delta":111515852},{"NoteNumber":55,"Velocity":32,"Duration":861655,"SoundDuration":861655,"Delta":111515852},{"NoteNumber":69,"Velocity":38,"Duration":445566,"SoundDuration":445566,"Delta":111931941},{"NoteNumber":43,"Velocity":37,"Duration":510401,"SoundDuration":510401,"Delta":112266116},{"NoteNumber":50,"Velocity":37,"Duration":454706,"SoundDuration":454706,"Delta":112321811},{"NoteNumber":71,"Velocity":30,"Duration":497177,"SoundDuration":497177,"Delta":112377507},{"NoteNumber":67,"Velocity":30,"Duration":791680,"SoundDuration":791680,"Delta":112377507},{"NoteNumber":62,"Velocity":30,"Duration":791680,"SoundDuration":791680,"Delta":112377507},{"NoteNumber":59,"Velocity":37,"Duration":399010,"SoundDuration":399010,"Delta":112377507},{"NoteNumber":74,"Velocity":42,"Duration":98167,"SoundDuration":98167,"Delta":112580182},{"NoteNumber":71,"Velocity":41,"Duration":392669,"SoundDuration":392669,"Delta":112776517},{"NoteNumber":69,"Velocity":41,"Duration":98167,"SoundDuration":98167,"Delta":112972852},{"NoteNumber":71,"Velocity":44,"Duration":100684,"SoundDuration":100684,"Delta":113169187},{"NoteNumber":67,"Velocity":41,"Duration":96949,"SoundDuration":96949,"Delta":113370557},{"NoteNumber":64,"Velocity":41,"Duration":96949,"SoundDuration":96949,"Delta":113564455},{"NoteNumber":62,"Velocity":41,"Duration":103334,"SoundDuration":103334,"Delta":113758354},{"NoteNumber":64,"Velocity":30,"Duration":1116711,"SoundDuration":1116711,"Delta":113965023},{"NoteNumber":60,"Velocity":44,"Duration":436300,"SoundDuration":436300,"Delta":113965023},{"NoteNumber":45,"Velocity":32,"Duration":436300,"SoundDuration":436300,"Delta":113965023},{"NoteNumber":48,"Velocity":32,"Duration":2512333,"SoundDuration":2512333,"Delta":113965023},{"NoteNumber":57,"Velocity":38,"Duration":472366,"SoundDuration":472366,"Delta":114401323},{"NoteNumber":42,"Velocity":32,"Duration":472366,"SoundDuration":472366,"Delta":114401323},{"NoteNumber":55,"Velocity":35,"Duration":2409673,"SoundDuration":2409673,"Delta":114873689},{"NoteNumber":40,"Velocity":32,"Duration":2409673,"SoundDuration":2409673,"Delta":114873689},{"NoteNumber":66,"Velocity":40,"Duration":203970,"SoundDuration":203970,"Delta":115081734},{"NoteNumber":67,"Velocity":40,"Duration":95773,"SoundDuration":95773,"Delta":115285704},{"NoteNumber":69,"Velocity":40,"Duration":101985,"SoundDuration":101985,"Delta":115477251},{"NoteNumber":64,"Velocity":43,"Duration":167807,"SoundDuration":167807,"Delta":115681222},{"NoteNumber":64,"Velocity":39,"Duration":99403,"SoundDuration":99403,"Delta":115882591},{"NoteNumber":66,"Velocity":39,"Duration":98787,"SoundDuration":98787,"Delta":115981995},{"NoteNumber":64,"Velocity":43,"Duration":193898,"SoundDuration":193898,"Delta":116080782},{"NoteNumber":62,"Velocity":39,"Duration":152006,"SoundDuration":152006,"Delta":116274681},{"NoteNumber":64,"Velocity":44,"Duration":129167,"SoundDuration":129167,"Delta":116477356},{"NoteNumber":47,"Velocity":32,"Duration":806006,"SoundDuration":806006,"Delta":116477356},{"NoteNumber":67,"Velocity":44,"Duration":122709,"SoundDuration":122709,"Delta":116890693},{"NoteNumber":71,"Velocity":44,"Duration":125855,"SoundDuration":125855,"Delta":117283363},{"NoteNumber":62,"Velocity":44,"Duration":125855,"SoundDuration":125855,"Delta":117283363},{"NoteNumber":67,"Velocity":44,"Duration":125855,"SoundDuration":125855,"Delta":117283363},{"NoteNumber":33,"Velocity":39,"Duration":402738,"SoundDuration":402738,"Delta":117283363},{"NoteNumber":45,"Velocity":39,"Duration":402738,"SoundDuration":402738,"Delta":117283363},{"NoteNumber":60,"Velocity":41,"Duration":125855,"SoundDuration":125855,"Delta":117686101},{"NoteNumber":64,"Velocity":41,"Duration":125855,"SoundDuration":125855,"Delta":117686101},{"NoteNumber":69,"Velocity":41,"Duration":125855,"SoundDuration":125855,"Delta":117686101},{"NoteNumber":57,"Velocity":44,"Duration":125855,"SoundDuration":125855,"Delta":118088840},{"NoteNumber":52,"Velocity":41,"Duration":125855,"SoundDuration":125855,"Delta":118491578},{"NoteNumber":45,"Velocity":51,"Duration":151026,"SoundDuration":151026,"Delta":118894317},{"NoteNumber":43,"Velocity":50,"Duration":151026,"SoundDuration":151026,"Delta":119297055},{"NoteNumber":69,"Velocity":77,"Duration":778788,"SoundDuration":778788,"Delta":119699794},{"NoteNumber":81,"Velocity":77,"Duration":196941,"SoundDuration":196941,"Delta":119699794},{"NoteNumber":29,"Velocity":77,"Duration":2353666,"SoundDuration":2353666,"Delta":119699794},{"NoteNumber":41,"Velocity":77,"Duration":2353666,"SoundDuration":2353666,"Delta":119699794},{"NoteNumber":79,"Velocity":70,"Duration":96974,"SoundDuration":96974,"Delta":119896736},{"NoteNumber":77,"Velocity":70,"Duration":96974,"SoundDuration":96974,"Delta":119993710},{"NoteNumber":76,"Velocity":70,"Duration":96974,"SoundDuration":96974,"Delta":120090685},{"NoteNumber":74,"Velocity":70,"Duration":96974,"SoundDuration":96974,"Delta":120187659},{"NoteNumber":72,"Velocity":70,"Duration":96974,"SoundDuration":96974,"Delta":120284633},{"NoteNumber":71,"Velocity":70,"Duration":96974,"SoundDuration":96974,"Delta":120381608},{"NoteNumber":69,"Velocity":77,"Duration":999391,"SoundDuration":999391,"Delta":120478582},{"NoteNumber":67,"Velocity":69,"Duration":96974,"SoundDuration":96974,"Delta":120676133},{"NoteNumber":65,"Velocity":69,"Duration":96974,"SoundDuration":96974,"Delta":120773107},{"NoteNumber":64,"Velocity":69,"Duration":96974,"SoundDuration":96974,"Delta":120870081},{"NoteNumber":62,"Velocity":69,"Duration":96974,"SoundDuration":96974,"Delta":120967056},{"NoteNumber":60,"Velocity":69,"Duration":96974,"SoundDuration":96974,"Delta":121064030},{"NoteNumber":59,"Velocity":69,"Duration":96974,"SoundDuration":96974,"Delta":121161004},{"NoteNumber":57,"Velocity":77,"Duration":397780,"SoundDuration":397780,"Delta":121257979},{"NoteNumber":72,"Velocity":65,"Duration":161623,"SoundDuration":161623,"Delta":121461811},{"NoteNumber":71,"Velocity":68,"Duration":218826,"SoundDuration":218826,"Delta":121655760},{"NoteNumber":55,"Velocity":68,"Duration":397700,"SoundDuration":397700,"Delta":121655760},{"NoteNumber":74,"Velocity":65,"Duration":162612,"SoundDuration":162612,"Delta":121858325},{"NoteNumber":65,"Velocity":58,"Duration":1593020,"SoundDuration":1593020,"Delta":122053460},{"NoteNumber":72,"Velocity":68,"Duration":217549,"SoundDuration":217549,"Delta":122053460},{"NoteNumber":57,"Velocity":71,"Duration":396422,"SoundDuration":396422,"Delta":122053460},{"NoteNumber":76,"Velocity":65,"Duration":162612,"SoundDuration":162612,"Delta":122254748},{"NoteNumber":74,"Velocity":67,"Duration":217549,"SoundDuration":217549,"Delta":122449883},{"NoteNumber":59,"Velocity":66,"Duration":396422,"SoundDuration":396422,"Delta":122449883},{"NoteNumber":77,"Velocity":68,"Duration":162612,"SoundDuration":162612,"Delta":122651171},{"NoteNumber":76,"Velocity":71,"Duration":220397,"SoundDuration":220397,"Delta":122846306},{"NoteNumber":60,"Velocity":63,"Duration":402612,"SoundDuration":402612,"Delta":122846306},{"NoteNumber":72,"Velocity":61,"Duration":215345,"SoundDuration":215345,"Delta":123050138},{"NoteNumber":71,"Velocity":59,"Duration":215345,"SoundDuration":215345,"Delta":123248919},{"NoteNumber":62,"Velocity":62,"Duration":397561,"SoundDuration":397561,"Delta":123248919},{"NoteNumber":67,"Velocity":55,"Duration":198780,"SoundDuration":198780,"Delta":123447700},{"NoteNumber":65,"Velocity":55,"Duration":429614,"SoundDuration":429614,"Delta":123646480},{"NoteNumber":62,"Velocity":55,"Duration":429614,"SoundDuration":429614,"Delta":123646480},{"NoteNumber":59,"Velocity":55,"Duration":429614,"SoundDuration":429614,"Delta":123646480},{"NoteNumber":64,"Velocity":55,"Duration":378460,"SoundDuration":378460,"Delta":124076095},{"NoteNumber":67,"Velocity":55,"Duration":378460,"SoundDuration":378460,"Delta":124076095},{"NoteNumber":57,"Velocity":53,"Duration":216262,"SoundDuration":216262,"Delta":124076095},{"NoteNumber":55,"Velocity":50,"Duration":216262,"SoundDuration":216262,"Delta":124292358},{"NoteNumber":69,"Velocity":77,"Duration":778788,"SoundDuration":778788,"Delta":124508621},{"NoteNumber":81,"Velocity":77,"Duration":196941,"SoundDuration":196941,"Delta":124508621},{"NoteNumber":29,"Velocity":77,"Duration":2347481,"SoundDuration":2347481,"Delta":124508621},{"NoteNumber":41,"Velocity":77,"Duration":2347481,"SoundDuration":2347481,"Delta":124508621},{"NoteNumber":79,"Velocity":70,"Duration":96974,"SoundDuration":96974,"Delta":124705563},{"NoteNumber":77,"Velocity":70,"Duration":96974,"SoundDuration":96974,"Delta":124802538},{"NoteNumber":76,"Velocity":70,"Duration":96974,"SoundDuration":96974,"Delta":124899512},{"NoteNumber":74,"Velocity":70,"Duration":96974,"SoundDuration":96974,"Delta":124996486},{"NoteNumber":72,"Velocity":70,"Duration":96974,"SoundDuration":96974,"Delta":125093461},{"NoteNumber":71,"Velocity":70,"Duration":96974,"SoundDuration":96974,"Delta":125190435},{"NoteNumber":69,"Velocity":77,"Duration":996928,"SoundDuration":996928,"Delta":125287409},{"NoteNumber":67,"Velocity":69,"Duration":96974,"SoundDuration":96974,"Delta":125484960},{"NoteNumber":65,"Velocity":69,"Duration":96974,"SoundDuration":96974,"Delta":125581934},{"NoteNumber":64,"Velocity":69,"Duration":96974,"SoundDuration":96974,"Delta":125678909},{"NoteNumber":62,"Velocity":69,"Duration":96974,"SoundDuration":96974,"Delta":125775883},{"NoteNumber":60,"Velocity":69,"Duration":96974,"SoundDuration":96974,"Delta":125872857},{"NoteNumber":59,"Velocity":69,"Duration":96974,"SoundDuration":96974,"Delta":125969832},{"NoteNumber":57,"Velocity":77,"Duration":395318,"SoundDuration":395318,"Delta":126066806},{"NoteNumber":72,"Velocity":65,"Duration":161623,"SoundDuration":161623,"Delta":126268175},{"NoteNumber":71,"Velocity":68,"Duration":216238,"SoundDuration":216238,"Delta":126462124},{"NoteNumber":55,"Velocity":68,"Duration":393978,"SoundDuration":393978,"Delta":126462124},{"NoteNumber":74,"Velocity":65,"Duration":161582,"SoundDuration":161582,"Delta":126662204},{"NoteNumber":65,"Velocity":58,"Duration":1593020,"SoundDuration":1593020,"Delta":126856103},{"NoteNumber":72,"Velocity":68,"Duration":217549,"SoundDuration":217549,"Delta":126856103},{"NoteNumber":57,"Velocity":71,"Duration":396422,"SoundDuration":396422,"Delta":126856103},{"NoteNumber":76,"Velocity":65,"Duration":162612,"SoundDuration":162612,"Delta":127057391},{"NoteNumber":74,"Velocity":67,"Duration":217549,"SoundDuration":217549,"Delta":127252526},{"NoteNumber":59,"Velocity":66,"Duration":396422,"SoundDuration":396422,"Delta":127252526},{"NoteNumber":77,"Velocity":68,"Duration":162612,"SoundDuration":162612,"Delta":127453814},{"NoteNumber":76,"Velocity":71,"Duration":220397,"SoundDuration":220397,"Delta":127648949},{"NoteNumber":60,"Velocity":63,"Duration":402612,"SoundDuration":402612,"Delta":127648949},{"NoteNumber":72,"Velocity":59,"Duration":215345,"SoundDuration":215345,"Delta":127852781},{"NoteNumber":71,"Velocity":59,"Duration":215345,"SoundDuration":215345,"Delta":128051562},{"NoteNumber":62,"Velocity":62,"Duration":397561,"SoundDuration":397561,"Delta":128051562},{"NoteNumber":67,"Velocity":57,"Duration":198780,"SoundDuration":198780,"Delta":128250342},{"NoteNumber":65,"Velocity":55,"Duration":429615,"SoundDuration":429615,"Delta":128449123},{"NoteNumber":62,"Velocity":55,"Duration":429615,"SoundDuration":429615,"Delta":128449123},{"NoteNumber":57,"Velocity":55,"Duration":429615,"SoundDuration":429615,"Delta":128449123},{"NoteNumber":69,"Velocity":55,"Duration":387110,"SoundDuration":387110,"Delta":128878738},{"NoteNumber":65,"Velocity":55,"Duration":387110,"SoundDuration":387110,"Delta":128878738},{"NoteNumber":55,"Velocity":53,"Duration":221206,"SoundDuration":221206,"Delta":128878738},{"NoteNumber":53,"Velocity":50,"Duration":221206,"SoundDuration":221206,"Delta":129099944},{"NoteNumber":67,"Velocity":77,"Duration":778788,"SoundDuration":778788,"Delta":129321151},{"NoteNumber":79,"Velocity":79,"Duration":196941,"SoundDuration":196941,"Delta":129321151},{"NoteNumber":27,"Velocity":81,"Duration":2353666,"SoundDuration":2353666,"Delta":129321151},{"NoteNumber":39,"Velocity":81,"Duration":2353666,"SoundDuration":2353666,"Delta":129321151},{"NoteNumber":77,"Velocity":70,"Duration":96974,"SoundDuration":96974,"Delta":129518093},{"NoteNumber":75,"Velocity":70,"Duration":96974,"SoundDuration":96974,"Delta":129615067},{"NoteNumber":74,"Velocity":70,"Duration":96974,"SoundDuration":96974,"Delta":129712041},{"NoteNumber":72,"Velocity":70,"Duration":96974,"SoundDuration":96974,"Delta":129809016},{"NoteNumber":70,"Velocity":70,"Duration":96974,"SoundDuration":96974,"Delta":129905990},{"NoteNumber":69,"Velocity":70,"Duration":96974,"SoundDuration":96974,"Delta":130002964},{"NoteNumber":67,"Velocity":77,"Duration":999391,"SoundDuration":999391,"Delta":130099939},{"NoteNumber":65,"Velocity":69,"Duration":96974,"SoundDuration":96974,"Delta":130297489},{"NoteNumber":63,"Velocity":69,"Duration":96974,"SoundDuration":96974,"Delta":130394464},{"NoteNumber":62,"Velocity":69,"Duration":96974,"SoundDuration":96974,"Delta":130491438},{"NoteNumber":60,"Velocity":69,"Duration":96974,"SoundDuration":96974,"Delta":130588412},{"NoteNumber":58,"Velocity":69,"Duration":96974,"SoundDuration":96974,"Delta":130685387},{"NoteNumber":57,"Velocity":69,"Duration":96974,"SoundDuration":96974,"Delta":130782361},{"NoteNumber":55,"Velocity":77,"Duration":397780,"SoundDuration":397780,"Delta":130879336},{"NoteNumber":70,"Velocity":65,"Duration":161623,"SoundDuration":161623,"Delta":131083168},{"NoteNumber":69,"Velocity":68,"Duration":218826,"SoundDuration":218826,"Delta":131277116},{"NoteNumber":53,"Velocity":68,"Duration":397700,"SoundDuration":397700,"Delta":131277116},{"NoteNumber":72,"Velocity":65,"Duration":162612,"SoundDuration":162612,"Delta":131479682},{"NoteNumber":63,"Velocity":58,"Duration":1593020,"SoundDuration":1593020,"Delta":131674817},{"NoteNumber":70,"Velocity":68,"Duration":217549,"SoundDuration":217549,"Delta":131674817},{"NoteNumber":55,"Velocity":71,"Duration":396422,"SoundDuration":396422,"Delta":131674817},{"NoteNumber":74,"Velocity":65,"Duration":162612,"SoundDuration":162612,"Delta":131876105},{"NoteNumber":72,"Velocity":67,"Duration":217549,"SoundDuration":217549,"Delta":132071240},{"NoteNumber":57,"Velocity":66,"Duration":396422,"SoundDuration":396422,"Delta":132071240},{"NoteNumber":75,"Velocity":68,"Duration":162612,"SoundDuration":162612,"Delta":132272528},{"NoteNumber":74,"Velocity":71,"Duration":220397,"SoundDuration":220397,"Delta":132467663},{"NoteNumber":58,"Velocity":63,"Duration":402612,"SoundDuration":402612,"Delta":132467663},{"NoteNumber":70,"Velocity":58,"Duration":215345,"SoundDuration":215345,"Delta":132671495},{"NoteNumber":69,"Velocity":59,"Duration":215345,"SoundDuration":215345,"Delta":132870276},{"NoteNumber":60,"Velocity":62,"Duration":397561,"SoundDuration":397561,"Delta":132870276},{"NoteNumber":65,"Velocity":55,"Duration":198780,"SoundDuration":198780,"Delta":133069056},{"NoteNumber":60,"Velocity":55,"Duration":429615,"SoundDuration":429615,"Delta":133267837},{"NoteNumber":63,"Velocity":55,"Duration":429615,"SoundDuration":429615,"Delta":133267837},{"NoteNumber":57,"Velocity":55,"Duration":429615,"SoundDuration":429615,"Delta":133267837},{"NoteNumber":65,"Velocity":55,"Duration":378460,"SoundDuration":378460,"Delta":133697452},{"NoteNumber":62,"Velocity":55,"Duration":378460,"SoundDuration":378460,"Delta":133697452},{"NoteNumber":55,"Velocity":53,"Duration":216262,"SoundDuration":216262,"Delta":133697452},{"NoteNumber":53,"Velocity":50,"Duration":216262,"SoundDuration":216262,"Delta":133913715},{"NoteNumber":67,"Velocity":77,"Duration":775050,"SoundDuration":775050,"Delta":134129978},{"NoteNumber":79,"Velocity":79,"Duration":196941,"SoundDuration":196941,"Delta":134129978},{"NoteNumber":27,"Velocity":81,"Duration":2346191,"SoundDuration":2346191,"Delta":134129978},{"NoteNumber":39,"Velocity":81,"Duration":2346191,"SoundDuration":2346191,"Delta":134129978},{"NoteNumber":77,"Velocity":70,"Duration":96351,"SoundDuration":96351,"Delta":134326920},{"NoteNumber":75,"Velocity":70,"Duration":96351,"SoundDuration":96351,"Delta":134423271},{"NoteNumber":74,"Velocity":70,"Duration":96351,"SoundDuration":96351,"Delta":134519623},{"NoteNumber":72,"Velocity":70,"Duration":96351,"SoundDuration":96351,"Delta":134615974},{"NoteNumber":70,"Velocity":70,"Duration":96351,"SoundDuration":96351,"Delta":134712326},{"NoteNumber":69,"Velocity":70,"Duration":96351,"SoundDuration":96351,"Delta":134808677},{"NoteNumber":67,"Velocity":77,"Duration":995653,"SoundDuration":995653,"Delta":134905029},{"NoteNumber":65,"Velocity":69,"Duration":96351,"SoundDuration":96351,"Delta":135102579},{"NoteNumber":63,"Velocity":69,"Duration":96351,"SoundDuration":96351,"Delta":135198931},{"NoteNumber":62,"Velocity":69,"Duration":96351,"SoundDuration":96351,"Delta":135295282},{"NoteNumber":60,"Velocity":69,"Duration":96351,"SoundDuration":96351,"Delta":135391634},{"NoteNumber":58,"Velocity":69,"Duration":96351,"SoundDuration":96351,"Delta":135487985},{"NoteNumber":57,"Velocity":69,"Duration":96351,"SoundDuration":96351,"Delta":135584337},{"NoteNumber":55,"Velocity":77,"Duration":397780,"SoundDuration":397780,"Delta":135680688},{"NoteNumber":70,"Velocity":65,"Duration":161623,"SoundDuration":161623,"Delta":135884520},{"NoteNumber":69,"Velocity":68,"Duration":218826,"SoundDuration":218826,"Delta":136078469},{"NoteNumber":53,"Velocity":68,"Duration":397700,"SoundDuration":397700,"Delta":136078469},{"NoteNumber":72,"Velocity":65,"Duration":162612,"SoundDuration":162612,"Delta":136281035},{"NoteNumber":63,"Velocity":58,"Duration":1593020,"SoundDuration":1593020,"Delta":136476170},{"NoteNumber":70,"Velocity":68,"Duration":217549,"SoundDuration":217549,"Delta":136476170},{"NoteNumber":55,"Velocity":71,"Duration":396422,"SoundDuration":396422,"Delta":136476170},{"NoteNumber":74,"Velocity":65,"Duration":162612,"SoundDuration":162612,"Delta":136677458},{"NoteNumber":72,"Velocity":67,"Duration":217549,"SoundDuration":217549,"Delta":136872593},{"NoteNumber":57,"Velocity":66,"Duration":396422,"SoundDuration":396422,"Delta":136872593},{"NoteNumber":75,"Velocity":68,"Duration":162612,"SoundDuration":162612,"Delta":137073881},{"NoteNumber":74,"Velocity":71,"Duration":220397,"SoundDuration":220397,"Delta":137269016},{"NoteNumber":58,"Velocity":63,"Duration":402612,"SoundDuration":402612,"Delta":137269016},{"NoteNumber":70,"Velocity":58,"Duration":215345,"SoundDuration":215345,"Delta":137472848},{"NoteNumber":69,"Velocity":63,"Duration":215345,"SoundDuration":215345,"Delta":137671628},{"NoteNumber":60,"Velocity":62,"Duration":397561,"SoundDuration":397561,"Delta":137671628},{"NoteNumber":65,"Velocity":54,"Duration":198780,"SoundDuration":198780,"Delta":137870409},{"NoteNumber":60,"Velocity":55,"Duration":429615,"SoundDuration":429615,"Delta":138069190},{"NoteNumber":63,"Velocity":55,"Duration":429615,"SoundDuration":429615,"Delta":138069190},{"NoteNumber":57,"Velocity":55,"Duration":429615,"SoundDuration":429615,"Delta":138069190},{"NoteNumber":67,"Velocity":55,"Duration":318918,"SoundDuration":318918,"Delta":138498805},{"NoteNumber":63,"Velocity":40,"Duration":318918,"SoundDuration":318918,"Delta":138498805},{"NoteNumber":58,"Velocity":53,"Duration":216262,"SoundDuration":216262,"Delta":138498805},{"NoteNumber":60,"Velocity":50,"Duration":205310,"SoundDuration":205310,"Delta":138715068},{"NoteNumber":66,"Velocity":48,"Duration":596421,"SoundDuration":596421,"Delta":138920379},{"NoteNumber":62,"Velocity":48,"Duration":596421,"SoundDuration":596421,"Delta":138920379},{"NoteNumber":50,"Velocity":46,"Duration":596421,"SoundDuration":596421,"Delta":138920379},{"NoteNumber":57,"Velocity":46,"Duration":596421,"SoundDuration":596421,"Delta":138920379},{"NoteNumber":60,"Velocity":34,"Duration":155001,"SoundDuration":155001,"Delta":139516800},{"NoteNumber":63,"Velocity":34,"Duration":155001,"SoundDuration":155001,"Delta":139516800},{"NoteNumber":67,"Velocity":42,"Duration":155001,"SoundDuration":155001,"Delta":139516800},{"NoteNumber":45,"Velocity":41,"Duration":155001,"SoundDuration":155001,"Delta":139516800},{"NoteNumber":66,"Velocity":48,"Duration":596421,"SoundDuration":596421,"Delta":139723469},{"NoteNumber":62,"Velocity":48,"Duration":596421,"SoundDuration":596421,"Delta":139723469},{"NoteNumber":50,"Velocity":46,"Duration":596421,"SoundDuration":596421,"Delta":139723469},{"NoteNumber":57,"Velocity":46,"Duration":596421,"SoundDuration":596421,"Delta":139723469},{"NoteNumber":60,"Velocity":34,"Duration":144527,"SoundDuration":144527,"Delta":140319891},{"NoteNumber":63,"Velocity":34,"Duration":144527,"SoundDuration":144527,"Delta":140319891},{"NoteNumber":67,"Velocity":42,"Duration":144527,"SoundDuration":144527,"Delta":140319891},{"NoteNumber":45,"Velocity":42,"Duration":192702,"SoundDuration":192702,"Delta":140319891},{"NoteNumber":62,"Velocity":47,"Duration":397614,"SoundDuration":397614,"Delta":140512594},{"NoteNumber":66,"Velocity":47,"Duration":397614,"SoundDuration":397614,"Delta":140512594},{"NoteNumber":50,"Velocity":45,"Duration":397614,"SoundDuration":397614,"Delta":140512594},{"NoteNumber":57,"Velocity":45,"Duration":397614,"SoundDuration":397614,"Delta":140512594},{"NoteNumber":60,"Velocity":38,"Duration":413337,"SoundDuration":413337,"Delta":140910208},{"NoteNumber":63,"Velocity":38,"Duration":413337,"SoundDuration":413337,"Delta":140910208},{"NoteNumber":69,"Velocity":50,"Duration":413337,"SoundDuration":413337,"Delta":140910208},{"NoteNumber":42,"Velocity":49,"Duration":413337,"SoundDuration":413337,"Delta":140910208},{"NoteNumber":58,"Velocity":45,"Duration":413336,"SoundDuration":413336,"Delta":141323545},{"NoteNumber":62,"Velocity":45,"Duration":413336,"SoundDuration":413336,"Delta":141323545},{"NoteNumber":67,"Velocity":55,"Duration":413336,"SoundDuration":413336,"Delta":141323545},{"NoteNumber":43,"Velocity":52,"Duration":413336,"SoundDuration":413336,"Delta":141323545},{"NoteNumber":57,"Velocity":43,"Duration":200080,"SoundDuration":200080,"Delta":141736882},{"NoteNumber":62,"Velocity":43,"Duration":200080,"SoundDuration":200080,"Delta":141736882},{"NoteNumber":66,"Velocity":43,"Duration":200080,"SoundDuration":200080,"Delta":141736882},{"NoteNumber":45,"Velocity":45,"Duration":400159,"SoundDuration":400159,"Delta":141736882},{"NoteNumber":67,"Velocity":46,"Duration":200079,"SoundDuration":200079,"Delta":141936962},{"NoteNumber":64,"Velocity":45,"Duration":800319,"SoundDuration":800319,"Delta":142137042},{"NoteNumber":55,"Velocity":45,"Duration":1621799,"SoundDuration":1621799,"Delta":142137042},{"NoteNumber":62,"Velocity":45,"Duration":1005630,"SoundDuration":1005630,"Delta":142137042},{"NoteNumber":46,"Velocity":42,"Duration":800319,"SoundDuration":800319,"Delta":142137042},{"NoteNumber":45,"Velocity":43,"Duration":821479,"SoundDuration":821479,"Delta":142937362},{"NoteNumber":61,"Velocity":44,"Duration":200080,"SoundDuration":200080,"Delta":143142673},{"NoteNumber":59,"Velocity":44,"Duration":208044,"SoundDuration":208044,"Delta":143342753},{"NoteNumber":61,"Velocity":44,"Duration":208044,"SoundDuration":208044,"Delta":143550797},{"NoteNumber":66,"Velocity":44,"Duration":402738,"SoundDuration":402738,"Delta":143758842},{"NoteNumber":57,"Velocity":44,"Duration":402738,"SoundDuration":402738,"Delta":143758842},{"NoteNumber":62,"Velocity":44,"Duration":402738,"SoundDuration":402738,"Delta":143758842},{"NoteNumber":50,"Velocity":45,"Duration":1497749,"SoundDuration":1497749,"Delta":143758842},{"NoteNumber":60,"Velocity":51,"Duration":390218,"SoundDuration":390218,"Delta":144161580},{"NoteNumber":69,"Velocity":51,"Duration":390218,"SoundDuration":390218,"Delta":144161580},{"NoteNumber":64,"Velocity":48,"Duration":810919,"SoundDuration":810919,"Delta":144551799},{"NoteNumber":66,"Velocity":48,"Duration":810919,"SoundDuration":810919,"Delta":144551799},{"NoteNumber":72,"Velocity":48,"Duration":810919,"SoundDuration":810919,"Delta":144551799},{"NoteNumber":43,"Velocity":36,"Duration":828172,"SoundDuration":828172,"Delta":145256591},{"NoteNumber":50,"Velocity":39,"Duration":775108,"SoundDuration":775108,"Delta":145309655},{"NoteNumber":62,"Velocity":46,"Duration":416088,"SoundDuration":416088,"Delta":145362718},{"NoteNumber":67,"Velocity":46,"Duration":416088,"SoundDuration":416088,"Delta":145362718},{"NoteNumber":71,"Velocity":46,"Duration":416088,"SoundDuration":416088,"Delta":145362718},{"NoteNumber":59,"Velocity":44,"Duration":722045,"SoundDuration":722045,"Delta":145362718},{"NoteNumber":66,"Velocity":49,"Duration":418147,"SoundDuration":418147,"Delta":145778807},{"NoteNumber":71,"Velocity":49,"Duration":418147,"SoundDuration":418147,"Delta":145778807},{"NoteNumber":74,"Velocity":49,"Duration":418147,"SoundDuration":418147,"Delta":145778807},{"NoteNumber":40,"Velocity":40,"Duration":1731455,"SoundDuration":1731455,"Delta":146084764},{"NoteNumber":55,"Velocity":44,"Duration":1675359,"SoundDuration":1675359,"Delta":146140859},{"NoteNumber":71,"Velocity":52,"Duration":821243,"SoundDuration":821243,"Delta":146196955},{"NoteNumber":69,"Velocity":52,"Duration":821243,"SoundDuration":821243,"Delta":146196955},{"NoteNumber":78,"Velocity":52,"Duration":821243,"SoundDuration":821243,"Delta":146196955},{"NoteNumber":47,"Velocity":48,"Duration":1619263,"SoundDuration":1619263,"Delta":146196955},{"NoteNumber":67,"Velocity":49,"Duration":405350,"SoundDuration":405350,"Delta":147018198},{"NoteNumber":76,"Velocity":49,"Duration":405350,"SoundDuration":405350,"Delta":147018198},{"NoteNumber":71,"Velocity":42,"Duration":798020,"SoundDuration":798020,"Delta":147018198},{"NoteNumber":74,"Velocity":49,"Duration":392670,"SoundDuration":392670,"Delta":147423549},{"NoteNumber":66,"Velocity":49,"Duration":392670,"SoundDuration":392670,"Delta":147423549},{"NoteNumber":64,"Velocity":46,"Duration":210822,"SoundDuration":210822,"Delta":147816219},{"NoteNumber":67,"Velocity":46,"Duration":414793,"SoundDuration":414793,"Delta":147816219},{"NoteNumber":71,"Velocity":46,"Duration":414793,"SoundDuration":414793,"Delta":147816219},{"NoteNumber":45,"Velocity":40,"Duration":828444,"SoundDuration":828444,"Delta":147816219},{"NoteNumber":62,"Velocity":45,"Duration":203970,"SoundDuration":203970,"Delta":148027041},{"NoteNumber":61,"Velocity":43,"Duration":209680,"SoundDuration":209680,"Delta":148231012},{"NoteNumber":64,"Velocity":43,"Duration":413651,"SoundDuration":413651,"Delta":148231012},{"NoteNumber":67,"Velocity":43,"Duration":413651,"SoundDuration":413651,"Delta":148231012},{"NoteNumber":59,"Velocity":42,"Duration":203970,"SoundDuration":203970,"Delta":148440692},{"NoteNumber":66,"Velocity":48,"Duration":596421,"SoundDuration":596421,"Delta":148644663},{"NoteNumber":62,"Velocity":48,"Duration":596421,"SoundDuration":596421,"Delta":148644663},{"NoteNumber":50,"Velocity":46,"Duration":596421,"SoundDuration":596421,"Delta":148644663},{"NoteNumber":57,"Velocity":46,"Duration":596421,"SoundDuration":596421,"Delta":148644663},{"NoteNumber":60,"Velocity":34,"Duration":155001,"SoundDuration":155001,"Delta":149241084},{"NoteNumber":63,"Velocity":34,"Duration":155001,"SoundDuration":155001,"Delta":149241084},{"NoteNumber":67,"Velocity":42,"Duration":155001,"SoundDuration":155001,"Delta":149241084},{"NoteNumber":45,"Velocity":41,"Duration":155001,"SoundDuration":155001,"Delta":149241084},{"NoteNumber":66,"Velocity":48,"Duration":596421,"SoundDuration":596421,"Delta":149447753},{"NoteNumber":62,"Velocity":48,"Duration":596421,"SoundDuration":596421,"Delta":149447753},{"NoteNumber":50,"Velocity":46,"Duration":596421,"SoundDuration":596421,"Delta":149447753},{"NoteNumber":57,"Velocity":46,"Duration":596421,"SoundDuration":596421,"Delta":149447753},{"NoteNumber":60,"Velocity":34,"Duration":144527,"SoundDuration":144527,"Delta":150044175},{"NoteNumber":63,"Velocity":34,"Duration":144527,"SoundDuration":144527,"Delta":150044175},{"NoteNumber":67,"Velocity":42,"Duration":144527,"SoundDuration":144527,"Delta":150044175},{"NoteNumber":45,"Velocity":42,"Duration":192702,"SoundDuration":192702,"Delta":150044175},{"NoteNumber":62,"Velocity":47,"Duration":397614,"SoundDuration":397614,"Delta":150236878},{"NoteNumber":66,"Velocity":47,"Duration":397614,"SoundDuration":397614,"Delta":150236878},{"NoteNumber":50,"Velocity":45,"Duration":397614,"SoundDuration":397614,"Delta":150236878},{"NoteNumber":57,"Velocity":45,"Duration":397614,"SoundDuration":397614,"Delta":150236878},{"NoteNumber":60,"Velocity":38,"Duration":413337,"SoundDuration":413337,"Delta":150634492},{"NoteNumber":63,"Velocity":38,"Duration":413337,"SoundDuration":413337,"Delta":150634492},{"NoteNumber":69,"Velocity":50,"Duration":413337,"SoundDuration":413337,"Delta":150634492},{"NoteNumber":42,"Velocity":49,"Duration":413337,"SoundDuration":413337,"Delta":150634492},{"NoteNumber":62,"Velocity":45,"Duration":413336,"SoundDuration":413336,"Delta":151047829},{"NoteNumber":67,"Velocity":55,"Duration":413336,"SoundDuration":413336,"Delta":151047829},{"NoteNumber":59,"Velocity":45,"Duration":413336,"SoundDuration":413336,"Delta":151047829},{"NoteNumber":43,"Velocity":52,"Duration":413336,"SoundDuration":413336,"Delta":151047829},{"NoteNumber":62,"Velocity":43,"Duration":200080,"SoundDuration":200080,"Delta":151461166},{"NoteNumber":57,"Velocity":43,"Duration":200080,"SoundDuration":200080,"Delta":151461166},{"NoteNumber":66,"Velocity":43,"Duration":200080,"SoundDuration":200080,"Delta":151461166},{"NoteNumber":45,"Velocity":45,"Duration":400159,"SoundDuration":400159,"Delta":151461166},{"NoteNumber":67,"Velocity":46,"Duration":200079,"SoundDuration":200079,"Delta":151661246},{"NoteNumber":62,"Velocity":45,"Duration":368938,"SoundDuration":368938,"Delta":151861326},{"NoteNumber":55,"Velocity":45,"Duration":368938,"SoundDuration":368938,"Delta":151861326},{"NoteNumber":64,"Velocity":45,"Duration":368938,"SoundDuration":368938,"Delta":151861326},{"NoteNumber":47,"Velocity":45,"Duration":368938,"SoundDuration":368938,"Delta":151861326},{"NoteNumber":64,"Velocity":46,"Duration":407941,"SoundDuration":407941,"Delta":152282971},{"NoteNumber":67,"Velocity":46,"Duration":407941,"SoundDuration":407941,"Delta":152282971},{"NoteNumber":71,"Velocity":46,"Duration":407941,"SoundDuration":407941,"Delta":152282971},{"NoteNumber":49,"Velocity":48,"Duration":407941,"SoundDuration":407941,"Delta":152282971},{"NoteNumber":61,"Velocity":50,"Duration":405350,"SoundDuration":405350,"Delta":152690912},{"NoteNumber":66,"Velocity":50,"Duration":405350,"SoundDuration":405350,"Delta":152690912},{"NoteNumber":69,"Velocity":50,"Duration":405350,"SoundDuration":405350,"Delta":152690912},{"NoteNumber":50,"Velocity":51,"Duration":405350,"SoundDuration":405350,"Delta":152690912},{"NoteNumber":59,"Velocity":52,"Duration":410621,"SoundDuration":410621,"Delta":153096263},{"NoteNumber":64,"Velocity":52,"Duration":410621,"SoundDuration":410621,"Delta":153096263},{"NoteNumber":67,"Velocity":52,"Duration":410621,"SoundDuration":410621,"Delta":153096263},{"NoteNumber":52,"Velocity":51,"Duration":410621,"SoundDuration":410621,"Delta":153096263},{"NoteNumber":61,"Velocity":52,"Duration":359293,"SoundDuration":359293,"Delta":153506884},{"NoteNumber":58,"Velocity":52,"Duration":359293,"SoundDuration":359293,"Delta":153506884},{"NoteNumber":66,"Velocity":52,"Duration":359293,"SoundDuration":359293,"Delta":153506884},{"NoteNumber":54,"Velocity":51,"Duration":359293,"SoundDuration":359293,"Delta":153506884},{"NoteNumber":66,"Velocity":52,"Duration":402738,"SoundDuration":402738,"Delta":153917506},{"NoteNumber":71,"Velocity":52,"Duration":402738,"SoundDuration":402738,"Delta":153917506},{"NoteNumber":74,"Velocity":52,"Duration":402738,"SoundDuration":402738,"Delta":153917506},{"NoteNumber":55,"Velocity":50,"Duration":402738,"SoundDuration":402738,"Delta":153917506},{"NoteNumber":64,"Velocity":54,"Duration":401899,"SoundDuration":401899,"Delta":154320244},{"NoteNumber":67,"Velocity":54,"Duration":401899,"SoundDuration":401899,"Delta":154320244},{"NoteNumber":73,"Velocity":54,"Duration":401899,"SoundDuration":401899,"Delta":154320244},{"NoteNumber":57,"Velocity":52,"Duration":401899,"SoundDuration":401899,"Delta":154320244},{"NoteNumber":66,"Velocity":56,"Duration":392669,"SoundDuration":392669,"Delta":154722144},{"NoteNumber":62,"Velocity":56,"Duration":392669,"SoundDuration":392669,"Delta":154722144},{"NoteNumber":71,"Velocity":56,"Duration":392669,"SoundDuration":392669,"Delta":154722144},{"NoteNumber":59,"Velocity":54,"Duration":392669,"SoundDuration":392669,"Delta":154722144},{"NoteNumber":64,"Velocity":60,"Duration":839038,"SoundDuration":839038,"Delta":155114814},{"NoteNumber":67,"Velocity":60,"Duration":839038,"SoundDuration":839038,"Delta":155114814},{"NoteNumber":69,"Velocity":60,"Duration":402738,"SoundDuration":402738,"Delta":155114814},{"NoteNumber":61,"Velocity":57,"Duration":839038,"SoundDuration":839038,"Delta":155114814},{"NoteNumber":81,"Velocity":66,"Duration":327224,"SoundDuration":327224,"Delta":155517552},{"NoteNumber":74,"Velocity":48,"Duration":596421,"SoundDuration":596421,"Delta":155953852},{"NoteNumber":78,"Velocity":48,"Duration":596421,"SoundDuration":596421,"Delta":155953852},{"NoteNumber":81,"Velocity":48,"Duration":1923962,"SoundDuration":1923962,"Delta":155953852},{"NoteNumber":62,"Velocity":43,"Duration":99403,"SoundDuration":99403,"Delta":155953852},{"NoteNumber":69,"Velocity":43,"Duration":99403,"SoundDuration":99403,"Delta":155953852},{"NoteNumber":57,"Velocity":35,"Duration":99403,"SoundDuration":99403,"Delta":156351467},{"NoteNumber":75,"Velocity":34,"Duration":96351,"SoundDuration":96351,"Delta":156550274},{"NoteNumber":79,"Velocity":42,"Duration":96351,"SoundDuration":96351,"Delta":156550274},{"NoteNumber":78,"Velocity":48,"Duration":596421,"SoundDuration":596421,"Delta":156742977},{"NoteNumber":74,"Velocity":48,"Duration":596421,"SoundDuration":596421,"Delta":156742977},{"NoteNumber":50,"Velocity":42,"Duration":99403,"SoundDuration":99403,"Delta":156742977},{"NoteNumber":57,"Velocity":37,"Duration":99403,"SoundDuration":99403,"Delta":157140591},{"NoteNumber":75,"Velocity":34,"Duration":96351,"SoundDuration":96351,"Delta":157339399},{"NoteNumber":79,"Velocity":42,"Duration":96351,"SoundDuration":96351,"Delta":157339399},{"NoteNumber":74,"Velocity":47,"Duration":345713,"SoundDuration":345713,"Delta":157532102},{"NoteNumber":78,"Velocity":47,"Duration":345713,"SoundDuration":345713,"Delta":157532102},{"NoteNumber":62,"Velocity":43,"Duration":98775,"SoundDuration":98775,"Delta":157532102},{"NoteNumber":72,"Velocity":49,"Duration":405350,"SoundDuration":405350,"Delta":157927203},{"NoteNumber":75,"Velocity":49,"Duration":405350,"SoundDuration":405350,"Delta":157927203},{"NoteNumber":81,"Velocity":49,"Duration":405350,"SoundDuration":405350,"Delta":157927203},{"NoteNumber":69,"Velocity":36,"Duration":405350,"SoundDuration":405350,"Delta":157927203},{"NoteNumber":63,"Velocity":36,"Duration":405350,"SoundDuration":405350,"Delta":157927203},{"NoteNumber":60,"Velocity":36,"Duration":405350,"SoundDuration":405350,"Delta":157927203},{"NoteNumber":54,"Velocity":36,"Duration":405350,"SoundDuration":405350,"Delta":157927203},{"NoteNumber":70,"Velocity":49,"Duration":405350,"SoundDuration":405350,"Delta":158332553},{"NoteNumber":74,"Velocity":49,"Duration":405350,"SoundDuration":405350,"Delta":158332553},{"NoteNumber":79,"Velocity":49,"Duration":405350,"SoundDuration":405350,"Delta":158332553},{"NoteNumber":67,"Velocity":36,"Duration":405350,"SoundDuration":405350,"Delta":158332553},{"NoteNumber":62,"Velocity":36,"Duration":405350,"SoundDuration":405350,"Delta":158332553},{"NoteNumber":58,"Velocity":36,"Duration":405350,"SoundDuration":405350,"Delta":158332553},{"NoteNumber":55,"Velocity":36,"Duration":405350,"SoundDuration":405350,"Delta":158332553},{"NoteNumber":78,"Velocity":40,"Duration":200080,"SoundDuration":200080,"Delta":158737904},{"NoteNumber":74,"Velocity":40,"Duration":200080,"SoundDuration":200080,"Delta":158737904},{"NoteNumber":69,"Velocity":40,"Duration":200080,"SoundDuration":200080,"Delta":158737904},{"NoteNumber":66,"Velocity":35,"Duration":400159,"SoundDuration":400159,"Delta":158737904},{"NoteNumber":62,"Velocity":35,"Duration":400159,"SoundDuration":400159,"Delta":158737904},{"NoteNumber":57,"Velocity":35,"Duration":400159,"SoundDuration":400159,"Delta":158737904},{"NoteNumber":79,"Velocity":43,"Duration":200079,"SoundDuration":200079,"Delta":158937984},{"NoteNumber":74,"Velocity":38,"Duration":800319,"SoundDuration":800319,"Delta":159138064},{"NoteNumber":67,"Velocity":38,"Duration":800319,"SoundDuration":800319,"Delta":159138064},{"NoteNumber":76,"Velocity":38,"Duration":800319,"SoundDuration":800319,"Delta":159138064},{"NoteNumber":64,"Velocity":34,"Duration":800319,"SoundDuration":800319,"Delta":159138064},{"NoteNumber":62,"Velocity":34,"Duration":800319,"SoundDuration":800319,"Delta":159138064},{"NoteNumber":58,"Velocity":34,"Duration":800319,"SoundDuration":800319,"Delta":159138064},{"NoteNumber":79,"Velocity":42,"Duration":821243,"SoundDuration":821243,"Delta":159938384},{"NoteNumber":76,"Velocity":42,"Duration":821243,"SoundDuration":821243,"Delta":159938384},{"NoteNumber":70,"Velocity":42,"Duration":821243,"SoundDuration":821243,"Delta":159938384},{"NoteNumber":67,"Velocity":36,"Duration":821243,"SoundDuration":821243,"Delta":159938384},{"NoteNumber":64,"Velocity":36,"Duration":821243,"SoundDuration":821243,"Delta":159938384},{"NoteNumber":61,"Velocity":36,"Duration":821243,"SoundDuration":821243,"Delta":159938384},{"NoteNumber":78,"Velocity":44,"Duration":402738,"SoundDuration":402738,"Delta":160759627},{"NoteNumber":69,"Velocity":44,"Duration":818827,"SoundDuration":818827,"Delta":160759627},{"NoteNumber":74,"Velocity":44,"Duration":402738,"SoundDuration":402738,"Delta":160759627},{"NoteNumber":66,"Velocity":42,"Duration":1624304,"SoundDuration":1624304,"Delta":160759627},{"NoteNumber":62,"Velocity":42,"Duration":1624304,"SoundDuration":1624304,"Delta":160759627},{"NoteNumber":81,"Velocity":54,"Duration":416088,"SoundDuration":416088,"Delta":161162365},{"NoteNumber":72,"Velocity":47,"Duration":805476,"SoundDuration":805476,"Delta":161578454},{"NoteNumber":78,"Velocity":47,"Duration":805476,"SoundDuration":805476,"Delta":161578454},{"NoteNumber":84,"Velocity":47,"Duration":805476,"SoundDuration":805476,"Delta":161578454},{"NoteNumber":57,"Velocity":38,"Duration":805476,"SoundDuration":805476,"Delta":161578454},{"NoteNumber":67,"Velocity":52,"Duration":2546123,"SoundDuration":2546123,"Delta":162383931},{"NoteNumber":71,"Velocity":52,"Duration":416088,"SoundDuration":416088,"Delta":162383931},{"NoteNumber":55,"Velocity":36,"Duration":852388,"SoundDuration":852388,"Delta":162383931},{"NoteNumber":59,"Velocity":36,"Duration":2546123,"SoundDuration":2546123,"Delta":162383931},{"NoteNumber":74,"Velocity":50,"Duration":436299,"SoundDuration":436299,"Delta":162800020},{"NoteNumber":78,"Velocity":55,"Duration":849017,"SoundDuration":849017,"Delta":163236320},{"NoteNumber":52,"Velocity":37,"Duration":2669229,"SoundDuration":2669229,"Delta":163236320},{"NoteNumber":45,"Velocity":37,"Duration":2669229,"SoundDuration":2669229,"Delta":163236320},{"NoteNumber":76,"Velocity":49,"Duration":405350,"SoundDuration":405350,"Delta":164085337},{"NoteNumber":74,"Velocity":46,"Duration":439367,"SoundDuration":439367,"Delta":164490688},{"NoteNumber":67,"Velocity":43,"Duration":468823,"SoundDuration":468823,"Delta":164930055},{"NoteNumber":71,"Velocity":43,"Duration":468823,"SoundDuration":468823,"Delta":164930055},{"NoteNumber":61,"Velocity":38,"Duration":975494,"SoundDuration":975494,"Delta":164930055},{"NoteNumber":64,"Velocity":38,"Duration":506671,"SoundDuration":506671,"Delta":165398879},{"NoteNumber":67,"Velocity":38,"Duration":506671,"SoundDuration":506671,"Delta":165398879},{"NoteNumber":62,"Velocity":36,"Duration":917150,"SoundDuration":917150,"Delta":165905550},{"NoteNumber":59,"Velocity":36,"Duration":917150,"SoundDuration":917150,"Delta":165905550},{"NoteNumber":66,"Velocity":36,"Duration":917150,"SoundDuration":917150,"Delta":165905550},{"NoteNumber":44,"Velocity":38,"Duration":917150,"SoundDuration":917150,"Delta":165905550},{"NoteNumber":56,"Velocity":38,"Duration":436299,"SoundDuration":436299,"Delta":166822701},{"NoteNumber":61,"Velocity":38,"Duration":436299,"SoundDuration":436299,"Delta":166822701},{"NoteNumber":64,"Velocity":38,"Duration":436299,"SoundDuration":436299,"Delta":166822701},{"NoteNumber":45,"Velocity":39,"Duration":436299,"SoundDuration":436299,"Delta":166822701},{"NoteNumber":54,"Velocity":36,"Duration":421644,"SoundDuration":421644,"Delta":167259001},{"NoteNumber":59,"Velocity":36,"Duration":421644,"SoundDuration":421644,"Delta":167259001},{"NoteNumber":62,"Velocity":36,"Duration":421644,"SoundDuration":421644,"Delta":167259001},{"NoteNumber":47,"Velocity":38,"Duration":421644,"SoundDuration":421644,"Delta":167259001},{"NoteNumber":53,"Velocity":38,"Duration":430292,"SoundDuration":430292,"Delta":167680645},{"NoteNumber":59,"Velocity":38,"Duration":430292,"SoundDuration":430292,"Delta":167680645},{"NoteNumber":61,"Velocity":38,"Duration":430292,"SoundDuration":430292,"Delta":167680645},{"NoteNumber":49,"Velocity":39,"Duration":430292,"SoundDuration":430292,"Delta":167680645},{"NoteNumber":59,"Velocity":36,"Duration":2823020,"SoundDuration":2823020,"Delta":168110938},{"NoteNumber":61,"Velocity":36,"Duration":402738,"SoundDuration":402738,"Delta":168110938},{"NoteNumber":68,"Velocity":36,"Duration":805476,"SoundDuration":805476,"Delta":168110938},{"NoteNumber":51,"Velocity":37,"Duration":201369,"SoundDuration":201369,"Delta":168110938},{"NoteNumber":53,"Velocity":40,"Duration":201369,"SoundDuration":201369,"Delta":168312307},{"NoteNumber":62,"Velocity":36,"Duration":2420282,"SoundDuration":2420282,"Delta":168513676},{"NoteNumber":54,"Velocity":45,"Duration":790536,"SoundDuration":790536,"Delta":168513676},{"NoteNumber":66,"Velocity":33,"Duration":129265,"SoundDuration":129265,"Delta":168916415},{"NoteNumber":68,"Velocity":37,"Duration":129265,"SoundDuration":129265,"Delta":169045680},{"NoteNumber":69,"Velocity":41,"Duration":129265,"SoundDuration":129265,"Delta":169174946},{"NoteNumber":66,"Velocity":43,"Duration":416088,"SoundDuration":416088,"Delta":169304212},{"NoteNumber":56,"Velocity":36,"Duration":816248,"SoundDuration":816248,"Delta":169304212},{"NoteNumber":64,"Velocity":40,"Duration":800319,"SoundDuration":800319,"Delta":169720301},{"NoteNumber":57,"Velocity":38,"Duration":779052,"SoundDuration":779052,"Delta":170120461},{"NoteNumber":66,"Velocity":45,"Duration":378892,"SoundDuration":378892,"Delta":170520621},{"NoteNumber":68,"Velocity":39,"Duration":1642682,"SoundDuration":1642682,"Delta":170933958},{"NoteNumber":78,"Velocity":39,"Duration":821243,"SoundDuration":821243,"Delta":170933958},{"NoteNumber":74,"Velocity":39,"Duration":821243,"SoundDuration":821243,"Delta":170933958},{"NoteNumber":59,"Velocity":38,"Duration":821243,"SoundDuration":821243,"Delta":170933958},{"NoteNumber":73,"Velocity":38,"Duration":416088,"SoundDuration":416088,"Delta":171755201},{"NoteNumber":76,"Velocity":38,"Duration":416088,"SoundDuration":416088,"Delta":171755201},{"NoteNumber":61,"Velocity":39,"Duration":416088,"SoundDuration":416088,"Delta":171755201},{"NoteNumber":74,"Velocity":36,"Duration":405350,"SoundDuration":405350,"Delta":172171290},{"NoteNumber":71,"Velocity":36,"Duration":405350,"SoundDuration":405350,"Delta":172171290},{"NoteNumber":62,"Velocity":38,"Duration":405350,"SoundDuration":405350,"Delta":172171290},{"NoteNumber":68,"Velocity":38,"Duration":418819,"SoundDuration":418819,"Delta":172576641},{"NoteNumber":71,"Velocity":38,"Duration":418819,"SoundDuration":418819,"Delta":172576641},{"NoteNumber":73,"Velocity":38,"Duration":418819,"SoundDuration":418819,"Delta":172576641},{"NoteNumber":64,"Velocity":39,"Duration":418819,"SoundDuration":418819,"Delta":172576641},{"NoteNumber":71,"Velocity":44,"Duration":4060142,"SoundDuration":4060142,"Delta":172995460},{"NoteNumber":73,"Velocity":44,"Duration":433275,"SoundDuration":433275,"Delta":172995460},{"NoteNumber":80,"Velocity":44,"Duration":843896,"SoundDuration":843896,"Delta":172995460},{"NoteNumber":65,"Velocity":39,"Duration":433275,"SoundDuration":433275,"Delta":172995460},{"NoteNumber":74,"Velocity":43,"Duration":3626867,"SoundDuration":3626867,"Delta":173428735},{"NoteNumber":66,"Velocity":39,"Duration":3626867,"SoundDuration":3626867,"Delta":173428735},{"NoteNumber":78,"Velocity":38,"Duration":410621,"SoundDuration":410621,"Delta":173839357},{"NoteNumber":80,"Velocity":39,"Duration":424508,"SoundDuration":424508,"Delta":174249978},{"NoteNumber":81,"Velocity":36,"Duration":442412,"SoundDuration":442412,"Delta":174674487},{"NoteNumber":78,"Velocity":38,"Duration":510811,"SoundDuration":510811,"Delta":175116899},{"NoteNumber":80,"Velocity":35,"Duration":1427891,"SoundDuration":1427891,"Delta":175627711},{"NoteNumber":51,"Velocity":35,"Duration":909315,"SoundDuration":909315,"Delta":177055603},{"NoteNumber":58,"Velocity":35,"Duration":909315,"SoundDuration":909315,"Delta":177055603},{"NoteNumber":55,"Velocity":35,"Duration":909315,"SoundDuration":909315,"Delta":177055603},{"NoteNumber":34,"Velocity":35,"Duration":912587,"SoundDuration":912587,"Delta":177055603},{"NoteNumber":46,"Velocity":35,"Duration":912587,"SoundDuration":912587,"Delta":177055603},{"NoteNumber":70,"Velocity":32,"Duration":1071181,"SoundDuration":1071181,"Delta":177968190},{"NoteNumber":55,"Velocity":31,"Duration":1067331,"SoundDuration":1067331,"Delta":177968190},{"NoteNumber":75,"Velocity":34,"Duration":1022097,"SoundDuration":1022097,"Delta":178017274},{"NoteNumber":58,"Velocity":33,"Duration":1018247,"SoundDuration":1018247,"Delta":178017274},{"NoteNumber":79,"Velocity":35,"Duration":973013,"SoundDuration":973013,"Delta":178066357},{"NoteNumber":63,"Velocity":35,"Duration":965314,"SoundDuration":965314,"Delta":178066357},{"NoteNumber":82,"Velocity":41,"Duration":923930,"SoundDuration":923930,"Delta":178115441},{"NoteNumber":67,"Velocity":40,"Duration":910456,"SoundDuration":910456,"Delta":178115441},{"NoteNumber":51,"Velocity":38,"Duration":1882897,"SoundDuration":1882897,"Delta":179039371},{"NoteNumber":55,"Velocity":38,"Duration":1882897,"SoundDuration":1882897,"Delta":179039371},{"NoteNumber":58,"Velocity":38,"Duration":1882897,"SoundDuration":1882897,"Delta":179039371},{"NoteNumber":46,"Velocity":38,"Duration":1886190,"SoundDuration":1886190,"Delta":179039371},{"NoteNumber":34,"Velocity":44,"Duration":896744,"SoundDuration":896744,"Delta":180028817},{"NoteNumber":70,"Velocity":32,"Duration":1078972,"SoundDuration":1078972,"Delta":180925562},{"NoteNumber":55,"Velocity":31,"Duration":1075094,"SoundDuration":1075094,"Delta":180925562},{"NoteNumber":75,"Velocity":33,"Duration":1029585,"SoundDuration":1029585,"Delta":180974949},{"NoteNumber":58,"Velocity":33,"Duration":1025706,"SoundDuration":1025706,"Delta":180974949},{"NoteNumber":79,"Velocity":35,"Duration":980197,"SoundDuration":980197,"Delta":181024337},{"NoteNumber":63,"Velocity":35,"Duration":974380,"SoundDuration":974380,"Delta":181024337},{"NoteNumber":82,"Velocity":40,"Duration":930810,"SoundDuration":930810,"Delta":181073724},{"NoteNumber":67,"Velocity":41,"Duration":924992,"SoundDuration":924992,"Delta":181073724},{"NoteNumber":51,"Velocity":40,"Duration":1332331,"SoundDuration":1332331,"Delta":182004534},{"NoteNumber":55,"Velocity":40,"Duration":1332331,"SoundDuration":1332331,"Delta":182004534},{"NoteNumber":58,"Velocity":40,"Duration":1134780,"SoundDuration":1134780,"Delta":182004534},{"NoteNumber":46,"Velocity":41,"Duration":1332331,"SoundDuration":1332331,"Delta":182004534},{"NoteNumber":34,"Velocity":41,"Duration":401521,"SoundDuration":401521,"Delta":182935344},{"NoteNumber":60,"Velocity":42,"Duration":197550,"SoundDuration":197550,"Delta":183139315},{"NoteNumber":62,"Velocity":44,"Duration":193898,"SoundDuration":193898,"Delta":183336866},{"NoteNumber":63,"Velocity":43,"Duration":210822,"SoundDuration":210822,"Delta":183530764},{"NoteNumber":60,"Velocity":44,"Duration":169975,"SoundDuration":169975,"Delta":183741587},{"NoteNumber":51,"Velocity":36,"Duration":402777,"SoundDuration":402777,"Delta":183741587},{"NoteNumber":55,"Velocity":36,"Duration":402777,"SoundDuration":402777,"Delta":183741587},{"NoteNumber":60,"Velocity":39,"Duration":99403,"SoundDuration":99403,"Delta":183945557},{"NoteNumber":62,"Velocity":39,"Duration":99403,"SoundDuration":99403,"Delta":184044961},{"NoteNumber":60,"Velocity":44,"Duration":144527,"SoundDuration":144527,"Delta":184144365},{"NoteNumber":58,"Velocity":44,"Duration":159190,"SoundDuration":159190,"Delta":184337068},{"NoteNumber":60,"Velocity":43,"Duration":51327,"SoundDuration":51327,"Delta":184549322},{"NoteNumber":67,"Velocity":33,"Duration":102655,"SoundDuration":102655,"Delta":184549322},{"NoteNumber":72,"Velocity":33,"Duration":102655,"SoundDuration":102655,"Delta":184549322},{"NoteNumber":75,"Velocity":33,"Duration":102655,"SoundDuration":102655,"Delta":184549322},{"NoteNumber":63,"Velocity":39,"Duration":53786,"SoundDuration":53786,"Delta":184959943},{"NoteNumber":62,"Velocity":42,"Duration":203970,"SoundDuration":203970,"Delta":185390236},{"NoteNumber":46,"Velocity":41,"Duration":401521,"SoundDuration":401521,"Delta":185390236},{"NoteNumber":34,"Velocity":41,"Duration":401521,"SoundDuration":401521,"Delta":185390236},{"NoteNumber":63,"Velocity":42,"Duration":197550,"SoundDuration":197550,"Delta":185594207},{"NoteNumber":65,"Velocity":44,"Duration":193898,"SoundDuration":193898,"Delta":185791757},{"NoteNumber":67,"Velocity":43,"Duration":210822,"SoundDuration":210822,"Delta":185985656},{"NoteNumber":62,"Velocity":44,"Duration":169975,"SoundDuration":169975,"Delta":186196478},{"NoteNumber":58,"Velocity":36,"Duration":402777,"SoundDuration":402777,"Delta":186196478},{"NoteNumber":50,"Velocity":36,"Duration":402777,"SoundDuration":402777,"Delta":186196478},{"NoteNumber":55,"Velocity":36,"Duration":402777,"SoundDuration":402777,"Delta":186196478},{"NoteNumber":62,"Velocity":39,"Duration":99403,"SoundDuration":99403,"Delta":186400449},{"NoteNumber":63,"Velocity":39,"Duration":99403,"SoundDuration":99403,"Delta":186499853},{"NoteNumber":62,"Velocity":44,"Duration":144527,"SoundDuration":144527,"Delta":186599256},{"NoteNumber":60,"Velocity":42,"Duration":159190,"SoundDuration":159190,"Delta":186791959},{"NoteNumber":58,"Velocity":39,"Duration":206668,"SoundDuration":206668,"Delta":187004213},{"NoteNumber":67,"Velocity":33,"Duration":103334,"SoundDuration":103334,"Delta":187004213},{"NoteNumber":70,"Velocity":33,"Duration":103334,"SoundDuration":103334,"Delta":187004213},{"NoteNumber":74,"Velocity":33,"Duration":103334,"SoundDuration":103334,"Delta":187004213},{"NoteNumber":60,"Velocity":39,"Duration":206668,"SoundDuration":206668,"Delta":187210882},{"NoteNumber":62,"Velocity":39,"Duration":430292,"SoundDuration":430292,"Delta":187417550},{"NoteNumber":61,"Velocity":36,"Duration":806242,"SoundDuration":806242,"Delta":187847843},{"NoteNumber":63,"Velocity":42,"Duration":203970,"SoundDuration":203970,"Delta":187847843},{"NoteNumber":55,"Velocity":36,"Duration":806242,"SoundDuration":806242,"Delta":187847843},{"NoteNumber":46,"Velocity":41,"Duration":2449330,"SoundDuration":2449330,"Delta":187847843},{"NoteNumber":65,"Velocity":42,"Duration":197550,"SoundDuration":197550,"Delta":188051814},{"NoteNumber":67,"Velocity":44,"Duration":193898,"SoundDuration":193898,"Delta":188249364},{"NoteNumber":68,"Velocity":43,"Duration":210822,"SoundDuration":210822,"Delta":188443263},{"NoteNumber":65,"Velocity":44,"Duration":169975,"SoundDuration":169975,"Delta":188654085},{"NoteNumber":56,"Velocity":38,"Duration":807735,"SoundDuration":807735,"Delta":188654085},{"NoteNumber":65,"Velocity":39,"Duration":99403,"SoundDuration":99403,"Delta":188858056},{"NoteNumber":67,"Velocity":39,"Duration":99403,"SoundDuration":99403,"Delta":188957460},{"NoteNumber":65,"Velocity":44,"Duration":144527,"SoundDuration":144527,"Delta":189056863},{"NoteNumber":63,"Velocity":44,"Duration":159190,"SoundDuration":159190,"Delta":189249566},{"NoteNumber":65,"Velocity":46,"Duration":50992,"SoundDuration":50992,"Delta":189461820},{"NoteNumber":68,"Velocity":36,"Duration":50992,"SoundDuration":50992,"Delta":189461820},{"NoteNumber":77,"Velocity":36,"Duration":50992,"SoundDuration":50992,"Delta":189461820},{"NoteNumber":73,"Velocity":36,"Duration":50992,"SoundDuration":50992,"Delta":189461820},{"NoteNumber":68,"Velocity":44,"Duration":53426,"SoundDuration":53426,"Delta":189869762},{"NoteNumber":61,"Velocity":39,"Duration":1209020,"SoundDuration":1209020,"Delta":190297173},{"NoteNumber":67,"Velocity":46,"Duration":203970,"SoundDuration":203970,"Delta":190297173},{"NoteNumber":46,"Velocity":41,"Duration":806242,"SoundDuration":806242,"Delta":190297173},{"NoteNumber":51,"Velocity":41,"Duration":806242,"SoundDuration":806242,"Delta":190297173},{"NoteNumber":68,"Velocity":46,"Duration":197550,"SoundDuration":197550,"Delta":190501144},{"NoteNumber":70,"Velocity":48,"Duration":193898,"SoundDuration":193898,"Delta":190698695},{"NoteNumber":72,"Velocity":47,"Duration":210822,"SoundDuration":210822,"Delta":190892593},{"NoteNumber":67,"Velocity":48,"Duration":169975,"SoundDuration":169975,"Delta":191103416},{"NoteNumber":75,"Velocity":36,"Duration":402777,"SoundDuration":402777,"Delta":191103416},{"NoteNumber":73,"Velocity":36,"Duration":402777,"SoundDuration":402777,"Delta":191103416},{"NoteNumber":65,"Velocity":42,"Duration":99403,"SoundDuration":99403,"Delta":191307386},{"NoteNumber":67,"Velocity":42,"Duration":66269,"SoundDuration":66269,"Delta":191373655},{"NoteNumber":65,"Velocity":42,"Duration":66269,"SoundDuration":66269,"Delta":191439925},{"NoteNumber":63,"Velocity":48,"Duration":144527,"SoundDuration":144527,"Delta":191506194},{"NoteNumber":61,"Velocity":46,"Duration":157057,"SoundDuration":157057,"Delta":191698897},{"NoteNumber":63,"Velocity":42,"Duration":203970,"SoundDuration":203970,"Delta":191908306},{"NoteNumber":51,"Velocity":41,"Duration":1632367,"SoundDuration":1632367,"Delta":191908306},{"NoteNumber":65,"Velocity":42,"Duration":203970,"SoundDuration":203970,"Delta":192112277},{"NoteNumber":67,"Velocity":42,"Duration":430292,"SoundDuration":430292,"Delta":192316248},{"NoteNumber":61,"Velocity":42,"Duration":1193347,"SoundDuration":1193347,"Delta":192746540},{"NoteNumber":67,"Velocity":50,"Duration":202156,"SoundDuration":202156,"Delta":192746540},{"NoteNumber":46,"Velocity":45,"Duration":794133,"SoundDuration":794133,"Delta":192746540},{"NoteNumber":68,"Velocity":50,"Duration":195822,"SoundDuration":195822,"Delta":192948696},{"NoteNumber":70,"Velocity":52,"Duration":192184,"SoundDuration":192184,"Delta":193144519},{"NoteNumber":72,"Velocity":51,"Duration":203970,"SoundDuration":203970,"Delta":193336703},{"NoteNumber":67,"Velocity":52,"Duration":168463,"SoundDuration":168463,"Delta":193540674},{"NoteNumber":75,"Velocity":40,"Duration":399213,"SoundDuration":399213,"Delta":193540674},{"NoteNumber":73,"Velocity":40,"Duration":399213,"SoundDuration":399213,"Delta":193540674},{"NoteNumber":65,"Velocity":46,"Duration":98528,"SoundDuration":98528,"Delta":193742830},{"NoteNumber":67,"Velocity":46,"Duration":65685,"SoundDuration":65685,"Delta":193808516},{"NoteNumber":65,"Velocity":46,"Duration":65685,"SoundDuration":65685,"Delta":193874202},{"NoteNumber":63,"Velocity":53,"Duration":143257,"SoundDuration":143257,"Delta":193939888},{"NoteNumber":61,"Velocity":50,"Duration":152625,"SoundDuration":152625,"Delta":194130897},{"NoteNumber":63,"Velocity":54,"Duration":200080,"SoundDuration":200080,"Delta":194334398},{"NoteNumber":51,"Velocity":47,"Duration":813497,"SoundDuration":813497,"Delta":194334398},{"NoteNumber":65,"Velocity":51,"Duration":200079,"SoundDuration":200079,"Delta":194534478},{"NoteNumber":67,"Velocity":51,"Duration":413337,"SoundDuration":413337,"Delta":194734558},{"NoteNumber":61,"Velocity":55,"Duration":1175243,"SoundDuration":1175243,"Delta":195147895},{"NoteNumber":68,"Velocity":55,"Duration":199769,"SoundDuration":199769,"Delta":195147895},{"NoteNumber":52,"Velocity":52,"Duration":785126,"SoundDuration":785126,"Delta":195147895},{"NoteNumber":42,"Velocity":52,"Duration":785126,"SoundDuration":785126,"Delta":195147895},{"NoteNumber":69,"Velocity":56,"Duration":193773,"SoundDuration":193773,"Delta":195347664},{"NoteNumber":71,"Velocity":58,"Duration":190186,"SoundDuration":190186,"Delta":195541438},{"NoteNumber":73,"Velocity":57,"Duration":201396,"SoundDuration":201396,"Delta":195731624},{"NoteNumber":68,"Velocity":58,"Duration":162591,"SoundDuration":162591,"Delta":195933021},{"NoteNumber":76,"Velocity":45,"Duration":390117,"SoundDuration":390117,"Delta":195933021},{"NoteNumber":73,"Velocity":45,"Duration":390117,"SoundDuration":390117,"Delta":195933021},{"NoteNumber":66,"Velocity":51,"Duration":97503,"SoundDuration":97503,"Delta":196128130},{"NoteNumber":68,"Velocity":51,"Duration":65002,"SoundDuration":65002,"Delta":196193133},{"NoteNumber":66,"Velocity":51,"Duration":65002,"SoundDuration":65002,"Delta":196258135},{"NoteNumber":64,"Velocity":59,"Duration":141776,"SoundDuration":141776,"Delta":196323138},{"NoteNumber":63,"Velocity":56,"Duration":148143,"SoundDuration":148143,"Delta":196512174},{"NoteNumber":64,"Velocity":60,"Duration":195007,"SoundDuration":195007,"Delta":196709698},{"NoteNumber":52,"Velocity":52,"Duration":1176549,"SoundDuration":1176549,"Delta":196709698},{"NoteNumber":66,"Velocity":57,"Duration":195007,"SoundDuration":195007,"Delta":196904706},{"NoteNumber":68,"Velocity":57,"Duration":597450,"SoundDuration":597450,"Delta":197099713},{"NoteNumber":62,"Velocity":60,"Duration":1145105,"SoundDuration":1145105,"Delta":197499873},{"NoteNumber":40,"Velocity":60,"Duration":386374,"SoundDuration":386374,"Delta":197499873},{"NoteNumber":69,"Velocity":55,"Duration":189083,"SoundDuration":189083,"Delta":197697164},{"NoteNumber":71,"Velocity":57,"Duration":191350,"SoundDuration":191350,"Delta":197886247},{"NoteNumber":73,"Velocity":60,"Duration":187946,"SoundDuration":187946,"Delta":198077598},{"NoteNumber":68,"Velocity":65,"Duration":193698,"SoundDuration":193698,"Delta":198265545},{"NoteNumber":74,"Velocity":46,"Duration":379433,"SoundDuration":379433,"Delta":198265545},{"NoteNumber":76,"Velocity":46,"Duration":379433,"SoundDuration":379433,"Delta":198265545},{"NoteNumber":69,"Velocity":59,"Duration":185735,"SoundDuration":185735,"Delta":198459243},{"NoteNumber":71,"Velocity":63,"Duration":189083,"SoundDuration":189083,"Delta":198644978},{"NoteNumber":73,"Velocity":66,"Duration":185735,"SoundDuration":185735,"Delta":198834062},{"NoteNumber":74,"Velocity":70,"Duration":191350,"SoundDuration":191350,"Delta":199019797},{"NoteNumber":52,"Velocity":54,"Duration":747203,"SoundDuration":747203,"Delta":199019797},{"NoteNumber":76,"Velocity":64,"Duration":184660,"SoundDuration":184660,"Delta":199211148},{"NoteNumber":78,"Velocity":67,"Duration":187946,"SoundDuration":187946,"Delta":199395809},{"NoteNumber":80,"Velocity":69,"Duration":183245,"SoundDuration":183245,"Delta":199583755},{"NoteNumber":40,"Velocity":65,"Duration":183245,"SoundDuration":183245,"Delta":199583755},{"NoteNumber":81,"Velocity":76,"Duration":549148,"SoundDuration":549148,"Delta":199767000},{"NoteNumber":62,"Velocity":56,"Duration":726432,"SoundDuration":726432,"Delta":199767000},{"NoteNumber":61,"Velocity":56,"Duration":726432,"SoundDuration":726432,"Delta":199767000},{"NoteNumber":69,"Velocity":56,"Duration":726432,"SoundDuration":726432,"Delta":199767000},{"NoteNumber":73,"Velocity":58,"Duration":177451,"SoundDuration":177451,"Delta":199957187},{"NoteNumber":74,"Velocity":58,"Duration":181510,"SoundDuration":181510,"Delta":200134639},{"NoteNumber":81,"Velocity":58,"Duration":177283,"SoundDuration":177283,"Delta":200316149},{"NoteNumber":80,"Velocity":75,"Duration":545653,"SoundDuration":545653,"Delta":200493433},{"NoteNumber":68,"Velocity":53,"Duration":722103,"SoundDuration":722103,"Delta":200493433},{"NoteNumber":62,"Velocity":53,"Duration":722103,"SoundDuration":722103,"Delta":200493433},{"NoteNumber":59,"Velocity":53,"Duration":722103,"SoundDuration":722103,"Delta":200493433},{"NoteNumber":71,"Velocity":56,"Duration":178444,"SoundDuration":178444,"Delta":200678094},{"NoteNumber":74,"Velocity":56,"Duration":182548,"SoundDuration":182548,"Delta":200856538},{"NoteNumber":80,"Velocity":56,"Duration":176449,"SoundDuration":176449,"Delta":201039086},{"NoteNumber":78,"Velocity":72,"Duration":544225,"SoundDuration":544225,"Delta":201215536},{"NoteNumber":66,"Velocity":48,"Duration":719704,"SoundDuration":719704,"Delta":201215536},{"NoteNumber":62,"Velocity":48,"Duration":719704,"SoundDuration":719704,"Delta":201215536},{"NoteNumber":56,"Velocity":48,"Duration":719704,"SoundDuration":719704,"Delta":201215536},{"NoteNumber":71,"Velocity":55,"Duration":179128,"SoundDuration":179128,"Delta":201398084},{"NoteNumber":74,"Velocity":55,"Duration":182548,"SoundDuration":182548,"Delta":201577213},{"NoteNumber":78,"Velocity":55,"Duration":175479,"SoundDuration":175479,"Delta":201759761},{"NoteNumber":76,"Velocity":71,"Duration":538398,"SoundDuration":538398,"Delta":201935241},{"NoteNumber":64,"Velocity":47,"Duration":1081939,"SoundDuration":1081939,"Delta":201935241},{"NoteNumber":61,"Velocity":47,"Duration":1081939,"SoundDuration":1081939,"Delta":201935241},{"NoteNumber":57,"Velocity":47,"Duration":1081939,"SoundDuration":1081939,"Delta":201935241},{"NoteNumber":69,"Velocity":52,"Duration":178444,"SoundDuration":178444,"Delta":202116751},{"NoteNumber":73,"Velocity":52,"Duration":178443,"SoundDuration":178443,"Delta":202295195},{"NoteNumber":76,"Velocity":52,"Duration":543541,"SoundDuration":543541,"Delta":202473639},{"NoteNumber":73,"Velocity":52,"Duration":182548,"SoundDuration":182548,"Delta":202652083},{"NoteNumber":40,"Velocity":64,"Duration":1458000,"SoundDuration":1458000,"Delta":202652083},{"NoteNumber":69,"Velocity":52,"Duration":182548,"SoundDuration":182548,"Delta":202834632},{"NoteNumber":78,"Velocity":67,"Duration":356887,"SoundDuration":356887,"Delta":203017180},{"NoteNumber":73,"Velocity":55,"Duration":178444,"SoundDuration":178444,"Delta":203017180},{"NoteNumber":57,"Velocity":54,"Duration":356887,"SoundDuration":356887,"Delta":203017180},{"NoteNumber":61,"Velocity":54,"Duration":356887,"SoundDuration":356887,"Delta":203017180},{"NoteNumber":66,"Velocity":54,"Duration":356887,"SoundDuration":356887,"Delta":203017180},{"NoteNumber":69,"Velocity":55,"Duration":178443,"SoundDuration":178443,"Delta":203195624},{"NoteNumber":78,"Velocity":55,"Duration":181510,"SoundDuration":181510,"Delta":203374068},{"NoteNumber":81,"Velocity":66,"Duration":363020,"SoundDuration":363020,"Delta":203374068},{"NoteNumber":61,"Velocity":54,"Duration":363020,"SoundDuration":363020,"Delta":203374068},{"NoteNumber":66,"Velocity":54,"Duration":363020,"SoundDuration":363020,"Delta":203374068},{"NoteNumber":69,"Velocity":54,"Duration":363020,"SoundDuration":363020,"Delta":203374068},{"NoteNumber":73,"Velocity":55,"Duration":181510,"SoundDuration":181510,"Delta":203555578},{"NoteNumber":81,"Velocity":55,"Duration":185735,"SoundDuration":185735,"Delta":203737089},{"NoteNumber":85,"Velocity":67,"Duration":372994,"SoundDuration":372994,"Delta":203737089},{"NoteNumber":66,"Velocity":54,"Duration":372994,"SoundDuration":372994,"Delta":203737089},{"NoteNumber":69,"Velocity":54,"Duration":372994,"SoundDuration":372994,"Delta":203737089},{"NoteNumber":73,"Velocity":54,"Duration":372994,"SoundDuration":372994,"Delta":203737089},{"NoteNumber":78,"Velocity":55,"Duration":187259,"SoundDuration":187259,"Delta":203922824},{"NoteNumber":81,"Velocity":76,"Duration":554014,"SoundDuration":554014,"Delta":204110083},{"NoteNumber":62,"Velocity":56,"Duration":733633,"SoundDuration":733633,"Delta":204110083},{"NoteNumber":61,"Velocity":56,"Duration":733633,"SoundDuration":733633,"Delta":204110083},{"NoteNumber":69,"Velocity":56,"Duration":733633,"SoundDuration":733633,"Delta":204110083},{"NoteNumber":73,"Velocity":58,"Duration":179791,"SoundDuration":179791,"Delta":204297203},{"NoteNumber":74,"Velocity":58,"Duration":187102,"SoundDuration":187102,"Delta":204476995},{"NoteNumber":81,"Velocity":58,"Duration":179619,"SoundDuration":179619,"Delta":204664097},{"NoteNumber":80,"Velocity":75,"Duration":553924,"SoundDuration":553924,"Delta":204843717},{"NoteNumber":68,"Velocity":53,"Duration":732708,"SoundDuration":732708,"Delta":204843717},{"NoteNumber":62,"Velocity":53,"Duration":732708,"SoundDuration":732708,"Delta":204843717},{"NoteNumber":59,"Velocity":53,"Duration":732708,"SoundDuration":732708,"Delta":204843717},{"NoteNumber":71,"Velocity":56,"Duration":180810,"SoundDuration":180810,"Delta":205029729},{"NoteNumber":74,"Velocity":56,"Duration":187102,"SoundDuration":187102,"Delta":205210539},{"NoteNumber":80,"Velocity":56,"Duration":178784,"SoundDuration":178784,"Delta":205397641},{"NoteNumber":78,"Velocity":72,"Duration":552469,"SoundDuration":552469,"Delta":205576425},{"NoteNumber":66,"Velocity":48,"Duration":730258,"SoundDuration":730258,"Delta":205576425},{"NoteNumber":62,"Velocity":48,"Duration":730258,"SoundDuration":730258,"Delta":205576425},{"NoteNumber":56,"Velocity":48,"Duration":730258,"SoundDuration":730258,"Delta":205576425},{"NoteNumber":71,"Velocity":55,"Duration":181501,"SoundDuration":181501,"Delta":205762437},{"NoteNumber":74,"Velocity":55,"Duration":184956,"SoundDuration":184956,"Delta":205943939},{"NoteNumber":78,"Velocity":55,"Duration":177788,"SoundDuration":177788,"Delta":206128895},{"NoteNumber":76,"Velocity":71,"Duration":551803,"SoundDuration":551803,"Delta":206306684},{"NoteNumber":64,"Velocity":47,"Duration":1105608,"SoundDuration":1105608,"Delta":206306684},{"NoteNumber":61,"Velocity":47,"Duration":1105608,"SoundDuration":1105608,"Delta":206306684},{"NoteNumber":57,"Velocity":47,"Duration":1105608,"SoundDuration":1105608,"Delta":206306684},{"NoteNumber":69,"Velocity":52,"Duration":180810,"SoundDuration":180810,"Delta":206493786},{"NoteNumber":73,"Velocity":52,"Duration":183891,"SoundDuration":183891,"Delta":206674596},{"NoteNumber":76,"Velocity":52,"Duration":553804,"SoundDuration":553804,"Delta":206858487},{"NoteNumber":73,"Velocity":52,"Duration":184956,"SoundDuration":184956,"Delta":207042379},{"NoteNumber":40,"Velocity":64,"Duration":1444970,"SoundDuration":1444970,"Delta":207042379},{"NoteNumber":69,"Velocity":52,"Duration":184956,"SoundDuration":184956,"Delta":207227335},{"NoteNumber":73,"Velocity":61,"Duration":180810,"SoundDuration":180810,"Delta":207412292},{"NoteNumber":78,"Velocity":61,"Duration":361619,"SoundDuration":361619,"Delta":207412292},{"NoteNumber":54,"Velocity":49,"Duration":361619,"SoundDuration":361619,"Delta":207412292},{"NoteNumber":69,"Velocity":53,"Duration":180809,"SoundDuration":180809,"Delta":207593102},{"NoteNumber":78,"Velocity":62,"Duration":183891,"SoundDuration":183891,"Delta":207773912},{"NoteNumber":81,"Velocity":62,"Duration":367782,"SoundDuration":367782,"Delta":207773912},{"NoteNumber":57,"Velocity":52,"Duration":367782,"SoundDuration":367782,"Delta":207773912},{"NoteNumber":73,"Velocity":54,"Duration":183891,"SoundDuration":183891,"Delta":207957803},{"NoteNumber":81,"Velocity":64,"Duration":186012,"SoundDuration":186012,"Delta":208141695},{"NoteNumber":85,"Velocity":64,"Duration":345654,"SoundDuration":345654,"Delta":208141695},{"NoteNumber":61,"Velocity":54,"Duration":345654,"SoundDuration":345654,"Delta":208141695},{"NoteNumber":78,"Velocity":54,"Duration":159642,"SoundDuration":159642,"Delta":208327707},{"NoteNumber":64,"Velocity":44,"Duration":186012,"SoundDuration":186012,"Delta":208519278},{"NoteNumber":73,"Velocity":53,"Duration":372024,"SoundDuration":372024,"Delta":208519278},{"NoteNumber":76,"Velocity":53,"Duration":372024,"SoundDuration":372024,"Delta":208519278},{"NoteNumber":38,"Velocity":56,"Duration":2190509,"SoundDuration":2190509,"Delta":208519278},{"NoteNumber":45,"Velocity":56,"Duration":2190509,"SoundDuration":2190509,"Delta":208519278},{"NoteNumber":66,"Velocity":44,"Duration":186012,"SoundDuration":186012,"Delta":208705290},{"NoteNumber":69,"Velocity":44,"Duration":180810,"SoundDuration":180810,"Delta":208891302},{"NoteNumber":73,"Velocity":52,"Duration":331484,"SoundDuration":331484,"Delta":208891302},{"NoteNumber":61,"Velocity":56,"Duration":361619,"SoundDuration":361619,"Delta":208891302},{"NoteNumber":66,"Velocity":44,"Duration":165742,"SoundDuration":165742,"Delta":209072112},{"NoteNumber":69,"Velocity":44,"Duration":181818,"SoundDuration":181818,"Delta":209252922},{"NoteNumber":73,"Velocity":52,"Duration":696969,"SoundDuration":696969,"Delta":209252922},{"NoteNumber":54,"Velocity":48,"Duration":727272,"SoundDuration":727272,"Delta":209252922},{"NoteNumber":57,"Velocity":48,"Duration":727272,"SoundDuration":727272,"Delta":209252922},{"NoteNumber":61,"Velocity":48,"Duration":727272,"SoundDuration":727272,"Delta":209252922},{"NoteNumber":66,"Velocity":44,"Duration":181818,"SoundDuration":181818,"Delta":209434740},{"NoteNumber":69,"Velocity":46,"Duration":181818,"SoundDuration":181818,"Delta":209616558},{"NoteNumber":66,"Velocity":44,"Duration":166666,"SoundDuration":166666,"Delta":209798376},{"NoteNumber":66,"Velocity":44,"Duration":186012,"SoundDuration":186012,"Delta":209980195},{"NoteNumber":69,"Velocity":53,"Duration":372024,"SoundDuration":372024,"Delta":209980195},{"NoteNumber":45,"Velocity":52,"Duration":729592,"SoundDuration":729592,"Delta":209980195},{"NoteNumber":62,"Velocity":44,"Duration":186012,"SoundDuration":186012,"Delta":210166207},{"NoteNumber":69,"Velocity":44,"Duration":178784,"SoundDuration":178784,"Delta":210352219},{"NoteNumber":73,"Velocity":53,"Duration":357568,"SoundDuration":357568,"Delta":210352219},{"NoteNumber":62,"Velocity":44,"Duration":178784,"SoundDuration":178784,"Delta":210531003},{"NoteNumber":68,"Velocity":44,"Duration":181818,"SoundDuration":181818,"Delta":210709787},{"NoteNumber":71,"Velocity":56,"Duration":363636,"SoundDuration":363636,"Delta":210709787},{"NoteNumber":32,"Velocity":53,"Duration":719213,"SoundDuration":719213,"Delta":210709787},{"NoteNumber":44,"Velocity":53,"Duration":719213,"SoundDuration":719213,"Delta":210709787},{"NoteNumber":62,"Velocity":44,"Duration":181818,"SoundDuration":181818,"Delta":210891605},{"NoteNumber":68,"Velocity":44,"Duration":177788,"SoundDuration":177788,"Delta":211073424},{"NoteNumber":71,"Velocity":51,"Duration":177788,"SoundDuration":177788,"Delta":211073424},{"NoteNumber":56,"Velocity":43,"Duration":177788,"SoundDuration":177788,"Delta":211073424},{"NoteNumber":59,"Velocity":43,"Duration":177788,"SoundDuration":177788,"Delta":211073424},{"NoteNumber":65,"Velocity":39,"Duration":177788,"SoundDuration":177788,"Delta":211251212},{"NoteNumber":69,"Velocity":48,"Duration":177788,"SoundDuration":177788,"Delta":211251212},{"NoteNumber":53,"Velocity":36,"Duration":177788,"SoundDuration":177788,"Delta":211251212},{"NoteNumber":57,"Velocity":40,"Duration":177788,"SoundDuration":177788,"Delta":211251212},{"NoteNumber":68,"Velocity":44,"Duration":182837,"SoundDuration":182837,"Delta":211429000},{"NoteNumber":71,"Velocity":51,"Duration":721959,"SoundDuration":721959,"Delta":211429000},{"NoteNumber":50,"Velocity":43,"Duration":721959,"SoundDuration":721959,"Delta":211429000},{"NoteNumber":56,"Velocity":43,"Duration":721959,"SoundDuration":721959,"Delta":211429000},{"NoteNumber":59,"Velocity":43,"Duration":721959,"SoundDuration":721959,"Delta":211429000},{"NoteNumber":62,"Velocity":44,"Duration":182148,"SoundDuration":182148,"Delta":211611838},{"NoteNumber":68,"Velocity":44,"Duration":178486,"SoundDuration":178486,"Delta":211793987},{"NoteNumber":62,"Velocity":44,"Duration":178486,"SoundDuration":178486,"Delta":211972473},{"NoteNumber":68,"Velocity":52,"Duration":369549,"SoundDuration":369549,"Delta":212150960},{"NoteNumber":44,"Velocity":45,"Duration":728529,"SoundDuration":728529,"Delta":212150960},{"NoteNumber":62,"Velocity":44,"Duration":184774,"SoundDuration":184774,"Delta":212335734},{"NoteNumber":71,"Velocity":52,"Duration":358980,"SoundDuration":358980,"Delta":212520509},{"NoteNumber":68,"Velocity":48,"Duration":179490,"SoundDuration":179490,"Delta":212520509},{"NoteNumber":62,"Velocity":44,"Duration":179490,"SoundDuration":179490,"Delta":212699999},{"NoteNumber":64,"Velocity":45,"Duration":183688,"SoundDuration":183688,"Delta":212879489},{"NoteNumber":73,"Velocity":54,"Duration":367377,"SoundDuration":367377,"Delta":212879489},{"NoteNumber":76,"Velocity":54,"Duration":367377,"SoundDuration":367377,"Delta":212879489},{"NoteNumber":38,"Velocity":57,"Duration":728996,"SoundDuration":728996,"Delta":212879489},{"NoteNumber":45,"Velocity":57,"Duration":728996,"SoundDuration":728996,"Delta":212879489},{"NoteNumber":66,"Velocity":45,"Duration":183688,"SoundDuration":183688,"Delta":213063178},{"NoteNumber":69,"Velocity":44,"Duration":180810,"SoundDuration":180810,"Delta":213246866},{"NoteNumber":73,"Velocity":52,"Duration":331484,"SoundDuration":331484,"Delta":213246866},{"NoteNumber":61,"Velocity":56,"Duration":361619,"SoundDuration":361619,"Delta":213246866},{"NoteNumber":66,"Velocity":44,"Duration":165742,"SoundDuration":165742,"Delta":213427676},{"NoteNumber":69,"Velocity":44,"Duration":181818,"SoundDuration":181818,"Delta":213608486},{"NoteNumber":73,"Velocity":52,"Duration":696969,"SoundDuration":696969,"Delta":213608486},{"NoteNumber":54,"Velocity":48,"Duration":727272,"SoundDuration":727272,"Delta":213608486},{"NoteNumber":57,"Velocity":48,"Duration":727272,"SoundDuration":727272,"Delta":213608486},{"NoteNumber":61,"Velocity":48,"Duration":727272,"SoundDuration":727272,"Delta":213608486},{"NoteNumber":66,"Velocity":44,"Duration":181818,"SoundDuration":181818,"Delta":213790304},{"NoteNumber":69,"Velocity":46,"Duration":181818,"SoundDuration":181818,"Delta":213972123},{"NoteNumber":66,"Velocity":44,"Duration":166666,"SoundDuration":166666,"Delta":214153941},{"NoteNumber":69,"Velocity":53,"Duration":372024,"SoundDuration":372024,"Delta":214335759},{"NoteNumber":66,"Velocity":44,"Duration":186012,"SoundDuration":186012,"Delta":214335759},{"NoteNumber":45,"Velocity":52,"Duration":729592,"SoundDuration":729592,"Delta":214335759},{"NoteNumber":62,"Velocity":44,"Duration":186012,"SoundDuration":186012,"Delta":214521771},{"NoteNumber":69,"Velocity":44,"Duration":178784,"SoundDuration":178784,"Delta":214707783},{"NoteNumber":73,"Velocity":53,"Duration":357568,"SoundDuration":357568,"Delta":214707783},{"NoteNumber":62,"Velocity":44,"Duration":178784,"SoundDuration":178784,"Delta":214886567},{"NoteNumber":71,"Velocity":44,"Duration":175479,"SoundDuration":175479,"Delta":215065352},{"NoteNumber":74,"Velocity":56,"Duration":1403838,"SoundDuration":1403838,"Delta":215065352},{"NoteNumber":35,"Velocity":53,"Duration":701919,"SoundDuration":701919,"Delta":215065352},{"NoteNumber":47,"Velocity":53,"Duration":701919,"SoundDuration":701919,"Delta":215065352},{"NoteNumber":66,"Velocity":44,"Duration":175479,"SoundDuration":175479,"Delta":215240831},{"NoteNumber":71,"Velocity":47,"Duration":175479,"SoundDuration":175479,"Delta":215416311},{"NoteNumber":66,"Velocity":43,"Duration":175479,"SoundDuration":175479,"Delta":215591791},{"NoteNumber":71,"Velocity":46,"Duration":175479,"SoundDuration":175479,"Delta":215767271},{"NoteNumber":54,"Velocity":47,"Duration":701919,"SoundDuration":701919,"Delta":215767271},{"NoteNumber":59,"Velocity":47,"Duration":701919,"SoundDuration":701919,"Delta":215767271},{"NoteNumber":62,"Velocity":47,"Duration":701919,"SoundDuration":701919,"Delta":215767271},{"NoteNumber":66,"Velocity":43,"Duration":175479,"SoundDuration":175479,"Delta":215942750},{"NoteNumber":71,"Velocity":46,"Duration":175479,"SoundDuration":175479,"Delta":216118230},{"NoteNumber":66,"Velocity":43,"Duration":175479,"SoundDuration":175479,"Delta":216293710},{"NoteNumber":66,"Velocity":56,"Duration":181576,"SoundDuration":181576,"Delta":216469190},{"NoteNumber":71,"Velocity":56,"Duration":363152,"SoundDuration":363152,"Delta":216469190},{"NoteNumber":45,"Velocity":45,"Duration":732701,"SoundDuration":732701,"Delta":216469190},{"NoteNumber":33,"Velocity":45,"Duration":732701,"SoundDuration":732701,"Delta":216469190},{"NoteNumber":62,"Velocity":47,"Duration":181576,"SoundDuration":181576,"Delta":216650766},{"NoteNumber":71,"Velocity":59,"Duration":184774,"SoundDuration":184774,"Delta":216832342},{"NoteNumber":74,"Velocity":59,"Duration":338753,"SoundDuration":338753,"Delta":216832342},{"NoteNumber":66,"Velocity":51,"Duration":153978,"SoundDuration":153978,"Delta":217017116},{"NoteNumber":74,"Velocity":48,"Duration":179490,"SoundDuration":179490,"Delta":217201891},{"NoteNumber":78,"Velocity":60,"Duration":358980,"SoundDuration":358980,"Delta":217201891},{"NoteNumber":32,"Velocity":57,"Duration":709939,"SoundDuration":709939,"Delta":217201891},{"NoteNumber":44,"Velocity":57,"Duration":709939,"SoundDuration":709939,"Delta":217201891},{"NoteNumber":71,"Velocity":47,"Duration":179490,"SoundDuration":179490,"Delta":217381381},{"NoteNumber":66,"Velocity":45,"Duration":175479,"SoundDuration":175479,"Delta":217560871},{"NoteNumber":74,"Velocity":56,"Duration":321712,"SoundDuration":321712,"Delta":217560871},{"NoteNumber":62,"Velocity":56,"Duration":350959,"SoundDuration":350959,"Delta":217560871},{"NoteNumber":71,"Velocity":47,"Duration":160856,"SoundDuration":160856,"Delta":217736351},{"NoteNumber":74,"Velocity":56,"Duration":688045,"SoundDuration":688045,"Delta":217911831},{"NoteNumber":56,"Velocity":48,"Duration":1447276,"SoundDuration":1447276,"Delta":217911831},{"NoteNumber":59,"Velocity":48,"Duration":1447276,"SoundDuration":1447276,"Delta":217911831},{"NoteNumber":62,"Velocity":48,"Duration":717961,"SoundDuration":717961,"Delta":217911831},{"NoteNumber":71,"Velocity":47,"Duration":179490,"SoundDuration":179490,"Delta":218091321},{"NoteNumber":66,"Velocity":50,"Duration":179490,"SoundDuration":179490,"Delta":218270811},{"NoteNumber":71,"Velocity":47,"Duration":164532,"SoundDuration":164532,"Delta":218450301},{"NoteNumber":73,"Velocity":56,"Duration":185873,"SoundDuration":185873,"Delta":218629792},{"NoteNumber":76,"Velocity":56,"Duration":371746,"SoundDuration":371746,"Delta":218629792},{"NoteNumber":64,"Velocity":47,"Duration":371746,"SoundDuration":371746,"Delta":218629792},{"NoteNumber":61,"Velocity":47,"Duration":371746,"SoundDuration":371746,"Delta":218629792},{"NoteNumber":71,"Velocity":47,"Duration":185873,"SoundDuration":185873,"Delta":218815665},{"NoteNumber":74,"Velocity":57,"Duration":178784,"SoundDuration":178784,"Delta":219001539},{"NoteNumber":78,"Velocity":57,"Duration":357568,"SoundDuration":357568,"Delta":219001539},{"NoteNumber":62,"Velocity":47,"Duration":357568,"SoundDuration":357568,"Delta":219001539},{"NoteNumber":66,"Velocity":47,"Duration":357568,"SoundDuration":357568,"Delta":219001539},{"NoteNumber":71,"Velocity":47,"Duration":178784,"SoundDuration":178784,"Delta":219180323},{"NoteNumber":77,"Velocity":61,"Duration":178784,"SoundDuration":178784,"Delta":219359107},{"NoteNumber":80,"Velocity":61,"Duration":357568,"SoundDuration":357568,"Delta":219359107},{"NoteNumber":37,"Velocity":53,"Duration":706608,"SoundDuration":706608,"Delta":219359107},{"NoteNumber":49,"Velocity":53,"Duration":706608,"SoundDuration":706608,"Delta":219359107},{"NoteNumber":71,"Velocity":57,"Duration":527824,"SoundDuration":527824,"Delta":219537891},{"NoteNumber":77,"Velocity":57,"Duration":174520,"SoundDuration":174520,"Delta":219716676},{"NoteNumber":80,"Velocity":57,"Duration":174520,"SoundDuration":174520,"Delta":219716676},{"NoteNumber":65,"Velocity":51,"Duration":174520,"SoundDuration":174520,"Delta":219716676},{"NoteNumber":68,"Velocity":51,"Duration":174520,"SoundDuration":174520,"Delta":219716676},{"NoteNumber":75,"Velocity":57,"Duration":174520,"SoundDuration":174520,"Delta":219891196},{"NoteNumber":78,"Velocity":57,"Duration":174520,"SoundDuration":174520,"Delta":219891196},{"NoteNumber":63,"Velocity":51,"Duration":174520,"SoundDuration":174520,"Delta":219891196},{"NoteNumber":66,"Velocity":51,"Duration":174520,"SoundDuration":174520,"Delta":219891196},{"NoteNumber":77,"Velocity":55,"Duration":177472,"SoundDuration":177472,"Delta":220065716},{"NoteNumber":80,"Velocity":60,"Duration":325366,"SoundDuration":325366,"Delta":220065716},{"NoteNumber":59,"Velocity":53,"Duration":1442467,"SoundDuration":1442467,"Delta":220065716},{"NoteNumber":65,"Velocity":54,"Duration":325366,"SoundDuration":325366,"Delta":220065716},{"NoteNumber":68,"Velocity":54,"Duration":325366,"SoundDuration":325366,"Delta":220065716},{"NoteNumber":71,"Velocity":50,"Duration":147893,"SoundDuration":147893,"Delta":220243188},{"NoteNumber":73,"Velocity":55,"Duration":182637,"SoundDuration":182637,"Delta":220420661},{"NoteNumber":77,"Velocity":61,"Duration":365274,"SoundDuration":365274,"Delta":220420661},{"NoteNumber":61,"Velocity":54,"Duration":365274,"SoundDuration":365274,"Delta":220420661},{"NoteNumber":65,"Velocity":54,"Duration":365274,"SoundDuration":365274,"Delta":220420661},{"NoteNumber":71,"Velocity":50,"Duration":182637,"SoundDuration":182637,"Delta":220603298},{"NoteNumber":75,"Velocity":58,"Duration":182637,"SoundDuration":182637,"Delta":220785936},{"NoteNumber":78,"Velocity":65,"Duration":365274,"SoundDuration":365274,"Delta":220785936},{"NoteNumber":63,"Velocity":58,"Duration":365274,"SoundDuration":365274,"Delta":220785936},{"NoteNumber":66,"Velocity":58,"Duration":365274,"SoundDuration":365274,"Delta":220785936},{"NoteNumber":71,"Velocity":50,"Duration":182637,"SoundDuration":182637,"Delta":220968573},{"NoteNumber":77,"Velocity":58,"Duration":178486,"SoundDuration":178486,"Delta":221151210},{"NoteNumber":80,"Velocity":69,"Duration":356973,"SoundDuration":356973,"Delta":221151210},{"NoteNumber":65,"Velocity":62,"Duration":356973,"SoundDuration":356973,"Delta":221151210},{"NoteNumber":68,"Velocity":62,"Duration":356973,"SoundDuration":356973,"Delta":221151210},{"NoteNumber":71,"Velocity":50,"Duration":178486,"SoundDuration":178486,"Delta":221329697},{"NoteNumber":78,"Velocity":59,"Duration":179490,"SoundDuration":179490,"Delta":221508183},{"NoteNumber":81,"Velocity":74,"Duration":358980,"SoundDuration":358980,"Delta":221508183},{"NoteNumber":42,"Velocity":74,"Duration":714987,"SoundDuration":714987,"Delta":221508183},{"NoteNumber":49,"Velocity":74,"Duration":714987,"SoundDuration":714987,"Delta":221508183},{"NoteNumber":73,"Velocity":51,"Duration":179490,"SoundDuration":179490,"Delta":221687673},{"NoteNumber":73,"Velocity":50,"Duration":175479,"SoundDuration":175479,"Delta":221867164},{"NoteNumber":78,"Velocity":73,"Duration":325919,"SoundDuration":325919,"Delta":221867164},{"NoteNumber":66,"Velocity":73,"Duration":356007,"SoundDuration":356007,"Delta":221867164},{"NoteNumber":69,"Velocity":51,"Duration":165483,"SoundDuration":165483,"Delta":222042643},{"NoteNumber":73,"Velocity":56,"Duration":179490,"SoundDuration":179490,"Delta":222223171},{"NoteNumber":78,"Velocity":73,"Duration":688045,"SoundDuration":688045,"Delta":222223171},{"NoteNumber":57,"Velocity":71,"Duration":717961,"SoundDuration":717961,"Delta":222223171},{"NoteNumber":61,"Velocity":71,"Duration":717961,"SoundDuration":717961,"Delta":222223171},{"NoteNumber":66,"Velocity":71,"Duration":717961,"SoundDuration":717961,"Delta":222223171},{"NoteNumber":69,"Velocity":51,"Duration":179490,"SoundDuration":179490,"Delta":222402661},{"NoteNumber":73,"Velocity":56,"Duration":179490,"SoundDuration":179490,"Delta":222582151},{"NoteNumber":69,"Velocity":51,"Duration":164532,"SoundDuration":164532,"Delta":222761641},{"NoteNumber":78,"Velocity":78,"Duration":185873,"SoundDuration":185873,"Delta":222941132},{"NoteNumber":81,"Velocity":78,"Duration":371746,"SoundDuration":371746,"Delta":222941132},{"NoteNumber":54,"Velocity":66,"Duration":761965,"SoundDuration":761965,"Delta":222941132},{"NoteNumber":57,"Velocity":66,"Duration":761965,"SoundDuration":761965,"Delta":222941132},{"NoteNumber":61,"Velocity":66,"Duration":761965,"SoundDuration":761965,"Delta":222941132},{"NoteNumber":73,"Velocity":65,"Duration":185873,"SoundDuration":185873,"Delta":223127005},{"NoteNumber":81,"Velocity":79,"Duration":195109,"SoundDuration":195109,"Delta":223312879},{"NoteNumber":85,"Velocity":79,"Duration":390218,"SoundDuration":390218,"Delta":223312879},{"NoteNumber":78,"Velocity":65,"Duration":195109,"SoundDuration":195109,"Delta":223507988},{"NoteNumber":86,"Velocity":89,"Duration":2893007,"SoundDuration":2893007,"Delta":223703097},{"NoteNumber":78,"Velocity":63,"Duration":185873,"SoundDuration":185873,"Delta":223703097},{"NoteNumber":81,"Velocity":63,"Duration":185873,"SoundDuration":185873,"Delta":223703097},{"NoteNumber":38,"Velocity":74,"Duration":2175046,"SoundDuration":2175046,"Delta":223703097},{"NoteNumber":45,"Velocity":74,"Duration":2175046,"SoundDuration":2175046,"Delta":223703097},{"NoteNumber":74,"Velocity":45,"Duration":185873,"SoundDuration":185873,"Delta":223888971},{"NoteNumber":78,"Velocity":45,"Duration":179490,"SoundDuration":179490,"Delta":224074844},{"NoteNumber":81,"Velocity":45,"Duration":179490,"SoundDuration":179490,"Delta":224074844},{"NoteNumber":50,"Velocity":57,"Duration":358980,"SoundDuration":358980,"Delta":224074844},{"NoteNumber":54,"Velocity":57,"Duration":358980,"SoundDuration":358980,"Delta":224074844},{"NoteNumber":57,"Velocity":57,"Duration":358980,"SoundDuration":358980,"Delta":224074844},{"NoteNumber":74,"Velocity":46,"Duration":179490,"SoundDuration":179490,"Delta":224254334},{"NoteNumber":78,"Velocity":47,"Duration":179490,"SoundDuration":179490,"Delta":224433825},{"NoteNumber":81,"Velocity":47,"Duration":179490,"SoundDuration":179490,"Delta":224433825},{"NoteNumber":54,"Velocity":57,"Duration":717961,"SoundDuration":717961,"Delta":224433825},{"NoteNumber":57,"Velocity":57,"Duration":717961,"SoundDuration":717961,"Delta":224433825},{"NoteNumber":62,"Velocity":57,"Duration":717961,"SoundDuration":717961,"Delta":224433825},{"NoteNumber":74,"Velocity":48,"Duration":179490,"SoundDuration":179490,"Delta":224613315},{"NoteNumber":81,"Velocity":48,"Duration":179490,"SoundDuration":179490,"Delta":224792805},{"NoteNumber":78,"Velocity":48,"Duration":179490,"SoundDuration":179490,"Delta":224792805},{"NoteNumber":74,"Velocity":48,"Duration":179490,"SoundDuration":179490,"Delta":224972295},{"NoteNumber":81,"Velocity":49,"Duration":179490,"SoundDuration":179490,"Delta":225151786},{"NoteNumber":78,"Velocity":49,"Duration":179490,"SoundDuration":179490,"Delta":225151786},{"NoteNumber":66,"Velocity":60,"Duration":358980,"SoundDuration":358980,"Delta":225151786},{"NoteNumber":62,"Velocity":60,"Duration":358980,"SoundDuration":358980,"Delta":225151786},{"NoteNumber":57,"Velocity":60,"Duration":358980,"SoundDuration":358980,"Delta":225151786},{"NoteNumber":74,"Velocity":50,"Duration":179490,"SoundDuration":179490,"Delta":225331276},{"NoteNumber":78,"Velocity":50,"Duration":183688,"SoundDuration":183688,"Delta":225510766},{"NoteNumber":81,"Velocity":50,"Duration":183688,"SoundDuration":183688,"Delta":225510766},{"NoteNumber":69,"Velocity":59,"Duration":367377,"SoundDuration":367377,"Delta":225510766},{"NoteNumber":66,"Velocity":59,"Duration":367377,"SoundDuration":367377,"Delta":225510766},{"NoteNumber":62,"Velocity":59,"Duration":367377,"SoundDuration":367377,"Delta":225510766},{"NoteNumber":74,"Velocity":51,"Duration":183688,"SoundDuration":183688,"Delta":225694455},{"NoteNumber":78,"Velocity":46,"Duration":179490,"SoundDuration":179490,"Delta":225878143},{"NoteNumber":81,"Velocity":46,"Duration":179490,"SoundDuration":179490,"Delta":225878143},{"NoteNumber":62,"Velocity":64,"Duration":2174824,"SoundDuration":2174824,"Delta":225878143},{"NoteNumber":66,"Velocity":64,"Duration":2174824,"SoundDuration":2174824,"Delta":225878143},{"NoteNumber":69,"Velocity":64,"Duration":2174824,"SoundDuration":2174824,"Delta":225878143},{"NoteNumber":74,"Velocity":43,"Duration":179490,"SoundDuration":179490,"Delta":226057633},{"NoteNumber":78,"Velocity":48,"Duration":179490,"SoundDuration":179490,"Delta":226237124},{"NoteNumber":81,"Velocity":48,"Duration":179490,"SoundDuration":179490,"Delta":226237124},{"NoteNumber":74,"Velocity":43,"Duration":179490,"SoundDuration":179490,"Delta":226416614},{"NoteNumber":81,"Velocity":41,"Duration":180527,"SoundDuration":180527,"Delta":226596104},{"NoteNumber":86,"Velocity":41,"Duration":180527,"SoundDuration":180527,"Delta":226596104},{"NoteNumber":88,"Velocity":59,"Duration":722108,"SoundDuration":722108,"Delta":226596104},{"NoteNumber":76,"Velocity":37,"Duration":180527,"SoundDuration":180527,"Delta":226776631},{"NoteNumber":81,"Velocity":43,"Duration":180527,"SoundDuration":180527,"Delta":226957159},{"NoteNumber":86,"Velocity":43,"Duration":180527,"SoundDuration":180527,"Delta":226957159},{"NoteNumber":76,"Velocity":40,"Duration":180527,"SoundDuration":180527,"Delta":227137686},{"NoteNumber":81,"Velocity":45,"Duration":183688,"SoundDuration":183688,"Delta":227318213},{"NoteNumber":86,"Velocity":45,"Duration":183688,"SoundDuration":183688,"Delta":227318213},{"NoteNumber":90,"Velocity":67,"Duration":734754,"SoundDuration":734754,"Delta":227318213},{"NoteNumber":78,"Velocity":42,"Duration":183688,"SoundDuration":183688,"Delta":227501902},{"NoteNumber":86,"Velocity":48,"Duration":183688,"SoundDuration":183688,"Delta":227685590},{"NoteNumber":81,"Velocity":48,"Duration":183688,"SoundDuration":183688,"Delta":227685590},{"NoteNumber":78,"Velocity":44,"Duration":183688,"SoundDuration":183688,"Delta":227869279},{"NoteNumber":81,"Velocity":42,"Duration":186985,"SoundDuration":186985,"Delta":228052967},{"NoteNumber":86,"Velocity":42,"Duration":186985,"SoundDuration":186985,"Delta":228052967},{"NoteNumber":90,"Velocity":69,"Duration":2927192,"SoundDuration":2927192,"Delta":228052967},{"NoteNumber":35,"Velocity":52,"Duration":2196643,"SoundDuration":2196643,"Delta":228052967},{"NoteNumber":47,"Velocity":52,"Duration":2196643,"SoundDuration":2196643,"Delta":228052967},{"NoteNumber":78,"Velocity":38,"Duration":186985,"SoundDuration":186985,"Delta":228239953},{"NoteNumber":81,"Velocity":42,"Duration":180527,"SoundDuration":180527,"Delta":228426939},{"NoteNumber":86,"Velocity":42,"Duration":180527,"SoundDuration":180527,"Delta":228426939},{"NoteNumber":50,"Velocity":45,"Duration":361054,"SoundDuration":361054,"Delta":228426939},{"NoteNumber":57,"Velocity":45,"Duration":361054,"SoundDuration":361054,"Delta":228426939},{"NoteNumber":54,"Velocity":45,"Duration":361054,"SoundDuration":361054,"Delta":228426939},{"NoteNumber":78,"Velocity":37,"Duration":180527,"SoundDuration":180527,"Delta":228607466},{"NoteNumber":81,"Velocity":39,"Duration":180527,"SoundDuration":180527,"Delta":228787993},{"NoteNumber":86,"Velocity":39,"Duration":180527,"SoundDuration":180527,"Delta":228787993},{"NoteNumber":54,"Velocity":44,"Duration":722109,"SoundDuration":722109,"Delta":228787993},{"NoteNumber":57,"Velocity":44,"Duration":722109,"SoundDuration":722109,"Delta":228787993},{"NoteNumber":62,"Velocity":44,"Duration":722109,"SoundDuration":722109,"Delta":228787993},{"NoteNumber":78,"Velocity":36,"Duration":180527,"SoundDuration":180527,"Delta":228968520},{"NoteNumber":81,"Velocity":38,"Duration":180527,"SoundDuration":180527,"Delta":229149048},{"NoteNumber":86,"Velocity":38,"Duration":180527,"SoundDuration":180527,"Delta":229149048},{"NoteNumber":78,"Velocity":34,"Duration":180527,"SoundDuration":180527,"Delta":229329575},{"NoteNumber":81,"Velocity":36,"Duration":180527,"SoundDuration":180527,"Delta":229510102},{"NoteNumber":86,"Velocity":36,"Duration":180527,"SoundDuration":180527,"Delta":229510102},{"NoteNumber":66,"Velocity":44,"Duration":361054,"SoundDuration":361054,"Delta":229510102},{"NoteNumber":62,"Velocity":44,"Duration":361054,"SoundDuration":361054,"Delta":229510102},{"NoteNumber":57,"Velocity":44,"Duration":361054,"SoundDuration":361054,"Delta":229510102},{"NoteNumber":78,"Velocity":32,"Duration":180527,"SoundDuration":180527,"Delta":229690629},{"NoteNumber":81,"Velocity":34,"Duration":189226,"SoundDuration":189226,"Delta":229871157},{"NoteNumber":86,"Velocity":34,"Duration":189226,"SoundDuration":189226,"Delta":229871157},{"NoteNumber":69,"Velocity":41,"Duration":378453,"SoundDuration":378453,"Delta":229871157},{"NoteNumber":66,"Velocity":41,"Duration":378453,"SoundDuration":378453,"Delta":229871157},{"NoteNumber":62,"Velocity":41,"Duration":378453,"SoundDuration":378453,"Delta":229871157},{"NoteNumber":78,"Velocity":31,"Duration":189226,"SoundDuration":189226,"Delta":230060383},{"NoteNumber":86,"Velocity":35,"Duration":182637,"SoundDuration":182637,"Delta":230249610},{"NoteNumber":81,"Velocity":35,"Duration":182637,"SoundDuration":182637,"Delta":230249610},{"NoteNumber":69,"Velocity":41,"Duration":730548,"SoundDuration":730548,"Delta":230249610},{"NoteNumber":66,"Velocity":41,"Duration":730548,"SoundDuration":730548,"Delta":230249610},{"NoteNumber":62,"Velocity":41,"Duration":730548,"SoundDuration":730548,"Delta":230249610},{"NoteNumber":78,"Velocity":34,"Duration":182637,"SoundDuration":182637,"Delta":230432247},{"NoteNumber":86,"Velocity":33,"Duration":182637,"SoundDuration":182637,"Delta":230614885},{"NoteNumber":81,"Velocity":33,"Duration":182637,"SoundDuration":182637,"Delta":230614885},{"NoteNumber":78,"Velocity":34,"Duration":182637,"SoundDuration":182637,"Delta":230797522},{"NoteNumber":86,"Velocity":49,"Duration":730548,"SoundDuration":730548,"Delta":230980159},{"NoteNumber":78,"Velocity":33,"Duration":182637,"SoundDuration":182637,"Delta":230980159},{"NoteNumber":81,"Velocity":33,"Duration":182637,"SoundDuration":182637,"Delta":230980159},{"NoteNumber":74,"Velocity":30,"Duration":182637,"SoundDuration":182637,"Delta":231162796},{"NoteNumber":78,"Velocity":28,"Duration":182637,"SoundDuration":182637,"Delta":231345434},{"NoteNumber":81,"Velocity":28,"Duration":182637,"SoundDuration":182637,"Delta":231345434},{"NoteNumber":74,"Velocity":30,"Duration":182637,"SoundDuration":182637,"Delta":231528071},{"NoteNumber":90,"Velocity":52,"Duration":768079,"SoundDuration":768079,"Delta":231710708},{"NoteNumber":83,"Velocity":33,"Duration":182637,"SoundDuration":182637,"Delta":231710708},{"NoteNumber":86,"Velocity":33,"Duration":182637,"SoundDuration":182637,"Delta":231710708},{"NoteNumber":71,"Velocity":35,"Duration":182637,"SoundDuration":182637,"Delta":231710708},{"NoteNumber":66,"Velocity":35,"Duration":182637,"SoundDuration":182637,"Delta":231710708},{"NoteNumber":62,"Velocity":35,"Duration":182637,"SoundDuration":182637,"Delta":231710708},{"NoteNumber":59,"Velocity":35,"Duration":182637,"SoundDuration":182637,"Delta":231710708},{"NoteNumber":78,"Velocity":30,"Duration":182637,"SoundDuration":182637,"Delta":231893345},{"NoteNumber":83,"Velocity":28,"Duration":182637,"SoundDuration":182637,"Delta":232075983},{"NoteNumber":86,"Velocity":28,"Duration":182637,"SoundDuration":182637,"Delta":232075983},{"NoteNumber":78,"Velocity":30,"Duration":220167,"SoundDuration":220167,"Delta":232258620},{"NoteNumber":93,"Velocity":41,"Duration":136149,"SoundDuration":136149,"Delta":232478787},{"NoteNumber":88,"Velocity":41,"Duration":136149,"SoundDuration":136149,"Delta":232478787},{"NoteNumber":81,"Velocity":41,"Duration":136149,"SoundDuration":136149,"Delta":232478787},{"NoteNumber":33,"Velocity":38,"Duration":136149,"SoundDuration":136149,"Delta":232478787},{"NoteNumber":40,"Velocity":38,"Duration":136149,"SoundDuration":136149,"Delta":232478787},{"NoteNumber":45,"Velocity":38,"Duration":136149,"SoundDuration":136149,"Delta":232478787},{"NoteNumber":64,"Velocity":33,"Duration":162760,"SoundDuration":162760,"Delta":232841852},{"NoteNumber":69,"Velocity":33,"Duration":162760,"SoundDuration":162760,"Delta":232841852},{"NoteNumber":60,"Velocity":34,"Duration":162760,"SoundDuration":162760,"Delta":232841852},{"NoteNumber":57,"Velocity":34,"Duration":162760,"SoundDuration":162760,"Delta":232841852},{"NoteNumber":62,"Velocity":33,"Duration":178486,"SoundDuration":178486,"Delta":233004612},{"NoteNumber":52,"Velocity":34,"Duration":178486,"SoundDuration":178486,"Delta":233004612},{"NoteNumber":59,"Velocity":34,"Duration":178486,"SoundDuration":178486,"Delta":233004612},{"NoteNumber":69,"Velocity":37,"Duration":45922,"SoundDuration":45922,"Delta":233183099},{"NoteNumber":64,"Velocity":37,"Duration":45922,"SoundDuration":45922,"Delta":233183099},{"NoteNumber":60,"Velocity":37,"Duration":45922,"SoundDuration":45922,"Delta":233183099},{"NoteNumber":57,"Velocity":37,"Duration":45922,"SoundDuration":45922,"Delta":233183099},{"NoteNumber":64,"Velocity":33,"Duration":91844,"SoundDuration":91844,"Delta":233550476},{"NoteNumber":69,"Velocity":33,"Duration":91844,"SoundDuration":91844,"Delta":233550476},{"NoteNumber":60,"Velocity":33,"Duration":91844,"SoundDuration":91844,"Delta":233550476},{"NoteNumber":57,"Velocity":33,"Duration":91844,"SoundDuration":91844,"Delta":233550476},{"NoteNumber":83,"Velocity":34,"Duration":90263,"SoundDuration":90263,"Delta":234278907},{"NoteNumber":79,"Velocity":34,"Duration":90263,"SoundDuration":90263,"Delta":234278907},{"NoteNumber":71,"Velocity":34,"Duration":90263,"SoundDuration":90263,"Delta":234278907},{"NoteNumber":43,"Velocity":33,"Duration":90263,"SoundDuration":90263,"Delta":234278907},{"NoteNumber":50,"Velocity":33,"Duration":90263,"SoundDuration":90263,"Delta":234278907},{"NoteNumber":55,"Velocity":33,"Duration":90263,"SoundDuration":90263,"Delta":234278907},{"NoteNumber":84,"Velocity":41,"Duration":92387,"SoundDuration":92387,"Delta":234639962},{"NoteNumber":79,"Velocity":41,"Duration":92387,"SoundDuration":92387,"Delta":234639962},{"NoteNumber":72,"Velocity":41,"Duration":92387,"SoundDuration":92387,"Delta":234639962},{"NoteNumber":36,"Velocity":36,"Duration":92387,"SoundDuration":92387,"Delta":234639962},{"NoteNumber":43,"Velocity":36,"Duration":92387,"SoundDuration":92387,"Delta":234639962},{"NoteNumber":48,"Velocity":36,"Duration":92387,"SoundDuration":92387,"Delta":234639962},{"NoteNumber":67,"Velocity":33,"Duration":162760,"SoundDuration":162760,"Delta":235009511},{"NoteNumber":72,"Velocity":33,"Duration":162760,"SoundDuration":162760,"Delta":235009511},{"NoteNumber":64,"Velocity":34,"Duration":162760,"SoundDuration":162760,"Delta":235009511},{"NoteNumber":60,"Velocity":34,"Duration":162760,"SoundDuration":162760,"Delta":235009511},{"NoteNumber":65,"Velocity":33,"Duration":178486,"SoundDuration":178486,"Delta":235172271},{"NoteNumber":55,"Velocity":34,"Duration":178486,"SoundDuration":178486,"Delta":235172271},{"NoteNumber":62,"Velocity":34,"Duration":178486,"SoundDuration":178486,"Delta":235172271},{"NoteNumber":67,"Velocity":36,"Duration":45922,"SoundDuration":45922,"Delta":235350758},{"NoteNumber":72,"Velocity":36,"Duration":45922,"SoundDuration":45922,"Delta":235350758},{"NoteNumber":60,"Velocity":36,"Duration":45922,"SoundDuration":45922,"Delta":235350758},{"NoteNumber":64,"Velocity":36,"Duration":45922,"SoundDuration":45922,"Delta":235350758},{"NoteNumber":67,"Velocity":33,"Duration":91844,"SoundDuration":91844,"Delta":235718135},{"NoteNumber":72,"Velocity":33,"Duration":91844,"SoundDuration":91844,"Delta":235718135},{"NoteNumber":60,"Velocity":33,"Duration":91844,"SoundDuration":91844,"Delta":235718135},{"NoteNumber":64,"Velocity":33,"Duration":91844,"SoundDuration":91844,"Delta":235718135},{"NoteNumber":83,"Velocity":34,"Duration":89745,"SoundDuration":89745,"Delta":236444492},{"NoteNumber":79,"Velocity":34,"Duration":89745,"SoundDuration":89745,"Delta":236444492},{"NoteNumber":71,"Velocity":34,"Duration":89745,"SoundDuration":89745,"Delta":236444492},{"NoteNumber":43,"Velocity":33,"Duration":89745,"SoundDuration":89745,"Delta":236444492},{"NoteNumber":50,"Velocity":33,"Duration":89745,"SoundDuration":89745,"Delta":236444492},{"NoteNumber":55,"Velocity":33,"Duration":89745,"SoundDuration":89745,"Delta":236444492},{"NoteNumber":81,"Velocity":40,"Duration":92387,"SoundDuration":92387,"Delta":236803473},{"NoteNumber":76,"Velocity":40,"Duration":92387,"SoundDuration":92387,"Delta":236803473},{"NoteNumber":69,"Velocity":40,"Duration":92387,"SoundDuration":92387,"Delta":236803473},{"NoteNumber":45,"Velocity":35,"Duration":92387,"SoundDuration":92387,"Delta":236803473},{"NoteNumber":52,"Velocity":35,"Duration":92387,"SoundDuration":92387,"Delta":236803473},{"NoteNumber":57,"Velocity":35,"Duration":92387,"SoundDuration":92387,"Delta":236803473},{"NoteNumber":64,"Velocity":33,"Duration":162760,"SoundDuration":162760,"Delta":237173022},{"NoteNumber":69,"Velocity":33,"Duration":162760,"SoundDuration":162760,"Delta":237173022},{"NoteNumber":57,"Velocity":34,"Duration":162760,"SoundDuration":162760,"Delta":237173022},{"NoteNumber":60,"Velocity":34,"Duration":162760,"SoundDuration":162760,"Delta":237173022},{"NoteNumber":64,"Velocity":33,"Duration":178486,"SoundDuration":178486,"Delta":237335782},{"NoteNumber":52,"Velocity":34,"Duration":178486,"SoundDuration":178486,"Delta":237335782},{"NoteNumber":59,"Velocity":34,"Duration":178486,"SoundDuration":178486,"Delta":237335782},{"NoteNumber":64,"Velocity":36,"Duration":45922,"SoundDuration":45922,"Delta":237514269},{"NoteNumber":69,"Velocity":36,"Duration":45922,"SoundDuration":45922,"Delta":237514269},{"NoteNumber":60,"Velocity":36,"Duration":45922,"SoundDuration":45922,"Delta":237514269},{"NoteNumber":57,"Velocity":36,"Duration":45922,"SoundDuration":45922,"Delta":237514269},{"NoteNumber":64,"Velocity":32,"Duration":91844,"SoundDuration":91844,"Delta":237881646},{"NoteNumber":69,"Velocity":32,"Duration":91844,"SoundDuration":91844,"Delta":237881646},{"NoteNumber":60,"Velocity":32,"Duration":91844,"SoundDuration":91844,"Delta":237881646},{"NoteNumber":57,"Velocity":32,"Duration":91844,"SoundDuration":91844,"Delta":237881646},{"NoteNumber":83,"Velocity":37,"Duration":90263,"SoundDuration":90263,"Delta":238610077},{"NoteNumber":79,"Velocity":37,"Duration":90263,"SoundDuration":90263,"Delta":238610077},{"NoteNumber":71,"Velocity":37,"Duration":90263,"SoundDuration":90263,"Delta":238610077},{"NoteNumber":43,"Velocity":32,"Duration":90263,"SoundDuration":90263,"Delta":238610077},{"NoteNumber":50,"Velocity":32,"Duration":90263,"SoundDuration":90263,"Delta":238610077},{"NoteNumber":55,"Velocity":32,"Duration":90263,"SoundDuration":90263,"Delta":238610077},{"NoteNumber":84,"Velocity":41,"Duration":92387,"SoundDuration":92387,"Delta":238971132},{"NoteNumber":79,"Velocity":41,"Duration":92387,"SoundDuration":92387,"Delta":238971132},{"NoteNumber":72,"Velocity":41,"Duration":92387,"SoundDuration":92387,"Delta":238971132},{"NoteNumber":36,"Velocity":37,"Duration":92387,"SoundDuration":92387,"Delta":238971132},{"NoteNumber":43,"Velocity":37,"Duration":92387,"SoundDuration":92387,"Delta":238971132},{"NoteNumber":48,"Velocity":37,"Duration":92387,"SoundDuration":92387,"Delta":238971132},{"NoteNumber":67,"Velocity":32,"Duration":162760,"SoundDuration":162760,"Delta":239340681},{"NoteNumber":72,"Velocity":32,"Duration":162760,"SoundDuration":162760,"Delta":239340681},{"NoteNumber":64,"Velocity":33,"Duration":162760,"SoundDuration":162760,"Delta":239340681},{"NoteNumber":60,"Velocity":33,"Duration":162760,"SoundDuration":162760,"Delta":239340681},{"NoteNumber":65,"Velocity":32,"Duration":178486,"SoundDuration":178486,"Delta":239503441},{"NoteNumber":55,"Velocity":33,"Duration":178486,"SoundDuration":178486,"Delta":239503441},{"NoteNumber":62,"Velocity":33,"Duration":178486,"SoundDuration":178486,"Delta":239503441},{"NoteNumber":67,"Velocity":35,"Duration":45922,"SoundDuration":45922,"Delta":239681928},{"NoteNumber":72,"Velocity":35,"Duration":45922,"SoundDuration":45922,"Delta":239681928},{"NoteNumber":60,"Velocity":35,"Duration":45922,"SoundDuration":45922,"Delta":239681928},{"NoteNumber":64,"Velocity":35,"Duration":45922,"SoundDuration":45922,"Delta":239681928},{"NoteNumber":67,"Velocity":32,"Duration":91844,"SoundDuration":91844,"Delta":240049305},{"NoteNumber":72,"Velocity":32,"Duration":91844,"SoundDuration":91844,"Delta":240049305},{"NoteNumber":60,"Velocity":32,"Duration":91844,"SoundDuration":91844,"Delta":240049305},{"NoteNumber":64,"Velocity":32,"Duration":91844,"SoundDuration":91844,"Delta":240049305},{"NoteNumber":83,"Velocity":33,"Duration":101337,"SoundDuration":101337,"Delta":240790653},{"NoteNumber":79,"Velocity":33,"Duration":101337,"SoundDuration":101337,"Delta":240790653},{"NoteNumber":71,"Velocity":33,"Duration":101337,"SoundDuration":101337,"Delta":240790653},{"NoteNumber":64,"Velocity":32,"Duration":101337,"SoundDuration":101337,"Delta":240790653},{"NoteNumber":59,"Velocity":32,"Duration":101337,"SoundDuration":101337,"Delta":240790653},{"NoteNumber":52,"Velocity":32,"Duration":101337,"SoundDuration":101337,"Delta":240790653},{"NoteNumber":71,"Velocity":35,"Duration":96949,"SoundDuration":96949,"Delta":241196004},{"NoteNumber":79,"Velocity":35,"Duration":96949,"SoundDuration":96949,"Delta":241196004},{"NoteNumber":83,"Velocity":35,"Duration":96949,"SoundDuration":96949,"Delta":241196004},{"NoteNumber":52,"Velocity":34,"Duration":96949,"SoundDuration":96949,"Delta":241196004},{"NoteNumber":59,"Velocity":34,"Duration":96949,"SoundDuration":96949,"Delta":241196004},{"NoteNumber":64,"Velocity":34,"Duration":96949,"SoundDuration":96949,"Delta":241196004},{"NoteNumber":40,"Velocity":40,"Duration":407941,"SoundDuration":407941,"Delta":241971599},{"NoteNumber":52,"Velocity":44,"Duration":407941,"SoundDuration":407941,"Delta":242787482},{"NoteNumber":64,"Velocity":51,"Duration":892896,"SoundDuration":892896,"Delta":243603365},{"NoteNumber":36,"Velocity":38,"Duration":432021,"SoundDuration":432021,"Delta":244424608},{"NoteNumber":65,"Velocity":33,"Duration":71653,"SoundDuration":71653,"Delta":244496261},{"NoteNumber":67,"Velocity":33,"Duration":71886,"SoundDuration":71886,"Delta":244567915},{"NoteNumber":69,"Velocity":33,"Duration":72118,"SoundDuration":72118,"Delta":244639801},{"NoteNumber":71,"Velocity":33,"Duration":72118,"SoundDuration":72118,"Delta":244711920},{"NoteNumber":72,"Velocity":33,"Duration":72589,"SoundDuration":72589,"Delta":244784039},{"NoteNumber":74,"Velocity":33,"Duration":72590,"SoundDuration":72590,"Delta":244856629},{"NoteNumber":76,"Velocity":33,"Duration":72834,"SoundDuration":72834,"Delta":244929219},{"NoteNumber":77,"Velocity":33,"Duration":73078,"SoundDuration":73078,"Delta":245002053},{"NoteNumber":79,"Velocity":33,"Duration":73078,"SoundDuration":73078,"Delta":245075131},{"NoteNumber":81,"Velocity":33,"Duration":73551,"SoundDuration":73551,"Delta":245148209},{"NoteNumber":83,"Velocity":33,"Duration":73551,"SoundDuration":73551,"Delta":245221760},{"NoteNumber":84,"Velocity":33,"Duration":73643,"SoundDuration":73643,"Delta":245295311},{"NoteNumber":35,"Velocity":36,"Duration":453703,"SoundDuration":453703,"Delta":245295311},{"NoteNumber":86,"Velocity":33,"Duration":73998,"SoundDuration":73998,"Delta":245368955},{"NoteNumber":88,"Velocity":33,"Duration":75064,"SoundDuration":75064,"Delta":245442953},{"NoteNumber":89,"Velocity":33,"Duration":76150,"SoundDuration":76150,"Delta":245518018},{"NoteNumber":91,"Velocity":33,"Duration":76994,"SoundDuration":76994,"Delta":245594169},{"NoteNumber":93,"Velocity":33,"Duration":77852,"SoundDuration":77852,"Delta":245671163},{"NoteNumber":95,"Velocity":33,"Duration":79027,"SoundDuration":79027,"Delta":245749015},{"NoteNumber":96,"Velocity":33,"Duration":80238,"SoundDuration":80238,"Delta":245828043},{"NoteNumber":98,"Velocity":33,"Duration":80855,"SoundDuration":80855,"Delta":245908281},{"NoteNumber":100,"Velocity":33,"Duration":82130,"SoundDuration":82130,"Delta":245989136},{"NoteNumber":101,"Velocity":33,"Duration":83432,"SoundDuration":83432,"Delta":246071266},{"NoteNumber":103,"Velocity":33,"Duration":84790,"SoundDuration":84790,"Delta":246154698},{"NoteNumber":105,"Velocity":38,"Duration":408044,"SoundDuration":408044,"Delta":246239489},{"NoteNumber":33,"Velocity":36,"Duration":408044,"SoundDuration":408044,"Delta":246239489},{"NoteNumber":57,"Velocity":27,"Duration":203970,"SoundDuration":203970,"Delta":248687241},{"NoteNumber":33,"Velocity":24,"Duration":203970,"SoundDuration":203970,"Delta":248687241},{"NoteNumber":45,"Velocity":24,"Duration":203970,"SoundDuration":203970,"Delta":248687241}],"license":{"name":"Creative Commons Attribution-ShareAlike 3.0 Germany","url":"http://creativecommons.org/licenses/by-sa/3.0/de/deed.en","text":"The MIDI, audio (MP3, OGG) and video files of Bernd Krueger are licensed under the cc-by-sa Germany License. This means that you can use and adapt the files, as long as you attribute the copyright holder.\n\nName: Bernd Krueger\nSource: http://www.piano-midi.de\n\nThe distribution or public playback of the files is only allowed under identical license conditions.\n\nThe scores are open source.","attribution":"MIDI files by Bernd Krueger (piano-midi.de)","attributionUrl":"http://www.piano-midi.de"}}