{"title":"Passepied","artist":"Debussy","durationMs":216508,"midiSha256":"02f439b46930d6e7540a5ec869260f06e30136a6b081db18c9ce9ff0f7e8d62b","midiObject":[{"NoteNumber":42,"Velocity":38,"Duration":65982,"SoundDuration":65982,"Delta":0},{"NoteNumber":49,"Velocity":32,"Duration":64470,"SoundDuration":64470,"Delta":175953},{"NoteNumber":57,"Velocity":34,"Duration":64470,"SoundDuration":64470,"Delta":347873},{"NoteNumber":49,"Velocity":33,"Duration":65406,"SoundDuration":65406,"Delta":519793},{"NoteNumber":44,"Velocity":42,"Duration":65028,"SoundDuration":65028,"Delta":694211},{"NoteNumber":49,"Velocity":34,"Duration":63559,"SoundDuration":63559,"Delta":867622},{"NoteNumber":59,"Velocity":38,"Duration":63559,"SoundDuration":63559,"Delta":1037113},{"NoteNumber":49,"Velocity":36,"Duration":64841,"SoundDuration":64841,"Delta":1206605},{"NoteNumber":45,"Velocity":44,"Duration":64841,"SoundDuration":64841,"Delta":1379515},{"NoteNumber":54,"Velocity":40,"Duration":63380,"SoundDuration":63380,"Delta":1552426},{"NoteNumber":61,"Velocity":44,"Duration":63380,"SoundDuration":63380,"Delta":1721440},{"NoteNumber":54,"Velocity":40,"Duration":64285,"SoundDuration":64285,"Delta":1890454},{"NoteNumber":47,"Velocity":44,"Duration":64470,"SoundDuration":64470,"Delta":2061882},{"NoteNumber":54,"Velocity":38,"Duration":63380,"SoundDuration":63380,"Delta":2233802},{"NoteNumber":62,"Velocity":41,"Duration":63380,"SoundDuration":63380,"Delta":2402816},{"NoteNumber":54,"Velocity":38,"Duration":64470,"SoundDuration":64470,"Delta":2571830},{"NoteNumber":66,"Velocity":55,"Duration":265486,"SoundDuration":265486,"Delta":2743750},{"NoteNumber":42,"Velocity":46,"Duration":66371,"SoundDuration":66371,"Delta":2743750},{"NoteNumber":49,"Velocity":36,"Duration":66371,"SoundDuration":66371,"Delta":2920741},{"NoteNumber":73,"Velocity":55,"Duration":174418,"SoundDuration":174418,"Delta":3097732},{"NoteNumber":57,"Velocity":41,"Duration":65406,"SoundDuration":65406,"Delta":3097732},{"NoteNumber":49,"Velocity":36,"Duration":65406,"SoundDuration":65406,"Delta":3272151},{"NoteNumber":71,"Velocity":56,"Duration":1040579,"SoundDuration":1040579,"Delta":3446569},{"NoteNumber":44,"Velocity":46,"Duration":66371,"SoundDuration":66371,"Delta":3446569},{"NoteNumber":49,"Velocity":36,"Duration":64470,"SoundDuration":64470,"Delta":3623560},{"NoteNumber":59,"Velocity":42,"Duration":64470,"SoundDuration":64470,"Delta":3795480},{"NoteNumber":49,"Velocity":36,"Duration":65028,"SoundDuration":65028,"Delta":3967400},{"NoteNumber":45,"Velocity":46,"Duration":65406,"SoundDuration":65406,"Delta":4140811},{"NoteNumber":54,"Velocity":35,"Duration":64470,"SoundDuration":64470,"Delta":4315229},{"NoteNumber":69,"Velocity":54,"Duration":128940,"SoundDuration":128940,"Delta":4487149},{"NoteNumber":61,"Velocity":39,"Duration":64470,"SoundDuration":64470,"Delta":4487149},{"NoteNumber":68,"Velocity":54,"Duration":129682,"SoundDuration":129682,"Delta":4659069},{"NoteNumber":54,"Velocity":34,"Duration":64841,"SoundDuration":64841,"Delta":4659069},{"NoteNumber":66,"Velocity":56,"Duration":290200,"SoundDuration":290200,"Delta":4831980},{"NoteNumber":47,"Velocity":43,"Duration":65597,"SoundDuration":65597,"Delta":4831980},{"NoteNumber":54,"Velocity":34,"Duration":64841,"SoundDuration":64841,"Delta":5006907},{"NoteNumber":64,"Velocity":54,"Duration":129682,"SoundDuration":129682,"Delta":5179817},{"NoteNumber":62,"Velocity":36,"Duration":64841,"SoundDuration":64841,"Delta":5179817},{"NoteNumber":62,"Velocity":53,"Duration":130434,"SoundDuration":130434,"Delta":5352728},{"NoteNumber":54,"Velocity":33,"Duration":65217,"SoundDuration":65217,"Delta":5352728},{"NoteNumber":61,"Velocity":56,"Duration":339618,"SoundDuration":339618,"Delta":5526641},{"NoteNumber":42,"Velocity":41,"Duration":65217,"SoundDuration":65217,"Delta":5526641},{"NoteNumber":49,"Velocity":33,"Duration":64841,"SoundDuration":64841,"Delta":5700554},{"NoteNumber":62,"Velocity":53,"Duration":172910,"SoundDuration":172910,"Delta":5873464},{"NoteNumber":57,"Velocity":37,"Duration":64841,"SoundDuration":64841,"Delta":5873464},{"NoteNumber":64,"Velocity":53,"Duration":172910,"SoundDuration":172910,"Delta":6046375},{"NoteNumber":49,"Velocity":34,"Duration":64841,"SoundDuration":64841,"Delta":6046375},{"NoteNumber":66,"Velocity":57,"Duration":346326,"SoundDuration":346326,"Delta":6219285},{"NoteNumber":45,"Velocity":43,"Duration":65217,"SoundDuration":65217,"Delta":6219285},{"NoteNumber":54,"Velocity":34,"Duration":64655,"SoundDuration":64655,"Delta":6393198},{"NoteNumber":69,"Velocity":55,"Duration":351518,"SoundDuration":351518,"Delta":6565612},{"NoteNumber":61,"Velocity":39,"Duration":64655,"SoundDuration":64655,"Delta":6565612},{"NoteNumber":54,"Velocity":35,"Duration":67164,"SoundDuration":67164,"Delta":6738026},{"NoteNumber":68,"Velocity":57,"Duration":1524842,"SoundDuration":1524842,"Delta":6917131},{"NoteNumber":49,"Velocity":46,"Duration":65217,"SoundDuration":65217,"Delta":6917131},{"NoteNumber":56,"Velocity":36,"Duration":64470,"SoundDuration":64470,"Delta":7091044},{"NoteNumber":64,"Velocity":41,"Duration":63920,"SoundDuration":63920,"Delta":7262964},{"NoteNumber":56,"Velocity":36,"Duration":64470,"SoundDuration":64470,"Delta":7433418},{"NoteNumber":47,"Velocity":43,"Duration":64102,"SoundDuration":64102,"Delta":7605338},{"NoteNumber":56,"Velocity":34,"Duration":63559,"SoundDuration":63559,"Delta":7776278},{"NoteNumber":61,"Velocity":40,"Duration":63380,"SoundDuration":63380,"Delta":7945770},{"NoteNumber":56,"Velocity":35,"Duration":64102,"SoundDuration":64102,"Delta":8114784},{"NoteNumber":45,"Velocity":44,"Duration":63920,"SoundDuration":63920,"Delta":8285724},{"NoteNumber":66,"Velocity":50,"Duration":126760,"SoundDuration":126760,"Delta":8456178},{"NoteNumber":54,"Velocity":39,"Duration":63380,"SoundDuration":63380,"Delta":8456178},{"NoteNumber":68,"Velocity":50,"Duration":126050,"SoundDuration":126050,"Delta":8625192},{"NoteNumber":61,"Velocity":39,"Duration":63025,"SoundDuration":63025,"Delta":8625192},{"NoteNumber":69,"Velocity":50,"Duration":129682,"SoundDuration":129682,"Delta":8793259},{"NoteNumber":54,"Velocity":39,"Duration":64841,"SoundDuration":64841,"Delta":8793259},{"NoteNumber":66,"Velocity":55,"Duration":339116,"SoundDuration":339116,"Delta":8966170},{"NoteNumber":71,"Velocity":55,"Duration":835738,"SoundDuration":835738,"Delta":8966170},{"NoteNumber":44,"Velocity":43,"Duration":63584,"SoundDuration":63584,"Delta":8966170},{"NoteNumber":49,"Velocity":39,"Duration":63584,"SoundDuration":63584,"Delta":9135728},{"NoteNumber":65,"Velocity":50,"Duration":342074,"SoundDuration":342074,"Delta":9305287},{"NoteNumber":59,"Velocity":39,"Duration":64139,"SoundDuration":64139,"Delta":9305287},{"NoteNumber":49,"Velocity":39,"Duration":64139,"SoundDuration":64139,"Delta":9476324},{"NoteNumber":61,"Velocity":50,"Duration":336231,"SoundDuration":336231,"Delta":9647362},{"NoteNumber":42,"Velocity":45,"Duration":63223,"SoundDuration":63223,"Delta":9647362},{"NoteNumber":69,"Velocity":52,"Duration":167635,"SoundDuration":167635,"Delta":9815958},{"NoteNumber":49,"Velocity":41,"Duration":62863,"SoundDuration":62863,"Delta":9815958},{"NoteNumber":71,"Velocity":52,"Duration":166223,"SoundDuration":166223,"Delta":9983593},{"NoteNumber":57,"Velocity":41,"Duration":62333,"SoundDuration":62333,"Delta":9983593},{"NoteNumber":73,"Velocity":52,"Duration":170939,"SoundDuration":170939,"Delta":10149816},{"NoteNumber":49,"Velocity":42,"Duration":64102,"SoundDuration":64102,"Delta":10149816},{"NoteNumber":74,"Velocity":56,"Duration":838976,"SoundDuration":838976,"Delta":10320756},{"NoteNumber":69,"Velocity":56,"Duration":340116,"SoundDuration":340116,"Delta":10320756},{"NoteNumber":47,"Velocity":47,"Duration":63771,"SoundDuration":63771,"Delta":10320756},{"NoteNumber":52,"Velocity":45,"Duration":63771,"SoundDuration":63771,"Delta":10490815},{"NoteNumber":68,"Velocity":50,"Duration":342074,"SoundDuration":342074,"Delta":10660873},{"NoteNumber":62,"Velocity":45,"Duration":64139,"SoundDuration":64139,"Delta":10660873},{"NoteNumber":52,"Velocity":45,"Duration":64139,"SoundDuration":64139,"Delta":10831911},{"NoteNumber":64,"Velocity":50,"Duration":345112,"SoundDuration":345112,"Delta":11002948},{"NoteNumber":45,"Velocity":47,"Duration":64139,"SoundDuration":64139,"Delta":11002948},{"NoteNumber":73,"Velocity":54,"Duration":174074,"SoundDuration":174074,"Delta":11173986},{"NoteNumber":52,"Velocity":46,"Duration":65277,"SoundDuration":65277,"Delta":11173986},{"NoteNumber":74,"Velocity":58,"Duration":178815,"SoundDuration":178815,"Delta":11348060},{"NoteNumber":57,"Velocity":49,"Duration":67055,"SoundDuration":67055,"Delta":11348060},{"NoteNumber":76,"Velocity":63,"Duration":186729,"SoundDuration":186729,"Delta":11526876},{"NoteNumber":61,"Velocity":51,"Duration":70023,"SoundDuration":70023,"Delta":11526876},{"NoteNumber":74,"Velocity":64,"Duration":1021914,"SoundDuration":1021914,"Delta":11713606},{"NoteNumber":78,"Velocity":71,"Duration":1360897,"SoundDuration":1360897,"Delta":11713606},{"NoteNumber":50,"Velocity":53,"Duration":64139,"SoundDuration":64139,"Delta":11713606},{"NoteNumber":57,"Velocity":39,"Duration":63559,"SoundDuration":63559,"Delta":11884643},{"NoteNumber":62,"Velocity":38,"Duration":63559,"SoundDuration":63559,"Delta":12054135},{"NoteNumber":66,"Velocity":38,"Duration":63559,"SoundDuration":63559,"Delta":12223626},{"NoteNumber":57,"Velocity":42,"Duration":64841,"SoundDuration":64841,"Delta":12393118},{"NoteNumber":62,"Velocity":37,"Duration":63559,"SoundDuration":63559,"Delta":12566028},{"NoteNumber":66,"Velocity":37,"Duration":63559,"SoundDuration":63559,"Delta":12735520},{"NoteNumber":69,"Velocity":37,"Duration":84745,"SoundDuration":84745,"Delta":12905011},{"NoteNumber":66,"Velocity":56,"Duration":940794,"SoundDuration":940794,"Delta":13074503},{"NoteNumber":62,"Velocity":37,"Duration":84745,"SoundDuration":84745,"Delta":13243994},{"NoteNumber":61,"Velocity":36,"Duration":84745,"SoundDuration":84745,"Delta":13413486},{"NoteNumber":59,"Velocity":36,"Duration":84745,"SoundDuration":84745,"Delta":13582977},{"NoteNumber":57,"Velocity":46,"Duration":66276,"SoundDuration":66276,"Delta":13752469},{"NoteNumber":61,"Velocity":36,"Duration":65517,"SoundDuration":65517,"Delta":13927941},{"NoteNumber":73,"Velocity":53,"Duration":89195,"SoundDuration":89195,"Delta":14102654},{"NoteNumber":57,"Velocity":41,"Duration":66896,"SoundDuration":66896,"Delta":14102654},{"NoteNumber":54,"Velocity":36,"Duration":66896,"SoundDuration":66896,"Delta":14281045},{"NoteNumber":71,"Velocity":56,"Duration":1027171,"SoundDuration":1027171,"Delta":14459436},{"NoteNumber":56,"Velocity":46,"Duration":65517,"SoundDuration":65517,"Delta":14459436},{"NoteNumber":59,"Velocity":36,"Duration":63638,"SoundDuration":63638,"Delta":14634149},{"NoteNumber":64,"Velocity":42,"Duration":63638,"SoundDuration":63638,"Delta":14803851},{"NoteNumber":54,"Velocity":36,"Duration":64190,"SoundDuration":64190,"Delta":14973554},{"NoteNumber":52,"Velocity":46,"Duration":64566,"SoundDuration":64566,"Delta":15144728},{"NoteNumber":59,"Velocity":35,"Duration":63638,"SoundDuration":63638,"Delta":15316905},{"NoteNumber":69,"Velocity":54,"Duration":125838,"SoundDuration":125838,"Delta":15486607},{"NoteNumber":64,"Velocity":39,"Duration":62919,"SoundDuration":62919,"Delta":15486607},{"NoteNumber":68,"Velocity":54,"Duration":128015,"SoundDuration":128015,"Delta":15654392},{"NoteNumber":59,"Velocity":34,"Duration":64007,"SoundDuration":64007,"Delta":15654392},{"NoteNumber":66,"Velocity":56,"Duration":286463,"SoundDuration":286463,"Delta":15825080},{"NoteNumber":47,"Velocity":43,"Duration":64752,"SoundDuration":64752,"Delta":15825080},{"NoteNumber":56,"Velocity":34,"Duration":64007,"SoundDuration":64007,"Delta":15997752},{"NoteNumber":64,"Velocity":54,"Duration":126917,"SoundDuration":126917,"Delta":16168439},{"NoteNumber":62,"Velocity":36,"Duration":63459,"SoundDuration":63459,"Delta":16168439},{"NoteNumber":62,"Velocity":53,"Duration":128755,"SoundDuration":128755,"Delta":16337663},{"NoteNumber":52,"Velocity":33,"Duration":64377,"SoundDuration":64377,"Delta":16337663},{"NoteNumber":45,"Velocity":41,"Duration":65517,"SoundDuration":65517,"Delta":16509337},{"NoteNumber":61,"Velocity":56,"Duration":170687,"SoundDuration":170687,"Delta":16684050},{"NoteNumber":52,"Velocity":33,"Duration":64007,"SoundDuration":64007,"Delta":16684050},{"NoteNumber":62,"Velocity":53,"Duration":169223,"SoundDuration":169223,"Delta":16854738},{"NoteNumber":57,"Velocity":37,"Duration":63459,"SoundDuration":63459,"Delta":16854738},{"NoteNumber":64,"Velocity":53,"Duration":170687,"SoundDuration":170687,"Delta":17023962},{"NoteNumber":52,"Velocity":34,"Duration":64007,"SoundDuration":64007,"Delta":17023962},{"NoteNumber":66,"Velocity":57,"Duration":341867,"SoundDuration":341867,"Delta":17194649},{"NoteNumber":50,"Velocity":43,"Duration":64377,"SoundDuration":64377,"Delta":17194649},{"NoteNumber":57,"Velocity":34,"Duration":63822,"SoundDuration":63822,"Delta":17366323},{"NoteNumber":69,"Velocity":55,"Duration":346986,"SoundDuration":346986,"Delta":17536517},{"NoteNumber":62,"Velocity":39,"Duration":63822,"SoundDuration":63822,"Delta":17536517},{"NoteNumber":49,"Velocity":35,"Duration":66297,"SoundDuration":66297,"Delta":17706710},{"NoteNumber":66,"Velocity":57,"Duration":2027982,"SoundDuration":2027982,"Delta":17883503},{"NoteNumber":68,"Velocity":57,"Duration":2027982,"SoundDuration":2027982,"Delta":17883503},{"NoteNumber":48,"Velocity":46,"Duration":64751,"SoundDuration":64751,"Delta":17883503},{"NoteNumber":56,"Velocity":36,"Duration":63638,"SoundDuration":63638,"Delta":18056175},{"NoteNumber":63,"Velocity":41,"Duration":62919,"SoundDuration":62919,"Delta":18225878},{"NoteNumber":56,"Velocity":36,"Duration":62919,"SoundDuration":62919,"Delta":18393663},{"NoteNumber":48,"Velocity":43,"Duration":64377,"SoundDuration":64377,"Delta":18561448},{"NoteNumber":56,"Velocity":34,"Duration":63638,"SoundDuration":63638,"Delta":18733122},{"NoteNumber":63,"Velocity":40,"Duration":62740,"SoundDuration":62740,"Delta":18902824},{"NoteNumber":56,"Velocity":35,"Duration":62740,"SoundDuration":62740,"Delta":19070132},{"NoteNumber":48,"Velocity":46,"Duration":64190,"SoundDuration":64190,"Delta":19237440},{"NoteNumber":56,"Velocity":36,"Duration":63095,"SoundDuration":63095,"Delta":19408615},{"NoteNumber":63,"Velocity":41,"Duration":62740,"SoundDuration":62740,"Delta":19576870},{"NoteNumber":56,"Velocity":36,"Duration":62740,"SoundDuration":62740,"Delta":19744178},{"NoteNumber":66,"Velocity":60,"Duration":338943,"SoundDuration":338943,"Delta":19911486},{"NoteNumber":69,"Velocity":60,"Duration":338943,"SoundDuration":338943,"Delta":19911486},{"NoteNumber":49,"Velocity":49,"Duration":64007,"SoundDuration":64007,"Delta":19911486},{"NoteNumber":57,"Velocity":45,"Duration":63095,"SoundDuration":63095,"Delta":20082174},{"NoteNumber":76,"Velocity":59,"Duration":86845,"SoundDuration":86845,"Delta":20250429},{"NoteNumber":80,"Velocity":59,"Duration":86845,"SoundDuration":86845,"Delta":20250429},{"NoteNumber":64,"Velocity":49,"Duration":65134,"SoundDuration":65134,"Delta":20250429},{"NoteNumber":57,"Velocity":47,"Duration":65134,"SoundDuration":65134,"Delta":20424121},{"NoteNumber":66,"Velocity":58,"Duration":677389,"SoundDuration":677389,"Delta":20597812},{"NoteNumber":68,"Velocity":58,"Duration":677389,"SoundDuration":677389,"Delta":20597812},{"NoteNumber":48,"Velocity":49,"Duration":64190,"SoundDuration":64190,"Delta":20597812},{"NoteNumber":56,"Velocity":38,"Duration":63276,"SoundDuration":63276,"Delta":20768987},{"NoteNumber":63,"Velocity":44,"Duration":63276,"SoundDuration":63276,"Delta":20937725},{"NoteNumber":56,"Velocity":38,"Duration":63276,"SoundDuration":63276,"Delta":21106464},{"NoteNumber":66,"Velocity":56,"Duration":338943,"SoundDuration":338943,"Delta":21275202},{"NoteNumber":62,"Velocity":56,"Duration":338943,"SoundDuration":338943,"Delta":21275202},{"NoteNumber":47,"Velocity":52,"Duration":64007,"SoundDuration":64007,"Delta":21275202},{"NoteNumber":52,"Velocity":48,"Duration":63095,"SoundDuration":63095,"Delta":21445890},{"NoteNumber":76,"Velocity":59,"Duration":86845,"SoundDuration":86845,"Delta":21614145},{"NoteNumber":73,"Velocity":59,"Duration":86845,"SoundDuration":86845,"Delta":21614145},{"NoteNumber":56,"Velocity":52,"Duration":65134,"SoundDuration":65134,"Delta":21614145},{"NoteNumber":62,"Velocity":52,"Duration":65134,"SoundDuration":65134,"Delta":21614145},{"NoteNumber":52,"Velocity":50,"Duration":65134,"SoundDuration":65134,"Delta":21787837},{"NoteNumber":61,"Velocity":57,"Duration":403189,"SoundDuration":403189,"Delta":21961528},{"NoteNumber":64,"Velocity":57,"Duration":677389,"SoundDuration":677389,"Delta":21961528},{"NoteNumber":45,"Velocity":52,"Duration":64190,"SoundDuration":64190,"Delta":21961528},{"NoteNumber":52,"Velocity":44,"Duration":63276,"SoundDuration":63276,"Delta":22132703},{"NoteNumber":61,"Velocity":49,"Duration":337476,"SoundDuration":337476,"Delta":22301441},{"NoteNumber":52,"Velocity":46,"Duration":63276,"SoundDuration":63276,"Delta":22470180},{"NoteNumber":59,"Velocity":66,"Duration":338943,"SoundDuration":338943,"Delta":22638918},{"NoteNumber":63,"Velocity":66,"Duration":338943,"SoundDuration":338943,"Delta":22638918},{"NoteNumber":42,"Velocity":55,"Duration":64007,"SoundDuration":64007,"Delta":22638918},{"NoteNumber":47,"Velocity":50,"Duration":63095,"SoundDuration":63095,"Delta":22809606},{"NoteNumber":69,"Velocity":69,"Duration":108557,"SoundDuration":108557,"Delta":22977861},{"NoteNumber":73,"Velocity":69,"Duration":108557,"SoundDuration":108557,"Delta":22977861},{"NoteNumber":57,"Velocity":55,"Duration":65134,"SoundDuration":65134,"Delta":22977861},{"NoteNumber":47,"Velocity":52,"Duration":65134,"SoundDuration":65134,"Delta":23151553},{"NoteNumber":61,"Velocity":69,"Duration":2045226,"SoundDuration":2045226,"Delta":23325244},{"NoteNumber":56,"Velocity":69,"Duration":2045226,"SoundDuration":2045226,"Delta":23325244},{"NoteNumber":37,"Velocity":66,"Duration":64190,"SoundDuration":64190,"Delta":23325244},{"NoteNumber":44,"Velocity":57,"Duration":63276,"SoundDuration":63276,"Delta":23496419},{"NoteNumber":53,"Velocity":61,"Duration":63276,"SoundDuration":63276,"Delta":23665157},{"NoteNumber":44,"Velocity":57,"Duration":63276,"SoundDuration":63276,"Delta":23833896},{"NoteNumber":37,"Velocity":66,"Duration":64007,"SoundDuration":64007,"Delta":24002634},{"NoteNumber":44,"Velocity":57,"Duration":63439,"SoundDuration":63439,"Delta":24173322},{"NoteNumber":53,"Velocity":61,"Duration":63276,"SoundDuration":63276,"Delta":24342223},{"NoteNumber":44,"Velocity":57,"Duration":63276,"SoundDuration":63276,"Delta":24510961},{"NoteNumber":37,"Velocity":61,"Duration":64190,"SoundDuration":64190,"Delta":24679700},{"NoteNumber":44,"Velocity":55,"Duration":63276,"SoundDuration":63276,"Delta":24850874},{"NoteNumber":53,"Velocity":58,"Duration":63276,"SoundDuration":63276,"Delta":25019613},{"NoteNumber":44,"Velocity":55,"Duration":74503,"SoundDuration":74503,"Delta":25188351},{"NoteNumber":59,"Velocity":42,"Duration":344353,"SoundDuration":344353,"Delta":25387027},{"NoteNumber":62,"Velocity":42,"Duration":344353,"SoundDuration":344353,"Delta":25387027},{"NoteNumber":47,"Velocity":38,"Duration":64566,"SoundDuration":64566,"Delta":25387027},{"NoteNumber":54,"Velocity":35,"Duration":64566,"SoundDuration":64566,"Delta":25559203},{"NoteNumber":69,"Velocity":43,"Duration":360036,"SoundDuration":360036,"Delta":25731380},{"NoteNumber":66,"Velocity":43,"Duration":360036,"SoundDuration":360036,"Delta":25731380},{"NoteNumber":57,"Velocity":37,"Duration":67506,"SoundDuration":67506,"Delta":25731380},{"NoteNumber":61,"Velocity":35,"Duration":67506,"SoundDuration":67506,"Delta":25911398},{"NoteNumber":68,"Velocity":43,"Duration":858239,"SoundDuration":858239,"Delta":26091416},{"NoteNumber":64,"Velocity":43,"Duration":858239,"SoundDuration":858239,"Delta":26091416},{"NoteNumber":52,"Velocity":37,"Duration":66756,"SoundDuration":66756,"Delta":26091416},{"NoteNumber":59,"Velocity":34,"Duration":64470,"SoundDuration":64470,"Delta":26269448},{"NoteNumber":62,"Velocity":34,"Duration":64082,"SoundDuration":64082,"Delta":26441122},{"NoteNumber":59,"Velocity":34,"Duration":63639,"SoundDuration":63639,"Delta":26611658},{"NoteNumber":52,"Velocity":40,"Duration":63202,"SoundDuration":63202,"Delta":26781070},{"NoteNumber":69,"Velocity":39,"Duration":168067,"SoundDuration":168067,"Delta":26949655},{"NoteNumber":66,"Velocity":39,"Duration":168067,"SoundDuration":168067,"Delta":26949655},{"NoteNumber":59,"Velocity":36,"Duration":63025,"SoundDuration":63025,"Delta":26949655},{"NoteNumber":71,"Velocity":44,"Duration":705881,"SoundDuration":705881,"Delta":27117722},{"NoteNumber":68,"Velocity":44,"Duration":705881,"SoundDuration":705881,"Delta":27117722},{"NoteNumber":52,"Velocity":37,"Duration":66176,"SoundDuration":66176,"Delta":27117722},{"NoteNumber":47,"Velocity":35,"Duration":66176,"SoundDuration":66176,"Delta":27294193},{"NoteNumber":40,"Velocity":37,"Duration":66176,"SoundDuration":66176,"Delta":27470663},{"NoteNumber":47,"Velocity":34,"Duration":66176,"SoundDuration":66176,"Delta":27647134},{"NoteNumber":73,"Velocity":41,"Duration":341246,"SoundDuration":341246,"Delta":27823604},{"NoteNumber":69,"Velocity":41,"Duration":341246,"SoundDuration":341246,"Delta":27823604},{"NoteNumber":52,"Velocity":34,"Duration":66765,"SoundDuration":66765,"Delta":27823604},{"NoteNumber":56,"Velocity":34,"Duration":66765,"SoundDuration":66765,"Delta":28001646},{"NoteNumber":59,"Velocity":42,"Duration":348836,"SoundDuration":348836,"Delta":28179687},{"NoteNumber":62,"Velocity":42,"Duration":348836,"SoundDuration":348836,"Delta":28179687},{"NoteNumber":47,"Velocity":37,"Duration":65406,"SoundDuration":65406,"Delta":28179687},{"NoteNumber":54,"Velocity":34,"Duration":65406,"SoundDuration":65406,"Delta":28354106},{"NoteNumber":69,"Velocity":44,"Duration":361446,"SoundDuration":361446,"Delta":28528524},{"NoteNumber":66,"Velocity":44,"Duration":361446,"SoundDuration":361446,"Delta":28528524},{"NoteNumber":57,"Velocity":34,"Duration":67771,"SoundDuration":67771,"Delta":28528524},{"NoteNumber":61,"Velocity":34,"Duration":67771,"SoundDuration":67771,"Delta":28709247},{"NoteNumber":68,"Velocity":43,"Duration":858499,"SoundDuration":858499,"Delta":28889970},{"NoteNumber":64,"Velocity":43,"Duration":858499,"SoundDuration":858499,"Delta":28889970},{"NoteNumber":52,"Velocity":38,"Duration":66964,"SoundDuration":66964,"Delta":28889970},{"NoteNumber":59,"Velocity":34,"Duration":64699,"SoundDuration":64699,"Delta":29068542},{"NoteNumber":62,"Velocity":34,"Duration":64001,"SoundDuration":64001,"Delta":29240222},{"NoteNumber":59,"Velocity":34,"Duration":63639,"SoundDuration":63639,"Delta":29410596},{"NoteNumber":52,"Velocity":41,"Duration":63281,"SoundDuration":63281,"Delta":29580008},{"NoteNumber":69,"Velocity":42,"Duration":167598,"SoundDuration":167598,"Delta":29748469},{"NoteNumber":66,"Velocity":42,"Duration":167598,"SoundDuration":167598,"Delta":29748469},{"NoteNumber":59,"Velocity":37,"Duration":62849,"SoundDuration":62849,"Delta":29748469},{"NoteNumber":71,"Velocity":46,"Duration":689149,"SoundDuration":689149,"Delta":29916067},{"NoteNumber":68,"Velocity":46,"Duration":689149,"SoundDuration":689149,"Delta":29916067},{"NoteNumber":52,"Velocity":37,"Duration":65982,"SoundDuration":65982,"Delta":29916067},{"NoteNumber":47,"Velocity":37,"Duration":65982,"SoundDuration":65982,"Delta":30092020},{"NoteNumber":40,"Velocity":45,"Duration":65982,"SoundDuration":65982,"Delta":30267973},{"NoteNumber":47,"Velocity":38,"Duration":65982,"SoundDuration":65982,"Delta":30443926},{"NoteNumber":68,"Velocity":51,"Duration":357143,"SoundDuration":357143,"Delta":30619879},{"NoteNumber":64,"Velocity":51,"Duration":357143,"SoundDuration":357143,"Delta":30619879},{"NoteNumber":52,"Velocity":38,"Duration":66964,"SoundDuration":66964,"Delta":30619879},{"NoteNumber":56,"Velocity":38,"Duration":66964,"SoundDuration":66964,"Delta":30798451},{"NoteNumber":69,"Velocity":55,"Duration":350877,"SoundDuration":350877,"Delta":30977022},{"NoteNumber":66,"Velocity":55,"Duration":350877,"SoundDuration":350877,"Delta":30977022},{"NoteNumber":47,"Velocity":46,"Duration":65789,"SoundDuration":65789,"Delta":30977022},{"NoteNumber":52,"Velocity":39,"Duration":65789,"SoundDuration":65789,"Delta":31152461},{"NoteNumber":71,"Velocity":59,"Duration":356161,"SoundDuration":356161,"Delta":31327899},{"NoteNumber":68,"Velocity":59,"Duration":356161,"SoundDuration":356161,"Delta":31327899},{"NoteNumber":62,"Velocity":39,"Duration":65789,"SoundDuration":65789,"Delta":31327899},{"NoteNumber":52,"Velocity":39,"Duration":67771,"SoundDuration":67771,"Delta":31503338},{"NoteNumber":71,"Velocity":37,"Duration":716437,"SoundDuration":716437,"Delta":31684061},{"NoteNumber":73,"Velocity":59,"Duration":240246,"SoundDuration":240246,"Delta":31684061},{"NoteNumber":67,"Velocity":37,"Duration":716437,"SoundDuration":716437,"Delta":31684061},{"NoteNumber":45,"Velocity":42,"Duration":67771,"SoundDuration":67771,"Delta":31684061},{"NoteNumber":52,"Velocity":38,"Duration":66964,"SoundDuration":66964,"Delta":31864784},{"NoteNumber":73,"Velocity":59,"Duration":238095,"SoundDuration":238095,"Delta":31924308},{"NoteNumber":57,"Velocity":38,"Duration":66964,"SoundDuration":66964,"Delta":32043355},{"NoteNumber":76,"Velocity":56,"Duration":238095,"SoundDuration":238095,"Delta":32162403},{"NoteNumber":61,"Velocity":38,"Duration":66964,"SoundDuration":66964,"Delta":32221927},{"NoteNumber":66,"Velocity":37,"Duration":715894,"SoundDuration":715894,"Delta":32400498},{"NoteNumber":73,"Velocity":59,"Duration":239703,"SoundDuration":239703,"Delta":32400498},{"NoteNumber":69,"Velocity":37,"Duration":715894,"SoundDuration":715894,"Delta":32400498},{"NoteNumber":50,"Velocity":41,"Duration":67567,"SoundDuration":67567,"Delta":32400498},{"NoteNumber":57,"Velocity":38,"Duration":66964,"SoundDuration":66964,"Delta":32580678},{"NoteNumber":71,"Velocity":59,"Duration":238095,"SoundDuration":238095,"Delta":32640202},{"NoteNumber":62,"Velocity":38,"Duration":66964,"SoundDuration":66964,"Delta":32759250},{"NoteNumber":73,"Velocity":56,"Duration":238095,"SoundDuration":238095,"Delta":32878298},{"NoteNumber":57,"Velocity":38,"Duration":66964,"SoundDuration":66964,"Delta":32937821},{"NoteNumber":69,"Velocity":56,"Duration":357143,"SoundDuration":357143,"Delta":33116393},{"NoteNumber":64,"Velocity":37,"Duration":709049,"SoundDuration":709049,"Delta":33116393},{"NoteNumber":66,"Velocity":37,"Duration":709049,"SoundDuration":709049,"Delta":33116393},{"NoteNumber":54,"Velocity":41,"Duration":66964,"SoundDuration":66964,"Delta":33116393},{"NoteNumber":57,"Velocity":34,"Duration":66964,"SoundDuration":66964,"Delta":33294964},{"NoteNumber":73,"Velocity":52,"Duration":351905,"SoundDuration":351905,"Delta":33473536},{"NoteNumber":61,"Velocity":35,"Duration":65982,"SoundDuration":65982,"Delta":33473536},{"NoteNumber":57,"Velocity":34,"Duration":65982,"SoundDuration":65982,"Delta":33649489},{"NoteNumber":71,"Velocity":55,"Duration":1071429,"SoundDuration":1071429,"Delta":33825442},{"NoteNumber":62,"Velocity":45,"Duration":1426459,"SoundDuration":1426459,"Delta":33825442},{"NoteNumber":69,"Velocity":45,"Duration":714286,"SoundDuration":714286,"Delta":33825442},{"NoteNumber":47,"Velocity":37,"Duration":66964,"SoundDuration":66964,"Delta":33825442},{"NoteNumber":54,"Velocity":32,"Duration":66964,"SoundDuration":66964,"Delta":34004013},{"NoteNumber":59,"Velocity":34,"Duration":66964,"SoundDuration":66964,"Delta":34182585},{"NoteNumber":54,"Velocity":33,"Duration":66964,"SoundDuration":66964,"Delta":34361156},{"NoteNumber":67,"Velocity":41,"Duration":1450003,"SoundDuration":1450003,"Delta":34539728},{"NoteNumber":40,"Velocity":35,"Duration":66964,"SoundDuration":66964,"Delta":34539728},{"NoteNumber":47,"Velocity":30,"Duration":66964,"SoundDuration":66964,"Delta":34718299},{"NoteNumber":73,"Velocity":46,"Duration":355029,"SoundDuration":355029,"Delta":34896871},{"NoteNumber":52,"Velocity":30,"Duration":66568,"SoundDuration":66568,"Delta":34896871},{"NoteNumber":55,"Velocity":30,"Duration":66568,"SoundDuration":66568,"Delta":35074386},{"NoteNumber":69,"Velocity":44,"Duration":737830,"SoundDuration":737830,"Delta":35251901},{"NoteNumber":62,"Velocity":37,"Duration":359281,"SoundDuration":359281,"Delta":35251901},{"NoteNumber":40,"Velocity":33,"Duration":67365,"SoundDuration":67365,"Delta":35251901},{"NoteNumber":45,"Velocity":30,"Duration":67365,"SoundDuration":67365,"Delta":35431541},{"NoteNumber":59,"Velocity":34,"Duration":378548,"SoundDuration":378548,"Delta":35611182},{"NoteNumber":55,"Velocity":28,"Duration":70977,"SoundDuration":70977,"Delta":35611182},{"NoteNumber":45,"Velocity":28,"Duration":70977,"SoundDuration":70977,"Delta":35800456},{"NoteNumber":69,"Velocity":40,"Duration":1692030,"SoundDuration":1692030,"Delta":35989731},{"NoteNumber":61,"Velocity":50,"Duration":240963,"SoundDuration":240963,"Delta":35989731},{"NoteNumber":66,"Velocity":40,"Duration":1452509,"SoundDuration":1452509,"Delta":35989731},{"NoteNumber":42,"Velocity":38,"Duration":67771,"SoundDuration":67771,"Delta":35989731},{"NoteNumber":49,"Velocity":35,"Duration":67771,"SoundDuration":67771,"Delta":36170454},{"NoteNumber":62,"Velocity":49,"Duration":240964,"SoundDuration":240964,"Delta":36230695},{"NoteNumber":57,"Velocity":35,"Duration":67771,"SoundDuration":67771,"Delta":36351177},{"NoteNumber":59,"Velocity":49,"Duration":245425,"SoundDuration":245425,"Delta":36471659},{"NoteNumber":54,"Velocity":35,"Duration":69444,"SoundDuration":69444,"Delta":36531900},{"NoteNumber":61,"Velocity":52,"Duration":240240,"SoundDuration":240240,"Delta":36717085},{"NoteNumber":40,"Velocity":38,"Duration":67567,"SoundDuration":67567,"Delta":36717085},{"NoteNumber":45,"Velocity":35,"Duration":67567,"SoundDuration":67567,"Delta":36897265},{"NoteNumber":62,"Velocity":49,"Duration":240240,"SoundDuration":240240,"Delta":36957325},{"NoteNumber":54,"Velocity":35,"Duration":67567,"SoundDuration":67567,"Delta":37077445},{"NoteNumber":64,"Velocity":49,"Duration":244675,"SoundDuration":244675,"Delta":37197565},{"NoteNumber":45,"Velocity":36,"Duration":69230,"SoundDuration":69230,"Delta":37257625},{"NoteNumber":66,"Velocity":52,"Duration":239520,"SoundDuration":239520,"Delta":37442240},{"NoteNumber":38,"Velocity":38,"Duration":67365,"SoundDuration":67365,"Delta":37442240},{"NoteNumber":45,"Velocity":35,"Duration":67365,"SoundDuration":67365,"Delta":37621881},{"NoteNumber":68,"Velocity":49,"Duration":239520,"SoundDuration":239520,"Delta":37681761},{"NoteNumber":50,"Velocity":35,"Duration":67365,"SoundDuration":67365,"Delta":37801521},{"NoteNumber":64,"Velocity":49,"Duration":243366,"SoundDuration":243366,"Delta":37921282},{"NoteNumber":54,"Velocity":35,"Duration":68807,"SoundDuration":68807,"Delta":37981162},{"NoteNumber":66,"Velocity":51,"Duration":239520,"SoundDuration":239520,"Delta":38164648},{"NoteNumber":45,"Velocity":35,"Duration":67365,"SoundDuration":67365,"Delta":38164648},{"NoteNumber":50,"Velocity":33,"Duration":67365,"SoundDuration":67365,"Delta":38344288},{"NoteNumber":68,"Velocity":48,"Duration":239520,"SoundDuration":239520,"Delta":38404169},{"NoteNumber":54,"Velocity":33,"Duration":67365,"SoundDuration":67365,"Delta":38523929},{"NoteNumber":69,"Velocity":47,"Duration":243366,"SoundDuration":243366,"Delta":38643689},{"NoteNumber":57,"Velocity":35,"Duration":68807,"SoundDuration":68807,"Delta":38703569},{"NoteNumber":71,"Velocity":47,"Duration":239835,"SoundDuration":239835,"Delta":38887055},{"NoteNumber":50,"Velocity":34,"Duration":67365,"SoundDuration":67365,"Delta":38887055},{"NoteNumber":57,"Velocity":31,"Duration":67567,"SoundDuration":67567,"Delta":39066831},{"NoteNumber":73,"Velocity":44,"Duration":241100,"SoundDuration":241100,"Delta":39126891},{"NoteNumber":62,"Velocity":31,"Duration":67839,"SoundDuration":67839,"Delta":39247282},{"NoteNumber":69,"Velocity":44,"Duration":247968,"SoundDuration":247968,"Delta":39367992},{"NoteNumber":66,"Velocity":30,"Duration":70312,"SoundDuration":70312,"Delta":39428461},{"NoteNumber":71,"Velocity":44,"Duration":246492,"SoundDuration":246492,"Delta":39615961},{"NoteNumber":49,"Velocity":31,"Duration":68877,"SoundDuration":68877,"Delta":39615961},{"NoteNumber":54,"Velocity":30,"Duration":69851,"SoundDuration":69851,"Delta":39800390},{"NoteNumber":73,"Velocity":41,"Duration":251333,"SoundDuration":251333,"Delta":39862453},{"NoteNumber":57,"Velocity":29,"Duration":70878,"SoundDuration":70878,"Delta":39987503},{"NoteNumber":74,"Velocity":41,"Duration":255286,"SoundDuration":255286,"Delta":40113787},{"NoteNumber":62,"Velocity":28,"Duration":71885,"SoundDuration":71885,"Delta":40177380},{"NoteNumber":74,"Velocity":48,"Duration":731113,"SoundDuration":731113,"Delta":40369073},{"NoteNumber":78,"Velocity":48,"Duration":276923,"SoundDuration":276923,"Delta":40369073},{"NoteNumber":66,"Velocity":48,"Duration":276923,"SoundDuration":276923,"Delta":40369073},{"NoteNumber":47,"Velocity":40,"Duration":69230,"SoundDuration":69230,"Delta":40369073},{"NoteNumber":54,"Velocity":36,"Duration":69230,"SoundDuration":69230,"Delta":40553689},{"NoteNumber":85,"Velocity":48,"Duration":180940,"SoundDuration":180940,"Delta":40738304},{"NoteNumber":73,"Velocity":48,"Duration":180940,"SoundDuration":180940,"Delta":40738304},{"NoteNumber":59,"Velocity":36,"Duration":67852,"SoundDuration":67852,"Delta":40738304},{"NoteNumber":62,"Velocity":36,"Duration":67852,"SoundDuration":67852,"Delta":40919245},{"NoteNumber":71,"Velocity":51,"Duration":1058361,"SoundDuration":1058361,"Delta":41100186},{"NoteNumber":77,"Velocity":51,"Duration":711357,"SoundDuration":711357,"Delta":41100186},{"NoteNumber":83,"Velocity":51,"Duration":1058361,"SoundDuration":1058361,"Delta":41100186},{"NoteNumber":47,"Velocity":40,"Duration":68459,"SoundDuration":68459,"Delta":41100186},{"NoteNumber":53,"Velocity":36,"Duration":65908,"SoundDuration":65908,"Delta":41282746},{"NoteNumber":56,"Velocity":36,"Duration":65908,"SoundDuration":65908,"Delta":41458503},{"NoteNumber":62,"Velocity":36,"Duration":66481,"SoundDuration":66481,"Delta":41634260},{"NoteNumber":47,"Velocity":40,"Duration":66072,"SoundDuration":66072,"Delta":41811544},{"NoteNumber":54,"Velocity":35,"Duration":64470,"SoundDuration":64470,"Delta":41986628},{"NoteNumber":69,"Velocity":50,"Duration":128940,"SoundDuration":128940,"Delta":42158548},{"NoteNumber":59,"Velocity":35,"Duration":64470,"SoundDuration":64470,"Delta":42158548},{"NoteNumber":68,"Velocity":50,"Duration":129682,"SoundDuration":129682,"Delta":42330468},{"NoteNumber":62,"Velocity":35,"Duration":64841,"SoundDuration":64841,"Delta":42330468},{"NoteNumber":66,"Velocity":52,"Duration":290200,"SoundDuration":290200,"Delta":42503379},{"NoteNumber":47,"Velocity":39,"Duration":65597,"SoundDuration":65597,"Delta":42503379},{"NoteNumber":54,"Velocity":34,"Duration":64841,"SoundDuration":64841,"Delta":42678306},{"NoteNumber":64,"Velocity":50,"Duration":129682,"SoundDuration":129682,"Delta":42851216},{"NoteNumber":56,"Velocity":34,"Duration":64841,"SoundDuration":64841,"Delta":42851216},{"NoteNumber":62,"Velocity":49,"Duration":130434,"SoundDuration":130434,"Delta":43024127},{"NoteNumber":54,"Velocity":34,"Duration":65217,"SoundDuration":65217,"Delta":43024127},{"NoteNumber":61,"Velocity":52,"Duration":342696,"SoundDuration":342696,"Delta":43198040},{"NoteNumber":45,"Velocity":41,"Duration":66371,"SoundDuration":66371,"Delta":43198040},{"NoteNumber":54,"Velocity":35,"Duration":64841,"SoundDuration":64841,"Delta":43375031},{"NoteNumber":62,"Velocity":49,"Duration":172910,"SoundDuration":172910,"Delta":43547941},{"NoteNumber":57,"Velocity":35,"Duration":64841,"SoundDuration":64841,"Delta":43547941},{"NoteNumber":64,"Velocity":49,"Duration":172910,"SoundDuration":172910,"Delta":43720852},{"NoteNumber":54,"Velocity":34,"Duration":64841,"SoundDuration":64841,"Delta":43720852},{"NoteNumber":66,"Velocity":53,"Duration":260120,"SoundDuration":260120,"Delta":43893762},{"NoteNumber":42,"Velocity":43,"Duration":65217,"SoundDuration":65217,"Delta":43893762},{"NoteNumber":49,"Velocity":35,"Duration":64655,"SoundDuration":64655,"Delta":44067675},{"NoteNumber":69,"Velocity":51,"Duration":261966,"SoundDuration":261966,"Delta":44240089},{"NoteNumber":57,"Velocity":35,"Duration":64655,"SoundDuration":64655,"Delta":44240089},{"NoteNumber":49,"Velocity":35,"Duration":67164,"SoundDuration":67164,"Delta":44412503},{"NoteNumber":66,"Velocity":53,"Duration":1722328,"SoundDuration":1722328,"Delta":44591608},{"NoteNumber":68,"Velocity":53,"Duration":1535709,"SoundDuration":1535709,"Delta":44591608},{"NoteNumber":48,"Velocity":42,"Duration":65597,"SoundDuration":65597,"Delta":44591608},{"NoteNumber":54,"Velocity":35,"Duration":64470,"SoundDuration":64470,"Delta":44766535},{"NoteNumber":63,"Velocity":39,"Duration":64470,"SoundDuration":64470,"Delta":44938455},{"NoteNumber":54,"Velocity":35,"Duration":64470,"SoundDuration":64470,"Delta":45110375},{"NoteNumber":49,"Velocity":41,"Duration":65982,"SoundDuration":65982,"Delta":45282295},{"NoteNumber":54,"Velocity":37,"Duration":64102,"SoundDuration":64102,"Delta":45458248},{"NoteNumber":64,"Velocity":42,"Duration":64102,"SoundDuration":64102,"Delta":45629188},{"NoteNumber":54,"Velocity":38,"Duration":64102,"SoundDuration":64102,"Delta":45800128},{"NoteNumber":51,"Velocity":44,"Duration":63920,"SoundDuration":63920,"Delta":45971068},{"NoteNumber":66,"Velocity":51,"Duration":2573665,"SoundDuration":2573665,"Delta":46141522},{"NoteNumber":54,"Velocity":40,"Duration":64655,"SoundDuration":64655,"Delta":46141522},{"NoteNumber":68,"Velocity":54,"Duration":174418,"SoundDuration":174418,"Delta":46313936},{"NoteNumber":60,"Velocity":43,"Duration":65406,"SoundDuration":65406,"Delta":46313936},{"NoteNumber":69,"Velocity":56,"Duration":178571,"SoundDuration":178571,"Delta":46488355},{"NoteNumber":54,"Velocity":45,"Duration":66964,"SoundDuration":66964,"Delta":46488355},{"NoteNumber":71,"Velocity":57,"Duration":835738,"SoundDuration":835738,"Delta":46666926},{"NoteNumber":52,"Velocity":47,"Duration":63584,"SoundDuration":63584,"Delta":46666926},{"NoteNumber":54,"Velocity":41,"Duration":63584,"SoundDuration":63584,"Delta":46836485},{"NoteNumber":61,"Velocity":41,"Duration":64139,"SoundDuration":64139,"Delta":47006043},{"NoteNumber":54,"Velocity":41,"Duration":64139,"SoundDuration":64139,"Delta":47177081},{"NoteNumber":51,"Velocity":47,"Duration":63223,"SoundDuration":63223,"Delta":47348118},{"NoteNumber":69,"Velocity":55,"Duration":171428,"SoundDuration":171428,"Delta":47516714},{"NoteNumber":54,"Velocity":45,"Duration":64285,"SoundDuration":64285,"Delta":47516714},{"NoteNumber":71,"Velocity":57,"Duration":173912,"SoundDuration":173912,"Delta":47688143},{"NoteNumber":60,"Velocity":45,"Duration":65217,"SoundDuration":65217,"Delta":47688143},{"NoteNumber":69,"Velocity":55,"Duration":170940,"SoundDuration":170940,"Delta":47862056},{"NoteNumber":54,"Velocity":45,"Duration":64102,"SoundDuration":64102,"Delta":47862056},{"NoteNumber":68,"Velocity":56,"Duration":838976,"SoundDuration":838976,"Delta":48032996},{"NoteNumber":44,"Velocity":47,"Duration":63771,"SoundDuration":63771,"Delta":48032996},{"NoteNumber":51,"Velocity":45,"Duration":63771,"SoundDuration":63771,"Delta":48203054},{"NoteNumber":60,"Velocity":45,"Duration":64139,"SoundDuration":64139,"Delta":48373113},{"NoteNumber":51,"Velocity":45,"Duration":64139,"SoundDuration":64139,"Delta":48544150},{"NoteNumber":44,"Velocity":47,"Duration":64139,"SoundDuration":64139,"Delta":48715188},{"NoteNumber":66,"Velocity":54,"Duration":174074,"SoundDuration":174074,"Delta":48886225},{"NoteNumber":50,"Velocity":44,"Duration":65277,"SoundDuration":65277,"Delta":48886225},{"NoteNumber":64,"Velocity":56,"Duration":178815,"SoundDuration":178815,"Delta":49060300},{"NoteNumber":59,"Velocity":44,"Duration":67056,"SoundDuration":67056,"Delta":49060300},{"NoteNumber":62,"Velocity":58,"Duration":186729,"SoundDuration":186729,"Delta":49239116},{"NoteNumber":50,"Velocity":44,"Duration":70023,"SoundDuration":70023,"Delta":49239116},{"NoteNumber":61,"Velocity":60,"Duration":701506,"SoundDuration":701506,"Delta":49425845},{"NoteNumber":40,"Velocity":47,"Duration":179640,"SoundDuration":179640,"Delta":49425845},{"NoteNumber":50,"Velocity":41,"Duration":175438,"SoundDuration":175438,"Delta":49605486},{"NoteNumber":52,"Velocity":41,"Duration":173912,"SoundDuration":173912,"Delta":49780924},{"NoteNumber":56,"Velocity":41,"Duration":175438,"SoundDuration":175438,"Delta":49954837},{"NoteNumber":61,"Velocity":45,"Duration":1389867,"SoundDuration":1389867,"Delta":50130276},{"NoteNumber":56,"Velocity":41,"Duration":172414,"SoundDuration":172414,"Delta":50304694},{"NoteNumber":50,"Velocity":38,"Duration":172413,"SoundDuration":172413,"Delta":50477108},{"NoteNumber":40,"Velocity":36,"Duration":179104,"SoundDuration":179104,"Delta":50649522},{"NoteNumber":37,"Velocity":40,"Duration":175438,"SoundDuration":175438,"Delta":50828627},{"NoteNumber":44,"Velocity":37,"Duration":171920,"SoundDuration":171920,"Delta":51004065},{"NoteNumber":53,"Velocity":38,"Duration":171920,"SoundDuration":171920,"Delta":51175985},{"NoteNumber":59,"Velocity":38,"Duration":174418,"SoundDuration":174418,"Delta":51347905},{"NoteNumber":61,"Velocity":41,"Duration":173410,"SoundDuration":173410,"Delta":51522324},{"NoteNumber":59,"Velocity":41,"Duration":171920,"SoundDuration":171920,"Delta":51695734},{"NoteNumber":53,"Velocity":39,"Duration":171920,"SoundDuration":171920,"Delta":51867654},{"NoteNumber":44,"Velocity":39,"Duration":175952,"SoundDuration":175952,"Delta":52039574},{"NoteNumber":73,"Velocity":37,"Duration":178041,"SoundDuration":178041,"Delta":52215527},{"NoteNumber":71,"Velocity":37,"Duration":178041,"SoundDuration":178041,"Delta":52393569},{"NoteNumber":65,"Velocity":35,"Duration":178041,"SoundDuration":178041,"Delta":52571610},{"NoteNumber":56,"Velocity":33,"Duration":184615,"SoundDuration":184615,"Delta":52749652},{"NoteNumber":78,"Velocity":48,"Duration":369230,"SoundDuration":369230,"Delta":52934267},{"NoteNumber":54,"Velocity":31,"Duration":184615,"SoundDuration":184615,"Delta":53118883},{"NoteNumber":85,"Velocity":48,"Duration":361882,"SoundDuration":361882,"Delta":53303498},{"NoteNumber":61,"Velocity":31,"Duration":180940,"SoundDuration":180940,"Delta":53303498},{"NoteNumber":69,"Velocity":31,"Duration":180941,"SoundDuration":180941,"Delta":53484439},{"NoteNumber":78,"Velocity":40,"Duration":715891,"SoundDuration":715891,"Delta":53665380},{"NoteNumber":81,"Velocity":40,"Duration":715891,"SoundDuration":715891,"Delta":53665380},{"NoteNumber":84,"Velocity":50,"Duration":715891,"SoundDuration":715891,"Delta":53665380},{"NoteNumber":57,"Velocity":30,"Duration":175756,"SoundDuration":175756,"Delta":53847940},{"NoteNumber":62,"Velocity":30,"Duration":175757,"SoundDuration":175757,"Delta":54023697},{"NoteNumber":66,"Velocity":30,"Duration":175757,"SoundDuration":175757,"Delta":54023697},{"NoteNumber":72,"Velocity":30,"Duration":181817,"SoundDuration":181817,"Delta":54199454},{"NoteNumber":85,"Velocity":55,"Duration":360360,"SoundDuration":360360,"Delta":54381272},{"NoteNumber":61,"Velocity":31,"Duration":180180,"SoundDuration":180180,"Delta":54561452},{"NoteNumber":78,"Velocity":40,"Duration":361882,"SoundDuration":361882,"Delta":54741632},{"NoteNumber":81,"Velocity":40,"Duration":361882,"SoundDuration":361882,"Delta":54741632},{"NoteNumber":88,"Velocity":55,"Duration":361882,"SoundDuration":361882,"Delta":54741632},{"NoteNumber":66,"Velocity":31,"Duration":180940,"SoundDuration":180940,"Delta":54741632},{"NoteNumber":76,"Velocity":31,"Duration":180941,"SoundDuration":180941,"Delta":54922573},{"NoteNumber":87,"Velocity":57,"Duration":244675,"SoundDuration":244675,"Delta":55103514},{"NoteNumber":59,"Velocity":26,"Duration":180180,"SoundDuration":180180,"Delta":55288129},{"NoteNumber":83,"Velocity":52,"Duration":240240,"SoundDuration":240240,"Delta":55348189},{"NoteNumber":78,"Velocity":40,"Duration":240240,"SoundDuration":240240,"Delta":55348189},{"NoteNumber":66,"Velocity":23,"Duration":180180,"SoundDuration":180180,"Delta":55468309},{"NoteNumber":81,"Velocity":51,"Duration":242986,"SoundDuration":242986,"Delta":55588429},{"NoteNumber":75,"Velocity":24,"Duration":182926,"SoundDuration":182926,"Delta":55648489},{"NoteNumber":78,"Velocity":48,"Duration":366971,"SoundDuration":366971,"Delta":55831416},{"NoteNumber":54,"Velocity":31,"Duration":183485,"SoundDuration":183485,"Delta":56014902},{"NoteNumber":85,"Velocity":48,"Duration":358209,"SoundDuration":358209,"Delta":56198388},{"NoteNumber":61,"Velocity":31,"Duration":179104,"SoundDuration":179104,"Delta":56198388},{"NoteNumber":69,"Velocity":31,"Duration":179104,"SoundDuration":179104,"Delta":56377493},{"NoteNumber":84,"Velocity":50,"Duration":718359,"SoundDuration":718359,"Delta":56556597},{"NoteNumber":81,"Velocity":40,"Duration":718359,"SoundDuration":718359,"Delta":56556597},{"NoteNumber":78,"Velocity":40,"Duration":718359,"SoundDuration":718359,"Delta":56556597},{"NoteNumber":57,"Velocity":30,"Duration":176991,"SoundDuration":176991,"Delta":56739157},{"NoteNumber":62,"Velocity":30,"Duration":176991,"SoundDuration":176991,"Delta":56916148},{"NoteNumber":66,"Velocity":30,"Duration":176991,"SoundDuration":176991,"Delta":56916148},{"NoteNumber":72,"Velocity":30,"Duration":181817,"SoundDuration":181817,"Delta":57093139},{"NoteNumber":85,"Velocity":55,"Duration":360360,"SoundDuration":360360,"Delta":57274957},{"NoteNumber":61,"Velocity":31,"Duration":180180,"SoundDuration":180180,"Delta":57455137},{"NoteNumber":88,"Velocity":55,"Duration":361882,"SoundDuration":361882,"Delta":57635317},{"NoteNumber":81,"Velocity":35,"Duration":361882,"SoundDuration":361882,"Delta":57635317},{"NoteNumber":78,"Velocity":35,"Duration":361882,"SoundDuration":361882,"Delta":57635317},{"NoteNumber":66,"Velocity":31,"Duration":180940,"SoundDuration":180940,"Delta":57635317},{"NoteNumber":76,"Velocity":31,"Duration":180941,"SoundDuration":180941,"Delta":57816258},{"NoteNumber":87,"Velocity":57,"Duration":245038,"SoundDuration":245038,"Delta":57997199},{"NoteNumber":59,"Velocity":26,"Duration":181269,"SoundDuration":181269,"Delta":58181814},{"NoteNumber":78,"Velocity":40,"Duration":241692,"SoundDuration":241692,"Delta":58242237},{"NoteNumber":83,"Velocity":52,"Duration":241692,"SoundDuration":241692,"Delta":58242237},{"NoteNumber":66,"Velocity":23,"Duration":181269,"SoundDuration":181269,"Delta":58363083},{"NoteNumber":87,"Velocity":51,"Duration":245038,"SoundDuration":245038,"Delta":58483929},{"NoteNumber":75,"Velocity":23,"Duration":184615,"SoundDuration":184615,"Delta":58544352},{"NoteNumber":73,"Velocity":46,"Duration":364741,"SoundDuration":364741,"Delta":58728968},{"NoteNumber":49,"Velocity":27,"Duration":182370,"SoundDuration":182370,"Delta":58911339},{"NoteNumber":69,"Velocity":25,"Duration":369230,"SoundDuration":369230,"Delta":59093710},{"NoteNumber":76,"Velocity":46,"Duration":369230,"SoundDuration":369230,"Delta":59093710},{"NoteNumber":66,"Velocity":25,"Duration":369230,"SoundDuration":369230,"Delta":59093710},{"NoteNumber":54,"Velocity":24,"Duration":184615,"SoundDuration":184615,"Delta":59093710},{"NoteNumber":64,"Velocity":24,"Duration":184615,"SoundDuration":184615,"Delta":59278325},{"NoteNumber":75,"Velocity":49,"Duration":250984,"SoundDuration":250984,"Delta":59462941},{"NoteNumber":47,"Velocity":27,"Duration":186915,"SoundDuration":186915,"Delta":59651620},{"NoteNumber":66,"Velocity":25,"Duration":249221,"SoundDuration":249221,"Delta":59713925},{"NoteNumber":69,"Velocity":25,"Duration":249221,"SoundDuration":249221,"Delta":59713925},{"NoteNumber":71,"Velocity":45,"Duration":249221,"SoundDuration":249221,"Delta":59713925},{"NoteNumber":54,"Velocity":28,"Duration":186916,"SoundDuration":186916,"Delta":59838536},{"NoteNumber":75,"Velocity":44,"Duration":259673,"SoundDuration":259673,"Delta":59963147},{"NoteNumber":63,"Velocity":27,"Duration":197368,"SoundDuration":197368,"Delta":60025452},{"NoteNumber":66,"Velocity":46,"Duration":730069,"SoundDuration":730069,"Delta":60222820},{"NoteNumber":63,"Velocity":46,"Duration":730069,"SoundDuration":730069,"Delta":60222820},{"NoteNumber":73,"Velocity":46,"Duration":730069,"SoundDuration":730069,"Delta":60222820},{"NoteNumber":45,"Velocity":36,"Duration":181817,"SoundDuration":181817,"Delta":60407436},{"NoteNumber":54,"Velocity":36,"Duration":181817,"SoundDuration":181817,"Delta":60589254},{"NoteNumber":61,"Velocity":36,"Duration":181817,"SoundDuration":181817,"Delta":60771072},{"NoteNumber":64,"Velocity":46,"Duration":359281,"SoundDuration":359281,"Delta":60952890},{"NoteNumber":71,"Velocity":46,"Duration":359281,"SoundDuration":359281,"Delta":60952890},{"NoteNumber":68,"Velocity":46,"Duration":359281,"SoundDuration":359281,"Delta":60952890},{"NoteNumber":44,"Velocity":36,"Duration":179640,"SoundDuration":179640,"Delta":61132530},{"NoteNumber":64,"Velocity":45,"Duration":364741,"SoundDuration":364741,"Delta":61312171},{"NoteNumber":59,"Velocity":45,"Duration":364741,"SoundDuration":364741,"Delta":61312171},{"NoteNumber":68,"Velocity":45,"Duration":364741,"SoundDuration":364741,"Delta":61312171},{"NoteNumber":52,"Velocity":36,"Duration":182371,"SoundDuration":182371,"Delta":61312171},{"NoteNumber":44,"Velocity":36,"Duration":182370,"SoundDuration":182370,"Delta":61494542},{"NoteNumber":61,"Velocity":45,"Duration":733448,"SoundDuration":733448,"Delta":61676913},{"NoteNumber":64,"Velocity":45,"Duration":243161,"SoundDuration":243161,"Delta":61676913},{"NoteNumber":57,"Velocity":45,"Duration":733448,"SoundDuration":733448,"Delta":61676913},{"NoteNumber":42,"Velocity":35,"Duration":182370,"SoundDuration":182370,"Delta":61859284},{"NoteNumber":66,"Velocity":44,"Duration":243161,"SoundDuration":243161,"Delta":61920074},{"NoteNumber":49,"Velocity":35,"Duration":182371,"SoundDuration":182371,"Delta":62041655},{"NoteNumber":68,"Velocity":44,"Duration":247125,"SoundDuration":247125,"Delta":62163236},{"NoteNumber":42,"Velocity":35,"Duration":186335,"SoundDuration":186335,"Delta":62224026},{"NoteNumber":57,"Velocity":44,"Duration":758439,"SoundDuration":758439,"Delta":62410361},{"NoteNumber":64,"Velocity":44,"Duration":376176,"SoundDuration":376176,"Delta":62410361},{"NoteNumber":66,"Velocity":44,"Duration":758439,"SoundDuration":758439,"Delta":62410361},{"NoteNumber":35,"Velocity":33,"Duration":188088,"SoundDuration":188088,"Delta":62598449},{"NoteNumber":63,"Velocity":43,"Duration":382263,"SoundDuration":382263,"Delta":62786537},{"NoteNumber":47,"Velocity":33,"Duration":188088,"SoundDuration":188088,"Delta":62786537},{"NoteNumber":35,"Velocity":33,"Duration":194175,"SoundDuration":194175,"Delta":62974625},{"NoteNumber":64,"Velocity":44,"Duration":1081281,"SoundDuration":1081281,"Delta":63168800},{"NoteNumber":61,"Velocity":44,"Duration":362173,"SoundDuration":362173,"Delta":63168800},{"NoteNumber":68,"Velocity":44,"Duration":1259852,"SoundDuration":1259852,"Delta":63168800},{"NoteNumber":40,"Velocity":35,"Duration":181269,"SoundDuration":181269,"Delta":63168800},{"NoteNumber":47,"Velocity":34,"Duration":180904,"SoundDuration":180904,"Delta":63350069},{"NoteNumber":59,"Velocity":40,"Duration":360451,"SoundDuration":360451,"Delta":63530974},{"NoteNumber":52,"Velocity":34,"Duration":180451,"SoundDuration":180451,"Delta":63530974},{"NoteNumber":56,"Velocity":34,"Duration":180000,"SoundDuration":180000,"Delta":63711426},{"NoteNumber":59,"Velocity":37,"Duration":179551,"SoundDuration":179551,"Delta":63891426},{"NoteNumber":64,"Velocity":35,"Duration":539494,"SoundDuration":539494,"Delta":64070977},{"NoteNumber":68,"Velocity":39,"Duration":360389,"SoundDuration":360389,"Delta":64250082},{"NoteNumber":71,"Velocity":40,"Duration":181818,"SoundDuration":181818,"Delta":64428653},{"NoteNumber":73,"Velocity":46,"Duration":356379,"SoundDuration":356379,"Delta":64610471},{"NoteNumber":70,"Velocity":32,"Duration":717151,"SoundDuration":717151,"Delta":64610471},{"NoteNumber":67,"Velocity":32,"Duration":717151,"SoundDuration":717151,"Delta":64610471},{"NoteNumber":55,"Velocity":36,"Duration":178189,"SoundDuration":178189,"Delta":64788661},{"NoteNumber":76,"Velocity":46,"Duration":360771,"SoundDuration":360771,"Delta":64966850},{"NoteNumber":61,"Velocity":36,"Duration":180385,"SoundDuration":180385,"Delta":64966850},{"NoteNumber":64,"Velocity":36,"Duration":180385,"SoundDuration":180385,"Delta":65147236},{"NoteNumber":68,"Velocity":34,"Duration":730854,"SoundDuration":730854,"Delta":65327622},{"NoteNumber":75,"Velocity":49,"Duration":243366,"SoundDuration":243366,"Delta":65327622},{"NoteNumber":71,"Velocity":34,"Duration":482886,"SoundDuration":482886,"Delta":65327622},{"NoteNumber":56,"Velocity":32,"Duration":179640,"SoundDuration":179640,"Delta":65511108},{"NoteNumber":71,"Velocity":45,"Duration":487488,"SoundDuration":487488,"Delta":65570988},{"NoteNumber":59,"Velocity":28,"Duration":179640,"SoundDuration":179640,"Delta":65690749},{"NoteNumber":75,"Velocity":44,"Duration":247968,"SoundDuration":247968,"Delta":65810509},{"NoteNumber":63,"Velocity":28,"Duration":188087,"SoundDuration":188087,"Delta":65870389},{"NoteNumber":68,"Velocity":47,"Duration":729876,"SoundDuration":729876,"Delta":66058477},{"NoteNumber":64,"Velocity":47,"Duration":729876,"SoundDuration":729876,"Delta":66058477},{"NoteNumber":73,"Velocity":47,"Duration":729876,"SoundDuration":729876,"Delta":66058477},{"NoteNumber":49,"Velocity":36,"Duration":181818,"SoundDuration":181818,"Delta":66242900},{"NoteNumber":56,"Velocity":36,"Duration":181817,"SoundDuration":181817,"Delta":66424718},{"NoteNumber":61,"Velocity":36,"Duration":181818,"SoundDuration":181818,"Delta":66606536},{"NoteNumber":63,"Velocity":47,"Duration":358209,"SoundDuration":358209,"Delta":66788354},{"NoteNumber":71,"Velocity":47,"Duration":358209,"SoundDuration":358209,"Delta":66788354},{"NoteNumber":68,"Velocity":47,"Duration":358209,"SoundDuration":358209,"Delta":66788354},{"NoteNumber":44,"Velocity":36,"Duration":179104,"SoundDuration":179104,"Delta":66967458},{"NoteNumber":63,"Velocity":45,"Duration":364742,"SoundDuration":364742,"Delta":67146563},{"NoteNumber":59,"Velocity":45,"Duration":364742,"SoundDuration":364742,"Delta":67146563},{"NoteNumber":68,"Velocity":45,"Duration":364742,"SoundDuration":364742,"Delta":67146563},{"NoteNumber":51,"Velocity":36,"Duration":182371,"SoundDuration":182371,"Delta":67146563},{"NoteNumber":56,"Velocity":36,"Duration":182371,"SoundDuration":182371,"Delta":67328934},{"NoteNumber":61,"Velocity":45,"Duration":730598,"SoundDuration":730598,"Delta":67511305},{"NoteNumber":64,"Velocity":45,"Duration":243161,"SoundDuration":243161,"Delta":67511305},{"NoteNumber":58,"Velocity":45,"Duration":730598,"SoundDuration":730598,"Delta":67511305},{"NoteNumber":42,"Velocity":35,"Duration":182371,"SoundDuration":182371,"Delta":67693676},{"NoteNumber":66,"Velocity":44,"Duration":243161,"SoundDuration":243161,"Delta":67754466},{"NoteNumber":49,"Velocity":35,"Duration":182371,"SoundDuration":182371,"Delta":67876047},{"NoteNumber":68,"Velocity":45,"Duration":244276,"SoundDuration":244276,"Delta":67997627},{"NoteNumber":42,"Velocity":35,"Duration":183486,"SoundDuration":183486,"Delta":68058418},{"NoteNumber":66,"Velocity":46,"Duration":1108845,"SoundDuration":1108845,"Delta":68241904},{"NoteNumber":63,"Velocity":46,"Duration":368098,"SoundDuration":368098,"Delta":68241904},{"NoteNumber":70,"Velocity":46,"Duration":1108845,"SoundDuration":1108845,"Delta":68241904},{"NoteNumber":40,"Velocity":36,"Duration":184049,"SoundDuration":184049,"Delta":68425953},{"NoteNumber":61,"Velocity":43,"Duration":740747,"SoundDuration":740747,"Delta":68610002},{"NoteNumber":49,"Velocity":36,"Duration":185758,"SoundDuration":185758,"Delta":68610002},{"NoteNumber":40,"Velocity":36,"Duration":185758,"SoundDuration":185758,"Delta":68795760},{"NoteNumber":39,"Velocity":40,"Duration":184615,"SoundDuration":184615,"Delta":68981519},{"NoteNumber":47,"Velocity":36,"Duration":184615,"SoundDuration":184615,"Delta":69166134},{"NoteNumber":66,"Velocity":47,"Duration":371516,"SoundDuration":371516,"Delta":69350750},{"NoteNumber":71,"Velocity":47,"Duration":371516,"SoundDuration":371516,"Delta":69350750},{"NoteNumber":59,"Velocity":47,"Duration":371516,"SoundDuration":371516,"Delta":69350750},{"NoteNumber":51,"Velocity":36,"Duration":185758,"SoundDuration":185758,"Delta":69350750},{"NoteNumber":54,"Velocity":36,"Duration":185758,"SoundDuration":185758,"Delta":69536508},{"NoteNumber":66,"Velocity":50,"Duration":378549,"SoundDuration":378549,"Delta":69722267},{"NoteNumber":75,"Velocity":50,"Duration":378549,"SoundDuration":378549,"Delta":69722267},{"NoteNumber":71,"Velocity":50,"Duration":378549,"SoundDuration":378549,"Delta":69722267},{"NoteNumber":59,"Velocity":42,"Duration":189274,"SoundDuration":189274,"Delta":69722267},{"NoteNumber":63,"Velocity":38,"Duration":189274,"SoundDuration":189274,"Delta":69911541},{"NoteNumber":71,"Velocity":54,"Duration":389610,"SoundDuration":389610,"Delta":70100816},{"NoteNumber":75,"Velocity":54,"Duration":389610,"SoundDuration":389610,"Delta":70100816},{"NoteNumber":78,"Velocity":54,"Duration":389610,"SoundDuration":389610,"Delta":70100816},{"NoteNumber":66,"Velocity":43,"Duration":194805,"SoundDuration":194805,"Delta":70100816},{"NoteNumber":71,"Velocity":46,"Duration":194805,"SoundDuration":194805,"Delta":70295621},{"NoteNumber":76,"Velocity":47,"Duration":2144035,"SoundDuration":2144035,"Delta":70490426},{"NoteNumber":80,"Velocity":47,"Duration":2144035,"SoundDuration":2144035,"Delta":70490426},{"NoteNumber":75,"Velocity":51,"Duration":364742,"SoundDuration":364742,"Delta":70490426},{"NoteNumber":61,"Velocity":38,"Duration":182371,"SoundDuration":182371,"Delta":70672797},{"NoteNumber":73,"Velocity":36,"Duration":369230,"SoundDuration":369230,"Delta":70855168},{"NoteNumber":64,"Velocity":33,"Duration":184615,"SoundDuration":184615,"Delta":70855168},{"NoteNumber":68,"Velocity":33,"Duration":184615,"SoundDuration":184615,"Delta":71039783},{"NoteNumber":75,"Velocity":42,"Duration":352941,"SoundDuration":352941,"Delta":71224399},{"NoteNumber":59,"Velocity":37,"Duration":176470,"SoundDuration":176470,"Delta":71400869},{"NoteNumber":73,"Velocity":37,"Duration":349853,"SoundDuration":349853,"Delta":71577340},{"NoteNumber":64,"Velocity":32,"Duration":174926,"SoundDuration":174926,"Delta":71577340},{"NoteNumber":68,"Velocity":32,"Duration":174926,"SoundDuration":174926,"Delta":71752267},{"NoteNumber":75,"Velocity":48,"Duration":345821,"SoundDuration":345821,"Delta":71927194},{"NoteNumber":58,"Velocity":38,"Duration":172910,"SoundDuration":172910,"Delta":72100104},{"NoteNumber":73,"Velocity":41,"Duration":361446,"SoundDuration":361446,"Delta":72273015},{"NoteNumber":64,"Velocity":34,"Duration":180723,"SoundDuration":180723,"Delta":72273015},{"NoteNumber":68,"Velocity":34,"Duration":180723,"SoundDuration":180723,"Delta":72453738},{"NoteNumber":80,"Velocity":34,"Duration":718017,"SoundDuration":718017,"Delta":72634461},{"NoteNumber":76,"Velocity":34,"Duration":718017,"SoundDuration":718017,"Delta":72634461},{"NoteNumber":83,"Velocity":57,"Duration":234779,"SoundDuration":234779,"Delta":72634461},{"NoteNumber":56,"Velocity":33,"Duration":174926,"SoundDuration":174926,"Delta":72810931},{"NoteNumber":87,"Velocity":53,"Duration":233236,"SoundDuration":233236,"Delta":72869240},{"NoteNumber":64,"Velocity":33,"Duration":174926,"SoundDuration":174926,"Delta":72985858},{"NoteNumber":83,"Velocity":53,"Duration":250002,"SoundDuration":250002,"Delta":73102476},{"NoteNumber":71,"Velocity":32,"Duration":191693,"SoundDuration":191693,"Delta":73160785},{"NoteNumber":80,"Velocity":45,"Duration":2161574,"SoundDuration":2161574,"Delta":73352479},{"NoteNumber":75,"Velocity":49,"Duration":364742,"SoundDuration":364742,"Delta":73352479},{"NoteNumber":76,"Velocity":45,"Duration":2161574,"SoundDuration":2161574,"Delta":73352479},{"NoteNumber":61,"Velocity":37,"Duration":182371,"SoundDuration":182371,"Delta":73534850},{"NoteNumber":73,"Velocity":36,"Duration":369230,"SoundDuration":369230,"Delta":73717221},{"NoteNumber":64,"Velocity":33,"Duration":184615,"SoundDuration":184615,"Delta":73717221},{"NoteNumber":68,"Velocity":33,"Duration":184615,"SoundDuration":184615,"Delta":73901836},{"NoteNumber":75,"Velocity":42,"Duration":353982,"SoundDuration":353982,"Delta":74086452},{"NoteNumber":59,"Velocity":36,"Duration":176991,"SoundDuration":176991,"Delta":74263443},{"NoteNumber":73,"Velocity":37,"Duration":355029,"SoundDuration":355029,"Delta":74440434},{"NoteNumber":64,"Velocity":32,"Duration":177514,"SoundDuration":177514,"Delta":74440434},{"NoteNumber":68,"Velocity":32,"Duration":177514,"SoundDuration":177514,"Delta":74617949},{"NoteNumber":75,"Velocity":48,"Duration":357142,"SoundDuration":357142,"Delta":74795464},{"NoteNumber":58,"Velocity":37,"Duration":178571,"SoundDuration":178571,"Delta":74974035},{"NoteNumber":80,"Velocity":43,"Duration":361446,"SoundDuration":361446,"Delta":75152607},{"NoteNumber":85,"Velocity":47,"Duration":361446,"SoundDuration":361446,"Delta":75152607},{"NoteNumber":76,"Velocity":43,"Duration":361446,"SoundDuration":361446,"Delta":75152607},{"NoteNumber":64,"Velocity":34,"Duration":180723,"SoundDuration":180723,"Delta":75152607},{"NoteNumber":68,"Velocity":34,"Duration":180723,"SoundDuration":180723,"Delta":75333330},{"NoteNumber":73,"Velocity":40,"Duration":375000,"SoundDuration":375000,"Delta":75514053},{"NoteNumber":82,"Velocity":44,"Duration":375000,"SoundDuration":375000,"Delta":75514053},{"NoteNumber":78,"Velocity":40,"Duration":375000,"SoundDuration":375000,"Delta":75514053},{"NoteNumber":54,"Velocity":38,"Duration":187500,"SoundDuration":187500,"Delta":75701553},{"NoteNumber":76,"Velocity":39,"Duration":387096,"SoundDuration":387096,"Delta":75889053},{"NoteNumber":70,"Velocity":39,"Duration":387096,"SoundDuration":387096,"Delta":75889053},{"NoteNumber":80,"Velocity":42,"Duration":387096,"SoundDuration":387096,"Delta":75889053},{"NoteNumber":61,"Velocity":33,"Duration":193548,"SoundDuration":193548,"Delta":75889053},{"NoteNumber":66,"Velocity":33,"Duration":193548,"SoundDuration":193548,"Delta":76082601},{"NoteNumber":78,"Velocity":47,"Duration":2148104,"SoundDuration":2148104,"Delta":76276150},{"NoteNumber":73,"Velocity":46,"Duration":364742,"SoundDuration":364742,"Delta":76276150},{"NoteNumber":74,"Velocity":47,"Duration":2148104,"SoundDuration":2148104,"Delta":76276150},{"NoteNumber":59,"Velocity":38,"Duration":182371,"SoundDuration":182371,"Delta":76458521},{"NoteNumber":71,"Velocity":36,"Duration":369230,"SoundDuration":369230,"Delta":76640892},{"NoteNumber":62,"Velocity":33,"Duration":184615,"SoundDuration":184615,"Delta":76640892},{"NoteNumber":66,"Velocity":33,"Duration":184615,"SoundDuration":184615,"Delta":76825507},{"NoteNumber":73,"Velocity":42,"Duration":353982,"SoundDuration":353982,"Delta":77010123},{"NoteNumber":57,"Velocity":37,"Duration":176991,"SoundDuration":176991,"Delta":77187114},{"NoteNumber":71,"Velocity":37,"Duration":350876,"SoundDuration":350876,"Delta":77364105},{"NoteNumber":62,"Velocity":32,"Duration":175438,"SoundDuration":175438,"Delta":77364105},{"NoteNumber":66,"Velocity":32,"Duration":175438,"SoundDuration":175438,"Delta":77539543},{"NoteNumber":73,"Velocity":48,"Duration":347825,"SoundDuration":347825,"Delta":77714982},{"NoteNumber":56,"Velocity":38,"Duration":173912,"SoundDuration":173912,"Delta":77888895},{"NoteNumber":71,"Velocity":41,"Duration":361446,"SoundDuration":361446,"Delta":78062808},{"NoteNumber":62,"Velocity":34,"Duration":180723,"SoundDuration":180723,"Delta":78062808},{"NoteNumber":66,"Velocity":34,"Duration":180723,"SoundDuration":180723,"Delta":78243531},{"NoteNumber":78,"Velocity":40,"Duration":718218,"SoundDuration":718218,"Delta":78424254},{"NoteNumber":74,"Velocity":40,"Duration":718218,"SoundDuration":718218,"Delta":78424254},{"NoteNumber":81,"Velocity":53,"Duration":233747,"SoundDuration":233747,"Delta":78424254},{"NoteNumber":54,"Velocity":37,"Duration":174926,"SoundDuration":174926,"Delta":78599692},{"NoteNumber":85,"Velocity":51,"Duration":233236,"SoundDuration":233236,"Delta":78658001},{"NoteNumber":62,"Velocity":36,"Duration":174926,"SoundDuration":174926,"Delta":78774619},{"NoteNumber":81,"Velocity":50,"Duration":251234,"SoundDuration":251234,"Delta":78891237},{"NoteNumber":69,"Velocity":34,"Duration":192925,"SoundDuration":192925,"Delta":78949546},{"NoteNumber":78,"Velocity":45,"Duration":2157385,"SoundDuration":2157385,"Delta":79142472},{"NoteNumber":73,"Velocity":46,"Duration":364742,"SoundDuration":364742,"Delta":79142472},{"NoteNumber":74,"Velocity":45,"Duration":2157385,"SoundDuration":2157385,"Delta":79142472},{"NoteNumber":59,"Velocity":37,"Duration":182371,"SoundDuration":182371,"Delta":79324843},{"NoteNumber":71,"Velocity":36,"Duration":369230,"SoundDuration":369230,"Delta":79507214},{"NoteNumber":62,"Velocity":33,"Duration":184615,"SoundDuration":184615,"Delta":79507214},{"NoteNumber":66,"Velocity":33,"Duration":184615,"SoundDuration":184615,"Delta":79691830},{"NoteNumber":73,"Velocity":42,"Duration":355029,"SoundDuration":355029,"Delta":79876445},{"NoteNumber":57,"Velocity":37,"Duration":177514,"SoundDuration":177514,"Delta":80053960},{"NoteNumber":71,"Velocity":37,"Duration":355029,"SoundDuration":355029,"Delta":80231475},{"NoteNumber":62,"Velocity":32,"Duration":177514,"SoundDuration":177514,"Delta":80231475},{"NoteNumber":66,"Velocity":32,"Duration":177514,"SoundDuration":177514,"Delta":80408990},{"NoteNumber":73,"Velocity":48,"Duration":351905,"SoundDuration":351905,"Delta":80586505},{"NoteNumber":56,"Velocity":39,"Duration":175952,"SoundDuration":175952,"Delta":80762458},{"NoteNumber":78,"Velocity":51,"Duration":361446,"SoundDuration":361446,"Delta":80938411},{"NoteNumber":83,"Velocity":56,"Duration":361446,"SoundDuration":361446,"Delta":80938411},{"NoteNumber":74,"Velocity":51,"Duration":361446,"SoundDuration":361446,"Delta":80938411},{"NoteNumber":62,"Velocity":40,"Duration":180723,"SoundDuration":180723,"Delta":80938411},{"NoteNumber":66,"Velocity":40,"Duration":180723,"SoundDuration":180723,"Delta":81119134},{"NoteNumber":71,"Velocity":48,"Duration":375000,"SoundDuration":375000,"Delta":81299857},{"NoteNumber":80,"Velocity":52,"Duration":375000,"SoundDuration":375000,"Delta":81299857},{"NoteNumber":76,"Velocity":48,"Duration":375000,"SoundDuration":375000,"Delta":81299857},{"NoteNumber":52,"Velocity":45,"Duration":187500,"SoundDuration":187500,"Delta":81487357},{"NoteNumber":74,"Velocity":46,"Duration":396039,"SoundDuration":396039,"Delta":81674857},{"NoteNumber":68,"Velocity":46,"Duration":396039,"SoundDuration":396039,"Delta":81674857},{"NoteNumber":78,"Velocity":50,"Duration":396039,"SoundDuration":396039,"Delta":81674857},{"NoteNumber":59,"Velocity":39,"Duration":198019,"SoundDuration":198019,"Delta":81674857},{"NoteNumber":52,"Velocity":39,"Duration":198019,"SoundDuration":198019,"Delta":81872877},{"NoteNumber":76,"Velocity":63,"Duration":348584,"SoundDuration":348584,"Delta":82070897},{"NoteNumber":69,"Velocity":58,"Duration":348584,"SoundDuration":348584,"Delta":82070897},{"NoteNumber":73,"Velocity":58,"Duration":348584,"SoundDuration":348584,"Delta":82070897},{"NoteNumber":45,"Velocity":55,"Duration":66042,"SoundDuration":66042,"Delta":82070897},{"NoteNumber":52,"Velocity":51,"Duration":65202,"SoundDuration":65202,"Delta":82245610},{"NoteNumber":69,"Velocity":56,"Duration":64033,"SoundDuration":64033,"Delta":82419482},{"NoteNumber":64,"Velocity":56,"Duration":64033,"SoundDuration":64033,"Delta":82419482},{"NoteNumber":73,"Velocity":56,"Duration":64033,"SoundDuration":64033,"Delta":82419482},{"NoteNumber":57,"Velocity":51,"Duration":64033,"SoundDuration":64033,"Delta":82419482},{"NoteNumber":64,"Velocity":56,"Duration":64033,"SoundDuration":64033,"Delta":82590238},{"NoteNumber":69,"Velocity":56,"Duration":64033,"SoundDuration":64033,"Delta":82590238},{"NoteNumber":73,"Velocity":56,"Duration":64033,"SoundDuration":64033,"Delta":82590238},{"NoteNumber":61,"Velocity":51,"Duration":64033,"SoundDuration":64033,"Delta":82590238},{"NoteNumber":69,"Velocity":56,"Duration":260808,"SoundDuration":260808,"Delta":82760993},{"NoteNumber":73,"Velocity":56,"Duration":260808,"SoundDuration":260808,"Delta":82760993},{"NoteNumber":64,"Velocity":56,"Duration":260808,"SoundDuration":260808,"Delta":82760993},{"NoteNumber":61,"Velocity":55,"Duration":65202,"SoundDuration":65202,"Delta":82760993},{"NoteNumber":57,"Velocity":50,"Duration":65202,"SoundDuration":65202,"Delta":82934866},{"NoteNumber":73,"Velocity":58,"Duration":337591,"SoundDuration":337591,"Delta":83108738},{"NoteNumber":69,"Velocity":58,"Duration":337591,"SoundDuration":337591,"Delta":83108738},{"NoteNumber":76,"Velocity":58,"Duration":337591,"SoundDuration":337591,"Delta":83108738},{"NoteNumber":52,"Velocity":50,"Duration":63298,"SoundDuration":63298,"Delta":83108738},{"NoteNumber":45,"Velocity":50,"Duration":63298,"SoundDuration":63298,"Delta":83277534},{"NoteNumber":69,"Velocity":58,"Duration":337591,"SoundDuration":337591,"Delta":83446329},{"NoteNumber":78,"Velocity":58,"Duration":337591,"SoundDuration":337591,"Delta":83446329},{"NoteNumber":73,"Velocity":58,"Duration":337591,"SoundDuration":337591,"Delta":83446329},{"NoteNumber":42,"Velocity":60,"Duration":63298,"SoundDuration":63298,"Delta":83446329},{"NoteNumber":49,"Velocity":54,"Duration":63298,"SoundDuration":63298,"Delta":83615125},{"NoteNumber":73,"Velocity":54,"Duration":125062,"SoundDuration":125062,"Delta":83783920},{"NoteNumber":69,"Velocity":54,"Duration":125062,"SoundDuration":125062,"Delta":83783920},{"NoteNumber":78,"Velocity":54,"Duration":125062,"SoundDuration":125062,"Delta":83783920},{"NoteNumber":54,"Velocity":56,"Duration":62531,"SoundDuration":62531,"Delta":83783920},{"NoteNumber":80,"Velocity":54,"Duration":127370,"SoundDuration":127370,"Delta":83950670},{"NoteNumber":71,"Velocity":54,"Duration":127370,"SoundDuration":127370,"Delta":83950670},{"NoteNumber":73,"Velocity":54,"Duration":127370,"SoundDuration":127370,"Delta":83950670},{"NoteNumber":61,"Velocity":54,"Duration":63685,"SoundDuration":63685,"Delta":83950670},{"NoteNumber":73,"Velocity":54,"Duration":123994,"SoundDuration":123994,"Delta":84120498},{"NoteNumber":69,"Velocity":54,"Duration":123994,"SoundDuration":123994,"Delta":84120498},{"NoteNumber":78,"Velocity":54,"Duration":123994,"SoundDuration":123994,"Delta":84120498},{"NoteNumber":61,"Velocity":60,"Duration":61997,"SoundDuration":61997,"Delta":84120498},{"NoteNumber":71,"Velocity":54,"Duration":127370,"SoundDuration":127370,"Delta":84285823},{"NoteNumber":80,"Velocity":54,"Duration":127370,"SoundDuration":127370,"Delta":84285823},{"NoteNumber":73,"Velocity":54,"Duration":127370,"SoundDuration":127370,"Delta":84285823},{"NoteNumber":54,"Velocity":55,"Duration":63685,"SoundDuration":63685,"Delta":84285823},{"NoteNumber":73,"Velocity":57,"Duration":339655,"SoundDuration":339655,"Delta":84455651},{"NoteNumber":69,"Velocity":57,"Duration":339655,"SoundDuration":339655,"Delta":84455651},{"NoteNumber":78,"Velocity":57,"Duration":339655,"SoundDuration":339655,"Delta":84455651},{"NoteNumber":49,"Velocity":57,"Duration":63685,"SoundDuration":63685,"Delta":84455651},{"NoteNumber":42,"Velocity":55,"Duration":63685,"SoundDuration":63685,"Delta":84625478},{"NoteNumber":76,"Velocity":62,"Duration":347919,"SoundDuration":347919,"Delta":84795306},{"NoteNumber":69,"Velocity":62,"Duration":347919,"SoundDuration":347919,"Delta":84795306},{"NoteNumber":73,"Velocity":62,"Duration":347919,"SoundDuration":347919,"Delta":84795306},{"NoteNumber":45,"Velocity":55,"Duration":65376,"SoundDuration":65376,"Delta":84795306},{"NoteNumber":52,"Velocity":51,"Duration":65202,"SoundDuration":65202,"Delta":84969352},{"NoteNumber":69,"Velocity":56,"Duration":64033,"SoundDuration":64033,"Delta":85143225},{"NoteNumber":68,"Velocity":56,"Duration":64033,"SoundDuration":64033,"Delta":85143225},{"NoteNumber":73,"Velocity":56,"Duration":64033,"SoundDuration":64033,"Delta":85143225},{"NoteNumber":57,"Velocity":51,"Duration":64033,"SoundDuration":64033,"Delta":85143225},{"NoteNumber":68,"Velocity":56,"Duration":64033,"SoundDuration":64033,"Delta":85313980},{"NoteNumber":69,"Velocity":56,"Duration":64033,"SoundDuration":64033,"Delta":85313980},{"NoteNumber":73,"Velocity":56,"Duration":64033,"SoundDuration":64033,"Delta":85313980},{"NoteNumber":61,"Velocity":51,"Duration":64033,"SoundDuration":64033,"Delta":85313980},{"NoteNumber":69,"Velocity":56,"Duration":260808,"SoundDuration":260808,"Delta":85484736},{"NoteNumber":73,"Velocity":56,"Duration":260808,"SoundDuration":260808,"Delta":85484736},{"NoteNumber":66,"Velocity":56,"Duration":260808,"SoundDuration":260808,"Delta":85484736},{"NoteNumber":61,"Velocity":57,"Duration":65202,"SoundDuration":65202,"Delta":85484736},{"NoteNumber":57,"Velocity":52,"Duration":65202,"SoundDuration":65202,"Delta":85658608},{"NoteNumber":66,"Velocity":61,"Duration":350898,"SoundDuration":350898,"Delta":85832481},{"NoteNumber":64,"Velocity":61,"Duration":350898,"SoundDuration":350898,"Delta":85832481},{"NoteNumber":69,"Velocity":61,"Duration":350898,"SoundDuration":350898,"Delta":85832481},{"NoteNumber":52,"Velocity":57,"Duration":65793,"SoundDuration":65793,"Delta":85832481},{"NoteNumber":45,"Velocity":54,"Duration":65793,"SoundDuration":65793,"Delta":86007930},{"NoteNumber":73,"Velocity":64,"Duration":1377652,"SoundDuration":1377652,"Delta":86183379},{"NoteNumber":66,"Velocity":64,"Duration":1377652,"SoundDuration":1377652,"Delta":86183379},{"NoteNumber":69,"Velocity":64,"Duration":1377652,"SoundDuration":1377652,"Delta":86183379},{"NoteNumber":62,"Velocity":64,"Duration":1377652,"SoundDuration":1377652,"Delta":86183379},{"NoteNumber":38,"Velocity":60,"Duration":63276,"SoundDuration":63276,"Delta":86183379},{"NoteNumber":45,"Velocity":55,"Duration":63276,"SoundDuration":63276,"Delta":86352117},{"NoteNumber":50,"Velocity":57,"Duration":62531,"SoundDuration":62531,"Delta":86520856},{"NoteNumber":54,"Velocity":55,"Duration":63685,"SoundDuration":63685,"Delta":86687606},{"NoteNumber":54,"Velocity":60,"Duration":61997,"SoundDuration":61997,"Delta":86857433},{"NoteNumber":50,"Velocity":56,"Duration":63685,"SoundDuration":63685,"Delta":87022759},{"NoteNumber":45,"Velocity":58,"Duration":63416,"SoundDuration":63416,"Delta":87192586},{"NoteNumber":38,"Velocity":56,"Duration":74750,"SoundDuration":74750,"Delta":87361696},{"NoteNumber":62,"Velocity":30,"Duration":347919,"SoundDuration":347919,"Delta":87561031},{"NoteNumber":71,"Velocity":30,"Duration":347919,"SoundDuration":347919,"Delta":87561031},{"NoteNumber":67,"Velocity":30,"Duration":347919,"SoundDuration":347919,"Delta":87561031},{"NoteNumber":43,"Velocity":29,"Duration":65376,"SoundDuration":65376,"Delta":87561031},{"NoteNumber":50,"Velocity":27,"Duration":65202,"SoundDuration":65202,"Delta":87735078},{"NoteNumber":67,"Velocity":29,"Duration":64033,"SoundDuration":64033,"Delta":87908950},{"NoteNumber":59,"Velocity":29,"Duration":64033,"SoundDuration":64033,"Delta":87908950},{"NoteNumber":62,"Velocity":29,"Duration":64033,"SoundDuration":64033,"Delta":87908950},{"NoteNumber":55,"Velocity":27,"Duration":64033,"SoundDuration":64033,"Delta":87908950},{"NoteNumber":67,"Velocity":29,"Duration":64033,"SoundDuration":64033,"Delta":88079706},{"NoteNumber":59,"Velocity":29,"Duration":64033,"SoundDuration":64033,"Delta":88079706},{"NoteNumber":62,"Velocity":29,"Duration":64033,"SoundDuration":64033,"Delta":88079706},{"NoteNumber":50,"Velocity":27,"Duration":64033,"SoundDuration":64033,"Delta":88079706},{"NoteNumber":62,"Velocity":29,"Duration":173872,"SoundDuration":173872,"Delta":88250461},{"NoteNumber":59,"Velocity":29,"Duration":173872,"SoundDuration":173872,"Delta":88250461},{"NoteNumber":67,"Velocity":29,"Duration":173872,"SoundDuration":173872,"Delta":88250461},{"NoteNumber":43,"Velocity":29,"Duration":65202,"SoundDuration":65202,"Delta":88250461},{"NoteNumber":50,"Velocity":26,"Duration":65202,"SoundDuration":65202,"Delta":88424334},{"NoteNumber":62,"Velocity":30,"Duration":253193,"SoundDuration":253193,"Delta":88598206},{"NoteNumber":71,"Velocity":30,"Duration":253193,"SoundDuration":253193,"Delta":88598206},{"NoteNumber":67,"Velocity":30,"Duration":253193,"SoundDuration":253193,"Delta":88598206},{"NoteNumber":55,"Velocity":26,"Duration":63298,"SoundDuration":63298,"Delta":88598206},{"NoteNumber":50,"Velocity":26,"Duration":63298,"SoundDuration":63298,"Delta":88767002},{"NoteNumber":65,"Velocity":30,"Duration":337591,"SoundDuration":337591,"Delta":88935797},{"NoteNumber":60,"Velocity":30,"Duration":337591,"SoundDuration":337591,"Delta":88935797},{"NoteNumber":69,"Velocity":30,"Duration":337591,"SoundDuration":337591,"Delta":88935797},{"NoteNumber":38,"Velocity":29,"Duration":63298,"SoundDuration":63298,"Delta":88935797},{"NoteNumber":45,"Velocity":27,"Duration":63298,"SoundDuration":63298,"Delta":89104593},{"NoteNumber":69,"Velocity":28,"Duration":83375,"SoundDuration":83375,"Delta":89273388},{"NoteNumber":60,"Velocity":28,"Duration":83375,"SoundDuration":83375,"Delta":89273388},{"NoteNumber":65,"Velocity":28,"Duration":83375,"SoundDuration":83375,"Delta":89273388},{"NoteNumber":53,"Velocity":27,"Duration":62531,"SoundDuration":62531,"Delta":89273388},{"NoteNumber":71,"Velocity":28,"Duration":84913,"SoundDuration":84913,"Delta":89440138},{"NoteNumber":62,"Velocity":28,"Duration":84913,"SoundDuration":84913,"Delta":89440138},{"NoteNumber":65,"Velocity":28,"Duration":84913,"SoundDuration":84913,"Delta":89440138},{"NoteNumber":45,"Velocity":27,"Duration":63685,"SoundDuration":63685,"Delta":89440138},{"NoteNumber":65,"Velocity":28,"Duration":82662,"SoundDuration":82662,"Delta":89609966},{"NoteNumber":69,"Velocity":28,"Duration":82662,"SoundDuration":82662,"Delta":89609966},{"NoteNumber":60,"Velocity":28,"Duration":82662,"SoundDuration":82662,"Delta":89609966},{"NoteNumber":41,"Velocity":29,"Duration":61997,"SoundDuration":61997,"Delta":89609966},{"NoteNumber":65,"Velocity":28,"Duration":84913,"SoundDuration":84913,"Delta":89775291},{"NoteNumber":62,"Velocity":28,"Duration":84913,"SoundDuration":84913,"Delta":89775291},{"NoteNumber":71,"Velocity":28,"Duration":84913,"SoundDuration":84913,"Delta":89775291},{"NoteNumber":48,"Velocity":27,"Duration":63685,"SoundDuration":63685,"Delta":89775291},{"NoteNumber":64,"Velocity":30,"Duration":169827,"SoundDuration":169827,"Delta":89945119},{"NoteNumber":72,"Velocity":30,"Duration":169827,"SoundDuration":169827,"Delta":89945119},{"NoteNumber":65,"Velocity":30,"Duration":169827,"SoundDuration":169827,"Delta":89945119},{"NoteNumber":57,"Velocity":27,"Duration":63685,"SoundDuration":63685,"Delta":89945119},{"NoteNumber":48,"Velocity":27,"Duration":66017,"SoundDuration":66017,"Delta":90114946},{"NoteNumber":67,"Velocity":31,"Duration":347919,"SoundDuration":347919,"Delta":90290992},{"NoteNumber":62,"Velocity":31,"Duration":347919,"SoundDuration":347919,"Delta":90290992},{"NoteNumber":71,"Velocity":31,"Duration":347919,"SoundDuration":347919,"Delta":90290992},{"NoteNumber":43,"Velocity":29,"Duration":65376,"SoundDuration":65376,"Delta":90290992},{"NoteNumber":50,"Velocity":27,"Duration":65202,"SoundDuration":65202,"Delta":90465039},{"NoteNumber":67,"Velocity":28,"Duration":64033,"SoundDuration":64033,"Delta":90638911},{"NoteNumber":59,"Velocity":28,"Duration":64033,"SoundDuration":64033,"Delta":90638911},{"NoteNumber":62,"Velocity":28,"Duration":64033,"SoundDuration":64033,"Delta":90638911},{"NoteNumber":55,"Velocity":27,"Duration":64033,"SoundDuration":64033,"Delta":90638911},{"NoteNumber":62,"Velocity":28,"Duration":64033,"SoundDuration":64033,"Delta":90809667},{"NoteNumber":59,"Velocity":28,"Duration":64033,"SoundDuration":64033,"Delta":90809667},{"NoteNumber":67,"Velocity":28,"Duration":64033,"SoundDuration":64033,"Delta":90809667},{"NoteNumber":50,"Velocity":27,"Duration":64033,"SoundDuration":64033,"Delta":90809667},{"NoteNumber":59,"Velocity":29,"Duration":260808,"SoundDuration":260808,"Delta":90980422},{"NoteNumber":67,"Velocity":29,"Duration":260808,"SoundDuration":260808,"Delta":90980422},{"NoteNumber":62,"Velocity":29,"Duration":260808,"SoundDuration":260808,"Delta":90980422},{"NoteNumber":41,"Velocity":30,"Duration":65202,"SoundDuration":65202,"Delta":90980422},{"NoteNumber":50,"Velocity":28,"Duration":65202,"SoundDuration":65202,"Delta":91154295},{"NoteNumber":67,"Velocity":32,"Duration":350898,"SoundDuration":350898,"Delta":91328167},{"NoteNumber":62,"Velocity":32,"Duration":350898,"SoundDuration":350898,"Delta":91328167},{"NoteNumber":71,"Velocity":32,"Duration":350898,"SoundDuration":350898,"Delta":91328167},{"NoteNumber":55,"Velocity":29,"Duration":65793,"SoundDuration":65793,"Delta":91328167},{"NoteNumber":50,"Velocity":31,"Duration":65793,"SoundDuration":65793,"Delta":91503616},{"NoteNumber":64,"Velocity":35,"Duration":674259,"SoundDuration":674259,"Delta":91679065},{"NoteNumber":71,"Velocity":35,"Duration":674259,"SoundDuration":674259,"Delta":91679065},{"NoteNumber":68,"Velocity":35,"Duration":674259,"SoundDuration":674259,"Delta":91679065},{"NoteNumber":40,"Velocity":35,"Duration":168738,"SoundDuration":168738,"Delta":91679065},{"NoteNumber":47,"Velocity":39,"Duration":168738,"SoundDuration":168738,"Delta":91847804},{"NoteNumber":52,"Velocity":40,"Duration":166749,"SoundDuration":166749,"Delta":92016542},{"NoteNumber":56,"Velocity":41,"Duration":127370,"SoundDuration":127370,"Delta":92183292},{"NoteNumber":64,"Velocity":48,"Duration":523030,"SoundDuration":523030,"Delta":92353325},{"NoteNumber":52,"Velocity":46,"Duration":172154,"SoundDuration":172154,"Delta":92353325},{"NoteNumber":56,"Velocity":50,"Duration":173666,"SoundDuration":173666,"Delta":92525480},{"NoteNumber":59,"Velocity":54,"Duration":178698,"SoundDuration":178698,"Delta":92699146},{"NoteNumber":64,"Velocity":57,"Duration":195439,"SoundDuration":195439,"Delta":92877845},{"NoteNumber":76,"Velocity":63,"Duration":348584,"SoundDuration":348584,"Delta":93073284},{"NoteNumber":69,"Velocity":63,"Duration":348584,"SoundDuration":348584,"Delta":93073284},{"NoteNumber":73,"Velocity":63,"Duration":348584,"SoundDuration":348584,"Delta":93073284},{"NoteNumber":57,"Velocity":60,"Duration":66042,"SoundDuration":66042,"Delta":93073284},{"NoteNumber":61,"Velocity":56,"Duration":65202,"SoundDuration":65202,"Delta":93247997},{"NoteNumber":69,"Velocity":61,"Duration":64033,"SoundDuration":64033,"Delta":93421869},{"NoteNumber":73,"Velocity":61,"Duration":64033,"SoundDuration":64033,"Delta":93421869},{"NoteNumber":64,"Velocity":56,"Duration":64033,"SoundDuration":64033,"Delta":93421869},{"NoteNumber":73,"Velocity":61,"Duration":64033,"SoundDuration":64033,"Delta":93592625},{"NoteNumber":69,"Velocity":61,"Duration":64033,"SoundDuration":64033,"Delta":93592625},{"NoteNumber":61,"Velocity":56,"Duration":64033,"SoundDuration":64033,"Delta":93592625},{"NoteNumber":69,"Velocity":61,"Duration":260808,"SoundDuration":260808,"Delta":93763380},{"NoteNumber":73,"Velocity":61,"Duration":260808,"SoundDuration":260808,"Delta":93763380},{"NoteNumber":56,"Velocity":60,"Duration":65202,"SoundDuration":65202,"Delta":93763380},{"NoteNumber":61,"Velocity":55,"Duration":65202,"SoundDuration":65202,"Delta":93937253},{"NoteNumber":76,"Velocity":63,"Duration":337591,"SoundDuration":337591,"Delta":94111125},{"NoteNumber":69,"Velocity":63,"Duration":337591,"SoundDuration":337591,"Delta":94111125},{"NoteNumber":73,"Velocity":63,"Duration":337591,"SoundDuration":337591,"Delta":94111125},{"NoteNumber":64,"Velocity":55,"Duration":63298,"SoundDuration":63298,"Delta":94111125},{"NoteNumber":61,"Velocity":55,"Duration":63298,"SoundDuration":63298,"Delta":94279921},{"NoteNumber":73,"Velocity":63,"Duration":337591,"SoundDuration":337591,"Delta":94448716},{"NoteNumber":69,"Velocity":63,"Duration":337591,"SoundDuration":337591,"Delta":94448716},{"NoteNumber":78,"Velocity":63,"Duration":337591,"SoundDuration":337591,"Delta":94448716},{"NoteNumber":54,"Velocity":66,"Duration":63298,"SoundDuration":63298,"Delta":94448716},{"NoteNumber":61,"Velocity":58,"Duration":63298,"SoundDuration":63298,"Delta":94617512},{"NoteNumber":69,"Velocity":56,"Duration":124986,"SoundDuration":124986,"Delta":94786307},{"NoteNumber":78,"Velocity":56,"Duration":124986,"SoundDuration":124986,"Delta":94786307},{"NoteNumber":73,"Velocity":56,"Duration":124986,"SoundDuration":124986,"Delta":94786307},{"NoteNumber":66,"Velocity":61,"Duration":62493,"SoundDuration":62493,"Delta":94786307},{"NoteNumber":73,"Velocity":56,"Duration":127862,"SoundDuration":127862,"Delta":94952955},{"NoteNumber":71,"Velocity":56,"Duration":127862,"SoundDuration":127862,"Delta":94952955},{"NoteNumber":80,"Velocity":56,"Duration":127862,"SoundDuration":127862,"Delta":94952955},{"NoteNumber":61,"Velocity":58,"Duration":63931,"SoundDuration":63931,"Delta":94952955},{"NoteNumber":78,"Velocity":58,"Duration":124986,"SoundDuration":124986,"Delta":95123439},{"NoteNumber":69,"Velocity":58,"Duration":124986,"SoundDuration":124986,"Delta":95123439},{"NoteNumber":74,"Velocity":58,"Duration":124986,"SoundDuration":124986,"Delta":95123439},{"NoteNumber":54,"Velocity":66,"Duration":62493,"SoundDuration":62493,"Delta":95123439},{"NoteNumber":74,"Velocity":57,"Duration":127862,"SoundDuration":127862,"Delta":95290087},{"NoteNumber":69,"Velocity":57,"Duration":127862,"SoundDuration":127862,"Delta":95290087},{"NoteNumber":80,"Velocity":57,"Duration":127862,"SoundDuration":127862,"Delta":95290087},{"NoteNumber":57,"Velocity":60,"Duration":63931,"SoundDuration":63931,"Delta":95290087},{"NoteNumber":69,"Velocity":61,"Duration":339040,"SoundDuration":339040,"Delta":95460570},{"NoteNumber":78,"Velocity":61,"Duration":339040,"SoundDuration":339040,"Delta":95460570},{"NoteNumber":74,"Velocity":61,"Duration":339040,"SoundDuration":339040,"Delta":95460570},{"NoteNumber":66,"Velocity":62,"Duration":63570,"SoundDuration":63570,"Delta":95460570},{"NoteNumber":57,"Velocity":60,"Duration":63570,"SoundDuration":63570,"Delta":95630091},{"NoteNumber":73,"Velocity":68,"Duration":347919,"SoundDuration":347919,"Delta":95799611},{"NoteNumber":69,"Velocity":68,"Duration":347919,"SoundDuration":347919,"Delta":95799611},{"NoteNumber":76,"Velocity":68,"Duration":347919,"SoundDuration":347919,"Delta":95799611},{"NoteNumber":45,"Velocity":60,"Duration":65376,"SoundDuration":65376,"Delta":95799611},{"NoteNumber":52,"Velocity":56,"Duration":65202,"SoundDuration":65202,"Delta":95973658},{"NoteNumber":73,"Velocity":61,"Duration":64033,"SoundDuration":64033,"Delta":96147530},{"NoteNumber":68,"Velocity":61,"Duration":64033,"SoundDuration":64033,"Delta":96147530},{"NoteNumber":69,"Velocity":61,"Duration":64033,"SoundDuration":64033,"Delta":96147530},{"NoteNumber":61,"Velocity":56,"Duration":64033,"SoundDuration":64033,"Delta":96147530},{"NoteNumber":73,"Velocity":61,"Duration":64033,"SoundDuration":64033,"Delta":96318286},{"NoteNumber":69,"Velocity":61,"Duration":64033,"SoundDuration":64033,"Delta":96318286},{"NoteNumber":68,"Velocity":61,"Duration":64033,"SoundDuration":64033,"Delta":96318286},{"NoteNumber":52,"Velocity":56,"Duration":64033,"SoundDuration":64033,"Delta":96318286},{"NoteNumber":69,"Velocity":61,"Duration":263296,"SoundDuration":263296,"Delta":96489041},{"NoteNumber":66,"Velocity":61,"Duration":263296,"SoundDuration":263296,"Delta":96489041},{"NoteNumber":73,"Velocity":61,"Duration":263296,"SoundDuration":263296,"Delta":96489041},{"NoteNumber":42,"Velocity":62,"Duration":65824,"SoundDuration":65824,"Delta":96489041},{"NoteNumber":49,"Velocity":57,"Duration":65824,"SoundDuration":65824,"Delta":96664572},{"NoteNumber":69,"Velocity":63,"Duration":355260,"SoundDuration":355260,"Delta":96840103},{"NoteNumber":64,"Velocity":63,"Duration":355260,"SoundDuration":355260,"Delta":96840103},{"NoteNumber":66,"Velocity":63,"Duration":355260,"SoundDuration":355260,"Delta":96840103},{"NoteNumber":57,"Velocity":62,"Duration":66611,"SoundDuration":66611,"Delta":96840103},{"NoteNumber":49,"Velocity":58,"Duration":66611,"SoundDuration":66611,"Delta":97017734},{"NoteNumber":63,"Velocity":67,"Duration":1690362,"SoundDuration":1690362,"Delta":97195364},{"NoteNumber":73,"Velocity":67,"Duration":1690362,"SoundDuration":1690362,"Delta":97195364},{"NoteNumber":69,"Velocity":67,"Duration":1690362,"SoundDuration":1690362,"Delta":97195364},{"NoteNumber":66,"Velocity":67,"Duration":1690362,"SoundDuration":1690362,"Delta":97195364},{"NoteNumber":35,"Velocity":63,"Duration":63276,"SoundDuration":63276,"Delta":97195364},{"NoteNumber":42,"Velocity":57,"Duration":63276,"SoundDuration":63276,"Delta":97364103},{"NoteNumber":47,"Velocity":61,"Duration":62531,"SoundDuration":62531,"Delta":97532841},{"NoteNumber":42,"Velocity":57,"Duration":63685,"SoundDuration":63685,"Delta":97699591},{"NoteNumber":42,"Velocity":62,"Duration":61997,"SoundDuration":61997,"Delta":97869419},{"NoteNumber":47,"Velocity":57,"Duration":63685,"SoundDuration":63685,"Delta":98034744},{"NoteNumber":54,"Velocity":61,"Duration":63416,"SoundDuration":63416,"Delta":98204572},{"NoteNumber":47,"Velocity":57,"Duration":63416,"SoundDuration":63416,"Delta":98373681},{"NoteNumber":47,"Velocity":54,"Duration":64300,"SoundDuration":64300,"Delta":98542791},{"NoteNumber":54,"Velocity":44,"Duration":64300,"SoundDuration":64300,"Delta":98714259},{"NoteNumber":69,"Velocity":51,"Duration":84269,"SoundDuration":84269,"Delta":98885727},{"NoteNumber":61,"Velocity":51,"Duration":84269,"SoundDuration":84269,"Delta":98885727},{"NoteNumber":66,"Velocity":51,"Duration":84269,"SoundDuration":84269,"Delta":98885727},{"NoteNumber":59,"Velocity":44,"Duration":63202,"SoundDuration":63202,"Delta":98885727},{"NoteNumber":61,"Velocity":51,"Duration":84269,"SoundDuration":84269,"Delta":99054266},{"NoteNumber":69,"Velocity":51,"Duration":84269,"SoundDuration":84269,"Delta":99054266},{"NoteNumber":66,"Velocity":51,"Duration":84269,"SoundDuration":84269,"Delta":99054266},{"NoteNumber":54,"Velocity":44,"Duration":63202,"SoundDuration":63202,"Delta":99054266},{"NoteNumber":63,"Velocity":51,"Duration":260808,"SoundDuration":260808,"Delta":99222806},{"NoteNumber":59,"Velocity":51,"Duration":260808,"SoundDuration":260808,"Delta":99222806},{"NoteNumber":66,"Velocity":51,"Duration":260808,"SoundDuration":260808,"Delta":99222806},{"NoteNumber":42,"Velocity":51,"Duration":65202,"SoundDuration":65202,"Delta":99222806},{"NoteNumber":49,"Velocity":45,"Duration":65202,"SoundDuration":65202,"Delta":99396678},{"NoteNumber":69,"Velocity":54,"Duration":253193,"SoundDuration":253193,"Delta":99570551},{"NoteNumber":64,"Velocity":54,"Duration":253193,"SoundDuration":253193,"Delta":99570551},{"NoteNumber":66,"Velocity":54,"Duration":253193,"SoundDuration":253193,"Delta":99570551},{"NoteNumber":54,"Velocity":45,"Duration":63298,"SoundDuration":63298,"Delta":99570551},{"NoteNumber":49,"Velocity":45,"Duration":63298,"SoundDuration":63298,"Delta":99739346},{"NoteNumber":69,"Velocity":56,"Duration":339982,"SoundDuration":339982,"Delta":99908142},{"NoteNumber":63,"Velocity":56,"Duration":339982,"SoundDuration":339982,"Delta":99908142},{"NoteNumber":73,"Velocity":56,"Duration":339982,"SoundDuration":339982,"Delta":99908142},{"NoteNumber":47,"Velocity":55,"Duration":63746,"SoundDuration":63746,"Delta":99908142},{"NoteNumber":54,"Velocity":50,"Duration":63746,"SoundDuration":63746,"Delta":100078133},{"NoteNumber":61,"Velocity":54,"Duration":83560,"SoundDuration":83560,"Delta":100248124},{"NoteNumber":69,"Velocity":54,"Duration":83560,"SoundDuration":83560,"Delta":100248124},{"NoteNumber":66,"Velocity":54,"Duration":83560,"SoundDuration":83560,"Delta":100248124},{"NoteNumber":59,"Velocity":50,"Duration":62670,"SoundDuration":62670,"Delta":100248124},{"NoteNumber":66,"Velocity":54,"Duration":83560,"SoundDuration":83560,"Delta":100415245},{"NoteNumber":61,"Velocity":54,"Duration":83560,"SoundDuration":83560,"Delta":100415245},{"NoteNumber":69,"Velocity":54,"Duration":83560,"SoundDuration":83560,"Delta":100415245},{"NoteNumber":54,"Velocity":50,"Duration":62670,"SoundDuration":62670,"Delta":100415245},{"NoteNumber":59,"Velocity":56,"Duration":254280,"SoundDuration":254280,"Delta":100582367},{"NoteNumber":66,"Velocity":56,"Duration":254280,"SoundDuration":254280,"Delta":100582367},{"NoteNumber":63,"Velocity":56,"Duration":254280,"SoundDuration":254280,"Delta":100582367},{"NoteNumber":42,"Velocity":56,"Duration":63570,"SoundDuration":63570,"Delta":100582367},{"NoteNumber":49,"Velocity":52,"Duration":63570,"SoundDuration":63570,"Delta":100751887},{"NoteNumber":64,"Velocity":58,"Duration":257543,"SoundDuration":257543,"Delta":100921408},{"NoteNumber":69,"Velocity":58,"Duration":257543,"SoundDuration":257543,"Delta":100921408},{"NoteNumber":66,"Velocity":58,"Duration":257543,"SoundDuration":257543,"Delta":100921408},{"NoteNumber":54,"Velocity":52,"Duration":63570,"SoundDuration":63570,"Delta":100921408},{"NoteNumber":49,"Velocity":54,"Duration":66017,"SoundDuration":66017,"Delta":101090928},{"NoteNumber":69,"Velocity":67,"Duration":347919,"SoundDuration":347919,"Delta":101266974},{"NoteNumber":63,"Velocity":67,"Duration":347919,"SoundDuration":347919,"Delta":101266974},{"NoteNumber":73,"Velocity":67,"Duration":347919,"SoundDuration":347919,"Delta":101266974},{"NoteNumber":47,"Velocity":63,"Duration":65376,"SoundDuration":65376,"Delta":101266974},{"NoteNumber":54,"Velocity":57,"Duration":65202,"SoundDuration":65202,"Delta":101441021},{"NoteNumber":69,"Velocity":66,"Duration":695723,"SoundDuration":695723,"Delta":101614893},{"NoteNumber":61,"Velocity":66,"Duration":695723,"SoundDuration":695723,"Delta":101614893},{"NoteNumber":66,"Velocity":66,"Duration":695723,"SoundDuration":695723,"Delta":101614893},{"NoteNumber":59,"Velocity":57,"Duration":64033,"SoundDuration":64033,"Delta":101614893},{"NoteNumber":54,"Velocity":57,"Duration":64033,"SoundDuration":64033,"Delta":101785649},{"NoteNumber":42,"Velocity":68,"Duration":66414,"SoundDuration":66414,"Delta":101956404},{"NoteNumber":49,"Velocity":58,"Duration":66414,"SoundDuration":66414,"Delta":102133510},{"NoteNumber":69,"Velocity":73,"Duration":363788,"SoundDuration":363788,"Delta":102310616},{"NoteNumber":66,"Velocity":73,"Duration":363788,"SoundDuration":363788,"Delta":102310616},{"NoteNumber":73,"Velocity":73,"Duration":363788,"SoundDuration":363788,"Delta":102310616},{"NoteNumber":54,"Velocity":62,"Duration":68247,"SoundDuration":68247,"Delta":102310616},{"NoteNumber":49,"Velocity":66,"Duration":68247,"SoundDuration":68247,"Delta":102492611},{"NoteNumber":68,"Velocity":73,"Duration":174926,"SoundDuration":174926,"Delta":102674404},{"NoteNumber":75,"Velocity":73,"Duration":174926,"SoundDuration":174926,"Delta":102674404},{"NoteNumber":63,"Velocity":66,"Duration":174926,"SoundDuration":174926,"Delta":102849331},{"NoteNumber":32,"Velocity":64,"Duration":168539,"SoundDuration":168539,"Delta":103024258},{"NoteNumber":39,"Velocity":64,"Duration":168539,"SoundDuration":168539,"Delta":103024258},{"NoteNumber":44,"Velocity":66,"Duration":170940,"SoundDuration":170940,"Delta":103192798},{"NoteNumber":44,"Velocity":68,"Duration":167130,"SoundDuration":167130,"Delta":103363738},{"NoteNumber":51,"Velocity":69,"Duration":169491,"SoundDuration":169491,"Delta":103530869},{"NoteNumber":63,"Velocity":72,"Duration":165745,"SoundDuration":165745,"Delta":103700360},{"NoteNumber":56,"Velocity":69,"Duration":168066,"SoundDuration":168066,"Delta":103866106},{"NoteNumber":56,"Velocity":75,"Duration":163934,"SoundDuration":163934,"Delta":104034173},{"NoteNumber":63,"Velocity":70,"Duration":166205,"SoundDuration":166205,"Delta":104198108},{"NoteNumber":75,"Velocity":74,"Duration":164834,"SoundDuration":164834,"Delta":104364313},{"NoteNumber":68,"Velocity":72,"Duration":166666,"SoundDuration":166666,"Delta":104529148},{"NoteNumber":68,"Velocity":70,"Duration":166666,"SoundDuration":166666,"Delta":104697215},{"NoteNumber":75,"Velocity":66,"Duration":169491,"SoundDuration":169491,"Delta":104863881},{"NoteNumber":87,"Velocity":67,"Duration":170454,"SoundDuration":170454,"Delta":105033373},{"NoteNumber":80,"Velocity":62,"Duration":188087,"SoundDuration":188087,"Delta":105203827},{"NoteNumber":87,"Velocity":52,"Duration":356843,"SoundDuration":356843,"Delta":105391915},{"NoteNumber":84,"Velocity":52,"Duration":355354,"SoundDuration":355354,"Delta":105391915},{"NoteNumber":68,"Velocity":32,"Duration":178197,"SoundDuration":178197,"Delta":105391915},{"NoteNumber":72,"Velocity":30,"Duration":178646,"SoundDuration":178646,"Delta":105570113},{"NoteNumber":84,"Velocity":51,"Duration":348837,"SoundDuration":348837,"Delta":105748759},{"NoteNumber":75,"Velocity":30,"Duration":174418,"SoundDuration":174418,"Delta":105748759},{"NoteNumber":72,"Velocity":30,"Duration":174418,"SoundDuration":174418,"Delta":105923177},{"NoteNumber":83,"Velocity":52,"Duration":705318,"SoundDuration":705318,"Delta":106097596},{"NoteNumber":87,"Velocity":52,"Duration":355219,"SoundDuration":355219,"Delta":106097596},{"NoteNumber":68,"Velocity":32,"Duration":177609,"SoundDuration":177609,"Delta":106097596},{"NoteNumber":71,"Velocity":30,"Duration":177609,"SoundDuration":177609,"Delta":106275205},{"NoteNumber":91,"Velocity":51,"Duration":350099,"SoundDuration":350099,"Delta":106452815},{"NoteNumber":75,"Velocity":30,"Duration":175049,"SoundDuration":175049,"Delta":106452815},{"NoteNumber":71,"Velocity":30,"Duration":175049,"SoundDuration":175049,"Delta":106627864},{"NoteNumber":87,"Velocity":52,"Duration":704268,"SoundDuration":704268,"Delta":106802914},{"NoteNumber":84,"Velocity":52,"Duration":704268,"SoundDuration":704268,"Delta":106802914},{"NoteNumber":68,"Velocity":32,"Duration":175049,"SoundDuration":175049,"Delta":106802914},{"NoteNumber":72,"Velocity":30,"Duration":175049,"SoundDuration":175049,"Delta":106977963},{"NoteNumber":75,"Velocity":30,"Duration":177085,"SoundDuration":177085,"Delta":107153013},{"NoteNumber":72,"Velocity":30,"Duration":177084,"SoundDuration":177084,"Delta":107330098},{"NoteNumber":80,"Velocity":47,"Duration":1386371,"SoundDuration":1386371,"Delta":107507183},{"NoteNumber":84,"Velocity":52,"Duration":350099,"SoundDuration":350099,"Delta":107507183},{"NoteNumber":67,"Velocity":32,"Duration":175049,"SoundDuration":175049,"Delta":107507183},{"NoteNumber":68,"Velocity":30,"Duration":175049,"SoundDuration":175049,"Delta":107682232},{"NoteNumber":87,"Velocity":52,"Duration":339386,"SoundDuration":339386,"Delta":107857282},{"NoteNumber":72,"Velocity":30,"Duration":169692,"SoundDuration":169692,"Delta":107857282},{"NoteNumber":67,"Velocity":30,"Duration":169693,"SoundDuration":169693,"Delta":108026975},{"NoteNumber":84,"Velocity":52,"Duration":230096,"SoundDuration":230096,"Delta":108196668},{"NoteNumber":65,"Velocity":32,"Duration":172572,"SoundDuration":172572,"Delta":108196668},{"NoteNumber":68,"Velocity":30,"Duration":172572,"SoundDuration":172572,"Delta":108369240},{"NoteNumber":82,"Velocity":50,"Duration":230096,"SoundDuration":230096,"Delta":108426764},{"NoteNumber":72,"Velocity":30,"Duration":172572,"SoundDuration":172572,"Delta":108541813},{"NoteNumber":84,"Velocity":50,"Duration":236692,"SoundDuration":236692,"Delta":108656861},{"NoteNumber":68,"Velocity":30,"Duration":179168,"SoundDuration":179168,"Delta":108714385},{"NoteNumber":80,"Velocity":48,"Duration":362602,"SoundDuration":362602,"Delta":108893554},{"NoteNumber":79,"Velocity":40,"Duration":723150,"SoundDuration":723150,"Delta":108893554},{"NoteNumber":63,"Velocity":32,"Duration":181301,"SoundDuration":181301,"Delta":108893554},{"NoteNumber":67,"Velocity":28,"Duration":181301,"SoundDuration":181301,"Delta":109074855},{"NoteNumber":84,"Velocity":48,"Duration":360547,"SoundDuration":360547,"Delta":109256157},{"NoteNumber":68,"Velocity":28,"Duration":179640,"SoundDuration":179640,"Delta":109256157},{"NoteNumber":67,"Velocity":28,"Duration":180906,"SoundDuration":180906,"Delta":109435797},{"NoteNumber":77,"Velocity":41,"Duration":714370,"SoundDuration":714370,"Delta":109616704},{"NoteNumber":82,"Velocity":47,"Duration":714370,"SoundDuration":714370,"Delta":109616704},{"NoteNumber":61,"Velocity":30,"Duration":178592,"SoundDuration":178592,"Delta":109616704},{"NoteNumber":65,"Velocity":28,"Duration":178592,"SoundDuration":178592,"Delta":109795297},{"NoteNumber":68,"Velocity":28,"Duration":178592,"SoundDuration":178592,"Delta":109973889},{"NoteNumber":65,"Velocity":28,"Duration":178592,"SoundDuration":178592,"Delta":110152482},{"NoteNumber":70,"Velocity":47,"Duration":359346,"SoundDuration":359346,"Delta":110331074},{"NoteNumber":63,"Velocity":31,"Duration":179672,"SoundDuration":179672,"Delta":110331074},{"NoteNumber":65,"Velocity":29,"Duration":179673,"SoundDuration":179673,"Delta":110510747},{"NoteNumber":72,"Velocity":49,"Duration":363747,"SoundDuration":363747,"Delta":110690420},{"NoteNumber":68,"Velocity":33,"Duration":181873,"SoundDuration":181873,"Delta":110690420},{"NoteNumber":65,"Velocity":30,"Duration":181873,"SoundDuration":181873,"Delta":110872294},{"NoteNumber":73,"Velocity":52,"Duration":714370,"SoundDuration":714370,"Delta":111054167},{"NoteNumber":65,"Velocity":34,"Duration":714370,"SoundDuration":714370,"Delta":111054167},{"NoteNumber":68,"Velocity":30,"Duration":178592,"SoundDuration":178592,"Delta":111232760},{"NoteNumber":70,"Velocity":30,"Duration":178592,"SoundDuration":178592,"Delta":111411352},{"NoteNumber":68,"Velocity":30,"Duration":178592,"SoundDuration":178592,"Delta":111589945},{"NoteNumber":72,"Velocity":47,"Duration":353982,"SoundDuration":353982,"Delta":111768537},{"NoteNumber":63,"Velocity":32,"Duration":716628,"SoundDuration":716628,"Delta":111768537},{"NoteNumber":67,"Velocity":28,"Duration":176991,"SoundDuration":176991,"Delta":111945528},{"NoteNumber":77,"Velocity":49,"Duration":362646,"SoundDuration":362646,"Delta":112122519},{"NoteNumber":68,"Velocity":30,"Duration":181323,"SoundDuration":181323,"Delta":112122519},{"NoteNumber":67,"Velocity":28,"Duration":181323,"SoundDuration":181323,"Delta":112303843},{"NoteNumber":70,"Velocity":45,"Duration":714370,"SoundDuration":714370,"Delta":112485166},{"NoteNumber":61,"Velocity":30,"Duration":714370,"SoundDuration":714370,"Delta":112485166},{"NoteNumber":65,"Velocity":28,"Duration":178592,"SoundDuration":178592,"Delta":112663759},{"NoteNumber":67,"Velocity":28,"Duration":178592,"SoundDuration":178592,"Delta":112842351},{"NoteNumber":65,"Velocity":28,"Duration":178592,"SoundDuration":178592,"Delta":113020944},{"NoteNumber":68,"Velocity":47,"Duration":352919,"SoundDuration":352919,"Delta":113199536},{"NoteNumber":60,"Velocity":30,"Duration":718930,"SoundDuration":718930,"Delta":113199536},{"NoteNumber":63,"Velocity":28,"Duration":176459,"SoundDuration":176459,"Delta":113375996},{"NoteNumber":77,"Velocity":49,"Duration":366010,"SoundDuration":366010,"Delta":113552456},{"NoteNumber":65,"Velocity":28,"Duration":183004,"SoundDuration":183004,"Delta":113552456},{"NoteNumber":63,"Velocity":28,"Duration":183005,"SoundDuration":183005,"Delta":113735461},{"NoteNumber":67,"Velocity":40,"Duration":731273,"SoundDuration":731273,"Delta":113918466},{"NoteNumber":58,"Velocity":30,"Duration":731273,"SoundDuration":731273,"Delta":113918466},{"NoteNumber":61,"Velocity":26,"Duration":178592,"SoundDuration":178592,"Delta":114097059},{"NoteNumber":63,"Velocity":26,"Duration":187044,"SoundDuration":187044,"Delta":114275651},{"NoteNumber":61,"Velocity":26,"Duration":187044,"SoundDuration":187044,"Delta":114462695},{"NoteNumber":65,"Velocity":44,"Duration":386274,"SoundDuration":386274,"Delta":114649739},{"NoteNumber":56,"Velocity":30,"Duration":781557,"SoundDuration":781557,"Delta":114649739},{"NoteNumber":60,"Velocity":26,"Duration":193137,"SoundDuration":193137,"Delta":114842876},{"NoteNumber":77,"Velocity":44,"Duration":395283,"SoundDuration":395283,"Delta":115036013},{"NoteNumber":61,"Velocity":26,"Duration":197641,"SoundDuration":197641,"Delta":115036013},{"NoteNumber":60,"Velocity":26,"Duration":197641,"SoundDuration":197641,"Delta":115233655},{"NoteNumber":63,"Velocity":38,"Duration":1875679,"SoundDuration":1875679,"Delta":115431296},{"NoteNumber":55,"Velocity":28,"Duration":780166,"SoundDuration":780166,"Delta":115431296},{"NoteNumber":58,"Velocity":25,"Duration":194175,"SoundDuration":194175,"Delta":115628938},{"NoteNumber":61,"Velocity":25,"Duration":194175,"SoundDuration":194175,"Delta":115823113},{"NoteNumber":58,"Velocity":25,"Duration":194175,"SoundDuration":194175,"Delta":116017288},{"NoteNumber":53,"Velocity":33,"Duration":371516,"SoundDuration":371516,"Delta":116211463},{"NoteNumber":58,"Velocity":28,"Duration":185758,"SoundDuration":185758,"Delta":116397221},{"NoteNumber":61,"Velocity":28,"Duration":185758,"SoundDuration":185758,"Delta":116397221},{"NoteNumber":51,"Velocity":31,"Duration":360360,"SoundDuration":360360,"Delta":116582980},{"NoteNumber":58,"Velocity":28,"Duration":180180,"SoundDuration":180180,"Delta":116763160},{"NoteNumber":61,"Velocity":28,"Duration":180180,"SoundDuration":180180,"Delta":116763160},{"NoteNumber":44,"Velocity":28,"Duration":181818,"SoundDuration":181818,"Delta":116943340},{"NoteNumber":48,"Velocity":27,"Duration":181817,"SoundDuration":181817,"Delta":117125158},{"NoteNumber":60,"Velocity":38,"Duration":338235,"SoundDuration":338235,"Delta":117306976},{"NoteNumber":44,"Velocity":27,"Duration":176470,"SoundDuration":176470,"Delta":117306976},{"NoteNumber":48,"Velocity":27,"Duration":176470,"SoundDuration":176470,"Delta":117483446},{"NoteNumber":63,"Velocity":39,"Duration":360555,"SoundDuration":360555,"Delta":117659917},{"NoteNumber":59,"Velocity":39,"Duration":713912,"SoundDuration":713912,"Delta":117659917},{"NoteNumber":43,"Velocity":28,"Duration":180277,"SoundDuration":180277,"Delta":117659917},{"NoteNumber":51,"Velocity":27,"Duration":180277,"SoundDuration":180277,"Delta":117840194},{"NoteNumber":67,"Velocity":36,"Duration":353357,"SoundDuration":353357,"Delta":118020472},{"NoteNumber":43,"Velocity":27,"Duration":176678,"SoundDuration":176678,"Delta":118020472},{"NoteNumber":51,"Velocity":27,"Duration":176678,"SoundDuration":176678,"Delta":118197150},{"NoteNumber":60,"Velocity":39,"Duration":710926,"SoundDuration":710926,"Delta":118373829},{"NoteNumber":63,"Velocity":39,"Duration":710926,"SoundDuration":710926,"Delta":118373829},{"NoteNumber":44,"Velocity":28,"Duration":176678,"SoundDuration":176678,"Delta":118373829},{"NoteNumber":51,"Velocity":27,"Duration":176678,"SoundDuration":176678,"Delta":118550507},{"NoteNumber":44,"Velocity":27,"Duration":178784,"SoundDuration":178784,"Delta":118727186},{"NoteNumber":51,"Velocity":27,"Duration":178784,"SoundDuration":178784,"Delta":118905970},{"NoteNumber":60,"Velocity":39,"Duration":349486,"SoundDuration":349486,"Delta":119084755},{"NoteNumber":58,"Velocity":35,"Duration":1147653,"SoundDuration":1147653,"Delta":119084755},{"NoteNumber":43,"Velocity":28,"Duration":174743,"SoundDuration":174743,"Delta":119084755},{"NoteNumber":51,"Velocity":27,"Duration":174743,"SoundDuration":174743,"Delta":119259498},{"NoteNumber":63,"Velocity":39,"Duration":338791,"SoundDuration":338791,"Delta":119434242},{"NoteNumber":43,"Velocity":27,"Duration":169396,"SoundDuration":169396,"Delta":119434242},{"NoteNumber":51,"Velocity":27,"Duration":169395,"SoundDuration":169395,"Delta":119603638},{"NoteNumber":60,"Velocity":39,"Duration":229687,"SoundDuration":229687,"Delta":119773034},{"NoteNumber":41,"Velocity":28,"Duration":172265,"SoundDuration":172265,"Delta":119773034},{"NoteNumber":48,"Velocity":27,"Duration":172265,"SoundDuration":172265,"Delta":119945299},{"NoteNumber":58,"Velocity":37,"Duration":465957,"SoundDuration":465957,"Delta":120002721},{"NoteNumber":41,"Velocity":27,"Duration":172265,"SoundDuration":172265,"Delta":120117565},{"NoteNumber":60,"Velocity":37,"Duration":236269,"SoundDuration":236269,"Delta":120232408},{"NoteNumber":48,"Velocity":27,"Duration":178848,"SoundDuration":178848,"Delta":120289830},{"NoteNumber":56,"Velocity":36,"Duration":367399,"SoundDuration":367399,"Delta":120468678},{"NoteNumber":55,"Velocity":30,"Duration":740557,"SoundDuration":740557,"Delta":120468678},{"NoteNumber":39,"Velocity":28,"Duration":183699,"SoundDuration":183699,"Delta":120468678},{"NoteNumber":48,"Velocity":25,"Duration":183699,"SoundDuration":183699,"Delta":120652378},{"NoteNumber":60,"Velocity":35,"Duration":373158,"SoundDuration":373158,"Delta":120836077},{"NoteNumber":39,"Velocity":25,"Duration":186578,"SoundDuration":186578,"Delta":120836077},{"NoteNumber":48,"Velocity":25,"Duration":186579,"SoundDuration":186579,"Delta":121022656},{"NoteNumber":50,"Velocity":25,"Duration":1613424,"SoundDuration":1613424,"Delta":121209235},{"NoteNumber":58,"Velocity":34,"Duration":764331,"SoundDuration":764331,"Delta":121209235},{"NoteNumber":53,"Velocity":25,"Duration":1613424,"SoundDuration":1613424,"Delta":121209235},{"NoteNumber":32,"Velocity":27,"Duration":191083,"SoundDuration":191083,"Delta":121209235},{"NoteNumber":44,"Velocity":25,"Duration":191082,"SoundDuration":191082,"Delta":121400318},{"NoteNumber":32,"Velocity":25,"Duration":191083,"SoundDuration":191083,"Delta":121591401},{"NoteNumber":44,"Velocity":25,"Duration":191082,"SoundDuration":191082,"Delta":121782484},{"NoteNumber":56,"Velocity":29,"Duration":406779,"SoundDuration":406779,"Delta":121973567},{"NoteNumber":32,"Velocity":25,"Duration":203389,"SoundDuration":203389,"Delta":121973567},{"NoteNumber":44,"Velocity":25,"Duration":203389,"SoundDuration":203389,"Delta":122176957},{"NoteNumber":58,"Velocity":27,"Duration":442312,"SoundDuration":442312,"Delta":122380347},{"NoteNumber":32,"Velocity":25,"Duration":222222,"SoundDuration":222222,"Delta":122380347},{"NoteNumber":44,"Velocity":25,"Duration":220090,"SoundDuration":220090,"Delta":122602569},{"NoteNumber":68,"Velocity":28,"Duration":346664,"SoundDuration":346664,"Delta":122822660},{"NoteNumber":64,"Velocity":28,"Duration":346664,"SoundDuration":346664,"Delta":122822660},{"NoteNumber":71,"Velocity":28,"Duration":346664,"SoundDuration":346664,"Delta":122822660},{"NoteNumber":44,"Velocity":26,"Duration":66185,"SoundDuration":66185,"Delta":122822660},{"NoteNumber":52,"Velocity":24,"Duration":64725,"SoundDuration":64725,"Delta":122996721},{"NoteNumber":64,"Velocity":26,"Duration":63562,"SoundDuration":63562,"Delta":123169324},{"NoteNumber":68,"Velocity":26,"Duration":63562,"SoundDuration":63562,"Delta":123169324},{"NoteNumber":59,"Velocity":24,"Duration":63562,"SoundDuration":63562,"Delta":123169324},{"NoteNumber":64,"Velocity":26,"Duration":63562,"SoundDuration":63562,"Delta":123338825},{"NoteNumber":68,"Velocity":26,"Duration":63562,"SoundDuration":63562,"Delta":123338825},{"NoteNumber":52,"Velocity":24,"Duration":63562,"SoundDuration":63562,"Delta":123338825},{"NoteNumber":64,"Velocity":26,"Duration":86301,"SoundDuration":86301,"Delta":123508326},{"NoteNumber":68,"Velocity":26,"Duration":86301,"SoundDuration":86301,"Delta":123508326},{"NoteNumber":44,"Velocity":26,"Duration":64725,"SoundDuration":64725,"Delta":123508326},{"NoteNumber":52,"Velocity":23,"Duration":64725,"SoundDuration":64725,"Delta":123680928},{"NoteNumber":71,"Velocity":28,"Duration":83775,"SoundDuration":83775,"Delta":123853531},{"NoteNumber":64,"Velocity":28,"Duration":83775,"SoundDuration":83775,"Delta":123853531},{"NoteNumber":68,"Velocity":28,"Duration":83775,"SoundDuration":83775,"Delta":123853531},{"NoteNumber":59,"Velocity":23,"Duration":62831,"SoundDuration":62831,"Delta":123853531},{"NoteNumber":52,"Velocity":23,"Duration":62831,"SoundDuration":62831,"Delta":124021082},{"NoteNumber":68,"Velocity":28,"Duration":335101,"SoundDuration":335101,"Delta":124188633},{"NoteNumber":64,"Velocity":28,"Duration":335101,"SoundDuration":335101,"Delta":124188633},{"NoteNumber":73,"Velocity":28,"Duration":335101,"SoundDuration":335101,"Delta":124188633},{"NoteNumber":44,"Velocity":28,"Duration":62831,"SoundDuration":62831,"Delta":124188633},{"NoteNumber":52,"Velocity":25,"Duration":62831,"SoundDuration":62831,"Delta":124356184},{"NoteNumber":64,"Velocity":32,"Duration":61871,"SoundDuration":61871,"Delta":124523735},{"NoteNumber":73,"Velocity":32,"Duration":61871,"SoundDuration":61871,"Delta":124523735},{"NoteNumber":68,"Velocity":32,"Duration":61871,"SoundDuration":61871,"Delta":124523735},{"NoteNumber":58,"Velocity":26,"Duration":61871,"SoundDuration":61871,"Delta":124523735},{"NoteNumber":68,"Velocity":30,"Duration":62326,"SoundDuration":62326,"Delta":124688724},{"NoteNumber":64,"Velocity":30,"Duration":62326,"SoundDuration":62326,"Delta":124688724},{"NoteNumber":75,"Velocity":30,"Duration":62326,"SoundDuration":62326,"Delta":124688724},{"NoteNumber":52,"Velocity":25,"Duration":62326,"SoundDuration":62326,"Delta":124688724},{"NoteNumber":64,"Velocity":32,"Duration":61364,"SoundDuration":61364,"Delta":124854929},{"NoteNumber":73,"Velocity":32,"Duration":61364,"SoundDuration":61364,"Delta":124854929},{"NoteNumber":68,"Velocity":32,"Duration":61364,"SoundDuration":61364,"Delta":124854929},{"NoteNumber":44,"Velocity":28,"Duration":61364,"SoundDuration":61364,"Delta":124854929},{"NoteNumber":64,"Velocity":30,"Duration":63219,"SoundDuration":63219,"Delta":125018569},{"NoteNumber":75,"Velocity":30,"Duration":63219,"SoundDuration":63219,"Delta":125018569},{"NoteNumber":68,"Velocity":30,"Duration":63219,"SoundDuration":63219,"Delta":125018569},{"NoteNumber":52,"Velocity":26,"Duration":63219,"SoundDuration":63219,"Delta":125018569},{"NoteNumber":68,"Velocity":27,"Duration":84293,"SoundDuration":84293,"Delta":125187155},{"NoteNumber":64,"Velocity":27,"Duration":84293,"SoundDuration":84293,"Delta":125187155},{"NoteNumber":73,"Velocity":27,"Duration":84293,"SoundDuration":84293,"Delta":125187155},{"NoteNumber":58,"Velocity":27,"Duration":63219,"SoundDuration":63219,"Delta":125187155},{"NoteNumber":52,"Velocity":26,"Duration":63219,"SoundDuration":63219,"Delta":125355742},{"NoteNumber":71,"Velocity":29,"Duration":345376,"SoundDuration":345376,"Delta":125524328},{"NoteNumber":64,"Velocity":29,"Duration":345376,"SoundDuration":345376,"Delta":125524328},{"NoteNumber":68,"Velocity":29,"Duration":345376,"SoundDuration":345376,"Delta":125524328},{"NoteNumber":44,"Velocity":26,"Duration":64897,"SoundDuration":64897,"Delta":125524328},{"NoteNumber":52,"Velocity":24,"Duration":64725,"SoundDuration":64725,"Delta":125697102},{"NoteNumber":68,"Velocity":26,"Duration":63562,"SoundDuration":63562,"Delta":125869705},{"NoteNumber":64,"Velocity":26,"Duration":63562,"SoundDuration":63562,"Delta":125869705},{"NoteNumber":59,"Velocity":24,"Duration":63562,"SoundDuration":63562,"Delta":125869705},{"NoteNumber":68,"Velocity":26,"Duration":63562,"SoundDuration":63562,"Delta":126039206},{"NoteNumber":64,"Velocity":26,"Duration":63562,"SoundDuration":63562,"Delta":126039206},{"NoteNumber":52,"Velocity":24,"Duration":63562,"SoundDuration":63562,"Delta":126039206},{"NoteNumber":68,"Velocity":26,"Duration":258903,"SoundDuration":258903,"Delta":126208707},{"NoteNumber":64,"Velocity":26,"Duration":258903,"SoundDuration":258903,"Delta":126208707},{"NoteNumber":44,"Velocity":26,"Duration":64725,"SoundDuration":64725,"Delta":126208707},{"NoteNumber":52,"Velocity":24,"Duration":64725,"SoundDuration":64725,"Delta":126381309},{"NoteNumber":68,"Velocity":30,"Duration":348331,"SoundDuration":348331,"Delta":126553912},{"NoteNumber":64,"Velocity":30,"Duration":348331,"SoundDuration":348331,"Delta":126553912},{"NoteNumber":71,"Velocity":30,"Duration":348331,"SoundDuration":348331,"Delta":126553912},{"NoteNumber":59,"Velocity":25,"Duration":65312,"SoundDuration":65312,"Delta":126553912},{"NoteNumber":52,"Velocity":24,"Duration":65312,"SoundDuration":65312,"Delta":126728077},{"NoteNumber":65,"Velocity":28,"Duration":896454,"SoundDuration":896454,"Delta":126902243},{"NoteNumber":70,"Velocity":28,"Duration":1064772,"SoundDuration":1064772,"Delta":126902243},{"NoteNumber":68,"Velocity":28,"Duration":1347902,"SoundDuration":1347902,"Delta":126902243},{"NoteNumber":62,"Velocity":28,"Duration":1347902,"SoundDuration":1347902,"Delta":126902243},{"NoteNumber":44,"Velocity":27,"Duration":62814,"SoundDuration":62814,"Delta":126902243},{"NoteNumber":53,"Velocity":26,"Duration":62814,"SoundDuration":62814,"Delta":127069747},{"NoteNumber":58,"Velocity":27,"Duration":62075,"SoundDuration":62075,"Delta":127237251},{"NoteNumber":53,"Velocity":26,"Duration":63219,"SoundDuration":63219,"Delta":127402786},{"NoteNumber":56,"Velocity":29,"Duration":61539,"SoundDuration":61539,"Delta":127571373},{"NoteNumber":65,"Velocity":26,"Duration":403285,"SoundDuration":403285,"Delta":127735478},{"NoteNumber":70,"Velocity":28,"Duration":346080,"SoundDuration":346080,"Delta":127904064},{"NoteNumber":65,"Velocity":26,"Duration":178211,"SoundDuration":178211,"Delta":128071934},{"NoteNumber":80,"Velocity":28,"Duration":346620,"SoundDuration":346620,"Delta":128250145},{"NoteNumber":76,"Velocity":28,"Duration":346620,"SoundDuration":346620,"Delta":128250145},{"NoteNumber":83,"Velocity":30,"Duration":346620,"SoundDuration":346620,"Delta":128250145},{"NoteNumber":56,"Velocity":26,"Duration":66141,"SoundDuration":66141,"Delta":128250145},{"NoteNumber":64,"Velocity":24,"Duration":64725,"SoundDuration":64725,"Delta":128424162},{"NoteNumber":76,"Velocity":26,"Duration":63562,"SoundDuration":63562,"Delta":128596765},{"NoteNumber":80,"Velocity":28,"Duration":63562,"SoundDuration":63562,"Delta":128596765},{"NoteNumber":71,"Velocity":24,"Duration":63562,"SoundDuration":63562,"Delta":128596765},{"NoteNumber":76,"Velocity":26,"Duration":63562,"SoundDuration":63562,"Delta":128766266},{"NoteNumber":80,"Velocity":28,"Duration":63562,"SoundDuration":63562,"Delta":128766266},{"NoteNumber":64,"Velocity":24,"Duration":63562,"SoundDuration":63562,"Delta":128766266},{"NoteNumber":80,"Velocity":28,"Duration":86301,"SoundDuration":86301,"Delta":128935767},{"NoteNumber":76,"Velocity":26,"Duration":86301,"SoundDuration":86301,"Delta":128935767},{"NoteNumber":56,"Velocity":26,"Duration":64725,"SoundDuration":64725,"Delta":128935767},{"NoteNumber":64,"Velocity":23,"Duration":64725,"SoundDuration":64725,"Delta":129108369},{"NoteNumber":80,"Velocity":28,"Duration":335102,"SoundDuration":335102,"Delta":129280972},{"NoteNumber":76,"Velocity":28,"Duration":335102,"SoundDuration":335102,"Delta":129280972},{"NoteNumber":83,"Velocity":30,"Duration":335102,"SoundDuration":335102,"Delta":129280972},{"NoteNumber":71,"Velocity":23,"Duration":62831,"SoundDuration":62831,"Delta":129280972},{"NoteNumber":64,"Velocity":23,"Duration":62831,"SoundDuration":62831,"Delta":129448523},{"NoteNumber":76,"Velocity":28,"Duration":335102,"SoundDuration":335102,"Delta":129616074},{"NoteNumber":85,"Velocity":31,"Duration":335102,"SoundDuration":335102,"Delta":129616074},{"NoteNumber":80,"Velocity":28,"Duration":335102,"SoundDuration":335102,"Delta":129616074},{"NoteNumber":56,"Velocity":28,"Duration":62831,"SoundDuration":62831,"Delta":129616074},{"NoteNumber":64,"Velocity":25,"Duration":62831,"SoundDuration":62831,"Delta":129783625},{"NoteNumber":80,"Velocity":32,"Duration":61871,"SoundDuration":61871,"Delta":129951176},{"NoteNumber":76,"Velocity":32,"Duration":61871,"SoundDuration":61871,"Delta":129951176},{"NoteNumber":85,"Velocity":34,"Duration":61871,"SoundDuration":61871,"Delta":129951176},{"NoteNumber":70,"Velocity":26,"Duration":61871,"SoundDuration":61871,"Delta":129951176},{"NoteNumber":87,"Velocity":30,"Duration":62499,"SoundDuration":62499,"Delta":130116165},{"NoteNumber":76,"Velocity":28,"Duration":62499,"SoundDuration":62499,"Delta":130116165},{"NoteNumber":80,"Velocity":28,"Duration":62499,"SoundDuration":62499,"Delta":130116165},{"NoteNumber":64,"Velocity":25,"Duration":62499,"SoundDuration":62499,"Delta":130116165},{"NoteNumber":80,"Velocity":32,"Duration":61364,"SoundDuration":61364,"Delta":130282832},{"NoteNumber":76,"Velocity":32,"Duration":61364,"SoundDuration":61364,"Delta":130282832},{"NoteNumber":85,"Velocity":34,"Duration":61364,"SoundDuration":61364,"Delta":130282832},{"NoteNumber":56,"Velocity":28,"Duration":61364,"SoundDuration":61364,"Delta":130282832},{"NoteNumber":76,"Velocity":30,"Duration":63219,"SoundDuration":63219,"Delta":130446471},{"NoteNumber":87,"Velocity":33,"Duration":63219,"SoundDuration":63219,"Delta":130446471},{"NoteNumber":80,"Velocity":30,"Duration":63219,"SoundDuration":63219,"Delta":130446471},{"NoteNumber":64,"Velocity":26,"Duration":63219,"SoundDuration":63219,"Delta":130446471},{"NoteNumber":80,"Velocity":27,"Duration":337173,"SoundDuration":337173,"Delta":130615058},{"NoteNumber":76,"Velocity":27,"Duration":337173,"SoundDuration":337173,"Delta":130615058},{"NoteNumber":85,"Velocity":29,"Duration":337173,"SoundDuration":337173,"Delta":130615058},{"NoteNumber":70,"Velocity":27,"Duration":63219,"SoundDuration":63219,"Delta":130615058},{"NoteNumber":64,"Velocity":26,"Duration":63219,"SoundDuration":63219,"Delta":130783644},{"NoteNumber":83,"Velocity":32,"Duration":345376,"SoundDuration":345376,"Delta":130952231},{"NoteNumber":76,"Velocity":29,"Duration":345376,"SoundDuration":345376,"Delta":130952231},{"NoteNumber":80,"Velocity":29,"Duration":345376,"SoundDuration":345376,"Delta":130952231},{"NoteNumber":56,"Velocity":26,"Duration":64897,"SoundDuration":64897,"Delta":130952231},{"NoteNumber":64,"Velocity":24,"Duration":64725,"SoundDuration":64725,"Delta":131125005},{"NoteNumber":80,"Velocity":28,"Duration":63562,"SoundDuration":63562,"Delta":131297607},{"NoteNumber":76,"Velocity":26,"Duration":63562,"SoundDuration":63562,"Delta":131297607},{"NoteNumber":71,"Velocity":24,"Duration":63562,"SoundDuration":63562,"Delta":131297607},{"NoteNumber":80,"Velocity":28,"Duration":63562,"SoundDuration":63562,"Delta":131467108},{"NoteNumber":76,"Velocity":26,"Duration":63562,"SoundDuration":63562,"Delta":131467108},{"NoteNumber":64,"Velocity":24,"Duration":63562,"SoundDuration":63562,"Delta":131467108},{"NoteNumber":80,"Velocity":28,"Duration":258903,"SoundDuration":258903,"Delta":131636609},{"NoteNumber":76,"Velocity":26,"Duration":258903,"SoundDuration":258903,"Delta":131636609},{"NoteNumber":56,"Velocity":26,"Duration":64725,"SoundDuration":64725,"Delta":131636609},{"NoteNumber":64,"Velocity":24,"Duration":64725,"SoundDuration":64725,"Delta":131809212},{"NoteNumber":80,"Velocity":29,"Duration":348115,"SoundDuration":348115,"Delta":131981814},{"NoteNumber":83,"Velocity":32,"Duration":348115,"SoundDuration":348115,"Delta":131981814},{"NoteNumber":76,"Velocity":29,"Duration":348115,"SoundDuration":348115,"Delta":131981814},{"NoteNumber":71,"Velocity":25,"Duration":65312,"SoundDuration":65312,"Delta":131981814},{"NoteNumber":64,"Velocity":24,"Duration":65312,"SoundDuration":65312,"Delta":132155980},{"NoteNumber":77,"Velocity":30,"Duration":172647,"SoundDuration":172647,"Delta":132329929},{"NoteNumber":82,"Velocity":39,"Duration":172647,"SoundDuration":172647,"Delta":132329929},{"NoteNumber":56,"Velocity":34,"Duration":4056913,"SoundDuration":4056913,"Delta":132329929},{"NoteNumber":74,"Velocity":29,"Duration":169338,"SoundDuration":169338,"Delta":132502577},{"NoteNumber":62,"Velocity":25,"Duration":169338,"SoundDuration":169338,"Delta":132671915},{"NoteNumber":65,"Velocity":25,"Duration":169338,"SoundDuration":169338,"Delta":132671915},{"NoteNumber":70,"Velocity":28,"Duration":169338,"SoundDuration":169338,"Delta":132841254},{"NoteNumber":82,"Velocity":36,"Duration":166021,"SoundDuration":166021,"Delta":133010592},{"NoteNumber":77,"Velocity":30,"Duration":166021,"SoundDuration":166021,"Delta":133010592},{"NoteNumber":74,"Velocity":29,"Duration":167898,"SoundDuration":167898,"Delta":133176613},{"NoteNumber":62,"Velocity":25,"Duration":169338,"SoundDuration":169338,"Delta":133344511},{"NoteNumber":65,"Velocity":25,"Duration":169338,"SoundDuration":169338,"Delta":133344511},{"NoteNumber":70,"Velocity":29,"Duration":169338,"SoundDuration":169338,"Delta":133513850},{"NoteNumber":77,"Velocity":30,"Duration":169971,"SoundDuration":169971,"Delta":133683188},{"NoteNumber":82,"Velocity":36,"Duration":169971,"SoundDuration":169971,"Delta":133683188},{"NoteNumber":74,"Velocity":29,"Duration":165746,"SoundDuration":165746,"Delta":133853160},{"NoteNumber":62,"Velocity":25,"Duration":169338,"SoundDuration":169338,"Delta":134018906},{"NoteNumber":65,"Velocity":25,"Duration":169338,"SoundDuration":169338,"Delta":134018906},{"NoteNumber":70,"Velocity":29,"Duration":169338,"SoundDuration":169338,"Delta":134188244},{"NoteNumber":82,"Velocity":36,"Duration":170299,"SoundDuration":170299,"Delta":134357583},{"NoteNumber":77,"Velocity":30,"Duration":170299,"SoundDuration":170299,"Delta":134357583},{"NoteNumber":74,"Velocity":30,"Duration":166204,"SoundDuration":166204,"Delta":134527882},{"NoteNumber":62,"Velocity":24,"Duration":166205,"SoundDuration":166205,"Delta":134694087},{"NoteNumber":65,"Velocity":24,"Duration":166205,"SoundDuration":166205,"Delta":134694087},{"NoteNumber":70,"Velocity":28,"Duration":169338,"SoundDuration":169338,"Delta":134860292},{"NoteNumber":77,"Velocity":30,"Duration":171281,"SoundDuration":171281,"Delta":135029631},{"NoteNumber":82,"Velocity":36,"Duration":171281,"SoundDuration":171281,"Delta":135029631},{"NoteNumber":74,"Velocity":29,"Duration":167898,"SoundDuration":167898,"Delta":135200913},{"NoteNumber":62,"Velocity":25,"Duration":167898,"SoundDuration":167898,"Delta":135368811},{"NoteNumber":65,"Velocity":25,"Duration":167898,"SoundDuration":167898,"Delta":135368811},{"NoteNumber":70,"Velocity":29,"Duration":169338,"SoundDuration":169338,"Delta":135536709},{"NoteNumber":83,"Velocity":37,"Duration":170299,"SoundDuration":170299,"Delta":135706047},{"NoteNumber":78,"Velocity":31,"Duration":170299,"SoundDuration":170299,"Delta":135706047},{"NoteNumber":75,"Velocity":31,"Duration":167898,"SoundDuration":167898,"Delta":135876347},{"NoteNumber":63,"Velocity":25,"Duration":169817,"SoundDuration":169817,"Delta":136044245},{"NoteNumber":66,"Velocity":25,"Duration":169817,"SoundDuration":169817,"Delta":136044245},{"NoteNumber":71,"Velocity":30,"Duration":172780,"SoundDuration":172780,"Delta":136214062},{"NoteNumber":80,"Velocity":33,"Duration":171281,"SoundDuration":171281,"Delta":136386843},{"NoteNumber":85,"Velocity":39,"Duration":171281,"SoundDuration":171281,"Delta":136386843},{"NoteNumber":59,"Velocity":37,"Duration":1353290,"SoundDuration":1353290,"Delta":136386843},{"NoteNumber":77,"Velocity":31,"Duration":167898,"SoundDuration":167898,"Delta":136558125},{"NoteNumber":65,"Velocity":27,"Duration":169338,"SoundDuration":169338,"Delta":136726023},{"NoteNumber":68,"Velocity":27,"Duration":169338,"SoundDuration":169338,"Delta":136726023},{"NoteNumber":73,"Velocity":31,"Duration":169338,"SoundDuration":169338,"Delta":136895362},{"NoteNumber":83,"Velocity":37,"Duration":170299,"SoundDuration":170299,"Delta":137064700},{"NoteNumber":78,"Velocity":31,"Duration":170299,"SoundDuration":170299,"Delta":137064700},{"NoteNumber":75,"Velocity":31,"Duration":167898,"SoundDuration":167898,"Delta":137235000},{"NoteNumber":63,"Velocity":24,"Duration":167897,"SoundDuration":167897,"Delta":137402898},{"NoteNumber":66,"Velocity":24,"Duration":167897,"SoundDuration":167897,"Delta":137402898},{"NoteNumber":71,"Velocity":28,"Duration":169338,"SoundDuration":169338,"Delta":137570796},{"NoteNumber":77,"Velocity":30,"Duration":169971,"SoundDuration":169971,"Delta":137740134},{"NoteNumber":82,"Velocity":36,"Duration":169971,"SoundDuration":169971,"Delta":137740134},{"NoteNumber":56,"Velocity":34,"Duration":1339126,"SoundDuration":1339126,"Delta":137740134},{"NoteNumber":74,"Velocity":29,"Duration":165746,"SoundDuration":165746,"Delta":137910106},{"NoteNumber":62,"Velocity":25,"Duration":163934,"SoundDuration":163934,"Delta":138075852},{"NoteNumber":65,"Velocity":25,"Duration":163934,"SoundDuration":163934,"Delta":138075852},{"NoteNumber":70,"Velocity":29,"Duration":162601,"SoundDuration":162601,"Delta":138239786},{"NoteNumber":83,"Velocity":37,"Duration":167131,"SoundDuration":167131,"Delta":138402388},{"NoteNumber":78,"Velocity":31,"Duration":167131,"SoundDuration":167131,"Delta":138402388},{"NoteNumber":75,"Velocity":31,"Duration":164383,"SoundDuration":164383,"Delta":138569519},{"NoteNumber":63,"Velocity":25,"Duration":170940,"SoundDuration":170940,"Delta":138733902},{"NoteNumber":66,"Velocity":25,"Duration":170940,"SoundDuration":170940,"Delta":138733902},{"NoteNumber":71,"Velocity":30,"Duration":174418,"SoundDuration":174418,"Delta":138904842},{"NoteNumber":80,"Velocity":33,"Duration":171920,"SoundDuration":171920,"Delta":139079261},{"NoteNumber":85,"Velocity":39,"Duration":171920,"SoundDuration":171920,"Delta":139079261},{"NoteNumber":59,"Velocity":37,"Duration":1354817,"SoundDuration":1354817,"Delta":139079261},{"NoteNumber":77,"Velocity":31,"Duration":166204,"SoundDuration":166204,"Delta":139251181},{"NoteNumber":65,"Velocity":27,"Duration":169338,"SoundDuration":169338,"Delta":139417386},{"NoteNumber":68,"Velocity":27,"Duration":169338,"SoundDuration":169338,"Delta":139417386},{"NoteNumber":73,"Velocity":31,"Duration":169338,"SoundDuration":169338,"Delta":139586724},{"NoteNumber":78,"Velocity":31,"Duration":170299,"SoundDuration":170299,"Delta":139756063},{"NoteNumber":83,"Velocity":37,"Duration":170299,"SoundDuration":170299,"Delta":139756063},{"NoteNumber":75,"Velocity":31,"Duration":167898,"SoundDuration":167898,"Delta":139926362},{"NoteNumber":63,"Velocity":24,"Duration":167897,"SoundDuration":167897,"Delta":140094260},{"NoteNumber":66,"Velocity":24,"Duration":167897,"SoundDuration":167897,"Delta":140094260},{"NoteNumber":71,"Velocity":28,"Duration":171920,"SoundDuration":171920,"Delta":140262158},{"NoteNumber":82,"Velocity":36,"Duration":171281,"SoundDuration":171281,"Delta":140434078},{"NoteNumber":77,"Velocity":30,"Duration":171281,"SoundDuration":171281,"Delta":140434078},{"NoteNumber":56,"Velocity":34,"Duration":1349627,"SoundDuration":1349627,"Delta":140434078},{"NoteNumber":74,"Velocity":29,"Duration":165746,"SoundDuration":165746,"Delta":140605360},{"NoteNumber":62,"Velocity":25,"Duration":167898,"SoundDuration":167898,"Delta":140771106},{"NoteNumber":65,"Velocity":25,"Duration":167898,"SoundDuration":167898,"Delta":140771106},{"NoteNumber":70,"Velocity":29,"Duration":165746,"SoundDuration":165746,"Delta":140939004},{"NoteNumber":78,"Velocity":31,"Duration":170299,"SoundDuration":170299,"Delta":141104750},{"NoteNumber":83,"Velocity":37,"Duration":170299,"SoundDuration":170299,"Delta":141104750},{"NoteNumber":75,"Velocity":31,"Duration":167898,"SoundDuration":167898,"Delta":141275050},{"NoteNumber":63,"Velocity":25,"Duration":169817,"SoundDuration":169817,"Delta":141442948},{"NoteNumber":66,"Velocity":25,"Duration":169817,"SoundDuration":169817,"Delta":141442948},{"NoteNumber":71,"Velocity":30,"Duration":170940,"SoundDuration":170940,"Delta":141612765},{"NoteNumber":85,"Velocity":39,"Duration":171281,"SoundDuration":171281,"Delta":141783705},{"NoteNumber":80,"Velocity":33,"Duration":171281,"SoundDuration":171281,"Delta":141783705},{"NoteNumber":59,"Velocity":37,"Duration":2695798,"SoundDuration":2695798,"Delta":141783705},{"NoteNumber":77,"Velocity":31,"Duration":167898,"SoundDuration":167898,"Delta":141954987},{"NoteNumber":65,"Velocity":27,"Duration":169338,"SoundDuration":169338,"Delta":142122885},{"NoteNumber":68,"Velocity":27,"Duration":169338,"SoundDuration":169338,"Delta":142122885},{"NoteNumber":73,"Velocity":31,"Duration":169338,"SoundDuration":169338,"Delta":142292224},{"NoteNumber":80,"Velocity":33,"Duration":171281,"SoundDuration":171281,"Delta":142461562},{"NoteNumber":85,"Velocity":39,"Duration":171281,"SoundDuration":171281,"Delta":142461562},{"NoteNumber":77,"Velocity":31,"Duration":167898,"SoundDuration":167898,"Delta":142632844},{"NoteNumber":65,"Velocity":27,"Duration":169338,"SoundDuration":169338,"Delta":142800742},{"NoteNumber":68,"Velocity":27,"Duration":169338,"SoundDuration":169338,"Delta":142800742},{"NoteNumber":73,"Velocity":31,"Duration":169338,"SoundDuration":169338,"Delta":142970081},{"NoteNumber":85,"Velocity":40,"Duration":167131,"SoundDuration":167131,"Delta":143139419},{"NoteNumber":80,"Velocity":34,"Duration":167131,"SoundDuration":167131,"Delta":143139419},{"NoteNumber":77,"Velocity":32,"Duration":165289,"SoundDuration":165289,"Delta":143306550},{"NoteNumber":65,"Velocity":28,"Duration":167597,"SoundDuration":167597,"Delta":143471840},{"NoteNumber":68,"Velocity":28,"Duration":167597,"SoundDuration":167597,"Delta":143471840},{"NoteNumber":73,"Velocity":32,"Duration":167597,"SoundDuration":167597,"Delta":143639438},{"NoteNumber":80,"Velocity":34,"Duration":166204,"SoundDuration":166204,"Delta":143807036},{"NoteNumber":85,"Velocity":40,"Duration":166204,"SoundDuration":166204,"Delta":143807036},{"NoteNumber":77,"Velocity":32,"Duration":164383,"SoundDuration":164383,"Delta":143973241},{"NoteNumber":65,"Velocity":28,"Duration":170940,"SoundDuration":170940,"Delta":144137624},{"NoteNumber":68,"Velocity":28,"Duration":170940,"SoundDuration":170940,"Delta":144137624},{"NoteNumber":73,"Velocity":32,"Duration":170940,"SoundDuration":170940,"Delta":144308564},{"NoteNumber":85,"Velocity":36,"Duration":171281,"SoundDuration":171281,"Delta":144479504},{"NoteNumber":81,"Velocity":30,"Duration":171281,"SoundDuration":171281,"Delta":144479504},{"NoteNumber":77,"Velocity":28,"Duration":167898,"SoundDuration":167898,"Delta":144650786},{"NoteNumber":65,"Velocity":25,"Duration":169338,"SoundDuration":169338,"Delta":144818684},{"NoteNumber":69,"Velocity":25,"Duration":169338,"SoundDuration":169338,"Delta":144818684},{"NoteNumber":73,"Velocity":27,"Duration":169338,"SoundDuration":169338,"Delta":144988023},{"NoteNumber":81,"Velocity":30,"Duration":171281,"SoundDuration":171281,"Delta":145157361},{"NoteNumber":85,"Velocity":36,"Duration":171281,"SoundDuration":171281,"Delta":145157361},{"NoteNumber":77,"Velocity":28,"Duration":167898,"SoundDuration":167898,"Delta":145328643},{"NoteNumber":65,"Velocity":25,"Duration":169338,"SoundDuration":169338,"Delta":145496541},{"NoteNumber":69,"Velocity":25,"Duration":169338,"SoundDuration":169338,"Delta":145496541},{"NoteNumber":73,"Velocity":27,"Duration":169338,"SoundDuration":169338,"Delta":145665880},{"NoteNumber":85,"Velocity":34,"Duration":173410,"SoundDuration":173410,"Delta":145835218},{"NoteNumber":81,"Velocity":28,"Duration":173410,"SoundDuration":173410,"Delta":145835218},{"NoteNumber":77,"Velocity":26,"Duration":169491,"SoundDuration":169491,"Delta":146008629},{"NoteNumber":65,"Velocity":22,"Duration":171920,"SoundDuration":171920,"Delta":146178120},{"NoteNumber":69,"Velocity":22,"Duration":171920,"SoundDuration":171920,"Delta":146178120},{"NoteNumber":73,"Velocity":24,"Duration":171920,"SoundDuration":171920,"Delta":146350040},{"NoteNumber":81,"Velocity":27,"Duration":173912,"SoundDuration":173912,"Delta":146521960},{"NoteNumber":85,"Velocity":32,"Duration":173912,"SoundDuration":173912,"Delta":146521960},{"NoteNumber":77,"Velocity":25,"Duration":169971,"SoundDuration":169971,"Delta":146695873},{"NoteNumber":65,"Velocity":21,"Duration":179104,"SoundDuration":179104,"Delta":146865845},{"NoteNumber":69,"Velocity":21,"Duration":179104,"SoundDuration":179104,"Delta":146865845},{"NoteNumber":73,"Velocity":23,"Duration":179104,"SoundDuration":179104,"Delta":147044949},{"NoteNumber":85,"Velocity":31,"Duration":172870,"SoundDuration":172870,"Delta":147224054},{"NoteNumber":64,"Velocity":35,"Duration":1352966,"SoundDuration":1352966,"Delta":147224054},{"NoteNumber":66,"Velocity":43,"Duration":86435,"SoundDuration":86435,"Delta":147224054},{"NoteNumber":81,"Velocity":29,"Duration":172871,"SoundDuration":172871,"Delta":147396925},{"NoteNumber":76,"Velocity":29,"Duration":168928,"SoundDuration":168928,"Delta":147569796},{"NoteNumber":73,"Velocity":43,"Duration":126696,"SoundDuration":126696,"Delta":147569796},{"NoteNumber":73,"Velocity":31,"Duration":168928,"SoundDuration":168928,"Delta":147738724},{"NoteNumber":85,"Velocity":31,"Duration":170609,"SoundDuration":170609,"Delta":147907653},{"NoteNumber":71,"Velocity":44,"Duration":1003191,"SoundDuration":1003191,"Delta":147907653},{"NoteNumber":81,"Velocity":29,"Duration":165627,"SoundDuration":165627,"Delta":148078262},{"NoteNumber":76,"Velocity":29,"Duration":165627,"SoundDuration":165627,"Delta":148243889},{"NoteNumber":73,"Velocity":30,"Duration":167504,"SoundDuration":167504,"Delta":148409516},{"NoteNumber":85,"Velocity":31,"Duration":168653,"SoundDuration":168653,"Delta":148577020},{"NoteNumber":63,"Velocity":35,"Duration":668133,"SoundDuration":668133,"Delta":148577020},{"NoteNumber":81,"Velocity":29,"Duration":165170,"SoundDuration":165170,"Delta":148745673},{"NoteNumber":78,"Velocity":29,"Duration":165171,"SoundDuration":165171,"Delta":148910844},{"NoteNumber":69,"Velocity":42,"Duration":123878,"SoundDuration":123878,"Delta":148910844},{"NoteNumber":73,"Velocity":29,"Duration":169138,"SoundDuration":169138,"Delta":149076015},{"NoteNumber":68,"Velocity":42,"Duration":126853,"SoundDuration":126853,"Delta":149076015},{"NoteNumber":85,"Velocity":31,"Duration":171106,"SoundDuration":171106,"Delta":149245153},{"NoteNumber":62,"Velocity":35,"Duration":509382,"SoundDuration":509382,"Delta":149245153},{"NoteNumber":66,"Velocity":44,"Duration":283864,"SoundDuration":283864,"Delta":149245153},{"NoteNumber":81,"Velocity":29,"Duration":169138,"SoundDuration":169138,"Delta":149416259},{"NoteNumber":78,"Velocity":29,"Duration":169138,"SoundDuration":169138,"Delta":149585397},{"NoteNumber":64,"Velocity":42,"Duration":126853,"SoundDuration":126853,"Delta":149585397},{"NoteNumber":73,"Velocity":29,"Duration":170116,"SoundDuration":170116,"Delta":149754535},{"NoteNumber":62,"Velocity":42,"Duration":127587,"SoundDuration":127587,"Delta":149754535},{"NoteNumber":85,"Velocity":31,"Duration":173120,"SoundDuration":173120,"Delta":149924651},{"NoteNumber":54,"Velocity":35,"Duration":677641,"SoundDuration":677641,"Delta":149924651},{"NoteNumber":61,"Velocity":44,"Duration":335210,"SoundDuration":335210,"Delta":149924651},{"NoteNumber":81,"Velocity":29,"Duration":169138,"SoundDuration":169138,"Delta":150097771},{"NoteNumber":78,"Velocity":29,"Duration":167691,"SoundDuration":167691,"Delta":150266909},{"NoteNumber":62,"Velocity":42,"Duration":125768,"SoundDuration":125768,"Delta":150266909},{"NoteNumber":73,"Velocity":29,"Duration":167691,"SoundDuration":167691,"Delta":150434601},{"NoteNumber":64,"Velocity":42,"Duration":125768,"SoundDuration":125768,"Delta":150434601},{"NoteNumber":85,"Velocity":31,"Duration":165289,"SoundDuration":165289,"Delta":150602292},{"NoteNumber":57,"Velocity":37,"Duration":165289,"SoundDuration":165289,"Delta":150602292},{"NoteNumber":66,"Velocity":45,"Duration":165289,"SoundDuration":165289,"Delta":150602292},{"NoteNumber":81,"Velocity":29,"Duration":165289,"SoundDuration":165289,"Delta":150767582},{"NoteNumber":78,"Velocity":29,"Duration":166731,"SoundDuration":166731,"Delta":150932871},{"NoteNumber":59,"Velocity":35,"Duration":166731,"SoundDuration":166731,"Delta":150932871},{"NoteNumber":69,"Velocity":43,"Duration":166731,"SoundDuration":166731,"Delta":150932871},{"NoteNumber":73,"Velocity":29,"Duration":171428,"SoundDuration":171428,"Delta":151099603},{"NoteNumber":85,"Velocity":32,"Duration":170116,"SoundDuration":170116,"Delta":151271031},{"NoteNumber":61,"Velocity":37,"Duration":1356646,"SoundDuration":1356646,"Delta":151271031},{"NoteNumber":68,"Velocity":45,"Duration":1356646,"SoundDuration":1356646,"Delta":151271031},{"NoteNumber":83,"Velocity":30,"Duration":166094,"SoundDuration":166094,"Delta":151441147},{"NoteNumber":78,"Velocity":30,"Duration":166094,"SoundDuration":166094,"Delta":151607242},{"NoteNumber":73,"Velocity":30,"Duration":166094,"SoundDuration":166094,"Delta":151773336},{"NoteNumber":85,"Velocity":32,"Duration":169625,"SoundDuration":169625,"Delta":151939431},{"NoteNumber":83,"Velocity":30,"Duration":171615,"SoundDuration":171615,"Delta":152109056},{"NoteNumber":77,"Velocity":30,"Duration":169491,"SoundDuration":169491,"Delta":152280671},{"NoteNumber":73,"Velocity":30,"Duration":177514,"SoundDuration":177514,"Delta":152450163},{"NoteNumber":45,"Velocity":43,"Duration":65028,"SoundDuration":65028,"Delta":152627678},{"NoteNumber":66,"Velocity":37,"Duration":127118,"SoundDuration":127118,"Delta":152801088},{"NoteNumber":54,"Velocity":35,"Duration":63559,"SoundDuration":63559,"Delta":152801088},{"NoteNumber":68,"Velocity":38,"Duration":125348,"SoundDuration":125348,"Delta":152970580},{"NoteNumber":61,"Velocity":35,"Duration":62674,"SoundDuration":62674,"Delta":152970580},{"NoteNumber":69,"Velocity":40,"Duration":127118,"SoundDuration":127118,"Delta":153137711},{"NoteNumber":54,"Velocity":35,"Duration":63559,"SoundDuration":63559,"Delta":153137711},{"NoteNumber":66,"Velocity":45,"Duration":339116,"SoundDuration":339116,"Delta":153307202},{"NoteNumber":71,"Velocity":47,"Duration":835738,"SoundDuration":835738,"Delta":153307202},{"NoteNumber":44,"Velocity":38,"Duration":63584,"SoundDuration":63584,"Delta":153307202},{"NoteNumber":49,"Velocity":35,"Duration":63584,"SoundDuration":63584,"Delta":153476761},{"NoteNumber":65,"Velocity":45,"Duration":342074,"SoundDuration":342074,"Delta":153646319},{"NoteNumber":59,"Velocity":35,"Duration":64139,"SoundDuration":64139,"Delta":153646319},{"NoteNumber":49,"Velocity":35,"Duration":64139,"SoundDuration":64139,"Delta":153817357},{"NoteNumber":61,"Velocity":45,"Duration":336230,"SoundDuration":336230,"Delta":153988394},{"NoteNumber":42,"Velocity":40,"Duration":63223,"SoundDuration":63223,"Delta":153988394},{"NoteNumber":69,"Velocity":46,"Duration":167634,"SoundDuration":167634,"Delta":154156990},{"NoteNumber":49,"Velocity":36,"Duration":62863,"SoundDuration":62863,"Delta":154156990},{"NoteNumber":71,"Velocity":47,"Duration":166223,"SoundDuration":166223,"Delta":154324625},{"NoteNumber":57,"Velocity":37,"Duration":62333,"SoundDuration":62333,"Delta":154324625},{"NoteNumber":73,"Velocity":47,"Duration":170940,"SoundDuration":170940,"Delta":154490849},{"NoteNumber":49,"Velocity":38,"Duration":64102,"SoundDuration":64102,"Delta":154490849},{"NoteNumber":74,"Velocity":52,"Duration":838976,"SoundDuration":838976,"Delta":154661789},{"NoteNumber":69,"Velocity":52,"Duration":340116,"SoundDuration":340116,"Delta":154661789},{"NoteNumber":47,"Velocity":43,"Duration":63771,"SoundDuration":63771,"Delta":154661789},{"NoteNumber":52,"Velocity":42,"Duration":63771,"SoundDuration":63771,"Delta":154831847},{"NoteNumber":68,"Velocity":47,"Duration":342074,"SoundDuration":342074,"Delta":155001906},{"NoteNumber":62,"Velocity":42,"Duration":64139,"SoundDuration":64139,"Delta":155001906},{"NoteNumber":52,"Velocity":42,"Duration":64139,"SoundDuration":64139,"Delta":155172943},{"NoteNumber":64,"Velocity":48,"Duration":345112,"SoundDuration":345112,"Delta":155343981},{"NoteNumber":45,"Velocity":45,"Duration":64139,"SoundDuration":64139,"Delta":155343981},{"NoteNumber":73,"Velocity":53,"Duration":174074,"SoundDuration":174074,"Delta":155515018},{"NoteNumber":52,"Velocity":46,"Duration":65277,"SoundDuration":65277,"Delta":155515018},{"NoteNumber":74,"Velocity":57,"Duration":171920,"SoundDuration":171920,"Delta":155689093},{"NoteNumber":57,"Velocity":49,"Duration":64470,"SoundDuration":64470,"Delta":155689093},{"NoteNumber":76,"Velocity":63,"Duration":181817,"SoundDuration":181817,"Delta":155861013},{"NoteNumber":61,"Velocity":50,"Duration":68181,"SoundDuration":68181,"Delta":155861013},{"NoteNumber":74,"Velocity":64,"Duration":1360897,"SoundDuration":1360897,"Delta":156042831},{"NoteNumber":78,"Velocity":64,"Duration":1360897,"SoundDuration":1360897,"Delta":156042831},{"NoteNumber":50,"Velocity":54,"Duration":64139,"SoundDuration":64139,"Delta":156042831},{"NoteNumber":57,"Velocity":46,"Duration":63559,"SoundDuration":63559,"Delta":156213868},{"NoteNumber":62,"Velocity":45,"Duration":63559,"SoundDuration":63559,"Delta":156383360},{"NoteNumber":66,"Velocity":45,"Duration":63559,"SoundDuration":63559,"Delta":156552851},{"NoteNumber":57,"Velocity":42,"Duration":64841,"SoundDuration":64841,"Delta":156722343},{"NoteNumber":62,"Velocity":37,"Duration":63559,"SoundDuration":63559,"Delta":156895253},{"NoteNumber":66,"Velocity":37,"Duration":63559,"SoundDuration":63559,"Delta":157064745},{"NoteNumber":69,"Velocity":37,"Duration":84745,"SoundDuration":84745,"Delta":157234236},{"NoteNumber":66,"Velocity":56,"Duration":933006,"SoundDuration":933006,"Delta":157403728},{"NoteNumber":62,"Velocity":37,"Duration":84745,"SoundDuration":84745,"Delta":157573219},{"NoteNumber":61,"Velocity":36,"Duration":84745,"SoundDuration":84745,"Delta":157742711},{"NoteNumber":59,"Velocity":36,"Duration":84745,"SoundDuration":84745,"Delta":157912202},{"NoteNumber":57,"Velocity":46,"Duration":64017,"SoundDuration":64017,"Delta":158081694},{"NoteNumber":61,"Velocity":36,"Duration":63674,"SoundDuration":63674,"Delta":158251835},{"NoteNumber":73,"Velocity":53,"Duration":87178,"SoundDuration":87178,"Delta":158421634},{"NoteNumber":57,"Velocity":41,"Duration":65384,"SoundDuration":65384,"Delta":158421634},{"NoteNumber":54,"Velocity":36,"Duration":65384,"SoundDuration":65384,"Delta":158595992},{"NoteNumber":71,"Velocity":56,"Duration":1016011,"SoundDuration":1016011,"Delta":158770350},{"NoteNumber":56,"Velocity":46,"Duration":64804,"SoundDuration":64804,"Delta":158770350},{"NoteNumber":59,"Velocity":36,"Duration":62947,"SoundDuration":62947,"Delta":158943161},{"NoteNumber":64,"Velocity":42,"Duration":62947,"SoundDuration":62947,"Delta":159111021},{"NoteNumber":54,"Velocity":36,"Duration":63494,"SoundDuration":63494,"Delta":159278882},{"NoteNumber":52,"Velocity":46,"Duration":63862,"SoundDuration":63862,"Delta":159448201},{"NoteNumber":59,"Velocity":35,"Duration":62947,"SoundDuration":62947,"Delta":159618501},{"NoteNumber":69,"Velocity":54,"Duration":124460,"SoundDuration":124460,"Delta":159786361},{"NoteNumber":64,"Velocity":39,"Duration":62230,"SoundDuration":62230,"Delta":159786361},{"NoteNumber":68,"Velocity":54,"Duration":126618,"SoundDuration":126618,"Delta":159952309},{"NoteNumber":59,"Velocity":34,"Duration":63309,"SoundDuration":63309,"Delta":159952309},{"NoteNumber":66,"Velocity":56,"Duration":283343,"SoundDuration":283343,"Delta":160121133},{"NoteNumber":47,"Velocity":43,"Duration":64047,"SoundDuration":64047,"Delta":160121133},{"NoteNumber":56,"Velocity":34,"Duration":63309,"SoundDuration":63309,"Delta":160291927},{"NoteNumber":64,"Velocity":54,"Duration":125530,"SoundDuration":125530,"Delta":160460751},{"NoteNumber":62,"Velocity":36,"Duration":62765,"SoundDuration":62765,"Delta":160460751},{"NoteNumber":62,"Velocity":53,"Duration":127348,"SoundDuration":127348,"Delta":160628124},{"NoteNumber":52,"Velocity":33,"Duration":63674,"SoundDuration":63674,"Delta":160628124},{"NoteNumber":61,"Velocity":56,"Duration":341634,"SoundDuration":341634,"Delta":160797923},{"NoteNumber":45,"Velocity":41,"Duration":64804,"SoundDuration":64804,"Delta":160797923},{"NoteNumber":52,"Velocity":33,"Duration":63309,"SoundDuration":63309,"Delta":160970734},{"NoteNumber":62,"Velocity":55,"Duration":167373,"SoundDuration":167373,"Delta":161139558},{"NoteNumber":57,"Velocity":38,"Duration":62765,"SoundDuration":62765,"Delta":161139558},{"NoteNumber":64,"Velocity":56,"Duration":168824,"SoundDuration":168824,"Delta":161306931},{"NoteNumber":52,"Velocity":36,"Duration":63309,"SoundDuration":63309,"Delta":161306931},{"NoteNumber":66,"Velocity":62,"Duration":338139,"SoundDuration":338139,"Delta":161475755},{"NoteNumber":50,"Velocity":47,"Duration":63674,"SoundDuration":63674,"Delta":161475755},{"NoteNumber":57,"Velocity":38,"Duration":63127,"SoundDuration":63127,"Delta":161645554},{"NoteNumber":69,"Velocity":63,"Duration":343216,"SoundDuration":343216,"Delta":161813894},{"NoteNumber":62,"Velocity":44,"Duration":63127,"SoundDuration":63127,"Delta":161813894},{"NoteNumber":49,"Velocity":40,"Duration":65578,"SoundDuration":65578,"Delta":161982235},{"NoteNumber":66,"Velocity":68,"Duration":2005914,"SoundDuration":2005914,"Delta":162157111},{"NoteNumber":68,"Velocity":68,"Duration":2005914,"SoundDuration":2005914,"Delta":162157111},{"NoteNumber":48,"Velocity":55,"Duration":64047,"SoundDuration":64047,"Delta":162157111},{"NoteNumber":56,"Velocity":42,"Duration":62947,"SoundDuration":62947,"Delta":162327905},{"NoteNumber":63,"Velocity":48,"Duration":62230,"SoundDuration":62230,"Delta":162495765},{"NoteNumber":56,"Velocity":42,"Duration":62230,"SoundDuration":62230,"Delta":162661713},{"NoteNumber":48,"Velocity":49,"Duration":63674,"SoundDuration":63674,"Delta":162827660},{"NoteNumber":56,"Velocity":38,"Duration":62947,"SoundDuration":62947,"Delta":162997459},{"NoteNumber":63,"Velocity":45,"Duration":62058,"SoundDuration":62058,"Delta":163165319},{"NoteNumber":56,"Velocity":39,"Duration":62058,"SoundDuration":62058,"Delta":163330809},{"NoteNumber":48,"Velocity":46,"Duration":63494,"SoundDuration":63494,"Delta":163496299},{"NoteNumber":56,"Velocity":36,"Duration":62409,"SoundDuration":62409,"Delta":163665619},{"NoteNumber":63,"Velocity":41,"Duration":62058,"SoundDuration":62058,"Delta":163832045},{"NoteNumber":56,"Velocity":36,"Duration":62058,"SoundDuration":62058,"Delta":163997535},{"NoteNumber":69,"Velocity":61,"Duration":335250,"SoundDuration":335250,"Delta":164163025},{"NoteNumber":66,"Velocity":61,"Duration":335250,"SoundDuration":335250,"Delta":164163025},{"NoteNumber":49,"Velocity":50,"Duration":63309,"SoundDuration":63309,"Delta":164163025},{"NoteNumber":57,"Velocity":46,"Duration":62409,"SoundDuration":62409,"Delta":164331849},{"NoteNumber":76,"Velocity":60,"Duration":85895,"SoundDuration":85895,"Delta":164498276},{"NoteNumber":80,"Velocity":60,"Duration":85895,"SoundDuration":85895,"Delta":164498276},{"NoteNumber":64,"Velocity":50,"Duration":64422,"SoundDuration":64422,"Delta":164498276},{"NoteNumber":57,"Velocity":48,"Duration":64421,"SoundDuration":64421,"Delta":164670068},{"NoteNumber":66,"Velocity":59,"Duration":336218,"SoundDuration":336218,"Delta":164841860},{"NoteNumber":68,"Velocity":59,"Duration":336218,"SoundDuration":336218,"Delta":164841860},{"NoteNumber":48,"Velocity":50,"Duration":63494,"SoundDuration":63494,"Delta":164841860},{"NoteNumber":56,"Velocity":39,"Duration":62586,"SoundDuration":62586,"Delta":165011179},{"NoteNumber":63,"Velocity":45,"Duration":62586,"SoundDuration":62586,"Delta":165178078},{"NoteNumber":56,"Velocity":39,"Duration":62586,"SoundDuration":62586,"Delta":165344976},{"NoteNumber":66,"Velocity":53,"Duration":335250,"SoundDuration":335250,"Delta":165511875},{"NoteNumber":62,"Velocity":53,"Duration":335250,"SoundDuration":335250,"Delta":165511875},{"NoteNumber":47,"Velocity":50,"Duration":63309,"SoundDuration":63309,"Delta":165511875},{"NoteNumber":52,"Velocity":46,"Duration":62409,"SoundDuration":62409,"Delta":165680699},{"NoteNumber":76,"Velocity":57,"Duration":85895,"SoundDuration":85895,"Delta":165847125},{"NoteNumber":73,"Velocity":57,"Duration":85895,"SoundDuration":85895,"Delta":165847125},{"NoteNumber":56,"Velocity":50,"Duration":64422,"SoundDuration":64422,"Delta":165847125},{"NoteNumber":62,"Velocity":50,"Duration":64422,"SoundDuration":64422,"Delta":165847125},{"NoteNumber":52,"Velocity":48,"Duration":64421,"SoundDuration":64421,"Delta":166018917},{"NoteNumber":61,"Velocity":55,"Duration":336218,"SoundDuration":336218,"Delta":166190709},{"NoteNumber":64,"Velocity":55,"Duration":336218,"SoundDuration":336218,"Delta":166190709},{"NoteNumber":45,"Velocity":50,"Duration":63494,"SoundDuration":63494,"Delta":166190709},{"NoteNumber":52,"Velocity":42,"Duration":62586,"SoundDuration":62586,"Delta":166360029},{"NoteNumber":57,"Velocity":47,"Duration":62586,"SoundDuration":62586,"Delta":166526927},{"NoteNumber":52,"Velocity":44,"Duration":62586,"SoundDuration":62586,"Delta":166693826},{"NoteNumber":59,"Velocity":66,"Duration":335250,"SoundDuration":335250,"Delta":166860724},{"NoteNumber":63,"Velocity":66,"Duration":335250,"SoundDuration":335250,"Delta":166860724},{"NoteNumber":42,"Velocity":55,"Duration":63309,"SoundDuration":63309,"Delta":166860724},{"NoteNumber":47,"Velocity":50,"Duration":62409,"SoundDuration":62409,"Delta":167029548},{"NoteNumber":69,"Velocity":69,"Duration":107370,"SoundDuration":107370,"Delta":167195975},{"NoteNumber":73,"Velocity":69,"Duration":107370,"SoundDuration":107370,"Delta":167195975},{"NoteNumber":57,"Velocity":55,"Duration":64422,"SoundDuration":64422,"Delta":167195975},{"NoteNumber":47,"Velocity":52,"Duration":64421,"SoundDuration":64421,"Delta":167367767},{"NoteNumber":61,"Velocity":69,"Duration":2010203,"SoundDuration":2010203,"Delta":167539559},{"NoteNumber":56,"Velocity":69,"Duration":2010203,"SoundDuration":2010203,"Delta":167539559},{"NoteNumber":37,"Velocity":66,"Duration":63494,"SoundDuration":63494,"Delta":167539559},{"NoteNumber":44,"Velocity":57,"Duration":62586,"SoundDuration":62586,"Delta":167708878},{"NoteNumber":53,"Velocity":61,"Duration":62586,"SoundDuration":62586,"Delta":167875777},{"NoteNumber":44,"Velocity":57,"Duration":62586,"SoundDuration":62586,"Delta":168042675},{"NoteNumber":37,"Velocity":66,"Duration":63309,"SoundDuration":63309,"Delta":168209574},{"NoteNumber":44,"Velocity":57,"Duration":62747,"SoundDuration":62747,"Delta":168378398},{"NoteNumber":53,"Velocity":61,"Duration":62586,"SoundDuration":62586,"Delta":168545457},{"NoteNumber":44,"Velocity":57,"Duration":62586,"SoundDuration":62586,"Delta":168712355},{"NoteNumber":37,"Velocity":66,"Duration":64102,"SoundDuration":64102,"Delta":168880247},{"NoteNumber":44,"Velocity":57,"Duration":64102,"SoundDuration":64102,"Delta":169051187},{"NoteNumber":53,"Velocity":61,"Duration":64102,"SoundDuration":64102,"Delta":169222127},{"NoteNumber":44,"Velocity":57,"Duration":64102,"SoundDuration":64102,"Delta":169393067},{"NoteNumber":59,"Velocity":47,"Duration":335250,"SoundDuration":335250,"Delta":169564007},{"NoteNumber":55,"Velocity":47,"Duration":335250,"SoundDuration":335250,"Delta":169564007},{"NoteNumber":37,"Velocity":46,"Duration":63309,"SoundDuration":63309,"Delta":169564007},{"NoteNumber":45,"Velocity":42,"Duration":62409,"SoundDuration":62409,"Delta":169732831},{"NoteNumber":67,"Velocity":51,"Duration":107370,"SoundDuration":107370,"Delta":169899258},{"NoteNumber":71,"Velocity":51,"Duration":107370,"SoundDuration":107370,"Delta":169899258},{"NoteNumber":52,"Velocity":46,"Duration":64422,"SoundDuration":64422,"Delta":169899258},{"NoteNumber":45,"Velocity":44,"Duration":64421,"SoundDuration":64421,"Delta":170071050},{"NoteNumber":61,"Velocity":50,"Duration":1996460,"SoundDuration":1996460,"Delta":170242842},{"NoteNumber":56,"Velocity":50,"Duration":1996460,"SoundDuration":1996460,"Delta":170242842},{"NoteNumber":37,"Velocity":48,"Duration":63494,"SoundDuration":63494,"Delta":170242842},{"NoteNumber":44,"Velocity":40,"Duration":62586,"SoundDuration":62586,"Delta":170412161},{"NoteNumber":53,"Velocity":43,"Duration":62586,"SoundDuration":62586,"Delta":170579060},{"NoteNumber":44,"Velocity":39,"Duration":62586,"SoundDuration":62586,"Delta":170745958},{"NoteNumber":37,"Velocity":45,"Duration":63309,"SoundDuration":63309,"Delta":170912857},{"NoteNumber":44,"Velocity":38,"Duration":62747,"SoundDuration":62747,"Delta":171081681},{"NoteNumber":53,"Velocity":41,"Duration":62586,"SoundDuration":62586,"Delta":171248740},{"NoteNumber":44,"Velocity":37,"Duration":62586,"SoundDuration":62586,"Delta":171415638},{"NoteNumber":37,"Velocity":43,"Duration":63309,"SoundDuration":63309,"Delta":171583530},{"NoteNumber":44,"Velocity":37,"Duration":62747,"SoundDuration":62747,"Delta":171752354},{"NoteNumber":53,"Velocity":39,"Duration":62586,"SoundDuration":62586,"Delta":171919413},{"NoteNumber":44,"Velocity":36,"Duration":62586,"SoundDuration":62586,"Delta":172086312},{"NoteNumber":59,"Velocity":38,"Duration":383386,"SoundDuration":383386,"Delta":172253210},{"NoteNumber":55,"Velocity":38,"Duration":383386,"SoundDuration":383386,"Delta":172253210},{"NoteNumber":37,"Velocity":39,"Duration":71885,"SoundDuration":71885,"Delta":172253210},{"NoteNumber":45,"Velocity":35,"Duration":71885,"SoundDuration":71885,"Delta":172444904},{"NoteNumber":67,"Velocity":39,"Duration":308219,"SoundDuration":308219,"Delta":172636597},{"NoteNumber":71,"Velocity":39,"Duration":308219,"SoundDuration":308219,"Delta":172636597},{"NoteNumber":52,"Velocity":39,"Duration":77054,"SoundDuration":77054,"Delta":172636597},{"NoteNumber":45,"Velocity":37,"Duration":77054,"SoundDuration":77054,"Delta":172842077},{"NoteNumber":54,"Velocity":39,"Duration":174276,"SoundDuration":174276,"Delta":173047556},{"NoteNumber":57,"Velocity":39,"Duration":174276,"SoundDuration":174276,"Delta":173047556},{"NoteNumber":38,"Velocity":28,"Duration":174276,"SoundDuration":174276,"Delta":173047556},{"NoteNumber":45,"Velocity":27,"Duration":172790,"SoundDuration":172790,"Delta":173221833},{"NoteNumber":54,"Velocity":38,"Duration":172791,"SoundDuration":172791,"Delta":173279430},{"NoteNumber":50,"Velocity":27,"Duration":172791,"SoundDuration":172791,"Delta":173394624},{"NoteNumber":54,"Velocity":38,"Duration":172791,"SoundDuration":172791,"Delta":173509818},{"NoteNumber":45,"Velocity":27,"Duration":172790,"SoundDuration":172790,"Delta":173567415},{"NoteNumber":54,"Velocity":41,"Duration":349569,"SoundDuration":349569,"Delta":173740206},{"NoteNumber":38,"Velocity":28,"Duration":174784,"SoundDuration":174784,"Delta":173740206},{"NoteNumber":45,"Velocity":26,"Duration":174784,"SoundDuration":174784,"Delta":173914991},{"NoteNumber":57,"Velocity":38,"Duration":349569,"SoundDuration":349569,"Delta":174089775},{"NoteNumber":54,"Velocity":38,"Duration":349569,"SoundDuration":349569,"Delta":174089775},{"NoteNumber":50,"Velocity":26,"Duration":174784,"SoundDuration":174784,"Delta":174089775},{"NoteNumber":45,"Velocity":26,"Duration":174784,"SoundDuration":174784,"Delta":174264560},{"NoteNumber":54,"Velocity":39,"Duration":174784,"SoundDuration":174784,"Delta":174439344},{"NoteNumber":59,"Velocity":39,"Duration":174784,"SoundDuration":174784,"Delta":174439344},{"NoteNumber":38,"Velocity":28,"Duration":174784,"SoundDuration":174784,"Delta":174439344},{"NoteNumber":44,"Velocity":25,"Duration":173290,"SoundDuration":173290,"Delta":174614129},{"NoteNumber":54,"Velocity":39,"Duration":173290,"SoundDuration":173290,"Delta":174671892},{"NoteNumber":59,"Velocity":39,"Duration":173290,"SoundDuration":173290,"Delta":174671892},{"NoteNumber":50,"Velocity":25,"Duration":173289,"SoundDuration":173289,"Delta":174787419},{"NoteNumber":54,"Velocity":39,"Duration":173290,"SoundDuration":173290,"Delta":174902945},{"NoteNumber":59,"Velocity":39,"Duration":173290,"SoundDuration":173290,"Delta":174902945},{"NoteNumber":44,"Velocity":25,"Duration":173290,"SoundDuration":173290,"Delta":174960709},{"NoteNumber":54,"Velocity":39,"Duration":174276,"SoundDuration":174276,"Delta":175133999},{"NoteNumber":59,"Velocity":39,"Duration":174276,"SoundDuration":174276,"Delta":175133999},{"NoteNumber":38,"Velocity":28,"Duration":174276,"SoundDuration":174276,"Delta":175133999},{"NoteNumber":44,"Velocity":25,"Duration":172304,"SoundDuration":172304,"Delta":175308276},{"NoteNumber":54,"Velocity":38,"Duration":172304,"SoundDuration":172304,"Delta":175365711},{"NoteNumber":61,"Velocity":38,"Duration":172304,"SoundDuration":172304,"Delta":175365711},{"NoteNumber":50,"Velocity":25,"Duration":172304,"SoundDuration":172304,"Delta":175480581},{"NoteNumber":54,"Velocity":38,"Duration":172305,"SoundDuration":172305,"Delta":175595451},{"NoteNumber":59,"Velocity":38,"Duration":172305,"SoundDuration":172305,"Delta":175595451},{"NoteNumber":44,"Velocity":25,"Duration":172305,"SoundDuration":172305,"Delta":175652886},{"NoteNumber":54,"Velocity":39,"Duration":174784,"SoundDuration":174784,"Delta":175825191},{"NoteNumber":57,"Velocity":39,"Duration":174784,"SoundDuration":174784,"Delta":175825191},{"NoteNumber":38,"Velocity":28,"Duration":174784,"SoundDuration":174784,"Delta":175825191},{"NoteNumber":45,"Velocity":27,"Duration":171340,"SoundDuration":171340,"Delta":175999975},{"NoteNumber":54,"Velocity":38,"Duration":171340,"SoundDuration":171340,"Delta":176057089},{"NoteNumber":50,"Velocity":27,"Duration":171340,"SoundDuration":171340,"Delta":176171316},{"NoteNumber":54,"Velocity":38,"Duration":171340,"SoundDuration":171340,"Delta":176285543},{"NoteNumber":45,"Velocity":27,"Duration":171340,"SoundDuration":171340,"Delta":176342656},{"NoteNumber":54,"Velocity":39,"Duration":348554,"SoundDuration":348554,"Delta":176513997},{"NoteNumber":38,"Velocity":28,"Duration":174276,"SoundDuration":174276,"Delta":176513997},{"NoteNumber":45,"Velocity":25,"Duration":174277,"SoundDuration":174277,"Delta":176688274},{"NoteNumber":57,"Velocity":39,"Duration":351575,"SoundDuration":351575,"Delta":176862551},{"NoteNumber":54,"Velocity":39,"Duration":351575,"SoundDuration":351575,"Delta":176862551},{"NoteNumber":50,"Velocity":25,"Duration":175788,"SoundDuration":175788,"Delta":176862551},{"NoteNumber":45,"Velocity":25,"Duration":175787,"SoundDuration":175787,"Delta":177038339},{"NoteNumber":56,"Velocity":39,"Duration":857686,"SoundDuration":857686,"Delta":177214127},{"NoteNumber":54,"Velocity":39,"Duration":686834,"SoundDuration":686834,"Delta":177214127},{"NoteNumber":38,"Velocity":37,"Duration":174276,"SoundDuration":174276,"Delta":177214127},{"NoteNumber":47,"Velocity":33,"Duration":170852,"SoundDuration":170852,"Delta":177388404},{"NoteNumber":50,"Velocity":33,"Duration":170852,"SoundDuration":170852,"Delta":177559256},{"NoteNumber":54,"Velocity":33,"Duration":851388,"SoundDuration":851388,"Delta":177730109},{"NoteNumber":56,"Velocity":33,"Duration":680535,"SoundDuration":680535,"Delta":177900961},{"NoteNumber":59,"Velocity":33,"Duration":169894,"SoundDuration":169894,"Delta":178071814},{"NoteNumber":62,"Velocity":35,"Duration":169894,"SoundDuration":169894,"Delta":178241708},{"NoteNumber":66,"Velocity":35,"Duration":169894,"SoundDuration":169894,"Delta":178411603},{"NoteNumber":66,"Velocity":36,"Duration":174276,"SoundDuration":174276,"Delta":178581497},{"NoteNumber":62,"Velocity":36,"Duration":174276,"SoundDuration":174276,"Delta":178581497},{"NoteNumber":69,"Velocity":36,"Duration":174276,"SoundDuration":174276,"Delta":178581497},{"NoteNumber":38,"Velocity":28,"Duration":174276,"SoundDuration":174276,"Delta":178581497},{"NoteNumber":45,"Velocity":27,"Duration":172790,"SoundDuration":172790,"Delta":178755774},{"NoteNumber":62,"Velocity":35,"Duration":172791,"SoundDuration":172791,"Delta":178813371},{"NoteNumber":66,"Velocity":35,"Duration":172791,"SoundDuration":172791,"Delta":178813371},{"NoteNumber":50,"Velocity":27,"Duration":172791,"SoundDuration":172791,"Delta":178928565},{"NoteNumber":62,"Velocity":35,"Duration":172791,"SoundDuration":172791,"Delta":179043759},{"NoteNumber":66,"Velocity":35,"Duration":172791,"SoundDuration":172791,"Delta":179043759},{"NoteNumber":54,"Velocity":27,"Duration":172790,"SoundDuration":172790,"Delta":179101356},{"NoteNumber":62,"Velocity":38,"Duration":349569,"SoundDuration":349569,"Delta":179274147},{"NoteNumber":66,"Velocity":38,"Duration":349569,"SoundDuration":349569,"Delta":179274147},{"NoteNumber":57,"Velocity":28,"Duration":174784,"SoundDuration":174784,"Delta":179274147},{"NoteNumber":54,"Velocity":26,"Duration":174784,"SoundDuration":174784,"Delta":179448932},{"NoteNumber":66,"Velocity":35,"Duration":349569,"SoundDuration":349569,"Delta":179623716},{"NoteNumber":62,"Velocity":35,"Duration":349569,"SoundDuration":349569,"Delta":179623716},{"NoteNumber":69,"Velocity":35,"Duration":349569,"SoundDuration":349569,"Delta":179623716},{"NoteNumber":50,"Velocity":26,"Duration":174784,"SoundDuration":174784,"Delta":179623716},{"NoteNumber":45,"Velocity":26,"Duration":174784,"SoundDuration":174784,"Delta":179798501},{"NoteNumber":71,"Velocity":36,"Duration":172910,"SoundDuration":172910,"Delta":179973285},{"NoteNumber":62,"Velocity":36,"Duration":172910,"SoundDuration":172910,"Delta":179973285},{"NoteNumber":66,"Velocity":36,"Duration":172910,"SoundDuration":172910,"Delta":179973285},{"NoteNumber":38,"Velocity":28,"Duration":172910,"SoundDuration":172910,"Delta":179973285},{"NoteNumber":44,"Velocity":25,"Duration":169971,"SoundDuration":169971,"Delta":180146196},{"NoteNumber":66,"Velocity":36,"Duration":169971,"SoundDuration":169971,"Delta":180202853},{"NoteNumber":62,"Velocity":36,"Duration":169971,"SoundDuration":169971,"Delta":180202853},{"NoteNumber":71,"Velocity":36,"Duration":169971,"SoundDuration":169971,"Delta":180202853},{"NoteNumber":50,"Velocity":25,"Duration":169971,"SoundDuration":169971,"Delta":180316167},{"NoteNumber":62,"Velocity":36,"Duration":169971,"SoundDuration":169971,"Delta":180429481},{"NoteNumber":71,"Velocity":36,"Duration":169971,"SoundDuration":169971,"Delta":180429481},{"NoteNumber":66,"Velocity":36,"Duration":169971,"SoundDuration":169971,"Delta":180429481},{"NoteNumber":54,"Velocity":25,"Duration":169971,"SoundDuration":169971,"Delta":180486139},{"NoteNumber":66,"Velocity":36,"Duration":174276,"SoundDuration":174276,"Delta":180656110},{"NoteNumber":62,"Velocity":36,"Duration":174276,"SoundDuration":174276,"Delta":180656110},{"NoteNumber":71,"Velocity":36,"Duration":174276,"SoundDuration":174276,"Delta":180656110},{"NoteNumber":56,"Velocity":28,"Duration":174276,"SoundDuration":174276,"Delta":180656110},{"NoteNumber":54,"Velocity":25,"Duration":172304,"SoundDuration":172304,"Delta":180830387},{"NoteNumber":73,"Velocity":35,"Duration":172304,"SoundDuration":172304,"Delta":180887822},{"NoteNumber":64,"Velocity":35,"Duration":172304,"SoundDuration":172304,"Delta":180887822},{"NoteNumber":66,"Velocity":35,"Duration":172304,"SoundDuration":172304,"Delta":180887822},{"NoteNumber":50,"Velocity":25,"Duration":172304,"SoundDuration":172304,"Delta":181002692},{"NoteNumber":66,"Velocity":35,"Duration":170429,"SoundDuration":170429,"Delta":181117562},{"NoteNumber":62,"Velocity":35,"Duration":170429,"SoundDuration":170429,"Delta":181117562},{"NoteNumber":71,"Velocity":35,"Duration":170429,"SoundDuration":170429,"Delta":181117562},{"NoteNumber":44,"Velocity":25,"Duration":169491,"SoundDuration":169491,"Delta":181174997},{"NoteNumber":62,"Velocity":36,"Duration":174784,"SoundDuration":174784,"Delta":181344489},{"NoteNumber":69,"Velocity":36,"Duration":174784,"SoundDuration":174784,"Delta":181344489},{"NoteNumber":66,"Velocity":36,"Duration":174784,"SoundDuration":174784,"Delta":181344489},{"NoteNumber":38,"Velocity":28,"Duration":174784,"SoundDuration":174784,"Delta":181344489},{"NoteNumber":45,"Velocity":27,"Duration":172790,"SoundDuration":172790,"Delta":181519273},{"NoteNumber":66,"Velocity":35,"Duration":172791,"SoundDuration":172791,"Delta":181576870},{"NoteNumber":62,"Velocity":36,"Duration":172791,"SoundDuration":172791,"Delta":181576870},{"NoteNumber":50,"Velocity":27,"Duration":172791,"SoundDuration":172791,"Delta":181692064},{"NoteNumber":66,"Velocity":35,"Duration":172791,"SoundDuration":172791,"Delta":181807258},{"NoteNumber":62,"Velocity":36,"Duration":172791,"SoundDuration":172791,"Delta":181807258},{"NoteNumber":54,"Velocity":27,"Duration":172790,"SoundDuration":172790,"Delta":181864855},{"NoteNumber":66,"Velocity":36,"Duration":364210,"SoundDuration":364210,"Delta":182037646},{"NoteNumber":62,"Velocity":36,"Duration":364210,"SoundDuration":364210,"Delta":182037646},{"NoteNumber":57,"Velocity":28,"Duration":182105,"SoundDuration":182105,"Delta":182037646},{"NoteNumber":54,"Velocity":25,"Duration":182105,"SoundDuration":182105,"Delta":182219751},{"NoteNumber":69,"Velocity":36,"Duration":388651,"SoundDuration":388651,"Delta":182401856},{"NoteNumber":61,"Velocity":36,"Duration":388651,"SoundDuration":388651,"Delta":182401856},{"NoteNumber":62,"Velocity":36,"Duration":388651,"SoundDuration":388651,"Delta":182401856},{"NoteNumber":66,"Velocity":36,"Duration":388651,"SoundDuration":388651,"Delta":182401856},{"NoteNumber":50,"Velocity":25,"Duration":194325,"SoundDuration":194325,"Delta":182401856},{"NoteNumber":45,"Velocity":25,"Duration":194325,"SoundDuration":194325,"Delta":182596182},{"NoteNumber":59,"Velocity":39,"Duration":1382090,"SoundDuration":1382090,"Delta":182790507},{"NoteNumber":66,"Velocity":39,"Duration":1382090,"SoundDuration":1382090,"Delta":182790507},{"NoteNumber":62,"Velocity":39,"Duration":1382090,"SoundDuration":1382090,"Delta":182790507},{"NoteNumber":68,"Velocity":39,"Duration":1382090,"SoundDuration":1382090,"Delta":182790507},{"NoteNumber":40,"Velocity":37,"Duration":176170,"SoundDuration":176170,"Delta":182790507},{"NoteNumber":47,"Velocity":33,"Duration":172711,"SoundDuration":172711,"Delta":182966677},{"NoteNumber":52,"Velocity":33,"Duration":172711,"SoundDuration":172711,"Delta":183139389},{"NoteNumber":54,"Velocity":33,"Duration":172711,"SoundDuration":172711,"Delta":183312100},{"NoteNumber":56,"Velocity":36,"Duration":172711,"SoundDuration":172711,"Delta":183484812},{"NoteNumber":54,"Velocity":33,"Duration":171742,"SoundDuration":171742,"Delta":183657523},{"NoteNumber":56,"Velocity":33,"Duration":171742,"SoundDuration":171742,"Delta":183829266},{"NoteNumber":59,"Velocity":33,"Duration":171589,"SoundDuration":171589,"Delta":184001008},{"NoteNumber":62,"Velocity":38,"Duration":338854,"SoundDuration":338854,"Delta":184172598},{"NoteNumber":59,"Velocity":33,"Duration":169424,"SoundDuration":169424,"Delta":184342028},{"NoteNumber":62,"Velocity":36,"Duration":169424,"SoundDuration":169424,"Delta":184511453},{"NoteNumber":64,"Velocity":36,"Duration":169424,"SoundDuration":169424,"Delta":184680877},{"NoteNumber":66,"Velocity":36,"Duration":170367,"SoundDuration":170367,"Delta":184850302},{"NoteNumber":68,"Velocity":35,"Duration":167551,"SoundDuration":167551,"Delta":185020669},{"NoteNumber":71,"Velocity":35,"Duration":165718,"SoundDuration":165718,"Delta":185188220},{"NoteNumber":74,"Velocity":36,"Duration":165718,"SoundDuration":165718,"Delta":185353939},{"NoteNumber":78,"Velocity":43,"Duration":168020,"SoundDuration":168020,"Delta":185519657},{"NoteNumber":74,"Velocity":39,"Duration":165718,"SoundDuration":165718,"Delta":185687677},{"NoteNumber":71,"Velocity":39,"Duration":165718,"SoundDuration":165718,"Delta":185853396},{"NoteNumber":66,"Velocity":36,"Duration":821494,"SoundDuration":821494,"Delta":186019114},{"NoteNumber":68,"Velocity":36,"Duration":659751,"SoundDuration":659751,"Delta":186180857},{"NoteNumber":71,"Velocity":36,"Duration":165270,"SoundDuration":165270,"Delta":186347486},{"NoteNumber":74,"Velocity":36,"Duration":163925,"SoundDuration":163925,"Delta":186512757},{"NoteNumber":76,"Velocity":36,"Duration":163925,"SoundDuration":163925,"Delta":186676683},{"NoteNumber":78,"Velocity":43,"Duration":168020,"SoundDuration":168020,"Delta":186840608},{"NoteNumber":74,"Velocity":39,"Duration":165718,"SoundDuration":165718,"Delta":187008628},{"NoteNumber":71,"Velocity":39,"Duration":165718,"SoundDuration":165718,"Delta":187174347},{"NoteNumber":64,"Velocity":35,"Duration":817960,"SoundDuration":817960,"Delta":187340065},{"NoteNumber":68,"Velocity":35,"Duration":655350,"SoundDuration":655350,"Delta":187502676},{"NoteNumber":71,"Velocity":35,"Duration":165270,"SoundDuration":165270,"Delta":187669305},{"NoteNumber":74,"Velocity":35,"Duration":161724,"SoundDuration":161724,"Delta":187834576},{"NoteNumber":76,"Velocity":35,"Duration":161725,"SoundDuration":161725,"Delta":187996301},{"NoteNumber":78,"Velocity":41,"Duration":164835,"SoundDuration":164835,"Delta":188158026},{"NoteNumber":74,"Velocity":37,"Duration":163487,"SoundDuration":163487,"Delta":188322861},{"NoteNumber":71,"Velocity":36,"Duration":163487,"SoundDuration":163487,"Delta":188486349},{"NoteNumber":66,"Velocity":33,"Duration":821494,"SoundDuration":821494,"Delta":188649836},{"NoteNumber":68,"Velocity":33,"Duration":659751,"SoundDuration":659751,"Delta":188811579},{"NoteNumber":71,"Velocity":32,"Duration":165270,"SoundDuration":165270,"Delta":188978208},{"NoteNumber":74,"Velocity":32,"Duration":163925,"SoundDuration":163925,"Delta":189143479},{"NoteNumber":76,"Velocity":31,"Duration":163925,"SoundDuration":163925,"Delta":189307405},{"NoteNumber":78,"Velocity":37,"Duration":168020,"SoundDuration":168020,"Delta":189471330},{"NoteNumber":74,"Velocity":34,"Duration":164816,"SoundDuration":164816,"Delta":189639350},{"NoteNumber":71,"Velocity":33,"Duration":164816,"SoundDuration":164816,"Delta":189804167},{"NoteNumber":64,"Velocity":30,"Duration":869915,"SoundDuration":869915,"Delta":189968984},{"NoteNumber":68,"Velocity":30,"Duration":707305,"SoundDuration":707305,"Delta":190131595},{"NoteNumber":71,"Velocity":30,"Duration":173290,"SoundDuration":173290,"Delta":190301019},{"NoteNumber":74,"Velocity":29,"Duration":179975,"SoundDuration":179975,"Delta":190474309},{"NoteNumber":76,"Velocity":28,"Duration":184615,"SoundDuration":184615,"Delta":190654284},{"NoteNumber":78,"Velocity":47,"Duration":362538,"SoundDuration":362538,"Delta":190838900},{"NoteNumber":54,"Velocity":27,"Duration":181269,"SoundDuration":181269,"Delta":191020169},{"NoteNumber":85,"Velocity":47,"Duration":349853,"SoundDuration":349853,"Delta":191201438},{"NoteNumber":66,"Velocity":27,"Duration":174926,"SoundDuration":174926,"Delta":191201438},{"NoteNumber":61,"Velocity":27,"Duration":174926,"SoundDuration":174926,"Delta":191201438},{"NoteNumber":69,"Velocity":27,"Duration":174926,"SoundDuration":174926,"Delta":191376365},{"NoteNumber":81,"Velocity":36,"Duration":715891,"SoundDuration":715891,"Delta":191551292},{"NoteNumber":84,"Velocity":49,"Duration":715891,"SoundDuration":715891,"Delta":191551292},{"NoteNumber":78,"Velocity":36,"Duration":715891,"SoundDuration":715891,"Delta":191551292},{"NoteNumber":57,"Velocity":27,"Duration":175757,"SoundDuration":175757,"Delta":191733851},{"NoteNumber":62,"Velocity":27,"Duration":175757,"SoundDuration":175757,"Delta":191909608},{"NoteNumber":66,"Velocity":27,"Duration":175757,"SoundDuration":175757,"Delta":191909608},{"NoteNumber":72,"Velocity":27,"Duration":181817,"SoundDuration":181817,"Delta":192085365},{"NoteNumber":85,"Velocity":47,"Duration":360360,"SoundDuration":360360,"Delta":192267183},{"NoteNumber":61,"Velocity":27,"Duration":180180,"SoundDuration":180180,"Delta":192447363},{"NoteNumber":81,"Velocity":36,"Duration":356083,"SoundDuration":356083,"Delta":192627543},{"NoteNumber":88,"Velocity":47,"Duration":356083,"SoundDuration":356083,"Delta":192627543},{"NoteNumber":78,"Velocity":36,"Duration":356083,"SoundDuration":356083,"Delta":192627543},{"NoteNumber":66,"Velocity":27,"Duration":178041,"SoundDuration":178041,"Delta":192627543},{"NoteNumber":76,"Velocity":27,"Duration":178041,"SoundDuration":178041,"Delta":192805585},{"NoteNumber":87,"Velocity":49,"Duration":244675,"SoundDuration":244675,"Delta":192983626},{"NoteNumber":59,"Velocity":23,"Duration":180180,"SoundDuration":180180,"Delta":193168242},{"NoteNumber":78,"Velocity":36,"Duration":240240,"SoundDuration":240240,"Delta":193228302},{"NoteNumber":83,"Velocity":45,"Duration":240240,"SoundDuration":240240,"Delta":193228302},{"NoteNumber":66,"Velocity":20,"Duration":180180,"SoundDuration":180180,"Delta":193348422},{"NoteNumber":81,"Velocity":44,"Duration":242987,"SoundDuration":242987,"Delta":193468542},{"NoteNumber":75,"Velocity":21,"Duration":182927,"SoundDuration":182927,"Delta":193528602},{"NoteNumber":78,"Velocity":47,"Duration":366972,"SoundDuration":366972,"Delta":193711529},{"NoteNumber":54,"Velocity":27,"Duration":183486,"SoundDuration":183486,"Delta":193895015},{"NoteNumber":85,"Velocity":47,"Duration":355029,"SoundDuration":355029,"Delta":194078501},{"NoteNumber":66,"Velocity":27,"Duration":177514,"SoundDuration":177514,"Delta":194078501},{"NoteNumber":61,"Velocity":27,"Duration":177514,"SoundDuration":177514,"Delta":194078501},{"NoteNumber":69,"Velocity":27,"Duration":177514,"SoundDuration":177514,"Delta":194256016},{"NoteNumber":78,"Velocity":36,"Duration":718359,"SoundDuration":718359,"Delta":194433531},{"NoteNumber":81,"Velocity":36,"Duration":718359,"SoundDuration":718359,"Delta":194433531},{"NoteNumber":84,"Velocity":49,"Duration":718359,"SoundDuration":718359,"Delta":194433531},{"NoteNumber":57,"Velocity":27,"Duration":176990,"SoundDuration":176990,"Delta":194616090},{"NoteNumber":62,"Velocity":27,"Duration":176991,"SoundDuration":176991,"Delta":194793081},{"NoteNumber":66,"Velocity":27,"Duration":176991,"SoundDuration":176991,"Delta":194793081},{"NoteNumber":72,"Velocity":27,"Duration":181817,"SoundDuration":181817,"Delta":194970072},{"NoteNumber":85,"Velocity":47,"Duration":357143,"SoundDuration":357143,"Delta":195151890},{"NoteNumber":61,"Velocity":27,"Duration":178571,"SoundDuration":178571,"Delta":195330462},{"NoteNumber":78,"Velocity":31,"Duration":361882,"SoundDuration":361882,"Delta":195509033},{"NoteNumber":81,"Velocity":31,"Duration":361882,"SoundDuration":361882,"Delta":195509033},{"NoteNumber":88,"Velocity":47,"Duration":361882,"SoundDuration":361882,"Delta":195509033},{"NoteNumber":66,"Velocity":27,"Duration":180940,"SoundDuration":180940,"Delta":195509033},{"NoteNumber":76,"Velocity":27,"Duration":180941,"SoundDuration":180941,"Delta":195689974},{"NoteNumber":87,"Velocity":49,"Duration":253194,"SoundDuration":253194,"Delta":195870915},{"NoteNumber":59,"Velocity":23,"Duration":186335,"SoundDuration":186335,"Delta":196061998},{"NoteNumber":83,"Velocity":45,"Duration":248447,"SoundDuration":248447,"Delta":196124110},{"NoteNumber":78,"Velocity":36,"Duration":248447,"SoundDuration":248447,"Delta":196124110},{"NoteNumber":66,"Velocity":20,"Duration":186335,"SoundDuration":186335,"Delta":196248334},{"NoteNumber":81,"Velocity":44,"Duration":251386,"SoundDuration":251386,"Delta":196372558},{"NoteNumber":75,"Velocity":20,"Duration":189274,"SoundDuration":189274,"Delta":196434669},{"NoteNumber":73,"Velocity":45,"Duration":370370,"SoundDuration":370370,"Delta":196623944},{"NoteNumber":49,"Velocity":24,"Duration":185185,"SoundDuration":185185,"Delta":196809129},{"NoteNumber":66,"Velocity":22,"Duration":388350,"SoundDuration":388350,"Delta":196994314},{"NoteNumber":69,"Velocity":22,"Duration":388350,"SoundDuration":388350,"Delta":196994314},{"NoteNumber":76,"Velocity":45,"Duration":388350,"SoundDuration":388350,"Delta":196994314},{"NoteNumber":54,"Velocity":21,"Duration":194175,"SoundDuration":194175,"Delta":196994314},{"NoteNumber":64,"Velocity":21,"Duration":194175,"SoundDuration":194175,"Delta":197188489},{"NoteNumber":75,"Velocity":48,"Duration":254984,"SoundDuration":254984,"Delta":197382664},{"NoteNumber":47,"Velocity":24,"Duration":189873,"SoundDuration":189873,"Delta":197574357},{"NoteNumber":66,"Velocity":33,"Duration":253164,"SoundDuration":253164,"Delta":197637649},{"NoteNumber":71,"Velocity":44,"Duration":253164,"SoundDuration":253164,"Delta":197637649},{"NoteNumber":54,"Velocity":25,"Duration":189873,"SoundDuration":189873,"Delta":197764231},{"NoteNumber":69,"Velocity":42,"Duration":272350,"SoundDuration":272350,"Delta":197890813},{"NoteNumber":63,"Velocity":24,"Duration":209058,"SoundDuration":209058,"Delta":197954104},{"NoteNumber":73,"Velocity":40,"Duration":1423532,"SoundDuration":1423532,"Delta":198163163},{"NoteNumber":45,"Velocity":34,"Duration":197368,"SoundDuration":197368,"Delta":198163163},{"NoteNumber":51,"Velocity":31,"Duration":176990,"SoundDuration":176990,"Delta":198360532},{"NoteNumber":54,"Velocity":31,"Duration":174926,"SoundDuration":174926,"Delta":198537523},{"NoteNumber":57,"Velocity":30,"Duration":174926,"SoundDuration":174926,"Delta":198712450},{"NoteNumber":61,"Velocity":35,"Duration":178571,"SoundDuration":178571,"Delta":198887377},{"NoteNumber":63,"Velocity":32,"Duration":174926,"SoundDuration":174926,"Delta":199065948},{"NoteNumber":66,"Velocity":32,"Duration":172910,"SoundDuration":172910,"Delta":199240875},{"NoteNumber":69,"Velocity":32,"Duration":172910,"SoundDuration":172910,"Delta":199413786},{"NoteNumber":73,"Velocity":33,"Duration":174926,"SoundDuration":174926,"Delta":199586696},{"NoteNumber":75,"Velocity":31,"Duration":173410,"SoundDuration":173410,"Delta":199761623},{"NoteNumber":78,"Velocity":30,"Duration":171920,"SoundDuration":171920,"Delta":199935034},{"NoteNumber":81,"Velocity":30,"Duration":171920,"SoundDuration":171920,"Delta":200106954},{"NoteNumber":85,"Velocity":33,"Duration":174926,"SoundDuration":174926,"Delta":200278874},{"NoteNumber":87,"Velocity":32,"Duration":170454,"SoundDuration":170454,"Delta":200453801},{"NoteNumber":90,"Velocity":32,"Duration":178041,"SoundDuration":178041,"Delta":200624255},{"NoteNumber":93,"Velocity":31,"Duration":186335,"SoundDuration":186335,"Delta":200802297},{"NoteNumber":95,"Velocity":36,"Duration":1410518,"SoundDuration":1410518,"Delta":200988632},{"NoteNumber":97,"Velocity":36,"Duration":1410518,"SoundDuration":1410518,"Delta":200988632},{"NoteNumber":44,"Velocity":32,"Duration":186335,"SoundDuration":186335,"Delta":200988632},{"NoteNumber":53,"Velocity":30,"Duration":176990,"SoundDuration":176990,"Delta":201174968},{"NoteNumber":56,"Velocity":30,"Duration":174926,"SoundDuration":174926,"Delta":201351959},{"NoteNumber":59,"Velocity":30,"Duration":174926,"SoundDuration":174926,"Delta":201526886},{"NoteNumber":65,"Velocity":32,"Duration":178571,"SoundDuration":178571,"Delta":201701813},{"NoteNumber":61,"Velocity":34,"Duration":178571,"SoundDuration":178571,"Delta":201701813},{"NoteNumber":68,"Velocity":32,"Duration":174926,"SoundDuration":174926,"Delta":201880384},{"NoteNumber":71,"Velocity":32,"Duration":171920,"SoundDuration":171920,"Delta":202055311},{"NoteNumber":73,"Velocity":32,"Duration":171920,"SoundDuration":171920,"Delta":202227231},{"NoteNumber":77,"Velocity":33,"Duration":174418,"SoundDuration":174418,"Delta":202399151},{"NoteNumber":80,"Velocity":31,"Duration":173410,"SoundDuration":173410,"Delta":202573570},{"NoteNumber":83,"Velocity":30,"Duration":171920,"SoundDuration":171920,"Delta":202746980},{"NoteNumber":85,"Velocity":30,"Duration":171920,"SoundDuration":171920,"Delta":202918900},{"NoteNumber":89,"Velocity":31,"Duration":174926,"SoundDuration":174926,"Delta":203090820},{"NoteNumber":92,"Velocity":30,"Duration":178571,"SoundDuration":178571,"Delta":203265747},{"NoteNumber":95,"Velocity":29,"Duration":182370,"SoundDuration":182370,"Delta":203444319},{"NoteNumber":97,"Velocity":28,"Duration":186335,"SoundDuration":186335,"Delta":203626690},{"NoteNumber":97,"Velocity":32,"Duration":183005,"SoundDuration":183005,"Delta":203813025},{"NoteNumber":102,"Velocity":32,"Duration":183005,"SoundDuration":183005,"Delta":203813025},{"NoteNumber":30,"Velocity":30,"Duration":728785,"SoundDuration":728785,"Delta":203813025},{"NoteNumber":37,"Velocity":30,"Duration":728785,"SoundDuration":728785,"Delta":203813025},{"NoteNumber":42,"Velocity":30,"Duration":728785,"SoundDuration":728785,"Delta":203813025},{"NoteNumber":90,"Velocity":32,"Duration":180832,"SoundDuration":180832,"Delta":203996030},{"NoteNumber":102,"Velocity":32,"Duration":180831,"SoundDuration":180831,"Delta":204176862},{"NoteNumber":97,"Velocity":32,"Duration":180831,"SoundDuration":180831,"Delta":204176862},{"NoteNumber":90,"Velocity":32,"Duration":184116,"SoundDuration":184116,"Delta":204357694},{"NoteNumber":90,"Velocity":30,"Duration":176626,"SoundDuration":176626,"Delta":204541811},{"NoteNumber":97,"Velocity":30,"Duration":176626,"SoundDuration":176626,"Delta":204541811},{"NoteNumber":37,"Velocity":30,"Duration":700923,"SoundDuration":700923,"Delta":204541811},{"NoteNumber":42,"Velocity":30,"Duration":700923,"SoundDuration":700923,"Delta":204541811},{"NoteNumber":49,"Velocity":30,"Duration":700923,"SoundDuration":700923,"Delta":204541811},{"NoteNumber":85,"Velocity":30,"Duration":174094,"SoundDuration":174094,"Delta":204718438},{"NoteNumber":97,"Velocity":30,"Duration":174094,"SoundDuration":174094,"Delta":204892532},{"NoteNumber":90,"Velocity":30,"Duration":174094,"SoundDuration":174094,"Delta":204892532},{"NoteNumber":85,"Velocity":30,"Duration":176107,"SoundDuration":176107,"Delta":205066627},{"NoteNumber":99,"Velocity":32,"Duration":175602,"SoundDuration":175602,"Delta":205242735},{"NoteNumber":90,"Velocity":32,"Duration":175602,"SoundDuration":175602,"Delta":205242735},{"NoteNumber":35,"Velocity":30,"Duration":1393269,"SoundDuration":1393269,"Delta":205242735},{"NoteNumber":42,"Velocity":30,"Duration":1393269,"SoundDuration":1393269,"Delta":205242735},{"NoteNumber":47,"Velocity":30,"Duration":1393269,"SoundDuration":1393269,"Delta":205242735},{"NoteNumber":87,"Velocity":32,"Duration":173590,"SoundDuration":173590,"Delta":205418338},{"NoteNumber":90,"Velocity":32,"Duration":173591,"SoundDuration":173591,"Delta":205591929},{"NoteNumber":99,"Velocity":32,"Duration":173591,"SoundDuration":173591,"Delta":205591929},{"NoteNumber":87,"Velocity":32,"Duration":173590,"SoundDuration":173590,"Delta":205765520},{"NoteNumber":95,"Velocity":30,"Duration":175602,"SoundDuration":175602,"Delta":205939111},{"NoteNumber":90,"Velocity":30,"Duration":175602,"SoundDuration":175602,"Delta":205939111},{"NoteNumber":83,"Velocity":30,"Duration":173100,"SoundDuration":173100,"Delta":206114714},{"NoteNumber":90,"Velocity":30,"Duration":173100,"SoundDuration":173100,"Delta":206287814},{"NoteNumber":95,"Velocity":30,"Duration":173100,"SoundDuration":173100,"Delta":206287814},{"NoteNumber":83,"Velocity":30,"Duration":175090,"SoundDuration":175090,"Delta":206460914},{"NoteNumber":90,"Velocity":32,"Duration":178179,"SoundDuration":178179,"Delta":206636004},{"NoteNumber":85,"Velocity":32,"Duration":178179,"SoundDuration":178179,"Delta":206636004},{"NoteNumber":30,"Velocity":30,"Duration":700451,"SoundDuration":700451,"Delta":206636004},{"NoteNumber":37,"Velocity":30,"Duration":700451,"SoundDuration":700451,"Delta":206636004},{"NoteNumber":42,"Velocity":30,"Duration":700451,"SoundDuration":700451,"Delta":206636004},{"NoteNumber":78,"Velocity":32,"Duration":173590,"SoundDuration":173590,"Delta":206814183},{"NoteNumber":85,"Velocity":32,"Duration":173591,"SoundDuration":173591,"Delta":206987774},{"NoteNumber":90,"Velocity":32,"Duration":173591,"SoundDuration":173591,"Delta":206987774},{"NoteNumber":78,"Velocity":32,"Duration":175090,"SoundDuration":175090,"Delta":207161365},{"NoteNumber":85,"Velocity":30,"Duration":172116,"SoundDuration":172116,"Delta":207336456},{"NoteNumber":78,"Velocity":30,"Duration":172116,"SoundDuration":172116,"Delta":207336456},{"NoteNumber":37,"Velocity":30,"Duration":692907,"SoundDuration":692907,"Delta":207336456},{"NoteNumber":42,"Velocity":30,"Duration":692907,"SoundDuration":692907,"Delta":207336456},{"NoteNumber":49,"Velocity":30,"Duration":692907,"SoundDuration":692907,"Delta":207336456},{"NoteNumber":73,"Velocity":30,"Duration":173100,"SoundDuration":173100,"Delta":207508573},{"NoteNumber":78,"Velocity":30,"Duration":173100,"SoundDuration":173100,"Delta":207681673},{"NoteNumber":85,"Velocity":30,"Duration":173100,"SoundDuration":173100,"Delta":207681673},{"NoteNumber":73,"Velocity":30,"Duration":174590,"SoundDuration":174590,"Delta":207854773},{"NoteNumber":87,"Velocity":32,"Duration":174094,"SoundDuration":174094,"Delta":208029364},{"NoteNumber":78,"Velocity":32,"Duration":174094,"SoundDuration":174094,"Delta":208029364},{"NoteNumber":35,"Velocity":30,"Duration":1375118,"SoundDuration":1375118,"Delta":208029364},{"NoteNumber":42,"Velocity":30,"Duration":1375118,"SoundDuration":1375118,"Delta":208029364},{"NoteNumber":47,"Velocity":30,"Duration":1375118,"SoundDuration":1375118,"Delta":208029364},{"NoteNumber":75,"Velocity":32,"Duration":171634,"SoundDuration":171634,"Delta":208203458},{"NoteNumber":78,"Velocity":32,"Duration":171634,"SoundDuration":171634,"Delta":208375093},{"NoteNumber":87,"Velocity":32,"Duration":171634,"SoundDuration":171634,"Delta":208375093},{"NoteNumber":75,"Velocity":32,"Duration":170193,"SoundDuration":170193,"Delta":208546727},{"NoteNumber":83,"Velocity":29,"Duration":171634,"SoundDuration":171634,"Delta":208716921},{"NoteNumber":78,"Velocity":29,"Duration":171634,"SoundDuration":171634,"Delta":208716921},{"NoteNumber":71,"Velocity":29,"Duration":170668,"SoundDuration":170668,"Delta":208888555},{"NoteNumber":83,"Velocity":29,"Duration":170668,"SoundDuration":170668,"Delta":209059223},{"NoteNumber":78,"Velocity":29,"Duration":170668,"SoundDuration":170668,"Delta":209059223},{"NoteNumber":71,"Velocity":29,"Duration":174590,"SoundDuration":174590,"Delta":209229891},{"NoteNumber":73,"Velocity":30,"Duration":174094,"SoundDuration":174094,"Delta":209404482},{"NoteNumber":78,"Velocity":30,"Duration":174094,"SoundDuration":174094,"Delta":209404482},{"NoteNumber":30,"Velocity":30,"Duration":692422,"SoundDuration":692422,"Delta":209404482},{"NoteNumber":37,"Velocity":30,"Duration":692422,"SoundDuration":692422,"Delta":209404482},{"NoteNumber":42,"Velocity":30,"Duration":692422,"SoundDuration":692422,"Delta":209404482},{"NoteNumber":66,"Velocity":30,"Duration":172116,"SoundDuration":172116,"Delta":209578577},{"NoteNumber":78,"Velocity":30,"Duration":172117,"SoundDuration":172117,"Delta":209750694},{"NoteNumber":73,"Velocity":30,"Duration":172117,"SoundDuration":172117,"Delta":209750694},{"NoteNumber":66,"Velocity":30,"Duration":174094,"SoundDuration":174094,"Delta":209922811},{"NoteNumber":66,"Velocity":28,"Duration":174094,"SoundDuration":174094,"Delta":210096905},{"NoteNumber":73,"Velocity":28,"Duration":174094,"SoundDuration":174094,"Delta":210096905},{"NoteNumber":42,"Velocity":30,"Duration":714164,"SoundDuration":714164,"Delta":210096905},{"NoteNumber":37,"Velocity":30,"Duration":714164,"SoundDuration":714164,"Delta":210096905},{"NoteNumber":49,"Velocity":30,"Duration":714164,"SoundDuration":714164,"Delta":210096905},{"NoteNumber":61,"Velocity":28,"Duration":178571,"SoundDuration":178571,"Delta":210271000},{"NoteNumber":73,"Velocity":28,"Duration":178571,"SoundDuration":178571,"Delta":210449571},{"NoteNumber":66,"Velocity":28,"Duration":178571,"SoundDuration":178571,"Delta":210449571},{"NoteNumber":61,"Velocity":28,"Duration":182927,"SoundDuration":182927,"Delta":210628143},{"NoteNumber":66,"Velocity":30,"Duration":1373674,"SoundDuration":1373674,"Delta":210811070},{"NoteNumber":63,"Velocity":30,"Duration":1204182,"SoundDuration":1204182,"Delta":210811070},{"NoteNumber":75,"Velocity":30,"Duration":1373674,"SoundDuration":1373674,"Delta":210811070},{"NoteNumber":35,"Velocity":30,"Duration":172457,"SoundDuration":172457,"Delta":210811070},{"NoteNumber":42,"Velocity":30,"Duration":172414,"SoundDuration":172414,"Delta":210983528},{"NoteNumber":47,"Velocity":30,"Duration":172414,"SoundDuration":172414,"Delta":211155942},{"NoteNumber":51,"Velocity":30,"Duration":172414,"SoundDuration":172414,"Delta":211328356},{"NoteNumber":54,"Velocity":30,"Duration":173410,"SoundDuration":173410,"Delta":211500770},{"NoteNumber":59,"Velocity":30,"Duration":170859,"SoundDuration":170859,"Delta":211674180},{"NoteNumber":63,"Velocity":30,"Duration":339704,"SoundDuration":339704,"Delta":211845039},{"NoteNumber":66,"Velocity":30,"Duration":169491,"SoundDuration":169491,"Delta":212015252},{"NoteNumber":71,"Velocity":30,"Duration":170940,"SoundDuration":170940,"Delta":212184744},{"NoteNumber":75,"Velocity":30,"Duration":169014,"SoundDuration":169014,"Delta":212355684},{"NoteNumber":78,"Velocity":30,"Duration":167131,"SoundDuration":167131,"Delta":212524698},{"NoteNumber":83,"Velocity":30,"Duration":167130,"SoundDuration":167130,"Delta":212691829},{"NoteNumber":87,"Velocity":29,"Duration":166898,"SoundDuration":166898,"Delta":212858960},{"NoteNumber":90,"Velocity":29,"Duration":167832,"SoundDuration":167832,"Delta":213025859},{"NoteNumber":95,"Velocity":28,"Duration":168856,"SoundDuration":168856,"Delta":213193691},{"NoteNumber":99,"Velocity":28,"Duration":179104,"SoundDuration":179104,"Delta":213362548},{"NoteNumber":97,"Velocity":27,"Duration":172910,"SoundDuration":172910,"Delta":213541652},{"NoteNumber":102,"Velocity":27,"Duration":172910,"SoundDuration":172910,"Delta":213541652},{"NoteNumber":90,"Velocity":27,"Duration":172910,"SoundDuration":172910,"Delta":213541652},{"NoteNumber":30,"Velocity":27,"Duration":172910,"SoundDuration":172910,"Delta":213541652},{"NoteNumber":37,"Velocity":27,"Duration":172910,"SoundDuration":172910,"Delta":213541652},{"NoteNumber":42,"Velocity":27,"Duration":172910,"SoundDuration":172910,"Delta":213541652},{"NoteNumber":66,"Velocity":24,"Duration":175952,"SoundDuration":175952,"Delta":214924936},{"NoteNumber":78,"Velocity":24,"Duration":175952,"SoundDuration":175952,"Delta":214924936},{"NoteNumber":73,"Velocity":24,"Duration":175952,"SoundDuration":175952,"Delta":214924936},{"NoteNumber":42,"Velocity":23,"Duration":175952,"SoundDuration":175952,"Delta":214924936},{"NoteNumber":49,"Velocity":23,"Duration":175952,"SoundDuration":175952,"Delta":214924936},{"NoteNumber":57,"Velocity":23,"Duration":175952,"SoundDuration":175952,"Delta":214924936},{"NoteNumber":78,"Velocity":26,"Duration":175952,"SoundDuration":175952,"Delta":216332560},{"NoteNumber":90,"Velocity":26,"Duration":175952,"SoundDuration":175952,"Delta":216332560},{"NoteNumber":30,"Velocity":25,"Duration":175952,"SoundDuration":175952,"Delta":216332560},{"NoteNumber":42,"Velocity":25,"Duration":175952,"SoundDuration":175952,"Delta":216332560}],"license":{"name":"Creative Commons Attribution-ShareAlike 3.0 Germany","url":"http://creativecommons.org/licenses/by-sa/3.0/de/deed.en","text":"The MIDI, audio (MP3, OGG) and video files of Bernd Krueger are licensed under the cc-by-sa Germany License. This means that you can use and adapt the files, as long as you attribute the copyright holder.\n\nName: Bernd Krueger\nSource: http://www.piano-midi.de\n\nThe distribution or public playback of the files is only allowed under identical license conditions.\n\nThe scores are open source.","attribution":"MIDI files by Bernd Krueger (piano-midi.de)","attributionUrl":"http://www.piano-midi.de"}}