{"title":"Prelude","artist":"Debussy","durationMs":237514,"midiSha256":"70e8942deb55d22138c8751f8c8a8342df26d8aef0bd3032a55b53f26b7186ef","midiObject":[{"NoteNumber":29,"Velocity":87,"Duration":327869,"SoundDuration":327869,"Delta":0},{"NoteNumber":41,"Velocity":78,"Duration":327869,"SoundDuration":327869,"Delta":326503},{"NoteNumber":48,"Velocity":81,"Duration":284974,"SoundDuration":284974,"Delta":654372},{"NoteNumber":48,"Velocity":81,"Duration":2659960,"SoundDuration":2659960,"Delta":965253},{"NoteNumber":67,"Velocity":70,"Duration":2277795,"SoundDuration":2277795,"Delta":1347418},{"NoteNumber":70,"Velocity":70,"Duration":2277795,"SoundDuration":2277795,"Delta":1347418},{"NoteNumber":74,"Velocity":70,"Duration":2277795,"SoundDuration":2277795,"Delta":1347418},{"NoteNumber":79,"Velocity":83,"Duration":1829837,"SoundDuration":1829837,"Delta":1347418},{"NoteNumber":62,"Velocity":70,"Duration":2277795,"SoundDuration":2277795,"Delta":1347418},{"NoteNumber":58,"Velocity":58,"Duration":2277795,"SoundDuration":2277795,"Delta":1347418},{"NoteNumber":55,"Velocity":58,"Duration":2277795,"SoundDuration":2277795,"Delta":1347418},{"NoteNumber":81,"Velocity":53,"Duration":151515,"SoundDuration":151515,"Delta":3177255},{"NoteNumber":82,"Velocity":53,"Duration":151515,"SoundDuration":151515,"Delta":3328771},{"NoteNumber":81,"Velocity":53,"Duration":144927,"SoundDuration":144927,"Delta":3480286},{"NoteNumber":79,"Velocity":56,"Duration":139534,"SoundDuration":139534,"Delta":3625213},{"NoteNumber":81,"Velocity":54,"Duration":135135,"SoundDuration":135135,"Delta":3764748},{"NoteNumber":79,"Velocity":54,"Duration":135135,"SoundDuration":135135,"Delta":3899884},{"NoteNumber":77,"Velocity":54,"Duration":135135,"SoundDuration":135135,"Delta":4035019},{"NoteNumber":74,"Velocity":57,"Duration":137614,"SoundDuration":137614,"Delta":4170154},{"NoteNumber":77,"Velocity":54,"Duration":134529,"SoundDuration":134529,"Delta":4307769},{"NoteNumber":74,"Velocity":54,"Duration":134529,"SoundDuration":134529,"Delta":4442298},{"NoteNumber":72,"Velocity":54,"Duration":134529,"SoundDuration":134529,"Delta":4576827},{"NoteNumber":70,"Velocity":58,"Duration":137614,"SoundDuration":137614,"Delta":4711357},{"NoteNumber":67,"Velocity":54,"Duration":134529,"SoundDuration":134529,"Delta":4848971},{"NoteNumber":62,"Velocity":53,"Duration":134529,"SoundDuration":134529,"Delta":4983501},{"NoteNumber":64,"Velocity":53,"Duration":134529,"SoundDuration":134529,"Delta":5118030},{"NoteNumber":67,"Velocity":52,"Duration":142179,"SoundDuration":142179,"Delta":5252559},{"NoteNumber":60,"Velocity":44,"Duration":1147700,"SoundDuration":1147700,"Delta":5252559},{"NoteNumber":41,"Velocity":36,"Duration":1147700,"SoundDuration":1147700,"Delta":5252559},{"NoteNumber":48,"Velocity":36,"Duration":1147700,"SoundDuration":1147700,"Delta":5252559},{"NoteNumber":57,"Velocity":44,"Duration":2283287,"SoundDuration":2283287,"Delta":5252559},{"NoteNumber":65,"Velocity":48,"Duration":144230,"SoundDuration":144230,"Delta":5394739},{"NoteNumber":67,"Velocity":48,"Duration":142857,"SoundDuration":142857,"Delta":5538970},{"NoteNumber":69,"Velocity":47,"Duration":141509,"SoundDuration":141509,"Delta":5681827},{"NoteNumber":67,"Velocity":47,"Duration":721153,"SoundDuration":721153,"Delta":5823336},{"NoteNumber":62,"Velocity":44,"Duration":1135587,"SoundDuration":1135587,"Delta":6400259},{"NoteNumber":53,"Velocity":37,"Duration":1135587,"SoundDuration":1135587,"Delta":6400259},{"NoteNumber":46,"Velocity":37,"Duration":1135587,"SoundDuration":1135587,"Delta":6400259},{"NoteNumber":65,"Velocity":48,"Duration":142179,"SoundDuration":142179,"Delta":6544490},{"NoteNumber":67,"Velocity":49,"Duration":143540,"SoundDuration":143540,"Delta":6686670},{"NoteNumber":69,"Velocity":52,"Duration":140187,"SoundDuration":140187,"Delta":6830211},{"NoteNumber":72,"Velocity":53,"Duration":143540,"SoundDuration":143540,"Delta":6970398},{"NoteNumber":69,"Velocity":53,"Duration":141509,"SoundDuration":141509,"Delta":7113939},{"NoteNumber":67,"Velocity":53,"Duration":141509,"SoundDuration":141509,"Delta":7255448},{"NoteNumber":65,"Velocity":53,"Duration":138888,"SoundDuration":138888,"Delta":7396958},{"NoteNumber":64,"Velocity":45,"Duration":1178113,"SoundDuration":1178113,"Delta":7535847},{"NoteNumber":67,"Velocity":54,"Duration":146341,"SoundDuration":146341,"Delta":7535847},{"NoteNumber":57,"Velocity":37,"Duration":2362214,"SoundDuration":2362214,"Delta":7535847},{"NoteNumber":48,"Velocity":37,"Duration":1178113,"SoundDuration":1178113,"Delta":7535847},{"NoteNumber":65,"Velocity":49,"Duration":148514,"SoundDuration":148514,"Delta":7682188},{"NoteNumber":67,"Velocity":51,"Duration":146341,"SoundDuration":146341,"Delta":7830703},{"NoteNumber":69,"Velocity":49,"Duration":142857,"SoundDuration":142857,"Delta":7977044},{"NoteNumber":67,"Velocity":48,"Duration":742573,"SoundDuration":742573,"Delta":8119902},{"NoteNumber":62,"Velocity":45,"Duration":1184100,"SoundDuration":1184100,"Delta":8713961},{"NoteNumber":50,"Velocity":45,"Duration":1184100,"SoundDuration":1184100,"Delta":8713961},{"NoteNumber":65,"Velocity":49,"Duration":146341,"SoundDuration":146341,"Delta":8862475},{"NoteNumber":67,"Velocity":51,"Duration":146341,"SoundDuration":146341,"Delta":9008817},{"NoteNumber":69,"Velocity":52,"Duration":142857,"SoundDuration":142857,"Delta":9155158},{"NoteNumber":74,"Velocity":56,"Duration":152284,"SoundDuration":152284,"Delta":9298016},{"NoteNumber":69,"Velocity":54,"Duration":149253,"SoundDuration":149253,"Delta":9450300},{"NoteNumber":67,"Velocity":54,"Duration":149253,"SoundDuration":149253,"Delta":9599554},{"NoteNumber":65,"Velocity":54,"Duration":298929,"SoundDuration":298929,"Delta":9748807},{"NoteNumber":62,"Velocity":49,"Duration":622701,"SoundDuration":622701,"Delta":9898061},{"NoteNumber":46,"Velocity":41,"Duration":622701,"SoundDuration":622701,"Delta":9898061},{"NoteNumber":53,"Velocity":41,"Duration":622701,"SoundDuration":622701,"Delta":9898061},{"NoteNumber":58,"Velocity":41,"Duration":622701,"SoundDuration":622701,"Delta":9898061},{"NoteNumber":70,"Velocity":52,"Duration":156006,"SoundDuration":156006,"Delta":10047737},{"NoteNumber":74,"Velocity":54,"Duration":151729,"SoundDuration":151729,"Delta":10203743},{"NoteNumber":77,"Velocity":57,"Duration":165289,"SoundDuration":165289,"Delta":10355473},{"NoteNumber":74,"Velocity":47,"Duration":630447,"SoundDuration":630447,"Delta":10520762},{"NoteNumber":81,"Velocity":60,"Duration":956533,"SoundDuration":956533,"Delta":10520762},{"NoteNumber":58,"Velocity":42,"Duration":1900682,"SoundDuration":1900682,"Delta":10520762},{"NoteNumber":65,"Velocity":47,"Duration":630447,"SoundDuration":630447,"Delta":10520762},{"NoteNumber":72,"Velocity":52,"Duration":2259077,"SoundDuration":2259077,"Delta":11151209},{"NoteNumber":64,"Velocity":47,"Duration":645235,"SoundDuration":645235,"Delta":11151209},{"NoteNumber":79,"Velocity":54,"Duration":319148,"SoundDuration":319148,"Delta":11477296},{"NoteNumber":77,"Velocity":52,"Duration":312500,"SoundDuration":312500,"Delta":11796445},{"NoteNumber":62,"Velocity":51,"Duration":312500,"SoundDuration":312500,"Delta":11796445},{"NoteNumber":79,"Velocity":54,"Duration":480532,"SoundDuration":480532,"Delta":12108945},{"NoteNumber":64,"Velocity":53,"Duration":480532,"SoundDuration":480532,"Delta":12108945},{"NoteNumber":57,"Velocity":53,"Duration":1308862,"SoundDuration":1308862,"Delta":12421445},{"NoteNumber":77,"Velocity":49,"Duration":162162,"SoundDuration":162162,"Delta":12589478},{"NoteNumber":65,"Velocity":45,"Duration":162162,"SoundDuration":162162,"Delta":12589478},{"NoteNumber":76,"Velocity":51,"Duration":157894,"SoundDuration":157894,"Delta":12751640},{"NoteNumber":67,"Velocity":45,"Duration":157894,"SoundDuration":157894,"Delta":12751640},{"NoteNumber":79,"Velocity":51,"Duration":157894,"SoundDuration":157894,"Delta":12909535},{"NoteNumber":69,"Velocity":45,"Duration":157894,"SoundDuration":157894,"Delta":12909535},{"NoteNumber":77,"Velocity":54,"Duration":988964,"SoundDuration":988964,"Delta":13067430},{"NoteNumber":62,"Velocity":45,"Duration":988964,"SoundDuration":988964,"Delta":13067430},{"NoteNumber":70,"Velocity":49,"Duration":161290,"SoundDuration":161290,"Delta":13410287},{"NoteNumber":69,"Velocity":49,"Duration":158730,"SoundDuration":158730,"Delta":13571577},{"NoteNumber":70,"Velocity":51,"Duration":1358712,"SoundDuration":1358712,"Delta":13730307},{"NoteNumber":55,"Velocity":46,"Duration":665070,"SoundDuration":665070,"Delta":13730307},{"NoteNumber":76,"Velocity":46,"Duration":338983,"SoundDuration":338983,"Delta":14056394},{"NoteNumber":64,"Velocity":45,"Duration":338983,"SoundDuration":338983,"Delta":14056394},{"NoteNumber":74,"Velocity":45,"Duration":346821,"SoundDuration":346821,"Delta":14395377},{"NoteNumber":65,"Velocity":37,"Duration":346821,"SoundDuration":346821,"Delta":14395377},{"NoteNumber":48,"Velocity":41,"Duration":693642,"SoundDuration":693642,"Delta":14395377},{"NoteNumber":72,"Velocity":43,"Duration":346821,"SoundDuration":346821,"Delta":14742198},{"NoteNumber":64,"Velocity":36,"Duration":346821,"SoundDuration":346821,"Delta":14742198},{"NoteNumber":29,"Velocity":89,"Duration":327868,"SoundDuration":327868,"Delta":15090385},{"NoteNumber":41,"Velocity":77,"Duration":327868,"SoundDuration":327868,"Delta":15416888},{"NoteNumber":48,"Velocity":81,"Duration":284974,"SoundDuration":284974,"Delta":15744757},{"NoteNumber":48,"Velocity":81,"Duration":2659960,"SoundDuration":2659960,"Delta":16055638},{"NoteNumber":74,"Velocity":70,"Duration":2277795,"SoundDuration":2277795,"Delta":16437804},{"NoteNumber":70,"Velocity":70,"Duration":2277795,"SoundDuration":2277795,"Delta":16437804},{"NoteNumber":79,"Velocity":83,"Duration":1829837,"SoundDuration":1829837,"Delta":16437804},{"NoteNumber":67,"Velocity":70,"Duration":2277795,"SoundDuration":2277795,"Delta":16437804},{"NoteNumber":62,"Velocity":71,"Duration":2277795,"SoundDuration":2277795,"Delta":16437804},{"NoteNumber":58,"Velocity":60,"Duration":2277795,"SoundDuration":2277795,"Delta":16437804},{"NoteNumber":55,"Velocity":60,"Duration":2277795,"SoundDuration":2277795,"Delta":16437804},{"NoteNumber":81,"Velocity":53,"Duration":151515,"SoundDuration":151515,"Delta":18267641},{"NoteNumber":82,"Velocity":53,"Duration":151515,"SoundDuration":151515,"Delta":18419156},{"NoteNumber":81,"Velocity":53,"Duration":144927,"SoundDuration":144927,"Delta":18570672},{"NoteNumber":79,"Velocity":56,"Duration":139534,"SoundDuration":139534,"Delta":18715599},{"NoteNumber":81,"Velocity":54,"Duration":135135,"SoundDuration":135135,"Delta":18855134},{"NoteNumber":79,"Velocity":54,"Duration":135135,"SoundDuration":135135,"Delta":18990269},{"NoteNumber":77,"Velocity":54,"Duration":135135,"SoundDuration":135135,"Delta":19125405},{"NoteNumber":74,"Velocity":57,"Duration":137614,"SoundDuration":137614,"Delta":19260540},{"NoteNumber":77,"Velocity":54,"Duration":134529,"SoundDuration":134529,"Delta":19398155},{"NoteNumber":74,"Velocity":54,"Duration":134529,"SoundDuration":134529,"Delta":19532684},{"NoteNumber":72,"Velocity":54,"Duration":134529,"SoundDuration":134529,"Delta":19667213},{"NoteNumber":70,"Velocity":58,"Duration":137614,"SoundDuration":137614,"Delta":19801742},{"NoteNumber":67,"Velocity":54,"Duration":134529,"SoundDuration":134529,"Delta":19939357},{"NoteNumber":62,"Velocity":53,"Duration":134529,"SoundDuration":134529,"Delta":20073886},{"NoteNumber":64,"Velocity":53,"Duration":134529,"SoundDuration":134529,"Delta":20208416},{"NoteNumber":67,"Velocity":51,"Duration":146341,"SoundDuration":146341,"Delta":20342945},{"NoteNumber":63,"Velocity":36,"Duration":2294848,"SoundDuration":2294848,"Delta":20342945},{"NoteNumber":58,"Velocity":43,"Duration":1155279,"SoundDuration":1155279,"Delta":20342945},{"NoteNumber":60,"Velocity":36,"Duration":2294848,"SoundDuration":2294848,"Delta":20351481},{"NoteNumber":65,"Velocity":47,"Duration":144927,"SoundDuration":144927,"Delta":20489286},{"NoteNumber":67,"Velocity":48,"Duration":144230,"SoundDuration":144230,"Delta":20634214},{"NoteNumber":69,"Velocity":47,"Duration":142857,"SoundDuration":142857,"Delta":20778445},{"NoteNumber":67,"Velocity":46,"Duration":721153,"SoundDuration":721153,"Delta":20921302},{"NoteNumber":57,"Velocity":38,"Duration":1139568,"SoundDuration":1139568,"Delta":21498225},{"NoteNumber":65,"Velocity":48,"Duration":141509,"SoundDuration":141509,"Delta":21642456},{"NoteNumber":67,"Velocity":49,"Duration":143540,"SoundDuration":143540,"Delta":21783965},{"NoteNumber":69,"Velocity":52,"Duration":141509,"SoundDuration":141509,"Delta":21927506},{"NoteNumber":72,"Velocity":53,"Duration":144230,"SoundDuration":144230,"Delta":22069015},{"NoteNumber":69,"Velocity":53,"Duration":142179,"SoundDuration":142179,"Delta":22213246},{"NoteNumber":67,"Velocity":53,"Duration":142179,"SoundDuration":142179,"Delta":22355426},{"NoteNumber":65,"Velocity":53,"Duration":140187,"SoundDuration":140187,"Delta":22497606},{"NoteNumber":67,"Velocity":52,"Duration":146341,"SoundDuration":146341,"Delta":22637793},{"NoteNumber":62,"Velocity":41,"Duration":1180184,"SoundDuration":1180184,"Delta":22637793},{"NoteNumber":58,"Velocity":35,"Duration":1180184,"SoundDuration":1180184,"Delta":22637793},{"NoteNumber":51,"Velocity":35,"Duration":1180184,"SoundDuration":1180184,"Delta":22637793},{"NoteNumber":65,"Velocity":49,"Duration":148514,"SoundDuration":148514,"Delta":22784135},{"NoteNumber":67,"Velocity":51,"Duration":146341,"SoundDuration":146341,"Delta":22932649},{"NoteNumber":69,"Velocity":49,"Duration":144927,"SoundDuration":144927,"Delta":23078991},{"NoteNumber":67,"Velocity":48,"Duration":742573,"SoundDuration":742573,"Delta":23223918},{"NoteNumber":63,"Velocity":45,"Duration":1184100,"SoundDuration":1184100,"Delta":23817977},{"NoteNumber":41,"Velocity":32,"Duration":1184100,"SoundDuration":1184100,"Delta":23817977},{"NoteNumber":48,"Velocity":32,"Duration":1184100,"SoundDuration":1184100,"Delta":23817977},{"NoteNumber":57,"Velocity":38,"Duration":1184100,"SoundDuration":1184100,"Delta":23817977},{"NoteNumber":65,"Velocity":49,"Duration":146341,"SoundDuration":146341,"Delta":23966492},{"NoteNumber":67,"Velocity":51,"Duration":146341,"SoundDuration":146341,"Delta":24112834},{"NoteNumber":69,"Velocity":52,"Duration":142857,"SoundDuration":142857,"Delta":24259175},{"NoteNumber":74,"Velocity":56,"Duration":152284,"SoundDuration":152284,"Delta":24402032},{"NoteNumber":69,"Velocity":54,"Duration":149253,"SoundDuration":149253,"Delta":24554317},{"NoteNumber":67,"Velocity":54,"Duration":149253,"SoundDuration":149253,"Delta":24703570},{"NoteNumber":65,"Velocity":54,"Duration":149253,"SoundDuration":149253,"Delta":24852824},{"NoteNumber":34,"Velocity":72,"Duration":340908,"SoundDuration":340908,"Delta":25002078},{"NoteNumber":46,"Velocity":72,"Duration":340908,"SoundDuration":340908,"Delta":25002078},{"NoteNumber":53,"Velocity":72,"Duration":363636,"SoundDuration":363636,"Delta":25342987},{"NoteNumber":74,"Velocity":53,"Duration":1027273,"SoundDuration":1027273,"Delta":25706623},{"NoteNumber":77,"Velocity":63,"Duration":1027273,"SoundDuration":1027273,"Delta":25706623},{"NoteNumber":62,"Velocity":42,"Duration":1027273,"SoundDuration":1027273,"Delta":25706623},{"NoteNumber":65,"Velocity":50,"Duration":1027273,"SoundDuration":1027273,"Delta":25706623},{"NoteNumber":72,"Velocity":51,"Duration":147058,"SoundDuration":147058,"Delta":26733896},{"NoteNumber":76,"Velocity":60,"Duration":147058,"SoundDuration":147058,"Delta":26733896},{"NoteNumber":64,"Velocity":37,"Duration":147058,"SoundDuration":147058,"Delta":26733896},{"NoteNumber":67,"Velocity":44,"Duration":147058,"SoundDuration":147058,"Delta":26733896},{"NoteNumber":74,"Velocity":50,"Duration":147058,"SoundDuration":147058,"Delta":26880955},{"NoteNumber":77,"Velocity":59,"Duration":147058,"SoundDuration":147058,"Delta":26880955},{"NoteNumber":65,"Velocity":36,"Duration":147058,"SoundDuration":147058,"Delta":26880955},{"NoteNumber":69,"Velocity":43,"Duration":147058,"SoundDuration":147058,"Delta":26880955},{"NoteNumber":72,"Velocity":54,"Duration":300000,"SoundDuration":300000,"Delta":27028014},{"NoteNumber":76,"Velocity":64,"Duration":300000,"SoundDuration":300000,"Delta":27028014},{"NoteNumber":64,"Velocity":41,"Duration":300000,"SoundDuration":300000,"Delta":27028014},{"NoteNumber":67,"Velocity":49,"Duration":300000,"SoundDuration":300000,"Delta":27028014},{"NoteNumber":74,"Velocity":55,"Duration":147058,"SoundDuration":147058,"Delta":27328014},{"NoteNumber":70,"Velocity":46,"Duration":147058,"SoundDuration":147058,"Delta":27328014},{"NoteNumber":62,"Velocity":35,"Duration":147058,"SoundDuration":147058,"Delta":27328014},{"NoteNumber":65,"Velocity":42,"Duration":147058,"SoundDuration":147058,"Delta":27328014},{"NoteNumber":76,"Velocity":54,"Duration":147058,"SoundDuration":147058,"Delta":27475073},{"NoteNumber":72,"Velocity":46,"Duration":147058,"SoundDuration":147058,"Delta":27475073},{"NoteNumber":64,"Velocity":35,"Duration":147058,"SoundDuration":147058,"Delta":27475073},{"NoteNumber":67,"Velocity":42,"Duration":147058,"SoundDuration":147058,"Delta":27475073},{"NoteNumber":74,"Velocity":62,"Duration":287990,"SoundDuration":287990,"Delta":27622131},{"NoteNumber":70,"Velocity":52,"Duration":287990,"SoundDuration":287990,"Delta":27622131},{"NoteNumber":62,"Velocity":40,"Duration":287990,"SoundDuration":287990,"Delta":27622131},{"NoteNumber":65,"Velocity":47,"Duration":287990,"SoundDuration":287990,"Delta":27622131},{"NoteNumber":72,"Velocity":56,"Duration":268656,"SoundDuration":268656,"Delta":27916249},{"NoteNumber":67,"Velocity":47,"Duration":268656,"SoundDuration":268656,"Delta":27916249},{"NoteNumber":60,"Velocity":37,"Duration":268656,"SoundDuration":268656,"Delta":27916249},{"NoteNumber":64,"Velocity":44,"Duration":268656,"SoundDuration":268656,"Delta":27916249},{"NoteNumber":72,"Velocity":57,"Duration":273631,"SoundDuration":273631,"Delta":28214756},{"NoteNumber":67,"Velocity":47,"Duration":273631,"SoundDuration":273631,"Delta":28214756},{"NoteNumber":60,"Velocity":38,"Duration":273631,"SoundDuration":273631,"Delta":28214756},{"NoteNumber":64,"Velocity":45,"Duration":273631,"SoundDuration":273631,"Delta":28214756},{"NoteNumber":74,"Velocity":58,"Duration":306122,"SoundDuration":306122,"Delta":28513264},{"NoteNumber":70,"Velocity":49,"Duration":306122,"SoundDuration":306122,"Delta":28513264},{"NoteNumber":58,"Velocity":38,"Duration":306122,"SoundDuration":306122,"Delta":28513264},{"NoteNumber":65,"Velocity":45,"Duration":306122,"SoundDuration":306122,"Delta":28513264},{"NoteNumber":72,"Velocity":48,"Duration":293367,"SoundDuration":293367,"Delta":28819386},{"NoteNumber":69,"Velocity":48,"Duration":293367,"SoundDuration":293367,"Delta":28819386},{"NoteNumber":76,"Velocity":58,"Duration":293367,"SoundDuration":293367,"Delta":28819386},{"NoteNumber":64,"Velocity":44,"Duration":293367,"SoundDuration":293367,"Delta":28819386},{"NoteNumber":60,"Velocity":37,"Duration":293367,"SoundDuration":293367,"Delta":28819386},{"NoteNumber":57,"Velocity":37,"Duration":293367,"SoundDuration":293367,"Delta":28819386},{"NoteNumber":74,"Velocity":52,"Duration":281250,"SoundDuration":281250,"Delta":29125509},{"NoteNumber":79,"Velocity":62,"Duration":281250,"SoundDuration":281250,"Delta":29125509},{"NoteNumber":70,"Velocity":52,"Duration":281250,"SoundDuration":281250,"Delta":29125509},{"NoteNumber":55,"Velocity":39,"Duration":281250,"SoundDuration":281250,"Delta":29125509},{"NoteNumber":58,"Velocity":39,"Duration":281250,"SoundDuration":281250,"Delta":29125509},{"NoteNumber":62,"Velocity":46,"Duration":281250,"SoundDuration":281250,"Delta":29125509},{"NoteNumber":74,"Velocity":55,"Duration":317460,"SoundDuration":317460,"Delta":29438009},{"NoteNumber":79,"Velocity":65,"Duration":317460,"SoundDuration":317460,"Delta":29438009},{"NoteNumber":70,"Velocity":55,"Duration":317460,"SoundDuration":317460,"Delta":29438009},{"NoteNumber":55,"Velocity":43,"Duration":317460,"SoundDuration":317460,"Delta":29438009},{"NoteNumber":58,"Velocity":43,"Duration":317460,"SoundDuration":317460,"Delta":29438009},{"NoteNumber":62,"Velocity":50,"Duration":317460,"SoundDuration":317460,"Delta":29438009},{"NoteNumber":69,"Velocity":54,"Duration":322580,"SoundDuration":322580,"Delta":29755469},{"NoteNumber":73,"Velocity":54,"Duration":322580,"SoundDuration":322580,"Delta":29755469},{"NoteNumber":81,"Velocity":64,"Duration":322580,"SoundDuration":322580,"Delta":29755469},{"NoteNumber":53,"Velocity":40,"Duration":322580,"SoundDuration":322580,"Delta":29755469},{"NoteNumber":57,"Velocity":40,"Duration":322580,"SoundDuration":322580,"Delta":29755469},{"NoteNumber":61,"Velocity":48,"Duration":322580,"SoundDuration":322580,"Delta":29755469},{"NoteNumber":34,"Velocity":61,"Duration":350877,"SoundDuration":350877,"Delta":30078050},{"NoteNumber":46,"Velocity":72,"Duration":350877,"SoundDuration":350877,"Delta":30078050},{"NoteNumber":53,"Velocity":72,"Duration":363636,"SoundDuration":363636,"Delta":30428927},{"NoteNumber":74,"Velocity":53,"Duration":1027273,"SoundDuration":1027273,"Delta":30792563},{"NoteNumber":77,"Velocity":63,"Duration":1027273,"SoundDuration":1027273,"Delta":30792563},{"NoteNumber":62,"Velocity":45,"Duration":1027273,"SoundDuration":1027273,"Delta":30792563},{"NoteNumber":65,"Velocity":53,"Duration":1027273,"SoundDuration":1027273,"Delta":30792563},{"NoteNumber":72,"Velocity":51,"Duration":147058,"SoundDuration":147058,"Delta":31819836},{"NoteNumber":76,"Velocity":60,"Duration":147058,"SoundDuration":147058,"Delta":31819836},{"NoteNumber":64,"Velocity":40,"Duration":147058,"SoundDuration":147058,"Delta":31819836},{"NoteNumber":67,"Velocity":47,"Duration":147058,"SoundDuration":147058,"Delta":31819836},{"NoteNumber":74,"Velocity":50,"Duration":147058,"SoundDuration":147058,"Delta":31966895},{"NoteNumber":77,"Velocity":59,"Duration":147058,"SoundDuration":147058,"Delta":31966895},{"NoteNumber":65,"Velocity":39,"Duration":147058,"SoundDuration":147058,"Delta":31966895},{"NoteNumber":69,"Velocity":46,"Duration":147058,"SoundDuration":147058,"Delta":31966895},{"NoteNumber":72,"Velocity":54,"Duration":299999,"SoundDuration":299999,"Delta":32113954},{"NoteNumber":76,"Velocity":64,"Duration":299999,"SoundDuration":299999,"Delta":32113954},{"NoteNumber":64,"Velocity":43,"Duration":299999,"SoundDuration":299999,"Delta":32113954},{"NoteNumber":67,"Velocity":51,"Duration":299999,"SoundDuration":299999,"Delta":32113954},{"NoteNumber":70,"Velocity":46,"Duration":147058,"SoundDuration":147058,"Delta":32413954},{"NoteNumber":74,"Velocity":55,"Duration":147058,"SoundDuration":147058,"Delta":32413954},{"NoteNumber":62,"Velocity":39,"Duration":147058,"SoundDuration":147058,"Delta":32413954},{"NoteNumber":65,"Velocity":46,"Duration":147058,"SoundDuration":147058,"Delta":32413954},{"NoteNumber":72,"Velocity":46,"Duration":147058,"SoundDuration":147058,"Delta":32561013},{"NoteNumber":76,"Velocity":56,"Duration":147058,"SoundDuration":147058,"Delta":32561013},{"NoteNumber":64,"Velocity":39,"Duration":147058,"SoundDuration":147058,"Delta":32561013},{"NoteNumber":67,"Velocity":46,"Duration":147058,"SoundDuration":147058,"Delta":32561013},{"NoteNumber":74,"Velocity":62,"Duration":287990,"SoundDuration":287990,"Delta":32708071},{"NoteNumber":70,"Velocity":52,"Duration":287990,"SoundDuration":287990,"Delta":32708071},{"NoteNumber":62,"Velocity":42,"Duration":287990,"SoundDuration":287990,"Delta":32708071},{"NoteNumber":65,"Velocity":51,"Duration":287990,"SoundDuration":287990,"Delta":32708071},{"NoteNumber":72,"Velocity":56,"Duration":272727,"SoundDuration":272727,"Delta":33002189},{"NoteNumber":67,"Velocity":47,"Duration":272727,"SoundDuration":272727,"Delta":33002189},{"NoteNumber":60,"Velocity":40,"Duration":272727,"SoundDuration":272727,"Delta":33002189},{"NoteNumber":64,"Velocity":47,"Duration":272727,"SoundDuration":272727,"Delta":33002189},{"NoteNumber":72,"Velocity":57,"Duration":277777,"SoundDuration":277777,"Delta":33305219},{"NoteNumber":67,"Velocity":47,"Duration":277777,"SoundDuration":277777,"Delta":33305219},{"NoteNumber":60,"Velocity":40,"Duration":277777,"SoundDuration":277777,"Delta":33305219},{"NoteNumber":64,"Velocity":47,"Duration":277777,"SoundDuration":277777,"Delta":33305219},{"NoteNumber":74,"Velocity":61,"Duration":312500,"SoundDuration":312500,"Delta":33608250},{"NoteNumber":70,"Velocity":51,"Duration":312500,"SoundDuration":312500,"Delta":33608250},{"NoteNumber":58,"Velocity":40,"Duration":312500,"SoundDuration":312500,"Delta":33608250},{"NoteNumber":65,"Velocity":48,"Duration":312500,"SoundDuration":312500,"Delta":33608250},{"NoteNumber":72,"Velocity":52,"Duration":299479,"SoundDuration":299479,"Delta":33920750},{"NoteNumber":69,"Velocity":52,"Duration":299479,"SoundDuration":299479,"Delta":33920750},{"NoteNumber":76,"Velocity":61,"Duration":299479,"SoundDuration":299479,"Delta":33920750},{"NoteNumber":64,"Velocity":48,"Duration":299479,"SoundDuration":299479,"Delta":33920750},{"NoteNumber":60,"Velocity":41,"Duration":299479,"SoundDuration":299479,"Delta":33920750},{"NoteNumber":57,"Velocity":41,"Duration":299479,"SoundDuration":299479,"Delta":33920750},{"NoteNumber":79,"Velocity":63,"Duration":295082,"SoundDuration":295082,"Delta":34233250},{"NoteNumber":70,"Velocity":53,"Duration":295082,"SoundDuration":295082,"Delta":34233250},{"NoteNumber":74,"Velocity":53,"Duration":295082,"SoundDuration":295082,"Delta":34233250},{"NoteNumber":55,"Velocity":41,"Duration":295082,"SoundDuration":295082,"Delta":34233250},{"NoteNumber":58,"Velocity":41,"Duration":295082,"SoundDuration":295082,"Delta":34233250},{"NoteNumber":62,"Velocity":48,"Duration":295082,"SoundDuration":295082,"Delta":34233250},{"NoteNumber":79,"Velocity":66,"Duration":337078,"SoundDuration":337078,"Delta":34561119},{"NoteNumber":74,"Velocity":55,"Duration":337078,"SoundDuration":337078,"Delta":34561119},{"NoteNumber":70,"Velocity":55,"Duration":337078,"SoundDuration":337078,"Delta":34561119},{"NoteNumber":55,"Velocity":45,"Duration":337078,"SoundDuration":337078,"Delta":34561119},{"NoteNumber":58,"Velocity":45,"Duration":337078,"SoundDuration":337078,"Delta":34561119},{"NoteNumber":62,"Velocity":55,"Duration":337078,"SoundDuration":337078,"Delta":34561119},{"NoteNumber":69,"Velocity":53,"Duration":392156,"SoundDuration":392156,"Delta":34898197},{"NoteNumber":73,"Velocity":53,"Duration":392156,"SoundDuration":392156,"Delta":34898197},{"NoteNumber":81,"Velocity":63,"Duration":392156,"SoundDuration":392156,"Delta":34898197},{"NoteNumber":53,"Velocity":44,"Duration":392156,"SoundDuration":392156,"Delta":34898197},{"NoteNumber":57,"Velocity":44,"Duration":392156,"SoundDuration":392156,"Delta":34898197},{"NoteNumber":61,"Velocity":53,"Duration":392156,"SoundDuration":392156,"Delta":34898197},{"NoteNumber":31,"Velocity":53,"Duration":337837,"SoundDuration":337837,"Delta":35290354},{"NoteNumber":43,"Velocity":58,"Duration":337837,"SoundDuration":337837,"Delta":35290354},{"NoteNumber":74,"Velocity":45,"Duration":971605,"SoundDuration":971605,"Delta":35695760},{"NoteNumber":84,"Velocity":62,"Duration":331491,"SoundDuration":331491,"Delta":35695760},{"NoteNumber":77,"Velocity":45,"Duration":971605,"SoundDuration":971605,"Delta":35695760},{"NoteNumber":53,"Velocity":37,"Duration":331491,"SoundDuration":331491,"Delta":35695760},{"NoteNumber":82,"Velocity":57,"Duration":157894,"SoundDuration":157894,"Delta":36027251},{"NoteNumber":55,"Velocity":37,"Duration":315789,"SoundDuration":315789,"Delta":36027251},{"NoteNumber":81,"Velocity":54,"Duration":157894,"SoundDuration":157894,"Delta":36185146},{"NoteNumber":79,"Velocity":57,"Duration":484752,"SoundDuration":484752,"Delta":36343041},{"NoteNumber":58,"Velocity":37,"Duration":324324,"SoundDuration":324324,"Delta":36343041},{"NoteNumber":62,"Velocity":39,"Duration":318322,"SoundDuration":318322,"Delta":36667365},{"NoteNumber":77,"Velocity":54,"Duration":157894,"SoundDuration":157894,"Delta":36827793},{"NoteNumber":79,"Velocity":52,"Duration":154639,"SoundDuration":154639,"Delta":36985688},{"NoteNumber":65,"Velocity":36,"Duration":309278,"SoundDuration":309278,"Delta":36985688},{"NoteNumber":81,"Velocity":52,"Duration":154639,"SoundDuration":154639,"Delta":37140327},{"NoteNumber":76,"Velocity":57,"Duration":322580,"SoundDuration":322580,"Delta":37294966},{"NoteNumber":70,"Velocity":45,"Duration":652250,"SoundDuration":652250,"Delta":37294966},{"NoteNumber":67,"Velocity":36,"Duration":322580,"SoundDuration":322580,"Delta":37294966},{"NoteNumber":74,"Velocity":54,"Duration":329670,"SoundDuration":329670,"Delta":37617547},{"NoteNumber":65,"Velocity":36,"Duration":326923,"SoundDuration":326923,"Delta":37617547},{"NoteNumber":65,"Velocity":56,"Duration":984733,"SoundDuration":984733,"Delta":37947217},{"NoteNumber":72,"Velocity":53,"Duration":326087,"SoundDuration":326087,"Delta":38290074},{"NoteNumber":64,"Velocity":48,"Duration":326087,"SoundDuration":326087,"Delta":38290074},{"NoteNumber":70,"Velocity":52,"Duration":157894,"SoundDuration":157894,"Delta":38616161},{"NoteNumber":62,"Velocity":46,"Duration":157894,"SoundDuration":157894,"Delta":38616161},{"NoteNumber":69,"Velocity":52,"Duration":157894,"SoundDuration":157894,"Delta":38774056},{"NoteNumber":60,"Velocity":46,"Duration":157894,"SoundDuration":157894,"Delta":38774056},{"NoteNumber":67,"Velocity":54,"Duration":157894,"SoundDuration":157894,"Delta":38931951},{"NoteNumber":62,"Velocity":54,"Duration":640090,"SoundDuration":640090,"Delta":38931951},{"NoteNumber":58,"Velocity":48,"Duration":315789,"SoundDuration":315789,"Delta":38931951},{"NoteNumber":65,"Velocity":52,"Duration":157894,"SoundDuration":157894,"Delta":39089846},{"NoteNumber":67,"Velocity":53,"Duration":153846,"SoundDuration":153846,"Delta":39247740},{"NoteNumber":57,"Velocity":49,"Duration":295891,"SoundDuration":295891,"Delta":39247740},{"NoteNumber":69,"Velocity":53,"Duration":142045,"SoundDuration":142045,"Delta":39401587},{"NoteNumber":58,"Velocity":56,"Duration":973029,"SoundDuration":973029,"Delta":39572041},{"NoteNumber":64,"Velocity":66,"Duration":294117,"SoundDuration":294117,"Delta":39572041},{"NoteNumber":55,"Velocity":58,"Duration":294117,"SoundDuration":294117,"Delta":39572041},{"NoteNumber":62,"Velocity":63,"Duration":298913,"SoundDuration":298913,"Delta":39892897},{"NoteNumber":53,"Velocity":56,"Duration":298913,"SoundDuration":298913,"Delta":39892897},{"NoteNumber":65,"Velocity":68,"Duration":271739,"SoundDuration":271739,"Delta":40218984},{"NoteNumber":50,"Velocity":58,"Duration":271739,"SoundDuration":271739,"Delta":40218984},{"NoteNumber":60,"Velocity":61,"Duration":173410,"SoundDuration":173410,"Delta":40871158},{"NoteNumber":52,"Velocity":51,"Duration":173410,"SoundDuration":173410,"Delta":40871158},{"NoteNumber":57,"Velocity":51,"Duration":173410,"SoundDuration":173410,"Delta":40871158},{"NoteNumber":33,"Velocity":48,"Duration":173410,"SoundDuration":173410,"Delta":40871158},{"NoteNumber":45,"Velocity":57,"Duration":173410,"SoundDuration":173410,"Delta":40871158},{"NoteNumber":57,"Velocity":59,"Duration":173410,"SoundDuration":173410,"Delta":41217979},{"NoteNumber":50,"Velocity":50,"Duration":173410,"SoundDuration":173410,"Delta":41217979},{"NoteNumber":53,"Velocity":50,"Duration":173410,"SoundDuration":173410,"Delta":41217979},{"NoteNumber":34,"Velocity":47,"Duration":173410,"SoundDuration":173410,"Delta":41217979},{"NoteNumber":46,"Velocity":56,"Duration":173410,"SoundDuration":173410,"Delta":41217979},{"NoteNumber":55,"Velocity":51,"Duration":173410,"SoundDuration":173410,"Delta":41564800},{"NoteNumber":60,"Velocity":61,"Duration":173410,"SoundDuration":173410,"Delta":41564800},{"NoteNumber":52,"Velocity":51,"Duration":173410,"SoundDuration":173410,"Delta":41564800},{"NoteNumber":36,"Velocity":48,"Duration":173410,"SoundDuration":173410,"Delta":41564800},{"NoteNumber":48,"Velocity":57,"Duration":173410,"SoundDuration":173410,"Delta":41564800},{"NoteNumber":57,"Velocity":53,"Duration":319148,"SoundDuration":319148,"Delta":42230770},{"NoteNumber":60,"Velocity":63,"Duration":106382,"SoundDuration":106382,"Delta":42230770},{"NoteNumber":52,"Velocity":63,"Duration":319148,"SoundDuration":319148,"Delta":42230770},{"NoteNumber":45,"Velocity":53,"Duration":319148,"SoundDuration":319148,"Delta":42230770},{"NoteNumber":62,"Velocity":63,"Duration":106383,"SoundDuration":106383,"Delta":42337153},{"NoteNumber":60,"Velocity":63,"Duration":106383,"SoundDuration":106383,"Delta":42443536},{"NoteNumber":53,"Velocity":55,"Duration":314135,"SoundDuration":314135,"Delta":42549919},{"NoteNumber":57,"Velocity":66,"Duration":314135,"SoundDuration":314135,"Delta":42549919},{"NoteNumber":50,"Velocity":63,"Duration":314135,"SoundDuration":314135,"Delta":42549919},{"NoteNumber":55,"Velocity":55,"Duration":314136,"SoundDuration":314136,"Delta":42864055},{"NoteNumber":60,"Velocity":66,"Duration":314136,"SoundDuration":314136,"Delta":42864055},{"NoteNumber":48,"Velocity":53,"Duration":314136,"SoundDuration":314136,"Delta":42864055},{"NoteNumber":52,"Velocity":63,"Duration":314136,"SoundDuration":314136,"Delta":42864055},{"NoteNumber":62,"Velocity":59,"Duration":338982,"SoundDuration":338982,"Delta":43178191},{"NoteNumber":58,"Velocity":50,"Duration":338982,"SoundDuration":338982,"Delta":43178191},{"NoteNumber":46,"Velocity":47,"Duration":338982,"SoundDuration":338982,"Delta":43178191},{"NoteNumber":53,"Velocity":56,"Duration":338982,"SoundDuration":338982,"Delta":43178191},{"NoteNumber":65,"Velocity":57,"Duration":350876,"SoundDuration":350876,"Delta":43517174},{"NoteNumber":60,"Velocity":48,"Duration":350876,"SoundDuration":350876,"Delta":43517174},{"NoteNumber":45,"Velocity":45,"Duration":350876,"SoundDuration":350876,"Delta":43517174},{"NoteNumber":57,"Velocity":53,"Duration":350876,"SoundDuration":350876,"Delta":43517174},{"NoteNumber":67,"Velocity":54,"Duration":1052631,"SoundDuration":1052631,"Delta":43868051},{"NoteNumber":62,"Velocity":45,"Duration":1416267,"SoundDuration":1416267,"Delta":43868051},{"NoteNumber":43,"Velocity":43,"Duration":1416267,"SoundDuration":1416267,"Delta":43868051},{"NoteNumber":50,"Velocity":43,"Duration":1416267,"SoundDuration":1416267,"Delta":43868051},{"NoteNumber":58,"Velocity":51,"Duration":1416267,"SoundDuration":1416267,"Delta":43868051},{"NoteNumber":67,"Velocity":49,"Duration":121212,"SoundDuration":121212,"Delta":44920682},{"NoteNumber":69,"Velocity":49,"Duration":121212,"SoundDuration":121212,"Delta":45041894},{"NoteNumber":67,"Velocity":49,"Duration":121212,"SoundDuration":121212,"Delta":45163106},{"NoteNumber":62,"Velocity":45,"Duration":803763,"SoundDuration":803763,"Delta":45284318},{"NoteNumber":65,"Velocity":54,"Duration":387096,"SoundDuration":387096,"Delta":45284318},{"NoteNumber":48,"Velocity":40,"Duration":803763,"SoundDuration":803763,"Delta":45284318},{"NoteNumber":58,"Velocity":46,"Duration":803763,"SoundDuration":803763,"Delta":45284318},{"NoteNumber":64,"Velocity":51,"Duration":416666,"SoundDuration":416666,"Delta":45671415},{"NoteNumber":58,"Velocity":43,"Duration":816327,"SoundDuration":816327,"Delta":46088082},{"NoteNumber":65,"Velocity":51,"Duration":2515152,"SoundDuration":2515152,"Delta":46088082},{"NoteNumber":62,"Velocity":43,"Duration":816327,"SoundDuration":816327,"Delta":46088082},{"NoteNumber":41,"Velocity":51,"Duration":408163,"SoundDuration":408163,"Delta":46088082},{"NoteNumber":29,"Velocity":40,"Duration":3528133,"SoundDuration":3528133,"Delta":46088082},{"NoteNumber":48,"Velocity":46,"Duration":808163,"SoundDuration":808163,"Delta":46496245},{"NoteNumber":60,"Velocity":39,"Duration":399999,"SoundDuration":399999,"Delta":46904409},{"NoteNumber":57,"Velocity":33,"Duration":399999,"SoundDuration":399999,"Delta":46904409},{"NoteNumber":58,"Velocity":36,"Duration":447760,"SoundDuration":447760,"Delta":47304409},{"NoteNumber":55,"Velocity":30,"Duration":447760,"SoundDuration":447760,"Delta":47304409},{"NoteNumber":53,"Velocity":42,"Duration":873292,"SoundDuration":873292,"Delta":47304409},{"NoteNumber":60,"Velocity":33,"Duration":421985,"SoundDuration":421985,"Delta":47752170},{"NoteNumber":57,"Velocity":27,"Duration":1864045,"SoundDuration":1864045,"Delta":47752170},{"NoteNumber":60,"Velocity":33,"Duration":897973,"SoundDuration":897973,"Delta":48177702},{"NoteNumber":65,"Velocity":30,"Duration":360360,"SoundDuration":360360,"Delta":49075675},{"NoteNumber":57,"Velocity":28,"Duration":2589529,"SoundDuration":2589529,"Delta":49481080},{"NoteNumber":64,"Velocity":28,"Duration":2521962,"SoundDuration":2521962,"Delta":49548648},{"NoteNumber":88,"Velocity":48,"Duration":447760,"SoundDuration":447760,"Delta":49616215},{"NoteNumber":76,"Velocity":33,"Duration":2454394,"SoundDuration":2454394,"Delta":49616215},{"NoteNumber":72,"Velocity":33,"Duration":2454394,"SoundDuration":2454394,"Delta":49616215},{"NoteNumber":83,"Velocity":43,"Duration":895521,"SoundDuration":895521,"Delta":50063976},{"NoteNumber":81,"Velocity":45,"Duration":740740,"SoundDuration":740740,"Delta":50959498},{"NoteNumber":76,"Velocity":42,"Duration":370370,"SoundDuration":370370,"Delta":51700239},{"NoteNumber":65,"Velocity":32,"Duration":363636,"SoundDuration":363636,"Delta":52070610},{"NoteNumber":71,"Velocity":39,"Duration":90909,"SoundDuration":90909,"Delta":52070610},{"NoteNumber":57,"Velocity":33,"Duration":363636,"SoundDuration":363636,"Delta":52070610},{"NoteNumber":50,"Velocity":31,"Duration":363636,"SoundDuration":363636,"Delta":52070610},{"NoteNumber":69,"Velocity":39,"Duration":90909,"SoundDuration":90909,"Delta":52161519},{"NoteNumber":71,"Velocity":39,"Duration":90909,"SoundDuration":90909,"Delta":52252428},{"NoteNumber":74,"Velocity":39,"Duration":90909,"SoundDuration":90909,"Delta":52343337},{"NoteNumber":83,"Velocity":37,"Duration":363636,"SoundDuration":363636,"Delta":52434246},{"NoteNumber":81,"Velocity":37,"Duration":363636,"SoundDuration":363636,"Delta":52434246},{"NoteNumber":77,"Velocity":37,"Duration":363636,"SoundDuration":363636,"Delta":52434246},{"NoteNumber":88,"Velocity":48,"Duration":447760,"SoundDuration":447760,"Delta":52797883},{"NoteNumber":76,"Velocity":33,"Duration":2369683,"SoundDuration":2369683,"Delta":52797883},{"NoteNumber":57,"Velocity":27,"Duration":2369683,"SoundDuration":2369683,"Delta":52797883},{"NoteNumber":64,"Velocity":27,"Duration":2369683,"SoundDuration":2369683,"Delta":52797883},{"NoteNumber":72,"Velocity":33,"Duration":2369683,"SoundDuration":2369683,"Delta":52797883},{"NoteNumber":83,"Velocity":43,"Duration":810811,"SoundDuration":810811,"Delta":53245644},{"NoteNumber":81,"Velocity":45,"Duration":740740,"SoundDuration":740740,"Delta":54056455},{"NoteNumber":76,"Velocity":42,"Duration":370370,"SoundDuration":370370,"Delta":54797196},{"NoteNumber":65,"Velocity":39,"Duration":727272,"SoundDuration":727272,"Delta":55167566},{"NoteNumber":71,"Velocity":39,"Duration":363636,"SoundDuration":363636,"Delta":55167566},{"NoteNumber":60,"Velocity":33,"Duration":727272,"SoundDuration":727272,"Delta":55167566},{"NoteNumber":50,"Velocity":27,"Duration":727272,"SoundDuration":727272,"Delta":55167566},{"NoteNumber":69,"Velocity":39,"Duration":454180,"SoundDuration":454180,"Delta":55531203},{"NoteNumber":43,"Velocity":29,"Duration":368925,"SoundDuration":368925,"Delta":55894839},{"NoteNumber":50,"Velocity":29,"Duration":368925,"SoundDuration":368925,"Delta":55894839},{"NoteNumber":59,"Velocity":35,"Duration":368925,"SoundDuration":368925,"Delta":55894839},{"NoteNumber":71,"Velocity":35,"Duration":91650,"SoundDuration":91650,"Delta":55985383},{"NoteNumber":69,"Velocity":37,"Duration":92784,"SoundDuration":92784,"Delta":56077034},{"NoteNumber":67,"Velocity":39,"Duration":93946,"SoundDuration":93946,"Delta":56169818},{"NoteNumber":60,"Velocity":30,"Duration":789695,"SoundDuration":789695,"Delta":56263764},{"NoteNumber":64,"Velocity":36,"Duration":789695,"SoundDuration":789695,"Delta":56263764},{"NoteNumber":48,"Velocity":35,"Duration":789695,"SoundDuration":789695,"Delta":56263764},{"NoteNumber":55,"Velocity":41,"Duration":789695,"SoundDuration":789695,"Delta":56263764},{"NoteNumber":57,"Velocity":32,"Duration":1926031,"SoundDuration":1926031,"Delta":57053459},{"NoteNumber":62,"Velocity":38,"Duration":807299,"SoundDuration":807299,"Delta":57053459},{"NoteNumber":41,"Velocity":31,"Duration":807299,"SoundDuration":807299,"Delta":57053459},{"NoteNumber":48,"Velocity":37,"Duration":1926031,"SoundDuration":1926031,"Delta":57053459},{"NoteNumber":64,"Velocity":41,"Duration":372670,"SoundDuration":372670,"Delta":57860758},{"NoteNumber":40,"Velocity":35,"Duration":372670,"SoundDuration":372670,"Delta":57860758},{"NoteNumber":65,"Velocity":45,"Duration":361446,"SoundDuration":361446,"Delta":58233429},{"NoteNumber":38,"Velocity":35,"Duration":746061,"SoundDuration":746061,"Delta":58233429},{"NoteNumber":69,"Velocity":41,"Duration":352564,"SoundDuration":352564,"Delta":58594875},{"NoteNumber":64,"Velocity":38,"Duration":390828,"SoundDuration":390828,"Delta":58979491},{"NoteNumber":59,"Velocity":32,"Duration":1542130,"SoundDuration":1542130,"Delta":58979491},{"NoteNumber":43,"Velocity":31,"Duration":2837118,"SoundDuration":2837118,"Delta":58979491},{"NoteNumber":53,"Velocity":37,"Duration":2837118,"SoundDuration":2837118,"Delta":58979491},{"NoteNumber":62,"Velocity":36,"Duration":180723,"SoundDuration":180723,"Delta":59370319},{"NoteNumber":64,"Velocity":34,"Duration":175438,"SoundDuration":175438,"Delta":59551042},{"NoteNumber":62,"Velocity":37,"Duration":336927,"SoundDuration":336927,"Delta":59726481},{"NoteNumber":64,"Velocity":38,"Duration":781657,"SoundDuration":781657,"Delta":60130793},{"NoteNumber":57,"Velocity":28,"Duration":1294987,"SoundDuration":1294987,"Delta":60521622},{"NoteNumber":62,"Velocity":32,"Duration":206896,"SoundDuration":206896,"Delta":60912450},{"NoteNumber":64,"Velocity":30,"Duration":212766,"SoundDuration":212766,"Delta":61119347},{"NoteNumber":62,"Velocity":31,"Duration":403746,"SoundDuration":403746,"Delta":61332113},{"NoteNumber":59,"Velocity":24,"Duration":555200,"SoundDuration":555200,"Delta":61816609},{"NoteNumber":64,"Velocity":24,"Duration":555200,"SoundDuration":555200,"Delta":61816609},{"NoteNumber":55,"Velocity":19,"Duration":555200,"SoundDuration":555200,"Delta":61816609},{"NoteNumber":40,"Velocity":20,"Duration":555200,"SoundDuration":555200,"Delta":61816609},{"NoteNumber":47,"Velocity":20,"Duration":555200,"SoundDuration":555200,"Delta":61816609},{"NoteNumber":52,"Velocity":25,"Duration":555200,"SoundDuration":555200,"Delta":61816609},{"NoteNumber":88,"Velocity":45,"Duration":447760,"SoundDuration":447760,"Delta":62371809},{"NoteNumber":76,"Velocity":30,"Duration":2454394,"SoundDuration":2454394,"Delta":62371809},{"NoteNumber":57,"Velocity":30,"Duration":2454394,"SoundDuration":2454394,"Delta":62371809},{"NoteNumber":64,"Velocity":30,"Duration":2454394,"SoundDuration":2454394,"Delta":62371809},{"NoteNumber":72,"Velocity":30,"Duration":2454394,"SoundDuration":2454394,"Delta":62371809},{"NoteNumber":83,"Velocity":43,"Duration":895521,"SoundDuration":895521,"Delta":62819570},{"NoteNumber":81,"Velocity":45,"Duration":740741,"SoundDuration":740741,"Delta":63715092},{"NoteNumber":76,"Velocity":42,"Duration":370370,"SoundDuration":370370,"Delta":64455833},{"NoteNumber":65,"Velocity":32,"Duration":363636,"SoundDuration":363636,"Delta":64826204},{"NoteNumber":71,"Velocity":39,"Duration":90909,"SoundDuration":90909,"Delta":64826204},{"NoteNumber":57,"Velocity":33,"Duration":363636,"SoundDuration":363636,"Delta":64826204},{"NoteNumber":50,"Velocity":27,"Duration":363636,"SoundDuration":363636,"Delta":64826204},{"NoteNumber":69,"Velocity":39,"Duration":90909,"SoundDuration":90909,"Delta":64917113},{"NoteNumber":71,"Velocity":39,"Duration":90909,"SoundDuration":90909,"Delta":65008022},{"NoteNumber":74,"Velocity":39,"Duration":90909,"SoundDuration":90909,"Delta":65098931},{"NoteNumber":83,"Velocity":37,"Duration":408163,"SoundDuration":408163,"Delta":65189840},{"NoteNumber":81,"Velocity":37,"Duration":408163,"SoundDuration":408163,"Delta":65189840},{"NoteNumber":77,"Velocity":37,"Duration":408163,"SoundDuration":408163,"Delta":65189840},{"NoteNumber":88,"Velocity":48,"Duration":447760,"SoundDuration":447760,"Delta":65598004},{"NoteNumber":76,"Velocity":33,"Duration":1663977,"SoundDuration":1663977,"Delta":65598004},{"NoteNumber":57,"Velocity":27,"Duration":1663977,"SoundDuration":1663977,"Delta":65598004},{"NoteNumber":64,"Velocity":27,"Duration":1663977,"SoundDuration":1663977,"Delta":65598004},{"NoteNumber":72,"Velocity":33,"Duration":1663977,"SoundDuration":1663977,"Delta":65598004},{"NoteNumber":83,"Velocity":43,"Duration":810811,"SoundDuration":810811,"Delta":66045765},{"NoteNumber":81,"Velocity":43,"Duration":405405,"SoundDuration":405405,"Delta":66856576},{"NoteNumber":93,"Velocity":53,"Duration":447760,"SoundDuration":447760,"Delta":67261981},{"NoteNumber":81,"Velocity":36,"Duration":1663977,"SoundDuration":1663977,"Delta":67261981},{"NoteNumber":62,"Velocity":33,"Duration":1663977,"SoundDuration":1663977,"Delta":67261981},{"NoteNumber":69,"Velocity":33,"Duration":1663977,"SoundDuration":1663977,"Delta":67261981},{"NoteNumber":77,"Velocity":39,"Duration":1663977,"SoundDuration":1663977,"Delta":67261981},{"NoteNumber":88,"Velocity":46,"Duration":810811,"SoundDuration":810811,"Delta":67709742},{"NoteNumber":86,"Velocity":46,"Duration":405405,"SoundDuration":405405,"Delta":68520553},{"NoteNumber":74,"Velocity":35,"Duration":134681,"SoundDuration":134681,"Delta":68925959},{"NoteNumber":71,"Velocity":29,"Duration":411291,"SoundDuration":411291,"Delta":68925959},{"NoteNumber":55,"Velocity":27,"Duration":1545907,"SoundDuration":1545907,"Delta":68925959},{"NoteNumber":65,"Velocity":32,"Duration":1545907,"SoundDuration":1545907,"Delta":68925959},{"NoteNumber":76,"Velocity":36,"Duration":136290,"SoundDuration":136290,"Delta":69026857},{"NoteNumber":79,"Velocity":38,"Duration":138173,"SoundDuration":138173,"Delta":69128901},{"NoteNumber":81,"Velocity":39,"Duration":136148,"SoundDuration":136148,"Delta":69232352},{"NoteNumber":86,"Velocity":46,"Duration":750000,"SoundDuration":750000,"Delta":69337251},{"NoteNumber":88,"Velocity":43,"Duration":384615,"SoundDuration":384615,"Delta":70087251},{"NoteNumber":67,"Velocity":21,"Duration":417010,"SoundDuration":417010,"Delta":70471866},{"NoteNumber":69,"Velocity":36,"Duration":136520,"SoundDuration":136520,"Delta":70471866},{"NoteNumber":48,"Velocity":21,"Duration":1567276,"SoundDuration":1567276,"Delta":70471866},{"NoteNumber":64,"Velocity":26,"Duration":1567276,"SoundDuration":1567276,"Delta":70471866},{"NoteNumber":55,"Velocity":21,"Duration":1567276,"SoundDuration":1567276,"Delta":70471866},{"NoteNumber":72,"Velocity":36,"Duration":138173,"SoundDuration":138173,"Delta":70574140},{"NoteNumber":74,"Velocity":37,"Duration":140109,"SoundDuration":140109,"Delta":70677591},{"NoteNumber":76,"Velocity":38,"Duration":138032,"SoundDuration":138032,"Delta":70782490},{"NoteNumber":81,"Velocity":45,"Duration":569620,"SoundDuration":569620,"Delta":70888876},{"NoteNumber":79,"Velocity":39,"Duration":193548,"SoundDuration":193548,"Delta":71458497},{"NoteNumber":81,"Velocity":44,"Duration":193548,"SoundDuration":193548,"Delta":71652045},{"NoteNumber":84,"Velocity":42,"Duration":193548,"SoundDuration":193548,"Delta":71845594},{"NoteNumber":71,"Velocity":29,"Duration":417010,"SoundDuration":417010,"Delta":72039142},{"NoteNumber":74,"Velocity":35,"Duration":136520,"SoundDuration":136520,"Delta":72039142},{"NoteNumber":65,"Velocity":32,"Duration":1559167,"SoundDuration":1559167,"Delta":72039142},{"NoteNumber":55,"Velocity":27,"Duration":1559167,"SoundDuration":1559167,"Delta":72039142},{"NoteNumber":76,"Velocity":36,"Duration":138173,"SoundDuration":138173,"Delta":72141416},{"NoteNumber":77,"Velocity":38,"Duration":140109,"SoundDuration":140109,"Delta":72244868},{"NoteNumber":81,"Velocity":39,"Duration":137636,"SoundDuration":137636,"Delta":72349766},{"NoteNumber":86,"Velocity":46,"Duration":750000,"SoundDuration":750000,"Delta":72456153},{"NoteNumber":88,"Velocity":43,"Duration":392156,"SoundDuration":392156,"Delta":73206153},{"NoteNumber":69,"Velocity":36,"Duration":136520,"SoundDuration":136520,"Delta":73598310},{"NoteNumber":67,"Velocity":21,"Duration":417010,"SoundDuration":417010,"Delta":73598310},{"NoteNumber":64,"Velocity":28,"Duration":1574866,"SoundDuration":1574866,"Delta":73598310},{"NoteNumber":55,"Velocity":24,"Duration":1574866,"SoundDuration":1574866,"Delta":73598310},{"NoteNumber":48,"Velocity":24,"Duration":1574866,"SoundDuration":1574866,"Delta":73598310},{"NoteNumber":72,"Velocity":36,"Duration":138173,"SoundDuration":138173,"Delta":73700584},{"NoteNumber":74,"Velocity":37,"Duration":140109,"SoundDuration":140109,"Delta":73804035},{"NoteNumber":76,"Velocity":38,"Duration":138032,"SoundDuration":138032,"Delta":73908934},{"NoteNumber":81,"Velocity":45,"Duration":569620,"SoundDuration":569620,"Delta":74015320},{"NoteNumber":83,"Velocity":44,"Duration":196078,"SoundDuration":196078,"Delta":74584941},{"NoteNumber":81,"Velocity":44,"Duration":196078,"SoundDuration":196078,"Delta":74781019},{"NoteNumber":79,"Velocity":43,"Duration":196078,"SoundDuration":196078,"Delta":74977098},{"NoteNumber":61,"Velocity":28,"Duration":126985,"SoundDuration":126985,"Delta":75173176},{"NoteNumber":59,"Velocity":24,"Duration":387387,"SoundDuration":387387,"Delta":75173176},{"NoteNumber":42,"Velocity":23,"Duration":1524886,"SoundDuration":1524886,"Delta":75173176},{"NoteNumber":47,"Velocity":23,"Duration":1524886,"SoundDuration":1524886,"Delta":75173176},{"NoteNumber":57,"Velocity":27,"Duration":1524886,"SoundDuration":1524886,"Delta":75173176},{"NoteNumber":63,"Velocity":30,"Duration":128414,"SoundDuration":128414,"Delta":75268315},{"NoteNumber":66,"Velocity":32,"Duration":130085,"SoundDuration":130085,"Delta":75364471},{"NoteNumber":69,"Velocity":33,"Duration":129743,"SoundDuration":129743,"Delta":75461876},{"NoteNumber":73,"Velocity":38,"Duration":745341,"SoundDuration":745341,"Delta":75560564},{"NoteNumber":75,"Velocity":34,"Duration":392156,"SoundDuration":392156,"Delta":76305906},{"NoteNumber":59,"Velocity":18,"Duration":384901,"SoundDuration":384901,"Delta":76698063},{"NoteNumber":61,"Velocity":30,"Duration":126184,"SoundDuration":126184,"Delta":76698063},{"NoteNumber":40,"Velocity":23,"Duration":1524324,"SoundDuration":1524324,"Delta":76698063},{"NoteNumber":47,"Velocity":23,"Duration":1524324,"SoundDuration":1524324,"Delta":76698063},{"NoteNumber":56,"Velocity":27,"Duration":1524324,"SoundDuration":1524324,"Delta":76698063},{"NoteNumber":63,"Velocity":30,"Duration":127595,"SoundDuration":127595,"Delta":76792601},{"NoteNumber":64,"Velocity":31,"Duration":129244,"SoundDuration":129244,"Delta":76888145},{"NoteNumber":66,"Velocity":32,"Duration":130093,"SoundDuration":130093,"Delta":76984922},{"NoteNumber":68,"Velocity":38,"Duration":576923,"SoundDuration":576923,"Delta":77082964},{"NoteNumber":71,"Velocity":33,"Duration":187500,"SoundDuration":187500,"Delta":77659887},{"NoteNumber":68,"Velocity":36,"Duration":187500,"SoundDuration":187500,"Delta":77847387},{"NoteNumber":71,"Velocity":34,"Duration":187500,"SoundDuration":187500,"Delta":78034887},{"NoteNumber":61,"Velocity":28,"Duration":126985,"SoundDuration":126985,"Delta":78222387},{"NoteNumber":59,"Velocity":24,"Duration":387387,"SoundDuration":387387,"Delta":78222387},{"NoteNumber":42,"Velocity":28,"Duration":1537558,"SoundDuration":1537558,"Delta":78222387},{"NoteNumber":47,"Velocity":28,"Duration":1537558,"SoundDuration":1537558,"Delta":78222387},{"NoteNumber":57,"Velocity":34,"Duration":1537558,"SoundDuration":1537558,"Delta":78222387},{"NoteNumber":63,"Velocity":30,"Duration":128414,"SoundDuration":128414,"Delta":78317526},{"NoteNumber":66,"Velocity":32,"Duration":130085,"SoundDuration":130085,"Delta":78413682},{"NoteNumber":69,"Velocity":33,"Duration":130738,"SoundDuration":130738,"Delta":78511088},{"NoteNumber":73,"Velocity":38,"Duration":576923,"SoundDuration":576923,"Delta":78609775},{"NoteNumber":75,"Velocity":35,"Duration":191082,"SoundDuration":191082,"Delta":79186698},{"NoteNumber":73,"Velocity":38,"Duration":191082,"SoundDuration":191082,"Delta":79377781},{"NoteNumber":75,"Velocity":36,"Duration":191082,"SoundDuration":191082,"Delta":79568863},{"NoteNumber":71,"Velocity":27,"Duration":384901,"SoundDuration":384901,"Delta":79759946},{"NoteNumber":73,"Velocity":37,"Duration":126184,"SoundDuration":126184,"Delta":79759946},{"NoteNumber":68,"Velocity":42,"Duration":1629383,"SoundDuration":1629383,"Delta":79759946},{"NoteNumber":59,"Velocity":35,"Duration":1629383,"SoundDuration":1629383,"Delta":79759946},{"NoteNumber":52,"Velocity":35,"Duration":1629383,"SoundDuration":1629383,"Delta":79759946},{"NoteNumber":75,"Velocity":37,"Duration":127595,"SoundDuration":127595,"Delta":79854485},{"NoteNumber":76,"Velocity":38,"Duration":129244,"SoundDuration":129244,"Delta":79950029},{"NoteNumber":78,"Velocity":39,"Duration":130300,"SoundDuration":130300,"Delta":80046806},{"NoteNumber":80,"Velocity":47,"Duration":583175,"SoundDuration":583175,"Delta":80144848},{"NoteNumber":83,"Velocity":47,"Duration":205479,"SoundDuration":205479,"Delta":80728023},{"NoteNumber":80,"Velocity":54,"Duration":215827,"SoundDuration":215827,"Delta":80933503},{"NoteNumber":83,"Velocity":53,"Duration":239999,"SoundDuration":239999,"Delta":81149330},{"NoteNumber":86,"Velocity":53,"Duration":441176,"SoundDuration":441176,"Delta":81389330},{"NoteNumber":77,"Velocity":45,"Duration":854647,"SoundDuration":854647,"Delta":81389330},{"NoteNumber":62,"Velocity":38,"Duration":854647,"SoundDuration":854647,"Delta":81389330},{"NoteNumber":69,"Velocity":45,"Duration":854647,"SoundDuration":854647,"Delta":81389330},{"NoteNumber":84,"Velocity":52,"Duration":212128,"SoundDuration":212128,"Delta":81830507},{"NoteNumber":83,"Velocity":52,"Duration":201342,"SoundDuration":201342,"Delta":82042635},{"NoteNumber":74,"Velocity":42,"Duration":726804,"SoundDuration":726804,"Delta":82243977},{"NoteNumber":81,"Velocity":53,"Duration":186335,"SoundDuration":186335,"Delta":82243977},{"NoteNumber":65,"Velocity":35,"Duration":726804,"SoundDuration":726804,"Delta":82243977},{"NoteNumber":71,"Velocity":42,"Duration":726804,"SoundDuration":726804,"Delta":82243977},{"NoteNumber":79,"Velocity":51,"Duration":186335,"SoundDuration":186335,"Delta":82430313},{"NoteNumber":81,"Velocity":51,"Duration":180723,"SoundDuration":180723,"Delta":82616648},{"NoteNumber":83,"Velocity":51,"Duration":144508,"SoundDuration":144508,"Delta":82797371},{"NoteNumber":76,"Velocity":53,"Duration":182926,"SoundDuration":182926,"Delta":82970782},{"NoteNumber":71,"Velocity":42,"Duration":365853,"SoundDuration":365853,"Delta":82970782},{"NoteNumber":67,"Velocity":42,"Duration":365853,"SoundDuration":365853,"Delta":82970782},{"NoteNumber":60,"Velocity":35,"Duration":711815,"SoundDuration":711815,"Delta":82970782},{"NoteNumber":77,"Velocity":51,"Duration":182926,"SoundDuration":182926,"Delta":83153709},{"NoteNumber":69,"Velocity":39,"Duration":705243,"SoundDuration":705243,"Delta":83336635},{"NoteNumber":79,"Velocity":51,"Duration":176470,"SoundDuration":176470,"Delta":83336635},{"NoteNumber":65,"Velocity":39,"Duration":705243,"SoundDuration":705243,"Delta":83336635},{"NoteNumber":81,"Velocity":51,"Duration":141242,"SoundDuration":141242,"Delta":83513106},{"NoteNumber":74,"Velocity":53,"Duration":179640,"SoundDuration":179640,"Delta":83682597},{"NoteNumber":59,"Velocity":42,"Duration":701231,"SoundDuration":701231,"Delta":83682597},{"NoteNumber":76,"Velocity":49,"Duration":179640,"SoundDuration":179640,"Delta":83862238},{"NoteNumber":77,"Velocity":49,"Duration":173410,"SoundDuration":173410,"Delta":84041879},{"NoteNumber":67,"Velocity":39,"Duration":705586,"SoundDuration":705586,"Delta":84041879},{"NoteNumber":64,"Velocity":39,"Duration":705586,"SoundDuration":705586,"Delta":84041879},{"NoteNumber":79,"Velocity":49,"Duration":140449,"SoundDuration":140449,"Delta":84215289},{"NoteNumber":72,"Velocity":53,"Duration":181818,"SoundDuration":181818,"Delta":84383829},{"NoteNumber":57,"Velocity":42,"Duration":703604,"SoundDuration":703604,"Delta":84383829},{"NoteNumber":74,"Velocity":52,"Duration":181818,"SoundDuration":181818,"Delta":84565647},{"NoteNumber":76,"Velocity":52,"Duration":171428,"SoundDuration":171428,"Delta":84747465},{"NoteNumber":65,"Velocity":39,"Duration":705821,"SoundDuration":705821,"Delta":84747465},{"NoteNumber":62,"Velocity":39,"Duration":1078492,"SoundDuration":1078492,"Delta":84747465},{"NoteNumber":77,"Velocity":52,"Duration":168539,"SoundDuration":168539,"Delta":84918894},{"NoteNumber":71,"Velocity":56,"Duration":890963,"SoundDuration":890963,"Delta":85087433},{"NoteNumber":57,"Velocity":42,"Duration":365853,"SoundDuration":365853,"Delta":85087433},{"NoteNumber":67,"Velocity":45,"Duration":372670,"SoundDuration":372670,"Delta":85453286},{"NoteNumber":55,"Velocity":44,"Duration":372670,"SoundDuration":372670,"Delta":85453286},{"NoteNumber":69,"Velocity":41,"Duration":365853,"SoundDuration":365853,"Delta":85825957},{"NoteNumber":53,"Velocity":33,"Duration":365853,"SoundDuration":365853,"Delta":85825957},{"NoteNumber":62,"Velocity":39,"Duration":365853,"SoundDuration":365853,"Delta":85825957},{"NoteNumber":72,"Velocity":51,"Duration":182926,"SoundDuration":182926,"Delta":86008884},{"NoteNumber":67,"Velocity":33,"Duration":350876,"SoundDuration":350876,"Delta":86191811},{"NoteNumber":74,"Velocity":48,"Duration":175438,"SoundDuration":175438,"Delta":86191811},{"NoteNumber":52,"Velocity":27,"Duration":350876,"SoundDuration":350876,"Delta":86191811},{"NoteNumber":59,"Velocity":33,"Duration":350876,"SoundDuration":350876,"Delta":86191811},{"NoteNumber":76,"Velocity":46,"Duration":175438,"SoundDuration":175438,"Delta":86367249},{"NoteNumber":65,"Velocity":45,"Duration":437955,"SoundDuration":437955,"Delta":86542688},{"NoteNumber":69,"Velocity":45,"Duration":1394510,"SoundDuration":1394510,"Delta":86542688},{"NoteNumber":50,"Velocity":32,"Duration":437955,"SoundDuration":437955,"Delta":86542688},{"NoteNumber":60,"Velocity":38,"Duration":437955,"SoundDuration":437955,"Delta":86542688},{"NoteNumber":64,"Velocity":38,"Duration":487804,"SoundDuration":487804,"Delta":86980644},{"NoteNumber":48,"Velocity":30,"Duration":487804,"SoundDuration":487804,"Delta":86980644},{"NoteNumber":52,"Velocity":36,"Duration":487804,"SoundDuration":487804,"Delta":86980644},{"NoteNumber":63,"Velocity":35,"Duration":3083356,"SoundDuration":3083356,"Delta":87468449},{"NoteNumber":47,"Velocity":30,"Duration":3083356,"SoundDuration":3083356,"Delta":87468449},{"NoteNumber":54,"Velocity":36,"Duration":3083356,"SoundDuration":3083356,"Delta":87468449},{"NoteNumber":71,"Velocity":43,"Duration":184049,"SoundDuration":184049,"Delta":87937199},{"NoteNumber":69,"Velocity":43,"Duration":184049,"SoundDuration":184049,"Delta":88121248},{"NoteNumber":68,"Velocity":45,"Duration":184049,"SoundDuration":184049,"Delta":88305297},{"NoteNumber":69,"Velocity":43,"Duration":184049,"SoundDuration":184049,"Delta":88489346},{"NoteNumber":66,"Velocity":45,"Duration":176470,"SoundDuration":176470,"Delta":88673395},{"NoteNumber":68,"Velocity":43,"Duration":176470,"SoundDuration":176470,"Delta":88849865},{"NoteNumber":69,"Velocity":45,"Duration":343750,"SoundDuration":343750,"Delta":89026336},{"NoteNumber":71,"Velocity":43,"Duration":182926,"SoundDuration":182926,"Delta":89401336},{"NoteNumber":69,"Velocity":43,"Duration":182926,"SoundDuration":182926,"Delta":89584263},{"NoteNumber":66,"Velocity":45,"Duration":384615,"SoundDuration":384615,"Delta":89767189},{"NoteNumber":68,"Velocity":43,"Duration":400000,"SoundDuration":400000,"Delta":90151805},{"NoteNumber":69,"Velocity":27,"Duration":2902593,"SoundDuration":2902593,"Delta":90551805},{"NoteNumber":57,"Velocity":22,"Duration":2902593,"SoundDuration":2902593,"Delta":90551805},{"NoteNumber":64,"Velocity":43,"Duration":341615,"SoundDuration":341615,"Delta":90551805},{"NoteNumber":48,"Velocity":22,"Duration":6072300,"SoundDuration":6072300,"Delta":90551805},{"NoteNumber":54,"Velocity":27,"Duration":6072300,"SoundDuration":6072300,"Delta":90551805},{"NoteNumber":66,"Velocity":38,"Duration":177514,"SoundDuration":177514,"Delta":90924476},{"NoteNumber":64,"Velocity":38,"Duration":177514,"SoundDuration":177514,"Delta":91101991},{"NoteNumber":60,"Velocity":38,"Duration":177514,"SoundDuration":177514,"Delta":91279505},{"NoteNumber":62,"Velocity":37,"Duration":173410,"SoundDuration":173410,"Delta":91457020},{"NoteNumber":64,"Velocity":36,"Duration":714286,"SoundDuration":714286,"Delta":91630431},{"NoteNumber":66,"Velocity":38,"Duration":177514,"SoundDuration":177514,"Delta":92375773},{"NoteNumber":64,"Velocity":38,"Duration":177514,"SoundDuration":177514,"Delta":92553287},{"NoteNumber":60,"Velocity":38,"Duration":177514,"SoundDuration":177514,"Delta":92730802},{"NoteNumber":62,"Velocity":37,"Duration":173410,"SoundDuration":173410,"Delta":92908317},{"NoteNumber":64,"Velocity":36,"Duration":746047,"SoundDuration":746047,"Delta":93081727},{"NoteNumber":58,"Velocity":25,"Duration":3169706,"SoundDuration":3169706,"Delta":93454398},{"NoteNumber":66,"Velocity":37,"Duration":182926,"SoundDuration":182926,"Delta":93844009},{"NoteNumber":64,"Velocity":37,"Duration":182926,"SoundDuration":182926,"Delta":94026936},{"NoteNumber":60,"Velocity":37,"Duration":182926,"SoundDuration":182926,"Delta":94209862},{"NoteNumber":62,"Velocity":35,"Duration":178571,"SoundDuration":178571,"Delta":94392789},{"NoteNumber":64,"Velocity":34,"Duration":714286,"SoundDuration":714286,"Delta":94571361},{"NoteNumber":66,"Velocity":35,"Duration":192307,"SoundDuration":192307,"Delta":95316703},{"NoteNumber":64,"Velocity":35,"Duration":192307,"SoundDuration":192307,"Delta":95509010},{"NoteNumber":60,"Velocity":34,"Duration":215827,"SoundDuration":215827,"Delta":95701318},{"NoteNumber":62,"Velocity":31,"Duration":230769,"SoundDuration":230769,"Delta":95917145},{"NoteNumber":64,"Velocity":28,"Duration":848861,"SoundDuration":848861,"Delta":96147915},{"NoteNumber":62,"Velocity":38,"Duration":279503,"SoundDuration":279503,"Delta":96624105},{"NoteNumber":47,"Velocity":29,"Duration":279503,"SoundDuration":279503,"Delta":96624105},{"NoteNumber":56,"Velocity":35,"Duration":279503,"SoundDuration":279503,"Delta":96624105},{"NoteNumber":64,"Velocity":41,"Duration":169491,"SoundDuration":169491,"Delta":96996776},{"NoteNumber":40,"Velocity":38,"Duration":254237,"SoundDuration":254237,"Delta":96996776},{"NoteNumber":66,"Velocity":41,"Duration":84745,"SoundDuration":84745,"Delta":97166268},{"NoteNumber":68,"Velocity":41,"Duration":84269,"SoundDuration":84269,"Delta":97335759},{"NoteNumber":69,"Velocity":41,"Duration":84269,"SoundDuration":84269,"Delta":97504298},{"NoteNumber":71,"Velocity":41,"Duration":83798,"SoundDuration":83798,"Delta":97672838},{"NoteNumber":72,"Velocity":41,"Duration":83798,"SoundDuration":83798,"Delta":97840435},{"NoteNumber":74,"Velocity":39,"Duration":83333,"SoundDuration":83333,"Delta":98008033},{"NoteNumber":76,"Velocity":39,"Duration":83333,"SoundDuration":83333,"Delta":98174700},{"NoteNumber":78,"Velocity":38,"Duration":82872,"SoundDuration":82872,"Delta":98341367},{"NoteNumber":80,"Velocity":37,"Duration":82872,"SoundDuration":82872,"Delta":98507112},{"NoteNumber":81,"Velocity":37,"Duration":83491,"SoundDuration":83491,"Delta":98672858},{"NoteNumber":83,"Velocity":36,"Duration":87895,"SoundDuration":87895,"Delta":98841906},{"NoteNumber":84,"Velocity":35,"Duration":92980,"SoundDuration":92980,"Delta":99019986},{"NoteNumber":86,"Velocity":35,"Duration":104166,"SoundDuration":104166,"Delta":99208718},{"NoteNumber":88,"Velocity":45,"Duration":447760,"SoundDuration":447760,"Delta":99416576},{"NoteNumber":76,"Velocity":30,"Duration":2454394,"SoundDuration":2454394,"Delta":99416576},{"NoteNumber":57,"Velocity":25,"Duration":2454394,"SoundDuration":2454394,"Delta":99416576},{"NoteNumber":64,"Velocity":25,"Duration":2454394,"SoundDuration":2454394,"Delta":99416576},{"NoteNumber":72,"Velocity":30,"Duration":2454394,"SoundDuration":2454394,"Delta":99416576},{"NoteNumber":83,"Velocity":41,"Duration":895521,"SoundDuration":895521,"Delta":99864337},{"NoteNumber":81,"Velocity":45,"Duration":740740,"SoundDuration":740740,"Delta":100759859},{"NoteNumber":76,"Velocity":42,"Duration":370370,"SoundDuration":370370,"Delta":101500600},{"NoteNumber":71,"Velocity":39,"Duration":90909,"SoundDuration":90909,"Delta":101870970},{"NoteNumber":65,"Velocity":39,"Duration":363636,"SoundDuration":363636,"Delta":101870970},{"NoteNumber":57,"Velocity":33,"Duration":363636,"SoundDuration":363636,"Delta":101870970},{"NoteNumber":50,"Velocity":27,"Duration":363636,"SoundDuration":363636,"Delta":101870970},{"NoteNumber":69,"Velocity":39,"Duration":90909,"SoundDuration":90909,"Delta":101961879},{"NoteNumber":71,"Velocity":39,"Duration":90909,"SoundDuration":90909,"Delta":102052788},{"NoteNumber":74,"Velocity":39,"Duration":90909,"SoundDuration":90909,"Delta":102143697},{"NoteNumber":83,"Velocity":37,"Duration":363636,"SoundDuration":363636,"Delta":102234607},{"NoteNumber":81,"Velocity":37,"Duration":363636,"SoundDuration":363636,"Delta":102234607},{"NoteNumber":77,"Velocity":37,"Duration":363636,"SoundDuration":363636,"Delta":102234607},{"NoteNumber":76,"Velocity":33,"Duration":2369683,"SoundDuration":2369683,"Delta":102598243},{"NoteNumber":88,"Velocity":48,"Duration":447760,"SoundDuration":447760,"Delta":102598243},{"NoteNumber":57,"Velocity":27,"Duration":2369683,"SoundDuration":2369683,"Delta":102598243},{"NoteNumber":64,"Velocity":27,"Duration":2369683,"SoundDuration":2369683,"Delta":102598243},{"NoteNumber":72,"Velocity":33,"Duration":2369683,"SoundDuration":2369683,"Delta":102598243},{"NoteNumber":83,"Velocity":43,"Duration":810811,"SoundDuration":810811,"Delta":103046004},{"NoteNumber":81,"Velocity":45,"Duration":740740,"SoundDuration":740740,"Delta":103856815},{"NoteNumber":76,"Velocity":42,"Duration":370370,"SoundDuration":370370,"Delta":104597556},{"NoteNumber":71,"Velocity":39,"Duration":363636,"SoundDuration":363636,"Delta":104967927},{"NoteNumber":66,"Velocity":33,"Duration":363636,"SoundDuration":363636,"Delta":104967927},{"NoteNumber":60,"Velocity":33,"Duration":727272,"SoundDuration":727272,"Delta":104967927},{"NoteNumber":50,"Velocity":27,"Duration":727272,"SoundDuration":727272,"Delta":104967927},{"NoteNumber":69,"Velocity":39,"Duration":454180,"SoundDuration":454180,"Delta":105331563},{"NoteNumber":65,"Velocity":39,"Duration":368925,"SoundDuration":368925,"Delta":105695200},{"NoteNumber":43,"Velocity":29,"Duration":368925,"SoundDuration":368925,"Delta":105695200},{"NoteNumber":50,"Velocity":29,"Duration":368925,"SoundDuration":368925,"Delta":105695200},{"NoteNumber":59,"Velocity":35,"Duration":368925,"SoundDuration":368925,"Delta":105695200},{"NoteNumber":71,"Velocity":35,"Duration":91650,"SoundDuration":91650,"Delta":105785744},{"NoteNumber":69,"Velocity":37,"Duration":92784,"SoundDuration":92784,"Delta":105877394},{"NoteNumber":67,"Velocity":39,"Duration":93946,"SoundDuration":93946,"Delta":105970178},{"NoteNumber":60,"Velocity":30,"Duration":789694,"SoundDuration":789694,"Delta":106064125},{"NoteNumber":64,"Velocity":36,"Duration":789694,"SoundDuration":789694,"Delta":106064125},{"NoteNumber":48,"Velocity":35,"Duration":789694,"SoundDuration":789694,"Delta":106064125},{"NoteNumber":55,"Velocity":41,"Duration":789694,"SoundDuration":789694,"Delta":106064125},{"NoteNumber":57,"Velocity":32,"Duration":1926031,"SoundDuration":1926031,"Delta":106853820},{"NoteNumber":62,"Velocity":38,"Duration":807299,"SoundDuration":807299,"Delta":106853820},{"NoteNumber":41,"Velocity":31,"Duration":807299,"SoundDuration":807299,"Delta":106853820},{"NoteNumber":48,"Velocity":37,"Duration":1926031,"SoundDuration":1926031,"Delta":106853820},{"NoteNumber":64,"Velocity":41,"Duration":372670,"SoundDuration":372670,"Delta":107661119},{"NoteNumber":40,"Velocity":35,"Duration":372670,"SoundDuration":372670,"Delta":107661119},{"NoteNumber":65,"Velocity":45,"Duration":361446,"SoundDuration":361446,"Delta":108033790},{"NoteNumber":38,"Velocity":35,"Duration":746061,"SoundDuration":746061,"Delta":108033790},{"NoteNumber":69,"Velocity":41,"Duration":352564,"SoundDuration":352564,"Delta":108395236},{"NoteNumber":64,"Velocity":38,"Duration":390828,"SoundDuration":390828,"Delta":108779851},{"NoteNumber":59,"Velocity":32,"Duration":1551877,"SoundDuration":1551877,"Delta":108779851},{"NoteNumber":43,"Velocity":31,"Duration":2362368,"SoundDuration":2362368,"Delta":108779851},{"NoteNumber":53,"Velocity":37,"Duration":2362368,"SoundDuration":2362368,"Delta":108779851},{"NoteNumber":62,"Velocity":36,"Duration":185185,"SoundDuration":185185,"Delta":109170680},{"NoteNumber":64,"Velocity":34,"Duration":180723,"SoundDuration":180723,"Delta":109355865},{"NoteNumber":62,"Velocity":37,"Duration":336927,"SoundDuration":336927,"Delta":109536588},{"NoteNumber":64,"Velocity":38,"Duration":781656,"SoundDuration":781656,"Delta":109940901},{"NoteNumber":62,"Velocity":32,"Duration":206896,"SoundDuration":206896,"Delta":110722558},{"NoteNumber":64,"Velocity":30,"Duration":212766,"SoundDuration":212766,"Delta":110929454},{"NoteNumber":62,"Velocity":31,"Duration":403746,"SoundDuration":403746,"Delta":111142220},{"NoteNumber":57,"Velocity":26,"Duration":403746,"SoundDuration":403746,"Delta":111142220},{"NoteNumber":47,"Velocity":31,"Duration":1039696,"SoundDuration":1039696,"Delta":111142220},{"NoteNumber":41,"Velocity":26,"Duration":403746,"SoundDuration":403746,"Delta":111142220},{"NoteNumber":59,"Velocity":19,"Duration":555200,"SoundDuration":555200,"Delta":111626716},{"NoteNumber":55,"Velocity":19,"Duration":555200,"SoundDuration":555200,"Delta":111626716},{"NoteNumber":64,"Velocity":24,"Duration":555200,"SoundDuration":555200,"Delta":111626716},{"NoteNumber":40,"Velocity":25,"Duration":555200,"SoundDuration":555200,"Delta":111626716},{"NoteNumber":88,"Velocity":45,"Duration":447760,"SoundDuration":447760,"Delta":112181916},{"NoteNumber":76,"Velocity":30,"Duration":2454394,"SoundDuration":2454394,"Delta":112181916},{"NoteNumber":57,"Velocity":25,"Duration":2454394,"SoundDuration":2454394,"Delta":112181916},{"NoteNumber":64,"Velocity":25,"Duration":2454394,"SoundDuration":2454394,"Delta":112181916},{"NoteNumber":72,"Velocity":30,"Duration":2454394,"SoundDuration":2454394,"Delta":112181916},{"NoteNumber":83,"Velocity":43,"Duration":895521,"SoundDuration":895521,"Delta":112629677},{"NoteNumber":81,"Velocity":45,"Duration":740740,"SoundDuration":740740,"Delta":113525199},{"NoteNumber":76,"Velocity":42,"Duration":370370,"SoundDuration":370370,"Delta":114265940},{"NoteNumber":65,"Velocity":33,"Duration":363636,"SoundDuration":363636,"Delta":114636311},{"NoteNumber":71,"Velocity":39,"Duration":90909,"SoundDuration":90909,"Delta":114636311},{"NoteNumber":57,"Velocity":33,"Duration":363636,"SoundDuration":363636,"Delta":114636311},{"NoteNumber":50,"Velocity":27,"Duration":363636,"SoundDuration":363636,"Delta":114636311},{"NoteNumber":69,"Velocity":39,"Duration":90909,"SoundDuration":90909,"Delta":114727220},{"NoteNumber":71,"Velocity":39,"Duration":90909,"SoundDuration":90909,"Delta":114818129},{"NoteNumber":74,"Velocity":39,"Duration":90909,"SoundDuration":90909,"Delta":114909038},{"NoteNumber":83,"Velocity":37,"Duration":408163,"SoundDuration":408163,"Delta":114999947},{"NoteNumber":81,"Velocity":37,"Duration":408163,"SoundDuration":408163,"Delta":114999947},{"NoteNumber":77,"Velocity":37,"Duration":408163,"SoundDuration":408163,"Delta":114999947},{"NoteNumber":88,"Velocity":48,"Duration":447760,"SoundDuration":447760,"Delta":115408111},{"NoteNumber":76,"Velocity":33,"Duration":1690226,"SoundDuration":1690226,"Delta":115408111},{"NoteNumber":57,"Velocity":27,"Duration":1690226,"SoundDuration":1690226,"Delta":115408111},{"NoteNumber":64,"Velocity":27,"Duration":1690226,"SoundDuration":1690226,"Delta":115408111},{"NoteNumber":72,"Velocity":33,"Duration":1690226,"SoundDuration":1690226,"Delta":115408111},{"NoteNumber":83,"Velocity":43,"Duration":810811,"SoundDuration":810811,"Delta":115855872},{"NoteNumber":81,"Velocity":43,"Duration":431654,"SoundDuration":431654,"Delta":116666683},{"NoteNumber":64,"Velocity":31,"Duration":1663977,"SoundDuration":1663977,"Delta":117098337},{"NoteNumber":76,"Velocity":42,"Duration":447760,"SoundDuration":447760,"Delta":117098337},{"NoteNumber":45,"Velocity":27,"Duration":1663977,"SoundDuration":1663977,"Delta":117098337},{"NoteNumber":52,"Velocity":27,"Duration":1663977,"SoundDuration":1663977,"Delta":117098337},{"NoteNumber":61,"Velocity":33,"Duration":1663977,"SoundDuration":1663977,"Delta":117098337},{"NoteNumber":71,"Velocity":37,"Duration":810811,"SoundDuration":810811,"Delta":117546098},{"NoteNumber":69,"Velocity":36,"Duration":822072,"SoundDuration":822072,"Delta":118356909},{"NoteNumber":57,"Velocity":37,"Duration":416666,"SoundDuration":416666,"Delta":118762315},{"NoteNumber":41,"Velocity":19,"Duration":416666,"SoundDuration":416666,"Delta":118762315},{"NoteNumber":48,"Velocity":27,"Duration":416666,"SoundDuration":416666,"Delta":118762315},{"NoteNumber":64,"Velocity":36,"Duration":799999,"SoundDuration":799999,"Delta":119178981},{"NoteNumber":59,"Velocity":25,"Duration":1200000,"SoundDuration":1200000,"Delta":119178981},{"NoteNumber":43,"Velocity":22,"Duration":1200000,"SoundDuration":1200000,"Delta":119178981},{"NoteNumber":53,"Velocity":32,"Duration":1200000,"SoundDuration":1200000,"Delta":119178981},{"NoteNumber":62,"Velocity":35,"Duration":495541,"SoundDuration":495541,"Delta":119978981},{"NoteNumber":57,"Velocity":32,"Duration":382165,"SoundDuration":382165,"Delta":120378981},{"NoteNumber":45,"Velocity":23,"Duration":382165,"SoundDuration":382165,"Delta":120378981},{"NoteNumber":52,"Velocity":33,"Duration":382165,"SoundDuration":382165,"Delta":120378981},{"NoteNumber":60,"Velocity":32,"Duration":95541,"SoundDuration":95541,"Delta":120474523},{"NoteNumber":62,"Velocity":32,"Duration":95541,"SoundDuration":95541,"Delta":120570064},{"NoteNumber":64,"Velocity":32,"Duration":95541,"SoundDuration":95541,"Delta":120665606},{"NoteNumber":53,"Velocity":24,"Duration":789473,"SoundDuration":789473,"Delta":120761147},{"NoteNumber":57,"Velocity":34,"Duration":789473,"SoundDuration":789473,"Delta":120761147},{"NoteNumber":50,"Velocity":33,"Duration":789473,"SoundDuration":789473,"Delta":120761147},{"NoteNumber":59,"Velocity":32,"Duration":394737,"SoundDuration":394737,"Delta":121550621},{"NoteNumber":52,"Velocity":22,"Duration":394737,"SoundDuration":394737,"Delta":121550621},{"NoteNumber":55,"Velocity":31,"Duration":394737,"SoundDuration":394737,"Delta":121550621},{"NoteNumber":52,"Velocity":22,"Duration":152027,"SoundDuration":152027,"Delta":122350763},{"NoteNumber":57,"Velocity":27,"Duration":152027,"SoundDuration":152027,"Delta":122350763},{"NoteNumber":45,"Velocity":19,"Duration":152027,"SoundDuration":152027,"Delta":122350763},{"NoteNumber":48,"Velocity":24,"Duration":152027,"SoundDuration":152027,"Delta":122350763},{"NoteNumber":50,"Velocity":20,"Duration":104166,"SoundDuration":104166,"Delta":123181701},{"NoteNumber":53,"Velocity":25,"Duration":104166,"SoundDuration":104166,"Delta":123181701},{"NoteNumber":43,"Velocity":17,"Duration":104166,"SoundDuration":104166,"Delta":123181701},{"NoteNumber":47,"Velocity":21,"Duration":104166,"SoundDuration":104166,"Delta":123181701},{"NoteNumber":52,"Velocity":22,"Duration":99999,"SoundDuration":99999,"Delta":123598367},{"NoteNumber":57,"Velocity":27,"Duration":99999,"SoundDuration":99999,"Delta":123598367},{"NoteNumber":45,"Velocity":19,"Duration":99999,"SoundDuration":99999,"Delta":123598367},{"NoteNumber":48,"Velocity":24,"Duration":99999,"SoundDuration":99999,"Delta":123598367},{"NoteNumber":52,"Velocity":22,"Duration":99999,"SoundDuration":99999,"Delta":123998367},{"NoteNumber":57,"Velocity":27,"Duration":99999,"SoundDuration":99999,"Delta":123998367},{"NoteNumber":45,"Velocity":19,"Duration":99999,"SoundDuration":99999,"Delta":123998367},{"NoteNumber":48,"Velocity":24,"Duration":99999,"SoundDuration":99999,"Delta":123998367},{"NoteNumber":34,"Velocity":25,"Duration":718794,"SoundDuration":718794,"Delta":125143709},{"NoteNumber":46,"Velocity":30,"Duration":718794,"SoundDuration":718794,"Delta":125143709},{"NoteNumber":48,"Velocity":36,"Duration":176470,"SoundDuration":176470,"Delta":125509563},{"NoteNumber":50,"Velocity":36,"Duration":176470,"SoundDuration":176470,"Delta":125686033},{"NoteNumber":48,"Velocity":32,"Duration":2148536,"SoundDuration":2148536,"Delta":125862504},{"NoteNumber":52,"Velocity":38,"Duration":1097560,"SoundDuration":1097560,"Delta":125862504},{"NoteNumber":33,"Velocity":28,"Duration":731707,"SoundDuration":731707,"Delta":125862504},{"NoteNumber":45,"Velocity":34,"Duration":731707,"SoundDuration":731707,"Delta":125862504},{"NoteNumber":31,"Velocity":30,"Duration":714690,"SoundDuration":714690,"Delta":126594211},{"NoteNumber":43,"Velocity":36,"Duration":714690,"SoundDuration":714690,"Delta":126594211},{"NoteNumber":50,"Velocity":32,"Duration":348837,"SoundDuration":348837,"Delta":126960064},{"NoteNumber":53,"Velocity":38,"Duration":348837,"SoundDuration":348837,"Delta":126960064},{"NoteNumber":52,"Velocity":32,"Duration":359281,"SoundDuration":359281,"Delta":127308901},{"NoteNumber":55,"Velocity":38,"Duration":359281,"SoundDuration":359281,"Delta":127308901},{"NoteNumber":29,"Velocity":28,"Duration":702138,"SoundDuration":702138,"Delta":127308901},{"NoteNumber":41,"Velocity":34,"Duration":702138,"SoundDuration":702138,"Delta":127308901},{"NoteNumber":57,"Velocity":32,"Duration":342857,"SoundDuration":342857,"Delta":127668183},{"NoteNumber":53,"Velocity":38,"Duration":342857,"SoundDuration":342857,"Delta":127668183},{"NoteNumber":55,"Velocity":36,"Duration":352940,"SoundDuration":352940,"Delta":128011040},{"NoteNumber":48,"Velocity":36,"Duration":695797,"SoundDuration":695797,"Delta":128011040},{"NoteNumber":58,"Velocity":36,"Duration":352940,"SoundDuration":352940,"Delta":128011040},{"NoteNumber":28,"Velocity":26,"Duration":695797,"SoundDuration":695797,"Delta":128011040},{"NoteNumber":40,"Velocity":31,"Duration":695797,"SoundDuration":695797,"Delta":128011040},{"NoteNumber":57,"Velocity":37,"Duration":342857,"SoundDuration":342857,"Delta":128363981},{"NoteNumber":60,"Velocity":37,"Duration":342857,"SoundDuration":342857,"Delta":128363981},{"NoteNumber":62,"Velocity":38,"Duration":352940,"SoundDuration":352940,"Delta":128706838},{"NoteNumber":53,"Velocity":32,"Duration":352940,"SoundDuration":352940,"Delta":128706838},{"NoteNumber":58,"Velocity":32,"Duration":352940,"SoundDuration":352940,"Delta":128706838},{"NoteNumber":26,"Velocity":29,"Duration":697768,"SoundDuration":697768,"Delta":128706838},{"NoteNumber":38,"Velocity":35,"Duration":697768,"SoundDuration":697768,"Delta":128706838},{"NoteNumber":65,"Velocity":41,"Duration":344827,"SoundDuration":344827,"Delta":129059779},{"NoteNumber":57,"Velocity":35,"Duration":344827,"SoundDuration":344827,"Delta":129059779},{"NoteNumber":60,"Velocity":35,"Duration":344827,"SoundDuration":344827,"Delta":129059779},{"NoteNumber":67,"Velocity":42,"Duration":348484,"SoundDuration":348484,"Delta":129404606},{"NoteNumber":58,"Velocity":35,"Duration":348484,"SoundDuration":348484,"Delta":129404606},{"NoteNumber":62,"Velocity":35,"Duration":348484,"SoundDuration":348484,"Delta":129404606},{"NoteNumber":24,"Velocity":32,"Duration":716577,"SoundDuration":716577,"Delta":129404606},{"NoteNumber":36,"Velocity":38,"Duration":716577,"SoundDuration":716577,"Delta":129404606},{"NoteNumber":65,"Velocity":38,"Duration":705882,"SoundDuration":705882,"Delta":129768243},{"NoteNumber":57,"Velocity":32,"Duration":705882,"SoundDuration":705882,"Delta":129768243},{"NoteNumber":60,"Velocity":32,"Duration":705882,"SoundDuration":705882,"Delta":129768243},{"NoteNumber":26,"Velocity":28,"Duration":705882,"SoundDuration":705882,"Delta":130121184},{"NoteNumber":38,"Velocity":34,"Duration":705882,"SoundDuration":705882,"Delta":130121184},{"NoteNumber":58,"Velocity":30,"Duration":352940,"SoundDuration":352940,"Delta":130474125},{"NoteNumber":53,"Velocity":30,"Duration":352940,"SoundDuration":352940,"Delta":130474125},{"NoteNumber":62,"Velocity":36,"Duration":352940,"SoundDuration":352940,"Delta":130474125},{"NoteNumber":34,"Velocity":31,"Duration":716730,"SoundDuration":716730,"Delta":130827066},{"NoteNumber":46,"Velocity":37,"Duration":716730,"SoundDuration":716730,"Delta":130827066},{"NoteNumber":48,"Velocity":36,"Duration":175438,"SoundDuration":175438,"Delta":131192919},{"NoteNumber":50,"Velocity":36,"Duration":175438,"SoundDuration":175438,"Delta":131368358},{"NoteNumber":52,"Velocity":38,"Duration":1097560,"SoundDuration":1097560,"Delta":131543796},{"NoteNumber":48,"Velocity":32,"Duration":2148536,"SoundDuration":2148536,"Delta":131543796},{"NoteNumber":33,"Velocity":28,"Duration":731707,"SoundDuration":731707,"Delta":131543796},{"NoteNumber":45,"Velocity":34,"Duration":731707,"SoundDuration":731707,"Delta":131543796},{"NoteNumber":31,"Velocity":30,"Duration":714690,"SoundDuration":714690,"Delta":132275503},{"NoteNumber":43,"Velocity":36,"Duration":714690,"SoundDuration":714690,"Delta":132275503},{"NoteNumber":53,"Velocity":38,"Duration":348837,"SoundDuration":348837,"Delta":132641357},{"NoteNumber":50,"Velocity":38,"Duration":348837,"SoundDuration":348837,"Delta":132641357},{"NoteNumber":55,"Velocity":38,"Duration":359281,"SoundDuration":359281,"Delta":132990194},{"NoteNumber":52,"Velocity":38,"Duration":359281,"SoundDuration":359281,"Delta":132990194},{"NoteNumber":29,"Velocity":28,"Duration":702138,"SoundDuration":702138,"Delta":132990194},{"NoteNumber":41,"Velocity":34,"Duration":702138,"SoundDuration":702138,"Delta":132990194},{"NoteNumber":57,"Velocity":38,"Duration":342857,"SoundDuration":342857,"Delta":133349475},{"NoteNumber":53,"Velocity":38,"Duration":342857,"SoundDuration":342857,"Delta":133349475},{"NoteNumber":55,"Velocity":30,"Duration":352940,"SoundDuration":352940,"Delta":133692332},{"NoteNumber":48,"Velocity":36,"Duration":695797,"SoundDuration":695797,"Delta":133692332},{"NoteNumber":58,"Velocity":36,"Duration":352940,"SoundDuration":352940,"Delta":133692332},{"NoteNumber":28,"Velocity":26,"Duration":695797,"SoundDuration":695797,"Delta":133692332},{"NoteNumber":40,"Velocity":31,"Duration":695797,"SoundDuration":695797,"Delta":133692332},{"NoteNumber":57,"Velocity":31,"Duration":342857,"SoundDuration":342857,"Delta":134045273},{"NoteNumber":60,"Velocity":37,"Duration":342857,"SoundDuration":342857,"Delta":134045273},{"NoteNumber":58,"Velocity":34,"Duration":352940,"SoundDuration":352940,"Delta":134388130},{"NoteNumber":53,"Velocity":34,"Duration":352940,"SoundDuration":352940,"Delta":134388130},{"NoteNumber":62,"Velocity":40,"Duration":352940,"SoundDuration":352940,"Delta":134388130},{"NoteNumber":26,"Velocity":29,"Duration":697768,"SoundDuration":697768,"Delta":134388130},{"NoteNumber":38,"Velocity":35,"Duration":697768,"SoundDuration":697768,"Delta":134388130},{"NoteNumber":60,"Velocity":35,"Duration":344827,"SoundDuration":344827,"Delta":134741071},{"NoteNumber":57,"Velocity":35,"Duration":344827,"SoundDuration":344827,"Delta":134741071},{"NoteNumber":65,"Velocity":42,"Duration":344827,"SoundDuration":344827,"Delta":134741071},{"NoteNumber":62,"Velocity":36,"Duration":348484,"SoundDuration":348484,"Delta":135085899},{"NoteNumber":67,"Velocity":44,"Duration":348484,"SoundDuration":348484,"Delta":135085899},{"NoteNumber":58,"Velocity":36,"Duration":348484,"SoundDuration":348484,"Delta":135085899},{"NoteNumber":24,"Velocity":32,"Duration":716577,"SoundDuration":716577,"Delta":135085899},{"NoteNumber":36,"Velocity":38,"Duration":716577,"SoundDuration":716577,"Delta":135085899},{"NoteNumber":65,"Velocity":39,"Duration":705882,"SoundDuration":705882,"Delta":135449535},{"NoteNumber":57,"Velocity":33,"Duration":705882,"SoundDuration":705882,"Delta":135449535},{"NoteNumber":60,"Velocity":33,"Duration":705882,"SoundDuration":705882,"Delta":135449535},{"NoteNumber":48,"Velocity":41,"Duration":705882,"SoundDuration":705882,"Delta":135802476},{"NoteNumber":62,"Velocity":33,"Duration":338235,"SoundDuration":338235,"Delta":136155417},{"NoteNumber":67,"Velocity":39,"Duration":338235,"SoundDuration":338235,"Delta":136155417},{"NoteNumber":58,"Velocity":33,"Duration":338235,"SoundDuration":338235,"Delta":136155417},{"NoteNumber":63,"Velocity":46,"Duration":2747099,"SoundDuration":2747099,"Delta":136508358},{"NoteNumber":65,"Velocity":39,"Duration":170454,"SoundDuration":170454,"Delta":136857195},{"NoteNumber":67,"Velocity":39,"Duration":170454,"SoundDuration":170454,"Delta":137027650},{"NoteNumber":69,"Velocity":42,"Duration":1059072,"SoundDuration":1059072,"Delta":137198104},{"NoteNumber":65,"Velocity":35,"Duration":2057353,"SoundDuration":2057353,"Delta":137198104},{"NoteNumber":62,"Velocity":45,"Duration":710235,"SoundDuration":710235,"Delta":137198104},{"NoteNumber":60,"Velocity":42,"Duration":682170,"SoundDuration":682170,"Delta":137908340},{"NoteNumber":70,"Velocity":42,"Duration":333333,"SoundDuration":333333,"Delta":138257177},{"NoteNumber":67,"Velocity":35,"Duration":333333,"SoundDuration":333333,"Delta":138257177},{"NoteNumber":72,"Velocity":42,"Duration":337078,"SoundDuration":337078,"Delta":138590510},{"NoteNumber":69,"Velocity":35,"Duration":337078,"SoundDuration":337078,"Delta":138590510},{"NoteNumber":58,"Velocity":42,"Duration":664947,"SoundDuration":664947,"Delta":138590510},{"NoteNumber":74,"Velocity":42,"Duration":327868,"SoundDuration":327868,"Delta":138927589},{"NoteNumber":70,"Velocity":35,"Duration":327868,"SoundDuration":327868,"Delta":138927589},{"NoteNumber":72,"Velocity":33,"Duration":333333,"SoundDuration":333333,"Delta":139255458},{"NoteNumber":65,"Velocity":30,"Duration":659420,"SoundDuration":659420,"Delta":139255458},{"NoteNumber":75,"Velocity":39,"Duration":333333,"SoundDuration":333333,"Delta":139255458},{"NoteNumber":63,"Velocity":36,"Duration":659420,"SoundDuration":659420,"Delta":139255458},{"NoteNumber":60,"Velocity":30,"Duration":659420,"SoundDuration":659420,"Delta":139255458},{"NoteNumber":57,"Velocity":30,"Duration":659420,"SoundDuration":659420,"Delta":139255458},{"NoteNumber":74,"Velocity":35,"Duration":326087,"SoundDuration":326087,"Delta":139588791},{"NoteNumber":77,"Velocity":41,"Duration":326087,"SoundDuration":326087,"Delta":139588791},{"NoteNumber":72,"Velocity":30,"Duration":676061,"SoundDuration":676061,"Delta":139914878},{"NoteNumber":75,"Velocity":35,"Duration":337078,"SoundDuration":337078,"Delta":139914878},{"NoteNumber":79,"Velocity":42,"Duration":337078,"SoundDuration":337078,"Delta":139914878},{"NoteNumber":67,"Velocity":36,"Duration":676061,"SoundDuration":676061,"Delta":139914878},{"NoteNumber":63,"Velocity":30,"Duration":676061,"SoundDuration":676061,"Delta":139914878},{"NoteNumber":60,"Velocity":30,"Duration":676061,"SoundDuration":676061,"Delta":139914878},{"NoteNumber":55,"Velocity":30,"Duration":676061,"SoundDuration":676061,"Delta":139914878},{"NoteNumber":79,"Velocity":39,"Duration":338983,"SoundDuration":338983,"Delta":140251957},{"NoteNumber":82,"Velocity":46,"Duration":338983,"SoundDuration":338983,"Delta":140251957},{"NoteNumber":72,"Velocity":32,"Duration":676104,"SoundDuration":676104,"Delta":140590940},{"NoteNumber":81,"Velocity":49,"Duration":340909,"SoundDuration":340909,"Delta":140590940},{"NoteNumber":84,"Velocity":49,"Duration":340909,"SoundDuration":340909,"Delta":140590940},{"NoteNumber":69,"Velocity":38,"Duration":676104,"SoundDuration":676104,"Delta":140590940},{"NoteNumber":63,"Velocity":32,"Duration":676104,"SoundDuration":676104,"Delta":140590940},{"NoteNumber":60,"Velocity":32,"Duration":676104,"SoundDuration":676104,"Delta":140590940},{"NoteNumber":53,"Velocity":32,"Duration":676104,"SoundDuration":676104,"Delta":140590940},{"NoteNumber":81,"Velocity":46,"Duration":335195,"SoundDuration":335195,"Delta":140931849},{"NoteNumber":77,"Velocity":46,"Duration":335195,"SoundDuration":335195,"Delta":140931849},{"NoteNumber":75,"Velocity":43,"Duration":333333,"SoundDuration":333333,"Delta":141267044},{"NoteNumber":72,"Velocity":27,"Duration":666667,"SoundDuration":666667,"Delta":141267044},{"NoteNumber":79,"Velocity":43,"Duration":333333,"SoundDuration":333333,"Delta":141267044},{"NoteNumber":67,"Velocity":33,"Duration":666667,"SoundDuration":666667,"Delta":141267044},{"NoteNumber":63,"Velocity":27,"Duration":666667,"SoundDuration":666667,"Delta":141267044},{"NoteNumber":60,"Velocity":27,"Duration":666667,"SoundDuration":666667,"Delta":141267044},{"NoteNumber":55,"Velocity":27,"Duration":666667,"SoundDuration":666667,"Delta":141267044},{"NoteNumber":72,"Velocity":35,"Duration":333333,"SoundDuration":333333,"Delta":141600378},{"NoteNumber":75,"Velocity":41,"Duration":333333,"SoundDuration":333333,"Delta":141600378},{"NoteNumber":63,"Velocity":46,"Duration":2714486,"SoundDuration":2714486,"Delta":141933711},{"NoteNumber":65,"Velocity":39,"Duration":169491,"SoundDuration":169491,"Delta":142284588},{"NoteNumber":67,"Velocity":39,"Duration":169491,"SoundDuration":169491,"Delta":142454080},{"NoteNumber":65,"Velocity":35,"Duration":2024626,"SoundDuration":2024626,"Delta":142623571},{"NoteNumber":69,"Velocity":42,"Duration":1001190,"SoundDuration":1001190,"Delta":142623571},{"NoteNumber":62,"Velocity":45,"Duration":686904,"SoundDuration":686904,"Delta":142623571},{"NoteNumber":60,"Velocity":42,"Duration":670726,"SoundDuration":670726,"Delta":143310476},{"NoteNumber":70,"Velocity":42,"Duration":327868,"SoundDuration":327868,"Delta":143653333},{"NoteNumber":67,"Velocity":35,"Duration":327868,"SoundDuration":327868,"Delta":143653333},{"NoteNumber":72,"Velocity":42,"Duration":340909,"SoundDuration":340909,"Delta":143981202},{"NoteNumber":69,"Velocity":35,"Duration":340909,"SoundDuration":340909,"Delta":143981202},{"NoteNumber":58,"Velocity":42,"Duration":666996,"SoundDuration":666996,"Delta":143981202},{"NoteNumber":70,"Velocity":35,"Duration":326087,"SoundDuration":326087,"Delta":144322111},{"NoteNumber":74,"Velocity":42,"Duration":326087,"SoundDuration":326087,"Delta":144322111},{"NoteNumber":75,"Velocity":39,"Duration":337078,"SoundDuration":337078,"Delta":144648198},{"NoteNumber":65,"Velocity":30,"Duration":664947,"SoundDuration":664947,"Delta":144648198},{"NoteNumber":72,"Velocity":33,"Duration":337078,"SoundDuration":337078,"Delta":144648198},{"NoteNumber":63,"Velocity":36,"Duration":664947,"SoundDuration":664947,"Delta":144648198},{"NoteNumber":60,"Velocity":30,"Duration":664947,"SoundDuration":664947,"Delta":144648198},{"NoteNumber":57,"Velocity":30,"Duration":664947,"SoundDuration":664947,"Delta":144648198},{"NoteNumber":77,"Velocity":41,"Duration":327868,"SoundDuration":327868,"Delta":144985276},{"NoteNumber":74,"Velocity":35,"Duration":327868,"SoundDuration":327868,"Delta":144985276},{"NoteNumber":75,"Velocity":42,"Duration":340909,"SoundDuration":340909,"Delta":145313145},{"NoteNumber":72,"Velocity":30,"Duration":681817,"SoundDuration":681817,"Delta":145313145},{"NoteNumber":79,"Velocity":42,"Duration":340909,"SoundDuration":340909,"Delta":145313145},{"NoteNumber":67,"Velocity":36,"Duration":681817,"SoundDuration":681817,"Delta":145313145},{"NoteNumber":63,"Velocity":30,"Duration":681817,"SoundDuration":681817,"Delta":145313145},{"NoteNumber":60,"Velocity":30,"Duration":681817,"SoundDuration":681817,"Delta":145313145},{"NoteNumber":55,"Velocity":30,"Duration":681817,"SoundDuration":681817,"Delta":145313145},{"NoteNumber":82,"Velocity":47,"Duration":340908,"SoundDuration":340908,"Delta":145654054},{"NoteNumber":79,"Velocity":47,"Duration":340908,"SoundDuration":340908,"Delta":145654054},{"NoteNumber":76,"Velocity":35,"Duration":1364033,"SoundDuration":1364033,"Delta":145994963},{"NoteNumber":72,"Velocity":35,"Duration":1364033,"SoundDuration":1364033,"Delta":145994963},{"NoteNumber":84,"Velocity":52,"Duration":317919,"SoundDuration":317919,"Delta":145994963},{"NoteNumber":69,"Velocity":52,"Duration":317919,"SoundDuration":317919,"Delta":145994963},{"NoteNumber":63,"Velocity":41,"Duration":1364033,"SoundDuration":1364033,"Delta":145994963},{"NoteNumber":60,"Velocity":35,"Duration":1364033,"SoundDuration":1364033,"Delta":145994963},{"NoteNumber":53,"Velocity":35,"Duration":1364033,"SoundDuration":1364033,"Delta":145994963},{"NoteNumber":81,"Velocity":56,"Duration":335195,"SoundDuration":335195,"Delta":146341784},{"NoteNumber":65,"Velocity":54,"Duration":335195,"SoundDuration":335195,"Delta":146341784},{"NoteNumber":82,"Velocity":58,"Duration":335195,"SoundDuration":335195,"Delta":146676980},{"NoteNumber":67,"Velocity":56,"Duration":335195,"SoundDuration":335195,"Delta":146676980},{"NoteNumber":84,"Velocity":60,"Duration":657555,"SoundDuration":657555,"Delta":147012175},{"NoteNumber":69,"Velocity":59,"Duration":346821,"SoundDuration":346821,"Delta":147012175},{"NoteNumber":77,"Velocity":63,"Duration":2645180,"SoundDuration":2645180,"Delta":147358996},{"NoteNumber":74,"Velocity":54,"Duration":2645180,"SoundDuration":2645180,"Delta":147358996},{"NoteNumber":34,"Velocity":54,"Duration":5189605,"SoundDuration":5189605,"Delta":147358996},{"NoteNumber":41,"Velocity":64,"Duration":5189605,"SoundDuration":5189605,"Delta":147358996},{"NoteNumber":81,"Velocity":59,"Duration":327868,"SoundDuration":327868,"Delta":147697979},{"NoteNumber":82,"Velocity":60,"Duration":327869,"SoundDuration":327869,"Delta":148025848},{"NoteNumber":84,"Velocity":60,"Duration":638603,"SoundDuration":638603,"Delta":148353717},{"NoteNumber":53,"Velocity":54,"Duration":254237,"SoundDuration":254237,"Delta":148681586},{"NoteNumber":81,"Velocity":57,"Duration":327868,"SoundDuration":327868,"Delta":149020569},{"NoteNumber":65,"Velocity":46,"Duration":245901,"SoundDuration":245901,"Delta":149020569},{"NoteNumber":82,"Velocity":58,"Duration":327869,"SoundDuration":327869,"Delta":149348438},{"NoteNumber":84,"Velocity":60,"Duration":655738,"SoundDuration":655738,"Delta":149676307},{"NoteNumber":76,"Velocity":46,"Duration":2544425,"SoundDuration":2544425,"Delta":150004176},{"NoteNumber":73,"Velocity":39,"Duration":2544425,"SoundDuration":2544425,"Delta":150004176},{"NoteNumber":65,"Velocity":53,"Duration":245901,"SoundDuration":245901,"Delta":150004176},{"NoteNumber":82,"Velocity":53,"Duration":157068,"SoundDuration":157068,"Delta":150332045},{"NoteNumber":77,"Velocity":51,"Duration":235602,"SoundDuration":235602,"Delta":150332045},{"NoteNumber":81,"Velocity":53,"Duration":157067,"SoundDuration":157067,"Delta":150489113},{"NoteNumber":79,"Velocity":56,"Duration":326087,"SoundDuration":326087,"Delta":150646181},{"NoteNumber":81,"Velocity":54,"Duration":312500,"SoundDuration":312500,"Delta":150972268},{"NoteNumber":82,"Velocity":53,"Duration":300546,"SoundDuration":300546,"Delta":151284768},{"NoteNumber":53,"Velocity":51,"Duration":245901,"SoundDuration":245901,"Delta":151284768},{"NoteNumber":79,"Velocity":51,"Duration":314135,"SoundDuration":314135,"Delta":151612637},{"NoteNumber":65,"Velocity":46,"Duration":235602,"SoundDuration":235602,"Delta":151612637},{"NoteNumber":81,"Velocity":51,"Duration":314136,"SoundDuration":314136,"Delta":151926773},{"NoteNumber":82,"Velocity":51,"Duration":307692,"SoundDuration":307692,"Delta":152240909},{"NoteNumber":77,"Velocity":63,"Duration":2551457,"SoundDuration":2551457,"Delta":152548602},{"NoteNumber":84,"Velocity":60,"Duration":305555,"SoundDuration":305555,"Delta":152548602},{"NoteNumber":74,"Velocity":54,"Duration":2551457,"SoundDuration":2551457,"Delta":152548602},{"NoteNumber":34,"Velocity":54,"Duration":5108755,"SoundDuration":5108755,"Delta":152548602},{"NoteNumber":41,"Velocity":64,"Duration":5108755,"SoundDuration":5108755,"Delta":152548602},{"NoteNumber":81,"Velocity":57,"Duration":320855,"SoundDuration":320855,"Delta":152881935},{"NoteNumber":82,"Velocity":58,"Duration":320855,"SoundDuration":320855,"Delta":153202791},{"NoteNumber":84,"Velocity":60,"Duration":614973,"SoundDuration":614973,"Delta":153523646},{"NoteNumber":53,"Velocity":54,"Duration":240641,"SoundDuration":240641,"Delta":153844502},{"NoteNumber":81,"Velocity":54,"Duration":320855,"SoundDuration":320855,"Delta":154165357},{"NoteNumber":65,"Velocity":47,"Duration":240641,"SoundDuration":240641,"Delta":154165357},{"NoteNumber":82,"Velocity":54,"Duration":304568,"SoundDuration":304568,"Delta":154486213},{"NoteNumber":84,"Velocity":54,"Duration":601831,"SoundDuration":601831,"Delta":154790781},{"NoteNumber":76,"Velocity":46,"Duration":2557297,"SoundDuration":2557297,"Delta":155100060},{"NoteNumber":73,"Velocity":39,"Duration":2557297,"SoundDuration":2557297,"Delta":155100060},{"NoteNumber":65,"Velocity":53,"Duration":239361,"SoundDuration":239361,"Delta":155100060},{"NoteNumber":82,"Velocity":53,"Duration":153846,"SoundDuration":153846,"Delta":155419209},{"NoteNumber":77,"Velocity":47,"Duration":230769,"SoundDuration":230769,"Delta":155419209},{"NoteNumber":81,"Velocity":53,"Duration":153846,"SoundDuration":153846,"Delta":155573055},{"NoteNumber":79,"Velocity":56,"Duration":315789,"SoundDuration":315789,"Delta":155726901},{"NoteNumber":81,"Velocity":54,"Duration":306122,"SoundDuration":306122,"Delta":156042691},{"NoteNumber":82,"Velocity":54,"Duration":244565,"SoundDuration":244565,"Delta":156348813},{"NoteNumber":67,"Velocity":42,"Duration":319149,"SoundDuration":319149,"Delta":156674900},{"NoteNumber":69,"Velocity":38,"Duration":324324,"SoundDuration":324324,"Delta":156994049},{"NoteNumber":70,"Velocity":36,"Duration":338983,"SoundDuration":338983,"Delta":157318374},{"NoteNumber":71,"Velocity":35,"Duration":326087,"SoundDuration":326087,"Delta":157657357},{"NoteNumber":76,"Velocity":38,"Duration":2499613,"SoundDuration":2499613,"Delta":157657357},{"NoteNumber":73,"Velocity":32,"Duration":2499613,"SoundDuration":2499613,"Delta":157657357},{"NoteNumber":33,"Velocity":33,"Duration":2499613,"SoundDuration":2499613,"Delta":157657357},{"NoteNumber":40,"Velocity":39,"Duration":2499613,"SoundDuration":2499613,"Delta":157657357},{"NoteNumber":68,"Velocity":35,"Duration":309278,"SoundDuration":309278,"Delta":157983444},{"NoteNumber":69,"Velocity":35,"Duration":312500,"SoundDuration":312500,"Delta":158292722},{"NoteNumber":71,"Velocity":36,"Duration":605053,"SoundDuration":605053,"Delta":158605222},{"NoteNumber":52,"Velocity":33,"Duration":239361,"SoundDuration":239361,"Delta":158917722},{"NoteNumber":68,"Velocity":35,"Duration":312500,"SoundDuration":312500,"Delta":159236871},{"NoteNumber":64,"Velocity":27,"Duration":234375,"SoundDuration":234375,"Delta":159236871},{"NoteNumber":69,"Velocity":35,"Duration":304568,"SoundDuration":304568,"Delta":159549371},{"NoteNumber":71,"Velocity":36,"Duration":612309,"SoundDuration":612309,"Delta":159853940},{"NoteNumber":75,"Velocity":30,"Duration":2435373,"SoundDuration":2435373,"Delta":160156970},{"NoteNumber":72,"Velocity":25,"Duration":2435373,"SoundDuration":2435373,"Delta":160156970},{"NoteNumber":90,"Velocity":44,"Duration":231958,"SoundDuration":231958,"Delta":160156970},{"NoteNumber":69,"Velocity":35,"Duration":150753,"SoundDuration":150753,"Delta":160466249},{"NoteNumber":68,"Velocity":35,"Duration":150753,"SoundDuration":150753,"Delta":160617002},{"NoteNumber":66,"Velocity":35,"Duration":309278,"SoundDuration":309278,"Delta":160767756},{"NoteNumber":87,"Velocity":44,"Duration":231958,"SoundDuration":231958,"Delta":160767756},{"NoteNumber":68,"Velocity":36,"Duration":301507,"SoundDuration":301507,"Delta":161077035},{"NoteNumber":69,"Velocity":37,"Duration":283505,"SoundDuration":283505,"Delta":161378542},{"NoteNumber":84,"Velocity":43,"Duration":231958,"SoundDuration":231958,"Delta":161378542},{"NoteNumber":66,"Velocity":36,"Duration":301507,"SoundDuration":301507,"Delta":161687821},{"NoteNumber":68,"Velocity":36,"Duration":301507,"SoundDuration":301507,"Delta":161989328},{"NoteNumber":81,"Velocity":39,"Duration":226130,"SoundDuration":226130,"Delta":161989328},{"NoteNumber":69,"Velocity":37,"Duration":301507,"SoundDuration":301507,"Delta":162290836},{"NoteNumber":71,"Velocity":35,"Duration":319149,"SoundDuration":319149,"Delta":162592343},{"NoteNumber":76,"Velocity":38,"Duration":2479684,"SoundDuration":2479684,"Delta":162592343},{"NoteNumber":73,"Velocity":38,"Duration":2479684,"SoundDuration":2479684,"Delta":162592343},{"NoteNumber":33,"Velocity":39,"Duration":2479684,"SoundDuration":2479684,"Delta":162592343},{"NoteNumber":40,"Velocity":39,"Duration":2479684,"SoundDuration":2479684,"Delta":162592343},{"NoteNumber":68,"Velocity":35,"Duration":307692,"SoundDuration":307692,"Delta":162911492},{"NoteNumber":69,"Velocity":35,"Duration":310880,"SoundDuration":310880,"Delta":163219185},{"NoteNumber":71,"Velocity":36,"Duration":600354,"SoundDuration":600354,"Delta":163530066},{"NoteNumber":52,"Velocity":33,"Duration":236842,"SoundDuration":236842,"Delta":163840947},{"NoteNumber":68,"Velocity":35,"Duration":307692,"SoundDuration":307692,"Delta":164156736},{"NoteNumber":64,"Velocity":27,"Duration":230769,"SoundDuration":230769,"Delta":164156736},{"NoteNumber":69,"Velocity":35,"Duration":304568,"SoundDuration":304568,"Delta":164464429},{"NoteNumber":71,"Velocity":36,"Duration":619963,"SoundDuration":619963,"Delta":164768997},{"NoteNumber":72,"Velocity":30,"Duration":2500497,"SoundDuration":2500497,"Delta":165072028},{"NoteNumber":75,"Velocity":30,"Duration":2500497,"SoundDuration":2500497,"Delta":165072028},{"NoteNumber":66,"Velocity":37,"Duration":316932,"SoundDuration":316932,"Delta":165072028},{"NoteNumber":69,"Velocity":35,"Duration":154830,"SoundDuration":154830,"Delta":165388960},{"NoteNumber":68,"Velocity":35,"Duration":154830,"SoundDuration":154830,"Delta":165543791},{"NoteNumber":66,"Velocity":35,"Duration":317628,"SoundDuration":317628,"Delta":165698622},{"NoteNumber":63,"Velocity":37,"Duration":317628,"SoundDuration":317628,"Delta":165698622},{"NoteNumber":68,"Velocity":36,"Duration":309661,"SoundDuration":309661,"Delta":166016250},{"NoteNumber":69,"Velocity":37,"Duration":291159,"SoundDuration":291159,"Delta":166325912},{"NoteNumber":60,"Velocity":37,"Duration":317628,"SoundDuration":317628,"Delta":166325912},{"NoteNumber":66,"Velocity":36,"Duration":309661,"SoundDuration":309661,"Delta":166643540},{"NoteNumber":68,"Velocity":36,"Duration":309661,"SoundDuration":309661,"Delta":166953202},{"NoteNumber":57,"Velocity":35,"Duration":309661,"SoundDuration":309661,"Delta":166953202},{"NoteNumber":69,"Velocity":37,"Duration":309661,"SoundDuration":309661,"Delta":167262863},{"NoteNumber":82,"Velocity":41,"Duration":303064,"SoundDuration":303064,"Delta":167572525},{"NoteNumber":74,"Velocity":30,"Duration":610757,"SoundDuration":610757,"Delta":167572525},{"NoteNumber":76,"Velocity":30,"Duration":610757,"SoundDuration":610757,"Delta":167572525},{"NoteNumber":70,"Velocity":35,"Duration":303064,"SoundDuration":303064,"Delta":167572525},{"NoteNumber":31,"Velocity":26,"Duration":610757,"SoundDuration":610757,"Delta":167572525},{"NoteNumber":43,"Velocity":31,"Duration":610757,"SoundDuration":610757,"Delta":167572525},{"NoteNumber":67,"Velocity":31,"Duration":307692,"SoundDuration":307692,"Delta":167875589},{"NoteNumber":79,"Velocity":37,"Duration":307692,"SoundDuration":307692,"Delta":167875589},{"NoteNumber":72,"Velocity":25,"Duration":592624,"SoundDuration":592624,"Delta":168183282},{"NoteNumber":81,"Velocity":37,"Duration":294117,"SoundDuration":294117,"Delta":168183282},{"NoteNumber":69,"Velocity":31,"Duration":294117,"SoundDuration":294117,"Delta":168183282},{"NoteNumber":76,"Velocity":30,"Duration":592624,"SoundDuration":592624,"Delta":168183282},{"NoteNumber":36,"Velocity":26,"Duration":592624,"SoundDuration":592624,"Delta":168183282},{"NoteNumber":48,"Velocity":31,"Duration":592624,"SoundDuration":592624,"Delta":168183282},{"NoteNumber":82,"Velocity":42,"Duration":597014,"SoundDuration":597014,"Delta":168477399},{"NoteNumber":70,"Velocity":35,"Duration":597014,"SoundDuration":597014,"Delta":168477399},{"NoteNumber":76,"Velocity":38,"Duration":603075,"SoundDuration":603075,"Delta":168775907},{"NoteNumber":74,"Velocity":32,"Duration":603075,"SoundDuration":603075,"Delta":168775907},{"NoteNumber":43,"Velocity":31,"Duration":603075,"SoundDuration":603075,"Delta":168775907},{"NoteNumber":55,"Velocity":37,"Duration":603075,"SoundDuration":603075,"Delta":168775907},{"NoteNumber":79,"Velocity":39,"Duration":304568,"SoundDuration":304568,"Delta":169074414},{"NoteNumber":67,"Velocity":33,"Duration":304568,"SoundDuration":304568,"Delta":169074414},{"NoteNumber":81,"Velocity":39,"Duration":298507,"SoundDuration":298507,"Delta":169378983},{"NoteNumber":72,"Velocity":27,"Duration":615818,"SoundDuration":615818,"Delta":169378983},{"NoteNumber":76,"Velocity":32,"Duration":615818,"SoundDuration":615818,"Delta":169378983},{"NoteNumber":69,"Velocity":33,"Duration":298507,"SoundDuration":298507,"Delta":169378983},{"NoteNumber":48,"Velocity":27,"Duration":615818,"SoundDuration":615818,"Delta":169378983},{"NoteNumber":60,"Velocity":33,"Duration":615818,"SoundDuration":615818,"Delta":169378983},{"NoteNumber":82,"Velocity":39,"Duration":317310,"SoundDuration":317310,"Delta":169677490},{"NoteNumber":70,"Velocity":33,"Duration":317310,"SoundDuration":317310,"Delta":169677490},{"NoteNumber":70,"Velocity":35,"Duration":2081246,"SoundDuration":2081246,"Delta":169994801},{"NoteNumber":74,"Velocity":45,"Duration":287656,"SoundDuration":287656,"Delta":169994801},{"NoteNumber":82,"Velocity":42,"Duration":2380147,"SoundDuration":2380147,"Delta":169994801},{"NoteNumber":62,"Velocity":45,"Duration":287656,"SoundDuration":287656,"Delta":169994801},{"NoteNumber":58,"Velocity":35,"Duration":2081246,"SoundDuration":2081246,"Delta":169994801},{"NoteNumber":55,"Velocity":35,"Duration":2380147,"SoundDuration":2380147,"Delta":169994801},{"NoteNumber":77,"Velocity":47,"Duration":594177,"SoundDuration":594177,"Delta":170308608},{"NoteNumber":65,"Velocity":47,"Duration":594177,"SoundDuration":594177,"Delta":170308608},{"NoteNumber":76,"Velocity":46,"Duration":143211,"SoundDuration":143211,"Delta":170902785},{"NoteNumber":64,"Velocity":45,"Duration":143211,"SoundDuration":143211,"Delta":170902785},{"NoteNumber":77,"Velocity":46,"Duration":143211,"SoundDuration":143211,"Delta":171045997},{"NoteNumber":65,"Velocity":45,"Duration":143211,"SoundDuration":143211,"Delta":171045997},{"NoteNumber":74,"Velocity":52,"Duration":298715,"SoundDuration":298715,"Delta":171189209},{"NoteNumber":62,"Velocity":49,"Duration":298715,"SoundDuration":298715,"Delta":171189209},{"NoteNumber":72,"Velocity":48,"Duration":144703,"SoundDuration":144703,"Delta":171487924},{"NoteNumber":60,"Velocity":46,"Duration":144703,"SoundDuration":144703,"Delta":171487924},{"NoteNumber":74,"Velocity":48,"Duration":144703,"SoundDuration":144703,"Delta":171632628},{"NoteNumber":62,"Velocity":46,"Duration":144703,"SoundDuration":144703,"Delta":171632628},{"NoteNumber":70,"Velocity":54,"Duration":597616,"SoundDuration":597616,"Delta":171777332},{"NoteNumber":58,"Velocity":52,"Duration":597616,"SoundDuration":597616,"Delta":171777332},{"NoteNumber":74,"Velocity":52,"Duration":298900,"SoundDuration":298900,"Delta":172076047},{"NoteNumber":62,"Velocity":49,"Duration":298900,"SoundDuration":298900,"Delta":172076047},{"NoteNumber":70,"Velocity":40,"Duration":296413,"SoundDuration":296413,"Delta":172374948},{"NoteNumber":74,"Velocity":36,"Duration":600457,"SoundDuration":600457,"Delta":172374948},{"NoteNumber":76,"Velocity":36,"Duration":600457,"SoundDuration":600457,"Delta":172374948},{"NoteNumber":82,"Velocity":48,"Duration":296413,"SoundDuration":296413,"Delta":172374948},{"NoteNumber":31,"Velocity":31,"Duration":600457,"SoundDuration":600457,"Delta":172374948},{"NoteNumber":43,"Velocity":37,"Duration":600457,"SoundDuration":600457,"Delta":172374948},{"NoteNumber":79,"Velocity":45,"Duration":304044,"SoundDuration":304044,"Delta":172671361},{"NoteNumber":67,"Velocity":37,"Duration":304044,"SoundDuration":304044,"Delta":172671361},{"NoteNumber":76,"Velocity":36,"Duration":585379,"SoundDuration":585379,"Delta":172975405},{"NoteNumber":72,"Velocity":30,"Duration":585379,"SoundDuration":585379,"Delta":172975405},{"NoteNumber":81,"Velocity":45,"Duration":291261,"SoundDuration":291261,"Delta":172975405},{"NoteNumber":69,"Velocity":37,"Duration":291261,"SoundDuration":291261,"Delta":172975405},{"NoteNumber":36,"Velocity":31,"Duration":585379,"SoundDuration":585379,"Delta":172975405},{"NoteNumber":48,"Velocity":37,"Duration":585379,"SoundDuration":585379,"Delta":172975405},{"NoteNumber":82,"Velocity":49,"Duration":588234,"SoundDuration":588234,"Delta":173266667},{"NoteNumber":70,"Velocity":41,"Duration":588234,"SoundDuration":588234,"Delta":173266667},{"NoteNumber":76,"Velocity":48,"Duration":595050,"SoundDuration":595050,"Delta":173560785},{"NoteNumber":74,"Velocity":40,"Duration":595050,"SoundDuration":595050,"Delta":173560785},{"NoteNumber":43,"Velocity":36,"Duration":595050,"SoundDuration":595050,"Delta":173560785},{"NoteNumber":55,"Velocity":44,"Duration":595050,"SoundDuration":595050,"Delta":173560785},{"NoteNumber":79,"Velocity":46,"Duration":300932,"SoundDuration":300932,"Delta":173854902},{"NoteNumber":67,"Velocity":39,"Duration":300932,"SoundDuration":300932,"Delta":173854902},{"NoteNumber":76,"Velocity":38,"Duration":607811,"SoundDuration":607811,"Delta":174155835},{"NoteNumber":72,"Velocity":32,"Duration":607811,"SoundDuration":607811,"Delta":174155835},{"NoteNumber":81,"Velocity":46,"Duration":294956,"SoundDuration":294956,"Delta":174155835},{"NoteNumber":69,"Velocity":39,"Duration":294956,"SoundDuration":294956,"Delta":174155835},{"NoteNumber":48,"Velocity":33,"Duration":607811,"SoundDuration":607811,"Delta":174155835},{"NoteNumber":60,"Velocity":39,"Duration":607811,"SoundDuration":607811,"Delta":174155835},{"NoteNumber":82,"Velocity":46,"Duration":312855,"SoundDuration":312855,"Delta":174450791},{"NoteNumber":70,"Velocity":39,"Duration":312855,"SoundDuration":312855,"Delta":174450791},{"NoteNumber":70,"Velocity":41,"Duration":2033063,"SoundDuration":2033063,"Delta":174763647},{"NoteNumber":74,"Velocity":54,"Duration":281427,"SoundDuration":281427,"Delta":174763647},{"NoteNumber":82,"Velocity":49,"Duration":2342341,"SoundDuration":2342341,"Delta":174763647},{"NoteNumber":62,"Velocity":54,"Duration":281427,"SoundDuration":281427,"Delta":174763647},{"NoteNumber":58,"Velocity":41,"Duration":2033063,"SoundDuration":2033063,"Delta":174763647},{"NoteNumber":55,"Velocity":41,"Duration":2342341,"SoundDuration":2342341,"Delta":174763647},{"NoteNumber":77,"Velocity":58,"Duration":580271,"SoundDuration":580271,"Delta":175070613},{"NoteNumber":65,"Velocity":58,"Duration":580271,"SoundDuration":580271,"Delta":175070613},{"NoteNumber":76,"Velocity":57,"Duration":139860,"SoundDuration":139860,"Delta":175650884},{"NoteNumber":64,"Velocity":54,"Duration":139860,"SoundDuration":139860,"Delta":175650884},{"NoteNumber":77,"Velocity":57,"Duration":139860,"SoundDuration":139860,"Delta":175790744},{"NoteNumber":65,"Velocity":54,"Duration":139860,"SoundDuration":139860,"Delta":175790744},{"NoteNumber":74,"Velocity":63,"Duration":291743,"SoundDuration":291743,"Delta":175930605},{"NoteNumber":62,"Velocity":60,"Duration":291743,"SoundDuration":291743,"Delta":175930605},{"NoteNumber":72,"Velocity":59,"Duration":141309,"SoundDuration":141309,"Delta":176222348},{"NoteNumber":60,"Velocity":57,"Duration":141309,"SoundDuration":141309,"Delta":176222348},{"NoteNumber":74,"Velocity":59,"Duration":141309,"SoundDuration":141309,"Delta":176363658},{"NoteNumber":62,"Velocity":57,"Duration":141309,"SoundDuration":141309,"Delta":176363658},{"NoteNumber":70,"Velocity":64,"Duration":601022,"SoundDuration":601022,"Delta":176504967},{"NoteNumber":58,"Velocity":63,"Duration":601022,"SoundDuration":601022,"Delta":176504967},{"NoteNumber":74,"Velocity":63,"Duration":283505,"SoundDuration":283505,"Delta":176796711},{"NoteNumber":62,"Velocity":60,"Duration":283505,"SoundDuration":283505,"Delta":176796711},{"NoteNumber":70,"Velocity":45,"Duration":2337132,"SoundDuration":2337132,"Delta":177105989},{"NoteNumber":77,"Velocity":58,"Duration":280927,"SoundDuration":280927,"Delta":177105989},{"NoteNumber":74,"Velocity":53,"Duration":2032564,"SoundDuration":2032564,"Delta":177105989},{"NoteNumber":65,"Velocity":58,"Duration":280927,"SoundDuration":280927,"Delta":177105989},{"NoteNumber":58,"Velocity":45,"Duration":2337132,"SoundDuration":2337132,"Delta":177105989},{"NoteNumber":62,"Velocity":53,"Duration":2032564,"SoundDuration":2032564,"Delta":177105989},{"NoteNumber":81,"Velocity":62,"Duration":580271,"SoundDuration":580271,"Delta":177412456},{"NoteNumber":69,"Velocity":62,"Duration":580271,"SoundDuration":580271,"Delta":177412456},{"NoteNumber":79,"Velocity":60,"Duration":139860,"SoundDuration":139860,"Delta":177992727},{"NoteNumber":67,"Velocity":58,"Duration":139860,"SoundDuration":139860,"Delta":177992727},{"NoteNumber":81,"Velocity":60,"Duration":139860,"SoundDuration":139860,"Delta":178132587},{"NoteNumber":69,"Velocity":58,"Duration":139860,"SoundDuration":139860,"Delta":178132587},{"NoteNumber":77,"Velocity":67,"Duration":291743,"SoundDuration":291743,"Delta":178272447},{"NoteNumber":65,"Velocity":63,"Duration":291743,"SoundDuration":291743,"Delta":178272447},{"NoteNumber":76,"Velocity":63,"Duration":141309,"SoundDuration":141309,"Delta":178564191},{"NoteNumber":64,"Velocity":60,"Duration":141309,"SoundDuration":141309,"Delta":178564191},{"NoteNumber":77,"Velocity":63,"Duration":141309,"SoundDuration":141309,"Delta":178705500},{"NoteNumber":65,"Velocity":60,"Duration":141309,"SoundDuration":141309,"Delta":178705500},{"NoteNumber":74,"Velocity":69,"Duration":596311,"SoundDuration":596311,"Delta":178846810},{"NoteNumber":62,"Velocity":67,"Duration":596311,"SoundDuration":596311,"Delta":178846810},{"NoteNumber":77,"Velocity":67,"Duration":304568,"SoundDuration":304568,"Delta":179138553},{"NoteNumber":65,"Velocity":63,"Duration":304568,"SoundDuration":304568,"Delta":179138553},{"NoteNumber":84,"Velocity":54,"Duration":80783,"SoundDuration":80783,"Delta":179443122},{"NoteNumber":60,"Velocity":55,"Duration":601488,"SoundDuration":601488,"Delta":179443122},{"NoteNumber":62,"Velocity":55,"Duration":601488,"SoundDuration":601488,"Delta":179443122},{"NoteNumber":67,"Velocity":55,"Duration":601488,"SoundDuration":601488,"Delta":179443122},{"NoteNumber":65,"Velocity":55,"Duration":601488,"SoundDuration":601488,"Delta":179443122},{"NoteNumber":70,"Velocity":66,"Duration":601488,"SoundDuration":601488,"Delta":179443122},{"NoteNumber":86,"Velocity":48,"Duration":79951,"SoundDuration":79951,"Delta":179518880},{"NoteNumber":84,"Velocity":54,"Duration":78939,"SoundDuration":78939,"Delta":179593882},{"NoteNumber":86,"Velocity":49,"Duration":81095,"SoundDuration":81095,"Delta":179667895},{"NoteNumber":84,"Velocity":54,"Duration":82901,"SoundDuration":82901,"Delta":179743809},{"NoteNumber":86,"Velocity":49,"Duration":80608,"SoundDuration":80608,"Delta":179821529},{"NoteNumber":84,"Velocity":54,"Duration":78794,"SoundDuration":78794,"Delta":179897187},{"NoteNumber":86,"Velocity":49,"Duration":78504,"SoundDuration":78504,"Delta":179971080},{"NoteNumber":84,"Velocity":54,"Duration":75508,"SoundDuration":75508,"Delta":180044610},{"NoteNumber":55,"Velocity":62,"Duration":604317,"SoundDuration":604317,"Delta":180044610},{"NoteNumber":86,"Velocity":52,"Duration":81920,"SoundDuration":81920,"Delta":180120119},{"NoteNumber":84,"Velocity":47,"Duration":82051,"SoundDuration":82051,"Delta":180196911},{"NoteNumber":86,"Velocity":52,"Duration":80972,"SoundDuration":80972,"Delta":180273834},{"NoteNumber":84,"Velocity":48,"Duration":79207,"SoundDuration":79207,"Delta":180349856},{"NoteNumber":86,"Velocity":53,"Duration":79207,"SoundDuration":79207,"Delta":180424113},{"NoteNumber":84,"Velocity":49,"Duration":79207,"SoundDuration":79207,"Delta":180498370},{"NoteNumber":86,"Velocity":51,"Duration":81507,"SoundDuration":81507,"Delta":180572628},{"NoteNumber":84,"Velocity":54,"Duration":78261,"SoundDuration":78261,"Delta":180648927},{"NoteNumber":60,"Velocity":80,"Duration":620930,"SoundDuration":620930,"Delta":180648927},{"NoteNumber":86,"Velocity":51,"Duration":77992,"SoundDuration":77992,"Delta":180727188},{"NoteNumber":84,"Velocity":56,"Duration":76661,"SoundDuration":76661,"Delta":180805181},{"NoteNumber":86,"Velocity":53,"Duration":77057,"SoundDuration":77057,"Delta":180881842},{"NoteNumber":84,"Velocity":58,"Duration":78397,"SoundDuration":78397,"Delta":180958900},{"NoteNumber":86,"Velocity":56,"Duration":78947,"SoundDuration":78947,"Delta":181037298},{"NoteNumber":84,"Velocity":64,"Duration":77469,"SoundDuration":77469,"Delta":181116245},{"NoteNumber":86,"Velocity":60,"Duration":76142,"SoundDuration":76142,"Delta":181193715},{"NoteNumber":84,"Velocity":68,"Duration":76142,"SoundDuration":76142,"Delta":181269857},{"NoteNumber":48,"Velocity":77,"Duration":686233,"SoundDuration":686233,"Delta":181269857},{"NoteNumber":86,"Velocity":65,"Duration":77453,"SoundDuration":77453,"Delta":181345999},{"NoteNumber":84,"Velocity":77,"Duration":76792,"SoundDuration":76792,"Delta":181423453},{"NoteNumber":86,"Velocity":71,"Duration":78871,"SoundDuration":78871,"Delta":181500245},{"NoteNumber":84,"Velocity":86,"Duration":89615,"SoundDuration":89615,"Delta":181579116},{"NoteNumber":86,"Velocity":90,"Duration":92560,"SoundDuration":92560,"Delta":181668731},{"NoteNumber":88,"Velocity":96,"Duration":95710,"SoundDuration":95710,"Delta":181761292},{"NoteNumber":89,"Velocity":100,"Duration":99087,"SoundDuration":99087,"Delta":181857003},{"NoteNumber":91,"Velocity":108,"Duration":655738,"SoundDuration":655738,"Delta":181956091},{"NoteNumber":29,"Velocity":97,"Duration":327869,"SoundDuration":327869,"Delta":181957457},{"NoteNumber":41,"Velocity":78,"Duration":327869,"SoundDuration":327869,"Delta":182283960},{"NoteNumber":48,"Velocity":81,"Duration":284974,"SoundDuration":284974,"Delta":182611829},{"NoteNumber":48,"Velocity":81,"Duration":2659960,"SoundDuration":2659960,"Delta":182922710},{"NoteNumber":67,"Velocity":70,"Duration":2277795,"SoundDuration":2277795,"Delta":183304876},{"NoteNumber":70,"Velocity":70,"Duration":2277795,"SoundDuration":2277795,"Delta":183304876},{"NoteNumber":74,"Velocity":70,"Duration":2277795,"SoundDuration":2277795,"Delta":183304876},{"NoteNumber":79,"Velocity":83,"Duration":1829837,"SoundDuration":1829837,"Delta":183304876},{"NoteNumber":62,"Velocity":75,"Duration":2277795,"SoundDuration":2277795,"Delta":183304876},{"NoteNumber":58,"Velocity":62,"Duration":2277795,"SoundDuration":2277795,"Delta":183304876},{"NoteNumber":55,"Velocity":62,"Duration":2277795,"SoundDuration":2277795,"Delta":183304876},{"NoteNumber":81,"Velocity":53,"Duration":151515,"SoundDuration":151515,"Delta":185134713},{"NoteNumber":82,"Velocity":53,"Duration":151515,"SoundDuration":151515,"Delta":185286228},{"NoteNumber":81,"Velocity":53,"Duration":144927,"SoundDuration":144927,"Delta":185437743},{"NoteNumber":79,"Velocity":56,"Duration":139534,"SoundDuration":139534,"Delta":185582671},{"NoteNumber":81,"Velocity":54,"Duration":135135,"SoundDuration":135135,"Delta":185722206},{"NoteNumber":79,"Velocity":54,"Duration":135135,"SoundDuration":135135,"Delta":185857341},{"NoteNumber":77,"Velocity":54,"Duration":135135,"SoundDuration":135135,"Delta":185992476},{"NoteNumber":74,"Velocity":57,"Duration":137614,"SoundDuration":137614,"Delta":186127612},{"NoteNumber":77,"Velocity":54,"Duration":134529,"SoundDuration":134529,"Delta":186265226},{"NoteNumber":74,"Velocity":54,"Duration":134529,"SoundDuration":134529,"Delta":186399756},{"NoteNumber":72,"Velocity":54,"Duration":134529,"SoundDuration":134529,"Delta":186534285},{"NoteNumber":70,"Velocity":58,"Duration":137614,"SoundDuration":137614,"Delta":186668814},{"NoteNumber":67,"Velocity":54,"Duration":134529,"SoundDuration":134529,"Delta":186806429},{"NoteNumber":62,"Velocity":53,"Duration":134529,"SoundDuration":134529,"Delta":186940958},{"NoteNumber":64,"Velocity":53,"Duration":134529,"SoundDuration":134529,"Delta":187075487},{"NoteNumber":61,"Velocity":42,"Duration":1144340,"SoundDuration":1144340,"Delta":187210017},{"NoteNumber":67,"Velocity":52,"Duration":141509,"SoundDuration":141509,"Delta":187210017},{"NoteNumber":41,"Velocity":37,"Duration":1144340,"SoundDuration":1144340,"Delta":187210017},{"NoteNumber":49,"Velocity":39,"Duration":1144340,"SoundDuration":1144340,"Delta":187210017},{"NoteNumber":57,"Velocity":42,"Duration":1144340,"SoundDuration":1144340,"Delta":187210017},{"NoteNumber":65,"Velocity":48,"Duration":143540,"SoundDuration":143540,"Delta":187351526},{"NoteNumber":67,"Velocity":48,"Duration":142179,"SoundDuration":142179,"Delta":187495067},{"NoteNumber":69,"Velocity":47,"Duration":140186,"SoundDuration":140186,"Delta":187637247},{"NoteNumber":67,"Velocity":47,"Duration":721153,"SoundDuration":721153,"Delta":187777434},{"NoteNumber":62,"Velocity":44,"Duration":1135587,"SoundDuration":1135587,"Delta":188354357},{"NoteNumber":53,"Velocity":45,"Duration":1135587,"SoundDuration":1135587,"Delta":188354357},{"NoteNumber":46,"Velocity":40,"Duration":1135587,"SoundDuration":1135587,"Delta":188354357},{"NoteNumber":65,"Velocity":48,"Duration":142179,"SoundDuration":142179,"Delta":188498588},{"NoteNumber":67,"Velocity":49,"Duration":143540,"SoundDuration":143540,"Delta":188640768},{"NoteNumber":69,"Velocity":52,"Duration":140186,"SoundDuration":140186,"Delta":188784308},{"NoteNumber":72,"Velocity":53,"Duration":143540,"SoundDuration":143540,"Delta":188924495},{"NoteNumber":69,"Velocity":53,"Duration":141509,"SoundDuration":141509,"Delta":189068036},{"NoteNumber":67,"Velocity":53,"Duration":141509,"SoundDuration":141509,"Delta":189209546},{"NoteNumber":65,"Velocity":53,"Duration":138889,"SoundDuration":138889,"Delta":189351055},{"NoteNumber":67,"Velocity":54,"Duration":146341,"SoundDuration":146341,"Delta":189489944},{"NoteNumber":63,"Velocity":43,"Duration":1178113,"SoundDuration":1178113,"Delta":189489944},{"NoteNumber":57,"Velocity":45,"Duration":2362214,"SoundDuration":2362214,"Delta":189489944},{"NoteNumber":48,"Velocity":40,"Duration":1178113,"SoundDuration":1178113,"Delta":189489944},{"NoteNumber":65,"Velocity":49,"Duration":148514,"SoundDuration":148514,"Delta":189636286},{"NoteNumber":67,"Velocity":51,"Duration":146341,"SoundDuration":146341,"Delta":189784800},{"NoteNumber":69,"Velocity":49,"Duration":142857,"SoundDuration":142857,"Delta":189931142},{"NoteNumber":67,"Velocity":48,"Duration":742573,"SoundDuration":742573,"Delta":190073999},{"NoteNumber":62,"Velocity":45,"Duration":1184100,"SoundDuration":1184100,"Delta":190668058},{"NoteNumber":50,"Velocity":40,"Duration":1184100,"SoundDuration":1184100,"Delta":190668058},{"NoteNumber":65,"Velocity":49,"Duration":146341,"SoundDuration":146341,"Delta":190816573},{"NoteNumber":67,"Velocity":51,"Duration":146341,"SoundDuration":146341,"Delta":190962914},{"NoteNumber":69,"Velocity":52,"Duration":142857,"SoundDuration":142857,"Delta":191109256},{"NoteNumber":74,"Velocity":56,"Duration":152284,"SoundDuration":152284,"Delta":191252113},{"NoteNumber":69,"Velocity":54,"Duration":149253,"SoundDuration":149253,"Delta":191404397},{"NoteNumber":67,"Velocity":54,"Duration":149253,"SoundDuration":149253,"Delta":191553651},{"NoteNumber":65,"Velocity":54,"Duration":298929,"SoundDuration":298929,"Delta":191702905},{"NoteNumber":62,"Velocity":49,"Duration":622700,"SoundDuration":622700,"Delta":191852159},{"NoteNumber":46,"Velocity":41,"Duration":622700,"SoundDuration":622700,"Delta":191852159},{"NoteNumber":53,"Velocity":41,"Duration":622700,"SoundDuration":622700,"Delta":191852159},{"NoteNumber":58,"Velocity":49,"Duration":622700,"SoundDuration":622700,"Delta":191852159},{"NoteNumber":70,"Velocity":52,"Duration":156006,"SoundDuration":156006,"Delta":192001834},{"NoteNumber":74,"Velocity":54,"Duration":151729,"SoundDuration":151729,"Delta":192157841},{"NoteNumber":77,"Velocity":57,"Duration":165289,"SoundDuration":165289,"Delta":192309570},{"NoteNumber":74,"Velocity":40,"Duration":630446,"SoundDuration":630446,"Delta":192474860},{"NoteNumber":81,"Velocity":60,"Duration":956533,"SoundDuration":956533,"Delta":192474860},{"NoteNumber":58,"Velocity":39,"Duration":1900682,"SoundDuration":1900682,"Delta":192474860},{"NoteNumber":65,"Velocity":47,"Duration":630446,"SoundDuration":630446,"Delta":192474860},{"NoteNumber":72,"Velocity":44,"Duration":2259077,"SoundDuration":2259077,"Delta":193105307},{"NoteNumber":64,"Velocity":47,"Duration":645236,"SoundDuration":645236,"Delta":193105307},{"NoteNumber":79,"Velocity":54,"Duration":319149,"SoundDuration":319149,"Delta":193431394},{"NoteNumber":77,"Velocity":52,"Duration":312500,"SoundDuration":312500,"Delta":193750543},{"NoteNumber":62,"Velocity":51,"Duration":312500,"SoundDuration":312500,"Delta":193750543},{"NoteNumber":79,"Velocity":54,"Duration":480532,"SoundDuration":480532,"Delta":194063043},{"NoteNumber":64,"Velocity":53,"Duration":480532,"SoundDuration":480532,"Delta":194063043},{"NoteNumber":57,"Velocity":53,"Duration":1308862,"SoundDuration":1308862,"Delta":194375543},{"NoteNumber":77,"Velocity":49,"Duration":162162,"SoundDuration":162162,"Delta":194543575},{"NoteNumber":65,"Velocity":53,"Duration":162162,"SoundDuration":162162,"Delta":194543575},{"NoteNumber":76,"Velocity":51,"Duration":157894,"SoundDuration":157894,"Delta":194705738},{"NoteNumber":67,"Velocity":53,"Duration":157894,"SoundDuration":157894,"Delta":194705738},{"NoteNumber":79,"Velocity":51,"Duration":157894,"SoundDuration":157894,"Delta":194863632},{"NoteNumber":69,"Velocity":53,"Duration":157894,"SoundDuration":157894,"Delta":194863632},{"NoteNumber":77,"Velocity":54,"Duration":996211,"SoundDuration":996211,"Delta":195021527},{"NoteNumber":62,"Velocity":54,"Duration":996211,"SoundDuration":996211,"Delta":195021527},{"NoteNumber":70,"Velocity":49,"Duration":161290,"SoundDuration":161290,"Delta":195364384},{"NoteNumber":69,"Velocity":49,"Duration":158730,"SoundDuration":158730,"Delta":195525674},{"NoteNumber":70,"Velocity":51,"Duration":1396456,"SoundDuration":1396456,"Delta":195684405},{"NoteNumber":55,"Velocity":46,"Duration":682170,"SoundDuration":682170,"Delta":195684405},{"NoteNumber":76,"Velocity":46,"Duration":348837,"SoundDuration":348837,"Delta":196017738},{"NoteNumber":64,"Velocity":45,"Duration":348837,"SoundDuration":348837,"Delta":196017738},{"NoteNumber":74,"Velocity":45,"Duration":357143,"SoundDuration":357143,"Delta":196366575},{"NoteNumber":65,"Velocity":45,"Duration":357143,"SoundDuration":357143,"Delta":196366575},{"NoteNumber":48,"Velocity":41,"Duration":714285,"SoundDuration":714285,"Delta":196366575},{"NoteNumber":72,"Velocity":43,"Duration":357142,"SoundDuration":357142,"Delta":196723718},{"NoteNumber":64,"Velocity":43,"Duration":357142,"SoundDuration":357142,"Delta":196723718},{"NoteNumber":29,"Velocity":89,"Duration":338983,"SoundDuration":338983,"Delta":197082274},{"NoteNumber":41,"Velocity":77,"Duration":338982,"SoundDuration":338982,"Delta":197419844},{"NoteNumber":48,"Velocity":81,"Duration":284974,"SoundDuration":284974,"Delta":197758827},{"NoteNumber":48,"Velocity":81,"Duration":2659960,"SoundDuration":2659960,"Delta":198069708},{"NoteNumber":79,"Velocity":83,"Duration":1829837,"SoundDuration":1829837,"Delta":198451874},{"NoteNumber":67,"Velocity":70,"Duration":2277795,"SoundDuration":2277795,"Delta":198451874},{"NoteNumber":74,"Velocity":70,"Duration":2277795,"SoundDuration":2277795,"Delta":198451874},{"NoteNumber":70,"Velocity":70,"Duration":2277795,"SoundDuration":2277795,"Delta":198451874},{"NoteNumber":62,"Velocity":76,"Duration":2277795,"SoundDuration":2277795,"Delta":198451874},{"NoteNumber":58,"Velocity":63,"Duration":2277795,"SoundDuration":2277795,"Delta":198451874},{"NoteNumber":55,"Velocity":63,"Duration":2277795,"SoundDuration":2277795,"Delta":198451874},{"NoteNumber":81,"Velocity":53,"Duration":151515,"SoundDuration":151515,"Delta":200281711},{"NoteNumber":82,"Velocity":53,"Duration":151515,"SoundDuration":151515,"Delta":200433226},{"NoteNumber":81,"Velocity":53,"Duration":144927,"SoundDuration":144927,"Delta":200584741},{"NoteNumber":79,"Velocity":56,"Duration":139534,"SoundDuration":139534,"Delta":200729669},{"NoteNumber":81,"Velocity":54,"Duration":135135,"SoundDuration":135135,"Delta":200869204},{"NoteNumber":79,"Velocity":54,"Duration":135135,"SoundDuration":135135,"Delta":201004339},{"NoteNumber":77,"Velocity":54,"Duration":135135,"SoundDuration":135135,"Delta":201139474},{"NoteNumber":74,"Velocity":57,"Duration":137614,"SoundDuration":137614,"Delta":201274610},{"NoteNumber":77,"Velocity":54,"Duration":134529,"SoundDuration":134529,"Delta":201412224},{"NoteNumber":74,"Velocity":54,"Duration":134529,"SoundDuration":134529,"Delta":201546754},{"NoteNumber":72,"Velocity":54,"Duration":134529,"SoundDuration":134529,"Delta":201681283},{"NoteNumber":70,"Velocity":58,"Duration":137614,"SoundDuration":137614,"Delta":201815812},{"NoteNumber":67,"Velocity":54,"Duration":134529,"SoundDuration":134529,"Delta":201953427},{"NoteNumber":62,"Velocity":53,"Duration":134529,"SoundDuration":134529,"Delta":202087956},{"NoteNumber":64,"Velocity":53,"Duration":134529,"SoundDuration":134529,"Delta":202222485},{"NoteNumber":62,"Velocity":43,"Duration":2315629,"SoundDuration":2315629,"Delta":202357015},{"NoteNumber":67,"Velocity":51,"Duration":146341,"SoundDuration":146341,"Delta":202357015},{"NoteNumber":50,"Velocity":36,"Duration":1011049,"SoundDuration":1011049,"Delta":202357015},{"NoteNumber":57,"Velocity":43,"Duration":1011049,"SoundDuration":1011049,"Delta":202357015},{"NoteNumber":65,"Velocity":47,"Duration":144927,"SoundDuration":144927,"Delta":202503356},{"NoteNumber":67,"Velocity":48,"Duration":144230,"SoundDuration":144230,"Delta":202648284},{"NoteNumber":69,"Velocity":47,"Duration":142857,"SoundDuration":142857,"Delta":202792514},{"NoteNumber":67,"Velocity":46,"Duration":726176,"SoundDuration":726176,"Delta":202935372},{"NoteNumber":43,"Velocity":28,"Duration":1304580,"SoundDuration":1304580,"Delta":203368064},{"NoteNumber":50,"Velocity":33,"Duration":1232464,"SoundDuration":1232464,"Delta":203440179},{"NoteNumber":58,"Velocity":38,"Duration":1160349,"SoundDuration":1160349,"Delta":203512295},{"NoteNumber":65,"Velocity":45,"Duration":145631,"SoundDuration":145631,"Delta":203661548},{"NoteNumber":67,"Velocity":46,"Duration":145631,"SoundDuration":145631,"Delta":203807179},{"NoteNumber":69,"Velocity":48,"Duration":143540,"SoundDuration":143540,"Delta":203952810},{"NoteNumber":72,"Velocity":49,"Duration":146341,"SoundDuration":146341,"Delta":204096351},{"NoteNumber":69,"Velocity":49,"Duration":144230,"SoundDuration":144230,"Delta":204242693},{"NoteNumber":67,"Velocity":49,"Duration":143540,"SoundDuration":143540,"Delta":204386923},{"NoteNumber":65,"Velocity":49,"Duration":142179,"SoundDuration":142179,"Delta":204530464},{"NoteNumber":67,"Velocity":48,"Duration":146341,"SoundDuration":146341,"Delta":204672644},{"NoteNumber":62,"Velocity":43,"Duration":2384196,"SoundDuration":2384196,"Delta":204672644},{"NoteNumber":57,"Velocity":41,"Duration":1031669,"SoundDuration":1031669,"Delta":204672644},{"NoteNumber":50,"Velocity":35,"Duration":1031669,"SoundDuration":1031669,"Delta":204672644},{"NoteNumber":65,"Velocity":46,"Duration":148514,"SoundDuration":148514,"Delta":204818986},{"NoteNumber":67,"Velocity":47,"Duration":146341,"SoundDuration":146341,"Delta":204967500},{"NoteNumber":69,"Velocity":46,"Duration":144927,"SoundDuration":144927,"Delta":205113842},{"NoteNumber":67,"Velocity":45,"Duration":747120,"SoundDuration":747120,"Delta":205258769},{"NoteNumber":43,"Velocity":32,"Duration":1352526,"SoundDuration":1352526,"Delta":205704314},{"NoteNumber":50,"Velocity":35,"Duration":1278269,"SoundDuration":1278269,"Delta":205778571},{"NoteNumber":59,"Velocity":38,"Duration":1204011,"SoundDuration":1204011,"Delta":205852828},{"NoteNumber":65,"Velocity":46,"Duration":150000,"SoundDuration":150000,"Delta":206005890},{"NoteNumber":67,"Velocity":47,"Duration":147058,"SoundDuration":147058,"Delta":206155890},{"NoteNumber":69,"Velocity":48,"Duration":153846,"SoundDuration":153846,"Delta":206302948},{"NoteNumber":74,"Velocity":52,"Duration":152284,"SoundDuration":152284,"Delta":206456795},{"NoteNumber":69,"Velocity":51,"Duration":149253,"SoundDuration":149253,"Delta":206609079},{"NoteNumber":67,"Velocity":51,"Duration":149253,"SoundDuration":149253,"Delta":206758333},{"NoteNumber":65,"Velocity":51,"Duration":149253,"SoundDuration":149253,"Delta":206907586},{"NoteNumber":76,"Velocity":51,"Duration":149016,"SoundDuration":149016,"Delta":207056840},{"NoteNumber":36,"Velocity":43,"Duration":2184008,"SoundDuration":2184008,"Delta":207056840},{"NoteNumber":48,"Velocity":51,"Duration":2184008,"SoundDuration":2184008,"Delta":207056840},{"NoteNumber":70,"Velocity":49,"Duration":143115,"SoundDuration":143115,"Delta":207205857},{"NoteNumber":69,"Velocity":49,"Duration":143116,"SoundDuration":143116,"Delta":207348973},{"NoteNumber":67,"Velocity":49,"Duration":131189,"SoundDuration":131189,"Delta":207492089},{"NoteNumber":77,"Velocity":52,"Duration":138991,"SoundDuration":138991,"Delta":207635205},{"NoteNumber":57,"Velocity":39,"Duration":276003,"SoundDuration":276003,"Delta":207635205},{"NoteNumber":60,"Velocity":46,"Duration":276003,"SoundDuration":276003,"Delta":207635205},{"NoteNumber":72,"Velocity":51,"Duration":137011,"SoundDuration":137011,"Delta":207774196},{"NoteNumber":70,"Velocity":51,"Duration":137011,"SoundDuration":137011,"Delta":207911208},{"NoteNumber":62,"Velocity":32,"Duration":251187,"SoundDuration":251187,"Delta":207911208},{"NoteNumber":65,"Velocity":38,"Duration":251187,"SoundDuration":251187,"Delta":207911208},{"NoteNumber":69,"Velocity":51,"Duration":125593,"SoundDuration":125593,"Delta":208048219},{"NoteNumber":79,"Velocity":53,"Duration":134468,"SoundDuration":134468,"Delta":208185230},{"NoteNumber":58,"Velocity":40,"Duration":266476,"SoundDuration":266476,"Delta":208185230},{"NoteNumber":62,"Velocity":47,"Duration":266476,"SoundDuration":266476,"Delta":208185230},{"NoteNumber":74,"Velocity":51,"Duration":132007,"SoundDuration":132007,"Delta":208319699},{"NoteNumber":72,"Velocity":51,"Duration":132007,"SoundDuration":132007,"Delta":208451706},{"NoteNumber":67,"Velocity":38,"Duration":240523,"SoundDuration":240523,"Delta":208451706},{"NoteNumber":64,"Velocity":32,"Duration":240523,"SoundDuration":240523,"Delta":208451706},{"NoteNumber":70,"Velocity":51,"Duration":119368,"SoundDuration":119368,"Delta":208583714},{"NoteNumber":81,"Velocity":54,"Duration":134468,"SoundDuration":134468,"Delta":208713934},{"NoteNumber":60,"Velocity":41,"Duration":265874,"SoundDuration":265874,"Delta":208713934},{"NoteNumber":64,"Velocity":49,"Duration":265874,"SoundDuration":265874,"Delta":208713934},{"NoteNumber":76,"Velocity":52,"Duration":131405,"SoundDuration":131405,"Delta":208848402},{"NoteNumber":74,"Velocity":52,"Duration":131405,"SoundDuration":131405,"Delta":208979808},{"NoteNumber":65,"Velocity":35,"Duration":239434,"SoundDuration":239434,"Delta":208979808},{"NoteNumber":69,"Velocity":41,"Duration":239434,"SoundDuration":239434,"Delta":208979808},{"NoteNumber":72,"Velocity":52,"Duration":118831,"SoundDuration":118831,"Delta":209111214},{"NoteNumber":82,"Velocity":56,"Duration":134468,"SoundDuration":134468,"Delta":209240849},{"NoteNumber":62,"Velocity":43,"Duration":265874,"SoundDuration":265874,"Delta":209240849},{"NoteNumber":65,"Velocity":51,"Duration":265874,"SoundDuration":265874,"Delta":209240849},{"NoteNumber":77,"Velocity":54,"Duration":131405,"SoundDuration":131405,"Delta":209375318},{"NoteNumber":76,"Velocity":54,"Duration":131405,"SoundDuration":131405,"Delta":209506724},{"NoteNumber":67,"Velocity":35,"Duration":238960,"SoundDuration":238960,"Delta":209506724},{"NoteNumber":70,"Velocity":41,"Duration":238960,"SoundDuration":238960,"Delta":209506724},{"NoteNumber":74,"Velocity":54,"Duration":118310,"SoundDuration":118310,"Delta":209638130},{"NoteNumber":84,"Velocity":58,"Duration":133845,"SoundDuration":133845,"Delta":209767195},{"NoteNumber":64,"Velocity":45,"Duration":265251,"SoundDuration":265251,"Delta":209767195},{"NoteNumber":67,"Velocity":53,"Duration":265251,"SoundDuration":265251,"Delta":209767195},{"NoteNumber":79,"Velocity":56,"Duration":131405,"SoundDuration":131405,"Delta":209901040},{"NoteNumber":77,"Velocity":56,"Duration":131405,"SoundDuration":131405,"Delta":210032446},{"NoteNumber":72,"Velocity":43,"Duration":238960,"SoundDuration":238960,"Delta":210032446},{"NoteNumber":69,"Velocity":36,"Duration":238960,"SoundDuration":238960,"Delta":210032446},{"NoteNumber":76,"Velocity":57,"Duration":118310,"SoundDuration":118310,"Delta":210163852},{"NoteNumber":86,"Velocity":60,"Duration":134468,"SoundDuration":134468,"Delta":210292918},{"NoteNumber":69,"Velocity":54,"Duration":266476,"SoundDuration":266476,"Delta":210292918},{"NoteNumber":65,"Velocity":45,"Duration":266476,"SoundDuration":266476,"Delta":210292918},{"NoteNumber":81,"Velocity":58,"Duration":132007,"SoundDuration":132007,"Delta":210427386},{"NoteNumber":79,"Velocity":59,"Duration":132007,"SoundDuration":132007,"Delta":210559394},{"NoteNumber":70,"Velocity":37,"Duration":240523,"SoundDuration":240523,"Delta":210559394},{"NoteNumber":74,"Velocity":45,"Duration":240523,"SoundDuration":240523,"Delta":210559394},{"NoteNumber":77,"Velocity":59,"Duration":119368,"SoundDuration":119368,"Delta":210691401},{"NoteNumber":88,"Velocity":63,"Duration":137011,"SoundDuration":137011,"Delta":210821621},{"NoteNumber":70,"Velocity":57,"Duration":270856,"SoundDuration":270856,"Delta":210821621},{"NoteNumber":67,"Velocity":48,"Duration":270856,"SoundDuration":270856,"Delta":210821621},{"NoteNumber":82,"Velocity":60,"Duration":133845,"SoundDuration":133845,"Delta":210958632},{"NoteNumber":81,"Velocity":60,"Duration":138991,"SoundDuration":138991,"Delta":211092477},{"NoteNumber":72,"Velocity":40,"Duration":151806,"SoundDuration":151806,"Delta":211092477},{"NoteNumber":76,"Velocity":47,"Duration":151806,"SoundDuration":151806,"Delta":211092477},{"NoteNumber":79,"Velocity":60,"Duration":139888,"SoundDuration":139888,"Delta":211231469},{"NoteNumber":58,"Velocity":40,"Duration":2267570,"SoundDuration":2267570,"Delta":211269915},{"NoteNumber":65,"Velocity":52,"Duration":2229124,"SoundDuration":2229124,"Delta":211308361},{"NoteNumber":67,"Velocity":54,"Duration":2191177,"SoundDuration":2191177,"Delta":211346308},{"NoteNumber":91,"Velocity":87,"Duration":139099,"SoundDuration":139099,"Delta":211384138},{"NoteNumber":74,"Velocity":58,"Duration":820281,"SoundDuration":820281,"Delta":211384138},{"NoteNumber":86,"Velocity":67,"Duration":124086,"SoundDuration":124086,"Delta":211535883},{"NoteNumber":84,"Velocity":67,"Duration":124086,"SoundDuration":124086,"Delta":211671249},{"NoteNumber":82,"Velocity":67,"Duration":124086,"SoundDuration":124086,"Delta":211806616},{"NoteNumber":79,"Velocity":60,"Duration":128926,"SoundDuration":128926,"Delta":211941983},{"NoteNumber":74,"Velocity":57,"Duration":1454855,"SoundDuration":1454855,"Delta":212082630},{"NoteNumber":72,"Velocity":57,"Duration":121789,"SoundDuration":121789,"Delta":212215491},{"NoteNumber":70,"Velocity":57,"Duration":121789,"SoundDuration":121789,"Delta":212348352},{"NoteNumber":77,"Velocity":63,"Duration":120677,"SoundDuration":120677,"Delta":212481213},{"NoteNumber":79,"Velocity":65,"Duration":120677,"SoundDuration":120677,"Delta":212612861},{"NoteNumber":81,"Velocity":67,"Duration":120677,"SoundDuration":120677,"Delta":212744509},{"NoteNumber":82,"Velocity":69,"Duration":120677,"SoundDuration":120677,"Delta":212876158},{"NoteNumber":84,"Velocity":72,"Duration":120677,"SoundDuration":120677,"Delta":213007806},{"NoteNumber":86,"Velocity":72,"Duration":120677,"SoundDuration":120677,"Delta":213139454},{"NoteNumber":88,"Velocity":75,"Duration":120677,"SoundDuration":120677,"Delta":213271102},{"NoteNumber":89,"Velocity":77,"Duration":123506,"SoundDuration":123506,"Delta":213402751},{"NoteNumber":91,"Velocity":87,"Duration":139099,"SoundDuration":139099,"Delta":213537485},{"NoteNumber":55,"Velocity":49,"Duration":2149276,"SoundDuration":2149276,"Delta":213537485},{"NoteNumber":60,"Velocity":49,"Duration":2149276,"SoundDuration":2149276,"Delta":213537485},{"NoteNumber":62,"Velocity":58,"Duration":2149276,"SoundDuration":2149276,"Delta":213537485},{"NoteNumber":70,"Velocity":58,"Duration":1081361,"SoundDuration":1081361,"Delta":213537485},{"NoteNumber":86,"Velocity":67,"Duration":124086,"SoundDuration":124086,"Delta":213689230},{"NoteNumber":84,"Velocity":67,"Duration":124086,"SoundDuration":124086,"Delta":213824597},{"NoteNumber":82,"Velocity":67,"Duration":124086,"SoundDuration":124086,"Delta":213959964},{"NoteNumber":79,"Velocity":60,"Duration":124671,"SoundDuration":124671,"Delta":214095330},{"NoteNumber":74,"Velocity":57,"Duration":121789,"SoundDuration":121789,"Delta":214231335},{"NoteNumber":72,"Velocity":57,"Duration":121789,"SoundDuration":121789,"Delta":214364196},{"NoteNumber":70,"Velocity":57,"Duration":1189704,"SoundDuration":1189704,"Delta":214497057},{"NoteNumber":77,"Velocity":64,"Duration":120677,"SoundDuration":120677,"Delta":214629918},{"NoteNumber":79,"Velocity":66,"Duration":120677,"SoundDuration":120677,"Delta":214761567},{"NoteNumber":81,"Velocity":69,"Duration":120677,"SoundDuration":120677,"Delta":214893215},{"NoteNumber":82,"Velocity":72,"Duration":120677,"SoundDuration":120677,"Delta":215024863},{"NoteNumber":84,"Velocity":73,"Duration":120677,"SoundDuration":120677,"Delta":215156511},{"NoteNumber":86,"Velocity":76,"Duration":120677,"SoundDuration":120677,"Delta":215288160},{"NoteNumber":88,"Velocity":78,"Duration":120677,"SoundDuration":120677,"Delta":215419808},{"NoteNumber":89,"Velocity":80,"Duration":124321,"SoundDuration":124321,"Delta":215551456},{"NoteNumber":91,"Velocity":89,"Duration":139221,"SoundDuration":139221,"Delta":215686762},{"NoteNumber":48,"Velocity":55,"Duration":2204993,"SoundDuration":2204993,"Delta":215686762},{"NoteNumber":55,"Velocity":55,"Duration":2204993,"SoundDuration":2204993,"Delta":215686762},{"NoteNumber":58,"Velocity":55,"Duration":2204993,"SoundDuration":2204993,"Delta":215686762},{"NoteNumber":64,"Velocity":65,"Duration":2204993,"SoundDuration":2204993,"Delta":215686762},{"NoteNumber":86,"Velocity":72,"Duration":123384,"SoundDuration":123384,"Delta":215838734},{"NoteNumber":84,"Velocity":72,"Duration":123384,"SoundDuration":123384,"Delta":215973336},{"NoteNumber":82,"Velocity":72,"Duration":123384,"SoundDuration":123384,"Delta":216107937},{"NoteNumber":79,"Velocity":64,"Duration":125125,"SoundDuration":125125,"Delta":216242539},{"NoteNumber":74,"Velocity":59,"Duration":122811,"SoundDuration":122811,"Delta":216379039},{"NoteNumber":72,"Velocity":59,"Duration":122811,"SoundDuration":122811,"Delta":216513015},{"NoteNumber":70,"Velocity":59,"Duration":122811,"SoundDuration":122811,"Delta":216646992},{"NoteNumber":79,"Velocity":72,"Duration":121692,"SoundDuration":121692,"Delta":216780968},{"NoteNumber":81,"Velocity":73,"Duration":121692,"SoundDuration":121692,"Delta":216913723},{"NoteNumber":82,"Velocity":76,"Duration":121692,"SoundDuration":121692,"Delta":217046478},{"NoteNumber":84,"Velocity":78,"Duration":121692,"SoundDuration":121692,"Delta":217179233},{"NoteNumber":86,"Velocity":80,"Duration":122355,"SoundDuration":122355,"Delta":217311988},{"NoteNumber":88,"Velocity":83,"Duration":124644,"SoundDuration":124644,"Delta":217445561},{"NoteNumber":89,"Velocity":85,"Duration":127021,"SoundDuration":127021,"Delta":217581633},{"NoteNumber":91,"Velocity":87,"Duration":157430,"SoundDuration":157430,"Delta":217720303},{"NoteNumber":89,"Velocity":75,"Duration":362316,"SoundDuration":362316,"Delta":217891755},{"NoteNumber":81,"Velocity":75,"Duration":362316,"SoundDuration":362316,"Delta":217891755},{"NoteNumber":93,"Velocity":89,"Duration":362316,"SoundDuration":362316,"Delta":217891755},{"NoteNumber":29,"Velocity":68,"Duration":362316,"SoundDuration":362316,"Delta":217891755},{"NoteNumber":41,"Velocity":81,"Duration":362316,"SoundDuration":362316,"Delta":217891755},{"NoteNumber":48,"Velocity":81,"Duration":3208796,"SoundDuration":3208796,"Delta":218254071},{"NoteNumber":63,"Velocity":58,"Duration":888450,"SoundDuration":888450,"Delta":218616434},{"NoteNumber":67,"Velocity":69,"Duration":888450,"SoundDuration":888450,"Delta":218616434},{"NoteNumber":60,"Velocity":69,"Duration":1469650,"SoundDuration":1469650,"Delta":218616434},{"NoteNumber":57,"Velocity":58,"Duration":1469650,"SoundDuration":1469650,"Delta":218616434},{"NoteNumber":62,"Velocity":53,"Duration":140239,"SoundDuration":140239,"Delta":219504884},{"NoteNumber":65,"Velocity":63,"Duration":140239,"SoundDuration":140239,"Delta":219504884},{"NoteNumber":63,"Velocity":53,"Duration":140239,"SoundDuration":140239,"Delta":219645123},{"NoteNumber":67,"Velocity":63,"Duration":140239,"SoundDuration":140239,"Delta":219645123},{"NoteNumber":62,"Velocity":57,"Duration":300721,"SoundDuration":300721,"Delta":219785362},{"NoteNumber":65,"Velocity":68,"Duration":300721,"SoundDuration":300721,"Delta":219785362},{"NoteNumber":60,"Velocity":55,"Duration":140239,"SoundDuration":140239,"Delta":220086084},{"NoteNumber":63,"Velocity":65,"Duration":140239,"SoundDuration":140239,"Delta":220086084},{"NoteNumber":53,"Velocity":42,"Duration":1426391,"SoundDuration":1426391,"Delta":220086084},{"NoteNumber":57,"Velocity":50,"Duration":1426391,"SoundDuration":1426391,"Delta":220086084},{"NoteNumber":65,"Velocity":65,"Duration":140239,"SoundDuration":140239,"Delta":220226323},{"NoteNumber":62,"Velocity":55,"Duration":140239,"SoundDuration":140239,"Delta":220226323},{"NoteNumber":63,"Velocity":70,"Duration":271470,"SoundDuration":271470,"Delta":220366562},{"NoteNumber":60,"Velocity":59,"Duration":271470,"SoundDuration":271470,"Delta":220366562},{"NoteNumber":60,"Velocity":79,"Duration":911773,"SoundDuration":911773,"Delta":220662712},{"NoteNumber":62,"Velocity":79,"Duration":307062,"SoundDuration":307062,"Delta":220969775},{"NoteNumber":63,"Velocity":79,"Duration":297648,"SoundDuration":297648,"Delta":221276837},{"NoteNumber":48,"Velocity":50,"Duration":1227776,"SoundDuration":1227776,"Delta":221462868},{"NoteNumber":55,"Velocity":63,"Duration":1190570,"SoundDuration":1190570,"Delta":221500074},{"NoteNumber":58,"Velocity":56,"Duration":1153364,"SoundDuration":1153364,"Delta":221537280},{"NoteNumber":79,"Velocity":72,"Duration":122091,"SoundDuration":122091,"Delta":221574486},{"NoteNumber":64,"Velocity":72,"Duration":532765,"SoundDuration":532765,"Delta":221574486},{"NoteNumber":81,"Velocity":73,"Duration":122091,"SoundDuration":122091,"Delta":221707677},{"NoteNumber":82,"Velocity":76,"Duration":122091,"SoundDuration":122091,"Delta":221840868},{"NoteNumber":84,"Velocity":78,"Duration":122091,"SoundDuration":122091,"Delta":221974060},{"NoteNumber":86,"Velocity":80,"Duration":122759,"SoundDuration":122759,"Delta":222107251},{"NoteNumber":62,"Velocity":72,"Duration":583393,"SoundDuration":583393,"Delta":222107251},{"NoteNumber":88,"Velocity":83,"Duration":125056,"SoundDuration":125056,"Delta":222241265},{"NoteNumber":89,"Velocity":85,"Duration":127444,"SoundDuration":127444,"Delta":222377787},{"NoteNumber":91,"Velocity":87,"Duration":159189,"SoundDuration":159189,"Delta":222516918},{"NoteNumber":93,"Velocity":89,"Duration":348877,"SoundDuration":348877,"Delta":222690644},{"NoteNumber":81,"Velocity":75,"Duration":348877,"SoundDuration":348877,"Delta":222690644},{"NoteNumber":89,"Velocity":89,"Duration":348877,"SoundDuration":348877,"Delta":222690644},{"NoteNumber":29,"Velocity":68,"Duration":348877,"SoundDuration":348877,"Delta":222690644},{"NoteNumber":41,"Velocity":81,"Duration":348877,"SoundDuration":348877,"Delta":222690644},{"NoteNumber":48,"Velocity":81,"Duration":3323788,"SoundDuration":3323788,"Delta":223039522},{"NoteNumber":67,"Velocity":69,"Duration":892591,"SoundDuration":892591,"Delta":223388400},{"NoteNumber":63,"Velocity":58,"Duration":892591,"SoundDuration":892591,"Delta":223388400},{"NoteNumber":60,"Velocity":69,"Duration":1476502,"SoundDuration":1476502,"Delta":223388400},{"NoteNumber":57,"Velocity":58,"Duration":1476502,"SoundDuration":1476502,"Delta":223388400},{"NoteNumber":65,"Velocity":63,"Duration":140897,"SoundDuration":140897,"Delta":224280992},{"NoteNumber":62,"Velocity":53,"Duration":140897,"SoundDuration":140897,"Delta":224280992},{"NoteNumber":67,"Velocity":63,"Duration":140898,"SoundDuration":140898,"Delta":224421890},{"NoteNumber":63,"Velocity":53,"Duration":140898,"SoundDuration":140898,"Delta":224421890},{"NoteNumber":65,"Velocity":68,"Duration":302114,"SoundDuration":302114,"Delta":224562788},{"NoteNumber":62,"Velocity":57,"Duration":302114,"SoundDuration":302114,"Delta":224562788},{"NoteNumber":63,"Velocity":65,"Duration":140897,"SoundDuration":140897,"Delta":224864903},{"NoteNumber":60,"Velocity":55,"Duration":140897,"SoundDuration":140897,"Delta":224864903},{"NoteNumber":53,"Velocity":43,"Duration":1498408,"SoundDuration":1498408,"Delta":224864903},{"NoteNumber":57,"Velocity":51,"Duration":1498408,"SoundDuration":1498408,"Delta":224864903},{"NoteNumber":65,"Velocity":65,"Duration":140898,"SoundDuration":140898,"Delta":225005801},{"NoteNumber":62,"Velocity":55,"Duration":140898,"SoundDuration":140898,"Delta":225005801},{"NoteNumber":63,"Velocity":70,"Duration":272736,"SoundDuration":272736,"Delta":225146699},{"NoteNumber":60,"Velocity":70,"Duration":272736,"SoundDuration":272736,"Delta":225146699},{"NoteNumber":60,"Velocity":79,"Duration":919081,"SoundDuration":919081,"Delta":225444229},{"NoteNumber":62,"Velocity":79,"Duration":308483,"SoundDuration":308483,"Delta":225752713},{"NoteNumber":63,"Velocity":79,"Duration":302114,"SoundDuration":302114,"Delta":226061196},{"NoteNumber":48,"Velocity":59,"Duration":1339445,"SoundDuration":1339445,"Delta":226250018},{"NoteNumber":55,"Velocity":54,"Duration":1301681,"SoundDuration":1301681,"Delta":226287782},{"NoteNumber":58,"Velocity":67,"Duration":1263916,"SoundDuration":1263916,"Delta":226325547},{"NoteNumber":79,"Velocity":75,"Duration":129778,"SoundDuration":129778,"Delta":226363311},{"NoteNumber":64,"Velocity":72,"Duration":566191,"SoundDuration":566191,"Delta":226363311},{"NoteNumber":81,"Velocity":77,"Duration":129778,"SoundDuration":129778,"Delta":226504887},{"NoteNumber":82,"Velocity":80,"Duration":129778,"SoundDuration":129778,"Delta":226646464},{"NoteNumber":84,"Velocity":83,"Duration":129721,"SoundDuration":129721,"Delta":226788040},{"NoteNumber":86,"Velocity":85,"Duration":131523,"SoundDuration":131523,"Delta":226929503},{"NoteNumber":62,"Velocity":72,"Duration":659960,"SoundDuration":659960,"Delta":226929503},{"NoteNumber":88,"Velocity":88,"Duration":136635,"SoundDuration":136635,"Delta":227073177},{"NoteNumber":89,"Velocity":90,"Duration":142156,"SoundDuration":142156,"Delta":227222467},{"NoteNumber":91,"Velocity":94,"Duration":193653,"SoundDuration":193653,"Delta":227377824},{"NoteNumber":86,"Velocity":96,"Duration":397350,"SoundDuration":397350,"Delta":227589464},{"NoteNumber":82,"Velocity":81,"Duration":397350,"SoundDuration":397350,"Delta":227589464},{"NoteNumber":94,"Velocity":98,"Duration":397350,"SoundDuration":397350,"Delta":227589464},{"NoteNumber":34,"Velocity":68,"Duration":397350,"SoundDuration":397350,"Delta":227589464},{"NoteNumber":46,"Velocity":81,"Duration":397350,"SoundDuration":397350,"Delta":227589464},{"NoteNumber":53,"Velocity":81,"Duration":397351,"SoundDuration":397351,"Delta":227986815},{"NoteNumber":70,"Velocity":81,"Duration":972973,"SoundDuration":972973,"Delta":228384166},{"NoteNumber":65,"Velocity":68,"Duration":1567747,"SoundDuration":1567747,"Delta":228384166},{"NoteNumber":58,"Velocity":57,"Duration":972973,"SoundDuration":972973,"Delta":228384166},{"NoteNumber":62,"Velocity":68,"Duration":1567747,"SoundDuration":1567747,"Delta":228384166},{"NoteNumber":69,"Velocity":76,"Duration":143540,"SoundDuration":143540,"Delta":229357139},{"NoteNumber":57,"Velocity":65,"Duration":143540,"SoundDuration":143540,"Delta":229357139},{"NoteNumber":70,"Velocity":76,"Duration":143540,"SoundDuration":143540,"Delta":229500680},{"NoteNumber":58,"Velocity":65,"Duration":143540,"SoundDuration":143540,"Delta":229500680},{"NoteNumber":69,"Velocity":81,"Duration":307692,"SoundDuration":307692,"Delta":229644221},{"NoteNumber":57,"Velocity":68,"Duration":307692,"SoundDuration":307692,"Delta":229644221},{"NoteNumber":62,"Velocity":65,"Duration":287081,"SoundDuration":287081,"Delta":229951913},{"NoteNumber":67,"Velocity":77,"Duration":143540,"SoundDuration":143540,"Delta":229951913},{"NoteNumber":55,"Velocity":64,"Duration":143540,"SoundDuration":143540,"Delta":229951913},{"NoteNumber":58,"Velocity":54,"Duration":287081,"SoundDuration":287081,"Delta":229951913},{"NoteNumber":69,"Velocity":77,"Duration":143540,"SoundDuration":143540,"Delta":230095454},{"NoteNumber":57,"Velocity":64,"Duration":143540,"SoundDuration":143540,"Delta":230095454},{"NoteNumber":67,"Velocity":81,"Duration":324324,"SoundDuration":324324,"Delta":230238995},{"NoteNumber":62,"Velocity":64,"Duration":628892,"SoundDuration":628892,"Delta":230238995},{"NoteNumber":58,"Velocity":54,"Duration":628892,"SoundDuration":628892,"Delta":230238995},{"NoteNumber":55,"Velocity":68,"Duration":324324,"SoundDuration":324324,"Delta":230238995},{"NoteNumber":65,"Velocity":72,"Duration":304568,"SoundDuration":304568,"Delta":230563319},{"NoteNumber":53,"Velocity":63,"Duration":304568,"SoundDuration":304568,"Delta":230563319},{"NoteNumber":67,"Velocity":76,"Duration":304568,"SoundDuration":304568,"Delta":230867888},{"NoteNumber":55,"Velocity":65,"Duration":304568,"SoundDuration":304568,"Delta":230867888},{"NoteNumber":69,"Velocity":79,"Duration":294117,"SoundDuration":294117,"Delta":231172456},{"NoteNumber":57,"Velocity":68,"Duration":294117,"SoundDuration":294117,"Delta":231172456},{"NoteNumber":70,"Velocity":83,"Duration":294117,"SoundDuration":294117,"Delta":231466574},{"NoteNumber":58,"Velocity":71,"Duration":294117,"SoundDuration":294117,"Delta":231466574},{"NoteNumber":72,"Velocity":86,"Duration":292004,"SoundDuration":292004,"Delta":231760691},{"NoteNumber":60,"Velocity":73,"Duration":292004,"SoundDuration":292004,"Delta":231760691},{"NoteNumber":74,"Velocity":90,"Duration":286175,"SoundDuration":286175,"Delta":232052696},{"NoteNumber":62,"Velocity":76,"Duration":286175,"SoundDuration":286175,"Delta":232052696},{"NoteNumber":77,"Velocity":94,"Duration":319149,"SoundDuration":319149,"Delta":232338871},{"NoteNumber":65,"Velocity":80,"Duration":319149,"SoundDuration":319149,"Delta":232338871},{"NoteNumber":84,"Velocity":94,"Duration":2548636,"SoundDuration":2548636,"Delta":232658020},{"NoteNumber":77,"Velocity":80,"Duration":1276595,"SoundDuration":1276595,"Delta":232658020},{"NoteNumber":82,"Velocity":80,"Duration":1276595,"SoundDuration":1276595,"Delta":232658020},{"NoteNumber":62,"Velocity":60,"Duration":1276595,"SoundDuration":1276595,"Delta":232658020},{"NoteNumber":65,"Velocity":60,"Duration":1276595,"SoundDuration":1276595,"Delta":232658020},{"NoteNumber":72,"Velocity":72,"Duration":1276595,"SoundDuration":1276595,"Delta":232658020},{"NoteNumber":70,"Velocity":72,"Duration":1276595,"SoundDuration":1276595,"Delta":232658020},{"NoteNumber":81,"Velocity":94,"Duration":638298,"SoundDuration":638298,"Delta":233934616},{"NoteNumber":77,"Velocity":80,"Duration":638298,"SoundDuration":638298,"Delta":233934616},{"NoteNumber":60,"Velocity":60,"Duration":638298,"SoundDuration":638298,"Delta":233934616},{"NoteNumber":65,"Velocity":60,"Duration":638298,"SoundDuration":638298,"Delta":233934616},{"NoteNumber":69,"Velocity":60,"Duration":638298,"SoundDuration":638298,"Delta":233934616},{"NoteNumber":72,"Velocity":72,"Duration":638298,"SoundDuration":638298,"Delta":233934616},{"NoteNumber":79,"Velocity":80,"Duration":103626,"SoundDuration":103626,"Delta":234572914},{"NoteNumber":74,"Velocity":80,"Duration":103626,"SoundDuration":103626,"Delta":234572914},{"NoteNumber":58,"Velocity":55,"Duration":633742,"SoundDuration":633742,"Delta":234572914},{"NoteNumber":62,"Velocity":55,"Duration":633742,"SoundDuration":633742,"Delta":234572914},{"NoteNumber":67,"Velocity":65,"Duration":633742,"SoundDuration":633742,"Delta":234572914},{"NoteNumber":65,"Velocity":55,"Duration":633742,"SoundDuration":633742,"Delta":234572914},{"NoteNumber":81,"Velocity":76,"Duration":103627,"SoundDuration":103627,"Delta":234676541},{"NoteNumber":79,"Velocity":76,"Duration":103626,"SoundDuration":103626,"Delta":234780168},{"NoteNumber":77,"Velocity":80,"Duration":103627,"SoundDuration":103627,"Delta":234883795},{"NoteNumber":74,"Velocity":76,"Duration":103626,"SoundDuration":103626,"Delta":234987422},{"NoteNumber":77,"Velocity":76,"Duration":115607,"SoundDuration":115607,"Delta":235091049},{"NoteNumber":72,"Velocity":73,"Duration":461537,"SoundDuration":461537,"Delta":235206656},{"NoteNumber":84,"Velocity":87,"Duration":461537,"SoundDuration":461537,"Delta":235206656},{"NoteNumber":81,"Velocity":73,"Duration":461537,"SoundDuration":461537,"Delta":235206656},{"NoteNumber":77,"Velocity":73,"Duration":461537,"SoundDuration":461537,"Delta":235206656},{"NoteNumber":53,"Velocity":63,"Duration":461537,"SoundDuration":461537,"Delta":235206656},{"NoteNumber":60,"Velocity":63,"Duration":461537,"SoundDuration":461537,"Delta":235206656},{"NoteNumber":65,"Velocity":63,"Duration":461537,"SoundDuration":461537,"Delta":235206656},{"NoteNumber":69,"Velocity":75,"Duration":461537,"SoundDuration":461537,"Delta":235206656},{"NoteNumber":77,"Velocity":83,"Duration":461538,"SoundDuration":461538,"Delta":237052808},{"NoteNumber":89,"Velocity":99,"Duration":461538,"SoundDuration":461538,"Delta":237052808},{"NoteNumber":84,"Velocity":83,"Duration":461538,"SoundDuration":461538,"Delta":237052808},{"NoteNumber":81,"Velocity":83,"Duration":461538,"SoundDuration":461538,"Delta":237052808},{"NoteNumber":29,"Velocity":57,"Duration":461538,"SoundDuration":461538,"Delta":237052808},{"NoteNumber":36,"Velocity":57,"Duration":461538,"SoundDuration":461538,"Delta":237052808},{"NoteNumber":41,"Velocity":68,"Duration":461538,"SoundDuration":461538,"Delta":237052808}],"license":{"name":"Creative Commons Attribution-ShareAlike 3.0 Germany","url":"http://creativecommons.org/licenses/by-sa/3.0/de/deed.en","text":"The MIDI, audio (MP3, OGG) and video files of Bernd Krueger are licensed under the cc-by-sa Germany License. This means that you can use and adapt the files, as long as you attribute the copyright holder.\n\nName: Bernd Krueger\nSource: http://www.piano-midi.de\n\nThe distribution or public playback of the files is only allowed under identical license conditions.\n\nThe scores are open source.","attribution":"MIDI files by Bernd Krueger (piano-midi.de)","attributionUrl":"http://www.piano-midi.de"}}