{"title":"Serenade of the Doll","artist":"Debussy","durationMs":163474,"midiSha256":"a2a78c627e3a67e1861f3771a0ea557921f2e9cf0622a08076679ef87778a5af","midiObject":[{"NoteNumber":64,"Velocity":29,"Duration":112553,"SoundDuration":112553,"Delta":0},{"NoteNumber":64,"Velocity":19,"Duration":112553,"SoundDuration":112553,"Delta":225107},{"NoteNumber":71,"Velocity":23,"Duration":112553,"SoundDuration":112553,"Delta":225107},{"NoteNumber":64,"Velocity":30,"Duration":112553,"SoundDuration":112553,"Delta":450214},{"NoteNumber":64,"Velocity":19,"Duration":112553,"SoundDuration":112553,"Delta":675321},{"NoteNumber":71,"Velocity":23,"Duration":112553,"SoundDuration":112553,"Delta":675321},{"NoteNumber":64,"Velocity":30,"Duration":112553,"SoundDuration":112553,"Delta":900428},{"NoteNumber":64,"Velocity":19,"Duration":112553,"SoundDuration":112553,"Delta":1125535},{"NoteNumber":71,"Velocity":23,"Duration":112553,"SoundDuration":112553,"Delta":1125535},{"NoteNumber":64,"Velocity":29,"Duration":111226,"SoundDuration":111226,"Delta":1350642},{"NoteNumber":64,"Velocity":19,"Duration":111053,"SoundDuration":111053,"Delta":1573335},{"NoteNumber":71,"Velocity":23,"Duration":111053,"SoundDuration":111053,"Delta":1573335},{"NoteNumber":64,"Velocity":30,"Duration":110318,"SoundDuration":110318,"Delta":1795115},{"NoteNumber":64,"Velocity":19,"Duration":109593,"SoundDuration":109593,"Delta":2015429},{"NoteNumber":71,"Velocity":23,"Duration":109593,"SoundDuration":109593,"Delta":2015429},{"NoteNumber":64,"Velocity":30,"Duration":108877,"SoundDuration":108877,"Delta":2234216},{"NoteNumber":64,"Velocity":19,"Duration":108877,"SoundDuration":108877,"Delta":2451970},{"NoteNumber":71,"Velocity":23,"Duration":108877,"SoundDuration":108877,"Delta":2451970},{"NoteNumber":64,"Velocity":29,"Duration":108483,"SoundDuration":108483,"Delta":2669724},{"NoteNumber":64,"Velocity":19,"Duration":108483,"SoundDuration":108483,"Delta":2886691},{"NoteNumber":71,"Velocity":23,"Duration":108483,"SoundDuration":108483,"Delta":2886691},{"NoteNumber":63,"Velocity":30,"Duration":54241,"SoundDuration":54241,"Delta":3049417},{"NoteNumber":68,"Velocity":39,"Duration":105805,"SoundDuration":105805,"Delta":3103658},{"NoteNumber":64,"Velocity":19,"Duration":105805,"SoundDuration":105805,"Delta":3315269},{"NoteNumber":71,"Velocity":23,"Duration":105805,"SoundDuration":105805,"Delta":3315269},{"NoteNumber":68,"Velocity":31,"Duration":52902,"SoundDuration":52902,"Delta":3473977},{"NoteNumber":73,"Velocity":42,"Duration":109273,"SoundDuration":109273,"Delta":3526879},{"NoteNumber":64,"Velocity":19,"Duration":109273,"SoundDuration":109273,"Delta":3745427},{"NoteNumber":71,"Velocity":23,"Duration":109273,"SoundDuration":109273,"Delta":3745427},{"NoteNumber":61,"Velocity":30,"Duration":54636,"SoundDuration":54636,"Delta":3909338},{"NoteNumber":64,"Velocity":29,"Duration":110481,"SoundDuration":110481,"Delta":3963974},{"NoteNumber":66,"Velocity":36,"Duration":883848,"SoundDuration":883848,"Delta":3963974},{"NoteNumber":64,"Velocity":19,"Duration":110481,"SoundDuration":110481,"Delta":4184936},{"NoteNumber":71,"Velocity":23,"Duration":110481,"SoundDuration":110481,"Delta":4184936},{"NoteNumber":64,"Velocity":19,"Duration":110481,"SoundDuration":110481,"Delta":4626860},{"NoteNumber":71,"Velocity":23,"Duration":110481,"SoundDuration":110481,"Delta":4626860},{"NoteNumber":63,"Velocity":30,"Duration":55240,"SoundDuration":55240,"Delta":4792582},{"NoteNumber":68,"Velocity":36,"Duration":108092,"SoundDuration":108092,"Delta":4847822},{"NoteNumber":68,"Velocity":31,"Duration":54046,"SoundDuration":54046,"Delta":5009961},{"NoteNumber":64,"Velocity":19,"Duration":108092,"SoundDuration":108092,"Delta":5064007},{"NoteNumber":71,"Velocity":23,"Duration":108092,"SoundDuration":108092,"Delta":5064007},{"NoteNumber":73,"Velocity":40,"Duration":108092,"SoundDuration":108092,"Delta":5064007},{"NoteNumber":61,"Velocity":30,"Duration":54046,"SoundDuration":54046,"Delta":5226146},{"NoteNumber":66,"Velocity":43,"Duration":109273,"SoundDuration":109273,"Delta":5280192},{"NoteNumber":64,"Velocity":19,"Duration":109273,"SoundDuration":109273,"Delta":5498740},{"NoteNumber":71,"Velocity":23,"Duration":109273,"SoundDuration":109273,"Delta":5498740},{"NoteNumber":63,"Velocity":30,"Duration":54636,"SoundDuration":54636,"Delta":5662651},{"NoteNumber":68,"Velocity":36,"Duration":109273,"SoundDuration":109273,"Delta":5717287},{"NoteNumber":64,"Velocity":19,"Duration":109273,"SoundDuration":109273,"Delta":5935835},{"NoteNumber":71,"Velocity":23,"Duration":109273,"SoundDuration":109273,"Delta":5935835},{"NoteNumber":56,"Velocity":31,"Duration":54636,"SoundDuration":54636,"Delta":6099746},{"NoteNumber":61,"Velocity":40,"Duration":112553,"SoundDuration":112553,"Delta":6154382},{"NoteNumber":64,"Velocity":19,"Duration":112553,"SoundDuration":112553,"Delta":6379489},{"NoteNumber":71,"Velocity":23,"Duration":112553,"SoundDuration":112553,"Delta":6379489},{"NoteNumber":61,"Velocity":30,"Duration":1358078,"SoundDuration":1358078,"Delta":6548320},{"NoteNumber":64,"Velocity":29,"Duration":108483,"SoundDuration":108483,"Delta":6604596},{"NoteNumber":66,"Velocity":36,"Duration":1301802,"SoundDuration":1301802,"Delta":6604596},{"NoteNumber":64,"Velocity":19,"Duration":108483,"SoundDuration":108483,"Delta":6821563},{"NoteNumber":71,"Velocity":23,"Duration":108483,"SoundDuration":108483,"Delta":6821563},{"NoteNumber":64,"Velocity":19,"Duration":108483,"SoundDuration":108483,"Delta":7255497},{"NoteNumber":71,"Velocity":23,"Duration":108483,"SoundDuration":108483,"Delta":7255497},{"NoteNumber":64,"Velocity":19,"Duration":108483,"SoundDuration":108483,"Delta":7689431},{"NoteNumber":71,"Velocity":23,"Duration":108483,"SoundDuration":108483,"Delta":7689431},{"NoteNumber":63,"Velocity":30,"Duration":1376389,"SoundDuration":1376389,"Delta":7852157},{"NoteNumber":68,"Velocity":36,"Duration":1322148,"SoundDuration":1322148,"Delta":7906398},{"NoteNumber":71,"Velocity":22,"Duration":218547,"SoundDuration":218547,"Delta":8124946},{"NoteNumber":64,"Velocity":18,"Duration":218547,"SoundDuration":218547,"Delta":8124946},{"NoteNumber":71,"Velocity":22,"Duration":218547,"SoundDuration":218547,"Delta":8562041},{"NoteNumber":64,"Velocity":18,"Duration":218547,"SoundDuration":218547,"Delta":8562041},{"NoteNumber":71,"Velocity":22,"Duration":114705,"SoundDuration":114705,"Delta":8999136},{"NoteNumber":64,"Velocity":18,"Duration":114705,"SoundDuration":114705,"Delta":8999136},{"NoteNumber":59,"Velocity":37,"Duration":109673,"SoundDuration":109673,"Delta":9228546},{"NoteNumber":40,"Velocity":57,"Duration":438693,"SoundDuration":438693,"Delta":9228546},{"NoteNumber":71,"Velocity":34,"Duration":109673,"SoundDuration":109673,"Delta":9447893},{"NoteNumber":64,"Velocity":28,"Duration":109673,"SoundDuration":109673,"Delta":9447893},{"NoteNumber":64,"Velocity":47,"Duration":109673,"SoundDuration":109673,"Delta":9667239},{"NoteNumber":64,"Velocity":24,"Duration":109673,"SoundDuration":109673,"Delta":9886586},{"NoteNumber":71,"Velocity":29,"Duration":109673,"SoundDuration":109673,"Delta":9886586},{"NoteNumber":64,"Velocity":44,"Duration":109673,"SoundDuration":109673,"Delta":10105932},{"NoteNumber":64,"Velocity":24,"Duration":109673,"SoundDuration":109673,"Delta":10325279},{"NoteNumber":71,"Velocity":29,"Duration":109673,"SoundDuration":109673,"Delta":10325279},{"NoteNumber":64,"Velocity":37,"Duration":108483,"SoundDuration":108483,"Delta":10544625},{"NoteNumber":64,"Velocity":24,"Duration":108483,"SoundDuration":108483,"Delta":10761592},{"NoteNumber":71,"Velocity":29,"Duration":108483,"SoundDuration":108483,"Delta":10761592},{"NoteNumber":70,"Velocity":38,"Duration":54241,"SoundDuration":54241,"Delta":10924318},{"NoteNumber":75,"Velocity":51,"Duration":105805,"SoundDuration":105805,"Delta":10978559},{"NoteNumber":64,"Velocity":24,"Duration":105805,"SoundDuration":105805,"Delta":11190170},{"NoteNumber":71,"Velocity":29,"Duration":105805,"SoundDuration":105805,"Delta":11190170},{"NoteNumber":75,"Velocity":39,"Duration":52902,"SoundDuration":52902,"Delta":11348878},{"NoteNumber":80,"Velocity":54,"Duration":109273,"SoundDuration":109273,"Delta":11401780},{"NoteNumber":64,"Velocity":24,"Duration":109273,"SoundDuration":109273,"Delta":11620328},{"NoteNumber":71,"Velocity":29,"Duration":109273,"SoundDuration":109273,"Delta":11620328},{"NoteNumber":68,"Velocity":38,"Duration":54636,"SoundDuration":54636,"Delta":11784239},{"NoteNumber":73,"Velocity":53,"Duration":883848,"SoundDuration":883848,"Delta":11838875},{"NoteNumber":64,"Velocity":24,"Duration":110481,"SoundDuration":110481,"Delta":12059837},{"NoteNumber":71,"Velocity":29,"Duration":110481,"SoundDuration":110481,"Delta":12059837},{"NoteNumber":64,"Velocity":24,"Duration":110481,"SoundDuration":110481,"Delta":12501761},{"NoteNumber":71,"Velocity":29,"Duration":110481,"SoundDuration":110481,"Delta":12501761},{"NoteNumber":70,"Velocity":38,"Duration":55240,"SoundDuration":55240,"Delta":12667483},{"NoteNumber":75,"Velocity":51,"Duration":108092,"SoundDuration":108092,"Delta":12722723},{"NoteNumber":63,"Velocity":31,"Duration":54046,"SoundDuration":54046,"Delta":12884862},{"NoteNumber":68,"Velocity":43,"Duration":108092,"SoundDuration":108092,"Delta":12938908},{"NoteNumber":64,"Velocity":24,"Duration":108092,"SoundDuration":108092,"Delta":12938908},{"NoteNumber":71,"Velocity":29,"Duration":108092,"SoundDuration":108092,"Delta":12938908},{"NoteNumber":68,"Velocity":38,"Duration":54046,"SoundDuration":54046,"Delta":13101047},{"NoteNumber":73,"Velocity":53,"Duration":108483,"SoundDuration":108483,"Delta":13155093},{"NoteNumber":64,"Velocity":25,"Duration":108483,"SoundDuration":108483,"Delta":13372060},{"NoteNumber":71,"Velocity":30,"Duration":108483,"SoundDuration":108483,"Delta":13372060},{"NoteNumber":70,"Velocity":40,"Duration":54241,"SoundDuration":54241,"Delta":13534786},{"NoteNumber":75,"Velocity":55,"Duration":105805,"SoundDuration":105805,"Delta":13589027},{"NoteNumber":64,"Velocity":27,"Duration":105805,"SoundDuration":105805,"Delta":13800638},{"NoteNumber":71,"Velocity":32,"Duration":105805,"SoundDuration":105805,"Delta":13800638},{"NoteNumber":75,"Velocity":45,"Duration":52902,"SoundDuration":52902,"Delta":13959346},{"NoteNumber":80,"Velocity":59,"Duration":109273,"SoundDuration":109273,"Delta":14012248},{"NoteNumber":64,"Velocity":29,"Duration":109273,"SoundDuration":109273,"Delta":14230796},{"NoteNumber":71,"Velocity":35,"Duration":109273,"SoundDuration":109273,"Delta":14230796},{"NoteNumber":68,"Velocity":47,"Duration":54636,"SoundDuration":54636,"Delta":14394707},{"NoteNumber":73,"Velocity":57,"Duration":883848,"SoundDuration":883848,"Delta":14449343},{"NoteNumber":64,"Velocity":28,"Duration":110481,"SoundDuration":110481,"Delta":14670305},{"NoteNumber":71,"Velocity":34,"Duration":110481,"SoundDuration":110481,"Delta":14670305},{"NoteNumber":64,"Velocity":27,"Duration":110481,"SoundDuration":110481,"Delta":15112229},{"NoteNumber":71,"Velocity":32,"Duration":110481,"SoundDuration":110481,"Delta":15112229},{"NoteNumber":63,"Velocity":42,"Duration":379518,"SoundDuration":379518,"Delta":15277951},{"NoteNumber":68,"Velocity":49,"Duration":324277,"SoundDuration":324277,"Delta":15333191},{"NoteNumber":64,"Velocity":24,"Duration":108092,"SoundDuration":108092,"Delta":15549376},{"NoteNumber":71,"Velocity":29,"Duration":108092,"SoundDuration":108092,"Delta":15549376},{"NoteNumber":61,"Velocity":51,"Duration":396141,"SoundDuration":396141,"Delta":15711515},{"NoteNumber":66,"Velocity":62,"Duration":341504,"SoundDuration":341504,"Delta":15766152},{"NoteNumber":64,"Velocity":31,"Duration":113834,"SoundDuration":113834,"Delta":15993822},{"NoteNumber":71,"Velocity":37,"Duration":113834,"SoundDuration":113834,"Delta":15993822},{"NoteNumber":63,"Velocity":39,"Duration":927980,"SoundDuration":927980,"Delta":16164574},{"NoteNumber":68,"Velocity":46,"Duration":871062,"SoundDuration":871062,"Delta":16221491},{"NoteNumber":64,"Velocity":24,"Duration":109673,"SoundDuration":109673,"Delta":16440838},{"NoteNumber":71,"Velocity":29,"Duration":109673,"SoundDuration":109673,"Delta":16440838},{"NoteNumber":64,"Velocity":21,"Duration":108092,"SoundDuration":108092,"Delta":16876369},{"NoteNumber":71,"Velocity":25,"Duration":108092,"SoundDuration":108092,"Delta":16876369},{"NoteNumber":47,"Velocity":49,"Duration":364787,"SoundDuration":364787,"Delta":17038508},{"NoteNumber":59,"Velocity":37,"Duration":109673,"SoundDuration":109673,"Delta":17092554},{"NoteNumber":54,"Velocity":57,"Duration":219346,"SoundDuration":219346,"Delta":17092554},{"NoteNumber":71,"Velocity":34,"Duration":109673,"SoundDuration":109673,"Delta":17311901},{"NoteNumber":66,"Velocity":28,"Duration":109673,"SoundDuration":109673,"Delta":17311901},{"NoteNumber":59,"Velocity":47,"Duration":109673,"SoundDuration":109673,"Delta":17531247},{"NoteNumber":59,"Velocity":24,"Duration":109673,"SoundDuration":109673,"Delta":17750594},{"NoteNumber":66,"Velocity":24,"Duration":109673,"SoundDuration":109673,"Delta":17750594},{"NoteNumber":71,"Velocity":29,"Duration":109673,"SoundDuration":109673,"Delta":17750594},{"NoteNumber":59,"Velocity":44,"Duration":109673,"SoundDuration":109673,"Delta":17969940},{"NoteNumber":59,"Velocity":24,"Duration":109673,"SoundDuration":109673,"Delta":18189287},{"NoteNumber":66,"Velocity":24,"Duration":109673,"SoundDuration":109673,"Delta":18189287},{"NoteNumber":71,"Velocity":29,"Duration":109673,"SoundDuration":109673,"Delta":18189287},{"NoteNumber":59,"Velocity":47,"Duration":219346,"SoundDuration":219346,"Delta":18408633},{"NoteNumber":59,"Velocity":24,"Duration":109673,"SoundDuration":109673,"Delta":18627980},{"NoteNumber":66,"Velocity":24,"Duration":109673,"SoundDuration":109673,"Delta":18627980},{"NoteNumber":71,"Velocity":29,"Duration":109673,"SoundDuration":109673,"Delta":18627980},{"NoteNumber":61,"Velocity":45,"Duration":216967,"SoundDuration":216967,"Delta":18847326},{"NoteNumber":71,"Velocity":29,"Duration":108483,"SoundDuration":108483,"Delta":19064293},{"NoteNumber":61,"Velocity":24,"Duration":108483,"SoundDuration":108483,"Delta":19064293},{"NoteNumber":66,"Velocity":24,"Duration":108483,"SoundDuration":108483,"Delta":19064293},{"NoteNumber":64,"Velocity":45,"Duration":216967,"SoundDuration":216967,"Delta":19281260},{"NoteNumber":64,"Velocity":24,"Duration":114268,"SoundDuration":114268,"Delta":19498227},{"NoteNumber":66,"Velocity":24,"Duration":114268,"SoundDuration":114268,"Delta":19498227},{"NoteNumber":71,"Velocity":29,"Duration":114268,"SoundDuration":114268,"Delta":19498227},{"NoteNumber":63,"Velocity":47,"Duration":162725,"SoundDuration":162725,"Delta":19726764},{"NoteNumber":63,"Velocity":24,"Duration":108483,"SoundDuration":108483,"Delta":19943731},{"NoteNumber":66,"Velocity":24,"Duration":108483,"SoundDuration":108483,"Delta":19943731},{"NoteNumber":71,"Velocity":29,"Duration":108483,"SoundDuration":108483,"Delta":19943731},{"NoteNumber":71,"Velocity":29,"Duration":108483,"SoundDuration":108483,"Delta":20377665},{"NoteNumber":63,"Velocity":24,"Duration":108483,"SoundDuration":108483,"Delta":20377665},{"NoteNumber":66,"Velocity":24,"Duration":108483,"SoundDuration":108483,"Delta":20377665},{"NoteNumber":62,"Velocity":41,"Duration":162725,"SoundDuration":162725,"Delta":20594632},{"NoteNumber":62,"Velocity":24,"Duration":113404,"SoundDuration":113404,"Delta":20811599},{"NoteNumber":66,"Velocity":24,"Duration":113404,"SoundDuration":113404,"Delta":20811599},{"NoteNumber":71,"Velocity":29,"Duration":113404,"SoundDuration":113404,"Delta":20811599},{"NoteNumber":61,"Velocity":47,"Duration":162725,"SoundDuration":162725,"Delta":21038408},{"NoteNumber":56,"Velocity":47,"Duration":2595962,"SoundDuration":2595962,"Delta":21038408},{"NoteNumber":61,"Velocity":24,"Duration":108483,"SoundDuration":108483,"Delta":21255375},{"NoteNumber":66,"Velocity":24,"Duration":108483,"SoundDuration":108483,"Delta":21255375},{"NoteNumber":71,"Velocity":29,"Duration":108483,"SoundDuration":108483,"Delta":21255375},{"NoteNumber":61,"Velocity":30,"Duration":162725,"SoundDuration":162725,"Delta":21472342},{"NoteNumber":61,"Velocity":24,"Duration":108483,"SoundDuration":108483,"Delta":21689309},{"NoteNumber":66,"Velocity":24,"Duration":108483,"SoundDuration":108483,"Delta":21689309},{"NoteNumber":71,"Velocity":29,"Duration":108483,"SoundDuration":108483,"Delta":21689309},{"NoteNumber":61,"Velocity":30,"Duration":162725,"SoundDuration":162725,"Delta":21906276},{"NoteNumber":61,"Velocity":24,"Duration":108483,"SoundDuration":108483,"Delta":22123243},{"NoteNumber":66,"Velocity":24,"Duration":108483,"SoundDuration":108483,"Delta":22123243},{"NoteNumber":71,"Velocity":29,"Duration":108483,"SoundDuration":108483,"Delta":22123243},{"NoteNumber":61,"Velocity":30,"Duration":162725,"SoundDuration":162725,"Delta":22340210},{"NoteNumber":61,"Velocity":24,"Duration":108483,"SoundDuration":108483,"Delta":22557177},{"NoteNumber":66,"Velocity":24,"Duration":108483,"SoundDuration":108483,"Delta":22557177},{"NoteNumber":71,"Velocity":29,"Duration":108483,"SoundDuration":108483,"Delta":22557177},{"NoteNumber":63,"Velocity":50,"Duration":159269,"SoundDuration":159269,"Delta":22774144},{"NoteNumber":63,"Velocity":24,"Duration":106179,"SoundDuration":106179,"Delta":22986503},{"NoteNumber":66,"Velocity":24,"Duration":106179,"SoundDuration":106179,"Delta":22986503},{"NoteNumber":71,"Velocity":29,"Duration":106179,"SoundDuration":106179,"Delta":22986503},{"NoteNumber":66,"Velocity":50,"Duration":163315,"SoundDuration":163315,"Delta":23198863},{"NoteNumber":66,"Velocity":24,"Duration":108876,"SoundDuration":108876,"Delta":23416617},{"NoteNumber":71,"Velocity":29,"Duration":108876,"SoundDuration":108876,"Delta":23416617},{"NoteNumber":65,"Velocity":47,"Duration":867868,"SoundDuration":867868,"Delta":23634371},{"NoteNumber":68,"Velocity":24,"Duration":108483,"SoundDuration":108483,"Delta":23851338},{"NoteNumber":71,"Velocity":29,"Duration":108483,"SoundDuration":108483,"Delta":23851338},{"NoteNumber":71,"Velocity":29,"Duration":108483,"SoundDuration":108483,"Delta":24285272},{"NoteNumber":68,"Velocity":24,"Duration":108483,"SoundDuration":108483,"Delta":24285272},{"NoteNumber":64,"Velocity":41,"Duration":216967,"SoundDuration":216967,"Delta":24502239},{"NoteNumber":68,"Velocity":24,"Duration":113404,"SoundDuration":113404,"Delta":24719206},{"NoteNumber":71,"Velocity":29,"Duration":113404,"SoundDuration":113404,"Delta":24719206},{"NoteNumber":63,"Velocity":47,"Duration":159835,"SoundDuration":159835,"Delta":24946015},{"NoteNumber":56,"Velocity":47,"Duration":2592558,"SoundDuration":2592558,"Delta":24946015},{"NoteNumber":63,"Velocity":24,"Duration":106556,"SoundDuration":106556,"Delta":25159128},{"NoteNumber":68,"Velocity":24,"Duration":106556,"SoundDuration":106556,"Delta":25159128},{"NoteNumber":71,"Velocity":29,"Duration":106556,"SoundDuration":106556,"Delta":25159128},{"NoteNumber":63,"Velocity":24,"Duration":108092,"SoundDuration":108092,"Delta":25588427},{"NoteNumber":68,"Velocity":24,"Duration":108092,"SoundDuration":108092,"Delta":25588427},{"NoteNumber":71,"Velocity":29,"Duration":108092,"SoundDuration":108092,"Delta":25588427},{"NoteNumber":61,"Velocity":46,"Duration":216185,"SoundDuration":216185,"Delta":25804612},{"NoteNumber":63,"Velocity":25,"Duration":108092,"SoundDuration":108092,"Delta":26020797},{"NoteNumber":68,"Velocity":25,"Duration":108092,"SoundDuration":108092,"Delta":26020797},{"NoteNumber":71,"Velocity":30,"Duration":108092,"SoundDuration":108092,"Delta":26020797},{"NoteNumber":65,"Velocity":31,"Duration":159835,"SoundDuration":159835,"Delta":26236982},{"NoteNumber":65,"Velocity":25,"Duration":106556,"SoundDuration":106556,"Delta":26450095},{"NoteNumber":68,"Velocity":25,"Duration":106556,"SoundDuration":106556,"Delta":26450095},{"NoteNumber":71,"Velocity":30,"Duration":106556,"SoundDuration":106556,"Delta":26450095},{"NoteNumber":61,"Velocity":47,"Duration":216184,"SoundDuration":216184,"Delta":26663209},{"NoteNumber":65,"Velocity":26,"Duration":108092,"SoundDuration":108092,"Delta":26879394},{"NoteNumber":68,"Velocity":26,"Duration":108092,"SoundDuration":108092,"Delta":26879394},{"NoteNumber":71,"Velocity":31,"Duration":108092,"SoundDuration":108092,"Delta":26879394},{"NoteNumber":65,"Velocity":48,"Duration":162138,"SoundDuration":162138,"Delta":27095579},{"NoteNumber":65,"Velocity":26,"Duration":113404,"SoundDuration":113404,"Delta":27311764},{"NoteNumber":68,"Velocity":26,"Duration":113404,"SoundDuration":113404,"Delta":27311764},{"NoteNumber":71,"Velocity":31,"Duration":113404,"SoundDuration":113404,"Delta":27311764},{"NoteNumber":63,"Velocity":51,"Duration":159835,"SoundDuration":159835,"Delta":27538573},{"NoteNumber":56,"Velocity":51,"Duration":2623161,"SoundDuration":2623161,"Delta":27538573},{"NoteNumber":63,"Velocity":27,"Duration":106556,"SoundDuration":106556,"Delta":27751686},{"NoteNumber":68,"Velocity":27,"Duration":106556,"SoundDuration":106556,"Delta":27751686},{"NoteNumber":71,"Velocity":32,"Duration":106556,"SoundDuration":106556,"Delta":27751686},{"NoteNumber":63,"Velocity":27,"Duration":107704,"SoundDuration":107704,"Delta":28180209},{"NoteNumber":68,"Velocity":27,"Duration":107704,"SoundDuration":107704,"Delta":28180209},{"NoteNumber":71,"Velocity":32,"Duration":107704,"SoundDuration":107704,"Delta":28180209},{"NoteNumber":61,"Velocity":53,"Duration":215409,"SoundDuration":215409,"Delta":28395618},{"NoteNumber":63,"Velocity":28,"Duration":111715,"SoundDuration":111715,"Delta":28611027},{"NoteNumber":68,"Velocity":28,"Duration":111715,"SoundDuration":111715,"Delta":28611027},{"NoteNumber":71,"Velocity":33,"Duration":111715,"SoundDuration":111715,"Delta":28611027},{"NoteNumber":65,"Velocity":35,"Duration":161556,"SoundDuration":161556,"Delta":28834457},{"NoteNumber":65,"Velocity":28,"Duration":107704,"SoundDuration":107704,"Delta":29049866},{"NoteNumber":68,"Velocity":28,"Duration":107704,"SoundDuration":107704,"Delta":29049866},{"NoteNumber":71,"Velocity":34,"Duration":107704,"SoundDuration":107704,"Delta":29049866},{"NoteNumber":61,"Velocity":54,"Duration":218547,"SoundDuration":218547,"Delta":29265275},{"NoteNumber":65,"Velocity":29,"Duration":109273,"SoundDuration":109273,"Delta":29483823},{"NoteNumber":68,"Velocity":29,"Duration":109273,"SoundDuration":109273,"Delta":29483823},{"NoteNumber":71,"Velocity":35,"Duration":109273,"SoundDuration":109273,"Delta":29483823},{"NoteNumber":65,"Velocity":54,"Duration":166333,"SoundDuration":166333,"Delta":29702370},{"NoteNumber":65,"Velocity":29,"Duration":118793,"SoundDuration":118793,"Delta":29924149},{"NoteNumber":68,"Velocity":29,"Duration":118793,"SoundDuration":118793,"Delta":29924149},{"NoteNumber":71,"Velocity":35,"Duration":118793,"SoundDuration":118793,"Delta":29924149},{"NoteNumber":68,"Velocity":57,"Duration":319670,"SoundDuration":319670,"Delta":30161735},{"NoteNumber":71,"Velocity":41,"Duration":106556,"SoundDuration":106556,"Delta":30374848},{"NoteNumber":68,"Velocity":34,"Duration":537391,"SoundDuration":537391,"Delta":30374848},{"NoteNumber":68,"Velocity":34,"Duration":216184,"SoundDuration":216184,"Delta":30804147},{"NoteNumber":71,"Velocity":40,"Duration":108092,"SoundDuration":108092,"Delta":30804147},{"NoteNumber":67,"Velocity":49,"Duration":439615,"SoundDuration":439615,"Delta":31020332},{"NoteNumber":68,"Velocity":34,"Duration":111715,"SoundDuration":111715,"Delta":31236517},{"NoteNumber":71,"Velocity":40,"Duration":111715,"SoundDuration":111715,"Delta":31236517},{"NoteNumber":66,"Velocity":50,"Duration":867868,"SoundDuration":867868,"Delta":31459947},{"NoteNumber":68,"Velocity":34,"Duration":108483,"SoundDuration":108483,"Delta":31676914},{"NoteNumber":71,"Velocity":40,"Duration":108483,"SoundDuration":108483,"Delta":31676914},{"NoteNumber":71,"Velocity":38,"Duration":108483,"SoundDuration":108483,"Delta":32110848},{"NoteNumber":68,"Velocity":32,"Duration":108483,"SoundDuration":108483,"Delta":32110848},{"NoteNumber":65,"Velocity":46,"Duration":433934,"SoundDuration":433934,"Delta":32327815},{"NoteNumber":71,"Velocity":38,"Duration":108483,"SoundDuration":108483,"Delta":32544782},{"NoteNumber":68,"Velocity":32,"Duration":108483,"SoundDuration":108483,"Delta":32544782},{"NoteNumber":68,"Velocity":57,"Duration":317085,"SoundDuration":317085,"Delta":32761749},{"NoteNumber":71,"Velocity":41,"Duration":103971,"SoundDuration":103971,"Delta":32974863},{"NoteNumber":68,"Velocity":34,"Duration":532220,"SoundDuration":532220,"Delta":32974863},{"NoteNumber":75,"Velocity":49,"Duration":216185,"SoundDuration":216185,"Delta":33182806},{"NoteNumber":68,"Velocity":34,"Duration":216184,"SoundDuration":216184,"Delta":33398991},{"NoteNumber":71,"Velocity":40,"Duration":108092,"SoundDuration":108092,"Delta":33398991},{"NoteNumber":67,"Velocity":49,"Duration":439615,"SoundDuration":439615,"Delta":33615176},{"NoteNumber":68,"Velocity":34,"Duration":111715,"SoundDuration":111715,"Delta":33831361},{"NoteNumber":71,"Velocity":40,"Duration":111715,"SoundDuration":111715,"Delta":33831361},{"NoteNumber":66,"Velocity":50,"Duration":876740,"SoundDuration":876740,"Delta":34054792},{"NoteNumber":68,"Velocity":34,"Duration":112132,"SoundDuration":112132,"Delta":34271759},{"NoteNumber":71,"Velocity":40,"Duration":112132,"SoundDuration":112132,"Delta":34271759},{"NoteNumber":80,"Velocity":49,"Duration":217753,"SoundDuration":217753,"Delta":34496024},{"NoteNumber":71,"Velocity":38,"Duration":108876,"SoundDuration":108876,"Delta":34713778},{"NoteNumber":68,"Velocity":32,"Duration":108876,"SoundDuration":108876,"Delta":34713778},{"NoteNumber":65,"Velocity":46,"Duration":453473,"SoundDuration":453473,"Delta":34931532},{"NoteNumber":71,"Velocity":38,"Duration":117859,"SoundDuration":117859,"Delta":35149286},{"NoteNumber":68,"Velocity":32,"Duration":117859,"SoundDuration":117859,"Delta":35149286},{"NoteNumber":68,"Velocity":42,"Duration":892233,"SoundDuration":892233,"Delta":35385006},{"NoteNumber":71,"Velocity":32,"Duration":108876,"SoundDuration":108876,"Delta":35609271},{"NoteNumber":74,"Velocity":36,"Duration":225107,"SoundDuration":225107,"Delta":35827025},{"NoteNumber":71,"Velocity":33,"Duration":112553,"SoundDuration":112553,"Delta":36052132},{"NoteNumber":67,"Velocity":36,"Duration":471472,"SoundDuration":471472,"Delta":36277239},{"NoteNumber":71,"Velocity":30,"Duration":123182,"SoundDuration":123182,"Delta":36502346},{"NoteNumber":66,"Velocity":41,"Duration":974651,"SoundDuration":974651,"Delta":36748712},{"NoteNumber":71,"Velocity":27,"Duration":124719,"SoundDuration":124719,"Delta":36989155},{"NoteNumber":75,"Velocity":31,"Duration":242384,"SoundDuration":242384,"Delta":37238594},{"NoteNumber":71,"Velocity":23,"Duration":121192,"SoundDuration":121192,"Delta":37480979},{"NoteNumber":65,"Velocity":25,"Duration":507239,"SoundDuration":507239,"Delta":37723364},{"NoteNumber":71,"Velocity":26,"Duration":132426,"SoundDuration":132426,"Delta":37965749},{"NoteNumber":59,"Velocity":25,"Duration":308598,"SoundDuration":308598,"Delta":38164389},{"NoteNumber":64,"Velocity":40,"Duration":242384,"SoundDuration":242384,"Delta":38230603},{"NoteNumber":40,"Velocity":25,"Duration":242384,"SoundDuration":242384,"Delta":38230603},{"NoteNumber":52,"Velocity":33,"Duration":242384,"SoundDuration":242384,"Delta":38230603},{"NoteNumber":71,"Velocity":33,"Duration":242384,"SoundDuration":242384,"Delta":38472988},{"NoteNumber":75,"Velocity":29,"Duration":232072,"SoundDuration":232072,"Delta":38715373},{"NoteNumber":80,"Velocity":42,"Duration":232072,"SoundDuration":232072,"Delta":38715373},{"NoteNumber":64,"Velocity":20,"Duration":174054,"SoundDuration":174054,"Delta":38715373},{"NoteNumber":71,"Velocity":24,"Duration":174054,"SoundDuration":174054,"Delta":38715373},{"NoteNumber":63,"Velocity":29,"Duration":928289,"SoundDuration":928289,"Delta":38715373},{"NoteNumber":75,"Velocity":35,"Duration":232072,"SoundDuration":232072,"Delta":38947445},{"NoteNumber":68,"Velocity":24,"Duration":232072,"SoundDuration":232072,"Delta":38947445},{"NoteNumber":64,"Velocity":20,"Duration":348108,"SoundDuration":348108,"Delta":38947445},{"NoteNumber":71,"Velocity":24,"Duration":348108,"SoundDuration":348108,"Delta":38947445},{"NoteNumber":80,"Velocity":34,"Duration":232072,"SoundDuration":232072,"Delta":39179518},{"NoteNumber":85,"Velocity":48,"Duration":232072,"SoundDuration":232072,"Delta":39179518},{"NoteNumber":75,"Velocity":26,"Duration":232072,"SoundDuration":232072,"Delta":39411590},{"NoteNumber":80,"Velocity":37,"Duration":232072,"SoundDuration":232072,"Delta":39411590},{"NoteNumber":64,"Velocity":20,"Duration":174054,"SoundDuration":174054,"Delta":39411590},{"NoteNumber":71,"Velocity":24,"Duration":174054,"SoundDuration":174054,"Delta":39411590},{"NoteNumber":78,"Velocity":43,"Duration":895641,"SoundDuration":895641,"Delta":39643663},{"NoteNumber":73,"Velocity":43,"Duration":170752,"SoundDuration":170752,"Delta":39643663},{"NoteNumber":64,"Velocity":24,"Duration":170752,"SoundDuration":170752,"Delta":39643663},{"NoteNumber":69,"Velocity":29,"Duration":170752,"SoundDuration":170752,"Delta":39643663},{"NoteNumber":61,"Velocity":28,"Duration":895641,"SoundDuration":895641,"Delta":39643663},{"NoteNumber":66,"Velocity":22,"Duration":337745,"SoundDuration":337745,"Delta":39871332},{"NoteNumber":73,"Velocity":32,"Duration":337745,"SoundDuration":337745,"Delta":39871332},{"NoteNumber":64,"Velocity":20,"Duration":337745,"SoundDuration":337745,"Delta":39871332},{"NoteNumber":69,"Velocity":24,"Duration":337745,"SoundDuration":337745,"Delta":39871332},{"NoteNumber":73,"Velocity":32,"Duration":165113,"SoundDuration":165113,"Delta":40319153},{"NoteNumber":66,"Velocity":22,"Duration":165113,"SoundDuration":165113,"Delta":40319153},{"NoteNumber":64,"Velocity":20,"Duration":165113,"SoundDuration":165113,"Delta":40319153},{"NoteNumber":69,"Velocity":24,"Duration":165113,"SoundDuration":165113,"Delta":40319153},{"NoteNumber":75,"Velocity":28,"Duration":220150,"SoundDuration":220150,"Delta":40539304},{"NoteNumber":80,"Velocity":40,"Duration":220150,"SoundDuration":220150,"Delta":40539304},{"NoteNumber":64,"Velocity":24,"Duration":454032,"SoundDuration":454032,"Delta":40539304},{"NoteNumber":71,"Velocity":29,"Duration":454032,"SoundDuration":454032,"Delta":40539304},{"NoteNumber":63,"Velocity":21,"Duration":454032,"SoundDuration":454032,"Delta":40539304},{"NoteNumber":68,"Velocity":28,"Duration":233881,"SoundDuration":233881,"Delta":40759455},{"NoteNumber":73,"Velocity":40,"Duration":233881,"SoundDuration":233881,"Delta":40759455},{"NoteNumber":78,"Velocity":44,"Duration":226809,"SoundDuration":226809,"Delta":40993336},{"NoteNumber":73,"Velocity":31,"Duration":226809,"SoundDuration":226809,"Delta":40993336},{"NoteNumber":64,"Velocity":24,"Duration":453617,"SoundDuration":453617,"Delta":40993336},{"NoteNumber":69,"Velocity":29,"Duration":453617,"SoundDuration":453617,"Delta":40993336},{"NoteNumber":61,"Velocity":28,"Duration":453617,"SoundDuration":453617,"Delta":40993336},{"NoteNumber":66,"Velocity":28,"Duration":226808,"SoundDuration":226808,"Delta":41220145},{"NoteNumber":73,"Velocity":40,"Duration":226808,"SoundDuration":226808,"Delta":41220145},{"NoteNumber":80,"Velocity":41,"Duration":222601,"SoundDuration":222601,"Delta":41446954},{"NoteNumber":75,"Velocity":28,"Duration":222601,"SoundDuration":222601,"Delta":41446954},{"NoteNumber":64,"Velocity":20,"Duration":166951,"SoundDuration":166951,"Delta":41446954},{"NoteNumber":71,"Velocity":24,"Duration":166951,"SoundDuration":166951,"Delta":41446954},{"NoteNumber":63,"Velocity":23,"Duration":903080,"SoundDuration":903080,"Delta":41446954},{"NoteNumber":68,"Velocity":28,"Duration":222601,"SoundDuration":222601,"Delta":41669556},{"NoteNumber":75,"Velocity":40,"Duration":222601,"SoundDuration":222601,"Delta":41669556},{"NoteNumber":64,"Velocity":20,"Duration":332274,"SoundDuration":332274,"Delta":41669556},{"NoteNumber":71,"Velocity":24,"Duration":332274,"SoundDuration":332274,"Delta":41669556},{"NoteNumber":80,"Velocity":34,"Duration":219346,"SoundDuration":219346,"Delta":41892157},{"NoteNumber":85,"Velocity":49,"Duration":219346,"SoundDuration":219346,"Delta":41892157},{"NoteNumber":80,"Velocity":41,"Duration":238530,"SoundDuration":238530,"Delta":42111504},{"NoteNumber":75,"Velocity":28,"Duration":238530,"SoundDuration":238530,"Delta":42111504},{"NoteNumber":64,"Velocity":20,"Duration":178897,"SoundDuration":178897,"Delta":42111504},{"NoteNumber":71,"Velocity":24,"Duration":178897,"SoundDuration":178897,"Delta":42111504},{"NoteNumber":78,"Velocity":51,"Duration":1355727,"SoundDuration":1355727,"Delta":42350034},{"NoteNumber":73,"Velocity":51,"Duration":169465,"SoundDuration":169465,"Delta":42350034},{"NoteNumber":64,"Velocity":24,"Duration":169465,"SoundDuration":169465,"Delta":42350034},{"NoteNumber":69,"Velocity":29,"Duration":169465,"SoundDuration":169465,"Delta":42350034},{"NoteNumber":61,"Velocity":29,"Duration":1355727,"SoundDuration":1355727,"Delta":42350034},{"NoteNumber":73,"Velocity":34,"Duration":338931,"SoundDuration":338931,"Delta":42575989},{"NoteNumber":66,"Velocity":23,"Duration":338931,"SoundDuration":338931,"Delta":42575989},{"NoteNumber":64,"Velocity":20,"Duration":338931,"SoundDuration":338931,"Delta":42575989},{"NoteNumber":69,"Velocity":24,"Duration":338931,"SoundDuration":338931,"Delta":42575989},{"NoteNumber":73,"Velocity":32,"Duration":338931,"SoundDuration":338931,"Delta":43027898},{"NoteNumber":66,"Velocity":22,"Duration":338931,"SoundDuration":338931,"Delta":43027898},{"NoteNumber":64,"Velocity":20,"Duration":338931,"SoundDuration":338931,"Delta":43027898},{"NoteNumber":69,"Velocity":24,"Duration":338931,"SoundDuration":338931,"Delta":43027898},{"NoteNumber":73,"Velocity":34,"Duration":169465,"SoundDuration":169465,"Delta":43479807},{"NoteNumber":66,"Velocity":23,"Duration":169465,"SoundDuration":169465,"Delta":43479807},{"NoteNumber":64,"Velocity":20,"Duration":169465,"SoundDuration":169465,"Delta":43479807},{"NoteNumber":69,"Velocity":24,"Duration":169465,"SoundDuration":169465,"Delta":43479807},{"NoteNumber":80,"Velocity":45,"Duration":446860,"SoundDuration":446860,"Delta":43705761},{"NoteNumber":75,"Velocity":32,"Duration":223430,"SoundDuration":223430,"Delta":43705761},{"NoteNumber":64,"Velocity":20,"Duration":446860,"SoundDuration":446860,"Delta":43705761},{"NoteNumber":71,"Velocity":24,"Duration":446860,"SoundDuration":446860,"Delta":43705761},{"NoteNumber":63,"Velocity":21,"Duration":446860,"SoundDuration":446860,"Delta":43705761},{"NoteNumber":75,"Velocity":23,"Duration":223430,"SoundDuration":223430,"Delta":43929192},{"NoteNumber":68,"Velocity":23,"Duration":223430,"SoundDuration":223430,"Delta":43929192},{"NoteNumber":73,"Velocity":28,"Duration":223430,"SoundDuration":223430,"Delta":44152622},{"NoteNumber":78,"Velocity":40,"Duration":446860,"SoundDuration":446860,"Delta":44152622},{"NoteNumber":64,"Velocity":20,"Duration":446860,"SoundDuration":446860,"Delta":44152622},{"NoteNumber":69,"Velocity":24,"Duration":446860,"SoundDuration":446860,"Delta":44152622},{"NoteNumber":61,"Velocity":18,"Duration":446860,"SoundDuration":446860,"Delta":44152622},{"NoteNumber":73,"Velocity":21,"Duration":223430,"SoundDuration":223430,"Delta":44376053},{"NoteNumber":66,"Velocity":21,"Duration":223430,"SoundDuration":223430,"Delta":44376053},{"NoteNumber":80,"Velocity":40,"Duration":459150,"SoundDuration":459150,"Delta":44599483},{"NoteNumber":75,"Velocity":28,"Duration":223430,"SoundDuration":223430,"Delta":44599483},{"NoteNumber":64,"Velocity":20,"Duration":459150,"SoundDuration":459150,"Delta":44599483},{"NoteNumber":71,"Velocity":24,"Duration":459150,"SoundDuration":459150,"Delta":44599483},{"NoteNumber":63,"Velocity":21,"Duration":459150,"SoundDuration":459150,"Delta":44599483},{"NoteNumber":75,"Velocity":22,"Duration":235719,"SoundDuration":235719,"Delta":44822914},{"NoteNumber":68,"Velocity":22,"Duration":235719,"SoundDuration":235719,"Delta":44822914},{"NoteNumber":64,"Velocity":26,"Duration":1368303,"SoundDuration":1368303,"Delta":45058633},{"NoteNumber":68,"Velocity":26,"Duration":1368303,"SoundDuration":1368303,"Delta":45058633},{"NoteNumber":73,"Velocity":49,"Duration":677863,"SoundDuration":677863,"Delta":45058633},{"NoteNumber":61,"Velocity":23,"Duration":203359,"SoundDuration":203359,"Delta":45058633},{"NoteNumber":59,"Velocity":23,"Duration":1368303,"SoundDuration":1368303,"Delta":45058633},{"NoteNumber":61,"Velocity":23,"Duration":406718,"SoundDuration":406718,"Delta":45284588},{"NoteNumber":75,"Velocity":37,"Duration":225954,"SoundDuration":225954,"Delta":45736497},{"NoteNumber":61,"Velocity":23,"Duration":406718,"SoundDuration":406718,"Delta":45736497},{"NoteNumber":73,"Velocity":37,"Duration":464485,"SoundDuration":464485,"Delta":45962451},{"NoteNumber":61,"Velocity":23,"Duration":418616,"SoundDuration":418616,"Delta":46188406},{"NoteNumber":64,"Velocity":26,"Duration":1364065,"SoundDuration":1364065,"Delta":46426936},{"NoteNumber":67,"Velocity":26,"Duration":1364065,"SoundDuration":1364065,"Delta":46426936},{"NoteNumber":75,"Velocity":44,"Duration":675320,"SoundDuration":675320,"Delta":46426936},{"NoteNumber":58,"Velocity":23,"Duration":1220947,"SoundDuration":1220947,"Delta":46426936},{"NoteNumber":61,"Velocity":23,"Duration":405192,"SoundDuration":405192,"Delta":46652043},{"NoteNumber":73,"Velocity":38,"Duration":225107,"SoundDuration":225107,"Delta":47102257},{"NoteNumber":61,"Velocity":23,"Duration":405192,"SoundDuration":405192,"Delta":47102257},{"NoteNumber":75,"Velocity":38,"Duration":463637,"SoundDuration":463637,"Delta":47327364},{"NoteNumber":61,"Velocity":23,"Duration":419977,"SoundDuration":419977,"Delta":47552471},{"NoteNumber":64,"Velocity":26,"Duration":1372575,"SoundDuration":1372575,"Delta":47791002},{"NoteNumber":71,"Velocity":28,"Duration":1372575,"SoundDuration":1372575,"Delta":47791002},{"NoteNumber":73,"Velocity":42,"Duration":680427,"SoundDuration":680427,"Delta":47791002},{"NoteNumber":56,"Velocity":23,"Duration":1372575,"SoundDuration":1372575,"Delta":47791002},{"NoteNumber":61,"Velocity":23,"Duration":408256,"SoundDuration":408256,"Delta":48017811},{"NoteNumber":75,"Velocity":37,"Duration":226808,"SoundDuration":226808,"Delta":48471429},{"NoteNumber":61,"Velocity":23,"Duration":408256,"SoundDuration":408256,"Delta":48471429},{"NoteNumber":73,"Velocity":37,"Duration":465339,"SoundDuration":465339,"Delta":48698238},{"NoteNumber":61,"Velocity":23,"Duration":419977,"SoundDuration":419977,"Delta":48925047},{"NoteNumber":64,"Velocity":26,"Duration":1373527,"SoundDuration":1373527,"Delta":49163577},{"NoteNumber":70,"Velocity":26,"Duration":1373527,"SoundDuration":1373527,"Delta":49163577},{"NoteNumber":75,"Velocity":41,"Duration":680427,"SoundDuration":680427,"Delta":49163577},{"NoteNumber":55,"Velocity":23,"Duration":1373527,"SoundDuration":1373527,"Delta":49163577},{"NoteNumber":61,"Velocity":23,"Duration":408256,"SoundDuration":408256,"Delta":49390386},{"NoteNumber":73,"Velocity":40,"Duration":226808,"SoundDuration":226808,"Delta":49844004},{"NoteNumber":61,"Velocity":23,"Duration":408256,"SoundDuration":408256,"Delta":49844004},{"NoteNumber":75,"Velocity":40,"Duration":466291,"SoundDuration":466291,"Delta":50070813},{"NoteNumber":61,"Velocity":23,"Duration":694821,"SoundDuration":694821,"Delta":50297622},{"NoteNumber":54,"Velocity":23,"Duration":2735893,"SoundDuration":2735893,"Delta":50537105},{"NoteNumber":68,"Velocity":23,"Duration":227669,"SoundDuration":227669,"Delta":50764774},{"NoteNumber":64,"Velocity":18,"Duration":227669,"SoundDuration":227669,"Delta":50764774},{"NoteNumber":59,"Velocity":18,"Duration":227669,"SoundDuration":227669,"Delta":50764774},{"NoteNumber":63,"Velocity":35,"Duration":165113,"SoundDuration":165113,"Delta":50992444},{"NoteNumber":68,"Velocity":23,"Duration":236648,"SoundDuration":236648,"Delta":51212595},{"NoteNumber":64,"Velocity":18,"Duration":236648,"SoundDuration":236648,"Delta":51212595},{"NoteNumber":59,"Velocity":18,"Duration":236648,"SoundDuration":236648,"Delta":51212595},{"NoteNumber":61,"Velocity":34,"Duration":177486,"SoundDuration":177486,"Delta":51212595},{"NoteNumber":63,"Velocity":38,"Duration":455339,"SoundDuration":455339,"Delta":51449244},{"NoteNumber":68,"Velocity":23,"Duration":227669,"SoundDuration":227669,"Delta":51676913},{"NoteNumber":64,"Velocity":18,"Duration":227669,"SoundDuration":227669,"Delta":51676913},{"NoteNumber":59,"Velocity":18,"Duration":227669,"SoundDuration":227669,"Delta":51676913},{"NoteNumber":61,"Velocity":40,"Duration":455339,"SoundDuration":455339,"Delta":51904583},{"NoteNumber":67,"Velocity":23,"Duration":227669,"SoundDuration":227669,"Delta":52132252},{"NoteNumber":64,"Velocity":18,"Duration":227669,"SoundDuration":227669,"Delta":52132252},{"NoteNumber":59,"Velocity":18,"Duration":227669,"SoundDuration":227669,"Delta":52132252},{"NoteNumber":63,"Velocity":31,"Duration":165113,"SoundDuration":165113,"Delta":52359922},{"NoteNumber":67,"Velocity":23,"Duration":237586,"SoundDuration":237586,"Delta":52580073},{"NoteNumber":64,"Velocity":18,"Duration":237586,"SoundDuration":237586,"Delta":52580073},{"NoteNumber":59,"Velocity":18,"Duration":237586,"SoundDuration":237586,"Delta":52580073},{"NoteNumber":61,"Velocity":26,"Duration":178189,"SoundDuration":178189,"Delta":52580073},{"NoteNumber":63,"Velocity":32,"Duration":455339,"SoundDuration":455339,"Delta":52817659},{"NoteNumber":67,"Velocity":23,"Duration":227669,"SoundDuration":227669,"Delta":53045328},{"NoteNumber":64,"Velocity":18,"Duration":227669,"SoundDuration":227669,"Delta":53045328},{"NoteNumber":59,"Velocity":18,"Duration":227669,"SoundDuration":227669,"Delta":53045328},{"NoteNumber":54,"Velocity":23,"Duration":1848191,"SoundDuration":1848191,"Delta":53272998},{"NoteNumber":61,"Velocity":37,"Duration":455338,"SoundDuration":455338,"Delta":53272998},{"NoteNumber":66,"Velocity":23,"Duration":227669,"SoundDuration":227669,"Delta":53500667},{"NoteNumber":64,"Velocity":18,"Duration":227669,"SoundDuration":227669,"Delta":53500667},{"NoteNumber":59,"Velocity":18,"Duration":227669,"SoundDuration":227669,"Delta":53500667},{"NoteNumber":63,"Velocity":26,"Duration":165721,"SoundDuration":165721,"Delta":53728337},{"NoteNumber":66,"Velocity":23,"Duration":237586,"SoundDuration":237586,"Delta":53949299},{"NoteNumber":64,"Velocity":18,"Duration":237586,"SoundDuration":237586,"Delta":53949299},{"NoteNumber":59,"Velocity":18,"Duration":237586,"SoundDuration":237586,"Delta":53949299},{"NoteNumber":61,"Velocity":27,"Duration":178189,"SoundDuration":178189,"Delta":53949299},{"NoteNumber":63,"Velocity":34,"Duration":455339,"SoundDuration":455339,"Delta":54186885},{"NoteNumber":66,"Velocity":23,"Duration":227669,"SoundDuration":227669,"Delta":54414554},{"NoteNumber":64,"Velocity":18,"Duration":227669,"SoundDuration":227669,"Delta":54414554},{"NoteNumber":59,"Velocity":18,"Duration":227669,"SoundDuration":227669,"Delta":54414554},{"NoteNumber":61,"Velocity":37,"Duration":478965,"SoundDuration":478965,"Delta":54642224},{"NoteNumber":66,"Velocity":23,"Duration":239482,"SoundDuration":239482,"Delta":54881706},{"NoteNumber":64,"Velocity":18,"Duration":239482,"SoundDuration":239482,"Delta":54881706},{"NoteNumber":58,"Velocity":18,"Duration":239482,"SoundDuration":239482,"Delta":54881706},{"NoteNumber":51,"Velocity":23,"Duration":465946,"SoundDuration":465946,"Delta":55121189},{"NoteNumber":66,"Velocity":23,"Duration":232973,"SoundDuration":232973,"Delta":55354162},{"NoteNumber":64,"Velocity":18,"Duration":232973,"SoundDuration":232973,"Delta":55354162},{"NoteNumber":58,"Velocity":18,"Duration":232973,"SoundDuration":232973,"Delta":55354162},{"NoteNumber":49,"Velocity":23,"Duration":500747,"SoundDuration":500747,"Delta":55587136},{"NoteNumber":66,"Velocity":23,"Duration":249217,"SoundDuration":249217,"Delta":55838666},{"NoteNumber":64,"Velocity":18,"Duration":249217,"SoundDuration":249217,"Delta":55838666},{"NoteNumber":58,"Velocity":18,"Duration":249217,"SoundDuration":249217,"Delta":55838666},{"NoteNumber":59,"Velocity":34,"Duration":224865,"SoundDuration":224865,"Delta":56087884},{"NoteNumber":47,"Velocity":40,"Duration":224865,"SoundDuration":224865,"Delta":56087884},{"NoteNumber":71,"Velocity":29,"Duration":112059,"SoundDuration":112059,"Delta":56312749},{"NoteNumber":66,"Velocity":29,"Duration":112059,"SoundDuration":112059,"Delta":56312749},{"NoteNumber":59,"Velocity":33,"Duration":111394,"SoundDuration":111394,"Delta":56536524},{"NoteNumber":66,"Velocity":24,"Duration":110889,"SoundDuration":110889,"Delta":56759146},{"NoteNumber":59,"Velocity":24,"Duration":110889,"SoundDuration":110889,"Delta":56759146},{"NoteNumber":71,"Velocity":29,"Duration":110889,"SoundDuration":110889,"Delta":56759146},{"NoteNumber":59,"Velocity":33,"Duration":110328,"SoundDuration":110328,"Delta":56980608},{"NoteNumber":59,"Velocity":24,"Duration":110075,"SoundDuration":110075,"Delta":57201013},{"NoteNumber":71,"Velocity":29,"Duration":110075,"SoundDuration":110075,"Delta":57201013},{"NoteNumber":66,"Velocity":24,"Duration":110075,"SoundDuration":110075,"Delta":57201013},{"NoteNumber":59,"Velocity":33,"Duration":110075,"SoundDuration":110075,"Delta":57421164},{"NoteNumber":59,"Velocity":24,"Duration":110075,"SoundDuration":110075,"Delta":57641315},{"NoteNumber":66,"Velocity":24,"Duration":110075,"SoundDuration":110075,"Delta":57641315},{"NoteNumber":71,"Velocity":29,"Duration":110075,"SoundDuration":110075,"Delta":57641315},{"NoteNumber":59,"Velocity":33,"Duration":108483,"SoundDuration":108483,"Delta":57861466},{"NoteNumber":59,"Velocity":24,"Duration":108483,"SoundDuration":108483,"Delta":58078433},{"NoteNumber":66,"Velocity":24,"Duration":108483,"SoundDuration":108483,"Delta":58078433},{"NoteNumber":71,"Velocity":29,"Duration":108483,"SoundDuration":108483,"Delta":58078433},{"NoteNumber":59,"Velocity":33,"Duration":108483,"SoundDuration":108483,"Delta":58295400},{"NoteNumber":59,"Velocity":24,"Duration":114268,"SoundDuration":114268,"Delta":58512367},{"NoteNumber":66,"Velocity":24,"Duration":114268,"SoundDuration":114268,"Delta":58512367},{"NoteNumber":71,"Velocity":29,"Duration":114268,"SoundDuration":114268,"Delta":58512367},{"NoteNumber":61,"Velocity":39,"Duration":668761,"SoundDuration":668761,"Delta":58740903},{"NoteNumber":59,"Velocity":39,"Duration":2686208,"SoundDuration":2686208,"Delta":58740903},{"NoteNumber":71,"Velocity":25,"Duration":112553,"SoundDuration":112553,"Delta":58966010},{"NoteNumber":66,"Velocity":21,"Duration":112553,"SoundDuration":112553,"Delta":58966010},{"NoteNumber":66,"Velocity":22,"Duration":112553,"SoundDuration":112553,"Delta":59409665},{"NoteNumber":71,"Velocity":26,"Duration":112553,"SoundDuration":112553,"Delta":59409665},{"NoteNumber":62,"Velocity":27,"Duration":225107,"SoundDuration":225107,"Delta":59409665},{"NoteNumber":64,"Velocity":35,"Duration":450214,"SoundDuration":450214,"Delta":59634772},{"NoteNumber":71,"Velocity":27,"Duration":112553,"SoundDuration":112553,"Delta":59859879},{"NoteNumber":66,"Velocity":22,"Duration":112553,"SoundDuration":112553,"Delta":59859879},{"NoteNumber":61,"Velocity":44,"Duration":450213,"SoundDuration":450213,"Delta":60084986},{"NoteNumber":66,"Velocity":23,"Duration":112553,"SoundDuration":112553,"Delta":60310093},{"NoteNumber":71,"Velocity":28,"Duration":112553,"SoundDuration":112553,"Delta":60310093},{"NoteNumber":62,"Velocity":34,"Duration":424719,"SoundDuration":424719,"Delta":60535200},{"NoteNumber":66,"Velocity":24,"Duration":106179,"SoundDuration":106179,"Delta":60747559},{"NoteNumber":71,"Velocity":29,"Duration":106179,"SoundDuration":106179,"Delta":60747559},{"NoteNumber":64,"Velocity":34,"Duration":467193,"SoundDuration":467193,"Delta":60959919},{"NoteNumber":71,"Velocity":31,"Duration":124719,"SoundDuration":124719,"Delta":61177673},{"NoteNumber":66,"Velocity":26,"Duration":124719,"SoundDuration":124719,"Delta":61177673},{"NoteNumber":65,"Velocity":45,"Duration":890442,"SoundDuration":890442,"Delta":61427112},{"NoteNumber":59,"Velocity":51,"Duration":2666316,"SoundDuration":2666316,"Delta":61427112},{"NoteNumber":71,"Velocity":31,"Duration":110889,"SoundDuration":110889,"Delta":61652219},{"NoteNumber":67,"Velocity":26,"Duration":110889,"SoundDuration":110889,"Delta":61652219},{"NoteNumber":67,"Velocity":25,"Duration":110889,"SoundDuration":110889,"Delta":62095776},{"NoteNumber":71,"Velocity":30,"Duration":110889,"SoundDuration":110889,"Delta":62095776},{"NoteNumber":64,"Velocity":39,"Duration":900427,"SoundDuration":900427,"Delta":62317554},{"NoteNumber":71,"Velocity":29,"Duration":112553,"SoundDuration":112553,"Delta":62542661},{"NoteNumber":67,"Velocity":24,"Duration":112553,"SoundDuration":112553,"Delta":62542661},{"NoteNumber":67,"Velocity":23,"Duration":112553,"SoundDuration":112553,"Delta":62992875},{"NoteNumber":71,"Velocity":28,"Duration":112553,"SoundDuration":112553,"Delta":62992875},{"NoteNumber":62,"Velocity":32,"Duration":875446,"SoundDuration":875446,"Delta":63217982},{"NoteNumber":67,"Velocity":22,"Duration":106179,"SoundDuration":106179,"Delta":63430342},{"NoteNumber":71,"Velocity":27,"Duration":106179,"SoundDuration":106179,"Delta":63430342},{"NoteNumber":71,"Velocity":26,"Duration":116486,"SoundDuration":116486,"Delta":63860455},{"NoteNumber":67,"Velocity":22,"Duration":116486,"SoundDuration":116486,"Delta":63860455},{"NoteNumber":61,"Velocity":39,"Duration":668761,"SoundDuration":668761,"Delta":64093429},{"NoteNumber":59,"Velocity":39,"Duration":2686208,"SoundDuration":2686208,"Delta":64093429},{"NoteNumber":71,"Velocity":25,"Duration":112553,"SoundDuration":112553,"Delta":64318536},{"NoteNumber":66,"Velocity":21,"Duration":112553,"SoundDuration":112553,"Delta":64318536},{"NoteNumber":66,"Velocity":22,"Duration":112553,"SoundDuration":112553,"Delta":64762190},{"NoteNumber":71,"Velocity":26,"Duration":112553,"SoundDuration":112553,"Delta":64762190},{"NoteNumber":62,"Velocity":27,"Duration":225106,"SoundDuration":225106,"Delta":64762190},{"NoteNumber":64,"Velocity":35,"Duration":450214,"SoundDuration":450214,"Delta":64987297},{"NoteNumber":71,"Velocity":27,"Duration":112553,"SoundDuration":112553,"Delta":65212404},{"NoteNumber":66,"Velocity":22,"Duration":112553,"SoundDuration":112553,"Delta":65212404},{"NoteNumber":61,"Velocity":44,"Duration":450214,"SoundDuration":450214,"Delta":65437511},{"NoteNumber":66,"Velocity":23,"Duration":112553,"SoundDuration":112553,"Delta":65662618},{"NoteNumber":71,"Velocity":28,"Duration":112553,"SoundDuration":112553,"Delta":65662618},{"NoteNumber":62,"Velocity":34,"Duration":424718,"SoundDuration":424718,"Delta":65887725},{"NoteNumber":66,"Velocity":24,"Duration":106179,"SoundDuration":106179,"Delta":66100085},{"NoteNumber":71,"Velocity":29,"Duration":106179,"SoundDuration":106179,"Delta":66100085},{"NoteNumber":64,"Velocity":34,"Duration":467192,"SoundDuration":467192,"Delta":66312444},{"NoteNumber":71,"Velocity":31,"Duration":124719,"SoundDuration":124719,"Delta":66530198},{"NoteNumber":66,"Velocity":26,"Duration":124719,"SoundDuration":124719,"Delta":66530198},{"NoteNumber":65,"Velocity":45,"Duration":890442,"SoundDuration":890442,"Delta":66779637},{"NoteNumber":55,"Velocity":51,"Duration":2666316,"SoundDuration":2666316,"Delta":66779637},{"NoteNumber":71,"Velocity":31,"Duration":110889,"SoundDuration":110889,"Delta":67004744},{"NoteNumber":69,"Velocity":26,"Duration":110889,"SoundDuration":110889,"Delta":67004744},{"NoteNumber":69,"Velocity":25,"Duration":110889,"SoundDuration":110889,"Delta":67448301},{"NoteNumber":71,"Velocity":30,"Duration":110889,"SoundDuration":110889,"Delta":67448301},{"NoteNumber":64,"Velocity":39,"Duration":900428,"SoundDuration":900428,"Delta":67670080},{"NoteNumber":71,"Velocity":29,"Duration":112553,"SoundDuration":112553,"Delta":67895187},{"NoteNumber":67,"Velocity":24,"Duration":112553,"SoundDuration":112553,"Delta":67895187},{"NoteNumber":67,"Velocity":23,"Duration":112553,"SoundDuration":112553,"Delta":68345401},{"NoteNumber":71,"Velocity":28,"Duration":112553,"SoundDuration":112553,"Delta":68345401},{"NoteNumber":62,"Velocity":32,"Duration":875446,"SoundDuration":875446,"Delta":68570508},{"NoteNumber":65,"Velocity":22,"Duration":106179,"SoundDuration":106179,"Delta":68782867},{"NoteNumber":71,"Velocity":27,"Duration":106179,"SoundDuration":106179,"Delta":68782867},{"NoteNumber":67,"Velocity":26,"Duration":116486,"SoundDuration":116486,"Delta":69212981},{"NoteNumber":65,"Velocity":22,"Duration":116486,"SoundDuration":116486,"Delta":69212981},{"NoteNumber":62,"Velocity":39,"Duration":668761,"SoundDuration":668761,"Delta":69445954},{"NoteNumber":58,"Velocity":39,"Duration":2686208,"SoundDuration":2686208,"Delta":69445954},{"NoteNumber":67,"Velocity":25,"Duration":112553,"SoundDuration":112553,"Delta":69671061},{"NoteNumber":65,"Velocity":21,"Duration":112553,"SoundDuration":112553,"Delta":69671061},{"NoteNumber":65,"Velocity":22,"Duration":112553,"SoundDuration":112553,"Delta":70114716},{"NoteNumber":67,"Velocity":26,"Duration":112553,"SoundDuration":112553,"Delta":70114716},{"NoteNumber":64,"Velocity":27,"Duration":225106,"SoundDuration":225106,"Delta":70114716},{"NoteNumber":62,"Velocity":35,"Duration":450214,"SoundDuration":450214,"Delta":70339823},{"NoteNumber":67,"Velocity":27,"Duration":112553,"SoundDuration":112553,"Delta":70564930},{"NoteNumber":65,"Velocity":22,"Duration":112553,"SoundDuration":112553,"Delta":70564930},{"NoteNumber":61,"Velocity":44,"Duration":1342125,"SoundDuration":1342125,"Delta":70790037},{"NoteNumber":64,"Velocity":23,"Duration":112553,"SoundDuration":112553,"Delta":71015144},{"NoteNumber":69,"Velocity":28,"Duration":112553,"SoundDuration":112553,"Delta":71015144},{"NoteNumber":69,"Velocity":26,"Duration":106179,"SoundDuration":106179,"Delta":71452610},{"NoteNumber":64,"Velocity":22,"Duration":106179,"SoundDuration":106179,"Delta":71452610},{"NoteNumber":64,"Velocity":21,"Duration":124719,"SoundDuration":124719,"Delta":71882724},{"NoteNumber":69,"Velocity":25,"Duration":124719,"SoundDuration":124719,"Delta":71882724},{"NoteNumber":62,"Velocity":39,"Duration":668761,"SoundDuration":668761,"Delta":72132163},{"NoteNumber":58,"Velocity":39,"Duration":2686208,"SoundDuration":2686208,"Delta":72132163},{"NoteNumber":67,"Velocity":25,"Duration":112553,"SoundDuration":112553,"Delta":72357270},{"NoteNumber":65,"Velocity":21,"Duration":112553,"SoundDuration":112553,"Delta":72357270},{"NoteNumber":65,"Velocity":22,"Duration":112553,"SoundDuration":112553,"Delta":72800924},{"NoteNumber":67,"Velocity":26,"Duration":112553,"SoundDuration":112553,"Delta":72800924},{"NoteNumber":64,"Velocity":35,"Duration":225106,"SoundDuration":225106,"Delta":72800924},{"NoteNumber":62,"Velocity":46,"Duration":450214,"SoundDuration":450214,"Delta":73026031},{"NoteNumber":67,"Velocity":27,"Duration":112553,"SoundDuration":112553,"Delta":73251138},{"NoteNumber":65,"Velocity":22,"Duration":112553,"SoundDuration":112553,"Delta":73251138},{"NoteNumber":61,"Velocity":42,"Duration":450214,"SoundDuration":450214,"Delta":73476245},{"NoteNumber":69,"Velocity":31,"Duration":112553,"SoundDuration":112553,"Delta":73701352},{"NoteNumber":64,"Velocity":26,"Duration":112553,"SoundDuration":112553,"Delta":73701352},{"NoteNumber":62,"Velocity":47,"Duration":424718,"SoundDuration":424718,"Delta":73926459},{"NoteNumber":69,"Velocity":36,"Duration":106179,"SoundDuration":106179,"Delta":74138819},{"NoteNumber":65,"Velocity":29,"Duration":106179,"SoundDuration":106179,"Delta":74138819},{"NoteNumber":57,"Velocity":51,"Duration":467192,"SoundDuration":467192,"Delta":74351178},{"NoteNumber":64,"Velocity":51,"Duration":467192,"SoundDuration":467192,"Delta":74351178},{"NoteNumber":67,"Velocity":37,"Duration":124719,"SoundDuration":124719,"Delta":74568932},{"NoteNumber":69,"Velocity":44,"Duration":124719,"SoundDuration":124719,"Delta":74568932},{"NoteNumber":65,"Velocity":39,"Duration":668761,"SoundDuration":668761,"Delta":74818371},{"NoteNumber":61,"Velocity":39,"Duration":2686208,"SoundDuration":2686208,"Delta":74818371},{"NoteNumber":70,"Velocity":25,"Duration":112553,"SoundDuration":112553,"Delta":75043478},{"NoteNumber":68,"Velocity":21,"Duration":112553,"SoundDuration":112553,"Delta":75043478},{"NoteNumber":68,"Velocity":22,"Duration":112553,"SoundDuration":112553,"Delta":75487133},{"NoteNumber":70,"Velocity":26,"Duration":112553,"SoundDuration":112553,"Delta":75487133},{"NoteNumber":67,"Velocity":27,"Duration":225106,"SoundDuration":225106,"Delta":75487133},{"NoteNumber":65,"Velocity":35,"Duration":450214,"SoundDuration":450214,"Delta":75712240},{"NoteNumber":70,"Velocity":27,"Duration":112553,"SoundDuration":112553,"Delta":75937347},{"NoteNumber":68,"Velocity":22,"Duration":112553,"SoundDuration":112553,"Delta":75937347},{"NoteNumber":64,"Velocity":44,"Duration":1342125,"SoundDuration":1342125,"Delta":76162454},{"NoteNumber":67,"Velocity":23,"Duration":112553,"SoundDuration":112553,"Delta":76387561},{"NoteNumber":72,"Velocity":28,"Duration":112553,"SoundDuration":112553,"Delta":76387561},{"NoteNumber":72,"Velocity":26,"Duration":106179,"SoundDuration":106179,"Delta":76825027},{"NoteNumber":67,"Velocity":22,"Duration":106179,"SoundDuration":106179,"Delta":76825027},{"NoteNumber":67,"Velocity":21,"Duration":124719,"SoundDuration":124719,"Delta":77255141},{"NoteNumber":72,"Velocity":25,"Duration":124719,"SoundDuration":124719,"Delta":77255141},{"NoteNumber":65,"Velocity":39,"Duration":668761,"SoundDuration":668761,"Delta":77504580},{"NoteNumber":61,"Velocity":39,"Duration":2686208,"SoundDuration":2686208,"Delta":77504580},{"NoteNumber":70,"Velocity":25,"Duration":112553,"SoundDuration":112553,"Delta":77729687},{"NoteNumber":68,"Velocity":21,"Duration":112553,"SoundDuration":112553,"Delta":77729687},{"NoteNumber":68,"Velocity":22,"Duration":112553,"SoundDuration":112553,"Delta":78173341},{"NoteNumber":70,"Velocity":26,"Duration":112553,"SoundDuration":112553,"Delta":78173341},{"NoteNumber":67,"Velocity":35,"Duration":225106,"SoundDuration":225106,"Delta":78173341},{"NoteNumber":65,"Velocity":46,"Duration":450214,"SoundDuration":450214,"Delta":78398448},{"NoteNumber":70,"Velocity":27,"Duration":112553,"SoundDuration":112553,"Delta":78623555},{"NoteNumber":68,"Velocity":22,"Duration":112553,"SoundDuration":112553,"Delta":78623555},{"NoteNumber":64,"Velocity":42,"Duration":450214,"SoundDuration":450214,"Delta":78848662},{"NoteNumber":72,"Velocity":31,"Duration":112553,"SoundDuration":112553,"Delta":79073769},{"NoteNumber":67,"Velocity":26,"Duration":112553,"SoundDuration":112553,"Delta":79073769},{"NoteNumber":65,"Velocity":47,"Duration":424718,"SoundDuration":424718,"Delta":79298876},{"NoteNumber":72,"Velocity":36,"Duration":106179,"SoundDuration":106179,"Delta":79511236},{"NoteNumber":68,"Velocity":29,"Duration":106179,"SoundDuration":106179,"Delta":79511236},{"NoteNumber":60,"Velocity":51,"Duration":467192,"SoundDuration":467192,"Delta":79723595},{"NoteNumber":67,"Velocity":51,"Duration":467192,"SoundDuration":467192,"Delta":79723595},{"NoteNumber":70,"Velocity":37,"Duration":124719,"SoundDuration":124719,"Delta":79941349},{"NoteNumber":72,"Velocity":44,"Duration":124719,"SoundDuration":124719,"Delta":79941349},{"NoteNumber":65,"Velocity":35,"Duration":113834,"SoundDuration":113834,"Delta":80190788},{"NoteNumber":68,"Velocity":33,"Duration":113834,"SoundDuration":113834,"Delta":80418458},{"NoteNumber":72,"Velocity":42,"Duration":112132,"SoundDuration":112132,"Delta":80646127},{"NoteNumber":75,"Velocity":38,"Duration":109673,"SoundDuration":109673,"Delta":80870393},{"NoteNumber":74,"Velocity":42,"Duration":109673,"SoundDuration":109673,"Delta":81089739},{"NoteNumber":72,"Velocity":37,"Duration":109673,"SoundDuration":109673,"Delta":81309086},{"NoteNumber":70,"Velocity":42,"Duration":110480,"SoundDuration":110480,"Delta":81528432},{"NoteNumber":68,"Velocity":37,"Duration":110480,"SoundDuration":110480,"Delta":81749394},{"NoteNumber":67,"Velocity":41,"Duration":111300,"SoundDuration":111300,"Delta":81970356},{"NoteNumber":65,"Velocity":38,"Duration":111300,"SoundDuration":111300,"Delta":82192958},{"NoteNumber":63,"Velocity":41,"Duration":111300,"SoundDuration":111300,"Delta":82415559},{"NoteNumber":62,"Velocity":33,"Duration":121192,"SoundDuration":121192,"Delta":82638161},{"NoteNumber":60,"Velocity":42,"Duration":224265,"SoundDuration":224265,"Delta":82880546},{"NoteNumber":63,"Velocity":38,"Duration":224265,"SoundDuration":224265,"Delta":83104811},{"NoteNumber":63,"Velocity":31,"Duration":115145,"SoundDuration":115145,"Delta":83329077},{"NoteNumber":67,"Velocity":37,"Duration":115145,"SoundDuration":115145,"Delta":83329077},{"NoteNumber":60,"Velocity":36,"Duration":115145,"SoundDuration":115145,"Delta":83329077},{"NoteNumber":63,"Velocity":25,"Duration":115145,"SoundDuration":115145,"Delta":83789659},{"NoteNumber":67,"Velocity":30,"Duration":115145,"SoundDuration":115145,"Delta":83789659},{"NoteNumber":58,"Velocity":28,"Duration":115145,"SoundDuration":115145,"Delta":83789659},{"NoteNumber":62,"Velocity":33,"Duration":115145,"SoundDuration":115145,"Delta":83789659},{"NoteNumber":60,"Velocity":42,"Duration":231177,"SoundDuration":231177,"Delta":84264309},{"NoteNumber":63,"Velocity":37,"Duration":246365,"SoundDuration":246365,"Delta":84495487},{"NoteNumber":63,"Velocity":24,"Duration":132427,"SoundDuration":132427,"Delta":84741853},{"NoteNumber":67,"Velocity":29,"Duration":132427,"SoundDuration":132427,"Delta":84741853},{"NoteNumber":56,"Velocity":19,"Duration":132427,"SoundDuration":132427,"Delta":84741853},{"NoteNumber":60,"Velocity":28,"Duration":132427,"SoundDuration":132427,"Delta":84741853},{"NoteNumber":62,"Velocity":18,"Duration":129567,"SoundDuration":129567,"Delta":85271561},{"NoteNumber":67,"Velocity":22,"Duration":129567,"SoundDuration":129567,"Delta":85271561},{"NoteNumber":55,"Velocity":16,"Duration":129567,"SoundDuration":129567,"Delta":85271561},{"NoteNumber":58,"Velocity":24,"Duration":129567,"SoundDuration":129567,"Delta":85271561},{"NoteNumber":56,"Velocity":26,"Duration":166338,"SoundDuration":166338,"Delta":87531476},{"NoteNumber":58,"Velocity":33,"Duration":110480,"SoundDuration":110480,"Delta":87587333},{"NoteNumber":56,"Velocity":24,"Duration":165721,"SoundDuration":165721,"Delta":87974017},{"NoteNumber":58,"Velocity":32,"Duration":110480,"SoundDuration":110480,"Delta":88029257},{"NoteNumber":56,"Velocity":24,"Duration":165721,"SoundDuration":165721,"Delta":88415941},{"NoteNumber":58,"Velocity":31,"Duration":110480,"SoundDuration":110480,"Delta":88471181},{"NoteNumber":56,"Velocity":24,"Duration":164514,"SoundDuration":164514,"Delta":88857865},{"NoteNumber":58,"Velocity":30,"Duration":109273,"SoundDuration":109273,"Delta":88913105},{"NoteNumber":56,"Velocity":22,"Duration":163910,"SoundDuration":163910,"Delta":89295563},{"NoteNumber":58,"Velocity":29,"Duration":109273,"SoundDuration":109273,"Delta":89350200},{"NoteNumber":56,"Velocity":22,"Duration":163910,"SoundDuration":163910,"Delta":89732658},{"NoteNumber":58,"Velocity":29,"Duration":109273,"SoundDuration":109273,"Delta":89787295},{"NoteNumber":56,"Velocity":22,"Duration":163910,"SoundDuration":163910,"Delta":90169753},{"NoteNumber":58,"Velocity":28,"Duration":109273,"SoundDuration":109273,"Delta":90224390},{"NoteNumber":56,"Velocity":20,"Duration":164712,"SoundDuration":164712,"Delta":90606848},{"NoteNumber":58,"Velocity":27,"Duration":110075,"SoundDuration":110075,"Delta":90661485},{"NoteNumber":60,"Velocity":28,"Duration":158778,"SoundDuration":158778,"Delta":91101787},{"NoteNumber":63,"Velocity":38,"Duration":158778,"SoundDuration":158778,"Delta":91101787},{"NoteNumber":56,"Velocity":22,"Duration":108877,"SoundDuration":108877,"Delta":91101787},{"NoteNumber":58,"Velocity":29,"Duration":108877,"SoundDuration":108877,"Delta":91101787},{"NoteNumber":66,"Velocity":41,"Duration":1108273,"SoundDuration":1108273,"Delta":91319541},{"NoteNumber":70,"Velocity":46,"Duration":880604,"SoundDuration":880604,"Delta":91547211},{"NoteNumber":56,"Velocity":20,"Duration":110075,"SoundDuration":110075,"Delta":91547211},{"NoteNumber":58,"Velocity":27,"Duration":110075,"SoundDuration":110075,"Delta":91547211},{"NoteNumber":60,"Velocity":20,"Duration":165113,"SoundDuration":165113,"Delta":91932475},{"NoteNumber":56,"Velocity":20,"Duration":165113,"SoundDuration":165113,"Delta":91932475},{"NoteNumber":63,"Velocity":27,"Duration":110075,"SoundDuration":110075,"Delta":91987513},{"NoteNumber":58,"Velocity":27,"Duration":110075,"SoundDuration":110075,"Delta":91987513},{"NoteNumber":62,"Velocity":28,"Duration":158778,"SoundDuration":158778,"Delta":92427815},{"NoteNumber":65,"Velocity":38,"Duration":158778,"SoundDuration":158778,"Delta":92427815},{"NoteNumber":56,"Velocity":22,"Duration":108877,"SoundDuration":108877,"Delta":92427815},{"NoteNumber":58,"Velocity":29,"Duration":108877,"SoundDuration":108877,"Delta":92427815},{"NoteNumber":68,"Velocity":41,"Duration":1108273,"SoundDuration":1108273,"Delta":92645569},{"NoteNumber":72,"Velocity":46,"Duration":880604,"SoundDuration":880604,"Delta":92873238},{"NoteNumber":56,"Velocity":20,"Duration":110075,"SoundDuration":110075,"Delta":92873238},{"NoteNumber":58,"Velocity":27,"Duration":110075,"SoundDuration":110075,"Delta":92873238},{"NoteNumber":62,"Velocity":20,"Duration":165113,"SoundDuration":165113,"Delta":93258503},{"NoteNumber":56,"Velocity":20,"Duration":165113,"SoundDuration":165113,"Delta":93258503},{"NoteNumber":65,"Velocity":27,"Duration":110075,"SoundDuration":110075,"Delta":93313540},{"NoteNumber":58,"Velocity":27,"Duration":110075,"SoundDuration":110075,"Delta":93313540},{"NoteNumber":60,"Velocity":28,"Duration":653261,"SoundDuration":653261,"Delta":93753842},{"NoteNumber":63,"Velocity":38,"Duration":653261,"SoundDuration":653261,"Delta":93753842},{"NoteNumber":56,"Velocity":22,"Duration":108877,"SoundDuration":108877,"Delta":93753842},{"NoteNumber":58,"Velocity":29,"Duration":108877,"SoundDuration":108877,"Delta":93753842},{"NoteNumber":66,"Velocity":41,"Duration":217753,"SoundDuration":217753,"Delta":93971596},{"NoteNumber":70,"Velocity":46,"Duration":217753,"SoundDuration":217753,"Delta":94189350},{"NoteNumber":56,"Velocity":20,"Duration":108877,"SoundDuration":108877,"Delta":94189350},{"NoteNumber":58,"Velocity":27,"Duration":108877,"SoundDuration":108877,"Delta":94189350},{"NoteNumber":60,"Velocity":28,"Duration":653084,"SoundDuration":653084,"Delta":94407104},{"NoteNumber":63,"Velocity":38,"Duration":653084,"SoundDuration":653084,"Delta":94407104},{"NoteNumber":66,"Velocity":41,"Duration":210866,"SoundDuration":210866,"Delta":94622513},{"NoteNumber":56,"Velocity":20,"Duration":105433,"SoundDuration":105433,"Delta":94622513},{"NoteNumber":58,"Velocity":27,"Duration":105433,"SoundDuration":105433,"Delta":94622513},{"NoteNumber":70,"Velocity":46,"Duration":226809,"SoundDuration":226809,"Delta":94833380},{"NoteNumber":62,"Velocity":28,"Duration":154845,"SoundDuration":154845,"Delta":95060189},{"NoteNumber":65,"Velocity":38,"Duration":154845,"SoundDuration":154845,"Delta":95060189},{"NoteNumber":56,"Velocity":22,"Duration":106179,"SoundDuration":106179,"Delta":95060189},{"NoteNumber":58,"Velocity":29,"Duration":106179,"SoundDuration":106179,"Delta":95060189},{"NoteNumber":68,"Velocity":41,"Duration":327829,"SoundDuration":327829,"Delta":95272548},{"NoteNumber":72,"Velocity":46,"Duration":110075,"SoundDuration":110075,"Delta":95490302},{"NoteNumber":56,"Velocity":20,"Duration":110075,"SoundDuration":110075,"Delta":95490302},{"NoteNumber":58,"Velocity":27,"Duration":110075,"SoundDuration":110075,"Delta":95490302},{"NoteNumber":62,"Velocity":44,"Duration":198124,"SoundDuration":198124,"Delta":95857201},{"NoteNumber":65,"Velocity":46,"Duration":168774,"SoundDuration":168774,"Delta":95886551},{"NoteNumber":56,"Velocity":25,"Duration":168774,"SoundDuration":168774,"Delta":95886551},{"NoteNumber":68,"Velocity":47,"Duration":139425,"SoundDuration":139425,"Delta":95915901},{"NoteNumber":72,"Velocity":50,"Duration":110075,"SoundDuration":110075,"Delta":95945250},{"NoteNumber":58,"Velocity":32,"Duration":110075,"SoundDuration":110075,"Delta":95945250},{"NoteNumber":58,"Velocity":22,"Duration":109273,"SoundDuration":109273,"Delta":96385552},{"NoteNumber":60,"Velocity":29,"Duration":109273,"SoundDuration":109273,"Delta":96385552},{"NoteNumber":62,"Velocity":28,"Duration":881593,"SoundDuration":881593,"Delta":96822647},{"NoteNumber":65,"Velocity":38,"Duration":881593,"SoundDuration":881593,"Delta":96822647},{"NoteNumber":58,"Velocity":20,"Duration":108092,"SoundDuration":108092,"Delta":96822647},{"NoteNumber":60,"Velocity":27,"Duration":108092,"SoundDuration":108092,"Delta":96822647},{"NoteNumber":68,"Velocity":41,"Duration":665408,"SoundDuration":665408,"Delta":97038832},{"NoteNumber":72,"Velocity":46,"Duration":440302,"SoundDuration":440302,"Delta":97263939},{"NoteNumber":58,"Velocity":20,"Duration":110075,"SoundDuration":110075,"Delta":97263939},{"NoteNumber":60,"Velocity":27,"Duration":110075,"SoundDuration":110075,"Delta":97263939},{"NoteNumber":58,"Velocity":22,"Duration":109273,"SoundDuration":109273,"Delta":97704241},{"NoteNumber":60,"Velocity":29,"Duration":109273,"SoundDuration":109273,"Delta":97704241},{"NoteNumber":64,"Velocity":28,"Duration":890853,"SoundDuration":890853,"Delta":98141336},{"NoteNumber":67,"Velocity":38,"Duration":890853,"SoundDuration":890853,"Delta":98141336},{"NoteNumber":58,"Velocity":20,"Duration":108092,"SoundDuration":108092,"Delta":98141336},{"NoteNumber":60,"Velocity":27,"Duration":108092,"SoundDuration":108092,"Delta":98141336},{"NoteNumber":70,"Velocity":41,"Duration":674668,"SoundDuration":674668,"Delta":98357521},{"NoteNumber":74,"Velocity":46,"Duration":449561,"SoundDuration":449561,"Delta":98582628},{"NoteNumber":60,"Velocity":27,"Duration":110075,"SoundDuration":110075,"Delta":98582628},{"NoteNumber":58,"Velocity":20,"Duration":110075,"SoundDuration":110075,"Delta":98582628},{"NoteNumber":62,"Velocity":28,"Duration":652503,"SoundDuration":652503,"Delta":99032190},{"NoteNumber":65,"Velocity":38,"Duration":652503,"SoundDuration":652503,"Delta":99032190},{"NoteNumber":58,"Velocity":22,"Duration":109273,"SoundDuration":109273,"Delta":99032190},{"NoteNumber":60,"Velocity":29,"Duration":109273,"SoundDuration":109273,"Delta":99032190},{"NoteNumber":68,"Velocity":41,"Duration":218547,"SoundDuration":218547,"Delta":99250737},{"NoteNumber":72,"Velocity":46,"Duration":215408,"SoundDuration":215408,"Delta":99469285},{"NoteNumber":58,"Velocity":20,"Duration":107704,"SoundDuration":107704,"Delta":99469285},{"NoteNumber":60,"Velocity":27,"Duration":107704,"SoundDuration":107704,"Delta":99469285},{"NoteNumber":62,"Velocity":28,"Duration":650030,"SoundDuration":650030,"Delta":99684694},{"NoteNumber":65,"Velocity":38,"Duration":650030,"SoundDuration":650030,"Delta":99684694},{"NoteNumber":68,"Velocity":41,"Duration":211610,"SoundDuration":211610,"Delta":99896304},{"NoteNumber":60,"Velocity":27,"Duration":105805,"SoundDuration":105805,"Delta":99896304},{"NoteNumber":58,"Velocity":20,"Duration":105805,"SoundDuration":105805,"Delta":99896304},{"NoteNumber":72,"Velocity":46,"Duration":226809,"SoundDuration":226809,"Delta":100107915},{"NoteNumber":64,"Velocity":28,"Duration":158778,"SoundDuration":158778,"Delta":100334724},{"NoteNumber":67,"Velocity":38,"Duration":158778,"SoundDuration":158778,"Delta":100334724},{"NoteNumber":58,"Velocity":22,"Duration":108877,"SoundDuration":108877,"Delta":100334724},{"NoteNumber":60,"Velocity":29,"Duration":108877,"SoundDuration":108877,"Delta":100334724},{"NoteNumber":70,"Velocity":41,"Duration":327829,"SoundDuration":327829,"Delta":100552478},{"NoteNumber":74,"Velocity":46,"Duration":110015,"SoundDuration":110015,"Delta":100764788},{"NoteNumber":60,"Velocity":27,"Duration":110045,"SoundDuration":110045,"Delta":100767510},{"NoteNumber":58,"Velocity":20,"Duration":110075,"SoundDuration":110075,"Delta":100770232},{"NoteNumber":64,"Velocity":44,"Duration":198124,"SoundDuration":198124,"Delta":101137131},{"NoteNumber":67,"Velocity":46,"Duration":168774,"SoundDuration":168774,"Delta":101166481},{"NoteNumber":58,"Velocity":25,"Duration":168774,"SoundDuration":168774,"Delta":101166481},{"NoteNumber":70,"Velocity":47,"Duration":139425,"SoundDuration":139425,"Delta":101195830},{"NoteNumber":74,"Velocity":50,"Duration":110075,"SoundDuration":110075,"Delta":101225180},{"NoteNumber":60,"Velocity":32,"Duration":110075,"SoundDuration":110075,"Delta":101225180},{"NoteNumber":64,"Velocity":28,"Duration":158778,"SoundDuration":158778,"Delta":101665482},{"NoteNumber":67,"Velocity":38,"Duration":158778,"SoundDuration":158778,"Delta":101665482},{"NoteNumber":70,"Velocity":41,"Duration":324690,"SoundDuration":324690,"Delta":101883236},{"NoteNumber":74,"Velocity":46,"Duration":107033,"SoundDuration":107033,"Delta":102095546},{"NoteNumber":60,"Velocity":27,"Duration":106985,"SoundDuration":106985,"Delta":102098268},{"NoteNumber":58,"Velocity":20,"Duration":106936,"SoundDuration":106936,"Delta":102100990},{"NoteNumber":67,"Velocity":41,"Duration":116940,"SoundDuration":116940,"Delta":102528736},{"NoteNumber":70,"Velocity":42,"Duration":116940,"SoundDuration":116940,"Delta":102528736},{"NoteNumber":77,"Velocity":45,"Duration":116940,"SoundDuration":116940,"Delta":102528736},{"NoteNumber":61,"Velocity":22,"Duration":116940,"SoundDuration":116940,"Delta":102528736},{"NoteNumber":63,"Velocity":28,"Duration":116940,"SoundDuration":116940,"Delta":102528736},{"NoteNumber":70,"Velocity":46,"Duration":164650,"SoundDuration":164650,"Delta":102938028},{"NoteNumber":63,"Velocity":25,"Duration":164650,"SoundDuration":164650,"Delta":102938028},{"NoteNumber":73,"Velocity":47,"Duration":135414,"SoundDuration":135414,"Delta":102967264},{"NoteNumber":80,"Velocity":50,"Duration":106179,"SoundDuration":106179,"Delta":102996499},{"NoteNumber":66,"Velocity":32,"Duration":106179,"SoundDuration":106179,"Delta":102996499},{"NoteNumber":61,"Velocity":32,"Duration":108877,"SoundDuration":108877,"Delta":103421218},{"NoteNumber":54,"Velocity":32,"Duration":108877,"SoundDuration":108877,"Delta":103856726},{"NoteNumber":64,"Velocity":28,"Duration":652503,"SoundDuration":652503,"Delta":104292234},{"NoteNumber":67,"Velocity":38,"Duration":652503,"SoundDuration":652503,"Delta":104292234},{"NoteNumber":70,"Velocity":42,"Duration":218547,"SoundDuration":218547,"Delta":104510781},{"NoteNumber":74,"Velocity":49,"Duration":215408,"SoundDuration":215408,"Delta":104729329},{"NoteNumber":60,"Velocity":28,"Duration":107704,"SoundDuration":107704,"Delta":104729329},{"NoteNumber":58,"Velocity":21,"Duration":107704,"SoundDuration":107704,"Delta":104729329},{"NoteNumber":67,"Velocity":30,"Duration":647687,"SoundDuration":647687,"Delta":104944738},{"NoteNumber":70,"Velocity":41,"Duration":210866,"SoundDuration":210866,"Delta":104944738},{"NoteNumber":73,"Velocity":46,"Duration":210866,"SoundDuration":210866,"Delta":105155604},{"NoteNumber":63,"Velocity":30,"Duration":105433,"SoundDuration":105433,"Delta":105155604},{"NoteNumber":61,"Velocity":22,"Duration":105433,"SoundDuration":105433,"Delta":105155604},{"NoteNumber":77,"Velocity":54,"Duration":169465,"SoundDuration":169465,"Delta":105366471},{"NoteNumber":70,"Velocity":46,"Duration":162668,"SoundDuration":162668,"Delta":105535937},{"NoteNumber":63,"Velocity":25,"Duration":162668,"SoundDuration":162668,"Delta":105535937},{"NoteNumber":73,"Velocity":47,"Duration":134424,"SoundDuration":134424,"Delta":105564181},{"NoteNumber":80,"Velocity":50,"Duration":106179,"SoundDuration":106179,"Delta":105592425},{"NoteNumber":66,"Velocity":32,"Duration":106179,"SoundDuration":106179,"Delta":105592425},{"NoteNumber":61,"Velocity":32,"Duration":108877,"SoundDuration":108877,"Delta":106017144},{"NoteNumber":54,"Velocity":32,"Duration":108877,"SoundDuration":108877,"Delta":106452652},{"NoteNumber":70,"Velocity":46,"Duration":160032,"SoundDuration":160032,"Delta":106833722},{"NoteNumber":63,"Velocity":25,"Duration":160032,"SoundDuration":160032,"Delta":106833722},{"NoteNumber":73,"Velocity":47,"Duration":133105,"SoundDuration":133105,"Delta":106860648},{"NoteNumber":80,"Velocity":50,"Duration":106179,"SoundDuration":106179,"Delta":106887574},{"NoteNumber":66,"Velocity":32,"Duration":106179,"SoundDuration":106179,"Delta":106887574},{"NoteNumber":61,"Velocity":32,"Duration":108877,"SoundDuration":108877,"Delta":107312293},{"NoteNumber":54,"Velocity":32,"Duration":108877,"SoundDuration":108877,"Delta":107747801},{"NoteNumber":70,"Velocity":41,"Duration":160032,"SoundDuration":160032,"Delta":108128871},{"NoteNumber":63,"Velocity":22,"Duration":160032,"SoundDuration":160032,"Delta":108128871},{"NoteNumber":73,"Velocity":42,"Duration":133105,"SoundDuration":133105,"Delta":108155797},{"NoteNumber":80,"Velocity":45,"Duration":106179,"SoundDuration":106179,"Delta":108182723},{"NoteNumber":66,"Velocity":28,"Duration":106179,"SoundDuration":106179,"Delta":108182723},{"NoteNumber":61,"Velocity":28,"Duration":108877,"SoundDuration":108877,"Delta":108607442},{"NoteNumber":54,"Velocity":28,"Duration":108877,"SoundDuration":108877,"Delta":109042950},{"NoteNumber":64,"Velocity":25,"Duration":114705,"SoundDuration":114705,"Delta":109502114},{"NoteNumber":61,"Velocity":25,"Duration":123690,"SoundDuration":123690,"Delta":109960935},{"NoteNumber":80,"Velocity":45,"Duration":241410,"SoundDuration":241410,"Delta":110455699},{"NoteNumber":54,"Velocity":25,"Duration":120705,"SoundDuration":120705,"Delta":110455699},{"NoteNumber":85,"Velocity":36,"Duration":241410,"SoundDuration":241410,"Delta":110697109},{"NoteNumber":64,"Velocity":19,"Duration":174187,"SoundDuration":174187,"Delta":110878166},{"NoteNumber":66,"Velocity":16,"Duration":144011,"SoundDuration":144011,"Delta":110908343},{"NoteNumber":73,"Velocity":34,"Duration":113834,"SoundDuration":113834,"Delta":110938519},{"NoteNumber":78,"Velocity":44,"Duration":910678,"SoundDuration":910678,"Delta":110938519},{"NoteNumber":69,"Velocity":19,"Duration":113834,"SoundDuration":113834,"Delta":110938519},{"NoteNumber":64,"Velocity":16,"Duration":170752,"SoundDuration":170752,"Delta":111336940},{"NoteNumber":66,"Velocity":16,"Duration":142293,"SoundDuration":142293,"Delta":111365399},{"NoteNumber":73,"Velocity":34,"Duration":113834,"SoundDuration":113834,"Delta":111393858},{"NoteNumber":69,"Velocity":19,"Duration":113834,"SoundDuration":113834,"Delta":111393858},{"NoteNumber":64,"Velocity":16,"Duration":167806,"SoundDuration":167806,"Delta":111792279},{"NoteNumber":66,"Velocity":16,"Duration":139347,"SoundDuration":139347,"Delta":111820738},{"NoteNumber":73,"Velocity":34,"Duration":110889,"SoundDuration":110889,"Delta":111849197},{"NoteNumber":80,"Velocity":33,"Duration":221778,"SoundDuration":221778,"Delta":111849197},{"NoteNumber":69,"Velocity":19,"Duration":110889,"SoundDuration":110889,"Delta":111849197},{"NoteNumber":85,"Velocity":40,"Duration":221778,"SoundDuration":221778,"Delta":112070975},{"NoteNumber":64,"Velocity":16,"Duration":169279,"SoundDuration":169279,"Delta":112237309},{"NoteNumber":66,"Velocity":16,"Duration":141557,"SoundDuration":141557,"Delta":112265031},{"NoteNumber":78,"Velocity":40,"Duration":113834,"SoundDuration":113834,"Delta":112292754},{"NoteNumber":73,"Velocity":34,"Duration":113834,"SoundDuration":113834,"Delta":112292754},{"NoteNumber":69,"Velocity":19,"Duration":113834,"SoundDuration":113834,"Delta":112292754},{"NoteNumber":64,"Velocity":16,"Duration":169050,"SoundDuration":169050,"Delta":112691175},{"NoteNumber":66,"Velocity":16,"Duration":140591,"SoundDuration":140591,"Delta":112719634},{"NoteNumber":80,"Velocity":40,"Duration":112132,"SoundDuration":112132,"Delta":112748093},{"NoteNumber":73,"Velocity":34,"Duration":112132,"SoundDuration":112132,"Delta":112748093},{"NoteNumber":69,"Velocity":19,"Duration":112132,"SoundDuration":112132,"Delta":112748093},{"NoteNumber":64,"Velocity":16,"Duration":169470,"SoundDuration":169470,"Delta":113140557},{"NoteNumber":66,"Velocity":16,"Duration":141437,"SoundDuration":141437,"Delta":113168591},{"NoteNumber":73,"Velocity":34,"Duration":113404,"SoundDuration":113404,"Delta":113196624},{"NoteNumber":69,"Velocity":19,"Duration":113404,"SoundDuration":113404,"Delta":113196624},{"NoteNumber":73,"Velocity":35,"Duration":111715,"SoundDuration":111715,"Delta":113650242},{"NoteNumber":78,"Velocity":42,"Duration":1335645,"SoundDuration":1335645,"Delta":113650242},{"NoteNumber":64,"Velocity":16,"Duration":111715,"SoundDuration":111715,"Delta":113650242},{"NoteNumber":66,"Velocity":16,"Duration":111715,"SoundDuration":111715,"Delta":113650242},{"NoteNumber":69,"Velocity":19,"Duration":111715,"SoundDuration":111715,"Delta":113650242},{"NoteNumber":73,"Velocity":38,"Duration":110480,"SoundDuration":110480,"Delta":114097103},{"NoteNumber":64,"Velocity":16,"Duration":110480,"SoundDuration":110480,"Delta":114097103},{"NoteNumber":66,"Velocity":16,"Duration":110480,"SoundDuration":110480,"Delta":114097103},{"NoteNumber":69,"Velocity":19,"Duration":110480,"SoundDuration":110480,"Delta":114097103},{"NoteNumber":73,"Velocity":38,"Duration":111715,"SoundDuration":111715,"Delta":114539027},{"NoteNumber":64,"Velocity":16,"Duration":111715,"SoundDuration":111715,"Delta":114539027},{"NoteNumber":66,"Velocity":16,"Duration":111715,"SoundDuration":111715,"Delta":114539027},{"NoteNumber":69,"Velocity":19,"Duration":111715,"SoundDuration":111715,"Delta":114539027},{"NoteNumber":72,"Velocity":32,"Duration":109673,"SoundDuration":109673,"Delta":114985888},{"NoteNumber":80,"Velocity":38,"Duration":109673,"SoundDuration":109673,"Delta":114985888},{"NoteNumber":63,"Velocity":16,"Duration":109673,"SoundDuration":109673,"Delta":114985888},{"NoteNumber":66,"Velocity":16,"Duration":109673,"SoundDuration":109673,"Delta":114985888},{"NoteNumber":69,"Velocity":19,"Duration":109673,"SoundDuration":109673,"Delta":114985888},{"NoteNumber":73,"Velocity":34,"Duration":113834,"SoundDuration":113834,"Delta":115424581},{"NoteNumber":78,"Velocity":41,"Duration":113834,"SoundDuration":113834,"Delta":115424581},{"NoteNumber":61,"Velocity":17,"Duration":113834,"SoundDuration":113834,"Delta":115424581},{"NoteNumber":66,"Velocity":17,"Duration":113834,"SoundDuration":113834,"Delta":115424581},{"NoteNumber":69,"Velocity":20,"Duration":113834,"SoundDuration":113834,"Delta":115424581},{"NoteNumber":74,"Velocity":41,"Duration":116486,"SoundDuration":116486,"Delta":115879920},{"NoteNumber":80,"Velocity":49,"Duration":116486,"SoundDuration":116486,"Delta":115879920},{"NoteNumber":60,"Velocity":17,"Duration":116486,"SoundDuration":116486,"Delta":115879920},{"NoteNumber":66,"Velocity":17,"Duration":116486,"SoundDuration":116486,"Delta":115879920},{"NoteNumber":69,"Velocity":21,"Duration":116486,"SoundDuration":116486,"Delta":115879920},{"NoteNumber":73,"Velocity":40,"Duration":1360854,"SoundDuration":1360854,"Delta":116345867},{"NoteNumber":68,"Velocity":34,"Duration":113404,"SoundDuration":113404,"Delta":116345867},{"NoteNumber":59,"Velocity":16,"Duration":113404,"SoundDuration":113404,"Delta":116345867},{"NoteNumber":61,"Velocity":16,"Duration":113404,"SoundDuration":113404,"Delta":116345867},{"NoteNumber":65,"Velocity":19,"Duration":113404,"SoundDuration":113404,"Delta":116345867},{"NoteNumber":68,"Velocity":34,"Duration":113404,"SoundDuration":113404,"Delta":116799485},{"NoteNumber":59,"Velocity":16,"Duration":113404,"SoundDuration":113404,"Delta":116799485},{"NoteNumber":61,"Velocity":16,"Duration":113404,"SoundDuration":113404,"Delta":116799485},{"NoteNumber":65,"Velocity":19,"Duration":113404,"SoundDuration":113404,"Delta":116799485},{"NoteNumber":68,"Velocity":34,"Duration":113404,"SoundDuration":113404,"Delta":117253103},{"NoteNumber":59,"Velocity":16,"Duration":113404,"SoundDuration":113404,"Delta":117253103},{"NoteNumber":61,"Velocity":16,"Duration":113404,"SoundDuration":113404,"Delta":117253103},{"NoteNumber":65,"Velocity":19,"Duration":113404,"SoundDuration":113404,"Delta":117253103},{"NoteNumber":67,"Velocity":39,"Duration":115588,"SoundDuration":115588,"Delta":117706721},{"NoteNumber":75,"Velocity":47,"Duration":115588,"SoundDuration":115588,"Delta":117706721},{"NoteNumber":58,"Velocity":16,"Duration":115588,"SoundDuration":115588,"Delta":117706721},{"NoteNumber":61,"Velocity":16,"Duration":115588,"SoundDuration":115588,"Delta":117706721},{"NoteNumber":64,"Velocity":19,"Duration":115588,"SoundDuration":115588,"Delta":117706721},{"NoteNumber":68,"Velocity":35,"Duration":123182,"SoundDuration":123182,"Delta":118169077},{"NoteNumber":73,"Velocity":42,"Duration":123182,"SoundDuration":123182,"Delta":118169077},{"NoteNumber":56,"Velocity":14,"Duration":123182,"SoundDuration":123182,"Delta":118169077},{"NoteNumber":61,"Velocity":14,"Duration":123182,"SoundDuration":123182,"Delta":118169077},{"NoteNumber":64,"Velocity":17,"Duration":123182,"SoundDuration":123182,"Delta":118169077},{"NoteNumber":69,"Velocity":34,"Duration":129009,"SoundDuration":129009,"Delta":118661809},{"NoteNumber":75,"Velocity":41,"Duration":129009,"SoundDuration":129009,"Delta":118661809},{"NoteNumber":55,"Velocity":13,"Duration":129009,"SoundDuration":129009,"Delta":118661809},{"NoteNumber":61,"Velocity":13,"Duration":129009,"SoundDuration":129009,"Delta":118661809},{"NoteNumber":64,"Velocity":17,"Duration":129009,"SoundDuration":129009,"Delta":118661809},{"NoteNumber":54,"Velocity":57,"Duration":153892,"SoundDuration":153892,"Delta":119134845},{"NoteNumber":58,"Velocity":58,"Duration":143141,"SoundDuration":143141,"Delta":119145596},{"NoteNumber":61,"Velocity":67,"Duration":132390,"SoundDuration":132390,"Delta":119156347},{"NoteNumber":64,"Velocity":69,"Duration":121640,"SoundDuration":121640,"Delta":119167098},{"NoteNumber":68,"Velocity":75,"Duration":110889,"SoundDuration":110889,"Delta":119177849},{"NoteNumber":54,"Velocity":57,"Duration":147852,"SoundDuration":147852,"Delta":119584443},{"NoteNumber":58,"Velocity":58,"Duration":138611,"SoundDuration":138611,"Delta":119593683},{"NoteNumber":61,"Velocity":67,"Duration":129370,"SoundDuration":129370,"Delta":119602924},{"NoteNumber":64,"Velocity":69,"Duration":120130,"SoundDuration":120130,"Delta":119612165},{"NoteNumber":68,"Velocity":75,"Duration":110889,"SoundDuration":110889,"Delta":119621406},{"NoteNumber":54,"Velocity":57,"Duration":147852,"SoundDuration":147852,"Delta":120028000},{"NoteNumber":58,"Velocity":58,"Duration":138611,"SoundDuration":138611,"Delta":120037240},{"NoteNumber":61,"Velocity":67,"Duration":129370,"SoundDuration":129370,"Delta":120046481},{"NoteNumber":64,"Velocity":69,"Duration":120130,"SoundDuration":120130,"Delta":120055722},{"NoteNumber":68,"Velocity":75,"Duration":110889,"SoundDuration":110889,"Delta":120064963},{"NoteNumber":54,"Velocity":55,"Duration":148263,"SoundDuration":148263,"Delta":120471557},{"NoteNumber":58,"Velocity":55,"Duration":139023,"SoundDuration":139023,"Delta":120480797},{"NoteNumber":61,"Velocity":63,"Duration":129782,"SoundDuration":129782,"Delta":120490038},{"NoteNumber":64,"Velocity":66,"Duration":120541,"SoundDuration":120541,"Delta":120499279},{"NoteNumber":68,"Velocity":71,"Duration":111300,"SoundDuration":111300,"Delta":120508520},{"NoteNumber":54,"Velocity":52,"Duration":149653,"SoundDuration":149653,"Delta":120916623},{"NoteNumber":58,"Velocity":53,"Duration":140378,"SoundDuration":140378,"Delta":120925898},{"NoteNumber":61,"Velocity":61,"Duration":131103,"SoundDuration":131103,"Delta":120935173},{"NoteNumber":64,"Velocity":63,"Duration":121828,"SoundDuration":121828,"Delta":120944448},{"NoteNumber":68,"Velocity":68,"Duration":112553,"SoundDuration":112553,"Delta":120953723},{"NoteNumber":54,"Velocity":49,"Duration":151352,"SoundDuration":151352,"Delta":121366419},{"NoteNumber":58,"Velocity":50,"Duration":141973,"SoundDuration":141973,"Delta":121375798},{"NoteNumber":61,"Velocity":57,"Duration":132593,"SoundDuration":132593,"Delta":121385178},{"NoteNumber":64,"Velocity":59,"Duration":123214,"SoundDuration":123214,"Delta":121394557},{"NoteNumber":68,"Velocity":64,"Duration":113834,"SoundDuration":113834,"Delta":121403937},{"NoteNumber":54,"Velocity":32,"Duration":156269,"SoundDuration":156269,"Delta":121821331},{"NoteNumber":57,"Velocity":33,"Duration":146783,"SoundDuration":146783,"Delta":121830817},{"NoteNumber":61,"Velocity":38,"Duration":137296,"SoundDuration":137296,"Delta":121840303},{"NoteNumber":63,"Velocity":39,"Duration":127810,"SoundDuration":127810,"Delta":121849790},{"NoteNumber":68,"Velocity":43,"Duration":118324,"SoundDuration":118324,"Delta":121859276},{"NoteNumber":54,"Velocity":30,"Duration":163644,"SoundDuration":163644,"Delta":122293132},{"NoteNumber":57,"Velocity":30,"Duration":153784,"SoundDuration":153784,"Delta":122302993},{"NoteNumber":61,"Velocity":35,"Duration":143923,"SoundDuration":143923,"Delta":122312853},{"NoteNumber":63,"Velocity":36,"Duration":134063,"SoundDuration":134063,"Delta":122322713},{"NoteNumber":68,"Velocity":40,"Duration":124202,"SoundDuration":124202,"Delta":122332574},{"NoteNumber":54,"Velocity":27,"Duration":171530,"SoundDuration":171530,"Delta":122787985},{"NoteNumber":57,"Velocity":28,"Duration":161180,"SoundDuration":161180,"Delta":122798335},{"NoteNumber":61,"Velocity":32,"Duration":150829,"SoundDuration":150829,"Delta":122808685},{"NoteNumber":63,"Velocity":33,"Duration":140479,"SoundDuration":140479,"Delta":122819036},{"NoteNumber":68,"Velocity":36,"Duration":130129,"SoundDuration":130129,"Delta":122829386},{"NoteNumber":57,"Velocity":27,"Duration":135092,"SoundDuration":135092,"Delta":123328215},{"NoteNumber":59,"Velocity":32,"Duration":113404,"SoundDuration":113404,"Delta":123349903},{"NoteNumber":47,"Velocity":37,"Duration":2494899,"SoundDuration":2494899,"Delta":123349903},{"NoteNumber":57,"Velocity":27,"Duration":132305,"SoundDuration":132305,"Delta":123784620},{"NoteNumber":59,"Velocity":32,"Duration":113404,"SoundDuration":113404,"Delta":123803521},{"NoteNumber":57,"Velocity":27,"Duration":132305,"SoundDuration":132305,"Delta":124238238},{"NoteNumber":59,"Velocity":32,"Duration":113404,"SoundDuration":113404,"Delta":124257139},{"NoteNumber":56,"Velocity":27,"Duration":132305,"SoundDuration":132305,"Delta":124691856},{"NoteNumber":59,"Velocity":27,"Duration":122854,"SoundDuration":122854,"Delta":124701306},{"NoteNumber":61,"Velocity":32,"Duration":113404,"SoundDuration":113404,"Delta":124710757},{"NoteNumber":40,"Velocity":26,"Duration":2737115,"SoundDuration":2737115,"Delta":124710757},{"NoteNumber":56,"Velocity":27,"Duration":132305,"SoundDuration":132305,"Delta":125145474},{"NoteNumber":59,"Velocity":27,"Duration":122854,"SoundDuration":122854,"Delta":125154924},{"NoteNumber":61,"Velocity":32,"Duration":113404,"SoundDuration":113404,"Delta":125164375},{"NoteNumber":56,"Velocity":27,"Duration":132305,"SoundDuration":132305,"Delta":125599092},{"NoteNumber":59,"Velocity":27,"Duration":122854,"SoundDuration":122854,"Delta":125608542},{"NoteNumber":61,"Velocity":32,"Duration":113404,"SoundDuration":113404,"Delta":125617993},{"NoteNumber":49,"Velocity":33,"Duration":236648,"SoundDuration":236648,"Delta":125844802},{"NoteNumber":56,"Velocity":27,"Duration":132698,"SoundDuration":132698,"Delta":126061730},{"NoteNumber":59,"Velocity":27,"Duration":122837,"SoundDuration":122837,"Delta":126071590},{"NoteNumber":61,"Velocity":32,"Duration":112977,"SoundDuration":112977,"Delta":126081451},{"NoteNumber":51,"Velocity":40,"Duration":1129772,"SoundDuration":1129772,"Delta":126081451},{"NoteNumber":56,"Velocity":27,"Duration":131806,"SoundDuration":131806,"Delta":126514530},{"NoteNumber":59,"Velocity":27,"Duration":122392,"SoundDuration":122392,"Delta":126523945},{"NoteNumber":61,"Velocity":32,"Duration":112977,"SoundDuration":112977,"Delta":126533360},{"NoteNumber":56,"Velocity":27,"Duration":131806,"SoundDuration":131806,"Delta":126966439},{"NoteNumber":59,"Velocity":27,"Duration":122392,"SoundDuration":122392,"Delta":126975854},{"NoteNumber":61,"Velocity":32,"Duration":112977,"SoundDuration":112977,"Delta":126985269},{"NoteNumber":49,"Velocity":33,"Duration":236648,"SoundDuration":236648,"Delta":127211223},{"NoteNumber":55,"Velocity":27,"Duration":132274,"SoundDuration":132274,"Delta":127428152},{"NoteNumber":58,"Velocity":27,"Duration":122413,"SoundDuration":122413,"Delta":127438012},{"NoteNumber":62,"Velocity":32,"Duration":112553,"SoundDuration":112553,"Delta":127447872},{"NoteNumber":48,"Velocity":40,"Duration":675006,"SoundDuration":675006,"Delta":127447872},{"NoteNumber":40,"Velocity":26,"Duration":1338714,"SoundDuration":1338714,"Delta":127447872},{"NoteNumber":55,"Velocity":27,"Duration":131312,"SoundDuration":131312,"Delta":127879327},{"NoteNumber":58,"Velocity":27,"Duration":121932,"SoundDuration":121932,"Delta":127888707},{"NoteNumber":62,"Velocity":32,"Duration":112553,"SoundDuration":112553,"Delta":127898086},{"NoteNumber":50,"Velocity":40,"Duration":222871,"SoundDuration":222871,"Delta":128122879},{"NoteNumber":52,"Velocity":41,"Duration":221227,"SoundDuration":221227,"Delta":128345750},{"NoteNumber":54,"Velocity":45,"Duration":219608,"SoundDuration":219608,"Delta":128566978},{"NoteNumber":55,"Velocity":49,"Duration":218547,"SoundDuration":218547,"Delta":128786587},{"NoteNumber":57,"Velocity":55,"Duration":241410,"SoundDuration":241410,"Delta":129005134},{"NoteNumber":58,"Velocity":33,"Duration":123691,"SoundDuration":123691,"Delta":129246544},{"NoteNumber":60,"Velocity":33,"Duration":123691,"SoundDuration":123691,"Delta":129741308},{"NoteNumber":56,"Velocity":27,"Duration":132305,"SoundDuration":132305,"Delta":130215457},{"NoteNumber":59,"Velocity":27,"Duration":122854,"SoundDuration":122854,"Delta":130224907},{"NoteNumber":61,"Velocity":32,"Duration":113404,"SoundDuration":113404,"Delta":130234358},{"NoteNumber":47,"Velocity":40,"Duration":1134045,"SoundDuration":1134045,"Delta":130234358},{"NoteNumber":40,"Velocity":26,"Duration":2737115,"SoundDuration":2737115,"Delta":130234358},{"NoteNumber":56,"Velocity":27,"Duration":132305,"SoundDuration":132305,"Delta":130669075},{"NoteNumber":59,"Velocity":27,"Duration":122854,"SoundDuration":122854,"Delta":130678525},{"NoteNumber":61,"Velocity":32,"Duration":113404,"SoundDuration":113404,"Delta":130687976},{"NoteNumber":56,"Velocity":27,"Duration":132305,"SoundDuration":132305,"Delta":131122693},{"NoteNumber":59,"Velocity":27,"Duration":122854,"SoundDuration":122854,"Delta":131132143},{"NoteNumber":61,"Velocity":32,"Duration":113404,"SoundDuration":113404,"Delta":131141594},{"NoteNumber":49,"Velocity":33,"Duration":236648,"SoundDuration":236648,"Delta":131368403},{"NoteNumber":56,"Velocity":27,"Duration":132698,"SoundDuration":132698,"Delta":131585331},{"NoteNumber":59,"Velocity":27,"Duration":122837,"SoundDuration":122837,"Delta":131595191},{"NoteNumber":61,"Velocity":32,"Duration":112977,"SoundDuration":112977,"Delta":131605052},{"NoteNumber":51,"Velocity":40,"Duration":1129772,"SoundDuration":1129772,"Delta":131605052},{"NoteNumber":56,"Velocity":27,"Duration":131806,"SoundDuration":131806,"Delta":132038131},{"NoteNumber":59,"Velocity":27,"Duration":122392,"SoundDuration":122392,"Delta":132047546},{"NoteNumber":61,"Velocity":32,"Duration":112977,"SoundDuration":112977,"Delta":132056961},{"NoteNumber":56,"Velocity":27,"Duration":131806,"SoundDuration":131806,"Delta":132490040},{"NoteNumber":59,"Velocity":27,"Duration":122392,"SoundDuration":122392,"Delta":132499455},{"NoteNumber":61,"Velocity":32,"Duration":112977,"SoundDuration":112977,"Delta":132508870},{"NoteNumber":49,"Velocity":33,"Duration":236648,"SoundDuration":236648,"Delta":132734824},{"NoteNumber":55,"Velocity":27,"Duration":132274,"SoundDuration":132274,"Delta":132951753},{"NoteNumber":58,"Velocity":27,"Duration":122413,"SoundDuration":122413,"Delta":132961613},{"NoteNumber":62,"Velocity":32,"Duration":112553,"SoundDuration":112553,"Delta":132971473},{"NoteNumber":48,"Velocity":40,"Duration":675006,"SoundDuration":675006,"Delta":132971473},{"NoteNumber":40,"Velocity":26,"Duration":1338714,"SoundDuration":1338714,"Delta":132971473},{"NoteNumber":55,"Velocity":27,"Duration":131312,"SoundDuration":131312,"Delta":133402928},{"NoteNumber":58,"Velocity":27,"Duration":121932,"SoundDuration":121932,"Delta":133412308},{"NoteNumber":62,"Velocity":32,"Duration":112553,"SoundDuration":112553,"Delta":133421687},{"NoteNumber":50,"Velocity":40,"Duration":222871,"SoundDuration":222871,"Delta":133646480},{"NoteNumber":52,"Velocity":41,"Duration":221227,"SoundDuration":221227,"Delta":133869351},{"NoteNumber":54,"Velocity":45,"Duration":219608,"SoundDuration":219608,"Delta":134090579},{"NoteNumber":55,"Velocity":49,"Duration":218547,"SoundDuration":218547,"Delta":134310188},{"NoteNumber":57,"Velocity":55,"Duration":241410,"SoundDuration":241410,"Delta":134528735},{"NoteNumber":58,"Velocity":33,"Duration":123691,"SoundDuration":123691,"Delta":134770145},{"NoteNumber":60,"Velocity":33,"Duration":123691,"SoundDuration":123691,"Delta":135264909},{"NoteNumber":60,"Velocity":45,"Duration":228536,"SoundDuration":228536,"Delta":136254437},{"NoteNumber":62,"Velocity":41,"Duration":228536,"SoundDuration":228536,"Delta":136482974},{"NoteNumber":64,"Velocity":41,"Duration":221227,"SoundDuration":221227,"Delta":136711510},{"NoteNumber":66,"Velocity":45,"Duration":219608,"SoundDuration":219608,"Delta":136932738},{"NoteNumber":67,"Velocity":49,"Duration":218547,"SoundDuration":218547,"Delta":137152346},{"NoteNumber":69,"Velocity":55,"Duration":241410,"SoundDuration":241410,"Delta":137370894},{"NoteNumber":70,"Velocity":33,"Duration":123691,"SoundDuration":123691,"Delta":137612304},{"NoteNumber":72,"Velocity":33,"Duration":123691,"SoundDuration":123691,"Delta":138107068},{"NoteNumber":72,"Velocity":45,"Duration":228536,"SoundDuration":228536,"Delta":139096596},{"NoteNumber":74,"Velocity":41,"Duration":228536,"SoundDuration":228536,"Delta":139325132},{"NoteNumber":76,"Velocity":41,"Duration":221227,"SoundDuration":221227,"Delta":139553669},{"NoteNumber":78,"Velocity":45,"Duration":219608,"SoundDuration":219608,"Delta":139774897},{"NoteNumber":79,"Velocity":49,"Duration":218547,"SoundDuration":218547,"Delta":139994505},{"NoteNumber":81,"Velocity":55,"Duration":241410,"SoundDuration":241410,"Delta":140213053},{"NoteNumber":82,"Velocity":33,"Duration":128457,"SoundDuration":128457,"Delta":140454463},{"NoteNumber":71,"Velocity":45,"Duration":294098,"SoundDuration":294098,"Delta":140930827},{"NoteNumber":75,"Velocity":46,"Duration":278480,"SoundDuration":278480,"Delta":140936179},{"NoteNumber":78,"Velocity":50,"Duration":262423,"SoundDuration":262423,"Delta":140952237},{"NoteNumber":83,"Velocity":54,"Duration":246365,"SoundDuration":246365,"Delta":140968294},{"NoteNumber":69,"Velocity":48,"Duration":246365,"SoundDuration":246365,"Delta":140968294},{"NoteNumber":66,"Velocity":48,"Duration":246365,"SoundDuration":246365,"Delta":140968294},{"NoteNumber":59,"Velocity":48,"Duration":246365,"SoundDuration":246365,"Delta":140968294},{"NoteNumber":64,"Velocity":25,"Duration":211610,"SoundDuration":211610,"Delta":141953758},{"NoteNumber":71,"Velocity":25,"Duration":211610,"SoundDuration":211610,"Delta":142165368},{"NoteNumber":64,"Velocity":28,"Duration":218547,"SoundDuration":218547,"Delta":142376979},{"NoteNumber":71,"Velocity":28,"Duration":218547,"SoundDuration":218547,"Delta":142595526},{"NoteNumber":64,"Velocity":24,"Duration":214638,"SoundDuration":214638,"Delta":142814074},{"NoteNumber":71,"Velocity":24,"Duration":214638,"SoundDuration":214638,"Delta":143028712},{"NoteNumber":63,"Velocity":32,"Duration":53659,"SoundDuration":53659,"Delta":143189691},{"NoteNumber":68,"Velocity":40,"Duration":105805,"SoundDuration":105805,"Delta":143243351},{"NoteNumber":64,"Velocity":21,"Duration":211610,"SoundDuration":211610,"Delta":143243351},{"NoteNumber":71,"Velocity":21,"Duration":211610,"SoundDuration":211610,"Delta":143454961},{"NoteNumber":68,"Velocity":36,"Duration":52902,"SoundDuration":52902,"Delta":143613669},{"NoteNumber":73,"Velocity":47,"Duration":109273,"SoundDuration":109273,"Delta":143666572},{"NoteNumber":64,"Velocity":23,"Duration":218547,"SoundDuration":218547,"Delta":143666572},{"NoteNumber":71,"Velocity":23,"Duration":218547,"SoundDuration":218547,"Delta":143885119},{"NoteNumber":61,"Velocity":37,"Duration":54636,"SoundDuration":54636,"Delta":144049030},{"NoteNumber":66,"Velocity":45,"Duration":1291133,"SoundDuration":1291133,"Delta":144103667},{"NoteNumber":64,"Velocity":20,"Duration":215408,"SoundDuration":215408,"Delta":144103667},{"NoteNumber":71,"Velocity":20,"Duration":215408,"SoundDuration":215408,"Delta":144319076},{"NoteNumber":64,"Velocity":21,"Duration":211610,"SoundDuration":211610,"Delta":144534485},{"NoteNumber":71,"Velocity":21,"Duration":211610,"SoundDuration":211610,"Delta":144746095},{"NoteNumber":64,"Velocity":23,"Duration":218547,"SoundDuration":218547,"Delta":144957706},{"NoteNumber":71,"Velocity":23,"Duration":218547,"SoundDuration":218547,"Delta":145176253},{"NoteNumber":64,"Velocity":20,"Duration":214638,"SoundDuration":214638,"Delta":145394801},{"NoteNumber":71,"Velocity":20,"Duration":214638,"SoundDuration":214638,"Delta":145609439},{"NoteNumber":70,"Velocity":32,"Duration":53659,"SoundDuration":53659,"Delta":145770418},{"NoteNumber":75,"Velocity":40,"Duration":105805,"SoundDuration":105805,"Delta":145824078},{"NoteNumber":64,"Velocity":21,"Duration":211610,"SoundDuration":211610,"Delta":145824078},{"NoteNumber":71,"Velocity":21,"Duration":211610,"SoundDuration":211610,"Delta":146035688},{"NoteNumber":75,"Velocity":36,"Duration":52902,"SoundDuration":52902,"Delta":146194396},{"NoteNumber":80,"Velocity":47,"Duration":109273,"SoundDuration":109273,"Delta":146247299},{"NoteNumber":64,"Velocity":23,"Duration":218547,"SoundDuration":218547,"Delta":146247299},{"NoteNumber":71,"Velocity":23,"Duration":218547,"SoundDuration":218547,"Delta":146465846},{"NoteNumber":68,"Velocity":37,"Duration":54636,"SoundDuration":54636,"Delta":146629757},{"NoteNumber":73,"Velocity":45,"Duration":1291133,"SoundDuration":1291133,"Delta":146684394},{"NoteNumber":64,"Velocity":20,"Duration":215408,"SoundDuration":215408,"Delta":146684394},{"NoteNumber":71,"Velocity":20,"Duration":215408,"SoundDuration":215408,"Delta":146899803},{"NoteNumber":64,"Velocity":21,"Duration":211610,"SoundDuration":211610,"Delta":147115212},{"NoteNumber":71,"Velocity":21,"Duration":211610,"SoundDuration":211610,"Delta":147326822},{"NoteNumber":64,"Velocity":23,"Duration":218547,"SoundDuration":218547,"Delta":147538433},{"NoteNumber":71,"Velocity":23,"Duration":218547,"SoundDuration":218547,"Delta":147756980},{"NoteNumber":64,"Velocity":20,"Duration":214638,"SoundDuration":214638,"Delta":147975528},{"NoteNumber":71,"Velocity":20,"Duration":214638,"SoundDuration":214638,"Delta":148190166},{"NoteNumber":63,"Velocity":32,"Duration":53659,"SoundDuration":53659,"Delta":148351145},{"NoteNumber":68,"Velocity":40,"Duration":105805,"SoundDuration":105805,"Delta":148404805},{"NoteNumber":64,"Velocity":21,"Duration":211610,"SoundDuration":211610,"Delta":148404805},{"NoteNumber":71,"Velocity":21,"Duration":211610,"SoundDuration":211610,"Delta":148616415},{"NoteNumber":68,"Velocity":36,"Duration":52902,"SoundDuration":52902,"Delta":148775123},{"NoteNumber":73,"Velocity":47,"Duration":106556,"SoundDuration":106556,"Delta":148828026},{"NoteNumber":64,"Velocity":23,"Duration":213113,"SoundDuration":213113,"Delta":148828026},{"NoteNumber":71,"Velocity":23,"Duration":213113,"SoundDuration":213113,"Delta":149041139},{"NoteNumber":61,"Velocity":37,"Duration":53278,"SoundDuration":53278,"Delta":149200974},{"NoteNumber":66,"Velocity":44,"Duration":107319,"SoundDuration":107319,"Delta":149254253},{"NoteNumber":64,"Velocity":20,"Duration":214638,"SoundDuration":214638,"Delta":149254253},{"NoteNumber":71,"Velocity":20,"Duration":214638,"SoundDuration":214638,"Delta":149468891},{"NoteNumber":70,"Velocity":41,"Duration":53659,"SoundDuration":53659,"Delta":149629870},{"NoteNumber":75,"Velocity":49,"Duration":104333,"SoundDuration":104333,"Delta":149683530},{"NoteNumber":64,"Velocity":21,"Duration":208666,"SoundDuration":208666,"Delta":149683530},{"NoteNumber":71,"Velocity":21,"Duration":208666,"SoundDuration":208666,"Delta":149892196},{"NoteNumber":75,"Velocity":46,"Duration":52166,"SoundDuration":52166,"Delta":150048696},{"NoteNumber":80,"Velocity":59,"Duration":109273,"SoundDuration":109273,"Delta":150100863},{"NoteNumber":64,"Velocity":23,"Duration":218547,"SoundDuration":218547,"Delta":150100863},{"NoteNumber":71,"Velocity":23,"Duration":218547,"SoundDuration":218547,"Delta":150319410},{"NoteNumber":68,"Velocity":37,"Duration":54636,"SoundDuration":54636,"Delta":150483321},{"NoteNumber":73,"Velocity":44,"Duration":107319,"SoundDuration":107319,"Delta":150537958},{"NoteNumber":64,"Velocity":20,"Duration":214638,"SoundDuration":214638,"Delta":150537958},{"NoteNumber":71,"Velocity":20,"Duration":214638,"SoundDuration":214638,"Delta":150752596},{"NoteNumber":63,"Velocity":32,"Duration":53659,"SoundDuration":53659,"Delta":150913575},{"NoteNumber":68,"Velocity":40,"Duration":105805,"SoundDuration":105805,"Delta":150967235},{"NoteNumber":64,"Velocity":21,"Duration":211610,"SoundDuration":211610,"Delta":150967235},{"NoteNumber":71,"Velocity":21,"Duration":211610,"SoundDuration":211610,"Delta":151178845},{"NoteNumber":68,"Velocity":36,"Duration":52902,"SoundDuration":52902,"Delta":151337553},{"NoteNumber":73,"Velocity":47,"Duration":106556,"SoundDuration":106556,"Delta":151390456},{"NoteNumber":64,"Velocity":23,"Duration":213113,"SoundDuration":213113,"Delta":151390456},{"NoteNumber":71,"Velocity":23,"Duration":213113,"SoundDuration":213113,"Delta":151603569},{"NoteNumber":61,"Velocity":37,"Duration":53278,"SoundDuration":53278,"Delta":151763404},{"NoteNumber":66,"Velocity":44,"Duration":107319,"SoundDuration":107319,"Delta":151816683},{"NoteNumber":64,"Velocity":20,"Duration":214638,"SoundDuration":214638,"Delta":151816683},{"NoteNumber":71,"Velocity":20,"Duration":214638,"SoundDuration":214638,"Delta":152031321},{"NoteNumber":70,"Velocity":41,"Duration":53659,"SoundDuration":53659,"Delta":152192300},{"NoteNumber":75,"Velocity":49,"Duration":104333,"SoundDuration":104333,"Delta":152245960},{"NoteNumber":64,"Velocity":21,"Duration":208666,"SoundDuration":208666,"Delta":152245960},{"NoteNumber":71,"Velocity":21,"Duration":208666,"SoundDuration":208666,"Delta":152454626},{"NoteNumber":75,"Velocity":46,"Duration":52166,"SoundDuration":52166,"Delta":152611126},{"NoteNumber":80,"Velocity":59,"Duration":109273,"SoundDuration":109273,"Delta":152663293},{"NoteNumber":64,"Velocity":23,"Duration":218547,"SoundDuration":218547,"Delta":152663293},{"NoteNumber":71,"Velocity":23,"Duration":218547,"SoundDuration":218547,"Delta":152881840},{"NoteNumber":73,"Velocity":33,"Duration":211610,"SoundDuration":211610,"Delta":153100388},{"NoteNumber":68,"Velocity":26,"Duration":211610,"SoundDuration":211610,"Delta":153100388},{"NoteNumber":64,"Velocity":17,"Duration":211610,"SoundDuration":211610,"Delta":153311998},{"NoteNumber":71,"Velocity":22,"Duration":211610,"SoundDuration":211610,"Delta":153311998},{"NoteNumber":63,"Velocity":25,"Duration":210127,"SoundDuration":210127,"Delta":153523609},{"NoteNumber":68,"Velocity":32,"Duration":210127,"SoundDuration":210127,"Delta":153523609},{"NoteNumber":64,"Velocity":17,"Duration":210127,"SoundDuration":210127,"Delta":153733737},{"NoteNumber":71,"Velocity":22,"Duration":210127,"SoundDuration":210127,"Delta":153733737},{"NoteNumber":68,"Velocity":26,"Duration":210127,"SoundDuration":210127,"Delta":153943865},{"NoteNumber":73,"Velocity":33,"Duration":210127,"SoundDuration":210127,"Delta":153943865},{"NoteNumber":64,"Velocity":18,"Duration":210127,"SoundDuration":210127,"Delta":154153993},{"NoteNumber":71,"Velocity":23,"Duration":210127,"SoundDuration":210127,"Delta":154153993},{"NoteNumber":68,"Velocity":33,"Duration":210866,"SoundDuration":210866,"Delta":154364121},{"NoteNumber":63,"Velocity":26,"Duration":210866,"SoundDuration":210866,"Delta":154364121},{"NoteNumber":64,"Velocity":17,"Duration":210866,"SoundDuration":210866,"Delta":154574987},{"NoteNumber":71,"Velocity":22,"Duration":210866,"SoundDuration":210866,"Delta":154574987},{"NoteNumber":68,"Velocity":25,"Duration":210866,"SoundDuration":210866,"Delta":154785854},{"NoteNumber":73,"Velocity":32,"Duration":210866,"SoundDuration":210866,"Delta":154785854},{"NoteNumber":64,"Velocity":17,"Duration":210866,"SoundDuration":210866,"Delta":154996720},{"NoteNumber":71,"Velocity":22,"Duration":210866,"SoundDuration":210866,"Delta":154996720},{"NoteNumber":63,"Velocity":26,"Duration":216184,"SoundDuration":216184,"Delta":155207587},{"NoteNumber":68,"Velocity":33,"Duration":216184,"SoundDuration":216184,"Delta":155207587},{"NoteNumber":64,"Velocity":18,"Duration":245358,"SoundDuration":245358,"Delta":155423772},{"NoteNumber":71,"Velocity":23,"Duration":245358,"SoundDuration":245358,"Delta":155423772},{"NoteNumber":73,"Velocity":28,"Duration":216967,"SoundDuration":216967,"Delta":155669130},{"NoteNumber":68,"Velocity":22,"Duration":216967,"SoundDuration":216967,"Delta":155669130},{"NoteNumber":64,"Velocity":14,"Duration":216966,"SoundDuration":216966,"Delta":155886097},{"NoteNumber":71,"Velocity":18,"Duration":216966,"SoundDuration":216966,"Delta":155886097},{"NoteNumber":63,"Velocity":21,"Duration":210866,"SoundDuration":210866,"Delta":156103064},{"NoteNumber":68,"Velocity":27,"Duration":210866,"SoundDuration":210866,"Delta":156103064},{"NoteNumber":64,"Velocity":14,"Duration":210866,"SoundDuration":210866,"Delta":156313931},{"NoteNumber":71,"Velocity":18,"Duration":210866,"SoundDuration":210866,"Delta":156313931},{"NoteNumber":68,"Velocity":22,"Duration":210866,"SoundDuration":210866,"Delta":156524797},{"NoteNumber":73,"Velocity":28,"Duration":210866,"SoundDuration":210866,"Delta":156524797},{"NoteNumber":64,"Velocity":15,"Duration":210866,"SoundDuration":210866,"Delta":156735664},{"NoteNumber":71,"Velocity":19,"Duration":210866,"SoundDuration":210866,"Delta":156735664},{"NoteNumber":68,"Velocity":28,"Duration":207943,"SoundDuration":207943,"Delta":156946530},{"NoteNumber":63,"Velocity":22,"Duration":207943,"SoundDuration":207943,"Delta":156946530},{"NoteNumber":64,"Velocity":14,"Duration":207943,"SoundDuration":207943,"Delta":157154474},{"NoteNumber":71,"Velocity":18,"Duration":207943,"SoundDuration":207943,"Delta":157154474},{"NoteNumber":68,"Velocity":21,"Duration":210866,"SoundDuration":210866,"Delta":157362417},{"NoteNumber":73,"Velocity":27,"Duration":210866,"SoundDuration":210866,"Delta":157362417},{"NoteNumber":64,"Velocity":14,"Duration":210866,"SoundDuration":210866,"Delta":157573284},{"NoteNumber":71,"Velocity":18,"Duration":210866,"SoundDuration":210866,"Delta":157573284},{"NoteNumber":63,"Velocity":22,"Duration":210866,"SoundDuration":210866,"Delta":157784150},{"NoteNumber":68,"Velocity":28,"Duration":210866,"SoundDuration":210866,"Delta":157784150},{"NoteNumber":64,"Velocity":15,"Duration":210866,"SoundDuration":210866,"Delta":157995017},{"NoteNumber":71,"Velocity":19,"Duration":210866,"SoundDuration":210866,"Delta":157995017},{"NoteNumber":68,"Velocity":28,"Duration":210866,"SoundDuration":210866,"Delta":158205883},{"NoteNumber":63,"Velocity":22,"Duration":210866,"SoundDuration":210866,"Delta":158205883},{"NoteNumber":63,"Velocity":23,"Duration":210866,"SoundDuration":210866,"Delta":159471082},{"NoteNumber":68,"Velocity":23,"Duration":210866,"SoundDuration":210866,"Delta":159471082},{"NoteNumber":71,"Velocity":23,"Duration":210866,"SoundDuration":210866,"Delta":159471082},{"NoteNumber":56,"Velocity":16,"Duration":210866,"SoundDuration":210866,"Delta":159471082},{"NoteNumber":59,"Velocity":16,"Duration":210866,"SoundDuration":210866,"Delta":159471082},{"NoteNumber":52,"Velocity":20,"Duration":210866,"SoundDuration":210866,"Delta":160736281},{"NoteNumber":59,"Velocity":16,"Duration":210866,"SoundDuration":210866,"Delta":160947148},{"NoteNumber":64,"Velocity":20,"Duration":209395,"SoundDuration":209395,"Delta":161158014},{"NoteNumber":68,"Velocity":22,"Duration":209395,"SoundDuration":209395,"Delta":161367409},{"NoteNumber":76,"Velocity":25,"Duration":207225,"SoundDuration":207225,"Delta":161576804},{"NoteNumber":80,"Velocity":25,"Duration":224265,"SoundDuration":224265,"Delta":161784030},{"NoteNumber":88,"Velocity":29,"Duration":209395,"SoundDuration":209395,"Delta":162008295},{"NoteNumber":100,"Velocity":32,"Duration":209395,"SoundDuration":209395,"Delta":163264665}],"license":{"name":"Creative Commons Attribution-ShareAlike 3.0 Germany","url":"http://creativecommons.org/licenses/by-sa/3.0/de/deed.en","text":"The MIDI, audio (MP3, OGG) and video files of Bernd Krueger are licensed under the cc-by-sa Germany License. This means that you can use and adapt the files, as long as you attribute the copyright holder.\n\nName: Bernd Krueger\nSource: http://www.piano-midi.de\n\nThe distribution or public playback of the files is only allowed under identical license conditions.\n\nThe scores are open source.","attribution":"MIDI files by Bernd Krueger (piano-midi.de)","attributionUrl":"http://www.piano-midi.de"}}