{"title":"The snow is dancing","artist":"Debussy","durationMs":143414,"midiSha256":"46d68fde41aacc1b8171f61ddc21b2830f6d5cfa92e53abe37dbd69e7b59c491","midiObject":[{"NoteNumber":76,"Velocity":32,"Duration":124626,"SoundDuration":124626,"Delta":0},{"NoteNumber":77,"Velocity":26,"Duration":124625,"SoundDuration":124625,"Delta":249252},{"NoteNumber":79,"Velocity":26,"Duration":124625,"SoundDuration":124625,"Delta":498504},{"NoteNumber":81,"Velocity":26,"Duration":124626,"SoundDuration":124626,"Delta":747756},{"NoteNumber":76,"Velocity":32,"Duration":124626,"SoundDuration":124626,"Delta":997008},{"NoteNumber":77,"Velocity":28,"Duration":124626,"SoundDuration":124626,"Delta":1246260},{"NoteNumber":79,"Velocity":28,"Duration":124626,"SoundDuration":124626,"Delta":1495512},{"NoteNumber":81,"Velocity":28,"Duration":124626,"SoundDuration":124626,"Delta":1744764},{"NoteNumber":64,"Velocity":33,"Duration":93469,"SoundDuration":93469,"Delta":1994016},{"NoteNumber":76,"Velocity":36,"Duration":93469,"SoundDuration":93469,"Delta":2118642},{"NoteNumber":65,"Velocity":29,"Duration":91411,"SoundDuration":91411,"Delta":2243268},{"NoteNumber":77,"Velocity":30,"Duration":91411,"SoundDuration":91411,"Delta":2365149},{"NoteNumber":67,"Velocity":29,"Duration":91411,"SoundDuration":91411,"Delta":2487031},{"NoteNumber":79,"Velocity":30,"Duration":91411,"SoundDuration":91411,"Delta":2608913},{"NoteNumber":69,"Velocity":29,"Duration":91411,"SoundDuration":91411,"Delta":2730795},{"NoteNumber":81,"Velocity":30,"Duration":91411,"SoundDuration":91411,"Delta":2852676},{"NoteNumber":64,"Velocity":33,"Duration":93469,"SoundDuration":93469,"Delta":2974558},{"NoteNumber":76,"Velocity":36,"Duration":93469,"SoundDuration":93469,"Delta":3099184},{"NoteNumber":65,"Velocity":30,"Duration":91078,"SoundDuration":91078,"Delta":3223810},{"NoteNumber":77,"Velocity":29,"Duration":91078,"SoundDuration":91078,"Delta":3345248},{"NoteNumber":67,"Velocity":30,"Duration":91078,"SoundDuration":91078,"Delta":3466685},{"NoteNumber":79,"Velocity":29,"Duration":91078,"SoundDuration":91078,"Delta":3588123},{"NoteNumber":69,"Velocity":30,"Duration":99434,"SoundDuration":99434,"Delta":3709561},{"NoteNumber":81,"Velocity":29,"Duration":99434,"SoundDuration":99434,"Delta":3842140},{"NoteNumber":70,"Velocity":45,"Duration":1950429,"SoundDuration":1950429,"Delta":3974719},{"NoteNumber":64,"Velocity":37,"Duration":93469,"SoundDuration":93469,"Delta":3974719},{"NoteNumber":76,"Velocity":40,"Duration":93469,"SoundDuration":93469,"Delta":4099345},{"NoteNumber":65,"Velocity":33,"Duration":91078,"SoundDuration":91078,"Delta":4223971},{"NoteNumber":77,"Velocity":34,"Duration":91078,"SoundDuration":91078,"Delta":4345409},{"NoteNumber":67,"Velocity":33,"Duration":91078,"SoundDuration":91078,"Delta":4466847},{"NoteNumber":79,"Velocity":34,"Duration":91078,"SoundDuration":91078,"Delta":4588284},{"NoteNumber":69,"Velocity":33,"Duration":91078,"SoundDuration":91078,"Delta":4709722},{"NoteNumber":81,"Velocity":34,"Duration":91078,"SoundDuration":91078,"Delta":4831160},{"NoteNumber":64,"Velocity":37,"Duration":93469,"SoundDuration":93469,"Delta":4952598},{"NoteNumber":76,"Velocity":40,"Duration":93469,"SoundDuration":93469,"Delta":5077224},{"NoteNumber":65,"Velocity":34,"Duration":90412,"SoundDuration":90412,"Delta":5201850},{"NoteNumber":77,"Velocity":33,"Duration":90412,"SoundDuration":90412,"Delta":5322399},{"NoteNumber":67,"Velocity":34,"Duration":90412,"SoundDuration":90412,"Delta":5442949},{"NoteNumber":79,"Velocity":33,"Duration":90412,"SoundDuration":90412,"Delta":5563499},{"NoteNumber":69,"Velocity":34,"Duration":90412,"SoundDuration":90412,"Delta":5684049},{"NoteNumber":81,"Velocity":33,"Duration":90412,"SoundDuration":90412,"Delta":5804598},{"NoteNumber":72,"Velocity":45,"Duration":1950174,"SoundDuration":1950174,"Delta":5925148},{"NoteNumber":64,"Velocity":37,"Duration":92425,"SoundDuration":92425,"Delta":5925148},{"NoteNumber":76,"Velocity":40,"Duration":92425,"SoundDuration":92425,"Delta":6048382},{"NoteNumber":65,"Velocity":33,"Duration":92425,"SoundDuration":92425,"Delta":6171616},{"NoteNumber":77,"Velocity":34,"Duration":91078,"SoundDuration":91078,"Delta":6294849},{"NoteNumber":67,"Velocity":33,"Duration":91078,"SoundDuration":91078,"Delta":6416287},{"NoteNumber":79,"Velocity":34,"Duration":91078,"SoundDuration":91078,"Delta":6537725},{"NoteNumber":69,"Velocity":33,"Duration":91078,"SoundDuration":91078,"Delta":6659163},{"NoteNumber":81,"Velocity":34,"Duration":91078,"SoundDuration":91078,"Delta":6780600},{"NoteNumber":64,"Velocity":37,"Duration":91746,"SoundDuration":91746,"Delta":6902038},{"NoteNumber":76,"Velocity":40,"Duration":91746,"SoundDuration":91746,"Delta":7024367},{"NoteNumber":65,"Velocity":34,"Duration":91078,"SoundDuration":91078,"Delta":7146697},{"NoteNumber":77,"Velocity":33,"Duration":91078,"SoundDuration":91078,"Delta":7268134},{"NoteNumber":67,"Velocity":34,"Duration":91078,"SoundDuration":91078,"Delta":7389572},{"NoteNumber":79,"Velocity":33,"Duration":91078,"SoundDuration":91078,"Delta":7511010},{"NoteNumber":69,"Velocity":34,"Duration":91078,"SoundDuration":91078,"Delta":7632448},{"NoteNumber":81,"Velocity":33,"Duration":91078,"SoundDuration":91078,"Delta":7753885},{"NoteNumber":70,"Velocity":45,"Duration":1940204,"SoundDuration":1940204,"Delta":7875323},{"NoteNumber":64,"Velocity":37,"Duration":91374,"SoundDuration":91374,"Delta":7875323},{"NoteNumber":76,"Velocity":40,"Duration":91374,"SoundDuration":91374,"Delta":7997155},{"NoteNumber":65,"Velocity":33,"Duration":91078,"SoundDuration":91078,"Delta":8118988},{"NoteNumber":77,"Velocity":34,"Duration":91411,"SoundDuration":91411,"Delta":8240425},{"NoteNumber":67,"Velocity":33,"Duration":91411,"SoundDuration":91411,"Delta":8362307},{"NoteNumber":79,"Velocity":34,"Duration":91411,"SoundDuration":91411,"Delta":8484189},{"NoteNumber":69,"Velocity":33,"Duration":91411,"SoundDuration":91411,"Delta":8606071},{"NoteNumber":81,"Velocity":34,"Duration":91411,"SoundDuration":91411,"Delta":8727952},{"NoteNumber":64,"Velocity":37,"Duration":89913,"SoundDuration":89913,"Delta":8849834},{"NoteNumber":76,"Velocity":40,"Duration":89913,"SoundDuration":89913,"Delta":8969719},{"NoteNumber":65,"Velocity":34,"Duration":90740,"SoundDuration":90740,"Delta":9089604},{"NoteNumber":77,"Velocity":33,"Duration":90740,"SoundDuration":90740,"Delta":9210591},{"NoteNumber":67,"Velocity":34,"Duration":90740,"SoundDuration":90740,"Delta":9331579},{"NoteNumber":79,"Velocity":33,"Duration":90740,"SoundDuration":90740,"Delta":9452566},{"NoteNumber":69,"Velocity":34,"Duration":90740,"SoundDuration":90740,"Delta":9573553},{"NoteNumber":81,"Velocity":33,"Duration":90740,"SoundDuration":90740,"Delta":9694540},{"NoteNumber":73,"Velocity":45,"Duration":1959854,"SoundDuration":1959854,"Delta":9815528},{"NoteNumber":64,"Velocity":37,"Duration":91374,"SoundDuration":91374,"Delta":9815528},{"NoteNumber":76,"Velocity":40,"Duration":91374,"SoundDuration":91374,"Delta":9937360},{"NoteNumber":65,"Velocity":33,"Duration":91078,"SoundDuration":91078,"Delta":10059192},{"NoteNumber":77,"Velocity":34,"Duration":91078,"SoundDuration":91078,"Delta":10180630},{"NoteNumber":67,"Velocity":33,"Duration":91078,"SoundDuration":91078,"Delta":10302068},{"NoteNumber":79,"Velocity":34,"Duration":91078,"SoundDuration":91078,"Delta":10423505},{"NoteNumber":69,"Velocity":33,"Duration":91078,"SoundDuration":91078,"Delta":10544943},{"NoteNumber":81,"Velocity":34,"Duration":91078,"SoundDuration":91078,"Delta":10666381},{"NoteNumber":64,"Velocity":37,"Duration":91746,"SoundDuration":91746,"Delta":10787819},{"NoteNumber":76,"Velocity":40,"Duration":91746,"SoundDuration":91746,"Delta":10910148},{"NoteNumber":65,"Velocity":34,"Duration":90740,"SoundDuration":90740,"Delta":11032477},{"NoteNumber":77,"Velocity":33,"Duration":90740,"SoundDuration":90740,"Delta":11153464},{"NoteNumber":67,"Velocity":34,"Duration":90740,"SoundDuration":90740,"Delta":11274452},{"NoteNumber":79,"Velocity":33,"Duration":90740,"SoundDuration":90740,"Delta":11395439},{"NoteNumber":69,"Velocity":34,"Duration":97108,"SoundDuration":97108,"Delta":11516426},{"NoteNumber":81,"Velocity":33,"Duration":97108,"SoundDuration":97108,"Delta":11645904},{"NoteNumber":74,"Velocity":39,"Duration":91746,"SoundDuration":91746,"Delta":11775382},{"NoteNumber":62,"Velocity":39,"Duration":1934909,"SoundDuration":1934909,"Delta":11775382},{"NoteNumber":76,"Velocity":36,"Duration":91746,"SoundDuration":91746,"Delta":11897711},{"NoteNumber":72,"Velocity":29,"Duration":90740,"SoundDuration":90740,"Delta":12020040},{"NoteNumber":77,"Velocity":30,"Duration":90740,"SoundDuration":90740,"Delta":12141027},{"NoteNumber":70,"Velocity":29,"Duration":88848,"SoundDuration":88848,"Delta":12262015},{"NoteNumber":79,"Velocity":30,"Duration":88848,"SoundDuration":88848,"Delta":12380479},{"NoteNumber":69,"Velocity":29,"Duration":90638,"SoundDuration":90638,"Delta":12498944},{"NoteNumber":81,"Velocity":30,"Duration":90638,"SoundDuration":90638,"Delta":12619795},{"NoteNumber":72,"Velocity":36,"Duration":91078,"SoundDuration":91078,"Delta":12740646},{"NoteNumber":74,"Velocity":36,"Duration":91078,"SoundDuration":91078,"Delta":12862083},{"NoteNumber":70,"Velocity":30,"Duration":91078,"SoundDuration":91078,"Delta":12983521},{"NoteNumber":76,"Velocity":29,"Duration":91078,"SoundDuration":91078,"Delta":13104959},{"NoteNumber":69,"Velocity":30,"Duration":90086,"SoundDuration":90086,"Delta":13226397},{"NoteNumber":77,"Velocity":29,"Duration":90086,"SoundDuration":90086,"Delta":13346512},{"NoteNumber":67,"Velocity":30,"Duration":91374,"SoundDuration":91374,"Delta":13466627},{"NoteNumber":79,"Velocity":29,"Duration":91374,"SoundDuration":91374,"Delta":13588459},{"NoteNumber":62,"Velocity":40,"Duration":1928151,"SoundDuration":1928151,"Delta":13710292},{"NoteNumber":74,"Velocity":33,"Duration":90412,"SoundDuration":90412,"Delta":13710292},{"NoteNumber":76,"Velocity":36,"Duration":90412,"SoundDuration":90412,"Delta":13830841},{"NoteNumber":72,"Velocity":29,"Duration":90412,"SoundDuration":90412,"Delta":13951391},{"NoteNumber":77,"Velocity":30,"Duration":90412,"SoundDuration":90412,"Delta":14071941},{"NoteNumber":70,"Velocity":29,"Duration":89762,"SoundDuration":89762,"Delta":14192491},{"NoteNumber":79,"Velocity":30,"Duration":89763,"SoundDuration":89763,"Delta":14312175},{"NoteNumber":69,"Velocity":29,"Duration":89441,"SoundDuration":89441,"Delta":14431859},{"NoteNumber":81,"Velocity":30,"Duration":89441,"SoundDuration":89441,"Delta":14551114},{"NoteNumber":72,"Velocity":33,"Duration":90086,"SoundDuration":90086,"Delta":14670370},{"NoteNumber":74,"Velocity":36,"Duration":90086,"SoundDuration":90086,"Delta":14790485},{"NoteNumber":70,"Velocity":30,"Duration":90086,"SoundDuration":90086,"Delta":14910601},{"NoteNumber":76,"Velocity":29,"Duration":90086,"SoundDuration":90086,"Delta":15030716},{"NoteNumber":69,"Velocity":30,"Duration":90086,"SoundDuration":90086,"Delta":15150831},{"NoteNumber":77,"Velocity":29,"Duration":90086,"SoundDuration":90086,"Delta":15270946},{"NoteNumber":67,"Velocity":30,"Duration":92768,"SoundDuration":92768,"Delta":15391062},{"NoteNumber":79,"Velocity":29,"Duration":92768,"SoundDuration":92768,"Delta":15514752},{"NoteNumber":62,"Velocity":40,"Duration":1913729,"SoundDuration":1913729,"Delta":15638444},{"NoteNumber":69,"Velocity":33,"Duration":90086,"SoundDuration":90086,"Delta":15638444},{"NoteNumber":76,"Velocity":36,"Duration":90086,"SoundDuration":90086,"Delta":15758559},{"NoteNumber":72,"Velocity":29,"Duration":90086,"SoundDuration":90086,"Delta":15878674},{"NoteNumber":77,"Velocity":30,"Duration":90086,"SoundDuration":90086,"Delta":15998789},{"NoteNumber":70,"Velocity":29,"Duration":90086,"SoundDuration":90086,"Delta":16118904},{"NoteNumber":74,"Velocity":30,"Duration":90086,"SoundDuration":90086,"Delta":16239020},{"NoteNumber":67,"Velocity":29,"Duration":90086,"SoundDuration":90086,"Delta":16359135},{"NoteNumber":76,"Velocity":30,"Duration":90086,"SoundDuration":90086,"Delta":16479250},{"NoteNumber":69,"Velocity":33,"Duration":89555,"SoundDuration":89555,"Delta":16599366},{"NoteNumber":72,"Velocity":36,"Duration":89555,"SoundDuration":89555,"Delta":16718773},{"NoteNumber":65,"Velocity":30,"Duration":89555,"SoundDuration":89555,"Delta":16838181},{"NoteNumber":74,"Velocity":29,"Duration":88152,"SoundDuration":88152,"Delta":16957589},{"NoteNumber":67,"Velocity":30,"Duration":88152,"SoundDuration":88152,"Delta":17075125},{"NoteNumber":70,"Velocity":29,"Duration":88152,"SoundDuration":88152,"Delta":17192662},{"NoteNumber":64,"Velocity":30,"Duration":90740,"SoundDuration":90740,"Delta":17310198},{"NoteNumber":72,"Velocity":29,"Duration":90740,"SoundDuration":90740,"Delta":17431185},{"NoteNumber":62,"Velocity":40,"Duration":1965745,"SoundDuration":1965745,"Delta":17552173},{"NoteNumber":69,"Velocity":33,"Duration":89763,"SoundDuration":89763,"Delta":17552173},{"NoteNumber":76,"Velocity":36,"Duration":89763,"SoundDuration":89763,"Delta":17671857},{"NoteNumber":72,"Velocity":29,"Duration":89763,"SoundDuration":89763,"Delta":17791541},{"NoteNumber":77,"Velocity":30,"Duration":89763,"SoundDuration":89763,"Delta":17911225},{"NoteNumber":70,"Velocity":29,"Duration":89762,"SoundDuration":89762,"Delta":18030909},{"NoteNumber":74,"Velocity":30,"Duration":89762,"SoundDuration":89762,"Delta":18150593},{"NoteNumber":67,"Velocity":29,"Duration":89763,"SoundDuration":89763,"Delta":18270277},{"NoteNumber":76,"Velocity":30,"Duration":89763,"SoundDuration":89763,"Delta":18389961},{"NoteNumber":69,"Velocity":33,"Duration":91746,"SoundDuration":91746,"Delta":18509645},{"NoteNumber":72,"Velocity":36,"Duration":91746,"SoundDuration":91746,"Delta":18631974},{"NoteNumber":65,"Velocity":30,"Duration":91746,"SoundDuration":91746,"Delta":18754303},{"NoteNumber":74,"Velocity":29,"Duration":91746,"SoundDuration":91746,"Delta":18876633},{"NoteNumber":69,"Velocity":32,"Duration":93820,"SoundDuration":93820,"Delta":18998962},{"NoteNumber":76,"Velocity":29,"Duration":93820,"SoundDuration":93820,"Delta":19124056},{"NoteNumber":74,"Velocity":33,"Duration":100788,"SoundDuration":100788,"Delta":19249149},{"NoteNumber":77,"Velocity":29,"Duration":100788,"SoundDuration":100788,"Delta":19383534},{"NoteNumber":73,"Velocity":51,"Duration":121437,"SoundDuration":121437,"Delta":19517918},{"NoteNumber":77,"Velocity":40,"Duration":121437,"SoundDuration":121437,"Delta":19639356},{"NoteNumber":81,"Velocity":43,"Duration":118408,"SoundDuration":118408,"Delta":19760794},{"NoteNumber":76,"Velocity":38,"Duration":118408,"SoundDuration":118408,"Delta":19879202},{"NoteNumber":73,"Velocity":37,"Duration":118408,"SoundDuration":118408,"Delta":19997611},{"NoteNumber":77,"Velocity":43,"Duration":118408,"SoundDuration":118408,"Delta":20116019},{"NoteNumber":81,"Velocity":39,"Duration":121437,"SoundDuration":121437,"Delta":20234428},{"NoteNumber":76,"Velocity":41,"Duration":121437,"SoundDuration":121437,"Delta":20355865},{"NoteNumber":73,"Velocity":49,"Duration":118830,"SoundDuration":118830,"Delta":20477303},{"NoteNumber":77,"Velocity":46,"Duration":118830,"SoundDuration":118830,"Delta":20596134},{"NoteNumber":79,"Velocity":48,"Duration":118830,"SoundDuration":118830,"Delta":20714965},{"NoteNumber":76,"Velocity":44,"Duration":118830,"SoundDuration":118830,"Delta":20833795},{"NoteNumber":73,"Velocity":43,"Duration":118830,"SoundDuration":118830,"Delta":20952626},{"NoteNumber":77,"Velocity":50,"Duration":118830,"SoundDuration":118830,"Delta":21071457},{"NoteNumber":79,"Velocity":45,"Duration":118830,"SoundDuration":118830,"Delta":21190288},{"NoteNumber":76,"Velocity":47,"Duration":118830,"SoundDuration":118830,"Delta":21309118},{"NoteNumber":70,"Velocity":46,"Duration":1910031,"SoundDuration":1910031,"Delta":21427949},{"NoteNumber":73,"Velocity":54,"Duration":121437,"SoundDuration":121437,"Delta":21427949},{"NoteNumber":77,"Velocity":42,"Duration":121437,"SoundDuration":121437,"Delta":21549387},{"NoteNumber":82,"Velocity":44,"Duration":118408,"SoundDuration":118408,"Delta":21670825},{"NoteNumber":76,"Velocity":38,"Duration":118408,"SoundDuration":118408,"Delta":21789233},{"NoteNumber":73,"Velocity":37,"Duration":118408,"SoundDuration":118408,"Delta":21907642},{"NoteNumber":77,"Velocity":41,"Duration":118408,"SoundDuration":118408,"Delta":22026050},{"NoteNumber":82,"Velocity":36,"Duration":121437,"SoundDuration":121437,"Delta":22144459},{"NoteNumber":76,"Velocity":37,"Duration":121437,"SoundDuration":121437,"Delta":22265896},{"NoteNumber":73,"Velocity":44,"Duration":118830,"SoundDuration":118830,"Delta":22387334},{"NoteNumber":77,"Velocity":40,"Duration":118830,"SoundDuration":118830,"Delta":22506165},{"NoteNumber":82,"Velocity":41,"Duration":118830,"SoundDuration":118830,"Delta":22624996},{"NoteNumber":76,"Velocity":37,"Duration":118830,"SoundDuration":118830,"Delta":22743826},{"NoteNumber":73,"Velocity":35,"Duration":118830,"SoundDuration":118830,"Delta":22862657},{"NoteNumber":77,"Velocity":39,"Duration":118830,"SoundDuration":118830,"Delta":22981488},{"NoteNumber":82,"Velocity":35,"Duration":118830,"SoundDuration":118830,"Delta":23100319},{"NoteNumber":76,"Velocity":36,"Duration":118830,"SoundDuration":118830,"Delta":23219150},{"NoteNumber":73,"Velocity":51,"Duration":121437,"SoundDuration":121437,"Delta":23337980},{"NoteNumber":77,"Velocity":40,"Duration":121437,"SoundDuration":121437,"Delta":23459418},{"NoteNumber":81,"Velocity":43,"Duration":118408,"SoundDuration":118408,"Delta":23580856},{"NoteNumber":76,"Velocity":38,"Duration":118408,"SoundDuration":118408,"Delta":23699264},{"NoteNumber":73,"Velocity":37,"Duration":118408,"SoundDuration":118408,"Delta":23817673},{"NoteNumber":77,"Velocity":42,"Duration":118408,"SoundDuration":118408,"Delta":23936081},{"NoteNumber":81,"Velocity":37,"Duration":121437,"SoundDuration":121437,"Delta":24054490},{"NoteNumber":76,"Velocity":39,"Duration":121437,"SoundDuration":121437,"Delta":24175927},{"NoteNumber":73,"Velocity":46,"Duration":118830,"SoundDuration":118830,"Delta":24297365},{"NoteNumber":77,"Velocity":43,"Duration":118830,"SoundDuration":118830,"Delta":24416196},{"NoteNumber":79,"Velocity":45,"Duration":118830,"SoundDuration":118830,"Delta":24535027},{"NoteNumber":76,"Velocity":40,"Duration":118830,"SoundDuration":118830,"Delta":24653857},{"NoteNumber":73,"Velocity":39,"Duration":118830,"SoundDuration":118830,"Delta":24772688},{"NoteNumber":77,"Velocity":45,"Duration":118830,"SoundDuration":118830,"Delta":24891519},{"NoteNumber":79,"Velocity":40,"Duration":118830,"SoundDuration":118830,"Delta":25010350},{"NoteNumber":76,"Velocity":42,"Duration":118830,"SoundDuration":118830,"Delta":25129180},{"NoteNumber":66,"Velocity":39,"Duration":988803,"SoundDuration":988803,"Delta":25248011},{"NoteNumber":70,"Velocity":46,"Duration":988803,"SoundDuration":988803,"Delta":25248011},{"NoteNumber":73,"Velocity":54,"Duration":121437,"SoundDuration":121437,"Delta":25248011},{"NoteNumber":75,"Velocity":42,"Duration":121437,"SoundDuration":121437,"Delta":25369449},{"NoteNumber":82,"Velocity":44,"Duration":118408,"SoundDuration":118408,"Delta":25490887},{"NoteNumber":77,"Velocity":38,"Duration":118408,"SoundDuration":118408,"Delta":25609295},{"NoteNumber":73,"Velocity":36,"Duration":118408,"SoundDuration":118408,"Delta":25727704},{"NoteNumber":75,"Velocity":41,"Duration":118408,"SoundDuration":118408,"Delta":25846112},{"NoteNumber":82,"Velocity":36,"Duration":123691,"SoundDuration":123691,"Delta":25964521},{"NoteNumber":77,"Velocity":37,"Duration":148603,"SoundDuration":148603,"Delta":26088212},{"NoteNumber":63,"Velocity":36,"Duration":996292,"SoundDuration":996292,"Delta":26236815},{"NoteNumber":66,"Velocity":43,"Duration":996292,"SoundDuration":996292,"Delta":26236815},{"NoteNumber":70,"Velocity":43,"Duration":119821,"SoundDuration":119821,"Delta":26236815},{"NoteNumber":71,"Velocity":39,"Duration":119320,"SoundDuration":119320,"Delta":26356636},{"NoteNumber":78,"Velocity":40,"Duration":119845,"SoundDuration":119845,"Delta":26475956},{"NoteNumber":73,"Velocity":35,"Duration":120365,"SoundDuration":120365,"Delta":26595802},{"NoteNumber":70,"Velocity":34,"Duration":121055,"SoundDuration":121055,"Delta":26716167},{"NoteNumber":71,"Velocity":38,"Duration":121437,"SoundDuration":121437,"Delta":26837222},{"NoteNumber":78,"Velocity":33,"Duration":126518,"SoundDuration":126518,"Delta":26958660},{"NoteNumber":73,"Velocity":34,"Duration":147929,"SoundDuration":147929,"Delta":27085178},{"NoteNumber":66,"Velocity":39,"Duration":988803,"SoundDuration":988803,"Delta":27233107},{"NoteNumber":70,"Velocity":46,"Duration":988803,"SoundDuration":988803,"Delta":27233107},{"NoteNumber":73,"Velocity":54,"Duration":121437,"SoundDuration":121437,"Delta":27233107},{"NoteNumber":75,"Velocity":42,"Duration":121437,"SoundDuration":121437,"Delta":27354545},{"NoteNumber":82,"Velocity":44,"Duration":118408,"SoundDuration":118408,"Delta":27475983},{"NoteNumber":77,"Velocity":38,"Duration":118408,"SoundDuration":118408,"Delta":27594391},{"NoteNumber":73,"Velocity":36,"Duration":118408,"SoundDuration":118408,"Delta":27712800},{"NoteNumber":75,"Velocity":41,"Duration":118408,"SoundDuration":118408,"Delta":27831208},{"NoteNumber":82,"Velocity":36,"Duration":123691,"SoundDuration":123691,"Delta":27949617},{"NoteNumber":77,"Velocity":37,"Duration":148603,"SoundDuration":148603,"Delta":28073308},{"NoteNumber":63,"Velocity":36,"Duration":996131,"SoundDuration":996131,"Delta":28221911},{"NoteNumber":66,"Velocity":43,"Duration":996131,"SoundDuration":996131,"Delta":28221911},{"NoteNumber":70,"Velocity":43,"Duration":119821,"SoundDuration":119821,"Delta":28221911},{"NoteNumber":71,"Velocity":39,"Duration":119320,"SoundDuration":119320,"Delta":28341733},{"NoteNumber":78,"Velocity":40,"Duration":119845,"SoundDuration":119845,"Delta":28461053},{"NoteNumber":73,"Velocity":35,"Duration":120365,"SoundDuration":120365,"Delta":28580898},{"NoteNumber":70,"Velocity":34,"Duration":121055,"SoundDuration":121055,"Delta":28701264},{"NoteNumber":71,"Velocity":38,"Duration":121437,"SoundDuration":121437,"Delta":28822319},{"NoteNumber":78,"Velocity":33,"Duration":127010,"SoundDuration":127010,"Delta":28943756},{"NoteNumber":73,"Velocity":34,"Duration":147275,"SoundDuration":147275,"Delta":29070767},{"NoteNumber":59,"Velocity":36,"Duration":1898199,"SoundDuration":1898199,"Delta":29218043},{"NoteNumber":63,"Velocity":43,"Duration":1898199,"SoundDuration":1898199,"Delta":29218043},{"NoteNumber":66,"Velocity":47,"Duration":121437,"SoundDuration":121437,"Delta":29218043},{"NoteNumber":68,"Velocity":37,"Duration":121437,"SoundDuration":121437,"Delta":29339481},{"NoteNumber":75,"Velocity":39,"Duration":118408,"SoundDuration":118408,"Delta":29460918},{"NoteNumber":70,"Velocity":34,"Duration":118408,"SoundDuration":118408,"Delta":29579327},{"NoteNumber":66,"Velocity":33,"Duration":118408,"SoundDuration":118408,"Delta":29697735},{"NoteNumber":68,"Velocity":37,"Duration":118408,"SoundDuration":118408,"Delta":29816144},{"NoteNumber":75,"Velocity":33,"Duration":121437,"SoundDuration":121437,"Delta":29934552},{"NoteNumber":70,"Velocity":34,"Duration":121437,"SoundDuration":121437,"Delta":30055990},{"NoteNumber":66,"Velocity":40,"Duration":118830,"SoundDuration":118830,"Delta":30177428},{"NoteNumber":68,"Velocity":37,"Duration":118830,"SoundDuration":118830,"Delta":30296259},{"NoteNumber":75,"Velocity":38,"Duration":116858,"SoundDuration":116858,"Delta":30415089},{"NoteNumber":70,"Velocity":34,"Duration":116858,"SoundDuration":116858,"Delta":30531948},{"NoteNumber":66,"Velocity":33,"Duration":116858,"SoundDuration":116858,"Delta":30648807},{"NoteNumber":68,"Velocity":37,"Duration":116858,"SoundDuration":116858,"Delta":30765666},{"NoteNumber":75,"Velocity":33,"Duration":116858,"SoundDuration":116858,"Delta":30882524},{"NoteNumber":70,"Velocity":34,"Duration":116858,"SoundDuration":116858,"Delta":30999383},{"NoteNumber":63,"Velocity":46,"Duration":988803,"SoundDuration":988803,"Delta":31116242},{"NoteNumber":66,"Velocity":54,"Duration":121437,"SoundDuration":121437,"Delta":31116242},{"NoteNumber":68,"Velocity":41,"Duration":121437,"SoundDuration":121437,"Delta":31237680},{"NoteNumber":75,"Velocity":42,"Duration":118408,"SoundDuration":118408,"Delta":31359117},{"NoteNumber":70,"Velocity":36,"Duration":118408,"SoundDuration":118408,"Delta":31477526},{"NoteNumber":66,"Velocity":33,"Duration":118408,"SoundDuration":118408,"Delta":31595934},{"NoteNumber":68,"Velocity":37,"Duration":118408,"SoundDuration":118408,"Delta":31714343},{"NoteNumber":75,"Velocity":32,"Duration":123691,"SoundDuration":123691,"Delta":31832751},{"NoteNumber":70,"Velocity":32,"Duration":148603,"SoundDuration":148603,"Delta":31956442},{"NoteNumber":61,"Velocity":30,"Duration":964720,"SoundDuration":964720,"Delta":32105046},{"NoteNumber":63,"Velocity":36,"Duration":964720,"SoundDuration":964720,"Delta":32105046},{"NoteNumber":66,"Velocity":36,"Duration":119821,"SoundDuration":119821,"Delta":32105046},{"NoteNumber":68,"Velocity":33,"Duration":119320,"SoundDuration":119320,"Delta":32224867},{"NoteNumber":75,"Velocity":34,"Duration":119845,"SoundDuration":119845,"Delta":32344187},{"NoteNumber":70,"Velocity":29,"Duration":120365,"SoundDuration":120365,"Delta":32464033},{"NoteNumber":66,"Velocity":28,"Duration":121055,"SoundDuration":121055,"Delta":32584398},{"NoteNumber":68,"Velocity":32,"Duration":121437,"SoundDuration":121437,"Delta":32705453},{"NoteNumber":75,"Velocity":28,"Duration":121437,"SoundDuration":121437,"Delta":32826891},{"NoteNumber":70,"Velocity":28,"Duration":121437,"SoundDuration":121437,"Delta":32948329},{"NoteNumber":59,"Velocity":33,"Duration":1949458,"SoundDuration":1949458,"Delta":33069766},{"NoteNumber":63,"Velocity":39,"Duration":1949458,"SoundDuration":1949458,"Delta":33069766},{"NoteNumber":66,"Velocity":45,"Duration":121437,"SoundDuration":121437,"Delta":33069766},{"NoteNumber":68,"Velocity":35,"Duration":121437,"SoundDuration":121437,"Delta":33191204},{"NoteNumber":75,"Velocity":33,"Duration":118408,"SoundDuration":118408,"Delta":33312642},{"NoteNumber":70,"Velocity":32,"Duration":118408,"SoundDuration":118408,"Delta":33431050},{"NoteNumber":66,"Velocity":27,"Duration":118408,"SoundDuration":118408,"Delta":33549459},{"NoteNumber":68,"Velocity":34,"Duration":118408,"SoundDuration":118408,"Delta":33667867},{"NoteNumber":75,"Velocity":27,"Duration":118408,"SoundDuration":118408,"Delta":33786276},{"NoteNumber":70,"Velocity":31,"Duration":118408,"SoundDuration":118408,"Delta":33904684},{"NoteNumber":66,"Velocity":32,"Duration":119821,"SoundDuration":119821,"Delta":34023093},{"NoteNumber":68,"Velocity":33,"Duration":119320,"SoundDuration":119320,"Delta":34142914},{"NoteNumber":75,"Velocity":30,"Duration":119845,"SoundDuration":119845,"Delta":34262234},{"NoteNumber":70,"Velocity":29,"Duration":120365,"SoundDuration":120365,"Delta":34382080},{"NoteNumber":66,"Velocity":25,"Duration":121055,"SoundDuration":121055,"Delta":34502445},{"NoteNumber":68,"Velocity":32,"Duration":121437,"SoundDuration":121437,"Delta":34623500},{"NoteNumber":75,"Velocity":25,"Duration":127011,"SoundDuration":127011,"Delta":34744938},{"NoteNumber":70,"Velocity":28,"Duration":147275,"SoundDuration":147275,"Delta":34871949},{"NoteNumber":63,"Velocity":46,"Duration":988803,"SoundDuration":988803,"Delta":35019225},{"NoteNumber":66,"Velocity":54,"Duration":121437,"SoundDuration":121437,"Delta":35019225},{"NoteNumber":68,"Velocity":41,"Duration":121437,"SoundDuration":121437,"Delta":35140662},{"NoteNumber":75,"Velocity":42,"Duration":118408,"SoundDuration":118408,"Delta":35262100},{"NoteNumber":70,"Velocity":36,"Duration":118408,"SoundDuration":118408,"Delta":35380509},{"NoteNumber":66,"Velocity":33,"Duration":118408,"SoundDuration":118408,"Delta":35498917},{"NoteNumber":68,"Velocity":37,"Duration":118408,"SoundDuration":118408,"Delta":35617326},{"NoteNumber":75,"Velocity":32,"Duration":123691,"SoundDuration":123691,"Delta":35735734},{"NoteNumber":70,"Velocity":32,"Duration":148603,"SoundDuration":148603,"Delta":35859425},{"NoteNumber":61,"Velocity":30,"Duration":996292,"SoundDuration":996292,"Delta":36008028},{"NoteNumber":63,"Velocity":36,"Duration":996292,"SoundDuration":996292,"Delta":36008028},{"NoteNumber":66,"Velocity":36,"Duration":119821,"SoundDuration":119821,"Delta":36008028},{"NoteNumber":68,"Velocity":33,"Duration":119320,"SoundDuration":119320,"Delta":36127850},{"NoteNumber":75,"Velocity":34,"Duration":119845,"SoundDuration":119845,"Delta":36247170},{"NoteNumber":70,"Velocity":29,"Duration":120365,"SoundDuration":120365,"Delta":36367016},{"NoteNumber":66,"Velocity":28,"Duration":121055,"SoundDuration":121055,"Delta":36487381},{"NoteNumber":68,"Velocity":32,"Duration":121437,"SoundDuration":121437,"Delta":36608436},{"NoteNumber":75,"Velocity":28,"Duration":126518,"SoundDuration":126518,"Delta":36729873},{"NoteNumber":70,"Velocity":28,"Duration":147928,"SoundDuration":147928,"Delta":36856392},{"NoteNumber":60,"Velocity":28,"Duration":988803,"SoundDuration":988803,"Delta":37004321},{"NoteNumber":63,"Velocity":33,"Duration":988803,"SoundDuration":988803,"Delta":37004321},{"NoteNumber":66,"Velocity":38,"Duration":121437,"SoundDuration":121437,"Delta":37004321},{"NoteNumber":68,"Velocity":36,"Duration":121437,"SoundDuration":121437,"Delta":37125758},{"NoteNumber":75,"Velocity":36,"Duration":118408,"SoundDuration":118408,"Delta":37247196},{"NoteNumber":70,"Velocity":37,"Duration":118408,"SoundDuration":118408,"Delta":37365605},{"NoteNumber":66,"Velocity":41,"Duration":118408,"SoundDuration":118408,"Delta":37484013},{"NoteNumber":68,"Velocity":43,"Duration":118408,"SoundDuration":118408,"Delta":37602422},{"NoteNumber":75,"Velocity":44,"Duration":123691,"SoundDuration":123691,"Delta":37720830},{"NoteNumber":70,"Velocity":43,"Duration":148603,"SoundDuration":148603,"Delta":37844521},{"NoteNumber":61,"Velocity":39,"Duration":479352,"SoundDuration":479352,"Delta":37993124},{"NoteNumber":63,"Velocity":39,"Duration":479352,"SoundDuration":479352,"Delta":37993124},{"NoteNumber":66,"Velocity":43,"Duration":119821,"SoundDuration":119821,"Delta":37993124},{"NoteNumber":68,"Velocity":38,"Duration":119320,"SoundDuration":119320,"Delta":38112946},{"NoteNumber":77,"Velocity":39,"Duration":119845,"SoundDuration":119845,"Delta":38232266},{"NoteNumber":70,"Velocity":32,"Duration":120365,"SoundDuration":120365,"Delta":38352112},{"NoteNumber":58,"Velocity":36,"Duration":532707,"SoundDuration":532707,"Delta":38472477},{"NoteNumber":66,"Velocity":30,"Duration":121055,"SoundDuration":121055,"Delta":38472477},{"NoteNumber":68,"Velocity":34,"Duration":121437,"SoundDuration":121437,"Delta":38593532},{"NoteNumber":77,"Velocity":29,"Duration":127011,"SoundDuration":127011,"Delta":38714970},{"NoteNumber":70,"Velocity":28,"Duration":163203,"SoundDuration":163203,"Delta":38841981},{"NoteNumber":60,"Velocity":29,"Duration":988803,"SoundDuration":988803,"Delta":39005184},{"NoteNumber":63,"Velocity":35,"Duration":988803,"SoundDuration":988803,"Delta":39005184},{"NoteNumber":66,"Velocity":40,"Duration":121437,"SoundDuration":121437,"Delta":39005184},{"NoteNumber":68,"Velocity":36,"Duration":121437,"SoundDuration":121437,"Delta":39126622},{"NoteNumber":75,"Velocity":40,"Duration":118408,"SoundDuration":118408,"Delta":39248059},{"NoteNumber":70,"Velocity":37,"Duration":118408,"SoundDuration":118408,"Delta":39366468},{"NoteNumber":66,"Velocity":36,"Duration":118408,"SoundDuration":118408,"Delta":39484876},{"NoteNumber":68,"Velocity":43,"Duration":118408,"SoundDuration":118408,"Delta":39603285},{"NoteNumber":75,"Velocity":40,"Duration":123691,"SoundDuration":123691,"Delta":39721693},{"NoteNumber":70,"Velocity":43,"Duration":148603,"SoundDuration":148603,"Delta":39845384},{"NoteNumber":61,"Velocity":39,"Duration":479352,"SoundDuration":479352,"Delta":39993988},{"NoteNumber":63,"Velocity":39,"Duration":479352,"SoundDuration":479352,"Delta":39993988},{"NoteNumber":66,"Velocity":43,"Duration":119821,"SoundDuration":119821,"Delta":39993988},{"NoteNumber":68,"Velocity":38,"Duration":119320,"SoundDuration":119320,"Delta":40113809},{"NoteNumber":77,"Velocity":39,"Duration":119845,"SoundDuration":119845,"Delta":40233129},{"NoteNumber":70,"Velocity":32,"Duration":120365,"SoundDuration":120365,"Delta":40352975},{"NoteNumber":58,"Velocity":36,"Duration":528032,"SoundDuration":528032,"Delta":40473340},{"NoteNumber":66,"Velocity":30,"Duration":121055,"SoundDuration":121055,"Delta":40473340},{"NoteNumber":68,"Velocity":34,"Duration":121437,"SoundDuration":121437,"Delta":40594395},{"NoteNumber":77,"Velocity":29,"Duration":127011,"SoundDuration":127011,"Delta":40715833},{"NoteNumber":70,"Velocity":28,"Duration":158528,"SoundDuration":158528,"Delta":40842844},{"NoteNumber":78,"Velocity":39,"Duration":959384,"SoundDuration":959384,"Delta":41001373},{"NoteNumber":54,"Velocity":34,"Duration":479692,"SoundDuration":479692,"Delta":41001373},{"NoteNumber":60,"Velocity":47,"Duration":121437,"SoundDuration":121437,"Delta":41001373},{"NoteNumber":66,"Velocity":37,"Duration":121437,"SoundDuration":121437,"Delta":41122810},{"NoteNumber":62,"Velocity":35,"Duration":118408,"SoundDuration":118408,"Delta":41244248},{"NoteNumber":68,"Velocity":34,"Duration":118408,"SoundDuration":118408,"Delta":41362657},{"NoteNumber":60,"Velocity":33,"Duration":118408,"SoundDuration":118408,"Delta":41481065},{"NoteNumber":66,"Velocity":37,"Duration":118408,"SoundDuration":118408,"Delta":41599474},{"NoteNumber":62,"Velocity":33,"Duration":121437,"SoundDuration":121437,"Delta":41717882},{"NoteNumber":68,"Velocity":34,"Duration":121437,"SoundDuration":121437,"Delta":41839320},{"NoteNumber":74,"Velocity":39,"Duration":950645,"SoundDuration":950645,"Delta":41960758},{"NoteNumber":50,"Velocity":34,"Duration":475323,"SoundDuration":475323,"Delta":41960758},{"NoteNumber":60,"Velocity":40,"Duration":118830,"SoundDuration":118830,"Delta":41960758},{"NoteNumber":66,"Velocity":37,"Duration":118830,"SoundDuration":118830,"Delta":42079588},{"NoteNumber":62,"Velocity":37,"Duration":118830,"SoundDuration":118830,"Delta":42198419},{"NoteNumber":68,"Velocity":34,"Duration":118830,"SoundDuration":118830,"Delta":42317250},{"NoteNumber":60,"Velocity":33,"Duration":118830,"SoundDuration":118830,"Delta":42436081},{"NoteNumber":66,"Velocity":37,"Duration":118830,"SoundDuration":118830,"Delta":42554911},{"NoteNumber":62,"Velocity":33,"Duration":118830,"SoundDuration":118830,"Delta":42673742},{"NoteNumber":68,"Velocity":34,"Duration":118830,"SoundDuration":118830,"Delta":42792573},{"NoteNumber":76,"Velocity":39,"Duration":1453340,"SoundDuration":1453340,"Delta":42911404},{"NoteNumber":52,"Velocity":34,"Duration":479692,"SoundDuration":479692,"Delta":42911404},{"NoteNumber":60,"Velocity":47,"Duration":121437,"SoundDuration":121437,"Delta":42911404},{"NoteNumber":66,"Velocity":37,"Duration":121437,"SoundDuration":121437,"Delta":43032841},{"NoteNumber":62,"Velocity":35,"Duration":118408,"SoundDuration":118408,"Delta":43154279},{"NoteNumber":68,"Velocity":34,"Duration":118408,"SoundDuration":118408,"Delta":43272688},{"NoteNumber":60,"Velocity":33,"Duration":118408,"SoundDuration":118408,"Delta":43391096},{"NoteNumber":66,"Velocity":37,"Duration":118408,"SoundDuration":118408,"Delta":43509505},{"NoteNumber":62,"Velocity":33,"Duration":121437,"SoundDuration":121437,"Delta":43627913},{"NoteNumber":68,"Velocity":34,"Duration":121437,"SoundDuration":121437,"Delta":43749351},{"NoteNumber":60,"Velocity":40,"Duration":118830,"SoundDuration":118830,"Delta":43870789},{"NoteNumber":66,"Velocity":37,"Duration":118830,"SoundDuration":118830,"Delta":43989619},{"NoteNumber":62,"Velocity":37,"Duration":118830,"SoundDuration":118830,"Delta":44108450},{"NoteNumber":68,"Velocity":34,"Duration":137463,"SoundDuration":137463,"Delta":44227281},{"NoteNumber":76,"Velocity":39,"Duration":473858,"SoundDuration":473858,"Delta":44364744},{"NoteNumber":52,"Velocity":34,"Duration":473858,"SoundDuration":473858,"Delta":44364744},{"NoteNumber":60,"Velocity":33,"Duration":118464,"SoundDuration":118464,"Delta":44364744},{"NoteNumber":66,"Velocity":37,"Duration":118464,"SoundDuration":118464,"Delta":44483209},{"NoteNumber":62,"Velocity":33,"Duration":118464,"SoundDuration":118464,"Delta":44601674},{"NoteNumber":68,"Velocity":34,"Duration":118464,"SoundDuration":118464,"Delta":44720138},{"NoteNumber":78,"Velocity":39,"Duration":479692,"SoundDuration":479692,"Delta":44838603},{"NoteNumber":54,"Velocity":34,"Duration":479692,"SoundDuration":479692,"Delta":44838603},{"NoteNumber":60,"Velocity":47,"Duration":121437,"SoundDuration":121437,"Delta":44838603},{"NoteNumber":66,"Velocity":37,"Duration":121437,"SoundDuration":121437,"Delta":44960041},{"NoteNumber":62,"Velocity":35,"Duration":118408,"SoundDuration":118408,"Delta":45081479},{"NoteNumber":68,"Velocity":34,"Duration":118408,"SoundDuration":118408,"Delta":45199887},{"NoteNumber":78,"Velocity":39,"Duration":479692,"SoundDuration":479692,"Delta":45318296},{"NoteNumber":60,"Velocity":33,"Duration":118408,"SoundDuration":118408,"Delta":45318296},{"NoteNumber":66,"Velocity":37,"Duration":118408,"SoundDuration":118408,"Delta":45436704},{"NoteNumber":62,"Velocity":33,"Duration":121437,"SoundDuration":121437,"Delta":45555113},{"NoteNumber":68,"Velocity":34,"Duration":121437,"SoundDuration":121437,"Delta":45676550},{"NoteNumber":74,"Velocity":39,"Duration":475323,"SoundDuration":475323,"Delta":45797988},{"NoteNumber":50,"Velocity":34,"Duration":475323,"SoundDuration":475323,"Delta":45797988},{"NoteNumber":60,"Velocity":40,"Duration":118830,"SoundDuration":118830,"Delta":45797988},{"NoteNumber":66,"Velocity":37,"Duration":118830,"SoundDuration":118830,"Delta":45916819},{"NoteNumber":62,"Velocity":37,"Duration":118830,"SoundDuration":118830,"Delta":46035650},{"NoteNumber":68,"Velocity":34,"Duration":118830,"SoundDuration":118830,"Delta":46154480},{"NoteNumber":74,"Velocity":39,"Duration":493328,"SoundDuration":493328,"Delta":46273311},{"NoteNumber":60,"Velocity":33,"Duration":118830,"SoundDuration":118830,"Delta":46273311},{"NoteNumber":66,"Velocity":37,"Duration":118830,"SoundDuration":118830,"Delta":46392142},{"NoteNumber":62,"Velocity":33,"Duration":118830,"SoundDuration":118830,"Delta":46510973},{"NoteNumber":68,"Velocity":34,"Duration":136836,"SoundDuration":136836,"Delta":46629803},{"NoteNumber":76,"Velocity":39,"Duration":1910030,"SoundDuration":1910030,"Delta":46766640},{"NoteNumber":52,"Velocity":34,"Duration":479692,"SoundDuration":479692,"Delta":46766640},{"NoteNumber":60,"Velocity":47,"Duration":121437,"SoundDuration":121437,"Delta":46766640},{"NoteNumber":66,"Velocity":36,"Duration":121437,"SoundDuration":121437,"Delta":46888077},{"NoteNumber":62,"Velocity":34,"Duration":118408,"SoundDuration":118408,"Delta":47009515},{"NoteNumber":68,"Velocity":32,"Duration":118408,"SoundDuration":118408,"Delta":47127924},{"NoteNumber":60,"Velocity":31,"Duration":118408,"SoundDuration":118408,"Delta":47246332},{"NoteNumber":66,"Velocity":34,"Duration":118408,"SoundDuration":118408,"Delta":47364741},{"NoteNumber":62,"Velocity":30,"Duration":121437,"SoundDuration":121437,"Delta":47483149},{"NoteNumber":68,"Velocity":31,"Duration":121437,"SoundDuration":121437,"Delta":47604587},{"NoteNumber":60,"Velocity":36,"Duration":118830,"SoundDuration":118830,"Delta":47726025},{"NoteNumber":66,"Velocity":32,"Duration":118830,"SoundDuration":118830,"Delta":47844855},{"NoteNumber":62,"Velocity":32,"Duration":118830,"SoundDuration":118830,"Delta":47963686},{"NoteNumber":68,"Velocity":29,"Duration":118830,"SoundDuration":118830,"Delta":48082517},{"NoteNumber":60,"Velocity":28,"Duration":118830,"SoundDuration":118830,"Delta":48201348},{"NoteNumber":66,"Velocity":31,"Duration":118830,"SoundDuration":118830,"Delta":48320178},{"NoteNumber":62,"Velocity":27,"Duration":118830,"SoundDuration":118830,"Delta":48439009},{"NoteNumber":68,"Velocity":27,"Duration":118830,"SoundDuration":118830,"Delta":48557840},{"NoteNumber":76,"Velocity":39,"Duration":959384,"SoundDuration":959384,"Delta":48676671},{"NoteNumber":52,"Velocity":34,"Duration":479692,"SoundDuration":479692,"Delta":48676671},{"NoteNumber":60,"Velocity":47,"Duration":121437,"SoundDuration":121437,"Delta":48676671},{"NoteNumber":66,"Velocity":37,"Duration":121437,"SoundDuration":121437,"Delta":48798108},{"NoteNumber":62,"Velocity":35,"Duration":118408,"SoundDuration":118408,"Delta":48919546},{"NoteNumber":68,"Velocity":34,"Duration":118408,"SoundDuration":118408,"Delta":49037955},{"NoteNumber":60,"Velocity":33,"Duration":118408,"SoundDuration":118408,"Delta":49156363},{"NoteNumber":66,"Velocity":37,"Duration":118408,"SoundDuration":118408,"Delta":49274772},{"NoteNumber":62,"Velocity":33,"Duration":121437,"SoundDuration":121437,"Delta":49393180},{"NoteNumber":68,"Velocity":34,"Duration":121437,"SoundDuration":121437,"Delta":49514618},{"NoteNumber":72,"Velocity":39,"Duration":950645,"SoundDuration":950645,"Delta":49636056},{"NoteNumber":48,"Velocity":34,"Duration":475323,"SoundDuration":475323,"Delta":49636056},{"NoteNumber":60,"Velocity":40,"Duration":118830,"SoundDuration":118830,"Delta":49636056},{"NoteNumber":66,"Velocity":37,"Duration":118830,"SoundDuration":118830,"Delta":49754886},{"NoteNumber":62,"Velocity":37,"Duration":118830,"SoundDuration":118830,"Delta":49873717},{"NoteNumber":68,"Velocity":34,"Duration":118830,"SoundDuration":118830,"Delta":49992548},{"NoteNumber":60,"Velocity":33,"Duration":118830,"SoundDuration":118830,"Delta":50111379},{"NoteNumber":66,"Velocity":37,"Duration":118830,"SoundDuration":118830,"Delta":50230209},{"NoteNumber":62,"Velocity":33,"Duration":118830,"SoundDuration":118830,"Delta":50349040},{"NoteNumber":68,"Velocity":34,"Duration":118830,"SoundDuration":118830,"Delta":50467871},{"NoteNumber":74,"Velocity":39,"Duration":1434707,"SoundDuration":1434707,"Delta":50586702},{"NoteNumber":50,"Velocity":34,"Duration":479692,"SoundDuration":479692,"Delta":50586702},{"NoteNumber":58,"Velocity":47,"Duration":121437,"SoundDuration":121437,"Delta":50586702},{"NoteNumber":65,"Velocity":37,"Duration":121437,"SoundDuration":121437,"Delta":50708139},{"NoteNumber":60,"Velocity":33,"Duration":118408,"SoundDuration":118408,"Delta":50829577},{"NoteNumber":67,"Velocity":34,"Duration":118408,"SoundDuration":118408,"Delta":50947986},{"NoteNumber":58,"Velocity":38,"Duration":118408,"SoundDuration":118408,"Delta":51066394},{"NoteNumber":65,"Velocity":37,"Duration":118408,"SoundDuration":118408,"Delta":51184803},{"NoteNumber":60,"Velocity":33,"Duration":121437,"SoundDuration":121437,"Delta":51303211},{"NoteNumber":67,"Velocity":34,"Duration":121437,"SoundDuration":121437,"Delta":51424649},{"NoteNumber":58,"Velocity":43,"Duration":118830,"SoundDuration":118830,"Delta":51546087},{"NoteNumber":65,"Velocity":37,"Duration":118830,"SoundDuration":118830,"Delta":51664917},{"NoteNumber":60,"Velocity":32,"Duration":118830,"SoundDuration":118830,"Delta":51783748},{"NoteNumber":67,"Velocity":34,"Duration":118830,"SoundDuration":118830,"Delta":51902579},{"NoteNumber":74,"Velocity":39,"Duration":475322,"SoundDuration":475322,"Delta":52021410},{"NoteNumber":58,"Velocity":40,"Duration":118830,"SoundDuration":118830,"Delta":52021410},{"NoteNumber":50,"Velocity":40,"Duration":475322,"SoundDuration":475322,"Delta":52021410},{"NoteNumber":65,"Velocity":37,"Duration":118830,"SoundDuration":118830,"Delta":52140240},{"NoteNumber":60,"Velocity":33,"Duration":118830,"SoundDuration":118830,"Delta":52259071},{"NoteNumber":67,"Velocity":34,"Duration":118830,"SoundDuration":118830,"Delta":52377902},{"NoteNumber":76,"Velocity":39,"Duration":479692,"SoundDuration":479692,"Delta":52496733},{"NoteNumber":52,"Velocity":34,"Duration":479692,"SoundDuration":479692,"Delta":52496733},{"NoteNumber":60,"Velocity":47,"Duration":121437,"SoundDuration":121437,"Delta":52496733},{"NoteNumber":66,"Velocity":37,"Duration":121437,"SoundDuration":121437,"Delta":52618170},{"NoteNumber":62,"Velocity":35,"Duration":118408,"SoundDuration":118408,"Delta":52739608},{"NoteNumber":68,"Velocity":34,"Duration":118408,"SoundDuration":118408,"Delta":52858017},{"NoteNumber":76,"Velocity":39,"Duration":479692,"SoundDuration":479692,"Delta":52976425},{"NoteNumber":60,"Velocity":33,"Duration":118408,"SoundDuration":118408,"Delta":52976425},{"NoteNumber":66,"Velocity":37,"Duration":118408,"SoundDuration":118408,"Delta":53094834},{"NoteNumber":62,"Velocity":33,"Duration":121437,"SoundDuration":121437,"Delta":53213242},{"NoteNumber":68,"Velocity":34,"Duration":121437,"SoundDuration":121437,"Delta":53334680},{"NoteNumber":72,"Velocity":39,"Duration":475323,"SoundDuration":475323,"Delta":53456118},{"NoteNumber":48,"Velocity":34,"Duration":475323,"SoundDuration":475323,"Delta":53456118},{"NoteNumber":60,"Velocity":40,"Duration":118830,"SoundDuration":118830,"Delta":53456118},{"NoteNumber":66,"Velocity":37,"Duration":118830,"SoundDuration":118830,"Delta":53574948},{"NoteNumber":62,"Velocity":37,"Duration":118830,"SoundDuration":118830,"Delta":53693779},{"NoteNumber":68,"Velocity":34,"Duration":118830,"SoundDuration":118830,"Delta":53812610},{"NoteNumber":72,"Velocity":39,"Duration":475322,"SoundDuration":475322,"Delta":53931441},{"NoteNumber":60,"Velocity":33,"Duration":118830,"SoundDuration":118830,"Delta":53931441},{"NoteNumber":66,"Velocity":37,"Duration":118830,"SoundDuration":118830,"Delta":54050271},{"NoteNumber":62,"Velocity":33,"Duration":118830,"SoundDuration":118830,"Delta":54169102},{"NoteNumber":68,"Velocity":34,"Duration":118830,"SoundDuration":118830,"Delta":54287933},{"NoteNumber":74,"Velocity":39,"Duration":1910030,"SoundDuration":1910030,"Delta":54406764},{"NoteNumber":50,"Velocity":34,"Duration":1910030,"SoundDuration":1910030,"Delta":54406764},{"NoteNumber":58,"Velocity":47,"Duration":121437,"SoundDuration":121437,"Delta":54406764},{"NoteNumber":65,"Velocity":36,"Duration":121437,"SoundDuration":121437,"Delta":54528201},{"NoteNumber":60,"Velocity":34,"Duration":118408,"SoundDuration":118408,"Delta":54649639},{"NoteNumber":67,"Velocity":32,"Duration":118408,"SoundDuration":118408,"Delta":54768048},{"NoteNumber":58,"Velocity":31,"Duration":118408,"SoundDuration":118408,"Delta":54886456},{"NoteNumber":65,"Velocity":34,"Duration":118408,"SoundDuration":118408,"Delta":55004865},{"NoteNumber":60,"Velocity":30,"Duration":121437,"SoundDuration":121437,"Delta":55123273},{"NoteNumber":67,"Velocity":31,"Duration":121437,"SoundDuration":121437,"Delta":55244711},{"NoteNumber":58,"Velocity":36,"Duration":118830,"SoundDuration":118830,"Delta":55366149},{"NoteNumber":65,"Velocity":32,"Duration":118830,"SoundDuration":118830,"Delta":55484979},{"NoteNumber":60,"Velocity":32,"Duration":118830,"SoundDuration":118830,"Delta":55603810},{"NoteNumber":67,"Velocity":29,"Duration":118830,"SoundDuration":118830,"Delta":55722641},{"NoteNumber":58,"Velocity":28,"Duration":118830,"SoundDuration":118830,"Delta":55841472},{"NoteNumber":65,"Velocity":31,"Duration":118830,"SoundDuration":118830,"Delta":55960302},{"NoteNumber":60,"Velocity":27,"Duration":118830,"SoundDuration":118830,"Delta":56079133},{"NoteNumber":67,"Velocity":27,"Duration":118830,"SoundDuration":118830,"Delta":56197964},{"NoteNumber":50,"Velocity":28,"Duration":1950428,"SoundDuration":1950428,"Delta":56316795},{"NoteNumber":62,"Velocity":42,"Duration":93469,"SoundDuration":93469,"Delta":56316795},{"NoteNumber":64,"Velocity":40,"Duration":93469,"SoundDuration":93469,"Delta":56441421},{"NoteNumber":60,"Velocity":33,"Duration":91078,"SoundDuration":91078,"Delta":56566047},{"NoteNumber":65,"Velocity":34,"Duration":91078,"SoundDuration":91078,"Delta":56687484},{"NoteNumber":58,"Velocity":33,"Duration":91078,"SoundDuration":91078,"Delta":56808922},{"NoteNumber":67,"Velocity":34,"Duration":91078,"SoundDuration":91078,"Delta":56930360},{"NoteNumber":57,"Velocity":33,"Duration":91078,"SoundDuration":91078,"Delta":57051798},{"NoteNumber":69,"Velocity":34,"Duration":91078,"SoundDuration":91078,"Delta":57173235},{"NoteNumber":60,"Velocity":37,"Duration":93469,"SoundDuration":93469,"Delta":57294673},{"NoteNumber":62,"Velocity":44,"Duration":93469,"SoundDuration":93469,"Delta":57419299},{"NoteNumber":58,"Velocity":34,"Duration":90412,"SoundDuration":90412,"Delta":57543925},{"NoteNumber":64,"Velocity":33,"Duration":90412,"SoundDuration":90412,"Delta":57664475},{"NoteNumber":57,"Velocity":34,"Duration":90412,"SoundDuration":90412,"Delta":57785025},{"NoteNumber":65,"Velocity":33,"Duration":90412,"SoundDuration":90412,"Delta":57905574},{"NoteNumber":55,"Velocity":34,"Duration":90412,"SoundDuration":90412,"Delta":58026124},{"NoteNumber":67,"Velocity":33,"Duration":90412,"SoundDuration":90412,"Delta":58146674},{"NoteNumber":50,"Velocity":35,"Duration":1950428,"SoundDuration":1950428,"Delta":58267224},{"NoteNumber":62,"Velocity":42,"Duration":93469,"SoundDuration":93469,"Delta":58267224},{"NoteNumber":64,"Velocity":40,"Duration":93469,"SoundDuration":93469,"Delta":58391850},{"NoteNumber":60,"Velocity":33,"Duration":91078,"SoundDuration":91078,"Delta":58516476},{"NoteNumber":65,"Velocity":34,"Duration":91078,"SoundDuration":91078,"Delta":58637913},{"NoteNumber":58,"Velocity":33,"Duration":91078,"SoundDuration":91078,"Delta":58759351},{"NoteNumber":67,"Velocity":34,"Duration":91078,"SoundDuration":91078,"Delta":58880789},{"NoteNumber":57,"Velocity":33,"Duration":91078,"SoundDuration":91078,"Delta":59002227},{"NoteNumber":69,"Velocity":34,"Duration":91078,"SoundDuration":91078,"Delta":59123664},{"NoteNumber":60,"Velocity":37,"Duration":93469,"SoundDuration":93469,"Delta":59245102},{"NoteNumber":62,"Velocity":44,"Duration":93469,"SoundDuration":93469,"Delta":59369728},{"NoteNumber":58,"Velocity":34,"Duration":90412,"SoundDuration":90412,"Delta":59494354},{"NoteNumber":64,"Velocity":33,"Duration":90412,"SoundDuration":90412,"Delta":59614904},{"NoteNumber":57,"Velocity":34,"Duration":90412,"SoundDuration":90412,"Delta":59735454},{"NoteNumber":65,"Velocity":33,"Duration":90412,"SoundDuration":90412,"Delta":59856003},{"NoteNumber":55,"Velocity":34,"Duration":90412,"SoundDuration":90412,"Delta":59976553},{"NoteNumber":67,"Velocity":33,"Duration":90412,"SoundDuration":90412,"Delta":60097103},{"NoteNumber":60,"Velocity":45,"Duration":1943708,"SoundDuration":1943708,"Delta":60217653},{"NoteNumber":55,"Velocity":37,"Duration":124161,"SoundDuration":124161,"Delta":60217653},{"NoteNumber":62,"Velocity":40,"Duration":93121,"SoundDuration":93121,"Delta":60341815},{"NoteNumber":48,"Velocity":32,"Duration":120549,"SoundDuration":120549,"Delta":60465977},{"NoteNumber":63,"Velocity":34,"Duration":90412,"SoundDuration":90412,"Delta":60586526},{"NoteNumber":43,"Velocity":32,"Duration":120549,"SoundDuration":120549,"Delta":60707076},{"NoteNumber":65,"Velocity":34,"Duration":90412,"SoundDuration":90412,"Delta":60827626},{"NoteNumber":36,"Velocity":32,"Duration":120549,"SoundDuration":120549,"Delta":60948176},{"NoteNumber":67,"Velocity":34,"Duration":90412,"SoundDuration":90412,"Delta":61068725},{"NoteNumber":43,"Velocity":32,"Duration":120549,"SoundDuration":120549,"Delta":61189275},{"NoteNumber":62,"Velocity":43,"Duration":90412,"SoundDuration":90412,"Delta":61309825},{"NoteNumber":48,"Velocity":32,"Duration":120549,"SoundDuration":120549,"Delta":61430375},{"NoteNumber":63,"Velocity":35,"Duration":90412,"SoundDuration":90412,"Delta":61550924},{"NoteNumber":57,"Velocity":33,"Duration":120549,"SoundDuration":120549,"Delta":61671474},{"NoteNumber":65,"Velocity":39,"Duration":90412,"SoundDuration":90412,"Delta":61792024},{"NoteNumber":53,"Velocity":36,"Duration":124161,"SoundDuration":124161,"Delta":61912574},{"NoteNumber":67,"Velocity":41,"Duration":93469,"SoundDuration":93469,"Delta":62036736},{"NoteNumber":60,"Velocity":45,"Duration":1943708,"SoundDuration":1943708,"Delta":62161362},{"NoteNumber":55,"Velocity":37,"Duration":124161,"SoundDuration":124161,"Delta":62161362},{"NoteNumber":62,"Velocity":40,"Duration":93121,"SoundDuration":93121,"Delta":62285524},{"NoteNumber":48,"Velocity":32,"Duration":120549,"SoundDuration":120549,"Delta":62409686},{"NoteNumber":63,"Velocity":34,"Duration":90412,"SoundDuration":90412,"Delta":62530235},{"NoteNumber":43,"Velocity":32,"Duration":120549,"SoundDuration":120549,"Delta":62650785},{"NoteNumber":65,"Velocity":34,"Duration":90412,"SoundDuration":90412,"Delta":62771335},{"NoteNumber":36,"Velocity":32,"Duration":120549,"SoundDuration":120549,"Delta":62891885},{"NoteNumber":67,"Velocity":34,"Duration":90412,"SoundDuration":90412,"Delta":63012434},{"NoteNumber":43,"Velocity":32,"Duration":120549,"SoundDuration":120549,"Delta":63132984},{"NoteNumber":62,"Velocity":43,"Duration":90412,"SoundDuration":90412,"Delta":63253534},{"NoteNumber":48,"Velocity":32,"Duration":120549,"SoundDuration":120549,"Delta":63374084},{"NoteNumber":63,"Velocity":35,"Duration":90412,"SoundDuration":90412,"Delta":63494633},{"NoteNumber":57,"Velocity":33,"Duration":120549,"SoundDuration":120549,"Delta":63615183},{"NoteNumber":65,"Velocity":39,"Duration":90412,"SoundDuration":90412,"Delta":63735733},{"NoteNumber":53,"Velocity":36,"Duration":124161,"SoundDuration":124161,"Delta":63856283},{"NoteNumber":67,"Velocity":41,"Duration":93469,"SoundDuration":93469,"Delta":63980445},{"NoteNumber":62,"Velocity":36,"Duration":93121,"SoundDuration":93121,"Delta":64105071},{"NoteNumber":60,"Velocity":27,"Duration":124161,"SoundDuration":124161,"Delta":64229233},{"NoteNumber":63,"Velocity":30,"Duration":93121,"SoundDuration":93121,"Delta":64353395},{"NoteNumber":60,"Velocity":27,"Duration":124161,"SoundDuration":124161,"Delta":64477557},{"NoteNumber":82,"Velocity":53,"Duration":124162,"SoundDuration":124162,"Delta":64601719},{"NoteNumber":65,"Velocity":30,"Duration":93121,"SoundDuration":93121,"Delta":64601719},{"NoteNumber":60,"Velocity":27,"Duration":124161,"SoundDuration":124161,"Delta":64725881},{"NoteNumber":82,"Velocity":47,"Duration":124161,"SoundDuration":124161,"Delta":64767268},{"NoteNumber":67,"Velocity":30,"Duration":93121,"SoundDuration":93121,"Delta":64850043},{"NoteNumber":82,"Velocity":47,"Duration":124161,"SoundDuration":124161,"Delta":64932817},{"NoteNumber":60,"Velocity":27,"Duration":124161,"SoundDuration":124161,"Delta":64974205},{"NoteNumber":82,"Velocity":54,"Duration":124161,"SoundDuration":124161,"Delta":65098367},{"NoteNumber":62,"Velocity":38,"Duration":93121,"SoundDuration":93121,"Delta":65098367},{"NoteNumber":60,"Velocity":27,"Duration":124161,"SoundDuration":124161,"Delta":65222529},{"NoteNumber":82,"Velocity":46,"Duration":124161,"SoundDuration":124161,"Delta":65263916},{"NoteNumber":63,"Velocity":31,"Duration":93121,"SoundDuration":93121,"Delta":65346691},{"NoteNumber":82,"Velocity":46,"Duration":124161,"SoundDuration":124161,"Delta":65429465},{"NoteNumber":60,"Velocity":27,"Duration":124161,"SoundDuration":124161,"Delta":65470853},{"NoteNumber":82,"Velocity":54,"Duration":124162,"SoundDuration":124162,"Delta":65595015},{"NoteNumber":65,"Velocity":35,"Duration":93121,"SoundDuration":93121,"Delta":65595015},{"NoteNumber":60,"Velocity":27,"Duration":124161,"SoundDuration":124161,"Delta":65719177},{"NoteNumber":82,"Velocity":47,"Duration":126102,"SoundDuration":126102,"Delta":65760564},{"NoteNumber":67,"Velocity":36,"Duration":97487,"SoundDuration":97487,"Delta":65843339},{"NoteNumber":82,"Velocity":47,"Duration":129982,"SoundDuration":129982,"Delta":65929994},{"NoteNumber":60,"Velocity":27,"Duration":129982,"SoundDuration":129982,"Delta":65973321},{"NoteNumber":82,"Velocity":54,"Duration":248323,"SoundDuration":248323,"Delta":66103304},{"NoteNumber":62,"Velocity":40,"Duration":93121,"SoundDuration":93121,"Delta":66103304},{"NoteNumber":60,"Velocity":30,"Duration":124161,"SoundDuration":124161,"Delta":66227466},{"NoteNumber":81,"Velocity":50,"Duration":248323,"SoundDuration":248323,"Delta":66351628},{"NoteNumber":63,"Velocity":34,"Duration":93121,"SoundDuration":93121,"Delta":66351628},{"NoteNumber":60,"Velocity":30,"Duration":124161,"SoundDuration":124161,"Delta":66475790},{"NoteNumber":79,"Velocity":48,"Duration":993296,"SoundDuration":993296,"Delta":66599952},{"NoteNumber":65,"Velocity":34,"Duration":93121,"SoundDuration":93121,"Delta":66599952},{"NoteNumber":60,"Velocity":30,"Duration":124161,"SoundDuration":124161,"Delta":66724114},{"NoteNumber":67,"Velocity":36,"Duration":93121,"SoundDuration":93121,"Delta":66848276},{"NoteNumber":60,"Velocity":32,"Duration":124161,"SoundDuration":124161,"Delta":66972438},{"NoteNumber":62,"Velocity":48,"Duration":93121,"SoundDuration":93121,"Delta":67096600},{"NoteNumber":60,"Velocity":34,"Duration":124161,"SoundDuration":124161,"Delta":67220762},{"NoteNumber":63,"Velocity":41,"Duration":93121,"SoundDuration":93121,"Delta":67344924},{"NoteNumber":60,"Velocity":36,"Duration":124161,"SoundDuration":124161,"Delta":67469086},{"NoteNumber":82,"Velocity":58,"Duration":165549,"SoundDuration":165549,"Delta":67593248},{"NoteNumber":65,"Velocity":48,"Duration":93121,"SoundDuration":93121,"Delta":67593248},{"NoteNumber":60,"Velocity":37,"Duration":124161,"SoundDuration":124161,"Delta":67717410},{"NoteNumber":81,"Velocity":63,"Duration":169429,"SoundDuration":169429,"Delta":67758797},{"NoteNumber":67,"Velocity":51,"Duration":97487,"SoundDuration":97487,"Delta":67841572},{"NoteNumber":79,"Velocity":67,"Duration":173310,"SoundDuration":173310,"Delta":67928227},{"NoteNumber":60,"Velocity":37,"Duration":129982,"SoundDuration":129982,"Delta":67971555},{"NoteNumber":79,"Velocity":70,"Duration":496647,"SoundDuration":496647,"Delta":68101538},{"NoteNumber":62,"Velocity":50,"Duration":93121,"SoundDuration":93121,"Delta":68101538},{"NoteNumber":60,"Velocity":37,"Duration":124161,"SoundDuration":124161,"Delta":68225700},{"NoteNumber":63,"Velocity":42,"Duration":93121,"SoundDuration":93121,"Delta":68349862},{"NoteNumber":60,"Velocity":37,"Duration":124161,"SoundDuration":124161,"Delta":68474024},{"NoteNumber":77,"Velocity":71,"Duration":165549,"SoundDuration":165549,"Delta":68598186},{"NoteNumber":65,"Velocity":50,"Duration":93121,"SoundDuration":93121,"Delta":68598186},{"NoteNumber":60,"Velocity":46,"Duration":124161,"SoundDuration":124161,"Delta":68722348},{"NoteNumber":76,"Velocity":67,"Duration":172962,"SoundDuration":172962,"Delta":68763735},{"NoteNumber":67,"Velocity":46,"Duration":101461,"SoundDuration":101461,"Delta":68846510},{"NoteNumber":74,"Velocity":62,"Duration":180375,"SoundDuration":180375,"Delta":68936697},{"NoteNumber":60,"Velocity":45,"Duration":135281,"SoundDuration":135281,"Delta":68981791},{"NoteNumber":73,"Velocity":64,"Duration":189059,"SoundDuration":189059,"Delta":69117073},{"NoteNumber":67,"Velocity":49,"Duration":94529,"SoundDuration":94529,"Delta":69117073},{"NoteNumber":58,"Velocity":37,"Duration":126039,"SoundDuration":126039,"Delta":69243112},{"NoteNumber":70,"Velocity":49,"Duration":764124,"SoundDuration":764124,"Delta":69369152},{"NoteNumber":67,"Velocity":43,"Duration":94529,"SoundDuration":94529,"Delta":69369152},{"NoteNumber":58,"Velocity":35,"Duration":126039,"SoundDuration":126039,"Delta":69495192},{"NoteNumber":67,"Velocity":39,"Duration":94529,"SoundDuration":94529,"Delta":69621232},{"NoteNumber":58,"Velocity":30,"Duration":126039,"SoundDuration":126039,"Delta":69747271},{"NoteNumber":67,"Velocity":41,"Duration":97487,"SoundDuration":97487,"Delta":69873311},{"NoteNumber":58,"Velocity":30,"Duration":129982,"SoundDuration":129982,"Delta":70003294},{"NoteNumber":67,"Velocity":40,"Duration":93121,"SoundDuration":93121,"Delta":70133277},{"NoteNumber":58,"Velocity":30,"Duration":124161,"SoundDuration":124161,"Delta":70257439},{"NoteNumber":67,"Velocity":34,"Duration":93121,"SoundDuration":93121,"Delta":70381601},{"NoteNumber":58,"Velocity":30,"Duration":124161,"SoundDuration":124161,"Delta":70505763},{"NoteNumber":77,"Velocity":68,"Duration":165549,"SoundDuration":165549,"Delta":70629925},{"NoteNumber":65,"Velocity":48,"Duration":248324,"SoundDuration":248324,"Delta":70629925},{"NoteNumber":58,"Velocity":43,"Duration":124161,"SoundDuration":124161,"Delta":70754087},{"NoteNumber":76,"Velocity":61,"Duration":172962,"SoundDuration":172962,"Delta":70795474},{"NoteNumber":65,"Velocity":37,"Duration":101461,"SoundDuration":101461,"Delta":70878249},{"NoteNumber":74,"Velocity":57,"Duration":180375,"SoundDuration":180375,"Delta":70968436},{"NoteNumber":58,"Velocity":40,"Duration":135281,"SoundDuration":135281,"Delta":71013530},{"NoteNumber":73,"Velocity":61,"Duration":189059,"SoundDuration":189059,"Delta":71148812},{"NoteNumber":64,"Velocity":49,"Duration":252079,"SoundDuration":252079,"Delta":71148812},{"NoteNumber":58,"Velocity":32,"Duration":126039,"SoundDuration":126039,"Delta":71274851},{"NoteNumber":70,"Velocity":49,"Duration":252079,"SoundDuration":252079,"Delta":71400891},{"NoteNumber":64,"Velocity":38,"Duration":94529,"SoundDuration":94529,"Delta":71400891},{"NoteNumber":58,"Velocity":35,"Duration":126039,"SoundDuration":126039,"Delta":71526931},{"NoteNumber":77,"Velocity":63,"Duration":168053,"SoundDuration":168053,"Delta":71652971},{"NoteNumber":65,"Velocity":39,"Duration":252079,"SoundDuration":252079,"Delta":71652971},{"NoteNumber":58,"Velocity":30,"Duration":126039,"SoundDuration":126039,"Delta":71779010},{"NoteNumber":76,"Velocity":54,"Duration":170681,"SoundDuration":170681,"Delta":71821024},{"NoteNumber":65,"Velocity":41,"Duration":97487,"SoundDuration":97487,"Delta":71905050},{"NoteNumber":74,"Velocity":50,"Duration":131438,"SoundDuration":131438,"Delta":71991705},{"NoteNumber":58,"Velocity":30,"Duration":88110,"SoundDuration":88110,"Delta":72035033},{"NoteNumber":73,"Velocity":50,"Duration":2042270,"SoundDuration":2042270,"Delta":72123144},{"NoteNumber":61,"Velocity":37,"Duration":2162677,"SoundDuration":2162677,"Delta":72123144},{"NoteNumber":76,"Velocity":54,"Duration":2034396,"SoundDuration":2034396,"Delta":72152514},{"NoteNumber":64,"Velocity":37,"Duration":2118622,"SoundDuration":2118622,"Delta":72167199},{"NoteNumber":78,"Velocity":57,"Duration":2026521,"SoundDuration":2026521,"Delta":72181884},{"NoteNumber":85,"Velocity":74,"Duration":256959,"SoundDuration":256959,"Delta":72211255},{"NoteNumber":58,"Velocity":39,"Duration":128479,"SoundDuration":128479,"Delta":72211255},{"NoteNumber":66,"Velocity":44,"Duration":2074567,"SoundDuration":2074567,"Delta":72211255},{"NoteNumber":60,"Velocity":37,"Duration":128479,"SoundDuration":128479,"Delta":72339734},{"NoteNumber":82,"Velocity":54,"Duration":256959,"SoundDuration":256959,"Delta":72468214},{"NoteNumber":58,"Velocity":34,"Duration":128479,"SoundDuration":128479,"Delta":72468214},{"NoteNumber":60,"Velocity":32,"Duration":128479,"SoundDuration":128479,"Delta":72596694},{"NoteNumber":58,"Velocity":34,"Duration":128976,"SoundDuration":128976,"Delta":72725174},{"NoteNumber":60,"Velocity":30,"Duration":128976,"SoundDuration":128976,"Delta":72854150},{"NoteNumber":58,"Velocity":33,"Duration":128976,"SoundDuration":128976,"Delta":72983127},{"NoteNumber":60,"Velocity":30,"Duration":128976,"SoundDuration":128976,"Delta":73112104},{"NoteNumber":58,"Velocity":33,"Duration":128976,"SoundDuration":128976,"Delta":73241081},{"NoteNumber":60,"Velocity":30,"Duration":128976,"SoundDuration":128976,"Delta":73370057},{"NoteNumber":58,"Velocity":33,"Duration":128976,"SoundDuration":128976,"Delta":73499034},{"NoteNumber":60,"Velocity":31,"Duration":128976,"SoundDuration":128976,"Delta":73628011},{"NoteNumber":58,"Velocity":32,"Duration":128976,"SoundDuration":128976,"Delta":73756988},{"NoteNumber":60,"Velocity":31,"Duration":128976,"SoundDuration":128976,"Delta":73885964},{"NoteNumber":58,"Velocity":35,"Duration":128976,"SoundDuration":128976,"Delta":74014941},{"NoteNumber":60,"Velocity":31,"Duration":141903,"SoundDuration":141903,"Delta":74143918},{"NoteNumber":61,"Velocity":39,"Duration":591334,"SoundDuration":591334,"Delta":74208406},{"NoteNumber":64,"Velocity":39,"Duration":565529,"SoundDuration":565529,"Delta":74234211},{"NoteNumber":66,"Velocity":45,"Duration":518310,"SoundDuration":518310,"Delta":74260017},{"NoteNumber":73,"Velocity":62,"Duration":256959,"SoundDuration":256959,"Delta":74285822},{"NoteNumber":58,"Velocity":37,"Duration":128479,"SoundDuration":128479,"Delta":74285822},{"NoteNumber":60,"Velocity":31,"Duration":128479,"SoundDuration":128479,"Delta":74414301},{"NoteNumber":70,"Velocity":46,"Duration":256959,"SoundDuration":256959,"Delta":74542781},{"NoteNumber":58,"Velocity":31,"Duration":128479,"SoundDuration":128479,"Delta":74542781},{"NoteNumber":60,"Velocity":32,"Duration":128479,"SoundDuration":128479,"Delta":74671261},{"NoteNumber":58,"Velocity":34,"Duration":128976,"SoundDuration":128976,"Delta":74799741},{"NoteNumber":60,"Velocity":30,"Duration":128976,"SoundDuration":128976,"Delta":74928717},{"NoteNumber":58,"Velocity":32,"Duration":128976,"SoundDuration":128976,"Delta":75057694},{"NoteNumber":60,"Velocity":31,"Duration":128976,"SoundDuration":128976,"Delta":75186671},{"NoteNumber":58,"Velocity":33,"Duration":128976,"SoundDuration":128976,"Delta":75315648},{"NoteNumber":60,"Velocity":30,"Duration":128976,"SoundDuration":128976,"Delta":75444624},{"NoteNumber":58,"Velocity":33,"Duration":128976,"SoundDuration":128976,"Delta":75573601},{"NoteNumber":60,"Velocity":31,"Duration":128976,"SoundDuration":128976,"Delta":75702578},{"NoteNumber":58,"Velocity":32,"Duration":128976,"SoundDuration":128976,"Delta":75831555},{"NoteNumber":60,"Velocity":25,"Duration":128976,"SoundDuration":128976,"Delta":75960531},{"NoteNumber":58,"Velocity":31,"Duration":128976,"SoundDuration":128976,"Delta":76089508},{"NoteNumber":60,"Velocity":26,"Duration":128976,"SoundDuration":128976,"Delta":76218485},{"NoteNumber":58,"Velocity":29,"Duration":128479,"SoundDuration":128479,"Delta":76347462},{"NoteNumber":60,"Velocity":25,"Duration":128479,"SoundDuration":128479,"Delta":76475941},{"NoteNumber":58,"Velocity":29,"Duration":124161,"SoundDuration":124161,"Delta":76604421},{"NoteNumber":46,"Velocity":35,"Duration":124161,"SoundDuration":124161,"Delta":76604421},{"NoteNumber":60,"Velocity":24,"Duration":124161,"SoundDuration":124161,"Delta":76728583},{"NoteNumber":45,"Velocity":35,"Duration":124161,"SoundDuration":124161,"Delta":76728583},{"NoteNumber":58,"Velocity":29,"Duration":127986,"SoundDuration":127986,"Delta":76852745},{"NoteNumber":46,"Velocity":40,"Duration":127986,"SoundDuration":127986,"Delta":76852745},{"NoteNumber":60,"Velocity":24,"Duration":127986,"SoundDuration":127986,"Delta":76980731},{"NoteNumber":58,"Velocity":29,"Duration":124161,"SoundDuration":124161,"Delta":77108718},{"NoteNumber":42,"Velocity":37,"Duration":124161,"SoundDuration":124161,"Delta":77108718},{"NoteNumber":60,"Velocity":24,"Duration":124161,"SoundDuration":124161,"Delta":77232880},{"NoteNumber":46,"Velocity":31,"Duration":124161,"SoundDuration":124161,"Delta":77232880},{"NoteNumber":58,"Velocity":30,"Duration":127496,"SoundDuration":127496,"Delta":77357042},{"NoteNumber":45,"Velocity":38,"Duration":127496,"SoundDuration":127496,"Delta":77357042},{"NoteNumber":60,"Velocity":24,"Duration":127496,"SoundDuration":127496,"Delta":77484538},{"NoteNumber":46,"Velocity":41,"Duration":127496,"SoundDuration":127496,"Delta":77484538},{"NoteNumber":58,"Velocity":30,"Duration":127496,"SoundDuration":127496,"Delta":77612035},{"NoteNumber":48,"Velocity":46,"Duration":633112,"SoundDuration":633112,"Delta":77612035},{"NoteNumber":60,"Velocity":24,"Duration":127496,"SoundDuration":127496,"Delta":77739532},{"NoteNumber":58,"Velocity":33,"Duration":126039,"SoundDuration":126039,"Delta":77867029},{"NoteNumber":60,"Velocity":24,"Duration":126039,"SoundDuration":126039,"Delta":77993068},{"NoteNumber":58,"Velocity":30,"Duration":126039,"SoundDuration":126039,"Delta":78119108},{"NoteNumber":60,"Velocity":25,"Duration":126039,"SoundDuration":126039,"Delta":78245148},{"NoteNumber":49,"Velocity":41,"Duration":126039,"SoundDuration":126039,"Delta":78245148},{"NoteNumber":58,"Velocity":35,"Duration":128976,"SoundDuration":128976,"Delta":78371188},{"NoteNumber":50,"Velocity":48,"Duration":386930,"SoundDuration":386930,"Delta":78371188},{"NoteNumber":60,"Velocity":26,"Duration":128976,"SoundDuration":128976,"Delta":78500164},{"NoteNumber":58,"Velocity":26,"Duration":128976,"SoundDuration":128976,"Delta":78629141},{"NoteNumber":60,"Velocity":36,"Duration":128976,"SoundDuration":128976,"Delta":78758118},{"NoteNumber":51,"Velocity":44,"Duration":128976,"SoundDuration":128976,"Delta":78758118},{"NoteNumber":58,"Velocity":27,"Duration":128976,"SoundDuration":128976,"Delta":78887095},{"NoteNumber":52,"Velocity":56,"Duration":1523135,"SoundDuration":1523135,"Delta":78887095},{"NoteNumber":61,"Velocity":32,"Duration":128976,"SoundDuration":128976,"Delta":79016071},{"NoteNumber":58,"Velocity":34,"Duration":126518,"SoundDuration":126518,"Delta":79145048},{"NoteNumber":61,"Velocity":39,"Duration":126518,"SoundDuration":126518,"Delta":79271566},{"NoteNumber":58,"Velocity":63,"Duration":126518,"SoundDuration":126518,"Delta":79373835},{"NoteNumber":61,"Velocity":51,"Duration":126518,"SoundDuration":126518,"Delta":79524603},{"NoteNumber":70,"Velocity":55,"Duration":126518,"SoundDuration":126518,"Delta":79651121},{"NoteNumber":73,"Velocity":48,"Duration":126518,"SoundDuration":126518,"Delta":79777639},{"NoteNumber":58,"Velocity":52,"Duration":126518,"SoundDuration":126518,"Delta":79904158},{"NoteNumber":61,"Velocity":46,"Duration":126518,"SoundDuration":126518,"Delta":80030676},{"NoteNumber":58,"Velocity":45,"Duration":126518,"SoundDuration":126518,"Delta":80157194},{"NoteNumber":61,"Velocity":40,"Duration":126518,"SoundDuration":126518,"Delta":80283712},{"NoteNumber":58,"Velocity":29,"Duration":128479,"SoundDuration":128479,"Delta":80410231},{"NoteNumber":60,"Velocity":25,"Duration":128479,"SoundDuration":128479,"Delta":80538710},{"NoteNumber":58,"Velocity":29,"Duration":124161,"SoundDuration":124161,"Delta":80667190},{"NoteNumber":46,"Velocity":35,"Duration":124161,"SoundDuration":124161,"Delta":80667190},{"NoteNumber":60,"Velocity":24,"Duration":124161,"SoundDuration":124161,"Delta":80791352},{"NoteNumber":45,"Velocity":35,"Duration":124161,"SoundDuration":124161,"Delta":80791352},{"NoteNumber":58,"Velocity":29,"Duration":127986,"SoundDuration":127986,"Delta":80915514},{"NoteNumber":46,"Velocity":40,"Duration":127986,"SoundDuration":127986,"Delta":80915514},{"NoteNumber":60,"Velocity":24,"Duration":127986,"SoundDuration":127986,"Delta":81043500},{"NoteNumber":58,"Velocity":29,"Duration":124161,"SoundDuration":124161,"Delta":81171487},{"NoteNumber":42,"Velocity":37,"Duration":124161,"SoundDuration":124161,"Delta":81171487},{"NoteNumber":60,"Velocity":24,"Duration":124161,"SoundDuration":124161,"Delta":81295649},{"NoteNumber":46,"Velocity":31,"Duration":124161,"SoundDuration":124161,"Delta":81295649},{"NoteNumber":58,"Velocity":30,"Duration":127496,"SoundDuration":127496,"Delta":81419811},{"NoteNumber":45,"Velocity":38,"Duration":127496,"SoundDuration":127496,"Delta":81419811},{"NoteNumber":60,"Velocity":24,"Duration":127496,"SoundDuration":127496,"Delta":81547307},{"NoteNumber":46,"Velocity":41,"Duration":127496,"SoundDuration":127496,"Delta":81547307},{"NoteNumber":58,"Velocity":30,"Duration":127496,"SoundDuration":127496,"Delta":81674804},{"NoteNumber":48,"Velocity":46,"Duration":633112,"SoundDuration":633112,"Delta":81674804},{"NoteNumber":60,"Velocity":24,"Duration":127496,"SoundDuration":127496,"Delta":81802301},{"NoteNumber":58,"Velocity":33,"Duration":126039,"SoundDuration":126039,"Delta":81929798},{"NoteNumber":60,"Velocity":24,"Duration":126039,"SoundDuration":126039,"Delta":82055837},{"NoteNumber":58,"Velocity":30,"Duration":126039,"SoundDuration":126039,"Delta":82181877},{"NoteNumber":60,"Velocity":25,"Duration":126039,"SoundDuration":126039,"Delta":82307917},{"NoteNumber":49,"Velocity":41,"Duration":126039,"SoundDuration":126039,"Delta":82307917},{"NoteNumber":58,"Velocity":35,"Duration":128976,"SoundDuration":128976,"Delta":82433957},{"NoteNumber":51,"Velocity":48,"Duration":386930,"SoundDuration":386930,"Delta":82433957},{"NoteNumber":60,"Velocity":26,"Duration":128976,"SoundDuration":128976,"Delta":82562933},{"NoteNumber":58,"Velocity":26,"Duration":128976,"SoundDuration":128976,"Delta":82691910},{"NoteNumber":60,"Velocity":36,"Duration":128976,"SoundDuration":128976,"Delta":82820887},{"NoteNumber":53,"Velocity":44,"Duration":128976,"SoundDuration":128976,"Delta":82820887},{"NoteNumber":58,"Velocity":27,"Duration":128976,"SoundDuration":128976,"Delta":82949864},{"NoteNumber":54,"Velocity":56,"Duration":1523135,"SoundDuration":1523135,"Delta":82949864},{"NoteNumber":61,"Velocity":32,"Duration":128976,"SoundDuration":128976,"Delta":83078840},{"NoteNumber":58,"Velocity":34,"Duration":126518,"SoundDuration":126518,"Delta":83207817},{"NoteNumber":61,"Velocity":39,"Duration":126518,"SoundDuration":126518,"Delta":83334335},{"NoteNumber":58,"Velocity":63,"Duration":126518,"SoundDuration":126518,"Delta":83436604},{"NoteNumber":61,"Velocity":51,"Duration":126518,"SoundDuration":126518,"Delta":83587372},{"NoteNumber":70,"Velocity":55,"Duration":126518,"SoundDuration":126518,"Delta":83713890},{"NoteNumber":73,"Velocity":48,"Duration":126518,"SoundDuration":126518,"Delta":83840408},{"NoteNumber":70,"Velocity":54,"Duration":126518,"SoundDuration":126518,"Delta":83966927},{"NoteNumber":73,"Velocity":49,"Duration":126518,"SoundDuration":126518,"Delta":84093445},{"NoteNumber":70,"Velocity":55,"Duration":126518,"SoundDuration":126518,"Delta":84219963},{"NoteNumber":73,"Velocity":44,"Duration":126518,"SoundDuration":126518,"Delta":84346481},{"NoteNumber":70,"Velocity":48,"Duration":248323,"SoundDuration":248323,"Delta":84473000},{"NoteNumber":73,"Velocity":37,"Duration":124161,"SoundDuration":124161,"Delta":84597162},{"NoteNumber":70,"Velocity":41,"Duration":248323,"SoundDuration":248323,"Delta":84721324},{"NoteNumber":73,"Velocity":35,"Duration":124161,"SoundDuration":124161,"Delta":84845486},{"NoteNumber":82,"Velocity":53,"Duration":124162,"SoundDuration":124162,"Delta":84969648},{"NoteNumber":68,"Velocity":36,"Duration":496648,"SoundDuration":496648,"Delta":84969648},{"NoteNumber":70,"Velocity":30,"Duration":124162,"SoundDuration":124162,"Delta":84969648},{"NoteNumber":73,"Velocity":27,"Duration":124161,"SoundDuration":124161,"Delta":85093810},{"NoteNumber":82,"Velocity":47,"Duration":124161,"SoundDuration":124161,"Delta":85135197},{"NoteNumber":70,"Velocity":30,"Duration":124161,"SoundDuration":124161,"Delta":85217972},{"NoteNumber":82,"Velocity":47,"Duration":124161,"SoundDuration":124161,"Delta":85300746},{"NoteNumber":73,"Velocity":27,"Duration":124161,"SoundDuration":124161,"Delta":85342134},{"NoteNumber":82,"Velocity":54,"Duration":124161,"SoundDuration":124161,"Delta":85466296},{"NoteNumber":66,"Velocity":36,"Duration":496647,"SoundDuration":496647,"Delta":85466296},{"NoteNumber":70,"Velocity":38,"Duration":124161,"SoundDuration":124161,"Delta":85466296},{"NoteNumber":73,"Velocity":27,"Duration":124161,"SoundDuration":124161,"Delta":85590458},{"NoteNumber":82,"Velocity":46,"Duration":124161,"SoundDuration":124161,"Delta":85631845},{"NoteNumber":70,"Velocity":31,"Duration":124161,"SoundDuration":124161,"Delta":85714620},{"NoteNumber":82,"Velocity":46,"Duration":124161,"SoundDuration":124161,"Delta":85797394},{"NoteNumber":73,"Velocity":27,"Duration":124161,"SoundDuration":124161,"Delta":85838782},{"NoteNumber":82,"Velocity":54,"Duration":124162,"SoundDuration":124162,"Delta":85962944},{"NoteNumber":65,"Velocity":36,"Duration":508289,"SoundDuration":508289,"Delta":85962944},{"NoteNumber":70,"Velocity":35,"Duration":124162,"SoundDuration":124162,"Delta":85962944},{"NoteNumber":73,"Velocity":27,"Duration":124161,"SoundDuration":124161,"Delta":86087106},{"NoteNumber":82,"Velocity":47,"Duration":126102,"SoundDuration":126102,"Delta":86128493},{"NoteNumber":70,"Velocity":36,"Duration":129982,"SoundDuration":129982,"Delta":86211268},{"NoteNumber":82,"Velocity":47,"Duration":129982,"SoundDuration":129982,"Delta":86297923},{"NoteNumber":73,"Velocity":27,"Duration":129982,"SoundDuration":129982,"Delta":86341250},{"NoteNumber":82,"Velocity":54,"Duration":248323,"SoundDuration":248323,"Delta":86471233},{"NoteNumber":70,"Velocity":34,"Duration":124161,"SoundDuration":124161,"Delta":86471233},{"NoteNumber":64,"Velocity":32,"Duration":993296,"SoundDuration":993296,"Delta":86471233},{"NoteNumber":73,"Velocity":30,"Duration":124161,"SoundDuration":124161,"Delta":86595395},{"NoteNumber":81,"Velocity":50,"Duration":248323,"SoundDuration":248323,"Delta":86719557},{"NoteNumber":70,"Velocity":34,"Duration":124161,"SoundDuration":124161,"Delta":86719557},{"NoteNumber":73,"Velocity":30,"Duration":124161,"SoundDuration":124161,"Delta":86843719},{"NoteNumber":79,"Velocity":48,"Duration":993296,"SoundDuration":993296,"Delta":86967881},{"NoteNumber":70,"Velocity":40,"Duration":124162,"SoundDuration":124162,"Delta":86967881},{"NoteNumber":73,"Velocity":34,"Duration":124161,"SoundDuration":124161,"Delta":87092043},{"NoteNumber":70,"Velocity":40,"Duration":124161,"SoundDuration":124161,"Delta":87216205},{"NoteNumber":73,"Velocity":35,"Duration":124161,"SoundDuration":124161,"Delta":87340367},{"NoteNumber":65,"Velocity":40,"Duration":1004937,"SoundDuration":1004937,"Delta":87464529},{"NoteNumber":70,"Velocity":43,"Duration":124161,"SoundDuration":124161,"Delta":87464529},{"NoteNumber":73,"Velocity":35,"Duration":124161,"SoundDuration":124161,"Delta":87588691},{"NoteNumber":70,"Velocity":41,"Duration":124161,"SoundDuration":124161,"Delta":87712853},{"NoteNumber":73,"Velocity":30,"Duration":124161,"SoundDuration":124161,"Delta":87837015},{"NoteNumber":82,"Velocity":69,"Duration":165549,"SoundDuration":165549,"Delta":87961177},{"NoteNumber":70,"Velocity":49,"Duration":124162,"SoundDuration":124162,"Delta":87961177},{"NoteNumber":73,"Velocity":40,"Duration":124161,"SoundDuration":124161,"Delta":88085339},{"NoteNumber":81,"Velocity":65,"Duration":169429,"SoundDuration":169429,"Delta":88126726},{"NoteNumber":70,"Velocity":46,"Duration":129982,"SoundDuration":129982,"Delta":88209501},{"NoteNumber":79,"Velocity":57,"Duration":173310,"SoundDuration":173310,"Delta":88296156},{"NoteNumber":73,"Velocity":39,"Duration":129982,"SoundDuration":129982,"Delta":88339484},{"NoteNumber":79,"Velocity":64,"Duration":496647,"SoundDuration":496647,"Delta":88469467},{"NoteNumber":70,"Velocity":40,"Duration":248323,"SoundDuration":248323,"Delta":88469467},{"NoteNumber":73,"Velocity":35,"Duration":124161,"SoundDuration":124161,"Delta":88593629},{"NoteNumber":70,"Velocity":39,"Duration":248323,"SoundDuration":248323,"Delta":88717791},{"NoteNumber":73,"Velocity":35,"Duration":124161,"SoundDuration":124161,"Delta":88841953},{"NoteNumber":77,"Velocity":66,"Duration":165549,"SoundDuration":165549,"Delta":88966115},{"NoteNumber":67,"Velocity":40,"Duration":248324,"SoundDuration":248324,"Delta":88966115},{"NoteNumber":70,"Velocity":30,"Duration":124161,"SoundDuration":124161,"Delta":89090277},{"NoteNumber":76,"Velocity":59,"Duration":172962,"SoundDuration":172962,"Delta":89131664},{"NoteNumber":67,"Velocity":34,"Duration":270562,"SoundDuration":270562,"Delta":89214439},{"NoteNumber":74,"Velocity":55,"Duration":180375,"SoundDuration":180375,"Delta":89304626},{"NoteNumber":70,"Velocity":30,"Duration":135281,"SoundDuration":135281,"Delta":89349720},{"NoteNumber":73,"Velocity":61,"Duration":189059,"SoundDuration":189059,"Delta":89485002},{"NoteNumber":64,"Velocity":38,"Duration":252079,"SoundDuration":252079,"Delta":89485002},{"NoteNumber":67,"Velocity":30,"Duration":126039,"SoundDuration":126039,"Delta":89611041},{"NoteNumber":70,"Velocity":49,"Duration":764124,"SoundDuration":764124,"Delta":89737081},{"NoteNumber":64,"Velocity":35,"Duration":252079,"SoundDuration":252079,"Delta":89737081},{"NoteNumber":67,"Velocity":30,"Duration":126039,"SoundDuration":126039,"Delta":89863121},{"NoteNumber":61,"Velocity":40,"Duration":252079,"SoundDuration":252079,"Delta":89989161},{"NoteNumber":65,"Velocity":30,"Duration":126039,"SoundDuration":126039,"Delta":90115200},{"NoteNumber":61,"Velocity":41,"Duration":129982,"SoundDuration":129982,"Delta":90241240},{"NoteNumber":65,"Velocity":30,"Duration":129982,"SoundDuration":129982,"Delta":90371223},{"NoteNumber":58,"Velocity":40,"Duration":252079,"SoundDuration":252079,"Delta":90501206},{"NoteNumber":61,"Velocity":30,"Duration":126039,"SoundDuration":126039,"Delta":90627245},{"NoteNumber":58,"Velocity":34,"Duration":252079,"SoundDuration":252079,"Delta":90753285},{"NoteNumber":61,"Velocity":30,"Duration":126039,"SoundDuration":126039,"Delta":90879325},{"NoteNumber":77,"Velocity":66,"Duration":168053,"SoundDuration":168053,"Delta":91005365},{"NoteNumber":68,"Velocity":66,"Duration":522642,"SoundDuration":522642,"Delta":91005365},{"NoteNumber":51,"Velocity":40,"Duration":1036561,"SoundDuration":1036561,"Delta":91005365},{"NoteNumber":59,"Velocity":40,"Duration":126039,"SoundDuration":126039,"Delta":91005365},{"NoteNumber":62,"Velocity":40,"Duration":126039,"SoundDuration":126039,"Delta":91131404},{"NoteNumber":76,"Velocity":59,"Duration":174214,"SoundDuration":174214,"Delta":91173418},{"NoteNumber":59,"Velocity":37,"Duration":135281,"SoundDuration":135281,"Delta":91257444},{"NoteNumber":74,"Velocity":56,"Duration":180375,"SoundDuration":180375,"Delta":91347632},{"NoteNumber":62,"Velocity":40,"Duration":135281,"SoundDuration":135281,"Delta":91392726},{"NoteNumber":67,"Velocity":44,"Duration":513919,"SoundDuration":513919,"Delta":91528007},{"NoteNumber":73,"Velocity":61,"Duration":192719,"SoundDuration":192719,"Delta":91528007},{"NoteNumber":58,"Velocity":49,"Duration":128479,"SoundDuration":128479,"Delta":91528007},{"NoteNumber":63,"Velocity":32,"Duration":128479,"SoundDuration":128479,"Delta":91656487},{"NoteNumber":70,"Velocity":49,"Duration":192719,"SoundDuration":192719,"Delta":91784967},{"NoteNumber":58,"Velocity":38,"Duration":128479,"SoundDuration":128479,"Delta":91784967},{"NoteNumber":63,"Velocity":35,"Duration":128479,"SoundDuration":128479,"Delta":91913446},{"NoteNumber":77,"Velocity":63,"Duration":171306,"SoundDuration":171306,"Delta":92041926},{"NoteNumber":68,"Velocity":63,"Duration":538140,"SoundDuration":538140,"Delta":92041926},{"NoteNumber":51,"Velocity":40,"Duration":1064272,"SoundDuration":1064272,"Delta":92041926},{"NoteNumber":59,"Velocity":39,"Duration":96359,"SoundDuration":96359,"Delta":92041926},{"NoteNumber":62,"Velocity":30,"Duration":128479,"SoundDuration":128479,"Delta":92170406},{"NoteNumber":76,"Velocity":54,"Duration":176208,"SoundDuration":176208,"Delta":92213232},{"NoteNumber":59,"Velocity":41,"Duration":135832,"SoundDuration":135832,"Delta":92298886},{"NoteNumber":74,"Velocity":50,"Duration":190626,"SoundDuration":190626,"Delta":92389441},{"NoteNumber":62,"Velocity":30,"Duration":145348,"SoundDuration":145348,"Delta":92434718},{"NoteNumber":67,"Velocity":44,"Duration":526131,"SoundDuration":526131,"Delta":92580067},{"NoteNumber":73,"Velocity":61,"Duration":197299,"SoundDuration":197299,"Delta":92580067},{"NoteNumber":58,"Velocity":49,"Duration":131532,"SoundDuration":131532,"Delta":92580067},{"NoteNumber":63,"Velocity":32,"Duration":131532,"SoundDuration":131532,"Delta":92711600},{"NoteNumber":70,"Velocity":49,"Duration":197299,"SoundDuration":197299,"Delta":92843133},{"NoteNumber":58,"Velocity":38,"Duration":131532,"SoundDuration":131532,"Delta":92843133},{"NoteNumber":63,"Velocity":35,"Duration":131532,"SoundDuration":131532,"Delta":92974665},{"NoteNumber":68,"Velocity":51,"Duration":568424,"SoundDuration":568424,"Delta":93106198},{"NoteNumber":77,"Velocity":63,"Duration":178542,"SoundDuration":178542,"Delta":93106198},{"NoteNumber":59,"Velocity":39,"Duration":98649,"SoundDuration":98649,"Delta":93106198},{"NoteNumber":62,"Velocity":44,"Duration":141030,"SoundDuration":141030,"Delta":93237731},{"NoteNumber":76,"Velocity":54,"Duration":188040,"SoundDuration":188040,"Delta":93284741},{"NoteNumber":64,"Velocity":48,"Duration":141030,"SoundDuration":141030,"Delta":93378761},{"NoteNumber":74,"Velocity":50,"Duration":201840,"SoundDuration":201840,"Delta":93472782},{"NoteNumber":65,"Velocity":50,"Duration":154830,"SoundDuration":154830,"Delta":93519792},{"NoteNumber":70,"Velocity":75,"Duration":122229,"SoundDuration":122229,"Delta":93674623},{"NoteNumber":73,"Velocity":75,"Duration":122229,"SoundDuration":122229,"Delta":93674623},{"NoteNumber":54,"Velocity":75,"Duration":122229,"SoundDuration":122229,"Delta":93674623},{"NoteNumber":61,"Velocity":75,"Duration":122229,"SoundDuration":122229,"Delta":93674623},{"NoteNumber":66,"Velocity":69,"Duration":122229,"SoundDuration":122229,"Delta":93796852},{"NoteNumber":63,"Velocity":58,"Duration":61114,"SoundDuration":61114,"Delta":93919082},{"NoteNumber":63,"Velocity":63,"Duration":61114,"SoundDuration":61114,"Delta":94041311},{"NoteNumber":63,"Velocity":63,"Duration":61114,"SoundDuration":61114,"Delta":94163541},{"NoteNumber":63,"Velocity":66,"Duration":61114,"SoundDuration":61114,"Delta":94285770},{"NoteNumber":63,"Velocity":68,"Duration":61114,"SoundDuration":61114,"Delta":94408000},{"NoteNumber":63,"Velocity":72,"Duration":69592,"SoundDuration":69592,"Delta":94530229},{"NoteNumber":70,"Velocity":75,"Duration":121743,"SoundDuration":121743,"Delta":94669414},{"NoteNumber":73,"Velocity":75,"Duration":121743,"SoundDuration":121743,"Delta":94669414},{"NoteNumber":61,"Velocity":74,"Duration":121743,"SoundDuration":121743,"Delta":94669414},{"NoteNumber":58,"Velocity":74,"Duration":121743,"SoundDuration":121743,"Delta":94669414},{"NoteNumber":65,"Velocity":68,"Duration":121743,"SoundDuration":121743,"Delta":94791158},{"NoteNumber":63,"Velocity":66,"Duration":60871,"SoundDuration":60871,"Delta":94912901},{"NoteNumber":63,"Velocity":68,"Duration":60871,"SoundDuration":60871,"Delta":95034644},{"NoteNumber":63,"Velocity":73,"Duration":60871,"SoundDuration":60871,"Delta":95156387},{"NoteNumber":63,"Velocity":75,"Duration":60871,"SoundDuration":60871,"Delta":95278131},{"NoteNumber":63,"Velocity":78,"Duration":60871,"SoundDuration":60871,"Delta":95399874},{"NoteNumber":63,"Velocity":78,"Duration":68971,"SoundDuration":68971,"Delta":95521617},{"NoteNumber":70,"Velocity":75,"Duration":122229,"SoundDuration":122229,"Delta":95659561},{"NoteNumber":73,"Velocity":75,"Duration":122229,"SoundDuration":122229,"Delta":95659561},{"NoteNumber":55,"Velocity":75,"Duration":122229,"SoundDuration":122229,"Delta":95659561},{"NoteNumber":61,"Velocity":75,"Duration":122229,"SoundDuration":122229,"Delta":95659561},{"NoteNumber":63,"Velocity":69,"Duration":91672,"SoundDuration":91672,"Delta":95781790},{"NoteNumber":63,"Velocity":69,"Duration":61114,"SoundDuration":61114,"Delta":95904020},{"NoteNumber":63,"Velocity":67,"Duration":61114,"SoundDuration":61114,"Delta":96026249},{"NoteNumber":63,"Velocity":67,"Duration":61114,"SoundDuration":61114,"Delta":96148479},{"NoteNumber":63,"Velocity":67,"Duration":61114,"SoundDuration":61114,"Delta":96270708},{"NoteNumber":63,"Velocity":67,"Duration":61114,"SoundDuration":61114,"Delta":96392938},{"NoteNumber":63,"Velocity":64,"Duration":62845,"SoundDuration":62845,"Delta":96515167},{"NoteNumber":63,"Velocity":61,"Duration":60871,"SoundDuration":60871,"Delta":96640859},{"NoteNumber":63,"Velocity":61,"Duration":60871,"SoundDuration":60871,"Delta":96762602},{"NoteNumber":63,"Velocity":61,"Duration":60871,"SoundDuration":60871,"Delta":96884345},{"NoteNumber":63,"Velocity":61,"Duration":60871,"SoundDuration":60871,"Delta":97006088},{"NoteNumber":63,"Velocity":61,"Duration":60871,"SoundDuration":60871,"Delta":97127832},{"NoteNumber":63,"Velocity":60,"Duration":60871,"SoundDuration":60871,"Delta":97249575},{"NoteNumber":63,"Velocity":57,"Duration":60871,"SoundDuration":60871,"Delta":97371318},{"NoteNumber":63,"Velocity":57,"Duration":68971,"SoundDuration":68971,"Delta":97493061},{"NoteNumber":70,"Velocity":75,"Duration":122229,"SoundDuration":122229,"Delta":97631005},{"NoteNumber":73,"Velocity":75,"Duration":122229,"SoundDuration":122229,"Delta":97631005},{"NoteNumber":54,"Velocity":75,"Duration":122229,"SoundDuration":122229,"Delta":97631005},{"NoteNumber":61,"Velocity":75,"Duration":122229,"SoundDuration":122229,"Delta":97631005},{"NoteNumber":66,"Velocity":69,"Duration":122229,"SoundDuration":122229,"Delta":97753235},{"NoteNumber":63,"Velocity":58,"Duration":61114,"SoundDuration":61114,"Delta":97875464},{"NoteNumber":63,"Velocity":63,"Duration":61114,"SoundDuration":61114,"Delta":97997694},{"NoteNumber":63,"Velocity":63,"Duration":61114,"SoundDuration":61114,"Delta":98119923},{"NoteNumber":63,"Velocity":66,"Duration":61114,"SoundDuration":61114,"Delta":98242153},{"NoteNumber":63,"Velocity":68,"Duration":61114,"SoundDuration":61114,"Delta":98364382},{"NoteNumber":63,"Velocity":72,"Duration":69592,"SoundDuration":69592,"Delta":98486612},{"NoteNumber":70,"Velocity":75,"Duration":121743,"SoundDuration":121743,"Delta":98625797},{"NoteNumber":73,"Velocity":75,"Duration":121743,"SoundDuration":121743,"Delta":98625797},{"NoteNumber":61,"Velocity":74,"Duration":121743,"SoundDuration":121743,"Delta":98625797},{"NoteNumber":58,"Velocity":74,"Duration":121743,"SoundDuration":121743,"Delta":98625797},{"NoteNumber":65,"Velocity":68,"Duration":121743,"SoundDuration":121743,"Delta":98747540},{"NoteNumber":63,"Velocity":66,"Duration":60871,"SoundDuration":60871,"Delta":98869283},{"NoteNumber":63,"Velocity":68,"Duration":60871,"SoundDuration":60871,"Delta":98991027},{"NoteNumber":63,"Velocity":73,"Duration":60871,"SoundDuration":60871,"Delta":99112770},{"NoteNumber":63,"Velocity":75,"Duration":60871,"SoundDuration":60871,"Delta":99234513},{"NoteNumber":63,"Velocity":78,"Duration":60871,"SoundDuration":60871,"Delta":99356256},{"NoteNumber":63,"Velocity":78,"Duration":68971,"SoundDuration":68971,"Delta":99478000},{"NoteNumber":70,"Velocity":75,"Duration":122229,"SoundDuration":122229,"Delta":99615943},{"NoteNumber":73,"Velocity":75,"Duration":122229,"SoundDuration":122229,"Delta":99615943},{"NoteNumber":55,"Velocity":75,"Duration":122229,"SoundDuration":122229,"Delta":99615943},{"NoteNumber":61,"Velocity":75,"Duration":122229,"SoundDuration":122229,"Delta":99615943},{"NoteNumber":63,"Velocity":69,"Duration":91672,"SoundDuration":91672,"Delta":99738173},{"NoteNumber":63,"Velocity":64,"Duration":61114,"SoundDuration":61114,"Delta":99860402},{"NoteNumber":63,"Velocity":61,"Duration":61114,"SoundDuration":61114,"Delta":99982632},{"NoteNumber":63,"Velocity":57,"Duration":61114,"SoundDuration":61114,"Delta":100104861},{"NoteNumber":63,"Velocity":55,"Duration":61114,"SoundDuration":61114,"Delta":100227091},{"NoteNumber":63,"Velocity":51,"Duration":61114,"SoundDuration":61114,"Delta":100349320},{"NoteNumber":63,"Velocity":50,"Duration":62845,"SoundDuration":62845,"Delta":100471550},{"NoteNumber":63,"Velocity":42,"Duration":91307,"SoundDuration":91307,"Delta":100597241},{"NoteNumber":62,"Velocity":35,"Duration":91307,"SoundDuration":91307,"Delta":100718984},{"NoteNumber":66,"Velocity":42,"Duration":91307,"SoundDuration":91307,"Delta":100840728},{"NoteNumber":65,"Velocity":37,"Duration":91307,"SoundDuration":91307,"Delta":100962471},{"NoteNumber":63,"Velocity":42,"Duration":91307,"SoundDuration":91307,"Delta":101084214},{"NoteNumber":65,"Velocity":37,"Duration":91307,"SoundDuration":91307,"Delta":101205957},{"NoteNumber":66,"Velocity":37,"Duration":89222,"SoundDuration":89222,"Delta":101327701},{"NoteNumber":67,"Velocity":37,"Duration":99911,"SoundDuration":99911,"Delta":101446663},{"NoteNumber":63,"Velocity":42,"Duration":90953,"SoundDuration":90953,"Delta":101579878},{"NoteNumber":62,"Velocity":35,"Duration":90953,"SoundDuration":90953,"Delta":101701149},{"NoteNumber":66,"Velocity":42,"Duration":90953,"SoundDuration":90953,"Delta":101822420},{"NoteNumber":65,"Velocity":36,"Duration":90953,"SoundDuration":90953,"Delta":101943691},{"NoteNumber":63,"Velocity":42,"Duration":90953,"SoundDuration":90953,"Delta":102064962},{"NoteNumber":65,"Velocity":37,"Duration":90953,"SoundDuration":90953,"Delta":102186233},{"NoteNumber":66,"Velocity":37,"Duration":88540,"SoundDuration":88540,"Delta":102307504},{"NoteNumber":67,"Velocity":37,"Duration":98649,"SoundDuration":98649,"Delta":102425559},{"NoteNumber":66,"Velocity":42,"Duration":91307,"SoundDuration":91307,"Delta":102557092},{"NoteNumber":65,"Velocity":35,"Duration":91307,"SoundDuration":91307,"Delta":102678835},{"NoteNumber":70,"Velocity":42,"Duration":91307,"SoundDuration":91307,"Delta":102800578},{"NoteNumber":69,"Velocity":37,"Duration":91307,"SoundDuration":91307,"Delta":102922321},{"NoteNumber":66,"Velocity":42,"Duration":91307,"SoundDuration":91307,"Delta":103044065},{"NoteNumber":68,"Velocity":37,"Duration":91307,"SoundDuration":91307,"Delta":103165808},{"NoteNumber":70,"Velocity":37,"Duration":89222,"SoundDuration":89222,"Delta":103287551},{"NoteNumber":71,"Velocity":37,"Duration":99911,"SoundDuration":99911,"Delta":103406514},{"NoteNumber":66,"Velocity":42,"Duration":90953,"SoundDuration":90953,"Delta":103539729},{"NoteNumber":65,"Velocity":35,"Duration":90953,"SoundDuration":90953,"Delta":103661000},{"NoteNumber":70,"Velocity":42,"Duration":90953,"SoundDuration":90953,"Delta":103782271},{"NoteNumber":69,"Velocity":36,"Duration":90953,"SoundDuration":90953,"Delta":103903542},{"NoteNumber":66,"Velocity":42,"Duration":90953,"SoundDuration":90953,"Delta":104024813},{"NoteNumber":69,"Velocity":37,"Duration":90953,"SoundDuration":90953,"Delta":104146084},{"NoteNumber":70,"Velocity":37,"Duration":88540,"SoundDuration":88540,"Delta":104267355},{"NoteNumber":71,"Velocity":37,"Duration":98649,"SoundDuration":98649,"Delta":104385409},{"NoteNumber":70,"Velocity":42,"Duration":91307,"SoundDuration":91307,"Delta":104516942},{"NoteNumber":69,"Velocity":35,"Duration":91307,"SoundDuration":91307,"Delta":104638685},{"NoteNumber":73,"Velocity":42,"Duration":91307,"SoundDuration":91307,"Delta":104760429},{"NoteNumber":72,"Velocity":37,"Duration":91307,"SoundDuration":91307,"Delta":104882172},{"NoteNumber":70,"Velocity":42,"Duration":91307,"SoundDuration":91307,"Delta":105003915},{"NoteNumber":71,"Velocity":37,"Duration":91307,"SoundDuration":91307,"Delta":105125658},{"NoteNumber":73,"Velocity":37,"Duration":89222,"SoundDuration":89222,"Delta":105247402},{"NoteNumber":74,"Velocity":37,"Duration":99911,"SoundDuration":99911,"Delta":105366364},{"NoteNumber":70,"Velocity":42,"Duration":90953,"SoundDuration":90953,"Delta":105499579},{"NoteNumber":69,"Velocity":35,"Duration":90953,"SoundDuration":90953,"Delta":105620850},{"NoteNumber":73,"Velocity":42,"Duration":90953,"SoundDuration":90953,"Delta":105742121},{"NoteNumber":72,"Velocity":36,"Duration":90953,"SoundDuration":90953,"Delta":105863392},{"NoteNumber":70,"Velocity":42,"Duration":90953,"SoundDuration":90953,"Delta":105984663},{"NoteNumber":71,"Velocity":37,"Duration":90953,"SoundDuration":90953,"Delta":106105934},{"NoteNumber":73,"Velocity":37,"Duration":88540,"SoundDuration":88540,"Delta":106227205},{"NoteNumber":74,"Velocity":37,"Duration":98649,"SoundDuration":98649,"Delta":106345260},{"NoteNumber":70,"Velocity":42,"Duration":122709,"SoundDuration":122709,"Delta":106476793},{"NoteNumber":71,"Velocity":41,"Duration":120337,"SoundDuration":120337,"Delta":106599502},{"NoteNumber":73,"Velocity":41,"Duration":120336,"SoundDuration":120336,"Delta":106719839},{"NoteNumber":74,"Velocity":40,"Duration":120337,"SoundDuration":120337,"Delta":106840176},{"NoteNumber":70,"Velocity":39,"Duration":120336,"SoundDuration":120336,"Delta":106960513},{"NoteNumber":71,"Velocity":39,"Duration":120337,"SoundDuration":120337,"Delta":107080850},{"NoteNumber":73,"Velocity":39,"Duration":120336,"SoundDuration":120336,"Delta":107201187},{"NoteNumber":74,"Velocity":38,"Duration":120337,"SoundDuration":120337,"Delta":107321524},{"NoteNumber":70,"Velocity":37,"Duration":120336,"SoundDuration":120336,"Delta":107441861},{"NoteNumber":71,"Velocity":37,"Duration":120337,"SoundDuration":120337,"Delta":107562198},{"NoteNumber":73,"Velocity":36,"Duration":120337,"SoundDuration":120337,"Delta":107682535},{"NoteNumber":74,"Velocity":36,"Duration":120336,"SoundDuration":120336,"Delta":107802872},{"NoteNumber":70,"Velocity":35,"Duration":120337,"SoundDuration":120337,"Delta":107923209},{"NoteNumber":71,"Velocity":35,"Duration":120336,"SoundDuration":120336,"Delta":108043546},{"NoteNumber":73,"Velocity":34,"Duration":120337,"SoundDuration":120337,"Delta":108163883},{"NoteNumber":74,"Velocity":34,"Duration":131532,"SoundDuration":131532,"Delta":108284220},{"NoteNumber":62,"Velocity":40,"Duration":1923384,"SoundDuration":1923384,"Delta":108415753},{"NoteNumber":74,"Velocity":33,"Duration":85930,"SoundDuration":85930,"Delta":108415753},{"NoteNumber":76,"Velocity":36,"Duration":85930,"SoundDuration":85930,"Delta":108530327},{"NoteNumber":72,"Velocity":29,"Duration":90740,"SoundDuration":90740,"Delta":108644900},{"NoteNumber":77,"Velocity":30,"Duration":90740,"SoundDuration":90740,"Delta":108765888},{"NoteNumber":70,"Velocity":29,"Duration":89123,"SoundDuration":89123,"Delta":108886875},{"NoteNumber":79,"Velocity":30,"Duration":89123,"SoundDuration":89123,"Delta":109005706},{"NoteNumber":69,"Velocity":29,"Duration":89763,"SoundDuration":89763,"Delta":109124536},{"NoteNumber":81,"Velocity":30,"Duration":89762,"SoundDuration":89762,"Delta":109244220},{"NoteNumber":72,"Velocity":33,"Duration":91078,"SoundDuration":91078,"Delta":109363904},{"NoteNumber":74,"Velocity":36,"Duration":91078,"SoundDuration":91078,"Delta":109485342},{"NoteNumber":70,"Velocity":30,"Duration":91078,"SoundDuration":91078,"Delta":109606780},{"NoteNumber":76,"Velocity":29,"Duration":91078,"SoundDuration":91078,"Delta":109728218},{"NoteNumber":69,"Velocity":30,"Duration":90086,"SoundDuration":90086,"Delta":109849655},{"NoteNumber":77,"Velocity":29,"Duration":90086,"SoundDuration":90086,"Delta":109969771},{"NoteNumber":67,"Velocity":30,"Duration":93469,"SoundDuration":93469,"Delta":110089886},{"NoteNumber":79,"Velocity":29,"Duration":93469,"SoundDuration":93469,"Delta":110214512},{"NoteNumber":62,"Velocity":40,"Duration":1928151,"SoundDuration":1928151,"Delta":110339138},{"NoteNumber":74,"Velocity":33,"Duration":90412,"SoundDuration":90412,"Delta":110339138},{"NoteNumber":76,"Velocity":36,"Duration":90412,"SoundDuration":90412,"Delta":110459688},{"NoteNumber":72,"Velocity":29,"Duration":90412,"SoundDuration":90412,"Delta":110580237},{"NoteNumber":77,"Velocity":30,"Duration":90412,"SoundDuration":90412,"Delta":110700787},{"NoteNumber":70,"Velocity":29,"Duration":89763,"SoundDuration":89763,"Delta":110821337},{"NoteNumber":79,"Velocity":30,"Duration":89762,"SoundDuration":89762,"Delta":110941021},{"NoteNumber":69,"Velocity":29,"Duration":89441,"SoundDuration":89441,"Delta":111060705},{"NoteNumber":81,"Velocity":30,"Duration":89441,"SoundDuration":89441,"Delta":111179961},{"NoteNumber":72,"Velocity":33,"Duration":90086,"SoundDuration":90086,"Delta":111299216},{"NoteNumber":74,"Velocity":36,"Duration":90086,"SoundDuration":90086,"Delta":111419332},{"NoteNumber":70,"Velocity":30,"Duration":90086,"SoundDuration":90086,"Delta":111539447},{"NoteNumber":76,"Velocity":29,"Duration":90086,"SoundDuration":90086,"Delta":111659562},{"NoteNumber":69,"Velocity":30,"Duration":90086,"SoundDuration":90086,"Delta":111779677},{"NoteNumber":77,"Velocity":29,"Duration":90086,"SoundDuration":90086,"Delta":111899793},{"NoteNumber":67,"Velocity":30,"Duration":92768,"SoundDuration":92768,"Delta":112019908},{"NoteNumber":79,"Velocity":29,"Duration":92768,"SoundDuration":92768,"Delta":112143599},{"NoteNumber":62,"Velocity":40,"Duration":1905387,"SoundDuration":1905387,"Delta":112267290},{"NoteNumber":69,"Velocity":33,"Duration":90086,"SoundDuration":90086,"Delta":112267290},{"NoteNumber":76,"Velocity":36,"Duration":90086,"SoundDuration":90086,"Delta":112387405},{"NoteNumber":72,"Velocity":29,"Duration":90086,"SoundDuration":90086,"Delta":112507520},{"NoteNumber":77,"Velocity":30,"Duration":90086,"SoundDuration":90086,"Delta":112627636},{"NoteNumber":70,"Velocity":29,"Duration":90086,"SoundDuration":90086,"Delta":112747751},{"NoteNumber":74,"Velocity":30,"Duration":90086,"SoundDuration":90086,"Delta":112867866},{"NoteNumber":67,"Velocity":29,"Duration":90086,"SoundDuration":90086,"Delta":112987981},{"NoteNumber":76,"Velocity":30,"Duration":90086,"SoundDuration":90086,"Delta":113108097},{"NoteNumber":69,"Velocity":33,"Duration":88152,"SoundDuration":88152,"Delta":113228212},{"NoteNumber":72,"Velocity":36,"Duration":88848,"SoundDuration":88848,"Delta":113345748},{"NoteNumber":65,"Velocity":30,"Duration":87466,"SoundDuration":87466,"Delta":113464213},{"NoteNumber":74,"Velocity":29,"Duration":87466,"SoundDuration":87466,"Delta":113580836},{"NoteNumber":67,"Velocity":30,"Duration":87466,"SoundDuration":87466,"Delta":113697458},{"NoteNumber":70,"Velocity":29,"Duration":87466,"SoundDuration":87466,"Delta":113814081},{"NoteNumber":64,"Velocity":30,"Duration":90740,"SoundDuration":90740,"Delta":113930703},{"NoteNumber":72,"Velocity":29,"Duration":90740,"SoundDuration":90740,"Delta":114051690},{"NoteNumber":62,"Velocity":40,"Duration":1957981,"SoundDuration":1957981,"Delta":114172678},{"NoteNumber":69,"Velocity":33,"Duration":89763,"SoundDuration":89763,"Delta":114172678},{"NoteNumber":76,"Velocity":36,"Duration":89762,"SoundDuration":89762,"Delta":114292362},{"NoteNumber":72,"Velocity":29,"Duration":89763,"SoundDuration":89763,"Delta":114412046},{"NoteNumber":77,"Velocity":30,"Duration":89762,"SoundDuration":89762,"Delta":114531730},{"NoteNumber":70,"Velocity":29,"Duration":89763,"SoundDuration":89763,"Delta":114651414},{"NoteNumber":74,"Velocity":30,"Duration":89762,"SoundDuration":89762,"Delta":114771098},{"NoteNumber":67,"Velocity":29,"Duration":89763,"SoundDuration":89763,"Delta":114890782},{"NoteNumber":76,"Velocity":30,"Duration":89762,"SoundDuration":89762,"Delta":115010466},{"NoteNumber":69,"Velocity":33,"Duration":91746,"SoundDuration":91746,"Delta":115130150},{"NoteNumber":72,"Velocity":36,"Duration":91746,"SoundDuration":91746,"Delta":115252479},{"NoteNumber":65,"Velocity":30,"Duration":91746,"SoundDuration":91746,"Delta":115374808},{"NoteNumber":74,"Velocity":29,"Duration":91746,"SoundDuration":91746,"Delta":115497137},{"NoteNumber":69,"Velocity":30,"Duration":93820,"SoundDuration":93820,"Delta":115619467},{"NoteNumber":76,"Velocity":29,"Duration":93820,"SoundDuration":93820,"Delta":115744560},{"NoteNumber":74,"Velocity":30,"Duration":97877,"SoundDuration":97877,"Delta":115869654},{"NoteNumber":77,"Velocity":29,"Duration":97877,"SoundDuration":97877,"Delta":116000157},{"NoteNumber":73,"Velocity":47,"Duration":121437,"SoundDuration":121437,"Delta":116130660},{"NoteNumber":77,"Velocity":37,"Duration":121437,"SoundDuration":121437,"Delta":116252097},{"NoteNumber":81,"Velocity":39,"Duration":118408,"SoundDuration":118408,"Delta":116373535},{"NoteNumber":76,"Velocity":34,"Duration":118408,"SoundDuration":118408,"Delta":116491944},{"NoteNumber":73,"Velocity":33,"Duration":118408,"SoundDuration":118408,"Delta":116610352},{"NoteNumber":77,"Velocity":38,"Duration":118408,"SoundDuration":118408,"Delta":116728761},{"NoteNumber":81,"Velocity":34,"Duration":121437,"SoundDuration":121437,"Delta":116847169},{"NoteNumber":76,"Velocity":36,"Duration":121437,"SoundDuration":121437,"Delta":116968607},{"NoteNumber":73,"Velocity":42,"Duration":118830,"SoundDuration":118830,"Delta":117090045},{"NoteNumber":77,"Velocity":39,"Duration":118830,"SoundDuration":118830,"Delta":117208875},{"NoteNumber":79,"Velocity":41,"Duration":118830,"SoundDuration":118830,"Delta":117327706},{"NoteNumber":76,"Velocity":37,"Duration":118830,"SoundDuration":118830,"Delta":117446537},{"NoteNumber":73,"Velocity":36,"Duration":118830,"SoundDuration":118830,"Delta":117565368},{"NoteNumber":77,"Velocity":41,"Duration":118830,"SoundDuration":118830,"Delta":117684198},{"NoteNumber":79,"Velocity":37,"Duration":118830,"SoundDuration":118830,"Delta":117803029},{"NoteNumber":76,"Velocity":38,"Duration":118830,"SoundDuration":118830,"Delta":117921860},{"NoteNumber":70,"Velocity":46,"Duration":1910031,"SoundDuration":1910031,"Delta":118040691},{"NoteNumber":73,"Velocity":54,"Duration":121437,"SoundDuration":121437,"Delta":118040691},{"NoteNumber":77,"Velocity":42,"Duration":121437,"SoundDuration":121437,"Delta":118162128},{"NoteNumber":82,"Velocity":44,"Duration":118408,"SoundDuration":118408,"Delta":118283566},{"NoteNumber":76,"Velocity":38,"Duration":118408,"SoundDuration":118408,"Delta":118401975},{"NoteNumber":73,"Velocity":37,"Duration":118408,"SoundDuration":118408,"Delta":118520383},{"NoteNumber":77,"Velocity":41,"Duration":118408,"SoundDuration":118408,"Delta":118638792},{"NoteNumber":82,"Velocity":36,"Duration":121437,"SoundDuration":121437,"Delta":118757200},{"NoteNumber":76,"Velocity":37,"Duration":121437,"SoundDuration":121437,"Delta":118878638},{"NoteNumber":73,"Velocity":44,"Duration":118830,"SoundDuration":118830,"Delta":119000076},{"NoteNumber":77,"Velocity":40,"Duration":118830,"SoundDuration":118830,"Delta":119118906},{"NoteNumber":82,"Velocity":41,"Duration":118830,"SoundDuration":118830,"Delta":119237737},{"NoteNumber":76,"Velocity":37,"Duration":118830,"SoundDuration":118830,"Delta":119356568},{"NoteNumber":73,"Velocity":35,"Duration":118830,"SoundDuration":118830,"Delta":119475399},{"NoteNumber":77,"Velocity":39,"Duration":118830,"SoundDuration":118830,"Delta":119594229},{"NoteNumber":82,"Velocity":35,"Duration":118830,"SoundDuration":118830,"Delta":119713060},{"NoteNumber":76,"Velocity":36,"Duration":118830,"SoundDuration":118830,"Delta":119831891},{"NoteNumber":73,"Velocity":47,"Duration":121437,"SoundDuration":121437,"Delta":119950722},{"NoteNumber":77,"Velocity":37,"Duration":121437,"SoundDuration":121437,"Delta":120072159},{"NoteNumber":81,"Velocity":39,"Duration":118408,"SoundDuration":118408,"Delta":120193597},{"NoteNumber":76,"Velocity":34,"Duration":118408,"SoundDuration":118408,"Delta":120312006},{"NoteNumber":73,"Velocity":33,"Duration":118408,"SoundDuration":118408,"Delta":120430414},{"NoteNumber":77,"Velocity":37,"Duration":118408,"SoundDuration":118408,"Delta":120548823},{"NoteNumber":81,"Velocity":33,"Duration":121437,"SoundDuration":121437,"Delta":120667231},{"NoteNumber":76,"Velocity":34,"Duration":121437,"SoundDuration":121437,"Delta":120788669},{"NoteNumber":73,"Velocity":40,"Duration":118830,"SoundDuration":118830,"Delta":120910107},{"NoteNumber":77,"Velocity":37,"Duration":118830,"SoundDuration":118830,"Delta":121028937},{"NoteNumber":79,"Velocity":38,"Duration":118830,"SoundDuration":118830,"Delta":121147768},{"NoteNumber":76,"Velocity":34,"Duration":118830,"SoundDuration":118830,"Delta":121266599},{"NoteNumber":73,"Velocity":33,"Duration":118830,"SoundDuration":118830,"Delta":121385430},{"NoteNumber":77,"Velocity":37,"Duration":118830,"SoundDuration":118830,"Delta":121504260},{"NoteNumber":79,"Velocity":33,"Duration":118830,"SoundDuration":118830,"Delta":121623091},{"NoteNumber":76,"Velocity":34,"Duration":118830,"SoundDuration":118830,"Delta":121741922},{"NoteNumber":70,"Velocity":46,"Duration":988803,"SoundDuration":988803,"Delta":121860753},{"NoteNumber":73,"Velocity":54,"Duration":121437,"SoundDuration":121437,"Delta":121860753},{"NoteNumber":77,"Velocity":42,"Duration":121437,"SoundDuration":121437,"Delta":121982190},{"NoteNumber":82,"Velocity":44,"Duration":118408,"SoundDuration":118408,"Delta":122103628},{"NoteNumber":76,"Velocity":38,"Duration":118408,"SoundDuration":118408,"Delta":122222037},{"NoteNumber":73,"Velocity":36,"Duration":118408,"SoundDuration":118408,"Delta":122340445},{"NoteNumber":77,"Velocity":41,"Duration":118408,"SoundDuration":118408,"Delta":122458854},{"NoteNumber":82,"Velocity":36,"Duration":123690,"SoundDuration":123690,"Delta":122577262},{"NoteNumber":76,"Velocity":37,"Duration":148603,"SoundDuration":148603,"Delta":122700953},{"NoteNumber":67,"Velocity":43,"Duration":996292,"SoundDuration":996292,"Delta":122849556},{"NoteNumber":70,"Velocity":43,"Duration":119821,"SoundDuration":119821,"Delta":122849556},{"NoteNumber":75,"Velocity":39,"Duration":119320,"SoundDuration":119320,"Delta":122969378},{"NoteNumber":79,"Velocity":40,"Duration":119845,"SoundDuration":119845,"Delta":123088698},{"NoteNumber":73,"Velocity":35,"Duration":120365,"SoundDuration":120365,"Delta":123208544},{"NoteNumber":70,"Velocity":34,"Duration":121055,"SoundDuration":121055,"Delta":123328909},{"NoteNumber":75,"Velocity":38,"Duration":121437,"SoundDuration":121437,"Delta":123449964},{"NoteNumber":79,"Velocity":33,"Duration":126518,"SoundDuration":126518,"Delta":123571402},{"NoteNumber":73,"Velocity":34,"Duration":147929,"SoundDuration":147929,"Delta":123697920},{"NoteNumber":64,"Velocity":46,"Duration":988803,"SoundDuration":988803,"Delta":123845849},{"NoteNumber":67,"Velocity":54,"Duration":121437,"SoundDuration":121437,"Delta":123845849},{"NoteNumber":72,"Velocity":42,"Duration":121437,"SoundDuration":121437,"Delta":123967287},{"NoteNumber":76,"Velocity":44,"Duration":118408,"SoundDuration":118408,"Delta":124088724},{"NoteNumber":70,"Velocity":38,"Duration":118408,"SoundDuration":118408,"Delta":124207133},{"NoteNumber":67,"Velocity":36,"Duration":118408,"SoundDuration":118408,"Delta":124325541},{"NoteNumber":72,"Velocity":41,"Duration":118408,"SoundDuration":118408,"Delta":124443950},{"NoteNumber":76,"Velocity":36,"Duration":123690,"SoundDuration":123690,"Delta":124562358},{"NoteNumber":70,"Velocity":37,"Duration":148603,"SoundDuration":148603,"Delta":124686049},{"NoteNumber":61,"Velocity":43,"Duration":996131,"SoundDuration":996131,"Delta":124834653},{"NoteNumber":64,"Velocity":43,"Duration":119821,"SoundDuration":119821,"Delta":124834653},{"NoteNumber":69,"Velocity":39,"Duration":119320,"SoundDuration":119320,"Delta":124954474},{"NoteNumber":73,"Velocity":40,"Duration":119845,"SoundDuration":119845,"Delta":125073794},{"NoteNumber":67,"Velocity":35,"Duration":120365,"SoundDuration":120365,"Delta":125193640},{"NoteNumber":64,"Velocity":34,"Duration":121055,"SoundDuration":121055,"Delta":125314005},{"NoteNumber":69,"Velocity":38,"Duration":121437,"SoundDuration":121437,"Delta":125435060},{"NoteNumber":73,"Velocity":33,"Duration":127010,"SoundDuration":127010,"Delta":125556498},{"NoteNumber":67,"Velocity":34,"Duration":147275,"SoundDuration":147275,"Delta":125683509},{"NoteNumber":55,"Velocity":43,"Duration":1923935,"SoundDuration":1923935,"Delta":125830784},{"NoteNumber":63,"Velocity":37,"Duration":121437,"SoundDuration":121437,"Delta":125952222},{"NoteNumber":61,"Velocity":39,"Duration":118408,"SoundDuration":118408,"Delta":126073660},{"NoteNumber":63,"Velocity":34,"Duration":118408,"SoundDuration":118408,"Delta":126192068},{"NoteNumber":61,"Velocity":33,"Duration":118408,"SoundDuration":118408,"Delta":126310477},{"NoteNumber":63,"Velocity":37,"Duration":118408,"SoundDuration":118408,"Delta":126428885},{"NoteNumber":61,"Velocity":33,"Duration":121437,"SoundDuration":121437,"Delta":126547294},{"NoteNumber":63,"Velocity":34,"Duration":121437,"SoundDuration":121437,"Delta":126668732},{"NoteNumber":69,"Velocity":46,"Duration":119255,"SoundDuration":119255,"Delta":126790169},{"NoteNumber":63,"Velocity":37,"Duration":119255,"SoundDuration":119255,"Delta":126909425},{"NoteNumber":61,"Velocity":38,"Duration":119255,"SoundDuration":119255,"Delta":127028681},{"NoteNumber":63,"Velocity":34,"Duration":119255,"SoundDuration":119255,"Delta":127147937},{"NoteNumber":67,"Velocity":41,"Duration":121881,"SoundDuration":121881,"Delta":127267192},{"NoteNumber":64,"Velocity":37,"Duration":121881,"SoundDuration":121881,"Delta":127389074},{"NoteNumber":61,"Velocity":33,"Duration":121881,"SoundDuration":121881,"Delta":127510956},{"NoteNumber":64,"Velocity":34,"Duration":121881,"SoundDuration":121881,"Delta":127632838},{"NoteNumber":61,"Velocity":40,"Duration":119673,"SoundDuration":119673,"Delta":127754719},{"NoteNumber":55,"Velocity":39,"Duration":119683,"SoundDuration":119683,"Delta":127874393},{"NoteNumber":61,"Velocity":35,"Duration":119259,"SoundDuration":119259,"Delta":127994077},{"NoteNumber":55,"Velocity":34,"Duration":119255,"SoundDuration":119255,"Delta":128113336},{"NoteNumber":61,"Velocity":34,"Duration":118834,"SoundDuration":118834,"Delta":128232592},{"NoteNumber":55,"Velocity":33,"Duration":118830,"SoundDuration":118830,"Delta":128351426},{"NoteNumber":61,"Velocity":33,"Duration":118412,"SoundDuration":118412,"Delta":128470257},{"NoteNumber":55,"Velocity":33,"Duration":118408,"SoundDuration":118408,"Delta":128588669},{"NoteNumber":61,"Velocity":33,"Duration":117983,"SoundDuration":117983,"Delta":128707077},{"NoteNumber":55,"Velocity":32,"Duration":117980,"SoundDuration":117980,"Delta":128825061},{"NoteNumber":61,"Velocity":31,"Duration":117980,"SoundDuration":117980,"Delta":128943041},{"NoteNumber":55,"Velocity":30,"Duration":117980,"SoundDuration":117980,"Delta":129061022},{"NoteNumber":61,"Velocity":30,"Duration":117980,"SoundDuration":117980,"Delta":129179002},{"NoteNumber":55,"Velocity":30,"Duration":117980,"SoundDuration":117980,"Delta":129296982},{"NoteNumber":61,"Velocity":30,"Duration":117980,"SoundDuration":117980,"Delta":129414962},{"NoteNumber":55,"Velocity":30,"Duration":88485,"SoundDuration":88485,"Delta":129532943},{"NoteNumber":54,"Velocity":29,"Duration":117980,"SoundDuration":117980,"Delta":129650923},{"NoteNumber":61,"Velocity":23,"Duration":117980,"SoundDuration":117980,"Delta":129768903},{"NoteNumber":82,"Velocity":35,"Duration":119741,"SoundDuration":119741,"Delta":129886883},{"NoteNumber":54,"Velocity":25,"Duration":119741,"SoundDuration":119741,"Delta":129886883},{"NoteNumber":81,"Velocity":35,"Duration":119741,"SoundDuration":119741,"Delta":130006625},{"NoteNumber":61,"Velocity":23,"Duration":119741,"SoundDuration":119741,"Delta":130006625},{"NoteNumber":82,"Velocity":40,"Duration":123691,"SoundDuration":123691,"Delta":130126366},{"NoteNumber":54,"Velocity":29,"Duration":123691,"SoundDuration":123691,"Delta":130126366},{"NoteNumber":61,"Velocity":23,"Duration":123690,"SoundDuration":123690,"Delta":130250057},{"NoteNumber":78,"Velocity":37,"Duration":123691,"SoundDuration":123691,"Delta":130373748},{"NoteNumber":54,"Velocity":25,"Duration":123691,"SoundDuration":123691,"Delta":130373748},{"NoteNumber":82,"Velocity":31,"Duration":123183,"SoundDuration":123183,"Delta":130497439},{"NoteNumber":61,"Velocity":23,"Duration":123183,"SoundDuration":123183,"Delta":130497439},{"NoteNumber":81,"Velocity":38,"Duration":122679,"SoundDuration":122679,"Delta":130620622},{"NoteNumber":54,"Velocity":29,"Duration":122679,"SoundDuration":122679,"Delta":130620622},{"NoteNumber":82,"Velocity":41,"Duration":122679,"SoundDuration":122679,"Delta":130743301},{"NoteNumber":61,"Velocity":23,"Duration":122679,"SoundDuration":122679,"Delta":130743301},{"NoteNumber":84,"Velocity":46,"Duration":608935,"SoundDuration":608935,"Delta":130865980},{"NoteNumber":54,"Velocity":25,"Duration":122679,"SoundDuration":122679,"Delta":130865980},{"NoteNumber":61,"Velocity":23,"Duration":122679,"SoundDuration":122679,"Delta":130988660},{"NoteNumber":54,"Velocity":29,"Duration":121192,"SoundDuration":121192,"Delta":131111339},{"NoteNumber":61,"Velocity":23,"Duration":121192,"SoundDuration":121192,"Delta":131232531},{"NoteNumber":54,"Velocity":25,"Duration":121192,"SoundDuration":121192,"Delta":131353724},{"NoteNumber":85,"Velocity":42,"Duration":121192,"SoundDuration":121192,"Delta":131474916},{"NoteNumber":61,"Velocity":23,"Duration":121192,"SoundDuration":121192,"Delta":131474916},{"NoteNumber":86,"Velocity":51,"Duration":375720,"SoundDuration":375720,"Delta":131596109},{"NoteNumber":54,"Velocity":29,"Duration":125239,"SoundDuration":125239,"Delta":131596109},{"NoteNumber":61,"Velocity":23,"Duration":125240,"SoundDuration":125240,"Delta":131721349},{"NoteNumber":54,"Velocity":25,"Duration":125239,"SoundDuration":125239,"Delta":131846589},{"NoteNumber":87,"Velocity":51,"Duration":125239,"SoundDuration":125239,"Delta":131971829},{"NoteNumber":61,"Velocity":23,"Duration":125239,"SoundDuration":125239,"Delta":131971829},{"NoteNumber":88,"Velocity":57,"Duration":868451,"SoundDuration":868451,"Delta":132097069},{"NoteNumber":66,"Velocity":29,"Duration":125240,"SoundDuration":125240,"Delta":132097069},{"NoteNumber":73,"Velocity":23,"Duration":125239,"SoundDuration":125239,"Delta":132222309},{"NoteNumber":66,"Velocity":25,"Duration":123183,"SoundDuration":123183,"Delta":132347549},{"NoteNumber":73,"Velocity":23,"Duration":123182,"SoundDuration":123182,"Delta":132470732},{"NoteNumber":66,"Velocity":36,"Duration":246365,"SoundDuration":246365,"Delta":132593915},{"NoteNumber":89,"Velocity":49,"Duration":125240,"SoundDuration":125240,"Delta":132965521},{"NoteNumber":90,"Velocity":57,"Duration":388701,"SoundDuration":388701,"Delta":133090761},{"NoteNumber":92,"Velocity":46,"Duration":164816,"SoundDuration":164816,"Delta":133479463},{"NoteNumber":93,"Velocity":32,"Duration":124626,"SoundDuration":124626,"Delta":133644280},{"NoteNumber":94,"Velocity":27,"Duration":122179,"SoundDuration":122179,"Delta":133768906},{"NoteNumber":93,"Velocity":32,"Duration":125564,"SoundDuration":125564,"Delta":133891085},{"NoteNumber":94,"Velocity":28,"Duration":122179,"SoundDuration":122179,"Delta":134016650},{"NoteNumber":93,"Velocity":32,"Duration":124162,"SoundDuration":124162,"Delta":134138830},{"NoteNumber":94,"Velocity":29,"Duration":121881,"SoundDuration":121881,"Delta":134262992},{"NoteNumber":93,"Velocity":32,"Duration":123691,"SoundDuration":123691,"Delta":134384874},{"NoteNumber":94,"Velocity":28,"Duration":120221,"SoundDuration":120221,"Delta":134508565},{"NoteNumber":93,"Velocity":32,"Duration":125093,"SoundDuration":125093,"Delta":134628786},{"NoteNumber":64,"Velocity":26,"Duration":245314,"SoundDuration":245314,"Delta":134628786},{"NoteNumber":62,"Velocity":26,"Duration":978332,"SoundDuration":978332,"Delta":134628786},{"NoteNumber":95,"Velocity":29,"Duration":120221,"SoundDuration":120221,"Delta":134753880},{"NoteNumber":93,"Velocity":32,"Duration":124162,"SoundDuration":124162,"Delta":134874101},{"NoteNumber":65,"Velocity":23,"Duration":245149,"SoundDuration":245149,"Delta":134874101},{"NoteNumber":95,"Velocity":28,"Duration":120987,"SoundDuration":120987,"Delta":134998263},{"NoteNumber":93,"Velocity":32,"Duration":123183,"SoundDuration":123183,"Delta":135119250},{"NoteNumber":67,"Velocity":20,"Duration":243404,"SoundDuration":243404,"Delta":135119250},{"NoteNumber":95,"Velocity":28,"Duration":120221,"SoundDuration":120221,"Delta":135242433},{"NoteNumber":93,"Velocity":32,"Duration":121683,"SoundDuration":121683,"Delta":135362655},{"NoteNumber":69,"Velocity":20,"Duration":244463,"SoundDuration":244463,"Delta":135362655},{"NoteNumber":95,"Velocity":28,"Duration":122779,"SoundDuration":122779,"Delta":135484339},{"NoteNumber":93,"Velocity":32,"Duration":123233,"SoundDuration":123233,"Delta":135607118},{"NoteNumber":94,"Velocity":27,"Duration":119684,"SoundDuration":119684,"Delta":135730352},{"NoteNumber":93,"Velocity":32,"Duration":122779,"SoundDuration":122779,"Delta":135850036},{"NoteNumber":94,"Velocity":28,"Duration":120549,"SoundDuration":120549,"Delta":135972816},{"NoteNumber":93,"Velocity":32,"Duration":123691,"SoundDuration":123691,"Delta":136093366},{"NoteNumber":94,"Velocity":29,"Duration":119684,"SoundDuration":119684,"Delta":136217057},{"NoteNumber":93,"Velocity":32,"Duration":119255,"SoundDuration":119255,"Delta":136336741},{"NoteNumber":94,"Velocity":28,"Duration":122779,"SoundDuration":122779,"Delta":136455996},{"NoteNumber":93,"Velocity":32,"Duration":123691,"SoundDuration":123691,"Delta":136578776},{"NoteNumber":76,"Velocity":26,"Duration":243806,"SoundDuration":243806,"Delta":136578776},{"NoteNumber":74,"Velocity":26,"Duration":975162,"SoundDuration":975162,"Delta":136578776},{"NoteNumber":95,"Velocity":29,"Duration":120115,"SoundDuration":120115,"Delta":136702467},{"NoteNumber":93,"Velocity":32,"Duration":122329,"SoundDuration":122329,"Delta":136822582},{"NoteNumber":77,"Velocity":23,"Duration":242444,"SoundDuration":242444,"Delta":136822582},{"NoteNumber":95,"Velocity":28,"Duration":120115,"SoundDuration":120115,"Delta":136944912},{"NoteNumber":93,"Velocity":32,"Duration":122329,"SoundDuration":122329,"Delta":137065027},{"NoteNumber":79,"Velocity":20,"Duration":242444,"SoundDuration":242444,"Delta":137065027},{"NoteNumber":95,"Velocity":28,"Duration":120115,"SoundDuration":120115,"Delta":137187356},{"NoteNumber":93,"Velocity":32,"Duration":123233,"SoundDuration":123233,"Delta":137307471},{"NoteNumber":81,"Velocity":20,"Duration":246467,"SoundDuration":246467,"Delta":137307471},{"NoteNumber":95,"Velocity":28,"Duration":123233,"SoundDuration":123233,"Delta":137430705},{"NoteNumber":93,"Velocity":32,"Duration":120115,"SoundDuration":120115,"Delta":137553939},{"NoteNumber":94,"Velocity":27,"Duration":119684,"SoundDuration":119684,"Delta":137674054},{"NoteNumber":93,"Velocity":32,"Duration":122329,"SoundDuration":122329,"Delta":137793738},{"NoteNumber":95,"Velocity":28,"Duration":122329,"SoundDuration":122329,"Delta":137916067},{"NoteNumber":93,"Velocity":32,"Duration":119684,"SoundDuration":119684,"Delta":138038397},{"NoteNumber":81,"Velocity":23,"Duration":237664,"SoundDuration":237664,"Delta":138038397},{"NoteNumber":74,"Velocity":23,"Duration":237664,"SoundDuration":237664,"Delta":138038397},{"NoteNumber":94,"Velocity":29,"Duration":117980,"SoundDuration":117980,"Delta":138158081},{"NoteNumber":93,"Velocity":32,"Duration":122779,"SoundDuration":122779,"Delta":138276061},{"NoteNumber":95,"Velocity":28,"Duration":117980,"SoundDuration":117980,"Delta":138398841},{"NoteNumber":93,"Velocity":32,"Duration":122779,"SoundDuration":122779,"Delta":138516821},{"NoteNumber":86,"Velocity":23,"Duration":242463,"SoundDuration":242463,"Delta":138516821},{"NoteNumber":94,"Velocity":29,"Duration":119684,"SoundDuration":119684,"Delta":138639601},{"NoteNumber":93,"Velocity":32,"Duration":121881,"SoundDuration":121881,"Delta":138759285},{"NoteNumber":95,"Velocity":28,"Duration":119255,"SoundDuration":119255,"Delta":138881166},{"NoteNumber":93,"Velocity":32,"Duration":124162,"SoundDuration":124162,"Delta":139000422},{"NoteNumber":74,"Velocity":23,"Duration":246043,"SoundDuration":246043,"Delta":139000422},{"NoteNumber":81,"Velocity":23,"Duration":246043,"SoundDuration":246043,"Delta":139000422},{"NoteNumber":94,"Velocity":28,"Duration":121881,"SoundDuration":121881,"Delta":139124584},{"NoteNumber":93,"Velocity":32,"Duration":122329,"SoundDuration":122329,"Delta":139246466},{"NoteNumber":95,"Velocity":28,"Duration":123233,"SoundDuration":123233,"Delta":139368795},{"NoteNumber":93,"Velocity":32,"Duration":120549,"SoundDuration":120549,"Delta":139492029},{"NoteNumber":86,"Velocity":23,"Duration":241537,"SoundDuration":241537,"Delta":139492029},{"NoteNumber":94,"Velocity":27,"Duration":120987,"SoundDuration":120987,"Delta":139612579},{"NoteNumber":93,"Velocity":32,"Duration":123691,"SoundDuration":123691,"Delta":139733566},{"NoteNumber":95,"Velocity":28,"Duration":120549,"SoundDuration":120549,"Delta":139857257},{"NoteNumber":93,"Velocity":32,"Duration":122329,"SoundDuration":122329,"Delta":139977807},{"NoteNumber":81,"Velocity":23,"Duration":242444,"SoundDuration":242444,"Delta":139977807},{"NoteNumber":74,"Velocity":23,"Duration":242444,"SoundDuration":242444,"Delta":139977807},{"NoteNumber":94,"Velocity":29,"Duration":120115,"SoundDuration":120115,"Delta":140100136},{"NoteNumber":93,"Velocity":32,"Duration":122329,"SoundDuration":122329,"Delta":140220251},{"NoteNumber":95,"Velocity":28,"Duration":119684,"SoundDuration":119684,"Delta":140342580},{"NoteNumber":93,"Velocity":32,"Duration":122779,"SoundDuration":122779,"Delta":140462264},{"NoteNumber":86,"Velocity":23,"Duration":243329,"SoundDuration":243329,"Delta":140462264},{"NoteNumber":94,"Velocity":29,"Duration":120549,"SoundDuration":120549,"Delta":140585044},{"NoteNumber":93,"Velocity":32,"Duration":124162,"SoundDuration":124162,"Delta":140705594},{"NoteNumber":95,"Velocity":28,"Duration":123233,"SoundDuration":123233,"Delta":140829756},{"NoteNumber":93,"Velocity":32,"Duration":121437,"SoundDuration":121437,"Delta":140952990},{"NoteNumber":74,"Velocity":23,"Duration":246531,"SoundDuration":246531,"Delta":140952990},{"NoteNumber":81,"Velocity":23,"Duration":246531,"SoundDuration":246531,"Delta":140952990},{"NoteNumber":94,"Velocity":28,"Duration":125093,"SoundDuration":125093,"Delta":141074427},{"NoteNumber":93,"Velocity":32,"Duration":121437,"SoundDuration":121437,"Delta":141199521},{"NoteNumber":95,"Velocity":28,"Duration":136388,"SoundDuration":136388,"Delta":141320959},{"NoteNumber":86,"Velocity":23,"Duration":1957267,"SoundDuration":1957267,"Delta":141457347},{"NoteNumber":93,"Velocity":30,"Duration":1896103,"SoundDuration":1896103,"Delta":141518512},{"NoteNumber":98,"Velocity":36,"Duration":1834938,"SoundDuration":1834938,"Delta":141579677},{"NoteNumber":105,"Velocity":40,"Duration":1773774,"SoundDuration":1773774,"Delta":141640841}],"license":{"name":"Creative Commons Attribution-ShareAlike 3.0 Germany","url":"http://creativecommons.org/licenses/by-sa/3.0/de/deed.en","text":"The MIDI, audio (MP3, OGG) and video files of Bernd Krueger are licensed under the cc-by-sa Germany License. This means that you can use and adapt the files, as long as you attribute the copyright holder.\n\nName: Bernd Krueger\nSource: http://www.piano-midi.de\n\nThe distribution or public playback of the files is only allowed under identical license conditions.\n\nThe scores are open source.","attribution":"MIDI files by Bernd Krueger (piano-midi.de)","attributionUrl":"http://www.piano-midi.de"}}