{"title":"Etude No. 5 aus Grandes Etudes de Paganini","artist":"Liszt","durationMs":180792,"midiSha256":"59333785d6fe6fe92d077d845d4e2a48ff3f5cb15e614f6215b2e5a67ca9f396","midiObject":[{"NoteNumber":80,"Velocity":39,"Duration":200926,"SoundDuration":200926,"Delta":0},{"NoteNumber":83,"Velocity":44,"Duration":200926,"SoundDuration":200926,"Delta":0},{"NoteNumber":81,"Velocity":41,"Duration":200926,"SoundDuration":200926,"Delta":204332},{"NoteNumber":78,"Velocity":36,"Duration":200926,"SoundDuration":200926,"Delta":204332},{"NoteNumber":76,"Velocity":42,"Duration":374608,"SoundDuration":374608,"Delta":408664},{"NoteNumber":80,"Velocity":46,"Duration":374608,"SoundDuration":374608,"Delta":408664},{"NoteNumber":80,"Velocity":37,"Duration":195364,"SoundDuration":195364,"Delta":817327},{"NoteNumber":76,"Velocity":34,"Duration":195364,"SoundDuration":195364,"Delta":817327},{"NoteNumber":71,"Velocity":32,"Duration":195364,"SoundDuration":195364,"Delta":1016003},{"NoteNumber":78,"Velocity":36,"Duration":195364,"SoundDuration":195364,"Delta":1016003},{"NoteNumber":68,"Velocity":35,"Duration":374608,"SoundDuration":374608,"Delta":1214678},{"NoteNumber":76,"Velocity":40,"Duration":374608,"SoundDuration":374608,"Delta":1214678},{"NoteNumber":83,"Velocity":43,"Duration":194027,"SoundDuration":194027,"Delta":1623342},{"NoteNumber":80,"Velocity":37,"Duration":194027,"SoundDuration":194027,"Delta":1623342},{"NoteNumber":78,"Velocity":35,"Duration":194027,"SoundDuration":194027,"Delta":1820658},{"NoteNumber":81,"Velocity":40,"Duration":194027,"SoundDuration":194027,"Delta":1820658},{"NoteNumber":76,"Velocity":40,"Duration":374608,"SoundDuration":374608,"Delta":2017975},{"NoteNumber":80,"Velocity":45,"Duration":374608,"SoundDuration":374608,"Delta":2017975},{"NoteNumber":80,"Velocity":37,"Duration":195364,"SoundDuration":195364,"Delta":2426638},{"NoteNumber":76,"Velocity":34,"Duration":195364,"SoundDuration":195364,"Delta":2426638},{"NoteNumber":71,"Velocity":32,"Duration":195364,"SoundDuration":195364,"Delta":2625314},{"NoteNumber":78,"Velocity":36,"Duration":195364,"SoundDuration":195364,"Delta":2625314},{"NoteNumber":76,"Velocity":42,"Duration":374608,"SoundDuration":374608,"Delta":2823989},{"NoteNumber":68,"Velocity":36,"Duration":374608,"SoundDuration":374608,"Delta":2823989},{"NoteNumber":76,"Velocity":42,"Duration":192684,"SoundDuration":192684,"Delta":3232653},{"NoteNumber":68,"Velocity":36,"Duration":192684,"SoundDuration":192684,"Delta":3232653},{"NoteNumber":71,"Velocity":34,"Duration":192684,"SoundDuration":192684,"Delta":3428603},{"NoteNumber":78,"Velocity":37,"Duration":192684,"SoundDuration":192684,"Delta":3428603},{"NoteNumber":80,"Velocity":45,"Duration":361746,"SoundDuration":361746,"Delta":3624553},{"NoteNumber":76,"Velocity":40,"Duration":361746,"SoundDuration":361746,"Delta":3624553},{"NoteNumber":71,"Velocity":39,"Duration":185068,"SoundDuration":185068,"Delta":4019186},{"NoteNumber":78,"Velocity":44,"Duration":185068,"SoundDuration":185068,"Delta":4019186},{"NoteNumber":76,"Velocity":35,"Duration":190077,"SoundDuration":190077,"Delta":4207392},{"NoteNumber":80,"Velocity":40,"Duration":190077,"SoundDuration":190077,"Delta":4207392},{"NoteNumber":78,"Velocity":47,"Duration":356818,"SoundDuration":356818,"Delta":4400691},{"NoteNumber":81,"Velocity":47,"Duration":356818,"SoundDuration":356818,"Delta":4400691},{"NoteNumber":71,"Velocity":40,"Duration":185068,"SoundDuration":185068,"Delta":4789947},{"NoteNumber":78,"Velocity":45,"Duration":185068,"SoundDuration":185068,"Delta":4789947},{"NoteNumber":78,"Velocity":37,"Duration":190077,"SoundDuration":190077,"Delta":4978153},{"NoteNumber":81,"Velocity":43,"Duration":190077,"SoundDuration":190077,"Delta":4978153},{"NoteNumber":83,"Velocity":50,"Duration":349650,"SoundDuration":349650,"Delta":5171452},{"NoteNumber":80,"Velocity":44,"Duration":349650,"SoundDuration":349650,"Delta":5171452},{"NoteNumber":78,"Velocity":35,"Duration":183869,"SoundDuration":183869,"Delta":5552889},{"NoteNumber":81,"Velocity":39,"Duration":183869,"SoundDuration":183869,"Delta":5552889},{"NoteNumber":80,"Velocity":36,"Duration":198119,"SoundDuration":198119,"Delta":5739874},{"NoteNumber":76,"Velocity":33,"Duration":198119,"SoundDuration":198119,"Delta":5739874},{"NoteNumber":71,"Velocity":39,"Duration":356818,"SoundDuration":356818,"Delta":5941352},{"NoteNumber":78,"Velocity":44,"Duration":356818,"SoundDuration":356818,"Delta":5941352},{"NoteNumber":83,"Velocity":44,"Duration":185068,"SoundDuration":185068,"Delta":6330608},{"NoteNumber":80,"Velocity":39,"Duration":185068,"SoundDuration":185068,"Delta":6330608},{"NoteNumber":78,"Velocity":36,"Duration":187539,"SoundDuration":187539,"Delta":6518814},{"NoteNumber":81,"Velocity":41,"Duration":187539,"SoundDuration":187539,"Delta":6518814},{"NoteNumber":80,"Velocity":49,"Duration":356818,"SoundDuration":356818,"Delta":6709532},{"NoteNumber":76,"Velocity":44,"Duration":356818,"SoundDuration":356818,"Delta":6709532},{"NoteNumber":76,"Velocity":35,"Duration":187539,"SoundDuration":187539,"Delta":7098789},{"NoteNumber":80,"Velocity":40,"Duration":187539,"SoundDuration":187539,"Delta":7098789},{"NoteNumber":78,"Velocity":36,"Duration":187539,"SoundDuration":187539,"Delta":7289507},{"NoteNumber":71,"Velocity":33,"Duration":187539,"SoundDuration":187539,"Delta":7289507},{"NoteNumber":76,"Velocity":44,"Duration":356818,"SoundDuration":356818,"Delta":7480225},{"NoteNumber":68,"Velocity":39,"Duration":356818,"SoundDuration":356818,"Delta":7480225},{"NoteNumber":80,"Velocity":43,"Duration":181493,"SoundDuration":181493,"Delta":7869482},{"NoteNumber":83,"Velocity":47,"Duration":181493,"SoundDuration":181493,"Delta":7869482},{"NoteNumber":81,"Velocity":44,"Duration":183869,"SoundDuration":183869,"Delta":8054052},{"NoteNumber":78,"Velocity":39,"Duration":183869,"SoundDuration":183869,"Delta":8054052},{"NoteNumber":76,"Velocity":46,"Duration":349650,"SoundDuration":349650,"Delta":8241038},{"NoteNumber":80,"Velocity":53,"Duration":349650,"SoundDuration":349650,"Delta":8241038},{"NoteNumber":76,"Velocity":35,"Duration":182685,"SoundDuration":182685,"Delta":8622474},{"NoteNumber":80,"Velocity":39,"Duration":182685,"SoundDuration":182685,"Delta":8622474},{"NoteNumber":71,"Velocity":32,"Duration":186307,"SoundDuration":186307,"Delta":8808255},{"NoteNumber":78,"Velocity":36,"Duration":186307,"SoundDuration":186307,"Delta":8808255},{"NoteNumber":68,"Velocity":44,"Duration":349650,"SoundDuration":349650,"Delta":8997721},{"NoteNumber":76,"Velocity":44,"Duration":349650,"SoundDuration":349650,"Delta":8997721},{"NoteNumber":68,"Velocity":40,"Duration":190077,"SoundDuration":190077,"Delta":9379158},{"NoteNumber":76,"Velocity":45,"Duration":190077,"SoundDuration":190077,"Delta":9379158},{"NoteNumber":78,"Velocity":41,"Duration":195364,"SoundDuration":195364,"Delta":9572457},{"NoteNumber":71,"Velocity":36,"Duration":195364,"SoundDuration":195364,"Delta":9572457},{"NoteNumber":76,"Velocity":39,"Duration":359242,"SoundDuration":359242,"Delta":9771132},{"NoteNumber":80,"Velocity":44,"Duration":359242,"SoundDuration":359242,"Delta":9771132},{"NoteNumber":81,"Velocity":39,"Duration":196719,"SoundDuration":196719,"Delta":10163033},{"NoteNumber":78,"Velocity":35,"Duration":196719,"SoundDuration":196719,"Delta":10163033},{"NoteNumber":80,"Velocity":35,"Duration":196719,"SoundDuration":196719,"Delta":10363086},{"NoteNumber":76,"Velocity":31,"Duration":196719,"SoundDuration":196719,"Delta":10363086},{"NoteNumber":71,"Velocity":33,"Duration":359242,"SoundDuration":359242,"Delta":10563139},{"NoteNumber":78,"Velocity":36,"Duration":359242,"SoundDuration":359242,"Delta":10563139},{"NoteNumber":80,"Velocity":36,"Duration":202387,"SoundDuration":202387,"Delta":10955040},{"NoteNumber":76,"Velocity":32,"Duration":202387,"SoundDuration":202387,"Delta":10955040},{"NoteNumber":71,"Velocity":27,"Duration":223281,"SoundDuration":223281,"Delta":11160857},{"NoteNumber":78,"Velocity":32,"Duration":223281,"SoundDuration":223281,"Delta":11160857},{"NoteNumber":68,"Velocity":30,"Duration":835568,"SoundDuration":835568,"Delta":11387924},{"NoteNumber":76,"Velocity":34,"Duration":835568,"SoundDuration":835568,"Delta":11387924},{"NoteNumber":56,"Velocity":60,"Duration":84835,"SoundDuration":84835,"Delta":12604929},{"NoteNumber":64,"Velocity":66,"Duration":84835,"SoundDuration":84835,"Delta":12604929},{"NoteNumber":64,"Velocity":56,"Duration":88630,"SoundDuration":88630,"Delta":12780450},{"NoteNumber":68,"Velocity":63,"Duration":88630,"SoundDuration":88630,"Delta":12780450},{"NoteNumber":59,"Velocity":65,"Duration":340599,"SoundDuration":340599,"Delta":12963824},{"NoteNumber":66,"Velocity":73,"Duration":340599,"SoundDuration":340599,"Delta":12963824},{"NoteNumber":64,"Velocity":60,"Duration":83295,"SoundDuration":83295,"Delta":13335387},{"NoteNumber":68,"Velocity":66,"Duration":83295,"SoundDuration":83295,"Delta":13335387},{"NoteNumber":69,"Velocity":63,"Duration":85880,"SoundDuration":85880,"Delta":13507721},{"NoteNumber":66,"Velocity":56,"Duration":85880,"SoundDuration":85880,"Delta":13507721},{"NoteNumber":68,"Velocity":63,"Duration":331925,"SoundDuration":331925,"Delta":13685404},{"NoteNumber":71,"Velocity":72,"Duration":331925,"SoundDuration":331925,"Delta":13685404},{"NoteNumber":73,"Velocity":65,"Duration":82800,"SoundDuration":82800,"Delta":14047504},{"NoteNumber":69,"Velocity":59,"Duration":82800,"SoundDuration":82800,"Delta":14047504},{"NoteNumber":71,"Velocity":63,"Duration":89794,"SoundDuration":89794,"Delta":14219877},{"NoteNumber":68,"Velocity":55,"Duration":89794,"SoundDuration":89794,"Delta":14219877},{"NoteNumber":66,"Velocity":63,"Duration":336185,"SoundDuration":336185,"Delta":14405659},{"NoteNumber":69,"Velocity":71,"Duration":336185,"SoundDuration":336185,"Delta":14405659},{"NoteNumber":68,"Velocity":71,"Duration":84835,"SoundDuration":84835,"Delta":14772407},{"NoteNumber":64,"Velocity":63,"Duration":84835,"SoundDuration":84835,"Delta":14772407},{"NoteNumber":66,"Velocity":60,"Duration":88630,"SoundDuration":88630,"Delta":14947928},{"NoteNumber":69,"Velocity":66,"Duration":88630,"SoundDuration":88630,"Delta":14947928},{"NoteNumber":59,"Velocity":66,"Duration":364238,"SoundDuration":364238,"Delta":15131302},{"NoteNumber":66,"Velocity":74,"Duration":364238,"SoundDuration":364238,"Delta":15131302},{"NoteNumber":56,"Velocity":60,"Duration":85354,"SoundDuration":85354,"Delta":15528653},{"NoteNumber":64,"Velocity":66,"Duration":85354,"SoundDuration":85354,"Delta":15528653},{"NoteNumber":64,"Velocity":57,"Duration":88070,"SoundDuration":88070,"Delta":15705248},{"NoteNumber":68,"Velocity":64,"Duration":88070,"SoundDuration":88070,"Delta":15705248},{"NoteNumber":59,"Velocity":65,"Duration":336185,"SoundDuration":336185,"Delta":15887464},{"NoteNumber":66,"Velocity":73,"Duration":336185,"SoundDuration":336185,"Delta":15887464},{"NoteNumber":68,"Velocity":66,"Duration":80394,"SoundDuration":80394,"Delta":16254212},{"NoteNumber":64,"Velocity":60,"Duration":80394,"SoundDuration":80394,"Delta":16254212},{"NoteNumber":66,"Velocity":56,"Duration":86961,"SoundDuration":86961,"Delta":16420546},{"NoteNumber":69,"Velocity":63,"Duration":86961,"SoundDuration":86961,"Delta":16420546},{"NoteNumber":71,"Velocity":72,"Duration":314070,"SoundDuration":314070,"Delta":16600466},{"NoteNumber":68,"Velocity":63,"Duration":314070,"SoundDuration":314070,"Delta":16600466},{"NoteNumber":73,"Velocity":65,"Duration":84312,"SoundDuration":84312,"Delta":16943088},{"NoteNumber":69,"Velocity":59,"Duration":84312,"SoundDuration":84312,"Delta":16943088},{"NoteNumber":68,"Velocity":56,"Duration":89794,"SoundDuration":89794,"Delta":17117527},{"NoteNumber":71,"Velocity":63,"Duration":89794,"SoundDuration":89794,"Delta":17117527},{"NoteNumber":69,"Velocity":69,"Duration":356587,"SoundDuration":356587,"Delta":17303309},{"NoteNumber":66,"Velocity":62,"Duration":356587,"SoundDuration":356587,"Delta":17303309},{"NoteNumber":64,"Velocity":63,"Duration":103601,"SoundDuration":103601,"Delta":17692313},{"NoteNumber":68,"Velocity":71,"Duration":103601,"SoundDuration":103601,"Delta":17692313},{"NoteNumber":66,"Velocity":60,"Duration":113636,"SoundDuration":113636,"Delta":17906660},{"NoteNumber":69,"Velocity":66,"Duration":113636,"SoundDuration":113636,"Delta":17906660},{"NoteNumber":59,"Velocity":60,"Duration":390557,"SoundDuration":390557,"Delta":18141770},{"NoteNumber":66,"Velocity":66,"Duration":390557,"SoundDuration":390557,"Delta":18141770},{"NoteNumber":83,"Velocity":47,"Duration":190077,"SoundDuration":190077,"Delta":18662513},{"NoteNumber":80,"Velocity":43,"Duration":190077,"SoundDuration":190077,"Delta":18662513},{"NoteNumber":78,"Velocity":41,"Duration":191384,"SoundDuration":191384,"Delta":18855812},{"NoteNumber":81,"Velocity":45,"Duration":191384,"SoundDuration":191384,"Delta":18855812},{"NoteNumber":80,"Velocity":53,"Duration":359242,"SoundDuration":359242,"Delta":19050440},{"NoteNumber":76,"Velocity":46,"Duration":359242,"SoundDuration":359242,"Delta":19050440},{"NoteNumber":76,"Velocity":35,"Duration":186307,"SoundDuration":186307,"Delta":19442340},{"NoteNumber":80,"Velocity":39,"Duration":186307,"SoundDuration":186307,"Delta":19442340},{"NoteNumber":71,"Velocity":33,"Duration":192684,"SoundDuration":192684,"Delta":19631806},{"NoteNumber":78,"Velocity":36,"Duration":192684,"SoundDuration":192684,"Delta":19631806},{"NoteNumber":68,"Velocity":39,"Duration":390292,"SoundDuration":390292,"Delta":19827756},{"NoteNumber":76,"Velocity":44,"Duration":390292,"SoundDuration":390292,"Delta":19827756},{"NoteNumber":68,"Velocity":60,"Duration":84835,"SoundDuration":84835,"Delta":20253530},{"NoteNumber":71,"Velocity":66,"Duration":84835,"SoundDuration":84835,"Delta":20253530},{"NoteNumber":66,"Velocity":54,"Duration":86961,"SoundDuration":86961,"Delta":20429051},{"NoteNumber":69,"Velocity":62,"Duration":86961,"SoundDuration":86961,"Delta":20429051},{"NoteNumber":68,"Velocity":72,"Duration":349650,"SoundDuration":349650,"Delta":20608971},{"NoteNumber":64,"Velocity":64,"Duration":349650,"SoundDuration":349650,"Delta":20608971},{"NoteNumber":64,"Velocity":59,"Duration":86422,"SoundDuration":86422,"Delta":20990408},{"NoteNumber":68,"Velocity":65,"Duration":86422,"SoundDuration":86422,"Delta":20990408},{"NoteNumber":66,"Velocity":62,"Duration":91575,"SoundDuration":91575,"Delta":21169213},{"NoteNumber":59,"Velocity":54,"Duration":91575,"SoundDuration":91575,"Delta":21169213},{"NoteNumber":64,"Velocity":72,"Duration":298013,"SoundDuration":298013,"Delta":21358679},{"NoteNumber":56,"Velocity":63,"Duration":298013,"SoundDuration":298013,"Delta":21358679},{"NoteNumber":68,"Velocity":40,"Duration":190077,"SoundDuration":190077,"Delta":21756030},{"NoteNumber":76,"Velocity":45,"Duration":190077,"SoundDuration":190077,"Delta":21756030},{"NoteNumber":78,"Velocity":41,"Duration":195364,"SoundDuration":195364,"Delta":21949329},{"NoteNumber":71,"Velocity":36,"Duration":195364,"SoundDuration":195364,"Delta":21949329},{"NoteNumber":76,"Velocity":39,"Duration":359242,"SoundDuration":359242,"Delta":22148005},{"NoteNumber":80,"Velocity":44,"Duration":359242,"SoundDuration":359242,"Delta":22148005},{"NoteNumber":78,"Velocity":35,"Duration":196719,"SoundDuration":196719,"Delta":22539905},{"NoteNumber":81,"Velocity":39,"Duration":196719,"SoundDuration":196719,"Delta":22539905},{"NoteNumber":76,"Velocity":31,"Duration":196719,"SoundDuration":196719,"Delta":22739958},{"NoteNumber":80,"Velocity":35,"Duration":196719,"SoundDuration":196719,"Delta":22739958},{"NoteNumber":71,"Velocity":33,"Duration":359242,"SoundDuration":359242,"Delta":22940012},{"NoteNumber":78,"Velocity":36,"Duration":359242,"SoundDuration":359242,"Delta":22940012},{"NoteNumber":76,"Velocity":32,"Duration":216370,"SoundDuration":216370,"Delta":23331912},{"NoteNumber":80,"Velocity":36,"Duration":216370,"SoundDuration":216370,"Delta":23331912},{"NoteNumber":78,"Velocity":32,"Duration":275855,"SoundDuration":275855,"Delta":23551950},{"NoteNumber":71,"Velocity":27,"Duration":275855,"SoundDuration":275855,"Delta":23551950},{"NoteNumber":68,"Velocity":30,"Duration":978155,"SoundDuration":978155,"Delta":23832482},{"NoteNumber":76,"Velocity":34,"Duration":978155,"SoundDuration":978155,"Delta":23832482},{"NoteNumber":92,"Velocity":37,"Duration":164510,"SoundDuration":164510,"Delta":25285306},{"NoteNumber":95,"Velocity":43,"Duration":164510,"SoundDuration":164510,"Delta":25285306},{"NoteNumber":90,"Velocity":35,"Duration":164510,"SoundDuration":164510,"Delta":25452605},{"NoteNumber":93,"Velocity":39,"Duration":164510,"SoundDuration":164510,"Delta":25452605},{"NoteNumber":92,"Velocity":46,"Duration":330307,"SoundDuration":330307,"Delta":25619904},{"NoteNumber":88,"Velocity":42,"Duration":330307,"SoundDuration":330307,"Delta":25619904},{"NoteNumber":52,"Velocity":37,"Duration":677337,"SoundDuration":677337,"Delta":25619904},{"NoteNumber":59,"Velocity":37,"Duration":169462,"SoundDuration":169462,"Delta":25619904},{"NoteNumber":64,"Velocity":35,"Duration":169462,"SoundDuration":169462,"Delta":25792238},{"NoteNumber":88,"Velocity":34,"Duration":163561,"SoundDuration":163561,"Delta":25964573},{"NoteNumber":92,"Velocity":37,"Duration":163561,"SoundDuration":163561,"Delta":25964573},{"NoteNumber":71,"Velocity":32,"Duration":318806,"SoundDuration":318806,"Delta":25964573},{"NoteNumber":90,"Velocity":35,"Duration":163561,"SoundDuration":163561,"Delta":26130907},{"NoteNumber":83,"Velocity":31,"Duration":163561,"SoundDuration":163561,"Delta":26130907},{"NoteNumber":80,"Velocity":36,"Duration":328346,"SoundDuration":328346,"Delta":26297241},{"NoteNumber":88,"Velocity":41,"Duration":328346,"SoundDuration":328346,"Delta":26297241},{"NoteNumber":71,"Velocity":37,"Duration":673382,"SoundDuration":673382,"Delta":26297241},{"NoteNumber":64,"Velocity":37,"Duration":168455,"SoundDuration":168455,"Delta":26297241},{"NoteNumber":59,"Velocity":36,"Duration":168455,"SoundDuration":168455,"Delta":26468552},{"NoteNumber":83,"Velocity":42,"Duration":162623,"SoundDuration":162623,"Delta":26639863},{"NoteNumber":80,"Velocity":36,"Duration":162623,"SoundDuration":162623,"Delta":26639863},{"NoteNumber":52,"Velocity":35,"Duration":316978,"SoundDuration":316978,"Delta":26639863},{"NoteNumber":78,"Velocity":33,"Duration":162623,"SoundDuration":162623,"Delta":26805243},{"NoteNumber":81,"Velocity":36,"Duration":162623,"SoundDuration":162623,"Delta":26805243},{"NoteNumber":76,"Velocity":40,"Duration":328346,"SoundDuration":328346,"Delta":26970623},{"NoteNumber":80,"Velocity":45,"Duration":328346,"SoundDuration":328346,"Delta":26970623},{"NoteNumber":52,"Velocity":32,"Duration":673382,"SoundDuration":673382,"Delta":26970623},{"NoteNumber":59,"Velocity":36,"Duration":168455,"SoundDuration":168455,"Delta":26970623},{"NoteNumber":64,"Velocity":35,"Duration":168455,"SoundDuration":168455,"Delta":27141934},{"NoteNumber":76,"Velocity":34,"Duration":162623,"SoundDuration":162623,"Delta":27313245},{"NoteNumber":80,"Velocity":37,"Duration":162623,"SoundDuration":162623,"Delta":27313245},{"NoteNumber":71,"Velocity":35,"Duration":316978,"SoundDuration":316978,"Delta":27313245},{"NoteNumber":78,"Velocity":35,"Duration":162623,"SoundDuration":162623,"Delta":27478626},{"NoteNumber":71,"Velocity":31,"Duration":162623,"SoundDuration":162623,"Delta":27478626},{"NoteNumber":68,"Velocity":42,"Duration":326370,"SoundDuration":326370,"Delta":27644006},{"NoteNumber":76,"Velocity":42,"Duration":326370,"SoundDuration":326370,"Delta":27644006},{"NoteNumber":64,"Velocity":36,"Duration":167442,"SoundDuration":167442,"Delta":27644006},{"NoteNumber":71,"Velocity":36,"Duration":675873,"SoundDuration":675873,"Delta":27644006},{"NoteNumber":59,"Velocity":35,"Duration":167442,"SoundDuration":167442,"Delta":27814286},{"NoteNumber":76,"Velocity":42,"Duration":158926,"SoundDuration":158926,"Delta":27984567},{"NoteNumber":68,"Velocity":36,"Duration":158926,"SoundDuration":158926,"Delta":27984567},{"NoteNumber":52,"Velocity":35,"Duration":320837,"SoundDuration":320837,"Delta":27984567},{"NoteNumber":78,"Velocity":37,"Duration":170796,"SoundDuration":170796,"Delta":28146187},{"NoteNumber":71,"Velocity":34,"Duration":170796,"SoundDuration":170796,"Delta":28146187},{"NoteNumber":76,"Velocity":40,"Duration":324455,"SoundDuration":324455,"Delta":28319879},{"NoteNumber":80,"Velocity":45,"Duration":324455,"SoundDuration":324455,"Delta":28319879},{"NoteNumber":59,"Velocity":36,"Duration":324455,"SoundDuration":324455,"Delta":28319879},{"NoteNumber":52,"Velocity":36,"Duration":166459,"SoundDuration":166459,"Delta":28319879},{"NoteNumber":64,"Velocity":33,"Duration":166459,"SoundDuration":166459,"Delta":28489160},{"NoteNumber":78,"Velocity":43,"Duration":158926,"SoundDuration":158926,"Delta":28658441},{"NoteNumber":71,"Velocity":37,"Duration":158926,"SoundDuration":158926,"Delta":28658441},{"NoteNumber":76,"Velocity":34,"Duration":168475,"SoundDuration":168475,"Delta":28820061},{"NoteNumber":80,"Velocity":37,"Duration":168475,"SoundDuration":168475,"Delta":28820061},{"NoteNumber":78,"Velocity":43,"Duration":322562,"SoundDuration":322562,"Delta":28991392},{"NoteNumber":81,"Velocity":47,"Duration":322562,"SoundDuration":322562,"Delta":28991392},{"NoteNumber":63,"Velocity":32,"Duration":322562,"SoundDuration":322562,"Delta":28991392},{"NoteNumber":71,"Velocity":36,"Duration":322562,"SoundDuration":322562,"Delta":28991392},{"NoteNumber":59,"Velocity":33,"Duration":165488,"SoundDuration":165488,"Delta":29159686},{"NoteNumber":71,"Velocity":40,"Duration":158926,"SoundDuration":158926,"Delta":29327979},{"NoteNumber":78,"Velocity":45,"Duration":158926,"SoundDuration":158926,"Delta":29327979},{"NoteNumber":78,"Velocity":36,"Duration":168475,"SoundDuration":168475,"Delta":29489600},{"NoteNumber":81,"Velocity":42,"Duration":168475,"SoundDuration":168475,"Delta":29489600},{"NoteNumber":80,"Velocity":44,"Duration":322562,"SoundDuration":322562,"Delta":29660930},{"NoteNumber":83,"Velocity":50,"Duration":322562,"SoundDuration":322562,"Delta":29660930},{"NoteNumber":52,"Velocity":31,"Duration":322562,"SoundDuration":322562,"Delta":29660930},{"NoteNumber":59,"Velocity":35,"Duration":322562,"SoundDuration":322562,"Delta":29660930},{"NoteNumber":64,"Velocity":33,"Duration":165488,"SoundDuration":165488,"Delta":29829224},{"NoteNumber":81,"Velocity":39,"Duration":158041,"SoundDuration":158041,"Delta":29997517},{"NoteNumber":78,"Velocity":35,"Duration":158041,"SoundDuration":158041,"Delta":29997517},{"NoteNumber":76,"Velocity":32,"Duration":164510,"SoundDuration":164510,"Delta":30158237},{"NoteNumber":80,"Velocity":36,"Duration":164510,"SoundDuration":164510,"Delta":30158237},{"NoteNumber":78,"Velocity":44,"Duration":324455,"SoundDuration":324455,"Delta":30325536},{"NoteNumber":71,"Velocity":39,"Duration":324455,"SoundDuration":324455,"Delta":30325536},{"NoteNumber":66,"Velocity":35,"Duration":324455,"SoundDuration":324455,"Delta":30325536},{"NoteNumber":63,"Velocity":31,"Duration":324455,"SoundDuration":324455,"Delta":30325536},{"NoteNumber":59,"Velocity":32,"Duration":166459,"SoundDuration":166459,"Delta":30494817},{"NoteNumber":92,"Velocity":37,"Duration":164510,"SoundDuration":164510,"Delta":30664098},{"NoteNumber":95,"Velocity":43,"Duration":164510,"SoundDuration":164510,"Delta":30664098},{"NoteNumber":90,"Velocity":35,"Duration":164510,"SoundDuration":164510,"Delta":30831397},{"NoteNumber":93,"Velocity":39,"Duration":164510,"SoundDuration":164510,"Delta":30831397},{"NoteNumber":88,"Velocity":42,"Duration":330307,"SoundDuration":330307,"Delta":30998696},{"NoteNumber":92,"Velocity":46,"Duration":330307,"SoundDuration":330307,"Delta":30998696},{"NoteNumber":59,"Velocity":37,"Duration":169462,"SoundDuration":169462,"Delta":30998696},{"NoteNumber":52,"Velocity":34,"Duration":677337,"SoundDuration":677337,"Delta":30998696},{"NoteNumber":64,"Velocity":35,"Duration":169462,"SoundDuration":169462,"Delta":31171030},{"NoteNumber":92,"Velocity":37,"Duration":163561,"SoundDuration":163561,"Delta":31343365},{"NoteNumber":88,"Velocity":34,"Duration":163561,"SoundDuration":163561,"Delta":31343365},{"NoteNumber":71,"Velocity":32,"Duration":318806,"SoundDuration":318806,"Delta":31343365},{"NoteNumber":83,"Velocity":31,"Duration":163561,"SoundDuration":163561,"Delta":31509699},{"NoteNumber":90,"Velocity":35,"Duration":163561,"SoundDuration":163561,"Delta":31509699},{"NoteNumber":88,"Velocity":41,"Duration":328346,"SoundDuration":328346,"Delta":31676033},{"NoteNumber":80,"Velocity":36,"Duration":328346,"SoundDuration":328346,"Delta":31676033},{"NoteNumber":64,"Velocity":37,"Duration":168455,"SoundDuration":168455,"Delta":31676033},{"NoteNumber":71,"Velocity":37,"Duration":673382,"SoundDuration":673382,"Delta":31676033},{"NoteNumber":59,"Velocity":35,"Duration":168455,"SoundDuration":168455,"Delta":31847344},{"NoteNumber":80,"Velocity":36,"Duration":162623,"SoundDuration":162623,"Delta":32018655},{"NoteNumber":83,"Velocity":42,"Duration":162623,"SoundDuration":162623,"Delta":32018655},{"NoteNumber":52,"Velocity":35,"Duration":316978,"SoundDuration":316978,"Delta":32018655},{"NoteNumber":78,"Velocity":34,"Duration":162623,"SoundDuration":162623,"Delta":32184035},{"NoteNumber":81,"Velocity":37,"Duration":162623,"SoundDuration":162623,"Delta":32184035},{"NoteNumber":80,"Velocity":45,"Duration":326370,"SoundDuration":326370,"Delta":32349415},{"NoteNumber":76,"Velocity":40,"Duration":326370,"SoundDuration":326370,"Delta":32349415},{"NoteNumber":52,"Velocity":32,"Duration":662901,"SoundDuration":662901,"Delta":32349415},{"NoteNumber":59,"Velocity":36,"Duration":167442,"SoundDuration":167442,"Delta":32349415},{"NoteNumber":64,"Velocity":35,"Duration":167442,"SoundDuration":167442,"Delta":32519696},{"NoteNumber":76,"Velocity":34,"Duration":158041,"SoundDuration":158041,"Delta":32689976},{"NoteNumber":80,"Velocity":37,"Duration":158041,"SoundDuration":158041,"Delta":32689976},{"NoteNumber":71,"Velocity":35,"Duration":308872,"SoundDuration":308872,"Delta":32689976},{"NoteNumber":71,"Velocity":31,"Duration":158926,"SoundDuration":158926,"Delta":32850696},{"NoteNumber":78,"Velocity":35,"Duration":158926,"SoundDuration":158926,"Delta":32850696},{"NoteNumber":68,"Velocity":36,"Duration":322562,"SoundDuration":322562,"Delta":33012317},{"NoteNumber":76,"Velocity":42,"Duration":322562,"SoundDuration":322562,"Delta":33012317},{"NoteNumber":64,"Velocity":36,"Duration":165488,"SoundDuration":165488,"Delta":33012317},{"NoteNumber":71,"Velocity":36,"Duration":659855,"SoundDuration":659855,"Delta":33012317},{"NoteNumber":59,"Velocity":35,"Duration":165488,"SoundDuration":165488,"Delta":33180610},{"NoteNumber":68,"Velocity":36,"Duration":158041,"SoundDuration":158041,"Delta":33348904},{"NoteNumber":76,"Velocity":42,"Duration":158041,"SoundDuration":158041,"Delta":33348904},{"NoteNumber":52,"Velocity":35,"Duration":309723,"SoundDuration":309723,"Delta":33348904},{"NoteNumber":71,"Velocity":34,"Duration":159839,"SoundDuration":159839,"Delta":33509624},{"NoteNumber":78,"Velocity":37,"Duration":159839,"SoundDuration":159839,"Delta":33509624},{"NoteNumber":80,"Velocity":45,"Duration":322562,"SoundDuration":322562,"Delta":33672172},{"NoteNumber":76,"Velocity":40,"Duration":322562,"SoundDuration":322562,"Delta":33672172},{"NoteNumber":59,"Velocity":36,"Duration":322562,"SoundDuration":322562,"Delta":33672172},{"NoteNumber":52,"Velocity":36,"Duration":165488,"SoundDuration":165488,"Delta":33672172},{"NoteNumber":64,"Velocity":33,"Duration":165488,"SoundDuration":165488,"Delta":33840466},{"NoteNumber":78,"Velocity":39,"Duration":161661,"SoundDuration":161661,"Delta":34008759},{"NoteNumber":81,"Velocity":44,"Duration":161661,"SoundDuration":161661,"Delta":34008759},{"NoteNumber":80,"Velocity":39,"Duration":168475,"SoundDuration":168475,"Delta":34173161},{"NoteNumber":76,"Velocity":35,"Duration":168475,"SoundDuration":168475,"Delta":34173161},{"NoteNumber":78,"Velocity":41,"Duration":313317,"SoundDuration":313317,"Delta":34344492},{"NoteNumber":71,"Velocity":36,"Duration":313317,"SoundDuration":313317,"Delta":34344492},{"NoteNumber":69,"Velocity":36,"Duration":313317,"SoundDuration":313317,"Delta":34344492},{"NoteNumber":63,"Velocity":36,"Duration":313317,"SoundDuration":313317,"Delta":34344492},{"NoteNumber":59,"Velocity":33,"Duration":160745,"SoundDuration":160745,"Delta":34507962},{"NoteNumber":76,"Velocity":40,"Duration":168455,"SoundDuration":168455,"Delta":34671432},{"NoteNumber":80,"Velocity":45,"Duration":168455,"SoundDuration":168455,"Delta":34671432},{"NoteNumber":78,"Velocity":37,"Duration":175825,"SoundDuration":175825,"Delta":34842743},{"NoteNumber":71,"Velocity":34,"Duration":175825,"SoundDuration":175825,"Delta":34842743},{"NoteNumber":68,"Velocity":35,"Duration":712017,"SoundDuration":712017,"Delta":35021548},{"NoteNumber":76,"Velocity":39,"Duration":712017,"SoundDuration":712017,"Delta":35021548},{"NoteNumber":52,"Velocity":39,"Duration":182685,"SoundDuration":182685,"Delta":35021548},{"NoteNumber":59,"Velocity":32,"Duration":170480,"SoundDuration":170480,"Delta":35207330},{"NoteNumber":68,"Velocity":34,"Duration":174721,"SoundDuration":174721,"Delta":35380700},{"NoteNumber":64,"Velocity":32,"Duration":172346,"SoundDuration":172346,"Delta":35558383},{"NoteNumber":71,"Velocity":39,"Duration":358389,"SoundDuration":358389,"Delta":35733566},{"NoteNumber":56,"Velocity":60,"Duration":78565,"SoundDuration":78565,"Delta":36107538},{"NoteNumber":64,"Velocity":66,"Duration":78565,"SoundDuration":78565,"Delta":36107538},{"NoteNumber":64,"Velocity":55,"Duration":83795,"SoundDuration":83795,"Delta":36270086},{"NoteNumber":68,"Velocity":63,"Duration":83795,"SoundDuration":83795,"Delta":36270086},{"NoteNumber":59,"Velocity":65,"Duration":310348,"SoundDuration":310348,"Delta":36443457},{"NoteNumber":66,"Velocity":73,"Duration":310348,"SoundDuration":310348,"Delta":36443457},{"NoteNumber":64,"Velocity":60,"Duration":75971,"SoundDuration":75971,"Delta":36782019},{"NoteNumber":68,"Velocity":66,"Duration":75971,"SoundDuration":75971,"Delta":36782019},{"NoteNumber":66,"Velocity":57,"Duration":78565,"SoundDuration":78565,"Delta":36939202},{"NoteNumber":69,"Velocity":64,"Duration":78565,"SoundDuration":78565,"Delta":36939202},{"NoteNumber":71,"Velocity":72,"Duration":306714,"SoundDuration":306714,"Delta":37101751},{"NoteNumber":68,"Velocity":63,"Duration":306714,"SoundDuration":306714,"Delta":37101751},{"NoteNumber":69,"Velocity":62,"Duration":74742,"SoundDuration":74742,"Delta":37436348},{"NoteNumber":73,"Velocity":69,"Duration":74742,"SoundDuration":74742,"Delta":37436348},{"NoteNumber":71,"Velocity":64,"Duration":78565,"SoundDuration":78565,"Delta":37590987},{"NoteNumber":68,"Velocity":57,"Duration":78565,"SoundDuration":78565,"Delta":37590987},{"NoteNumber":69,"Velocity":74,"Duration":312180,"SoundDuration":312180,"Delta":37753536},{"NoteNumber":66,"Velocity":66,"Duration":312180,"SoundDuration":312180,"Delta":37753536},{"NoteNumber":64,"Velocity":61,"Duration":73941,"SoundDuration":73941,"Delta":38094097},{"NoteNumber":68,"Velocity":67,"Duration":73941,"SoundDuration":73941,"Delta":38094097},{"NoteNumber":69,"Velocity":64,"Duration":78565,"SoundDuration":78565,"Delta":38247080},{"NoteNumber":66,"Velocity":57,"Duration":78565,"SoundDuration":78565,"Delta":38247080},{"NoteNumber":59,"Velocity":66,"Duration":312180,"SoundDuration":312180,"Delta":38409629},{"NoteNumber":66,"Velocity":74,"Duration":312180,"SoundDuration":312180,"Delta":38409629},{"NoteNumber":56,"Velocity":60,"Duration":79010,"SoundDuration":79010,"Delta":38748448},{"NoteNumber":64,"Velocity":66,"Duration":79010,"SoundDuration":79010,"Delta":38748448},{"NoteNumber":64,"Velocity":56,"Duration":81819,"SoundDuration":81819,"Delta":38911918},{"NoteNumber":68,"Velocity":63,"Duration":81819,"SoundDuration":81819,"Delta":38911918},{"NoteNumber":59,"Velocity":65,"Duration":315946,"SoundDuration":315946,"Delta":39081199},{"NoteNumber":66,"Velocity":73,"Duration":315946,"SoundDuration":315946,"Delta":39081199},{"NoteNumber":64,"Velocity":60,"Duration":73941,"SoundDuration":73941,"Delta":39425868},{"NoteNumber":68,"Velocity":66,"Duration":73941,"SoundDuration":73941,"Delta":39425868},{"NoteNumber":69,"Velocity":63,"Duration":80861,"SoundDuration":80861,"Delta":39578852},{"NoteNumber":66,"Velocity":56,"Duration":80861,"SoundDuration":80861,"Delta":39578852},{"NoteNumber":68,"Velocity":63,"Duration":301402,"SoundDuration":301402,"Delta":39746150},{"NoteNumber":71,"Velocity":72,"Duration":301402,"SoundDuration":301402,"Delta":39746150},{"NoteNumber":73,"Velocity":72,"Duration":77250,"SoundDuration":77250,"Delta":40074953},{"NoteNumber":69,"Velocity":63,"Duration":77250,"SoundDuration":77250,"Delta":40074953},{"NoteNumber":71,"Velocity":69,"Duration":82800,"SoundDuration":82800,"Delta":40234783},{"NoteNumber":68,"Velocity":62,"Duration":82800,"SoundDuration":82800,"Delta":40234783},{"NoteNumber":66,"Velocity":66,"Duration":380096,"SoundDuration":380096,"Delta":40406094},{"NoteNumber":69,"Velocity":74,"Duration":380096,"SoundDuration":380096,"Delta":40406094},{"NoteNumber":68,"Velocity":66,"Duration":123467,"SoundDuration":123467,"Delta":40820745},{"NoteNumber":64,"Velocity":60,"Duration":123467,"SoundDuration":123467,"Delta":40820745},{"NoteNumber":66,"Velocity":56,"Duration":136921,"SoundDuration":136921,"Delta":41076194},{"NoteNumber":69,"Velocity":63,"Duration":136921,"SoundDuration":136921,"Delta":41076194},{"NoteNumber":59,"Velocity":57,"Duration":681198,"SoundDuration":681198,"Delta":41359480},{"NoteNumber":66,"Velocity":64,"Duration":681198,"SoundDuration":681198,"Delta":41359480},{"NoteNumber":92,"Velocity":37,"Duration":164510,"SoundDuration":164510,"Delta":42267745},{"NoteNumber":95,"Velocity":43,"Duration":164510,"SoundDuration":164510,"Delta":42267745},{"NoteNumber":93,"Velocity":41,"Duration":164510,"SoundDuration":164510,"Delta":42435044},{"NoteNumber":90,"Velocity":36,"Duration":164510,"SoundDuration":164510,"Delta":42435044},{"NoteNumber":88,"Velocity":42,"Duration":330307,"SoundDuration":330307,"Delta":42602343},{"NoteNumber":92,"Velocity":46,"Duration":330307,"SoundDuration":330307,"Delta":42602343},{"NoteNumber":52,"Velocity":34,"Duration":677337,"SoundDuration":677337,"Delta":42602343},{"NoteNumber":59,"Velocity":37,"Duration":169462,"SoundDuration":169462,"Delta":42602343},{"NoteNumber":64,"Velocity":34,"Duration":169462,"SoundDuration":169462,"Delta":42774677},{"NoteNumber":92,"Velocity":37,"Duration":163561,"SoundDuration":163561,"Delta":42947012},{"NoteNumber":88,"Velocity":34,"Duration":163561,"SoundDuration":163561,"Delta":42947012},{"NoteNumber":71,"Velocity":32,"Duration":318806,"SoundDuration":318806,"Delta":42947012},{"NoteNumber":83,"Velocity":31,"Duration":163561,"SoundDuration":163561,"Delta":43113346},{"NoteNumber":90,"Velocity":35,"Duration":163561,"SoundDuration":163561,"Delta":43113346},{"NoteNumber":80,"Velocity":36,"Duration":328346,"SoundDuration":328346,"Delta":43279680},{"NoteNumber":88,"Velocity":41,"Duration":328346,"SoundDuration":328346,"Delta":43279680},{"NoteNumber":71,"Velocity":37,"Duration":673382,"SoundDuration":673382,"Delta":43279680},{"NoteNumber":64,"Velocity":37,"Duration":168455,"SoundDuration":168455,"Delta":43279680},{"NoteNumber":59,"Velocity":34,"Duration":168455,"SoundDuration":168455,"Delta":43450991},{"NoteNumber":83,"Velocity":42,"Duration":162623,"SoundDuration":162623,"Delta":43622302},{"NoteNumber":80,"Velocity":36,"Duration":162623,"SoundDuration":162623,"Delta":43622302},{"NoteNumber":52,"Velocity":35,"Duration":316978,"SoundDuration":316978,"Delta":43622302},{"NoteNumber":78,"Velocity":34,"Duration":162623,"SoundDuration":162623,"Delta":43787682},{"NoteNumber":81,"Velocity":37,"Duration":162623,"SoundDuration":162623,"Delta":43787682},{"NoteNumber":76,"Velocity":40,"Duration":328346,"SoundDuration":328346,"Delta":43953062},{"NoteNumber":80,"Velocity":45,"Duration":328346,"SoundDuration":328346,"Delta":43953062},{"NoteNumber":52,"Velocity":32,"Duration":673382,"SoundDuration":673382,"Delta":43953062},{"NoteNumber":59,"Velocity":36,"Duration":168455,"SoundDuration":168455,"Delta":43953062},{"NoteNumber":64,"Velocity":35,"Duration":168455,"SoundDuration":168455,"Delta":44124373},{"NoteNumber":80,"Velocity":37,"Duration":162623,"SoundDuration":162623,"Delta":44295684},{"NoteNumber":76,"Velocity":34,"Duration":162623,"SoundDuration":162623,"Delta":44295684},{"NoteNumber":71,"Velocity":35,"Duration":316978,"SoundDuration":316978,"Delta":44295684},{"NoteNumber":71,"Velocity":32,"Duration":162623,"SoundDuration":162623,"Delta":44461065},{"NoteNumber":78,"Velocity":36,"Duration":162623,"SoundDuration":162623,"Delta":44461065},{"NoteNumber":76,"Velocity":42,"Duration":326370,"SoundDuration":326370,"Delta":44626445},{"NoteNumber":68,"Velocity":36,"Duration":326370,"SoundDuration":326370,"Delta":44626445},{"NoteNumber":71,"Velocity":36,"Duration":698171,"SoundDuration":698171,"Delta":44626445},{"NoteNumber":64,"Velocity":36,"Duration":167442,"SoundDuration":167442,"Delta":44626445},{"NoteNumber":59,"Velocity":35,"Duration":167442,"SoundDuration":167442,"Delta":44796725},{"NoteNumber":64,"Velocity":42,"Duration":86422,"SoundDuration":86422,"Delta":44967006},{"NoteNumber":56,"Velocity":36,"Duration":86422,"SoundDuration":86422,"Delta":44967006},{"NoteNumber":52,"Velocity":35,"Duration":342710,"SoundDuration":342710,"Delta":44967006},{"NoteNumber":59,"Velocity":33,"Duration":86422,"SoundDuration":86422,"Delta":45145811},{"NoteNumber":66,"Velocity":36,"Duration":86422,"SoundDuration":86422,"Delta":45145811},{"NoteNumber":68,"Velocity":45,"Duration":360727,"SoundDuration":360727,"Delta":45324617},{"NoteNumber":64,"Velocity":40,"Duration":360727,"SoundDuration":360727,"Delta":45324617},{"NoteNumber":66,"Velocity":36,"Duration":101683,"SoundDuration":101683,"Delta":45701028},{"NoteNumber":69,"Velocity":42,"Duration":101683,"SoundDuration":101683,"Delta":45701028},{"NoteNumber":64,"Velocity":33,"Duration":101683,"SoundDuration":101683,"Delta":45911407},{"NoteNumber":68,"Velocity":36,"Duration":101683,"SoundDuration":101683,"Delta":45911407},{"NoteNumber":59,"Velocity":33,"Duration":409194,"SoundDuration":409194,"Delta":46122305},{"NoteNumber":66,"Velocity":36,"Duration":409194,"SoundDuration":409194,"Delta":46122305},{"NoteNumber":64,"Velocity":36,"Duration":124591,"SoundDuration":124591,"Delta":46549290},{"NoteNumber":68,"Velocity":41,"Duration":124591,"SoundDuration":124591,"Delta":46549290},{"NoteNumber":59,"Velocity":31,"Duration":144020,"SoundDuration":144020,"Delta":46807067},{"NoteNumber":66,"Velocity":35,"Duration":144020,"SoundDuration":144020,"Delta":46807067},{"NoteNumber":64,"Velocity":36,"Duration":1049868,"SoundDuration":1049868,"Delta":47099123},{"NoteNumber":56,"Velocity":32,"Duration":1049868,"SoundDuration":1049868,"Delta":47099123},{"NoteNumber":59,"Velocity":59,"Duration":208392,"SoundDuration":208392,"Delta":48468651},{"NoteNumber":71,"Velocity":66,"Duration":208392,"SoundDuration":208392,"Delta":48468651},{"NoteNumber":59,"Velocity":66,"Duration":369140,"SoundDuration":369140,"Delta":48892499},{"NoteNumber":64,"Velocity":66,"Duration":369140,"SoundDuration":369140,"Delta":48892499},{"NoteNumber":67,"Velocity":66,"Duration":369140,"SoundDuration":369140,"Delta":48892499},{"NoteNumber":71,"Velocity":73,"Duration":369140,"SoundDuration":369140,"Delta":48892499},{"NoteNumber":40,"Velocity":59,"Duration":276854,"SoundDuration":276854,"Delta":48892499},{"NoteNumber":47,"Velocity":66,"Duration":276854,"SoundDuration":276854,"Delta":48892499},{"NoteNumber":57,"Velocity":66,"Duration":119199,"SoundDuration":119199,"Delta":49261639},{"NoteNumber":55,"Velocity":63,"Duration":94070,"SoundDuration":94070,"Delta":49420571},{"NoteNumber":57,"Velocity":66,"Duration":355365,"SoundDuration":355365,"Delta":49615199},{"NoteNumber":66,"Velocity":66,"Duration":355365,"SoundDuration":355365,"Delta":49615199},{"NoteNumber":69,"Velocity":73,"Duration":355365,"SoundDuration":355365,"Delta":49615199},{"NoteNumber":39,"Velocity":55,"Duration":266524,"SoundDuration":266524,"Delta":49615199},{"NoteNumber":47,"Velocity":62,"Duration":266524,"SoundDuration":266524,"Delta":49615199},{"NoteNumber":55,"Velocity":66,"Duration":119872,"SoundDuration":119872,"Delta":49970565},{"NoteNumber":54,"Velocity":62,"Duration":91575,"SoundDuration":91575,"Delta":50130395},{"NoteNumber":55,"Velocity":66,"Duration":355365,"SoundDuration":355365,"Delta":50319861},{"NoteNumber":64,"Velocity":66,"Duration":355365,"SoundDuration":355365,"Delta":50319861},{"NoteNumber":67,"Velocity":73,"Duration":355365,"SoundDuration":355365,"Delta":50319861},{"NoteNumber":40,"Velocity":59,"Duration":266524,"SoundDuration":266524,"Delta":50319861},{"NoteNumber":47,"Velocity":66,"Duration":266524,"SoundDuration":266524,"Delta":50319861},{"NoteNumber":54,"Velocity":66,"Duration":120539,"SoundDuration":120539,"Delta":50675227},{"NoteNumber":52,"Velocity":63,"Duration":90376,"SoundDuration":90376,"Delta":50835947},{"NoteNumber":55,"Velocity":70,"Duration":355365,"SoundDuration":355365,"Delta":51022932},{"NoteNumber":64,"Velocity":70,"Duration":355365,"SoundDuration":355365,"Delta":51022932},{"NoteNumber":67,"Velocity":79,"Duration":355365,"SoundDuration":355365,"Delta":51022932},{"NoteNumber":36,"Velocity":54,"Duration":266524,"SoundDuration":266524,"Delta":51022932},{"NoteNumber":48,"Velocity":61,"Duration":266524,"SoundDuration":266524,"Delta":51022932},{"NoteNumber":54,"Velocity":66,"Duration":122602,"SoundDuration":122602,"Delta":51378298},{"NoteNumber":52,"Velocity":62,"Duration":92794,"SoundDuration":92794,"Delta":51541768},{"NoteNumber":55,"Velocity":67,"Duration":355365,"SoundDuration":355365,"Delta":51733756},{"NoteNumber":59,"Velocity":67,"Duration":355365,"SoundDuration":355365,"Delta":51733756},{"NoteNumber":67,"Velocity":75,"Duration":355365,"SoundDuration":355365,"Delta":51733756},{"NoteNumber":64,"Velocity":67,"Duration":355365,"SoundDuration":355365,"Delta":51733756},{"NoteNumber":35,"Velocity":57,"Duration":266524,"SoundDuration":266524,"Delta":51733756},{"NoteNumber":47,"Velocity":64,"Duration":266524,"SoundDuration":266524,"Delta":51733756},{"NoteNumber":54,"Velocity":66,"Duration":124750,"SoundDuration":124750,"Delta":52089122},{"NoteNumber":52,"Velocity":62,"Duration":92180,"SoundDuration":92180,"Delta":52255456},{"NoteNumber":52,"Velocity":65,"Duration":355365,"SoundDuration":355365,"Delta":52446174},{"NoteNumber":55,"Velocity":65,"Duration":355365,"SoundDuration":355365,"Delta":52446174},{"NoteNumber":61,"Velocity":65,"Duration":355365,"SoundDuration":355365,"Delta":52446174},{"NoteNumber":64,"Velocity":72,"Duration":355365,"SoundDuration":355365,"Delta":52446174},{"NoteNumber":34,"Velocity":54,"Duration":266524,"SoundDuration":266524,"Delta":52446174},{"NoteNumber":46,"Velocity":61,"Duration":266524,"SoundDuration":266524,"Delta":52446174},{"NoteNumber":51,"Velocity":66,"Duration":138427,"SoundDuration":138427,"Delta":52801540},{"NoteNumber":52,"Velocity":62,"Duration":157784,"SoundDuration":157784,"Delta":52986110},{"NoteNumber":67,"Velocity":79,"Duration":800212,"SoundDuration":800212,"Delta":53196489},{"NoteNumber":64,"Velocity":70,"Duration":800212,"SoundDuration":800212,"Delta":53196489},{"NoteNumber":59,"Velocity":70,"Duration":800212,"SoundDuration":800212,"Delta":53196489},{"NoteNumber":55,"Velocity":70,"Duration":800212,"SoundDuration":800212,"Delta":53196489},{"NoteNumber":35,"Velocity":61,"Duration":800212,"SoundDuration":800212,"Delta":53196489},{"NoteNumber":47,"Velocity":69,"Duration":800212,"SoundDuration":800212,"Delta":53196489},{"NoteNumber":54,"Velocity":65,"Duration":400106,"SoundDuration":400106,"Delta":53996702},{"NoteNumber":63,"Velocity":65,"Duration":400106,"SoundDuration":400106,"Delta":53996702},{"NoteNumber":66,"Velocity":72,"Duration":400106,"SoundDuration":400106,"Delta":53996702},{"NoteNumber":35,"Velocity":57,"Duration":400106,"SoundDuration":400106,"Delta":53996702},{"NoteNumber":47,"Velocity":65,"Duration":400106,"SoundDuration":400106,"Delta":53996702},{"NoteNumber":50,"Velocity":72,"Duration":188787,"SoundDuration":188787,"Delta":54396809},{"NoteNumber":62,"Velocity":72,"Duration":188787,"SoundDuration":188787,"Delta":54396809},{"NoteNumber":55,"Velocity":76,"Duration":369140,"SoundDuration":369140,"Delta":54780784},{"NoteNumber":59,"Velocity":76,"Duration":369140,"SoundDuration":369140,"Delta":54780784},{"NoteNumber":62,"Velocity":76,"Duration":369140,"SoundDuration":369140,"Delta":54780784},{"NoteNumber":67,"Velocity":84,"Duration":369140,"SoundDuration":369140,"Delta":54780784},{"NoteNumber":31,"Velocity":66,"Duration":276854,"SoundDuration":276854,"Delta":54780784},{"NoteNumber":43,"Velocity":73,"Duration":276854,"SoundDuration":276854,"Delta":54780784},{"NoteNumber":54,"Velocity":66,"Duration":78565,"SoundDuration":78565,"Delta":55149924},{"NoteNumber":55,"Velocity":61,"Duration":94070,"SoundDuration":94070,"Delta":55312473},{"NoteNumber":62,"Velocity":72,"Duration":355365,"SoundDuration":355365,"Delta":55507101},{"NoteNumber":57,"Velocity":72,"Duration":355365,"SoundDuration":355365,"Delta":55507101},{"NoteNumber":66,"Velocity":72,"Duration":355365,"SoundDuration":355365,"Delta":55507101},{"NoteNumber":69,"Velocity":81,"Duration":355365,"SoundDuration":355365,"Delta":55507101},{"NoteNumber":38,"Velocity":59,"Duration":266524,"SoundDuration":266524,"Delta":55507101},{"NoteNumber":50,"Velocity":66,"Duration":266524,"SoundDuration":266524,"Delta":55507101},{"NoteNumber":55,"Velocity":66,"Duration":79933,"SoundDuration":79933,"Delta":55862467},{"NoteNumber":57,"Velocity":61,"Duration":91575,"SoundDuration":91575,"Delta":56027847},{"NoteNumber":67,"Velocity":66,"Duration":355365,"SoundDuration":355365,"Delta":56217313},{"NoteNumber":59,"Velocity":66,"Duration":355365,"SoundDuration":355365,"Delta":56217313},{"NoteNumber":62,"Velocity":66,"Duration":355365,"SoundDuration":355365,"Delta":56217313},{"NoteNumber":71,"Velocity":73,"Duration":355365,"SoundDuration":355365,"Delta":56217313},{"NoteNumber":43,"Velocity":59,"Duration":266524,"SoundDuration":266524,"Delta":56217313},{"NoteNumber":55,"Velocity":66,"Duration":266524,"SoundDuration":266524,"Delta":56217313},{"NoteNumber":57,"Velocity":66,"Duration":81819,"SoundDuration":81819,"Delta":56572679},{"NoteNumber":59,"Velocity":62,"Duration":95369,"SoundDuration":95369,"Delta":56741960},{"NoteNumber":67,"Velocity":75,"Duration":353190,"SoundDuration":353190,"Delta":56939277},{"NoteNumber":60,"Velocity":75,"Duration":353190,"SoundDuration":353190,"Delta":56939277},{"NoteNumber":64,"Velocity":75,"Duration":353190,"SoundDuration":353190,"Delta":56939277},{"NoteNumber":72,"Velocity":83,"Duration":353190,"SoundDuration":353190,"Delta":56939277},{"NoteNumber":36,"Velocity":55,"Duration":264892,"SoundDuration":264892,"Delta":56939277},{"NoteNumber":48,"Velocity":62,"Duration":264892,"SoundDuration":264892,"Delta":56939277},{"NoteNumber":62,"Velocity":66,"Duration":79933,"SoundDuration":79933,"Delta":57292467},{"NoteNumber":64,"Velocity":62,"Duration":84312,"SoundDuration":84312,"Delta":57457847},{"NoteNumber":55,"Velocity":69,"Duration":342621,"SoundDuration":342621,"Delta":57632286},{"NoteNumber":59,"Velocity":69,"Duration":342621,"SoundDuration":342621,"Delta":57632286},{"NoteNumber":71,"Velocity":77,"Duration":342621,"SoundDuration":342621,"Delta":57632286},{"NoteNumber":62,"Velocity":69,"Duration":342621,"SoundDuration":342621,"Delta":57632286},{"NoteNumber":38,"Velocity":57,"Duration":256966,"SoundDuration":256966,"Delta":57632286},{"NoteNumber":50,"Velocity":64,"Duration":256966,"SoundDuration":256966,"Delta":57632286},{"NoteNumber":57,"Velocity":66,"Duration":79010,"SoundDuration":79010,"Delta":57974908},{"NoteNumber":59,"Velocity":62,"Duration":89208,"SoundDuration":89208,"Delta":58138378},{"NoteNumber":57,"Velocity":67,"Duration":355365,"SoundDuration":355365,"Delta":58322948},{"NoteNumber":60,"Velocity":67,"Duration":355365,"SoundDuration":355365,"Delta":58322948},{"NoteNumber":66,"Velocity":67,"Duration":355365,"SoundDuration":355365,"Delta":58322948},{"NoteNumber":69,"Velocity":76,"Duration":355365,"SoundDuration":355365,"Delta":58322948},{"NoteNumber":38,"Velocity":54,"Duration":266524,"SoundDuration":266524,"Delta":58322948},{"NoteNumber":50,"Velocity":61,"Duration":266524,"SoundDuration":266524,"Delta":58322948},{"NoteNumber":59,"Velocity":66,"Duration":108031,"SoundDuration":108031,"Delta":58678314},{"NoteNumber":54,"Velocity":61,"Duration":134259,"SoundDuration":134259,"Delta":58901828},{"NoteNumber":67,"Velocity":82,"Duration":778512,"SoundDuration":778512,"Delta":59179606},{"NoteNumber":62,"Velocity":73,"Duration":778512,"SoundDuration":778512,"Delta":59179606},{"NoteNumber":59,"Velocity":73,"Duration":778512,"SoundDuration":778512,"Delta":59179606},{"NoteNumber":55,"Velocity":73,"Duration":778512,"SoundDuration":778512,"Delta":59179606},{"NoteNumber":31,"Velocity":65,"Duration":778512,"SoundDuration":778512,"Delta":59179606},{"NoteNumber":43,"Velocity":72,"Duration":778512,"SoundDuration":778512,"Delta":59179606},{"NoteNumber":59,"Velocity":62,"Duration":188787,"SoundDuration":188787,"Delta":60347375},{"NoteNumber":71,"Velocity":70,"Duration":188787,"SoundDuration":188787,"Delta":60347375},{"NoteNumber":57,"Velocity":67,"Duration":362099,"SoundDuration":362099,"Delta":60731351},{"NoteNumber":66,"Velocity":67,"Duration":362099,"SoundDuration":362099,"Delta":60731351},{"NoteNumber":69,"Velocity":76,"Duration":362099,"SoundDuration":362099,"Delta":60731351},{"NoteNumber":51,"Velocity":66,"Duration":271574,"SoundDuration":271574,"Delta":60731351},{"NoteNumber":39,"Velocity":59,"Duration":271574,"SoundDuration":271574,"Delta":60731351},{"NoteNumber":47,"Velocity":59,"Duration":271574,"SoundDuration":271574,"Delta":60731351},{"NoteNumber":55,"Velocity":63,"Duration":78565,"SoundDuration":78565,"Delta":61093451},{"NoteNumber":54,"Velocity":61,"Duration":90966,"SoundDuration":90966,"Delta":61256000},{"NoteNumber":64,"Velocity":63,"Duration":357610,"SoundDuration":357610,"Delta":61444205},{"NoteNumber":55,"Velocity":63,"Duration":357610,"SoundDuration":357610,"Delta":61444205},{"NoteNumber":67,"Velocity":71,"Duration":357610,"SoundDuration":357610,"Delta":61444205},{"NoteNumber":47,"Velocity":54,"Duration":268208,"SoundDuration":268208,"Delta":61444205},{"NoteNumber":40,"Velocity":54,"Duration":268208,"SoundDuration":268208,"Delta":61444205},{"NoteNumber":52,"Velocity":60,"Duration":268208,"SoundDuration":268208,"Delta":61444205},{"NoteNumber":54,"Velocity":64,"Duration":79460,"SoundDuration":79460,"Delta":61801816},{"NoteNumber":52,"Velocity":61,"Duration":88630,"SoundDuration":88630,"Delta":61966218},{"NoteNumber":63,"Velocity":72,"Duration":353190,"SoundDuration":353190,"Delta":62149592},{"NoteNumber":51,"Velocity":64,"Duration":353190,"SoundDuration":353190,"Delta":62149592},{"NoteNumber":59,"Velocity":64,"Duration":353190,"SoundDuration":353190,"Delta":62149592},{"NoteNumber":42,"Velocity":54,"Duration":264892,"SoundDuration":264892,"Delta":62149592},{"NoteNumber":35,"Velocity":54,"Duration":264892,"SoundDuration":264892,"Delta":62149592},{"NoteNumber":47,"Velocity":60,"Duration":264892,"SoundDuration":264892,"Delta":62149592},{"NoteNumber":47,"Velocity":61,"Duration":102170,"SoundDuration":102170,"Delta":62502782},{"NoteNumber":59,"Velocity":69,"Duration":102170,"SoundDuration":102170,"Delta":62502782},{"NoteNumber":48,"Velocity":57,"Duration":112929,"SoundDuration":112929,"Delta":62639010},{"NoteNumber":60,"Velocity":65,"Duration":112929,"SoundDuration":112929,"Delta":62639010},{"NoteNumber":47,"Velocity":67,"Duration":168455,"SoundDuration":168455,"Delta":62789582},{"NoteNumber":59,"Velocity":76,"Duration":168455,"SoundDuration":168455,"Delta":62789582},{"NoteNumber":59,"Velocity":63,"Duration":182685,"SoundDuration":182685,"Delta":63132204},{"NoteNumber":71,"Velocity":71,"Duration":182685,"SoundDuration":182685,"Delta":63132204},{"NoteNumber":57,"Velocity":66,"Duration":357611,"SoundDuration":357611,"Delta":63503767},{"NoteNumber":66,"Velocity":66,"Duration":357611,"SoundDuration":357611,"Delta":63503767},{"NoteNumber":69,"Velocity":73,"Duration":357611,"SoundDuration":357611,"Delta":63503767},{"NoteNumber":51,"Velocity":67,"Duration":268208,"SoundDuration":268208,"Delta":63503767},{"NoteNumber":39,"Velocity":60,"Duration":268208,"SoundDuration":268208,"Delta":63503767},{"NoteNumber":47,"Velocity":60,"Duration":268208,"SoundDuration":268208,"Delta":63503767},{"NoteNumber":55,"Velocity":62,"Duration":78565,"SoundDuration":78565,"Delta":63861378},{"NoteNumber":54,"Velocity":59,"Duration":90966,"SoundDuration":90966,"Delta":64023927},{"NoteNumber":64,"Velocity":63,"Duration":364431,"SoundDuration":364431,"Delta":64212133},{"NoteNumber":55,"Velocity":63,"Duration":364431,"SoundDuration":364431,"Delta":64212133},{"NoteNumber":67,"Velocity":71,"Duration":364431,"SoundDuration":364431,"Delta":64212133},{"NoteNumber":47,"Velocity":54,"Duration":273323,"SoundDuration":273323,"Delta":64212133},{"NoteNumber":40,"Velocity":54,"Duration":273323,"SoundDuration":273323,"Delta":64212133},{"NoteNumber":52,"Velocity":60,"Duration":273323,"SoundDuration":273323,"Delta":64212133},{"NoteNumber":54,"Velocity":63,"Duration":77250,"SoundDuration":77250,"Delta":64576564},{"NoteNumber":52,"Velocity":60,"Duration":79933,"SoundDuration":79933,"Delta":64736394},{"NoteNumber":71,"Velocity":72,"Duration":342622,"SoundDuration":342622,"Delta":64901774},{"NoteNumber":59,"Velocity":64,"Duration":342622,"SoundDuration":342622,"Delta":64901774},{"NoteNumber":63,"Velocity":64,"Duration":342622,"SoundDuration":342622,"Delta":64901774},{"NoteNumber":42,"Velocity":54,"Duration":256966,"SoundDuration":256966,"Delta":64901774},{"NoteNumber":35,"Velocity":54,"Duration":256966,"SoundDuration":256966,"Delta":64901774},{"NoteNumber":47,"Velocity":60,"Duration":256966,"SoundDuration":256966,"Delta":64901774},{"NoteNumber":58,"Velocity":66,"Duration":102655,"SoundDuration":102655,"Delta":65244396},{"NoteNumber":60,"Velocity":64,"Duration":116604,"SoundDuration":116604,"Delta":65381270},{"NoteNumber":59,"Velocity":72,"Duration":176922,"SoundDuration":176922,"Delta":65536742},{"NoteNumber":59,"Velocity":62,"Duration":182685,"SoundDuration":182685,"Delta":65896584},{"NoteNumber":71,"Velocity":70,"Duration":182685,"SoundDuration":182685,"Delta":65896584},{"NoteNumber":64,"Velocity":72,"Duration":362489,"SoundDuration":362489,"Delta":66268147},{"NoteNumber":71,"Velocity":72,"Duration":362489,"SoundDuration":362489,"Delta":66268147},{"NoteNumber":76,"Velocity":81,"Duration":362489,"SoundDuration":362489,"Delta":66268147},{"NoteNumber":56,"Velocity":71,"Duration":271755,"SoundDuration":271755,"Delta":66268147},{"NoteNumber":44,"Velocity":63,"Duration":271755,"SoundDuration":271755,"Delta":66268147},{"NoteNumber":52,"Velocity":63,"Duration":271755,"SoundDuration":271755,"Delta":66268147},{"NoteNumber":62,"Velocity":64,"Duration":68447,"SoundDuration":68447,"Delta":66630636},{"NoteNumber":59,"Velocity":59,"Duration":79460,"SoundDuration":79460,"Delta":66772252},{"NoteNumber":64,"Velocity":60,"Duration":338561,"SoundDuration":338561,"Delta":66936654},{"NoteNumber":60,"Velocity":60,"Duration":338561,"SoundDuration":338561,"Delta":66936654},{"NoteNumber":72,"Velocity":66,"Duration":338561,"SoundDuration":338561,"Delta":66936654},{"NoteNumber":52,"Velocity":54,"Duration":253921,"SoundDuration":253921,"Delta":66936654},{"NoteNumber":45,"Velocity":54,"Duration":253921,"SoundDuration":253921,"Delta":66936654},{"NoteNumber":57,"Velocity":61,"Duration":253921,"SoundDuration":253921,"Delta":66936654},{"NoteNumber":59,"Velocity":59,"Duration":67448,"SoundDuration":67448,"Delta":67275216},{"NoteNumber":57,"Velocity":55,"Duration":86961,"SoundDuration":86961,"Delta":67414763},{"NoteNumber":62,"Velocity":69,"Duration":372902,"SoundDuration":372902,"Delta":67594684},{"NoteNumber":69,"Velocity":69,"Duration":372902,"SoundDuration":372902,"Delta":67594684},{"NoteNumber":74,"Velocity":77,"Duration":372902,"SoundDuration":372902,"Delta":67594684},{"NoteNumber":54,"Velocity":65,"Duration":279676,"SoundDuration":279676,"Delta":67594684},{"NoteNumber":42,"Velocity":57,"Duration":279676,"SoundDuration":279676,"Delta":67594684},{"NoteNumber":50,"Velocity":57,"Duration":279676,"SoundDuration":279676,"Delta":67594684},{"NoteNumber":60,"Velocity":63,"Duration":66155,"SoundDuration":66155,"Delta":67967587},{"NoteNumber":57,"Velocity":57,"Duration":79933,"SoundDuration":79933,"Delta":68104460},{"NoteNumber":62,"Velocity":54,"Duration":354066,"SoundDuration":354066,"Delta":68269841},{"NoteNumber":59,"Velocity":54,"Duration":354066,"SoundDuration":354066,"Delta":68269841},{"NoteNumber":71,"Velocity":61,"Duration":354066,"SoundDuration":354066,"Delta":68269841},{"NoteNumber":50,"Velocity":49,"Duration":265549,"SoundDuration":265549,"Delta":68269841},{"NoteNumber":43,"Velocity":49,"Duration":265549,"SoundDuration":265549,"Delta":68269841},{"NoteNumber":55,"Velocity":55,"Duration":265549,"SoundDuration":265549,"Delta":68269841},{"NoteNumber":57,"Velocity":59,"Duration":68447,"SoundDuration":68447,"Delta":68623907},{"NoteNumber":55,"Velocity":56,"Duration":84835,"SoundDuration":84835,"Delta":68765523},{"NoteNumber":60,"Velocity":70,"Duration":344668,"SoundDuration":344668,"Delta":68941044},{"NoteNumber":67,"Velocity":70,"Duration":344668,"SoundDuration":344668,"Delta":68941044},{"NoteNumber":72,"Velocity":79,"Duration":344668,"SoundDuration":344668,"Delta":68941044},{"NoteNumber":48,"Velocity":57,"Duration":258501,"SoundDuration":258501,"Delta":68941044},{"NoteNumber":40,"Velocity":57,"Duration":258501,"SoundDuration":258501,"Delta":68941044},{"NoteNumber":52,"Velocity":64,"Duration":258501,"SoundDuration":258501,"Delta":68941044},{"NoteNumber":59,"Velocity":61,"Duration":71590,"SoundDuration":71590,"Delta":69285713},{"NoteNumber":55,"Velocity":56,"Duration":77250,"SoundDuration":77250,"Delta":69435932},{"NoteNumber":60,"Velocity":55,"Duration":338830,"SoundDuration":338830,"Delta":69595761},{"NoteNumber":57,"Velocity":55,"Duration":338830,"SoundDuration":338830,"Delta":69595761},{"NoteNumber":69,"Velocity":62,"Duration":338830,"SoundDuration":338830,"Delta":69595761},{"NoteNumber":48,"Velocity":46,"Duration":254122,"SoundDuration":254122,"Delta":69595761},{"NoteNumber":42,"Velocity":46,"Duration":254122,"SoundDuration":254122,"Delta":69595761},{"NoteNumber":54,"Velocity":52,"Duration":254122,"SoundDuration":254122,"Delta":69595761},{"NoteNumber":55,"Velocity":60,"Duration":71590,"SoundDuration":71590,"Delta":69934591},{"NoteNumber":54,"Velocity":56,"Duration":88630,"SoundDuration":88630,"Delta":70082710},{"NoteNumber":59,"Velocity":63,"Duration":349772,"SoundDuration":349772,"Delta":70266084},{"NoteNumber":66,"Velocity":63,"Duration":349772,"SoundDuration":349772,"Delta":70266084},{"NoteNumber":71,"Velocity":71,"Duration":349772,"SoundDuration":349772,"Delta":70266084},{"NoteNumber":51,"Velocity":58,"Duration":262329,"SoundDuration":262329,"Delta":70266084},{"NoteNumber":39,"Velocity":52,"Duration":262329,"SoundDuration":262329,"Delta":70266084},{"NoteNumber":47,"Velocity":52,"Duration":262329,"SoundDuration":262329,"Delta":70266084},{"NoteNumber":57,"Velocity":61,"Duration":72333,"SoundDuration":72333,"Delta":70615857},{"NoteNumber":54,"Velocity":56,"Duration":81105,"SoundDuration":81105,"Delta":70765513},{"NoteNumber":59,"Velocity":56,"Duration":326939,"SoundDuration":326939,"Delta":70933317},{"NoteNumber":55,"Velocity":56,"Duration":326939,"SoundDuration":326939,"Delta":70933317},{"NoteNumber":67,"Velocity":63,"Duration":326939,"SoundDuration":326939,"Delta":70933317},{"NoteNumber":47,"Velocity":47,"Duration":245204,"SoundDuration":245204,"Delta":70933317},{"NoteNumber":40,"Velocity":47,"Duration":245204,"SoundDuration":245204,"Delta":70933317},{"NoteNumber":52,"Velocity":54,"Duration":245204,"SoundDuration":245204,"Delta":70933317},{"NoteNumber":54,"Velocity":60,"Duration":71960,"SoundDuration":71960,"Delta":71260257},{"NoteNumber":52,"Velocity":56,"Duration":151209,"SoundDuration":151209,"Delta":71417928},{"NoteNumber":67,"Velocity":56,"Duration":358520,"SoundDuration":358520,"Delta":71619541},{"NoteNumber":55,"Velocity":50,"Duration":358520,"SoundDuration":358520,"Delta":71619541},{"NoteNumber":60,"Velocity":50,"Duration":358520,"SoundDuration":358520,"Delta":71619541},{"NoteNumber":64,"Velocity":50,"Duration":358520,"SoundDuration":358520,"Delta":71619541},{"NoteNumber":36,"Velocity":46,"Duration":269117,"SoundDuration":269117,"Delta":71619541},{"NoteNumber":48,"Velocity":52,"Duration":269117,"SoundDuration":269117,"Delta":71619541},{"NoteNumber":54,"Velocity":63,"Duration":72010,"SoundDuration":72010,"Delta":71978061},{"NoteNumber":52,"Velocity":67,"Duration":95369,"SoundDuration":95369,"Delta":72127048},{"NoteNumber":67,"Velocity":71,"Duration":344668,"SoundDuration":344668,"Delta":72324365},{"NoteNumber":61,"Velocity":63,"Duration":344668,"SoundDuration":344668,"Delta":72324365},{"NoteNumber":55,"Velocity":63,"Duration":344668,"SoundDuration":344668,"Delta":72324365},{"NoteNumber":64,"Velocity":63,"Duration":344668,"SoundDuration":344668,"Delta":72324365},{"NoteNumber":46,"Velocity":57,"Duration":258501,"SoundDuration":258501,"Delta":72324365},{"NoteNumber":34,"Velocity":51,"Duration":258501,"SoundDuration":258501,"Delta":72324365},{"NoteNumber":54,"Velocity":67,"Duration":76396,"SoundDuration":76396,"Delta":72669034},{"NoteNumber":52,"Velocity":63,"Duration":99478,"SoundDuration":99478,"Delta":72827095},{"NoteNumber":51,"Velocity":67,"Duration":371562,"SoundDuration":371562,"Delta":73032912},{"NoteNumber":59,"Velocity":67,"Duration":371562,"SoundDuration":371562,"Delta":73032912},{"NoteNumber":63,"Velocity":75,"Duration":371562,"SoundDuration":371562,"Delta":73032912},{"NoteNumber":35,"Velocity":54,"Duration":278672,"SoundDuration":278672,"Delta":73032912},{"NoteNumber":47,"Velocity":61,"Duration":278672,"SoundDuration":278672,"Delta":73032912},{"NoteNumber":52,"Velocity":57,"Duration":77681,"SoundDuration":77681,"Delta":73404475},{"NoteNumber":54,"Velocity":54,"Duration":89794,"SoundDuration":89794,"Delta":73565195},{"NoteNumber":55,"Velocity":55,"Duration":364431,"SoundDuration":364431,"Delta":73750977},{"NoteNumber":52,"Velocity":55,"Duration":364431,"SoundDuration":364431,"Delta":73750977},{"NoteNumber":64,"Velocity":62,"Duration":364431,"SoundDuration":364431,"Delta":73750977},{"NoteNumber":48,"Velocity":49,"Duration":273323,"SoundDuration":273323,"Delta":73750977},{"NoteNumber":36,"Velocity":44,"Duration":273323,"SoundDuration":273323,"Delta":73750977},{"NoteNumber":54,"Velocity":55,"Duration":74336,"SoundDuration":74336,"Delta":74115408},{"NoteNumber":55,"Velocity":55,"Duration":93427,"SoundDuration":93427,"Delta":74269207},{"NoteNumber":60,"Velocity":67,"Duration":332919,"SoundDuration":332919,"Delta":74462506},{"NoteNumber":53,"Velocity":60,"Duration":338561,"SoundDuration":338561,"Delta":74462506},{"NoteNumber":33,"Velocity":50,"Duration":253921,"SoundDuration":253921,"Delta":74462506},{"NoteNumber":45,"Velocity":56,"Duration":253921,"SoundDuration":253921,"Delta":74462506},{"NoteNumber":65,"Velocity":47,"Duration":77250,"SoundDuration":77250,"Delta":74801068},{"NoteNumber":69,"Velocity":54,"Duration":77250,"SoundDuration":77250,"Delta":74801068},{"NoteNumber":60,"Velocity":49,"Duration":77250,"SoundDuration":77250,"Delta":74801068},{"NoteNumber":60,"Velocity":45,"Duration":96026,"SoundDuration":96026,"Delta":74960898},{"NoteNumber":65,"Velocity":51,"Duration":96026,"SoundDuration":96026,"Delta":74960898},{"NoteNumber":57,"Velocity":49,"Duration":96026,"SoundDuration":96026,"Delta":74960898},{"NoteNumber":55,"Velocity":57,"Duration":317886,"SoundDuration":317886,"Delta":75159573},{"NoteNumber":59,"Velocity":57,"Duration":317886,"SoundDuration":317886,"Delta":75159573},{"NoteNumber":64,"Velocity":65,"Duration":317886,"SoundDuration":317886,"Delta":75159573},{"NoteNumber":35,"Velocity":51,"Duration":317886,"SoundDuration":317886,"Delta":75159573},{"NoteNumber":47,"Velocity":57,"Duration":317886,"SoundDuration":317886,"Delta":75159573},{"NoteNumber":59,"Velocity":54,"Duration":124591,"SoundDuration":124591,"Delta":75583422},{"NoteNumber":66,"Velocity":60,"Duration":124591,"SoundDuration":124591,"Delta":75583422},{"NoteNumber":57,"Velocity":54,"Duration":124591,"SoundDuration":124591,"Delta":75583422},{"NoteNumber":59,"Velocity":50,"Duration":158931,"SoundDuration":158931,"Delta":75841198},{"NoteNumber":63,"Velocity":56,"Duration":158931,"SoundDuration":158931,"Delta":75841198},{"NoteNumber":54,"Velocity":51,"Duration":158931,"SoundDuration":158931,"Delta":75841198},{"NoteNumber":55,"Velocity":62,"Duration":1346498,"SoundDuration":1346498,"Delta":76159062},{"NoteNumber":59,"Velocity":62,"Duration":1346498,"SoundDuration":1346498,"Delta":76159062},{"NoteNumber":64,"Velocity":70,"Duration":1346498,"SoundDuration":1346498,"Delta":76159062},{"NoteNumber":40,"Velocity":60,"Duration":1346498,"SoundDuration":1346498,"Delta":76159062},{"NoteNumber":52,"Velocity":67,"Duration":1346498,"SoundDuration":1346498,"Delta":76159062},{"NoteNumber":92,"Velocity":37,"Duration":166010,"SoundDuration":166010,"Delta":78179852},{"NoteNumber":95,"Velocity":43,"Duration":166010,"SoundDuration":166010,"Delta":78179852},{"NoteNumber":90,"Velocity":35,"Duration":166010,"SoundDuration":166010,"Delta":78348676},{"NoteNumber":93,"Velocity":39,"Duration":166010,"SoundDuration":166010,"Delta":78348676},{"NoteNumber":88,"Velocity":42,"Duration":333333,"SoundDuration":333333,"Delta":78517500},{"NoteNumber":92,"Velocity":46,"Duration":333333,"SoundDuration":333333,"Delta":78517500},{"NoteNumber":52,"Velocity":34,"Duration":683546,"SoundDuration":683546,"Delta":78517500},{"NoteNumber":59,"Velocity":37,"Duration":171014,"SoundDuration":171014,"Delta":78517500},{"NoteNumber":64,"Velocity":35,"Duration":171014,"SoundDuration":171014,"Delta":78691413},{"NoteNumber":88,"Velocity":34,"Duration":165062,"SoundDuration":165062,"Delta":78865326},{"NoteNumber":92,"Velocity":37,"Duration":165062,"SoundDuration":165062,"Delta":78865326},{"NoteNumber":71,"Velocity":32,"Duration":321732,"SoundDuration":321732,"Delta":78865326},{"NoteNumber":83,"Velocity":31,"Duration":165062,"SoundDuration":165062,"Delta":79033186},{"NoteNumber":90,"Velocity":35,"Duration":165062,"SoundDuration":165062,"Delta":79033186},{"NoteNumber":80,"Velocity":36,"Duration":331335,"SoundDuration":331335,"Delta":79201046},{"NoteNumber":88,"Velocity":41,"Duration":331335,"SoundDuration":331335,"Delta":79201046},{"NoteNumber":64,"Velocity":37,"Duration":169989,"SoundDuration":169989,"Delta":79201046},{"NoteNumber":71,"Velocity":37,"Duration":679482,"SoundDuration":679482,"Delta":79201046},{"NoteNumber":59,"Velocity":36,"Duration":169989,"SoundDuration":169989,"Delta":79373917},{"NoteNumber":83,"Velocity":42,"Duration":164089,"SoundDuration":164089,"Delta":79546788},{"NoteNumber":80,"Velocity":36,"Duration":164089,"SoundDuration":164089,"Delta":79546788},{"NoteNumber":52,"Velocity":35,"Duration":319835,"SoundDuration":319835,"Delta":79546788},{"NoteNumber":78,"Velocity":34,"Duration":164089,"SoundDuration":164089,"Delta":79713658},{"NoteNumber":81,"Velocity":37,"Duration":164089,"SoundDuration":164089,"Delta":79713658},{"NoteNumber":76,"Velocity":40,"Duration":331335,"SoundDuration":331335,"Delta":79880529},{"NoteNumber":80,"Velocity":45,"Duration":331335,"SoundDuration":331335,"Delta":79880529},{"NoteNumber":52,"Velocity":32,"Duration":679482,"SoundDuration":679482,"Delta":79880529},{"NoteNumber":59,"Velocity":36,"Duration":169989,"SoundDuration":169989,"Delta":79880529},{"NoteNumber":64,"Velocity":35,"Duration":169989,"SoundDuration":169989,"Delta":80053400},{"NoteNumber":76,"Velocity":34,"Duration":164089,"SoundDuration":164089,"Delta":80226270},{"NoteNumber":80,"Velocity":37,"Duration":164089,"SoundDuration":164089,"Delta":80226270},{"NoteNumber":71,"Velocity":35,"Duration":319835,"SoundDuration":319835,"Delta":80226270},{"NoteNumber":71,"Velocity":31,"Duration":164089,"SoundDuration":164089,"Delta":80393141},{"NoteNumber":78,"Velocity":35,"Duration":164089,"SoundDuration":164089,"Delta":80393141},{"NoteNumber":68,"Velocity":36,"Duration":329361,"SoundDuration":329361,"Delta":80560011},{"NoteNumber":76,"Velocity":42,"Duration":329361,"SoundDuration":329361,"Delta":80560011},{"NoteNumber":64,"Velocity":36,"Duration":168976,"SoundDuration":168976,"Delta":80560011},{"NoteNumber":71,"Velocity":36,"Duration":682053,"SoundDuration":682053,"Delta":80560011},{"NoteNumber":59,"Velocity":35,"Duration":168976,"SoundDuration":168976,"Delta":80731852},{"NoteNumber":68,"Velocity":36,"Duration":160378,"SoundDuration":160378,"Delta":80903693},{"NoteNumber":76,"Velocity":42,"Duration":160378,"SoundDuration":160378,"Delta":80903693},{"NoteNumber":52,"Velocity":35,"Duration":323765,"SoundDuration":323765,"Delta":80903693},{"NoteNumber":71,"Velocity":34,"Duration":172353,"SoundDuration":172353,"Delta":81066790},{"NoteNumber":78,"Velocity":37,"Duration":172353,"SoundDuration":172353,"Delta":81066790},{"NoteNumber":76,"Velocity":40,"Duration":327411,"SoundDuration":327411,"Delta":81242065},{"NoteNumber":80,"Velocity":45,"Duration":327411,"SoundDuration":327411,"Delta":81242065},{"NoteNumber":52,"Velocity":36,"Duration":167976,"SoundDuration":167976,"Delta":81242065},{"NoteNumber":59,"Velocity":32,"Duration":327411,"SoundDuration":327411,"Delta":81242065},{"NoteNumber":64,"Velocity":33,"Duration":167976,"SoundDuration":167976,"Delta":81412888},{"NoteNumber":71,"Velocity":37,"Duration":160378,"SoundDuration":160378,"Delta":81583711},{"NoteNumber":78,"Velocity":43,"Duration":160378,"SoundDuration":160378,"Delta":81583711},{"NoteNumber":76,"Velocity":35,"Duration":170028,"SoundDuration":170028,"Delta":81746808},{"NoteNumber":80,"Velocity":39,"Duration":170028,"SoundDuration":170028,"Delta":81746808},{"NoteNumber":78,"Velocity":43,"Duration":325484,"SoundDuration":325484,"Delta":81919719},{"NoteNumber":81,"Velocity":47,"Duration":325484,"SoundDuration":325484,"Delta":81919719},{"NoteNumber":71,"Velocity":36,"Duration":325484,"SoundDuration":325484,"Delta":81919719},{"NoteNumber":63,"Velocity":32,"Duration":325484,"SoundDuration":325484,"Delta":81919719},{"NoteNumber":59,"Velocity":36,"Duration":166987,"SoundDuration":166987,"Delta":82089536},{"NoteNumber":71,"Velocity":40,"Duration":160378,"SoundDuration":160378,"Delta":82259354},{"NoteNumber":78,"Velocity":45,"Duration":160378,"SoundDuration":160378,"Delta":82259354},{"NoteNumber":78,"Velocity":36,"Duration":170028,"SoundDuration":170028,"Delta":82422451},{"NoteNumber":81,"Velocity":42,"Duration":170028,"SoundDuration":170028,"Delta":82422451},{"NoteNumber":80,"Velocity":44,"Duration":325484,"SoundDuration":325484,"Delta":82595362},{"NoteNumber":83,"Velocity":50,"Duration":325484,"SoundDuration":325484,"Delta":82595362},{"NoteNumber":52,"Velocity":31,"Duration":325484,"SoundDuration":325484,"Delta":82595362},{"NoteNumber":59,"Velocity":35,"Duration":325484,"SoundDuration":325484,"Delta":82595362},{"NoteNumber":64,"Velocity":33,"Duration":166987,"SoundDuration":166987,"Delta":82765179},{"NoteNumber":78,"Velocity":35,"Duration":159476,"SoundDuration":159476,"Delta":82934997},{"NoteNumber":81,"Velocity":39,"Duration":159476,"SoundDuration":159476,"Delta":82934997},{"NoteNumber":76,"Velocity":33,"Duration":166010,"SoundDuration":166010,"Delta":83097177},{"NoteNumber":80,"Velocity":36,"Duration":166010,"SoundDuration":166010,"Delta":83097177},{"NoteNumber":71,"Velocity":39,"Duration":327411,"SoundDuration":327411,"Delta":83266001},{"NoteNumber":78,"Velocity":44,"Duration":327411,"SoundDuration":327411,"Delta":83266001},{"NoteNumber":63,"Velocity":31,"Duration":327411,"SoundDuration":327411,"Delta":83266001},{"NoteNumber":66,"Velocity":35,"Duration":327411,"SoundDuration":327411,"Delta":83266001},{"NoteNumber":59,"Velocity":33,"Duration":167976,"SoundDuration":167976,"Delta":83436824},{"NoteNumber":92,"Velocity":37,"Duration":166010,"SoundDuration":166010,"Delta":83607647},{"NoteNumber":95,"Velocity":43,"Duration":166010,"SoundDuration":166010,"Delta":83607647},{"NoteNumber":90,"Velocity":35,"Duration":166010,"SoundDuration":166010,"Delta":83776471},{"NoteNumber":93,"Velocity":39,"Duration":166010,"SoundDuration":166010,"Delta":83776471},{"NoteNumber":88,"Velocity":42,"Duration":333333,"SoundDuration":333333,"Delta":83945295},{"NoteNumber":92,"Velocity":46,"Duration":333333,"SoundDuration":333333,"Delta":83945295},{"NoteNumber":52,"Velocity":34,"Duration":683546,"SoundDuration":683546,"Delta":83945295},{"NoteNumber":59,"Velocity":37,"Duration":171014,"SoundDuration":171014,"Delta":83945295},{"NoteNumber":64,"Velocity":35,"Duration":171014,"SoundDuration":171014,"Delta":84119208},{"NoteNumber":88,"Velocity":34,"Duration":165062,"SoundDuration":165062,"Delta":84293121},{"NoteNumber":92,"Velocity":37,"Duration":165062,"SoundDuration":165062,"Delta":84293121},{"NoteNumber":71,"Velocity":32,"Duration":321732,"SoundDuration":321732,"Delta":84293121},{"NoteNumber":83,"Velocity":32,"Duration":165062,"SoundDuration":165062,"Delta":84460981},{"NoteNumber":90,"Velocity":36,"Duration":165062,"SoundDuration":165062,"Delta":84460981},{"NoteNumber":80,"Velocity":41,"Duration":331335,"SoundDuration":331335,"Delta":84628841},{"NoteNumber":88,"Velocity":41,"Duration":331335,"SoundDuration":331335,"Delta":84628841},{"NoteNumber":64,"Velocity":37,"Duration":169989,"SoundDuration":169989,"Delta":84628841},{"NoteNumber":71,"Velocity":37,"Duration":676510,"SoundDuration":676510,"Delta":84628841},{"NoteNumber":59,"Velocity":35,"Duration":169989,"SoundDuration":169989,"Delta":84801712},{"NoteNumber":83,"Velocity":42,"Duration":160745,"SoundDuration":160745,"Delta":84974583},{"NoteNumber":80,"Velocity":36,"Duration":160745,"SoundDuration":160745,"Delta":84974583},{"NoteNumber":52,"Velocity":35,"Duration":316827,"SoundDuration":316827,"Delta":84974583},{"NoteNumber":78,"Velocity":35,"Duration":164510,"SoundDuration":164510,"Delta":85138053},{"NoteNumber":81,"Velocity":39,"Duration":164510,"SoundDuration":164510,"Delta":85138053},{"NoteNumber":76,"Velocity":40,"Duration":329361,"SoundDuration":329361,"Delta":85305351},{"NoteNumber":80,"Velocity":45,"Duration":329361,"SoundDuration":329361,"Delta":85305351},{"NoteNumber":52,"Velocity":32,"Duration":668958,"SoundDuration":668958,"Delta":85305351},{"NoteNumber":59,"Velocity":36,"Duration":168976,"SoundDuration":168976,"Delta":85305351},{"NoteNumber":64,"Velocity":35,"Duration":168976,"SoundDuration":168976,"Delta":85477192},{"NoteNumber":76,"Velocity":34,"Duration":159476,"SoundDuration":159476,"Delta":85649033},{"NoteNumber":80,"Velocity":37,"Duration":159476,"SoundDuration":159476,"Delta":85649033},{"NoteNumber":71,"Velocity":35,"Duration":311685,"SoundDuration":311685,"Delta":85649033},{"NoteNumber":71,"Velocity":30,"Duration":160378,"SoundDuration":160378,"Delta":85811213},{"NoteNumber":78,"Velocity":34,"Duration":160378,"SoundDuration":160378,"Delta":85811213},{"NoteNumber":68,"Velocity":36,"Duration":325484,"SoundDuration":325484,"Delta":85974310},{"NoteNumber":76,"Velocity":42,"Duration":325484,"SoundDuration":325484,"Delta":85974310},{"NoteNumber":64,"Velocity":36,"Duration":166987,"SoundDuration":166987,"Delta":85974310},{"NoteNumber":71,"Velocity":36,"Duration":665839,"SoundDuration":665839,"Delta":85974310},{"NoteNumber":59,"Velocity":35,"Duration":166987,"SoundDuration":166987,"Delta":86144128},{"NoteNumber":68,"Velocity":36,"Duration":159476,"SoundDuration":159476,"Delta":86313945},{"NoteNumber":76,"Velocity":42,"Duration":159476,"SoundDuration":159476,"Delta":86313945},{"NoteNumber":52,"Velocity":35,"Duration":312535,"SoundDuration":312535,"Delta":86313945},{"NoteNumber":71,"Velocity":34,"Duration":161290,"SoundDuration":161290,"Delta":86476125},{"NoteNumber":78,"Velocity":37,"Duration":161290,"SoundDuration":161290,"Delta":86476125},{"NoteNumber":76,"Velocity":40,"Duration":325484,"SoundDuration":325484,"Delta":86640149},{"NoteNumber":80,"Velocity":45,"Duration":325484,"SoundDuration":325484,"Delta":86640149},{"NoteNumber":52,"Velocity":36,"Duration":166987,"SoundDuration":166987,"Delta":86640149},{"NoteNumber":59,"Velocity":32,"Duration":325484,"SoundDuration":325484,"Delta":86640149},{"NoteNumber":64,"Velocity":33,"Duration":166987,"SoundDuration":166987,"Delta":86809967},{"NoteNumber":78,"Velocity":39,"Duration":163163,"SoundDuration":163163,"Delta":86979785},{"NoteNumber":81,"Velocity":44,"Duration":163163,"SoundDuration":163163,"Delta":86979785},{"NoteNumber":76,"Velocity":35,"Duration":170028,"SoundDuration":170028,"Delta":87145714},{"NoteNumber":80,"Velocity":39,"Duration":170028,"SoundDuration":170028,"Delta":87145714},{"NoteNumber":71,"Velocity":36,"Duration":316177,"SoundDuration":316177,"Delta":87318625},{"NoteNumber":78,"Velocity":41,"Duration":316177,"SoundDuration":316177,"Delta":87318625},{"NoteNumber":69,"Velocity":36,"Duration":316177,"SoundDuration":316177,"Delta":87318625},{"NoteNumber":63,"Velocity":32,"Duration":316177,"SoundDuration":316177,"Delta":87318625},{"NoteNumber":59,"Velocity":33,"Duration":162212,"SoundDuration":162212,"Delta":87483587},{"NoteNumber":76,"Velocity":40,"Duration":169989,"SoundDuration":169989,"Delta":87648549},{"NoteNumber":80,"Velocity":45,"Duration":169989,"SoundDuration":169989,"Delta":87648549},{"NoteNumber":71,"Velocity":34,"Duration":177411,"SoundDuration":177411,"Delta":87821419},{"NoteNumber":78,"Velocity":37,"Duration":177411,"SoundDuration":177411,"Delta":87821419},{"NoteNumber":68,"Velocity":35,"Duration":739417,"SoundDuration":739417,"Delta":88001838},{"NoteNumber":76,"Velocity":39,"Duration":739417,"SoundDuration":739417,"Delta":88001838},{"NoteNumber":52,"Velocity":39,"Duration":172595,"SoundDuration":172595,"Delta":88001838},{"NoteNumber":59,"Velocity":32,"Duration":176922,"SoundDuration":176922,"Delta":88177359},{"NoteNumber":68,"Velocity":34,"Duration":188787,"SoundDuration":188787,"Delta":88357279},{"NoteNumber":64,"Velocity":32,"Duration":188787,"SoundDuration":188787,"Delta":88549267},{"NoteNumber":71,"Velocity":39,"Duration":375130,"SoundDuration":375130,"Delta":88741255},{"NoteNumber":56,"Velocity":60,"Duration":84835,"SoundDuration":84835,"Delta":89132695},{"NoteNumber":64,"Velocity":66,"Duration":84835,"SoundDuration":84835,"Delta":89132695},{"NoteNumber":64,"Velocity":55,"Duration":89208,"SoundDuration":89208,"Delta":89308216},{"NoteNumber":68,"Velocity":63,"Duration":89208,"SoundDuration":89208,"Delta":89308216},{"NoteNumber":59,"Velocity":65,"Duration":315946,"SoundDuration":315946,"Delta":89492786},{"NoteNumber":66,"Velocity":73,"Duration":315946,"SoundDuration":315946,"Delta":89492786},{"NoteNumber":64,"Velocity":60,"Duration":75971,"SoundDuration":75971,"Delta":89837455},{"NoteNumber":68,"Velocity":66,"Duration":75971,"SoundDuration":75971,"Delta":89837455},{"NoteNumber":66,"Velocity":57,"Duration":78565,"SoundDuration":78565,"Delta":89994638},{"NoteNumber":69,"Velocity":64,"Duration":78565,"SoundDuration":78565,"Delta":89994638},{"NoteNumber":68,"Velocity":63,"Duration":306714,"SoundDuration":306714,"Delta":90157187},{"NoteNumber":71,"Velocity":72,"Duration":306714,"SoundDuration":306714,"Delta":90157187},{"NoteNumber":69,"Velocity":62,"Duration":74742,"SoundDuration":74742,"Delta":90491785},{"NoteNumber":73,"Velocity":69,"Duration":74742,"SoundDuration":74742,"Delta":90491785},{"NoteNumber":68,"Velocity":57,"Duration":78565,"SoundDuration":78565,"Delta":90646424},{"NoteNumber":71,"Velocity":64,"Duration":78565,"SoundDuration":78565,"Delta":90646424},{"NoteNumber":66,"Velocity":66,"Duration":312180,"SoundDuration":312180,"Delta":90808973},{"NoteNumber":69,"Velocity":74,"Duration":312180,"SoundDuration":312180,"Delta":90808973},{"NoteNumber":64,"Velocity":61,"Duration":73941,"SoundDuration":73941,"Delta":91149534},{"NoteNumber":68,"Velocity":67,"Duration":73941,"SoundDuration":73941,"Delta":91149534},{"NoteNumber":66,"Velocity":56,"Duration":78565,"SoundDuration":78565,"Delta":91302517},{"NoteNumber":69,"Velocity":63,"Duration":78565,"SoundDuration":78565,"Delta":91302517},{"NoteNumber":59,"Velocity":66,"Duration":322732,"SoundDuration":322732,"Delta":91465066},{"NoteNumber":66,"Velocity":74,"Duration":322732,"SoundDuration":322732,"Delta":91465066},{"NoteNumber":56,"Velocity":60,"Duration":79010,"SoundDuration":79010,"Delta":91814436},{"NoteNumber":64,"Velocity":66,"Duration":79010,"SoundDuration":79010,"Delta":91814436},{"NoteNumber":64,"Velocity":56,"Duration":81819,"SoundDuration":81819,"Delta":91977906},{"NoteNumber":68,"Velocity":63,"Duration":81819,"SoundDuration":81819,"Delta":91977906},{"NoteNumber":59,"Velocity":65,"Duration":315946,"SoundDuration":315946,"Delta":92147187},{"NoteNumber":66,"Velocity":73,"Duration":315946,"SoundDuration":315946,"Delta":92147187},{"NoteNumber":64,"Velocity":60,"Duration":73941,"SoundDuration":73941,"Delta":92491856},{"NoteNumber":68,"Velocity":66,"Duration":73941,"SoundDuration":73941,"Delta":92491856},{"NoteNumber":66,"Velocity":56,"Duration":80861,"SoundDuration":80861,"Delta":92644839},{"NoteNumber":69,"Velocity":63,"Duration":80861,"SoundDuration":80861,"Delta":92644839},{"NoteNumber":68,"Velocity":63,"Duration":301402,"SoundDuration":301402,"Delta":92812138},{"NoteNumber":71,"Velocity":72,"Duration":301402,"SoundDuration":301402,"Delta":92812138},{"NoteNumber":69,"Velocity":63,"Duration":77250,"SoundDuration":77250,"Delta":93140941},{"NoteNumber":73,"Velocity":72,"Duration":77250,"SoundDuration":77250,"Delta":93140941},{"NoteNumber":68,"Velocity":62,"Duration":82800,"SoundDuration":82800,"Delta":93300771},{"NoteNumber":71,"Velocity":69,"Duration":82800,"SoundDuration":82800,"Delta":93300771},{"NoteNumber":66,"Velocity":66,"Duration":377332,"SoundDuration":377332,"Delta":93472082},{"NoteNumber":69,"Velocity":74,"Duration":377332,"SoundDuration":377332,"Delta":93472082},{"NoteNumber":64,"Velocity":60,"Duration":122362,"SoundDuration":122362,"Delta":93883717},{"NoteNumber":68,"Velocity":66,"Duration":122362,"SoundDuration":122362,"Delta":93883717},{"NoteNumber":66,"Velocity":55,"Duration":141105,"SoundDuration":141105,"Delta":94136882},{"NoteNumber":69,"Velocity":63,"Duration":141105,"SoundDuration":141105,"Delta":94136882},{"NoteNumber":59,"Velocity":57,"Duration":766348,"SoundDuration":766348,"Delta":94428824},{"NoteNumber":66,"Velocity":64,"Duration":766348,"SoundDuration":766348,"Delta":94428824},{"NoteNumber":92,"Velocity":37,"Duration":162623,"SoundDuration":162623,"Delta":95450623},{"NoteNumber":95,"Velocity":43,"Duration":162623,"SoundDuration":162623,"Delta":95450623},{"NoteNumber":90,"Velocity":35,"Duration":162623,"SoundDuration":162623,"Delta":95616003},{"NoteNumber":93,"Velocity":39,"Duration":162623,"SoundDuration":162623,"Delta":95616003},{"NoteNumber":88,"Velocity":42,"Duration":328346,"SoundDuration":328346,"Delta":95781383},{"NoteNumber":92,"Velocity":46,"Duration":328346,"SoundDuration":328346,"Delta":95781383},{"NoteNumber":52,"Velocity":34,"Duration":671424,"SoundDuration":671424,"Delta":95781383},{"NoteNumber":59,"Velocity":37,"Duration":168455,"SoundDuration":168455,"Delta":95781383},{"NoteNumber":64,"Velocity":34,"Duration":168455,"SoundDuration":168455,"Delta":95952694},{"NoteNumber":88,"Velocity":34,"Duration":161661,"SoundDuration":161661,"Delta":96124005},{"NoteNumber":92,"Velocity":37,"Duration":161661,"SoundDuration":161661,"Delta":96124005},{"NoteNumber":71,"Velocity":32,"Duration":315102,"SoundDuration":315102,"Delta":96124005},{"NoteNumber":83,"Velocity":31,"Duration":161661,"SoundDuration":161661,"Delta":96288407},{"NoteNumber":90,"Velocity":35,"Duration":161661,"SoundDuration":161661,"Delta":96288407},{"NoteNumber":80,"Velocity":36,"Duration":328346,"SoundDuration":328346,"Delta":96452808},{"NoteNumber":88,"Velocity":41,"Duration":328346,"SoundDuration":328346,"Delta":96452808},{"NoteNumber":64,"Velocity":37,"Duration":168455,"SoundDuration":168455,"Delta":96452808},{"NoteNumber":71,"Velocity":37,"Duration":669561,"SoundDuration":669561,"Delta":96452808},{"NoteNumber":59,"Velocity":34,"Duration":168455,"SoundDuration":168455,"Delta":96624119},{"NoteNumber":83,"Velocity":42,"Duration":160745,"SoundDuration":160745,"Delta":96795430},{"NoteNumber":80,"Velocity":36,"Duration":160745,"SoundDuration":160745,"Delta":96795430},{"NoteNumber":52,"Velocity":35,"Duration":313317,"SoundDuration":313317,"Delta":96795430},{"NoteNumber":78,"Velocity":34,"Duration":160745,"SoundDuration":160745,"Delta":96958900},{"NoteNumber":81,"Velocity":37,"Duration":160745,"SoundDuration":160745,"Delta":96958900},{"NoteNumber":76,"Velocity":40,"Duration":328346,"SoundDuration":328346,"Delta":97122370},{"NoteNumber":80,"Velocity":45,"Duration":328346,"SoundDuration":328346,"Delta":97122370},{"NoteNumber":52,"Velocity":32,"Duration":669561,"SoundDuration":669561,"Delta":97122370},{"NoteNumber":59,"Velocity":36,"Duration":168455,"SoundDuration":168455,"Delta":97122370},{"NoteNumber":64,"Velocity":35,"Duration":168455,"SoundDuration":168455,"Delta":97293681},{"NoteNumber":76,"Velocity":34,"Duration":160745,"SoundDuration":160745,"Delta":97464992},{"NoteNumber":80,"Velocity":37,"Duration":160745,"SoundDuration":160745,"Delta":97464992},{"NoteNumber":71,"Velocity":35,"Duration":313317,"SoundDuration":313317,"Delta":97464992},{"NoteNumber":71,"Velocity":36,"Duration":160745,"SoundDuration":160745,"Delta":97628462},{"NoteNumber":78,"Velocity":36,"Duration":160745,"SoundDuration":160745,"Delta":97628462},{"NoteNumber":68,"Velocity":36,"Duration":322562,"SoundDuration":322562,"Delta":97791932},{"NoteNumber":76,"Velocity":42,"Duration":322562,"SoundDuration":322562,"Delta":97791932},{"NoteNumber":64,"Velocity":36,"Duration":165488,"SoundDuration":165488,"Delta":97791932},{"NoteNumber":71,"Velocity":36,"Duration":694198,"SoundDuration":694198,"Delta":97791932},{"NoteNumber":59,"Velocity":35,"Duration":165488,"SoundDuration":165488,"Delta":97960226},{"NoteNumber":56,"Velocity":36,"Duration":86422,"SoundDuration":86422,"Delta":98128519},{"NoteNumber":64,"Velocity":42,"Duration":86422,"SoundDuration":86422,"Delta":98128519},{"NoteNumber":52,"Velocity":35,"Duration":342710,"SoundDuration":342710,"Delta":98128519},{"NoteNumber":59,"Velocity":34,"Duration":86422,"SoundDuration":86422,"Delta":98307325},{"NoteNumber":66,"Velocity":37,"Duration":86422,"SoundDuration":86422,"Delta":98307325},{"NoteNumber":64,"Velocity":40,"Duration":360727,"SoundDuration":360727,"Delta":98486130},{"NoteNumber":68,"Velocity":45,"Duration":360727,"SoundDuration":360727,"Delta":98486130},{"NoteNumber":66,"Velocity":36,"Duration":101683,"SoundDuration":101683,"Delta":98862542},{"NoteNumber":69,"Velocity":42,"Duration":101683,"SoundDuration":101683,"Delta":98862542},{"NoteNumber":64,"Velocity":32,"Duration":101683,"SoundDuration":101683,"Delta":99072920},{"NoteNumber":68,"Velocity":36,"Duration":101683,"SoundDuration":101683,"Delta":99072920},{"NoteNumber":59,"Velocity":33,"Duration":445805,"SoundDuration":445805,"Delta":99283818},{"NoteNumber":66,"Velocity":36,"Duration":445805,"SoundDuration":445805,"Delta":99283818},{"NoteNumber":64,"Velocity":36,"Duration":138279,"SoundDuration":138279,"Delta":99749007},{"NoteNumber":68,"Velocity":41,"Duration":138279,"SoundDuration":138279,"Delta":99749007},{"NoteNumber":59,"Velocity":31,"Duration":194787,"SoundDuration":194787,"Delta":100035102},{"NoteNumber":66,"Velocity":35,"Duration":194787,"SoundDuration":194787,"Delta":100035102},{"NoteNumber":56,"Velocity":32,"Duration":894054,"SoundDuration":894054,"Delta":100438112},{"NoteNumber":64,"Velocity":36,"Duration":894054,"SoundDuration":894054,"Delta":100438112},{"NoteNumber":64,"Velocity":71,"Duration":219788,"SoundDuration":219788,"Delta":101779194},{"NoteNumber":76,"Velocity":79,"Duration":219788,"SoundDuration":219788,"Delta":101779194},{"NoteNumber":40,"Velocity":71,"Duration":219788,"SoundDuration":219788,"Delta":101779194},{"NoteNumber":52,"Velocity":71,"Duration":219788,"SoundDuration":219788,"Delta":101779194},{"NoteNumber":69,"Velocity":79,"Duration":1100244,"SoundDuration":1100244,"Delta":102226222},{"NoteNumber":81,"Velocity":87,"Duration":1100244,"SoundDuration":1100244,"Delta":102226222},{"NoteNumber":45,"Velocity":77,"Duration":1100244,"SoundDuration":1100244,"Delta":102226222},{"NoteNumber":57,"Velocity":77,"Duration":1100244,"SoundDuration":1100244,"Delta":102226222},{"NoteNumber":64,"Velocity":72,"Duration":186985,"SoundDuration":186985,"Delta":103326466},{"NoteNumber":76,"Velocity":81,"Duration":186985,"SoundDuration":186985,"Delta":103326466},{"NoteNumber":40,"Velocity":72,"Duration":186985,"SoundDuration":186985,"Delta":103326466},{"NoteNumber":52,"Velocity":72,"Duration":186985,"SoundDuration":186985,"Delta":103326466},{"NoteNumber":60,"Velocity":79,"Duration":381436,"SoundDuration":381436,"Delta":103700437},{"NoteNumber":72,"Velocity":87,"Duration":381436,"SoundDuration":381436,"Delta":103700437},{"NoteNumber":36,"Velocity":79,"Duration":381436,"SoundDuration":381436,"Delta":103700437},{"NoteNumber":48,"Velocity":79,"Duration":381436,"SoundDuration":381436,"Delta":103700437},{"NoteNumber":57,"Velocity":74,"Duration":447027,"SoundDuration":447027,"Delta":104081874},{"NoteNumber":69,"Velocity":83,"Duration":447027,"SoundDuration":447027,"Delta":104081874},{"NoteNumber":33,"Velocity":75,"Duration":447027,"SoundDuration":447027,"Delta":104081874},{"NoteNumber":45,"Velocity":75,"Duration":447027,"SoundDuration":447027,"Delta":104081874},{"NoteNumber":57,"Velocity":43,"Duration":46810,"SoundDuration":46810,"Delta":104946809},{"NoteNumber":48,"Velocity":36,"Duration":46810,"SoundDuration":46810,"Delta":104946809},{"NoteNumber":59,"Velocity":43,"Duration":46641,"SoundDuration":46641,"Delta":104991028},{"NoteNumber":50,"Velocity":36,"Duration":46641,"SoundDuration":46641,"Delta":104991028},{"NoteNumber":60,"Velocity":43,"Duration":46607,"SoundDuration":46607,"Delta":105035079},{"NoteNumber":52,"Velocity":36,"Duration":46607,"SoundDuration":46607,"Delta":105035079},{"NoteNumber":62,"Velocity":43,"Duration":46391,"SoundDuration":46391,"Delta":105079109},{"NoteNumber":53,"Velocity":37,"Duration":46391,"SoundDuration":46391,"Delta":105079109},{"NoteNumber":64,"Velocity":45,"Duration":46391,"SoundDuration":46391,"Delta":105122923},{"NoteNumber":55,"Velocity":38,"Duration":46391,"SoundDuration":46391,"Delta":105122923},{"NoteNumber":65,"Velocity":45,"Duration":46174,"SoundDuration":46174,"Delta":105166738},{"NoteNumber":57,"Velocity":38,"Duration":46174,"SoundDuration":46174,"Delta":105166738},{"NoteNumber":67,"Velocity":45,"Duration":46044,"SoundDuration":46044,"Delta":105210349},{"NoteNumber":59,"Velocity":40,"Duration":46044,"SoundDuration":46044,"Delta":105210349},{"NoteNumber":69,"Velocity":45,"Duration":45894,"SoundDuration":45894,"Delta":105256394},{"NoteNumber":60,"Velocity":41,"Duration":45894,"SoundDuration":45894,"Delta":105256394},{"NoteNumber":71,"Velocity":45,"Duration":45841,"SoundDuration":45841,"Delta":105299739},{"NoteNumber":62,"Velocity":41,"Duration":45841,"SoundDuration":45841,"Delta":105299739},{"NoteNumber":72,"Velocity":45,"Duration":45652,"SoundDuration":45652,"Delta":105343044},{"NoteNumber":64,"Velocity":41,"Duration":45652,"SoundDuration":45652,"Delta":105343044},{"NoteNumber":74,"Velocity":45,"Duration":45646,"SoundDuration":45646,"Delta":105386160},{"NoteNumber":65,"Velocity":41,"Duration":45646,"SoundDuration":45646,"Delta":105386160},{"NoteNumber":76,"Velocity":47,"Duration":45415,"SoundDuration":45415,"Delta":105429277},{"NoteNumber":67,"Velocity":42,"Duration":45415,"SoundDuration":45415,"Delta":105429277},{"NoteNumber":77,"Velocity":48,"Duration":45408,"SoundDuration":45408,"Delta":105472169},{"NoteNumber":69,"Velocity":43,"Duration":45408,"SoundDuration":45408,"Delta":105472169},{"NoteNumber":79,"Velocity":48,"Duration":45230,"SoundDuration":45230,"Delta":105515055},{"NoteNumber":71,"Velocity":43,"Duration":45230,"SoundDuration":45230,"Delta":105515055},{"NoteNumber":81,"Velocity":47,"Duration":45091,"SoundDuration":45091,"Delta":105560286},{"NoteNumber":72,"Velocity":42,"Duration":45091,"SoundDuration":45091,"Delta":105560286},{"NoteNumber":83,"Velocity":47,"Duration":44932,"SoundDuration":44932,"Delta":105602882},{"NoteNumber":74,"Velocity":43,"Duration":44932,"SoundDuration":44932,"Delta":105602882},{"NoteNumber":84,"Velocity":47,"Duration":44899,"SoundDuration":44899,"Delta":105645318},{"NoteNumber":76,"Velocity":43,"Duration":44899,"SoundDuration":44899,"Delta":105645318},{"NoteNumber":86,"Velocity":48,"Duration":44696,"SoundDuration":44696,"Delta":105687735},{"NoteNumber":77,"Velocity":43,"Duration":44696,"SoundDuration":44696,"Delta":105687735},{"NoteNumber":88,"Velocity":48,"Duration":44696,"SoundDuration":44696,"Delta":105729948},{"NoteNumber":79,"Velocity":44,"Duration":44696,"SoundDuration":44696,"Delta":105729948},{"NoteNumber":89,"Velocity":47,"Duration":44498,"SoundDuration":44498,"Delta":105772161},{"NoteNumber":81,"Velocity":42,"Duration":44498,"SoundDuration":44498,"Delta":105772161},{"NoteNumber":91,"Velocity":48,"Duration":44377,"SoundDuration":44377,"Delta":105814189},{"NoteNumber":83,"Velocity":42,"Duration":44377,"SoundDuration":44377,"Delta":105814189},{"NoteNumber":93,"Velocity":54,"Duration":178032,"SoundDuration":178032,"Delta":105858567},{"NoteNumber":84,"Velocity":48,"Duration":178032,"SoundDuration":178032,"Delta":105858567},{"NoteNumber":96,"Velocity":54,"Duration":90376,"SoundDuration":90376,"Delta":106220667},{"NoteNumber":86,"Velocity":34,"Duration":90376,"SoundDuration":90376,"Delta":106220667},{"NoteNumber":89,"Velocity":34,"Duration":90376,"SoundDuration":90376,"Delta":106220667},{"NoteNumber":83,"Velocity":32,"Duration":90376,"SoundDuration":90376,"Delta":106220667},{"NoteNumber":74,"Velocity":27,"Duration":90376,"SoundDuration":90376,"Delta":106220667},{"NoteNumber":77,"Velocity":27,"Duration":90376,"SoundDuration":90376,"Delta":106220667},{"NoteNumber":86,"Velocity":34,"Duration":90376,"SoundDuration":90376,"Delta":106407653},{"NoteNumber":89,"Velocity":34,"Duration":90376,"SoundDuration":90376,"Delta":106407653},{"NoteNumber":95,"Velocity":46,"Duration":90376,"SoundDuration":90376,"Delta":106407653},{"NoteNumber":74,"Velocity":27,"Duration":90376,"SoundDuration":90376,"Delta":106407653},{"NoteNumber":77,"Velocity":27,"Duration":90376,"SoundDuration":90376,"Delta":106407653},{"NoteNumber":83,"Velocity":32,"Duration":90376,"SoundDuration":90376,"Delta":106407653},{"NoteNumber":64,"Velocity":36,"Duration":90376,"SoundDuration":90376,"Delta":106501146},{"NoteNumber":93,"Velocity":47,"Duration":58865,"SoundDuration":58865,"Delta":106594638},{"NoteNumber":84,"Velocity":39,"Duration":706380,"SoundDuration":706380,"Delta":106594638},{"NoteNumber":81,"Velocity":36,"Duration":706380,"SoundDuration":706380,"Delta":106594638},{"NoteNumber":72,"Velocity":32,"Duration":706380,"SoundDuration":706380,"Delta":106594638},{"NoteNumber":76,"Velocity":32,"Duration":706380,"SoundDuration":706380,"Delta":106594638},{"NoteNumber":95,"Velocity":44,"Duration":58865,"SoundDuration":58865,"Delta":106653503},{"NoteNumber":93,"Velocity":47,"Duration":58865,"SoundDuration":58865,"Delta":106712369},{"NoteNumber":95,"Velocity":44,"Duration":58865,"SoundDuration":58865,"Delta":106771234},{"NoteNumber":93,"Velocity":47,"Duration":58865,"SoundDuration":58865,"Delta":106830099},{"NoteNumber":95,"Velocity":47,"Duration":58865,"SoundDuration":58865,"Delta":106888964},{"NoteNumber":93,"Velocity":44,"Duration":73581,"SoundDuration":73581,"Delta":106962545},{"NoteNumber":92,"Velocity":45,"Duration":88297,"SoundDuration":88297,"Delta":107036127},{"NoteNumber":95,"Velocity":51,"Duration":88297,"SoundDuration":88297,"Delta":107124424},{"NoteNumber":93,"Velocity":47,"Duration":88297,"SoundDuration":88297,"Delta":107212722},{"NoteNumber":92,"Velocity":43,"Duration":309041,"SoundDuration":309041,"Delta":107301019},{"NoteNumber":83,"Velocity":35,"Duration":309041,"SoundDuration":309041,"Delta":107301019},{"NoteNumber":71,"Velocity":26,"Duration":309041,"SoundDuration":309041,"Delta":107301019},{"NoteNumber":76,"Velocity":26,"Duration":309041,"SoundDuration":309041,"Delta":107301019},{"NoteNumber":80,"Velocity":30,"Duration":309041,"SoundDuration":309041,"Delta":107301019},{"NoteNumber":62,"Velocity":71,"Duration":219788,"SoundDuration":219788,"Delta":107654210},{"NoteNumber":74,"Velocity":79,"Duration":219788,"SoundDuration":219788,"Delta":107654210},{"NoteNumber":38,"Velocity":71,"Duration":219788,"SoundDuration":219788,"Delta":107654210},{"NoteNumber":50,"Velocity":71,"Duration":219788,"SoundDuration":219788,"Delta":107654210},{"NoteNumber":65,"Velocity":79,"Duration":1100244,"SoundDuration":1100244,"Delta":108101237},{"NoteNumber":77,"Velocity":87,"Duration":1100244,"SoundDuration":1100244,"Delta":108101237},{"NoteNumber":41,"Velocity":77,"Duration":1100244,"SoundDuration":1100244,"Delta":108101237},{"NoteNumber":53,"Velocity":77,"Duration":1100244,"SoundDuration":1100244,"Delta":108101237},{"NoteNumber":62,"Velocity":72,"Duration":178805,"SoundDuration":178805,"Delta":109201481},{"NoteNumber":74,"Velocity":81,"Duration":178805,"SoundDuration":178805,"Delta":109201481},{"NoteNumber":38,"Velocity":72,"Duration":178805,"SoundDuration":178805,"Delta":109201481},{"NoteNumber":50,"Velocity":72,"Duration":178805,"SoundDuration":178805,"Delta":109201481},{"NoteNumber":59,"Velocity":79,"Duration":351466,"SoundDuration":351466,"Delta":109559092},{"NoteNumber":71,"Velocity":87,"Duration":351466,"SoundDuration":351466,"Delta":109559092},{"NoteNumber":35,"Velocity":79,"Duration":351466,"SoundDuration":351466,"Delta":109559092},{"NoteNumber":47,"Velocity":79,"Duration":351466,"SoundDuration":351466,"Delta":109559092},{"NoteNumber":56,"Velocity":74,"Duration":447027,"SoundDuration":447027,"Delta":109925840},{"NoteNumber":68,"Velocity":83,"Duration":447027,"SoundDuration":447027,"Delta":109925840},{"NoteNumber":32,"Velocity":74,"Duration":447027,"SoundDuration":447027,"Delta":109925840},{"NoteNumber":44,"Velocity":74,"Duration":447027,"SoundDuration":447027,"Delta":109925840},{"NoteNumber":59,"Velocity":43,"Duration":53641,"SoundDuration":53641,"Delta":110811538},{"NoteNumber":50,"Velocity":36,"Duration":53641,"SoundDuration":53641,"Delta":110811538},{"NoteNumber":60,"Velocity":43,"Duration":50163,"SoundDuration":50163,"Delta":110862200},{"NoteNumber":52,"Velocity":36,"Duration":50163,"SoundDuration":50163,"Delta":110862200},{"NoteNumber":62,"Velocity":43,"Duration":47643,"SoundDuration":47643,"Delta":110909715},{"NoteNumber":53,"Velocity":36,"Duration":47643,"SoundDuration":47643,"Delta":110909715},{"NoteNumber":64,"Velocity":43,"Duration":47418,"SoundDuration":47418,"Delta":110954724},{"NoteNumber":55,"Velocity":37,"Duration":47418,"SoundDuration":47418,"Delta":110954724},{"NoteNumber":65,"Velocity":44,"Duration":47257,"SoundDuration":47257,"Delta":110999508},{"NoteNumber":57,"Velocity":37,"Duration":47257,"SoundDuration":47257,"Delta":110999508},{"NoteNumber":67,"Velocity":45,"Duration":47111,"SoundDuration":47111,"Delta":111044145},{"NoteNumber":59,"Velocity":38,"Duration":47111,"SoundDuration":47111,"Delta":111044145},{"NoteNumber":69,"Velocity":45,"Duration":46894,"SoundDuration":46894,"Delta":111088652},{"NoteNumber":60,"Velocity":40,"Duration":46894,"SoundDuration":46894,"Delta":111088652},{"NoteNumber":71,"Velocity":45,"Duration":46719,"SoundDuration":46719,"Delta":111135546},{"NoteNumber":62,"Velocity":40,"Duration":46719,"SoundDuration":46719,"Delta":111135546},{"NoteNumber":72,"Velocity":45,"Duration":46586,"SoundDuration":46586,"Delta":111179674},{"NoteNumber":64,"Velocity":41,"Duration":46586,"SoundDuration":46586,"Delta":111179674},{"NoteNumber":74,"Velocity":45,"Duration":46391,"SoundDuration":46391,"Delta":111223683},{"NoteNumber":65,"Velocity":41,"Duration":46391,"SoundDuration":46391,"Delta":111223683},{"NoteNumber":76,"Velocity":45,"Duration":46209,"SoundDuration":46209,"Delta":111267497},{"NoteNumber":67,"Velocity":41,"Duration":46209,"SoundDuration":46209,"Delta":111267497},{"NoteNumber":77,"Velocity":47,"Duration":46078,"SoundDuration":46078,"Delta":111311144},{"NoteNumber":69,"Velocity":42,"Duration":46078,"SoundDuration":46078,"Delta":111311144},{"NoteNumber":79,"Velocity":47,"Duration":45894,"SoundDuration":45894,"Delta":111354672},{"NoteNumber":71,"Velocity":43,"Duration":45894,"SoundDuration":45894,"Delta":111354672},{"NoteNumber":81,"Velocity":48,"Duration":45713,"SoundDuration":45713,"Delta":111398018},{"NoteNumber":72,"Velocity":43,"Duration":45713,"SoundDuration":45713,"Delta":111398018},{"NoteNumber":83,"Velocity":47,"Duration":45571,"SoundDuration":45571,"Delta":111443731},{"NoteNumber":74,"Velocity":42,"Duration":45571,"SoundDuration":45571,"Delta":111443731},{"NoteNumber":84,"Velocity":47,"Duration":45408,"SoundDuration":45408,"Delta":111486780},{"NoteNumber":76,"Velocity":42,"Duration":45408,"SoundDuration":45408,"Delta":111486780},{"NoteNumber":86,"Velocity":47,"Duration":45211,"SoundDuration":45211,"Delta":111529666},{"NoteNumber":77,"Velocity":43,"Duration":45211,"SoundDuration":45211,"Delta":111529666},{"NoteNumber":88,"Velocity":47,"Duration":45085,"SoundDuration":45085,"Delta":111572367},{"NoteNumber":79,"Velocity":43,"Duration":45085,"SoundDuration":45085,"Delta":111572367},{"NoteNumber":89,"Velocity":48,"Duration":44932,"SoundDuration":44932,"Delta":111614956},{"NoteNumber":81,"Velocity":43,"Duration":44932,"SoundDuration":44932,"Delta":111614956},{"NoteNumber":91,"Velocity":47,"Duration":44728,"SoundDuration":44728,"Delta":111657393},{"NoteNumber":83,"Velocity":42,"Duration":44728,"SoundDuration":44728,"Delta":111657393},{"NoteNumber":93,"Velocity":47,"Duration":44606,"SoundDuration":44606,"Delta":111699639},{"NoteNumber":84,"Velocity":42,"Duration":44606,"SoundDuration":44606,"Delta":111699639},{"NoteNumber":95,"Velocity":53,"Duration":171531,"SoundDuration":171531,"Delta":111744245},{"NoteNumber":86,"Velocity":48,"Duration":171531,"SoundDuration":171531,"Delta":111744245},{"NoteNumber":98,"Velocity":49,"Duration":86961,"SoundDuration":86961,"Delta":112093123},{"NoteNumber":89,"Velocity":34,"Duration":86961,"SoundDuration":86961,"Delta":112093123},{"NoteNumber":68,"Velocity":27,"Duration":86961,"SoundDuration":86961,"Delta":112093123},{"NoteNumber":77,"Velocity":32,"Duration":86961,"SoundDuration":86961,"Delta":112093123},{"NoteNumber":88,"Velocity":34,"Duration":86961,"SoundDuration":86961,"Delta":112273044},{"NoteNumber":96,"Velocity":45,"Duration":86961,"SoundDuration":86961,"Delta":112273044},{"NoteNumber":76,"Velocity":32,"Duration":86961,"SoundDuration":86961,"Delta":112273044},{"NoteNumber":68,"Velocity":27,"Duration":86961,"SoundDuration":86961,"Delta":112273044},{"NoteNumber":95,"Velocity":47,"Duration":58865,"SoundDuration":58865,"Delta":112452965},{"NoteNumber":86,"Velocity":39,"Duration":706380,"SoundDuration":706380,"Delta":112452965},{"NoteNumber":80,"Velocity":36,"Duration":706380,"SoundDuration":706380,"Delta":112452965},{"NoteNumber":69,"Velocity":32,"Duration":706380,"SoundDuration":706380,"Delta":112452965},{"NoteNumber":77,"Velocity":32,"Duration":706380,"SoundDuration":706380,"Delta":112452965},{"NoteNumber":96,"Velocity":44,"Duration":58865,"SoundDuration":58865,"Delta":112511830},{"NoteNumber":95,"Velocity":47,"Duration":58865,"SoundDuration":58865,"Delta":112570695},{"NoteNumber":96,"Velocity":44,"Duration":58865,"SoundDuration":58865,"Delta":112629560},{"NoteNumber":95,"Velocity":47,"Duration":58865,"SoundDuration":58865,"Delta":112688425},{"NoteNumber":96,"Velocity":47,"Duration":58865,"SoundDuration":58865,"Delta":112747290},{"NoteNumber":95,"Velocity":44,"Duration":73581,"SoundDuration":73581,"Delta":112820872},{"NoteNumber":93,"Velocity":45,"Duration":88297,"SoundDuration":88297,"Delta":112894453},{"NoteNumber":96,"Velocity":51,"Duration":88297,"SoundDuration":88297,"Delta":112982751},{"NoteNumber":95,"Velocity":47,"Duration":88297,"SoundDuration":88297,"Delta":113071048},{"NoteNumber":93,"Velocity":43,"Duration":294325,"SoundDuration":294325,"Delta":113159346},{"NoteNumber":84,"Velocity":35,"Duration":294325,"SoundDuration":294325,"Delta":113159346},{"NoteNumber":69,"Velocity":30,"Duration":294325,"SoundDuration":294325,"Delta":113159346},{"NoteNumber":76,"Velocity":30,"Duration":294325,"SoundDuration":294325,"Delta":113159346},{"NoteNumber":81,"Velocity":34,"Duration":294325,"SoundDuration":294325,"Delta":113159346},{"NoteNumber":100,"Velocity":56,"Duration":85354,"SoundDuration":85354,"Delta":113512536},{"NoteNumber":88,"Velocity":51,"Duration":85354,"SoundDuration":85354,"Delta":113512536},{"NoteNumber":105,"Velocity":63,"Duration":81819,"SoundDuration":81819,"Delta":113865727},{"NoteNumber":93,"Velocity":55,"Duration":81819,"SoundDuration":81819,"Delta":113865727},{"NoteNumber":64,"Velocity":45,"Duration":76817,"SoundDuration":76817,"Delta":114204289},{"NoteNumber":62,"Velocity":43,"Duration":76817,"SoundDuration":76817,"Delta":114283755},{"NoteNumber":61,"Velocity":45,"Duration":76817,"SoundDuration":76817,"Delta":114363221},{"NoteNumber":67,"Velocity":27,"Duration":376165,"SoundDuration":376165,"Delta":114402954},{"NoteNumber":59,"Velocity":44,"Duration":76817,"SoundDuration":76817,"Delta":114442687},{"NoteNumber":73,"Velocity":27,"Duration":336432,"SoundDuration":336432,"Delta":114442687},{"NoteNumber":76,"Velocity":27,"Duration":296699,"SoundDuration":296699,"Delta":114482420},{"NoteNumber":57,"Velocity":50,"Duration":256966,"SoundDuration":256966,"Delta":114522153},{"NoteNumber":81,"Velocity":33,"Duration":256966,"SoundDuration":256966,"Delta":114522153},{"NoteNumber":93,"Velocity":44,"Duration":77250,"SoundDuration":77250,"Delta":114864775},{"NoteNumber":91,"Velocity":41,"Duration":77250,"SoundDuration":77250,"Delta":114944690},{"NoteNumber":89,"Velocity":44,"Duration":77250,"SoundDuration":77250,"Delta":115024604},{"NoteNumber":88,"Velocity":40,"Duration":77250,"SoundDuration":77250,"Delta":115104519},{"NoteNumber":89,"Velocity":47,"Duration":246602,"SoundDuration":246602,"Delta":115184434},{"NoteNumber":69,"Velocity":45,"Duration":76817,"SoundDuration":76817,"Delta":115513237},{"NoteNumber":74,"Velocity":27,"Duration":238398,"SoundDuration":238398,"Delta":115513237},{"NoteNumber":81,"Velocity":31,"Duration":238398,"SoundDuration":238398,"Delta":115513237},{"NoteNumber":77,"Velocity":27,"Duration":238398,"SoundDuration":238398,"Delta":115513237},{"NoteNumber":67,"Velocity":42,"Duration":76817,"SoundDuration":76817,"Delta":115592703},{"NoteNumber":65,"Velocity":45,"Duration":76817,"SoundDuration":76817,"Delta":115672169},{"NoteNumber":64,"Velocity":43,"Duration":76817,"SoundDuration":76817,"Delta":115751635},{"NoteNumber":62,"Velocity":49,"Duration":255420,"SoundDuration":255420,"Delta":115831101},{"NoteNumber":86,"Velocity":36,"Duration":255420,"SoundDuration":255420,"Delta":115831101},{"NoteNumber":81,"Velocity":32,"Duration":255420,"SoundDuration":255420,"Delta":115831101},{"NoteNumber":77,"Velocity":32,"Duration":255420,"SoundDuration":255420,"Delta":115831101},{"NoteNumber":101,"Velocity":56,"Duration":84835,"SoundDuration":84835,"Delta":116171662},{"NoteNumber":93,"Velocity":56,"Duration":84835,"SoundDuration":84835,"Delta":116171662},{"NoteNumber":98,"Velocity":63,"Duration":82800,"SoundDuration":82800,"Delta":116522703},{"NoteNumber":89,"Velocity":63,"Duration":82800,"SoundDuration":82800,"Delta":116522703},{"NoteNumber":62,"Velocity":45,"Duration":79010,"SoundDuration":79010,"Delta":116865325},{"NoteNumber":60,"Velocity":43,"Duration":79010,"SoundDuration":79010,"Delta":116947060},{"NoteNumber":59,"Velocity":45,"Duration":79010,"SoundDuration":79010,"Delta":117028795},{"NoteNumber":65,"Velocity":27,"Duration":390810,"SoundDuration":390810,"Delta":117069663},{"NoteNumber":57,"Velocity":44,"Duration":79010,"SoundDuration":79010,"Delta":117110530},{"NoteNumber":71,"Velocity":27,"Duration":349943,"SoundDuration":349943,"Delta":117110530},{"NoteNumber":74,"Velocity":27,"Duration":309075,"SoundDuration":309075,"Delta":117151398},{"NoteNumber":55,"Velocity":49,"Duration":268208,"SoundDuration":268208,"Delta":117192265},{"NoteNumber":79,"Velocity":34,"Duration":268208,"SoundDuration":268208,"Delta":117192265},{"NoteNumber":91,"Velocity":42,"Duration":73941,"SoundDuration":73941,"Delta":117549876},{"NoteNumber":89,"Velocity":39,"Duration":73941,"SoundDuration":73941,"Delta":117626368},{"NoteNumber":88,"Velocity":42,"Duration":73941,"SoundDuration":73941,"Delta":117702860},{"NoteNumber":86,"Velocity":39,"Duration":73941,"SoundDuration":73941,"Delta":117779351},{"NoteNumber":88,"Velocity":45,"Duration":246602,"SoundDuration":246602,"Delta":117855843},{"NoteNumber":67,"Velocity":45,"Duration":76817,"SoundDuration":76817,"Delta":118184646},{"NoteNumber":72,"Velocity":27,"Duration":238398,"SoundDuration":238398,"Delta":118184646},{"NoteNumber":79,"Velocity":31,"Duration":238398,"SoundDuration":238398,"Delta":118184646},{"NoteNumber":76,"Velocity":27,"Duration":238398,"SoundDuration":238398,"Delta":118184646},{"NoteNumber":65,"Velocity":43,"Duration":76817,"SoundDuration":76817,"Delta":118264112},{"NoteNumber":64,"Velocity":45,"Duration":76817,"SoundDuration":76817,"Delta":118343578},{"NoteNumber":62,"Velocity":43,"Duration":76817,"SoundDuration":76817,"Delta":118423044},{"NoteNumber":60,"Velocity":49,"Duration":255420,"SoundDuration":255420,"Delta":118502510},{"NoteNumber":84,"Velocity":36,"Duration":255420,"SoundDuration":255420,"Delta":118502510},{"NoteNumber":79,"Velocity":32,"Duration":255420,"SoundDuration":255420,"Delta":118502510},{"NoteNumber":76,"Velocity":32,"Duration":255420,"SoundDuration":255420,"Delta":118502510},{"NoteNumber":100,"Velocity":60,"Duration":87528,"SoundDuration":87528,"Delta":118843071},{"NoteNumber":91,"Velocity":60,"Duration":87528,"SoundDuration":87528,"Delta":118843071},{"NoteNumber":98,"Velocity":64,"Duration":83689,"SoundDuration":83689,"Delta":119205258},{"NoteNumber":89,"Velocity":64,"Duration":83689,"SoundDuration":83689,"Delta":119205258},{"NoteNumber":74,"Velocity":46,"Duration":79010,"SoundDuration":79010,"Delta":119551559},{"NoteNumber":72,"Velocity":43,"Duration":79010,"SoundDuration":79010,"Delta":119633294},{"NoteNumber":71,"Velocity":46,"Duration":89066,"SoundDuration":89066,"Delta":119715029},{"NoteNumber":69,"Velocity":43,"Duration":89066,"SoundDuration":89066,"Delta":119807166},{"NoteNumber":68,"Velocity":52,"Duration":265549,"SoundDuration":265549,"Delta":119899304},{"NoteNumber":86,"Velocity":36,"Duration":265549,"SoundDuration":265549,"Delta":119899304},{"NoteNumber":83,"Velocity":33,"Duration":265549,"SoundDuration":265549,"Delta":119899304},{"NoteNumber":77,"Velocity":33,"Duration":265549,"SoundDuration":265549,"Delta":119899304},{"NoteNumber":98,"Velocity":60,"Duration":84835,"SoundDuration":84835,"Delta":120253370},{"NoteNumber":89,"Velocity":60,"Duration":84835,"SoundDuration":84835,"Delta":120253370},{"NoteNumber":96,"Velocity":64,"Duration":82800,"SoundDuration":82800,"Delta":120604412},{"NoteNumber":88,"Velocity":64,"Duration":82800,"SoundDuration":82800,"Delta":120604412},{"NoteNumber":76,"Velocity":46,"Duration":77250,"SoundDuration":77250,"Delta":120947034},{"NoteNumber":74,"Velocity":43,"Duration":77250,"SoundDuration":77250,"Delta":121026948},{"NoteNumber":72,"Velocity":46,"Duration":77250,"SoundDuration":77250,"Delta":121106863},{"NoteNumber":71,"Velocity":44,"Duration":77250,"SoundDuration":77250,"Delta":121186778},{"NoteNumber":69,"Velocity":52,"Duration":252440,"SoundDuration":252440,"Delta":121266693},{"NoteNumber":84,"Velocity":36,"Duration":252440,"SoundDuration":252440,"Delta":121266693},{"NoteNumber":81,"Velocity":33,"Duration":252440,"SoundDuration":252440,"Delta":121266693},{"NoteNumber":76,"Velocity":33,"Duration":252440,"SoundDuration":252440,"Delta":121266693},{"NoteNumber":72,"Velocity":46,"Duration":77250,"SoundDuration":77250,"Delta":121603280},{"NoteNumber":71,"Velocity":44,"Duration":77250,"SoundDuration":77250,"Delta":121683194},{"NoteNumber":69,"Velocity":46,"Duration":77250,"SoundDuration":77250,"Delta":121763109},{"NoteNumber":67,"Velocity":45,"Duration":77250,"SoundDuration":77250,"Delta":121843024},{"NoteNumber":65,"Velocity":52,"Duration":253921,"SoundDuration":253921,"Delta":121922939},{"NoteNumber":84,"Velocity":36,"Duration":253921,"SoundDuration":253921,"Delta":121922939},{"NoteNumber":81,"Velocity":33,"Duration":253921,"SoundDuration":253921,"Delta":121922939},{"NoteNumber":77,"Velocity":33,"Duration":253921,"SoundDuration":253921,"Delta":121922939},{"NoteNumber":69,"Velocity":46,"Duration":77681,"SoundDuration":77681,"Delta":122261501},{"NoteNumber":67,"Velocity":45,"Duration":77681,"SoundDuration":77681,"Delta":122341861},{"NoteNumber":65,"Velocity":46,"Duration":80394,"SoundDuration":80394,"Delta":122422221},{"NoteNumber":64,"Velocity":44,"Duration":82302,"SoundDuration":82302,"Delta":122505388},{"NoteNumber":63,"Velocity":52,"Duration":261658,"SoundDuration":261658,"Delta":122590528},{"NoteNumber":77,"Velocity":33,"Duration":261658,"SoundDuration":261658,"Delta":122590528},{"NoteNumber":81,"Velocity":36,"Duration":261658,"SoundDuration":261658,"Delta":122590528},{"NoteNumber":72,"Velocity":33,"Duration":261658,"SoundDuration":261658,"Delta":122590528},{"NoteNumber":96,"Velocity":47,"Duration":78116,"SoundDuration":78116,"Delta":122939406},{"NoteNumber":93,"Velocity":45,"Duration":78116,"SoundDuration":78116,"Delta":123020216},{"NoteNumber":89,"Velocity":47,"Duration":78116,"SoundDuration":78116,"Delta":123101026},{"NoteNumber":87,"Velocity":45,"Duration":78116,"SoundDuration":78116,"Delta":123181837},{"NoteNumber":88,"Velocity":53,"Duration":252440,"SoundDuration":252440,"Delta":123262647},{"NoteNumber":80,"Velocity":32,"Duration":252440,"SoundDuration":252440,"Delta":123262647},{"NoteNumber":64,"Velocity":27,"Duration":252440,"SoundDuration":252440,"Delta":123262647},{"NoteNumber":71,"Velocity":27,"Duration":252440,"SoundDuration":252440,"Delta":123262647},{"NoteNumber":76,"Velocity":43,"Duration":77681,"SoundDuration":77681,"Delta":123599234},{"NoteNumber":71,"Velocity":40,"Duration":77681,"SoundDuration":77681,"Delta":123679594},{"NoteNumber":68,"Velocity":44,"Duration":77681,"SoundDuration":77681,"Delta":123759954},{"NoteNumber":71,"Velocity":42,"Duration":77681,"SoundDuration":77681,"Delta":123840314},{"NoteNumber":64,"Velocity":47,"Duration":295974,"SoundDuration":295974,"Delta":123920674},{"NoteNumber":67,"Velocity":71,"Duration":238403,"SoundDuration":238403,"Delta":124315307},{"NoteNumber":79,"Velocity":79,"Duration":238403,"SoundDuration":238403,"Delta":124315307},{"NoteNumber":43,"Velocity":71,"Duration":238403,"SoundDuration":238403,"Delta":124315307},{"NoteNumber":55,"Velocity":71,"Duration":238403,"SoundDuration":238403,"Delta":124315307},{"NoteNumber":72,"Velocity":79,"Duration":1100244,"SoundDuration":1100244,"Delta":124800194},{"NoteNumber":84,"Velocity":87,"Duration":1100244,"SoundDuration":1100244,"Delta":124800194},{"NoteNumber":48,"Velocity":77,"Duration":1100244,"SoundDuration":1100244,"Delta":124800194},{"NoteNumber":60,"Velocity":77,"Duration":1100244,"SoundDuration":1100244,"Delta":124800194},{"NoteNumber":67,"Velocity":72,"Duration":178805,"SoundDuration":178805,"Delta":125900438},{"NoteNumber":79,"Velocity":81,"Duration":178805,"SoundDuration":178805,"Delta":125900438},{"NoteNumber":43,"Velocity":72,"Duration":178805,"SoundDuration":178805,"Delta":125900438},{"NoteNumber":55,"Velocity":72,"Duration":178805,"SoundDuration":178805,"Delta":125900438},{"NoteNumber":64,"Velocity":79,"Duration":336586,"SoundDuration":336586,"Delta":126258049},{"NoteNumber":76,"Velocity":87,"Duration":336586,"SoundDuration":336586,"Delta":126258049},{"NoteNumber":40,"Velocity":79,"Duration":336586,"SoundDuration":336586,"Delta":126258049},{"NoteNumber":52,"Velocity":79,"Duration":336586,"SoundDuration":336586,"Delta":126258049},{"NoteNumber":60,"Velocity":75,"Duration":447027,"SoundDuration":447027,"Delta":126594636},{"NoteNumber":72,"Velocity":84,"Duration":447027,"SoundDuration":447027,"Delta":126594636},{"NoteNumber":36,"Velocity":76,"Duration":447027,"SoundDuration":447027,"Delta":126594636},{"NoteNumber":48,"Velocity":76,"Duration":447027,"SoundDuration":447027,"Delta":126594636},{"NoteNumber":60,"Velocity":43,"Duration":48118,"SoundDuration":48118,"Delta":127469755},{"NoteNumber":52,"Velocity":36,"Duration":48118,"SoundDuration":48118,"Delta":127469755},{"NoteNumber":62,"Velocity":43,"Duration":47906,"SoundDuration":47906,"Delta":127515200},{"NoteNumber":53,"Velocity":36,"Duration":47906,"SoundDuration":47906,"Delta":127515200},{"NoteNumber":64,"Velocity":43,"Duration":47779,"SoundDuration":47779,"Delta":127560447},{"NoteNumber":55,"Velocity":36,"Duration":47779,"SoundDuration":47779,"Delta":127560447},{"NoteNumber":65,"Velocity":43,"Duration":47634,"SoundDuration":47634,"Delta":127605580},{"NoteNumber":57,"Velocity":37,"Duration":47634,"SoundDuration":47634,"Delta":127605580},{"NoteNumber":67,"Velocity":44,"Duration":47594,"SoundDuration":47594,"Delta":127650568},{"NoteNumber":59,"Velocity":37,"Duration":47594,"SoundDuration":47594,"Delta":127650568},{"NoteNumber":69,"Velocity":45,"Duration":47393,"SoundDuration":47393,"Delta":127695529},{"NoteNumber":60,"Velocity":38,"Duration":47393,"SoundDuration":47393,"Delta":127695529},{"NoteNumber":71,"Velocity":45,"Duration":47237,"SoundDuration":47237,"Delta":127740290},{"NoteNumber":62,"Velocity":40,"Duration":47237,"SoundDuration":47237,"Delta":127740290},{"NoteNumber":72,"Velocity":45,"Duration":47159,"SoundDuration":47159,"Delta":127787527},{"NoteNumber":64,"Velocity":40,"Duration":47159,"SoundDuration":47159,"Delta":127787527},{"NoteNumber":74,"Velocity":45,"Duration":47041,"SoundDuration":47041,"Delta":127832067},{"NoteNumber":65,"Velocity":41,"Duration":47041,"SoundDuration":47041,"Delta":127832067},{"NoteNumber":76,"Velocity":45,"Duration":46917,"SoundDuration":46917,"Delta":127876502},{"NoteNumber":67,"Velocity":41,"Duration":46917,"SoundDuration":46917,"Delta":127876502},{"NoteNumber":77,"Velocity":45,"Duration":46696,"SoundDuration":46696,"Delta":127920819},{"NoteNumber":69,"Velocity":41,"Duration":46696,"SoundDuration":46696,"Delta":127920819},{"NoteNumber":79,"Velocity":47,"Duration":46570,"SoundDuration":46570,"Delta":127964922},{"NoteNumber":71,"Velocity":42,"Duration":46570,"SoundDuration":46570,"Delta":127964922},{"NoteNumber":81,"Velocity":47,"Duration":46463,"SoundDuration":46463,"Delta":128008912},{"NoteNumber":72,"Velocity":43,"Duration":46463,"SoundDuration":46463,"Delta":128008912},{"NoteNumber":83,"Velocity":48,"Duration":46393,"SoundDuration":46393,"Delta":128052794},{"NoteNumber":74,"Velocity":43,"Duration":46393,"SoundDuration":46393,"Delta":128052794},{"NoteNumber":84,"Velocity":47,"Duration":46234,"SoundDuration":46234,"Delta":128099187},{"NoteNumber":76,"Velocity":42,"Duration":46234,"SoundDuration":46234,"Delta":128099187},{"NoteNumber":86,"Velocity":47,"Duration":46043,"SoundDuration":46043,"Delta":128142853},{"NoteNumber":77,"Velocity":42,"Duration":46043,"SoundDuration":46043,"Delta":128142853},{"NoteNumber":88,"Velocity":47,"Duration":46012,"SoundDuration":46012,"Delta":128186340},{"NoteNumber":79,"Velocity":43,"Duration":46012,"SoundDuration":46012,"Delta":128186340},{"NoteNumber":89,"Velocity":48,"Duration":45868,"SoundDuration":45868,"Delta":128229796},{"NoteNumber":81,"Velocity":43,"Duration":45868,"SoundDuration":45868,"Delta":128229796},{"NoteNumber":91,"Velocity":48,"Duration":45751,"SoundDuration":45751,"Delta":128273121},{"NoteNumber":83,"Velocity":43,"Duration":45751,"SoundDuration":45751,"Delta":128273121},{"NoteNumber":93,"Velocity":47,"Duration":45569,"SoundDuration":45569,"Delta":128316341},{"NoteNumber":84,"Velocity":42,"Duration":45569,"SoundDuration":45569,"Delta":128316341},{"NoteNumber":95,"Velocity":48,"Duration":47792,"SoundDuration":47792,"Delta":128359379},{"NoteNumber":86,"Velocity":42,"Duration":47792,"SoundDuration":47792,"Delta":128359379},{"NoteNumber":96,"Velocity":53,"Duration":163561,"SoundDuration":163561,"Delta":128407171},{"NoteNumber":88,"Velocity":48,"Duration":163561,"SoundDuration":163561,"Delta":128407171},{"NoteNumber":100,"Velocity":54,"Duration":83795,"SoundDuration":83795,"Delta":128739839},{"NoteNumber":89,"Velocity":34,"Duration":83795,"SoundDuration":83795,"Delta":128739839},{"NoteNumber":93,"Velocity":34,"Duration":83795,"SoundDuration":83795,"Delta":128739839},{"NoteNumber":86,"Velocity":32,"Duration":83795,"SoundDuration":83795,"Delta":128739839},{"NoteNumber":77,"Velocity":27,"Duration":83795,"SoundDuration":83795,"Delta":128739839},{"NoteNumber":81,"Velocity":27,"Duration":83795,"SoundDuration":83795,"Delta":128739839},{"NoteNumber":89,"Velocity":34,"Duration":83795,"SoundDuration":83795,"Delta":128913209},{"NoteNumber":93,"Velocity":34,"Duration":83795,"SoundDuration":83795,"Delta":128913209},{"NoteNumber":98,"Velocity":45,"Duration":83795,"SoundDuration":83795,"Delta":128913209},{"NoteNumber":77,"Velocity":27,"Duration":83795,"SoundDuration":83795,"Delta":128913209},{"NoteNumber":81,"Velocity":27,"Duration":83795,"SoundDuration":83795,"Delta":128913209},{"NoteNumber":86,"Velocity":32,"Duration":83795,"SoundDuration":83795,"Delta":128913209},{"NoteNumber":67,"Velocity":36,"Duration":763809,"SoundDuration":763809,"Delta":128999894},{"NoteNumber":96,"Velocity":47,"Duration":56427,"SoundDuration":56427,"Delta":129086579},{"NoteNumber":88,"Velocity":39,"Duration":677123,"SoundDuration":677123,"Delta":129086579},{"NoteNumber":84,"Velocity":36,"Duration":677123,"SoundDuration":677123,"Delta":129086579},{"NoteNumber":76,"Velocity":36,"Duration":677123,"SoundDuration":677123,"Delta":129086579},{"NoteNumber":98,"Velocity":44,"Duration":56426,"SoundDuration":56426,"Delta":129143006},{"NoteNumber":96,"Velocity":47,"Duration":56427,"SoundDuration":56427,"Delta":129199433},{"NoteNumber":98,"Velocity":44,"Duration":56426,"SoundDuration":56426,"Delta":129255860},{"NoteNumber":96,"Velocity":47,"Duration":56427,"SoundDuration":56427,"Delta":129312287},{"NoteNumber":98,"Velocity":47,"Duration":56426,"SoundDuration":56426,"Delta":129368714},{"NoteNumber":96,"Velocity":44,"Duration":70533,"SoundDuration":70533,"Delta":129439248},{"NoteNumber":95,"Velocity":45,"Duration":81819,"SoundDuration":81819,"Delta":129509782},{"NoteNumber":98,"Velocity":51,"Duration":81819,"SoundDuration":81819,"Delta":129594422},{"NoteNumber":96,"Velocity":47,"Duration":81819,"SoundDuration":81819,"Delta":129679063},{"NoteNumber":95,"Velocity":43,"Duration":296241,"SoundDuration":296241,"Delta":129763703},{"NoteNumber":86,"Velocity":39,"Duration":296241,"SoundDuration":296241,"Delta":129763703},{"NoteNumber":67,"Velocity":34,"Duration":296241,"SoundDuration":296241,"Delta":129763703},{"NoteNumber":74,"Velocity":34,"Duration":296241,"SoundDuration":296241,"Delta":129763703},{"NoteNumber":83,"Velocity":34,"Duration":296241,"SoundDuration":296241,"Delta":129763703},{"NoteNumber":62,"Velocity":63,"Duration":219788,"SoundDuration":219788,"Delta":130102265},{"NoteNumber":74,"Velocity":71,"Duration":219788,"SoundDuration":219788,"Delta":130102265},{"NoteNumber":38,"Velocity":63,"Duration":219788,"SoundDuration":219788,"Delta":130102265},{"NoteNumber":50,"Velocity":63,"Duration":219788,"SoundDuration":219788,"Delta":130102265},{"NoteNumber":65,"Velocity":71,"Duration":1100244,"SoundDuration":1100244,"Delta":130549293},{"NoteNumber":77,"Velocity":79,"Duration":1100244,"SoundDuration":1100244,"Delta":130549293},{"NoteNumber":41,"Velocity":70,"Duration":1100244,"SoundDuration":1100244,"Delta":130549293},{"NoteNumber":53,"Velocity":70,"Duration":1100244,"SoundDuration":1100244,"Delta":130549293},{"NoteNumber":62,"Velocity":64,"Duration":291942,"SoundDuration":291942,"Delta":131649537},{"NoteNumber":74,"Velocity":72,"Duration":291942,"SoundDuration":291942,"Delta":131649537},{"NoteNumber":38,"Velocity":64,"Duration":291942,"SoundDuration":291942,"Delta":131649537},{"NoteNumber":50,"Velocity":64,"Duration":291942,"SoundDuration":291942,"Delta":131649537},{"NoteNumber":59,"Velocity":71,"Duration":378931,"SoundDuration":378931,"Delta":132038793},{"NoteNumber":71,"Velocity":79,"Duration":378931,"SoundDuration":378931,"Delta":132038793},{"NoteNumber":35,"Velocity":71,"Duration":378931,"SoundDuration":378931,"Delta":132038793},{"NoteNumber":47,"Velocity":71,"Duration":378931,"SoundDuration":378931,"Delta":132038793},{"NoteNumber":55,"Velocity":67,"Duration":447027,"SoundDuration":447027,"Delta":132417725},{"NoteNumber":67,"Velocity":67,"Duration":447027,"SoundDuration":447027,"Delta":132417725},{"NoteNumber":31,"Velocity":67,"Duration":447027,"SoundDuration":447027,"Delta":132417725},{"NoteNumber":43,"Velocity":67,"Duration":447027,"SoundDuration":447027,"Delta":132417725},{"NoteNumber":59,"Velocity":43,"Duration":47948,"SoundDuration":47948,"Delta":133301617},{"NoteNumber":50,"Velocity":36,"Duration":47948,"SoundDuration":47948,"Delta":133301617},{"NoteNumber":60,"Velocity":43,"Duration":47874,"SoundDuration":47874,"Delta":133346902},{"NoteNumber":52,"Velocity":36,"Duration":47874,"SoundDuration":47874,"Delta":133346902},{"NoteNumber":62,"Velocity":43,"Duration":47679,"SoundDuration":47679,"Delta":133392127},{"NoteNumber":53,"Velocity":36,"Duration":47679,"SoundDuration":47679,"Delta":133392127},{"NoteNumber":64,"Velocity":43,"Duration":47483,"SoundDuration":47483,"Delta":133437158},{"NoteNumber":55,"Velocity":37,"Duration":47483,"SoundDuration":47483,"Delta":133437158},{"NoteNumber":65,"Velocity":44,"Duration":47418,"SoundDuration":47418,"Delta":133482007},{"NoteNumber":57,"Velocity":37,"Duration":47418,"SoundDuration":47418,"Delta":133482007},{"NoteNumber":67,"Velocity":45,"Duration":47272,"SoundDuration":47272,"Delta":133526791},{"NoteNumber":59,"Velocity":38,"Duration":47272,"SoundDuration":47272,"Delta":133526791},{"NoteNumber":69,"Velocity":45,"Duration":47133,"SoundDuration":47133,"Delta":133571444},{"NoteNumber":60,"Velocity":40,"Duration":47133,"SoundDuration":47133,"Delta":133571444},{"NoteNumber":71,"Velocity":45,"Duration":46894,"SoundDuration":46894,"Delta":133618577},{"NoteNumber":62,"Velocity":40,"Duration":46894,"SoundDuration":46894,"Delta":133618577},{"NoteNumber":72,"Velocity":45,"Duration":46894,"SoundDuration":46894,"Delta":133662866},{"NoteNumber":64,"Velocity":41,"Duration":46894,"SoundDuration":46894,"Delta":133662866},{"NoteNumber":74,"Velocity":45,"Duration":46676,"SoundDuration":46676,"Delta":133707155},{"NoteNumber":65,"Velocity":41,"Duration":46676,"SoundDuration":46676,"Delta":133707155},{"NoteNumber":76,"Velocity":45,"Duration":46537,"SoundDuration":46537,"Delta":133751241},{"NoteNumber":67,"Velocity":41,"Duration":46537,"SoundDuration":46537,"Delta":133751241},{"NoteNumber":77,"Velocity":47,"Duration":46391,"SoundDuration":46391,"Delta":133795202},{"NoteNumber":69,"Velocity":42,"Duration":46391,"SoundDuration":46391,"Delta":133795202},{"NoteNumber":79,"Velocity":47,"Duration":46342,"SoundDuration":46342,"Delta":133839016},{"NoteNumber":71,"Velocity":43,"Duration":46342,"SoundDuration":46342,"Delta":133839016},{"NoteNumber":81,"Velocity":48,"Duration":46139,"SoundDuration":46139,"Delta":133882795},{"NoteNumber":72,"Velocity":43,"Duration":46139,"SoundDuration":46139,"Delta":133882795},{"NoteNumber":83,"Velocity":47,"Duration":45962,"SoundDuration":45962,"Delta":133928935},{"NoteNumber":74,"Velocity":42,"Duration":45962,"SoundDuration":45962,"Delta":133928935},{"NoteNumber":84,"Velocity":47,"Duration":45894,"SoundDuration":45894,"Delta":133972348},{"NoteNumber":76,"Velocity":42,"Duration":45894,"SoundDuration":45894,"Delta":133972348},{"NoteNumber":86,"Velocity":47,"Duration":45767,"SoundDuration":45767,"Delta":134015693},{"NoteNumber":77,"Velocity":43,"Duration":45767,"SoundDuration":45767,"Delta":134015693},{"NoteNumber":88,"Velocity":47,"Duration":45639,"SoundDuration":45639,"Delta":134058924},{"NoteNumber":79,"Velocity":43,"Duration":45639,"SoundDuration":45639,"Delta":134058924},{"NoteNumber":89,"Velocity":48,"Duration":45408,"SoundDuration":45408,"Delta":134102041},{"NoteNumber":81,"Velocity":43,"Duration":45408,"SoundDuration":45408,"Delta":134102041},{"NoteNumber":91,"Velocity":47,"Duration":45277,"SoundDuration":45277,"Delta":134144927},{"NoteNumber":83,"Velocity":42,"Duration":45277,"SoundDuration":45277,"Delta":134144927},{"NoteNumber":93,"Velocity":47,"Duration":47639,"SoundDuration":47639,"Delta":134187694},{"NoteNumber":84,"Velocity":42,"Duration":47639,"SoundDuration":47639,"Delta":134187694},{"NoteNumber":95,"Velocity":53,"Duration":171531,"SoundDuration":171531,"Delta":134235334},{"NoteNumber":86,"Velocity":48,"Duration":171531,"SoundDuration":171531,"Delta":134235334},{"NoteNumber":101,"Velocity":51,"Duration":86961,"SoundDuration":86961,"Delta":134584212},{"NoteNumber":93,"Velocity":34,"Duration":86961,"SoundDuration":86961,"Delta":134584212},{"NoteNumber":71,"Velocity":27,"Duration":86961,"SoundDuration":86961,"Delta":134584212},{"NoteNumber":81,"Velocity":32,"Duration":86961,"SoundDuration":86961,"Delta":134584212},{"NoteNumber":91,"Velocity":34,"Duration":86961,"SoundDuration":86961,"Delta":134764133},{"NoteNumber":100,"Velocity":45,"Duration":86961,"SoundDuration":86961,"Delta":134764133},{"NoteNumber":79,"Velocity":32,"Duration":86961,"SoundDuration":86961,"Delta":134764133},{"NoteNumber":71,"Velocity":27,"Duration":86961,"SoundDuration":86961,"Delta":134764133},{"NoteNumber":98,"Velocity":47,"Duration":58865,"SoundDuration":58865,"Delta":134944054},{"NoteNumber":89,"Velocity":39,"Duration":706380,"SoundDuration":706380,"Delta":134944054},{"NoteNumber":77,"Velocity":36,"Duration":706380,"SoundDuration":706380,"Delta":134944054},{"NoteNumber":71,"Velocity":32,"Duration":706380,"SoundDuration":706380,"Delta":134944054},{"NoteNumber":67,"Velocity":32,"Duration":706380,"SoundDuration":706380,"Delta":134944054},{"NoteNumber":100,"Velocity":44,"Duration":58865,"SoundDuration":58865,"Delta":135002919},{"NoteNumber":98,"Velocity":47,"Duration":58865,"SoundDuration":58865,"Delta":135061784},{"NoteNumber":100,"Velocity":44,"Duration":58865,"SoundDuration":58865,"Delta":135120649},{"NoteNumber":98,"Velocity":47,"Duration":58865,"SoundDuration":58865,"Delta":135179514},{"NoteNumber":100,"Velocity":47,"Duration":58865,"SoundDuration":58865,"Delta":135238379},{"NoteNumber":98,"Velocity":44,"Duration":73581,"SoundDuration":73581,"Delta":135311960},{"NoteNumber":97,"Velocity":45,"Duration":85354,"SoundDuration":85354,"Delta":135385542},{"NoteNumber":100,"Velocity":51,"Duration":85354,"SoundDuration":85354,"Delta":135473839},{"NoteNumber":98,"Velocity":47,"Duration":85354,"SoundDuration":85354,"Delta":135562137},{"NoteNumber":96,"Velocity":43,"Duration":287224,"SoundDuration":287224,"Delta":135650435},{"NoteNumber":88,"Velocity":35,"Duration":287224,"SoundDuration":287224,"Delta":135650435},{"NoteNumber":72,"Velocity":30,"Duration":287224,"SoundDuration":287224,"Delta":135650435},{"NoteNumber":76,"Velocity":34,"Duration":287224,"SoundDuration":287224,"Delta":135650435},{"NoteNumber":91,"Velocity":65,"Duration":83295,"SoundDuration":83295,"Delta":135995104},{"NoteNumber":96,"Velocity":73,"Duration":81819,"SoundDuration":81819,"Delta":136339773},{"NoteNumber":67,"Velocity":45,"Duration":76817,"SoundDuration":76817,"Delta":136678335},{"NoteNumber":65,"Velocity":43,"Duration":76817,"SoundDuration":76817,"Delta":136757801},{"NoteNumber":64,"Velocity":45,"Duration":76817,"SoundDuration":76817,"Delta":136837267},{"NoteNumber":70,"Velocity":27,"Duration":376165,"SoundDuration":376165,"Delta":136877000},{"NoteNumber":62,"Velocity":43,"Duration":76817,"SoundDuration":76817,"Delta":136916733},{"NoteNumber":76,"Velocity":27,"Duration":336432,"SoundDuration":336432,"Delta":136916733},{"NoteNumber":79,"Velocity":27,"Duration":296699,"SoundDuration":296699,"Delta":136956466},{"NoteNumber":60,"Velocity":50,"Duration":256966,"SoundDuration":256966,"Delta":136996199},{"NoteNumber":84,"Velocity":33,"Duration":256966,"SoundDuration":256966,"Delta":136996199},{"NoteNumber":84,"Velocity":43,"Duration":75971,"SoundDuration":75971,"Delta":137338821},{"NoteNumber":88,"Velocity":39,"Duration":75971,"SoundDuration":75971,"Delta":137417412},{"NoteNumber":91,"Velocity":43,"Duration":75971,"SoundDuration":75971,"Delta":137496004},{"NoteNumber":88,"Velocity":39,"Duration":75971,"SoundDuration":75971,"Delta":137574595},{"NoteNumber":89,"Velocity":45,"Duration":246602,"SoundDuration":246602,"Delta":137653187},{"NoteNumber":72,"Velocity":45,"Duration":76817,"SoundDuration":76817,"Delta":137981990},{"NoteNumber":81,"Velocity":31,"Duration":238397,"SoundDuration":238397,"Delta":137981990},{"NoteNumber":77,"Velocity":27,"Duration":238397,"SoundDuration":238397,"Delta":137981990},{"NoteNumber":70,"Velocity":42,"Duration":76817,"SoundDuration":76817,"Delta":138061456},{"NoteNumber":69,"Velocity":45,"Duration":76817,"SoundDuration":76817,"Delta":138140922},{"NoteNumber":67,"Velocity":43,"Duration":76817,"SoundDuration":76817,"Delta":138220388},{"NoteNumber":65,"Velocity":49,"Duration":255420,"SoundDuration":255420,"Delta":138299854},{"NoteNumber":72,"Velocity":32,"Duration":255420,"SoundDuration":255420,"Delta":138299854},{"NoteNumber":81,"Velocity":36,"Duration":255420,"SoundDuration":255420,"Delta":138299854},{"NoteNumber":77,"Velocity":32,"Duration":255420,"SoundDuration":255420,"Delta":138299854},{"NoteNumber":101,"Velocity":56,"Duration":84835,"SoundDuration":84835,"Delta":138640415},{"NoteNumber":93,"Velocity":51,"Duration":84835,"SoundDuration":84835,"Delta":138640415},{"NoteNumber":98,"Velocity":63,"Duration":82800,"SoundDuration":82800,"Delta":138991457},{"NoteNumber":90,"Velocity":55,"Duration":82800,"SoundDuration":82800,"Delta":138991457},{"NoteNumber":69,"Velocity":45,"Duration":79010,"SoundDuration":79010,"Delta":139334079},{"NoteNumber":67,"Velocity":42,"Duration":79010,"SoundDuration":79010,"Delta":139415814},{"NoteNumber":66,"Velocity":45,"Duration":79010,"SoundDuration":79010,"Delta":139497549},{"NoteNumber":72,"Velocity":27,"Duration":390810,"SoundDuration":390810,"Delta":139538416},{"NoteNumber":64,"Velocity":43,"Duration":79010,"SoundDuration":79010,"Delta":139579284},{"NoteNumber":78,"Velocity":27,"Duration":349943,"SoundDuration":349943,"Delta":139579284},{"NoteNumber":81,"Velocity":27,"Duration":309075,"SoundDuration":309075,"Delta":139620151},{"NoteNumber":62,"Velocity":49,"Duration":268208,"SoundDuration":268208,"Delta":139661019},{"NoteNumber":86,"Velocity":34,"Duration":268208,"SoundDuration":268208,"Delta":139661019},{"NoteNumber":86,"Velocity":49,"Duration":73941,"SoundDuration":73941,"Delta":140018630},{"NoteNumber":90,"Velocity":51,"Duration":73941,"SoundDuration":73941,"Delta":140095121},{"NoteNumber":93,"Velocity":53,"Duration":73941,"SoundDuration":73941,"Delta":140171613},{"NoteNumber":90,"Velocity":50,"Duration":73941,"SoundDuration":73941,"Delta":140248104},{"NoteNumber":91,"Velocity":52,"Duration":246602,"SoundDuration":246602,"Delta":140324596},{"NoteNumber":74,"Velocity":47,"Duration":74336,"SoundDuration":74336,"Delta":140653399},{"NoteNumber":79,"Velocity":30,"Duration":230698,"SoundDuration":230698,"Delta":140653399},{"NoteNumber":83,"Velocity":34,"Duration":230698,"SoundDuration":230698,"Delta":140653399},{"NoteNumber":72,"Velocity":44,"Duration":74336,"SoundDuration":74336,"Delta":140730298},{"NoteNumber":71,"Velocity":47,"Duration":74336,"SoundDuration":74336,"Delta":140807198},{"NoteNumber":69,"Velocity":44,"Duration":74336,"SoundDuration":74336,"Delta":140884097},{"NoteNumber":67,"Velocity":52,"Duration":241080,"SoundDuration":241080,"Delta":140960997},{"NoteNumber":83,"Velocity":40,"Duration":241080,"SoundDuration":241080,"Delta":140960997},{"NoteNumber":79,"Velocity":35,"Duration":241080,"SoundDuration":241080,"Delta":140960997},{"NoteNumber":74,"Velocity":35,"Duration":241080,"SoundDuration":241080,"Delta":140960997},{"NoteNumber":103,"Velocity":64,"Duration":80861,"SoundDuration":80861,"Delta":141282437},{"NoteNumber":95,"Velocity":57,"Duration":80861,"SoundDuration":80861,"Delta":141282437},{"NoteNumber":100,"Velocity":72,"Duration":82800,"SoundDuration":82800,"Delta":141617034},{"NoteNumber":92,"Velocity":63,"Duration":82800,"SoundDuration":82800,"Delta":141617034},{"NoteNumber":71,"Velocity":50,"Duration":78116,"SoundDuration":78116,"Delta":141959656},{"NoteNumber":69,"Velocity":47,"Duration":78116,"SoundDuration":78116,"Delta":142040466},{"NoteNumber":68,"Velocity":50,"Duration":78116,"SoundDuration":78116,"Delta":142121277},{"NoteNumber":74,"Velocity":32,"Duration":369285,"SoundDuration":369285,"Delta":142161682},{"NoteNumber":66,"Velocity":46,"Duration":78116,"SoundDuration":78116,"Delta":142202087},{"NoteNumber":80,"Velocity":32,"Duration":328880,"SoundDuration":328880,"Delta":142202087},{"NoteNumber":83,"Velocity":32,"Duration":288475,"SoundDuration":288475,"Delta":142242492},{"NoteNumber":64,"Velocity":54,"Duration":248070,"SoundDuration":248070,"Delta":142282897},{"NoteNumber":88,"Velocity":36,"Duration":248070,"SoundDuration":248070,"Delta":142282897},{"NoteNumber":88,"Velocity":54,"Duration":75552,"SoundDuration":75552,"Delta":142613658},{"NoteNumber":92,"Velocity":54,"Duration":75552,"SoundDuration":75552,"Delta":142691815},{"NoteNumber":95,"Velocity":56,"Duration":75552,"SoundDuration":75552,"Delta":142769973},{"NoteNumber":92,"Velocity":53,"Duration":75552,"SoundDuration":75552,"Delta":142848130},{"NoteNumber":93,"Velocity":56,"Duration":246602,"SoundDuration":246602,"Delta":142926288},{"NoteNumber":76,"Velocity":52,"Duration":75145,"SoundDuration":75145,"Delta":143255091},{"NoteNumber":84,"Velocity":36,"Duration":233209,"SoundDuration":233209,"Delta":143255091},{"NoteNumber":81,"Velocity":33,"Duration":233209,"SoundDuration":233209,"Delta":143255091},{"NoteNumber":74,"Velocity":49,"Duration":75145,"SoundDuration":75145,"Delta":143332827},{"NoteNumber":72,"Velocity":51,"Duration":75145,"SoundDuration":75145,"Delta":143410564},{"NoteNumber":71,"Velocity":47,"Duration":75145,"SoundDuration":75145,"Delta":143488300},{"NoteNumber":69,"Velocity":54,"Duration":242430,"SoundDuration":242430,"Delta":143566037},{"NoteNumber":84,"Velocity":41,"Duration":242430,"SoundDuration":242430,"Delta":143566037},{"NoteNumber":81,"Velocity":36,"Duration":242430,"SoundDuration":242430,"Delta":143566037},{"NoteNumber":76,"Velocity":36,"Duration":242430,"SoundDuration":242430,"Delta":143566037},{"NoteNumber":76,"Velocity":51,"Duration":74742,"SoundDuration":74742,"Delta":143888114},{"NoteNumber":72,"Velocity":47,"Duration":74742,"SoundDuration":74742,"Delta":143965434},{"NoteNumber":69,"Velocity":51,"Duration":74742,"SoundDuration":74742,"Delta":144042753},{"NoteNumber":67,"Velocity":47,"Duration":74742,"SoundDuration":74742,"Delta":144120073},{"NoteNumber":65,"Velocity":54,"Duration":242430,"SoundDuration":242430,"Delta":144197392},{"NoteNumber":89,"Velocity":50,"Duration":74336,"SoundDuration":74336,"Delta":144520633},{"NoteNumber":72,"Velocity":23,"Duration":230698,"SoundDuration":230698,"Delta":144520633},{"NoteNumber":77,"Velocity":23,"Duration":230698,"SoundDuration":230698,"Delta":144520633},{"NoteNumber":81,"Velocity":26,"Duration":230698,"SoundDuration":230698,"Delta":144520633},{"NoteNumber":93,"Velocity":47,"Duration":74336,"SoundDuration":74336,"Delta":144597533},{"NoteNumber":96,"Velocity":50,"Duration":74336,"SoundDuration":74336,"Delta":144674432},{"NoteNumber":93,"Velocity":46,"Duration":74336,"SoundDuration":74336,"Delta":144751332},{"NoteNumber":89,"Velocity":54,"Duration":241080,"SoundDuration":241080,"Delta":144828231},{"NoteNumber":84,"Velocity":27,"Duration":241080,"SoundDuration":241080,"Delta":144828231},{"NoteNumber":81,"Velocity":25,"Duration":241080,"SoundDuration":241080,"Delta":144828231},{"NoteNumber":77,"Velocity":25,"Duration":241080,"SoundDuration":241080,"Delta":144828231},{"NoteNumber":77,"Velocity":47,"Duration":72776,"SoundDuration":72776,"Delta":145149671},{"NoteNumber":72,"Velocity":43,"Duration":72776,"SoundDuration":72776,"Delta":145224957},{"NoteNumber":69,"Velocity":47,"Duration":72776,"SoundDuration":72776,"Delta":145300243},{"NoteNumber":65,"Velocity":45,"Duration":72776,"SoundDuration":72776,"Delta":145375529},{"NoteNumber":64,"Velocity":54,"Duration":239744,"SoundDuration":239744,"Delta":145450815},{"NoteNumber":88,"Velocity":45,"Duration":74742,"SoundDuration":74742,"Delta":145769609},{"NoteNumber":72,"Velocity":23,"Duration":231958,"SoundDuration":231958,"Delta":145769609},{"NoteNumber":76,"Velocity":23,"Duration":231958,"SoundDuration":231958,"Delta":145769609},{"NoteNumber":81,"Velocity":26,"Duration":231958,"SoundDuration":231958,"Delta":145769609},{"NoteNumber":93,"Velocity":41,"Duration":74742,"SoundDuration":74742,"Delta":145846929},{"NoteNumber":96,"Velocity":45,"Duration":74742,"SoundDuration":74742,"Delta":145924249},{"NoteNumber":93,"Velocity":42,"Duration":74742,"SoundDuration":74742,"Delta":146001568},{"NoteNumber":88,"Velocity":49,"Duration":239744,"SoundDuration":239744,"Delta":146078888},{"NoteNumber":84,"Velocity":27,"Duration":239744,"SoundDuration":239744,"Delta":146078888},{"NoteNumber":81,"Velocity":25,"Duration":239744,"SoundDuration":239744,"Delta":146078888},{"NoteNumber":76,"Velocity":25,"Duration":239744,"SoundDuration":239744,"Delta":146078888},{"NoteNumber":76,"Velocity":45,"Duration":75036,"SoundDuration":75036,"Delta":146398547},{"NoteNumber":72,"Velocity":42,"Duration":75036,"SoundDuration":75036,"Delta":146476171},{"NoteNumber":69,"Velocity":45,"Duration":75036,"SoundDuration":75036,"Delta":146553794},{"NoteNumber":64,"Velocity":42,"Duration":75036,"SoundDuration":75036,"Delta":146631418},{"NoteNumber":63,"Velocity":47,"Duration":254122,"SoundDuration":254122,"Delta":146709041},{"NoteNumber":87,"Velocity":44,"Duration":75552,"SoundDuration":75552,"Delta":147045409},{"NoteNumber":72,"Velocity":23,"Duration":234472,"SoundDuration":234472,"Delta":147045409},{"NoteNumber":78,"Velocity":23,"Duration":234472,"SoundDuration":234472,"Delta":147045409},{"NoteNumber":81,"Velocity":26,"Duration":234472,"SoundDuration":234472,"Delta":147045409},{"NoteNumber":93,"Velocity":41,"Duration":75552,"SoundDuration":75552,"Delta":147123566},{"NoteNumber":96,"Velocity":44,"Duration":75552,"SoundDuration":75552,"Delta":147201724},{"NoteNumber":93,"Velocity":40,"Duration":75552,"SoundDuration":75552,"Delta":147279882},{"NoteNumber":87,"Velocity":45,"Duration":246602,"SoundDuration":246602,"Delta":147358039},{"NoteNumber":84,"Velocity":27,"Duration":246602,"SoundDuration":246602,"Delta":147358039},{"NoteNumber":81,"Velocity":25,"Duration":246602,"SoundDuration":246602,"Delta":147358039},{"NoteNumber":78,"Velocity":25,"Duration":246602,"SoundDuration":246602,"Delta":147358039},{"NoteNumber":75,"Velocity":45,"Duration":73941,"SoundDuration":73941,"Delta":147686842},{"NoteNumber":72,"Velocity":41,"Duration":73941,"SoundDuration":73941,"Delta":147763334},{"NoteNumber":69,"Velocity":45,"Duration":73941,"SoundDuration":73941,"Delta":147839826},{"NoteNumber":66,"Velocity":42,"Duration":73941,"SoundDuration":73941,"Delta":147916317},{"NoteNumber":64,"Velocity":50,"Duration":242430,"SoundDuration":242430,"Delta":147992809},{"NoteNumber":88,"Velocity":44,"Duration":76396,"SoundDuration":76396,"Delta":148314886},{"NoteNumber":71,"Velocity":26,"Duration":237091,"SoundDuration":237091,"Delta":148314886},{"NoteNumber":76,"Velocity":26,"Duration":237091,"SoundDuration":237091,"Delta":148314886},{"NoteNumber":79,"Velocity":29,"Duration":237091,"SoundDuration":237091,"Delta":148314886},{"NoteNumber":91,"Velocity":40,"Duration":76396,"SoundDuration":76396,"Delta":148393917},{"NoteNumber":95,"Velocity":44,"Duration":76396,"SoundDuration":76396,"Delta":148472947},{"NoteNumber":91,"Velocity":40,"Duration":76396,"SoundDuration":76396,"Delta":148551978},{"NoteNumber":88,"Velocity":46,"Duration":255507,"SoundDuration":255507,"Delta":148631008},{"NoteNumber":83,"Velocity":32,"Duration":255507,"SoundDuration":255507,"Delta":148631008},{"NoteNumber":79,"Velocity":27,"Duration":255507,"SoundDuration":255507,"Delta":148631008},{"NoteNumber":76,"Velocity":27,"Duration":255507,"SoundDuration":255507,"Delta":148631008},{"NoteNumber":71,"Velocity":46,"Duration":74336,"SoundDuration":74336,"Delta":148971685},{"NoteNumber":67,"Velocity":43,"Duration":74336,"SoundDuration":74336,"Delta":149048585},{"NoteNumber":64,"Velocity":46,"Duration":74336,"SoundDuration":74336,"Delta":149125484},{"NoteNumber":62,"Velocity":43,"Duration":74336,"SoundDuration":74336,"Delta":149202383},{"NoteNumber":60,"Velocity":51,"Duration":242430,"SoundDuration":242430,"Delta":149279283},{"NoteNumber":84,"Velocity":43,"Duration":301144,"SoundDuration":301144,"Delta":149602524},{"NoteNumber":88,"Velocity":49,"Duration":72776,"SoundDuration":72776,"Delta":149602524},{"NoteNumber":67,"Velocity":29,"Duration":225858,"SoundDuration":225858,"Delta":149602524},{"NoteNumber":76,"Velocity":29,"Duration":225858,"SoundDuration":225858,"Delta":149602524},{"NoteNumber":79,"Velocity":33,"Duration":225858,"SoundDuration":225858,"Delta":149602524},{"NoteNumber":91,"Velocity":45,"Duration":72776,"SoundDuration":72776,"Delta":149677810},{"NoteNumber":96,"Velocity":49,"Duration":72776,"SoundDuration":72776,"Delta":149753096},{"NoteNumber":91,"Velocity":45,"Duration":72776,"SoundDuration":72776,"Delta":149828382},{"NoteNumber":84,"Velocity":43,"Duration":153709,"SoundDuration":153709,"Delta":149903668},{"NoteNumber":88,"Velocity":52,"Duration":153709,"SoundDuration":153709,"Delta":149903668},{"NoteNumber":72,"Velocity":32,"Duration":153709,"SoundDuration":153709,"Delta":149903668},{"NoteNumber":79,"Velocity":36,"Duration":153709,"SoundDuration":153709,"Delta":149903668},{"NoteNumber":76,"Velocity":32,"Duration":153709,"SoundDuration":153709,"Delta":149903668},{"NoteNumber":72,"Velocity":49,"Duration":72391,"SoundDuration":72391,"Delta":150216299},{"NoteNumber":67,"Velocity":45,"Duration":72391,"SoundDuration":72391,"Delta":150291186},{"NoteNumber":64,"Velocity":49,"Duration":72391,"SoundDuration":72391,"Delta":150366074},{"NoteNumber":60,"Velocity":45,"Duration":72391,"SoundDuration":72391,"Delta":150440962},{"NoteNumber":59,"Velocity":53,"Duration":234472,"SoundDuration":234472,"Delta":150515849},{"NoteNumber":83,"Velocity":43,"Duration":304351,"SoundDuration":304351,"Delta":150828480},{"NoteNumber":88,"Velocity":49,"Duration":73551,"SoundDuration":73551,"Delta":150828480},{"NoteNumber":67,"Velocity":30,"Duration":228263,"SoundDuration":228263,"Delta":150828480},{"NoteNumber":76,"Velocity":30,"Duration":228263,"SoundDuration":228263,"Delta":150828480},{"NoteNumber":79,"Velocity":34,"Duration":228263,"SoundDuration":228263,"Delta":150828480},{"NoteNumber":91,"Velocity":45,"Duration":73551,"SoundDuration":73551,"Delta":150904568},{"NoteNumber":95,"Velocity":49,"Duration":73551,"SoundDuration":73551,"Delta":150980656},{"NoteNumber":91,"Velocity":45,"Duration":73551,"SoundDuration":73551,"Delta":151056744},{"NoteNumber":83,"Velocity":43,"Duration":156283,"SoundDuration":156283,"Delta":151132832},{"NoteNumber":88,"Velocity":51,"Duration":156283,"SoundDuration":156283,"Delta":151132832},{"NoteNumber":71,"Velocity":32,"Duration":156283,"SoundDuration":156283,"Delta":151132832},{"NoteNumber":79,"Velocity":36,"Duration":156283,"SoundDuration":156283,"Delta":151132832},{"NoteNumber":76,"Velocity":32,"Duration":156283,"SoundDuration":156283,"Delta":151132832},{"NoteNumber":71,"Velocity":50,"Duration":73158,"SoundDuration":73158,"Delta":151450696},{"NoteNumber":67,"Velocity":45,"Duration":73158,"SoundDuration":73158,"Delta":151526377},{"NoteNumber":64,"Velocity":50,"Duration":73158,"SoundDuration":73158,"Delta":151602058},{"NoteNumber":59,"Velocity":46,"Duration":73158,"SoundDuration":73158,"Delta":151677739},{"NoteNumber":58,"Velocity":54,"Duration":245204,"SoundDuration":245204,"Delta":151753420},{"NoteNumber":82,"Velocity":53,"Duration":330760,"SoundDuration":330760,"Delta":152080360},{"NoteNumber":88,"Velocity":53,"Duration":79933,"SoundDuration":79933,"Delta":152080360},{"NoteNumber":67,"Velocity":30,"Duration":248070,"SoundDuration":248070,"Delta":152080360},{"NoteNumber":76,"Velocity":30,"Duration":248070,"SoundDuration":248070,"Delta":152080360},{"NoteNumber":79,"Velocity":34,"Duration":248070,"SoundDuration":248070,"Delta":152080360},{"NoteNumber":91,"Velocity":49,"Duration":79933,"SoundDuration":79933,"Delta":152163050},{"NoteNumber":94,"Velocity":53,"Duration":79933,"SoundDuration":79933,"Delta":152245741},{"NoteNumber":91,"Velocity":49,"Duration":79933,"SoundDuration":79933,"Delta":152328431},{"NoteNumber":82,"Velocity":56,"Duration":157165,"SoundDuration":157165,"Delta":152411121},{"NoteNumber":88,"Velocity":56,"Duration":157165,"SoundDuration":157165,"Delta":152411121},{"NoteNumber":73,"Velocity":32,"Duration":157165,"SoundDuration":157165,"Delta":152411121},{"NoteNumber":79,"Velocity":36,"Duration":157165,"SoundDuration":157165,"Delta":152411121},{"NoteNumber":76,"Velocity":32,"Duration":157165,"SoundDuration":157165,"Delta":152411121},{"NoteNumber":70,"Velocity":51,"Duration":78565,"SoundDuration":78565,"Delta":152730780},{"NoteNumber":73,"Velocity":27,"Duration":243823,"SoundDuration":243823,"Delta":152730780},{"NoteNumber":76,"Velocity":27,"Duration":243823,"SoundDuration":243823,"Delta":152730780},{"NoteNumber":79,"Velocity":32,"Duration":243823,"SoundDuration":243823,"Delta":152730780},{"NoteNumber":67,"Velocity":47,"Duration":78565,"SoundDuration":78565,"Delta":152812054},{"NoteNumber":64,"Velocity":51,"Duration":78565,"SoundDuration":78565,"Delta":152893329},{"NoteNumber":61,"Velocity":47,"Duration":78565,"SoundDuration":78565,"Delta":152974603},{"NoteNumber":59,"Velocity":54,"Duration":242430,"SoundDuration":242430,"Delta":153055877},{"NoteNumber":75,"Velocity":30,"Duration":242430,"SoundDuration":242430,"Delta":153055877},{"NoteNumber":78,"Velocity":30,"Duration":242430,"SoundDuration":242430,"Delta":153055877},{"NoteNumber":83,"Velocity":34,"Duration":242430,"SoundDuration":242430,"Delta":153055877},{"NoteNumber":87,"Velocity":50,"Duration":74336,"SoundDuration":74336,"Delta":153377955},{"NoteNumber":95,"Velocity":46,"Duration":74336,"SoundDuration":74336,"Delta":153454854},{"NoteNumber":90,"Velocity":50,"Duration":74336,"SoundDuration":74336,"Delta":153531753},{"NoteNumber":87,"Velocity":45,"Duration":74336,"SoundDuration":74336,"Delta":153608653},{"NoteNumber":83,"Velocity":53,"Duration":62138,"SoundDuration":62138,"Delta":153685552},{"NoteNumber":75,"Velocity":52,"Duration":65527,"SoundDuration":65527,"Delta":153685552},{"NoteNumber":83,"Velocity":45,"Duration":65625,"SoundDuration":65625,"Delta":153753340},{"NoteNumber":78,"Velocity":50,"Duration":65843,"SoundDuration":65843,"Delta":153821236},{"NoteNumber":75,"Velocity":46,"Duration":66047,"SoundDuration":66047,"Delta":153889350},{"NoteNumber":81,"Velocity":50,"Duration":66155,"SoundDuration":66155,"Delta":153957679},{"NoteNumber":83,"Velocity":46,"Duration":66471,"SoundDuration":66471,"Delta":154026116},{"NoteNumber":81,"Velocity":50,"Duration":66573,"SoundDuration":66573,"Delta":154094879},{"NoteNumber":78,"Velocity":47,"Duration":66801,"SoundDuration":66801,"Delta":154163756},{"NoteNumber":76,"Velocity":53,"Duration":63651,"SoundDuration":63651,"Delta":154232861},{"NoteNumber":67,"Velocity":51,"Duration":67123,"SoundDuration":67123,"Delta":154232861},{"NoteNumber":76,"Velocity":46,"Duration":67123,"SoundDuration":67123,"Delta":154302299},{"NoteNumber":71,"Velocity":50,"Duration":67123,"SoundDuration":67123,"Delta":154371737},{"NoteNumber":67,"Velocity":46,"Duration":67123,"SoundDuration":67123,"Delta":154441175},{"NoteNumber":76,"Velocity":53,"Duration":64917,"SoundDuration":64917,"Delta":154510613},{"NoteNumber":79,"Velocity":47,"Duration":64917,"SoundDuration":64917,"Delta":154577769},{"NoteNumber":76,"Velocity":50,"Duration":65221,"SoundDuration":65221,"Delta":154644926},{"NoteNumber":74,"Velocity":47,"Duration":65221,"SoundDuration":65221,"Delta":154712396},{"NoteNumber":72,"Velocity":54,"Duration":62138,"SoundDuration":62138,"Delta":154779866},{"NoteNumber":64,"Velocity":53,"Duration":65527,"SoundDuration":65527,"Delta":154779866},{"NoteNumber":72,"Velocity":47,"Duration":65527,"SoundDuration":65527,"Delta":154847654},{"NoteNumber":67,"Velocity":51,"Duration":65843,"SoundDuration":65843,"Delta":154915441},{"NoteNumber":64,"Velocity":49,"Duration":65843,"SoundDuration":65843,"Delta":154983555},{"NoteNumber":72,"Velocity":54,"Duration":66155,"SoundDuration":66155,"Delta":155051669},{"NoteNumber":76,"Velocity":49,"Duration":66155,"SoundDuration":66155,"Delta":155120105},{"NoteNumber":72,"Velocity":52,"Duration":66471,"SoundDuration":66471,"Delta":155188542},{"NoteNumber":70,"Velocity":50,"Duration":66573,"SoundDuration":66573,"Delta":155257305},{"NoteNumber":71,"Velocity":54,"Duration":63651,"SoundDuration":63651,"Delta":155326183},{"NoteNumber":63,"Velocity":54,"Duration":67123,"SoundDuration":67123,"Delta":155326183},{"NoteNumber":71,"Velocity":50,"Duration":67123,"SoundDuration":67123,"Delta":155395621},{"NoteNumber":66,"Velocity":52,"Duration":67123,"SoundDuration":67123,"Delta":155465059},{"NoteNumber":63,"Velocity":49,"Duration":67123,"SoundDuration":67123,"Delta":155534497},{"NoteNumber":75,"Velocity":54,"Duration":64611,"SoundDuration":64611,"Delta":155603935},{"NoteNumber":83,"Velocity":50,"Duration":64611,"SoundDuration":64611,"Delta":155670774},{"NoteNumber":78,"Velocity":53,"Duration":64611,"SoundDuration":64611,"Delta":155737613},{"NoteNumber":75,"Velocity":50,"Duration":64917,"SoundDuration":64917,"Delta":155804452},{"NoteNumber":71,"Velocity":55,"Duration":61559,"SoundDuration":61559,"Delta":155871608},{"NoteNumber":63,"Velocity":54,"Duration":64917,"SoundDuration":64917,"Delta":155871608},{"NoteNumber":71,"Velocity":50,"Duration":64917,"SoundDuration":64917,"Delta":155938764},{"NoteNumber":66,"Velocity":54,"Duration":65221,"SoundDuration":65221,"Delta":156005920},{"NoteNumber":63,"Velocity":51,"Duration":65221,"SoundDuration":65221,"Delta":156073390},{"NoteNumber":69,"Velocity":57,"Duration":65221,"SoundDuration":65221,"Delta":156140861},{"NoteNumber":71,"Velocity":52,"Duration":65527,"SoundDuration":65527,"Delta":156208331},{"NoteNumber":69,"Velocity":55,"Duration":65527,"SoundDuration":65527,"Delta":156276118},{"NoteNumber":66,"Velocity":54,"Duration":65625,"SoundDuration":65625,"Delta":156343906},{"NoteNumber":64,"Velocity":63,"Duration":63032,"SoundDuration":63032,"Delta":156411802},{"NoteNumber":55,"Velocity":63,"Duration":66471,"SoundDuration":66471,"Delta":156411802},{"NoteNumber":64,"Velocity":55,"Duration":66471,"SoundDuration":66471,"Delta":156480565},{"NoteNumber":59,"Velocity":59,"Duration":66471,"SoundDuration":66471,"Delta":156549328},{"NoteNumber":55,"Velocity":54,"Duration":66471,"SoundDuration":66471,"Delta":156618091},{"NoteNumber":64,"Velocity":63,"Duration":64017,"SoundDuration":64017,"Delta":156686855},{"NoteNumber":67,"Velocity":55,"Duration":64109,"SoundDuration":64109,"Delta":156753080},{"NoteNumber":64,"Velocity":60,"Duration":64312,"SoundDuration":64312,"Delta":156819407},{"NoteNumber":62,"Velocity":54,"Duration":64611,"SoundDuration":64611,"Delta":156885937},{"NoteNumber":60,"Velocity":64,"Duration":61348,"SoundDuration":61348,"Delta":156952776},{"NoteNumber":52,"Velocity":63,"Duration":64706,"SoundDuration":64706,"Delta":156952776},{"NoteNumber":60,"Velocity":55,"Duration":64917,"SoundDuration":64917,"Delta":157019721},{"NoteNumber":55,"Velocity":59,"Duration":65221,"SoundDuration":65221,"Delta":157086877},{"NoteNumber":52,"Velocity":56,"Duration":65422,"SoundDuration":65422,"Delta":157154347},{"NoteNumber":60,"Velocity":63,"Duration":65527,"SoundDuration":65527,"Delta":157222029},{"NoteNumber":64,"Velocity":55,"Duration":65843,"SoundDuration":65843,"Delta":157289817},{"NoteNumber":60,"Velocity":60,"Duration":66047,"SoundDuration":66047,"Delta":157357930},{"NoteNumber":58,"Velocity":55,"Duration":66253,"SoundDuration":66253,"Delta":157426259},{"NoteNumber":59,"Velocity":65,"Duration":353430,"SoundDuration":353430,"Delta":157494805},{"NoteNumber":51,"Velocity":66,"Duration":80223,"SoundDuration":80223,"Delta":157494805},{"NoteNumber":55,"Velocity":61,"Duration":68763,"SoundDuration":68763,"Delta":157563568},{"NoteNumber":54,"Velocity":61,"Duration":80223,"SoundDuration":80223,"Delta":157632331},{"NoteNumber":51,"Velocity":59,"Duration":68763,"SoundDuration":68763,"Delta":157701094},{"NoteNumber":47,"Velocity":52,"Duration":78378,"SoundDuration":78378,"Delta":157769858},{"NoteNumber":63,"Velocity":55,"Duration":78768,"SoundDuration":78768,"Delta":157836938},{"NoteNumber":54,"Velocity":53,"Duration":78768,"SoundDuration":78768,"Delta":157836938},{"NoteNumber":66,"Velocity":56,"Duration":78033,"SoundDuration":78033,"Delta":157904514},{"NoteNumber":58,"Velocity":54,"Duration":66944,"SoundDuration":66944,"Delta":157904514},{"NoteNumber":70,"Velocity":57,"Duration":66222,"SoundDuration":66222,"Delta":157971459},{"NoteNumber":59,"Velocity":54,"Duration":66222,"SoundDuration":66222,"Delta":157971459},{"NoteNumber":71,"Velocity":59,"Duration":76497,"SoundDuration":76497,"Delta":158037681},{"NoteNumber":63,"Velocity":56,"Duration":76497,"SoundDuration":76497,"Delta":158037681},{"NoteNumber":75,"Velocity":60,"Duration":75755,"SoundDuration":75755,"Delta":158103293},{"NoteNumber":66,"Velocity":57,"Duration":75755,"SoundDuration":75755,"Delta":158103293},{"NoteNumber":78,"Velocity":61,"Duration":74978,"SoundDuration":74978,"Delta":158168310},{"NoteNumber":70,"Velocity":59,"Duration":74978,"SoundDuration":74978,"Delta":158168310},{"NoteNumber":82,"Velocity":62,"Duration":63763,"SoundDuration":63763,"Delta":158232645},{"NoteNumber":71,"Velocity":61,"Duration":63763,"SoundDuration":63763,"Delta":158232645},{"NoteNumber":83,"Velocity":63,"Duration":73649,"SoundDuration":73649,"Delta":158296408},{"NoteNumber":75,"Velocity":63,"Duration":73649,"SoundDuration":73649,"Delta":158296408},{"NoteNumber":87,"Velocity":63,"Duration":72915,"SoundDuration":72915,"Delta":158359602},{"NoteNumber":78,"Velocity":63,"Duration":72915,"SoundDuration":72915,"Delta":158359602},{"NoteNumber":90,"Velocity":65,"Duration":72286,"SoundDuration":72286,"Delta":158422153},{"NoteNumber":82,"Velocity":65,"Duration":72286,"SoundDuration":72286,"Delta":158422153},{"NoteNumber":94,"Velocity":67,"Duration":61388,"SoundDuration":61388,"Delta":158484164},{"NoteNumber":83,"Velocity":66,"Duration":61388,"SoundDuration":61388,"Delta":158484164},{"NoteNumber":95,"Velocity":69,"Duration":360634,"SoundDuration":360634,"Delta":158545553},{"NoteNumber":87,"Velocity":69,"Duration":360634,"SoundDuration":360634,"Delta":158545553},{"NoteNumber":92,"Velocity":37,"Duration":127749,"SoundDuration":127749,"Delta":159988092},{"NoteNumber":95,"Velocity":43,"Duration":127749,"SoundDuration":127749,"Delta":159988092},{"NoteNumber":90,"Velocity":34,"Duration":127749,"SoundDuration":127749,"Delta":160118007},{"NoteNumber":93,"Velocity":37,"Duration":127749,"SoundDuration":127749,"Delta":160118007},{"NoteNumber":88,"Velocity":42,"Duration":224124,"SoundDuration":224124,"Delta":160247922},{"NoteNumber":92,"Velocity":46,"Duration":224124,"SoundDuration":224124,"Delta":160247922},{"NoteNumber":83,"Velocity":34,"Duration":91687,"SoundDuration":91687,"Delta":160247922},{"NoteNumber":76,"Velocity":34,"Duration":91687,"SoundDuration":91687,"Delta":160247922},{"NoteNumber":76,"Velocity":33,"Duration":91687,"SoundDuration":91687,"Delta":160370172},{"NoteNumber":83,"Velocity":33,"Duration":91687,"SoundDuration":91687,"Delta":160370172},{"NoteNumber":88,"Velocity":34,"Duration":120212,"SoundDuration":120212,"Delta":160492421},{"NoteNumber":92,"Velocity":37,"Duration":120212,"SoundDuration":120212,"Delta":160492421},{"NoteNumber":83,"Velocity":31,"Duration":123379,"SoundDuration":123379,"Delta":160614671},{"NoteNumber":90,"Velocity":35,"Duration":123379,"SoundDuration":123379,"Delta":160614671},{"NoteNumber":80,"Velocity":36,"Duration":224124,"SoundDuration":224124,"Delta":160740141},{"NoteNumber":88,"Velocity":41,"Duration":224124,"SoundDuration":224124,"Delta":160740141},{"NoteNumber":71,"Velocity":34,"Duration":91687,"SoundDuration":91687,"Delta":160740141},{"NoteNumber":76,"Velocity":34,"Duration":91687,"SoundDuration":91687,"Delta":160740141},{"NoteNumber":71,"Velocity":33,"Duration":91687,"SoundDuration":91687,"Delta":160862391},{"NoteNumber":76,"Velocity":33,"Duration":91687,"SoundDuration":91687,"Delta":160862391},{"NoteNumber":83,"Velocity":42,"Duration":120212,"SoundDuration":120212,"Delta":160984640},{"NoteNumber":80,"Velocity":36,"Duration":120212,"SoundDuration":120212,"Delta":160984640},{"NoteNumber":78,"Velocity":33,"Duration":123918,"SoundDuration":123918,"Delta":161106890},{"NoteNumber":81,"Velocity":36,"Duration":123918,"SoundDuration":123918,"Delta":161106890},{"NoteNumber":76,"Velocity":40,"Duration":224124,"SoundDuration":224124,"Delta":161232908},{"NoteNumber":80,"Velocity":45,"Duration":224124,"SoundDuration":224124,"Delta":161232908},{"NoteNumber":64,"Velocity":34,"Duration":91687,"SoundDuration":91687,"Delta":161232908},{"NoteNumber":71,"Velocity":34,"Duration":91687,"SoundDuration":91687,"Delta":161232908},{"NoteNumber":64,"Velocity":31,"Duration":91687,"SoundDuration":91687,"Delta":161355158},{"NoteNumber":71,"Velocity":31,"Duration":91687,"SoundDuration":91687,"Delta":161355158},{"NoteNumber":76,"Velocity":34,"Duration":120212,"SoundDuration":120212,"Delta":161477407},{"NoteNumber":80,"Velocity":37,"Duration":120212,"SoundDuration":120212,"Delta":161477407},{"NoteNumber":71,"Velocity":31,"Duration":122834,"SoundDuration":122834,"Delta":161599657},{"NoteNumber":78,"Velocity":35,"Duration":122834,"SoundDuration":122834,"Delta":161599657},{"NoteNumber":68,"Velocity":36,"Duration":225096,"SoundDuration":225096,"Delta":161724574},{"NoteNumber":76,"Velocity":42,"Duration":225096,"SoundDuration":225096,"Delta":161724574},{"NoteNumber":64,"Velocity":34,"Duration":92084,"SoundDuration":92084,"Delta":161724574},{"NoteNumber":59,"Velocity":34,"Duration":92084,"SoundDuration":92084,"Delta":161724574},{"NoteNumber":59,"Velocity":31,"Duration":92084,"SoundDuration":92084,"Delta":161847353},{"NoteNumber":64,"Velocity":31,"Duration":92084,"SoundDuration":92084,"Delta":161847353},{"NoteNumber":68,"Velocity":36,"Duration":118693,"SoundDuration":118693,"Delta":161970133},{"NoteNumber":76,"Velocity":42,"Duration":118693,"SoundDuration":118693,"Delta":161970133},{"NoteNumber":71,"Velocity":33,"Duration":121249,"SoundDuration":121249,"Delta":162090838},{"NoteNumber":78,"Velocity":36,"Duration":121249,"SoundDuration":121249,"Delta":162090838},{"NoteNumber":76,"Velocity":40,"Duration":226058,"SoundDuration":226058,"Delta":162214143},{"NoteNumber":80,"Velocity":45,"Duration":226058,"SoundDuration":226058,"Delta":162214143},{"NoteNumber":52,"Velocity":34,"Duration":92478,"SoundDuration":92478,"Delta":162214143},{"NoteNumber":59,"Velocity":34,"Duration":92478,"SoundDuration":92478,"Delta":162214143},{"NoteNumber":52,"Velocity":32,"Duration":92478,"SoundDuration":92478,"Delta":162337447},{"NoteNumber":59,"Velocity":32,"Duration":92478,"SoundDuration":92478,"Delta":162337447},{"NoteNumber":71,"Velocity":37,"Duration":119191,"SoundDuration":119191,"Delta":162460752},{"NoteNumber":78,"Velocity":43,"Duration":119191,"SoundDuration":119191,"Delta":162460752},{"NoteNumber":76,"Velocity":35,"Duration":122834,"SoundDuration":122834,"Delta":162581964},{"NoteNumber":80,"Velocity":39,"Duration":122834,"SoundDuration":122834,"Delta":162581964},{"NoteNumber":78,"Velocity":43,"Duration":229014,"SoundDuration":229014,"Delta":162706880},{"NoteNumber":81,"Velocity":47,"Duration":229014,"SoundDuration":229014,"Delta":162706880},{"NoteNumber":71,"Velocity":36,"Duration":93687,"SoundDuration":93687,"Delta":162706880},{"NoteNumber":63,"Velocity":36,"Duration":93687,"SoundDuration":93687,"Delta":162706880},{"NoteNumber":63,"Velocity":33,"Duration":93687,"SoundDuration":93687,"Delta":162831797},{"NoteNumber":71,"Velocity":33,"Duration":93687,"SoundDuration":93687,"Delta":162831797},{"NoteNumber":71,"Velocity":40,"Duration":120212,"SoundDuration":120212,"Delta":162956714},{"NoteNumber":78,"Velocity":45,"Duration":120212,"SoundDuration":120212,"Delta":162956714},{"NoteNumber":78,"Velocity":36,"Duration":125031,"SoundDuration":125031,"Delta":163078963},{"NoteNumber":81,"Velocity":41,"Duration":125031,"SoundDuration":125031,"Delta":163078963},{"NoteNumber":80,"Velocity":44,"Duration":227047,"SoundDuration":227047,"Delta":163206114},{"NoteNumber":83,"Velocity":50,"Duration":227047,"SoundDuration":227047,"Delta":163206114},{"NoteNumber":52,"Velocity":44,"Duration":92883,"SoundDuration":92883,"Delta":163206114},{"NoteNumber":59,"Velocity":44,"Duration":92883,"SoundDuration":92883,"Delta":163206114},{"NoteNumber":52,"Velocity":41,"Duration":92883,"SoundDuration":92883,"Delta":163329958},{"NoteNumber":59,"Velocity":41,"Duration":92883,"SoundDuration":92883,"Delta":163329958},{"NoteNumber":78,"Velocity":35,"Duration":119704,"SoundDuration":119704,"Delta":163453802},{"NoteNumber":81,"Velocity":39,"Duration":119704,"SoundDuration":119704,"Delta":163453802},{"NoteNumber":76,"Velocity":31,"Duration":122834,"SoundDuration":122834,"Delta":163575536},{"NoteNumber":80,"Velocity":35,"Duration":122834,"SoundDuration":122834,"Delta":163575536},{"NoteNumber":71,"Velocity":39,"Duration":239423,"SoundDuration":239423,"Delta":163700453},{"NoteNumber":78,"Velocity":44,"Duration":239423,"SoundDuration":239423,"Delta":163700453},{"NoteNumber":59,"Velocity":50,"Duration":105992,"SoundDuration":105992,"Delta":163700453},{"NoteNumber":71,"Velocity":50,"Duration":105992,"SoundDuration":105992,"Delta":163700453},{"NoteNumber":59,"Velocity":45,"Duration":88290,"SoundDuration":88290,"Delta":163841775},{"NoteNumber":71,"Velocity":45,"Duration":88290,"SoundDuration":88290,"Delta":163841775},{"NoteNumber":92,"Velocity":37,"Duration":119191,"SoundDuration":119191,"Delta":163959496},{"NoteNumber":95,"Velocity":43,"Duration":119191,"SoundDuration":119191,"Delta":163959496},{"NoteNumber":90,"Velocity":35,"Duration":119191,"SoundDuration":119191,"Delta":164080708},{"NoteNumber":93,"Velocity":39,"Duration":119191,"SoundDuration":119191,"Delta":164080708},{"NoteNumber":88,"Velocity":42,"Duration":219438,"SoundDuration":219438,"Delta":164201920},{"NoteNumber":92,"Velocity":46,"Duration":219438,"SoundDuration":219438,"Delta":164201920},{"NoteNumber":83,"Velocity":34,"Duration":89770,"SoundDuration":89770,"Delta":164201920},{"NoteNumber":76,"Velocity":34,"Duration":89770,"SoundDuration":89770,"Delta":164201920},{"NoteNumber":76,"Velocity":31,"Duration":89770,"SoundDuration":89770,"Delta":164321614},{"NoteNumber":83,"Velocity":31,"Duration":89770,"SoundDuration":89770,"Delta":164321614},{"NoteNumber":88,"Velocity":34,"Duration":117698,"SoundDuration":117698,"Delta":164441307},{"NoteNumber":92,"Velocity":37,"Duration":117698,"SoundDuration":117698,"Delta":164441307},{"NoteNumber":83,"Velocity":30,"Duration":120212,"SoundDuration":120212,"Delta":164561001},{"NoteNumber":90,"Velocity":34,"Duration":120212,"SoundDuration":120212,"Delta":164561001},{"NoteNumber":80,"Velocity":36,"Duration":219438,"SoundDuration":219438,"Delta":164683250},{"NoteNumber":88,"Velocity":41,"Duration":219438,"SoundDuration":219438,"Delta":164683250},{"NoteNumber":71,"Velocity":34,"Duration":89770,"SoundDuration":89770,"Delta":164683250},{"NoteNumber":76,"Velocity":34,"Duration":89770,"SoundDuration":89770,"Delta":164683250},{"NoteNumber":71,"Velocity":32,"Duration":89770,"SoundDuration":89770,"Delta":164802944},{"NoteNumber":76,"Velocity":32,"Duration":89770,"SoundDuration":89770,"Delta":164802944},{"NoteNumber":83,"Velocity":42,"Duration":117698,"SoundDuration":117698,"Delta":164922637},{"NoteNumber":80,"Velocity":36,"Duration":117698,"SoundDuration":117698,"Delta":164922637},{"NoteNumber":78,"Velocity":34,"Duration":119704,"SoundDuration":119704,"Delta":165042331},{"NoteNumber":81,"Velocity":37,"Duration":119704,"SoundDuration":119704,"Delta":165042331},{"NoteNumber":76,"Velocity":40,"Duration":218531,"SoundDuration":218531,"Delta":165164064},{"NoteNumber":80,"Velocity":45,"Duration":218531,"SoundDuration":218531,"Delta":165164064},{"NoteNumber":64,"Velocity":34,"Duration":89399,"SoundDuration":89399,"Delta":165164064},{"NoteNumber":71,"Velocity":34,"Duration":89399,"SoundDuration":89399,"Delta":165164064},{"NoteNumber":64,"Velocity":32,"Duration":89399,"SoundDuration":89399,"Delta":165283263},{"NoteNumber":71,"Velocity":32,"Duration":89399,"SoundDuration":89399,"Delta":165283263},{"NoteNumber":76,"Velocity":34,"Duration":117212,"SoundDuration":117212,"Delta":165402462},{"NoteNumber":80,"Velocity":37,"Duration":117212,"SoundDuration":117212,"Delta":165402462},{"NoteNumber":71,"Velocity":34,"Duration":121779,"SoundDuration":121779,"Delta":165521661},{"NoteNumber":78,"Velocity":37,"Duration":121779,"SoundDuration":121779,"Delta":165521661},{"NoteNumber":68,"Velocity":36,"Duration":223178,"SoundDuration":223178,"Delta":165645505},{"NoteNumber":76,"Velocity":42,"Duration":223178,"SoundDuration":223178,"Delta":165645505},{"NoteNumber":59,"Velocity":34,"Duration":91300,"SoundDuration":91300,"Delta":165645505},{"NoteNumber":64,"Velocity":34,"Duration":91300,"SoundDuration":91300,"Delta":165645505},{"NoteNumber":59,"Velocity":32,"Duration":91300,"SoundDuration":91300,"Delta":165767239},{"NoteNumber":64,"Velocity":32,"Duration":91300,"SoundDuration":91300,"Delta":165767239},{"NoteNumber":68,"Velocity":36,"Duration":119704,"SoundDuration":119704,"Delta":165888972},{"NoteNumber":76,"Velocity":42,"Duration":119704,"SoundDuration":119704,"Delta":165888972},{"NoteNumber":71,"Velocity":34,"Duration":122305,"SoundDuration":122305,"Delta":166010706},{"NoteNumber":78,"Velocity":37,"Duration":122305,"SoundDuration":122305,"Delta":166010706},{"NoteNumber":76,"Velocity":40,"Duration":223178,"SoundDuration":223178,"Delta":166135084},{"NoteNumber":80,"Velocity":45,"Duration":223178,"SoundDuration":223178,"Delta":166135084},{"NoteNumber":52,"Velocity":35,"Duration":91300,"SoundDuration":91300,"Delta":166135084},{"NoteNumber":59,"Velocity":35,"Duration":91300,"SoundDuration":91300,"Delta":166135084},{"NoteNumber":52,"Velocity":32,"Duration":91300,"SoundDuration":91300,"Delta":166256817},{"NoteNumber":59,"Velocity":32,"Duration":91300,"SoundDuration":91300,"Delta":166256817},{"NoteNumber":78,"Velocity":39,"Duration":122305,"SoundDuration":122305,"Delta":166378551},{"NoteNumber":81,"Velocity":44,"Duration":122305,"SoundDuration":122305,"Delta":166378551},{"NoteNumber":76,"Velocity":35,"Duration":126143,"SoundDuration":126143,"Delta":166502929},{"NoteNumber":80,"Velocity":40,"Duration":126143,"SoundDuration":126143,"Delta":166502929},{"NoteNumber":71,"Velocity":36,"Duration":227047,"SoundDuration":227047,"Delta":166631211},{"NoteNumber":78,"Velocity":41,"Duration":227047,"SoundDuration":227047,"Delta":166631211},{"NoteNumber":63,"Velocity":34,"Duration":92883,"SoundDuration":92883,"Delta":166631211},{"NoteNumber":59,"Velocity":34,"Duration":92883,"SoundDuration":92883,"Delta":166631211},{"NoteNumber":59,"Velocity":33,"Duration":92883,"SoundDuration":92883,"Delta":166755055},{"NoteNumber":63,"Velocity":33,"Duration":92883,"SoundDuration":92883,"Delta":166755055},{"NoteNumber":76,"Velocity":40,"Duration":124461,"SoundDuration":124461,"Delta":166878899},{"NoteNumber":80,"Velocity":45,"Duration":124461,"SoundDuration":124461,"Delta":166878899},{"NoteNumber":71,"Velocity":33,"Duration":127860,"SoundDuration":127860,"Delta":167005470},{"NoteNumber":78,"Velocity":36,"Duration":127860,"SoundDuration":127860,"Delta":167005470},{"NoteNumber":68,"Velocity":35,"Duration":526075,"SoundDuration":526075,"Delta":167135498},{"NoteNumber":76,"Velocity":39,"Duration":526075,"SoundDuration":526075,"Delta":167135498},{"NoteNumber":59,"Velocity":45,"Duration":96211,"SoundDuration":96211,"Delta":167135498},{"NoteNumber":52,"Velocity":45,"Duration":96211,"SoundDuration":96211,"Delta":167135498},{"NoteNumber":59,"Velocity":43,"Duration":93446,"SoundDuration":93446,"Delta":167263780},{"NoteNumber":52,"Velocity":43,"Duration":93446,"SoundDuration":93446,"Delta":167263780},{"NoteNumber":64,"Velocity":47,"Duration":99522,"SoundDuration":99522,"Delta":167388375},{"NoteNumber":64,"Velocity":45,"Duration":105376,"SoundDuration":105376,"Delta":167521072},{"NoteNumber":71,"Velocity":53,"Duration":271665,"SoundDuration":271665,"Delta":167661574},{"NoteNumber":56,"Velocity":53,"Duration":57425,"SoundDuration":57425,"Delta":167933239},{"NoteNumber":64,"Velocity":60,"Duration":57425,"SoundDuration":57425,"Delta":167933239},{"NoteNumber":64,"Velocity":51,"Duration":61258,"SoundDuration":61258,"Delta":168052051},{"NoteNumber":68,"Velocity":56,"Duration":61258,"SoundDuration":61258,"Delta":168052051},{"NoteNumber":59,"Velocity":59,"Duration":226841,"SoundDuration":226841,"Delta":168178794},{"NoteNumber":66,"Velocity":65,"Duration":226841,"SoundDuration":226841,"Delta":168178794},{"NoteNumber":64,"Velocity":53,"Duration":56433,"SoundDuration":56433,"Delta":168426257},{"NoteNumber":68,"Velocity":60,"Duration":56433,"SoundDuration":56433,"Delta":168426257},{"NoteNumber":66,"Velocity":50,"Duration":58340,"SoundDuration":58340,"Delta":168543016},{"NoteNumber":69,"Velocity":55,"Duration":58340,"SoundDuration":58340,"Delta":168543016},{"NoteNumber":68,"Velocity":56,"Duration":224215,"SoundDuration":224215,"Delta":168663721},{"NoteNumber":71,"Velocity":63,"Duration":224215,"SoundDuration":224215,"Delta":168663721},{"NoteNumber":69,"Velocity":54,"Duration":56205,"SoundDuration":56205,"Delta":168908320},{"NoteNumber":73,"Velocity":62,"Duration":56205,"SoundDuration":56205,"Delta":168908320},{"NoteNumber":68,"Velocity":52,"Duration":58340,"SoundDuration":58340,"Delta":169024608},{"NoteNumber":71,"Velocity":57,"Duration":58340,"SoundDuration":58340,"Delta":169024608},{"NoteNumber":66,"Velocity":60,"Duration":228215,"SoundDuration":228215,"Delta":169145313},{"NoteNumber":69,"Velocity":66,"Duration":228215,"SoundDuration":228215,"Delta":169145313},{"NoteNumber":64,"Velocity":54,"Duration":56205,"SoundDuration":56205,"Delta":169394275},{"NoteNumber":68,"Velocity":61,"Duration":56205,"SoundDuration":56205,"Delta":169394275},{"NoteNumber":66,"Velocity":54,"Duration":58837,"SoundDuration":58837,"Delta":169510563},{"NoteNumber":69,"Velocity":61,"Duration":58837,"SoundDuration":58837,"Delta":169510563},{"NoteNumber":59,"Velocity":60,"Duration":228215,"SoundDuration":228215,"Delta":169632297},{"NoteNumber":66,"Velocity":66,"Duration":228215,"SoundDuration":228215,"Delta":169632297},{"NoteNumber":56,"Velocity":53,"Duration":58097,"SoundDuration":58097,"Delta":169879981},{"NoteNumber":64,"Velocity":60,"Duration":58097,"SoundDuration":58097,"Delta":169879981},{"NoteNumber":64,"Velocity":50,"Duration":59803,"SoundDuration":59803,"Delta":170000183},{"NoteNumber":68,"Velocity":55,"Duration":59803,"SoundDuration":59803,"Delta":170000183},{"NoteNumber":59,"Velocity":59,"Duration":230956,"SoundDuration":230956,"Delta":170123915},{"NoteNumber":66,"Velocity":65,"Duration":230956,"SoundDuration":230956,"Delta":170123915},{"NoteNumber":64,"Velocity":53,"Duration":57612,"SoundDuration":57612,"Delta":170375867},{"NoteNumber":68,"Velocity":60,"Duration":57612,"SoundDuration":57612,"Delta":170375867},{"NoteNumber":66,"Velocity":49,"Duration":60909,"SoundDuration":60909,"Delta":170495066},{"NoteNumber":69,"Velocity":54,"Duration":60909,"SoundDuration":60909,"Delta":170495066},{"NoteNumber":68,"Velocity":56,"Duration":225096,"SoundDuration":225096,"Delta":170621085},{"NoteNumber":71,"Velocity":63,"Duration":225096,"SoundDuration":225096,"Delta":170621085},{"NoteNumber":69,"Velocity":56,"Duration":57851,"SoundDuration":57851,"Delta":170866645},{"NoteNumber":73,"Velocity":63,"Duration":57851,"SoundDuration":57851,"Delta":170866645},{"NoteNumber":68,"Velocity":53,"Duration":60517,"SoundDuration":60517,"Delta":170986338},{"NoteNumber":71,"Velocity":60,"Duration":60517,"SoundDuration":60517,"Delta":170986338},{"NoteNumber":66,"Velocity":60,"Duration":331925,"SoundDuration":331925,"Delta":171111547},{"NoteNumber":69,"Velocity":66,"Duration":331925,"SoundDuration":331925,"Delta":171111547},{"NoteNumber":64,"Velocity":53,"Duration":119204,"SoundDuration":119204,"Delta":171473647},{"NoteNumber":68,"Velocity":60,"Duration":119204,"SoundDuration":119204,"Delta":171473647},{"NoteNumber":66,"Velocity":50,"Duration":139664,"SoundDuration":139664,"Delta":171720276},{"NoteNumber":69,"Velocity":55,"Duration":139664,"SoundDuration":139664,"Delta":171720276},{"NoteNumber":59,"Velocity":52,"Duration":560398,"SoundDuration":560398,"Delta":172009238},{"NoteNumber":66,"Velocity":57,"Duration":560398,"SoundDuration":560398,"Delta":172009238},{"NoteNumber":92,"Velocity":37,"Duration":117698,"SoundDuration":117698,"Delta":172756436},{"NoteNumber":95,"Velocity":43,"Duration":117698,"SoundDuration":117698,"Delta":172756436},{"NoteNumber":90,"Velocity":35,"Duration":117698,"SoundDuration":117698,"Delta":172876130},{"NoteNumber":93,"Velocity":40,"Duration":117698,"SoundDuration":117698,"Delta":172876130},{"NoteNumber":88,"Velocity":42,"Duration":216723,"SoundDuration":216723,"Delta":172995823},{"NoteNumber":92,"Velocity":46,"Duration":216723,"SoundDuration":216723,"Delta":172995823},{"NoteNumber":83,"Velocity":34,"Duration":88659,"SoundDuration":88659,"Delta":172995823},{"NoteNumber":76,"Velocity":34,"Duration":88659,"SoundDuration":88659,"Delta":172995823},{"NoteNumber":76,"Velocity":32,"Duration":88659,"SoundDuration":88659,"Delta":173114036},{"NoteNumber":83,"Velocity":32,"Duration":88659,"SoundDuration":88659,"Delta":173114036},{"NoteNumber":88,"Velocity":34,"Duration":116242,"SoundDuration":116242,"Delta":173232249},{"NoteNumber":92,"Velocity":37,"Duration":116242,"SoundDuration":116242,"Delta":173232249},{"NoteNumber":83,"Velocity":31,"Duration":119191,"SoundDuration":119191,"Delta":173350461},{"NoteNumber":90,"Velocity":35,"Duration":119191,"SoundDuration":119191,"Delta":173350461},{"NoteNumber":80,"Velocity":36,"Duration":216723,"SoundDuration":216723,"Delta":173471673},{"NoteNumber":88,"Velocity":41,"Duration":216723,"SoundDuration":216723,"Delta":173471673},{"NoteNumber":71,"Velocity":34,"Duration":88659,"SoundDuration":88659,"Delta":173471673},{"NoteNumber":76,"Velocity":34,"Duration":88659,"SoundDuration":88659,"Delta":173471673},{"NoteNumber":71,"Velocity":31,"Duration":88659,"SoundDuration":88659,"Delta":173589886},{"NoteNumber":76,"Velocity":31,"Duration":88659,"SoundDuration":88659,"Delta":173589886},{"NoteNumber":83,"Velocity":42,"Duration":116242,"SoundDuration":116242,"Delta":173708099},{"NoteNumber":80,"Velocity":36,"Duration":116242,"SoundDuration":116242,"Delta":173708099},{"NoteNumber":78,"Velocity":35,"Duration":118693,"SoundDuration":118693,"Delta":173826312},{"NoteNumber":81,"Velocity":39,"Duration":118693,"SoundDuration":118693,"Delta":173826312},{"NoteNumber":76,"Velocity":40,"Duration":216723,"SoundDuration":216723,"Delta":173947017},{"NoteNumber":80,"Velocity":45,"Duration":216723,"SoundDuration":216723,"Delta":173947017},{"NoteNumber":64,"Velocity":34,"Duration":88659,"SoundDuration":88659,"Delta":173947017},{"NoteNumber":71,"Velocity":34,"Duration":88659,"SoundDuration":88659,"Delta":173947017},{"NoteNumber":64,"Velocity":31,"Duration":88659,"SoundDuration":88659,"Delta":174065229},{"NoteNumber":71,"Velocity":31,"Duration":88659,"SoundDuration":88659,"Delta":174065229},{"NoteNumber":76,"Velocity":34,"Duration":116242,"SoundDuration":116242,"Delta":174183442},{"NoteNumber":80,"Velocity":37,"Duration":116242,"SoundDuration":116242,"Delta":174183442},{"NoteNumber":71,"Velocity":31,"Duration":121779,"SoundDuration":121779,"Delta":174301655},{"NoteNumber":78,"Velocity":35,"Duration":121779,"SoundDuration":121779,"Delta":174301655},{"NoteNumber":68,"Velocity":36,"Duration":223178,"SoundDuration":223178,"Delta":174425499},{"NoteNumber":76,"Velocity":42,"Duration":223178,"SoundDuration":223178,"Delta":174425499},{"NoteNumber":59,"Velocity":34,"Duration":91300,"SoundDuration":91300,"Delta":174425499},{"NoteNumber":64,"Velocity":34,"Duration":91300,"SoundDuration":91300,"Delta":174425499},{"NoteNumber":59,"Velocity":32,"Duration":91300,"SoundDuration":91300,"Delta":174547232},{"NoteNumber":64,"Velocity":32,"Duration":91300,"SoundDuration":91300,"Delta":174547232},{"NoteNumber":56,"Velocity":36,"Duration":119704,"SoundDuration":119704,"Delta":174668966},{"NoteNumber":64,"Velocity":42,"Duration":119704,"SoundDuration":119704,"Delta":174668966},{"NoteNumber":59,"Velocity":35,"Duration":122305,"SoundDuration":122305,"Delta":174790699},{"NoteNumber":66,"Velocity":39,"Duration":122305,"SoundDuration":122305,"Delta":174790699},{"NoteNumber":64,"Velocity":40,"Duration":241535,"SoundDuration":241535,"Delta":174915077},{"NoteNumber":68,"Velocity":45,"Duration":241535,"SoundDuration":241535,"Delta":174915077},{"NoteNumber":52,"Velocity":34,"Duration":94514,"SoundDuration":94514,"Delta":174915077},{"NoteNumber":59,"Velocity":34,"Duration":94514,"SoundDuration":94514,"Delta":174915077},{"NoteNumber":52,"Velocity":32,"Duration":94514,"SoundDuration":94514,"Delta":175041096},{"NoteNumber":59,"Velocity":32,"Duration":94514,"SoundDuration":94514,"Delta":175041096},{"NoteNumber":66,"Velocity":39,"Duration":122305,"SoundDuration":122305,"Delta":175167115},{"NoteNumber":69,"Velocity":44,"Duration":122305,"SoundDuration":122305,"Delta":175167115},{"NoteNumber":64,"Velocity":35,"Duration":126143,"SoundDuration":126143,"Delta":175291493},{"NoteNumber":68,"Velocity":40,"Duration":126143,"SoundDuration":126143,"Delta":175291493},{"NoteNumber":59,"Velocity":36,"Duration":240485,"SoundDuration":240485,"Delta":175419775},{"NoteNumber":66,"Velocity":41,"Duration":240485,"SoundDuration":240485,"Delta":175419775},{"NoteNumber":51,"Velocity":34,"Duration":94102,"SoundDuration":94102,"Delta":175419775},{"NoteNumber":47,"Velocity":34,"Duration":94102,"SoundDuration":94102,"Delta":175419775},{"NoteNumber":47,"Velocity":32,"Duration":94102,"SoundDuration":94102,"Delta":175545245},{"NoteNumber":51,"Velocity":32,"Duration":94102,"SoundDuration":94102,"Delta":175545245},{"NoteNumber":64,"Velocity":40,"Duration":124461,"SoundDuration":124461,"Delta":175670716},{"NoteNumber":68,"Velocity":45,"Duration":124461,"SoundDuration":124461,"Delta":175670716},{"NoteNumber":59,"Velocity":33,"Duration":127860,"SoundDuration":127860,"Delta":175797287},{"NoteNumber":66,"Velocity":36,"Duration":127860,"SoundDuration":127860,"Delta":175797287},{"NoteNumber":56,"Velocity":35,"Duration":527287,"SoundDuration":527287,"Delta":175927315},{"NoteNumber":64,"Velocity":39,"Duration":527287,"SoundDuration":527287,"Delta":175927315},{"NoteNumber":47,"Velocity":36,"Duration":98866,"SoundDuration":98866,"Delta":175927315},{"NoteNumber":40,"Velocity":36,"Duration":98866,"SoundDuration":98866,"Delta":175927315},{"NoteNumber":40,"Velocity":35,"Duration":98866,"SoundDuration":98866,"Delta":176059137},{"NoteNumber":47,"Velocity":35,"Duration":98866,"SoundDuration":98866,"Delta":176059137},{"NoteNumber":40,"Velocity":36,"Duration":263643,"SoundDuration":263643,"Delta":176190959},{"NoteNumber":47,"Velocity":36,"Duration":263643,"SoundDuration":263643,"Delta":176190959},{"NoteNumber":59,"Velocity":34,"Duration":245282,"SoundDuration":245282,"Delta":176454602},{"NoteNumber":66,"Velocity":37,"Duration":245282,"SoundDuration":245282,"Delta":176454602},{"NoteNumber":64,"Velocity":36,"Duration":130843,"SoundDuration":130843,"Delta":176711024},{"NoteNumber":68,"Velocity":42,"Duration":130843,"SoundDuration":130843,"Delta":176711024},{"NoteNumber":59,"Velocity":32,"Duration":133957,"SoundDuration":133957,"Delta":176844085},{"NoteNumber":66,"Velocity":36,"Duration":133957,"SoundDuration":133957,"Delta":176844085},{"NoteNumber":56,"Velocity":33,"Duration":605448,"SoundDuration":605448,"Delta":176980313},{"NoteNumber":64,"Velocity":36,"Duration":605448,"SoundDuration":605448,"Delta":176980313},{"NoteNumber":47,"Velocity":35,"Duration":113521,"SoundDuration":113521,"Delta":176980313},{"NoteNumber":40,"Velocity":35,"Duration":113521,"SoundDuration":113521,"Delta":176980313},{"NoteNumber":40,"Velocity":33,"Duration":113521,"SoundDuration":113521,"Delta":177131675},{"NoteNumber":47,"Velocity":33,"Duration":113521,"SoundDuration":113521,"Delta":177131675},{"NoteNumber":40,"Velocity":35,"Duration":302724,"SoundDuration":302724,"Delta":177283037},{"NoteNumber":47,"Velocity":35,"Duration":302724,"SoundDuration":302724,"Delta":177283037},{"NoteNumber":59,"Velocity":29,"Duration":358389,"SoundDuration":358389,"Delta":177585762},{"NoteNumber":66,"Velocity":33,"Duration":358389,"SoundDuration":358389,"Delta":177585762},{"NoteNumber":64,"Velocity":30,"Duration":230576,"SoundDuration":230576,"Delta":177959733},{"NoteNumber":68,"Velocity":34,"Duration":230576,"SoundDuration":230576,"Delta":177959733},{"NoteNumber":59,"Velocity":26,"Duration":273148,"SoundDuration":273148,"Delta":178194218},{"NoteNumber":66,"Velocity":30,"Duration":273148,"SoundDuration":273148,"Delta":178194218},{"NoteNumber":56,"Velocity":27,"Duration":689496,"SoundDuration":689496,"Delta":178471996},{"NoteNumber":64,"Velocity":31,"Duration":689496,"SoundDuration":689496,"Delta":178471996},{"NoteNumber":64,"Velocity":71,"Duration":115758,"SoundDuration":115758,"Delta":179506241},{"NoteNumber":68,"Velocity":71,"Duration":115758,"SoundDuration":115758,"Delta":179506241},{"NoteNumber":76,"Velocity":79,"Duration":115758,"SoundDuration":115758,"Delta":179506241},{"NoteNumber":40,"Velocity":73,"Duration":115758,"SoundDuration":115758,"Delta":179506241},{"NoteNumber":47,"Velocity":73,"Duration":115758,"SoundDuration":115758,"Delta":179506241},{"NoteNumber":52,"Velocity":73,"Duration":115758,"SoundDuration":115758,"Delta":179506241},{"NoteNumber":64,"Velocity":74,"Duration":1168224,"SoundDuration":1168224,"Delta":179623962},{"NoteNumber":68,"Velocity":74,"Duration":1168224,"SoundDuration":1168224,"Delta":179623962},{"NoteNumber":76,"Velocity":83,"Duration":1168224,"SoundDuration":1168224,"Delta":179623962},{"NoteNumber":40,"Velocity":77,"Duration":1168224,"SoundDuration":1168224,"Delta":179623962},{"NoteNumber":47,"Velocity":77,"Duration":1168224,"SoundDuration":1168224,"Delta":179623962},{"NoteNumber":52,"Velocity":77,"Duration":1168224,"SoundDuration":1168224,"Delta":179623962}]}