{"title":"Étude No. 6 from Grandes Études de Paganini, S.141 in A minor","artist":"Liszt","durationMs":315308,"midiSha256":"4e875aefc3efe3174e55bbd045f8698bbf4ebfee45fa5e4d4462af765b069eb4","midiObject":[{"NoteNumber":45,"Velocity":34,"Duration":266579,"SoundDuration":266579,"Delta":0},{"NoteNumber":52,"Velocity":37,"Duration":250036,"SoundDuration":250036,"Delta":26385},{"NoteNumber":57,"Velocity":41,"Duration":223651,"SoundDuration":223651,"Delta":52771},{"NoteNumber":60,"Velocity":44,"Duration":197265,"SoundDuration":197265,"Delta":79156},{"NoteNumber":64,"Velocity":44,"Duration":177477,"SoundDuration":177477,"Delta":98945},{"NoteNumber":69,"Velocity":48,"Duration":157688,"SoundDuration":157688,"Delta":118734},{"NoteNumber":72,"Velocity":53,"Duration":137899,"SoundDuration":137899,"Delta":138523},{"NoteNumber":81,"Velocity":61,"Duration":118110,"SoundDuration":118110,"Delta":158312},{"NoteNumber":69,"Velocity":48,"Duration":85937,"SoundDuration":85937,"Delta":579191},{"NoteNumber":69,"Velocity":57,"Duration":118110,"SoundDuration":118110,"Delta":672941},{"NoteNumber":72,"Velocity":54,"Duration":118110,"SoundDuration":118110,"Delta":791051},{"NoteNumber":71,"Velocity":57,"Duration":112781,"SoundDuration":112781,"Delta":909162},{"NoteNumber":69,"Velocity":54,"Duration":112781,"SoundDuration":112781,"Delta":1021944},{"NoteNumber":52,"Velocity":36,"Duration":239272,"SoundDuration":239272,"Delta":1134726},{"NoteNumber":59,"Velocity":38,"Duration":227280,"SoundDuration":227280,"Delta":1156560},{"NoteNumber":64,"Velocity":42,"Duration":205446,"SoundDuration":205446,"Delta":1178394},{"NoteNumber":68,"Velocity":45,"Duration":183612,"SoundDuration":183612,"Delta":1200228},{"NoteNumber":71,"Velocity":45,"Duration":167236,"SoundDuration":167236,"Delta":1216603},{"NoteNumber":76,"Velocity":49,"Duration":150861,"SoundDuration":150861,"Delta":1232979},{"NoteNumber":80,"Velocity":53,"Duration":134485,"SoundDuration":134485,"Delta":1249354},{"NoteNumber":88,"Velocity":59,"Duration":118110,"SoundDuration":118110,"Delta":1265730},{"NoteNumber":64,"Velocity":48,"Duration":85937,"SoundDuration":85937,"Delta":1687444},{"NoteNumber":64,"Velocity":57,"Duration":118110,"SoundDuration":118110,"Delta":1781194},{"NoteNumber":68,"Velocity":54,"Duration":118110,"SoundDuration":118110,"Delta":1899304},{"NoteNumber":66,"Velocity":57,"Duration":112782,"SoundDuration":112782,"Delta":2017414},{"NoteNumber":64,"Velocity":54,"Duration":112781,"SoundDuration":112781,"Delta":2130196},{"NoteNumber":45,"Velocity":33,"Duration":238986,"SoundDuration":238986,"Delta":2242978},{"NoteNumber":52,"Velocity":36,"Duration":227042,"SoundDuration":227042,"Delta":2264765},{"NoteNumber":57,"Velocity":39,"Duration":205256,"SoundDuration":205256,"Delta":2286551},{"NoteNumber":60,"Velocity":42,"Duration":183469,"SoundDuration":183469,"Delta":2308338},{"NoteNumber":64,"Velocity":44,"Duration":167129,"SoundDuration":167129,"Delta":2324677},{"NoteNumber":69,"Velocity":47,"Duration":150790,"SoundDuration":150790,"Delta":2341017},{"NoteNumber":72,"Velocity":51,"Duration":134450,"SoundDuration":134450,"Delta":2357357},{"NoteNumber":81,"Velocity":59,"Duration":118110,"SoundDuration":118110,"Delta":2373697},{"NoteNumber":69,"Velocity":48,"Duration":85937,"SoundDuration":85937,"Delta":2797126},{"NoteNumber":69,"Velocity":57,"Duration":118110,"SoundDuration":118110,"Delta":2890876},{"NoteNumber":72,"Velocity":54,"Duration":118110,"SoundDuration":118110,"Delta":3008986},{"NoteNumber":71,"Velocity":57,"Duration":118110,"SoundDuration":118110,"Delta":3127096},{"NoteNumber":69,"Velocity":54,"Duration":118110,"SoundDuration":118110,"Delta":3245206},{"NoteNumber":52,"Velocity":38,"Duration":244639,"SoundDuration":244639,"Delta":3363316},{"NoteNumber":59,"Velocity":36,"Duration":234137,"SoundDuration":234137,"Delta":3384503},{"NoteNumber":64,"Velocity":41,"Duration":212950,"SoundDuration":212950,"Delta":3405689},{"NoteNumber":68,"Velocity":45,"Duration":191764,"SoundDuration":191764,"Delta":3426876},{"NoteNumber":71,"Velocity":48,"Duration":175874,"SoundDuration":175874,"Delta":3442766},{"NoteNumber":80,"Velocity":51,"Duration":159984,"SoundDuration":159984,"Delta":3458655},{"NoteNumber":88,"Velocity":54,"Duration":144095,"SoundDuration":144095,"Delta":3474545},{"NoteNumber":76,"Velocity":63,"Duration":512820,"SoundDuration":512820,"Delta":3490435},{"NoteNumber":64,"Velocity":62,"Duration":128205,"SoundDuration":128205,"Delta":4003256},{"NoteNumber":45,"Velocity":29,"Duration":241606,"SoundDuration":241606,"Delta":4516077},{"NoteNumber":52,"Velocity":32,"Duration":229900,"SoundDuration":229900,"Delta":4537863},{"NoteNumber":57,"Velocity":33,"Duration":208113,"SoundDuration":208113,"Delta":4559650},{"NoteNumber":60,"Velocity":36,"Duration":186327,"SoundDuration":186327,"Delta":4581436},{"NoteNumber":64,"Velocity":36,"Duration":169987,"SoundDuration":169987,"Delta":4597776},{"NoteNumber":69,"Velocity":40,"Duration":153647,"SoundDuration":153647,"Delta":4614116},{"NoteNumber":72,"Velocity":42,"Duration":137307,"SoundDuration":137307,"Delta":4630456},{"NoteNumber":81,"Velocity":45,"Duration":120967,"SoundDuration":120967,"Delta":4646796},{"NoteNumber":69,"Velocity":36,"Duration":85937,"SoundDuration":85937,"Delta":5076526},{"NoteNumber":69,"Velocity":43,"Duration":118110,"SoundDuration":118110,"Delta":5170276},{"NoteNumber":72,"Velocity":40,"Duration":118110,"SoundDuration":118110,"Delta":5288386},{"NoteNumber":71,"Velocity":43,"Duration":112782,"SoundDuration":112782,"Delta":5406496},{"NoteNumber":69,"Velocity":40,"Duration":112782,"SoundDuration":112782,"Delta":5519278},{"NoteNumber":52,"Velocity":28,"Duration":238986,"SoundDuration":238986,"Delta":5632060},{"NoteNumber":59,"Velocity":31,"Duration":227042,"SoundDuration":227042,"Delta":5653847},{"NoteNumber":64,"Velocity":33,"Duration":205256,"SoundDuration":205256,"Delta":5675633},{"NoteNumber":68,"Velocity":36,"Duration":183469,"SoundDuration":183469,"Delta":5697420},{"NoteNumber":71,"Velocity":36,"Duration":167129,"SoundDuration":167129,"Delta":5713759},{"NoteNumber":76,"Velocity":39,"Duration":150789,"SoundDuration":150789,"Delta":5730099},{"NoteNumber":80,"Velocity":41,"Duration":134450,"SoundDuration":134450,"Delta":5746439},{"NoteNumber":88,"Velocity":44,"Duration":118110,"SoundDuration":118110,"Delta":5762779},{"NoteNumber":64,"Velocity":36,"Duration":85937,"SoundDuration":85937,"Delta":6187089},{"NoteNumber":64,"Velocity":43,"Duration":118110,"SoundDuration":118110,"Delta":6280839},{"NoteNumber":68,"Velocity":40,"Duration":118110,"SoundDuration":118110,"Delta":6398949},{"NoteNumber":66,"Velocity":43,"Duration":113636,"SoundDuration":113636,"Delta":6517060},{"NoteNumber":64,"Velocity":40,"Duration":113636,"SoundDuration":113636,"Delta":6630696},{"NoteNumber":45,"Velocity":28,"Duration":238702,"SoundDuration":238702,"Delta":6744332},{"NoteNumber":52,"Velocity":31,"Duration":226806,"SoundDuration":226806,"Delta":6766071},{"NoteNumber":57,"Velocity":33,"Duration":205066,"SoundDuration":205066,"Delta":6787810},{"NoteNumber":60,"Velocity":36,"Duration":183327,"SoundDuration":183327,"Delta":6809550},{"NoteNumber":64,"Velocity":36,"Duration":167023,"SoundDuration":167023,"Delta":6825854},{"NoteNumber":69,"Velocity":39,"Duration":150719,"SoundDuration":150719,"Delta":6842158},{"NoteNumber":72,"Velocity":41,"Duration":134414,"SoundDuration":134414,"Delta":6858463},{"NoteNumber":81,"Velocity":44,"Duration":118110,"SoundDuration":118110,"Delta":6874767},{"NoteNumber":69,"Velocity":36,"Duration":85937,"SoundDuration":85937,"Delta":7299077},{"NoteNumber":69,"Velocity":43,"Duration":118110,"SoundDuration":118110,"Delta":7392827},{"NoteNumber":72,"Velocity":40,"Duration":118110,"SoundDuration":118110,"Delta":7510937},{"NoteNumber":71,"Velocity":43,"Duration":118110,"SoundDuration":118110,"Delta":7629048},{"NoteNumber":69,"Velocity":40,"Duration":118110,"SoundDuration":118110,"Delta":7747158},{"NoteNumber":52,"Velocity":28,"Duration":242521,"SoundDuration":242521,"Delta":7865268},{"NoteNumber":59,"Velocity":31,"Duration":232371,"SoundDuration":232371,"Delta":7886101},{"NoteNumber":64,"Velocity":33,"Duration":211538,"SoundDuration":211538,"Delta":7906935},{"NoteNumber":68,"Velocity":36,"Duration":190705,"SoundDuration":190705,"Delta":7927768},{"NoteNumber":71,"Velocity":36,"Duration":175080,"SoundDuration":175080,"Delta":7943393},{"NoteNumber":80,"Velocity":41,"Duration":159455,"SoundDuration":159455,"Delta":7959018},{"NoteNumber":88,"Velocity":43,"Duration":143830,"SoundDuration":143830,"Delta":7974643},{"NoteNumber":76,"Velocity":53,"Duration":512821,"SoundDuration":512821,"Delta":7990268},{"NoteNumber":64,"Velocity":53,"Duration":128205,"SoundDuration":128205,"Delta":8503089},{"NoteNumber":45,"Velocity":34,"Duration":232286,"SoundDuration":232286,"Delta":9015910},{"NoteNumber":52,"Velocity":36,"Duration":219806,"SoundDuration":219806,"Delta":9037649},{"NoteNumber":57,"Velocity":40,"Duration":198067,"SoundDuration":198067,"Delta":9059388},{"NoteNumber":61,"Velocity":43,"Duration":176328,"SoundDuration":176328,"Delta":9081127},{"NoteNumber":76,"Velocity":46,"Duration":160024,"SoundDuration":160024,"Delta":9097432},{"NoteNumber":81,"Velocity":50,"Duration":143719,"SoundDuration":143719,"Delta":9113736},{"NoteNumber":85,"Velocity":53,"Duration":127415,"SoundDuration":127415,"Delta":9130041},{"NoteNumber":93,"Velocity":61,"Duration":111110,"SoundDuration":111110,"Delta":9146345},{"NoteNumber":81,"Velocity":48,"Duration":85937,"SoundDuration":85937,"Delta":9551603},{"NoteNumber":81,"Velocity":57,"Duration":118110,"SoundDuration":118110,"Delta":9645353},{"NoteNumber":82,"Velocity":54,"Duration":113636,"SoundDuration":113636,"Delta":9763463},{"NoteNumber":81,"Velocity":57,"Duration":113636,"SoundDuration":113636,"Delta":9877099},{"NoteNumber":79,"Velocity":54,"Duration":113636,"SoundDuration":113636,"Delta":9990736},{"NoteNumber":50,"Velocity":36,"Duration":234852,"SoundDuration":234852,"Delta":10104372},{"NoteNumber":57,"Velocity":37,"Duration":223508,"SoundDuration":223508,"Delta":10125558},{"NoteNumber":62,"Velocity":40,"Duration":202321,"SoundDuration":202321,"Delta":10146745},{"NoteNumber":65,"Velocity":43,"Duration":181135,"SoundDuration":181135,"Delta":10167931},{"NoteNumber":69,"Velocity":45,"Duration":165379,"SoundDuration":165379,"Delta":10183687},{"NoteNumber":77,"Velocity":49,"Duration":149622,"SoundDuration":149622,"Delta":10199444},{"NoteNumber":81,"Velocity":52,"Duration":133866,"SoundDuration":133866,"Delta":10215200},{"NoteNumber":89,"Velocity":61,"Duration":118110,"SoundDuration":118110,"Delta":10230956},{"NoteNumber":74,"Velocity":48,"Duration":85937,"SoundDuration":85937,"Delta":10655266},{"NoteNumber":74,"Velocity":57,"Duration":113636,"SoundDuration":113636,"Delta":10749016},{"NoteNumber":77,"Velocity":54,"Duration":113636,"SoundDuration":113636,"Delta":10862653},{"NoteNumber":76,"Velocity":57,"Duration":113636,"SoundDuration":113636,"Delta":10976289},{"NoteNumber":74,"Velocity":54,"Duration":113636,"SoundDuration":113636,"Delta":11089925},{"NoteNumber":43,"Velocity":35,"Duration":238986,"SoundDuration":238986,"Delta":11203561},{"NoteNumber":50,"Velocity":37,"Duration":227042,"SoundDuration":227042,"Delta":11225348},{"NoteNumber":55,"Velocity":41,"Duration":205256,"SoundDuration":205256,"Delta":11247134},{"NoteNumber":59,"Velocity":45,"Duration":183469,"SoundDuration":183469,"Delta":11268921},{"NoteNumber":74,"Velocity":45,"Duration":167129,"SoundDuration":167129,"Delta":11285261},{"NoteNumber":79,"Velocity":48,"Duration":150790,"SoundDuration":150790,"Delta":11301601},{"NoteNumber":83,"Velocity":52,"Duration":134450,"SoundDuration":134450,"Delta":11317940},{"NoteNumber":91,"Velocity":61,"Duration":118110,"SoundDuration":118110,"Delta":11334280},{"NoteNumber":79,"Velocity":48,"Duration":85937,"SoundDuration":85937,"Delta":11753537},{"NoteNumber":79,"Velocity":57,"Duration":112781,"SoundDuration":112781,"Delta":11847287},{"NoteNumber":81,"Velocity":54,"Duration":112782,"SoundDuration":112782,"Delta":11960069},{"NoteNumber":79,"Velocity":57,"Duration":112781,"SoundDuration":112781,"Delta":12072851},{"NoteNumber":77,"Velocity":54,"Duration":112782,"SoundDuration":112782,"Delta":12185633},{"NoteNumber":48,"Velocity":39,"Duration":233790,"SoundDuration":233790,"Delta":12298415},{"NoteNumber":55,"Velocity":39,"Duration":222712,"SoundDuration":222712,"Delta":12319335},{"NoteNumber":60,"Velocity":42,"Duration":201792,"SoundDuration":201792,"Delta":12340256},{"NoteNumber":64,"Velocity":45,"Duration":180871,"SoundDuration":180871,"Delta":12361176},{"NoteNumber":67,"Velocity":45,"Duration":165181,"SoundDuration":165181,"Delta":12376866},{"NoteNumber":76,"Velocity":48,"Duration":149490,"SoundDuration":149490,"Delta":12392557},{"NoteNumber":79,"Velocity":52,"Duration":133800,"SoundDuration":133800,"Delta":12408247},{"NoteNumber":88,"Velocity":61,"Duration":118110,"SoundDuration":118110,"Delta":12423938},{"NoteNumber":72,"Velocity":48,"Duration":85937,"SoundDuration":85937,"Delta":12848545},{"NoteNumber":72,"Velocity":51,"Duration":118110,"SoundDuration":118110,"Delta":12942295},{"NoteNumber":76,"Velocity":48,"Duration":118110,"SoundDuration":118110,"Delta":13060406},{"NoteNumber":74,"Velocity":50,"Duration":111940,"SoundDuration":111940,"Delta":13178516},{"NoteNumber":72,"Velocity":47,"Duration":111940,"SoundDuration":111940,"Delta":13290456},{"NoteNumber":50,"Velocity":33,"Duration":238702,"SoundDuration":238702,"Delta":13402396},{"NoteNumber":53,"Velocity":35,"Duration":226806,"SoundDuration":226806,"Delta":13424135},{"NoteNumber":59,"Velocity":37,"Duration":205066,"SoundDuration":205066,"Delta":13445875},{"NoteNumber":65,"Velocity":39,"Duration":183327,"SoundDuration":183327,"Delta":13467614},{"NoteNumber":71,"Velocity":39,"Duration":167023,"SoundDuration":167023,"Delta":13483918},{"NoteNumber":77,"Velocity":42,"Duration":150719,"SoundDuration":150719,"Delta":13500223},{"NoteNumber":83,"Velocity":45,"Duration":134414,"SoundDuration":134414,"Delta":13516527},{"NoteNumber":89,"Velocity":53,"Duration":118110,"SoundDuration":118110,"Delta":13532831},{"NoteNumber":71,"Velocity":40,"Duration":85937,"SoundDuration":85937,"Delta":13957739},{"NoteNumber":71,"Velocity":47,"Duration":117187,"SoundDuration":117187,"Delta":14051489},{"NoteNumber":74,"Velocity":45,"Duration":117187,"SoundDuration":117187,"Delta":14168676},{"NoteNumber":72,"Velocity":47,"Duration":117187,"SoundDuration":117187,"Delta":14285864},{"NoteNumber":71,"Velocity":44,"Duration":117187,"SoundDuration":117187,"Delta":14403051},{"NoteNumber":48,"Velocity":32,"Duration":239558,"SoundDuration":239558,"Delta":14520239},{"NoteNumber":60,"Velocity":36,"Duration":205637,"SoundDuration":205637,"Delta":14564002},{"NoteNumber":64,"Velocity":38,"Duration":183755,"SoundDuration":183755,"Delta":14585884},{"NoteNumber":69,"Velocity":36,"Duration":167344,"SoundDuration":167344,"Delta":14602295},{"NoteNumber":76,"Velocity":39,"Duration":150933,"SoundDuration":150933,"Delta":14618707},{"NoteNumber":81,"Velocity":42,"Duration":134521,"SoundDuration":134521,"Delta":14635118},{"NoteNumber":88,"Velocity":48,"Duration":118110,"SoundDuration":118110,"Delta":14651530},{"NoteNumber":69,"Velocity":40,"Duration":85937,"SoundDuration":85937,"Delta":15077654},{"NoteNumber":69,"Velocity":48,"Duration":118110,"SoundDuration":118110,"Delta":15171404},{"NoteNumber":72,"Velocity":45,"Duration":118110,"SoundDuration":118110,"Delta":15289514},{"NoteNumber":71,"Velocity":48,"Duration":118110,"SoundDuration":118110,"Delta":15407624},{"NoteNumber":69,"Velocity":45,"Duration":144927,"SoundDuration":144927,"Delta":15525735},{"NoteNumber":65,"Velocity":52,"Duration":512754,"SoundDuration":512754,"Delta":15670662},{"NoteNumber":53,"Velocity":44,"Duration":512754,"SoundDuration":512754,"Delta":15670662},{"NoteNumber":75,"Velocity":40,"Duration":133928,"SoundDuration":133928,"Delta":16049489},{"NoteNumber":63,"Velocity":36,"Duration":133928,"SoundDuration":133928,"Delta":16049489},{"NoteNumber":57,"Velocity":36,"Duration":133928,"SoundDuration":133928,"Delta":16049489},{"NoteNumber":64,"Velocity":46,"Duration":574762,"SoundDuration":574762,"Delta":16183417},{"NoteNumber":52,"Velocity":40,"Duration":574762,"SoundDuration":574762,"Delta":16183417},{"NoteNumber":76,"Velocity":40,"Duration":133928,"SoundDuration":133928,"Delta":16317346},{"NoteNumber":74,"Velocity":46,"Duration":130434,"SoundDuration":130434,"Delta":16451274},{"NoteNumber":71,"Velocity":40,"Duration":176470,"SoundDuration":176470,"Delta":16581709},{"NoteNumber":62,"Velocity":33,"Duration":176470,"SoundDuration":176470,"Delta":16581709},{"NoteNumber":56,"Velocity":33,"Duration":176470,"SoundDuration":176470,"Delta":16581709},{"NoteNumber":64,"Velocity":45,"Duration":533332,"SoundDuration":533332,"Delta":16758179},{"NoteNumber":69,"Velocity":45,"Duration":533332,"SoundDuration":533332,"Delta":16758179},{"NoteNumber":60,"Velocity":40,"Duration":533332,"SoundDuration":533332,"Delta":16758179},{"NoteNumber":57,"Velocity":40,"Duration":533332,"SoundDuration":533332,"Delta":16758179},{"NoteNumber":81,"Velocity":40,"Duration":133333,"SoundDuration":133333,"Delta":17291512},{"NoteNumber":72,"Velocity":40,"Duration":133333,"SoundDuration":133333,"Delta":17291512},{"NoteNumber":69,"Velocity":33,"Duration":133333,"SoundDuration":133333,"Delta":17291512},{"NoteNumber":64,"Velocity":33,"Duration":133333,"SoundDuration":133333,"Delta":17291512},{"NoteNumber":45,"Velocity":29,"Duration":292207,"SoundDuration":292207,"Delta":17824845},{"NoteNumber":52,"Velocity":32,"Duration":272776,"SoundDuration":272776,"Delta":17854607},{"NoteNumber":57,"Velocity":33,"Duration":243014,"SoundDuration":243014,"Delta":17884369},{"NoteNumber":61,"Velocity":36,"Duration":213252,"SoundDuration":213252,"Delta":17914131},{"NoteNumber":76,"Velocity":36,"Duration":190931,"SoundDuration":190931,"Delta":17936452},{"NoteNumber":81,"Velocity":40,"Duration":168609,"SoundDuration":168609,"Delta":17958774},{"NoteNumber":85,"Velocity":42,"Duration":146288,"SoundDuration":146288,"Delta":17981095},{"NoteNumber":93,"Velocity":45,"Duration":123967,"SoundDuration":123967,"Delta":18003417},{"NoteNumber":81,"Velocity":36,"Duration":64252,"SoundDuration":64252,"Delta":18433385},{"NoteNumber":81,"Velocity":43,"Duration":120481,"SoundDuration":120481,"Delta":18503478},{"NoteNumber":61,"Velocity":27,"Duration":240964,"SoundDuration":240964,"Delta":18503478},{"NoteNumber":64,"Velocity":27,"Duration":240964,"SoundDuration":240964,"Delta":18503478},{"NoteNumber":69,"Velocity":32,"Duration":240964,"SoundDuration":240964,"Delta":18503478},{"NoteNumber":82,"Velocity":40,"Duration":120482,"SoundDuration":120482,"Delta":18623960},{"NoteNumber":81,"Velocity":43,"Duration":120481,"SoundDuration":120481,"Delta":18744442},{"NoteNumber":79,"Velocity":40,"Duration":120481,"SoundDuration":120481,"Delta":18864924},{"NoteNumber":50,"Velocity":29,"Duration":293154,"SoundDuration":293154,"Delta":18985406},{"NoteNumber":57,"Velocity":32,"Duration":258928,"SoundDuration":258928,"Delta":19030049},{"NoteNumber":65,"Velocity":36,"Duration":214285,"SoundDuration":214285,"Delta":19074692},{"NoteNumber":69,"Velocity":36,"Duration":191964,"SoundDuration":191964,"Delta":19097013},{"NoteNumber":77,"Velocity":40,"Duration":169642,"SoundDuration":169642,"Delta":19119335},{"NoteNumber":81,"Velocity":42,"Duration":147321,"SoundDuration":147321,"Delta":19141656},{"NoteNumber":89,"Velocity":45,"Duration":125000,"SoundDuration":125000,"Delta":19163978},{"NoteNumber":74,"Velocity":36,"Duration":64252,"SoundDuration":64252,"Delta":19591214},{"NoteNumber":74,"Velocity":43,"Duration":119047,"SoundDuration":119047,"Delta":19661307},{"NoteNumber":62,"Velocity":27,"Duration":238095,"SoundDuration":238095,"Delta":19661307},{"NoteNumber":65,"Velocity":27,"Duration":238095,"SoundDuration":238095,"Delta":19661307},{"NoteNumber":69,"Velocity":32,"Duration":238095,"SoundDuration":238095,"Delta":19661307},{"NoteNumber":77,"Velocity":40,"Duration":119047,"SoundDuration":119047,"Delta":19780355},{"NoteNumber":76,"Velocity":43,"Duration":119047,"SoundDuration":119047,"Delta":19899402},{"NoteNumber":74,"Velocity":40,"Duration":119047,"SoundDuration":119047,"Delta":20018450},{"NoteNumber":43,"Velocity":29,"Duration":261411,"SoundDuration":261411,"Delta":20137497},{"NoteNumber":50,"Velocity":32,"Duration":235284,"SoundDuration":235284,"Delta":20174084},{"NoteNumber":59,"Velocity":36,"Duration":198697,"SoundDuration":198697,"Delta":20210672},{"NoteNumber":74,"Velocity":36,"Duration":180403,"SoundDuration":180403,"Delta":20228965},{"NoteNumber":79,"Velocity":40,"Duration":162110,"SoundDuration":162110,"Delta":20247259},{"NoteNumber":83,"Velocity":42,"Duration":143816,"SoundDuration":143816,"Delta":20265552},{"NoteNumber":91,"Velocity":45,"Duration":125523,"SoundDuration":125523,"Delta":20283846},{"NoteNumber":79,"Velocity":36,"Duration":67401,"SoundDuration":67401,"Delta":20715564},{"NoteNumber":79,"Velocity":43,"Duration":120000,"SoundDuration":120000,"Delta":20789093},{"NoteNumber":59,"Velocity":27,"Duration":239999,"SoundDuration":239999,"Delta":20789093},{"NoteNumber":62,"Velocity":27,"Duration":239999,"SoundDuration":239999,"Delta":20789093},{"NoteNumber":67,"Velocity":32,"Duration":239999,"SoundDuration":239999,"Delta":20789093},{"NoteNumber":81,"Velocity":40,"Duration":119999,"SoundDuration":119999,"Delta":20909093},{"NoteNumber":79,"Velocity":43,"Duration":120000,"SoundDuration":120000,"Delta":21029093},{"NoteNumber":77,"Velocity":40,"Duration":120000,"SoundDuration":120000,"Delta":21149093},{"NoteNumber":48,"Velocity":29,"Duration":294117,"SoundDuration":294117,"Delta":21269093},{"NoteNumber":55,"Velocity":32,"Duration":259979,"SoundDuration":259979,"Delta":21313736},{"NoteNumber":64,"Velocity":36,"Duration":215336,"SoundDuration":215336,"Delta":21358379},{"NoteNumber":67,"Velocity":36,"Duration":193014,"SoundDuration":193014,"Delta":21380700},{"NoteNumber":76,"Velocity":40,"Duration":170693,"SoundDuration":170693,"Delta":21403022},{"NoteNumber":79,"Velocity":42,"Duration":148371,"SoundDuration":148371,"Delta":21425343},{"NoteNumber":88,"Velocity":45,"Duration":126050,"SoundDuration":126050,"Delta":21447665},{"NoteNumber":72,"Velocity":36,"Duration":62217,"SoundDuration":62217,"Delta":21874782},{"NoteNumber":72,"Velocity":46,"Duration":118110,"SoundDuration":118110,"Delta":21942655},{"NoteNumber":64,"Velocity":29,"Duration":236220,"SoundDuration":236220,"Delta":21942655},{"NoteNumber":67,"Velocity":35,"Duration":236220,"SoundDuration":236220,"Delta":21942655},{"NoteNumber":76,"Velocity":44,"Duration":118110,"SoundDuration":118110,"Delta":22060765},{"NoteNumber":74,"Velocity":46,"Duration":118110,"SoundDuration":118110,"Delta":22178876},{"NoteNumber":72,"Velocity":44,"Duration":118110,"SoundDuration":118110,"Delta":22296986},{"NoteNumber":50,"Velocity":32,"Duration":270680,"SoundDuration":270680,"Delta":22415096},{"NoteNumber":58,"Velocity":36,"Duration":137082,"SoundDuration":137082,"Delta":22453758},{"NoteNumber":65,"Velocity":39,"Duration":203905,"SoundDuration":203905,"Delta":22492420},{"NoteNumber":70,"Velocity":40,"Duration":165243,"SoundDuration":165243,"Delta":22531081},{"NoteNumber":77,"Velocity":44,"Duration":145913,"SoundDuration":145913,"Delta":22550412},{"NoteNumber":89,"Velocity":50,"Duration":126582,"SoundDuration":126582,"Delta":22569743},{"NoteNumber":70,"Velocity":39,"Duration":56352,"SoundDuration":56352,"Delta":22991526},{"NoteNumber":70,"Velocity":46,"Duration":118110,"SoundDuration":118110,"Delta":23053001},{"NoteNumber":65,"Velocity":35,"Duration":236220,"SoundDuration":236220,"Delta":23053001},{"NoteNumber":62,"Velocity":29,"Duration":236220,"SoundDuration":236220,"Delta":23053001},{"NoteNumber":74,"Velocity":44,"Duration":118110,"SoundDuration":118110,"Delta":23171111},{"NoteNumber":72,"Velocity":46,"Duration":118110,"SoundDuration":118110,"Delta":23289222},{"NoteNumber":70,"Velocity":44,"Duration":118110,"SoundDuration":118110,"Delta":23407332},{"NoteNumber":48,"Velocity":32,"Duration":293634,"SoundDuration":293634,"Delta":23525442},{"NoteNumber":60,"Velocity":36,"Duration":154849,"SoundDuration":154849,"Delta":23570085},{"NoteNumber":64,"Velocity":39,"Duration":214808,"SoundDuration":214808,"Delta":23614728},{"NoteNumber":69,"Velocity":40,"Duration":170165,"SoundDuration":170165,"Delta":23659371},{"NoteNumber":76,"Velocity":44,"Duration":147844,"SoundDuration":147844,"Delta":23681692},{"NoteNumber":88,"Velocity":50,"Duration":125523,"SoundDuration":125523,"Delta":23704014},{"NoteNumber":69,"Velocity":37,"Duration":85937,"SoundDuration":85937,"Delta":24155952},{"NoteNumber":69,"Velocity":45,"Duration":123967,"SoundDuration":123967,"Delta":24249702},{"NoteNumber":64,"Velocity":34,"Duration":247934,"SoundDuration":247934,"Delta":24249702},{"NoteNumber":60,"Velocity":28,"Duration":247934,"SoundDuration":247934,"Delta":24249702},{"NoteNumber":72,"Velocity":42,"Duration":123967,"SoundDuration":123967,"Delta":24373669},{"NoteNumber":71,"Velocity":45,"Duration":123967,"SoundDuration":123967,"Delta":24497636},{"NoteNumber":69,"Velocity":42,"Duration":144927,"SoundDuration":144927,"Delta":24621603},{"NoteNumber":65,"Velocity":45,"Duration":533478,"SoundDuration":533478,"Delta":24766531},{"NoteNumber":53,"Velocity":37,"Duration":533478,"SoundDuration":533478,"Delta":24766531},{"NoteNumber":75,"Velocity":37,"Duration":144230,"SoundDuration":144230,"Delta":25155778},{"NoteNumber":63,"Velocity":34,"Duration":144230,"SoundDuration":144230,"Delta":25155778},{"NoteNumber":57,"Velocity":34,"Duration":144230,"SoundDuration":144230,"Delta":25155778},{"NoteNumber":64,"Velocity":44,"Duration":677662,"SoundDuration":677662,"Delta":25300009},{"NoteNumber":52,"Velocity":37,"Duration":677662,"SoundDuration":677662,"Delta":25300009},{"NoteNumber":76,"Velocity":37,"Duration":154654,"SoundDuration":154654,"Delta":25454664},{"NoteNumber":74,"Velocity":44,"Duration":133940,"SoundDuration":133940,"Delta":25609319},{"NoteNumber":71,"Velocity":37,"Duration":234411,"SoundDuration":234411,"Delta":25743260},{"NoteNumber":62,"Velocity":31,"Duration":234411,"SoundDuration":234411,"Delta":25743260},{"NoteNumber":56,"Velocity":31,"Duration":234411,"SoundDuration":234411,"Delta":25743260},{"NoteNumber":64,"Velocity":43,"Duration":674233,"SoundDuration":674233,"Delta":25977671},{"NoteNumber":69,"Velocity":43,"Duration":674233,"SoundDuration":674233,"Delta":25977671},{"NoteNumber":60,"Velocity":37,"Duration":674233,"SoundDuration":674233,"Delta":25977671},{"NoteNumber":57,"Velocity":37,"Duration":674233,"SoundDuration":674233,"Delta":25977671},{"NoteNumber":81,"Velocity":37,"Duration":214285,"SoundDuration":214285,"Delta":26651904},{"NoteNumber":72,"Velocity":37,"Duration":214285,"SoundDuration":214285,"Delta":26651904},{"NoteNumber":69,"Velocity":31,"Duration":214285,"SoundDuration":214285,"Delta":26651904},{"NoteNumber":64,"Velocity":31,"Duration":214285,"SoundDuration":214285,"Delta":26651904},{"NoteNumber":72,"Velocity":41,"Duration":39370,"SoundDuration":39370,"Delta":27334132},{"NoteNumber":81,"Velocity":45,"Duration":39370,"SoundDuration":39370,"Delta":27373502},{"NoteNumber":88,"Velocity":58,"Duration":91093,"SoundDuration":91093,"Delta":27412872},{"NoteNumber":57,"Velocity":61,"Duration":91093,"SoundDuration":91093,"Delta":27412872},{"NoteNumber":84,"Velocity":49,"Duration":118565,"SoundDuration":118565,"Delta":27574815},{"NoteNumber":81,"Velocity":49,"Duration":120581,"SoundDuration":120581,"Delta":27730975},{"NoteNumber":57,"Velocity":48,"Duration":62240,"SoundDuration":62240,"Delta":27768569},{"NoteNumber":76,"Velocity":52,"Duration":119521,"SoundDuration":119521,"Delta":27893050},{"NoteNumber":57,"Velocity":57,"Duration":119521,"SoundDuration":119521,"Delta":27893050},{"NoteNumber":60,"Velocity":54,"Duration":119521,"SoundDuration":119521,"Delta":28012572},{"NoteNumber":72,"Velocity":48,"Duration":119521,"SoundDuration":119521,"Delta":28052413},{"NoteNumber":59,"Velocity":57,"Duration":119521,"SoundDuration":119521,"Delta":28132094},{"NoteNumber":69,"Velocity":48,"Duration":81857,"SoundDuration":81857,"Delta":28211775},{"NoteNumber":57,"Velocity":54,"Duration":126050,"SoundDuration":126050,"Delta":28251616},{"NoteNumber":68,"Velocity":41,"Duration":42016,"SoundDuration":42016,"Delta":28293633},{"NoteNumber":76,"Velocity":45,"Duration":42016,"SoundDuration":42016,"Delta":28335650},{"NoteNumber":83,"Velocity":61,"Duration":90725,"SoundDuration":90725,"Delta":28377667},{"NoteNumber":64,"Velocity":59,"Duration":90725,"SoundDuration":90725,"Delta":28377667},{"NoteNumber":80,"Velocity":54,"Duration":117958,"SoundDuration":117958,"Delta":28538957},{"NoteNumber":76,"Velocity":53,"Duration":120646,"SoundDuration":120646,"Delta":28694229},{"NoteNumber":52,"Velocity":48,"Duration":62500,"SoundDuration":62500,"Delta":28731542},{"NoteNumber":71,"Velocity":52,"Duration":119521,"SoundDuration":119521,"Delta":28856542},{"NoteNumber":52,"Velocity":57,"Duration":119521,"SoundDuration":119521,"Delta":28856542},{"NoteNumber":55,"Velocity":54,"Duration":119521,"SoundDuration":119521,"Delta":28976064},{"NoteNumber":68,"Velocity":45,"Duration":119521,"SoundDuration":119521,"Delta":29015905},{"NoteNumber":53,"Velocity":57,"Duration":119521,"SoundDuration":119521,"Delta":29095586},{"NoteNumber":64,"Velocity":45,"Duration":81507,"SoundDuration":81507,"Delta":29175268},{"NoteNumber":52,"Velocity":54,"Duration":125000,"SoundDuration":125000,"Delta":29215108},{"NoteNumber":72,"Velocity":41,"Duration":41666,"SoundDuration":41666,"Delta":29256775},{"NoteNumber":81,"Velocity":45,"Duration":41666,"SoundDuration":41666,"Delta":29298442},{"NoteNumber":88,"Velocity":58,"Duration":90361,"SoundDuration":90361,"Delta":29340108},{"NoteNumber":57,"Velocity":61,"Duration":90361,"SoundDuration":90361,"Delta":29340108},{"NoteNumber":45,"Velocity":38,"Duration":344737,"SoundDuration":344737,"Delta":29340108},{"NoteNumber":52,"Velocity":41,"Duration":314010,"SoundDuration":314010,"Delta":29380269},{"NoteNumber":57,"Velocity":45,"Duration":179510,"SoundDuration":179510,"Delta":29420430},{"NoteNumber":60,"Velocity":48,"Duration":233689,"SoundDuration":233689,"Delta":29460590},{"NoteNumber":84,"Velocity":49,"Duration":118057,"SoundDuration":118057,"Delta":29500751},{"NoteNumber":81,"Velocity":49,"Duration":120040,"SoundDuration":120040,"Delta":29656544},{"NoteNumber":57,"Velocity":48,"Duration":61728,"SoundDuration":61728,"Delta":29694280},{"NoteNumber":76,"Velocity":52,"Duration":119521,"SoundDuration":119521,"Delta":29817737},{"NoteNumber":57,"Velocity":57,"Duration":119521,"SoundDuration":119521,"Delta":29817737},{"NoteNumber":60,"Velocity":54,"Duration":119521,"SoundDuration":119521,"Delta":29937259},{"NoteNumber":72,"Velocity":48,"Duration":119521,"SoundDuration":119521,"Delta":29977099},{"NoteNumber":59,"Velocity":57,"Duration":119521,"SoundDuration":119521,"Delta":30056781},{"NoteNumber":69,"Velocity":48,"Duration":142933,"SoundDuration":142933,"Delta":30136462},{"NoteNumber":57,"Velocity":54,"Duration":154639,"SoundDuration":154639,"Delta":30176303},{"NoteNumber":64,"Velocity":61,"Duration":602954,"SoundDuration":602954,"Delta":30330942},{"NoteNumber":68,"Velocity":49,"Duration":147221,"SoundDuration":147221,"Delta":30517858},{"NoteNumber":76,"Velocity":49,"Duration":147221,"SoundDuration":147221,"Delta":30517858},{"NoteNumber":71,"Velocity":46,"Duration":161290,"SoundDuration":161290,"Delta":30718843},{"NoteNumber":80,"Velocity":46,"Duration":161290,"SoundDuration":161290,"Delta":30718843},{"NoteNumber":88,"Velocity":44,"Duration":161290,"SoundDuration":161290,"Delta":30933896},{"NoteNumber":76,"Velocity":44,"Duration":161290,"SoundDuration":161290,"Delta":30933896},{"NoteNumber":52,"Velocity":46,"Duration":161290,"SoundDuration":161290,"Delta":30933896},{"NoteNumber":72,"Velocity":32,"Duration":39370,"SoundDuration":39370,"Delta":31445847},{"NoteNumber":81,"Velocity":36,"Duration":39370,"SoundDuration":39370,"Delta":31485217},{"NoteNumber":88,"Velocity":46,"Duration":91093,"SoundDuration":91093,"Delta":31524587},{"NoteNumber":57,"Velocity":48,"Duration":91093,"SoundDuration":91093,"Delta":31524587},{"NoteNumber":84,"Velocity":39,"Duration":117335,"SoundDuration":117335,"Delta":31686530},{"NoteNumber":81,"Velocity":39,"Duration":119351,"SoundDuration":119351,"Delta":31840229},{"NoteNumber":57,"Velocity":38,"Duration":62240,"SoundDuration":62240,"Delta":31876593},{"NoteNumber":76,"Velocity":41,"Duration":119522,"SoundDuration":119522,"Delta":32001074},{"NoteNumber":57,"Velocity":45,"Duration":119522,"SoundDuration":119522,"Delta":32001074},{"NoteNumber":60,"Velocity":43,"Duration":119521,"SoundDuration":119521,"Delta":32120596},{"NoteNumber":72,"Velocity":38,"Duration":119522,"SoundDuration":119522,"Delta":32160437},{"NoteNumber":59,"Velocity":45,"Duration":119522,"SoundDuration":119522,"Delta":32240118},{"NoteNumber":69,"Velocity":38,"Duration":88621,"SoundDuration":88621,"Delta":32319800},{"NoteNumber":57,"Velocity":43,"Duration":146341,"SoundDuration":146341,"Delta":32359640},{"NoteNumber":68,"Velocity":32,"Duration":48780,"SoundDuration":48780,"Delta":32408421},{"NoteNumber":76,"Velocity":36,"Duration":48780,"SoundDuration":48780,"Delta":32457201},{"NoteNumber":83,"Velocity":48,"Duration":88932,"SoundDuration":88932,"Delta":32505982},{"NoteNumber":64,"Velocity":46,"Duration":88932,"SoundDuration":88932,"Delta":32505982},{"NoteNumber":80,"Velocity":43,"Duration":116364,"SoundDuration":116364,"Delta":32664084},{"NoteNumber":76,"Velocity":42,"Duration":120646,"SoundDuration":120646,"Delta":32817763},{"NoteNumber":52,"Velocity":38,"Duration":62500,"SoundDuration":62500,"Delta":32855076},{"NoteNumber":71,"Velocity":41,"Duration":119522,"SoundDuration":119522,"Delta":32980076},{"NoteNumber":52,"Velocity":45,"Duration":119522,"SoundDuration":119522,"Delta":32980076},{"NoteNumber":55,"Velocity":43,"Duration":119521,"SoundDuration":119521,"Delta":33099598},{"NoteNumber":68,"Velocity":36,"Duration":119522,"SoundDuration":119522,"Delta":33139439},{"NoteNumber":53,"Velocity":45,"Duration":119522,"SoundDuration":119522,"Delta":33219120},{"NoteNumber":64,"Velocity":36,"Duration":88860,"SoundDuration":88860,"Delta":33298801},{"NoteNumber":52,"Velocity":43,"Duration":147058,"SoundDuration":147058,"Delta":33338642},{"NoteNumber":72,"Velocity":32,"Duration":49019,"SoundDuration":49019,"Delta":33387662},{"NoteNumber":81,"Velocity":36,"Duration":49019,"SoundDuration":49019,"Delta":33436681},{"NoteNumber":88,"Velocity":46,"Duration":90361,"SoundDuration":90361,"Delta":33485701},{"NoteNumber":57,"Velocity":48,"Duration":90361,"SoundDuration":90361,"Delta":33485701},{"NoteNumber":84,"Velocity":39,"Duration":118057,"SoundDuration":118057,"Delta":33646343},{"NoteNumber":81,"Velocity":39,"Duration":120040,"SoundDuration":120040,"Delta":33802136},{"NoteNumber":57,"Velocity":38,"Duration":61728,"SoundDuration":61728,"Delta":33839872},{"NoteNumber":76,"Velocity":41,"Duration":119522,"SoundDuration":119522,"Delta":33963329},{"NoteNumber":57,"Velocity":45,"Duration":119522,"SoundDuration":119522,"Delta":33963329},{"NoteNumber":60,"Velocity":43,"Duration":116731,"SoundDuration":116731,"Delta":34082851},{"NoteNumber":72,"Velocity":38,"Duration":116731,"SoundDuration":116731,"Delta":34121762},{"NoteNumber":59,"Velocity":45,"Duration":116731,"SoundDuration":116731,"Delta":34199583},{"NoteNumber":69,"Velocity":38,"Duration":160861,"SoundDuration":160861,"Delta":34277404},{"NoteNumber":57,"Velocity":43,"Duration":182926,"SoundDuration":182926,"Delta":34316314},{"NoteNumber":64,"Velocity":48,"Duration":615851,"SoundDuration":615851,"Delta":34499241},{"NoteNumber":68,"Velocity":39,"Duration":150035,"SoundDuration":150035,"Delta":34688814},{"NoteNumber":76,"Velocity":39,"Duration":150035,"SoundDuration":150035,"Delta":34688814},{"NoteNumber":71,"Velocity":36,"Duration":165745,"SoundDuration":165745,"Delta":34894098},{"NoteNumber":80,"Velocity":36,"Duration":165745,"SoundDuration":165745,"Delta":34894098},{"NoteNumber":88,"Velocity":35,"Duration":165745,"SoundDuration":165745,"Delta":35115092},{"NoteNumber":76,"Velocity":35,"Duration":165745,"SoundDuration":165745,"Delta":35115092},{"NoteNumber":52,"Velocity":36,"Duration":165745,"SoundDuration":165745,"Delta":35115092},{"NoteNumber":57,"Velocity":39,"Duration":246703,"SoundDuration":246703,"Delta":35559084},{"NoteNumber":64,"Velocity":41,"Duration":209203,"SoundDuration":209203,"Delta":35596584},{"NoteNumber":69,"Velocity":43,"Duration":179675,"SoundDuration":179675,"Delta":35626111},{"NoteNumber":81,"Velocity":41,"Duration":150148,"SoundDuration":150148,"Delta":35655639},{"NoteNumber":85,"Velocity":45,"Duration":120620,"SoundDuration":120620,"Delta":35685166},{"NoteNumber":93,"Velocity":58,"Duration":91093,"SoundDuration":91093,"Delta":35714694},{"NoteNumber":88,"Velocity":49,"Duration":118565,"SoundDuration":118565,"Delta":35876637},{"NoteNumber":85,"Velocity":49,"Duration":120581,"SoundDuration":120581,"Delta":36032797},{"NoteNumber":69,"Velocity":48,"Duration":62240,"SoundDuration":62240,"Delta":36070391},{"NoteNumber":81,"Velocity":52,"Duration":119522,"SoundDuration":119522,"Delta":36194872},{"NoteNumber":69,"Velocity":57,"Duration":119522,"SoundDuration":119522,"Delta":36194872},{"NoteNumber":70,"Velocity":54,"Duration":119521,"SoundDuration":119521,"Delta":36314394},{"NoteNumber":76,"Velocity":48,"Duration":119522,"SoundDuration":119522,"Delta":36354235},{"NoteNumber":69,"Velocity":57,"Duration":119522,"SoundDuration":119522,"Delta":36433916},{"NoteNumber":73,"Velocity":48,"Duration":123874,"SoundDuration":123874,"Delta":36513598},{"NoteNumber":67,"Velocity":54,"Duration":84033,"SoundDuration":84033,"Delta":36553438},{"NoteNumber":50,"Velocity":53,"Duration":162984,"SoundDuration":162984,"Delta":36637472},{"NoteNumber":65,"Velocity":59,"Duration":120967,"SoundDuration":120967,"Delta":36679489},{"NoteNumber":69,"Velocity":45,"Duration":117958,"SoundDuration":117958,"Delta":36840779},{"NoteNumber":74,"Velocity":54,"Duration":117958,"SoundDuration":117958,"Delta":36840779},{"NoteNumber":74,"Velocity":45,"Duration":120646,"SoundDuration":120646,"Delta":36996051},{"NoteNumber":77,"Velocity":53,"Duration":120646,"SoundDuration":120646,"Delta":36996051},{"NoteNumber":62,"Velocity":48,"Duration":62500,"SoundDuration":62500,"Delta":37033365},{"NoteNumber":77,"Velocity":44,"Duration":119522,"SoundDuration":119522,"Delta":37158365},{"NoteNumber":81,"Velocity":52,"Duration":119522,"SoundDuration":119522,"Delta":37158365},{"NoteNumber":62,"Velocity":57,"Duration":119522,"SoundDuration":119522,"Delta":37158365},{"NoteNumber":65,"Velocity":54,"Duration":119521,"SoundDuration":119521,"Delta":37277887},{"NoteNumber":81,"Velocity":40,"Duration":119522,"SoundDuration":119522,"Delta":37317727},{"NoteNumber":86,"Velocity":48,"Duration":119522,"SoundDuration":119522,"Delta":37317727},{"NoteNumber":64,"Velocity":57,"Duration":119522,"SoundDuration":119522,"Delta":37397409},{"NoteNumber":86,"Velocity":41,"Duration":100816,"SoundDuration":100816,"Delta":37477090},{"NoteNumber":89,"Velocity":49,"Duration":100816,"SoundDuration":100816,"Delta":37477090},{"NoteNumber":62,"Velocity":54,"Duration":91463,"SoundDuration":91463,"Delta":37516931},{"NoteNumber":55,"Velocity":37,"Duration":221528,"SoundDuration":221528,"Delta":37608394},{"NoteNumber":62,"Velocity":40,"Duration":195441,"SoundDuration":195441,"Delta":37634481},{"NoteNumber":67,"Velocity":44,"Duration":169354,"SoundDuration":169354,"Delta":37660568},{"NoteNumber":79,"Velocity":47,"Duration":143267,"SoundDuration":143267,"Delta":37686655},{"NoteNumber":83,"Velocity":50,"Duration":117180,"SoundDuration":117180,"Delta":37712742},{"NoteNumber":91,"Velocity":58,"Duration":91093,"SoundDuration":91093,"Delta":37738829},{"NoteNumber":86,"Velocity":49,"Duration":118565,"SoundDuration":118565,"Delta":37900772},{"NoteNumber":83,"Velocity":49,"Duration":120581,"SoundDuration":120581,"Delta":38056932},{"NoteNumber":67,"Velocity":48,"Duration":62240,"SoundDuration":62240,"Delta":38094526},{"NoteNumber":79,"Velocity":52,"Duration":119522,"SoundDuration":119522,"Delta":38219007},{"NoteNumber":67,"Velocity":57,"Duration":119522,"SoundDuration":119522,"Delta":38219007},{"NoteNumber":69,"Velocity":54,"Duration":119521,"SoundDuration":119521,"Delta":38338529},{"NoteNumber":74,"Velocity":48,"Duration":119522,"SoundDuration":119522,"Delta":38378370},{"NoteNumber":67,"Velocity":57,"Duration":119522,"SoundDuration":119522,"Delta":38458051},{"NoteNumber":71,"Velocity":48,"Duration":123874,"SoundDuration":123874,"Delta":38537733},{"NoteNumber":65,"Velocity":54,"Duration":84033,"SoundDuration":84033,"Delta":38577573},{"NoteNumber":48,"Velocity":53,"Duration":162984,"SoundDuration":162984,"Delta":38661607},{"NoteNumber":64,"Velocity":59,"Duration":120967,"SoundDuration":120967,"Delta":38703624},{"NoteNumber":67,"Velocity":45,"Duration":117958,"SoundDuration":117958,"Delta":38864914},{"NoteNumber":72,"Velocity":54,"Duration":117958,"SoundDuration":117958,"Delta":38864914},{"NoteNumber":72,"Velocity":45,"Duration":120646,"SoundDuration":120646,"Delta":39020186},{"NoteNumber":76,"Velocity":53,"Duration":120646,"SoundDuration":120646,"Delta":39020186},{"NoteNumber":60,"Velocity":48,"Duration":62500,"SoundDuration":62500,"Delta":39057500},{"NoteNumber":76,"Velocity":44,"Duration":119522,"SoundDuration":119522,"Delta":39182500},{"NoteNumber":79,"Velocity":52,"Duration":119522,"SoundDuration":119522,"Delta":39182500},{"NoteNumber":60,"Velocity":57,"Duration":119522,"SoundDuration":119522,"Delta":39182500},{"NoteNumber":64,"Velocity":54,"Duration":119521,"SoundDuration":119521,"Delta":39302022},{"NoteNumber":79,"Velocity":40,"Duration":119522,"SoundDuration":119522,"Delta":39341862},{"NoteNumber":84,"Velocity":48,"Duration":119522,"SoundDuration":119522,"Delta":39341862},{"NoteNumber":62,"Velocity":57,"Duration":119522,"SoundDuration":119522,"Delta":39421544},{"NoteNumber":84,"Velocity":41,"Duration":131507,"SoundDuration":131507,"Delta":39501225},{"NoteNumber":88,"Velocity":49,"Duration":131507,"SoundDuration":131507,"Delta":39501225},{"NoteNumber":60,"Velocity":54,"Duration":66666,"SoundDuration":66666,"Delta":39541066},{"NoteNumber":50,"Velocity":32,"Duration":167975,"SoundDuration":167975,"Delta":39607732},{"NoteNumber":56,"Velocity":36,"Duration":130475,"SoundDuration":130475,"Delta":39645232},{"NoteNumber":83,"Velocity":39,"Duration":92975,"SoundDuration":92975,"Delta":39682732},{"NoteNumber":89,"Velocity":46,"Duration":92975,"SoundDuration":92975,"Delta":39682732},{"NoteNumber":65,"Velocity":48,"Duration":92975,"SoundDuration":92975,"Delta":39682732},{"NoteNumber":80,"Velocity":33,"Duration":120238,"SoundDuration":120238,"Delta":39848022},{"NoteNumber":86,"Velocity":39,"Duration":120238,"SoundDuration":120238,"Delta":39848022},{"NoteNumber":77,"Velocity":33,"Duration":120581,"SoundDuration":120581,"Delta":40005854},{"NoteNumber":83,"Velocity":39,"Duration":120581,"SoundDuration":120581,"Delta":40005854},{"NoteNumber":59,"Velocity":38,"Duration":62240,"SoundDuration":62240,"Delta":40043448},{"NoteNumber":74,"Velocity":35,"Duration":119522,"SoundDuration":119522,"Delta":40167929},{"NoteNumber":80,"Velocity":41,"Duration":119522,"SoundDuration":119522,"Delta":40167929},{"NoteNumber":59,"Velocity":45,"Duration":119522,"SoundDuration":119522,"Delta":40167929},{"NoteNumber":62,"Velocity":43,"Duration":119521,"SoundDuration":119521,"Delta":40287451},{"NoteNumber":71,"Velocity":32,"Duration":119522,"SoundDuration":119522,"Delta":40327292},{"NoteNumber":77,"Velocity":38,"Duration":119522,"SoundDuration":119522,"Delta":40327292},{"NoteNumber":60,"Velocity":45,"Duration":119522,"SoundDuration":119522,"Delta":40406973},{"NoteNumber":74,"Velocity":38,"Duration":88621,"SoundDuration":88621,"Delta":40486655},{"NoteNumber":59,"Velocity":43,"Duration":73170,"SoundDuration":73170,"Delta":40526495},{"NoteNumber":76,"Velocity":32,"Duration":48780,"SoundDuration":48780,"Delta":40575276},{"NoteNumber":48,"Velocity":42,"Duration":73170,"SoundDuration":73170,"Delta":40599666},{"NoteNumber":81,"Velocity":36,"Duration":48780,"SoundDuration":48780,"Delta":40624056},{"NoteNumber":88,"Velocity":48,"Duration":90725,"SoundDuration":90725,"Delta":40672837},{"NoteNumber":64,"Velocity":46,"Duration":90725,"SoundDuration":90725,"Delta":40672837},{"NoteNumber":84,"Velocity":43,"Duration":117958,"SoundDuration":117958,"Delta":40834127},{"NoteNumber":81,"Velocity":42,"Duration":120646,"SoundDuration":120646,"Delta":40989399},{"NoteNumber":57,"Velocity":38,"Duration":62500,"SoundDuration":62500,"Delta":41026713},{"NoteNumber":76,"Velocity":41,"Duration":119522,"SoundDuration":119522,"Delta":41151713},{"NoteNumber":57,"Velocity":45,"Duration":119522,"SoundDuration":119522,"Delta":41151713},{"NoteNumber":60,"Velocity":43,"Duration":119521,"SoundDuration":119521,"Delta":41271235},{"NoteNumber":72,"Velocity":38,"Duration":119522,"SoundDuration":119522,"Delta":41311075},{"NoteNumber":59,"Velocity":45,"Duration":119522,"SoundDuration":119522,"Delta":41390757},{"NoteNumber":69,"Velocity":39,"Duration":137879,"SoundDuration":137879,"Delta":41470438},{"NoteNumber":57,"Velocity":43,"Duration":147058,"SoundDuration":147058,"Delta":41510279},{"NoteNumber":53,"Velocity":48,"Duration":529543,"SoundDuration":529543,"Delta":41657337},{"NoteNumber":63,"Velocity":33,"Duration":128205,"SoundDuration":128205,"Delta":41828278},{"NoteNumber":71,"Velocity":39,"Duration":128205,"SoundDuration":128205,"Delta":41828278},{"NoteNumber":75,"Velocity":36,"Duration":139353,"SoundDuration":139353,"Delta":41999218},{"NoteNumber":69,"Velocity":36,"Duration":139353,"SoundDuration":139353,"Delta":41999218},{"NoteNumber":59,"Velocity":38,"Duration":144927,"SoundDuration":144927,"Delta":42041953},{"NoteNumber":52,"Velocity":45,"Duration":571232,"SoundDuration":571232,"Delta":42186881},{"NoteNumber":64,"Velocity":43,"Duration":131578,"SoundDuration":131578,"Delta":42318460},{"NoteNumber":76,"Velocity":39,"Duration":134230,"SoundDuration":134230,"Delta":42362319},{"NoteNumber":68,"Velocity":33,"Duration":134230,"SoundDuration":134230,"Delta":42362319},{"NoteNumber":62,"Velocity":45,"Duration":139535,"SoundDuration":139535,"Delta":42450039},{"NoteNumber":80,"Velocity":36,"Duration":158871,"SoundDuration":158871,"Delta":42543062},{"NoteNumber":71,"Velocity":30,"Duration":158871,"SoundDuration":158871,"Delta":42543062},{"NoteNumber":59,"Velocity":43,"Duration":168539,"SoundDuration":168539,"Delta":42589574},{"NoteNumber":57,"Velocity":48,"Duration":726272,"SoundDuration":726272,"Delta":42758113},{"NoteNumber":81,"Velocity":39,"Duration":163350,"SoundDuration":163350,"Delta":42953235},{"NoteNumber":72,"Velocity":33,"Duration":163350,"SoundDuration":163350,"Delta":42953235},{"NoteNumber":76,"Velocity":30,"Duration":223269,"SoundDuration":223269,"Delta":43182375},{"NoteNumber":84,"Velocity":36,"Duration":223269,"SoundDuration":223269,"Delta":43182375},{"NoteNumber":81,"Velocity":38,"Duration":236220,"SoundDuration":236220,"Delta":43484385},{"NoteNumber":93,"Velocity":45,"Duration":236220,"SoundDuration":236220,"Delta":43484385},{"NoteNumber":64,"Velocity":27,"Duration":236220,"SoundDuration":236220,"Delta":43484385},{"NoteNumber":72,"Velocity":36,"Duration":236220,"SoundDuration":236220,"Delta":43484385},{"NoteNumber":41,"Velocity":43,"Duration":475261,"SoundDuration":475261,"Delta":44429267},{"NoteNumber":45,"Velocity":51,"Duration":128712,"SoundDuration":128712,"Delta":44429267},{"NoteNumber":44,"Velocity":48,"Duration":128470,"SoundDuration":128470,"Delta":44548079},{"NoteNumber":45,"Velocity":51,"Duration":126372,"SoundDuration":126372,"Delta":44666891},{"NoteNumber":44,"Velocity":48,"Duration":121735,"SoundDuration":121735,"Delta":44782793},{"NoteNumber":46,"Velocity":54,"Duration":68491,"SoundDuration":68491,"Delta":44845617},{"NoteNumber":45,"Velocity":58,"Duration":124540,"SoundDuration":124540,"Delta":44904529},{"NoteNumber":47,"Velocity":48,"Duration":124540,"SoundDuration":124540,"Delta":45019489},{"NoteNumber":48,"Velocity":51,"Duration":124902,"SoundDuration":124902,"Delta":45134449},{"NoteNumber":50,"Velocity":47,"Duration":119312,"SoundDuration":119312,"Delta":45249409},{"NoteNumber":52,"Velocity":51,"Duration":124540,"SoundDuration":124540,"Delta":45368722},{"NoteNumber":40,"Velocity":43,"Duration":476686,"SoundDuration":476686,"Delta":45368722},{"NoteNumber":44,"Velocity":43,"Duration":476686,"SoundDuration":476686,"Delta":45368722},{"NoteNumber":51,"Velocity":48,"Duration":124387,"SoundDuration":124387,"Delta":45483682},{"NoteNumber":52,"Velocity":51,"Duration":125584,"SoundDuration":125584,"Delta":45598643},{"NoteNumber":51,"Velocity":48,"Duration":133634,"SoundDuration":133634,"Delta":45711773},{"NoteNumber":53,"Velocity":52,"Duration":68338,"SoundDuration":68338,"Delta":45786497},{"NoteNumber":52,"Velocity":56,"Duration":122410,"SoundDuration":122410,"Delta":45845408},{"NoteNumber":50,"Velocity":48,"Duration":120638,"SoundDuration":120638,"Delta":45958539},{"NoteNumber":48,"Velocity":51,"Duration":122626,"SoundDuration":122626,"Delta":46069898},{"NoteNumber":47,"Velocity":47,"Duration":135220,"SoundDuration":135220,"Delta":46181256},{"NoteNumber":41,"Velocity":38,"Duration":487441,"SoundDuration":487441,"Delta":46316477},{"NoteNumber":45,"Velocity":45,"Duration":128174,"SoundDuration":128174,"Delta":46316477},{"NoteNumber":44,"Velocity":43,"Duration":128013,"SoundDuration":128013,"Delta":46434792},{"NoteNumber":45,"Velocity":45,"Duration":128965,"SoundDuration":128965,"Delta":46553107},{"NoteNumber":44,"Velocity":41,"Duration":134432,"SoundDuration":134432,"Delta":46669485},{"NoteNumber":46,"Velocity":48,"Duration":68338,"SoundDuration":68338,"Delta":46745006},{"NoteNumber":45,"Velocity":50,"Duration":122558,"SoundDuration":122558,"Delta":46803918},{"NoteNumber":47,"Velocity":41,"Duration":122558,"SoundDuration":122558,"Delta":46917049},{"NoteNumber":48,"Velocity":44,"Duration":123555,"SoundDuration":123555,"Delta":47030179},{"NoteNumber":50,"Velocity":40,"Duration":125093,"SoundDuration":125093,"Delta":47143310},{"NoteNumber":40,"Velocity":36,"Duration":559431,"SoundDuration":559431,"Delta":47268404},{"NoteNumber":44,"Velocity":36,"Duration":559431,"SoundDuration":559431,"Delta":47268404},{"NoteNumber":52,"Velocity":43,"Duration":131461,"SoundDuration":131461,"Delta":47268404},{"NoteNumber":51,"Velocity":40,"Duration":131127,"SoundDuration":131127,"Delta":47389753},{"NoteNumber":52,"Velocity":42,"Duration":139244,"SoundDuration":139244,"Delta":47511103},{"NoteNumber":51,"Velocity":39,"Duration":199398,"SoundDuration":199398,"Delta":47628437},{"NoteNumber":53,"Velocity":40,"Duration":78222,"SoundDuration":78222,"Delta":47759901},{"NoteNumber":52,"Velocity":36,"Duration":185185,"SoundDuration":185185,"Delta":47827835},{"NoteNumber":53,"Velocity":43,"Duration":475261,"SoundDuration":475261,"Delta":48317518},{"NoteNumber":57,"Velocity":51,"Duration":128712,"SoundDuration":128712,"Delta":48317518},{"NoteNumber":56,"Velocity":48,"Duration":128470,"SoundDuration":128470,"Delta":48436330},{"NoteNumber":57,"Velocity":51,"Duration":126372,"SoundDuration":126372,"Delta":48555142},{"NoteNumber":56,"Velocity":48,"Duration":121735,"SoundDuration":121735,"Delta":48671044},{"NoteNumber":58,"Velocity":53,"Duration":68491,"SoundDuration":68491,"Delta":48733869},{"NoteNumber":57,"Velocity":56,"Duration":124540,"SoundDuration":124540,"Delta":48792780},{"NoteNumber":59,"Velocity":48,"Duration":124540,"SoundDuration":124540,"Delta":48907740},{"NoteNumber":60,"Velocity":51,"Duration":124902,"SoundDuration":124902,"Delta":49022701},{"NoteNumber":62,"Velocity":47,"Duration":119312,"SoundDuration":119312,"Delta":49137661},{"NoteNumber":52,"Velocity":43,"Duration":476686,"SoundDuration":476686,"Delta":49256974},{"NoteNumber":56,"Velocity":43,"Duration":476686,"SoundDuration":476686,"Delta":49256974},{"NoteNumber":64,"Velocity":51,"Duration":124540,"SoundDuration":124540,"Delta":49256974},{"NoteNumber":63,"Velocity":48,"Duration":124387,"SoundDuration":124387,"Delta":49371934},{"NoteNumber":64,"Velocity":51,"Duration":125584,"SoundDuration":125584,"Delta":49486894},{"NoteNumber":63,"Velocity":48,"Duration":133634,"SoundDuration":133634,"Delta":49600025},{"NoteNumber":65,"Velocity":50,"Duration":68338,"SoundDuration":68338,"Delta":49674748},{"NoteNumber":64,"Velocity":54,"Duration":122410,"SoundDuration":122410,"Delta":49733660},{"NoteNumber":62,"Velocity":48,"Duration":120638,"SoundDuration":120638,"Delta":49846791},{"NoteNumber":60,"Velocity":51,"Duration":122626,"SoundDuration":122626,"Delta":49958149},{"NoteNumber":59,"Velocity":47,"Duration":135220,"SoundDuration":135220,"Delta":50069508},{"NoteNumber":53,"Velocity":38,"Duration":487441,"SoundDuration":487441,"Delta":50204728},{"NoteNumber":57,"Velocity":45,"Duration":128174,"SoundDuration":128174,"Delta":50204728},{"NoteNumber":56,"Velocity":43,"Duration":128013,"SoundDuration":128013,"Delta":50323043},{"NoteNumber":57,"Velocity":45,"Duration":128965,"SoundDuration":128965,"Delta":50441359},{"NoteNumber":56,"Velocity":41,"Duration":134432,"SoundDuration":134432,"Delta":50557737},{"NoteNumber":58,"Velocity":48,"Duration":68338,"SoundDuration":68338,"Delta":50633258},{"NoteNumber":57,"Velocity":53,"Duration":122558,"SoundDuration":122558,"Delta":50692169},{"NoteNumber":59,"Velocity":41,"Duration":122558,"SoundDuration":122558,"Delta":50805300},{"NoteNumber":60,"Velocity":44,"Duration":123555,"SoundDuration":123555,"Delta":50918431},{"NoteNumber":62,"Velocity":40,"Duration":125093,"SoundDuration":125093,"Delta":51031562},{"NoteNumber":52,"Velocity":36,"Duration":558883,"SoundDuration":558883,"Delta":51156655},{"NoteNumber":56,"Velocity":36,"Duration":558883,"SoundDuration":558883,"Delta":51156655},{"NoteNumber":64,"Velocity":43,"Duration":130900,"SoundDuration":130900,"Delta":51156655},{"NoteNumber":63,"Velocity":40,"Duration":130649,"SoundDuration":130649,"Delta":51277487},{"NoteNumber":64,"Velocity":42,"Duration":139733,"SoundDuration":139733,"Delta":51398318},{"NoteNumber":63,"Velocity":39,"Duration":199398,"SoundDuration":199398,"Delta":51516141},{"NoteNumber":65,"Velocity":40,"Duration":67934,"SoundDuration":67934,"Delta":51647604},{"NoteNumber":64,"Velocity":36,"Duration":185185,"SoundDuration":185185,"Delta":51715539},{"NoteNumber":61,"Velocity":40,"Duration":475261,"SoundDuration":475261,"Delta":52205222},{"NoteNumber":64,"Velocity":43,"Duration":475261,"SoundDuration":475261,"Delta":52205222},{"NoteNumber":69,"Velocity":51,"Duration":128712,"SoundDuration":128712,"Delta":52205222},{"NoteNumber":68,"Velocity":48,"Duration":128470,"SoundDuration":128470,"Delta":52324034},{"NoteNumber":69,"Velocity":51,"Duration":126372,"SoundDuration":126372,"Delta":52442846},{"NoteNumber":68,"Velocity":48,"Duration":121735,"SoundDuration":121735,"Delta":52558748},{"NoteNumber":70,"Velocity":50,"Duration":68491,"SoundDuration":68491,"Delta":52621572},{"NoteNumber":69,"Velocity":54,"Duration":124540,"SoundDuration":124540,"Delta":52680484},{"NoteNumber":67,"Velocity":48,"Duration":124540,"SoundDuration":124540,"Delta":52795444},{"NoteNumber":65,"Velocity":51,"Duration":124902,"SoundDuration":124902,"Delta":52910404},{"NoteNumber":64,"Velocity":47,"Duration":119312,"SoundDuration":119312,"Delta":53025364},{"NoteNumber":53,"Velocity":43,"Duration":476686,"SoundDuration":476686,"Delta":53144677},{"NoteNumber":57,"Velocity":43,"Duration":476686,"SoundDuration":476686,"Delta":53144677},{"NoteNumber":62,"Velocity":51,"Duration":124540,"SoundDuration":124540,"Delta":53144677},{"NoteNumber":61,"Velocity":48,"Duration":124387,"SoundDuration":124387,"Delta":53259637},{"NoteNumber":62,"Velocity":51,"Duration":125584,"SoundDuration":125584,"Delta":53374598},{"NoteNumber":61,"Velocity":48,"Duration":133634,"SoundDuration":133634,"Delta":53487728},{"NoteNumber":63,"Velocity":47,"Duration":68338,"SoundDuration":68338,"Delta":53562452},{"NoteNumber":62,"Velocity":54,"Duration":122596,"SoundDuration":122596,"Delta":53621363},{"NoteNumber":64,"Velocity":48,"Duration":123050,"SoundDuration":123050,"Delta":53734494},{"NoteNumber":65,"Velocity":51,"Duration":124853,"SoundDuration":124853,"Delta":53848079},{"NoteNumber":62,"Velocity":47,"Duration":135220,"SoundDuration":135220,"Delta":53961664},{"NoteNumber":59,"Velocity":39,"Duration":487441,"SoundDuration":487441,"Delta":54096884},{"NoteNumber":62,"Velocity":41,"Duration":487441,"SoundDuration":487441,"Delta":54096884},{"NoteNumber":67,"Velocity":49,"Duration":128174,"SoundDuration":128174,"Delta":54096884},{"NoteNumber":66,"Velocity":47,"Duration":128013,"SoundDuration":128013,"Delta":54215199},{"NoteNumber":67,"Velocity":48,"Duration":128965,"SoundDuration":128965,"Delta":54333515},{"NoteNumber":66,"Velocity":45,"Duration":134432,"SoundDuration":134432,"Delta":54449893},{"NoteNumber":68,"Velocity":51,"Duration":68414,"SoundDuration":68414,"Delta":54525414},{"NoteNumber":67,"Velocity":54,"Duration":123546,"SoundDuration":123546,"Delta":54584325},{"NoteNumber":65,"Velocity":45,"Duration":123546,"SoundDuration":123546,"Delta":54698368},{"NoteNumber":64,"Velocity":48,"Duration":124466,"SoundDuration":124466,"Delta":54812410},{"NoteNumber":62,"Velocity":44,"Duration":125093,"SoundDuration":125093,"Delta":54926453},{"NoteNumber":52,"Velocity":43,"Duration":476686,"SoundDuration":476686,"Delta":55051547},{"NoteNumber":55,"Velocity":43,"Duration":476686,"SoundDuration":476686,"Delta":55051547},{"NoteNumber":60,"Velocity":51,"Duration":124540,"SoundDuration":124540,"Delta":55051547},{"NoteNumber":59,"Velocity":48,"Duration":124387,"SoundDuration":124387,"Delta":55166507},{"NoteNumber":60,"Velocity":51,"Duration":125584,"SoundDuration":125584,"Delta":55281467},{"NoteNumber":59,"Velocity":48,"Duration":133634,"SoundDuration":133634,"Delta":55394598},{"NoteNumber":61,"Velocity":47,"Duration":68452,"SoundDuration":68452,"Delta":55469321},{"NoteNumber":60,"Velocity":52,"Duration":123922,"SoundDuration":123922,"Delta":55528233},{"NoteNumber":62,"Velocity":48,"Duration":122558,"SoundDuration":122558,"Delta":55642728},{"NoteNumber":64,"Velocity":51,"Duration":124399,"SoundDuration":124399,"Delta":55755858},{"NoteNumber":60,"Velocity":47,"Duration":135220,"SoundDuration":135220,"Delta":55868989},{"NoteNumber":50,"Velocity":39,"Duration":475261,"SoundDuration":475261,"Delta":56004210},{"NoteNumber":56,"Velocity":43,"Duration":475261,"SoundDuration":475261,"Delta":56004210},{"NoteNumber":65,"Velocity":51,"Duration":128712,"SoundDuration":128712,"Delta":56004210},{"NoteNumber":64,"Velocity":48,"Duration":128470,"SoundDuration":128470,"Delta":56123022},{"NoteNumber":65,"Velocity":51,"Duration":126372,"SoundDuration":126372,"Delta":56241834},{"NoteNumber":64,"Velocity":48,"Duration":121735,"SoundDuration":121735,"Delta":56357735},{"NoteNumber":67,"Velocity":48,"Duration":68491,"SoundDuration":68491,"Delta":56420560},{"NoteNumber":65,"Velocity":52,"Duration":124540,"SoundDuration":124540,"Delta":56479471},{"NoteNumber":62,"Velocity":48,"Duration":124540,"SoundDuration":124540,"Delta":56594432},{"NoteNumber":60,"Velocity":51,"Duration":124902,"SoundDuration":124902,"Delta":56709392},{"NoteNumber":59,"Velocity":47,"Duration":119312,"SoundDuration":119312,"Delta":56824352},{"NoteNumber":48,"Velocity":43,"Duration":476686,"SoundDuration":476686,"Delta":56943665},{"NoteNumber":57,"Velocity":43,"Duration":476686,"SoundDuration":476686,"Delta":56943665},{"NoteNumber":64,"Velocity":51,"Duration":124540,"SoundDuration":124540,"Delta":56943665},{"NoteNumber":63,"Velocity":48,"Duration":124387,"SoundDuration":124387,"Delta":57058625},{"NoteNumber":64,"Velocity":51,"Duration":125584,"SoundDuration":125584,"Delta":57173585},{"NoteNumber":63,"Velocity":48,"Duration":133634,"SoundDuration":133634,"Delta":57286716},{"NoteNumber":65,"Velocity":51,"Duration":68452,"SoundDuration":68452,"Delta":57361440},{"NoteNumber":64,"Velocity":54,"Duration":124036,"SoundDuration":124036,"Delta":57420351},{"NoteNumber":60,"Velocity":48,"Duration":124036,"SoundDuration":124036,"Delta":57534846},{"NoteNumber":59,"Velocity":51,"Duration":125763,"SoundDuration":125763,"Delta":57649341},{"NoteNumber":57,"Velocity":47,"Duration":135220,"SoundDuration":135220,"Delta":57763836},{"NoteNumber":50,"Velocity":36,"Duration":487441,"SoundDuration":487441,"Delta":57899057},{"NoteNumber":53,"Velocity":38,"Duration":487441,"SoundDuration":487441,"Delta":57899057},{"NoteNumber":58,"Velocity":45,"Duration":128174,"SoundDuration":128174,"Delta":57899057},{"NoteNumber":57,"Velocity":43,"Duration":128013,"SoundDuration":128013,"Delta":58017372},{"NoteNumber":58,"Velocity":45,"Duration":128965,"SoundDuration":128965,"Delta":58135687},{"NoteNumber":57,"Velocity":41,"Duration":134432,"SoundDuration":134432,"Delta":58252065},{"NoteNumber":60,"Velocity":47,"Duration":68530,"SoundDuration":68530,"Delta":58327586},{"NoteNumber":59,"Velocity":51,"Duration":125048,"SoundDuration":125048,"Delta":58386498},{"NoteNumber":52,"Velocity":36,"Duration":230857,"SoundDuration":230857,"Delta":58386498},{"NoteNumber":56,"Velocity":43,"Duration":230857,"SoundDuration":230857,"Delta":58386498},{"NoteNumber":65,"Velocity":41,"Duration":125048,"SoundDuration":125048,"Delta":58501927},{"NoteNumber":64,"Velocity":44,"Duration":125853,"SoundDuration":125853,"Delta":58617356},{"NoteNumber":56,"Velocity":40,"Duration":125093,"SoundDuration":125093,"Delta":58732785},{"NoteNumber":57,"Velocity":44,"Duration":131394,"SoundDuration":131394,"Delta":58857879},{"NoteNumber":56,"Velocity":40,"Duration":137668,"SoundDuration":137668,"Delta":58978710},{"NoteNumber":50,"Velocity":41,"Duration":65427,"SoundDuration":65427,"Delta":59105474},{"NoteNumber":53,"Velocity":41,"Duration":65427,"SoundDuration":65427,"Delta":59105474},{"NoteNumber":57,"Velocity":45,"Duration":143309,"SoundDuration":143309,"Delta":59105474},{"NoteNumber":56,"Velocity":39,"Duration":133314,"SoundDuration":133314,"Delta":59236330},{"NoteNumber":48,"Velocity":41,"Duration":57950,"SoundDuration":57950,"Delta":59369645},{"NoteNumber":52,"Velocity":41,"Duration":57950,"SoundDuration":57950,"Delta":59369645},{"NoteNumber":57,"Velocity":43,"Duration":57950,"SoundDuration":57950,"Delta":59369645},{"NoteNumber":45,"Velocity":51,"Duration":128712,"SoundDuration":128712,"Delta":59833252},{"NoteNumber":44,"Velocity":48,"Duration":128470,"SoundDuration":128470,"Delta":59952064},{"NoteNumber":45,"Velocity":51,"Duration":126372,"SoundDuration":126372,"Delta":60070876},{"NoteNumber":44,"Velocity":48,"Duration":62824,"SoundDuration":62824,"Delta":60186777},{"NoteNumber":46,"Velocity":46,"Duration":68491,"SoundDuration":68491,"Delta":60249602},{"NoteNumber":61,"Velocity":43,"Duration":464193,"SoundDuration":464193,"Delta":60308513},{"NoteNumber":52,"Velocity":36,"Duration":464193,"SoundDuration":464193,"Delta":60308513},{"NoteNumber":55,"Velocity":36,"Duration":464193,"SoundDuration":464193,"Delta":60308513},{"NoteNumber":45,"Velocity":51,"Duration":124540,"SoundDuration":124540,"Delta":60308513},{"NoteNumber":43,"Velocity":48,"Duration":124540,"SoundDuration":124540,"Delta":60423474},{"NoteNumber":41,"Velocity":51,"Duration":124902,"SoundDuration":124902,"Delta":60538434},{"NoteNumber":40,"Velocity":47,"Duration":119312,"SoundDuration":119312,"Delta":60653394},{"NoteNumber":38,"Velocity":51,"Duration":124540,"SoundDuration":124540,"Delta":60772707},{"NoteNumber":37,"Velocity":48,"Duration":124387,"SoundDuration":124387,"Delta":60887667},{"NoteNumber":38,"Velocity":51,"Duration":125584,"SoundDuration":125584,"Delta":61002627},{"NoteNumber":37,"Velocity":48,"Duration":74723,"SoundDuration":74723,"Delta":61115758},{"NoteNumber":39,"Velocity":48,"Duration":68338,"SoundDuration":68338,"Delta":61190482},{"NoteNumber":65,"Velocity":43,"Duration":471068,"SoundDuration":471068,"Delta":61249393},{"NoteNumber":53,"Velocity":36,"Duration":471068,"SoundDuration":471068,"Delta":61249393},{"NoteNumber":57,"Velocity":36,"Duration":471068,"SoundDuration":471068,"Delta":61249393},{"NoteNumber":38,"Velocity":53,"Duration":122410,"SoundDuration":122410,"Delta":61249393},{"NoteNumber":40,"Velocity":48,"Duration":120638,"SoundDuration":120638,"Delta":61362524},{"NoteNumber":41,"Velocity":51,"Duration":122626,"SoundDuration":122626,"Delta":61473882},{"NoteNumber":38,"Velocity":47,"Duration":145121,"SoundDuration":145121,"Delta":61585241},{"NoteNumber":43,"Velocity":51,"Duration":128712,"SoundDuration":128712,"Delta":61720461},{"NoteNumber":42,"Velocity":48,"Duration":128470,"SoundDuration":128470,"Delta":61839273},{"NoteNumber":43,"Velocity":51,"Duration":126372,"SoundDuration":126372,"Delta":61958085},{"NoteNumber":42,"Velocity":48,"Duration":62824,"SoundDuration":62824,"Delta":62073987},{"NoteNumber":44,"Velocity":49,"Duration":68491,"SoundDuration":68491,"Delta":62136812},{"NoteNumber":59,"Velocity":43,"Duration":464193,"SoundDuration":464193,"Delta":62195723},{"NoteNumber":50,"Velocity":36,"Duration":464193,"SoundDuration":464193,"Delta":62195723},{"NoteNumber":53,"Velocity":36,"Duration":464193,"SoundDuration":464193,"Delta":62195723},{"NoteNumber":43,"Velocity":51,"Duration":124540,"SoundDuration":124540,"Delta":62195723},{"NoteNumber":41,"Velocity":48,"Duration":124540,"SoundDuration":124540,"Delta":62310683},{"NoteNumber":40,"Velocity":51,"Duration":124902,"SoundDuration":124902,"Delta":62425643},{"NoteNumber":38,"Velocity":47,"Duration":119312,"SoundDuration":119312,"Delta":62540604},{"NoteNumber":36,"Velocity":51,"Duration":124540,"SoundDuration":124540,"Delta":62659916},{"NoteNumber":35,"Velocity":48,"Duration":124387,"SoundDuration":124387,"Delta":62774877},{"NoteNumber":36,"Velocity":51,"Duration":125584,"SoundDuration":125584,"Delta":62889837},{"NoteNumber":35,"Velocity":48,"Duration":74723,"SoundDuration":74723,"Delta":63002968},{"NoteNumber":37,"Velocity":47,"Duration":68338,"SoundDuration":68338,"Delta":63077691},{"NoteNumber":64,"Velocity":43,"Duration":471068,"SoundDuration":471068,"Delta":63136603},{"NoteNumber":52,"Velocity":36,"Duration":471068,"SoundDuration":471068,"Delta":63136603},{"NoteNumber":55,"Velocity":36,"Duration":471068,"SoundDuration":471068,"Delta":63136603},{"NoteNumber":36,"Velocity":52,"Duration":122410,"SoundDuration":122410,"Delta":63136603},{"NoteNumber":38,"Velocity":48,"Duration":120638,"SoundDuration":120638,"Delta":63249733},{"NoteNumber":40,"Velocity":51,"Duration":122626,"SoundDuration":122626,"Delta":63361092},{"NoteNumber":36,"Velocity":47,"Duration":145121,"SoundDuration":145121,"Delta":63472450},{"NoteNumber":41,"Velocity":51,"Duration":128713,"SoundDuration":128713,"Delta":63607671},{"NoteNumber":40,"Velocity":48,"Duration":128470,"SoundDuration":128470,"Delta":63726483},{"NoteNumber":41,"Velocity":51,"Duration":126372,"SoundDuration":126372,"Delta":63845295},{"NoteNumber":40,"Velocity":48,"Duration":62824,"SoundDuration":62824,"Delta":63961197},{"NoteNumber":43,"Velocity":46,"Duration":68491,"SoundDuration":68491,"Delta":64024021},{"NoteNumber":59,"Velocity":43,"Duration":464193,"SoundDuration":464193,"Delta":64082933},{"NoteNumber":50,"Velocity":36,"Duration":464193,"SoundDuration":464193,"Delta":64082933},{"NoteNumber":56,"Velocity":36,"Duration":464193,"SoundDuration":464193,"Delta":64082933},{"NoteNumber":41,"Velocity":50,"Duration":124540,"SoundDuration":124540,"Delta":64082933},{"NoteNumber":38,"Velocity":48,"Duration":124540,"SoundDuration":124540,"Delta":64197893},{"NoteNumber":36,"Velocity":51,"Duration":124902,"SoundDuration":124902,"Delta":64312853},{"NoteNumber":35,"Velocity":47,"Duration":128892,"SoundDuration":128892,"Delta":64427813},{"NoteNumber":40,"Velocity":51,"Duration":124540,"SoundDuration":124540,"Delta":64547126},{"NoteNumber":39,"Velocity":48,"Duration":124387,"SoundDuration":124387,"Delta":64662086},{"NoteNumber":40,"Velocity":51,"Duration":125584,"SoundDuration":125584,"Delta":64777047},{"NoteNumber":39,"Velocity":48,"Duration":74723,"SoundDuration":74723,"Delta":64890177},{"NoteNumber":41,"Velocity":45,"Duration":68338,"SoundDuration":68338,"Delta":64964901},{"NoteNumber":60,"Velocity":43,"Duration":471068,"SoundDuration":471068,"Delta":65023812},{"NoteNumber":52,"Velocity":36,"Duration":471068,"SoundDuration":471068,"Delta":65023812},{"NoteNumber":57,"Velocity":36,"Duration":471068,"SoundDuration":471068,"Delta":65023812},{"NoteNumber":40,"Velocity":50,"Duration":122410,"SoundDuration":122410,"Delta":65023812},{"NoteNumber":36,"Velocity":48,"Duration":120638,"SoundDuration":120638,"Delta":65136943},{"NoteNumber":35,"Velocity":51,"Duration":122626,"SoundDuration":122626,"Delta":65248301},{"NoteNumber":33,"Velocity":47,"Duration":135220,"SoundDuration":135220,"Delta":65359660},{"NoteNumber":62,"Velocity":43,"Duration":263181,"SoundDuration":263181,"Delta":65494880},{"NoteNumber":53,"Velocity":36,"Duration":543581,"SoundDuration":543581,"Delta":65494880},{"NoteNumber":57,"Velocity":36,"Duration":543581,"SoundDuration":543581,"Delta":65494880},{"NoteNumber":35,"Velocity":51,"Duration":142556,"SoundDuration":142556,"Delta":65494880},{"NoteNumber":34,"Velocity":48,"Duration":143273,"SoundDuration":143273,"Delta":65626471},{"NoteNumber":63,"Velocity":43,"Duration":280400,"SoundDuration":280400,"Delta":65758061},{"NoteNumber":35,"Velocity":51,"Duration":151883,"SoundDuration":151883,"Delta":65758061},{"NoteNumber":34,"Velocity":48,"Duration":140200,"SoundDuration":140200,"Delta":65898261},{"NoteNumber":64,"Velocity":43,"Duration":652607,"SoundDuration":652607,"Delta":66038461},{"NoteNumber":52,"Velocity":36,"Duration":652607,"SoundDuration":652607,"Delta":66038461},{"NoteNumber":56,"Velocity":36,"Duration":652607,"SoundDuration":652607,"Delta":66038461},{"NoteNumber":36,"Velocity":51,"Duration":259638,"SoundDuration":259638,"Delta":66038461},{"NoteNumber":35,"Velocity":48,"Duration":532947,"SoundDuration":532947,"Delta":66262375},{"NoteNumber":41,"Velocity":51,"Duration":1262310,"SoundDuration":1262310,"Delta":66691069},{"NoteNumber":40,"Velocity":47,"Duration":135220,"SoundDuration":135220,"Delta":67942112},{"NoteNumber":33,"Velocity":43,"Duration":113584,"SoundDuration":113584,"Delta":68077332},{"NoteNumber":32,"Velocity":40,"Duration":113584,"SoundDuration":113584,"Delta":68190917},{"NoteNumber":33,"Velocity":43,"Duration":112233,"SoundDuration":112233,"Delta":68304502},{"NoteNumber":32,"Velocity":40,"Duration":61199,"SoundDuration":61199,"Delta":68416735},{"NoteNumber":34,"Velocity":36,"Duration":68454,"SoundDuration":68454,"Delta":68477935},{"NoteNumber":62,"Velocity":36,"Duration":229024,"SoundDuration":229024,"Delta":68536846},{"NoteNumber":53,"Velocity":30,"Duration":229024,"SoundDuration":229024,"Delta":68536846},{"NoteNumber":57,"Velocity":30,"Duration":229024,"SoundDuration":229024,"Delta":68536846},{"NoteNumber":33,"Velocity":43,"Duration":114512,"SoundDuration":114512,"Delta":68536846},{"NoteNumber":32,"Velocity":40,"Duration":114512,"SoundDuration":114512,"Delta":68651359},{"NoteNumber":33,"Velocity":43,"Duration":114512,"SoundDuration":114512,"Delta":68765871},{"NoteNumber":32,"Velocity":40,"Duration":122961,"SoundDuration":122961,"Delta":68880384},{"NoteNumber":52,"Velocity":30,"Duration":230787,"SoundDuration":230787,"Delta":69003345},{"NoteNumber":57,"Velocity":30,"Duration":230787,"SoundDuration":230787,"Delta":69003345},{"NoteNumber":60,"Velocity":36,"Duration":230787,"SoundDuration":230787,"Delta":69003345},{"NoteNumber":33,"Velocity":43,"Duration":115393,"SoundDuration":115393,"Delta":69003345},{"NoteNumber":32,"Velocity":39,"Duration":115393,"SoundDuration":115393,"Delta":69118738},{"NoteNumber":33,"Velocity":42,"Duration":114495,"SoundDuration":114495,"Delta":69234132},{"NoteNumber":32,"Velocity":38,"Duration":62824,"SoundDuration":62824,"Delta":69348627},{"NoteNumber":34,"Velocity":40,"Duration":68754,"SoundDuration":68754,"Delta":69411451},{"NoteNumber":50,"Velocity":26,"Duration":236238,"SoundDuration":236238,"Delta":69470363},{"NoteNumber":53,"Velocity":26,"Duration":236238,"SoundDuration":236238,"Delta":69470363},{"NoteNumber":57,"Velocity":32,"Duration":236238,"SoundDuration":236238,"Delta":69470363},{"NoteNumber":33,"Velocity":38,"Duration":118119,"SoundDuration":118119,"Delta":69470363},{"NoteNumber":32,"Velocity":35,"Duration":118119,"SoundDuration":118119,"Delta":69588482},{"NoteNumber":33,"Velocity":37,"Duration":118119,"SoundDuration":118119,"Delta":69706602},{"NoteNumber":32,"Velocity":33,"Duration":128215,"SoundDuration":128215,"Delta":69824721},{"NoteNumber":48,"Velocity":24,"Duration":254259,"SoundDuration":254259,"Delta":69952937},{"NoteNumber":52,"Velocity":24,"Duration":254259,"SoundDuration":254259,"Delta":69952937},{"NoteNumber":57,"Velocity":29,"Duration":254259,"SoundDuration":254259,"Delta":69952937},{"NoteNumber":33,"Velocity":35,"Duration":127129,"SoundDuration":127129,"Delta":69952937},{"NoteNumber":32,"Velocity":31,"Duration":127129,"SoundDuration":127129,"Delta":70080067},{"NoteNumber":33,"Velocity":32,"Duration":128215,"SoundDuration":128215,"Delta":70207196},{"NoteNumber":32,"Velocity":28,"Duration":61480,"SoundDuration":61480,"Delta":70335412},{"NoteNumber":34,"Velocity":29,"Duration":71898,"SoundDuration":71898,"Delta":70396893},{"NoteNumber":50,"Velocity":20,"Duration":250021,"SoundDuration":250021,"Delta":70458373},{"NoteNumber":53,"Velocity":25,"Duration":250021,"SoundDuration":250021,"Delta":70458373},{"NoteNumber":33,"Velocity":29,"Duration":125010,"SoundDuration":125010,"Delta":70458373},{"NoteNumber":32,"Velocity":27,"Duration":125010,"SoundDuration":125010,"Delta":70583384},{"NoteNumber":33,"Velocity":27,"Duration":156266,"SoundDuration":156266,"Delta":70708394},{"NoteNumber":32,"Velocity":24,"Duration":211297,"SoundDuration":211297,"Delta":70864661},{"NoteNumber":48,"Velocity":15,"Duration":375046,"SoundDuration":375046,"Delta":71075958},{"NoteNumber":52,"Velocity":15,"Duration":375046,"SoundDuration":375046,"Delta":71075958},{"NoteNumber":57,"Velocity":18,"Duration":375046,"SoundDuration":375046,"Delta":71075958},{"NoteNumber":33,"Velocity":23,"Duration":375046,"SoundDuration":375046,"Delta":71075958},{"NoteNumber":69,"Velocity":70,"Duration":122259,"SoundDuration":122259,"Delta":72576146},{"NoteNumber":57,"Velocity":61,"Duration":122259,"SoundDuration":122259,"Delta":72576146},{"NoteNumber":36,"Velocity":57,"Duration":538226,"SoundDuration":538226,"Delta":72576146},{"NoteNumber":48,"Velocity":69,"Duration":538226,"SoundDuration":538226,"Delta":72576146},{"NoteNumber":63,"Velocity":43,"Duration":61129,"SoundDuration":61129,"Delta":72698405},{"NoteNumber":66,"Velocity":52,"Duration":61129,"SoundDuration":61129,"Delta":72698405},{"NoteNumber":57,"Velocity":47,"Duration":152531,"SoundDuration":152531,"Delta":72961841},{"NoteNumber":69,"Velocity":54,"Duration":152531,"SoundDuration":152531,"Delta":72961841},{"NoteNumber":51,"Velocity":41,"Duration":152531,"SoundDuration":152531,"Delta":72961841},{"NoteNumber":54,"Velocity":41,"Duration":152531,"SoundDuration":152531,"Delta":72961841},{"NoteNumber":60,"Velocity":48,"Duration":152531,"SoundDuration":152531,"Delta":72961841},{"NoteNumber":69,"Velocity":66,"Duration":129165,"SoundDuration":129165,"Delta":73114373},{"NoteNumber":57,"Velocity":58,"Duration":129165,"SoundDuration":129165,"Delta":73114373},{"NoteNumber":51,"Velocity":45,"Duration":129165,"SoundDuration":129165,"Delta":73114373},{"NoteNumber":54,"Velocity":45,"Duration":129165,"SoundDuration":129165,"Delta":73114373},{"NoteNumber":60,"Velocity":54,"Duration":129165,"SoundDuration":129165,"Delta":73114373},{"NoteNumber":72,"Velocity":62,"Duration":129165,"SoundDuration":129165,"Delta":73243538},{"NoteNumber":60,"Velocity":54,"Duration":129165,"SoundDuration":129165,"Delta":73243538},{"NoteNumber":71,"Velocity":66,"Duration":130091,"SoundDuration":130091,"Delta":73372704},{"NoteNumber":59,"Velocity":58,"Duration":130091,"SoundDuration":130091,"Delta":73372704},{"NoteNumber":33,"Velocity":46,"Duration":264403,"SoundDuration":264403,"Delta":73372704},{"NoteNumber":45,"Velocity":55,"Duration":264403,"SoundDuration":264403,"Delta":73372704},{"NoteNumber":69,"Velocity":62,"Duration":134312,"SoundDuration":134312,"Delta":73502795},{"NoteNumber":57,"Velocity":54,"Duration":134312,"SoundDuration":134312,"Delta":73502795},{"NoteNumber":76,"Velocity":70,"Duration":129712,"SoundDuration":129712,"Delta":73637107},{"NoteNumber":64,"Velocity":61,"Duration":129712,"SoundDuration":129712,"Delta":73637107},{"NoteNumber":32,"Velocity":55,"Duration":259426,"SoundDuration":259426,"Delta":73637107},{"NoteNumber":44,"Velocity":66,"Duration":259426,"SoundDuration":259426,"Delta":73637107},{"NoteNumber":68,"Velocity":43,"Duration":64856,"SoundDuration":64856,"Delta":73766820},{"NoteNumber":71,"Velocity":52,"Duration":64856,"SoundDuration":64856,"Delta":73766820},{"NoteNumber":35,"Velocity":53,"Duration":285941,"SoundDuration":285941,"Delta":73896533},{"NoteNumber":47,"Velocity":64,"Duration":285941,"SoundDuration":285941,"Delta":73896533},{"NoteNumber":64,"Velocity":47,"Duration":147347,"SoundDuration":147347,"Delta":74035127},{"NoteNumber":76,"Velocity":54,"Duration":147347,"SoundDuration":147347,"Delta":74035127},{"NoteNumber":76,"Velocity":66,"Duration":131394,"SoundDuration":131394,"Delta":74182475},{"NoteNumber":64,"Velocity":58,"Duration":131394,"SoundDuration":131394,"Delta":74182475},{"NoteNumber":40,"Velocity":60,"Duration":532152,"SoundDuration":532152,"Delta":74182475},{"NoteNumber":44,"Velocity":60,"Duration":532152,"SoundDuration":532152,"Delta":74182475},{"NoteNumber":52,"Velocity":72,"Duration":532152,"SoundDuration":532152,"Delta":74182475},{"NoteNumber":79,"Velocity":62,"Duration":131394,"SoundDuration":131394,"Delta":74313869},{"NoteNumber":67,"Velocity":54,"Duration":131394,"SoundDuration":131394,"Delta":74313869},{"NoteNumber":77,"Velocity":66,"Duration":131394,"SoundDuration":131394,"Delta":74445264},{"NoteNumber":65,"Velocity":58,"Duration":131394,"SoundDuration":131394,"Delta":74445264},{"NoteNumber":76,"Velocity":62,"Duration":137968,"SoundDuration":137968,"Delta":74576658},{"NoteNumber":64,"Velocity":54,"Duration":137968,"SoundDuration":137968,"Delta":74576658},{"NoteNumber":69,"Velocity":72,"Duration":129165,"SoundDuration":129165,"Delta":74714627},{"NoteNumber":57,"Velocity":63,"Duration":129165,"SoundDuration":129165,"Delta":74714627},{"NoteNumber":36,"Velocity":64,"Duration":537767,"SoundDuration":537767,"Delta":74714627},{"NoteNumber":48,"Velocity":77,"Duration":537767,"SoundDuration":537767,"Delta":74714627},{"NoteNumber":63,"Velocity":46,"Duration":64582,"SoundDuration":64582,"Delta":74843793},{"NoteNumber":66,"Velocity":54,"Duration":64582,"SoundDuration":64582,"Delta":74843793},{"NoteNumber":57,"Velocity":50,"Duration":150270,"SoundDuration":150270,"Delta":75102124},{"NoteNumber":69,"Velocity":58,"Duration":150270,"SoundDuration":150270,"Delta":75102124},{"NoteNumber":51,"Velocity":43,"Duration":150270,"SoundDuration":150270,"Delta":75102124},{"NoteNumber":54,"Velocity":43,"Duration":150270,"SoundDuration":150270,"Delta":75102124},{"NoteNumber":60,"Velocity":51,"Duration":150270,"SoundDuration":150270,"Delta":75102124},{"NoteNumber":69,"Velocity":68,"Duration":129165,"SoundDuration":129165,"Delta":75252394},{"NoteNumber":57,"Velocity":60,"Duration":129165,"SoundDuration":129165,"Delta":75252394},{"NoteNumber":51,"Velocity":47,"Duration":129165,"SoundDuration":129165,"Delta":75252394},{"NoteNumber":54,"Velocity":47,"Duration":129165,"SoundDuration":129165,"Delta":75252394},{"NoteNumber":60,"Velocity":56,"Duration":129165,"SoundDuration":129165,"Delta":75252394},{"NoteNumber":72,"Velocity":64,"Duration":129165,"SoundDuration":129165,"Delta":75381560},{"NoteNumber":60,"Velocity":56,"Duration":129165,"SoundDuration":129165,"Delta":75381560},{"NoteNumber":71,"Velocity":68,"Duration":130091,"SoundDuration":130091,"Delta":75510725},{"NoteNumber":59,"Velocity":60,"Duration":130091,"SoundDuration":130091,"Delta":75510725},{"NoteNumber":33,"Velocity":49,"Duration":264403,"SoundDuration":264403,"Delta":75510725},{"NoteNumber":45,"Velocity":57,"Duration":264403,"SoundDuration":264403,"Delta":75510725},{"NoteNumber":69,"Velocity":64,"Duration":134312,"SoundDuration":134312,"Delta":75640816},{"NoteNumber":57,"Velocity":56,"Duration":134312,"SoundDuration":134312,"Delta":75640816},{"NoteNumber":68,"Velocity":72,"Duration":133132,"SoundDuration":133132,"Delta":75775129},{"NoteNumber":56,"Velocity":63,"Duration":133132,"SoundDuration":133132,"Delta":75775129},{"NoteNumber":35,"Velocity":53,"Duration":266264,"SoundDuration":266264,"Delta":75775129},{"NoteNumber":47,"Velocity":63,"Duration":266264,"SoundDuration":266264,"Delta":75775129},{"NoteNumber":59,"Velocity":68,"Duration":66566,"SoundDuration":66566,"Delta":75908261},{"NoteNumber":39,"Velocity":59,"Duration":285008,"SoundDuration":285008,"Delta":76041393},{"NoteNumber":51,"Velocity":71,"Duration":285008,"SoundDuration":285008,"Delta":76041393},{"NoteNumber":63,"Velocity":64,"Duration":142504,"SoundDuration":142504,"Delta":76183897},{"NoteNumber":56,"Velocity":63,"Duration":285008,"SoundDuration":285008,"Delta":76326402},{"NoteNumber":65,"Velocity":73,"Duration":285008,"SoundDuration":285008,"Delta":76326402},{"NoteNumber":59,"Velocity":63,"Duration":285008,"SoundDuration":285008,"Delta":76326402},{"NoteNumber":41,"Velocity":65,"Duration":285008,"SoundDuration":285008,"Delta":76326402},{"NoteNumber":53,"Velocity":77,"Duration":285008,"SoundDuration":285008,"Delta":76326402},{"NoteNumber":64,"Velocity":70,"Duration":142504,"SoundDuration":142504,"Delta":76611410},{"NoteNumber":40,"Velocity":63,"Duration":142504,"SoundDuration":142504,"Delta":76611410},{"NoteNumber":52,"Velocity":73,"Duration":142504,"SoundDuration":142504,"Delta":76611410},{"NoteNumber":81,"Velocity":77,"Duration":129165,"SoundDuration":129165,"Delta":76896419},{"NoteNumber":69,"Velocity":66,"Duration":129165,"SoundDuration":129165,"Delta":76896419},{"NoteNumber":36,"Velocity":62,"Duration":552039,"SoundDuration":552039,"Delta":76896419},{"NoteNumber":48,"Velocity":74,"Duration":552039,"SoundDuration":552039,"Delta":76896419},{"NoteNumber":75,"Velocity":48,"Duration":64582,"SoundDuration":64582,"Delta":77025584},{"NoteNumber":78,"Velocity":57,"Duration":64582,"SoundDuration":64582,"Delta":77025584},{"NoteNumber":69,"Velocity":52,"Duration":152531,"SoundDuration":152531,"Delta":77295926},{"NoteNumber":81,"Velocity":61,"Duration":152531,"SoundDuration":152531,"Delta":77295926},{"NoteNumber":51,"Velocity":41,"Duration":152531,"SoundDuration":152531,"Delta":77295926},{"NoteNumber":54,"Velocity":41,"Duration":152531,"SoundDuration":152531,"Delta":77295926},{"NoteNumber":60,"Velocity":48,"Duration":152531,"SoundDuration":152531,"Delta":77295926},{"NoteNumber":81,"Velocity":72,"Duration":129165,"SoundDuration":129165,"Delta":77448458},{"NoteNumber":69,"Velocity":63,"Duration":129165,"SoundDuration":129165,"Delta":77448458},{"NoteNumber":51,"Velocity":45,"Duration":129165,"SoundDuration":129165,"Delta":77448458},{"NoteNumber":54,"Velocity":45,"Duration":129165,"SoundDuration":129165,"Delta":77448458},{"NoteNumber":60,"Velocity":54,"Duration":129165,"SoundDuration":129165,"Delta":77448458},{"NoteNumber":84,"Velocity":67,"Duration":129165,"SoundDuration":129165,"Delta":77577624},{"NoteNumber":72,"Velocity":60,"Duration":129165,"SoundDuration":129165,"Delta":77577624},{"NoteNumber":83,"Velocity":72,"Duration":130091,"SoundDuration":130091,"Delta":77706789},{"NoteNumber":71,"Velocity":63,"Duration":130091,"SoundDuration":130091,"Delta":77706789},{"NoteNumber":33,"Velocity":46,"Duration":264403,"SoundDuration":264403,"Delta":77706789},{"NoteNumber":45,"Velocity":55,"Duration":264403,"SoundDuration":264403,"Delta":77706789},{"NoteNumber":81,"Velocity":67,"Duration":134312,"SoundDuration":134312,"Delta":77836880},{"NoteNumber":69,"Velocity":60,"Duration":134312,"SoundDuration":134312,"Delta":77836880},{"NoteNumber":88,"Velocity":77,"Duration":129712,"SoundDuration":129712,"Delta":77971192},{"NoteNumber":76,"Velocity":66,"Duration":129712,"SoundDuration":129712,"Delta":77971192},{"NoteNumber":32,"Velocity":55,"Duration":259426,"SoundDuration":259426,"Delta":77971192},{"NoteNumber":44,"Velocity":66,"Duration":259426,"SoundDuration":259426,"Delta":77971192},{"NoteNumber":80,"Velocity":48,"Duration":64856,"SoundDuration":64856,"Delta":78100905},{"NoteNumber":83,"Velocity":57,"Duration":64856,"SoundDuration":64856,"Delta":78100905},{"NoteNumber":35,"Velocity":53,"Duration":285941,"SoundDuration":285941,"Delta":78230618},{"NoteNumber":47,"Velocity":64,"Duration":285941,"SoundDuration":285941,"Delta":78230618},{"NoteNumber":76,"Velocity":52,"Duration":147347,"SoundDuration":147347,"Delta":78369212},{"NoteNumber":88,"Velocity":61,"Duration":147347,"SoundDuration":147347,"Delta":78369212},{"NoteNumber":88,"Velocity":72,"Duration":131394,"SoundDuration":131394,"Delta":78516560},{"NoteNumber":76,"Velocity":63,"Duration":131394,"SoundDuration":131394,"Delta":78516560},{"NoteNumber":40,"Velocity":60,"Duration":532152,"SoundDuration":532152,"Delta":78516560},{"NoteNumber":44,"Velocity":60,"Duration":532152,"SoundDuration":532152,"Delta":78516560},{"NoteNumber":52,"Velocity":72,"Duration":532152,"SoundDuration":532152,"Delta":78516560},{"NoteNumber":91,"Velocity":67,"Duration":131394,"SoundDuration":131394,"Delta":78647954},{"NoteNumber":79,"Velocity":60,"Duration":131394,"SoundDuration":131394,"Delta":78647954},{"NoteNumber":89,"Velocity":72,"Duration":131394,"SoundDuration":131394,"Delta":78779349},{"NoteNumber":77,"Velocity":63,"Duration":131394,"SoundDuration":131394,"Delta":78779349},{"NoteNumber":88,"Velocity":67,"Duration":137968,"SoundDuration":137968,"Delta":78910743},{"NoteNumber":76,"Velocity":60,"Duration":137968,"SoundDuration":137968,"Delta":78910743},{"NoteNumber":81,"Velocity":80,"Duration":129165,"SoundDuration":129165,"Delta":79048712},{"NoteNumber":69,"Velocity":69,"Duration":129165,"SoundDuration":129165,"Delta":79048712},{"NoteNumber":36,"Velocity":64,"Duration":537767,"SoundDuration":537767,"Delta":79048712},{"NoteNumber":48,"Velocity":77,"Duration":537767,"SoundDuration":537767,"Delta":79048712},{"NoteNumber":75,"Velocity":50,"Duration":64582,"SoundDuration":64582,"Delta":79177878},{"NoteNumber":78,"Velocity":60,"Duration":64582,"SoundDuration":64582,"Delta":79177878},{"NoteNumber":69,"Velocity":54,"Duration":150270,"SoundDuration":150270,"Delta":79436209},{"NoteNumber":81,"Velocity":63,"Duration":150270,"SoundDuration":150270,"Delta":79436209},{"NoteNumber":51,"Velocity":43,"Duration":150270,"SoundDuration":150270,"Delta":79436209},{"NoteNumber":54,"Velocity":43,"Duration":150270,"SoundDuration":150270,"Delta":79436209},{"NoteNumber":60,"Velocity":51,"Duration":150270,"SoundDuration":150270,"Delta":79436209},{"NoteNumber":81,"Velocity":72,"Duration":129165,"SoundDuration":129165,"Delta":79586479},{"NoteNumber":69,"Velocity":63,"Duration":129165,"SoundDuration":129165,"Delta":79586479},{"NoteNumber":51,"Velocity":47,"Duration":129165,"SoundDuration":129165,"Delta":79586479},{"NoteNumber":54,"Velocity":47,"Duration":129165,"SoundDuration":129165,"Delta":79586479},{"NoteNumber":60,"Velocity":56,"Duration":129165,"SoundDuration":129165,"Delta":79586479},{"NoteNumber":84,"Velocity":67,"Duration":129165,"SoundDuration":129165,"Delta":79715645},{"NoteNumber":72,"Velocity":60,"Duration":129165,"SoundDuration":129165,"Delta":79715645},{"NoteNumber":83,"Velocity":72,"Duration":130091,"SoundDuration":130091,"Delta":79844810},{"NoteNumber":71,"Velocity":63,"Duration":130091,"SoundDuration":130091,"Delta":79844810},{"NoteNumber":33,"Velocity":49,"Duration":264403,"SoundDuration":264403,"Delta":79844810},{"NoteNumber":45,"Velocity":57,"Duration":264403,"SoundDuration":264403,"Delta":79844810},{"NoteNumber":81,"Velocity":67,"Duration":134312,"SoundDuration":134312,"Delta":79974902},{"NoteNumber":69,"Velocity":60,"Duration":134312,"SoundDuration":134312,"Delta":79974902},{"NoteNumber":80,"Velocity":77,"Duration":133132,"SoundDuration":133132,"Delta":80109214},{"NoteNumber":68,"Velocity":66,"Duration":133132,"SoundDuration":133132,"Delta":80109214},{"NoteNumber":35,"Velocity":53,"Duration":266264,"SoundDuration":266264,"Delta":80109214},{"NoteNumber":47,"Velocity":63,"Duration":266264,"SoundDuration":266264,"Delta":80109214},{"NoteNumber":83,"Velocity":72,"Duration":66566,"SoundDuration":66566,"Delta":80242346},{"NoteNumber":71,"Velocity":67,"Duration":66566,"SoundDuration":66566,"Delta":80242346},{"NoteNumber":39,"Velocity":59,"Duration":285008,"SoundDuration":285008,"Delta":80375478},{"NoteNumber":51,"Velocity":71,"Duration":285008,"SoundDuration":285008,"Delta":80375478},{"NoteNumber":87,"Velocity":67,"Duration":142504,"SoundDuration":142504,"Delta":80517983},{"NoteNumber":75,"Velocity":57,"Duration":142504,"SoundDuration":142504,"Delta":80517983},{"NoteNumber":89,"Velocity":78,"Duration":285008,"SoundDuration":285008,"Delta":80660487},{"NoteNumber":77,"Velocity":56,"Duration":285008,"SoundDuration":285008,"Delta":80660487},{"NoteNumber":41,"Velocity":65,"Duration":285008,"SoundDuration":285008,"Delta":80660487},{"NoteNumber":53,"Velocity":77,"Duration":285008,"SoundDuration":285008,"Delta":80660487},{"NoteNumber":88,"Velocity":73,"Duration":142504,"SoundDuration":142504,"Delta":80945495},{"NoteNumber":76,"Velocity":62,"Duration":142504,"SoundDuration":142504,"Delta":80945495},{"NoteNumber":40,"Velocity":63,"Duration":142504,"SoundDuration":142504,"Delta":80945495},{"NoteNumber":52,"Velocity":73,"Duration":142504,"SoundDuration":142504,"Delta":80945495},{"NoteNumber":81,"Velocity":69,"Duration":129165,"SoundDuration":129165,"Delta":81230504},{"NoteNumber":93,"Velocity":81,"Duration":129165,"SoundDuration":129165,"Delta":81230504},{"NoteNumber":79,"Velocity":69,"Duration":129165,"SoundDuration":129165,"Delta":81230504},{"NoteNumber":45,"Velocity":54,"Duration":552039,"SoundDuration":552039,"Delta":81230504},{"NoteNumber":52,"Velocity":54,"Duration":552039,"SoundDuration":552039,"Delta":81230504},{"NoteNumber":61,"Velocity":65,"Duration":552039,"SoundDuration":552039,"Delta":81230504},{"NoteNumber":85,"Velocity":50,"Duration":64582,"SoundDuration":64582,"Delta":81359669},{"NoteNumber":88,"Velocity":60,"Duration":64582,"SoundDuration":64582,"Delta":81359669},{"NoteNumber":81,"Velocity":54,"Duration":152531,"SoundDuration":152531,"Delta":81630011},{"NoteNumber":93,"Velocity":63,"Duration":152531,"SoundDuration":152531,"Delta":81630011},{"NoteNumber":61,"Velocity":41,"Duration":152531,"SoundDuration":152531,"Delta":81630011},{"NoteNumber":64,"Velocity":41,"Duration":152531,"SoundDuration":152531,"Delta":81630011},{"NoteNumber":69,"Velocity":48,"Duration":152531,"SoundDuration":152531,"Delta":81630011},{"NoteNumber":93,"Velocity":76,"Duration":129165,"SoundDuration":129165,"Delta":81782543},{"NoteNumber":81,"Velocity":66,"Duration":129165,"SoundDuration":129165,"Delta":81782543},{"NoteNumber":61,"Velocity":45,"Duration":129165,"SoundDuration":129165,"Delta":81782543},{"NoteNumber":64,"Velocity":45,"Duration":129165,"SoundDuration":129165,"Delta":81782543},{"NoteNumber":69,"Velocity":54,"Duration":129165,"SoundDuration":129165,"Delta":81782543},{"NoteNumber":94,"Velocity":70,"Duration":129165,"SoundDuration":129165,"Delta":81911709},{"NoteNumber":82,"Velocity":62,"Duration":129165,"SoundDuration":129165,"Delta":81911709},{"NoteNumber":93,"Velocity":76,"Duration":130091,"SoundDuration":130091,"Delta":82040874},{"NoteNumber":81,"Velocity":66,"Duration":130091,"SoundDuration":130091,"Delta":82040874},{"NoteNumber":37,"Velocity":46,"Duration":264403,"SoundDuration":264403,"Delta":82040874},{"NoteNumber":52,"Velocity":55,"Duration":264403,"SoundDuration":264403,"Delta":82040874},{"NoteNumber":91,"Velocity":70,"Duration":134312,"SoundDuration":134312,"Delta":82170965},{"NoteNumber":79,"Velocity":62,"Duration":134312,"SoundDuration":134312,"Delta":82170965},{"NoteNumber":89,"Velocity":81,"Duration":129712,"SoundDuration":129712,"Delta":82305278},{"NoteNumber":77,"Velocity":69,"Duration":129712,"SoundDuration":129712,"Delta":82305278},{"NoteNumber":38,"Velocity":55,"Duration":259426,"SoundDuration":259426,"Delta":82305278},{"NoteNumber":53,"Velocity":66,"Duration":259426,"SoundDuration":259426,"Delta":82305278},{"NoteNumber":81,"Velocity":50,"Duration":64856,"SoundDuration":64856,"Delta":82434991},{"NoteNumber":86,"Velocity":60,"Duration":64856,"SoundDuration":64856,"Delta":82434991},{"NoteNumber":40,"Velocity":53,"Duration":285941,"SoundDuration":285941,"Delta":82564704},{"NoteNumber":55,"Velocity":64,"Duration":285941,"SoundDuration":285941,"Delta":82564704},{"NoteNumber":73,"Velocity":54,"Duration":147347,"SoundDuration":147347,"Delta":82703297},{"NoteNumber":85,"Velocity":63,"Duration":147347,"SoundDuration":147347,"Delta":82703297},{"NoteNumber":86,"Velocity":76,"Duration":131394,"SoundDuration":131394,"Delta":82850645},{"NoteNumber":74,"Velocity":66,"Duration":131394,"SoundDuration":131394,"Delta":82850645},{"NoteNumber":41,"Velocity":60,"Duration":262788,"SoundDuration":262788,"Delta":82850645},{"NoteNumber":56,"Velocity":72,"Duration":262788,"SoundDuration":262788,"Delta":82850645},{"NoteNumber":89,"Velocity":70,"Duration":131394,"SoundDuration":131394,"Delta":82982040},{"NoteNumber":77,"Velocity":62,"Duration":131394,"SoundDuration":131394,"Delta":82982040},{"NoteNumber":87,"Velocity":76,"Duration":131394,"SoundDuration":131394,"Delta":83113434},{"NoteNumber":75,"Velocity":66,"Duration":131394,"SoundDuration":131394,"Delta":83113434},{"NoteNumber":42,"Velocity":64,"Duration":269363,"SoundDuration":269363,"Delta":83113434},{"NoteNumber":57,"Velocity":76,"Duration":269363,"SoundDuration":269363,"Delta":83113434},{"NoteNumber":86,"Velocity":70,"Duration":137968,"SoundDuration":137968,"Delta":83244829},{"NoteNumber":74,"Velocity":62,"Duration":137968,"SoundDuration":137968,"Delta":83244829},{"NoteNumber":79,"Velocity":69,"Duration":129165,"SoundDuration":129165,"Delta":83382798},{"NoteNumber":91,"Velocity":81,"Duration":129165,"SoundDuration":129165,"Delta":83382798},{"NoteNumber":77,"Velocity":69,"Duration":129165,"SoundDuration":129165,"Delta":83382798},{"NoteNumber":43,"Velocity":54,"Duration":552039,"SoundDuration":552039,"Delta":83382798},{"NoteNumber":50,"Velocity":54,"Duration":552039,"SoundDuration":552039,"Delta":83382798},{"NoteNumber":59,"Velocity":65,"Duration":552039,"SoundDuration":552039,"Delta":83382798},{"NoteNumber":83,"Velocity":50,"Duration":64582,"SoundDuration":64582,"Delta":83511963},{"NoteNumber":86,"Velocity":60,"Duration":64582,"SoundDuration":64582,"Delta":83511963},{"NoteNumber":79,"Velocity":54,"Duration":152531,"SoundDuration":152531,"Delta":83782305},{"NoteNumber":91,"Velocity":63,"Duration":152531,"SoundDuration":152531,"Delta":83782305},{"NoteNumber":59,"Velocity":41,"Duration":152531,"SoundDuration":152531,"Delta":83782305},{"NoteNumber":62,"Velocity":41,"Duration":152531,"SoundDuration":152531,"Delta":83782305},{"NoteNumber":67,"Velocity":48,"Duration":152531,"SoundDuration":152531,"Delta":83782305},{"NoteNumber":91,"Velocity":76,"Duration":129165,"SoundDuration":129165,"Delta":83934837},{"NoteNumber":79,"Velocity":66,"Duration":129165,"SoundDuration":129165,"Delta":83934837},{"NoteNumber":59,"Velocity":45,"Duration":129165,"SoundDuration":129165,"Delta":83934837},{"NoteNumber":62,"Velocity":45,"Duration":129165,"SoundDuration":129165,"Delta":83934837},{"NoteNumber":67,"Velocity":54,"Duration":129165,"SoundDuration":129165,"Delta":83934837},{"NoteNumber":92,"Velocity":70,"Duration":129165,"SoundDuration":129165,"Delta":84064003},{"NoteNumber":80,"Velocity":62,"Duration":129165,"SoundDuration":129165,"Delta":84064003},{"NoteNumber":91,"Velocity":76,"Duration":130091,"SoundDuration":130091,"Delta":84193168},{"NoteNumber":79,"Velocity":66,"Duration":130091,"SoundDuration":130091,"Delta":84193168},{"NoteNumber":35,"Velocity":46,"Duration":264403,"SoundDuration":264403,"Delta":84193168},{"NoteNumber":50,"Velocity":55,"Duration":264403,"SoundDuration":264403,"Delta":84193168},{"NoteNumber":89,"Velocity":70,"Duration":134312,"SoundDuration":134312,"Delta":84323259},{"NoteNumber":77,"Velocity":62,"Duration":134312,"SoundDuration":134312,"Delta":84323259},{"NoteNumber":88,"Velocity":81,"Duration":129712,"SoundDuration":129712,"Delta":84457571},{"NoteNumber":76,"Velocity":69,"Duration":129712,"SoundDuration":129712,"Delta":84457571},{"NoteNumber":36,"Velocity":55,"Duration":259426,"SoundDuration":259426,"Delta":84457571},{"NoteNumber":52,"Velocity":66,"Duration":259426,"SoundDuration":259426,"Delta":84457571},{"NoteNumber":79,"Velocity":50,"Duration":64856,"SoundDuration":64856,"Delta":84587284},{"NoteNumber":84,"Velocity":60,"Duration":64856,"SoundDuration":64856,"Delta":84587284},{"NoteNumber":38,"Velocity":53,"Duration":285941,"SoundDuration":285941,"Delta":84716997},{"NoteNumber":53,"Velocity":64,"Duration":285941,"SoundDuration":285941,"Delta":84716997},{"NoteNumber":71,"Velocity":54,"Duration":147347,"SoundDuration":147347,"Delta":84855591},{"NoteNumber":83,"Velocity":63,"Duration":147347,"SoundDuration":147347,"Delta":84855591},{"NoteNumber":84,"Velocity":76,"Duration":131394,"SoundDuration":131394,"Delta":85002939},{"NoteNumber":72,"Velocity":66,"Duration":131394,"SoundDuration":131394,"Delta":85002939},{"NoteNumber":39,"Velocity":63,"Duration":262788,"SoundDuration":262788,"Delta":85002939},{"NoteNumber":54,"Velocity":75,"Duration":262788,"SoundDuration":262788,"Delta":85002939},{"NoteNumber":87,"Velocity":70,"Duration":131394,"SoundDuration":131394,"Delta":85134333},{"NoteNumber":75,"Velocity":62,"Duration":131394,"SoundDuration":131394,"Delta":85134333},{"NoteNumber":85,"Velocity":76,"Duration":131394,"SoundDuration":131394,"Delta":85265728},{"NoteNumber":73,"Velocity":66,"Duration":131394,"SoundDuration":131394,"Delta":85265728},{"NoteNumber":40,"Velocity":70,"Duration":269363,"SoundDuration":269363,"Delta":85265728},{"NoteNumber":55,"Velocity":83,"Duration":269363,"SoundDuration":269363,"Delta":85265728},{"NoteNumber":84,"Velocity":70,"Duration":137968,"SoundDuration":137968,"Delta":85397122},{"NoteNumber":72,"Velocity":62,"Duration":137968,"SoundDuration":137968,"Delta":85397122},{"NoteNumber":89,"Velocity":81,"Duration":129165,"SoundDuration":129165,"Delta":85535091},{"NoteNumber":77,"Velocity":69,"Duration":129165,"SoundDuration":129165,"Delta":85535091},{"NoteNumber":50,"Velocity":62,"Duration":129165,"SoundDuration":129165,"Delta":85535091},{"NoteNumber":41,"Velocity":62,"Duration":129165,"SoundDuration":129165,"Delta":85535091},{"NoteNumber":47,"Velocity":62,"Duration":129165,"SoundDuration":129165,"Delta":85535091},{"NoteNumber":56,"Velocity":74,"Duration":129165,"SoundDuration":129165,"Delta":85535091},{"NoteNumber":80,"Velocity":50,"Duration":64582,"SoundDuration":64582,"Delta":85664257},{"NoteNumber":83,"Velocity":60,"Duration":64582,"SoundDuration":64582,"Delta":85664257},{"NoteNumber":68,"Velocity":47,"Duration":152531,"SoundDuration":152531,"Delta":85934599},{"NoteNumber":71,"Velocity":54,"Duration":152531,"SoundDuration":152531,"Delta":85934599},{"NoteNumber":62,"Velocity":41,"Duration":152531,"SoundDuration":152531,"Delta":85934599},{"NoteNumber":65,"Velocity":48,"Duration":152531,"SoundDuration":152531,"Delta":85934599},{"NoteNumber":71,"Velocity":66,"Duration":131590,"SoundDuration":131590,"Delta":86087131},{"NoteNumber":68,"Velocity":58,"Duration":558716,"SoundDuration":558716,"Delta":86087131},{"NoteNumber":62,"Velocity":45,"Duration":131590,"SoundDuration":131590,"Delta":86087131},{"NoteNumber":65,"Velocity":54,"Duration":558716,"SoundDuration":558716,"Delta":86087131},{"NoteNumber":74,"Velocity":62,"Duration":138901,"SoundDuration":138901,"Delta":86218721},{"NoteNumber":59,"Velocity":45,"Duration":138901,"SoundDuration":138901,"Delta":86218721},{"NoteNumber":72,"Velocity":66,"Duration":135147,"SoundDuration":135147,"Delta":86357623},{"NoteNumber":60,"Velocity":45,"Duration":135147,"SoundDuration":135147,"Delta":86357623},{"NoteNumber":71,"Velocity":62,"Duration":153076,"SoundDuration":153076,"Delta":86492770},{"NoteNumber":62,"Velocity":45,"Duration":153076,"SoundDuration":153076,"Delta":86492770},{"NoteNumber":88,"Velocity":81,"Duration":129165,"SoundDuration":129165,"Delta":86645847},{"NoteNumber":76,"Velocity":69,"Duration":129165,"SoundDuration":129165,"Delta":86645847},{"NoteNumber":40,"Velocity":50,"Duration":129165,"SoundDuration":129165,"Delta":86645847},{"NoteNumber":48,"Velocity":50,"Duration":129165,"SoundDuration":129165,"Delta":86645847},{"NoteNumber":57,"Velocity":60,"Duration":129165,"SoundDuration":129165,"Delta":86645847},{"NoteNumber":81,"Velocity":50,"Duration":64582,"SoundDuration":64582,"Delta":86775013},{"NoteNumber":84,"Velocity":60,"Duration":64582,"SoundDuration":64582,"Delta":86775013},{"NoteNumber":64,"Velocity":49,"Duration":161307,"SoundDuration":161307,"Delta":87045355},{"NoteNumber":69,"Velocity":54,"Duration":161307,"SoundDuration":161307,"Delta":87045355},{"NoteNumber":60,"Velocity":45,"Duration":161307,"SoundDuration":161307,"Delta":87045355},{"NoteNumber":69,"Velocity":61,"Duration":150014,"SoundDuration":150014,"Delta":87206662},{"NoteNumber":64,"Velocity":54,"Duration":573770,"SoundDuration":573770,"Delta":87206662},{"NoteNumber":60,"Velocity":49,"Duration":150014,"SoundDuration":150014,"Delta":87206662},{"NoteNumber":72,"Velocity":56,"Duration":137627,"SoundDuration":137627,"Delta":87356677},{"NoteNumber":57,"Velocity":42,"Duration":137627,"SoundDuration":137627,"Delta":87356677},{"NoteNumber":71,"Velocity":61,"Duration":140199,"SoundDuration":140199,"Delta":87494305},{"NoteNumber":59,"Velocity":42,"Duration":140199,"SoundDuration":140199,"Delta":87494305},{"NoteNumber":69,"Velocity":57,"Duration":145928,"SoundDuration":145928,"Delta":87634505},{"NoteNumber":60,"Velocity":42,"Duration":145928,"SoundDuration":145928,"Delta":87634505},{"NoteNumber":62,"Velocity":52,"Duration":161307,"SoundDuration":161307,"Delta":87780433},{"NoteNumber":74,"Velocity":62,"Duration":161307,"SoundDuration":161307,"Delta":87780433},{"NoteNumber":47,"Velocity":39,"Duration":607687,"SoundDuration":607687,"Delta":87780433},{"NoteNumber":53,"Velocity":39,"Duration":607687,"SoundDuration":607687,"Delta":87780433},{"NoteNumber":57,"Velocity":46,"Duration":607687,"SoundDuration":607687,"Delta":87780433},{"NoteNumber":65,"Velocity":51,"Duration":143540,"SoundDuration":143540,"Delta":87941741},{"NoteNumber":77,"Velocity":60,"Duration":143540,"SoundDuration":143540,"Delta":87941741},{"NoteNumber":64,"Velocity":51,"Duration":144927,"SoundDuration":144927,"Delta":88085282},{"NoteNumber":76,"Velocity":60,"Duration":144927,"SoundDuration":144927,"Delta":88085282},{"NoteNumber":63,"Velocity":47,"Duration":157911,"SoundDuration":157911,"Delta":88230209},{"NoteNumber":75,"Velocity":56,"Duration":157911,"SoundDuration":157911,"Delta":88230209},{"NoteNumber":64,"Velocity":51,"Duration":147073,"SoundDuration":147073,"Delta":88388120},{"NoteNumber":76,"Velocity":60,"Duration":147073,"SoundDuration":147073,"Delta":88388120},{"NoteNumber":40,"Velocity":37,"Duration":636354,"SoundDuration":636354,"Delta":88388120},{"NoteNumber":56,"Velocity":45,"Duration":636354,"SoundDuration":636354,"Delta":88388120},{"NoteNumber":59,"Velocity":41,"Duration":159574,"SoundDuration":159574,"Delta":88535194},{"NoteNumber":71,"Velocity":50,"Duration":159574,"SoundDuration":159574,"Delta":88535194},{"NoteNumber":62,"Velocity":44,"Duration":164853,"SoundDuration":164853,"Delta":88694768},{"NoteNumber":74,"Velocity":52,"Duration":164853,"SoundDuration":164853,"Delta":88694768},{"NoteNumber":60,"Velocity":41,"Duration":164853,"SoundDuration":164853,"Delta":88859621},{"NoteNumber":72,"Velocity":50,"Duration":164853,"SoundDuration":164853,"Delta":88859621},{"NoteNumber":64,"Velocity":54,"Duration":178592,"SoundDuration":178592,"Delta":89024475},{"NoteNumber":59,"Velocity":30,"Duration":720183,"SoundDuration":720183,"Delta":89024475},{"NoteNumber":71,"Velocity":40,"Duration":720183,"SoundDuration":720183,"Delta":89024475},{"NoteNumber":52,"Velocity":41,"Duration":178592,"SoundDuration":178592,"Delta":89024475},{"NoteNumber":45,"Velocity":21,"Duration":720183,"SoundDuration":720183,"Delta":89024475},{"NoteNumber":50,"Velocity":41,"Duration":720183,"SoundDuration":720183,"Delta":89024475},{"NoteNumber":56,"Velocity":26,"Duration":720183,"SoundDuration":720183,"Delta":89024475},{"NoteNumber":67,"Velocity":45,"Duration":159591,"SoundDuration":159591,"Delta":89203067},{"NoteNumber":55,"Velocity":38,"Duration":159591,"SoundDuration":159591,"Delta":89203067},{"NoteNumber":65,"Velocity":45,"Duration":176491,"SoundDuration":176491,"Delta":89362659},{"NoteNumber":53,"Velocity":36,"Duration":176491,"SoundDuration":176491,"Delta":89362659},{"NoteNumber":64,"Velocity":42,"Duration":464172,"SoundDuration":464172,"Delta":89539150},{"NoteNumber":52,"Velocity":35,"Duration":464172,"SoundDuration":464172,"Delta":89539150},{"NoteNumber":57,"Velocity":29,"Duration":258665,"SoundDuration":258665,"Delta":89744658},{"NoteNumber":69,"Velocity":35,"Duration":258665,"SoundDuration":258665,"Delta":89744658},{"NoteNumber":48,"Velocity":31,"Duration":258665,"SoundDuration":258665,"Delta":89744658},{"NoteNumber":45,"Velocity":31,"Duration":258665,"SoundDuration":258665,"Delta":89744658},{"NoteNumber":81,"Velocity":45,"Duration":299069,"SoundDuration":299069,"Delta":90646604},{"NoteNumber":57,"Velocity":36,"Duration":81967,"SoundDuration":81967,"Delta":90646604},{"NoteNumber":60,"Velocity":36,"Duration":81967,"SoundDuration":81967,"Delta":90646604},{"NoteNumber":69,"Velocity":43,"Duration":81967,"SoundDuration":81967,"Delta":90646604},{"NoteNumber":93,"Velocity":51,"Duration":158609,"SoundDuration":158609,"Delta":90810538},{"NoteNumber":92,"Velocity":51,"Duration":165475,"SoundDuration":165475,"Delta":90945673},{"NoteNumber":80,"Velocity":43,"Duration":165475,"SoundDuration":165475,"Delta":90945673},{"NoteNumber":64,"Velocity":36,"Duration":70422,"SoundDuration":70422,"Delta":90945673},{"NoteNumber":72,"Velocity":43,"Duration":70422,"SoundDuration":70422,"Delta":90945673},{"NoteNumber":91,"Velocity":50,"Duration":171147,"SoundDuration":171147,"Delta":91086518},{"NoteNumber":79,"Velocity":42,"Duration":171147,"SoundDuration":171147,"Delta":91086518},{"NoteNumber":90,"Velocity":50,"Duration":163551,"SoundDuration":163551,"Delta":91234302},{"NoteNumber":78,"Velocity":42,"Duration":163551,"SoundDuration":163551,"Delta":91234302},{"NoteNumber":62,"Velocity":35,"Duration":70093,"SoundDuration":70093,"Delta":91234302},{"NoteNumber":71,"Velocity":42,"Duration":70093,"SoundDuration":70093,"Delta":91234302},{"NoteNumber":89,"Velocity":49,"Duration":163551,"SoundDuration":163551,"Delta":91374489},{"NoteNumber":77,"Velocity":41,"Duration":163551,"SoundDuration":163551,"Delta":91374489},{"NoteNumber":88,"Velocity":49,"Duration":163883,"SoundDuration":163883,"Delta":91514676},{"NoteNumber":76,"Velocity":41,"Duration":163883,"SoundDuration":163883,"Delta":91514676},{"NoteNumber":60,"Velocity":34,"Duration":70093,"SoundDuration":70093,"Delta":91514676},{"NoteNumber":69,"Velocity":40,"Duration":70093,"SoundDuration":70093,"Delta":91514676},{"NoteNumber":87,"Velocity":48,"Duration":142179,"SoundDuration":142179,"Delta":91654863},{"NoteNumber":75,"Velocity":40,"Duration":142179,"SoundDuration":142179,"Delta":91654863},{"NoteNumber":77,"Velocity":43,"Duration":159245,"SoundDuration":159245,"Delta":91797043},{"NoteNumber":89,"Velocity":51,"Duration":159245,"SoundDuration":159245,"Delta":91797043},{"NoteNumber":52,"Velocity":36,"Duration":68741,"SoundDuration":68741,"Delta":91797043},{"NoteNumber":56,"Velocity":36,"Duration":68741,"SoundDuration":68741,"Delta":91797043},{"NoteNumber":64,"Velocity":43,"Duration":68741,"SoundDuration":68741,"Delta":91797043},{"NoteNumber":76,"Velocity":37,"Duration":160870,"SoundDuration":160870,"Delta":91933352},{"NoteNumber":88,"Velocity":45,"Duration":160870,"SoundDuration":160870,"Delta":91933352},{"NoteNumber":75,"Velocity":40,"Duration":162790,"SoundDuration":162790,"Delta":92070967},{"NoteNumber":87,"Velocity":48,"Duration":162790,"SoundDuration":162790,"Delta":92070967},{"NoteNumber":59,"Velocity":33,"Duration":69767,"SoundDuration":69767,"Delta":92070967},{"NoteNumber":67,"Velocity":39,"Duration":69767,"SoundDuration":69767,"Delta":92070967},{"NoteNumber":89,"Velocity":45,"Duration":139535,"SoundDuration":139535,"Delta":92210502},{"NoteNumber":77,"Velocity":37,"Duration":139535,"SoundDuration":139535,"Delta":92210502},{"NoteNumber":76,"Velocity":40,"Duration":280379,"SoundDuration":280379,"Delta":92350037},{"NoteNumber":88,"Velocity":47,"Duration":163009,"SoundDuration":163009,"Delta":92350037},{"NoteNumber":57,"Velocity":37,"Duration":69767,"SoundDuration":69767,"Delta":92350037},{"NoteNumber":65,"Velocity":45,"Duration":69767,"SoundDuration":69767,"Delta":92350037},{"NoteNumber":83,"Velocity":46,"Duration":164319,"SoundDuration":164319,"Delta":92489572},{"NoteNumber":71,"Velocity":38,"Duration":281689,"SoundDuration":281689,"Delta":92630417},{"NoteNumber":80,"Velocity":45,"Duration":164319,"SoundDuration":164319,"Delta":92630417},{"NoteNumber":56,"Velocity":35,"Duration":70422,"SoundDuration":70422,"Delta":92630417},{"NoteNumber":64,"Velocity":42,"Duration":70422,"SoundDuration":70422,"Delta":92630417},{"NoteNumber":76,"Velocity":45,"Duration":140844,"SoundDuration":140844,"Delta":92771262},{"NoteNumber":81,"Velocity":45,"Duration":299069,"SoundDuration":299069,"Delta":92912107},{"NoteNumber":57,"Velocity":36,"Duration":81967,"SoundDuration":81967,"Delta":92912107},{"NoteNumber":60,"Velocity":36,"Duration":81967,"SoundDuration":81967,"Delta":92912107},{"NoteNumber":69,"Velocity":43,"Duration":81967,"SoundDuration":81967,"Delta":92912107},{"NoteNumber":93,"Velocity":51,"Duration":158944,"SoundDuration":158944,"Delta":93076041},{"NoteNumber":92,"Velocity":51,"Duration":166442,"SoundDuration":166442,"Delta":93211177},{"NoteNumber":80,"Velocity":43,"Duration":166442,"SoundDuration":166442,"Delta":93211177},{"NoteNumber":64,"Velocity":36,"Duration":71428,"SoundDuration":71428,"Delta":93211177},{"NoteNumber":72,"Velocity":43,"Duration":71428,"SoundDuration":71428,"Delta":93211177},{"NoteNumber":91,"Velocity":50,"Duration":164550,"SoundDuration":164550,"Delta":93354034},{"NoteNumber":79,"Velocity":42,"Duration":164550,"SoundDuration":164550,"Delta":93354034},{"NoteNumber":90,"Velocity":50,"Duration":161290,"SoundDuration":161290,"Delta":93495543},{"NoteNumber":78,"Velocity":42,"Duration":161290,"SoundDuration":161290,"Delta":93495543},{"NoteNumber":62,"Velocity":35,"Duration":69124,"SoundDuration":69124,"Delta":93495543},{"NoteNumber":71,"Velocity":42,"Duration":69124,"SoundDuration":69124,"Delta":93495543},{"NoteNumber":89,"Velocity":49,"Duration":161290,"SoundDuration":161290,"Delta":93633792},{"NoteNumber":77,"Velocity":41,"Duration":161290,"SoundDuration":161290,"Delta":93633792},{"NoteNumber":88,"Velocity":49,"Duration":161945,"SoundDuration":161945,"Delta":93772041},{"NoteNumber":76,"Velocity":41,"Duration":161945,"SoundDuration":161945,"Delta":93772041},{"NoteNumber":60,"Velocity":34,"Duration":69124,"SoundDuration":69124,"Delta":93772041},{"NoteNumber":69,"Velocity":40,"Duration":69124,"SoundDuration":69124,"Delta":93772041},{"NoteNumber":87,"Velocity":48,"Duration":142179,"SoundDuration":142179,"Delta":93910290},{"NoteNumber":75,"Velocity":40,"Duration":142179,"SoundDuration":142179,"Delta":93910290},{"NoteNumber":77,"Velocity":43,"Duration":159245,"SoundDuration":159245,"Delta":94052470},{"NoteNumber":89,"Velocity":51,"Duration":159245,"SoundDuration":159245,"Delta":94052470},{"NoteNumber":57,"Velocity":36,"Duration":136309,"SoundDuration":136309,"Delta":94052470},{"NoteNumber":60,"Velocity":36,"Duration":136309,"SoundDuration":136309,"Delta":94052470},{"NoteNumber":65,"Velocity":43,"Duration":136309,"SoundDuration":136309,"Delta":94052470},{"NoteNumber":76,"Velocity":37,"Duration":159258,"SoundDuration":159258,"Delta":94188779},{"NoteNumber":88,"Velocity":45,"Duration":159258,"SoundDuration":159258,"Delta":94188779},{"NoteNumber":75,"Velocity":40,"Duration":157828,"SoundDuration":157828,"Delta":94325676},{"NoteNumber":87,"Velocity":48,"Duration":157828,"SoundDuration":157828,"Delta":94325676},{"NoteNumber":89,"Velocity":45,"Duration":163714,"SoundDuration":163714,"Delta":94460735},{"NoteNumber":77,"Velocity":37,"Duration":163714,"SoundDuration":163714,"Delta":94460735},{"NoteNumber":76,"Velocity":40,"Duration":157894,"SoundDuration":157894,"Delta":94598135},{"NoteNumber":88,"Velocity":47,"Duration":157894,"SoundDuration":157894,"Delta":94598135},{"NoteNumber":52,"Velocity":37,"Duration":157894,"SoundDuration":157894,"Delta":94598135},{"NoteNumber":56,"Velocity":37,"Duration":157894,"SoundDuration":157894,"Delta":94598135},{"NoteNumber":64,"Velocity":45,"Duration":157894,"SoundDuration":157894,"Delta":94598135},{"NoteNumber":76,"Velocity":47,"Duration":157894,"SoundDuration":157894,"Delta":94913924},{"NoteNumber":81,"Velocity":45,"Duration":292359,"SoundDuration":292359,"Delta":95229714},{"NoteNumber":57,"Velocity":36,"Duration":81967,"SoundDuration":81967,"Delta":95229714},{"NoteNumber":60,"Velocity":36,"Duration":81967,"SoundDuration":81967,"Delta":95229714},{"NoteNumber":69,"Velocity":43,"Duration":81967,"SoundDuration":81967,"Delta":95229714},{"NoteNumber":93,"Velocity":51,"Duration":150987,"SoundDuration":150987,"Delta":95393648},{"NoteNumber":92,"Velocity":51,"Duration":158963,"SoundDuration":158963,"Delta":95522073},{"NoteNumber":80,"Velocity":43,"Duration":158963,"SoundDuration":158963,"Delta":95522073},{"NoteNumber":64,"Velocity":36,"Duration":67689,"SoundDuration":67689,"Delta":95522073},{"NoteNumber":72,"Velocity":43,"Duration":67689,"SoundDuration":67689,"Delta":95522073},{"NoteNumber":91,"Velocity":50,"Duration":165206,"SoundDuration":165206,"Delta":95657452},{"NoteNumber":79,"Velocity":42,"Duration":165206,"SoundDuration":165206,"Delta":95657452},{"NoteNumber":90,"Velocity":50,"Duration":165876,"SoundDuration":165876,"Delta":95798961},{"NoteNumber":78,"Velocity":42,"Duration":165876,"SoundDuration":165876,"Delta":95798961},{"NoteNumber":62,"Velocity":35,"Duration":71089,"SoundDuration":71089,"Delta":95798961},{"NoteNumber":71,"Velocity":42,"Duration":71089,"SoundDuration":71089,"Delta":95798961},{"NoteNumber":89,"Velocity":49,"Duration":165876,"SoundDuration":165876,"Delta":95941141},{"NoteNumber":77,"Velocity":41,"Duration":165876,"SoundDuration":165876,"Delta":95941141},{"NoteNumber":88,"Velocity":49,"Duration":165876,"SoundDuration":165876,"Delta":96083321},{"NoteNumber":76,"Velocity":41,"Duration":165876,"SoundDuration":165876,"Delta":96083321},{"NoteNumber":60,"Velocity":34,"Duration":71089,"SoundDuration":71089,"Delta":96083321},{"NoteNumber":69,"Velocity":40,"Duration":71089,"SoundDuration":71089,"Delta":96083321},{"NoteNumber":87,"Velocity":48,"Duration":142179,"SoundDuration":142179,"Delta":96225501},{"NoteNumber":75,"Velocity":40,"Duration":142179,"SoundDuration":142179,"Delta":96225501},{"NoteNumber":77,"Velocity":43,"Duration":159245,"SoundDuration":159245,"Delta":96367681},{"NoteNumber":89,"Velocity":51,"Duration":159245,"SoundDuration":159245,"Delta":96367681},{"NoteNumber":52,"Velocity":36,"Duration":68741,"SoundDuration":68741,"Delta":96367681},{"NoteNumber":56,"Velocity":36,"Duration":68741,"SoundDuration":68741,"Delta":96367681},{"NoteNumber":64,"Velocity":43,"Duration":68741,"SoundDuration":68741,"Delta":96367681},{"NoteNumber":76,"Velocity":37,"Duration":160550,"SoundDuration":160550,"Delta":96503991},{"NoteNumber":88,"Velocity":45,"Duration":160550,"SoundDuration":160550,"Delta":96503991},{"NoteNumber":75,"Velocity":40,"Duration":160550,"SoundDuration":160550,"Delta":96641605},{"NoteNumber":87,"Velocity":48,"Duration":160550,"SoundDuration":160550,"Delta":96641605},{"NoteNumber":59,"Velocity":33,"Duration":68807,"SoundDuration":68807,"Delta":96641605},{"NoteNumber":67,"Velocity":39,"Duration":68807,"SoundDuration":68807,"Delta":96641605},{"NoteNumber":89,"Velocity":45,"Duration":137614,"SoundDuration":137614,"Delta":96779220},{"NoteNumber":77,"Velocity":37,"Duration":137614,"SoundDuration":137614,"Delta":96779220},{"NoteNumber":76,"Velocity":40,"Duration":278459,"SoundDuration":278459,"Delta":96916835},{"NoteNumber":88,"Velocity":47,"Duration":161088,"SoundDuration":161088,"Delta":96916835},{"NoteNumber":57,"Velocity":37,"Duration":68807,"SoundDuration":68807,"Delta":96916835},{"NoteNumber":65,"Velocity":45,"Duration":68807,"SoundDuration":68807,"Delta":96916835},{"NoteNumber":83,"Velocity":46,"Duration":164319,"SoundDuration":164319,"Delta":97054450},{"NoteNumber":71,"Velocity":38,"Duration":281689,"SoundDuration":281689,"Delta":97195295},{"NoteNumber":80,"Velocity":45,"Duration":164319,"SoundDuration":164319,"Delta":97195295},{"NoteNumber":56,"Velocity":35,"Duration":70422,"SoundDuration":70422,"Delta":97195295},{"NoteNumber":64,"Velocity":42,"Duration":70422,"SoundDuration":70422,"Delta":97195295},{"NoteNumber":76,"Velocity":45,"Duration":140844,"SoundDuration":140844,"Delta":97336140},{"NoteNumber":81,"Velocity":45,"Duration":285889,"SoundDuration":285889,"Delta":97476985},{"NoteNumber":57,"Velocity":36,"Duration":75376,"SoundDuration":75376,"Delta":97476985},{"NoteNumber":60,"Velocity":36,"Duration":75376,"SoundDuration":75376,"Delta":97476985},{"NoteNumber":69,"Velocity":43,"Duration":75376,"SoundDuration":75376,"Delta":97476985},{"NoteNumber":93,"Velocity":51,"Duration":157298,"SoundDuration":157298,"Delta":97627738},{"NoteNumber":92,"Velocity":51,"Duration":156563,"SoundDuration":156563,"Delta":97762874},{"NoteNumber":80,"Velocity":43,"Duration":156563,"SoundDuration":156563,"Delta":97762874},{"NoteNumber":64,"Velocity":36,"Duration":66489,"SoundDuration":66489,"Delta":97762874},{"NoteNumber":72,"Velocity":43,"Duration":66489,"SoundDuration":66489,"Delta":97762874},{"NoteNumber":91,"Velocity":50,"Duration":164550,"SoundDuration":164550,"Delta":97895852},{"NoteNumber":79,"Velocity":42,"Duration":164550,"SoundDuration":164550,"Delta":97895852},{"NoteNumber":90,"Velocity":50,"Duration":161290,"SoundDuration":161290,"Delta":98037362},{"NoteNumber":78,"Velocity":42,"Duration":161290,"SoundDuration":161290,"Delta":98037362},{"NoteNumber":62,"Velocity":35,"Duration":69124,"SoundDuration":69124,"Delta":98037362},{"NoteNumber":71,"Velocity":42,"Duration":69124,"SoundDuration":69124,"Delta":98037362},{"NoteNumber":89,"Velocity":49,"Duration":161657,"SoundDuration":161657,"Delta":98175611},{"NoteNumber":77,"Velocity":41,"Duration":161657,"SoundDuration":161657,"Delta":98175611},{"NoteNumber":88,"Velocity":49,"Duration":164146,"SoundDuration":164146,"Delta":98313859},{"NoteNumber":76,"Velocity":41,"Duration":164146,"SoundDuration":164146,"Delta":98313859},{"NoteNumber":60,"Velocity":34,"Duration":70224,"SoundDuration":70224,"Delta":98313859},{"NoteNumber":69,"Velocity":40,"Duration":70224,"SoundDuration":70224,"Delta":98313859},{"NoteNumber":87,"Velocity":48,"Duration":142179,"SoundDuration":142179,"Delta":98454309},{"NoteNumber":75,"Velocity":40,"Duration":142179,"SoundDuration":142179,"Delta":98454309},{"NoteNumber":77,"Velocity":43,"Duration":159245,"SoundDuration":159245,"Delta":98596489},{"NoteNumber":89,"Velocity":51,"Duration":159245,"SoundDuration":159245,"Delta":98596489},{"NoteNumber":57,"Velocity":36,"Duration":136309,"SoundDuration":136309,"Delta":98596489},{"NoteNumber":60,"Velocity":36,"Duration":136309,"SoundDuration":136309,"Delta":98596489},{"NoteNumber":65,"Velocity":43,"Duration":136309,"SoundDuration":136309,"Delta":98596489},{"NoteNumber":76,"Velocity":37,"Duration":161311,"SoundDuration":161311,"Delta":98732798},{"NoteNumber":88,"Velocity":45,"Duration":161311,"SoundDuration":161311,"Delta":98732798},{"NoteNumber":75,"Velocity":40,"Duration":165876,"SoundDuration":165876,"Delta":98870413},{"NoteNumber":87,"Velocity":48,"Duration":165876,"SoundDuration":165876,"Delta":98870413},{"NoteNumber":89,"Velocity":45,"Duration":168495,"SoundDuration":168495,"Delta":99012593},{"NoteNumber":77,"Velocity":37,"Duration":168495,"SoundDuration":168495,"Delta":99012593},{"NoteNumber":76,"Velocity":40,"Duration":157894,"SoundDuration":157894,"Delta":99154773},{"NoteNumber":88,"Velocity":47,"Duration":157894,"SoundDuration":157894,"Delta":99154773},{"NoteNumber":52,"Velocity":37,"Duration":157894,"SoundDuration":157894,"Delta":99154773},{"NoteNumber":56,"Velocity":37,"Duration":157894,"SoundDuration":157894,"Delta":99154773},{"NoteNumber":64,"Velocity":45,"Duration":157894,"SoundDuration":157894,"Delta":99154773},{"NoteNumber":76,"Velocity":47,"Duration":157894,"SoundDuration":157894,"Delta":99470563},{"NoteNumber":81,"Velocity":53,"Duration":298178,"SoundDuration":298178,"Delta":99786352},{"NoteNumber":57,"Velocity":42,"Duration":81521,"SoundDuration":81521,"Delta":99786352},{"NoteNumber":61,"Velocity":42,"Duration":81521,"SoundDuration":81521,"Delta":99786352},{"NoteNumber":69,"Velocity":50,"Duration":81521,"SoundDuration":81521,"Delta":99786352},{"NoteNumber":93,"Velocity":60,"Duration":159173,"SoundDuration":159173,"Delta":99949396},{"NoteNumber":92,"Velocity":60,"Duration":168861,"SoundDuration":168861,"Delta":100084531},{"NoteNumber":80,"Velocity":50,"Duration":168861,"SoundDuration":168861,"Delta":100084531},{"NoteNumber":62,"Velocity":42,"Duration":72115,"SoundDuration":72115,"Delta":100084531},{"NoteNumber":70,"Velocity":50,"Duration":72115,"SoundDuration":72115,"Delta":100084531},{"NoteNumber":91,"Velocity":59,"Duration":171147,"SoundDuration":171147,"Delta":100228762},{"NoteNumber":79,"Velocity":49,"Duration":171147,"SoundDuration":171147,"Delta":100228762},{"NoteNumber":90,"Velocity":59,"Duration":163551,"SoundDuration":163551,"Delta":100376545},{"NoteNumber":78,"Velocity":49,"Duration":163551,"SoundDuration":163551,"Delta":100376545},{"NoteNumber":61,"Velocity":40,"Duration":70093,"SoundDuration":70093,"Delta":100376545},{"NoteNumber":69,"Velocity":49,"Duration":70093,"SoundDuration":70093,"Delta":100376545},{"NoteNumber":89,"Velocity":59,"Duration":163551,"SoundDuration":163551,"Delta":100516732},{"NoteNumber":77,"Velocity":49,"Duration":163551,"SoundDuration":163551,"Delta":100516732},{"NoteNumber":88,"Velocity":59,"Duration":163883,"SoundDuration":163883,"Delta":100656919},{"NoteNumber":76,"Velocity":49,"Duration":163883,"SoundDuration":163883,"Delta":100656919},{"NoteNumber":58,"Velocity":39,"Duration":70093,"SoundDuration":70093,"Delta":100656919},{"NoteNumber":67,"Velocity":48,"Duration":70093,"SoundDuration":70093,"Delta":100656919},{"NoteNumber":86,"Velocity":58,"Duration":142179,"SoundDuration":142179,"Delta":100797106},{"NoteNumber":74,"Velocity":48,"Duration":142179,"SoundDuration":142179,"Delta":100797106},{"NoteNumber":73,"Velocity":50,"Duration":273924,"SoundDuration":273924,"Delta":100939286},{"NoteNumber":85,"Velocity":60,"Duration":159245,"SoundDuration":159245,"Delta":100939286},{"NoteNumber":57,"Velocity":42,"Duration":68741,"SoundDuration":68741,"Delta":100939286},{"NoteNumber":65,"Velocity":50,"Duration":68741,"SoundDuration":68741,"Delta":100939286},{"NoteNumber":88,"Velocity":53,"Duration":160870,"SoundDuration":160870,"Delta":101075595},{"NoteNumber":73,"Velocity":48,"Duration":279070,"SoundDuration":279070,"Delta":101213210},{"NoteNumber":81,"Velocity":58,"Duration":162790,"SoundDuration":162790,"Delta":101213210},{"NoteNumber":55,"Velocity":39,"Duration":69767,"SoundDuration":69767,"Delta":101213210},{"NoteNumber":64,"Velocity":47,"Duration":69767,"SoundDuration":69767,"Delta":101213210},{"NoteNumber":85,"Velocity":53,"Duration":139535,"SoundDuration":139535,"Delta":101352745},{"NoteNumber":74,"Velocity":48,"Duration":280379,"SoundDuration":280379,"Delta":101492280},{"NoteNumber":86,"Velocity":57,"Duration":163009,"SoundDuration":163009,"Delta":101492280},{"NoteNumber":53,"Velocity":45,"Duration":69767,"SoundDuration":69767,"Delta":101492280},{"NoteNumber":62,"Velocity":53,"Duration":69767,"SoundDuration":69767,"Delta":101492280},{"NoteNumber":81,"Velocity":56,"Duration":164319,"SoundDuration":164319,"Delta":101631815},{"NoteNumber":69,"Velocity":46,"Duration":281689,"SoundDuration":281689,"Delta":101772660},{"NoteNumber":77,"Velocity":55,"Duration":164319,"SoundDuration":164319,"Delta":101772660},{"NoteNumber":50,"Velocity":40,"Duration":70422,"SoundDuration":70422,"Delta":101772660},{"NoteNumber":65,"Velocity":49,"Duration":70422,"SoundDuration":70422,"Delta":101772660},{"NoteNumber":74,"Velocity":53,"Duration":140844,"SoundDuration":140844,"Delta":101913505},{"NoteNumber":79,"Velocity":56,"Duration":283650,"SoundDuration":283650,"Delta":102054350},{"NoteNumber":55,"Velocity":45,"Duration":74257,"SoundDuration":74257,"Delta":102054350},{"NoteNumber":59,"Velocity":45,"Duration":74257,"SoundDuration":74257,"Delta":102054350},{"NoteNumber":67,"Velocity":52,"Duration":74257,"SoundDuration":74257,"Delta":102054350},{"NoteNumber":91,"Velocity":63,"Duration":159173,"SoundDuration":159173,"Delta":102202865},{"NoteNumber":90,"Velocity":63,"Duration":168861,"SoundDuration":168861,"Delta":102338000},{"NoteNumber":78,"Velocity":52,"Duration":168861,"SoundDuration":168861,"Delta":102338000},{"NoteNumber":60,"Velocity":45,"Duration":72115,"SoundDuration":72115,"Delta":102338000},{"NoteNumber":68,"Velocity":52,"Duration":72115,"SoundDuration":72115,"Delta":102338000},{"NoteNumber":89,"Velocity":62,"Duration":171147,"SoundDuration":171147,"Delta":102482231},{"NoteNumber":77,"Velocity":51,"Duration":171147,"SoundDuration":171147,"Delta":102482231},{"NoteNumber":88,"Velocity":62,"Duration":158435,"SoundDuration":158435,"Delta":102630014},{"NoteNumber":76,"Velocity":51,"Duration":158435,"SoundDuration":158435,"Delta":102630014},{"NoteNumber":59,"Velocity":42,"Duration":68990,"SoundDuration":68990,"Delta":102630014},{"NoteNumber":67,"Velocity":51,"Duration":68990,"SoundDuration":68990,"Delta":102630014},{"NoteNumber":87,"Velocity":61,"Duration":156529,"SoundDuration":156529,"Delta":102766088},{"NoteNumber":75,"Velocity":50,"Duration":156529,"SoundDuration":156529,"Delta":102766088},{"NoteNumber":86,"Velocity":61,"Duration":157864,"SoundDuration":157864,"Delta":102900256},{"NoteNumber":74,"Velocity":50,"Duration":157864,"SoundDuration":157864,"Delta":102900256},{"NoteNumber":56,"Velocity":41,"Duration":67084,"SoundDuration":67084,"Delta":102900256},{"NoteNumber":65,"Velocity":49,"Duration":67084,"SoundDuration":67084,"Delta":102900256},{"NoteNumber":84,"Velocity":59,"Duration":142179,"SoundDuration":142179,"Delta":103034425},{"NoteNumber":72,"Velocity":49,"Duration":142179,"SoundDuration":142179,"Delta":103034425},{"NoteNumber":71,"Velocity":52,"Duration":273924,"SoundDuration":273924,"Delta":103176605},{"NoteNumber":83,"Velocity":63,"Duration":159245,"SoundDuration":159245,"Delta":103176605},{"NoteNumber":55,"Velocity":45,"Duration":68741,"SoundDuration":68741,"Delta":103176605},{"NoteNumber":64,"Velocity":52,"Duration":68741,"SoundDuration":68741,"Delta":103176605},{"NoteNumber":86,"Velocity":56,"Duration":160870,"SoundDuration":160870,"Delta":103312914},{"NoteNumber":71,"Velocity":49,"Duration":279070,"SoundDuration":279070,"Delta":103450529},{"NoteNumber":79,"Velocity":59,"Duration":162790,"SoundDuration":162790,"Delta":103450529},{"NoteNumber":53,"Velocity":40,"Duration":69767,"SoundDuration":69767,"Delta":103450529},{"NoteNumber":62,"Velocity":49,"Duration":69767,"SoundDuration":69767,"Delta":103450529},{"NoteNumber":83,"Velocity":56,"Duration":139535,"SoundDuration":139535,"Delta":103590064},{"NoteNumber":72,"Velocity":49,"Duration":280379,"SoundDuration":280379,"Delta":103729599},{"NoteNumber":84,"Velocity":59,"Duration":163009,"SoundDuration":163009,"Delta":103729599},{"NoteNumber":52,"Velocity":47,"Duration":69767,"SoundDuration":69767,"Delta":103729599},{"NoteNumber":60,"Velocity":56,"Duration":69767,"SoundDuration":69767,"Delta":103729599},{"NoteNumber":79,"Velocity":58,"Duration":164319,"SoundDuration":164319,"Delta":103869134},{"NoteNumber":67,"Velocity":48,"Duration":295484,"SoundDuration":295484,"Delta":104009979},{"NoteNumber":76,"Velocity":57,"Duration":166618,"SoundDuration":166618,"Delta":104009979},{"NoteNumber":48,"Velocity":42,"Duration":70422,"SoundDuration":70422,"Delta":104009979},{"NoteNumber":64,"Velocity":51,"Duration":70422,"SoundDuration":70422,"Delta":104009979},{"NoteNumber":72,"Velocity":56,"Duration":154639,"SoundDuration":154639,"Delta":104150824},{"NoteNumber":77,"Velocity":50,"Duration":208333,"SoundDuration":208333,"Delta":104305463},{"NoteNumber":59,"Velocity":36,"Duration":208333,"SoundDuration":208333,"Delta":104305463},{"NoteNumber":50,"Velocity":36,"Duration":208333,"SoundDuration":208333,"Delta":104305463},{"NoteNumber":56,"Velocity":36,"Duration":208333,"SoundDuration":208333,"Delta":104305463},{"NoteNumber":65,"Velocity":43,"Duration":208333,"SoundDuration":208333,"Delta":104305463},{"NoteNumber":93,"Velocity":63,"Duration":104166,"SoundDuration":104166,"Delta":104409630},{"NoteNumber":88,"Velocity":51,"Duration":158609,"SoundDuration":158609,"Delta":104662311},{"NoteNumber":76,"Velocity":43,"Duration":158609,"SoundDuration":158609,"Delta":104662311},{"NoteNumber":87,"Velocity":50,"Duration":163572,"SoundDuration":163572,"Delta":104797446},{"NoteNumber":75,"Velocity":42,"Duration":163572,"SoundDuration":163572,"Delta":104797446},{"NoteNumber":74,"Velocity":50,"Duration":159091,"SoundDuration":159091,"Delta":104938291},{"NoteNumber":85,"Velocity":49,"Duration":159091,"SoundDuration":159091,"Delta":105074655},{"NoteNumber":73,"Velocity":41,"Duration":159091,"SoundDuration":159091,"Delta":105074655},{"NoteNumber":84,"Velocity":49,"Duration":162405,"SoundDuration":162405,"Delta":105211019},{"NoteNumber":72,"Velocity":41,"Duration":162405,"SoundDuration":162405,"Delta":105211019},{"NoteNumber":83,"Velocity":48,"Duration":156250,"SoundDuration":156250,"Delta":105347382},{"NoteNumber":71,"Velocity":40,"Duration":156250,"SoundDuration":156250,"Delta":105347382},{"NoteNumber":76,"Velocity":54,"Duration":211267,"SoundDuration":211267,"Delta":105503632},{"NoteNumber":57,"Velocity":36,"Duration":211267,"SoundDuration":211267,"Delta":105503632},{"NoteNumber":48,"Velocity":36,"Duration":211267,"SoundDuration":211267,"Delta":105503632},{"NoteNumber":64,"Velocity":43,"Duration":211267,"SoundDuration":211267,"Delta":105503632},{"NoteNumber":91,"Velocity":66,"Duration":105633,"SoundDuration":105633,"Delta":105609266},{"NoteNumber":87,"Velocity":51,"Duration":160377,"SoundDuration":160377,"Delta":105859131},{"NoteNumber":75,"Velocity":43,"Duration":160377,"SoundDuration":160377,"Delta":105859131},{"NoteNumber":86,"Velocity":50,"Duration":170510,"SoundDuration":170510,"Delta":105994877},{"NoteNumber":74,"Velocity":42,"Duration":170510,"SoundDuration":170510,"Delta":105994877},{"NoteNumber":72,"Velocity":50,"Duration":159091,"SoundDuration":159091,"Delta":106142660},{"NoteNumber":83,"Velocity":49,"Duration":159091,"SoundDuration":159091,"Delta":106279024},{"NoteNumber":71,"Velocity":41,"Duration":159091,"SoundDuration":159091,"Delta":106279024},{"NoteNumber":82,"Velocity":49,"Duration":160060,"SoundDuration":160060,"Delta":106415388},{"NoteNumber":70,"Velocity":41,"Duration":160060,"SoundDuration":160060,"Delta":106415388},{"NoteNumber":81,"Velocity":48,"Duration":142179,"SoundDuration":142179,"Delta":106551752},{"NoteNumber":69,"Velocity":40,"Duration":142179,"SoundDuration":142179,"Delta":106551752},{"NoteNumber":57,"Velocity":43,"Duration":70093,"SoundDuration":70093,"Delta":106693932},{"NoteNumber":65,"Velocity":50,"Duration":70093,"SoundDuration":70093,"Delta":106693932},{"NoteNumber":76,"Velocity":49,"Duration":163551,"SoundDuration":163551,"Delta":106834119},{"NoteNumber":64,"Velocity":41,"Duration":163551,"SoundDuration":163551,"Delta":106834119},{"NoteNumber":75,"Velocity":49,"Duration":163883,"SoundDuration":163883,"Delta":106974306},{"NoteNumber":63,"Velocity":41,"Duration":163883,"SoundDuration":163883,"Delta":106974306},{"NoteNumber":74,"Velocity":48,"Duration":142179,"SoundDuration":142179,"Delta":107114493},{"NoteNumber":62,"Velocity":40,"Duration":142179,"SoundDuration":142179,"Delta":107114493},{"NoteNumber":56,"Velocity":43,"Duration":70093,"SoundDuration":70093,"Delta":107256673},{"NoteNumber":64,"Velocity":50,"Duration":70093,"SoundDuration":70093,"Delta":107256673},{"NoteNumber":72,"Velocity":49,"Duration":163551,"SoundDuration":163551,"Delta":107396860},{"NoteNumber":60,"Velocity":41,"Duration":163551,"SoundDuration":163551,"Delta":107396860},{"NoteNumber":71,"Velocity":49,"Duration":163883,"SoundDuration":163883,"Delta":107537047},{"NoteNumber":59,"Velocity":41,"Duration":163883,"SoundDuration":163883,"Delta":107537047},{"NoteNumber":70,"Velocity":48,"Duration":142179,"SoundDuration":142179,"Delta":107677234},{"NoteNumber":58,"Velocity":40,"Duration":142179,"SoundDuration":142179,"Delta":107677234},{"NoteNumber":57,"Velocity":52,"Duration":186200,"SoundDuration":186200,"Delta":107819414},{"NoteNumber":65,"Velocity":50,"Duration":168154,"SoundDuration":168154,"Delta":107981576},{"NoteNumber":53,"Velocity":44,"Duration":168154,"SoundDuration":168154,"Delta":107981576},{"NoteNumber":64,"Velocity":49,"Duration":167694,"SoundDuration":167694,"Delta":108125807},{"NoteNumber":52,"Velocity":44,"Duration":167694,"SoundDuration":167694,"Delta":108125807},{"NoteNumber":63,"Velocity":48,"Duration":168733,"SoundDuration":168733,"Delta":108269462},{"NoteNumber":51,"Velocity":43,"Duration":168733,"SoundDuration":168733,"Delta":108269462},{"NoteNumber":62,"Velocity":46,"Duration":170022,"SoundDuration":170022,"Delta":108414042},{"NoteNumber":50,"Velocity":42,"Duration":170022,"SoundDuration":170022,"Delta":108414042},{"NoteNumber":60,"Velocity":45,"Duration":171209,"SoundDuration":171209,"Delta":108559674},{"NoteNumber":48,"Velocity":41,"Duration":171209,"SoundDuration":171209,"Delta":108559674},{"NoteNumber":59,"Velocity":45,"Duration":172536,"SoundDuration":172536,"Delta":108706374},{"NoteNumber":47,"Velocity":41,"Duration":172536,"SoundDuration":172536,"Delta":108706374},{"NoteNumber":58,"Velocity":44,"Duration":148884,"SoundDuration":148884,"Delta":108854158},{"NoteNumber":46,"Velocity":40,"Duration":148884,"SoundDuration":148884,"Delta":108854158},{"NoteNumber":57,"Velocity":45,"Duration":163934,"SoundDuration":163934,"Delta":109003043},{"NoteNumber":45,"Velocity":43,"Duration":163934,"SoundDuration":163934,"Delta":109003043},{"NoteNumber":89,"Velocity":51,"Duration":165475,"SoundDuration":165475,"Delta":109330912},{"NoteNumber":81,"Velocity":43,"Duration":165475,"SoundDuration":165475,"Delta":109330912},{"NoteNumber":84,"Velocity":50,"Duration":171147,"SoundDuration":171147,"Delta":109471757},{"NoteNumber":77,"Velocity":42,"Duration":171147,"SoundDuration":171147,"Delta":109471757},{"NoteNumber":76,"Velocity":45,"Duration":167811,"SoundDuration":167811,"Delta":109619540},{"NoteNumber":69,"Velocity":37,"Duration":167811,"SoundDuration":167811,"Delta":109619540},{"NoteNumber":72,"Velocity":44,"Duration":189900,"SoundDuration":189900,"Delta":109759727},{"NoteNumber":64,"Velocity":36,"Duration":189900,"SoundDuration":189900,"Delta":109759727},{"NoteNumber":60,"Velocity":47,"Duration":96618,"SoundDuration":96618,"Delta":109925473},{"NoteNumber":48,"Velocity":45,"Duration":96618,"SoundDuration":96618,"Delta":109925473},{"NoteNumber":59,"Velocity":46,"Duration":96618,"SoundDuration":96618,"Delta":110022091},{"NoteNumber":47,"Velocity":44,"Duration":96618,"SoundDuration":96618,"Delta":110022091},{"NoteNumber":57,"Velocity":45,"Duration":96618,"SoundDuration":96618,"Delta":110118709},{"NoteNumber":45,"Velocity":42,"Duration":96618,"SoundDuration":96618,"Delta":110118709},{"NoteNumber":56,"Velocity":45,"Duration":160427,"SoundDuration":160427,"Delta":110215328},{"NoteNumber":44,"Velocity":43,"Duration":160427,"SoundDuration":160427,"Delta":110215328},{"NoteNumber":87,"Velocity":51,"Duration":165475,"SoundDuration":165475,"Delta":110536183},{"NoteNumber":80,"Velocity":43,"Duration":165475,"SoundDuration":165475,"Delta":110536183},{"NoteNumber":83,"Velocity":50,"Duration":171147,"SoundDuration":171147,"Delta":110677028},{"NoteNumber":75,"Velocity":42,"Duration":171147,"SoundDuration":171147,"Delta":110677028},{"NoteNumber":76,"Velocity":45,"Duration":167811,"SoundDuration":167811,"Delta":110824811},{"NoteNumber":68,"Velocity":37,"Duration":167811,"SoundDuration":167811,"Delta":110824811},{"NoteNumber":71,"Velocity":44,"Duration":189669,"SoundDuration":189669,"Delta":110964998},{"NoteNumber":64,"Velocity":36,"Duration":189669,"SoundDuration":189669,"Delta":110964998},{"NoteNumber":52,"Velocity":39,"Duration":95693,"SoundDuration":95693,"Delta":111130744},{"NoteNumber":40,"Velocity":36,"Duration":95693,"SoundDuration":95693,"Delta":111130744},{"NoteNumber":54,"Velocity":41,"Duration":95240,"SoundDuration":95240,"Delta":111226438},{"NoteNumber":42,"Velocity":39,"Duration":95240,"SoundDuration":95240,"Delta":111226438},{"NoteNumber":56,"Velocity":43,"Duration":94786,"SoundDuration":94786,"Delta":111321678},{"NoteNumber":44,"Velocity":42,"Duration":94786,"SoundDuration":94786,"Delta":111321678},{"NoteNumber":57,"Velocity":45,"Duration":161290,"SoundDuration":161290,"Delta":111416465},{"NoteNumber":45,"Velocity":43,"Duration":161290,"SoundDuration":161290,"Delta":111416465},{"NoteNumber":89,"Velocity":51,"Duration":159173,"SoundDuration":159173,"Delta":111739045},{"NoteNumber":81,"Velocity":43,"Duration":159173,"SoundDuration":159173,"Delta":111739045},{"NoteNumber":84,"Velocity":50,"Duration":167595,"SoundDuration":167595,"Delta":111874181},{"NoteNumber":77,"Velocity":42,"Duration":167595,"SoundDuration":167595,"Delta":111874181},{"NoteNumber":76,"Velocity":45,"Duration":167964,"SoundDuration":167964,"Delta":112018411},{"NoteNumber":69,"Velocity":37,"Duration":167964,"SoundDuration":167964,"Delta":112018411},{"NoteNumber":72,"Velocity":44,"Duration":190705,"SoundDuration":190705,"Delta":112158598},{"NoteNumber":64,"Velocity":36,"Duration":190705,"SoundDuration":190705,"Delta":112158598},{"NoteNumber":60,"Velocity":47,"Duration":96153,"SoundDuration":96153,"Delta":112325265},{"NoteNumber":48,"Velocity":45,"Duration":96153,"SoundDuration":96153,"Delta":112325265},{"NoteNumber":59,"Velocity":46,"Duration":96153,"SoundDuration":96153,"Delta":112421419},{"NoteNumber":47,"Velocity":44,"Duration":96153,"SoundDuration":96153,"Delta":112421419},{"NoteNumber":57,"Velocity":45,"Duration":96153,"SoundDuration":96153,"Delta":112517573},{"NoteNumber":45,"Velocity":42,"Duration":96153,"SoundDuration":96153,"Delta":112517573},{"NoteNumber":56,"Velocity":45,"Duration":151515,"SoundDuration":151515,"Delta":112613727},{"NoteNumber":44,"Velocity":43,"Duration":151515,"SoundDuration":151515,"Delta":112613727},{"NoteNumber":87,"Velocity":51,"Duration":165475,"SoundDuration":165475,"Delta":112916757},{"NoteNumber":80,"Velocity":43,"Duration":165475,"SoundDuration":165475,"Delta":112916757},{"NoteNumber":83,"Velocity":50,"Duration":171147,"SoundDuration":171147,"Delta":113057602},{"NoteNumber":75,"Velocity":42,"Duration":171147,"SoundDuration":171147,"Delta":113057602},{"NoteNumber":76,"Velocity":45,"Duration":163551,"SoundDuration":163551,"Delta":113205385},{"NoteNumber":68,"Velocity":37,"Duration":163551,"SoundDuration":163551,"Delta":113205385},{"NoteNumber":71,"Velocity":44,"Duration":196366,"SoundDuration":196366,"Delta":113345572},{"NoteNumber":64,"Velocity":36,"Duration":196366,"SoundDuration":196366,"Delta":113345572},{"NoteNumber":52,"Velocity":75,"Duration":72815,"SoundDuration":72815,"Delta":113654299},{"NoteNumber":40,"Velocity":63,"Duration":72815,"SoundDuration":72815,"Delta":113654299},{"NoteNumber":54,"Velocity":79,"Duration":72815,"SoundDuration":72815,"Delta":113727114},{"NoteNumber":42,"Velocity":66,"Duration":72815,"SoundDuration":72815,"Delta":113727114},{"NoteNumber":56,"Velocity":81,"Duration":72815,"SoundDuration":72815,"Delta":113799930},{"NoteNumber":44,"Velocity":70,"Duration":72815,"SoundDuration":72815,"Delta":113799930},{"NoteNumber":57,"Velocity":83,"Duration":163934,"SoundDuration":163934,"Delta":113872745},{"NoteNumber":33,"Velocity":72,"Duration":163934,"SoundDuration":163934,"Delta":113872745},{"NoteNumber":45,"Velocity":72,"Duration":163934,"SoundDuration":163934,"Delta":113872745},{"NoteNumber":89,"Velocity":80,"Duration":164768,"SoundDuration":164768,"Delta":114200614},{"NoteNumber":81,"Velocity":67,"Duration":164768,"SoundDuration":164768,"Delta":114200614},{"NoteNumber":84,"Velocity":79,"Duration":166905,"SoundDuration":166905,"Delta":114341459},{"NoteNumber":77,"Velocity":65,"Duration":166905,"SoundDuration":166905,"Delta":114341459},{"NoteNumber":76,"Velocity":70,"Duration":167811,"SoundDuration":167811,"Delta":114485000},{"NoteNumber":69,"Velocity":59,"Duration":167811,"SoundDuration":167811,"Delta":114485000},{"NoteNumber":72,"Velocity":68,"Duration":189900,"SoundDuration":189900,"Delta":114625187},{"NoteNumber":64,"Velocity":57,"Duration":189900,"SoundDuration":189900,"Delta":114625187},{"NoteNumber":60,"Velocity":81,"Duration":96618,"SoundDuration":96618,"Delta":114790933},{"NoteNumber":48,"Velocity":74,"Duration":96618,"SoundDuration":96618,"Delta":114790933},{"NoteNumber":59,"Velocity":80,"Duration":96618,"SoundDuration":96618,"Delta":114887551},{"NoteNumber":47,"Velocity":72,"Duration":96618,"SoundDuration":96618,"Delta":114887551},{"NoteNumber":57,"Velocity":77,"Duration":96618,"SoundDuration":96618,"Delta":114984169},{"NoteNumber":45,"Velocity":69,"Duration":96618,"SoundDuration":96618,"Delta":114984169},{"NoteNumber":56,"Velocity":81,"Duration":160427,"SoundDuration":160427,"Delta":115080788},{"NoteNumber":44,"Velocity":74,"Duration":160427,"SoundDuration":160427,"Delta":115080788},{"NoteNumber":32,"Velocity":74,"Duration":160427,"SoundDuration":160427,"Delta":115084798},{"NoteNumber":87,"Velocity":80,"Duration":159443,"SoundDuration":159443,"Delta":115401643},{"NoteNumber":80,"Velocity":67,"Duration":159443,"SoundDuration":159443,"Delta":115401643},{"NoteNumber":83,"Velocity":79,"Duration":165544,"SoundDuration":165544,"Delta":115537390},{"NoteNumber":75,"Velocity":65,"Duration":165544,"SoundDuration":165544,"Delta":115537390},{"NoteNumber":76,"Velocity":70,"Duration":168119,"SoundDuration":168119,"Delta":115679570},{"NoteNumber":68,"Velocity":59,"Duration":168119,"SoundDuration":168119,"Delta":115679570},{"NoteNumber":71,"Velocity":68,"Duration":191521,"SoundDuration":191521,"Delta":115819757},{"NoteNumber":64,"Velocity":57,"Duration":191521,"SoundDuration":191521,"Delta":115819757},{"NoteNumber":52,"Velocity":66,"Duration":95693,"SoundDuration":95693,"Delta":115987354},{"NoteNumber":40,"Velocity":64,"Duration":95693,"SoundDuration":95693,"Delta":115987354},{"NoteNumber":54,"Velocity":72,"Duration":95240,"SoundDuration":95240,"Delta":116083048},{"NoteNumber":42,"Velocity":69,"Duration":95240,"SoundDuration":95240,"Delta":116083048},{"NoteNumber":56,"Velocity":77,"Duration":94786,"SoundDuration":94786,"Delta":116178289},{"NoteNumber":44,"Velocity":72,"Duration":94786,"SoundDuration":94786,"Delta":116178289},{"NoteNumber":57,"Velocity":83,"Duration":153846,"SoundDuration":153846,"Delta":116273075},{"NoteNumber":33,"Velocity":75,"Duration":153846,"SoundDuration":153846,"Delta":116273075},{"NoteNumber":45,"Velocity":75,"Duration":153846,"SoundDuration":153846,"Delta":116273075},{"NoteNumber":89,"Velocity":80,"Duration":169558,"SoundDuration":169558,"Delta":116580768},{"NoteNumber":81,"Velocity":67,"Duration":169558,"SoundDuration":169558,"Delta":116580768},{"NoteNumber":84,"Velocity":79,"Duration":171147,"SoundDuration":171147,"Delta":116725695},{"NoteNumber":77,"Velocity":65,"Duration":171147,"SoundDuration":171147,"Delta":116725695},{"NoteNumber":76,"Velocity":70,"Duration":168276,"SoundDuration":168276,"Delta":116873478},{"NoteNumber":69,"Velocity":59,"Duration":168276,"SoundDuration":168276,"Delta":116873478},{"NoteNumber":72,"Velocity":68,"Duration":192577,"SoundDuration":192577,"Delta":117013665},{"NoteNumber":64,"Velocity":57,"Duration":192577,"SoundDuration":192577,"Delta":117013665},{"NoteNumber":60,"Velocity":77,"Duration":96153,"SoundDuration":96153,"Delta":117182205},{"NoteNumber":48,"Velocity":77,"Duration":96153,"SoundDuration":96153,"Delta":117182205},{"NoteNumber":59,"Velocity":76,"Duration":96153,"SoundDuration":96153,"Delta":117278359},{"NoteNumber":47,"Velocity":75,"Duration":96153,"SoundDuration":96153,"Delta":117278359},{"NoteNumber":57,"Velocity":74,"Duration":96153,"SoundDuration":96153,"Delta":117374512},{"NoteNumber":45,"Velocity":72,"Duration":96153,"SoundDuration":96153,"Delta":117374512},{"NoteNumber":56,"Velocity":73,"Duration":151515,"SoundDuration":151515,"Delta":117470666},{"NoteNumber":44,"Velocity":73,"Duration":151515,"SoundDuration":151515,"Delta":117470666},{"NoteNumber":32,"Velocity":73,"Duration":151515,"SoundDuration":151515,"Delta":117475717},{"NoteNumber":87,"Velocity":80,"Duration":165475,"SoundDuration":165475,"Delta":117773697},{"NoteNumber":80,"Velocity":67,"Duration":165475,"SoundDuration":165475,"Delta":117773697},{"NoteNumber":83,"Velocity":79,"Duration":170204,"SoundDuration":170204,"Delta":117914542},{"NoteNumber":75,"Velocity":65,"Duration":170204,"SoundDuration":170204,"Delta":117914542},{"NoteNumber":76,"Velocity":70,"Duration":158003,"SoundDuration":158003,"Delta":118062325},{"NoteNumber":68,"Velocity":59,"Duration":158003,"SoundDuration":158003,"Delta":118062325},{"NoteNumber":71,"Velocity":68,"Duration":189864,"SoundDuration":189864,"Delta":118196854},{"NoteNumber":64,"Velocity":57,"Duration":189864,"SoundDuration":189864,"Delta":118196854},{"NoteNumber":57,"Velocity":42,"Duration":72815,"SoundDuration":72815,"Delta":118484758},{"NoteNumber":45,"Velocity":37,"Duration":72815,"SoundDuration":72815,"Delta":118484758},{"NoteNumber":59,"Velocity":44,"Duration":72815,"SoundDuration":72815,"Delta":118557574},{"NoteNumber":47,"Velocity":40,"Duration":72815,"SoundDuration":72815,"Delta":118557574},{"NoteNumber":60,"Velocity":45,"Duration":72815,"SoundDuration":72815,"Delta":118630389},{"NoteNumber":48,"Velocity":43,"Duration":72815,"SoundDuration":72815,"Delta":118630389},{"NoteNumber":61,"Velocity":47,"Duration":163934,"SoundDuration":163934,"Delta":118703205},{"NoteNumber":37,"Velocity":38,"Duration":163934,"SoundDuration":163934,"Delta":118703205},{"NoteNumber":49,"Velocity":45,"Duration":163934,"SoundDuration":163934,"Delta":118703205},{"NoteNumber":94,"Velocity":51,"Duration":165475,"SoundDuration":165475,"Delta":119031074},{"NoteNumber":88,"Velocity":43,"Duration":165475,"SoundDuration":165475,"Delta":119031074},{"NoteNumber":91,"Velocity":50,"Duration":171147,"SoundDuration":171147,"Delta":119171919},{"NoteNumber":82,"Velocity":42,"Duration":171147,"SoundDuration":171147,"Delta":119171919},{"NoteNumber":81,"Velocity":45,"Duration":168119,"SoundDuration":168119,"Delta":119319702},{"NoteNumber":76,"Velocity":37,"Duration":168119,"SoundDuration":168119,"Delta":119319702},{"NoteNumber":79,"Velocity":44,"Duration":191752,"SoundDuration":191752,"Delta":119459889},{"NoteNumber":69,"Velocity":36,"Duration":191752,"SoundDuration":191752,"Delta":119459889},{"NoteNumber":57,"Velocity":46,"Duration":96618,"SoundDuration":96618,"Delta":119627487},{"NoteNumber":45,"Velocity":48,"Duration":96618,"SoundDuration":96618,"Delta":119627487},{"NoteNumber":59,"Velocity":50,"Duration":96618,"SoundDuration":96618,"Delta":119724105},{"NoteNumber":47,"Velocity":50,"Duration":96618,"SoundDuration":96618,"Delta":119724105},{"NoteNumber":61,"Velocity":52,"Duration":96618,"SoundDuration":96618,"Delta":119820723},{"NoteNumber":49,"Velocity":52,"Duration":96618,"SoundDuration":96618,"Delta":119820723},{"NoteNumber":62,"Velocity":55,"Duration":160427,"SoundDuration":160427,"Delta":119917342},{"NoteNumber":38,"Velocity":47,"Duration":160427,"SoundDuration":160427,"Delta":119917342},{"NoteNumber":50,"Velocity":54,"Duration":160427,"SoundDuration":160427,"Delta":119917342},{"NoteNumber":88,"Velocity":59,"Duration":159220,"SoundDuration":159220,"Delta":120238197},{"NoteNumber":81,"Velocity":50,"Duration":159220,"SoundDuration":159220,"Delta":120238197},{"NoteNumber":86,"Velocity":58,"Duration":164209,"SoundDuration":164209,"Delta":120373944},{"NoteNumber":76,"Velocity":49,"Duration":164209,"SoundDuration":164209,"Delta":120373944},{"NoteNumber":77,"Velocity":52,"Duration":167964,"SoundDuration":167964,"Delta":120514789},{"NoteNumber":69,"Velocity":43,"Duration":167964,"SoundDuration":167964,"Delta":120514789},{"NoteNumber":74,"Velocity":51,"Duration":190590,"SoundDuration":190590,"Delta":120654976},{"NoteNumber":65,"Velocity":42,"Duration":190590,"SoundDuration":190590,"Delta":120654976},{"NoteNumber":64,"Velocity":51,"Duration":95693,"SoundDuration":95693,"Delta":120821642},{"NoteNumber":52,"Velocity":45,"Duration":95693,"SoundDuration":95693,"Delta":120821642},{"NoteNumber":62,"Velocity":53,"Duration":95240,"SoundDuration":95240,"Delta":120917336},{"NoteNumber":50,"Velocity":48,"Duration":95240,"SoundDuration":95240,"Delta":120917336},{"NoteNumber":60,"Velocity":54,"Duration":94786,"SoundDuration":94786,"Delta":121012576},{"NoteNumber":48,"Velocity":52,"Duration":94786,"SoundDuration":94786,"Delta":121012576},{"NoteNumber":59,"Velocity":57,"Duration":163934,"SoundDuration":163934,"Delta":121107363},{"NoteNumber":35,"Velocity":51,"Duration":163934,"SoundDuration":163934,"Delta":121107363},{"NoteNumber":47,"Velocity":54,"Duration":163934,"SoundDuration":163934,"Delta":121107363},{"NoteNumber":92,"Velocity":63,"Duration":165475,"SoundDuration":165475,"Delta":121435232},{"NoteNumber":86,"Velocity":52,"Duration":165475,"SoundDuration":165475,"Delta":121435232},{"NoteNumber":89,"Velocity":62,"Duration":171706,"SoundDuration":171706,"Delta":121576077},{"NoteNumber":80,"Velocity":51,"Duration":171706,"SoundDuration":171706,"Delta":121576077},{"NoteNumber":79,"Velocity":54,"Duration":171318,"SoundDuration":171318,"Delta":121723860},{"NoteNumber":74,"Velocity":46,"Duration":171318,"SoundDuration":171318,"Delta":121723860},{"NoteNumber":77,"Velocity":54,"Duration":190821,"SoundDuration":190821,"Delta":121867401},{"NoteNumber":67,"Velocity":45,"Duration":190821,"SoundDuration":190821,"Delta":121867401},{"NoteNumber":55,"Velocity":66,"Duration":96618,"SoundDuration":96618,"Delta":122034068},{"NoteNumber":43,"Velocity":63,"Duration":96618,"SoundDuration":96618,"Delta":122034068},{"NoteNumber":57,"Velocity":70,"Duration":96618,"SoundDuration":96618,"Delta":122130686},{"NoteNumber":45,"Velocity":65,"Duration":96618,"SoundDuration":96618,"Delta":122130686},{"NoteNumber":59,"Velocity":73,"Duration":96618,"SoundDuration":96618,"Delta":122227304},{"NoteNumber":47,"Velocity":67,"Duration":96618,"SoundDuration":96618,"Delta":122227304},{"NoteNumber":60,"Velocity":76,"Duration":157067,"SoundDuration":157067,"Delta":122323923},{"NoteNumber":36,"Velocity":58,"Duration":157067,"SoundDuration":157067,"Delta":122323923},{"NoteNumber":48,"Velocity":69,"Duration":157067,"SoundDuration":157067,"Delta":122323923},{"NoteNumber":87,"Velocity":72,"Duration":165475,"SoundDuration":165475,"Delta":122638059},{"NoteNumber":79,"Velocity":61,"Duration":165475,"SoundDuration":165475,"Delta":122638059},{"NoteNumber":84,"Velocity":71,"Duration":171147,"SoundDuration":171147,"Delta":122778904},{"NoteNumber":75,"Velocity":60,"Duration":171147,"SoundDuration":171147,"Delta":122778904},{"NoteNumber":76,"Velocity":63,"Duration":167964,"SoundDuration":167964,"Delta":122926687},{"NoteNumber":67,"Velocity":53,"Duration":167964,"SoundDuration":167964,"Delta":122926687},{"NoteNumber":72,"Velocity":62,"Duration":190821,"SoundDuration":190821,"Delta":123066874},{"NoteNumber":64,"Velocity":52,"Duration":190821,"SoundDuration":190821,"Delta":123066874},{"NoteNumber":59,"Velocity":70,"Duration":96618,"SoundDuration":96618,"Delta":123233541},{"NoteNumber":47,"Velocity":67,"Duration":96618,"SoundDuration":96618,"Delta":123233541},{"NoteNumber":60,"Velocity":72,"Duration":96618,"SoundDuration":96618,"Delta":123330159},{"NoteNumber":48,"Velocity":70,"Duration":96618,"SoundDuration":96618,"Delta":123330159},{"NoteNumber":61,"Velocity":74,"Duration":96618,"SoundDuration":96618,"Delta":123426777},{"NoteNumber":49,"Velocity":73,"Duration":96618,"SoundDuration":96618,"Delta":123426777},{"NoteNumber":62,"Velocity":77,"Duration":163934,"SoundDuration":163934,"Delta":123523396},{"NoteNumber":38,"Velocity":64,"Duration":163934,"SoundDuration":163934,"Delta":123523396},{"NoteNumber":50,"Velocity":76,"Duration":163934,"SoundDuration":163934,"Delta":123523396},{"NoteNumber":95,"Velocity":77,"Duration":159835,"SoundDuration":159835,"Delta":123851265},{"NoteNumber":86,"Velocity":64,"Duration":159835,"SoundDuration":159835,"Delta":123851265},{"NoteNumber":89,"Velocity":76,"Duration":178804,"SoundDuration":178804,"Delta":123985193},{"NoteNumber":83,"Velocity":63,"Duration":178804,"SoundDuration":178804,"Delta":123985193},{"NoteNumber":82,"Velocity":66,"Duration":168119,"SoundDuration":168119,"Delta":124140634},{"NoteNumber":74,"Velocity":56,"Duration":168119,"SoundDuration":168119,"Delta":124140634},{"NoteNumber":77,"Velocity":65,"Duration":191752,"SoundDuration":191752,"Delta":124280821},{"NoteNumber":70,"Velocity":54,"Duration":191752,"SoundDuration":191752,"Delta":124280821},{"NoteNumber":58,"Velocity":74,"Duration":96618,"SoundDuration":96618,"Delta":124448419},{"NoteNumber":46,"Velocity":71,"Duration":96618,"SoundDuration":96618,"Delta":124448419},{"NoteNumber":60,"Velocity":78,"Duration":96618,"SoundDuration":96618,"Delta":124545037},{"NoteNumber":48,"Velocity":74,"Duration":96618,"SoundDuration":96618,"Delta":124545037},{"NoteNumber":62,"Velocity":81,"Duration":96618,"SoundDuration":96618,"Delta":124641655},{"NoteNumber":50,"Velocity":78,"Duration":96618,"SoundDuration":96618,"Delta":124641655},{"NoteNumber":64,"Velocity":84,"Duration":163934,"SoundDuration":163934,"Delta":124738274},{"NoteNumber":40,"Velocity":69,"Duration":163934,"SoundDuration":163934,"Delta":124738274},{"NoteNumber":52,"Velocity":81,"Duration":163934,"SoundDuration":163934,"Delta":124738274},{"NoteNumber":92,"Velocity":84,"Duration":165475,"SoundDuration":165475,"Delta":125066143},{"NoteNumber":83,"Velocity":71,"Duration":165475,"SoundDuration":165475,"Delta":125066143},{"NoteNumber":86,"Velocity":83,"Duration":171147,"SoundDuration":171147,"Delta":125206988},{"NoteNumber":80,"Velocity":70,"Duration":171147,"SoundDuration":171147,"Delta":125206988},{"NoteNumber":81,"Velocity":73,"Duration":167964,"SoundDuration":167964,"Delta":125354771},{"NoteNumber":72,"Velocity":63,"Duration":167964,"SoundDuration":167964,"Delta":125354771},{"NoteNumber":76,"Velocity":72,"Duration":190821,"SoundDuration":190821,"Delta":125494958},{"NoteNumber":69,"Velocity":61,"Duration":190821,"SoundDuration":190821,"Delta":125494958},{"NoteNumber":65,"Velocity":78,"Duration":96618,"SoundDuration":96618,"Delta":125661625},{"NoteNumber":53,"Velocity":76,"Duration":96618,"SoundDuration":96618,"Delta":125661625},{"NoteNumber":64,"Velocity":81,"Duration":96618,"SoundDuration":96618,"Delta":125758243},{"NoteNumber":52,"Velocity":79,"Duration":96618,"SoundDuration":96618,"Delta":125758243},{"NoteNumber":63,"Velocity":84,"Duration":96618,"SoundDuration":96618,"Delta":125854861},{"NoteNumber":51,"Velocity":81,"Duration":96618,"SoundDuration":96618,"Delta":125854861},{"NoteNumber":62,"Velocity":87,"Duration":163934,"SoundDuration":163934,"Delta":125951480},{"NoteNumber":38,"Velocity":71,"Duration":163934,"SoundDuration":163934,"Delta":125951480},{"NoteNumber":50,"Velocity":83,"Duration":163934,"SoundDuration":163934,"Delta":125951480},{"NoteNumber":89,"Velocity":84,"Duration":165475,"SoundDuration":165475,"Delta":126279349},{"NoteNumber":81,"Velocity":84,"Duration":165475,"SoundDuration":165475,"Delta":126279349},{"NoteNumber":47,"Velocity":69,"Duration":93896,"SoundDuration":93896,"Delta":126279349},{"NoteNumber":48,"Velocity":71,"Duration":96209,"SoundDuration":96209,"Delta":126373245},{"NoteNumber":83,"Velocity":81,"Duration":173293,"SoundDuration":173293,"Delta":126420194},{"NoteNumber":77,"Velocity":81,"Duration":173293,"SoundDuration":173293,"Delta":126420194},{"NoteNumber":50,"Velocity":73,"Duration":98522,"SoundDuration":98522,"Delta":126469455},{"NoteNumber":68,"Velocity":79,"Duration":178571,"SoundDuration":178571,"Delta":126567977},{"NoteNumber":76,"Velocity":79,"Duration":178571,"SoundDuration":178571,"Delta":126567977},{"NoteNumber":52,"Velocity":72,"Duration":153061,"SoundDuration":153061,"Delta":126567977},{"NoteNumber":40,"Velocity":69,"Duration":153061,"SoundDuration":153061,"Delta":126567977},{"NoteNumber":64,"Velocity":76,"Duration":180383,"SoundDuration":180383,"Delta":126721038},{"NoteNumber":71,"Velocity":76,"Duration":180383,"SoundDuration":180383,"Delta":126721038},{"NoteNumber":62,"Velocity":73,"Duration":109741,"SoundDuration":109741,"Delta":126874099},{"NoteNumber":50,"Velocity":69,"Duration":109741,"SoundDuration":109741,"Delta":126874099},{"NoteNumber":60,"Velocity":77,"Duration":112049,"SoundDuration":112049,"Delta":126983841},{"NoteNumber":48,"Velocity":77,"Duration":112049,"SoundDuration":112049,"Delta":126983841},{"NoteNumber":59,"Velocity":81,"Duration":114617,"SoundDuration":114617,"Delta":127095890},{"NoteNumber":47,"Velocity":81,"Duration":114617,"SoundDuration":114617,"Delta":127095890},{"NoteNumber":57,"Velocity":87,"Duration":168539,"SoundDuration":168539,"Delta":127210508},{"NoteNumber":33,"Velocity":83,"Duration":168539,"SoundDuration":168539,"Delta":127210508},{"NoteNumber":45,"Velocity":83,"Duration":168539,"SoundDuration":168539,"Delta":127210508},{"NoteNumber":96,"Velocity":95,"Duration":209460,"SoundDuration":209460,"Delta":127547587},{"NoteNumber":88,"Velocity":80,"Duration":209460,"SoundDuration":209460,"Delta":127547587},{"NoteNumber":64,"Velocity":70,"Duration":178592,"SoundDuration":178592,"Delta":127547587},{"NoteNumber":72,"Velocity":79,"Duration":178592,"SoundDuration":178592,"Delta":127547587},{"NoteNumber":84,"Velocity":92,"Duration":216075,"SoundDuration":216075,"Delta":127726179},{"NoteNumber":88,"Velocity":80,"Duration":216076,"SoundDuration":216076,"Delta":127911387},{"NoteNumber":93,"Velocity":95,"Duration":216076,"SoundDuration":216076,"Delta":127911387},{"NoteNumber":60,"Velocity":68,"Duration":185208,"SoundDuration":185208,"Delta":127911387},{"NoteNumber":69,"Velocity":79,"Duration":185208,"SoundDuration":185208,"Delta":127911387},{"NoteNumber":81,"Velocity":92,"Duration":216075,"SoundDuration":216075,"Delta":128096595},{"NoteNumber":100,"Velocity":94,"Duration":857299,"SoundDuration":857299,"Delta":128645742},{"NoteNumber":96,"Velocity":80,"Duration":857299,"SoundDuration":857299,"Delta":128645742},{"NoteNumber":88,"Velocity":80,"Duration":857299,"SoundDuration":857299,"Delta":128645742},{"NoteNumber":33,"Velocity":54,"Duration":109578,"SoundDuration":109578,"Delta":128645742},{"NoteNumber":36,"Velocity":63,"Duration":109578,"SoundDuration":109578,"Delta":128645742},{"NoteNumber":35,"Velocity":47,"Duration":108521,"SoundDuration":108521,"Delta":128791728},{"NoteNumber":38,"Velocity":56,"Duration":108521,"SoundDuration":108521,"Delta":128791728},{"NoteNumber":36,"Velocity":54,"Duration":107484,"SoundDuration":107484,"Delta":128936307},{"NoteNumber":40,"Velocity":64,"Duration":107484,"SoundDuration":107484,"Delta":128936307},{"NoteNumber":38,"Velocity":50,"Duration":106467,"SoundDuration":106467,"Delta":129079506},{"NoteNumber":41,"Velocity":59,"Duration":106467,"SoundDuration":106467,"Delta":129079506},{"NoteNumber":40,"Velocity":55,"Duration":105633,"SoundDuration":105633,"Delta":129221351},{"NoteNumber":44,"Velocity":66,"Duration":105633,"SoundDuration":105633,"Delta":129221351},{"NoteNumber":41,"Velocity":52,"Duration":105633,"SoundDuration":105633,"Delta":129362196},{"NoteNumber":45,"Velocity":61,"Duration":105633,"SoundDuration":105633,"Delta":129362196},{"NoteNumber":98,"Velocity":71,"Duration":105633,"SoundDuration":105633,"Delta":129503041},{"NoteNumber":95,"Velocity":59,"Duration":105633,"SoundDuration":105633,"Delta":129503041},{"NoteNumber":86,"Velocity":59,"Duration":105633,"SoundDuration":105633,"Delta":129503041},{"NoteNumber":44,"Velocity":50,"Duration":105633,"SoundDuration":105633,"Delta":129503041},{"NoteNumber":47,"Velocity":60,"Duration":105633,"SoundDuration":105633,"Delta":129503041},{"NoteNumber":84,"Velocity":59,"Duration":105633,"SoundDuration":105633,"Delta":129643886},{"NoteNumber":93,"Velocity":59,"Duration":105633,"SoundDuration":105633,"Delta":129643886},{"NoteNumber":96,"Velocity":71,"Duration":105633,"SoundDuration":105633,"Delta":129643886},{"NoteNumber":45,"Velocity":47,"Duration":105633,"SoundDuration":105633,"Delta":129643886},{"NoteNumber":48,"Velocity":55,"Duration":105633,"SoundDuration":105633,"Delta":129643886},{"NoteNumber":95,"Velocity":78,"Duration":101351,"SoundDuration":101351,"Delta":129784731},{"NoteNumber":92,"Velocity":78,"Duration":101351,"SoundDuration":101351,"Delta":129784731},{"NoteNumber":83,"Velocity":65,"Duration":101351,"SoundDuration":101351,"Delta":129784731},{"NoteNumber":47,"Velocity":53,"Duration":101351,"SoundDuration":101351,"Delta":129784731},{"NoteNumber":50,"Velocity":63,"Duration":101351,"SoundDuration":101351,"Delta":129784731},{"NoteNumber":81,"Velocity":59,"Duration":101351,"SoundDuration":101351,"Delta":129919866},{"NoteNumber":89,"Velocity":59,"Duration":101351,"SoundDuration":101351,"Delta":129919866},{"NoteNumber":93,"Velocity":71,"Duration":101351,"SoundDuration":101351,"Delta":129919866},{"NoteNumber":48,"Velocity":48,"Duration":101351,"SoundDuration":101351,"Delta":129919866},{"NoteNumber":52,"Velocity":56,"Duration":101351,"SoundDuration":101351,"Delta":129919866},{"NoteNumber":80,"Velocity":63,"Duration":101351,"SoundDuration":101351,"Delta":130055001},{"NoteNumber":88,"Velocity":63,"Duration":101351,"SoundDuration":101351,"Delta":130055001},{"NoteNumber":92,"Velocity":73,"Duration":101351,"SoundDuration":101351,"Delta":130055001},{"NoteNumber":50,"Velocity":53,"Duration":101351,"SoundDuration":101351,"Delta":130055001},{"NoteNumber":53,"Velocity":63,"Duration":101351,"SoundDuration":101351,"Delta":130055001},{"NoteNumber":77,"Velocity":59,"Duration":105633,"SoundDuration":105633,"Delta":130190136},{"NoteNumber":86,"Velocity":59,"Duration":105633,"SoundDuration":105633,"Delta":130190136},{"NoteNumber":89,"Velocity":71,"Duration":105633,"SoundDuration":105633,"Delta":130190136},{"NoteNumber":52,"Velocity":48,"Duration":105633,"SoundDuration":105633,"Delta":130190136},{"NoteNumber":56,"Velocity":56,"Duration":105633,"SoundDuration":105633,"Delta":130190136},{"NoteNumber":88,"Velocity":73,"Duration":102272,"SoundDuration":102272,"Delta":130330981},{"NoteNumber":84,"Velocity":63,"Duration":102272,"SoundDuration":102272,"Delta":130330981},{"NoteNumber":76,"Velocity":63,"Duration":102272,"SoundDuration":102272,"Delta":130330981},{"NoteNumber":53,"Velocity":53,"Duration":102272,"SoundDuration":102272,"Delta":130330981},{"NoteNumber":57,"Velocity":63,"Duration":102272,"SoundDuration":102272,"Delta":130330981},{"NoteNumber":86,"Velocity":72,"Duration":102272,"SoundDuration":102272,"Delta":130467345},{"NoteNumber":83,"Velocity":60,"Duration":102272,"SoundDuration":102272,"Delta":130467345},{"NoteNumber":74,"Velocity":60,"Duration":102272,"SoundDuration":102272,"Delta":130467345},{"NoteNumber":56,"Velocity":53,"Duration":102272,"SoundDuration":102272,"Delta":130467345},{"NoteNumber":59,"Velocity":63,"Duration":102272,"SoundDuration":102272,"Delta":130467345},{"NoteNumber":84,"Velocity":72,"Duration":102272,"SoundDuration":102272,"Delta":130603709},{"NoteNumber":81,"Velocity":62,"Duration":102272,"SoundDuration":102272,"Delta":130603709},{"NoteNumber":72,"Velocity":62,"Duration":102272,"SoundDuration":102272,"Delta":130603709},{"NoteNumber":57,"Velocity":53,"Duration":102272,"SoundDuration":102272,"Delta":130603709},{"NoteNumber":60,"Velocity":63,"Duration":102272,"SoundDuration":102272,"Delta":130603709},{"NoteNumber":71,"Velocity":62,"Duration":110294,"SoundDuration":110294,"Delta":130740073},{"NoteNumber":83,"Velocity":72,"Duration":110294,"SoundDuration":110294,"Delta":130740073},{"NoteNumber":80,"Velocity":62,"Duration":110294,"SoundDuration":110294,"Delta":130740073},{"NoteNumber":59,"Velocity":48,"Duration":110294,"SoundDuration":110294,"Delta":130740073},{"NoteNumber":62,"Velocity":57,"Duration":110294,"SoundDuration":110294,"Delta":130740073},{"NoteNumber":84,"Velocity":76,"Duration":853848,"SoundDuration":853848,"Delta":130887131},{"NoteNumber":81,"Velocity":64,"Duration":853848,"SoundDuration":853848,"Delta":130887131},{"NoteNumber":72,"Velocity":64,"Duration":853848,"SoundDuration":853848,"Delta":130887131},{"NoteNumber":60,"Velocity":63,"Duration":102275,"SoundDuration":102275,"Delta":130887131},{"NoteNumber":57,"Velocity":53,"Duration":102275,"SoundDuration":102275,"Delta":130887131},{"NoteNumber":59,"Velocity":49,"Duration":104653,"SoundDuration":104653,"Delta":131023916},{"NoteNumber":62,"Velocity":60,"Duration":104653,"SoundDuration":104653,"Delta":131023916},{"NoteNumber":60,"Velocity":53,"Duration":109223,"SoundDuration":109223,"Delta":131163892},{"NoteNumber":64,"Velocity":65,"Duration":109223,"SoundDuration":109223,"Delta":131163892},{"NoteNumber":62,"Velocity":58,"Duration":119047,"SoundDuration":119047,"Delta":131309523},{"NoteNumber":65,"Velocity":68,"Duration":119047,"SoundDuration":119047,"Delta":131309523},{"NoteNumber":62,"Velocity":60,"Duration":102272,"SoundDuration":102272,"Delta":131468253},{"NoteNumber":65,"Velocity":71,"Duration":102272,"SoundDuration":102272,"Delta":131468253},{"NoteNumber":60,"Velocity":58,"Duration":102272,"SoundDuration":102272,"Delta":131604617},{"NoteNumber":64,"Velocity":69,"Duration":102272,"SoundDuration":102272,"Delta":131604617},{"NoteNumber":86,"Velocity":71,"Duration":136363,"SoundDuration":136363,"Delta":131740980},{"NoteNumber":83,"Velocity":59,"Duration":136363,"SoundDuration":136363,"Delta":131740980},{"NoteNumber":74,"Velocity":59,"Duration":136363,"SoundDuration":136363,"Delta":131740980},{"NoteNumber":59,"Velocity":55,"Duration":136363,"SoundDuration":136363,"Delta":131740980},{"NoteNumber":62,"Velocity":66,"Duration":136363,"SoundDuration":136363,"Delta":131740980},{"NoteNumber":88,"Velocity":71,"Duration":148514,"SoundDuration":148514,"Delta":131877344},{"NoteNumber":84,"Velocity":59,"Duration":148514,"SoundDuration":148514,"Delta":131877344},{"NoteNumber":76,"Velocity":59,"Duration":148514,"SoundDuration":148514,"Delta":131877344},{"NoteNumber":57,"Velocity":52,"Duration":148514,"SoundDuration":148514,"Delta":131877344},{"NoteNumber":60,"Velocity":63,"Duration":148514,"SoundDuration":148514,"Delta":131877344},{"NoteNumber":74,"Velocity":64,"Duration":140845,"SoundDuration":140845,"Delta":132025859},{"NoteNumber":83,"Velocity":76,"Duration":140845,"SoundDuration":140845,"Delta":132025859},{"NoteNumber":86,"Velocity":76,"Duration":140845,"SoundDuration":140845,"Delta":132025859},{"NoteNumber":59,"Velocity":48,"Duration":140845,"SoundDuration":140845,"Delta":132025859},{"NoteNumber":62,"Velocity":56,"Duration":140845,"SoundDuration":140845,"Delta":132025859},{"NoteNumber":84,"Velocity":74,"Duration":140844,"SoundDuration":140844,"Delta":132166704},{"NoteNumber":81,"Velocity":63,"Duration":140844,"SoundDuration":140844,"Delta":132166704},{"NoteNumber":72,"Velocity":63,"Duration":140844,"SoundDuration":140844,"Delta":132166704},{"NoteNumber":60,"Velocity":56,"Duration":140844,"SoundDuration":140844,"Delta":132166704},{"NoteNumber":57,"Velocity":46,"Duration":140844,"SoundDuration":140844,"Delta":132166704},{"NoteNumber":83,"Velocity":72,"Duration":140845,"SoundDuration":140845,"Delta":132307549},{"NoteNumber":80,"Velocity":60,"Duration":140845,"SoundDuration":140845,"Delta":132307549},{"NoteNumber":71,"Velocity":60,"Duration":140845,"SoundDuration":140845,"Delta":132307549},{"NoteNumber":59,"Velocity":54,"Duration":140845,"SoundDuration":140845,"Delta":132307549},{"NoteNumber":56,"Velocity":45,"Duration":140845,"SoundDuration":140845,"Delta":132307549},{"NoteNumber":69,"Velocity":59,"Duration":147058,"SoundDuration":147058,"Delta":132448394},{"NoteNumber":77,"Velocity":59,"Duration":147058,"SoundDuration":147058,"Delta":132448394},{"NoteNumber":81,"Velocity":71,"Duration":147058,"SoundDuration":147058,"Delta":132448394},{"NoteNumber":53,"Velocity":44,"Duration":147058,"SoundDuration":147058,"Delta":132448394},{"NoteNumber":57,"Velocity":51,"Duration":147058,"SoundDuration":147058,"Delta":132448394},{"NoteNumber":68,"Velocity":57,"Duration":642954,"SoundDuration":642954,"Delta":132595453},{"NoteNumber":76,"Velocity":57,"Duration":642954,"SoundDuration":642954,"Delta":132595453},{"NoteNumber":80,"Velocity":68,"Duration":642954,"SoundDuration":642954,"Delta":132595453},{"NoteNumber":52,"Velocity":40,"Duration":642954,"SoundDuration":642954,"Delta":132595453},{"NoteNumber":56,"Velocity":49,"Duration":642954,"SoundDuration":642954,"Delta":132595453},{"NoteNumber":100,"Velocity":94,"Duration":859128,"SoundDuration":859128,"Delta":133238407},{"NoteNumber":96,"Velocity":80,"Duration":859128,"SoundDuration":859128,"Delta":133238407},{"NoteNumber":88,"Velocity":80,"Duration":859128,"SoundDuration":859128,"Delta":133238407},{"NoteNumber":33,"Velocity":54,"Duration":111407,"SoundDuration":111407,"Delta":133238407},{"NoteNumber":45,"Velocity":63,"Duration":111407,"SoundDuration":111407,"Delta":133238407},{"NoteNumber":35,"Velocity":47,"Duration":108521,"SoundDuration":108521,"Delta":133386223},{"NoteNumber":47,"Velocity":56,"Duration":108521,"SoundDuration":108521,"Delta":133386223},{"NoteNumber":36,"Velocity":54,"Duration":107484,"SoundDuration":107484,"Delta":133530802},{"NoteNumber":48,"Velocity":64,"Duration":107484,"SoundDuration":107484,"Delta":133530802},{"NoteNumber":38,"Velocity":50,"Duration":106467,"SoundDuration":106467,"Delta":133674001},{"NoteNumber":50,"Velocity":59,"Duration":106467,"SoundDuration":106467,"Delta":133674001},{"NoteNumber":40,"Velocity":55,"Duration":105633,"SoundDuration":105633,"Delta":133815845},{"NoteNumber":52,"Velocity":66,"Duration":105633,"SoundDuration":105633,"Delta":133815845},{"NoteNumber":41,"Velocity":52,"Duration":105633,"SoundDuration":105633,"Delta":133956690},{"NoteNumber":53,"Velocity":61,"Duration":105633,"SoundDuration":105633,"Delta":133956690},{"NoteNumber":98,"Velocity":71,"Duration":105633,"SoundDuration":105633,"Delta":134097535},{"NoteNumber":95,"Velocity":59,"Duration":105633,"SoundDuration":105633,"Delta":134097535},{"NoteNumber":86,"Velocity":59,"Duration":105633,"SoundDuration":105633,"Delta":134097535},{"NoteNumber":44,"Velocity":50,"Duration":105633,"SoundDuration":105633,"Delta":134097535},{"NoteNumber":56,"Velocity":60,"Duration":105633,"SoundDuration":105633,"Delta":134097535},{"NoteNumber":84,"Velocity":59,"Duration":105633,"SoundDuration":105633,"Delta":134238380},{"NoteNumber":93,"Velocity":59,"Duration":105633,"SoundDuration":105633,"Delta":134238380},{"NoteNumber":96,"Velocity":71,"Duration":105633,"SoundDuration":105633,"Delta":134238380},{"NoteNumber":45,"Velocity":47,"Duration":105633,"SoundDuration":105633,"Delta":134238380},{"NoteNumber":57,"Velocity":55,"Duration":105633,"SoundDuration":105633,"Delta":134238380},{"NoteNumber":95,"Velocity":78,"Duration":101351,"SoundDuration":101351,"Delta":134379225},{"NoteNumber":92,"Velocity":78,"Duration":101351,"SoundDuration":101351,"Delta":134379225},{"NoteNumber":83,"Velocity":65,"Duration":101351,"SoundDuration":101351,"Delta":134379225},{"NoteNumber":47,"Velocity":53,"Duration":101351,"SoundDuration":101351,"Delta":134379225},{"NoteNumber":59,"Velocity":63,"Duration":101351,"SoundDuration":101351,"Delta":134379225},{"NoteNumber":81,"Velocity":59,"Duration":101351,"SoundDuration":101351,"Delta":134514361},{"NoteNumber":89,"Velocity":59,"Duration":101351,"SoundDuration":101351,"Delta":134514361},{"NoteNumber":93,"Velocity":71,"Duration":101351,"SoundDuration":101351,"Delta":134514361},{"NoteNumber":48,"Velocity":48,"Duration":101351,"SoundDuration":101351,"Delta":134514361},{"NoteNumber":60,"Velocity":56,"Duration":101351,"SoundDuration":101351,"Delta":134514361},{"NoteNumber":80,"Velocity":63,"Duration":101351,"SoundDuration":101351,"Delta":134649496},{"NoteNumber":88,"Velocity":63,"Duration":101351,"SoundDuration":101351,"Delta":134649496},{"NoteNumber":92,"Velocity":73,"Duration":101351,"SoundDuration":101351,"Delta":134649496},{"NoteNumber":50,"Velocity":53,"Duration":101351,"SoundDuration":101351,"Delta":134649496},{"NoteNumber":62,"Velocity":63,"Duration":101351,"SoundDuration":101351,"Delta":134649496},{"NoteNumber":77,"Velocity":59,"Duration":105633,"SoundDuration":105633,"Delta":134784631},{"NoteNumber":86,"Velocity":59,"Duration":105633,"SoundDuration":105633,"Delta":134784631},{"NoteNumber":89,"Velocity":71,"Duration":105633,"SoundDuration":105633,"Delta":134784631},{"NoteNumber":52,"Velocity":48,"Duration":105633,"SoundDuration":105633,"Delta":134784631},{"NoteNumber":64,"Velocity":56,"Duration":105633,"SoundDuration":105633,"Delta":134784631},{"NoteNumber":88,"Velocity":73,"Duration":102272,"SoundDuration":102272,"Delta":134925476},{"NoteNumber":84,"Velocity":63,"Duration":102272,"SoundDuration":102272,"Delta":134925476},{"NoteNumber":76,"Velocity":63,"Duration":102272,"SoundDuration":102272,"Delta":134925476},{"NoteNumber":53,"Velocity":53,"Duration":102272,"SoundDuration":102272,"Delta":134925476},{"NoteNumber":65,"Velocity":63,"Duration":102272,"SoundDuration":102272,"Delta":134925476},{"NoteNumber":86,"Velocity":72,"Duration":102272,"SoundDuration":102272,"Delta":135061840},{"NoteNumber":83,"Velocity":62,"Duration":102272,"SoundDuration":102272,"Delta":135061840},{"NoteNumber":74,"Velocity":62,"Duration":102272,"SoundDuration":102272,"Delta":135061840},{"NoteNumber":56,"Velocity":53,"Duration":102272,"SoundDuration":102272,"Delta":135061840},{"NoteNumber":68,"Velocity":63,"Duration":102272,"SoundDuration":102272,"Delta":135061840},{"NoteNumber":84,"Velocity":74,"Duration":102272,"SoundDuration":102272,"Delta":135198204},{"NoteNumber":81,"Velocity":63,"Duration":102272,"SoundDuration":102272,"Delta":135198204},{"NoteNumber":72,"Velocity":63,"Duration":102272,"SoundDuration":102272,"Delta":135198204},{"NoteNumber":57,"Velocity":53,"Duration":102272,"SoundDuration":102272,"Delta":135198204},{"NoteNumber":69,"Velocity":63,"Duration":102272,"SoundDuration":102272,"Delta":135198204},{"NoteNumber":83,"Velocity":73,"Duration":110294,"SoundDuration":110294,"Delta":135334567},{"NoteNumber":80,"Velocity":63,"Duration":110294,"SoundDuration":110294,"Delta":135334567},{"NoteNumber":59,"Velocity":48,"Duration":110294,"SoundDuration":110294,"Delta":135334567},{"NoteNumber":71,"Velocity":57,"Duration":110294,"SoundDuration":110294,"Delta":135334567},{"NoteNumber":84,"Velocity":72,"Duration":841604,"SoundDuration":841604,"Delta":135481626},{"NoteNumber":81,"Velocity":62,"Duration":841604,"SoundDuration":841604,"Delta":135481626},{"NoteNumber":72,"Velocity":62,"Duration":841604,"SoundDuration":841604,"Delta":135481626},{"NoteNumber":69,"Velocity":63,"Duration":102275,"SoundDuration":102275,"Delta":135481626},{"NoteNumber":57,"Velocity":53,"Duration":102275,"SoundDuration":102275,"Delta":135481626},{"NoteNumber":56,"Velocity":49,"Duration":104653,"SoundDuration":104653,"Delta":135618411},{"NoteNumber":68,"Velocity":59,"Duration":104653,"SoundDuration":104653,"Delta":135618411},{"NoteNumber":53,"Velocity":51,"Duration":108472,"SoundDuration":108472,"Delta":135758386},{"NoteNumber":65,"Velocity":62,"Duration":108472,"SoundDuration":108472,"Delta":135758386},{"NoteNumber":52,"Velocity":54,"Duration":110294,"SoundDuration":110294,"Delta":135903445},{"NoteNumber":64,"Velocity":63,"Duration":110294,"SoundDuration":110294,"Delta":135903445},{"NoteNumber":53,"Velocity":55,"Duration":102272,"SoundDuration":102272,"Delta":136050503},{"NoteNumber":65,"Velocity":65,"Duration":102272,"SoundDuration":102272,"Delta":136050503},{"NoteNumber":52,"Velocity":54,"Duration":102272,"SoundDuration":102272,"Delta":136186867},{"NoteNumber":64,"Velocity":64,"Duration":102272,"SoundDuration":102272,"Delta":136186867},{"NoteNumber":86,"Velocity":71,"Duration":136363,"SoundDuration":136363,"Delta":136323231},{"NoteNumber":83,"Velocity":59,"Duration":136363,"SoundDuration":136363,"Delta":136323231},{"NoteNumber":74,"Velocity":59,"Duration":136363,"SoundDuration":136363,"Delta":136323231},{"NoteNumber":50,"Velocity":53,"Duration":136363,"SoundDuration":136363,"Delta":136323231},{"NoteNumber":62,"Velocity":63,"Duration":136363,"SoundDuration":136363,"Delta":136323231},{"NoteNumber":88,"Velocity":71,"Duration":148514,"SoundDuration":148514,"Delta":136459595},{"NoteNumber":84,"Velocity":59,"Duration":148514,"SoundDuration":148514,"Delta":136459595},{"NoteNumber":76,"Velocity":59,"Duration":148514,"SoundDuration":148514,"Delta":136459595},{"NoteNumber":60,"Velocity":62,"Duration":148514,"SoundDuration":148514,"Delta":136459595},{"NoteNumber":48,"Velocity":51,"Duration":148514,"SoundDuration":148514,"Delta":136459595},{"NoteNumber":74,"Velocity":64,"Duration":140845,"SoundDuration":140845,"Delta":136608109},{"NoteNumber":86,"Velocity":76,"Duration":140845,"SoundDuration":140845,"Delta":136608109},{"NoteNumber":59,"Velocity":56,"Duration":140845,"SoundDuration":140845,"Delta":136608109},{"NoteNumber":47,"Velocity":48,"Duration":140845,"SoundDuration":140845,"Delta":136608109},{"NoteNumber":84,"Velocity":74,"Duration":140844,"SoundDuration":140844,"Delta":136748954},{"NoteNumber":72,"Velocity":63,"Duration":140844,"SoundDuration":140844,"Delta":136748954},{"NoteNumber":45,"Velocity":46,"Duration":140844,"SoundDuration":140844,"Delta":136748954},{"NoteNumber":57,"Velocity":56,"Duration":140844,"SoundDuration":140844,"Delta":136748954},{"NoteNumber":83,"Velocity":72,"Duration":140845,"SoundDuration":140845,"Delta":136889799},{"NoteNumber":71,"Velocity":60,"Duration":140845,"SoundDuration":140845,"Delta":136889799},{"NoteNumber":44,"Velocity":45,"Duration":140845,"SoundDuration":140845,"Delta":136889799},{"NoteNumber":56,"Velocity":54,"Duration":140845,"SoundDuration":140845,"Delta":136889799},{"NoteNumber":69,"Velocity":59,"Duration":147058,"SoundDuration":147058,"Delta":137030644},{"NoteNumber":81,"Velocity":71,"Duration":147058,"SoundDuration":147058,"Delta":137030644},{"NoteNumber":65,"Velocity":51,"Duration":147058,"SoundDuration":147058,"Delta":137030644},{"NoteNumber":53,"Velocity":44,"Duration":147058,"SoundDuration":147058,"Delta":137030644},{"NoteNumber":68,"Velocity":57,"Duration":588234,"SoundDuration":588234,"Delta":137177703},{"NoteNumber":80,"Velocity":68,"Duration":588234,"SoundDuration":588234,"Delta":137177703},{"NoteNumber":64,"Velocity":49,"Duration":588234,"SoundDuration":588234,"Delta":137177703},{"NoteNumber":52,"Velocity":40,"Duration":588234,"SoundDuration":588234,"Delta":137177703},{"NoteNumber":85,"Velocity":94,"Duration":718684,"SoundDuration":718684,"Delta":137765938},{"NoteNumber":76,"Velocity":80,"Duration":577839,"SoundDuration":577839,"Delta":137765938},{"NoteNumber":73,"Velocity":80,"Duration":718684,"SoundDuration":718684,"Delta":137765938},{"NoteNumber":70,"Velocity":73,"Duration":119680,"SoundDuration":119680,"Delta":137765938},{"NoteNumber":58,"Velocity":62,"Duration":119680,"SoundDuration":119680,"Delta":137765938},{"NoteNumber":69,"Velocity":67,"Duration":106804,"SoundDuration":106804,"Delta":137922726},{"NoteNumber":57,"Velocity":56,"Duration":106804,"SoundDuration":106804,"Delta":137922726},{"NoteNumber":55,"Velocity":55,"Duration":105359,"SoundDuration":105359,"Delta":138064909},{"NoteNumber":67,"Velocity":66,"Duration":105359,"SoundDuration":105359,"Delta":138064909},{"NoteNumber":52,"Velocity":55,"Duration":104114,"SoundDuration":104114,"Delta":138205206},{"NoteNumber":64,"Velocity":66,"Duration":104114,"SoundDuration":104114,"Delta":138205206},{"NoteNumber":81,"Velocity":90,"Duration":140845,"SoundDuration":140845,"Delta":138343777},{"NoteNumber":49,"Velocity":54,"Duration":105633,"SoundDuration":105633,"Delta":138343777},{"NoteNumber":61,"Velocity":65,"Duration":105633,"SoundDuration":105633,"Delta":138343777},{"NoteNumber":46,"Velocity":54,"Duration":105633,"SoundDuration":105633,"Delta":138484622},{"NoteNumber":58,"Velocity":64,"Duration":105633,"SoundDuration":105633,"Delta":138484622},{"NoteNumber":86,"Velocity":79,"Duration":105633,"SoundDuration":105633,"Delta":138625467},{"NoteNumber":83,"Velocity":55,"Duration":105633,"SoundDuration":105633,"Delta":138625467},{"NoteNumber":74,"Velocity":55,"Duration":105633,"SoundDuration":105633,"Delta":138625467},{"NoteNumber":45,"Velocity":54,"Duration":281689,"SoundDuration":281689,"Delta":138625467},{"NoteNumber":57,"Velocity":63,"Duration":105633,"SoundDuration":105633,"Delta":138625467},{"NoteNumber":76,"Velocity":66,"Duration":105633,"SoundDuration":105633,"Delta":138766312},{"NoteNumber":85,"Velocity":66,"Duration":105633,"SoundDuration":105633,"Delta":138766312},{"NoteNumber":88,"Velocity":79,"Duration":105633,"SoundDuration":105633,"Delta":138766312},{"NoteNumber":55,"Velocity":63,"Duration":105633,"SoundDuration":105633,"Delta":138766312},{"NoteNumber":89,"Velocity":81,"Duration":101351,"SoundDuration":101351,"Delta":138907157},{"NoteNumber":86,"Velocity":67,"Duration":101351,"SoundDuration":101351,"Delta":138907157},{"NoteNumber":77,"Velocity":67,"Duration":101351,"SoundDuration":101351,"Delta":138907157},{"NoteNumber":50,"Velocity":53,"Duration":101351,"SoundDuration":101351,"Delta":138907157},{"NoteNumber":53,"Velocity":63,"Duration":101351,"SoundDuration":101351,"Delta":138907157},{"NoteNumber":79,"Velocity":71,"Duration":101351,"SoundDuration":101351,"Delta":139042292},{"NoteNumber":88,"Velocity":71,"Duration":101351,"SoundDuration":101351,"Delta":139042292},{"NoteNumber":91,"Velocity":83,"Duration":101351,"SoundDuration":101351,"Delta":139042292},{"NoteNumber":49,"Velocity":54,"Duration":101351,"SoundDuration":101351,"Delta":139042292},{"NoteNumber":52,"Velocity":64,"Duration":101351,"SoundDuration":101351,"Delta":139042292},{"NoteNumber":81,"Velocity":73,"Duration":101351,"SoundDuration":101351,"Delta":139177428},{"NoteNumber":89,"Velocity":73,"Duration":101351,"SoundDuration":101351,"Delta":139177428},{"NoteNumber":93,"Velocity":86,"Duration":101351,"SoundDuration":101351,"Delta":139177428},{"NoteNumber":47,"Velocity":56,"Duration":101351,"SoundDuration":101351,"Delta":139177428},{"NoteNumber":50,"Velocity":65,"Duration":101351,"SoundDuration":101351,"Delta":139177428},{"NoteNumber":83,"Velocity":75,"Duration":105633,"SoundDuration":105633,"Delta":139312563},{"NoteNumber":91,"Velocity":75,"Duration":105633,"SoundDuration":105633,"Delta":139312563},{"NoteNumber":95,"Velocity":87,"Duration":105633,"SoundDuration":105633,"Delta":139312563},{"NoteNumber":45,"Velocity":56,"Duration":105633,"SoundDuration":105633,"Delta":139312563},{"NoteNumber":49,"Velocity":68,"Duration":105633,"SoundDuration":105633,"Delta":139312563},{"NoteNumber":97,"Velocity":91,"Duration":99566,"SoundDuration":99566,"Delta":139453408},{"NoteNumber":93,"Velocity":76,"Duration":99566,"SoundDuration":99566,"Delta":139453408},{"NoteNumber":85,"Velocity":76,"Duration":99566,"SoundDuration":99566,"Delta":139453408},{"NoteNumber":43,"Velocity":58,"Duration":99566,"SoundDuration":99566,"Delta":139453408},{"NoteNumber":47,"Velocity":69,"Duration":99566,"SoundDuration":99566,"Delta":139453408},{"NoteNumber":98,"Velocity":93,"Duration":99566,"SoundDuration":99566,"Delta":139586163},{"NoteNumber":95,"Velocity":78,"Duration":99566,"SoundDuration":99566,"Delta":139586163},{"NoteNumber":86,"Velocity":78,"Duration":99566,"SoundDuration":99566,"Delta":139586163},{"NoteNumber":41,"Velocity":59,"Duration":99566,"SoundDuration":99566,"Delta":139586163},{"NoteNumber":45,"Velocity":71,"Duration":99566,"SoundDuration":99566,"Delta":139586163},{"NoteNumber":100,"Velocity":97,"Duration":99566,"SoundDuration":99566,"Delta":139718918},{"NoteNumber":97,"Velocity":81,"Duration":99566,"SoundDuration":99566,"Delta":139718918},{"NoteNumber":88,"Velocity":81,"Duration":99566,"SoundDuration":99566,"Delta":139718918},{"NoteNumber":40,"Velocity":63,"Duration":99566,"SoundDuration":99566,"Delta":139718918},{"NoteNumber":43,"Velocity":75,"Duration":99566,"SoundDuration":99566,"Delta":139718918},{"NoteNumber":98,"Velocity":83,"Duration":130829,"SoundDuration":130829,"Delta":139851673},{"NoteNumber":101,"Velocity":99,"Duration":130829,"SoundDuration":130829,"Delta":139851673},{"NoteNumber":89,"Velocity":83,"Duration":130829,"SoundDuration":130829,"Delta":139851673},{"NoteNumber":38,"Velocity":65,"Duration":130829,"SoundDuration":130829,"Delta":139851673},{"NoteNumber":41,"Velocity":77,"Duration":130829,"SoundDuration":130829,"Delta":139851673},{"NoteNumber":83,"Velocity":94,"Duration":718684,"SoundDuration":718684,"Delta":140026112},{"NoteNumber":74,"Velocity":80,"Duration":577839,"SoundDuration":577839,"Delta":140026112},{"NoteNumber":71,"Velocity":80,"Duration":718684,"SoundDuration":718684,"Delta":140026112},{"NoteNumber":56,"Velocity":62,"Duration":119680,"SoundDuration":119680,"Delta":140026112},{"NoteNumber":68,"Velocity":73,"Duration":119680,"SoundDuration":119680,"Delta":140026112},{"NoteNumber":55,"Velocity":56,"Duration":106804,"SoundDuration":106804,"Delta":140182900},{"NoteNumber":67,"Velocity":67,"Duration":106804,"SoundDuration":106804,"Delta":140182900},{"NoteNumber":53,"Velocity":55,"Duration":105359,"SoundDuration":105359,"Delta":140325082},{"NoteNumber":65,"Velocity":66,"Duration":105359,"SoundDuration":105359,"Delta":140325082},{"NoteNumber":50,"Velocity":55,"Duration":104114,"SoundDuration":104114,"Delta":140465380},{"NoteNumber":62,"Velocity":66,"Duration":104114,"SoundDuration":104114,"Delta":140465380},{"NoteNumber":79,"Velocity":90,"Duration":140845,"SoundDuration":140845,"Delta":140603951},{"NoteNumber":47,"Velocity":54,"Duration":105633,"SoundDuration":105633,"Delta":140603951},{"NoteNumber":59,"Velocity":65,"Duration":105633,"SoundDuration":105633,"Delta":140603951},{"NoteNumber":44,"Velocity":54,"Duration":105633,"SoundDuration":105633,"Delta":140744796},{"NoteNumber":56,"Velocity":64,"Duration":105633,"SoundDuration":105633,"Delta":140744796},{"NoteNumber":84,"Velocity":79,"Duration":105633,"SoundDuration":105633,"Delta":140885641},{"NoteNumber":81,"Velocity":55,"Duration":105633,"SoundDuration":105633,"Delta":140885641},{"NoteNumber":72,"Velocity":55,"Duration":105633,"SoundDuration":105633,"Delta":140885641},{"NoteNumber":43,"Velocity":54,"Duration":281689,"SoundDuration":281689,"Delta":140885641},{"NoteNumber":55,"Velocity":63,"Duration":105633,"SoundDuration":105633,"Delta":140885641},{"NoteNumber":74,"Velocity":66,"Duration":105633,"SoundDuration":105633,"Delta":141026486},{"NoteNumber":83,"Velocity":66,"Duration":105633,"SoundDuration":105633,"Delta":141026486},{"NoteNumber":86,"Velocity":79,"Duration":105633,"SoundDuration":105633,"Delta":141026486},{"NoteNumber":53,"Velocity":63,"Duration":105633,"SoundDuration":105633,"Delta":141026486},{"NoteNumber":88,"Velocity":81,"Duration":101351,"SoundDuration":101351,"Delta":141167331},{"NoteNumber":84,"Velocity":67,"Duration":101351,"SoundDuration":101351,"Delta":141167331},{"NoteNumber":76,"Velocity":67,"Duration":101351,"SoundDuration":101351,"Delta":141167331},{"NoteNumber":48,"Velocity":53,"Duration":101351,"SoundDuration":101351,"Delta":141167331},{"NoteNumber":52,"Velocity":63,"Duration":101351,"SoundDuration":101351,"Delta":141167331},{"NoteNumber":77,"Velocity":71,"Duration":101351,"SoundDuration":101351,"Delta":141302466},{"NoteNumber":86,"Velocity":71,"Duration":101351,"SoundDuration":101351,"Delta":141302466},{"NoteNumber":89,"Velocity":83,"Duration":101351,"SoundDuration":101351,"Delta":141302466},{"NoteNumber":47,"Velocity":54,"Duration":101351,"SoundDuration":101351,"Delta":141302466},{"NoteNumber":50,"Velocity":64,"Duration":101351,"SoundDuration":101351,"Delta":141302466},{"NoteNumber":79,"Velocity":73,"Duration":101351,"SoundDuration":101351,"Delta":141437601},{"NoteNumber":88,"Velocity":73,"Duration":101351,"SoundDuration":101351,"Delta":141437601},{"NoteNumber":91,"Velocity":86,"Duration":101351,"SoundDuration":101351,"Delta":141437601},{"NoteNumber":45,"Velocity":56,"Duration":101351,"SoundDuration":101351,"Delta":141437601},{"NoteNumber":48,"Velocity":65,"Duration":101351,"SoundDuration":101351,"Delta":141437601},{"NoteNumber":81,"Velocity":75,"Duration":105633,"SoundDuration":105633,"Delta":141572737},{"NoteNumber":89,"Velocity":75,"Duration":105633,"SoundDuration":105633,"Delta":141572737},{"NoteNumber":93,"Velocity":87,"Duration":105633,"SoundDuration":105633,"Delta":141572737},{"NoteNumber":43,"Velocity":56,"Duration":105633,"SoundDuration":105633,"Delta":141572737},{"NoteNumber":47,"Velocity":68,"Duration":105633,"SoundDuration":105633,"Delta":141572737},{"NoteNumber":95,"Velocity":91,"Duration":102272,"SoundDuration":102272,"Delta":141713582},{"NoteNumber":91,"Velocity":76,"Duration":102272,"SoundDuration":102272,"Delta":141713582},{"NoteNumber":83,"Velocity":76,"Duration":102272,"SoundDuration":102272,"Delta":141713582},{"NoteNumber":45,"Velocity":69,"Duration":102272,"SoundDuration":102272,"Delta":141713582},{"NoteNumber":41,"Velocity":58,"Duration":102272,"SoundDuration":102272,"Delta":141713582},{"NoteNumber":96,"Velocity":93,"Duration":102272,"SoundDuration":102272,"Delta":141849945},{"NoteNumber":93,"Velocity":78,"Duration":102272,"SoundDuration":102272,"Delta":141849945},{"NoteNumber":84,"Velocity":78,"Duration":102272,"SoundDuration":102272,"Delta":141849945},{"NoteNumber":43,"Velocity":71,"Duration":102272,"SoundDuration":102272,"Delta":141849945},{"NoteNumber":40,"Velocity":59,"Duration":102272,"SoundDuration":102272,"Delta":141849945},{"NoteNumber":98,"Velocity":97,"Duration":97834,"SoundDuration":97834,"Delta":141986309},{"NoteNumber":95,"Velocity":81,"Duration":97834,"SoundDuration":97834,"Delta":141986309},{"NoteNumber":86,"Velocity":81,"Duration":97834,"SoundDuration":97834,"Delta":141986309},{"NoteNumber":41,"Velocity":75,"Duration":97834,"SoundDuration":97834,"Delta":141986309},{"NoteNumber":38,"Velocity":63,"Duration":97834,"SoundDuration":97834,"Delta":141986309},{"NoteNumber":96,"Velocity":83,"Duration":123639,"SoundDuration":123639,"Delta":142116755},{"NoteNumber":100,"Velocity":99,"Duration":123639,"SoundDuration":123639,"Delta":142116755},{"NoteNumber":88,"Velocity":83,"Duration":123639,"SoundDuration":123639,"Delta":142116755},{"NoteNumber":40,"Velocity":77,"Duration":123639,"SoundDuration":123639,"Delta":142116755},{"NoteNumber":36,"Velocity":65,"Duration":123639,"SoundDuration":123639,"Delta":142116755},{"NoteNumber":89,"Velocity":79,"Duration":139751,"SoundDuration":139751,"Delta":142281609},{"NoteNumber":95,"Velocity":79,"Duration":139751,"SoundDuration":139751,"Delta":142281609},{"NoteNumber":92,"Velocity":79,"Duration":139751,"SoundDuration":139751,"Delta":142281609},{"NoteNumber":101,"Velocity":93,"Duration":139751,"SoundDuration":139751,"Delta":142281609},{"NoteNumber":44,"Velocity":63,"Duration":139751,"SoundDuration":139751,"Delta":142281609},{"NoteNumber":47,"Velocity":63,"Duration":139751,"SoundDuration":139751,"Delta":142281609},{"NoteNumber":50,"Velocity":74,"Duration":139751,"SoundDuration":139751,"Delta":142281609},{"NoteNumber":38,"Velocity":63,"Duration":139751,"SoundDuration":139751,"Delta":142281609},{"NoteNumber":86,"Velocity":75,"Duration":99999,"SoundDuration":99999,"Delta":142467944},{"NoteNumber":98,"Velocity":90,"Duration":99999,"SoundDuration":99999,"Delta":142467944},{"NoteNumber":53,"Velocity":66,"Duration":99999,"SoundDuration":99999,"Delta":142467944},{"NoteNumber":41,"Velocity":55,"Duration":99999,"SoundDuration":99999,"Delta":142467944},{"NoteNumber":83,"Velocity":72,"Duration":101351,"SoundDuration":101351,"Delta":142601277},{"NoteNumber":95,"Velocity":86,"Duration":101351,"SoundDuration":101351,"Delta":142601277},{"NoteNumber":44,"Velocity":55,"Duration":101351,"SoundDuration":101351,"Delta":142601277},{"NoteNumber":56,"Velocity":66,"Duration":101351,"SoundDuration":101351,"Delta":142601277},{"NoteNumber":80,"Velocity":72,"Duration":101351,"SoundDuration":101351,"Delta":142736413},{"NoteNumber":92,"Velocity":86,"Duration":101351,"SoundDuration":101351,"Delta":142736413},{"NoteNumber":47,"Velocity":55,"Duration":101351,"SoundDuration":101351,"Delta":142736413},{"NoteNumber":59,"Velocity":66,"Duration":101351,"SoundDuration":101351,"Delta":142736413},{"NoteNumber":77,"Velocity":71,"Duration":106635,"SoundDuration":106635,"Delta":142871548},{"NoteNumber":80,"Velocity":71,"Duration":106635,"SoundDuration":106635,"Delta":142871548},{"NoteNumber":83,"Velocity":71,"Duration":106635,"SoundDuration":106635,"Delta":142871548},{"NoteNumber":89,"Velocity":83,"Duration":106635,"SoundDuration":106635,"Delta":142871548},{"NoteNumber":59,"Velocity":60,"Duration":106635,"SoundDuration":106635,"Delta":142871548},{"NoteNumber":62,"Velocity":71,"Duration":106635,"SoundDuration":106635,"Delta":142871548},{"NoteNumber":50,"Velocity":60,"Duration":106635,"SoundDuration":106635,"Delta":142871548},{"NoteNumber":56,"Velocity":60,"Duration":106635,"SoundDuration":106635,"Delta":142871548},{"NoteNumber":75,"Velocity":65,"Duration":106635,"SoundDuration":106635,"Delta":143013728},{"NoteNumber":87,"Velocity":77,"Duration":106635,"SoundDuration":106635,"Delta":143013728},{"NoteNumber":63,"Velocity":62,"Duration":106635,"SoundDuration":106635,"Delta":143013728},{"NoteNumber":51,"Velocity":52,"Duration":106635,"SoundDuration":106635,"Delta":143013728},{"NoteNumber":76,"Velocity":70,"Duration":108695,"SoundDuration":108695,"Delta":143155908},{"NoteNumber":88,"Velocity":82,"Duration":108695,"SoundDuration":108695,"Delta":143155908},{"NoteNumber":52,"Velocity":54,"Duration":108695,"SoundDuration":108695,"Delta":143155908},{"NoteNumber":64,"Velocity":65,"Duration":108695,"SoundDuration":108695,"Delta":143155908},{"NoteNumber":74,"Velocity":74,"Duration":112500,"SoundDuration":112500,"Delta":143300835},{"NoteNumber":86,"Velocity":89,"Duration":112500,"SoundDuration":112500,"Delta":143300835},{"NoteNumber":65,"Velocity":70,"Duration":112500,"SoundDuration":112500,"Delta":143300835},{"NoteNumber":53,"Velocity":59,"Duration":112500,"SoundDuration":112500,"Delta":143300835},{"NoteNumber":84,"Velocity":79,"Duration":138036,"SoundDuration":138036,"Delta":143450835},{"NoteNumber":90,"Velocity":79,"Duration":138036,"SoundDuration":138036,"Delta":143450835},{"NoteNumber":87,"Velocity":79,"Duration":138036,"SoundDuration":138036,"Delta":143450835},{"NoteNumber":96,"Velocity":93,"Duration":138036,"SoundDuration":138036,"Delta":143450835},{"NoteNumber":33,"Velocity":63,"Duration":138036,"SoundDuration":138036,"Delta":143450835},{"NoteNumber":45,"Velocity":74,"Duration":138036,"SoundDuration":138036,"Delta":143450835},{"NoteNumber":42,"Velocity":63,"Duration":138036,"SoundDuration":138036,"Delta":143450835},{"NoteNumber":39,"Velocity":63,"Duration":138036,"SoundDuration":138036,"Delta":143450835},{"NoteNumber":81,"Velocity":75,"Duration":100446,"SoundDuration":100446,"Delta":143634884},{"NoteNumber":93,"Velocity":90,"Duration":100446,"SoundDuration":100446,"Delta":143634884},{"NoteNumber":36,"Velocity":55,"Duration":100446,"SoundDuration":100446,"Delta":143634884},{"NoteNumber":48,"Velocity":66,"Duration":100446,"SoundDuration":100446,"Delta":143634884},{"NoteNumber":78,"Velocity":72,"Duration":101809,"SoundDuration":101809,"Delta":143768813},{"NoteNumber":90,"Velocity":86,"Duration":101809,"SoundDuration":101809,"Delta":143768813},{"NoteNumber":39,"Velocity":55,"Duration":101809,"SoundDuration":101809,"Delta":143768813},{"NoteNumber":51,"Velocity":66,"Duration":101809,"SoundDuration":101809,"Delta":143768813},{"NoteNumber":75,"Velocity":72,"Duration":101809,"SoundDuration":101809,"Delta":143904559},{"NoteNumber":87,"Velocity":86,"Duration":101809,"SoundDuration":101809,"Delta":143904559},{"NoteNumber":42,"Velocity":55,"Duration":101809,"SoundDuration":101809,"Delta":143904559},{"NoteNumber":54,"Velocity":66,"Duration":101809,"SoundDuration":101809,"Delta":143904559},{"NoteNumber":72,"Velocity":71,"Duration":106589,"SoundDuration":106589,"Delta":144040306},{"NoteNumber":75,"Velocity":71,"Duration":106589,"SoundDuration":106589,"Delta":144040306},{"NoteNumber":78,"Velocity":71,"Duration":106589,"SoundDuration":106589,"Delta":144040306},{"NoteNumber":84,"Velocity":83,"Duration":106589,"SoundDuration":106589,"Delta":144040306},{"NoteNumber":54,"Velocity":60,"Duration":106589,"SoundDuration":106589,"Delta":144040306},{"NoteNumber":57,"Velocity":71,"Duration":106589,"SoundDuration":106589,"Delta":144040306},{"NoteNumber":45,"Velocity":60,"Duration":106589,"SoundDuration":106589,"Delta":144040306},{"NoteNumber":51,"Velocity":60,"Duration":106589,"SoundDuration":106589,"Delta":144040306},{"NoteNumber":70,"Velocity":65,"Duration":108695,"SoundDuration":108695,"Delta":144182610},{"NoteNumber":82,"Velocity":77,"Duration":108695,"SoundDuration":108695,"Delta":144182610},{"NoteNumber":58,"Velocity":62,"Duration":108695,"SoundDuration":108695,"Delta":144182610},{"NoteNumber":46,"Velocity":52,"Duration":108695,"SoundDuration":108695,"Delta":144182610},{"NoteNumber":71,"Velocity":70,"Duration":108695,"SoundDuration":108695,"Delta":144327537},{"NoteNumber":83,"Velocity":82,"Duration":108695,"SoundDuration":108695,"Delta":144327537},{"NoteNumber":47,"Velocity":54,"Duration":108695,"SoundDuration":108695,"Delta":144327537},{"NoteNumber":59,"Velocity":65,"Duration":108695,"SoundDuration":108695,"Delta":144327537},{"NoteNumber":69,"Velocity":74,"Duration":112500,"SoundDuration":112500,"Delta":144472465},{"NoteNumber":81,"Velocity":89,"Duration":112500,"SoundDuration":112500,"Delta":144472465},{"NoteNumber":60,"Velocity":70,"Duration":112500,"SoundDuration":112500,"Delta":144472465},{"NoteNumber":48,"Velocity":59,"Duration":112500,"SoundDuration":112500,"Delta":144472465},{"NoteNumber":65,"Velocity":66,"Duration":108173,"SoundDuration":108173,"Delta":144622465},{"NoteNumber":71,"Velocity":66,"Duration":108173,"SoundDuration":108173,"Delta":144622465},{"NoteNumber":69,"Velocity":66,"Duration":108173,"SoundDuration":108173,"Delta":144622465},{"NoteNumber":77,"Velocity":79,"Duration":108173,"SoundDuration":108173,"Delta":144622465},{"NoteNumber":50,"Velocity":55,"Duration":108173,"SoundDuration":108173,"Delta":144622465},{"NoteNumber":57,"Velocity":55,"Duration":108173,"SoundDuration":108173,"Delta":144622465},{"NoteNumber":59,"Velocity":66,"Duration":108173,"SoundDuration":108173,"Delta":144622465},{"NoteNumber":63,"Velocity":63,"Duration":102739,"SoundDuration":102739,"Delta":144766695},{"NoteNumber":75,"Velocity":75,"Duration":102739,"SoundDuration":102739,"Delta":144766695},{"NoteNumber":51,"Velocity":60,"Duration":102739,"SoundDuration":102739,"Delta":144766695},{"NoteNumber":64,"Velocity":61,"Duration":102739,"SoundDuration":102739,"Delta":144903682},{"NoteNumber":76,"Velocity":72,"Duration":102739,"SoundDuration":102739,"Delta":144903682},{"NoteNumber":52,"Velocity":60,"Duration":102739,"SoundDuration":102739,"Delta":144903682},{"NoteNumber":62,"Velocity":61,"Duration":109756,"SoundDuration":109756,"Delta":145040668},{"NoteNumber":74,"Velocity":72,"Duration":109756,"SoundDuration":109756,"Delta":145040668},{"NoteNumber":53,"Velocity":60,"Duration":109756,"SoundDuration":109756,"Delta":145040668},{"NoteNumber":61,"Velocity":60,"Duration":106635,"SoundDuration":106635,"Delta":145187009},{"NoteNumber":73,"Velocity":71,"Duration":106635,"SoundDuration":106635,"Delta":145187009},{"NoteNumber":52,"Velocity":60,"Duration":289238,"SoundDuration":289238,"Delta":145187009},{"NoteNumber":56,"Velocity":60,"Duration":289238,"SoundDuration":289238,"Delta":145187009},{"NoteNumber":64,"Velocity":71,"Duration":289238,"SoundDuration":289238,"Delta":145187009},{"NoteNumber":59,"Velocity":54,"Duration":110294,"SoundDuration":110294,"Delta":145329189},{"NoteNumber":71,"Velocity":65,"Duration":110294,"SoundDuration":110294,"Delta":145329189},{"NoteNumber":60,"Velocity":59,"Duration":123639,"SoundDuration":123639,"Delta":145476248},{"NoteNumber":72,"Velocity":70,"Duration":123639,"SoundDuration":123639,"Delta":145476248},{"NoteNumber":62,"Velocity":65,"Duration":347802,"SoundDuration":347802,"Delta":145476248},{"NoteNumber":56,"Velocity":54,"Duration":347802,"SoundDuration":347802,"Delta":145476248},{"NoteNumber":52,"Velocity":54,"Duration":347802,"SoundDuration":347802,"Delta":145476248},{"NoteNumber":59,"Velocity":63,"Duration":137211,"SoundDuration":137211,"Delta":145641101},{"NoteNumber":71,"Velocity":74,"Duration":137211,"SoundDuration":137211,"Delta":145641101},{"NoteNumber":62,"Velocity":63,"Duration":845189,"SoundDuration":845189,"Delta":145824051},{"NoteNumber":65,"Velocity":63,"Duration":845189,"SoundDuration":845189,"Delta":145824051},{"NoteNumber":57,"Velocity":63,"Duration":1451249,"SoundDuration":1451249,"Delta":145824051},{"NoteNumber":69,"Velocity":75,"Duration":1451249,"SoundDuration":1451249,"Delta":145824051},{"NoteNumber":45,"Velocity":54,"Duration":1451249,"SoundDuration":1451249,"Delta":145824051},{"NoteNumber":50,"Velocity":54,"Duration":845189,"SoundDuration":845189,"Delta":145824051},{"NoteNumber":53,"Velocity":65,"Duration":845189,"SoundDuration":845189,"Delta":145824051},{"NoteNumber":60,"Velocity":44,"Duration":606060,"SoundDuration":606060,"Delta":146669240},{"NoteNumber":64,"Velocity":52,"Duration":606060,"SoundDuration":606060,"Delta":146669240},{"NoteNumber":48,"Velocity":37,"Duration":606060,"SoundDuration":606060,"Delta":146669240},{"NoteNumber":52,"Velocity":44,"Duration":606060,"SoundDuration":606060,"Delta":146669240},{"NoteNumber":88,"Velocity":52,"Duration":192307,"SoundDuration":192307,"Delta":147881361},{"NoteNumber":64,"Velocity":44,"Duration":192307,"SoundDuration":192307,"Delta":147881361},{"NoteNumber":89,"Velocity":45,"Duration":151515,"SoundDuration":151515,"Delta":148073668},{"NoteNumber":65,"Velocity":37,"Duration":151515,"SoundDuration":151515,"Delta":148073668},{"NoteNumber":88,"Velocity":45,"Duration":151515,"SoundDuration":151515,"Delta":148225183},{"NoteNumber":64,"Velocity":37,"Duration":151515,"SoundDuration":151515,"Delta":148225183},{"NoteNumber":84,"Velocity":49,"Duration":1051274,"SoundDuration":1051274,"Delta":148376699},{"NoteNumber":60,"Velocity":41,"Duration":1051274,"SoundDuration":1051274,"Delta":148376699},{"NoteNumber":72,"Velocity":33,"Duration":234375,"SoundDuration":234375,"Delta":148959223},{"NoteNumber":76,"Velocity":33,"Duration":234375,"SoundDuration":234375,"Delta":148959223},{"NoteNumber":45,"Velocity":27,"Duration":234375,"SoundDuration":234375,"Delta":148959223},{"NoteNumber":52,"Velocity":27,"Duration":234375,"SoundDuration":234375,"Delta":148959223},{"NoteNumber":81,"Velocity":48,"Duration":168595,"SoundDuration":168595,"Delta":149427973},{"NoteNumber":57,"Velocity":40,"Duration":168595,"SoundDuration":168595,"Delta":149427973},{"NoteNumber":83,"Velocity":45,"Duration":143312,"SoundDuration":143312,"Delta":149580645},{"NoteNumber":59,"Velocity":37,"Duration":143312,"SoundDuration":143312,"Delta":149580645},{"NoteNumber":81,"Velocity":45,"Duration":142916,"SoundDuration":142916,"Delta":149708033},{"NoteNumber":57,"Velocity":37,"Duration":142916,"SoundDuration":142916,"Delta":149708033},{"NoteNumber":83,"Velocity":47,"Duration":139751,"SoundDuration":139751,"Delta":149835422},{"NoteNumber":59,"Velocity":40,"Duration":139751,"SoundDuration":139751,"Delta":149835422},{"NoteNumber":84,"Velocity":45,"Duration":139751,"SoundDuration":139751,"Delta":149959646},{"NoteNumber":60,"Velocity":37,"Duration":139751,"SoundDuration":139751,"Delta":149959646},{"NoteNumber":83,"Velocity":45,"Duration":139751,"SoundDuration":139751,"Delta":150083869},{"NoteNumber":59,"Velocity":37,"Duration":139751,"SoundDuration":139751,"Delta":150083869},{"NoteNumber":80,"Velocity":47,"Duration":139751,"SoundDuration":139751,"Delta":150208093},{"NoteNumber":56,"Velocity":40,"Duration":139751,"SoundDuration":139751,"Delta":150208093},{"NoteNumber":81,"Velocity":44,"Duration":139751,"SoundDuration":139751,"Delta":150332317},{"NoteNumber":57,"Velocity":36,"Duration":139751,"SoundDuration":139751,"Delta":150332317},{"NoteNumber":80,"Velocity":44,"Duration":140671,"SoundDuration":140671,"Delta":150456540},{"NoteNumber":56,"Velocity":36,"Duration":140671,"SoundDuration":140671,"Delta":150456540},{"NoteNumber":76,"Velocity":46,"Duration":148026,"SoundDuration":148026,"Delta":150580764},{"NoteNumber":52,"Velocity":39,"Duration":148026,"SoundDuration":148026,"Delta":150580764},{"NoteNumber":77,"Velocity":41,"Duration":168892,"SoundDuration":168892,"Delta":150712343},{"NoteNumber":53,"Velocity":35,"Duration":168892,"SoundDuration":168892,"Delta":150712343},{"NoteNumber":76,"Velocity":42,"Duration":314954,"SoundDuration":314954,"Delta":150843922},{"NoteNumber":52,"Velocity":35,"Duration":314954,"SoundDuration":314954,"Delta":150843922},{"NoteNumber":62,"Velocity":30,"Duration":197368,"SoundDuration":197368,"Delta":151142429},{"NoteNumber":64,"Velocity":30,"Duration":197368,"SoundDuration":197368,"Delta":151142429},{"NoteNumber":71,"Velocity":30,"Duration":197368,"SoundDuration":197368,"Delta":151142429},{"NoteNumber":45,"Velocity":25,"Duration":197368,"SoundDuration":197368,"Delta":151142429},{"NoteNumber":56,"Velocity":25,"Duration":197368,"SoundDuration":197368,"Delta":151142429},{"NoteNumber":88,"Velocity":52,"Duration":192307,"SoundDuration":192307,"Delta":151537166},{"NoteNumber":64,"Velocity":44,"Duration":192307,"SoundDuration":192307,"Delta":151537166},{"NoteNumber":89,"Velocity":45,"Duration":152671,"SoundDuration":152671,"Delta":151729474},{"NoteNumber":65,"Velocity":37,"Duration":152671,"SoundDuration":152671,"Delta":151729474},{"NoteNumber":88,"Velocity":45,"Duration":152671,"SoundDuration":152671,"Delta":151882146},{"NoteNumber":64,"Velocity":37,"Duration":152671,"SoundDuration":152671,"Delta":151882146},{"NoteNumber":84,"Velocity":49,"Duration":1043869,"SoundDuration":1043869,"Delta":152034818},{"NoteNumber":60,"Velocity":41,"Duration":1043869,"SoundDuration":1043869,"Delta":152034818},{"NoteNumber":72,"Velocity":37,"Duration":236220,"SoundDuration":236220,"Delta":152606246},{"NoteNumber":76,"Velocity":37,"Duration":236220,"SoundDuration":236220,"Delta":152606246},{"NoteNumber":45,"Velocity":31,"Duration":236220,"SoundDuration":236220,"Delta":152606246},{"NoteNumber":52,"Velocity":31,"Duration":236220,"SoundDuration":236220,"Delta":152606246},{"NoteNumber":64,"Velocity":45,"Duration":394736,"SoundDuration":394736,"Delta":153078687},{"NoteNumber":60,"Velocity":54,"Duration":131578,"SoundDuration":131578,"Delta":153078687},{"NoteNumber":57,"Velocity":45,"Duration":131578,"SoundDuration":131578,"Delta":153078687},{"NoteNumber":62,"Velocity":53,"Duration":131579,"SoundDuration":131579,"Delta":153210266},{"NoteNumber":59,"Velocity":44,"Duration":131579,"SoundDuration":131579,"Delta":153210266},{"NoteNumber":60,"Velocity":56,"Duration":131578,"SoundDuration":131578,"Delta":153341845},{"NoteNumber":57,"Velocity":46,"Duration":131578,"SoundDuration":131578,"Delta":153341845},{"NoteNumber":64,"Velocity":51,"Duration":372670,"SoundDuration":372670,"Delta":153473424},{"NoteNumber":59,"Velocity":63,"Duration":124223,"SoundDuration":124223,"Delta":153473424},{"NoteNumber":56,"Velocity":53,"Duration":124223,"SoundDuration":124223,"Delta":153473424},{"NoteNumber":60,"Velocity":63,"Duration":124223,"SoundDuration":124223,"Delta":153597648},{"NoteNumber":57,"Velocity":53,"Duration":124223,"SoundDuration":124223,"Delta":153597648},{"NoteNumber":59,"Velocity":67,"Duration":124223,"SoundDuration":124223,"Delta":153721872},{"NoteNumber":55,"Velocity":56,"Duration":124223,"SoundDuration":124223,"Delta":153721872},{"NoteNumber":63,"Velocity":56,"Duration":384615,"SoundDuration":384615,"Delta":153846095},{"NoteNumber":69,"Velocity":72,"Duration":128205,"SoundDuration":128205,"Delta":153846095},{"NoteNumber":54,"Velocity":61,"Duration":128205,"SoundDuration":128205,"Delta":153846095},{"NoteNumber":71,"Velocity":67,"Duration":128205,"SoundDuration":128205,"Delta":153974300},{"NoteNumber":55,"Velocity":56,"Duration":128205,"SoundDuration":128205,"Delta":153974300},{"NoteNumber":69,"Velocity":68,"Duration":128205,"SoundDuration":128205,"Delta":154102506},{"NoteNumber":53,"Velocity":57,"Duration":128205,"SoundDuration":128205,"Delta":154102506},{"NoteNumber":64,"Velocity":56,"Duration":465178,"SoundDuration":465178,"Delta":154230711},{"NoteNumber":68,"Velocity":74,"Duration":131578,"SoundDuration":131578,"Delta":154230711},{"NoteNumber":52,"Velocity":63,"Duration":131578,"SoundDuration":131578,"Delta":154230711},{"NoteNumber":69,"Velocity":66,"Duration":131578,"SoundDuration":131578,"Delta":154362290},{"NoteNumber":53,"Velocity":56,"Duration":131578,"SoundDuration":131578,"Delta":154362290},{"NoteNumber":68,"Velocity":69,"Duration":202020,"SoundDuration":202020,"Delta":154493869},{"NoteNumber":52,"Velocity":56,"Duration":202020,"SoundDuration":202020,"Delta":154493869},{"NoteNumber":40,"Velocity":72,"Duration":247933,"SoundDuration":247933,"Delta":154695889},{"NoteNumber":88,"Velocity":52,"Duration":192307,"SoundDuration":192307,"Delta":155191757},{"NoteNumber":64,"Velocity":44,"Duration":192307,"SoundDuration":192307,"Delta":155191757},{"NoteNumber":89,"Velocity":45,"Duration":151515,"SoundDuration":151515,"Delta":155384065},{"NoteNumber":65,"Velocity":37,"Duration":151515,"SoundDuration":151515,"Delta":155384065},{"NoteNumber":88,"Velocity":45,"Duration":151515,"SoundDuration":151515,"Delta":155535580},{"NoteNumber":64,"Velocity":37,"Duration":151515,"SoundDuration":151515,"Delta":155535580},{"NoteNumber":84,"Velocity":49,"Duration":1051274,"SoundDuration":1051274,"Delta":155687095},{"NoteNumber":60,"Velocity":41,"Duration":1051274,"SoundDuration":1051274,"Delta":155687095},{"NoteNumber":72,"Velocity":33,"Duration":234375,"SoundDuration":234375,"Delta":156269619},{"NoteNumber":76,"Velocity":33,"Duration":234375,"SoundDuration":234375,"Delta":156269619},{"NoteNumber":45,"Velocity":27,"Duration":234375,"SoundDuration":234375,"Delta":156269619},{"NoteNumber":52,"Velocity":27,"Duration":234375,"SoundDuration":234375,"Delta":156269619},{"NoteNumber":81,"Velocity":48,"Duration":168595,"SoundDuration":168595,"Delta":156738369},{"NoteNumber":57,"Velocity":40,"Duration":168595,"SoundDuration":168595,"Delta":156738369},{"NoteNumber":83,"Velocity":45,"Duration":143312,"SoundDuration":143312,"Delta":156891041},{"NoteNumber":59,"Velocity":37,"Duration":143312,"SoundDuration":143312,"Delta":156891041},{"NoteNumber":81,"Velocity":45,"Duration":142916,"SoundDuration":142916,"Delta":157018430},{"NoteNumber":57,"Velocity":37,"Duration":142916,"SoundDuration":142916,"Delta":157018430},{"NoteNumber":83,"Velocity":47,"Duration":139751,"SoundDuration":139751,"Delta":157145818},{"NoteNumber":59,"Velocity":40,"Duration":139751,"SoundDuration":139751,"Delta":157145818},{"NoteNumber":84,"Velocity":45,"Duration":139751,"SoundDuration":139751,"Delta":157270042},{"NoteNumber":60,"Velocity":37,"Duration":139751,"SoundDuration":139751,"Delta":157270042},{"NoteNumber":83,"Velocity":45,"Duration":139751,"SoundDuration":139751,"Delta":157394266},{"NoteNumber":59,"Velocity":37,"Duration":139751,"SoundDuration":139751,"Delta":157394266},{"NoteNumber":80,"Velocity":47,"Duration":139751,"SoundDuration":139751,"Delta":157518489},{"NoteNumber":56,"Velocity":40,"Duration":139751,"SoundDuration":139751,"Delta":157518489},{"NoteNumber":81,"Velocity":44,"Duration":139751,"SoundDuration":139751,"Delta":157642713},{"NoteNumber":57,"Velocity":36,"Duration":139751,"SoundDuration":139751,"Delta":157642713},{"NoteNumber":80,"Velocity":44,"Duration":140671,"SoundDuration":140671,"Delta":157766937},{"NoteNumber":56,"Velocity":36,"Duration":140671,"SoundDuration":140671,"Delta":157766937},{"NoteNumber":76,"Velocity":46,"Duration":148026,"SoundDuration":148026,"Delta":157891160},{"NoteNumber":52,"Velocity":39,"Duration":148026,"SoundDuration":148026,"Delta":157891160},{"NoteNumber":77,"Velocity":41,"Duration":168892,"SoundDuration":168892,"Delta":158022739},{"NoteNumber":53,"Velocity":35,"Duration":168892,"SoundDuration":168892,"Delta":158022739},{"NoteNumber":76,"Velocity":42,"Duration":314954,"SoundDuration":314954,"Delta":158154318},{"NoteNumber":52,"Velocity":35,"Duration":314954,"SoundDuration":314954,"Delta":158154318},{"NoteNumber":62,"Velocity":30,"Duration":197368,"SoundDuration":197368,"Delta":158452826},{"NoteNumber":64,"Velocity":30,"Duration":197368,"SoundDuration":197368,"Delta":158452826},{"NoteNumber":71,"Velocity":30,"Duration":197368,"SoundDuration":197368,"Delta":158452826},{"NoteNumber":45,"Velocity":25,"Duration":197368,"SoundDuration":197368,"Delta":158452826},{"NoteNumber":56,"Velocity":25,"Duration":197368,"SoundDuration":197368,"Delta":158452826},{"NoteNumber":88,"Velocity":52,"Duration":192307,"SoundDuration":192307,"Delta":158847563},{"NoteNumber":64,"Velocity":44,"Duration":192307,"SoundDuration":192307,"Delta":158847563},{"NoteNumber":89,"Velocity":45,"Duration":152671,"SoundDuration":152671,"Delta":159039870},{"NoteNumber":65,"Velocity":37,"Duration":152671,"SoundDuration":152671,"Delta":159039870},{"NoteNumber":88,"Velocity":45,"Duration":152671,"SoundDuration":152671,"Delta":159192542},{"NoteNumber":64,"Velocity":37,"Duration":152671,"SoundDuration":152671,"Delta":159192542},{"NoteNumber":84,"Velocity":49,"Duration":1043869,"SoundDuration":1043869,"Delta":159345214},{"NoteNumber":60,"Velocity":41,"Duration":1043869,"SoundDuration":1043869,"Delta":159345214},{"NoteNumber":72,"Velocity":37,"Duration":236220,"SoundDuration":236220,"Delta":159916643},{"NoteNumber":76,"Velocity":37,"Duration":236220,"SoundDuration":236220,"Delta":159916643},{"NoteNumber":45,"Velocity":31,"Duration":236220,"SoundDuration":236220,"Delta":159916643},{"NoteNumber":52,"Velocity":31,"Duration":236220,"SoundDuration":236220,"Delta":159916643},{"NoteNumber":64,"Velocity":45,"Duration":394736,"SoundDuration":394736,"Delta":160389084},{"NoteNumber":60,"Velocity":54,"Duration":131578,"SoundDuration":131578,"Delta":160389084},{"NoteNumber":57,"Velocity":45,"Duration":131578,"SoundDuration":131578,"Delta":160389084},{"NoteNumber":62,"Velocity":53,"Duration":131579,"SoundDuration":131579,"Delta":160520663},{"NoteNumber":59,"Velocity":44,"Duration":131579,"SoundDuration":131579,"Delta":160520663},{"NoteNumber":60,"Velocity":56,"Duration":131578,"SoundDuration":131578,"Delta":160652242},{"NoteNumber":57,"Velocity":46,"Duration":131578,"SoundDuration":131578,"Delta":160652242},{"NoteNumber":64,"Velocity":51,"Duration":372670,"SoundDuration":372670,"Delta":160783821},{"NoteNumber":59,"Velocity":63,"Duration":124223,"SoundDuration":124223,"Delta":160783821},{"NoteNumber":56,"Velocity":53,"Duration":124223,"SoundDuration":124223,"Delta":160783821},{"NoteNumber":60,"Velocity":63,"Duration":124223,"SoundDuration":124223,"Delta":160908044},{"NoteNumber":57,"Velocity":53,"Duration":124223,"SoundDuration":124223,"Delta":160908044},{"NoteNumber":59,"Velocity":67,"Duration":124223,"SoundDuration":124223,"Delta":161032268},{"NoteNumber":55,"Velocity":56,"Duration":124223,"SoundDuration":124223,"Delta":161032268},{"NoteNumber":63,"Velocity":56,"Duration":384615,"SoundDuration":384615,"Delta":161156492},{"NoteNumber":69,"Velocity":72,"Duration":128205,"SoundDuration":128205,"Delta":161156492},{"NoteNumber":54,"Velocity":61,"Duration":128205,"SoundDuration":128205,"Delta":161156492},{"NoteNumber":71,"Velocity":67,"Duration":128205,"SoundDuration":128205,"Delta":161284697},{"NoteNumber":55,"Velocity":56,"Duration":128205,"SoundDuration":128205,"Delta":161284697},{"NoteNumber":69,"Velocity":68,"Duration":128205,"SoundDuration":128205,"Delta":161412902},{"NoteNumber":53,"Velocity":57,"Duration":128205,"SoundDuration":128205,"Delta":161412902},{"NoteNumber":64,"Velocity":56,"Duration":465178,"SoundDuration":465178,"Delta":161541107},{"NoteNumber":68,"Velocity":74,"Duration":131578,"SoundDuration":131578,"Delta":161541107},{"NoteNumber":52,"Velocity":63,"Duration":131578,"SoundDuration":131578,"Delta":161541107},{"NoteNumber":69,"Velocity":66,"Duration":131578,"SoundDuration":131578,"Delta":161672686},{"NoteNumber":53,"Velocity":56,"Duration":131578,"SoundDuration":131578,"Delta":161672686},{"NoteNumber":68,"Velocity":69,"Duration":202020,"SoundDuration":202020,"Delta":161804265},{"NoteNumber":52,"Velocity":56,"Duration":202020,"SoundDuration":202020,"Delta":161804265},{"NoteNumber":40,"Velocity":72,"Duration":252100,"SoundDuration":252100,"Delta":162006285},{"NoteNumber":88,"Velocity":52,"Duration":192307,"SoundDuration":192307,"Delta":162510487},{"NoteNumber":64,"Velocity":44,"Duration":192307,"SoundDuration":192307,"Delta":162510487},{"NoteNumber":89,"Velocity":45,"Duration":151515,"SoundDuration":151515,"Delta":162702794},{"NoteNumber":65,"Velocity":37,"Duration":151515,"SoundDuration":151515,"Delta":162702794},{"NoteNumber":88,"Velocity":45,"Duration":151515,"SoundDuration":151515,"Delta":162854310},{"NoteNumber":64,"Velocity":37,"Duration":151515,"SoundDuration":151515,"Delta":162854310},{"NoteNumber":85,"Velocity":49,"Duration":1051274,"SoundDuration":1051274,"Delta":163005825},{"NoteNumber":61,"Velocity":41,"Duration":1051274,"SoundDuration":1051274,"Delta":163005825},{"NoteNumber":73,"Velocity":33,"Duration":234375,"SoundDuration":234375,"Delta":163588349},{"NoteNumber":76,"Velocity":33,"Duration":234375,"SoundDuration":234375,"Delta":163588349},{"NoteNumber":55,"Velocity":27,"Duration":234375,"SoundDuration":234375,"Delta":163588349},{"NoteNumber":45,"Velocity":27,"Duration":234375,"SoundDuration":234375,"Delta":163588349},{"NoteNumber":58,"Velocity":27,"Duration":234375,"SoundDuration":234375,"Delta":163588349},{"NoteNumber":81,"Velocity":48,"Duration":186723,"SoundDuration":186723,"Delta":164057099},{"NoteNumber":57,"Velocity":40,"Duration":186723,"SoundDuration":186723,"Delta":164057099},{"NoteNumber":82,"Velocity":45,"Duration":167910,"SoundDuration":167910,"Delta":164225166},{"NoteNumber":58,"Velocity":37,"Duration":167910,"SoundDuration":167910,"Delta":164225166},{"NoteNumber":81,"Velocity":45,"Duration":168193,"SoundDuration":168193,"Delta":164374420},{"NoteNumber":57,"Velocity":37,"Duration":168193,"SoundDuration":168193,"Delta":164374420},{"NoteNumber":86,"Velocity":47,"Duration":170454,"SoundDuration":170454,"Delta":164523674},{"NoteNumber":62,"Velocity":40,"Duration":170454,"SoundDuration":170454,"Delta":164523674},{"NoteNumber":88,"Velocity":45,"Duration":176515,"SoundDuration":176515,"Delta":164675189},{"NoteNumber":64,"Velocity":37,"Duration":176515,"SoundDuration":176515,"Delta":164675189},{"NoteNumber":86,"Velocity":45,"Duration":218797,"SoundDuration":218797,"Delta":164826704},{"NoteNumber":62,"Velocity":37,"Duration":218797,"SoundDuration":218797,"Delta":164826704},{"NoteNumber":61,"Velocity":57,"Duration":420646,"SoundDuration":420646,"Delta":165026704},{"NoteNumber":69,"Velocity":67,"Duration":420646,"SoundDuration":420646,"Delta":165026704},{"NoteNumber":64,"Velocity":53,"Duration":152027,"SoundDuration":152027,"Delta":165177080},{"NoteNumber":70,"Velocity":62,"Duration":152027,"SoundDuration":152027,"Delta":165177080},{"NoteNumber":69,"Velocity":62,"Duration":153251,"SoundDuration":153251,"Delta":165312215},{"NoteNumber":57,"Velocity":56,"Duration":418060,"SoundDuration":418060,"Delta":165447350},{"NoteNumber":65,"Velocity":65,"Duration":418060,"SoundDuration":418060,"Delta":165447350},{"NoteNumber":62,"Velocity":52,"Duration":209030,"SoundDuration":209030,"Delta":165592278},{"NoteNumber":67,"Velocity":61,"Duration":209030,"SoundDuration":209030,"Delta":165592278},{"NoteNumber":65,"Velocity":61,"Duration":268619,"SoundDuration":268619,"Delta":165737205},{"NoteNumber":53,"Velocity":69,"Duration":321335,"SoundDuration":321335,"Delta":165865410},{"NoteNumber":57,"Velocity":72,"Duration":259352,"SoundDuration":259352,"Delta":165927394},{"NoteNumber":62,"Velocity":73,"Duration":197368,"SoundDuration":197368,"Delta":165989377},{"NoteNumber":86,"Velocity":52,"Duration":192307,"SoundDuration":192307,"Delta":166384114},{"NoteNumber":62,"Velocity":44,"Duration":192307,"SoundDuration":192307,"Delta":166384114},{"NoteNumber":88,"Velocity":45,"Duration":151515,"SoundDuration":151515,"Delta":166576422},{"NoteNumber":64,"Velocity":37,"Duration":151515,"SoundDuration":151515,"Delta":166576422},{"NoteNumber":86,"Velocity":45,"Duration":151515,"SoundDuration":151515,"Delta":166727937},{"NoteNumber":62,"Velocity":37,"Duration":151515,"SoundDuration":151515,"Delta":166727937},{"NoteNumber":83,"Velocity":49,"Duration":1051274,"SoundDuration":1051274,"Delta":166879452},{"NoteNumber":59,"Velocity":41,"Duration":1051274,"SoundDuration":1051274,"Delta":166879452},{"NoteNumber":71,"Velocity":33,"Duration":234375,"SoundDuration":234375,"Delta":167461977},{"NoteNumber":74,"Velocity":33,"Duration":234375,"SoundDuration":234375,"Delta":167461977},{"NoteNumber":53,"Velocity":27,"Duration":234375,"SoundDuration":234375,"Delta":167461977},{"NoteNumber":43,"Velocity":27,"Duration":234375,"SoundDuration":234375,"Delta":167461977},{"NoteNumber":56,"Velocity":27,"Duration":234375,"SoundDuration":234375,"Delta":167461977},{"NoteNumber":79,"Velocity":48,"Duration":186723,"SoundDuration":186723,"Delta":167930727},{"NoteNumber":55,"Velocity":40,"Duration":186723,"SoundDuration":186723,"Delta":167930727},{"NoteNumber":81,"Velocity":45,"Duration":167910,"SoundDuration":167910,"Delta":168098794},{"NoteNumber":57,"Velocity":37,"Duration":167910,"SoundDuration":167910,"Delta":168098794},{"NoteNumber":79,"Velocity":45,"Duration":168193,"SoundDuration":168193,"Delta":168248048},{"NoteNumber":55,"Velocity":37,"Duration":168193,"SoundDuration":168193,"Delta":168248048},{"NoteNumber":84,"Velocity":47,"Duration":170454,"SoundDuration":170454,"Delta":168397301},{"NoteNumber":60,"Velocity":40,"Duration":170454,"SoundDuration":170454,"Delta":168397301},{"NoteNumber":86,"Velocity":45,"Duration":176515,"SoundDuration":176515,"Delta":168548817},{"NoteNumber":62,"Velocity":37,"Duration":176515,"SoundDuration":176515,"Delta":168548817},{"NoteNumber":84,"Velocity":45,"Duration":218797,"SoundDuration":218797,"Delta":168700332},{"NoteNumber":60,"Velocity":37,"Duration":218797,"SoundDuration":218797,"Delta":168700332},{"NoteNumber":59,"Velocity":57,"Duration":420646,"SoundDuration":420646,"Delta":168900332},{"NoteNumber":67,"Velocity":67,"Duration":420646,"SoundDuration":420646,"Delta":168900332},{"NoteNumber":62,"Velocity":53,"Duration":152027,"SoundDuration":152027,"Delta":169050708},{"NoteNumber":69,"Velocity":62,"Duration":152027,"SoundDuration":152027,"Delta":169050708},{"NoteNumber":67,"Velocity":62,"Duration":153251,"SoundDuration":153251,"Delta":169185843},{"NoteNumber":55,"Velocity":56,"Duration":418060,"SoundDuration":418060,"Delta":169320978},{"NoteNumber":64,"Velocity":65,"Duration":418060,"SoundDuration":418060,"Delta":169320978},{"NoteNumber":60,"Velocity":52,"Duration":209030,"SoundDuration":209030,"Delta":169465906},{"NoteNumber":65,"Velocity":61,"Duration":209030,"SoundDuration":209030,"Delta":169465906},{"NoteNumber":64,"Velocity":61,"Duration":278767,"SoundDuration":278767,"Delta":169610833},{"NoteNumber":52,"Velocity":69,"Duration":443116,"SoundDuration":443116,"Delta":169739038},{"NoteNumber":55,"Velocity":72,"Duration":381132,"SoundDuration":381132,"Delta":169801022},{"NoteNumber":60,"Velocity":73,"Duration":319149,"SoundDuration":319149,"Delta":169863005},{"NoteNumber":86,"Velocity":52,"Duration":206185,"SoundDuration":206185,"Delta":170501303},{"NoteNumber":62,"Velocity":44,"Duration":206185,"SoundDuration":206185,"Delta":170501303},{"NoteNumber":88,"Velocity":45,"Duration":172413,"SoundDuration":172413,"Delta":170707489},{"NoteNumber":64,"Velocity":37,"Duration":172413,"SoundDuration":172413,"Delta":170707489},{"NoteNumber":86,"Velocity":45,"Duration":172413,"SoundDuration":172413,"Delta":170879903},{"NoteNumber":62,"Velocity":37,"Duration":172413,"SoundDuration":172413,"Delta":170879903},{"NoteNumber":89,"Velocity":49,"Duration":1504411,"SoundDuration":1504411,"Delta":171052316},{"NoteNumber":65,"Velocity":41,"Duration":1504411,"SoundDuration":1504411,"Delta":171052316},{"NoteNumber":77,"Velocity":33,"Duration":422535,"SoundDuration":422535,"Delta":171711657},{"NoteNumber":80,"Velocity":33,"Duration":422535,"SoundDuration":422535,"Delta":171711657},{"NoteNumber":50,"Velocity":27,"Duration":422535,"SoundDuration":422535,"Delta":171711657},{"NoteNumber":59,"Velocity":27,"Duration":422535,"SoundDuration":422535,"Delta":171711657},{"NoteNumber":62,"Velocity":36,"Duration":84033,"SoundDuration":84033,"Delta":172556727},{"NoteNumber":65,"Velocity":36,"Duration":84033,"SoundDuration":84033,"Delta":172556727},{"NoteNumber":68,"Velocity":43,"Duration":84033,"SoundDuration":84033,"Delta":172556727},{"NoteNumber":71,"Velocity":44,"Duration":84033,"SoundDuration":84033,"Delta":172556727},{"NoteNumber":64,"Velocity":33,"Duration":84033,"SoundDuration":84033,"Delta":172640761},{"NoteNumber":72,"Velocity":33,"Duration":84033,"SoundDuration":84033,"Delta":172640761},{"NoteNumber":62,"Velocity":33,"Duration":37313,"SoundDuration":37313,"Delta":172724795},{"NoteNumber":71,"Velocity":33,"Duration":37313,"SoundDuration":37313,"Delta":172724795},{"NoteNumber":84,"Velocity":52,"Duration":206185,"SoundDuration":206185,"Delta":173252271},{"NoteNumber":60,"Velocity":44,"Duration":206185,"SoundDuration":206185,"Delta":173252271},{"NoteNumber":86,"Velocity":45,"Duration":172413,"SoundDuration":172413,"Delta":173458456},{"NoteNumber":62,"Velocity":37,"Duration":172413,"SoundDuration":172413,"Delta":173458456},{"NoteNumber":84,"Velocity":45,"Duration":172413,"SoundDuration":172413,"Delta":173630870},{"NoteNumber":60,"Velocity":37,"Duration":172413,"SoundDuration":172413,"Delta":173630870},{"NoteNumber":88,"Velocity":49,"Duration":1418834,"SoundDuration":1418834,"Delta":173803284},{"NoteNumber":64,"Velocity":41,"Duration":1418834,"SoundDuration":1418834,"Delta":173803284},{"NoteNumber":76,"Velocity":33,"Duration":379746,"SoundDuration":379746,"Delta":174462624},{"NoteNumber":81,"Velocity":33,"Duration":379746,"SoundDuration":379746,"Delta":174462624},{"NoteNumber":48,"Velocity":27,"Duration":379746,"SoundDuration":379746,"Delta":174462624},{"NoteNumber":57,"Velocity":27,"Duration":379746,"SoundDuration":379746,"Delta":174462624},{"NoteNumber":60,"Velocity":36,"Duration":84033,"SoundDuration":84033,"Delta":175222118},{"NoteNumber":64,"Velocity":43,"Duration":84033,"SoundDuration":84033,"Delta":175222118},{"NoteNumber":69,"Velocity":44,"Duration":84033,"SoundDuration":84033,"Delta":175222118},{"NoteNumber":62,"Velocity":33,"Duration":84033,"SoundDuration":84033,"Delta":175306152},{"NoteNumber":70,"Velocity":33,"Duration":84033,"SoundDuration":84033,"Delta":175306152},{"NoteNumber":60,"Velocity":33,"Duration":37313,"SoundDuration":37313,"Delta":175390185},{"NoteNumber":69,"Velocity":33,"Duration":37313,"SoundDuration":37313,"Delta":175390185},{"NoteNumber":65,"Velocity":45,"Duration":75187,"SoundDuration":75187,"Delta":175993419},{"NoteNumber":71,"Velocity":45,"Duration":75187,"SoundDuration":75187,"Delta":175993419},{"NoteNumber":50,"Velocity":27,"Duration":495834,"SoundDuration":495834,"Delta":175993419},{"NoteNumber":69,"Velocity":31,"Duration":75187,"SoundDuration":75187,"Delta":176068607},{"NoteNumber":72,"Velocity":31,"Duration":75187,"SoundDuration":75187,"Delta":176068607},{"NoteNumber":65,"Velocity":27,"Duration":37594,"SoundDuration":37594,"Delta":176143795},{"NoteNumber":71,"Velocity":27,"Duration":37594,"SoundDuration":37594,"Delta":176143795},{"NoteNumber":69,"Velocity":47,"Duration":76923,"SoundDuration":76923,"Delta":176489253},{"NoteNumber":77,"Velocity":47,"Duration":76923,"SoundDuration":76923,"Delta":176489253},{"NoteNumber":65,"Velocity":28,"Duration":496256,"SoundDuration":496256,"Delta":176489253},{"NoteNumber":62,"Velocity":28,"Duration":496256,"SoundDuration":496256,"Delta":176489253},{"NoteNumber":71,"Velocity":32,"Duration":76923,"SoundDuration":76923,"Delta":176566176},{"NoteNumber":79,"Velocity":32,"Duration":76923,"SoundDuration":76923,"Delta":176566176},{"NoteNumber":69,"Velocity":28,"Duration":38461,"SoundDuration":38461,"Delta":176643099},{"NoteNumber":77,"Velocity":28,"Duration":38461,"SoundDuration":38461,"Delta":176643099},{"NoteNumber":68,"Velocity":49,"Duration":76335,"SoundDuration":76335,"Delta":176985509},{"NoteNumber":76,"Velocity":49,"Duration":76335,"SoundDuration":76335,"Delta":176985509},{"NoteNumber":52,"Velocity":29,"Duration":504236,"SoundDuration":504236,"Delta":176985509},{"NoteNumber":77,"Velocity":34,"Duration":76335,"SoundDuration":76335,"Delta":177061845},{"NoteNumber":71,"Velocity":34,"Duration":76335,"SoundDuration":76335,"Delta":177061845},{"NoteNumber":68,"Velocity":30,"Duration":38167,"SoundDuration":38167,"Delta":177138181},{"NoteNumber":76,"Velocity":30,"Duration":38167,"SoundDuration":38167,"Delta":177138181},{"NoteNumber":74,"Velocity":51,"Duration":75187,"SoundDuration":75187,"Delta":177489746},{"NoteNumber":83,"Velocity":51,"Duration":75187,"SoundDuration":75187,"Delta":177489746},{"NoteNumber":68,"Velocity":31,"Duration":491050,"SoundDuration":491050,"Delta":177489746},{"NoteNumber":64,"Velocity":31,"Duration":491050,"SoundDuration":491050,"Delta":177489746},{"NoteNumber":76,"Velocity":35,"Duration":75187,"SoundDuration":75187,"Delta":177564934},{"NoteNumber":84,"Velocity":35,"Duration":75187,"SoundDuration":75187,"Delta":177564934},{"NoteNumber":74,"Velocity":31,"Duration":37594,"SoundDuration":37594,"Delta":177640122},{"NoteNumber":83,"Velocity":31,"Duration":37594,"SoundDuration":37594,"Delta":177640122},{"NoteNumber":72,"Velocity":53,"Duration":75757,"SoundDuration":75757,"Delta":177980797},{"NoteNumber":81,"Velocity":53,"Duration":75757,"SoundDuration":75757,"Delta":177980797},{"NoteNumber":64,"Velocity":32,"Duration":568181,"SoundDuration":568181,"Delta":177980797},{"NoteNumber":69,"Velocity":32,"Duration":568181,"SoundDuration":568181,"Delta":177980797},{"NoteNumber":57,"Velocity":32,"Duration":568181,"SoundDuration":568181,"Delta":177980797},{"NoteNumber":76,"Velocity":36,"Duration":75757,"SoundDuration":75757,"Delta":178056554},{"NoteNumber":83,"Velocity":36,"Duration":75757,"SoundDuration":75757,"Delta":178056554},{"NoteNumber":72,"Velocity":32,"Duration":37878,"SoundDuration":37878,"Delta":178132312},{"NoteNumber":81,"Velocity":32,"Duration":37878,"SoundDuration":37878,"Delta":178132312},{"NoteNumber":81,"Velocity":45,"Duration":81300,"SoundDuration":81300,"Delta":178548979},{"NoteNumber":89,"Velocity":45,"Duration":81300,"SoundDuration":81300,"Delta":178548979},{"NoteNumber":38,"Velocity":27,"Duration":243902,"SoundDuration":243902,"Delta":178548979},{"NoteNumber":45,"Velocity":27,"Duration":243902,"SoundDuration":243902,"Delta":178548979},{"NoteNumber":86,"Velocity":31,"Duration":81300,"SoundDuration":81300,"Delta":178630279},{"NoteNumber":91,"Velocity":31,"Duration":81300,"SoundDuration":81300,"Delta":178630279},{"NoteNumber":81,"Velocity":27,"Duration":40650,"SoundDuration":40650,"Delta":178711580},{"NoteNumber":89,"Velocity":27,"Duration":40650,"SoundDuration":40650,"Delta":178711580},{"NoteNumber":96,"Velocity":40,"Duration":422535,"SoundDuration":422535,"Delta":179215416},{"NoteNumber":88,"Velocity":34,"Duration":422535,"SoundDuration":422535,"Delta":179215416},{"NoteNumber":84,"Velocity":34,"Duration":422535,"SoundDuration":422535,"Delta":179215416},{"NoteNumber":33,"Velocity":27,"Duration":422535,"SoundDuration":422535,"Delta":179215416},{"NoteNumber":45,"Velocity":27,"Duration":422535,"SoundDuration":422535,"Delta":179215416},{"NoteNumber":64,"Velocity":83,"Duration":102459,"SoundDuration":102459,"Delta":180905557},{"NoteNumber":57,"Velocity":67,"Duration":102459,"SoundDuration":102459,"Delta":180905557},{"NoteNumber":60,"Velocity":67,"Duration":102459,"SoundDuration":102459,"Delta":180905557},{"NoteNumber":52,"Velocity":86,"Duration":102459,"SoundDuration":102459,"Delta":180905557},{"NoteNumber":45,"Velocity":72,"Duration":102459,"SoundDuration":102459,"Delta":180905557},{"NoteNumber":48,"Velocity":45,"Duration":82056,"SoundDuration":82056,"Delta":181110475},{"NoteNumber":52,"Velocity":54,"Duration":82056,"SoundDuration":82056,"Delta":181110475},{"NoteNumber":64,"Velocity":61,"Duration":82057,"SoundDuration":82057,"Delta":181192532},{"NoteNumber":52,"Velocity":54,"Duration":82056,"SoundDuration":82056,"Delta":181274589},{"NoteNumber":47,"Velocity":45,"Duration":82056,"SoundDuration":82056,"Delta":181274589},{"NoteNumber":64,"Velocity":61,"Duration":82056,"SoundDuration":82056,"Delta":181356646},{"NoteNumber":62,"Velocity":51,"Duration":82056,"SoundDuration":82056,"Delta":181356646},{"NoteNumber":52,"Velocity":54,"Duration":91185,"SoundDuration":91185,"Delta":181438703},{"NoteNumber":45,"Velocity":45,"Duration":91185,"SoundDuration":91185,"Delta":181438703},{"NoteNumber":64,"Velocity":58,"Duration":68389,"SoundDuration":68389,"Delta":181529889},{"NoteNumber":60,"Velocity":46,"Duration":68389,"SoundDuration":68389,"Delta":181529889},{"NoteNumber":52,"Velocity":63,"Duration":91019,"SoundDuration":91019,"Delta":181621074},{"NoteNumber":44,"Velocity":54,"Duration":91019,"SoundDuration":91019,"Delta":181621074},{"NoteNumber":64,"Velocity":68,"Duration":91019,"SoundDuration":91019,"Delta":181712094},{"NoteNumber":59,"Velocity":50,"Duration":91019,"SoundDuration":91019,"Delta":181712094},{"NoteNumber":52,"Velocity":57,"Duration":86306,"SoundDuration":86306,"Delta":181803113},{"NoteNumber":40,"Velocity":48,"Duration":86306,"SoundDuration":86306,"Delta":181803113},{"NoteNumber":71,"Velocity":60,"Duration":86305,"SoundDuration":86305,"Delta":181889419},{"NoteNumber":59,"Velocity":45,"Duration":86305,"SoundDuration":86305,"Delta":181889419},{"NoteNumber":64,"Velocity":45,"Duration":86305,"SoundDuration":86305,"Delta":181889419},{"NoteNumber":42,"Velocity":47,"Duration":91019,"SoundDuration":91019,"Delta":181975725},{"NoteNumber":52,"Velocity":56,"Duration":91019,"SoundDuration":91019,"Delta":181975725},{"NoteNumber":64,"Velocity":53,"Duration":91019,"SoundDuration":91019,"Delta":182066745},{"NoteNumber":57,"Velocity":56,"Duration":91019,"SoundDuration":91019,"Delta":182066745},{"NoteNumber":52,"Velocity":56,"Duration":113644,"SoundDuration":113644,"Delta":182157764},{"NoteNumber":44,"Velocity":47,"Duration":113644,"SoundDuration":113644,"Delta":182157764},{"NoteNumber":64,"Velocity":52,"Duration":85233,"SoundDuration":85233,"Delta":182271409},{"NoteNumber":59,"Velocity":54,"Duration":85233,"SoundDuration":85233,"Delta":182271409},{"NoteNumber":64,"Velocity":83,"Duration":98425,"SoundDuration":98425,"Delta":182385054},{"NoteNumber":57,"Velocity":67,"Duration":98425,"SoundDuration":98425,"Delta":182385054},{"NoteNumber":60,"Velocity":67,"Duration":98425,"SoundDuration":98425,"Delta":182385054},{"NoteNumber":52,"Velocity":86,"Duration":98425,"SoundDuration":98425,"Delta":182385054},{"NoteNumber":45,"Velocity":72,"Duration":98425,"SoundDuration":98425,"Delta":182385054},{"NoteNumber":52,"Velocity":54,"Duration":84364,"SoundDuration":84364,"Delta":182581905},{"NoteNumber":48,"Velocity":45,"Duration":84364,"SoundDuration":84364,"Delta":182581905},{"NoteNumber":64,"Velocity":61,"Duration":84364,"SoundDuration":84364,"Delta":182666269},{"NoteNumber":52,"Velocity":54,"Duration":84364,"SoundDuration":84364,"Delta":182750634},{"NoteNumber":47,"Velocity":45,"Duration":84364,"SoundDuration":84364,"Delta":182750634},{"NoteNumber":64,"Velocity":61,"Duration":84364,"SoundDuration":84364,"Delta":182834998},{"NoteNumber":62,"Velocity":51,"Duration":84364,"SoundDuration":84364,"Delta":182834998},{"NoteNumber":52,"Velocity":54,"Duration":90470,"SoundDuration":90470,"Delta":182919363},{"NoteNumber":45,"Velocity":45,"Duration":90470,"SoundDuration":90470,"Delta":182919363},{"NoteNumber":64,"Velocity":58,"Duration":67852,"SoundDuration":67852,"Delta":183009833},{"NoteNumber":60,"Velocity":46,"Duration":67852,"SoundDuration":67852,"Delta":183009833},{"NoteNumber":52,"Velocity":63,"Duration":94458,"SoundDuration":94458,"Delta":183100304},{"NoteNumber":44,"Velocity":54,"Duration":94458,"SoundDuration":94458,"Delta":183100304},{"NoteNumber":64,"Velocity":63,"Duration":94458,"SoundDuration":94458,"Delta":183194762},{"NoteNumber":59,"Velocity":50,"Duration":94458,"SoundDuration":94458,"Delta":183194762},{"NoteNumber":51,"Velocity":57,"Duration":87821,"SoundDuration":87821,"Delta":183289221},{"NoteNumber":41,"Velocity":48,"Duration":87821,"SoundDuration":87821,"Delta":183289221},{"NoteNumber":69,"Velocity":61,"Duration":87822,"SoundDuration":87822,"Delta":183377043},{"NoteNumber":59,"Velocity":49,"Duration":87822,"SoundDuration":87822,"Delta":183377043},{"NoteNumber":63,"Velocity":49,"Duration":87822,"SoundDuration":87822,"Delta":183377043},{"NoteNumber":52,"Velocity":61,"Duration":97783,"SoundDuration":97783,"Delta":183464865},{"NoteNumber":40,"Velocity":51,"Duration":97783,"SoundDuration":97783,"Delta":183464865},{"NoteNumber":68,"Velocity":61,"Duration":97783,"SoundDuration":97783,"Delta":183562648},{"NoteNumber":64,"Velocity":49,"Duration":97783,"SoundDuration":97783,"Delta":183562648},{"NoteNumber":59,"Velocity":49,"Duration":97783,"SoundDuration":97783,"Delta":183562648},{"NoteNumber":56,"Velocity":56,"Duration":114512,"SoundDuration":114512,"Delta":183660432},{"NoteNumber":52,"Velocity":47,"Duration":114512,"SoundDuration":114512,"Delta":183660432},{"NoteNumber":64,"Velocity":56,"Duration":85884,"SoundDuration":85884,"Delta":183774944},{"NoteNumber":64,"Velocity":71,"Duration":102459,"SoundDuration":102459,"Delta":183889457},{"NoteNumber":76,"Velocity":88,"Duration":102459,"SoundDuration":102459,"Delta":183889457},{"NoteNumber":69,"Velocity":71,"Duration":102459,"SoundDuration":102459,"Delta":183889457},{"NoteNumber":72,"Velocity":71,"Duration":102459,"SoundDuration":102459,"Delta":183889457},{"NoteNumber":57,"Velocity":90,"Duration":102459,"SoundDuration":102459,"Delta":183889457},{"NoteNumber":45,"Velocity":75,"Duration":102459,"SoundDuration":102459,"Delta":183889457},{"NoteNumber":60,"Velocity":59,"Duration":81081,"SoundDuration":81081,"Delta":184094375},{"NoteNumber":48,"Velocity":49,"Duration":81081,"SoundDuration":81081,"Delta":184094375},{"NoteNumber":64,"Velocity":53,"Duration":81080,"SoundDuration":81080,"Delta":184175456},{"NoteNumber":76,"Velocity":66,"Duration":81080,"SoundDuration":81080,"Delta":184175456},{"NoteNumber":59,"Velocity":59,"Duration":81081,"SoundDuration":81081,"Delta":184256537},{"NoteNumber":47,"Velocity":49,"Duration":81081,"SoundDuration":81081,"Delta":184256537},{"NoteNumber":74,"Velocity":66,"Duration":81080,"SoundDuration":81080,"Delta":184337618},{"NoteNumber":64,"Velocity":53,"Duration":81080,"SoundDuration":81080,"Delta":184337618},{"NoteNumber":76,"Velocity":53,"Duration":81532,"SoundDuration":81532,"Delta":184340321},{"NoteNumber":57,"Velocity":59,"Duration":94637,"SoundDuration":94637,"Delta":184418699},{"NoteNumber":45,"Velocity":49,"Duration":94637,"SoundDuration":94637,"Delta":184418699},{"NoteNumber":64,"Velocity":50,"Duration":70977,"SoundDuration":70977,"Delta":184513336},{"NoteNumber":76,"Velocity":64,"Duration":70977,"SoundDuration":70977,"Delta":184513336},{"NoteNumber":72,"Velocity":50,"Duration":70977,"SoundDuration":70977,"Delta":184513336},{"NoteNumber":56,"Velocity":69,"Duration":92137,"SoundDuration":92137,"Delta":184607973},{"NoteNumber":44,"Velocity":58,"Duration":92137,"SoundDuration":92137,"Delta":184607973},{"NoteNumber":64,"Velocity":55,"Duration":92137,"SoundDuration":92137,"Delta":184700111},{"NoteNumber":76,"Velocity":69,"Duration":92137,"SoundDuration":92137,"Delta":184700111},{"NoteNumber":71,"Velocity":55,"Duration":92137,"SoundDuration":92137,"Delta":184700111},{"NoteNumber":52,"Velocity":63,"Duration":86805,"SoundDuration":86805,"Delta":184792248},{"NoteNumber":40,"Velocity":54,"Duration":86805,"SoundDuration":86805,"Delta":184792248},{"NoteNumber":83,"Velocity":62,"Duration":86805,"SoundDuration":86805,"Delta":184879054},{"NoteNumber":71,"Velocity":48,"Duration":86805,"SoundDuration":86805,"Delta":184879054},{"NoteNumber":54,"Velocity":62,"Duration":91575,"SoundDuration":91575,"Delta":184965859},{"NoteNumber":42,"Velocity":51,"Duration":91575,"SoundDuration":91575,"Delta":184965859},{"NoteNumber":64,"Velocity":48,"Duration":91575,"SoundDuration":91575,"Delta":185057434},{"NoteNumber":76,"Velocity":62,"Duration":91575,"SoundDuration":91575,"Delta":185057434},{"NoteNumber":69,"Velocity":53,"Duration":91575,"SoundDuration":91575,"Delta":185057434},{"NoteNumber":56,"Velocity":62,"Duration":109497,"SoundDuration":109497,"Delta":185149009},{"NoteNumber":44,"Velocity":51,"Duration":109497,"SoundDuration":109497,"Delta":185149009},{"NoteNumber":64,"Velocity":48,"Duration":82122,"SoundDuration":82122,"Delta":185258506},{"NoteNumber":76,"Velocity":62,"Duration":82122,"SoundDuration":82122,"Delta":185258506},{"NoteNumber":71,"Velocity":52,"Duration":82122,"SoundDuration":82122,"Delta":185258506},{"NoteNumber":64,"Velocity":71,"Duration":98425,"SoundDuration":98425,"Delta":185368003},{"NoteNumber":76,"Velocity":88,"Duration":98425,"SoundDuration":98425,"Delta":185368003},{"NoteNumber":69,"Velocity":71,"Duration":98425,"SoundDuration":98425,"Delta":185368003},{"NoteNumber":72,"Velocity":71,"Duration":98425,"SoundDuration":98425,"Delta":185368003},{"NoteNumber":57,"Velocity":90,"Duration":98425,"SoundDuration":98425,"Delta":185368003},{"NoteNumber":45,"Velocity":75,"Duration":98425,"SoundDuration":98425,"Delta":185368003},{"NoteNumber":60,"Velocity":60,"Duration":82873,"SoundDuration":82873,"Delta":185564854},{"NoteNumber":48,"Velocity":50,"Duration":82873,"SoundDuration":82873,"Delta":185564854},{"NoteNumber":76,"Velocity":68,"Duration":82873,"SoundDuration":82873,"Delta":185647727},{"NoteNumber":64,"Velocity":57,"Duration":82873,"SoundDuration":82873,"Delta":185647727},{"NoteNumber":59,"Velocity":61,"Duration":82872,"SoundDuration":82872,"Delta":185730600},{"NoteNumber":47,"Velocity":51,"Duration":82872,"SoundDuration":82872,"Delta":185730600},{"NoteNumber":74,"Velocity":70,"Duration":82873,"SoundDuration":82873,"Delta":185813473},{"NoteNumber":76,"Velocity":59,"Duration":82873,"SoundDuration":82873,"Delta":185813473},{"NoteNumber":64,"Velocity":59,"Duration":82873,"SoundDuration":82873,"Delta":185813473},{"NoteNumber":57,"Velocity":63,"Duration":90470,"SoundDuration":90470,"Delta":185896346},{"NoteNumber":45,"Velocity":53,"Duration":90470,"SoundDuration":90470,"Delta":185896346},{"NoteNumber":64,"Velocity":54,"Duration":67852,"SoundDuration":67852,"Delta":185986816},{"NoteNumber":76,"Velocity":69,"Duration":67852,"SoundDuration":67852,"Delta":185986816},{"NoteNumber":72,"Velocity":54,"Duration":67852,"SoundDuration":67852,"Delta":185986816},{"NoteNumber":56,"Velocity":74,"Duration":97529,"SoundDuration":97529,"Delta":186077287},{"NoteNumber":44,"Velocity":63,"Duration":97529,"SoundDuration":97529,"Delta":186077287},{"NoteNumber":64,"Velocity":63,"Duration":97529,"SoundDuration":97529,"Delta":186174816},{"NoteNumber":76,"Velocity":78,"Duration":97529,"SoundDuration":97529,"Delta":186174816},{"NoteNumber":71,"Velocity":63,"Duration":97529,"SoundDuration":97529,"Delta":186174816},{"NoteNumber":53,"Velocity":76,"Duration":87310,"SoundDuration":87310,"Delta":186272345},{"NoteNumber":41,"Velocity":65,"Duration":87310,"SoundDuration":87310,"Delta":186272345},{"NoteNumber":81,"Velocity":77,"Duration":87310,"SoundDuration":87310,"Delta":186359656},{"NoteNumber":69,"Velocity":60,"Duration":87310,"SoundDuration":87310,"Delta":186359656},{"NoteNumber":75,"Velocity":60,"Duration":87310,"SoundDuration":87310,"Delta":186359656},{"NoteNumber":52,"Velocity":78,"Duration":93867,"SoundDuration":93867,"Delta":186446967},{"NoteNumber":40,"Velocity":64,"Duration":93867,"SoundDuration":93867,"Delta":186446967},{"NoteNumber":80,"Velocity":79,"Duration":93867,"SoundDuration":93867,"Delta":186540834},{"NoteNumber":76,"Velocity":61,"Duration":93867,"SoundDuration":93867,"Delta":186540834},{"NoteNumber":68,"Velocity":61,"Duration":93867,"SoundDuration":93867,"Delta":186540834},{"NoteNumber":56,"Velocity":67,"Duration":118119,"SoundDuration":118119,"Delta":186634701},{"NoteNumber":64,"Velocity":80,"Duration":118119,"SoundDuration":118119,"Delta":186634701},{"NoteNumber":59,"Velocity":67,"Duration":118119,"SoundDuration":118119,"Delta":186634701},{"NoteNumber":76,"Velocity":82,"Duration":88589,"SoundDuration":88589,"Delta":186752821},{"NoteNumber":68,"Velocity":70,"Duration":88589,"SoundDuration":88589,"Delta":186752821},{"NoteNumber":71,"Velocity":70,"Duration":88589,"SoundDuration":88589,"Delta":186752821},{"NoteNumber":76,"Velocity":94,"Duration":102459,"SoundDuration":102459,"Delta":186870940},{"NoteNumber":69,"Velocity":73,"Duration":102459,"SoundDuration":102459,"Delta":186870940},{"NoteNumber":73,"Velocity":77,"Duration":102459,"SoundDuration":102459,"Delta":186870940},{"NoteNumber":64,"Velocity":73,"Duration":102459,"SoundDuration":102459,"Delta":186870940},{"NoteNumber":57,"Velocity":94,"Duration":102459,"SoundDuration":102459,"Delta":186870940},{"NoteNumber":45,"Velocity":79,"Duration":102459,"SoundDuration":102459,"Delta":186870940},{"NoteNumber":59,"Velocity":62,"Duration":85231,"SoundDuration":85231,"Delta":187075858},{"NoteNumber":47,"Velocity":52,"Duration":85231,"SoundDuration":85231,"Delta":187075858},{"NoteNumber":64,"Velocity":55,"Duration":85232,"SoundDuration":85232,"Delta":187161090},{"NoteNumber":74,"Velocity":55,"Duration":85232,"SoundDuration":85232,"Delta":187161090},{"NoteNumber":69,"Velocity":55,"Duration":85232,"SoundDuration":85232,"Delta":187161090},{"NoteNumber":76,"Velocity":70,"Duration":85232,"SoundDuration":85232,"Delta":187161090},{"NoteNumber":49,"Velocity":52,"Duration":85231,"SoundDuration":85231,"Delta":187246322},{"NoteNumber":61,"Velocity":62,"Duration":85231,"SoundDuration":85231,"Delta":187246322},{"NoteNumber":76,"Velocity":65,"Duration":85231,"SoundDuration":85231,"Delta":187331554},{"NoteNumber":69,"Velocity":55,"Duration":85231,"SoundDuration":85231,"Delta":187331554},{"NoteNumber":64,"Velocity":55,"Duration":85231,"SoundDuration":85231,"Delta":187331554},{"NoteNumber":57,"Velocity":62,"Duration":102047,"SoundDuration":102047,"Delta":187416786},{"NoteNumber":45,"Velocity":52,"Duration":102047,"SoundDuration":102047,"Delta":187416786},{"NoteNumber":64,"Velocity":53,"Duration":76535,"SoundDuration":76535,"Delta":187518834},{"NoteNumber":76,"Velocity":67,"Duration":76535,"SoundDuration":76535,"Delta":187518834},{"NoteNumber":73,"Velocity":53,"Duration":76535,"SoundDuration":76535,"Delta":187518834},{"NoteNumber":62,"Velocity":72,"Duration":98045,"SoundDuration":98045,"Delta":187620882},{"NoteNumber":50,"Velocity":61,"Duration":98045,"SoundDuration":98045,"Delta":187620882},{"NoteNumber":74,"Velocity":63,"Duration":190075,"SoundDuration":190075,"Delta":187718927},{"NoteNumber":86,"Velocity":78,"Duration":190075,"SoundDuration":190075,"Delta":187718927},{"NoteNumber":77,"Velocity":63,"Duration":190075,"SoundDuration":190075,"Delta":187718927},{"NoteNumber":61,"Velocity":64,"Duration":184060,"SoundDuration":184060,"Delta":187816973},{"NoteNumber":70,"Velocity":76,"Duration":184060,"SoundDuration":184060,"Delta":187816973},{"NoteNumber":76,"Velocity":59,"Duration":188810,"SoundDuration":188810,"Delta":187909003},{"NoteNumber":88,"Velocity":75,"Duration":188810,"SoundDuration":188810,"Delta":187909003},{"NoteNumber":79,"Velocity":59,"Duration":188810,"SoundDuration":188810,"Delta":187909003},{"NoteNumber":69,"Velocity":77,"Duration":193560,"SoundDuration":193560,"Delta":188001033},{"NoteNumber":62,"Velocity":63,"Duration":193560,"SoundDuration":193560,"Delta":188001033},{"NoteNumber":77,"Velocity":61,"Duration":198138,"SoundDuration":198138,"Delta":188097814},{"NoteNumber":89,"Velocity":78,"Duration":198138,"SoundDuration":198138,"Delta":188097814},{"NoteNumber":81,"Velocity":61,"Duration":198138,"SoundDuration":198138,"Delta":188097814},{"NoteNumber":69,"Velocity":79,"Duration":202716,"SoundDuration":202716,"Delta":188194594},{"NoteNumber":65,"Velocity":64,"Duration":202716,"SoundDuration":202716,"Delta":188194594},{"NoteNumber":74,"Velocity":63,"Duration":76018,"SoundDuration":76018,"Delta":188295953},{"NoteNumber":86,"Velocity":80,"Duration":76018,"SoundDuration":76018,"Delta":188295953},{"NoteNumber":77,"Velocity":63,"Duration":76018,"SoundDuration":76018,"Delta":188295953},{"NoteNumber":62,"Velocity":73,"Duration":100806,"SoundDuration":100806,"Delta":188397311},{"NoteNumber":74,"Velocity":93,"Duration":100806,"SoundDuration":100806,"Delta":188397311},{"NoteNumber":67,"Velocity":73,"Duration":100806,"SoundDuration":100806,"Delta":188397311},{"NoteNumber":71,"Velocity":73,"Duration":100806,"SoundDuration":100806,"Delta":188397311},{"NoteNumber":55,"Velocity":94,"Duration":100806,"SoundDuration":100806,"Delta":188397311},{"NoteNumber":43,"Velocity":79,"Duration":100806,"SoundDuration":100806,"Delta":188397311},{"NoteNumber":57,"Velocity":62,"Duration":85719,"SoundDuration":85719,"Delta":188598924},{"NoteNumber":45,"Velocity":52,"Duration":85719,"SoundDuration":85719,"Delta":188598924},{"NoteNumber":72,"Velocity":58,"Duration":85719,"SoundDuration":85719,"Delta":188684643},{"NoteNumber":67,"Velocity":58,"Duration":85719,"SoundDuration":85719,"Delta":188684643},{"NoteNumber":74,"Velocity":70,"Duration":85719,"SoundDuration":85719,"Delta":188684643},{"NoteNumber":62,"Velocity":58,"Duration":85719,"SoundDuration":85719,"Delta":188684643},{"NoteNumber":59,"Velocity":62,"Duration":85719,"SoundDuration":85719,"Delta":188770362},{"NoteNumber":47,"Velocity":52,"Duration":85719,"SoundDuration":85719,"Delta":188770362},{"NoteNumber":67,"Velocity":58,"Duration":85719,"SoundDuration":85719,"Delta":188856082},{"NoteNumber":74,"Velocity":70,"Duration":85719,"SoundDuration":85719,"Delta":188856082},{"NoteNumber":62,"Velocity":58,"Duration":85719,"SoundDuration":85719,"Delta":188856082},{"NoteNumber":55,"Velocity":62,"Duration":105641,"SoundDuration":105641,"Delta":188941801},{"NoteNumber":43,"Velocity":52,"Duration":105641,"SoundDuration":105641,"Delta":188941801},{"NoteNumber":62,"Velocity":53,"Duration":79792,"SoundDuration":79792,"Delta":189047442},{"NoteNumber":74,"Velocity":67,"Duration":79792,"SoundDuration":79792,"Delta":189047442},{"NoteNumber":71,"Velocity":53,"Duration":79792,"SoundDuration":79792,"Delta":189047442},{"NoteNumber":60,"Velocity":75,"Duration":100677,"SoundDuration":100677,"Delta":189153833},{"NoteNumber":48,"Velocity":64,"Duration":100677,"SoundDuration":100677,"Delta":189153833},{"NoteNumber":76,"Velocity":63,"Duration":194433,"SoundDuration":194433,"Delta":189254511},{"NoteNumber":88,"Velocity":79,"Duration":194433,"SoundDuration":194433,"Delta":189254511},{"NoteNumber":84,"Velocity":63,"Duration":194433,"SoundDuration":194433,"Delta":189254511},{"NoteNumber":67,"Velocity":77,"Duration":187511,"SoundDuration":187511,"Delta":189355189},{"NoteNumber":62,"Velocity":65,"Duration":187511,"SoundDuration":187511,"Delta":189355189},{"NoteNumber":89,"Velocity":76,"Duration":193099,"SoundDuration":193099,"Delta":189448944},{"NoteNumber":77,"Velocity":60,"Duration":193099,"SoundDuration":193099,"Delta":189448944},{"NoteNumber":84,"Velocity":60,"Duration":193099,"SoundDuration":193099,"Delta":189448944},{"NoteNumber":67,"Velocity":78,"Duration":198688,"SoundDuration":198688,"Delta":189542700},{"NoteNumber":64,"Velocity":63,"Duration":198688,"SoundDuration":198688,"Delta":189542700},{"NoteNumber":91,"Velocity":78,"Duration":205878,"SoundDuration":205878,"Delta":189642044},{"NoteNumber":84,"Velocity":62,"Duration":205878,"SoundDuration":205878,"Delta":189642044},{"NoteNumber":79,"Velocity":62,"Duration":205878,"SoundDuration":205878,"Delta":189642044},{"NoteNumber":67,"Velocity":79,"Duration":213067,"SoundDuration":213067,"Delta":189741389},{"NoteNumber":60,"Velocity":64,"Duration":213067,"SoundDuration":213067,"Delta":189741389},{"NoteNumber":88,"Velocity":80,"Duration":79900,"SoundDuration":79900,"Delta":189847923},{"NoteNumber":76,"Velocity":65,"Duration":79900,"SoundDuration":79900,"Delta":189847923},{"NoteNumber":84,"Velocity":65,"Duration":79900,"SoundDuration":79900,"Delta":189847923},{"NoteNumber":89,"Velocity":90,"Duration":98425,"SoundDuration":98425,"Delta":189954457},{"NoteNumber":80,"Velocity":70,"Duration":98425,"SoundDuration":98425,"Delta":189954457},{"NoteNumber":83,"Velocity":75,"Duration":98425,"SoundDuration":98425,"Delta":189954457},{"NoteNumber":77,"Velocity":70,"Duration":98425,"SoundDuration":98425,"Delta":189954457},{"NoteNumber":62,"Velocity":90,"Duration":98425,"SoundDuration":98425,"Delta":189954457},{"NoteNumber":50,"Velocity":75,"Duration":98425,"SoundDuration":98425,"Delta":189954457},{"NoteNumber":65,"Velocity":52,"Duration":134738,"SoundDuration":134738,"Delta":190151307},{"NoteNumber":68,"Velocity":52,"Duration":134738,"SoundDuration":134738,"Delta":190151307},{"NoteNumber":71,"Velocity":62,"Duration":134738,"SoundDuration":134738,"Delta":190151307},{"NoteNumber":83,"Velocity":58,"Duration":134738,"SoundDuration":134738,"Delta":190241133},{"NoteNumber":80,"Velocity":58,"Duration":134738,"SoundDuration":134738,"Delta":190241133},{"NoteNumber":86,"Velocity":70,"Duration":134738,"SoundDuration":134738,"Delta":190241133},{"NoteNumber":74,"Velocity":58,"Duration":134738,"SoundDuration":134738,"Delta":190241133},{"NoteNumber":64,"Velocity":52,"Duration":134738,"SoundDuration":134738,"Delta":190330959},{"NoteNumber":68,"Velocity":52,"Duration":134738,"SoundDuration":134738,"Delta":190330959},{"NoteNumber":71,"Velocity":62,"Duration":134738,"SoundDuration":134738,"Delta":190330959},{"NoteNumber":76,"Velocity":58,"Duration":136703,"SoundDuration":136703,"Delta":190420784},{"NoteNumber":83,"Velocity":58,"Duration":136703,"SoundDuration":136703,"Delta":190420784},{"NoteNumber":88,"Velocity":70,"Duration":136703,"SoundDuration":136703,"Delta":190420784},{"NoteNumber":80,"Velocity":58,"Duration":136703,"SoundDuration":136703,"Delta":190420784},{"NoteNumber":62,"Velocity":52,"Duration":140633,"SoundDuration":140633,"Delta":190510610},{"NoteNumber":68,"Velocity":52,"Duration":140633,"SoundDuration":140633,"Delta":190510610},{"NoteNumber":71,"Velocity":62,"Duration":140633,"SoundDuration":140633,"Delta":190510610},{"NoteNumber":77,"Velocity":53,"Duration":93755,"SoundDuration":93755,"Delta":190604366},{"NoteNumber":80,"Velocity":53,"Duration":93755,"SoundDuration":93755,"Delta":190604366},{"NoteNumber":89,"Velocity":67,"Duration":93755,"SoundDuration":93755,"Delta":190604366},{"NoteNumber":83,"Velocity":53,"Duration":93755,"SoundDuration":93755,"Delta":190604366},{"NoteNumber":60,"Velocity":61,"Duration":152037,"SoundDuration":152037,"Delta":190698122},{"NoteNumber":72,"Velocity":72,"Duration":152037,"SoundDuration":152037,"Delta":190698122},{"NoteNumber":69,"Velocity":61,"Duration":152037,"SoundDuration":152037,"Delta":190698122},{"NoteNumber":76,"Velocity":60,"Duration":147373,"SoundDuration":147373,"Delta":190799480},{"NoteNumber":88,"Velocity":75,"Duration":147373,"SoundDuration":147373,"Delta":190799480},{"NoteNumber":81,"Velocity":60,"Duration":147373,"SoundDuration":147373,"Delta":190799480},{"NoteNumber":65,"Velocity":58,"Duration":138045,"SoundDuration":138045,"Delta":190900838},{"NoteNumber":68,"Velocity":69,"Duration":138045,"SoundDuration":138045,"Delta":190900838},{"NoteNumber":59,"Velocity":58,"Duration":138045,"SoundDuration":138045,"Delta":190900838},{"NoteNumber":80,"Velocity":54,"Duration":141052,"SoundDuration":141052,"Delta":190992868},{"NoteNumber":86,"Velocity":67,"Duration":141052,"SoundDuration":141052,"Delta":190992868},{"NoteNumber":74,"Velocity":54,"Duration":141052,"SoundDuration":141052,"Delta":190992868},{"NoteNumber":77,"Velocity":54,"Duration":141052,"SoundDuration":141052,"Delta":190992868},{"NoteNumber":57,"Velocity":56,"Duration":147068,"SoundDuration":147068,"Delta":191084899},{"NoteNumber":69,"Velocity":67,"Duration":147068,"SoundDuration":147068,"Delta":191084899},{"NoteNumber":64,"Velocity":56,"Duration":147068,"SoundDuration":147068,"Delta":191084899},{"NoteNumber":76,"Velocity":54,"Duration":153196,"SoundDuration":153196,"Delta":191182944},{"NoteNumber":84,"Velocity":67,"Duration":153196,"SoundDuration":153196,"Delta":191182944},{"NoteNumber":81,"Velocity":54,"Duration":153196,"SoundDuration":153196,"Delta":191182944},{"NoteNumber":72,"Velocity":54,"Duration":153196,"SoundDuration":153196,"Delta":191182944},{"NoteNumber":61,"Velocity":56,"Duration":165453,"SoundDuration":165453,"Delta":191280990},{"NoteNumber":64,"Velocity":67,"Duration":165453,"SoundDuration":165453,"Delta":191280990},{"NoteNumber":55,"Velocity":56,"Duration":165453,"SoundDuration":165453,"Delta":191280990},{"NoteNumber":76,"Velocity":56,"Duration":110302,"SoundDuration":110302,"Delta":191391292},{"NoteNumber":85,"Velocity":67,"Duration":110302,"SoundDuration":110302,"Delta":191391292},{"NoteNumber":73,"Velocity":56,"Duration":110302,"SoundDuration":110302,"Delta":191391292},{"NoteNumber":82,"Velocity":56,"Duration":110302,"SoundDuration":110302,"Delta":191391292},{"NoteNumber":53,"Velocity":67,"Duration":159585,"SoundDuration":159585,"Delta":191501594},{"NoteNumber":65,"Velocity":79,"Duration":159585,"SoundDuration":159585,"Delta":191501594},{"NoteNumber":62,"Velocity":67,"Duration":159585,"SoundDuration":159585,"Delta":191501594},{"NoteNumber":82,"Velocity":66,"Duration":157763,"SoundDuration":157763,"Delta":191607985},{"NoteNumber":74,"Velocity":66,"Duration":157763,"SoundDuration":157763,"Delta":191607985},{"NoteNumber":86,"Velocity":83,"Duration":157763,"SoundDuration":157763,"Delta":191607985},{"NoteNumber":77,"Velocity":66,"Duration":157763,"SoundDuration":157763,"Delta":191607985},{"NoteNumber":51,"Velocity":65,"Duration":154120,"SoundDuration":154120,"Delta":191714375},{"NoteNumber":63,"Velocity":77,"Duration":154120,"SoundDuration":154120,"Delta":191714375},{"NoteNumber":60,"Velocity":65,"Duration":154120,"SoundDuration":154120,"Delta":191714375},{"NoteNumber":57,"Velocity":65,"Duration":154120,"SoundDuration":154120,"Delta":191714375},{"NoteNumber":89,"Velocity":62,"Duration":159569,"SoundDuration":159569,"Delta":191817122},{"NoteNumber":93,"Velocity":78,"Duration":159569,"SoundDuration":159569,"Delta":191817122},{"NoteNumber":81,"Velocity":62,"Duration":159569,"SoundDuration":159569,"Delta":191817122},{"NoteNumber":84,"Velocity":62,"Duration":159569,"SoundDuration":159569,"Delta":191817122},{"NoteNumber":60,"Velocity":66,"Duration":174133,"SoundDuration":174133,"Delta":191919869},{"NoteNumber":52,"Velocity":66,"Duration":174133,"SoundDuration":174133,"Delta":191919869},{"NoteNumber":64,"Velocity":80,"Duration":174133,"SoundDuration":174133,"Delta":191919869},{"NoteNumber":57,"Velocity":66,"Duration":174133,"SoundDuration":174133,"Delta":191919869},{"NoteNumber":84,"Velocity":65,"Duration":186772,"SoundDuration":186772,"Delta":192033514},{"NoteNumber":93,"Velocity":83,"Duration":186772,"SoundDuration":186772,"Delta":192033514},{"NoteNumber":88,"Velocity":65,"Duration":186772,"SoundDuration":186772,"Delta":192033514},{"NoteNumber":81,"Velocity":65,"Duration":186772,"SoundDuration":186772,"Delta":192033514},{"NoteNumber":56,"Velocity":70,"Duration":220886,"SoundDuration":220886,"Delta":192154491},{"NoteNumber":59,"Velocity":70,"Duration":220886,"SoundDuration":220886,"Delta":192154491},{"NoteNumber":64,"Velocity":85,"Duration":220886,"SoundDuration":220886,"Delta":192154491},{"NoteNumber":52,"Velocity":70,"Duration":220886,"SoundDuration":220886,"Delta":192154491},{"NoteNumber":83,"Velocity":71,"Duration":178592,"SoundDuration":178592,"Delta":192286082},{"NoteNumber":92,"Velocity":87,"Duration":178592,"SoundDuration":178592,"Delta":192286082},{"NoteNumber":80,"Velocity":71,"Duration":178592,"SoundDuration":178592,"Delta":192286082},{"NoteNumber":88,"Velocity":71,"Duration":178592,"SoundDuration":178592,"Delta":192286082},{"NoteNumber":81,"Velocity":75,"Duration":487844,"SoundDuration":487844,"Delta":192464674},{"NoteNumber":84,"Velocity":76,"Duration":487844,"SoundDuration":487844,"Delta":192464674},{"NoteNumber":88,"Velocity":78,"Duration":487844,"SoundDuration":487844,"Delta":192464674},{"NoteNumber":93,"Velocity":92,"Duration":487844,"SoundDuration":487844,"Delta":192464674},{"NoteNumber":45,"Velocity":80,"Duration":487844,"SoundDuration":487844,"Delta":192464674},{"NoteNumber":52,"Velocity":80,"Duration":487844,"SoundDuration":487844,"Delta":192464674},{"NoteNumber":57,"Velocity":93,"Duration":487844,"SoundDuration":487844,"Delta":192464674},{"NoteNumber":72,"Velocity":76,"Duration":281955,"SoundDuration":281955,"Delta":192952519},{"NoteNumber":76,"Velocity":76,"Duration":281955,"SoundDuration":281955,"Delta":192952519},{"NoteNumber":81,"Velocity":83,"Duration":281955,"SoundDuration":281955,"Delta":192952519},{"NoteNumber":64,"Velocity":67,"Duration":281955,"SoundDuration":281955,"Delta":192952519},{"NoteNumber":69,"Velocity":77,"Duration":281955,"SoundDuration":281955,"Delta":192952519},{"NoteNumber":60,"Velocity":67,"Duration":281955,"SoundDuration":281955,"Delta":192952519},{"NoteNumber":76,"Velocity":38,"Duration":301189,"SoundDuration":301189,"Delta":193866442},{"NoteNumber":84,"Velocity":56,"Duration":57603,"SoundDuration":57603,"Delta":193934501},{"NoteNumber":57,"Velocity":38,"Duration":57603,"SoundDuration":57603,"Delta":193934501},{"NoteNumber":81,"Velocity":40,"Duration":58962,"SoundDuration":58962,"Delta":194049708},{"NoteNumber":64,"Velocity":32,"Duration":58962,"SoundDuration":58962,"Delta":194049708},{"NoteNumber":76,"Velocity":41,"Duration":60876,"SoundDuration":60876,"Delta":194167632},{"NoteNumber":52,"Velocity":32,"Duration":60876,"SoundDuration":60876,"Delta":194167632},{"NoteNumber":72,"Velocity":36,"Duration":62919,"SoundDuration":62919,"Delta":194289386},{"NoteNumber":64,"Velocity":32,"Duration":62919,"SoundDuration":62919,"Delta":194289386},{"NoteNumber":69,"Velocity":36,"Duration":68681,"SoundDuration":68681,"Delta":194415225},{"NoteNumber":60,"Velocity":34,"Duration":68681,"SoundDuration":68681,"Delta":194415225},{"NoteNumber":76,"Velocity":38,"Duration":60876,"SoundDuration":60876,"Delta":194552587},{"NoteNumber":64,"Velocity":31,"Duration":60876,"SoundDuration":60876,"Delta":194552587},{"NoteNumber":72,"Velocity":38,"Duration":64102,"SoundDuration":64102,"Delta":194674341},{"NoteNumber":57,"Velocity":29,"Duration":64102,"SoundDuration":64102,"Delta":194674341},{"NoteNumber":69,"Velocity":38,"Duration":53571,"SoundDuration":53571,"Delta":194802546},{"NoteNumber":64,"Velocity":30,"Duration":71428,"SoundDuration":71428,"Delta":194802546},{"NoteNumber":76,"Velocity":38,"Duration":306386,"SoundDuration":306386,"Delta":194873974},{"NoteNumber":83,"Velocity":64,"Duration":58049,"SoundDuration":58049,"Delta":194945403},{"NoteNumber":56,"Velocity":38,"Duration":58049,"SoundDuration":58049,"Delta":194945403},{"NoteNumber":80,"Velocity":40,"Duration":59429,"SoundDuration":59429,"Delta":195061502},{"NoteNumber":64,"Velocity":32,"Duration":59429,"SoundDuration":59429,"Delta":195061502},{"NoteNumber":76,"Velocity":41,"Duration":74850,"SoundDuration":74850,"Delta":195180361},{"NoteNumber":52,"Velocity":32,"Duration":74850,"SoundDuration":74850,"Delta":195180361},{"NoteNumber":86,"Velocity":41,"Duration":62919,"SoundDuration":62919,"Delta":195330062},{"NoteNumber":64,"Velocity":32,"Duration":62919,"SoundDuration":62919,"Delta":195330062},{"NoteNumber":83,"Velocity":45,"Duration":60483,"SoundDuration":60483,"Delta":195455901},{"NoteNumber":56,"Velocity":38,"Duration":60483,"SoundDuration":60483,"Delta":195455901},{"NoteNumber":76,"Velocity":41,"Duration":60483,"SoundDuration":60483,"Delta":195576868},{"NoteNumber":64,"Velocity":32,"Duration":60483,"SoundDuration":60483,"Delta":195576868},{"NoteNumber":80,"Velocity":38,"Duration":68813,"SoundDuration":68813,"Delta":195697836},{"NoteNumber":59,"Velocity":29,"Duration":68813,"SoundDuration":68813,"Delta":195697836},{"NoteNumber":76,"Velocity":38,"Duration":58168,"SoundDuration":58168,"Delta":195835463},{"NoteNumber":64,"Velocity":30,"Duration":74257,"SoundDuration":74257,"Delta":195835463},{"NoteNumber":76,"Velocity":38,"Duration":302583,"SoundDuration":302583,"Delta":195909721},{"NoteNumber":84,"Velocity":61,"Duration":57603,"SoundDuration":57603,"Delta":195977288},{"NoteNumber":57,"Velocity":38,"Duration":57603,"SoundDuration":57603,"Delta":195977288},{"NoteNumber":81,"Velocity":40,"Duration":59904,"SoundDuration":59904,"Delta":196092496},{"NoteNumber":64,"Velocity":32,"Duration":59904,"SoundDuration":59904,"Delta":196092496},{"NoteNumber":76,"Velocity":41,"Duration":71977,"SoundDuration":71977,"Delta":196212304},{"NoteNumber":52,"Velocity":32,"Duration":71977,"SoundDuration":71977,"Delta":196212304},{"NoteNumber":72,"Velocity":41,"Duration":63451,"SoundDuration":63451,"Delta":196356258},{"NoteNumber":64,"Velocity":32,"Duration":63451,"SoundDuration":63451,"Delta":196356258},{"NoteNumber":69,"Velocity":39,"Duration":60483,"SoundDuration":60483,"Delta":196483161},{"NoteNumber":60,"Velocity":36,"Duration":60483,"SoundDuration":60483,"Delta":196483161},{"NoteNumber":76,"Velocity":45,"Duration":60483,"SoundDuration":60483,"Delta":196604129},{"NoteNumber":64,"Velocity":32,"Duration":60483,"SoundDuration":60483,"Delta":196604129},{"NoteNumber":72,"Velocity":40,"Duration":64102,"SoundDuration":64102,"Delta":196725097},{"NoteNumber":57,"Velocity":29,"Duration":64102,"SoundDuration":64102,"Delta":196725097},{"NoteNumber":69,"Velocity":38,"Duration":54455,"SoundDuration":54455,"Delta":196853302},{"NoteNumber":64,"Velocity":30,"Duration":74257,"SoundDuration":74257,"Delta":196853302},{"NoteNumber":76,"Velocity":38,"Duration":323841,"SoundDuration":323841,"Delta":196927559},{"NoteNumber":83,"Velocity":59,"Duration":62396,"SoundDuration":62396,"Delta":197001817},{"NoteNumber":56,"Velocity":38,"Duration":62396,"SoundDuration":62396,"Delta":197001817},{"NoteNumber":80,"Velocity":40,"Duration":62395,"SoundDuration":62395,"Delta":197126609},{"NoteNumber":64,"Velocity":32,"Duration":62395,"SoundDuration":62395,"Delta":197126609},{"NoteNumber":76,"Velocity":37,"Duration":71292,"SoundDuration":71292,"Delta":197251401},{"NoteNumber":52,"Velocity":32,"Duration":71292,"SoundDuration":71292,"Delta":197251401},{"NoteNumber":76,"Velocity":31,"Duration":65104,"SoundDuration":65104,"Delta":197393986},{"NoteNumber":64,"Velocity":32,"Duration":65104,"SoundDuration":65104,"Delta":197393986},{"NoteNumber":71,"Velocity":38,"Duration":63025,"SoundDuration":63025,"Delta":197524195},{"NoteNumber":56,"Velocity":35,"Duration":63025,"SoundDuration":63025,"Delta":197524195},{"NoteNumber":68,"Velocity":34,"Duration":74999,"SoundDuration":74999,"Delta":197650245},{"NoteNumber":59,"Velocity":29,"Duration":74999,"SoundDuration":74999,"Delta":197650245},{"NoteNumber":64,"Velocity":39,"Duration":360303,"SoundDuration":360303,"Delta":197800245},{"NoteNumber":84,"Velocity":38,"Duration":303073,"SoundDuration":303073,"Delta":198092491},{"NoteNumber":88,"Velocity":38,"Duration":265050,"SoundDuration":265050,"Delta":198126520},{"NoteNumber":96,"Velocity":59,"Duration":57603,"SoundDuration":57603,"Delta":198160549},{"NoteNumber":57,"Velocity":38,"Duration":57603,"SoundDuration":57603,"Delta":198160549},{"NoteNumber":93,"Velocity":40,"Duration":59904,"SoundDuration":59904,"Delta":198275756},{"NoteNumber":64,"Velocity":32,"Duration":59904,"SoundDuration":59904,"Delta":198275756},{"NoteNumber":88,"Velocity":41,"Duration":59904,"SoundDuration":59904,"Delta":198395564},{"NoteNumber":52,"Velocity":32,"Duration":59904,"SoundDuration":59904,"Delta":198395564},{"NoteNumber":84,"Velocity":36,"Duration":62919,"SoundDuration":62919,"Delta":198515373},{"NoteNumber":64,"Velocity":32,"Duration":62919,"SoundDuration":62919,"Delta":198515373},{"NoteNumber":81,"Velocity":36,"Duration":68681,"SoundDuration":68681,"Delta":198641212},{"NoteNumber":60,"Velocity":34,"Duration":68681,"SoundDuration":68681,"Delta":198641212},{"NoteNumber":88,"Velocity":38,"Duration":60876,"SoundDuration":60876,"Delta":198778574},{"NoteNumber":64,"Velocity":31,"Duration":60876,"SoundDuration":60876,"Delta":198778574},{"NoteNumber":84,"Velocity":38,"Duration":64102,"SoundDuration":64102,"Delta":198900328},{"NoteNumber":57,"Velocity":29,"Duration":64102,"SoundDuration":64102,"Delta":198900328},{"NoteNumber":81,"Velocity":38,"Duration":60714,"SoundDuration":60714,"Delta":199028533},{"NoteNumber":64,"Velocity":30,"Duration":71428,"SoundDuration":71428,"Delta":199028533},{"NoteNumber":83,"Velocity":38,"Duration":314999,"SoundDuration":314999,"Delta":199099962},{"NoteNumber":88,"Velocity":38,"Duration":273096,"SoundDuration":273096,"Delta":199135676},{"NoteNumber":95,"Velocity":59,"Duration":59904,"SoundDuration":59904,"Delta":199171390},{"NoteNumber":56,"Velocity":38,"Duration":59904,"SoundDuration":59904,"Delta":199171390},{"NoteNumber":92,"Velocity":40,"Duration":61881,"SoundDuration":61881,"Delta":199291198},{"NoteNumber":64,"Velocity":32,"Duration":61881,"SoundDuration":61881,"Delta":199291198},{"NoteNumber":88,"Velocity":41,"Duration":74850,"SoundDuration":74850,"Delta":199414961},{"NoteNumber":52,"Velocity":32,"Duration":74850,"SoundDuration":74850,"Delta":199414961},{"NoteNumber":98,"Velocity":41,"Duration":62919,"SoundDuration":62919,"Delta":199564661},{"NoteNumber":64,"Velocity":32,"Duration":62919,"SoundDuration":62919,"Delta":199564661},{"NoteNumber":95,"Velocity":45,"Duration":60483,"SoundDuration":60483,"Delta":199690500},{"NoteNumber":56,"Velocity":38,"Duration":60483,"SoundDuration":60483,"Delta":199690500},{"NoteNumber":88,"Velocity":41,"Duration":60483,"SoundDuration":60483,"Delta":199811468},{"NoteNumber":64,"Velocity":32,"Duration":60483,"SoundDuration":60483,"Delta":199811468},{"NoteNumber":92,"Velocity":38,"Duration":71435,"SoundDuration":71435,"Delta":199932436},{"NoteNumber":59,"Velocity":29,"Duration":71435,"SoundDuration":71435,"Delta":199932436},{"NoteNumber":88,"Velocity":38,"Duration":64356,"SoundDuration":64356,"Delta":200075307},{"NoteNumber":64,"Velocity":30,"Duration":74257,"SoundDuration":74257,"Delta":200075307},{"NoteNumber":84,"Velocity":38,"Duration":315092,"SoundDuration":315092,"Delta":200149564},{"NoteNumber":88,"Velocity":38,"Duration":277183,"SoundDuration":277183,"Delta":200183348},{"NoteNumber":96,"Velocity":62,"Duration":61881,"SoundDuration":61881,"Delta":200217132},{"NoteNumber":57,"Velocity":38,"Duration":61881,"SoundDuration":61881,"Delta":200217132},{"NoteNumber":93,"Velocity":40,"Duration":61881,"SoundDuration":61881,"Delta":200340894},{"NoteNumber":64,"Velocity":32,"Duration":61881,"SoundDuration":61881,"Delta":200340894},{"NoteNumber":88,"Velocity":41,"Duration":71977,"SoundDuration":71977,"Delta":200464657},{"NoteNumber":52,"Velocity":32,"Duration":71977,"SoundDuration":71977,"Delta":200464657},{"NoteNumber":84,"Velocity":41,"Duration":63451,"SoundDuration":63451,"Delta":200608611},{"NoteNumber":64,"Velocity":32,"Duration":63451,"SoundDuration":63451,"Delta":200608611},{"NoteNumber":81,"Velocity":39,"Duration":60483,"SoundDuration":60483,"Delta":200735514},{"NoteNumber":60,"Velocity":36,"Duration":60483,"SoundDuration":60483,"Delta":200735514},{"NoteNumber":88,"Velocity":45,"Duration":60483,"SoundDuration":60483,"Delta":200856482},{"NoteNumber":64,"Velocity":32,"Duration":60483,"SoundDuration":60483,"Delta":200856482},{"NoteNumber":84,"Velocity":40,"Duration":64102,"SoundDuration":64102,"Delta":200977450},{"NoteNumber":57,"Velocity":29,"Duration":64102,"SoundDuration":64102,"Delta":200977450},{"NoteNumber":81,"Velocity":38,"Duration":59405,"SoundDuration":59405,"Delta":201105655},{"NoteNumber":64,"Velocity":30,"Duration":74257,"SoundDuration":74257,"Delta":201105655},{"NoteNumber":83,"Velocity":38,"Duration":319756,"SoundDuration":319756,"Delta":201179912},{"NoteNumber":88,"Velocity":38,"Duration":277513,"SoundDuration":277513,"Delta":201217041},{"NoteNumber":95,"Velocity":62,"Duration":61374,"SoundDuration":61374,"Delta":201254170},{"NoteNumber":56,"Velocity":38,"Duration":61374,"SoundDuration":61374,"Delta":201254170},{"NoteNumber":92,"Velocity":40,"Duration":61374,"SoundDuration":61374,"Delta":201376919},{"NoteNumber":64,"Velocity":32,"Duration":61374,"SoundDuration":61374,"Delta":201376919},{"NoteNumber":88,"Velocity":37,"Duration":71292,"SoundDuration":71292,"Delta":201499669},{"NoteNumber":52,"Velocity":32,"Duration":71292,"SoundDuration":71292,"Delta":201499669},{"NoteNumber":83,"Velocity":31,"Duration":65104,"SoundDuration":65104,"Delta":201642254},{"NoteNumber":64,"Velocity":32,"Duration":65104,"SoundDuration":65104,"Delta":201642254},{"NoteNumber":80,"Velocity":37,"Duration":63025,"SoundDuration":63025,"Delta":201772462},{"NoteNumber":59,"Velocity":33,"Duration":63025,"SoundDuration":63025,"Delta":201772462},{"NoteNumber":71,"Velocity":31,"Duration":74999,"SoundDuration":74999,"Delta":201898513},{"NoteNumber":68,"Velocity":26,"Duration":74999,"SoundDuration":74999,"Delta":201898513},{"NoteNumber":76,"Velocity":37,"Duration":241504,"SoundDuration":241504,"Delta":202048513},{"NoteNumber":64,"Velocity":32,"Duration":323769,"SoundDuration":323769,"Delta":202048513},{"NoteNumber":76,"Velocity":49,"Duration":300270,"SoundDuration":300270,"Delta":202304224},{"NoteNumber":88,"Velocity":70,"Duration":115207,"SoundDuration":115207,"Delta":202372282},{"NoteNumber":61,"Velocity":49,"Duration":115207,"SoundDuration":115207,"Delta":202372282},{"NoteNumber":85,"Velocity":52,"Duration":117004,"SoundDuration":117004,"Delta":202487489},{"NoteNumber":69,"Velocity":41,"Duration":117004,"SoundDuration":117004,"Delta":202487489},{"NoteNumber":81,"Velocity":53,"Duration":119808,"SoundDuration":119808,"Delta":202604494},{"NoteNumber":57,"Velocity":41,"Duration":119808,"SoundDuration":119808,"Delta":202604494},{"NoteNumber":76,"Velocity":46,"Duration":125839,"SoundDuration":125839,"Delta":202724302},{"NoteNumber":69,"Velocity":41,"Duration":125839,"SoundDuration":125839,"Delta":202724302},{"NoteNumber":73,"Velocity":44,"Duration":64543,"SoundDuration":64543,"Delta":202850141},{"NoteNumber":69,"Velocity":51,"Duration":121753,"SoundDuration":121753,"Delta":202979229},{"NoteNumber":67,"Velocity":54,"Duration":128205,"SoundDuration":128205,"Delta":203100982},{"NoteNumber":64,"Velocity":56,"Duration":132508,"SoundDuration":132508,"Delta":203229188},{"NoteNumber":65,"Velocity":63,"Duration":60000,"SoundDuration":60000,"Delta":203361696},{"NoteNumber":50,"Velocity":54,"Duration":251348,"SoundDuration":251348,"Delta":203361696},{"NoteNumber":57,"Velocity":54,"Duration":251348,"SoundDuration":251348,"Delta":203361696},{"NoteNumber":62,"Velocity":57,"Duration":65674,"SoundDuration":65674,"Delta":203481696},{"NoteNumber":86,"Velocity":61,"Duration":61374,"SoundDuration":61374,"Delta":203613045},{"NoteNumber":81,"Velocity":57,"Duration":62919,"SoundDuration":62919,"Delta":203735794},{"NoteNumber":77,"Velocity":56,"Duration":60483,"SoundDuration":60483,"Delta":203861633},{"NoteNumber":74,"Velocity":49,"Duration":60483,"SoundDuration":60483,"Delta":203982601},{"NoteNumber":65,"Velocity":53,"Duration":64102,"SoundDuration":64102,"Delta":204103569},{"NoteNumber":62,"Velocity":53,"Duration":66831,"SoundDuration":66831,"Delta":204231774},{"NoteNumber":79,"Velocity":46,"Duration":308058,"SoundDuration":308058,"Delta":204306031},{"NoteNumber":86,"Velocity":70,"Duration":120000,"SoundDuration":120000,"Delta":204374090},{"NoteNumber":59,"Velocity":46,"Duration":120000,"SoundDuration":120000,"Delta":204374090},{"NoteNumber":83,"Velocity":49,"Duration":120000,"SoundDuration":120000,"Delta":204494090},{"NoteNumber":67,"Velocity":38,"Duration":120000,"SoundDuration":120000,"Delta":204494090},{"NoteNumber":79,"Velocity":50,"Duration":120000,"SoundDuration":120000,"Delta":204614090},{"NoteNumber":55,"Velocity":38,"Duration":120000,"SoundDuration":120000,"Delta":204614090},{"NoteNumber":77,"Velocity":44,"Duration":125839,"SoundDuration":125839,"Delta":204734090},{"NoteNumber":67,"Velocity":38,"Duration":125839,"SoundDuration":125839,"Delta":204734090},{"NoteNumber":74,"Velocity":41,"Duration":64543,"SoundDuration":64543,"Delta":204859929},{"NoteNumber":71,"Velocity":48,"Duration":121753,"SoundDuration":121753,"Delta":204989016},{"NoteNumber":65,"Velocity":51,"Duration":128205,"SoundDuration":128205,"Delta":205110770},{"NoteNumber":62,"Velocity":53,"Duration":132508,"SoundDuration":132508,"Delta":205238975},{"NoteNumber":64,"Velocity":60,"Duration":60000,"SoundDuration":60000,"Delta":205371484},{"NoteNumber":48,"Velocity":51,"Duration":251348,"SoundDuration":251348,"Delta":205371484},{"NoteNumber":55,"Velocity":51,"Duration":251348,"SoundDuration":251348,"Delta":205371484},{"NoteNumber":60,"Velocity":54,"Duration":65674,"SoundDuration":65674,"Delta":205491484},{"NoteNumber":84,"Velocity":57,"Duration":61374,"SoundDuration":61374,"Delta":205622832},{"NoteNumber":79,"Velocity":54,"Duration":62919,"SoundDuration":62919,"Delta":205745582},{"NoteNumber":76,"Velocity":53,"Duration":60483,"SoundDuration":60483,"Delta":205871421},{"NoteNumber":72,"Velocity":46,"Duration":60483,"SoundDuration":60483,"Delta":205992388},{"NoteNumber":64,"Velocity":50,"Duration":64102,"SoundDuration":64102,"Delta":206113356},{"NoteNumber":60,"Velocity":45,"Duration":92603,"SoundDuration":92603,"Delta":206241561},{"NoteNumber":83,"Velocity":54,"Duration":61374,"SoundDuration":61374,"Delta":206426769},{"NoteNumber":65,"Velocity":38,"Duration":245498,"SoundDuration":245498,"Delta":206426769},{"NoteNumber":56,"Velocity":32,"Duration":245498,"SoundDuration":245498,"Delta":206426769},{"NoteNumber":62,"Velocity":32,"Duration":245498,"SoundDuration":245498,"Delta":206426769},{"NoteNumber":81,"Velocity":53,"Duration":61374,"SoundDuration":61374,"Delta":206549519},{"NoteNumber":89,"Velocity":40,"Duration":61374,"SoundDuration":61374,"Delta":206549519},{"NoteNumber":80,"Velocity":53,"Duration":60465,"SoundDuration":60465,"Delta":206672268},{"NoteNumber":77,"Velocity":52,"Duration":58502,"SoundDuration":58502,"Delta":206791236},{"NoteNumber":86,"Velocity":40,"Duration":58502,"SoundDuration":58502,"Delta":206791236},{"NoteNumber":76,"Velocity":53,"Duration":58962,"SoundDuration":58962,"Delta":206908409},{"NoteNumber":74,"Velocity":51,"Duration":59351,"SoundDuration":59351,"Delta":207026334},{"NoteNumber":83,"Velocity":38,"Duration":59351,"SoundDuration":59351,"Delta":207026334},{"NoteNumber":72,"Velocity":52,"Duration":59429,"SoundDuration":59429,"Delta":207145115},{"NoteNumber":71,"Velocity":51,"Duration":59904,"SoundDuration":59904,"Delta":207264393},{"NoteNumber":80,"Velocity":37,"Duration":59904,"SoundDuration":59904,"Delta":207264393},{"NoteNumber":69,"Velocity":51,"Duration":60386,"SoundDuration":60386,"Delta":207384378},{"NoteNumber":64,"Velocity":38,"Duration":241546,"SoundDuration":241546,"Delta":207384378},{"NoteNumber":60,"Velocity":32,"Duration":241546,"SoundDuration":241546,"Delta":207384378},{"NoteNumber":67,"Velocity":50,"Duration":60386,"SoundDuration":60386,"Delta":207505151},{"NoteNumber":76,"Velocity":40,"Duration":60386,"SoundDuration":60386,"Delta":207505151},{"NoteNumber":65,"Velocity":45,"Duration":60386,"SoundDuration":60386,"Delta":207625924},{"NoteNumber":64,"Velocity":45,"Duration":60386,"SoundDuration":60386,"Delta":207746697},{"NoteNumber":72,"Velocity":39,"Duration":60386,"SoundDuration":60386,"Delta":207746697},{"NoteNumber":62,"Velocity":45,"Duration":60386,"SoundDuration":60386,"Delta":207867470},{"NoteNumber":60,"Velocity":45,"Duration":60386,"SoundDuration":60386,"Delta":207988243},{"NoteNumber":69,"Velocity":38,"Duration":60386,"SoundDuration":60386,"Delta":207988243},{"NoteNumber":59,"Velocity":45,"Duration":60386,"SoundDuration":60386,"Delta":208109016},{"NoteNumber":57,"Velocity":44,"Duration":68058,"SoundDuration":68058,"Delta":208229789},{"NoteNumber":64,"Velocity":36,"Duration":68058,"SoundDuration":68058,"Delta":208229789},{"NoteNumber":65,"Velocity":45,"Duration":60386,"SoundDuration":60386,"Delta":208365906},{"NoteNumber":50,"Velocity":45,"Duration":60386,"SoundDuration":60386,"Delta":208486679},{"NoteNumber":81,"Velocity":50,"Duration":60386,"SoundDuration":60386,"Delta":208607452},{"NoteNumber":71,"Velocity":42,"Duration":60386,"SoundDuration":60386,"Delta":208607452},{"NoteNumber":77,"Velocity":45,"Duration":60386,"SoundDuration":60386,"Delta":208728225},{"NoteNumber":74,"Velocity":37,"Duration":60386,"SoundDuration":60386,"Delta":208728225},{"NoteNumber":68,"Velocity":45,"Duration":60386,"SoundDuration":60386,"Delta":208848998},{"NoteNumber":52,"Velocity":45,"Duration":60386,"SoundDuration":60386,"Delta":208969771},{"NoteNumber":83,"Velocity":50,"Duration":63451,"SoundDuration":63451,"Delta":209090544},{"NoteNumber":71,"Velocity":42,"Duration":63451,"SoundDuration":63451,"Delta":209090544},{"NoteNumber":80,"Velocity":44,"Duration":63451,"SoundDuration":63451,"Delta":209217447},{"NoteNumber":74,"Velocity":36,"Duration":63451,"SoundDuration":63451,"Delta":209217447},{"NoteNumber":81,"Velocity":45,"Duration":71977,"SoundDuration":71977,"Delta":209344351},{"NoteNumber":72,"Velocity":37,"Duration":71977,"SoundDuration":71977,"Delta":209344351},{"NoteNumber":69,"Velocity":42,"Duration":84080,"SoundDuration":84080,"Delta":209488305},{"NoteNumber":64,"Velocity":35,"Duration":84080,"SoundDuration":84080,"Delta":209488305},{"NoteNumber":60,"Velocity":42,"Duration":99734,"SoundDuration":99734,"Delta":209656466},{"NoteNumber":57,"Velocity":37,"Duration":146484,"SoundDuration":146484,"Delta":209855934},{"NoteNumber":45,"Velocity":38,"Duration":585937,"SoundDuration":585937,"Delta":210148903},{"NoteNumber":93,"Velocity":55,"Duration":1737669,"SoundDuration":1737669,"Delta":211312028},{"NoteNumber":81,"Velocity":38,"Duration":2347994,"SoundDuration":2347994,"Delta":211312028},{"NoteNumber":84,"Velocity":38,"Duration":2347994,"SoundDuration":2347994,"Delta":211312028},{"NoteNumber":69,"Velocity":38,"Duration":2347994,"SoundDuration":2347994,"Delta":211312028},{"NoteNumber":76,"Velocity":17,"Duration":98422,"SoundDuration":98422,"Delta":211312028},{"NoteNumber":77,"Velocity":17,"Duration":96179,"SoundDuration":96179,"Delta":211410451},{"NoteNumber":76,"Velocity":18,"Duration":94451,"SoundDuration":94451,"Delta":211506630},{"NoteNumber":77,"Velocity":18,"Duration":93747,"SoundDuration":93747,"Delta":211601082},{"NoteNumber":76,"Velocity":18,"Duration":93471,"SoundDuration":93471,"Delta":211694830},{"NoteNumber":77,"Velocity":18,"Duration":92378,"SoundDuration":92378,"Delta":211788302},{"NoteNumber":76,"Velocity":18,"Duration":91041,"SoundDuration":91041,"Delta":211880680},{"NoteNumber":77,"Velocity":20,"Duration":90909,"SoundDuration":90909,"Delta":211971722},{"NoteNumber":76,"Velocity":20,"Duration":90909,"SoundDuration":90909,"Delta":212062631},{"NoteNumber":77,"Velocity":22,"Duration":91307,"SoundDuration":91307,"Delta":212153540},{"NoteNumber":76,"Velocity":23,"Duration":94185,"SoundDuration":94185,"Delta":212244848},{"NoteNumber":77,"Velocity":23,"Duration":98907,"SoundDuration":98907,"Delta":212339033},{"NoteNumber":76,"Velocity":22,"Duration":103930,"SoundDuration":103930,"Delta":212437940},{"NoteNumber":77,"Velocity":22,"Duration":103930,"SoundDuration":103930,"Delta":212541870},{"NoteNumber":76,"Velocity":22,"Duration":99829,"SoundDuration":99829,"Delta":212645800},{"NoteNumber":77,"Velocity":22,"Duration":97962,"SoundDuration":97962,"Delta":212745630},{"NoteNumber":76,"Velocity":22,"Duration":99679,"SoundDuration":99679,"Delta":212843593},{"NoteNumber":77,"Velocity":22,"Duration":106424,"SoundDuration":106424,"Delta":212943273},{"NoteNumber":88,"Velocity":52,"Duration":306864,"SoundDuration":306864,"Delta":213049697},{"NoteNumber":76,"Velocity":22,"Duration":105322,"SoundDuration":105322,"Delta":213049697},{"NoteNumber":77,"Velocity":22,"Duration":101673,"SoundDuration":101673,"Delta":213155019},{"NoteNumber":76,"Velocity":22,"Duration":99868,"SoundDuration":99868,"Delta":213256692},{"NoteNumber":96,"Velocity":54,"Duration":303460,"SoundDuration":303460,"Delta":213356561},{"NoteNumber":77,"Velocity":22,"Duration":104023,"SoundDuration":104023,"Delta":213356561},{"NoteNumber":76,"Velocity":22,"Duration":97828,"SoundDuration":97828,"Delta":213460585},{"NoteNumber":77,"Velocity":22,"Duration":101608,"SoundDuration":101608,"Delta":213558413},{"NoteNumber":95,"Velocity":54,"Duration":308889,"SoundDuration":308889,"Delta":213660022},{"NoteNumber":83,"Velocity":37,"Duration":2362742,"SoundDuration":2362742,"Delta":213660022},{"NoteNumber":88,"Velocity":37,"Duration":1452565,"SoundDuration":1452565,"Delta":213660022},{"NoteNumber":69,"Velocity":38,"Duration":2362742,"SoundDuration":2362742,"Delta":213660022},{"NoteNumber":74,"Velocity":38,"Duration":2362742,"SoundDuration":2362742,"Delta":213660022},{"NoteNumber":76,"Velocity":21,"Duration":104101,"SoundDuration":104101,"Delta":213660022},{"NoteNumber":77,"Velocity":21,"Duration":104101,"SoundDuration":104101,"Delta":213764124},{"NoteNumber":76,"Velocity":21,"Duration":100686,"SoundDuration":100686,"Delta":213868225},{"NoteNumber":93,"Velocity":52,"Duration":283465,"SoundDuration":283465,"Delta":213968912},{"NoteNumber":77,"Velocity":22,"Duration":96768,"SoundDuration":96768,"Delta":213968912},{"NoteNumber":76,"Velocity":22,"Duration":94451,"SoundDuration":94451,"Delta":214065680},{"NoteNumber":77,"Velocity":22,"Duration":92245,"SoundDuration":92245,"Delta":214160132},{"NoteNumber":92,"Velocity":51,"Duration":276967,"SoundDuration":276967,"Delta":214252377},{"NoteNumber":76,"Velocity":23,"Duration":90390,"SoundDuration":90390,"Delta":214252377},{"NoteNumber":77,"Velocity":24,"Duration":91980,"SoundDuration":91980,"Delta":214342768},{"NoteNumber":76,"Velocity":24,"Duration":94597,"SoundDuration":94597,"Delta":214434748},{"NoteNumber":90,"Velocity":49,"Duration":290784,"SoundDuration":290784,"Delta":214529345},{"NoteNumber":77,"Velocity":25,"Duration":96469,"SoundDuration":96469,"Delta":214529345},{"NoteNumber":76,"Velocity":26,"Duration":96469,"SoundDuration":96469,"Delta":214625815},{"NoteNumber":77,"Velocity":29,"Duration":97845,"SoundDuration":97845,"Delta":214722284},{"NoteNumber":88,"Velocity":51,"Duration":1202635,"SoundDuration":1202635,"Delta":214820130},{"NoteNumber":76,"Velocity":31,"Duration":99354,"SoundDuration":99354,"Delta":214820130},{"NoteNumber":77,"Velocity":30,"Duration":97364,"SoundDuration":97364,"Delta":214919484},{"NoteNumber":76,"Velocity":29,"Duration":95739,"SoundDuration":95739,"Delta":215016848},{"NoteNumber":90,"Velocity":49,"Duration":282236,"SoundDuration":282236,"Delta":215112588},{"NoteNumber":77,"Velocity":29,"Duration":93890,"SoundDuration":93890,"Delta":215112588},{"NoteNumber":76,"Velocity":29,"Duration":93471,"SoundDuration":93471,"Delta":215206478},{"NoteNumber":77,"Velocity":27,"Duration":94874,"SoundDuration":94874,"Delta":215299950},{"NoteNumber":92,"Velocity":52,"Duration":307317,"SoundDuration":307317,"Delta":215394824},{"NoteNumber":76,"Velocity":25,"Duration":95756,"SoundDuration":95756,"Delta":215394824},{"NoteNumber":77,"Velocity":25,"Duration":101965,"SoundDuration":101965,"Delta":215490580},{"NoteNumber":76,"Velocity":25,"Duration":109595,"SoundDuration":109595,"Delta":215592546},{"NoteNumber":88,"Velocity":54,"Duration":320623,"SoundDuration":320623,"Delta":215702142},{"NoteNumber":77,"Velocity":25,"Duration":106457,"SoundDuration":106457,"Delta":215702142},{"NoteNumber":76,"Velocity":25,"Duration":106929,"SoundDuration":106929,"Delta":215808600},{"NoteNumber":77,"Velocity":23,"Duration":107236,"SoundDuration":107236,"Delta":215915529},{"NoteNumber":93,"Velocity":57,"Duration":1089409,"SoundDuration":1089409,"Delta":216022765},{"NoteNumber":84,"Velocity":39,"Duration":2277752,"SoundDuration":2277752,"Delta":216022765},{"NoteNumber":88,"Velocity":39,"Duration":2277752,"SoundDuration":2277752,"Delta":216022765},{"NoteNumber":72,"Velocity":38,"Duration":2277752,"SoundDuration":2277752,"Delta":216022765},{"NoteNumber":69,"Velocity":38,"Duration":2277752,"SoundDuration":2277752,"Delta":216022765},{"NoteNumber":76,"Velocity":19,"Duration":105280,"SoundDuration":105280,"Delta":216022765},{"NoteNumber":77,"Velocity":23,"Duration":96808,"SoundDuration":96808,"Delta":216128045},{"NoteNumber":76,"Velocity":24,"Duration":97005,"SoundDuration":97005,"Delta":216224854},{"NoteNumber":77,"Velocity":24,"Duration":93453,"SoundDuration":93453,"Delta":216321860},{"NoteNumber":76,"Velocity":25,"Duration":90053,"SoundDuration":90053,"Delta":216415313},{"NoteNumber":77,"Velocity":25,"Duration":94849,"SoundDuration":94849,"Delta":216505366},{"NoteNumber":76,"Velocity":25,"Duration":92281,"SoundDuration":92281,"Delta":216600216},{"NoteNumber":77,"Velocity":26,"Duration":90312,"SoundDuration":90312,"Delta":216692497},{"NoteNumber":76,"Velocity":26,"Duration":92500,"SoundDuration":92500,"Delta":216782809},{"NoteNumber":77,"Velocity":26,"Duration":95872,"SoundDuration":95872,"Delta":216875310},{"NoteNumber":76,"Velocity":28,"Duration":95007,"SoundDuration":95007,"Delta":216971182},{"NoteNumber":95,"Velocity":47,"Duration":46772,"SoundDuration":46772,"Delta":217019416},{"NoteNumber":93,"Velocity":42,"Duration":91971,"SoundDuration":91971,"Delta":217066189},{"NoteNumber":77,"Velocity":28,"Duration":91971,"SoundDuration":91971,"Delta":217066189},{"NoteNumber":92,"Velocity":42,"Duration":45985,"SoundDuration":45985,"Delta":217112175},{"NoteNumber":93,"Velocity":58,"Duration":275913,"SoundDuration":275913,"Delta":217158160},{"NoteNumber":76,"Velocity":28,"Duration":91971,"SoundDuration":91971,"Delta":217158160},{"NoteNumber":77,"Velocity":29,"Duration":91971,"SoundDuration":91971,"Delta":217250131},{"NoteNumber":76,"Velocity":29,"Duration":91971,"SoundDuration":91971,"Delta":217342102},{"NoteNumber":95,"Velocity":54,"Duration":276048,"SoundDuration":276048,"Delta":217434073},{"NoteNumber":77,"Velocity":29,"Duration":91971,"SoundDuration":91971,"Delta":217434073},{"NoteNumber":76,"Velocity":29,"Duration":91971,"SoundDuration":91971,"Delta":217526044},{"NoteNumber":77,"Velocity":29,"Duration":92106,"SoundDuration":92106,"Delta":217618015},{"NoteNumber":96,"Velocity":55,"Duration":279173,"SoundDuration":279173,"Delta":217710122},{"NoteNumber":76,"Velocity":29,"Duration":93057,"SoundDuration":93057,"Delta":217710122},{"NoteNumber":77,"Velocity":29,"Duration":93057,"SoundDuration":93057,"Delta":217803180},{"NoteNumber":76,"Velocity":27,"Duration":93057,"SoundDuration":93057,"Delta":217896238},{"NoteNumber":98,"Velocity":58,"Duration":311222,"SoundDuration":311222,"Delta":217989295},{"NoteNumber":77,"Velocity":25,"Duration":97077,"SoundDuration":97077,"Delta":217989295},{"NoteNumber":76,"Velocity":25,"Duration":103442,"SoundDuration":103442,"Delta":218086373},{"NoteNumber":77,"Velocity":25,"Duration":110701,"SoundDuration":110701,"Delta":218189816},{"NoteNumber":86,"Velocity":41,"Duration":2288792,"SoundDuration":2288792,"Delta":218300518},{"NoteNumber":99,"Velocity":62,"Duration":821450,"SoundDuration":821450,"Delta":218300518},{"NoteNumber":92,"Velocity":41,"Duration":2288792,"SoundDuration":2288792,"Delta":218300518},{"NoteNumber":71,"Velocity":38,"Duration":2288792,"SoundDuration":2288792,"Delta":218300518},{"NoteNumber":69,"Velocity":38,"Duration":2288792,"SoundDuration":2288792,"Delta":218300518},{"NoteNumber":76,"Velocity":26,"Duration":107638,"SoundDuration":107638,"Delta":218300518},{"NoteNumber":77,"Velocity":22,"Duration":92378,"SoundDuration":92378,"Delta":218408156},{"NoteNumber":76,"Velocity":23,"Duration":91041,"SoundDuration":91041,"Delta":218500535},{"NoteNumber":77,"Velocity":24,"Duration":89875,"SoundDuration":89875,"Delta":218591577},{"NoteNumber":76,"Velocity":24,"Duration":88493,"SoundDuration":88493,"Delta":218681452},{"NoteNumber":77,"Velocity":24,"Duration":87267,"SoundDuration":87267,"Delta":218769946},{"NoteNumber":76,"Velocity":26,"Duration":87267,"SoundDuration":87267,"Delta":218857213},{"NoteNumber":77,"Velocity":28,"Duration":88245,"SoundDuration":88245,"Delta":218944480},{"NoteNumber":76,"Velocity":28,"Duration":89242,"SoundDuration":89242,"Delta":219032726},{"NoteNumber":100,"Velocity":54,"Duration":302118,"SoundDuration":302118,"Delta":219121968},{"NoteNumber":77,"Velocity":30,"Duration":91988,"SoundDuration":91988,"Delta":219121968},{"NoteNumber":76,"Velocity":31,"Duration":96334,"SoundDuration":96334,"Delta":219213957},{"NoteNumber":77,"Velocity":31,"Duration":113795,"SoundDuration":113795,"Delta":219310291},{"NoteNumber":88,"Velocity":55,"Duration":1165224,"SoundDuration":1165224,"Delta":219424086},{"NoteNumber":76,"Velocity":30,"Duration":97832,"SoundDuration":97832,"Delta":219424086},{"NoteNumber":77,"Velocity":30,"Duration":95745,"SoundDuration":95745,"Delta":219521919},{"NoteNumber":76,"Velocity":30,"Duration":93064,"SoundDuration":93064,"Delta":219617665},{"NoteNumber":77,"Velocity":30,"Duration":90393,"SoundDuration":90393,"Delta":219710729},{"NoteNumber":76,"Velocity":29,"Duration":90912,"SoundDuration":90912,"Delta":219801122},{"NoteNumber":77,"Velocity":26,"Duration":92378,"SoundDuration":92378,"Delta":219892034},{"NoteNumber":76,"Velocity":26,"Duration":93474,"SoundDuration":93474,"Delta":219984413},{"NoteNumber":77,"Velocity":25,"Duration":92378,"SoundDuration":92378,"Delta":220077887},{"NoteNumber":76,"Velocity":24,"Duration":93747,"SoundDuration":93747,"Delta":220170266},{"NoteNumber":77,"Velocity":24,"Duration":95627,"SoundDuration":95627,"Delta":220264014},{"NoteNumber":76,"Velocity":23,"Duration":104389,"SoundDuration":104389,"Delta":220359641},{"NoteNumber":77,"Velocity":21,"Duration":125280,"SoundDuration":125280,"Delta":220464030},{"NoteNumber":84,"Velocity":38,"Duration":2362288,"SoundDuration":2362288,"Delta":220589310},{"NoteNumber":93,"Velocity":55,"Duration":1751963,"SoundDuration":1751963,"Delta":220589310},{"NoteNumber":81,"Velocity":38,"Duration":2362288,"SoundDuration":2362288,"Delta":220589310},{"NoteNumber":69,"Velocity":38,"Duration":2362288,"SoundDuration":2362288,"Delta":220589310},{"NoteNumber":76,"Velocity":21,"Duration":113978,"SoundDuration":113978,"Delta":220589310},{"NoteNumber":77,"Velocity":21,"Duration":94918,"SoundDuration":94918,"Delta":220703289},{"NoteNumber":76,"Velocity":21,"Duration":94451,"SoundDuration":94451,"Delta":220798208},{"NoteNumber":77,"Velocity":22,"Duration":93747,"SoundDuration":93747,"Delta":220892659},{"NoteNumber":76,"Velocity":24,"Duration":93471,"SoundDuration":93471,"Delta":220986407},{"NoteNumber":77,"Velocity":24,"Duration":92378,"SoundDuration":92378,"Delta":221079879},{"NoteNumber":76,"Velocity":25,"Duration":91041,"SoundDuration":91041,"Delta":221172257},{"NoteNumber":77,"Velocity":26,"Duration":90909,"SoundDuration":90909,"Delta":221263299},{"NoteNumber":76,"Velocity":26,"Duration":90909,"SoundDuration":90909,"Delta":221354209},{"NoteNumber":77,"Velocity":28,"Duration":91307,"SoundDuration":91307,"Delta":221445118},{"NoteNumber":76,"Velocity":28,"Duration":94185,"SoundDuration":94185,"Delta":221536425},{"NoteNumber":77,"Velocity":28,"Duration":98907,"SoundDuration":98907,"Delta":221630610},{"NoteNumber":76,"Velocity":27,"Duration":103930,"SoundDuration":103930,"Delta":221729518},{"NoteNumber":77,"Velocity":27,"Duration":103930,"SoundDuration":103930,"Delta":221833448},{"NoteNumber":76,"Velocity":27,"Duration":99829,"SoundDuration":99829,"Delta":221937378},{"NoteNumber":77,"Velocity":27,"Duration":97962,"SoundDuration":97962,"Delta":222037208},{"NoteNumber":76,"Velocity":25,"Duration":99679,"SoundDuration":99679,"Delta":222135170},{"NoteNumber":77,"Velocity":23,"Duration":106424,"SoundDuration":106424,"Delta":222234850},{"NoteNumber":88,"Velocity":56,"Duration":306864,"SoundDuration":306864,"Delta":222341274},{"NoteNumber":76,"Velocity":23,"Duration":105322,"SoundDuration":105322,"Delta":222341274},{"NoteNumber":77,"Velocity":23,"Duration":101673,"SoundDuration":101673,"Delta":222446596},{"NoteNumber":76,"Velocity":23,"Duration":99868,"SoundDuration":99868,"Delta":222548270},{"NoteNumber":96,"Velocity":55,"Duration":303460,"SoundDuration":303460,"Delta":222648139},{"NoteNumber":77,"Velocity":23,"Duration":104023,"SoundDuration":104023,"Delta":222648139},{"NoteNumber":76,"Velocity":23,"Duration":97828,"SoundDuration":97828,"Delta":222752162},{"NoteNumber":77,"Velocity":23,"Duration":101608,"SoundDuration":101608,"Delta":222849991},{"NoteNumber":95,"Velocity":54,"Duration":308889,"SoundDuration":308889,"Delta":222951599},{"NoteNumber":83,"Velocity":37,"Duration":2362500,"SoundDuration":2362500,"Delta":222951599},{"NoteNumber":88,"Velocity":37,"Duration":1452565,"SoundDuration":1452565,"Delta":222951599},{"NoteNumber":69,"Velocity":38,"Duration":2362500,"SoundDuration":2362500,"Delta":222951599},{"NoteNumber":74,"Velocity":38,"Duration":2362500,"SoundDuration":2362500,"Delta":222951599},{"NoteNumber":76,"Velocity":23,"Duration":104101,"SoundDuration":104101,"Delta":222951599},{"NoteNumber":77,"Velocity":23,"Duration":104101,"SoundDuration":104101,"Delta":223055701},{"NoteNumber":76,"Velocity":23,"Duration":100686,"SoundDuration":100686,"Delta":223159803},{"NoteNumber":93,"Velocity":51,"Duration":283465,"SoundDuration":283465,"Delta":223260489},{"NoteNumber":77,"Velocity":23,"Duration":96768,"SoundDuration":96768,"Delta":223260489},{"NoteNumber":76,"Velocity":25,"Duration":94451,"SoundDuration":94451,"Delta":223357257},{"NoteNumber":77,"Velocity":22,"Duration":92245,"SoundDuration":92245,"Delta":223451709},{"NoteNumber":92,"Velocity":51,"Duration":276967,"SoundDuration":276967,"Delta":223543955},{"NoteNumber":76,"Velocity":22,"Duration":90390,"SoundDuration":90390,"Delta":223543955},{"NoteNumber":77,"Velocity":22,"Duration":91980,"SoundDuration":91980,"Delta":223634345},{"NoteNumber":76,"Velocity":22,"Duration":94597,"SoundDuration":94597,"Delta":223726325},{"NoteNumber":90,"Velocity":51,"Duration":290784,"SoundDuration":290784,"Delta":223820923},{"NoteNumber":77,"Velocity":23,"Duration":96469,"SoundDuration":96469,"Delta":223820923},{"NoteNumber":76,"Velocity":25,"Duration":96469,"SoundDuration":96469,"Delta":223917392},{"NoteNumber":77,"Velocity":26,"Duration":97845,"SoundDuration":97845,"Delta":224013861},{"NoteNumber":88,"Velocity":52,"Duration":1202392,"SoundDuration":1202392,"Delta":224111707},{"NoteNumber":76,"Velocity":27,"Duration":99354,"SoundDuration":99354,"Delta":224111707},{"NoteNumber":77,"Velocity":27,"Duration":97364,"SoundDuration":97364,"Delta":224211061},{"NoteNumber":76,"Velocity":27,"Duration":95739,"SoundDuration":95739,"Delta":224308425},{"NoteNumber":90,"Velocity":51,"Duration":282236,"SoundDuration":282236,"Delta":224404165},{"NoteNumber":77,"Velocity":27,"Duration":93890,"SoundDuration":93890,"Delta":224404165},{"NoteNumber":76,"Velocity":27,"Duration":93471,"SoundDuration":93471,"Delta":224498055},{"NoteNumber":77,"Velocity":27,"Duration":94874,"SoundDuration":94874,"Delta":224591527},{"NoteNumber":92,"Velocity":52,"Duration":307317,"SoundDuration":307317,"Delta":224686402},{"NoteNumber":76,"Velocity":26,"Duration":95756,"SoundDuration":95756,"Delta":224686402},{"NoteNumber":77,"Velocity":25,"Duration":101965,"SoundDuration":101965,"Delta":224782158},{"NoteNumber":76,"Velocity":25,"Duration":109595,"SoundDuration":109595,"Delta":224884123},{"NoteNumber":88,"Velocity":54,"Duration":320380,"SoundDuration":320380,"Delta":224993719},{"NoteNumber":77,"Velocity":25,"Duration":106457,"SoundDuration":106457,"Delta":224993719},{"NoteNumber":76,"Velocity":24,"Duration":106929,"SoundDuration":106929,"Delta":225100177},{"NoteNumber":77,"Velocity":19,"Duration":106993,"SoundDuration":106993,"Delta":225207106},{"NoteNumber":84,"Velocity":39,"Duration":2274699,"SoundDuration":2274699,"Delta":225314100},{"NoteNumber":88,"Velocity":39,"Duration":2274699,"SoundDuration":2274699,"Delta":225314100},{"NoteNumber":93,"Velocity":57,"Duration":1097825,"SoundDuration":1097825,"Delta":225314100},{"NoteNumber":69,"Velocity":38,"Duration":2274699,"SoundDuration":2274699,"Delta":225314100},{"NoteNumber":72,"Velocity":38,"Duration":2274699,"SoundDuration":2274699,"Delta":225314100},{"NoteNumber":76,"Velocity":17,"Duration":108722,"SoundDuration":108722,"Delta":225314100},{"NoteNumber":77,"Velocity":18,"Duration":103041,"SoundDuration":103041,"Delta":225422822},{"NoteNumber":76,"Velocity":18,"Duration":97924,"SoundDuration":97924,"Delta":225525863},{"NoteNumber":77,"Velocity":20,"Duration":94361,"SoundDuration":94361,"Delta":225623787},{"NoteNumber":76,"Velocity":20,"Duration":94161,"SoundDuration":94161,"Delta":225718149},{"NoteNumber":77,"Velocity":22,"Duration":93251,"SoundDuration":93251,"Delta":225812311},{"NoteNumber":76,"Velocity":24,"Duration":93057,"SoundDuration":93057,"Delta":225905562},{"NoteNumber":77,"Velocity":25,"Duration":94054,"SoundDuration":94054,"Delta":225998620},{"NoteNumber":76,"Velocity":26,"Duration":93536,"SoundDuration":93536,"Delta":226092674},{"NoteNumber":77,"Velocity":29,"Duration":89871,"SoundDuration":89871,"Delta":226186211},{"NoteNumber":76,"Velocity":29,"Duration":89871,"SoundDuration":89871,"Delta":226276082},{"NoteNumber":95,"Velocity":47,"Duration":44935,"SoundDuration":44935,"Delta":226321018},{"NoteNumber":93,"Velocity":42,"Duration":92092,"SoundDuration":92092,"Delta":226365954},{"NoteNumber":77,"Velocity":30,"Duration":92092,"SoundDuration":92092,"Delta":226365954},{"NoteNumber":92,"Velocity":42,"Duration":46121,"SoundDuration":46121,"Delta":226411925},{"NoteNumber":93,"Velocity":58,"Duration":275913,"SoundDuration":275913,"Delta":226458047},{"NoteNumber":76,"Velocity":25,"Duration":91971,"SoundDuration":91971,"Delta":226458047},{"NoteNumber":77,"Velocity":25,"Duration":91971,"SoundDuration":91971,"Delta":226550018},{"NoteNumber":76,"Velocity":25,"Duration":91971,"SoundDuration":91971,"Delta":226641989},{"NoteNumber":95,"Velocity":54,"Duration":276048,"SoundDuration":276048,"Delta":226733960},{"NoteNumber":77,"Velocity":25,"Duration":91971,"SoundDuration":91971,"Delta":226733960},{"NoteNumber":76,"Velocity":25,"Duration":91971,"SoundDuration":91971,"Delta":226825931},{"NoteNumber":77,"Velocity":25,"Duration":92106,"SoundDuration":92106,"Delta":226917902},{"NoteNumber":96,"Velocity":55,"Duration":279173,"SoundDuration":279173,"Delta":227010008},{"NoteNumber":76,"Velocity":25,"Duration":93057,"SoundDuration":93057,"Delta":227010008},{"NoteNumber":77,"Velocity":25,"Duration":93057,"SoundDuration":93057,"Delta":227103066},{"NoteNumber":76,"Velocity":25,"Duration":93057,"SoundDuration":93057,"Delta":227196124},{"NoteNumber":98,"Velocity":57,"Duration":299617,"SoundDuration":299617,"Delta":227289182},{"NoteNumber":77,"Velocity":25,"Duration":95322,"SoundDuration":95322,"Delta":227289182},{"NoteNumber":76,"Velocity":25,"Duration":100835,"SoundDuration":100835,"Delta":227384504},{"NoteNumber":77,"Velocity":24,"Duration":103459,"SoundDuration":103459,"Delta":227485340},{"NoteNumber":86,"Velocity":41,"Duration":2298130,"SoundDuration":2298130,"Delta":227588800},{"NoteNumber":99,"Velocity":59,"Duration":807559,"SoundDuration":807559,"Delta":227588800},{"NoteNumber":92,"Velocity":41,"Duration":2298130,"SoundDuration":2298130,"Delta":227588800},{"NoteNumber":71,"Velocity":38,"Duration":2298130,"SoundDuration":2298130,"Delta":227588800},{"NoteNumber":69,"Velocity":38,"Duration":2298130,"SoundDuration":2298130,"Delta":227588800},{"NoteNumber":76,"Velocity":26,"Duration":93747,"SoundDuration":93747,"Delta":227588800},{"NoteNumber":77,"Velocity":23,"Duration":92378,"SoundDuration":92378,"Delta":227682547},{"NoteNumber":76,"Velocity":24,"Duration":91041,"SoundDuration":91041,"Delta":227774926},{"NoteNumber":77,"Velocity":26,"Duration":89875,"SoundDuration":89875,"Delta":227865968},{"NoteNumber":76,"Velocity":28,"Duration":88493,"SoundDuration":88493,"Delta":227955843},{"NoteNumber":77,"Velocity":29,"Duration":87267,"SoundDuration":87267,"Delta":228044337},{"NoteNumber":76,"Velocity":29,"Duration":87267,"SoundDuration":87267,"Delta":228131604},{"NoteNumber":77,"Velocity":29,"Duration":88245,"SoundDuration":88245,"Delta":228218871},{"NoteNumber":76,"Velocity":29,"Duration":89242,"SoundDuration":89242,"Delta":228307117},{"NoteNumber":100,"Velocity":54,"Duration":302118,"SoundDuration":302118,"Delta":228396359},{"NoteNumber":77,"Velocity":29,"Duration":91988,"SoundDuration":91988,"Delta":228396359},{"NoteNumber":76,"Velocity":29,"Duration":96334,"SoundDuration":96334,"Delta":228488348},{"NoteNumber":77,"Velocity":26,"Duration":113795,"SoundDuration":113795,"Delta":228584682},{"NoteNumber":88,"Velocity":55,"Duration":1188452,"SoundDuration":1188452,"Delta":228698477},{"NoteNumber":76,"Velocity":27,"Duration":97832,"SoundDuration":97832,"Delta":228698477},{"NoteNumber":77,"Velocity":26,"Duration":95745,"SoundDuration":95745,"Delta":228796310},{"NoteNumber":76,"Velocity":26,"Duration":93064,"SoundDuration":93064,"Delta":228892056},{"NoteNumber":77,"Velocity":26,"Duration":90393,"SoundDuration":90393,"Delta":228985120},{"NoteNumber":76,"Velocity":26,"Duration":90912,"SoundDuration":90912,"Delta":229075513},{"NoteNumber":77,"Velocity":26,"Duration":92378,"SoundDuration":92378,"Delta":229166425},{"NoteNumber":76,"Velocity":26,"Duration":93474,"SoundDuration":93474,"Delta":229258804},{"NoteNumber":77,"Velocity":23,"Duration":92378,"SoundDuration":92378,"Delta":229352278},{"NoteNumber":76,"Velocity":21,"Duration":93747,"SoundDuration":93747,"Delta":229444657},{"NoteNumber":77,"Velocity":18,"Duration":95547,"SoundDuration":95547,"Delta":229538405},{"NoteNumber":76,"Velocity":18,"Duration":105128,"SoundDuration":105128,"Delta":229633952},{"NoteNumber":77,"Velocity":18,"Duration":147848,"SoundDuration":147848,"Delta":229739081},{"NoteNumber":93,"Velocity":55,"Duration":1463248,"SoundDuration":1463248,"Delta":229886930},{"NoteNumber":79,"Velocity":38,"Duration":2294815,"SoundDuration":2294815,"Delta":229886930},{"NoteNumber":85,"Velocity":38,"Duration":2294815,"SoundDuration":2294815,"Delta":229886930},{"NoteNumber":69,"Velocity":38,"Duration":1158957,"SoundDuration":1158957,"Delta":229886930},{"NoteNumber":76,"Velocity":23,"Duration":176926,"SoundDuration":176926,"Delta":229886930},{"NoteNumber":77,"Velocity":16,"Duration":145580,"SoundDuration":145580,"Delta":230063856},{"NoteNumber":76,"Velocity":16,"Duration":140283,"SoundDuration":140283,"Delta":230209436},{"NoteNumber":77,"Velocity":16,"Duration":138907,"SoundDuration":138907,"Delta":230349720},{"NoteNumber":76,"Velocity":17,"Duration":136496,"SoundDuration":136496,"Delta":230488627},{"NoteNumber":77,"Velocity":17,"Duration":136363,"SoundDuration":136363,"Delta":230625124},{"NoteNumber":76,"Velocity":18,"Duration":137838,"SoundDuration":137838,"Delta":230761488},{"NoteNumber":77,"Velocity":18,"Duration":146561,"SoundDuration":146561,"Delta":230899326},{"NoteNumber":76,"Velocity":30,"Duration":586776,"SoundDuration":586776,"Delta":231045887},{"NoteNumber":100,"Velocity":49,"Duration":282486,"SoundDuration":282486,"Delta":231350178},{"NoteNumber":97,"Velocity":49,"Duration":282486,"SoundDuration":282486,"Delta":231632664},{"NoteNumber":93,"Velocity":53,"Duration":266595,"SoundDuration":266595,"Delta":231915150},{"NoteNumber":91,"Velocity":54,"Duration":266595,"SoundDuration":266595,"Delta":232181745},{"NoteNumber":88,"Velocity":52,"Duration":266595,"SoundDuration":266595,"Delta":232448341},{"NoteNumber":85,"Velocity":51,"Duration":266595,"SoundDuration":266595,"Delta":232714936},{"NoteNumber":81,"Velocity":50,"Duration":275913,"SoundDuration":275913,"Delta":232981532},{"NoteNumber":79,"Velocity":50,"Duration":275913,"SoundDuration":275913,"Delta":233257445},{"NoteNumber":77,"Velocity":49,"Duration":275913,"SoundDuration":275913,"Delta":233533358},{"NoteNumber":89,"Velocity":53,"Duration":283624,"SoundDuration":283624,"Delta":233809271},{"NoteNumber":86,"Velocity":45,"Duration":283624,"SoundDuration":283624,"Delta":233809271},{"NoteNumber":81,"Velocity":45,"Duration":283624,"SoundDuration":283624,"Delta":233809271},{"NoteNumber":76,"Velocity":48,"Duration":283624,"SoundDuration":283624,"Delta":233809271},{"NoteNumber":74,"Velocity":46,"Duration":353885,"SoundDuration":353885,"Delta":234092896},{"NoteNumber":91,"Velocity":55,"Duration":1439972,"SoundDuration":1439972,"Delta":234446781},{"NoteNumber":79,"Velocity":38,"Duration":2300672,"SoundDuration":2300672,"Delta":234446781},{"NoteNumber":86,"Velocity":38,"Duration":2300672,"SoundDuration":2300672,"Delta":234446781},{"NoteNumber":71,"Velocity":38,"Duration":1132282,"SoundDuration":1132282,"Delta":234446781},{"NoteNumber":77,"Velocity":24,"Duration":153175,"SoundDuration":153175,"Delta":234446781},{"NoteNumber":76,"Velocity":16,"Duration":142248,"SoundDuration":142248,"Delta":234599956},{"NoteNumber":77,"Velocity":16,"Duration":140690,"SoundDuration":140690,"Delta":234742204},{"NoteNumber":76,"Velocity":16,"Duration":138907,"SoundDuration":138907,"Delta":234882895},{"NoteNumber":77,"Velocity":17,"Duration":136496,"SoundDuration":136496,"Delta":235021803},{"NoteNumber":76,"Velocity":17,"Duration":136363,"SoundDuration":136363,"Delta":235158299},{"NoteNumber":77,"Velocity":18,"Duration":137838,"SoundDuration":137838,"Delta":235294663},{"NoteNumber":76,"Velocity":18,"Duration":146561,"SoundDuration":146561,"Delta":235432502},{"NoteNumber":77,"Velocity":30,"Duration":603418,"SoundDuration":603418,"Delta":235579063},{"NoteNumber":98,"Velocity":49,"Duration":295728,"SoundDuration":295728,"Delta":235886753},{"NoteNumber":95,"Velocity":49,"Duration":282486,"SoundDuration":282486,"Delta":236182481},{"NoteNumber":91,"Velocity":53,"Duration":282486,"SoundDuration":282486,"Delta":236464967},{"NoteNumber":89,"Velocity":54,"Duration":282485,"SoundDuration":282485,"Delta":236747453},{"NoteNumber":86,"Velocity":52,"Duration":269614,"SoundDuration":269614,"Delta":237029939},{"NoteNumber":83,"Velocity":51,"Duration":269614,"SoundDuration":269614,"Delta":237299554},{"NoteNumber":79,"Velocity":50,"Duration":269614,"SoundDuration":269614,"Delta":237569168},{"NoteNumber":77,"Velocity":50,"Duration":275913,"SoundDuration":275913,"Delta":237838783},{"NoteNumber":76,"Velocity":49,"Duration":279637,"SoundDuration":279637,"Delta":238114696},{"NoteNumber":88,"Velocity":53,"Duration":307317,"SoundDuration":307317,"Delta":238394334},{"NoteNumber":84,"Velocity":45,"Duration":307317,"SoundDuration":307317,"Delta":238394334},{"NoteNumber":79,"Velocity":45,"Duration":307317,"SoundDuration":307317,"Delta":238394334},{"NoteNumber":74,"Velocity":48,"Duration":307317,"SoundDuration":307317,"Delta":238394334},{"NoteNumber":72,"Velocity":46,"Duration":337309,"SoundDuration":337309,"Delta":238701651},{"NoteNumber":89,"Velocity":55,"Duration":1444894,"SoundDuration":1444894,"Delta":239038960},{"NoteNumber":83,"Velocity":38,"Duration":1444894,"SoundDuration":1444894,"Delta":239038960},{"NoteNumber":68,"Velocity":36,"Duration":1135604,"SoundDuration":1135604,"Delta":239038960},{"NoteNumber":74,"Velocity":38,"Duration":1135604,"SoundDuration":1135604,"Delta":239038960},{"NoteNumber":77,"Velocity":23,"Duration":156497,"SoundDuration":156497,"Delta":239038960},{"NoteNumber":76,"Velocity":19,"Duration":142248,"SoundDuration":142248,"Delta":239195458},{"NoteNumber":77,"Velocity":16,"Duration":140690,"SoundDuration":140690,"Delta":239337706},{"NoteNumber":76,"Velocity":16,"Duration":138907,"SoundDuration":138907,"Delta":239478397},{"NoteNumber":77,"Velocity":17,"Duration":136496,"SoundDuration":136496,"Delta":239617304},{"NoteNumber":76,"Velocity":17,"Duration":136363,"SoundDuration":136363,"Delta":239753801},{"NoteNumber":77,"Velocity":18,"Duration":137838,"SoundDuration":137838,"Delta":239890164},{"NoteNumber":76,"Velocity":18,"Duration":146561,"SoundDuration":146561,"Delta":240028003},{"NoteNumber":77,"Velocity":30,"Duration":588463,"SoundDuration":588463,"Delta":240174564},{"NoteNumber":86,"Velocity":49,"Duration":279173,"SoundDuration":279173,"Delta":240483855},{"NoteNumber":83,"Velocity":49,"Duration":279173,"SoundDuration":279173,"Delta":240763028},{"NoteNumber":81,"Velocity":53,"Duration":279173,"SoundDuration":279173,"Delta":241042202},{"NoteNumber":80,"Velocity":49,"Duration":282539,"SoundDuration":282539,"Delta":241321375},{"NoteNumber":76,"Velocity":49,"Duration":272727,"SoundDuration":272727,"Delta":241603914},{"NoteNumber":74,"Velocity":45,"Duration":275913,"SoundDuration":275913,"Delta":241876642},{"NoteNumber":88,"Velocity":49,"Duration":275913,"SoundDuration":275913,"Delta":241876642},{"NoteNumber":80,"Velocity":41,"Duration":275913,"SoundDuration":275913,"Delta":241876642},{"NoteNumber":71,"Velocity":45,"Duration":312305,"SoundDuration":312305,"Delta":242152555},{"NoteNumber":72,"Velocity":47,"Duration":285905,"SoundDuration":285905,"Delta":242464860},{"NoteNumber":88,"Velocity":47,"Duration":285905,"SoundDuration":285905,"Delta":242464860},{"NoteNumber":81,"Velocity":40,"Duration":285905,"SoundDuration":285905,"Delta":242464860},{"NoteNumber":76,"Velocity":49,"Duration":285904,"SoundDuration":285904,"Delta":242750765},{"NoteNumber":81,"Velocity":49,"Duration":275913,"SoundDuration":275913,"Delta":243036670},{"NoteNumber":88,"Velocity":47,"Duration":275913,"SoundDuration":275913,"Delta":243036670},{"NoteNumber":85,"Velocity":40,"Duration":275913,"SoundDuration":275913,"Delta":243036670},{"NoteNumber":79,"Velocity":49,"Duration":275913,"SoundDuration":275913,"Delta":243312583},{"NoteNumber":77,"Velocity":49,"Duration":285905,"SoundDuration":285905,"Delta":243588496},{"NoteNumber":89,"Velocity":49,"Duration":285905,"SoundDuration":285905,"Delta":243588496},{"NoteNumber":86,"Velocity":41,"Duration":285905,"SoundDuration":285905,"Delta":243588496},{"NoteNumber":86,"Velocity":47,"Duration":285904,"SoundDuration":285904,"Delta":243874401},{"NoteNumber":83,"Velocity":47,"Duration":285905,"SoundDuration":285905,"Delta":244160306},{"NoteNumber":81,"Velocity":47,"Duration":285904,"SoundDuration":285904,"Delta":244446211},{"NoteNumber":80,"Velocity":49,"Duration":325167,"SoundDuration":325167,"Delta":244732116},{"NoteNumber":76,"Velocity":36,"Duration":325167,"SoundDuration":325167,"Delta":244732116},{"NoteNumber":86,"Velocity":44,"Duration":325167,"SoundDuration":325167,"Delta":244732116},{"NoteNumber":95,"Velocity":49,"Duration":325168,"SoundDuration":325168,"Delta":245057284},{"NoteNumber":92,"Velocity":45,"Duration":325167,"SoundDuration":325167,"Delta":245382452},{"NoteNumber":88,"Velocity":39,"Duration":283267,"SoundDuration":283267,"Delta":245707620},{"NoteNumber":92,"Velocity":38,"Duration":106066,"SoundDuration":106066,"Delta":245990887},{"NoteNumber":93,"Velocity":38,"Duration":1210897,"SoundDuration":1210897,"Delta":246096954},{"NoteNumber":84,"Velocity":40,"Duration":2541595,"SoundDuration":2541595,"Delta":246096954},{"NoteNumber":81,"Velocity":34,"Duration":2541595,"SoundDuration":2541595,"Delta":246096954},{"NoteNumber":81,"Velocity":27,"Duration":357610,"SoundDuration":357610,"Delta":247307852},{"NoteNumber":40,"Velocity":69,"Duration":85955,"SoundDuration":85955,"Delta":248380685},{"NoteNumber":42,"Velocity":74,"Duration":85954,"SoundDuration":85954,"Delta":248466640},{"NoteNumber":44,"Velocity":79,"Duration":85955,"SoundDuration":85955,"Delta":248552595},{"NoteNumber":45,"Velocity":81,"Duration":443295,"SoundDuration":443295,"Delta":248638550},{"NoteNumber":33,"Velocity":69,"Duration":443295,"SoundDuration":443295,"Delta":248638550},{"NoteNumber":52,"Velocity":69,"Duration":73882,"SoundDuration":73882,"Delta":248712433},{"NoteNumber":57,"Velocity":69,"Duration":73882,"SoundDuration":73882,"Delta":248786315},{"NoteNumber":64,"Velocity":78,"Duration":73882,"SoundDuration":73882,"Delta":248860198},{"NoteNumber":60,"Velocity":66,"Duration":73882,"SoundDuration":73882,"Delta":248860198},{"NoteNumber":57,"Velocity":79,"Duration":221647,"SoundDuration":221647,"Delta":248860198},{"NoteNumber":64,"Velocity":67,"Duration":73882,"SoundDuration":73882,"Delta":248934080},{"NoteNumber":69,"Velocity":67,"Duration":73882,"SoundDuration":73882,"Delta":249007963},{"NoteNumber":76,"Velocity":79,"Duration":81227,"SoundDuration":81227,"Delta":249081845},{"NoteNumber":72,"Velocity":67,"Duration":81227,"SoundDuration":81227,"Delta":249081845},{"NoteNumber":48,"Velocity":82,"Duration":541516,"SoundDuration":541516,"Delta":249081845},{"NoteNumber":36,"Velocity":69,"Duration":541516,"SoundDuration":541516,"Delta":249081845},{"NoteNumber":76,"Velocity":69,"Duration":90252,"SoundDuration":90252,"Delta":249172098},{"NoteNumber":81,"Velocity":68,"Duration":90252,"SoundDuration":90252,"Delta":249262350},{"NoteNumber":88,"Velocity":79,"Duration":81227,"SoundDuration":81227,"Delta":249352603},{"NoteNumber":84,"Velocity":67,"Duration":81227,"SoundDuration":81227,"Delta":249352603},{"NoteNumber":60,"Velocity":79,"Duration":270758,"SoundDuration":270758,"Delta":249352603},{"NoteNumber":88,"Velocity":71,"Duration":90252,"SoundDuration":90252,"Delta":249442856},{"NoteNumber":93,"Velocity":71,"Duration":90252,"SoundDuration":90252,"Delta":249533108},{"NoteNumber":100,"Velocity":79,"Duration":92764,"SoundDuration":92764,"Delta":249623361},{"NoteNumber":98,"Velocity":67,"Duration":92764,"SoundDuration":92764,"Delta":249623361},{"NoteNumber":47,"Velocity":82,"Duration":556586,"SoundDuration":556586,"Delta":249623361},{"NoteNumber":35,"Velocity":69,"Duration":556586,"SoundDuration":556586,"Delta":249623361},{"NoteNumber":92,"Velocity":70,"Duration":92764,"SoundDuration":92764,"Delta":249716125},{"NoteNumber":88,"Velocity":70,"Duration":83487,"SoundDuration":83487,"Delta":249808890},{"NoteNumber":88,"Velocity":79,"Duration":92764,"SoundDuration":92764,"Delta":249901654},{"NoteNumber":86,"Velocity":67,"Duration":92764,"SoundDuration":92764,"Delta":249901654},{"NoteNumber":59,"Velocity":77,"Duration":278293,"SoundDuration":278293,"Delta":249901654},{"NoteNumber":80,"Velocity":70,"Duration":92764,"SoundDuration":92764,"Delta":249994418},{"NoteNumber":76,"Velocity":67,"Duration":83487,"SoundDuration":83487,"Delta":250087183},{"NoteNumber":76,"Velocity":73,"Duration":97276,"SoundDuration":97276,"Delta":250179947},{"NoteNumber":72,"Velocity":61,"Duration":97276,"SoundDuration":97276,"Delta":250179947},{"NoteNumber":45,"Velocity":81,"Duration":612804,"SoundDuration":612804,"Delta":250179947},{"NoteNumber":33,"Velocity":69,"Duration":612804,"SoundDuration":612804,"Delta":250179947},{"NoteNumber":69,"Velocity":69,"Duration":97276,"SoundDuration":97276,"Delta":250277223},{"NoteNumber":64,"Velocity":64,"Duration":87548,"SoundDuration":87548,"Delta":250374500},{"NoteNumber":64,"Velocity":63,"Duration":320975,"SoundDuration":320975,"Delta":250471776},{"NoteNumber":60,"Velocity":53,"Duration":320975,"SoundDuration":320975,"Delta":250471776},{"NoteNumber":57,"Velocity":77,"Duration":320975,"SoundDuration":320975,"Delta":250471776},{"NoteNumber":64,"Velocity":71,"Duration":151821,"SoundDuration":151821,"Delta":250792752},{"NoteNumber":56,"Velocity":60,"Duration":151821,"SoundDuration":151821,"Delta":250792752},{"NoteNumber":59,"Velocity":60,"Duration":151821,"SoundDuration":151821,"Delta":250792752},{"NoteNumber":32,"Velocity":58,"Duration":101214,"SoundDuration":101214,"Delta":250893966},{"NoteNumber":35,"Velocity":59,"Duration":101214,"SoundDuration":101214,"Delta":250995181},{"NoteNumber":88,"Velocity":84,"Duration":541516,"SoundDuration":541516,"Delta":251096395},{"NoteNumber":83,"Velocity":71,"Duration":541516,"SoundDuration":541516,"Delta":251096395},{"NoteNumber":80,"Velocity":71,"Duration":541516,"SoundDuration":541516,"Delta":251096395},{"NoteNumber":76,"Velocity":71,"Duration":541516,"SoundDuration":541516,"Delta":251096395},{"NoteNumber":40,"Velocity":60,"Duration":90252,"SoundDuration":90252,"Delta":251096395},{"NoteNumber":44,"Velocity":61,"Duration":90252,"SoundDuration":90252,"Delta":251186648},{"NoteNumber":47,"Velocity":62,"Duration":90252,"SoundDuration":90252,"Delta":251276900},{"NoteNumber":52,"Velocity":64,"Duration":90252,"SoundDuration":90252,"Delta":251367153},{"NoteNumber":56,"Velocity":63,"Duration":90252,"SoundDuration":90252,"Delta":251457406},{"NoteNumber":59,"Velocity":66,"Duration":90252,"SoundDuration":90252,"Delta":251547658},{"NoteNumber":91,"Velocity":84,"Duration":541516,"SoundDuration":541516,"Delta":251637911},{"NoteNumber":86,"Velocity":71,"Duration":541516,"SoundDuration":541516,"Delta":251637911},{"NoteNumber":83,"Velocity":71,"Duration":541516,"SoundDuration":541516,"Delta":251637911},{"NoteNumber":79,"Velocity":71,"Duration":541516,"SoundDuration":541516,"Delta":251637911},{"NoteNumber":64,"Velocity":67,"Duration":90252,"SoundDuration":90252,"Delta":251637911},{"NoteNumber":68,"Velocity":68,"Duration":90252,"SoundDuration":90252,"Delta":251728164},{"NoteNumber":71,"Velocity":69,"Duration":90252,"SoundDuration":90252,"Delta":251818416},{"NoteNumber":76,"Velocity":73,"Duration":90252,"SoundDuration":90252,"Delta":251908669},{"NoteNumber":71,"Velocity":70,"Duration":90252,"SoundDuration":90252,"Delta":251998922},{"NoteNumber":68,"Velocity":70,"Duration":90252,"SoundDuration":90252,"Delta":252089174},{"NoteNumber":89,"Velocity":84,"Duration":561798,"SoundDuration":561798,"Delta":252179427},{"NoteNumber":86,"Velocity":71,"Duration":561798,"SoundDuration":561798,"Delta":252179427},{"NoteNumber":83,"Velocity":71,"Duration":561798,"SoundDuration":561798,"Delta":252179427},{"NoteNumber":77,"Velocity":71,"Duration":561798,"SoundDuration":561798,"Delta":252179427},{"NoteNumber":64,"Velocity":69,"Duration":93633,"SoundDuration":93633,"Delta":252179427},{"NoteNumber":59,"Velocity":69,"Duration":93632,"SoundDuration":93632,"Delta":252273060},{"NoteNumber":56,"Velocity":68,"Duration":93633,"SoundDuration":93633,"Delta":252366693},{"NoteNumber":52,"Velocity":67,"Duration":93632,"SoundDuration":93632,"Delta":252460326},{"NoteNumber":47,"Velocity":66,"Duration":93633,"SoundDuration":93633,"Delta":252553959},{"NoteNumber":44,"Velocity":64,"Duration":93633,"SoundDuration":93633,"Delta":252647592},{"NoteNumber":88,"Velocity":79,"Duration":335431,"SoundDuration":335431,"Delta":252741225},{"NoteNumber":86,"Velocity":67,"Duration":335431,"SoundDuration":335431,"Delta":252741225},{"NoteNumber":83,"Velocity":67,"Duration":335431,"SoundDuration":335431,"Delta":252741225},{"NoteNumber":76,"Velocity":67,"Duration":335431,"SoundDuration":335431,"Delta":252741225},{"NoteNumber":40,"Velocity":63,"Duration":93632,"SoundDuration":93632,"Delta":252741225},{"NoteNumber":35,"Velocity":62,"Duration":94306,"SoundDuration":94306,"Delta":252834858},{"NoteNumber":32,"Velocity":61,"Duration":147492,"SoundDuration":147492,"Delta":252929164},{"NoteNumber":33,"Velocity":69,"Duration":574589,"SoundDuration":574589,"Delta":253076657},{"NoteNumber":45,"Velocity":81,"Duration":574589,"SoundDuration":574589,"Delta":253076657},{"NoteNumber":52,"Velocity":69,"Duration":93632,"SoundDuration":93632,"Delta":253183082},{"NoteNumber":57,"Velocity":69,"Duration":93633,"SoundDuration":93633,"Delta":253276715},{"NoteNumber":64,"Velocity":78,"Duration":84269,"SoundDuration":84269,"Delta":253370348},{"NoteNumber":60,"Velocity":66,"Duration":84269,"SoundDuration":84269,"Delta":253370348},{"NoteNumber":57,"Velocity":79,"Duration":280899,"SoundDuration":280899,"Delta":253370348},{"NoteNumber":64,"Velocity":67,"Duration":93633,"SoundDuration":93633,"Delta":253463981},{"NoteNumber":69,"Velocity":67,"Duration":93633,"SoundDuration":93633,"Delta":253557614},{"NoteNumber":76,"Velocity":79,"Duration":81227,"SoundDuration":81227,"Delta":253651247},{"NoteNumber":72,"Velocity":67,"Duration":81227,"SoundDuration":81227,"Delta":253651247},{"NoteNumber":48,"Velocity":82,"Duration":541516,"SoundDuration":541516,"Delta":253651247},{"NoteNumber":36,"Velocity":69,"Duration":541516,"SoundDuration":541516,"Delta":253651247},{"NoteNumber":76,"Velocity":69,"Duration":90252,"SoundDuration":90252,"Delta":253741499},{"NoteNumber":81,"Velocity":68,"Duration":90252,"SoundDuration":90252,"Delta":253831752},{"NoteNumber":88,"Velocity":79,"Duration":90252,"SoundDuration":90252,"Delta":253922005},{"NoteNumber":84,"Velocity":67,"Duration":90252,"SoundDuration":90252,"Delta":253922005},{"NoteNumber":60,"Velocity":79,"Duration":270758,"SoundDuration":270758,"Delta":253922005},{"NoteNumber":88,"Velocity":71,"Duration":90252,"SoundDuration":90252,"Delta":254012257},{"NoteNumber":93,"Velocity":71,"Duration":90252,"SoundDuration":90252,"Delta":254102510},{"NoteNumber":100,"Velocity":79,"Duration":90252,"SoundDuration":90252,"Delta":254192763},{"NoteNumber":98,"Velocity":67,"Duration":90252,"SoundDuration":90252,"Delta":254192763},{"NoteNumber":47,"Velocity":82,"Duration":556727,"SoundDuration":556727,"Delta":254192763},{"NoteNumber":35,"Velocity":69,"Duration":556727,"SoundDuration":556727,"Delta":254192763},{"NoteNumber":92,"Velocity":70,"Duration":91942,"SoundDuration":91942,"Delta":254283015},{"NoteNumber":88,"Velocity":70,"Duration":84269,"SoundDuration":84269,"Delta":254374958},{"NoteNumber":88,"Velocity":79,"Duration":93633,"SoundDuration":93633,"Delta":254468591},{"NoteNumber":86,"Velocity":67,"Duration":93633,"SoundDuration":93633,"Delta":254468591},{"NoteNumber":59,"Velocity":77,"Duration":280899,"SoundDuration":280899,"Delta":254468591},{"NoteNumber":80,"Velocity":70,"Duration":93633,"SoundDuration":93633,"Delta":254562224},{"NoteNumber":76,"Velocity":67,"Duration":84269,"SoundDuration":84269,"Delta":254655857},{"NoteNumber":76,"Velocity":73,"Duration":97276,"SoundDuration":97276,"Delta":254749490},{"NoteNumber":72,"Velocity":61,"Duration":97276,"SoundDuration":97276,"Delta":254749490},{"NoteNumber":45,"Velocity":81,"Duration":617182,"SoundDuration":617182,"Delta":254749490},{"NoteNumber":33,"Velocity":69,"Duration":617182,"SoundDuration":617182,"Delta":254749490},{"NoteNumber":69,"Velocity":69,"Duration":97276,"SoundDuration":97276,"Delta":254846767},{"NoteNumber":64,"Velocity":64,"Duration":87548,"SoundDuration":87548,"Delta":254944043},{"NoteNumber":64,"Velocity":63,"Duration":325353,"SoundDuration":325353,"Delta":255041319},{"NoteNumber":60,"Velocity":53,"Duration":325353,"SoundDuration":325353,"Delta":255041319},{"NoteNumber":57,"Velocity":77,"Duration":325353,"SoundDuration":325353,"Delta":255041319},{"NoteNumber":64,"Velocity":71,"Duration":161294,"SoundDuration":161294,"Delta":255366673},{"NoteNumber":56,"Velocity":50,"Duration":161294,"SoundDuration":161294,"Delta":255366673},{"NoteNumber":52,"Velocity":70,"Duration":161294,"SoundDuration":161294,"Delta":255366673},{"NoteNumber":40,"Velocity":59,"Duration":161294,"SoundDuration":161294,"Delta":255366673},{"NoteNumber":47,"Velocity":59,"Duration":161294,"SoundDuration":161294,"Delta":255366673},{"NoteNumber":76,"Velocity":59,"Duration":123823,"SoundDuration":123823,"Delta":255527967},{"NoteNumber":64,"Velocity":49,"Duration":123823,"SoundDuration":123823,"Delta":255527967},{"NoteNumber":52,"Velocity":51,"Duration":123823,"SoundDuration":123823,"Delta":255527967},{"NoteNumber":77,"Velocity":61,"Duration":121971,"SoundDuration":121971,"Delta":255651791},{"NoteNumber":65,"Velocity":50,"Duration":121971,"SoundDuration":121971,"Delta":255651791},{"NoteNumber":53,"Velocity":52,"Duration":121971,"SoundDuration":121971,"Delta":255651791},{"NoteNumber":78,"Velocity":63,"Duration":120340,"SoundDuration":120340,"Delta":255773762},{"NoteNumber":66,"Velocity":52,"Duration":120340,"SoundDuration":120340,"Delta":255773762},{"NoteNumber":54,"Velocity":55,"Duration":120340,"SoundDuration":120340,"Delta":255773762},{"NoteNumber":79,"Velocity":66,"Duration":118594,"SoundDuration":118594,"Delta":255894103},{"NoteNumber":67,"Velocity":56,"Duration":118594,"SoundDuration":118594,"Delta":255894103},{"NoteNumber":55,"Velocity":57,"Duration":118594,"SoundDuration":118594,"Delta":255894103},{"NoteNumber":80,"Velocity":68,"Duration":116900,"SoundDuration":116900,"Delta":256012697},{"NoteNumber":68,"Velocity":58,"Duration":116900,"SoundDuration":116900,"Delta":256012697},{"NoteNumber":56,"Velocity":59,"Duration":116900,"SoundDuration":116900,"Delta":256012697},{"NoteNumber":81,"Velocity":71,"Duration":115113,"SoundDuration":115113,"Delta":256129598},{"NoteNumber":69,"Velocity":60,"Duration":115113,"SoundDuration":115113,"Delta":256129598},{"NoteNumber":57,"Velocity":61,"Duration":115113,"SoundDuration":115113,"Delta":256129598},{"NoteNumber":82,"Velocity":73,"Duration":115584,"SoundDuration":115584,"Delta":256244711},{"NoteNumber":70,"Velocity":61,"Duration":115584,"SoundDuration":115584,"Delta":256244711},{"NoteNumber":58,"Velocity":62,"Duration":115584,"SoundDuration":115584,"Delta":256244711},{"NoteNumber":83,"Velocity":75,"Duration":116459,"SoundDuration":116459,"Delta":256360295},{"NoteNumber":71,"Velocity":64,"Duration":116459,"SoundDuration":116459,"Delta":256360295},{"NoteNumber":59,"Velocity":64,"Duration":116459,"SoundDuration":116459,"Delta":256360295},{"NoteNumber":84,"Velocity":78,"Duration":116459,"SoundDuration":116459,"Delta":256476755},{"NoteNumber":72,"Velocity":66,"Duration":116459,"SoundDuration":116459,"Delta":256476755},{"NoteNumber":60,"Velocity":67,"Duration":116459,"SoundDuration":116459,"Delta":256476755},{"NoteNumber":85,"Velocity":81,"Duration":116459,"SoundDuration":116459,"Delta":256593215},{"NoteNumber":73,"Velocity":68,"Duration":116459,"SoundDuration":116459,"Delta":256593215},{"NoteNumber":61,"Velocity":69,"Duration":116459,"SoundDuration":116459,"Delta":256593215},{"NoteNumber":86,"Velocity":84,"Duration":117707,"SoundDuration":117707,"Delta":256709675},{"NoteNumber":74,"Velocity":70,"Duration":117707,"SoundDuration":117707,"Delta":256709675},{"NoteNumber":62,"Velocity":71,"Duration":117707,"SoundDuration":117707,"Delta":256709675},{"NoteNumber":87,"Velocity":88,"Duration":121209,"SoundDuration":121209,"Delta":256827382},{"NoteNumber":75,"Velocity":73,"Duration":121209,"SoundDuration":121209,"Delta":256827382},{"NoteNumber":63,"Velocity":73,"Duration":121209,"SoundDuration":121209,"Delta":256827382},{"NoteNumber":88,"Velocity":92,"Duration":125258,"SoundDuration":125258,"Delta":256948591},{"NoteNumber":76,"Velocity":78,"Duration":125258,"SoundDuration":125258,"Delta":256948591},{"NoteNumber":64,"Velocity":75,"Duration":125258,"SoundDuration":125258,"Delta":256948591},{"NoteNumber":89,"Velocity":96,"Duration":129035,"SoundDuration":129035,"Delta":257073849},{"NoteNumber":77,"Velocity":81,"Duration":129035,"SoundDuration":129035,"Delta":257073849},{"NoteNumber":65,"Velocity":73,"Duration":129035,"SoundDuration":129035,"Delta":257073849},{"NoteNumber":88,"Velocity":82,"Duration":235355,"SoundDuration":235355,"Delta":257202885},{"NoteNumber":76,"Velocity":69,"Duration":235355,"SoundDuration":235355,"Delta":257202885},{"NoteNumber":64,"Velocity":67,"Duration":235355,"SoundDuration":235355,"Delta":257202885},{"NoteNumber":40,"Velocity":69,"Duration":108932,"SoundDuration":108932,"Delta":257516692},{"NoteNumber":42,"Velocity":74,"Duration":108932,"SoundDuration":108932,"Delta":257625625},{"NoteNumber":44,"Velocity":79,"Duration":108932,"SoundDuration":108932,"Delta":257734557},{"NoteNumber":45,"Velocity":81,"Duration":561798,"SoundDuration":561798,"Delta":257843490},{"NoteNumber":33,"Velocity":69,"Duration":561798,"SoundDuration":561798,"Delta":257843490},{"NoteNumber":52,"Velocity":69,"Duration":93633,"SoundDuration":93633,"Delta":257937123},{"NoteNumber":57,"Velocity":69,"Duration":93632,"SoundDuration":93632,"Delta":258030756},{"NoteNumber":64,"Velocity":78,"Duration":84269,"SoundDuration":84269,"Delta":258124389},{"NoteNumber":60,"Velocity":66,"Duration":84269,"SoundDuration":84269,"Delta":258124389},{"NoteNumber":57,"Velocity":79,"Duration":280899,"SoundDuration":280899,"Delta":258124389},{"NoteNumber":64,"Velocity":67,"Duration":93633,"SoundDuration":93633,"Delta":258218022},{"NoteNumber":69,"Velocity":67,"Duration":93633,"SoundDuration":93633,"Delta":258311655},{"NoteNumber":76,"Velocity":79,"Duration":81227,"SoundDuration":81227,"Delta":258405288},{"NoteNumber":72,"Velocity":67,"Duration":81227,"SoundDuration":81227,"Delta":258405288},{"NoteNumber":48,"Velocity":82,"Duration":541516,"SoundDuration":541516,"Delta":258405288},{"NoteNumber":36,"Velocity":69,"Duration":541516,"SoundDuration":541516,"Delta":258405288},{"NoteNumber":76,"Velocity":69,"Duration":90252,"SoundDuration":90252,"Delta":258495540},{"NoteNumber":81,"Velocity":68,"Duration":90252,"SoundDuration":90252,"Delta":258585793},{"NoteNumber":88,"Velocity":79,"Duration":81227,"SoundDuration":81227,"Delta":258676046},{"NoteNumber":84,"Velocity":67,"Duration":81227,"SoundDuration":81227,"Delta":258676046},{"NoteNumber":60,"Velocity":79,"Duration":270758,"SoundDuration":270758,"Delta":258676046},{"NoteNumber":88,"Velocity":71,"Duration":90252,"SoundDuration":90252,"Delta":258766298},{"NoteNumber":93,"Velocity":71,"Duration":90252,"SoundDuration":90252,"Delta":258856551},{"NoteNumber":100,"Velocity":79,"Duration":92764,"SoundDuration":92764,"Delta":258946804},{"NoteNumber":98,"Velocity":67,"Duration":92764,"SoundDuration":92764,"Delta":258946804},{"NoteNumber":47,"Velocity":82,"Duration":556585,"SoundDuration":556585,"Delta":258946804},{"NoteNumber":35,"Velocity":69,"Duration":556585,"SoundDuration":556585,"Delta":258946804},{"NoteNumber":92,"Velocity":70,"Duration":92764,"SoundDuration":92764,"Delta":259039568},{"NoteNumber":88,"Velocity":70,"Duration":92764,"SoundDuration":92764,"Delta":259132332},{"NoteNumber":88,"Velocity":79,"Duration":92764,"SoundDuration":92764,"Delta":259225097},{"NoteNumber":86,"Velocity":67,"Duration":92764,"SoundDuration":92764,"Delta":259225097},{"NoteNumber":59,"Velocity":77,"Duration":278292,"SoundDuration":278292,"Delta":259225097},{"NoteNumber":80,"Velocity":70,"Duration":92764,"SoundDuration":92764,"Delta":259317861},{"NoteNumber":76,"Velocity":67,"Duration":83487,"SoundDuration":83487,"Delta":259410625},{"NoteNumber":76,"Velocity":73,"Duration":97276,"SoundDuration":97276,"Delta":259503390},{"NoteNumber":72,"Velocity":61,"Duration":97276,"SoundDuration":97276,"Delta":259503390},{"NoteNumber":45,"Velocity":81,"Duration":612804,"SoundDuration":612804,"Delta":259503390},{"NoteNumber":33,"Velocity":69,"Duration":612804,"SoundDuration":612804,"Delta":259503390},{"NoteNumber":69,"Velocity":69,"Duration":97276,"SoundDuration":97276,"Delta":259600666},{"NoteNumber":64,"Velocity":64,"Duration":87548,"SoundDuration":87548,"Delta":259697942},{"NoteNumber":64,"Velocity":63,"Duration":320975,"SoundDuration":320975,"Delta":259795219},{"NoteNumber":60,"Velocity":53,"Duration":320975,"SoundDuration":320975,"Delta":259795219},{"NoteNumber":57,"Velocity":77,"Duration":320975,"SoundDuration":320975,"Delta":259795219},{"NoteNumber":64,"Velocity":71,"Duration":151821,"SoundDuration":151821,"Delta":260116194},{"NoteNumber":56,"Velocity":60,"Duration":151821,"SoundDuration":151821,"Delta":260116194},{"NoteNumber":59,"Velocity":60,"Duration":151821,"SoundDuration":151821,"Delta":260116194},{"NoteNumber":32,"Velocity":58,"Duration":101214,"SoundDuration":101214,"Delta":260217409},{"NoteNumber":35,"Velocity":59,"Duration":101214,"SoundDuration":101214,"Delta":260318623},{"NoteNumber":88,"Velocity":84,"Duration":541516,"SoundDuration":541516,"Delta":260419838},{"NoteNumber":83,"Velocity":71,"Duration":541516,"SoundDuration":541516,"Delta":260419838},{"NoteNumber":80,"Velocity":71,"Duration":541516,"SoundDuration":541516,"Delta":260419838},{"NoteNumber":76,"Velocity":71,"Duration":541516,"SoundDuration":541516,"Delta":260419838},{"NoteNumber":40,"Velocity":60,"Duration":90252,"SoundDuration":90252,"Delta":260419838},{"NoteNumber":44,"Velocity":61,"Duration":90252,"SoundDuration":90252,"Delta":260510090},{"NoteNumber":47,"Velocity":62,"Duration":90252,"SoundDuration":90252,"Delta":260600343},{"NoteNumber":52,"Velocity":64,"Duration":90252,"SoundDuration":90252,"Delta":260690596},{"NoteNumber":56,"Velocity":63,"Duration":90252,"SoundDuration":90252,"Delta":260780848},{"NoteNumber":59,"Velocity":66,"Duration":90252,"SoundDuration":90252,"Delta":260871101},{"NoteNumber":91,"Velocity":84,"Duration":541516,"SoundDuration":541516,"Delta":260961354},{"NoteNumber":86,"Velocity":71,"Duration":541516,"SoundDuration":541516,"Delta":260961354},{"NoteNumber":83,"Velocity":71,"Duration":541516,"SoundDuration":541516,"Delta":260961354},{"NoteNumber":79,"Velocity":71,"Duration":541516,"SoundDuration":541516,"Delta":260961354},{"NoteNumber":64,"Velocity":67,"Duration":90252,"SoundDuration":90252,"Delta":260961354},{"NoteNumber":68,"Velocity":68,"Duration":90252,"SoundDuration":90252,"Delta":261051606},{"NoteNumber":71,"Velocity":69,"Duration":90252,"SoundDuration":90252,"Delta":261141859},{"NoteNumber":76,"Velocity":73,"Duration":90252,"SoundDuration":90252,"Delta":261232112},{"NoteNumber":71,"Velocity":70,"Duration":90252,"SoundDuration":90252,"Delta":261322364},{"NoteNumber":68,"Velocity":70,"Duration":90252,"SoundDuration":90252,"Delta":261412617},{"NoteNumber":89,"Velocity":84,"Duration":561798,"SoundDuration":561798,"Delta":261502870},{"NoteNumber":86,"Velocity":71,"Duration":561798,"SoundDuration":561798,"Delta":261502870},{"NoteNumber":83,"Velocity":71,"Duration":561798,"SoundDuration":561798,"Delta":261502870},{"NoteNumber":77,"Velocity":71,"Duration":561798,"SoundDuration":561798,"Delta":261502870},{"NoteNumber":64,"Velocity":69,"Duration":93633,"SoundDuration":93633,"Delta":261502870},{"NoteNumber":59,"Velocity":69,"Duration":93633,"SoundDuration":93633,"Delta":261596503},{"NoteNumber":56,"Velocity":68,"Duration":93632,"SoundDuration":93632,"Delta":261690136},{"NoteNumber":52,"Velocity":67,"Duration":93633,"SoundDuration":93633,"Delta":261783769},{"NoteNumber":47,"Velocity":66,"Duration":93633,"SoundDuration":93633,"Delta":261877402},{"NoteNumber":44,"Velocity":64,"Duration":93633,"SoundDuration":93633,"Delta":261971035},{"NoteNumber":88,"Velocity":79,"Duration":335431,"SoundDuration":335431,"Delta":262064668},{"NoteNumber":86,"Velocity":67,"Duration":335431,"SoundDuration":335431,"Delta":262064668},{"NoteNumber":83,"Velocity":67,"Duration":335431,"SoundDuration":335431,"Delta":262064668},{"NoteNumber":76,"Velocity":67,"Duration":335431,"SoundDuration":335431,"Delta":262064668},{"NoteNumber":40,"Velocity":63,"Duration":93633,"SoundDuration":93633,"Delta":262064668},{"NoteNumber":35,"Velocity":62,"Duration":94306,"SoundDuration":94306,"Delta":262158301},{"NoteNumber":32,"Velocity":61,"Duration":147492,"SoundDuration":147492,"Delta":262252607},{"NoteNumber":33,"Velocity":69,"Duration":574589,"SoundDuration":574589,"Delta":262400100},{"NoteNumber":45,"Velocity":81,"Duration":574589,"SoundDuration":574589,"Delta":262400100},{"NoteNumber":52,"Velocity":69,"Duration":93633,"SoundDuration":93633,"Delta":262506524},{"NoteNumber":57,"Velocity":69,"Duration":93633,"SoundDuration":93633,"Delta":262600157},{"NoteNumber":64,"Velocity":78,"Duration":84269,"SoundDuration":84269,"Delta":262693790},{"NoteNumber":60,"Velocity":66,"Duration":84269,"SoundDuration":84269,"Delta":262693790},{"NoteNumber":57,"Velocity":79,"Duration":280898,"SoundDuration":280898,"Delta":262693790},{"NoteNumber":64,"Velocity":67,"Duration":93633,"SoundDuration":93633,"Delta":262787423},{"NoteNumber":69,"Velocity":67,"Duration":93632,"SoundDuration":93632,"Delta":262881056},{"NoteNumber":76,"Velocity":79,"Duration":81227,"SoundDuration":81227,"Delta":262974689},{"NoteNumber":72,"Velocity":67,"Duration":81227,"SoundDuration":81227,"Delta":262974689},{"NoteNumber":48,"Velocity":82,"Duration":541516,"SoundDuration":541516,"Delta":262974689},{"NoteNumber":36,"Velocity":69,"Duration":541516,"SoundDuration":541516,"Delta":262974689},{"NoteNumber":76,"Velocity":69,"Duration":90252,"SoundDuration":90252,"Delta":263064942},{"NoteNumber":81,"Velocity":68,"Duration":90252,"SoundDuration":90252,"Delta":263155195},{"NoteNumber":88,"Velocity":79,"Duration":81227,"SoundDuration":81227,"Delta":263245447},{"NoteNumber":84,"Velocity":67,"Duration":81227,"SoundDuration":81227,"Delta":263245447},{"NoteNumber":60,"Velocity":79,"Duration":270758,"SoundDuration":270758,"Delta":263245447},{"NoteNumber":88,"Velocity":71,"Duration":90252,"SoundDuration":90252,"Delta":263335700},{"NoteNumber":93,"Velocity":71,"Duration":90252,"SoundDuration":90252,"Delta":263425953},{"NoteNumber":100,"Velocity":79,"Duration":90252,"SoundDuration":90252,"Delta":263516205},{"NoteNumber":98,"Velocity":67,"Duration":90252,"SoundDuration":90252,"Delta":263516205},{"NoteNumber":47,"Velocity":82,"Duration":556727,"SoundDuration":556727,"Delta":263516205},{"NoteNumber":35,"Velocity":69,"Duration":556727,"SoundDuration":556727,"Delta":263516205},{"NoteNumber":92,"Velocity":70,"Duration":91942,"SoundDuration":91942,"Delta":263606458},{"NoteNumber":88,"Velocity":70,"Duration":84269,"SoundDuration":84269,"Delta":263698401},{"NoteNumber":88,"Velocity":79,"Duration":93633,"SoundDuration":93633,"Delta":263792034},{"NoteNumber":86,"Velocity":67,"Duration":93633,"SoundDuration":93633,"Delta":263792034},{"NoteNumber":59,"Velocity":77,"Duration":280899,"SoundDuration":280899,"Delta":263792034},{"NoteNumber":80,"Velocity":70,"Duration":93633,"SoundDuration":93633,"Delta":263885667},{"NoteNumber":76,"Velocity":67,"Duration":84269,"SoundDuration":84269,"Delta":263979300},{"NoteNumber":76,"Velocity":73,"Duration":97276,"SoundDuration":97276,"Delta":264072933},{"NoteNumber":72,"Velocity":61,"Duration":97276,"SoundDuration":97276,"Delta":264072933},{"NoteNumber":45,"Velocity":81,"Duration":617182,"SoundDuration":617182,"Delta":264072933},{"NoteNumber":33,"Velocity":69,"Duration":617182,"SoundDuration":617182,"Delta":264072933},{"NoteNumber":69,"Velocity":69,"Duration":97276,"SoundDuration":97276,"Delta":264170209},{"NoteNumber":64,"Velocity":64,"Duration":87548,"SoundDuration":87548,"Delta":264267486},{"NoteNumber":64,"Velocity":63,"Duration":325353,"SoundDuration":325353,"Delta":264364762},{"NoteNumber":60,"Velocity":53,"Duration":325353,"SoundDuration":325353,"Delta":264364762},{"NoteNumber":57,"Velocity":77,"Duration":325353,"SoundDuration":325353,"Delta":264364762},{"NoteNumber":64,"Velocity":71,"Duration":161294,"SoundDuration":161294,"Delta":264690115},{"NoteNumber":56,"Velocity":50,"Duration":161294,"SoundDuration":161294,"Delta":264690115},{"NoteNumber":52,"Velocity":70,"Duration":161294,"SoundDuration":161294,"Delta":264690115},{"NoteNumber":40,"Velocity":59,"Duration":161294,"SoundDuration":161294,"Delta":264690115},{"NoteNumber":47,"Velocity":59,"Duration":161294,"SoundDuration":161294,"Delta":264690115},{"NoteNumber":76,"Velocity":59,"Duration":123823,"SoundDuration":123823,"Delta":264851410},{"NoteNumber":64,"Velocity":49,"Duration":123823,"SoundDuration":123823,"Delta":264851410},{"NoteNumber":52,"Velocity":51,"Duration":123823,"SoundDuration":123823,"Delta":264851410},{"NoteNumber":77,"Velocity":61,"Duration":121971,"SoundDuration":121971,"Delta":264975233},{"NoteNumber":65,"Velocity":50,"Duration":121971,"SoundDuration":121971,"Delta":264975233},{"NoteNumber":53,"Velocity":52,"Duration":121971,"SoundDuration":121971,"Delta":264975233},{"NoteNumber":78,"Velocity":63,"Duration":120340,"SoundDuration":120340,"Delta":265097205},{"NoteNumber":66,"Velocity":52,"Duration":120340,"SoundDuration":120340,"Delta":265097205},{"NoteNumber":54,"Velocity":55,"Duration":120340,"SoundDuration":120340,"Delta":265097205},{"NoteNumber":79,"Velocity":66,"Duration":118594,"SoundDuration":118594,"Delta":265217546},{"NoteNumber":67,"Velocity":56,"Duration":118594,"SoundDuration":118594,"Delta":265217546},{"NoteNumber":55,"Velocity":57,"Duration":118594,"SoundDuration":118594,"Delta":265217546},{"NoteNumber":80,"Velocity":68,"Duration":116900,"SoundDuration":116900,"Delta":265336140},{"NoteNumber":68,"Velocity":58,"Duration":116900,"SoundDuration":116900,"Delta":265336140},{"NoteNumber":56,"Velocity":59,"Duration":116900,"SoundDuration":116900,"Delta":265336140},{"NoteNumber":81,"Velocity":71,"Duration":115113,"SoundDuration":115113,"Delta":265453040},{"NoteNumber":69,"Velocity":60,"Duration":115113,"SoundDuration":115113,"Delta":265453040},{"NoteNumber":57,"Velocity":61,"Duration":115113,"SoundDuration":115113,"Delta":265453040},{"NoteNumber":82,"Velocity":73,"Duration":115584,"SoundDuration":115584,"Delta":265568154},{"NoteNumber":70,"Velocity":61,"Duration":115584,"SoundDuration":115584,"Delta":265568154},{"NoteNumber":58,"Velocity":62,"Duration":115584,"SoundDuration":115584,"Delta":265568154},{"NoteNumber":83,"Velocity":75,"Duration":116459,"SoundDuration":116459,"Delta":265683738},{"NoteNumber":71,"Velocity":64,"Duration":116459,"SoundDuration":116459,"Delta":265683738},{"NoteNumber":59,"Velocity":64,"Duration":116459,"SoundDuration":116459,"Delta":265683738},{"NoteNumber":84,"Velocity":78,"Duration":116459,"SoundDuration":116459,"Delta":265800198},{"NoteNumber":72,"Velocity":66,"Duration":116459,"SoundDuration":116459,"Delta":265800198},{"NoteNumber":60,"Velocity":67,"Duration":116459,"SoundDuration":116459,"Delta":265800198},{"NoteNumber":85,"Velocity":81,"Duration":116459,"SoundDuration":116459,"Delta":265916657},{"NoteNumber":73,"Velocity":68,"Duration":116459,"SoundDuration":116459,"Delta":265916657},{"NoteNumber":61,"Velocity":69,"Duration":116459,"SoundDuration":116459,"Delta":265916657},{"NoteNumber":86,"Velocity":84,"Duration":117707,"SoundDuration":117707,"Delta":266033117},{"NoteNumber":74,"Velocity":70,"Duration":117707,"SoundDuration":117707,"Delta":266033117},{"NoteNumber":62,"Velocity":71,"Duration":117707,"SoundDuration":117707,"Delta":266033117},{"NoteNumber":87,"Velocity":88,"Duration":121209,"SoundDuration":121209,"Delta":266150825},{"NoteNumber":75,"Velocity":73,"Duration":121209,"SoundDuration":121209,"Delta":266150825},{"NoteNumber":63,"Velocity":73,"Duration":121209,"SoundDuration":121209,"Delta":266150825},{"NoteNumber":88,"Velocity":92,"Duration":125258,"SoundDuration":125258,"Delta":266272034},{"NoteNumber":76,"Velocity":78,"Duration":125258,"SoundDuration":125258,"Delta":266272034},{"NoteNumber":64,"Velocity":75,"Duration":125258,"SoundDuration":125258,"Delta":266272034},{"NoteNumber":89,"Velocity":96,"Duration":129035,"SoundDuration":129035,"Delta":266397292},{"NoteNumber":77,"Velocity":81,"Duration":129035,"SoundDuration":129035,"Delta":266397292},{"NoteNumber":65,"Velocity":73,"Duration":129035,"SoundDuration":129035,"Delta":266397292},{"NoteNumber":88,"Velocity":82,"Duration":403225,"SoundDuration":403225,"Delta":266526327},{"NoteNumber":76,"Velocity":69,"Duration":403225,"SoundDuration":403225,"Delta":266526327},{"NoteNumber":64,"Velocity":67,"Duration":403225,"SoundDuration":403225,"Delta":266526327},{"NoteNumber":57,"Velocity":70,"Duration":293690,"SoundDuration":293690,"Delta":266929553},{"NoteNumber":49,"Velocity":59,"Duration":293690,"SoundDuration":293690,"Delta":266929553},{"NoteNumber":52,"Velocity":59,"Duration":293690,"SoundDuration":293690,"Delta":266929553},{"NoteNumber":61,"Velocity":59,"Duration":93633,"SoundDuration":93633,"Delta":267035978},{"NoteNumber":64,"Velocity":59,"Duration":93633,"SoundDuration":93633,"Delta":267129611},{"NoteNumber":69,"Velocity":69,"Duration":84269,"SoundDuration":84269,"Delta":267223244},{"NoteNumber":37,"Velocity":67,"Duration":280898,"SoundDuration":280898,"Delta":267223244},{"NoteNumber":69,"Velocity":59,"Duration":93633,"SoundDuration":93633,"Delta":267316877},{"NoteNumber":73,"Velocity":59,"Duration":93632,"SoundDuration":93632,"Delta":267410510},{"NoteNumber":82,"Velocity":71,"Duration":81227,"SoundDuration":81227,"Delta":267504143},{"NoteNumber":79,"Velocity":60,"Duration":81227,"SoundDuration":81227,"Delta":267504143},{"NoteNumber":58,"Velocity":72,"Duration":270758,"SoundDuration":270758,"Delta":267504143},{"NoteNumber":49,"Velocity":60,"Duration":270758,"SoundDuration":270758,"Delta":267504143},{"NoteNumber":55,"Velocity":60,"Duration":270758,"SoundDuration":270758,"Delta":267504143},{"NoteNumber":82,"Velocity":62,"Duration":90252,"SoundDuration":90252,"Delta":267594396},{"NoteNumber":85,"Velocity":62,"Duration":90252,"SoundDuration":90252,"Delta":267684648},{"NoteNumber":94,"Velocity":74,"Duration":90252,"SoundDuration":90252,"Delta":267774901},{"NoteNumber":91,"Velocity":62,"Duration":90252,"SoundDuration":90252,"Delta":267774901},{"NoteNumber":45,"Velocity":67,"Duration":270758,"SoundDuration":270758,"Delta":267774901},{"NoteNumber":85,"Velocity":66,"Duration":90252,"SoundDuration":90252,"Delta":267865154},{"NoteNumber":82,"Velocity":66,"Duration":90252,"SoundDuration":90252,"Delta":267955406},{"NoteNumber":93,"Velocity":72,"Duration":90252,"SoundDuration":90252,"Delta":268045659},{"NoteNumber":89,"Velocity":60,"Duration":90252,"SoundDuration":90252,"Delta":268045659},{"NoteNumber":57,"Velocity":74,"Duration":275828,"SoundDuration":275828,"Delta":268045659},{"NoteNumber":49,"Velocity":62,"Duration":275828,"SoundDuration":275828,"Delta":268045659},{"NoteNumber":53,"Velocity":62,"Duration":275828,"SoundDuration":275828,"Delta":268045659},{"NoteNumber":85,"Velocity":64,"Duration":91942,"SoundDuration":91942,"Delta":268135912},{"NoteNumber":81,"Velocity":64,"Duration":93633,"SoundDuration":93633,"Delta":268227854},{"NoteNumber":81,"Velocity":70,"Duration":93633,"SoundDuration":93633,"Delta":268321487},{"NoteNumber":77,"Velocity":59,"Duration":93633,"SoundDuration":93633,"Delta":268321487},{"NoteNumber":37,"Velocity":67,"Duration":280899,"SoundDuration":280899,"Delta":268321487},{"NoteNumber":73,"Velocity":70,"Duration":93633,"SoundDuration":93633,"Delta":268415120},{"NoteNumber":69,"Velocity":62,"Duration":93633,"SoundDuration":93633,"Delta":268508753},{"NoteNumber":79,"Velocity":61,"Duration":97276,"SoundDuration":97276,"Delta":268602386},{"NoteNumber":76,"Velocity":44,"Duration":97276,"SoundDuration":97276,"Delta":268602386},{"NoteNumber":55,"Velocity":77,"Duration":291829,"SoundDuration":291829,"Delta":268602386},{"NoteNumber":49,"Velocity":59,"Duration":291829,"SoundDuration":291829,"Delta":268602386},{"NoteNumber":52,"Velocity":64,"Duration":291829,"SoundDuration":291829,"Delta":268602386},{"NoteNumber":70,"Velocity":68,"Duration":97276,"SoundDuration":97276,"Delta":268699663},{"NoteNumber":69,"Velocity":63,"Duration":97276,"SoundDuration":97276,"Delta":268796939},{"NoteNumber":67,"Velocity":62,"Duration":97276,"SoundDuration":97276,"Delta":268894215},{"NoteNumber":64,"Velocity":52,"Duration":97276,"SoundDuration":97276,"Delta":268894215},{"NoteNumber":45,"Velocity":69,"Duration":325353,"SoundDuration":325353,"Delta":268894215},{"NoteNumber":58,"Velocity":61,"Duration":97276,"SoundDuration":97276,"Delta":268991492},{"NoteNumber":57,"Velocity":59,"Duration":130800,"SoundDuration":130800,"Delta":269088768},{"NoteNumber":62,"Velocity":66,"Duration":149304,"SoundDuration":149304,"Delta":269219569},{"NoteNumber":65,"Velocity":75,"Duration":149304,"SoundDuration":149304,"Delta":269219569},{"NoteNumber":53,"Velocity":75,"Duration":149304,"SoundDuration":149304,"Delta":269219569},{"NoteNumber":38,"Velocity":63,"Duration":149304,"SoundDuration":149304,"Delta":269219569},{"NoteNumber":73,"Velocity":53,"Duration":99891,"SoundDuration":99891,"Delta":269502884},{"NoteNumber":67,"Velocity":53,"Duration":264714,"SoundDuration":264714,"Delta":269502884},{"NoteNumber":64,"Velocity":45,"Duration":132902,"SoundDuration":132902,"Delta":269502884},{"NoteNumber":55,"Velocity":38,"Duration":132902,"SoundDuration":132902,"Delta":269502884},{"NoteNumber":58,"Velocity":38,"Duration":132902,"SoundDuration":132902,"Delta":269502884},{"NoteNumber":74,"Velocity":52,"Duration":99109,"SoundDuration":99109,"Delta":269591694},{"NoteNumber":76,"Velocity":53,"Duration":98705,"SoundDuration":98705,"Delta":269679801},{"NoteNumber":77,"Velocity":55,"Duration":98167,"SoundDuration":98167,"Delta":269767599},{"NoteNumber":74,"Velocity":55,"Duration":260422,"SoundDuration":260422,"Delta":269767599},{"NoteNumber":65,"Velocity":47,"Duration":130739,"SoundDuration":130739,"Delta":269767599},{"NoteNumber":57,"Velocity":39,"Duration":130739,"SoundDuration":130739,"Delta":269767599},{"NoteNumber":62,"Velocity":39,"Duration":130739,"SoundDuration":130739,"Delta":269767599},{"NoteNumber":79,"Velocity":56,"Duration":97544,"SoundDuration":97544,"Delta":269854859},{"NoteNumber":81,"Velocity":57,"Duration":97151,"SoundDuration":97151,"Delta":269941590},{"NoteNumber":85,"Velocity":58,"Duration":96483,"SoundDuration":96483,"Delta":270028021},{"NoteNumber":79,"Velocity":58,"Duration":254705,"SoundDuration":254705,"Delta":270028021},{"NoteNumber":76,"Velocity":48,"Duration":128645,"SoundDuration":128645,"Delta":270028021},{"NoteNumber":67,"Velocity":40,"Duration":128645,"SoundDuration":128645,"Delta":270028021},{"NoteNumber":70,"Velocity":40,"Duration":128645,"SoundDuration":128645,"Delta":270028021},{"NoteNumber":86,"Velocity":59,"Duration":95866,"SoundDuration":95866,"Delta":270113784},{"NoteNumber":88,"Velocity":59,"Duration":93963,"SoundDuration":93963,"Delta":270199111},{"NoteNumber":89,"Velocity":60,"Duration":91606,"SoundDuration":91606,"Delta":270282727},{"NoteNumber":86,"Velocity":60,"Duration":239078,"SoundDuration":239078,"Delta":270282727},{"NoteNumber":77,"Velocity":49,"Duration":121575,"SoundDuration":121575,"Delta":270282727},{"NoteNumber":69,"Velocity":41,"Duration":121575,"SoundDuration":121575,"Delta":270282727},{"NoteNumber":74,"Velocity":41,"Duration":121575,"SoundDuration":121575,"Delta":270282727},{"NoteNumber":91,"Velocity":61,"Duration":89463,"SoundDuration":89463,"Delta":270364302},{"NoteNumber":93,"Velocity":62,"Duration":87603,"SoundDuration":87603,"Delta":270443923},{"NoteNumber":97,"Velocity":62,"Duration":88747,"SoundDuration":88747,"Delta":270521806},{"NoteNumber":91,"Velocity":62,"Duration":241372,"SoundDuration":241372,"Delta":270521806},{"NoteNumber":88,"Velocity":51,"Duration":118780,"SoundDuration":118780,"Delta":270521806},{"NoteNumber":82,"Velocity":42,"Duration":118780,"SoundDuration":118780,"Delta":270521806},{"NoteNumber":79,"Velocity":42,"Duration":118780,"SoundDuration":118780,"Delta":270521806},{"NoteNumber":98,"Velocity":63,"Duration":90665,"SoundDuration":90665,"Delta":270600570},{"NoteNumber":100,"Velocity":64,"Duration":92488,"SoundDuration":92488,"Delta":270681089},{"NoteNumber":101,"Velocity":66,"Duration":126198,"SoundDuration":126198,"Delta":270763178},{"NoteNumber":98,"Velocity":66,"Duration":126198,"SoundDuration":126198,"Delta":270763178},{"NoteNumber":93,"Velocity":66,"Duration":126198,"SoundDuration":126198,"Delta":270763178},{"NoteNumber":89,"Velocity":53,"Duration":126198,"SoundDuration":126198,"Delta":270763178},{"NoteNumber":81,"Velocity":45,"Duration":126198,"SoundDuration":126198,"Delta":270763178},{"NoteNumber":86,"Velocity":45,"Duration":126198,"SoundDuration":126198,"Delta":270763178},{"NoteNumber":55,"Velocity":70,"Duration":293690,"SoundDuration":293690,"Delta":271270087},{"NoteNumber":47,"Velocity":59,"Duration":293690,"SoundDuration":293690,"Delta":271270087},{"NoteNumber":50,"Velocity":59,"Duration":293690,"SoundDuration":293690,"Delta":271270087},{"NoteNumber":59,"Velocity":59,"Duration":93633,"SoundDuration":93633,"Delta":271376511},{"NoteNumber":62,"Velocity":59,"Duration":93633,"SoundDuration":93633,"Delta":271470144},{"NoteNumber":67,"Velocity":69,"Duration":84269,"SoundDuration":84269,"Delta":271563777},{"NoteNumber":35,"Velocity":67,"Duration":280898,"SoundDuration":280898,"Delta":271563777},{"NoteNumber":67,"Velocity":59,"Duration":93633,"SoundDuration":93633,"Delta":271657410},{"NoteNumber":71,"Velocity":59,"Duration":93632,"SoundDuration":93632,"Delta":271751043},{"NoteNumber":80,"Velocity":71,"Duration":81227,"SoundDuration":81227,"Delta":271844676},{"NoteNumber":77,"Velocity":60,"Duration":81227,"SoundDuration":81227,"Delta":271844676},{"NoteNumber":56,"Velocity":72,"Duration":270758,"SoundDuration":270758,"Delta":271844676},{"NoteNumber":47,"Velocity":60,"Duration":270758,"SoundDuration":270758,"Delta":271844676},{"NoteNumber":53,"Velocity":60,"Duration":270758,"SoundDuration":270758,"Delta":271844676},{"NoteNumber":80,"Velocity":62,"Duration":90252,"SoundDuration":90252,"Delta":271934929},{"NoteNumber":83,"Velocity":62,"Duration":90252,"SoundDuration":90252,"Delta":272025182},{"NoteNumber":92,"Velocity":74,"Duration":90252,"SoundDuration":90252,"Delta":272115434},{"NoteNumber":89,"Velocity":62,"Duration":90252,"SoundDuration":90252,"Delta":272115434},{"NoteNumber":43,"Velocity":67,"Duration":270758,"SoundDuration":270758,"Delta":272115434},{"NoteNumber":83,"Velocity":66,"Duration":90252,"SoundDuration":90252,"Delta":272205687},{"NoteNumber":80,"Velocity":66,"Duration":90252,"SoundDuration":90252,"Delta":272295940},{"NoteNumber":91,"Velocity":72,"Duration":90252,"SoundDuration":90252,"Delta":272386192},{"NoteNumber":88,"Velocity":60,"Duration":90252,"SoundDuration":90252,"Delta":272386192},{"NoteNumber":55,"Velocity":74,"Duration":275828,"SoundDuration":275828,"Delta":272386192},{"NoteNumber":47,"Velocity":62,"Duration":275828,"SoundDuration":275828,"Delta":272386192},{"NoteNumber":52,"Velocity":62,"Duration":275828,"SoundDuration":275828,"Delta":272386192},{"NoteNumber":83,"Velocity":64,"Duration":91942,"SoundDuration":91942,"Delta":272476445},{"NoteNumber":79,"Velocity":64,"Duration":93633,"SoundDuration":93633,"Delta":272568388},{"NoteNumber":79,"Velocity":70,"Duration":93633,"SoundDuration":93633,"Delta":272662021},{"NoteNumber":76,"Velocity":59,"Duration":93633,"SoundDuration":93633,"Delta":272662021},{"NoteNumber":35,"Velocity":67,"Duration":280899,"SoundDuration":280899,"Delta":272662021},{"NoteNumber":71,"Velocity":68,"Duration":93633,"SoundDuration":93633,"Delta":272755654},{"NoteNumber":67,"Velocity":62,"Duration":93633,"SoundDuration":93633,"Delta":272849287},{"NoteNumber":77,"Velocity":61,"Duration":97276,"SoundDuration":97276,"Delta":272942920},{"NoteNumber":74,"Velocity":44,"Duration":97276,"SoundDuration":97276,"Delta":272942920},{"NoteNumber":53,"Velocity":77,"Duration":291829,"SoundDuration":291829,"Delta":272942920},{"NoteNumber":47,"Velocity":59,"Duration":291829,"SoundDuration":291829,"Delta":272942920},{"NoteNumber":50,"Velocity":64,"Duration":291829,"SoundDuration":291829,"Delta":272942920},{"NoteNumber":68,"Velocity":68,"Duration":97276,"SoundDuration":97276,"Delta":273040196},{"NoteNumber":67,"Velocity":63,"Duration":97276,"SoundDuration":97276,"Delta":273137473},{"NoteNumber":65,"Velocity":62,"Duration":97276,"SoundDuration":97276,"Delta":273234749},{"NoteNumber":62,"Velocity":52,"Duration":97276,"SoundDuration":97276,"Delta":273234749},{"NoteNumber":43,"Velocity":69,"Duration":325353,"SoundDuration":325353,"Delta":273234749},{"NoteNumber":56,"Velocity":61,"Duration":97276,"SoundDuration":97276,"Delta":273332025},{"NoteNumber":55,"Velocity":59,"Duration":130800,"SoundDuration":130800,"Delta":273429302},{"NoteNumber":60,"Velocity":63,"Duration":149304,"SoundDuration":149304,"Delta":273560102},{"NoteNumber":64,"Velocity":75,"Duration":149304,"SoundDuration":149304,"Delta":273560102},{"NoteNumber":52,"Velocity":71,"Duration":149304,"SoundDuration":149304,"Delta":273560102},{"NoteNumber":36,"Velocity":63,"Duration":149304,"SoundDuration":149304,"Delta":273560102},{"NoteNumber":71,"Velocity":53,"Duration":99891,"SoundDuration":99891,"Delta":273843418},{"NoteNumber":65,"Velocity":53,"Duration":264714,"SoundDuration":264714,"Delta":273843418},{"NoteNumber":62,"Velocity":45,"Duration":132902,"SoundDuration":132902,"Delta":273843418},{"NoteNumber":53,"Velocity":38,"Duration":132902,"SoundDuration":132902,"Delta":273843418},{"NoteNumber":56,"Velocity":38,"Duration":132902,"SoundDuration":132902,"Delta":273843418},{"NoteNumber":72,"Velocity":52,"Duration":99109,"SoundDuration":99109,"Delta":273932228},{"NoteNumber":74,"Velocity":53,"Duration":98705,"SoundDuration":98705,"Delta":274020334},{"NoteNumber":76,"Velocity":55,"Duration":98167,"SoundDuration":98167,"Delta":274108132},{"NoteNumber":72,"Velocity":55,"Duration":260422,"SoundDuration":260422,"Delta":274108132},{"NoteNumber":64,"Velocity":47,"Duration":130739,"SoundDuration":130739,"Delta":274108132},{"NoteNumber":55,"Velocity":39,"Duration":130739,"SoundDuration":130739,"Delta":274108132},{"NoteNumber":60,"Velocity":39,"Duration":130739,"SoundDuration":130739,"Delta":274108132},{"NoteNumber":77,"Velocity":56,"Duration":97544,"SoundDuration":97544,"Delta":274195392},{"NoteNumber":79,"Velocity":57,"Duration":97151,"SoundDuration":97151,"Delta":274282124},{"NoteNumber":83,"Velocity":58,"Duration":96483,"SoundDuration":96483,"Delta":274368555},{"NoteNumber":77,"Velocity":58,"Duration":254705,"SoundDuration":254705,"Delta":274368555},{"NoteNumber":68,"Velocity":40,"Duration":128645,"SoundDuration":128645,"Delta":274368555},{"NoteNumber":74,"Velocity":48,"Duration":128645,"SoundDuration":128645,"Delta":274368555},{"NoteNumber":65,"Velocity":40,"Duration":128645,"SoundDuration":128645,"Delta":274368555},{"NoteNumber":84,"Velocity":59,"Duration":95866,"SoundDuration":95866,"Delta":274454318},{"NoteNumber":86,"Velocity":59,"Duration":93963,"SoundDuration":93963,"Delta":274539645},{"NoteNumber":88,"Velocity":60,"Duration":91606,"SoundDuration":91606,"Delta":274623260},{"NoteNumber":84,"Velocity":60,"Duration":239078,"SoundDuration":239078,"Delta":274623260},{"NoteNumber":76,"Velocity":49,"Duration":121575,"SoundDuration":121575,"Delta":274623260},{"NoteNumber":67,"Velocity":41,"Duration":121575,"SoundDuration":121575,"Delta":274623260},{"NoteNumber":72,"Velocity":41,"Duration":121575,"SoundDuration":121575,"Delta":274623260},{"NoteNumber":89,"Velocity":61,"Duration":89463,"SoundDuration":89463,"Delta":274704835},{"NoteNumber":91,"Velocity":62,"Duration":87603,"SoundDuration":87603,"Delta":274784456},{"NoteNumber":95,"Velocity":62,"Duration":88747,"SoundDuration":88747,"Delta":274862339},{"NoteNumber":89,"Velocity":62,"Duration":241286,"SoundDuration":241286,"Delta":274862339},{"NoteNumber":86,"Velocity":51,"Duration":118780,"SoundDuration":118780,"Delta":274862339},{"NoteNumber":80,"Velocity":42,"Duration":118780,"SoundDuration":118780,"Delta":274862339},{"NoteNumber":77,"Velocity":42,"Duration":118780,"SoundDuration":118780,"Delta":274862339},{"NoteNumber":96,"Velocity":63,"Duration":90665,"SoundDuration":90665,"Delta":274941103},{"NoteNumber":98,"Velocity":64,"Duration":94916,"SoundDuration":94916,"Delta":275021623},{"NoteNumber":100,"Velocity":66,"Duration":154958,"SoundDuration":154958,"Delta":275103626},{"NoteNumber":96,"Velocity":66,"Duration":154958,"SoundDuration":154958,"Delta":275103626},{"NoteNumber":91,"Velocity":66,"Duration":154958,"SoundDuration":154958,"Delta":275103626},{"NoteNumber":88,"Velocity":53,"Duration":154958,"SoundDuration":154958,"Delta":275103626},{"NoteNumber":79,"Velocity":45,"Duration":154958,"SoundDuration":154958,"Delta":275103626},{"NoteNumber":84,"Velocity":45,"Duration":154958,"SoundDuration":154958,"Delta":275103626},{"NoteNumber":60,"Velocity":67,"Duration":89285,"SoundDuration":89285,"Delta":275413543},{"NoteNumber":48,"Velocity":61,"Duration":89285,"SoundDuration":89285,"Delta":275413543},{"NoteNumber":62,"Velocity":70,"Duration":89687,"SoundDuration":89687,"Delta":275502829},{"NoteNumber":50,"Velocity":66,"Duration":89687,"SoundDuration":89687,"Delta":275502829},{"NoteNumber":64,"Velocity":71,"Duration":90090,"SoundDuration":90090,"Delta":275592517},{"NoteNumber":52,"Velocity":69,"Duration":90090,"SoundDuration":90090,"Delta":275592517},{"NoteNumber":65,"Velocity":85,"Duration":289382,"SoundDuration":289382,"Delta":275682607},{"NoteNumber":53,"Velocity":74,"Duration":289382,"SoundDuration":289382,"Delta":275682607},{"NoteNumber":41,"Velocity":74,"Duration":289382,"SoundDuration":289382,"Delta":275682607},{"NoteNumber":89,"Velocity":74,"Duration":273224,"SoundDuration":273224,"Delta":275971990},{"NoteNumber":77,"Velocity":62,"Duration":273224,"SoundDuration":273224,"Delta":275971990},{"NoteNumber":68,"Velocity":69,"Duration":273224,"SoundDuration":273224,"Delta":275971990},{"NoteNumber":62,"Velocity":58,"Duration":273224,"SoundDuration":273224,"Delta":275971990},{"NoteNumber":59,"Velocity":58,"Duration":273224,"SoundDuration":273224,"Delta":275971990},{"NoteNumber":83,"Velocity":77,"Duration":297618,"SoundDuration":297618,"Delta":276245214},{"NoteNumber":71,"Velocity":64,"Duration":297618,"SoundDuration":297618,"Delta":276245214},{"NoteNumber":68,"Velocity":69,"Duration":297618,"SoundDuration":297618,"Delta":276245214},{"NoteNumber":62,"Velocity":59,"Duration":297618,"SoundDuration":297618,"Delta":276245214},{"NoteNumber":59,"Velocity":59,"Duration":297618,"SoundDuration":297618,"Delta":276245214},{"NoteNumber":59,"Velocity":68,"Duration":91074,"SoundDuration":91074,"Delta":276542833},{"NoteNumber":35,"Velocity":60,"Duration":271747,"SoundDuration":271747,"Delta":276542833},{"NoteNumber":47,"Velocity":72,"Duration":271747,"SoundDuration":271747,"Delta":276542833},{"NoteNumber":60,"Velocity":71,"Duration":90582,"SoundDuration":90582,"Delta":276633908},{"NoteNumber":62,"Velocity":73,"Duration":90090,"SoundDuration":90090,"Delta":276724490},{"NoteNumber":63,"Velocity":85,"Duration":286894,"SoundDuration":286894,"Delta":276814580},{"NoteNumber":51,"Velocity":79,"Duration":286894,"SoundDuration":286894,"Delta":276814580},{"NoteNumber":39,"Velocity":79,"Duration":286894,"SoundDuration":286894,"Delta":276814580},{"NoteNumber":87,"Velocity":77,"Duration":269440,"SoundDuration":269440,"Delta":277101474},{"NoteNumber":75,"Velocity":64,"Duration":269440,"SoundDuration":269440,"Delta":277101474},{"NoteNumber":66,"Velocity":69,"Duration":269440,"SoundDuration":269440,"Delta":277101474},{"NoteNumber":60,"Velocity":59,"Duration":269440,"SoundDuration":269440,"Delta":277101474},{"NoteNumber":57,"Velocity":59,"Duration":269440,"SoundDuration":269440,"Delta":277101474},{"NoteNumber":81,"Velocity":78,"Duration":300600,"SoundDuration":300600,"Delta":277370915},{"NoteNumber":69,"Velocity":66,"Duration":300600,"SoundDuration":300600,"Delta":277370915},{"NoteNumber":66,"Velocity":68,"Duration":300600,"SoundDuration":300600,"Delta":277370915},{"NoteNumber":60,"Velocity":58,"Duration":300600,"SoundDuration":300600,"Delta":277370915},{"NoteNumber":57,"Velocity":55,"Duration":300600,"SoundDuration":300600,"Delta":277370915},{"NoteNumber":57,"Velocity":69,"Duration":89285,"SoundDuration":89285,"Delta":277671516},{"NoteNumber":33,"Velocity":62,"Duration":269063,"SoundDuration":269063,"Delta":277671516},{"NoteNumber":45,"Velocity":74,"Duration":269063,"SoundDuration":269063,"Delta":277671516},{"NoteNumber":59,"Velocity":72,"Duration":89687,"SoundDuration":89687,"Delta":277760801},{"NoteNumber":60,"Velocity":75,"Duration":90090,"SoundDuration":90090,"Delta":277850489},{"NoteNumber":61,"Velocity":89,"Duration":285683,"SoundDuration":285683,"Delta":277940579},{"NoteNumber":49,"Velocity":79,"Duration":285683,"SoundDuration":285683,"Delta":277940579},{"NoteNumber":37,"Velocity":79,"Duration":285683,"SoundDuration":285683,"Delta":277940579},{"NoteNumber":85,"Velocity":78,"Duration":265486,"SoundDuration":265486,"Delta":278226263},{"NoteNumber":73,"Velocity":66,"Duration":265486,"SoundDuration":265486,"Delta":278226263},{"NoteNumber":64,"Velocity":71,"Duration":265486,"SoundDuration":265486,"Delta":278226263},{"NoteNumber":58,"Velocity":60,"Duration":265486,"SoundDuration":265486,"Delta":278226263},{"NoteNumber":55,"Velocity":60,"Duration":265486,"SoundDuration":265486,"Delta":278226263},{"NoteNumber":79,"Velocity":79,"Duration":288461,"SoundDuration":288461,"Delta":278491749},{"NoteNumber":67,"Velocity":68,"Duration":288461,"SoundDuration":288461,"Delta":278491749},{"NoteNumber":64,"Velocity":72,"Duration":288461,"SoundDuration":288461,"Delta":278491749},{"NoteNumber":58,"Velocity":60,"Duration":288461,"SoundDuration":288461,"Delta":278491749},{"NoteNumber":55,"Velocity":60,"Duration":288461,"SoundDuration":288461,"Delta":278491749},{"NoteNumber":55,"Velocity":70,"Duration":92592,"SoundDuration":92592,"Delta":278780211},{"NoteNumber":31,"Velocity":63,"Duration":274024,"SoundDuration":274024,"Delta":278780211},{"NoteNumber":43,"Velocity":75,"Duration":274024,"SoundDuration":274024,"Delta":278780211},{"NoteNumber":56,"Velocity":74,"Duration":91341,"SoundDuration":91341,"Delta":278872804},{"NoteNumber":58,"Velocity":77,"Duration":90090,"SoundDuration":90090,"Delta":278964145},{"NoteNumber":59,"Velocity":88,"Duration":291702,"SoundDuration":291702,"Delta":279054235},{"NoteNumber":47,"Velocity":83,"Duration":291702,"SoundDuration":291702,"Delta":279054235},{"NoteNumber":35,"Velocity":83,"Duration":291702,"SoundDuration":291702,"Delta":279054235},{"NoteNumber":83,"Velocity":79,"Duration":280373,"SoundDuration":280373,"Delta":279345937},{"NoteNumber":71,"Velocity":68,"Duration":280373,"SoundDuration":280373,"Delta":279345937},{"NoteNumber":62,"Velocity":72,"Duration":280373,"SoundDuration":280373,"Delta":279345937},{"NoteNumber":56,"Velocity":61,"Duration":280373,"SoundDuration":280373,"Delta":279345937},{"NoteNumber":53,"Velocity":61,"Duration":280373,"SoundDuration":280373,"Delta":279345937},{"NoteNumber":77,"Velocity":81,"Duration":287838,"SoundDuration":287838,"Delta":279626311},{"NoteNumber":65,"Velocity":69,"Duration":287838,"SoundDuration":287838,"Delta":279626311},{"NoteNumber":62,"Velocity":73,"Duration":287838,"SoundDuration":287838,"Delta":279626311},{"NoteNumber":56,"Velocity":62,"Duration":287838,"SoundDuration":287838,"Delta":279626311},{"NoteNumber":53,"Velocity":62,"Duration":287838,"SoundDuration":287838,"Delta":279626311},{"NoteNumber":53,"Velocity":71,"Duration":92592,"SoundDuration":92592,"Delta":279914150},{"NoteNumber":29,"Velocity":64,"Duration":280522,"SoundDuration":280522,"Delta":279914150},{"NoteNumber":41,"Velocity":78,"Duration":280522,"SoundDuration":280522,"Delta":279914150},{"NoteNumber":56,"Velocity":75,"Duration":93590,"SoundDuration":93590,"Delta":280006742},{"NoteNumber":58,"Velocity":78,"Duration":94339,"SoundDuration":94339,"Delta":280100333},{"NoteNumber":59,"Velocity":91,"Duration":297444,"SoundDuration":297444,"Delta":280194673},{"NoteNumber":47,"Velocity":85,"Duration":297444,"SoundDuration":297444,"Delta":280194673},{"NoteNumber":35,"Velocity":85,"Duration":297444,"SoundDuration":297444,"Delta":280194673},{"NoteNumber":83,"Velocity":81,"Duration":285714,"SoundDuration":285714,"Delta":280492117},{"NoteNumber":71,"Velocity":69,"Duration":285714,"SoundDuration":285714,"Delta":280492117},{"NoteNumber":62,"Velocity":74,"Duration":285714,"SoundDuration":285714,"Delta":280492117},{"NoteNumber":57,"Velocity":62,"Duration":285714,"SoundDuration":285714,"Delta":280492117},{"NoteNumber":53,"Velocity":62,"Duration":285714,"SoundDuration":285714,"Delta":280492117},{"NoteNumber":77,"Velocity":83,"Duration":288249,"SoundDuration":288249,"Delta":280777832},{"NoteNumber":65,"Velocity":70,"Duration":288249,"SoundDuration":288249,"Delta":280777832},{"NoteNumber":62,"Velocity":75,"Duration":288249,"SoundDuration":288249,"Delta":280777832},{"NoteNumber":57,"Velocity":63,"Duration":288249,"SoundDuration":288249,"Delta":280777832},{"NoteNumber":53,"Velocity":63,"Duration":288249,"SoundDuration":288249,"Delta":280777832},{"NoteNumber":53,"Velocity":73,"Duration":95379,"SoundDuration":95379,"Delta":281066081},{"NoteNumber":29,"Velocity":67,"Duration":295289,"SoundDuration":295289,"Delta":281066081},{"NoteNumber":41,"Velocity":79,"Duration":295289,"SoundDuration":295289,"Delta":281066081},{"NoteNumber":57,"Velocity":78,"Duration":98900,"SoundDuration":98900,"Delta":281161461},{"NoteNumber":58,"Velocity":79,"Duration":101010,"SoundDuration":101010,"Delta":281260361},{"NoteNumber":59,"Velocity":94,"Duration":315223,"SoundDuration":315223,"Delta":281361371},{"NoteNumber":47,"Velocity":86,"Duration":315223,"SoundDuration":315223,"Delta":281361371},{"NoteNumber":35,"Velocity":86,"Duration":315223,"SoundDuration":315223,"Delta":281361371},{"NoteNumber":83,"Velocity":83,"Duration":297618,"SoundDuration":297618,"Delta":281676595},{"NoteNumber":71,"Velocity":70,"Duration":297618,"SoundDuration":297618,"Delta":281676595},{"NoteNumber":63,"Velocity":77,"Duration":297618,"SoundDuration":297618,"Delta":281676595},{"NoteNumber":57,"Velocity":64,"Duration":297618,"SoundDuration":297618,"Delta":281676595},{"NoteNumber":53,"Velocity":64,"Duration":297618,"SoundDuration":297618,"Delta":281676595},{"NoteNumber":77,"Velocity":84,"Duration":326797,"SoundDuration":326797,"Delta":281974214},{"NoteNumber":65,"Velocity":71,"Duration":326797,"SoundDuration":326797,"Delta":281974214},{"NoteNumber":63,"Velocity":77,"Duration":326797,"SoundDuration":326797,"Delta":281974214},{"NoteNumber":57,"Velocity":64,"Duration":326797,"SoundDuration":326797,"Delta":281974214},{"NoteNumber":53,"Velocity":64,"Duration":326797,"SoundDuration":326797,"Delta":281974214},{"NoteNumber":57,"Velocity":92,"Duration":112306,"SoundDuration":112306,"Delta":282301011},{"NoteNumber":45,"Velocity":79,"Duration":112306,"SoundDuration":112306,"Delta":282301011},{"NoteNumber":55,"Velocity":95,"Duration":123252,"SoundDuration":123252,"Delta":282413317},{"NoteNumber":43,"Velocity":82,"Duration":123252,"SoundDuration":123252,"Delta":282413317},{"NoteNumber":53,"Velocity":99,"Duration":124981,"SoundDuration":124981,"Delta":282536570},{"NoteNumber":41,"Velocity":85,"Duration":124981,"SoundDuration":124981,"Delta":282536570},{"NoteNumber":52,"Velocity":106,"Duration":306748,"SoundDuration":306748,"Delta":282661551},{"NoteNumber":40,"Velocity":89,"Duration":306748,"SoundDuration":306748,"Delta":282661551},{"NoteNumber":83,"Velocity":90,"Duration":385604,"SoundDuration":385604,"Delta":283275048},{"NoteNumber":81,"Velocity":90,"Duration":385604,"SoundDuration":385604,"Delta":283275048},{"NoteNumber":76,"Velocity":77,"Duration":385604,"SoundDuration":385604,"Delta":283275048},{"NoteNumber":71,"Velocity":77,"Duration":385604,"SoundDuration":385604,"Delta":283275048},{"NoteNumber":64,"Velocity":80,"Duration":385604,"SoundDuration":385604,"Delta":283275048},{"NoteNumber":59,"Velocity":80,"Duration":385604,"SoundDuration":385604,"Delta":283275048},{"NoteNumber":57,"Velocity":68,"Duration":385604,"SoundDuration":385604,"Delta":283275048},{"NoteNumber":52,"Velocity":68,"Duration":385604,"SoundDuration":385604,"Delta":283275048},{"NoteNumber":64,"Velocity":96,"Duration":362319,"SoundDuration":362319,"Delta":284046256},{"NoteNumber":52,"Velocity":89,"Duration":362319,"SoundDuration":362319,"Delta":284046256},{"NoteNumber":40,"Velocity":74,"Duration":362319,"SoundDuration":362319,"Delta":284046256},{"NoteNumber":88,"Velocity":89,"Duration":442477,"SoundDuration":442477,"Delta":284770894},{"NoteNumber":83,"Velocity":89,"Duration":442477,"SoundDuration":442477,"Delta":284770894},{"NoteNumber":80,"Velocity":75,"Duration":442477,"SoundDuration":442477,"Delta":284770894},{"NoteNumber":76,"Velocity":75,"Duration":442477,"SoundDuration":442477,"Delta":284770894},{"NoteNumber":64,"Velocity":80,"Duration":442477,"SoundDuration":442477,"Delta":284770894},{"NoteNumber":59,"Velocity":80,"Duration":442477,"SoundDuration":442477,"Delta":284770894},{"NoteNumber":56,"Velocity":68,"Duration":442477,"SoundDuration":442477,"Delta":284770894},{"NoteNumber":52,"Velocity":68,"Duration":442477,"SoundDuration":442477,"Delta":284770894},{"NoteNumber":45,"Velocity":88,"Duration":274374,"SoundDuration":274374,"Delta":285655850},{"NoteNumber":33,"Velocity":73,"Duration":274374,"SoundDuration":274374,"Delta":285655850},{"NoteNumber":36,"Velocity":73,"Duration":274374,"SoundDuration":274374,"Delta":285655850},{"NoteNumber":40,"Velocity":73,"Duration":274343,"SoundDuration":274343,"Delta":285659247},{"NoteNumber":52,"Velocity":59,"Duration":91699,"SoundDuration":91699,"Delta":285748758},{"NoteNumber":57,"Velocity":59,"Duration":89766,"SoundDuration":89766,"Delta":285840458},{"NoteNumber":64,"Velocity":69,"Duration":80789,"SoundDuration":80789,"Delta":285930225},{"NoteNumber":60,"Velocity":69,"Duration":80789,"SoundDuration":80789,"Delta":285930225},{"NoteNumber":64,"Velocity":59,"Duration":89766,"SoundDuration":89766,"Delta":286019991},{"NoteNumber":57,"Velocity":78,"Duration":134650,"SoundDuration":134650,"Delta":286064875},{"NoteNumber":69,"Velocity":59,"Duration":89766,"SoundDuration":89766,"Delta":286109758},{"NoteNumber":76,"Velocity":71,"Duration":78671,"SoundDuration":78671,"Delta":286199525},{"NoteNumber":72,"Velocity":60,"Duration":78671,"SoundDuration":78671,"Delta":286199525},{"NoteNumber":57,"Velocity":82,"Duration":131119,"SoundDuration":131119,"Delta":286199525},{"NoteNumber":76,"Velocity":62,"Duration":87412,"SoundDuration":87412,"Delta":286286937},{"NoteNumber":60,"Velocity":79,"Duration":131119,"SoundDuration":131119,"Delta":286330644},{"NoteNumber":81,"Velocity":62,"Duration":87412,"SoundDuration":87412,"Delta":286374350},{"NoteNumber":88,"Velocity":74,"Duration":78671,"SoundDuration":78671,"Delta":286461763},{"NoteNumber":84,"Velocity":62,"Duration":78671,"SoundDuration":78671,"Delta":286461763},{"NoteNumber":59,"Velocity":83,"Duration":131118,"SoundDuration":131118,"Delta":286461763},{"NoteNumber":88,"Velocity":66,"Duration":92534,"SoundDuration":92534,"Delta":286549175},{"NoteNumber":57,"Velocity":79,"Duration":146484,"SoundDuration":146484,"Delta":286592882},{"NoteNumber":93,"Velocity":66,"Duration":97656,"SoundDuration":97656,"Delta":286641710},{"NoteNumber":100,"Velocity":72,"Duration":93984,"SoundDuration":93984,"Delta":286739366},{"NoteNumber":96,"Velocity":60,"Duration":93984,"SoundDuration":93984,"Delta":286739366},{"NoteNumber":64,"Velocity":85,"Duration":275627,"SoundDuration":275627,"Delta":286739366},{"NoteNumber":93,"Velocity":64,"Duration":91875,"SoundDuration":91875,"Delta":286833351},{"NoteNumber":88,"Velocity":64,"Duration":80789,"SoundDuration":80789,"Delta":286925227},{"NoteNumber":88,"Velocity":70,"Duration":89766,"SoundDuration":89766,"Delta":287014994},{"NoteNumber":84,"Velocity":59,"Duration":89766,"SoundDuration":89766,"Delta":287014994},{"NoteNumber":81,"Velocity":66,"Duration":89766,"SoundDuration":89766,"Delta":287104760},{"NoteNumber":40,"Velocity":80,"Duration":134650,"SoundDuration":134650,"Delta":287149644},{"NoteNumber":76,"Velocity":62,"Duration":80789,"SoundDuration":80789,"Delta":287194527},{"NoteNumber":76,"Velocity":61,"Duration":93109,"SoundDuration":93109,"Delta":287284294},{"NoteNumber":72,"Velocity":44,"Duration":93109,"SoundDuration":93109,"Delta":287284294},{"NoteNumber":40,"Velocity":85,"Duration":139664,"SoundDuration":139664,"Delta":287284294},{"NoteNumber":69,"Velocity":68,"Duration":93109,"SoundDuration":93109,"Delta":287377404},{"NoteNumber":43,"Velocity":80,"Duration":139664,"SoundDuration":139664,"Delta":287423959},{"NoteNumber":64,"Velocity":63,"Duration":83798,"SoundDuration":83798,"Delta":287470513},{"NoteNumber":64,"Velocity":62,"Duration":96704,"SoundDuration":96704,"Delta":287563623},{"NoteNumber":60,"Velocity":52,"Duration":96704,"SoundDuration":96704,"Delta":287563623},{"NoteNumber":41,"Velocity":86,"Duration":146870,"SoundDuration":146870,"Delta":287563623},{"NoteNumber":57,"Velocity":61,"Duration":101228,"SoundDuration":101228,"Delta":287660327},{"NoteNumber":40,"Velocity":80,"Duration":157268,"SoundDuration":157268,"Delta":287710494},{"NoteNumber":52,"Velocity":59,"Duration":106205,"SoundDuration":106205,"Delta":287761556},{"NoteNumber":45,"Velocity":88,"Duration":274374,"SoundDuration":274374,"Delta":287867762},{"NoteNumber":33,"Velocity":73,"Duration":274374,"SoundDuration":274374,"Delta":287867762},{"NoteNumber":37,"Velocity":73,"Duration":274374,"SoundDuration":274374,"Delta":287867762},{"NoteNumber":40,"Velocity":73,"Duration":274284,"SoundDuration":274284,"Delta":287871159},{"NoteNumber":52,"Velocity":59,"Duration":91699,"SoundDuration":91699,"Delta":287960670},{"NoteNumber":57,"Velocity":59,"Duration":89766,"SoundDuration":89766,"Delta":288052370},{"NoteNumber":64,"Velocity":69,"Duration":79365,"SoundDuration":79365,"Delta":288142137},{"NoteNumber":61,"Velocity":69,"Duration":79365,"SoundDuration":79365,"Delta":288142137},{"NoteNumber":64,"Velocity":59,"Duration":88183,"SoundDuration":88183,"Delta":288230320},{"NoteNumber":57,"Velocity":79,"Duration":132275,"SoundDuration":132275,"Delta":288274412},{"NoteNumber":69,"Velocity":59,"Duration":88183,"SoundDuration":88183,"Delta":288318504},{"NoteNumber":76,"Velocity":71,"Duration":79365,"SoundDuration":79365,"Delta":288406687},{"NoteNumber":73,"Velocity":60,"Duration":79365,"SoundDuration":79365,"Delta":288406687},{"NoteNumber":57,"Velocity":83,"Duration":132275,"SoundDuration":132275,"Delta":288406687},{"NoteNumber":76,"Velocity":62,"Duration":88183,"SoundDuration":88183,"Delta":288494871},{"NoteNumber":60,"Velocity":78,"Duration":132275,"SoundDuration":132275,"Delta":288538962},{"NoteNumber":81,"Velocity":62,"Duration":88183,"SoundDuration":88183,"Delta":288583054},{"NoteNumber":88,"Velocity":74,"Duration":79365,"SoundDuration":79365,"Delta":288671238},{"NoteNumber":85,"Velocity":62,"Duration":79365,"SoundDuration":79365,"Delta":288671238},{"NoteNumber":58,"Velocity":82,"Duration":132275,"SoundDuration":132275,"Delta":288671238},{"NoteNumber":88,"Velocity":66,"Duration":91530,"SoundDuration":91530,"Delta":288759421},{"NoteNumber":57,"Velocity":79,"Duration":142314,"SoundDuration":142314,"Delta":288803513},{"NoteNumber":93,"Velocity":66,"Duration":94876,"SoundDuration":94876,"Delta":288850951},{"NoteNumber":100,"Velocity":72,"Duration":94876,"SoundDuration":94876,"Delta":288945828},{"NoteNumber":97,"Velocity":60,"Duration":94876,"SoundDuration":94876,"Delta":288945828},{"NoteNumber":67,"Velocity":83,"Duration":278184,"SoundDuration":278184,"Delta":288945828},{"NoteNumber":93,"Velocity":64,"Duration":92728,"SoundDuration":92728,"Delta":289040704},{"NoteNumber":88,"Velocity":64,"Duration":81521,"SoundDuration":81521,"Delta":289133433},{"NoteNumber":88,"Velocity":70,"Duration":90579,"SoundDuration":90579,"Delta":289224012},{"NoteNumber":85,"Velocity":59,"Duration":90579,"SoundDuration":90579,"Delta":289224012},{"NoteNumber":81,"Velocity":66,"Duration":90579,"SoundDuration":90579,"Delta":289314592},{"NoteNumber":45,"Velocity":81,"Duration":135869,"SoundDuration":135869,"Delta":289359882},{"NoteNumber":76,"Velocity":62,"Duration":81521,"SoundDuration":81521,"Delta":289405172},{"NoteNumber":76,"Velocity":61,"Duration":97276,"SoundDuration":97276,"Delta":289495751},{"NoteNumber":73,"Velocity":44,"Duration":97276,"SoundDuration":97276,"Delta":289495751},{"NoteNumber":45,"Velocity":86,"Duration":145914,"SoundDuration":145914,"Delta":289495751},{"NoteNumber":69,"Velocity":68,"Duration":95193,"SoundDuration":95193,"Delta":289593028},{"NoteNumber":48,"Velocity":81,"Duration":139928,"SoundDuration":139928,"Delta":289641666},{"NoteNumber":64,"Velocity":63,"Duration":83922,"SoundDuration":83922,"Delta":289688221},{"NoteNumber":64,"Velocity":62,"Duration":95711,"SoundDuration":95711,"Delta":289781595},{"NoteNumber":61,"Velocity":52,"Duration":95711,"SoundDuration":95711,"Delta":289781595},{"NoteNumber":46,"Velocity":86,"Duration":144528,"SoundDuration":144528,"Delta":289781595},{"NoteNumber":57,"Velocity":61,"Duration":98544,"SoundDuration":98544,"Delta":289877306},{"NoteNumber":45,"Velocity":79,"Duration":151274,"SoundDuration":151274,"Delta":289926123},{"NoteNumber":52,"Velocity":59,"Duration":101547,"SoundDuration":101547,"Delta":289975851},{"NoteNumber":45,"Velocity":73,"Duration":280173,"SoundDuration":280173,"Delta":290077398},{"NoteNumber":50,"Velocity":88,"Duration":280173,"SoundDuration":280173,"Delta":290077398},{"NoteNumber":38,"Velocity":73,"Duration":280173,"SoundDuration":280173,"Delta":290077398},{"NoteNumber":41,"Velocity":73,"Duration":280173,"SoundDuration":280173,"Delta":290077398},{"NoteNumber":53,"Velocity":59,"Duration":93633,"SoundDuration":93633,"Delta":290170306},{"NoteNumber":57,"Velocity":59,"Duration":93633,"SoundDuration":93633,"Delta":290263939},{"NoteNumber":65,"Velocity":69,"Duration":84269,"SoundDuration":84269,"Delta":290357572},{"NoteNumber":62,"Velocity":69,"Duration":84269,"SoundDuration":84269,"Delta":290357572},{"NoteNumber":65,"Velocity":59,"Duration":93633,"SoundDuration":93633,"Delta":290451205},{"NoteNumber":57,"Velocity":79,"Duration":140449,"SoundDuration":140449,"Delta":290498021},{"NoteNumber":69,"Velocity":59,"Duration":93632,"SoundDuration":93632,"Delta":290544838},{"NoteNumber":77,"Velocity":71,"Duration":81227,"SoundDuration":81227,"Delta":290638471},{"NoteNumber":74,"Velocity":60,"Duration":81227,"SoundDuration":81227,"Delta":290638471},{"NoteNumber":57,"Velocity":83,"Duration":135379,"SoundDuration":135379,"Delta":290638471},{"NoteNumber":77,"Velocity":62,"Duration":88832,"SoundDuration":88832,"Delta":290728724},{"NoteNumber":60,"Velocity":77,"Duration":131119,"SoundDuration":131119,"Delta":290773850},{"NoteNumber":81,"Velocity":62,"Duration":87412,"SoundDuration":87412,"Delta":290817556},{"NoteNumber":89,"Velocity":74,"Duration":78671,"SoundDuration":78671,"Delta":290904969},{"NoteNumber":86,"Velocity":62,"Duration":78671,"SoundDuration":78671,"Delta":290904969},{"NoteNumber":58,"Velocity":82,"Duration":131119,"SoundDuration":131119,"Delta":290904969},{"NoteNumber":89,"Velocity":66,"Duration":87412,"SoundDuration":87412,"Delta":290992382},{"NoteNumber":57,"Velocity":73,"Duration":131118,"SoundDuration":131118,"Delta":291036088},{"NoteNumber":93,"Velocity":66,"Duration":87412,"SoundDuration":87412,"Delta":291079794},{"NoteNumber":101,"Velocity":72,"Duration":87412,"SoundDuration":87412,"Delta":291167207},{"NoteNumber":98,"Velocity":60,"Duration":87412,"SoundDuration":87412,"Delta":291167207},{"NoteNumber":65,"Velocity":85,"Duration":266988,"SoundDuration":266988,"Delta":291167207},{"NoteNumber":93,"Velocity":64,"Duration":88996,"SoundDuration":88996,"Delta":291254620},{"NoteNumber":89,"Velocity":64,"Duration":81521,"SoundDuration":81521,"Delta":291343616},{"NoteNumber":89,"Velocity":70,"Duration":90579,"SoundDuration":90579,"Delta":291434195},{"NoteNumber":86,"Velocity":59,"Duration":90579,"SoundDuration":90579,"Delta":291434195},{"NoteNumber":81,"Velocity":66,"Duration":90579,"SoundDuration":90579,"Delta":291524775},{"NoteNumber":38,"Velocity":81,"Duration":135869,"SoundDuration":135869,"Delta":291570065},{"NoteNumber":77,"Velocity":62,"Duration":81521,"SoundDuration":81521,"Delta":291615355},{"NoteNumber":77,"Velocity":61,"Duration":93984,"SoundDuration":93984,"Delta":291705934},{"NoteNumber":74,"Velocity":44,"Duration":93984,"SoundDuration":93984,"Delta":291705934},{"NoteNumber":38,"Velocity":89,"Duration":140977,"SoundDuration":140977,"Delta":291705934},{"NoteNumber":69,"Velocity":68,"Duration":93985,"SoundDuration":93985,"Delta":291799919},{"NoteNumber":37,"Velocity":82,"Duration":140977,"SoundDuration":140977,"Delta":291846912},{"NoteNumber":65,"Velocity":63,"Duration":84586,"SoundDuration":84586,"Delta":291893904},{"NoteNumber":65,"Velocity":64,"Duration":93985,"SoundDuration":93985,"Delta":291987889},{"NoteNumber":62,"Velocity":64,"Duration":93985,"SoundDuration":93985,"Delta":291987889},{"NoteNumber":38,"Velocity":88,"Duration":140977,"SoundDuration":140977,"Delta":291987889},{"NoteNumber":57,"Velocity":64,"Duration":93984,"SoundDuration":93984,"Delta":292081874},{"NoteNumber":40,"Velocity":80,"Duration":140977,"SoundDuration":140977,"Delta":292128867},{"NoteNumber":53,"Velocity":67,"Duration":93985,"SoundDuration":93985,"Delta":292175859},{"NoteNumber":53,"Velocity":89,"Duration":555449,"SoundDuration":555449,"Delta":292269844},{"NoteNumber":41,"Velocity":74,"Duration":555449,"SoundDuration":555449,"Delta":292269844},{"NoteNumber":83,"Velocity":85,"Duration":291829,"SoundDuration":291829,"Delta":292533465},{"NoteNumber":71,"Velocity":71,"Duration":291829,"SoundDuration":291829,"Delta":292533465},{"NoteNumber":74,"Velocity":71,"Duration":291829,"SoundDuration":291829,"Delta":292533465},{"NoteNumber":65,"Velocity":80,"Duration":291829,"SoundDuration":291829,"Delta":292533465},{"NoteNumber":56,"Velocity":68,"Duration":291829,"SoundDuration":291829,"Delta":292533465},{"NoteNumber":62,"Velocity":68,"Duration":291829,"SoundDuration":291829,"Delta":292533465},{"NoteNumber":56,"Velocity":89,"Duration":565453,"SoundDuration":565453,"Delta":292825294},{"NoteNumber":44,"Velocity":75,"Duration":565453,"SoundDuration":565453,"Delta":292825294},{"NoteNumber":86,"Velocity":85,"Duration":294695,"SoundDuration":294695,"Delta":293096052},{"NoteNumber":74,"Velocity":71,"Duration":294695,"SoundDuration":294695,"Delta":293096052},{"NoteNumber":77,"Velocity":71,"Duration":294695,"SoundDuration":294695,"Delta":293096052},{"NoteNumber":68,"Velocity":81,"Duration":294695,"SoundDuration":294695,"Delta":293096052},{"NoteNumber":65,"Velocity":69,"Duration":294695,"SoundDuration":294695,"Delta":293096052},{"NoteNumber":59,"Velocity":69,"Duration":294695,"SoundDuration":294695,"Delta":293096052},{"NoteNumber":59,"Velocity":89,"Duration":555179,"SoundDuration":555179,"Delta":293390747},{"NoteNumber":47,"Velocity":74,"Duration":555179,"SoundDuration":555179,"Delta":293390747},{"NoteNumber":89,"Velocity":85,"Duration":281954,"SoundDuration":281954,"Delta":293663971},{"NoteNumber":77,"Velocity":71,"Duration":281954,"SoundDuration":281954,"Delta":293663971},{"NoteNumber":80,"Velocity":71,"Duration":281954,"SoundDuration":281954,"Delta":293663971},{"NoteNumber":71,"Velocity":80,"Duration":281954,"SoundDuration":281954,"Delta":293663971},{"NoteNumber":68,"Velocity":68,"Duration":281954,"SoundDuration":281954,"Delta":293663971},{"NoteNumber":62,"Velocity":68,"Duration":281954,"SoundDuration":281954,"Delta":293663971},{"NoteNumber":52,"Velocity":90,"Duration":574467,"SoundDuration":574467,"Delta":293945926},{"NoteNumber":40,"Velocity":77,"Duration":574467,"SoundDuration":574467,"Delta":293945926},{"NoteNumber":88,"Velocity":85,"Duration":309917,"SoundDuration":309917,"Delta":294210477},{"NoteNumber":76,"Velocity":71,"Duration":309917,"SoundDuration":309917,"Delta":294210477},{"NoteNumber":80,"Velocity":71,"Duration":309917,"SoundDuration":309917,"Delta":294210477},{"NoteNumber":64,"Velocity":83,"Duration":309917,"SoundDuration":309917,"Delta":294210477},{"NoteNumber":59,"Velocity":70,"Duration":309917,"SoundDuration":309917,"Delta":294210477},{"NoteNumber":56,"Velocity":70,"Duration":309917,"SoundDuration":309917,"Delta":294210477},{"NoteNumber":45,"Velocity":88,"Duration":274374,"SoundDuration":274374,"Delta":294520394},{"NoteNumber":33,"Velocity":73,"Duration":274374,"SoundDuration":274374,"Delta":294520394},{"NoteNumber":36,"Velocity":73,"Duration":274374,"SoundDuration":274374,"Delta":294520394},{"NoteNumber":40,"Velocity":73,"Duration":274343,"SoundDuration":274343,"Delta":294523791},{"NoteNumber":52,"Velocity":59,"Duration":91699,"SoundDuration":91699,"Delta":294613302},{"NoteNumber":57,"Velocity":59,"Duration":89766,"SoundDuration":89766,"Delta":294705002},{"NoteNumber":64,"Velocity":69,"Duration":80789,"SoundDuration":80789,"Delta":294794769},{"NoteNumber":60,"Velocity":69,"Duration":80789,"SoundDuration":80789,"Delta":294794769},{"NoteNumber":64,"Velocity":59,"Duration":89766,"SoundDuration":89766,"Delta":294884535},{"NoteNumber":57,"Velocity":79,"Duration":134650,"SoundDuration":134650,"Delta":294929419},{"NoteNumber":69,"Velocity":59,"Duration":89766,"SoundDuration":89766,"Delta":294974302},{"NoteNumber":76,"Velocity":71,"Duration":78671,"SoundDuration":78671,"Delta":295064069},{"NoteNumber":72,"Velocity":60,"Duration":78671,"SoundDuration":78671,"Delta":295064069},{"NoteNumber":57,"Velocity":84,"Duration":131119,"SoundDuration":131119,"Delta":295064069},{"NoteNumber":76,"Velocity":62,"Duration":87412,"SoundDuration":87412,"Delta":295151481},{"NoteNumber":60,"Velocity":79,"Duration":131119,"SoundDuration":131119,"Delta":295195188},{"NoteNumber":81,"Velocity":62,"Duration":87412,"SoundDuration":87412,"Delta":295238894},{"NoteNumber":88,"Velocity":74,"Duration":78671,"SoundDuration":78671,"Delta":295326307},{"NoteNumber":84,"Velocity":62,"Duration":78671,"SoundDuration":78671,"Delta":295326307},{"NoteNumber":59,"Velocity":86,"Duration":131118,"SoundDuration":131118,"Delta":295326307},{"NoteNumber":88,"Velocity":66,"Duration":90261,"SoundDuration":90261,"Delta":295413719},{"NoteNumber":57,"Velocity":79,"Duration":139664,"SoundDuration":139664,"Delta":295457426},{"NoteNumber":93,"Velocity":66,"Duration":93109,"SoundDuration":93109,"Delta":295503981},{"NoteNumber":100,"Velocity":72,"Duration":90579,"SoundDuration":90579,"Delta":295597090},{"NoteNumber":96,"Velocity":60,"Duration":90579,"SoundDuration":90579,"Delta":295597090},{"NoteNumber":64,"Velocity":88,"Duration":270519,"SoundDuration":270519,"Delta":295597090},{"NoteNumber":93,"Velocity":64,"Duration":90173,"SoundDuration":90173,"Delta":295687670},{"NoteNumber":88,"Velocity":64,"Duration":80789,"SoundDuration":80789,"Delta":295777843},{"NoteNumber":88,"Velocity":70,"Duration":89766,"SoundDuration":89766,"Delta":295867610},{"NoteNumber":84,"Velocity":59,"Duration":89766,"SoundDuration":89766,"Delta":295867610},{"NoteNumber":81,"Velocity":66,"Duration":89766,"SoundDuration":89766,"Delta":295957377},{"NoteNumber":40,"Velocity":80,"Duration":134650,"SoundDuration":134650,"Delta":296002260},{"NoteNumber":76,"Velocity":62,"Duration":80789,"SoundDuration":80789,"Delta":296047143},{"NoteNumber":76,"Velocity":61,"Duration":93109,"SoundDuration":93109,"Delta":296136910},{"NoteNumber":72,"Velocity":44,"Duration":93109,"SoundDuration":93109,"Delta":296136910},{"NoteNumber":40,"Velocity":85,"Duration":139664,"SoundDuration":139664,"Delta":296136910},{"NoteNumber":69,"Velocity":68,"Duration":93109,"SoundDuration":93109,"Delta":296230020},{"NoteNumber":43,"Velocity":80,"Duration":139664,"SoundDuration":139664,"Delta":296276575},{"NoteNumber":64,"Velocity":63,"Duration":83798,"SoundDuration":83798,"Delta":296323130},{"NoteNumber":64,"Velocity":62,"Duration":93977,"SoundDuration":93977,"Delta":296416239},{"NoteNumber":60,"Velocity":52,"Duration":93977,"SoundDuration":93977,"Delta":296416239},{"NoteNumber":41,"Velocity":86,"Duration":142322,"SoundDuration":142322,"Delta":296416239},{"NoteNumber":57,"Velocity":61,"Duration":97890,"SoundDuration":97890,"Delta":296510217},{"NoteNumber":40,"Velocity":80,"Duration":151686,"SoundDuration":151686,"Delta":296558562},{"NoteNumber":52,"Velocity":59,"Duration":102141,"SoundDuration":102141,"Delta":296608107},{"NoteNumber":45,"Velocity":88,"Duration":274374,"SoundDuration":274374,"Delta":296710248},{"NoteNumber":33,"Velocity":73,"Duration":274374,"SoundDuration":274374,"Delta":296710248},{"NoteNumber":37,"Velocity":73,"Duration":274374,"SoundDuration":274374,"Delta":296710248},{"NoteNumber":40,"Velocity":73,"Duration":274284,"SoundDuration":274284,"Delta":296713645},{"NoteNumber":52,"Velocity":59,"Duration":91699,"SoundDuration":91699,"Delta":296803156},{"NoteNumber":57,"Velocity":59,"Duration":89766,"SoundDuration":89766,"Delta":296894856},{"NoteNumber":64,"Velocity":69,"Duration":79365,"SoundDuration":79365,"Delta":296984623},{"NoteNumber":61,"Velocity":69,"Duration":79365,"SoundDuration":79365,"Delta":296984623},{"NoteNumber":64,"Velocity":59,"Duration":88183,"SoundDuration":88183,"Delta":297072806},{"NoteNumber":57,"Velocity":79,"Duration":132275,"SoundDuration":132275,"Delta":297116898},{"NoteNumber":69,"Velocity":59,"Duration":88183,"SoundDuration":88183,"Delta":297160990},{"NoteNumber":76,"Velocity":71,"Duration":79365,"SoundDuration":79365,"Delta":297249173},{"NoteNumber":73,"Velocity":60,"Duration":79365,"SoundDuration":79365,"Delta":297249173},{"NoteNumber":57,"Velocity":83,"Duration":132275,"SoundDuration":132275,"Delta":297249173},{"NoteNumber":76,"Velocity":62,"Duration":88183,"SoundDuration":88183,"Delta":297337357},{"NoteNumber":60,"Velocity":79,"Duration":132275,"SoundDuration":132275,"Delta":297381448},{"NoteNumber":81,"Velocity":62,"Duration":88183,"SoundDuration":88183,"Delta":297425540},{"NoteNumber":88,"Velocity":74,"Duration":79365,"SoundDuration":79365,"Delta":297513724},{"NoteNumber":85,"Velocity":62,"Duration":79365,"SoundDuration":79365,"Delta":297513724},{"NoteNumber":58,"Velocity":82,"Duration":132275,"SoundDuration":132275,"Delta":297513724},{"NoteNumber":88,"Velocity":66,"Duration":91530,"SoundDuration":91530,"Delta":297601907},{"NoteNumber":57,"Velocity":78,"Duration":142314,"SoundDuration":142314,"Delta":297645999},{"NoteNumber":93,"Velocity":66,"Duration":94876,"SoundDuration":94876,"Delta":297693437},{"NoteNumber":100,"Velocity":72,"Duration":94876,"SoundDuration":94876,"Delta":297788314},{"NoteNumber":97,"Velocity":60,"Duration":94876,"SoundDuration":94876,"Delta":297788314},{"NoteNumber":67,"Velocity":84,"Duration":278184,"SoundDuration":278184,"Delta":297788314},{"NoteNumber":93,"Velocity":64,"Duration":92728,"SoundDuration":92728,"Delta":297883190},{"NoteNumber":88,"Velocity":64,"Duration":81521,"SoundDuration":81521,"Delta":297975919},{"NoteNumber":88,"Velocity":70,"Duration":90579,"SoundDuration":90579,"Delta":298066498},{"NoteNumber":85,"Velocity":59,"Duration":90579,"SoundDuration":90579,"Delta":298066498},{"NoteNumber":81,"Velocity":66,"Duration":90579,"SoundDuration":90579,"Delta":298157078},{"NoteNumber":45,"Velocity":81,"Duration":135869,"SoundDuration":135869,"Delta":298202368},{"NoteNumber":76,"Velocity":62,"Duration":81521,"SoundDuration":81521,"Delta":298247658},{"NoteNumber":76,"Velocity":61,"Duration":97276,"SoundDuration":97276,"Delta":298338237},{"NoteNumber":73,"Velocity":44,"Duration":97276,"SoundDuration":97276,"Delta":298338237},{"NoteNumber":45,"Velocity":86,"Duration":145914,"SoundDuration":145914,"Delta":298338237},{"NoteNumber":69,"Velocity":68,"Duration":95193,"SoundDuration":95193,"Delta":298435514},{"NoteNumber":48,"Velocity":81,"Duration":139664,"SoundDuration":139664,"Delta":298484152},{"NoteNumber":64,"Velocity":63,"Duration":83798,"SoundDuration":83798,"Delta":298530707},{"NoteNumber":64,"Velocity":62,"Duration":98903,"SoundDuration":98903,"Delta":298623817},{"NoteNumber":61,"Velocity":52,"Duration":98903,"SoundDuration":98903,"Delta":298623817},{"NoteNumber":46,"Velocity":86,"Duration":149383,"SoundDuration":149383,"Delta":298623817},{"NoteNumber":57,"Velocity":61,"Duration":101737,"SoundDuration":101737,"Delta":298722720},{"NoteNumber":45,"Velocity":79,"Duration":156403,"SoundDuration":156403,"Delta":298773200},{"NoteNumber":52,"Velocity":59,"Duration":105146,"SoundDuration":105146,"Delta":298824457},{"NoteNumber":45,"Velocity":73,"Duration":280173,"SoundDuration":280173,"Delta":298929604},{"NoteNumber":50,"Velocity":88,"Duration":280173,"SoundDuration":280173,"Delta":298929604},{"NoteNumber":38,"Velocity":73,"Duration":280173,"SoundDuration":280173,"Delta":298929604},{"NoteNumber":41,"Velocity":73,"Duration":280173,"SoundDuration":280173,"Delta":298929604},{"NoteNumber":53,"Velocity":59,"Duration":93633,"SoundDuration":93633,"Delta":299022512},{"NoteNumber":57,"Velocity":59,"Duration":93633,"SoundDuration":93633,"Delta":299116145},{"NoteNumber":65,"Velocity":69,"Duration":84269,"SoundDuration":84269,"Delta":299209778},{"NoteNumber":62,"Velocity":69,"Duration":84269,"SoundDuration":84269,"Delta":299209778},{"NoteNumber":65,"Velocity":59,"Duration":93633,"SoundDuration":93633,"Delta":299303411},{"NoteNumber":57,"Velocity":80,"Duration":140449,"SoundDuration":140449,"Delta":299350227},{"NoteNumber":69,"Velocity":59,"Duration":93632,"SoundDuration":93632,"Delta":299397044},{"NoteNumber":77,"Velocity":71,"Duration":81227,"SoundDuration":81227,"Delta":299490677},{"NoteNumber":74,"Velocity":60,"Duration":81227,"SoundDuration":81227,"Delta":299490677},{"NoteNumber":57,"Velocity":83,"Duration":135379,"SoundDuration":135379,"Delta":299490677},{"NoteNumber":77,"Velocity":62,"Duration":88832,"SoundDuration":88832,"Delta":299580929},{"NoteNumber":60,"Velocity":79,"Duration":131119,"SoundDuration":131119,"Delta":299626056},{"NoteNumber":81,"Velocity":62,"Duration":87412,"SoundDuration":87412,"Delta":299669762},{"NoteNumber":89,"Velocity":74,"Duration":78671,"SoundDuration":78671,"Delta":299757175},{"NoteNumber":86,"Velocity":62,"Duration":78671,"SoundDuration":78671,"Delta":299757175},{"NoteNumber":58,"Velocity":83,"Duration":131119,"SoundDuration":131119,"Delta":299757175},{"NoteNumber":89,"Velocity":66,"Duration":91144,"SoundDuration":91144,"Delta":299844587},{"NoteNumber":57,"Velocity":77,"Duration":142314,"SoundDuration":142314,"Delta":299888294},{"NoteNumber":93,"Velocity":66,"Duration":94876,"SoundDuration":94876,"Delta":299935732},{"NoteNumber":101,"Velocity":72,"Duration":89766,"SoundDuration":89766,"Delta":300030609},{"NoteNumber":98,"Velocity":60,"Duration":89766,"SoundDuration":89766,"Delta":300030609},{"NoteNumber":65,"Velocity":82,"Duration":270519,"SoundDuration":270519,"Delta":300030609},{"NoteNumber":93,"Velocity":64,"Duration":90173,"SoundDuration":90173,"Delta":300120375},{"NoteNumber":89,"Velocity":64,"Duration":81521,"SoundDuration":81521,"Delta":300210548},{"NoteNumber":89,"Velocity":70,"Duration":90579,"SoundDuration":90579,"Delta":300301128},{"NoteNumber":86,"Velocity":59,"Duration":90579,"SoundDuration":90579,"Delta":300301128},{"NoteNumber":81,"Velocity":66,"Duration":90579,"SoundDuration":90579,"Delta":300391708},{"NoteNumber":38,"Velocity":81,"Duration":135869,"SoundDuration":135869,"Delta":300436998},{"NoteNumber":77,"Velocity":62,"Duration":81521,"SoundDuration":81521,"Delta":300482287},{"NoteNumber":77,"Velocity":61,"Duration":93984,"SoundDuration":93984,"Delta":300572867},{"NoteNumber":74,"Velocity":44,"Duration":93984,"SoundDuration":93984,"Delta":300572867},{"NoteNumber":38,"Velocity":89,"Duration":140977,"SoundDuration":140977,"Delta":300572867},{"NoteNumber":69,"Velocity":68,"Duration":93985,"SoundDuration":93985,"Delta":300666852},{"NoteNumber":37,"Velocity":82,"Duration":140977,"SoundDuration":140977,"Delta":300713845},{"NoteNumber":65,"Velocity":63,"Duration":84586,"SoundDuration":84586,"Delta":300760837},{"NoteNumber":65,"Velocity":64,"Duration":96864,"SoundDuration":96864,"Delta":300854822},{"NoteNumber":62,"Velocity":64,"Duration":96864,"SoundDuration":96864,"Delta":300854822},{"NoteNumber":38,"Velocity":88,"Duration":145503,"SoundDuration":145503,"Delta":300854822},{"NoteNumber":57,"Velocity":64,"Duration":97276,"SoundDuration":97276,"Delta":300951687},{"NoteNumber":40,"Velocity":80,"Duration":145914,"SoundDuration":145914,"Delta":301000325},{"NoteNumber":53,"Velocity":67,"Duration":97276,"SoundDuration":97276,"Delta":301048963},{"NoteNumber":53,"Velocity":89,"Duration":553694,"SoundDuration":553694,"Delta":301146240},{"NoteNumber":41,"Velocity":74,"Duration":553694,"SoundDuration":553694,"Delta":301146240},{"NoteNumber":83,"Velocity":85,"Duration":281954,"SoundDuration":281954,"Delta":301417979},{"NoteNumber":71,"Velocity":71,"Duration":281954,"SoundDuration":281954,"Delta":301417979},{"NoteNumber":74,"Velocity":71,"Duration":281954,"SoundDuration":281954,"Delta":301417979},{"NoteNumber":65,"Velocity":80,"Duration":281954,"SoundDuration":281954,"Delta":301417979},{"NoteNumber":56,"Velocity":68,"Duration":278430,"SoundDuration":278430,"Delta":301417979},{"NoteNumber":62,"Velocity":68,"Duration":281954,"SoundDuration":281954,"Delta":301417979},{"NoteNumber":56,"Velocity":89,"Duration":559435,"SoundDuration":559435,"Delta":301699934},{"NoteNumber":44,"Velocity":75,"Duration":559435,"SoundDuration":559435,"Delta":301699934},{"NoteNumber":86,"Velocity":85,"Duration":290135,"SoundDuration":290135,"Delta":301969234},{"NoteNumber":74,"Velocity":71,"Duration":290135,"SoundDuration":290135,"Delta":301969234},{"NoteNumber":77,"Velocity":71,"Duration":290135,"SoundDuration":290135,"Delta":301969234},{"NoteNumber":68,"Velocity":81,"Duration":290135,"SoundDuration":290135,"Delta":301969234},{"NoteNumber":65,"Velocity":69,"Duration":290135,"SoundDuration":290135,"Delta":301969234},{"NoteNumber":59,"Velocity":69,"Duration":286508,"SoundDuration":286508,"Delta":301969234},{"NoteNumber":59,"Velocity":89,"Duration":636235,"SoundDuration":636235,"Delta":302259369},{"NoteNumber":47,"Velocity":74,"Duration":636235,"SoundDuration":636235,"Delta":302259369},{"NoteNumber":89,"Velocity":85,"Duration":328227,"SoundDuration":328227,"Delta":302567377},{"NoteNumber":77,"Velocity":71,"Duration":328227,"SoundDuration":328227,"Delta":302567377},{"NoteNumber":80,"Velocity":71,"Duration":328227,"SoundDuration":328227,"Delta":302567377},{"NoteNumber":71,"Velocity":80,"Duration":328227,"SoundDuration":328227,"Delta":302567377},{"NoteNumber":68,"Velocity":68,"Duration":328227,"SoundDuration":328227,"Delta":302567377},{"NoteNumber":62,"Velocity":68,"Duration":328227,"SoundDuration":328227,"Delta":302567377},{"NoteNumber":52,"Velocity":90,"Duration":783572,"SoundDuration":783572,"Delta":302895605},{"NoteNumber":40,"Velocity":77,"Duration":783572,"SoundDuration":783572,"Delta":302895605},{"NoteNumber":88,"Velocity":85,"Duration":429799,"SoundDuration":429799,"Delta":303249378},{"NoteNumber":76,"Velocity":71,"Duration":429799,"SoundDuration":429799,"Delta":303249378},{"NoteNumber":80,"Velocity":71,"Duration":429799,"SoundDuration":429799,"Delta":303249378},{"NoteNumber":64,"Velocity":83,"Duration":429799,"SoundDuration":429799,"Delta":303249378},{"NoteNumber":59,"Velocity":70,"Duration":429799,"SoundDuration":429799,"Delta":303249378},{"NoteNumber":56,"Velocity":70,"Duration":429799,"SoundDuration":429799,"Delta":303249378},{"NoteNumber":45,"Velocity":97,"Duration":1349207,"SoundDuration":1349207,"Delta":303679178},{"NoteNumber":33,"Velocity":88,"Duration":1349207,"SoundDuration":1349207,"Delta":303679178},{"NoteNumber":49,"Velocity":67,"Duration":103666,"SoundDuration":103666,"Delta":303980776},{"NoteNumber":37,"Velocity":61,"Duration":103666,"SoundDuration":103666,"Delta":303980776},{"NoteNumber":52,"Velocity":69,"Duration":93210,"SoundDuration":93210,"Delta":304084442},{"NoteNumber":40,"Velocity":62,"Duration":93210,"SoundDuration":93210,"Delta":304084442},{"NoteNumber":57,"Velocity":69,"Duration":96711,"SoundDuration":96711,"Delta":304177653},{"NoteNumber":45,"Velocity":63,"Duration":96711,"SoundDuration":96711,"Delta":304177653},{"NoteNumber":61,"Velocity":71,"Duration":96202,"SoundDuration":96202,"Delta":304274365},{"NoteNumber":49,"Velocity":63,"Duration":96202,"SoundDuration":96202,"Delta":304274365},{"NoteNumber":64,"Velocity":72,"Duration":95785,"SoundDuration":95785,"Delta":304370567},{"NoteNumber":52,"Velocity":64,"Duration":95785,"SoundDuration":95785,"Delta":304370567},{"NoteNumber":69,"Velocity":74,"Duration":94922,"SoundDuration":94922,"Delta":304466353},{"NoteNumber":57,"Velocity":66,"Duration":94922,"SoundDuration":94922,"Delta":304466353},{"NoteNumber":73,"Velocity":77,"Duration":94564,"SoundDuration":94564,"Delta":304561275},{"NoteNumber":61,"Velocity":67,"Duration":94564,"SoundDuration":94564,"Delta":304561275},{"NoteNumber":76,"Velocity":78,"Duration":93984,"SoundDuration":93984,"Delta":304655839},{"NoteNumber":64,"Velocity":68,"Duration":93984,"SoundDuration":93984,"Delta":304655839},{"NoteNumber":81,"Velocity":79,"Duration":93328,"SoundDuration":93328,"Delta":304749824},{"NoteNumber":69,"Velocity":69,"Duration":93328,"SoundDuration":93328,"Delta":304749824},{"NoteNumber":85,"Velocity":80,"Duration":92981,"SoundDuration":92981,"Delta":304843153},{"NoteNumber":73,"Velocity":69,"Duration":92981,"SoundDuration":92981,"Delta":304843153},{"NoteNumber":88,"Velocity":82,"Duration":92251,"SoundDuration":92251,"Delta":304936134},{"NoteNumber":76,"Velocity":69,"Duration":92251,"SoundDuration":92251,"Delta":304936134},{"NoteNumber":93,"Velocity":95,"Duration":113378,"SoundDuration":113378,"Delta":305028385},{"NoteNumber":81,"Velocity":80,"Duration":113378,"SoundDuration":113378,"Delta":305028385},{"NoteNumber":88,"Velocity":84,"Duration":90744,"SoundDuration":90744,"Delta":305141764},{"NoteNumber":76,"Velocity":70,"Duration":90744,"SoundDuration":90744,"Delta":305141764},{"NoteNumber":85,"Velocity":84,"Duration":92526,"SoundDuration":92526,"Delta":305232508},{"NoteNumber":73,"Velocity":70,"Duration":92526,"SoundDuration":92526,"Delta":305232508},{"NoteNumber":81,"Velocity":83,"Duration":93985,"SoundDuration":93985,"Delta":305325034},{"NoteNumber":69,"Velocity":69,"Duration":93985,"SoundDuration":93985,"Delta":305325034},{"NoteNumber":76,"Velocity":81,"Duration":94832,"SoundDuration":94832,"Delta":305419019},{"NoteNumber":64,"Velocity":69,"Duration":94832,"SoundDuration":94832,"Delta":305419019},{"NoteNumber":73,"Velocity":80,"Duration":95194,"SoundDuration":95194,"Delta":305513852},{"NoteNumber":61,"Velocity":68,"Duration":95194,"SoundDuration":95194,"Delta":305513852},{"NoteNumber":69,"Velocity":79,"Duration":95785,"SoundDuration":95785,"Delta":305609046},{"NoteNumber":57,"Velocity":67,"Duration":95785,"SoundDuration":95785,"Delta":305609046},{"NoteNumber":64,"Velocity":78,"Duration":96480,"SoundDuration":96480,"Delta":305704832},{"NoteNumber":52,"Velocity":66,"Duration":96480,"SoundDuration":96480,"Delta":305704832},{"NoteNumber":61,"Velocity":75,"Duration":96518,"SoundDuration":96518,"Delta":305801312},{"NoteNumber":49,"Velocity":64,"Duration":96518,"SoundDuration":96518,"Delta":305801312},{"NoteNumber":57,"Velocity":74,"Duration":96768,"SoundDuration":96768,"Delta":305897830},{"NoteNumber":45,"Velocity":63,"Duration":96768,"SoundDuration":96768,"Delta":305897830},{"NoteNumber":52,"Velocity":72,"Duration":100413,"SoundDuration":100413,"Delta":305994598},{"NoteNumber":40,"Velocity":63,"Duration":100413,"SoundDuration":100413,"Delta":305994598},{"NoteNumber":49,"Velocity":71,"Duration":104020,"SoundDuration":104020,"Delta":306095012},{"NoteNumber":37,"Velocity":61,"Duration":104020,"SoundDuration":104020,"Delta":306095012},{"NoteNumber":45,"Velocity":99,"Duration":1336213,"SoundDuration":1336213,"Delta":306199032},{"NoteNumber":33,"Velocity":85,"Duration":1336213,"SoundDuration":1336213,"Delta":306199032},{"NoteNumber":49,"Velocity":68,"Duration":102284,"SoundDuration":102284,"Delta":306478361},{"NoteNumber":37,"Velocity":56,"Duration":102284,"SoundDuration":102284,"Delta":306478361},{"NoteNumber":52,"Velocity":69,"Duration":91160,"SoundDuration":91160,"Delta":306580645},{"NoteNumber":40,"Velocity":58,"Duration":91160,"SoundDuration":91160,"Delta":306580645},{"NoteNumber":57,"Velocity":71,"Duration":89770,"SoundDuration":89770,"Delta":306671806},{"NoteNumber":45,"Velocity":59,"Duration":89770,"SoundDuration":89770,"Delta":306671806},{"NoteNumber":61,"Velocity":72,"Duration":88575,"SoundDuration":88575,"Delta":306761576},{"NoteNumber":49,"Velocity":60,"Duration":88575,"SoundDuration":88575,"Delta":306761576},{"NoteNumber":64,"Velocity":74,"Duration":87605,"SoundDuration":87605,"Delta":306850151},{"NoteNumber":52,"Velocity":62,"Duration":87605,"SoundDuration":87605,"Delta":306850151},{"NoteNumber":69,"Velocity":77,"Duration":86694,"SoundDuration":86694,"Delta":306937757},{"NoteNumber":57,"Velocity":64,"Duration":86694,"SoundDuration":86694,"Delta":306937757},{"NoteNumber":73,"Velocity":79,"Duration":85801,"SoundDuration":85801,"Delta":307024451},{"NoteNumber":61,"Velocity":67,"Duration":85801,"SoundDuration":85801,"Delta":307024451},{"NoteNumber":76,"Velocity":80,"Duration":89798,"SoundDuration":89798,"Delta":307110253},{"NoteNumber":64,"Velocity":69,"Duration":89798,"SoundDuration":89798,"Delta":307110253},{"NoteNumber":81,"Velocity":82,"Duration":87214,"SoundDuration":87214,"Delta":307200051},{"NoteNumber":69,"Velocity":70,"Duration":87214,"SoundDuration":87214,"Delta":307200051},{"NoteNumber":85,"Velocity":83,"Duration":84784,"SoundDuration":84784,"Delta":307287265},{"NoteNumber":73,"Velocity":71,"Duration":84784,"SoundDuration":84784,"Delta":307287265},{"NoteNumber":88,"Velocity":85,"Duration":82662,"SoundDuration":82662,"Delta":307372049},{"NoteNumber":76,"Velocity":72,"Duration":82662,"SoundDuration":82662,"Delta":307372049},{"NoteNumber":93,"Velocity":86,"Duration":80534,"SoundDuration":80534,"Delta":307454712},{"NoteNumber":81,"Velocity":74,"Duration":80534,"SoundDuration":80534,"Delta":307454712},{"NoteNumber":97,"Velocity":88,"Duration":101078,"SoundDuration":101078,"Delta":307535246},{"NoteNumber":85,"Velocity":75,"Duration":101078,"SoundDuration":101078,"Delta":307535246},{"NoteNumber":93,"Velocity":86,"Duration":89064,"SoundDuration":89064,"Delta":307636324},{"NoteNumber":81,"Velocity":74,"Duration":89064,"SoundDuration":89064,"Delta":307636324},{"NoteNumber":88,"Velocity":86,"Duration":82971,"SoundDuration":82971,"Delta":307725388},{"NoteNumber":76,"Velocity":73,"Duration":82971,"SoundDuration":82971,"Delta":307725388},{"NoteNumber":85,"Velocity":84,"Duration":80348,"SoundDuration":80348,"Delta":307808360},{"NoteNumber":73,"Velocity":72,"Duration":80348,"SoundDuration":80348,"Delta":307808360},{"NoteNumber":81,"Velocity":82,"Duration":82579,"SoundDuration":82579,"Delta":307888708},{"NoteNumber":69,"Velocity":70,"Duration":82579,"SoundDuration":82579,"Delta":307888708},{"NoteNumber":76,"Velocity":81,"Duration":83966,"SoundDuration":83966,"Delta":307971287},{"NoteNumber":64,"Velocity":69,"Duration":83966,"SoundDuration":83966,"Delta":307971287},{"NoteNumber":73,"Velocity":79,"Duration":85545,"SoundDuration":85545,"Delta":308055253},{"NoteNumber":61,"Velocity":69,"Duration":85545,"SoundDuration":85545,"Delta":308055253},{"NoteNumber":69,"Velocity":79,"Duration":87034,"SoundDuration":87034,"Delta":308140799},{"NoteNumber":57,"Velocity":67,"Duration":87034,"SoundDuration":87034,"Delta":308140799},{"NoteNumber":64,"Velocity":77,"Duration":88735,"SoundDuration":88735,"Delta":308227834},{"NoteNumber":52,"Velocity":64,"Duration":88735,"SoundDuration":88735,"Delta":308227834},{"NoteNumber":61,"Velocity":74,"Duration":90338,"SoundDuration":90338,"Delta":308316569},{"NoteNumber":49,"Velocity":63,"Duration":90338,"SoundDuration":90338,"Delta":308316569},{"NoteNumber":57,"Velocity":73,"Duration":92000,"SoundDuration":92000,"Delta":308406908},{"NoteNumber":45,"Velocity":61,"Duration":92000,"SoundDuration":92000,"Delta":308406908},{"NoteNumber":52,"Velocity":71,"Duration":93899,"SoundDuration":93899,"Delta":308498909},{"NoteNumber":40,"Velocity":60,"Duration":93899,"SoundDuration":93899,"Delta":308498909},{"NoteNumber":49,"Velocity":70,"Duration":96164,"SoundDuration":96164,"Delta":308592808},{"NoteNumber":37,"Velocity":59,"Duration":96164,"SoundDuration":96164,"Delta":308592808},{"NoteNumber":45,"Velocity":97,"Duration":1170567,"SoundDuration":1170567,"Delta":308688972},{"NoteNumber":33,"Velocity":88,"Duration":1170567,"SoundDuration":1170567,"Delta":308688972},{"NoteNumber":49,"Velocity":71,"Duration":88208,"SoundDuration":88208,"Delta":308931726},{"NoteNumber":37,"Velocity":59,"Duration":88208,"SoundDuration":88208,"Delta":308931726},{"NoteNumber":52,"Velocity":69,"Duration":87043,"SoundDuration":87043,"Delta":309019935},{"NoteNumber":40,"Velocity":59,"Duration":87043,"SoundDuration":87043,"Delta":309019935},{"NoteNumber":57,"Velocity":70,"Duration":86291,"SoundDuration":86291,"Delta":309106978},{"NoteNumber":45,"Velocity":61,"Duration":86291,"SoundDuration":86291,"Delta":309106978},{"NoteNumber":61,"Velocity":71,"Duration":85553,"SoundDuration":85553,"Delta":309193270},{"NoteNumber":49,"Velocity":62,"Duration":85553,"SoundDuration":85553,"Delta":309193270},{"NoteNumber":64,"Velocity":73,"Duration":84972,"SoundDuration":84972,"Delta":309278824},{"NoteNumber":52,"Velocity":63,"Duration":84972,"SoundDuration":84972,"Delta":309278824},{"NoteNumber":69,"Velocity":75,"Duration":84256,"SoundDuration":84256,"Delta":309363796},{"NoteNumber":57,"Velocity":66,"Duration":84256,"SoundDuration":84256,"Delta":309363796},{"NoteNumber":73,"Velocity":77,"Duration":83552,"SoundDuration":83552,"Delta":309448052},{"NoteNumber":61,"Velocity":67,"Duration":83552,"SoundDuration":83552,"Delta":309448052},{"NoteNumber":76,"Velocity":79,"Duration":82997,"SoundDuration":82997,"Delta":309531605},{"NoteNumber":64,"Velocity":69,"Duration":82997,"SoundDuration":82997,"Delta":309531605},{"NoteNumber":81,"Velocity":80,"Duration":82314,"SoundDuration":82314,"Delta":309614602},{"NoteNumber":69,"Velocity":69,"Duration":82314,"SoundDuration":82314,"Delta":309614602},{"NoteNumber":85,"Velocity":81,"Duration":81642,"SoundDuration":81642,"Delta":309696916},{"NoteNumber":73,"Velocity":71,"Duration":81642,"SoundDuration":81642,"Delta":309696916},{"NoteNumber":88,"Velocity":86,"Duration":80980,"SoundDuration":80980,"Delta":309778558},{"NoteNumber":76,"Velocity":72,"Duration":80980,"SoundDuration":80980,"Delta":309778558},{"NoteNumber":93,"Velocity":89,"Duration":97974,"SoundDuration":97974,"Delta":309859539},{"NoteNumber":81,"Velocity":74,"Duration":97974,"SoundDuration":97974,"Delta":309859539},{"NoteNumber":97,"Velocity":89,"Duration":161809,"SoundDuration":161809,"Delta":309957514},{"NoteNumber":85,"Velocity":75,"Duration":161809,"SoundDuration":161809,"Delta":309957514},{"NoteNumber":101,"Velocity":92,"Duration":123372,"SoundDuration":123372,"Delta":310119323},{"NoteNumber":89,"Velocity":78,"Duration":123372,"SoundDuration":123372,"Delta":310119323},{"NoteNumber":100,"Velocity":91,"Duration":112997,"SoundDuration":112997,"Delta":310242696},{"NoteNumber":88,"Velocity":77,"Duration":112997,"SoundDuration":112997,"Delta":310242696},{"NoteNumber":97,"Velocity":89,"Duration":95707,"SoundDuration":95707,"Delta":310355694},{"NoteNumber":85,"Velocity":77,"Duration":95707,"SoundDuration":95707,"Delta":310355694},{"NoteNumber":93,"Velocity":88,"Duration":81352,"SoundDuration":81352,"Delta":310455427},{"NoteNumber":81,"Velocity":74,"Duration":81352,"SoundDuration":81352,"Delta":310455427},{"NoteNumber":88,"Velocity":84,"Duration":82835,"SoundDuration":82835,"Delta":310536779},{"NoteNumber":76,"Velocity":72,"Duration":82835,"SoundDuration":82835,"Delta":310536779},{"NoteNumber":85,"Velocity":83,"Duration":84329,"SoundDuration":84329,"Delta":310619614},{"NoteNumber":73,"Velocity":71,"Duration":84329,"SoundDuration":84329,"Delta":310619614},{"NoteNumber":81,"Velocity":82,"Duration":85821,"SoundDuration":85821,"Delta":310703944},{"NoteNumber":69,"Velocity":69,"Duration":85821,"SoundDuration":85821,"Delta":310703944},{"NoteNumber":76,"Velocity":81,"Duration":87627,"SoundDuration":87627,"Delta":310789765},{"NoteNumber":64,"Velocity":69,"Duration":87627,"SoundDuration":87627,"Delta":310789765},{"NoteNumber":73,"Velocity":79,"Duration":89190,"SoundDuration":89190,"Delta":310877392},{"NoteNumber":61,"Velocity":67,"Duration":89190,"SoundDuration":89190,"Delta":310877392},{"NoteNumber":69,"Velocity":79,"Duration":90973,"SoundDuration":90973,"Delta":310966583},{"NoteNumber":57,"Velocity":66,"Duration":90973,"SoundDuration":90973,"Delta":310966583},{"NoteNumber":64,"Velocity":78,"Duration":92831,"SoundDuration":92831,"Delta":311057556},{"NoteNumber":52,"Velocity":63,"Duration":92831,"SoundDuration":92831,"Delta":311057556},{"NoteNumber":61,"Velocity":77,"Duration":94713,"SoundDuration":94713,"Delta":311150388},{"NoteNumber":49,"Velocity":62,"Duration":94713,"SoundDuration":94713,"Delta":311150388},{"NoteNumber":57,"Velocity":75,"Duration":96599,"SoundDuration":96599,"Delta":311245102},{"NoteNumber":45,"Velocity":60,"Duration":96599,"SoundDuration":96599,"Delta":311245102},{"NoteNumber":52,"Velocity":74,"Duration":99260,"SoundDuration":99260,"Delta":311341701},{"NoteNumber":40,"Velocity":59,"Duration":99260,"SoundDuration":99260,"Delta":311341701},{"NoteNumber":49,"Velocity":73,"Duration":106186,"SoundDuration":106186,"Delta":311440962},{"NoteNumber":37,"Velocity":58,"Duration":106186,"SoundDuration":106186,"Delta":311440962},{"NoteNumber":45,"Velocity":77,"Duration":145089,"SoundDuration":145089,"Delta":311539708},{"NoteNumber":33,"Velocity":67,"Duration":145089,"SoundDuration":145089,"Delta":311539708},{"NoteNumber":46,"Velocity":69,"Duration":111654,"SoundDuration":111654,"Delta":311651315},{"NoteNumber":34,"Velocity":59,"Duration":111654,"SoundDuration":111654,"Delta":311651315},{"NoteNumber":45,"Velocity":77,"Duration":95917,"SoundDuration":95917,"Delta":311740515},{"NoteNumber":33,"Velocity":64,"Duration":95917,"SoundDuration":95917,"Delta":311740515},{"NoteNumber":46,"Velocity":70,"Duration":93369,"SoundDuration":93369,"Delta":311814630},{"NoteNumber":34,"Velocity":58,"Duration":93369,"SoundDuration":93369,"Delta":311814630},{"NoteNumber":45,"Velocity":79,"Duration":95162,"SoundDuration":95162,"Delta":311886612},{"NoteNumber":33,"Velocity":64,"Duration":95162,"SoundDuration":95162,"Delta":311886612},{"NoteNumber":46,"Velocity":69,"Duration":96343,"SoundDuration":96343,"Delta":311959541},{"NoteNumber":34,"Velocity":58,"Duration":96343,"SoundDuration":96343,"Delta":311959541},{"NoteNumber":45,"Velocity":77,"Duration":95462,"SoundDuration":95462,"Delta":312033652},{"NoteNumber":33,"Velocity":64,"Duration":95462,"SoundDuration":95462,"Delta":312033652},{"NoteNumber":46,"Velocity":70,"Duration":92483,"SoundDuration":92483,"Delta":312107521},{"NoteNumber":34,"Velocity":58,"Duration":92483,"SoundDuration":92483,"Delta":312107521},{"NoteNumber":45,"Velocity":78,"Duration":93300,"SoundDuration":93300,"Delta":312178818},{"NoteNumber":33,"Velocity":64,"Duration":93300,"SoundDuration":93300,"Delta":312178818},{"NoteNumber":46,"Velocity":69,"Duration":97305,"SoundDuration":97305,"Delta":312249663},{"NoteNumber":34,"Velocity":58,"Duration":97305,"SoundDuration":97305,"Delta":312249663},{"NoteNumber":45,"Velocity":73,"Duration":94362,"SoundDuration":94362,"Delta":312324513},{"NoteNumber":33,"Velocity":66,"Duration":94362,"SoundDuration":94362,"Delta":312324513},{"NoteNumber":46,"Velocity":70,"Duration":90546,"SoundDuration":90546,"Delta":312397690},{"NoteNumber":34,"Velocity":59,"Duration":90546,"SoundDuration":90546,"Delta":312397690},{"NoteNumber":45,"Velocity":75,"Duration":90906,"SoundDuration":90906,"Delta":312467441},{"NoteNumber":33,"Velocity":66,"Duration":90906,"SoundDuration":90906,"Delta":312467441},{"NoteNumber":46,"Velocity":70,"Duration":95647,"SoundDuration":95647,"Delta":312536545},{"NoteNumber":34,"Velocity":60,"Duration":95647,"SoundDuration":95647,"Delta":312536545},{"NoteNumber":45,"Velocity":77,"Duration":92561,"SoundDuration":92561,"Delta":312610177},{"NoteNumber":33,"Velocity":66,"Duration":92561,"SoundDuration":92561,"Delta":312610177},{"NoteNumber":46,"Velocity":74,"Duration":90110,"SoundDuration":90110,"Delta":312681944},{"NoteNumber":34,"Velocity":59,"Duration":90110,"SoundDuration":90110,"Delta":312681944},{"NoteNumber":45,"Velocity":79,"Duration":72759,"SoundDuration":72759,"Delta":312751260},{"NoteNumber":33,"Velocity":62,"Duration":72759,"SoundDuration":72759,"Delta":312751260},{"NoteNumber":46,"Velocity":79,"Duration":75604,"SoundDuration":75604,"Delta":312824019},{"NoteNumber":34,"Velocity":64,"Duration":75604,"SoundDuration":75604,"Delta":312824019},{"NoteNumber":47,"Velocity":80,"Duration":74346,"SoundDuration":74346,"Delta":312899624},{"NoteNumber":35,"Velocity":67,"Duration":74346,"SoundDuration":74346,"Delta":312899624},{"NoteNumber":48,"Velocity":83,"Duration":78705,"SoundDuration":78705,"Delta":312973970},{"NoteNumber":36,"Velocity":69,"Duration":78705,"SoundDuration":78705,"Delta":312973970},{"NoteNumber":49,"Velocity":85,"Duration":77534,"SoundDuration":77534,"Delta":313052676},{"NoteNumber":37,"Velocity":71,"Duration":77534,"SoundDuration":77534,"Delta":313052676},{"NoteNumber":50,"Velocity":88,"Duration":78290,"SoundDuration":78290,"Delta":313130211},{"NoteNumber":38,"Velocity":73,"Duration":78290,"SoundDuration":78290,"Delta":313130211},{"NoteNumber":51,"Velocity":89,"Duration":79506,"SoundDuration":79506,"Delta":313208501},{"NoteNumber":39,"Velocity":75,"Duration":79506,"SoundDuration":79506,"Delta":313208501},{"NoteNumber":52,"Velocity":91,"Duration":80301,"SoundDuration":80301,"Delta":313288007},{"NoteNumber":40,"Velocity":78,"Duration":80301,"SoundDuration":80301,"Delta":313288007},{"NoteNumber":53,"Velocity":94,"Duration":81290,"SoundDuration":81290,"Delta":313368309},{"NoteNumber":41,"Velocity":80,"Duration":81290,"SoundDuration":81290,"Delta":313368309},{"NoteNumber":52,"Velocity":96,"Duration":82117,"SoundDuration":82117,"Delta":313449599},{"NoteNumber":40,"Velocity":81,"Duration":82117,"SoundDuration":82117,"Delta":313449599},{"NoteNumber":51,"Velocity":97,"Duration":80764,"SoundDuration":80764,"Delta":313531717},{"NoteNumber":39,"Velocity":80,"Duration":80764,"SoundDuration":80764,"Delta":313531717},{"NoteNumber":50,"Velocity":96,"Duration":79171,"SoundDuration":79171,"Delta":313612481},{"NoteNumber":38,"Velocity":80,"Duration":79171,"SoundDuration":79171,"Delta":313612481},{"NoteNumber":49,"Velocity":94,"Duration":78399,"SoundDuration":78399,"Delta":313691653},{"NoteNumber":37,"Velocity":79,"Duration":78399,"SoundDuration":78399,"Delta":313691653},{"NoteNumber":48,"Velocity":93,"Duration":76899,"SoundDuration":76899,"Delta":313770052},{"NoteNumber":36,"Velocity":79,"Duration":76899,"SoundDuration":76899,"Delta":313770052},{"NoteNumber":47,"Velocity":92,"Duration":75707,"SoundDuration":75707,"Delta":313846952},{"NoteNumber":35,"Velocity":79,"Duration":75707,"SoundDuration":75707,"Delta":313846952},{"NoteNumber":46,"Velocity":90,"Duration":75604,"SoundDuration":75604,"Delta":313922660},{"NoteNumber":34,"Velocity":78,"Duration":75604,"SoundDuration":75604,"Delta":313922660},{"NoteNumber":45,"Velocity":105,"Duration":245498,"SoundDuration":245498,"Delta":313998265},{"NoteNumber":33,"Velocity":89,"Duration":245498,"SoundDuration":245498,"Delta":313998265},{"NoteNumber":81,"Velocity":99,"Duration":273224,"SoundDuration":273224,"Delta":314489263},{"NoteNumber":76,"Velocity":99,"Duration":273224,"SoundDuration":273224,"Delta":314489263},{"NoteNumber":73,"Velocity":83,"Duration":273224,"SoundDuration":273224,"Delta":314489263},{"NoteNumber":69,"Velocity":83,"Duration":273224,"SoundDuration":273224,"Delta":314489263},{"NoteNumber":57,"Velocity":84,"Duration":273224,"SoundDuration":273224,"Delta":314489263},{"NoteNumber":52,"Velocity":77,"Duration":273224,"SoundDuration":273224,"Delta":314489263},{"NoteNumber":49,"Velocity":70,"Duration":273224,"SoundDuration":273224,"Delta":314489263},{"NoteNumber":45,"Velocity":70,"Duration":273224,"SoundDuration":273224,"Delta":314489263},{"NoteNumber":93,"Velocity":99,"Duration":273224,"SoundDuration":273224,"Delta":315035711},{"NoteNumber":88,"Velocity":99,"Duration":273224,"SoundDuration":273224,"Delta":315035711},{"NoteNumber":85,"Velocity":83,"Duration":273224,"SoundDuration":273224,"Delta":315035711},{"NoteNumber":81,"Velocity":83,"Duration":273224,"SoundDuration":273224,"Delta":315035711},{"NoteNumber":69,"Velocity":84,"Duration":273224,"SoundDuration":273224,"Delta":315035711},{"NoteNumber":64,"Velocity":77,"Duration":273224,"SoundDuration":273224,"Delta":315035711},{"NoteNumber":61,"Velocity":70,"Duration":273224,"SoundDuration":273224,"Delta":315035711},{"NoteNumber":57,"Velocity":70,"Duration":273224,"SoundDuration":273224,"Delta":315035711}],"license":{"name":"Creative Commons Attribution-ShareAlike 3.0 Germany","url":"http://creativecommons.org/licenses/by-sa/3.0/de/deed.en","text":"The MIDI files in this folder were downloaded from http://www.piano-midi.de and are licensed under the Creative Commons Attribution-ShareAlike 3.0 Germany license by Bernd Krueger.\n\nThe MIDI, audio(MP3, OGG) and video files of Bernd Krueger are licensed under the cc-by-sa Germany License . This means, that you can use and adapt the files, as long as you attribute to the copyright holder Name: Bernd Krueger Source: http://www.piano-midi.de The distribution or public playback of the files is only allowed under identical license conditions . The scores are open source.","attribution":"Bernd Krueger","attributionUrl":"http://www.piano-midi.de"}}