{"title":"Etude No. 4 aus Grandes Etudes de Paganini","artist":"Liszt","durationMs":114148,"midiSha256":"511af6b66df8f28dbdf1d38028a92d448809a63fc70c73e0d397a1711b36f51e","midiObject":[{"NoteNumber":64,"Velocity":58,"Duration":47420,"SoundDuration":47420,"Delta":0},{"NoteNumber":68,"Velocity":51,"Duration":71130,"SoundDuration":71130,"Delta":94840},{"NoteNumber":71,"Velocity":46,"Duration":68157,"SoundDuration":68157,"Delta":189681},{"NoteNumber":76,"Velocity":46,"Duration":68157,"SoundDuration":68157,"Delta":280557},{"NoteNumber":76,"Velocity":65,"Duration":45438,"SoundDuration":45438,"Delta":371433},{"NoteNumber":71,"Velocity":51,"Duration":68156,"SoundDuration":68156,"Delta":462309},{"NoteNumber":68,"Velocity":47,"Duration":73698,"SoundDuration":73698,"Delta":553185},{"NoteNumber":64,"Velocity":47,"Duration":73698,"SoundDuration":73698,"Delta":651449},{"NoteNumber":63,"Velocity":58,"Duration":46638,"SoundDuration":46638,"Delta":749713},{"NoteNumber":66,"Velocity":51,"Duration":69958,"SoundDuration":69958,"Delta":842991},{"NoteNumber":71,"Velocity":47,"Duration":67938,"SoundDuration":67938,"Delta":936269},{"NoteNumber":78,"Velocity":43,"Duration":67938,"SoundDuration":67938,"Delta":1026854},{"NoteNumber":78,"Velocity":67,"Duration":45292,"SoundDuration":45292,"Delta":1117439},{"NoteNumber":71,"Velocity":51,"Duration":67938,"SoundDuration":67938,"Delta":1208024},{"NoteNumber":66,"Velocity":48,"Duration":71229,"SoundDuration":71229,"Delta":1298609},{"NoteNumber":63,"Velocity":43,"Duration":71229,"SoundDuration":71229,"Delta":1393582},{"NoteNumber":64,"Velocity":58,"Duration":46182,"SoundDuration":46182,"Delta":1488555},{"NoteNumber":68,"Velocity":51,"Duration":69273,"SoundDuration":69273,"Delta":1580919},{"NoteNumber":71,"Velocity":47,"Duration":67938,"SoundDuration":67938,"Delta":1673284},{"NoteNumber":76,"Velocity":42,"Duration":67938,"SoundDuration":67938,"Delta":1763869},{"NoteNumber":76,"Velocity":70,"Duration":45292,"SoundDuration":45292,"Delta":1854454},{"NoteNumber":71,"Velocity":51,"Duration":67938,"SoundDuration":67938,"Delta":1945040},{"NoteNumber":68,"Velocity":48,"Duration":73697,"SoundDuration":73697,"Delta":2035625},{"NoteNumber":64,"Velocity":47,"Duration":73698,"SoundDuration":73698,"Delta":2133889},{"NoteNumber":59,"Velocity":58,"Duration":46182,"SoundDuration":46182,"Delta":2232153},{"NoteNumber":66,"Velocity":51,"Duration":69273,"SoundDuration":69273,"Delta":2324517},{"NoteNumber":75,"Velocity":51,"Duration":69273,"SoundDuration":69273,"Delta":2416882},{"NoteNumber":83,"Velocity":48,"Duration":69273,"SoundDuration":69273,"Delta":2509246},{"NoteNumber":83,"Velocity":58,"Duration":46182,"SoundDuration":46182,"Delta":2601611},{"NoteNumber":75,"Velocity":51,"Duration":69273,"SoundDuration":69273,"Delta":2693975},{"NoteNumber":66,"Velocity":47,"Duration":77930,"SoundDuration":77930,"Delta":2786340},{"NoteNumber":59,"Velocity":43,"Duration":77930,"SoundDuration":77930,"Delta":2890247},{"NoteNumber":64,"Velocity":51,"Duration":46638,"SoundDuration":46638,"Delta":2994154},{"NoteNumber":68,"Velocity":45,"Duration":69958,"SoundDuration":69958,"Delta":3087432},{"NoteNumber":71,"Velocity":45,"Duration":68597,"SoundDuration":68597,"Delta":3180709},{"NoteNumber":76,"Velocity":41,"Duration":68597,"SoundDuration":68597,"Delta":3272173},{"NoteNumber":76,"Velocity":56,"Duration":45731,"SoundDuration":45731,"Delta":3363636},{"NoteNumber":71,"Velocity":45,"Duration":68597,"SoundDuration":68597,"Delta":3455100},{"NoteNumber":68,"Velocity":44,"Duration":70696,"SoundDuration":70696,"Delta":3546563},{"NoteNumber":64,"Velocity":42,"Duration":70696,"SoundDuration":70696,"Delta":3640826},{"NoteNumber":63,"Velocity":51,"Duration":46333,"SoundDuration":46333,"Delta":3735088},{"NoteNumber":66,"Velocity":45,"Duration":69500,"SoundDuration":69500,"Delta":3827755},{"NoteNumber":71,"Velocity":45,"Duration":68824,"SoundDuration":68824,"Delta":3920422},{"NoteNumber":78,"Velocity":41,"Duration":68824,"SoundDuration":68824,"Delta":4012188},{"NoteNumber":78,"Velocity":54,"Duration":45882,"SoundDuration":45882,"Delta":4103953},{"NoteNumber":71,"Velocity":45,"Duration":68824,"SoundDuration":68824,"Delta":4195719},{"NoteNumber":66,"Velocity":43,"Duration":71492,"SoundDuration":71492,"Delta":4287484},{"NoteNumber":63,"Velocity":40,"Duration":71492,"SoundDuration":71492,"Delta":4382807},{"NoteNumber":64,"Velocity":51,"Duration":46182,"SoundDuration":46182,"Delta":4478130},{"NoteNumber":68,"Velocity":45,"Duration":69273,"SoundDuration":69273,"Delta":4570494},{"NoteNumber":71,"Velocity":45,"Duration":67938,"SoundDuration":67938,"Delta":4662859},{"NoteNumber":76,"Velocity":40,"Duration":67938,"SoundDuration":67938,"Delta":4753444},{"NoteNumber":76,"Velocity":53,"Duration":45292,"SoundDuration":45292,"Delta":4844029},{"NoteNumber":71,"Velocity":45,"Duration":67938,"SoundDuration":67938,"Delta":4934615},{"NoteNumber":68,"Velocity":42,"Duration":71229,"SoundDuration":71229,"Delta":5025200},{"NoteNumber":64,"Velocity":39,"Duration":71229,"SoundDuration":71229,"Delta":5120173},{"NoteNumber":59,"Velocity":51,"Duration":46032,"SoundDuration":46032,"Delta":5215145},{"NoteNumber":66,"Velocity":45,"Duration":69048,"SoundDuration":69048,"Delta":5307209},{"NoteNumber":75,"Velocity":45,"Duration":67938,"SoundDuration":67938,"Delta":5399273},{"NoteNumber":83,"Velocity":42,"Duration":67938,"SoundDuration":67938,"Delta":5489859},{"NoteNumber":83,"Velocity":56,"Duration":45292,"SoundDuration":45292,"Delta":5580444},{"NoteNumber":75,"Velocity":45,"Duration":67938,"SoundDuration":67938,"Delta":5671029},{"NoteNumber":66,"Velocity":39,"Duration":73698,"SoundDuration":73698,"Delta":5761614},{"NoteNumber":59,"Velocity":33,"Duration":73697,"SoundDuration":73697,"Delta":5859878},{"NoteNumber":56,"Velocity":53,"Duration":46333,"SoundDuration":46333,"Delta":5958142},{"NoteNumber":64,"Velocity":46,"Duration":69500,"SoundDuration":69500,"Delta":6050809},{"NoteNumber":71,"Velocity":47,"Duration":68157,"SoundDuration":68157,"Delta":6143476},{"NoteNumber":80,"Velocity":41,"Duration":68157,"SoundDuration":68157,"Delta":6234352},{"NoteNumber":80,"Velocity":54,"Duration":45437,"SoundDuration":45437,"Delta":6325228},{"NoteNumber":71,"Velocity":48,"Duration":68157,"SoundDuration":68157,"Delta":6416104},{"NoteNumber":64,"Velocity":42,"Duration":72858,"SoundDuration":72858,"Delta":6506980},{"NoteNumber":56,"Velocity":39,"Duration":72858,"SoundDuration":72858,"Delta":6604124},{"NoteNumber":57,"Velocity":55,"Duration":47306,"SoundDuration":47306,"Delta":6701268},{"NoteNumber":64,"Velocity":49,"Duration":70959,"SoundDuration":70959,"Delta":6795882},{"NoteNumber":73,"Velocity":49,"Duration":80202,"SoundDuration":80202,"Delta":6890495},{"NoteNumber":81,"Velocity":46,"Duration":80202,"SoundDuration":80202,"Delta":6997431},{"NoteNumber":85,"Velocity":62,"Duration":56813,"SoundDuration":56813,"Delta":7104368},{"NoteNumber":88,"Velocity":67,"Duration":70701,"SoundDuration":70701,"Delta":7331623},{"NoteNumber":58,"Velocity":53,"Duration":46638,"SoundDuration":46638,"Delta":7614429},{"NoteNumber":66,"Velocity":46,"Duration":69958,"SoundDuration":69958,"Delta":7707707},{"NoteNumber":73,"Velocity":47,"Duration":68156,"SoundDuration":68156,"Delta":7800985},{"NoteNumber":82,"Velocity":41,"Duration":68157,"SoundDuration":68157,"Delta":7891861},{"NoteNumber":82,"Velocity":57,"Duration":45438,"SoundDuration":45438,"Delta":7982737},{"NoteNumber":73,"Velocity":48,"Duration":68157,"SoundDuration":68157,"Delta":8073613},{"NoteNumber":66,"Velocity":43,"Duration":72858,"SoundDuration":72858,"Delta":8164489},{"NoteNumber":58,"Velocity":42,"Duration":72858,"SoundDuration":72858,"Delta":8261633},{"NoteNumber":59,"Velocity":55,"Duration":47306,"SoundDuration":47306,"Delta":8358777},{"NoteNumber":66,"Velocity":49,"Duration":70959,"SoundDuration":70959,"Delta":8453390},{"NoteNumber":75,"Velocity":49,"Duration":80202,"SoundDuration":80202,"Delta":8548003},{"NoteNumber":83,"Velocity":48,"Duration":80202,"SoundDuration":80202,"Delta":8654940},{"NoteNumber":87,"Velocity":61,"Duration":56813,"SoundDuration":56813,"Delta":8761876},{"NoteNumber":90,"Velocity":64,"Duration":70310,"SoundDuration":70310,"Delta":8989132},{"NoteNumber":63,"Velocity":57,"Duration":47420,"SoundDuration":47420,"Delta":9270373},{"NoteNumber":71,"Velocity":50,"Duration":71130,"SoundDuration":71130,"Delta":9365213},{"NoteNumber":78,"Velocity":43,"Duration":69048,"SoundDuration":69048,"Delta":9460054},{"NoteNumber":87,"Velocity":46,"Duration":69047,"SoundDuration":69047,"Delta":9552118},{"NoteNumber":87,"Velocity":56,"Duration":69048,"SoundDuration":69048,"Delta":9644182},{"NoteNumber":78,"Velocity":51,"Duration":69048,"SoundDuration":69048,"Delta":9736246},{"NoteNumber":71,"Velocity":45,"Duration":73698,"SoundDuration":73698,"Delta":9828310},{"NoteNumber":63,"Velocity":42,"Duration":73698,"SoundDuration":73698,"Delta":9926574},{"NoteNumber":64,"Velocity":60,"Duration":47261,"SoundDuration":47261,"Delta":10024838},{"NoteNumber":71,"Velocity":53,"Duration":70892,"SoundDuration":70892,"Delta":10119362},{"NoteNumber":80,"Velocity":54,"Duration":69048,"SoundDuration":69048,"Delta":10213886},{"NoteNumber":88,"Velocity":51,"Duration":69047,"SoundDuration":69047,"Delta":10305950},{"NoteNumber":88,"Velocity":59,"Duration":69048,"SoundDuration":69048,"Delta":10398014},{"NoteNumber":80,"Velocity":55,"Duration":69048,"SoundDuration":69048,"Delta":10490078},{"NoteNumber":71,"Velocity":51,"Duration":73698,"SoundDuration":73698,"Delta":10582142},{"NoteNumber":64,"Velocity":48,"Duration":73698,"SoundDuration":73698,"Delta":10680406},{"NoteNumber":66,"Velocity":64,"Duration":46948,"SoundDuration":46948,"Delta":10778670},{"NoteNumber":75,"Velocity":57,"Duration":70422,"SoundDuration":70422,"Delta":10872567},{"NoteNumber":83,"Velocity":57,"Duration":68824,"SoundDuration":68824,"Delta":10966464},{"NoteNumber":90,"Velocity":54,"Duration":68824,"SoundDuration":68824,"Delta":11058229},{"NoteNumber":90,"Velocity":64,"Duration":68824,"SoundDuration":68824,"Delta":11149995},{"NoteNumber":83,"Velocity":58,"Duration":68824,"SoundDuration":68824,"Delta":11241760},{"NoteNumber":75,"Velocity":54,"Duration":73698,"SoundDuration":73698,"Delta":11333526},{"NoteNumber":66,"Velocity":51,"Duration":73698,"SoundDuration":73698,"Delta":11431790},{"NoteNumber":68,"Velocity":68,"Duration":46638,"SoundDuration":46638,"Delta":11530054},{"NoteNumber":76,"Velocity":60,"Duration":69958,"SoundDuration":69958,"Delta":11623331},{"NoteNumber":83,"Velocity":61,"Duration":67938,"SoundDuration":67938,"Delta":11716609},{"NoteNumber":92,"Velocity":58,"Duration":67938,"SoundDuration":67938,"Delta":11807194},{"NoteNumber":92,"Velocity":68,"Duration":67938,"SoundDuration":67938,"Delta":11897780},{"NoteNumber":83,"Velocity":63,"Duration":67938,"SoundDuration":67938,"Delta":11988365},{"NoteNumber":76,"Velocity":57,"Duration":73698,"SoundDuration":73698,"Delta":12078950},{"NoteNumber":68,"Velocity":54,"Duration":73698,"SoundDuration":73698,"Delta":12177214},{"NoteNumber":69,"Velocity":73,"Duration":47261,"SoundDuration":47261,"Delta":12275478},{"NoteNumber":76,"Velocity":64,"Duration":70892,"SoundDuration":70892,"Delta":12370002},{"NoteNumber":85,"Velocity":64,"Duration":68156,"SoundDuration":68156,"Delta":12464526},{"NoteNumber":93,"Velocity":61,"Duration":68157,"SoundDuration":68157,"Delta":12555402},{"NoteNumber":93,"Velocity":73,"Duration":68157,"SoundDuration":68157,"Delta":12646278},{"NoteNumber":85,"Velocity":66,"Duration":68157,"SoundDuration":68157,"Delta":12737154},{"NoteNumber":76,"Velocity":62,"Duration":77930,"SoundDuration":77930,"Delta":12828030},{"NoteNumber":69,"Velocity":55,"Duration":77930,"SoundDuration":77930,"Delta":12931937},{"NoteNumber":70,"Velocity":78,"Duration":46948,"SoundDuration":46948,"Delta":13035844},{"NoteNumber":79,"Velocity":68,"Duration":70422,"SoundDuration":70422,"Delta":13129741},{"NoteNumber":88,"Velocity":68,"Duration":67938,"SoundDuration":67938,"Delta":13223638},{"NoteNumber":97,"Velocity":64,"Duration":67938,"SoundDuration":67938,"Delta":13314223},{"NoteNumber":97,"Velocity":74,"Duration":67938,"SoundDuration":67938,"Delta":13404808},{"NoteNumber":88,"Velocity":68,"Duration":67938,"SoundDuration":67938,"Delta":13495393},{"NoteNumber":79,"Velocity":63,"Duration":73698,"SoundDuration":73698,"Delta":13585979},{"NoteNumber":70,"Velocity":58,"Duration":73698,"SoundDuration":73698,"Delta":13684243},{"NoteNumber":73,"Velocity":78,"Duration":46793,"SoundDuration":46793,"Delta":13782507},{"NoteNumber":82,"Velocity":68,"Duration":70189,"SoundDuration":70189,"Delta":13876093},{"NoteNumber":91,"Velocity":68,"Duration":68156,"SoundDuration":68156,"Delta":13969679},{"NoteNumber":100,"Velocity":66,"Duration":68157,"SoundDuration":68157,"Delta":14060555},{"NoteNumber":100,"Velocity":74,"Duration":68157,"SoundDuration":68157,"Delta":14151431},{"NoteNumber":91,"Velocity":68,"Duration":68157,"SoundDuration":68157,"Delta":14242307},{"NoteNumber":82,"Velocity":65,"Duration":73698,"SoundDuration":73698,"Delta":14333183},{"NoteNumber":73,"Velocity":62,"Duration":73698,"SoundDuration":73698,"Delta":14431447},{"NoteNumber":70,"Velocity":78,"Duration":46948,"SoundDuration":46948,"Delta":14529711},{"NoteNumber":79,"Velocity":68,"Duration":70422,"SoundDuration":70422,"Delta":14623608},{"NoteNumber":88,"Velocity":65,"Duration":68597,"SoundDuration":68597,"Delta":14717505},{"NoteNumber":97,"Velocity":68,"Duration":68597,"SoundDuration":68597,"Delta":14808968},{"NoteNumber":97,"Velocity":72,"Duration":68597,"SoundDuration":68597,"Delta":14900432},{"NoteNumber":88,"Velocity":65,"Duration":68597,"SoundDuration":68597,"Delta":14991895},{"NoteNumber":79,"Velocity":63,"Duration":73698,"SoundDuration":73698,"Delta":15083359},{"NoteNumber":70,"Velocity":59,"Duration":73698,"SoundDuration":73698,"Delta":15181623},{"NoteNumber":67,"Velocity":71,"Duration":46793,"SoundDuration":46793,"Delta":15279887},{"NoteNumber":76,"Velocity":62,"Duration":70189,"SoundDuration":70189,"Delta":15373473},{"NoteNumber":85,"Velocity":61,"Duration":69047,"SoundDuration":69047,"Delta":15467059},{"NoteNumber":94,"Velocity":61,"Duration":69047,"SoundDuration":69047,"Delta":15559123},{"NoteNumber":94,"Velocity":65,"Duration":69047,"SoundDuration":69047,"Delta":15651187},{"NoteNumber":85,"Velocity":59,"Duration":69048,"SoundDuration":69048,"Delta":15743251},{"NoteNumber":76,"Velocity":48,"Duration":73698,"SoundDuration":73698,"Delta":15835315},{"NoteNumber":67,"Velocity":42,"Duration":73698,"SoundDuration":73698,"Delta":15933579},{"NoteNumber":64,"Velocity":64,"Duration":46948,"SoundDuration":46948,"Delta":16031843},{"NoteNumber":73,"Velocity":57,"Duration":70422,"SoundDuration":70422,"Delta":16125740},{"NoteNumber":82,"Velocity":57,"Duration":68824,"SoundDuration":68824,"Delta":16219637},{"NoteNumber":91,"Velocity":56,"Duration":68824,"SoundDuration":68824,"Delta":16311402},{"NoteNumber":91,"Velocity":61,"Duration":68824,"SoundDuration":68824,"Delta":16403168},{"NoteNumber":82,"Velocity":54,"Duration":68824,"SoundDuration":68824,"Delta":16494933},{"NoteNumber":73,"Velocity":49,"Duration":73698,"SoundDuration":73698,"Delta":16586699},{"NoteNumber":64,"Velocity":40,"Duration":73698,"SoundDuration":73698,"Delta":16684963},{"NoteNumber":61,"Velocity":59,"Duration":47420,"SoundDuration":47420,"Delta":16783227},{"NoteNumber":70,"Velocity":53,"Duration":71130,"SoundDuration":71130,"Delta":16878067},{"NoteNumber":79,"Velocity":51,"Duration":69047,"SoundDuration":69047,"Delta":16972908},{"NoteNumber":88,"Velocity":51,"Duration":69047,"SoundDuration":69047,"Delta":17064972},{"NoteNumber":88,"Velocity":55,"Duration":69047,"SoundDuration":69047,"Delta":17157036},{"NoteNumber":79,"Velocity":49,"Duration":69047,"SoundDuration":69047,"Delta":17249100},{"NoteNumber":70,"Velocity":45,"Duration":73698,"SoundDuration":73698,"Delta":17341164},{"NoteNumber":61,"Velocity":42,"Duration":73698,"SoundDuration":73698,"Delta":17439428},{"NoteNumber":59,"Velocity":54,"Duration":47306,"SoundDuration":47306,"Delta":17537692},{"NoteNumber":66,"Velocity":47,"Duration":70959,"SoundDuration":70959,"Delta":17632305},{"NoteNumber":75,"Velocity":42,"Duration":80202,"SoundDuration":80202,"Delta":17726919},{"NoteNumber":83,"Velocity":46,"Duration":80202,"SoundDuration":80202,"Delta":17833855},{"NoteNumber":87,"Velocity":54,"Duration":56813,"SoundDuration":56813,"Delta":17940792},{"NoteNumber":90,"Velocity":60,"Duration":70310,"SoundDuration":70310,"Delta":18168047},{"NoteNumber":57,"Velocity":51,"Duration":47905,"SoundDuration":47905,"Delta":18449288},{"NoteNumber":63,"Velocity":45,"Duration":71857,"SoundDuration":71857,"Delta":18545098},{"NoteNumber":71,"Velocity":42,"Duration":68156,"SoundDuration":68156,"Delta":18640908},{"NoteNumber":78,"Velocity":40,"Duration":68156,"SoundDuration":68156,"Delta":18731784},{"NoteNumber":78,"Velocity":57,"Duration":45438,"SoundDuration":45438,"Delta":18822660},{"NoteNumber":71,"Velocity":45,"Duration":68156,"SoundDuration":68156,"Delta":18913536},{"NoteNumber":63,"Velocity":42,"Duration":73698,"SoundDuration":73698,"Delta":19004412},{"NoteNumber":57,"Velocity":39,"Duration":73698,"SoundDuration":73698,"Delta":19102676},{"NoteNumber":56,"Velocity":51,"Duration":47306,"SoundDuration":47306,"Delta":19200940},{"NoteNumber":64,"Velocity":45,"Duration":70959,"SoundDuration":70959,"Delta":19295553},{"NoteNumber":71,"Velocity":45,"Duration":80202,"SoundDuration":80202,"Delta":19390167},{"NoteNumber":80,"Velocity":45,"Duration":80202,"SoundDuration":80202,"Delta":19497103},{"NoteNumber":83,"Velocity":54,"Duration":56813,"SoundDuration":56813,"Delta":19604040},{"NoteNumber":88,"Velocity":60,"Duration":70310,"SoundDuration":70310,"Delta":19831295},{"NoteNumber":57,"Velocity":51,"Duration":48067,"SoundDuration":48067,"Delta":20112536},{"NoteNumber":63,"Velocity":45,"Duration":72101,"SoundDuration":72101,"Delta":20208671},{"NoteNumber":71,"Velocity":45,"Duration":68156,"SoundDuration":68156,"Delta":20304807},{"NoteNumber":78,"Velocity":39,"Duration":68156,"SoundDuration":68156,"Delta":20395683},{"NoteNumber":78,"Velocity":57,"Duration":44378,"SoundDuration":44378,"Delta":20486559},{"NoteNumber":71,"Velocity":45,"Duration":66568,"SoundDuration":66568,"Delta":20575316},{"NoteNumber":63,"Velocity":40,"Duration":74750,"SoundDuration":74750,"Delta":20664074},{"NoteNumber":57,"Velocity":38,"Duration":74750,"SoundDuration":74750,"Delta":20763741},{"NoteNumber":56,"Velocity":51,"Duration":47306,"SoundDuration":47306,"Delta":20863409},{"NoteNumber":64,"Velocity":45,"Duration":70959,"SoundDuration":70959,"Delta":20958022},{"NoteNumber":71,"Velocity":43,"Duration":80202,"SoundDuration":80202,"Delta":21052636},{"NoteNumber":80,"Velocity":45,"Duration":80202,"SoundDuration":80202,"Delta":21159572},{"NoteNumber":83,"Velocity":54,"Duration":56813,"SoundDuration":56813,"Delta":21266509},{"NoteNumber":88,"Velocity":60,"Duration":70310,"SoundDuration":70310,"Delta":21493764},{"NoteNumber":57,"Velocity":75,"Duration":49757,"SoundDuration":49757,"Delta":21775005},{"NoteNumber":81,"Velocity":63,"Duration":52731,"SoundDuration":52731,"Delta":21974037},{"NoteNumber":76,"Velocity":53,"Duration":52731,"SoundDuration":52731,"Delta":21974037},{"NoteNumber":73,"Velocity":53,"Duration":52731,"SoundDuration":52731,"Delta":21974037},{"NoteNumber":69,"Velocity":53,"Duration":52731,"SoundDuration":52731,"Delta":21974037},{"NoteNumber":61,"Velocity":44,"Duration":52731,"SoundDuration":52731,"Delta":21974037},{"NoteNumber":64,"Velocity":44,"Duration":52731,"SoundDuration":52731,"Delta":21974037},{"NoteNumber":59,"Velocity":82,"Duration":50113,"SoundDuration":50113,"Delta":22184963},{"NoteNumber":83,"Velocity":65,"Duration":52731,"SoundDuration":52731,"Delta":22385417},{"NoteNumber":80,"Velocity":54,"Duration":52731,"SoundDuration":52731,"Delta":22385417},{"NoteNumber":76,"Velocity":54,"Duration":52731,"SoundDuration":52731,"Delta":22385417},{"NoteNumber":71,"Velocity":54,"Duration":52731,"SoundDuration":52731,"Delta":22385417},{"NoteNumber":68,"Velocity":45,"Duration":52731,"SoundDuration":52731,"Delta":22385417},{"NoteNumber":64,"Velocity":45,"Duration":52731,"SoundDuration":52731,"Delta":22385417},{"NoteNumber":61,"Velocity":81,"Duration":49933,"SoundDuration":49933,"Delta":22596343},{"NoteNumber":85,"Velocity":65,"Duration":52531,"SoundDuration":52531,"Delta":22796077},{"NoteNumber":81,"Velocity":54,"Duration":52531,"SoundDuration":52531,"Delta":22796077},{"NoteNumber":76,"Velocity":54,"Duration":52531,"SoundDuration":52531,"Delta":22796077},{"NoteNumber":73,"Velocity":54,"Duration":52531,"SoundDuration":52531,"Delta":22796077},{"NoteNumber":69,"Velocity":45,"Duration":52531,"SoundDuration":52531,"Delta":22796077},{"NoteNumber":64,"Velocity":45,"Duration":52531,"SoundDuration":52531,"Delta":22796077},{"NoteNumber":60,"Velocity":81,"Duration":49019,"SoundDuration":49019,"Delta":23006205},{"NoteNumber":84,"Velocity":65,"Duration":53763,"SoundDuration":53763,"Delta":23202283},{"NoteNumber":79,"Velocity":54,"Duration":53763,"SoundDuration":53763,"Delta":23202283},{"NoteNumber":76,"Velocity":54,"Duration":53763,"SoundDuration":53763,"Delta":23202283},{"NoteNumber":72,"Velocity":54,"Duration":53763,"SoundDuration":53763,"Delta":23202283},{"NoteNumber":70,"Velocity":45,"Duration":53763,"SoundDuration":53763,"Delta":23202283},{"NoteNumber":67,"Velocity":45,"Duration":53763,"SoundDuration":53763,"Delta":23202283},{"NoteNumber":64,"Velocity":45,"Duration":53763,"SoundDuration":53763,"Delta":23202283},{"NoteNumber":59,"Velocity":80,"Duration":49933,"SoundDuration":49933,"Delta":23417337},{"NoteNumber":83,"Velocity":65,"Duration":52531,"SoundDuration":52531,"Delta":23617071},{"NoteNumber":80,"Velocity":54,"Duration":52531,"SoundDuration":52531,"Delta":23617071},{"NoteNumber":76,"Velocity":54,"Duration":52531,"SoundDuration":52531,"Delta":23617071},{"NoteNumber":71,"Velocity":54,"Duration":52531,"SoundDuration":52531,"Delta":23617071},{"NoteNumber":68,"Velocity":45,"Duration":52531,"SoundDuration":52531,"Delta":23617071},{"NoteNumber":64,"Velocity":45,"Duration":52531,"SoundDuration":52531,"Delta":23617071},{"NoteNumber":59,"Velocity":81,"Duration":50113,"SoundDuration":50113,"Delta":23827199},{"NoteNumber":83,"Velocity":65,"Duration":51953,"SoundDuration":51953,"Delta":24027653},{"NoteNumber":78,"Velocity":54,"Duration":51953,"SoundDuration":51953,"Delta":24027653},{"NoteNumber":75,"Velocity":54,"Duration":51953,"SoundDuration":51953,"Delta":24027653},{"NoteNumber":71,"Velocity":54,"Duration":51953,"SoundDuration":51953,"Delta":24027653},{"NoteNumber":69,"Velocity":45,"Duration":51953,"SoundDuration":51953,"Delta":24027653},{"NoteNumber":66,"Velocity":45,"Duration":51953,"SoundDuration":51953,"Delta":24027653},{"NoteNumber":64,"Velocity":81,"Duration":406669,"SoundDuration":406669,"Delta":24235467},{"NoteNumber":88,"Velocity":79,"Duration":50833,"SoundDuration":50833,"Delta":24642136},{"NoteNumber":83,"Velocity":66,"Duration":50833,"SoundDuration":50833,"Delta":24642136},{"NoteNumber":80,"Velocity":66,"Duration":50833,"SoundDuration":50833,"Delta":24642136},{"NoteNumber":76,"Velocity":66,"Duration":50833,"SoundDuration":50833,"Delta":24642136},{"NoteNumber":71,"Velocity":55,"Duration":50833,"SoundDuration":50833,"Delta":24642136},{"NoteNumber":68,"Velocity":55,"Duration":50833,"SoundDuration":50833,"Delta":24642136},{"NoteNumber":64,"Velocity":58,"Duration":47420,"SoundDuration":47420,"Delta":25073373},{"NoteNumber":67,"Velocity":51,"Duration":71130,"SoundDuration":71130,"Delta":25168214},{"NoteNumber":71,"Velocity":51,"Duration":68156,"SoundDuration":68156,"Delta":25263055},{"NoteNumber":76,"Velocity":43,"Duration":68156,"SoundDuration":68156,"Delta":25353931},{"NoteNumber":76,"Velocity":59,"Duration":45438,"SoundDuration":45438,"Delta":25444807},{"NoteNumber":71,"Velocity":51,"Duration":68156,"SoundDuration":68156,"Delta":25535683},{"NoteNumber":67,"Velocity":48,"Duration":73698,"SoundDuration":73698,"Delta":25626559},{"NoteNumber":64,"Velocity":42,"Duration":73698,"SoundDuration":73698,"Delta":25724823},{"NoteNumber":63,"Velocity":58,"Duration":46638,"SoundDuration":46638,"Delta":25823087},{"NoteNumber":66,"Velocity":51,"Duration":69958,"SoundDuration":69958,"Delta":25916364},{"NoteNumber":71,"Velocity":51,"Duration":67938,"SoundDuration":67938,"Delta":26009642},{"NoteNumber":78,"Velocity":45,"Duration":67938,"SoundDuration":67938,"Delta":26100227},{"NoteNumber":78,"Velocity":62,"Duration":45292,"SoundDuration":45292,"Delta":26190813},{"NoteNumber":71,"Velocity":51,"Duration":67938,"SoundDuration":67938,"Delta":26281398},{"NoteNumber":66,"Velocity":48,"Duration":71229,"SoundDuration":71229,"Delta":26371983},{"NoteNumber":63,"Velocity":42,"Duration":71229,"SoundDuration":71229,"Delta":26466956},{"NoteNumber":64,"Velocity":58,"Duration":46182,"SoundDuration":46182,"Delta":26561929},{"NoteNumber":67,"Velocity":51,"Duration":69273,"SoundDuration":69273,"Delta":26654293},{"NoteNumber":71,"Velocity":51,"Duration":67938,"SoundDuration":67938,"Delta":26746658},{"NoteNumber":76,"Velocity":46,"Duration":67938,"SoundDuration":67938,"Delta":26837243},{"NoteNumber":76,"Velocity":58,"Duration":45292,"SoundDuration":45292,"Delta":26927828},{"NoteNumber":71,"Velocity":51,"Duration":67938,"SoundDuration":67938,"Delta":27018413},{"NoteNumber":67,"Velocity":47,"Duration":73698,"SoundDuration":73698,"Delta":27108999},{"NoteNumber":64,"Velocity":42,"Duration":73698,"SoundDuration":73698,"Delta":27207263},{"NoteNumber":59,"Velocity":58,"Duration":46182,"SoundDuration":46182,"Delta":27305527},{"NoteNumber":66,"Velocity":51,"Duration":69273,"SoundDuration":69273,"Delta":27397891},{"NoteNumber":75,"Velocity":48,"Duration":69273,"SoundDuration":69273,"Delta":27490256},{"NoteNumber":83,"Velocity":51,"Duration":69273,"SoundDuration":69273,"Delta":27582620},{"NoteNumber":83,"Velocity":61,"Duration":46182,"SoundDuration":46182,"Delta":27674985},{"NoteNumber":75,"Velocity":51,"Duration":69273,"SoundDuration":69273,"Delta":27767349},{"NoteNumber":66,"Velocity":46,"Duration":77930,"SoundDuration":77930,"Delta":27859714},{"NoteNumber":59,"Velocity":41,"Duration":77930,"SoundDuration":77930,"Delta":27963621},{"NoteNumber":64,"Velocity":51,"Duration":46638,"SoundDuration":46638,"Delta":28067528},{"NoteNumber":67,"Velocity":45,"Duration":69958,"SoundDuration":69958,"Delta":28160805},{"NoteNumber":71,"Velocity":45,"Duration":68597,"SoundDuration":68597,"Delta":28254083},{"NoteNumber":76,"Velocity":40,"Duration":68597,"SoundDuration":68597,"Delta":28345547},{"NoteNumber":76,"Velocity":53,"Duration":45731,"SoundDuration":45731,"Delta":28437010},{"NoteNumber":71,"Velocity":45,"Duration":68597,"SoundDuration":68597,"Delta":28528474},{"NoteNumber":67,"Velocity":43,"Duration":70696,"SoundDuration":70696,"Delta":28619937},{"NoteNumber":64,"Velocity":39,"Duration":70696,"SoundDuration":70696,"Delta":28714200},{"NoteNumber":63,"Velocity":51,"Duration":46333,"SoundDuration":46333,"Delta":28808462},{"NoteNumber":66,"Velocity":45,"Duration":69500,"SoundDuration":69500,"Delta":28901129},{"NoteNumber":71,"Velocity":45,"Duration":68824,"SoundDuration":68824,"Delta":28993796},{"NoteNumber":78,"Velocity":41,"Duration":68824,"SoundDuration":68824,"Delta":29085562},{"NoteNumber":78,"Velocity":57,"Duration":45882,"SoundDuration":45882,"Delta":29177327},{"NoteNumber":71,"Velocity":45,"Duration":68824,"SoundDuration":68824,"Delta":29269093},{"NoteNumber":66,"Velocity":42,"Duration":71492,"SoundDuration":71492,"Delta":29360858},{"NoteNumber":63,"Velocity":38,"Duration":71492,"SoundDuration":71492,"Delta":29456181},{"NoteNumber":64,"Velocity":51,"Duration":46182,"SoundDuration":46182,"Delta":29551504},{"NoteNumber":67,"Velocity":45,"Duration":69273,"SoundDuration":69273,"Delta":29643868},{"NoteNumber":71,"Velocity":45,"Duration":67938,"SoundDuration":67938,"Delta":29736233},{"NoteNumber":76,"Velocity":41,"Duration":67938,"SoundDuration":67938,"Delta":29826818},{"NoteNumber":76,"Velocity":51,"Duration":45292,"SoundDuration":45292,"Delta":29917403},{"NoteNumber":71,"Velocity":45,"Duration":67938,"SoundDuration":67938,"Delta":30007988},{"NoteNumber":67,"Velocity":41,"Duration":71229,"SoundDuration":71229,"Delta":30098574},{"NoteNumber":64,"Velocity":39,"Duration":71229,"SoundDuration":71229,"Delta":30193546},{"NoteNumber":59,"Velocity":51,"Duration":46032,"SoundDuration":46032,"Delta":30288519},{"NoteNumber":66,"Velocity":45,"Duration":69047,"SoundDuration":69047,"Delta":30380583},{"NoteNumber":75,"Velocity":40,"Duration":67938,"SoundDuration":67938,"Delta":30472647},{"NoteNumber":83,"Velocity":45,"Duration":67938,"SoundDuration":67938,"Delta":30563232},{"NoteNumber":83,"Velocity":51,"Duration":45292,"SoundDuration":45292,"Delta":30653818},{"NoteNumber":75,"Velocity":45,"Duration":67938,"SoundDuration":67938,"Delta":30744403},{"NoteNumber":66,"Velocity":40,"Duration":73698,"SoundDuration":73698,"Delta":30834988},{"NoteNumber":59,"Velocity":37,"Duration":73698,"SoundDuration":73698,"Delta":30933252},{"NoteNumber":59,"Velocity":53,"Duration":46333,"SoundDuration":46333,"Delta":31031516},{"NoteNumber":66,"Velocity":46,"Duration":69500,"SoundDuration":69500,"Delta":31124183},{"NoteNumber":74,"Velocity":47,"Duration":68156,"SoundDuration":68156,"Delta":31216850},{"NoteNumber":83,"Velocity":47,"Duration":68156,"SoundDuration":68156,"Delta":31307726},{"NoteNumber":83,"Velocity":54,"Duration":45437,"SoundDuration":45437,"Delta":31398602},{"NoteNumber":74,"Velocity":48,"Duration":68156,"SoundDuration":68156,"Delta":31489478},{"NoteNumber":66,"Velocity":43,"Duration":72857,"SoundDuration":72857,"Delta":31580354},{"NoteNumber":59,"Velocity":41,"Duration":72857,"SoundDuration":72857,"Delta":31677498},{"NoteNumber":57,"Velocity":51,"Duration":46031,"SoundDuration":46031,"Delta":31774642},{"NoteNumber":66,"Velocity":45,"Duration":69048,"SoundDuration":69048,"Delta":31866706},{"NoteNumber":74,"Velocity":45,"Duration":67938,"SoundDuration":67938,"Delta":31958770},{"NoteNumber":84,"Velocity":45,"Duration":67938,"SoundDuration":67938,"Delta":32049355},{"NoteNumber":84,"Velocity":51,"Duration":45292,"SoundDuration":45292,"Delta":32139941},{"NoteNumber":74,"Velocity":45,"Duration":67938,"SoundDuration":67938,"Delta":32230526},{"NoteNumber":66,"Velocity":40,"Duration":73698,"SoundDuration":73698,"Delta":32321111},{"NoteNumber":57,"Velocity":34,"Duration":73698,"SoundDuration":73698,"Delta":32419375},{"NoteNumber":57,"Velocity":53,"Duration":46333,"SoundDuration":46333,"Delta":32517639},{"NoteNumber":66,"Velocity":46,"Duration":69500,"SoundDuration":69500,"Delta":32610306},{"NoteNumber":74,"Velocity":45,"Duration":68156,"SoundDuration":68156,"Delta":32702973},{"NoteNumber":81,"Velocity":42,"Duration":68156,"SoundDuration":68156,"Delta":32793849},{"NoteNumber":81,"Velocity":54,"Duration":45437,"SoundDuration":45437,"Delta":32884725},{"NoteNumber":74,"Velocity":48,"Duration":68156,"SoundDuration":68156,"Delta":32975601},{"NoteNumber":66,"Velocity":42,"Duration":72857,"SoundDuration":72857,"Delta":33066477},{"NoteNumber":57,"Velocity":38,"Duration":72857,"SoundDuration":72857,"Delta":33163621},{"NoteNumber":55,"Velocity":51,"Duration":46031,"SoundDuration":46031,"Delta":33260765},{"NoteNumber":62,"Velocity":45,"Duration":69048,"SoundDuration":69048,"Delta":33352829},{"NoteNumber":71,"Velocity":45,"Duration":67938,"SoundDuration":67938,"Delta":33444893},{"NoteNumber":86,"Velocity":51,"Duration":67938,"SoundDuration":67938,"Delta":33535478},{"NoteNumber":86,"Velocity":62,"Duration":45292,"SoundDuration":45292,"Delta":33626064},{"NoteNumber":71,"Velocity":46,"Duration":67938,"SoundDuration":67938,"Delta":33716649},{"NoteNumber":62,"Velocity":41,"Duration":73698,"SoundDuration":73698,"Delta":33807234},{"NoteNumber":55,"Velocity":34,"Duration":73698,"SoundDuration":73698,"Delta":33905498},{"NoteNumber":55,"Velocity":57,"Duration":46333,"SoundDuration":46333,"Delta":34003762},{"NoteNumber":62,"Velocity":42,"Duration":69500,"SoundDuration":69500,"Delta":34096429},{"NoteNumber":71,"Velocity":50,"Duration":69500,"SoundDuration":69500,"Delta":34096429},{"NoteNumber":74,"Velocity":48,"Duration":68156,"SoundDuration":68156,"Delta":34189096},{"NoteNumber":91,"Velocity":60,"Duration":68156,"SoundDuration":68156,"Delta":34279972},{"NoteNumber":91,"Velocity":65,"Duration":45437,"SoundDuration":45437,"Delta":34370848},{"NoteNumber":74,"Velocity":55,"Duration":68156,"SoundDuration":68156,"Delta":34461724},{"NoteNumber":62,"Velocity":46,"Duration":72857,"SoundDuration":72857,"Delta":34552600},{"NoteNumber":71,"Velocity":46,"Duration":72857,"SoundDuration":72857,"Delta":34552600},{"NoteNumber":55,"Velocity":45,"Duration":72857,"SoundDuration":72857,"Delta":34649744},{"NoteNumber":55,"Velocity":62,"Duration":46333,"SoundDuration":46333,"Delta":34746888},{"NoteNumber":62,"Velocity":46,"Duration":69500,"SoundDuration":69500,"Delta":34839555},{"NoteNumber":71,"Velocity":55,"Duration":69500,"SoundDuration":69500,"Delta":34839555},{"NoteNumber":79,"Velocity":57,"Duration":68156,"SoundDuration":68156,"Delta":34932222},{"NoteNumber":95,"Velocity":63,"Duration":68156,"SoundDuration":68156,"Delta":35023098},{"NoteNumber":95,"Velocity":70,"Duration":45437,"SoundDuration":45437,"Delta":35113974},{"NoteNumber":79,"Velocity":59,"Duration":68156,"SoundDuration":68156,"Delta":35204850},{"NoteNumber":62,"Velocity":50,"Duration":72857,"SoundDuration":72857,"Delta":35295726},{"NoteNumber":71,"Velocity":60,"Duration":72857,"SoundDuration":72857,"Delta":35295726},{"NoteNumber":55,"Velocity":51,"Duration":72857,"SoundDuration":72857,"Delta":35392870},{"NoteNumber":55,"Velocity":66,"Duration":46333,"SoundDuration":46333,"Delta":35490014},{"NoteNumber":62,"Velocity":49,"Duration":69500,"SoundDuration":69500,"Delta":35582681},{"NoteNumber":71,"Velocity":59,"Duration":69500,"SoundDuration":69500,"Delta":35582681},{"NoteNumber":83,"Velocity":61,"Duration":68156,"SoundDuration":68156,"Delta":35675348},{"NoteNumber":98,"Velocity":68,"Duration":68156,"SoundDuration":68156,"Delta":35766224},{"NoteNumber":98,"Velocity":78,"Duration":45437,"SoundDuration":45437,"Delta":35857100},{"NoteNumber":83,"Velocity":64,"Duration":68156,"SoundDuration":68156,"Delta":35947976},{"NoteNumber":62,"Velocity":55,"Duration":72857,"SoundDuration":72857,"Delta":36038852},{"NoteNumber":71,"Velocity":65,"Duration":72857,"SoundDuration":72857,"Delta":36038852},{"NoteNumber":55,"Velocity":51,"Duration":72857,"SoundDuration":72857,"Delta":36135996},{"NoteNumber":60,"Velocity":75,"Duration":46638,"SoundDuration":46638,"Delta":36233140},{"NoteNumber":67,"Velocity":66,"Duration":69958,"SoundDuration":69958,"Delta":36326418},{"NoteNumber":76,"Velocity":66,"Duration":67938,"SoundDuration":67938,"Delta":36419696},{"NoteNumber":72,"Velocity":56,"Duration":67938,"SoundDuration":67938,"Delta":36419696},{"NoteNumber":84,"Velocity":59,"Duration":67938,"SoundDuration":67938,"Delta":36510281},{"NoteNumber":61,"Velocity":71,"Duration":48067,"SoundDuration":48067,"Delta":36600866},{"NoteNumber":88,"Velocity":71,"Duration":53732,"SoundDuration":53732,"Delta":36793137},{"NoteNumber":79,"Velocity":60,"Duration":53732,"SoundDuration":53732,"Delta":36793137},{"NoteNumber":76,"Velocity":60,"Duration":53732,"SoundDuration":53732,"Delta":36793137},{"NoteNumber":69,"Velocity":51,"Duration":53732,"SoundDuration":53732,"Delta":36793137},{"NoteNumber":61,"Velocity":51,"Duration":53732,"SoundDuration":53732,"Delta":36793137},{"NoteNumber":62,"Velocity":77,"Duration":46485,"SoundDuration":46485,"Delta":37008067},{"NoteNumber":69,"Velocity":68,"Duration":69728,"SoundDuration":69728,"Delta":37101038},{"NoteNumber":74,"Velocity":63,"Duration":67722,"SoundDuration":67722,"Delta":37194010},{"NoteNumber":78,"Velocity":63,"Duration":67722,"SoundDuration":67722,"Delta":37194010},{"NoteNumber":86,"Velocity":68,"Duration":67722,"SoundDuration":67722,"Delta":37284306},{"NoteNumber":63,"Velocity":74,"Duration":48231,"SoundDuration":48231,"Delta":37374602},{"NoteNumber":90,"Velocity":73,"Duration":52531,"SoundDuration":52531,"Delta":37567528},{"NoteNumber":81,"Velocity":62,"Duration":52531,"SoundDuration":52531,"Delta":37567528},{"NoteNumber":78,"Velocity":62,"Duration":52531,"SoundDuration":52531,"Delta":37567528},{"NoteNumber":71,"Velocity":53,"Duration":52531,"SoundDuration":52531,"Delta":37567528},{"NoteNumber":63,"Velocity":53,"Duration":52531,"SoundDuration":52531,"Delta":37567528},{"NoteNumber":64,"Velocity":80,"Duration":46485,"SoundDuration":46485,"Delta":37777656},{"NoteNumber":71,"Velocity":71,"Duration":69728,"SoundDuration":69728,"Delta":37870627},{"NoteNumber":76,"Velocity":65,"Duration":67722,"SoundDuration":67722,"Delta":37963599},{"NoteNumber":79,"Velocity":59,"Duration":67722,"SoundDuration":67722,"Delta":38053895},{"NoteNumber":88,"Velocity":70,"Duration":67722,"SoundDuration":67722,"Delta":38053895},{"NoteNumber":66,"Velocity":77,"Duration":48231,"SoundDuration":48231,"Delta":38144191},{"NoteNumber":90,"Velocity":76,"Duration":52531,"SoundDuration":52531,"Delta":38337117},{"NoteNumber":81,"Velocity":64,"Duration":52531,"SoundDuration":52531,"Delta":38337117},{"NoteNumber":78,"Velocity":64,"Duration":52531,"SoundDuration":52531,"Delta":38337117},{"NoteNumber":74,"Velocity":54,"Duration":52531,"SoundDuration":52531,"Delta":38337117},{"NoteNumber":69,"Velocity":54,"Duration":52531,"SoundDuration":52531,"Delta":38337117},{"NoteNumber":67,"Velocity":78,"Duration":48231,"SoundDuration":48231,"Delta":38547245},{"NoteNumber":91,"Velocity":78,"Duration":52531,"SoundDuration":52531,"Delta":38740171},{"NoteNumber":83,"Velocity":65,"Duration":52531,"SoundDuration":52531,"Delta":38740171},{"NoteNumber":79,"Velocity":65,"Duration":52531,"SoundDuration":52531,"Delta":38740171},{"NoteNumber":74,"Velocity":55,"Duration":52531,"SoundDuration":52531,"Delta":38740171},{"NoteNumber":71,"Velocity":55,"Duration":52531,"SoundDuration":52531,"Delta":38740171},{"NoteNumber":69,"Velocity":80,"Duration":47169,"SoundDuration":47169,"Delta":38950299},{"NoteNumber":93,"Velocity":79,"Duration":54151,"SoundDuration":54151,"Delta":39138978},{"NoteNumber":86,"Velocity":67,"Duration":54151,"SoundDuration":54151,"Delta":39138978},{"NoteNumber":81,"Velocity":67,"Duration":54151,"SoundDuration":54151,"Delta":39138978},{"NoteNumber":78,"Velocity":56,"Duration":54151,"SoundDuration":54151,"Delta":39138978},{"NoteNumber":74,"Velocity":56,"Duration":54151,"SoundDuration":54151,"Delta":39138978},{"NoteNumber":71,"Velocity":81,"Duration":48231,"SoundDuration":48231,"Delta":39355585},{"NoteNumber":95,"Velocity":81,"Duration":52531,"SoundDuration":52531,"Delta":39548511},{"NoteNumber":86,"Velocity":68,"Duration":52531,"SoundDuration":52531,"Delta":39548511},{"NoteNumber":83,"Velocity":68,"Duration":52531,"SoundDuration":52531,"Delta":39548511},{"NoteNumber":79,"Velocity":57,"Duration":52531,"SoundDuration":52531,"Delta":39548511},{"NoteNumber":74,"Velocity":57,"Duration":52531,"SoundDuration":52531,"Delta":39548511},{"NoteNumber":72,"Velocity":83,"Duration":48231,"SoundDuration":48231,"Delta":39758639},{"NoteNumber":96,"Velocity":82,"Duration":52531,"SoundDuration":52531,"Delta":39951565},{"NoteNumber":88,"Velocity":69,"Duration":52531,"SoundDuration":52531,"Delta":39951565},{"NoteNumber":84,"Velocity":69,"Duration":52531,"SoundDuration":52531,"Delta":39951565},{"NoteNumber":79,"Velocity":59,"Duration":52531,"SoundDuration":52531,"Delta":39951565},{"NoteNumber":76,"Velocity":59,"Duration":52531,"SoundDuration":52531,"Delta":39951565},{"NoteNumber":73,"Velocity":77,"Duration":70042,"SoundDuration":70042,"Delta":40161693},{"NoteNumber":79,"Velocity":79,"Duration":70042,"SoundDuration":70042,"Delta":40231735},{"NoteNumber":82,"Velocity":81,"Duration":70042,"SoundDuration":70042,"Delta":40301778},{"NoteNumber":88,"Velocity":82,"Duration":70042,"SoundDuration":70042,"Delta":40371821},{"NoteNumber":94,"Velocity":84,"Duration":70042,"SoundDuration":70042,"Delta":40441863},{"NoteNumber":100,"Velocity":86,"Duration":70042,"SoundDuration":70042,"Delta":40511906},{"NoteNumber":103,"Velocity":96,"Duration":57212,"SoundDuration":57212,"Delta":40581949},{"NoteNumber":61,"Velocity":84,"Duration":57212,"SoundDuration":57212,"Delta":40810799},{"NoteNumber":62,"Velocity":84,"Duration":46638,"SoundDuration":46638,"Delta":41039650},{"NoteNumber":86,"Velocity":77,"Duration":46638,"SoundDuration":46638,"Delta":41164020},{"NoteNumber":83,"Velocity":77,"Duration":46638,"SoundDuration":46638,"Delta":41164020},{"NoteNumber":84,"Velocity":75,"Duration":45004,"SoundDuration":45004,"Delta":41286021},{"NoteNumber":81,"Velocity":75,"Duration":45004,"SoundDuration":45004,"Delta":41286021},{"NoteNumber":83,"Velocity":74,"Duration":45292,"SoundDuration":45292,"Delta":41406225},{"NoteNumber":79,"Velocity":74,"Duration":45292,"SoundDuration":45292,"Delta":41406225},{"NoteNumber":59,"Velocity":74,"Duration":45292,"SoundDuration":45292,"Delta":41406225},{"NoteNumber":81,"Velocity":72,"Duration":45584,"SoundDuration":45584,"Delta":41527199},{"NoteNumber":78,"Velocity":72,"Duration":45584,"SoundDuration":45584,"Delta":41527199},{"NoteNumber":60,"Velocity":71,"Duration":45584,"SoundDuration":45584,"Delta":41527199},{"NoteNumber":79,"Velocity":71,"Duration":45932,"SoundDuration":45932,"Delta":41648954},{"NoteNumber":76,"Velocity":71,"Duration":45932,"SoundDuration":45932,"Delta":41648954},{"NoteNumber":61,"Velocity":68,"Duration":45932,"SoundDuration":45932,"Delta":41648954},{"NoteNumber":74,"Velocity":69,"Duration":46232,"SoundDuration":46232,"Delta":41771706},{"NoteNumber":78,"Velocity":69,"Duration":46232,"SoundDuration":46232,"Delta":41771706},{"NoteNumber":62,"Velocity":65,"Duration":92566,"SoundDuration":92566,"Delta":41771706},{"NoteNumber":72,"Velocity":67,"Duration":46536,"SoundDuration":46536,"Delta":41895263},{"NoteNumber":76,"Velocity":67,"Duration":46536,"SoundDuration":46536,"Delta":41895263},{"NoteNumber":71,"Velocity":66,"Duration":46948,"SoundDuration":46948,"Delta":42019737},{"NoteNumber":74,"Velocity":66,"Duration":46948,"SoundDuration":46948,"Delta":42019737},{"NoteNumber":69,"Velocity":64,"Duration":47262,"SoundDuration":47262,"Delta":42145141},{"NoteNumber":72,"Velocity":64,"Duration":47262,"SoundDuration":47262,"Delta":42145141},{"NoteNumber":74,"Velocity":69,"Duration":94629,"SoundDuration":94629,"Delta":42145141},{"NoteNumber":67,"Velocity":62,"Duration":47633,"SoundDuration":47633,"Delta":42271490},{"NoteNumber":71,"Velocity":62,"Duration":47633,"SoundDuration":47633,"Delta":42271490},{"NoteNumber":66,"Velocity":61,"Duration":47959,"SoundDuration":47959,"Delta":42398800},{"NoteNumber":69,"Velocity":61,"Duration":47959,"SoundDuration":47959,"Delta":42398800},{"NoteNumber":55,"Velocity":53,"Duration":46182,"SoundDuration":46182,"Delta":42526981},{"NoteNumber":62,"Velocity":46,"Duration":69273,"SoundDuration":69273,"Delta":42619346},{"NoteNumber":71,"Velocity":42,"Duration":69273,"SoundDuration":69273,"Delta":42711710},{"NoteNumber":79,"Velocity":46,"Duration":69273,"SoundDuration":69273,"Delta":42804075},{"NoteNumber":79,"Velocity":55,"Duration":46182,"SoundDuration":46182,"Delta":42896439},{"NoteNumber":71,"Velocity":46,"Duration":69273,"SoundDuration":69273,"Delta":42988804},{"NoteNumber":62,"Velocity":45,"Duration":71130,"SoundDuration":71130,"Delta":43081168},{"NoteNumber":55,"Velocity":42,"Duration":71130,"SoundDuration":71130,"Delta":43176009},{"NoteNumber":55,"Velocity":51,"Duration":46638,"SoundDuration":46638,"Delta":43270850},{"NoteNumber":63,"Velocity":46,"Duration":69958,"SoundDuration":69958,"Delta":43364128},{"NoteNumber":72,"Velocity":48,"Duration":68597,"SoundDuration":68597,"Delta":43457405},{"NoteNumber":78,"Velocity":50,"Duration":68597,"SoundDuration":68597,"Delta":43548869},{"NoteNumber":78,"Velocity":59,"Duration":45731,"SoundDuration":45731,"Delta":43640332},{"NoteNumber":72,"Velocity":54,"Duration":68597,"SoundDuration":68597,"Delta":43731796},{"NoteNumber":63,"Velocity":49,"Duration":70696,"SoundDuration":70696,"Delta":43823259},{"NoteNumber":55,"Velocity":42,"Duration":70696,"SoundDuration":70696,"Delta":43917522},{"NoteNumber":55,"Velocity":78,"Duration":93277,"SoundDuration":93277,"Delta":44011784},{"NoteNumber":86,"Velocity":74,"Duration":46638,"SoundDuration":46638,"Delta":44136155},{"NoteNumber":83,"Velocity":74,"Duration":46638,"SoundDuration":46638,"Delta":44136155},{"NoteNumber":84,"Velocity":72,"Duration":45004,"SoundDuration":45004,"Delta":44258156},{"NoteNumber":81,"Velocity":72,"Duration":45004,"SoundDuration":45004,"Delta":44258156},{"NoteNumber":83,"Velocity":71,"Duration":45292,"SoundDuration":45292,"Delta":44378359},{"NoteNumber":79,"Velocity":71,"Duration":45292,"SoundDuration":45292,"Delta":44378359},{"NoteNumber":59,"Velocity":71,"Duration":45292,"SoundDuration":45292,"Delta":44378359},{"NoteNumber":81,"Velocity":69,"Duration":45584,"SoundDuration":45584,"Delta":44499333},{"NoteNumber":78,"Velocity":69,"Duration":45584,"SoundDuration":45584,"Delta":44499333},{"NoteNumber":60,"Velocity":68,"Duration":45584,"SoundDuration":45584,"Delta":44499333},{"NoteNumber":79,"Velocity":68,"Duration":45932,"SoundDuration":45932,"Delta":44621088},{"NoteNumber":76,"Velocity":68,"Duration":45932,"SoundDuration":45932,"Delta":44621088},{"NoteNumber":61,"Velocity":65,"Duration":45932,"SoundDuration":45932,"Delta":44621088},{"NoteNumber":74,"Velocity":66,"Duration":46232,"SoundDuration":46232,"Delta":44743841},{"NoteNumber":78,"Velocity":66,"Duration":46232,"SoundDuration":46232,"Delta":44743841},{"NoteNumber":62,"Velocity":63,"Duration":92566,"SoundDuration":92566,"Delta":44743841},{"NoteNumber":72,"Velocity":64,"Duration":46536,"SoundDuration":46536,"Delta":44867397},{"NoteNumber":76,"Velocity":64,"Duration":46536,"SoundDuration":46536,"Delta":44867397},{"NoteNumber":71,"Velocity":64,"Duration":46948,"SoundDuration":46948,"Delta":44991871},{"NoteNumber":74,"Velocity":64,"Duration":46948,"SoundDuration":46948,"Delta":44991871},{"NoteNumber":69,"Velocity":62,"Duration":47262,"SoundDuration":47262,"Delta":45117275},{"NoteNumber":72,"Velocity":62,"Duration":47262,"SoundDuration":47262,"Delta":45117275},{"NoteNumber":74,"Velocity":66,"Duration":94629,"SoundDuration":94629,"Delta":45117275},{"NoteNumber":67,"Velocity":60,"Duration":47633,"SoundDuration":47633,"Delta":45243625},{"NoteNumber":71,"Velocity":60,"Duration":47633,"SoundDuration":47633,"Delta":45243625},{"NoteNumber":66,"Velocity":59,"Duration":47959,"SoundDuration":47959,"Delta":45370935},{"NoteNumber":69,"Velocity":59,"Duration":47959,"SoundDuration":47959,"Delta":45370935},{"NoteNumber":55,"Velocity":53,"Duration":46182,"SoundDuration":46182,"Delta":45499116},{"NoteNumber":62,"Velocity":46,"Duration":69273,"SoundDuration":69273,"Delta":45591481},{"NoteNumber":71,"Velocity":42,"Duration":69273,"SoundDuration":69273,"Delta":45683845},{"NoteNumber":79,"Velocity":46,"Duration":69273,"SoundDuration":69273,"Delta":45776210},{"NoteNumber":79,"Velocity":59,"Duration":46182,"SoundDuration":46182,"Delta":45868574},{"NoteNumber":71,"Velocity":46,"Duration":69273,"SoundDuration":69273,"Delta":45960939},{"NoteNumber":62,"Velocity":39,"Duration":71130,"SoundDuration":71130,"Delta":46053303},{"NoteNumber":55,"Velocity":37,"Duration":71130,"SoundDuration":71130,"Delta":46148144},{"NoteNumber":55,"Velocity":51,"Duration":46638,"SoundDuration":46638,"Delta":46242985},{"NoteNumber":63,"Velocity":46,"Duration":69958,"SoundDuration":69958,"Delta":46336262},{"NoteNumber":72,"Velocity":48,"Duration":68597,"SoundDuration":68597,"Delta":46429540},{"NoteNumber":78,"Velocity":50,"Duration":68597,"SoundDuration":68597,"Delta":46521004},{"NoteNumber":78,"Velocity":59,"Duration":45731,"SoundDuration":45731,"Delta":46612467},{"NoteNumber":72,"Velocity":54,"Duration":68597,"SoundDuration":68597,"Delta":46703931},{"NoteNumber":63,"Velocity":49,"Duration":70696,"SoundDuration":70696,"Delta":46795394},{"NoteNumber":55,"Velocity":43,"Duration":70696,"SoundDuration":70696,"Delta":46889657},{"NoteNumber":55,"Velocity":78,"Duration":103092,"SoundDuration":103092,"Delta":46983919},{"NoteNumber":86,"Velocity":74,"Duration":51546,"SoundDuration":51546,"Delta":47121376},{"NoteNumber":83,"Velocity":74,"Duration":51546,"SoundDuration":51546,"Delta":47121376},{"NoteNumber":84,"Velocity":72,"Duration":44161,"SoundDuration":44161,"Delta":47248499},{"NoteNumber":81,"Velocity":72,"Duration":44161,"SoundDuration":44161,"Delta":47248499},{"NoteNumber":83,"Velocity":71,"Duration":44955,"SoundDuration":44955,"Delta":47366845},{"NoteNumber":79,"Velocity":71,"Duration":44955,"SoundDuration":44955,"Delta":47366845},{"NoteNumber":59,"Velocity":71,"Duration":44955,"SoundDuration":44955,"Delta":47366845},{"NoteNumber":81,"Velocity":69,"Duration":45584,"SoundDuration":45584,"Delta":47487238},{"NoteNumber":78,"Velocity":69,"Duration":45584,"SoundDuration":45584,"Delta":47487238},{"NoteNumber":60,"Velocity":68,"Duration":45584,"SoundDuration":45584,"Delta":47487238},{"NoteNumber":79,"Velocity":68,"Duration":45932,"SoundDuration":45932,"Delta":47608992},{"NoteNumber":76,"Velocity":68,"Duration":45932,"SoundDuration":45932,"Delta":47608992},{"NoteNumber":61,"Velocity":65,"Duration":45932,"SoundDuration":45932,"Delta":47608992},{"NoteNumber":74,"Velocity":66,"Duration":46232,"SoundDuration":46232,"Delta":47731745},{"NoteNumber":78,"Velocity":66,"Duration":46232,"SoundDuration":46232,"Delta":47731745},{"NoteNumber":62,"Velocity":63,"Duration":92566,"SoundDuration":92566,"Delta":47731745},{"NoteNumber":72,"Velocity":64,"Duration":46536,"SoundDuration":46536,"Delta":47855302},{"NoteNumber":76,"Velocity":64,"Duration":46536,"SoundDuration":46536,"Delta":47855302},{"NoteNumber":71,"Velocity":64,"Duration":46948,"SoundDuration":46948,"Delta":47979776},{"NoteNumber":74,"Velocity":64,"Duration":46948,"SoundDuration":46948,"Delta":47979776},{"NoteNumber":69,"Velocity":62,"Duration":47262,"SoundDuration":47262,"Delta":48105180},{"NoteNumber":72,"Velocity":62,"Duration":47262,"SoundDuration":47262,"Delta":48105180},{"NoteNumber":74,"Velocity":66,"Duration":94629,"SoundDuration":94629,"Delta":48105180},{"NoteNumber":67,"Velocity":60,"Duration":47633,"SoundDuration":47633,"Delta":48231529},{"NoteNumber":71,"Velocity":60,"Duration":47633,"SoundDuration":47633,"Delta":48231529},{"NoteNumber":66,"Velocity":59,"Duration":47959,"SoundDuration":47959,"Delta":48358839},{"NoteNumber":69,"Velocity":59,"Duration":47959,"SoundDuration":47959,"Delta":48358839},{"NoteNumber":55,"Velocity":53,"Duration":46182,"SoundDuration":46182,"Delta":48487020},{"NoteNumber":62,"Velocity":46,"Duration":69273,"SoundDuration":69273,"Delta":48579385},{"NoteNumber":71,"Velocity":46,"Duration":69273,"SoundDuration":69273,"Delta":48671749},{"NoteNumber":79,"Velocity":39,"Duration":69273,"SoundDuration":69273,"Delta":48764114},{"NoteNumber":79,"Velocity":56,"Duration":46182,"SoundDuration":46182,"Delta":48856478},{"NoteNumber":71,"Velocity":46,"Duration":69273,"SoundDuration":69273,"Delta":48948843},{"NoteNumber":62,"Velocity":41,"Duration":71130,"SoundDuration":71130,"Delta":49041207},{"NoteNumber":55,"Velocity":34,"Duration":71130,"SoundDuration":71130,"Delta":49136048},{"NoteNumber":55,"Velocity":51,"Duration":46638,"SoundDuration":46638,"Delta":49230889},{"NoteNumber":62,"Velocity":46,"Duration":69958,"SoundDuration":69958,"Delta":49324167},{"NoteNumber":70,"Velocity":48,"Duration":68597,"SoundDuration":68597,"Delta":49417444},{"NoteNumber":79,"Velocity":50,"Duration":68597,"SoundDuration":68597,"Delta":49508908},{"NoteNumber":79,"Velocity":59,"Duration":45731,"SoundDuration":45731,"Delta":49600371},{"NoteNumber":70,"Velocity":54,"Duration":68597,"SoundDuration":68597,"Delta":49691835},{"NoteNumber":62,"Velocity":51,"Duration":70696,"SoundDuration":70696,"Delta":49783298},{"NoteNumber":55,"Velocity":49,"Duration":257498,"SoundDuration":257498,"Delta":49877561},{"NoteNumber":63,"Velocity":76,"Duration":93277,"SoundDuration":93277,"Delta":49971823},{"NoteNumber":85,"Velocity":70,"Duration":46638,"SoundDuration":46638,"Delta":50096194},{"NoteNumber":82,"Velocity":70,"Duration":46638,"SoundDuration":46638,"Delta":50096194},{"NoteNumber":84,"Velocity":69,"Duration":45454,"SoundDuration":45454,"Delta":50218985},{"NoteNumber":80,"Velocity":69,"Duration":45454,"SoundDuration":45454,"Delta":50218985},{"NoteNumber":82,"Velocity":67,"Duration":45592,"SoundDuration":45592,"Delta":50340381},{"NoteNumber":79,"Velocity":67,"Duration":45592,"SoundDuration":45592,"Delta":50340381},{"NoteNumber":58,"Velocity":68,"Duration":45592,"SoundDuration":45592,"Delta":50340381},{"NoteNumber":79,"Velocity":66,"Duration":45731,"SoundDuration":45731,"Delta":50462147},{"NoteNumber":82,"Velocity":66,"Duration":45731,"SoundDuration":45731,"Delta":50462147},{"NoteNumber":61,"Velocity":66,"Duration":45731,"SoundDuration":45731,"Delta":50462147},{"NoteNumber":77,"Velocity":64,"Duration":45871,"SoundDuration":45871,"Delta":50584285},{"NoteNumber":80,"Velocity":64,"Duration":45871,"SoundDuration":45871,"Delta":50584285},{"NoteNumber":62,"Velocity":65,"Duration":45871,"SoundDuration":45871,"Delta":50584285},{"NoteNumber":75,"Velocity":63,"Duration":46059,"SoundDuration":46059,"Delta":50706796},{"NoteNumber":79,"Velocity":63,"Duration":46059,"SoundDuration":46059,"Delta":50706796},{"NoteNumber":63,"Velocity":63,"Duration":92213,"SoundDuration":92213,"Delta":50706796},{"NoteNumber":73,"Velocity":61,"Duration":46536,"SoundDuration":46536,"Delta":50830000},{"NoteNumber":77,"Velocity":61,"Duration":46536,"SoundDuration":46536,"Delta":50830000},{"NoteNumber":72,"Velocity":60,"Duration":46948,"SoundDuration":46948,"Delta":50954474},{"NoteNumber":75,"Velocity":60,"Duration":46948,"SoundDuration":46948,"Delta":50954474},{"NoteNumber":70,"Velocity":59,"Duration":47262,"SoundDuration":47262,"Delta":51079878},{"NoteNumber":73,"Velocity":59,"Duration":47262,"SoundDuration":47262,"Delta":51079878},{"NoteNumber":75,"Velocity":65,"Duration":94629,"SoundDuration":94629,"Delta":51079878},{"NoteNumber":68,"Velocity":57,"Duration":47633,"SoundDuration":47633,"Delta":51206227},{"NoteNumber":72,"Velocity":57,"Duration":47633,"SoundDuration":47633,"Delta":51206227},{"NoteNumber":67,"Velocity":61,"Duration":47959,"SoundDuration":47959,"Delta":51333538},{"NoteNumber":70,"Velocity":61,"Duration":47959,"SoundDuration":47959,"Delta":51333538},{"NoteNumber":56,"Velocity":53,"Duration":46182,"SoundDuration":46182,"Delta":51461719},{"NoteNumber":63,"Velocity":46,"Duration":69273,"SoundDuration":69273,"Delta":51554083},{"NoteNumber":72,"Velocity":46,"Duration":69273,"SoundDuration":69273,"Delta":51646448},{"NoteNumber":80,"Velocity":42,"Duration":69273,"SoundDuration":69273,"Delta":51738812},{"NoteNumber":80,"Velocity":50,"Duration":46182,"SoundDuration":46182,"Delta":51831177},{"NoteNumber":72,"Velocity":46,"Duration":69273,"SoundDuration":69273,"Delta":51923541},{"NoteNumber":63,"Velocity":42,"Duration":71130,"SoundDuration":71130,"Delta":52015906},{"NoteNumber":56,"Velocity":37,"Duration":71130,"SoundDuration":71130,"Delta":52110747},{"NoteNumber":56,"Velocity":51,"Duration":46638,"SoundDuration":46638,"Delta":52205587},{"NoteNumber":63,"Velocity":46,"Duration":69958,"SoundDuration":69958,"Delta":52298865},{"NoteNumber":71,"Velocity":48,"Duration":68597,"SoundDuration":68597,"Delta":52392143},{"NoteNumber":80,"Velocity":45,"Duration":68597,"SoundDuration":68597,"Delta":52483606},{"NoteNumber":80,"Velocity":59,"Duration":45731,"SoundDuration":45731,"Delta":52575070},{"NoteNumber":71,"Velocity":54,"Duration":68597,"SoundDuration":68597,"Delta":52666533},{"NoteNumber":63,"Velocity":49,"Duration":70696,"SoundDuration":70696,"Delta":52757997},{"NoteNumber":56,"Velocity":47,"Duration":257498,"SoundDuration":257498,"Delta":52852259},{"NoteNumber":64,"Velocity":76,"Duration":93277,"SoundDuration":93277,"Delta":52946522},{"NoteNumber":86,"Velocity":70,"Duration":46638,"SoundDuration":46638,"Delta":53070892},{"NoteNumber":83,"Velocity":70,"Duration":46638,"SoundDuration":46638,"Delta":53070892},{"NoteNumber":85,"Velocity":69,"Duration":45004,"SoundDuration":45004,"Delta":53192893},{"NoteNumber":81,"Velocity":69,"Duration":45004,"SoundDuration":45004,"Delta":53192893},{"NoteNumber":83,"Velocity":67,"Duration":45292,"SoundDuration":45292,"Delta":53313097},{"NoteNumber":80,"Velocity":67,"Duration":45292,"SoundDuration":45292,"Delta":53313097},{"NoteNumber":59,"Velocity":68,"Duration":45292,"SoundDuration":45292,"Delta":53313097},{"NoteNumber":80,"Velocity":66,"Duration":45584,"SoundDuration":45584,"Delta":53434071},{"NoteNumber":83,"Velocity":66,"Duration":45584,"SoundDuration":45584,"Delta":53434071},{"NoteNumber":62,"Velocity":66,"Duration":45584,"SoundDuration":45584,"Delta":53434071},{"NoteNumber":78,"Velocity":64,"Duration":45932,"SoundDuration":45932,"Delta":53555826},{"NoteNumber":81,"Velocity":64,"Duration":45932,"SoundDuration":45932,"Delta":53555826},{"NoteNumber":63,"Velocity":65,"Duration":45932,"SoundDuration":45932,"Delta":53555826},{"NoteNumber":76,"Velocity":63,"Duration":46232,"SoundDuration":46232,"Delta":53678578},{"NoteNumber":80,"Velocity":63,"Duration":46232,"SoundDuration":46232,"Delta":53678578},{"NoteNumber":64,"Velocity":63,"Duration":92566,"SoundDuration":92566,"Delta":53678578},{"NoteNumber":74,"Velocity":61,"Duration":46536,"SoundDuration":46536,"Delta":53802135},{"NoteNumber":78,"Velocity":61,"Duration":46536,"SoundDuration":46536,"Delta":53802135},{"NoteNumber":73,"Velocity":60,"Duration":46948,"SoundDuration":46948,"Delta":53926609},{"NoteNumber":76,"Velocity":60,"Duration":46948,"SoundDuration":46948,"Delta":53926609},{"NoteNumber":71,"Velocity":59,"Duration":47262,"SoundDuration":47262,"Delta":54052013},{"NoteNumber":74,"Velocity":59,"Duration":47262,"SoundDuration":47262,"Delta":54052013},{"NoteNumber":76,"Velocity":65,"Duration":94629,"SoundDuration":94629,"Delta":54052013},{"NoteNumber":69,"Velocity":57,"Duration":47633,"SoundDuration":47633,"Delta":54178362},{"NoteNumber":73,"Velocity":57,"Duration":47633,"SoundDuration":47633,"Delta":54178362},{"NoteNumber":68,"Velocity":61,"Duration":47959,"SoundDuration":47959,"Delta":54305672},{"NoteNumber":71,"Velocity":61,"Duration":47959,"SoundDuration":47959,"Delta":54305672},{"NoteNumber":57,"Velocity":53,"Duration":46182,"SoundDuration":46182,"Delta":54433853},{"NoteNumber":64,"Velocity":46,"Duration":69273,"SoundDuration":69273,"Delta":54526218},{"NoteNumber":73,"Velocity":42,"Duration":69273,"SoundDuration":69273,"Delta":54618582},{"NoteNumber":81,"Velocity":46,"Duration":69273,"SoundDuration":69273,"Delta":54710947},{"NoteNumber":81,"Velocity":56,"Duration":46182,"SoundDuration":46182,"Delta":54803311},{"NoteNumber":73,"Velocity":46,"Duration":69273,"SoundDuration":69273,"Delta":54895676},{"NoteNumber":64,"Velocity":43,"Duration":71130,"SoundDuration":71130,"Delta":54988040},{"NoteNumber":57,"Velocity":38,"Duration":71130,"SoundDuration":71130,"Delta":55082881},{"NoteNumber":57,"Velocity":51,"Duration":46638,"SoundDuration":46638,"Delta":55177722},{"NoteNumber":64,"Velocity":46,"Duration":69958,"SoundDuration":69958,"Delta":55271000},{"NoteNumber":72,"Velocity":48,"Duration":68597,"SoundDuration":68597,"Delta":55364277},{"NoteNumber":81,"Velocity":50,"Duration":68597,"SoundDuration":68597,"Delta":55455741},{"NoteNumber":81,"Velocity":59,"Duration":45731,"SoundDuration":45731,"Delta":55547204},{"NoteNumber":72,"Velocity":54,"Duration":68597,"SoundDuration":68597,"Delta":55638668},{"NoteNumber":64,"Velocity":51,"Duration":74750,"SoundDuration":74750,"Delta":55730131},{"NoteNumber":57,"Velocity":48,"Duration":266865,"SoundDuration":266865,"Delta":55829799},{"NoteNumber":65,"Velocity":78,"Duration":95541,"SoundDuration":95541,"Delta":55929467},{"NoteNumber":87,"Velocity":70,"Duration":47770,"SoundDuration":47770,"Delta":56056856},{"NoteNumber":84,"Velocity":70,"Duration":47770,"SoundDuration":47770,"Delta":56056856},{"NoteNumber":86,"Velocity":69,"Duration":45004,"SoundDuration":45004,"Delta":56180366},{"NoteNumber":82,"Velocity":69,"Duration":45004,"SoundDuration":45004,"Delta":56180366},{"NoteNumber":84,"Velocity":67,"Duration":45292,"SoundDuration":45292,"Delta":56300569},{"NoteNumber":81,"Velocity":67,"Duration":45292,"SoundDuration":45292,"Delta":56300569},{"NoteNumber":60,"Velocity":68,"Duration":45292,"SoundDuration":45292,"Delta":56300569},{"NoteNumber":81,"Velocity":66,"Duration":45584,"SoundDuration":45584,"Delta":56421543},{"NoteNumber":84,"Velocity":66,"Duration":45584,"SoundDuration":45584,"Delta":56421543},{"NoteNumber":63,"Velocity":66,"Duration":45584,"SoundDuration":45584,"Delta":56421543},{"NoteNumber":79,"Velocity":64,"Duration":45932,"SoundDuration":45932,"Delta":56543298},{"NoteNumber":82,"Velocity":64,"Duration":45932,"SoundDuration":45932,"Delta":56543298},{"NoteNumber":64,"Velocity":65,"Duration":45932,"SoundDuration":45932,"Delta":56543298},{"NoteNumber":77,"Velocity":63,"Duration":46232,"SoundDuration":46232,"Delta":56666051},{"NoteNumber":81,"Velocity":63,"Duration":46232,"SoundDuration":46232,"Delta":56666051},{"NoteNumber":65,"Velocity":63,"Duration":92566,"SoundDuration":92566,"Delta":56666051},{"NoteNumber":75,"Velocity":61,"Duration":46536,"SoundDuration":46536,"Delta":56789608},{"NoteNumber":79,"Velocity":61,"Duration":46536,"SoundDuration":46536,"Delta":56789608},{"NoteNumber":74,"Velocity":60,"Duration":46948,"SoundDuration":46948,"Delta":56914081},{"NoteNumber":77,"Velocity":60,"Duration":46948,"SoundDuration":46948,"Delta":56914081},{"NoteNumber":72,"Velocity":59,"Duration":47262,"SoundDuration":47262,"Delta":57039485},{"NoteNumber":75,"Velocity":59,"Duration":47262,"SoundDuration":47262,"Delta":57039485},{"NoteNumber":77,"Velocity":65,"Duration":94629,"SoundDuration":94629,"Delta":57039485},{"NoteNumber":70,"Velocity":57,"Duration":47633,"SoundDuration":47633,"Delta":57165835},{"NoteNumber":74,"Velocity":57,"Duration":47633,"SoundDuration":47633,"Delta":57165835},{"NoteNumber":69,"Velocity":61,"Duration":47959,"SoundDuration":47959,"Delta":57293145},{"NoteNumber":72,"Velocity":61,"Duration":47959,"SoundDuration":47959,"Delta":57293145},{"NoteNumber":58,"Velocity":58,"Duration":93277,"SoundDuration":93277,"Delta":57421326},{"NoteNumber":65,"Velocity":51,"Duration":69958,"SoundDuration":69958,"Delta":57514604},{"NoteNumber":74,"Velocity":46,"Duration":67938,"SoundDuration":67938,"Delta":57607882},{"NoteNumber":82,"Velocity":51,"Duration":67938,"SoundDuration":67938,"Delta":57698467},{"NoteNumber":82,"Velocity":58,"Duration":90585,"SoundDuration":90585,"Delta":57789052},{"NoteNumber":74,"Velocity":51,"Duration":67938,"SoundDuration":67938,"Delta":57879637},{"NoteNumber":65,"Velocity":45,"Duration":71229,"SoundDuration":71229,"Delta":57970223},{"NoteNumber":58,"Velocity":41,"Duration":71229,"SoundDuration":71229,"Delta":58065195},{"NoteNumber":58,"Velocity":58,"Duration":92364,"SoundDuration":92364,"Delta":58160168},{"NoteNumber":65,"Velocity":51,"Duration":69273,"SoundDuration":69273,"Delta":58252533},{"NoteNumber":73,"Velocity":46,"Duration":67938,"SoundDuration":67938,"Delta":58344897},{"NoteNumber":82,"Velocity":51,"Duration":67938,"SoundDuration":67938,"Delta":58435482},{"NoteNumber":82,"Velocity":58,"Duration":90585,"SoundDuration":90585,"Delta":58526068},{"NoteNumber":73,"Velocity":51,"Duration":67938,"SoundDuration":67938,"Delta":58616653},{"NoteNumber":65,"Velocity":47,"Duration":73698,"SoundDuration":73698,"Delta":58707238},{"NoteNumber":58,"Velocity":43,"Duration":73698,"SoundDuration":73698,"Delta":58805502},{"NoteNumber":58,"Velocity":58,"Duration":93277,"SoundDuration":93277,"Delta":58903766},{"NoteNumber":66,"Velocity":51,"Duration":69958,"SoundDuration":69958,"Delta":58997044},{"NoteNumber":73,"Velocity":47,"Duration":67938,"SoundDuration":67938,"Delta":59090322},{"NoteNumber":82,"Velocity":51,"Duration":67938,"SoundDuration":67938,"Delta":59180907},{"NoteNumber":82,"Velocity":58,"Duration":90585,"SoundDuration":90585,"Delta":59271492},{"NoteNumber":73,"Velocity":51,"Duration":67938,"SoundDuration":67938,"Delta":59362077},{"NoteNumber":66,"Velocity":49,"Duration":71229,"SoundDuration":71229,"Delta":59452663},{"NoteNumber":58,"Velocity":43,"Duration":71229,"SoundDuration":71229,"Delta":59547635},{"NoteNumber":58,"Velocity":58,"Duration":92364,"SoundDuration":92364,"Delta":59642608},{"NoteNumber":66,"Velocity":51,"Duration":69273,"SoundDuration":69273,"Delta":59734973},{"NoteNumber":76,"Velocity":48,"Duration":67938,"SoundDuration":67938,"Delta":59827337},{"NoteNumber":85,"Velocity":51,"Duration":67938,"SoundDuration":67938,"Delta":59917922},{"NoteNumber":85,"Velocity":58,"Duration":90585,"SoundDuration":90585,"Delta":60008508},{"NoteNumber":76,"Velocity":51,"Duration":67938,"SoundDuration":67938,"Delta":60099093},{"NoteNumber":66,"Velocity":46,"Duration":73698,"SoundDuration":73698,"Delta":60189678},{"NoteNumber":58,"Velocity":42,"Duration":73698,"SoundDuration":73698,"Delta":60287942},{"NoteNumber":59,"Velocity":60,"Duration":93277,"SoundDuration":93277,"Delta":60386206},{"NoteNumber":66,"Velocity":52,"Duration":69958,"SoundDuration":69958,"Delta":60479484},{"NoteNumber":75,"Velocity":49,"Duration":67938,"SoundDuration":67938,"Delta":60572762},{"NoteNumber":83,"Velocity":52,"Duration":67938,"SoundDuration":67938,"Delta":60663347},{"NoteNumber":83,"Velocity":60,"Duration":90585,"SoundDuration":90585,"Delta":60753932},{"NoteNumber":75,"Velocity":53,"Duration":67938,"SoundDuration":67938,"Delta":60844517},{"NoteNumber":66,"Velocity":46,"Duration":71229,"SoundDuration":71229,"Delta":60935103},{"NoteNumber":59,"Velocity":43,"Duration":71229,"SoundDuration":71229,"Delta":61030075},{"NoteNumber":59,"Velocity":62,"Duration":92364,"SoundDuration":92364,"Delta":61125048},{"NoteNumber":66,"Velocity":54,"Duration":69273,"SoundDuration":69273,"Delta":61217413},{"NoteNumber":74,"Velocity":50,"Duration":67938,"SoundDuration":67938,"Delta":61309777},{"NoteNumber":83,"Velocity":55,"Duration":67938,"SoundDuration":67938,"Delta":61400362},{"NoteNumber":83,"Velocity":62,"Duration":90585,"SoundDuration":90585,"Delta":61490948},{"NoteNumber":74,"Velocity":55,"Duration":67938,"SoundDuration":67938,"Delta":61581533},{"NoteNumber":66,"Velocity":50,"Duration":73698,"SoundDuration":73698,"Delta":61672118},{"NoteNumber":59,"Velocity":46,"Duration":73698,"SoundDuration":73698,"Delta":61770382},{"NoteNumber":59,"Velocity":65,"Duration":93277,"SoundDuration":93277,"Delta":61868646},{"NoteNumber":67,"Velocity":56,"Duration":69958,"SoundDuration":69958,"Delta":61961924},{"NoteNumber":74,"Velocity":57,"Duration":67938,"SoundDuration":67938,"Delta":62055202},{"NoteNumber":83,"Velocity":50,"Duration":67938,"SoundDuration":67938,"Delta":62145787},{"NoteNumber":83,"Velocity":69,"Duration":89020,"SoundDuration":89020,"Delta":62236372},{"NoteNumber":74,"Velocity":58,"Duration":66765,"SoundDuration":66765,"Delta":62325393},{"NoteNumber":67,"Velocity":50,"Duration":71229,"SoundDuration":71229,"Delta":62414414},{"NoteNumber":59,"Velocity":46,"Duration":71229,"SoundDuration":71229,"Delta":62509386},{"NoteNumber":59,"Velocity":67,"Duration":92364,"SoundDuration":92364,"Delta":62604359},{"NoteNumber":67,"Velocity":59,"Duration":69273,"SoundDuration":69273,"Delta":62696724},{"NoteNumber":77,"Velocity":53,"Duration":67938,"SoundDuration":67938,"Delta":62789088},{"NoteNumber":86,"Velocity":59,"Duration":67938,"SoundDuration":67938,"Delta":62879673},{"NoteNumber":86,"Velocity":70,"Duration":89020,"SoundDuration":89020,"Delta":62970259},{"NoteNumber":77,"Velocity":59,"Duration":66765,"SoundDuration":66765,"Delta":63059279},{"NoteNumber":67,"Velocity":53,"Duration":73698,"SoundDuration":73698,"Delta":63148300},{"NoteNumber":59,"Velocity":48,"Duration":73698,"SoundDuration":73698,"Delta":63246564},{"NoteNumber":60,"Velocity":69,"Duration":93277,"SoundDuration":93277,"Delta":63344828},{"NoteNumber":67,"Velocity":60,"Duration":69958,"SoundDuration":69958,"Delta":63438106},{"NoteNumber":76,"Velocity":60,"Duration":66964,"SoundDuration":66964,"Delta":63531384},{"NoteNumber":84,"Velocity":56,"Duration":66964,"SoundDuration":66964,"Delta":63620669},{"NoteNumber":84,"Velocity":71,"Duration":90361,"SoundDuration":90361,"Delta":63709955},{"NoteNumber":76,"Velocity":62,"Duration":67771,"SoundDuration":67771,"Delta":63800317},{"NoteNumber":67,"Velocity":55,"Duration":71229,"SoundDuration":71229,"Delta":63890678},{"NoteNumber":60,"Velocity":50,"Duration":71229,"SoundDuration":71229,"Delta":63985651},{"NoteNumber":60,"Velocity":72,"Duration":92364,"SoundDuration":92364,"Delta":64080624},{"NoteNumber":67,"Velocity":63,"Duration":69273,"SoundDuration":69273,"Delta":64172988},{"NoteNumber":75,"Velocity":63,"Duration":66964,"SoundDuration":66964,"Delta":64265353},{"NoteNumber":84,"Velocity":58,"Duration":66964,"SoundDuration":66964,"Delta":64354638},{"NoteNumber":84,"Velocity":73,"Duration":90634,"SoundDuration":90634,"Delta":64443924},{"NoteNumber":75,"Velocity":64,"Duration":67975,"SoundDuration":67975,"Delta":64534559},{"NoteNumber":67,"Velocity":61,"Duration":73697,"SoundDuration":73697,"Delta":64625193},{"NoteNumber":60,"Velocity":56,"Duration":73697,"SoundDuration":73697,"Delta":64723457},{"NoteNumber":60,"Velocity":74,"Duration":93277,"SoundDuration":93277,"Delta":64821721},{"NoteNumber":68,"Velocity":64,"Duration":69958,"SoundDuration":69958,"Delta":64914999},{"NoteNumber":75,"Velocity":58,"Duration":67938,"SoundDuration":67938,"Delta":65008277},{"NoteNumber":84,"Velocity":66,"Duration":67938,"SoundDuration":67938,"Delta":65098862},{"NoteNumber":84,"Velocity":76,"Duration":90585,"SoundDuration":90585,"Delta":65189447},{"NoteNumber":75,"Velocity":66,"Duration":67938,"SoundDuration":67938,"Delta":65280032},{"NoteNumber":68,"Velocity":62,"Duration":71229,"SoundDuration":71229,"Delta":65370618},{"NoteNumber":60,"Velocity":56,"Duration":71229,"SoundDuration":71229,"Delta":65465590},{"NoteNumber":60,"Velocity":77,"Duration":46793,"SoundDuration":46793,"Delta":65560563},{"NoteNumber":68,"Velocity":68,"Duration":70189,"SoundDuration":70189,"Delta":65654149},{"NoteNumber":78,"Velocity":63,"Duration":68824,"SoundDuration":68824,"Delta":65747736},{"NoteNumber":87,"Velocity":69,"Duration":68824,"SoundDuration":68824,"Delta":65839501},{"NoteNumber":87,"Velocity":78,"Duration":50113,"SoundDuration":50113,"Delta":65931267},{"NoteNumber":78,"Velocity":69,"Duration":75170,"SoundDuration":75170,"Delta":66031494},{"NoteNumber":68,"Velocity":61,"Duration":107603,"SoundDuration":107603,"Delta":66131721},{"NoteNumber":60,"Velocity":51,"Duration":107603,"SoundDuration":107603,"Delta":66275193},{"NoteNumber":61,"Velocity":58,"Duration":92364,"SoundDuration":92364,"Delta":67127465},{"NoteNumber":65,"Velocity":51,"Duration":69273,"SoundDuration":69273,"Delta":67219830},{"NoteNumber":68,"Velocity":51,"Duration":67938,"SoundDuration":67938,"Delta":67312194},{"NoteNumber":77,"Velocity":45,"Duration":67938,"SoundDuration":67938,"Delta":67402779},{"NoteNumber":73,"Velocity":45,"Duration":67938,"SoundDuration":67938,"Delta":67402779},{"NoteNumber":77,"Velocity":61,"Duration":45292,"SoundDuration":45292,"Delta":67493365},{"NoteNumber":73,"Velocity":61,"Duration":45292,"SoundDuration":45292,"Delta":67493365},{"NoteNumber":68,"Velocity":51,"Duration":67938,"SoundDuration":67938,"Delta":67583950},{"NoteNumber":65,"Velocity":45,"Duration":73697,"SoundDuration":73697,"Delta":67674535},{"NoteNumber":61,"Velocity":40,"Duration":73697,"SoundDuration":73697,"Delta":67772799},{"NoteNumber":60,"Velocity":58,"Duration":93277,"SoundDuration":93277,"Delta":67871063},{"NoteNumber":63,"Velocity":51,"Duration":69958,"SoundDuration":69958,"Delta":67964341},{"NoteNumber":68,"Velocity":51,"Duration":67938,"SoundDuration":67938,"Delta":68057619},{"NoteNumber":75,"Velocity":45,"Duration":67938,"SoundDuration":67938,"Delta":68148204},{"NoteNumber":78,"Velocity":45,"Duration":67938,"SoundDuration":67938,"Delta":68148204},{"NoteNumber":78,"Velocity":62,"Duration":45292,"SoundDuration":45292,"Delta":68238789},{"NoteNumber":75,"Velocity":62,"Duration":45292,"SoundDuration":45292,"Delta":68238789},{"NoteNumber":68,"Velocity":51,"Duration":67938,"SoundDuration":67938,"Delta":68329374},{"NoteNumber":63,"Velocity":44,"Duration":71229,"SoundDuration":71229,"Delta":68419960},{"NoteNumber":60,"Velocity":39,"Duration":71229,"SoundDuration":71229,"Delta":68514932},{"NoteNumber":61,"Velocity":58,"Duration":92364,"SoundDuration":92364,"Delta":68609905},{"NoteNumber":65,"Velocity":51,"Duration":69273,"SoundDuration":69273,"Delta":68702270},{"NoteNumber":68,"Velocity":51,"Duration":66964,"SoundDuration":66964,"Delta":68794634},{"NoteNumber":77,"Velocity":46,"Duration":66964,"SoundDuration":66964,"Delta":68883920},{"NoteNumber":73,"Velocity":46,"Duration":66964,"SoundDuration":66964,"Delta":68883920},{"NoteNumber":77,"Velocity":58,"Duration":44642,"SoundDuration":44642,"Delta":68973206},{"NoteNumber":73,"Velocity":49,"Duration":44642,"SoundDuration":44642,"Delta":68973206},{"NoteNumber":68,"Velocity":51,"Duration":66964,"SoundDuration":66964,"Delta":69062491},{"NoteNumber":65,"Velocity":45,"Duration":77602,"SoundDuration":77602,"Delta":69151777},{"NoteNumber":61,"Velocity":42,"Duration":77602,"SoundDuration":77602,"Delta":69255247},{"NoteNumber":56,"Velocity":58,"Duration":98703,"SoundDuration":98703,"Delta":69358717},{"NoteNumber":63,"Velocity":51,"Duration":74027,"SoundDuration":74027,"Delta":69457420},{"NoteNumber":68,"Velocity":51,"Duration":70991,"SoundDuration":70991,"Delta":69556124},{"NoteNumber":72,"Velocity":46,"Duration":70991,"SoundDuration":70991,"Delta":69650779},{"NoteNumber":80,"Velocity":46,"Duration":70991,"SoundDuration":70991,"Delta":69650779},{"NoteNumber":72,"Velocity":49,"Duration":47327,"SoundDuration":47327,"Delta":69745435},{"NoteNumber":80,"Velocity":58,"Duration":47327,"SoundDuration":47327,"Delta":69745435},{"NoteNumber":68,"Velocity":51,"Duration":70991,"SoundDuration":70991,"Delta":69840090},{"NoteNumber":63,"Velocity":45,"Duration":72594,"SoundDuration":72594,"Delta":69934745},{"NoteNumber":56,"Velocity":40,"Duration":72594,"SoundDuration":72594,"Delta":70031538},{"NoteNumber":61,"Velocity":49,"Duration":93767,"SoundDuration":93767,"Delta":70128331},{"NoteNumber":64,"Velocity":43,"Duration":70325,"SoundDuration":70325,"Delta":70222099},{"NoteNumber":68,"Velocity":43,"Duration":68820,"SoundDuration":68820,"Delta":70315866},{"NoteNumber":76,"Velocity":39,"Duration":68820,"SoundDuration":68820,"Delta":70407626},{"NoteNumber":73,"Velocity":39,"Duration":68820,"SoundDuration":68820,"Delta":70407626},{"NoteNumber":76,"Velocity":49,"Duration":45879,"SoundDuration":45879,"Delta":70499386},{"NoteNumber":73,"Velocity":41,"Duration":45879,"SoundDuration":45879,"Delta":70499386},{"NoteNumber":68,"Velocity":43,"Duration":68820,"SoundDuration":68820,"Delta":70591146},{"NoteNumber":64,"Velocity":37,"Duration":73697,"SoundDuration":73697,"Delta":70682906},{"NoteNumber":61,"Velocity":33,"Duration":73697,"SoundDuration":73697,"Delta":70781170},{"NoteNumber":60,"Velocity":49,"Duration":93277,"SoundDuration":93277,"Delta":70879434},{"NoteNumber":63,"Velocity":43,"Duration":69958,"SoundDuration":69958,"Delta":70972712},{"NoteNumber":68,"Velocity":43,"Duration":67938,"SoundDuration":67938,"Delta":71065990},{"NoteNumber":75,"Velocity":39,"Duration":67938,"SoundDuration":67938,"Delta":71156575},{"NoteNumber":78,"Velocity":39,"Duration":67938,"SoundDuration":67938,"Delta":71156575},{"NoteNumber":75,"Velocity":41,"Duration":45292,"SoundDuration":45292,"Delta":71247160},{"NoteNumber":78,"Velocity":49,"Duration":45292,"SoundDuration":45292,"Delta":71247160},{"NoteNumber":68,"Velocity":43,"Duration":67938,"SoundDuration":67938,"Delta":71337745},{"NoteNumber":63,"Velocity":39,"Duration":71229,"SoundDuration":71229,"Delta":71428331},{"NoteNumber":60,"Velocity":37,"Duration":71229,"SoundDuration":71229,"Delta":71523303},{"NoteNumber":61,"Velocity":49,"Duration":92364,"SoundDuration":92364,"Delta":71618276},{"NoteNumber":64,"Velocity":43,"Duration":69273,"SoundDuration":69273,"Delta":71710641},{"NoteNumber":68,"Velocity":43,"Duration":66765,"SoundDuration":66765,"Delta":71803005},{"NoteNumber":76,"Velocity":38,"Duration":66765,"SoundDuration":66765,"Delta":71892026},{"NoteNumber":73,"Velocity":38,"Duration":66765,"SoundDuration":66765,"Delta":71892026},{"NoteNumber":76,"Velocity":49,"Duration":44510,"SoundDuration":44510,"Delta":71981047},{"NoteNumber":73,"Velocity":41,"Duration":44510,"SoundDuration":44510,"Delta":71981047},{"NoteNumber":68,"Velocity":43,"Duration":66765,"SoundDuration":66765,"Delta":72070067},{"NoteNumber":64,"Velocity":38,"Duration":73697,"SoundDuration":73697,"Delta":72159088},{"NoteNumber":61,"Velocity":35,"Duration":73697,"SoundDuration":73697,"Delta":72257352},{"NoteNumber":56,"Velocity":49,"Duration":93277,"SoundDuration":93277,"Delta":72355616},{"NoteNumber":63,"Velocity":43,"Duration":69958,"SoundDuration":69958,"Delta":72448894},{"NoteNumber":68,"Velocity":43,"Duration":67938,"SoundDuration":67938,"Delta":72542172},{"NoteNumber":72,"Velocity":40,"Duration":67938,"SoundDuration":67938,"Delta":72632757},{"NoteNumber":80,"Velocity":40,"Duration":67938,"SoundDuration":67938,"Delta":72632757},{"NoteNumber":72,"Velocity":41,"Duration":47327,"SoundDuration":47327,"Delta":72723342},{"NoteNumber":80,"Velocity":49,"Duration":47327,"SoundDuration":47327,"Delta":72723342},{"NoteNumber":68,"Velocity":43,"Duration":70991,"SoundDuration":70991,"Delta":72817997},{"NoteNumber":63,"Velocity":39,"Duration":71229,"SoundDuration":71229,"Delta":72912653},{"NoteNumber":56,"Velocity":35,"Duration":71229,"SoundDuration":71229,"Delta":73007625},{"NoteNumber":61,"Velocity":49,"Duration":92364,"SoundDuration":92364,"Delta":73102598},{"NoteNumber":64,"Velocity":43,"Duration":69273,"SoundDuration":69273,"Delta":73194963},{"NoteNumber":68,"Velocity":43,"Duration":67938,"SoundDuration":67938,"Delta":73287327},{"NoteNumber":76,"Velocity":41,"Duration":67938,"SoundDuration":67938,"Delta":73377912},{"NoteNumber":73,"Velocity":41,"Duration":67938,"SoundDuration":67938,"Delta":73377912},{"NoteNumber":76,"Velocity":50,"Duration":45292,"SoundDuration":45292,"Delta":73468498},{"NoteNumber":73,"Velocity":43,"Duration":45292,"SoundDuration":45292,"Delta":73468498},{"NoteNumber":68,"Velocity":45,"Duration":67938,"SoundDuration":67938,"Delta":73559083},{"NoteNumber":64,"Velocity":42,"Duration":73697,"SoundDuration":73697,"Delta":73649668},{"NoteNumber":61,"Velocity":41,"Duration":73697,"SoundDuration":73697,"Delta":73747932},{"NoteNumber":59,"Velocity":54,"Duration":93277,"SoundDuration":93277,"Delta":73846196},{"NoteNumber":64,"Velocity":48,"Duration":69958,"SoundDuration":69958,"Delta":73939474},{"NoteNumber":68,"Velocity":49,"Duration":67938,"SoundDuration":67938,"Delta":74032752},{"NoteNumber":76,"Velocity":50,"Duration":67938,"SoundDuration":67938,"Delta":74123337},{"NoteNumber":74,"Velocity":41,"Duration":67938,"SoundDuration":67938,"Delta":74123337},{"NoteNumber":74,"Velocity":49,"Duration":45292,"SoundDuration":45292,"Delta":74213922},{"NoteNumber":76,"Velocity":58,"Duration":45292,"SoundDuration":45292,"Delta":74213922},{"NoteNumber":68,"Velocity":52,"Duration":67938,"SoundDuration":67938,"Delta":74304507},{"NoteNumber":64,"Velocity":50,"Duration":71229,"SoundDuration":71229,"Delta":74395093},{"NoteNumber":59,"Velocity":46,"Duration":71229,"SoundDuration":71229,"Delta":74490065},{"NoteNumber":57,"Velocity":62,"Duration":92364,"SoundDuration":92364,"Delta":74585038},{"NoteNumber":64,"Velocity":56,"Duration":69273,"SoundDuration":69273,"Delta":74677403},{"NoteNumber":69,"Velocity":56,"Duration":67938,"SoundDuration":67938,"Delta":74769767},{"NoteNumber":73,"Velocity":47,"Duration":67938,"SoundDuration":67938,"Delta":74860352},{"NoteNumber":81,"Velocity":57,"Duration":67938,"SoundDuration":67938,"Delta":74860352},{"NoteNumber":81,"Velocity":66,"Duration":45292,"SoundDuration":45292,"Delta":74950938},{"NoteNumber":73,"Velocity":56,"Duration":45292,"SoundDuration":45292,"Delta":74950938},{"NoteNumber":69,"Velocity":59,"Duration":67938,"SoundDuration":67938,"Delta":75041523},{"NoteNumber":64,"Velocity":55,"Duration":73697,"SoundDuration":73697,"Delta":75132108},{"NoteNumber":57,"Velocity":50,"Duration":73697,"SoundDuration":73697,"Delta":75230372},{"NoteNumber":58,"Velocity":69,"Duration":93277,"SoundDuration":93277,"Delta":75328636},{"NoteNumber":67,"Velocity":62,"Duration":69958,"SoundDuration":69958,"Delta":75421914},{"NoteNumber":73,"Velocity":63,"Duration":67938,"SoundDuration":67938,"Delta":75515192},{"NoteNumber":85,"Velocity":64,"Duration":67938,"SoundDuration":67938,"Delta":75605777},{"NoteNumber":76,"Velocity":54,"Duration":67938,"SoundDuration":67938,"Delta":75605777},{"NoteNumber":76,"Velocity":62,"Duration":45292,"SoundDuration":45292,"Delta":75696362},{"NoteNumber":85,"Velocity":74,"Duration":45292,"SoundDuration":45292,"Delta":75696362},{"NoteNumber":73,"Velocity":67,"Duration":67938,"SoundDuration":67938,"Delta":75786947},{"NoteNumber":67,"Velocity":62,"Duration":71229,"SoundDuration":71229,"Delta":75877533},{"NoteNumber":58,"Velocity":58,"Duration":71229,"SoundDuration":71229,"Delta":75972505},{"NoteNumber":59,"Velocity":78,"Duration":47740,"SoundDuration":47740,"Delta":76067478},{"NoteNumber":83,"Velocity":65,"Duration":49933,"SoundDuration":49933,"Delta":76258439},{"NoteNumber":75,"Velocity":54,"Duration":49933,"SoundDuration":49933,"Delta":76258439},{"NoteNumber":71,"Velocity":54,"Duration":49933,"SoundDuration":49933,"Delta":76258439},{"NoteNumber":63,"Velocity":45,"Duration":49933,"SoundDuration":49933,"Delta":76258439},{"NoteNumber":66,"Velocity":45,"Duration":49933,"SoundDuration":49933,"Delta":76258439},{"NoteNumber":57,"Velocity":82,"Duration":47709,"SoundDuration":47709,"Delta":76458173},{"NoteNumber":83,"Velocity":65,"Duration":50204,"SoundDuration":50204,"Delta":76649012},{"NoteNumber":78,"Velocity":54,"Duration":50204,"SoundDuration":50204,"Delta":76649012},{"NoteNumber":75,"Velocity":54,"Duration":50204,"SoundDuration":50204,"Delta":76649012},{"NoteNumber":71,"Velocity":54,"Duration":50204,"SoundDuration":50204,"Delta":76649012},{"NoteNumber":66,"Velocity":45,"Duration":50204,"SoundDuration":50204,"Delta":76649012},{"NoteNumber":63,"Velocity":45,"Duration":50204,"SoundDuration":50204,"Delta":76649012},{"NoteNumber":56,"Velocity":81,"Duration":47546,"SoundDuration":47546,"Delta":76849829},{"NoteNumber":80,"Velocity":65,"Duration":50016,"SoundDuration":50016,"Delta":77040015},{"NoteNumber":76,"Velocity":54,"Duration":50016,"SoundDuration":50016,"Delta":77040015},{"NoteNumber":71,"Velocity":54,"Duration":50016,"SoundDuration":50016,"Delta":77040015},{"NoteNumber":68,"Velocity":54,"Duration":50016,"SoundDuration":50016,"Delta":77040015},{"NoteNumber":64,"Velocity":45,"Duration":50016,"SoundDuration":50016,"Delta":77040015},{"NoteNumber":59,"Velocity":45,"Duration":50016,"SoundDuration":50016,"Delta":77040015},{"NoteNumber":57,"Velocity":81,"Duration":46583,"SoundDuration":46583,"Delta":77240082},{"NoteNumber":81,"Velocity":65,"Duration":51724,"SoundDuration":51724,"Delta":77426417},{"NoteNumber":76,"Velocity":54,"Duration":51724,"SoundDuration":51724,"Delta":77426417},{"NoteNumber":73,"Velocity":54,"Duration":51724,"SoundDuration":51724,"Delta":77426417},{"NoteNumber":69,"Velocity":54,"Duration":51724,"SoundDuration":51724,"Delta":77426417},{"NoteNumber":64,"Velocity":45,"Duration":51724,"SoundDuration":51724,"Delta":77426417},{"NoteNumber":61,"Velocity":45,"Duration":51724,"SoundDuration":51724,"Delta":77426417},{"NoteNumber":59,"Velocity":80,"Duration":47546,"SoundDuration":47546,"Delta":77633314},{"NoteNumber":83,"Velocity":65,"Duration":50016,"SoundDuration":50016,"Delta":77823500},{"NoteNumber":80,"Velocity":54,"Duration":50016,"SoundDuration":50016,"Delta":77823500},{"NoteNumber":76,"Velocity":54,"Duration":50016,"SoundDuration":50016,"Delta":77823500},{"NoteNumber":71,"Velocity":54,"Duration":50016,"SoundDuration":50016,"Delta":77823500},{"NoteNumber":68,"Velocity":45,"Duration":50016,"SoundDuration":50016,"Delta":77823500},{"NoteNumber":64,"Velocity":45,"Duration":50016,"SoundDuration":50016,"Delta":77823500},{"NoteNumber":59,"Velocity":81,"Duration":47709,"SoundDuration":47709,"Delta":78023567},{"NoteNumber":83,"Velocity":65,"Duration":49465,"SoundDuration":49465,"Delta":78214406},{"NoteNumber":78,"Velocity":54,"Duration":49465,"SoundDuration":49465,"Delta":78214406},{"NoteNumber":75,"Velocity":54,"Duration":49465,"SoundDuration":49465,"Delta":78214406},{"NoteNumber":71,"Velocity":54,"Duration":49465,"SoundDuration":49465,"Delta":78214406},{"NoteNumber":66,"Velocity":45,"Duration":49465,"SoundDuration":49465,"Delta":78214406},{"NoteNumber":63,"Velocity":45,"Duration":49465,"SoundDuration":49465,"Delta":78214406},{"NoteNumber":64,"Velocity":81,"Duration":406668,"SoundDuration":406668,"Delta":78412269},{"NoteNumber":88,"Velocity":79,"Duration":50833,"SoundDuration":50833,"Delta":78818938},{"NoteNumber":83,"Velocity":66,"Duration":50833,"SoundDuration":50833,"Delta":78818938},{"NoteNumber":80,"Velocity":66,"Duration":50833,"SoundDuration":50833,"Delta":78818938},{"NoteNumber":76,"Velocity":66,"Duration":50833,"SoundDuration":50833,"Delta":78818938},{"NoteNumber":71,"Velocity":55,"Duration":50833,"SoundDuration":50833,"Delta":78818938},{"NoteNumber":68,"Velocity":55,"Duration":50833,"SoundDuration":50833,"Delta":78818938},{"NoteNumber":64,"Velocity":58,"Duration":46572,"SoundDuration":46572,"Delta":79250175},{"NoteNumber":68,"Velocity":51,"Duration":69858,"SoundDuration":69858,"Delta":79343320},{"NoteNumber":71,"Velocity":51,"Duration":67771,"SoundDuration":67771,"Delta":79436464},{"NoteNumber":76,"Velocity":48,"Duration":67771,"SoundDuration":67771,"Delta":79526826},{"NoteNumber":76,"Velocity":58,"Duration":45180,"SoundDuration":45180,"Delta":79617187},{"NoteNumber":71,"Velocity":51,"Duration":67771,"SoundDuration":67771,"Delta":79707549},{"NoteNumber":68,"Velocity":48,"Duration":72379,"SoundDuration":72379,"Delta":79797910},{"NoteNumber":64,"Velocity":42,"Duration":72379,"SoundDuration":72379,"Delta":79894417},{"NoteNumber":64,"Velocity":58,"Duration":46439,"SoundDuration":46439,"Delta":79990923},{"NoteNumber":69,"Velocity":51,"Duration":69659,"SoundDuration":69659,"Delta":80083803},{"NoteNumber":72,"Velocity":51,"Duration":67365,"SoundDuration":67365,"Delta":80176682},{"NoteNumber":76,"Velocity":46,"Duration":67365,"SoundDuration":67365,"Delta":80266502},{"NoteNumber":76,"Velocity":58,"Duration":44910,"SoundDuration":44910,"Delta":80356322},{"NoteNumber":72,"Velocity":51,"Duration":67365,"SoundDuration":67365,"Delta":80446143},{"NoteNumber":69,"Velocity":44,"Duration":69953,"SoundDuration":69953,"Delta":80535963},{"NoteNumber":64,"Velocity":42,"Duration":69953,"SoundDuration":69953,"Delta":80629235},{"NoteNumber":64,"Velocity":58,"Duration":46153,"SoundDuration":46153,"Delta":80722507},{"NoteNumber":67,"Velocity":51,"Duration":69230,"SoundDuration":69230,"Delta":80814815},{"NoteNumber":70,"Velocity":51,"Duration":67365,"SoundDuration":67365,"Delta":80907122},{"NoteNumber":76,"Velocity":48,"Duration":67365,"SoundDuration":67365,"Delta":80996943},{"NoteNumber":76,"Velocity":58,"Duration":44910,"SoundDuration":44910,"Delta":81086763},{"NoteNumber":70,"Velocity":51,"Duration":67365,"SoundDuration":67365,"Delta":81176583},{"NoteNumber":67,"Velocity":48,"Duration":72379,"SoundDuration":72379,"Delta":81266403},{"NoteNumber":64,"Velocity":44,"Duration":72379,"SoundDuration":72379,"Delta":81362910},{"NoteNumber":64,"Velocity":58,"Duration":45804,"SoundDuration":45804,"Delta":81459416},{"NoteNumber":68,"Velocity":51,"Duration":68706,"SoundDuration":68706,"Delta":81551025},{"NoteNumber":71,"Velocity":51,"Duration":67771,"SoundDuration":67771,"Delta":81642634},{"NoteNumber":76,"Velocity":48,"Duration":67771,"SoundDuration":67771,"Delta":81732995},{"NoteNumber":83,"Velocity":73,"Duration":44910,"SoundDuration":44910,"Delta":81823357},{"NoteNumber":80,"Velocity":64,"Duration":44910,"SoundDuration":44910,"Delta":81823357},{"NoteNumber":64,"Velocity":67,"Duration":44910,"SoundDuration":44910,"Delta":81823357},{"NoteNumber":81,"Velocity":65,"Duration":45090,"SoundDuration":45090,"Delta":81943207},{"NoteNumber":78,"Velocity":57,"Duration":45090,"SoundDuration":45090,"Delta":81943207},{"NoteNumber":66,"Velocity":59,"Duration":45090,"SoundDuration":45090,"Delta":81943207},{"NoteNumber":80,"Velocity":66,"Duration":45317,"SoundDuration":45317,"Delta":82063690},{"NoteNumber":76,"Velocity":58,"Duration":45317,"SoundDuration":45317,"Delta":82063690},{"NoteNumber":68,"Velocity":60,"Duration":45317,"SoundDuration":45317,"Delta":82063690},{"NoteNumber":81,"Velocity":66,"Duration":45592,"SoundDuration":45592,"Delta":82184719},{"NoteNumber":85,"Velocity":75,"Duration":45592,"SoundDuration":45592,"Delta":82184719},{"NoteNumber":69,"Velocity":67,"Duration":91278,"SoundDuration":91278,"Delta":82184719},{"NoteNumber":83,"Velocity":66,"Duration":45778,"SoundDuration":45778,"Delta":82306485},{"NoteNumber":80,"Velocity":58,"Duration":45778,"SoundDuration":45778,"Delta":82306485},{"NoteNumber":78,"Velocity":58,"Duration":46059,"SoundDuration":46059,"Delta":82428809},{"NoteNumber":81,"Velocity":66,"Duration":46059,"SoundDuration":46059,"Delta":82428809},{"NoteNumber":76,"Velocity":66,"Duration":46296,"SoundDuration":46296,"Delta":82551792},{"NoteNumber":80,"Velocity":75,"Duration":46296,"SoundDuration":46296,"Delta":82551792},{"NoteNumber":57,"Velocity":67,"Duration":92688,"SoundDuration":92688,"Delta":82551792},{"NoteNumber":75,"Velocity":57,"Duration":46583,"SoundDuration":46583,"Delta":82675440},{"NoteNumber":78,"Velocity":65,"Duration":46583,"SoundDuration":46583,"Delta":82675440},{"NoteNumber":58,"Velocity":66,"Duration":93361,"SoundDuration":93361,"Delta":82737552},{"NoteNumber":73,"Velocity":57,"Duration":46777,"SoundDuration":46777,"Delta":82799760},{"NoteNumber":76,"Velocity":65,"Duration":46777,"SoundDuration":46777,"Delta":82799760},{"NoteNumber":59,"Velocity":67,"Duration":92217,"SoundDuration":92217,"Delta":82924761},{"NoteNumber":68,"Velocity":57,"Duration":69162,"SoundDuration":69162,"Delta":83016978},{"NoteNumber":76,"Velocity":57,"Duration":67591,"SoundDuration":67591,"Delta":83109195},{"NoteNumber":83,"Velocity":53,"Duration":67591,"SoundDuration":67591,"Delta":83199317},{"NoteNumber":83,"Velocity":65,"Duration":67591,"SoundDuration":67591,"Delta":83289440},{"NoteNumber":76,"Velocity":56,"Duration":67591,"SoundDuration":67591,"Delta":83379562},{"NoteNumber":68,"Velocity":48,"Duration":72379,"SoundDuration":72379,"Delta":83469685},{"NoteNumber":59,"Velocity":45,"Duration":72379,"SoundDuration":72379,"Delta":83566191},{"NoteNumber":59,"Velocity":64,"Duration":93144,"SoundDuration":93144,"Delta":83662698},{"NoteNumber":66,"Velocity":54,"Duration":69858,"SoundDuration":69858,"Delta":83755842},{"NoteNumber":75,"Velocity":54,"Duration":67812,"SoundDuration":67812,"Delta":83848987},{"NoteNumber":83,"Velocity":50,"Duration":67811,"SoundDuration":67811,"Delta":83939403},{"NoteNumber":83,"Velocity":60,"Duration":67812,"SoundDuration":67812,"Delta":84029819},{"NoteNumber":75,"Velocity":54,"Duration":67812,"SoundDuration":67812,"Delta":84120235},{"NoteNumber":66,"Velocity":49,"Duration":72379,"SoundDuration":72379,"Delta":84210651},{"NoteNumber":59,"Velocity":46,"Duration":72379,"SoundDuration":72379,"Delta":84307157},{"NoteNumber":64,"Velocity":60,"Duration":92919,"SoundDuration":92919,"Delta":84403664},{"NoteNumber":68,"Velocity":53,"Duration":69689,"SoundDuration":69689,"Delta":84496583},{"NoteNumber":76,"Velocity":53,"Duration":81527,"SoundDuration":81527,"Delta":84589503},{"NoteNumber":83,"Velocity":52,"Duration":81527,"SoundDuration":81527,"Delta":84698206},{"NoteNumber":92,"Velocity":74,"Duration":58828,"SoundDuration":58828,"Delta":84806910},{"NoteNumber":88,"Velocity":70,"Duration":74634,"SoundDuration":74634,"Delta":85042222},{"NoteNumber":64,"Velocity":57,"Duration":88307,"SoundDuration":88307,"Delta":85340759},{"NoteNumber":71,"Velocity":51,"Duration":66231,"SoundDuration":66231,"Delta":85429067},{"NoteNumber":68,"Velocity":43,"Duration":66231,"SoundDuration":66231,"Delta":85429067},{"NoteNumber":76,"Velocity":50,"Duration":64289,"SoundDuration":64289,"Delta":85517375},{"NoteNumber":80,"Velocity":42,"Duration":64289,"SoundDuration":64289,"Delta":85603095},{"NoteNumber":88,"Velocity":50,"Duration":64289,"SoundDuration":64289,"Delta":85603095},{"NoteNumber":80,"Velocity":45,"Duration":64289,"SoundDuration":64289,"Delta":85688814},{"NoteNumber":88,"Velocity":54,"Duration":64289,"SoundDuration":64289,"Delta":85688814},{"NoteNumber":76,"Velocity":48,"Duration":64289,"SoundDuration":64289,"Delta":85774533},{"NoteNumber":68,"Velocity":40,"Duration":68622,"SoundDuration":68622,"Delta":85860252},{"NoteNumber":71,"Velocity":48,"Duration":68622,"SoundDuration":68622,"Delta":85860252},{"NoteNumber":64,"Velocity":42,"Duration":68622,"SoundDuration":68622,"Delta":85951749},{"NoteNumber":64,"Velocity":57,"Duration":88307,"SoundDuration":88307,"Delta":86043246},{"NoteNumber":72,"Velocity":51,"Duration":66231,"SoundDuration":66231,"Delta":86131554},{"NoteNumber":69,"Velocity":43,"Duration":66231,"SoundDuration":66231,"Delta":86131554},{"NoteNumber":76,"Velocity":50,"Duration":64289,"SoundDuration":64289,"Delta":86219862},{"NoteNumber":81,"Velocity":42,"Duration":64289,"SoundDuration":64289,"Delta":86305582},{"NoteNumber":88,"Velocity":50,"Duration":64289,"SoundDuration":64289,"Delta":86305582},{"NoteNumber":81,"Velocity":45,"Duration":64289,"SoundDuration":64289,"Delta":86391301},{"NoteNumber":88,"Velocity":54,"Duration":64289,"SoundDuration":64289,"Delta":86391301},{"NoteNumber":76,"Velocity":48,"Duration":64289,"SoundDuration":64289,"Delta":86477020},{"NoteNumber":72,"Velocity":45,"Duration":68622,"SoundDuration":68622,"Delta":86562739},{"NoteNumber":69,"Velocity":45,"Duration":68622,"SoundDuration":68622,"Delta":86562739},{"NoteNumber":64,"Velocity":40,"Duration":68622,"SoundDuration":68622,"Delta":86654236},{"NoteNumber":64,"Velocity":57,"Duration":88307,"SoundDuration":88307,"Delta":86745733},{"NoteNumber":70,"Velocity":52,"Duration":66231,"SoundDuration":66231,"Delta":86834041},{"NoteNumber":67,"Velocity":43,"Duration":66231,"SoundDuration":66231,"Delta":86834041},{"NoteNumber":76,"Velocity":52,"Duration":63559,"SoundDuration":63559,"Delta":86922349},{"NoteNumber":79,"Velocity":45,"Duration":63559,"SoundDuration":63559,"Delta":87007095},{"NoteNumber":88,"Velocity":53,"Duration":63559,"SoundDuration":63559,"Delta":87007095},{"NoteNumber":79,"Velocity":50,"Duration":63559,"SoundDuration":63559,"Delta":87091841},{"NoteNumber":88,"Velocity":59,"Duration":63559,"SoundDuration":63559,"Delta":87091841},{"NoteNumber":76,"Velocity":54,"Duration":63559,"SoundDuration":63559,"Delta":87176587},{"NoteNumber":70,"Velocity":47,"Duration":68622,"SoundDuration":68622,"Delta":87261332},{"NoteNumber":67,"Velocity":47,"Duration":68622,"SoundDuration":68622,"Delta":87261332},{"NoteNumber":64,"Velocity":41,"Duration":68622,"SoundDuration":68622,"Delta":87352829},{"NoteNumber":64,"Velocity":70,"Duration":89820,"SoundDuration":89820,"Delta":87444326},{"NoteNumber":71,"Velocity":61,"Duration":67365,"SoundDuration":67365,"Delta":87534147},{"NoteNumber":68,"Velocity":61,"Duration":67365,"SoundDuration":67365,"Delta":87534147},{"NoteNumber":76,"Velocity":61,"Duration":63262,"SoundDuration":63262,"Delta":87623967},{"NoteNumber":88,"Velocity":61,"Duration":63262,"SoundDuration":63262,"Delta":87708317},{"NoteNumber":80,"Velocity":61,"Duration":63262,"SoundDuration":63262,"Delta":87708317},{"NoteNumber":68,"Velocity":73,"Duration":43103,"SoundDuration":43103,"Delta":87792667},{"NoteNumber":64,"Velocity":64,"Duration":43103,"SoundDuration":43103,"Delta":87792667},{"NoteNumber":69,"Velocity":66,"Duration":43103,"SoundDuration":43103,"Delta":87907610},{"NoteNumber":66,"Velocity":58,"Duration":43103,"SoundDuration":43103,"Delta":87907610},{"NoteNumber":63,"Velocity":60,"Duration":43103,"SoundDuration":43103,"Delta":87907610},{"NoteNumber":71,"Velocity":68,"Duration":42766,"SoundDuration":42766,"Delta":88021861},{"NoteNumber":68,"Velocity":60,"Duration":42766,"SoundDuration":42766,"Delta":88021861},{"NoteNumber":62,"Velocity":62,"Duration":42766,"SoundDuration":42766,"Delta":88021861},{"NoteNumber":69,"Velocity":69,"Duration":43046,"SoundDuration":43046,"Delta":88136154},{"NoteNumber":73,"Velocity":79,"Duration":43046,"SoundDuration":43046,"Delta":88136154},{"NoteNumber":61,"Velocity":71,"Duration":86187,"SoundDuration":86187,"Delta":88136154},{"NoteNumber":75,"Velocity":71,"Duration":43330,"SoundDuration":43330,"Delta":88251196},{"NoteNumber":71,"Velocity":62,"Duration":43330,"SoundDuration":43330,"Delta":88251196},{"NoteNumber":73,"Velocity":64,"Duration":43713,"SoundDuration":43713,"Delta":88367093},{"NoteNumber":76,"Velocity":73,"Duration":43713,"SoundDuration":43713,"Delta":88367093},{"NoteNumber":75,"Velocity":71,"Duration":44006,"SoundDuration":44006,"Delta":88483858},{"NoteNumber":78,"Velocity":81,"Duration":44006,"SoundDuration":44006,"Delta":88483858},{"NoteNumber":57,"Velocity":72,"Duration":88111,"SoundDuration":88111,"Delta":88483858},{"NoteNumber":76,"Velocity":65,"Duration":44352,"SoundDuration":44352,"Delta":88601504},{"NoteNumber":80,"Velocity":74,"Duration":44352,"SoundDuration":44352,"Delta":88601504},{"NoteNumber":78,"Velocity":66,"Duration":44653,"SoundDuration":44653,"Delta":88720045},{"NoteNumber":81,"Velocity":76,"Duration":44653,"SoundDuration":44653,"Delta":88720045},{"NoteNumber":59,"Velocity":65,"Duration":88307,"SoundDuration":88307,"Delta":88839391},{"NoteNumber":71,"Velocity":56,"Duration":66231,"SoundDuration":66231,"Delta":88927699},{"NoteNumber":68,"Velocity":47,"Duration":66231,"SoundDuration":66231,"Delta":88927699},{"NoteNumber":76,"Velocity":56,"Duration":64289,"SoundDuration":64289,"Delta":89016007},{"NoteNumber":88,"Velocity":50,"Duration":64289,"SoundDuration":64289,"Delta":89101727},{"NoteNumber":80,"Velocity":50,"Duration":64289,"SoundDuration":64289,"Delta":89101727},{"NoteNumber":80,"Velocity":52,"Duration":64289,"SoundDuration":64289,"Delta":89187446},{"NoteNumber":88,"Velocity":62,"Duration":64289,"SoundDuration":64289,"Delta":89187446},{"NoteNumber":76,"Velocity":56,"Duration":64289,"SoundDuration":64289,"Delta":89273165},{"NoteNumber":71,"Velocity":49,"Duration":68622,"SoundDuration":68622,"Delta":89358884},{"NoteNumber":68,"Velocity":49,"Duration":68622,"SoundDuration":68622,"Delta":89358884},{"NoteNumber":59,"Velocity":44,"Duration":68622,"SoundDuration":68622,"Delta":89450381},{"NoteNumber":59,"Velocity":64,"Duration":88307,"SoundDuration":88307,"Delta":89541878},{"NoteNumber":71,"Velocity":56,"Duration":66231,"SoundDuration":66231,"Delta":89630186},{"NoteNumber":66,"Velocity":47,"Duration":66231,"SoundDuration":66231,"Delta":89630186},{"NoteNumber":75,"Velocity":56,"Duration":64289,"SoundDuration":64289,"Delta":89718494},{"NoteNumber":87,"Velocity":51,"Duration":64289,"SoundDuration":64289,"Delta":89804214},{"NoteNumber":78,"Velocity":51,"Duration":64289,"SoundDuration":64289,"Delta":89804214},{"NoteNumber":78,"Velocity":53,"Duration":64289,"SoundDuration":64289,"Delta":89889933},{"NoteNumber":87,"Velocity":63,"Duration":64289,"SoundDuration":64289,"Delta":89889933},{"NoteNumber":75,"Velocity":57,"Duration":64289,"SoundDuration":64289,"Delta":89975652},{"NoteNumber":71,"Velocity":50,"Duration":68622,"SoundDuration":68622,"Delta":90061371},{"NoteNumber":66,"Velocity":50,"Duration":68622,"SoundDuration":68622,"Delta":90061371},{"NoteNumber":59,"Velocity":43,"Duration":68622,"SoundDuration":68622,"Delta":90152868},{"NoteNumber":64,"Velocity":65,"Duration":88307,"SoundDuration":88307,"Delta":90244365},{"NoteNumber":71,"Velocity":47,"Duration":66231,"SoundDuration":66231,"Delta":90332673},{"NoteNumber":76,"Velocity":56,"Duration":66231,"SoundDuration":66231,"Delta":90332673},{"NoteNumber":68,"Velocity":47,"Duration":66231,"SoundDuration":66231,"Delta":90332673},{"NoteNumber":80,"Velocity":56,"Duration":64289,"SoundDuration":64289,"Delta":90420981},{"NoteNumber":88,"Velocity":51,"Duration":64289,"SoundDuration":64289,"Delta":90506701},{"NoteNumber":83,"Velocity":51,"Duration":64289,"SoundDuration":64289,"Delta":90506701},{"NoteNumber":92,"Velocity":62,"Duration":64289,"SoundDuration":64289,"Delta":90592420},{"NoteNumber":80,"Velocity":56,"Duration":64289,"SoundDuration":64289,"Delta":90678139},{"NoteNumber":76,"Velocity":48,"Duration":68622,"SoundDuration":68622,"Delta":90763858},{"NoteNumber":68,"Velocity":48,"Duration":68622,"SoundDuration":68622,"Delta":90763858},{"NoteNumber":71,"Velocity":48,"Duration":68622,"SoundDuration":68622,"Delta":90763858},{"NoteNumber":64,"Velocity":45,"Duration":68622,"SoundDuration":68622,"Delta":90855355},{"NoteNumber":64,"Velocity":64,"Duration":88307,"SoundDuration":88307,"Delta":90946852},{"NoteNumber":72,"Velocity":47,"Duration":66231,"SoundDuration":66231,"Delta":91035160},{"NoteNumber":76,"Velocity":56,"Duration":66231,"SoundDuration":66231,"Delta":91035160},{"NoteNumber":69,"Velocity":47,"Duration":66231,"SoundDuration":66231,"Delta":91035160},{"NoteNumber":81,"Velocity":56,"Duration":63920,"SoundDuration":63920,"Delta":91123468},{"NoteNumber":88,"Velocity":53,"Duration":63920,"SoundDuration":63920,"Delta":91208696},{"NoteNumber":84,"Velocity":53,"Duration":63920,"SoundDuration":63920,"Delta":91208696},{"NoteNumber":93,"Velocity":63,"Duration":63920,"SoundDuration":63920,"Delta":91293923},{"NoteNumber":81,"Velocity":57,"Duration":63920,"SoundDuration":63920,"Delta":91379150},{"NoteNumber":76,"Velocity":51,"Duration":68622,"SoundDuration":68622,"Delta":91464377},{"NoteNumber":69,"Velocity":51,"Duration":68622,"SoundDuration":68622,"Delta":91464377},{"NoteNumber":72,"Velocity":51,"Duration":68622,"SoundDuration":68622,"Delta":91464377},{"NoteNumber":64,"Velocity":47,"Duration":68622,"SoundDuration":68622,"Delta":91555874},{"NoteNumber":64,"Velocity":65,"Duration":88307,"SoundDuration":88307,"Delta":91647371},{"NoteNumber":71,"Velocity":47,"Duration":66231,"SoundDuration":66231,"Delta":91735679},{"NoteNumber":76,"Velocity":56,"Duration":66231,"SoundDuration":66231,"Delta":91735679},{"NoteNumber":68,"Velocity":47,"Duration":66231,"SoundDuration":66231,"Delta":91735679},{"NoteNumber":80,"Velocity":56,"Duration":63559,"SoundDuration":63559,"Delta":91823987},{"NoteNumber":88,"Velocity":49,"Duration":63559,"SoundDuration":63559,"Delta":91908733},{"NoteNumber":83,"Velocity":49,"Duration":63559,"SoundDuration":63559,"Delta":91908733},{"NoteNumber":92,"Velocity":63,"Duration":63559,"SoundDuration":63559,"Delta":91993479},{"NoteNumber":80,"Velocity":58,"Duration":63559,"SoundDuration":63559,"Delta":92078225},{"NoteNumber":76,"Velocity":53,"Duration":68622,"SoundDuration":68622,"Delta":92162970},{"NoteNumber":68,"Velocity":53,"Duration":68622,"SoundDuration":68622,"Delta":92162970},{"NoteNumber":71,"Velocity":53,"Duration":68622,"SoundDuration":68622,"Delta":92162970},{"NoteNumber":64,"Velocity":47,"Duration":68622,"SoundDuration":68622,"Delta":92254467},{"NoteNumber":64,"Velocity":69,"Duration":88307,"SoundDuration":88307,"Delta":92345964},{"NoteNumber":72,"Velocity":51,"Duration":66231,"SoundDuration":66231,"Delta":92434272},{"NoteNumber":76,"Velocity":61,"Duration":66231,"SoundDuration":66231,"Delta":92434272},{"NoteNumber":69,"Velocity":51,"Duration":66231,"SoundDuration":66231,"Delta":92434272},{"NoteNumber":81,"Velocity":61,"Duration":64289,"SoundDuration":64289,"Delta":92522580},{"NoteNumber":88,"Velocity":56,"Duration":64289,"SoundDuration":64289,"Delta":92608300},{"NoteNumber":84,"Velocity":56,"Duration":64289,"SoundDuration":64289,"Delta":92608300},{"NoteNumber":93,"Velocity":69,"Duration":64289,"SoundDuration":64289,"Delta":92694019},{"NoteNumber":81,"Velocity":64,"Duration":64289,"SoundDuration":64289,"Delta":92779738},{"NoteNumber":72,"Velocity":59,"Duration":68622,"SoundDuration":68622,"Delta":92865457},{"NoteNumber":69,"Velocity":59,"Duration":68622,"SoundDuration":68622,"Delta":92865457},{"NoteNumber":76,"Velocity":59,"Duration":68622,"SoundDuration":68622,"Delta":92865457},{"NoteNumber":64,"Velocity":54,"Duration":68622,"SoundDuration":68622,"Delta":92956954},{"NoteNumber":64,"Velocity":76,"Duration":88307,"SoundDuration":88307,"Delta":93048451},{"NoteNumber":71,"Velocity":55,"Duration":66231,"SoundDuration":66231,"Delta":93136759},{"NoteNumber":76,"Velocity":66,"Duration":66231,"SoundDuration":66231,"Delta":93136759},{"NoteNumber":68,"Velocity":55,"Duration":66231,"SoundDuration":66231,"Delta":93136759},{"NoteNumber":80,"Velocity":66,"Duration":64923,"SoundDuration":64923,"Delta":93225067},{"NoteNumber":83,"Velocity":55,"Duration":64923,"SoundDuration":64923,"Delta":93311632},{"NoteNumber":88,"Velocity":66,"Duration":64923,"SoundDuration":64923,"Delta":93311632},{"NoteNumber":92,"Velocity":74,"Duration":64923,"SoundDuration":64923,"Delta":93398197},{"NoteNumber":80,"Velocity":68,"Duration":64923,"SoundDuration":64923,"Delta":93484762},{"NoteNumber":71,"Velocity":61,"Duration":68622,"SoundDuration":68622,"Delta":93571327},{"NoteNumber":68,"Velocity":53,"Duration":68622,"SoundDuration":68622,"Delta":93662824},{"NoteNumber":64,"Velocity":53,"Duration":68622,"SoundDuration":68622,"Delta":93662824},{"NoteNumber":61,"Velocity":80,"Duration":88095,"SoundDuration":88095,"Delta":93754321},{"NoteNumber":67,"Velocity":58,"Duration":66071,"SoundDuration":66071,"Delta":93842417},{"NoteNumber":70,"Velocity":70,"Duration":66071,"SoundDuration":66071,"Delta":93842417},{"NoteNumber":76,"Velocity":72,"Duration":74262,"SoundDuration":74262,"Delta":93930512},{"NoteNumber":79,"Velocity":65,"Duration":74262,"SoundDuration":74262,"Delta":94029529},{"NoteNumber":88,"Velocity":65,"Duration":74262,"SoundDuration":74262,"Delta":94029529},{"NoteNumber":61,"Velocity":78,"Duration":54155,"SoundDuration":54155,"Delta":94128545},{"NoteNumber":58,"Velocity":83,"Duration":58479,"SoundDuration":58479,"Delta":94345167},{"NoteNumber":59,"Velocity":86,"Duration":46728,"SoundDuration":46728,"Delta":94579085},{"NoteNumber":83,"Velocity":76,"Duration":46728,"SoundDuration":46728,"Delta":94703696},{"NoteNumber":80,"Velocity":64,"Duration":46728,"SoundDuration":46728,"Delta":94703696},{"NoteNumber":81,"Velocity":75,"Duration":44776,"SoundDuration":44776,"Delta":94826885},{"NoteNumber":78,"Velocity":63,"Duration":44776,"SoundDuration":44776,"Delta":94826885},{"NoteNumber":80,"Velocity":74,"Duration":43227,"SoundDuration":43227,"Delta":94945150},{"NoteNumber":76,"Velocity":62,"Duration":43227,"SoundDuration":43227,"Delta":94945150},{"NoteNumber":68,"Velocity":75,"Duration":43227,"SoundDuration":43227,"Delta":94945150},{"NoteNumber":75,"Velocity":61,"Duration":43352,"SoundDuration":43352,"Delta":95060424},{"NoteNumber":78,"Velocity":72,"Duration":43352,"SoundDuration":43352,"Delta":95060424},{"NoteNumber":69,"Velocity":74,"Duration":43352,"SoundDuration":43352,"Delta":95060424},{"NoteNumber":73,"Velocity":60,"Duration":43478,"SoundDuration":43478,"Delta":95176114},{"NoteNumber":76,"Velocity":71,"Duration":43478,"SoundDuration":43478,"Delta":95176114},{"NoteNumber":70,"Velocity":73,"Duration":43478,"SoundDuration":43478,"Delta":95176114},{"NoteNumber":71,"Velocity":59,"Duration":43647,"SoundDuration":43647,"Delta":95292225},{"NoteNumber":75,"Velocity":70,"Duration":43647,"SoundDuration":43647,"Delta":95292225},{"NoteNumber":69,"Velocity":58,"Duration":43859,"SoundDuration":43859,"Delta":95408758},{"NoteNumber":73,"Velocity":69,"Duration":43859,"SoundDuration":43859,"Delta":95408758},{"NoteNumber":68,"Velocity":57,"Duration":43988,"SoundDuration":43988,"Delta":95525717},{"NoteNumber":71,"Velocity":68,"Duration":43988,"SoundDuration":43988,"Delta":95525717},{"NoteNumber":66,"Velocity":56,"Duration":44117,"SoundDuration":44117,"Delta":95643105},{"NoteNumber":69,"Velocity":67,"Duration":44117,"SoundDuration":44117,"Delta":95643105},{"NoteNumber":59,"Velocity":72,"Duration":88322,"SoundDuration":88322,"Delta":95643105},{"NoteNumber":64,"Velocity":55,"Duration":44291,"SoundDuration":44291,"Delta":95760926},{"NoteNumber":68,"Velocity":65,"Duration":44291,"SoundDuration":44291,"Delta":95760926},{"NoteNumber":63,"Velocity":54,"Duration":44591,"SoundDuration":44591,"Delta":95879182},{"NoteNumber":66,"Velocity":64,"Duration":44591,"SoundDuration":44591,"Delta":95879182},{"NoteNumber":64,"Velocity":65,"Duration":85871,"SoundDuration":85871,"Delta":95998467},{"NoteNumber":68,"Velocity":54,"Duration":64403,"SoundDuration":64403,"Delta":96084338},{"NoteNumber":71,"Velocity":53,"Duration":62937,"SoundDuration":62937,"Delta":96170209},{"NoteNumber":76,"Velocity":50,"Duration":62936,"SoundDuration":62936,"Delta":96254125},{"NoteNumber":80,"Velocity":63,"Duration":62936,"SoundDuration":62936,"Delta":96338041},{"NoteNumber":71,"Velocity":53,"Duration":62936,"SoundDuration":62936,"Delta":96421957},{"NoteNumber":68,"Velocity":48,"Duration":67397,"SoundDuration":67397,"Delta":96505873},{"NoteNumber":64,"Velocity":45,"Duration":67397,"SoundDuration":67397,"Delta":96595737},{"NoteNumber":64,"Velocity":64,"Duration":86730,"SoundDuration":86730,"Delta":96685600},{"NoteNumber":69,"Velocity":54,"Duration":65047,"SoundDuration":65047,"Delta":96772331},{"NoteNumber":72,"Velocity":54,"Duration":63145,"SoundDuration":63145,"Delta":96859061},{"NoteNumber":76,"Velocity":45,"Duration":63145,"SoundDuration":63145,"Delta":96943255},{"NoteNumber":81,"Velocity":60,"Duration":63145,"SoundDuration":63145,"Delta":97027449},{"NoteNumber":72,"Velocity":54,"Duration":63145,"SoundDuration":63145,"Delta":97111643},{"NoteNumber":69,"Velocity":50,"Duration":67397,"SoundDuration":67397,"Delta":97195837},{"NoteNumber":64,"Velocity":41,"Duration":67397,"SoundDuration":67397,"Delta":97285700},{"NoteNumber":64,"Velocity":65,"Duration":85871,"SoundDuration":85871,"Delta":97375564},{"NoteNumber":68,"Velocity":54,"Duration":64403,"SoundDuration":64403,"Delta":97461435},{"NoteNumber":71,"Velocity":54,"Duration":61475,"SoundDuration":61475,"Delta":97547306},{"NoteNumber":76,"Velocity":46,"Duration":61475,"SoundDuration":61475,"Delta":97629274},{"NoteNumber":80,"Velocity":64,"Duration":61475,"SoundDuration":61475,"Delta":97711241},{"NoteNumber":71,"Velocity":55,"Duration":61475,"SoundDuration":61475,"Delta":97793208},{"NoteNumber":68,"Velocity":49,"Duration":67397,"SoundDuration":67397,"Delta":97875175},{"NoteNumber":64,"Velocity":41,"Duration":67397,"SoundDuration":67397,"Delta":97965039},{"NoteNumber":64,"Velocity":67,"Duration":86730,"SoundDuration":86730,"Delta":98054902},{"NoteNumber":69,"Velocity":56,"Duration":65047,"SoundDuration":65047,"Delta":98141633},{"NoteNumber":72,"Velocity":56,"Duration":61983,"SoundDuration":61983,"Delta":98228363},{"NoteNumber":76,"Velocity":49,"Duration":61983,"SoundDuration":61983,"Delta":98311008},{"NoteNumber":81,"Velocity":65,"Duration":61983,"SoundDuration":61983,"Delta":98393652},{"NoteNumber":72,"Velocity":58,"Duration":61983,"SoundDuration":61983,"Delta":98476297},{"NoteNumber":69,"Velocity":49,"Duration":67397,"SoundDuration":67397,"Delta":98558942},{"NoteNumber":64,"Velocity":47,"Duration":67397,"SoundDuration":67397,"Delta":98648805},{"NoteNumber":64,"Velocity":72,"Duration":85871,"SoundDuration":85871,"Delta":98738669},{"NoteNumber":68,"Velocity":61,"Duration":64403,"SoundDuration":64403,"Delta":98824540},{"NoteNumber":71,"Velocity":61,"Duration":62937,"SoundDuration":62937,"Delta":98910411},{"NoteNumber":76,"Velocity":56,"Duration":62936,"SoundDuration":62936,"Delta":98994327},{"NoteNumber":80,"Velocity":72,"Duration":62936,"SoundDuration":62936,"Delta":99078243},{"NoteNumber":71,"Velocity":62,"Duration":62936,"SoundDuration":62936,"Delta":99162159},{"NoteNumber":68,"Velocity":58,"Duration":67397,"SoundDuration":67397,"Delta":99246075},{"NoteNumber":64,"Velocity":53,"Duration":67397,"SoundDuration":67397,"Delta":99335939},{"NoteNumber":60,"Velocity":75,"Duration":86520,"SoundDuration":86520,"Delta":99425802},{"NoteNumber":67,"Velocity":63,"Duration":64890,"SoundDuration":64890,"Delta":99512323},{"NoteNumber":70,"Velocity":61,"Duration":73342,"SoundDuration":73342,"Delta":99598843},{"NoteNumber":76,"Velocity":64,"Duration":73342,"SoundDuration":73342,"Delta":99696633},{"NoteNumber":79,"Velocity":77,"Duration":51953,"SoundDuration":51953,"Delta":99794423},{"NoteNumber":76,"Velocity":78,"Duration":66085,"SoundDuration":66085,"Delta":100002237},{"NoteNumber":59,"Velocity":78,"Duration":54073,"SoundDuration":54073,"Delta":100266577},{"NoteNumber":71,"Velocity":68,"Duration":47685,"SoundDuration":47685,"Delta":100410773},{"NoteNumber":76,"Velocity":68,"Duration":47685,"SoundDuration":47685,"Delta":100410773},{"NoteNumber":68,"Velocity":68,"Duration":47685,"SoundDuration":47685,"Delta":100537935},{"NoteNumber":71,"Velocity":68,"Duration":47685,"SoundDuration":47685,"Delta":100537935},{"NoteNumber":83,"Velocity":73,"Duration":44117,"SoundDuration":44117,"Delta":100665097},{"NoteNumber":63,"Velocity":66,"Duration":44117,"SoundDuration":44117,"Delta":100782744},{"NoteNumber":59,"Velocity":49,"Duration":44117,"SoundDuration":44117,"Delta":100782744},{"NoteNumber":64,"Velocity":68,"Duration":44117,"SoundDuration":44117,"Delta":100900391},{"NoteNumber":61,"Velocity":51,"Duration":44117,"SoundDuration":44117,"Delta":100900391},{"NoteNumber":63,"Velocity":58,"Duration":43862,"SoundDuration":43862,"Delta":101018038},{"NoteNumber":66,"Velocity":79,"Duration":43862,"SoundDuration":43862,"Delta":101018038},{"NoteNumber":68,"Velocity":71,"Duration":43352,"SoundDuration":43352,"Delta":101134155},{"NoteNumber":64,"Velocity":60,"Duration":43352,"SoundDuration":43352,"Delta":101134155},{"NoteNumber":59,"Velocity":55,"Duration":43352,"SoundDuration":43352,"Delta":101134155},{"NoteNumber":66,"Velocity":61,"Duration":43478,"SoundDuration":43478,"Delta":101249929},{"NoteNumber":69,"Velocity":72,"Duration":43478,"SoundDuration":43478,"Delta":101249929},{"NoteNumber":61,"Velocity":57,"Duration":43478,"SoundDuration":43478,"Delta":101249929},{"NoteNumber":68,"Velocity":62,"Duration":43604,"SoundDuration":43604,"Delta":101366040},{"NoteNumber":71,"Velocity":74,"Duration":43604,"SoundDuration":43604,"Delta":101366040},{"NoteNumber":59,"Velocity":50,"Duration":43604,"SoundDuration":43604,"Delta":101366040},{"NoteNumber":63,"Velocity":59,"Duration":43604,"SoundDuration":43604,"Delta":101366040},{"NoteNumber":69,"Velocity":63,"Duration":43731,"SoundDuration":43731,"Delta":101482488},{"NoteNumber":73,"Velocity":75,"Duration":43731,"SoundDuration":43731,"Delta":101482488},{"NoteNumber":64,"Velocity":61,"Duration":43731,"SoundDuration":43731,"Delta":101482488},{"NoteNumber":71,"Velocity":65,"Duration":43859,"SoundDuration":43859,"Delta":101599277},{"NoteNumber":75,"Velocity":77,"Duration":43859,"SoundDuration":43859,"Delta":101599277},{"NoteNumber":66,"Velocity":63,"Duration":43859,"SoundDuration":43859,"Delta":101599277},{"NoteNumber":76,"Velocity":57,"Duration":40871,"SoundDuration":40871,"Delta":101716486},{"NoteNumber":64,"Velocity":54,"Duration":40871,"SoundDuration":40871,"Delta":101716486},{"NoteNumber":68,"Velocity":54,"Duration":40871,"SoundDuration":40871,"Delta":101716486},{"NoteNumber":80,"Velocity":49,"Duration":40871,"SoundDuration":40871,"Delta":101798230},{"NoteNumber":83,"Velocity":48,"Duration":40871,"SoundDuration":40871,"Delta":101879974},{"NoteNumber":76,"Velocity":46,"Duration":41666,"SoundDuration":41666,"Delta":101961718},{"NoteNumber":76,"Velocity":52,"Duration":41666,"SoundDuration":41666,"Delta":102045051},{"NoteNumber":83,"Velocity":49,"Duration":40871,"SoundDuration":40871,"Delta":102128384},{"NoteNumber":80,"Velocity":47,"Duration":40871,"SoundDuration":40871,"Delta":102210128},{"NoteNumber":76,"Velocity":47,"Duration":45347,"SoundDuration":45347,"Delta":102291872},{"NoteNumber":76,"Velocity":57,"Duration":40871,"SoundDuration":40871,"Delta":102382566},{"NoteNumber":64,"Velocity":48,"Duration":40871,"SoundDuration":40871,"Delta":102382566},{"NoteNumber":81,"Velocity":49,"Duration":40871,"SoundDuration":40871,"Delta":102464310},{"NoteNumber":84,"Velocity":48,"Duration":40871,"SoundDuration":40871,"Delta":102546054},{"NoteNumber":76,"Velocity":46,"Duration":41782,"SoundDuration":41782,"Delta":102627798},{"NoteNumber":76,"Velocity":53,"Duration":41782,"SoundDuration":41782,"Delta":102711363},{"NoteNumber":84,"Velocity":48,"Duration":40983,"SoundDuration":40983,"Delta":102794929},{"NoteNumber":81,"Velocity":47,"Duration":40983,"SoundDuration":40983,"Delta":102876896},{"NoteNumber":76,"Velocity":47,"Duration":44688,"SoundDuration":44688,"Delta":102958863},{"NoteNumber":76,"Velocity":57,"Duration":40871,"SoundDuration":40871,"Delta":103048239},{"NoteNumber":64,"Velocity":48,"Duration":40871,"SoundDuration":40871,"Delta":103048239},{"NoteNumber":80,"Velocity":49,"Duration":40871,"SoundDuration":40871,"Delta":103129983},{"NoteNumber":83,"Velocity":48,"Duration":40871,"SoundDuration":40871,"Delta":103211727},{"NoteNumber":76,"Velocity":48,"Duration":41666,"SoundDuration":41666,"Delta":103293471},{"NoteNumber":76,"Velocity":56,"Duration":41666,"SoundDuration":41666,"Delta":103376804},{"NoteNumber":83,"Velocity":47,"Duration":40871,"SoundDuration":40871,"Delta":103460137},{"NoteNumber":80,"Velocity":47,"Duration":40871,"SoundDuration":40871,"Delta":103541881},{"NoteNumber":76,"Velocity":47,"Duration":45347,"SoundDuration":45347,"Delta":103623625},{"NoteNumber":75,"Velocity":57,"Duration":40983,"SoundDuration":40983,"Delta":103714319},{"NoteNumber":64,"Velocity":48,"Duration":40983,"SoundDuration":40983,"Delta":103714319},{"NoteNumber":78,"Velocity":49,"Duration":40983,"SoundDuration":40983,"Delta":103796287},{"NoteNumber":83,"Velocity":48,"Duration":40983,"SoundDuration":40983,"Delta":103878254},{"NoteNumber":76,"Velocity":47,"Duration":41899,"SoundDuration":41899,"Delta":103960221},{"NoteNumber":76,"Velocity":55,"Duration":41899,"SoundDuration":41899,"Delta":104044020},{"NoteNumber":83,"Velocity":53,"Duration":40983,"SoundDuration":40983,"Delta":104127819},{"NoteNumber":78,"Velocity":47,"Duration":40983,"SoundDuration":40983,"Delta":104209786},{"NoteNumber":75,"Velocity":47,"Duration":44961,"SoundDuration":44961,"Delta":104291754},{"NoteNumber":73,"Velocity":57,"Duration":41095,"SoundDuration":41095,"Delta":104381676},{"NoteNumber":64,"Velocity":48,"Duration":41095,"SoundDuration":41095,"Delta":104381676},{"NoteNumber":76,"Velocity":49,"Duration":41095,"SoundDuration":41095,"Delta":104463868},{"NoteNumber":81,"Velocity":48,"Duration":41095,"SoundDuration":41095,"Delta":104546060},{"NoteNumber":76,"Velocity":46,"Duration":41899,"SoundDuration":41899,"Delta":104628252},{"NoteNumber":76,"Velocity":56,"Duration":41899,"SoundDuration":41899,"Delta":104712051},{"NoteNumber":81,"Velocity":49,"Duration":40983,"SoundDuration":40983,"Delta":104795850},{"NoteNumber":76,"Velocity":47,"Duration":40983,"SoundDuration":40983,"Delta":104877817},{"NoteNumber":73,"Velocity":47,"Duration":45347,"SoundDuration":45347,"Delta":104959784},{"NoteNumber":71,"Velocity":57,"Duration":40871,"SoundDuration":40871,"Delta":105050479},{"NoteNumber":64,"Velocity":48,"Duration":40871,"SoundDuration":40871,"Delta":105050479},{"NoteNumber":75,"Velocity":49,"Duration":40871,"SoundDuration":40871,"Delta":105132223},{"NoteNumber":80,"Velocity":48,"Duration":40871,"SoundDuration":40871,"Delta":105213966},{"NoteNumber":76,"Velocity":47,"Duration":41782,"SoundDuration":41782,"Delta":105295710},{"NoteNumber":76,"Velocity":55,"Duration":41782,"SoundDuration":41782,"Delta":105379276},{"NoteNumber":80,"Velocity":49,"Duration":40871,"SoundDuration":40871,"Delta":105462841},{"NoteNumber":75,"Velocity":47,"Duration":40871,"SoundDuration":40871,"Delta":105544585},{"NoteNumber":71,"Velocity":43,"Duration":44824,"SoundDuration":44824,"Delta":105626329},{"NoteNumber":69,"Velocity":57,"Duration":40871,"SoundDuration":40871,"Delta":105715977},{"NoteNumber":64,"Velocity":48,"Duration":40871,"SoundDuration":40871,"Delta":105715977},{"NoteNumber":73,"Velocity":49,"Duration":40871,"SoundDuration":40871,"Delta":105797721},{"NoteNumber":78,"Velocity":50,"Duration":40871,"SoundDuration":40871,"Delta":105879465},{"NoteNumber":76,"Velocity":45,"Duration":41782,"SoundDuration":41782,"Delta":105961208},{"NoteNumber":76,"Velocity":53,"Duration":41782,"SoundDuration":41782,"Delta":106044774},{"NoteNumber":78,"Velocity":46,"Duration":40871,"SoundDuration":40871,"Delta":106128339},{"NoteNumber":73,"Velocity":47,"Duration":40871,"SoundDuration":40871,"Delta":106210083},{"NoteNumber":69,"Velocity":47,"Duration":45347,"SoundDuration":45347,"Delta":106291827},{"NoteNumber":66,"Velocity":57,"Duration":40983,"SoundDuration":40983,"Delta":106382522},{"NoteNumber":69,"Velocity":49,"Duration":40983,"SoundDuration":40983,"Delta":106464489},{"NoteNumber":75,"Velocity":48,"Duration":40983,"SoundDuration":40983,"Delta":106546456},{"NoteNumber":76,"Velocity":47,"Duration":41782,"SoundDuration":41782,"Delta":106628423},{"NoteNumber":76,"Velocity":55,"Duration":41782,"SoundDuration":41782,"Delta":106711989},{"NoteNumber":75,"Velocity":47,"Duration":41516,"SoundDuration":41516,"Delta":106795554},{"NoteNumber":69,"Velocity":47,"Duration":40983,"SoundDuration":40983,"Delta":106878054},{"NoteNumber":66,"Velocity":41,"Duration":44550,"SoundDuration":44550,"Delta":106960022},{"NoteNumber":64,"Velocity":57,"Duration":41096,"SoundDuration":41096,"Delta":107049122},{"NoteNumber":68,"Velocity":49,"Duration":39787,"SoundDuration":39787,"Delta":107130542},{"NoteNumber":76,"Velocity":48,"Duration":39787,"SoundDuration":39787,"Delta":107210117},{"NoteNumber":76,"Velocity":47,"Duration":41899,"SoundDuration":41899,"Delta":107289693},{"NoteNumber":76,"Velocity":53,"Duration":41899,"SoundDuration":41899,"Delta":107373492},{"NoteNumber":76,"Velocity":51,"Duration":40107,"SoundDuration":40107,"Delta":107457291},{"NoteNumber":68,"Velocity":45,"Duration":40107,"SoundDuration":40107,"Delta":107537505},{"NoteNumber":64,"Velocity":39,"Duration":44510,"SoundDuration":44510,"Delta":107617719},{"NoteNumber":65,"Velocity":61,"Duration":41209,"SoundDuration":41209,"Delta":107705753},{"NoteNumber":69,"Velocity":52,"Duration":40071,"SoundDuration":40071,"Delta":107787577},{"NoteNumber":75,"Velocity":53,"Duration":40000,"SoundDuration":40000,"Delta":107867648},{"NoteNumber":76,"Velocity":51,"Duration":42134,"SoundDuration":42134,"Delta":107947648},{"NoteNumber":76,"Velocity":61,"Duration":42134,"SoundDuration":42134,"Delta":108031918},{"NoteNumber":75,"Velocity":54,"Duration":40214,"SoundDuration":40214,"Delta":108116188},{"NoteNumber":69,"Velocity":47,"Duration":40214,"SoundDuration":40214,"Delta":108196617},{"NoteNumber":65,"Velocity":46,"Duration":46153,"SoundDuration":46153,"Delta":108277046},{"NoteNumber":64,"Velocity":66,"Duration":41437,"SoundDuration":41437,"Delta":108369354},{"NoteNumber":68,"Velocity":57,"Duration":40107,"SoundDuration":40107,"Delta":108451553},{"NoteNumber":76,"Velocity":56,"Duration":39893,"SoundDuration":39893,"Delta":108531554},{"NoteNumber":76,"Velocity":56,"Duration":41551,"SoundDuration":41551,"Delta":108611341},{"NoteNumber":76,"Velocity":63,"Duration":41551,"SoundDuration":41551,"Delta":108694444},{"NoteNumber":76,"Velocity":56,"Duration":40322,"SoundDuration":40322,"Delta":108777546},{"NoteNumber":68,"Velocity":53,"Duration":40322,"SoundDuration":40322,"Delta":108858192},{"NoteNumber":64,"Velocity":45,"Duration":46549,"SoundDuration":46549,"Delta":108938837},{"NoteNumber":65,"Velocity":69,"Duration":41899,"SoundDuration":41899,"Delta":109031935},{"NoteNumber":69,"Velocity":62,"Duration":41899,"SoundDuration":41899,"Delta":109115734},{"NoteNumber":75,"Velocity":62,"Duration":41899,"SoundDuration":41899,"Delta":109199533},{"NoteNumber":76,"Velocity":57,"Duration":41899,"SoundDuration":41899,"Delta":109283332},{"NoteNumber":76,"Velocity":65,"Duration":42933,"SoundDuration":42933,"Delta":109367131},{"NoteNumber":75,"Velocity":59,"Duration":43212,"SoundDuration":43212,"Delta":109453090},{"NoteNumber":69,"Velocity":57,"Duration":43543,"SoundDuration":43543,"Delta":109539608},{"NoteNumber":65,"Velocity":49,"Duration":43830,"SoundDuration":43830,"Delta":109626789},{"NoteNumber":64,"Velocity":86,"Duration":44073,"SoundDuration":44073,"Delta":109714644},{"NoteNumber":68,"Velocity":76,"Duration":44073,"SoundDuration":44073,"Delta":109890939},{"NoteNumber":76,"Velocity":76,"Duration":44073,"SoundDuration":44073,"Delta":109890939},{"NoteNumber":64,"Velocity":86,"Duration":43867,"SoundDuration":43867,"Delta":110426579},{"NoteNumber":68,"Velocity":78,"Duration":43867,"SoundDuration":43867,"Delta":110602049},{"NoteNumber":80,"Velocity":78,"Duration":43867,"SoundDuration":43867,"Delta":110602049},{"NoteNumber":76,"Velocity":78,"Duration":43867,"SoundDuration":43867,"Delta":110602049},{"NoteNumber":64,"Velocity":64,"Duration":45046,"SoundDuration":45046,"Delta":111150258},{"NoteNumber":68,"Velocity":55,"Duration":45053,"SoundDuration":45053,"Delta":111240358},{"NoteNumber":76,"Velocity":54,"Duration":45188,"SoundDuration":45188,"Delta":111330579},{"NoteNumber":76,"Velocity":51,"Duration":45325,"SoundDuration":45325,"Delta":111421003},{"NoteNumber":76,"Velocity":58,"Duration":45378,"SoundDuration":45378,"Delta":111511653},{"NoteNumber":80,"Velocity":50,"Duration":45462,"SoundDuration":45462,"Delta":111602494},{"NoteNumber":71,"Velocity":51,"Duration":45600,"SoundDuration":45600,"Delta":111693537},{"NoteNumber":68,"Velocity":51,"Duration":48669,"SoundDuration":48669,"Delta":111784785},{"NoteNumber":64,"Velocity":62,"Duration":46527,"SoundDuration":46527,"Delta":111882125},{"NoteNumber":68,"Velocity":53,"Duration":46694,"SoundDuration":46694,"Delta":111975245},{"NoteNumber":76,"Velocity":51,"Duration":46822,"SoundDuration":46822,"Delta":112068677},{"NoteNumber":76,"Velocity":49,"Duration":46954,"SoundDuration":46954,"Delta":112162384},{"NoteNumber":76,"Velocity":57,"Duration":47149,"SoundDuration":47149,"Delta":112256369},{"NoteNumber":80,"Velocity":56,"Duration":47178,"SoundDuration":47178,"Delta":112350697},{"NoteNumber":71,"Velocity":50,"Duration":60299,"SoundDuration":60299,"Delta":112445055},{"NoteNumber":68,"Velocity":49,"Duration":120967,"SoundDuration":120967,"Delta":112565653},{"NoteNumber":64,"Velocity":55,"Duration":1340782,"SoundDuration":1340782,"Delta":112807588},{"NoteNumber":68,"Velocity":55,"Duration":1340782,"SoundDuration":1340782,"Delta":112807588},{"NoteNumber":76,"Velocity":55,"Duration":1340782,"SoundDuration":1340782,"Delta":112807588}],"license":{"name":"Creative Commons Attribution-ShareAlike 3.0 Germany","url":"http://creativecommons.org/licenses/by-sa/3.0/de/deed.en","text":"The MIDI, audio (MP3, OGG) and video files of Bernd Krueger are licensed under the cc-by-sa Germany License. This means that you can use and adapt the files, as long as you attribute the copyright holder.\n\nName: Bernd Krueger\nSource: http://www.piano-midi.de\n\nThe distribution or public playback of the files is only allowed under identical license conditions.\n\nThe scores are open source.","attribution":"MIDI files by Bernd Krueger (piano-midi.de)","attributionUrl":"http://www.piano-midi.de"}}