{"title":"Feux Follets (Irrlichter)","artist":"Liszt","durationMs":195741,"midiSha256":"e0c46f463ccd7f19f5dc0179b1fa89bc447c1b4187c69a1e88a75f5b69191f96","midiObject":[{"NoteNumber":65,"Velocity":37,"Duration":92307,"SoundDuration":92307,"Delta":0},{"NoteNumber":66,"Velocity":37,"Duration":92307,"SoundDuration":92307,"Delta":76923},{"NoteNumber":65,"Velocity":37,"Duration":92242,"SoundDuration":92242,"Delta":153846},{"NoteNumber":67,"Velocity":38,"Duration":91849,"SoundDuration":91849,"Delta":230769},{"NoteNumber":68,"Velocity":38,"Duration":91836,"SoundDuration":91836,"Delta":307313},{"NoteNumber":69,"Velocity":38,"Duration":91836,"SoundDuration":91836,"Delta":383844},{"NoteNumber":68,"Velocity":39,"Duration":91836,"SoundDuration":91836,"Delta":460374},{"NoteNumber":70,"Velocity":39,"Duration":91448,"SoundDuration":91448,"Delta":536905},{"NoteNumber":71,"Velocity":39,"Duration":91370,"SoundDuration":91370,"Delta":613125},{"NoteNumber":72,"Velocity":41,"Duration":91370,"SoundDuration":91370,"Delta":689267},{"NoteNumber":71,"Velocity":41,"Duration":91370,"SoundDuration":91370,"Delta":765409},{"NoteNumber":73,"Velocity":41,"Duration":91050,"SoundDuration":91050,"Delta":841551},{"NoteNumber":74,"Velocity":42,"Duration":90909,"SoundDuration":90909,"Delta":917450},{"NoteNumber":75,"Velocity":42,"Duration":90909,"SoundDuration":90909,"Delta":993207},{"NoteNumber":74,"Velocity":42,"Duration":90909,"SoundDuration":90909,"Delta":1068965},{"NoteNumber":76,"Velocity":43,"Duration":90648,"SoundDuration":90648,"Delta":1144723},{"NoteNumber":77,"Velocity":43,"Duration":90452,"SoundDuration":90452,"Delta":1220296},{"NoteNumber":78,"Velocity":43,"Duration":90452,"SoundDuration":90452,"Delta":1295673},{"NoteNumber":77,"Velocity":44,"Duration":90452,"SoundDuration":90452,"Delta":1371050},{"NoteNumber":53,"Velocity":33,"Duration":1889999,"SoundDuration":1889999,"Delta":1408738},{"NoteNumber":79,"Velocity":44,"Duration":90257,"SoundDuration":90257,"Delta":1446427},{"NoteNumber":59,"Velocity":37,"Duration":673702,"SoundDuration":673702,"Delta":1446427},{"NoteNumber":62,"Velocity":41,"Duration":636014,"SoundDuration":636014,"Delta":1484115},{"NoteNumber":80,"Velocity":44,"Duration":90000,"SoundDuration":90000,"Delta":1521684},{"NoteNumber":68,"Velocity":51,"Duration":895474,"SoundDuration":895474,"Delta":1521684},{"NoteNumber":81,"Velocity":45,"Duration":90000,"SoundDuration":90000,"Delta":1596684},{"NoteNumber":80,"Velocity":45,"Duration":89999,"SoundDuration":89999,"Delta":1671684},{"NoteNumber":82,"Velocity":45,"Duration":89863,"SoundDuration":89863,"Delta":1746684},{"NoteNumber":83,"Velocity":45,"Duration":89552,"SoundDuration":89552,"Delta":1821622},{"NoteNumber":84,"Velocity":45,"Duration":89552,"SoundDuration":89552,"Delta":1896249},{"NoteNumber":83,"Velocity":45,"Duration":89552,"SoundDuration":89552,"Delta":1970876},{"NoteNumber":86,"Velocity":46,"Duration":89478,"SoundDuration":89478,"Delta":2045503},{"NoteNumber":60,"Velocity":29,"Duration":887565,"SoundDuration":887565,"Delta":2082816},{"NoteNumber":84,"Velocity":46,"Duration":89108,"SoundDuration":89108,"Delta":2120130},{"NoteNumber":63,"Velocity":41,"Duration":886837,"SoundDuration":886837,"Delta":2120130},{"NoteNumber":85,"Velocity":46,"Duration":89108,"SoundDuration":89108,"Delta":2194387},{"NoteNumber":84,"Velocity":48,"Duration":89108,"SoundDuration":89108,"Delta":2268644},{"NoteNumber":86,"Velocity":48,"Duration":89108,"SoundDuration":89108,"Delta":2342902},{"NoteNumber":87,"Velocity":48,"Duration":89108,"SoundDuration":89108,"Delta":2417159},{"NoteNumber":67,"Velocity":44,"Duration":296090,"SoundDuration":296090,"Delta":2417159},{"NoteNumber":89,"Velocity":49,"Duration":88828,"SoundDuration":88828,"Delta":2491417},{"NoteNumber":87,"Velocity":49,"Duration":88669,"SoundDuration":88669,"Delta":2565467},{"NoteNumber":90,"Velocity":49,"Duration":88597,"SoundDuration":88597,"Delta":2639358},{"NoteNumber":91,"Velocity":50,"Duration":88235,"SoundDuration":88235,"Delta":2713250},{"NoteNumber":63,"Velocity":48,"Duration":585488,"SoundDuration":585488,"Delta":2713250},{"NoteNumber":92,"Velocity":50,"Duration":88235,"SoundDuration":88235,"Delta":2786779},{"NoteNumber":91,"Velocity":50,"Duration":88121,"SoundDuration":88121,"Delta":2860309},{"NoteNumber":95,"Velocity":51,"Duration":87804,"SoundDuration":87804,"Delta":2933796},{"NoteNumber":96,"Velocity":51,"Duration":87804,"SoundDuration":87804,"Delta":3006967},{"NoteNumber":60,"Velocity":44,"Duration":291771,"SoundDuration":291771,"Delta":3006967},{"NoteNumber":97,"Velocity":51,"Duration":87532,"SoundDuration":87532,"Delta":3080138},{"NoteNumber":96,"Velocity":52,"Duration":87378,"SoundDuration":87378,"Delta":3153107},{"NoteNumber":98,"Velocity":52,"Duration":87378,"SoundDuration":87378,"Delta":3225923},{"NoteNumber":99,"Velocity":54,"Duration":72815,"SoundDuration":72815,"Delta":3298738},{"NoteNumber":98,"Velocity":54,"Duration":72815,"SoundDuration":72815,"Delta":3371554},{"NoteNumber":99,"Velocity":53,"Duration":72815,"SoundDuration":72815,"Delta":3444369},{"NoteNumber":97,"Velocity":53,"Duration":72815,"SoundDuration":72815,"Delta":3517185},{"NoteNumber":96,"Velocity":52,"Duration":72815,"SoundDuration":72815,"Delta":3590000},{"NoteNumber":95,"Velocity":52,"Duration":73129,"SoundDuration":73129,"Delta":3662816},{"NoteNumber":96,"Velocity":51,"Duration":73170,"SoundDuration":73170,"Delta":3735945},{"NoteNumber":94,"Velocity":51,"Duration":73170,"SoundDuration":73170,"Delta":3809116},{"NoteNumber":93,"Velocity":50,"Duration":73170,"SoundDuration":73170,"Delta":3882286},{"NoteNumber":92,"Velocity":50,"Duration":73170,"SoundDuration":73170,"Delta":3955457},{"NoteNumber":93,"Velocity":49,"Duration":73326,"SoundDuration":73326,"Delta":4028628},{"NoteNumber":91,"Velocity":49,"Duration":73529,"SoundDuration":73529,"Delta":4101954},{"NoteNumber":90,"Velocity":48,"Duration":73529,"SoundDuration":73529,"Delta":4175483},{"NoteNumber":89,"Velocity":48,"Duration":73529,"SoundDuration":73529,"Delta":4249013},{"NoteNumber":90,"Velocity":46,"Duration":73529,"SoundDuration":73529,"Delta":4322542},{"NoteNumber":88,"Velocity":45,"Duration":73529,"SoundDuration":73529,"Delta":4396072},{"NoteNumber":87,"Velocity":44,"Duration":72815,"SoundDuration":72815,"Delta":4469601},{"NoteNumber":86,"Velocity":44,"Duration":72815,"SoundDuration":72815,"Delta":4542416},{"NoteNumber":87,"Velocity":44,"Duration":73087,"SoundDuration":73087,"Delta":4615232},{"NoteNumber":85,"Velocity":43,"Duration":73170,"SoundDuration":73170,"Delta":4688320},{"NoteNumber":84,"Velocity":43,"Duration":73469,"SoundDuration":73469,"Delta":4761491},{"NoteNumber":83,"Velocity":43,"Duration":73529,"SoundDuration":73529,"Delta":4834960},{"NoteNumber":84,"Velocity":42,"Duration":73746,"SoundDuration":73746,"Delta":4908490},{"NoteNumber":53,"Velocity":31,"Duration":1889597,"SoundDuration":1889597,"Delta":4908490},{"NoteNumber":57,"Velocity":33,"Duration":595761,"SoundDuration":595761,"Delta":4945290},{"NoteNumber":82,"Velocity":42,"Duration":73891,"SoundDuration":73891,"Delta":4982236},{"NoteNumber":60,"Velocity":36,"Duration":558815,"SoundDuration":558815,"Delta":4982236},{"NoteNumber":63,"Velocity":38,"Duration":521869,"SoundDuration":521869,"Delta":5019182},{"NoteNumber":81,"Velocity":41,"Duration":74141,"SoundDuration":74141,"Delta":5056128},{"NoteNumber":66,"Velocity":41,"Duration":1218840,"SoundDuration":1218840,"Delta":5056128},{"NoteNumber":80,"Velocity":41,"Duration":74257,"SoundDuration":74257,"Delta":5130269},{"NoteNumber":81,"Velocity":41,"Duration":74540,"SoundDuration":74540,"Delta":5204527},{"NoteNumber":79,"Velocity":39,"Duration":74626,"SoundDuration":74626,"Delta":5279068},{"NoteNumber":78,"Velocity":39,"Duration":74819,"SoundDuration":74819,"Delta":5353694},{"NoteNumber":77,"Velocity":38,"Duration":74999,"SoundDuration":74999,"Delta":5428514},{"NoteNumber":78,"Velocity":38,"Duration":75226,"SoundDuration":75226,"Delta":5503514},{"NoteNumber":75,"Velocity":37,"Duration":75376,"SoundDuration":75376,"Delta":5578740},{"NoteNumber":58,"Velocity":32,"Duration":1181658,"SoundDuration":1181658,"Delta":5616429},{"NoteNumber":74,"Velocity":37,"Duration":75637,"SoundDuration":75637,"Delta":5654117},{"NoteNumber":62,"Velocity":43,"Duration":620850,"SoundDuration":620850,"Delta":5654117},{"NoteNumber":73,"Velocity":37,"Duration":76592,"SoundDuration":76592,"Delta":5729754},{"NoteNumber":74,"Velocity":36,"Duration":77227,"SoundDuration":77227,"Delta":5806347},{"NoteNumber":72,"Velocity":36,"Duration":77513,"SoundDuration":77513,"Delta":5883574},{"NoteNumber":70,"Velocity":36,"Duration":77929,"SoundDuration":77929,"Delta":5961087},{"NoteNumber":65,"Velocity":31,"Duration":313880,"SoundDuration":313880,"Delta":5961087},{"NoteNumber":69,"Velocity":36,"Duration":78220,"SoundDuration":78220,"Delta":6039017},{"NoteNumber":70,"Velocity":36,"Duration":78651,"SoundDuration":78651,"Delta":6117237},{"NoteNumber":68,"Velocity":35,"Duration":79079,"SoundDuration":79079,"Delta":6195888},{"NoteNumber":67,"Velocity":35,"Duration":79379,"SoundDuration":79379,"Delta":6274968},{"NoteNumber":61,"Velocity":41,"Duration":319974,"SoundDuration":319974,"Delta":6274968},{"NoteNumber":66,"Velocity":33,"Duration":79822,"SoundDuration":79822,"Delta":6354347},{"NoteNumber":67,"Velocity":33,"Duration":80213,"SoundDuration":80213,"Delta":6434170},{"NoteNumber":65,"Velocity":33,"Duration":80558,"SoundDuration":80558,"Delta":6514384},{"NoteNumber":73,"Velocity":32,"Duration":81008,"SoundDuration":81008,"Delta":6594943},{"NoteNumber":58,"Velocity":30,"Duration":203144,"SoundDuration":203144,"Delta":6594943},{"NoteNumber":70,"Velocity":32,"Duration":81330,"SoundDuration":81330,"Delta":6675951},{"NoteNumber":67,"Velocity":31,"Duration":81789,"SoundDuration":81789,"Delta":6757282},{"NoteNumber":53,"Velocity":30,"Duration":495907,"SoundDuration":495907,"Delta":6798087},{"NoteNumber":65,"Velocity":31,"Duration":82252,"SoundDuration":82252,"Delta":6839071},{"NoteNumber":55,"Velocity":30,"Duration":454923,"SoundDuration":454923,"Delta":6839071},{"NoteNumber":58,"Velocity":30,"Duration":413879,"SoundDuration":413879,"Delta":6880115},{"NoteNumber":64,"Velocity":38,"Duration":372671,"SoundDuration":372671,"Delta":6921324},{"NoteNumber":61,"Velocity":30,"Duration":372671,"SoundDuration":372671,"Delta":6921324},{"NoteNumber":97,"Velocity":43,"Duration":75757,"SoundDuration":75757,"Delta":7595807},{"NoteNumber":88,"Velocity":30,"Duration":75757,"SoundDuration":75757,"Delta":7595807},{"NoteNumber":91,"Velocity":30,"Duration":75757,"SoundDuration":75757,"Delta":7595807},{"NoteNumber":94,"Velocity":43,"Duration":75789,"SoundDuration":75789,"Delta":7671565},{"NoteNumber":90,"Velocity":42,"Duration":76142,"SoundDuration":76142,"Delta":7747355},{"NoteNumber":81,"Velocity":26,"Duration":76142,"SoundDuration":76142,"Delta":7747355},{"NoteNumber":84,"Velocity":26,"Duration":76142,"SoundDuration":76142,"Delta":7747355},{"NoteNumber":87,"Velocity":41,"Duration":76142,"SoundDuration":76142,"Delta":7823497},{"NoteNumber":91,"Velocity":41,"Duration":76219,"SoundDuration":76219,"Delta":7899639},{"NoteNumber":85,"Velocity":26,"Duration":76219,"SoundDuration":76219,"Delta":7899639},{"NoteNumber":82,"Velocity":26,"Duration":76219,"SoundDuration":76219,"Delta":7899639},{"NoteNumber":88,"Velocity":39,"Duration":76530,"SoundDuration":76530,"Delta":7975859},{"NoteNumber":84,"Velocity":39,"Duration":76530,"SoundDuration":76530,"Delta":8052389},{"NoteNumber":75,"Velocity":26,"Duration":76530,"SoundDuration":76530,"Delta":8052389},{"NoteNumber":78,"Velocity":26,"Duration":76530,"SoundDuration":76530,"Delta":8052389},{"NoteNumber":81,"Velocity":38,"Duration":76654,"SoundDuration":76654,"Delta":8128920},{"NoteNumber":85,"Velocity":37,"Duration":76923,"SoundDuration":76923,"Delta":8205575},{"NoteNumber":76,"Velocity":30,"Duration":76923,"SoundDuration":76923,"Delta":8205575},{"NoteNumber":79,"Velocity":30,"Duration":76923,"SoundDuration":76923,"Delta":8205575},{"NoteNumber":82,"Velocity":36,"Duration":76923,"SoundDuration":76923,"Delta":8282498},{"NoteNumber":78,"Velocity":36,"Duration":76923,"SoundDuration":76923,"Delta":8359421},{"NoteNumber":72,"Velocity":26,"Duration":76923,"SoundDuration":76923,"Delta":8359421},{"NoteNumber":69,"Velocity":26,"Duration":76923,"SoundDuration":76923,"Delta":8359421},{"NoteNumber":75,"Velocity":36,"Duration":76923,"SoundDuration":76923,"Delta":8436344},{"NoteNumber":79,"Velocity":35,"Duration":76923,"SoundDuration":76923,"Delta":8513267},{"NoteNumber":73,"Velocity":26,"Duration":76923,"SoundDuration":76923,"Delta":8513267},{"NoteNumber":70,"Velocity":26,"Duration":76923,"SoundDuration":76923,"Delta":8513267},{"NoteNumber":76,"Velocity":35,"Duration":76923,"SoundDuration":76923,"Delta":8590190},{"NoteNumber":72,"Velocity":33,"Duration":76923,"SoundDuration":76923,"Delta":8667114},{"NoteNumber":63,"Velocity":26,"Duration":76923,"SoundDuration":76923,"Delta":8667114},{"NoteNumber":66,"Velocity":26,"Duration":76923,"SoundDuration":76923,"Delta":8667114},{"NoteNumber":69,"Velocity":32,"Duration":76923,"SoundDuration":76923,"Delta":8744037},{"NoteNumber":73,"Velocity":32,"Duration":77759,"SoundDuration":77759,"Delta":8820960},{"NoteNumber":64,"Velocity":30,"Duration":77759,"SoundDuration":77759,"Delta":8820960},{"NoteNumber":67,"Velocity":30,"Duration":77759,"SoundDuration":77759,"Delta":8820960},{"NoteNumber":70,"Velocity":31,"Duration":82574,"SoundDuration":82574,"Delta":8898719},{"NoteNumber":66,"Velocity":31,"Duration":88165,"SoundDuration":88165,"Delta":8981294},{"NoteNumber":57,"Velocity":27,"Duration":88165,"SoundDuration":88165,"Delta":8981294},{"NoteNumber":60,"Velocity":27,"Duration":88165,"SoundDuration":88165,"Delta":8981294},{"NoteNumber":64,"Velocity":30,"Duration":80740,"SoundDuration":80740,"Delta":9069460},{"NoteNumber":64,"Velocity":30,"Duration":158459,"SoundDuration":158459,"Delta":9150200},{"NoteNumber":67,"Velocity":30,"Duration":158459,"SoundDuration":158459,"Delta":9150200},{"NoteNumber":58,"Velocity":30,"Duration":158459,"SoundDuration":158459,"Delta":9150200},{"NoteNumber":61,"Velocity":30,"Duration":158459,"SoundDuration":158459,"Delta":9150200},{"NoteNumber":41,"Velocity":36,"Duration":97402,"SoundDuration":97402,"Delta":9523406},{"NoteNumber":85,"Velocity":39,"Duration":82872,"SoundDuration":82872,"Delta":9718211},{"NoteNumber":76,"Velocity":33,"Duration":82872,"SoundDuration":82872,"Delta":9718211},{"NoteNumber":73,"Velocity":33,"Duration":82872,"SoundDuration":82872,"Delta":9718211},{"NoteNumber":53,"Velocity":18,"Duration":82872,"SoundDuration":82872,"Delta":9718211},{"NoteNumber":67,"Velocity":23,"Duration":82872,"SoundDuration":82872,"Delta":9718211},{"NoteNumber":58,"Velocity":18,"Duration":82872,"SoundDuration":82872,"Delta":9718211},{"NoteNumber":61,"Velocity":18,"Duration":82872,"SoundDuration":82872,"Delta":9718211},{"NoteNumber":84,"Velocity":35,"Duration":82872,"SoundDuration":82872,"Delta":9883957},{"NoteNumber":73,"Velocity":28,"Duration":82872,"SoundDuration":82872,"Delta":9883957},{"NoteNumber":76,"Velocity":28,"Duration":82872,"SoundDuration":82872,"Delta":9883957},{"NoteNumber":58,"Velocity":18,"Duration":82872,"SoundDuration":82872,"Delta":9883957},{"NoteNumber":61,"Velocity":18,"Duration":82872,"SoundDuration":82872,"Delta":9883957},{"NoteNumber":53,"Velocity":18,"Duration":82872,"SoundDuration":82872,"Delta":9883957},{"NoteNumber":67,"Velocity":23,"Duration":82872,"SoundDuration":82872,"Delta":9883957},{"NoteNumber":83,"Velocity":37,"Duration":82872,"SoundDuration":82872,"Delta":10049703},{"NoteNumber":76,"Velocity":31,"Duration":82872,"SoundDuration":82872,"Delta":10049703},{"NoteNumber":73,"Velocity":31,"Duration":82872,"SoundDuration":82872,"Delta":10049703},{"NoteNumber":67,"Velocity":23,"Duration":82872,"SoundDuration":82872,"Delta":10049703},{"NoteNumber":53,"Velocity":18,"Duration":82872,"SoundDuration":82872,"Delta":10049703},{"NoteNumber":58,"Velocity":18,"Duration":82872,"SoundDuration":82872,"Delta":10049703},{"NoteNumber":61,"Velocity":18,"Duration":82872,"SoundDuration":82872,"Delta":10049703},{"NoteNumber":73,"Velocity":28,"Duration":90361,"SoundDuration":90361,"Delta":10215448},{"NoteNumber":82,"Velocity":33,"Duration":90361,"SoundDuration":90361,"Delta":10215448},{"NoteNumber":76,"Velocity":28,"Duration":90361,"SoundDuration":90361,"Delta":10215448},{"NoteNumber":67,"Velocity":24,"Duration":90361,"SoundDuration":90361,"Delta":10215448},{"NoteNumber":53,"Velocity":20,"Duration":90361,"SoundDuration":90361,"Delta":10215448},{"NoteNumber":61,"Velocity":20,"Duration":90361,"SoundDuration":90361,"Delta":10215448},{"NoteNumber":58,"Velocity":20,"Duration":90361,"SoundDuration":90361,"Delta":10215448},{"NoteNumber":76,"Velocity":32,"Duration":83333,"SoundDuration":83333,"Delta":10396171},{"NoteNumber":73,"Velocity":32,"Duration":83333,"SoundDuration":83333,"Delta":10396171},{"NoteNumber":85,"Velocity":38,"Duration":83333,"SoundDuration":83333,"Delta":10396171},{"NoteNumber":67,"Velocity":27,"Duration":83333,"SoundDuration":83333,"Delta":10396171},{"NoteNumber":61,"Velocity":22,"Duration":83333,"SoundDuration":83333,"Delta":10396171},{"NoteNumber":58,"Velocity":22,"Duration":83333,"SoundDuration":83333,"Delta":10396171},{"NoteNumber":53,"Velocity":22,"Duration":83333,"SoundDuration":83333,"Delta":10396171},{"NoteNumber":73,"Velocity":35,"Duration":171428,"SoundDuration":171428,"Delta":10562838},{"NoteNumber":84,"Velocity":42,"Duration":85714,"SoundDuration":85714,"Delta":10562838},{"NoteNumber":76,"Velocity":35,"Duration":171428,"SoundDuration":171428,"Delta":10562838},{"NoteNumber":67,"Velocity":22,"Duration":342857,"SoundDuration":342857,"Delta":10562838},{"NoteNumber":53,"Velocity":18,"Duration":342857,"SoundDuration":342857,"Delta":10562838},{"NoteNumber":61,"Velocity":18,"Duration":342857,"SoundDuration":342857,"Delta":10562838},{"NoteNumber":58,"Velocity":18,"Duration":342857,"SoundDuration":342857,"Delta":10562838},{"NoteNumber":83,"Velocity":41,"Duration":85714,"SoundDuration":85714,"Delta":10648552},{"NoteNumber":82,"Velocity":39,"Duration":85714,"SoundDuration":85714,"Delta":10734267},{"NoteNumber":99,"Velocity":43,"Duration":75757,"SoundDuration":75757,"Delta":11248552},{"NoteNumber":93,"Velocity":30,"Duration":75757,"SoundDuration":75757,"Delta":11248552},{"NoteNumber":90,"Velocity":30,"Duration":75757,"SoundDuration":75757,"Delta":11248552},{"NoteNumber":96,"Velocity":43,"Duration":75789,"SoundDuration":75789,"Delta":11324310},{"NoteNumber":92,"Velocity":42,"Duration":76142,"SoundDuration":76142,"Delta":11400099},{"NoteNumber":83,"Velocity":26,"Duration":76142,"SoundDuration":76142,"Delta":11400099},{"NoteNumber":86,"Velocity":26,"Duration":76142,"SoundDuration":76142,"Delta":11400099},{"NoteNumber":89,"Velocity":41,"Duration":76142,"SoundDuration":76142,"Delta":11476242},{"NoteNumber":93,"Velocity":41,"Duration":76219,"SoundDuration":76219,"Delta":11552384},{"NoteNumber":84,"Velocity":26,"Duration":76219,"SoundDuration":76219,"Delta":11552384},{"NoteNumber":87,"Velocity":26,"Duration":76219,"SoundDuration":76219,"Delta":11552384},{"NoteNumber":90,"Velocity":39,"Duration":76530,"SoundDuration":76530,"Delta":11628604},{"NoteNumber":86,"Velocity":39,"Duration":76530,"SoundDuration":76530,"Delta":11705134},{"NoteNumber":80,"Velocity":26,"Duration":76530,"SoundDuration":76530,"Delta":11705134},{"NoteNumber":77,"Velocity":26,"Duration":76530,"SoundDuration":76530,"Delta":11705134},{"NoteNumber":83,"Velocity":38,"Duration":76654,"SoundDuration":76654,"Delta":11781665},{"NoteNumber":87,"Velocity":37,"Duration":76923,"SoundDuration":76923,"Delta":11858320},{"NoteNumber":78,"Velocity":30,"Duration":76923,"SoundDuration":76923,"Delta":11858320},{"NoteNumber":81,"Velocity":30,"Duration":76923,"SoundDuration":76923,"Delta":11858320},{"NoteNumber":84,"Velocity":36,"Duration":76923,"SoundDuration":76923,"Delta":11935243},{"NoteNumber":80,"Velocity":36,"Duration":76923,"SoundDuration":76923,"Delta":12012166},{"NoteNumber":74,"Velocity":26,"Duration":76923,"SoundDuration":76923,"Delta":12012166},{"NoteNumber":71,"Velocity":26,"Duration":76923,"SoundDuration":76923,"Delta":12012166},{"NoteNumber":77,"Velocity":36,"Duration":76923,"SoundDuration":76923,"Delta":12089089},{"NoteNumber":81,"Velocity":35,"Duration":76923,"SoundDuration":76923,"Delta":12166012},{"NoteNumber":72,"Velocity":26,"Duration":76923,"SoundDuration":76923,"Delta":12166012},{"NoteNumber":75,"Velocity":26,"Duration":76923,"SoundDuration":76923,"Delta":12166012},{"NoteNumber":78,"Velocity":35,"Duration":76923,"SoundDuration":76923,"Delta":12242935},{"NoteNumber":74,"Velocity":33,"Duration":76923,"SoundDuration":76923,"Delta":12319858},{"NoteNumber":65,"Velocity":26,"Duration":76923,"SoundDuration":76923,"Delta":12319858},{"NoteNumber":68,"Velocity":26,"Duration":76923,"SoundDuration":76923,"Delta":12319858},{"NoteNumber":71,"Velocity":32,"Duration":76923,"SoundDuration":76923,"Delta":12396782},{"NoteNumber":75,"Velocity":32,"Duration":76402,"SoundDuration":76402,"Delta":12473705},{"NoteNumber":69,"Velocity":30,"Duration":76402,"SoundDuration":76402,"Delta":12473705},{"NoteNumber":66,"Velocity":30,"Duration":76402,"SoundDuration":76402,"Delta":12473705},{"NoteNumber":72,"Velocity":31,"Duration":76720,"SoundDuration":76720,"Delta":12550107},{"NoteNumber":68,"Velocity":31,"Duration":77493,"SoundDuration":77493,"Delta":12626828},{"NoteNumber":62,"Velocity":27,"Duration":77493,"SoundDuration":77493,"Delta":12626828},{"NoteNumber":59,"Velocity":27,"Duration":77493,"SoundDuration":77493,"Delta":12626828},{"NoteNumber":65,"Velocity":30,"Duration":78241,"SoundDuration":78241,"Delta":12704321},{"NoteNumber":66,"Velocity":30,"Duration":158459,"SoundDuration":158459,"Delta":12782563},{"NoteNumber":69,"Velocity":30,"Duration":158459,"SoundDuration":158459,"Delta":12782563},{"NoteNumber":60,"Velocity":30,"Duration":158459,"SoundDuration":158459,"Delta":12782563},{"NoteNumber":63,"Velocity":30,"Duration":158459,"SoundDuration":158459,"Delta":12782563},{"NoteNumber":41,"Velocity":39,"Duration":97402,"SoundDuration":97402,"Delta":13417213},{"NoteNumber":90,"Velocity":46,"Duration":82872,"SoundDuration":82872,"Delta":13612018},{"NoteNumber":81,"Velocity":39,"Duration":82872,"SoundDuration":82872,"Delta":13612018},{"NoteNumber":78,"Velocity":39,"Duration":82872,"SoundDuration":82872,"Delta":13612018},{"NoteNumber":60,"Velocity":22,"Duration":82872,"SoundDuration":82872,"Delta":13612018},{"NoteNumber":63,"Velocity":22,"Duration":82872,"SoundDuration":82872,"Delta":13612018},{"NoteNumber":69,"Velocity":27,"Duration":82872,"SoundDuration":82872,"Delta":13612018},{"NoteNumber":89,"Velocity":41,"Duration":82872,"SoundDuration":82872,"Delta":13777764},{"NoteNumber":81,"Velocity":33,"Duration":82872,"SoundDuration":82872,"Delta":13777764},{"NoteNumber":78,"Velocity":33,"Duration":82872,"SoundDuration":82872,"Delta":13777764},{"NoteNumber":69,"Velocity":27,"Duration":82872,"SoundDuration":82872,"Delta":13777764},{"NoteNumber":60,"Velocity":22,"Duration":82872,"SoundDuration":82872,"Delta":13777764},{"NoteNumber":63,"Velocity":22,"Duration":82872,"SoundDuration":82872,"Delta":13777764},{"NoteNumber":78,"Velocity":37,"Duration":82872,"SoundDuration":82872,"Delta":13943510},{"NoteNumber":81,"Velocity":37,"Duration":82872,"SoundDuration":82872,"Delta":13943510},{"NoteNumber":88,"Velocity":45,"Duration":82872,"SoundDuration":82872,"Delta":13943510},{"NoteNumber":63,"Velocity":22,"Duration":82872,"SoundDuration":82872,"Delta":13943510},{"NoteNumber":60,"Velocity":22,"Duration":82872,"SoundDuration":82872,"Delta":13943510},{"NoteNumber":69,"Velocity":27,"Duration":82872,"SoundDuration":82872,"Delta":13943510},{"NoteNumber":78,"Velocity":33,"Duration":90361,"SoundDuration":90361,"Delta":14109255},{"NoteNumber":87,"Velocity":39,"Duration":90361,"SoundDuration":90361,"Delta":14109255},{"NoteNumber":81,"Velocity":33,"Duration":90361,"SoundDuration":90361,"Delta":14109255},{"NoteNumber":69,"Velocity":28,"Duration":90361,"SoundDuration":90361,"Delta":14109255},{"NoteNumber":60,"Velocity":24,"Duration":90361,"SoundDuration":90361,"Delta":14109255},{"NoteNumber":63,"Velocity":24,"Duration":90361,"SoundDuration":90361,"Delta":14109255},{"NoteNumber":81,"Velocity":38,"Duration":83333,"SoundDuration":83333,"Delta":14289978},{"NoteNumber":90,"Velocity":45,"Duration":83333,"SoundDuration":83333,"Delta":14289978},{"NoteNumber":78,"Velocity":38,"Duration":83333,"SoundDuration":83333,"Delta":14289978},{"NoteNumber":69,"Velocity":31,"Duration":83333,"SoundDuration":83333,"Delta":14289978},{"NoteNumber":60,"Velocity":26,"Duration":83333,"SoundDuration":83333,"Delta":14289978},{"NoteNumber":63,"Velocity":26,"Duration":83333,"SoundDuration":83333,"Delta":14289978},{"NoteNumber":89,"Velocity":50,"Duration":85714,"SoundDuration":85714,"Delta":14456645},{"NoteNumber":78,"Velocity":41,"Duration":171428,"SoundDuration":171428,"Delta":14456645},{"NoteNumber":81,"Velocity":41,"Duration":171428,"SoundDuration":171428,"Delta":14456645},{"NoteNumber":69,"Velocity":26,"Duration":342857,"SoundDuration":342857,"Delta":14456645},{"NoteNumber":60,"Velocity":20,"Duration":342857,"SoundDuration":342857,"Delta":14456645},{"NoteNumber":63,"Velocity":20,"Duration":342857,"SoundDuration":342857,"Delta":14456645},{"NoteNumber":88,"Velocity":48,"Duration":85714,"SoundDuration":85714,"Delta":14542359},{"NoteNumber":87,"Velocity":43,"Duration":85714,"SoundDuration":85714,"Delta":14628074},{"NoteNumber":87,"Velocity":38,"Duration":85861,"SoundDuration":85861,"Delta":14994307},{"NoteNumber":75,"Velocity":31,"Duration":85861,"SoundDuration":85861,"Delta":14994307},{"NoteNumber":78,"Velocity":31,"Duration":85861,"SoundDuration":85861,"Delta":14994307},{"NoteNumber":60,"Velocity":18,"Duration":85861,"SoundDuration":85861,"Delta":14994307},{"NoteNumber":63,"Velocity":18,"Duration":85861,"SoundDuration":85861,"Delta":14994307},{"NoteNumber":69,"Velocity":22,"Duration":85861,"SoundDuration":85861,"Delta":14994307},{"NoteNumber":86,"Velocity":33,"Duration":85861,"SoundDuration":85861,"Delta":15166030},{"NoteNumber":75,"Velocity":27,"Duration":85861,"SoundDuration":85861,"Delta":15166030},{"NoteNumber":78,"Velocity":27,"Duration":85861,"SoundDuration":85861,"Delta":15166030},{"NoteNumber":69,"Velocity":22,"Duration":85861,"SoundDuration":85861,"Delta":15166030},{"NoteNumber":60,"Velocity":18,"Duration":85861,"SoundDuration":85861,"Delta":15166030},{"NoteNumber":63,"Velocity":18,"Duration":85861,"SoundDuration":85861,"Delta":15166030},{"NoteNumber":85,"Velocity":36,"Duration":85861,"SoundDuration":85861,"Delta":15337753},{"NoteNumber":75,"Velocity":29,"Duration":85861,"SoundDuration":85861,"Delta":15337753},{"NoteNumber":78,"Velocity":29,"Duration":85861,"SoundDuration":85861,"Delta":15337753},{"NoteNumber":63,"Velocity":18,"Duration":85861,"SoundDuration":85861,"Delta":15337753},{"NoteNumber":60,"Velocity":18,"Duration":85861,"SoundDuration":85861,"Delta":15337753},{"NoteNumber":69,"Velocity":22,"Duration":85861,"SoundDuration":85861,"Delta":15337753},{"NoteNumber":78,"Velocity":27,"Duration":93341,"SoundDuration":93341,"Delta":15509476},{"NoteNumber":84,"Velocity":31,"Duration":93341,"SoundDuration":93341,"Delta":15509476},{"NoteNumber":75,"Velocity":27,"Duration":93341,"SoundDuration":93341,"Delta":15509476},{"NoteNumber":60,"Velocity":18,"Duration":93341,"SoundDuration":93341,"Delta":15509476},{"NoteNumber":69,"Velocity":23,"Duration":93341,"SoundDuration":93341,"Delta":15509476},{"NoteNumber":63,"Velocity":18,"Duration":93341,"SoundDuration":93341,"Delta":15509476},{"NoteNumber":75,"Velocity":30,"Duration":85861,"SoundDuration":85861,"Delta":15696160},{"NoteNumber":78,"Velocity":30,"Duration":85861,"SoundDuration":85861,"Delta":15696160},{"NoteNumber":87,"Velocity":37,"Duration":85861,"SoundDuration":85861,"Delta":15696160},{"NoteNumber":63,"Velocity":20,"Duration":85861,"SoundDuration":85861,"Delta":15696160},{"NoteNumber":69,"Velocity":26,"Duration":85861,"SoundDuration":85861,"Delta":15696160},{"NoteNumber":60,"Velocity":20,"Duration":85861,"SoundDuration":85861,"Delta":15696160},{"NoteNumber":86,"Velocity":39,"Duration":89981,"SoundDuration":89981,"Delta":15867883},{"NoteNumber":75,"Velocity":33,"Duration":179963,"SoundDuration":179963,"Delta":15867883},{"NoteNumber":78,"Velocity":33,"Duration":179963,"SoundDuration":179963,"Delta":15867883},{"NoteNumber":69,"Velocity":20,"Duration":359928,"SoundDuration":359928,"Delta":15867883},{"NoteNumber":63,"Velocity":17,"Duration":359928,"SoundDuration":359928,"Delta":15867883},{"NoteNumber":60,"Velocity":17,"Duration":359928,"SoundDuration":359928,"Delta":15867883},{"NoteNumber":85,"Velocity":38,"Duration":89981,"SoundDuration":89981,"Delta":15957865},{"NoteNumber":84,"Velocity":37,"Duration":89982,"SoundDuration":89982,"Delta":16047847},{"NoteNumber":84,"Velocity":36,"Duration":85861,"SoundDuration":85861,"Delta":16407775},{"NoteNumber":75,"Velocity":29,"Duration":85861,"SoundDuration":85861,"Delta":16407775},{"NoteNumber":72,"Velocity":29,"Duration":85861,"SoundDuration":85861,"Delta":16407775},{"NoteNumber":66,"Velocity":18,"Duration":85861,"SoundDuration":85861,"Delta":16407775},{"NoteNumber":63,"Velocity":18,"Duration":85861,"SoundDuration":85861,"Delta":16407775},{"NoteNumber":69,"Velocity":25,"Duration":85861,"SoundDuration":85861,"Delta":16407775},{"NoteNumber":83,"Velocity":38,"Duration":90524,"SoundDuration":90524,"Delta":16579498},{"NoteNumber":72,"Velocity":32,"Duration":181049,"SoundDuration":181049,"Delta":16579498},{"NoteNumber":75,"Velocity":32,"Duration":181049,"SoundDuration":181049,"Delta":16579498},{"NoteNumber":63,"Velocity":16,"Duration":362100,"SoundDuration":362100,"Delta":16579498},{"NoteNumber":66,"Velocity":16,"Duration":362100,"SoundDuration":362100,"Delta":16579498},{"NoteNumber":69,"Velocity":18,"Duration":362100,"SoundDuration":362100,"Delta":16579498},{"NoteNumber":82,"Velocity":37,"Duration":90524,"SoundDuration":90524,"Delta":16670023},{"NoteNumber":81,"Velocity":37,"Duration":90524,"SoundDuration":90524,"Delta":16760548},{"NoteNumber":75,"Velocity":28,"Duration":89445,"SoundDuration":89445,"Delta":17136783},{"NoteNumber":72,"Velocity":28,"Duration":89445,"SoundDuration":89445,"Delta":17136783},{"NoteNumber":81,"Velocity":35,"Duration":89445,"SoundDuration":89445,"Delta":17136783},{"NoteNumber":66,"Velocity":18,"Duration":89445,"SoundDuration":89445,"Delta":17136783},{"NoteNumber":69,"Velocity":24,"Duration":89445,"SoundDuration":89445,"Delta":17136783},{"NoteNumber":80,"Velocity":36,"Duration":95117,"SoundDuration":95117,"Delta":17315674},{"NoteNumber":75,"Velocity":30,"Duration":190234,"SoundDuration":190234,"Delta":17315674},{"NoteNumber":72,"Velocity":30,"Duration":190234,"SoundDuration":190234,"Delta":17315674},{"NoteNumber":66,"Velocity":15,"Duration":380469,"SoundDuration":380469,"Delta":17315674},{"NoteNumber":69,"Velocity":18,"Duration":380469,"SoundDuration":380469,"Delta":17315674},{"NoteNumber":79,"Velocity":36,"Duration":95117,"SoundDuration":95117,"Delta":17410791},{"NoteNumber":78,"Velocity":35,"Duration":95117,"SoundDuration":95117,"Delta":17505909},{"NoteNumber":77,"Velocity":36,"Duration":95724,"SoundDuration":95724,"Delta":17887592},{"NoteNumber":72,"Velocity":28,"Duration":95724,"SoundDuration":95724,"Delta":17887592},{"NoteNumber":69,"Velocity":24,"Duration":95724,"SoundDuration":95724,"Delta":17887592},{"NoteNumber":75,"Velocity":31,"Duration":95724,"SoundDuration":95724,"Delta":17887592},{"NoteNumber":75,"Velocity":24,"Duration":93926,"SoundDuration":93926,"Delta":18078231},{"NoteNumber":78,"Velocity":30,"Duration":93926,"SoundDuration":93926,"Delta":18078231},{"NoteNumber":72,"Velocity":25,"Duration":93926,"SoundDuration":93926,"Delta":18078231},{"NoteNumber":72,"Velocity":28,"Duration":93370,"SoundDuration":93370,"Delta":18266084},{"NoteNumber":77,"Velocity":36,"Duration":93370,"SoundDuration":93370,"Delta":18266084},{"NoteNumber":69,"Velocity":24,"Duration":93370,"SoundDuration":93370,"Delta":18266084},{"NoteNumber":75,"Velocity":31,"Duration":93370,"SoundDuration":93370,"Delta":18266084},{"NoteNumber":75,"Velocity":24,"Duration":92937,"SoundDuration":92937,"Delta":18452796},{"NoteNumber":79,"Velocity":31,"Duration":92937,"SoundDuration":92937,"Delta":18452796},{"NoteNumber":72,"Velocity":27,"Duration":92937,"SoundDuration":92937,"Delta":18452796},{"NoteNumber":77,"Velocity":36,"Duration":92650,"SoundDuration":92650,"Delta":18638498},{"NoteNumber":72,"Velocity":28,"Duration":92650,"SoundDuration":92650,"Delta":18638498},{"NoteNumber":69,"Velocity":24,"Duration":92650,"SoundDuration":92650,"Delta":18638498},{"NoteNumber":75,"Velocity":31,"Duration":92650,"SoundDuration":92650,"Delta":18638498},{"NoteNumber":75,"Velocity":24,"Duration":92194,"SoundDuration":92194,"Delta":18823343},{"NoteNumber":78,"Velocity":30,"Duration":92194,"SoundDuration":92194,"Delta":18823343},{"NoteNumber":72,"Velocity":26,"Duration":92194,"SoundDuration":92194,"Delta":18823343},{"NoteNumber":77,"Velocity":36,"Duration":91631,"SoundDuration":91631,"Delta":19007196},{"NoteNumber":72,"Velocity":28,"Duration":91631,"SoundDuration":91631,"Delta":19007196},{"NoteNumber":75,"Velocity":31,"Duration":91631,"SoundDuration":91631,"Delta":19007196},{"NoteNumber":69,"Velocity":24,"Duration":91631,"SoundDuration":91631,"Delta":19007196},{"NoteNumber":79,"Velocity":32,"Duration":56179,"SoundDuration":56179,"Delta":19189615},{"NoteNumber":77,"Velocity":36,"Duration":55865,"SoundDuration":55865,"Delta":19301920},{"NoteNumber":78,"Velocity":30,"Duration":55463,"SoundDuration":55463,"Delta":19413426},{"NoteNumber":77,"Velocity":36,"Duration":54990,"SoundDuration":54990,"Delta":19524138},{"NoteNumber":79,"Velocity":29,"Duration":54667,"SoundDuration":54667,"Delta":19634074},{"NoteNumber":77,"Velocity":36,"Duration":54333,"SoundDuration":54333,"Delta":19743238},{"NoteNumber":78,"Velocity":32,"Duration":53872,"SoundDuration":53872,"Delta":19851625},{"NoteNumber":77,"Velocity":36,"Duration":53475,"SoundDuration":53475,"Delta":19959211},{"NoteNumber":79,"Velocity":30,"Duration":53475,"SoundDuration":53475,"Delta":20066162},{"NoteNumber":77,"Velocity":36,"Duration":79591,"SoundDuration":79591,"Delta":20173114},{"NoteNumber":78,"Velocity":31,"Duration":79365,"SoundDuration":79365,"Delta":20252706},{"NoteNumber":77,"Velocity":36,"Duration":79365,"SoundDuration":79365,"Delta":20332071},{"NoteNumber":79,"Velocity":31,"Duration":79142,"SoundDuration":79142,"Delta":20411436},{"NoteNumber":77,"Velocity":36,"Duration":78947,"SoundDuration":78947,"Delta":20490578},{"NoteNumber":78,"Velocity":31,"Duration":78947,"SoundDuration":78947,"Delta":20569526},{"NoteNumber":77,"Velocity":36,"Duration":78947,"SoundDuration":78947,"Delta":20648473},{"NoteNumber":79,"Velocity":31,"Duration":78947,"SoundDuration":78947,"Delta":20727420},{"NoteNumber":77,"Velocity":36,"Duration":78947,"SoundDuration":78947,"Delta":20806368},{"NoteNumber":78,"Velocity":31,"Duration":78947,"SoundDuration":78947,"Delta":20885315},{"NoteNumber":77,"Velocity":36,"Duration":78616,"SoundDuration":78616,"Delta":20964263},{"NoteNumber":79,"Velocity":30,"Duration":78823,"SoundDuration":78823,"Delta":21042879},{"NoteNumber":77,"Velocity":36,"Duration":79302,"SoundDuration":79302,"Delta":21121703},{"NoteNumber":78,"Velocity":31,"Duration":79986,"SoundDuration":79986,"Delta":21201005},{"NoteNumber":77,"Velocity":36,"Duration":80645,"SoundDuration":80645,"Delta":21280992},{"NoteNumber":79,"Velocity":31,"Duration":81323,"SoundDuration":81323,"Delta":21361638},{"NoteNumber":77,"Velocity":36,"Duration":82042,"SoundDuration":82042,"Delta":21442961},{"NoteNumber":78,"Velocity":31,"Duration":82698,"SoundDuration":82698,"Delta":21525004},{"NoteNumber":77,"Velocity":36,"Duration":83488,"SoundDuration":83488,"Delta":21607702},{"NoteNumber":79,"Velocity":32,"Duration":84160,"SoundDuration":84160,"Delta":21691191},{"NoteNumber":77,"Velocity":36,"Duration":102941,"SoundDuration":102941,"Delta":21775351},{"NoteNumber":78,"Velocity":32,"Duration":102941,"SoundDuration":102941,"Delta":21863586},{"NoteNumber":77,"Velocity":36,"Duration":102941,"SoundDuration":102941,"Delta":21951822},{"NoteNumber":79,"Velocity":31,"Duration":88235,"SoundDuration":88235,"Delta":22040057},{"NoteNumber":77,"Velocity":36,"Duration":95677,"SoundDuration":95677,"Delta":22128292},{"NoteNumber":69,"Velocity":29,"Duration":95677,"SoundDuration":95677,"Delta":22128292},{"NoteNumber":65,"Velocity":32,"Duration":787958,"SoundDuration":787958,"Delta":22128292},{"NoteNumber":63,"Velocity":41,"Duration":384732,"SoundDuration":384732,"Delta":22128292},{"NoteNumber":72,"Velocity":27,"Duration":96351,"SoundDuration":96351,"Delta":22223970},{"NoteNumber":78,"Velocity":32,"Duration":96351,"SoundDuration":96351,"Delta":22223970},{"NoteNumber":77,"Velocity":36,"Duration":96351,"SoundDuration":96351,"Delta":22320321},{"NoteNumber":69,"Velocity":29,"Duration":96351,"SoundDuration":96351,"Delta":22320321},{"NoteNumber":79,"Velocity":31,"Duration":96351,"SoundDuration":96351,"Delta":22416673},{"NoteNumber":72,"Velocity":26,"Duration":96351,"SoundDuration":96351,"Delta":22416673},{"NoteNumber":70,"Velocity":29,"Duration":100806,"SoundDuration":100806,"Delta":22513024},{"NoteNumber":77,"Velocity":36,"Duration":100806,"SoundDuration":100806,"Delta":22513024},{"NoteNumber":62,"Velocity":32,"Duration":403226,"SoundDuration":403226,"Delta":22513024},{"NoteNumber":78,"Velocity":32,"Duration":100806,"SoundDuration":100806,"Delta":22613831},{"NoteNumber":74,"Velocity":27,"Duration":100806,"SoundDuration":100806,"Delta":22613831},{"NoteNumber":70,"Velocity":29,"Duration":100806,"SoundDuration":100806,"Delta":22714637},{"NoteNumber":77,"Velocity":36,"Duration":100806,"SoundDuration":100806,"Delta":22714637},{"NoteNumber":79,"Velocity":31,"Duration":100806,"SoundDuration":100806,"Delta":22815444},{"NoteNumber":74,"Velocity":26,"Duration":100806,"SoundDuration":100806,"Delta":22815444},{"NoteNumber":69,"Velocity":29,"Duration":95298,"SoundDuration":95298,"Delta":22916250},{"NoteNumber":77,"Velocity":36,"Duration":95298,"SoundDuration":95298,"Delta":22916250},{"NoteNumber":60,"Velocity":38,"Duration":381194,"SoundDuration":381194,"Delta":22916250},{"NoteNumber":65,"Velocity":30,"Duration":792665,"SoundDuration":792665,"Delta":22916250},{"NoteNumber":75,"Velocity":27,"Duration":95298,"SoundDuration":95298,"Delta":23011549},{"NoteNumber":78,"Velocity":32,"Duration":95298,"SoundDuration":95298,"Delta":23011549},{"NoteNumber":77,"Velocity":36,"Duration":95298,"SoundDuration":95298,"Delta":23106848},{"NoteNumber":69,"Velocity":29,"Duration":95298,"SoundDuration":95298,"Delta":23106848},{"NoteNumber":75,"Velocity":26,"Duration":95298,"SoundDuration":95298,"Delta":23202146},{"NoteNumber":79,"Velocity":31,"Duration":95298,"SoundDuration":95298,"Delta":23202146},{"NoteNumber":70,"Velocity":29,"Duration":103192,"SoundDuration":103192,"Delta":23297445},{"NoteNumber":77,"Velocity":36,"Duration":103192,"SoundDuration":103192,"Delta":23297445},{"NoteNumber":58,"Velocity":33,"Duration":411471,"SoundDuration":411471,"Delta":23297445},{"NoteNumber":78,"Velocity":32,"Duration":51596,"SoundDuration":51596,"Delta":23400637},{"NoteNumber":74,"Velocity":27,"Duration":51596,"SoundDuration":51596,"Delta":23400637},{"NoteNumber":78,"Velocity":42,"Duration":103192,"SoundDuration":103192,"Delta":23503829},{"NoteNumber":70,"Velocity":42,"Duration":103192,"SoundDuration":103192,"Delta":23503829},{"NoteNumber":74,"Velocity":36,"Duration":51596,"SoundDuration":51596,"Delta":23607021},{"NoteNumber":79,"Velocity":36,"Duration":51596,"SoundDuration":51596,"Delta":23607021},{"NoteNumber":80,"Velocity":45,"Duration":99428,"SoundDuration":99428,"Delta":23708916},{"NoteNumber":74,"Velocity":37,"Duration":99428,"SoundDuration":99428,"Delta":23708916},{"NoteNumber":65,"Velocity":25,"Duration":198264,"SoundDuration":198264,"Delta":23708916},{"NoteNumber":53,"Velocity":25,"Duration":198264,"SoundDuration":198264,"Delta":23708916},{"NoteNumber":62,"Velocity":32,"Duration":198264,"SoundDuration":198264,"Delta":23708916},{"NoteNumber":81,"Velocity":38,"Duration":98836,"SoundDuration":98836,"Delta":23808344},{"NoteNumber":77,"Velocity":32,"Duration":98836,"SoundDuration":98836,"Delta":23808344},{"NoteNumber":74,"Velocity":38,"Duration":98085,"SoundDuration":98085,"Delta":23907181},{"NoteNumber":81,"Velocity":45,"Duration":98085,"SoundDuration":98085,"Delta":23907181},{"NoteNumber":82,"Velocity":38,"Duration":48796,"SoundDuration":48796,"Delta":24005267},{"NoteNumber":77,"Velocity":32,"Duration":48796,"SoundDuration":48796,"Delta":24005267},{"NoteNumber":72,"Velocity":39,"Duration":96752,"SoundDuration":96752,"Delta":24102668},{"NoteNumber":82,"Velocity":46,"Duration":96752,"SoundDuration":96752,"Delta":24102668},{"NoteNumber":53,"Velocity":23,"Duration":192786,"SoundDuration":192786,"Delta":24102668},{"NoteNumber":63,"Velocity":29,"Duration":192786,"SoundDuration":192786,"Delta":24102668},{"NoteNumber":65,"Velocity":23,"Duration":192786,"SoundDuration":192786,"Delta":24102668},{"NoteNumber":81,"Velocity":41,"Duration":48122,"SoundDuration":48122,"Delta":24199421},{"NoteNumber":75,"Velocity":35,"Duration":48122,"SoundDuration":48122,"Delta":24199421},{"NoteNumber":72,"Velocity":38,"Duration":95822,"SoundDuration":95822,"Delta":24295455},{"NoteNumber":81,"Velocity":45,"Duration":95822,"SoundDuration":95822,"Delta":24295455},{"NoteNumber":75,"Velocity":32,"Duration":47911,"SoundDuration":47911,"Delta":24391277},{"NoteNumber":80,"Velocity":38,"Duration":47911,"SoundDuration":47911,"Delta":24391277},{"NoteNumber":72,"Velocity":36,"Duration":95822,"SoundDuration":95822,"Delta":24487099},{"NoteNumber":80,"Velocity":43,"Duration":95822,"SoundDuration":95822,"Delta":24487099},{"NoteNumber":63,"Velocity":33,"Duration":191644,"SoundDuration":191644,"Delta":24487099},{"NoteNumber":65,"Velocity":26,"Duration":604644,"SoundDuration":604644,"Delta":24487099},{"NoteNumber":57,"Velocity":26,"Duration":191644,"SoundDuration":191644,"Delta":24487099},{"NoteNumber":75,"Velocity":31,"Duration":47911,"SoundDuration":47911,"Delta":24582921},{"NoteNumber":79,"Velocity":37,"Duration":47911,"SoundDuration":47911,"Delta":24582921},{"NoteNumber":79,"Velocity":42,"Duration":105693,"SoundDuration":105693,"Delta":24678744},{"NoteNumber":72,"Velocity":35,"Duration":105693,"SoundDuration":105693,"Delta":24678744},{"NoteNumber":75,"Velocity":29,"Duration":52846,"SoundDuration":52846,"Delta":24784437},{"NoteNumber":78,"Velocity":36,"Duration":52846,"SoundDuration":52846,"Delta":24784437},{"NoteNumber":77,"Velocity":36,"Duration":110887,"SoundDuration":110887,"Delta":24890130},{"NoteNumber":70,"Velocity":29,"Duration":110887,"SoundDuration":110887,"Delta":24890130},{"NoteNumber":58,"Velocity":23,"Duration":201612,"SoundDuration":201612,"Delta":24890130},{"NoteNumber":62,"Velocity":29,"Duration":201612,"SoundDuration":201612,"Delta":24890130},{"NoteNumber":78,"Velocity":32,"Duration":110887,"SoundDuration":110887,"Delta":24990937},{"NoteNumber":74,"Velocity":27,"Duration":110887,"SoundDuration":110887,"Delta":24990937},{"NoteNumber":77,"Velocity":36,"Duration":111844,"SoundDuration":111844,"Delta":25091743},{"NoteNumber":70,"Velocity":29,"Duration":111844,"SoundDuration":111844,"Delta":25091743},{"NoteNumber":74,"Velocity":26,"Duration":110375,"SoundDuration":110375,"Delta":25192550},{"NoteNumber":79,"Velocity":31,"Duration":110375,"SoundDuration":110375,"Delta":25192550},{"NoteNumber":77,"Velocity":36,"Duration":96351,"SoundDuration":96351,"Delta":25302925},{"NoteNumber":69,"Velocity":29,"Duration":96351,"SoundDuration":96351,"Delta":25302925},{"NoteNumber":65,"Velocity":32,"Duration":788631,"SoundDuration":788631,"Delta":25302925},{"NoteNumber":63,"Velocity":41,"Duration":385405,"SoundDuration":385405,"Delta":25302925},{"NoteNumber":72,"Velocity":27,"Duration":96351,"SoundDuration":96351,"Delta":25399277},{"NoteNumber":78,"Velocity":32,"Duration":96351,"SoundDuration":96351,"Delta":25399277},{"NoteNumber":77,"Velocity":36,"Duration":96351,"SoundDuration":96351,"Delta":25495628},{"NoteNumber":69,"Velocity":29,"Duration":96351,"SoundDuration":96351,"Delta":25495628},{"NoteNumber":79,"Velocity":31,"Duration":96351,"SoundDuration":96351,"Delta":25591980},{"NoteNumber":72,"Velocity":26,"Duration":96351,"SoundDuration":96351,"Delta":25591980},{"NoteNumber":70,"Velocity":29,"Duration":100806,"SoundDuration":100806,"Delta":25688331},{"NoteNumber":77,"Velocity":36,"Duration":100806,"SoundDuration":100806,"Delta":25688331},{"NoteNumber":62,"Velocity":32,"Duration":403226,"SoundDuration":403226,"Delta":25688331},{"NoteNumber":74,"Velocity":27,"Duration":100806,"SoundDuration":100806,"Delta":25789138},{"NoteNumber":78,"Velocity":32,"Duration":100806,"SoundDuration":100806,"Delta":25789138},{"NoteNumber":77,"Velocity":36,"Duration":100806,"SoundDuration":100806,"Delta":25889944},{"NoteNumber":70,"Velocity":29,"Duration":100806,"SoundDuration":100806,"Delta":25889944},{"NoteNumber":74,"Velocity":26,"Duration":100806,"SoundDuration":100806,"Delta":25990751},{"NoteNumber":79,"Velocity":31,"Duration":100806,"SoundDuration":100806,"Delta":25990751},{"NoteNumber":69,"Velocity":29,"Duration":95298,"SoundDuration":95298,"Delta":26091557},{"NoteNumber":77,"Velocity":36,"Duration":95298,"SoundDuration":95298,"Delta":26091557},{"NoteNumber":65,"Velocity":30,"Duration":792665,"SoundDuration":792665,"Delta":26091557},{"NoteNumber":60,"Velocity":38,"Duration":381194,"SoundDuration":381194,"Delta":26091557},{"NoteNumber":78,"Velocity":32,"Duration":95298,"SoundDuration":95298,"Delta":26186856},{"NoteNumber":75,"Velocity":27,"Duration":95298,"SoundDuration":95298,"Delta":26186856},{"NoteNumber":77,"Velocity":36,"Duration":95298,"SoundDuration":95298,"Delta":26282154},{"NoteNumber":69,"Velocity":29,"Duration":95298,"SoundDuration":95298,"Delta":26282154},{"NoteNumber":75,"Velocity":26,"Duration":95298,"SoundDuration":95298,"Delta":26377453},{"NoteNumber":79,"Velocity":31,"Duration":95298,"SoundDuration":95298,"Delta":26377453},{"NoteNumber":77,"Velocity":36,"Duration":103192,"SoundDuration":103192,"Delta":26472752},{"NoteNumber":70,"Velocity":29,"Duration":103192,"SoundDuration":103192,"Delta":26472752},{"NoteNumber":58,"Velocity":33,"Duration":411471,"SoundDuration":411471,"Delta":26472752},{"NoteNumber":78,"Velocity":32,"Duration":51596,"SoundDuration":51596,"Delta":26575944},{"NoteNumber":74,"Velocity":27,"Duration":51596,"SoundDuration":51596,"Delta":26575944},{"NoteNumber":78,"Velocity":42,"Duration":103192,"SoundDuration":103192,"Delta":26679136},{"NoteNumber":70,"Velocity":42,"Duration":103192,"SoundDuration":103192,"Delta":26679136},{"NoteNumber":74,"Velocity":36,"Duration":51596,"SoundDuration":51596,"Delta":26782328},{"NoteNumber":79,"Velocity":36,"Duration":51596,"SoundDuration":51596,"Delta":26782328},{"NoteNumber":74,"Velocity":37,"Duration":99428,"SoundDuration":99428,"Delta":26884223},{"NoteNumber":80,"Velocity":45,"Duration":99428,"SoundDuration":99428,"Delta":26884223},{"NoteNumber":53,"Velocity":25,"Duration":198264,"SoundDuration":198264,"Delta":26884223},{"NoteNumber":62,"Velocity":32,"Duration":198264,"SoundDuration":198264,"Delta":26884223},{"NoteNumber":65,"Velocity":25,"Duration":198264,"SoundDuration":198264,"Delta":26884223},{"NoteNumber":81,"Velocity":38,"Duration":49544,"SoundDuration":49544,"Delta":26983651},{"NoteNumber":77,"Velocity":32,"Duration":49544,"SoundDuration":49544,"Delta":26983651},{"NoteNumber":81,"Velocity":45,"Duration":98085,"SoundDuration":98085,"Delta":27082487},{"NoteNumber":74,"Velocity":38,"Duration":98085,"SoundDuration":98085,"Delta":27082487},{"NoteNumber":82,"Velocity":38,"Duration":48796,"SoundDuration":48796,"Delta":27180573},{"NoteNumber":77,"Velocity":32,"Duration":48796,"SoundDuration":48796,"Delta":27180573},{"NoteNumber":82,"Velocity":46,"Duration":96752,"SoundDuration":96752,"Delta":27277975},{"NoteNumber":72,"Velocity":39,"Duration":96752,"SoundDuration":96752,"Delta":27277975},{"NoteNumber":63,"Velocity":29,"Duration":192786,"SoundDuration":192786,"Delta":27277975},{"NoteNumber":65,"Velocity":23,"Duration":192786,"SoundDuration":192786,"Delta":27277975},{"NoteNumber":53,"Velocity":23,"Duration":192786,"SoundDuration":192786,"Delta":27277975},{"NoteNumber":75,"Velocity":35,"Duration":48122,"SoundDuration":48122,"Delta":27374728},{"NoteNumber":81,"Velocity":41,"Duration":48122,"SoundDuration":48122,"Delta":27374728},{"NoteNumber":81,"Velocity":45,"Duration":95822,"SoundDuration":95822,"Delta":27470762},{"NoteNumber":72,"Velocity":38,"Duration":95822,"SoundDuration":95822,"Delta":27470762},{"NoteNumber":75,"Velocity":32,"Duration":47911,"SoundDuration":47911,"Delta":27566584},{"NoteNumber":80,"Velocity":38,"Duration":47911,"SoundDuration":47911,"Delta":27566584},{"NoteNumber":80,"Velocity":43,"Duration":95822,"SoundDuration":95822,"Delta":27662406},{"NoteNumber":72,"Velocity":36,"Duration":95822,"SoundDuration":95822,"Delta":27662406},{"NoteNumber":65,"Velocity":26,"Duration":603485,"SoundDuration":603485,"Delta":27662406},{"NoteNumber":63,"Velocity":33,"Duration":191644,"SoundDuration":191644,"Delta":27662406},{"NoteNumber":57,"Velocity":26,"Duration":191644,"SoundDuration":191644,"Delta":27662406},{"NoteNumber":79,"Velocity":37,"Duration":47911,"SoundDuration":47911,"Delta":27758228},{"NoteNumber":75,"Velocity":31,"Duration":47911,"SoundDuration":47911,"Delta":27758228},{"NoteNumber":79,"Velocity":42,"Duration":105693,"SoundDuration":105693,"Delta":27854050},{"NoteNumber":72,"Velocity":35,"Duration":105693,"SoundDuration":105693,"Delta":27854050},{"NoteNumber":78,"Velocity":36,"Duration":52846,"SoundDuration":52846,"Delta":27959744},{"NoteNumber":75,"Velocity":29,"Duration":52846,"SoundDuration":52846,"Delta":27959744},{"NoteNumber":77,"Velocity":36,"Duration":100227,"SoundDuration":100227,"Delta":28065437},{"NoteNumber":74,"Velocity":29,"Duration":100227,"SoundDuration":100227,"Delta":28065437},{"NoteNumber":62,"Velocity":29,"Duration":408331,"SoundDuration":408331,"Delta":28065437},{"NoteNumber":58,"Velocity":23,"Duration":408331,"SoundDuration":408331,"Delta":28065437},{"NoteNumber":78,"Velocity":32,"Duration":100227,"SoundDuration":100227,"Delta":28165664},{"NoteNumber":70,"Velocity":27,"Duration":100227,"SoundDuration":100227,"Delta":28165664},{"NoteNumber":74,"Velocity":29,"Duration":100227,"SoundDuration":100227,"Delta":28265891},{"NoteNumber":77,"Velocity":36,"Duration":100227,"SoundDuration":100227,"Delta":28265891},{"NoteNumber":81,"Velocity":36,"Duration":107650,"SoundDuration":107650,"Delta":28366118},{"NoteNumber":82,"Velocity":36,"Duration":96351,"SoundDuration":96351,"Delta":28473769},{"NoteNumber":74,"Velocity":29,"Duration":96351,"SoundDuration":96351,"Delta":28473769},{"NoteNumber":68,"Velocity":41,"Duration":385405,"SoundDuration":385405,"Delta":28473769},{"NoteNumber":70,"Velocity":32,"Duration":788631,"SoundDuration":788631,"Delta":28473769},{"NoteNumber":77,"Velocity":27,"Duration":96351,"SoundDuration":96351,"Delta":28570120},{"NoteNumber":83,"Velocity":32,"Duration":96351,"SoundDuration":96351,"Delta":28570120},{"NoteNumber":82,"Velocity":36,"Duration":96351,"SoundDuration":96351,"Delta":28666472},{"NoteNumber":74,"Velocity":29,"Duration":96351,"SoundDuration":96351,"Delta":28666472},{"NoteNumber":83,"Velocity":31,"Duration":96351,"SoundDuration":96351,"Delta":28762823},{"NoteNumber":77,"Velocity":26,"Duration":96351,"SoundDuration":96351,"Delta":28762823},{"NoteNumber":82,"Velocity":36,"Duration":100806,"SoundDuration":100806,"Delta":28859175},{"NoteNumber":75,"Velocity":29,"Duration":100806,"SoundDuration":100806,"Delta":28859175},{"NoteNumber":66,"Velocity":32,"Duration":403226,"SoundDuration":403226,"Delta":28859175},{"NoteNumber":83,"Velocity":32,"Duration":100806,"SoundDuration":100806,"Delta":28959981},{"NoteNumber":78,"Velocity":27,"Duration":100806,"SoundDuration":100806,"Delta":28959981},{"NoteNumber":82,"Velocity":36,"Duration":100806,"SoundDuration":100806,"Delta":29060788},{"NoteNumber":75,"Velocity":29,"Duration":100806,"SoundDuration":100806,"Delta":29060788},{"NoteNumber":83,"Velocity":31,"Duration":100806,"SoundDuration":100806,"Delta":29161594},{"NoteNumber":78,"Velocity":26,"Duration":100806,"SoundDuration":100806,"Delta":29161594},{"NoteNumber":82,"Velocity":36,"Duration":95298,"SoundDuration":95298,"Delta":29262401},{"NoteNumber":74,"Velocity":29,"Duration":95298,"SoundDuration":95298,"Delta":29262401},{"NoteNumber":65,"Velocity":38,"Duration":381194,"SoundDuration":381194,"Delta":29262401},{"NoteNumber":70,"Velocity":30,"Duration":792665,"SoundDuration":792665,"Delta":29262401},{"NoteNumber":83,"Velocity":32,"Duration":95298,"SoundDuration":95298,"Delta":29357699},{"NoteNumber":80,"Velocity":27,"Duration":95298,"SoundDuration":95298,"Delta":29357699},{"NoteNumber":74,"Velocity":29,"Duration":95298,"SoundDuration":95298,"Delta":29452998},{"NoteNumber":82,"Velocity":36,"Duration":95298,"SoundDuration":95298,"Delta":29452998},{"NoteNumber":83,"Velocity":31,"Duration":95298,"SoundDuration":95298,"Delta":29548297},{"NoteNumber":80,"Velocity":26,"Duration":95298,"SoundDuration":95298,"Delta":29548297},{"NoteNumber":82,"Velocity":36,"Duration":103192,"SoundDuration":103192,"Delta":29643595},{"NoteNumber":75,"Velocity":29,"Duration":103192,"SoundDuration":103192,"Delta":29643595},{"NoteNumber":63,"Velocity":33,"Duration":411471,"SoundDuration":411471,"Delta":29643595},{"NoteNumber":78,"Velocity":27,"Duration":51596,"SoundDuration":51596,"Delta":29746787},{"NoteNumber":83,"Velocity":32,"Duration":51596,"SoundDuration":51596,"Delta":29746787},{"NoteNumber":83,"Velocity":42,"Duration":103192,"SoundDuration":103192,"Delta":29849980},{"NoteNumber":75,"Velocity":42,"Duration":103192,"SoundDuration":103192,"Delta":29849980},{"NoteNumber":78,"Velocity":36,"Duration":51596,"SoundDuration":51596,"Delta":29953172},{"NoteNumber":84,"Velocity":36,"Duration":51596,"SoundDuration":51596,"Delta":29953172},{"NoteNumber":78,"Velocity":37,"Duration":99428,"SoundDuration":99428,"Delta":30055067},{"NoteNumber":85,"Velocity":45,"Duration":99428,"SoundDuration":99428,"Delta":30055067},{"NoteNumber":70,"Velocity":25,"Duration":198264,"SoundDuration":198264,"Delta":30055067},{"NoteNumber":58,"Velocity":25,"Duration":198264,"SoundDuration":198264,"Delta":30055067},{"NoteNumber":66,"Velocity":32,"Duration":198264,"SoundDuration":198264,"Delta":30055067},{"NoteNumber":82,"Velocity":32,"Duration":98836,"SoundDuration":98836,"Delta":30154495},{"NoteNumber":86,"Velocity":38,"Duration":98836,"SoundDuration":98836,"Delta":30154495},{"NoteNumber":86,"Velocity":45,"Duration":98085,"SoundDuration":98085,"Delta":30253331},{"NoteNumber":78,"Velocity":38,"Duration":98085,"SoundDuration":98085,"Delta":30253331},{"NoteNumber":87,"Velocity":38,"Duration":48796,"SoundDuration":48796,"Delta":30351417},{"NoteNumber":82,"Velocity":32,"Duration":48796,"SoundDuration":48796,"Delta":30351417},{"NoteNumber":87,"Velocity":46,"Duration":96752,"SoundDuration":96752,"Delta":30448819},{"NoteNumber":77,"Velocity":39,"Duration":96752,"SoundDuration":96752,"Delta":30448819},{"NoteNumber":68,"Velocity":29,"Duration":192786,"SoundDuration":192786,"Delta":30448819},{"NoteNumber":70,"Velocity":23,"Duration":192786,"SoundDuration":192786,"Delta":30448819},{"NoteNumber":58,"Velocity":23,"Duration":192786,"SoundDuration":192786,"Delta":30448819},{"NoteNumber":86,"Velocity":41,"Duration":48122,"SoundDuration":48122,"Delta":30545572},{"NoteNumber":80,"Velocity":35,"Duration":48122,"SoundDuration":48122,"Delta":30545572},{"NoteNumber":86,"Velocity":45,"Duration":95822,"SoundDuration":95822,"Delta":30641606},{"NoteNumber":77,"Velocity":38,"Duration":95822,"SoundDuration":95822,"Delta":30641606},{"NoteNumber":80,"Velocity":32,"Duration":47911,"SoundDuration":47911,"Delta":30737428},{"NoteNumber":85,"Velocity":38,"Duration":47911,"SoundDuration":47911,"Delta":30737428},{"NoteNumber":77,"Velocity":36,"Duration":95822,"SoundDuration":95822,"Delta":30833250},{"NoteNumber":85,"Velocity":43,"Duration":95822,"SoundDuration":95822,"Delta":30833250},{"NoteNumber":62,"Velocity":26,"Duration":191644,"SoundDuration":191644,"Delta":30833250},{"NoteNumber":68,"Velocity":33,"Duration":191644,"SoundDuration":191644,"Delta":30833250},{"NoteNumber":70,"Velocity":26,"Duration":594675,"SoundDuration":594675,"Delta":30833250},{"NoteNumber":80,"Velocity":31,"Duration":47911,"SoundDuration":47911,"Delta":30929072},{"NoteNumber":84,"Velocity":37,"Duration":47911,"SoundDuration":47911,"Delta":30929072},{"NoteNumber":84,"Velocity":42,"Duration":105693,"SoundDuration":105693,"Delta":31024894},{"NoteNumber":77,"Velocity":35,"Duration":105693,"SoundDuration":105693,"Delta":31024894},{"NoteNumber":83,"Velocity":36,"Duration":52846,"SoundDuration":52846,"Delta":31130588},{"NoteNumber":80,"Velocity":29,"Duration":52846,"SoundDuration":52846,"Delta":31130588},{"NoteNumber":78,"Velocity":29,"Duration":95822,"SoundDuration":95822,"Delta":31236281},{"NoteNumber":82,"Velocity":36,"Duration":95822,"SoundDuration":95822,"Delta":31236281},{"NoteNumber":66,"Velocity":29,"Duration":191644,"SoundDuration":191644,"Delta":31236281},{"NoteNumber":63,"Velocity":23,"Duration":191644,"SoundDuration":191644,"Delta":31236281},{"NoteNumber":83,"Velocity":32,"Duration":95822,"SoundDuration":95822,"Delta":31332103},{"NoteNumber":75,"Velocity":27,"Duration":95822,"SoundDuration":95822,"Delta":31332103},{"NoteNumber":82,"Velocity":36,"Duration":95822,"SoundDuration":95822,"Delta":31427925},{"NoteNumber":78,"Velocity":29,"Duration":95822,"SoundDuration":95822,"Delta":31427925},{"NoteNumber":83,"Velocity":31,"Duration":95822,"SoundDuration":95822,"Delta":31523747},{"NoteNumber":75,"Velocity":26,"Duration":95822,"SoundDuration":95822,"Delta":31523747},{"NoteNumber":74,"Velocity":29,"Duration":96351,"SoundDuration":96351,"Delta":31619569},{"NoteNumber":82,"Velocity":36,"Duration":96351,"SoundDuration":96351,"Delta":31619569},{"NoteNumber":70,"Velocity":32,"Duration":788631,"SoundDuration":788631,"Delta":31619569},{"NoteNumber":68,"Velocity":41,"Duration":385405,"SoundDuration":385405,"Delta":31619569},{"NoteNumber":83,"Velocity":32,"Duration":96351,"SoundDuration":96351,"Delta":31715921},{"NoteNumber":77,"Velocity":27,"Duration":96351,"SoundDuration":96351,"Delta":31715921},{"NoteNumber":74,"Velocity":29,"Duration":96351,"SoundDuration":96351,"Delta":31812272},{"NoteNumber":82,"Velocity":36,"Duration":96351,"SoundDuration":96351,"Delta":31812272},{"NoteNumber":77,"Velocity":26,"Duration":96351,"SoundDuration":96351,"Delta":31908624},{"NoteNumber":83,"Velocity":31,"Duration":96351,"SoundDuration":96351,"Delta":31908624},{"NoteNumber":75,"Velocity":29,"Duration":100806,"SoundDuration":100806,"Delta":32004975},{"NoteNumber":82,"Velocity":36,"Duration":100806,"SoundDuration":100806,"Delta":32004975},{"NoteNumber":66,"Velocity":32,"Duration":403225,"SoundDuration":403225,"Delta":32004975},{"NoteNumber":78,"Velocity":27,"Duration":100806,"SoundDuration":100806,"Delta":32105782},{"NoteNumber":83,"Velocity":32,"Duration":100806,"SoundDuration":100806,"Delta":32105782},{"NoteNumber":75,"Velocity":29,"Duration":100806,"SoundDuration":100806,"Delta":32206588},{"NoteNumber":82,"Velocity":36,"Duration":100806,"SoundDuration":100806,"Delta":32206588},{"NoteNumber":83,"Velocity":31,"Duration":100806,"SoundDuration":100806,"Delta":32307395},{"NoteNumber":78,"Velocity":26,"Duration":100806,"SoundDuration":100806,"Delta":32307395},{"NoteNumber":82,"Velocity":36,"Duration":95298,"SoundDuration":95298,"Delta":32408201},{"NoteNumber":74,"Velocity":29,"Duration":95298,"SoundDuration":95298,"Delta":32408201},{"NoteNumber":65,"Velocity":38,"Duration":381194,"SoundDuration":381194,"Delta":32408201},{"NoteNumber":70,"Velocity":30,"Duration":792665,"SoundDuration":792665,"Delta":32408201},{"NoteNumber":83,"Velocity":32,"Duration":95298,"SoundDuration":95298,"Delta":32503500},{"NoteNumber":80,"Velocity":27,"Duration":95298,"SoundDuration":95298,"Delta":32503500},{"NoteNumber":74,"Velocity":29,"Duration":95298,"SoundDuration":95298,"Delta":32598799},{"NoteNumber":82,"Velocity":36,"Duration":95298,"SoundDuration":95298,"Delta":32598799},{"NoteNumber":80,"Velocity":26,"Duration":95298,"SoundDuration":95298,"Delta":32694097},{"NoteNumber":83,"Velocity":31,"Duration":95298,"SoundDuration":95298,"Delta":32694097},{"NoteNumber":82,"Velocity":36,"Duration":103192,"SoundDuration":103192,"Delta":32789396},{"NoteNumber":75,"Velocity":29,"Duration":103192,"SoundDuration":103192,"Delta":32789396},{"NoteNumber":63,"Velocity":33,"Duration":411471,"SoundDuration":411471,"Delta":32789396},{"NoteNumber":78,"Velocity":27,"Duration":51596,"SoundDuration":51596,"Delta":32892588},{"NoteNumber":83,"Velocity":32,"Duration":51596,"SoundDuration":51596,"Delta":32892588},{"NoteNumber":83,"Velocity":42,"Duration":103192,"SoundDuration":103192,"Delta":32995780},{"NoteNumber":75,"Velocity":42,"Duration":103192,"SoundDuration":103192,"Delta":32995780},{"NoteNumber":84,"Velocity":36,"Duration":51596,"SoundDuration":51596,"Delta":33098972},{"NoteNumber":78,"Velocity":36,"Duration":51596,"SoundDuration":51596,"Delta":33098972},{"NoteNumber":78,"Velocity":37,"Duration":99428,"SoundDuration":99428,"Delta":33200867},{"NoteNumber":85,"Velocity":45,"Duration":99428,"SoundDuration":99428,"Delta":33200867},{"NoteNumber":58,"Velocity":25,"Duration":198264,"SoundDuration":198264,"Delta":33200867},{"NoteNumber":70,"Velocity":25,"Duration":198264,"SoundDuration":198264,"Delta":33200867},{"NoteNumber":66,"Velocity":32,"Duration":198264,"SoundDuration":198264,"Delta":33200867},{"NoteNumber":82,"Velocity":32,"Duration":98836,"SoundDuration":98836,"Delta":33300295},{"NoteNumber":86,"Velocity":38,"Duration":98836,"SoundDuration":98836,"Delta":33300295},{"NoteNumber":86,"Velocity":45,"Duration":98085,"SoundDuration":98085,"Delta":33399132},{"NoteNumber":78,"Velocity":38,"Duration":98085,"SoundDuration":98085,"Delta":33399132},{"NoteNumber":87,"Velocity":38,"Duration":48796,"SoundDuration":48796,"Delta":33497218},{"NoteNumber":82,"Velocity":32,"Duration":48796,"SoundDuration":48796,"Delta":33497218},{"NoteNumber":87,"Velocity":46,"Duration":96752,"SoundDuration":96752,"Delta":33594619},{"NoteNumber":77,"Velocity":39,"Duration":96752,"SoundDuration":96752,"Delta":33594619},{"NoteNumber":68,"Velocity":29,"Duration":192786,"SoundDuration":192786,"Delta":33594619},{"NoteNumber":70,"Velocity":23,"Duration":192786,"SoundDuration":192786,"Delta":33594619},{"NoteNumber":58,"Velocity":23,"Duration":192786,"SoundDuration":192786,"Delta":33594619},{"NoteNumber":80,"Velocity":35,"Duration":48122,"SoundDuration":48122,"Delta":33691372},{"NoteNumber":86,"Velocity":41,"Duration":48122,"SoundDuration":48122,"Delta":33691372},{"NoteNumber":86,"Velocity":45,"Duration":95822,"SoundDuration":95822,"Delta":33787406},{"NoteNumber":77,"Velocity":38,"Duration":95822,"SoundDuration":95822,"Delta":33787406},{"NoteNumber":85,"Velocity":38,"Duration":47911,"SoundDuration":47911,"Delta":33883228},{"NoteNumber":80,"Velocity":32,"Duration":47911,"SoundDuration":47911,"Delta":33883228},{"NoteNumber":77,"Velocity":36,"Duration":95822,"SoundDuration":95822,"Delta":33979050},{"NoteNumber":85,"Velocity":43,"Duration":95822,"SoundDuration":95822,"Delta":33979050},{"NoteNumber":70,"Velocity":26,"Duration":609415,"SoundDuration":609415,"Delta":33979050},{"NoteNumber":68,"Velocity":33,"Duration":191644,"SoundDuration":191644,"Delta":33979050},{"NoteNumber":62,"Velocity":26,"Duration":191644,"SoundDuration":191644,"Delta":33979050},{"NoteNumber":84,"Velocity":37,"Duration":47911,"SoundDuration":47911,"Delta":34074873},{"NoteNumber":80,"Velocity":31,"Duration":47911,"SoundDuration":47911,"Delta":34074873},{"NoteNumber":77,"Velocity":35,"Duration":105693,"SoundDuration":105693,"Delta":34170695},{"NoteNumber":84,"Velocity":42,"Duration":105693,"SoundDuration":105693,"Delta":34170695},{"NoteNumber":80,"Velocity":29,"Duration":52846,"SoundDuration":52846,"Delta":34276388},{"NoteNumber":83,"Velocity":36,"Duration":52846,"SoundDuration":52846,"Delta":34276388},{"NoteNumber":78,"Velocity":29,"Duration":103192,"SoundDuration":103192,"Delta":34382081},{"NoteNumber":82,"Velocity":36,"Duration":103192,"SoundDuration":103192,"Delta":34382081},{"NoteNumber":63,"Velocity":23,"Duration":206384,"SoundDuration":206384,"Delta":34382081},{"NoteNumber":66,"Velocity":29,"Duration":206384,"SoundDuration":206384,"Delta":34382081},{"NoteNumber":75,"Velocity":27,"Duration":103192,"SoundDuration":103192,"Delta":34485274},{"NoteNumber":83,"Velocity":32,"Duration":103192,"SoundDuration":103192,"Delta":34485274},{"NoteNumber":78,"Velocity":29,"Duration":103192,"SoundDuration":103192,"Delta":34588466},{"NoteNumber":82,"Velocity":36,"Duration":103192,"SoundDuration":103192,"Delta":34588466},{"NoteNumber":87,"Velocity":33,"Duration":119445,"SoundDuration":119445,"Delta":34691658},{"NoteNumber":78,"Velocity":37,"Duration":97402,"SoundDuration":97402,"Delta":34811104},{"NoteNumber":90,"Velocity":45,"Duration":194805,"SoundDuration":194805,"Delta":34811104},{"NoteNumber":61,"Velocity":36,"Duration":389610,"SoundDuration":389610,"Delta":34811104},{"NoteNumber":46,"Velocity":30,"Duration":389610,"SoundDuration":389610,"Delta":34811104},{"NoteNumber":85,"Velocity":29,"Duration":97402,"SoundDuration":97402,"Delta":34908506},{"NoteNumber":87,"Velocity":36,"Duration":97402,"SoundDuration":97402,"Delta":34908506},{"NoteNumber":90,"Velocity":38,"Duration":97402,"SoundDuration":97402,"Delta":35005909},{"NoteNumber":78,"Velocity":31,"Duration":97402,"SoundDuration":97402,"Delta":35005909},{"NoteNumber":88,"Velocity":36,"Duration":97402,"SoundDuration":97402,"Delta":35103311},{"NoteNumber":85,"Velocity":29,"Duration":97402,"SoundDuration":97402,"Delta":35103311},{"NoteNumber":78,"Velocity":39,"Duration":97402,"SoundDuration":97402,"Delta":35200714},{"NoteNumber":88,"Velocity":48,"Duration":194805,"SoundDuration":194805,"Delta":35200714},{"NoteNumber":47,"Velocity":24,"Duration":194805,"SoundDuration":194805,"Delta":35200714},{"NoteNumber":63,"Velocity":29,"Duration":194805,"SoundDuration":194805,"Delta":35200714},{"NoteNumber":86,"Velocity":35,"Duration":97402,"SoundDuration":97402,"Delta":35298117},{"NoteNumber":83,"Velocity":28,"Duration":97402,"SoundDuration":97402,"Delta":35298117},{"NoteNumber":88,"Velocity":38,"Duration":97402,"SoundDuration":97402,"Delta":35395519},{"NoteNumber":78,"Velocity":31,"Duration":97402,"SoundDuration":97402,"Delta":35395519},{"NoteNumber":83,"Velocity":29,"Duration":97402,"SoundDuration":97402,"Delta":35492922},{"NoteNumber":87,"Velocity":36,"Duration":97402,"SoundDuration":97402,"Delta":35492922},{"NoteNumber":87,"Velocity":45,"Duration":194805,"SoundDuration":194805,"Delta":35590325},{"NoteNumber":76,"Velocity":45,"Duration":97402,"SoundDuration":97402,"Delta":35590325},{"NoteNumber":64,"Velocity":35,"Duration":405844,"SoundDuration":405844,"Delta":35590325},{"NoteNumber":49,"Velocity":28,"Duration":405844,"SoundDuration":405844,"Delta":35590325},{"NoteNumber":84,"Velocity":33,"Duration":97402,"SoundDuration":97402,"Delta":35687727},{"NoteNumber":82,"Velocity":27,"Duration":97402,"SoundDuration":97402,"Delta":35687727},{"NoteNumber":87,"Velocity":38,"Duration":97402,"SoundDuration":97402,"Delta":35785130},{"NoteNumber":76,"Velocity":31,"Duration":97402,"SoundDuration":97402,"Delta":35785130},{"NoteNumber":82,"Velocity":35,"Duration":113636,"SoundDuration":113636,"Delta":35882532},{"NoteNumber":85,"Velocity":35,"Duration":113636,"SoundDuration":113636,"Delta":35882532},{"NoteNumber":85,"Velocity":45,"Duration":194805,"SoundDuration":194805,"Delta":35996169},{"NoteNumber":75,"Velocity":37,"Duration":97402,"SoundDuration":97402,"Delta":35996169},{"NoteNumber":66,"Velocity":25,"Duration":194805,"SoundDuration":194805,"Delta":35996169},{"NoteNumber":51,"Velocity":20,"Duration":194805,"SoundDuration":194805,"Delta":35996169},{"NoteNumber":82,"Velocity":33,"Duration":97402,"SoundDuration":97402,"Delta":36093571},{"NoteNumber":78,"Velocity":27,"Duration":97402,"SoundDuration":97402,"Delta":36093571},{"NoteNumber":85,"Velocity":38,"Duration":97402,"SoundDuration":97402,"Delta":36190974},{"NoteNumber":75,"Velocity":31,"Duration":97402,"SoundDuration":97402,"Delta":36190974},{"NoteNumber":78,"Velocity":35,"Duration":80357,"SoundDuration":80357,"Delta":36288377},{"NoteNumber":83,"Velocity":35,"Duration":80357,"SoundDuration":80357,"Delta":36288377},{"NoteNumber":73,"Velocity":35,"Duration":98231,"SoundDuration":98231,"Delta":36395520},{"NoteNumber":84,"Velocity":42,"Duration":196463,"SoundDuration":196463,"Delta":36395520},{"NoteNumber":67,"Velocity":31,"Duration":400329,"SoundDuration":400329,"Delta":36395520},{"NoteNumber":52,"Velocity":26,"Duration":400329,"SoundDuration":400329,"Delta":36395520},{"NoteNumber":81,"Velocity":33,"Duration":98231,"SoundDuration":98231,"Delta":36493751},{"NoteNumber":79,"Velocity":33,"Duration":98231,"SoundDuration":98231,"Delta":36493751},{"NoteNumber":84,"Velocity":36,"Duration":98231,"SoundDuration":98231,"Delta":36591983},{"NoteNumber":73,"Velocity":29,"Duration":98231,"SoundDuration":98231,"Delta":36591983},{"NoteNumber":79,"Velocity":32,"Duration":79225,"SoundDuration":79225,"Delta":36690215},{"NoteNumber":82,"Velocity":32,"Duration":79225,"SoundDuration":79225,"Delta":36690215},{"NoteNumber":72,"Velocity":35,"Duration":98879,"SoundDuration":98879,"Delta":36795849},{"NoteNumber":82,"Velocity":41,"Duration":197758,"SoundDuration":197758,"Delta":36795849},{"NoteNumber":69,"Velocity":25,"Duration":197758,"SoundDuration":197758,"Delta":36795849},{"NoteNumber":53,"Velocity":21,"Duration":197758,"SoundDuration":197758,"Delta":36795849},{"NoteNumber":77,"Velocity":27,"Duration":98879,"SoundDuration":98879,"Delta":36894728},{"NoteNumber":80,"Velocity":32,"Duration":98879,"SoundDuration":98879,"Delta":36894728},{"NoteNumber":72,"Velocity":29,"Duration":98879,"SoundDuration":98879,"Delta":36993608},{"NoteNumber":82,"Velocity":36,"Duration":98879,"SoundDuration":98879,"Delta":36993608},{"NoteNumber":77,"Velocity":26,"Duration":81521,"SoundDuration":81521,"Delta":37092487},{"NoteNumber":81,"Velocity":31,"Duration":81521,"SoundDuration":81521,"Delta":37092487},{"NoteNumber":81,"Velocity":41,"Duration":199071,"SoundDuration":199071,"Delta":37201183},{"NoteNumber":70,"Velocity":35,"Duration":99535,"SoundDuration":99535,"Delta":37201183},{"NoteNumber":64,"Velocity":27,"Duration":199071,"SoundDuration":199071,"Delta":37201183},{"NoteNumber":55,"Velocity":22,"Duration":405979,"SoundDuration":405979,"Delta":37201183},{"NoteNumber":78,"Velocity":31,"Duration":99535,"SoundDuration":99535,"Delta":37300718},{"NoteNumber":76,"Velocity":26,"Duration":99535,"SoundDuration":99535,"Delta":37300718},{"NoteNumber":81,"Velocity":36,"Duration":99535,"SoundDuration":99535,"Delta":37400254},{"NoteNumber":70,"Velocity":29,"Duration":99535,"SoundDuration":99535,"Delta":37400254},{"NoteNumber":61,"Velocity":23,"Duration":206908,"SoundDuration":206908,"Delta":37400254},{"NoteNumber":79,"Velocity":31,"Duration":80529,"SoundDuration":80529,"Delta":37499789},{"NoteNumber":76,"Velocity":26,"Duration":80529,"SoundDuration":80529,"Delta":37499789},{"NoteNumber":69,"Velocity":32,"Duration":98879,"SoundDuration":98879,"Delta":37607162},{"NoteNumber":79,"Velocity":38,"Duration":197758,"SoundDuration":197758,"Delta":37607162},{"NoteNumber":57,"Velocity":24,"Duration":401753,"SoundDuration":401753,"Delta":37607162},{"NoteNumber":65,"Velocity":29,"Duration":98879,"SoundDuration":98879,"Delta":37607162},{"NoteNumber":76,"Velocity":29,"Duration":98879,"SoundDuration":98879,"Delta":37706042},{"NoteNumber":72,"Velocity":24,"Duration":98879,"SoundDuration":98879,"Delta":37706042},{"NoteNumber":79,"Velocity":36,"Duration":98879,"SoundDuration":98879,"Delta":37804921},{"NoteNumber":69,"Velocity":29,"Duration":98879,"SoundDuration":98879,"Delta":37804921},{"NoteNumber":60,"Velocity":25,"Duration":98879,"SoundDuration":98879,"Delta":37804921},{"NoteNumber":72,"Velocity":25,"Duration":78836,"SoundDuration":78836,"Delta":37903800},{"NoteNumber":77,"Velocity":30,"Duration":78836,"SoundDuration":78836,"Delta":37903800},{"NoteNumber":73,"Velocity":28,"Duration":197758,"SoundDuration":197758,"Delta":38008916},{"NoteNumber":77,"Velocity":33,"Duration":98879,"SoundDuration":98879,"Delta":38008916},{"NoteNumber":67,"Velocity":29,"Duration":98879,"SoundDuration":98879,"Delta":38008916},{"NoteNumber":58,"Velocity":29,"Duration":403021,"SoundDuration":403021,"Delta":38008916},{"NoteNumber":75,"Velocity":28,"Duration":98879,"SoundDuration":98879,"Delta":38107795},{"NoteNumber":77,"Velocity":33,"Duration":98879,"SoundDuration":98879,"Delta":38206675},{"NoteNumber":70,"Velocity":28,"Duration":205262,"SoundDuration":205262,"Delta":38206675},{"NoteNumber":61,"Velocity":24,"Duration":98879,"SoundDuration":98879,"Delta":38206675},{"NoteNumber":76,"Velocity":28,"Duration":106383,"SoundDuration":106383,"Delta":38305554},{"NoteNumber":79,"Velocity":31,"Duration":99535,"SoundDuration":99535,"Delta":38411937},{"NoteNumber":75,"Velocity":26,"Duration":199071,"SoundDuration":199071,"Delta":38411937},{"NoteNumber":60,"Velocity":24,"Duration":398142,"SoundDuration":398142,"Delta":38411937},{"NoteNumber":69,"Velocity":29,"Duration":99535,"SoundDuration":99535,"Delta":38411937},{"NoteNumber":76,"Velocity":27,"Duration":99535,"SoundDuration":99535,"Delta":38511473},{"NoteNumber":79,"Velocity":32,"Duration":99535,"SoundDuration":99535,"Delta":38611008},{"NoteNumber":72,"Velocity":27,"Duration":199070,"SoundDuration":199070,"Delta":38611008},{"NoteNumber":63,"Velocity":24,"Duration":99535,"SoundDuration":99535,"Delta":38611008},{"NoteNumber":77,"Velocity":25,"Duration":99535,"SoundDuration":99535,"Delta":38710544},{"NoteNumber":70,"Velocity":25,"Duration":99535,"SoundDuration":99535,"Delta":38810079},{"NoteNumber":77,"Velocity":30,"Duration":99535,"SoundDuration":99535,"Delta":38810079},{"NoteNumber":67,"Velocity":29,"Duration":99535,"SoundDuration":99535,"Delta":38810079},{"NoteNumber":61,"Velocity":24,"Duration":99535,"SoundDuration":99535,"Delta":38810079},{"NoteNumber":75,"Velocity":26,"Duration":99535,"SoundDuration":99535,"Delta":38909615},{"NoteNumber":77,"Velocity":31,"Duration":99535,"SoundDuration":99535,"Delta":39009150},{"NoteNumber":76,"Velocity":26,"Duration":108932,"SoundDuration":108932,"Delta":39108686},{"NoteNumber":79,"Velocity":32,"Duration":97402,"SoundDuration":97402,"Delta":39217618},{"NoteNumber":72,"Velocity":27,"Duration":97402,"SoundDuration":97402,"Delta":39217618},{"NoteNumber":69,"Velocity":29,"Duration":97402,"SoundDuration":97402,"Delta":39217618},{"NoteNumber":63,"Velocity":24,"Duration":97402,"SoundDuration":97402,"Delta":39217618},{"NoteNumber":75,"Velocity":28,"Duration":97402,"SoundDuration":97402,"Delta":39315021},{"NoteNumber":79,"Velocity":31,"Duration":97402,"SoundDuration":97402,"Delta":39412423},{"NoteNumber":78,"Velocity":28,"Duration":97402,"SoundDuration":97402,"Delta":39509826},{"NoteNumber":77,"Velocity":36,"Duration":91788,"SoundDuration":91788,"Delta":39607229},{"NoteNumber":78,"Velocity":31,"Duration":91788,"SoundDuration":91788,"Delta":39699017},{"NoteNumber":77,"Velocity":36,"Duration":91403,"SoundDuration":91403,"Delta":39790805},{"NoteNumber":79,"Velocity":30,"Duration":91563,"SoundDuration":91563,"Delta":39882208},{"NoteNumber":77,"Velocity":36,"Duration":91909,"SoundDuration":91909,"Delta":39973772},{"NoteNumber":78,"Velocity":31,"Duration":92273,"SoundDuration":92273,"Delta":40065681},{"NoteNumber":77,"Velocity":36,"Duration":92748,"SoundDuration":92748,"Delta":40157955},{"NoteNumber":79,"Velocity":31,"Duration":93103,"SoundDuration":93103,"Delta":40250703},{"NoteNumber":77,"Velocity":36,"Duration":93460,"SoundDuration":93460,"Delta":40343806},{"NoteNumber":78,"Velocity":31,"Duration":93829,"SoundDuration":93829,"Delta":40437267},{"NoteNumber":77,"Velocity":36,"Duration":94268,"SoundDuration":94268,"Delta":40531097},{"NoteNumber":79,"Velocity":32,"Duration":94703,"SoundDuration":94703,"Delta":40625365},{"NoteNumber":77,"Velocity":36,"Duration":96351,"SoundDuration":96351,"Delta":40720069},{"NoteNumber":78,"Velocity":32,"Duration":96351,"SoundDuration":96351,"Delta":40816420},{"NoteNumber":77,"Velocity":36,"Duration":96351,"SoundDuration":96351,"Delta":40912772},{"NoteNumber":79,"Velocity":31,"Duration":96351,"SoundDuration":96351,"Delta":41009123},{"NoteNumber":69,"Velocity":29,"Duration":96351,"SoundDuration":96351,"Delta":41105475},{"NoteNumber":77,"Velocity":36,"Duration":96351,"SoundDuration":96351,"Delta":41105475},{"NoteNumber":51,"Velocity":41,"Duration":96351,"SoundDuration":96351,"Delta":41105475},{"NoteNumber":78,"Velocity":32,"Duration":96351,"SoundDuration":96351,"Delta":41201826},{"NoteNumber":72,"Velocity":27,"Duration":96351,"SoundDuration":96351,"Delta":41201826},{"NoteNumber":67,"Velocity":36,"Duration":48175,"SoundDuration":48175,"Delta":41250002},{"NoteNumber":69,"Velocity":29,"Duration":96351,"SoundDuration":96351,"Delta":41298178},{"NoteNumber":77,"Velocity":36,"Duration":96351,"SoundDuration":96351,"Delta":41298178},{"NoteNumber":65,"Velocity":41,"Duration":48175,"SoundDuration":48175,"Delta":41298178},{"NoteNumber":72,"Velocity":26,"Duration":96351,"SoundDuration":96351,"Delta":41394529},{"NoteNumber":79,"Velocity":31,"Duration":96351,"SoundDuration":96351,"Delta":41394529},{"NoteNumber":70,"Velocity":29,"Duration":100806,"SoundDuration":100806,"Delta":41490881},{"NoteNumber":77,"Velocity":36,"Duration":100806,"SoundDuration":100806,"Delta":41490881},{"NoteNumber":50,"Velocity":41,"Duration":100806,"SoundDuration":100806,"Delta":41490881},{"NoteNumber":74,"Velocity":27,"Duration":100806,"SoundDuration":100806,"Delta":41591687},{"NoteNumber":78,"Velocity":32,"Duration":100806,"SoundDuration":100806,"Delta":41591687},{"NoteNumber":66,"Velocity":36,"Duration":50403,"SoundDuration":50403,"Delta":41642091},{"NoteNumber":70,"Velocity":29,"Duration":100806,"SoundDuration":100806,"Delta":41692494},{"NoteNumber":77,"Velocity":36,"Duration":100806,"SoundDuration":100806,"Delta":41692494},{"NoteNumber":65,"Velocity":41,"Duration":50403,"SoundDuration":50403,"Delta":41692494},{"NoteNumber":74,"Velocity":26,"Duration":100806,"SoundDuration":100806,"Delta":41793300},{"NoteNumber":79,"Velocity":31,"Duration":100806,"SoundDuration":100806,"Delta":41793300},{"NoteNumber":69,"Velocity":29,"Duration":95298,"SoundDuration":95298,"Delta":41894107},{"NoteNumber":77,"Velocity":36,"Duration":95298,"SoundDuration":95298,"Delta":41894107},{"NoteNumber":48,"Velocity":41,"Duration":95298,"SoundDuration":95298,"Delta":41894107},{"NoteNumber":78,"Velocity":32,"Duration":95298,"SoundDuration":95298,"Delta":41989406},{"NoteNumber":72,"Velocity":27,"Duration":95298,"SoundDuration":95298,"Delta":41989406},{"NoteNumber":67,"Velocity":36,"Duration":47649,"SoundDuration":47649,"Delta":42037055},{"NoteNumber":77,"Velocity":36,"Duration":95298,"SoundDuration":95298,"Delta":42084704},{"NoteNumber":69,"Velocity":29,"Duration":95298,"SoundDuration":95298,"Delta":42084704},{"NoteNumber":65,"Velocity":41,"Duration":47649,"SoundDuration":47649,"Delta":42084704},{"NoteNumber":72,"Velocity":26,"Duration":95298,"SoundDuration":95298,"Delta":42180003},{"NoteNumber":79,"Velocity":31,"Duration":95298,"SoundDuration":95298,"Delta":42180003},{"NoteNumber":77,"Velocity":36,"Duration":103192,"SoundDuration":103192,"Delta":42275301},{"NoteNumber":70,"Velocity":29,"Duration":103192,"SoundDuration":103192,"Delta":42275301},{"NoteNumber":46,"Velocity":41,"Duration":103192,"SoundDuration":103192,"Delta":42275301},{"NoteNumber":78,"Velocity":32,"Duration":51596,"SoundDuration":51596,"Delta":42378494},{"NoteNumber":74,"Velocity":27,"Duration":51596,"SoundDuration":51596,"Delta":42378494},{"NoteNumber":66,"Velocity":35,"Duration":51596,"SoundDuration":51596,"Delta":42430090},{"NoteNumber":70,"Velocity":42,"Duration":103192,"SoundDuration":103192,"Delta":42481686},{"NoteNumber":78,"Velocity":42,"Duration":103192,"SoundDuration":103192,"Delta":42481686},{"NoteNumber":65,"Velocity":41,"Duration":51596,"SoundDuration":51596,"Delta":42481686},{"NoteNumber":74,"Velocity":36,"Duration":51596,"SoundDuration":51596,"Delta":42584878},{"NoteNumber":79,"Velocity":36,"Duration":51596,"SoundDuration":51596,"Delta":42584878},{"NoteNumber":80,"Velocity":45,"Duration":99428,"SoundDuration":99428,"Delta":42686773},{"NoteNumber":74,"Velocity":45,"Duration":99428,"SoundDuration":99428,"Delta":42686773},{"NoteNumber":41,"Velocity":44,"Duration":99428,"SoundDuration":99428,"Delta":42686773},{"NoteNumber":81,"Velocity":38,"Duration":98836,"SoundDuration":98836,"Delta":42786201},{"NoteNumber":77,"Velocity":38,"Duration":98836,"SoundDuration":98836,"Delta":42786201},{"NoteNumber":67,"Velocity":39,"Duration":49292,"SoundDuration":49292,"Delta":42835745},{"NoteNumber":81,"Velocity":45,"Duration":98085,"SoundDuration":98085,"Delta":42885037},{"NoteNumber":74,"Velocity":45,"Duration":98085,"SoundDuration":98085,"Delta":42885037},{"NoteNumber":65,"Velocity":45,"Duration":49098,"SoundDuration":49098,"Delta":42885037},{"NoteNumber":82,"Velocity":38,"Duration":48796,"SoundDuration":48796,"Delta":42983123},{"NoteNumber":77,"Velocity":38,"Duration":48796,"SoundDuration":48796,"Delta":42983123},{"NoteNumber":72,"Velocity":46,"Duration":96752,"SoundDuration":96752,"Delta":43080525},{"NoteNumber":82,"Velocity":46,"Duration":96752,"SoundDuration":96752,"Delta":43080525},{"NoteNumber":41,"Velocity":46,"Duration":96752,"SoundDuration":96752,"Delta":43080525},{"NoteNumber":81,"Velocity":41,"Duration":48122,"SoundDuration":48122,"Delta":43177278},{"NoteNumber":75,"Velocity":41,"Duration":48122,"SoundDuration":48122,"Delta":43177278},{"NoteNumber":66,"Velocity":39,"Duration":47911,"SoundDuration":47911,"Delta":43225401},{"NoteNumber":81,"Velocity":45,"Duration":95822,"SoundDuration":95822,"Delta":43273312},{"NoteNumber":72,"Velocity":45,"Duration":95822,"SoundDuration":95822,"Delta":43273312},{"NoteNumber":65,"Velocity":45,"Duration":47911,"SoundDuration":47911,"Delta":43273312},{"NoteNumber":75,"Velocity":38,"Duration":47911,"SoundDuration":47911,"Delta":43369134},{"NoteNumber":80,"Velocity":38,"Duration":47911,"SoundDuration":47911,"Delta":43369134},{"NoteNumber":80,"Velocity":43,"Duration":95822,"SoundDuration":95822,"Delta":43464956},{"NoteNumber":72,"Velocity":43,"Duration":95822,"SoundDuration":95822,"Delta":43464956},{"NoteNumber":45,"Velocity":45,"Duration":95822,"SoundDuration":95822,"Delta":43464956},{"NoteNumber":79,"Velocity":37,"Duration":47911,"SoundDuration":47911,"Delta":43560778},{"NoteNumber":75,"Velocity":37,"Duration":47911,"SoundDuration":47911,"Delta":43560778},{"NoteNumber":67,"Velocity":36,"Duration":47911,"SoundDuration":47911,"Delta":43608689},{"NoteNumber":79,"Velocity":42,"Duration":105693,"SoundDuration":105693,"Delta":43656600},{"NoteNumber":72,"Velocity":42,"Duration":105693,"SoundDuration":105693,"Delta":43656600},{"NoteNumber":65,"Velocity":41,"Duration":52846,"SoundDuration":52846,"Delta":43656600},{"NoteNumber":78,"Velocity":36,"Duration":52846,"SoundDuration":52846,"Delta":43762294},{"NoteNumber":75,"Velocity":36,"Duration":52846,"SoundDuration":52846,"Delta":43762294},{"NoteNumber":74,"Velocity":29,"Duration":98039,"SoundDuration":98039,"Delta":43867987},{"NoteNumber":77,"Velocity":36,"Duration":98039,"SoundDuration":98039,"Delta":43867987},{"NoteNumber":46,"Velocity":41,"Duration":98039,"SoundDuration":98039,"Delta":43867987},{"NoteNumber":70,"Velocity":27,"Duration":98039,"SoundDuration":98039,"Delta":43966026},{"NoteNumber":78,"Velocity":32,"Duration":98039,"SoundDuration":98039,"Delta":43966026},{"NoteNumber":66,"Velocity":36,"Duration":49019,"SoundDuration":49019,"Delta":44015046},{"NoteNumber":74,"Velocity":29,"Duration":98039,"SoundDuration":98039,"Delta":44064065},{"NoteNumber":77,"Velocity":36,"Duration":98039,"SoundDuration":98039,"Delta":44064065},{"NoteNumber":65,"Velocity":41,"Duration":49019,"SoundDuration":49019,"Delta":44064065},{"NoteNumber":79,"Velocity":31,"Duration":110375,"SoundDuration":110375,"Delta":44162105},{"NoteNumber":70,"Velocity":26,"Duration":110375,"SoundDuration":110375,"Delta":44162105},{"NoteNumber":69,"Velocity":29,"Duration":96351,"SoundDuration":96351,"Delta":44272480},{"NoteNumber":77,"Velocity":36,"Duration":96351,"SoundDuration":96351,"Delta":44272480},{"NoteNumber":51,"Velocity":41,"Duration":96351,"SoundDuration":96351,"Delta":44272480},{"NoteNumber":72,"Velocity":27,"Duration":96351,"SoundDuration":96351,"Delta":44368831},{"NoteNumber":78,"Velocity":32,"Duration":96351,"SoundDuration":96351,"Delta":44368831},{"NoteNumber":67,"Velocity":36,"Duration":48175,"SoundDuration":48175,"Delta":44417007},{"NoteNumber":77,"Velocity":36,"Duration":96351,"SoundDuration":96351,"Delta":44465183},{"NoteNumber":69,"Velocity":29,"Duration":96351,"SoundDuration":96351,"Delta":44465183},{"NoteNumber":65,"Velocity":41,"Duration":48175,"SoundDuration":48175,"Delta":44465183},{"NoteNumber":72,"Velocity":26,"Duration":96351,"SoundDuration":96351,"Delta":44561534},{"NoteNumber":79,"Velocity":31,"Duration":96351,"SoundDuration":96351,"Delta":44561534},{"NoteNumber":77,"Velocity":36,"Duration":100806,"SoundDuration":100806,"Delta":44657886},{"NoteNumber":70,"Velocity":29,"Duration":100806,"SoundDuration":100806,"Delta":44657886},{"NoteNumber":50,"Velocity":41,"Duration":100806,"SoundDuration":100806,"Delta":44657886},{"NoteNumber":74,"Velocity":27,"Duration":100806,"SoundDuration":100806,"Delta":44758692},{"NoteNumber":78,"Velocity":32,"Duration":100806,"SoundDuration":100806,"Delta":44758692},{"NoteNumber":66,"Velocity":36,"Duration":50403,"SoundDuration":50403,"Delta":44809096},{"NoteNumber":77,"Velocity":36,"Duration":100806,"SoundDuration":100806,"Delta":44859499},{"NoteNumber":70,"Velocity":29,"Duration":100806,"SoundDuration":100806,"Delta":44859499},{"NoteNumber":65,"Velocity":41,"Duration":50403,"SoundDuration":50403,"Delta":44859499},{"NoteNumber":74,"Velocity":26,"Duration":100806,"SoundDuration":100806,"Delta":44960305},{"NoteNumber":79,"Velocity":31,"Duration":100806,"SoundDuration":100806,"Delta":44960305},{"NoteNumber":77,"Velocity":36,"Duration":95298,"SoundDuration":95298,"Delta":45061112},{"NoteNumber":69,"Velocity":29,"Duration":95298,"SoundDuration":95298,"Delta":45061112},{"NoteNumber":48,"Velocity":41,"Duration":95298,"SoundDuration":95298,"Delta":45061112},{"NoteNumber":78,"Velocity":32,"Duration":95298,"SoundDuration":95298,"Delta":45156411},{"NoteNumber":75,"Velocity":27,"Duration":95298,"SoundDuration":95298,"Delta":45156411},{"NoteNumber":67,"Velocity":36,"Duration":47649,"SoundDuration":47649,"Delta":45204060},{"NoteNumber":69,"Velocity":29,"Duration":95298,"SoundDuration":95298,"Delta":45251709},{"NoteNumber":77,"Velocity":36,"Duration":95298,"SoundDuration":95298,"Delta":45251709},{"NoteNumber":65,"Velocity":41,"Duration":47649,"SoundDuration":47649,"Delta":45251709},{"NoteNumber":75,"Velocity":26,"Duration":95298,"SoundDuration":95298,"Delta":45347008},{"NoteNumber":79,"Velocity":31,"Duration":95298,"SoundDuration":95298,"Delta":45347008},{"NoteNumber":70,"Velocity":29,"Duration":103192,"SoundDuration":103192,"Delta":45442306},{"NoteNumber":77,"Velocity":36,"Duration":103192,"SoundDuration":103192,"Delta":45442306},{"NoteNumber":46,"Velocity":41,"Duration":103192,"SoundDuration":103192,"Delta":45442306},{"NoteNumber":74,"Velocity":27,"Duration":51596,"SoundDuration":51596,"Delta":45545499},{"NoteNumber":78,"Velocity":32,"Duration":51596,"SoundDuration":51596,"Delta":45545499},{"NoteNumber":66,"Velocity":35,"Duration":51596,"SoundDuration":51596,"Delta":45597095},{"NoteNumber":78,"Velocity":42,"Duration":103192,"SoundDuration":103192,"Delta":45648691},{"NoteNumber":70,"Velocity":42,"Duration":103192,"SoundDuration":103192,"Delta":45648691},{"NoteNumber":65,"Velocity":41,"Duration":51596,"SoundDuration":51596,"Delta":45648691},{"NoteNumber":74,"Velocity":36,"Duration":51596,"SoundDuration":51596,"Delta":45751883},{"NoteNumber":79,"Velocity":36,"Duration":51596,"SoundDuration":51596,"Delta":45751883},{"NoteNumber":74,"Velocity":45,"Duration":99428,"SoundDuration":99428,"Delta":45853778},{"NoteNumber":80,"Velocity":45,"Duration":99428,"SoundDuration":99428,"Delta":45853778},{"NoteNumber":41,"Velocity":44,"Duration":99428,"SoundDuration":99428,"Delta":45853778},{"NoteNumber":81,"Velocity":38,"Duration":98836,"SoundDuration":98836,"Delta":45953206},{"NoteNumber":77,"Velocity":38,"Duration":98836,"SoundDuration":98836,"Delta":45953206},{"NoteNumber":67,"Velocity":39,"Duration":49292,"SoundDuration":49292,"Delta":46002750},{"NoteNumber":81,"Velocity":45,"Duration":98085,"SoundDuration":98085,"Delta":46052042},{"NoteNumber":74,"Velocity":45,"Duration":98085,"SoundDuration":98085,"Delta":46052042},{"NoteNumber":65,"Velocity":45,"Duration":49098,"SoundDuration":49098,"Delta":46052042},{"NoteNumber":77,"Velocity":38,"Duration":48796,"SoundDuration":48796,"Delta":46150128},{"NoteNumber":82,"Velocity":38,"Duration":48796,"SoundDuration":48796,"Delta":46150128},{"NoteNumber":72,"Velocity":46,"Duration":96752,"SoundDuration":96752,"Delta":46247530},{"NoteNumber":82,"Velocity":46,"Duration":96752,"SoundDuration":96752,"Delta":46247530},{"NoteNumber":41,"Velocity":46,"Duration":96752,"SoundDuration":96752,"Delta":46247530},{"NoteNumber":81,"Velocity":41,"Duration":48122,"SoundDuration":48122,"Delta":46344283},{"NoteNumber":75,"Velocity":41,"Duration":48122,"SoundDuration":48122,"Delta":46344283},{"NoteNumber":66,"Velocity":39,"Duration":47911,"SoundDuration":47911,"Delta":46392406},{"NoteNumber":72,"Velocity":45,"Duration":95822,"SoundDuration":95822,"Delta":46440317},{"NoteNumber":81,"Velocity":45,"Duration":95822,"SoundDuration":95822,"Delta":46440317},{"NoteNumber":65,"Velocity":45,"Duration":47911,"SoundDuration":47911,"Delta":46440317},{"NoteNumber":75,"Velocity":38,"Duration":47911,"SoundDuration":47911,"Delta":46536139},{"NoteNumber":80,"Velocity":38,"Duration":47911,"SoundDuration":47911,"Delta":46536139},{"NoteNumber":80,"Velocity":43,"Duration":95822,"SoundDuration":95822,"Delta":46631961},{"NoteNumber":72,"Velocity":43,"Duration":95822,"SoundDuration":95822,"Delta":46631961},{"NoteNumber":45,"Velocity":45,"Duration":95822,"SoundDuration":95822,"Delta":46631961},{"NoteNumber":79,"Velocity":37,"Duration":47911,"SoundDuration":47911,"Delta":46727783},{"NoteNumber":75,"Velocity":37,"Duration":47911,"SoundDuration":47911,"Delta":46727783},{"NoteNumber":67,"Velocity":36,"Duration":47911,"SoundDuration":47911,"Delta":46775694},{"NoteNumber":72,"Velocity":42,"Duration":105693,"SoundDuration":105693,"Delta":46823605},{"NoteNumber":79,"Velocity":42,"Duration":105693,"SoundDuration":105693,"Delta":46823605},{"NoteNumber":65,"Velocity":41,"Duration":52846,"SoundDuration":52846,"Delta":46823605},{"NoteNumber":75,"Velocity":37,"Duration":52846,"SoundDuration":52846,"Delta":46929299},{"NoteNumber":78,"Velocity":37,"Duration":52846,"SoundDuration":52846,"Delta":46929299},{"NoteNumber":74,"Velocity":29,"Duration":100227,"SoundDuration":100227,"Delta":47034992},{"NoteNumber":77,"Velocity":37,"Duration":100227,"SoundDuration":100227,"Delta":47034992},{"NoteNumber":46,"Velocity":46,"Duration":100227,"SoundDuration":100227,"Delta":47034992},{"NoteNumber":70,"Velocity":28,"Duration":100227,"SoundDuration":100227,"Delta":47135219},{"NoteNumber":78,"Velocity":33,"Duration":100227,"SoundDuration":100227,"Delta":47135219},{"NoteNumber":67,"Velocity":42,"Duration":50113,"SoundDuration":50113,"Delta":47185333},{"NoteNumber":77,"Velocity":37,"Duration":100227,"SoundDuration":100227,"Delta":47235446},{"NoteNumber":74,"Velocity":30,"Duration":100227,"SoundDuration":100227,"Delta":47235446},{"NoteNumber":65,"Velocity":46,"Duration":50113,"SoundDuration":50113,"Delta":47235446},{"NoteNumber":81,"Velocity":36,"Duration":107650,"SoundDuration":107650,"Delta":47335673},{"NoteNumber":74,"Velocity":30,"Duration":93341,"SoundDuration":93341,"Delta":47443324},{"NoteNumber":82,"Velocity":37,"Duration":93341,"SoundDuration":93341,"Delta":47443324},{"NoteNumber":56,"Velocity":52,"Duration":93341,"SoundDuration":93341,"Delta":47443324},{"NoteNumber":77,"Velocity":28,"Duration":93341,"SoundDuration":93341,"Delta":47536665},{"NoteNumber":83,"Velocity":33,"Duration":93341,"SoundDuration":93341,"Delta":47536665},{"NoteNumber":71,"Velocity":46,"Duration":46670,"SoundDuration":46670,"Delta":47583336},{"NoteNumber":82,"Velocity":38,"Duration":93341,"SoundDuration":93341,"Delta":47630007},{"NoteNumber":74,"Velocity":30,"Duration":93341,"SoundDuration":93341,"Delta":47630007},{"NoteNumber":70,"Velocity":53,"Duration":46670,"SoundDuration":46670,"Delta":47630007},{"NoteNumber":77,"Velocity":27,"Duration":93341,"SoundDuration":93341,"Delta":47723349},{"NoteNumber":84,"Velocity":33,"Duration":93341,"SoundDuration":93341,"Delta":47723349},{"NoteNumber":82,"Velocity":38,"Duration":97592,"SoundDuration":97592,"Delta":47816690},{"NoteNumber":75,"Velocity":31,"Duration":97592,"SoundDuration":97592,"Delta":47816690},{"NoteNumber":55,"Velocity":54,"Duration":97592,"SoundDuration":97592,"Delta":47816690},{"NoteNumber":83,"Velocity":34,"Duration":97592,"SoundDuration":97592,"Delta":47914283},{"NoteNumber":78,"Velocity":28,"Duration":97592,"SoundDuration":97592,"Delta":47914283},{"NoteNumber":72,"Velocity":48,"Duration":48796,"SoundDuration":48796,"Delta":47963079},{"NoteNumber":75,"Velocity":31,"Duration":97592,"SoundDuration":97592,"Delta":48011876},{"NoteNumber":82,"Velocity":38,"Duration":97592,"SoundDuration":97592,"Delta":48011876},{"NoteNumber":70,"Velocity":55,"Duration":48796,"SoundDuration":48796,"Delta":48011876},{"NoteNumber":78,"Velocity":28,"Duration":97592,"SoundDuration":97592,"Delta":48109469},{"NoteNumber":84,"Velocity":33,"Duration":97592,"SoundDuration":97592,"Delta":48109469},{"NoteNumber":77,"Velocity":31,"Duration":91630,"SoundDuration":91630,"Delta":48207061},{"NoteNumber":82,"Velocity":39,"Duration":91630,"SoundDuration":91630,"Delta":48207061},{"NoteNumber":50,"Velocity":55,"Duration":91630,"SoundDuration":91630,"Delta":48207061},{"NoteNumber":83,"Velocity":34,"Duration":91630,"SoundDuration":91630,"Delta":48298692},{"NoteNumber":80,"Velocity":29,"Duration":91630,"SoundDuration":91630,"Delta":48298692},{"NoteNumber":71,"Velocity":49,"Duration":45815,"SoundDuration":45815,"Delta":48344508},{"NoteNumber":77,"Velocity":31,"Duration":91630,"SoundDuration":91630,"Delta":48390323},{"NoteNumber":82,"Velocity":39,"Duration":91630,"SoundDuration":91630,"Delta":48390323},{"NoteNumber":70,"Velocity":56,"Duration":45815,"SoundDuration":45815,"Delta":48390323},{"NoteNumber":80,"Velocity":28,"Duration":91630,"SoundDuration":91630,"Delta":48481954},{"NoteNumber":84,"Velocity":34,"Duration":91630,"SoundDuration":91630,"Delta":48481954},{"NoteNumber":75,"Velocity":32,"Duration":101557,"SoundDuration":101557,"Delta":48573585},{"NoteNumber":82,"Velocity":39,"Duration":101557,"SoundDuration":101557,"Delta":48573585},{"NoteNumber":51,"Velocity":56,"Duration":101557,"SoundDuration":101557,"Delta":48573585},{"NoteNumber":79,"Velocity":29,"Duration":50778,"SoundDuration":50778,"Delta":48675143},{"NoteNumber":83,"Velocity":35,"Duration":50778,"SoundDuration":50778,"Delta":48675143},{"NoteNumber":71,"Velocity":49,"Duration":50778,"SoundDuration":50778,"Delta":48725921},{"NoteNumber":75,"Velocity":47,"Duration":101557,"SoundDuration":101557,"Delta":48776700},{"NoteNumber":83,"Velocity":47,"Duration":101557,"SoundDuration":101557,"Delta":48776700},{"NoteNumber":70,"Velocity":57,"Duration":50778,"SoundDuration":50778,"Delta":48776700},{"NoteNumber":79,"Velocity":40,"Duration":50430,"SoundDuration":50430,"Delta":48878257},{"NoteNumber":84,"Velocity":40,"Duration":50430,"SoundDuration":50430,"Delta":48878257},{"NoteNumber":79,"Velocity":50,"Duration":95990,"SoundDuration":95990,"Delta":48976857},{"NoteNumber":85,"Velocity":50,"Duration":95990,"SoundDuration":95990,"Delta":48976857},{"NoteNumber":46,"Velocity":59,"Duration":95990,"SoundDuration":95990,"Delta":48976857},{"NoteNumber":86,"Velocity":42,"Duration":95188,"SoundDuration":95188,"Delta":49072848},{"NoteNumber":82,"Velocity":42,"Duration":95188,"SoundDuration":95188,"Delta":49072848},{"NoteNumber":72,"Velocity":51,"Duration":47518,"SoundDuration":47518,"Delta":49120518},{"NoteNumber":86,"Velocity":51,"Duration":94330,"SoundDuration":94330,"Delta":49168037},{"NoteNumber":79,"Velocity":51,"Duration":94330,"SoundDuration":94330,"Delta":49168037},{"NoteNumber":70,"Velocity":60,"Duration":47258,"SoundDuration":47258,"Delta":49168037},{"NoteNumber":87,"Velocity":43,"Duration":46963,"SoundDuration":46963,"Delta":49262367},{"NoteNumber":82,"Velocity":43,"Duration":46963,"SoundDuration":46963,"Delta":49262367},{"NoteNumber":77,"Velocity":52,"Duration":93014,"SoundDuration":93014,"Delta":49356108},{"NoteNumber":87,"Velocity":52,"Duration":93014,"SoundDuration":93014,"Delta":49356108},{"NoteNumber":46,"Velocity":60,"Duration":93014,"SoundDuration":93014,"Delta":49356108},{"NoteNumber":80,"Velocity":47,"Duration":46201,"SoundDuration":46201,"Delta":49449123},{"NoteNumber":86,"Velocity":47,"Duration":46201,"SoundDuration":46201,"Delta":49449123},{"NoteNumber":71,"Velocity":52,"Duration":46059,"SoundDuration":46059,"Delta":49495324},{"NoteNumber":86,"Velocity":51,"Duration":91630,"SoundDuration":91630,"Delta":49541384},{"NoteNumber":77,"Velocity":51,"Duration":91630,"SoundDuration":91630,"Delta":49541384},{"NoteNumber":70,"Velocity":60,"Duration":45815,"SoundDuration":45815,"Delta":49541384},{"NoteNumber":85,"Velocity":44,"Duration":45815,"SoundDuration":45815,"Delta":49633015},{"NoteNumber":80,"Velocity":44,"Duration":45815,"SoundDuration":45815,"Delta":49633015},{"NoteNumber":77,"Velocity":49,"Duration":91630,"SoundDuration":91630,"Delta":49724646},{"NoteNumber":85,"Velocity":49,"Duration":91630,"SoundDuration":91630,"Delta":49724646},{"NoteNumber":50,"Velocity":61,"Duration":91630,"SoundDuration":91630,"Delta":49724646},{"NoteNumber":80,"Velocity":43,"Duration":45815,"SoundDuration":45815,"Delta":49816277},{"NoteNumber":84,"Velocity":43,"Duration":45815,"SoundDuration":45815,"Delta":49816277},{"NoteNumber":72,"Velocity":52,"Duration":45815,"SoundDuration":45815,"Delta":49862093},{"NoteNumber":77,"Velocity":49,"Duration":100874,"SoundDuration":100874,"Delta":49907908},{"NoteNumber":84,"Velocity":49,"Duration":100874,"SoundDuration":100874,"Delta":49907908},{"NoteNumber":70,"Velocity":60,"Duration":50437,"SoundDuration":50437,"Delta":49907908},{"NoteNumber":80,"Velocity":42,"Duration":50437,"SoundDuration":50437,"Delta":50008782},{"NoteNumber":83,"Velocity":42,"Duration":50437,"SoundDuration":50437,"Delta":50008782},{"NoteNumber":79,"Velocity":34,"Duration":92764,"SoundDuration":92764,"Delta":50109657},{"NoteNumber":82,"Velocity":42,"Duration":92764,"SoundDuration":92764,"Delta":50109657},{"NoteNumber":51,"Velocity":60,"Duration":92764,"SoundDuration":92764,"Delta":50109657},{"NoteNumber":83,"Velocity":38,"Duration":92764,"SoundDuration":92764,"Delta":50202421},{"NoteNumber":75,"Velocity":32,"Duration":92764,"SoundDuration":92764,"Delta":50202421},{"NoteNumber":71,"Velocity":53,"Duration":46382,"SoundDuration":46382,"Delta":50248803},{"NoteNumber":82,"Velocity":42,"Duration":92764,"SoundDuration":92764,"Delta":50295185},{"NoteNumber":79,"Velocity":34,"Duration":92764,"SoundDuration":92764,"Delta":50295185},{"NoteNumber":70,"Velocity":60,"Duration":46382,"SoundDuration":46382,"Delta":50295185},{"NoteNumber":75,"Velocity":31,"Duration":92764,"SoundDuration":92764,"Delta":50387950},{"NoteNumber":84,"Velocity":37,"Duration":92764,"SoundDuration":92764,"Delta":50387950},{"NoteNumber":82,"Velocity":43,"Duration":94518,"SoundDuration":94518,"Delta":50480714},{"NoteNumber":74,"Velocity":34,"Duration":94518,"SoundDuration":94518,"Delta":50480714},{"NoteNumber":56,"Velocity":54,"Duration":94518,"SoundDuration":94518,"Delta":50480714},{"NoteNumber":83,"Velocity":38,"Duration":94518,"SoundDuration":94518,"Delta":50575232},{"NoteNumber":77,"Velocity":32,"Duration":94518,"SoundDuration":94518,"Delta":50575232},{"NoteNumber":72,"Velocity":47,"Duration":47259,"SoundDuration":47259,"Delta":50622491},{"NoteNumber":74,"Velocity":35,"Duration":94518,"SoundDuration":94518,"Delta":50669750},{"NoteNumber":82,"Velocity":43,"Duration":94518,"SoundDuration":94518,"Delta":50669750},{"NoteNumber":70,"Velocity":54,"Duration":47258,"SoundDuration":47258,"Delta":50669750},{"NoteNumber":84,"Velocity":37,"Duration":94518,"SoundDuration":94518,"Delta":50764268},{"NoteNumber":77,"Velocity":31,"Duration":94518,"SoundDuration":94518,"Delta":50764268},{"NoteNumber":82,"Velocity":43,"Duration":98231,"SoundDuration":98231,"Delta":50858786},{"NoteNumber":75,"Velocity":35,"Duration":98231,"SoundDuration":98231,"Delta":50858786},{"NoteNumber":55,"Velocity":54,"Duration":98231,"SoundDuration":98231,"Delta":50858786},{"NoteNumber":78,"Velocity":33,"Duration":98231,"SoundDuration":98231,"Delta":50957018},{"NoteNumber":83,"Velocity":39,"Duration":98231,"SoundDuration":98231,"Delta":50957018},{"NoteNumber":71,"Velocity":46,"Duration":49115,"SoundDuration":49115,"Delta":51006134},{"NoteNumber":75,"Velocity":35,"Duration":98231,"SoundDuration":98231,"Delta":51055250},{"NoteNumber":82,"Velocity":44,"Duration":98231,"SoundDuration":98231,"Delta":51055250},{"NoteNumber":70,"Velocity":55,"Duration":49115,"SoundDuration":49115,"Delta":51055250},{"NoteNumber":78,"Velocity":32,"Duration":98231,"SoundDuration":98231,"Delta":51153482},{"NoteNumber":84,"Velocity":38,"Duration":98231,"SoundDuration":98231,"Delta":51153482},{"NoteNumber":82,"Velocity":44,"Duration":92764,"SoundDuration":92764,"Delta":51251714},{"NoteNumber":77,"Velocity":35,"Duration":92764,"SoundDuration":92764,"Delta":51251714},{"NoteNumber":50,"Velocity":55,"Duration":92764,"SoundDuration":92764,"Delta":51251714},{"NoteNumber":83,"Velocity":39,"Duration":92764,"SoundDuration":92764,"Delta":51344478},{"NoteNumber":80,"Velocity":33,"Duration":92764,"SoundDuration":92764,"Delta":51344478},{"NoteNumber":72,"Velocity":48,"Duration":46382,"SoundDuration":46382,"Delta":51390860},{"NoteNumber":82,"Velocity":45,"Duration":92764,"SoundDuration":92764,"Delta":51437242},{"NoteNumber":77,"Velocity":36,"Duration":92764,"SoundDuration":92764,"Delta":51437242},{"NoteNumber":70,"Velocity":56,"Duration":46382,"SoundDuration":46382,"Delta":51437242},{"NoteNumber":84,"Velocity":38,"Duration":92764,"SoundDuration":92764,"Delta":51530007},{"NoteNumber":80,"Velocity":32,"Duration":92764,"SoundDuration":92764,"Delta":51530007},{"NoteNumber":82,"Velocity":45,"Duration":100874,"SoundDuration":100874,"Delta":51622771},{"NoteNumber":75,"Velocity":36,"Duration":100874,"SoundDuration":100874,"Delta":51622771},{"NoteNumber":51,"Velocity":56,"Duration":100874,"SoundDuration":100874,"Delta":51622771},{"NoteNumber":79,"Velocity":34,"Duration":50437,"SoundDuration":50437,"Delta":51723645},{"NoteNumber":83,"Velocity":40,"Duration":50437,"SoundDuration":50437,"Delta":51723645},{"NoteNumber":71,"Velocity":52,"Duration":50437,"SoundDuration":50437,"Delta":51774082},{"NoteNumber":83,"Velocity":53,"Duration":100571,"SoundDuration":100571,"Delta":51824520},{"NoteNumber":75,"Velocity":53,"Duration":100571,"SoundDuration":100571,"Delta":51824520},{"NoteNumber":70,"Velocity":57,"Duration":50437,"SoundDuration":50437,"Delta":51824520},{"NoteNumber":79,"Velocity":45,"Duration":48169,"SoundDuration":48169,"Delta":51925091},{"NoteNumber":84,"Velocity":45,"Duration":48169,"SoundDuration":48169,"Delta":51925091},{"NoteNumber":85,"Velocity":57,"Duration":95683,"SoundDuration":95683,"Delta":52021390},{"NoteNumber":79,"Velocity":57,"Duration":95683,"SoundDuration":95683,"Delta":52021390},{"NoteNumber":46,"Velocity":62,"Duration":95683,"SoundDuration":95683,"Delta":52021390},{"NoteNumber":82,"Velocity":48,"Duration":94927,"SoundDuration":94927,"Delta":52117073},{"NoteNumber":86,"Velocity":48,"Duration":94927,"SoundDuration":94927,"Delta":52117073},{"NoteNumber":72,"Velocity":55,"Duration":47368,"SoundDuration":47368,"Delta":52164632},{"NoteNumber":86,"Velocity":58,"Duration":94330,"SoundDuration":94330,"Delta":52212001},{"NoteNumber":79,"Velocity":58,"Duration":94330,"SoundDuration":94330,"Delta":52212001},{"NoteNumber":70,"Velocity":63,"Duration":47258,"SoundDuration":47258,"Delta":52212001},{"NoteNumber":82,"Velocity":49,"Duration":46924,"SoundDuration":46924,"Delta":52306332},{"NoteNumber":87,"Velocity":49,"Duration":46924,"SoundDuration":46924,"Delta":52306332},{"NoteNumber":87,"Velocity":59,"Duration":93197,"SoundDuration":93197,"Delta":52399926},{"NoteNumber":77,"Velocity":59,"Duration":93197,"SoundDuration":93197,"Delta":52399926},{"NoteNumber":46,"Velocity":63,"Duration":93197,"SoundDuration":93197,"Delta":52399926},{"NoteNumber":86,"Velocity":53,"Duration":46670,"SoundDuration":46670,"Delta":52493124},{"NoteNumber":80,"Velocity":53,"Duration":46670,"SoundDuration":46670,"Delta":52493124},{"NoteNumber":71,"Velocity":57,"Duration":46670,"SoundDuration":46670,"Delta":52539795},{"NoteNumber":77,"Velocity":58,"Duration":93341,"SoundDuration":93341,"Delta":52586465},{"NoteNumber":86,"Velocity":58,"Duration":93341,"SoundDuration":93341,"Delta":52586465},{"NoteNumber":70,"Velocity":63,"Duration":46670,"SoundDuration":46670,"Delta":52586465},{"NoteNumber":80,"Velocity":49,"Duration":46670,"SoundDuration":46670,"Delta":52679807},{"NoteNumber":85,"Velocity":49,"Duration":46670,"SoundDuration":46670,"Delta":52679807},{"NoteNumber":85,"Velocity":55,"Duration":93341,"SoundDuration":93341,"Delta":52773149},{"NoteNumber":77,"Velocity":55,"Duration":93341,"SoundDuration":93341,"Delta":52773149},{"NoteNumber":50,"Velocity":58,"Duration":93341,"SoundDuration":93341,"Delta":52773149},{"NoteNumber":84,"Velocity":48,"Duration":46670,"SoundDuration":46670,"Delta":52866490},{"NoteNumber":80,"Velocity":48,"Duration":46670,"SoundDuration":46670,"Delta":52866490},{"NoteNumber":72,"Velocity":50,"Duration":46670,"SoundDuration":46670,"Delta":52913161},{"NoteNumber":77,"Velocity":54,"Duration":105693,"SoundDuration":105693,"Delta":52959832},{"NoteNumber":84,"Velocity":54,"Duration":105693,"SoundDuration":105693,"Delta":52959832},{"NoteNumber":70,"Velocity":58,"Duration":52846,"SoundDuration":52846,"Delta":52959832},{"NoteNumber":83,"Velocity":46,"Duration":52846,"SoundDuration":52846,"Delta":53065525},{"NoteNumber":80,"Velocity":46,"Duration":52846,"SoundDuration":52846,"Delta":53065525},{"NoteNumber":79,"Velocity":44,"Duration":95724,"SoundDuration":95724,"Delta":53171219},{"NoteNumber":82,"Velocity":58,"Duration":95724,"SoundDuration":95724,"Delta":53171219},{"NoteNumber":51,"Velocity":44,"Duration":408434,"SoundDuration":408434,"Delta":53171219},{"NoteNumber":84,"Velocity":55,"Duration":95724,"SoundDuration":95724,"Delta":53266943},{"NoteNumber":75,"Velocity":42,"Duration":95724,"SoundDuration":95724,"Delta":53266943},{"NoteNumber":79,"Velocity":44,"Duration":95724,"SoundDuration":95724,"Delta":53362667},{"NoteNumber":82,"Velocity":58,"Duration":95724,"SoundDuration":95724,"Delta":53362667},{"NoteNumber":87,"Velocity":54,"Duration":121261,"SoundDuration":121261,"Delta":53458392},{"NoteNumber":80,"Velocity":43,"Duration":98231,"SoundDuration":98231,"Delta":53579653},{"NoteNumber":91,"Velocity":54,"Duration":196463,"SoundDuration":196463,"Delta":53579653},{"NoteNumber":47,"Velocity":42,"Duration":98231,"SoundDuration":98231,"Delta":53579653},{"NoteNumber":35,"Velocity":35,"Duration":98231,"SoundDuration":98231,"Delta":53579653},{"NoteNumber":86,"Velocity":33,"Duration":98231,"SoundDuration":98231,"Delta":53677885},{"NoteNumber":88,"Velocity":41,"Duration":98231,"SoundDuration":98231,"Delta":53677885},{"NoteNumber":80,"Velocity":36,"Duration":98231,"SoundDuration":98231,"Delta":53776117},{"NoteNumber":91,"Velocity":45,"Duration":98231,"SoundDuration":98231,"Delta":53776117},{"NoteNumber":56,"Velocity":27,"Duration":98231,"SoundDuration":98231,"Delta":53776117},{"NoteNumber":62,"Velocity":33,"Duration":98231,"SoundDuration":98231,"Delta":53776117},{"NoteNumber":53,"Velocity":27,"Duration":98231,"SoundDuration":98231,"Delta":53776117},{"NoteNumber":89,"Velocity":42,"Duration":73673,"SoundDuration":73673,"Delta":53874349},{"NoteNumber":86,"Velocity":33,"Duration":73673,"SoundDuration":73673,"Delta":53874349},{"NoteNumber":48,"Velocity":35,"Duration":290910,"SoundDuration":290910,"Delta":53874349},{"NoteNumber":55,"Velocity":35,"Duration":241794,"SoundDuration":241794,"Delta":53923464},{"NoteNumber":89,"Velocity":55,"Duration":192678,"SoundDuration":192678,"Delta":53972580},{"NoteNumber":79,"Velocity":45,"Duration":96339,"SoundDuration":96339,"Delta":53972580},{"NoteNumber":63,"Velocity":42,"Duration":192678,"SoundDuration":192678,"Delta":53972580},{"NoteNumber":84,"Velocity":32,"Duration":96339,"SoundDuration":96339,"Delta":54068920},{"NoteNumber":86,"Velocity":39,"Duration":96339,"SoundDuration":96339,"Delta":54068920},{"NoteNumber":89,"Velocity":45,"Duration":96339,"SoundDuration":96339,"Delta":54165259},{"NoteNumber":79,"Velocity":36,"Duration":96339,"SoundDuration":96339,"Delta":54165259},{"NoteNumber":84,"Velocity":33,"Duration":114190,"SoundDuration":114190,"Delta":54261598},{"NoteNumber":87,"Velocity":42,"Duration":114190,"SoundDuration":114190,"Delta":54261598},{"NoteNumber":87,"Velocity":52,"Duration":196463,"SoundDuration":196463,"Delta":54375788},{"NoteNumber":77,"Velocity":52,"Duration":98231,"SoundDuration":98231,"Delta":54375788},{"NoteNumber":50,"Velocity":42,"Duration":98231,"SoundDuration":98231,"Delta":54375788},{"NoteNumber":38,"Velocity":35,"Duration":98231,"SoundDuration":98231,"Delta":54375788},{"NoteNumber":83,"Velocity":31,"Duration":98231,"SoundDuration":98231,"Delta":54474020},{"NoteNumber":85,"Velocity":37,"Duration":98231,"SoundDuration":98231,"Delta":54474020},{"NoteNumber":87,"Velocity":45,"Duration":98231,"SoundDuration":98231,"Delta":54572252},{"NoteNumber":77,"Velocity":36,"Duration":98231,"SoundDuration":98231,"Delta":54572252},{"NoteNumber":65,"Velocity":35,"Duration":98231,"SoundDuration":98231,"Delta":54572252},{"NoteNumber":59,"Velocity":28,"Duration":98231,"SoundDuration":98231,"Delta":54572252},{"NoteNumber":56,"Velocity":28,"Duration":98231,"SoundDuration":98231,"Delta":54572252},{"NoteNumber":82,"Velocity":39,"Duration":73673,"SoundDuration":73673,"Delta":54670483},{"NoteNumber":86,"Velocity":39,"Duration":73673,"SoundDuration":73673,"Delta":54670483},{"NoteNumber":51,"Velocity":35,"Duration":301346,"SoundDuration":301346,"Delta":54670483},{"NoteNumber":60,"Velocity":35,"Duration":252230,"SoundDuration":252230,"Delta":54719599},{"NoteNumber":86,"Velocity":50,"Duration":203114,"SoundDuration":203114,"Delta":54768715},{"NoteNumber":75,"Velocity":43,"Duration":101557,"SoundDuration":101557,"Delta":54768715},{"NoteNumber":67,"Velocity":42,"Duration":203114,"SoundDuration":203114,"Delta":54768715},{"NoteNumber":83,"Velocity":37,"Duration":101557,"SoundDuration":101557,"Delta":54870273},{"NoteNumber":79,"Velocity":31,"Duration":101557,"SoundDuration":101557,"Delta":54870273},{"NoteNumber":75,"Velocity":36,"Duration":101557,"SoundDuration":101557,"Delta":54971830},{"NoteNumber":86,"Velocity":44,"Duration":101557,"SoundDuration":101557,"Delta":54971830},{"NoteNumber":84,"Velocity":39,"Duration":86299,"SoundDuration":86299,"Delta":55073387},{"NoteNumber":79,"Velocity":39,"Duration":86299,"SoundDuration":86299,"Delta":55073387},{"NoteNumber":79,"Velocity":39,"Duration":98879,"SoundDuration":98879,"Delta":55188453},{"NoteNumber":84,"Velocity":48,"Duration":197758,"SoundDuration":197758,"Delta":55188453},{"NoteNumber":40,"Velocity":36,"Duration":98879,"SoundDuration":98879,"Delta":55188453},{"NoteNumber":73,"Velocity":37,"Duration":98879,"SoundDuration":98879,"Delta":55287332},{"NoteNumber":81,"Velocity":37,"Duration":98879,"SoundDuration":98879,"Delta":55287332},{"NoteNumber":84,"Velocity":39,"Duration":98879,"SoundDuration":98879,"Delta":55386212},{"NoteNumber":79,"Velocity":32,"Duration":98879,"SoundDuration":98879,"Delta":55386212},{"NoteNumber":46,"Velocity":28,"Duration":98879,"SoundDuration":98879,"Delta":55386212},{"NoteNumber":73,"Velocity":36,"Duration":98879,"SoundDuration":98879,"Delta":55485091},{"NoteNumber":82,"Velocity":36,"Duration":98879,"SoundDuration":98879,"Delta":55485091},{"NoteNumber":81,"Velocity":45,"Duration":197758,"SoundDuration":197758,"Delta":55583971},{"NoteNumber":73,"Velocity":37,"Duration":98879,"SoundDuration":98879,"Delta":55583971},{"NoteNumber":52,"Velocity":35,"Duration":98879,"SoundDuration":98879,"Delta":55583971},{"NoteNumber":78,"Velocity":35,"Duration":98879,"SoundDuration":98879,"Delta":55682850},{"NoteNumber":70,"Velocity":29,"Duration":98879,"SoundDuration":98879,"Delta":55682850},{"NoteNumber":81,"Velocity":37,"Duration":98879,"SoundDuration":98879,"Delta":55781729},{"NoteNumber":73,"Velocity":31,"Duration":98879,"SoundDuration":98879,"Delta":55781729},{"NoteNumber":58,"Velocity":27,"Duration":98879,"SoundDuration":98879,"Delta":55781729},{"NoteNumber":70,"Velocity":27,"Duration":98879,"SoundDuration":98879,"Delta":55880609},{"NoteNumber":79,"Velocity":33,"Duration":98879,"SoundDuration":98879,"Delta":55880609},{"NoteNumber":70,"Velocity":36,"Duration":98879,"SoundDuration":98879,"Delta":55979488},{"NoteNumber":77,"Velocity":43,"Duration":201830,"SoundDuration":201830,"Delta":55979488},{"NoteNumber":61,"Velocity":28,"Duration":201830,"SoundDuration":201830,"Delta":55979488},{"NoteNumber":55,"Velocity":18,"Duration":458849,"SoundDuration":458849,"Delta":55979488},{"NoteNumber":75,"Velocity":32,"Duration":102951,"SoundDuration":102951,"Delta":56078367},{"NoteNumber":67,"Velocity":27,"Duration":102951,"SoundDuration":102951,"Delta":56078367},{"NoteNumber":77,"Velocity":36,"Duration":102951,"SoundDuration":102951,"Delta":56181319},{"NoteNumber":73,"Velocity":29,"Duration":102951,"SoundDuration":102951,"Delta":56181319},{"NoteNumber":58,"Velocity":23,"Duration":179984,"SoundDuration":179984,"Delta":56181319},{"NoteNumber":76,"Velocity":31,"Duration":154067,"SoundDuration":154067,"Delta":56284270},{"NoteNumber":67,"Velocity":26,"Duration":154067,"SoundDuration":154067,"Delta":56284270},{"NoteNumber":53,"Velocity":20,"Duration":305413,"SoundDuration":305413,"Delta":56361304},{"NoteNumber":79,"Velocity":52,"Duration":342570,"SoundDuration":342570,"Delta":56438337},{"NoteNumber":70,"Velocity":40,"Duration":114190,"SoundDuration":114190,"Delta":56438337},{"NoteNumber":62,"Velocity":36,"Duration":228380,"SoundDuration":228380,"Delta":56438337},{"NoteNumber":65,"Velocity":36,"Duration":114190,"SoundDuration":114190,"Delta":56552527},{"NoteNumber":70,"Velocity":45,"Duration":114190,"SoundDuration":114190,"Delta":56666717},{"NoteNumber":77,"Velocity":41,"Duration":114190,"SoundDuration":114190,"Delta":56780907},{"NoteNumber":74,"Velocity":52,"Duration":342569,"SoundDuration":342569,"Delta":56895097},{"NoteNumber":68,"Velocity":40,"Duration":114190,"SoundDuration":114190,"Delta":56895097},{"NoteNumber":59,"Velocity":27,"Duration":462225,"SoundDuration":462225,"Delta":56895097},{"NoteNumber":53,"Velocity":22,"Duration":905487,"SoundDuration":905487,"Delta":56895097},{"NoteNumber":65,"Velocity":40,"Duration":114189,"SoundDuration":114189,"Delta":57009287},{"NoteNumber":68,"Velocity":40,"Duration":114190,"SoundDuration":114190,"Delta":57123477},{"NoteNumber":75,"Velocity":41,"Duration":119655,"SoundDuration":119655,"Delta":57237667},{"NoteNumber":70,"Velocity":40,"Duration":110815,"SoundDuration":110815,"Delta":57357323},{"NoteNumber":74,"Velocity":52,"Duration":332446,"SoundDuration":332446,"Delta":57357323},{"NoteNumber":64,"Velocity":40,"Duration":110815,"SoundDuration":110815,"Delta":57357323},{"NoteNumber":60,"Velocity":27,"Duration":443262,"SoundDuration":443262,"Delta":57357323},{"NoteNumber":67,"Velocity":40,"Duration":110815,"SoundDuration":110815,"Delta":57468138},{"NoteNumber":64,"Velocity":40,"Duration":110815,"SoundDuration":110815,"Delta":57578954},{"NoteNumber":72,"Velocity":41,"Duration":110815,"SoundDuration":110815,"Delta":57689770},{"NoteNumber":63,"Velocity":40,"Duration":110815,"SoundDuration":110815,"Delta":57800585},{"NoteNumber":67,"Velocity":52,"Duration":332446,"SoundDuration":332446,"Delta":57800585},{"NoteNumber":40,"Velocity":41,"Duration":110815,"SoundDuration":110815,"Delta":57800585},{"NoteNumber":60,"Velocity":40,"Duration":110815,"SoundDuration":110815,"Delta":57911401},{"NoteNumber":41,"Velocity":36,"Duration":110815,"SoundDuration":110815,"Delta":57911401},{"NoteNumber":63,"Velocity":40,"Duration":110815,"SoundDuration":110815,"Delta":58022216},{"NoteNumber":40,"Velocity":43,"Duration":110815,"SoundDuration":110815,"Delta":58022216},{"NoteNumber":69,"Velocity":41,"Duration":110815,"SoundDuration":110815,"Delta":58133032},{"NoteNumber":41,"Velocity":36,"Duration":541355,"SoundDuration":541355,"Delta":58133032},{"NoteNumber":72,"Velocity":52,"Duration":322904,"SoundDuration":322904,"Delta":58243848},{"NoteNumber":62,"Velocity":40,"Duration":107634,"SoundDuration":107634,"Delta":58243848},{"NoteNumber":53,"Velocity":36,"Duration":430539,"SoundDuration":430539,"Delta":58243848},{"NoteNumber":65,"Velocity":36,"Duration":107634,"SoundDuration":107634,"Delta":58351483},{"NoteNumber":62,"Velocity":45,"Duration":107634,"SoundDuration":107634,"Delta":58459117},{"NoteNumber":70,"Velocity":41,"Duration":107634,"SoundDuration":107634,"Delta":58566752},{"NoteNumber":67,"Velocity":52,"Duration":322904,"SoundDuration":322904,"Delta":58674387},{"NoteNumber":56,"Velocity":40,"Duration":107634,"SoundDuration":107634,"Delta":58674387},{"NoteNumber":47,"Velocity":27,"Duration":438860,"SoundDuration":438860,"Delta":58674387},{"NoteNumber":41,"Velocity":22,"Duration":860326,"SoundDuration":860326,"Delta":58674387},{"NoteNumber":62,"Velocity":40,"Duration":107634,"SoundDuration":107634,"Delta":58782022},{"NoteNumber":56,"Velocity":40,"Duration":107634,"SoundDuration":107634,"Delta":58889657},{"NoteNumber":62,"Velocity":40,"Duration":115955,"SoundDuration":115955,"Delta":58997292},{"NoteNumber":65,"Velocity":41,"Duration":115955,"SoundDuration":115955,"Delta":58997292},{"NoteNumber":65,"Velocity":52,"Duration":316099,"SoundDuration":316099,"Delta":59113247},{"NoteNumber":55,"Velocity":40,"Duration":105366,"SoundDuration":105366,"Delta":59113247},{"NoteNumber":48,"Velocity":27,"Duration":421466,"SoundDuration":421466,"Delta":59113247},{"NoteNumber":60,"Velocity":40,"Duration":105366,"SoundDuration":105366,"Delta":59218614},{"NoteNumber":55,"Velocity":40,"Duration":105366,"SoundDuration":105366,"Delta":59323981},{"NoteNumber":63,"Velocity":41,"Duration":105366,"SoundDuration":105366,"Delta":59429347},{"NoteNumber":60,"Velocity":52,"Duration":316099,"SoundDuration":316099,"Delta":59534714},{"NoteNumber":51,"Velocity":40,"Duration":105366,"SoundDuration":105366,"Delta":59534714},{"NoteNumber":42,"Velocity":41,"Duration":210733,"SoundDuration":210733,"Delta":59534714},{"NoteNumber":57,"Velocity":40,"Duration":105366,"SoundDuration":105366,"Delta":59640080},{"NoteNumber":51,"Velocity":40,"Duration":105366,"SoundDuration":105366,"Delta":59745447},{"NoteNumber":41,"Velocity":36,"Duration":210733,"SoundDuration":210733,"Delta":59745447},{"NoteNumber":62,"Velocity":41,"Duration":105366,"SoundDuration":105366,"Delta":59850814},{"NoteNumber":57,"Velocity":40,"Duration":105366,"SoundDuration":105366,"Delta":59850814},{"NoteNumber":58,"Velocity":52,"Duration":260055,"SoundDuration":260055,"Delta":59956180},{"NoteNumber":50,"Velocity":47,"Duration":260055,"SoundDuration":260055,"Delta":59956180},{"NoteNumber":34,"Velocity":41,"Duration":260055,"SoundDuration":260055,"Delta":59956180},{"NoteNumber":50,"Velocity":31,"Duration":93539,"SoundDuration":93539,"Delta":60216236},{"NoteNumber":53,"Velocity":26,"Duration":93539,"SoundDuration":93539,"Delta":60216236},{"NoteNumber":58,"Velocity":22,"Duration":93539,"SoundDuration":93539,"Delta":60216236},{"NoteNumber":62,"Velocity":25,"Duration":93539,"SoundDuration":93539,"Delta":60309775},{"NoteNumber":48,"Velocity":36,"Duration":93539,"SoundDuration":93539,"Delta":60403315},{"NoteNumber":54,"Velocity":25,"Duration":93539,"SoundDuration":93539,"Delta":60403315},{"NoteNumber":58,"Velocity":21,"Duration":93539,"SoundDuration":93539,"Delta":60403315},{"NoteNumber":62,"Velocity":25,"Duration":93539,"SoundDuration":93539,"Delta":60496854},{"NoteNumber":47,"Velocity":32,"Duration":93539,"SoundDuration":93539,"Delta":60590394},{"NoteNumber":55,"Velocity":25,"Duration":93539,"SoundDuration":93539,"Delta":60590394},{"NoteNumber":58,"Velocity":21,"Duration":93539,"SoundDuration":93539,"Delta":60590394},{"NoteNumber":62,"Velocity":25,"Duration":93539,"SoundDuration":93539,"Delta":60683933},{"NoteNumber":46,"Velocity":36,"Duration":99760,"SoundDuration":99760,"Delta":60777473},{"NoteNumber":54,"Velocity":30,"Duration":99760,"SoundDuration":99760,"Delta":60777473},{"NoteNumber":58,"Velocity":25,"Duration":99760,"SoundDuration":99760,"Delta":60777473},{"NoteNumber":62,"Velocity":22,"Duration":91821,"SoundDuration":91821,"Delta":60877233},{"NoteNumber":50,"Velocity":32,"Duration":87535,"SoundDuration":87535,"Delta":60969055},{"NoteNumber":53,"Velocity":30,"Duration":87535,"SoundDuration":87535,"Delta":60969055},{"NoteNumber":58,"Velocity":25,"Duration":87535,"SoundDuration":87535,"Delta":60969055},{"NoteNumber":62,"Velocity":21,"Duration":87534,"SoundDuration":87534,"Delta":61056590},{"NoteNumber":48,"Velocity":36,"Duration":95932,"SoundDuration":95932,"Delta":61144125},{"NoteNumber":54,"Velocity":30,"Duration":95932,"SoundDuration":95932,"Delta":61144125},{"NoteNumber":58,"Velocity":25,"Duration":95932,"SoundDuration":95932,"Delta":61144125},{"NoteNumber":47,"Velocity":31,"Duration":95932,"SoundDuration":95932,"Delta":61240058},{"NoteNumber":62,"Velocity":25,"Duration":95932,"SoundDuration":95932,"Delta":61240058},{"NoteNumber":46,"Velocity":31,"Duration":95932,"SoundDuration":95932,"Delta":61335990},{"NoteNumber":58,"Velocity":25,"Duration":95932,"SoundDuration":95932,"Delta":61335990},{"NoteNumber":55,"Velocity":30,"Duration":95932,"SoundDuration":95932,"Delta":61335990},{"NoteNumber":62,"Velocity":22,"Duration":63954,"SoundDuration":63954,"Delta":61431923},{"NoteNumber":54,"Velocity":30,"Duration":177101,"SoundDuration":177101,"Delta":61495878},{"NoteNumber":57,"Velocity":30,"Duration":161112,"SoundDuration":161112,"Delta":61511866},{"NoteNumber":63,"Velocity":30,"Duration":145123,"SoundDuration":145123,"Delta":61527855},{"NoteNumber":87,"Velocity":37,"Duration":77786,"SoundDuration":77786,"Delta":61818103},{"NoteNumber":81,"Velocity":41,"Duration":77786,"SoundDuration":77786,"Delta":61818103},{"NoteNumber":78,"Velocity":41,"Duration":77786,"SoundDuration":77786,"Delta":61818103},{"NoteNumber":84,"Velocity":37,"Duration":78502,"SoundDuration":78502,"Delta":61895890},{"NoteNumber":80,"Velocity":36,"Duration":78798,"SoundDuration":78798,"Delta":61974393},{"NoteNumber":74,"Velocity":39,"Duration":78798,"SoundDuration":78798,"Delta":61974393},{"NoteNumber":71,"Velocity":39,"Duration":78798,"SoundDuration":78798,"Delta":61974393},{"NoteNumber":77,"Velocity":36,"Duration":79124,"SoundDuration":79124,"Delta":62053191},{"NoteNumber":81,"Velocity":36,"Duration":79333,"SoundDuration":79333,"Delta":62132315},{"NoteNumber":75,"Velocity":38,"Duration":79333,"SoundDuration":79333,"Delta":62132315},{"NoteNumber":72,"Velocity":38,"Duration":79333,"SoundDuration":79333,"Delta":62132315},{"NoteNumber":78,"Velocity":35,"Duration":79634,"SoundDuration":79634,"Delta":62211648},{"NoteNumber":74,"Velocity":35,"Duration":79967,"SoundDuration":79967,"Delta":62291283},{"NoteNumber":68,"Velocity":38,"Duration":79967,"SoundDuration":79967,"Delta":62291283},{"NoteNumber":65,"Velocity":38,"Duration":79967,"SoundDuration":79967,"Delta":62291283},{"NoteNumber":71,"Velocity":33,"Duration":80181,"SoundDuration":80181,"Delta":62371251},{"NoteNumber":75,"Velocity":33,"Duration":80489,"SoundDuration":80489,"Delta":62451432},{"NoteNumber":66,"Velocity":37,"Duration":80489,"SoundDuration":80489,"Delta":62451432},{"NoteNumber":69,"Velocity":37,"Duration":80489,"SoundDuration":80489,"Delta":62451432},{"NoteNumber":72,"Velocity":32,"Duration":80829,"SoundDuration":80829,"Delta":62531922},{"NoteNumber":68,"Velocity":32,"Duration":81047,"SoundDuration":81047,"Delta":62612751},{"NoteNumber":59,"Velocity":36,"Duration":81047,"SoundDuration":81047,"Delta":62612751},{"NoteNumber":62,"Velocity":36,"Duration":81047,"SoundDuration":81047,"Delta":62612751},{"NoteNumber":65,"Velocity":31,"Duration":81362,"SoundDuration":81362,"Delta":62693799},{"NoteNumber":69,"Velocity":30,"Duration":81710,"SoundDuration":81710,"Delta":62775162},{"NoteNumber":63,"Velocity":36,"Duration":81710,"SoundDuration":81710,"Delta":62775162},{"NoteNumber":60,"Velocity":36,"Duration":81710,"SoundDuration":81710,"Delta":62775162},{"NoteNumber":78,"Velocity":30,"Duration":82045,"SoundDuration":82045,"Delta":62856872},{"NoteNumber":70,"Velocity":38,"Duration":260055,"SoundDuration":260055,"Delta":62938917},{"NoteNumber":77,"Velocity":38,"Duration":260055,"SoundDuration":260055,"Delta":62938917},{"NoteNumber":41,"Velocity":45,"Duration":260055,"SoundDuration":260055,"Delta":62938917},{"NoteNumber":50,"Velocity":31,"Duration":93539,"SoundDuration":93539,"Delta":63198973},{"NoteNumber":53,"Velocity":26,"Duration":93539,"SoundDuration":93539,"Delta":63198973},{"NoteNumber":58,"Velocity":22,"Duration":93539,"SoundDuration":93539,"Delta":63198973},{"NoteNumber":62,"Velocity":25,"Duration":93539,"SoundDuration":93539,"Delta":63292512},{"NoteNumber":48,"Velocity":36,"Duration":93539,"SoundDuration":93539,"Delta":63386052},{"NoteNumber":58,"Velocity":21,"Duration":93539,"SoundDuration":93539,"Delta":63386052},{"NoteNumber":54,"Velocity":25,"Duration":93539,"SoundDuration":93539,"Delta":63386052},{"NoteNumber":62,"Velocity":25,"Duration":93539,"SoundDuration":93539,"Delta":63479591},{"NoteNumber":47,"Velocity":32,"Duration":93539,"SoundDuration":93539,"Delta":63573131},{"NoteNumber":55,"Velocity":25,"Duration":93539,"SoundDuration":93539,"Delta":63573131},{"NoteNumber":58,"Velocity":21,"Duration":93539,"SoundDuration":93539,"Delta":63573131},{"NoteNumber":62,"Velocity":25,"Duration":93539,"SoundDuration":93539,"Delta":63666670},{"NoteNumber":46,"Velocity":36,"Duration":99760,"SoundDuration":99760,"Delta":63760210},{"NoteNumber":54,"Velocity":30,"Duration":99760,"SoundDuration":99760,"Delta":63760210},{"NoteNumber":58,"Velocity":25,"Duration":99760,"SoundDuration":99760,"Delta":63760210},{"NoteNumber":62,"Velocity":22,"Duration":91821,"SoundDuration":91821,"Delta":63859970},{"NoteNumber":50,"Velocity":32,"Duration":87535,"SoundDuration":87535,"Delta":63951792},{"NoteNumber":53,"Velocity":30,"Duration":87535,"SoundDuration":87535,"Delta":63951792},{"NoteNumber":58,"Velocity":25,"Duration":87535,"SoundDuration":87535,"Delta":63951792},{"NoteNumber":62,"Velocity":21,"Duration":87535,"SoundDuration":87535,"Delta":64039327},{"NoteNumber":48,"Velocity":36,"Duration":95932,"SoundDuration":95932,"Delta":64126862},{"NoteNumber":54,"Velocity":30,"Duration":95932,"SoundDuration":95932,"Delta":64126862},{"NoteNumber":58,"Velocity":25,"Duration":95932,"SoundDuration":95932,"Delta":64126862},{"NoteNumber":47,"Velocity":31,"Duration":95932,"SoundDuration":95932,"Delta":64222795},{"NoteNumber":62,"Velocity":25,"Duration":95932,"SoundDuration":95932,"Delta":64222795},{"NoteNumber":46,"Velocity":31,"Duration":95932,"SoundDuration":95932,"Delta":64318727},{"NoteNumber":55,"Velocity":30,"Duration":95932,"SoundDuration":95932,"Delta":64318727},{"NoteNumber":58,"Velocity":25,"Duration":95932,"SoundDuration":95932,"Delta":64318727},{"NoteNumber":62,"Velocity":22,"Duration":63955,"SoundDuration":63955,"Delta":64414660},{"NoteNumber":54,"Velocity":25,"Duration":177101,"SoundDuration":177101,"Delta":64478615},{"NoteNumber":57,"Velocity":25,"Duration":161112,"SoundDuration":161112,"Delta":64494603},{"NoteNumber":63,"Velocity":30,"Duration":145123,"SoundDuration":145123,"Delta":64510592},{"NoteNumber":87,"Velocity":37,"Duration":76390,"SoundDuration":76390,"Delta":64798549},{"NoteNumber":81,"Velocity":41,"Duration":76390,"SoundDuration":76390,"Delta":64798549},{"NoteNumber":78,"Velocity":35,"Duration":76390,"SoundDuration":76390,"Delta":64798549},{"NoteNumber":84,"Velocity":37,"Duration":76501,"SoundDuration":76501,"Delta":64874939},{"NoteNumber":80,"Velocity":36,"Duration":76781,"SoundDuration":76781,"Delta":64951440},{"NoteNumber":71,"Velocity":33,"Duration":76781,"SoundDuration":76781,"Delta":64951440},{"NoteNumber":74,"Velocity":39,"Duration":76781,"SoundDuration":76781,"Delta":64951440},{"NoteNumber":77,"Velocity":36,"Duration":76992,"SoundDuration":76992,"Delta":65028221},{"NoteNumber":81,"Velocity":36,"Duration":77176,"SoundDuration":77176,"Delta":65105214},{"NoteNumber":75,"Velocity":38,"Duration":77176,"SoundDuration":77176,"Delta":65105214},{"NoteNumber":72,"Velocity":32,"Duration":77176,"SoundDuration":77176,"Delta":65105214},{"NoteNumber":78,"Velocity":35,"Duration":77489,"SoundDuration":77489,"Delta":65182390},{"NoteNumber":74,"Velocity":35,"Duration":77588,"SoundDuration":77588,"Delta":65259879},{"NoteNumber":68,"Velocity":38,"Duration":77588,"SoundDuration":77588,"Delta":65259879},{"NoteNumber":65,"Velocity":32,"Duration":77588,"SoundDuration":77588,"Delta":65259879},{"NoteNumber":71,"Velocity":33,"Duration":77978,"SoundDuration":77978,"Delta":65337468},{"NoteNumber":75,"Velocity":33,"Duration":78094,"SoundDuration":78094,"Delta":65415447},{"NoteNumber":66,"Velocity":31,"Duration":78094,"SoundDuration":78094,"Delta":65415447},{"NoteNumber":69,"Velocity":37,"Duration":78094,"SoundDuration":78094,"Delta":65415447},{"NoteNumber":72,"Velocity":32,"Duration":78386,"SoundDuration":78386,"Delta":65493541},{"NoteNumber":68,"Velocity":32,"Duration":78605,"SoundDuration":78605,"Delta":65571927},{"NoteNumber":62,"Velocity":36,"Duration":78605,"SoundDuration":78605,"Delta":65571927},{"NoteNumber":59,"Velocity":30,"Duration":78605,"SoundDuration":78605,"Delta":65571927},{"NoteNumber":65,"Velocity":31,"Duration":78798,"SoundDuration":78798,"Delta":65650533},{"NoteNumber":69,"Velocity":30,"Duration":79124,"SoundDuration":79124,"Delta":65729331},{"NoteNumber":63,"Velocity":36,"Duration":79124,"SoundDuration":79124,"Delta":65729331},{"NoteNumber":60,"Velocity":29,"Duration":79124,"SoundDuration":79124,"Delta":65729331},{"NoteNumber":78,"Velocity":30,"Duration":51489,"SoundDuration":51489,"Delta":65808455},{"NoteNumber":46,"Velocity":36,"Duration":171542,"SoundDuration":171542,"Delta":65861265},{"NoteNumber":56,"Velocity":36,"Duration":158340,"SoundDuration":158340,"Delta":65874467},{"NoteNumber":62,"Velocity":36,"Duration":145123,"SoundDuration":145123,"Delta":65887683},{"NoteNumber":65,"Velocity":36,"Duration":145123,"SoundDuration":145123,"Delta":65887683},{"NoteNumber":59,"Velocity":43,"Duration":145123,"SoundDuration":145123,"Delta":65887683},{"NoteNumber":89,"Velocity":41,"Duration":75620,"SoundDuration":75620,"Delta":66177931},{"NoteNumber":80,"Velocity":37,"Duration":75620,"SoundDuration":75620,"Delta":66177931},{"NoteNumber":83,"Velocity":45,"Duration":75620,"SoundDuration":75620,"Delta":66177931},{"NoteNumber":86,"Velocity":41,"Duration":75620,"SoundDuration":75620,"Delta":66253551},{"NoteNumber":82,"Velocity":39,"Duration":75757,"SoundDuration":75757,"Delta":66329171},{"NoteNumber":76,"Velocity":43,"Duration":75757,"SoundDuration":75757,"Delta":66329171},{"NoteNumber":73,"Velocity":36,"Duration":75757,"SoundDuration":75757,"Delta":66329171},{"NoteNumber":79,"Velocity":39,"Duration":75789,"SoundDuration":75789,"Delta":66404929},{"NoteNumber":83,"Velocity":38,"Duration":76142,"SoundDuration":76142,"Delta":66480719},{"NoteNumber":74,"Velocity":35,"Duration":76142,"SoundDuration":76142,"Delta":66480719},{"NoteNumber":77,"Velocity":42,"Duration":76142,"SoundDuration":76142,"Delta":66480719},{"NoteNumber":80,"Velocity":37,"Duration":76142,"SoundDuration":76142,"Delta":66556861},{"NoteNumber":76,"Velocity":37,"Duration":76219,"SoundDuration":76219,"Delta":66633003},{"NoteNumber":70,"Velocity":42,"Duration":76219,"SoundDuration":76219,"Delta":66633003},{"NoteNumber":67,"Velocity":35,"Duration":76219,"SoundDuration":76219,"Delta":66633003},{"NoteNumber":73,"Velocity":36,"Duration":76530,"SoundDuration":76530,"Delta":66709223},{"NoteNumber":77,"Velocity":36,"Duration":76530,"SoundDuration":76530,"Delta":66785753},{"NoteNumber":68,"Velocity":35,"Duration":76530,"SoundDuration":76530,"Delta":66785753},{"NoteNumber":71,"Velocity":41,"Duration":76530,"SoundDuration":76530,"Delta":66785753},{"NoteNumber":74,"Velocity":36,"Duration":76654,"SoundDuration":76654,"Delta":66862284},{"NoteNumber":70,"Velocity":36,"Duration":76923,"SoundDuration":76923,"Delta":66938939},{"NoteNumber":61,"Velocity":33,"Duration":76923,"SoundDuration":76923,"Delta":66938939},{"NoteNumber":64,"Velocity":39,"Duration":76923,"SoundDuration":76923,"Delta":66938939},{"NoteNumber":67,"Velocity":35,"Duration":76923,"SoundDuration":76923,"Delta":67015862},{"NoteNumber":71,"Velocity":33,"Duration":78386,"SoundDuration":78386,"Delta":67092785},{"NoteNumber":65,"Velocity":38,"Duration":78386,"SoundDuration":78386,"Delta":67092785},{"NoteNumber":62,"Velocity":32,"Duration":78386,"SoundDuration":78386,"Delta":67092785},{"NoteNumber":80,"Velocity":33,"Duration":113327,"SoundDuration":113327,"Delta":67171171},{"NoteNumber":46,"Velocity":39,"Duration":182899,"SoundDuration":182899,"Delta":67246723},{"NoteNumber":63,"Velocity":39,"Duration":145123,"SoundDuration":145123,"Delta":67284499},{"NoteNumber":67,"Velocity":39,"Duration":145123,"SoundDuration":145123,"Delta":67284499},{"NoteNumber":61,"Velocity":46,"Duration":145123,"SoundDuration":145123,"Delta":67284499},{"NoteNumber":91,"Velocity":45,"Duration":72437,"SoundDuration":72437,"Delta":67572320},{"NoteNumber":85,"Velocity":49,"Duration":72437,"SoundDuration":72437,"Delta":67572320},{"NoteNumber":82,"Velocity":41,"Duration":72437,"SoundDuration":72437,"Delta":67572320},{"NoteNumber":88,"Velocity":45,"Duration":72977,"SoundDuration":72977,"Delta":67644758},{"NoteNumber":84,"Velocity":43,"Duration":73592,"SoundDuration":73592,"Delta":67717735},{"NoteNumber":75,"Velocity":39,"Duration":73592,"SoundDuration":73592,"Delta":67717735},{"NoteNumber":78,"Velocity":46,"Duration":73592,"SoundDuration":73592,"Delta":67717735},{"NoteNumber":81,"Velocity":43,"Duration":74150,"SoundDuration":74150,"Delta":67791328},{"NoteNumber":85,"Velocity":42,"Duration":74784,"SoundDuration":74784,"Delta":67865478},{"NoteNumber":75,"Velocity":38,"Duration":74784,"SoundDuration":74784,"Delta":67865478},{"NoteNumber":79,"Velocity":45,"Duration":74784,"SoundDuration":74784,"Delta":67865478},{"NoteNumber":82,"Velocity":41,"Duration":98450,"SoundDuration":98450,"Delta":67940263},{"NoteNumber":46,"Velocity":43,"Duration":210757,"SoundDuration":210757,"Delta":67973080},{"NoteNumber":54,"Velocity":43,"Duration":177940,"SoundDuration":177940,"Delta":68005897},{"NoteNumber":69,"Velocity":43,"Duration":145123,"SoundDuration":145123,"Delta":68038714},{"NoteNumber":63,"Velocity":43,"Duration":145123,"SoundDuration":145123,"Delta":68038714},{"NoteNumber":60,"Velocity":51,"Duration":145123,"SoundDuration":145123,"Delta":68038714},{"NoteNumber":93,"Velocity":45,"Duration":72688,"SoundDuration":72688,"Delta":68310853},{"NoteNumber":84,"Velocity":41,"Duration":72688,"SoundDuration":72688,"Delta":68310853},{"NoteNumber":87,"Velocity":49,"Duration":72688,"SoundDuration":72688,"Delta":68310853},{"NoteNumber":90,"Velocity":45,"Duration":72953,"SoundDuration":72953,"Delta":68383542},{"NoteNumber":86,"Velocity":43,"Duration":73131,"SoundDuration":73131,"Delta":68456496},{"NoteNumber":80,"Velocity":46,"Duration":73131,"SoundDuration":73131,"Delta":68456496},{"NoteNumber":77,"Velocity":39,"Duration":73131,"SoundDuration":73131,"Delta":68456496},{"NoteNumber":83,"Velocity":43,"Duration":73399,"SoundDuration":73399,"Delta":68529627},{"NoteNumber":87,"Velocity":42,"Duration":73670,"SoundDuration":73670,"Delta":68603027},{"NoteNumber":81,"Velocity":45,"Duration":73670,"SoundDuration":73670,"Delta":68603027},{"NoteNumber":78,"Velocity":38,"Duration":73670,"SoundDuration":73670,"Delta":68603027},{"NoteNumber":84,"Velocity":41,"Duration":89572,"SoundDuration":89572,"Delta":68676698},{"NoteNumber":96,"Velocity":55,"Duration":74125,"SoundDuration":74125,"Delta":68766270},{"NoteNumber":78,"Velocity":49,"Duration":74125,"SoundDuration":74125,"Delta":68766270},{"NoteNumber":75,"Velocity":41,"Duration":74125,"SoundDuration":74125,"Delta":68766270},{"NoteNumber":93,"Velocity":55,"Duration":74401,"SoundDuration":74401,"Delta":68840395},{"NoteNumber":89,"Velocity":54,"Duration":74586,"SoundDuration":74586,"Delta":68914797},{"NoteNumber":71,"Velocity":49,"Duration":74586,"SoundDuration":74586,"Delta":68914797},{"NoteNumber":68,"Velocity":41,"Duration":74586,"SoundDuration":74586,"Delta":68914797},{"NoteNumber":86,"Velocity":54,"Duration":74865,"SoundDuration":74865,"Delta":68989383},{"NoteNumber":90,"Velocity":51,"Duration":75240,"SoundDuration":75240,"Delta":69064248},{"NoteNumber":69,"Velocity":39,"Duration":75240,"SoundDuration":75240,"Delta":69064248},{"NoteNumber":72,"Velocity":46,"Duration":75240,"SoundDuration":75240,"Delta":69064248},{"NoteNumber":87,"Velocity":49,"Duration":83720,"SoundDuration":83720,"Delta":69139489},{"NoteNumber":99,"Velocity":62,"Duration":76003,"SoundDuration":76003,"Delta":69223210},{"NoteNumber":69,"Velocity":45,"Duration":76003,"SoundDuration":76003,"Delta":69223210},{"NoteNumber":66,"Velocity":38,"Duration":76003,"SoundDuration":76003,"Delta":69223210},{"NoteNumber":96,"Velocity":57,"Duration":76003,"SoundDuration":76003,"Delta":69299213},{"NoteNumber":92,"Velocity":60,"Duration":76196,"SoundDuration":76196,"Delta":69375217},{"NoteNumber":62,"Velocity":52,"Duration":76196,"SoundDuration":76196,"Delta":69375217},{"NoteNumber":59,"Velocity":44,"Duration":76196,"SoundDuration":76196,"Delta":69375217},{"NoteNumber":89,"Velocity":53,"Duration":76390,"SoundDuration":76390,"Delta":69451413},{"NoteNumber":93,"Velocity":60,"Duration":76781,"SoundDuration":76781,"Delta":69527804},{"NoteNumber":60,"Velocity":45,"Duration":76781,"SoundDuration":76781,"Delta":69527804},{"NoteNumber":63,"Velocity":55,"Duration":76781,"SoundDuration":76781,"Delta":69527804},{"NoteNumber":90,"Velocity":52,"Duration":76978,"SoundDuration":76978,"Delta":69604585},{"NoteNumber":100,"Velocity":63,"Duration":77276,"SoundDuration":77276,"Delta":69681564},{"NoteNumber":59,"Velocity":51,"Duration":77276,"SoundDuration":77276,"Delta":69681564},{"NoteNumber":64,"Velocity":60,"Duration":77276,"SoundDuration":77276,"Delta":69681564},{"NoteNumber":56,"Velocity":51,"Duration":77276,"SoundDuration":77276,"Delta":69681564},{"NoteNumber":87,"Velocity":57,"Duration":77575,"SoundDuration":77575,"Delta":69758840},{"NoteNumber":101,"Velocity":74,"Duration":78386,"SoundDuration":78386,"Delta":69836416},{"NoteNumber":65,"Velocity":63,"Duration":78386,"SoundDuration":78386,"Delta":69836416},{"NoteNumber":60,"Velocity":53,"Duration":78386,"SoundDuration":78386,"Delta":69836416},{"NoteNumber":57,"Velocity":53,"Duration":78386,"SoundDuration":78386,"Delta":69836416},{"NoteNumber":87,"Velocity":67,"Duration":113327,"SoundDuration":113327,"Delta":69914802},{"NoteNumber":34,"Velocity":59,"Duration":707211,"SoundDuration":707211,"Delta":70028129},{"NoteNumber":46,"Velocity":72,"Duration":707211,"SoundDuration":707211,"Delta":70028129},{"NoteNumber":94,"Velocity":45,"Duration":83333,"SoundDuration":83333,"Delta":70218003},{"NoteNumber":98,"Velocity":45,"Duration":83333,"SoundDuration":83333,"Delta":70218003},{"NoteNumber":62,"Velocity":52,"Duration":166666,"SoundDuration":166666,"Delta":70218003},{"NoteNumber":50,"Velocity":44,"Duration":166666,"SoundDuration":166666,"Delta":70218003},{"NoteNumber":93,"Velocity":45,"Duration":83333,"SoundDuration":83333,"Delta":70301336},{"NoteNumber":98,"Velocity":45,"Duration":83333,"SoundDuration":83333,"Delta":70384669},{"NoteNumber":92,"Velocity":45,"Duration":83333,"SoundDuration":83333,"Delta":70384669},{"NoteNumber":53,"Velocity":44,"Duration":166666,"SoundDuration":166666,"Delta":70384669},{"NoteNumber":60,"Velocity":52,"Duration":166666,"SoundDuration":166666,"Delta":70384669},{"NoteNumber":91,"Velocity":45,"Duration":83333,"SoundDuration":83333,"Delta":70468003},{"NoteNumber":90,"Velocity":45,"Duration":83333,"SoundDuration":83333,"Delta":70551336},{"NoteNumber":98,"Velocity":45,"Duration":83333,"SoundDuration":83333,"Delta":70551336},{"NoteNumber":58,"Velocity":52,"Duration":184004,"SoundDuration":184004,"Delta":70551336},{"NoteNumber":89,"Velocity":45,"Duration":100671,"SoundDuration":100671,"Delta":70634669},{"NoteNumber":94,"Velocity":44,"Duration":83333,"SoundDuration":83333,"Delta":70735341},{"NoteNumber":98,"Velocity":44,"Duration":83333,"SoundDuration":83333,"Delta":70735341},{"NoteNumber":32,"Velocity":59,"Duration":698718,"SoundDuration":698718,"Delta":70735341},{"NoteNumber":44,"Velocity":72,"Duration":698718,"SoundDuration":698718,"Delta":70735341},{"NoteNumber":88,"Velocity":44,"Duration":83333,"SoundDuration":83333,"Delta":70818674},{"NoteNumber":94,"Velocity":44,"Duration":83333,"SoundDuration":83333,"Delta":70902007},{"NoteNumber":89,"Velocity":44,"Duration":83333,"SoundDuration":83333,"Delta":70902007},{"NoteNumber":50,"Velocity":45,"Duration":166666,"SoundDuration":166666,"Delta":70902007},{"NoteNumber":62,"Velocity":53,"Duration":166666,"SoundDuration":166666,"Delta":70902007},{"NoteNumber":86,"Velocity":44,"Duration":83333,"SoundDuration":83333,"Delta":70985341},{"NoteNumber":84,"Velocity":43,"Duration":83333,"SoundDuration":83333,"Delta":71068674},{"NoteNumber":89,"Velocity":43,"Duration":83333,"SoundDuration":83333,"Delta":71068674},{"NoteNumber":53,"Velocity":45,"Duration":166666,"SoundDuration":166666,"Delta":71068674},{"NoteNumber":60,"Velocity":55,"Duration":83333,"SoundDuration":83333,"Delta":71068674},{"NoteNumber":83,"Velocity":43,"Duration":83333,"SoundDuration":83333,"Delta":71152007},{"NoteNumber":59,"Velocity":48,"Duration":83333,"SoundDuration":83333,"Delta":71152007},{"NoteNumber":86,"Velocity":42,"Duration":83333,"SoundDuration":83333,"Delta":71235341},{"NoteNumber":82,"Velocity":42,"Duration":83333,"SoundDuration":83333,"Delta":71235341},{"NoteNumber":58,"Velocity":56,"Duration":198717,"SoundDuration":198717,"Delta":71235341},{"NoteNumber":81,"Velocity":42,"Duration":115384,"SoundDuration":115384,"Delta":71318674},{"NoteNumber":89,"Velocity":45,"Duration":87209,"SoundDuration":87209,"Delta":71434059},{"NoteNumber":82,"Velocity":45,"Duration":87209,"SoundDuration":87209,"Delta":71434059},{"NoteNumber":30,"Velocity":59,"Duration":691756,"SoundDuration":691756,"Delta":71434059},{"NoteNumber":42,"Velocity":72,"Duration":691756,"SoundDuration":691756,"Delta":71434059},{"NoteNumber":81,"Velocity":45,"Duration":87209,"SoundDuration":87209,"Delta":71521268},{"NoteNumber":86,"Velocity":45,"Duration":83333,"SoundDuration":83333,"Delta":71608477},{"NoteNumber":82,"Velocity":45,"Duration":83333,"SoundDuration":83333,"Delta":71608477},{"NoteNumber":62,"Velocity":52,"Duration":166666,"SoundDuration":166666,"Delta":71608477},{"NoteNumber":50,"Velocity":44,"Duration":166666,"SoundDuration":166666,"Delta":71608477},{"NoteNumber":81,"Velocity":45,"Duration":83333,"SoundDuration":83333,"Delta":71691811},{"NoteNumber":86,"Velocity":45,"Duration":83333,"SoundDuration":83333,"Delta":71775144},{"NoteNumber":80,"Velocity":45,"Duration":83333,"SoundDuration":83333,"Delta":71775144},{"NoteNumber":60,"Velocity":52,"Duration":166666,"SoundDuration":166666,"Delta":71775144},{"NoteNumber":54,"Velocity":44,"Duration":166666,"SoundDuration":166666,"Delta":71775144},{"NoteNumber":79,"Velocity":45,"Duration":83333,"SoundDuration":83333,"Delta":71858477},{"NoteNumber":78,"Velocity":45,"Duration":83333,"SoundDuration":83333,"Delta":71941811},{"NoteNumber":82,"Velocity":45,"Duration":83333,"SoundDuration":83333,"Delta":71941811},{"NoteNumber":58,"Velocity":52,"Duration":184004,"SoundDuration":184004,"Delta":71941811},{"NoteNumber":77,"Velocity":45,"Duration":100671,"SoundDuration":100671,"Delta":72025144},{"NoteNumber":86,"Velocity":44,"Duration":83333,"SoundDuration":83333,"Delta":72125815},{"NoteNumber":82,"Velocity":44,"Duration":83333,"SoundDuration":83333,"Delta":72125815},{"NoteNumber":29,"Velocity":59,"Duration":698718,"SoundDuration":698718,"Delta":72125815},{"NoteNumber":41,"Velocity":72,"Duration":698718,"SoundDuration":698718,"Delta":72125815},{"NoteNumber":76,"Velocity":44,"Duration":83333,"SoundDuration":83333,"Delta":72209149},{"NoteNumber":77,"Velocity":44,"Duration":83333,"SoundDuration":83333,"Delta":72292482},{"NoteNumber":82,"Velocity":44,"Duration":83333,"SoundDuration":83333,"Delta":72292482},{"NoteNumber":50,"Velocity":45,"Duration":166666,"SoundDuration":166666,"Delta":72292482},{"NoteNumber":62,"Velocity":53,"Duration":166666,"SoundDuration":166666,"Delta":72292482},{"NoteNumber":74,"Velocity":44,"Duration":83333,"SoundDuration":83333,"Delta":72375815},{"NoteNumber":77,"Velocity":43,"Duration":83333,"SoundDuration":83333,"Delta":72459149},{"NoteNumber":72,"Velocity":43,"Duration":83333,"SoundDuration":83333,"Delta":72459149},{"NoteNumber":56,"Velocity":45,"Duration":166666,"SoundDuration":166666,"Delta":72459149},{"NoteNumber":60,"Velocity":55,"Duration":83333,"SoundDuration":83333,"Delta":72459149},{"NoteNumber":71,"Velocity":43,"Duration":83333,"SoundDuration":83333,"Delta":72542482},{"NoteNumber":59,"Velocity":48,"Duration":83333,"SoundDuration":83333,"Delta":72542482},{"NoteNumber":74,"Velocity":42,"Duration":83333,"SoundDuration":83333,"Delta":72625816},{"NoteNumber":70,"Velocity":42,"Duration":83333,"SoundDuration":83333,"Delta":72625816},{"NoteNumber":58,"Velocity":56,"Duration":198717,"SoundDuration":198717,"Delta":72625816},{"NoteNumber":68,"Velocity":42,"Duration":115384,"SoundDuration":115384,"Delta":72709149},{"NoteNumber":78,"Velocity":53,"Duration":94936,"SoundDuration":94936,"Delta":72824534},{"NoteNumber":70,"Velocity":46,"Duration":94936,"SoundDuration":94936,"Delta":72824534},{"NoteNumber":66,"Velocity":39,"Duration":94936,"SoundDuration":94936,"Delta":72824534},{"NoteNumber":51,"Velocity":81,"Duration":700380,"SoundDuration":700380,"Delta":72824534},{"NoteNumber":39,"Velocity":68,"Duration":700380,"SoundDuration":700380,"Delta":72824534},{"NoteNumber":90,"Velocity":52,"Duration":81967,"SoundDuration":81967,"Delta":73014407},{"NoteNumber":87,"Velocity":52,"Duration":81967,"SoundDuration":81967,"Delta":73014407},{"NoteNumber":66,"Velocity":58,"Duration":163934,"SoundDuration":163934,"Delta":73014407},{"NoteNumber":54,"Velocity":52,"Duration":163934,"SoundDuration":163934,"Delta":73014407},{"NoteNumber":86,"Velocity":52,"Duration":81967,"SoundDuration":81967,"Delta":73096374},{"NoteNumber":85,"Velocity":51,"Duration":81967,"SoundDuration":81967,"Delta":73178342},{"NoteNumber":90,"Velocity":51,"Duration":81967,"SoundDuration":81967,"Delta":73178342},{"NoteNumber":58,"Velocity":49,"Duration":163934,"SoundDuration":163934,"Delta":73178342},{"NoteNumber":65,"Velocity":58,"Duration":163934,"SoundDuration":163934,"Delta":73178342},{"NoteNumber":84,"Velocity":52,"Duration":81967,"SoundDuration":81967,"Delta":73260309},{"NoteNumber":87,"Velocity":50,"Duration":81967,"SoundDuration":81967,"Delta":73342276},{"NoteNumber":90,"Velocity":50,"Duration":81967,"SoundDuration":81967,"Delta":73342276},{"NoteNumber":63,"Velocity":59,"Duration":182638,"SoundDuration":182638,"Delta":73342276},{"NoteNumber":83,"Velocity":51,"Duration":100671,"SoundDuration":100671,"Delta":73424243},{"NoteNumber":82,"Velocity":50,"Duration":82417,"SoundDuration":82417,"Delta":73524914},{"NoteNumber":90,"Velocity":50,"Duration":82417,"SoundDuration":82417,"Delta":73524914},{"NoteNumber":37,"Velocity":70,"Duration":692308,"SoundDuration":692308,"Delta":73524914},{"NoteNumber":49,"Velocity":83,"Duration":692308,"SoundDuration":692308,"Delta":73524914},{"NoteNumber":81,"Velocity":50,"Duration":82417,"SoundDuration":82417,"Delta":73607332},{"NoteNumber":80,"Velocity":50,"Duration":82417,"SoundDuration":82417,"Delta":73689750},{"NoteNumber":87,"Velocity":50,"Duration":82417,"SoundDuration":82417,"Delta":73689750},{"NoteNumber":66,"Velocity":62,"Duration":164835,"SoundDuration":164835,"Delta":73689750},{"NoteNumber":54,"Velocity":51,"Duration":164835,"SoundDuration":164835,"Delta":73689750},{"NoteNumber":79,"Velocity":51,"Duration":82417,"SoundDuration":82417,"Delta":73772167},{"NoteNumber":87,"Velocity":50,"Duration":82417,"SoundDuration":82417,"Delta":73854585},{"NoteNumber":78,"Velocity":50,"Duration":82417,"SoundDuration":82417,"Delta":73854585},{"NoteNumber":65,"Velocity":65,"Duration":82417,"SoundDuration":82417,"Delta":73854585},{"NoteNumber":58,"Velocity":54,"Duration":164835,"SoundDuration":164835,"Delta":73854585},{"NoteNumber":77,"Velocity":50,"Duration":82417,"SoundDuration":82417,"Delta":73937003},{"NoteNumber":64,"Velocity":57,"Duration":82417,"SoundDuration":82417,"Delta":73937003},{"NoteNumber":82,"Velocity":49,"Duration":82417,"SoundDuration":82417,"Delta":74019420},{"NoteNumber":78,"Velocity":49,"Duration":82417,"SoundDuration":82417,"Delta":74019420},{"NoteNumber":63,"Velocity":66,"Duration":197802,"SoundDuration":197802,"Delta":74019420},{"NoteNumber":76,"Velocity":50,"Duration":115384,"SoundDuration":115384,"Delta":74101838},{"NoteNumber":87,"Velocity":55,"Duration":87209,"SoundDuration":87209,"Delta":74217222},{"NoteNumber":78,"Velocity":55,"Duration":87209,"SoundDuration":87209,"Delta":74217222},{"NoteNumber":35,"Velocity":72,"Duration":673574,"SoundDuration":673574,"Delta":74217222},{"NoteNumber":47,"Velocity":87,"Duration":673574,"SoundDuration":673574,"Delta":74217222},{"NoteNumber":75,"Velocity":55,"Duration":87209,"SoundDuration":87209,"Delta":74304432},{"NoteNumber":75,"Velocity":56,"Duration":81081,"SoundDuration":81081,"Delta":74391641},{"NoteNumber":82,"Velocity":56,"Duration":81081,"SoundDuration":81081,"Delta":74391641},{"NoteNumber":54,"Velocity":52,"Duration":162162,"SoundDuration":162162,"Delta":74391641},{"NoteNumber":66,"Velocity":63,"Duration":162162,"SoundDuration":162162,"Delta":74391641},{"NoteNumber":74,"Velocity":56,"Duration":81081,"SoundDuration":81081,"Delta":74472722},{"NoteNumber":73,"Velocity":55,"Duration":81081,"SoundDuration":81081,"Delta":74553803},{"NoteNumber":78,"Velocity":55,"Duration":81081,"SoundDuration":81081,"Delta":74553803},{"NoteNumber":59,"Velocity":53,"Duration":162162,"SoundDuration":162162,"Delta":74553803},{"NoteNumber":65,"Velocity":63,"Duration":162162,"SoundDuration":162162,"Delta":74553803},{"NoteNumber":72,"Velocity":55,"Duration":81081,"SoundDuration":81081,"Delta":74634884},{"NoteNumber":75,"Velocity":54,"Duration":81081,"SoundDuration":81081,"Delta":74715965},{"NoteNumber":78,"Velocity":54,"Duration":81081,"SoundDuration":81081,"Delta":74715965},{"NoteNumber":63,"Velocity":63,"Duration":174831,"SoundDuration":174831,"Delta":74715965},{"NoteNumber":71,"Velocity":54,"Duration":93750,"SoundDuration":93750,"Delta":74797047},{"NoteNumber":78,"Velocity":54,"Duration":80645,"SoundDuration":80645,"Delta":74890797},{"NoteNumber":75,"Velocity":54,"Duration":80645,"SoundDuration":80645,"Delta":74890797},{"NoteNumber":34,"Velocity":75,"Duration":697612,"SoundDuration":697612,"Delta":74890797},{"NoteNumber":46,"Velocity":91,"Duration":697612,"SoundDuration":697612,"Delta":74890797},{"NoteNumber":70,"Velocity":54,"Duration":80645,"SoundDuration":80645,"Delta":74971442},{"NoteNumber":78,"Velocity":54,"Duration":80645,"SoundDuration":80645,"Delta":75052087},{"NoteNumber":75,"Velocity":54,"Duration":80645,"SoundDuration":80645,"Delta":75052087},{"NoteNumber":66,"Velocity":65,"Duration":161290,"SoundDuration":161290,"Delta":75052087},{"NoteNumber":54,"Velocity":55,"Duration":161290,"SoundDuration":161290,"Delta":75052087},{"NoteNumber":69,"Velocity":54,"Duration":80645,"SoundDuration":80645,"Delta":75132732},{"NoteNumber":75,"Velocity":54,"Duration":80645,"SoundDuration":80645,"Delta":75213377},{"NoteNumber":68,"Velocity":54,"Duration":80645,"SoundDuration":80645,"Delta":75213377},{"NoteNumber":65,"Velocity":70,"Duration":80645,"SoundDuration":80645,"Delta":75213377},{"NoteNumber":58,"Velocity":58,"Duration":161290,"SoundDuration":161290,"Delta":75213377},{"NoteNumber":67,"Velocity":54,"Duration":80645,"SoundDuration":80645,"Delta":75294022},{"NoteNumber":64,"Velocity":60,"Duration":80645,"SoundDuration":80645,"Delta":75294022},{"NoteNumber":70,"Velocity":53,"Duration":80645,"SoundDuration":80645,"Delta":75374667},{"NoteNumber":66,"Velocity":53,"Duration":80645,"SoundDuration":80645,"Delta":75374667},{"NoteNumber":63,"Velocity":72,"Duration":213741,"SoundDuration":213741,"Delta":75374667},{"NoteNumber":63,"Velocity":53,"Duration":133096,"SoundDuration":133096,"Delta":75455312},{"NoteNumber":32,"Velocity":36,"Duration":329670,"SoundDuration":329670,"Delta":75588409},{"NoteNumber":44,"Velocity":36,"Duration":98901,"SoundDuration":98901,"Delta":75588409},{"NoteNumber":45,"Velocity":28,"Duration":82417,"SoundDuration":82417,"Delta":75670827},{"NoteNumber":95,"Velocity":31,"Duration":82417,"SoundDuration":82417,"Delta":75753244},{"NoteNumber":87,"Velocity":31,"Duration":82417,"SoundDuration":82417,"Delta":75753244},{"NoteNumber":45,"Velocity":28,"Duration":82417,"SoundDuration":82417,"Delta":75753244},{"NoteNumber":83,"Velocity":36,"Duration":82417,"SoundDuration":82417,"Delta":75835662},{"NoteNumber":90,"Velocity":36,"Duration":82417,"SoundDuration":82417,"Delta":75835662},{"NoteNumber":46,"Velocity":29,"Duration":82417,"SoundDuration":82417,"Delta":75835662},{"NoteNumber":47,"Velocity":29,"Duration":98901,"SoundDuration":98901,"Delta":75918080},{"NoteNumber":48,"Velocity":29,"Duration":82417,"SoundDuration":82417,"Delta":76000497},{"NoteNumber":87,"Velocity":32,"Duration":82417,"SoundDuration":82417,"Delta":76082915},{"NoteNumber":78,"Velocity":32,"Duration":82417,"SoundDuration":82417,"Delta":76082915},{"NoteNumber":47,"Velocity":30,"Duration":82417,"SoundDuration":82417,"Delta":76082915},{"NoteNumber":83,"Velocity":36,"Duration":82417,"SoundDuration":82417,"Delta":76165333},{"NoteNumber":75,"Velocity":36,"Duration":82417,"SoundDuration":82417,"Delta":76165333},{"NoteNumber":48,"Velocity":30,"Duration":82417,"SoundDuration":82417,"Delta":76165333},{"NoteNumber":37,"Velocity":36,"Duration":337647,"SoundDuration":337647,"Delta":76247750},{"NoteNumber":49,"Velocity":36,"Duration":101294,"SoundDuration":101294,"Delta":76247750},{"NoteNumber":50,"Velocity":31,"Duration":84411,"SoundDuration":84411,"Delta":76332162},{"NoteNumber":71,"Velocity":31,"Duration":84411,"SoundDuration":84411,"Delta":76416574},{"NoteNumber":80,"Velocity":31,"Duration":84411,"SoundDuration":84411,"Delta":76416574},{"NoteNumber":49,"Velocity":32,"Duration":84411,"SoundDuration":84411,"Delta":76416574},{"NoteNumber":68,"Velocity":36,"Duration":84411,"SoundDuration":84411,"Delta":76500986},{"NoteNumber":77,"Velocity":36,"Duration":84411,"SoundDuration":84411,"Delta":76500986},{"NoteNumber":51,"Velocity":32,"Duration":84411,"SoundDuration":84411,"Delta":76500986},{"NoteNumber":52,"Velocity":33,"Duration":113464,"SoundDuration":113464,"Delta":76585398},{"NoteNumber":83,"Velocity":32,"Duration":258811,"SoundDuration":258811,"Delta":76679951},{"NoteNumber":53,"Velocity":35,"Duration":94553,"SoundDuration":94553,"Delta":76679951},{"NoteNumber":92,"Velocity":38,"Duration":211534,"SoundDuration":211534,"Delta":76727228},{"NoteNumber":97,"Velocity":45,"Duration":164257,"SoundDuration":164257,"Delta":76774505},{"NoteNumber":52,"Velocity":36,"Duration":82128,"SoundDuration":82128,"Delta":76774505},{"NoteNumber":53,"Velocity":36,"Duration":82128,"SoundDuration":82128,"Delta":76856634},{"NoteNumber":42,"Velocity":36,"Duration":329670,"SoundDuration":329670,"Delta":76938763},{"NoteNumber":54,"Velocity":36,"Duration":98901,"SoundDuration":98901,"Delta":76938763},{"NoteNumber":55,"Velocity":28,"Duration":82417,"SoundDuration":82417,"Delta":77021180},{"NoteNumber":94,"Velocity":31,"Duration":82417,"SoundDuration":82417,"Delta":77103598},{"NoteNumber":85,"Velocity":31,"Duration":82417,"SoundDuration":82417,"Delta":77103598},{"NoteNumber":54,"Velocity":28,"Duration":82417,"SoundDuration":82417,"Delta":77103598},{"NoteNumber":89,"Velocity":36,"Duration":82417,"SoundDuration":82417,"Delta":77186016},{"NoteNumber":82,"Velocity":36,"Duration":82417,"SoundDuration":82417,"Delta":77186016},{"NoteNumber":56,"Velocity":29,"Duration":82417,"SoundDuration":82417,"Delta":77186016},{"NoteNumber":57,"Velocity":29,"Duration":98901,"SoundDuration":98901,"Delta":77268433},{"NoteNumber":58,"Velocity":29,"Duration":82417,"SoundDuration":82417,"Delta":77350851},{"NoteNumber":85,"Velocity":32,"Duration":82417,"SoundDuration":82417,"Delta":77433268},{"NoteNumber":77,"Velocity":32,"Duration":82417,"SoundDuration":82417,"Delta":77433268},{"NoteNumber":57,"Velocity":30,"Duration":82417,"SoundDuration":82417,"Delta":77433268},{"NoteNumber":82,"Velocity":36,"Duration":82417,"SoundDuration":82417,"Delta":77515686},{"NoteNumber":73,"Velocity":36,"Duration":82417,"SoundDuration":82417,"Delta":77515686},{"NoteNumber":58,"Velocity":30,"Duration":82417,"SoundDuration":82417,"Delta":77515686},{"NoteNumber":47,"Velocity":36,"Duration":333889,"SoundDuration":333889,"Delta":77598104},{"NoteNumber":59,"Velocity":36,"Duration":100166,"SoundDuration":100166,"Delta":77598104},{"NoteNumber":60,"Velocity":31,"Duration":83472,"SoundDuration":83472,"Delta":77681576},{"NoteNumber":78,"Velocity":31,"Duration":83472,"SoundDuration":83472,"Delta":77765049},{"NoteNumber":70,"Velocity":31,"Duration":83472,"SoundDuration":83472,"Delta":77765049},{"NoteNumber":59,"Velocity":32,"Duration":83472,"SoundDuration":83472,"Delta":77765049},{"NoteNumber":75,"Velocity":36,"Duration":83472,"SoundDuration":83472,"Delta":77848521},{"NoteNumber":66,"Velocity":36,"Duration":83472,"SoundDuration":83472,"Delta":77848521},{"NoteNumber":61,"Velocity":32,"Duration":83472,"SoundDuration":83472,"Delta":77848521},{"NoteNumber":62,"Velocity":33,"Duration":113464,"SoundDuration":113464,"Delta":77931994},{"NoteNumber":82,"Velocity":32,"Duration":258811,"SoundDuration":258811,"Delta":78026547},{"NoteNumber":63,"Velocity":35,"Duration":94553,"SoundDuration":94553,"Delta":78026547},{"NoteNumber":90,"Velocity":38,"Duration":211534,"SoundDuration":211534,"Delta":78073824},{"NoteNumber":95,"Velocity":45,"Duration":164257,"SoundDuration":164257,"Delta":78121101},{"NoteNumber":62,"Velocity":36,"Duration":82128,"SoundDuration":82128,"Delta":78121101},{"NoteNumber":63,"Velocity":36,"Duration":82128,"SoundDuration":82128,"Delta":78203230},{"NoteNumber":65,"Velocity":36,"Duration":98901,"SoundDuration":98901,"Delta":78285359},{"NoteNumber":53,"Velocity":36,"Duration":329670,"SoundDuration":329670,"Delta":78285359},{"NoteNumber":66,"Velocity":28,"Duration":82417,"SoundDuration":82417,"Delta":78367776},{"NoteNumber":83,"Velocity":31,"Duration":82417,"SoundDuration":82417,"Delta":78450194},{"NoteNumber":92,"Velocity":31,"Duration":82417,"SoundDuration":82417,"Delta":78450194},{"NoteNumber":65,"Velocity":28,"Duration":82417,"SoundDuration":82417,"Delta":78450194},{"NoteNumber":87,"Velocity":36,"Duration":82417,"SoundDuration":82417,"Delta":78532612},{"NoteNumber":80,"Velocity":36,"Duration":82417,"SoundDuration":82417,"Delta":78532612},{"NoteNumber":67,"Velocity":29,"Duration":82417,"SoundDuration":82417,"Delta":78532612},{"NoteNumber":68,"Velocity":29,"Duration":98901,"SoundDuration":98901,"Delta":78615029},{"NoteNumber":69,"Velocity":29,"Duration":82417,"SoundDuration":82417,"Delta":78697447},{"NoteNumber":87,"Velocity":32,"Duration":82417,"SoundDuration":82417,"Delta":78779864},{"NoteNumber":80,"Velocity":32,"Duration":82417,"SoundDuration":82417,"Delta":78779864},{"NoteNumber":68,"Velocity":30,"Duration":82417,"SoundDuration":82417,"Delta":78779864},{"NoteNumber":83,"Velocity":36,"Duration":82417,"SoundDuration":82417,"Delta":78862282},{"NoteNumber":77,"Velocity":36,"Duration":82417,"SoundDuration":82417,"Delta":78862282},{"NoteNumber":69,"Velocity":30,"Duration":82417,"SoundDuration":82417,"Delta":78862282},{"NoteNumber":58,"Velocity":36,"Duration":333889,"SoundDuration":333889,"Delta":78944700},{"NoteNumber":70,"Velocity":36,"Duration":100166,"SoundDuration":100166,"Delta":78944700},{"NoteNumber":71,"Velocity":31,"Duration":83472,"SoundDuration":83472,"Delta":79028172},{"NoteNumber":80,"Velocity":31,"Duration":166944,"SoundDuration":166944,"Delta":79111645},{"NoteNumber":74,"Velocity":31,"Duration":83472,"SoundDuration":83472,"Delta":79111645},{"NoteNumber":70,"Velocity":32,"Duration":83472,"SoundDuration":83472,"Delta":79111645},{"NoteNumber":76,"Velocity":36,"Duration":83472,"SoundDuration":83472,"Delta":79195117},{"NoteNumber":73,"Velocity":32,"Duration":83472,"SoundDuration":83472,"Delta":79195117},{"NoteNumber":77,"Velocity":31,"Duration":189107,"SoundDuration":189107,"Delta":79278590},{"NoteNumber":74,"Velocity":33,"Duration":94553,"SoundDuration":94553,"Delta":79278590},{"NoteNumber":73,"Velocity":35,"Duration":94553,"SoundDuration":94553,"Delta":79373143},{"NoteNumber":80,"Velocity":38,"Duration":164257,"SoundDuration":164257,"Delta":79467697},{"NoteNumber":94,"Velocity":45,"Duration":164257,"SoundDuration":164257,"Delta":79467697},{"NoteNumber":74,"Velocity":36,"Duration":82128,"SoundDuration":82128,"Delta":79467697},{"NoteNumber":70,"Velocity":36,"Duration":82128,"SoundDuration":82128,"Delta":79549826},{"NoteNumber":63,"Velocity":36,"Duration":328514,"SoundDuration":328514,"Delta":79631955},{"NoteNumber":75,"Velocity":33,"Duration":98554,"SoundDuration":98554,"Delta":79631955},{"NoteNumber":74,"Velocity":33,"Duration":82128,"SoundDuration":82128,"Delta":79714083},{"NoteNumber":90,"Velocity":32,"Duration":82128,"SoundDuration":82128,"Delta":79796212},{"NoteNumber":82,"Velocity":32,"Duration":82128,"SoundDuration":82128,"Delta":79796212},{"NoteNumber":73,"Velocity":33,"Duration":82128,"SoundDuration":82128,"Delta":79796212},{"NoteNumber":87,"Velocity":36,"Duration":82128,"SoundDuration":82128,"Delta":79878341},{"NoteNumber":78,"Velocity":36,"Duration":82128,"SoundDuration":82128,"Delta":79878341},{"NoteNumber":72,"Velocity":33,"Duration":82128,"SoundDuration":82128,"Delta":79878341},{"NoteNumber":71,"Velocity":33,"Duration":98554,"SoundDuration":98554,"Delta":79960470},{"NoteNumber":70,"Velocity":33,"Duration":82128,"SoundDuration":82128,"Delta":80042598},{"NoteNumber":82,"Velocity":32,"Duration":82128,"SoundDuration":82128,"Delta":80124727},{"NoteNumber":75,"Velocity":32,"Duration":82128,"SoundDuration":82128,"Delta":80124727},{"NoteNumber":66,"Velocity":33,"Duration":82128,"SoundDuration":82128,"Delta":80124727},{"NoteNumber":87,"Velocity":36,"Duration":82128,"SoundDuration":82128,"Delta":80206856},{"NoteNumber":78,"Velocity":36,"Duration":82128,"SoundDuration":82128,"Delta":80206856},{"NoteNumber":63,"Velocity":33,"Duration":82128,"SoundDuration":82128,"Delta":80206856},{"NoteNumber":78,"Velocity":45,"Duration":331542,"SoundDuration":331542,"Delta":80288985},{"NoteNumber":90,"Velocity":45,"Duration":82114,"SoundDuration":82114,"Delta":80288985},{"NoteNumber":59,"Velocity":43,"Duration":331542,"SoundDuration":331542,"Delta":80288985},{"NoteNumber":69,"Velocity":43,"Duration":82114,"SoundDuration":82114,"Delta":80288985},{"NoteNumber":89,"Velocity":36,"Duration":82455,"SoundDuration":82455,"Delta":80371099},{"NoteNumber":68,"Velocity":35,"Duration":82455,"SoundDuration":82455,"Delta":80371099},{"NoteNumber":88,"Velocity":38,"Duration":83133,"SoundDuration":83133,"Delta":80453555},{"NoteNumber":67,"Velocity":36,"Duration":83133,"SoundDuration":83133,"Delta":80453555},{"NoteNumber":87,"Velocity":42,"Duration":83838,"SoundDuration":83838,"Delta":80536689},{"NoteNumber":66,"Velocity":36,"Duration":83838,"SoundDuration":83838,"Delta":80536689},{"NoteNumber":93,"Velocity":48,"Duration":84539,"SoundDuration":84539,"Delta":80620527},{"NoteNumber":81,"Velocity":48,"Duration":342302,"SoundDuration":342302,"Delta":80620527},{"NoteNumber":60,"Velocity":45,"Duration":342302,"SoundDuration":342302,"Delta":80620527},{"NoteNumber":65,"Velocity":45,"Duration":84539,"SoundDuration":84539,"Delta":80620527},{"NoteNumber":92,"Velocity":41,"Duration":85147,"SoundDuration":85147,"Delta":80705067},{"NoteNumber":64,"Velocity":37,"Duration":85147,"SoundDuration":85147,"Delta":80705067},{"NoteNumber":91,"Velocity":44,"Duration":85993,"SoundDuration":85993,"Delta":80790214},{"NoteNumber":63,"Velocity":38,"Duration":85993,"SoundDuration":85993,"Delta":80790214},{"NoteNumber":90,"Velocity":48,"Duration":86622,"SoundDuration":86622,"Delta":80876207},{"NoteNumber":62,"Velocity":38,"Duration":86622,"SoundDuration":86622,"Delta":80876207},{"NoteNumber":97,"Velocity":63,"Duration":87361,"SoundDuration":87361,"Delta":80962830},{"NoteNumber":85,"Velocity":51,"Duration":87361,"SoundDuration":87361,"Delta":80962830},{"NoteNumber":61,"Velocity":56,"Duration":87361,"SoundDuration":87361,"Delta":80962830},{"NoteNumber":49,"Velocity":56,"Duration":87361,"SoundDuration":87361,"Delta":80962830},{"NoteNumber":80,"Velocity":29,"Duration":174723,"SoundDuration":174723,"Delta":81312276},{"NoteNumber":77,"Velocity":29,"Duration":174723,"SoundDuration":174723,"Delta":81312276},{"NoteNumber":86,"Velocity":33,"Duration":87361,"SoundDuration":87361,"Delta":81312276},{"NoteNumber":71,"Velocity":28,"Duration":87361,"SoundDuration":87361,"Delta":81312276},{"NoteNumber":83,"Velocity":31,"Duration":87361,"SoundDuration":87361,"Delta":81399638},{"NoteNumber":74,"Velocity":22,"Duration":87361,"SoundDuration":87361,"Delta":81399638},{"NoteNumber":79,"Velocity":33,"Duration":87361,"SoundDuration":87361,"Delta":81487000},{"NoteNumber":70,"Velocity":28,"Duration":87361,"SoundDuration":87361,"Delta":81487000},{"NoteNumber":76,"Velocity":27,"Duration":87361,"SoundDuration":87361,"Delta":81574361},{"NoteNumber":73,"Velocity":24,"Duration":87361,"SoundDuration":87361,"Delta":81574361},{"NoteNumber":80,"Velocity":33,"Duration":87361,"SoundDuration":87361,"Delta":81661723},{"NoteNumber":71,"Velocity":28,"Duration":87361,"SoundDuration":87361,"Delta":81661723},{"NoteNumber":77,"Velocity":28,"Duration":87677,"SoundDuration":87677,"Delta":81749085},{"NoteNumber":74,"Velocity":25,"Duration":87677,"SoundDuration":87677,"Delta":81749085},{"NoteNumber":85,"Velocity":33,"Duration":88063,"SoundDuration":88063,"Delta":81836762},{"NoteNumber":64,"Velocity":30,"Duration":88063,"SoundDuration":88063,"Delta":81836762},{"NoteNumber":82,"Velocity":33,"Duration":88452,"SoundDuration":88452,"Delta":81924825},{"NoteNumber":67,"Velocity":29,"Duration":88452,"SoundDuration":88452,"Delta":81924825},{"NoteNumber":86,"Velocity":35,"Duration":88915,"SoundDuration":88915,"Delta":82013278},{"NoteNumber":65,"Velocity":30,"Duration":88915,"SoundDuration":88915,"Delta":82013278},{"NoteNumber":83,"Velocity":36,"Duration":89374,"SoundDuration":89374,"Delta":82102193},{"NoteNumber":68,"Velocity":32,"Duration":89374,"SoundDuration":89374,"Delta":82102193},{"NoteNumber":91,"Velocity":37,"Duration":89776,"SoundDuration":89776,"Delta":82191568},{"NoteNumber":58,"Velocity":33,"Duration":89776,"SoundDuration":89776,"Delta":82191568},{"NoteNumber":88,"Velocity":38,"Duration":90181,"SoundDuration":90181,"Delta":82281344},{"NoteNumber":61,"Velocity":36,"Duration":90181,"SoundDuration":90181,"Delta":82281344},{"NoteNumber":92,"Velocity":39,"Duration":94517,"SoundDuration":94517,"Delta":82371525},{"NoteNumber":59,"Velocity":36,"Duration":94517,"SoundDuration":94517,"Delta":82371525},{"NoteNumber":89,"Velocity":37,"Duration":94518,"SoundDuration":94518,"Delta":82466043},{"NoteNumber":62,"Velocity":33,"Duration":94518,"SoundDuration":94518,"Delta":82466043},{"NoteNumber":98,"Velocity":48,"Duration":109729,"SoundDuration":109729,"Delta":82560561},{"NoteNumber":59,"Velocity":39,"Duration":109729,"SoundDuration":109729,"Delta":82560561},{"NoteNumber":89,"Velocity":36,"Duration":109729,"SoundDuration":109729,"Delta":82670290},{"NoteNumber":86,"Velocity":36,"Duration":109729,"SoundDuration":109729,"Delta":82670290},{"NoteNumber":49,"Velocity":33,"Duration":109729,"SoundDuration":109729,"Delta":82670290},{"NoteNumber":97,"Velocity":45,"Duration":97592,"SoundDuration":97592,"Delta":82780020},{"NoteNumber":57,"Velocity":39,"Duration":97592,"SoundDuration":97592,"Delta":82780020},{"NoteNumber":89,"Velocity":36,"Duration":97592,"SoundDuration":97592,"Delta":82877613},{"NoteNumber":85,"Velocity":36,"Duration":97592,"SoundDuration":97592,"Delta":82877613},{"NoteNumber":49,"Velocity":32,"Duration":97592,"SoundDuration":97592,"Delta":82877613},{"NoteNumber":95,"Velocity":48,"Duration":97592,"SoundDuration":97592,"Delta":82975205},{"NoteNumber":56,"Velocity":39,"Duration":97592,"SoundDuration":97592,"Delta":82975205},{"NoteNumber":83,"Velocity":39,"Duration":97592,"SoundDuration":97592,"Delta":83072798},{"NoteNumber":89,"Velocity":39,"Duration":97592,"SoundDuration":97592,"Delta":83072798},{"NoteNumber":49,"Velocity":31,"Duration":97592,"SoundDuration":97592,"Delta":83072798},{"NoteNumber":94,"Velocity":46,"Duration":97592,"SoundDuration":97592,"Delta":83170391},{"NoteNumber":55,"Velocity":39,"Duration":97592,"SoundDuration":97592,"Delta":83170391},{"NoteNumber":82,"Velocity":36,"Duration":97592,"SoundDuration":97592,"Delta":83267984},{"NoteNumber":85,"Velocity":36,"Duration":97592,"SoundDuration":97592,"Delta":83267984},{"NoteNumber":49,"Velocity":33,"Duration":97592,"SoundDuration":97592,"Delta":83267984},{"NoteNumber":93,"Velocity":45,"Duration":97592,"SoundDuration":97592,"Delta":83365576},{"NoteNumber":54,"Velocity":39,"Duration":97592,"SoundDuration":97592,"Delta":83365576},{"NoteNumber":84,"Velocity":39,"Duration":97592,"SoundDuration":97592,"Delta":83463169},{"NoteNumber":81,"Velocity":39,"Duration":97592,"SoundDuration":97592,"Delta":83463169},{"NoteNumber":49,"Velocity":32,"Duration":97592,"SoundDuration":97592,"Delta":83463169},{"NoteNumber":92,"Velocity":48,"Duration":97592,"SoundDuration":97592,"Delta":83560762},{"NoteNumber":57,"Velocity":39,"Duration":97592,"SoundDuration":97592,"Delta":83560762},{"NoteNumber":84,"Velocity":38,"Duration":97592,"SoundDuration":97592,"Delta":83658355},{"NoteNumber":80,"Velocity":38,"Duration":97592,"SoundDuration":97592,"Delta":83658355},{"NoteNumber":49,"Velocity":32,"Duration":97592,"SoundDuration":97592,"Delta":83658355},{"NoteNumber":90,"Velocity":46,"Duration":97592,"SoundDuration":97592,"Delta":83755947},{"NoteNumber":63,"Velocity":39,"Duration":97592,"SoundDuration":97592,"Delta":83755947},{"NoteNumber":84,"Velocity":39,"Duration":97592,"SoundDuration":97592,"Delta":83853540},{"NoteNumber":78,"Velocity":39,"Duration":97592,"SoundDuration":97592,"Delta":83853540},{"NoteNumber":49,"Velocity":33,"Duration":97592,"SoundDuration":97592,"Delta":83853540},{"NoteNumber":77,"Velocity":50,"Duration":195185,"SoundDuration":195185,"Delta":83951133},{"NoteNumber":89,"Velocity":50,"Duration":195185,"SoundDuration":195185,"Delta":83951133},{"NoteNumber":85,"Velocity":50,"Duration":195185,"SoundDuration":195185,"Delta":83951133},{"NoteNumber":68,"Velocity":43,"Duration":97592,"SoundDuration":97592,"Delta":83951133},{"NoteNumber":61,"Velocity":43,"Duration":97592,"SoundDuration":97592,"Delta":83951133},{"NoteNumber":37,"Velocity":43,"Duration":97592,"SoundDuration":97592,"Delta":84146318},{"NoteNumber":68,"Velocity":28,"Duration":349446,"SoundDuration":349446,"Delta":84341504},{"NoteNumber":65,"Velocity":28,"Duration":349446,"SoundDuration":349446,"Delta":84341504},{"NoteNumber":74,"Velocity":33,"Duration":87361,"SoundDuration":87361,"Delta":84341504},{"NoteNumber":59,"Velocity":28,"Duration":87361,"SoundDuration":87361,"Delta":84341504},{"NoteNumber":71,"Velocity":31,"Duration":87361,"SoundDuration":87361,"Delta":84428865},{"NoteNumber":62,"Velocity":22,"Duration":87361,"SoundDuration":87361,"Delta":84428865},{"NoteNumber":67,"Velocity":33,"Duration":87361,"SoundDuration":87361,"Delta":84516227},{"NoteNumber":58,"Velocity":28,"Duration":87361,"SoundDuration":87361,"Delta":84516227},{"NoteNumber":64,"Velocity":27,"Duration":87361,"SoundDuration":87361,"Delta":84603589},{"NoteNumber":61,"Velocity":24,"Duration":87361,"SoundDuration":87361,"Delta":84603589},{"NoteNumber":68,"Velocity":33,"Duration":87361,"SoundDuration":87361,"Delta":84690950},{"NoteNumber":59,"Velocity":28,"Duration":87361,"SoundDuration":87361,"Delta":84690950},{"NoteNumber":65,"Velocity":28,"Duration":87361,"SoundDuration":87361,"Delta":84778312},{"NoteNumber":62,"Velocity":25,"Duration":87361,"SoundDuration":87361,"Delta":84778312},{"NoteNumber":73,"Velocity":33,"Duration":87361,"SoundDuration":87361,"Delta":84865674},{"NoteNumber":52,"Velocity":30,"Duration":87361,"SoundDuration":87361,"Delta":84865674},{"NoteNumber":70,"Velocity":33,"Duration":87421,"SoundDuration":87421,"Delta":84953035},{"NoteNumber":55,"Velocity":29,"Duration":87421,"SoundDuration":87421,"Delta":84953035},{"NoteNumber":74,"Velocity":35,"Duration":88253,"SoundDuration":88253,"Delta":85040457},{"NoteNumber":53,"Velocity":30,"Duration":88253,"SoundDuration":88253,"Delta":85040457},{"NoteNumber":71,"Velocity":36,"Duration":89242,"SoundDuration":89242,"Delta":85128710},{"NoteNumber":56,"Velocity":32,"Duration":89242,"SoundDuration":89242,"Delta":85128710},{"NoteNumber":79,"Velocity":37,"Duration":90109,"SoundDuration":90109,"Delta":85217953},{"NoteNumber":46,"Velocity":33,"Duration":90109,"SoundDuration":90109,"Delta":85217953},{"NoteNumber":76,"Velocity":38,"Duration":91205,"SoundDuration":91205,"Delta":85308062},{"NoteNumber":49,"Velocity":36,"Duration":91205,"SoundDuration":91205,"Delta":85308062},{"NoteNumber":80,"Velocity":39,"Duration":95724,"SoundDuration":95724,"Delta":85399268},{"NoteNumber":47,"Velocity":36,"Duration":95724,"SoundDuration":95724,"Delta":85399268},{"NoteNumber":77,"Velocity":37,"Duration":95724,"SoundDuration":95724,"Delta":85494992},{"NoteNumber":50,"Velocity":33,"Duration":95724,"SoundDuration":95724,"Delta":85494992},{"NoteNumber":86,"Velocity":48,"Duration":109729,"SoundDuration":109729,"Delta":85590716},{"NoteNumber":47,"Velocity":39,"Duration":109729,"SoundDuration":109729,"Delta":85590716},{"NoteNumber":74,"Velocity":36,"Duration":109729,"SoundDuration":109729,"Delta":85700446},{"NoteNumber":77,"Velocity":36,"Duration":109729,"SoundDuration":109729,"Delta":85700446},{"NoteNumber":37,"Velocity":33,"Duration":109729,"SoundDuration":109729,"Delta":85700446},{"NoteNumber":85,"Velocity":45,"Duration":97592,"SoundDuration":97592,"Delta":85810175},{"NoteNumber":45,"Velocity":39,"Duration":97592,"SoundDuration":97592,"Delta":85810175},{"NoteNumber":73,"Velocity":36,"Duration":97592,"SoundDuration":97592,"Delta":85907768},{"NoteNumber":77,"Velocity":36,"Duration":97592,"SoundDuration":97592,"Delta":85907768},{"NoteNumber":37,"Velocity":32,"Duration":97592,"SoundDuration":97592,"Delta":85907768},{"NoteNumber":83,"Velocity":48,"Duration":97592,"SoundDuration":97592,"Delta":86005361},{"NoteNumber":44,"Velocity":39,"Duration":97592,"SoundDuration":97592,"Delta":86005361},{"NoteNumber":77,"Velocity":39,"Duration":97592,"SoundDuration":97592,"Delta":86102953},{"NoteNumber":71,"Velocity":39,"Duration":97592,"SoundDuration":97592,"Delta":86102953},{"NoteNumber":37,"Velocity":31,"Duration":97592,"SoundDuration":97592,"Delta":86102953},{"NoteNumber":82,"Velocity":46,"Duration":97592,"SoundDuration":97592,"Delta":86200546},{"NoteNumber":43,"Velocity":39,"Duration":97592,"SoundDuration":97592,"Delta":86200546},{"NoteNumber":73,"Velocity":36,"Duration":97592,"SoundDuration":97592,"Delta":86298139},{"NoteNumber":70,"Velocity":36,"Duration":97592,"SoundDuration":97592,"Delta":86298139},{"NoteNumber":37,"Velocity":33,"Duration":97592,"SoundDuration":97592,"Delta":86298139},{"NoteNumber":81,"Velocity":45,"Duration":97592,"SoundDuration":97592,"Delta":86395732},{"NoteNumber":42,"Velocity":39,"Duration":97592,"SoundDuration":97592,"Delta":86395732},{"NoteNumber":69,"Velocity":39,"Duration":97592,"SoundDuration":97592,"Delta":86493324},{"NoteNumber":72,"Velocity":39,"Duration":97592,"SoundDuration":97592,"Delta":86493324},{"NoteNumber":37,"Velocity":32,"Duration":97592,"SoundDuration":97592,"Delta":86493324},{"NoteNumber":80,"Velocity":48,"Duration":97592,"SoundDuration":97592,"Delta":86590917},{"NoteNumber":45,"Velocity":39,"Duration":97592,"SoundDuration":97592,"Delta":86590917},{"NoteNumber":68,"Velocity":38,"Duration":97592,"SoundDuration":97592,"Delta":86688510},{"NoteNumber":72,"Velocity":38,"Duration":97592,"SoundDuration":97592,"Delta":86688510},{"NoteNumber":37,"Velocity":32,"Duration":97592,"SoundDuration":97592,"Delta":86688510},{"NoteNumber":78,"Velocity":46,"Duration":97519,"SoundDuration":97519,"Delta":86786103},{"NoteNumber":51,"Velocity":39,"Duration":97519,"SoundDuration":97519,"Delta":86786103},{"NoteNumber":66,"Velocity":39,"Duration":96961,"SoundDuration":96961,"Delta":86883622},{"NoteNumber":72,"Velocity":39,"Duration":96961,"SoundDuration":96961,"Delta":86883622},{"NoteNumber":37,"Velocity":33,"Duration":96961,"SoundDuration":96961,"Delta":86883622},{"NoteNumber":77,"Velocity":46,"Duration":96889,"SoundDuration":96889,"Delta":86980584},{"NoteNumber":49,"Velocity":39,"Duration":96889,"SoundDuration":96889,"Delta":86980584},{"NoteNumber":65,"Velocity":38,"Duration":96339,"SoundDuration":96339,"Delta":87077473},{"NoteNumber":68,"Velocity":38,"Duration":96339,"SoundDuration":96339,"Delta":87077473},{"NoteNumber":37,"Velocity":32,"Duration":96339,"SoundDuration":96339,"Delta":87077473},{"NoteNumber":74,"Velocity":46,"Duration":96267,"SoundDuration":96267,"Delta":87173812},{"NoteNumber":47,"Velocity":39,"Duration":96267,"SoundDuration":96267,"Delta":87173812},{"NoteNumber":62,"Velocity":38,"Duration":95724,"SoundDuration":95724,"Delta":87270079},{"NoteNumber":65,"Velocity":38,"Duration":95724,"SoundDuration":95724,"Delta":87270079},{"NoteNumber":37,"Velocity":32,"Duration":95724,"SoundDuration":95724,"Delta":87270079},{"NoteNumber":73,"Velocity":48,"Duration":95501,"SoundDuration":95501,"Delta":87365804},{"NoteNumber":45,"Velocity":41,"Duration":95501,"SoundDuration":95501,"Delta":87365804},{"NoteNumber":61,"Velocity":39,"Duration":95117,"SoundDuration":95117,"Delta":87461306},{"NoteNumber":65,"Velocity":39,"Duration":95117,"SoundDuration":95117,"Delta":87461306},{"NoteNumber":37,"Velocity":33,"Duration":95117,"SoundDuration":95117,"Delta":87461306},{"NoteNumber":71,"Velocity":49,"Duration":94897,"SoundDuration":94897,"Delta":87556423},{"NoteNumber":44,"Velocity":41,"Duration":94897,"SoundDuration":94897,"Delta":87556423},{"NoteNumber":59,"Velocity":41,"Duration":94517,"SoundDuration":94517,"Delta":87651320},{"NoteNumber":65,"Velocity":41,"Duration":94517,"SoundDuration":94517,"Delta":87651320},{"NoteNumber":37,"Velocity":33,"Duration":94517,"SoundDuration":94517,"Delta":87651320},{"NoteNumber":70,"Velocity":50,"Duration":94153,"SoundDuration":94153,"Delta":87745838},{"NoteNumber":43,"Velocity":42,"Duration":94153,"SoundDuration":94153,"Delta":87745838},{"NoteNumber":61,"Velocity":42,"Duration":94508,"SoundDuration":94508,"Delta":87839991},{"NoteNumber":58,"Velocity":42,"Duration":94508,"SoundDuration":94508,"Delta":87839991},{"NoteNumber":37,"Velocity":35,"Duration":94508,"SoundDuration":94508,"Delta":87839991},{"NoteNumber":69,"Velocity":51,"Duration":95339,"SoundDuration":95339,"Delta":87934500},{"NoteNumber":42,"Velocity":43,"Duration":95339,"SoundDuration":95339,"Delta":87934500},{"NoteNumber":57,"Velocity":42,"Duration":96329,"SoundDuration":96329,"Delta":88029840},{"NoteNumber":60,"Velocity":42,"Duration":96329,"SoundDuration":96329,"Delta":88029840},{"NoteNumber":37,"Velocity":36,"Duration":96329,"SoundDuration":96329,"Delta":88029840},{"NoteNumber":68,"Velocity":52,"Duration":97193,"SoundDuration":97193,"Delta":88126170},{"NoteNumber":45,"Velocity":44,"Duration":97193,"SoundDuration":97193,"Delta":88126170},{"NoteNumber":56,"Velocity":43,"Duration":98062,"SoundDuration":98062,"Delta":88223363},{"NoteNumber":60,"Velocity":43,"Duration":98062,"SoundDuration":98062,"Delta":88223363},{"NoteNumber":37,"Velocity":36,"Duration":98062,"SoundDuration":98062,"Delta":88223363},{"NoteNumber":66,"Velocity":52,"Duration":99119,"SoundDuration":99119,"Delta":88321426},{"NoteNumber":51,"Velocity":45,"Duration":99119,"SoundDuration":99119,"Delta":88321426},{"NoteNumber":54,"Velocity":44,"Duration":100024,"SoundDuration":100024,"Delta":88420546},{"NoteNumber":60,"Velocity":44,"Duration":100024,"SoundDuration":100024,"Delta":88420546},{"NoteNumber":37,"Velocity":36,"Duration":100024,"SoundDuration":100024,"Delta":88420546},{"NoteNumber":65,"Velocity":59,"Duration":201748,"SoundDuration":201748,"Delta":88520570},{"NoteNumber":56,"Velocity":59,"Duration":201748,"SoundDuration":201748,"Delta":88520570},{"NoteNumber":49,"Velocity":50,"Duration":201748,"SoundDuration":201748,"Delta":88520570},{"NoteNumber":62,"Velocity":83,"Duration":94517,"SoundDuration":94517,"Delta":88722318},{"NoteNumber":56,"Velocity":71,"Duration":94517,"SoundDuration":94517,"Delta":88722318},{"NoteNumber":53,"Velocity":71,"Duration":94517,"SoundDuration":94517,"Delta":88722318},{"NoteNumber":35,"Velocity":58,"Duration":94517,"SoundDuration":94517,"Delta":88722318},{"NoteNumber":47,"Velocity":69,"Duration":94517,"SoundDuration":94517,"Delta":88722318},{"NoteNumber":56,"Velocity":65,"Duration":94517,"SoundDuration":94517,"Delta":88911354},{"NoteNumber":61,"Velocity":77,"Duration":94517,"SoundDuration":94517,"Delta":88911354},{"NoteNumber":53,"Velocity":65,"Duration":94517,"SoundDuration":94517,"Delta":88911354},{"NoteNumber":48,"Velocity":60,"Duration":94517,"SoundDuration":94517,"Delta":88911354},{"NoteNumber":36,"Velocity":51,"Duration":94517,"SoundDuration":94517,"Delta":88911354},{"NoteNumber":60,"Velocity":77,"Duration":94517,"SoundDuration":94517,"Delta":89100390},{"NoteNumber":53,"Velocity":65,"Duration":94517,"SoundDuration":94517,"Delta":89100390},{"NoteNumber":56,"Velocity":65,"Duration":94517,"SoundDuration":94517,"Delta":89100390},{"NoteNumber":37,"Velocity":51,"Duration":94517,"SoundDuration":94517,"Delta":89100390},{"NoteNumber":49,"Velocity":60,"Duration":94517,"SoundDuration":94517,"Delta":89100390},{"NoteNumber":53,"Velocity":71,"Duration":94517,"SoundDuration":94517,"Delta":89289426},{"NoteNumber":56,"Velocity":71,"Duration":94517,"SoundDuration":94517,"Delta":89289426},{"NoteNumber":59,"Velocity":83,"Duration":94517,"SoundDuration":94517,"Delta":89289426},{"NoteNumber":38,"Velocity":58,"Duration":94517,"SoundDuration":94517,"Delta":89289426},{"NoteNumber":50,"Velocity":69,"Duration":94517,"SoundDuration":94517,"Delta":89289426},{"NoteNumber":56,"Velocity":65,"Duration":100874,"SoundDuration":100874,"Delta":89478462},{"NoteNumber":62,"Velocity":77,"Duration":100874,"SoundDuration":100874,"Delta":89478462},{"NoteNumber":53,"Velocity":65,"Duration":100874,"SoundDuration":100874,"Delta":89478462},{"NoteNumber":47,"Velocity":65,"Duration":100874,"SoundDuration":100874,"Delta":89478462},{"NoteNumber":61,"Velocity":83,"Duration":93926,"SoundDuration":93926,"Delta":89680211},{"NoteNumber":56,"Velocity":71,"Duration":187852,"SoundDuration":187852,"Delta":89680211},{"NoteNumber":53,"Velocity":71,"Duration":187852,"SoundDuration":187852,"Delta":89680211},{"NoteNumber":48,"Velocity":69,"Duration":93926,"SoundDuration":93926,"Delta":89680211},{"NoteNumber":60,"Velocity":75,"Duration":93926,"SoundDuration":93926,"Delta":89774137},{"NoteNumber":49,"Velocity":64,"Duration":93926,"SoundDuration":93926,"Delta":89774137},{"NoteNumber":59,"Velocity":75,"Duration":187852,"SoundDuration":187852,"Delta":89868063},{"NoteNumber":50,"Velocity":64,"Duration":187852,"SoundDuration":187852,"Delta":89868063},{"NoteNumber":68,"Velocity":33,"Duration":94517,"SoundDuration":94517,"Delta":90243767},{"NoteNumber":65,"Velocity":33,"Duration":94517,"SoundDuration":94517,"Delta":90243767},{"NoteNumber":74,"Velocity":39,"Duration":94517,"SoundDuration":94517,"Delta":90243767},{"NoteNumber":59,"Velocity":33,"Duration":94517,"SoundDuration":94517,"Delta":90243767},{"NoteNumber":65,"Velocity":30,"Duration":94517,"SoundDuration":94517,"Delta":90432803},{"NoteNumber":68,"Velocity":30,"Duration":94517,"SoundDuration":94517,"Delta":90432803},{"NoteNumber":73,"Velocity":36,"Duration":94517,"SoundDuration":94517,"Delta":90432803},{"NoteNumber":60,"Velocity":28,"Duration":94517,"SoundDuration":94517,"Delta":90432803},{"NoteNumber":65,"Velocity":30,"Duration":94517,"SoundDuration":94517,"Delta":90621839},{"NoteNumber":72,"Velocity":36,"Duration":94517,"SoundDuration":94517,"Delta":90621839},{"NoteNumber":68,"Velocity":30,"Duration":94517,"SoundDuration":94517,"Delta":90621839},{"NoteNumber":61,"Velocity":28,"Duration":94517,"SoundDuration":94517,"Delta":90621839},{"NoteNumber":65,"Velocity":33,"Duration":94517,"SoundDuration":94517,"Delta":90810875},{"NoteNumber":68,"Velocity":33,"Duration":94517,"SoundDuration":94517,"Delta":90810875},{"NoteNumber":71,"Velocity":39,"Duration":94517,"SoundDuration":94517,"Delta":90810875},{"NoteNumber":62,"Velocity":33,"Duration":94517,"SoundDuration":94517,"Delta":90810875},{"NoteNumber":68,"Velocity":30,"Duration":100874,"SoundDuration":100874,"Delta":90999911},{"NoteNumber":65,"Velocity":30,"Duration":100874,"SoundDuration":100874,"Delta":90999911},{"NoteNumber":74,"Velocity":36,"Duration":100874,"SoundDuration":100874,"Delta":90999911},{"NoteNumber":59,"Velocity":30,"Duration":100874,"SoundDuration":100874,"Delta":90999911},{"NoteNumber":73,"Velocity":39,"Duration":93926,"SoundDuration":93926,"Delta":91201660},{"NoteNumber":65,"Velocity":33,"Duration":187852,"SoundDuration":187852,"Delta":91201660},{"NoteNumber":68,"Velocity":33,"Duration":187852,"SoundDuration":187852,"Delta":91201660},{"NoteNumber":60,"Velocity":33,"Duration":93926,"SoundDuration":93926,"Delta":91201660},{"NoteNumber":72,"Velocity":36,"Duration":93926,"SoundDuration":93926,"Delta":91295586},{"NoteNumber":61,"Velocity":30,"Duration":93926,"SoundDuration":93926,"Delta":91295586},{"NoteNumber":71,"Velocity":36,"Duration":187852,"SoundDuration":187852,"Delta":91389512},{"NoteNumber":62,"Velocity":30,"Duration":187852,"SoundDuration":187852,"Delta":91389512},{"NoteNumber":65,"Velocity":71,"Duration":94517,"SoundDuration":94517,"Delta":91779113},{"NoteNumber":56,"Velocity":71,"Duration":94517,"SoundDuration":94517,"Delta":91779113},{"NoteNumber":62,"Velocity":83,"Duration":94517,"SoundDuration":94517,"Delta":91779113},{"NoteNumber":35,"Velocity":58,"Duration":94517,"SoundDuration":94517,"Delta":91779113},{"NoteNumber":47,"Velocity":69,"Duration":94517,"SoundDuration":94517,"Delta":91779113},{"NoteNumber":65,"Velocity":65,"Duration":94517,"SoundDuration":94517,"Delta":91968149},{"NoteNumber":61,"Velocity":77,"Duration":94517,"SoundDuration":94517,"Delta":91968149},{"NoteNumber":56,"Velocity":65,"Duration":94517,"SoundDuration":94517,"Delta":91968149},{"NoteNumber":36,"Velocity":51,"Duration":94517,"SoundDuration":94517,"Delta":91968149},{"NoteNumber":48,"Velocity":60,"Duration":94517,"SoundDuration":94517,"Delta":91968149},{"NoteNumber":56,"Velocity":65,"Duration":94517,"SoundDuration":94517,"Delta":92157185},{"NoteNumber":65,"Velocity":65,"Duration":94517,"SoundDuration":94517,"Delta":92157185},{"NoteNumber":60,"Velocity":77,"Duration":94517,"SoundDuration":94517,"Delta":92157185},{"NoteNumber":49,"Velocity":60,"Duration":94517,"SoundDuration":94517,"Delta":92157185},{"NoteNumber":37,"Velocity":51,"Duration":94517,"SoundDuration":94517,"Delta":92157185},{"NoteNumber":65,"Velocity":71,"Duration":94517,"SoundDuration":94517,"Delta":92346221},{"NoteNumber":56,"Velocity":71,"Duration":94517,"SoundDuration":94517,"Delta":92346221},{"NoteNumber":59,"Velocity":83,"Duration":94517,"SoundDuration":94517,"Delta":92346221},{"NoteNumber":50,"Velocity":69,"Duration":94517,"SoundDuration":94517,"Delta":92346221},{"NoteNumber":38,"Velocity":58,"Duration":94517,"SoundDuration":94517,"Delta":92346221},{"NoteNumber":62,"Velocity":77,"Duration":100874,"SoundDuration":100874,"Delta":92535257},{"NoteNumber":65,"Velocity":65,"Duration":100874,"SoundDuration":100874,"Delta":92535257},{"NoteNumber":56,"Velocity":65,"Duration":100874,"SoundDuration":100874,"Delta":92535257},{"NoteNumber":47,"Velocity":65,"Duration":100874,"SoundDuration":100874,"Delta":92535257},{"NoteNumber":61,"Velocity":83,"Duration":93926,"SoundDuration":93926,"Delta":92737005},{"NoteNumber":56,"Velocity":71,"Duration":187852,"SoundDuration":187852,"Delta":92737005},{"NoteNumber":65,"Velocity":71,"Duration":187852,"SoundDuration":187852,"Delta":92737005},{"NoteNumber":48,"Velocity":69,"Duration":93926,"SoundDuration":93926,"Delta":92737005},{"NoteNumber":60,"Velocity":75,"Duration":93926,"SoundDuration":93926,"Delta":92830932},{"NoteNumber":49,"Velocity":64,"Duration":93926,"SoundDuration":93926,"Delta":92830932},{"NoteNumber":59,"Velocity":75,"Duration":187852,"SoundDuration":187852,"Delta":92924858},{"NoteNumber":50,"Velocity":64,"Duration":187852,"SoundDuration":187852,"Delta":92924858},{"NoteNumber":77,"Velocity":33,"Duration":94517,"SoundDuration":94517,"Delta":93311781},{"NoteNumber":74,"Velocity":39,"Duration":94517,"SoundDuration":94517,"Delta":93311781},{"NoteNumber":68,"Velocity":33,"Duration":94517,"SoundDuration":94517,"Delta":93311781},{"NoteNumber":59,"Velocity":33,"Duration":94517,"SoundDuration":94517,"Delta":93311781},{"NoteNumber":68,"Velocity":30,"Duration":94517,"SoundDuration":94517,"Delta":93500817},{"NoteNumber":73,"Velocity":36,"Duration":94517,"SoundDuration":94517,"Delta":93500817},{"NoteNumber":77,"Velocity":30,"Duration":94517,"SoundDuration":94517,"Delta":93500817},{"NoteNumber":60,"Velocity":28,"Duration":94517,"SoundDuration":94517,"Delta":93500817},{"NoteNumber":68,"Velocity":30,"Duration":94517,"SoundDuration":94517,"Delta":93689853},{"NoteNumber":72,"Velocity":36,"Duration":94517,"SoundDuration":94517,"Delta":93689853},{"NoteNumber":77,"Velocity":30,"Duration":94517,"SoundDuration":94517,"Delta":93689853},{"NoteNumber":61,"Velocity":28,"Duration":94517,"SoundDuration":94517,"Delta":93689853},{"NoteNumber":77,"Velocity":33,"Duration":94517,"SoundDuration":94517,"Delta":93878889},{"NoteNumber":71,"Velocity":39,"Duration":94517,"SoundDuration":94517,"Delta":93878889},{"NoteNumber":68,"Velocity":33,"Duration":94517,"SoundDuration":94517,"Delta":93878889},{"NoteNumber":62,"Velocity":33,"Duration":94517,"SoundDuration":94517,"Delta":93878889},{"NoteNumber":68,"Velocity":30,"Duration":100874,"SoundDuration":100874,"Delta":94067925},{"NoteNumber":77,"Velocity":30,"Duration":100874,"SoundDuration":100874,"Delta":94067925},{"NoteNumber":74,"Velocity":36,"Duration":100874,"SoundDuration":100874,"Delta":94067925},{"NoteNumber":59,"Velocity":30,"Duration":100874,"SoundDuration":100874,"Delta":94067925},{"NoteNumber":77,"Velocity":33,"Duration":187852,"SoundDuration":187852,"Delta":94269673},{"NoteNumber":73,"Velocity":39,"Duration":93926,"SoundDuration":93926,"Delta":94269673},{"NoteNumber":68,"Velocity":33,"Duration":187852,"SoundDuration":187852,"Delta":94269673},{"NoteNumber":60,"Velocity":33,"Duration":93926,"SoundDuration":93926,"Delta":94269673},{"NoteNumber":72,"Velocity":36,"Duration":93926,"SoundDuration":93926,"Delta":94363600},{"NoteNumber":61,"Velocity":30,"Duration":93926,"SoundDuration":93926,"Delta":94363600},{"NoteNumber":71,"Velocity":36,"Duration":187852,"SoundDuration":187852,"Delta":94457526},{"NoteNumber":62,"Velocity":30,"Duration":187852,"SoundDuration":187852,"Delta":94457526},{"NoteNumber":71,"Velocity":33,"Duration":89445,"SoundDuration":89445,"Delta":94840563},{"NoteNumber":77,"Velocity":39,"Duration":89445,"SoundDuration":89445,"Delta":94840563},{"NoteNumber":80,"Velocity":33,"Duration":89445,"SoundDuration":89445,"Delta":94840563},{"NoteNumber":62,"Velocity":33,"Duration":89445,"SoundDuration":89445,"Delta":94840563},{"NoteNumber":76,"Velocity":36,"Duration":89445,"SoundDuration":89445,"Delta":95019454},{"NoteNumber":71,"Velocity":30,"Duration":89445,"SoundDuration":89445,"Delta":95019454},{"NoteNumber":80,"Velocity":30,"Duration":89445,"SoundDuration":89445,"Delta":95019454},{"NoteNumber":63,"Velocity":28,"Duration":89445,"SoundDuration":89445,"Delta":95019454},{"NoteNumber":80,"Velocity":30,"Duration":89445,"SoundDuration":89445,"Delta":95198345},{"NoteNumber":75,"Velocity":36,"Duration":89445,"SoundDuration":89445,"Delta":95198345},{"NoteNumber":71,"Velocity":30,"Duration":89445,"SoundDuration":89445,"Delta":95198345},{"NoteNumber":64,"Velocity":28,"Duration":89445,"SoundDuration":89445,"Delta":95198345},{"NoteNumber":74,"Velocity":39,"Duration":89445,"SoundDuration":89445,"Delta":95377236},{"NoteNumber":80,"Velocity":33,"Duration":89445,"SoundDuration":89445,"Delta":95377236},{"NoteNumber":71,"Velocity":33,"Duration":89445,"SoundDuration":89445,"Delta":95377236},{"NoteNumber":65,"Velocity":33,"Duration":89445,"SoundDuration":89445,"Delta":95377236},{"NoteNumber":80,"Velocity":36,"Duration":98231,"SoundDuration":98231,"Delta":95556127},{"NoteNumber":74,"Velocity":30,"Duration":98231,"SoundDuration":98231,"Delta":95556127},{"NoteNumber":83,"Velocity":30,"Duration":98231,"SoundDuration":98231,"Delta":95556127},{"NoteNumber":65,"Velocity":30,"Duration":98231,"SoundDuration":98231,"Delta":95556127},{"NoteNumber":79,"Velocity":39,"Duration":89982,"SoundDuration":89982,"Delta":95752591},{"NoteNumber":74,"Velocity":33,"Duration":179963,"SoundDuration":179963,"Delta":95752591},{"NoteNumber":83,"Velocity":33,"Duration":179963,"SoundDuration":179963,"Delta":95752591},{"NoteNumber":66,"Velocity":33,"Duration":89982,"SoundDuration":89982,"Delta":95752591},{"NoteNumber":78,"Velocity":36,"Duration":89981,"SoundDuration":89981,"Delta":95842573},{"NoteNumber":67,"Velocity":30,"Duration":89981,"SoundDuration":89981,"Delta":95842573},{"NoteNumber":77,"Velocity":36,"Duration":179963,"SoundDuration":179963,"Delta":95932555},{"NoteNumber":68,"Velocity":30,"Duration":179963,"SoundDuration":179963,"Delta":95932555},{"NoteNumber":77,"Velocity":37,"Duration":349446,"SoundDuration":349446,"Delta":96112519},{"NoteNumber":86,"Velocity":37,"Duration":349446,"SoundDuration":349446,"Delta":96112519},{"NoteNumber":83,"Velocity":31,"Duration":87361,"SoundDuration":87361,"Delta":96112519},{"NoteNumber":68,"Velocity":31,"Duration":87361,"SoundDuration":87361,"Delta":96112519},{"NoteNumber":81,"Velocity":25,"Duration":87361,"SoundDuration":87361,"Delta":96199881},{"NoteNumber":69,"Velocity":25,"Duration":87361,"SoundDuration":87361,"Delta":96199881},{"NoteNumber":82,"Velocity":25,"Duration":87361,"SoundDuration":87361,"Delta":96287242},{"NoteNumber":70,"Velocity":25,"Duration":87361,"SoundDuration":87361,"Delta":96287242},{"NoteNumber":71,"Velocity":25,"Duration":87361,"SoundDuration":87361,"Delta":96374604},{"NoteNumber":80,"Velocity":25,"Duration":87361,"SoundDuration":87361,"Delta":96374604},{"NoteNumber":89,"Velocity":38,"Duration":349446,"SoundDuration":349446,"Delta":96461966},{"NoteNumber":80,"Velocity":38,"Duration":349446,"SoundDuration":349446,"Delta":96461966},{"NoteNumber":71,"Velocity":31,"Duration":87361,"SoundDuration":87361,"Delta":96461966},{"NoteNumber":87,"Velocity":31,"Duration":87361,"SoundDuration":87361,"Delta":96461966},{"NoteNumber":72,"Velocity":25,"Duration":87361,"SoundDuration":87361,"Delta":96549327},{"NoteNumber":84,"Velocity":25,"Duration":87361,"SoundDuration":87361,"Delta":96549327},{"NoteNumber":73,"Velocity":25,"Duration":87361,"SoundDuration":87361,"Delta":96636689},{"NoteNumber":85,"Velocity":25,"Duration":87361,"SoundDuration":87361,"Delta":96636689},{"NoteNumber":74,"Velocity":25,"Duration":87361,"SoundDuration":87361,"Delta":96724051},{"NoteNumber":83,"Velocity":25,"Duration":87361,"SoundDuration":87361,"Delta":96724051},{"NoteNumber":83,"Velocity":39,"Duration":345422,"SoundDuration":345422,"Delta":96811412},{"NoteNumber":92,"Velocity":39,"Duration":345422,"SoundDuration":345422,"Delta":96811412},{"NoteNumber":74,"Velocity":31,"Duration":86355,"SoundDuration":86355,"Delta":96811412},{"NoteNumber":88,"Velocity":31,"Duration":86355,"SoundDuration":86355,"Delta":96811412},{"NoteNumber":87,"Velocity":27,"Duration":86355,"SoundDuration":86355,"Delta":96897768},{"NoteNumber":75,"Velocity":27,"Duration":86355,"SoundDuration":86355,"Delta":96897768},{"NoteNumber":76,"Velocity":27,"Duration":86355,"SoundDuration":86355,"Delta":96984124},{"NoteNumber":88,"Velocity":27,"Duration":86355,"SoundDuration":86355,"Delta":96984124},{"NoteNumber":86,"Velocity":27,"Duration":86355,"SoundDuration":86355,"Delta":97070479},{"NoteNumber":77,"Velocity":27,"Duration":86355,"SoundDuration":86355,"Delta":97070479},{"NoteNumber":86,"Velocity":37,"Duration":345422,"SoundDuration":345422,"Delta":97156835},{"NoteNumber":95,"Velocity":37,"Duration":345422,"SoundDuration":345422,"Delta":97156835},{"NoteNumber":92,"Velocity":31,"Duration":86355,"SoundDuration":86355,"Delta":97156835},{"NoteNumber":77,"Velocity":31,"Duration":86355,"SoundDuration":86355,"Delta":97156835},{"NoteNumber":90,"Velocity":27,"Duration":86355,"SoundDuration":86355,"Delta":97243191},{"NoteNumber":78,"Velocity":27,"Duration":86355,"SoundDuration":86355,"Delta":97243191},{"NoteNumber":91,"Velocity":27,"Duration":86355,"SoundDuration":86355,"Delta":97329547},{"NoteNumber":79,"Velocity":27,"Duration":86355,"SoundDuration":86355,"Delta":97329547},{"NoteNumber":89,"Velocity":27,"Duration":86355,"SoundDuration":86355,"Delta":97415902},{"NoteNumber":80,"Velocity":27,"Duration":86355,"SoundDuration":86355,"Delta":97415902},{"NoteNumber":89,"Velocity":48,"Duration":343446,"SoundDuration":343446,"Delta":97502258},{"NoteNumber":98,"Velocity":48,"Duration":343446,"SoundDuration":343446,"Delta":97502258},{"NoteNumber":95,"Velocity":32,"Duration":85861,"SoundDuration":85861,"Delta":97502258},{"NoteNumber":80,"Velocity":32,"Duration":85861,"SoundDuration":85861,"Delta":97502258},{"NoteNumber":93,"Velocity":29,"Duration":85861,"SoundDuration":85861,"Delta":97588120},{"NoteNumber":81,"Velocity":29,"Duration":85861,"SoundDuration":85861,"Delta":97588120},{"NoteNumber":82,"Velocity":29,"Duration":85861,"SoundDuration":85861,"Delta":97673981},{"NoteNumber":94,"Velocity":29,"Duration":85861,"SoundDuration":85861,"Delta":97673981},{"NoteNumber":92,"Velocity":29,"Duration":85861,"SoundDuration":85861,"Delta":97759843},{"NoteNumber":83,"Velocity":29,"Duration":85861,"SoundDuration":85861,"Delta":97759843},{"NoteNumber":98,"Velocity":45,"Duration":343446,"SoundDuration":343446,"Delta":97845704},{"NoteNumber":89,"Velocity":45,"Duration":343446,"SoundDuration":343446,"Delta":97845704},{"NoteNumber":80,"Velocity":32,"Duration":85861,"SoundDuration":85861,"Delta":97845704},{"NoteNumber":95,"Velocity":32,"Duration":85861,"SoundDuration":85861,"Delta":97845704},{"NoteNumber":81,"Velocity":29,"Duration":85861,"SoundDuration":85861,"Delta":97931566},{"NoteNumber":93,"Velocity":29,"Duration":85861,"SoundDuration":85861,"Delta":97931566},{"NoteNumber":82,"Velocity":29,"Duration":85861,"SoundDuration":85861,"Delta":98017427},{"NoteNumber":94,"Velocity":29,"Duration":85861,"SoundDuration":85861,"Delta":98017427},{"NoteNumber":92,"Velocity":28,"Duration":85861,"SoundDuration":85861,"Delta":98103289},{"NoteNumber":83,"Velocity":28,"Duration":85861,"SoundDuration":85861,"Delta":98103289},{"NoteNumber":98,"Velocity":49,"Duration":343446,"SoundDuration":343446,"Delta":98189150},{"NoteNumber":89,"Velocity":49,"Duration":343446,"SoundDuration":343446,"Delta":98189150},{"NoteNumber":95,"Velocity":32,"Duration":85861,"SoundDuration":85861,"Delta":98189150},{"NoteNumber":80,"Velocity":32,"Duration":85861,"SoundDuration":85861,"Delta":98189150},{"NoteNumber":81,"Velocity":29,"Duration":85861,"SoundDuration":85861,"Delta":98275012},{"NoteNumber":93,"Velocity":29,"Duration":85861,"SoundDuration":85861,"Delta":98275012},{"NoteNumber":82,"Velocity":29,"Duration":85861,"SoundDuration":85861,"Delta":98360873},{"NoteNumber":94,"Velocity":29,"Duration":85861,"SoundDuration":85861,"Delta":98360873},{"NoteNumber":92,"Velocity":29,"Duration":85861,"SoundDuration":85861,"Delta":98446735},{"NoteNumber":83,"Velocity":29,"Duration":85861,"SoundDuration":85861,"Delta":98446735},{"NoteNumber":89,"Velocity":45,"Duration":343446,"SoundDuration":343446,"Delta":98532596},{"NoteNumber":98,"Velocity":45,"Duration":343446,"SoundDuration":343446,"Delta":98532596},{"NoteNumber":80,"Velocity":32,"Duration":85861,"SoundDuration":85861,"Delta":98532596},{"NoteNumber":95,"Velocity":32,"Duration":85861,"SoundDuration":85861,"Delta":98532596},{"NoteNumber":93,"Velocity":28,"Duration":85861,"SoundDuration":85861,"Delta":98618458},{"NoteNumber":81,"Velocity":28,"Duration":85861,"SoundDuration":85861,"Delta":98618458},{"NoteNumber":82,"Velocity":28,"Duration":85861,"SoundDuration":85861,"Delta":98704319},{"NoteNumber":94,"Velocity":28,"Duration":85861,"SoundDuration":85861,"Delta":98704319},{"NoteNumber":92,"Velocity":28,"Duration":85861,"SoundDuration":85861,"Delta":98790181},{"NoteNumber":83,"Velocity":28,"Duration":85861,"SoundDuration":85861,"Delta":98790181},{"NoteNumber":101,"Velocity":49,"Duration":85861,"SoundDuration":85861,"Delta":98876042},{"NoteNumber":98,"Velocity":37,"Duration":85861,"SoundDuration":85861,"Delta":98876042},{"NoteNumber":95,"Velocity":37,"Duration":85861,"SoundDuration":85861,"Delta":98876042},{"NoteNumber":97,"Velocity":30,"Duration":85861,"SoundDuration":85861,"Delta":98961904},{"NoteNumber":94,"Velocity":30,"Duration":85861,"SoundDuration":85861,"Delta":98961904},{"NoteNumber":101,"Velocity":37,"Duration":85861,"SoundDuration":85861,"Delta":99047765},{"NoteNumber":98,"Velocity":30,"Duration":85861,"SoundDuration":85861,"Delta":99047765},{"NoteNumber":95,"Velocity":30,"Duration":85861,"SoundDuration":85861,"Delta":99047765},{"NoteNumber":96,"Velocity":30,"Duration":85861,"SoundDuration":85861,"Delta":99133627},{"NoteNumber":93,"Velocity":30,"Duration":85861,"SoundDuration":85861,"Delta":99133627},{"NoteNumber":98,"Velocity":46,"Duration":85861,"SoundDuration":85861,"Delta":99219488},{"NoteNumber":92,"Velocity":37,"Duration":85861,"SoundDuration":85861,"Delta":99219488},{"NoteNumber":95,"Velocity":37,"Duration":85861,"SoundDuration":85861,"Delta":99219488},{"NoteNumber":91,"Velocity":30,"Duration":85861,"SoundDuration":85861,"Delta":99305350},{"NoteNumber":94,"Velocity":30,"Duration":85861,"SoundDuration":85861,"Delta":99305350},{"NoteNumber":98,"Velocity":37,"Duration":85861,"SoundDuration":85861,"Delta":99391211},{"NoteNumber":95,"Velocity":30,"Duration":85861,"SoundDuration":85861,"Delta":99391211},{"NoteNumber":92,"Velocity":30,"Duration":85861,"SoundDuration":85861,"Delta":99391211},{"NoteNumber":90,"Velocity":30,"Duration":85861,"SoundDuration":85861,"Delta":99477073},{"NoteNumber":93,"Velocity":30,"Duration":85861,"SoundDuration":85861,"Delta":99477073},{"NoteNumber":95,"Velocity":48,"Duration":85861,"SoundDuration":85861,"Delta":99562934},{"NoteNumber":89,"Velocity":37,"Duration":85861,"SoundDuration":85861,"Delta":99562934},{"NoteNumber":92,"Velocity":37,"Duration":85861,"SoundDuration":85861,"Delta":99562934},{"NoteNumber":91,"Velocity":31,"Duration":85861,"SoundDuration":85861,"Delta":99648796},{"NoteNumber":88,"Velocity":31,"Duration":85861,"SoundDuration":85861,"Delta":99648796},{"NoteNumber":95,"Velocity":37,"Duration":85861,"SoundDuration":85861,"Delta":99734657},{"NoteNumber":89,"Velocity":31,"Duration":85861,"SoundDuration":85861,"Delta":99734657},{"NoteNumber":92,"Velocity":31,"Duration":85861,"SoundDuration":85861,"Delta":99734657},{"NoteNumber":87,"Velocity":31,"Duration":85861,"SoundDuration":85861,"Delta":99820519},{"NoteNumber":90,"Velocity":31,"Duration":85861,"SoundDuration":85861,"Delta":99820519},{"NoteNumber":92,"Velocity":45,"Duration":85861,"SoundDuration":85861,"Delta":99906380},{"NoteNumber":86,"Velocity":37,"Duration":85861,"SoundDuration":85861,"Delta":99906380},{"NoteNumber":89,"Velocity":37,"Duration":85861,"SoundDuration":85861,"Delta":99906380},{"NoteNumber":85,"Velocity":30,"Duration":85861,"SoundDuration":85861,"Delta":99992242},{"NoteNumber":88,"Velocity":30,"Duration":85861,"SoundDuration":85861,"Delta":99992242},{"NoteNumber":92,"Velocity":37,"Duration":85861,"SoundDuration":85861,"Delta":100078103},{"NoteNumber":89,"Velocity":30,"Duration":85861,"SoundDuration":85861,"Delta":100078103},{"NoteNumber":86,"Velocity":30,"Duration":85861,"SoundDuration":85861,"Delta":100078103},{"NoteNumber":84,"Velocity":30,"Duration":85804,"SoundDuration":85804,"Delta":100163965},{"NoteNumber":87,"Velocity":30,"Duration":85804,"SoundDuration":85804,"Delta":100163965},{"NoteNumber":89,"Velocity":44,"Duration":85372,"SoundDuration":85372,"Delta":100249769},{"NoteNumber":86,"Velocity":33,"Duration":85372,"SoundDuration":85372,"Delta":100249769},{"NoteNumber":83,"Velocity":33,"Duration":85372,"SoundDuration":85372,"Delta":100249769},{"NoteNumber":82,"Velocity":27,"Duration":85551,"SoundDuration":85551,"Delta":100335142},{"NoteNumber":85,"Velocity":27,"Duration":85551,"SoundDuration":85551,"Delta":100335142},{"NoteNumber":89,"Velocity":33,"Duration":85861,"SoundDuration":85861,"Delta":100420694},{"NoteNumber":83,"Velocity":27,"Duration":85861,"SoundDuration":85861,"Delta":100420694},{"NoteNumber":86,"Velocity":27,"Duration":85861,"SoundDuration":85861,"Delta":100420694},{"NoteNumber":81,"Velocity":27,"Duration":86166,"SoundDuration":86166,"Delta":100506555},{"NoteNumber":84,"Velocity":27,"Duration":86166,"SoundDuration":86166,"Delta":100506555},{"NoteNumber":86,"Velocity":42,"Duration":86355,"SoundDuration":86355,"Delta":100592722},{"NoteNumber":83,"Velocity":33,"Duration":86355,"SoundDuration":86355,"Delta":100592722},{"NoteNumber":80,"Velocity":33,"Duration":86355,"SoundDuration":86355,"Delta":100592722},{"NoteNumber":82,"Velocity":27,"Duration":86789,"SoundDuration":86789,"Delta":100679077},{"NoteNumber":79,"Velocity":27,"Duration":86789,"SoundDuration":86789,"Delta":100679077},{"NoteNumber":86,"Velocity":33,"Duration":86914,"SoundDuration":86914,"Delta":100765867},{"NoteNumber":80,"Velocity":27,"Duration":86914,"SoundDuration":86914,"Delta":100765867},{"NoteNumber":83,"Velocity":27,"Duration":86914,"SoundDuration":86914,"Delta":100765867},{"NoteNumber":81,"Velocity":27,"Duration":87361,"SoundDuration":87361,"Delta":100852781},{"NoteNumber":78,"Velocity":27,"Duration":87361,"SoundDuration":87361,"Delta":100852781},{"NoteNumber":83,"Velocity":43,"Duration":87549,"SoundDuration":87549,"Delta":100940143},{"NoteNumber":77,"Velocity":33,"Duration":87549,"SoundDuration":87549,"Delta":100940143},{"NoteNumber":80,"Velocity":33,"Duration":87549,"SoundDuration":87549,"Delta":100940143},{"NoteNumber":79,"Velocity":27,"Duration":87873,"SoundDuration":87873,"Delta":101027692},{"NoteNumber":76,"Velocity":27,"Duration":87873,"SoundDuration":87873,"Delta":101027692},{"NoteNumber":83,"Velocity":33,"Duration":88192,"SoundDuration":88192,"Delta":101115566},{"NoteNumber":77,"Velocity":27,"Duration":88192,"SoundDuration":88192,"Delta":101115566},{"NoteNumber":80,"Velocity":27,"Duration":88192,"SoundDuration":88192,"Delta":101115566},{"NoteNumber":78,"Velocity":27,"Duration":88391,"SoundDuration":88391,"Delta":101203759},{"NoteNumber":75,"Velocity":27,"Duration":88391,"SoundDuration":88391,"Delta":101203759},{"NoteNumber":80,"Velocity":41,"Duration":88845,"SoundDuration":88845,"Delta":101292150},{"NoteNumber":77,"Velocity":33,"Duration":88845,"SoundDuration":88845,"Delta":101292150},{"NoteNumber":74,"Velocity":33,"Duration":88845,"SoundDuration":88845,"Delta":101292150},{"NoteNumber":76,"Velocity":27,"Duration":88977,"SoundDuration":88977,"Delta":101380995},{"NoteNumber":73,"Velocity":27,"Duration":88977,"SoundDuration":88977,"Delta":101380995},{"NoteNumber":80,"Velocity":33,"Duration":89445,"SoundDuration":89445,"Delta":101469972},{"NoteNumber":77,"Velocity":27,"Duration":89445,"SoundDuration":89445,"Delta":101469972},{"NoteNumber":74,"Velocity":27,"Duration":89445,"SoundDuration":89445,"Delta":101469972},{"NoteNumber":72,"Velocity":27,"Duration":89642,"SoundDuration":89642,"Delta":101559418},{"NoteNumber":75,"Velocity":27,"Duration":89642,"SoundDuration":89642,"Delta":101559418},{"NoteNumber":80,"Velocity":33,"Duration":89982,"SoundDuration":89982,"Delta":101649060},{"NoteNumber":74,"Velocity":33,"Duration":89982,"SoundDuration":89982,"Delta":101649060},{"NoteNumber":77,"Velocity":33,"Duration":89982,"SoundDuration":89982,"Delta":101649060},{"NoteNumber":73,"Velocity":27,"Duration":89981,"SoundDuration":89981,"Delta":101739042},{"NoteNumber":76,"Velocity":27,"Duration":89981,"SoundDuration":89981,"Delta":101739042},{"NoteNumber":77,"Velocity":27,"Duration":89982,"SoundDuration":89982,"Delta":101829024},{"NoteNumber":74,"Velocity":27,"Duration":89982,"SoundDuration":89982,"Delta":101829024},{"NoteNumber":80,"Velocity":27,"Duration":89982,"SoundDuration":89982,"Delta":101829024},{"NoteNumber":76,"Velocity":27,"Duration":89982,"SoundDuration":89982,"Delta":101919006},{"NoteNumber":73,"Velocity":27,"Duration":89982,"SoundDuration":89982,"Delta":101919006},{"NoteNumber":77,"Velocity":33,"Duration":89981,"SoundDuration":89981,"Delta":102008988},{"NoteNumber":74,"Velocity":33,"Duration":89981,"SoundDuration":89981,"Delta":102008988},{"NoteNumber":80,"Velocity":33,"Duration":89981,"SoundDuration":89981,"Delta":102008988},{"NoteNumber":73,"Velocity":27,"Duration":89982,"SoundDuration":89982,"Delta":102098970},{"NoteNumber":76,"Velocity":27,"Duration":89982,"SoundDuration":89982,"Delta":102098970},{"NoteNumber":80,"Velocity":27,"Duration":89981,"SoundDuration":89981,"Delta":102188952},{"NoteNumber":77,"Velocity":27,"Duration":89981,"SoundDuration":89981,"Delta":102188952},{"NoteNumber":74,"Velocity":27,"Duration":89981,"SoundDuration":89981,"Delta":102188952},{"NoteNumber":76,"Velocity":27,"Duration":89982,"SoundDuration":89982,"Delta":102278934},{"NoteNumber":73,"Velocity":27,"Duration":89982,"SoundDuration":89982,"Delta":102278934},{"NoteNumber":77,"Velocity":33,"Duration":89981,"SoundDuration":89981,"Delta":102368916},{"NoteNumber":74,"Velocity":33,"Duration":89981,"SoundDuration":89981,"Delta":102368916},{"NoteNumber":80,"Velocity":33,"Duration":89981,"SoundDuration":89981,"Delta":102368916},{"NoteNumber":73,"Velocity":27,"Duration":89982,"SoundDuration":89982,"Delta":102458898},{"NoteNumber":76,"Velocity":27,"Duration":89982,"SoundDuration":89982,"Delta":102458898},{"NoteNumber":80,"Velocity":27,"Duration":89982,"SoundDuration":89982,"Delta":102548880},{"NoteNumber":77,"Velocity":27,"Duration":89982,"SoundDuration":89982,"Delta":102548880},{"NoteNumber":74,"Velocity":27,"Duration":89982,"SoundDuration":89982,"Delta":102548880},{"NoteNumber":73,"Velocity":27,"Duration":89981,"SoundDuration":89981,"Delta":102638862},{"NoteNumber":76,"Velocity":27,"Duration":89981,"SoundDuration":89981,"Delta":102638862},{"NoteNumber":74,"Velocity":33,"Duration":89982,"SoundDuration":89982,"Delta":102728844},{"NoteNumber":77,"Velocity":33,"Duration":89982,"SoundDuration":89982,"Delta":102728844},{"NoteNumber":80,"Velocity":33,"Duration":89982,"SoundDuration":89982,"Delta":102728844},{"NoteNumber":73,"Velocity":27,"Duration":89981,"SoundDuration":89981,"Delta":102818826},{"NoteNumber":76,"Velocity":27,"Duration":89981,"SoundDuration":89981,"Delta":102818826},{"NoteNumber":74,"Velocity":27,"Duration":89982,"SoundDuration":89982,"Delta":102908808},{"NoteNumber":80,"Velocity":27,"Duration":89982,"SoundDuration":89982,"Delta":102908808},{"NoteNumber":77,"Velocity":27,"Duration":89982,"SoundDuration":89982,"Delta":102908808},{"NoteNumber":73,"Velocity":27,"Duration":89981,"SoundDuration":89981,"Delta":102998790},{"NoteNumber":76,"Velocity":27,"Duration":89981,"SoundDuration":89981,"Delta":102998790},{"NoteNumber":80,"Velocity":27,"Duration":89982,"SoundDuration":89982,"Delta":103088772},{"NoteNumber":74,"Velocity":27,"Duration":89982,"SoundDuration":89982,"Delta":103088772},{"NoteNumber":77,"Velocity":27,"Duration":89982,"SoundDuration":89982,"Delta":103088772},{"NoteNumber":78,"Velocity":27,"Duration":89981,"SoundDuration":89981,"Delta":103178754},{"NoteNumber":77,"Velocity":27,"Duration":89982,"SoundDuration":89982,"Delta":103268736},{"NoteNumber":78,"Velocity":27,"Duration":90199,"SoundDuration":90199,"Delta":103358718},{"NoteNumber":77,"Velocity":25,"Duration":90524,"SoundDuration":90524,"Delta":103448917},{"NoteNumber":78,"Velocity":25,"Duration":90524,"SoundDuration":90524,"Delta":103539442},{"NoteNumber":77,"Velocity":25,"Duration":90524,"SoundDuration":90524,"Delta":103629967},{"NoteNumber":78,"Velocity":27,"Duration":91019,"SoundDuration":91019,"Delta":103720492},{"NoteNumber":77,"Velocity":27,"Duration":91074,"SoundDuration":91074,"Delta":103811512},{"NoteNumber":78,"Velocity":27,"Duration":91074,"SoundDuration":91074,"Delta":103902587},{"NoteNumber":77,"Velocity":27,"Duration":91297,"SoundDuration":91297,"Delta":103993661},{"NoteNumber":78,"Velocity":27,"Duration":91631,"SoundDuration":91631,"Delta":104084958},{"NoteNumber":77,"Velocity":23,"Duration":91630,"SoundDuration":91630,"Delta":104176589},{"NoteNumber":78,"Velocity":23,"Duration":91631,"SoundDuration":91631,"Delta":104268220},{"NoteNumber":77,"Velocity":24,"Duration":92137,"SoundDuration":92137,"Delta":104359851},{"NoteNumber":78,"Velocity":24,"Duration":91373,"SoundDuration":91373,"Delta":104451989},{"NoteNumber":77,"Velocity":26,"Duration":92827,"SoundDuration":92827,"Delta":104543363},{"NoteNumber":78,"Velocity":23,"Duration":95183,"SoundDuration":95183,"Delta":104636190},{"NoteNumber":77,"Velocity":26,"Duration":96996,"SoundDuration":96996,"Delta":104731373},{"NoteNumber":78,"Velocity":23,"Duration":97592,"SoundDuration":97592,"Delta":104828369},{"NoteNumber":70,"Velocity":33,"Duration":179963,"SoundDuration":179963,"Delta":104925962},{"NoteNumber":76,"Velocity":26,"Duration":89982,"SoundDuration":89982,"Delta":104925962},{"NoteNumber":62,"Velocity":32,"Duration":359927,"SoundDuration":359927,"Delta":104925962},{"NoteNumber":67,"Velocity":30,"Duration":179963,"SoundDuration":179963,"Delta":104925962},{"NoteNumber":78,"Velocity":23,"Duration":89981,"SoundDuration":89981,"Delta":105015944},{"NoteNumber":76,"Velocity":30,"Duration":89982,"SoundDuration":89982,"Delta":105105926},{"NoteNumber":71,"Velocity":30,"Duration":179963,"SoundDuration":179963,"Delta":105105926},{"NoteNumber":68,"Velocity":26,"Duration":179963,"SoundDuration":179963,"Delta":105105926},{"NoteNumber":78,"Velocity":23,"Duration":89981,"SoundDuration":89981,"Delta":105195908},{"NoteNumber":76,"Velocity":26,"Duration":89982,"SoundDuration":89982,"Delta":105285890},{"NoteNumber":72,"Velocity":35,"Duration":179963,"SoundDuration":179963,"Delta":105285890},{"NoteNumber":61,"Velocity":36,"Duration":359927,"SoundDuration":359927,"Delta":105285890},{"NoteNumber":68,"Velocity":30,"Duration":179963,"SoundDuration":179963,"Delta":105285890},{"NoteNumber":78,"Velocity":23,"Duration":89981,"SoundDuration":89981,"Delta":105375872},{"NoteNumber":76,"Velocity":26,"Duration":89982,"SoundDuration":89982,"Delta":105465854},{"NoteNumber":73,"Velocity":31,"Duration":179963,"SoundDuration":179963,"Delta":105465854},{"NoteNumber":69,"Velocity":26,"Duration":179963,"SoundDuration":179963,"Delta":105465854},{"NoteNumber":78,"Velocity":23,"Duration":89981,"SoundDuration":89981,"Delta":105555836},{"NoteNumber":73,"Velocity":36,"Duration":179964,"SoundDuration":179964,"Delta":105645818},{"NoteNumber":76,"Velocity":26,"Duration":89982,"SoundDuration":89982,"Delta":105645818},{"NoteNumber":70,"Velocity":35,"Duration":179964,"SoundDuration":179964,"Delta":105645818},{"NoteNumber":56,"Velocity":32,"Duration":359928,"SoundDuration":359928,"Delta":105645818},{"NoteNumber":78,"Velocity":23,"Duration":89982,"SoundDuration":89982,"Delta":105735800},{"NoteNumber":76,"Velocity":26,"Duration":89981,"SoundDuration":89981,"Delta":105825782},{"NoteNumber":74,"Velocity":31,"Duration":179963,"SoundDuration":179963,"Delta":105825782},{"NoteNumber":71,"Velocity":29,"Duration":179963,"SoundDuration":179963,"Delta":105825782},{"NoteNumber":78,"Velocity":23,"Duration":89982,"SoundDuration":89982,"Delta":105915764},{"NoteNumber":73,"Velocity":27,"Duration":99535,"SoundDuration":99535,"Delta":106005746},{"NoteNumber":76,"Velocity":27,"Duration":99535,"SoundDuration":99535,"Delta":106005746},{"NoteNumber":57,"Velocity":29,"Duration":380121,"SoundDuration":380121,"Delta":106005746},{"NoteNumber":64,"Velocity":36,"Duration":380121,"SoundDuration":380121,"Delta":106005746},{"NoteNumber":78,"Velocity":23,"Duration":99535,"SoundDuration":99535,"Delta":106105282},{"NoteNumber":76,"Velocity":23,"Duration":90524,"SoundDuration":90524,"Delta":106204817},{"NoteNumber":85,"Velocity":47,"Duration":90524,"SoundDuration":90524,"Delta":106204817},{"NoteNumber":78,"Velocity":19,"Duration":90524,"SoundDuration":90524,"Delta":106295342},{"NoteNumber":73,"Velocity":19,"Duration":90524,"SoundDuration":90524,"Delta":106295342},{"NoteNumber":76,"Velocity":24,"Duration":90524,"SoundDuration":90524,"Delta":106385867},{"NoteNumber":83,"Velocity":47,"Duration":90524,"SoundDuration":90524,"Delta":106385867},{"NoteNumber":57,"Velocity":24,"Duration":362099,"SoundDuration":362099,"Delta":106385867},{"NoteNumber":52,"Velocity":24,"Duration":362099,"SoundDuration":362099,"Delta":106385867},{"NoteNumber":64,"Velocity":30,"Duration":362099,"SoundDuration":362099,"Delta":106385867},{"NoteNumber":78,"Velocity":19,"Duration":90524,"SoundDuration":90524,"Delta":106476392},{"NoteNumber":73,"Velocity":19,"Duration":90524,"SoundDuration":90524,"Delta":106476392},{"NoteNumber":76,"Velocity":24,"Duration":90524,"SoundDuration":90524,"Delta":106566917},{"NoteNumber":81,"Velocity":42,"Duration":90524,"SoundDuration":90524,"Delta":106566917},{"NoteNumber":78,"Velocity":20,"Duration":90524,"SoundDuration":90524,"Delta":106657442},{"NoteNumber":73,"Velocity":20,"Duration":90524,"SoundDuration":90524,"Delta":106657442},{"NoteNumber":74,"Velocity":25,"Duration":90524,"SoundDuration":90524,"Delta":106747967},{"NoteNumber":81,"Velocity":47,"Duration":90524,"SoundDuration":90524,"Delta":106747967},{"NoteNumber":59,"Velocity":24,"Duration":376235,"SoundDuration":376235,"Delta":106747967},{"NoteNumber":64,"Velocity":30,"Duration":376235,"SoundDuration":376235,"Delta":106747967},{"NoteNumber":52,"Velocity":24,"Duration":376235,"SoundDuration":376235,"Delta":106747967},{"NoteNumber":71,"Velocity":21,"Duration":90524,"SoundDuration":90524,"Delta":106838492},{"NoteNumber":76,"Velocity":21,"Duration":90524,"SoundDuration":90524,"Delta":106838492},{"NoteNumber":74,"Velocity":24,"Duration":97592,"SoundDuration":97592,"Delta":106929017},{"NoteNumber":80,"Velocity":43,"Duration":97592,"SoundDuration":97592,"Delta":106929017},{"NoteNumber":76,"Velocity":19,"Duration":97592,"SoundDuration":97592,"Delta":107026610},{"NoteNumber":71,"Velocity":19,"Duration":97592,"SoundDuration":97592,"Delta":107026610},{"NoteNumber":74,"Velocity":24,"Duration":88915,"SoundDuration":88915,"Delta":107124203},{"NoteNumber":79,"Velocity":47,"Duration":88915,"SoundDuration":88915,"Delta":107124203},{"NoteNumber":64,"Velocity":30,"Duration":356721,"SoundDuration":356721,"Delta":107124203},{"NoteNumber":56,"Velocity":24,"Duration":356721,"SoundDuration":356721,"Delta":107124203},{"NoteNumber":71,"Velocity":18,"Duration":88915,"SoundDuration":88915,"Delta":107213118},{"NoteNumber":78,"Velocity":38,"Duration":88915,"SoundDuration":88915,"Delta":107213118},{"NoteNumber":77,"Velocity":47,"Duration":89445,"SoundDuration":89445,"Delta":107302033},{"NoteNumber":74,"Velocity":23,"Duration":89445,"SoundDuration":89445,"Delta":107302033},{"NoteNumber":71,"Velocity":19,"Duration":89445,"SoundDuration":89445,"Delta":107391479},{"NoteNumber":73,"Velocity":24,"Duration":89445,"SoundDuration":89445,"Delta":107480924},{"NoteNumber":76,"Velocity":47,"Duration":89445,"SoundDuration":89445,"Delta":107480924},{"NoteNumber":57,"Velocity":29,"Duration":357782,"SoundDuration":357782,"Delta":107480924},{"NoteNumber":64,"Velocity":36,"Duration":357782,"SoundDuration":357782,"Delta":107480924},{"NoteNumber":69,"Velocity":22,"Duration":89445,"SoundDuration":89445,"Delta":107570370},{"NoteNumber":73,"Velocity":22,"Duration":89445,"SoundDuration":89445,"Delta":107659815},{"NoteNumber":78,"Velocity":22,"Duration":89445,"SoundDuration":89445,"Delta":107749261},{"NoteNumber":70,"Velocity":33,"Duration":179963,"SoundDuration":179963,"Delta":107838706},{"NoteNumber":76,"Velocity":26,"Duration":89982,"SoundDuration":89982,"Delta":107838706},{"NoteNumber":62,"Velocity":32,"Duration":359927,"SoundDuration":359927,"Delta":107838706},{"NoteNumber":67,"Velocity":30,"Duration":179963,"SoundDuration":179963,"Delta":107838706},{"NoteNumber":78,"Velocity":23,"Duration":89981,"SoundDuration":89981,"Delta":107928688},{"NoteNumber":71,"Velocity":30,"Duration":179963,"SoundDuration":179963,"Delta":108018670},{"NoteNumber":76,"Velocity":30,"Duration":89982,"SoundDuration":89982,"Delta":108018670},{"NoteNumber":68,"Velocity":26,"Duration":179963,"SoundDuration":179963,"Delta":108018670},{"NoteNumber":78,"Velocity":23,"Duration":89981,"SoundDuration":89981,"Delta":108108652},{"NoteNumber":76,"Velocity":26,"Duration":89982,"SoundDuration":89982,"Delta":108198634},{"NoteNumber":72,"Velocity":35,"Duration":179963,"SoundDuration":179963,"Delta":108198634},{"NoteNumber":61,"Velocity":36,"Duration":359927,"SoundDuration":359927,"Delta":108198634},{"NoteNumber":68,"Velocity":30,"Duration":179963,"SoundDuration":179963,"Delta":108198634},{"NoteNumber":78,"Velocity":23,"Duration":89981,"SoundDuration":89981,"Delta":108288616},{"NoteNumber":76,"Velocity":26,"Duration":89982,"SoundDuration":89982,"Delta":108378598},{"NoteNumber":73,"Velocity":31,"Duration":179963,"SoundDuration":179963,"Delta":108378598},{"NoteNumber":69,"Velocity":26,"Duration":179963,"SoundDuration":179963,"Delta":108378598},{"NoteNumber":78,"Velocity":23,"Duration":89981,"SoundDuration":89981,"Delta":108468580},{"NoteNumber":73,"Velocity":36,"Duration":179964,"SoundDuration":179964,"Delta":108558562},{"NoteNumber":76,"Velocity":26,"Duration":89982,"SoundDuration":89982,"Delta":108558562},{"NoteNumber":70,"Velocity":35,"Duration":179964,"SoundDuration":179964,"Delta":108558562},{"NoteNumber":56,"Velocity":32,"Duration":359928,"SoundDuration":359928,"Delta":108558562},{"NoteNumber":78,"Velocity":23,"Duration":89982,"SoundDuration":89982,"Delta":108648544},{"NoteNumber":74,"Velocity":31,"Duration":179963,"SoundDuration":179963,"Delta":108738526},{"NoteNumber":76,"Velocity":26,"Duration":89981,"SoundDuration":89981,"Delta":108738526},{"NoteNumber":71,"Velocity":29,"Duration":179963,"SoundDuration":179963,"Delta":108738526},{"NoteNumber":78,"Velocity":23,"Duration":89982,"SoundDuration":89982,"Delta":108828508},{"NoteNumber":73,"Velocity":27,"Duration":99535,"SoundDuration":99535,"Delta":108918490},{"NoteNumber":76,"Velocity":27,"Duration":99535,"SoundDuration":99535,"Delta":108918490},{"NoteNumber":64,"Velocity":36,"Duration":379035,"SoundDuration":379035,"Delta":108918490},{"NoteNumber":57,"Velocity":29,"Duration":379035,"SoundDuration":379035,"Delta":108918490},{"NoteNumber":78,"Velocity":23,"Duration":99535,"SoundDuration":99535,"Delta":109018026},{"NoteNumber":85,"Velocity":51,"Duration":89982,"SoundDuration":89982,"Delta":109117561},{"NoteNumber":76,"Velocity":23,"Duration":89982,"SoundDuration":89982,"Delta":109117561},{"NoteNumber":78,"Velocity":19,"Duration":89981,"SoundDuration":89981,"Delta":109207543},{"NoteNumber":73,"Velocity":19,"Duration":89981,"SoundDuration":89981,"Delta":109207543},{"NoteNumber":76,"Velocity":24,"Duration":89982,"SoundDuration":89982,"Delta":109297525},{"NoteNumber":83,"Velocity":51,"Duration":89982,"SoundDuration":89982,"Delta":109297525},{"NoteNumber":57,"Velocity":24,"Duration":359927,"SoundDuration":359927,"Delta":109297525},{"NoteNumber":52,"Velocity":24,"Duration":359927,"SoundDuration":359927,"Delta":109297525},{"NoteNumber":64,"Velocity":30,"Duration":359927,"SoundDuration":359927,"Delta":109297525},{"NoteNumber":78,"Velocity":19,"Duration":89981,"SoundDuration":89981,"Delta":109387507},{"NoteNumber":73,"Velocity":19,"Duration":89981,"SoundDuration":89981,"Delta":109387507},{"NoteNumber":76,"Velocity":24,"Duration":89982,"SoundDuration":89982,"Delta":109477489},{"NoteNumber":81,"Velocity":49,"Duration":89982,"SoundDuration":89982,"Delta":109477489},{"NoteNumber":73,"Velocity":20,"Duration":89981,"SoundDuration":89981,"Delta":109567471},{"NoteNumber":78,"Velocity":20,"Duration":89981,"SoundDuration":89981,"Delta":109567471},{"NoteNumber":74,"Velocity":25,"Duration":89982,"SoundDuration":89982,"Delta":109657453},{"NoteNumber":81,"Velocity":51,"Duration":89982,"SoundDuration":89982,"Delta":109657453},{"NoteNumber":64,"Velocity":30,"Duration":375149,"SoundDuration":375149,"Delta":109657453},{"NoteNumber":52,"Velocity":24,"Duration":375149,"SoundDuration":375149,"Delta":109657453},{"NoteNumber":59,"Velocity":24,"Duration":375149,"SoundDuration":375149,"Delta":109657453},{"NoteNumber":71,"Velocity":21,"Duration":89981,"SoundDuration":89981,"Delta":109747435},{"NoteNumber":76,"Velocity":21,"Duration":89981,"SoundDuration":89981,"Delta":109747435},{"NoteNumber":74,"Velocity":24,"Duration":97592,"SoundDuration":97592,"Delta":109837417},{"NoteNumber":80,"Velocity":49,"Duration":97592,"SoundDuration":97592,"Delta":109837417},{"NoteNumber":76,"Velocity":19,"Duration":97592,"SoundDuration":97592,"Delta":109935010},{"NoteNumber":71,"Velocity":19,"Duration":97592,"SoundDuration":97592,"Delta":109935010},{"NoteNumber":74,"Velocity":24,"Duration":88915,"SoundDuration":88915,"Delta":110032603},{"NoteNumber":79,"Velocity":51,"Duration":88915,"SoundDuration":88915,"Delta":110032603},{"NoteNumber":56,"Velocity":24,"Duration":356721,"SoundDuration":356721,"Delta":110032603},{"NoteNumber":64,"Velocity":30,"Duration":356721,"SoundDuration":356721,"Delta":110032603},{"NoteNumber":71,"Velocity":18,"Duration":88915,"SoundDuration":88915,"Delta":110121518},{"NoteNumber":78,"Velocity":32,"Duration":88915,"SoundDuration":88915,"Delta":110121518},{"NoteNumber":77,"Velocity":51,"Duration":89445,"SoundDuration":89445,"Delta":110210433},{"NoteNumber":74,"Velocity":23,"Duration":89445,"SoundDuration":89445,"Delta":110210433},{"NoteNumber":71,"Velocity":23,"Duration":89445,"SoundDuration":89445,"Delta":110299879},{"NoteNumber":76,"Velocity":51,"Duration":89445,"SoundDuration":89445,"Delta":110389324},{"NoteNumber":73,"Velocity":29,"Duration":89445,"SoundDuration":89445,"Delta":110389324},{"NoteNumber":64,"Velocity":30,"Duration":376649,"SoundDuration":376649,"Delta":110389324},{"NoteNumber":57,"Velocity":24,"Duration":376649,"SoundDuration":376649,"Delta":110389324},{"NoteNumber":69,"Velocity":22,"Duration":89445,"SoundDuration":89445,"Delta":110478770},{"NoteNumber":73,"Velocity":22,"Duration":98879,"SoundDuration":98879,"Delta":110568215},{"NoteNumber":80,"Velocity":22,"Duration":98879,"SoundDuration":98879,"Delta":110667095},{"NoteNumber":81,"Velocity":26,"Duration":91074,"SoundDuration":91074,"Delta":110765974},{"NoteNumber":75,"Velocity":33,"Duration":182149,"SoundDuration":182149,"Delta":110765974},{"NoteNumber":67,"Velocity":32,"Duration":364298,"SoundDuration":364298,"Delta":110765974},{"NoteNumber":72,"Velocity":30,"Duration":182149,"SoundDuration":182149,"Delta":110765974},{"NoteNumber":82,"Velocity":23,"Duration":91074,"SoundDuration":91074,"Delta":110857049},{"NoteNumber":76,"Velocity":30,"Duration":182149,"SoundDuration":182149,"Delta":110948123},{"NoteNumber":81,"Velocity":30,"Duration":91074,"SoundDuration":91074,"Delta":110948123},{"NoteNumber":73,"Velocity":26,"Duration":182149,"SoundDuration":182149,"Delta":110948123},{"NoteNumber":82,"Velocity":23,"Duration":91074,"SoundDuration":91074,"Delta":111039198},{"NoteNumber":81,"Velocity":26,"Duration":89982,"SoundDuration":89982,"Delta":111130272},{"NoteNumber":76,"Velocity":35,"Duration":179963,"SoundDuration":179963,"Delta":111130272},{"NoteNumber":73,"Velocity":30,"Duration":179963,"SoundDuration":179963,"Delta":111130272},{"NoteNumber":65,"Velocity":36,"Duration":359927,"SoundDuration":359927,"Delta":111130272},{"NoteNumber":82,"Velocity":23,"Duration":89981,"SoundDuration":89981,"Delta":111220254},{"NoteNumber":77,"Velocity":31,"Duration":179963,"SoundDuration":179963,"Delta":111310236},{"NoteNumber":81,"Velocity":26,"Duration":89982,"SoundDuration":89982,"Delta":111310236},{"NoteNumber":74,"Velocity":26,"Duration":179963,"SoundDuration":179963,"Delta":111310236},{"NoteNumber":82,"Velocity":23,"Duration":89981,"SoundDuration":89981,"Delta":111400218},{"NoteNumber":81,"Velocity":26,"Duration":89982,"SoundDuration":89982,"Delta":111490200},{"NoteNumber":78,"Velocity":36,"Duration":179963,"SoundDuration":179963,"Delta":111490200},{"NoteNumber":61,"Velocity":32,"Duration":359927,"SoundDuration":359927,"Delta":111490200},{"NoteNumber":75,"Velocity":35,"Duration":179963,"SoundDuration":179963,"Delta":111490200},{"NoteNumber":82,"Velocity":23,"Duration":89981,"SoundDuration":89981,"Delta":111580182},{"NoteNumber":79,"Velocity":31,"Duration":179963,"SoundDuration":179963,"Delta":111670164},{"NoteNumber":81,"Velocity":26,"Duration":89982,"SoundDuration":89982,"Delta":111670164},{"NoteNumber":76,"Velocity":29,"Duration":179963,"SoundDuration":179963,"Delta":111670164},{"NoteNumber":82,"Velocity":23,"Duration":89981,"SoundDuration":89981,"Delta":111760146},{"NoteNumber":81,"Velocity":27,"Duration":99535,"SoundDuration":99535,"Delta":111850128},{"NoteNumber":77,"Velocity":27,"Duration":99535,"SoundDuration":99535,"Delta":111850128},{"NoteNumber":62,"Velocity":29,"Duration":377961,"SoundDuration":377961,"Delta":111850128},{"NoteNumber":69,"Velocity":36,"Duration":377961,"SoundDuration":377961,"Delta":111850128},{"NoteNumber":82,"Velocity":23,"Duration":99535,"SoundDuration":99535,"Delta":111949664},{"NoteNumber":89,"Velocity":56,"Duration":89445,"SoundDuration":89445,"Delta":112049199},{"NoteNumber":81,"Velocity":23,"Duration":89445,"SoundDuration":89445,"Delta":112049199},{"NoteNumber":82,"Velocity":19,"Duration":89445,"SoundDuration":89445,"Delta":112138645},{"NoteNumber":77,"Velocity":19,"Duration":89445,"SoundDuration":89445,"Delta":112138645},{"NoteNumber":88,"Velocity":56,"Duration":89445,"SoundDuration":89445,"Delta":112228090},{"NoteNumber":81,"Velocity":24,"Duration":89445,"SoundDuration":89445,"Delta":112228090},{"NoteNumber":57,"Velocity":24,"Duration":357782,"SoundDuration":357782,"Delta":112228090},{"NoteNumber":69,"Velocity":30,"Duration":357782,"SoundDuration":357782,"Delta":112228090},{"NoteNumber":62,"Velocity":24,"Duration":357782,"SoundDuration":357782,"Delta":112228090},{"NoteNumber":77,"Velocity":19,"Duration":89445,"SoundDuration":89445,"Delta":112317536},{"NoteNumber":82,"Velocity":19,"Duration":89445,"SoundDuration":89445,"Delta":112317536},{"NoteNumber":81,"Velocity":24,"Duration":89445,"SoundDuration":89445,"Delta":112406981},{"NoteNumber":86,"Velocity":52,"Duration":89445,"SoundDuration":89445,"Delta":112406981},{"NoteNumber":82,"Velocity":24,"Duration":89445,"SoundDuration":89445,"Delta":112496427},{"NoteNumber":77,"Velocity":20,"Duration":89445,"SoundDuration":89445,"Delta":112496427},{"NoteNumber":86,"Velocity":56,"Duration":89982,"SoundDuration":89982,"Delta":112585872},{"NoteNumber":79,"Velocity":25,"Duration":89982,"SoundDuration":89982,"Delta":112585872},{"NoteNumber":64,"Velocity":24,"Duration":375149,"SoundDuration":375149,"Delta":112585872},{"NoteNumber":57,"Velocity":24,"Duration":375149,"SoundDuration":375149,"Delta":112585872},{"NoteNumber":69,"Velocity":30,"Duration":375149,"SoundDuration":375149,"Delta":112585872},{"NoteNumber":81,"Velocity":21,"Duration":89981,"SoundDuration":89981,"Delta":112675854},{"NoteNumber":76,"Velocity":21,"Duration":89981,"SoundDuration":89981,"Delta":112675854},{"NoteNumber":85,"Velocity":52,"Duration":97592,"SoundDuration":97592,"Delta":112765836},{"NoteNumber":79,"Velocity":24,"Duration":97592,"SoundDuration":97592,"Delta":112765836},{"NoteNumber":76,"Velocity":19,"Duration":97592,"SoundDuration":97592,"Delta":112863429},{"NoteNumber":81,"Velocity":19,"Duration":97592,"SoundDuration":97592,"Delta":112863429},{"NoteNumber":79,"Velocity":24,"Duration":88915,"SoundDuration":88915,"Delta":112961022},{"NoteNumber":84,"Velocity":56,"Duration":88915,"SoundDuration":88915,"Delta":112961022},{"NoteNumber":61,"Velocity":24,"Duration":356721,"SoundDuration":356721,"Delta":112961022},{"NoteNumber":69,"Velocity":30,"Duration":714503,"SoundDuration":714503,"Delta":112961022},{"NoteNumber":83,"Velocity":46,"Duration":88915,"SoundDuration":88915,"Delta":113049937},{"NoteNumber":76,"Velocity":18,"Duration":88915,"SoundDuration":88915,"Delta":113049937},{"NoteNumber":82,"Velocity":49,"Duration":89445,"SoundDuration":89445,"Delta":113138852},{"NoteNumber":79,"Velocity":23,"Duration":89445,"SoundDuration":89445,"Delta":113138852},{"NoteNumber":76,"Velocity":19,"Duration":89445,"SoundDuration":89445,"Delta":113228298},{"NoteNumber":77,"Velocity":29,"Duration":89445,"SoundDuration":89445,"Delta":113317743},{"NoteNumber":81,"Velocity":56,"Duration":89445,"SoundDuration":89445,"Delta":113317743},{"NoteNumber":62,"Velocity":29,"Duration":357782,"SoundDuration":357782,"Delta":113317743},{"NoteNumber":74,"Velocity":22,"Duration":89445,"SoundDuration":89445,"Delta":113407189},{"NoteNumber":77,"Velocity":22,"Duration":89445,"SoundDuration":89445,"Delta":113496634},{"NoteNumber":82,"Velocity":22,"Duration":89445,"SoundDuration":89445,"Delta":113586080},{"NoteNumber":75,"Velocity":33,"Duration":179963,"SoundDuration":179963,"Delta":113675525},{"NoteNumber":81,"Velocity":26,"Duration":89982,"SoundDuration":89982,"Delta":113675525},{"NoteNumber":67,"Velocity":32,"Duration":359927,"SoundDuration":359927,"Delta":113675525},{"NoteNumber":72,"Velocity":30,"Duration":179963,"SoundDuration":179963,"Delta":113675525},{"NoteNumber":82,"Velocity":23,"Duration":89981,"SoundDuration":89981,"Delta":113765507},{"NoteNumber":81,"Velocity":30,"Duration":89982,"SoundDuration":89982,"Delta":113855489},{"NoteNumber":76,"Velocity":30,"Duration":179963,"SoundDuration":179963,"Delta":113855489},{"NoteNumber":73,"Velocity":26,"Duration":179963,"SoundDuration":179963,"Delta":113855489},{"NoteNumber":82,"Velocity":23,"Duration":89981,"SoundDuration":89981,"Delta":113945471},{"NoteNumber":76,"Velocity":35,"Duration":179963,"SoundDuration":179963,"Delta":114035453},{"NoteNumber":81,"Velocity":26,"Duration":89982,"SoundDuration":89982,"Delta":114035453},{"NoteNumber":65,"Velocity":36,"Duration":359927,"SoundDuration":359927,"Delta":114035453},{"NoteNumber":73,"Velocity":30,"Duration":179963,"SoundDuration":179963,"Delta":114035453},{"NoteNumber":82,"Velocity":23,"Duration":89981,"SoundDuration":89981,"Delta":114125435},{"NoteNumber":77,"Velocity":31,"Duration":179963,"SoundDuration":179963,"Delta":114215417},{"NoteNumber":81,"Velocity":26,"Duration":89982,"SoundDuration":89982,"Delta":114215417},{"NoteNumber":74,"Velocity":26,"Duration":179963,"SoundDuration":179963,"Delta":114215417},{"NoteNumber":82,"Velocity":23,"Duration":89981,"SoundDuration":89981,"Delta":114305399},{"NoteNumber":78,"Velocity":36,"Duration":179964,"SoundDuration":179964,"Delta":114395381},{"NoteNumber":81,"Velocity":26,"Duration":89982,"SoundDuration":89982,"Delta":114395381},{"NoteNumber":61,"Velocity":32,"Duration":359928,"SoundDuration":359928,"Delta":114395381},{"NoteNumber":75,"Velocity":35,"Duration":179964,"SoundDuration":179964,"Delta":114395381},{"NoteNumber":82,"Velocity":23,"Duration":89982,"SoundDuration":89982,"Delta":114485363},{"NoteNumber":81,"Velocity":26,"Duration":89981,"SoundDuration":89981,"Delta":114575345},{"NoteNumber":79,"Velocity":31,"Duration":179963,"SoundDuration":179963,"Delta":114575345},{"NoteNumber":76,"Velocity":29,"Duration":179963,"SoundDuration":179963,"Delta":114575345},{"NoteNumber":82,"Velocity":23,"Duration":89982,"SoundDuration":89982,"Delta":114665327},{"NoteNumber":77,"Velocity":27,"Duration":99535,"SoundDuration":99535,"Delta":114755309},{"NoteNumber":81,"Velocity":27,"Duration":99535,"SoundDuration":99535,"Delta":114755309},{"NoteNumber":69,"Velocity":36,"Duration":377961,"SoundDuration":377961,"Delta":114755309},{"NoteNumber":62,"Velocity":29,"Duration":377961,"SoundDuration":377961,"Delta":114755309},{"NoteNumber":82,"Velocity":23,"Duration":99535,"SoundDuration":99535,"Delta":114854845},{"NoteNumber":89,"Velocity":51,"Duration":89445,"SoundDuration":89445,"Delta":114954380},{"NoteNumber":81,"Velocity":23,"Duration":89445,"SoundDuration":89445,"Delta":114954380},{"NoteNumber":82,"Velocity":19,"Duration":89445,"SoundDuration":89445,"Delta":115043826},{"NoteNumber":77,"Velocity":19,"Duration":89445,"SoundDuration":89445,"Delta":115043826},{"NoteNumber":81,"Velocity":24,"Duration":89445,"SoundDuration":89445,"Delta":115133271},{"NoteNumber":88,"Velocity":51,"Duration":89445,"SoundDuration":89445,"Delta":115133271},{"NoteNumber":69,"Velocity":30,"Duration":357782,"SoundDuration":357782,"Delta":115133271},{"NoteNumber":62,"Velocity":24,"Duration":357782,"SoundDuration":357782,"Delta":115133271},{"NoteNumber":57,"Velocity":24,"Duration":357782,"SoundDuration":357782,"Delta":115133271},{"NoteNumber":82,"Velocity":19,"Duration":89445,"SoundDuration":89445,"Delta":115222717},{"NoteNumber":77,"Velocity":19,"Duration":89445,"SoundDuration":89445,"Delta":115222717},{"NoteNumber":86,"Velocity":49,"Duration":89445,"SoundDuration":89445,"Delta":115312162},{"NoteNumber":81,"Velocity":24,"Duration":89445,"SoundDuration":89445,"Delta":115312162},{"NoteNumber":82,"Velocity":20,"Duration":89445,"SoundDuration":89445,"Delta":115401608},{"NoteNumber":77,"Velocity":20,"Duration":89445,"SoundDuration":89445,"Delta":115401608},{"NoteNumber":86,"Velocity":51,"Duration":89445,"SoundDuration":89445,"Delta":115491053},{"NoteNumber":79,"Velocity":25,"Duration":89445,"SoundDuration":89445,"Delta":115491053},{"NoteNumber":69,"Velocity":30,"Duration":374076,"SoundDuration":374076,"Delta":115491053},{"NoteNumber":64,"Velocity":24,"Duration":374076,"SoundDuration":374076,"Delta":115491053},{"NoteNumber":57,"Velocity":24,"Duration":374076,"SoundDuration":374076,"Delta":115491053},{"NoteNumber":76,"Velocity":21,"Duration":89445,"SoundDuration":89445,"Delta":115580499},{"NoteNumber":81,"Velocity":21,"Duration":89445,"SoundDuration":89445,"Delta":115580499},{"NoteNumber":85,"Velocity":49,"Duration":97592,"SoundDuration":97592,"Delta":115669944},{"NoteNumber":79,"Velocity":24,"Duration":97592,"SoundDuration":97592,"Delta":115669944},{"NoteNumber":76,"Velocity":19,"Duration":97592,"SoundDuration":97592,"Delta":115767537},{"NoteNumber":81,"Velocity":23,"Duration":97592,"SoundDuration":97592,"Delta":115767537},{"NoteNumber":79,"Velocity":24,"Duration":88915,"SoundDuration":88915,"Delta":115865130},{"NoteNumber":84,"Velocity":51,"Duration":88915,"SoundDuration":88915,"Delta":115865130},{"NoteNumber":61,"Velocity":24,"Duration":356721,"SoundDuration":356721,"Delta":115865130},{"NoteNumber":69,"Velocity":30,"Duration":714503,"SoundDuration":714503,"Delta":115865130},{"NoteNumber":83,"Velocity":43,"Duration":88915,"SoundDuration":88915,"Delta":115954045},{"NoteNumber":76,"Velocity":18,"Duration":88915,"SoundDuration":88915,"Delta":115954045},{"NoteNumber":82,"Velocity":51,"Duration":89445,"SoundDuration":89445,"Delta":116042960},{"NoteNumber":79,"Velocity":23,"Duration":89445,"SoundDuration":89445,"Delta":116042960},{"NoteNumber":76,"Velocity":19,"Duration":89445,"SoundDuration":89445,"Delta":116132406},{"NoteNumber":77,"Velocity":29,"Duration":89445,"SoundDuration":89445,"Delta":116221851},{"NoteNumber":81,"Velocity":51,"Duration":89445,"SoundDuration":89445,"Delta":116221851},{"NoteNumber":62,"Velocity":29,"Duration":357782,"SoundDuration":357782,"Delta":116221851},{"NoteNumber":74,"Velocity":22,"Duration":89445,"SoundDuration":89445,"Delta":116311297},{"NoteNumber":77,"Velocity":22,"Duration":89445,"SoundDuration":89445,"Delta":116400742},{"NoteNumber":86,"Velocity":22,"Duration":89445,"SoundDuration":89445,"Delta":116490188},{"NoteNumber":89,"Velocity":45,"Duration":183261,"SoundDuration":183261,"Delta":116579633},{"NoteNumber":77,"Velocity":37,"Duration":91631,"SoundDuration":91631,"Delta":116579633},{"NoteNumber":60,"Velocity":36,"Duration":366523,"SoundDuration":366523,"Delta":116579633},{"NoteNumber":45,"Velocity":30,"Duration":366523,"SoundDuration":366523,"Delta":116579633},{"NoteNumber":86,"Velocity":36,"Duration":91630,"SoundDuration":91630,"Delta":116671264},{"NoteNumber":84,"Velocity":29,"Duration":91630,"SoundDuration":91630,"Delta":116671264},{"NoteNumber":89,"Velocity":38,"Duration":91631,"SoundDuration":91631,"Delta":116762895},{"NoteNumber":77,"Velocity":31,"Duration":91631,"SoundDuration":91631,"Delta":116762895},{"NoteNumber":84,"Velocity":29,"Duration":91630,"SoundDuration":91630,"Delta":116854526},{"NoteNumber":87,"Velocity":36,"Duration":91630,"SoundDuration":91630,"Delta":116854526},{"NoteNumber":87,"Velocity":48,"Duration":183261,"SoundDuration":183261,"Delta":116946157},{"NoteNumber":77,"Velocity":39,"Duration":91631,"SoundDuration":91631,"Delta":116946157},{"NoteNumber":46,"Velocity":24,"Duration":183261,"SoundDuration":183261,"Delta":116946157},{"NoteNumber":62,"Velocity":29,"Duration":183261,"SoundDuration":183261,"Delta":116946157},{"NoteNumber":85,"Velocity":35,"Duration":91630,"SoundDuration":91630,"Delta":117037788},{"NoteNumber":82,"Velocity":28,"Duration":91630,"SoundDuration":91630,"Delta":117037788},{"NoteNumber":87,"Velocity":38,"Duration":91631,"SoundDuration":91631,"Delta":117129419},{"NoteNumber":77,"Velocity":31,"Duration":91631,"SoundDuration":91631,"Delta":117129419},{"NoteNumber":82,"Velocity":29,"Duration":91630,"SoundDuration":91630,"Delta":117221050},{"NoteNumber":86,"Velocity":36,"Duration":91630,"SoundDuration":91630,"Delta":117221050},{"NoteNumber":86,"Velocity":45,"Duration":183261,"SoundDuration":183261,"Delta":117312681},{"NoteNumber":75,"Velocity":45,"Duration":91631,"SoundDuration":91631,"Delta":117312681},{"NoteNumber":48,"Velocity":28,"Duration":382266,"SoundDuration":382266,"Delta":117312681},{"NoteNumber":63,"Velocity":35,"Duration":382266,"SoundDuration":382266,"Delta":117312681},{"NoteNumber":83,"Velocity":33,"Duration":91630,"SoundDuration":91630,"Delta":117404312},{"NoteNumber":81,"Velocity":27,"Duration":91630,"SoundDuration":91630,"Delta":117404312},{"NoteNumber":75,"Velocity":31,"Duration":91631,"SoundDuration":91631,"Delta":117495943},{"NoteNumber":86,"Velocity":38,"Duration":91631,"SoundDuration":91631,"Delta":117495943},{"NoteNumber":81,"Velocity":35,"Duration":107372,"SoundDuration":107372,"Delta":117587574},{"NoteNumber":84,"Velocity":35,"Duration":107372,"SoundDuration":107372,"Delta":117587574},{"NoteNumber":84,"Velocity":45,"Duration":185528,"SoundDuration":185528,"Delta":117694947},{"NoteNumber":74,"Velocity":37,"Duration":92764,"SoundDuration":92764,"Delta":117694947},{"NoteNumber":65,"Velocity":25,"Duration":185528,"SoundDuration":185528,"Delta":117694947},{"NoteNumber":50,"Velocity":20,"Duration":185528,"SoundDuration":185528,"Delta":117694947},{"NoteNumber":77,"Velocity":27,"Duration":92764,"SoundDuration":92764,"Delta":117787712},{"NoteNumber":81,"Velocity":33,"Duration":92764,"SoundDuration":92764,"Delta":117787712},{"NoteNumber":84,"Velocity":38,"Duration":92764,"SoundDuration":92764,"Delta":117880476},{"NoteNumber":74,"Velocity":31,"Duration":92764,"SoundDuration":92764,"Delta":117880476},{"NoteNumber":77,"Velocity":35,"Duration":107142,"SoundDuration":107142,"Delta":117973241},{"NoteNumber":82,"Velocity":35,"Duration":107142,"SoundDuration":107142,"Delta":117973241},{"NoteNumber":72,"Velocity":35,"Duration":93926,"SoundDuration":93926,"Delta":118080383},{"NoteNumber":83,"Velocity":42,"Duration":187852,"SoundDuration":187852,"Delta":118080383},{"NoteNumber":66,"Velocity":31,"Duration":387412,"SoundDuration":387412,"Delta":118080383},{"NoteNumber":51,"Velocity":26,"Duration":387412,"SoundDuration":387412,"Delta":118080383},{"NoteNumber":80,"Velocity":33,"Duration":93926,"SoundDuration":93926,"Delta":118174310},{"NoteNumber":78,"Velocity":33,"Duration":93926,"SoundDuration":93926,"Delta":118174310},{"NoteNumber":72,"Velocity":29,"Duration":93926,"SoundDuration":93926,"Delta":118268236},{"NoteNumber":83,"Velocity":36,"Duration":93926,"SoundDuration":93926,"Delta":118268236},{"NoteNumber":78,"Velocity":32,"Duration":105633,"SoundDuration":105633,"Delta":118362162},{"NoteNumber":81,"Velocity":32,"Duration":105633,"SoundDuration":105633,"Delta":118362162},{"NoteNumber":81,"Velocity":41,"Duration":189036,"SoundDuration":189036,"Delta":118467796},{"NoteNumber":71,"Velocity":35,"Duration":94517,"SoundDuration":94517,"Delta":118467796},{"NoteNumber":68,"Velocity":25,"Duration":189036,"SoundDuration":189036,"Delta":118467796},{"NoteNumber":52,"Velocity":21,"Duration":189036,"SoundDuration":189036,"Delta":118467796},{"NoteNumber":79,"Velocity":32,"Duration":94518,"SoundDuration":94518,"Delta":118562314},{"NoteNumber":76,"Velocity":27,"Duration":94518,"SoundDuration":94518,"Delta":118562314},{"NoteNumber":71,"Velocity":29,"Duration":94517,"SoundDuration":94517,"Delta":118656832},{"NoteNumber":81,"Velocity":36,"Duration":94517,"SoundDuration":94517,"Delta":118656832},{"NoteNumber":80,"Velocity":31,"Duration":108695,"SoundDuration":108695,"Delta":118751350},{"NoteNumber":76,"Velocity":26,"Duration":108695,"SoundDuration":108695,"Delta":118751350},{"NoteNumber":69,"Velocity":35,"Duration":95724,"SoundDuration":95724,"Delta":118860045},{"NoteNumber":80,"Velocity":41,"Duration":191448,"SoundDuration":191448,"Delta":118860045},{"NoteNumber":54,"Velocity":22,"Duration":392068,"SoundDuration":392068,"Delta":118860045},{"NoteNumber":63,"Velocity":27,"Duration":191448,"SoundDuration":191448,"Delta":118860045},{"NoteNumber":77,"Velocity":31,"Duration":95724,"SoundDuration":95724,"Delta":118955770},{"NoteNumber":75,"Velocity":26,"Duration":95724,"SoundDuration":95724,"Delta":118955770},{"NoteNumber":69,"Velocity":29,"Duration":95724,"SoundDuration":95724,"Delta":119051494},{"NoteNumber":80,"Velocity":36,"Duration":95724,"SoundDuration":95724,"Delta":119051494},{"NoteNumber":60,"Velocity":23,"Duration":200619,"SoundDuration":200619,"Delta":119051494},{"NoteNumber":78,"Velocity":31,"Duration":104895,"SoundDuration":104895,"Delta":119147218},{"NoteNumber":75,"Velocity":26,"Duration":104895,"SoundDuration":104895,"Delta":119147218},{"NoteNumber":78,"Velocity":38,"Duration":194805,"SoundDuration":194805,"Delta":119252113},{"NoteNumber":68,"Velocity":32,"Duration":97402,"SoundDuration":97402,"Delta":119252113},{"NoteNumber":56,"Velocity":24,"Duration":394947,"SoundDuration":394947,"Delta":119252113},{"NoteNumber":64,"Velocity":29,"Duration":97402,"SoundDuration":97402,"Delta":119252113},{"NoteNumber":75,"Velocity":29,"Duration":97402,"SoundDuration":97402,"Delta":119349516},{"NoteNumber":71,"Velocity":24,"Duration":97402,"SoundDuration":97402,"Delta":119349516},{"NoteNumber":68,"Velocity":29,"Duration":97402,"SoundDuration":97402,"Delta":119446919},{"NoteNumber":78,"Velocity":36,"Duration":97402,"SoundDuration":97402,"Delta":119446919},{"NoteNumber":59,"Velocity":25,"Duration":97402,"SoundDuration":97402,"Delta":119446919},{"NoteNumber":76,"Velocity":30,"Duration":102739,"SoundDuration":102739,"Delta":119544321},{"NoteNumber":71,"Velocity":25,"Duration":102739,"SoundDuration":102739,"Delta":119544321},{"NoteNumber":72,"Velocity":28,"Duration":194805,"SoundDuration":194805,"Delta":119647061},{"NoteNumber":76,"Velocity":33,"Duration":97402,"SoundDuration":97402,"Delta":119647061},{"NoteNumber":57,"Velocity":29,"Duration":398590,"SoundDuration":398590,"Delta":119647061},{"NoteNumber":66,"Velocity":29,"Duration":97402,"SoundDuration":97402,"Delta":119647061},{"NoteNumber":74,"Velocity":28,"Duration":97402,"SoundDuration":97402,"Delta":119744464},{"NoteNumber":76,"Velocity":33,"Duration":97402,"SoundDuration":97402,"Delta":119841866},{"NoteNumber":69,"Velocity":28,"Duration":203785,"SoundDuration":203785,"Delta":119841866},{"NoteNumber":60,"Velocity":24,"Duration":97402,"SoundDuration":97402,"Delta":119841866},{"NoteNumber":75,"Velocity":28,"Duration":106382,"SoundDuration":106382,"Delta":119939269},{"NoteNumber":74,"Velocity":26,"Duration":194805,"SoundDuration":194805,"Delta":120045652},{"NoteNumber":78,"Velocity":31,"Duration":97402,"SoundDuration":97402,"Delta":120045652},{"NoteNumber":59,"Velocity":24,"Duration":389610,"SoundDuration":389610,"Delta":120045652},{"NoteNumber":68,"Velocity":29,"Duration":97402,"SoundDuration":97402,"Delta":120045652},{"NoteNumber":75,"Velocity":27,"Duration":97402,"SoundDuration":97402,"Delta":120143055},{"NoteNumber":71,"Velocity":27,"Duration":194805,"SoundDuration":194805,"Delta":120240457},{"NoteNumber":78,"Velocity":32,"Duration":97402,"SoundDuration":97402,"Delta":120240457},{"NoteNumber":62,"Velocity":24,"Duration":97402,"SoundDuration":97402,"Delta":120240457},{"NoteNumber":76,"Velocity":25,"Duration":97402,"SoundDuration":97402,"Delta":120337860},{"NoteNumber":76,"Velocity":30,"Duration":97402,"SoundDuration":97402,"Delta":120435262},{"NoteNumber":69,"Velocity":25,"Duration":97402,"SoundDuration":97402,"Delta":120435262},{"NoteNumber":66,"Velocity":29,"Duration":97402,"SoundDuration":97402,"Delta":120435262},{"NoteNumber":60,"Velocity":24,"Duration":97402,"SoundDuration":97402,"Delta":120435262},{"NoteNumber":74,"Velocity":26,"Duration":97402,"SoundDuration":97402,"Delta":120532665},{"NoteNumber":76,"Velocity":31,"Duration":97402,"SoundDuration":97402,"Delta":120630068},{"NoteNumber":75,"Velocity":26,"Duration":105633,"SoundDuration":105633,"Delta":120727470},{"NoteNumber":78,"Velocity":32,"Duration":99535,"SoundDuration":99535,"Delta":120833104},{"NoteNumber":71,"Velocity":27,"Duration":99535,"SoundDuration":99535,"Delta":120833104},{"NoteNumber":62,"Velocity":24,"Duration":99535,"SoundDuration":99535,"Delta":120833104},{"NoteNumber":68,"Velocity":29,"Duration":99535,"SoundDuration":99535,"Delta":120833104},{"NoteNumber":76,"Velocity":28,"Duration":99535,"SoundDuration":99535,"Delta":120932640},{"NoteNumber":78,"Velocity":31,"Duration":99535,"SoundDuration":99535,"Delta":121032175},{"NoteNumber":77,"Velocity":28,"Duration":99535,"SoundDuration":99535,"Delta":121131711},{"NoteNumber":76,"Velocity":33,"Duration":93926,"SoundDuration":93926,"Delta":121231246},{"NoteNumber":71,"Velocity":43,"Duration":93926,"SoundDuration":93926,"Delta":121231246},{"NoteNumber":68,"Velocity":37,"Duration":93926,"SoundDuration":93926,"Delta":121231246},{"NoteNumber":78,"Velocity":30,"Duration":93926,"SoundDuration":93926,"Delta":121325172},{"NoteNumber":76,"Velocity":33,"Duration":93926,"SoundDuration":93926,"Delta":121419098},{"NoteNumber":62,"Velocity":32,"Duration":93926,"SoundDuration":93926,"Delta":121419098},{"NoteNumber":90,"Velocity":39,"Duration":93926,"SoundDuration":93926,"Delta":121513024},{"NoteNumber":88,"Velocity":39,"Duration":91631,"SoundDuration":91631,"Delta":121606951},{"NoteNumber":69,"Velocity":41,"Duration":91631,"SoundDuration":91631,"Delta":121606951},{"NoteNumber":73,"Velocity":46,"Duration":91631,"SoundDuration":91631,"Delta":121606951},{"NoteNumber":78,"Velocity":33,"Duration":91630,"SoundDuration":91630,"Delta":121698582},{"NoteNumber":76,"Velocity":33,"Duration":91631,"SoundDuration":91631,"Delta":121790213},{"NoteNumber":61,"Velocity":31,"Duration":91631,"SoundDuration":91631,"Delta":121790213},{"NoteNumber":66,"Velocity":30,"Duration":91630,"SoundDuration":91630,"Delta":121881844},{"NoteNumber":64,"Velocity":33,"Duration":87361,"SoundDuration":87361,"Delta":121973475},{"NoteNumber":74,"Velocity":46,"Duration":87361,"SoundDuration":87361,"Delta":121973475},{"NoteNumber":68,"Velocity":41,"Duration":87361,"SoundDuration":87361,"Delta":121973475},{"NoteNumber":66,"Velocity":29,"Duration":87361,"SoundDuration":87361,"Delta":122060836},{"NoteNumber":64,"Velocity":33,"Duration":87361,"SoundDuration":87361,"Delta":122148198},{"NoteNumber":59,"Velocity":32,"Duration":87361,"SoundDuration":87361,"Delta":122148198},{"NoteNumber":78,"Velocity":32,"Duration":87361,"SoundDuration":87361,"Delta":122235559},{"NoteNumber":57,"Velocity":38,"Duration":421642,"SoundDuration":421642,"Delta":122279240},{"NoteNumber":76,"Velocity":27,"Duration":99535,"SoundDuration":99535,"Delta":122322921},{"NoteNumber":73,"Velocity":43,"Duration":199071,"SoundDuration":199071,"Delta":122322921},{"NoteNumber":78,"Velocity":23,"Duration":99535,"SoundDuration":99535,"Delta":122422457},{"NoteNumber":73,"Velocity":23,"Duration":278426,"SoundDuration":278426,"Delta":122422457},{"NoteNumber":63,"Velocity":36,"Duration":49767,"SoundDuration":49767,"Delta":122472224},{"NoteNumber":85,"Velocity":51,"Duration":89445,"SoundDuration":89445,"Delta":122521992},{"NoteNumber":76,"Velocity":28,"Duration":89445,"SoundDuration":89445,"Delta":122521992},{"NoteNumber":64,"Velocity":48,"Duration":89445,"SoundDuration":89445,"Delta":122521992},{"NoteNumber":73,"Velocity":23,"Duration":89445,"SoundDuration":89445,"Delta":122611438},{"NoteNumber":78,"Velocity":23,"Duration":89445,"SoundDuration":89445,"Delta":122611438},{"NoteNumber":83,"Velocity":51,"Duration":89445,"SoundDuration":89445,"Delta":122700883},{"NoteNumber":76,"Velocity":29,"Duration":89445,"SoundDuration":89445,"Delta":122700883},{"NoteNumber":49,"Velocity":37,"Duration":89445,"SoundDuration":89445,"Delta":122700883},{"NoteNumber":73,"Velocity":23,"Duration":89445,"SoundDuration":89445,"Delta":122790329},{"NoteNumber":78,"Velocity":23,"Duration":89445,"SoundDuration":89445,"Delta":122790329},{"NoteNumber":66,"Velocity":32,"Duration":44722,"SoundDuration":44722,"Delta":122835051},{"NoteNumber":81,"Velocity":49,"Duration":89445,"SoundDuration":89445,"Delta":122879774},{"NoteNumber":76,"Velocity":29,"Duration":89445,"SoundDuration":89445,"Delta":122879774},{"NoteNumber":64,"Velocity":45,"Duration":89445,"SoundDuration":89445,"Delta":122879774},{"NoteNumber":73,"Velocity":24,"Duration":89445,"SoundDuration":89445,"Delta":122969220},{"NoteNumber":78,"Velocity":24,"Duration":89445,"SoundDuration":89445,"Delta":122969220},{"NoteNumber":81,"Velocity":51,"Duration":89982,"SoundDuration":89982,"Delta":123058665},{"NoteNumber":74,"Velocity":30,"Duration":89982,"SoundDuration":89982,"Delta":123058665},{"NoteNumber":40,"Velocity":38,"Duration":89982,"SoundDuration":89982,"Delta":123058665},{"NoteNumber":71,"Velocity":25,"Duration":89981,"SoundDuration":89981,"Delta":123148647},{"NoteNumber":76,"Velocity":25,"Duration":89981,"SoundDuration":89981,"Delta":123148647},{"NoteNumber":63,"Velocity":26,"Duration":44990,"SoundDuration":44990,"Delta":123193638},{"NoteNumber":74,"Velocity":29,"Duration":97592,"SoundDuration":97592,"Delta":123238629},{"NoteNumber":80,"Velocity":42,"Duration":97592,"SoundDuration":97592,"Delta":123238629},{"NoteNumber":64,"Velocity":42,"Duration":97592,"SoundDuration":97592,"Delta":123238629},{"NoteNumber":71,"Velocity":23,"Duration":97592,"SoundDuration":97592,"Delta":123336222},{"NoteNumber":76,"Velocity":23,"Duration":97592,"SoundDuration":97592,"Delta":123336222},{"NoteNumber":79,"Velocity":45,"Duration":88915,"SoundDuration":88915,"Delta":123433815},{"NoteNumber":74,"Velocity":29,"Duration":88915,"SoundDuration":88915,"Delta":123433815},{"NoteNumber":44,"Velocity":37,"Duration":88915,"SoundDuration":88915,"Delta":123433815},{"NoteNumber":71,"Velocity":22,"Duration":88915,"SoundDuration":88915,"Delta":123522730},{"NoteNumber":78,"Velocity":41,"Duration":88915,"SoundDuration":88915,"Delta":123522730},{"NoteNumber":65,"Velocity":31,"Duration":44457,"SoundDuration":44457,"Delta":123567187},{"NoteNumber":77,"Velocity":51,"Duration":89445,"SoundDuration":89445,"Delta":123611645},{"NoteNumber":74,"Velocity":28,"Duration":89445,"SoundDuration":89445,"Delta":123611645},{"NoteNumber":64,"Velocity":42,"Duration":89445,"SoundDuration":89445,"Delta":123611645},{"NoteNumber":71,"Velocity":23,"Duration":89445,"SoundDuration":89445,"Delta":123701091},{"NoteNumber":76,"Velocity":51,"Duration":89445,"SoundDuration":89445,"Delta":123790536},{"NoteNumber":73,"Velocity":29,"Duration":89445,"SoundDuration":89445,"Delta":123790536},{"NoteNumber":45,"Velocity":39,"Duration":89445,"SoundDuration":89445,"Delta":123790536},{"NoteNumber":69,"Velocity":22,"Duration":89445,"SoundDuration":89445,"Delta":123879982},{"NoteNumber":63,"Velocity":26,"Duration":44722,"SoundDuration":44722,"Delta":123924704},{"NoteNumber":73,"Velocity":22,"Duration":89445,"SoundDuration":89445,"Delta":123969427},{"NoteNumber":64,"Velocity":43,"Duration":89445,"SoundDuration":89445,"Delta":123969427},{"NoteNumber":78,"Velocity":22,"Duration":89445,"SoundDuration":89445,"Delta":124058873},{"NoteNumber":76,"Velocity":33,"Duration":91631,"SoundDuration":91631,"Delta":124148318},{"NoteNumber":71,"Velocity":43,"Duration":91631,"SoundDuration":91631,"Delta":124148318},{"NoteNumber":68,"Velocity":37,"Duration":91631,"SoundDuration":91631,"Delta":124148318},{"NoteNumber":78,"Velocity":30,"Duration":91630,"SoundDuration":91630,"Delta":124239949},{"NoteNumber":76,"Velocity":33,"Duration":91631,"SoundDuration":91631,"Delta":124331580},{"NoteNumber":62,"Velocity":32,"Duration":91631,"SoundDuration":91631,"Delta":124331580},{"NoteNumber":90,"Velocity":39,"Duration":91630,"SoundDuration":91630,"Delta":124423211},{"NoteNumber":88,"Velocity":39,"Duration":89445,"SoundDuration":89445,"Delta":124514842},{"NoteNumber":73,"Velocity":46,"Duration":89445,"SoundDuration":89445,"Delta":124514842},{"NoteNumber":69,"Velocity":41,"Duration":89445,"SoundDuration":89445,"Delta":124514842},{"NoteNumber":78,"Velocity":33,"Duration":89445,"SoundDuration":89445,"Delta":124604288},{"NoteNumber":76,"Velocity":30,"Duration":89445,"SoundDuration":89445,"Delta":124693733},{"NoteNumber":61,"Velocity":31,"Duration":89445,"SoundDuration":89445,"Delta":124693733},{"NoteNumber":66,"Velocity":33,"Duration":89445,"SoundDuration":89445,"Delta":124783179},{"NoteNumber":64,"Velocity":30,"Duration":168899,"SoundDuration":168899,"Delta":124872624},{"NoteNumber":74,"Velocity":46,"Duration":87361,"SoundDuration":87361,"Delta":124872624},{"NoteNumber":68,"Velocity":41,"Duration":87361,"SoundDuration":87361,"Delta":124872624},{"NoteNumber":66,"Velocity":33,"Duration":87361,"SoundDuration":87361,"Delta":124959986},{"NoteNumber":64,"Velocity":30,"Duration":87361,"SoundDuration":87361,"Delta":125047347},{"NoteNumber":59,"Velocity":32,"Duration":87361,"SoundDuration":87361,"Delta":125047347},{"NoteNumber":78,"Velocity":33,"Duration":87361,"SoundDuration":87361,"Delta":125134709},{"NoteNumber":57,"Velocity":37,"Duration":421955,"SoundDuration":421955,"Delta":125191494},{"NoteNumber":76,"Velocity":27,"Duration":99535,"SoundDuration":99535,"Delta":125222071},{"NoteNumber":73,"Velocity":43,"Duration":199071,"SoundDuration":199071,"Delta":125222071},{"NoteNumber":78,"Velocity":23,"Duration":99535,"SoundDuration":99535,"Delta":125321606},{"NoteNumber":73,"Velocity":23,"Duration":278426,"SoundDuration":278426,"Delta":125321606},{"NoteNumber":63,"Velocity":36,"Duration":49767,"SoundDuration":49767,"Delta":125371374},{"NoteNumber":85,"Velocity":51,"Duration":89445,"SoundDuration":89445,"Delta":125421142},{"NoteNumber":76,"Velocity":28,"Duration":89445,"SoundDuration":89445,"Delta":125421142},{"NoteNumber":64,"Velocity":48,"Duration":89445,"SoundDuration":89445,"Delta":125421142},{"NoteNumber":78,"Velocity":23,"Duration":89445,"SoundDuration":89445,"Delta":125510587},{"NoteNumber":73,"Velocity":23,"Duration":89445,"SoundDuration":89445,"Delta":125510587},{"NoteNumber":76,"Velocity":29,"Duration":89445,"SoundDuration":89445,"Delta":125600033},{"NoteNumber":83,"Velocity":51,"Duration":89445,"SoundDuration":89445,"Delta":125600033},{"NoteNumber":49,"Velocity":37,"Duration":89445,"SoundDuration":89445,"Delta":125600033},{"NoteNumber":78,"Velocity":23,"Duration":89445,"SoundDuration":89445,"Delta":125689478},{"NoteNumber":73,"Velocity":23,"Duration":89445,"SoundDuration":89445,"Delta":125689478},{"NoteNumber":66,"Velocity":32,"Duration":44722,"SoundDuration":44722,"Delta":125734201},{"NoteNumber":76,"Velocity":29,"Duration":89445,"SoundDuration":89445,"Delta":125778924},{"NoteNumber":81,"Velocity":48,"Duration":89445,"SoundDuration":89445,"Delta":125778924},{"NoteNumber":64,"Velocity":45,"Duration":89445,"SoundDuration":89445,"Delta":125778924},{"NoteNumber":78,"Velocity":24,"Duration":89445,"SoundDuration":89445,"Delta":125868369},{"NoteNumber":73,"Velocity":24,"Duration":89445,"SoundDuration":89445,"Delta":125868369},{"NoteNumber":81,"Velocity":51,"Duration":89982,"SoundDuration":89982,"Delta":125957815},{"NoteNumber":74,"Velocity":30,"Duration":89982,"SoundDuration":89982,"Delta":125957815},{"NoteNumber":40,"Velocity":38,"Duration":89982,"SoundDuration":89982,"Delta":125957815},{"NoteNumber":71,"Velocity":25,"Duration":89981,"SoundDuration":89981,"Delta":126047797},{"NoteNumber":76,"Velocity":25,"Duration":89981,"SoundDuration":89981,"Delta":126047797},{"NoteNumber":63,"Velocity":26,"Duration":44990,"SoundDuration":44990,"Delta":126092788},{"NoteNumber":74,"Velocity":29,"Duration":97592,"SoundDuration":97592,"Delta":126137779},{"NoteNumber":80,"Velocity":48,"Duration":97592,"SoundDuration":97592,"Delta":126137779},{"NoteNumber":64,"Velocity":42,"Duration":97592,"SoundDuration":97592,"Delta":126137779},{"NoteNumber":76,"Velocity":23,"Duration":97592,"SoundDuration":97592,"Delta":126235371},{"NoteNumber":71,"Velocity":23,"Duration":97592,"SoundDuration":97592,"Delta":126235371},{"NoteNumber":74,"Velocity":29,"Duration":88915,"SoundDuration":88915,"Delta":126332964},{"NoteNumber":79,"Velocity":51,"Duration":88915,"SoundDuration":88915,"Delta":126332964},{"NoteNumber":44,"Velocity":37,"Duration":88915,"SoundDuration":88915,"Delta":126332964},{"NoteNumber":78,"Velocity":38,"Duration":88915,"SoundDuration":88915,"Delta":126421879},{"NoteNumber":71,"Velocity":22,"Duration":88915,"SoundDuration":88915,"Delta":126421879},{"NoteNumber":65,"Velocity":31,"Duration":44457,"SoundDuration":44457,"Delta":126466337},{"NoteNumber":77,"Velocity":51,"Duration":89445,"SoundDuration":89445,"Delta":126510795},{"NoteNumber":74,"Velocity":28,"Duration":89445,"SoundDuration":89445,"Delta":126510795},{"NoteNumber":64,"Velocity":42,"Duration":89445,"SoundDuration":89445,"Delta":126510795},{"NoteNumber":71,"Velocity":23,"Duration":89445,"SoundDuration":89445,"Delta":126600240},{"NoteNumber":76,"Velocity":51,"Duration":89445,"SoundDuration":89445,"Delta":126689686},{"NoteNumber":73,"Velocity":29,"Duration":89445,"SoundDuration":89445,"Delta":126689686},{"NoteNumber":45,"Velocity":39,"Duration":89445,"SoundDuration":89445,"Delta":126689686},{"NoteNumber":69,"Velocity":22,"Duration":89445,"SoundDuration":89445,"Delta":126779131},{"NoteNumber":63,"Velocity":26,"Duration":44722,"SoundDuration":44722,"Delta":126823854},{"NoteNumber":73,"Velocity":22,"Duration":89445,"SoundDuration":89445,"Delta":126868577},{"NoteNumber":64,"Velocity":43,"Duration":89445,"SoundDuration":89445,"Delta":126868577},{"NoteNumber":80,"Velocity":25,"Duration":89445,"SoundDuration":89445,"Delta":126958022},{"NoteNumber":81,"Velocity":33,"Duration":93341,"SoundDuration":93341,"Delta":127047468},{"NoteNumber":73,"Velocity":37,"Duration":93341,"SoundDuration":93341,"Delta":127047468},{"NoteNumber":76,"Velocity":43,"Duration":93341,"SoundDuration":93341,"Delta":127047468},{"NoteNumber":82,"Velocity":30,"Duration":93341,"SoundDuration":93341,"Delta":127140809},{"NoteNumber":81,"Velocity":33,"Duration":93341,"SoundDuration":93341,"Delta":127234151},{"NoteNumber":67,"Velocity":32,"Duration":93341,"SoundDuration":93341,"Delta":127234151},{"NoteNumber":94,"Velocity":38,"Duration":93341,"SoundDuration":93341,"Delta":127327492},{"NoteNumber":93,"Velocity":38,"Duration":90524,"SoundDuration":90524,"Delta":127420834},{"NoteNumber":77,"Velocity":46,"Duration":90524,"SoundDuration":90524,"Delta":127420834},{"NoteNumber":74,"Velocity":41,"Duration":90524,"SoundDuration":90524,"Delta":127420834},{"NoteNumber":82,"Velocity":33,"Duration":90524,"SoundDuration":90524,"Delta":127511359},{"NoteNumber":81,"Velocity":31,"Duration":90524,"SoundDuration":90524,"Delta":127601884},{"NoteNumber":65,"Velocity":31,"Duration":90524,"SoundDuration":90524,"Delta":127601884},{"NoteNumber":70,"Velocity":33,"Duration":90524,"SoundDuration":90524,"Delta":127692409},{"NoteNumber":69,"Velocity":30,"Duration":173506,"SoundDuration":173506,"Delta":127782934},{"NoteNumber":73,"Velocity":41,"Duration":90525,"SoundDuration":90525,"Delta":127782934},{"NoteNumber":79,"Velocity":46,"Duration":90525,"SoundDuration":90525,"Delta":127782934},{"NoteNumber":70,"Velocity":33,"Duration":90524,"SoundDuration":90524,"Delta":127873459},{"NoteNumber":69,"Velocity":31,"Duration":90525,"SoundDuration":90525,"Delta":127963984},{"NoteNumber":64,"Velocity":32,"Duration":90525,"SoundDuration":90525,"Delta":127963984},{"NoteNumber":82,"Velocity":33,"Duration":90524,"SoundDuration":90524,"Delta":128054509},{"NoteNumber":81,"Velocity":27,"Duration":96531,"SoundDuration":96531,"Delta":128145034},{"NoteNumber":62,"Velocity":43,"Duration":377117,"SoundDuration":377117,"Delta":128145034},{"NoteNumber":77,"Velocity":43,"Duration":196067,"SoundDuration":196067,"Delta":128145034},{"NoteNumber":77,"Velocity":23,"Duration":280585,"SoundDuration":280585,"Delta":128241566},{"NoteNumber":82,"Velocity":23,"Duration":99535,"SoundDuration":99535,"Delta":128241566},{"NoteNumber":68,"Velocity":36,"Duration":49767,"SoundDuration":49767,"Delta":128291334},{"NoteNumber":81,"Velocity":28,"Duration":90525,"SoundDuration":90525,"Delta":128341102},{"NoteNumber":89,"Velocity":51,"Duration":90525,"SoundDuration":90525,"Delta":128341102},{"NoteNumber":69,"Velocity":48,"Duration":90525,"SoundDuration":90525,"Delta":128341102},{"NoteNumber":82,"Velocity":23,"Duration":90524,"SoundDuration":90524,"Delta":128431627},{"NoteNumber":77,"Velocity":23,"Duration":90524,"SoundDuration":90524,"Delta":128431627},{"NoteNumber":81,"Velocity":29,"Duration":90525,"SoundDuration":90525,"Delta":128522152},{"NoteNumber":88,"Velocity":51,"Duration":90525,"SoundDuration":90525,"Delta":128522152},{"NoteNumber":53,"Velocity":37,"Duration":90525,"SoundDuration":90525,"Delta":128522152},{"NoteNumber":82,"Velocity":23,"Duration":88391,"SoundDuration":88391,"Delta":128612677},{"NoteNumber":77,"Velocity":23,"Duration":88391,"SoundDuration":88391,"Delta":128612677},{"NoteNumber":70,"Velocity":32,"Duration":44195,"SoundDuration":44195,"Delta":128656872},{"NoteNumber":86,"Velocity":49,"Duration":88391,"SoundDuration":88391,"Delta":128701068},{"NoteNumber":81,"Velocity":29,"Duration":88391,"SoundDuration":88391,"Delta":128701068},{"NoteNumber":69,"Velocity":45,"Duration":88391,"SoundDuration":88391,"Delta":128701068},{"NoteNumber":77,"Velocity":24,"Duration":88391,"SoundDuration":88391,"Delta":128789459},{"NoteNumber":82,"Velocity":24,"Duration":88391,"SoundDuration":88391,"Delta":128789459},{"NoteNumber":86,"Velocity":51,"Duration":89451,"SoundDuration":89451,"Delta":128877850},{"NoteNumber":79,"Velocity":30,"Duration":89451,"SoundDuration":89451,"Delta":128877850},{"NoteNumber":45,"Velocity":38,"Duration":89451,"SoundDuration":89451,"Delta":128877850},{"NoteNumber":81,"Velocity":25,"Duration":89981,"SoundDuration":89981,"Delta":128967302},{"NoteNumber":76,"Velocity":25,"Duration":89981,"SoundDuration":89981,"Delta":128967302},{"NoteNumber":68,"Velocity":26,"Duration":44991,"SoundDuration":44991,"Delta":129012293},{"NoteNumber":85,"Velocity":49,"Duration":95055,"SoundDuration":95055,"Delta":129057284},{"NoteNumber":79,"Velocity":29,"Duration":95055,"SoundDuration":95055,"Delta":129057284},{"NoteNumber":69,"Velocity":42,"Duration":95055,"SoundDuration":95055,"Delta":129057284},{"NoteNumber":81,"Velocity":23,"Duration":97592,"SoundDuration":97592,"Delta":129152340},{"NoteNumber":76,"Velocity":23,"Duration":97592,"SoundDuration":97592,"Delta":129152340},{"NoteNumber":79,"Velocity":29,"Duration":91807,"SoundDuration":91807,"Delta":129249933},{"NoteNumber":84,"Velocity":51,"Duration":91807,"SoundDuration":91807,"Delta":129249933},{"NoteNumber":49,"Velocity":37,"Duration":91807,"SoundDuration":91807,"Delta":129249933},{"NoteNumber":83,"Velocity":42,"Duration":88915,"SoundDuration":88915,"Delta":129341740},{"NoteNumber":76,"Velocity":22,"Duration":88915,"SoundDuration":88915,"Delta":129341740},{"NoteNumber":70,"Velocity":31,"Duration":44457,"SoundDuration":44457,"Delta":129386198},{"NoteNumber":82,"Velocity":51,"Duration":89268,"SoundDuration":89268,"Delta":129430656},{"NoteNumber":79,"Velocity":28,"Duration":89268,"SoundDuration":89268,"Delta":129430656},{"NoteNumber":69,"Velocity":42,"Duration":89268,"SoundDuration":89268,"Delta":129430656},{"NoteNumber":76,"Velocity":23,"Duration":89445,"SoundDuration":89445,"Delta":129519924},{"NoteNumber":77,"Velocity":29,"Duration":89445,"SoundDuration":89445,"Delta":129609370},{"NoteNumber":81,"Velocity":51,"Duration":89445,"SoundDuration":89445,"Delta":129609370},{"NoteNumber":50,"Velocity":39,"Duration":89445,"SoundDuration":89445,"Delta":129609370},{"NoteNumber":74,"Velocity":22,"Duration":89445,"SoundDuration":89445,"Delta":129698815},{"NoteNumber":68,"Velocity":26,"Duration":44722,"SoundDuration":44722,"Delta":129743538},{"NoteNumber":77,"Velocity":22,"Duration":89445,"SoundDuration":89445,"Delta":129788261},{"NoteNumber":69,"Velocity":43,"Duration":89445,"SoundDuration":89445,"Delta":129788261},{"NoteNumber":82,"Velocity":22,"Duration":89445,"SoundDuration":89445,"Delta":129877706},{"NoteNumber":81,"Velocity":33,"Duration":93926,"SoundDuration":93926,"Delta":129967152},{"NoteNumber":76,"Velocity":43,"Duration":93926,"SoundDuration":93926,"Delta":129967152},{"NoteNumber":73,"Velocity":37,"Duration":93926,"SoundDuration":93926,"Delta":129967152},{"NoteNumber":82,"Velocity":29,"Duration":93926,"SoundDuration":93926,"Delta":130061078},{"NoteNumber":81,"Velocity":33,"Duration":93926,"SoundDuration":93926,"Delta":130155004},{"NoteNumber":67,"Velocity":32,"Duration":93926,"SoundDuration":93926,"Delta":130155004},{"NoteNumber":94,"Velocity":38,"Duration":93926,"SoundDuration":93926,"Delta":130248930},{"NoteNumber":93,"Velocity":38,"Duration":91074,"SoundDuration":91074,"Delta":130342856},{"NoteNumber":74,"Velocity":41,"Duration":91074,"SoundDuration":91074,"Delta":130342856},{"NoteNumber":77,"Velocity":46,"Duration":91074,"SoundDuration":91074,"Delta":130342856},{"NoteNumber":82,"Velocity":33,"Duration":91074,"SoundDuration":91074,"Delta":130433931},{"NoteNumber":81,"Velocity":31,"Duration":91074,"SoundDuration":91074,"Delta":130525006},{"NoteNumber":65,"Velocity":31,"Duration":91074,"SoundDuration":91074,"Delta":130525006},{"NoteNumber":70,"Velocity":33,"Duration":91074,"SoundDuration":91074,"Delta":130616080},{"NoteNumber":69,"Velocity":31,"Duration":88391,"SoundDuration":88391,"Delta":130707155},{"NoteNumber":73,"Velocity":41,"Duration":88391,"SoundDuration":88391,"Delta":130707155},{"NoteNumber":79,"Velocity":46,"Duration":88391,"SoundDuration":88391,"Delta":130707155},{"NoteNumber":70,"Velocity":33,"Duration":88391,"SoundDuration":88391,"Delta":130795546},{"NoteNumber":69,"Velocity":30,"Duration":88391,"SoundDuration":88391,"Delta":130883937},{"NoteNumber":64,"Velocity":32,"Duration":88391,"SoundDuration":88391,"Delta":130883937},{"NoteNumber":82,"Velocity":33,"Duration":88391,"SoundDuration":88391,"Delta":130972329},{"NoteNumber":81,"Velocity":27,"Duration":95820,"SoundDuration":95820,"Delta":131060720},{"NoteNumber":62,"Velocity":43,"Duration":377610,"SoundDuration":377610,"Delta":131060720},{"NoteNumber":77,"Velocity":43,"Duration":195356,"SoundDuration":195356,"Delta":131060720},{"NoteNumber":77,"Velocity":23,"Duration":281789,"SoundDuration":281789,"Delta":131156541},{"NoteNumber":82,"Velocity":23,"Duration":99535,"SoundDuration":99535,"Delta":131156541},{"NoteNumber":68,"Velocity":36,"Duration":49767,"SoundDuration":49767,"Delta":131206308},{"NoteNumber":89,"Velocity":51,"Duration":92808,"SoundDuration":92808,"Delta":131256076},{"NoteNumber":81,"Velocity":28,"Duration":92808,"SoundDuration":92808,"Delta":131256076},{"NoteNumber":69,"Velocity":48,"Duration":92808,"SoundDuration":92808,"Delta":131256076},{"NoteNumber":77,"Velocity":23,"Duration":89445,"SoundDuration":89445,"Delta":131348885},{"NoteNumber":82,"Velocity":23,"Duration":89445,"SoundDuration":89445,"Delta":131348885},{"NoteNumber":81,"Velocity":29,"Duration":89445,"SoundDuration":89445,"Delta":131438331},{"NoteNumber":88,"Velocity":51,"Duration":89445,"SoundDuration":89445,"Delta":131438331},{"NoteNumber":53,"Velocity":37,"Duration":89445,"SoundDuration":89445,"Delta":131438331},{"NoteNumber":77,"Velocity":23,"Duration":89445,"SoundDuration":89445,"Delta":131527776},{"NoteNumber":82,"Velocity":23,"Duration":89445,"SoundDuration":89445,"Delta":131527776},{"NoteNumber":70,"Velocity":32,"Duration":44722,"SoundDuration":44722,"Delta":131572499},{"NoteNumber":81,"Velocity":29,"Duration":89445,"SoundDuration":89445,"Delta":131617222},{"NoteNumber":86,"Velocity":49,"Duration":89445,"SoundDuration":89445,"Delta":131617222},{"NoteNumber":69,"Velocity":45,"Duration":89445,"SoundDuration":89445,"Delta":131617222},{"NoteNumber":82,"Velocity":24,"Duration":89445,"SoundDuration":89445,"Delta":131706667},{"NoteNumber":77,"Velocity":24,"Duration":89445,"SoundDuration":89445,"Delta":131706667},{"NoteNumber":86,"Velocity":45,"Duration":89803,"SoundDuration":89803,"Delta":131796113},{"NoteNumber":79,"Velocity":30,"Duration":89803,"SoundDuration":89803,"Delta":131796113},{"NoteNumber":45,"Velocity":38,"Duration":89803,"SoundDuration":89803,"Delta":131796113},{"NoteNumber":81,"Velocity":25,"Duration":89981,"SoundDuration":89981,"Delta":131885916},{"NoteNumber":76,"Velocity":25,"Duration":89981,"SoundDuration":89981,"Delta":131885916},{"NoteNumber":68,"Velocity":26,"Duration":44991,"SoundDuration":44991,"Delta":131930907},{"NoteNumber":79,"Velocity":29,"Duration":95055,"SoundDuration":95055,"Delta":131975898},{"NoteNumber":85,"Velocity":49,"Duration":95055,"SoundDuration":95055,"Delta":131975898},{"NoteNumber":69,"Velocity":42,"Duration":95055,"SoundDuration":95055,"Delta":131975898},{"NoteNumber":76,"Velocity":23,"Duration":97592,"SoundDuration":97592,"Delta":132070954},{"NoteNumber":81,"Velocity":23,"Duration":97592,"SoundDuration":97592,"Delta":132070954},{"NoteNumber":84,"Velocity":51,"Duration":91807,"SoundDuration":91807,"Delta":132168546},{"NoteNumber":79,"Velocity":29,"Duration":91807,"SoundDuration":91807,"Delta":132168546},{"NoteNumber":49,"Velocity":37,"Duration":91807,"SoundDuration":91807,"Delta":132168546},{"NoteNumber":83,"Velocity":42,"Duration":88915,"SoundDuration":88915,"Delta":132260354},{"NoteNumber":76,"Velocity":22,"Duration":88915,"SoundDuration":88915,"Delta":132260354},{"NoteNumber":70,"Velocity":31,"Duration":44457,"SoundDuration":44457,"Delta":132304812},{"NoteNumber":79,"Velocity":28,"Duration":89268,"SoundDuration":89268,"Delta":132349269},{"NoteNumber":82,"Velocity":51,"Duration":89268,"SoundDuration":89268,"Delta":132349269},{"NoteNumber":69,"Velocity":42,"Duration":89268,"SoundDuration":89268,"Delta":132349269},{"NoteNumber":76,"Velocity":23,"Duration":89445,"SoundDuration":89445,"Delta":132438538},{"NoteNumber":81,"Velocity":51,"Duration":89445,"SoundDuration":89445,"Delta":132527984},{"NoteNumber":77,"Velocity":29,"Duration":89445,"SoundDuration":89445,"Delta":132527984},{"NoteNumber":50,"Velocity":39,"Duration":89445,"SoundDuration":89445,"Delta":132527984},{"NoteNumber":74,"Velocity":22,"Duration":89445,"SoundDuration":89445,"Delta":132617429},{"NoteNumber":77,"Velocity":22,"Duration":100200,"SoundDuration":100200,"Delta":132706875},{"NoteNumber":86,"Velocity":25,"Duration":113036,"SoundDuration":113036,"Delta":132807075},{"NoteNumber":89,"Velocity":53,"Duration":292207,"SoundDuration":292207,"Delta":132920112},{"NoteNumber":77,"Velocity":44,"Duration":97402,"SoundDuration":97402,"Delta":132920112},{"NoteNumber":29,"Velocity":44,"Duration":389610,"SoundDuration":389610,"Delta":132920112},{"NoteNumber":41,"Velocity":44,"Duration":97402,"SoundDuration":97402,"Delta":132920112},{"NoteNumber":84,"Velocity":44,"Duration":97402,"SoundDuration":97402,"Delta":133017514},{"NoteNumber":81,"Velocity":44,"Duration":97402,"SoundDuration":97402,"Delta":133017514},{"NoteNumber":42,"Velocity":36,"Duration":97402,"SoundDuration":97402,"Delta":133017514},{"NoteNumber":75,"Velocity":41,"Duration":97402,"SoundDuration":97402,"Delta":133114917},{"NoteNumber":41,"Velocity":36,"Duration":97402,"SoundDuration":97402,"Delta":133114917},{"NoteNumber":87,"Velocity":49,"Duration":97402,"SoundDuration":97402,"Delta":133212320},{"NoteNumber":42,"Velocity":36,"Duration":97402,"SoundDuration":97402,"Delta":133212320},{"NoteNumber":85,"Velocity":57,"Duration":292207,"SoundDuration":292207,"Delta":133309722},{"NoteNumber":73,"Velocity":46,"Duration":97402,"SoundDuration":97402,"Delta":133309722},{"NoteNumber":41,"Velocity":45,"Duration":389610,"SoundDuration":389610,"Delta":133309722},{"NoteNumber":53,"Velocity":45,"Duration":97402,"SoundDuration":97402,"Delta":133309722},{"NoteNumber":82,"Velocity":41,"Duration":97402,"SoundDuration":97402,"Delta":133407125},{"NoteNumber":77,"Velocity":41,"Duration":97402,"SoundDuration":97402,"Delta":133407125},{"NoteNumber":54,"Velocity":38,"Duration":97402,"SoundDuration":97402,"Delta":133407125},{"NoteNumber":74,"Velocity":45,"Duration":97402,"SoundDuration":97402,"Delta":133504528},{"NoteNumber":53,"Velocity":38,"Duration":97402,"SoundDuration":97402,"Delta":133504528},{"NoteNumber":86,"Velocity":50,"Duration":97402,"SoundDuration":97402,"Delta":133601930},{"NoteNumber":54,"Velocity":38,"Duration":97402,"SoundDuration":97402,"Delta":133601930},{"NoteNumber":80,"Velocity":54,"Duration":292207,"SoundDuration":292207,"Delta":133699333},{"NoteNumber":68,"Velocity":54,"Duration":97402,"SoundDuration":97402,"Delta":133699333},{"NoteNumber":65,"Velocity":45,"Duration":97402,"SoundDuration":97402,"Delta":133699333},{"NoteNumber":53,"Velocity":45,"Duration":405844,"SoundDuration":405844,"Delta":133699333},{"NoteNumber":75,"Velocity":39,"Duration":97402,"SoundDuration":97402,"Delta":133796735},{"NoteNumber":72,"Velocity":31,"Duration":97402,"SoundDuration":97402,"Delta":133796735},{"NoteNumber":66,"Velocity":38,"Duration":97402,"SoundDuration":97402,"Delta":133796735},{"NoteNumber":69,"Velocity":43,"Duration":97402,"SoundDuration":97402,"Delta":133894138},{"NoteNumber":65,"Velocity":37,"Duration":97402,"SoundDuration":97402,"Delta":133894138},{"NoteNumber":81,"Velocity":51,"Duration":113636,"SoundDuration":113636,"Delta":133991541},{"NoteNumber":66,"Velocity":37,"Duration":113636,"SoundDuration":113636,"Delta":133991541},{"NoteNumber":72,"Velocity":46,"Duration":98879,"SoundDuration":98879,"Delta":134105177},{"NoteNumber":84,"Velocity":55,"Duration":296638,"SoundDuration":296638,"Delta":134105177},{"NoteNumber":65,"Velocity":46,"Duration":98879,"SoundDuration":98879,"Delta":134105177},{"NoteNumber":77,"Velocity":47,"Duration":98879,"SoundDuration":98879,"Delta":134204056},{"NoteNumber":74,"Velocity":47,"Duration":98879,"SoundDuration":98879,"Delta":134204056},{"NoteNumber":67,"Velocity":37,"Duration":98879,"SoundDuration":98879,"Delta":134204056},{"NoteNumber":70,"Velocity":43,"Duration":98879,"SoundDuration":98879,"Delta":134302936},{"NoteNumber":65,"Velocity":37,"Duration":98879,"SoundDuration":98879,"Delta":134302936},{"NoteNumber":82,"Velocity":43,"Duration":107142,"SoundDuration":107142,"Delta":134401815},{"NoteNumber":77,"Velocity":47,"Duration":97402,"SoundDuration":97402,"Delta":134508958},{"NoteNumber":89,"Velocity":56,"Duration":292207,"SoundDuration":292207,"Delta":134508958},{"NoteNumber":29,"Velocity":47,"Duration":389610,"SoundDuration":389610,"Delta":134508958},{"NoteNumber":41,"Velocity":47,"Duration":97402,"SoundDuration":97402,"Delta":134508958},{"NoteNumber":84,"Velocity":47,"Duration":97402,"SoundDuration":97402,"Delta":134606361},{"NoteNumber":81,"Velocity":47,"Duration":97402,"SoundDuration":97402,"Delta":134606361},{"NoteNumber":42,"Velocity":39,"Duration":97402,"SoundDuration":97402,"Delta":134606361},{"NoteNumber":75,"Velocity":44,"Duration":97402,"SoundDuration":97402,"Delta":134703763},{"NoteNumber":41,"Velocity":39,"Duration":97402,"SoundDuration":97402,"Delta":134703763},{"NoteNumber":87,"Velocity":52,"Duration":97402,"SoundDuration":97402,"Delta":134801166},{"NoteNumber":42,"Velocity":39,"Duration":97402,"SoundDuration":97402,"Delta":134801166},{"NoteNumber":73,"Velocity":49,"Duration":97402,"SoundDuration":97402,"Delta":134898569},{"NoteNumber":85,"Velocity":61,"Duration":292207,"SoundDuration":292207,"Delta":134898569},{"NoteNumber":41,"Velocity":48,"Duration":389610,"SoundDuration":389610,"Delta":134898569},{"NoteNumber":53,"Velocity":48,"Duration":97402,"SoundDuration":97402,"Delta":134898569},{"NoteNumber":82,"Velocity":43,"Duration":97402,"SoundDuration":97402,"Delta":134995971},{"NoteNumber":77,"Velocity":43,"Duration":97402,"SoundDuration":97402,"Delta":134995971},{"NoteNumber":54,"Velocity":40,"Duration":97402,"SoundDuration":97402,"Delta":134995971},{"NoteNumber":74,"Velocity":48,"Duration":97402,"SoundDuration":97402,"Delta":135093374},{"NoteNumber":53,"Velocity":40,"Duration":97402,"SoundDuration":97402,"Delta":135093374},{"NoteNumber":86,"Velocity":53,"Duration":97402,"SoundDuration":97402,"Delta":135190776},{"NoteNumber":54,"Velocity":40,"Duration":97402,"SoundDuration":97402,"Delta":135190776},{"NoteNumber":80,"Velocity":58,"Duration":292207,"SoundDuration":292207,"Delta":135288179},{"NoteNumber":68,"Velocity":58,"Duration":97402,"SoundDuration":97402,"Delta":135288179},{"NoteNumber":53,"Velocity":48,"Duration":405844,"SoundDuration":405844,"Delta":135288179},{"NoteNumber":65,"Velocity":48,"Duration":97402,"SoundDuration":97402,"Delta":135288179},{"NoteNumber":75,"Velocity":41,"Duration":97402,"SoundDuration":97402,"Delta":135385582},{"NoteNumber":72,"Velocity":33,"Duration":97402,"SoundDuration":97402,"Delta":135385582},{"NoteNumber":66,"Velocity":40,"Duration":97402,"SoundDuration":97402,"Delta":135385582},{"NoteNumber":69,"Velocity":46,"Duration":97402,"SoundDuration":97402,"Delta":135482984},{"NoteNumber":65,"Velocity":39,"Duration":97402,"SoundDuration":97402,"Delta":135482984},{"NoteNumber":81,"Velocity":54,"Duration":113636,"SoundDuration":113636,"Delta":135580387},{"NoteNumber":66,"Velocity":39,"Duration":113636,"SoundDuration":113636,"Delta":135580387},{"NoteNumber":84,"Velocity":58,"Duration":296638,"SoundDuration":296638,"Delta":135694023},{"NoteNumber":72,"Velocity":49,"Duration":98879,"SoundDuration":98879,"Delta":135694023},{"NoteNumber":65,"Velocity":49,"Duration":98879,"SoundDuration":98879,"Delta":135694023},{"NoteNumber":74,"Velocity":49,"Duration":98879,"SoundDuration":98879,"Delta":135792903},{"NoteNumber":77,"Velocity":49,"Duration":98879,"SoundDuration":98879,"Delta":135792903},{"NoteNumber":67,"Velocity":40,"Duration":98879,"SoundDuration":98879,"Delta":135792903},{"NoteNumber":70,"Velocity":46,"Duration":98879,"SoundDuration":98879,"Delta":135891782},{"NoteNumber":65,"Velocity":40,"Duration":98879,"SoundDuration":98879,"Delta":135891782},{"NoteNumber":82,"Velocity":46,"Duration":107142,"SoundDuration":107142,"Delta":135990661},{"NoteNumber":82,"Velocity":56,"Duration":94517,"SoundDuration":94517,"Delta":136097804},{"NoteNumber":94,"Velocity":70,"Duration":283554,"SoundDuration":283554,"Delta":136097804},{"NoteNumber":34,"Velocity":56,"Duration":378072,"SoundDuration":378072,"Delta":136097804},{"NoteNumber":46,"Velocity":56,"Duration":94517,"SoundDuration":94517,"Delta":136097804},{"NoteNumber":89,"Velocity":56,"Duration":94517,"SoundDuration":94517,"Delta":136192322},{"NoteNumber":86,"Velocity":56,"Duration":94517,"SoundDuration":94517,"Delta":136192322},{"NoteNumber":47,"Velocity":47,"Duration":94517,"SoundDuration":94517,"Delta":136192322},{"NoteNumber":80,"Velocity":54,"Duration":94518,"SoundDuration":94518,"Delta":136286840},{"NoteNumber":46,"Velocity":47,"Duration":94518,"SoundDuration":94518,"Delta":136286840},{"NoteNumber":92,"Velocity":63,"Duration":94517,"SoundDuration":94517,"Delta":136381358},{"NoteNumber":47,"Velocity":47,"Duration":94517,"SoundDuration":94517,"Delta":136381358},{"NoteNumber":77,"Velocity":60,"Duration":94517,"SoundDuration":94517,"Delta":136475876},{"NoteNumber":89,"Velocity":72,"Duration":283554,"SoundDuration":283554,"Delta":136475876},{"NoteNumber":46,"Velocity":57,"Duration":378072,"SoundDuration":378072,"Delta":136475876},{"NoteNumber":58,"Velocity":57,"Duration":94517,"SoundDuration":94517,"Delta":136475876},{"NoteNumber":87,"Velocity":51,"Duration":94517,"SoundDuration":94517,"Delta":136570394},{"NoteNumber":82,"Velocity":51,"Duration":94517,"SoundDuration":94517,"Delta":136570394},{"NoteNumber":59,"Velocity":50,"Duration":94517,"SoundDuration":94517,"Delta":136570394},{"NoteNumber":78,"Velocity":59,"Duration":94518,"SoundDuration":94518,"Delta":136664912},{"NoteNumber":58,"Velocity":50,"Duration":94518,"SoundDuration":94518,"Delta":136664912},{"NoteNumber":90,"Velocity":64,"Duration":94517,"SoundDuration":94517,"Delta":136759430},{"NoteNumber":59,"Velocity":51,"Duration":94517,"SoundDuration":94517,"Delta":136759430},{"NoteNumber":73,"Velocity":71,"Duration":94517,"SoundDuration":94517,"Delta":136853948},{"NoteNumber":85,"Velocity":71,"Duration":283553,"SoundDuration":283553,"Delta":136853948},{"NoteNumber":58,"Velocity":57,"Duration":397190,"SoundDuration":397190,"Delta":136853948},{"NoteNumber":70,"Velocity":57,"Duration":94517,"SoundDuration":94517,"Delta":136853948},{"NoteNumber":77,"Velocity":41,"Duration":94517,"SoundDuration":94517,"Delta":136948466},{"NoteNumber":80,"Velocity":51,"Duration":94517,"SoundDuration":94517,"Delta":136948466},{"NoteNumber":71,"Velocity":51,"Duration":94517,"SoundDuration":94517,"Delta":136948466},{"NoteNumber":74,"Velocity":56,"Duration":94517,"SoundDuration":94517,"Delta":137042984},{"NoteNumber":70,"Velocity":44,"Duration":94517,"SoundDuration":94517,"Delta":137042984},{"NoteNumber":86,"Velocity":66,"Duration":113636,"SoundDuration":113636,"Delta":137137502},{"NoteNumber":71,"Velocity":44,"Duration":113636,"SoundDuration":113636,"Delta":137137502},{"NoteNumber":89,"Velocity":72,"Duration":290885,"SoundDuration":290885,"Delta":137251139},{"NoteNumber":77,"Velocity":58,"Duration":96961,"SoundDuration":96961,"Delta":137251139},{"NoteNumber":70,"Velocity":58,"Duration":96961,"SoundDuration":96961,"Delta":137251139},{"NoteNumber":78,"Velocity":59,"Duration":96961,"SoundDuration":96961,"Delta":137348101},{"NoteNumber":82,"Velocity":59,"Duration":96961,"SoundDuration":96961,"Delta":137348101},{"NoteNumber":75,"Velocity":56,"Duration":96961,"SoundDuration":96961,"Delta":137445062},{"NoteNumber":87,"Velocity":56,"Duration":107142,"SoundDuration":107142,"Delta":137542024},{"NoteNumber":94,"Velocity":81,"Duration":283554,"SoundDuration":283554,"Delta":137649167},{"NoteNumber":82,"Velocity":66,"Duration":94517,"SoundDuration":94517,"Delta":137649167},{"NoteNumber":34,"Velocity":66,"Duration":378072,"SoundDuration":378072,"Delta":137649167},{"NoteNumber":46,"Velocity":66,"Duration":94517,"SoundDuration":94517,"Delta":137649167},{"NoteNumber":86,"Velocity":66,"Duration":94517,"SoundDuration":94517,"Delta":137743685},{"NoteNumber":89,"Velocity":66,"Duration":94517,"SoundDuration":94517,"Delta":137743685},{"NoteNumber":47,"Velocity":54,"Duration":94517,"SoundDuration":94517,"Delta":137743685},{"NoteNumber":80,"Velocity":61,"Duration":94518,"SoundDuration":94518,"Delta":137838203},{"NoteNumber":46,"Velocity":54,"Duration":94518,"SoundDuration":94518,"Delta":137838203},{"NoteNumber":92,"Velocity":74,"Duration":94517,"SoundDuration":94517,"Delta":137932721},{"NoteNumber":47,"Velocity":54,"Duration":94517,"SoundDuration":94517,"Delta":137932721},{"NoteNumber":89,"Velocity":84,"Duration":283554,"SoundDuration":283554,"Delta":138027239},{"NoteNumber":77,"Velocity":69,"Duration":94517,"SoundDuration":94517,"Delta":138027239},{"NoteNumber":58,"Velocity":67,"Duration":94517,"SoundDuration":94517,"Delta":138027239},{"NoteNumber":46,"Velocity":67,"Duration":378072,"SoundDuration":378072,"Delta":138027239},{"NoteNumber":87,"Velocity":60,"Duration":94517,"SoundDuration":94517,"Delta":138121757},{"NoteNumber":82,"Velocity":60,"Duration":94517,"SoundDuration":94517,"Delta":138121757},{"NoteNumber":59,"Velocity":58,"Duration":94517,"SoundDuration":94517,"Delta":138121757},{"NoteNumber":78,"Velocity":68,"Duration":94518,"SoundDuration":94518,"Delta":138216275},{"NoteNumber":58,"Velocity":58,"Duration":94518,"SoundDuration":94518,"Delta":138216275},{"NoteNumber":90,"Velocity":74,"Duration":94517,"SoundDuration":94517,"Delta":138310793},{"NoteNumber":59,"Velocity":59,"Duration":94517,"SoundDuration":94517,"Delta":138310793},{"NoteNumber":85,"Velocity":83,"Duration":283553,"SoundDuration":283553,"Delta":138405311},{"NoteNumber":73,"Velocity":83,"Duration":94517,"SoundDuration":94517,"Delta":138405311},{"NoteNumber":70,"Velocity":67,"Duration":94517,"SoundDuration":94517,"Delta":138405311},{"NoteNumber":58,"Velocity":67,"Duration":397190,"SoundDuration":397190,"Delta":138405311},{"NoteNumber":80,"Velocity":60,"Duration":94517,"SoundDuration":94517,"Delta":138499829},{"NoteNumber":77,"Velocity":46,"Duration":94517,"SoundDuration":94517,"Delta":138499829},{"NoteNumber":71,"Velocity":59,"Duration":94517,"SoundDuration":94517,"Delta":138499829},{"NoteNumber":74,"Velocity":64,"Duration":94517,"SoundDuration":94517,"Delta":138594347},{"NoteNumber":70,"Velocity":51,"Duration":94517,"SoundDuration":94517,"Delta":138594347},{"NoteNumber":86,"Velocity":76,"Duration":113636,"SoundDuration":113636,"Delta":138688865},{"NoteNumber":71,"Velocity":51,"Duration":113636,"SoundDuration":113636,"Delta":138688865},{"NoteNumber":77,"Velocity":68,"Duration":96961,"SoundDuration":96961,"Delta":138802502},{"NoteNumber":89,"Velocity":84,"Duration":290885,"SoundDuration":290885,"Delta":138802502},{"NoteNumber":70,"Velocity":68,"Duration":96961,"SoundDuration":96961,"Delta":138802502},{"NoteNumber":82,"Velocity":69,"Duration":96961,"SoundDuration":96961,"Delta":138899463},{"NoteNumber":78,"Velocity":69,"Duration":96961,"SoundDuration":96961,"Delta":138899463},{"NoteNumber":75,"Velocity":64,"Duration":96961,"SoundDuration":96961,"Delta":138996425},{"NoteNumber":87,"Velocity":64,"Duration":107142,"SoundDuration":107142,"Delta":139093387},{"NoteNumber":85,"Velocity":75,"Duration":93926,"SoundDuration":93926,"Delta":139200530},{"NoteNumber":97,"Velocity":91,"Duration":281778,"SoundDuration":281778,"Delta":139200530},{"NoteNumber":46,"Velocity":93,"Duration":93926,"SoundDuration":93926,"Delta":139200530},{"NoteNumber":34,"Velocity":77,"Duration":93926,"SoundDuration":93926,"Delta":139200530},{"NoteNumber":90,"Velocity":75,"Duration":93926,"SoundDuration":93926,"Delta":139294456},{"NoteNumber":85,"Velocity":70,"Duration":93926,"SoundDuration":93926,"Delta":139388382},{"NoteNumber":42,"Velocity":70,"Duration":93926,"SoundDuration":93926,"Delta":139388382},{"NoteNumber":54,"Velocity":82,"Duration":93926,"SoundDuration":93926,"Delta":139388382},{"NoteNumber":97,"Velocity":83,"Duration":93926,"SoundDuration":93926,"Delta":139482308},{"NoteNumber":100,"Velocity":92,"Duration":281778,"SoundDuration":281778,"Delta":139576235},{"NoteNumber":88,"Velocity":80,"Duration":93926,"SoundDuration":93926,"Delta":139576235},{"NoteNumber":35,"Velocity":81,"Duration":93926,"SoundDuration":93926,"Delta":139576235},{"NoteNumber":47,"Velocity":97,"Duration":93926,"SoundDuration":93926,"Delta":139576235},{"NoteNumber":90,"Velocity":68,"Duration":93926,"SoundDuration":93926,"Delta":139670161},{"NoteNumber":87,"Velocity":78,"Duration":93926,"SoundDuration":93926,"Delta":139764087},{"NoteNumber":54,"Velocity":83,"Duration":93926,"SoundDuration":93926,"Delta":139764087},{"NoteNumber":42,"Velocity":70,"Duration":93926,"SoundDuration":93926,"Delta":139764087},{"NoteNumber":99,"Velocity":82,"Duration":93926,"SoundDuration":93926,"Delta":139858013},{"NoteNumber":81,"Velocity":91,"Duration":93926,"SoundDuration":93926,"Delta":139951939},{"NoteNumber":93,"Velocity":91,"Duration":281778,"SoundDuration":281778,"Delta":139951939},{"NoteNumber":49,"Velocity":96,"Duration":93926,"SoundDuration":93926,"Delta":139951939},{"NoteNumber":37,"Velocity":81,"Duration":93926,"SoundDuration":93926,"Delta":139951939},{"NoteNumber":90,"Velocity":67,"Duration":93926,"SoundDuration":93926,"Delta":140045865},{"NoteNumber":88,"Velocity":53,"Duration":93926,"SoundDuration":93926,"Delta":140045865},{"NoteNumber":82,"Velocity":72,"Duration":93926,"SoundDuration":93926,"Delta":140139791},{"NoteNumber":42,"Velocity":75,"Duration":93926,"SoundDuration":93926,"Delta":140139791},{"NoteNumber":54,"Velocity":87,"Duration":93926,"SoundDuration":93926,"Delta":140139791},{"NoteNumber":94,"Velocity":83,"Duration":113636,"SoundDuration":113636,"Delta":140233717},{"NoteNumber":97,"Velocity":91,"Duration":292305,"SoundDuration":292305,"Delta":140347354},{"NoteNumber":85,"Velocity":75,"Duration":96961,"SoundDuration":96961,"Delta":140347354},{"NoteNumber":39,"Velocity":81,"Duration":96961,"SoundDuration":96961,"Delta":140347354},{"NoteNumber":51,"Velocity":96,"Duration":96961,"SoundDuration":96961,"Delta":140347354},{"NoteNumber":90,"Velocity":75,"Duration":96961,"SoundDuration":96961,"Delta":140444316},{"NoteNumber":87,"Velocity":75,"Duration":96961,"SoundDuration":96961,"Delta":140444316},{"NoteNumber":83,"Velocity":70,"Duration":98381,"SoundDuration":98381,"Delta":140541278},{"NoteNumber":42,"Velocity":76,"Duration":98381,"SoundDuration":98381,"Delta":140541278},{"NoteNumber":54,"Velocity":90,"Duration":98381,"SoundDuration":98381,"Delta":140541278},{"NoteNumber":95,"Velocity":70,"Duration":100659,"SoundDuration":100659,"Delta":140639659},{"NoteNumber":91,"Velocity":56,"Duration":99999,"SoundDuration":99999,"Delta":140740319},{"NoteNumber":96,"Velocity":66,"Duration":99999,"SoundDuration":99999,"Delta":140740319},{"NoteNumber":52,"Velocity":96,"Duration":99999,"SoundDuration":99999,"Delta":140740319},{"NoteNumber":40,"Velocity":81,"Duration":99999,"SoundDuration":99999,"Delta":140740319},{"NoteNumber":85,"Velocity":46,"Duration":99492,"SoundDuration":99492,"Delta":140840319},{"NoteNumber":94,"Velocity":56,"Duration":99492,"SoundDuration":99492,"Delta":140840319},{"NoteNumber":96,"Velocity":56,"Duration":98836,"SoundDuration":98836,"Delta":140939811},{"NoteNumber":91,"Velocity":46,"Duration":98836,"SoundDuration":98836,"Delta":140939811},{"NoteNumber":55,"Velocity":91,"Duration":98836,"SoundDuration":98836,"Delta":140939811},{"NoteNumber":46,"Velocity":77,"Duration":98836,"SoundDuration":98836,"Delta":140939811},{"NoteNumber":85,"Velocity":46,"Duration":98351,"SoundDuration":98351,"Delta":141038648},{"NoteNumber":94,"Velocity":56,"Duration":98351,"SoundDuration":98351,"Delta":141038648},{"NoteNumber":93,"Velocity":60,"Duration":97710,"SoundDuration":97710,"Delta":141136999},{"NoteNumber":88,"Velocity":50,"Duration":97710,"SoundDuration":97710,"Delta":141136999},{"NoteNumber":58,"Velocity":90,"Duration":97710,"SoundDuration":97710,"Delta":141136999},{"NoteNumber":49,"Velocity":76,"Duration":97710,"SoundDuration":97710,"Delta":141136999},{"NoteNumber":82,"Velocity":42,"Duration":97235,"SoundDuration":97235,"Delta":141234709},{"NoteNumber":91,"Velocity":49,"Duration":97235,"SoundDuration":97235,"Delta":141234709},{"NoteNumber":93,"Velocity":49,"Duration":96774,"SoundDuration":96774,"Delta":141331944},{"NoteNumber":88,"Velocity":41,"Duration":96774,"SoundDuration":96774,"Delta":141331944},{"NoteNumber":61,"Velocity":92,"Duration":96774,"SoundDuration":96774,"Delta":141331944},{"NoteNumber":52,"Velocity":76,"Duration":96774,"SoundDuration":96774,"Delta":141331944},{"NoteNumber":82,"Velocity":41,"Duration":96453,"SoundDuration":96453,"Delta":141428719},{"NoteNumber":91,"Velocity":49,"Duration":96453,"SoundDuration":96453,"Delta":141428719},{"NoteNumber":90,"Velocity":58,"Duration":96143,"SoundDuration":96143,"Delta":141525172},{"NoteNumber":85,"Velocity":50,"Duration":96143,"SoundDuration":96143,"Delta":141525172},{"NoteNumber":64,"Velocity":91,"Duration":96143,"SoundDuration":96143,"Delta":141525172},{"NoteNumber":55,"Velocity":77,"Duration":96143,"SoundDuration":96143,"Delta":141525172},{"NoteNumber":79,"Velocity":40,"Duration":95541,"SoundDuration":95541,"Delta":141621316},{"NoteNumber":88,"Velocity":48,"Duration":95541,"SoundDuration":95541,"Delta":141621316},{"NoteNumber":90,"Velocity":47,"Duration":95228,"SoundDuration":95228,"Delta":141716857},{"NoteNumber":85,"Velocity":40,"Duration":95228,"SoundDuration":95228,"Delta":141716857},{"NoteNumber":67,"Velocity":91,"Duration":95228,"SoundDuration":95228,"Delta":141716857},{"NoteNumber":58,"Velocity":77,"Duration":95228,"SoundDuration":95228,"Delta":141716857},{"NoteNumber":88,"Velocity":46,"Duration":94936,"SoundDuration":94936,"Delta":141812086},{"NoteNumber":79,"Velocity":39,"Duration":94936,"SoundDuration":94936,"Delta":141812086},{"NoteNumber":87,"Velocity":51,"Duration":94936,"SoundDuration":94936,"Delta":141907023},{"NoteNumber":79,"Velocity":43,"Duration":94936,"SoundDuration":94936,"Delta":141907023},{"NoteNumber":61,"Velocity":72,"Duration":94936,"SoundDuration":94936,"Delta":141907023},{"NoteNumber":70,"Velocity":86,"Duration":94936,"SoundDuration":94936,"Delta":141907023},{"NoteNumber":76,"Velocity":33,"Duration":94936,"SoundDuration":94936,"Delta":142001960},{"NoteNumber":85,"Velocity":40,"Duration":94936,"SoundDuration":94936,"Delta":142001960},{"NoteNumber":79,"Velocity":33,"Duration":94488,"SoundDuration":94488,"Delta":142096897},{"NoteNumber":87,"Velocity":40,"Duration":94488,"SoundDuration":94488,"Delta":142096897},{"NoteNumber":64,"Velocity":67,"Duration":94488,"SoundDuration":94488,"Delta":142096897},{"NoteNumber":73,"Velocity":80,"Duration":94488,"SoundDuration":94488,"Delta":142096897},{"NoteNumber":76,"Velocity":32,"Duration":95259,"SoundDuration":95259,"Delta":142191386},{"NoteNumber":85,"Velocity":39,"Duration":95259,"SoundDuration":95259,"Delta":142191386},{"NoteNumber":79,"Velocity":40,"Duration":96484,"SoundDuration":96484,"Delta":142286645},{"NoteNumber":84,"Velocity":49,"Duration":96484,"SoundDuration":96484,"Delta":142286645},{"NoteNumber":76,"Velocity":73,"Duration":96484,"SoundDuration":96484,"Delta":142286645},{"NoteNumber":73,"Velocity":31,"Duration":97742,"SoundDuration":97742,"Delta":142383130},{"NoteNumber":81,"Velocity":38,"Duration":97742,"SoundDuration":97742,"Delta":142383130},{"NoteNumber":79,"Velocity":31,"Duration":99032,"SoundDuration":99032,"Delta":142480872},{"NoteNumber":84,"Velocity":38,"Duration":99032,"SoundDuration":99032,"Delta":142480872},{"NoteNumber":64,"Velocity":68,"Duration":99032,"SoundDuration":99032,"Delta":142480872},{"NoteNumber":73,"Velocity":31,"Duration":100358,"SoundDuration":100358,"Delta":142579905},{"NoteNumber":82,"Velocity":37,"Duration":100358,"SoundDuration":100358,"Delta":142579905},{"NoteNumber":81,"Velocity":43,"Duration":101535,"SoundDuration":101535,"Delta":142680263},{"NoteNumber":76,"Velocity":37,"Duration":101535,"SoundDuration":101535,"Delta":142680263},{"NoteNumber":73,"Velocity":63,"Duration":101535,"SoundDuration":101535,"Delta":142680263},{"NoteNumber":70,"Velocity":29,"Duration":102401,"SoundDuration":102401,"Delta":142781798},{"NoteNumber":78,"Velocity":34,"Duration":102401,"SoundDuration":102401,"Delta":142781798},{"NoteNumber":76,"Velocity":29,"Duration":103474,"SoundDuration":103474,"Delta":142884200},{"NoteNumber":81,"Velocity":34,"Duration":103474,"SoundDuration":103474,"Delta":142884200},{"NoteNumber":61,"Velocity":57,"Duration":103474,"SoundDuration":103474,"Delta":142884200},{"NoteNumber":70,"Velocity":28,"Duration":105177,"SoundDuration":105177,"Delta":142987675},{"NoteNumber":79,"Velocity":33,"Duration":105177,"SoundDuration":105177,"Delta":142987675},{"NoteNumber":77,"Velocity":42,"Duration":108677,"SoundDuration":108677,"Delta":143092852},{"NoteNumber":73,"Velocity":34,"Duration":108677,"SoundDuration":108677,"Delta":143092852},{"NoteNumber":70,"Velocity":53,"Duration":108677,"SoundDuration":108677,"Delta":143092852},{"NoteNumber":67,"Velocity":25,"Duration":112664,"SoundDuration":112664,"Delta":143201530},{"NoteNumber":75,"Velocity":30,"Duration":112664,"SoundDuration":112664,"Delta":143201530},{"NoteNumber":77,"Velocity":30,"Duration":127111,"SoundDuration":127111,"Delta":143314194},{"NoteNumber":73,"Velocity":25,"Duration":127111,"SoundDuration":127111,"Delta":143314194},{"NoteNumber":58,"Velocity":45,"Duration":127111,"SoundDuration":127111,"Delta":143314194},{"NoteNumber":76,"Velocity":31,"Duration":128205,"SoundDuration":128205,"Delta":143441305},{"NoteNumber":67,"Velocity":26,"Duration":128205,"SoundDuration":128205,"Delta":143441305},{"NoteNumber":70,"Velocity":32,"Duration":105366,"SoundDuration":105366,"Delta":143569510},{"NoteNumber":79,"Velocity":42,"Duration":316099,"SoundDuration":316099,"Delta":143569510},{"NoteNumber":74,"Velocity":32,"Duration":105366,"SoundDuration":105366,"Delta":143569510},{"NoteNumber":62,"Velocity":29,"Duration":210733,"SoundDuration":210733,"Delta":143569510},{"NoteNumber":65,"Velocity":29,"Duration":105366,"SoundDuration":105366,"Delta":143674877},{"NoteNumber":70,"Velocity":36,"Duration":105366,"SoundDuration":105366,"Delta":143780244},{"NoteNumber":77,"Velocity":33,"Duration":105366,"SoundDuration":105366,"Delta":143885610},{"NoteNumber":74,"Velocity":42,"Duration":316099,"SoundDuration":316099,"Delta":143990977},{"NoteNumber":68,"Velocity":32,"Duration":105366,"SoundDuration":105366,"Delta":143990977},{"NoteNumber":53,"Velocity":18,"Duration":853521,"SoundDuration":853521,"Delta":143990977},{"NoteNumber":59,"Velocity":22,"Duration":432055,"SoundDuration":432055,"Delta":143990977},{"NoteNumber":65,"Velocity":32,"Duration":105366,"SoundDuration":105366,"Delta":144096344},{"NoteNumber":68,"Velocity":32,"Duration":105366,"SoundDuration":105366,"Delta":144201710},{"NoteNumber":75,"Velocity":33,"Duration":115955,"SoundDuration":115955,"Delta":144307077},{"NoteNumber":64,"Velocity":32,"Duration":105366,"SoundDuration":105366,"Delta":144423032},{"NoteNumber":74,"Velocity":42,"Duration":316099,"SoundDuration":316099,"Delta":144423032},{"NoteNumber":70,"Velocity":32,"Duration":105366,"SoundDuration":105366,"Delta":144423032},{"NoteNumber":60,"Velocity":22,"Duration":421466,"SoundDuration":421466,"Delta":144423032},{"NoteNumber":67,"Velocity":32,"Duration":105366,"SoundDuration":105366,"Delta":144528399},{"NoteNumber":64,"Velocity":32,"Duration":105366,"SoundDuration":105366,"Delta":144633766},{"NoteNumber":72,"Velocity":33,"Duration":105366,"SoundDuration":105366,"Delta":144739132},{"NoteNumber":63,"Velocity":32,"Duration":105366,"SoundDuration":105366,"Delta":144844499},{"NoteNumber":67,"Velocity":42,"Duration":316099,"SoundDuration":316099,"Delta":144844499},{"NoteNumber":40,"Velocity":33,"Duration":105366,"SoundDuration":105366,"Delta":144844499},{"NoteNumber":60,"Velocity":32,"Duration":105366,"SoundDuration":105366,"Delta":144949865},{"NoteNumber":41,"Velocity":29,"Duration":105366,"SoundDuration":105366,"Delta":144949865},{"NoteNumber":63,"Velocity":32,"Duration":105366,"SoundDuration":105366,"Delta":145055232},{"NoteNumber":40,"Velocity":35,"Duration":105366,"SoundDuration":105366,"Delta":145055232},{"NoteNumber":69,"Velocity":33,"Duration":105366,"SoundDuration":105366,"Delta":145160599},{"NoteNumber":41,"Velocity":29,"Duration":210733,"SoundDuration":210733,"Delta":145160599},{"NoteNumber":70,"Velocity":32,"Duration":105366,"SoundDuration":105366,"Delta":145265965},{"NoteNumber":79,"Velocity":42,"Duration":316099,"SoundDuration":316099,"Delta":145265965},{"NoteNumber":74,"Velocity":32,"Duration":105366,"SoundDuration":105366,"Delta":145265965},{"NoteNumber":53,"Velocity":29,"Duration":105366,"SoundDuration":105366,"Delta":145265965},{"NoteNumber":65,"Velocity":29,"Duration":105366,"SoundDuration":105366,"Delta":145371332},{"NoteNumber":70,"Velocity":36,"Duration":105366,"SoundDuration":105366,"Delta":145476699},{"NoteNumber":77,"Velocity":33,"Duration":105366,"SoundDuration":105366,"Delta":145582065},{"NoteNumber":68,"Velocity":32,"Duration":105366,"SoundDuration":105366,"Delta":145687432},{"NoteNumber":74,"Velocity":42,"Duration":316099,"SoundDuration":316099,"Delta":145687432},{"NoteNumber":59,"Velocity":22,"Duration":432055,"SoundDuration":432055,"Delta":145687432},{"NoteNumber":53,"Velocity":18,"Duration":853521,"SoundDuration":853521,"Delta":145687432},{"NoteNumber":65,"Velocity":32,"Duration":105366,"SoundDuration":105366,"Delta":145792798},{"NoteNumber":68,"Velocity":32,"Duration":105366,"SoundDuration":105366,"Delta":145898165},{"NoteNumber":75,"Velocity":33,"Duration":115955,"SoundDuration":115955,"Delta":146003532},{"NoteNumber":74,"Velocity":42,"Duration":316099,"SoundDuration":316099,"Delta":146119487},{"NoteNumber":70,"Velocity":32,"Duration":105366,"SoundDuration":105366,"Delta":146119487},{"NoteNumber":64,"Velocity":32,"Duration":105366,"SoundDuration":105366,"Delta":146119487},{"NoteNumber":60,"Velocity":22,"Duration":421466,"SoundDuration":421466,"Delta":146119487},{"NoteNumber":67,"Velocity":32,"Duration":105366,"SoundDuration":105366,"Delta":146224854},{"NoteNumber":64,"Velocity":32,"Duration":105366,"SoundDuration":105366,"Delta":146330220},{"NoteNumber":72,"Velocity":33,"Duration":105366,"SoundDuration":105366,"Delta":146435587},{"NoteNumber":63,"Velocity":32,"Duration":105366,"SoundDuration":105366,"Delta":146540954},{"NoteNumber":67,"Velocity":42,"Duration":316099,"SoundDuration":316099,"Delta":146540954},{"NoteNumber":40,"Velocity":33,"Duration":105366,"SoundDuration":105366,"Delta":146540954},{"NoteNumber":60,"Velocity":32,"Duration":105366,"SoundDuration":105366,"Delta":146646320},{"NoteNumber":41,"Velocity":29,"Duration":105366,"SoundDuration":105366,"Delta":146646320},{"NoteNumber":63,"Velocity":32,"Duration":105366,"SoundDuration":105366,"Delta":146751687},{"NoteNumber":40,"Velocity":35,"Duration":105366,"SoundDuration":105366,"Delta":146751687},{"NoteNumber":69,"Velocity":33,"Duration":105366,"SoundDuration":105366,"Delta":146857054},{"NoteNumber":41,"Velocity":29,"Duration":210733,"SoundDuration":210733,"Delta":146857054},{"NoteNumber":62,"Velocity":32,"Duration":105366,"SoundDuration":105366,"Delta":146962420},{"NoteNumber":72,"Velocity":42,"Duration":316099,"SoundDuration":316099,"Delta":146962420},{"NoteNumber":53,"Velocity":29,"Duration":105366,"SoundDuration":105366,"Delta":146962420},{"NoteNumber":65,"Velocity":29,"Duration":105366,"SoundDuration":105366,"Delta":147067787},{"NoteNumber":62,"Velocity":36,"Duration":105366,"SoundDuration":105366,"Delta":147173153},{"NoteNumber":70,"Velocity":33,"Duration":105366,"SoundDuration":105366,"Delta":147278520},{"NoteNumber":56,"Velocity":32,"Duration":105366,"SoundDuration":105366,"Delta":147383887},{"NoteNumber":67,"Velocity":42,"Duration":316099,"SoundDuration":316099,"Delta":147383887},{"NoteNumber":41,"Velocity":18,"Duration":853521,"SoundDuration":853521,"Delta":147383887},{"NoteNumber":47,"Velocity":22,"Duration":432055,"SoundDuration":432055,"Delta":147383887},{"NoteNumber":50,"Velocity":22,"Duration":432055,"SoundDuration":432055,"Delta":147389155},{"NoteNumber":62,"Velocity":32,"Duration":105366,"SoundDuration":105366,"Delta":147489253},{"NoteNumber":56,"Velocity":32,"Duration":105366,"SoundDuration":105366,"Delta":147594620},{"NoteNumber":62,"Velocity":28,"Duration":115955,"SoundDuration":115955,"Delta":147699987},{"NoteNumber":65,"Velocity":33,"Duration":115955,"SoundDuration":115955,"Delta":147699987},{"NoteNumber":65,"Velocity":42,"Duration":316099,"SoundDuration":316099,"Delta":147815942},{"NoteNumber":55,"Velocity":32,"Duration":105366,"SoundDuration":105366,"Delta":147815942},{"NoteNumber":48,"Velocity":22,"Duration":421466,"SoundDuration":421466,"Delta":147815942},{"NoteNumber":51,"Velocity":22,"Duration":421466,"SoundDuration":421466,"Delta":147821210},{"NoteNumber":60,"Velocity":32,"Duration":105366,"SoundDuration":105366,"Delta":147921309},{"NoteNumber":55,"Velocity":32,"Duration":105366,"SoundDuration":105366,"Delta":148026675},{"NoteNumber":63,"Velocity":33,"Duration":105366,"SoundDuration":105366,"Delta":148132042},{"NoteNumber":60,"Velocity":28,"Duration":105366,"SoundDuration":105366,"Delta":148132042},{"NoteNumber":51,"Velocity":32,"Duration":105366,"SoundDuration":105366,"Delta":148237409},{"NoteNumber":60,"Velocity":42,"Duration":316099,"SoundDuration":316099,"Delta":148237409},{"NoteNumber":42,"Velocity":33,"Duration":105366,"SoundDuration":105366,"Delta":148237409},{"NoteNumber":57,"Velocity":32,"Duration":105366,"SoundDuration":105366,"Delta":148342775},{"NoteNumber":41,"Velocity":29,"Duration":105366,"SoundDuration":105366,"Delta":148342775},{"NoteNumber":51,"Velocity":32,"Duration":105366,"SoundDuration":105366,"Delta":148448142},{"NoteNumber":42,"Velocity":35,"Duration":105366,"SoundDuration":105366,"Delta":148448142},{"NoteNumber":62,"Velocity":33,"Duration":115384,"SoundDuration":115384,"Delta":148553508},{"NoteNumber":57,"Velocity":32,"Duration":115384,"SoundDuration":115384,"Delta":148553508},{"NoteNumber":41,"Velocity":29,"Duration":115384,"SoundDuration":115384,"Delta":148553508},{"NoteNumber":58,"Velocity":38,"Duration":230769,"SoundDuration":230769,"Delta":148668893},{"NoteNumber":34,"Velocity":38,"Duration":230769,"SoundDuration":230769,"Delta":148668893},{"NoteNumber":50,"Velocity":30,"Duration":230769,"SoundDuration":230769,"Delta":148668893},{"NoteNumber":65,"Velocity":33,"Duration":97592,"SoundDuration":97592,"Delta":148899662},{"NoteNumber":62,"Velocity":33,"Duration":97592,"SoundDuration":97592,"Delta":148899662},{"NoteNumber":74,"Velocity":39,"Duration":97592,"SoundDuration":97592,"Delta":148899662},{"NoteNumber":58,"Velocity":26,"Duration":97592,"SoundDuration":97592,"Delta":148899662},{"NoteNumber":50,"Velocity":20,"Duration":97592,"SoundDuration":97592,"Delta":148899662},{"NoteNumber":53,"Velocity":20,"Duration":97592,"SoundDuration":97592,"Delta":148899662},{"NoteNumber":62,"Velocity":30,"Duration":96339,"SoundDuration":96339,"Delta":149094848},{"NoteNumber":72,"Velocity":36,"Duration":96339,"SoundDuration":96339,"Delta":149094848},{"NoteNumber":65,"Velocity":30,"Duration":96339,"SoundDuration":96339,"Delta":149094848},{"NoteNumber":58,"Velocity":22,"Duration":96339,"SoundDuration":96339,"Delta":149094848},{"NoteNumber":53,"Velocity":17,"Duration":96339,"SoundDuration":96339,"Delta":149094848},{"NoteNumber":50,"Velocity":17,"Duration":96339,"SoundDuration":96339,"Delta":149094848},{"NoteNumber":62,"Velocity":30,"Duration":96339,"SoundDuration":96339,"Delta":149287526},{"NoteNumber":65,"Velocity":30,"Duration":96339,"SoundDuration":96339,"Delta":149287526},{"NoteNumber":71,"Velocity":36,"Duration":96339,"SoundDuration":96339,"Delta":149287526},{"NoteNumber":53,"Velocity":17,"Duration":96339,"SoundDuration":96339,"Delta":149287526},{"NoteNumber":50,"Velocity":17,"Duration":96339,"SoundDuration":96339,"Delta":149287526},{"NoteNumber":58,"Velocity":22,"Duration":96339,"SoundDuration":96339,"Delta":149287526},{"NoteNumber":65,"Velocity":33,"Duration":96339,"SoundDuration":96339,"Delta":149480204},{"NoteNumber":62,"Velocity":33,"Duration":96339,"SoundDuration":96339,"Delta":149480204},{"NoteNumber":70,"Velocity":39,"Duration":96339,"SoundDuration":96339,"Delta":149480204},{"NoteNumber":50,"Velocity":20,"Duration":96339,"SoundDuration":96339,"Delta":149480204},{"NoteNumber":58,"Velocity":25,"Duration":96339,"SoundDuration":96339,"Delta":149480204},{"NoteNumber":53,"Velocity":20,"Duration":96339,"SoundDuration":96339,"Delta":149480204},{"NoteNumber":62,"Velocity":30,"Duration":108932,"SoundDuration":108932,"Delta":149672883},{"NoteNumber":74,"Velocity":36,"Duration":108932,"SoundDuration":108932,"Delta":149672883},{"NoteNumber":65,"Velocity":30,"Duration":108932,"SoundDuration":108932,"Delta":149672883},{"NoteNumber":50,"Velocity":17,"Duration":108932,"SoundDuration":108932,"Delta":149672883},{"NoteNumber":53,"Velocity":17,"Duration":108932,"SoundDuration":108932,"Delta":149672883},{"NoteNumber":58,"Velocity":22,"Duration":108932,"SoundDuration":108932,"Delta":149672883},{"NoteNumber":72,"Velocity":39,"Duration":97592,"SoundDuration":97592,"Delta":149890748},{"NoteNumber":65,"Velocity":33,"Duration":195185,"SoundDuration":195185,"Delta":149890748},{"NoteNumber":62,"Velocity":33,"Duration":195185,"SoundDuration":195185,"Delta":149890748},{"NoteNumber":53,"Velocity":17,"Duration":97592,"SoundDuration":97592,"Delta":149890748},{"NoteNumber":50,"Velocity":17,"Duration":97592,"SoundDuration":97592,"Delta":149890748},{"NoteNumber":58,"Velocity":22,"Duration":97592,"SoundDuration":97592,"Delta":149890748},{"NoteNumber":71,"Velocity":36,"Duration":97592,"SoundDuration":97592,"Delta":149988340},{"NoteNumber":70,"Velocity":36,"Duration":195185,"SoundDuration":195185,"Delta":150085933},{"NoteNumber":32,"Velocity":44,"Duration":231302,"SoundDuration":231302,"Delta":150281119},{"NoteNumber":77,"Velocity":39,"Duration":98879,"SoundDuration":98879,"Delta":150512422},{"NoteNumber":65,"Velocity":33,"Duration":98879,"SoundDuration":98879,"Delta":150512422},{"NoteNumber":70,"Velocity":33,"Duration":98879,"SoundDuration":98879,"Delta":150512422},{"NoteNumber":53,"Velocity":20,"Duration":98879,"SoundDuration":98879,"Delta":150512422},{"NoteNumber":58,"Velocity":20,"Duration":98879,"SoundDuration":98879,"Delta":150512422},{"NoteNumber":62,"Velocity":26,"Duration":98879,"SoundDuration":98879,"Delta":150512422},{"NoteNumber":65,"Velocity":30,"Duration":98879,"SoundDuration":98879,"Delta":150710180},{"NoteNumber":76,"Velocity":36,"Duration":98879,"SoundDuration":98879,"Delta":150710180},{"NoteNumber":70,"Velocity":30,"Duration":98879,"SoundDuration":98879,"Delta":150710180},{"NoteNumber":53,"Velocity":17,"Duration":98879,"SoundDuration":98879,"Delta":150710180},{"NoteNumber":58,"Velocity":17,"Duration":98879,"SoundDuration":98879,"Delta":150710180},{"NoteNumber":62,"Velocity":22,"Duration":98879,"SoundDuration":98879,"Delta":150710180},{"NoteNumber":75,"Velocity":36,"Duration":98879,"SoundDuration":98879,"Delta":150907939},{"NoteNumber":65,"Velocity":30,"Duration":98879,"SoundDuration":98879,"Delta":150907939},{"NoteNumber":70,"Velocity":30,"Duration":98879,"SoundDuration":98879,"Delta":150907939},{"NoteNumber":58,"Velocity":17,"Duration":98879,"SoundDuration":98879,"Delta":150907939},{"NoteNumber":62,"Velocity":22,"Duration":98879,"SoundDuration":98879,"Delta":150907939},{"NoteNumber":53,"Velocity":17,"Duration":98879,"SoundDuration":98879,"Delta":150907939},{"NoteNumber":70,"Velocity":33,"Duration":98879,"SoundDuration":98879,"Delta":151105698},{"NoteNumber":65,"Velocity":33,"Duration":98879,"SoundDuration":98879,"Delta":151105698},{"NoteNumber":74,"Velocity":39,"Duration":98879,"SoundDuration":98879,"Delta":151105698},{"NoteNumber":53,"Velocity":20,"Duration":98879,"SoundDuration":98879,"Delta":151105698},{"NoteNumber":62,"Velocity":25,"Duration":98879,"SoundDuration":98879,"Delta":151105698},{"NoteNumber":58,"Velocity":20,"Duration":98879,"SoundDuration":98879,"Delta":151105698},{"NoteNumber":77,"Velocity":36,"Duration":115651,"SoundDuration":115651,"Delta":151303457},{"NoteNumber":65,"Velocity":30,"Duration":115651,"SoundDuration":115651,"Delta":151303457},{"NoteNumber":70,"Velocity":30,"Duration":115651,"SoundDuration":115651,"Delta":151303457},{"NoteNumber":53,"Velocity":17,"Duration":115651,"SoundDuration":115651,"Delta":151303457},{"NoteNumber":62,"Velocity":22,"Duration":115651,"SoundDuration":115651,"Delta":151303457},{"NoteNumber":58,"Velocity":17,"Duration":115651,"SoundDuration":115651,"Delta":151303457},{"NoteNumber":65,"Velocity":33,"Duration":205902,"SoundDuration":205902,"Delta":151534760},{"NoteNumber":70,"Velocity":33,"Duration":205902,"SoundDuration":205902,"Delta":151534760},{"NoteNumber":76,"Velocity":39,"Duration":102951,"SoundDuration":102951,"Delta":151534760},{"NoteNumber":53,"Velocity":17,"Duration":102951,"SoundDuration":102951,"Delta":151534760},{"NoteNumber":58,"Velocity":17,"Duration":102951,"SoundDuration":102951,"Delta":151534760},{"NoteNumber":62,"Velocity":22,"Duration":102951,"SoundDuration":102951,"Delta":151534760},{"NoteNumber":75,"Velocity":36,"Duration":102951,"SoundDuration":102951,"Delta":151637711},{"NoteNumber":74,"Velocity":36,"Duration":202288,"SoundDuration":202288,"Delta":151740662},{"NoteNumber":30,"Velocity":45,"Duration":234925,"SoundDuration":234925,"Delta":151942951},{"NoteNumber":82,"Velocity":39,"Duration":101557,"SoundDuration":101557,"Delta":152177877},{"NoteNumber":73,"Velocity":33,"Duration":101557,"SoundDuration":101557,"Delta":152177877},{"NoteNumber":70,"Velocity":33,"Duration":101557,"SoundDuration":101557,"Delta":152177877},{"NoteNumber":64,"Velocity":26,"Duration":101557,"SoundDuration":101557,"Delta":152177877},{"NoteNumber":61,"Velocity":20,"Duration":101557,"SoundDuration":101557,"Delta":152177877},{"NoteNumber":54,"Velocity":20,"Duration":101557,"SoundDuration":101557,"Delta":152177877},{"NoteNumber":73,"Velocity":30,"Duration":100200,"SoundDuration":100200,"Delta":152380991},{"NoteNumber":70,"Velocity":30,"Duration":100200,"SoundDuration":100200,"Delta":152380991},{"NoteNumber":80,"Velocity":36,"Duration":100200,"SoundDuration":100200,"Delta":152380991},{"NoteNumber":61,"Velocity":17,"Duration":100200,"SoundDuration":100200,"Delta":152380991},{"NoteNumber":64,"Velocity":22,"Duration":100200,"SoundDuration":100200,"Delta":152380991},{"NoteNumber":54,"Velocity":17,"Duration":100200,"SoundDuration":100200,"Delta":152380991},{"NoteNumber":70,"Velocity":30,"Duration":100200,"SoundDuration":100200,"Delta":152581392},{"NoteNumber":79,"Velocity":36,"Duration":100200,"SoundDuration":100200,"Delta":152581392},{"NoteNumber":73,"Velocity":30,"Duration":100200,"SoundDuration":100200,"Delta":152581392},{"NoteNumber":64,"Velocity":22,"Duration":100200,"SoundDuration":100200,"Delta":152581392},{"NoteNumber":61,"Velocity":17,"Duration":100200,"SoundDuration":100200,"Delta":152581392},{"NoteNumber":54,"Velocity":17,"Duration":100200,"SoundDuration":100200,"Delta":152581392},{"NoteNumber":70,"Velocity":33,"Duration":100200,"SoundDuration":100200,"Delta":152781793},{"NoteNumber":73,"Velocity":33,"Duration":100200,"SoundDuration":100200,"Delta":152781793},{"NoteNumber":78,"Velocity":39,"Duration":100200,"SoundDuration":100200,"Delta":152781793},{"NoteNumber":64,"Velocity":25,"Duration":100200,"SoundDuration":100200,"Delta":152781793},{"NoteNumber":61,"Velocity":20,"Duration":100200,"SoundDuration":100200,"Delta":152781793},{"NoteNumber":54,"Velocity":20,"Duration":100200,"SoundDuration":100200,"Delta":152781793},{"NoteNumber":82,"Velocity":36,"Duration":110537,"SoundDuration":110537,"Delta":152982193},{"NoteNumber":73,"Velocity":30,"Duration":110537,"SoundDuration":110537,"Delta":152982193},{"NoteNumber":70,"Velocity":30,"Duration":110537,"SoundDuration":110537,"Delta":152982193},{"NoteNumber":54,"Velocity":17,"Duration":110537,"SoundDuration":110537,"Delta":152982193},{"NoteNumber":64,"Velocity":22,"Duration":110537,"SoundDuration":110537,"Delta":152982193},{"NoteNumber":61,"Velocity":17,"Duration":110537,"SoundDuration":110537,"Delta":152982193},{"NoteNumber":70,"Velocity":33,"Duration":205902,"SoundDuration":205902,"Delta":153203269},{"NoteNumber":80,"Velocity":39,"Duration":102951,"SoundDuration":102951,"Delta":153203269},{"NoteNumber":73,"Velocity":33,"Duration":205902,"SoundDuration":205902,"Delta":153203269},{"NoteNumber":64,"Velocity":22,"Duration":102951,"SoundDuration":102951,"Delta":153203269},{"NoteNumber":61,"Velocity":17,"Duration":102951,"SoundDuration":102951,"Delta":153203269},{"NoteNumber":54,"Velocity":17,"Duration":102951,"SoundDuration":102951,"Delta":153203269},{"NoteNumber":79,"Velocity":36,"Duration":102951,"SoundDuration":102951,"Delta":153306221},{"NoteNumber":78,"Velocity":36,"Duration":208584,"SoundDuration":208584,"Delta":153409172},{"NoteNumber":29,"Velocity":42,"Duration":259291,"SoundDuration":259291,"Delta":153617757},{"NoteNumber":72,"Velocity":33,"Duration":117462,"SoundDuration":117462,"Delta":153877048},{"NoteNumber":78,"Velocity":39,"Duration":117462,"SoundDuration":117462,"Delta":153877048},{"NoteNumber":69,"Velocity":33,"Duration":117462,"SoundDuration":117462,"Delta":153877048},{"NoteNumber":57,"Velocity":20,"Duration":117462,"SoundDuration":117462,"Delta":153877048},{"NoteNumber":66,"Velocity":26,"Duration":117462,"SoundDuration":117462,"Delta":153877048},{"NoteNumber":63,"Velocity":20,"Duration":117462,"SoundDuration":117462,"Delta":153877048},{"NoteNumber":72,"Velocity":30,"Duration":110537,"SoundDuration":110537,"Delta":154111974},{"NoteNumber":77,"Velocity":36,"Duration":110537,"SoundDuration":110537,"Delta":154111974},{"NoteNumber":69,"Velocity":30,"Duration":110537,"SoundDuration":110537,"Delta":154111974},{"NoteNumber":63,"Velocity":17,"Duration":110537,"SoundDuration":110537,"Delta":154111974},{"NoteNumber":65,"Velocity":22,"Duration":110537,"SoundDuration":110537,"Delta":154111974},{"NoteNumber":57,"Velocity":17,"Duration":110537,"SoundDuration":110537,"Delta":154111974},{"NoteNumber":72,"Velocity":30,"Duration":110537,"SoundDuration":110537,"Delta":154333050},{"NoteNumber":69,"Velocity":30,"Duration":110537,"SoundDuration":110537,"Delta":154333050},{"NoteNumber":76,"Velocity":36,"Duration":110537,"SoundDuration":110537,"Delta":154333050},{"NoteNumber":57,"Velocity":17,"Duration":110537,"SoundDuration":110537,"Delta":154333050},{"NoteNumber":63,"Velocity":17,"Duration":110537,"SoundDuration":110537,"Delta":154333050},{"NoteNumber":65,"Velocity":22,"Duration":110537,"SoundDuration":110537,"Delta":154333050},{"NoteNumber":72,"Velocity":33,"Duration":115651,"SoundDuration":115651,"Delta":154554126},{"NoteNumber":69,"Velocity":33,"Duration":115651,"SoundDuration":115651,"Delta":154554126},{"NoteNumber":75,"Velocity":39,"Duration":115651,"SoundDuration":115651,"Delta":154554126},{"NoteNumber":65,"Velocity":25,"Duration":115651,"SoundDuration":115651,"Delta":154554126},{"NoteNumber":63,"Velocity":20,"Duration":115651,"SoundDuration":115651,"Delta":154554126},{"NoteNumber":57,"Velocity":20,"Duration":115651,"SoundDuration":115651,"Delta":154554126},{"NoteNumber":69,"Velocity":30,"Duration":136736,"SoundDuration":136736,"Delta":154785429},{"NoteNumber":72,"Velocity":36,"Duration":136736,"SoundDuration":136736,"Delta":154785429},{"NoteNumber":60,"Velocity":20,"Duration":136736,"SoundDuration":136736,"Delta":154785429},{"NoteNumber":63,"Velocity":17,"Duration":136736,"SoundDuration":136736,"Delta":154785429},{"NoteNumber":65,"Velocity":22,"Duration":136736,"SoundDuration":136736,"Delta":154785429},{"NoteNumber":79,"Velocity":39,"Duration":117462,"SoundDuration":117462,"Delta":155058902},{"NoteNumber":72,"Velocity":33,"Duration":234925,"SoundDuration":234925,"Delta":155058902},{"NoteNumber":69,"Velocity":33,"Duration":234925,"SoundDuration":234925,"Delta":155058902},{"NoteNumber":63,"Velocity":17,"Duration":117462,"SoundDuration":117462,"Delta":155058902},{"NoteNumber":65,"Velocity":22,"Duration":117462,"SoundDuration":117462,"Delta":155058902},{"NoteNumber":78,"Velocity":36,"Duration":117462,"SoundDuration":117462,"Delta":155176364},{"NoteNumber":77,"Velocity":36,"Duration":307062,"SoundDuration":307062,"Delta":155293827},{"NoteNumber":34,"Velocity":46,"Duration":230769,"SoundDuration":230769,"Delta":155600890},{"NoteNumber":74,"Velocity":39,"Duration":90525,"SoundDuration":90525,"Delta":155831659},{"NoteNumber":62,"Velocity":33,"Duration":90525,"SoundDuration":90525,"Delta":155831659},{"NoteNumber":58,"Velocity":20,"Duration":90525,"SoundDuration":90525,"Delta":155831659},{"NoteNumber":65,"Velocity":26,"Duration":90525,"SoundDuration":90525,"Delta":155831659},{"NoteNumber":66,"Velocity":31,"Duration":90524,"SoundDuration":90524,"Delta":155922184},{"NoteNumber":72,"Velocity":36,"Duration":91074,"SoundDuration":91074,"Delta":156012709},{"NoteNumber":62,"Velocity":30,"Duration":91074,"SoundDuration":91074,"Delta":156012709},{"NoteNumber":65,"Velocity":22,"Duration":91074,"SoundDuration":91074,"Delta":156012709},{"NoteNumber":53,"Velocity":17,"Duration":91074,"SoundDuration":91074,"Delta":156012709},{"NoteNumber":67,"Velocity":28,"Duration":91074,"SoundDuration":91074,"Delta":156103783},{"NoteNumber":62,"Velocity":30,"Duration":93926,"SoundDuration":93926,"Delta":156194858},{"NoteNumber":71,"Velocity":36,"Duration":93926,"SoundDuration":93926,"Delta":156194858},{"NoteNumber":58,"Velocity":17,"Duration":93926,"SoundDuration":93926,"Delta":156194858},{"NoteNumber":65,"Velocity":22,"Duration":93926,"SoundDuration":93926,"Delta":156194858},{"NoteNumber":66,"Velocity":29,"Duration":93926,"SoundDuration":93926,"Delta":156288784},{"NoteNumber":62,"Velocity":33,"Duration":93926,"SoundDuration":93926,"Delta":156382710},{"NoteNumber":70,"Velocity":39,"Duration":93926,"SoundDuration":93926,"Delta":156382710},{"NoteNumber":65,"Velocity":25,"Duration":93926,"SoundDuration":93926,"Delta":156382710},{"NoteNumber":53,"Velocity":20,"Duration":93926,"SoundDuration":93926,"Delta":156382710},{"NoteNumber":67,"Velocity":31,"Duration":93926,"SoundDuration":93926,"Delta":156476636},{"NoteNumber":62,"Velocity":30,"Duration":102951,"SoundDuration":102951,"Delta":156570563},{"NoteNumber":74,"Velocity":36,"Duration":102951,"SoundDuration":102951,"Delta":156570563},{"NoteNumber":58,"Velocity":17,"Duration":102951,"SoundDuration":102951,"Delta":156570563},{"NoteNumber":65,"Velocity":22,"Duration":102951,"SoundDuration":102951,"Delta":156570563},{"NoteNumber":66,"Velocity":29,"Duration":102951,"SoundDuration":102951,"Delta":156673514},{"NoteNumber":72,"Velocity":39,"Duration":93926,"SoundDuration":93926,"Delta":156776465},{"NoteNumber":62,"Velocity":33,"Duration":187852,"SoundDuration":187852,"Delta":156776465},{"NoteNumber":65,"Velocity":22,"Duration":187852,"SoundDuration":187852,"Delta":156776465},{"NoteNumber":53,"Velocity":20,"Duration":187852,"SoundDuration":187852,"Delta":156776465},{"NoteNumber":71,"Velocity":36,"Duration":93926,"SoundDuration":93926,"Delta":156870391},{"NoteNumber":70,"Velocity":36,"Duration":187852,"SoundDuration":187852,"Delta":156964317},{"NoteNumber":32,"Velocity":46,"Duration":230769,"SoundDuration":230769,"Delta":157152170},{"NoteNumber":77,"Velocity":39,"Duration":90525,"SoundDuration":90525,"Delta":157382939},{"NoteNumber":65,"Velocity":33,"Duration":90525,"SoundDuration":90525,"Delta":157382939},{"NoteNumber":62,"Velocity":20,"Duration":90525,"SoundDuration":90525,"Delta":157382939},{"NoteNumber":70,"Velocity":26,"Duration":90525,"SoundDuration":90525,"Delta":157382939},{"NoteNumber":71,"Velocity":31,"Duration":90524,"SoundDuration":90524,"Delta":157473464},{"NoteNumber":76,"Velocity":36,"Duration":91631,"SoundDuration":91631,"Delta":157563989},{"NoteNumber":65,"Velocity":30,"Duration":91631,"SoundDuration":91631,"Delta":157563989},{"NoteNumber":70,"Velocity":22,"Duration":91631,"SoundDuration":91631,"Delta":157563989},{"NoteNumber":56,"Velocity":17,"Duration":91631,"SoundDuration":91631,"Delta":157563989},{"NoteNumber":72,"Velocity":28,"Duration":93926,"SoundDuration":93926,"Delta":157655620},{"NoteNumber":75,"Velocity":36,"Duration":93926,"SoundDuration":93926,"Delta":157749546},{"NoteNumber":65,"Velocity":30,"Duration":93926,"SoundDuration":93926,"Delta":157749546},{"NoteNumber":62,"Velocity":17,"Duration":93926,"SoundDuration":93926,"Delta":157749546},{"NoteNumber":70,"Velocity":22,"Duration":93926,"SoundDuration":93926,"Delta":157749546},{"NoteNumber":71,"Velocity":29,"Duration":93926,"SoundDuration":93926,"Delta":157843472},{"NoteNumber":65,"Velocity":33,"Duration":93926,"SoundDuration":93926,"Delta":157937398},{"NoteNumber":74,"Velocity":39,"Duration":93926,"SoundDuration":93926,"Delta":157937398},{"NoteNumber":56,"Velocity":20,"Duration":93926,"SoundDuration":93926,"Delta":157937398},{"NoteNumber":70,"Velocity":25,"Duration":93926,"SoundDuration":93926,"Delta":157937398},{"NoteNumber":72,"Velocity":31,"Duration":93926,"SoundDuration":93926,"Delta":158031324},{"NoteNumber":65,"Velocity":30,"Duration":102951,"SoundDuration":102951,"Delta":158125250},{"NoteNumber":77,"Velocity":36,"Duration":102951,"SoundDuration":102951,"Delta":158125250},{"NoteNumber":62,"Velocity":17,"Duration":102951,"SoundDuration":102951,"Delta":158125250},{"NoteNumber":70,"Velocity":22,"Duration":102951,"SoundDuration":102951,"Delta":158125250},{"NoteNumber":71,"Velocity":29,"Duration":102951,"SoundDuration":102951,"Delta":158228202},{"NoteNumber":65,"Velocity":33,"Duration":187852,"SoundDuration":187852,"Delta":158331153},{"NoteNumber":76,"Velocity":39,"Duration":93926,"SoundDuration":93926,"Delta":158331153},{"NoteNumber":56,"Velocity":20,"Duration":187852,"SoundDuration":187852,"Delta":158331153},{"NoteNumber":70,"Velocity":22,"Duration":187852,"SoundDuration":187852,"Delta":158331153},{"NoteNumber":75,"Velocity":36,"Duration":93926,"SoundDuration":93926,"Delta":158425079},{"NoteNumber":74,"Velocity":36,"Duration":201839,"SoundDuration":201839,"Delta":158519005},{"NoteNumber":42,"Velocity":46,"Duration":186335,"SoundDuration":186335,"Delta":158720845},{"NoteNumber":30,"Velocity":46,"Duration":186335,"SoundDuration":186335,"Delta":158720845},{"NoteNumber":70,"Velocity":30,"Duration":100874,"SoundDuration":100874,"Delta":158907180},{"NoteNumber":82,"Velocity":37,"Duration":100874,"SoundDuration":100874,"Delta":158907180},{"NoteNumber":73,"Velocity":29,"Duration":100874,"SoundDuration":100874,"Delta":158907180},{"NoteNumber":54,"Velocity":17,"Duration":100874,"SoundDuration":100874,"Delta":158907180},{"NoteNumber":61,"Velocity":17,"Duration":100874,"SoundDuration":100874,"Delta":158907180},{"NoteNumber":64,"Velocity":22,"Duration":100874,"SoundDuration":100874,"Delta":158907180},{"NoteNumber":70,"Velocity":35,"Duration":187852,"SoundDuration":187852,"Delta":159108929},{"NoteNumber":73,"Velocity":35,"Duration":187852,"SoundDuration":187852,"Delta":159108929},{"NoteNumber":80,"Velocity":41,"Duration":93926,"SoundDuration":93926,"Delta":159108929},{"NoteNumber":64,"Velocity":23,"Duration":187852,"SoundDuration":187852,"Delta":159108929},{"NoteNumber":61,"Velocity":21,"Duration":187852,"SoundDuration":187852,"Delta":159108929},{"NoteNumber":58,"Velocity":21,"Duration":187852,"SoundDuration":187852,"Delta":159108929},{"NoteNumber":79,"Velocity":39,"Duration":93926,"SoundDuration":93926,"Delta":159202855},{"NoteNumber":78,"Velocity":39,"Duration":205037,"SoundDuration":205037,"Delta":159296781},{"NoteNumber":35,"Velocity":52,"Duration":187500,"SoundDuration":187500,"Delta":159501818},{"NoteNumber":47,"Velocity":52,"Duration":187500,"SoundDuration":187500,"Delta":159501818},{"NoteNumber":78,"Velocity":34,"Duration":100874,"SoundDuration":100874,"Delta":159689318},{"NoteNumber":87,"Velocity":42,"Duration":100874,"SoundDuration":100874,"Delta":159689318},{"NoteNumber":75,"Velocity":35,"Duration":100874,"SoundDuration":100874,"Delta":159689318},{"NoteNumber":59,"Velocity":20,"Duration":100874,"SoundDuration":100874,"Delta":159689318},{"NoteNumber":66,"Velocity":20,"Duration":100874,"SoundDuration":100874,"Delta":159689318},{"NoteNumber":69,"Velocity":26,"Duration":100874,"SoundDuration":100874,"Delta":159689318},{"NoteNumber":75,"Velocity":40,"Duration":187852,"SoundDuration":187852,"Delta":159891067},{"NoteNumber":78,"Velocity":40,"Duration":187852,"SoundDuration":187852,"Delta":159891067},{"NoteNumber":85,"Velocity":47,"Duration":93926,"SoundDuration":93926,"Delta":159891067},{"NoteNumber":63,"Velocity":24,"Duration":187852,"SoundDuration":187852,"Delta":159891067},{"NoteNumber":69,"Velocity":26,"Duration":187852,"SoundDuration":187852,"Delta":159891067},{"NoteNumber":66,"Velocity":24,"Duration":187852,"SoundDuration":187852,"Delta":159891067},{"NoteNumber":84,"Velocity":44,"Duration":93926,"SoundDuration":93926,"Delta":159984993},{"NoteNumber":83,"Velocity":45,"Duration":187852,"SoundDuration":187852,"Delta":160078919},{"NoteNumber":29,"Velocity":59,"Duration":207629,"SoundDuration":207629,"Delta":160266771},{"NoteNumber":41,"Velocity":59,"Duration":207629,"SoundDuration":207629,"Delta":160266771},{"NoteNumber":87,"Velocity":42,"Duration":101249,"SoundDuration":101249,"Delta":160474401},{"NoteNumber":84,"Velocity":42,"Duration":101249,"SoundDuration":101249,"Delta":160474401},{"NoteNumber":93,"Velocity":50,"Duration":101249,"SoundDuration":101249,"Delta":160474401},{"NoteNumber":53,"Velocity":46,"Duration":101249,"SoundDuration":101249,"Delta":160474401},{"NoteNumber":52,"Velocity":39,"Duration":100874,"SoundDuration":100874,"Delta":160575651},{"NoteNumber":84,"Velocity":45,"Duration":100234,"SoundDuration":100234,"Delta":160676525},{"NoteNumber":92,"Velocity":54,"Duration":100234,"SoundDuration":100234,"Delta":160676525},{"NoteNumber":87,"Velocity":45,"Duration":100234,"SoundDuration":100234,"Delta":160676525},{"NoteNumber":54,"Velocity":46,"Duration":100234,"SoundDuration":100234,"Delta":160676525},{"NoteNumber":53,"Velocity":39,"Duration":99901,"SoundDuration":99901,"Delta":160776759},{"NoteNumber":84,"Velocity":45,"Duration":99535,"SoundDuration":99535,"Delta":160876661},{"NoteNumber":87,"Velocity":45,"Duration":99535,"SoundDuration":99535,"Delta":160876661},{"NoteNumber":91,"Velocity":53,"Duration":99535,"SoundDuration":99535,"Delta":160876661},{"NoteNumber":55,"Velocity":46,"Duration":99535,"SoundDuration":99535,"Delta":160876661},{"NoteNumber":54,"Velocity":39,"Duration":98912,"SoundDuration":98912,"Delta":160976196},{"NoteNumber":87,"Velocity":42,"Duration":98588,"SoundDuration":98588,"Delta":161075108},{"NoteNumber":90,"Velocity":50,"Duration":98588,"SoundDuration":98588,"Delta":161075108},{"NoteNumber":84,"Velocity":42,"Duration":98588,"SoundDuration":98588,"Delta":161075108},{"NoteNumber":56,"Velocity":46,"Duration":98588,"SoundDuration":98588,"Delta":161075108},{"NoteNumber":55,"Velocity":40,"Duration":98231,"SoundDuration":98231,"Delta":161173696},{"NoteNumber":81,"Velocity":42,"Duration":97624,"SoundDuration":97624,"Delta":161271928},{"NoteNumber":84,"Velocity":42,"Duration":97624,"SoundDuration":97624,"Delta":161271928},{"NoteNumber":89,"Velocity":50,"Duration":97624,"SoundDuration":97624,"Delta":161271928},{"NoteNumber":57,"Velocity":46,"Duration":97624,"SoundDuration":97624,"Delta":161271928},{"NoteNumber":56,"Velocity":40,"Duration":97308,"SoundDuration":97308,"Delta":161369553},{"NoteNumber":88,"Velocity":49,"Duration":96961,"SoundDuration":96961,"Delta":161466862},{"NoteNumber":84,"Velocity":41,"Duration":96961,"SoundDuration":96961,"Delta":161466862},{"NoteNumber":81,"Velocity":41,"Duration":96961,"SoundDuration":96961,"Delta":161466862},{"NoteNumber":58,"Velocity":46,"Duration":96961,"SoundDuration":96961,"Delta":161466862},{"NoteNumber":57,"Velocity":40,"Duration":96370,"SoundDuration":96370,"Delta":161563824},{"NoteNumber":84,"Velocity":40,"Duration":96062,"SoundDuration":96062,"Delta":161660194},{"NoteNumber":81,"Velocity":40,"Duration":96062,"SoundDuration":96062,"Delta":161660194},{"NoteNumber":87,"Velocity":48,"Duration":96062,"SoundDuration":96062,"Delta":161660194},{"NoteNumber":59,"Velocity":46,"Duration":96062,"SoundDuration":96062,"Delta":161660194},{"NoteNumber":58,"Velocity":40,"Duration":95724,"SoundDuration":95724,"Delta":161756256},{"NoteNumber":81,"Velocity":45,"Duration":95147,"SoundDuration":95147,"Delta":161851981},{"NoteNumber":78,"Velocity":45,"Duration":95147,"SoundDuration":95147,"Delta":161851981},{"NoteNumber":86,"Velocity":53,"Duration":95147,"SoundDuration":95147,"Delta":161851981},{"NoteNumber":60,"Velocity":46,"Duration":95147,"SoundDuration":95147,"Delta":161851981},{"NoteNumber":59,"Velocity":46,"Duration":95117,"SoundDuration":95117,"Delta":161947128},{"NoteNumber":78,"Velocity":45,"Duration":95117,"SoundDuration":95117,"Delta":162042246},{"NoteNumber":85,"Velocity":54,"Duration":95117,"SoundDuration":95117,"Delta":162042246},{"NoteNumber":81,"Velocity":45,"Duration":95117,"SoundDuration":95117,"Delta":162042246},{"NoteNumber":61,"Velocity":46,"Duration":95117,"SoundDuration":95117,"Delta":162042246},{"NoteNumber":60,"Velocity":42,"Duration":95117,"SoundDuration":95117,"Delta":162137363},{"NoteNumber":78,"Velocity":45,"Duration":95117,"SoundDuration":95117,"Delta":162232480},{"NoteNumber":81,"Velocity":45,"Duration":95117,"SoundDuration":95117,"Delta":162232480},{"NoteNumber":84,"Velocity":54,"Duration":95117,"SoundDuration":95117,"Delta":162232480},{"NoteNumber":62,"Velocity":48,"Duration":95117,"SoundDuration":95117,"Delta":162232480},{"NoteNumber":61,"Velocity":42,"Duration":95117,"SoundDuration":95117,"Delta":162327597},{"NoteNumber":78,"Velocity":46,"Duration":95117,"SoundDuration":95117,"Delta":162422715},{"NoteNumber":75,"Velocity":46,"Duration":95117,"SoundDuration":95117,"Delta":162422715},{"NoteNumber":83,"Velocity":55,"Duration":95117,"SoundDuration":95117,"Delta":162422715},{"NoteNumber":63,"Velocity":49,"Duration":95117,"SoundDuration":95117,"Delta":162422715},{"NoteNumber":62,"Velocity":46,"Duration":95117,"SoundDuration":95117,"Delta":162517832},{"NoteNumber":82,"Velocity":57,"Duration":95694,"SoundDuration":95694,"Delta":162612949},{"NoteNumber":78,"Velocity":46,"Duration":95694,"SoundDuration":95694,"Delta":162612949},{"NoteNumber":75,"Velocity":46,"Duration":95694,"SoundDuration":95694,"Delta":162612949},{"NoteNumber":64,"Velocity":50,"Duration":95694,"SoundDuration":95694,"Delta":162612949},{"NoteNumber":63,"Velocity":46,"Duration":95847,"SoundDuration":95847,"Delta":162708643},{"NoteNumber":72,"Velocity":48,"Duration":96339,"SoundDuration":96339,"Delta":162804490},{"NoteNumber":75,"Velocity":48,"Duration":96339,"SoundDuration":96339,"Delta":162804490},{"NoteNumber":81,"Velocity":58,"Duration":96339,"SoundDuration":96339,"Delta":162804490},{"NoteNumber":65,"Velocity":54,"Duration":96339,"SoundDuration":96339,"Delta":162804490},{"NoteNumber":64,"Velocity":48,"Duration":96775,"SoundDuration":96775,"Delta":162900830},{"NoteNumber":75,"Velocity":49,"Duration":96961,"SoundDuration":96961,"Delta":162997605},{"NoteNumber":72,"Velocity":49,"Duration":96961,"SoundDuration":96961,"Delta":162997605},{"NoteNumber":80,"Velocity":58,"Duration":96961,"SoundDuration":96961,"Delta":162997605},{"NoteNumber":66,"Velocity":57,"Duration":96961,"SoundDuration":96961,"Delta":162997605},{"NoteNumber":65,"Velocity":53,"Duration":97561,"SoundDuration":97561,"Delta":163094566},{"NoteNumber":75,"Velocity":50,"Duration":97880,"SoundDuration":97880,"Delta":163192128},{"NoteNumber":79,"Velocity":59,"Duration":97880,"SoundDuration":97880,"Delta":163192128},{"NoteNumber":72,"Velocity":50,"Duration":97880,"SoundDuration":97880,"Delta":163192128},{"NoteNumber":67,"Velocity":58,"Duration":97880,"SoundDuration":97880,"Delta":163192128},{"NoteNumber":66,"Velocity":55,"Duration":98231,"SoundDuration":98231,"Delta":163290008},{"NoteNumber":72,"Velocity":50,"Duration":98847,"SoundDuration":98847,"Delta":163388240},{"NoteNumber":78,"Velocity":62,"Duration":98847,"SoundDuration":98847,"Delta":163388240},{"NoteNumber":75,"Velocity":50,"Duration":98847,"SoundDuration":98847,"Delta":163388240},{"NoteNumber":68,"Velocity":62,"Duration":98847,"SoundDuration":98847,"Delta":163388240},{"NoteNumber":67,"Velocity":53,"Duration":98879,"SoundDuration":98879,"Delta":163487087},{"NoteNumber":77,"Velocity":59,"Duration":98879,"SoundDuration":98879,"Delta":163585966},{"NoteNumber":75,"Velocity":50,"Duration":98879,"SoundDuration":98879,"Delta":163585966},{"NoteNumber":72,"Velocity":50,"Duration":98879,"SoundDuration":98879,"Delta":163585966},{"NoteNumber":69,"Velocity":58,"Duration":98879,"SoundDuration":98879,"Delta":163585966},{"NoteNumber":68,"Velocity":50,"Duration":98879,"SoundDuration":98879,"Delta":163684846},{"NoteNumber":75,"Velocity":48,"Duration":98879,"SoundDuration":98879,"Delta":163783725},{"NoteNumber":79,"Velocity":58,"Duration":98879,"SoundDuration":98879,"Delta":163783725},{"NoteNumber":70,"Velocity":54,"Duration":98879,"SoundDuration":98879,"Delta":163783725},{"NoteNumber":69,"Velocity":48,"Duration":98879,"SoundDuration":98879,"Delta":163882604},{"NoteNumber":77,"Velocity":55,"Duration":98879,"SoundDuration":98879,"Delta":163981484},{"NoteNumber":75,"Velocity":46,"Duration":98879,"SoundDuration":98879,"Delta":163981484},{"NoteNumber":72,"Velocity":50,"Duration":98879,"SoundDuration":98879,"Delta":163981484},{"NoteNumber":69,"Velocity":42,"Duration":98879,"SoundDuration":98879,"Delta":164080363},{"NoteNumber":75,"Velocity":37,"Duration":197758,"SoundDuration":197758,"Delta":164179243},{"NoteNumber":78,"Velocity":45,"Duration":197758,"SoundDuration":197758,"Delta":164179243},{"NoteNumber":68,"Velocity":38,"Duration":98879,"SoundDuration":98879,"Delta":164179243},{"NoteNumber":71,"Velocity":35,"Duration":98879,"SoundDuration":98879,"Delta":164278122},{"NoteNumber":75,"Velocity":37,"Duration":197758,"SoundDuration":197758,"Delta":164377001},{"NoteNumber":77,"Velocity":37,"Duration":197758,"SoundDuration":197758,"Delta":164377001},{"NoteNumber":69,"Velocity":38,"Duration":98879,"SoundDuration":98879,"Delta":164377001},{"NoteNumber":72,"Velocity":33,"Duration":98879,"SoundDuration":98879,"Delta":164475881},{"NoteNumber":75,"Velocity":37,"Duration":197758,"SoundDuration":197758,"Delta":164574760},{"NoteNumber":79,"Velocity":45,"Duration":197758,"SoundDuration":197758,"Delta":164574760},{"NoteNumber":68,"Velocity":38,"Duration":98879,"SoundDuration":98879,"Delta":164574760},{"NoteNumber":71,"Velocity":35,"Duration":98879,"SoundDuration":98879,"Delta":164673639},{"NoteNumber":77,"Velocity":38,"Duration":197758,"SoundDuration":197758,"Delta":164772519},{"NoteNumber":75,"Velocity":32,"Duration":197758,"SoundDuration":197758,"Delta":164772519},{"NoteNumber":69,"Velocity":38,"Duration":98879,"SoundDuration":98879,"Delta":164772519},{"NoteNumber":72,"Velocity":35,"Duration":98879,"SoundDuration":98879,"Delta":164871398},{"NoteNumber":78,"Velocity":45,"Duration":195753,"SoundDuration":195753,"Delta":164970278},{"NoteNumber":75,"Velocity":37,"Duration":195753,"SoundDuration":195753,"Delta":164970278},{"NoteNumber":68,"Velocity":38,"Duration":98085,"SoundDuration":98085,"Delta":164970278},{"NoteNumber":71,"Velocity":35,"Duration":97667,"SoundDuration":97667,"Delta":165068364},{"NoteNumber":77,"Velocity":37,"Duration":197024,"SoundDuration":197024,"Delta":165166031},{"NoteNumber":75,"Velocity":31,"Duration":197024,"SoundDuration":197024,"Delta":165166031},{"NoteNumber":69,"Velocity":37,"Duration":98231,"SoundDuration":98231,"Delta":165166031},{"NoteNumber":72,"Velocity":32,"Duration":98793,"SoundDuration":98793,"Delta":165264263},{"NoteNumber":79,"Velocity":42,"Duration":199063,"SoundDuration":199063,"Delta":165363056},{"NoteNumber":75,"Velocity":35,"Duration":199063,"SoundDuration":199063,"Delta":165363056},{"NoteNumber":68,"Velocity":36,"Duration":99283,"SoundDuration":99283,"Delta":165363056},{"NoteNumber":71,"Velocity":31,"Duration":99779,"SoundDuration":99779,"Delta":165462340},{"NoteNumber":75,"Velocity":29,"Duration":201153,"SoundDuration":201153,"Delta":165562119},{"NoteNumber":77,"Velocity":36,"Duration":201153,"SoundDuration":201153,"Delta":165562119},{"NoteNumber":69,"Velocity":36,"Duration":100278,"SoundDuration":100278,"Delta":165562119},{"NoteNumber":72,"Velocity":30,"Duration":100874,"SoundDuration":100874,"Delta":165662398},{"NoteNumber":75,"Velocity":33,"Duration":205892,"SoundDuration":205892,"Delta":165763272},{"NoteNumber":79,"Velocity":39,"Duration":205892,"SoundDuration":205892,"Delta":165763272},{"NoteNumber":68,"Velocity":35,"Duration":101974,"SoundDuration":101974,"Delta":165763272},{"NoteNumber":71,"Velocity":29,"Duration":103917,"SoundDuration":103917,"Delta":165865247},{"NoteNumber":75,"Velocity":28,"Duration":214354,"SoundDuration":214354,"Delta":165969165},{"NoteNumber":77,"Velocity":33,"Duration":214354,"SoundDuration":214354,"Delta":165969165},{"NoteNumber":69,"Velocity":33,"Duration":106123,"SoundDuration":106123,"Delta":165969165},{"NoteNumber":72,"Velocity":28,"Duration":108231,"SoundDuration":108231,"Delta":166075288},{"NoteNumber":75,"Velocity":31,"Duration":222684,"SoundDuration":222684,"Delta":166183520},{"NoteNumber":79,"Velocity":37,"Duration":222684,"SoundDuration":222684,"Delta":166183520},{"NoteNumber":68,"Velocity":32,"Duration":110528,"SoundDuration":110528,"Delta":166183520},{"NoteNumber":71,"Velocity":27,"Duration":112155,"SoundDuration":112155,"Delta":166294049},{"NoteNumber":75,"Velocity":26,"Duration":273472,"SoundDuration":273472,"Delta":166406204},{"NoteNumber":77,"Velocity":31,"Duration":273472,"SoundDuration":273472,"Delta":166406204},{"NoteNumber":69,"Velocity":31,"Duration":136736,"SoundDuration":136736,"Delta":166406204},{"NoteNumber":72,"Velocity":26,"Duration":136736,"SoundDuration":136736,"Delta":166542941},{"NoteNumber":77,"Velocity":35,"Duration":248549,"SoundDuration":248549,"Delta":166679677},{"NoteNumber":74,"Velocity":28,"Duration":248549,"SoundDuration":248549,"Delta":166679677},{"NoteNumber":70,"Velocity":30,"Duration":248549,"SoundDuration":248549,"Delta":166679677},{"NoteNumber":62,"Velocity":35,"Duration":119442,"SoundDuration":119442,"Delta":167176777},{"NoteNumber":63,"Velocity":35,"Duration":119442,"SoundDuration":119442,"Delta":167276313},{"NoteNumber":62,"Velocity":35,"Duration":119442,"SoundDuration":119442,"Delta":167375848},{"NoteNumber":64,"Velocity":35,"Duration":117805,"SoundDuration":117805,"Delta":167475384},{"NoteNumber":65,"Velocity":36,"Duration":112711,"SoundDuration":112711,"Delta":167574404},{"NoteNumber":59,"Velocity":30,"Duration":1133556,"SoundDuration":1133556,"Delta":167574404},{"NoteNumber":50,"Velocity":30,"Duration":1133556,"SoundDuration":1133556,"Delta":167574404},{"NoteNumber":56,"Velocity":30,"Duration":1133556,"SoundDuration":1133556,"Delta":167574404},{"NoteNumber":66,"Velocity":36,"Duration":112711,"SoundDuration":112711,"Delta":167668330},{"NoteNumber":65,"Velocity":36,"Duration":112711,"SoundDuration":112711,"Delta":167762256},{"NoteNumber":67,"Velocity":36,"Duration":112711,"SoundDuration":112711,"Delta":167856182},{"NoteNumber":68,"Velocity":36,"Duration":112711,"SoundDuration":112711,"Delta":167950108},{"NoteNumber":69,"Velocity":36,"Duration":112711,"SoundDuration":112711,"Delta":168044034},{"NoteNumber":68,"Velocity":37,"Duration":112711,"SoundDuration":112711,"Delta":168137960},{"NoteNumber":70,"Velocity":37,"Duration":113701,"SoundDuration":113701,"Delta":168231887},{"NoteNumber":71,"Velocity":37,"Duration":118655,"SoundDuration":118655,"Delta":168325813},{"NoteNumber":72,"Velocity":37,"Duration":117318,"SoundDuration":117318,"Delta":168424692},{"NoteNumber":71,"Velocity":38,"Duration":110633,"SoundDuration":110633,"Delta":168523571},{"NoteNumber":62,"Velocity":43,"Duration":92194,"SoundDuration":92194,"Delta":168523571},{"NoteNumber":73,"Velocity":38,"Duration":110747,"SoundDuration":110747,"Delta":168615766},{"NoteNumber":74,"Velocity":38,"Duration":111317,"SoundDuration":111317,"Delta":168707960},{"NoteNumber":56,"Velocity":30,"Duration":371057,"SoundDuration":371057,"Delta":168707960},{"NoteNumber":53,"Velocity":30,"Duration":371057,"SoundDuration":371057,"Delta":168707960},{"NoteNumber":61,"Velocity":43,"Duration":92764,"SoundDuration":92764,"Delta":168707960},{"NoteNumber":75,"Velocity":39,"Duration":111317,"SoundDuration":111317,"Delta":168800724},{"NoteNumber":74,"Velocity":39,"Duration":111317,"SoundDuration":111317,"Delta":168893489},{"NoteNumber":60,"Velocity":43,"Duration":92764,"SoundDuration":92764,"Delta":168893489},{"NoteNumber":76,"Velocity":39,"Duration":111317,"SoundDuration":111317,"Delta":168986253},{"NoteNumber":77,"Velocity":39,"Duration":111317,"SoundDuration":111317,"Delta":169079017},{"NoteNumber":50,"Velocity":30,"Duration":385929,"SoundDuration":385929,"Delta":169079017},{"NoteNumber":59,"Velocity":43,"Duration":92764,"SoundDuration":92764,"Delta":169079017},{"NoteNumber":55,"Velocity":30,"Duration":385929,"SoundDuration":385929,"Delta":169079017},{"NoteNumber":78,"Velocity":38,"Duration":112804,"SoundDuration":112804,"Delta":169171782},{"NoteNumber":77,"Velocity":38,"Duration":120240,"SoundDuration":120240,"Delta":169264546},{"NoteNumber":62,"Velocity":43,"Duration":100200,"SoundDuration":100200,"Delta":169264546},{"NoteNumber":79,"Velocity":38,"Duration":118985,"SoundDuration":118985,"Delta":169364747},{"NoteNumber":80,"Velocity":38,"Duration":112711,"SoundDuration":112711,"Delta":169464947},{"NoteNumber":53,"Velocity":30,"Duration":375704,"SoundDuration":375704,"Delta":169464947},{"NoteNumber":55,"Velocity":30,"Duration":375704,"SoundDuration":375704,"Delta":169464947},{"NoteNumber":61,"Velocity":43,"Duration":93926,"SoundDuration":93926,"Delta":169464947},{"NoteNumber":81,"Velocity":39,"Duration":112711,"SoundDuration":112711,"Delta":169558873},{"NoteNumber":60,"Velocity":43,"Duration":93926,"SoundDuration":93926,"Delta":169558873},{"NoteNumber":80,"Velocity":39,"Duration":112711,"SoundDuration":112711,"Delta":169652799},{"NoteNumber":59,"Velocity":43,"Duration":93926,"SoundDuration":93926,"Delta":169652799},{"NoteNumber":83,"Velocity":39,"Duration":112711,"SoundDuration":112711,"Delta":169746725},{"NoteNumber":86,"Velocity":39,"Duration":93926,"SoundDuration":93926,"Delta":169840651},{"NoteNumber":54,"Velocity":28,"Duration":187852,"SoundDuration":187852,"Delta":169840651},{"NoteNumber":50,"Velocity":28,"Duration":187852,"SoundDuration":187852,"Delta":169840651},{"NoteNumber":62,"Velocity":36,"Duration":187852,"SoundDuration":187852,"Delta":169840651},{"NoteNumber":57,"Velocity":28,"Duration":187852,"SoundDuration":187852,"Delta":169840651},{"NoteNumber":87,"Velocity":41,"Duration":93926,"SoundDuration":93926,"Delta":169934578},{"NoteNumber":86,"Velocity":41,"Duration":93926,"SoundDuration":93926,"Delta":170028504},{"NoteNumber":89,"Velocity":41,"Duration":93926,"SoundDuration":93926,"Delta":170122430},{"NoteNumber":90,"Velocity":41,"Duration":93926,"SoundDuration":93926,"Delta":170216356},{"NoteNumber":91,"Velocity":42,"Duration":93926,"SoundDuration":93926,"Delta":170310282},{"NoteNumber":90,"Velocity":42,"Duration":93926,"SoundDuration":93926,"Delta":170404208},{"NoteNumber":92,"Velocity":42,"Duration":93926,"SoundDuration":93926,"Delta":170498134},{"NoteNumber":93,"Velocity":43,"Duration":93926,"SoundDuration":93926,"Delta":170592060},{"NoteNumber":94,"Velocity":43,"Duration":93926,"SoundDuration":93926,"Delta":170685987},{"NoteNumber":93,"Velocity":43,"Duration":93926,"SoundDuration":93926,"Delta":170779913},{"NoteNumber":97,"Velocity":43,"Duration":93926,"SoundDuration":93926,"Delta":170873839},{"NoteNumber":98,"Velocity":44,"Duration":93926,"SoundDuration":93926,"Delta":170967765},{"NoteNumber":97,"Velocity":44,"Duration":93926,"SoundDuration":93926,"Delta":171061691},{"NoteNumber":98,"Velocity":44,"Duration":93926,"SoundDuration":93926,"Delta":171155617},{"NoteNumber":97,"Velocity":44,"Duration":105857,"SoundDuration":105857,"Delta":171249543},{"NoteNumber":96,"Velocity":45,"Duration":92194,"SoundDuration":92194,"Delta":171355401},{"NoteNumber":99,"Velocity":55,"Duration":368776,"SoundDuration":368776,"Delta":171355401},{"NoteNumber":55,"Velocity":28,"Duration":184388,"SoundDuration":184388,"Delta":171355401},{"NoteNumber":48,"Velocity":28,"Duration":184388,"SoundDuration":184388,"Delta":171355401},{"NoteNumber":63,"Velocity":36,"Duration":184388,"SoundDuration":184388,"Delta":171355401},{"NoteNumber":95,"Velocity":39,"Duration":92194,"SoundDuration":92194,"Delta":171447595},{"NoteNumber":96,"Velocity":39,"Duration":92194,"SoundDuration":92194,"Delta":171539789},{"NoteNumber":94,"Velocity":39,"Duration":92194,"SoundDuration":92194,"Delta":171631984},{"NoteNumber":93,"Velocity":39,"Duration":92194,"SoundDuration":92194,"Delta":171724178},{"NoteNumber":91,"Velocity":39,"Duration":92194,"SoundDuration":92194,"Delta":171816372},{"NoteNumber":92,"Velocity":39,"Duration":92194,"SoundDuration":92194,"Delta":171908566},{"NoteNumber":90,"Velocity":39,"Duration":92194,"SoundDuration":92194,"Delta":172000761},{"NoteNumber":89,"Velocity":45,"Duration":92194,"SoundDuration":92194,"Delta":172092955},{"NoteNumber":101,"Velocity":54,"Duration":368777,"SoundDuration":368777,"Delta":172092955},{"NoteNumber":48,"Velocity":28,"Duration":184388,"SoundDuration":184388,"Delta":172092955},{"NoteNumber":57,"Velocity":36,"Duration":184388,"SoundDuration":184388,"Delta":172092955},{"NoteNumber":51,"Velocity":28,"Duration":184388,"SoundDuration":184388,"Delta":172092955},{"NoteNumber":41,"Velocity":28,"Duration":184388,"SoundDuration":184388,"Delta":172092955},{"NoteNumber":88,"Velocity":39,"Duration":92194,"SoundDuration":92194,"Delta":172185149},{"NoteNumber":89,"Velocity":39,"Duration":92194,"SoundDuration":92194,"Delta":172277343},{"NoteNumber":87,"Velocity":39,"Duration":92194,"SoundDuration":92194,"Delta":172369538},{"NoteNumber":86,"Velocity":39,"Duration":92194,"SoundDuration":92194,"Delta":172461732},{"NoteNumber":85,"Velocity":39,"Duration":92194,"SoundDuration":92194,"Delta":172553926},{"NoteNumber":84,"Velocity":39,"Duration":92194,"SoundDuration":92194,"Delta":172646120},{"NoteNumber":83,"Velocity":39,"Duration":75357,"SoundDuration":75357,"Delta":172738315},{"NoteNumber":46,"Velocity":28,"Duration":168122,"SoundDuration":168122,"Delta":172775994},{"NoteNumber":53,"Velocity":28,"Duration":149282,"SoundDuration":149282,"Delta":172794833},{"NoteNumber":62,"Velocity":36,"Duration":130443,"SoundDuration":130443,"Delta":172813673},{"NoteNumber":82,"Velocity":49,"Duration":111603,"SoundDuration":111603,"Delta":172832512},{"NoteNumber":98,"Velocity":58,"Duration":92764,"SoundDuration":92764,"Delta":172851351},{"NoteNumber":38,"Velocity":35,"Duration":119442,"SoundDuration":119442,"Delta":173222409},{"NoteNumber":39,"Velocity":35,"Duration":119442,"SoundDuration":119442,"Delta":173321944},{"NoteNumber":38,"Velocity":35,"Duration":119442,"SoundDuration":119442,"Delta":173421480},{"NoteNumber":40,"Velocity":35,"Duration":118043,"SoundDuration":118043,"Delta":173521015},{"NoteNumber":53,"Velocity":30,"Duration":760938,"SoundDuration":760938,"Delta":173620036},{"NoteNumber":62,"Velocity":30,"Duration":760938,"SoundDuration":760938,"Delta":173620036},{"NoteNumber":59,"Velocity":30,"Duration":760938,"SoundDuration":760938,"Delta":173620036},{"NoteNumber":56,"Velocity":30,"Duration":760938,"SoundDuration":760938,"Delta":173620036},{"NoteNumber":41,"Velocity":36,"Duration":114140,"SoundDuration":114140,"Delta":173620036},{"NoteNumber":42,"Velocity":36,"Duration":114140,"SoundDuration":114140,"Delta":173715153},{"NoteNumber":41,"Velocity":36,"Duration":114140,"SoundDuration":114140,"Delta":173810270},{"NoteNumber":43,"Velocity":36,"Duration":114140,"SoundDuration":114140,"Delta":173905387},{"NoteNumber":44,"Velocity":36,"Duration":114140,"SoundDuration":114140,"Delta":174000505},{"NoteNumber":45,"Velocity":36,"Duration":114140,"SoundDuration":114140,"Delta":174095622},{"NoteNumber":44,"Velocity":37,"Duration":114140,"SoundDuration":114140,"Delta":174190739},{"NoteNumber":46,"Velocity":37,"Duration":114893,"SoundDuration":114893,"Delta":174285856},{"NoteNumber":47,"Velocity":37,"Duration":118655,"SoundDuration":118655,"Delta":174380974},{"NoteNumber":48,"Velocity":37,"Duration":117432,"SoundDuration":117432,"Delta":174479853},{"NoteNumber":86,"Velocity":46,"Duration":92764,"SoundDuration":92764,"Delta":174578732},{"NoteNumber":80,"Velocity":33,"Duration":92764,"SoundDuration":92764,"Delta":174578732},{"NoteNumber":77,"Velocity":33,"Duration":92764,"SoundDuration":92764,"Delta":174578732},{"NoteNumber":47,"Velocity":38,"Duration":111317,"SoundDuration":111317,"Delta":174578732},{"NoteNumber":49,"Velocity":38,"Duration":111317,"SoundDuration":111317,"Delta":174671497},{"NoteNumber":85,"Velocity":46,"Duration":92764,"SoundDuration":92764,"Delta":174764261},{"NoteNumber":80,"Velocity":33,"Duration":92764,"SoundDuration":92764,"Delta":174764261},{"NoteNumber":77,"Velocity":33,"Duration":92764,"SoundDuration":92764,"Delta":174764261},{"NoteNumber":50,"Velocity":38,"Duration":111317,"SoundDuration":111317,"Delta":174764261},{"NoteNumber":51,"Velocity":39,"Duration":111317,"SoundDuration":111317,"Delta":174857025},{"NoteNumber":77,"Velocity":33,"Duration":92764,"SoundDuration":92764,"Delta":174949790},{"NoteNumber":84,"Velocity":46,"Duration":92764,"SoundDuration":92764,"Delta":174949790},{"NoteNumber":80,"Velocity":33,"Duration":92764,"SoundDuration":92764,"Delta":174949790},{"NoteNumber":50,"Velocity":39,"Duration":111317,"SoundDuration":111317,"Delta":174949790},{"NoteNumber":52,"Velocity":39,"Duration":111317,"SoundDuration":111317,"Delta":175042554},{"NoteNumber":83,"Velocity":46,"Duration":92764,"SoundDuration":92764,"Delta":175135319},{"NoteNumber":80,"Velocity":33,"Duration":385929,"SoundDuration":385929,"Delta":175135319},{"NoteNumber":74,"Velocity":33,"Duration":385929,"SoundDuration":385929,"Delta":175135319},{"NoteNumber":53,"Velocity":39,"Duration":111317,"SoundDuration":111317,"Delta":175135319},{"NoteNumber":54,"Velocity":38,"Duration":112804,"SoundDuration":112804,"Delta":175228083},{"NoteNumber":86,"Velocity":49,"Duration":100200,"SoundDuration":100200,"Delta":175320847},{"NoteNumber":53,"Velocity":38,"Duration":120240,"SoundDuration":120240,"Delta":175320847},{"NoteNumber":55,"Velocity":38,"Duration":118985,"SoundDuration":118985,"Delta":175421048},{"NoteNumber":74,"Velocity":27,"Duration":93926,"SoundDuration":93926,"Delta":175521248},{"NoteNumber":85,"Velocity":50,"Duration":93926,"SoundDuration":93926,"Delta":175521248},{"NoteNumber":77,"Velocity":29,"Duration":93926,"SoundDuration":93926,"Delta":175521248},{"NoteNumber":56,"Velocity":38,"Duration":112711,"SoundDuration":112711,"Delta":175521248},{"NoteNumber":84,"Velocity":46,"Duration":93926,"SoundDuration":93926,"Delta":175615174},{"NoteNumber":57,"Velocity":39,"Duration":112711,"SoundDuration":112711,"Delta":175615174},{"NoteNumber":83,"Velocity":46,"Duration":93926,"SoundDuration":93926,"Delta":175709100},{"NoteNumber":56,"Velocity":39,"Duration":112711,"SoundDuration":112711,"Delta":175709100},{"NoteNumber":59,"Velocity":39,"Duration":113234,"SoundDuration":113234,"Delta":175803026},{"NoteNumber":86,"Velocity":30,"Duration":189035,"SoundDuration":189035,"Delta":175897357},{"NoteNumber":78,"Velocity":30,"Duration":189035,"SoundDuration":189035,"Delta":175897357},{"NoteNumber":93,"Velocity":38,"Duration":189035,"SoundDuration":189035,"Delta":175897357},{"NoteNumber":62,"Velocity":33,"Duration":113421,"SoundDuration":113421,"Delta":175897357},{"NoteNumber":50,"Velocity":33,"Duration":377519,"SoundDuration":377519,"Delta":175897357},{"NoteNumber":63,"Velocity":35,"Duration":113421,"SoundDuration":113421,"Delta":175991875},{"NoteNumber":62,"Velocity":35,"Duration":113342,"SoundDuration":113342,"Delta":176086393},{"NoteNumber":65,"Velocity":35,"Duration":112750,"SoundDuration":112750,"Delta":176180911},{"NoteNumber":66,"Velocity":35,"Duration":112711,"SoundDuration":112711,"Delta":176274877},{"NoteNumber":67,"Velocity":35,"Duration":112711,"SoundDuration":112711,"Delta":176368803},{"NoteNumber":66,"Velocity":35,"Duration":112487,"SoundDuration":112487,"Delta":176462729},{"NoteNumber":68,"Velocity":35,"Duration":112009,"SoundDuration":112009,"Delta":176556548},{"NoteNumber":69,"Velocity":36,"Duration":112009,"SoundDuration":112009,"Delta":176649889},{"NoteNumber":70,"Velocity":36,"Duration":112009,"SoundDuration":112009,"Delta":176743231},{"NoteNumber":69,"Velocity":36,"Duration":111644,"SoundDuration":111644,"Delta":176836573},{"NoteNumber":73,"Velocity":36,"Duration":111317,"SoundDuration":111317,"Delta":176929664},{"NoteNumber":74,"Velocity":36,"Duration":111317,"SoundDuration":111317,"Delta":177022429},{"NoteNumber":73,"Velocity":36,"Duration":111317,"SoundDuration":111317,"Delta":177115193},{"NoteNumber":74,"Velocity":36,"Duration":113696,"SoundDuration":113696,"Delta":177207957},{"NoteNumber":73,"Velocity":36,"Duration":125048,"SoundDuration":125048,"Delta":177300332},{"NoteNumber":96,"Velocity":38,"Duration":184388,"SoundDuration":184388,"Delta":177406942},{"NoteNumber":87,"Velocity":30,"Duration":184388,"SoundDuration":184388,"Delta":177406942},{"NoteNumber":79,"Velocity":30,"Duration":184388,"SoundDuration":184388,"Delta":177406942},{"NoteNumber":60,"Velocity":45,"Duration":368776,"SoundDuration":368776,"Delta":177406942},{"NoteNumber":72,"Velocity":38,"Duration":110633,"SoundDuration":110633,"Delta":177406942},{"NoteNumber":71,"Velocity":33,"Duration":110633,"SoundDuration":110633,"Delta":177499136},{"NoteNumber":72,"Velocity":33,"Duration":110633,"SoundDuration":110633,"Delta":177591330},{"NoteNumber":70,"Velocity":33,"Duration":110633,"SoundDuration":110633,"Delta":177683525},{"NoteNumber":69,"Velocity":33,"Duration":110633,"SoundDuration":110633,"Delta":177775719},{"NoteNumber":67,"Velocity":33,"Duration":110633,"SoundDuration":110633,"Delta":177867913},{"NoteNumber":68,"Velocity":33,"Duration":110633,"SoundDuration":110633,"Delta":177960107},{"NoteNumber":66,"Velocity":33,"Duration":110633,"SoundDuration":110633,"Delta":178052302},{"NoteNumber":87,"Velocity":30,"Duration":184388,"SoundDuration":184388,"Delta":178144496},{"NoteNumber":93,"Velocity":30,"Duration":184388,"SoundDuration":184388,"Delta":178144496},{"NoteNumber":101,"Velocity":38,"Duration":184388,"SoundDuration":184388,"Delta":178144496},{"NoteNumber":53,"Velocity":45,"Duration":368777,"SoundDuration":368777,"Delta":178144496},{"NoteNumber":65,"Velocity":38,"Duration":110633,"SoundDuration":110633,"Delta":178144496},{"NoteNumber":64,"Velocity":33,"Duration":110633,"SoundDuration":110633,"Delta":178236690},{"NoteNumber":65,"Velocity":33,"Duration":110633,"SoundDuration":110633,"Delta":178328884},{"NoteNumber":63,"Velocity":33,"Duration":110633,"SoundDuration":110633,"Delta":178421079},{"NoteNumber":62,"Velocity":33,"Duration":110633,"SoundDuration":110633,"Delta":178513273},{"NoteNumber":61,"Velocity":33,"Duration":110633,"SoundDuration":110633,"Delta":178605467},{"NoteNumber":60,"Velocity":33,"Duration":113516,"SoundDuration":113516,"Delta":178697661},{"NoteNumber":59,"Velocity":33,"Duration":85287,"SoundDuration":85287,"Delta":178789856},{"NoteNumber":86,"Velocity":30,"Duration":92764,"SoundDuration":92764,"Delta":178896465},{"NoteNumber":101,"Velocity":38,"Duration":92764,"SoundDuration":92764,"Delta":178896465},{"NoteNumber":94,"Velocity":30,"Duration":92764,"SoundDuration":92764,"Delta":178896465},{"NoteNumber":46,"Velocity":41,"Duration":92764,"SoundDuration":92764,"Delta":178896465},{"NoteNumber":58,"Velocity":49,"Duration":92764,"SoundDuration":92764,"Delta":178896465},{"NoteNumber":50,"Velocity":31,"Duration":93539,"SoundDuration":93539,"Delta":179081994},{"NoteNumber":58,"Velocity":22,"Duration":93539,"SoundDuration":93539,"Delta":179081994},{"NoteNumber":53,"Velocity":26,"Duration":93539,"SoundDuration":93539,"Delta":179081994},{"NoteNumber":62,"Velocity":25,"Duration":93539,"SoundDuration":93539,"Delta":179175534},{"NoteNumber":48,"Velocity":36,"Duration":93539,"SoundDuration":93539,"Delta":179269073},{"NoteNumber":58,"Velocity":21,"Duration":93539,"SoundDuration":93539,"Delta":179269073},{"NoteNumber":54,"Velocity":25,"Duration":93539,"SoundDuration":93539,"Delta":179269073},{"NoteNumber":62,"Velocity":25,"Duration":93539,"SoundDuration":93539,"Delta":179362613},{"NoteNumber":47,"Velocity":32,"Duration":93539,"SoundDuration":93539,"Delta":179456152},{"NoteNumber":58,"Velocity":21,"Duration":93539,"SoundDuration":93539,"Delta":179456152},{"NoteNumber":55,"Velocity":25,"Duration":93539,"SoundDuration":93539,"Delta":179456152},{"NoteNumber":62,"Velocity":25,"Duration":93539,"SoundDuration":93539,"Delta":179549692},{"NoteNumber":46,"Velocity":36,"Duration":99760,"SoundDuration":99760,"Delta":179643231},{"NoteNumber":58,"Velocity":25,"Duration":99760,"SoundDuration":99760,"Delta":179643231},{"NoteNumber":54,"Velocity":30,"Duration":99760,"SoundDuration":99760,"Delta":179643231},{"NoteNumber":62,"Velocity":22,"Duration":91821,"SoundDuration":91821,"Delta":179742992},{"NoteNumber":50,"Velocity":32,"Duration":87535,"SoundDuration":87535,"Delta":179834813},{"NoteNumber":53,"Velocity":30,"Duration":87535,"SoundDuration":87535,"Delta":179834813},{"NoteNumber":58,"Velocity":25,"Duration":87535,"SoundDuration":87535,"Delta":179834813},{"NoteNumber":62,"Velocity":21,"Duration":87535,"SoundDuration":87535,"Delta":179922348},{"NoteNumber":48,"Velocity":36,"Duration":95932,"SoundDuration":95932,"Delta":180009883},{"NoteNumber":58,"Velocity":25,"Duration":95932,"SoundDuration":95932,"Delta":180009883},{"NoteNumber":54,"Velocity":30,"Duration":95932,"SoundDuration":95932,"Delta":180009883},{"NoteNumber":47,"Velocity":31,"Duration":95932,"SoundDuration":95932,"Delta":180105816},{"NoteNumber":62,"Velocity":25,"Duration":95932,"SoundDuration":95932,"Delta":180105816},{"NoteNumber":46,"Velocity":31,"Duration":95932,"SoundDuration":95932,"Delta":180201748},{"NoteNumber":58,"Velocity":25,"Duration":95932,"SoundDuration":95932,"Delta":180201748},{"NoteNumber":55,"Velocity":30,"Duration":95932,"SoundDuration":95932,"Delta":180201748},{"NoteNumber":62,"Velocity":22,"Duration":63954,"SoundDuration":63954,"Delta":180297681},{"NoteNumber":54,"Velocity":30,"Duration":177101,"SoundDuration":177101,"Delta":180361636},{"NoteNumber":57,"Velocity":30,"Duration":161112,"SoundDuration":161112,"Delta":180377625},{"NoteNumber":63,"Velocity":30,"Duration":145123,"SoundDuration":145123,"Delta":180393613},{"NoteNumber":87,"Velocity":37,"Duration":79986,"SoundDuration":79986,"Delta":180672993},{"NoteNumber":81,"Velocity":41,"Duration":79986,"SoundDuration":79986,"Delta":180672993},{"NoteNumber":78,"Velocity":41,"Duration":79986,"SoundDuration":79986,"Delta":180672993},{"NoteNumber":84,"Velocity":37,"Duration":80414,"SoundDuration":80414,"Delta":180752979},{"NoteNumber":80,"Velocity":36,"Duration":80957,"SoundDuration":80957,"Delta":180833394},{"NoteNumber":71,"Velocity":39,"Duration":80957,"SoundDuration":80957,"Delta":180833394},{"NoteNumber":74,"Velocity":39,"Duration":80957,"SoundDuration":80957,"Delta":180833394},{"NoteNumber":77,"Velocity":36,"Duration":81396,"SoundDuration":81396,"Delta":180914352},{"NoteNumber":81,"Velocity":36,"Duration":81841,"SoundDuration":81841,"Delta":180995749},{"NoteNumber":72,"Velocity":38,"Duration":81841,"SoundDuration":81841,"Delta":180995749},{"NoteNumber":75,"Velocity":38,"Duration":81841,"SoundDuration":81841,"Delta":180995749},{"NoteNumber":78,"Velocity":35,"Duration":82402,"SoundDuration":82402,"Delta":181077590},{"NoteNumber":74,"Velocity":35,"Duration":82858,"SoundDuration":82858,"Delta":181159993},{"NoteNumber":68,"Velocity":38,"Duration":82858,"SoundDuration":82858,"Delta":181159993},{"NoteNumber":65,"Velocity":38,"Duration":82858,"SoundDuration":82858,"Delta":181159993},{"NoteNumber":71,"Velocity":33,"Duration":83318,"SoundDuration":83318,"Delta":181242851},{"NoteNumber":75,"Velocity":33,"Duration":83900,"SoundDuration":83900,"Delta":181326169},{"NoteNumber":69,"Velocity":37,"Duration":83900,"SoundDuration":83900,"Delta":181326169},{"NoteNumber":66,"Velocity":37,"Duration":83900,"SoundDuration":83900,"Delta":181326169},{"NoteNumber":72,"Velocity":32,"Duration":84372,"SoundDuration":84372,"Delta":181410070},{"NoteNumber":68,"Velocity":32,"Duration":84930,"SoundDuration":84930,"Delta":181494443},{"NoteNumber":62,"Velocity":36,"Duration":84930,"SoundDuration":84930,"Delta":181494443},{"NoteNumber":59,"Velocity":36,"Duration":84930,"SoundDuration":84930,"Delta":181494443},{"NoteNumber":65,"Velocity":31,"Duration":85454,"SoundDuration":85454,"Delta":181579373},{"NoteNumber":69,"Velocity":30,"Duration":85943,"SoundDuration":85943,"Delta":181664827},{"NoteNumber":60,"Velocity":36,"Duration":85943,"SoundDuration":85943,"Delta":181664827},{"NoteNumber":63,"Velocity":36,"Duration":85943,"SoundDuration":85943,"Delta":181664827},{"NoteNumber":78,"Velocity":30,"Duration":86564,"SoundDuration":86564,"Delta":181750771},{"NoteNumber":77,"Velocity":38,"Duration":260055,"SoundDuration":260055,"Delta":181837335},{"NoteNumber":70,"Velocity":38,"Duration":260055,"SoundDuration":260055,"Delta":181837335},{"NoteNumber":41,"Velocity":45,"Duration":260055,"SoundDuration":260055,"Delta":181837335},{"NoteNumber":50,"Velocity":31,"Duration":93539,"SoundDuration":93539,"Delta":182097391},{"NoteNumber":58,"Velocity":22,"Duration":93539,"SoundDuration":93539,"Delta":182097391},{"NoteNumber":53,"Velocity":26,"Duration":93539,"SoundDuration":93539,"Delta":182097391},{"NoteNumber":62,"Velocity":25,"Duration":93539,"SoundDuration":93539,"Delta":182190930},{"NoteNumber":48,"Velocity":36,"Duration":93539,"SoundDuration":93539,"Delta":182284470},{"NoteNumber":58,"Velocity":21,"Duration":93539,"SoundDuration":93539,"Delta":182284470},{"NoteNumber":54,"Velocity":25,"Duration":93539,"SoundDuration":93539,"Delta":182284470},{"NoteNumber":62,"Velocity":25,"Duration":93539,"SoundDuration":93539,"Delta":182378009},{"NoteNumber":47,"Velocity":32,"Duration":93539,"SoundDuration":93539,"Delta":182471549},{"NoteNumber":58,"Velocity":21,"Duration":93539,"SoundDuration":93539,"Delta":182471549},{"NoteNumber":55,"Velocity":25,"Duration":93539,"SoundDuration":93539,"Delta":182471549},{"NoteNumber":62,"Velocity":25,"Duration":93539,"SoundDuration":93539,"Delta":182565088},{"NoteNumber":46,"Velocity":36,"Duration":99760,"SoundDuration":99760,"Delta":182658628},{"NoteNumber":54,"Velocity":30,"Duration":99760,"SoundDuration":99760,"Delta":182658628},{"NoteNumber":58,"Velocity":25,"Duration":99760,"SoundDuration":99760,"Delta":182658628},{"NoteNumber":62,"Velocity":22,"Duration":91821,"SoundDuration":91821,"Delta":182758388},{"NoteNumber":50,"Velocity":32,"Duration":87535,"SoundDuration":87535,"Delta":182850210},{"NoteNumber":53,"Velocity":30,"Duration":87535,"SoundDuration":87535,"Delta":182850210},{"NoteNumber":58,"Velocity":25,"Duration":87535,"SoundDuration":87535,"Delta":182850210},{"NoteNumber":62,"Velocity":21,"Duration":87535,"SoundDuration":87535,"Delta":182937745},{"NoteNumber":48,"Velocity":36,"Duration":95932,"SoundDuration":95932,"Delta":183025280},{"NoteNumber":58,"Velocity":25,"Duration":95932,"SoundDuration":95932,"Delta":183025280},{"NoteNumber":54,"Velocity":30,"Duration":95932,"SoundDuration":95932,"Delta":183025280},{"NoteNumber":47,"Velocity":31,"Duration":95932,"SoundDuration":95932,"Delta":183121213},{"NoteNumber":62,"Velocity":25,"Duration":95932,"SoundDuration":95932,"Delta":183121213},{"NoteNumber":46,"Velocity":31,"Duration":95932,"SoundDuration":95932,"Delta":183217145},{"NoteNumber":58,"Velocity":25,"Duration":95932,"SoundDuration":95932,"Delta":183217145},{"NoteNumber":55,"Velocity":30,"Duration":95932,"SoundDuration":95932,"Delta":183217145},{"NoteNumber":62,"Velocity":22,"Duration":95932,"SoundDuration":95932,"Delta":183313078},{"NoteNumber":54,"Velocity":25,"Duration":177101,"SoundDuration":177101,"Delta":183377033},{"NoteNumber":57,"Velocity":25,"Duration":161112,"SoundDuration":161112,"Delta":183393021},{"NoteNumber":63,"Velocity":30,"Duration":145123,"SoundDuration":145123,"Delta":183409010},{"NoteNumber":87,"Velocity":37,"Duration":77439,"SoundDuration":77439,"Delta":183687977},{"NoteNumber":78,"Velocity":35,"Duration":77439,"SoundDuration":77439,"Delta":183687977},{"NoteNumber":81,"Velocity":41,"Duration":77439,"SoundDuration":77439,"Delta":183687977},{"NoteNumber":84,"Velocity":37,"Duration":77707,"SoundDuration":77707,"Delta":183765416},{"NoteNumber":80,"Velocity":36,"Duration":78010,"SoundDuration":78010,"Delta":183843124},{"NoteNumber":71,"Velocity":33,"Duration":78010,"SoundDuration":78010,"Delta":183843124},{"NoteNumber":74,"Velocity":39,"Duration":78010,"SoundDuration":78010,"Delta":183843124},{"NoteNumber":77,"Velocity":36,"Duration":78315,"SoundDuration":78315,"Delta":183921134},{"NoteNumber":81,"Velocity":36,"Duration":78657,"SoundDuration":78657,"Delta":183999450},{"NoteNumber":72,"Velocity":32,"Duration":78657,"SoundDuration":78657,"Delta":183999450},{"NoteNumber":75,"Velocity":38,"Duration":78657,"SoundDuration":78657,"Delta":183999450},{"NoteNumber":78,"Velocity":35,"Duration":79037,"SoundDuration":79037,"Delta":184078107},{"NoteNumber":74,"Velocity":35,"Duration":79351,"SoundDuration":79351,"Delta":184157145},{"NoteNumber":68,"Velocity":38,"Duration":79351,"SoundDuration":79351,"Delta":184157145},{"NoteNumber":65,"Velocity":32,"Duration":79351,"SoundDuration":79351,"Delta":184157145},{"NoteNumber":71,"Velocity":33,"Duration":79667,"SoundDuration":79667,"Delta":184236497},{"NoteNumber":75,"Velocity":33,"Duration":79986,"SoundDuration":79986,"Delta":184316164},{"NoteNumber":69,"Velocity":37,"Duration":79986,"SoundDuration":79986,"Delta":184316164},{"NoteNumber":66,"Velocity":31,"Duration":79986,"SoundDuration":79986,"Delta":184316164},{"NoteNumber":72,"Velocity":32,"Duration":80342,"SoundDuration":80342,"Delta":184396150},{"NoteNumber":68,"Velocity":32,"Duration":80739,"SoundDuration":80739,"Delta":184476493},{"NoteNumber":62,"Velocity":36,"Duration":80739,"SoundDuration":80739,"Delta":184476493},{"NoteNumber":59,"Velocity":30,"Duration":80739,"SoundDuration":80739,"Delta":184476493},{"NoteNumber":65,"Velocity":31,"Duration":81067,"SoundDuration":81067,"Delta":184557233},{"NoteNumber":69,"Velocity":30,"Duration":81396,"SoundDuration":81396,"Delta":184638300},{"NoteNumber":63,"Velocity":36,"Duration":81396,"SoundDuration":81396,"Delta":184638300},{"NoteNumber":60,"Velocity":29,"Duration":81396,"SoundDuration":81396,"Delta":184638300},{"NoteNumber":78,"Velocity":30,"Duration":53075,"SoundDuration":53075,"Delta":184719697},{"NoteNumber":60,"Velocity":36,"Duration":145123,"SoundDuration":145123,"Delta":184801344},{"NoteNumber":66,"Velocity":36,"Duration":145123,"SoundDuration":145123,"Delta":184801344},{"NoteNumber":57,"Velocity":43,"Duration":145123,"SoundDuration":145123,"Delta":184801344},{"NoteNumber":51,"Velocity":36,"Duration":145123,"SoundDuration":145123,"Delta":184801344},{"NoteNumber":90,"Velocity":41,"Duration":75620,"SoundDuration":75620,"Delta":185091591},{"NoteNumber":84,"Velocity":45,"Duration":151240,"SoundDuration":151240,"Delta":185091591},{"NoteNumber":81,"Velocity":37,"Duration":151240,"SoundDuration":151240,"Delta":185091591},{"NoteNumber":87,"Velocity":41,"Duration":75620,"SoundDuration":75620,"Delta":185167212},{"NoteNumber":83,"Velocity":39,"Duration":75757,"SoundDuration":75757,"Delta":185242832},{"NoteNumber":77,"Velocity":43,"Duration":151547,"SoundDuration":151547,"Delta":185242832},{"NoteNumber":74,"Velocity":36,"Duration":151547,"SoundDuration":151547,"Delta":185242832},{"NoteNumber":80,"Velocity":39,"Duration":75789,"SoundDuration":75789,"Delta":185318589},{"NoteNumber":84,"Velocity":38,"Duration":76142,"SoundDuration":76142,"Delta":185394379},{"NoteNumber":75,"Velocity":35,"Duration":152284,"SoundDuration":152284,"Delta":185394379},{"NoteNumber":78,"Velocity":42,"Duration":152284,"SoundDuration":152284,"Delta":185394379},{"NoteNumber":81,"Velocity":37,"Duration":76142,"SoundDuration":76142,"Delta":185470521},{"NoteNumber":77,"Velocity":37,"Duration":76219,"SoundDuration":76219,"Delta":185546663},{"NoteNumber":70,"Velocity":42,"Duration":152750,"SoundDuration":152750,"Delta":185546663},{"NoteNumber":68,"Velocity":35,"Duration":152750,"SoundDuration":152750,"Delta":185546663},{"NoteNumber":74,"Velocity":36,"Duration":76530,"SoundDuration":76530,"Delta":185622883},{"NoteNumber":78,"Velocity":36,"Duration":76530,"SoundDuration":76530,"Delta":185699414},{"NoteNumber":72,"Velocity":41,"Duration":153185,"SoundDuration":153185,"Delta":185699414},{"NoteNumber":69,"Velocity":35,"Duration":153185,"SoundDuration":153185,"Delta":185699414},{"NoteNumber":75,"Velocity":36,"Duration":76654,"SoundDuration":76654,"Delta":185775944},{"NoteNumber":71,"Velocity":36,"Duration":76923,"SoundDuration":76923,"Delta":185852599},{"NoteNumber":62,"Velocity":33,"Duration":153846,"SoundDuration":153846,"Delta":185852599},{"NoteNumber":65,"Velocity":39,"Duration":153846,"SoundDuration":153846,"Delta":185852599},{"NoteNumber":68,"Velocity":35,"Duration":76923,"SoundDuration":76923,"Delta":185929522},{"NoteNumber":72,"Velocity":33,"Duration":78386,"SoundDuration":78386,"Delta":186006446},{"NoteNumber":63,"Velocity":32,"Duration":191713,"SoundDuration":191713,"Delta":186006446},{"NoteNumber":66,"Velocity":38,"Duration":191713,"SoundDuration":191713,"Delta":186006446},{"NoteNumber":81,"Velocity":33,"Duration":113327,"SoundDuration":113327,"Delta":186084832},{"NoteNumber":69,"Velocity":36,"Duration":145123,"SoundDuration":145123,"Delta":186198159},{"NoteNumber":63,"Velocity":36,"Duration":145123,"SoundDuration":145123,"Delta":186198159},{"NoteNumber":60,"Velocity":43,"Duration":145123,"SoundDuration":145123,"Delta":186198159},{"NoteNumber":54,"Velocity":36,"Duration":145123,"SoundDuration":145123,"Delta":186198159},{"NoteNumber":46,"Velocity":36,"Duration":145123,"SoundDuration":145123,"Delta":186198159},{"NoteNumber":93,"Velocity":41,"Duration":75620,"SoundDuration":75620,"Delta":186488407},{"NoteNumber":84,"Velocity":37,"Duration":151240,"SoundDuration":151240,"Delta":186488407},{"NoteNumber":87,"Velocity":45,"Duration":151240,"SoundDuration":151240,"Delta":186488407},{"NoteNumber":90,"Velocity":41,"Duration":75620,"SoundDuration":75620,"Delta":186564027},{"NoteNumber":86,"Velocity":39,"Duration":75757,"SoundDuration":75757,"Delta":186639647},{"NoteNumber":77,"Velocity":36,"Duration":151547,"SoundDuration":151547,"Delta":186639647},{"NoteNumber":80,"Velocity":43,"Duration":151547,"SoundDuration":151547,"Delta":186639647},{"NoteNumber":83,"Velocity":39,"Duration":75789,"SoundDuration":75789,"Delta":186715405},{"NoteNumber":87,"Velocity":38,"Duration":76142,"SoundDuration":76142,"Delta":186791194},{"NoteNumber":81,"Velocity":42,"Duration":152284,"SoundDuration":152284,"Delta":186791194},{"NoteNumber":78,"Velocity":35,"Duration":152284,"SoundDuration":152284,"Delta":186791194},{"NoteNumber":84,"Velocity":37,"Duration":76142,"SoundDuration":76142,"Delta":186867336},{"NoteNumber":96,"Velocity":37,"Duration":76219,"SoundDuration":76219,"Delta":186943479},{"NoteNumber":90,"Velocity":42,"Duration":152750,"SoundDuration":152750,"Delta":186943479},{"NoteNumber":87,"Velocity":35,"Duration":152750,"SoundDuration":152750,"Delta":186943479},{"NoteNumber":93,"Velocity":36,"Duration":76530,"SoundDuration":76530,"Delta":187019698},{"NoteNumber":89,"Velocity":36,"Duration":76530,"SoundDuration":76530,"Delta":187096229},{"NoteNumber":83,"Velocity":41,"Duration":153185,"SoundDuration":153185,"Delta":187096229},{"NoteNumber":80,"Velocity":35,"Duration":153185,"SoundDuration":153185,"Delta":187096229},{"NoteNumber":86,"Velocity":36,"Duration":76654,"SoundDuration":76654,"Delta":187172760},{"NoteNumber":90,"Velocity":36,"Duration":76923,"SoundDuration":76923,"Delta":187249415},{"NoteNumber":81,"Velocity":33,"Duration":153846,"SoundDuration":153846,"Delta":187249415},{"NoteNumber":84,"Velocity":39,"Duration":153846,"SoundDuration":153846,"Delta":187249415},{"NoteNumber":87,"Velocity":35,"Duration":76923,"SoundDuration":76923,"Delta":187326338},{"NoteNumber":99,"Velocity":33,"Duration":78386,"SoundDuration":78386,"Delta":187403261},{"NoteNumber":90,"Velocity":32,"Duration":156772,"SoundDuration":156772,"Delta":187403261},{"NoteNumber":93,"Velocity":38,"Duration":156772,"SoundDuration":156772,"Delta":187403261},{"NoteNumber":96,"Velocity":33,"Duration":78386,"SoundDuration":78386,"Delta":187481647},{"NoteNumber":92,"Velocity":41,"Duration":78247,"SoundDuration":78247,"Delta":187560033},{"NoteNumber":83,"Velocity":39,"Duration":156494,"SoundDuration":156494,"Delta":187560033},{"NoteNumber":86,"Velocity":39,"Duration":156494,"SoundDuration":156494,"Delta":187560033},{"NoteNumber":89,"Velocity":36,"Duration":78247,"SoundDuration":78247,"Delta":187638281},{"NoteNumber":93,"Velocity":42,"Duration":78247,"SoundDuration":78247,"Delta":187716528},{"NoteNumber":87,"Velocity":35,"Duration":156494,"SoundDuration":156494,"Delta":187716528},{"NoteNumber":84,"Velocity":35,"Duration":156494,"SoundDuration":156494,"Delta":187716528},{"NoteNumber":90,"Velocity":36,"Duration":78247,"SoundDuration":78247,"Delta":187794775},{"NoteNumber":100,"Velocity":38,"Duration":78247,"SoundDuration":78247,"Delta":187873022},{"NoteNumber":80,"Velocity":39,"Duration":156494,"SoundDuration":156494,"Delta":187873022},{"NoteNumber":83,"Velocity":39,"Duration":156494,"SoundDuration":156494,"Delta":187873022},{"NoteNumber":87,"Velocity":31,"Duration":78247,"SoundDuration":78247,"Delta":187951270},{"NoteNumber":101,"Velocity":36,"Duration":78247,"SoundDuration":78247,"Delta":188029517},{"NoteNumber":81,"Velocity":33,"Duration":156494,"SoundDuration":156494,"Delta":188029517},{"NoteNumber":84,"Velocity":33,"Duration":156494,"SoundDuration":156494,"Delta":188029517},{"NoteNumber":87,"Velocity":27,"Duration":78247,"SoundDuration":78247,"Delta":188107764},{"NoteNumber":100,"Velocity":45,"Duration":79387,"SoundDuration":79387,"Delta":188186011},{"NoteNumber":80,"Velocity":39,"Duration":159338,"SoundDuration":159338,"Delta":188186011},{"NoteNumber":83,"Velocity":39,"Duration":159338,"SoundDuration":159338,"Delta":188186011},{"NoteNumber":87,"Velocity":27,"Duration":79950,"SoundDuration":79950,"Delta":188265399},{"NoteNumber":101,"Velocity":42,"Duration":80523,"SoundDuration":80523,"Delta":188345350},{"NoteNumber":84,"Velocity":32,"Duration":161590,"SoundDuration":161590,"Delta":188345350},{"NoteNumber":81,"Velocity":32,"Duration":161590,"SoundDuration":161590,"Delta":188345350},{"NoteNumber":87,"Velocity":29,"Duration":81067,"SoundDuration":81067,"Delta":188425873},{"NoteNumber":100,"Velocity":37,"Duration":81692,"SoundDuration":81692,"Delta":188506940},{"NoteNumber":80,"Velocity":39,"Duration":163982,"SoundDuration":163982,"Delta":188506940},{"NoteNumber":83,"Velocity":39,"Duration":163982,"SoundDuration":163982,"Delta":188506940},{"NoteNumber":87,"Velocity":29,"Duration":82290,"SoundDuration":82290,"Delta":188588632},{"NoteNumber":101,"Velocity":37,"Duration":82858,"SoundDuration":82858,"Delta":188670922},{"NoteNumber":84,"Velocity":35,"Duration":166370,"SoundDuration":166370,"Delta":188670922},{"NoteNumber":81,"Velocity":35,"Duration":166370,"SoundDuration":166370,"Delta":188670922},{"NoteNumber":87,"Velocity":29,"Duration":83511,"SoundDuration":83511,"Delta":188753780},{"NoteNumber":101,"Velocity":43,"Duration":283822,"SoundDuration":283822,"Delta":188837292},{"NoteNumber":82,"Velocity":39,"Duration":283822,"SoundDuration":283822,"Delta":188837292},{"NoteNumber":86,"Velocity":39,"Duration":283822,"SoundDuration":283822,"Delta":188837292},{"NoteNumber":90,"Velocity":28,"Duration":78609,"SoundDuration":78609,"Delta":189121115},{"NoteNumber":98,"Velocity":35,"Duration":78609,"SoundDuration":78609,"Delta":189121115},{"NoteNumber":94,"Velocity":31,"Duration":78397,"SoundDuration":78397,"Delta":189199724},{"NoteNumber":89,"Velocity":26,"Duration":78397,"SoundDuration":78397,"Delta":189199724},{"NoteNumber":86,"Velocity":25,"Duration":78091,"SoundDuration":78091,"Delta":189278122},{"NoteNumber":90,"Velocity":30,"Duration":78091,"SoundDuration":78091,"Delta":189278122},{"NoteNumber":89,"Velocity":29,"Duration":77687,"SoundDuration":77687,"Delta":189356214},{"NoteNumber":82,"Velocity":24,"Duration":77687,"SoundDuration":77687,"Delta":189356214},{"NoteNumber":78,"Velocity":23,"Duration":77386,"SoundDuration":77386,"Delta":189433901},{"NoteNumber":86,"Velocity":28,"Duration":77386,"SoundDuration":77386,"Delta":189433901},{"NoteNumber":82,"Velocity":28,"Duration":76989,"SoundDuration":76989,"Delta":189511287},{"NoteNumber":77,"Velocity":23,"Duration":76989,"SoundDuration":76989,"Delta":189511287},{"NoteNumber":78,"Velocity":27,"Duration":75962,"SoundDuration":75962,"Delta":189588276},{"NoteNumber":74,"Velocity":22,"Duration":75962,"SoundDuration":75962,"Delta":189588276},{"NoteNumber":77,"Velocity":28,"Duration":76213,"SoundDuration":76213,"Delta":189664239},{"NoteNumber":70,"Velocity":23,"Duration":76213,"SoundDuration":76213,"Delta":189664239},{"NoteNumber":78,"Velocity":29,"Duration":76602,"SoundDuration":76602,"Delta":189740453},{"NoteNumber":74,"Velocity":24,"Duration":76602,"SoundDuration":76602,"Delta":189740453},{"NoteNumber":77,"Velocity":25,"Duration":76995,"SoundDuration":76995,"Delta":189817055},{"NoteNumber":82,"Velocity":30,"Duration":76995,"SoundDuration":76995,"Delta":189817055},{"NoteNumber":86,"Velocity":31,"Duration":77392,"SoundDuration":77392,"Delta":189894051},{"NoteNumber":78,"Velocity":26,"Duration":77392,"SoundDuration":77392,"Delta":189894051},{"NoteNumber":82,"Velocity":27,"Duration":77794,"SoundDuration":77794,"Delta":189971444},{"NoteNumber":89,"Velocity":32,"Duration":77794,"SoundDuration":77794,"Delta":189971444},{"NoteNumber":90,"Velocity":33,"Duration":78199,"SoundDuration":78199,"Delta":190049238},{"NoteNumber":86,"Velocity":28,"Duration":78199,"SoundDuration":78199,"Delta":190049238},{"NoteNumber":94,"Velocity":35,"Duration":78665,"SoundDuration":78665,"Delta":190127438},{"NoteNumber":89,"Velocity":28,"Duration":78665,"SoundDuration":78665,"Delta":190127438},{"NoteNumber":82,"Velocity":29,"Duration":148957,"SoundDuration":148957,"Delta":190206103},{"NoteNumber":98,"Velocity":36,"Duration":148957,"SoundDuration":148957,"Delta":190206103},{"NoteNumber":86,"Velocity":32,"Duration":78609,"SoundDuration":78609,"Delta":190504017},{"NoteNumber":78,"Velocity":27,"Duration":78609,"SoundDuration":78609,"Delta":190504017},{"NoteNumber":82,"Velocity":29,"Duration":78397,"SoundDuration":78397,"Delta":190582627},{"NoteNumber":77,"Velocity":24,"Duration":78397,"SoundDuration":78397,"Delta":190582627},{"NoteNumber":74,"Velocity":23,"Duration":78091,"SoundDuration":78091,"Delta":190661025},{"NoteNumber":78,"Velocity":28,"Duration":78091,"SoundDuration":78091,"Delta":190661025},{"NoteNumber":70,"Velocity":22,"Duration":77687,"SoundDuration":77687,"Delta":190739116},{"NoteNumber":77,"Velocity":28,"Duration":77687,"SoundDuration":77687,"Delta":190739116},{"NoteNumber":74,"Velocity":27,"Duration":77386,"SoundDuration":77386,"Delta":190816804},{"NoteNumber":66,"Velocity":22,"Duration":77386,"SoundDuration":77386,"Delta":190816804},{"NoteNumber":65,"Velocity":22,"Duration":76989,"SoundDuration":76989,"Delta":190894190},{"NoteNumber":70,"Velocity":26,"Duration":76989,"SoundDuration":76989,"Delta":190894190},{"NoteNumber":62,"Velocity":21,"Duration":75962,"SoundDuration":75962,"Delta":190971179},{"NoteNumber":66,"Velocity":25,"Duration":75962,"SoundDuration":75962,"Delta":190971179},{"NoteNumber":65,"Velocity":26,"Duration":76213,"SoundDuration":76213,"Delta":191047142},{"NoteNumber":58,"Velocity":22,"Duration":76213,"SoundDuration":76213,"Delta":191047142},{"NoteNumber":62,"Velocity":22,"Duration":76602,"SoundDuration":76602,"Delta":191123355},{"NoteNumber":66,"Velocity":28,"Duration":76602,"SoundDuration":76602,"Delta":191123355},{"NoteNumber":70,"Velocity":28,"Duration":76995,"SoundDuration":76995,"Delta":191199958},{"NoteNumber":65,"Velocity":23,"Duration":76995,"SoundDuration":76995,"Delta":191199958},{"NoteNumber":66,"Velocity":24,"Duration":77392,"SoundDuration":77392,"Delta":191276953},{"NoteNumber":74,"Velocity":29,"Duration":77392,"SoundDuration":77392,"Delta":191276953},{"NoteNumber":77,"Velocity":30,"Duration":77794,"SoundDuration":77794,"Delta":191354346},{"NoteNumber":70,"Velocity":25,"Duration":77794,"SoundDuration":77794,"Delta":191354346},{"NoteNumber":78,"Velocity":31,"Duration":78199,"SoundDuration":78199,"Delta":191432141},{"NoteNumber":74,"Velocity":26,"Duration":78199,"SoundDuration":78199,"Delta":191432141},{"NoteNumber":77,"Velocity":27,"Duration":78665,"SoundDuration":78665,"Delta":191510341},{"NoteNumber":82,"Velocity":32,"Duration":78665,"SoundDuration":78665,"Delta":191510341},{"NoteNumber":86,"Velocity":33,"Duration":109729,"SoundDuration":109729,"Delta":191589006},{"NoteNumber":70,"Velocity":28,"Duration":109729,"SoundDuration":109729,"Delta":191589006},{"NoteNumber":74,"Velocity":29,"Duration":78609,"SoundDuration":78609,"Delta":191808464},{"NoteNumber":66,"Velocity":29,"Duration":78609,"SoundDuration":78609,"Delta":191808464},{"NoteNumber":70,"Velocity":28,"Duration":78397,"SoundDuration":78397,"Delta":191887074},{"NoteNumber":65,"Velocity":28,"Duration":78397,"SoundDuration":78397,"Delta":191887074},{"NoteNumber":62,"Velocity":27,"Duration":78091,"SoundDuration":78091,"Delta":191965472},{"NoteNumber":66,"Velocity":27,"Duration":78091,"SoundDuration":78091,"Delta":191965472},{"NoteNumber":58,"Velocity":26,"Duration":77687,"SoundDuration":77687,"Delta":192043564},{"NoteNumber":65,"Velocity":26,"Duration":77687,"SoundDuration":77687,"Delta":192043564},{"NoteNumber":54,"Velocity":24,"Duration":77386,"SoundDuration":77386,"Delta":192121251},{"NoteNumber":62,"Velocity":24,"Duration":77386,"SoundDuration":77386,"Delta":192121251},{"NoteNumber":53,"Velocity":23,"Duration":76989,"SoundDuration":76989,"Delta":192198637},{"NoteNumber":58,"Velocity":23,"Duration":76989,"SoundDuration":76989,"Delta":192198637},{"NoteNumber":62,"Velocity":22,"Duration":75962,"SoundDuration":75962,"Delta":192275626},{"NoteNumber":54,"Velocity":22,"Duration":75962,"SoundDuration":75962,"Delta":192275626},{"NoteNumber":58,"Velocity":21,"Duration":76213,"SoundDuration":76213,"Delta":192351589},{"NoteNumber":65,"Velocity":21,"Duration":76213,"SoundDuration":76213,"Delta":192351589},{"NoteNumber":62,"Velocity":21,"Duration":76602,"SoundDuration":76602,"Delta":192427802},{"NoteNumber":66,"Velocity":21,"Duration":76602,"SoundDuration":76602,"Delta":192427802},{"NoteNumber":70,"Velocity":22,"Duration":76995,"SoundDuration":76995,"Delta":192504405},{"NoteNumber":65,"Velocity":22,"Duration":76995,"SoundDuration":76995,"Delta":192504405},{"NoteNumber":74,"Velocity":22,"Duration":77392,"SoundDuration":77392,"Delta":192581401},{"NoteNumber":66,"Velocity":22,"Duration":77392,"SoundDuration":77392,"Delta":192581401},{"NoteNumber":70,"Velocity":24,"Duration":77794,"SoundDuration":77794,"Delta":192658793},{"NoteNumber":77,"Velocity":24,"Duration":77794,"SoundDuration":77794,"Delta":192658793},{"NoteNumber":74,"Velocity":26,"Duration":78199,"SoundDuration":78199,"Delta":192736588},{"NoteNumber":78,"Velocity":26,"Duration":78199,"SoundDuration":78199,"Delta":192736588},{"NoteNumber":77,"Velocity":27,"Duration":78665,"SoundDuration":78665,"Delta":192814788},{"NoteNumber":82,"Velocity":27,"Duration":78665,"SoundDuration":78665,"Delta":192814788},{"NoteNumber":86,"Velocity":28,"Duration":77392,"SoundDuration":77392,"Delta":192893453},{"NoteNumber":78,"Velocity":28,"Duration":77392,"SoundDuration":77392,"Delta":192893453},{"NoteNumber":82,"Velocity":29,"Duration":77794,"SoundDuration":77794,"Delta":192970846},{"NoteNumber":89,"Velocity":29,"Duration":77794,"SoundDuration":77794,"Delta":192970846},{"NoteNumber":86,"Velocity":30,"Duration":78199,"SoundDuration":78199,"Delta":193048640},{"NoteNumber":90,"Velocity":30,"Duration":78199,"SoundDuration":78199,"Delta":193048640},{"NoteNumber":94,"Velocity":32,"Duration":78665,"SoundDuration":78665,"Delta":193126840},{"NoteNumber":89,"Velocity":32,"Duration":78665,"SoundDuration":78665,"Delta":193126840},{"NoteNumber":90,"Velocity":28,"Duration":79072,"SoundDuration":79072,"Delta":193205505},{"NoteNumber":98,"Velocity":35,"Duration":79072,"SoundDuration":79072,"Delta":193205505},{"NoteNumber":94,"Velocity":28,"Duration":79072,"SoundDuration":79072,"Delta":193284577},{"NoteNumber":89,"Velocity":22,"Duration":79072,"SoundDuration":79072,"Delta":193284577},{"NoteNumber":90,"Velocity":26,"Duration":79072,"SoundDuration":79072,"Delta":193363650},{"NoteNumber":86,"Velocity":22,"Duration":79072,"SoundDuration":79072,"Delta":193363650},{"NoteNumber":82,"Velocity":22,"Duration":79072,"SoundDuration":79072,"Delta":193442722},{"NoteNumber":89,"Velocity":26,"Duration":79072,"SoundDuration":79072,"Delta":193442722},{"NoteNumber":90,"Velocity":27,"Duration":79072,"SoundDuration":79072,"Delta":193521794},{"NoteNumber":98,"Velocity":32,"Duration":79072,"SoundDuration":79072,"Delta":193521794},{"NoteNumber":89,"Velocity":21,"Duration":79072,"SoundDuration":79072,"Delta":193600866},{"NoteNumber":94,"Velocity":26,"Duration":79072,"SoundDuration":79072,"Delta":193600866},{"NoteNumber":86,"Velocity":21,"Duration":79072,"SoundDuration":79072,"Delta":193679939},{"NoteNumber":90,"Velocity":24,"Duration":79072,"SoundDuration":79072,"Delta":193679939},{"NoteNumber":82,"Velocity":21,"Duration":79072,"SoundDuration":79072,"Delta":193759011},{"NoteNumber":89,"Velocity":24,"Duration":79072,"SoundDuration":79072,"Delta":193759011},{"NoteNumber":98,"Velocity":31,"Duration":79072,"SoundDuration":79072,"Delta":193838083},{"NoteNumber":90,"Velocity":25,"Duration":79072,"SoundDuration":79072,"Delta":193838083},{"NoteNumber":94,"Velocity":24,"Duration":79072,"SoundDuration":79072,"Delta":193917155},{"NoteNumber":89,"Velocity":20,"Duration":79072,"SoundDuration":79072,"Delta":193917155},{"NoteNumber":90,"Velocity":24,"Duration":79072,"SoundDuration":79072,"Delta":193996228},{"NoteNumber":86,"Velocity":20,"Duration":79072,"SoundDuration":79072,"Delta":193996228},{"NoteNumber":89,"Velocity":23,"Duration":79072,"SoundDuration":79072,"Delta":194075300},{"NoteNumber":82,"Velocity":20,"Duration":79072,"SoundDuration":79072,"Delta":194075300},{"NoteNumber":98,"Velocity":29,"Duration":79072,"SoundDuration":79072,"Delta":194154372},{"NoteNumber":90,"Velocity":24,"Duration":79072,"SoundDuration":79072,"Delta":194154372},{"NoteNumber":94,"Velocity":23,"Duration":79072,"SoundDuration":79072,"Delta":194233444},{"NoteNumber":89,"Velocity":18,"Duration":79072,"SoundDuration":79072,"Delta":194233444},{"NoteNumber":90,"Velocity":22,"Duration":79072,"SoundDuration":79072,"Delta":194312517},{"NoteNumber":86,"Velocity":18,"Duration":79072,"SoundDuration":79072,"Delta":194312517},{"NoteNumber":89,"Velocity":22,"Duration":79072,"SoundDuration":79072,"Delta":194391589},{"NoteNumber":82,"Velocity":18,"Duration":79072,"SoundDuration":79072,"Delta":194391589},{"NoteNumber":98,"Velocity":28,"Duration":79072,"SoundDuration":79072,"Delta":194470661},{"NoteNumber":90,"Velocity":22,"Duration":79072,"SoundDuration":79072,"Delta":194470661},{"NoteNumber":89,"Velocity":18,"Duration":79072,"SoundDuration":79072,"Delta":194549733},{"NoteNumber":94,"Velocity":22,"Duration":79072,"SoundDuration":79072,"Delta":194549733},{"NoteNumber":86,"Velocity":18,"Duration":79072,"SoundDuration":79072,"Delta":194628806},{"NoteNumber":90,"Velocity":22,"Duration":79072,"SoundDuration":79072,"Delta":194628806},{"NoteNumber":89,"Velocity":22,"Duration":79072,"SoundDuration":79072,"Delta":194707878},{"NoteNumber":82,"Velocity":18,"Duration":79072,"SoundDuration":79072,"Delta":194707878},{"NoteNumber":65,"Velocity":20,"Duration":316288,"SoundDuration":316288,"Delta":194786950},{"NoteNumber":70,"Velocity":22,"Duration":276752,"SoundDuration":276752,"Delta":194826486},{"NoteNumber":77,"Velocity":24,"Duration":237216,"SoundDuration":237216,"Delta":194866022},{"NoteNumber":86,"Velocity":32,"Duration":197680,"SoundDuration":197680,"Delta":194905558},{"NoteNumber":94,"Velocity":38,"Duration":158144,"SoundDuration":158144,"Delta":194945095},{"NoteNumber":101,"Velocity":43,"Duration":118608,"SoundDuration":118608,"Delta":194984631},{"NoteNumber":46,"Velocity":24,"Duration":148319,"SoundDuration":148319,"Delta":195593111},{"NoteNumber":53,"Velocity":28,"Duration":98879,"SoundDuration":98879,"Delta":195642550},{"NoteNumber":62,"Velocity":32,"Duration":49439,"SoundDuration":49439,"Delta":195691990}],"license":{"name":"Creative Commons Attribution-ShareAlike 3.0 Germany","url":"http://creativecommons.org/licenses/by-sa/3.0/de/deed.en","text":"The MIDI, audio (MP3, OGG) and video files of Bernd Krueger are licensed under the cc-by-sa Germany License. This means that you can use and adapt the files, as long as you attribute the copyright holder.\n\nName: Bernd Krueger\nSource: http://www.piano-midi.de\n\nThe distribution or public playback of the files is only allowed under identical license conditions.\n\nThe scores are open source.","attribution":"MIDI files by Bernd Krueger (piano-midi.de)","attributionUrl":"http://www.piano-midi.de"}}