{"title":"La Campanella","artist":"Liszt","durationMs":247371,"midiSha256":"bca0d3a038351554b00badd31f553021fefc2826fd90326739ac3029dc2769ce","midiObject":[{"NoteNumber":63,"Velocity":24,"Duration":281250,"SoundDuration":281250,"Delta":0},{"NoteNumber":75,"Velocity":28,"Duration":281250,"SoundDuration":281250,"Delta":0},{"NoteNumber":63,"Velocity":24,"Duration":281250,"SoundDuration":281250,"Delta":375000},{"NoteNumber":75,"Velocity":28,"Duration":281250,"SoundDuration":281250,"Delta":375000},{"NoteNumber":75,"Velocity":28,"Duration":281250,"SoundDuration":281250,"Delta":750000},{"NoteNumber":63,"Velocity":24,"Duration":281250,"SoundDuration":281250,"Delta":750000},{"NoteNumber":87,"Velocity":28,"Duration":290322,"SoundDuration":290322,"Delta":1125000},{"NoteNumber":99,"Velocity":34,"Duration":290322,"SoundDuration":290322,"Delta":1125000},{"NoteNumber":87,"Velocity":28,"Duration":290322,"SoundDuration":290322,"Delta":1512097},{"NoteNumber":99,"Velocity":34,"Duration":290322,"SoundDuration":290322,"Delta":1512097},{"NoteNumber":99,"Velocity":34,"Duration":290322,"SoundDuration":290322,"Delta":1899194},{"NoteNumber":87,"Velocity":28,"Duration":290322,"SoundDuration":290322,"Delta":1899194},{"NoteNumber":63,"Velocity":24,"Duration":274390,"SoundDuration":274390,"Delta":2286291},{"NoteNumber":75,"Velocity":29,"Duration":274390,"SoundDuration":274390,"Delta":2286291},{"NoteNumber":63,"Velocity":24,"Duration":274390,"SoundDuration":274390,"Delta":2652144},{"NoteNumber":75,"Velocity":29,"Duration":274390,"SoundDuration":274390,"Delta":2652144},{"NoteNumber":75,"Velocity":29,"Duration":274390,"SoundDuration":274390,"Delta":3017998},{"NoteNumber":63,"Velocity":24,"Duration":274390,"SoundDuration":274390,"Delta":3017998},{"NoteNumber":87,"Velocity":28,"Duration":274390,"SoundDuration":274390,"Delta":3383851},{"NoteNumber":99,"Velocity":34,"Duration":274390,"SoundDuration":274390,"Delta":3383851},{"NoteNumber":99,"Velocity":34,"Duration":274390,"SoundDuration":274390,"Delta":3749704},{"NoteNumber":87,"Velocity":28,"Duration":274390,"SoundDuration":274390,"Delta":3749704},{"NoteNumber":87,"Velocity":28,"Duration":274390,"SoundDuration":274390,"Delta":4115558},{"NoteNumber":99,"Velocity":34,"Duration":274390,"SoundDuration":274390,"Delta":4115558},{"NoteNumber":75,"Velocity":27,"Duration":274390,"SoundDuration":274390,"Delta":4481412},{"NoteNumber":63,"Velocity":22,"Duration":274390,"SoundDuration":274390,"Delta":4481412},{"NoteNumber":99,"Velocity":33,"Duration":279503,"SoundDuration":279503,"Delta":4847265},{"NoteNumber":87,"Velocity":27,"Duration":279503,"SoundDuration":279503,"Delta":4847265},{"NoteNumber":99,"Velocity":33,"Duration":290322,"SoundDuration":290322,"Delta":5219936},{"NoteNumber":87,"Velocity":27,"Duration":290322,"SoundDuration":290322,"Delta":5219936},{"NoteNumber":75,"Velocity":25,"Duration":343511,"SoundDuration":343511,"Delta":5607033},{"NoteNumber":63,"Velocity":21,"Duration":343511,"SoundDuration":343511,"Delta":5607033},{"NoteNumber":99,"Velocity":27,"Duration":432692,"SoundDuration":432692,"Delta":6065048},{"NoteNumber":87,"Velocity":22,"Duration":432692,"SoundDuration":432692,"Delta":6065048},{"NoteNumber":99,"Velocity":25,"Duration":849056,"SoundDuration":849056,"Delta":6665103},{"NoteNumber":87,"Velocity":21,"Duration":849056,"SoundDuration":849056,"Delta":6665103},{"NoteNumber":75,"Velocity":43,"Duration":231958,"SoundDuration":231958,"Delta":8929254},{"NoteNumber":87,"Velocity":40,"Duration":77319,"SoundDuration":77319,"Delta":9083893},{"NoteNumber":87,"Velocity":50,"Duration":226130,"SoundDuration":226130,"Delta":9238532},{"NoteNumber":99,"Velocity":40,"Duration":75376,"SoundDuration":75376,"Delta":9389286},{"NoteNumber":87,"Velocity":46,"Duration":226130,"SoundDuration":226130,"Delta":9540040},{"NoteNumber":99,"Velocity":39,"Duration":75376,"SoundDuration":75376,"Delta":9690794},{"NoteNumber":85,"Velocity":46,"Duration":226130,"SoundDuration":226130,"Delta":9841547},{"NoteNumber":99,"Velocity":39,"Duration":75376,"SoundDuration":75376,"Delta":9992301},{"NoteNumber":56,"Velocity":37,"Duration":362404,"SoundDuration":362404,"Delta":9992301},{"NoteNumber":63,"Velocity":39,"Duration":287027,"SoundDuration":287027,"Delta":10067678},{"NoteNumber":83,"Velocity":46,"Duration":211650,"SoundDuration":211650,"Delta":10143055},{"NoteNumber":71,"Velocity":40,"Duration":211650,"SoundDuration":211650,"Delta":10143055},{"NoteNumber":99,"Velocity":40,"Duration":72115,"SoundDuration":72115,"Delta":10282590},{"NoteNumber":83,"Velocity":45,"Duration":225376,"SoundDuration":225376,"Delta":10426821},{"NoteNumber":99,"Velocity":40,"Duration":75376,"SoundDuration":75376,"Delta":10576821},{"NoteNumber":82,"Velocity":43,"Duration":224601,"SoundDuration":224601,"Delta":10727574},{"NoteNumber":99,"Velocity":40,"Duration":70754,"SoundDuration":70754,"Delta":10881421},{"NoteNumber":59,"Velocity":35,"Duration":358900,"SoundDuration":358900,"Delta":10881421},{"NoteNumber":68,"Velocity":36,"Duration":288145,"SoundDuration":288145,"Delta":10952175},{"NoteNumber":80,"Velocity":46,"Duration":217391,"SoundDuration":217391,"Delta":11022930},{"NoteNumber":75,"Velocity":37,"Duration":217391,"SoundDuration":217391,"Delta":11022930},{"NoteNumber":99,"Velocity":40,"Duration":72463,"SoundDuration":72463,"Delta":11167858},{"NoteNumber":79,"Velocity":45,"Duration":226130,"SoundDuration":226130,"Delta":11312785},{"NoteNumber":99,"Velocity":37,"Duration":75376,"SoundDuration":75376,"Delta":11463539},{"NoteNumber":80,"Velocity":45,"Duration":226130,"SoundDuration":226130,"Delta":11614293},{"NoteNumber":99,"Velocity":40,"Duration":75376,"SoundDuration":75376,"Delta":11765046},{"NoteNumber":63,"Velocity":36,"Duration":368987,"SoundDuration":368987,"Delta":11765046},{"NoteNumber":70,"Velocity":39,"Duration":293611,"SoundDuration":293611,"Delta":11840423},{"NoteNumber":82,"Velocity":46,"Duration":218234,"SoundDuration":218234,"Delta":11915800},{"NoteNumber":79,"Velocity":41,"Duration":218234,"SoundDuration":218234,"Delta":11915800},{"NoteNumber":99,"Velocity":40,"Duration":75376,"SoundDuration":75376,"Delta":12058657},{"NoteNumber":75,"Velocity":43,"Duration":226130,"SoundDuration":226130,"Delta":12209411},{"NoteNumber":99,"Velocity":37,"Duration":75376,"SoundDuration":75376,"Delta":12360165},{"NoteNumber":75,"Velocity":43,"Duration":231958,"SoundDuration":231958,"Delta":12510919},{"NoteNumber":87,"Velocity":37,"Duration":77319,"SoundDuration":77319,"Delta":12665558},{"NoteNumber":67,"Velocity":36,"Duration":291605,"SoundDuration":291605,"Delta":12742877},{"NoteNumber":76,"Velocity":50,"Duration":214285,"SoundDuration":214285,"Delta":12820197},{"NoteNumber":70,"Velocity":39,"Duration":214285,"SoundDuration":214285,"Delta":12820197},{"NoteNumber":87,"Velocity":43,"Duration":71428,"SoundDuration":71428,"Delta":12963054},{"NoteNumber":75,"Velocity":46,"Duration":226130,"SoundDuration":226130,"Delta":13105912},{"NoteNumber":87,"Velocity":40,"Duration":75376,"SoundDuration":75376,"Delta":13256665},{"NoteNumber":73,"Velocity":46,"Duration":226130,"SoundDuration":226130,"Delta":13407419},{"NoteNumber":87,"Velocity":39,"Duration":75376,"SoundDuration":75376,"Delta":13558173},{"NoteNumber":71,"Velocity":46,"Duration":215311,"SoundDuration":215311,"Delta":13708927},{"NoteNumber":68,"Velocity":43,"Duration":215311,"SoundDuration":215311,"Delta":13708927},{"NoteNumber":87,"Velocity":40,"Duration":71770,"SoundDuration":71770,"Delta":13852467},{"NoteNumber":71,"Velocity":45,"Duration":224272,"SoundDuration":224272,"Delta":13996008},{"NoteNumber":87,"Velocity":40,"Duration":75757,"SoundDuration":75757,"Delta":14144523},{"NoteNumber":70,"Velocity":43,"Duration":230769,"SoundDuration":230769,"Delta":14296038},{"NoteNumber":87,"Velocity":37,"Duration":76923,"SoundDuration":76923,"Delta":14449884},{"NoteNumber":59,"Velocity":36,"Duration":381183,"SoundDuration":381183,"Delta":14449884},{"NoteNumber":62,"Velocity":36,"Duration":304260,"SoundDuration":304260,"Delta":14526807},{"NoteNumber":68,"Velocity":46,"Duration":227337,"SoundDuration":227337,"Delta":14603731},{"NoteNumber":65,"Velocity":39,"Duration":227337,"SoundDuration":227337,"Delta":14603731},{"NoteNumber":87,"Velocity":40,"Duration":75885,"SoundDuration":75885,"Delta":14755182},{"NoteNumber":67,"Velocity":45,"Duration":229608,"SoundDuration":229608,"Delta":14907018},{"NoteNumber":87,"Velocity":37,"Duration":77134,"SoundDuration":77134,"Delta":15059491},{"NoteNumber":68,"Velocity":45,"Duration":236141,"SoundDuration":236141,"Delta":15214233},{"NoteNumber":87,"Velocity":37,"Duration":79267,"SoundDuration":79267,"Delta":15371106},{"NoteNumber":63,"Velocity":33,"Duration":325266,"SoundDuration":325266,"Delta":15450374},{"NoteNumber":70,"Velocity":46,"Duration":245901,"SoundDuration":245901,"Delta":15529739},{"NoteNumber":67,"Velocity":35,"Duration":245901,"SoundDuration":245901,"Delta":15529739},{"NoteNumber":87,"Velocity":40,"Duration":81967,"SoundDuration":81967,"Delta":15693674},{"NoteNumber":63,"Velocity":43,"Duration":255681,"SoundDuration":255681,"Delta":15857608},{"NoteNumber":75,"Velocity":37,"Duration":85227,"SoundDuration":85227,"Delta":16028063},{"NoteNumber":75,"Velocity":43,"Duration":231958,"SoundDuration":231958,"Delta":16198517},{"NoteNumber":87,"Velocity":37,"Duration":77319,"SoundDuration":77319,"Delta":16353156},{"NoteNumber":87,"Velocity":50,"Duration":230376,"SoundDuration":230376,"Delta":16507796},{"NoteNumber":99,"Velocity":43,"Duration":76530,"SoundDuration":76530,"Delta":16661642},{"NoteNumber":87,"Velocity":46,"Duration":228041,"SoundDuration":228041,"Delta":16814703},{"NoteNumber":99,"Velocity":41,"Duration":75757,"SoundDuration":75757,"Delta":16966987},{"NoteNumber":85,"Velocity":46,"Duration":226130,"SoundDuration":226130,"Delta":17118503},{"NoteNumber":99,"Velocity":40,"Duration":75376,"SoundDuration":75376,"Delta":17269256},{"NoteNumber":56,"Velocity":36,"Duration":363018,"SoundDuration":363018,"Delta":17269256},{"NoteNumber":63,"Velocity":37,"Duration":287641,"SoundDuration":287641,"Delta":17344633},{"NoteNumber":83,"Velocity":46,"Duration":212264,"SoundDuration":212264,"Delta":17420010},{"NoteNumber":71,"Velocity":40,"Duration":212264,"SoundDuration":212264,"Delta":17420010},{"NoteNumber":99,"Velocity":41,"Duration":70754,"SoundDuration":70754,"Delta":17561520},{"NoteNumber":83,"Velocity":45,"Duration":225000,"SoundDuration":225000,"Delta":17703029},{"NoteNumber":99,"Velocity":39,"Duration":75000,"SoundDuration":75000,"Delta":17853029},{"NoteNumber":82,"Velocity":43,"Duration":225616,"SoundDuration":225616,"Delta":18003029},{"NoteNumber":99,"Velocity":39,"Duration":71770,"SoundDuration":71770,"Delta":18156875},{"NoteNumber":59,"Velocity":36,"Duration":370813,"SoundDuration":370813,"Delta":18156875},{"NoteNumber":68,"Velocity":37,"Duration":299043,"SoundDuration":299043,"Delta":18228646},{"NoteNumber":80,"Velocity":46,"Duration":227272,"SoundDuration":227272,"Delta":18300416},{"NoteNumber":75,"Velocity":41,"Duration":227272,"SoundDuration":227272,"Delta":18300416},{"NoteNumber":99,"Velocity":40,"Duration":75757,"SoundDuration":75757,"Delta":18451931},{"NoteNumber":79,"Velocity":45,"Duration":227272,"SoundDuration":227272,"Delta":18603447},{"NoteNumber":99,"Velocity":39,"Duration":75757,"SoundDuration":75757,"Delta":18754962},{"NoteNumber":80,"Velocity":45,"Duration":227272,"SoundDuration":227272,"Delta":18906477},{"NoteNumber":99,"Velocity":40,"Duration":75757,"SoundDuration":75757,"Delta":19057992},{"NoteNumber":63,"Velocity":36,"Duration":369452,"SoundDuration":369452,"Delta":19057992},{"NoteNumber":70,"Velocity":39,"Duration":293695,"SoundDuration":293695,"Delta":19133750},{"NoteNumber":82,"Velocity":46,"Duration":217937,"SoundDuration":217937,"Delta":19209508},{"NoteNumber":79,"Velocity":41,"Duration":217937,"SoundDuration":217937,"Delta":19209508},{"NoteNumber":99,"Velocity":40,"Duration":75757,"SoundDuration":75757,"Delta":19351688},{"NoteNumber":75,"Velocity":43,"Duration":227272,"SoundDuration":227272,"Delta":19503203},{"NoteNumber":99,"Velocity":39,"Duration":75757,"SoundDuration":75757,"Delta":19654718},{"NoteNumber":75,"Velocity":43,"Duration":235602,"SoundDuration":235602,"Delta":19806233},{"NoteNumber":87,"Velocity":40,"Duration":78534,"SoundDuration":78534,"Delta":19963301},{"NoteNumber":67,"Velocity":37,"Duration":306960,"SoundDuration":306960,"Delta":20041835},{"NoteNumber":76,"Velocity":50,"Duration":228426,"SoundDuration":228426,"Delta":20120369},{"NoteNumber":70,"Velocity":39,"Duration":228426,"SoundDuration":228426,"Delta":20120369},{"NoteNumber":87,"Velocity":45,"Duration":76142,"SoundDuration":76142,"Delta":20272654},{"NoteNumber":75,"Velocity":46,"Duration":228426,"SoundDuration":228426,"Delta":20424938},{"NoteNumber":87,"Velocity":43,"Duration":76142,"SoundDuration":76142,"Delta":20577222},{"NoteNumber":73,"Velocity":46,"Duration":230818,"SoundDuration":230818,"Delta":20729506},{"NoteNumber":75,"Velocity":39,"Duration":230818,"SoundDuration":230818,"Delta":20729506},{"NoteNumber":87,"Velocity":40,"Duration":78534,"SoundDuration":78534,"Delta":20881791},{"NoteNumber":75,"Velocity":46,"Duration":106132,"SoundDuration":106132,"Delta":21038859},{"NoteNumber":68,"Velocity":35,"Duration":212264,"SoundDuration":212264,"Delta":21038859},{"NoteNumber":71,"Velocity":39,"Duration":212264,"SoundDuration":212264,"Delta":21038859},{"NoteNumber":87,"Velocity":39,"Duration":70754,"SoundDuration":70754,"Delta":21180368},{"NoteNumber":80,"Velocity":39,"Duration":70754,"SoundDuration":70754,"Delta":21321878},{"NoteNumber":83,"Velocity":39,"Duration":73529,"SoundDuration":73529,"Delta":21463387},{"NoteNumber":87,"Velocity":46,"Duration":110294,"SoundDuration":110294,"Delta":21610446},{"NoteNumber":99,"Velocity":41,"Duration":77720,"SoundDuration":77720,"Delta":21757505},{"NoteNumber":75,"Velocity":46,"Duration":114213,"SoundDuration":114213,"Delta":21912945},{"NoteNumber":63,"Velocity":30,"Duration":223374,"SoundDuration":223374,"Delta":21912945},{"NoteNumber":73,"Velocity":34,"Duration":223374,"SoundDuration":223374,"Delta":21912945},{"NoteNumber":67,"Velocity":30,"Duration":223374,"SoundDuration":223374,"Delta":21912945},{"NoteNumber":87,"Velocity":39,"Duration":71090,"SoundDuration":71090,"Delta":22065229},{"NoteNumber":79,"Velocity":39,"Duration":72115,"SoundDuration":72115,"Delta":22207409},{"NoteNumber":82,"Velocity":39,"Duration":74626,"SoundDuration":74626,"Delta":22351640},{"NoteNumber":87,"Velocity":46,"Duration":114213,"SoundDuration":114213,"Delta":22500894},{"NoteNumber":99,"Velocity":45,"Duration":76142,"SoundDuration":76142,"Delta":22653178},{"NoteNumber":56,"Velocity":40,"Duration":115510,"SoundDuration":115510,"Delta":22805528},{"NoteNumber":63,"Velocity":35,"Duration":116400,"SoundDuration":116400,"Delta":22959698},{"NoteNumber":71,"Velocity":35,"Duration":117576,"SoundDuration":117576,"Delta":23115079},{"NoteNumber":80,"Velocity":35,"Duration":118595,"SoundDuration":118595,"Delta":23271998},{"NoteNumber":75,"Velocity":41,"Duration":239161,"SoundDuration":239161,"Delta":23430276},{"NoteNumber":87,"Velocity":37,"Duration":79379,"SoundDuration":79379,"Delta":23590058},{"NoteNumber":99,"Velocity":50,"Duration":230376,"SoundDuration":230376,"Delta":23748802},{"NoteNumber":87,"Velocity":40,"Duration":76530,"SoundDuration":76530,"Delta":23902649},{"NoteNumber":99,"Velocity":46,"Duration":228041,"SoundDuration":228041,"Delta":24055710},{"NoteNumber":87,"Velocity":39,"Duration":75757,"SoundDuration":75757,"Delta":24207994},{"NoteNumber":99,"Velocity":46,"Duration":226130,"SoundDuration":226130,"Delta":24359509},{"NoteNumber":85,"Velocity":39,"Duration":62814,"SoundDuration":62814,"Delta":24510263},{"NoteNumber":85,"Velocity":39,"Duration":75376,"SoundDuration":75376,"Delta":24585640},{"NoteNumber":83,"Velocity":54,"Duration":209677,"SoundDuration":209677,"Delta":24661017},{"NoteNumber":44,"Velocity":39,"Duration":209677,"SoundDuration":209677,"Delta":24661017},{"NoteNumber":99,"Velocity":43,"Duration":71428,"SoundDuration":71428,"Delta":24799266},{"NoteNumber":83,"Velocity":45,"Duration":222772,"SoundDuration":222772,"Delta":24942123},{"NoteNumber":59,"Velocity":37,"Duration":222772,"SoundDuration":222772,"Delta":24942123},{"NoteNumber":51,"Velocity":34,"Duration":222772,"SoundDuration":222772,"Delta":24942123},{"NoteNumber":99,"Velocity":40,"Duration":74257,"SoundDuration":74257,"Delta":25090638},{"NoteNumber":82,"Velocity":43,"Duration":230769,"SoundDuration":230769,"Delta":25239152},{"NoteNumber":99,"Velocity":40,"Duration":76923,"SoundDuration":76923,"Delta":25392999},{"NoteNumber":82,"Velocity":49,"Duration":76923,"SoundDuration":76923,"Delta":25469922},{"NoteNumber":80,"Velocity":49,"Duration":211305,"SoundDuration":211305,"Delta":25546845},{"NoteNumber":47,"Velocity":39,"Duration":211305,"SoundDuration":211305,"Delta":25546845},{"NoteNumber":99,"Velocity":41,"Duration":71770,"SoundDuration":71770,"Delta":25686380},{"NoteNumber":79,"Velocity":45,"Duration":227272,"SoundDuration":227272,"Delta":25829921},{"NoteNumber":56,"Velocity":34,"Duration":227272,"SoundDuration":227272,"Delta":25829921},{"NoteNumber":63,"Velocity":37,"Duration":227272,"SoundDuration":227272,"Delta":25829921},{"NoteNumber":99,"Velocity":40,"Duration":75757,"SoundDuration":75757,"Delta":25981436},{"NoteNumber":80,"Velocity":45,"Duration":227272,"SoundDuration":227272,"Delta":26132951},{"NoteNumber":99,"Velocity":40,"Duration":75757,"SoundDuration":75757,"Delta":26284466},{"NoteNumber":79,"Velocity":47,"Duration":37878,"SoundDuration":37878,"Delta":26360224},{"NoteNumber":80,"Velocity":49,"Duration":37878,"SoundDuration":37878,"Delta":26398103},{"NoteNumber":82,"Velocity":50,"Duration":215563,"SoundDuration":215563,"Delta":26435982},{"NoteNumber":51,"Velocity":39,"Duration":215563,"SoundDuration":215563,"Delta":26435982},{"NoteNumber":99,"Velocity":39,"Duration":75376,"SoundDuration":75376,"Delta":26576169},{"NoteNumber":75,"Velocity":43,"Duration":226130,"SoundDuration":226130,"Delta":26726922},{"NoteNumber":58,"Velocity":34,"Duration":226130,"SoundDuration":226130,"Delta":26726922},{"NoteNumber":67,"Velocity":37,"Duration":226130,"SoundDuration":226130,"Delta":26726922},{"NoteNumber":99,"Velocity":39,"Duration":75376,"SoundDuration":75376,"Delta":26877676},{"NoteNumber":75,"Velocity":43,"Duration":231958,"SoundDuration":231958,"Delta":27028430},{"NoteNumber":87,"Velocity":40,"Duration":77319,"SoundDuration":77319,"Delta":27183069},{"NoteNumber":78,"Velocity":46,"Duration":77319,"SoundDuration":77319,"Delta":27260389},{"NoteNumber":76,"Velocity":47,"Duration":215709,"SoundDuration":215709,"Delta":27337708},{"NoteNumber":67,"Velocity":33,"Duration":215709,"SoundDuration":215709,"Delta":27337708},{"NoteNumber":70,"Velocity":36,"Duration":215709,"SoundDuration":215709,"Delta":27337708},{"NoteNumber":87,"Velocity":41,"Duration":73529,"SoundDuration":73529,"Delta":27479888},{"NoteNumber":75,"Velocity":46,"Duration":226130,"SoundDuration":226130,"Delta":27626947},{"NoteNumber":70,"Velocity":36,"Duration":226130,"SoundDuration":226130,"Delta":27626947},{"NoteNumber":67,"Velocity":33,"Duration":226130,"SoundDuration":226130,"Delta":27626947},{"NoteNumber":87,"Velocity":40,"Duration":75376,"SoundDuration":75376,"Delta":27777701},{"NoteNumber":73,"Velocity":46,"Duration":226130,"SoundDuration":226130,"Delta":27928455},{"NoteNumber":87,"Velocity":39,"Duration":75376,"SoundDuration":75376,"Delta":28079208},{"NoteNumber":73,"Velocity":50,"Duration":75376,"SoundDuration":75376,"Delta":28154585},{"NoteNumber":71,"Velocity":50,"Duration":218540,"SoundDuration":218540,"Delta":28229962},{"NoteNumber":68,"Velocity":40,"Duration":218540,"SoundDuration":218540,"Delta":28229962},{"NoteNumber":87,"Velocity":40,"Duration":74999,"SoundDuration":74999,"Delta":28373503},{"NoteNumber":71,"Velocity":45,"Duration":225000,"SoundDuration":225000,"Delta":28523503},{"NoteNumber":68,"Velocity":40,"Duration":225000,"SoundDuration":225000,"Delta":28523503},{"NoteNumber":87,"Velocity":40,"Duration":74999,"SoundDuration":74999,"Delta":28673503},{"NoteNumber":70,"Velocity":43,"Duration":230769,"SoundDuration":230769,"Delta":28823503},{"NoteNumber":87,"Velocity":40,"Duration":76923,"SoundDuration":76923,"Delta":28977349},{"NoteNumber":70,"Velocity":50,"Duration":76923,"SoundDuration":76923,"Delta":29054272},{"NoteNumber":68,"Velocity":50,"Duration":227337,"SoundDuration":227337,"Delta":29131195},{"NoteNumber":59,"Velocity":32,"Duration":227337,"SoundDuration":227337,"Delta":29131195},{"NoteNumber":65,"Velocity":36,"Duration":227337,"SoundDuration":227337,"Delta":29131195},{"NoteNumber":62,"Velocity":32,"Duration":227337,"SoundDuration":227337,"Delta":29131195},{"NoteNumber":87,"Velocity":40,"Duration":75885,"SoundDuration":75885,"Delta":29282647},{"NoteNumber":67,"Velocity":45,"Duration":230380,"SoundDuration":230380,"Delta":29434675},{"NoteNumber":59,"Velocity":32,"Duration":230380,"SoundDuration":230380,"Delta":29434675},{"NoteNumber":65,"Velocity":36,"Duration":230380,"SoundDuration":230380,"Delta":29434675},{"NoteNumber":62,"Velocity":32,"Duration":230380,"SoundDuration":230380,"Delta":29434675},{"NoteNumber":87,"Velocity":40,"Duration":76530,"SoundDuration":76530,"Delta":29588525},{"NoteNumber":68,"Velocity":45,"Duration":233701,"SoundDuration":233701,"Delta":29741848},{"NoteNumber":87,"Velocity":40,"Duration":77720,"SoundDuration":77720,"Delta":29897830},{"NoteNumber":70,"Velocity":46,"Duration":236842,"SoundDuration":236842,"Delta":30053270},{"NoteNumber":67,"Velocity":35,"Duration":236842,"SoundDuration":236842,"Delta":30053270},{"NoteNumber":51,"Velocity":31,"Duration":236842,"SoundDuration":236842,"Delta":30053270},{"NoteNumber":87,"Velocity":39,"Duration":78947,"SoundDuration":78947,"Delta":30211165},{"NoteNumber":63,"Velocity":43,"Duration":243243,"SoundDuration":243243,"Delta":30369060},{"NoteNumber":75,"Velocity":39,"Duration":81081,"SoundDuration":81081,"Delta":30531222},{"NoteNumber":75,"Velocity":43,"Duration":231958,"SoundDuration":231958,"Delta":30693384},{"NoteNumber":87,"Velocity":40,"Duration":77319,"SoundDuration":77319,"Delta":30848023},{"NoteNumber":87,"Velocity":50,"Duration":229462,"SoundDuration":229462,"Delta":31002531},{"NoteNumber":99,"Velocity":45,"Duration":76401,"SoundDuration":76401,"Delta":31155592},{"NoteNumber":87,"Velocity":46,"Duration":227785,"SoundDuration":227785,"Delta":31308136},{"NoteNumber":99,"Velocity":43,"Duration":75757,"SoundDuration":75757,"Delta":31460164},{"NoteNumber":85,"Velocity":46,"Duration":226130,"SoundDuration":226130,"Delta":31611679},{"NoteNumber":99,"Velocity":39,"Duration":75376,"SoundDuration":75376,"Delta":31762433},{"NoteNumber":85,"Velocity":54,"Duration":75376,"SoundDuration":75376,"Delta":31837810},{"NoteNumber":83,"Velocity":54,"Duration":210280,"SoundDuration":210280,"Delta":31913186},{"NoteNumber":44,"Velocity":39,"Duration":210280,"SoundDuration":210280,"Delta":31913186},{"NoteNumber":99,"Velocity":45,"Duration":70093,"SoundDuration":70093,"Delta":32053373},{"NoteNumber":83,"Velocity":45,"Duration":225000,"SoundDuration":225000,"Delta":32193560},{"NoteNumber":59,"Velocity":36,"Duration":225000,"SoundDuration":225000,"Delta":32193560},{"NoteNumber":51,"Velocity":33,"Duration":225000,"SoundDuration":225000,"Delta":32193560},{"NoteNumber":99,"Velocity":40,"Duration":75000,"SoundDuration":75000,"Delta":32343560},{"NoteNumber":82,"Velocity":45,"Duration":230769,"SoundDuration":230769,"Delta":32493560},{"NoteNumber":99,"Velocity":40,"Duration":76923,"SoundDuration":76923,"Delta":32647407},{"NoteNumber":82,"Velocity":46,"Duration":76923,"SoundDuration":76923,"Delta":32724330},{"NoteNumber":80,"Velocity":51,"Duration":211267,"SoundDuration":211267,"Delta":32801253},{"NoteNumber":47,"Velocity":39,"Duration":211267,"SoundDuration":211267,"Delta":32801253},{"NoteNumber":99,"Velocity":40,"Duration":70422,"SoundDuration":70422,"Delta":32942098},{"NoteNumber":79,"Velocity":45,"Duration":228426,"SoundDuration":228426,"Delta":33082943},{"NoteNumber":56,"Velocity":33,"Duration":228426,"SoundDuration":228426,"Delta":33082943},{"NoteNumber":63,"Velocity":36,"Duration":228426,"SoundDuration":228426,"Delta":33082943},{"NoteNumber":99,"Velocity":40,"Duration":76142,"SoundDuration":76142,"Delta":33235227},{"NoteNumber":80,"Velocity":45,"Duration":228426,"SoundDuration":228426,"Delta":33387511},{"NoteNumber":99,"Velocity":40,"Duration":76142,"SoundDuration":76142,"Delta":33539796},{"NoteNumber":79,"Velocity":52,"Duration":38071,"SoundDuration":38071,"Delta":33615938},{"NoteNumber":80,"Velocity":54,"Duration":38071,"SoundDuration":38071,"Delta":33654009},{"NoteNumber":82,"Velocity":55,"Duration":213270,"SoundDuration":213270,"Delta":33692080},{"NoteNumber":51,"Velocity":39,"Duration":213270,"SoundDuration":213270,"Delta":33692080},{"NoteNumber":99,"Velocity":39,"Duration":71089,"SoundDuration":71089,"Delta":33834260},{"NoteNumber":75,"Velocity":43,"Duration":226130,"SoundDuration":226130,"Delta":33976440},{"NoteNumber":58,"Velocity":33,"Duration":226130,"SoundDuration":226130,"Delta":33976440},{"NoteNumber":67,"Velocity":36,"Duration":226130,"SoundDuration":226130,"Delta":33976440},{"NoteNumber":99,"Velocity":39,"Duration":75376,"SoundDuration":75376,"Delta":34127194},{"NoteNumber":75,"Velocity":43,"Duration":229183,"SoundDuration":229183,"Delta":34277947},{"NoteNumber":87,"Velocity":40,"Duration":72115,"SoundDuration":72115,"Delta":34435015},{"NoteNumber":78,"Velocity":46,"Duration":72115,"SoundDuration":72115,"Delta":34507131},{"NoteNumber":76,"Velocity":50,"Duration":228426,"SoundDuration":228426,"Delta":34579246},{"NoteNumber":68,"Velocity":31,"Duration":228426,"SoundDuration":228426,"Delta":34579246},{"NoteNumber":70,"Velocity":35,"Duration":228426,"SoundDuration":228426,"Delta":34579246},{"NoteNumber":61,"Velocity":31,"Duration":228426,"SoundDuration":228426,"Delta":34579246},{"NoteNumber":92,"Velocity":44,"Duration":76142,"SoundDuration":76142,"Delta":34731530},{"NoteNumber":75,"Velocity":46,"Duration":228426,"SoundDuration":228426,"Delta":34883815},{"NoteNumber":68,"Velocity":31,"Duration":228426,"SoundDuration":228426,"Delta":34883815},{"NoteNumber":70,"Velocity":35,"Duration":228426,"SoundDuration":228426,"Delta":34883815},{"NoteNumber":63,"Velocity":31,"Duration":228426,"SoundDuration":228426,"Delta":34883815},{"NoteNumber":92,"Velocity":44,"Duration":76142,"SoundDuration":76142,"Delta":35036099},{"NoteNumber":73,"Velocity":46,"Duration":230818,"SoundDuration":230818,"Delta":35188383},{"NoteNumber":70,"Velocity":35,"Duration":230818,"SoundDuration":230818,"Delta":35188383},{"NoteNumber":64,"Velocity":31,"Duration":230818,"SoundDuration":230818,"Delta":35188383},{"NoteNumber":68,"Velocity":31,"Duration":230818,"SoundDuration":230818,"Delta":35188383},{"NoteNumber":92,"Velocity":44,"Duration":78533,"SoundDuration":78533,"Delta":35340667},{"NoteNumber":75,"Velocity":46,"Duration":107142,"SoundDuration":107142,"Delta":35497735},{"NoteNumber":63,"Velocity":35,"Duration":214285,"SoundDuration":214285,"Delta":35497735},{"NoteNumber":71,"Velocity":39,"Duration":214285,"SoundDuration":214285,"Delta":35497735},{"NoteNumber":68,"Velocity":35,"Duration":214285,"SoundDuration":214285,"Delta":35497735},{"NoteNumber":87,"Velocity":39,"Duration":71428,"SoundDuration":71428,"Delta":35640593},{"NoteNumber":80,"Velocity":39,"Duration":72815,"SoundDuration":72815,"Delta":35783450},{"NoteNumber":83,"Velocity":39,"Duration":73170,"SoundDuration":73170,"Delta":35929081},{"NoteNumber":87,"Velocity":46,"Duration":113636,"SoundDuration":113636,"Delta":36075422},{"NoteNumber":99,"Velocity":41,"Duration":77720,"SoundDuration":77720,"Delta":36226938},{"NoteNumber":75,"Velocity":46,"Duration":108173,"SoundDuration":108173,"Delta":36382378},{"NoteNumber":61,"Velocity":30,"Duration":216346,"SoundDuration":216346,"Delta":36382378},{"NoteNumber":67,"Velocity":34,"Duration":216346,"SoundDuration":216346,"Delta":36382378},{"NoteNumber":51,"Velocity":30,"Duration":216346,"SoundDuration":216346,"Delta":36382378},{"NoteNumber":87,"Velocity":39,"Duration":72115,"SoundDuration":72115,"Delta":36526609},{"NoteNumber":79,"Velocity":39,"Duration":73891,"SoundDuration":73891,"Delta":36670840},{"NoteNumber":82,"Velocity":39,"Duration":75757,"SoundDuration":75757,"Delta":36818623},{"NoteNumber":87,"Velocity":46,"Duration":113636,"SoundDuration":113636,"Delta":36970138},{"NoteNumber":99,"Velocity":45,"Duration":82417,"SoundDuration":82417,"Delta":37121653},{"NoteNumber":44,"Velocity":45,"Duration":114213,"SoundDuration":114213,"Delta":37286489},{"NoteNumber":59,"Velocity":40,"Duration":114213,"SoundDuration":114213,"Delta":37438773},{"NoteNumber":63,"Velocity":40,"Duration":114213,"SoundDuration":114213,"Delta":37591057},{"NoteNumber":68,"Velocity":37,"Duration":114213,"SoundDuration":114213,"Delta":37743341},{"NoteNumber":75,"Velocity":37,"Duration":114213,"SoundDuration":114213,"Delta":37895626},{"NoteNumber":80,"Velocity":36,"Duration":114213,"SoundDuration":114213,"Delta":38047910},{"NoteNumber":83,"Velocity":35,"Duration":115582,"SoundDuration":115582,"Delta":38200194},{"NoteNumber":87,"Velocity":35,"Duration":116782,"SoundDuration":116782,"Delta":38354437},{"NoteNumber":92,"Velocity":34,"Duration":117801,"SoundDuration":117801,"Delta":38510350},{"NoteNumber":71,"Velocity":45,"Duration":224595,"SoundDuration":224595,"Delta":39766582},{"NoteNumber":67,"Velocity":36,"Duration":112297,"SoundDuration":112297,"Delta":39916313},{"NoteNumber":70,"Velocity":41,"Duration":112297,"SoundDuration":112297,"Delta":39916313},{"NoteNumber":71,"Velocity":47,"Duration":224595,"SoundDuration":224595,"Delta":40066043},{"NoteNumber":66,"Velocity":39,"Duration":112297,"SoundDuration":112297,"Delta":40215774},{"NoteNumber":69,"Velocity":44,"Duration":112297,"SoundDuration":112297,"Delta":40215774},{"NoteNumber":71,"Velocity":50,"Duration":223432,"SoundDuration":223432,"Delta":40365504},{"NoteNumber":65,"Velocity":41,"Duration":110943,"SoundDuration":110943,"Delta":40514848},{"NoteNumber":68,"Velocity":45,"Duration":110943,"SoundDuration":110943,"Delta":40514848},{"NoteNumber":71,"Velocity":54,"Duration":218655,"SoundDuration":218655,"Delta":40662583},{"NoteNumber":64,"Velocity":43,"Duration":104680,"SoundDuration":104680,"Delta":40811452},{"NoteNumber":67,"Velocity":47,"Duration":104680,"SoundDuration":104680,"Delta":40811452},{"NoteNumber":73,"Velocity":54,"Duration":69118,"SoundDuration":69118,"Delta":40951026},{"NoteNumber":71,"Velocity":54,"Duration":69117,"SoundDuration":69117,"Delta":41020144},{"NoteNumber":70,"Velocity":54,"Duration":69118,"SoundDuration":69118,"Delta":41089262},{"NoteNumber":71,"Velocity":54,"Duration":69117,"SoundDuration":69117,"Delta":41158380},{"NoteNumber":66,"Velocity":61,"Duration":106726,"SoundDuration":106726,"Delta":41227498},{"NoteNumber":63,"Velocity":35,"Duration":212757,"SoundDuration":212757,"Delta":41227498},{"NoteNumber":59,"Velocity":31,"Duration":212757,"SoundDuration":212757,"Delta":41227498},{"NoteNumber":90,"Velocity":54,"Duration":105683,"SoundDuration":105683,"Delta":41369799},{"NoteNumber":71,"Velocity":62,"Duration":105683,"SoundDuration":105683,"Delta":41510710},{"NoteNumber":66,"Velocity":35,"Duration":212729,"SoundDuration":212729,"Delta":41510710},{"NoteNumber":63,"Velocity":31,"Duration":212729,"SoundDuration":212729,"Delta":41510710},{"NoteNumber":54,"Velocity":31,"Duration":212729,"SoundDuration":212729,"Delta":41510710},{"NoteNumber":90,"Velocity":54,"Duration":107727,"SoundDuration":107727,"Delta":41651622},{"NoteNumber":75,"Velocity":56,"Duration":69118,"SoundDuration":69118,"Delta":41795259},{"NoteNumber":73,"Velocity":56,"Duration":69117,"SoundDuration":69117,"Delta":41864377},{"NoteNumber":72,"Velocity":56,"Duration":69118,"SoundDuration":69118,"Delta":41933495},{"NoteNumber":73,"Velocity":56,"Duration":69117,"SoundDuration":69117,"Delta":42002613},{"NoteNumber":66,"Velocity":63,"Duration":106726,"SoundDuration":106726,"Delta":42071731},{"NoteNumber":64,"Velocity":36,"Duration":212757,"SoundDuration":212757,"Delta":42071731},{"NoteNumber":58,"Velocity":32,"Duration":212757,"SoundDuration":212757,"Delta":42071731},{"NoteNumber":90,"Velocity":61,"Duration":105683,"SoundDuration":105683,"Delta":42214032},{"NoteNumber":73,"Velocity":63,"Duration":105683,"SoundDuration":105683,"Delta":42354943},{"NoteNumber":66,"Velocity":36,"Duration":212394,"SoundDuration":212394,"Delta":42354943},{"NoteNumber":64,"Velocity":32,"Duration":212394,"SoundDuration":212394,"Delta":42354943},{"NoteNumber":54,"Velocity":32,"Duration":212394,"SoundDuration":212394,"Delta":42354943},{"NoteNumber":90,"Velocity":61,"Duration":107224,"SoundDuration":107224,"Delta":42495855},{"NoteNumber":76,"Velocity":54,"Duration":69118,"SoundDuration":69118,"Delta":42638821},{"NoteNumber":75,"Velocity":54,"Duration":69117,"SoundDuration":69117,"Delta":42707939},{"NoteNumber":74,"Velocity":54,"Duration":69118,"SoundDuration":69118,"Delta":42777057},{"NoteNumber":75,"Velocity":54,"Duration":69117,"SoundDuration":69117,"Delta":42846175},{"NoteNumber":71,"Velocity":61,"Duration":105683,"SoundDuration":105683,"Delta":42915293},{"NoteNumber":63,"Velocity":35,"Duration":281822,"SoundDuration":281822,"Delta":42915293},{"NoteNumber":59,"Velocity":35,"Duration":281822,"SoundDuration":281822,"Delta":42915293},{"NoteNumber":90,"Velocity":59,"Duration":105683,"SoundDuration":105683,"Delta":43056204},{"NoteNumber":75,"Velocity":45,"Duration":214285,"SoundDuration":214285,"Delta":43197115},{"NoteNumber":71,"Velocity":36,"Duration":107142,"SoundDuration":107142,"Delta":43339972},{"NoteNumber":74,"Velocity":41,"Duration":107142,"SoundDuration":107142,"Delta":43339972},{"NoteNumber":75,"Velocity":47,"Duration":217391,"SoundDuration":217391,"Delta":43482830},{"NoteNumber":70,"Velocity":39,"Duration":108695,"SoundDuration":108695,"Delta":43627757},{"NoteNumber":73,"Velocity":44,"Duration":108695,"SoundDuration":108695,"Delta":43627757},{"NoteNumber":75,"Velocity":50,"Duration":217391,"SoundDuration":217391,"Delta":43772685},{"NoteNumber":69,"Velocity":41,"Duration":108695,"SoundDuration":108695,"Delta":43917612},{"NoteNumber":72,"Velocity":45,"Duration":108695,"SoundDuration":108695,"Delta":43917612},{"NoteNumber":75,"Velocity":54,"Duration":214714,"SoundDuration":214714,"Delta":44062540},{"NoteNumber":68,"Velocity":43,"Duration":104680,"SoundDuration":104680,"Delta":44207467},{"NoteNumber":71,"Velocity":47,"Duration":104680,"SoundDuration":104680,"Delta":44207467},{"NoteNumber":77,"Velocity":54,"Duration":68468,"SoundDuration":68468,"Delta":44347041},{"NoteNumber":75,"Velocity":54,"Duration":68468,"SoundDuration":68468,"Delta":44415509},{"NoteNumber":74,"Velocity":54,"Duration":68468,"SoundDuration":68468,"Delta":44483977},{"NoteNumber":75,"Velocity":54,"Duration":68468,"SoundDuration":68468,"Delta":44552445},{"NoteNumber":70,"Velocity":61,"Duration":105683,"SoundDuration":105683,"Delta":44620913},{"NoteNumber":63,"Velocity":31,"Duration":210355,"SoundDuration":210355,"Delta":44620913},{"NoteNumber":66,"Velocity":35,"Duration":210355,"SoundDuration":210355,"Delta":44620913},{"NoteNumber":94,"Velocity":59,"Duration":104166,"SoundDuration":104166,"Delta":44761825},{"NoteNumber":75,"Velocity":62,"Duration":104166,"SoundDuration":104166,"Delta":44900714},{"NoteNumber":70,"Velocity":35,"Duration":210039,"SoundDuration":210039,"Delta":44900714},{"NoteNumber":66,"Velocity":31,"Duration":210039,"SoundDuration":210039,"Delta":44900714},{"NoteNumber":58,"Velocity":31,"Duration":210039,"SoundDuration":210039,"Delta":44900714},{"NoteNumber":94,"Velocity":59,"Duration":106726,"SoundDuration":106726,"Delta":45039603},{"NoteNumber":78,"Velocity":56,"Duration":68468,"SoundDuration":68468,"Delta":45181904},{"NoteNumber":77,"Velocity":56,"Duration":68468,"SoundDuration":68468,"Delta":45250372},{"NoteNumber":76,"Velocity":56,"Duration":68468,"SoundDuration":68468,"Delta":45318840},{"NoteNumber":77,"Velocity":56,"Duration":68468,"SoundDuration":68468,"Delta":45387309},{"NoteNumber":70,"Velocity":63,"Duration":105683,"SoundDuration":105683,"Delta":45455777},{"NoteNumber":68,"Velocity":36,"Duration":210355,"SoundDuration":210355,"Delta":45455777},{"NoteNumber":62,"Velocity":32,"Duration":210355,"SoundDuration":210355,"Delta":45455777},{"NoteNumber":94,"Velocity":60,"Duration":104166,"SoundDuration":104166,"Delta":45596688},{"NoteNumber":77,"Velocity":62,"Duration":104166,"SoundDuration":104166,"Delta":45735577},{"NoteNumber":70,"Velocity":36,"Duration":209377,"SoundDuration":209377,"Delta":45735577},{"NoteNumber":68,"Velocity":32,"Duration":209377,"SoundDuration":209377,"Delta":45735577},{"NoteNumber":58,"Velocity":32,"Duration":209377,"SoundDuration":209377,"Delta":45735577},{"NoteNumber":94,"Velocity":60,"Duration":105733,"SoundDuration":105733,"Delta":45874466},{"NoteNumber":80,"Velocity":54,"Duration":68468,"SoundDuration":68468,"Delta":46015443},{"NoteNumber":78,"Velocity":54,"Duration":68468,"SoundDuration":68468,"Delta":46083912},{"NoteNumber":77,"Velocity":54,"Duration":68468,"SoundDuration":68468,"Delta":46152380},{"NoteNumber":78,"Velocity":54,"Duration":68468,"SoundDuration":68468,"Delta":46220848},{"NoteNumber":75,"Velocity":61,"Duration":105683,"SoundDuration":105683,"Delta":46289316},{"NoteNumber":63,"Velocity":31,"Duration":281822,"SoundDuration":281822,"Delta":46289316},{"NoteNumber":66,"Velocity":35,"Duration":281822,"SoundDuration":281822,"Delta":46289316},{"NoteNumber":94,"Velocity":59,"Duration":105683,"SoundDuration":105683,"Delta":46430227},{"NoteNumber":78,"Velocity":45,"Duration":213270,"SoundDuration":213270,"Delta":46571138},{"NoteNumber":74,"Velocity":36,"Duration":106634,"SoundDuration":106634,"Delta":46713318},{"NoteNumber":77,"Velocity":41,"Duration":106634,"SoundDuration":106634,"Delta":46713318},{"NoteNumber":78,"Velocity":47,"Duration":213270,"SoundDuration":213270,"Delta":46855498},{"NoteNumber":73,"Velocity":39,"Duration":106634,"SoundDuration":106634,"Delta":46997678},{"NoteNumber":76,"Velocity":44,"Duration":106634,"SoundDuration":106634,"Delta":46997678},{"NoteNumber":78,"Velocity":50,"Duration":213270,"SoundDuration":213270,"Delta":47139858},{"NoteNumber":75,"Velocity":45,"Duration":106634,"SoundDuration":106634,"Delta":47282038},{"NoteNumber":72,"Velocity":41,"Duration":106634,"SoundDuration":106634,"Delta":47282038},{"NoteNumber":78,"Velocity":54,"Duration":211966,"SoundDuration":211966,"Delta":47424218},{"NoteNumber":74,"Velocity":47,"Duration":104680,"SoundDuration":104680,"Delta":47566398},{"NoteNumber":71,"Velocity":43,"Duration":104680,"SoundDuration":104680,"Delta":47566398},{"NoteNumber":80,"Velocity":54,"Duration":68468,"SoundDuration":68468,"Delta":47705972},{"NoteNumber":78,"Velocity":54,"Duration":68468,"SoundDuration":68468,"Delta":47774440},{"NoteNumber":77,"Velocity":54,"Duration":68468,"SoundDuration":68468,"Delta":47842908},{"NoteNumber":78,"Velocity":54,"Duration":68468,"SoundDuration":68468,"Delta":47911377},{"NoteNumber":73,"Velocity":61,"Duration":105683,"SoundDuration":105683,"Delta":47979845},{"NoteNumber":70,"Velocity":35,"Duration":210355,"SoundDuration":210355,"Delta":47979845},{"NoteNumber":66,"Velocity":31,"Duration":210355,"SoundDuration":210355,"Delta":47979845},{"NoteNumber":97,"Velocity":64,"Duration":104166,"SoundDuration":104166,"Delta":48120756},{"NoteNumber":78,"Velocity":62,"Duration":104166,"SoundDuration":104166,"Delta":48259645},{"NoteNumber":70,"Velocity":31,"Duration":209377,"SoundDuration":209377,"Delta":48259645},{"NoteNumber":73,"Velocity":35,"Duration":209377,"SoundDuration":209377,"Delta":48259645},{"NoteNumber":61,"Velocity":35,"Duration":209377,"SoundDuration":209377,"Delta":48259645},{"NoteNumber":97,"Velocity":64,"Duration":105733,"SoundDuration":105733,"Delta":48398534},{"NoteNumber":82,"Velocity":56,"Duration":68468,"SoundDuration":68468,"Delta":48539511},{"NoteNumber":80,"Velocity":56,"Duration":68468,"SoundDuration":68468,"Delta":48607980},{"NoteNumber":79,"Velocity":56,"Duration":68468,"SoundDuration":68468,"Delta":48676448},{"NoteNumber":80,"Velocity":56,"Duration":68468,"SoundDuration":68468,"Delta":48744916},{"NoteNumber":73,"Velocity":63,"Duration":105683,"SoundDuration":105683,"Delta":48813384},{"NoteNumber":71,"Velocity":36,"Duration":210355,"SoundDuration":210355,"Delta":48813384},{"NoteNumber":65,"Velocity":32,"Duration":210355,"SoundDuration":210355,"Delta":48813384},{"NoteNumber":97,"Velocity":64,"Duration":104166,"SoundDuration":104166,"Delta":48954295},{"NoteNumber":80,"Velocity":62,"Duration":104166,"SoundDuration":104166,"Delta":49093184},{"NoteNumber":73,"Velocity":36,"Duration":213161,"SoundDuration":213161,"Delta":49093184},{"NoteNumber":71,"Velocity":32,"Duration":213161,"SoundDuration":213161,"Delta":49093184},{"NoteNumber":61,"Velocity":32,"Duration":213161,"SoundDuration":213161,"Delta":49093184},{"NoteNumber":97,"Velocity":64,"Duration":111242,"SoundDuration":111242,"Delta":49232073},{"NoteNumber":82,"Velocity":47,"Duration":108173,"SoundDuration":108173,"Delta":49379902},{"NoteNumber":78,"Velocity":46,"Duration":108173,"SoundDuration":108173,"Delta":49379902},{"NoteNumber":83,"Velocity":47,"Duration":112499,"SoundDuration":112499,"Delta":49524132},{"NoteNumber":80,"Velocity":46,"Duration":112499,"SoundDuration":112499,"Delta":49524132},{"NoteNumber":66,"Velocity":47,"Duration":363461,"SoundDuration":363461,"Delta":49599132},{"NoteNumber":85,"Velocity":50,"Duration":288461,"SoundDuration":288461,"Delta":49674132},{"NoteNumber":82,"Velocity":47,"Duration":288461,"SoundDuration":288461,"Delta":49674132},{"NoteNumber":97,"Velocity":55,"Duration":144230,"SoundDuration":144230,"Delta":49818363},{"NoteNumber":94,"Velocity":55,"Duration":144230,"SoundDuration":144230,"Delta":49818363},{"NoteNumber":83,"Velocity":47,"Duration":108173,"SoundDuration":108173,"Delta":49962594},{"NoteNumber":80,"Velocity":46,"Duration":108173,"SoundDuration":108173,"Delta":49962594},{"NoteNumber":82,"Velocity":47,"Duration":108173,"SoundDuration":108173,"Delta":50106825},{"NoteNumber":78,"Velocity":46,"Duration":108173,"SoundDuration":108173,"Delta":50106825},{"NoteNumber":80,"Velocity":47,"Duration":108173,"SoundDuration":108173,"Delta":50251055},{"NoteNumber":71,"Velocity":46,"Duration":108173,"SoundDuration":108173,"Delta":50251055},{"NoteNumber":82,"Velocity":47,"Duration":110294,"SoundDuration":110294,"Delta":50395286},{"NoteNumber":73,"Velocity":46,"Duration":110294,"SoundDuration":110294,"Delta":50395286},{"NoteNumber":59,"Velocity":49,"Duration":361990,"SoundDuration":361990,"Delta":50468815},{"NoteNumber":83,"Velocity":50,"Duration":288461,"SoundDuration":288461,"Delta":50542345},{"NoteNumber":75,"Velocity":49,"Duration":288461,"SoundDuration":288461,"Delta":50542345},{"NoteNumber":95,"Velocity":55,"Duration":144230,"SoundDuration":144230,"Delta":50686576},{"NoteNumber":87,"Velocity":50,"Duration":144230,"SoundDuration":144230,"Delta":50686576},{"NoteNumber":82,"Velocity":47,"Duration":108173,"SoundDuration":108173,"Delta":50830806},{"NoteNumber":73,"Velocity":46,"Duration":108173,"SoundDuration":108173,"Delta":50830806},{"NoteNumber":80,"Velocity":47,"Duration":108173,"SoundDuration":108173,"Delta":50975037},{"NoteNumber":71,"Velocity":46,"Duration":108173,"SoundDuration":108173,"Delta":50975037},{"NoteNumber":78,"Velocity":47,"Duration":108173,"SoundDuration":108173,"Delta":51119268},{"NoteNumber":70,"Velocity":46,"Duration":108173,"SoundDuration":108173,"Delta":51119268},{"NoteNumber":80,"Velocity":47,"Duration":110837,"SoundDuration":110837,"Delta":51263499},{"NoteNumber":71,"Velocity":46,"Duration":110837,"SoundDuration":110837,"Delta":51263499},{"NoteNumber":61,"Velocity":49,"Duration":362353,"SoundDuration":362353,"Delta":51337390},{"NoteNumber":82,"Velocity":50,"Duration":288461,"SoundDuration":288461,"Delta":51411282},{"NoteNumber":73,"Velocity":49,"Duration":288461,"SoundDuration":288461,"Delta":51411282},{"NoteNumber":85,"Velocity":47,"Duration":144230,"SoundDuration":144230,"Delta":51555513},{"NoteNumber":94,"Velocity":54,"Duration":144230,"SoundDuration":144230,"Delta":51555513},{"NoteNumber":80,"Velocity":47,"Duration":108173,"SoundDuration":108173,"Delta":51699743},{"NoteNumber":71,"Velocity":46,"Duration":108173,"SoundDuration":108173,"Delta":51699743},{"NoteNumber":78,"Velocity":47,"Duration":108173,"SoundDuration":108173,"Delta":51843974},{"NoteNumber":70,"Velocity":46,"Duration":108173,"SoundDuration":108173,"Delta":51843974},{"NoteNumber":77,"Velocity":47,"Duration":108173,"SoundDuration":108173,"Delta":51988205},{"NoteNumber":68,"Velocity":46,"Duration":108173,"SoundDuration":108173,"Delta":51988205},{"NoteNumber":78,"Velocity":47,"Duration":111386,"SoundDuration":111386,"Delta":52132436},{"NoteNumber":70,"Velocity":46,"Duration":111386,"SoundDuration":111386,"Delta":52132436},{"NoteNumber":61,"Velocity":47,"Duration":362718,"SoundDuration":362718,"Delta":52206693},{"NoteNumber":80,"Velocity":50,"Duration":288461,"SoundDuration":288461,"Delta":52280950},{"NoteNumber":71,"Velocity":47,"Duration":288461,"SoundDuration":288461,"Delta":52280950},{"NoteNumber":92,"Velocity":51,"Duration":144230,"SoundDuration":144230,"Delta":52425181},{"NoteNumber":83,"Velocity":45,"Duration":144230,"SoundDuration":144230,"Delta":52425181},{"NoteNumber":75,"Velocity":47,"Duration":108173,"SoundDuration":108173,"Delta":52569412},{"NoteNumber":66,"Velocity":47,"Duration":108173,"SoundDuration":108173,"Delta":52569412},{"NoteNumber":77,"Velocity":47,"Duration":111386,"SoundDuration":111386,"Delta":52713643},{"NoteNumber":68,"Velocity":47,"Duration":111386,"SoundDuration":111386,"Delta":52713643},{"NoteNumber":78,"Velocity":50,"Duration":216346,"SoundDuration":216346,"Delta":52862157},{"NoteNumber":54,"Velocity":44,"Duration":216346,"SoundDuration":216346,"Delta":52862157},{"NoteNumber":70,"Velocity":49,"Duration":216346,"SoundDuration":216346,"Delta":52862157},{"NoteNumber":90,"Velocity":45,"Duration":144230,"SoundDuration":144230,"Delta":53006388},{"NoteNumber":82,"Velocity":40,"Duration":144230,"SoundDuration":144230,"Delta":53006388},{"NoteNumber":66,"Velocity":51,"Duration":109223,"SoundDuration":109223,"Delta":53150619},{"NoteNumber":78,"Velocity":51,"Duration":109223,"SoundDuration":109223,"Delta":53296250},{"NoteNumber":67,"Velocity":57,"Duration":109223,"SoundDuration":109223,"Delta":53441881},{"NoteNumber":79,"Velocity":57,"Duration":109223,"SoundDuration":109223,"Delta":53587512},{"NoteNumber":68,"Velocity":61,"Duration":108173,"SoundDuration":108173,"Delta":53733143},{"NoteNumber":80,"Velocity":61,"Duration":108173,"SoundDuration":108173,"Delta":53877374},{"NoteNumber":92,"Velocity":65,"Duration":216346,"SoundDuration":216346,"Delta":54021604},{"NoteNumber":64,"Velocity":43,"Duration":216346,"SoundDuration":216346,"Delta":54021604},{"NoteNumber":68,"Velocity":47,"Duration":216346,"SoundDuration":216346,"Delta":54021604},{"NoteNumber":80,"Velocity":56,"Duration":144230,"SoundDuration":144230,"Delta":54165835},{"NoteNumber":92,"Velocity":65,"Duration":216346,"SoundDuration":216346,"Delta":54310066},{"NoteNumber":63,"Velocity":43,"Duration":216346,"SoundDuration":216346,"Delta":54310066},{"NoteNumber":68,"Velocity":47,"Duration":216346,"SoundDuration":216346,"Delta":54310066},{"NoteNumber":78,"Velocity":55,"Duration":144230,"SoundDuration":144230,"Delta":54454297},{"NoteNumber":92,"Velocity":67,"Duration":218122,"SoundDuration":218122,"Delta":54598527},{"NoteNumber":61,"Velocity":45,"Duration":218122,"SoundDuration":218122,"Delta":54598527},{"NoteNumber":68,"Velocity":52,"Duration":218122,"SoundDuration":218122,"Delta":54598527},{"NoteNumber":76,"Velocity":54,"Duration":147783,"SoundDuration":147783,"Delta":54742758},{"NoteNumber":102,"Velocity":70,"Duration":216346,"SoundDuration":216346,"Delta":54890541},{"NoteNumber":75,"Velocity":47,"Duration":216346,"SoundDuration":216346,"Delta":54890541},{"NoteNumber":80,"Velocity":55,"Duration":144230,"SoundDuration":144230,"Delta":55034772},{"NoteNumber":100,"Velocity":70,"Duration":216346,"SoundDuration":216346,"Delta":55179003},{"NoteNumber":73,"Velocity":47,"Duration":216346,"SoundDuration":216346,"Delta":55179003},{"NoteNumber":80,"Velocity":55,"Duration":144230,"SoundDuration":144230,"Delta":55323234},{"NoteNumber":99,"Velocity":70,"Duration":216346,"SoundDuration":216346,"Delta":55467464},{"NoteNumber":56,"Velocity":45,"Duration":288461,"SoundDuration":288461,"Delta":55467464},{"NoteNumber":72,"Velocity":51,"Duration":216346,"SoundDuration":216346,"Delta":55467464},{"NoteNumber":80,"Velocity":55,"Duration":144230,"SoundDuration":144230,"Delta":55611695},{"NoteNumber":97,"Velocity":70,"Duration":216346,"SoundDuration":216346,"Delta":55755926},{"NoteNumber":70,"Velocity":47,"Duration":216346,"SoundDuration":216346,"Delta":55755926},{"NoteNumber":80,"Velocity":55,"Duration":144230,"SoundDuration":144230,"Delta":55900157},{"NoteNumber":99,"Velocity":70,"Duration":218857,"SoundDuration":218857,"Delta":56044387},{"NoteNumber":72,"Velocity":47,"Duration":218857,"SoundDuration":218857,"Delta":56044387},{"NoteNumber":80,"Velocity":54,"Duration":149253,"SoundDuration":149253,"Delta":56188618},{"NoteNumber":100,"Velocity":73,"Duration":216346,"SoundDuration":216346,"Delta":56337872},{"NoteNumber":61,"Velocity":45,"Duration":288461,"SoundDuration":288461,"Delta":56337872},{"NoteNumber":73,"Velocity":51,"Duration":216346,"SoundDuration":216346,"Delta":56337872},{"NoteNumber":80,"Velocity":54,"Duration":144230,"SoundDuration":144230,"Delta":56482103},{"NoteNumber":97,"Velocity":69,"Duration":216346,"SoundDuration":216346,"Delta":56626333},{"NoteNumber":76,"Velocity":47,"Duration":216346,"SoundDuration":216346,"Delta":56626333},{"NoteNumber":80,"Velocity":55,"Duration":144230,"SoundDuration":144230,"Delta":56770564},{"NoteNumber":67,"Velocity":57,"Duration":111386,"SoundDuration":111386,"Delta":56914795},{"NoteNumber":79,"Velocity":57,"Duration":111386,"SoundDuration":111386,"Delta":57063310},{"NoteNumber":66,"Velocity":61,"Duration":106634,"SoundDuration":106634,"Delta":57211824},{"NoteNumber":78,"Velocity":61,"Duration":106634,"SoundDuration":106634,"Delta":57354004},{"NoteNumber":90,"Velocity":65,"Duration":213270,"SoundDuration":213270,"Delta":57496184},{"NoteNumber":63,"Velocity":43,"Duration":213270,"SoundDuration":213270,"Delta":57496184},{"NoteNumber":66,"Velocity":47,"Duration":213270,"SoundDuration":213270,"Delta":57496184},{"NoteNumber":78,"Velocity":56,"Duration":142179,"SoundDuration":142179,"Delta":57638364},{"NoteNumber":90,"Velocity":65,"Duration":213270,"SoundDuration":213270,"Delta":57780544},{"NoteNumber":61,"Velocity":43,"Duration":213270,"SoundDuration":213270,"Delta":57780544},{"NoteNumber":66,"Velocity":47,"Duration":213270,"SoundDuration":213270,"Delta":57780544},{"NoteNumber":76,"Velocity":55,"Duration":142179,"SoundDuration":142179,"Delta":57922724},{"NoteNumber":90,"Velocity":67,"Duration":216071,"SoundDuration":216071,"Delta":58064904},{"NoteNumber":59,"Velocity":45,"Duration":216071,"SoundDuration":216071,"Delta":58064904},{"NoteNumber":66,"Velocity":52,"Duration":216071,"SoundDuration":216071,"Delta":58064904},{"NoteNumber":75,"Velocity":54,"Duration":147783,"SoundDuration":147783,"Delta":58207084},{"NoteNumber":100,"Velocity":70,"Duration":210280,"SoundDuration":210280,"Delta":58354868},{"NoteNumber":73,"Velocity":47,"Duration":210280,"SoundDuration":210280,"Delta":58354868},{"NoteNumber":78,"Velocity":55,"Duration":140187,"SoundDuration":140187,"Delta":58495055},{"NoteNumber":99,"Velocity":70,"Duration":210280,"SoundDuration":210280,"Delta":58635242},{"NoteNumber":71,"Velocity":47,"Duration":210280,"SoundDuration":210280,"Delta":58635242},{"NoteNumber":78,"Velocity":55,"Duration":140186,"SoundDuration":140186,"Delta":58775429},{"NoteNumber":97,"Velocity":70,"Duration":213270,"SoundDuration":213270,"Delta":58915616},{"NoteNumber":54,"Velocity":45,"Duration":284359,"SoundDuration":284359,"Delta":58915616},{"NoteNumber":70,"Velocity":51,"Duration":213270,"SoundDuration":213270,"Delta":58915616},{"NoteNumber":78,"Velocity":55,"Duration":142179,"SoundDuration":142179,"Delta":59057796},{"NoteNumber":95,"Velocity":70,"Duration":213270,"SoundDuration":213270,"Delta":59199976},{"NoteNumber":68,"Velocity":47,"Duration":213270,"SoundDuration":213270,"Delta":59199976},{"NoteNumber":78,"Velocity":55,"Duration":142179,"SoundDuration":142179,"Delta":59342156},{"NoteNumber":97,"Velocity":70,"Duration":216806,"SoundDuration":216806,"Delta":59484336},{"NoteNumber":70,"Velocity":47,"Duration":216806,"SoundDuration":216806,"Delta":59484336},{"NoteNumber":78,"Velocity":54,"Duration":149253,"SoundDuration":149253,"Delta":59626516},{"NoteNumber":99,"Velocity":73,"Duration":216346,"SoundDuration":216346,"Delta":59775769},{"NoteNumber":59,"Velocity":45,"Duration":288461,"SoundDuration":288461,"Delta":59775769},{"NoteNumber":71,"Velocity":51,"Duration":216346,"SoundDuration":216346,"Delta":59775769},{"NoteNumber":78,"Velocity":54,"Duration":144230,"SoundDuration":144230,"Delta":59920000},{"NoteNumber":95,"Velocity":69,"Duration":216346,"SoundDuration":216346,"Delta":60064231},{"NoteNumber":75,"Velocity":47,"Duration":216346,"SoundDuration":216346,"Delta":60064231},{"NoteNumber":78,"Velocity":55,"Duration":144230,"SoundDuration":144230,"Delta":60208462},{"NoteNumber":62,"Velocity":57,"Duration":106634,"SoundDuration":106634,"Delta":60352692},{"NoteNumber":74,"Velocity":52,"Duration":106634,"SoundDuration":106634,"Delta":60494872},{"NoteNumber":63,"Velocity":66,"Duration":105633,"SoundDuration":105633,"Delta":60637052},{"NoteNumber":75,"Velocity":61,"Duration":105633,"SoundDuration":105633,"Delta":60777897},{"NoteNumber":87,"Velocity":61,"Duration":107142,"SoundDuration":107142,"Delta":60918742},{"NoteNumber":63,"Velocity":52,"Duration":214285,"SoundDuration":214285,"Delta":60918742},{"NoteNumber":55,"Velocity":45,"Duration":214285,"SoundDuration":214285,"Delta":60918742},{"NoteNumber":75,"Velocity":52,"Duration":107142,"SoundDuration":107142,"Delta":61061600},{"NoteNumber":87,"Velocity":60,"Duration":106634,"SoundDuration":106634,"Delta":61204457},{"NoteNumber":56,"Velocity":45,"Duration":213270,"SoundDuration":213270,"Delta":61204457},{"NoteNumber":65,"Velocity":52,"Duration":213270,"SoundDuration":213270,"Delta":61204457},{"NoteNumber":74,"Velocity":54,"Duration":106634,"SoundDuration":106634,"Delta":61346637},{"NoteNumber":87,"Velocity":61,"Duration":106132,"SoundDuration":106132,"Delta":61488817},{"NoteNumber":58,"Velocity":52,"Duration":212264,"SoundDuration":212264,"Delta":61488817},{"NoteNumber":67,"Velocity":57,"Duration":212264,"SoundDuration":212264,"Delta":61488817},{"NoteNumber":73,"Velocity":55,"Duration":106132,"SoundDuration":106132,"Delta":61630326},{"NoteNumber":87,"Velocity":60,"Duration":105633,"SoundDuration":105633,"Delta":61771836},{"NoteNumber":58,"Velocity":53,"Duration":211267,"SoundDuration":211267,"Delta":61771836},{"NoteNumber":67,"Velocity":59,"Duration":211267,"SoundDuration":211267,"Delta":61771836},{"NoteNumber":73,"Velocity":57,"Duration":140844,"SoundDuration":140844,"Delta":61912681},{"NoteNumber":87,"Velocity":61,"Duration":106634,"SoundDuration":106634,"Delta":62053526},{"NoteNumber":59,"Velocity":53,"Duration":213270,"SoundDuration":213270,"Delta":62053526},{"NoteNumber":68,"Velocity":59,"Duration":213270,"SoundDuration":213270,"Delta":62053526},{"NoteNumber":71,"Velocity":64,"Duration":106634,"SoundDuration":106634,"Delta":62195706},{"NoteNumber":76,"Velocity":54,"Duration":104166,"SoundDuration":104166,"Delta":62337886},{"NoteNumber":88,"Velocity":73,"Duration":104166,"SoundDuration":104166,"Delta":62337886},{"NoteNumber":61,"Velocity":52,"Duration":208333,"SoundDuration":208333,"Delta":62337886},{"NoteNumber":70,"Velocity":57,"Duration":208333,"SoundDuration":208333,"Delta":62337886},{"NoteNumber":82,"Velocity":54,"Duration":104166,"SoundDuration":104166,"Delta":62476775},{"NoteNumber":87,"Velocity":72,"Duration":104166,"SoundDuration":104166,"Delta":62476775},{"NoteNumber":73,"Velocity":52,"Duration":104166,"SoundDuration":104166,"Delta":62615664},{"NoteNumber":85,"Velocity":71,"Duration":104166,"SoundDuration":104166,"Delta":62615664},{"NoteNumber":76,"Velocity":51,"Duration":104166,"SoundDuration":104166,"Delta":62754553},{"NoteNumber":83,"Velocity":70,"Duration":104166,"SoundDuration":104166,"Delta":62754553},{"NoteNumber":71,"Velocity":51,"Duration":104166,"SoundDuration":104166,"Delta":62893442},{"NoteNumber":82,"Velocity":70,"Duration":104166,"SoundDuration":104166,"Delta":62893442},{"NoteNumber":62,"Velocity":45,"Duration":208013,"SoundDuration":208013,"Delta":62893442},{"NoteNumber":65,"Velocity":52,"Duration":208013,"SoundDuration":208013,"Delta":62893442},{"NoteNumber":77,"Velocity":51,"Duration":103686,"SoundDuration":103686,"Delta":63032331},{"NoteNumber":80,"Velocity":69,"Duration":103686,"SoundDuration":103686,"Delta":63032331},{"NoteNumber":70,"Velocity":51,"Duration":104651,"SoundDuration":104651,"Delta":63169960},{"NoteNumber":79,"Velocity":69,"Duration":104651,"SoundDuration":104651,"Delta":63169960},{"NoteNumber":63,"Velocity":50,"Duration":209302,"SoundDuration":209302,"Delta":63169960},{"NoteNumber":67,"Velocity":55,"Duration":209302,"SoundDuration":209302,"Delta":63169960},{"NoteNumber":75,"Velocity":47,"Duration":104651,"SoundDuration":104651,"Delta":63309495},{"NoteNumber":82,"Velocity":65,"Duration":104651,"SoundDuration":104651,"Delta":63309495},{"NoteNumber":79,"Velocity":45,"Duration":102801,"SoundDuration":102801,"Delta":63449030},{"NoteNumber":83,"Velocity":62,"Duration":102801,"SoundDuration":102801,"Delta":63449030},{"NoteNumber":75,"Velocity":43,"Duration":106635,"SoundDuration":106635,"Delta":63586026},{"NoteNumber":82,"Velocity":57,"Duration":106635,"SoundDuration":106635,"Delta":63586026},{"NoteNumber":74,"Velocity":57,"Duration":105633,"SoundDuration":105633,"Delta":63728206},{"NoteNumber":86,"Velocity":52,"Duration":105633,"SoundDuration":105633,"Delta":63869051},{"NoteNumber":75,"Velocity":66,"Duration":105633,"SoundDuration":105633,"Delta":64009896},{"NoteNumber":87,"Velocity":61,"Duration":105633,"SoundDuration":105633,"Delta":64150741},{"NoteNumber":99,"Velocity":60,"Duration":107142,"SoundDuration":107142,"Delta":64291586},{"NoteNumber":75,"Velocity":45,"Duration":214285,"SoundDuration":214285,"Delta":64291586},{"NoteNumber":67,"Velocity":41,"Duration":214285,"SoundDuration":214285,"Delta":64291586},{"NoteNumber":87,"Velocity":50,"Duration":107086,"SoundDuration":107086,"Delta":64434443},{"NoteNumber":99,"Velocity":56,"Duration":106634,"SoundDuration":106634,"Delta":64577074},{"NoteNumber":68,"Velocity":41,"Duration":213046,"SoundDuration":213046,"Delta":64577074},{"NoteNumber":77,"Velocity":45,"Duration":213046,"SoundDuration":213046,"Delta":64577074},{"NoteNumber":86,"Velocity":52,"Duration":106243,"SoundDuration":106243,"Delta":64719254},{"NoteNumber":99,"Velocity":57,"Duration":106076,"SoundDuration":106076,"Delta":64860876},{"NoteNumber":70,"Velocity":45,"Duration":211710,"SoundDuration":211710,"Delta":64860876},{"NoteNumber":79,"Velocity":51,"Duration":211710,"SoundDuration":211710,"Delta":64860876},{"NoteNumber":85,"Velocity":54,"Duration":105633,"SoundDuration":105633,"Delta":65002164},{"NoteNumber":99,"Velocity":61,"Duration":105249,"SoundDuration":105249,"Delta":65143009},{"NoteNumber":70,"Velocity":45,"Duration":210390,"SoundDuration":210390,"Delta":65143009},{"NoteNumber":79,"Velocity":52,"Duration":210390,"SoundDuration":210390,"Delta":65143009},{"NoteNumber":85,"Velocity":55,"Duration":140186,"SoundDuration":140186,"Delta":65283305},{"NoteNumber":99,"Velocity":61,"Duration":107142,"SoundDuration":107142,"Delta":65423492},{"NoteNumber":71,"Velocity":45,"Duration":214285,"SoundDuration":214285,"Delta":65423492},{"NoteNumber":80,"Velocity":52,"Duration":214285,"SoundDuration":214285,"Delta":65423492},{"NoteNumber":83,"Velocity":63,"Duration":107142,"SoundDuration":107142,"Delta":65566350},{"NoteNumber":88,"Velocity":47,"Duration":104166,"SoundDuration":104166,"Delta":65709207},{"NoteNumber":100,"Velocity":66,"Duration":104166,"SoundDuration":104166,"Delta":65709207},{"NoteNumber":73,"Velocity":45,"Duration":208333,"SoundDuration":208333,"Delta":65709207},{"NoteNumber":81,"Velocity":51,"Duration":208333,"SoundDuration":208333,"Delta":65709207},{"NoteNumber":93,"Velocity":47,"Duration":104166,"SoundDuration":104166,"Delta":65848096},{"NoteNumber":99,"Velocity":64,"Duration":104166,"SoundDuration":104166,"Delta":65848096},{"NoteNumber":85,"Velocity":46,"Duration":104166,"SoundDuration":104166,"Delta":65986985},{"NoteNumber":97,"Velocity":63,"Duration":104166,"SoundDuration":104166,"Delta":65986985},{"NoteNumber":88,"Velocity":45,"Duration":104166,"SoundDuration":104166,"Delta":66125874},{"NoteNumber":95,"Velocity":62,"Duration":104166,"SoundDuration":104166,"Delta":66125874},{"NoteNumber":83,"Velocity":45,"Duration":104166,"SoundDuration":104166,"Delta":66264763},{"NoteNumber":93,"Velocity":62,"Duration":104166,"SoundDuration":104166,"Delta":66264763},{"NoteNumber":74,"Velocity":42,"Duration":208333,"SoundDuration":208333,"Delta":66264763},{"NoteNumber":77,"Velocity":46,"Duration":208333,"SoundDuration":208333,"Delta":66264763},{"NoteNumber":89,"Velocity":45,"Duration":104166,"SoundDuration":104166,"Delta":66403652},{"NoteNumber":92,"Velocity":61,"Duration":104166,"SoundDuration":104166,"Delta":66403652},{"NoteNumber":91,"Velocity":63,"Duration":105633,"SoundDuration":105633,"Delta":66542541},{"NoteNumber":82,"Velocity":45,"Duration":105633,"SoundDuration":105633,"Delta":66542541},{"NoteNumber":75,"Velocity":42,"Duration":211267,"SoundDuration":211267,"Delta":66542541},{"NoteNumber":79,"Velocity":46,"Duration":211267,"SoundDuration":211267,"Delta":66542541},{"NoteNumber":87,"Velocity":45,"Duration":105633,"SoundDuration":105633,"Delta":66683386},{"NoteNumber":94,"Velocity":57,"Duration":105633,"SoundDuration":105633,"Delta":66683386},{"NoteNumber":74,"Velocity":57,"Duration":104166,"SoundDuration":104166,"Delta":66824231},{"NoteNumber":86,"Velocity":52,"Duration":104166,"SoundDuration":104166,"Delta":66963120},{"NoteNumber":75,"Velocity":52,"Duration":104166,"SoundDuration":104166,"Delta":67102009},{"NoteNumber":87,"Velocity":52,"Duration":104166,"SoundDuration":104166,"Delta":67240898},{"NoteNumber":99,"Velocity":60,"Duration":104166,"SoundDuration":104166,"Delta":67379787},{"NoteNumber":87,"Velocity":55,"Duration":104166,"SoundDuration":104166,"Delta":67518676},{"NoteNumber":75,"Velocity":56,"Duration":104166,"SoundDuration":104166,"Delta":67657565},{"NoteNumber":87,"Velocity":51,"Duration":104166,"SoundDuration":104166,"Delta":67796454},{"NoteNumber":76,"Velocity":57,"Duration":104166,"SoundDuration":104166,"Delta":67935343},{"NoteNumber":88,"Velocity":54,"Duration":104166,"SoundDuration":104166,"Delta":68074232},{"NoteNumber":99,"Velocity":61,"Duration":104166,"SoundDuration":104166,"Delta":68213121},{"NoteNumber":87,"Velocity":56,"Duration":104166,"SoundDuration":104166,"Delta":68352010},{"NoteNumber":76,"Velocity":59,"Duration":104166,"SoundDuration":104166,"Delta":68490899},{"NoteNumber":88,"Velocity":54,"Duration":104166,"SoundDuration":104166,"Delta":68629788},{"NoteNumber":77,"Velocity":62,"Duration":103793,"SoundDuration":103793,"Delta":68768677},{"NoteNumber":89,"Velocity":57,"Duration":103686,"SoundDuration":103686,"Delta":68907032},{"NoteNumber":99,"Velocity":64,"Duration":103316,"SoundDuration":103316,"Delta":69045281},{"NoteNumber":87,"Velocity":57,"Duration":103211,"SoundDuration":103211,"Delta":69183001},{"NoteNumber":78,"Velocity":61,"Duration":102844,"SoundDuration":102844,"Delta":69320616},{"NoteNumber":90,"Velocity":56,"Duration":102739,"SoundDuration":102739,"Delta":69457707},{"NoteNumber":99,"Velocity":67,"Duration":102376,"SoundDuration":102376,"Delta":69594693},{"NoteNumber":87,"Velocity":62,"Duration":102272,"SoundDuration":102272,"Delta":69731161},{"NoteNumber":79,"Velocity":64,"Duration":101912,"SoundDuration":101912,"Delta":69867525},{"NoteNumber":91,"Velocity":60,"Duration":101809,"SoundDuration":101809,"Delta":70003374},{"NoteNumber":99,"Velocity":70,"Duration":101453,"SoundDuration":101453,"Delta":70139121},{"NoteNumber":87,"Velocity":62,"Duration":101351,"SoundDuration":101351,"Delta":70274358},{"NoteNumber":80,"Velocity":70,"Duration":100997,"SoundDuration":100997,"Delta":70409493},{"NoteNumber":92,"Velocity":65,"Duration":100896,"SoundDuration":100896,"Delta":70544123},{"NoteNumber":99,"Velocity":71,"Duration":100546,"SoundDuration":100546,"Delta":70678652},{"NoteNumber":81,"Velocity":71,"Duration":99118,"SoundDuration":99118,"Delta":70812666},{"NoteNumber":99,"Velocity":72,"Duration":99075,"SoundDuration":99075,"Delta":70944825},{"NoteNumber":82,"Velocity":72,"Duration":98684,"SoundDuration":98684,"Delta":71076795},{"NoteNumber":99,"Velocity":72,"Duration":98339,"SoundDuration":98339,"Delta":71208374},{"NoteNumber":83,"Velocity":73,"Duration":98181,"SoundDuration":98181,"Delta":71339464},{"NoteNumber":99,"Velocity":75,"Duration":97783,"SoundDuration":97783,"Delta":71470255},{"NoteNumber":84,"Velocity":75,"Duration":97272,"SoundDuration":97272,"Delta":71600506},{"NoteNumber":99,"Velocity":76,"Duration":96765,"SoundDuration":96765,"Delta":71730106},{"NoteNumber":85,"Velocity":77,"Duration":96263,"SoundDuration":96263,"Delta":71859060},{"NoteNumber":99,"Velocity":79,"Duration":95771,"SoundDuration":95771,"Delta":71987375},{"NoteNumber":86,"Velocity":79,"Duration":95339,"SoundDuration":95339,"Delta":72115004},{"NoteNumber":99,"Velocity":80,"Duration":95339,"SoundDuration":95339,"Delta":72242122},{"NoteNumber":87,"Velocity":81,"Duration":95339,"SoundDuration":95339,"Delta":72369241},{"NoteNumber":99,"Velocity":81,"Duration":95339,"SoundDuration":95339,"Delta":72496360},{"NoteNumber":87,"Velocity":81,"Duration":95339,"SoundDuration":95339,"Delta":72623479},{"NoteNumber":99,"Velocity":82,"Duration":95339,"SoundDuration":95339,"Delta":72750597},{"NoteNumber":87,"Velocity":81,"Duration":95339,"SoundDuration":95339,"Delta":72877716},{"NoteNumber":99,"Velocity":81,"Duration":96183,"SoundDuration":96183,"Delta":73004835},{"NoteNumber":87,"Velocity":79,"Duration":97534,"SoundDuration":97534,"Delta":73133411},{"NoteNumber":99,"Velocity":81,"Duration":98172,"SoundDuration":98172,"Delta":73263554},{"NoteNumber":87,"Velocity":76,"Duration":98882,"SoundDuration":98882,"Delta":73394607},{"NoteNumber":99,"Velocity":72,"Duration":99118,"SoundDuration":99118,"Delta":73526529},{"NoteNumber":87,"Velocity":61,"Duration":99118,"SoundDuration":99118,"Delta":73658688},{"NoteNumber":99,"Velocity":62,"Duration":99118,"SoundDuration":99118,"Delta":73790846},{"NoteNumber":87,"Velocity":61,"Duration":103686,"SoundDuration":103686,"Delta":73923005},{"NoteNumber":75,"Velocity":59,"Duration":267857,"SoundDuration":267857,"Delta":74061253},{"NoteNumber":87,"Velocity":61,"Duration":100446,"SoundDuration":100446,"Delta":74195182},{"NoteNumber":99,"Velocity":61,"Duration":100446,"SoundDuration":100446,"Delta":74329110},{"NoteNumber":87,"Velocity":61,"Duration":104166,"SoundDuration":104166,"Delta":74463039},{"NoteNumber":75,"Velocity":59,"Duration":267857,"SoundDuration":267857,"Delta":74601928},{"NoteNumber":87,"Velocity":55,"Duration":100446,"SoundDuration":100446,"Delta":74735856},{"NoteNumber":99,"Velocity":55,"Duration":100446,"SoundDuration":100446,"Delta":74869785},{"NoteNumber":87,"Velocity":55,"Duration":103686,"SoundDuration":103686,"Delta":75003713},{"NoteNumber":75,"Velocity":61,"Duration":99804,"SoundDuration":99804,"Delta":75141962},{"NoteNumber":63,"Velocity":49,"Duration":199804,"SoundDuration":199804,"Delta":75141962},{"NoteNumber":87,"Velocity":55,"Duration":99999,"SoundDuration":99999,"Delta":75275099},{"NoteNumber":99,"Velocity":47,"Duration":99999,"SoundDuration":99999,"Delta":75408433},{"NoteNumber":75,"Velocity":54,"Duration":199999,"SoundDuration":199999,"Delta":75408433},{"NoteNumber":87,"Velocity":47,"Duration":99999,"SoundDuration":99999,"Delta":75541766},{"NoteNumber":75,"Velocity":55,"Duration":265584,"SoundDuration":265584,"Delta":75675099},{"NoteNumber":87,"Velocity":47,"Duration":99557,"SoundDuration":99557,"Delta":75807941},{"NoteNumber":99,"Velocity":47,"Duration":99557,"SoundDuration":99557,"Delta":75940684},{"NoteNumber":73,"Velocity":51,"Duration":199114,"SoundDuration":199114,"Delta":75940684},{"NoteNumber":87,"Velocity":47,"Duration":99557,"SoundDuration":99557,"Delta":76073427},{"NoteNumber":75,"Velocity":47,"Duration":96153,"SoundDuration":96153,"Delta":76206171},{"NoteNumber":56,"Velocity":42,"Duration":256410,"SoundDuration":256410,"Delta":76206171},{"NoteNumber":71,"Velocity":54,"Duration":192307,"SoundDuration":192307,"Delta":76206171},{"NoteNumber":87,"Velocity":47,"Duration":96153,"SoundDuration":96153,"Delta":76334376},{"NoteNumber":99,"Velocity":47,"Duration":98684,"SoundDuration":98684,"Delta":76462581},{"NoteNumber":71,"Velocity":50,"Duration":197368,"SoundDuration":197368,"Delta":76462581},{"NoteNumber":87,"Velocity":49,"Duration":98684,"SoundDuration":98684,"Delta":76594160},{"NoteNumber":75,"Velocity":51,"Duration":100896,"SoundDuration":100896,"Delta":76725739},{"NoteNumber":70,"Velocity":51,"Duration":201793,"SoundDuration":201793,"Delta":76725739},{"NoteNumber":87,"Velocity":51,"Duration":100896,"SoundDuration":100896,"Delta":76860268},{"NoteNumber":99,"Velocity":54,"Duration":96982,"SoundDuration":96982,"Delta":76994798},{"NoteNumber":59,"Velocity":37,"Duration":258620,"SoundDuration":258620,"Delta":76994798},{"NoteNumber":68,"Velocity":54,"Duration":193965,"SoundDuration":193965,"Delta":76994798},{"NoteNumber":87,"Velocity":54,"Duration":96982,"SoundDuration":96982,"Delta":77124108},{"NoteNumber":75,"Velocity":54,"Duration":99118,"SoundDuration":99118,"Delta":77253418},{"NoteNumber":67,"Velocity":54,"Duration":198237,"SoundDuration":198237,"Delta":77253418},{"NoteNumber":87,"Velocity":55,"Duration":99118,"SoundDuration":99118,"Delta":77385577},{"NoteNumber":99,"Velocity":57,"Duration":99118,"SoundDuration":99118,"Delta":77517735},{"NoteNumber":68,"Velocity":57,"Duration":198237,"SoundDuration":198237,"Delta":77517735},{"NoteNumber":87,"Velocity":57,"Duration":99118,"SoundDuration":99118,"Delta":77649894},{"NoteNumber":67,"Velocity":45,"Duration":332745,"SoundDuration":332745,"Delta":77715973},{"NoteNumber":75,"Velocity":60,"Duration":99999,"SoundDuration":99999,"Delta":77782052},{"NoteNumber":70,"Velocity":62,"Duration":266666,"SoundDuration":266666,"Delta":77782052},{"NoteNumber":87,"Velocity":60,"Duration":99999,"SoundDuration":99999,"Delta":77915385},{"NoteNumber":99,"Velocity":60,"Duration":99999,"SoundDuration":99999,"Delta":78048719},{"NoteNumber":63,"Velocity":54,"Duration":199999,"SoundDuration":199999,"Delta":78048719},{"NoteNumber":87,"Velocity":59,"Duration":99999,"SoundDuration":99999,"Delta":78182052},{"NoteNumber":75,"Velocity":59,"Duration":100896,"SoundDuration":100896,"Delta":78315385},{"NoteNumber":63,"Velocity":54,"Duration":201793,"SoundDuration":201793,"Delta":78315385},{"NoteNumber":87,"Velocity":57,"Duration":100896,"SoundDuration":100896,"Delta":78449914},{"NoteNumber":99,"Velocity":57,"Duration":99118,"SoundDuration":99118,"Delta":78584444},{"NoteNumber":55,"Velocity":44,"Duration":264317,"SoundDuration":264317,"Delta":78584444},{"NoteNumber":64,"Velocity":56,"Duration":198237,"SoundDuration":198237,"Delta":78584444},{"NoteNumber":87,"Velocity":57,"Duration":99118,"SoundDuration":99118,"Delta":78716602},{"NoteNumber":75,"Velocity":56,"Duration":99118,"SoundDuration":99118,"Delta":78848761},{"NoteNumber":63,"Velocity":52,"Duration":198237,"SoundDuration":198237,"Delta":78848761},{"NoteNumber":87,"Velocity":56,"Duration":99118,"SoundDuration":99118,"Delta":78980919},{"NoteNumber":99,"Velocity":54,"Duration":99118,"SoundDuration":99118,"Delta":79113078},{"NoteNumber":61,"Velocity":52,"Duration":198237,"SoundDuration":198237,"Delta":79113078},{"NoteNumber":87,"Velocity":54,"Duration":99118,"SoundDuration":99118,"Delta":79245236},{"NoteNumber":75,"Velocity":54,"Duration":99118,"SoundDuration":99118,"Delta":79377395},{"NoteNumber":56,"Velocity":44,"Duration":264316,"SoundDuration":264316,"Delta":79377395},{"NoteNumber":59,"Velocity":54,"Duration":174008,"SoundDuration":174008,"Delta":79377395},{"NoteNumber":87,"Velocity":54,"Duration":99118,"SoundDuration":99118,"Delta":79509553},{"NoteNumber":99,"Velocity":54,"Duration":99118,"SoundDuration":99118,"Delta":79641712},{"NoteNumber":59,"Velocity":50,"Duration":198237,"SoundDuration":198237,"Delta":79641712},{"NoteNumber":87,"Velocity":52,"Duration":99118,"SoundDuration":99118,"Delta":79773870},{"NoteNumber":75,"Velocity":52,"Duration":99118,"SoundDuration":99118,"Delta":79906029},{"NoteNumber":58,"Velocity":49,"Duration":198237,"SoundDuration":198237,"Delta":79906029},{"NoteNumber":87,"Velocity":51,"Duration":99118,"SoundDuration":99118,"Delta":80038187},{"NoteNumber":52,"Velocity":45,"Duration":332745,"SoundDuration":332745,"Delta":80104266},{"NoteNumber":99,"Velocity":47,"Duration":99999,"SoundDuration":99999,"Delta":80170346},{"NoteNumber":56,"Velocity":54,"Duration":199999,"SoundDuration":199999,"Delta":80170346},{"NoteNumber":87,"Velocity":47,"Duration":99999,"SoundDuration":99999,"Delta":80303679},{"NoteNumber":75,"Velocity":46,"Duration":101809,"SoundDuration":101809,"Delta":80437012},{"NoteNumber":55,"Velocity":50,"Duration":203619,"SoundDuration":203619,"Delta":80437012},{"NoteNumber":87,"Velocity":45,"Duration":101809,"SoundDuration":101809,"Delta":80572759},{"NoteNumber":99,"Velocity":45,"Duration":104651,"SoundDuration":104651,"Delta":80708505},{"NoteNumber":56,"Velocity":47,"Duration":209302,"SoundDuration":209302,"Delta":80708505},{"NoteNumber":87,"Velocity":44,"Duration":104651,"SoundDuration":104651,"Delta":80848040},{"NoteNumber":75,"Velocity":47,"Duration":106634,"SoundDuration":106634,"Delta":80987575},{"NoteNumber":55,"Velocity":40,"Duration":284360,"SoundDuration":284360,"Delta":80987575},{"NoteNumber":58,"Velocity":50,"Duration":284360,"SoundDuration":284360,"Delta":80987575},{"NoteNumber":87,"Velocity":47,"Duration":106634,"SoundDuration":106634,"Delta":81129755},{"NoteNumber":99,"Velocity":47,"Duration":106634,"SoundDuration":106634,"Delta":81271935},{"NoteNumber":51,"Velocity":45,"Duration":142179,"SoundDuration":142179,"Delta":81271935},{"NoteNumber":87,"Velocity":47,"Duration":106634,"SoundDuration":106634,"Delta":81414115},{"NoteNumber":75,"Velocity":47,"Duration":101809,"SoundDuration":101809,"Delta":81556295},{"NoteNumber":87,"Velocity":47,"Duration":105140,"SoundDuration":105140,"Delta":81692042},{"NoteNumber":63,"Velocity":57,"Duration":70093,"SoundDuration":70093,"Delta":81762135},{"NoteNumber":99,"Velocity":47,"Duration":98684,"SoundDuration":98684,"Delta":81844290},{"NoteNumber":75,"Velocity":56,"Duration":197368,"SoundDuration":197368,"Delta":81844290},{"NoteNumber":87,"Velocity":47,"Duration":98684,"SoundDuration":98684,"Delta":81975869},{"NoteNumber":75,"Velocity":55,"Duration":262008,"SoundDuration":262008,"Delta":82107395},{"NoteNumber":87,"Velocity":47,"Duration":98253,"SoundDuration":98253,"Delta":82238400},{"NoteNumber":99,"Velocity":47,"Duration":98253,"SoundDuration":98253,"Delta":82369404},{"NoteNumber":73,"Velocity":51,"Duration":196506,"SoundDuration":196506,"Delta":82369404},{"NoteNumber":87,"Velocity":47,"Duration":98253,"SoundDuration":98253,"Delta":82500408},{"NoteNumber":75,"Velocity":47,"Duration":96982,"SoundDuration":96982,"Delta":82619404},{"NoteNumber":56,"Velocity":42,"Duration":258620,"SoundDuration":258620,"Delta":82619404},{"NoteNumber":71,"Velocity":54,"Duration":193965,"SoundDuration":193965,"Delta":82619404},{"NoteNumber":87,"Velocity":47,"Duration":96982,"SoundDuration":96982,"Delta":82748714},{"NoteNumber":99,"Velocity":47,"Duration":99557,"SoundDuration":99557,"Delta":82878024},{"NoteNumber":71,"Velocity":50,"Duration":199114,"SoundDuration":199114,"Delta":82878024},{"NoteNumber":87,"Velocity":49,"Duration":99557,"SoundDuration":99557,"Delta":83010767},{"NoteNumber":75,"Velocity":51,"Duration":100733,"SoundDuration":100733,"Delta":83143511},{"NoteNumber":70,"Velocity":51,"Duration":201630,"SoundDuration":201630,"Delta":83143511},{"NoteNumber":87,"Velocity":51,"Duration":100896,"SoundDuration":100896,"Delta":83290208},{"NoteNumber":99,"Velocity":54,"Duration":99336,"SoundDuration":99336,"Delta":83412405},{"NoteNumber":59,"Velocity":37,"Duration":264534,"SoundDuration":264534,"Delta":83412405},{"NoteNumber":68,"Velocity":54,"Duration":198455,"SoundDuration":198455,"Delta":83412405},{"NoteNumber":87,"Velocity":54,"Duration":99118,"SoundDuration":99118,"Delta":83544781},{"NoteNumber":75,"Velocity":54,"Duration":99118,"SoundDuration":99118,"Delta":83676940},{"NoteNumber":67,"Velocity":54,"Duration":198237,"SoundDuration":198237,"Delta":83676940},{"NoteNumber":87,"Velocity":55,"Duration":99118,"SoundDuration":99118,"Delta":83809098},{"NoteNumber":99,"Velocity":57,"Duration":99118,"SoundDuration":99118,"Delta":83941257},{"NoteNumber":68,"Velocity":57,"Duration":198237,"SoundDuration":198237,"Delta":83941257},{"NoteNumber":87,"Velocity":57,"Duration":99118,"SoundDuration":99118,"Delta":84073415},{"NoteNumber":75,"Velocity":60,"Duration":99892,"SoundDuration":99892,"Delta":84205574},{"NoteNumber":70,"Velocity":62,"Duration":266558,"SoundDuration":266558,"Delta":84205574},{"NoteNumber":67,"Velocity":40,"Duration":266558,"SoundDuration":266558,"Delta":84205574},{"NoteNumber":87,"Velocity":60,"Duration":99999,"SoundDuration":99999,"Delta":84338799},{"NoteNumber":99,"Velocity":60,"Duration":99999,"SoundDuration":99999,"Delta":84472132},{"NoteNumber":63,"Velocity":54,"Duration":199999,"SoundDuration":199999,"Delta":84472132},{"NoteNumber":87,"Velocity":59,"Duration":99999,"SoundDuration":99999,"Delta":84605466},{"NoteNumber":75,"Velocity":59,"Duration":268948,"SoundDuration":268948,"Delta":84738799},{"NoteNumber":87,"Velocity":57,"Duration":100896,"SoundDuration":100896,"Delta":84873219},{"NoteNumber":76,"Velocity":54,"Duration":264534,"SoundDuration":264534,"Delta":85007748},{"NoteNumber":61,"Velocity":45,"Duration":264534,"SoundDuration":264534,"Delta":85007748},{"NoteNumber":70,"Velocity":45,"Duration":264534,"SoundDuration":264534,"Delta":85007748},{"NoteNumber":68,"Velocity":40,"Duration":264534,"SoundDuration":264534,"Delta":85007748},{"NoteNumber":87,"Velocity":54,"Duration":132158,"SoundDuration":132158,"Delta":85140124},{"NoteNumber":75,"Velocity":50,"Duration":264316,"SoundDuration":264316,"Delta":85272282},{"NoteNumber":63,"Velocity":44,"Duration":264316,"SoundDuration":264316,"Delta":85272282},{"NoteNumber":70,"Velocity":43,"Duration":264316,"SoundDuration":264316,"Delta":85272282},{"NoteNumber":68,"Velocity":37,"Duration":264316,"SoundDuration":264316,"Delta":85272282},{"NoteNumber":87,"Velocity":50,"Duration":132158,"SoundDuration":132158,"Delta":85404441},{"NoteNumber":73,"Velocity":50,"Duration":267904,"SoundDuration":267904,"Delta":85536599},{"NoteNumber":64,"Velocity":44,"Duration":267904,"SoundDuration":267904,"Delta":85536599},{"NoteNumber":70,"Velocity":43,"Duration":267904,"SoundDuration":267904,"Delta":85536599},{"NoteNumber":68,"Velocity":37,"Duration":267904,"SoundDuration":267904,"Delta":85536599},{"NoteNumber":87,"Velocity":50,"Duration":135746,"SoundDuration":135746,"Delta":85668758},{"NoteNumber":75,"Velocity":59,"Duration":284360,"SoundDuration":284360,"Delta":85804504},{"NoteNumber":63,"Velocity":44,"Duration":284360,"SoundDuration":284360,"Delta":85804504},{"NoteNumber":68,"Velocity":44,"Duration":284360,"SoundDuration":284360,"Delta":85804504},{"NoteNumber":71,"Velocity":50,"Duration":284360,"SoundDuration":284360,"Delta":85804504},{"NoteNumber":87,"Velocity":54,"Duration":142180,"SoundDuration":142180,"Delta":85946684},{"NoteNumber":80,"Velocity":54,"Duration":106634,"SoundDuration":106634,"Delta":86088864},{"NoteNumber":83,"Velocity":54,"Duration":103211,"SoundDuration":103211,"Delta":86231044},{"NoteNumber":87,"Velocity":60,"Duration":284065,"SoundDuration":284065,"Delta":86368659},{"NoteNumber":99,"Velocity":54,"Duration":153061,"SoundDuration":153061,"Delta":86499663},{"NoteNumber":75,"Velocity":59,"Duration":291262,"SoundDuration":291262,"Delta":86652724},{"NoteNumber":63,"Velocity":42,"Duration":291262,"SoundDuration":291262,"Delta":86652724},{"NoteNumber":67,"Velocity":42,"Duration":291262,"SoundDuration":291262,"Delta":86652724},{"NoteNumber":73,"Velocity":46,"Duration":291262,"SoundDuration":291262,"Delta":86652724},{"NoteNumber":87,"Velocity":54,"Duration":145631,"SoundDuration":145631,"Delta":86798355},{"NoteNumber":79,"Velocity":54,"Duration":109223,"SoundDuration":109223,"Delta":86943986},{"NoteNumber":82,"Velocity":54,"Duration":109223,"SoundDuration":109223,"Delta":87089617},{"NoteNumber":87,"Velocity":60,"Duration":304600,"SoundDuration":304600,"Delta":87235248},{"NoteNumber":99,"Velocity":54,"Duration":150753,"SoundDuration":150753,"Delta":87389095},{"NoteNumber":56,"Velocity":52,"Duration":108115,"SoundDuration":108115,"Delta":87539848},{"NoteNumber":63,"Velocity":47,"Duration":106804,"SoundDuration":106804,"Delta":87683849},{"NoteNumber":71,"Velocity":47,"Duration":105305,"SoundDuration":105305,"Delta":87826031},{"NoteNumber":80,"Velocity":47,"Duration":103847,"SoundDuration":103847,"Delta":87966220},{"NoteNumber":75,"Velocity":49,"Duration":45662,"SoundDuration":45662,"Delta":88104471},{"NoteNumber":87,"Velocity":49,"Duration":45146,"SoundDuration":45146,"Delta":88195588},{"NoteNumber":87,"Velocity":49,"Duration":51020,"SoundDuration":51020,"Delta":88286434},{"NoteNumber":87,"Velocity":52,"Duration":50346,"SoundDuration":50346,"Delta":88388185},{"NoteNumber":87,"Velocity":52,"Duration":49795,"SoundDuration":49795,"Delta":88488531},{"NoteNumber":99,"Velocity":52,"Duration":49014,"SoundDuration":49014,"Delta":88587721},{"NoteNumber":87,"Velocity":52,"Duration":48491,"SoundDuration":48491,"Delta":88685516},{"NoteNumber":87,"Velocity":52,"Duration":47755,"SoundDuration":47755,"Delta":88782148},{"NoteNumber":99,"Velocity":52,"Duration":47393,"SoundDuration":47393,"Delta":88877489},{"NoteNumber":85,"Velocity":52,"Duration":47393,"SoundDuration":47393,"Delta":88972275},{"NoteNumber":85,"Velocity":52,"Duration":47393,"SoundDuration":47393,"Delta":89067062},{"NoteNumber":97,"Velocity":52,"Duration":47393,"SoundDuration":47393,"Delta":89161849},{"NoteNumber":83,"Velocity":54,"Duration":46296,"SoundDuration":46296,"Delta":89256507},{"NoteNumber":44,"Velocity":54,"Duration":277777,"SoundDuration":277777,"Delta":89256507},{"NoteNumber":83,"Velocity":54,"Duration":46296,"SoundDuration":46296,"Delta":89349100},{"NoteNumber":95,"Velocity":54,"Duration":46296,"SoundDuration":46296,"Delta":89441692},{"NoteNumber":83,"Velocity":54,"Duration":46296,"SoundDuration":46296,"Delta":89534285},{"NoteNumber":59,"Velocity":50,"Duration":138889,"SoundDuration":138889,"Delta":89534285},{"NoteNumber":51,"Velocity":44,"Duration":138889,"SoundDuration":138889,"Delta":89534285},{"NoteNumber":83,"Velocity":54,"Duration":46296,"SoundDuration":46296,"Delta":89626878},{"NoteNumber":95,"Velocity":54,"Duration":46296,"SoundDuration":46296,"Delta":89719470},{"NoteNumber":82,"Velocity":52,"Duration":45248,"SoundDuration":45248,"Delta":89812063},{"NoteNumber":51,"Velocity":44,"Duration":135746,"SoundDuration":135746,"Delta":89812063},{"NoteNumber":59,"Velocity":50,"Duration":135746,"SoundDuration":135746,"Delta":89812063},{"NoteNumber":82,"Velocity":52,"Duration":45248,"SoundDuration":45248,"Delta":89902561},{"NoteNumber":94,"Velocity":52,"Duration":45248,"SoundDuration":45248,"Delta":89993058},{"NoteNumber":80,"Velocity":54,"Duration":45871,"SoundDuration":45871,"Delta":90083556},{"NoteNumber":47,"Velocity":54,"Duration":275229,"SoundDuration":275229,"Delta":90083556},{"NoteNumber":80,"Velocity":54,"Duration":45871,"SoundDuration":45871,"Delta":90175299},{"NoteNumber":92,"Velocity":54,"Duration":45871,"SoundDuration":45871,"Delta":90267042},{"NoteNumber":79,"Velocity":52,"Duration":44843,"SoundDuration":44843,"Delta":90358785},{"NoteNumber":63,"Velocity":50,"Duration":134529,"SoundDuration":134529,"Delta":90358785},{"NoteNumber":56,"Velocity":44,"Duration":134529,"SoundDuration":134529,"Delta":90358785},{"NoteNumber":79,"Velocity":52,"Duration":44843,"SoundDuration":44843,"Delta":90448472},{"NoteNumber":91,"Velocity":52,"Duration":44843,"SoundDuration":44843,"Delta":90538158},{"NoteNumber":80,"Velocity":52,"Duration":44642,"SoundDuration":44642,"Delta":90627844},{"NoteNumber":56,"Velocity":44,"Duration":133928,"SoundDuration":133928,"Delta":90627844},{"NoteNumber":63,"Velocity":50,"Duration":133928,"SoundDuration":133928,"Delta":90627844},{"NoteNumber":80,"Velocity":52,"Duration":44642,"SoundDuration":44642,"Delta":90717130},{"NoteNumber":92,"Velocity":52,"Duration":44642,"SoundDuration":44642,"Delta":90806415},{"NoteNumber":82,"Velocity":54,"Duration":46082,"SoundDuration":46082,"Delta":90895701},{"NoteNumber":51,"Velocity":54,"Duration":276497,"SoundDuration":276497,"Delta":90895701},{"NoteNumber":82,"Velocity":54,"Duration":46082,"SoundDuration":46082,"Delta":90987867},{"NoteNumber":94,"Velocity":54,"Duration":46082,"SoundDuration":46082,"Delta":91080033},{"NoteNumber":75,"Velocity":50,"Duration":46082,"SoundDuration":46082,"Delta":91172198},{"NoteNumber":67,"Velocity":47,"Duration":138248,"SoundDuration":138248,"Delta":91172198},{"NoteNumber":58,"Velocity":43,"Duration":138248,"SoundDuration":138248,"Delta":91172198},{"NoteNumber":75,"Velocity":50,"Duration":46082,"SoundDuration":46082,"Delta":91264364},{"NoteNumber":87,"Velocity":47,"Duration":46082,"SoundDuration":46082,"Delta":91356530},{"NoteNumber":75,"Velocity":47,"Duration":45248,"SoundDuration":45248,"Delta":91448696},{"NoteNumber":67,"Velocity":47,"Duration":135746,"SoundDuration":135746,"Delta":91448696},{"NoteNumber":58,"Velocity":43,"Duration":135746,"SoundDuration":135746,"Delta":91448696},{"NoteNumber":75,"Velocity":47,"Duration":45248,"SoundDuration":45248,"Delta":91539194},{"NoteNumber":87,"Velocity":47,"Duration":45248,"SoundDuration":45248,"Delta":91629691},{"NoteNumber":76,"Velocity":50,"Duration":44642,"SoundDuration":44642,"Delta":91720189},{"NoteNumber":55,"Velocity":50,"Duration":267857,"SoundDuration":267857,"Delta":91720189},{"NoteNumber":76,"Velocity":50,"Duration":44642,"SoundDuration":44642,"Delta":91809475},{"NoteNumber":88,"Velocity":50,"Duration":44642,"SoundDuration":44642,"Delta":91898760},{"NoteNumber":75,"Velocity":47,"Duration":44642,"SoundDuration":44642,"Delta":91988046},{"NoteNumber":70,"Velocity":45,"Duration":133928,"SoundDuration":133928,"Delta":91988046},{"NoteNumber":63,"Velocity":40,"Duration":133928,"SoundDuration":133928,"Delta":91988046},{"NoteNumber":75,"Velocity":47,"Duration":44642,"SoundDuration":44642,"Delta":92077332},{"NoteNumber":87,"Velocity":47,"Duration":44642,"SoundDuration":44642,"Delta":92166617},{"NoteNumber":73,"Velocity":47,"Duration":44642,"SoundDuration":44642,"Delta":92255903},{"NoteNumber":63,"Velocity":40,"Duration":133928,"SoundDuration":133928,"Delta":92255903},{"NoteNumber":70,"Velocity":45,"Duration":133928,"SoundDuration":133928,"Delta":92255903},{"NoteNumber":73,"Velocity":47,"Duration":44642,"SoundDuration":44642,"Delta":92345189},{"NoteNumber":85,"Velocity":47,"Duration":44642,"SoundDuration":44642,"Delta":92434474},{"NoteNumber":71,"Velocity":50,"Duration":44642,"SoundDuration":44642,"Delta":92523760},{"NoteNumber":56,"Velocity":47,"Duration":267856,"SoundDuration":267856,"Delta":92523760},{"NoteNumber":71,"Velocity":50,"Duration":44642,"SoundDuration":44642,"Delta":92613046},{"NoteNumber":83,"Velocity":50,"Duration":44642,"SoundDuration":44642,"Delta":92702331},{"NoteNumber":71,"Velocity":47,"Duration":44642,"SoundDuration":44642,"Delta":92791617},{"NoteNumber":68,"Velocity":44,"Duration":133928,"SoundDuration":133928,"Delta":92791617},{"NoteNumber":63,"Velocity":39,"Duration":133928,"SoundDuration":133928,"Delta":92791617},{"NoteNumber":71,"Velocity":47,"Duration":44642,"SoundDuration":44642,"Delta":92880903},{"NoteNumber":83,"Velocity":47,"Duration":44642,"SoundDuration":44642,"Delta":92970188},{"NoteNumber":70,"Velocity":47,"Duration":44642,"SoundDuration":44642,"Delta":93059474},{"NoteNumber":63,"Velocity":39,"Duration":133928,"SoundDuration":133928,"Delta":93059474},{"NoteNumber":68,"Velocity":44,"Duration":133928,"SoundDuration":133928,"Delta":93059474},{"NoteNumber":70,"Velocity":47,"Duration":44642,"SoundDuration":44642,"Delta":93148760},{"NoteNumber":82,"Velocity":47,"Duration":45045,"SoundDuration":45045,"Delta":93238447},{"NoteNumber":68,"Velocity":49,"Duration":46082,"SoundDuration":46082,"Delta":93328538},{"NoteNumber":59,"Velocity":49,"Duration":276497,"SoundDuration":276497,"Delta":93328538},{"NoteNumber":68,"Velocity":49,"Duration":46082,"SoundDuration":46082,"Delta":93420703},{"NoteNumber":80,"Velocity":49,"Duration":46082,"SoundDuration":46082,"Delta":93512869},{"NoteNumber":67,"Velocity":47,"Duration":46728,"SoundDuration":46728,"Delta":93605035},{"NoteNumber":62,"Velocity":36,"Duration":140186,"SoundDuration":140186,"Delta":93605035},{"NoteNumber":65,"Velocity":41,"Duration":140186,"SoundDuration":140186,"Delta":93605035},{"NoteNumber":67,"Velocity":47,"Duration":46728,"SoundDuration":46728,"Delta":93698493},{"NoteNumber":79,"Velocity":47,"Duration":46728,"SoundDuration":46728,"Delta":93791951},{"NoteNumber":68,"Velocity":47,"Duration":48076,"SoundDuration":48076,"Delta":93885409},{"NoteNumber":62,"Velocity":36,"Duration":144230,"SoundDuration":144230,"Delta":93885409},{"NoteNumber":65,"Velocity":41,"Duration":144230,"SoundDuration":144230,"Delta":93885409},{"NoteNumber":68,"Velocity":47,"Duration":48076,"SoundDuration":48076,"Delta":93981563},{"NoteNumber":80,"Velocity":47,"Duration":48076,"SoundDuration":48076,"Delta":94077717},{"NoteNumber":70,"Velocity":50,"Duration":49019,"SoundDuration":49019,"Delta":94173871},{"NoteNumber":51,"Velocity":46,"Duration":293450,"SoundDuration":293450,"Delta":94173871},{"NoteNumber":70,"Velocity":50,"Duration":49019,"SoundDuration":49019,"Delta":94271910},{"NoteNumber":82,"Velocity":50,"Duration":48769,"SoundDuration":48769,"Delta":94369949},{"NoteNumber":63,"Velocity":47,"Duration":48780,"SoundDuration":48780,"Delta":94467322},{"NoteNumber":67,"Velocity":37,"Duration":296126,"SoundDuration":296126,"Delta":94467322},{"NoteNumber":58,"Velocity":34,"Duration":296126,"SoundDuration":296126,"Delta":94467322},{"NoteNumber":63,"Velocity":47,"Duration":49219,"SoundDuration":49219,"Delta":94565122},{"NoteNumber":75,"Velocity":43,"Duration":49708,"SoundDuration":49708,"Delta":94663846},{"NoteNumber":75,"Velocity":45,"Duration":50075,"SoundDuration":50075,"Delta":94763448},{"NoteNumber":75,"Velocity":45,"Duration":50607,"SoundDuration":50607,"Delta":94863946},{"NoteNumber":75,"Velocity":45,"Duration":50897,"SoundDuration":50897,"Delta":94965315},{"NoteNumber":87,"Velocity":52,"Duration":50000,"SoundDuration":50000,"Delta":95067373},{"NoteNumber":87,"Velocity":52,"Duration":49999,"SoundDuration":49999,"Delta":95167373},{"NoteNumber":99,"Velocity":52,"Duration":49852,"SoundDuration":49852,"Delta":95267373},{"NoteNumber":87,"Velocity":52,"Duration":49037,"SoundDuration":49037,"Delta":95366487},{"NoteNumber":87,"Velocity":52,"Duration":48685,"SoundDuration":48685,"Delta":95464382},{"NoteNumber":99,"Velocity":52,"Duration":48309,"SoundDuration":48309,"Delta":95561577},{"NoteNumber":85,"Velocity":52,"Duration":47933,"SoundDuration":47933,"Delta":95657992},{"NoteNumber":85,"Velocity":52,"Duration":47596,"SoundDuration":47596,"Delta":95753692},{"NoteNumber":97,"Velocity":52,"Duration":47208,"SoundDuration":47208,"Delta":95848682},{"NoteNumber":83,"Velocity":54,"Duration":46745,"SoundDuration":46745,"Delta":95942933},{"NoteNumber":44,"Velocity":54,"Duration":280390,"SoundDuration":280390,"Delta":95942933},{"NoteNumber":83,"Velocity":54,"Duration":46728,"SoundDuration":46728,"Delta":96036408},{"NoteNumber":95,"Velocity":54,"Duration":46728,"SoundDuration":46728,"Delta":96129866},{"NoteNumber":83,"Velocity":54,"Duration":46728,"SoundDuration":46728,"Delta":96223324},{"NoteNumber":59,"Velocity":50,"Duration":140186,"SoundDuration":140186,"Delta":96223324},{"NoteNumber":51,"Velocity":44,"Duration":140186,"SoundDuration":140186,"Delta":96223324},{"NoteNumber":83,"Velocity":54,"Duration":46728,"SoundDuration":46728,"Delta":96316782},{"NoteNumber":95,"Velocity":54,"Duration":46728,"SoundDuration":46728,"Delta":96410240},{"NoteNumber":82,"Velocity":52,"Duration":45045,"SoundDuration":45045,"Delta":96503698},{"NoteNumber":51,"Velocity":44,"Duration":135135,"SoundDuration":135135,"Delta":96503698},{"NoteNumber":59,"Velocity":50,"Duration":135135,"SoundDuration":135135,"Delta":96503698},{"NoteNumber":82,"Velocity":52,"Duration":45045,"SoundDuration":45045,"Delta":96593788},{"NoteNumber":94,"Velocity":52,"Duration":45045,"SoundDuration":45045,"Delta":96683878},{"NoteNumber":80,"Velocity":54,"Duration":46296,"SoundDuration":46296,"Delta":96773968},{"NoteNumber":47,"Velocity":54,"Duration":277777,"SoundDuration":277777,"Delta":96773968},{"NoteNumber":80,"Velocity":54,"Duration":46296,"SoundDuration":46296,"Delta":96866561},{"NoteNumber":92,"Velocity":54,"Duration":46296,"SoundDuration":46296,"Delta":96959154},{"NoteNumber":79,"Velocity":52,"Duration":44642,"SoundDuration":44642,"Delta":97051746},{"NoteNumber":63,"Velocity":50,"Duration":133928,"SoundDuration":133928,"Delta":97051746},{"NoteNumber":56,"Velocity":44,"Duration":133928,"SoundDuration":133928,"Delta":97051746},{"NoteNumber":79,"Velocity":52,"Duration":44642,"SoundDuration":44642,"Delta":97141032},{"NoteNumber":91,"Velocity":52,"Duration":44642,"SoundDuration":44642,"Delta":97230318},{"NoteNumber":80,"Velocity":52,"Duration":44247,"SoundDuration":44247,"Delta":97319603},{"NoteNumber":56,"Velocity":44,"Duration":132743,"SoundDuration":132743,"Delta":97319603},{"NoteNumber":63,"Velocity":50,"Duration":132743,"SoundDuration":132743,"Delta":97319603},{"NoteNumber":80,"Velocity":52,"Duration":44247,"SoundDuration":44247,"Delta":97408099},{"NoteNumber":92,"Velocity":52,"Duration":44247,"SoundDuration":44247,"Delta":97496594},{"NoteNumber":82,"Velocity":54,"Duration":45454,"SoundDuration":45454,"Delta":97585090},{"NoteNumber":51,"Velocity":54,"Duration":272727,"SoundDuration":272727,"Delta":97585090},{"NoteNumber":82,"Velocity":54,"Duration":45454,"SoundDuration":45454,"Delta":97675999},{"NoteNumber":94,"Velocity":54,"Duration":45454,"SoundDuration":45454,"Delta":97766908},{"NoteNumber":75,"Velocity":50,"Duration":45454,"SoundDuration":45454,"Delta":97857817},{"NoteNumber":67,"Velocity":39,"Duration":204545,"SoundDuration":204545,"Delta":97857817},{"NoteNumber":58,"Velocity":35,"Duration":204545,"SoundDuration":204545,"Delta":97857817},{"NoteNumber":75,"Velocity":50,"Duration":45454,"SoundDuration":45454,"Delta":97948727},{"NoteNumber":87,"Velocity":47,"Duration":45454,"SoundDuration":45454,"Delta":98039636},{"NoteNumber":75,"Velocity":49,"Duration":44843,"SoundDuration":44843,"Delta":98130545},{"NoteNumber":67,"Velocity":36,"Duration":201793,"SoundDuration":201793,"Delta":98130545},{"NoteNumber":70,"Velocity":41,"Duration":201793,"SoundDuration":201793,"Delta":98130545},{"NoteNumber":75,"Velocity":49,"Duration":44843,"SoundDuration":44843,"Delta":98220231},{"NoteNumber":87,"Velocity":49,"Duration":44843,"SoundDuration":44843,"Delta":98309917},{"NoteNumber":76,"Velocity":52,"Duration":45045,"SoundDuration":45045,"Delta":98399603},{"NoteNumber":68,"Velocity":37,"Duration":202702,"SoundDuration":202702,"Delta":98399603},{"NoteNumber":71,"Velocity":43,"Duration":202702,"SoundDuration":202702,"Delta":98399603},{"NoteNumber":76,"Velocity":52,"Duration":45045,"SoundDuration":45045,"Delta":98489694},{"NoteNumber":88,"Velocity":52,"Duration":45045,"SoundDuration":45045,"Delta":98579784},{"NoteNumber":75,"Velocity":50,"Duration":45045,"SoundDuration":45045,"Delta":98669874},{"NoteNumber":66,"Velocity":35,"Duration":202702,"SoundDuration":202702,"Delta":98669874},{"NoteNumber":70,"Velocity":40,"Duration":202702,"SoundDuration":202702,"Delta":98669874},{"NoteNumber":75,"Velocity":50,"Duration":45045,"SoundDuration":45045,"Delta":98759964},{"NoteNumber":87,"Velocity":50,"Duration":45045,"SoundDuration":45045,"Delta":98850054},{"NoteNumber":73,"Velocity":47,"Duration":44444,"SoundDuration":44444,"Delta":98940144},{"NoteNumber":64,"Velocity":35,"Duration":199999,"SoundDuration":199999,"Delta":98940144},{"NoteNumber":68,"Velocity":39,"Duration":199999,"SoundDuration":199999,"Delta":98940144},{"NoteNumber":73,"Velocity":47,"Duration":44444,"SoundDuration":44444,"Delta":99029033},{"NoteNumber":85,"Velocity":47,"Duration":44444,"SoundDuration":44444,"Delta":99117922},{"NoteNumber":75,"Velocity":46,"Duration":43668,"SoundDuration":43668,"Delta":99206713},{"NoteNumber":68,"Velocity":41,"Duration":262008,"SoundDuration":262008,"Delta":99206713},{"NoteNumber":63,"Velocity":41,"Duration":262008,"SoundDuration":262008,"Delta":99206713},{"NoteNumber":71,"Velocity":45,"Duration":262008,"SoundDuration":262008,"Delta":99206713},{"NoteNumber":75,"Velocity":46,"Duration":43668,"SoundDuration":43668,"Delta":99294049},{"NoteNumber":87,"Velocity":47,"Duration":43668,"SoundDuration":43668,"Delta":99381385},{"NoteNumber":76,"Velocity":47,"Duration":43668,"SoundDuration":43668,"Delta":99468721},{"NoteNumber":76,"Velocity":49,"Duration":43668,"SoundDuration":43668,"Delta":99556057},{"NoteNumber":87,"Velocity":49,"Duration":43478,"SoundDuration":43478,"Delta":99643204},{"NoteNumber":77,"Velocity":50,"Duration":43478,"SoundDuration":43478,"Delta":99730160},{"NoteNumber":77,"Velocity":50,"Duration":43478,"SoundDuration":43478,"Delta":99817117},{"NoteNumber":87,"Velocity":51,"Duration":43478,"SoundDuration":43478,"Delta":99904073},{"NoteNumber":78,"Velocity":51,"Duration":43290,"SoundDuration":43290,"Delta":99991030},{"NoteNumber":78,"Velocity":52,"Duration":43290,"SoundDuration":43290,"Delta":100077610},{"NoteNumber":87,"Velocity":52,"Duration":43290,"SoundDuration":43290,"Delta":100164190},{"NoteNumber":79,"Velocity":54,"Duration":43290,"SoundDuration":43290,"Delta":100250770},{"NoteNumber":79,"Velocity":54,"Duration":43290,"SoundDuration":43290,"Delta":100337350},{"NoteNumber":87,"Velocity":54,"Duration":43103,"SoundDuration":43103,"Delta":100423744},{"NoteNumber":80,"Velocity":55,"Duration":43103,"SoundDuration":43103,"Delta":100509951},{"NoteNumber":80,"Velocity":55,"Duration":43103,"SoundDuration":43103,"Delta":100596157},{"NoteNumber":87,"Velocity":56,"Duration":43103,"SoundDuration":43103,"Delta":100682364},{"NoteNumber":81,"Velocity":56,"Duration":43159,"SoundDuration":43159,"Delta":100768571},{"NoteNumber":67,"Velocity":50,"Duration":259896,"SoundDuration":259896,"Delta":100768571},{"NoteNumber":61,"Velocity":44,"Duration":259896,"SoundDuration":259896,"Delta":100768571},{"NoteNumber":51,"Velocity":44,"Duration":259896,"SoundDuration":259896,"Delta":100768571},{"NoteNumber":81,"Velocity":55,"Duration":43290,"SoundDuration":43290,"Delta":100855021},{"NoteNumber":87,"Velocity":55,"Duration":43388,"SoundDuration":43388,"Delta":100941601},{"NoteNumber":82,"Velocity":55,"Duration":43478,"SoundDuration":43478,"Delta":101028468},{"NoteNumber":82,"Velocity":55,"Duration":43615,"SoundDuration":43615,"Delta":101115424},{"NoteNumber":87,"Velocity":55,"Duration":43668,"SoundDuration":43668,"Delta":101202708},{"NoteNumber":83,"Velocity":55,"Duration":43859,"SoundDuration":43859,"Delta":101290155},{"NoteNumber":83,"Velocity":55,"Duration":43859,"SoundDuration":43859,"Delta":101377874},{"NoteNumber":87,"Velocity":55,"Duration":44052,"SoundDuration":44052,"Delta":101465743},{"NoteNumber":84,"Velocity":54,"Duration":44052,"SoundDuration":44052,"Delta":101553849},{"NoteNumber":84,"Velocity":54,"Duration":44247,"SoundDuration":44247,"Delta":101642149},{"NoteNumber":87,"Velocity":54,"Duration":44287,"SoundDuration":44287,"Delta":101730645},{"NoteNumber":85,"Velocity":52,"Duration":44444,"SoundDuration":44444,"Delta":101819376},{"NoteNumber":85,"Velocity":52,"Duration":44642,"SoundDuration":44642,"Delta":101908275},{"NoteNumber":87,"Velocity":51,"Duration":44642,"SoundDuration":44642,"Delta":101997561},{"NoteNumber":86,"Velocity":50,"Duration":44843,"SoundDuration":44843,"Delta":102086896},{"NoteNumber":86,"Velocity":50,"Duration":44843,"SoundDuration":44843,"Delta":102176583},{"NoteNumber":87,"Velocity":49,"Duration":45045,"SoundDuration":45045,"Delta":102266360},{"NoteNumber":87,"Velocity":47,"Duration":45233,"SoundDuration":45233,"Delta":102356450},{"NoteNumber":68,"Velocity":37,"Duration":274556,"SoundDuration":274556,"Delta":102356450},{"NoteNumber":59,"Velocity":34,"Duration":274556,"SoundDuration":274556,"Delta":102356450},{"NoteNumber":51,"Velocity":34,"Duration":274556,"SoundDuration":274556,"Delta":102356450},{"NoteNumber":44,"Velocity":34,"Duration":274556,"SoundDuration":274556,"Delta":102356450},{"NoteNumber":87,"Velocity":47,"Duration":45662,"SoundDuration":45662,"Delta":102447081},{"NoteNumber":99,"Velocity":46,"Duration":46082,"SoundDuration":46082,"Delta":102538600},{"NoteNumber":88,"Velocity":45,"Duration":46511,"SoundDuration":46511,"Delta":102631006},{"NoteNumber":88,"Velocity":45,"Duration":46970,"SoundDuration":46970,"Delta":102724324},{"NoteNumber":99,"Velocity":45,"Duration":47438,"SoundDuration":47438,"Delta":102818564},{"NoteNumber":89,"Velocity":44,"Duration":47915,"SoundDuration":47915,"Delta":102913753},{"NoteNumber":89,"Velocity":44,"Duration":48402,"SoundDuration":48402,"Delta":103009903},{"NoteNumber":99,"Velocity":43,"Duration":48906,"SoundDuration":48906,"Delta":103107033},{"NoteNumber":90,"Velocity":41,"Duration":49906,"SoundDuration":49906,"Delta":103205292},{"NoteNumber":90,"Velocity":41,"Duration":51192,"SoundDuration":51192,"Delta":103305794},{"NoteNumber":99,"Velocity":40,"Duration":52591,"SoundDuration":52591,"Delta":103408921},{"NoteNumber":91,"Velocity":39,"Duration":54098,"SoundDuration":54098,"Delta":103514747},{"NoteNumber":91,"Velocity":39,"Duration":55495,"SoundDuration":55495,"Delta":103623612},{"NoteNumber":99,"Velocity":37,"Duration":57161,"SoundDuration":57161,"Delta":103735313},{"NoteNumber":92,"Velocity":36,"Duration":58694,"SoundDuration":58694,"Delta":103850405},{"NoteNumber":92,"Velocity":36,"Duration":60580,"SoundDuration":60580,"Delta":103968874},{"NoteNumber":99,"Velocity":36,"Duration":62523,"SoundDuration":62523,"Delta":104090974},{"NoteNumber":71,"Velocity":41,"Duration":292209,"SoundDuration":292209,"Delta":105077539},{"NoteNumber":68,"Velocity":41,"Duration":146341,"SoundDuration":146341,"Delta":105077539},{"NoteNumber":70,"Velocity":43,"Duration":145867,"SoundDuration":145867,"Delta":105223881},{"NoteNumber":67,"Velocity":43,"Duration":145867,"SoundDuration":145867,"Delta":105223881},{"NoteNumber":71,"Velocity":37,"Duration":109164,"SoundDuration":109164,"Delta":105369749},{"NoteNumber":69,"Velocity":44,"Duration":109164,"SoundDuration":109164,"Delta":105369749},{"NoteNumber":66,"Velocity":44,"Duration":109164,"SoundDuration":109164,"Delta":105369749},{"NoteNumber":71,"Velocity":39,"Duration":108695,"SoundDuration":108695,"Delta":105515145},{"NoteNumber":68,"Velocity":45,"Duration":108695,"SoundDuration":108695,"Delta":105515145},{"NoteNumber":65,"Velocity":45,"Duration":108695,"SoundDuration":108695,"Delta":105515145},{"NoteNumber":71,"Velocity":40,"Duration":108173,"SoundDuration":108173,"Delta":105659956},{"NoteNumber":67,"Velocity":45,"Duration":108173,"SoundDuration":108173,"Delta":105659956},{"NoteNumber":64,"Velocity":45,"Duration":108173,"SoundDuration":108173,"Delta":105659956},{"NoteNumber":71,"Velocity":41,"Duration":107770,"SoundDuration":107770,"Delta":105804187},{"NoteNumber":66,"Velocity":46,"Duration":107770,"SoundDuration":107770,"Delta":105804187},{"NoteNumber":63,"Velocity":46,"Duration":107770,"SoundDuration":107770,"Delta":105804187},{"NoteNumber":71,"Velocity":43,"Duration":107484,"SoundDuration":107484,"Delta":105947843},{"NoteNumber":65,"Velocity":47,"Duration":107484,"SoundDuration":107484,"Delta":105947843},{"NoteNumber":62,"Velocity":47,"Duration":107484,"SoundDuration":107484,"Delta":105947843},{"NoteNumber":71,"Velocity":44,"Duration":111848,"SoundDuration":111848,"Delta":106091042},{"NoteNumber":64,"Velocity":49,"Duration":111848,"SoundDuration":111848,"Delta":106091042},{"NoteNumber":61,"Velocity":49,"Duration":111848,"SoundDuration":111848,"Delta":106091042},{"NoteNumber":73,"Velocity":57,"Duration":77800,"SoundDuration":77800,"Delta":106240645},{"NoteNumber":71,"Velocity":50,"Duration":77800,"SoundDuration":77800,"Delta":106318446},{"NoteNumber":70,"Velocity":50,"Duration":77800,"SoundDuration":77800,"Delta":106396247},{"NoteNumber":71,"Velocity":50,"Duration":77800,"SoundDuration":77800,"Delta":106474048},{"NoteNumber":66,"Velocity":54,"Duration":311203,"SoundDuration":311203,"Delta":106551849},{"NoteNumber":63,"Velocity":49,"Duration":233402,"SoundDuration":233402,"Delta":106551849},{"NoteNumber":59,"Velocity":44,"Duration":233402,"SoundDuration":233402,"Delta":106551849},{"NoteNumber":78,"Velocity":50,"Duration":70020,"SoundDuration":70020,"Delta":106629650},{"NoteNumber":78,"Velocity":50,"Duration":70020,"SoundDuration":70020,"Delta":106707451},{"NoteNumber":78,"Velocity":50,"Duration":70020,"SoundDuration":70020,"Delta":106785251},{"NoteNumber":71,"Velocity":54,"Duration":311203,"SoundDuration":311203,"Delta":106863052},{"NoteNumber":66,"Velocity":49,"Duration":233402,"SoundDuration":233402,"Delta":106863052},{"NoteNumber":63,"Velocity":44,"Duration":233402,"SoundDuration":233402,"Delta":106863052},{"NoteNumber":54,"Velocity":44,"Duration":233402,"SoundDuration":233402,"Delta":106863052},{"NoteNumber":83,"Velocity":50,"Duration":70020,"SoundDuration":70020,"Delta":106940853},{"NoteNumber":83,"Velocity":50,"Duration":70020,"SoundDuration":70020,"Delta":107018654},{"NoteNumber":83,"Velocity":50,"Duration":70020,"SoundDuration":70020,"Delta":107096455},{"NoteNumber":73,"Velocity":54,"Duration":321199,"SoundDuration":321199,"Delta":107174256},{"NoteNumber":85,"Velocity":51,"Duration":72269,"SoundDuration":72269,"Delta":107254556},{"NoteNumber":85,"Velocity":51,"Duration":72269,"SoundDuration":72269,"Delta":107334855},{"NoteNumber":85,"Velocity":51,"Duration":72269,"SoundDuration":72269,"Delta":107415155},{"NoteNumber":78,"Velocity":54,"Duration":330033,"SoundDuration":330033,"Delta":107495455},{"NoteNumber":64,"Velocity":46,"Duration":247524,"SoundDuration":247524,"Delta":107495455},{"NoteNumber":58,"Velocity":42,"Duration":247524,"SoundDuration":247524,"Delta":107495455},{"NoteNumber":90,"Velocity":51,"Duration":74257,"SoundDuration":74257,"Delta":107577963},{"NoteNumber":90,"Velocity":51,"Duration":74257,"SoundDuration":74257,"Delta":107660471},{"NoteNumber":90,"Velocity":51,"Duration":74257,"SoundDuration":74257,"Delta":107742980},{"NoteNumber":85,"Velocity":54,"Duration":357038,"SoundDuration":357038,"Delta":107825488},{"NoteNumber":66,"Velocity":46,"Duration":264331,"SoundDuration":264331,"Delta":107825488},{"NoteNumber":54,"Velocity":42,"Duration":264331,"SoundDuration":264331,"Delta":107825488},{"NoteNumber":58,"Velocity":42,"Duration":264331,"SoundDuration":264331,"Delta":107825488},{"NoteNumber":97,"Velocity":52,"Duration":106651,"SoundDuration":106651,"Delta":107939904},{"NoteNumber":90,"Velocity":52,"Duration":106651,"SoundDuration":106651,"Delta":107939904},{"NoteNumber":97,"Velocity":54,"Duration":111248,"SoundDuration":111248,"Delta":108058917},{"NoteNumber":90,"Velocity":54,"Duration":111248,"SoundDuration":111248,"Delta":108058917},{"NoteNumber":87,"Velocity":56,"Duration":317796,"SoundDuration":317796,"Delta":108182527},{"NoteNumber":47,"Velocity":50,"Duration":238347,"SoundDuration":238347,"Delta":108182527},{"NoteNumber":99,"Velocity":54,"Duration":95338,"SoundDuration":95338,"Delta":108288459},{"NoteNumber":90,"Velocity":54,"Duration":95338,"SoundDuration":95338,"Delta":108288459},{"NoteNumber":99,"Velocity":54,"Duration":95338,"SoundDuration":95338,"Delta":108394391},{"NoteNumber":90,"Velocity":54,"Duration":95338,"SoundDuration":95338,"Delta":108394391},{"NoteNumber":83,"Velocity":54,"Duration":154639,"SoundDuration":154639,"Delta":108500323},{"NoteNumber":63,"Velocity":45,"Duration":154639,"SoundDuration":154639,"Delta":108500323},{"NoteNumber":54,"Velocity":41,"Duration":154639,"SoundDuration":154639,"Delta":108500323},{"NoteNumber":75,"Velocity":41,"Duration":282576,"SoundDuration":282576,"Delta":108877514},{"NoteNumber":71,"Velocity":41,"Duration":282576,"SoundDuration":282576,"Delta":108877514},{"NoteNumber":74,"Velocity":43,"Duration":141066,"SoundDuration":141066,"Delta":109019024},{"NoteNumber":75,"Velocity":37,"Duration":105578,"SoundDuration":105578,"Delta":109160090},{"NoteNumber":73,"Velocity":44,"Duration":105578,"SoundDuration":105578,"Delta":109160090},{"NoteNumber":70,"Velocity":44,"Duration":105578,"SoundDuration":105578,"Delta":109160090},{"NoteNumber":75,"Velocity":39,"Duration":105140,"SoundDuration":105140,"Delta":109300716},{"NoteNumber":72,"Velocity":45,"Duration":105140,"SoundDuration":105140,"Delta":109300716},{"NoteNumber":69,"Velocity":45,"Duration":105140,"SoundDuration":105140,"Delta":109300716},{"NoteNumber":75,"Velocity":40,"Duration":104651,"SoundDuration":104651,"Delta":109440903},{"NoteNumber":71,"Velocity":45,"Duration":104651,"SoundDuration":104651,"Delta":109440903},{"NoteNumber":68,"Velocity":45,"Duration":104651,"SoundDuration":104651,"Delta":109440903},{"NoteNumber":75,"Velocity":41,"Duration":104382,"SoundDuration":104382,"Delta":109580438},{"NoteNumber":70,"Velocity":46,"Duration":104382,"SoundDuration":104382,"Delta":109580438},{"NoteNumber":67,"Velocity":46,"Duration":104382,"SoundDuration":104382,"Delta":109580438},{"NoteNumber":75,"Velocity":43,"Duration":104113,"SoundDuration":104113,"Delta":109719542},{"NoteNumber":69,"Velocity":47,"Duration":104113,"SoundDuration":104113,"Delta":109719542},{"NoteNumber":66,"Velocity":47,"Duration":104113,"SoundDuration":104113,"Delta":109719542},{"NoteNumber":75,"Velocity":44,"Duration":109223,"SoundDuration":109223,"Delta":109858218},{"NoteNumber":68,"Velocity":49,"Duration":109223,"SoundDuration":109223,"Delta":109858218},{"NoteNumber":65,"Velocity":49,"Duration":109223,"SoundDuration":109223,"Delta":109858218},{"NoteNumber":77,"Velocity":56,"Duration":77800,"SoundDuration":77800,"Delta":110002513},{"NoteNumber":75,"Velocity":50,"Duration":77800,"SoundDuration":77800,"Delta":110080314},{"NoteNumber":74,"Velocity":50,"Duration":77800,"SoundDuration":77800,"Delta":110158115},{"NoteNumber":75,"Velocity":50,"Duration":77800,"SoundDuration":77800,"Delta":110235916},{"NoteNumber":70,"Velocity":54,"Duration":311203,"SoundDuration":311203,"Delta":110313716},{"NoteNumber":66,"Velocity":49,"Duration":233402,"SoundDuration":233402,"Delta":110313716},{"NoteNumber":63,"Velocity":44,"Duration":233402,"SoundDuration":233402,"Delta":110313716},{"NoteNumber":82,"Velocity":50,"Duration":70020,"SoundDuration":70020,"Delta":110391517},{"NoteNumber":82,"Velocity":50,"Duration":70020,"SoundDuration":70020,"Delta":110469318},{"NoteNumber":82,"Velocity":50,"Duration":70020,"SoundDuration":70020,"Delta":110547119},{"NoteNumber":75,"Velocity":54,"Duration":311203,"SoundDuration":311203,"Delta":110624920},{"NoteNumber":70,"Velocity":49,"Duration":233402,"SoundDuration":233402,"Delta":110624920},{"NoteNumber":66,"Velocity":44,"Duration":233402,"SoundDuration":233402,"Delta":110624920},{"NoteNumber":58,"Velocity":44,"Duration":233402,"SoundDuration":233402,"Delta":110624920},{"NoteNumber":87,"Velocity":50,"Duration":70020,"SoundDuration":70020,"Delta":110702721},{"NoteNumber":87,"Velocity":50,"Duration":70020,"SoundDuration":70020,"Delta":110780522},{"NoteNumber":87,"Velocity":50,"Duration":70020,"SoundDuration":70020,"Delta":110858323},{"NoteNumber":77,"Velocity":54,"Duration":317796,"SoundDuration":317796,"Delta":110936123},{"NoteNumber":89,"Velocity":51,"Duration":71504,"SoundDuration":71504,"Delta":111015573},{"NoteNumber":89,"Velocity":51,"Duration":71504,"SoundDuration":71504,"Delta":111095022},{"NoteNumber":89,"Velocity":51,"Duration":71504,"SoundDuration":71504,"Delta":111174471},{"NoteNumber":82,"Velocity":54,"Duration":326442,"SoundDuration":326442,"Delta":111253920},{"NoteNumber":68,"Velocity":46,"Duration":244831,"SoundDuration":244831,"Delta":111253920},{"NoteNumber":62,"Velocity":42,"Duration":244831,"SoundDuration":244831,"Delta":111253920},{"NoteNumber":94,"Velocity":51,"Duration":73449,"SoundDuration":73449,"Delta":111335530},{"NoteNumber":94,"Velocity":51,"Duration":73449,"SoundDuration":73449,"Delta":111417141},{"NoteNumber":94,"Velocity":51,"Duration":73449,"SoundDuration":73449,"Delta":111498751},{"NoteNumber":89,"Velocity":54,"Duration":349539,"SoundDuration":349539,"Delta":111580362},{"NoteNumber":70,"Velocity":46,"Duration":259611,"SoundDuration":259611,"Delta":111580362},{"NoteNumber":58,"Velocity":42,"Duration":259611,"SoundDuration":259611,"Delta":111580362},{"NoteNumber":62,"Velocity":42,"Duration":259611,"SoundDuration":259611,"Delta":111580362},{"NoteNumber":101,"Velocity":52,"Duration":104522,"SoundDuration":104522,"Delta":111693484},{"NoteNumber":94,"Velocity":52,"Duration":104522,"SoundDuration":104522,"Delta":111693484},{"NoteNumber":101,"Velocity":54,"Duration":107913,"SoundDuration":107913,"Delta":111809997},{"NoteNumber":94,"Velocity":54,"Duration":107913,"SoundDuration":107913,"Delta":111809997},{"NoteNumber":90,"Velocity":56,"Duration":333703,"SoundDuration":333703,"Delta":111929901},{"NoteNumber":51,"Velocity":50,"Duration":250277,"SoundDuration":250277,"Delta":111929901},{"NoteNumber":102,"Velocity":54,"Duration":100111,"SoundDuration":100111,"Delta":112041136},{"NoteNumber":94,"Velocity":54,"Duration":100111,"SoundDuration":100111,"Delta":112041136},{"NoteNumber":102,"Velocity":54,"Duration":100111,"SoundDuration":100111,"Delta":112152370},{"NoteNumber":94,"Velocity":54,"Duration":100111,"SoundDuration":100111,"Delta":112152370},{"NoteNumber":87,"Velocity":54,"Duration":154639,"SoundDuration":154639,"Delta":112263605},{"NoteNumber":66,"Velocity":45,"Duration":154639,"SoundDuration":154639,"Delta":112263605},{"NoteNumber":58,"Velocity":41,"Duration":154639,"SoundDuration":154639,"Delta":112263605},{"NoteNumber":78,"Velocity":41,"Duration":282576,"SoundDuration":282576,"Delta":112635951},{"NoteNumber":75,"Velocity":41,"Duration":141509,"SoundDuration":141509,"Delta":112635951},{"NoteNumber":77,"Velocity":43,"Duration":141066,"SoundDuration":141066,"Delta":112777461},{"NoteNumber":74,"Velocity":41,"Duration":141066,"SoundDuration":141066,"Delta":112777461},{"NoteNumber":78,"Velocity":37,"Duration":105578,"SoundDuration":105578,"Delta":112918527},{"NoteNumber":76,"Velocity":44,"Duration":105578,"SoundDuration":105578,"Delta":112918527},{"NoteNumber":73,"Velocity":44,"Duration":105578,"SoundDuration":105578,"Delta":112918527},{"NoteNumber":78,"Velocity":39,"Duration":105140,"SoundDuration":105140,"Delta":113059153},{"NoteNumber":75,"Velocity":45,"Duration":105140,"SoundDuration":105140,"Delta":113059153},{"NoteNumber":72,"Velocity":45,"Duration":105140,"SoundDuration":105140,"Delta":113059153},{"NoteNumber":78,"Velocity":40,"Duration":104651,"SoundDuration":104651,"Delta":113199340},{"NoteNumber":74,"Velocity":45,"Duration":104651,"SoundDuration":104651,"Delta":113199340},{"NoteNumber":71,"Velocity":45,"Duration":104651,"SoundDuration":104651,"Delta":113199340},{"NoteNumber":78,"Velocity":41,"Duration":104382,"SoundDuration":104382,"Delta":113338875},{"NoteNumber":73,"Velocity":46,"Duration":104382,"SoundDuration":104382,"Delta":113338875},{"NoteNumber":70,"Velocity":46,"Duration":104382,"SoundDuration":104382,"Delta":113338875},{"NoteNumber":78,"Velocity":43,"Duration":104113,"SoundDuration":104113,"Delta":113477979},{"NoteNumber":72,"Velocity":47,"Duration":104113,"SoundDuration":104113,"Delta":113477979},{"NoteNumber":69,"Velocity":47,"Duration":104113,"SoundDuration":104113,"Delta":113477979},{"NoteNumber":78,"Velocity":44,"Duration":109223,"SoundDuration":109223,"Delta":113616655},{"NoteNumber":71,"Velocity":49,"Duration":109223,"SoundDuration":109223,"Delta":113616655},{"NoteNumber":68,"Velocity":49,"Duration":109223,"SoundDuration":109223,"Delta":113616655},{"NoteNumber":80,"Velocity":56,"Duration":77800,"SoundDuration":77800,"Delta":113760950},{"NoteNumber":78,"Velocity":50,"Duration":77800,"SoundDuration":77800,"Delta":113838751},{"NoteNumber":77,"Velocity":50,"Duration":77800,"SoundDuration":77800,"Delta":113916551},{"NoteNumber":78,"Velocity":50,"Duration":77800,"SoundDuration":77800,"Delta":113994352},{"NoteNumber":73,"Velocity":54,"Duration":311203,"SoundDuration":311203,"Delta":114072153},{"NoteNumber":70,"Velocity":49,"Duration":233402,"SoundDuration":233402,"Delta":114072153},{"NoteNumber":66,"Velocity":44,"Duration":233402,"SoundDuration":233402,"Delta":114072153},{"NoteNumber":85,"Velocity":50,"Duration":70020,"SoundDuration":70020,"Delta":114149954},{"NoteNumber":85,"Velocity":50,"Duration":70020,"SoundDuration":70020,"Delta":114227755},{"NoteNumber":85,"Velocity":50,"Duration":70020,"SoundDuration":70020,"Delta":114305556},{"NoteNumber":78,"Velocity":54,"Duration":311203,"SoundDuration":311203,"Delta":114383357},{"NoteNumber":73,"Velocity":49,"Duration":233402,"SoundDuration":233402,"Delta":114383357},{"NoteNumber":70,"Velocity":44,"Duration":233402,"SoundDuration":233402,"Delta":114383357},{"NoteNumber":61,"Velocity":44,"Duration":233402,"SoundDuration":233402,"Delta":114383357},{"NoteNumber":90,"Velocity":50,"Duration":70020,"SoundDuration":70020,"Delta":114461158},{"NoteNumber":90,"Velocity":50,"Duration":70020,"SoundDuration":70020,"Delta":114538958},{"NoteNumber":90,"Velocity":50,"Duration":70020,"SoundDuration":70020,"Delta":114616759},{"NoteNumber":80,"Velocity":54,"Duration":312742,"SoundDuration":312742,"Delta":114694560},{"NoteNumber":92,"Velocity":51,"Duration":70020,"SoundDuration":70020,"Delta":114772361},{"NoteNumber":92,"Velocity":51,"Duration":70020,"SoundDuration":70020,"Delta":114850162},{"NoteNumber":92,"Velocity":51,"Duration":71098,"SoundDuration":71098,"Delta":114927963},{"NoteNumber":85,"Velocity":54,"Duration":319993,"SoundDuration":319993,"Delta":115007303},{"NoteNumber":71,"Velocity":46,"Duration":238492,"SoundDuration":238492,"Delta":115007303},{"NoteNumber":65,"Velocity":42,"Duration":238492,"SoundDuration":238492,"Delta":115007303},{"NoteNumber":97,"Velocity":54,"Duration":95841,"SoundDuration":95841,"Delta":115112286},{"NoteNumber":92,"Velocity":54,"Duration":95841,"SoundDuration":95841,"Delta":115112286},{"NoteNumber":97,"Velocity":54,"Duration":97477,"SoundDuration":97477,"Delta":115218877},{"NoteNumber":92,"Velocity":54,"Duration":97477,"SoundDuration":97477,"Delta":115218877},{"NoteNumber":97,"Velocity":54,"Duration":99186,"SoundDuration":99186,"Delta":115327296},{"NoteNumber":92,"Velocity":54,"Duration":99186,"SoundDuration":99186,"Delta":115327296},{"NoteNumber":73,"Velocity":46,"Duration":262336,"SoundDuration":262336,"Delta":115327296},{"NoteNumber":61,"Velocity":42,"Duration":262336,"SoundDuration":262336,"Delta":115327296},{"NoteNumber":65,"Velocity":42,"Duration":262336,"SoundDuration":262336,"Delta":115327296},{"NoteNumber":92,"Velocity":52,"Duration":103938,"SoundDuration":103938,"Delta":115437606},{"NoteNumber":97,"Velocity":52,"Duration":103938,"SoundDuration":103938,"Delta":115437606},{"NoteNumber":92,"Velocity":54,"Duration":126185,"SoundDuration":126185,"Delta":115555150},{"NoteNumber":97,"Velocity":54,"Duration":126185,"SoundDuration":126185,"Delta":115555150},{"NoteNumber":97,"Velocity":40,"Duration":76608,"SoundDuration":76608,"Delta":115695520},{"NoteNumber":94,"Velocity":40,"Duration":153217,"SoundDuration":153217,"Delta":115695520},{"NoteNumber":66,"Velocity":55,"Duration":306434,"SoundDuration":306434,"Delta":115695520},{"NoteNumber":99,"Velocity":40,"Duration":76608,"SoundDuration":76608,"Delta":115772129},{"NoteNumber":97,"Velocity":39,"Duration":76608,"SoundDuration":76608,"Delta":115848738},{"NoteNumber":93,"Velocity":39,"Duration":153217,"SoundDuration":153217,"Delta":115848738},{"NoteNumber":99,"Velocity":37,"Duration":76608,"SoundDuration":76608,"Delta":115925346},{"NoteNumber":97,"Velocity":37,"Duration":72886,"SoundDuration":72886,"Delta":116001955},{"NoteNumber":92,"Velocity":37,"Duration":145772,"SoundDuration":145772,"Delta":116001955},{"NoteNumber":78,"Velocity":44,"Duration":109329,"SoundDuration":109329,"Delta":116001955},{"NoteNumber":82,"Velocity":49,"Duration":109329,"SoundDuration":109329,"Delta":116001955},{"NoteNumber":99,"Velocity":36,"Duration":72886,"SoundDuration":72886,"Delta":116074841},{"NoteNumber":97,"Velocity":36,"Duration":72886,"SoundDuration":72886,"Delta":116147728},{"NoteNumber":91,"Velocity":36,"Duration":144204,"SoundDuration":144204,"Delta":116147728},{"NoteNumber":80,"Velocity":44,"Duration":109329,"SoundDuration":109329,"Delta":116147728},{"NoteNumber":83,"Velocity":49,"Duration":109329,"SoundDuration":109329,"Delta":116147728},{"NoteNumber":99,"Velocity":36,"Duration":71318,"SoundDuration":71318,"Delta":116220614},{"NoteNumber":97,"Velocity":35,"Duration":69832,"SoundDuration":69832,"Delta":116291932},{"NoteNumber":90,"Velocity":35,"Duration":281844,"SoundDuration":281844,"Delta":116291932},{"NoteNumber":82,"Velocity":45,"Duration":210754,"SoundDuration":210754,"Delta":116291932},{"NoteNumber":85,"Velocity":52,"Duration":210754,"SoundDuration":210754,"Delta":116291932},{"NoteNumber":99,"Velocity":35,"Duration":69832,"SoundDuration":69832,"Delta":116361764},{"NoteNumber":97,"Velocity":34,"Duration":71089,"SoundDuration":71089,"Delta":116431597},{"NoteNumber":99,"Velocity":34,"Duration":71089,"SoundDuration":71089,"Delta":116502687},{"NoteNumber":95,"Velocity":37,"Duration":74701,"SoundDuration":74701,"Delta":116573777},{"NoteNumber":92,"Velocity":37,"Duration":149402,"SoundDuration":149402,"Delta":116573777},{"NoteNumber":59,"Velocity":55,"Duration":297378,"SoundDuration":297378,"Delta":116573777},{"NoteNumber":97,"Velocity":37,"Duration":74701,"SoundDuration":74701,"Delta":116648478},{"NoteNumber":95,"Velocity":36,"Duration":74701,"SoundDuration":74701,"Delta":116723179},{"NoteNumber":91,"Velocity":36,"Duration":147976,"SoundDuration":147976,"Delta":116723179},{"NoteNumber":97,"Velocity":36,"Duration":73274,"SoundDuration":73274,"Delta":116797881},{"NoteNumber":95,"Velocity":36,"Duration":72533,"SoundDuration":72533,"Delta":116871156},{"NoteNumber":90,"Velocity":36,"Duration":145067,"SoundDuration":145067,"Delta":116871156},{"NoteNumber":80,"Velocity":49,"Duration":108800,"SoundDuration":108800,"Delta":116871156},{"NoteNumber":71,"Velocity":44,"Duration":108800,"SoundDuration":108800,"Delta":116871156},{"NoteNumber":97,"Velocity":36,"Duration":72533,"SoundDuration":72533,"Delta":116943689},{"NoteNumber":95,"Velocity":35,"Duration":72533,"SoundDuration":72533,"Delta":117016223},{"NoteNumber":89,"Velocity":35,"Duration":145067,"SoundDuration":145067,"Delta":117016223},{"NoteNumber":82,"Velocity":49,"Duration":108800,"SoundDuration":108800,"Delta":117016223},{"NoteNumber":73,"Velocity":44,"Duration":108800,"SoundDuration":108800,"Delta":117016223},{"NoteNumber":97,"Velocity":35,"Duration":72533,"SoundDuration":72533,"Delta":117088757},{"NoteNumber":95,"Velocity":34,"Duration":69832,"SoundDuration":69832,"Delta":117161291},{"NoteNumber":87,"Velocity":34,"Duration":289814,"SoundDuration":289814,"Delta":117161291},{"NoteNumber":75,"Velocity":45,"Duration":214739,"SoundDuration":214739,"Delta":117161291},{"NoteNumber":83,"Velocity":51,"Duration":214739,"SoundDuration":214739,"Delta":117161291},{"NoteNumber":97,"Velocity":34,"Duration":69832,"SoundDuration":69832,"Delta":117231123},{"NoteNumber":95,"Velocity":33,"Duration":75075,"SoundDuration":75075,"Delta":117300956},{"NoteNumber":97,"Velocity":33,"Duration":75075,"SoundDuration":75075,"Delta":117376031},{"NoteNumber":94,"Velocity":37,"Duration":73964,"SoundDuration":73964,"Delta":117451106},{"NoteNumber":90,"Velocity":37,"Duration":147929,"SoundDuration":147929,"Delta":117451106},{"NoteNumber":61,"Velocity":55,"Duration":295857,"SoundDuration":295857,"Delta":117451106},{"NoteNumber":95,"Velocity":37,"Duration":73964,"SoundDuration":73964,"Delta":117525071},{"NoteNumber":94,"Velocity":36,"Duration":73964,"SoundDuration":73964,"Delta":117599035},{"NoteNumber":89,"Velocity":36,"Duration":147928,"SoundDuration":147928,"Delta":117599035},{"NoteNumber":95,"Velocity":36,"Duration":73964,"SoundDuration":73964,"Delta":117673000},{"NoteNumber":94,"Velocity":36,"Duration":71839,"SoundDuration":71839,"Delta":117746964},{"NoteNumber":87,"Velocity":36,"Duration":143678,"SoundDuration":143678,"Delta":117746964},{"NoteNumber":70,"Velocity":44,"Duration":107758,"SoundDuration":107758,"Delta":117746964},{"NoteNumber":78,"Velocity":49,"Duration":107758,"SoundDuration":107758,"Delta":117746964},{"NoteNumber":95,"Velocity":36,"Duration":71839,"SoundDuration":71839,"Delta":117818803},{"NoteNumber":94,"Velocity":36,"Duration":71839,"SoundDuration":71839,"Delta":117890642},{"NoteNumber":86,"Velocity":36,"Duration":143678,"SoundDuration":143678,"Delta":117890642},{"NoteNumber":71,"Velocity":44,"Duration":107758,"SoundDuration":107758,"Delta":117890642},{"NoteNumber":80,"Velocity":49,"Duration":107758,"SoundDuration":107758,"Delta":117890642},{"NoteNumber":95,"Velocity":35,"Duration":71839,"SoundDuration":71839,"Delta":117962481},{"NoteNumber":94,"Velocity":35,"Duration":68870,"SoundDuration":68870,"Delta":118034321},{"NoteNumber":85,"Velocity":35,"Duration":287143,"SoundDuration":287143,"Delta":118034321},{"NoteNumber":73,"Velocity":45,"Duration":212442,"SoundDuration":212442,"Delta":118034321},{"NoteNumber":82,"Velocity":52,"Duration":212442,"SoundDuration":212442,"Delta":118034321},{"NoteNumber":95,"Velocity":34,"Duration":68870,"SoundDuration":68870,"Delta":118103191},{"NoteNumber":94,"Velocity":34,"Duration":74701,"SoundDuration":74701,"Delta":118172062},{"NoteNumber":95,"Velocity":32,"Duration":74701,"SoundDuration":74701,"Delta":118246763},{"NoteNumber":92,"Velocity":37,"Duration":72533,"SoundDuration":72533,"Delta":118321464},{"NoteNumber":89,"Velocity":37,"Duration":145067,"SoundDuration":145067,"Delta":118321464},{"NoteNumber":61,"Velocity":55,"Duration":288480,"SoundDuration":288480,"Delta":118321464},{"NoteNumber":94,"Velocity":37,"Duration":72533,"SoundDuration":72533,"Delta":118393998},{"NoteNumber":92,"Velocity":36,"Duration":72533,"SoundDuration":72533,"Delta":118466532},{"NoteNumber":87,"Velocity":36,"Duration":143412,"SoundDuration":143412,"Delta":118466532},{"NoteNumber":94,"Velocity":36,"Duration":70878,"SoundDuration":70878,"Delta":118539066},{"NoteNumber":92,"Velocity":35,"Duration":71157,"SoundDuration":71157,"Delta":118609944},{"NoteNumber":86,"Velocity":35,"Duration":142314,"SoundDuration":142314,"Delta":118609944},{"NoteNumber":77,"Velocity":49,"Duration":106736,"SoundDuration":106736,"Delta":118609944},{"NoteNumber":68,"Velocity":44,"Duration":106736,"SoundDuration":106736,"Delta":118609944},{"NoteNumber":94,"Velocity":34,"Duration":71157,"SoundDuration":71157,"Delta":118681102},{"NoteNumber":92,"Velocity":33,"Duration":71157,"SoundDuration":71157,"Delta":118752259},{"NoteNumber":85,"Velocity":33,"Duration":142315,"SoundDuration":142315,"Delta":118752259},{"NoteNumber":70,"Velocity":44,"Duration":106736,"SoundDuration":106736,"Delta":118752259},{"NoteNumber":78,"Velocity":49,"Duration":106736,"SoundDuration":106736,"Delta":118752259},{"NoteNumber":94,"Velocity":32,"Duration":71157,"SoundDuration":71157,"Delta":118823417},{"NoteNumber":92,"Velocity":32,"Duration":72184,"SoundDuration":72184,"Delta":118894574},{"NoteNumber":83,"Velocity":32,"Duration":291572,"SoundDuration":291572,"Delta":118894574},{"NoteNumber":71,"Velocity":45,"Duration":217971,"SoundDuration":217971,"Delta":118894574},{"NoteNumber":80,"Velocity":51,"Duration":217971,"SoundDuration":217971,"Delta":118894574},{"NoteNumber":87,"Velocity":36,"Duration":72184,"SoundDuration":72184,"Delta":118966759},{"NoteNumber":88,"Velocity":39,"Duration":73601,"SoundDuration":73601,"Delta":119038944},{"NoteNumber":89,"Velocity":41,"Duration":73601,"SoundDuration":73601,"Delta":119112545},{"NoteNumber":90,"Velocity":43,"Duration":69767,"SoundDuration":69767,"Delta":119186147},{"NoteNumber":82,"Velocity":59,"Duration":279070,"SoundDuration":279070,"Delta":119186147},{"NoteNumber":73,"Velocity":53,"Duration":279070,"SoundDuration":279070,"Delta":119186147},{"NoteNumber":66,"Velocity":53,"Duration":279070,"SoundDuration":279070,"Delta":119186147},{"NoteNumber":92,"Velocity":43,"Duration":69767,"SoundDuration":69767,"Delta":119255914},{"NoteNumber":90,"Velocity":43,"Duration":69767,"SoundDuration":69767,"Delta":119325682},{"NoteNumber":92,"Velocity":43,"Duration":69767,"SoundDuration":69767,"Delta":119395449},{"NoteNumber":78,"Velocity":59,"Duration":283018,"SoundDuration":283018,"Delta":119465217},{"NoteNumber":90,"Velocity":45,"Duration":70754,"SoundDuration":70754,"Delta":119535972},{"NoteNumber":92,"Velocity":45,"Duration":70754,"SoundDuration":70754,"Delta":119606726},{"NoteNumber":90,"Velocity":45,"Duration":70754,"SoundDuration":70754,"Delta":119677481},{"NoteNumber":79,"Velocity":60,"Duration":283019,"SoundDuration":283019,"Delta":119748236},{"NoteNumber":91,"Velocity":47,"Duration":70754,"SoundDuration":70754,"Delta":119818991},{"NoteNumber":92,"Velocity":47,"Duration":70754,"SoundDuration":70754,"Delta":119889745},{"NoteNumber":91,"Velocity":47,"Duration":70754,"SoundDuration":70754,"Delta":119960500},{"NoteNumber":80,"Velocity":63,"Duration":285714,"SoundDuration":285714,"Delta":120031255},{"NoteNumber":92,"Velocity":51,"Duration":71428,"SoundDuration":71428,"Delta":120102684},{"NoteNumber":93,"Velocity":51,"Duration":71428,"SoundDuration":71428,"Delta":120174112},{"NoteNumber":92,"Velocity":50,"Duration":71428,"SoundDuration":71428,"Delta":120245541},{"NoteNumber":64,"Velocity":41,"Duration":290685,"SoundDuration":290685,"Delta":120293160},{"NoteNumber":93,"Velocity":50,"Duration":72463,"SoundDuration":72463,"Delta":120316969},{"NoteNumber":80,"Velocity":57,"Duration":266876,"SoundDuration":266876,"Delta":120316969},{"NoteNumber":92,"Velocity":49,"Duration":72698,"SoundDuration":72698,"Delta":120389433},{"NoteNumber":93,"Velocity":49,"Duration":72933,"SoundDuration":72933,"Delta":120462131},{"NoteNumber":92,"Velocity":47,"Duration":73290,"SoundDuration":73290,"Delta":120535065},{"NoteNumber":63,"Velocity":45,"Duration":320323,"SoundDuration":320323,"Delta":120583846},{"NoteNumber":93,"Velocity":47,"Duration":58823,"SoundDuration":58823,"Delta":120608356},{"NoteNumber":78,"Velocity":56,"Duration":295813,"SoundDuration":295813,"Delta":120608356},{"NoteNumber":92,"Velocity":46,"Duration":59040,"SoundDuration":59040,"Delta":120667179},{"NoteNumber":93,"Velocity":46,"Duration":59137,"SoundDuration":59137,"Delta":120726220},{"NoteNumber":92,"Velocity":45,"Duration":59405,"SoundDuration":59405,"Delta":120785358},{"NoteNumber":93,"Velocity":45,"Duration":59405,"SoundDuration":59405,"Delta":120844764},{"NoteNumber":92,"Velocity":45,"Duration":80299,"SoundDuration":80299,"Delta":120904169},{"NoteNumber":61,"Velocity":44,"Duration":321199,"SoundDuration":321199,"Delta":120904169},{"NoteNumber":76,"Velocity":54,"Duration":321199,"SoundDuration":321199,"Delta":120904169},{"NoteNumber":93,"Velocity":45,"Duration":80299,"SoundDuration":80299,"Delta":120984469},{"NoteNumber":92,"Velocity":45,"Duration":80299,"SoundDuration":80299,"Delta":121064769},{"NoteNumber":93,"Velocity":45,"Duration":80299,"SoundDuration":80299,"Delta":121145069},{"NoteNumber":92,"Velocity":51,"Duration":76219,"SoundDuration":76219,"Delta":121225368},{"NoteNumber":102,"Velocity":61,"Duration":228658,"SoundDuration":228658,"Delta":121225368},{"NoteNumber":87,"Velocity":55,"Duration":228658,"SoundDuration":228658,"Delta":121225368},{"NoteNumber":93,"Velocity":51,"Duration":76219,"SoundDuration":76219,"Delta":121301588},{"NoteNumber":92,"Velocity":51,"Duration":76219,"SoundDuration":76219,"Delta":121377807},{"NoteNumber":93,"Velocity":51,"Duration":76219,"SoundDuration":76219,"Delta":121454027},{"NoteNumber":92,"Velocity":47,"Duration":76219,"SoundDuration":76219,"Delta":121530246},{"NoteNumber":100,"Velocity":60,"Duration":228658,"SoundDuration":228658,"Delta":121530246},{"NoteNumber":85,"Velocity":55,"Duration":228658,"SoundDuration":228658,"Delta":121530246},{"NoteNumber":93,"Velocity":47,"Duration":76219,"SoundDuration":76219,"Delta":121606466},{"NoteNumber":92,"Velocity":47,"Duration":76219,"SoundDuration":76219,"Delta":121682685},{"NoteNumber":93,"Velocity":47,"Duration":72576,"SoundDuration":72576,"Delta":121758905},{"NoteNumber":92,"Velocity":51,"Duration":72533,"SoundDuration":72533,"Delta":121831481},{"NoteNumber":99,"Velocity":61,"Duration":217601,"SoundDuration":217601,"Delta":121831481},{"NoteNumber":68,"Velocity":37,"Duration":290135,"SoundDuration":290135,"Delta":121831481},{"NoteNumber":84,"Velocity":59,"Duration":217601,"SoundDuration":217601,"Delta":121831481},{"NoteNumber":93,"Velocity":51,"Duration":72533,"SoundDuration":72533,"Delta":121904015},{"NoteNumber":92,"Velocity":51,"Duration":72533,"SoundDuration":72533,"Delta":121976549},{"NoteNumber":93,"Velocity":51,"Duration":72533,"SoundDuration":72533,"Delta":122049083},{"NoteNumber":92,"Velocity":47,"Duration":73004,"SoundDuration":73004,"Delta":122121617},{"NoteNumber":97,"Velocity":57,"Duration":220573,"SoundDuration":220573,"Delta":122121617},{"NoteNumber":82,"Velocity":55,"Duration":220573,"SoundDuration":220573,"Delta":122121617},{"NoteNumber":93,"Velocity":47,"Duration":73481,"SoundDuration":73481,"Delta":122194622},{"NoteNumber":92,"Velocity":47,"Duration":74086,"SoundDuration":74086,"Delta":122268104},{"NoteNumber":93,"Velocity":46,"Duration":74577,"SoundDuration":74577,"Delta":122342190},{"NoteNumber":92,"Velocity":46,"Duration":75200,"SoundDuration":75200,"Delta":122416768},{"NoteNumber":99,"Velocity":55,"Duration":233093,"SoundDuration":233093,"Delta":122416768},{"NoteNumber":84,"Velocity":54,"Duration":233093,"SoundDuration":233093,"Delta":122416768},{"NoteNumber":93,"Velocity":46,"Duration":75835,"SoundDuration":75835,"Delta":122491969},{"NoteNumber":92,"Velocity":45,"Duration":82056,"SoundDuration":82056,"Delta":122567805},{"NoteNumber":93,"Velocity":45,"Duration":82056,"SoundDuration":82056,"Delta":122649861},{"NoteNumber":92,"Velocity":46,"Duration":74331,"SoundDuration":74331,"Delta":122731918},{"NoteNumber":100,"Velocity":56,"Duration":222993,"SoundDuration":222993,"Delta":122731918},{"NoteNumber":73,"Velocity":39,"Duration":297324,"SoundDuration":297324,"Delta":122731918},{"NoteNumber":85,"Velocity":51,"Duration":222993,"SoundDuration":222993,"Delta":122731918},{"NoteNumber":93,"Velocity":46,"Duration":74331,"SoundDuration":74331,"Delta":122806249},{"NoteNumber":92,"Velocity":45,"Duration":74331,"SoundDuration":74331,"Delta":122880580},{"NoteNumber":93,"Velocity":45,"Duration":74331,"SoundDuration":74331,"Delta":122954911},{"NoteNumber":92,"Velocity":51,"Duration":164113,"SoundDuration":164113,"Delta":123029242},{"NoteNumber":97,"Velocity":51,"Duration":164113,"SoundDuration":164113,"Delta":123029242},{"NoteNumber":88,"Velocity":47,"Duration":164113,"SoundDuration":164113,"Delta":123029242},{"NoteNumber":79,"Velocity":60,"Duration":314465,"SoundDuration":314465,"Delta":123357470},{"NoteNumber":91,"Velocity":47,"Duration":78616,"SoundDuration":78616,"Delta":123436086},{"NoteNumber":93,"Velocity":47,"Duration":78616,"SoundDuration":78616,"Delta":123514703},{"NoteNumber":91,"Velocity":47,"Duration":78616,"SoundDuration":78616,"Delta":123593319},{"NoteNumber":78,"Velocity":63,"Duration":295857,"SoundDuration":295857,"Delta":123671935},{"NoteNumber":90,"Velocity":51,"Duration":73964,"SoundDuration":73964,"Delta":123745900},{"NoteNumber":92,"Velocity":51,"Duration":73964,"SoundDuration":73964,"Delta":123819864},{"NoteNumber":90,"Velocity":50,"Duration":73964,"SoundDuration":73964,"Delta":123893829},{"NoteNumber":92,"Velocity":50,"Duration":74454,"SoundDuration":74454,"Delta":123967793},{"NoteNumber":63,"Velocity":41,"Duration":301075,"SoundDuration":301075,"Delta":123967793},{"NoteNumber":78,"Velocity":57,"Duration":301075,"SoundDuration":301075,"Delta":123967793},{"NoteNumber":90,"Velocity":49,"Duration":74950,"SoundDuration":74950,"Delta":124042248},{"NoteNumber":92,"Velocity":49,"Duration":75579,"SoundDuration":75579,"Delta":124117198},{"NoteNumber":90,"Velocity":47,"Duration":76091,"SoundDuration":76091,"Delta":124192778},{"NoteNumber":92,"Velocity":47,"Duration":61339,"SoundDuration":61339,"Delta":124268869},{"NoteNumber":61,"Velocity":41,"Duration":310422,"SoundDuration":310422,"Delta":124268869},{"NoteNumber":76,"Velocity":56,"Duration":310422,"SoundDuration":310422,"Delta":124268869},{"NoteNumber":90,"Velocity":46,"Duration":61707,"SoundDuration":61707,"Delta":124330209},{"NoteNumber":92,"Velocity":46,"Duration":62080,"SoundDuration":62080,"Delta":124391916},{"NoteNumber":90,"Velocity":45,"Duration":62457,"SoundDuration":62457,"Delta":124453996},{"NoteNumber":92,"Velocity":45,"Duration":62838,"SoundDuration":62838,"Delta":124516453},{"NoteNumber":90,"Velocity":45,"Duration":79030,"SoundDuration":79030,"Delta":124579292},{"NoteNumber":59,"Velocity":44,"Duration":316121,"SoundDuration":316121,"Delta":124579292},{"NoteNumber":75,"Velocity":54,"Duration":316121,"SoundDuration":316121,"Delta":124579292},{"NoteNumber":92,"Velocity":45,"Duration":79030,"SoundDuration":79030,"Delta":124658322},{"NoteNumber":90,"Velocity":45,"Duration":79030,"SoundDuration":79030,"Delta":124737353},{"NoteNumber":92,"Velocity":45,"Duration":79030,"SoundDuration":79030,"Delta":124816383},{"NoteNumber":90,"Velocity":51,"Duration":75452,"SoundDuration":75452,"Delta":124895414},{"NoteNumber":100,"Velocity":61,"Duration":226358,"SoundDuration":226358,"Delta":124895414},{"NoteNumber":85,"Velocity":55,"Duration":226358,"SoundDuration":226358,"Delta":124895414},{"NoteNumber":92,"Velocity":51,"Duration":75452,"SoundDuration":75452,"Delta":124970866},{"NoteNumber":90,"Velocity":51,"Duration":75452,"SoundDuration":75452,"Delta":125046319},{"NoteNumber":92,"Velocity":51,"Duration":75452,"SoundDuration":75452,"Delta":125121772},{"NoteNumber":90,"Velocity":47,"Duration":75452,"SoundDuration":75452,"Delta":125197225},{"NoteNumber":99,"Velocity":60,"Duration":226358,"SoundDuration":226358,"Delta":125197225},{"NoteNumber":83,"Velocity":55,"Duration":226358,"SoundDuration":226358,"Delta":125197225},{"NoteNumber":92,"Velocity":47,"Duration":75452,"SoundDuration":75452,"Delta":125272677},{"NoteNumber":90,"Velocity":47,"Duration":75452,"SoundDuration":75452,"Delta":125348130},{"NoteNumber":92,"Velocity":47,"Duration":72320,"SoundDuration":72320,"Delta":125423583},{"NoteNumber":90,"Velocity":51,"Duration":72533,"SoundDuration":72533,"Delta":125495904},{"NoteNumber":97,"Velocity":61,"Duration":218900,"SoundDuration":218900,"Delta":125495904},{"NoteNumber":66,"Velocity":37,"Duration":292744,"SoundDuration":292744,"Delta":125495904},{"NoteNumber":82,"Velocity":59,"Duration":218900,"SoundDuration":218900,"Delta":125495904},{"NoteNumber":92,"Velocity":51,"Duration":73004,"SoundDuration":73004,"Delta":125568438},{"NoteNumber":90,"Velocity":51,"Duration":73362,"SoundDuration":73362,"Delta":125641442},{"NoteNumber":92,"Velocity":51,"Duration":73843,"SoundDuration":73843,"Delta":125714805},{"NoteNumber":90,"Velocity":47,"Duration":74208,"SoundDuration":74208,"Delta":125788648},{"NoteNumber":95,"Velocity":57,"Duration":224235,"SoundDuration":224235,"Delta":125788648},{"NoteNumber":80,"Velocity":55,"Duration":224235,"SoundDuration":224235,"Delta":125788648},{"NoteNumber":92,"Velocity":47,"Duration":74825,"SoundDuration":74825,"Delta":125862857},{"NoteNumber":90,"Velocity":47,"Duration":75200,"SoundDuration":75200,"Delta":125937683},{"NoteNumber":92,"Velocity":46,"Duration":75706,"SoundDuration":75706,"Delta":126012884},{"NoteNumber":90,"Velocity":46,"Duration":76091,"SoundDuration":76091,"Delta":126088591},{"NoteNumber":97,"Velocity":55,"Duration":236256,"SoundDuration":236256,"Delta":126088591},{"NoteNumber":82,"Velocity":54,"Duration":236256,"SoundDuration":236256,"Delta":126088591},{"NoteNumber":92,"Velocity":46,"Duration":76739,"SoundDuration":76739,"Delta":126164682},{"NoteNumber":90,"Velocity":45,"Duration":83426,"SoundDuration":83426,"Delta":126241422},{"NoteNumber":92,"Velocity":45,"Duration":83426,"SoundDuration":83426,"Delta":126324848},{"NoteNumber":90,"Velocity":46,"Duration":75075,"SoundDuration":75075,"Delta":126408274},{"NoteNumber":99,"Velocity":56,"Duration":225225,"SoundDuration":225225,"Delta":126408274},{"NoteNumber":71,"Velocity":39,"Duration":300300,"SoundDuration":300300,"Delta":126408274},{"NoteNumber":83,"Velocity":51,"Duration":225225,"SoundDuration":225225,"Delta":126408274},{"NoteNumber":92,"Velocity":46,"Duration":75075,"SoundDuration":75075,"Delta":126483349},{"NoteNumber":90,"Velocity":46,"Duration":75075,"SoundDuration":75075,"Delta":126558424},{"NoteNumber":92,"Velocity":46,"Duration":75075,"SoundDuration":75075,"Delta":126633499},{"NoteNumber":90,"Velocity":51,"Duration":160599,"SoundDuration":160599,"Delta":126708574},{"NoteNumber":95,"Velocity":51,"Duration":160599,"SoundDuration":160599,"Delta":126708574},{"NoteNumber":87,"Velocity":47,"Duration":160599,"SoundDuration":160599,"Delta":126708574},{"NoteNumber":74,"Velocity":57,"Duration":308008,"SoundDuration":308008,"Delta":127028517},{"NoteNumber":86,"Velocity":47,"Duration":77002,"SoundDuration":77002,"Delta":127105519},{"NoteNumber":87,"Velocity":47,"Duration":77001,"SoundDuration":77001,"Delta":127182521},{"NoteNumber":86,"Velocity":47,"Duration":77002,"SoundDuration":77002,"Delta":127259523},{"NoteNumber":75,"Velocity":57,"Duration":308007,"SoundDuration":308007,"Delta":127336525},{"NoteNumber":87,"Velocity":51,"Duration":77002,"SoundDuration":77002,"Delta":127413527},{"NoteNumber":88,"Velocity":50,"Duration":77001,"SoundDuration":77001,"Delta":127490529},{"NoteNumber":87,"Velocity":50,"Duration":77001,"SoundDuration":77001,"Delta":127567531},{"NoteNumber":88,"Velocity":49,"Duration":78671,"SoundDuration":78671,"Delta":127644533},{"NoteNumber":63,"Velocity":40,"Duration":320053,"SoundDuration":320053,"Delta":127644533},{"NoteNumber":67,"Velocity":40,"Duration":320053,"SoundDuration":320053,"Delta":127644533},{"NoteNumber":75,"Velocity":45,"Duration":320053,"SoundDuration":320053,"Delta":127644533},{"NoteNumber":87,"Velocity":49,"Duration":79505,"SoundDuration":79505,"Delta":127723205},{"NoteNumber":88,"Velocity":47,"Duration":80501,"SoundDuration":80501,"Delta":127802710},{"NoteNumber":87,"Velocity":47,"Duration":81374,"SoundDuration":81374,"Delta":127883212},{"NoteNumber":88,"Velocity":46,"Duration":82419,"SoundDuration":82419,"Delta":127964587},{"NoteNumber":65,"Velocity":37,"Duration":337114,"SoundDuration":337114,"Delta":127964587},{"NoteNumber":68,"Velocity":37,"Duration":337114,"SoundDuration":337114,"Delta":127964587},{"NoteNumber":74,"Velocity":43,"Duration":337114,"SoundDuration":337114,"Delta":127964587},{"NoteNumber":87,"Velocity":46,"Duration":83335,"SoundDuration":83335,"Delta":128047006},{"NoteNumber":88,"Velocity":45,"Duration":89820,"SoundDuration":89820,"Delta":128130341},{"NoteNumber":87,"Velocity":45,"Duration":81539,"SoundDuration":81539,"Delta":128220161},{"NoteNumber":88,"Velocity":43,"Duration":58049,"SoundDuration":58049,"Delta":128301701},{"NoteNumber":67,"Velocity":35,"Duration":307749,"SoundDuration":307749,"Delta":128301701},{"NoteNumber":70,"Velocity":35,"Duration":307749,"SoundDuration":307749,"Delta":128301701},{"NoteNumber":73,"Velocity":39,"Duration":307749,"SoundDuration":307749,"Delta":128301701},{"NoteNumber":87,"Velocity":44,"Duration":57850,"SoundDuration":57850,"Delta":128359751},{"NoteNumber":86,"Velocity":45,"Duration":57751,"SoundDuration":57751,"Delta":128417601},{"NoteNumber":87,"Velocity":45,"Duration":57489,"SoundDuration":57489,"Delta":128475353},{"NoteNumber":88,"Velocity":46,"Duration":57456,"SoundDuration":57456,"Delta":128532842},{"NoteNumber":89,"Velocity":47,"Duration":57261,"SoundDuration":57261,"Delta":128590299},{"NoteNumber":90,"Velocity":49,"Duration":57164,"SoundDuration":57164,"Delta":128647561},{"NoteNumber":91,"Velocity":49,"Duration":56907,"SoundDuration":56907,"Delta":128704725},{"NoteNumber":92,"Velocity":51,"Duration":56875,"SoundDuration":56875,"Delta":128761633},{"NoteNumber":93,"Velocity":52,"Duration":56684,"SoundDuration":56684,"Delta":128818509},{"NoteNumber":94,"Velocity":54,"Duration":56589,"SoundDuration":56589,"Delta":128875194},{"NoteNumber":95,"Velocity":55,"Duration":56337,"SoundDuration":56337,"Delta":128931783},{"NoteNumber":96,"Velocity":56,"Duration":56306,"SoundDuration":56306,"Delta":128988121},{"NoteNumber":97,"Velocity":57,"Duration":56119,"SoundDuration":56119,"Delta":129044427},{"NoteNumber":98,"Velocity":59,"Duration":56025,"SoundDuration":56025,"Delta":129100547},{"NoteNumber":99,"Velocity":60,"Duration":55779,"SoundDuration":55779,"Delta":129156573},{"NoteNumber":100,"Velocity":61,"Duration":59415,"SoundDuration":59415,"Delta":129212352},{"NoteNumber":68,"Velocity":43,"Duration":297082,"SoundDuration":297082,"Delta":129212352},{"NoteNumber":71,"Velocity":43,"Duration":297082,"SoundDuration":297082,"Delta":129212352},{"NoteNumber":76,"Velocity":47,"Duration":297082,"SoundDuration":297082,"Delta":129212352},{"NoteNumber":102,"Velocity":60,"Duration":59171,"SoundDuration":59171,"Delta":129271768},{"NoteNumber":100,"Velocity":60,"Duration":59318,"SoundDuration":59318,"Delta":129330939},{"NoteNumber":99,"Velocity":59,"Duration":59464,"SoundDuration":59464,"Delta":129390257},{"NoteNumber":98,"Velocity":57,"Duration":59711,"SoundDuration":59711,"Delta":129449722},{"NoteNumber":97,"Velocity":56,"Duration":59810,"SoundDuration":59810,"Delta":129509434},{"NoteNumber":96,"Velocity":55,"Duration":60060,"SoundDuration":60060,"Delta":129569245},{"NoteNumber":95,"Velocity":54,"Duration":60211,"SoundDuration":60211,"Delta":129629305},{"NoteNumber":94,"Velocity":54,"Duration":60362,"SoundDuration":60362,"Delta":129689516},{"NoteNumber":93,"Velocity":52,"Duration":60616,"SoundDuration":60616,"Delta":129749878},{"NoteNumber":92,"Velocity":51,"Duration":60718,"SoundDuration":60718,"Delta":129810495},{"NoteNumber":91,"Velocity":50,"Duration":60975,"SoundDuration":60975,"Delta":129871213},{"NoteNumber":90,"Velocity":49,"Duration":61131,"SoundDuration":61131,"Delta":129932189},{"NoteNumber":89,"Velocity":47,"Duration":61286,"SoundDuration":61286,"Delta":129993320},{"NoteNumber":63,"Velocity":39,"Duration":386335,"SoundDuration":386335,"Delta":130039285},{"NoteNumber":88,"Velocity":46,"Duration":61549,"SoundDuration":61549,"Delta":130054607},{"NoteNumber":87,"Velocity":46,"Duration":309465,"SoundDuration":309465,"Delta":130116156},{"NoteNumber":79,"Velocity":49,"Duration":309465,"SoundDuration":309465,"Delta":130116156},{"NoteNumber":70,"Velocity":57,"Duration":298507,"SoundDuration":298507,"Delta":130425621},{"NoteNumber":82,"Velocity":47,"Duration":74626,"SoundDuration":74626,"Delta":130500248},{"NoteNumber":83,"Velocity":47,"Duration":74626,"SoundDuration":74626,"Delta":130574875},{"NoteNumber":82,"Velocity":47,"Duration":74626,"SoundDuration":74626,"Delta":130649502},{"NoteNumber":74,"Velocity":57,"Duration":300000,"SoundDuration":300000,"Delta":130724129},{"NoteNumber":86,"Velocity":47,"Duration":75000,"SoundDuration":75000,"Delta":130799129},{"NoteNumber":87,"Velocity":47,"Duration":74999,"SoundDuration":74999,"Delta":130874129},{"NoteNumber":86,"Velocity":47,"Duration":75000,"SoundDuration":75000,"Delta":130949129},{"NoteNumber":75,"Velocity":57,"Duration":299999,"SoundDuration":299999,"Delta":131024129},{"NoteNumber":87,"Velocity":51,"Duration":74999,"SoundDuration":74999,"Delta":131099129},{"NoteNumber":88,"Velocity":50,"Duration":75000,"SoundDuration":75000,"Delta":131174129},{"NoteNumber":87,"Velocity":50,"Duration":74999,"SoundDuration":74999,"Delta":131249129},{"NoteNumber":88,"Velocity":49,"Duration":78671,"SoundDuration":78671,"Delta":131324129},{"NoteNumber":63,"Velocity":40,"Duration":320053,"SoundDuration":320053,"Delta":131324129},{"NoteNumber":67,"Velocity":40,"Duration":320053,"SoundDuration":320053,"Delta":131324129},{"NoteNumber":75,"Velocity":45,"Duration":320053,"SoundDuration":320053,"Delta":131324129},{"NoteNumber":87,"Velocity":49,"Duration":79505,"SoundDuration":79505,"Delta":131402801},{"NoteNumber":88,"Velocity":47,"Duration":80501,"SoundDuration":80501,"Delta":131482307},{"NoteNumber":87,"Velocity":47,"Duration":81374,"SoundDuration":81374,"Delta":131562808},{"NoteNumber":88,"Velocity":46,"Duration":82419,"SoundDuration":82419,"Delta":131644183},{"NoteNumber":65,"Velocity":37,"Duration":336849,"SoundDuration":336849,"Delta":131644183},{"NoteNumber":68,"Velocity":37,"Duration":336849,"SoundDuration":336849,"Delta":131644183},{"NoteNumber":74,"Velocity":43,"Duration":336849,"SoundDuration":336849,"Delta":131644183},{"NoteNumber":87,"Velocity":46,"Duration":83335,"SoundDuration":83335,"Delta":131726602},{"NoteNumber":88,"Velocity":45,"Duration":89820,"SoundDuration":89820,"Delta":131809937},{"NoteNumber":87,"Velocity":45,"Duration":81274,"SoundDuration":81274,"Delta":131899757},{"NoteNumber":88,"Velocity":43,"Duration":57751,"SoundDuration":57751,"Delta":131981032},{"NoteNumber":67,"Velocity":35,"Duration":306960,"SoundDuration":306960,"Delta":131981032},{"NoteNumber":70,"Velocity":35,"Duration":306960,"SoundDuration":306960,"Delta":131981032},{"NoteNumber":73,"Velocity":39,"Duration":306960,"SoundDuration":306960,"Delta":131981032},{"NoteNumber":87,"Velocity":44,"Duration":57751,"SoundDuration":57751,"Delta":132038784},{"NoteNumber":86,"Velocity":45,"Duration":57522,"SoundDuration":57522,"Delta":132096535},{"NoteNumber":87,"Velocity":45,"Duration":57456,"SoundDuration":57456,"Delta":132154057},{"NoteNumber":88,"Velocity":46,"Duration":57424,"SoundDuration":57424,"Delta":132211514},{"NoteNumber":89,"Velocity":47,"Duration":57164,"SoundDuration":57164,"Delta":132268938},{"NoteNumber":90,"Velocity":49,"Duration":57164,"SoundDuration":57164,"Delta":132326103},{"NoteNumber":91,"Velocity":49,"Duration":57036,"SoundDuration":57036,"Delta":132383267},{"NoteNumber":92,"Velocity":51,"Duration":56875,"SoundDuration":56875,"Delta":132440303},{"NoteNumber":93,"Velocity":52,"Duration":56875,"SoundDuration":56875,"Delta":132497179},{"NoteNumber":94,"Velocity":54,"Duration":56780,"SoundDuration":56780,"Delta":132554055},{"NoteNumber":95,"Velocity":55,"Duration":56589,"SoundDuration":56589,"Delta":132610835},{"NoteNumber":96,"Velocity":56,"Duration":56589,"SoundDuration":56589,"Delta":132667424},{"NoteNumber":97,"Velocity":57,"Duration":56400,"SoundDuration":56400,"Delta":132724014},{"NoteNumber":98,"Velocity":59,"Duration":56306,"SoundDuration":56306,"Delta":132780415},{"NoteNumber":99,"Velocity":60,"Duration":56306,"SoundDuration":56306,"Delta":132836721},{"NoteNumber":100,"Velocity":61,"Duration":59761,"SoundDuration":59761,"Delta":132893027},{"NoteNumber":68,"Velocity":43,"Duration":298311,"SoundDuration":298311,"Delta":132893027},{"NoteNumber":71,"Velocity":43,"Duration":298311,"SoundDuration":298311,"Delta":132893027},{"NoteNumber":76,"Velocity":47,"Duration":298311,"SoundDuration":298311,"Delta":132893027},{"NoteNumber":102,"Velocity":60,"Duration":59760,"SoundDuration":59760,"Delta":132952788},{"NoteNumber":100,"Velocity":60,"Duration":59612,"SoundDuration":59612,"Delta":133012549},{"NoteNumber":99,"Velocity":59,"Duration":59464,"SoundDuration":59464,"Delta":133072162},{"NoteNumber":98,"Velocity":57,"Duration":59711,"SoundDuration":59711,"Delta":133131627},{"NoteNumber":97,"Velocity":56,"Duration":59810,"SoundDuration":59810,"Delta":133191339},{"NoteNumber":96,"Velocity":55,"Duration":60060,"SoundDuration":60060,"Delta":133251150},{"NoteNumber":95,"Velocity":54,"Duration":60211,"SoundDuration":60211,"Delta":133311210},{"NoteNumber":94,"Velocity":54,"Duration":60438,"SoundDuration":60438,"Delta":133371421},{"NoteNumber":93,"Velocity":52,"Duration":60667,"SoundDuration":60667,"Delta":133431859},{"NoteNumber":92,"Velocity":51,"Duration":60847,"SoundDuration":60847,"Delta":133492527},{"NoteNumber":91,"Velocity":50,"Duration":60975,"SoundDuration":60975,"Delta":133553374},{"NoteNumber":90,"Velocity":49,"Duration":61261,"SoundDuration":61261,"Delta":133614349},{"NoteNumber":89,"Velocity":47,"Duration":61365,"SoundDuration":61365,"Delta":133675610},{"NoteNumber":88,"Velocity":46,"Duration":61734,"SoundDuration":61734,"Delta":133736976},{"NoteNumber":87,"Velocity":43,"Duration":58049,"SoundDuration":58049,"Delta":133798710},{"NoteNumber":79,"Velocity":39,"Duration":307359,"SoundDuration":307359,"Delta":133798710},{"NoteNumber":63,"Velocity":35,"Duration":307359,"SoundDuration":307359,"Delta":133798710},{"NoteNumber":70,"Velocity":35,"Duration":307359,"SoundDuration":307359,"Delta":133798710},{"NoteNumber":88,"Velocity":43,"Duration":57850,"SoundDuration":57850,"Delta":133856760},{"NoteNumber":87,"Velocity":44,"Duration":53822,"SoundDuration":53822,"Delta":133914611},{"NoteNumber":86,"Velocity":45,"Duration":53626,"SoundDuration":53626,"Delta":133968433},{"NoteNumber":87,"Velocity":45,"Duration":53522,"SoundDuration":53522,"Delta":134022059},{"NoteNumber":88,"Velocity":46,"Duration":53353,"SoundDuration":53353,"Delta":134075582},{"NoteNumber":89,"Velocity":47,"Duration":53096,"SoundDuration":53096,"Delta":134128935},{"NoteNumber":90,"Velocity":49,"Duration":53071,"SoundDuration":53071,"Delta":134182032},{"NoteNumber":91,"Velocity":50,"Duration":52816,"SoundDuration":52816,"Delta":134235103},{"NoteNumber":92,"Velocity":51,"Duration":52653,"SoundDuration":52653,"Delta":134287920},{"NoteNumber":93,"Velocity":52,"Duration":52552,"SoundDuration":52552,"Delta":134340574},{"NoteNumber":94,"Velocity":54,"Duration":52365,"SoundDuration":52365,"Delta":134393126},{"NoteNumber":95,"Velocity":55,"Duration":52216,"SoundDuration":52216,"Delta":134445492},{"NoteNumber":96,"Velocity":56,"Duration":52031,"SoundDuration":52031,"Delta":134497709},{"NoteNumber":97,"Velocity":57,"Duration":51933,"SoundDuration":51933,"Delta":134549740},{"NoteNumber":98,"Velocity":59,"Duration":51775,"SoundDuration":51775,"Delta":134601674},{"NoteNumber":99,"Velocity":60,"Duration":51533,"SoundDuration":51533,"Delta":134653449},{"NoteNumber":100,"Velocity":61,"Duration":58839,"SoundDuration":58839,"Delta":134703756},{"NoteNumber":56,"Velocity":43,"Duration":293092,"SoundDuration":293092,"Delta":134704983},{"NoteNumber":71,"Velocity":47,"Duration":293092,"SoundDuration":293092,"Delta":134704983},{"NoteNumber":102,"Velocity":60,"Duration":58593,"SoundDuration":58593,"Delta":134762595},{"NoteNumber":100,"Velocity":60,"Duration":58338,"SoundDuration":58338,"Delta":134821189},{"NoteNumber":99,"Velocity":59,"Duration":58492,"SoundDuration":58492,"Delta":134879528},{"NoteNumber":98,"Velocity":57,"Duration":58827,"SoundDuration":58827,"Delta":134938021},{"NoteNumber":97,"Velocity":56,"Duration":59044,"SoundDuration":59044,"Delta":134996848},{"NoteNumber":96,"Velocity":55,"Duration":59385,"SoundDuration":59385,"Delta":135055893},{"NoteNumber":95,"Velocity":54,"Duration":59606,"SoundDuration":59606,"Delta":135115278},{"NoteNumber":94,"Velocity":54,"Duration":59954,"SoundDuration":59954,"Delta":135174885},{"NoteNumber":93,"Velocity":52,"Duration":60179,"SoundDuration":60179,"Delta":135234839},{"NoteNumber":92,"Velocity":51,"Duration":60533,"SoundDuration":60533,"Delta":135295019},{"NoteNumber":91,"Velocity":50,"Duration":60763,"SoundDuration":60763,"Delta":135355552},{"NoteNumber":90,"Velocity":49,"Duration":61124,"SoundDuration":61124,"Delta":135416316},{"NoteNumber":89,"Velocity":47,"Duration":61359,"SoundDuration":61359,"Delta":135477441},{"NoteNumber":88,"Velocity":46,"Duration":61727,"SoundDuration":61727,"Delta":135538800},{"NoteNumber":87,"Velocity":43,"Duration":56250,"SoundDuration":56250,"Delta":135601817},{"NoteNumber":51,"Velocity":39,"Duration":299130,"SoundDuration":299130,"Delta":135601817},{"NoteNumber":67,"Velocity":39,"Duration":299130,"SoundDuration":299130,"Delta":135601817},{"NoteNumber":88,"Velocity":43,"Duration":56250,"SoundDuration":56250,"Delta":135658067},{"NoteNumber":87,"Velocity":44,"Duration":52425,"SoundDuration":52425,"Delta":135714317},{"NoteNumber":86,"Velocity":45,"Duration":52238,"SoundDuration":52238,"Delta":135766743},{"NoteNumber":87,"Velocity":45,"Duration":52238,"SoundDuration":52238,"Delta":135818982},{"NoteNumber":88,"Velocity":46,"Duration":52004,"SoundDuration":52004,"Delta":135871220},{"NoteNumber":89,"Velocity":47,"Duration":51980,"SoundDuration":51980,"Delta":135923225},{"NoteNumber":90,"Velocity":49,"Duration":51846,"SoundDuration":51846,"Delta":135975205},{"NoteNumber":91,"Velocity":50,"Duration":51724,"SoundDuration":51724,"Delta":136027051},{"NoteNumber":92,"Velocity":51,"Duration":51687,"SoundDuration":51687,"Delta":136078776},{"NoteNumber":93,"Velocity":52,"Duration":51470,"SoundDuration":51470,"Delta":136130464},{"NoteNumber":94,"Velocity":54,"Duration":51470,"SoundDuration":51470,"Delta":136181934},{"NoteNumber":95,"Velocity":55,"Duration":51279,"SoundDuration":51279,"Delta":136233405},{"NoteNumber":96,"Velocity":56,"Duration":51219,"SoundDuration":51219,"Delta":136284684},{"NoteNumber":97,"Velocity":57,"Duration":51124,"SoundDuration":51124,"Delta":136335903},{"NoteNumber":98,"Velocity":59,"Duration":50970,"SoundDuration":50970,"Delta":136387028},{"NoteNumber":99,"Velocity":60,"Duration":52008,"SoundDuration":52008,"Delta":136437999},{"NoteNumber":100,"Velocity":67,"Duration":74701,"SoundDuration":74701,"Delta":136490007},{"NoteNumber":44,"Velocity":63,"Duration":298028,"SoundDuration":298028,"Delta":136490007},{"NoteNumber":59,"Velocity":63,"Duration":298028,"SoundDuration":298028,"Delta":136490007},{"NoteNumber":102,"Velocity":63,"Duration":74701,"SoundDuration":74701,"Delta":136564708},{"NoteNumber":100,"Velocity":63,"Duration":74374,"SoundDuration":74374,"Delta":136639410},{"NoteNumber":99,"Velocity":63,"Duration":74251,"SoundDuration":74251,"Delta":136713784},{"NoteNumber":98,"Velocity":67,"Duration":73964,"SoundDuration":73964,"Delta":136788035},{"NoteNumber":99,"Velocity":63,"Duration":73885,"SoundDuration":73885,"Delta":136862000},{"NoteNumber":98,"Velocity":63,"Duration":73601,"SoundDuration":73601,"Delta":136935886},{"NoteNumber":97,"Velocity":63,"Duration":73403,"SoundDuration":73403,"Delta":137009487},{"NoteNumber":96,"Velocity":67,"Duration":73242,"SoundDuration":73242,"Delta":137082891},{"NoteNumber":97,"Velocity":63,"Duration":73046,"SoundDuration":73046,"Delta":137156134},{"NoteNumber":96,"Velocity":63,"Duration":72886,"SoundDuration":72886,"Delta":137229180},{"NoteNumber":95,"Velocity":63,"Duration":72574,"SoundDuration":72574,"Delta":137302066},{"NoteNumber":94,"Velocity":67,"Duration":72533,"SoundDuration":72533,"Delta":137374641},{"NoteNumber":95,"Velocity":63,"Duration":72202,"SoundDuration":72202,"Delta":137452011},{"NoteNumber":94,"Velocity":63,"Duration":72138,"SoundDuration":72138,"Delta":137513385},{"NoteNumber":93,"Velocity":63,"Duration":71839,"SoundDuration":71839,"Delta":137597497},{"NoteNumber":92,"Velocity":67,"Duration":71759,"SoundDuration":71759,"Delta":137664547},{"NoteNumber":93,"Velocity":63,"Duration":71496,"SoundDuration":71496,"Delta":137729157},{"NoteNumber":92,"Velocity":63,"Duration":71310,"SoundDuration":71310,"Delta":137806611},{"NoteNumber":91,"Velocity":63,"Duration":71157,"SoundDuration":71157,"Delta":137874363},{"NoteNumber":90,"Velocity":62,"Duration":70950,"SoundDuration":70950,"Delta":137953823},{"NoteNumber":91,"Velocity":61,"Duration":70821,"SoundDuration":70821,"Delta":138021232},{"NoteNumber":90,"Velocity":61,"Duration":70516,"SoundDuration":70516,"Delta":138093234},{"NoteNumber":89,"Velocity":61,"Duration":70433,"SoundDuration":70433,"Delta":138157876},{"NoteNumber":88,"Velocity":61,"Duration":70159,"SoundDuration":70159,"Delta":138236495},{"NoteNumber":90,"Velocity":59,"Duration":70001,"SoundDuration":70001,"Delta":138297300},{"NoteNumber":88,"Velocity":59,"Duration":69783,"SoundDuration":69783,"Delta":138367301},{"NoteNumber":87,"Velocity":59,"Duration":69508,"SoundDuration":69508,"Delta":138445194},{"NoteNumber":86,"Velocity":60,"Duration":69236,"SoundDuration":69236,"Delta":138508910},{"NoteNumber":87,"Velocity":56,"Duration":69092,"SoundDuration":69092,"Delta":138586219},{"NoteNumber":86,"Velocity":56,"Duration":68870,"SoundDuration":68870,"Delta":138647277},{"NoteNumber":85,"Velocity":56,"Duration":68602,"SoundDuration":68602,"Delta":138716147},{"NoteNumber":84,"Velocity":59,"Duration":68405,"SoundDuration":68405,"Delta":138782465},{"NoteNumber":85,"Velocity":56,"Duration":68243,"SoundDuration":68243,"Delta":138858832},{"NoteNumber":84,"Velocity":56,"Duration":68243,"SoundDuration":68243,"Delta":138928213},{"NoteNumber":83,"Velocity":56,"Duration":68243,"SoundDuration":68243,"Delta":138994182},{"NoteNumber":82,"Velocity":57,"Duration":68243,"SoundDuration":68243,"Delta":139061289},{"NoteNumber":83,"Velocity":54,"Duration":68243,"SoundDuration":68243,"Delta":139131807},{"NoteNumber":82,"Velocity":54,"Duration":68243,"SoundDuration":68243,"Delta":139193227},{"NoteNumber":81,"Velocity":54,"Duration":68243,"SoundDuration":68243,"Delta":139260333},{"NoteNumber":80,"Velocity":56,"Duration":68243,"SoundDuration":68243,"Delta":139327440},{"NoteNumber":81,"Velocity":54,"Duration":68243,"SoundDuration":68243,"Delta":139395683},{"NoteNumber":80,"Velocity":54,"Duration":68243,"SoundDuration":68243,"Delta":139473027},{"NoteNumber":79,"Velocity":54,"Duration":68243,"SoundDuration":68243,"Delta":139542408},{"NoteNumber":78,"Velocity":55,"Duration":68243,"SoundDuration":68243,"Delta":139602690},{"NoteNumber":79,"Velocity":52,"Duration":68243,"SoundDuration":68243,"Delta":139669796},{"NoteNumber":78,"Velocity":52,"Duration":68243,"SoundDuration":68243,"Delta":139743727},{"NoteNumber":77,"Velocity":52,"Duration":68243,"SoundDuration":68243,"Delta":139805147},{"NoteNumber":76,"Velocity":55,"Duration":68243,"SoundDuration":68243,"Delta":139874528},{"NoteNumber":78,"Velocity":52,"Duration":68243,"SoundDuration":68243,"Delta":139946184},{"NoteNumber":76,"Velocity":52,"Duration":68243,"SoundDuration":68243,"Delta":140018978},{"NoteNumber":75,"Velocity":52,"Duration":68243,"SoundDuration":68243,"Delta":140086084},{"NoteNumber":74,"Velocity":54,"Duration":68243,"SoundDuration":68243,"Delta":140152053},{"NoteNumber":75,"Velocity":51,"Duration":68243,"SoundDuration":68243,"Delta":140214610},{"NoteNumber":74,"Velocity":51,"Duration":68243,"SoundDuration":68243,"Delta":140287403},{"NoteNumber":73,"Velocity":51,"Duration":68243,"SoundDuration":68243,"Delta":140353373},{"NoteNumber":72,"Velocity":54,"Duration":68243,"SoundDuration":68243,"Delta":140427303},{"NoteNumber":73,"Velocity":50,"Duration":68243,"SoundDuration":68243,"Delta":140490998},{"NoteNumber":72,"Velocity":50,"Duration":68243,"SoundDuration":68243,"Delta":140560379},{"NoteNumber":71,"Velocity":50,"Duration":68403,"SoundDuration":68403,"Delta":140626348},{"NoteNumber":70,"Velocity":52,"Duration":68812,"SoundDuration":68812,"Delta":140699339},{"NoteNumber":71,"Velocity":49,"Duration":69124,"SoundDuration":69124,"Delta":140766999},{"NoteNumber":70,"Velocity":49,"Duration":69343,"SoundDuration":69343,"Delta":140837276},{"NoteNumber":69,"Velocity":49,"Duration":69530,"SoundDuration":69530,"Delta":140900832},{"NoteNumber":68,"Velocity":51,"Duration":69876,"SoundDuration":69876,"Delta":140975014},{"NoteNumber":69,"Velocity":47,"Duration":70120,"SoundDuration":70120,"Delta":141050731},{"NoteNumber":68,"Velocity":47,"Duration":70422,"SoundDuration":70422,"Delta":141117331},{"NoteNumber":67,"Velocity":47,"Duration":70671,"SoundDuration":70671,"Delta":141191274},{"NoteNumber":66,"Velocity":50,"Duration":70961,"SoundDuration":70961,"Delta":141252512},{"NoteNumber":67,"Velocity":46,"Duration":71191,"SoundDuration":71191,"Delta":141324658},{"NoteNumber":66,"Velocity":46,"Duration":71428,"SoundDuration":71428,"Delta":141393469},{"NoteNumber":43,"Velocity":41,"Duration":429831,"SoundDuration":429831,"Delta":141398231},{"NoteNumber":58,"Velocity":41,"Duration":358402,"SoundDuration":358402,"Delta":141469660},{"NoteNumber":65,"Velocity":46,"Duration":71914,"SoundDuration":71914,"Delta":141475640},{"NoteNumber":64,"Velocity":46,"Duration":72115,"SoundDuration":72115,"Delta":141541545},{"NoteNumber":61,"Velocity":51,"Duration":286517,"SoundDuration":286517,"Delta":141541545},{"NoteNumber":62,"Velocity":46,"Duration":71741,"SoundDuration":71741,"Delta":141619641},{"NoteNumber":64,"Velocity":46,"Duration":71451,"SoundDuration":71451,"Delta":141680646},{"NoteNumber":63,"Velocity":46,"Duration":71197,"SoundDuration":71197,"Delta":141758050},{"NoteNumber":65,"Velocity":46,"Duration":70888,"SoundDuration":70888,"Delta":141823323},{"NoteNumber":64,"Velocity":46,"Duration":70538,"SoundDuration":70538,"Delta":141897749},{"NoteNumber":66,"Velocity":46,"Duration":70285,"SoundDuration":70285,"Delta":141975330},{"NoteNumber":65,"Velocity":46,"Duration":70012,"SoundDuration":70012,"Delta":142033934},{"NoteNumber":67,"Velocity":46,"Duration":69638,"SoundDuration":69638,"Delta":142114411},{"NoteNumber":66,"Velocity":46,"Duration":69444,"SoundDuration":69444,"Delta":142177105},{"NoteNumber":68,"Velocity":46,"Duration":69140,"SoundDuration":69140,"Delta":142245392},{"NoteNumber":67,"Velocity":46,"Duration":68791,"SoundDuration":68791,"Delta":142321429},{"NoteNumber":69,"Velocity":46,"Duration":68498,"SoundDuration":68498,"Delta":142385649},{"NoteNumber":68,"Velocity":46,"Duration":68493,"SoundDuration":68493,"Delta":142451864},{"NoteNumber":70,"Velocity":46,"Duration":68493,"SoundDuration":68493,"Delta":142524923},{"NoteNumber":69,"Velocity":46,"Duration":68493,"SoundDuration":68493,"Delta":142593417},{"NoteNumber":71,"Velocity":46,"Duration":68493,"SoundDuration":68493,"Delta":142659627},{"NoteNumber":70,"Velocity":46,"Duration":68493,"SoundDuration":68493,"Delta":142729261},{"NoteNumber":72,"Velocity":46,"Duration":68493,"SoundDuration":68493,"Delta":142798896},{"NoteNumber":71,"Velocity":46,"Duration":68493,"SoundDuration":68493,"Delta":142867389},{"NoteNumber":73,"Velocity":46,"Duration":68493,"SoundDuration":68493,"Delta":142939307},{"NoteNumber":72,"Velocity":46,"Duration":68493,"SoundDuration":68493,"Delta":143007800},{"NoteNumber":74,"Velocity":46,"Duration":68493,"SoundDuration":68493,"Delta":143072868},{"NoteNumber":73,"Velocity":46,"Duration":68493,"SoundDuration":68493,"Delta":143142503},{"NoteNumber":75,"Velocity":46,"Duration":68493,"SoundDuration":68493,"Delta":143209855},{"NoteNumber":74,"Velocity":46,"Duration":68493,"SoundDuration":68493,"Delta":143276065},{"NoteNumber":76,"Velocity":46,"Duration":68493,"SoundDuration":68493,"Delta":143342275},{"NoteNumber":75,"Velocity":46,"Duration":68493,"SoundDuration":68493,"Delta":143417617},{"NoteNumber":77,"Velocity":45,"Duration":68493,"SoundDuration":68493,"Delta":143483827},{"NoteNumber":76,"Velocity":45,"Duration":68493,"SoundDuration":68493,"Delta":143555745},{"NoteNumber":78,"Velocity":45,"Duration":68493,"SoundDuration":68493,"Delta":143616247},{"NoteNumber":77,"Velocity":46,"Duration":68493,"SoundDuration":68493,"Delta":143684740},{"NoteNumber":79,"Velocity":47,"Duration":68493,"SoundDuration":68493,"Delta":143757800},{"NoteNumber":78,"Velocity":49,"Duration":68493,"SoundDuration":68493,"Delta":143827434},{"NoteNumber":80,"Velocity":49,"Duration":68493,"SoundDuration":68493,"Delta":143894786},{"NoteNumber":79,"Velocity":50,"Duration":68493,"SoundDuration":68493,"Delta":143959854},{"NoteNumber":81,"Velocity":51,"Duration":68493,"SoundDuration":68493,"Delta":144030631},{"NoteNumber":80,"Velocity":52,"Duration":68493,"SoundDuration":68493,"Delta":144093416},{"NoteNumber":82,"Velocity":54,"Duration":68493,"SoundDuration":68493,"Delta":144171042},{"NoteNumber":81,"Velocity":54,"Duration":68493,"SoundDuration":68493,"Delta":144237252},{"NoteNumber":83,"Velocity":54,"Duration":68493,"SoundDuration":68493,"Delta":144305745},{"NoteNumber":82,"Velocity":55,"Duration":68493,"SoundDuration":68493,"Delta":144375379},{"NoteNumber":84,"Velocity":56,"Duration":68493,"SoundDuration":68493,"Delta":144445014},{"NoteNumber":83,"Velocity":57,"Duration":68493,"SoundDuration":68493,"Delta":144505516},{"NoteNumber":85,"Velocity":57,"Duration":68493,"SoundDuration":68493,"Delta":144579717},{"NoteNumber":84,"Velocity":59,"Duration":68493,"SoundDuration":68493,"Delta":144651635},{"NoteNumber":86,"Velocity":60,"Duration":68493,"SoundDuration":68493,"Delta":144721270},{"NoteNumber":85,"Velocity":61,"Duration":68487,"SoundDuration":68487,"Delta":144785197},{"NoteNumber":87,"Velocity":62,"Duration":68181,"SoundDuration":68181,"Delta":144855957},{"NoteNumber":86,"Velocity":63,"Duration":68181,"SoundDuration":68181,"Delta":144915048},{"NoteNumber":88,"Velocity":63,"Duration":68181,"SoundDuration":68181,"Delta":144991185},{"NoteNumber":87,"Velocity":64,"Duration":68311,"SoundDuration":68311,"Delta":145062776},{"NoteNumber":89,"Velocity":65,"Duration":68493,"SoundDuration":68493,"Delta":145123096},{"NoteNumber":88,"Velocity":66,"Duration":68493,"SoundDuration":68493,"Delta":145195014},{"NoteNumber":90,"Velocity":67,"Duration":68493,"SoundDuration":68493,"Delta":145260083},{"NoteNumber":89,"Velocity":67,"Duration":68786,"SoundDuration":68786,"Delta":145326293},{"NoteNumber":91,"Velocity":69,"Duration":68807,"SoundDuration":68807,"Delta":145395079},{"NoteNumber":90,"Velocity":70,"Duration":68807,"SoundDuration":68807,"Delta":145473061},{"NoteNumber":92,"Velocity":71,"Duration":69039,"SoundDuration":69039,"Delta":145541868},{"NoteNumber":91,"Velocity":72,"Duration":69124,"SoundDuration":69124,"Delta":145609756},{"NoteNumber":93,"Velocity":72,"Duration":69124,"SoundDuration":69124,"Delta":145670816},{"NoteNumber":92,"Velocity":72,"Duration":69124,"SoundDuration":69124,"Delta":145742244},{"NoteNumber":94,"Velocity":73,"Duration":69417,"SoundDuration":69417,"Delta":145807912},{"NoteNumber":93,"Velocity":75,"Duration":69444,"SoundDuration":69444,"Delta":145877330},{"NoteNumber":95,"Velocity":76,"Duration":69444,"SoundDuration":69444,"Delta":145954877},{"NoteNumber":94,"Velocity":77,"Duration":69681,"SoundDuration":69681,"Delta":146026636},{"NoteNumber":96,"Velocity":77,"Duration":69767,"SoundDuration":69767,"Delta":146091666},{"NoteNumber":95,"Velocity":79,"Duration":69767,"SoundDuration":69767,"Delta":146160271},{"NoteNumber":97,"Velocity":80,"Duration":69870,"SoundDuration":69870,"Delta":146230038},{"NoteNumber":96,"Velocity":81,"Duration":71365,"SoundDuration":71365,"Delta":146298741},{"NoteNumber":98,"Velocity":81,"Duration":73292,"SoundDuration":73292,"Delta":146372510},{"NoteNumber":97,"Velocity":81,"Duration":75381,"SoundDuration":75381,"Delta":146445803},{"NoteNumber":99,"Velocity":83,"Duration":70496,"SoundDuration":70496,"Delta":146516109},{"NoteNumber":98,"Velocity":77,"Duration":69681,"SoundDuration":69681,"Delta":146588942},{"NoteNumber":100,"Velocity":83,"Duration":69321,"SoundDuration":69321,"Delta":146664410},{"NoteNumber":98,"Velocity":77,"Duration":68923,"SoundDuration":68923,"Delta":146727972},{"NoteNumber":99,"Velocity":83,"Duration":71089,"SoundDuration":71089,"Delta":146803928},{"NoteNumber":98,"Velocity":79,"Duration":71089,"SoundDuration":71089,"Delta":146876203},{"NoteNumber":100,"Velocity":83,"Duration":71089,"SoundDuration":71089,"Delta":146946108},{"NoteNumber":98,"Velocity":79,"Duration":71089,"SoundDuration":71089,"Delta":147014829},{"NoteNumber":99,"Velocity":83,"Duration":71089,"SoundDuration":71089,"Delta":147081179},{"NoteNumber":98,"Velocity":79,"Duration":71089,"SoundDuration":71089,"Delta":147160563},{"NoteNumber":100,"Velocity":83,"Duration":71089,"SoundDuration":71089,"Delta":147220990},{"NoteNumber":98,"Velocity":79,"Duration":71089,"SoundDuration":71089,"Delta":147290895},{"NoteNumber":99,"Velocity":81,"Duration":71141,"SoundDuration":71141,"Delta":147371447},{"NoteNumber":98,"Velocity":75,"Duration":72116,"SoundDuration":72116,"Delta":147439000},{"NoteNumber":100,"Velocity":76,"Duration":73548,"SoundDuration":73548,"Delta":147512336},{"NoteNumber":98,"Velocity":72,"Duration":74721,"SoundDuration":74721,"Delta":147590835},{"NoteNumber":99,"Velocity":72,"Duration":75345,"SoundDuration":75345,"Delta":147653025},{"NoteNumber":98,"Velocity":73,"Duration":75911,"SoundDuration":75911,"Delta":147739703},{"NoteNumber":100,"Velocity":73,"Duration":76284,"SoundDuration":76284,"Delta":147813076},{"NoteNumber":98,"Velocity":73,"Duration":76779,"SoundDuration":76779,"Delta":147884259},{"NoteNumber":99,"Velocity":71,"Duration":77161,"SoundDuration":77161,"Delta":147958474},{"NoteNumber":98,"Velocity":70,"Duration":77720,"SoundDuration":77720,"Delta":148040789},{"NoteNumber":100,"Velocity":67,"Duration":78220,"SoundDuration":78220,"Delta":148114624},{"NoteNumber":98,"Velocity":65,"Duration":78795,"SoundDuration":78795,"Delta":148194153},{"NoteNumber":99,"Velocity":61,"Duration":78025,"SoundDuration":78025,"Delta":148282125},{"NoteNumber":100,"Velocity":61,"Duration":76904,"SoundDuration":76904,"Delta":148354996},{"NoteNumber":99,"Velocity":61,"Duration":75720,"SoundDuration":75720,"Delta":148433169},{"NoteNumber":100,"Velocity":61,"Duration":74702,"SoundDuration":74702,"Delta":148501365},{"NoteNumber":99,"Velocity":61,"Duration":73171,"SoundDuration":73171,"Delta":148581018},{"NoteNumber":100,"Velocity":62,"Duration":72133,"SoundDuration":72133,"Delta":148652977},{"NoteNumber":99,"Velocity":65,"Duration":71091,"SoundDuration":71091,"Delta":148726307},{"NoteNumber":100,"Velocity":67,"Duration":70029,"SoundDuration":70029,"Delta":148800919},{"NoteNumber":99,"Velocity":71,"Duration":69124,"SoundDuration":69124,"Delta":148867492},{"NoteNumber":100,"Velocity":72,"Duration":68918,"SoundDuration":68918,"Delta":148935465},{"NoteNumber":99,"Velocity":75,"Duration":68692,"SoundDuration":68692,"Delta":149007823},{"NoteNumber":100,"Velocity":79,"Duration":68389,"SoundDuration":68389,"Delta":149074232},{"NoteNumber":99,"Velocity":81,"Duration":68176,"SoundDuration":68176,"Delta":149143758},{"NoteNumber":100,"Velocity":82,"Duration":67781,"SoundDuration":67781,"Delta":149209667},{"NoteNumber":99,"Velocity":84,"Duration":67491,"SoundDuration":67491,"Delta":149272944},{"NoteNumber":100,"Velocity":89,"Duration":67044,"SoundDuration":67044,"Delta":149348284},{"NoteNumber":99,"Velocity":90,"Duration":66686,"SoundDuration":66686,"Delta":149408642},{"NoteNumber":100,"Velocity":90,"Duration":66269,"SoundDuration":66269,"Delta":149480879},{"NoteNumber":99,"Velocity":93,"Duration":65963,"SoundDuration":65963,"Delta":149550452},{"NoteNumber":100,"Velocity":92,"Duration":65597,"SoundDuration":65597,"Delta":149612029},{"NoteNumber":99,"Velocity":96,"Duration":65203,"SoundDuration":65203,"Delta":149680888},{"NoteNumber":100,"Velocity":93,"Duration":64841,"SoundDuration":64841,"Delta":149742845},{"NoteNumber":99,"Velocity":99,"Duration":64567,"SoundDuration":64567,"Delta":149806609},{"NoteNumber":100,"Velocity":94,"Duration":64180,"SoundDuration":64180,"Delta":149875468},{"NoteNumber":99,"Velocity":99,"Duration":64102,"SoundDuration":64102,"Delta":149937512},{"NoteNumber":100,"Velocity":92,"Duration":64102,"SoundDuration":64102,"Delta":149998409},{"NoteNumber":99,"Velocity":99,"Duration":64102,"SoundDuration":64102,"Delta":150069991},{"NoteNumber":100,"Velocity":92,"Duration":64102,"SoundDuration":64102,"Delta":150129820},{"NoteNumber":99,"Velocity":99,"Duration":64102,"SoundDuration":64102,"Delta":150188580},{"NoteNumber":100,"Velocity":99,"Duration":64102,"SoundDuration":64102,"Delta":150255888},{"NoteNumber":99,"Velocity":99,"Duration":64102,"SoundDuration":64102,"Delta":150316786},{"NoteNumber":100,"Velocity":94,"Duration":64102,"SoundDuration":64102,"Delta":150388367},{"NoteNumber":99,"Velocity":99,"Duration":64217,"SoundDuration":64217,"Delta":150454606},{"NoteNumber":100,"Velocity":93,"Duration":64571,"SoundDuration":64571,"Delta":150514532},{"NoteNumber":99,"Velocity":99,"Duration":64982,"SoundDuration":64982,"Delta":150572633},{"NoteNumber":100,"Velocity":93,"Duration":65397,"SoundDuration":65397,"Delta":150640877},{"NoteNumber":99,"Velocity":99,"Duration":66081,"SoundDuration":66081,"Delta":150702999},{"NoteNumber":100,"Velocity":92,"Duration":67722,"SoundDuration":67722,"Delta":150776878},{"NoteNumber":99,"Velocity":95,"Duration":69127,"SoundDuration":69127,"Delta":150837762},{"NoteNumber":100,"Velocity":92,"Duration":70981,"SoundDuration":70981,"Delta":150916235},{"NoteNumber":99,"Velocity":90,"Duration":73661,"SoundDuration":73661,"Delta":150987217},{"NoteNumber":100,"Velocity":86,"Duration":73512,"SoundDuration":73512,"Delta":151057184},{"NoteNumber":99,"Velocity":82,"Duration":72430,"SoundDuration":72430,"Delta":151131910},{"NoteNumber":100,"Velocity":79,"Duration":71361,"SoundDuration":71361,"Delta":151206733},{"NoteNumber":99,"Velocity":75,"Duration":70506,"SoundDuration":70506,"Delta":151267454},{"NoteNumber":100,"Velocity":72,"Duration":69510,"SoundDuration":69510,"Delta":151339128},{"NoteNumber":99,"Velocity":69,"Duration":68807,"SoundDuration":68807,"Delta":151415540},{"NoteNumber":100,"Velocity":65,"Duration":68807,"SoundDuration":68807,"Delta":151483201},{"NoteNumber":99,"Velocity":59,"Duration":68807,"SoundDuration":68807,"Delta":151547421},{"NoteNumber":100,"Velocity":54,"Duration":68807,"SoundDuration":68807,"Delta":151613935},{"NoteNumber":99,"Velocity":57,"Duration":68807,"SoundDuration":68807,"Delta":151683889},{"NoteNumber":100,"Velocity":56,"Duration":68478,"SoundDuration":68478,"Delta":151758430},{"NoteNumber":99,"Velocity":56,"Duration":67883,"SoundDuration":67883,"Delta":151823505},{"NoteNumber":100,"Velocity":53,"Duration":67873,"SoundDuration":67873,"Delta":151891389},{"NoteNumber":99,"Velocity":55,"Duration":67873,"SoundDuration":67873,"Delta":151960393},{"NoteNumber":100,"Velocity":52,"Duration":68790,"SoundDuration":68790,"Delta":152031660},{"NoteNumber":75,"Velocity":48,"Duration":279156,"SoundDuration":279156,"Delta":152097348},{"NoteNumber":99,"Velocity":47,"Duration":93052,"SoundDuration":93052,"Delta":152102001},{"NoteNumber":100,"Velocity":44,"Duration":93052,"SoundDuration":93052,"Delta":152195053},{"NoteNumber":99,"Velocity":46,"Duration":93052,"SoundDuration":93052,"Delta":152283453},{"NoteNumber":100,"Velocity":44,"Duration":92904,"SoundDuration":92904,"Delta":152378056},{"NoteNumber":87,"Velocity":51,"Duration":336700,"SoundDuration":336700,"Delta":152469557},{"NoteNumber":99,"Velocity":46,"Duration":84175,"SoundDuration":84175,"Delta":152473766},{"NoteNumber":100,"Velocity":45,"Duration":84175,"SoundDuration":84175,"Delta":152559344},{"NoteNumber":99,"Velocity":46,"Duration":84175,"SoundDuration":84175,"Delta":152632295},{"NoteNumber":100,"Velocity":43,"Duration":84129,"SoundDuration":84129,"Delta":152723485},{"NoteNumber":99,"Velocity":46,"Duration":81570,"SoundDuration":81570,"Delta":152802049},{"NoteNumber":87,"Velocity":57,"Duration":325733,"SoundDuration":325733,"Delta":152806257},{"NoteNumber":100,"Velocity":44,"Duration":81433,"SoundDuration":81433,"Delta":152882262},{"NoteNumber":99,"Velocity":46,"Duration":81433,"SoundDuration":81433,"Delta":152974553},{"NoteNumber":100,"Velocity":45,"Duration":81433,"SoundDuration":81433,"Delta":153043771},{"NoteNumber":87,"Velocity":46,"Duration":159433,"SoundDuration":159433,"Delta":153130633},{"NoteNumber":85,"Velocity":48,"Duration":239107,"SoundDuration":239107,"Delta":153131990},{"NoteNumber":99,"Velocity":46,"Duration":79702,"SoundDuration":79702,"Delta":153133319},{"NoteNumber":100,"Velocity":46,"Duration":79702,"SoundDuration":79702,"Delta":153209036},{"NoteNumber":99,"Velocity":46,"Duration":79702,"SoundDuration":79702,"Delta":153292724},{"NoteNumber":100,"Velocity":44,"Duration":79702,"SoundDuration":79702,"Delta":153367113},{"NoteNumber":99,"Velocity":46,"Duration":83004,"SoundDuration":83004,"Delta":153445487},{"NoteNumber":87,"Velocity":29,"Duration":166363,"SoundDuration":166363,"Delta":153448144},{"NoteNumber":68,"Velocity":30,"Duration":332963,"SoundDuration":332963,"Delta":153450800},{"NoteNumber":83,"Velocity":50,"Duration":249722,"SoundDuration":249722,"Delta":153450800},{"NoteNumber":100,"Velocity":44,"Duration":83240,"SoundDuration":83240,"Delta":153538203},{"NoteNumber":99,"Velocity":46,"Duration":83240,"SoundDuration":83240,"Delta":153611733},{"NoteNumber":100,"Velocity":44,"Duration":83240,"SoundDuration":83240,"Delta":153697748},{"NoteNumber":83,"Velocity":35,"Duration":236593,"SoundDuration":236593,"Delta":153783764},{"NoteNumber":87,"Velocity":29,"Duration":157728,"SoundDuration":157728,"Delta":153787707},{"NoteNumber":99,"Velocity":46,"Duration":78864,"SoundDuration":78864,"Delta":153789021},{"NoteNumber":100,"Velocity":44,"Duration":78864,"SoundDuration":78864,"Delta":153866571},{"NoteNumber":99,"Velocity":46,"Duration":78864,"SoundDuration":78864,"Delta":153945436},{"NoteNumber":100,"Velocity":46,"Duration":78885,"SoundDuration":78885,"Delta":154021671},{"NoteNumber":87,"Velocity":29,"Duration":160214,"SoundDuration":160214,"Delta":154096593},{"NoteNumber":82,"Velocity":43,"Duration":240384,"SoundDuration":240384,"Delta":154099221},{"NoteNumber":99,"Velocity":46,"Duration":80128,"SoundDuration":80128,"Delta":154104563},{"NoteNumber":100,"Velocity":44,"Duration":80128,"SoundDuration":80128,"Delta":154175343},{"NoteNumber":99,"Velocity":46,"Duration":80128,"SoundDuration":80128,"Delta":154264820},{"NoteNumber":100,"Velocity":45,"Duration":80128,"SoundDuration":80128,"Delta":154335600},{"NoteNumber":87,"Velocity":29,"Duration":161095,"SoundDuration":161095,"Delta":154415728},{"NoteNumber":99,"Velocity":46,"Duration":80558,"SoundDuration":80558,"Delta":154419734},{"NoteNumber":80,"Velocity":40,"Duration":241675,"SoundDuration":241675,"Delta":154419734},{"NoteNumber":71,"Velocity":40,"Duration":322234,"SoundDuration":322234,"Delta":154419734},{"NoteNumber":100,"Velocity":44,"Duration":80558,"SoundDuration":80558,"Delta":154507006},{"NoteNumber":99,"Velocity":46,"Duration":80558,"SoundDuration":80558,"Delta":154574138},{"NoteNumber":100,"Velocity":45,"Duration":80558,"SoundDuration":80558,"Delta":154654697},{"NoteNumber":99,"Velocity":46,"Duration":78892,"SoundDuration":78892,"Delta":154740626},{"NoteNumber":87,"Velocity":29,"Duration":157728,"SoundDuration":157728,"Delta":154741968},{"NoteNumber":79,"Velocity":26,"Duration":236593,"SoundDuration":236593,"Delta":154741968},{"NoteNumber":100,"Velocity":44,"Duration":78864,"SoundDuration":78864,"Delta":154815575},{"NoteNumber":99,"Velocity":46,"Duration":78864,"SoundDuration":78864,"Delta":154895754},{"NoteNumber":100,"Velocity":44,"Duration":79006,"SoundDuration":79006,"Delta":154983819},{"NoteNumber":99,"Velocity":46,"Duration":80851,"SoundDuration":80851,"Delta":155052168},{"NoteNumber":87,"Velocity":29,"Duration":161880,"SoundDuration":161880,"Delta":155053483},{"NoteNumber":80,"Velocity":41,"Duration":242980,"SoundDuration":242980,"Delta":155057426},{"NoteNumber":100,"Velocity":44,"Duration":80993,"SoundDuration":80993,"Delta":155133020},{"NoteNumber":99,"Velocity":47,"Duration":80993,"SoundDuration":80993,"Delta":155226162},{"NoteNumber":100,"Velocity":44,"Duration":80993,"SoundDuration":80993,"Delta":155293657},{"NoteNumber":99,"Velocity":47,"Duration":81804,"SoundDuration":81804,"Delta":155374650},{"NoteNumber":87,"Velocity":30,"Duration":163681,"SoundDuration":163681,"Delta":155374650},{"NoteNumber":79,"Velocity":40,"Duration":327510,"SoundDuration":327510,"Delta":155381400},{"NoteNumber":82,"Velocity":50,"Duration":327510,"SoundDuration":327510,"Delta":155381400},{"NoteNumber":100,"Velocity":43,"Duration":81877,"SoundDuration":81877,"Delta":155460548},{"NoteNumber":99,"Velocity":47,"Duration":81877,"SoundDuration":81877,"Delta":155551978},{"NoteNumber":100,"Velocity":44,"Duration":81877,"SoundDuration":81877,"Delta":155625668},{"NoteNumber":87,"Velocity":30,"Duration":166459,"SoundDuration":166459,"Delta":155707546},{"NoteNumber":75,"Velocity":28,"Duration":249722,"SoundDuration":249722,"Delta":155708911},{"NoteNumber":99,"Velocity":47,"Duration":83240,"SoundDuration":83240,"Delta":155715848},{"NoteNumber":100,"Velocity":45,"Duration":83240,"SoundDuration":83240,"Delta":155797701},{"NoteNumber":99,"Velocity":47,"Duration":83240,"SoundDuration":83240,"Delta":155875393},{"NoteNumber":100,"Velocity":43,"Duration":83062,"SoundDuration":83062,"Delta":155964183},{"NoteNumber":99,"Velocity":47,"Duration":80603,"SoundDuration":80603,"Delta":156040487},{"NoteNumber":75,"Velocity":37,"Duration":241675,"SoundDuration":241675,"Delta":156041874},{"NoteNumber":87,"Velocity":29,"Duration":161116,"SoundDuration":161116,"Delta":156044560},{"NoteNumber":100,"Velocity":45,"Duration":80558,"SoundDuration":80558,"Delta":156118405},{"NoteNumber":99,"Velocity":47,"Duration":80558,"SoundDuration":80558,"Delta":156196278},{"NoteNumber":100,"Velocity":45,"Duration":80558,"SoundDuration":80558,"Delta":156283550},{"NoteNumber":99,"Velocity":47,"Duration":85054,"SoundDuration":85054,"Delta":156362766},{"NoteNumber":76,"Velocity":42,"Duration":255391,"SoundDuration":255391,"Delta":156364108},{"NoteNumber":70,"Velocity":42,"Duration":340521,"SoundDuration":340521,"Delta":156364108},{"NoteNumber":67,"Velocity":42,"Duration":340521,"SoundDuration":340521,"Delta":156364108},{"NoteNumber":87,"Velocity":29,"Duration":170260,"SoundDuration":170260,"Delta":156371203},{"NoteNumber":100,"Velocity":47,"Duration":85130,"SoundDuration":85130,"Delta":156444982},{"NoteNumber":99,"Velocity":47,"Duration":85130,"SoundDuration":85130,"Delta":156535788},{"NoteNumber":100,"Velocity":45,"Duration":85130,"SoundDuration":85130,"Delta":156615243},{"NoteNumber":75,"Velocity":35,"Duration":240384,"SoundDuration":240384,"Delta":156704630},{"NoteNumber":87,"Velocity":29,"Duration":160256,"SoundDuration":160256,"Delta":156707301},{"NoteNumber":99,"Velocity":46,"Duration":80128,"SoundDuration":80128,"Delta":156711308},{"NoteNumber":100,"Velocity":44,"Duration":80128,"SoundDuration":80128,"Delta":156783423},{"NoteNumber":99,"Velocity":46,"Duration":80128,"SoundDuration":80128,"Delta":156870229},{"NoteNumber":100,"Velocity":44,"Duration":80128,"SoundDuration":80128,"Delta":156938338},{"NoteNumber":73,"Velocity":29,"Duration":231719,"SoundDuration":231719,"Delta":157025143},{"NoteNumber":99,"Velocity":46,"Duration":77240,"SoundDuration":77240,"Delta":157026431},{"NoteNumber":87,"Velocity":29,"Duration":154480,"SoundDuration":154480,"Delta":157031580},{"NoteNumber":100,"Velocity":43,"Duration":77240,"SoundDuration":77240,"Delta":157106245},{"NoteNumber":99,"Velocity":46,"Duration":77240,"SoundDuration":77240,"Delta":157180911},{"NoteNumber":100,"Velocity":45,"Duration":77239,"SoundDuration":77239,"Delta":157251714},{"NoteNumber":87,"Velocity":29,"Duration":158460,"SoundDuration":158460,"Delta":157330241},{"NoteNumber":99,"Velocity":46,"Duration":79247,"SoundDuration":79247,"Delta":157332816},{"NoteNumber":68,"Velocity":29,"Duration":237843,"SoundDuration":237843,"Delta":157334103},{"NoteNumber":71,"Velocity":44,"Duration":237843,"SoundDuration":237843,"Delta":157334103},{"NoteNumber":100,"Velocity":44,"Duration":79281,"SoundDuration":79281,"Delta":157406778},{"NoteNumber":99,"Velocity":46,"Duration":79281,"SoundDuration":79281,"Delta":157491344},{"NoteNumber":100,"Velocity":43,"Duration":79281,"SoundDuration":79281,"Delta":157565340},{"NoteNumber":71,"Velocity":35,"Duration":230532,"SoundDuration":230532,"Delta":157651228},{"NoteNumber":68,"Velocity":35,"Duration":230532,"SoundDuration":230532,"Delta":157651228},{"NoteNumber":87,"Velocity":29,"Duration":153688,"SoundDuration":153688,"Delta":157653789},{"NoteNumber":99,"Velocity":45,"Duration":76844,"SoundDuration":76844,"Delta":157656351},{"NoteNumber":100,"Velocity":43,"Duration":76844,"SoundDuration":76844,"Delta":157721668},{"NoteNumber":99,"Velocity":45,"Duration":76844,"SoundDuration":76844,"Delta":157808759},{"NoteNumber":100,"Velocity":43,"Duration":76953,"SoundDuration":76953,"Delta":157884322},{"NoteNumber":66,"Velocity":27,"Duration":240384,"SoundDuration":240384,"Delta":157958605},{"NoteNumber":70,"Velocity":41,"Duration":240384,"SoundDuration":240384,"Delta":157958605},{"NoteNumber":87,"Velocity":27,"Duration":160256,"SoundDuration":160256,"Delta":157961276},{"NoteNumber":99,"Velocity":45,"Duration":80128,"SoundDuration":80128,"Delta":157962611},{"NoteNumber":100,"Velocity":42,"Duration":80128,"SoundDuration":80128,"Delta":158038733},{"NoteNumber":99,"Velocity":45,"Duration":80128,"SoundDuration":80128,"Delta":158121532},{"NoteNumber":100,"Velocity":41,"Duration":80128,"SoundDuration":80128,"Delta":158193648},{"NoteNumber":68,"Velocity":37,"Duration":244299,"SoundDuration":244299,"Delta":158279118},{"NoteNumber":64,"Velocity":37,"Duration":244299,"SoundDuration":244299,"Delta":158279118},{"NoteNumber":87,"Velocity":27,"Duration":162866,"SoundDuration":162866,"Delta":158281832},{"NoteNumber":99,"Velocity":44,"Duration":81433,"SoundDuration":81433,"Delta":158283189},{"NoteNumber":100,"Velocity":40,"Duration":81433,"SoundDuration":81433,"Delta":158364623},{"NoteNumber":99,"Velocity":44,"Duration":81433,"SoundDuration":81433,"Delta":158435198},{"NoteNumber":100,"Velocity":41,"Duration":81778,"SoundDuration":81778,"Delta":158528846},{"NoteNumber":67,"Velocity":28,"Duration":259815,"SoundDuration":259815,"Delta":158604851},{"NoteNumber":87,"Velocity":27,"Duration":173210,"SoundDuration":173210,"Delta":158607738},{"NoteNumber":99,"Velocity":44,"Duration":86605,"SoundDuration":86605,"Delta":158607738},{"NoteNumber":100,"Velocity":40,"Duration":86605,"SoundDuration":86605,"Delta":158684239},{"NoteNumber":99,"Velocity":43,"Duration":86605,"SoundDuration":86605,"Delta":158779505},{"NoteNumber":100,"Velocity":39,"Duration":86909,"SoundDuration":86909,"Delta":158871883},{"NoteNumber":87,"Velocity":27,"Duration":180201,"SoundDuration":180201,"Delta":158944054},{"NoteNumber":99,"Velocity":43,"Duration":90131,"SoundDuration":90131,"Delta":158948384},{"NoteNumber":68,"Velocity":29,"Duration":270758,"SoundDuration":270758,"Delta":158951271},{"NoteNumber":100,"Velocity":39,"Duration":90252,"SoundDuration":90252,"Delta":159035507},{"NoteNumber":99,"Velocity":41,"Duration":90252,"SoundDuration":90252,"Delta":159139298},{"NoteNumber":100,"Velocity":36,"Duration":90217,"SoundDuration":90217,"Delta":159223534},{"NoteNumber":87,"Velocity":25,"Duration":176333,"SoundDuration":176333,"Delta":159309274},{"NoteNumber":67,"Velocity":26,"Duration":352526,"SoundDuration":352526,"Delta":159312282},{"NoteNumber":70,"Velocity":38,"Duration":352526,"SoundDuration":352526,"Delta":159312282},{"NoteNumber":99,"Velocity":44,"Duration":88131,"SoundDuration":88131,"Delta":159319627},{"NoteNumber":100,"Velocity":40,"Duration":88131,"SoundDuration":88131,"Delta":159398945},{"NoteNumber":99,"Velocity":45,"Duration":88131,"SoundDuration":88131,"Delta":159491483},{"NoteNumber":100,"Velocity":40,"Duration":88131,"SoundDuration":88131,"Delta":159572271},{"NoteNumber":87,"Velocity":25,"Duration":165919,"SoundDuration":165919,"Delta":159658933},{"NoteNumber":99,"Velocity":45,"Duration":83049,"SoundDuration":83049,"Delta":159660402},{"NoteNumber":63,"Velocity":36,"Duration":331126,"SoundDuration":331126,"Delta":159664809},{"NoteNumber":100,"Velocity":42,"Duration":82781,"SoundDuration":82781,"Delta":159747590},{"NoteNumber":99,"Velocity":45,"Duration":82781,"SoundDuration":82781,"Delta":159835891},{"NoteNumber":100,"Velocity":41,"Duration":82781,"SoundDuration":82781,"Delta":159907635},{"NoteNumber":99,"Velocity":46,"Duration":78122,"SoundDuration":78122,"Delta":159994555},{"NoteNumber":87,"Velocity":25,"Duration":156060,"SoundDuration":156060,"Delta":160001138},{"NoteNumber":100,"Velocity":43,"Duration":78043,"SoundDuration":78043,"Delta":160067475},{"NoteNumber":99,"Velocity":46,"Duration":77639,"SoundDuration":77639,"Delta":160155904},{"NoteNumber":100,"Velocity":44,"Duration":77639,"SoundDuration":77639,"Delta":160224486},{"NoteNumber":63,"Velocity":40,"Duration":77639,"SoundDuration":77639,"Delta":160229662},{"NoteNumber":75,"Velocity":50,"Duration":237843,"SoundDuration":237843,"Delta":160307302},{"NoteNumber":99,"Velocity":46,"Duration":79281,"SoundDuration":79281,"Delta":160311266},{"NoteNumber":87,"Velocity":29,"Duration":158562,"SoundDuration":158562,"Delta":160313909},{"NoteNumber":100,"Velocity":43,"Duration":79281,"SoundDuration":79281,"Delta":160391868},{"NoteNumber":99,"Velocity":46,"Duration":79281,"SoundDuration":79281,"Delta":160461900},{"NoteNumber":100,"Velocity":43,"Duration":79281,"SoundDuration":79281,"Delta":160545145},{"NoteNumber":87,"Velocity":29,"Duration":153891,"SoundDuration":153891,"Delta":160617820},{"NoteNumber":75,"Velocity":46,"Duration":230532,"SoundDuration":230532,"Delta":160624426},{"NoteNumber":99,"Velocity":46,"Duration":76844,"SoundDuration":76844,"Delta":160628269},{"NoteNumber":100,"Velocity":43,"Duration":76844,"SoundDuration":76844,"Delta":160696148},{"NoteNumber":99,"Velocity":46,"Duration":76844,"SoundDuration":76844,"Delta":160776834},{"NoteNumber":100,"Velocity":43,"Duration":76844,"SoundDuration":76844,"Delta":160852398},{"NoteNumber":99,"Velocity":46,"Duration":76844,"SoundDuration":76844,"Delta":160925400},{"NoteNumber":73,"Velocity":45,"Duration":230532,"SoundDuration":230532,"Delta":160931803},{"NoteNumber":87,"Velocity":29,"Duration":153688,"SoundDuration":153688,"Delta":160938207},{"NoteNumber":100,"Velocity":43,"Duration":76844,"SoundDuration":76844,"Delta":161004805},{"NoteNumber":99,"Velocity":46,"Duration":76844,"SoundDuration":76844,"Delta":161081650},{"NoteNumber":100,"Velocity":43,"Duration":76844,"SoundDuration":76844,"Delta":161158494},{"NoteNumber":99,"Velocity":44,"Duration":75301,"SoundDuration":75301,"Delta":161239180},{"NoteNumber":56,"Velocity":42,"Duration":301205,"SoundDuration":301205,"Delta":161239180},{"NoteNumber":71,"Velocity":54,"Duration":225903,"SoundDuration":225903,"Delta":161239180},{"NoteNumber":100,"Velocity":49,"Duration":75301,"SoundDuration":75301,"Delta":161314482},{"NoteNumber":99,"Velocity":49,"Duration":75301,"SoundDuration":75301,"Delta":161389783},{"NoteNumber":87,"Velocity":49,"Duration":67771,"SoundDuration":67771,"Delta":161465084},{"NoteNumber":87,"Velocity":40,"Duration":72393,"SoundDuration":72393,"Delta":161540385},{"NoteNumber":71,"Velocity":50,"Duration":217181,"SoundDuration":217181,"Delta":161540385},{"NoteNumber":88,"Velocity":40,"Duration":72393,"SoundDuration":72393,"Delta":161612779},{"NoteNumber":87,"Velocity":40,"Duration":72393,"SoundDuration":72393,"Delta":161685173},{"NoteNumber":75,"Velocity":40,"Duration":72393,"SoundDuration":72393,"Delta":161757567},{"NoteNumber":87,"Velocity":40,"Duration":101419,"SoundDuration":101419,"Delta":161829961},{"NoteNumber":70,"Velocity":51,"Duration":228194,"SoundDuration":228194,"Delta":161829961},{"NoteNumber":88,"Velocity":40,"Duration":101419,"SoundDuration":101419,"Delta":161931381},{"NoteNumber":87,"Velocity":40,"Duration":101419,"SoundDuration":101419,"Delta":162032800},{"NoteNumber":99,"Velocity":47,"Duration":73818,"SoundDuration":73818,"Delta":162134220},{"NoteNumber":59,"Velocity":37,"Duration":295275,"SoundDuration":295275,"Delta":162134220},{"NoteNumber":68,"Velocity":54,"Duration":221456,"SoundDuration":221456,"Delta":162134220},{"NoteNumber":100,"Velocity":47,"Duration":73818,"SoundDuration":73818,"Delta":162208039},{"NoteNumber":99,"Velocity":47,"Duration":73818,"SoundDuration":73818,"Delta":162281858},{"NoteNumber":87,"Velocity":47,"Duration":66436,"SoundDuration":66436,"Delta":162355677},{"NoteNumber":87,"Velocity":41,"Duration":71360,"SoundDuration":71360,"Delta":162429496},{"NoteNumber":67,"Velocity":50,"Duration":214081,"SoundDuration":214081,"Delta":162429496},{"NoteNumber":88,"Velocity":40,"Duration":71360,"SoundDuration":71360,"Delta":162500856},{"NoteNumber":87,"Velocity":40,"Duration":71360,"SoundDuration":71360,"Delta":162572217},{"NoteNumber":75,"Velocity":40,"Duration":71360,"SoundDuration":71360,"Delta":162643578},{"NoteNumber":87,"Velocity":40,"Duration":100401,"SoundDuration":100401,"Delta":162714938},{"NoteNumber":68,"Velocity":51,"Duration":225903,"SoundDuration":225903,"Delta":162714938},{"NoteNumber":88,"Velocity":40,"Duration":100401,"SoundDuration":100401,"Delta":162815340},{"NoteNumber":87,"Velocity":40,"Duration":100401,"SoundDuration":100401,"Delta":162915742},{"NoteNumber":99,"Velocity":49,"Duration":73818,"SoundDuration":73818,"Delta":163016143},{"NoteNumber":67,"Velocity":44,"Duration":295275,"SoundDuration":295275,"Delta":163016143},{"NoteNumber":70,"Velocity":59,"Duration":295275,"SoundDuration":295275,"Delta":163016143},{"NoteNumber":100,"Velocity":49,"Duration":73818,"SoundDuration":73818,"Delta":163089962},{"NoteNumber":99,"Velocity":49,"Duration":73818,"SoundDuration":73818,"Delta":163163781},{"NoteNumber":87,"Velocity":49,"Duration":66436,"SoundDuration":66436,"Delta":163237600},{"NoteNumber":87,"Velocity":40,"Duration":71360,"SoundDuration":71360,"Delta":163311419},{"NoteNumber":63,"Velocity":54,"Duration":214081,"SoundDuration":214081,"Delta":163311419},{"NoteNumber":88,"Velocity":40,"Duration":71360,"SoundDuration":71360,"Delta":163382779},{"NoteNumber":87,"Velocity":40,"Duration":71360,"SoundDuration":71360,"Delta":163454140},{"NoteNumber":75,"Velocity":40,"Duration":71360,"SoundDuration":71360,"Delta":163525501},{"NoteNumber":87,"Velocity":40,"Duration":99601,"SoundDuration":99601,"Delta":163596861},{"NoteNumber":63,"Velocity":54,"Duration":224103,"SoundDuration":224103,"Delta":163596861},{"NoteNumber":88,"Velocity":40,"Duration":99601,"SoundDuration":99601,"Delta":163696463},{"NoteNumber":87,"Velocity":40,"Duration":99601,"SoundDuration":99601,"Delta":163796065},{"NoteNumber":99,"Velocity":47,"Duration":71157,"SoundDuration":71157,"Delta":163895666},{"NoteNumber":68,"Velocity":45,"Duration":213472,"SoundDuration":213472,"Delta":163895666},{"NoteNumber":59,"Velocity":45,"Duration":213472,"SoundDuration":213472,"Delta":163895666},{"NoteNumber":100,"Velocity":47,"Duration":71157,"SoundDuration":71157,"Delta":163966824},{"NoteNumber":99,"Velocity":47,"Duration":71157,"SoundDuration":71157,"Delta":164037981},{"NoteNumber":87,"Velocity":47,"Duration":64041,"SoundDuration":64041,"Delta":164109139},{"NoteNumber":87,"Velocity":41,"Duration":71157,"SoundDuration":71157,"Delta":164180296},{"NoteNumber":66,"Velocity":43,"Duration":213472,"SoundDuration":213472,"Delta":164180296},{"NoteNumber":60,"Velocity":44,"Duration":213472,"SoundDuration":213472,"Delta":164180296},{"NoteNumber":88,"Velocity":41,"Duration":71157,"SoundDuration":71157,"Delta":164251454},{"NoteNumber":87,"Velocity":41,"Duration":71157,"SoundDuration":71157,"Delta":164322611},{"NoteNumber":75,"Velocity":41,"Duration":71157,"SoundDuration":71157,"Delta":164393769},{"NoteNumber":87,"Velocity":41,"Duration":94876,"SoundDuration":94876,"Delta":164464926},{"NoteNumber":64,"Velocity":49,"Duration":213472,"SoundDuration":213472,"Delta":164464926},{"NoteNumber":61,"Velocity":37,"Duration":213472,"SoundDuration":213472,"Delta":164464926},{"NoteNumber":88,"Velocity":41,"Duration":94876,"SoundDuration":94876,"Delta":164559803},{"NoteNumber":87,"Velocity":41,"Duration":94876,"SoundDuration":94876,"Delta":164654680},{"NoteNumber":99,"Velocity":45,"Duration":73964,"SoundDuration":73964,"Delta":164749556},{"NoteNumber":63,"Velocity":59,"Duration":295858,"SoundDuration":295858,"Delta":164749556},{"NoteNumber":100,"Velocity":45,"Duration":73964,"SoundDuration":73964,"Delta":164823521},{"NoteNumber":99,"Velocity":45,"Duration":73964,"SoundDuration":73964,"Delta":164897485},{"NoteNumber":87,"Velocity":45,"Duration":73964,"SoundDuration":73964,"Delta":164971450},{"NoteNumber":80,"Velocity":45,"Duration":142993,"SoundDuration":142993,"Delta":165045414},{"NoteNumber":71,"Velocity":45,"Duration":142993,"SoundDuration":142993,"Delta":165045414},{"NoteNumber":75,"Velocity":41,"Duration":142993,"SoundDuration":142993,"Delta":165188408},{"NoteNumber":83,"Velocity":41,"Duration":142993,"SoundDuration":142993,"Delta":165188408},{"NoteNumber":87,"Velocity":46,"Duration":235849,"SoundDuration":235849,"Delta":165331401},{"NoteNumber":80,"Velocity":46,"Duration":235849,"SoundDuration":235849,"Delta":165331401},{"NoteNumber":99,"Velocity":45,"Duration":75452,"SoundDuration":75452,"Delta":165645866},{"NoteNumber":63,"Velocity":52,"Duration":301810,"SoundDuration":301810,"Delta":165645866},{"NoteNumber":100,"Velocity":44,"Duration":75452,"SoundDuration":75452,"Delta":165721319},{"NoteNumber":99,"Velocity":44,"Duration":75452,"SoundDuration":75452,"Delta":165796772},{"NoteNumber":87,"Velocity":44,"Duration":75452,"SoundDuration":75452,"Delta":165872225},{"NoteNumber":79,"Velocity":40,"Duration":154910,"SoundDuration":154910,"Delta":165947677},{"NoteNumber":70,"Velocity":40,"Duration":154910,"SoundDuration":154910,"Delta":165947677},{"NoteNumber":73,"Velocity":36,"Duration":154910,"SoundDuration":154910,"Delta":166102588},{"NoteNumber":82,"Velocity":36,"Duration":154910,"SoundDuration":154910,"Delta":166102588},{"NoteNumber":87,"Velocity":40,"Duration":270627,"SoundDuration":270627,"Delta":166257499},{"NoteNumber":79,"Velocity":40,"Duration":270627,"SoundDuration":270627,"Delta":166257499},{"NoteNumber":56,"Velocity":52,"Duration":422535,"SoundDuration":422535,"Delta":166618336},{"NoteNumber":63,"Velocity":40,"Duration":105633,"SoundDuration":105633,"Delta":166829603},{"NoteNumber":71,"Velocity":40,"Duration":105633,"SoundDuration":105633,"Delta":166935237},{"NoteNumber":80,"Velocity":46,"Duration":227272,"SoundDuration":227272,"Delta":167040871},{"NoteNumber":75,"Velocity":54,"Duration":297421,"SoundDuration":297421,"Delta":167471233},{"NoteNumber":87,"Velocity":43,"Duration":74602,"SoundDuration":74602,"Delta":167546447},{"NoteNumber":88,"Velocity":43,"Duration":74098,"SoundDuration":74098,"Delta":167621050},{"NoteNumber":87,"Velocity":43,"Duration":73505,"SoundDuration":73505,"Delta":167695148},{"NoteNumber":87,"Velocity":60,"Duration":145457,"SoundDuration":145457,"Delta":167768654},{"NoteNumber":99,"Velocity":46,"Duration":72440,"SoundDuration":72440,"Delta":167841671},{"NoteNumber":100,"Velocity":46,"Duration":74626,"SoundDuration":74626,"Delta":167914112},{"NoteNumber":99,"Velocity":46,"Duration":70330,"SoundDuration":70330,"Delta":167988739},{"NoteNumber":87,"Velocity":60,"Duration":144369,"SoundDuration":144369,"Delta":168059069},{"NoteNumber":99,"Velocity":44,"Duration":72184,"SoundDuration":72184,"Delta":168131254},{"NoteNumber":100,"Velocity":44,"Duration":72184,"SoundDuration":72184,"Delta":168203439},{"NoteNumber":99,"Velocity":44,"Duration":72184,"SoundDuration":72184,"Delta":168275623},{"NoteNumber":85,"Velocity":55,"Duration":144369,"SoundDuration":144369,"Delta":168347808},{"NoteNumber":97,"Velocity":44,"Duration":72184,"SoundDuration":72184,"Delta":168419993},{"NoteNumber":99,"Velocity":44,"Duration":70158,"SoundDuration":70158,"Delta":168492178},{"NoteNumber":97,"Velocity":45,"Duration":70159,"SoundDuration":70159,"Delta":168562337},{"NoteNumber":83,"Velocity":59,"Duration":143678,"SoundDuration":143678,"Delta":168632496},{"NoteNumber":32,"Velocity":44,"Duration":287356,"SoundDuration":287356,"Delta":168632496},{"NoteNumber":44,"Velocity":50,"Duration":287356,"SoundDuration":287356,"Delta":168632496},{"NoteNumber":95,"Velocity":45,"Duration":71839,"SoundDuration":71839,"Delta":168704335},{"NoteNumber":97,"Velocity":45,"Duration":71839,"SoundDuration":71839,"Delta":168776174},{"NoteNumber":95,"Velocity":46,"Duration":71839,"SoundDuration":71839,"Delta":168848013},{"NoteNumber":83,"Velocity":54,"Duration":143678,"SoundDuration":143678,"Delta":168919852},{"NoteNumber":51,"Velocity":39,"Duration":143678,"SoundDuration":143678,"Delta":168919852},{"NoteNumber":63,"Velocity":44,"Duration":143678,"SoundDuration":143678,"Delta":168919852},{"NoteNumber":59,"Velocity":39,"Duration":143678,"SoundDuration":143678,"Delta":168919852},{"NoteNumber":95,"Velocity":40,"Duration":71839,"SoundDuration":71839,"Delta":168991691},{"NoteNumber":97,"Velocity":41,"Duration":71839,"SoundDuration":71839,"Delta":169063530},{"NoteNumber":95,"Velocity":41,"Duration":71839,"SoundDuration":71839,"Delta":169135370},{"NoteNumber":82,"Velocity":55,"Duration":139664,"SoundDuration":139664,"Delta":169207209},{"NoteNumber":63,"Velocity":44,"Duration":139664,"SoundDuration":139664,"Delta":169207209},{"NoteNumber":59,"Velocity":39,"Duration":139664,"SoundDuration":139664,"Delta":169207209},{"NoteNumber":56,"Velocity":39,"Duration":139664,"SoundDuration":139664,"Delta":169207209},{"NoteNumber":94,"Velocity":40,"Duration":69832,"SoundDuration":69832,"Delta":169277041},{"NoteNumber":95,"Velocity":40,"Duration":69832,"SoundDuration":69832,"Delta":169346873},{"NoteNumber":94,"Velocity":41,"Duration":69832,"SoundDuration":69832,"Delta":169416706},{"NoteNumber":80,"Velocity":59,"Duration":144369,"SoundDuration":144369,"Delta":169486538},{"NoteNumber":35,"Velocity":43,"Duration":288738,"SoundDuration":288738,"Delta":169486538},{"NoteNumber":47,"Velocity":47,"Duration":288738,"SoundDuration":288738,"Delta":169486538},{"NoteNumber":92,"Velocity":41,"Duration":72184,"SoundDuration":72184,"Delta":169558723},{"NoteNumber":94,"Velocity":41,"Duration":72184,"SoundDuration":72184,"Delta":169630908},{"NoteNumber":92,"Velocity":41,"Duration":72184,"SoundDuration":72184,"Delta":169703092},{"NoteNumber":79,"Velocity":59,"Duration":144369,"SoundDuration":144369,"Delta":169775277},{"NoteNumber":63,"Velocity":44,"Duration":144369,"SoundDuration":144369,"Delta":169775277},{"NoteNumber":59,"Velocity":39,"Duration":144369,"SoundDuration":144369,"Delta":169775277},{"NoteNumber":51,"Velocity":39,"Duration":144369,"SoundDuration":144369,"Delta":169775277},{"NoteNumber":91,"Velocity":41,"Duration":72184,"SoundDuration":72184,"Delta":169847462},{"NoteNumber":92,"Velocity":41,"Duration":72184,"SoundDuration":72184,"Delta":169919647},{"NoteNumber":91,"Velocity":41,"Duration":72184,"SoundDuration":72184,"Delta":169991831},{"NoteNumber":80,"Velocity":63,"Duration":139017,"SoundDuration":139017,"Delta":170064016},{"NoteNumber":63,"Velocity":44,"Duration":139017,"SoundDuration":139017,"Delta":170064016},{"NoteNumber":59,"Velocity":39,"Duration":139017,"SoundDuration":139017,"Delta":170064016},{"NoteNumber":56,"Velocity":39,"Duration":139017,"SoundDuration":139017,"Delta":170064016},{"NoteNumber":92,"Velocity":43,"Duration":69508,"SoundDuration":69508,"Delta":170133525},{"NoteNumber":94,"Velocity":43,"Duration":69508,"SoundDuration":69508,"Delta":170203034},{"NoteNumber":92,"Velocity":44,"Duration":69508,"SoundDuration":69508,"Delta":170272542},{"NoteNumber":82,"Velocity":67,"Duration":287356,"SoundDuration":287356,"Delta":170342051},{"NoteNumber":39,"Velocity":44,"Duration":287356,"SoundDuration":287356,"Delta":170342051},{"NoteNumber":51,"Velocity":49,"Duration":287356,"SoundDuration":287356,"Delta":170342051},{"NoteNumber":94,"Velocity":51,"Duration":71839,"SoundDuration":71839,"Delta":170413890},{"NoteNumber":95,"Velocity":51,"Duration":71839,"SoundDuration":71839,"Delta":170485729},{"NoteNumber":94,"Velocity":51,"Duration":71839,"SoundDuration":71839,"Delta":170557569},{"NoteNumber":75,"Velocity":59,"Duration":215517,"SoundDuration":215517,"Delta":170629408},{"NoteNumber":67,"Velocity":44,"Duration":215517,"SoundDuration":215517,"Delta":170629408},{"NoteNumber":63,"Velocity":39,"Duration":215517,"SoundDuration":215517,"Delta":170629408},{"NoteNumber":55,"Velocity":39,"Duration":215517,"SoundDuration":215517,"Delta":170629408},{"NoteNumber":87,"Velocity":44,"Duration":71839,"SoundDuration":71839,"Delta":170701247},{"NoteNumber":88,"Velocity":44,"Duration":71839,"SoundDuration":71839,"Delta":170773086},{"NoteNumber":87,"Velocity":44,"Duration":71839,"SoundDuration":71839,"Delta":170844925},{"NoteNumber":75,"Velocity":59,"Duration":275482,"SoundDuration":275482,"Delta":170916764},{"NoteNumber":67,"Velocity":44,"Duration":206611,"SoundDuration":206611,"Delta":170916764},{"NoteNumber":63,"Velocity":39,"Duration":206611,"SoundDuration":206611,"Delta":170916764},{"NoteNumber":58,"Velocity":39,"Duration":206611,"SoundDuration":206611,"Delta":170916764},{"NoteNumber":87,"Velocity":44,"Duration":68870,"SoundDuration":68870,"Delta":170985635},{"NoteNumber":88,"Velocity":44,"Duration":68870,"SoundDuration":68870,"Delta":171054505},{"NoteNumber":87,"Velocity":45,"Duration":68870,"SoundDuration":68870,"Delta":171123376},{"NoteNumber":76,"Velocity":62,"Duration":209497,"SoundDuration":209497,"Delta":171192246},{"NoteNumber":43,"Velocity":51,"Duration":279329,"SoundDuration":279329,"Delta":171192246},{"NoteNumber":88,"Velocity":45,"Duration":69832,"SoundDuration":69832,"Delta":171262079},{"NoteNumber":90,"Velocity":45,"Duration":69832,"SoundDuration":69832,"Delta":171331911},{"NoteNumber":88,"Velocity":45,"Duration":69832,"SoundDuration":69832,"Delta":171401743},{"NoteNumber":75,"Velocity":56,"Duration":209497,"SoundDuration":209497,"Delta":171471576},{"NoteNumber":61,"Velocity":37,"Duration":209497,"SoundDuration":209497,"Delta":171471576},{"NoteNumber":63,"Velocity":37,"Duration":209497,"SoundDuration":209497,"Delta":171471576},{"NoteNumber":70,"Velocity":43,"Duration":209497,"SoundDuration":209497,"Delta":171471576},{"NoteNumber":87,"Velocity":43,"Duration":69832,"SoundDuration":69832,"Delta":171541408},{"NoteNumber":88,"Velocity":43,"Duration":69832,"SoundDuration":69832,"Delta":171611240},{"NoteNumber":87,"Velocity":43,"Duration":69832,"SoundDuration":69832,"Delta":171681073},{"NoteNumber":73,"Velocity":56,"Duration":207564,"SoundDuration":207564,"Delta":171750905},{"NoteNumber":58,"Velocity":37,"Duration":207564,"SoundDuration":207564,"Delta":171750905},{"NoteNumber":63,"Velocity":37,"Duration":207564,"SoundDuration":207564,"Delta":171750905},{"NoteNumber":70,"Velocity":43,"Duration":207564,"SoundDuration":207564,"Delta":171750905},{"NoteNumber":85,"Velocity":43,"Duration":69188,"SoundDuration":69188,"Delta":171820093},{"NoteNumber":87,"Velocity":43,"Duration":69188,"SoundDuration":69188,"Delta":171889282},{"NoteNumber":85,"Velocity":43,"Duration":69188,"SoundDuration":69188,"Delta":171958470},{"NoteNumber":71,"Velocity":60,"Duration":245556,"SoundDuration":245556,"Delta":172027658},{"NoteNumber":44,"Velocity":47,"Duration":280635,"SoundDuration":280635,"Delta":172027658},{"NoteNumber":83,"Velocity":43,"Duration":70159,"SoundDuration":70159,"Delta":172097817},{"NoteNumber":85,"Velocity":43,"Duration":70158,"SoundDuration":70158,"Delta":172167976},{"NoteNumber":83,"Velocity":43,"Duration":70158,"SoundDuration":70158,"Delta":172238135},{"NoteNumber":71,"Velocity":54,"Duration":210477,"SoundDuration":210477,"Delta":172308294},{"NoteNumber":68,"Velocity":40,"Duration":210477,"SoundDuration":210477,"Delta":172308294},{"NoteNumber":63,"Velocity":35,"Duration":210477,"SoundDuration":210477,"Delta":172308294},{"NoteNumber":83,"Velocity":39,"Duration":70158,"SoundDuration":70158,"Delta":172378453},{"NoteNumber":85,"Velocity":39,"Duration":70159,"SoundDuration":70159,"Delta":172448612},{"NoteNumber":83,"Velocity":39,"Duration":70158,"SoundDuration":70158,"Delta":172518771},{"NoteNumber":70,"Velocity":54,"Duration":210476,"SoundDuration":210476,"Delta":172588930},{"NoteNumber":63,"Velocity":40,"Duration":210476,"SoundDuration":210476,"Delta":172588930},{"NoteNumber":59,"Velocity":35,"Duration":210476,"SoundDuration":210476,"Delta":172588930},{"NoteNumber":82,"Velocity":41,"Duration":70159,"SoundDuration":70159,"Delta":172659089},{"NoteNumber":83,"Velocity":41,"Duration":70158,"SoundDuration":70158,"Delta":172729248},{"NoteNumber":82,"Velocity":43,"Duration":70158,"SoundDuration":70158,"Delta":172799407},{"NoteNumber":68,"Velocity":60,"Duration":206611,"SoundDuration":206611,"Delta":172869566},{"NoteNumber":40,"Velocity":46,"Duration":275482,"SoundDuration":275482,"Delta":172869566},{"NoteNumber":80,"Velocity":45,"Duration":68870,"SoundDuration":68870,"Delta":172938437},{"NoteNumber":82,"Velocity":46,"Duration":68870,"SoundDuration":68870,"Delta":173007307},{"NoteNumber":80,"Velocity":46,"Duration":68870,"SoundDuration":68870,"Delta":173076178},{"NoteNumber":67,"Velocity":54,"Duration":206611,"SoundDuration":206611,"Delta":173145048},{"NoteNumber":62,"Velocity":37,"Duration":206611,"SoundDuration":206611,"Delta":173145048},{"NoteNumber":59,"Velocity":34,"Duration":206611,"SoundDuration":206611,"Delta":173145048},{"NoteNumber":79,"Velocity":43,"Duration":68870,"SoundDuration":68870,"Delta":173213919},{"NoteNumber":80,"Velocity":43,"Duration":68870,"SoundDuration":68870,"Delta":173282789},{"NoteNumber":79,"Velocity":43,"Duration":68870,"SoundDuration":68870,"Delta":173351660},{"NoteNumber":68,"Velocity":52,"Duration":211267,"SoundDuration":211267,"Delta":173420530},{"NoteNumber":62,"Velocity":37,"Duration":211267,"SoundDuration":211267,"Delta":173420530},{"NoteNumber":58,"Velocity":34,"Duration":211267,"SoundDuration":211267,"Delta":173420530},{"NoteNumber":80,"Velocity":41,"Duration":70422,"SoundDuration":70422,"Delta":173490953},{"NoteNumber":82,"Velocity":41,"Duration":70422,"SoundDuration":70422,"Delta":173561375},{"NoteNumber":80,"Velocity":41,"Duration":70422,"SoundDuration":70422,"Delta":173631798},{"NoteNumber":70,"Velocity":54,"Duration":288461,"SoundDuration":288461,"Delta":173702220},{"NoteNumber":39,"Velocity":43,"Duration":288461,"SoundDuration":288461,"Delta":173702220},{"NoteNumber":82,"Velocity":43,"Duration":72115,"SoundDuration":72115,"Delta":173774336},{"NoteNumber":83,"Velocity":43,"Duration":72115,"SoundDuration":72115,"Delta":173846451},{"NoteNumber":82,"Velocity":43,"Duration":72115,"SoundDuration":72115,"Delta":173918566},{"NoteNumber":63,"Velocity":49,"Duration":158730,"SoundDuration":158730,"Delta":173990682},{"NoteNumber":55,"Velocity":34,"Duration":317460,"SoundDuration":317460,"Delta":173990682},{"NoteNumber":58,"Velocity":37,"Duration":317460,"SoundDuration":317460,"Delta":173990682},{"NoteNumber":75,"Velocity":37,"Duration":79365,"SoundDuration":79365,"Delta":174070047},{"NoteNumber":76,"Velocity":37,"Duration":79365,"SoundDuration":79365,"Delta":174149412},{"NoteNumber":75,"Velocity":37,"Duration":79365,"SoundDuration":79365,"Delta":174228777},{"NoteNumber":75,"Velocity":59,"Duration":279069,"SoundDuration":279069,"Delta":174308142},{"NoteNumber":70,"Velocity":36,"Duration":279069,"SoundDuration":279069,"Delta":174308142},{"NoteNumber":67,"Velocity":33,"Duration":279069,"SoundDuration":279069,"Delta":174308142},{"NoteNumber":87,"Velocity":43,"Duration":69767,"SoundDuration":69767,"Delta":174377910},{"NoteNumber":88,"Velocity":43,"Duration":69767,"SoundDuration":69767,"Delta":174447677},{"NoteNumber":87,"Velocity":43,"Duration":69767,"SoundDuration":69767,"Delta":174517445},{"NoteNumber":87,"Velocity":64,"Duration":215038,"SoundDuration":215038,"Delta":174587212},{"NoteNumber":82,"Velocity":43,"Duration":285368,"SoundDuration":285368,"Delta":174587212},{"NoteNumber":79,"Velocity":37,"Duration":285368,"SoundDuration":285368,"Delta":174587212},{"NoteNumber":99,"Velocity":52,"Duration":70644,"SoundDuration":70644,"Delta":174656980},{"NoteNumber":100,"Velocity":52,"Duration":74626,"SoundDuration":74626,"Delta":174727624},{"NoteNumber":99,"Velocity":52,"Duration":70330,"SoundDuration":70330,"Delta":174802251},{"NoteNumber":87,"Velocity":63,"Duration":207373,"SoundDuration":207373,"Delta":174872581},{"NoteNumber":99,"Velocity":49,"Duration":69124,"SoundDuration":69124,"Delta":174941705},{"NoteNumber":100,"Velocity":49,"Duration":69124,"SoundDuration":69124,"Delta":175010829},{"NoteNumber":99,"Velocity":49,"Duration":69124,"SoundDuration":69124,"Delta":175079954},{"NoteNumber":85,"Velocity":63,"Duration":210280,"SoundDuration":210280,"Delta":175149078},{"NoteNumber":97,"Velocity":49,"Duration":70093,"SoundDuration":70093,"Delta":175219172},{"NoteNumber":99,"Velocity":49,"Duration":70093,"SoundDuration":70093,"Delta":175289265},{"NoteNumber":97,"Velocity":49,"Duration":70093,"SoundDuration":70093,"Delta":175359359},{"NoteNumber":84,"Velocity":62,"Duration":202702,"SoundDuration":202702,"Delta":175429452},{"NoteNumber":44,"Velocity":43,"Duration":270270,"SoundDuration":270270,"Delta":175429452},{"NoteNumber":96,"Velocity":50,"Duration":67567,"SoundDuration":67567,"Delta":175497020},{"NoteNumber":97,"Velocity":50,"Duration":67567,"SoundDuration":67567,"Delta":175564587},{"NoteNumber":96,"Velocity":50,"Duration":67567,"SoundDuration":67567,"Delta":175632155},{"NoteNumber":84,"Velocity":60,"Duration":202702,"SoundDuration":202702,"Delta":175699723},{"NoteNumber":66,"Velocity":40,"Duration":202702,"SoundDuration":202702,"Delta":175699723},{"NoteNumber":63,"Velocity":35,"Duration":202702,"SoundDuration":202702,"Delta":175699723},{"NoteNumber":57,"Velocity":35,"Duration":202702,"SoundDuration":202702,"Delta":175699723},{"NoteNumber":96,"Velocity":47,"Duration":67567,"SoundDuration":67567,"Delta":175767290},{"NoteNumber":97,"Velocity":47,"Duration":67567,"SoundDuration":67567,"Delta":175834858},{"NoteNumber":96,"Velocity":47,"Duration":67567,"SoundDuration":67567,"Delta":175902426},{"NoteNumber":81,"Velocity":59,"Duration":199999,"SoundDuration":199999,"Delta":175969993},{"NoteNumber":60,"Velocity":35,"Duration":199999,"SoundDuration":199999,"Delta":175969993},{"NoteNumber":63,"Velocity":35,"Duration":199999,"SoundDuration":199999,"Delta":175969993},{"NoteNumber":66,"Velocity":40,"Duration":199999,"SoundDuration":199999,"Delta":175969993},{"NoteNumber":93,"Velocity":46,"Duration":66666,"SoundDuration":66666,"Delta":176036660},{"NoteNumber":95,"Velocity":46,"Duration":66666,"SoundDuration":66666,"Delta":176103326},{"NoteNumber":93,"Velocity":46,"Duration":66666,"SoundDuration":66666,"Delta":176169993},{"NoteNumber":80,"Velocity":62,"Duration":202702,"SoundDuration":202702,"Delta":176236660},{"NoteNumber":48,"Velocity":43,"Duration":270270,"SoundDuration":270270,"Delta":176236660},{"NoteNumber":92,"Velocity":46,"Duration":67567,"SoundDuration":67567,"Delta":176304227},{"NoteNumber":93,"Velocity":46,"Duration":67567,"SoundDuration":67567,"Delta":176371795},{"NoteNumber":92,"Velocity":46,"Duration":67567,"SoundDuration":67567,"Delta":176439363},{"NoteNumber":80,"Velocity":59,"Duration":202702,"SoundDuration":202702,"Delta":176506930},{"NoteNumber":66,"Velocity":40,"Duration":202702,"SoundDuration":202702,"Delta":176506930},{"NoteNumber":63,"Velocity":35,"Duration":202702,"SoundDuration":202702,"Delta":176506930},{"NoteNumber":57,"Velocity":35,"Duration":202702,"SoundDuration":202702,"Delta":176506930},{"NoteNumber":92,"Velocity":45,"Duration":67567,"SoundDuration":67567,"Delta":176574498},{"NoteNumber":93,"Velocity":45,"Duration":67567,"SoundDuration":67567,"Delta":176642065},{"NoteNumber":92,"Velocity":45,"Duration":67567,"SoundDuration":67567,"Delta":176709633},{"NoteNumber":78,"Velocity":57,"Duration":206422,"SoundDuration":206422,"Delta":176777201},{"NoteNumber":60,"Velocity":35,"Duration":206422,"SoundDuration":206422,"Delta":176777201},{"NoteNumber":63,"Velocity":35,"Duration":206422,"SoundDuration":206422,"Delta":176777201},{"NoteNumber":66,"Velocity":40,"Duration":206422,"SoundDuration":206422,"Delta":176777201},{"NoteNumber":90,"Velocity":41,"Duration":68807,"SoundDuration":68807,"Delta":176846008},{"NoteNumber":92,"Velocity":41,"Duration":68807,"SoundDuration":68807,"Delta":176914815},{"NoteNumber":90,"Velocity":41,"Duration":68807,"SoundDuration":68807,"Delta":176983623},{"NoteNumber":76,"Velocity":55,"Duration":266666,"SoundDuration":266666,"Delta":177052430},{"NoteNumber":52,"Velocity":43,"Duration":266666,"SoundDuration":266666,"Delta":177052430},{"NoteNumber":88,"Velocity":44,"Duration":66666,"SoundDuration":66666,"Delta":177119097},{"NoteNumber":90,"Velocity":44,"Duration":66666,"SoundDuration":66666,"Delta":177185763},{"NoteNumber":88,"Velocity":44,"Duration":66666,"SoundDuration":66666,"Delta":177252430},{"NoteNumber":73,"Velocity":51,"Duration":266666,"SoundDuration":266666,"Delta":177319097},{"NoteNumber":64,"Velocity":32,"Duration":266666,"SoundDuration":266666,"Delta":177319097},{"NoteNumber":69,"Velocity":36,"Duration":266666,"SoundDuration":266666,"Delta":177319097},{"NoteNumber":85,"Velocity":40,"Duration":66666,"SoundDuration":66666,"Delta":177385763},{"NoteNumber":87,"Velocity":40,"Duration":66666,"SoundDuration":66666,"Delta":177452430},{"NoteNumber":85,"Velocity":40,"Duration":66666,"SoundDuration":66666,"Delta":177519097},{"NoteNumber":75,"Velocity":54,"Duration":263158,"SoundDuration":263158,"Delta":177585763},{"NoteNumber":60,"Velocity":35,"Duration":263158,"SoundDuration":263158,"Delta":177585763},{"NoteNumber":69,"Velocity":40,"Duration":263158,"SoundDuration":263158,"Delta":177585763},{"NoteNumber":87,"Velocity":41,"Duration":65789,"SoundDuration":65789,"Delta":177651553},{"NoteNumber":88,"Velocity":41,"Duration":65789,"SoundDuration":65789,"Delta":177717342},{"NoteNumber":87,"Velocity":41,"Duration":65789,"SoundDuration":65789,"Delta":177783132},{"NoteNumber":76,"Velocity":55,"Duration":266666,"SoundDuration":266666,"Delta":177848921},{"NoteNumber":61,"Velocity":39,"Duration":266666,"SoundDuration":266666,"Delta":177848921},{"NoteNumber":69,"Velocity":44,"Duration":266666,"SoundDuration":266666,"Delta":177848921},{"NoteNumber":88,"Velocity":45,"Duration":66666,"SoundDuration":66666,"Delta":177915588},{"NoteNumber":90,"Velocity":45,"Duration":66666,"SoundDuration":66666,"Delta":177982254},{"NoteNumber":88,"Velocity":45,"Duration":66666,"SoundDuration":66666,"Delta":178048921},{"NoteNumber":75,"Velocity":52,"Duration":266666,"SoundDuration":266666,"Delta":178115588},{"NoteNumber":66,"Velocity":34,"Duration":266666,"SoundDuration":266666,"Delta":178115588},{"NoteNumber":69,"Velocity":37,"Duration":266666,"SoundDuration":266666,"Delta":178115588},{"NoteNumber":87,"Velocity":40,"Duration":66666,"SoundDuration":66666,"Delta":178182254},{"NoteNumber":88,"Velocity":40,"Duration":66666,"SoundDuration":66666,"Delta":178248921},{"NoteNumber":87,"Velocity":40,"Duration":66666,"SoundDuration":66666,"Delta":178315588},{"NoteNumber":73,"Velocity":49,"Duration":266089,"SoundDuration":266089,"Delta":178382254},{"NoteNumber":64,"Velocity":32,"Duration":266089,"SoundDuration":266089,"Delta":178382254},{"NoteNumber":69,"Velocity":36,"Duration":266089,"SoundDuration":266089,"Delta":178382254},{"NoteNumber":85,"Velocity":37,"Duration":66666,"SoundDuration":66666,"Delta":178448921},{"NoteNumber":87,"Velocity":37,"Duration":66666,"SoundDuration":66666,"Delta":178515587},{"NoteNumber":85,"Velocity":37,"Duration":66089,"SoundDuration":66089,"Delta":178582254},{"NoteNumber":75,"Velocity":43,"Duration":64935,"SoundDuration":64935,"Delta":178644015},{"NoteNumber":71,"Velocity":44,"Duration":259180,"SoundDuration":259180,"Delta":178648344},{"NoteNumber":68,"Velocity":39,"Duration":259180,"SoundDuration":259180,"Delta":178648344},{"NoteNumber":63,"Velocity":39,"Duration":259180,"SoundDuration":259180,"Delta":178648344},{"NoteNumber":87,"Velocity":43,"Duration":64930,"SoundDuration":64930,"Delta":178714361},{"NoteNumber":76,"Velocity":44,"Duration":64655,"SoundDuration":64655,"Delta":178782524},{"NoteNumber":77,"Velocity":44,"Duration":64655,"SoundDuration":64655,"Delta":178848257},{"NoteNumber":78,"Velocity":45,"Duration":64484,"SoundDuration":64484,"Delta":178904291},{"NoteNumber":79,"Velocity":45,"Duration":64377,"SoundDuration":64377,"Delta":178975213},{"NoteNumber":80,"Velocity":45,"Duration":64185,"SoundDuration":64185,"Delta":179038518},{"NoteNumber":81,"Velocity":45,"Duration":64102,"SoundDuration":64102,"Delta":179102703},{"NoteNumber":82,"Velocity":46,"Duration":63988,"SoundDuration":63988,"Delta":179170011},{"NoteNumber":83,"Velocity":47,"Duration":63829,"SoundDuration":63829,"Delta":179228680},{"NoteNumber":84,"Velocity":47,"Duration":63717,"SoundDuration":63717,"Delta":179297829},{"NoteNumber":85,"Velocity":49,"Duration":63559,"SoundDuration":63559,"Delta":179358368},{"NoteNumber":86,"Velocity":49,"Duration":63559,"SoundDuration":63559,"Delta":179415572},{"NoteNumber":87,"Velocity":50,"Duration":63291,"SoundDuration":63291,"Delta":179484423},{"NoteNumber":88,"Velocity":50,"Duration":63286,"SoundDuration":63286,"Delta":179547714},{"NoteNumber":89,"Velocity":51,"Duration":63029,"SoundDuration":63029,"Delta":179608896},{"NoteNumber":90,"Velocity":52,"Duration":63025,"SoundDuration":63025,"Delta":179678228},{"NoteNumber":91,"Velocity":52,"Duration":62849,"SoundDuration":62849,"Delta":179736001},{"NoteNumber":92,"Velocity":54,"Duration":62761,"SoundDuration":62761,"Delta":179799897},{"NoteNumber":93,"Velocity":54,"Duration":62587,"SoundDuration":62587,"Delta":179861612},{"NoteNumber":94,"Velocity":54,"Duration":62500,"SoundDuration":62500,"Delta":179921074},{"NoteNumber":95,"Velocity":54,"Duration":62417,"SoundDuration":62417,"Delta":179985658},{"NoteNumber":96,"Velocity":55,"Duration":62240,"SoundDuration":62240,"Delta":180047038},{"NoteNumber":97,"Velocity":56,"Duration":62176,"SoundDuration":62176,"Delta":180106167},{"NoteNumber":67,"Velocity":46,"Duration":239044,"SoundDuration":239044,"Delta":180173508},{"NoteNumber":61,"Velocity":42,"Duration":239044,"SoundDuration":239044,"Delta":180173508},{"NoteNumber":51,"Velocity":42,"Duration":239044,"SoundDuration":239044,"Delta":180173508},{"NoteNumber":98,"Velocity":57,"Duration":69721,"SoundDuration":69721,"Delta":180176496},{"NoteNumber":99,"Velocity":59,"Duration":69721,"SoundDuration":69721,"Delta":180240242},{"NoteNumber":102,"Velocity":63,"Duration":64741,"SoundDuration":64741,"Delta":180307971},{"NoteNumber":100,"Velocity":62,"Duration":64741,"SoundDuration":64741,"Delta":180376696},{"NoteNumber":97,"Velocity":61,"Duration":64741,"SoundDuration":64741,"Delta":180443429},{"NoteNumber":94,"Velocity":60,"Duration":64741,"SoundDuration":64741,"Delta":180502194},{"NoteNumber":91,"Velocity":57,"Duration":64741,"SoundDuration":64741,"Delta":180568927},{"NoteNumber":86,"Velocity":56,"Duration":64741,"SoundDuration":64741,"Delta":180632672},{"NoteNumber":87,"Velocity":55,"Duration":64741,"SoundDuration":64741,"Delta":180703389},{"NoteNumber":90,"Velocity":61,"Duration":64741,"SoundDuration":64741,"Delta":180765142},{"NoteNumber":88,"Velocity":60,"Duration":64741,"SoundDuration":64741,"Delta":180831875},{"NoteNumber":85,"Velocity":59,"Duration":64741,"SoundDuration":64741,"Delta":180897613},{"NoteNumber":82,"Velocity":57,"Duration":64741,"SoundDuration":64741,"Delta":180959366},{"NoteNumber":79,"Velocity":60,"Duration":64741,"SoundDuration":64741,"Delta":181027095},{"NoteNumber":76,"Velocity":55,"Duration":64741,"SoundDuration":64741,"Delta":181088848},{"NoteNumber":73,"Velocity":54,"Duration":64741,"SoundDuration":64741,"Delta":181158569},{"NoteNumber":70,"Velocity":51,"Duration":64741,"SoundDuration":64741,"Delta":181220322},{"NoteNumber":67,"Velocity":49,"Duration":64741,"SoundDuration":64741,"Delta":181281079},{"NoteNumber":64,"Velocity":47,"Duration":65728,"SoundDuration":65728,"Delta":181353788},{"NoteNumber":61,"Velocity":45,"Duration":71163,"SoundDuration":71163,"Delta":181418471},{"NoteNumber":58,"Velocity":44,"Duration":77803,"SoundDuration":77803,"Delta":181483927},{"NoteNumber":55,"Velocity":41,"Duration":89351,"SoundDuration":89351,"Delta":181569230},{"NoteNumber":44,"Velocity":41,"Duration":142857,"SoundDuration":142857,"Delta":181649653},{"NoteNumber":51,"Velocity":41,"Duration":85470,"SoundDuration":85470,"Delta":181792510},{"NoteNumber":56,"Velocity":41,"Duration":85470,"SoundDuration":85470,"Delta":181877980},{"NoteNumber":59,"Velocity":41,"Duration":85470,"SoundDuration":85470,"Delta":181963450},{"NoteNumber":63,"Velocity":41,"Duration":85470,"SoundDuration":85470,"Delta":182048920},{"NoteNumber":68,"Velocity":41,"Duration":85470,"SoundDuration":85470,"Delta":182134390},{"NoteNumber":71,"Velocity":41,"Duration":85470,"SoundDuration":85470,"Delta":182219861},{"NoteNumber":75,"Velocity":41,"Duration":85470,"SoundDuration":85470,"Delta":182305331},{"NoteNumber":80,"Velocity":41,"Duration":85470,"SoundDuration":85470,"Delta":182390801},{"NoteNumber":71,"Velocity":41,"Duration":85110,"SoundDuration":85110,"Delta":182476271},{"NoteNumber":75,"Velocity":41,"Duration":87437,"SoundDuration":87437,"Delta":182561381},{"NoteNumber":83,"Velocity":45,"Duration":97087,"SoundDuration":97087,"Delta":182648819},{"NoteNumber":80,"Velocity":40,"Duration":335528,"SoundDuration":335528,"Delta":182745907},{"NoteNumber":83,"Velocity":37,"Duration":97826,"SoundDuration":97826,"Delta":183271333},{"NoteNumber":71,"Velocity":37,"Duration":97826,"SoundDuration":97826,"Delta":183271333},{"NoteNumber":68,"Velocity":33,"Duration":97826,"SoundDuration":97826,"Delta":183271333},{"NoteNumber":83,"Velocity":41,"Duration":97826,"SoundDuration":97826,"Delta":183401767},{"NoteNumber":71,"Velocity":41,"Duration":97826,"SoundDuration":97826,"Delta":183401767},{"NoteNumber":67,"Velocity":36,"Duration":97826,"SoundDuration":97826,"Delta":183401767},{"NoteNumber":70,"Velocity":36,"Duration":97826,"SoundDuration":97826,"Delta":183401767},{"NoteNumber":83,"Velocity":45,"Duration":97826,"SoundDuration":97826,"Delta":183532202},{"NoteNumber":71,"Velocity":45,"Duration":97826,"SoundDuration":97826,"Delta":183532202},{"NoteNumber":66,"Velocity":37,"Duration":97826,"SoundDuration":97826,"Delta":183532202},{"NoteNumber":69,"Velocity":37,"Duration":97826,"SoundDuration":97826,"Delta":183532202},{"NoteNumber":71,"Velocity":47,"Duration":97826,"SoundDuration":97826,"Delta":183662637},{"NoteNumber":83,"Velocity":47,"Duration":97826,"SoundDuration":97826,"Delta":183662637},{"NoteNumber":65,"Velocity":41,"Duration":97826,"SoundDuration":97826,"Delta":183662637},{"NoteNumber":68,"Velocity":41,"Duration":97826,"SoundDuration":97826,"Delta":183662637},{"NoteNumber":83,"Velocity":51,"Duration":102272,"SoundDuration":102272,"Delta":183793072},{"NoteNumber":71,"Velocity":51,"Duration":102272,"SoundDuration":102272,"Delta":183793072},{"NoteNumber":64,"Velocity":45,"Duration":102272,"SoundDuration":102272,"Delta":183793072},{"NoteNumber":67,"Velocity":45,"Duration":102272,"SoundDuration":102272,"Delta":183793072},{"NoteNumber":83,"Velocity":66,"Duration":101351,"SoundDuration":101351,"Delta":183929435},{"NoteNumber":47,"Velocity":47,"Duration":101351,"SoundDuration":101351,"Delta":183929435},{"NoteNumber":66,"Velocity":49,"Duration":98253,"SoundDuration":98253,"Delta":184064571},{"NoteNumber":63,"Velocity":34,"Duration":98253,"SoundDuration":98253,"Delta":184064571},{"NoteNumber":71,"Velocity":50,"Duration":94936,"SoundDuration":94936,"Delta":184195575},{"NoteNumber":78,"Velocity":60,"Duration":94936,"SoundDuration":94936,"Delta":184195575},{"NoteNumber":54,"Velocity":32,"Duration":94936,"SoundDuration":94936,"Delta":184195575},{"NoteNumber":59,"Velocity":44,"Duration":94936,"SoundDuration":94936,"Delta":184195575},{"NoteNumber":66,"Velocity":49,"Duration":99557,"SoundDuration":99557,"Delta":184322157},{"NoteNumber":63,"Velocity":34,"Duration":99557,"SoundDuration":99557,"Delta":184322157},{"NoteNumber":83,"Velocity":64,"Duration":96982,"SoundDuration":96982,"Delta":184454900},{"NoteNumber":47,"Velocity":44,"Duration":96982,"SoundDuration":96982,"Delta":184454900},{"NoteNumber":66,"Velocity":49,"Duration":96982,"SoundDuration":96982,"Delta":184584211},{"NoteNumber":63,"Velocity":34,"Duration":96982,"SoundDuration":96982,"Delta":184584211},{"NoteNumber":85,"Velocity":71,"Duration":96982,"SoundDuration":96982,"Delta":184713521},{"NoteNumber":42,"Velocity":45,"Duration":96982,"SoundDuration":96982,"Delta":184713521},{"NoteNumber":66,"Velocity":49,"Duration":96982,"SoundDuration":96982,"Delta":184842831},{"NoteNumber":64,"Velocity":33,"Duration":96982,"SoundDuration":96982,"Delta":184842831},{"NoteNumber":73,"Velocity":54,"Duration":96982,"SoundDuration":96982,"Delta":184972141},{"NoteNumber":78,"Velocity":64,"Duration":96982,"SoundDuration":96982,"Delta":184972141},{"NoteNumber":54,"Velocity":34,"Duration":96982,"SoundDuration":96982,"Delta":184972141},{"NoteNumber":58,"Velocity":45,"Duration":96982,"SoundDuration":96982,"Delta":184972141},{"NoteNumber":66,"Velocity":49,"Duration":99557,"SoundDuration":99557,"Delta":185101452},{"NoteNumber":64,"Velocity":36,"Duration":99557,"SoundDuration":99557,"Delta":185101452},{"NoteNumber":85,"Velocity":70,"Duration":94142,"SoundDuration":94142,"Delta":185233257},{"NoteNumber":42,"Velocity":46,"Duration":94142,"SoundDuration":94142,"Delta":185233257},{"NoteNumber":66,"Velocity":50,"Duration":94142,"SoundDuration":94142,"Delta":185358780},{"NoteNumber":64,"Velocity":36,"Duration":94142,"SoundDuration":94142,"Delta":185358780},{"NoteNumber":87,"Velocity":73,"Duration":133333,"SoundDuration":133333,"Delta":185484303},{"NoteNumber":47,"Velocity":47,"Duration":133333,"SoundDuration":133333,"Delta":185484303},{"NoteNumber":66,"Velocity":60,"Duration":96021,"SoundDuration":96021,"Delta":185617637},{"NoteNumber":63,"Velocity":39,"Duration":96021,"SoundDuration":96021,"Delta":185617637},{"NoteNumber":75,"Velocity":60,"Duration":94672,"SoundDuration":94672,"Delta":185745483},{"NoteNumber":54,"Velocity":39,"Duration":94672,"SoundDuration":94672,"Delta":185745483},{"NoteNumber":83,"Velocity":59,"Duration":92891,"SoundDuration":92891,"Delta":185871449},{"NoteNumber":47,"Velocity":37,"Duration":92891,"SoundDuration":92891,"Delta":185871449},{"NoteNumber":87,"Velocity":57,"Duration":91463,"SoundDuration":91463,"Delta":185994994},{"NoteNumber":42,"Velocity":36,"Duration":91463,"SoundDuration":91463,"Delta":185994994},{"NoteNumber":95,"Velocity":62,"Duration":91463,"SoundDuration":91463,"Delta":186116945},{"NoteNumber":35,"Velocity":36,"Duration":91463,"SoundDuration":91463,"Delta":186116945},{"NoteNumber":87,"Velocity":37,"Duration":95744,"SoundDuration":95744,"Delta":186395147},{"NoteNumber":75,"Velocity":37,"Duration":95744,"SoundDuration":95744,"Delta":186395147},{"NoteNumber":71,"Velocity":33,"Duration":95744,"SoundDuration":95744,"Delta":186395147},{"NoteNumber":87,"Velocity":41,"Duration":95744,"SoundDuration":95744,"Delta":186522806},{"NoteNumber":75,"Velocity":41,"Duration":95744,"SoundDuration":95744,"Delta":186522806},{"NoteNumber":71,"Velocity":36,"Duration":95744,"SoundDuration":95744,"Delta":186522806},{"NoteNumber":74,"Velocity":36,"Duration":95744,"SoundDuration":95744,"Delta":186522806},{"NoteNumber":87,"Velocity":45,"Duration":95744,"SoundDuration":95744,"Delta":186650466},{"NoteNumber":75,"Velocity":45,"Duration":95744,"SoundDuration":95744,"Delta":186650466},{"NoteNumber":70,"Velocity":37,"Duration":95744,"SoundDuration":95744,"Delta":186650466},{"NoteNumber":73,"Velocity":37,"Duration":95744,"SoundDuration":95744,"Delta":186650466},{"NoteNumber":87,"Velocity":47,"Duration":95744,"SoundDuration":95744,"Delta":186778125},{"NoteNumber":75,"Velocity":47,"Duration":95744,"SoundDuration":95744,"Delta":186778125},{"NoteNumber":69,"Velocity":41,"Duration":95744,"SoundDuration":95744,"Delta":186778125},{"NoteNumber":72,"Velocity":41,"Duration":95744,"SoundDuration":95744,"Delta":186778125},{"NoteNumber":87,"Velocity":51,"Duration":99118,"SoundDuration":99118,"Delta":186905876},{"NoteNumber":75,"Velocity":51,"Duration":99118,"SoundDuration":99118,"Delta":186905876},{"NoteNumber":68,"Velocity":45,"Duration":99118,"SoundDuration":99118,"Delta":186905876},{"NoteNumber":71,"Velocity":45,"Duration":99118,"SoundDuration":99118,"Delta":186905876},{"NoteNumber":87,"Velocity":70,"Duration":99118,"SoundDuration":99118,"Delta":187038034},{"NoteNumber":51,"Velocity":47,"Duration":99118,"SoundDuration":99118,"Delta":187038034},{"NoteNumber":70,"Velocity":49,"Duration":98253,"SoundDuration":98253,"Delta":187170193},{"NoteNumber":66,"Velocity":34,"Duration":98253,"SoundDuration":98253,"Delta":187170193},{"NoteNumber":75,"Velocity":50,"Duration":94936,"SoundDuration":94936,"Delta":187301197},{"NoteNumber":82,"Velocity":60,"Duration":94936,"SoundDuration":94936,"Delta":187301197},{"NoteNumber":58,"Velocity":32,"Duration":94936,"SoundDuration":94936,"Delta":187301197},{"NoteNumber":63,"Velocity":44,"Duration":94936,"SoundDuration":94936,"Delta":187301197},{"NoteNumber":70,"Velocity":49,"Duration":99557,"SoundDuration":99557,"Delta":187427779},{"NoteNumber":66,"Velocity":34,"Duration":99557,"SoundDuration":99557,"Delta":187427779},{"NoteNumber":87,"Velocity":70,"Duration":96982,"SoundDuration":96982,"Delta":187560522},{"NoteNumber":51,"Velocity":44,"Duration":96982,"SoundDuration":96982,"Delta":187560522},{"NoteNumber":70,"Velocity":49,"Duration":96982,"SoundDuration":96982,"Delta":187689833},{"NoteNumber":66,"Velocity":34,"Duration":96982,"SoundDuration":96982,"Delta":187689833},{"NoteNumber":89,"Velocity":76,"Duration":96982,"SoundDuration":96982,"Delta":187819143},{"NoteNumber":46,"Velocity":45,"Duration":96982,"SoundDuration":96982,"Delta":187819143},{"NoteNumber":70,"Velocity":49,"Duration":96982,"SoundDuration":96982,"Delta":187948453},{"NoteNumber":68,"Velocity":33,"Duration":96982,"SoundDuration":96982,"Delta":187948453},{"NoteNumber":77,"Velocity":54,"Duration":96982,"SoundDuration":96982,"Delta":188077763},{"NoteNumber":82,"Velocity":64,"Duration":96982,"SoundDuration":96982,"Delta":188077763},{"NoteNumber":58,"Velocity":34,"Duration":96982,"SoundDuration":96982,"Delta":188077763},{"NoteNumber":62,"Velocity":45,"Duration":96982,"SoundDuration":96982,"Delta":188077763},{"NoteNumber":70,"Velocity":49,"Duration":99557,"SoundDuration":99557,"Delta":188207074},{"NoteNumber":68,"Velocity":36,"Duration":99557,"SoundDuration":99557,"Delta":188207074},{"NoteNumber":89,"Velocity":72,"Duration":94142,"SoundDuration":94142,"Delta":188338879},{"NoteNumber":46,"Velocity":46,"Duration":94142,"SoundDuration":94142,"Delta":188338879},{"NoteNumber":70,"Velocity":50,"Duration":94142,"SoundDuration":94142,"Delta":188464402},{"NoteNumber":68,"Velocity":36,"Duration":94142,"SoundDuration":94142,"Delta":188464402},{"NoteNumber":90,"Velocity":79,"Duration":133333,"SoundDuration":133333,"Delta":188589925},{"NoteNumber":51,"Velocity":47,"Duration":133333,"SoundDuration":133333,"Delta":188589925},{"NoteNumber":70,"Velocity":60,"Duration":96021,"SoundDuration":96021,"Delta":188723259},{"NoteNumber":66,"Velocity":39,"Duration":96021,"SoundDuration":96021,"Delta":188723259},{"NoteNumber":78,"Velocity":60,"Duration":94672,"SoundDuration":94672,"Delta":188851105},{"NoteNumber":58,"Velocity":39,"Duration":94672,"SoundDuration":94672,"Delta":188851105},{"NoteNumber":87,"Velocity":59,"Duration":92891,"SoundDuration":92891,"Delta":188977071},{"NoteNumber":51,"Velocity":37,"Duration":92891,"SoundDuration":92891,"Delta":188977071},{"NoteNumber":90,"Velocity":59,"Duration":91463,"SoundDuration":91463,"Delta":189100616},{"NoteNumber":46,"Velocity":37,"Duration":91463,"SoundDuration":91463,"Delta":189100616},{"NoteNumber":99,"Velocity":62,"Duration":91463,"SoundDuration":91463,"Delta":189222568},{"NoteNumber":39,"Velocity":36,"Duration":91463,"SoundDuration":91463,"Delta":189222568},{"NoteNumber":90,"Velocity":37,"Duration":95744,"SoundDuration":95744,"Delta":189500769},{"NoteNumber":78,"Velocity":37,"Duration":95744,"SoundDuration":95744,"Delta":189500769},{"NoteNumber":75,"Velocity":33,"Duration":95744,"SoundDuration":95744,"Delta":189500769},{"NoteNumber":90,"Velocity":41,"Duration":95744,"SoundDuration":95744,"Delta":189628428},{"NoteNumber":78,"Velocity":41,"Duration":95744,"SoundDuration":95744,"Delta":189628428},{"NoteNumber":74,"Velocity":36,"Duration":95744,"SoundDuration":95744,"Delta":189628428},{"NoteNumber":77,"Velocity":36,"Duration":95744,"SoundDuration":95744,"Delta":189628428},{"NoteNumber":90,"Velocity":45,"Duration":95744,"SoundDuration":95744,"Delta":189756088},{"NoteNumber":78,"Velocity":45,"Duration":95744,"SoundDuration":95744,"Delta":189756088},{"NoteNumber":73,"Velocity":37,"Duration":95744,"SoundDuration":95744,"Delta":189756088},{"NoteNumber":76,"Velocity":37,"Duration":95744,"SoundDuration":95744,"Delta":189756088},{"NoteNumber":90,"Velocity":47,"Duration":95744,"SoundDuration":95744,"Delta":189883747},{"NoteNumber":78,"Velocity":47,"Duration":95744,"SoundDuration":95744,"Delta":189883747},{"NoteNumber":72,"Velocity":41,"Duration":95744,"SoundDuration":95744,"Delta":189883747},{"NoteNumber":75,"Velocity":41,"Duration":95744,"SoundDuration":95744,"Delta":189883747},{"NoteNumber":90,"Velocity":51,"Duration":99118,"SoundDuration":99118,"Delta":190011498},{"NoteNumber":78,"Velocity":51,"Duration":99118,"SoundDuration":99118,"Delta":190011498},{"NoteNumber":71,"Velocity":45,"Duration":99118,"SoundDuration":99118,"Delta":190011498},{"NoteNumber":74,"Velocity":45,"Duration":99118,"SoundDuration":99118,"Delta":190011498},{"NoteNumber":90,"Velocity":70,"Duration":99118,"SoundDuration":99118,"Delta":190143656},{"NoteNumber":54,"Velocity":47,"Duration":99118,"SoundDuration":99118,"Delta":190143656},{"NoteNumber":73,"Velocity":49,"Duration":98253,"SoundDuration":98253,"Delta":190275815},{"NoteNumber":70,"Velocity":34,"Duration":98253,"SoundDuration":98253,"Delta":190275815},{"NoteNumber":78,"Velocity":50,"Duration":94936,"SoundDuration":94936,"Delta":190406819},{"NoteNumber":85,"Velocity":60,"Duration":94936,"SoundDuration":94936,"Delta":190406819},{"NoteNumber":61,"Velocity":32,"Duration":94936,"SoundDuration":94936,"Delta":190406819},{"NoteNumber":66,"Velocity":44,"Duration":94936,"SoundDuration":94936,"Delta":190406819},{"NoteNumber":73,"Velocity":49,"Duration":99557,"SoundDuration":99557,"Delta":190533401},{"NoteNumber":70,"Velocity":34,"Duration":99557,"SoundDuration":99557,"Delta":190533401},{"NoteNumber":90,"Velocity":70,"Duration":96982,"SoundDuration":96982,"Delta":190666145},{"NoteNumber":54,"Velocity":44,"Duration":96982,"SoundDuration":96982,"Delta":190666145},{"NoteNumber":73,"Velocity":49,"Duration":96982,"SoundDuration":96982,"Delta":190795455},{"NoteNumber":70,"Velocity":34,"Duration":96982,"SoundDuration":96982,"Delta":190795455},{"NoteNumber":92,"Velocity":76,"Duration":96982,"SoundDuration":96982,"Delta":190924765},{"NoteNumber":49,"Velocity":45,"Duration":96982,"SoundDuration":96982,"Delta":190924765},{"NoteNumber":73,"Velocity":49,"Duration":96982,"SoundDuration":96982,"Delta":191054075},{"NoteNumber":71,"Velocity":33,"Duration":96982,"SoundDuration":96982,"Delta":191054075},{"NoteNumber":80,"Velocity":54,"Duration":96982,"SoundDuration":96982,"Delta":191183386},{"NoteNumber":85,"Velocity":64,"Duration":96982,"SoundDuration":96982,"Delta":191183386},{"NoteNumber":61,"Velocity":34,"Duration":96982,"SoundDuration":96982,"Delta":191183386},{"NoteNumber":65,"Velocity":45,"Duration":96982,"SoundDuration":96982,"Delta":191183386},{"NoteNumber":73,"Velocity":49,"Duration":99557,"SoundDuration":99557,"Delta":191312696},{"NoteNumber":71,"Velocity":36,"Duration":99557,"SoundDuration":99557,"Delta":191312696},{"NoteNumber":92,"Velocity":72,"Duration":94142,"SoundDuration":94142,"Delta":191444502},{"NoteNumber":49,"Velocity":46,"Duration":94142,"SoundDuration":94142,"Delta":191444502},{"NoteNumber":73,"Velocity":50,"Duration":94142,"SoundDuration":94142,"Delta":191570025},{"NoteNumber":71,"Velocity":36,"Duration":94142,"SoundDuration":94142,"Delta":191570025},{"NoteNumber":94,"Velocity":44,"Duration":95564,"SoundDuration":95564,"Delta":191695814},{"NoteNumber":90,"Velocity":44,"Duration":95564,"SoundDuration":95564,"Delta":191695814},{"NoteNumber":85,"Velocity":44,"Duration":95564,"SoundDuration":95564,"Delta":191695814},{"NoteNumber":54,"Velocity":46,"Duration":256473,"SoundDuration":256473,"Delta":191695814},{"NoteNumber":95,"Velocity":47,"Duration":96429,"SoundDuration":96429,"Delta":191823384},{"NoteNumber":92,"Velocity":47,"Duration":96429,"SoundDuration":96429,"Delta":191823384},{"NoteNumber":85,"Velocity":47,"Duration":96429,"SoundDuration":96429,"Delta":191823384},{"NoteNumber":97,"Velocity":52,"Duration":97639,"SoundDuration":97639,"Delta":191952287},{"NoteNumber":94,"Velocity":52,"Duration":97639,"SoundDuration":97639,"Delta":191952287},{"NoteNumber":85,"Velocity":52,"Duration":97639,"SoundDuration":97639,"Delta":191952287},{"NoteNumber":61,"Velocity":45,"Duration":97639,"SoundDuration":97639,"Delta":191952287},{"NoteNumber":97,"Velocity":52,"Duration":97639,"SoundDuration":97639,"Delta":192082472},{"NoteNumber":94,"Velocity":52,"Duration":97639,"SoundDuration":97639,"Delta":192082472},{"NoteNumber":85,"Velocity":52,"Duration":97639,"SoundDuration":97639,"Delta":192082472},{"NoteNumber":70,"Velocity":45,"Duration":97639,"SoundDuration":97639,"Delta":192082472},{"NoteNumber":95,"Velocity":50,"Duration":94387,"SoundDuration":94387,"Delta":192212658},{"NoteNumber":92,"Velocity":50,"Duration":94387,"SoundDuration":94387,"Delta":192212658},{"NoteNumber":85,"Velocity":50,"Duration":94387,"SoundDuration":94387,"Delta":192212658},{"NoteNumber":78,"Velocity":43,"Duration":94387,"SoundDuration":94387,"Delta":192212658},{"NoteNumber":94,"Velocity":47,"Duration":94387,"SoundDuration":94387,"Delta":192338508},{"NoteNumber":90,"Velocity":47,"Duration":94387,"SoundDuration":94387,"Delta":192338508},{"NoteNumber":85,"Velocity":47,"Duration":94387,"SoundDuration":94387,"Delta":192338508},{"NoteNumber":82,"Velocity":41,"Duration":94387,"SoundDuration":94387,"Delta":192338508},{"NoteNumber":92,"Velocity":46,"Duration":94981,"SoundDuration":94981,"Delta":192464357},{"NoteNumber":87,"Velocity":46,"Duration":94981,"SoundDuration":94981,"Delta":192464357},{"NoteNumber":83,"Velocity":46,"Duration":94981,"SoundDuration":94981,"Delta":192464357},{"NoteNumber":47,"Velocity":40,"Duration":254240,"SoundDuration":254240,"Delta":192464357},{"NoteNumber":94,"Velocity":50,"Duration":95564,"SoundDuration":95564,"Delta":192591118},{"NoteNumber":87,"Velocity":50,"Duration":95564,"SoundDuration":95564,"Delta":192591118},{"NoteNumber":85,"Velocity":50,"Duration":95564,"SoundDuration":95564,"Delta":192591118},{"NoteNumber":87,"Velocity":54,"Duration":96153,"SoundDuration":96153,"Delta":192718597},{"NoteNumber":95,"Velocity":54,"Duration":96153,"SoundDuration":96153,"Delta":192718597},{"NoteNumber":59,"Velocity":43,"Duration":96153,"SoundDuration":96153,"Delta":192718597},{"NoteNumber":95,"Velocity":54,"Duration":96153,"SoundDuration":96153,"Delta":192846803},{"NoteNumber":87,"Velocity":54,"Duration":96153,"SoundDuration":96153,"Delta":192846803},{"NoteNumber":68,"Velocity":41,"Duration":96153,"SoundDuration":96153,"Delta":192846803},{"NoteNumber":94,"Velocity":47,"Duration":93360,"SoundDuration":93360,"Delta":192975008},{"NoteNumber":87,"Velocity":47,"Duration":93360,"SoundDuration":93360,"Delta":192975008},{"NoteNumber":85,"Velocity":47,"Duration":93360,"SoundDuration":93360,"Delta":192975008},{"NoteNumber":75,"Velocity":41,"Duration":93360,"SoundDuration":93360,"Delta":192975008},{"NoteNumber":92,"Velocity":45,"Duration":93360,"SoundDuration":93360,"Delta":193099489},{"NoteNumber":87,"Velocity":45,"Duration":93360,"SoundDuration":93360,"Delta":193099489},{"NoteNumber":83,"Velocity":45,"Duration":93360,"SoundDuration":93360,"Delta":193099489},{"NoteNumber":80,"Velocity":40,"Duration":93360,"SoundDuration":93360,"Delta":193099489},{"NoteNumber":90,"Velocity":45,"Duration":93880,"SoundDuration":93880,"Delta":193223970},{"NoteNumber":85,"Velocity":45,"Duration":93880,"SoundDuration":93880,"Delta":193223970},{"NoteNumber":82,"Velocity":45,"Duration":93880,"SoundDuration":93880,"Delta":193223970},{"NoteNumber":49,"Velocity":45,"Duration":251933,"SoundDuration":251933,"Delta":193223970},{"NoteNumber":83,"Velocity":47,"Duration":94804,"SoundDuration":94804,"Delta":193349320},{"NoteNumber":85,"Velocity":47,"Duration":94804,"SoundDuration":94804,"Delta":193349320},{"NoteNumber":92,"Velocity":47,"Duration":94804,"SoundDuration":94804,"Delta":193349320},{"NoteNumber":94,"Velocity":52,"Duration":95744,"SoundDuration":95744,"Delta":193475904},{"NoteNumber":85,"Velocity":52,"Duration":95744,"SoundDuration":95744,"Delta":193475904},{"NoteNumber":58,"Velocity":43,"Duration":95744,"SoundDuration":95744,"Delta":193475904},{"NoteNumber":85,"Velocity":52,"Duration":95744,"SoundDuration":95744,"Delta":193603563},{"NoteNumber":94,"Velocity":52,"Duration":95744,"SoundDuration":95744,"Delta":193603563},{"NoteNumber":66,"Velocity":41,"Duration":95744,"SoundDuration":95744,"Delta":193603563},{"NoteNumber":85,"Velocity":49,"Duration":93360,"SoundDuration":93360,"Delta":193731223},{"NoteNumber":83,"Velocity":49,"Duration":93360,"SoundDuration":93360,"Delta":193731223},{"NoteNumber":92,"Velocity":49,"Duration":93360,"SoundDuration":93360,"Delta":193731223},{"NoteNumber":73,"Velocity":40,"Duration":93360,"SoundDuration":93360,"Delta":193731223},{"NoteNumber":90,"Velocity":46,"Duration":93360,"SoundDuration":93360,"Delta":193855704},{"NoteNumber":85,"Velocity":46,"Duration":93360,"SoundDuration":93360,"Delta":193855704},{"NoteNumber":82,"Velocity":46,"Duration":93360,"SoundDuration":93360,"Delta":193855704},{"NoteNumber":78,"Velocity":37,"Duration":93360,"SoundDuration":93360,"Delta":193855704},{"NoteNumber":80,"Velocity":45,"Duration":92848,"SoundDuration":92848,"Delta":193980185},{"NoteNumber":85,"Velocity":45,"Duration":92848,"SoundDuration":92848,"Delta":193980185},{"NoteNumber":89,"Velocity":45,"Duration":92848,"SoundDuration":92848,"Delta":193980185},{"NoteNumber":61,"Velocity":47,"Duration":249756,"SoundDuration":249756,"Delta":193980185},{"NoteNumber":90,"Velocity":46,"Duration":94186,"SoundDuration":94186,"Delta":194104154},{"NoteNumber":85,"Velocity":46,"Duration":94186,"SoundDuration":94186,"Delta":194104154},{"NoteNumber":82,"Velocity":46,"Duration":94186,"SoundDuration":94186,"Delta":194104154},{"NoteNumber":83,"Velocity":50,"Duration":95339,"SoundDuration":95339,"Delta":194229942},{"NoteNumber":85,"Velocity":50,"Duration":95339,"SoundDuration":95339,"Delta":194229942},{"NoteNumber":92,"Velocity":50,"Duration":95339,"SoundDuration":95339,"Delta":194229942},{"NoteNumber":77,"Velocity":43,"Duration":95339,"SoundDuration":95339,"Delta":194229942},{"NoteNumber":83,"Velocity":50,"Duration":95339,"SoundDuration":95339,"Delta":194357060},{"NoteNumber":85,"Velocity":50,"Duration":95339,"SoundDuration":95339,"Delta":194357060},{"NoteNumber":92,"Velocity":50,"Duration":95339,"SoundDuration":95339,"Delta":194357060},{"NoteNumber":68,"Velocity":41,"Duration":95339,"SoundDuration":95339,"Delta":194357060},{"NoteNumber":78,"Velocity":47,"Duration":94792,"SoundDuration":94792,"Delta":194484179},{"NoteNumber":87,"Velocity":47,"Duration":94792,"SoundDuration":94792,"Delta":194484179},{"NoteNumber":85,"Velocity":47,"Duration":94792,"SoundDuration":94792,"Delta":194484179},{"NoteNumber":61,"Velocity":40,"Duration":94792,"SoundDuration":94792,"Delta":194484179},{"NoteNumber":89,"Velocity":45,"Duration":94792,"SoundDuration":94792,"Delta":194610569},{"NoteNumber":85,"Velocity":45,"Duration":94792,"SoundDuration":94792,"Delta":194610569},{"NoteNumber":80,"Velocity":45,"Duration":94792,"SoundDuration":94792,"Delta":194610569},{"NoteNumber":71,"Velocity":39,"Duration":94792,"SoundDuration":94792,"Delta":194610569},{"NoteNumber":90,"Velocity":50,"Duration":268336,"SoundDuration":268336,"Delta":194736960},{"NoteNumber":85,"Velocity":50,"Duration":268336,"SoundDuration":268336,"Delta":194736960},{"NoteNumber":78,"Velocity":50,"Duration":268336,"SoundDuration":268336,"Delta":194736960},{"NoteNumber":66,"Velocity":46,"Duration":268336,"SoundDuration":268336,"Delta":194736960},{"NoteNumber":70,"Velocity":46,"Duration":268336,"SoundDuration":268336,"Delta":194736960},{"NoteNumber":42,"Velocity":61,"Duration":109060,"SoundDuration":109060,"Delta":195005296},{"NoteNumber":54,"Velocity":61,"Duration":109060,"SoundDuration":109060,"Delta":195005296},{"NoteNumber":42,"Velocity":64,"Duration":104725,"SoundDuration":104725,"Delta":195150037},{"NoteNumber":54,"Velocity":64,"Duration":104725,"SoundDuration":104725,"Delta":195150037},{"NoteNumber":43,"Velocity":66,"Duration":100514,"SoundDuration":100514,"Delta":195288977},{"NoteNumber":55,"Velocity":66,"Duration":100514,"SoundDuration":100514,"Delta":195288977},{"NoteNumber":43,"Velocity":70,"Duration":97977,"SoundDuration":97977,"Delta":195422444},{"NoteNumber":55,"Velocity":70,"Duration":97977,"SoundDuration":97977,"Delta":195422444},{"NoteNumber":44,"Velocity":71,"Duration":97440,"SoundDuration":97440,"Delta":195552946},{"NoteNumber":56,"Velocity":71,"Duration":97440,"SoundDuration":97440,"Delta":195552946},{"NoteNumber":44,"Velocity":71,"Duration":96834,"SoundDuration":96834,"Delta":195682770},{"NoteNumber":56,"Velocity":71,"Duration":96834,"SoundDuration":96834,"Delta":195682770},{"NoteNumber":56,"Velocity":64,"Duration":86872,"SoundDuration":86872,"Delta":195811766},{"NoteNumber":68,"Velocity":64,"Duration":86872,"SoundDuration":86872,"Delta":195811766},{"NoteNumber":56,"Velocity":64,"Duration":86872,"SoundDuration":86872,"Delta":195927596},{"NoteNumber":68,"Velocity":64,"Duration":86872,"SoundDuration":86872,"Delta":195927596},{"NoteNumber":68,"Velocity":64,"Duration":86872,"SoundDuration":86872,"Delta":196043426},{"NoteNumber":80,"Velocity":64,"Duration":86872,"SoundDuration":86872,"Delta":196043426},{"NoteNumber":68,"Velocity":64,"Duration":86872,"SoundDuration":86872,"Delta":196159256},{"NoteNumber":80,"Velocity":64,"Duration":86872,"SoundDuration":86872,"Delta":196159256},{"NoteNumber":80,"Velocity":71,"Duration":279069,"SoundDuration":279069,"Delta":196275086},{"NoteNumber":92,"Velocity":71,"Duration":279069,"SoundDuration":279069,"Delta":196275086},{"NoteNumber":90,"Velocity":45,"Duration":89850,"SoundDuration":89850,"Delta":196554156},{"NoteNumber":102,"Velocity":45,"Duration":89850,"SoundDuration":89850,"Delta":196554156},{"NoteNumber":75,"Velocity":54,"Duration":238294,"SoundDuration":238294,"Delta":196554156},{"NoteNumber":80,"Velocity":54,"Duration":89850,"SoundDuration":89850,"Delta":196554156},{"NoteNumber":102,"Velocity":45,"Duration":89066,"SoundDuration":89066,"Delta":196673695},{"NoteNumber":90,"Velocity":45,"Duration":89066,"SoundDuration":89066,"Delta":196673695},{"NoteNumber":80,"Velocity":43,"Duration":89066,"SoundDuration":89066,"Delta":196673695},{"NoteNumber":88,"Velocity":45,"Duration":89066,"SoundDuration":89066,"Delta":196792450},{"NoteNumber":100,"Velocity":45,"Duration":89066,"SoundDuration":89066,"Delta":196792450},{"NoteNumber":73,"Velocity":43,"Duration":237511,"SoundDuration":237511,"Delta":196792450},{"NoteNumber":80,"Velocity":43,"Duration":89066,"SoundDuration":89066,"Delta":196792450},{"NoteNumber":100,"Velocity":45,"Duration":89066,"SoundDuration":89066,"Delta":196911206},{"NoteNumber":88,"Velocity":45,"Duration":89066,"SoundDuration":89066,"Delta":196911206},{"NoteNumber":80,"Velocity":43,"Duration":89066,"SoundDuration":89066,"Delta":196911206},{"NoteNumber":99,"Velocity":45,"Duration":90180,"SoundDuration":90180,"Delta":197029961},{"NoteNumber":87,"Velocity":45,"Duration":90180,"SoundDuration":90180,"Delta":197029961},{"NoteNumber":72,"Velocity":43,"Duration":240480,"SoundDuration":240480,"Delta":197029961},{"NoteNumber":80,"Velocity":43,"Duration":90180,"SoundDuration":90180,"Delta":197029961},{"NoteNumber":87,"Velocity":45,"Duration":90180,"SoundDuration":90180,"Delta":197150202},{"NoteNumber":99,"Velocity":45,"Duration":90180,"SoundDuration":90180,"Delta":197150202},{"NoteNumber":80,"Velocity":43,"Duration":90180,"SoundDuration":90180,"Delta":197150202},{"NoteNumber":85,"Velocity":45,"Duration":87548,"SoundDuration":87548,"Delta":197270442},{"NoteNumber":97,"Velocity":45,"Duration":87548,"SoundDuration":87548,"Delta":197270442},{"NoteNumber":70,"Velocity":43,"Duration":233463,"SoundDuration":233463,"Delta":197270442},{"NoteNumber":80,"Velocity":43,"Duration":87548,"SoundDuration":87548,"Delta":197270442},{"NoteNumber":97,"Velocity":45,"Duration":87548,"SoundDuration":87548,"Delta":197387174},{"NoteNumber":85,"Velocity":45,"Duration":87548,"SoundDuration":87548,"Delta":197387174},{"NoteNumber":80,"Velocity":43,"Duration":87548,"SoundDuration":87548,"Delta":197387174},{"NoteNumber":99,"Velocity":45,"Duration":85877,"SoundDuration":85877,"Delta":197503905},{"NoteNumber":87,"Velocity":45,"Duration":85877,"SoundDuration":85877,"Delta":197503905},{"NoteNumber":72,"Velocity":43,"Duration":229007,"SoundDuration":229007,"Delta":197503905},{"NoteNumber":80,"Velocity":43,"Duration":85877,"SoundDuration":85877,"Delta":197503905},{"NoteNumber":99,"Velocity":45,"Duration":85877,"SoundDuration":85877,"Delta":197618409},{"NoteNumber":87,"Velocity":45,"Duration":85877,"SoundDuration":85877,"Delta":197618409},{"NoteNumber":80,"Velocity":43,"Duration":85877,"SoundDuration":85877,"Delta":197618409},{"NoteNumber":100,"Velocity":47,"Duration":275735,"SoundDuration":275735,"Delta":197732913},{"NoteNumber":88,"Velocity":47,"Duration":275735,"SoundDuration":275735,"Delta":197732913},{"NoteNumber":73,"Velocity":46,"Duration":275735,"SoundDuration":275735,"Delta":197732913},{"NoteNumber":80,"Velocity":46,"Duration":275735,"SoundDuration":275735,"Delta":197732913},{"NoteNumber":44,"Velocity":61,"Duration":103169,"SoundDuration":103169,"Delta":198008648},{"NoteNumber":56,"Velocity":61,"Duration":103169,"SoundDuration":103169,"Delta":198008648},{"NoteNumber":44,"Velocity":64,"Duration":103563,"SoundDuration":103563,"Delta":198146832},{"NoteNumber":56,"Velocity":64,"Duration":103563,"SoundDuration":103563,"Delta":198146832},{"NoteNumber":43,"Velocity":66,"Duration":100779,"SoundDuration":100779,"Delta":198284456},{"NoteNumber":55,"Velocity":66,"Duration":100779,"SoundDuration":100779,"Delta":198284456},{"NoteNumber":43,"Velocity":70,"Duration":98105,"SoundDuration":98105,"Delta":198418392},{"NoteNumber":55,"Velocity":70,"Duration":98105,"SoundDuration":98105,"Delta":198418392},{"NoteNumber":42,"Velocity":71,"Duration":96732,"SoundDuration":96732,"Delta":198548742},{"NoteNumber":54,"Velocity":71,"Duration":96732,"SoundDuration":96732,"Delta":198548742},{"NoteNumber":42,"Velocity":71,"Duration":96732,"SoundDuration":96732,"Delta":198677718},{"NoteNumber":54,"Velocity":71,"Duration":96732,"SoundDuration":96732,"Delta":198677718},{"NoteNumber":54,"Velocity":64,"Duration":86872,"SoundDuration":86872,"Delta":198806695},{"NoteNumber":66,"Velocity":64,"Duration":86872,"SoundDuration":86872,"Delta":198806695},{"NoteNumber":54,"Velocity":64,"Duration":86872,"SoundDuration":86872,"Delta":198922525},{"NoteNumber":66,"Velocity":64,"Duration":86872,"SoundDuration":86872,"Delta":198922525},{"NoteNumber":66,"Velocity":64,"Duration":86872,"SoundDuration":86872,"Delta":199038355},{"NoteNumber":78,"Velocity":64,"Duration":86872,"SoundDuration":86872,"Delta":199038355},{"NoteNumber":66,"Velocity":64,"Duration":86872,"SoundDuration":86872,"Delta":199154185},{"NoteNumber":78,"Velocity":64,"Duration":86872,"SoundDuration":86872,"Delta":199154185},{"NoteNumber":78,"Velocity":71,"Duration":276497,"SoundDuration":276497,"Delta":199270015},{"NoteNumber":90,"Velocity":71,"Duration":276497,"SoundDuration":276497,"Delta":199270015},{"NoteNumber":88,"Velocity":45,"Duration":88932,"SoundDuration":88932,"Delta":199546513},{"NoteNumber":100,"Velocity":45,"Duration":88932,"SoundDuration":88932,"Delta":199546513},{"NoteNumber":73,"Velocity":54,"Duration":237154,"SoundDuration":237154,"Delta":199546513},{"NoteNumber":78,"Velocity":54,"Duration":88932,"SoundDuration":88932,"Delta":199546513},{"NoteNumber":100,"Velocity":45,"Duration":88932,"SoundDuration":88932,"Delta":199665090},{"NoteNumber":88,"Velocity":45,"Duration":88932,"SoundDuration":88932,"Delta":199665090},{"NoteNumber":78,"Velocity":43,"Duration":88932,"SoundDuration":88932,"Delta":199665090},{"NoteNumber":87,"Velocity":45,"Duration":88932,"SoundDuration":88932,"Delta":199783667},{"NoteNumber":99,"Velocity":45,"Duration":88932,"SoundDuration":88932,"Delta":199783667},{"NoteNumber":71,"Velocity":43,"Duration":237154,"SoundDuration":237154,"Delta":199783667},{"NoteNumber":78,"Velocity":43,"Duration":88932,"SoundDuration":88932,"Delta":199783667},{"NoteNumber":99,"Velocity":45,"Duration":88932,"SoundDuration":88932,"Delta":199902244},{"NoteNumber":87,"Velocity":45,"Duration":88932,"SoundDuration":88932,"Delta":199902244},{"NoteNumber":78,"Velocity":43,"Duration":88932,"SoundDuration":88932,"Delta":199902244},{"NoteNumber":97,"Velocity":45,"Duration":90725,"SoundDuration":90725,"Delta":200020821},{"NoteNumber":85,"Velocity":45,"Duration":90725,"SoundDuration":90725,"Delta":200020821},{"NoteNumber":70,"Velocity":43,"Duration":241935,"SoundDuration":241935,"Delta":200020821},{"NoteNumber":78,"Velocity":43,"Duration":90725,"SoundDuration":90725,"Delta":200020821},{"NoteNumber":85,"Velocity":45,"Duration":90725,"SoundDuration":90725,"Delta":200141788},{"NoteNumber":97,"Velocity":45,"Duration":90725,"SoundDuration":90725,"Delta":200141788},{"NoteNumber":78,"Velocity":43,"Duration":90725,"SoundDuration":90725,"Delta":200141788},{"NoteNumber":83,"Velocity":45,"Duration":87890,"SoundDuration":87890,"Delta":200262756},{"NoteNumber":95,"Velocity":45,"Duration":87890,"SoundDuration":87890,"Delta":200262756},{"NoteNumber":68,"Velocity":43,"Duration":234375,"SoundDuration":234375,"Delta":200262756},{"NoteNumber":78,"Velocity":43,"Duration":87890,"SoundDuration":87890,"Delta":200262756},{"NoteNumber":95,"Velocity":45,"Duration":87890,"SoundDuration":87890,"Delta":200379944},{"NoteNumber":83,"Velocity":45,"Duration":87890,"SoundDuration":87890,"Delta":200379944},{"NoteNumber":78,"Velocity":43,"Duration":87890,"SoundDuration":87890,"Delta":200379944},{"NoteNumber":97,"Velocity":45,"Duration":85877,"SoundDuration":85877,"Delta":200497131},{"NoteNumber":85,"Velocity":45,"Duration":85877,"SoundDuration":85877,"Delta":200497131},{"NoteNumber":70,"Velocity":43,"Duration":229007,"SoundDuration":229007,"Delta":200497131},{"NoteNumber":78,"Velocity":43,"Duration":85877,"SoundDuration":85877,"Delta":200497131},{"NoteNumber":97,"Velocity":45,"Duration":85877,"SoundDuration":85877,"Delta":200611635},{"NoteNumber":85,"Velocity":45,"Duration":85877,"SoundDuration":85877,"Delta":200611635},{"NoteNumber":78,"Velocity":43,"Duration":85877,"SoundDuration":85877,"Delta":200611635},{"NoteNumber":99,"Velocity":47,"Duration":244898,"SoundDuration":244898,"Delta":200726139},{"NoteNumber":87,"Velocity":47,"Duration":244898,"SoundDuration":244898,"Delta":200726139},{"NoteNumber":71,"Velocity":46,"Duration":244898,"SoundDuration":244898,"Delta":200726139},{"NoteNumber":78,"Velocity":46,"Duration":244898,"SoundDuration":244898,"Delta":200726139},{"NoteNumber":41,"Velocity":63,"Duration":95744,"SoundDuration":95744,"Delta":200971037},{"NoteNumber":53,"Velocity":63,"Duration":95744,"SoundDuration":95744,"Delta":200971037},{"NoteNumber":41,"Velocity":65,"Duration":93360,"SoundDuration":93360,"Delta":201098696},{"NoteNumber":53,"Velocity":65,"Duration":93360,"SoundDuration":93360,"Delta":201098696},{"NoteNumber":40,"Velocity":67,"Duration":102739,"SoundDuration":102739,"Delta":201223177},{"NoteNumber":52,"Velocity":67,"Duration":102739,"SoundDuration":102739,"Delta":201223177},{"NoteNumber":40,"Velocity":70,"Duration":94936,"SoundDuration":94936,"Delta":201360164},{"NoteNumber":52,"Velocity":70,"Duration":94936,"SoundDuration":94936,"Delta":201360164},{"NoteNumber":39,"Velocity":71,"Duration":98253,"SoundDuration":98253,"Delta":201486746},{"NoteNumber":51,"Velocity":71,"Duration":98253,"SoundDuration":98253,"Delta":201486746},{"NoteNumber":39,"Velocity":71,"Duration":93360,"SoundDuration":93360,"Delta":201617750},{"NoteNumber":51,"Velocity":71,"Duration":93360,"SoundDuration":93360,"Delta":201617750},{"NoteNumber":51,"Velocity":64,"Duration":86872,"SoundDuration":86872,"Delta":201742231},{"NoteNumber":63,"Velocity":64,"Duration":86872,"SoundDuration":86872,"Delta":201742231},{"NoteNumber":51,"Velocity":64,"Duration":86872,"SoundDuration":86872,"Delta":201858061},{"NoteNumber":63,"Velocity":64,"Duration":86872,"SoundDuration":86872,"Delta":201858061},{"NoteNumber":63,"Velocity":64,"Duration":86872,"SoundDuration":86872,"Delta":201973891},{"NoteNumber":75,"Velocity":64,"Duration":86872,"SoundDuration":86872,"Delta":201973891},{"NoteNumber":63,"Velocity":64,"Duration":86872,"SoundDuration":86872,"Delta":202089721},{"NoteNumber":75,"Velocity":64,"Duration":86872,"SoundDuration":86872,"Delta":202089721},{"NoteNumber":75,"Velocity":71,"Duration":256410,"SoundDuration":256410,"Delta":202205551},{"NoteNumber":87,"Velocity":71,"Duration":256410,"SoundDuration":256410,"Delta":202205551},{"NoteNumber":87,"Velocity":59,"Duration":113065,"SoundDuration":113065,"Delta":202461962},{"NoteNumber":75,"Velocity":59,"Duration":113065,"SoundDuration":113065,"Delta":202461962},{"NoteNumber":63,"Velocity":49,"Duration":150753,"SoundDuration":150753,"Delta":202461962},{"NoteNumber":67,"Velocity":49,"Duration":150753,"SoundDuration":150753,"Delta":202461962},{"NoteNumber":87,"Velocity":60,"Duration":106132,"SoundDuration":106132,"Delta":202612716},{"NoteNumber":75,"Velocity":60,"Duration":106132,"SoundDuration":106132,"Delta":202612716},{"NoteNumber":63,"Velocity":50,"Duration":141509,"SoundDuration":141509,"Delta":202612716},{"NoteNumber":67,"Velocity":50,"Duration":141509,"SoundDuration":141509,"Delta":202612716},{"NoteNumber":87,"Velocity":62,"Duration":107655,"SoundDuration":107655,"Delta":202754225},{"NoteNumber":75,"Velocity":62,"Duration":107655,"SoundDuration":107655,"Delta":202754225},{"NoteNumber":65,"Velocity":52,"Duration":143540,"SoundDuration":143540,"Delta":202754225},{"NoteNumber":68,"Velocity":52,"Duration":143540,"SoundDuration":143540,"Delta":202754225},{"NoteNumber":87,"Velocity":64,"Duration":92213,"SoundDuration":92213,"Delta":202897766},{"NoteNumber":75,"Velocity":64,"Duration":92213,"SoundDuration":92213,"Delta":202897766},{"NoteNumber":65,"Velocity":54,"Duration":123379,"SoundDuration":123379,"Delta":202897766},{"NoteNumber":68,"Velocity":54,"Duration":123379,"SoundDuration":123379,"Delta":202897766},{"NoteNumber":76,"Velocity":64,"Duration":125524,"SoundDuration":125524,"Delta":203021145},{"NoteNumber":88,"Velocity":64,"Duration":125524,"SoundDuration":125524,"Delta":203021145},{"NoteNumber":66,"Velocity":55,"Duration":125524,"SoundDuration":125524,"Delta":203021145},{"NoteNumber":69,"Velocity":55,"Duration":125524,"SoundDuration":125524,"Delta":203021145},{"NoteNumber":75,"Velocity":64,"Duration":123968,"SoundDuration":123968,"Delta":203146670},{"NoteNumber":87,"Velocity":64,"Duration":123968,"SoundDuration":123968,"Delta":203146670},{"NoteNumber":66,"Velocity":55,"Duration":123968,"SoundDuration":123968,"Delta":203146670},{"NoteNumber":69,"Velocity":55,"Duration":123968,"SoundDuration":123968,"Delta":203146670},{"NoteNumber":73,"Velocity":63,"Duration":122450,"SoundDuration":122450,"Delta":203270638},{"NoteNumber":85,"Velocity":63,"Duration":122450,"SoundDuration":122450,"Delta":203270638},{"NoteNumber":64,"Velocity":54,"Duration":122450,"SoundDuration":122450,"Delta":203270638},{"NoteNumber":67,"Velocity":54,"Duration":122450,"SoundDuration":122450,"Delta":203270638},{"NoteNumber":71,"Velocity":62,"Duration":120726,"SoundDuration":120726,"Delta":203393088},{"NoteNumber":83,"Velocity":62,"Duration":120726,"SoundDuration":120726,"Delta":203393088},{"NoteNumber":64,"Velocity":54,"Duration":120726,"SoundDuration":120726,"Delta":203393088},{"NoteNumber":67,"Velocity":54,"Duration":120726,"SoundDuration":120726,"Delta":203393088},{"NoteNumber":70,"Velocity":61,"Duration":119286,"SoundDuration":119286,"Delta":203513815},{"NoteNumber":82,"Velocity":61,"Duration":119286,"SoundDuration":119286,"Delta":203513815},{"NoteNumber":62,"Velocity":52,"Duration":119286,"SoundDuration":119286,"Delta":203513815},{"NoteNumber":65,"Velocity":52,"Duration":119286,"SoundDuration":119286,"Delta":203513815},{"NoteNumber":68,"Velocity":61,"Duration":117879,"SoundDuration":117879,"Delta":203633101},{"NoteNumber":80,"Velocity":61,"Duration":117879,"SoundDuration":117879,"Delta":203633101},{"NoteNumber":62,"Velocity":52,"Duration":117879,"SoundDuration":117879,"Delta":203633101},{"NoteNumber":65,"Velocity":52,"Duration":117879,"SoundDuration":117879,"Delta":203633101},{"NoteNumber":67,"Velocity":60,"Duration":233463,"SoundDuration":233463,"Delta":203750980},{"NoteNumber":79,"Velocity":60,"Duration":233463,"SoundDuration":233463,"Delta":203750980},{"NoteNumber":63,"Velocity":51,"Duration":233463,"SoundDuration":233463,"Delta":203750980},{"NoteNumber":34,"Velocity":70,"Duration":119680,"SoundDuration":119680,"Delta":203984443},{"NoteNumber":46,"Velocity":70,"Duration":119680,"SoundDuration":119680,"Delta":203984443},{"NoteNumber":34,"Velocity":70,"Duration":110294,"SoundDuration":110294,"Delta":204144018},{"NoteNumber":46,"Velocity":70,"Duration":110294,"SoundDuration":110294,"Delta":204144018},{"NoteNumber":38,"Velocity":71,"Duration":102739,"SoundDuration":102739,"Delta":204291077},{"NoteNumber":50,"Velocity":71,"Duration":102739,"SoundDuration":102739,"Delta":204291077},{"NoteNumber":38,"Velocity":73,"Duration":98253,"SoundDuration":98253,"Delta":204428063},{"NoteNumber":50,"Velocity":73,"Duration":98253,"SoundDuration":98253,"Delta":204428063},{"NoteNumber":39,"Velocity":77,"Duration":99557,"SoundDuration":99557,"Delta":204559067},{"NoteNumber":51,"Velocity":77,"Duration":99557,"SoundDuration":99557,"Delta":204559067},{"NoteNumber":39,"Velocity":77,"Duration":95744,"SoundDuration":95744,"Delta":204691810},{"NoteNumber":51,"Velocity":77,"Duration":95744,"SoundDuration":95744,"Delta":204691810},{"NoteNumber":51,"Velocity":69,"Duration":86872,"SoundDuration":86872,"Delta":204819470},{"NoteNumber":63,"Velocity":69,"Duration":86872,"SoundDuration":86872,"Delta":204819470},{"NoteNumber":51,"Velocity":69,"Duration":86872,"SoundDuration":86872,"Delta":204935300},{"NoteNumber":63,"Velocity":69,"Duration":86872,"SoundDuration":86872,"Delta":204935300},{"NoteNumber":63,"Velocity":71,"Duration":86872,"SoundDuration":86872,"Delta":205051130},{"NoteNumber":75,"Velocity":71,"Duration":86872,"SoundDuration":86872,"Delta":205051130},{"NoteNumber":63,"Velocity":71,"Duration":86872,"SoundDuration":86872,"Delta":205166960},{"NoteNumber":75,"Velocity":71,"Duration":86872,"SoundDuration":86872,"Delta":205166960},{"NoteNumber":75,"Velocity":76,"Duration":256410,"SoundDuration":256410,"Delta":205282790},{"NoteNumber":87,"Velocity":76,"Duration":256410,"SoundDuration":256410,"Delta":205282790},{"NoteNumber":99,"Velocity":69,"Duration":121621,"SoundDuration":121621,"Delta":205539200},{"NoteNumber":87,"Velocity":69,"Duration":121621,"SoundDuration":121621,"Delta":205539200},{"NoteNumber":67,"Velocity":57,"Duration":121621,"SoundDuration":121621,"Delta":205539200},{"NoteNumber":75,"Velocity":57,"Duration":121621,"SoundDuration":121621,"Delta":205539200},{"NoteNumber":99,"Velocity":71,"Duration":115979,"SoundDuration":115979,"Delta":205701363},{"NoteNumber":87,"Velocity":71,"Duration":115979,"SoundDuration":115979,"Delta":205701363},{"NoteNumber":67,"Velocity":59,"Duration":115979,"SoundDuration":115979,"Delta":205701363},{"NoteNumber":75,"Velocity":59,"Duration":115979,"SoundDuration":115979,"Delta":205701363},{"NoteNumber":99,"Velocity":72,"Duration":125000,"SoundDuration":125000,"Delta":205856002},{"NoteNumber":87,"Velocity":72,"Duration":125000,"SoundDuration":125000,"Delta":205856002},{"NoteNumber":68,"Velocity":61,"Duration":125000,"SoundDuration":125000,"Delta":205856002},{"NoteNumber":77,"Velocity":61,"Duration":125000,"SoundDuration":125000,"Delta":205856002},{"NoteNumber":87,"Velocity":73,"Duration":104651,"SoundDuration":104651,"Delta":206018147},{"NoteNumber":99,"Velocity":73,"Duration":104651,"SoundDuration":104651,"Delta":206018147},{"NoteNumber":68,"Velocity":62,"Duration":104651,"SoundDuration":104651,"Delta":206018147},{"NoteNumber":77,"Velocity":62,"Duration":104651,"SoundDuration":104651,"Delta":206018147},{"NoteNumber":88,"Velocity":73,"Duration":98253,"SoundDuration":98253,"Delta":206157682},{"NoteNumber":100,"Velocity":73,"Duration":98253,"SoundDuration":98253,"Delta":206157682},{"NoteNumber":69,"Velocity":63,"Duration":98253,"SoundDuration":98253,"Delta":206157682},{"NoteNumber":78,"Velocity":63,"Duration":98253,"SoundDuration":98253,"Delta":206157682},{"NoteNumber":87,"Velocity":73,"Duration":94537,"SoundDuration":94537,"Delta":206288686},{"NoteNumber":99,"Velocity":73,"Duration":94537,"SoundDuration":94537,"Delta":206288686},{"NoteNumber":69,"Velocity":64,"Duration":94537,"SoundDuration":94537,"Delta":206288686},{"NoteNumber":78,"Velocity":64,"Duration":94537,"SoundDuration":94537,"Delta":206288686},{"NoteNumber":85,"Velocity":73,"Duration":95071,"SoundDuration":95071,"Delta":206414915},{"NoteNumber":97,"Velocity":73,"Duration":95071,"SoundDuration":95071,"Delta":206414915},{"NoteNumber":70,"Velocity":64,"Duration":95071,"SoundDuration":95071,"Delta":206414915},{"NoteNumber":79,"Velocity":64,"Duration":95071,"SoundDuration":95071,"Delta":206414915},{"NoteNumber":95,"Velocity":72,"Duration":94099,"SoundDuration":94099,"Delta":206541498},{"NoteNumber":83,"Velocity":72,"Duration":94099,"SoundDuration":94099,"Delta":206541498},{"NoteNumber":70,"Velocity":63,"Duration":94099,"SoundDuration":94099,"Delta":206541498},{"NoteNumber":79,"Velocity":63,"Duration":94099,"SoundDuration":94099,"Delta":206541498},{"NoteNumber":82,"Velocity":72,"Duration":93146,"SoundDuration":93146,"Delta":206666848},{"NoteNumber":94,"Velocity":72,"Duration":93146,"SoundDuration":93146,"Delta":206666848},{"NoteNumber":74,"Velocity":63,"Duration":93146,"SoundDuration":93146,"Delta":206666848},{"NoteNumber":77,"Velocity":63,"Duration":93146,"SoundDuration":93146,"Delta":206666848},{"NoteNumber":92,"Velocity":72,"Duration":92255,"SoundDuration":92255,"Delta":206790901},{"NoteNumber":80,"Velocity":72,"Duration":92255,"SoundDuration":92255,"Delta":206790901},{"NoteNumber":74,"Velocity":62,"Duration":92255,"SoundDuration":92255,"Delta":206790901},{"NoteNumber":77,"Velocity":62,"Duration":92255,"SoundDuration":92255,"Delta":206790901},{"NoteNumber":91,"Velocity":72,"Duration":90606,"SoundDuration":90606,"Delta":206913769},{"NoteNumber":79,"Velocity":72,"Duration":90606,"SoundDuration":90606,"Delta":206913769},{"NoteNumber":70,"Velocity":62,"Duration":90606,"SoundDuration":90606,"Delta":206913769},{"NoteNumber":75,"Velocity":62,"Duration":90606,"SoundDuration":90606,"Delta":206913769},{"NoteNumber":78,"Velocity":72,"Duration":89960,"SoundDuration":89960,"Delta":207034496},{"NoteNumber":90,"Velocity":72,"Duration":89960,"SoundDuration":89960,"Delta":207034496},{"NoteNumber":70,"Velocity":62,"Duration":89960,"SoundDuration":89960,"Delta":207034496},{"NoteNumber":75,"Velocity":62,"Duration":89960,"SoundDuration":89960,"Delta":207034496},{"NoteNumber":89,"Velocity":72,"Duration":87890,"SoundDuration":87890,"Delta":207154337},{"NoteNumber":77,"Velocity":72,"Duration":87890,"SoundDuration":87890,"Delta":207154337},{"NoteNumber":68,"Velocity":61,"Duration":87890,"SoundDuration":87890,"Delta":207154337},{"NoteNumber":71,"Velocity":61,"Duration":87890,"SoundDuration":87890,"Delta":207154337},{"NoteNumber":76,"Velocity":71,"Duration":86206,"SoundDuration":86206,"Delta":207271524},{"NoteNumber":88,"Velocity":71,"Duration":86206,"SoundDuration":86206,"Delta":207271524},{"NoteNumber":68,"Velocity":61,"Duration":86206,"SoundDuration":86206,"Delta":207271524},{"NoteNumber":71,"Velocity":61,"Duration":86206,"SoundDuration":86206,"Delta":207271524},{"NoteNumber":86,"Velocity":71,"Duration":90000,"SoundDuration":90000,"Delta":207386467},{"NoteNumber":74,"Velocity":71,"Duration":90000,"SoundDuration":90000,"Delta":207386467},{"NoteNumber":66,"Velocity":61,"Duration":90000,"SoundDuration":90000,"Delta":207386467},{"NoteNumber":69,"Velocity":61,"Duration":90000,"SoundDuration":90000,"Delta":207386467},{"NoteNumber":75,"Velocity":72,"Duration":87209,"SoundDuration":87209,"Delta":207506467},{"NoteNumber":87,"Velocity":72,"Duration":87209,"SoundDuration":87209,"Delta":207506467},{"NoteNumber":66,"Velocity":62,"Duration":87209,"SoundDuration":87209,"Delta":207506467},{"NoteNumber":69,"Velocity":62,"Duration":87209,"SoundDuration":87209,"Delta":207506467},{"NoteNumber":88,"Velocity":75,"Duration":88932,"SoundDuration":88932,"Delta":207623129},{"NoteNumber":76,"Velocity":75,"Duration":88932,"SoundDuration":88932,"Delta":207623129},{"NoteNumber":67,"Velocity":62,"Duration":88932,"SoundDuration":88932,"Delta":207623129},{"NoteNumber":70,"Velocity":62,"Duration":88932,"SoundDuration":88932,"Delta":207623129},{"NoteNumber":75,"Velocity":75,"Duration":88932,"SoundDuration":88932,"Delta":207741706},{"NoteNumber":87,"Velocity":75,"Duration":88932,"SoundDuration":88932,"Delta":207741706},{"NoteNumber":67,"Velocity":62,"Duration":88932,"SoundDuration":88932,"Delta":207741706},{"NoteNumber":70,"Velocity":62,"Duration":88932,"SoundDuration":88932,"Delta":207741706},{"NoteNumber":85,"Velocity":73,"Duration":88582,"SoundDuration":88582,"Delta":207860205},{"NoteNumber":73,"Velocity":73,"Duration":88582,"SoundDuration":88582,"Delta":207860205},{"NoteNumber":64,"Velocity":62,"Duration":88582,"SoundDuration":88582,"Delta":207860205},{"NoteNumber":67,"Velocity":62,"Duration":88582,"SoundDuration":88582,"Delta":207860205},{"NoteNumber":71,"Velocity":72,"Duration":88582,"SoundDuration":88582,"Delta":207978315},{"NoteNumber":83,"Velocity":72,"Duration":88582,"SoundDuration":88582,"Delta":207978315},{"NoteNumber":64,"Velocity":61,"Duration":88582,"SoundDuration":88582,"Delta":207978315},{"NoteNumber":67,"Velocity":61,"Duration":88582,"SoundDuration":88582,"Delta":207978315},{"NoteNumber":82,"Velocity":72,"Duration":88235,"SoundDuration":88235,"Delta":208096348},{"NoteNumber":70,"Velocity":72,"Duration":88235,"SoundDuration":88235,"Delta":208096348},{"NoteNumber":62,"Velocity":61,"Duration":88235,"SoundDuration":88235,"Delta":208096348},{"NoteNumber":65,"Velocity":61,"Duration":88235,"SoundDuration":88235,"Delta":208096348},{"NoteNumber":68,"Velocity":72,"Duration":88235,"SoundDuration":88235,"Delta":208213995},{"NoteNumber":80,"Velocity":72,"Duration":88235,"SoundDuration":88235,"Delta":208213995},{"NoteNumber":62,"Velocity":60,"Duration":88235,"SoundDuration":88235,"Delta":208213995},{"NoteNumber":65,"Velocity":60,"Duration":88235,"SoundDuration":88235,"Delta":208213995},{"NoteNumber":67,"Velocity":72,"Duration":87662,"SoundDuration":87662,"Delta":208331565},{"NoteNumber":79,"Velocity":72,"Duration":87662,"SoundDuration":87662,"Delta":208331565},{"NoteNumber":58,"Velocity":60,"Duration":87662,"SoundDuration":87662,"Delta":208331565},{"NoteNumber":63,"Velocity":60,"Duration":87662,"SoundDuration":87662,"Delta":208331565},{"NoteNumber":78,"Velocity":71,"Duration":86650,"SoundDuration":86650,"Delta":208448298},{"NoteNumber":66,"Velocity":71,"Duration":86650,"SoundDuration":86650,"Delta":208448298},{"NoteNumber":58,"Velocity":59,"Duration":86650,"SoundDuration":86650,"Delta":208448298},{"NoteNumber":63,"Velocity":59,"Duration":86650,"SoundDuration":86650,"Delta":208448298},{"NoteNumber":65,"Velocity":70,"Duration":85551,"SoundDuration":85551,"Delta":208563684},{"NoteNumber":77,"Velocity":70,"Duration":85551,"SoundDuration":85551,"Delta":208563684},{"NoteNumber":56,"Velocity":59,"Duration":85551,"SoundDuration":85551,"Delta":208563684},{"NoteNumber":59,"Velocity":59,"Duration":85551,"SoundDuration":85551,"Delta":208563684},{"NoteNumber":76,"Velocity":70,"Duration":84586,"SoundDuration":84586,"Delta":208677752},{"NoteNumber":64,"Velocity":70,"Duration":84586,"SoundDuration":84586,"Delta":208677752},{"NoteNumber":56,"Velocity":59,"Duration":84586,"SoundDuration":84586,"Delta":208677752},{"NoteNumber":59,"Velocity":59,"Duration":84586,"SoundDuration":84586,"Delta":208677752},{"NoteNumber":62,"Velocity":72,"Duration":87548,"SoundDuration":87548,"Delta":208790464},{"NoteNumber":74,"Velocity":72,"Duration":87548,"SoundDuration":87548,"Delta":208790464},{"NoteNumber":54,"Velocity":57,"Duration":87548,"SoundDuration":87548,"Delta":208790464},{"NoteNumber":57,"Velocity":57,"Duration":87548,"SoundDuration":87548,"Delta":208790464},{"NoteNumber":63,"Velocity":73,"Duration":84586,"SoundDuration":84586,"Delta":208907195},{"NoteNumber":75,"Velocity":73,"Duration":84586,"SoundDuration":84586,"Delta":208907195},{"NoteNumber":54,"Velocity":63,"Duration":84586,"SoundDuration":84586,"Delta":208907195},{"NoteNumber":57,"Velocity":63,"Duration":84586,"SoundDuration":84586,"Delta":208907195},{"NoteNumber":64,"Velocity":73,"Duration":86538,"SoundDuration":86538,"Delta":209020411},{"NoteNumber":76,"Velocity":73,"Duration":86538,"SoundDuration":86538,"Delta":209020411},{"NoteNumber":55,"Velocity":66,"Duration":86538,"SoundDuration":86538,"Delta":209020411},{"NoteNumber":58,"Velocity":66,"Duration":86538,"SoundDuration":86538,"Delta":209020411},{"NoteNumber":63,"Velocity":73,"Duration":86538,"SoundDuration":86538,"Delta":209135796},{"NoteNumber":75,"Velocity":73,"Duration":86538,"SoundDuration":86538,"Delta":209135796},{"NoteNumber":55,"Velocity":66,"Duration":86538,"SoundDuration":86538,"Delta":209135796},{"NoteNumber":58,"Velocity":66,"Duration":86538,"SoundDuration":86538,"Delta":209135796},{"NoteNumber":73,"Velocity":73,"Duration":86427,"SoundDuration":86427,"Delta":209251180},{"NoteNumber":61,"Velocity":73,"Duration":86427,"SoundDuration":86427,"Delta":209251180},{"NoteNumber":52,"Velocity":65,"Duration":86427,"SoundDuration":86427,"Delta":209251180},{"NoteNumber":55,"Velocity":65,"Duration":86427,"SoundDuration":86427,"Delta":209251180},{"NoteNumber":59,"Velocity":72,"Duration":86206,"SoundDuration":86206,"Delta":209366344},{"NoteNumber":71,"Velocity":72,"Duration":86206,"SoundDuration":86206,"Delta":209366344},{"NoteNumber":52,"Velocity":64,"Duration":86206,"SoundDuration":86206,"Delta":209366344},{"NoteNumber":55,"Velocity":64,"Duration":86206,"SoundDuration":86206,"Delta":209366344},{"NoteNumber":70,"Velocity":72,"Duration":86206,"SoundDuration":86206,"Delta":209481286},{"NoteNumber":58,"Velocity":72,"Duration":86206,"SoundDuration":86206,"Delta":209481286},{"NoteNumber":50,"Velocity":64,"Duration":86206,"SoundDuration":86206,"Delta":209481286},{"NoteNumber":53,"Velocity":64,"Duration":86206,"SoundDuration":86206,"Delta":209481286},{"NoteNumber":56,"Velocity":72,"Duration":85950,"SoundDuration":85950,"Delta":209596229},{"NoteNumber":68,"Velocity":72,"Duration":85950,"SoundDuration":85950,"Delta":209596229},{"NoteNumber":50,"Velocity":63,"Duration":85950,"SoundDuration":85950,"Delta":209596229},{"NoteNumber":53,"Velocity":63,"Duration":85950,"SoundDuration":85950,"Delta":209596229},{"NoteNumber":67,"Velocity":72,"Duration":85877,"SoundDuration":85877,"Delta":209710805},{"NoteNumber":55,"Velocity":72,"Duration":85877,"SoundDuration":85877,"Delta":209710805},{"NoteNumber":46,"Velocity":63,"Duration":85877,"SoundDuration":85877,"Delta":209710805},{"NoteNumber":51,"Velocity":63,"Duration":85877,"SoundDuration":85877,"Delta":209710805},{"NoteNumber":54,"Velocity":72,"Duration":85877,"SoundDuration":85877,"Delta":209825309},{"NoteNumber":66,"Velocity":72,"Duration":85877,"SoundDuration":85877,"Delta":209825309},{"NoteNumber":46,"Velocity":62,"Duration":85877,"SoundDuration":85877,"Delta":209825309},{"NoteNumber":51,"Velocity":62,"Duration":85877,"SoundDuration":85877,"Delta":209825309},{"NoteNumber":65,"Velocity":72,"Duration":83643,"SoundDuration":83643,"Delta":209939740},{"NoteNumber":53,"Velocity":72,"Duration":83643,"SoundDuration":83643,"Delta":209939740},{"NoteNumber":44,"Velocity":61,"Duration":83643,"SoundDuration":83643,"Delta":209939740},{"NoteNumber":47,"Velocity":61,"Duration":83643,"SoundDuration":83643,"Delta":209939740},{"NoteNumber":52,"Velocity":72,"Duration":83643,"SoundDuration":83643,"Delta":210051265},{"NoteNumber":64,"Velocity":72,"Duration":83643,"SoundDuration":83643,"Delta":210051265},{"NoteNumber":44,"Velocity":61,"Duration":83643,"SoundDuration":83643,"Delta":210051265},{"NoteNumber":47,"Velocity":61,"Duration":83643,"SoundDuration":83643,"Delta":210051265},{"NoteNumber":50,"Velocity":72,"Duration":89641,"SoundDuration":89641,"Delta":210164202},{"NoteNumber":62,"Velocity":72,"Duration":89641,"SoundDuration":89641,"Delta":210164202},{"NoteNumber":42,"Velocity":57,"Duration":89641,"SoundDuration":89641,"Delta":210164202},{"NoteNumber":45,"Velocity":57,"Duration":89641,"SoundDuration":89641,"Delta":210164202},{"NoteNumber":51,"Velocity":72,"Duration":97402,"SoundDuration":97402,"Delta":210283724},{"NoteNumber":63,"Velocity":72,"Duration":97402,"SoundDuration":97402,"Delta":210283724},{"NoteNumber":42,"Velocity":59,"Duration":97402,"SoundDuration":97402,"Delta":210283724},{"NoteNumber":45,"Velocity":59,"Duration":97402,"SoundDuration":97402,"Delta":210283724},{"NoteNumber":52,"Velocity":73,"Duration":94537,"SoundDuration":94537,"Delta":210413594},{"NoteNumber":64,"Velocity":73,"Duration":94537,"SoundDuration":94537,"Delta":210413594},{"NoteNumber":43,"Velocity":61,"Duration":94537,"SoundDuration":94537,"Delta":210413594},{"NoteNumber":46,"Velocity":61,"Duration":94537,"SoundDuration":94537,"Delta":210413594},{"NoteNumber":63,"Velocity":75,"Duration":88932,"SoundDuration":88932,"Delta":210539644},{"NoteNumber":52,"Velocity":75,"Duration":88932,"SoundDuration":88932,"Delta":210539644},{"NoteNumber":43,"Velocity":62,"Duration":88932,"SoundDuration":88932,"Delta":210539644},{"NoteNumber":46,"Velocity":62,"Duration":88932,"SoundDuration":88932,"Delta":210539644},{"NoteNumber":61,"Velocity":76,"Duration":88816,"SoundDuration":88816,"Delta":210658221},{"NoteNumber":52,"Velocity":76,"Duration":88816,"SoundDuration":88816,"Delta":210658221},{"NoteNumber":43,"Velocity":64,"Duration":88816,"SoundDuration":88816,"Delta":210658221},{"NoteNumber":46,"Velocity":64,"Duration":88816,"SoundDuration":88816,"Delta":210658221},{"NoteNumber":59,"Velocity":77,"Duration":87853,"SoundDuration":87853,"Delta":210776488},{"NoteNumber":52,"Velocity":77,"Duration":87853,"SoundDuration":87853,"Delta":210776488},{"NoteNumber":43,"Velocity":65,"Duration":87853,"SoundDuration":87853,"Delta":210776488},{"NoteNumber":46,"Velocity":65,"Duration":87853,"SoundDuration":87853,"Delta":210776488},{"NoteNumber":53,"Velocity":80,"Duration":86985,"SoundDuration":86985,"Delta":210893448},{"NoteNumber":58,"Velocity":80,"Duration":86985,"SoundDuration":86985,"Delta":210893448},{"NoteNumber":38,"Velocity":67,"Duration":86985,"SoundDuration":86985,"Delta":210893448},{"NoteNumber":47,"Velocity":67,"Duration":86985,"SoundDuration":86985,"Delta":210893448},{"NoteNumber":53,"Velocity":81,"Duration":85987,"SoundDuration":85987,"Delta":211009280},{"NoteNumber":56,"Velocity":81,"Duration":85987,"SoundDuration":85987,"Delta":211009280},{"NoteNumber":38,"Velocity":69,"Duration":85987,"SoundDuration":85987,"Delta":211009280},{"NoteNumber":47,"Velocity":69,"Duration":85987,"SoundDuration":85987,"Delta":211009280},{"NoteNumber":55,"Velocity":81,"Duration":227272,"SoundDuration":227272,"Delta":211123784},{"NoteNumber":39,"Velocity":71,"Duration":227272,"SoundDuration":227272,"Delta":211123784},{"NoteNumber":46,"Velocity":71,"Duration":227272,"SoundDuration":227272,"Delta":211123784},{"NoteNumber":62,"Velocity":81,"Duration":113636,"SoundDuration":113636,"Delta":211351057},{"NoteNumber":50,"Velocity":81,"Duration":102272,"SoundDuration":102272,"Delta":211351057},{"NoteNumber":50,"Velocity":81,"Duration":113493,"SoundDuration":113493,"Delta":211464693},{"NoteNumber":63,"Velocity":81,"Duration":112711,"SoundDuration":112711,"Delta":211578187},{"NoteNumber":51,"Velocity":81,"Duration":101475,"SoundDuration":101475,"Delta":211578187},{"NoteNumber":51,"Velocity":81,"Duration":112219,"SoundDuration":112219,"Delta":211690899},{"NoteNumber":57,"Velocity":81,"Duration":100649,"SoundDuration":100649,"Delta":211803118},{"NoteNumber":69,"Velocity":81,"Duration":111801,"SoundDuration":111801,"Delta":211803118},{"NoteNumber":57,"Velocity":81,"Duration":111317,"SoundDuration":111317,"Delta":211914920},{"NoteNumber":58,"Velocity":81,"Duration":99835,"SoundDuration":99835,"Delta":212026238},{"NoteNumber":70,"Velocity":81,"Duration":110905,"SoundDuration":110905,"Delta":212026238},{"NoteNumber":58,"Velocity":81,"Duration":110429,"SoundDuration":110429,"Delta":212137144},{"NoteNumber":62,"Velocity":81,"Duration":99035,"SoundDuration":99035,"Delta":212247573},{"NoteNumber":74,"Velocity":81,"Duration":110024,"SoundDuration":110024,"Delta":212247573},{"NoteNumber":50,"Velocity":57,"Duration":109423,"SoundDuration":109423,"Delta":212357598},{"NoteNumber":62,"Velocity":69,"Duration":109423,"SoundDuration":109423,"Delta":212357598},{"NoteNumber":63,"Velocity":81,"Duration":97931,"SoundDuration":97931,"Delta":212467021},{"NoteNumber":75,"Velocity":81,"Duration":108762,"SoundDuration":108762,"Delta":212467021},{"NoteNumber":51,"Velocity":56,"Duration":107979,"SoundDuration":107979,"Delta":212575783},{"NoteNumber":63,"Velocity":67,"Duration":107979,"SoundDuration":107979,"Delta":212575783},{"NoteNumber":69,"Velocity":81,"Duration":96531,"SoundDuration":96531,"Delta":212683762},{"NoteNumber":81,"Velocity":81,"Duration":107207,"SoundDuration":107207,"Delta":212683762},{"NoteNumber":57,"Velocity":69,"Duration":106446,"SoundDuration":106446,"Delta":212790970},{"NoteNumber":69,"Velocity":69,"Duration":106446,"SoundDuration":106446,"Delta":212790970},{"NoteNumber":82,"Velocity":81,"Duration":105696,"SoundDuration":105696,"Delta":212897416},{"NoteNumber":70,"Velocity":81,"Duration":95170,"SoundDuration":95170,"Delta":212897416},{"NoteNumber":58,"Velocity":70,"Duration":104956,"SoundDuration":104956,"Delta":213003113},{"NoteNumber":70,"Velocity":70,"Duration":104956,"SoundDuration":104956,"Delta":213003113},{"NoteNumber":86,"Velocity":82,"Duration":104227,"SoundDuration":104227,"Delta":213108069},{"NoteNumber":74,"Velocity":82,"Duration":93846,"SoundDuration":93846,"Delta":213108069},{"NoteNumber":62,"Velocity":71,"Duration":103508,"SoundDuration":103508,"Delta":213212297},{"NoteNumber":74,"Velocity":71,"Duration":103508,"SoundDuration":103508,"Delta":213212297},{"NoteNumber":87,"Velocity":83,"Duration":102798,"SoundDuration":102798,"Delta":213315805},{"NoteNumber":75,"Velocity":83,"Duration":92560,"SoundDuration":92560,"Delta":213315805},{"NoteNumber":63,"Velocity":72,"Duration":102099,"SoundDuration":102099,"Delta":213418604},{"NoteNumber":75,"Velocity":72,"Duration":102099,"SoundDuration":102099,"Delta":213418604},{"NoteNumber":93,"Velocity":84,"Duration":101408,"SoundDuration":101408,"Delta":213520703},{"NoteNumber":81,"Velocity":84,"Duration":91307,"SoundDuration":91307,"Delta":213520703},{"NoteNumber":69,"Velocity":72,"Duration":98964,"SoundDuration":98964,"Delta":213622112},{"NoteNumber":81,"Velocity":72,"Duration":98964,"SoundDuration":98964,"Delta":213622112},{"NoteNumber":94,"Velocity":84,"Duration":114942,"SoundDuration":114942,"Delta":213721077},{"NoteNumber":82,"Velocity":84,"Duration":103448,"SoundDuration":103448,"Delta":213721077},{"NoteNumber":70,"Velocity":72,"Duration":114942,"SoundDuration":114942,"Delta":213836019},{"NoteNumber":82,"Velocity":72,"Duration":114942,"SoundDuration":114942,"Delta":213836019},{"NoteNumber":86,"Velocity":92,"Duration":97472,"SoundDuration":97472,"Delta":213950962},{"NoteNumber":98,"Velocity":92,"Duration":108303,"SoundDuration":108303,"Delta":213950962},{"NoteNumber":74,"Velocity":76,"Duration":108303,"SoundDuration":108303,"Delta":214059265},{"NoteNumber":86,"Velocity":76,"Duration":108303,"SoundDuration":108303,"Delta":214059265},{"NoteNumber":99,"Velocity":89,"Duration":108303,"SoundDuration":108303,"Delta":214167568},{"NoteNumber":87,"Velocity":89,"Duration":97472,"SoundDuration":97472,"Delta":214167568},{"NoteNumber":75,"Velocity":72,"Duration":108303,"SoundDuration":108303,"Delta":214275872},{"NoteNumber":87,"Velocity":72,"Duration":108303,"SoundDuration":108303,"Delta":214275872},{"NoteNumber":98,"Velocity":93,"Duration":105633,"SoundDuration":105633,"Delta":214384175},{"NoteNumber":86,"Velocity":93,"Duration":95070,"SoundDuration":95070,"Delta":214384175},{"NoteNumber":74,"Velocity":76,"Duration":112782,"SoundDuration":112782,"Delta":214489809},{"NoteNumber":86,"Velocity":76,"Duration":112782,"SoundDuration":112782,"Delta":214489809},{"NoteNumber":99,"Velocity":86,"Duration":112781,"SoundDuration":112781,"Delta":214602591},{"NoteNumber":87,"Velocity":86,"Duration":101503,"SoundDuration":101503,"Delta":214602591},{"NoteNumber":75,"Velocity":72,"Duration":112782,"SoundDuration":112782,"Delta":214715373},{"NoteNumber":87,"Velocity":72,"Duration":112782,"SoundDuration":112782,"Delta":214715373},{"NoteNumber":98,"Velocity":87,"Duration":111110,"SoundDuration":111110,"Delta":214828155},{"NoteNumber":86,"Velocity":87,"Duration":99999,"SoundDuration":99999,"Delta":214828155},{"NoteNumber":74,"Velocity":72,"Duration":111110,"SoundDuration":111110,"Delta":214939266},{"NoteNumber":86,"Velocity":72,"Duration":111110,"SoundDuration":111110,"Delta":214939266},{"NoteNumber":99,"Velocity":84,"Duration":111111,"SoundDuration":111111,"Delta":215050377},{"NoteNumber":87,"Velocity":84,"Duration":111111,"SoundDuration":111111,"Delta":215050377},{"NoteNumber":73,"Velocity":72,"Duration":111110,"SoundDuration":111110,"Delta":215161488},{"NoteNumber":85,"Velocity":72,"Duration":111110,"SoundDuration":111110,"Delta":215161488},{"NoteNumber":99,"Velocity":84,"Duration":110294,"SoundDuration":110294,"Delta":215272599},{"NoteNumber":87,"Velocity":84,"Duration":110294,"SoundDuration":110294,"Delta":215272599},{"NoteNumber":70,"Velocity":72,"Duration":110293,"SoundDuration":110293,"Delta":215382893},{"NoteNumber":82,"Velocity":72,"Duration":110293,"SoundDuration":110293,"Delta":215382893},{"NoteNumber":99,"Velocity":86,"Duration":110294,"SoundDuration":110294,"Delta":215493187},{"NoteNumber":87,"Velocity":86,"Duration":110294,"SoundDuration":110294,"Delta":215493187},{"NoteNumber":67,"Velocity":73,"Duration":110294,"SoundDuration":110294,"Delta":215603481},{"NoteNumber":79,"Velocity":73,"Duration":110294,"SoundDuration":110294,"Delta":215603481},{"NoteNumber":99,"Velocity":87,"Duration":110293,"SoundDuration":110293,"Delta":215713775},{"NoteNumber":87,"Velocity":87,"Duration":110293,"SoundDuration":110293,"Delta":215713775},{"NoteNumber":63,"Velocity":73,"Duration":110294,"SoundDuration":110294,"Delta":215824069},{"NoteNumber":75,"Velocity":73,"Duration":110294,"SoundDuration":110294,"Delta":215824069},{"NoteNumber":99,"Velocity":89,"Duration":110293,"SoundDuration":110293,"Delta":215934363},{"NoteNumber":87,"Velocity":89,"Duration":110293,"SoundDuration":110293,"Delta":215934363},{"NoteNumber":61,"Velocity":75,"Duration":110294,"SoundDuration":110294,"Delta":216044657},{"NoteNumber":73,"Velocity":75,"Duration":110294,"SoundDuration":110294,"Delta":216044657},{"NoteNumber":99,"Velocity":89,"Duration":110294,"SoundDuration":110294,"Delta":216154951},{"NoteNumber":87,"Velocity":89,"Duration":110294,"SoundDuration":110294,"Delta":216154951},{"NoteNumber":58,"Velocity":76,"Duration":110293,"SoundDuration":110293,"Delta":216265245},{"NoteNumber":70,"Velocity":76,"Duration":110293,"SoundDuration":110293,"Delta":216265245},{"NoteNumber":99,"Velocity":90,"Duration":110024,"SoundDuration":110024,"Delta":216375539},{"NoteNumber":87,"Velocity":90,"Duration":110024,"SoundDuration":110024,"Delta":216375539},{"NoteNumber":67,"Velocity":77,"Duration":110633,"SoundDuration":110633,"Delta":216485563},{"NoteNumber":55,"Velocity":77,"Duration":110633,"SoundDuration":110633,"Delta":216485563},{"NoteNumber":99,"Velocity":90,"Duration":111317,"SoundDuration":111317,"Delta":216596197},{"NoteNumber":87,"Velocity":90,"Duration":111317,"SoundDuration":111317,"Delta":216596197},{"NoteNumber":63,"Velocity":79,"Duration":112010,"SoundDuration":112010,"Delta":216707515},{"NoteNumber":51,"Velocity":79,"Duration":112010,"SoundDuration":112010,"Delta":216707515},{"NoteNumber":99,"Velocity":91,"Duration":112712,"SoundDuration":112712,"Delta":216819525},{"NoteNumber":87,"Velocity":91,"Duration":112712,"SoundDuration":112712,"Delta":216819525},{"NoteNumber":61,"Velocity":79,"Duration":113421,"SoundDuration":113421,"Delta":216932237},{"NoteNumber":49,"Velocity":79,"Duration":113421,"SoundDuration":113421,"Delta":216932237},{"NoteNumber":99,"Velocity":92,"Duration":114141,"SoundDuration":114141,"Delta":217045659},{"NoteNumber":87,"Velocity":92,"Duration":114141,"SoundDuration":114141,"Delta":217045659},{"NoteNumber":58,"Velocity":80,"Duration":114869,"SoundDuration":114869,"Delta":217159801},{"NoteNumber":46,"Velocity":80,"Duration":114869,"SoundDuration":114869,"Delta":217159801},{"NoteNumber":99,"Velocity":92,"Duration":115607,"SoundDuration":115607,"Delta":217274671},{"NoteNumber":87,"Velocity":92,"Duration":115607,"SoundDuration":115607,"Delta":217274671},{"NoteNumber":55,"Velocity":81,"Duration":116354,"SoundDuration":116354,"Delta":217390278},{"NoteNumber":43,"Velocity":81,"Duration":116354,"SoundDuration":116354,"Delta":217390278},{"NoteNumber":99,"Velocity":93,"Duration":117112,"SoundDuration":117112,"Delta":217506633},{"NoteNumber":87,"Velocity":93,"Duration":117112,"SoundDuration":117112,"Delta":217506633},{"NoteNumber":39,"Velocity":81,"Duration":134529,"SoundDuration":134529,"Delta":217623745},{"NoteNumber":51,"Velocity":81,"Duration":134529,"SoundDuration":134529,"Delta":217623745},{"NoteNumber":87,"Velocity":81,"Duration":93750,"SoundDuration":93750,"Delta":217758274},{"NoteNumber":99,"Velocity":81,"Duration":93750,"SoundDuration":93750,"Delta":217758274},{"NoteNumber":87,"Velocity":77,"Duration":93579,"SoundDuration":93579,"Delta":217883274},{"NoteNumber":99,"Velocity":77,"Duration":93579,"SoundDuration":93579,"Delta":217883274},{"NoteNumber":87,"Velocity":81,"Duration":93621,"SoundDuration":93621,"Delta":218007761},{"NoteNumber":99,"Velocity":81,"Duration":93621,"SoundDuration":93621,"Delta":218007761},{"NoteNumber":87,"Velocity":76,"Duration":92720,"SoundDuration":92720,"Delta":218132416},{"NoteNumber":99,"Velocity":76,"Duration":92720,"SoundDuration":92720,"Delta":218132416},{"NoteNumber":87,"Velocity":79,"Duration":91878,"SoundDuration":91878,"Delta":218255874},{"NoteNumber":99,"Velocity":79,"Duration":91878,"SoundDuration":91878,"Delta":218255874},{"NoteNumber":87,"Velocity":76,"Duration":90970,"SoundDuration":90970,"Delta":218378241},{"NoteNumber":99,"Velocity":76,"Duration":90970,"SoundDuration":90970,"Delta":218378241},{"NoteNumber":87,"Velocity":77,"Duration":90160,"SoundDuration":90160,"Delta":218499454},{"NoteNumber":99,"Velocity":77,"Duration":90160,"SoundDuration":90160,"Delta":218499454},{"NoteNumber":87,"Velocity":76,"Duration":89404,"SoundDuration":89404,"Delta":218619535},{"NoteNumber":99,"Velocity":76,"Duration":89404,"SoundDuration":89404,"Delta":218619535},{"NoteNumber":87,"Velocity":75,"Duration":81227,"SoundDuration":81227,"Delta":218738584},{"NoteNumber":99,"Velocity":75,"Duration":81227,"SoundDuration":81227,"Delta":218738584},{"NoteNumber":87,"Velocity":73,"Duration":81521,"SoundDuration":81521,"Delta":218846887},{"NoteNumber":99,"Velocity":73,"Duration":81521,"SoundDuration":81521,"Delta":218846887},{"NoteNumber":87,"Velocity":73,"Duration":81818,"SoundDuration":81818,"Delta":218955583},{"NoteNumber":99,"Velocity":73,"Duration":81818,"SoundDuration":81818,"Delta":218955583},{"NoteNumber":87,"Velocity":72,"Duration":82116,"SoundDuration":82116,"Delta":219064674},{"NoteNumber":99,"Velocity":72,"Duration":82116,"SoundDuration":82116,"Delta":219064674},{"NoteNumber":87,"Velocity":72,"Duration":82116,"SoundDuration":82116,"Delta":219174163},{"NoteNumber":99,"Velocity":72,"Duration":82116,"SoundDuration":82116,"Delta":219174163},{"NoteNumber":87,"Velocity":70,"Duration":81884,"SoundDuration":81884,"Delta":219283652},{"NoteNumber":99,"Velocity":70,"Duration":81884,"SoundDuration":81884,"Delta":219283652},{"NoteNumber":87,"Velocity":71,"Duration":81719,"SoundDuration":81719,"Delta":219392809},{"NoteNumber":99,"Velocity":71,"Duration":81719,"SoundDuration":81719,"Delta":219392809},{"NoteNumber":87,"Velocity":69,"Duration":81521,"SoundDuration":81521,"Delta":219501702},{"NoteNumber":99,"Velocity":69,"Duration":81521,"SoundDuration":81521,"Delta":219501702},{"NoteNumber":87,"Velocity":76,"Duration":96982,"SoundDuration":96982,"Delta":219610333},{"NoteNumber":99,"Velocity":76,"Duration":96982,"SoundDuration":96982,"Delta":219610333},{"NoteNumber":63,"Velocity":72,"Duration":129310,"SoundDuration":129310,"Delta":219610333},{"NoteNumber":87,"Velocity":70,"Duration":96982,"SoundDuration":96982,"Delta":219739643},{"NoteNumber":99,"Velocity":70,"Duration":96982,"SoundDuration":96982,"Delta":219739643},{"NoteNumber":87,"Velocity":70,"Duration":88764,"SoundDuration":88764,"Delta":219867401},{"NoteNumber":99,"Velocity":70,"Duration":88764,"SoundDuration":88764,"Delta":219867401},{"NoteNumber":75,"Velocity":80,"Duration":118352,"SoundDuration":118352,"Delta":219867401},{"NoteNumber":87,"Velocity":70,"Duration":88764,"SoundDuration":88764,"Delta":219985754},{"NoteNumber":99,"Velocity":70,"Duration":88764,"SoundDuration":88764,"Delta":219985754},{"NoteNumber":87,"Velocity":66,"Duration":88764,"SoundDuration":88764,"Delta":220104106},{"NoteNumber":99,"Velocity":66,"Duration":88764,"SoundDuration":88764,"Delta":220104106},{"NoteNumber":87,"Velocity":66,"Duration":88764,"SoundDuration":88764,"Delta":220222459},{"NoteNumber":99,"Velocity":66,"Duration":88764,"SoundDuration":88764,"Delta":220222459},{"NoteNumber":85,"Velocity":63,"Duration":85350,"SoundDuration":85350,"Delta":220340578},{"NoteNumber":97,"Velocity":63,"Duration":85350,"SoundDuration":85350,"Delta":220340578},{"NoteNumber":85,"Velocity":62,"Duration":85207,"SoundDuration":85207,"Delta":220454378},{"NoteNumber":97,"Velocity":62,"Duration":85207,"SoundDuration":85207,"Delta":220454378},{"NoteNumber":95,"Velocity":66,"Duration":84061,"SoundDuration":84061,"Delta":220567606},{"NoteNumber":83,"Velocity":66,"Duration":84061,"SoundDuration":84061,"Delta":220567606},{"NoteNumber":32,"Velocity":57,"Duration":224164,"SoundDuration":224164,"Delta":220567606},{"NoteNumber":44,"Velocity":64,"Duration":224164,"SoundDuration":224164,"Delta":220567606},{"NoteNumber":95,"Velocity":66,"Duration":84061,"SoundDuration":84061,"Delta":220679688},{"NoteNumber":83,"Velocity":66,"Duration":84061,"SoundDuration":84061,"Delta":220679688},{"NoteNumber":95,"Velocity":66,"Duration":84061,"SoundDuration":84061,"Delta":220791771},{"NoteNumber":83,"Velocity":66,"Duration":84061,"SoundDuration":84061,"Delta":220791771},{"NoteNumber":51,"Velocity":53,"Duration":84061,"SoundDuration":84061,"Delta":220791771},{"NoteNumber":63,"Velocity":59,"Duration":84061,"SoundDuration":84061,"Delta":220791771},{"NoteNumber":59,"Velocity":53,"Duration":84061,"SoundDuration":84061,"Delta":220791771},{"NoteNumber":95,"Velocity":66,"Duration":84061,"SoundDuration":84061,"Delta":220903853},{"NoteNumber":83,"Velocity":66,"Duration":84061,"SoundDuration":84061,"Delta":220903853},{"NoteNumber":51,"Velocity":53,"Duration":84061,"SoundDuration":84061,"Delta":220903853},{"NoteNumber":59,"Velocity":53,"Duration":84061,"SoundDuration":84061,"Delta":220903853},{"NoteNumber":63,"Velocity":59,"Duration":84061,"SoundDuration":84061,"Delta":220903853},{"NoteNumber":94,"Velocity":62,"Duration":84377,"SoundDuration":84377,"Delta":221015936},{"NoteNumber":82,"Velocity":62,"Duration":84377,"SoundDuration":84377,"Delta":221015936},{"NoteNumber":56,"Velocity":53,"Duration":225005,"SoundDuration":225005,"Delta":221015936},{"NoteNumber":59,"Velocity":53,"Duration":225005,"SoundDuration":225005,"Delta":221015936},{"NoteNumber":63,"Velocity":59,"Duration":225005,"SoundDuration":225005,"Delta":221015936},{"NoteNumber":94,"Velocity":62,"Duration":84377,"SoundDuration":84377,"Delta":221128438},{"NoteNumber":82,"Velocity":62,"Duration":84377,"SoundDuration":84377,"Delta":221128438},{"NoteNumber":92,"Velocity":63,"Duration":82496,"SoundDuration":82496,"Delta":221240941},{"NoteNumber":80,"Velocity":63,"Duration":82496,"SoundDuration":82496,"Delta":221240941},{"NoteNumber":35,"Velocity":64,"Duration":219989,"SoundDuration":219989,"Delta":221240941},{"NoteNumber":47,"Velocity":64,"Duration":219989,"SoundDuration":219989,"Delta":221240941},{"NoteNumber":92,"Velocity":63,"Duration":82496,"SoundDuration":82496,"Delta":221350936},{"NoteNumber":80,"Velocity":63,"Duration":82496,"SoundDuration":82496,"Delta":221350936},{"NoteNumber":91,"Velocity":62,"Duration":82496,"SoundDuration":82496,"Delta":221460931},{"NoteNumber":79,"Velocity":62,"Duration":82496,"SoundDuration":82496,"Delta":221460931},{"NoteNumber":51,"Velocity":53,"Duration":82496,"SoundDuration":82496,"Delta":221460931},{"NoteNumber":59,"Velocity":53,"Duration":82496,"SoundDuration":82496,"Delta":221460931},{"NoteNumber":63,"Velocity":59,"Duration":82496,"SoundDuration":82496,"Delta":221460931},{"NoteNumber":91,"Velocity":62,"Duration":82496,"SoundDuration":82496,"Delta":221570925},{"NoteNumber":79,"Velocity":62,"Duration":82496,"SoundDuration":82496,"Delta":221570925},{"NoteNumber":63,"Velocity":59,"Duration":82496,"SoundDuration":82496,"Delta":221570925},{"NoteNumber":59,"Velocity":53,"Duration":82496,"SoundDuration":82496,"Delta":221570925},{"NoteNumber":51,"Velocity":53,"Duration":82496,"SoundDuration":82496,"Delta":221570925},{"NoteNumber":92,"Velocity":62,"Duration":81286,"SoundDuration":81286,"Delta":221680920},{"NoteNumber":80,"Velocity":62,"Duration":81286,"SoundDuration":81286,"Delta":221680920},{"NoteNumber":56,"Velocity":53,"Duration":216762,"SoundDuration":216762,"Delta":221680920},{"NoteNumber":59,"Velocity":53,"Duration":216762,"SoundDuration":216762,"Delta":221680920},{"NoteNumber":63,"Velocity":59,"Duration":216762,"SoundDuration":216762,"Delta":221680920},{"NoteNumber":92,"Velocity":62,"Duration":81286,"SoundDuration":81286,"Delta":221789302},{"NoteNumber":80,"Velocity":62,"Duration":81286,"SoundDuration":81286,"Delta":221789302},{"NoteNumber":94,"Velocity":66,"Duration":82805,"SoundDuration":82805,"Delta":221897683},{"NoteNumber":82,"Velocity":66,"Duration":82805,"SoundDuration":82805,"Delta":221897683},{"NoteNumber":39,"Velocity":55,"Duration":220815,"SoundDuration":220815,"Delta":221897683},{"NoteNumber":51,"Velocity":63,"Duration":220815,"SoundDuration":220815,"Delta":221897683},{"NoteNumber":94,"Velocity":66,"Duration":82805,"SoundDuration":82805,"Delta":222008091},{"NoteNumber":82,"Velocity":66,"Duration":82805,"SoundDuration":82805,"Delta":222008091},{"NoteNumber":87,"Velocity":62,"Duration":82805,"SoundDuration":82805,"Delta":222118499},{"NoteNumber":75,"Velocity":62,"Duration":82805,"SoundDuration":82805,"Delta":222118499},{"NoteNumber":55,"Velocity":53,"Duration":82805,"SoundDuration":82805,"Delta":222118499},{"NoteNumber":63,"Velocity":53,"Duration":82805,"SoundDuration":82805,"Delta":222118499},{"NoteNumber":67,"Velocity":59,"Duration":82805,"SoundDuration":82805,"Delta":222118499},{"NoteNumber":87,"Velocity":62,"Duration":82805,"SoundDuration":82805,"Delta":222228906},{"NoteNumber":75,"Velocity":62,"Duration":82805,"SoundDuration":82805,"Delta":222228906},{"NoteNumber":55,"Velocity":53,"Duration":82805,"SoundDuration":82805,"Delta":222228906},{"NoteNumber":63,"Velocity":53,"Duration":82805,"SoundDuration":82805,"Delta":222228906},{"NoteNumber":67,"Velocity":59,"Duration":82805,"SoundDuration":82805,"Delta":222228906},{"NoteNumber":87,"Velocity":62,"Duration":80697,"SoundDuration":80697,"Delta":222339314},{"NoteNumber":75,"Velocity":62,"Duration":80697,"SoundDuration":80697,"Delta":222339314},{"NoteNumber":58,"Velocity":53,"Duration":215192,"SoundDuration":215192,"Delta":222339314},{"NoteNumber":63,"Velocity":53,"Duration":215192,"SoundDuration":215192,"Delta":222339314},{"NoteNumber":67,"Velocity":59,"Duration":215192,"SoundDuration":215192,"Delta":222339314},{"NoteNumber":87,"Velocity":62,"Duration":80697,"SoundDuration":80697,"Delta":222446910},{"NoteNumber":75,"Velocity":62,"Duration":80697,"SoundDuration":80697,"Delta":222446910},{"NoteNumber":88,"Velocity":64,"Duration":80993,"SoundDuration":80993,"Delta":222554507},{"NoteNumber":76,"Velocity":64,"Duration":80993,"SoundDuration":80993,"Delta":222554507},{"NoteNumber":43,"Velocity":60,"Duration":215982,"SoundDuration":215982,"Delta":222554507},{"NoteNumber":55,"Velocity":60,"Duration":215982,"SoundDuration":215982,"Delta":222554507},{"NoteNumber":88,"Velocity":64,"Duration":80993,"SoundDuration":80993,"Delta":222662498},{"NoteNumber":76,"Velocity":64,"Duration":80993,"SoundDuration":80993,"Delta":222662498},{"NoteNumber":87,"Velocity":64,"Duration":80993,"SoundDuration":80993,"Delta":222770489},{"NoteNumber":75,"Velocity":64,"Duration":80993,"SoundDuration":80993,"Delta":222770489},{"NoteNumber":61,"Velocity":47,"Duration":80993,"SoundDuration":80993,"Delta":222770489},{"NoteNumber":63,"Velocity":47,"Duration":80993,"SoundDuration":80993,"Delta":222770489},{"NoteNumber":70,"Velocity":54,"Duration":80993,"SoundDuration":80993,"Delta":222770489},{"NoteNumber":87,"Velocity":62,"Duration":80993,"SoundDuration":80993,"Delta":222878480},{"NoteNumber":75,"Velocity":62,"Duration":80993,"SoundDuration":80993,"Delta":222878480},{"NoteNumber":61,"Velocity":47,"Duration":80993,"SoundDuration":80993,"Delta":222878480},{"NoteNumber":63,"Velocity":47,"Duration":80993,"SoundDuration":80993,"Delta":222878480},{"NoteNumber":70,"Velocity":54,"Duration":80993,"SoundDuration":80993,"Delta":222878480},{"NoteNumber":85,"Velocity":62,"Duration":80402,"SoundDuration":80402,"Delta":222986472},{"NoteNumber":73,"Velocity":62,"Duration":80402,"SoundDuration":80402,"Delta":222986472},{"NoteNumber":61,"Velocity":47,"Duration":214407,"SoundDuration":214407,"Delta":222986472},{"NoteNumber":63,"Velocity":47,"Duration":214407,"SoundDuration":214407,"Delta":222986472},{"NoteNumber":70,"Velocity":54,"Duration":214407,"SoundDuration":214407,"Delta":222986472},{"NoteNumber":85,"Velocity":62,"Duration":80403,"SoundDuration":80403,"Delta":223093676},{"NoteNumber":73,"Velocity":62,"Duration":80403,"SoundDuration":80403,"Delta":223093676},{"NoteNumber":83,"Velocity":63,"Duration":81286,"SoundDuration":81286,"Delta":223200880},{"NoteNumber":71,"Velocity":63,"Duration":81286,"SoundDuration":81286,"Delta":223200880},{"NoteNumber":56,"Velocity":62,"Duration":216762,"SoundDuration":216762,"Delta":223200880},{"NoteNumber":44,"Velocity":54,"Duration":216762,"SoundDuration":216762,"Delta":223200880},{"NoteNumber":83,"Velocity":63,"Duration":81286,"SoundDuration":81286,"Delta":223309261},{"NoteNumber":71,"Velocity":63,"Duration":81286,"SoundDuration":81286,"Delta":223309261},{"NoteNumber":83,"Velocity":63,"Duration":81286,"SoundDuration":81286,"Delta":223417643},{"NoteNumber":71,"Velocity":63,"Duration":81286,"SoundDuration":81286,"Delta":223417643},{"NoteNumber":59,"Velocity":49,"Duration":81286,"SoundDuration":81286,"Delta":223417643},{"NoteNumber":63,"Velocity":49,"Duration":81286,"SoundDuration":81286,"Delta":223417643},{"NoteNumber":68,"Velocity":54,"Duration":81286,"SoundDuration":81286,"Delta":223417643},{"NoteNumber":83,"Velocity":62,"Duration":81286,"SoundDuration":81286,"Delta":223526024},{"NoteNumber":71,"Velocity":62,"Duration":81286,"SoundDuration":81286,"Delta":223526024},{"NoteNumber":59,"Velocity":49,"Duration":81286,"SoundDuration":81286,"Delta":223526024},{"NoteNumber":63,"Velocity":49,"Duration":81286,"SoundDuration":81286,"Delta":223526024},{"NoteNumber":68,"Velocity":54,"Duration":81286,"SoundDuration":81286,"Delta":223526024},{"NoteNumber":82,"Velocity":63,"Duration":79826,"SoundDuration":79826,"Delta":223634406},{"NoteNumber":70,"Velocity":63,"Duration":79826,"SoundDuration":79826,"Delta":223634406},{"NoteNumber":59,"Velocity":49,"Duration":212871,"SoundDuration":212871,"Delta":223634406},{"NoteNumber":63,"Velocity":54,"Duration":212871,"SoundDuration":212871,"Delta":223634406},{"NoteNumber":82,"Velocity":63,"Duration":79826,"SoundDuration":79826,"Delta":223740841},{"NoteNumber":70,"Velocity":63,"Duration":79826,"SoundDuration":79826,"Delta":223740841},{"NoteNumber":80,"Velocity":65,"Duration":80697,"SoundDuration":80697,"Delta":223847277},{"NoteNumber":68,"Velocity":65,"Duration":80697,"SoundDuration":80697,"Delta":223847277},{"NoteNumber":40,"Velocity":59,"Duration":215192,"SoundDuration":215192,"Delta":223847277},{"NoteNumber":80,"Velocity":65,"Duration":80697,"SoundDuration":80697,"Delta":223954873},{"NoteNumber":68,"Velocity":65,"Duration":80697,"SoundDuration":80697,"Delta":223954873},{"NoteNumber":79,"Velocity":62,"Duration":79826,"SoundDuration":79826,"Delta":224062470},{"NoteNumber":67,"Velocity":62,"Duration":79826,"SoundDuration":79826,"Delta":224062470},{"NoteNumber":62,"Velocity":56,"Duration":79826,"SoundDuration":79826,"Delta":224062470},{"NoteNumber":58,"Velocity":51,"Duration":79826,"SoundDuration":79826,"Delta":224062470},{"NoteNumber":79,"Velocity":62,"Duration":79826,"SoundDuration":79826,"Delta":224168905},{"NoteNumber":67,"Velocity":62,"Duration":79826,"SoundDuration":79826,"Delta":224168905},{"NoteNumber":62,"Velocity":56,"Duration":79826,"SoundDuration":79826,"Delta":224168905},{"NoteNumber":58,"Velocity":51,"Duration":79826,"SoundDuration":79826,"Delta":224168905},{"NoteNumber":80,"Velocity":63,"Duration":78975,"SoundDuration":78975,"Delta":224275341},{"NoteNumber":68,"Velocity":63,"Duration":78975,"SoundDuration":78975,"Delta":224275341},{"NoteNumber":58,"Velocity":51,"Duration":210599,"SoundDuration":210599,"Delta":224275341},{"NoteNumber":62,"Velocity":56,"Duration":210599,"SoundDuration":210599,"Delta":224275341},{"NoteNumber":80,"Velocity":63,"Duration":78975,"SoundDuration":78975,"Delta":224380641},{"NoteNumber":68,"Velocity":63,"Duration":78975,"SoundDuration":78975,"Delta":224380641},{"NoteNumber":82,"Velocity":65,"Duration":81286,"SoundDuration":81286,"Delta":224485941},{"NoteNumber":70,"Velocity":65,"Duration":81286,"SoundDuration":81286,"Delta":224485941},{"NoteNumber":39,"Velocity":60,"Duration":217634,"SoundDuration":217634,"Delta":224485941},{"NoteNumber":82,"Velocity":64,"Duration":81286,"SoundDuration":81286,"Delta":224594323},{"NoteNumber":70,"Velocity":64,"Duration":81286,"SoundDuration":81286,"Delta":224594323},{"NoteNumber":63,"Velocity":59,"Duration":85335,"SoundDuration":85335,"Delta":224703576},{"NoteNumber":75,"Velocity":59,"Duration":85335,"SoundDuration":85335,"Delta":224703576},{"NoteNumber":55,"Velocity":50,"Duration":85335,"SoundDuration":85335,"Delta":224703576},{"NoteNumber":58,"Velocity":55,"Duration":85335,"SoundDuration":85335,"Delta":224703576},{"NoteNumber":75,"Velocity":59,"Duration":86274,"SoundDuration":86274,"Delta":224817441},{"NoteNumber":63,"Velocity":59,"Duration":86274,"SoundDuration":86274,"Delta":224817441},{"NoteNumber":55,"Velocity":50,"Duration":86274,"SoundDuration":86274,"Delta":224817441},{"NoteNumber":58,"Velocity":55,"Duration":86274,"SoundDuration":86274,"Delta":224817441},{"NoteNumber":87,"Velocity":63,"Duration":103706,"SoundDuration":103706,"Delta":224932861},{"NoteNumber":75,"Velocity":63,"Duration":103706,"SoundDuration":103706,"Delta":224932861},{"NoteNumber":63,"Velocity":57,"Duration":274939,"SoundDuration":274939,"Delta":224932861},{"NoteNumber":58,"Velocity":52,"Duration":274939,"SoundDuration":274939,"Delta":224932861},{"NoteNumber":55,"Velocity":52,"Duration":274939,"SoundDuration":274939,"Delta":224932861},{"NoteNumber":87,"Velocity":63,"Duration":102739,"SoundDuration":102739,"Delta":225070815},{"NoteNumber":75,"Velocity":63,"Duration":102739,"SoundDuration":102739,"Delta":225070815},{"NoteNumber":99,"Velocity":77,"Duration":95744,"SoundDuration":95744,"Delta":225207801},{"NoteNumber":87,"Velocity":77,"Duration":95744,"SoundDuration":95744,"Delta":225207801},{"NoteNumber":67,"Velocity":52,"Duration":255318,"SoundDuration":255318,"Delta":225207801},{"NoteNumber":70,"Velocity":52,"Duration":255318,"SoundDuration":255318,"Delta":225207801},{"NoteNumber":75,"Velocity":57,"Duration":255318,"SoundDuration":255318,"Delta":225207801},{"NoteNumber":87,"Velocity":77,"Duration":95744,"SoundDuration":95744,"Delta":225335460},{"NoteNumber":99,"Velocity":77,"Duration":95744,"SoundDuration":95744,"Delta":225335460},{"NoteNumber":99,"Velocity":77,"Duration":95744,"SoundDuration":95744,"Delta":225463120},{"NoteNumber":87,"Velocity":77,"Duration":95744,"SoundDuration":95744,"Delta":225463120},{"NoteNumber":99,"Velocity":77,"Duration":95744,"SoundDuration":95744,"Delta":225590779},{"NoteNumber":87,"Velocity":77,"Duration":95744,"SoundDuration":95744,"Delta":225590779},{"NoteNumber":97,"Velocity":75,"Duration":94142,"SoundDuration":94142,"Delta":225718439},{"NoteNumber":85,"Velocity":75,"Duration":94142,"SoundDuration":94142,"Delta":225718439},{"NoteNumber":85,"Velocity":75,"Duration":94142,"SoundDuration":94142,"Delta":225843962},{"NoteNumber":97,"Velocity":75,"Duration":94142,"SoundDuration":94142,"Delta":225843962},{"NoteNumber":96,"Velocity":75,"Duration":91836,"SoundDuration":91836,"Delta":225969485},{"NoteNumber":84,"Velocity":75,"Duration":91836,"SoundDuration":91836,"Delta":225969485},{"NoteNumber":32,"Velocity":69,"Duration":244898,"SoundDuration":244898,"Delta":225969485},{"NoteNumber":44,"Velocity":76,"Duration":244898,"SoundDuration":244898,"Delta":225969485},{"NoteNumber":84,"Velocity":75,"Duration":91836,"SoundDuration":91836,"Delta":226091934},{"NoteNumber":96,"Velocity":75,"Duration":91836,"SoundDuration":91836,"Delta":226091934},{"NoteNumber":84,"Velocity":72,"Duration":91836,"SoundDuration":91836,"Delta":226214383},{"NoteNumber":96,"Velocity":72,"Duration":91836,"SoundDuration":91836,"Delta":226214383},{"NoteNumber":63,"Velocity":55,"Duration":91836,"SoundDuration":91836,"Delta":226214383},{"NoteNumber":57,"Velocity":50,"Duration":91836,"SoundDuration":91836,"Delta":226214383},{"NoteNumber":54,"Velocity":50,"Duration":91836,"SoundDuration":91836,"Delta":226214383},{"NoteNumber":84,"Velocity":72,"Duration":91836,"SoundDuration":91836,"Delta":226336832},{"NoteNumber":96,"Velocity":72,"Duration":91836,"SoundDuration":91836,"Delta":226336832},{"NoteNumber":54,"Velocity":50,"Duration":91836,"SoundDuration":91836,"Delta":226336832},{"NoteNumber":57,"Velocity":50,"Duration":91836,"SoundDuration":91836,"Delta":226336832},{"NoteNumber":63,"Velocity":55,"Duration":91836,"SoundDuration":91836,"Delta":226336832},{"NoteNumber":93,"Velocity":71,"Duration":92975,"SoundDuration":92975,"Delta":226459281},{"NoteNumber":81,"Velocity":71,"Duration":92975,"SoundDuration":92975,"Delta":226459281},{"NoteNumber":54,"Velocity":50,"Duration":247933,"SoundDuration":247933,"Delta":226459281},{"NoteNumber":57,"Velocity":50,"Duration":247933,"SoundDuration":247933,"Delta":226459281},{"NoteNumber":63,"Velocity":55,"Duration":247933,"SoundDuration":247933,"Delta":226459281},{"NoteNumber":81,"Velocity":71,"Duration":92975,"SoundDuration":92975,"Delta":226583248},{"NoteNumber":93,"Velocity":71,"Duration":92975,"SoundDuration":92975,"Delta":226583248},{"NoteNumber":92,"Velocity":73,"Duration":89285,"SoundDuration":89285,"Delta":226707215},{"NoteNumber":80,"Velocity":73,"Duration":89285,"SoundDuration":89285,"Delta":226707215},{"NoteNumber":36,"Velocity":71,"Duration":238094,"SoundDuration":238094,"Delta":226707215},{"NoteNumber":48,"Velocity":80,"Duration":238094,"SoundDuration":238094,"Delta":226707215},{"NoteNumber":80,"Velocity":73,"Duration":89285,"SoundDuration":89285,"Delta":226826262},{"NoteNumber":92,"Velocity":73,"Duration":89285,"SoundDuration":89285,"Delta":226826262},{"NoteNumber":92,"Velocity":73,"Duration":89285,"SoundDuration":89285,"Delta":226945310},{"NoteNumber":80,"Velocity":73,"Duration":89285,"SoundDuration":89285,"Delta":226945310},{"NoteNumber":57,"Velocity":53,"Duration":89285,"SoundDuration":89285,"Delta":226945310},{"NoteNumber":63,"Velocity":53,"Duration":89285,"SoundDuration":89285,"Delta":226945310},{"NoteNumber":69,"Velocity":60,"Duration":89285,"SoundDuration":89285,"Delta":226945310},{"NoteNumber":80,"Velocity":73,"Duration":89285,"SoundDuration":89285,"Delta":227064357},{"NoteNumber":92,"Velocity":73,"Duration":89285,"SoundDuration":89285,"Delta":227064357},{"NoteNumber":57,"Velocity":53,"Duration":89285,"SoundDuration":89285,"Delta":227064357},{"NoteNumber":63,"Velocity":53,"Duration":89285,"SoundDuration":89285,"Delta":227064357},{"NoteNumber":69,"Velocity":60,"Duration":89285,"SoundDuration":89285,"Delta":227064357},{"NoteNumber":90,"Velocity":76,"Duration":91463,"SoundDuration":91463,"Delta":227183405},{"NoteNumber":78,"Velocity":76,"Duration":91463,"SoundDuration":91463,"Delta":227183405},{"NoteNumber":57,"Velocity":53,"Duration":243902,"SoundDuration":243902,"Delta":227183405},{"NoteNumber":63,"Velocity":53,"Duration":243902,"SoundDuration":243902,"Delta":227183405},{"NoteNumber":69,"Velocity":60,"Duration":243902,"SoundDuration":243902,"Delta":227183405},{"NoteNumber":78,"Velocity":76,"Duration":91463,"SoundDuration":91463,"Delta":227305356},{"NoteNumber":90,"Velocity":76,"Duration":91463,"SoundDuration":91463,"Delta":227305356},{"NoteNumber":88,"Velocity":81,"Duration":254237,"SoundDuration":254237,"Delta":227427307},{"NoteNumber":76,"Velocity":81,"Duration":254237,"SoundDuration":254237,"Delta":227427307},{"NoteNumber":37,"Velocity":82,"Duration":254237,"SoundDuration":254237,"Delta":227427307},{"NoteNumber":49,"Velocity":82,"Duration":254237,"SoundDuration":254237,"Delta":227427307},{"NoteNumber":64,"Velocity":49,"Duration":93750,"SoundDuration":93750,"Delta":227681545},{"NoteNumber":69,"Velocity":49,"Duration":93750,"SoundDuration":93750,"Delta":227681545},{"NoteNumber":73,"Velocity":54,"Duration":93750,"SoundDuration":93750,"Delta":227681545},{"NoteNumber":52,"Velocity":44,"Duration":93750,"SoundDuration":93750,"Delta":227681545},{"NoteNumber":57,"Velocity":44,"Duration":93750,"SoundDuration":93750,"Delta":227681545},{"NoteNumber":61,"Velocity":50,"Duration":93750,"SoundDuration":93750,"Delta":227681545},{"NoteNumber":64,"Velocity":49,"Duration":93750,"SoundDuration":93750,"Delta":227806545},{"NoteNumber":69,"Velocity":49,"Duration":93750,"SoundDuration":93750,"Delta":227806545},{"NoteNumber":73,"Velocity":54,"Duration":93750,"SoundDuration":93750,"Delta":227806545},{"NoteNumber":52,"Velocity":44,"Duration":93750,"SoundDuration":93750,"Delta":227806545},{"NoteNumber":57,"Velocity":44,"Duration":93750,"SoundDuration":93750,"Delta":227806545},{"NoteNumber":61,"Velocity":50,"Duration":93750,"SoundDuration":93750,"Delta":227806545},{"NoteNumber":64,"Velocity":51,"Duration":92592,"SoundDuration":92592,"Delta":227931545},{"NoteNumber":69,"Velocity":51,"Duration":92592,"SoundDuration":92592,"Delta":227931545},{"NoteNumber":75,"Velocity":56,"Duration":92592,"SoundDuration":92592,"Delta":227931545},{"NoteNumber":51,"Velocity":47,"Duration":92592,"SoundDuration":92592,"Delta":227931545},{"NoteNumber":57,"Velocity":47,"Duration":92592,"SoundDuration":92592,"Delta":227931545},{"NoteNumber":61,"Velocity":54,"Duration":92592,"SoundDuration":92592,"Delta":227931545},{"NoteNumber":64,"Velocity":51,"Duration":92592,"SoundDuration":92592,"Delta":228055002},{"NoteNumber":69,"Velocity":51,"Duration":92592,"SoundDuration":92592,"Delta":228055002},{"NoteNumber":75,"Velocity":56,"Duration":92592,"SoundDuration":92592,"Delta":228055002},{"NoteNumber":51,"Velocity":47,"Duration":92592,"SoundDuration":92592,"Delta":228055002},{"NoteNumber":57,"Velocity":47,"Duration":92592,"SoundDuration":92592,"Delta":228055002},{"NoteNumber":61,"Velocity":54,"Duration":92592,"SoundDuration":92592,"Delta":228055002},{"NoteNumber":64,"Velocity":54,"Duration":91093,"SoundDuration":91093,"Delta":228178458},{"NoteNumber":69,"Velocity":54,"Duration":91093,"SoundDuration":91093,"Delta":228178458},{"NoteNumber":76,"Velocity":62,"Duration":91093,"SoundDuration":91093,"Delta":228178458},{"NoteNumber":49,"Velocity":50,"Duration":91093,"SoundDuration":91093,"Delta":228178458},{"NoteNumber":57,"Velocity":50,"Duration":91093,"SoundDuration":91093,"Delta":228178458},{"NoteNumber":61,"Velocity":55,"Duration":91093,"SoundDuration":91093,"Delta":228178458},{"NoteNumber":64,"Velocity":54,"Duration":91093,"SoundDuration":91093,"Delta":228299916},{"NoteNumber":69,"Velocity":54,"Duration":91093,"SoundDuration":91093,"Delta":228299916},{"NoteNumber":76,"Velocity":62,"Duration":91093,"SoundDuration":91093,"Delta":228299916},{"NoteNumber":49,"Velocity":50,"Duration":91093,"SoundDuration":91093,"Delta":228299916},{"NoteNumber":57,"Velocity":50,"Duration":91093,"SoundDuration":91093,"Delta":228299916},{"NoteNumber":61,"Velocity":55,"Duration":91093,"SoundDuration":91093,"Delta":228299916},{"NoteNumber":64,"Velocity":53,"Duration":90361,"SoundDuration":90361,"Delta":228421373},{"NoteNumber":69,"Velocity":53,"Duration":90361,"SoundDuration":90361,"Delta":228421373},{"NoteNumber":75,"Velocity":60,"Duration":90361,"SoundDuration":90361,"Delta":228421373},{"NoteNumber":51,"Velocity":47,"Duration":90361,"SoundDuration":90361,"Delta":228421373},{"NoteNumber":57,"Velocity":47,"Duration":90361,"SoundDuration":90361,"Delta":228421373},{"NoteNumber":61,"Velocity":54,"Duration":90361,"SoundDuration":90361,"Delta":228421373},{"NoteNumber":64,"Velocity":53,"Duration":90361,"SoundDuration":90361,"Delta":228541855},{"NoteNumber":69,"Velocity":53,"Duration":90361,"SoundDuration":90361,"Delta":228541855},{"NoteNumber":75,"Velocity":60,"Duration":90361,"SoundDuration":90361,"Delta":228541855},{"NoteNumber":51,"Velocity":47,"Duration":90361,"SoundDuration":90361,"Delta":228541855},{"NoteNumber":57,"Velocity":47,"Duration":90361,"SoundDuration":90361,"Delta":228541855},{"NoteNumber":61,"Velocity":54,"Duration":90361,"SoundDuration":90361,"Delta":228541855},{"NoteNumber":64,"Velocity":50,"Duration":90361,"SoundDuration":90361,"Delta":228662337},{"NoteNumber":69,"Velocity":50,"Duration":90361,"SoundDuration":90361,"Delta":228662337},{"NoteNumber":73,"Velocity":55,"Duration":90361,"SoundDuration":90361,"Delta":228662337},{"NoteNumber":52,"Velocity":45,"Duration":90361,"SoundDuration":90361,"Delta":228662337},{"NoteNumber":57,"Velocity":45,"Duration":90361,"SoundDuration":90361,"Delta":228662337},{"NoteNumber":61,"Velocity":51,"Duration":90361,"SoundDuration":90361,"Delta":228662337},{"NoteNumber":64,"Velocity":50,"Duration":90361,"SoundDuration":90361,"Delta":228782819},{"NoteNumber":69,"Velocity":50,"Duration":90361,"SoundDuration":90361,"Delta":228782819},{"NoteNumber":73,"Velocity":55,"Duration":90361,"SoundDuration":90361,"Delta":228782819},{"NoteNumber":52,"Velocity":45,"Duration":90361,"SoundDuration":90361,"Delta":228782819},{"NoteNumber":57,"Velocity":45,"Duration":90361,"SoundDuration":90361,"Delta":228782819},{"NoteNumber":61,"Velocity":51,"Duration":90361,"SoundDuration":90361,"Delta":228782819},{"NoteNumber":63,"Velocity":45,"Duration":133333,"SoundDuration":133333,"Delta":228903301},{"NoteNumber":68,"Velocity":45,"Duration":133333,"SoundDuration":133333,"Delta":228903301},{"NoteNumber":71,"Velocity":45,"Duration":133333,"SoundDuration":133333,"Delta":228903301},{"NoteNumber":75,"Velocity":52,"Duration":133333,"SoundDuration":133333,"Delta":228903301},{"NoteNumber":51,"Velocity":41,"Duration":133333,"SoundDuration":133333,"Delta":228903301},{"NoteNumber":56,"Velocity":41,"Duration":133333,"SoundDuration":133333,"Delta":228903301},{"NoteNumber":59,"Velocity":45,"Duration":133333,"SoundDuration":133333,"Delta":228903301},{"NoteNumber":64,"Velocity":54,"Duration":120000,"SoundDuration":120000,"Delta":229036635},{"NoteNumber":76,"Velocity":54,"Duration":120000,"SoundDuration":120000,"Delta":229036635},{"NoteNumber":50,"Velocity":46,"Duration":120000,"SoundDuration":120000,"Delta":229036635},{"NoteNumber":62,"Velocity":46,"Duration":120000,"SoundDuration":120000,"Delta":229036635},{"NoteNumber":65,"Velocity":54,"Duration":120000,"SoundDuration":120000,"Delta":229156635},{"NoteNumber":77,"Velocity":54,"Duration":120000,"SoundDuration":120000,"Delta":229156635},{"NoteNumber":49,"Velocity":47,"Duration":120000,"SoundDuration":120000,"Delta":229156635},{"NoteNumber":61,"Velocity":47,"Duration":120000,"SoundDuration":120000,"Delta":229156635},{"NoteNumber":66,"Velocity":55,"Duration":120000,"SoundDuration":120000,"Delta":229276635},{"NoteNumber":78,"Velocity":55,"Duration":120000,"SoundDuration":120000,"Delta":229276635},{"NoteNumber":48,"Velocity":49,"Duration":120000,"SoundDuration":120000,"Delta":229276635},{"NoteNumber":60,"Velocity":49,"Duration":120000,"SoundDuration":120000,"Delta":229276635},{"NoteNumber":67,"Velocity":57,"Duration":119999,"SoundDuration":119999,"Delta":229396635},{"NoteNumber":79,"Velocity":57,"Duration":119999,"SoundDuration":119999,"Delta":229396635},{"NoteNumber":47,"Velocity":50,"Duration":119999,"SoundDuration":119999,"Delta":229396635},{"NoteNumber":59,"Velocity":50,"Duration":119999,"SoundDuration":119999,"Delta":229396635},{"NoteNumber":68,"Velocity":59,"Duration":120000,"SoundDuration":120000,"Delta":229516635},{"NoteNumber":80,"Velocity":59,"Duration":120000,"SoundDuration":120000,"Delta":229516635},{"NoteNumber":46,"Velocity":51,"Duration":120000,"SoundDuration":120000,"Delta":229516635},{"NoteNumber":58,"Velocity":51,"Duration":120000,"SoundDuration":120000,"Delta":229516635},{"NoteNumber":69,"Velocity":60,"Duration":120000,"SoundDuration":120000,"Delta":229636635},{"NoteNumber":81,"Velocity":60,"Duration":120000,"SoundDuration":120000,"Delta":229636635},{"NoteNumber":45,"Velocity":54,"Duration":120000,"SoundDuration":120000,"Delta":229636635},{"NoteNumber":57,"Velocity":54,"Duration":120000,"SoundDuration":120000,"Delta":229636635},{"NoteNumber":70,"Velocity":62,"Duration":120000,"SoundDuration":120000,"Delta":229756635},{"NoteNumber":82,"Velocity":62,"Duration":120000,"SoundDuration":120000,"Delta":229756635},{"NoteNumber":44,"Velocity":54,"Duration":120000,"SoundDuration":120000,"Delta":229756635},{"NoteNumber":56,"Velocity":54,"Duration":120000,"SoundDuration":120000,"Delta":229756635},{"NoteNumber":71,"Velocity":63,"Duration":118576,"SoundDuration":118576,"Delta":229876635},{"NoteNumber":83,"Velocity":63,"Duration":118576,"SoundDuration":118576,"Delta":229876635},{"NoteNumber":43,"Velocity":55,"Duration":118576,"SoundDuration":118576,"Delta":229876635},{"NoteNumber":55,"Velocity":55,"Duration":118576,"SoundDuration":118576,"Delta":229876635},{"NoteNumber":72,"Velocity":64,"Duration":118577,"SoundDuration":118577,"Delta":229995212},{"NoteNumber":84,"Velocity":64,"Duration":118577,"SoundDuration":118577,"Delta":229995212},{"NoteNumber":42,"Velocity":56,"Duration":118577,"SoundDuration":118577,"Delta":229995212},{"NoteNumber":54,"Velocity":56,"Duration":118577,"SoundDuration":118577,"Delta":229995212},{"NoteNumber":73,"Velocity":66,"Duration":118421,"SoundDuration":118421,"Delta":230113789},{"NoteNumber":85,"Velocity":66,"Duration":118421,"SoundDuration":118421,"Delta":230113789},{"NoteNumber":41,"Velocity":57,"Duration":118421,"SoundDuration":118421,"Delta":230113789},{"NoteNumber":53,"Velocity":57,"Duration":118421,"SoundDuration":118421,"Delta":230113789},{"NoteNumber":74,"Velocity":67,"Duration":117801,"SoundDuration":117801,"Delta":230232210},{"NoteNumber":86,"Velocity":67,"Duration":117801,"SoundDuration":117801,"Delta":230232210},{"NoteNumber":40,"Velocity":59,"Duration":117801,"SoundDuration":117801,"Delta":230232210},{"NoteNumber":52,"Velocity":59,"Duration":117801,"SoundDuration":117801,"Delta":230232210},{"NoteNumber":75,"Velocity":62,"Duration":116959,"SoundDuration":116959,"Delta":230350011},{"NoteNumber":79,"Velocity":62,"Duration":116959,"SoundDuration":116959,"Delta":230350011},{"NoteNumber":82,"Velocity":62,"Duration":116959,"SoundDuration":116959,"Delta":230350011},{"NoteNumber":87,"Velocity":62,"Duration":116959,"SoundDuration":116959,"Delta":230350011},{"NoteNumber":51,"Velocity":56,"Duration":116959,"SoundDuration":116959,"Delta":230350011},{"NoteNumber":39,"Velocity":56,"Duration":116959,"SoundDuration":116959,"Delta":230350011},{"NoteNumber":43,"Velocity":56,"Duration":116959,"SoundDuration":116959,"Delta":230350011},{"NoteNumber":46,"Velocity":56,"Duration":116959,"SoundDuration":116959,"Delta":230350011},{"NoteNumber":76,"Velocity":71,"Duration":116204,"SoundDuration":116204,"Delta":230466971},{"NoteNumber":88,"Velocity":71,"Duration":116204,"SoundDuration":116204,"Delta":230466971},{"NoteNumber":38,"Velocity":62,"Duration":116204,"SoundDuration":116204,"Delta":230466971},{"NoteNumber":50,"Velocity":62,"Duration":116204,"SoundDuration":116204,"Delta":230466971},{"NoteNumber":77,"Velocity":72,"Duration":115532,"SoundDuration":115532,"Delta":230583176},{"NoteNumber":89,"Velocity":72,"Duration":115532,"SoundDuration":115532,"Delta":230583176},{"NoteNumber":37,"Velocity":63,"Duration":115532,"SoundDuration":115532,"Delta":230583176},{"NoteNumber":49,"Velocity":63,"Duration":115532,"SoundDuration":115532,"Delta":230583176},{"NoteNumber":78,"Velocity":72,"Duration":114723,"SoundDuration":114723,"Delta":230698709},{"NoteNumber":90,"Velocity":72,"Duration":114723,"SoundDuration":114723,"Delta":230698709},{"NoteNumber":36,"Velocity":64,"Duration":114723,"SoundDuration":114723,"Delta":230698709},{"NoteNumber":48,"Velocity":64,"Duration":114723,"SoundDuration":114723,"Delta":230698709},{"NoteNumber":79,"Velocity":75,"Duration":113996,"SoundDuration":113996,"Delta":230813432},{"NoteNumber":91,"Velocity":75,"Duration":113996,"SoundDuration":113996,"Delta":230813432},{"NoteNumber":35,"Velocity":65,"Duration":113996,"SoundDuration":113996,"Delta":230813432},{"NoteNumber":47,"Velocity":65,"Duration":113996,"SoundDuration":113996,"Delta":230813432},{"NoteNumber":80,"Velocity":76,"Duration":114513,"SoundDuration":114513,"Delta":230927429},{"NoteNumber":92,"Velocity":76,"Duration":114513,"SoundDuration":114513,"Delta":230927429},{"NoteNumber":34,"Velocity":66,"Duration":114513,"SoundDuration":114513,"Delta":230927429},{"NoteNumber":46,"Velocity":66,"Duration":114513,"SoundDuration":114513,"Delta":230927429},{"NoteNumber":81,"Velocity":77,"Duration":117422,"SoundDuration":117422,"Delta":231041942},{"NoteNumber":93,"Velocity":77,"Duration":117422,"SoundDuration":117422,"Delta":231041942},{"NoteNumber":33,"Velocity":69,"Duration":117422,"SoundDuration":117422,"Delta":231041942},{"NoteNumber":45,"Velocity":69,"Duration":117422,"SoundDuration":117422,"Delta":231041942},{"NoteNumber":82,"Velocity":79,"Duration":120651,"SoundDuration":120651,"Delta":231159364},{"NoteNumber":94,"Velocity":79,"Duration":120651,"SoundDuration":120651,"Delta":231159364},{"NoteNumber":32,"Velocity":70,"Duration":120651,"SoundDuration":120651,"Delta":231159364},{"NoteNumber":44,"Velocity":70,"Duration":120651,"SoundDuration":120651,"Delta":231159364},{"NoteNumber":83,"Velocity":81,"Duration":123976,"SoundDuration":123976,"Delta":231280015},{"NoteNumber":95,"Velocity":81,"Duration":123976,"SoundDuration":123976,"Delta":231280015},{"NoteNumber":31,"Velocity":67,"Duration":123976,"SoundDuration":123976,"Delta":231280015},{"NoteNumber":43,"Velocity":67,"Duration":123976,"SoundDuration":123976,"Delta":231280015},{"NoteNumber":85,"Velocity":83,"Duration":127303,"SoundDuration":127303,"Delta":231403992},{"NoteNumber":97,"Velocity":83,"Duration":127303,"SoundDuration":127303,"Delta":231403992},{"NoteNumber":30,"Velocity":67,"Duration":127303,"SoundDuration":127303,"Delta":231403992},{"NoteNumber":42,"Velocity":67,"Duration":127303,"SoundDuration":127303,"Delta":231403992},{"NoteNumber":86,"Velocity":86,"Duration":132158,"SoundDuration":132158,"Delta":231531295},{"NoteNumber":98,"Velocity":86,"Duration":132158,"SoundDuration":132158,"Delta":231531295},{"NoteNumber":28,"Velocity":69,"Duration":132158,"SoundDuration":132158,"Delta":231531295},{"NoteNumber":40,"Velocity":69,"Duration":132158,"SoundDuration":132158,"Delta":231531295},{"NoteNumber":87,"Velocity":90,"Duration":132850,"SoundDuration":132850,"Delta":231663454},{"NoteNumber":99,"Velocity":90,"Duration":132850,"SoundDuration":132850,"Delta":231663454},{"NoteNumber":27,"Velocity":71,"Duration":132850,"SoundDuration":132850,"Delta":231663454},{"NoteNumber":39,"Velocity":71,"Duration":132850,"SoundDuration":132850,"Delta":231663454},{"NoteNumber":59,"Velocity":89,"Duration":259474,"SoundDuration":259474,"Delta":231808381},{"NoteNumber":63,"Velocity":89,"Duration":259474,"SoundDuration":259474,"Delta":231808381},{"NoteNumber":68,"Velocity":99,"Duration":259474,"SoundDuration":259474,"Delta":231808381},{"NoteNumber":32,"Velocity":61,"Duration":259474,"SoundDuration":259474,"Delta":231808381},{"NoteNumber":44,"Velocity":81,"Duration":259474,"SoundDuration":259474,"Delta":231808381},{"NoteNumber":39,"Velocity":67,"Duration":125522,"SoundDuration":125522,"Delta":232067855},{"NoteNumber":51,"Velocity":79,"Duration":125522,"SoundDuration":125522,"Delta":232067855},{"NoteNumber":44,"Velocity":67,"Duration":125523,"SoundDuration":125523,"Delta":232193378},{"NoteNumber":56,"Velocity":79,"Duration":125523,"SoundDuration":125523,"Delta":232193378},{"NoteNumber":83,"Velocity":89,"Duration":180216,"SoundDuration":180216,"Delta":232318901},{"NoteNumber":75,"Velocity":74,"Duration":180216,"SoundDuration":180216,"Delta":232318901},{"NoteNumber":71,"Velocity":74,"Duration":180216,"SoundDuration":180216,"Delta":232318901},{"NoteNumber":63,"Velocity":75,"Duration":180216,"SoundDuration":180216,"Delta":232318901},{"NoteNumber":51,"Velocity":63,"Duration":180216,"SoundDuration":180216,"Delta":232318901},{"NoteNumber":82,"Velocity":80,"Duration":118576,"SoundDuration":118576,"Delta":232559190},{"NoteNumber":75,"Velocity":68,"Duration":118576,"SoundDuration":118576,"Delta":232559190},{"NoteNumber":70,"Velocity":68,"Duration":118576,"SoundDuration":118576,"Delta":232559190},{"NoteNumber":32,"Velocity":74,"Duration":235764,"SoundDuration":235764,"Delta":232559190},{"NoteNumber":44,"Velocity":89,"Duration":235764,"SoundDuration":235764,"Delta":232559190},{"NoteNumber":71,"Velocity":68,"Duration":117187,"SoundDuration":117187,"Delta":232677767},{"NoteNumber":83,"Velocity":80,"Duration":117187,"SoundDuration":117187,"Delta":232677767},{"NoteNumber":85,"Velocity":90,"Duration":178798,"SoundDuration":178798,"Delta":232794954},{"NoteNumber":73,"Velocity":75,"Duration":178798,"SoundDuration":178798,"Delta":232794954},{"NoteNumber":39,"Velocity":68,"Duration":119199,"SoundDuration":119199,"Delta":232794954},{"NoteNumber":51,"Velocity":80,"Duration":119199,"SoundDuration":119199,"Delta":232794954},{"NoteNumber":44,"Velocity":68,"Duration":119198,"SoundDuration":119198,"Delta":232914153},{"NoteNumber":56,"Velocity":80,"Duration":119198,"SoundDuration":119198,"Delta":232914153},{"NoteNumber":75,"Velocity":68,"Duration":115982,"SoundDuration":115982,"Delta":233033352},{"NoteNumber":83,"Velocity":80,"Duration":115982,"SoundDuration":115982,"Delta":233033352},{"NoteNumber":71,"Velocity":68,"Duration":115982,"SoundDuration":115982,"Delta":233033352},{"NoteNumber":63,"Velocity":77,"Duration":173973,"SoundDuration":173973,"Delta":233033352},{"NoteNumber":51,"Velocity":64,"Duration":173973,"SoundDuration":173973,"Delta":233033352},{"NoteNumber":82,"Velocity":80,"Duration":115982,"SoundDuration":115982,"Delta":233149335},{"NoteNumber":70,"Velocity":68,"Duration":115982,"SoundDuration":115982,"Delta":233149335},{"NoteNumber":83,"Velocity":81,"Duration":114068,"SoundDuration":114068,"Delta":233265317},{"NoteNumber":75,"Velocity":68,"Duration":114068,"SoundDuration":114068,"Delta":233265317},{"NoteNumber":71,"Velocity":68,"Duration":114068,"SoundDuration":114068,"Delta":233265317},{"NoteNumber":32,"Velocity":74,"Duration":233905,"SoundDuration":233905,"Delta":233265317},{"NoteNumber":44,"Velocity":89,"Duration":233905,"SoundDuration":233905,"Delta":233265317},{"NoteNumber":85,"Velocity":84,"Duration":119836,"SoundDuration":119836,"Delta":233379385},{"NoteNumber":73,"Velocity":71,"Duration":119836,"SoundDuration":119836,"Delta":233379385},{"NoteNumber":75,"Velocity":77,"Duration":176194,"SoundDuration":176194,"Delta":233499222},{"NoteNumber":87,"Velocity":91,"Duration":176194,"SoundDuration":176194,"Delta":233499222},{"NoteNumber":39,"Velocity":67,"Duration":117462,"SoundDuration":117462,"Delta":233499222},{"NoteNumber":51,"Velocity":79,"Duration":117462,"SoundDuration":117462,"Delta":233499222},{"NoteNumber":44,"Velocity":67,"Duration":117462,"SoundDuration":117462,"Delta":233616685},{"NoteNumber":56,"Velocity":79,"Duration":117462,"SoundDuration":117462,"Delta":233616685},{"NoteNumber":85,"Velocity":83,"Duration":115982,"SoundDuration":115982,"Delta":233734148},{"NoteNumber":73,"Velocity":70,"Duration":115982,"SoundDuration":115982,"Delta":233734148},{"NoteNumber":63,"Velocity":73,"Duration":173973,"SoundDuration":173973,"Delta":233734148},{"NoteNumber":51,"Velocity":61,"Duration":173973,"SoundDuration":173973,"Delta":233734148},{"NoteNumber":71,"Velocity":69,"Duration":115982,"SoundDuration":115982,"Delta":233850130},{"NoteNumber":83,"Velocity":82,"Duration":115982,"SoundDuration":115982,"Delta":233850130},{"NoteNumber":82,"Velocity":81,"Duration":114942,"SoundDuration":114942,"Delta":233966112},{"NoteNumber":75,"Velocity":68,"Duration":114942,"SoundDuration":114942,"Delta":233966112},{"NoteNumber":70,"Velocity":68,"Duration":114942,"SoundDuration":114942,"Delta":233966112},{"NoteNumber":32,"Velocity":74,"Duration":236047,"SoundDuration":236047,"Delta":233966112},{"NoteNumber":44,"Velocity":89,"Duration":236047,"SoundDuration":236047,"Delta":233966112},{"NoteNumber":83,"Velocity":81,"Duration":121104,"SoundDuration":121104,"Delta":234081055},{"NoteNumber":71,"Velocity":68,"Duration":121104,"SoundDuration":121104,"Delta":234081055},{"NoteNumber":73,"Velocity":74,"Duration":178090,"SoundDuration":178090,"Delta":234202159},{"NoteNumber":85,"Velocity":89,"Duration":178090,"SoundDuration":178090,"Delta":234202159},{"NoteNumber":39,"Velocity":68,"Duration":118727,"SoundDuration":118727,"Delta":234202159},{"NoteNumber":51,"Velocity":80,"Duration":118727,"SoundDuration":118727,"Delta":234202159},{"NoteNumber":44,"Velocity":68,"Duration":118727,"SoundDuration":118727,"Delta":234320887},{"NoteNumber":56,"Velocity":80,"Duration":118727,"SoundDuration":118727,"Delta":234320887},{"NoteNumber":75,"Velocity":68,"Duration":115982,"SoundDuration":115982,"Delta":234439614},{"NoteNumber":83,"Velocity":81,"Duration":115982,"SoundDuration":115982,"Delta":234439614},{"NoteNumber":71,"Velocity":68,"Duration":115982,"SoundDuration":115982,"Delta":234439614},{"NoteNumber":63,"Velocity":78,"Duration":176774,"SoundDuration":176774,"Delta":234439614},{"NoteNumber":51,"Velocity":66,"Duration":176774,"SoundDuration":176774,"Delta":234439614},{"NoteNumber":70,"Velocity":68,"Duration":121585,"SoundDuration":121585,"Delta":234555596},{"NoteNumber":82,"Velocity":81,"Duration":121585,"SoundDuration":121585,"Delta":234555596},{"NoteNumber":71,"Velocity":62,"Duration":116081,"SoundDuration":116081,"Delta":234677182},{"NoteNumber":75,"Velocity":62,"Duration":116081,"SoundDuration":116081,"Delta":234677182},{"NoteNumber":83,"Velocity":89,"Duration":116081,"SoundDuration":116081,"Delta":234677182},{"NoteNumber":32,"Velocity":62,"Duration":234024,"SoundDuration":234024,"Delta":234677182},{"NoteNumber":44,"Velocity":89,"Duration":234024,"SoundDuration":234024,"Delta":234677182},{"NoteNumber":82,"Velocity":83,"Duration":117942,"SoundDuration":117942,"Delta":234793263},{"NoteNumber":70,"Velocity":59,"Duration":117942,"SoundDuration":117942,"Delta":234793263},{"NoteNumber":80,"Velocity":83,"Duration":240963,"SoundDuration":240963,"Delta":234911206},{"NoteNumber":68,"Velocity":59,"Duration":240963,"SoundDuration":240963,"Delta":234911206},{"NoteNumber":39,"Velocity":56,"Duration":120482,"SoundDuration":120482,"Delta":234911206},{"NoteNumber":51,"Velocity":79,"Duration":120482,"SoundDuration":120482,"Delta":234911206},{"NoteNumber":44,"Velocity":56,"Duration":120481,"SoundDuration":120481,"Delta":235031688},{"NoteNumber":56,"Velocity":79,"Duration":120481,"SoundDuration":120481,"Delta":235031688},{"NoteNumber":95,"Velocity":89,"Duration":178090,"SoundDuration":178090,"Delta":235152170},{"NoteNumber":87,"Velocity":62,"Duration":178090,"SoundDuration":178090,"Delta":235152170},{"NoteNumber":83,"Velocity":62,"Duration":178090,"SoundDuration":178090,"Delta":235152170},{"NoteNumber":63,"Velocity":77,"Duration":178090,"SoundDuration":178090,"Delta":235152170},{"NoteNumber":51,"Velocity":55,"Duration":178090,"SoundDuration":178090,"Delta":235152170},{"NoteNumber":94,"Velocity":81,"Duration":114503,"SoundDuration":114503,"Delta":235389624},{"NoteNumber":87,"Velocity":57,"Duration":114503,"SoundDuration":114503,"Delta":235389624},{"NoteNumber":82,"Velocity":57,"Duration":114503,"SoundDuration":114503,"Delta":235389624},{"NoteNumber":32,"Velocity":62,"Duration":234821,"SoundDuration":234821,"Delta":235389624},{"NoteNumber":44,"Velocity":89,"Duration":234821,"SoundDuration":234821,"Delta":235389624},{"NoteNumber":83,"Velocity":57,"Duration":120317,"SoundDuration":120317,"Delta":235504128},{"NoteNumber":95,"Velocity":81,"Duration":120317,"SoundDuration":120317,"Delta":235504128},{"NoteNumber":97,"Velocity":91,"Duration":175507,"SoundDuration":175507,"Delta":235624446},{"NoteNumber":85,"Velocity":64,"Duration":175507,"SoundDuration":175507,"Delta":235624446},{"NoteNumber":39,"Velocity":57,"Duration":117004,"SoundDuration":117004,"Delta":235624446},{"NoteNumber":51,"Velocity":80,"Duration":117004,"SoundDuration":117004,"Delta":235624446},{"NoteNumber":44,"Velocity":57,"Duration":117004,"SoundDuration":117004,"Delta":235741450},{"NoteNumber":56,"Velocity":80,"Duration":117004,"SoundDuration":117004,"Delta":235741450},{"NoteNumber":87,"Velocity":56,"Duration":115982,"SoundDuration":115982,"Delta":235858455},{"NoteNumber":95,"Velocity":79,"Duration":115982,"SoundDuration":115982,"Delta":235858455},{"NoteNumber":83,"Velocity":56,"Duration":115982,"SoundDuration":115982,"Delta":235858455},{"NoteNumber":63,"Velocity":77,"Duration":173973,"SoundDuration":173973,"Delta":235858455},{"NoteNumber":51,"Velocity":55,"Duration":173973,"SoundDuration":173973,"Delta":235858455},{"NoteNumber":94,"Velocity":79,"Duration":115982,"SoundDuration":115982,"Delta":235974437},{"NoteNumber":82,"Velocity":56,"Duration":115982,"SoundDuration":115982,"Delta":235974437},{"NoteNumber":95,"Velocity":81,"Duration":116740,"SoundDuration":116740,"Delta":236090420},{"NoteNumber":87,"Velocity":68,"Duration":116740,"SoundDuration":116740,"Delta":236090420},{"NoteNumber":83,"Velocity":68,"Duration":116740,"SoundDuration":116740,"Delta":236090420},{"NoteNumber":32,"Velocity":74,"Duration":231243,"SoundDuration":231243,"Delta":236090420},{"NoteNumber":44,"Velocity":89,"Duration":231243,"SoundDuration":231243,"Delta":236090420},{"NoteNumber":97,"Velocity":84,"Duration":114503,"SoundDuration":114503,"Delta":236207160},{"NoteNumber":85,"Velocity":71,"Duration":114503,"SoundDuration":114503,"Delta":236207160},{"NoteNumber":87,"Velocity":77,"Duration":175507,"SoundDuration":175507,"Delta":236321664},{"NoteNumber":99,"Velocity":91,"Duration":175507,"SoundDuration":175507,"Delta":236321664},{"NoteNumber":39,"Velocity":67,"Duration":117004,"SoundDuration":117004,"Delta":236321664},{"NoteNumber":51,"Velocity":79,"Duration":117004,"SoundDuration":117004,"Delta":236321664},{"NoteNumber":44,"Velocity":67,"Duration":117004,"SoundDuration":117004,"Delta":236438668},{"NoteNumber":56,"Velocity":79,"Duration":117004,"SoundDuration":117004,"Delta":236438668},{"NoteNumber":97,"Velocity":80,"Duration":115982,"SoundDuration":115982,"Delta":236555673},{"NoteNumber":85,"Velocity":68,"Duration":115982,"SoundDuration":115982,"Delta":236555673},{"NoteNumber":63,"Velocity":78,"Duration":173973,"SoundDuration":173973,"Delta":236555673},{"NoteNumber":51,"Velocity":66,"Duration":173973,"SoundDuration":173973,"Delta":236555673},{"NoteNumber":83,"Velocity":68,"Duration":115982,"SoundDuration":115982,"Delta":236671655},{"NoteNumber":95,"Velocity":80,"Duration":115982,"SoundDuration":115982,"Delta":236671655},{"NoteNumber":94,"Velocity":80,"Duration":117004,"SoundDuration":117004,"Delta":236787638},{"NoteNumber":87,"Velocity":68,"Duration":117004,"SoundDuration":117004,"Delta":236787638},{"NoteNumber":82,"Velocity":68,"Duration":117004,"SoundDuration":117004,"Delta":236787638},{"NoteNumber":32,"Velocity":74,"Duration":231073,"SoundDuration":231073,"Delta":236787638},{"NoteNumber":44,"Velocity":89,"Duration":231073,"SoundDuration":231073,"Delta":236787638},{"NoteNumber":95,"Velocity":80,"Duration":114068,"SoundDuration":114068,"Delta":236904642},{"NoteNumber":83,"Velocity":68,"Duration":114068,"SoundDuration":114068,"Delta":236904642},{"NoteNumber":85,"Velocity":77,"Duration":175507,"SoundDuration":175507,"Delta":237018711},{"NoteNumber":97,"Velocity":91,"Duration":175507,"SoundDuration":175507,"Delta":237018711},{"NoteNumber":39,"Velocity":68,"Duration":117004,"SoundDuration":117004,"Delta":237018711},{"NoteNumber":51,"Velocity":81,"Duration":117004,"SoundDuration":117004,"Delta":237018711},{"NoteNumber":44,"Velocity":68,"Duration":117004,"SoundDuration":117004,"Delta":237135716},{"NoteNumber":56,"Velocity":81,"Duration":117004,"SoundDuration":117004,"Delta":237135716},{"NoteNumber":87,"Velocity":69,"Duration":114722,"SoundDuration":114722,"Delta":237252720},{"NoteNumber":95,"Velocity":82,"Duration":114722,"SoundDuration":114722,"Delta":237252720},{"NoteNumber":83,"Velocity":69,"Duration":114722,"SoundDuration":114722,"Delta":237252720},{"NoteNumber":63,"Velocity":78,"Duration":174166,"SoundDuration":174166,"Delta":237252720},{"NoteNumber":51,"Velocity":66,"Duration":174166,"SoundDuration":174166,"Delta":237252720},{"NoteNumber":82,"Velocity":70,"Duration":118887,"SoundDuration":118887,"Delta":237367443},{"NoteNumber":94,"Velocity":83,"Duration":118887,"SoundDuration":118887,"Delta":237367443},{"NoteNumber":83,"Velocity":77,"Duration":115384,"SoundDuration":115384,"Delta":237486330},{"NoteNumber":87,"Velocity":91,"Duration":115384,"SoundDuration":115384,"Delta":237486330},{"NoteNumber":95,"Velocity":91,"Duration":115384,"SoundDuration":115384,"Delta":237486330},{"NoteNumber":32,"Velocity":74,"Duration":233961,"SoundDuration":233961,"Delta":237486330},{"NoteNumber":44,"Velocity":89,"Duration":233961,"SoundDuration":233961,"Delta":237486330},{"NoteNumber":94,"Velocity":83,"Duration":118576,"SoundDuration":118576,"Delta":237601715},{"NoteNumber":82,"Velocity":70,"Duration":118576,"SoundDuration":118576,"Delta":237601715},{"NoteNumber":92,"Velocity":83,"Duration":253164,"SoundDuration":253164,"Delta":237720292},{"NoteNumber":80,"Velocity":70,"Duration":253164,"SoundDuration":253164,"Delta":237720292},{"NoteNumber":39,"Velocity":68,"Duration":126582,"SoundDuration":126582,"Delta":237720292},{"NoteNumber":51,"Velocity":81,"Duration":126582,"SoundDuration":126582,"Delta":237720292},{"NoteNumber":44,"Velocity":68,"Duration":126582,"SoundDuration":126582,"Delta":237846874},{"NoteNumber":56,"Velocity":81,"Duration":126582,"SoundDuration":126582,"Delta":237846874},{"NoteNumber":63,"Velocity":68,"Duration":240288,"SoundDuration":240288,"Delta":237973456},{"NoteNumber":71,"Velocity":68,"Duration":240288,"SoundDuration":240288,"Delta":237973456},{"NoteNumber":75,"Velocity":81,"Duration":240288,"SoundDuration":240288,"Delta":237973456},{"NoteNumber":47,"Velocity":74,"Duration":240288,"SoundDuration":240288,"Delta":237973456},{"NoteNumber":59,"Velocity":88,"Duration":240288,"SoundDuration":240288,"Delta":237973456},{"NoteNumber":51,"Velocity":74,"Duration":240288,"SoundDuration":240288,"Delta":237973456},{"NoteNumber":63,"Velocity":60,"Duration":115982,"SoundDuration":115982,"Delta":238213745},{"NoteNumber":70,"Velocity":60,"Duration":115982,"SoundDuration":115982,"Delta":238213745},{"NoteNumber":75,"Velocity":71,"Duration":115982,"SoundDuration":115982,"Delta":238213745},{"NoteNumber":46,"Velocity":69,"Duration":115982,"SoundDuration":115982,"Delta":238213745},{"NoteNumber":51,"Velocity":69,"Duration":115982,"SoundDuration":115982,"Delta":238213745},{"NoteNumber":58,"Velocity":82,"Duration":115982,"SoundDuration":115982,"Delta":238213745},{"NoteNumber":63,"Velocity":60,"Duration":123092,"SoundDuration":123092,"Delta":238329727},{"NoteNumber":71,"Velocity":60,"Duration":123092,"SoundDuration":123092,"Delta":238329727},{"NoteNumber":75,"Velocity":71,"Duration":123092,"SoundDuration":123092,"Delta":238329727},{"NoteNumber":47,"Velocity":69,"Duration":123092,"SoundDuration":123092,"Delta":238329727},{"NoteNumber":51,"Velocity":69,"Duration":123092,"SoundDuration":123092,"Delta":238329727},{"NoteNumber":59,"Velocity":82,"Duration":123092,"SoundDuration":123092,"Delta":238329727},{"NoteNumber":63,"Velocity":66,"Duration":240288,"SoundDuration":240288,"Delta":238452819},{"NoteNumber":73,"Velocity":78,"Duration":240288,"SoundDuration":240288,"Delta":238452819},{"NoteNumber":75,"Velocity":78,"Duration":240288,"SoundDuration":240288,"Delta":238452819},{"NoteNumber":49,"Velocity":74,"Duration":240288,"SoundDuration":240288,"Delta":238452819},{"NoteNumber":51,"Velocity":74,"Duration":240288,"SoundDuration":240288,"Delta":238452819},{"NoteNumber":61,"Velocity":88,"Duration":240288,"SoundDuration":240288,"Delta":238452819},{"NoteNumber":63,"Velocity":61,"Duration":115982,"SoundDuration":115982,"Delta":238693108},{"NoteNumber":71,"Velocity":61,"Duration":115982,"SoundDuration":115982,"Delta":238693108},{"NoteNumber":75,"Velocity":73,"Duration":115982,"SoundDuration":115982,"Delta":238693108},{"NoteNumber":51,"Velocity":68,"Duration":115982,"SoundDuration":115982,"Delta":238693108},{"NoteNumber":47,"Velocity":68,"Duration":115982,"SoundDuration":115982,"Delta":238693108},{"NoteNumber":59,"Velocity":81,"Duration":115982,"SoundDuration":115982,"Delta":238693108},{"NoteNumber":63,"Velocity":61,"Duration":124100,"SoundDuration":124100,"Delta":238809090},{"NoteNumber":70,"Velocity":61,"Duration":124100,"SoundDuration":124100,"Delta":238809090},{"NoteNumber":75,"Velocity":73,"Duration":124100,"SoundDuration":124100,"Delta":238809090},{"NoteNumber":46,"Velocity":68,"Duration":124100,"SoundDuration":124100,"Delta":238809090},{"NoteNumber":58,"Velocity":81,"Duration":124100,"SoundDuration":124100,"Delta":238809090},{"NoteNumber":51,"Velocity":68,"Duration":124100,"SoundDuration":124100,"Delta":238809090},{"NoteNumber":63,"Velocity":67,"Duration":120617,"SoundDuration":120617,"Delta":238933190},{"NoteNumber":71,"Velocity":79,"Duration":120617,"SoundDuration":120617,"Delta":238933190},{"NoteNumber":75,"Velocity":79,"Duration":120617,"SoundDuration":120617,"Delta":238933190},{"NoteNumber":47,"Velocity":74,"Duration":120617,"SoundDuration":120617,"Delta":238933190},{"NoteNumber":51,"Velocity":74,"Duration":120617,"SoundDuration":120617,"Delta":238933190},{"NoteNumber":59,"Velocity":88,"Duration":120617,"SoundDuration":120617,"Delta":238933190},{"NoteNumber":63,"Velocity":61,"Duration":125659,"SoundDuration":125659,"Delta":239053808},{"NoteNumber":70,"Velocity":61,"Duration":125659,"SoundDuration":125659,"Delta":239053808},{"NoteNumber":75,"Velocity":73,"Duration":125659,"SoundDuration":125659,"Delta":239053808},{"NoteNumber":46,"Velocity":70,"Duration":125659,"SoundDuration":125659,"Delta":239053808},{"NoteNumber":51,"Velocity":70,"Duration":125659,"SoundDuration":125659,"Delta":239053808},{"NoteNumber":58,"Velocity":83,"Duration":125659,"SoundDuration":125659,"Delta":239053808},{"NoteNumber":63,"Velocity":61,"Duration":246575,"SoundDuration":246575,"Delta":239179467},{"NoteNumber":68,"Velocity":61,"Duration":246575,"SoundDuration":246575,"Delta":239179467},{"NoteNumber":75,"Velocity":73,"Duration":246575,"SoundDuration":246575,"Delta":239179467},{"NoteNumber":44,"Velocity":70,"Duration":246575,"SoundDuration":246575,"Delta":239179467},{"NoteNumber":51,"Velocity":70,"Duration":246575,"SoundDuration":246575,"Delta":239179467},{"NoteNumber":56,"Velocity":83,"Duration":246575,"SoundDuration":246575,"Delta":239179467},{"NoteNumber":87,"Velocity":108,"Duration":191652,"SoundDuration":191652,"Delta":239453440},{"NoteNumber":80,"Velocity":92,"Duration":191652,"SoundDuration":191652,"Delta":239453440},{"NoteNumber":75,"Velocity":92,"Duration":191652,"SoundDuration":191652,"Delta":239453440},{"NoteNumber":32,"Velocity":88,"Duration":191652,"SoundDuration":191652,"Delta":239453440},{"NoteNumber":39,"Velocity":88,"Duration":191652,"SoundDuration":191652,"Delta":239453440},{"NoteNumber":44,"Velocity":104,"Duration":191652,"SoundDuration":191652,"Delta":239453440},{"NoteNumber":63,"Velocity":60,"Duration":125135,"SoundDuration":125135,"Delta":239708976},{"NoteNumber":70,"Velocity":60,"Duration":125135,"SoundDuration":125135,"Delta":239708976},{"NoteNumber":75,"Velocity":71,"Duration":125135,"SoundDuration":125135,"Delta":239708976},{"NoteNumber":46,"Velocity":69,"Duration":125135,"SoundDuration":125135,"Delta":239708976},{"NoteNumber":51,"Velocity":69,"Duration":125135,"SoundDuration":125135,"Delta":239708976},{"NoteNumber":58,"Velocity":82,"Duration":125135,"SoundDuration":125135,"Delta":239708976},{"NoteNumber":63,"Velocity":60,"Duration":133522,"SoundDuration":133522,"Delta":239834112},{"NoteNumber":71,"Velocity":71,"Duration":133522,"SoundDuration":133522,"Delta":239834112},{"NoteNumber":75,"Velocity":71,"Duration":133522,"SoundDuration":133522,"Delta":239834112},{"NoteNumber":47,"Velocity":69,"Duration":133522,"SoundDuration":133522,"Delta":239834112},{"NoteNumber":51,"Velocity":69,"Duration":133522,"SoundDuration":133522,"Delta":239834112},{"NoteNumber":59,"Velocity":82,"Duration":133522,"SoundDuration":133522,"Delta":239834112},{"NoteNumber":63,"Velocity":66,"Duration":250270,"SoundDuration":250270,"Delta":239967634},{"NoteNumber":73,"Velocity":66,"Duration":250270,"SoundDuration":250270,"Delta":239967634},{"NoteNumber":75,"Velocity":78,"Duration":250270,"SoundDuration":250270,"Delta":239967634},{"NoteNumber":49,"Velocity":74,"Duration":250270,"SoundDuration":250270,"Delta":239967634},{"NoteNumber":51,"Velocity":74,"Duration":250270,"SoundDuration":250270,"Delta":239967634},{"NoteNumber":61,"Velocity":88,"Duration":250270,"SoundDuration":250270,"Delta":239967634},{"NoteNumber":63,"Velocity":61,"Duration":122109,"SoundDuration":122109,"Delta":240217905},{"NoteNumber":71,"Velocity":61,"Duration":122109,"SoundDuration":122109,"Delta":240217905},{"NoteNumber":75,"Velocity":73,"Duration":122109,"SoundDuration":122109,"Delta":240217905},{"NoteNumber":51,"Velocity":68,"Duration":122109,"SoundDuration":122109,"Delta":240217905},{"NoteNumber":47,"Velocity":68,"Duration":122109,"SoundDuration":122109,"Delta":240217905},{"NoteNumber":59,"Velocity":81,"Duration":122109,"SoundDuration":122109,"Delta":240217905},{"NoteNumber":63,"Velocity":61,"Duration":132263,"SoundDuration":132263,"Delta":240340015},{"NoteNumber":70,"Velocity":61,"Duration":132263,"SoundDuration":132263,"Delta":240340015},{"NoteNumber":75,"Velocity":73,"Duration":132263,"SoundDuration":132263,"Delta":240340015},{"NoteNumber":46,"Velocity":68,"Duration":132263,"SoundDuration":132263,"Delta":240340015},{"NoteNumber":58,"Velocity":81,"Duration":132263,"SoundDuration":132263,"Delta":240340015},{"NoteNumber":51,"Velocity":68,"Duration":132263,"SoundDuration":132263,"Delta":240340015},{"NoteNumber":63,"Velocity":67,"Duration":128325,"SoundDuration":128325,"Delta":240472279},{"NoteNumber":71,"Velocity":67,"Duration":128325,"SoundDuration":128325,"Delta":240472279},{"NoteNumber":75,"Velocity":79,"Duration":128325,"SoundDuration":128325,"Delta":240472279},{"NoteNumber":47,"Velocity":74,"Duration":128325,"SoundDuration":128325,"Delta":240472279},{"NoteNumber":51,"Velocity":74,"Duration":128325,"SoundDuration":128325,"Delta":240472279},{"NoteNumber":59,"Velocity":88,"Duration":128325,"SoundDuration":128325,"Delta":240472279},{"NoteNumber":63,"Velocity":61,"Duration":128325,"SoundDuration":128325,"Delta":240600605},{"NoteNumber":70,"Velocity":61,"Duration":128325,"SoundDuration":128325,"Delta":240600605},{"NoteNumber":75,"Velocity":73,"Duration":128325,"SoundDuration":128325,"Delta":240600605},{"NoteNumber":46,"Velocity":70,"Duration":128325,"SoundDuration":128325,"Delta":240600605},{"NoteNumber":51,"Velocity":70,"Duration":128325,"SoundDuration":128325,"Delta":240600605},{"NoteNumber":58,"Velocity":83,"Duration":128325,"SoundDuration":128325,"Delta":240600605},{"NoteNumber":63,"Velocity":61,"Duration":236842,"SoundDuration":236842,"Delta":240728930},{"NoteNumber":68,"Velocity":61,"Duration":236842,"SoundDuration":236842,"Delta":240728930},{"NoteNumber":75,"Velocity":73,"Duration":236842,"SoundDuration":236842,"Delta":240728930},{"NoteNumber":44,"Velocity":70,"Duration":236842,"SoundDuration":236842,"Delta":240728930},{"NoteNumber":51,"Velocity":70,"Duration":236842,"SoundDuration":236842,"Delta":240728930},{"NoteNumber":56,"Velocity":83,"Duration":236842,"SoundDuration":236842,"Delta":240728930},{"NoteNumber":87,"Velocity":108,"Duration":176960,"SoundDuration":176960,"Delta":240992088},{"NoteNumber":80,"Velocity":92,"Duration":176960,"SoundDuration":176960,"Delta":240992088},{"NoteNumber":75,"Velocity":92,"Duration":176960,"SoundDuration":176960,"Delta":240992088},{"NoteNumber":32,"Velocity":88,"Duration":176960,"SoundDuration":176960,"Delta":240992088},{"NoteNumber":39,"Velocity":88,"Duration":176960,"SoundDuration":176960,"Delta":240992088},{"NoteNumber":44,"Velocity":104,"Duration":176960,"SoundDuration":176960,"Delta":240992088},{"NoteNumber":63,"Velocity":67,"Duration":111673,"SoundDuration":111673,"Delta":241228029},{"NoteNumber":71,"Velocity":67,"Duration":111673,"SoundDuration":111673,"Delta":241228029},{"NoteNumber":75,"Velocity":79,"Duration":111673,"SoundDuration":111673,"Delta":241228029},{"NoteNumber":47,"Velocity":74,"Duration":111673,"SoundDuration":111673,"Delta":241228029},{"NoteNumber":51,"Velocity":74,"Duration":111673,"SoundDuration":111673,"Delta":241228029},{"NoteNumber":59,"Velocity":88,"Duration":111673,"SoundDuration":111673,"Delta":241228029},{"NoteNumber":63,"Velocity":61,"Duration":118868,"SoundDuration":118868,"Delta":241339703},{"NoteNumber":70,"Velocity":61,"Duration":118868,"SoundDuration":118868,"Delta":241339703},{"NoteNumber":75,"Velocity":73,"Duration":118868,"SoundDuration":118868,"Delta":241339703},{"NoteNumber":46,"Velocity":70,"Duration":118868,"SoundDuration":118868,"Delta":241339703},{"NoteNumber":51,"Velocity":70,"Duration":118868,"SoundDuration":118868,"Delta":241339703},{"NoteNumber":58,"Velocity":83,"Duration":118868,"SoundDuration":118868,"Delta":241339703},{"NoteNumber":63,"Velocity":61,"Duration":222222,"SoundDuration":222222,"Delta":241458571},{"NoteNumber":68,"Velocity":61,"Duration":222222,"SoundDuration":222222,"Delta":241458571},{"NoteNumber":75,"Velocity":73,"Duration":222222,"SoundDuration":222222,"Delta":241458571},{"NoteNumber":44,"Velocity":70,"Duration":222222,"SoundDuration":222222,"Delta":241458571},{"NoteNumber":51,"Velocity":70,"Duration":222222,"SoundDuration":222222,"Delta":241458571},{"NoteNumber":56,"Velocity":70,"Duration":222222,"SoundDuration":222222,"Delta":241458571},{"NoteNumber":87,"Velocity":95,"Duration":176180,"SoundDuration":176180,"Delta":241705484},{"NoteNumber":80,"Velocity":95,"Duration":176180,"SoundDuration":176180,"Delta":241705484},{"NoteNumber":92,"Velocity":113,"Duration":176180,"SoundDuration":176180,"Delta":241705484},{"NoteNumber":32,"Velocity":88,"Duration":176180,"SoundDuration":176180,"Delta":241705484},{"NoteNumber":39,"Velocity":88,"Duration":176180,"SoundDuration":176180,"Delta":241705484},{"NoteNumber":44,"Velocity":104,"Duration":176180,"SoundDuration":176180,"Delta":241705484},{"NoteNumber":63,"Velocity":67,"Duration":111731,"SoundDuration":111731,"Delta":241940391},{"NoteNumber":71,"Velocity":79,"Duration":111731,"SoundDuration":111731,"Delta":241940391},{"NoteNumber":75,"Velocity":79,"Duration":111731,"SoundDuration":111731,"Delta":241940391},{"NoteNumber":47,"Velocity":74,"Duration":111731,"SoundDuration":111731,"Delta":241940391},{"NoteNumber":51,"Velocity":74,"Duration":111731,"SoundDuration":111731,"Delta":241940391},{"NoteNumber":59,"Velocity":88,"Duration":111731,"SoundDuration":111731,"Delta":241940391},{"NoteNumber":63,"Velocity":61,"Duration":117499,"SoundDuration":117499,"Delta":242052123},{"NoteNumber":70,"Velocity":61,"Duration":117499,"SoundDuration":117499,"Delta":242052123},{"NoteNumber":75,"Velocity":73,"Duration":117499,"SoundDuration":117499,"Delta":242052123},{"NoteNumber":46,"Velocity":70,"Duration":117499,"SoundDuration":117499,"Delta":242052123},{"NoteNumber":51,"Velocity":70,"Duration":117499,"SoundDuration":117499,"Delta":242052123},{"NoteNumber":58,"Velocity":83,"Duration":117499,"SoundDuration":117499,"Delta":242052123},{"NoteNumber":63,"Velocity":61,"Duration":217741,"SoundDuration":217741,"Delta":242169623},{"NoteNumber":68,"Velocity":61,"Duration":217741,"SoundDuration":217741,"Delta":242169623},{"NoteNumber":75,"Velocity":73,"Duration":217741,"SoundDuration":217741,"Delta":242169623},{"NoteNumber":44,"Velocity":70,"Duration":217741,"SoundDuration":217741,"Delta":242169623},{"NoteNumber":51,"Velocity":70,"Duration":217741,"SoundDuration":217741,"Delta":242169623},{"NoteNumber":56,"Velocity":83,"Duration":217741,"SoundDuration":217741,"Delta":242169623},{"NoteNumber":87,"Velocity":97,"Duration":174161,"SoundDuration":174161,"Delta":242411558},{"NoteNumber":83,"Velocity":97,"Duration":174161,"SoundDuration":174161,"Delta":242411558},{"NoteNumber":95,"Velocity":115,"Duration":174161,"SoundDuration":174161,"Delta":242411558},{"NoteNumber":32,"Velocity":90,"Duration":174161,"SoundDuration":174161,"Delta":242411558},{"NoteNumber":39,"Velocity":90,"Duration":174161,"SoundDuration":174161,"Delta":242411558},{"NoteNumber":44,"Velocity":106,"Duration":174161,"SoundDuration":174161,"Delta":242411558},{"NoteNumber":63,"Velocity":67,"Duration":110480,"SoundDuration":110480,"Delta":242643774},{"NoteNumber":71,"Velocity":67,"Duration":110480,"SoundDuration":110480,"Delta":242643774},{"NoteNumber":75,"Velocity":79,"Duration":110480,"SoundDuration":110480,"Delta":242643774},{"NoteNumber":47,"Velocity":74,"Duration":110480,"SoundDuration":110480,"Delta":242643774},{"NoteNumber":51,"Velocity":74,"Duration":110480,"SoundDuration":110480,"Delta":242643774},{"NoteNumber":59,"Velocity":88,"Duration":110480,"SoundDuration":110480,"Delta":242643774},{"NoteNumber":63,"Velocity":61,"Duration":120375,"SoundDuration":120375,"Delta":242754255},{"NoteNumber":70,"Velocity":61,"Duration":120375,"SoundDuration":120375,"Delta":242754255},{"NoteNumber":75,"Velocity":73,"Duration":120375,"SoundDuration":120375,"Delta":242754255},{"NoteNumber":46,"Velocity":70,"Duration":120375,"SoundDuration":120375,"Delta":242754255},{"NoteNumber":51,"Velocity":70,"Duration":120375,"SoundDuration":120375,"Delta":242754255},{"NoteNumber":58,"Velocity":83,"Duration":120375,"SoundDuration":120375,"Delta":242754255},{"NoteNumber":63,"Velocity":61,"Duration":223936,"SoundDuration":223936,"Delta":242874631},{"NoteNumber":68,"Velocity":61,"Duration":223936,"SoundDuration":223936,"Delta":242874631},{"NoteNumber":75,"Velocity":73,"Duration":223936,"SoundDuration":223936,"Delta":242874631},{"NoteNumber":44,"Velocity":70,"Duration":223936,"SoundDuration":223936,"Delta":242874631},{"NoteNumber":51,"Velocity":70,"Duration":223936,"SoundDuration":223936,"Delta":242874631},{"NoteNumber":56,"Velocity":83,"Duration":223936,"SoundDuration":223936,"Delta":242874631},{"NoteNumber":99,"Velocity":117,"Duration":511520,"SoundDuration":511520,"Delta":243127893},{"NoteNumber":92,"Velocity":99,"Duration":511520,"SoundDuration":511520,"Delta":243127893},{"NoteNumber":87,"Velocity":99,"Duration":511520,"SoundDuration":511520,"Delta":243127893},{"NoteNumber":32,"Velocity":90,"Duration":511520,"SoundDuration":511520,"Delta":243127893},{"NoteNumber":39,"Velocity":90,"Duration":511520,"SoundDuration":511520,"Delta":243127893},{"NoteNumber":44,"Velocity":106,"Duration":511520,"SoundDuration":511520,"Delta":243127893},{"NoteNumber":87,"Velocity":84,"Duration":150185,"SoundDuration":150185,"Delta":243639414},{"NoteNumber":92,"Velocity":84,"Duration":150185,"SoundDuration":150185,"Delta":243639414},{"NoteNumber":99,"Velocity":100,"Duration":150185,"SoundDuration":150185,"Delta":243639414},{"NoteNumber":44,"Velocity":61,"Duration":150185,"SoundDuration":150185,"Delta":243639414},{"NoteNumber":51,"Velocity":61,"Duration":150185,"SoundDuration":150185,"Delta":243639414},{"NoteNumber":56,"Velocity":73,"Duration":150185,"SoundDuration":150185,"Delta":243639414},{"NoteNumber":87,"Velocity":86,"Duration":151025,"SoundDuration":151025,"Delta":243806312},{"NoteNumber":92,"Velocity":86,"Duration":151025,"SoundDuration":151025,"Delta":243806312},{"NoteNumber":99,"Velocity":102,"Duration":151025,"SoundDuration":151025,"Delta":243806312},{"NoteNumber":68,"Velocity":77,"Duration":151025,"SoundDuration":151025,"Delta":243806312},{"NoteNumber":63,"Velocity":64,"Duration":151025,"SoundDuration":151025,"Delta":243806312},{"NoteNumber":56,"Velocity":64,"Duration":151025,"SoundDuration":151025,"Delta":243806312},{"NoteNumber":87,"Velocity":84,"Duration":151151,"SoundDuration":151151,"Delta":243974145},{"NoteNumber":92,"Velocity":84,"Duration":151151,"SoundDuration":151151,"Delta":243974145},{"NoteNumber":99,"Velocity":100,"Duration":151151,"SoundDuration":151151,"Delta":243974145},{"NoteNumber":80,"Velocity":80,"Duration":151151,"SoundDuration":151151,"Delta":243974145},{"NoteNumber":75,"Velocity":80,"Duration":151151,"SoundDuration":151151,"Delta":243974145},{"NoteNumber":68,"Velocity":68,"Duration":151151,"SoundDuration":151151,"Delta":243974145},{"NoteNumber":87,"Velocity":86,"Duration":150271,"SoundDuration":150271,"Delta":244142056},{"NoteNumber":92,"Velocity":86,"Duration":150271,"SoundDuration":150271,"Delta":244142056},{"NoteNumber":99,"Velocity":102,"Duration":150271,"SoundDuration":150271,"Delta":244142056},{"NoteNumber":68,"Velocity":83,"Duration":150271,"SoundDuration":150271,"Delta":244142056},{"NoteNumber":63,"Velocity":70,"Duration":150271,"SoundDuration":150271,"Delta":244142056},{"NoteNumber":56,"Velocity":70,"Duration":150271,"SoundDuration":150271,"Delta":244142056},{"NoteNumber":87,"Velocity":93,"Duration":149400,"SoundDuration":149400,"Delta":244308993},{"NoteNumber":92,"Velocity":93,"Duration":149400,"SoundDuration":149400,"Delta":244308993},{"NoteNumber":99,"Velocity":110,"Duration":149400,"SoundDuration":149400,"Delta":244308993},{"NoteNumber":44,"Velocity":69,"Duration":149400,"SoundDuration":149400,"Delta":244308993},{"NoteNumber":51,"Velocity":69,"Duration":149400,"SoundDuration":149400,"Delta":244308993},{"NoteNumber":56,"Velocity":82,"Duration":149400,"SoundDuration":149400,"Delta":244308993},{"NoteNumber":87,"Velocity":97,"Duration":236067,"SoundDuration":236067,"Delta":244476507},{"NoteNumber":92,"Velocity":97,"Duration":236067,"SoundDuration":236067,"Delta":244476507},{"NoteNumber":99,"Velocity":115,"Duration":236067,"SoundDuration":236067,"Delta":244476507},{"NoteNumber":32,"Velocity":73,"Duration":236067,"SoundDuration":236067,"Delta":244476507},{"NoteNumber":39,"Velocity":73,"Duration":236067,"SoundDuration":236067,"Delta":244476507},{"NoteNumber":44,"Velocity":86,"Duration":236067,"SoundDuration":236067,"Delta":244476507},{"NoteNumber":59,"Velocity":86,"Duration":242915,"SoundDuration":242915,"Delta":245185015},{"NoteNumber":63,"Velocity":86,"Duration":242915,"SoundDuration":242915,"Delta":245185015},{"NoteNumber":68,"Velocity":102,"Duration":242915,"SoundDuration":242915,"Delta":245185015},{"NoteNumber":44,"Velocity":80,"Duration":242915,"SoundDuration":242915,"Delta":245185015},{"NoteNumber":51,"Velocity":80,"Duration":242915,"SoundDuration":242915,"Delta":245185015},{"NoteNumber":56,"Velocity":94,"Duration":242915,"SoundDuration":242915,"Delta":245185015},{"NoteNumber":92,"Velocity":104,"Duration":1457490,"SoundDuration":1457490,"Delta":245913760},{"NoteNumber":87,"Velocity":99,"Duration":1457490,"SoundDuration":1457490,"Delta":245913760},{"NoteNumber":83,"Velocity":83,"Duration":1457490,"SoundDuration":1457490,"Delta":245913760},{"NoteNumber":80,"Velocity":83,"Duration":1457490,"SoundDuration":1457490,"Delta":245913760},{"NoteNumber":59,"Velocity":83,"Duration":1457490,"SoundDuration":1457490,"Delta":245913760},{"NoteNumber":63,"Velocity":83,"Duration":1457490,"SoundDuration":1457490,"Delta":245913760},{"NoteNumber":68,"Velocity":83,"Duration":1457490,"SoundDuration":1457490,"Delta":245913760},{"NoteNumber":71,"Velocity":99,"Duration":1457490,"SoundDuration":1457490,"Delta":245913760}],"license":{"name":"Creative Commons Attribution-ShareAlike 3.0 Germany","url":"http://creativecommons.org/licenses/by-sa/3.0/de/deed.en","text":"The MIDI, audio (MP3, OGG) and video files of Bernd Krueger are licensed under the cc-by-sa Germany License. This means that you can use and adapt the files, as long as you attribute the copyright holder.\n\nName: Bernd Krueger\nSource: http://www.piano-midi.de\n\nThe distribution or public playback of the files is only allowed under identical license conditions.\n\nThe scores are open source.","attribution":"MIDI files by Bernd Krueger (piano-midi.de)","attributionUrl":"http://www.piano-midi.de"}}