{"title":"Liebestraum Nr. 3","artist":"Liszt","durationMs":243488,"midiSha256":"4012432ff9712bfb6fad64c37d2ca973ae4ef57181183676d15b618642d990c3","midiObject":[{"NoteNumber":51,"Velocity":44,"Duration":468493,"SoundDuration":468493,"Delta":0},{"NoteNumber":44,"Velocity":40,"Duration":465732,"SoundDuration":465732,"Delta":468494},{"NoteNumber":60,"Velocity":49,"Duration":1236554,"SoundDuration":1236554,"Delta":468494},{"NoteNumber":63,"Velocity":34,"Duration":216169,"SoundDuration":216169,"Delta":718057},{"NoteNumber":68,"Velocity":40,"Duration":185196,"SoundDuration":185196,"Delta":934226},{"NoteNumber":72,"Velocity":36,"Duration":188940,"SoundDuration":188940,"Delta":1119423},{"NoteNumber":68,"Velocity":32,"Duration":196001,"SoundDuration":196001,"Delta":1308364},{"NoteNumber":63,"Velocity":32,"Duration":200682,"SoundDuration":200682,"Delta":1504365},{"NoteNumber":60,"Velocity":44,"Duration":1251045,"SoundDuration":1251045,"Delta":1705048},{"NoteNumber":63,"Velocity":37,"Duration":201639,"SoundDuration":201639,"Delta":1944645},{"NoteNumber":68,"Velocity":40,"Duration":186927,"SoundDuration":186927,"Delta":2146285},{"NoteNumber":72,"Velocity":37,"Duration":190658,"SoundDuration":190658,"Delta":2333212},{"NoteNumber":68,"Velocity":33,"Duration":196001,"SoundDuration":196001,"Delta":2523871},{"NoteNumber":63,"Velocity":34,"Duration":236220,"SoundDuration":236220,"Delta":2719872},{"NoteNumber":43,"Velocity":32,"Duration":450361,"SoundDuration":450361,"Delta":2956093},{"NoteNumber":60,"Velocity":38,"Duration":2003315,"SoundDuration":2003315,"Delta":2956093},{"NoteNumber":64,"Velocity":30,"Duration":206597,"SoundDuration":206597,"Delta":3199856},{"NoteNumber":70,"Velocity":34,"Duration":187254,"SoundDuration":187254,"Delta":3406454},{"NoteNumber":72,"Velocity":31,"Duration":192406,"SoundDuration":192406,"Delta":3593708},{"NoteNumber":70,"Velocity":27,"Duration":192406,"SoundDuration":192406,"Delta":3786114},{"NoteNumber":64,"Velocity":27,"Duration":196091,"SoundDuration":196091,"Delta":3978521},{"NoteNumber":64,"Velocity":30,"Duration":195083,"SoundDuration":195083,"Delta":4385153},{"NoteNumber":70,"Velocity":34,"Duration":189585,"SoundDuration":189585,"Delta":4580237},{"NoteNumber":72,"Velocity":30,"Duration":189585,"SoundDuration":189585,"Delta":4769822},{"NoteNumber":70,"Velocity":26,"Duration":203597,"SoundDuration":203597,"Delta":4959408},{"NoteNumber":60,"Velocity":39,"Duration":422017,"SoundDuration":422017,"Delta":4959408},{"NoteNumber":64,"Velocity":26,"Duration":218420,"SoundDuration":218420,"Delta":5163005},{"NoteNumber":41,"Velocity":36,"Duration":432675,"SoundDuration":432675,"Delta":5381425},{"NoteNumber":60,"Velocity":45,"Duration":801758,"SoundDuration":801758,"Delta":5381425},{"NoteNumber":63,"Velocity":34,"Duration":199720,"SoundDuration":199720,"Delta":5614380},{"NoteNumber":69,"Velocity":36,"Duration":181828,"SoundDuration":181828,"Delta":5814101},{"NoteNumber":72,"Velocity":35,"Duration":187253,"SoundDuration":187253,"Delta":5995930},{"NoteNumber":69,"Velocity":36,"Duration":192406,"SoundDuration":192406,"Delta":6183184},{"NoteNumber":60,"Velocity":47,"Duration":440874,"SoundDuration":440874,"Delta":6183184},{"NoteNumber":63,"Velocity":38,"Duration":248468,"SoundDuration":248468,"Delta":6375590},{"NoteNumber":61,"Velocity":52,"Duration":785880,"SoundDuration":785880,"Delta":6624058},{"NoteNumber":63,"Velocity":38,"Duration":192406,"SoundDuration":192406,"Delta":6845935},{"NoteNumber":69,"Velocity":43,"Duration":183497,"SoundDuration":183497,"Delta":7038342},{"NoteNumber":72,"Velocity":40,"Duration":188099,"SoundDuration":188099,"Delta":7221839},{"NoteNumber":69,"Velocity":37,"Duration":192406,"SoundDuration":192406,"Delta":7409939},{"NoteNumber":60,"Velocity":49,"Duration":489194,"SoundDuration":489194,"Delta":7409939},{"NoteNumber":63,"Velocity":37,"Duration":296787,"SoundDuration":296787,"Delta":7602345},{"NoteNumber":34,"Velocity":40,"Duration":435575,"SoundDuration":435575,"Delta":7899133},{"NoteNumber":60,"Velocity":56,"Duration":1218064,"SoundDuration":1218064,"Delta":7899133},{"NoteNumber":62,"Velocity":38,"Duration":202620,"SoundDuration":202620,"Delta":8132088},{"NoteNumber":68,"Velocity":43,"Duration":186927,"SoundDuration":186927,"Delta":8334709},{"NoteNumber":72,"Velocity":42,"Duration":192406,"SoundDuration":192406,"Delta":8521636},{"NoteNumber":68,"Velocity":39,"Duration":192406,"SoundDuration":192406,"Delta":8714043},{"NoteNumber":62,"Velocity":39,"Duration":210748,"SoundDuration":210748,"Delta":8906449},{"NoteNumber":53,"Velocity":42,"Duration":434280,"SoundDuration":434280,"Delta":9117197},{"NoteNumber":62,"Velocity":36,"Duration":202620,"SoundDuration":202620,"Delta":9348857},{"NoteNumber":68,"Velocity":40,"Duration":191534,"SoundDuration":191534,"Delta":9551478},{"NoteNumber":72,"Velocity":37,"Duration":191533,"SoundDuration":191533,"Delta":9743012},{"NoteNumber":68,"Velocity":32,"Duration":207627,"SoundDuration":207627,"Delta":9934546},{"NoteNumber":53,"Velocity":42,"Duration":445854,"SoundDuration":445854,"Delta":9934546},{"NoteNumber":62,"Velocity":34,"Duration":238227,"SoundDuration":238227,"Delta":10142173},{"NoteNumber":39,"Velocity":41,"Duration":461495,"SoundDuration":461495,"Delta":10320843},{"NoteNumber":53,"Velocity":48,"Duration":401938,"SoundDuration":401938,"Delta":10380400},{"NoteNumber":61,"Velocity":38,"Duration":193286,"SoundDuration":193286,"Delta":10589052},{"NoteNumber":63,"Velocity":45,"Duration":193286,"SoundDuration":193286,"Delta":10782339},{"NoteNumber":55,"Velocity":40,"Duration":386573,"SoundDuration":386573,"Delta":10782339},{"NoteNumber":72,"Velocity":38,"Duration":193286,"SoundDuration":193286,"Delta":10975625},{"NoteNumber":63,"Velocity":34,"Duration":200682,"SoundDuration":200682,"Delta":11168912},{"NoteNumber":56,"Velocity":46,"Duration":366220,"SoundDuration":366220,"Delta":11168912},{"NoteNumber":61,"Velocity":33,"Duration":220717,"SoundDuration":220717,"Delta":11369594},{"NoteNumber":51,"Velocity":42,"Duration":466452,"SoundDuration":466452,"Delta":11535133},{"NoteNumber":60,"Velocity":50,"Duration":801440,"SoundDuration":801440,"Delta":11590312},{"NoteNumber":61,"Velocity":38,"Duration":202620,"SoundDuration":202620,"Delta":11798964},{"NoteNumber":63,"Velocity":43,"Duration":195083,"SoundDuration":195083,"Delta":12001585},{"NoteNumber":67,"Velocity":38,"Duration":195083,"SoundDuration":195083,"Delta":12196669},{"NoteNumber":63,"Velocity":34,"Duration":220717,"SoundDuration":220717,"Delta":12391753},{"NoteNumber":58,"Velocity":50,"Duration":441435,"SoundDuration":441435,"Delta":12391753},{"NoteNumber":61,"Velocity":34,"Duration":220717,"SoundDuration":220717,"Delta":12612471},{"NoteNumber":44,"Velocity":42,"Duration":409164,"SoundDuration":409164,"Delta":12833189},{"NoteNumber":56,"Velocity":46,"Duration":1244326,"SoundDuration":1244326,"Delta":12833189},{"NoteNumber":60,"Velocity":38,"Duration":204582,"SoundDuration":204582,"Delta":13037771},{"NoteNumber":63,"Velocity":43,"Duration":200682,"SoundDuration":200682,"Delta":13242354},{"NoteNumber":68,"Velocity":38,"Duration":200682,"SoundDuration":200682,"Delta":13443036},{"NoteNumber":63,"Velocity":34,"Duration":210748,"SoundDuration":210748,"Delta":13643719},{"NoteNumber":60,"Velocity":34,"Duration":223048,"SoundDuration":223048,"Delta":13854467},{"NoteNumber":32,"Velocity":42,"Duration":419374,"SoundDuration":419374,"Delta":14077515},{"NoteNumber":56,"Velocity":38,"Duration":209687,"SoundDuration":209687,"Delta":14274971},{"NoteNumber":60,"Velocity":43,"Duration":217280,"SoundDuration":217280,"Delta":14496890},{"NoteNumber":68,"Velocity":38,"Duration":221577,"SoundDuration":221577,"Delta":14739786},{"NoteNumber":63,"Velocity":34,"Duration":236892,"SoundDuration":236892,"Delta":14933726},{"NoteNumber":51,"Velocity":41,"Duration":414560,"SoundDuration":414560,"Delta":14933726},{"NoteNumber":56,"Velocity":34,"Duration":236891,"SoundDuration":236891,"Delta":15170618},{"NoteNumber":44,"Velocity":40,"Duration":516988,"SoundDuration":516988,"Delta":15348287},{"NoteNumber":60,"Velocity":44,"Duration":1236802,"SoundDuration":1236802,"Delta":15407510},{"NoteNumber":63,"Velocity":34,"Duration":209687,"SoundDuration":209687,"Delta":15655588},{"NoteNumber":68,"Velocity":40,"Duration":185196,"SoundDuration":185196,"Delta":15865275},{"NoteNumber":72,"Velocity":36,"Duration":192406,"SoundDuration":192406,"Delta":16050472},{"NoteNumber":68,"Velocity":32,"Duration":197836,"SoundDuration":197836,"Delta":16242878},{"NoteNumber":63,"Velocity":30,"Duration":203596,"SoundDuration":203596,"Delta":16440715},{"NoteNumber":60,"Velocity":42,"Duration":1281126,"SoundDuration":1281126,"Delta":16644312},{"NoteNumber":63,"Velocity":37,"Duration":195134,"SoundDuration":195134,"Delta":16883910},{"NoteNumber":68,"Velocity":40,"Duration":181829,"SoundDuration":181829,"Delta":17079044},{"NoteNumber":72,"Velocity":37,"Duration":186057,"SoundDuration":186057,"Delta":17260873},{"NoteNumber":68,"Velocity":33,"Duration":202620,"SoundDuration":202620,"Delta":17446931},{"NoteNumber":63,"Velocity":33,"Duration":275887,"SoundDuration":275887,"Delta":17649552},{"NoteNumber":43,"Velocity":35,"Duration":421040,"SoundDuration":421040,"Delta":17925439},{"NoteNumber":60,"Velocity":38,"Duration":2007090,"SoundDuration":2007090,"Delta":17925439},{"NoteNumber":64,"Velocity":28,"Duration":202620,"SoundDuration":202620,"Delta":18143859},{"NoteNumber":70,"Velocity":32,"Duration":192406,"SoundDuration":192406,"Delta":18346480},{"NoteNumber":72,"Velocity":30,"Duration":192406,"SoundDuration":192406,"Delta":18538886},{"NoteNumber":70,"Velocity":28,"Duration":192406,"SoundDuration":192406,"Delta":18731293},{"NoteNumber":64,"Velocity":28,"Duration":199720,"SoundDuration":199720,"Delta":18923699},{"NoteNumber":42,"Velocity":45,"Duration":431037,"SoundDuration":431037,"Delta":19123420},{"NoteNumber":64,"Velocity":32,"Duration":205591,"SoundDuration":205591,"Delta":19348865},{"NoteNumber":70,"Velocity":37,"Duration":184785,"SoundDuration":184785,"Delta":19554457},{"NoteNumber":72,"Velocity":35,"Duration":193286,"SoundDuration":193286,"Delta":19739243},{"NoteNumber":70,"Velocity":32,"Duration":193286,"SoundDuration":193286,"Delta":19932530},{"NoteNumber":60,"Velocity":45,"Duration":394926,"SoundDuration":394926,"Delta":19932530},{"NoteNumber":64,"Velocity":37,"Duration":201640,"SoundDuration":201640,"Delta":20125816},{"NoteNumber":41,"Velocity":49,"Duration":419275,"SoundDuration":419275,"Delta":20327456},{"NoteNumber":60,"Velocity":56,"Duration":790045,"SoundDuration":790045,"Delta":20327456},{"NoteNumber":63,"Velocity":42,"Duration":199720,"SoundDuration":199720,"Delta":20547011},{"NoteNumber":69,"Velocity":45,"Duration":181829,"SoundDuration":181829,"Delta":20746732},{"NoteNumber":72,"Velocity":43,"Duration":188940,"SoundDuration":188940,"Delta":20928561},{"NoteNumber":69,"Velocity":45,"Duration":195084,"SoundDuration":195084,"Delta":21117501},{"NoteNumber":60,"Velocity":59,"Duration":297375,"SoundDuration":297375,"Delta":21117501},{"NoteNumber":63,"Velocity":46,"Duration":204582,"SoundDuration":204582,"Delta":21312585},{"NoteNumber":53,"Velocity":47,"Duration":510443,"SoundDuration":510443,"Delta":21414876},{"NoteNumber":57,"Velocity":49,"Duration":459298,"SoundDuration":459298,"Delta":21466022},{"NoteNumber":61,"Velocity":64,"Duration":780590,"SoundDuration":780590,"Delta":21517168},{"NoteNumber":63,"Velocity":47,"Duration":194187,"SoundDuration":194187,"Delta":21731133},{"NoteNumber":69,"Velocity":54,"Duration":183497,"SoundDuration":183497,"Delta":21925320},{"NoteNumber":72,"Velocity":50,"Duration":188940,"SoundDuration":188940,"Delta":22108818},{"NoteNumber":69,"Velocity":47,"Duration":204582,"SoundDuration":204582,"Delta":22297758},{"NoteNumber":60,"Velocity":62,"Duration":476715,"SoundDuration":476715,"Delta":22297758},{"NoteNumber":63,"Velocity":51,"Duration":272133,"SoundDuration":272133,"Delta":22502341},{"NoteNumber":46,"Velocity":49,"Duration":478501,"SoundDuration":478501,"Delta":22706441},{"NoteNumber":65,"Velocity":62,"Duration":1199756,"SoundDuration":1199756,"Delta":22774474},{"NoteNumber":62,"Velocity":38,"Duration":199720,"SoundDuration":199720,"Delta":22985222},{"NoteNumber":68,"Velocity":43,"Duration":187253,"SoundDuration":187253,"Delta":23184943},{"NoteNumber":77,"Velocity":42,"Duration":190657,"SoundDuration":190657,"Delta":23372197},{"NoteNumber":72,"Velocity":39,"Duration":190657,"SoundDuration":190657,"Delta":23562855},{"NoteNumber":68,"Velocity":39,"Duration":220718,"SoundDuration":220718,"Delta":23753513},{"NoteNumber":34,"Velocity":39,"Duration":410468,"SoundDuration":410468,"Delta":23974231},{"NoteNumber":56,"Velocity":36,"Duration":199720,"SoundDuration":199720,"Delta":24184979},{"NoteNumber":58,"Velocity":40,"Duration":189801,"SoundDuration":189801,"Delta":24384699},{"NoteNumber":65,"Velocity":37,"Duration":189801,"SoundDuration":189801,"Delta":24574501},{"NoteNumber":62,"Velocity":33,"Duration":202620,"SoundDuration":202620,"Delta":24764302},{"NoteNumber":53,"Velocity":42,"Duration":419901,"SoundDuration":419901,"Delta":24764302},{"NoteNumber":58,"Velocity":33,"Duration":217280,"SoundDuration":217280,"Delta":24966923},{"NoteNumber":39,"Velocity":41,"Duration":410585,"SoundDuration":410585,"Delta":25184204},{"NoteNumber":53,"Velocity":48,"Duration":410585,"SoundDuration":410585,"Delta":25184204},{"NoteNumber":58,"Velocity":38,"Duration":198781,"SoundDuration":198781,"Delta":25396008},{"NoteNumber":61,"Velocity":45,"Duration":193286,"SoundDuration":193286,"Delta":25594789},{"NoteNumber":55,"Velocity":40,"Duration":386572,"SoundDuration":386572,"Delta":25594789},{"NoteNumber":67,"Velocity":38,"Duration":193286,"SoundDuration":193286,"Delta":25788076},{"NoteNumber":63,"Velocity":34,"Duration":193286,"SoundDuration":193286,"Delta":25981362},{"NoteNumber":56,"Velocity":46,"Duration":395907,"SoundDuration":395907,"Delta":25981362},{"NoteNumber":61,"Velocity":35,"Duration":202620,"SoundDuration":202620,"Delta":26174649},{"NoteNumber":51,"Velocity":42,"Duration":415802,"SoundDuration":415802,"Delta":26377269},{"NoteNumber":60,"Velocity":50,"Duration":805970,"SoundDuration":805970,"Delta":26377269},{"NoteNumber":61,"Velocity":38,"Duration":195084,"SoundDuration":195084,"Delta":26597987},{"NoteNumber":63,"Velocity":43,"Duration":195083,"SoundDuration":195083,"Delta":26793071},{"NoteNumber":67,"Velocity":38,"Duration":195084,"SoundDuration":195084,"Delta":26988155},{"NoteNumber":63,"Velocity":33,"Duration":224249,"SoundDuration":224249,"Delta":27183239},{"NoteNumber":58,"Velocity":50,"Duration":448498,"SoundDuration":448498,"Delta":27183239},{"NoteNumber":61,"Velocity":33,"Duration":224249,"SoundDuration":224249,"Delta":27407488},{"NoteNumber":44,"Velocity":42,"Duration":415401,"SoundDuration":415401,"Delta":27631737},{"NoteNumber":56,"Velocity":46,"Duration":415401,"SoundDuration":415401,"Delta":27631737},{"NoteNumber":60,"Velocity":38,"Duration":203596,"SoundDuration":203596,"Delta":27843542},{"NoteNumber":63,"Velocity":43,"Duration":188940,"SoundDuration":188940,"Delta":28047139},{"NoteNumber":68,"Velocity":38,"Duration":196001,"SoundDuration":196001,"Delta":28236079},{"NoteNumber":63,"Velocity":34,"Duration":196001,"SoundDuration":196001,"Delta":28432081},{"NoteNumber":60,"Velocity":34,"Duration":196001,"SoundDuration":196001,"Delta":28628082},{"NoteNumber":32,"Velocity":42,"Duration":401364,"SoundDuration":401364,"Delta":28824084},{"NoteNumber":60,"Velocity":38,"Duration":200682,"SoundDuration":200682,"Delta":29024766},{"NoteNumber":68,"Velocity":43,"Duration":196915,"SoundDuration":196915,"Delta":29225449},{"NoteNumber":63,"Velocity":38,"Duration":196001,"SoundDuration":196001,"Delta":29422364},{"NoteNumber":60,"Velocity":38,"Duration":196001,"SoundDuration":196001,"Delta":29618365},{"NoteNumber":56,"Velocity":47,"Duration":251613,"SoundDuration":251613,"Delta":29814367},{"NoteNumber":40,"Velocity":40,"Duration":415604,"SoundDuration":415604,"Delta":30069165},{"NoteNumber":56,"Velocity":50,"Duration":998167,"SoundDuration":998167,"Delta":30069165},{"NoteNumber":61,"Velocity":38,"Duration":201639,"SoundDuration":201639,"Delta":30283130},{"NoteNumber":68,"Velocity":40,"Duration":194187,"SoundDuration":194187,"Delta":30484770},{"NoteNumber":64,"Velocity":38,"Duration":194187,"SoundDuration":194187,"Delta":30678958},{"NoteNumber":61,"Velocity":34,"Duration":194187,"SoundDuration":194187,"Delta":30873145},{"NoteNumber":55,"Velocity":51,"Duration":195084,"SoundDuration":195084,"Delta":31067333},{"NoteNumber":37,"Velocity":35,"Duration":409049,"SoundDuration":409049,"Delta":31262417},{"NoteNumber":52,"Velocity":37,"Duration":409049,"SoundDuration":409049,"Delta":31262417},{"NoteNumber":56,"Velocity":55,"Duration":994301,"SoundDuration":994301,"Delta":31262417},{"NoteNumber":61,"Velocity":40,"Duration":195084,"SoundDuration":195084,"Delta":31476382},{"NoteNumber":68,"Velocity":45,"Duration":195084,"SoundDuration":195084,"Delta":31671466},{"NoteNumber":64,"Velocity":42,"Duration":195083,"SoundDuration":195083,"Delta":31866550},{"NoteNumber":61,"Velocity":42,"Duration":195084,"SoundDuration":195084,"Delta":32061634},{"NoteNumber":58,"Velocity":51,"Duration":205592,"SoundDuration":205592,"Delta":32256718},{"NoteNumber":44,"Velocity":35,"Duration":416469,"SoundDuration":416469,"Delta":32462310},{"NoteNumber":51,"Velocity":40,"Duration":416469,"SoundDuration":416469,"Delta":32462310},{"NoteNumber":60,"Velocity":56,"Duration":1194035,"SoundDuration":1194035,"Delta":32462310},{"NoteNumber":63,"Velocity":40,"Duration":196914,"SoundDuration":196914,"Delta":32681865},{"NoteNumber":72,"Velocity":45,"Duration":190657,"SoundDuration":190657,"Delta":32878780},{"NoteNumber":68,"Velocity":42,"Duration":190657,"SoundDuration":190657,"Delta":33069438},{"NoteNumber":63,"Velocity":38,"Duration":190657,"SoundDuration":190657,"Delta":33260096},{"NoteNumber":60,"Velocity":38,"Duration":205592,"SoundDuration":205592,"Delta":33450754},{"NoteNumber":32,"Velocity":40,"Duration":421829,"SoundDuration":421829,"Delta":33656346},{"NoteNumber":63,"Velocity":40,"Duration":198780,"SoundDuration":198780,"Delta":33879394},{"NoteNumber":72,"Velocity":45,"Duration":191533,"SoundDuration":191533,"Delta":34078175},{"NoteNumber":68,"Velocity":42,"Duration":191534,"SoundDuration":191534,"Delta":34269709},{"NoteNumber":63,"Velocity":42,"Duration":191533,"SoundDuration":191533,"Delta":34461243},{"NoteNumber":60,"Velocity":46,"Duration":199959,"SoundDuration":199959,"Delta":34652777},{"NoteNumber":44,"Velocity":46,"Duration":414195,"SoundDuration":414195,"Delta":34854417},{"NoteNumber":60,"Velocity":57,"Duration":786682,"SoundDuration":786682,"Delta":34854417},{"NoteNumber":65,"Velocity":43,"Duration":196914,"SoundDuration":196914,"Delta":35071698},{"NoteNumber":72,"Velocity":46,"Duration":181829,"SoundDuration":181829,"Delta":35268613},{"NoteNumber":68,"Velocity":39,"Duration":190657,"SoundDuration":190657,"Delta":35450442},{"NoteNumber":65,"Velocity":40,"Duration":190657,"SoundDuration":190657,"Delta":35641100},{"NoteNumber":59,"Velocity":59,"Duration":200682,"SoundDuration":200682,"Delta":35831758},{"NoteNumber":41,"Velocity":40,"Duration":400023,"SoundDuration":400023,"Delta":36032441},{"NoteNumber":56,"Velocity":42,"Duration":400023,"SoundDuration":400023,"Delta":36032441},{"NoteNumber":60,"Velocity":62,"Duration":970847,"SoundDuration":970847,"Delta":36032441},{"NoteNumber":65,"Velocity":48,"Duration":186058,"SoundDuration":186058,"Delta":36246406},{"NoteNumber":72,"Velocity":53,"Duration":179383,"SoundDuration":179383,"Delta":36432464},{"NoteNumber":68,"Velocity":47,"Duration":189801,"SoundDuration":189801,"Delta":36611847},{"NoteNumber":65,"Velocity":47,"Duration":201639,"SoundDuration":201639,"Delta":36801648},{"NoteNumber":62,"Velocity":59,"Duration":251593,"SoundDuration":251593,"Delta":37003288},{"NoteNumber":55,"Velocity":46,"Duration":402093,"SoundDuration":402093,"Delta":37254882},{"NoteNumber":36,"Velocity":46,"Duration":402093,"SoundDuration":402093,"Delta":37254882},{"NoteNumber":64,"Velocity":63,"Duration":1183896,"SoundDuration":1183896,"Delta":37254882},{"NoteNumber":67,"Velocity":50,"Duration":192406,"SoundDuration":192406,"Delta":37464569},{"NoteNumber":72,"Velocity":56,"Duration":192406,"SoundDuration":192406,"Delta":37656976},{"NoteNumber":76,"Velocity":52,"Duration":192406,"SoundDuration":192406,"Delta":37849382},{"NoteNumber":72,"Velocity":49,"Duration":192406,"SoundDuration":192406,"Delta":38041789},{"NoteNumber":67,"Velocity":49,"Duration":204582,"SoundDuration":204582,"Delta":38234195},{"NoteNumber":64,"Velocity":63,"Duration":1248829,"SoundDuration":1248829,"Delta":38438778},{"NoteNumber":67,"Velocity":50,"Duration":203597,"SoundDuration":203597,"Delta":38663027},{"NoteNumber":72,"Velocity":56,"Duration":192406,"SoundDuration":192406,"Delta":38866624},{"NoteNumber":76,"Velocity":52,"Duration":192406,"SoundDuration":192406,"Delta":39059030},{"NoteNumber":72,"Velocity":49,"Duration":192406,"SoundDuration":192406,"Delta":39251437},{"NoteNumber":67,"Velocity":49,"Duration":243763,"SoundDuration":243763,"Delta":39443843},{"NoteNumber":45,"Velocity":41,"Duration":544057,"SoundDuration":544057,"Delta":39565725},{"NoteNumber":52,"Velocity":42,"Duration":483116,"SoundDuration":483116,"Delta":39626666},{"NoteNumber":60,"Velocity":42,"Duration":422175,"SoundDuration":422175,"Delta":39687607},{"NoteNumber":64,"Velocity":46,"Duration":1196978,"SoundDuration":1196978,"Delta":39687607},{"NoteNumber":69,"Velocity":39,"Duration":202620,"SoundDuration":202620,"Delta":39907162},{"NoteNumber":72,"Velocity":45,"Duration":185608,"SoundDuration":185608,"Delta":40109782},{"NoteNumber":76,"Velocity":38,"Duration":193286,"SoundDuration":193286,"Delta":40295391},{"NoteNumber":72,"Velocity":33,"Duration":193286,"SoundDuration":193286,"Delta":40488678},{"NoteNumber":69,"Velocity":33,"Duration":202620,"SoundDuration":202620,"Delta":40681964},{"NoteNumber":64,"Velocity":53,"Duration":1255263,"SoundDuration":1255263,"Delta":40884585},{"NoteNumber":69,"Velocity":34,"Duration":191533,"SoundDuration":191533,"Delta":41108834},{"NoteNumber":72,"Velocity":41,"Duration":184786,"SoundDuration":184786,"Delta":41300368},{"NoteNumber":76,"Velocity":35,"Duration":190657,"SoundDuration":190657,"Delta":41485154},{"NoteNumber":72,"Velocity":32,"Duration":217407,"SoundDuration":217407,"Delta":41675812},{"NoteNumber":69,"Velocity":32,"Duration":246629,"SoundDuration":246629,"Delta":41893219},{"NoteNumber":40,"Velocity":33,"Duration":559170,"SoundDuration":559170,"Delta":42016534},{"NoteNumber":47,"Velocity":37,"Duration":497513,"SoundDuration":497513,"Delta":42078191},{"NoteNumber":56,"Velocity":42,"Duration":435856,"SoundDuration":435856,"Delta":42139848},{"NoteNumber":64,"Velocity":42,"Duration":1225110,"SoundDuration":1225110,"Delta":42139848},{"NoteNumber":68,"Velocity":33,"Duration":190657,"SoundDuration":190657,"Delta":42385046},{"NoteNumber":71,"Velocity":41,"Duration":190657,"SoundDuration":190657,"Delta":42575704},{"NoteNumber":76,"Velocity":36,"Duration":190657,"SoundDuration":190657,"Delta":42766362},{"NoteNumber":71,"Velocity":32,"Duration":190657,"SoundDuration":190657,"Delta":42957020},{"NoteNumber":68,"Velocity":33,"Duration":217280,"SoundDuration":217280,"Delta":43147678},{"NoteNumber":59,"Velocity":39,"Duration":1242182,"SoundDuration":1242182,"Delta":43364959},{"NoteNumber":64,"Velocity":31,"Duration":193286,"SoundDuration":193286,"Delta":43607325},{"NoteNumber":68,"Velocity":37,"Duration":193286,"SoundDuration":193286,"Delta":43800611},{"NoteNumber":71,"Velocity":31,"Duration":193286,"SoundDuration":193286,"Delta":43993898},{"NoteNumber":68,"Velocity":31,"Duration":193286,"SoundDuration":193286,"Delta":44187184},{"NoteNumber":64,"Velocity":27,"Duration":226671,"SoundDuration":226671,"Delta":44380471},{"NoteNumber":40,"Velocity":33,"Duration":483059,"SoundDuration":483059,"Delta":44550474},{"NoteNumber":56,"Velocity":42,"Duration":426391,"SoundDuration":426391,"Delta":44607142},{"NoteNumber":61,"Velocity":42,"Duration":1207487,"SoundDuration":1207487,"Delta":44607142},{"NoteNumber":64,"Velocity":26,"Duration":199720,"SoundDuration":199720,"Delta":44833814},{"NoteNumber":68,"Velocity":33,"Duration":190657,"SoundDuration":190657,"Delta":45033534},{"NoteNumber":73,"Velocity":31,"Duration":190657,"SoundDuration":190657,"Delta":45224192},{"NoteNumber":68,"Velocity":30,"Duration":194187,"SoundDuration":194187,"Delta":45414850},{"NoteNumber":64,"Velocity":30,"Duration":205592,"SoundDuration":205592,"Delta":45609038},{"NoteNumber":61,"Velocity":44,"Duration":216599,"SoundDuration":216599,"Delta":45814630},{"NoteNumber":61,"Velocity":27,"Duration":741680,"SoundDuration":741680,"Delta":46033050},{"NoteNumber":64,"Velocity":34,"Duration":189801,"SoundDuration":189801,"Delta":46229051},{"NoteNumber":68,"Velocity":30,"Duration":189801,"SoundDuration":189801,"Delta":46418853},{"NoteNumber":64,"Velocity":26,"Duration":189801,"SoundDuration":189801,"Delta":46608654},{"NoteNumber":56,"Velocity":36,"Duration":402687,"SoundDuration":402687,"Delta":46608654},{"NoteNumber":61,"Velocity":29,"Duration":212886,"SoundDuration":212886,"Delta":46798456},{"NoteNumber":39,"Velocity":40,"Duration":479002,"SoundDuration":479002,"Delta":46958121},{"NoteNumber":55,"Velocity":41,"Duration":425781,"SoundDuration":425781,"Delta":47011342},{"NoteNumber":58,"Velocity":45,"Duration":1197111,"SoundDuration":1197111,"Delta":47011342},{"NoteNumber":63,"Velocity":31,"Duration":191533,"SoundDuration":191533,"Delta":47245589},{"NoteNumber":67,"Velocity":38,"Duration":191534,"SoundDuration":191534,"Delta":47437123},{"NoteNumber":70,"Velocity":34,"Duration":188099,"SoundDuration":188099,"Delta":47628657},{"NoteNumber":67,"Velocity":31,"Duration":188099,"SoundDuration":188099,"Delta":47816757},{"NoteNumber":63,"Velocity":31,"Duration":203597,"SoundDuration":203597,"Delta":48004856},{"NoteNumber":40,"Velocity":44,"Duration":418132,"SoundDuration":418132,"Delta":48208453},{"NoteNumber":56,"Velocity":44,"Duration":418132,"SoundDuration":418132,"Delta":48208453},{"NoteNumber":61,"Velocity":48,"Duration":808300,"SoundDuration":808300,"Delta":48208453},{"NoteNumber":64,"Velocity":31,"Duration":195084,"SoundDuration":195084,"Delta":48431502},{"NoteNumber":68,"Velocity":38,"Duration":195084,"SoundDuration":195084,"Delta":48626586},{"NoteNumber":73,"Velocity":32,"Duration":195083,"SoundDuration":195083,"Delta":48821670},{"NoteNumber":68,"Velocity":29,"Duration":195084,"SoundDuration":195084,"Delta":49016754},{"NoteNumber":59,"Velocity":42,"Duration":402711,"SoundDuration":402711,"Delta":49016754},{"NoteNumber":64,"Velocity":29,"Duration":207627,"SoundDuration":207627,"Delta":49211838},{"NoteNumber":39,"Velocity":37,"Duration":416719,"SoundDuration":416719,"Delta":49419465},{"NoteNumber":55,"Velocity":37,"Duration":416719,"SoundDuration":416719,"Delta":49419465},{"NoteNumber":58,"Velocity":46,"Duration":416719,"SoundDuration":416719,"Delta":49419465},{"NoteNumber":63,"Velocity":31,"Duration":196001,"SoundDuration":196001,"Delta":49640183},{"NoteNumber":67,"Velocity":38,"Duration":196001,"SoundDuration":196001,"Delta":49836184},{"NoteNumber":57,"Velocity":42,"Duration":392002,"SoundDuration":392002,"Delta":49836184},{"NoteNumber":70,"Velocity":33,"Duration":196001,"SoundDuration":196001,"Delta":50032186},{"NoteNumber":67,"Velocity":30,"Duration":196001,"SoundDuration":196001,"Delta":50228187},{"NoteNumber":58,"Velocity":43,"Duration":409966,"SoundDuration":409966,"Delta":50228187},{"NoteNumber":63,"Velocity":30,"Duration":213965,"SoundDuration":213965,"Delta":50424189},{"NoteNumber":40,"Velocity":43,"Duration":456854,"SoundDuration":456854,"Delta":50584662},{"NoteNumber":56,"Velocity":52,"Duration":403363,"SoundDuration":403363,"Delta":50638154},{"NoteNumber":61,"Velocity":52,"Duration":800925,"SoundDuration":800925,"Delta":50638154},{"NoteNumber":64,"Velocity":33,"Duration":198780,"SoundDuration":198780,"Delta":50842736},{"NoteNumber":68,"Velocity":40,"Duration":198781,"SoundDuration":198781,"Delta":51041517},{"NoteNumber":73,"Velocity":34,"Duration":198780,"SoundDuration":198780,"Delta":51240298},{"NoteNumber":68,"Velocity":31,"Duration":198781,"SoundDuration":198781,"Delta":51439079},{"NoteNumber":59,"Velocity":45,"Duration":409529,"SoundDuration":409529,"Delta":51439079},{"NoteNumber":64,"Velocity":31,"Duration":210748,"SoundDuration":210748,"Delta":51637860},{"NoteNumber":39,"Velocity":36,"Duration":433967,"SoundDuration":433967,"Delta":51848608},{"NoteNumber":55,"Velocity":36,"Duration":433967,"SoundDuration":433967,"Delta":51848608},{"NoteNumber":58,"Velocity":46,"Duration":433967,"SoundDuration":433967,"Delta":51848608},{"NoteNumber":63,"Velocity":31,"Duration":199720,"SoundDuration":199720,"Delta":52082855},{"NoteNumber":67,"Velocity":39,"Duration":199720,"SoundDuration":199720,"Delta":52282576},{"NoteNumber":57,"Velocity":39,"Duration":399441,"SoundDuration":399441,"Delta":52282576},{"NoteNumber":70,"Velocity":34,"Duration":199720,"SoundDuration":199720,"Delta":52482296},{"NoteNumber":67,"Velocity":32,"Duration":205592,"SoundDuration":205592,"Delta":52682017},{"NoteNumber":58,"Velocity":41,"Duration":456638,"SoundDuration":456638,"Delta":52682017},{"NoteNumber":63,"Velocity":33,"Duration":251046,"SoundDuration":251046,"Delta":52887609},{"NoteNumber":37,"Velocity":42,"Duration":427930,"SoundDuration":427930,"Delta":53138655},{"NoteNumber":49,"Velocity":42,"Duration":427930,"SoundDuration":427930,"Delta":53138655},{"NoteNumber":64,"Velocity":45,"Duration":899073,"SoundDuration":899073,"Delta":53138655},{"NoteNumber":68,"Velocity":36,"Duration":213965,"SoundDuration":213965,"Delta":53352620},{"NoteNumber":70,"Velocity":45,"Duration":235571,"SoundDuration":235571,"Delta":53566585},{"NoteNumber":56,"Velocity":41,"Duration":471142,"SoundDuration":471142,"Delta":53566585},{"NoteNumber":76,"Velocity":41,"Duration":235571,"SoundDuration":235571,"Delta":53802156},{"NoteNumber":70,"Velocity":38,"Duration":254086,"SoundDuration":254086,"Delta":54037728},{"NoteNumber":58,"Velocity":43,"Duration":508172,"SoundDuration":508172,"Delta":54037728},{"NoteNumber":68,"Velocity":41,"Duration":254086,"SoundDuration":254086,"Delta":54291814},{"NoteNumber":64,"Velocity":51,"Duration":2598528,"SoundDuration":2598528,"Delta":54545901},{"NoteNumber":63,"Velocity":41,"Duration":590319,"SoundDuration":590319,"Delta":57144429},{"NoteNumber":61,"Velocity":40,"Duration":590319,"SoundDuration":590319,"Delta":57734748},{"NoteNumber":59,"Velocity":39,"Duration":595733,"SoundDuration":595733,"Delta":58325067},{"NoteNumber":58,"Velocity":37,"Duration":625551,"SoundDuration":625551,"Delta":58920800},{"NoteNumber":56,"Velocity":36,"Duration":661998,"SoundDuration":661998,"Delta":59546352},{"NoteNumber":55,"Velocity":35,"Duration":675752,"SoundDuration":675752,"Delta":60208350},{"NoteNumber":39,"Velocity":37,"Duration":276377,"SoundDuration":276377,"Delta":62230583},{"NoteNumber":46,"Velocity":33,"Duration":272795,"SoundDuration":272795,"Delta":62506960},{"NoteNumber":49,"Velocity":37,"Duration":269294,"SoundDuration":269294,"Delta":62779756},{"NoteNumber":55,"Velocity":33,"Duration":265883,"SoundDuration":265883,"Delta":63049050},{"NoteNumber":58,"Velocity":37,"Duration":262564,"SoundDuration":262564,"Delta":63314933},{"NoteNumber":61,"Velocity":32,"Duration":257163,"SoundDuration":257163,"Delta":63577498},{"NoteNumber":64,"Velocity":37,"Duration":254600,"SoundDuration":254600,"Delta":63834661},{"NoteNumber":63,"Velocity":34,"Duration":251556,"SoundDuration":251556,"Delta":64089262},{"NoteNumber":68,"Velocity":37,"Duration":124657,"SoundDuration":124657,"Delta":64340818},{"NoteNumber":64,"Velocity":37,"Duration":124657,"SoundDuration":124657,"Delta":64340818},{"NoteNumber":63,"Velocity":39,"Duration":123918,"SoundDuration":123918,"Delta":64465476},{"NoteNumber":67,"Velocity":39,"Duration":123918,"SoundDuration":123918,"Delta":64465476},{"NoteNumber":68,"Velocity":40,"Duration":123195,"SoundDuration":123195,"Delta":64589394},{"NoteNumber":73,"Velocity":40,"Duration":123195,"SoundDuration":123195,"Delta":64589394},{"NoteNumber":64,"Velocity":33,"Duration":123195,"SoundDuration":123195,"Delta":64589394},{"NoteNumber":67,"Velocity":42,"Duration":122479,"SoundDuration":122479,"Delta":64712590},{"NoteNumber":70,"Velocity":42,"Duration":122479,"SoundDuration":122479,"Delta":64712590},{"NoteNumber":63,"Velocity":35,"Duration":122479,"SoundDuration":122479,"Delta":64712590},{"NoteNumber":73,"Velocity":43,"Duration":121765,"SoundDuration":121765,"Delta":64835069},{"NoteNumber":76,"Velocity":43,"Duration":121765,"SoundDuration":121765,"Delta":64835069},{"NoteNumber":68,"Velocity":36,"Duration":121765,"SoundDuration":121765,"Delta":64835069},{"NoteNumber":70,"Velocity":45,"Duration":121065,"SoundDuration":121065,"Delta":64956835},{"NoteNumber":75,"Velocity":45,"Duration":121065,"SoundDuration":121065,"Delta":64956835},{"NoteNumber":67,"Velocity":37,"Duration":121065,"SoundDuration":121065,"Delta":64956835},{"NoteNumber":76,"Velocity":46,"Duration":120368,"SoundDuration":120368,"Delta":65077900},{"NoteNumber":80,"Velocity":46,"Duration":120368,"SoundDuration":120368,"Delta":65077900},{"NoteNumber":73,"Velocity":38,"Duration":120368,"SoundDuration":120368,"Delta":65077900},{"NoteNumber":75,"Velocity":48,"Duration":119684,"SoundDuration":119684,"Delta":65198269},{"NoteNumber":79,"Velocity":48,"Duration":119684,"SoundDuration":119684,"Delta":65198269},{"NoteNumber":70,"Velocity":40,"Duration":119684,"SoundDuration":119684,"Delta":65198269},{"NoteNumber":85,"Velocity":49,"Duration":119002,"SoundDuration":119002,"Delta":65317953},{"NoteNumber":80,"Velocity":49,"Duration":119002,"SoundDuration":119002,"Delta":65317953},{"NoteNumber":76,"Velocity":41,"Duration":119002,"SoundDuration":119002,"Delta":65317953},{"NoteNumber":79,"Velocity":51,"Duration":118335,"SoundDuration":118335,"Delta":65436956},{"NoteNumber":82,"Velocity":51,"Duration":118335,"SoundDuration":118335,"Delta":65436956},{"NoteNumber":75,"Velocity":42,"Duration":118335,"SoundDuration":118335,"Delta":65436956},{"NoteNumber":85,"Velocity":52,"Duration":117675,"SoundDuration":117675,"Delta":65555292},{"NoteNumber":88,"Velocity":52,"Duration":117675,"SoundDuration":117675,"Delta":65555292},{"NoteNumber":80,"Velocity":43,"Duration":117675,"SoundDuration":117675,"Delta":65555292},{"NoteNumber":82,"Velocity":54,"Duration":117015,"SoundDuration":117015,"Delta":65672967},{"NoteNumber":87,"Velocity":54,"Duration":117015,"SoundDuration":117015,"Delta":65672967},{"NoteNumber":79,"Velocity":45,"Duration":117015,"SoundDuration":117015,"Delta":65672967},{"NoteNumber":88,"Velocity":55,"Duration":116369,"SoundDuration":116369,"Delta":65789983},{"NoteNumber":92,"Velocity":55,"Duration":116369,"SoundDuration":116369,"Delta":65789983},{"NoteNumber":85,"Velocity":46,"Duration":116369,"SoundDuration":116369,"Delta":65789983},{"NoteNumber":87,"Velocity":57,"Duration":115830,"SoundDuration":115830,"Delta":65906353},{"NoteNumber":91,"Velocity":57,"Duration":115830,"SoundDuration":115830,"Delta":65906353},{"NoteNumber":82,"Velocity":47,"Duration":115830,"SoundDuration":115830,"Delta":65906353},{"NoteNumber":92,"Velocity":58,"Duration":115830,"SoundDuration":115830,"Delta":66022183},{"NoteNumber":97,"Velocity":58,"Duration":115830,"SoundDuration":115830,"Delta":66022183},{"NoteNumber":88,"Velocity":48,"Duration":115830,"SoundDuration":115830,"Delta":66022183},{"NoteNumber":94,"Velocity":60,"Duration":115829,"SoundDuration":115829,"Delta":66138013},{"NoteNumber":91,"Velocity":60,"Duration":115829,"SoundDuration":115829,"Delta":66138013},{"NoteNumber":87,"Velocity":50,"Duration":115829,"SoundDuration":115829,"Delta":66138013},{"NoteNumber":97,"Velocity":61,"Duration":115724,"SoundDuration":115724,"Delta":66253843},{"NoteNumber":100,"Velocity":61,"Duration":115724,"SoundDuration":115724,"Delta":66253843},{"NoteNumber":92,"Velocity":51,"Duration":115724,"SoundDuration":115724,"Delta":66253843},{"NoteNumber":94,"Velocity":61,"Duration":115198,"SoundDuration":115198,"Delta":66369567},{"NoteNumber":99,"Velocity":61,"Duration":115198,"SoundDuration":115198,"Delta":66369567},{"NoteNumber":91,"Velocity":52,"Duration":115198,"SoundDuration":115198,"Delta":66369567},{"NoteNumber":97,"Velocity":60,"Duration":115198,"SoundDuration":115198,"Delta":66484766},{"NoteNumber":100,"Velocity":60,"Duration":115198,"SoundDuration":115198,"Delta":66484766},{"NoteNumber":92,"Velocity":51,"Duration":115198,"SoundDuration":115198,"Delta":66484766},{"NoteNumber":94,"Velocity":59,"Duration":115094,"SoundDuration":115094,"Delta":66599964},{"NoteNumber":99,"Velocity":59,"Duration":115094,"SoundDuration":115094,"Delta":66599964},{"NoteNumber":91,"Velocity":50,"Duration":115094,"SoundDuration":115094,"Delta":66599964},{"NoteNumber":92,"Velocity":57,"Duration":114573,"SoundDuration":114573,"Delta":66715059},{"NoteNumber":97,"Velocity":57,"Duration":114573,"SoundDuration":114573,"Delta":66715059},{"NoteNumber":88,"Velocity":49,"Duration":114573,"SoundDuration":114573,"Delta":66715059},{"NoteNumber":91,"Velocity":57,"Duration":114573,"SoundDuration":114573,"Delta":66829633},{"NoteNumber":94,"Velocity":57,"Duration":114573,"SoundDuration":114573,"Delta":66829633},{"NoteNumber":87,"Velocity":48,"Duration":114573,"SoundDuration":114573,"Delta":66829633},{"NoteNumber":92,"Velocity":55,"Duration":114469,"SoundDuration":114469,"Delta":66944206},{"NoteNumber":88,"Velocity":55,"Duration":114469,"SoundDuration":114469,"Delta":66944206},{"NoteNumber":85,"Velocity":46,"Duration":114469,"SoundDuration":114469,"Delta":66944206},{"NoteNumber":87,"Velocity":54,"Duration":113947,"SoundDuration":113947,"Delta":67058676},{"NoteNumber":91,"Velocity":54,"Duration":113947,"SoundDuration":113947,"Delta":67058676},{"NoteNumber":82,"Velocity":45,"Duration":113947,"SoundDuration":113947,"Delta":67058676},{"NoteNumber":92,"Velocity":53,"Duration":113947,"SoundDuration":113947,"Delta":67172623},{"NoteNumber":88,"Velocity":53,"Duration":113947,"SoundDuration":113947,"Delta":67172623},{"NoteNumber":85,"Velocity":44,"Duration":113947,"SoundDuration":113947,"Delta":67172623},{"NoteNumber":87,"Velocity":52,"Duration":113845,"SoundDuration":113845,"Delta":67286570},{"NoteNumber":91,"Velocity":52,"Duration":113845,"SoundDuration":113845,"Delta":67286570},{"NoteNumber":82,"Velocity":43,"Duration":113845,"SoundDuration":113845,"Delta":67286570},{"NoteNumber":85,"Velocity":51,"Duration":113335,"SoundDuration":113335,"Delta":67400415},{"NoteNumber":88,"Velocity":51,"Duration":113335,"SoundDuration":113335,"Delta":67400415},{"NoteNumber":80,"Velocity":42,"Duration":113335,"SoundDuration":113335,"Delta":67400415},{"NoteNumber":82,"Velocity":50,"Duration":113335,"SoundDuration":113335,"Delta":67513751},{"NoteNumber":87,"Velocity":50,"Duration":113335,"SoundDuration":113335,"Delta":67513751},{"NoteNumber":79,"Velocity":41,"Duration":113335,"SoundDuration":113335,"Delta":67513751},{"NoteNumber":85,"Velocity":49,"Duration":113233,"SoundDuration":113233,"Delta":67627087},{"NoteNumber":80,"Velocity":49,"Duration":113233,"SoundDuration":113233,"Delta":67627087},{"NoteNumber":76,"Velocity":40,"Duration":113233,"SoundDuration":113233,"Delta":67627087},{"NoteNumber":82,"Velocity":48,"Duration":112824,"SoundDuration":112824,"Delta":67740321},{"NoteNumber":79,"Velocity":48,"Duration":112824,"SoundDuration":112824,"Delta":67740321},{"NoteNumber":75,"Velocity":39,"Duration":112824,"SoundDuration":112824,"Delta":67740321},{"NoteNumber":85,"Velocity":47,"Duration":113437,"SoundDuration":113437,"Delta":67853145},{"NoteNumber":80,"Velocity":47,"Duration":113437,"SoundDuration":113437,"Delta":67853145},{"NoteNumber":76,"Velocity":38,"Duration":113437,"SoundDuration":113437,"Delta":67853145},{"NoteNumber":82,"Velocity":46,"Duration":114051,"SoundDuration":114051,"Delta":67966583},{"NoteNumber":79,"Velocity":46,"Duration":114051,"SoundDuration":114051,"Delta":67966583},{"NoteNumber":75,"Velocity":37,"Duration":114051,"SoundDuration":114051,"Delta":67966583},{"NoteNumber":80,"Velocity":45,"Duration":114677,"SoundDuration":114677,"Delta":68080635},{"NoteNumber":76,"Velocity":45,"Duration":114677,"SoundDuration":114677,"Delta":68080635},{"NoteNumber":73,"Velocity":36,"Duration":114677,"SoundDuration":114677,"Delta":68080635},{"NoteNumber":75,"Velocity":44,"Duration":115303,"SoundDuration":115303,"Delta":68195313},{"NoteNumber":79,"Velocity":44,"Duration":115303,"SoundDuration":115303,"Delta":68195313},{"NoteNumber":70,"Velocity":35,"Duration":115303,"SoundDuration":115303,"Delta":68195313},{"NoteNumber":73,"Velocity":43,"Duration":115937,"SoundDuration":115937,"Delta":68310616},{"NoteNumber":76,"Velocity":43,"Duration":115937,"SoundDuration":115937,"Delta":68310616},{"NoteNumber":68,"Velocity":33,"Duration":115937,"SoundDuration":115937,"Delta":68310616},{"NoteNumber":70,"Velocity":42,"Duration":116585,"SoundDuration":116585,"Delta":68426554},{"NoteNumber":75,"Velocity":42,"Duration":116585,"SoundDuration":116585,"Delta":68426554},{"NoteNumber":67,"Velocity":31,"Duration":116585,"SoundDuration":116585,"Delta":68426554},{"NoteNumber":73,"Velocity":41,"Duration":117233,"SoundDuration":117233,"Delta":68543140},{"NoteNumber":76,"Velocity":41,"Duration":117233,"SoundDuration":117233,"Delta":68543140},{"NoteNumber":68,"Velocity":33,"Duration":117233,"SoundDuration":117233,"Delta":68543140},{"NoteNumber":70,"Velocity":40,"Duration":117895,"SoundDuration":117895,"Delta":68660374},{"NoteNumber":75,"Velocity":40,"Duration":117895,"SoundDuration":117895,"Delta":68660374},{"NoteNumber":67,"Velocity":31,"Duration":117895,"SoundDuration":117895,"Delta":68660374},{"NoteNumber":68,"Velocity":39,"Duration":118557,"SoundDuration":118557,"Delta":68778269},{"NoteNumber":73,"Velocity":39,"Duration":118557,"SoundDuration":118557,"Delta":68778269},{"NoteNumber":64,"Velocity":33,"Duration":118557,"SoundDuration":118557,"Delta":68778269},{"NoteNumber":67,"Velocity":38,"Duration":119227,"SoundDuration":119227,"Delta":68896827},{"NoteNumber":70,"Velocity":38,"Duration":119227,"SoundDuration":119227,"Delta":68896827},{"NoteNumber":63,"Velocity":31,"Duration":119227,"SoundDuration":119227,"Delta":68896827},{"NoteNumber":68,"Velocity":41,"Duration":119912,"SoundDuration":119912,"Delta":69016055},{"NoteNumber":73,"Velocity":41,"Duration":119912,"SoundDuration":119912,"Delta":69016055},{"NoteNumber":64,"Velocity":29,"Duration":119912,"SoundDuration":119912,"Delta":69016055},{"NoteNumber":67,"Velocity":42,"Duration":120598,"SoundDuration":120598,"Delta":69135967},{"NoteNumber":70,"Velocity":42,"Duration":120598,"SoundDuration":120598,"Delta":69135967},{"NoteNumber":63,"Velocity":30,"Duration":120598,"SoundDuration":120598,"Delta":69135967},{"NoteNumber":68,"Velocity":43,"Duration":121299,"SoundDuration":121299,"Delta":69256566},{"NoteNumber":73,"Velocity":43,"Duration":121299,"SoundDuration":121299,"Delta":69256566},{"NoteNumber":64,"Velocity":31,"Duration":121299,"SoundDuration":121299,"Delta":69256566},{"NoteNumber":67,"Velocity":44,"Duration":122377,"SoundDuration":122377,"Delta":69377865},{"NoteNumber":70,"Velocity":44,"Duration":122377,"SoundDuration":122377,"Delta":69377865},{"NoteNumber":63,"Velocity":32,"Duration":122377,"SoundDuration":122377,"Delta":69377865},{"NoteNumber":68,"Velocity":46,"Duration":123237,"SoundDuration":123237,"Delta":69500243},{"NoteNumber":73,"Velocity":46,"Duration":123237,"SoundDuration":123237,"Delta":69500243},{"NoteNumber":68,"Velocity":46,"Duration":123237,"SoundDuration":123237,"Delta":69500243},{"NoteNumber":73,"Velocity":46,"Duration":123237,"SoundDuration":123237,"Delta":69500243},{"NoteNumber":64,"Velocity":34,"Duration":123237,"SoundDuration":123237,"Delta":69500243},{"NoteNumber":67,"Velocity":48,"Duration":122706,"SoundDuration":122706,"Delta":69623480},{"NoteNumber":70,"Velocity":48,"Duration":122706,"SoundDuration":122706,"Delta":69623480},{"NoteNumber":63,"Velocity":36,"Duration":122706,"SoundDuration":122706,"Delta":69623480},{"NoteNumber":68,"Velocity":51,"Duration":121724,"SoundDuration":121724,"Delta":69746187},{"NoteNumber":73,"Velocity":51,"Duration":121724,"SoundDuration":121724,"Delta":69746187},{"NoteNumber":64,"Velocity":38,"Duration":121724,"SoundDuration":121724,"Delta":69746187},{"NoteNumber":67,"Velocity":53,"Duration":120884,"SoundDuration":120884,"Delta":69867911},{"NoteNumber":70,"Velocity":53,"Duration":120884,"SoundDuration":120884,"Delta":69867911},{"NoteNumber":63,"Velocity":39,"Duration":120884,"SoundDuration":120884,"Delta":69867911},{"NoteNumber":68,"Velocity":55,"Duration":120237,"SoundDuration":120237,"Delta":69988796},{"NoteNumber":73,"Velocity":55,"Duration":120237,"SoundDuration":120237,"Delta":69988796},{"NoteNumber":64,"Velocity":41,"Duration":120237,"SoundDuration":120237,"Delta":69988796},{"NoteNumber":67,"Velocity":57,"Duration":119416,"SoundDuration":119416,"Delta":70109033},{"NoteNumber":70,"Velocity":57,"Duration":119416,"SoundDuration":119416,"Delta":70109033},{"NoteNumber":63,"Velocity":43,"Duration":119416,"SoundDuration":119416,"Delta":70109033},{"NoteNumber":68,"Velocity":60,"Duration":118607,"SoundDuration":118607,"Delta":70228450},{"NoteNumber":73,"Velocity":60,"Duration":118607,"SoundDuration":118607,"Delta":70228450},{"NoteNumber":64,"Velocity":45,"Duration":118607,"SoundDuration":118607,"Delta":70228450},{"NoteNumber":67,"Velocity":62,"Duration":117813,"SoundDuration":117813,"Delta":70347057},{"NoteNumber":70,"Velocity":62,"Duration":117813,"SoundDuration":117813,"Delta":70347057},{"NoteNumber":63,"Velocity":47,"Duration":117813,"SoundDuration":117813,"Delta":70347057},{"NoteNumber":68,"Velocity":65,"Duration":117136,"SoundDuration":117136,"Delta":70464870},{"NoteNumber":73,"Velocity":65,"Duration":117136,"SoundDuration":117136,"Delta":70464870},{"NoteNumber":64,"Velocity":49,"Duration":117136,"SoundDuration":117136,"Delta":70464870},{"NoteNumber":67,"Velocity":64,"Duration":116288,"SoundDuration":116288,"Delta":70582006},{"NoteNumber":70,"Velocity":64,"Duration":116288,"SoundDuration":116288,"Delta":70582006},{"NoteNumber":63,"Velocity":51,"Duration":116288,"SoundDuration":116288,"Delta":70582006},{"NoteNumber":68,"Velocity":61,"Duration":115519,"SoundDuration":115519,"Delta":70698295},{"NoteNumber":73,"Velocity":61,"Duration":115519,"SoundDuration":115519,"Delta":70698295},{"NoteNumber":64,"Velocity":50,"Duration":115519,"SoundDuration":115519,"Delta":70698295},{"NoteNumber":67,"Velocity":58,"Duration":114766,"SoundDuration":114766,"Delta":70813815},{"NoteNumber":70,"Velocity":58,"Duration":114766,"SoundDuration":114766,"Delta":70813815},{"NoteNumber":63,"Velocity":48,"Duration":114766,"SoundDuration":114766,"Delta":70813815},{"NoteNumber":68,"Velocity":55,"Duration":115188,"SoundDuration":115188,"Delta":70928581},{"NoteNumber":73,"Velocity":55,"Duration":115188,"SoundDuration":115188,"Delta":70928581},{"NoteNumber":64,"Velocity":46,"Duration":115188,"SoundDuration":115188,"Delta":70928581},{"NoteNumber":67,"Velocity":53,"Duration":116018,"SoundDuration":116018,"Delta":71043770},{"NoteNumber":70,"Velocity":53,"Duration":116018,"SoundDuration":116018,"Delta":71043770},{"NoteNumber":63,"Velocity":45,"Duration":116018,"SoundDuration":116018,"Delta":71043770},{"NoteNumber":68,"Velocity":48,"Duration":116795,"SoundDuration":116795,"Delta":71159789},{"NoteNumber":73,"Velocity":48,"Duration":116795,"SoundDuration":116795,"Delta":71159789},{"NoteNumber":64,"Velocity":43,"Duration":116795,"SoundDuration":116795,"Delta":71159789},{"NoteNumber":67,"Velocity":44,"Duration":117686,"SoundDuration":117686,"Delta":71276584},{"NoteNumber":70,"Velocity":44,"Duration":117686,"SoundDuration":117686,"Delta":71276584},{"NoteNumber":63,"Velocity":41,"Duration":117686,"SoundDuration":117686,"Delta":71276584},{"NoteNumber":68,"Velocity":41,"Duration":117785,"SoundDuration":117785,"Delta":71394270},{"NoteNumber":73,"Velocity":41,"Duration":117785,"SoundDuration":117785,"Delta":71394270},{"NoteNumber":64,"Velocity":38,"Duration":117785,"SoundDuration":117785,"Delta":71394270},{"NoteNumber":67,"Velocity":37,"Duration":119438,"SoundDuration":119438,"Delta":71512055},{"NoteNumber":70,"Velocity":37,"Duration":119438,"SoundDuration":119438,"Delta":71512055},{"NoteNumber":63,"Velocity":36,"Duration":119438,"SoundDuration":119438,"Delta":71512055},{"NoteNumber":68,"Velocity":34,"Duration":122221,"SoundDuration":122221,"Delta":71631493},{"NoteNumber":73,"Velocity":34,"Duration":122221,"SoundDuration":122221,"Delta":71631493},{"NoteNumber":64,"Velocity":33,"Duration":122221,"SoundDuration":122221,"Delta":71631493},{"NoteNumber":67,"Velocity":30,"Duration":125213,"SoundDuration":125213,"Delta":71753715},{"NoteNumber":70,"Velocity":30,"Duration":125213,"SoundDuration":125213,"Delta":71753715},{"NoteNumber":63,"Velocity":30,"Duration":125213,"SoundDuration":125213,"Delta":71753715},{"NoteNumber":74,"Velocity":46,"Duration":468494,"SoundDuration":468494,"Delta":73199014},{"NoteNumber":75,"Velocity":52,"Duration":1204008,"SoundDuration":1204008,"Delta":73667508},{"NoteNumber":47,"Velocity":35,"Duration":449355,"SoundDuration":449355,"Delta":73667508},{"NoteNumber":63,"Velocity":27,"Duration":205591,"SoundDuration":205591,"Delta":73911271},{"NoteNumber":54,"Velocity":22,"Duration":205591,"SoundDuration":205591,"Delta":73911271},{"NoteNumber":66,"Velocity":32,"Duration":179383,"SoundDuration":179383,"Delta":74116863},{"NoteNumber":59,"Velocity":27,"Duration":179383,"SoundDuration":179383,"Delta":74116863},{"NoteNumber":71,"Velocity":28,"Duration":184786,"SoundDuration":184786,"Delta":74296246},{"NoteNumber":63,"Velocity":24,"Duration":184786,"SoundDuration":184786,"Delta":74296246},{"NoteNumber":66,"Velocity":27,"Duration":189801,"SoundDuration":189801,"Delta":74481032},{"NoteNumber":59,"Velocity":22,"Duration":189801,"SoundDuration":189801,"Delta":74481032},{"NoteNumber":63,"Velocity":27,"Duration":200682,"SoundDuration":200682,"Delta":74670834},{"NoteNumber":54,"Velocity":22,"Duration":200682,"SoundDuration":200682,"Delta":74670834},{"NoteNumber":75,"Velocity":52,"Duration":1200125,"SoundDuration":1200125,"Delta":74871516},{"NoteNumber":63,"Velocity":29,"Duration":208652,"SoundDuration":208652,"Delta":75104472},{"NoteNumber":54,"Velocity":24,"Duration":208652,"SoundDuration":208652,"Delta":75104472},{"NoteNumber":66,"Velocity":32,"Duration":185608,"SoundDuration":185608,"Delta":75313124},{"NoteNumber":59,"Velocity":27,"Duration":185608,"SoundDuration":185608,"Delta":75313124},{"NoteNumber":71,"Velocity":29,"Duration":177001,"SoundDuration":177001,"Delta":75498733},{"NoteNumber":63,"Velocity":24,"Duration":177001,"SoundDuration":177001,"Delta":75498733},{"NoteNumber":66,"Velocity":28,"Duration":193286,"SoundDuration":193286,"Delta":75675734},{"NoteNumber":59,"Velocity":24,"Duration":193286,"SoundDuration":193286,"Delta":75675734},{"NoteNumber":63,"Velocity":29,"Duration":202620,"SoundDuration":202620,"Delta":75869021},{"NoteNumber":54,"Velocity":24,"Duration":202620,"SoundDuration":202620,"Delta":75869021},{"NoteNumber":75,"Velocity":54,"Duration":1191138,"SoundDuration":1191138,"Delta":76071641},{"NoteNumber":46,"Velocity":35,"Duration":437843,"SoundDuration":437843,"Delta":76071641},{"NoteNumber":63,"Velocity":32,"Duration":203597,"SoundDuration":203597,"Delta":76305888},{"NoteNumber":55,"Velocity":27,"Duration":203597,"SoundDuration":203597,"Delta":76305888},{"NoteNumber":67,"Velocity":38,"Duration":188099,"SoundDuration":188099,"Delta":76509485},{"NoteNumber":61,"Velocity":31,"Duration":188099,"SoundDuration":188099,"Delta":76509485},{"NoteNumber":73,"Velocity":32,"Duration":184786,"SoundDuration":184786,"Delta":76697585},{"NoteNumber":63,"Velocity":27,"Duration":184786,"SoundDuration":184786,"Delta":76697585},{"NoteNumber":67,"Velocity":30,"Duration":177788,"SoundDuration":177788,"Delta":76882371},{"NoteNumber":61,"Velocity":27,"Duration":177788,"SoundDuration":177788,"Delta":76882371},{"NoteNumber":63,"Velocity":30,"Duration":202620,"SoundDuration":202620,"Delta":77060159},{"NoteNumber":55,"Velocity":25,"Duration":202620,"SoundDuration":202620,"Delta":77060159},{"NoteNumber":63,"Velocity":32,"Duration":188940,"SoundDuration":188940,"Delta":77490674},{"NoteNumber":55,"Velocity":26,"Duration":188940,"SoundDuration":188940,"Delta":77490674},{"NoteNumber":67,"Velocity":35,"Duration":181684,"SoundDuration":181684,"Delta":77679615},{"NoteNumber":61,"Velocity":31,"Duration":181684,"SoundDuration":181684,"Delta":77679615},{"NoteNumber":73,"Velocity":32,"Duration":181682,"SoundDuration":181682,"Delta":77861299},{"NoteNumber":63,"Velocity":26,"Duration":181682,"SoundDuration":181682,"Delta":77861299},{"NoteNumber":75,"Velocity":52,"Duration":404434,"SoundDuration":404434,"Delta":78042981},{"NoteNumber":67,"Velocity":28,"Duration":197837,"SoundDuration":197837,"Delta":78042981},{"NoteNumber":61,"Velocity":28,"Duration":197837,"SoundDuration":197837,"Delta":78042981},{"NoteNumber":63,"Velocity":33,"Duration":206597,"SoundDuration":206597,"Delta":78240818},{"NoteNumber":55,"Velocity":28,"Duration":206597,"SoundDuration":206597,"Delta":78240818},{"NoteNumber":75,"Velocity":56,"Duration":790478,"SoundDuration":790478,"Delta":78447416},{"NoteNumber":45,"Velocity":35,"Duration":424809,"SoundDuration":424809,"Delta":78447416},{"NoteNumber":63,"Velocity":35,"Duration":196915,"SoundDuration":196915,"Delta":78675310},{"NoteNumber":54,"Velocity":25,"Duration":196915,"SoundDuration":196915,"Delta":78675310},{"NoteNumber":66,"Velocity":37,"Duration":180882,"SoundDuration":180882,"Delta":78872225},{"NoteNumber":61,"Velocity":29,"Duration":180882,"SoundDuration":180882,"Delta":78872225},{"NoteNumber":73,"Velocity":34,"Duration":184786,"SoundDuration":184786,"Delta":79053108},{"NoteNumber":63,"Velocity":28,"Duration":184786,"SoundDuration":184786,"Delta":79053108},{"NoteNumber":66,"Velocity":31,"Duration":189801,"SoundDuration":189801,"Delta":79237894},{"NoteNumber":75,"Velocity":50,"Duration":387638,"SoundDuration":387638,"Delta":79237894},{"NoteNumber":61,"Velocity":28,"Duration":189801,"SoundDuration":189801,"Delta":79237894},{"NoteNumber":63,"Velocity":35,"Duration":197837,"SoundDuration":197837,"Delta":79427695},{"NoteNumber":54,"Velocity":28,"Duration":197837,"SoundDuration":197837,"Delta":79427695},{"NoteNumber":76,"Velocity":55,"Duration":787286,"SoundDuration":787286,"Delta":79625532},{"NoteNumber":44,"Velocity":38,"Duration":417696,"SoundDuration":417696,"Delta":79625532},{"NoteNumber":63,"Velocity":38,"Duration":189801,"SoundDuration":189801,"Delta":79853427},{"NoteNumber":54,"Velocity":30,"Duration":189801,"SoundDuration":189801,"Delta":79853427},{"NoteNumber":66,"Velocity":42,"Duration":185608,"SoundDuration":185608,"Delta":80043228},{"NoteNumber":60,"Velocity":34,"Duration":185608,"SoundDuration":185608,"Delta":80043228},{"NoteNumber":72,"Velocity":37,"Duration":183981,"SoundDuration":183981,"Delta":80228837},{"NoteNumber":63,"Velocity":32,"Duration":183981,"SoundDuration":183981,"Delta":80228837},{"NoteNumber":75,"Velocity":49,"Duration":410826,"SoundDuration":410826,"Delta":80412819},{"NoteNumber":66,"Velocity":33,"Duration":192406,"SoundDuration":192406,"Delta":80412819},{"NoteNumber":60,"Velocity":32,"Duration":192406,"SoundDuration":192406,"Delta":80412819},{"NoteNumber":63,"Velocity":33,"Duration":218419,"SoundDuration":218419,"Delta":80605225},{"NoteNumber":54,"Velocity":32,"Duration":218419,"SoundDuration":218419,"Delta":80605225},{"NoteNumber":75,"Velocity":56,"Duration":1192010,"SoundDuration":1192010,"Delta":80823645},{"NoteNumber":37,"Velocity":35,"Duration":424931,"SoundDuration":424931,"Delta":80823645},{"NoteNumber":63,"Velocity":30,"Duration":200682,"SoundDuration":200682,"Delta":81047894},{"NoteNumber":53,"Velocity":25,"Duration":200682,"SoundDuration":200682,"Delta":81047894},{"NoteNumber":65,"Velocity":34,"Duration":189801,"SoundDuration":189801,"Delta":81248577},{"NoteNumber":59,"Velocity":28,"Duration":189801,"SoundDuration":189801,"Delta":81248577},{"NoteNumber":71,"Velocity":33,"Duration":187498,"SoundDuration":187498,"Delta":81438378},{"NoteNumber":63,"Velocity":28,"Duration":187498,"SoundDuration":187498,"Delta":81438378},{"NoteNumber":65,"Velocity":31,"Duration":185196,"SoundDuration":185196,"Delta":81625877},{"NoteNumber":59,"Velocity":26,"Duration":185196,"SoundDuration":185196,"Delta":81625877},{"NoteNumber":63,"Velocity":31,"Duration":204582,"SoundDuration":204582,"Delta":81811074},{"NoteNumber":53,"Velocity":26,"Duration":204582,"SoundDuration":204582,"Delta":81811074},{"NoteNumber":68,"Velocity":46,"Duration":426128,"SoundDuration":426128,"Delta":82015656},{"NoteNumber":59,"Velocity":24,"Duration":200682,"SoundDuration":200682,"Delta":82241102},{"NoteNumber":49,"Velocity":20,"Duration":200682,"SoundDuration":200682,"Delta":82241102},{"NoteNumber":61,"Velocity":30,"Duration":195083,"SoundDuration":195083,"Delta":82441784},{"NoteNumber":53,"Velocity":24,"Duration":195083,"SoundDuration":195083,"Delta":82441784},{"NoteNumber":65,"Velocity":24,"Duration":195084,"SoundDuration":195084,"Delta":82636868},{"NoteNumber":59,"Velocity":22,"Duration":195084,"SoundDuration":195084,"Delta":82636868},{"NoteNumber":61,"Velocity":31,"Duration":216169,"SoundDuration":216169,"Delta":82831952},{"NoteNumber":68,"Velocity":46,"Duration":447829,"SoundDuration":447829,"Delta":82831952},{"NoteNumber":53,"Velocity":22,"Duration":216169,"SoundDuration":216169,"Delta":82831952},{"NoteNumber":59,"Velocity":31,"Duration":231660,"SoundDuration":231660,"Delta":83048122},{"NoteNumber":49,"Velocity":22,"Duration":231660,"SoundDuration":231660,"Delta":83048122},{"NoteNumber":68,"Velocity":52,"Duration":394168,"SoundDuration":394168,"Delta":83279782},{"NoteNumber":42,"Velocity":35,"Duration":394168,"SoundDuration":394168,"Delta":83279782},{"NoteNumber":61,"Velocity":36,"Duration":189585,"SoundDuration":189585,"Delta":83484364},{"NoteNumber":52,"Velocity":25,"Duration":189585,"SoundDuration":189585,"Delta":83484364},{"NoteNumber":70,"Velocity":54,"Duration":370519,"SoundDuration":370519,"Delta":83673950},{"NoteNumber":64,"Velocity":38,"Duration":181828,"SoundDuration":181828,"Delta":83673950},{"NoteNumber":54,"Velocity":28,"Duration":181828,"SoundDuration":181828,"Delta":83673950},{"NoteNumber":66,"Velocity":38,"Duration":188691,"SoundDuration":188691,"Delta":83855779},{"NoteNumber":61,"Velocity":28,"Duration":188691,"SoundDuration":188691,"Delta":83855779},{"NoteNumber":71,"Velocity":56,"Duration":414647,"SoundDuration":414647,"Delta":84044470},{"NoteNumber":64,"Velocity":38,"Duration":200682,"SoundDuration":200682,"Delta":84044470},{"NoteNumber":54,"Velocity":26,"Duration":200682,"SoundDuration":200682,"Delta":84044470},{"NoteNumber":61,"Velocity":42,"Duration":213965,"SoundDuration":213965,"Delta":84245152},{"NoteNumber":52,"Velocity":27,"Duration":213965,"SoundDuration":213965,"Delta":84245152},{"NoteNumber":75,"Velocity":60,"Duration":794540,"SoundDuration":794540,"Delta":84459117},{"NoteNumber":64,"Velocity":40,"Duration":198780,"SoundDuration":198780,"Delta":84664709},{"NoteNumber":54,"Velocity":31,"Duration":198780,"SoundDuration":198780,"Delta":84664709},{"NoteNumber":66,"Velocity":48,"Duration":195083,"SoundDuration":195083,"Delta":84863490},{"NoteNumber":58,"Velocity":36,"Duration":195083,"SoundDuration":195083,"Delta":84863490},{"NoteNumber":70,"Velocity":40,"Duration":195084,"SoundDuration":195084,"Delta":85058574},{"NoteNumber":64,"Velocity":31,"Duration":195084,"SoundDuration":195084,"Delta":85058574},{"NoteNumber":73,"Velocity":53,"Duration":460688,"SoundDuration":460688,"Delta":85253658},{"NoteNumber":66,"Velocity":31,"Duration":217280,"SoundDuration":217280,"Delta":85253658},{"NoteNumber":58,"Velocity":31,"Duration":217280,"SoundDuration":217280,"Delta":85253658},{"NoteNumber":64,"Velocity":37,"Duration":243407,"SoundDuration":243407,"Delta":85470939},{"NoteNumber":54,"Velocity":28,"Duration":243407,"SoundDuration":243407,"Delta":85470939},{"NoteNumber":73,"Velocity":60,"Duration":401364,"SoundDuration":401364,"Delta":85714347},{"NoteNumber":63,"Velocity":37,"Duration":200682,"SoundDuration":200682,"Delta":85915029},{"NoteNumber":47,"Velocity":24,"Duration":200682,"SoundDuration":200682,"Delta":85915029},{"NoteNumber":66,"Velocity":34,"Duration":207972,"SoundDuration":207972,"Delta":86115712},{"NoteNumber":71,"Velocity":53,"Duration":415944,"SoundDuration":415944,"Delta":86115712},{"NoteNumber":54,"Velocity":28,"Duration":207972,"SoundDuration":207972,"Delta":86115712},{"NoteNumber":63,"Velocity":36,"Duration":207972,"SoundDuration":207972,"Delta":86323684},{"NoteNumber":59,"Velocity":26,"Duration":207972,"SoundDuration":207972,"Delta":86323684},{"NoteNumber":68,"Velocity":53,"Duration":442427,"SoundDuration":442427,"Delta":86531657},{"NoteNumber":53,"Velocity":28,"Duration":219378,"SoundDuration":219378,"Delta":86531657},{"NoteNumber":62,"Velocity":31,"Duration":223048,"SoundDuration":223048,"Delta":86751035},{"NoteNumber":59,"Velocity":25,"Duration":223048,"SoundDuration":223048,"Delta":86751035},{"NoteNumber":63,"Velocity":34,"Duration":206597,"SoundDuration":206597,"Delta":86974084},{"NoteNumber":66,"Velocity":52,"Duration":413195,"SoundDuration":413195,"Delta":86974084},{"NoteNumber":54,"Velocity":28,"Duration":206597,"SoundDuration":206597,"Delta":86974084},{"NoteNumber":63,"Velocity":27,"Duration":206597,"SoundDuration":206597,"Delta":87180681},{"NoteNumber":61,"Velocity":27,"Duration":206597,"SoundDuration":206597,"Delta":87387279},{"NoteNumber":59,"Velocity":26,"Duration":206597,"SoundDuration":206597,"Delta":87593876},{"NoteNumber":56,"Velocity":33,"Duration":206597,"SoundDuration":206597,"Delta":87800474},{"NoteNumber":66,"Velocity":65,"Duration":206597,"SoundDuration":206597,"Delta":88007071},{"NoteNumber":54,"Velocity":32,"Duration":206597,"SoundDuration":206597,"Delta":88007071},{"NoteNumber":75,"Velocity":72,"Duration":1177361,"SoundDuration":1177361,"Delta":88213669},{"NoteNumber":47,"Velocity":54,"Duration":437843,"SoundDuration":437843,"Delta":88213669},{"NoteNumber":63,"Velocity":49,"Duration":203597,"SoundDuration":203597,"Delta":88447916},{"NoteNumber":54,"Velocity":38,"Duration":203597,"SoundDuration":203597,"Delta":88447916},{"NoteNumber":66,"Velocity":56,"Duration":174682,"SoundDuration":174682,"Delta":88651513},{"NoteNumber":59,"Velocity":45,"Duration":174682,"SoundDuration":174682,"Delta":88651513},{"NoteNumber":71,"Velocity":47,"Duration":176252,"SoundDuration":176252,"Delta":88826195},{"NoteNumber":63,"Velocity":38,"Duration":176252,"SoundDuration":176252,"Delta":88826195},{"NoteNumber":66,"Velocity":47,"Duration":189801,"SoundDuration":189801,"Delta":89002448},{"NoteNumber":59,"Velocity":37,"Duration":189801,"SoundDuration":189801,"Delta":89002448},{"NoteNumber":63,"Velocity":47,"Duration":198780,"SoundDuration":198780,"Delta":89192249},{"NoteNumber":54,"Velocity":37,"Duration":198780,"SoundDuration":198780,"Delta":89192249},{"NoteNumber":75,"Velocity":79,"Duration":1157072,"SoundDuration":1157072,"Delta":89391030},{"NoteNumber":46,"Velocity":60,"Duration":432744,"SoundDuration":432744,"Delta":89391030},{"NoteNumber":63,"Velocity":57,"Duration":203597,"SoundDuration":203597,"Delta":89620178},{"NoteNumber":55,"Velocity":45,"Duration":203597,"SoundDuration":203597,"Delta":89620178},{"NoteNumber":67,"Velocity":63,"Duration":174682,"SoundDuration":174682,"Delta":89823775},{"NoteNumber":61,"Velocity":50,"Duration":174682,"SoundDuration":174682,"Delta":89823775},{"NoteNumber":73,"Velocity":58,"Duration":171683,"SoundDuration":171683,"Delta":89998457},{"NoteNumber":63,"Velocity":46,"Duration":171683,"SoundDuration":171683,"Delta":89998457},{"NoteNumber":67,"Velocity":58,"Duration":191534,"SoundDuration":191534,"Delta":90170141},{"NoteNumber":61,"Velocity":46,"Duration":191534,"SoundDuration":191534,"Delta":90170141},{"NoteNumber":63,"Velocity":58,"Duration":186428,"SoundDuration":186428,"Delta":90361675},{"NoteNumber":55,"Velocity":46,"Duration":186428,"SoundDuration":186428,"Delta":90361675},{"NoteNumber":75,"Velocity":81,"Duration":1149772,"SoundDuration":1149772,"Delta":90548103},{"NoteNumber":45,"Velocity":68,"Duration":425668,"SoundDuration":425668,"Delta":90548103},{"NoteNumber":63,"Velocity":62,"Duration":202620,"SoundDuration":202620,"Delta":90771151},{"NoteNumber":54,"Velocity":46,"Duration":202620,"SoundDuration":202620,"Delta":90771151},{"NoteNumber":66,"Velocity":67,"Duration":176235,"SoundDuration":176235,"Delta":90973772},{"NoteNumber":60,"Velocity":49,"Duration":176235,"SoundDuration":176235,"Delta":90973772},{"NoteNumber":72,"Velocity":66,"Duration":174770,"SoundDuration":174770,"Delta":91150007},{"NoteNumber":63,"Velocity":47,"Duration":174770,"SoundDuration":174770,"Delta":91150007},{"NoteNumber":66,"Velocity":69,"Duration":169500,"SoundDuration":169500,"Delta":91324777},{"NoteNumber":60,"Velocity":47,"Duration":169500,"SoundDuration":169500,"Delta":91324777},{"NoteNumber":63,"Velocity":69,"Duration":203597,"SoundDuration":203597,"Delta":91494278},{"NoteNumber":54,"Velocity":48,"Duration":203597,"SoundDuration":203597,"Delta":91494278},{"NoteNumber":44,"Velocity":77,"Duration":413488,"SoundDuration":413488,"Delta":91697875},{"NoteNumber":63,"Velocity":62,"Duration":181828,"SoundDuration":181828,"Delta":91929535},{"NoteNumber":54,"Velocity":49,"Duration":181828,"SoundDuration":181828,"Delta":91929535},{"NoteNumber":66,"Velocity":68,"Duration":171354,"SoundDuration":171354,"Delta":92111364},{"NoteNumber":60,"Velocity":52,"Duration":171354,"SoundDuration":171354,"Delta":92111364},{"NoteNumber":72,"Velocity":65,"Duration":168785,"SoundDuration":168785,"Delta":92282719},{"NoteNumber":63,"Velocity":48,"Duration":168785,"SoundDuration":168785,"Delta":92282719},{"NoteNumber":75,"Velocity":76,"Duration":410723,"SoundDuration":410723,"Delta":92451505},{"NoteNumber":66,"Velocity":57,"Duration":197837,"SoundDuration":197837,"Delta":92451505},{"NoteNumber":60,"Velocity":48,"Duration":197837,"SoundDuration":197837,"Delta":92451505},{"NoteNumber":63,"Velocity":66,"Duration":212886,"SoundDuration":212886,"Delta":92649342},{"NoteNumber":54,"Velocity":48,"Duration":212886,"SoundDuration":212886,"Delta":92649342},{"NoteNumber":75,"Velocity":82,"Duration":755843,"SoundDuration":755843,"Delta":92862228},{"NoteNumber":43,"Velocity":81,"Duration":427143,"SoundDuration":427143,"Delta":92862228},{"NoteNumber":64,"Velocity":67,"Duration":194187,"SoundDuration":194187,"Delta":93095184},{"NoteNumber":55,"Velocity":45,"Duration":194187,"SoundDuration":194187,"Delta":93095184},{"NoteNumber":67,"Velocity":71,"Duration":168049,"SoundDuration":168049,"Delta":93289371},{"NoteNumber":60,"Velocity":54,"Duration":168049,"SoundDuration":168049,"Delta":93289371},{"NoteNumber":72,"Velocity":64,"Duration":160651,"SoundDuration":160651,"Delta":93457421},{"NoteNumber":64,"Velocity":48,"Duration":160651,"SoundDuration":160651,"Delta":93457421},{"NoteNumber":67,"Velocity":54,"Duration":187253,"SoundDuration":187253,"Delta":93618072},{"NoteNumber":76,"Velocity":75,"Duration":379660,"SoundDuration":379660,"Delta":93618072},{"NoteNumber":60,"Velocity":45,"Duration":187253,"SoundDuration":187253,"Delta":93618072},{"NoteNumber":64,"Velocity":63,"Duration":192406,"SoundDuration":192406,"Delta":93805326},{"NoteNumber":55,"Velocity":45,"Duration":192406,"SoundDuration":192406,"Delta":93805326},{"NoteNumber":75,"Velocity":80,"Duration":744995,"SoundDuration":744995,"Delta":93997733},{"NoteNumber":64,"Velocity":64,"Duration":183981,"SoundDuration":183981,"Delta":94223178},{"NoteNumber":55,"Velocity":47,"Duration":183981,"SoundDuration":183981,"Delta":94223178},{"NoteNumber":67,"Velocity":71,"Duration":170950,"SoundDuration":170950,"Delta":94407160},{"NoteNumber":60,"Velocity":57,"Duration":170950,"SoundDuration":170950,"Delta":94407160},{"NoteNumber":72,"Velocity":61,"Duration":164618,"SoundDuration":164618,"Delta":94578110},{"NoteNumber":64,"Velocity":47,"Duration":164618,"SoundDuration":164618,"Delta":94578110},{"NoteNumber":76,"Velocity":78,"Duration":390484,"SoundDuration":390484,"Delta":94742728},{"NoteNumber":67,"Velocity":54,"Duration":189801,"SoundDuration":189801,"Delta":94742728},{"NoteNumber":60,"Velocity":47,"Duration":189801,"SoundDuration":189801,"Delta":94742728},{"NoteNumber":64,"Velocity":54,"Duration":200682,"SoundDuration":200682,"Delta":94932529},{"NoteNumber":55,"Velocity":47,"Duration":200682,"SoundDuration":200682,"Delta":94932529},{"NoteNumber":77,"Velocity":84,"Duration":2020375,"SoundDuration":2020375,"Delta":95133212},{"NoteNumber":43,"Velocity":75,"Duration":424931,"SoundDuration":424931,"Delta":95133212},{"NoteNumber":65,"Velocity":67,"Duration":200682,"SoundDuration":200682,"Delta":95357461},{"NoteNumber":57,"Velocity":52,"Duration":200682,"SoundDuration":200682,"Delta":95357461},{"NoteNumber":69,"Velocity":72,"Duration":175844,"SoundDuration":175844,"Delta":95558143},{"NoteNumber":62,"Velocity":54,"Duration":175844,"SoundDuration":175844,"Delta":95558143},{"NoteNumber":60,"Velocity":54,"Duration":175844,"SoundDuration":175844,"Delta":95558143},{"NoteNumber":72,"Velocity":58,"Duration":174712,"SoundDuration":174712,"Delta":95733988},{"NoteNumber":65,"Velocity":48,"Duration":174712,"SoundDuration":174712,"Delta":95733988},{"NoteNumber":69,"Velocity":51,"Duration":165984,"SoundDuration":165984,"Delta":95908700},{"NoteNumber":62,"Velocity":48,"Duration":165984,"SoundDuration":165984,"Delta":95908700},{"NoteNumber":60,"Velocity":48,"Duration":165984,"SoundDuration":165984,"Delta":95908700},{"NoteNumber":65,"Velocity":51,"Duration":200682,"SoundDuration":200682,"Delta":96074685},{"NoteNumber":57,"Velocity":48,"Duration":200682,"SoundDuration":200682,"Delta":96074685},{"NoteNumber":57,"Velocity":70,"Duration":432338,"SoundDuration":432338,"Delta":97153587},{"NoteNumber":69,"Velocity":79,"Duration":432338,"SoundDuration":432338,"Delta":97153587},{"NoteNumber":57,"Velocity":75,"Duration":410291,"SoundDuration":410291,"Delta":97585926},{"NoteNumber":69,"Velocity":87,"Duration":410291,"SoundDuration":410291,"Delta":97585926},{"NoteNumber":43,"Velocity":63,"Duration":201639,"SoundDuration":201639,"Delta":97794578},{"NoteNumber":59,"Velocity":60,"Duration":403280,"SoundDuration":403280,"Delta":97996218},{"NoteNumber":71,"Velocity":70,"Duration":403280,"SoundDuration":403280,"Delta":97996218},{"NoteNumber":50,"Velocity":60,"Duration":201639,"SoundDuration":201639,"Delta":97996218},{"NoteNumber":53,"Velocity":69,"Duration":201639,"SoundDuration":201639,"Delta":97996218},{"NoteNumber":57,"Velocity":54,"Duration":201640,"SoundDuration":201640,"Delta":98197858},{"NoteNumber":60,"Velocity":63,"Duration":421400,"SoundDuration":421400,"Delta":98399498},{"NoteNumber":72,"Velocity":72,"Duration":421400,"SoundDuration":421400,"Delta":98399498},{"NoteNumber":50,"Velocity":55,"Duration":200682,"SoundDuration":200682,"Delta":98399498},{"NoteNumber":53,"Velocity":65,"Duration":200682,"SoundDuration":200682,"Delta":98399498},{"NoteNumber":43,"Velocity":58,"Duration":165538,"SoundDuration":165538,"Delta":98600181},{"NoteNumber":43,"Velocity":73,"Duration":211668,"SoundDuration":211668,"Delta":98765719},{"NoteNumber":53,"Velocity":73,"Duration":197873,"SoundDuration":197873,"Delta":98779514},{"NoteNumber":59,"Velocity":74,"Duration":184078,"SoundDuration":184078,"Delta":98793309},{"NoteNumber":64,"Velocity":67,"Duration":848402,"SoundDuration":848402,"Delta":98807104},{"NoteNumber":76,"Velocity":79,"Duration":834608,"SoundDuration":834608,"Delta":98820899},{"NoteNumber":62,"Velocity":58,"Duration":425773,"SoundDuration":425773,"Delta":99655507},{"NoteNumber":74,"Velocity":67,"Duration":425773,"SoundDuration":425773,"Delta":99655507},{"NoteNumber":67,"Velocity":65,"Duration":368205,"SoundDuration":368205,"Delta":100081280},{"NoteNumber":60,"Velocity":65,"Duration":368205,"SoundDuration":368205,"Delta":100081280},{"NoteNumber":72,"Velocity":75,"Duration":368205,"SoundDuration":368205,"Delta":100081280},{"NoteNumber":36,"Velocity":62,"Duration":368205,"SoundDuration":368205,"Delta":100081280},{"NoteNumber":52,"Velocity":62,"Duration":368205,"SoundDuration":368205,"Delta":100081280},{"NoteNumber":72,"Velocity":73,"Duration":160341,"SoundDuration":160341,"Delta":100449485},{"NoteNumber":64,"Velocity":63,"Duration":171699,"SoundDuration":171699,"Delta":100609827},{"NoteNumber":67,"Velocity":70,"Duration":164970,"SoundDuration":164970,"Delta":100781526},{"NoteNumber":60,"Velocity":61,"Duration":178507,"SoundDuration":178507,"Delta":100946497},{"NoteNumber":64,"Velocity":68,"Duration":169156,"SoundDuration":169156,"Delta":101125005},{"NoteNumber":55,"Velocity":62,"Duration":179265,"SoundDuration":179265,"Delta":101294162},{"NoteNumber":60,"Velocity":70,"Duration":172810,"SoundDuration":172810,"Delta":101473427},{"NoteNumber":52,"Velocity":60,"Duration":182382,"SoundDuration":182382,"Delta":101646238},{"NoteNumber":55,"Velocity":68,"Duration":183152,"SoundDuration":183152,"Delta":101828620},{"NoteNumber":84,"Velocity":82,"Duration":205591,"SoundDuration":205591,"Delta":102011772},{"NoteNumber":72,"Velocity":65,"Duration":205591,"SoundDuration":205591,"Delta":102011772},{"NoteNumber":48,"Velocity":61,"Duration":205591,"SoundDuration":205591,"Delta":102011772},{"NoteNumber":72,"Velocity":68,"Duration":919420,"SoundDuration":919420,"Delta":102217364},{"NoteNumber":77,"Velocity":68,"Duration":919420,"SoundDuration":919420,"Delta":102217364},{"NoteNumber":80,"Velocity":68,"Duration":919420,"SoundDuration":919420,"Delta":102217364},{"NoteNumber":84,"Velocity":84,"Duration":919420,"SoundDuration":919420,"Delta":102217364},{"NoteNumber":41,"Velocity":69,"Duration":186428,"SoundDuration":186428,"Delta":102217364},{"NoteNumber":53,"Velocity":69,"Duration":186428,"SoundDuration":186428,"Delta":102217364},{"NoteNumber":68,"Velocity":68,"Duration":177514,"SoundDuration":177514,"Delta":102590220},{"NoteNumber":60,"Velocity":61,"Duration":177514,"SoundDuration":177514,"Delta":102767735},{"NoteNumber":65,"Velocity":67,"Duration":191534,"SoundDuration":191534,"Delta":102945250},{"NoteNumber":71,"Velocity":70,"Duration":201639,"SoundDuration":201639,"Delta":103136784},{"NoteNumber":77,"Velocity":70,"Duration":201639,"SoundDuration":201639,"Delta":103136784},{"NoteNumber":80,"Velocity":70,"Duration":201639,"SoundDuration":201639,"Delta":103136784},{"NoteNumber":83,"Velocity":78,"Duration":201639,"SoundDuration":201639,"Delta":103136784},{"NoteNumber":56,"Velocity":61,"Duration":201639,"SoundDuration":201639,"Delta":103136784},{"NoteNumber":72,"Velocity":78,"Duration":915110,"SoundDuration":915110,"Delta":103338424},{"NoteNumber":77,"Velocity":78,"Duration":915110,"SoundDuration":915110,"Delta":103338424},{"NoteNumber":80,"Velocity":78,"Duration":915110,"SoundDuration":915110,"Delta":103338424},{"NoteNumber":84,"Velocity":81,"Duration":915110,"SoundDuration":915110,"Delta":103338424},{"NoteNumber":60,"Velocity":66,"Duration":183205,"SoundDuration":183205,"Delta":103338424},{"NoteNumber":53,"Velocity":61,"Duration":183205,"SoundDuration":183205,"Delta":103521630},{"NoteNumber":56,"Velocity":66,"Duration":178777,"SoundDuration":178777,"Delta":103704836},{"NoteNumber":48,"Velocity":61,"Duration":177514,"SoundDuration":177514,"Delta":103883614},{"NoteNumber":53,"Velocity":67,"Duration":192406,"SoundDuration":192406,"Delta":104061129},{"NoteNumber":74,"Velocity":68,"Duration":204582,"SoundDuration":204582,"Delta":104253535},{"NoteNumber":77,"Velocity":68,"Duration":204582,"SoundDuration":204582,"Delta":104253535},{"NoteNumber":80,"Velocity":68,"Duration":204582,"SoundDuration":204582,"Delta":104253535},{"NoteNumber":86,"Velocity":80,"Duration":204582,"SoundDuration":204582,"Delta":104253535},{"NoteNumber":44,"Velocity":61,"Duration":204582,"SoundDuration":204582,"Delta":104253535},{"NoteNumber":76,"Velocity":72,"Duration":898564,"SoundDuration":898564,"Delta":104458118},{"NoteNumber":79,"Velocity":73,"Duration":898564,"SoundDuration":898564,"Delta":104458118},{"NoteNumber":88,"Velocity":90,"Duration":898564,"SoundDuration":898564,"Delta":104458118},{"NoteNumber":36,"Velocity":62,"Duration":377881,"SoundDuration":377881,"Delta":104458118},{"NoteNumber":48,"Velocity":62,"Duration":377881,"SoundDuration":377881,"Delta":104458118},{"NoteNumber":72,"Velocity":73,"Duration":173561,"SoundDuration":173561,"Delta":104835999},{"NoteNumber":64,"Velocity":63,"Duration":173560,"SoundDuration":173560,"Delta":105009560},{"NoteNumber":67,"Velocity":70,"Duration":173561,"SoundDuration":173561,"Delta":105183121},{"NoteNumber":74,"Velocity":75,"Duration":193286,"SoundDuration":193286,"Delta":105356682},{"NoteNumber":79,"Velocity":75,"Duration":193286,"SoundDuration":193286,"Delta":105356682},{"NoteNumber":86,"Velocity":83,"Duration":193286,"SoundDuration":193286,"Delta":105356682},{"NoteNumber":60,"Velocity":61,"Duration":193286,"SoundDuration":193286,"Delta":105356682},{"NoteNumber":72,"Velocity":78,"Duration":377881,"SoundDuration":377881,"Delta":105549968},{"NoteNumber":79,"Velocity":81,"Duration":377881,"SoundDuration":377881,"Delta":105549968},{"NoteNumber":84,"Velocity":84,"Duration":377881,"SoundDuration":377881,"Delta":105549968},{"NoteNumber":64,"Velocity":68,"Duration":188940,"SoundDuration":188940,"Delta":105549968},{"NoteNumber":55,"Velocity":62,"Duration":188940,"SoundDuration":188940,"Delta":105738909},{"NoteNumber":60,"Velocity":70,"Duration":173561,"SoundDuration":173561,"Delta":105927849},{"NoteNumber":52,"Velocity":60,"Duration":173560,"SoundDuration":173560,"Delta":106101410},{"NoteNumber":55,"Velocity":68,"Duration":173561,"SoundDuration":173561,"Delta":106274971},{"NoteNumber":88,"Velocity":88,"Duration":205591,"SoundDuration":205591,"Delta":106448532},{"NoteNumber":76,"Velocity":75,"Duration":205591,"SoundDuration":205591,"Delta":106448532},{"NoteNumber":48,"Velocity":61,"Duration":205591,"SoundDuration":205591,"Delta":106448532},{"NoteNumber":76,"Velocity":80,"Duration":921115,"SoundDuration":921115,"Delta":106654124},{"NoteNumber":81,"Velocity":80,"Duration":921115,"SoundDuration":921115,"Delta":106654124},{"NoteNumber":84,"Velocity":80,"Duration":921115,"SoundDuration":921115,"Delta":106654124},{"NoteNumber":88,"Velocity":93,"Duration":921115,"SoundDuration":921115,"Delta":106654124},{"NoteNumber":33,"Velocity":69,"Duration":188940,"SoundDuration":188940,"Delta":106654124},{"NoteNumber":45,"Velocity":69,"Duration":188940,"SoundDuration":188940,"Delta":106654124},{"NoteNumber":72,"Velocity":68,"Duration":175849,"SoundDuration":175849,"Delta":107032005},{"NoteNumber":64,"Velocity":61,"Duration":175849,"SoundDuration":175849,"Delta":107207855},{"NoteNumber":69,"Velocity":67,"Duration":191534,"SoundDuration":191534,"Delta":107383705},{"NoteNumber":75,"Velocity":74,"Duration":201639,"SoundDuration":201639,"Delta":107575239},{"NoteNumber":81,"Velocity":74,"Duration":201639,"SoundDuration":201639,"Delta":107575239},{"NoteNumber":84,"Velocity":74,"Duration":201639,"SoundDuration":201639,"Delta":107575239},{"NoteNumber":87,"Velocity":88,"Duration":201639,"SoundDuration":201639,"Delta":107575239},{"NoteNumber":60,"Velocity":61,"Duration":201639,"SoundDuration":201639,"Delta":107575239},{"NoteNumber":76,"Velocity":75,"Duration":929482,"SoundDuration":929482,"Delta":107776879},{"NoteNumber":81,"Velocity":75,"Duration":929482,"SoundDuration":929482,"Delta":107776879},{"NoteNumber":84,"Velocity":75,"Duration":929482,"SoundDuration":929482,"Delta":107776879},{"NoteNumber":88,"Velocity":93,"Duration":929482,"SoundDuration":929482,"Delta":107776879},{"NoteNumber":64,"Velocity":72,"Duration":184049,"SoundDuration":184049,"Delta":107776879},{"NoteNumber":57,"Velocity":66,"Duration":184049,"SoundDuration":184049,"Delta":107960928},{"NoteNumber":60,"Velocity":73,"Duration":184049,"SoundDuration":184049,"Delta":108144977},{"NoteNumber":52,"Velocity":68,"Duration":184049,"SoundDuration":184049,"Delta":108329026},{"NoteNumber":57,"Velocity":77,"Duration":193286,"SoundDuration":193286,"Delta":108513075},{"NoteNumber":78,"Velocity":83,"Duration":236891,"SoundDuration":236891,"Delta":108706362},{"NoteNumber":90,"Velocity":88,"Duration":236891,"SoundDuration":236891,"Delta":108706362},{"NoteNumber":48,"Velocity":71,"Duration":236891,"SoundDuration":236891,"Delta":108706362},{"NoteNumber":80,"Velocity":80,"Duration":1100080,"SoundDuration":1100080,"Delta":108943254},{"NoteNumber":92,"Velocity":95,"Duration":1100080,"SoundDuration":1100080,"Delta":108943254},{"NoteNumber":40,"Velocity":70,"Duration":1100080,"SoundDuration":1100080,"Delta":108943254},{"NoteNumber":52,"Velocity":80,"Duration":1100080,"SoundDuration":1100080,"Delta":108943254},{"NoteNumber":71,"Velocity":63,"Duration":205049,"SoundDuration":205049,"Delta":109142974},{"NoteNumber":59,"Velocity":57,"Duration":205049,"SoundDuration":205049,"Delta":109142974},{"NoteNumber":76,"Velocity":70,"Duration":185501,"SoundDuration":185501,"Delta":109331074},{"NoteNumber":56,"Velocity":58,"Duration":185501,"SoundDuration":185501,"Delta":109331074},{"NoteNumber":68,"Velocity":62,"Duration":176887,"SoundDuration":176887,"Delta":109500575},{"NoteNumber":64,"Velocity":57,"Duration":176887,"SoundDuration":176887,"Delta":109500575},{"NoteNumber":71,"Velocity":63,"Duration":190182,"SoundDuration":190182,"Delta":109660583},{"NoteNumber":59,"Velocity":53,"Duration":190182,"SoundDuration":190182,"Delta":109660583},{"NoteNumber":76,"Velocity":63,"Duration":213965,"SoundDuration":213965,"Delta":109829369},{"NoteNumber":56,"Velocity":53,"Duration":213965,"SoundDuration":213965,"Delta":109829369},{"NoteNumber":80,"Velocity":80,"Duration":1090247,"SoundDuration":1090247,"Delta":110043334},{"NoteNumber":92,"Velocity":95,"Duration":1090247,"SoundDuration":1090247,"Delta":110043334},{"NoteNumber":40,"Velocity":70,"Duration":1090247,"SoundDuration":1090247,"Delta":110043334},{"NoteNumber":52,"Velocity":80,"Duration":1090247,"SoundDuration":1090247,"Delta":110043334},{"NoteNumber":71,"Velocity":67,"Duration":201664,"SoundDuration":201664,"Delta":110228120},{"NoteNumber":59,"Velocity":57,"Duration":201664,"SoundDuration":201664,"Delta":110228120},{"NoteNumber":76,"Velocity":67,"Duration":184851,"SoundDuration":184851,"Delta":110412906},{"NoteNumber":56,"Velocity":62,"Duration":184851,"SoundDuration":184851,"Delta":110412906},{"NoteNumber":68,"Velocity":65,"Duration":177819,"SoundDuration":177819,"Delta":110581692},{"NoteNumber":64,"Velocity":59,"Duration":177819,"SoundDuration":177819,"Delta":110581692},{"NoteNumber":71,"Velocity":62,"Duration":193639,"SoundDuration":193639,"Delta":110742343},{"NoteNumber":59,"Velocity":59,"Duration":193639,"SoundDuration":193639,"Delta":110742343},{"NoteNumber":76,"Velocity":62,"Duration":219554,"SoundDuration":219554,"Delta":110914027},{"NoteNumber":56,"Velocity":62,"Duration":219554,"SoundDuration":219554,"Delta":110914027},{"NoteNumber":80,"Velocity":80,"Duration":1070954,"SoundDuration":1070954,"Delta":111133582},{"NoteNumber":92,"Velocity":95,"Duration":1070954,"SoundDuration":1070954,"Delta":111133582},{"NoteNumber":39,"Velocity":70,"Duration":1070954,"SoundDuration":1070954,"Delta":111133582},{"NoteNumber":51,"Velocity":80,"Duration":1070954,"SoundDuration":1070954,"Delta":111133582},{"NoteNumber":72,"Velocity":67,"Duration":206514,"SoundDuration":206514,"Delta":111340179},{"NoteNumber":60,"Velocity":61,"Duration":206514,"SoundDuration":206514,"Delta":111340179},{"NoteNumber":78,"Velocity":71,"Duration":178808,"SoundDuration":178808,"Delta":111529981},{"NoteNumber":56,"Velocity":65,"Duration":178808,"SoundDuration":178808,"Delta":111529981},{"NoteNumber":68,"Velocity":67,"Duration":175760,"SoundDuration":175760,"Delta":111692915},{"NoteNumber":66,"Velocity":61,"Duration":175760,"SoundDuration":175760,"Delta":111692915},{"NoteNumber":72,"Velocity":73,"Duration":188488,"SoundDuration":188488,"Delta":111851654},{"NoteNumber":60,"Velocity":59,"Duration":188488,"SoundDuration":188488,"Delta":111851654},{"NoteNumber":78,"Velocity":76,"Duration":182659,"SoundDuration":182659,"Delta":112021876},{"NoteNumber":56,"Velocity":65,"Duration":182659,"SoundDuration":182659,"Delta":112021876},{"NoteNumber":80,"Velocity":81,"Duration":203074,"SoundDuration":203074,"Delta":112204536},{"NoteNumber":51,"Velocity":73,"Duration":203074,"SoundDuration":203074,"Delta":112204536},{"NoteNumber":72,"Velocity":71,"Duration":197674,"SoundDuration":197674,"Delta":112389509},{"NoteNumber":60,"Velocity":61,"Duration":197674,"SoundDuration":197674,"Delta":112389509},{"NoteNumber":78,"Velocity":76,"Duration":182549,"SoundDuration":182549,"Delta":112570516},{"NoteNumber":56,"Velocity":64,"Duration":182549,"SoundDuration":182549,"Delta":112570516},{"NoteNumber":72,"Velocity":70,"Duration":176055,"SoundDuration":176055,"Delta":112737192},{"NoteNumber":66,"Velocity":59,"Duration":176055,"SoundDuration":176055,"Delta":112737192},{"NoteNumber":60,"Velocity":64,"Duration":196859,"SoundDuration":196859,"Delta":112895930},{"NoteNumber":80,"Velocity":83,"Duration":236891,"SoundDuration":236891,"Delta":113069100},{"NoteNumber":92,"Velocity":88,"Duration":236891,"SoundDuration":236891,"Delta":113069100},{"NoteNumber":56,"Velocity":67,"Duration":236891,"SoundDuration":236891,"Delta":113069100},{"NoteNumber":80,"Velocity":80,"Duration":709012,"SoundDuration":709012,"Delta":113305992},{"NoteNumber":92,"Velocity":95,"Duration":709012,"SoundDuration":709012,"Delta":113305992},{"NoteNumber":38,"Velocity":70,"Duration":1083075,"SoundDuration":1083075,"Delta":113305992},{"NoteNumber":50,"Velocity":80,"Duration":1083075,"SoundDuration":1083075,"Delta":113305992},{"NoteNumber":71,"Velocity":68,"Duration":201794,"SoundDuration":201794,"Delta":113505713},{"NoteNumber":59,"Velocity":60,"Duration":201794,"SoundDuration":201794,"Delta":113505713},{"NoteNumber":76,"Velocity":70,"Duration":181795,"SoundDuration":181795,"Delta":113690909},{"NoteNumber":56,"Velocity":62,"Duration":181795,"SoundDuration":181795,"Delta":113690909},{"NoteNumber":68,"Velocity":68,"Duration":175353,"SoundDuration":175353,"Delta":113856894},{"NoteNumber":66,"Velocity":61,"Duration":175353,"SoundDuration":175353,"Delta":113856894},{"NoteNumber":59,"Velocity":57,"Duration":192587,"SoundDuration":192587,"Delta":114015005},{"NoteNumber":92,"Velocity":82,"Duration":201639,"SoundDuration":201639,"Delta":114187428},{"NoteNumber":80,"Velocity":77,"Duration":201639,"SoundDuration":201639,"Delta":114187428},{"NoteNumber":56,"Velocity":66,"Duration":201639,"SoundDuration":201639,"Delta":114187428},{"NoteNumber":81,"Velocity":80,"Duration":701785,"SoundDuration":701785,"Delta":114389068},{"NoteNumber":93,"Velocity":95,"Duration":701785,"SoundDuration":701785,"Delta":114389068},{"NoteNumber":37,"Velocity":70,"Duration":1144005,"SoundDuration":1144005,"Delta":114389068},{"NoteNumber":49,"Velocity":80,"Duration":1144005,"SoundDuration":1144005,"Delta":114389068},{"NoteNumber":71,"Velocity":67,"Duration":205135,"SoundDuration":205135,"Delta":114578009},{"NoteNumber":59,"Velocity":61,"Duration":205135,"SoundDuration":205135,"Delta":114578009},{"NoteNumber":77,"Velocity":73,"Duration":178147,"SoundDuration":178147,"Delta":114766949},{"NoteNumber":56,"Velocity":65,"Duration":178147,"SoundDuration":178147,"Delta":114766949},{"NoteNumber":68,"Velocity":67,"Duration":180932,"SoundDuration":180932,"Delta":114928901},{"NoteNumber":65,"Velocity":62,"Duration":180932,"SoundDuration":180932,"Delta":114928901},{"NoteNumber":59,"Velocity":59,"Duration":215043,"SoundDuration":215043,"Delta":115090853},{"NoteNumber":92,"Velocity":83,"Duration":252419,"SoundDuration":252419,"Delta":115280655},{"NoteNumber":80,"Velocity":76,"Duration":252419,"SoundDuration":252419,"Delta":115280655},{"NoteNumber":56,"Velocity":67,"Duration":252419,"SoundDuration":252419,"Delta":115280655},{"NoteNumber":80,"Velocity":80,"Duration":1078157,"SoundDuration":1078157,"Delta":115533074},{"NoteNumber":92,"Velocity":95,"Duration":1078157,"SoundDuration":1078157,"Delta":115533074},{"NoteNumber":42,"Velocity":80,"Duration":206597,"SoundDuration":206597,"Delta":115533074},{"NoteNumber":52,"Velocity":63,"Duration":189801,"SoundDuration":189801,"Delta":115739671},{"NoteNumber":58,"Velocity":65,"Duration":126660,"SoundDuration":126660,"Delta":115929473},{"NoteNumber":58,"Velocity":67,"Duration":163274,"SoundDuration":163274,"Delta":116096952},{"NoteNumber":64,"Velocity":70,"Duration":172423,"SoundDuration":172423,"Delta":116260226},{"NoteNumber":68,"Velocity":72,"Duration":133936,"SoundDuration":133936,"Delta":116432649},{"NoteNumber":73,"Velocity":70,"Duration":371516,"SoundDuration":371516,"Delta":116611231},{"NoteNumber":85,"Velocity":85,"Duration":371516,"SoundDuration":371516,"Delta":116611231},{"NoteNumber":68,"Velocity":77,"Duration":185758,"SoundDuration":185758,"Delta":116611231},{"NoteNumber":64,"Velocity":69,"Duration":185758,"SoundDuration":185758,"Delta":116796990},{"NoteNumber":58,"Velocity":71,"Duration":120488,"SoundDuration":120488,"Delta":116982748},{"NoteNumber":58,"Velocity":64,"Duration":160651,"SoundDuration":160651,"Delta":117143399},{"NoteNumber":73,"Velocity":70,"Duration":383067,"SoundDuration":383067,"Delta":117304050},{"NoteNumber":85,"Velocity":80,"Duration":383067,"SoundDuration":383067,"Delta":117304050},{"NoteNumber":52,"Velocity":70,"Duration":191534,"SoundDuration":191534,"Delta":117304050},{"NoteNumber":42,"Velocity":64,"Duration":191533,"SoundDuration":191533,"Delta":117495584},{"NoteNumber":73,"Velocity":70,"Duration":380324,"SoundDuration":380324,"Delta":117687118},{"NoteNumber":81,"Velocity":70,"Duration":380324,"SoundDuration":380324,"Delta":117687118},{"NoteNumber":85,"Velocity":85,"Duration":380324,"SoundDuration":380324,"Delta":117687118},{"NoteNumber":35,"Velocity":80,"Duration":198780,"SoundDuration":198780,"Delta":117687118},{"NoteNumber":47,"Velocity":63,"Duration":181543,"SoundDuration":181543,"Delta":117885899},{"NoteNumber":75,"Velocity":70,"Duration":336152,"SoundDuration":336152,"Delta":118067442},{"NoteNumber":83,"Velocity":70,"Duration":336152,"SoundDuration":336152,"Delta":118067442},{"NoteNumber":81,"Velocity":70,"Duration":336152,"SoundDuration":336152,"Delta":118067442},{"NoteNumber":87,"Velocity":84,"Duration":336152,"SoundDuration":336152,"Delta":118067442},{"NoteNumber":54,"Velocity":65,"Duration":168076,"SoundDuration":168076,"Delta":118067442},{"NoteNumber":57,"Velocity":67,"Duration":168076,"SoundDuration":168076,"Delta":118235519},{"NoteNumber":76,"Velocity":71,"Duration":395446,"SoundDuration":395446,"Delta":118403595},{"NoteNumber":83,"Velocity":71,"Duration":395446,"SoundDuration":395446,"Delta":118403595},{"NoteNumber":81,"Velocity":71,"Duration":395446,"SoundDuration":395446,"Delta":118403595},{"NoteNumber":88,"Velocity":85,"Duration":395446,"SoundDuration":395446,"Delta":118403595},{"NoteNumber":61,"Velocity":70,"Duration":185758,"SoundDuration":185758,"Delta":118403595},{"NoteNumber":64,"Velocity":72,"Duration":209687,"SoundDuration":209687,"Delta":118589354},{"NoteNumber":80,"Velocity":7,"Duration":702676,"SoundDuration":702676,"Delta":118799041},{"NoteNumber":83,"Velocity":75,"Duration":702676,"SoundDuration":702676,"Delta":118799041},{"NoteNumber":87,"Velocity":81,"Duration":702676,"SoundDuration":702676,"Delta":118799041},{"NoteNumber":92,"Velocity":90,"Duration":702676,"SoundDuration":702676,"Delta":118799041},{"NoteNumber":68,"Velocity":77,"Duration":179910,"SoundDuration":179910,"Delta":118799041},{"NoteNumber":63,"Velocity":69,"Duration":179909,"SoundDuration":179909,"Delta":118978951},{"NoteNumber":59,"Velocity":71,"Duration":171428,"SoundDuration":171428,"Delta":119158861},{"NoteNumber":57,"Velocity":64,"Duration":171428,"SoundDuration":171428,"Delta":119330290},{"NoteNumber":78,"Velocity":76,"Duration":366411,"SoundDuration":366411,"Delta":119501718},{"NoteNumber":90,"Velocity":85,"Duration":366411,"SoundDuration":366411,"Delta":119501718},{"NoteNumber":51,"Velocity":70,"Duration":183205,"SoundDuration":183205,"Delta":119501718},{"NoteNumber":47,"Velocity":64,"Duration":183205,"SoundDuration":183205,"Delta":119684924},{"NoteNumber":78,"Velocity":73,"Duration":388582,"SoundDuration":388582,"Delta":119868130},{"NoteNumber":80,"Velocity":73,"Duration":388582,"SoundDuration":388582,"Delta":119868130},{"NoteNumber":83,"Velocity":73,"Duration":388582,"SoundDuration":388582,"Delta":119868130},{"NoteNumber":90,"Velocity":89,"Duration":388582,"SoundDuration":388582,"Delta":119868130},{"NoteNumber":40,"Velocity":80,"Duration":198780,"SoundDuration":198780,"Delta":119868130},{"NoteNumber":47,"Velocity":63,"Duration":189801,"SoundDuration":189801,"Delta":120066911},{"NoteNumber":76,"Velocity":79,"Duration":356611,"SoundDuration":356611,"Delta":120256713},{"NoteNumber":88,"Velocity":85,"Duration":356611,"SoundDuration":356611,"Delta":120256713},{"NoteNumber":52,"Velocity":65,"Duration":178306,"SoundDuration":178306,"Delta":120256713},{"NoteNumber":56,"Velocity":67,"Duration":178305,"SoundDuration":178305,"Delta":120435019},{"NoteNumber":73,"Velocity":70,"Duration":386594,"SoundDuration":386594,"Delta":120613325},{"NoteNumber":79,"Velocity":70,"Duration":386594,"SoundDuration":386594,"Delta":120613325},{"NoteNumber":85,"Velocity":82,"Duration":386594,"SoundDuration":386594,"Delta":120613325},{"NoteNumber":58,"Velocity":70,"Duration":194187,"SoundDuration":194187,"Delta":120613325},{"NoteNumber":64,"Velocity":69,"Duration":192406,"SoundDuration":192406,"Delta":120807512},{"NoteNumber":71,"Velocity":67,"Duration":377881,"SoundDuration":377881,"Delta":120999919},{"NoteNumber":80,"Velocity":67,"Duration":377881,"SoundDuration":377881,"Delta":120999919},{"NoteNumber":83,"Velocity":78,"Duration":377881,"SoundDuration":377881,"Delta":120999919},{"NoteNumber":59,"Velocity":77,"Duration":188940,"SoundDuration":188940,"Delta":120999919},{"NoteNumber":68,"Velocity":69,"Duration":188940,"SoundDuration":188940,"Delta":121188859},{"NoteNumber":64,"Velocity":71,"Duration":178306,"SoundDuration":178306,"Delta":121377800},{"NoteNumber":59,"Velocity":64,"Duration":178305,"SoundDuration":178305,"Delta":121556106},{"NoteNumber":71,"Velocity":71,"Duration":368107,"SoundDuration":368107,"Delta":121734412},{"NoteNumber":83,"Velocity":83,"Duration":368107,"SoundDuration":368107,"Delta":121734412},{"NoteNumber":56,"Velocity":70,"Duration":178306,"SoundDuration":178306,"Delta":121734412},{"NoteNumber":47,"Velocity":64,"Duration":189801,"SoundDuration":189801,"Delta":121912718},{"NoteNumber":80,"Velocity":80,"Duration":1070281,"SoundDuration":1070281,"Delta":122102519},{"NoteNumber":92,"Velocity":95,"Duration":1070281,"SoundDuration":1070281,"Delta":122102519},{"NoteNumber":40,"Velocity":70,"Duration":1070281,"SoundDuration":1070281,"Delta":122102519},{"NoteNumber":52,"Velocity":80,"Duration":1070281,"SoundDuration":1070281,"Delta":122102519},{"NoteNumber":71,"Velocity":68,"Duration":204403,"SoundDuration":204403,"Delta":122302240},{"NoteNumber":59,"Velocity":60,"Duration":204403,"SoundDuration":204403,"Delta":122302240},{"NoteNumber":76,"Velocity":71,"Duration":178669,"SoundDuration":178669,"Delta":122490339},{"NoteNumber":56,"Velocity":63,"Duration":178669,"SoundDuration":178669,"Delta":122490339},{"NoteNumber":68,"Velocity":68,"Duration":173065,"SoundDuration":173065,"Delta":122653383},{"NoteNumber":64,"Velocity":61,"Duration":173065,"SoundDuration":173065,"Delta":122653383},{"NoteNumber":71,"Velocity":64,"Duration":187584,"SoundDuration":187584,"Delta":122809641},{"NoteNumber":59,"Velocity":57,"Duration":187584,"SoundDuration":187584,"Delta":122809641},{"NoteNumber":76,"Velocity":64,"Duration":195083,"SoundDuration":195083,"Delta":122977717},{"NoteNumber":56,"Velocity":57,"Duration":195083,"SoundDuration":195083,"Delta":122977717},{"NoteNumber":80,"Velocity":80,"Duration":1091370,"SoundDuration":1091370,"Delta":123172801},{"NoteNumber":92,"Velocity":95,"Duration":1091370,"SoundDuration":1091370,"Delta":123172801},{"NoteNumber":39,"Velocity":70,"Duration":1091370,"SoundDuration":1091370,"Delta":123172801},{"NoteNumber":51,"Velocity":80,"Duration":1091370,"SoundDuration":1091370,"Delta":123172801},{"NoteNumber":72,"Velocity":67,"Duration":205178,"SoundDuration":205178,"Delta":123361742},{"NoteNumber":60,"Velocity":61,"Duration":205178,"SoundDuration":205178,"Delta":123361742},{"NoteNumber":78,"Velocity":70,"Duration":178068,"SoundDuration":178068,"Delta":123550682},{"NoteNumber":56,"Velocity":64,"Duration":178068,"SoundDuration":178068,"Delta":123550682},{"NoteNumber":68,"Velocity":67,"Duration":174339,"SoundDuration":174339,"Delta":123713064},{"NoteNumber":66,"Velocity":62,"Duration":174339,"SoundDuration":174339,"Delta":123713064},{"NoteNumber":72,"Velocity":62,"Duration":196638,"SoundDuration":196638,"Delta":123869935},{"NoteNumber":60,"Velocity":57,"Duration":196638,"SoundDuration":196638,"Delta":123869935},{"NoteNumber":78,"Velocity":62,"Duration":219554,"SoundDuration":219554,"Delta":124044617},{"NoteNumber":56,"Velocity":57,"Duration":219554,"SoundDuration":219554,"Delta":124044617},{"NoteNumber":80,"Velocity":80,"Duration":1075767,"SoundDuration":1075767,"Delta":124264172},{"NoteNumber":92,"Velocity":95,"Duration":2140775,"SoundDuration":2140775,"Delta":124264172},{"NoteNumber":38,"Velocity":70,"Duration":1075767,"SoundDuration":1075767,"Delta":124264172},{"NoteNumber":50,"Velocity":80,"Duration":1075767,"SoundDuration":1075767,"Delta":124264172},{"NoteNumber":71,"Velocity":67,"Duration":199084,"SoundDuration":199084,"Delta":124470770},{"NoteNumber":59,"Velocity":61,"Duration":199084,"SoundDuration":199084,"Delta":124470770},{"NoteNumber":77,"Velocity":70,"Duration":183326,"SoundDuration":183326,"Delta":124653141},{"NoteNumber":56,"Velocity":65,"Duration":183326,"SoundDuration":183326,"Delta":124653141},{"NoteNumber":68,"Velocity":67,"Duration":179496,"SoundDuration":179496,"Delta":124820272},{"NoteNumber":65,"Velocity":61,"Duration":179496,"SoundDuration":179496,"Delta":124820272},{"NoteNumber":71,"Velocity":73,"Duration":193883,"SoundDuration":193883,"Delta":124982224},{"NoteNumber":59,"Velocity":60,"Duration":193883,"SoundDuration":193883,"Delta":124982224},{"NoteNumber":77,"Velocity":76,"Duration":182267,"SoundDuration":182267,"Delta":125157673},{"NoteNumber":56,"Velocity":63,"Duration":182267,"SoundDuration":182267,"Delta":125157673},{"NoteNumber":80,"Velocity":84,"Duration":177323,"SoundDuration":177323,"Delta":125339940},{"NoteNumber":49,"Velocity":77,"Duration":1065007,"SoundDuration":1065007,"Delta":125339940},{"NoteNumber":71,"Velocity":72,"Duration":190497,"SoundDuration":190497,"Delta":125517263},{"NoteNumber":59,"Velocity":61,"Duration":190497,"SoundDuration":190497,"Delta":125517263},{"NoteNumber":77,"Velocity":73,"Duration":181875,"SoundDuration":181875,"Delta":125691186},{"NoteNumber":56,"Velocity":64,"Duration":181875,"SoundDuration":181875,"Delta":125691186},{"NoteNumber":68,"Velocity":67,"Duration":180279,"SoundDuration":180279,"Delta":125856932},{"NoteNumber":65,"Velocity":59,"Duration":180279,"SoundDuration":180279,"Delta":125856932},{"NoteNumber":71,"Velocity":63,"Duration":209492,"SoundDuration":209492,"Delta":126018231},{"NoteNumber":59,"Velocity":64,"Duration":209492,"SoundDuration":209492,"Delta":126018231},{"NoteNumber":77,"Velocity":68,"Duration":196914,"SoundDuration":196914,"Delta":126208032},{"NoteNumber":56,"Velocity":63,"Duration":196914,"SoundDuration":196914,"Delta":126208032},{"NoteNumber":80,"Velocity":80,"Duration":1088225,"SoundDuration":1088225,"Delta":126404947},{"NoteNumber":92,"Velocity":95,"Duration":1088225,"SoundDuration":1088225,"Delta":126404947},{"NoteNumber":36,"Velocity":70,"Duration":1088225,"SoundDuration":1088225,"Delta":126404947},{"NoteNumber":48,"Velocity":80,"Duration":1088225,"SoundDuration":1088225,"Delta":126404947},{"NoteNumber":72,"Velocity":68,"Duration":204743,"SoundDuration":204743,"Delta":126597257},{"NoteNumber":60,"Velocity":60,"Duration":204743,"SoundDuration":204743,"Delta":126597257},{"NoteNumber":77,"Velocity":70,"Duration":182630,"SoundDuration":182630,"Delta":126785357},{"NoteNumber":56,"Velocity":64,"Duration":182630,"SoundDuration":182630,"Delta":126785357},{"NoteNumber":68,"Velocity":68,"Duration":179730,"SoundDuration":179730,"Delta":126951792},{"NoteNumber":65,"Velocity":61,"Duration":179730,"SoundDuration":179730,"Delta":126951792},{"NoteNumber":72,"Velocity":64,"Duration":197952,"SoundDuration":197952,"Delta":127113744},{"NoteNumber":60,"Velocity":57,"Duration":197952,"SoundDuration":197952,"Delta":127113744},{"NoteNumber":77,"Velocity":64,"Duration":201639,"SoundDuration":201639,"Delta":127291533},{"NoteNumber":56,"Velocity":57,"Duration":201639,"SoundDuration":201639,"Delta":127291533},{"NoteNumber":80,"Velocity":80,"Duration":1140996,"SoundDuration":1140996,"Delta":127493173},{"NoteNumber":92,"Velocity":95,"Duration":1140996,"SoundDuration":1140996,"Delta":127493173},{"NoteNumber":47,"Velocity":89,"Duration":1140996,"SoundDuration":1140996,"Delta":127493173},{"NoteNumber":35,"Velocity":89,"Duration":1140996,"SoundDuration":1140996,"Delta":127493173},{"NoteNumber":73,"Velocity":67,"Duration":198468,"SoundDuration":198468,"Delta":127678415},{"NoteNumber":61,"Velocity":61,"Duration":198468,"SoundDuration":198468,"Delta":127678415},{"NoteNumber":77,"Velocity":70,"Duration":185646,"SoundDuration":185646,"Delta":127859958},{"NoteNumber":56,"Velocity":66,"Duration":185646,"SoundDuration":185646,"Delta":127859958},{"NoteNumber":68,"Velocity":67,"Duration":183272,"SoundDuration":183272,"Delta":128029210},{"NoteNumber":65,"Velocity":62,"Duration":183272,"SoundDuration":183272,"Delta":128029210},{"NoteNumber":73,"Velocity":64,"Duration":218059,"SoundDuration":218059,"Delta":128193154},{"NoteNumber":61,"Velocity":59,"Duration":218059,"SoundDuration":218059,"Delta":128193154},{"NoteNumber":77,"Velocity":64,"Duration":247728,"SoundDuration":247728,"Delta":128386440},{"NoteNumber":56,"Velocity":62,"Duration":247728,"SoundDuration":247728,"Delta":128386440},{"NoteNumber":86,"Velocity":79,"Duration":746780,"SoundDuration":746780,"Delta":128634169},{"NoteNumber":80,"Velocity":79,"Duration":746780,"SoundDuration":746780,"Delta":128634169},{"NoteNumber":92,"Velocity":96,"Duration":746780,"SoundDuration":746780,"Delta":128634169},{"NoteNumber":34,"Velocity":96,"Duration":390167,"SoundDuration":390167,"Delta":128634169},{"NoteNumber":46,"Velocity":96,"Duration":390167,"SoundDuration":390167,"Delta":128634169},{"NoteNumber":56,"Velocity":78,"Duration":195083,"SoundDuration":195083,"Delta":128829253},{"NoteNumber":62,"Velocity":78,"Duration":178305,"SoundDuration":178305,"Delta":129024337},{"NoteNumber":65,"Velocity":78,"Duration":178306,"SoundDuration":178306,"Delta":129202643},{"NoteNumber":79,"Velocity":78,"Duration":371231,"SoundDuration":371231,"Delta":129380949},{"NoteNumber":91,"Velocity":90,"Duration":371231,"SoundDuration":371231,"Delta":129380949},{"NoteNumber":62,"Velocity":74,"Duration":178305,"SoundDuration":178305,"Delta":129380949},{"NoteNumber":56,"Velocity":74,"Duration":192925,"SoundDuration":192925,"Delta":129559255},{"NoteNumber":89,"Velocity":90,"Duration":375777,"SoundDuration":375777,"Delta":129752181},{"NoteNumber":77,"Velocity":78,"Duration":375777,"SoundDuration":375777,"Delta":129752181},{"NoteNumber":53,"Velocity":82,"Duration":191082,"SoundDuration":191082,"Delta":129752181},{"NoteNumber":56,"Velocity":78,"Duration":184694,"SoundDuration":184694,"Delta":129943264},{"NoteNumber":67,"Velocity":68,"Duration":364742,"SoundDuration":364742,"Delta":130127959},{"NoteNumber":79,"Velocity":81,"Duration":364742,"SoundDuration":364742,"Delta":130127959},{"NoteNumber":62,"Velocity":78,"Duration":182370,"SoundDuration":182370,"Delta":130127959},{"NoteNumber":65,"Velocity":78,"Duration":182371,"SoundDuration":182371,"Delta":130310330},{"NoteNumber":68,"Velocity":69,"Duration":413195,"SoundDuration":413195,"Delta":130492701},{"NoteNumber":80,"Velocity":81,"Duration":413195,"SoundDuration":413195,"Delta":130492701},{"NoteNumber":62,"Velocity":74,"Duration":206597,"SoundDuration":206597,"Delta":130492701},{"NoteNumber":56,"Velocity":74,"Duration":206597,"SoundDuration":206597,"Delta":130699298},{"NoteNumber":72,"Velocity":78,"Duration":1116563,"SoundDuration":1116563,"Delta":130905896},{"NoteNumber":77,"Velocity":78,"Duration":1116563,"SoundDuration":1116563,"Delta":130905896},{"NoteNumber":80,"Velocity":78,"Duration":1116563,"SoundDuration":1116563,"Delta":130905896},{"NoteNumber":39,"Velocity":88,"Duration":184899,"SoundDuration":184899,"Delta":130905896},{"NoteNumber":84,"Velocity":90,"Duration":1116574,"SoundDuration":1116574,"Delta":130906666},{"NoteNumber":49,"Velocity":68,"Duration":184899,"SoundDuration":184899,"Delta":131090796},{"NoteNumber":53,"Velocity":70,"Duration":173661,"SoundDuration":173661,"Delta":131275696},{"NoteNumber":56,"Velocity":72,"Duration":173661,"SoundDuration":173661,"Delta":131449357},{"NoteNumber":58,"Velocity":74,"Duration":199720,"SoundDuration":199720,"Delta":131623019},{"NoteNumber":61,"Velocity":80,"Duration":199720,"SoundDuration":199720,"Delta":131822739},{"NoteNumber":82,"Velocity":80,"Duration":375000,"SoundDuration":375000,"Delta":132022460},{"NoteNumber":70,"Velocity":67,"Duration":375000,"SoundDuration":375000,"Delta":132022460},{"NoteNumber":65,"Velocity":85,"Duration":187500,"SoundDuration":187500,"Delta":132022460},{"NoteNumber":61,"Velocity":83,"Duration":187500,"SoundDuration":187500,"Delta":132209960},{"NoteNumber":58,"Velocity":75,"Duration":178305,"SoundDuration":178305,"Delta":132397460},{"NoteNumber":56,"Velocity":74,"Duration":178306,"SoundDuration":178306,"Delta":132575766},{"NoteNumber":80,"Velocity":78,"Duration":391605,"SoundDuration":391605,"Delta":132754072},{"NoteNumber":92,"Velocity":84,"Duration":391605,"SoundDuration":391605,"Delta":132754072},{"NoteNumber":53,"Velocity":72,"Duration":199720,"SoundDuration":199720,"Delta":132754072},{"NoteNumber":49,"Velocity":69,"Duration":191884,"SoundDuration":191884,"Delta":132953792},{"NoteNumber":80,"Velocity":82,"Duration":559875,"SoundDuration":559875,"Delta":133145677},{"NoteNumber":86,"Velocity":82,"Duration":559875,"SoundDuration":559875,"Delta":133145677},{"NoteNumber":92,"Velocity":90,"Duration":559875,"SoundDuration":559875,"Delta":133145677},{"NoteNumber":34,"Velocity":70,"Duration":373250,"SoundDuration":373250,"Delta":133145677},{"NoteNumber":46,"Velocity":78,"Duration":373250,"SoundDuration":373250,"Delta":133145677},{"NoteNumber":56,"Velocity":69,"Duration":186625,"SoundDuration":186625,"Delta":133332302},{"NoteNumber":62,"Velocity":69,"Duration":186624,"SoundDuration":186624,"Delta":133518927},{"NoteNumber":91,"Velocity":78,"Duration":186624,"SoundDuration":186624,"Delta":133705552},{"NoteNumber":79,"Velocity":69,"Duration":186624,"SoundDuration":186624,"Delta":133705552},{"NoteNumber":65,"Velocity":69,"Duration":186624,"SoundDuration":186624,"Delta":133705552},{"NoteNumber":82,"Velocity":81,"Duration":121580,"SoundDuration":121580,"Delta":133892177},{"NoteNumber":94,"Velocity":87,"Duration":121580,"SoundDuration":121580,"Delta":133892177},{"NoteNumber":62,"Velocity":65,"Duration":182370,"SoundDuration":182370,"Delta":133892177},{"NoteNumber":80,"Velocity":73,"Duration":119441,"SoundDuration":119441,"Delta":134013758},{"NoteNumber":92,"Velocity":80,"Duration":119441,"SoundDuration":119441,"Delta":134013758},{"NoteNumber":56,"Velocity":66,"Duration":175952,"SoundDuration":175952,"Delta":134074548},{"NoteNumber":79,"Velocity":72,"Duration":117301,"SoundDuration":117301,"Delta":134133199},{"NoteNumber":91,"Velocity":80,"Duration":117301,"SoundDuration":117301,"Delta":134133199},{"NoteNumber":89,"Velocity":90,"Duration":382166,"SoundDuration":382166,"Delta":134250501},{"NoteNumber":77,"Velocity":78,"Duration":382166,"SoundDuration":382166,"Delta":134250501},{"NoteNumber":53,"Velocity":82,"Duration":191082,"SoundDuration":191082,"Delta":134250501},{"NoteNumber":56,"Velocity":78,"Duration":191083,"SoundDuration":191083,"Delta":134441584},{"NoteNumber":67,"Velocity":68,"Duration":355029,"SoundDuration":355029,"Delta":134632667},{"NoteNumber":79,"Velocity":81,"Duration":355029,"SoundDuration":355029,"Delta":134632667},{"NoteNumber":62,"Velocity":78,"Duration":177514,"SoundDuration":177514,"Delta":134632667},{"NoteNumber":65,"Velocity":71,"Duration":177514,"SoundDuration":177514,"Delta":134810182},{"NoteNumber":68,"Velocity":69,"Duration":415254,"SoundDuration":415254,"Delta":134987697},{"NoteNumber":80,"Velocity":81,"Duration":415254,"SoundDuration":415254,"Delta":134987697},{"NoteNumber":62,"Velocity":78,"Duration":207627,"SoundDuration":207627,"Delta":134987697},{"NoteNumber":56,"Velocity":72,"Duration":207627,"SoundDuration":207627,"Delta":135195324},{"NoteNumber":72,"Velocity":78,"Duration":1134261,"SoundDuration":1134261,"Delta":135402951},{"NoteNumber":77,"Velocity":78,"Duration":1134261,"SoundDuration":1134261,"Delta":135402951},{"NoteNumber":80,"Velocity":78,"Duration":1134261,"SoundDuration":1134261,"Delta":135402951},{"NoteNumber":84,"Velocity":90,"Duration":1134261,"SoundDuration":1134261,"Delta":135402951},{"NoteNumber":39,"Velocity":88,"Duration":187500,"SoundDuration":187500,"Delta":135402951},{"NoteNumber":49,"Velocity":68,"Duration":187500,"SoundDuration":187500,"Delta":135590451},{"NoteNumber":53,"Velocity":70,"Duration":179910,"SoundDuration":179910,"Delta":135777951},{"NoteNumber":56,"Velocity":72,"Duration":179910,"SoundDuration":179910,"Delta":135957861},{"NoteNumber":58,"Velocity":74,"Duration":199720,"SoundDuration":199720,"Delta":136137771},{"NoteNumber":61,"Velocity":80,"Duration":199720,"SoundDuration":199720,"Delta":136337491},{"NoteNumber":82,"Velocity":80,"Duration":381005,"SoundDuration":381005,"Delta":136537212},{"NoteNumber":70,"Velocity":67,"Duration":381005,"SoundDuration":381005,"Delta":136537212},{"NoteNumber":65,"Velocity":84,"Duration":191731,"SoundDuration":191731,"Delta":136537212},{"NoteNumber":61,"Velocity":82,"Duration":189274,"SoundDuration":189274,"Delta":136728943},{"NoteNumber":58,"Velocity":78,"Duration":181543,"SoundDuration":181543,"Delta":136918217},{"NoteNumber":56,"Velocity":74,"Duration":181543,"SoundDuration":181543,"Delta":137099760},{"NoteNumber":80,"Velocity":78,"Duration":389610,"SoundDuration":389610,"Delta":137281303},{"NoteNumber":92,"Velocity":84,"Duration":389610,"SoundDuration":389610,"Delta":137281303},{"NoteNumber":53,"Velocity":72,"Duration":194805,"SoundDuration":194805,"Delta":137281303},{"NoteNumber":49,"Velocity":69,"Duration":194805,"SoundDuration":194805,"Delta":137476108},{"NoteNumber":80,"Velocity":82,"Duration":547316,"SoundDuration":547316,"Delta":137670913},{"NoteNumber":86,"Velocity":82,"Duration":547316,"SoundDuration":547316,"Delta":137670913},{"NoteNumber":92,"Velocity":90,"Duration":547316,"SoundDuration":547316,"Delta":137670913},{"NoteNumber":35,"Velocity":69,"Duration":1141832,"SoundDuration":1141832,"Delta":137670913},{"NoteNumber":47,"Velocity":78,"Duration":1141832,"SoundDuration":1141832,"Delta":137670913},{"NoteNumber":56,"Velocity":69,"Duration":179910,"SoundDuration":179910,"Delta":137858410},{"NoteNumber":62,"Velocity":69,"Duration":179909,"SoundDuration":179909,"Delta":138038320},{"NoteNumber":91,"Velocity":78,"Duration":189274,"SoundDuration":189274,"Delta":138218230},{"NoteNumber":79,"Velocity":69,"Duration":189274,"SoundDuration":189274,"Delta":138218230},{"NoteNumber":65,"Velocity":69,"Duration":189274,"SoundDuration":189274,"Delta":138218230},{"NoteNumber":82,"Velocity":81,"Duration":202620,"SoundDuration":202620,"Delta":138407505},{"NoteNumber":94,"Velocity":87,"Duration":202620,"SoundDuration":202620,"Delta":138407505},{"NoteNumber":62,"Velocity":66,"Duration":202620,"SoundDuration":202620,"Delta":138407505},{"NoteNumber":80,"Velocity":73,"Duration":202620,"SoundDuration":202620,"Delta":138610125},{"NoteNumber":92,"Velocity":80,"Duration":202620,"SoundDuration":202620,"Delta":138610125},{"NoteNumber":56,"Velocity":68,"Duration":202620,"SoundDuration":202620,"Delta":138610125},{"NoteNumber":83,"Velocity":85,"Duration":216169,"SoundDuration":216169,"Delta":138812746},{"NoteNumber":95,"Velocity":97,"Duration":216169,"SoundDuration":216169,"Delta":138812746},{"NoteNumber":34,"Velocity":70,"Duration":457133,"SoundDuration":457133,"Delta":138812746},{"NoteNumber":46,"Velocity":78,"Duration":457133,"SoundDuration":457133,"Delta":138812746},{"NoteNumber":82,"Velocity":88,"Duration":240963,"SoundDuration":240963,"Delta":139028915},{"NoteNumber":94,"Velocity":88,"Duration":240963,"SoundDuration":240963,"Delta":139028915},{"NoteNumber":53,"Velocity":69,"Duration":240963,"SoundDuration":240963,"Delta":139028915},{"NoteNumber":103,"Velocity":105,"Duration":380935,"SoundDuration":380935,"Delta":139269879},{"NoteNumber":91,"Velocity":94,"Duration":380935,"SoundDuration":380935,"Delta":139269879},{"NoteNumber":56,"Velocity":69,"Duration":188382,"SoundDuration":188382,"Delta":139269879},{"NoteNumber":62,"Velocity":69,"Duration":192552,"SoundDuration":192552,"Delta":139458262},{"NoteNumber":56,"Velocity":65,"Duration":203597,"SoundDuration":203597,"Delta":139650815},{"NoteNumber":89,"Velocity":73,"Duration":203597,"SoundDuration":203597,"Delta":139854412},{"NoteNumber":101,"Velocity":85,"Duration":203597,"SoundDuration":203597,"Delta":139854412},{"NoteNumber":53,"Velocity":65,"Duration":203597,"SoundDuration":203597,"Delta":139854412},{"NoteNumber":87,"Velocity":73,"Duration":188948,"SoundDuration":188948,"Delta":140058009},{"NoteNumber":99,"Velocity":84,"Duration":188948,"SoundDuration":188948,"Delta":140058009},{"NoteNumber":98,"Velocity":79,"Duration":190910,"SoundDuration":190910,"Delta":140246957},{"NoteNumber":86,"Velocity":69,"Duration":190910,"SoundDuration":190910,"Delta":140246957},{"NoteNumber":84,"Velocity":64,"Duration":192913,"SoundDuration":192913,"Delta":140437867},{"NoteNumber":96,"Velocity":74,"Duration":192913,"SoundDuration":192913,"Delta":140437867},{"NoteNumber":82,"Velocity":60,"Duration":194949,"SoundDuration":194949,"Delta":140630781},{"NoteNumber":94,"Velocity":70,"Duration":194949,"SoundDuration":194949,"Delta":140630781},{"NoteNumber":80,"Velocity":55,"Duration":197191,"SoundDuration":197191,"Delta":140825730},{"NoteNumber":92,"Velocity":64,"Duration":197191,"SoundDuration":197191,"Delta":140825730},{"NoteNumber":79,"Velocity":51,"Duration":199478,"SoundDuration":199478,"Delta":141022922},{"NoteNumber":91,"Velocity":60,"Duration":199478,"SoundDuration":199478,"Delta":141022922},{"NoteNumber":77,"Velocity":48,"Duration":407779,"SoundDuration":407779,"Delta":141222400},{"NoteNumber":89,"Velocity":56,"Duration":407779,"SoundDuration":407779,"Delta":141222400},{"NoteNumber":67,"Velocity":37,"Duration":419375,"SoundDuration":419375,"Delta":141630180},{"NoteNumber":79,"Velocity":45,"Duration":419375,"SoundDuration":419375,"Delta":141630180},{"NoteNumber":68,"Velocity":37,"Duration":424779,"SoundDuration":424779,"Delta":142049555},{"NoteNumber":80,"Velocity":45,"Duration":424779,"SoundDuration":424779,"Delta":142049555},{"NoteNumber":72,"Velocity":45,"Duration":783033,"SoundDuration":783033,"Delta":142474334},{"NoteNumber":77,"Velocity":45,"Duration":783033,"SoundDuration":783033,"Delta":142474334},{"NoteNumber":80,"Velocity":45,"Duration":783033,"SoundDuration":783033,"Delta":142474334},{"NoteNumber":84,"Velocity":52,"Duration":783033,"SoundDuration":783033,"Delta":142474334},{"NoteNumber":39,"Velocity":33,"Duration":195758,"SoundDuration":195758,"Delta":142474334},{"NoteNumber":49,"Velocity":37,"Duration":195758,"SoundDuration":195758,"Delta":142670093},{"NoteNumber":53,"Velocity":40,"Duration":195758,"SoundDuration":195758,"Delta":142865851},{"NoteNumber":56,"Velocity":45,"Duration":195758,"SoundDuration":195758,"Delta":143061610},{"NoteNumber":82,"Velocity":54,"Duration":424779,"SoundDuration":424779,"Delta":143257368},{"NoteNumber":70,"Velocity":51,"Duration":424779,"SoundDuration":424779,"Delta":143257368},{"NoteNumber":58,"Velocity":48,"Duration":212389,"SoundDuration":212389,"Delta":143257368},{"NoteNumber":61,"Velocity":53,"Duration":212389,"SoundDuration":212389,"Delta":143469758},{"NoteNumber":87,"Velocity":72,"Duration":775443,"SoundDuration":775443,"Delta":143682147},{"NoteNumber":75,"Velocity":60,"Duration":775443,"SoundDuration":775443,"Delta":143682147},{"NoteNumber":80,"Velocity":60,"Duration":775443,"SoundDuration":775443,"Delta":143682147},{"NoteNumber":82,"Velocity":60,"Duration":775443,"SoundDuration":775443,"Delta":143682147},{"NoteNumber":65,"Velocity":57,"Duration":193860,"SoundDuration":193860,"Delta":143682147},{"NoteNumber":61,"Velocity":59,"Duration":193860,"SoundDuration":193860,"Delta":143876008},{"NoteNumber":58,"Velocity":59,"Duration":193860,"SoundDuration":193860,"Delta":144069869},{"NoteNumber":56,"Velocity":59,"Duration":193860,"SoundDuration":193860,"Delta":144263730},{"NoteNumber":85,"Velocity":73,"Duration":443754,"SoundDuration":443754,"Delta":144457591},{"NoteNumber":73,"Velocity":65,"Duration":443754,"SoundDuration":443754,"Delta":144457591},{"NoteNumber":53,"Velocity":58,"Duration":221877,"SoundDuration":221877,"Delta":144457591},{"NoteNumber":49,"Velocity":56,"Duration":221877,"SoundDuration":221877,"Delta":144679468},{"NoteNumber":79,"Velocity":75,"Duration":802675,"SoundDuration":802675,"Delta":144901345},{"NoteNumber":82,"Velocity":75,"Duration":802675,"SoundDuration":802675,"Delta":144901345},{"NoteNumber":85,"Velocity":75,"Duration":802675,"SoundDuration":802675,"Delta":144901345},{"NoteNumber":91,"Velocity":89,"Duration":802675,"SoundDuration":802675,"Delta":144901345},{"NoteNumber":39,"Velocity":59,"Duration":200669,"SoundDuration":200669,"Delta":144901345},{"NoteNumber":49,"Velocity":60,"Duration":200669,"SoundDuration":200669,"Delta":145102014},{"NoteNumber":53,"Velocity":63,"Duration":200668,"SoundDuration":200668,"Delta":145302683},{"NoteNumber":56,"Velocity":66,"Duration":200669,"SoundDuration":200669,"Delta":145503352},{"NoteNumber":89,"Velocity":81,"Duration":458294,"SoundDuration":458294,"Delta":145704021},{"NoteNumber":77,"Velocity":70,"Duration":458294,"SoundDuration":458294,"Delta":145704021},{"NoteNumber":58,"Velocity":69,"Duration":229147,"SoundDuration":229147,"Delta":145704021},{"NoteNumber":61,"Velocity":72,"Duration":229147,"SoundDuration":229147,"Delta":145933169},{"NoteNumber":96,"Velocity":96,"Duration":819111,"SoundDuration":819111,"Delta":146162316},{"NoteNumber":84,"Velocity":84,"Duration":819111,"SoundDuration":819111,"Delta":146162316},{"NoteNumber":89,"Velocity":84,"Duration":819111,"SoundDuration":819111,"Delta":146162316},{"NoteNumber":68,"Velocity":74,"Duration":204778,"SoundDuration":204778,"Delta":146162316},{"NoteNumber":65,"Velocity":72,"Duration":204778,"SoundDuration":204778,"Delta":146367094},{"NoteNumber":61,"Velocity":70,"Duration":204778,"SoundDuration":204778,"Delta":146571872},{"NoteNumber":56,"Velocity":67,"Duration":204777,"SoundDuration":204777,"Delta":146776650},{"NoteNumber":94,"Velocity":89,"Duration":534127,"SoundDuration":534127,"Delta":146981428},{"NoteNumber":82,"Velocity":76,"Duration":534127,"SoundDuration":534127,"Delta":146981428},{"NoteNumber":53,"Velocity":65,"Duration":236892,"SoundDuration":236892,"Delta":146981428},{"NoteNumber":49,"Velocity":63,"Duration":297235,"SoundDuration":297235,"Delta":147218320},{"NoteNumber":91,"Velocity":85,"Duration":2928299,"SoundDuration":2928299,"Delta":147515556},{"NoteNumber":89,"Velocity":85,"Duration":2928299,"SoundDuration":2928299,"Delta":147515556},{"NoteNumber":94,"Velocity":85,"Duration":2928299,"SoundDuration":2928299,"Delta":147515556},{"NoteNumber":97,"Velocity":85,"Duration":2928299,"SoundDuration":2928299,"Delta":147515556},{"NoteNumber":101,"Velocity":99,"Duration":2928299,"SoundDuration":2928299,"Delta":147515556},{"NoteNumber":39,"Velocity":82,"Duration":287081,"SoundDuration":287081,"Delta":147515556},{"NoteNumber":46,"Velocity":64,"Duration":237799,"SoundDuration":237799,"Delta":147802637},{"NoteNumber":49,"Velocity":64,"Duration":227396,"SoundDuration":227396,"Delta":148040437},{"NoteNumber":55,"Velocity":64,"Duration":221891,"SoundDuration":221891,"Delta":148267833},{"NoteNumber":58,"Velocity":64,"Duration":220330,"SoundDuration":220330,"Delta":148489724},{"NoteNumber":61,"Velocity":63,"Duration":219271,"SoundDuration":219271,"Delta":148710055},{"NoteNumber":67,"Velocity":64,"Duration":217945,"SoundDuration":217945,"Delta":148929326},{"NoteNumber":70,"Velocity":66,"Duration":216632,"SoundDuration":216632,"Delta":149147271},{"NoteNumber":73,"Velocity":64,"Duration":215252,"SoundDuration":215252,"Delta":149363904},{"NoteNumber":79,"Velocity":58,"Duration":213965,"SoundDuration":213965,"Delta":149579156},{"NoteNumber":82,"Velocity":49,"Duration":258525,"SoundDuration":258525,"Delta":149793121},{"NoteNumber":85,"Velocity":37,"Duration":392208,"SoundDuration":392208,"Delta":150051647},{"NoteNumber":100,"Velocity":44,"Duration":137880,"SoundDuration":137880,"Delta":150443855},{"NoteNumber":91,"Velocity":35,"Duration":137880,"SoundDuration":137880,"Delta":150443855},{"NoteNumber":96,"Velocity":40,"Duration":137880,"SoundDuration":137880,"Delta":150581735},{"NoteNumber":94,"Velocity":31,"Duration":137880,"SoundDuration":137880,"Delta":150581735},{"NoteNumber":99,"Velocity":44,"Duration":123314,"SoundDuration":123314,"Delta":150719615},{"NoteNumber":90,"Velocity":35,"Duration":123314,"SoundDuration":123314,"Delta":150719615},{"NoteNumber":95,"Velocity":41,"Duration":117759,"SoundDuration":117759,"Delta":150842930},{"NoteNumber":93,"Velocity":31,"Duration":117759,"SoundDuration":117759,"Delta":150842930},{"NoteNumber":98,"Velocity":44,"Duration":110107,"SoundDuration":110107,"Delta":150960690},{"NoteNumber":89,"Velocity":34,"Duration":110107,"SoundDuration":110107,"Delta":150960690},{"NoteNumber":94,"Velocity":40,"Duration":109209,"SoundDuration":109209,"Delta":151070797},{"NoteNumber":92,"Velocity":29,"Duration":109209,"SoundDuration":109209,"Delta":151070797},{"NoteNumber":97,"Velocity":43,"Duration":108325,"SoundDuration":108325,"Delta":151180007},{"NoteNumber":88,"Velocity":33,"Duration":108325,"SoundDuration":108325,"Delta":151180007},{"NoteNumber":93,"Velocity":39,"Duration":107534,"SoundDuration":107534,"Delta":151288332},{"NoteNumber":91,"Velocity":30,"Duration":107534,"SoundDuration":107534,"Delta":151288332},{"NoteNumber":96,"Velocity":42,"Duration":106748,"SoundDuration":106748,"Delta":151395867},{"NoteNumber":87,"Velocity":33,"Duration":106748,"SoundDuration":106748,"Delta":151395867},{"NoteNumber":92,"Velocity":39,"Duration":105762,"SoundDuration":105762,"Delta":151502615},{"NoteNumber":90,"Velocity":29,"Duration":105762,"SoundDuration":105762,"Delta":151502615},{"NoteNumber":95,"Velocity":42,"Duration":105056,"SoundDuration":105056,"Delta":151608378},{"NoteNumber":86,"Velocity":33,"Duration":105056,"SoundDuration":105056,"Delta":151608378},{"NoteNumber":91,"Velocity":39,"Duration":104206,"SoundDuration":104206,"Delta":151713434},{"NoteNumber":89,"Velocity":28,"Duration":104206,"SoundDuration":104206,"Delta":151713434},{"NoteNumber":94,"Velocity":41,"Duration":103453,"SoundDuration":103453,"Delta":151817641},{"NoteNumber":85,"Velocity":33,"Duration":103453,"SoundDuration":103453,"Delta":151817641},{"NoteNumber":90,"Velocity":37,"Duration":102661,"SoundDuration":102661,"Delta":151921094},{"NoteNumber":88,"Velocity":28,"Duration":102661,"SoundDuration":102661,"Delta":151921094},{"NoteNumber":93,"Velocity":41,"Duration":101995,"SoundDuration":101995,"Delta":152023755},{"NoteNumber":84,"Velocity":32,"Duration":101995,"SoundDuration":101995,"Delta":152023755},{"NoteNumber":89,"Velocity":37,"Duration":101065,"SoundDuration":101065,"Delta":152125751},{"NoteNumber":87,"Velocity":28,"Duration":101065,"SoundDuration":101065,"Delta":152125751},{"NoteNumber":92,"Velocity":40,"Duration":100484,"SoundDuration":100484,"Delta":152226816},{"NoteNumber":83,"Velocity":32,"Duration":100484,"SoundDuration":100484,"Delta":152226816},{"NoteNumber":88,"Velocity":36,"Duration":100341,"SoundDuration":100341,"Delta":152327301},{"NoteNumber":86,"Velocity":28,"Duration":100341,"SoundDuration":100341,"Delta":152327301},{"NoteNumber":91,"Velocity":40,"Duration":100164,"SoundDuration":100164,"Delta":152427642},{"NoteNumber":82,"Velocity":31,"Duration":100164,"SoundDuration":100164,"Delta":152427642},{"NoteNumber":88,"Velocity":36,"Duration":99860,"SoundDuration":99860,"Delta":152527807},{"NoteNumber":85,"Velocity":27,"Duration":99860,"SoundDuration":99860,"Delta":152527807},{"NoteNumber":90,"Velocity":39,"Duration":99860,"SoundDuration":99860,"Delta":152627667},{"NoteNumber":81,"Velocity":31,"Duration":99860,"SoundDuration":99860,"Delta":152627667},{"NoteNumber":86,"Velocity":35,"Duration":99531,"SoundDuration":99531,"Delta":152727527},{"NoteNumber":84,"Velocity":27,"Duration":99531,"SoundDuration":99531,"Delta":152727527},{"NoteNumber":89,"Velocity":39,"Duration":99390,"SoundDuration":99390,"Delta":152827059},{"NoteNumber":80,"Velocity":31,"Duration":99390,"SoundDuration":99390,"Delta":152827059},{"NoteNumber":85,"Velocity":35,"Duration":99217,"SoundDuration":99217,"Delta":152926449},{"NoteNumber":83,"Velocity":26,"Duration":99217,"SoundDuration":99217,"Delta":152926449},{"NoteNumber":88,"Velocity":38,"Duration":98918,"SoundDuration":98918,"Delta":153025667},{"NoteNumber":79,"Velocity":30,"Duration":98918,"SoundDuration":98918,"Delta":153025667},{"NoteNumber":84,"Velocity":35,"Duration":98903,"SoundDuration":98903,"Delta":153124585},{"NoteNumber":82,"Velocity":26,"Duration":98903,"SoundDuration":98903,"Delta":153124585},{"NoteNumber":87,"Velocity":38,"Duration":98457,"SoundDuration":98457,"Delta":153223488},{"NoteNumber":78,"Velocity":29,"Duration":98457,"SoundDuration":98457,"Delta":153223488},{"NoteNumber":83,"Velocity":33,"Duration":98457,"SoundDuration":98457,"Delta":153321946},{"NoteNumber":81,"Velocity":26,"Duration":98457,"SoundDuration":98457,"Delta":153321946},{"NoteNumber":86,"Velocity":37,"Duration":98137,"SoundDuration":98137,"Delta":153420403},{"NoteNumber":77,"Velocity":29,"Duration":98137,"SoundDuration":98137,"Delta":153420403},{"NoteNumber":82,"Velocity":33,"Duration":98000,"SoundDuration":98000,"Delta":153518541},{"NoteNumber":80,"Velocity":26,"Duration":98000,"SoundDuration":98000,"Delta":153518541},{"NoteNumber":85,"Velocity":37,"Duration":98320,"SoundDuration":98320,"Delta":153616542},{"NoteNumber":76,"Velocity":29,"Duration":98320,"SoundDuration":98320,"Delta":153616542},{"NoteNumber":81,"Velocity":33,"Duration":98472,"SoundDuration":98472,"Delta":153714862},{"NoteNumber":79,"Velocity":26,"Duration":98472,"SoundDuration":98472,"Delta":153714862},{"NoteNumber":84,"Velocity":36,"Duration":98918,"SoundDuration":98918,"Delta":153813335},{"NoteNumber":75,"Velocity":28,"Duration":98918,"SoundDuration":98918,"Delta":153813335},{"NoteNumber":80,"Velocity":33,"Duration":99091,"SoundDuration":99091,"Delta":153912254},{"NoteNumber":78,"Velocity":25,"Duration":99091,"SoundDuration":99091,"Delta":153912254},{"NoteNumber":83,"Velocity":35,"Duration":99390,"SoundDuration":99390,"Delta":154011345},{"NoteNumber":74,"Velocity":28,"Duration":99390,"SoundDuration":99390,"Delta":154011345},{"NoteNumber":79,"Velocity":31,"Duration":99719,"SoundDuration":99719,"Delta":154110736},{"NoteNumber":77,"Velocity":24,"Duration":99719,"SoundDuration":99719,"Delta":154110736},{"NoteNumber":82,"Velocity":35,"Duration":99876,"SoundDuration":99876,"Delta":154210455},{"NoteNumber":73,"Velocity":27,"Duration":99876,"SoundDuration":99876,"Delta":154210455},{"NoteNumber":78,"Velocity":31,"Duration":100341,"SoundDuration":100341,"Delta":154310331},{"NoteNumber":76,"Velocity":24,"Duration":100341,"SoundDuration":100341,"Delta":154310331},{"NoteNumber":81,"Velocity":35,"Duration":100676,"SoundDuration":100676,"Delta":154410673},{"NoteNumber":72,"Velocity":27,"Duration":100676,"SoundDuration":100676,"Delta":154410673},{"NoteNumber":77,"Velocity":31,"Duration":100836,"SoundDuration":100836,"Delta":154511349},{"NoteNumber":75,"Velocity":24,"Duration":100836,"SoundDuration":100836,"Delta":154511349},{"NoteNumber":80,"Velocity":34,"Duration":101310,"SoundDuration":101310,"Delta":154612185},{"NoteNumber":71,"Velocity":27,"Duration":101310,"SoundDuration":101310,"Delta":154612185},{"NoteNumber":76,"Velocity":30,"Duration":101489,"SoundDuration":101489,"Delta":154713496},{"NoteNumber":74,"Velocity":24,"Duration":101489,"SoundDuration":101489,"Delta":154713496},{"NoteNumber":79,"Velocity":33,"Duration":101798,"SoundDuration":101798,"Delta":154814985},{"NoteNumber":70,"Velocity":26,"Duration":101798,"SoundDuration":101798,"Delta":154814985},{"NoteNumber":76,"Velocity":29,"Duration":102143,"SoundDuration":102143,"Delta":154916783},{"NoteNumber":73,"Velocity":24,"Duration":102143,"SoundDuration":102143,"Delta":154916783},{"NoteNumber":78,"Velocity":33,"Duration":102308,"SoundDuration":102308,"Delta":155018927},{"NoteNumber":69,"Velocity":26,"Duration":102308,"SoundDuration":102308,"Delta":155018927},{"NoteNumber":74,"Velocity":29,"Duration":102795,"SoundDuration":102795,"Delta":155121235},{"NoteNumber":72,"Velocity":24,"Duration":102795,"SoundDuration":102795,"Delta":155121235},{"NoteNumber":77,"Velocity":32,"Duration":137880,"SoundDuration":137880,"Delta":155224031},{"NoteNumber":68,"Velocity":26,"Duration":137880,"SoundDuration":137880,"Delta":155224031},{"NoteNumber":73,"Velocity":28,"Duration":85851,"SoundDuration":85851,"Delta":155361911},{"NoteNumber":71,"Velocity":22,"Duration":85851,"SoundDuration":85851,"Delta":155361911},{"NoteNumber":67,"Velocity":32,"Duration":208450,"SoundDuration":208450,"Delta":155447763},{"NoteNumber":70,"Velocity":32,"Duration":179833,"SoundDuration":179833,"Delta":155476380},{"NoteNumber":73,"Velocity":32,"Duration":151216,"SoundDuration":151216,"Delta":155504997},{"NoteNumber":77,"Velocity":32,"Duration":122599,"SoundDuration":122599,"Delta":155533614},{"NoteNumber":75,"Velocity":32,"Duration":122598,"SoundDuration":122598,"Delta":155656213},{"NoteNumber":73,"Velocity":32,"Duration":104989,"SoundDuration":104989,"Delta":155778812},{"NoteNumber":70,"Velocity":31,"Duration":104326,"SoundDuration":104326,"Delta":155883802},{"NoteNumber":67,"Velocity":32,"Duration":104325,"SoundDuration":104325,"Delta":155988128},{"NoteNumber":62,"Velocity":33,"Duration":103967,"SoundDuration":103967,"Delta":156092454},{"NoteNumber":63,"Velocity":33,"Duration":103813,"SoundDuration":103813,"Delta":156196421},{"NoteNumber":67,"Velocity":34,"Duration":103796,"SoundDuration":103796,"Delta":156300235},{"NoteNumber":70,"Velocity":35,"Duration":103298,"SoundDuration":103298,"Delta":156404031},{"NoteNumber":73,"Velocity":35,"Duration":103298,"SoundDuration":103298,"Delta":156507330},{"NoteNumber":74,"Velocity":36,"Duration":102946,"SoundDuration":102946,"Delta":156610629},{"NoteNumber":77,"Velocity":37,"Duration":102795,"SoundDuration":102795,"Delta":156713576},{"NoteNumber":75,"Velocity":37,"Duration":102779,"SoundDuration":102779,"Delta":156816372},{"NoteNumber":79,"Velocity":38,"Duration":102291,"SoundDuration":102291,"Delta":156919151},{"NoteNumber":82,"Velocity":39,"Duration":102291,"SoundDuration":102291,"Delta":157021442},{"NoteNumber":85,"Velocity":39,"Duration":101996,"SoundDuration":101996,"Delta":157123733},{"NoteNumber":86,"Velocity":40,"Duration":102515,"SoundDuration":102515,"Delta":157225730},{"NoteNumber":89,"Velocity":40,"Duration":104904,"SoundDuration":104904,"Delta":157328245},{"NoteNumber":87,"Velocity":41,"Duration":107408,"SoundDuration":107408,"Delta":157433149},{"NoteNumber":91,"Velocity":42,"Duration":110071,"SoundDuration":110071,"Delta":157540557},{"NoteNumber":94,"Velocity":44,"Duration":112975,"SoundDuration":112975,"Delta":157650628},{"NoteNumber":97,"Velocity":44,"Duration":137880,"SoundDuration":137880,"Delta":157763604},{"NoteNumber":100,"Velocity":48,"Duration":155996,"SoundDuration":155996,"Delta":157901484},{"NoteNumber":101,"Velocity":44,"Duration":110517,"SoundDuration":110517,"Delta":158057481},{"NoteNumber":96,"Velocity":48,"Duration":107702,"SoundDuration":107702,"Delta":158167998},{"NoteNumber":97,"Velocity":45,"Duration":105044,"SoundDuration":105044,"Delta":158275701},{"NoteNumber":93,"Velocity":46,"Duration":102499,"SoundDuration":102499,"Delta":158380746},{"NoteNumber":94,"Velocity":40,"Duration":100278,"SoundDuration":100278,"Delta":158483245},{"NoteNumber":90,"Velocity":44,"Duration":100341,"SoundDuration":100341,"Delta":158583524},{"NoteNumber":91,"Velocity":40,"Duration":100341,"SoundDuration":100341,"Delta":158683865},{"NoteNumber":88,"Velocity":43,"Duration":100341,"SoundDuration":100341,"Delta":158784206},{"NoteNumber":89,"Velocity":39,"Duration":100341,"SoundDuration":100341,"Delta":158884548},{"NoteNumber":84,"Velocity":42,"Duration":100341,"SoundDuration":100341,"Delta":158984889},{"NoteNumber":85,"Velocity":38,"Duration":100341,"SoundDuration":100341,"Delta":159085230},{"NoteNumber":81,"Velocity":40,"Duration":100676,"SoundDuration":100676,"Delta":159185571},{"NoteNumber":82,"Velocity":37,"Duration":100819,"SoundDuration":100819,"Delta":159286248},{"NoteNumber":78,"Velocity":40,"Duration":100819,"SoundDuration":100819,"Delta":159387068},{"NoteNumber":79,"Velocity":36,"Duration":100999,"SoundDuration":100999,"Delta":159487888},{"NoteNumber":76,"Velocity":39,"Duration":101310,"SoundDuration":101310,"Delta":159588887},{"NoteNumber":77,"Velocity":35,"Duration":101310,"SoundDuration":101310,"Delta":159690198},{"NoteNumber":72,"Velocity":38,"Duration":101635,"SoundDuration":101635,"Delta":159791508},{"NoteNumber":73,"Velocity":33,"Duration":102459,"SoundDuration":102459,"Delta":159893144},{"NoteNumber":69,"Velocity":37,"Duration":103131,"SoundDuration":103131,"Delta":159995603},{"NoteNumber":70,"Velocity":33,"Duration":103984,"SoundDuration":103984,"Delta":160098734},{"NoteNumber":66,"Velocity":36,"Duration":104671,"SoundDuration":104671,"Delta":160202719},{"NoteNumber":67,"Velocity":33,"Duration":105550,"SoundDuration":105550,"Delta":160307390},{"NoteNumber":64,"Velocity":35,"Duration":106262,"SoundDuration":106262,"Delta":160412940},{"NoteNumber":65,"Velocity":31,"Duration":107166,"SoundDuration":107166,"Delta":160519203},{"NoteNumber":62,"Velocity":33,"Duration":112722,"SoundDuration":112722,"Delta":160626369},{"NoteNumber":63,"Velocity":27,"Duration":113131,"SoundDuration":113131,"Delta":160739092},{"NoteNumber":64,"Velocity":32,"Duration":113743,"SoundDuration":113743,"Delta":160852224},{"NoteNumber":63,"Velocity":27,"Duration":114364,"SoundDuration":114364,"Delta":160965967},{"NoteNumber":65,"Velocity":32,"Duration":114990,"SoundDuration":114990,"Delta":161080332},{"NoteNumber":63,"Velocity":28,"Duration":115409,"SoundDuration":115409,"Delta":161195322},{"NoteNumber":66,"Velocity":32,"Duration":116045,"SoundDuration":116045,"Delta":161310731},{"NoteNumber":63,"Velocity":28,"Duration":116692,"SoundDuration":116692,"Delta":161426777},{"NoteNumber":67,"Velocity":32,"Duration":117344,"SoundDuration":117344,"Delta":161543470},{"NoteNumber":63,"Velocity":29,"Duration":117785,"SoundDuration":117785,"Delta":161660814},{"NoteNumber":68,"Velocity":32,"Duration":118446,"SoundDuration":118446,"Delta":161778600},{"NoteNumber":63,"Velocity":29,"Duration":119113,"SoundDuration":119113,"Delta":161897046},{"NoteNumber":69,"Velocity":32,"Duration":119798,"SoundDuration":119798,"Delta":162016160},{"NoteNumber":63,"Velocity":29,"Duration":123326,"SoundDuration":123326,"Delta":162135958},{"NoteNumber":70,"Velocity":32,"Duration":156363,"SoundDuration":156363,"Delta":162259284},{"NoteNumber":63,"Velocity":29,"Duration":156363,"SoundDuration":156363,"Delta":162415648},{"NoteNumber":71,"Velocity":32,"Duration":261460,"SoundDuration":261460,"Delta":162572012},{"NoteNumber":63,"Velocity":36,"Duration":566412,"SoundDuration":566412,"Delta":163617855},{"NoteNumber":72,"Velocity":45,"Duration":1412542,"SoundDuration":1412542,"Delta":164184267},{"NoteNumber":44,"Velocity":30,"Duration":501676,"SoundDuration":501676,"Delta":164184267},{"NoteNumber":60,"Velocity":21,"Duration":232955,"SoundDuration":232955,"Delta":164452988},{"NoteNumber":63,"Velocity":27,"Duration":218420,"SoundDuration":218420,"Delta":164685944},{"NoteNumber":68,"Velocity":20,"Duration":218420,"SoundDuration":218420,"Delta":164904364},{"NoteNumber":63,"Velocity":20,"Duration":231660,"SoundDuration":231660,"Delta":165122784},{"NoteNumber":84,"Velocity":23,"Duration":425552,"SoundDuration":425552,"Delta":165122784},{"NoteNumber":80,"Velocity":23,"Duration":425552,"SoundDuration":425552,"Delta":165122784},{"NoteNumber":75,"Velocity":18,"Duration":425552,"SoundDuration":425552,"Delta":165122784},{"NoteNumber":60,"Velocity":20,"Duration":242365,"SoundDuration":242365,"Delta":165354444},{"NoteNumber":72,"Velocity":28,"Duration":1418914,"SoundDuration":1418914,"Delta":165596809},{"NoteNumber":75,"Velocity":20,"Duration":468180,"SoundDuration":468180,"Delta":165596809},{"NoteNumber":80,"Velocity":21,"Duration":468180,"SoundDuration":468180,"Delta":165596809},{"NoteNumber":84,"Velocity":24,"Duration":468180,"SoundDuration":468180,"Delta":165596809},{"NoteNumber":60,"Velocity":20,"Duration":238227,"SoundDuration":238227,"Delta":165874407},{"NoteNumber":63,"Velocity":25,"Duration":232955,"SoundDuration":232955,"Delta":166112635},{"NoteNumber":68,"Velocity":21,"Duration":217281,"SoundDuration":217281,"Delta":166345590},{"NoteNumber":63,"Velocity":21,"Duration":217281,"SoundDuration":217281,"Delta":166562871},{"NoteNumber":60,"Velocity":21,"Duration":235571,"SoundDuration":235571,"Delta":166780152},{"NoteNumber":72,"Velocity":45,"Duration":1924675,"SoundDuration":1924675,"Delta":167015724},{"NoteNumber":43,"Velocity":31,"Duration":514291,"SoundDuration":514291,"Delta":167015724},{"NoteNumber":60,"Velocity":23,"Duration":229147,"SoundDuration":229147,"Delta":167300868},{"NoteNumber":64,"Velocity":28,"Duration":215068,"SoundDuration":215068,"Delta":167530015},{"NoteNumber":70,"Velocity":23,"Duration":215068,"SoundDuration":215068,"Delta":167745084},{"NoteNumber":64,"Velocity":24,"Duration":217281,"SoundDuration":217281,"Delta":167960153},{"NoteNumber":76,"Velocity":17,"Duration":410052,"SoundDuration":410052,"Delta":167960153},{"NoteNumber":82,"Velocity":21,"Duration":410052,"SoundDuration":410052,"Delta":167960153},{"NoteNumber":84,"Velocity":21,"Duration":410052,"SoundDuration":410052,"Delta":167960153},{"NoteNumber":60,"Velocity":24,"Duration":240963,"SoundDuration":240963,"Delta":168177434},{"NoteNumber":76,"Velocity":20,"Duration":475409,"SoundDuration":475409,"Delta":168418398},{"NoteNumber":82,"Velocity":24,"Duration":475409,"SoundDuration":475409,"Delta":168418398},{"NoteNumber":84,"Velocity":24,"Duration":475409,"SoundDuration":475409,"Delta":168418398},{"NoteNumber":60,"Velocity":20,"Duration":232955,"SoundDuration":232955,"Delta":168707443},{"NoteNumber":64,"Velocity":26,"Duration":219555,"SoundDuration":219555,"Delta":168940399},{"NoteNumber":70,"Velocity":21,"Duration":219554,"SoundDuration":219554,"Delta":169159954},{"NoteNumber":72,"Velocity":40,"Duration":515432,"SoundDuration":515432,"Delta":169379509},{"NoteNumber":64,"Velocity":36,"Duration":230397,"SoundDuration":230397,"Delta":169379509},{"NoteNumber":60,"Velocity":24,"Duration":285035,"SoundDuration":285035,"Delta":169609906},{"NoteNumber":72,"Velocity":48,"Duration":939842,"SoundDuration":939842,"Delta":169894941},{"NoteNumber":41,"Velocity":36,"Duration":499569,"SoundDuration":499569,"Delta":169894941},{"NoteNumber":63,"Velocity":20,"Duration":234247,"SoundDuration":234247,"Delta":170160264},{"NoteNumber":65,"Velocity":26,"Duration":219555,"SoundDuration":219555,"Delta":170394511},{"NoteNumber":69,"Velocity":24,"Duration":220718,"SoundDuration":220718,"Delta":170614066},{"NoteNumber":65,"Velocity":34,"Duration":220718,"SoundDuration":220718,"Delta":170834784},{"NoteNumber":72,"Velocity":40,"Duration":456289,"SoundDuration":456289,"Delta":170834784},{"NoteNumber":84,"Velocity":25,"Duration":409175,"SoundDuration":409175,"Delta":170834784},{"NoteNumber":81,"Velocity":25,"Duration":409175,"SoundDuration":409175,"Delta":170834784},{"NoteNumber":75,"Velocity":21,"Duration":409175,"SoundDuration":409175,"Delta":170834784},{"NoteNumber":63,"Velocity":24,"Duration":235571,"SoundDuration":235571,"Delta":171055502},{"NoteNumber":73,"Velocity":47,"Duration":934491,"SoundDuration":934491,"Delta":171291073},{"NoteNumber":75,"Velocity":21,"Duration":440450,"SoundDuration":440450,"Delta":171291073},{"NoteNumber":81,"Velocity":27,"Duration":440450,"SoundDuration":440450,"Delta":171291073},{"NoteNumber":85,"Velocity":27,"Duration":440450,"SoundDuration":440450,"Delta":171291073},{"NoteNumber":63,"Velocity":28,"Duration":232955,"SoundDuration":232955,"Delta":171545160},{"NoteNumber":65,"Velocity":36,"Duration":227894,"SoundDuration":227894,"Delta":171778115},{"NoteNumber":69,"Velocity":28,"Duration":219555,"SoundDuration":219555,"Delta":172006010},{"NoteNumber":72,"Velocity":41,"Duration":472904,"SoundDuration":472904,"Delta":172225565},{"NoteNumber":65,"Velocity":36,"Duration":217281,"SoundDuration":217281,"Delta":172225565},{"NoteNumber":63,"Velocity":26,"Duration":255623,"SoundDuration":255623,"Delta":172442846},{"NoteNumber":72,"Velocity":49,"Duration":1445805,"SoundDuration":1445805,"Delta":172698469},{"NoteNumber":34,"Velocity":34,"Duration":527956,"SoundDuration":527956,"Delta":172698469},{"NoteNumber":46,"Velocity":34,"Duration":527956,"SoundDuration":527956,"Delta":172698469},{"NoteNumber":56,"Velocity":30,"Duration":236892,"SoundDuration":236892,"Delta":172989534},{"NoteNumber":62,"Velocity":36,"Duration":221877,"SoundDuration":221877,"Delta":173226426},{"NoteNumber":65,"Velocity":29,"Duration":221877,"SoundDuration":221877,"Delta":173448303},{"NoteNumber":62,"Velocity":29,"Duration":223048,"SoundDuration":223048,"Delta":173670180},{"NoteNumber":84,"Velocity":24,"Duration":423885,"SoundDuration":423885,"Delta":173670180},{"NoteNumber":77,"Velocity":24,"Duration":423885,"SoundDuration":423885,"Delta":173670180},{"NoteNumber":74,"Velocity":19,"Duration":423885,"SoundDuration":423885,"Delta":173670180},{"NoteNumber":56,"Velocity":29,"Duration":251046,"SoundDuration":251046,"Delta":173893228},{"NoteNumber":65,"Velocity":37,"Duration":524743,"SoundDuration":524743,"Delta":174144274},{"NoteNumber":74,"Velocity":23,"Duration":478410,"SoundDuration":478410,"Delta":174144274},{"NoteNumber":77,"Velocity":28,"Duration":478410,"SoundDuration":478410,"Delta":174144274},{"NoteNumber":56,"Velocity":23,"Duration":231660,"SoundDuration":231660,"Delta":174437357},{"NoteNumber":58,"Velocity":28,"Duration":217281,"SoundDuration":217281,"Delta":174669017},{"NoteNumber":62,"Velocity":22,"Duration":206597,"SoundDuration":206597,"Delta":174886298},{"NoteNumber":58,"Velocity":28,"Duration":235571,"SoundDuration":235571,"Delta":175092896},{"NoteNumber":65,"Velocity":32,"Duration":522652,"SoundDuration":522652,"Delta":175092896},{"NoteNumber":56,"Velocity":22,"Duration":287081,"SoundDuration":287081,"Delta":175328467},{"NoteNumber":65,"Velocity":37,"Duration":440312,"SoundDuration":440312,"Delta":175615549},{"NoteNumber":39,"Velocity":33,"Duration":440312,"SoundDuration":440312,"Delta":175615549},{"NoteNumber":51,"Velocity":33,"Duration":440312,"SoundDuration":440312,"Delta":175615549},{"NoteNumber":58,"Velocity":21,"Duration":208652,"SoundDuration":208652,"Delta":175847209},{"NoteNumber":67,"Velocity":38,"Duration":432339,"SoundDuration":432339,"Delta":176055861},{"NoteNumber":61,"Velocity":32,"Duration":216169,"SoundDuration":216169,"Delta":176055861},{"NoteNumber":63,"Velocity":26,"Duration":216169,"SoundDuration":216169,"Delta":176272030},{"NoteNumber":68,"Velocity":39,"Duration":508219,"SoundDuration":508219,"Delta":176488200},{"NoteNumber":61,"Velocity":34,"Duration":273972,"SoundDuration":273972,"Delta":176488200},{"NoteNumber":80,"Velocity":24,"Duration":420376,"SoundDuration":420376,"Delta":176488200},{"NoteNumber":73,"Velocity":24,"Duration":420376,"SoundDuration":420376,"Delta":176488200},{"NoteNumber":70,"Velocity":24,"Duration":420376,"SoundDuration":420376,"Delta":176488200},{"NoteNumber":58,"Velocity":28,"Duration":234247,"SoundDuration":234247,"Delta":176762172},{"NoteNumber":73,"Velocity":26,"Duration":536659,"SoundDuration":536659,"Delta":176908576},{"NoteNumber":75,"Velocity":27,"Duration":507378,"SoundDuration":507378,"Delta":176937857},{"NoteNumber":79,"Velocity":27,"Duration":478097,"SoundDuration":478097,"Delta":176967138},{"NoteNumber":72,"Velocity":42,"Duration":887927,"SoundDuration":887927,"Delta":176996419},{"NoteNumber":84,"Velocity":28,"Duration":887927,"SoundDuration":887927,"Delta":176996419},{"NoteNumber":61,"Velocity":26,"Duration":218420,"SoundDuration":218420,"Delta":177226816},{"NoteNumber":63,"Velocity":26,"Duration":219555,"SoundDuration":219555,"Delta":177445236},{"NoteNumber":67,"Velocity":26,"Duration":219554,"SoundDuration":219554,"Delta":177664791},{"NoteNumber":70,"Velocity":40,"Duration":493258,"SoundDuration":493258,"Delta":177884346},{"NoteNumber":63,"Velocity":36,"Duration":246629,"SoundDuration":246629,"Delta":177884346},{"NoteNumber":82,"Velocity":25,"Duration":493258,"SoundDuration":493258,"Delta":177884346},{"NoteNumber":61,"Velocity":25,"Duration":246629,"SoundDuration":246629,"Delta":178130976},{"NoteNumber":68,"Velocity":45,"Duration":927275,"SoundDuration":927275,"Delta":178377605},{"NoteNumber":32,"Velocity":28,"Duration":485839,"SoundDuration":485839,"Delta":178377605},{"NoteNumber":44,"Velocity":28,"Duration":485839,"SoundDuration":485839,"Delta":178377605},{"NoteNumber":60,"Velocity":21,"Duration":225445,"SoundDuration":225445,"Delta":178637999},{"NoteNumber":63,"Velocity":33,"Duration":220718,"SoundDuration":220718,"Delta":178863445},{"NoteNumber":65,"Velocity":24,"Duration":220718,"SoundDuration":220718,"Delta":179084163},{"NoteNumber":63,"Velocity":24,"Duration":227894,"SoundDuration":227894,"Delta":179304881},{"NoteNumber":80,"Velocity":23,"Duration":420665,"SoundDuration":420665,"Delta":179304881},{"NoteNumber":72,"Velocity":23,"Duration":420665,"SoundDuration":420665,"Delta":179304881},{"NoteNumber":75,"Velocity":23,"Duration":420665,"SoundDuration":420665,"Delta":179304881},{"NoteNumber":60,"Velocity":24,"Duration":240963,"SoundDuration":240963,"Delta":179532775},{"NoteNumber":56,"Velocity":28,"Duration":245197,"SoundDuration":245197,"Delta":179773739},{"NoteNumber":72,"Velocity":25,"Duration":441356,"SoundDuration":441356,"Delta":179773739},{"NoteNumber":75,"Velocity":25,"Duration":441356,"SoundDuration":441356,"Delta":179773739},{"NoteNumber":80,"Velocity":25,"Duration":441356,"SoundDuration":441356,"Delta":179773739},{"NoteNumber":60,"Velocity":27,"Duration":245198,"SoundDuration":245198,"Delta":180018937},{"NoteNumber":63,"Velocity":32,"Duration":242365,"SoundDuration":242365,"Delta":180264135},{"NoteNumber":65,"Velocity":36,"Duration":242365,"SoundDuration":242365,"Delta":180506501},{"NoteNumber":63,"Velocity":39,"Duration":496451,"SoundDuration":496451,"Delta":180748866},{"NoteNumber":68,"Velocity":36,"Duration":254086,"SoundDuration":254086,"Delta":180991232},{"NoteNumber":44,"Velocity":35,"Duration":565198,"SoundDuration":565198,"Delta":181181796},{"NoteNumber":51,"Velocity":36,"Duration":533437,"SoundDuration":533437,"Delta":181213557},{"NoteNumber":72,"Velocity":45,"Duration":1412542,"SoundDuration":1412542,"Delta":181245318},{"NoteNumber":60,"Velocity":39,"Duration":501676,"SoundDuration":501676,"Delta":181245318},{"NoteNumber":62,"Velocity":31,"Duration":232955,"SoundDuration":232955,"Delta":181514039},{"NoteNumber":63,"Velocity":36,"Duration":218420,"SoundDuration":218420,"Delta":181746995},{"NoteNumber":68,"Velocity":28,"Duration":218420,"SoundDuration":218420,"Delta":181965415},{"NoteNumber":63,"Velocity":28,"Duration":231660,"SoundDuration":231660,"Delta":182183835},{"NoteNumber":84,"Velocity":21,"Duration":425552,"SoundDuration":425552,"Delta":182183835},{"NoteNumber":80,"Velocity":21,"Duration":425552,"SoundDuration":425552,"Delta":182183835},{"NoteNumber":75,"Velocity":17,"Duration":425552,"SoundDuration":425552,"Delta":182183835},{"NoteNumber":60,"Velocity":25,"Duration":242365,"SoundDuration":242365,"Delta":182415495},{"NoteNumber":72,"Velocity":33,"Duration":1407174,"SoundDuration":1407174,"Delta":182657860},{"NoteNumber":84,"Velocity":26,"Duration":457581,"SoundDuration":457581,"Delta":182657860},{"NoteNumber":80,"Velocity":26,"Duration":457581,"SoundDuration":457581,"Delta":182657860},{"NoteNumber":75,"Velocity":22,"Duration":457581,"SoundDuration":457581,"Delta":182657860},{"NoteNumber":60,"Velocity":20,"Duration":238227,"SoundDuration":238227,"Delta":182924859},{"NoteNumber":63,"Velocity":28,"Duration":232955,"SoundDuration":232955,"Delta":183163087},{"NoteNumber":68,"Velocity":26,"Duration":210747,"SoundDuration":210747,"Delta":183396042},{"NoteNumber":63,"Velocity":27,"Duration":217281,"SoundDuration":217281,"Delta":183606790},{"NoteNumber":60,"Velocity":31,"Duration":240963,"SoundDuration":240963,"Delta":183824071},{"NoteNumber":72,"Velocity":44,"Duration":1897638,"SoundDuration":1897638,"Delta":184065035},{"NoteNumber":43,"Velocity":32,"Duration":514291,"SoundDuration":514291,"Delta":184065035},{"NoteNumber":52,"Velocity":32,"Duration":514291,"SoundDuration":514291,"Delta":184065035},{"NoteNumber":58,"Velocity":32,"Duration":514291,"SoundDuration":514291,"Delta":184065035},{"NoteNumber":60,"Velocity":23,"Duration":229147,"SoundDuration":229147,"Delta":184350179},{"NoteNumber":64,"Velocity":33,"Duration":215068,"SoundDuration":215068,"Delta":184579327},{"NoteNumber":70,"Velocity":25,"Duration":215068,"SoundDuration":215068,"Delta":184794396},{"NoteNumber":64,"Velocity":25,"Duration":217281,"SoundDuration":217281,"Delta":185009465},{"NoteNumber":84,"Velocity":23,"Duration":410052,"SoundDuration":410052,"Delta":185009465},{"NoteNumber":82,"Velocity":23,"Duration":410052,"SoundDuration":410052,"Delta":185009465},{"NoteNumber":76,"Velocity":19,"Duration":410052,"SoundDuration":410052,"Delta":185009465},{"NoteNumber":60,"Velocity":25,"Duration":240963,"SoundDuration":240963,"Delta":185226746},{"NoteNumber":84,"Velocity":30,"Duration":448372,"SoundDuration":448372,"Delta":185467710},{"NoteNumber":82,"Velocity":30,"Duration":448372,"SoundDuration":448372,"Delta":185467710},{"NoteNumber":76,"Velocity":28,"Duration":448372,"SoundDuration":448372,"Delta":185467710},{"NoteNumber":60,"Velocity":22,"Duration":232955,"SoundDuration":232955,"Delta":185729718},{"NoteNumber":64,"Velocity":29,"Duration":219555,"SoundDuration":219555,"Delta":185962674},{"NoteNumber":70,"Velocity":25,"Duration":219554,"SoundDuration":219554,"Delta":186182229},{"NoteNumber":64,"Velocity":32,"Duration":230397,"SoundDuration":230397,"Delta":186401784},{"NoteNumber":72,"Velocity":38,"Duration":471361,"SoundDuration":471361,"Delta":186401784},{"NoteNumber":60,"Velocity":26,"Duration":240963,"SoundDuration":240963,"Delta":186632181},{"NoteNumber":72,"Velocity":44,"Duration":965584,"SoundDuration":965584,"Delta":186873145},{"NoteNumber":41,"Velocity":32,"Duration":1421874,"SoundDuration":1421874,"Delta":186873145},{"NoteNumber":57,"Velocity":32,"Duration":1421874,"SoundDuration":1421874,"Delta":186873145},{"NoteNumber":60,"Velocity":28,"Duration":234247,"SoundDuration":234247,"Delta":187164209},{"NoteNumber":65,"Velocity":32,"Duration":219555,"SoundDuration":219555,"Delta":187398456},{"NoteNumber":69,"Velocity":27,"Duration":220718,"SoundDuration":220718,"Delta":187618011},{"NoteNumber":65,"Velocity":36,"Duration":220718,"SoundDuration":220718,"Delta":187838729},{"NoteNumber":72,"Velocity":40,"Duration":456289,"SoundDuration":456289,"Delta":187838729},{"NoteNumber":60,"Velocity":30,"Duration":235571,"SoundDuration":235571,"Delta":188059447},{"NoteNumber":73,"Velocity":52,"Duration":947474,"SoundDuration":947474,"Delta":188295019},{"NoteNumber":39,"Velocity":28,"Duration":1487301,"SoundDuration":1487301,"Delta":188295019},{"NoteNumber":54,"Velocity":28,"Duration":1487301,"SoundDuration":1487301,"Delta":188295019},{"NoteNumber":60,"Velocity":40,"Duration":232955,"SoundDuration":232955,"Delta":188557027},{"NoteNumber":66,"Velocity":48,"Duration":232955,"SoundDuration":232955,"Delta":188789983},{"NoteNumber":69,"Velocity":43,"Duration":219555,"SoundDuration":219555,"Delta":189022938},{"NoteNumber":72,"Velocity":50,"Duration":539827,"SoundDuration":539827,"Delta":189242493},{"NoteNumber":66,"Velocity":42,"Duration":217281,"SoundDuration":217281,"Delta":189242493},{"NoteNumber":60,"Velocity":47,"Duration":322545,"SoundDuration":322545,"Delta":189459774},{"NoteNumber":77,"Velocity":61,"Duration":2935412,"SoundDuration":2935412,"Delta":189782320},{"NoteNumber":38,"Velocity":45,"Duration":527956,"SoundDuration":527956,"Delta":189782320},{"NoteNumber":53,"Velocity":45,"Duration":527956,"SoundDuration":527956,"Delta":189782320},{"NoteNumber":65,"Velocity":32,"Duration":236892,"SoundDuration":236892,"Delta":190073385},{"NoteNumber":68,"Velocity":41,"Duration":221877,"SoundDuration":221877,"Delta":190310277},{"NoteNumber":72,"Velocity":29,"Duration":221877,"SoundDuration":221877,"Delta":190532154},{"NoteNumber":68,"Velocity":37,"Duration":239597,"SoundDuration":239597,"Delta":190754031},{"NoteNumber":89,"Velocity":31,"Duration":440434,"SoundDuration":440434,"Delta":190754031},{"NoteNumber":84,"Velocity":31,"Duration":440434,"SoundDuration":440434,"Delta":190754031},{"NoteNumber":80,"Velocity":25,"Duration":440434,"SoundDuration":440434,"Delta":190754031},{"NoteNumber":65,"Velocity":30,"Duration":251046,"SoundDuration":251046,"Delta":190993628},{"NoteNumber":83,"Velocity":32,"Duration":478410,"SoundDuration":478410,"Delta":191244674},{"NoteNumber":80,"Velocity":28,"Duration":478410,"SoundDuration":478410,"Delta":191244674},{"NoteNumber":89,"Velocity":32,"Duration":478410,"SoundDuration":478410,"Delta":191244674},{"NoteNumber":65,"Velocity":23,"Duration":231660,"SoundDuration":231660,"Delta":191537757},{"NoteNumber":68,"Velocity":31,"Duration":217281,"SoundDuration":217281,"Delta":191769417},{"NoteNumber":71,"Velocity":27,"Duration":217280,"SoundDuration":217280,"Delta":191986698},{"NoteNumber":68,"Velocity":26,"Duration":226671,"SoundDuration":226671,"Delta":192203979},{"NoteNumber":65,"Velocity":25,"Duration":287081,"SoundDuration":287081,"Delta":192430651},{"NoteNumber":37,"Velocity":26,"Duration":528045,"SoundDuration":528045,"Delta":192717732},{"NoteNumber":52,"Velocity":30,"Duration":528045,"SoundDuration":528045,"Delta":192717732},{"NoteNumber":58,"Velocity":21,"Duration":240963,"SoundDuration":240963,"Delta":193004814},{"NoteNumber":64,"Velocity":27,"Duration":223048,"SoundDuration":223048,"Delta":193245778},{"NoteNumber":68,"Velocity":20,"Duration":217281,"SoundDuration":217281,"Delta":193468826},{"NoteNumber":64,"Velocity":20,"Duration":217281,"SoundDuration":217281,"Delta":193686107},{"NoteNumber":82,"Velocity":24,"Duration":416931,"SoundDuration":416931,"Delta":193686107},{"NoteNumber":80,"Velocity":24,"Duration":416931,"SoundDuration":416931,"Delta":193686107},{"NoteNumber":76,"Velocity":20,"Duration":416931,"SoundDuration":416931,"Delta":193686107},{"NoteNumber":58,"Velocity":20,"Duration":249563,"SoundDuration":249563,"Delta":193903388},{"NoteNumber":70,"Velocity":32,"Duration":1460035,"SoundDuration":1460035,"Delta":194152952},{"NoteNumber":76,"Velocity":22,"Duration":489051,"SoundDuration":489051,"Delta":194152952},{"NoteNumber":79,"Velocity":27,"Duration":489051,"SoundDuration":489051,"Delta":194152952},{"NoteNumber":82,"Velocity":27,"Duration":489051,"SoundDuration":489051,"Delta":194152952},{"NoteNumber":58,"Velocity":20,"Duration":242365,"SoundDuration":242365,"Delta":194448111},{"NoteNumber":64,"Velocity":25,"Duration":225445,"SoundDuration":225445,"Delta":194690477},{"NoteNumber":67,"Velocity":21,"Duration":209687,"SoundDuration":209687,"Delta":194915922},{"NoteNumber":64,"Velocity":21,"Duration":221877,"SoundDuration":221877,"Delta":195125610},{"NoteNumber":58,"Velocity":21,"Duration":265500,"SoundDuration":265500,"Delta":195347487},{"NoteNumber":36,"Velocity":29,"Duration":554142,"SoundDuration":554142,"Delta":195575570},{"NoteNumber":75,"Velocity":37,"Duration":2946270,"SoundDuration":2946270,"Delta":195612987},{"NoteNumber":51,"Velocity":31,"Duration":516724,"SoundDuration":516724,"Delta":195612987},{"NoteNumber":63,"Velocity":22,"Duration":240963,"SoundDuration":240963,"Delta":195888748},{"NoteNumber":66,"Velocity":28,"Duration":231660,"SoundDuration":231660,"Delta":196129712},{"NoteNumber":70,"Velocity":22,"Duration":231660,"SoundDuration":231660,"Delta":196361372},{"NoteNumber":66,"Velocity":22,"Duration":238227,"SoundDuration":238227,"Delta":196593032},{"NoteNumber":78,"Velocity":16,"Duration":434385,"SoundDuration":434385,"Delta":196593032},{"NoteNumber":82,"Velocity":20,"Duration":434385,"SoundDuration":434385,"Delta":196593032},{"NoteNumber":87,"Velocity":20,"Duration":434385,"SoundDuration":434385,"Delta":196593032},{"NoteNumber":63,"Velocity":22,"Duration":245197,"SoundDuration":245197,"Delta":196831259},{"NoteNumber":78,"Velocity":20,"Duration":484825,"SoundDuration":484825,"Delta":197076457},{"NoteNumber":81,"Velocity":23,"Duration":484825,"SoundDuration":484825,"Delta":197076457},{"NoteNumber":87,"Velocity":23,"Duration":484825,"SoundDuration":484825,"Delta":197076457},{"NoteNumber":63,"Velocity":20,"Duration":229147,"SoundDuration":229147,"Delta":197377965},{"NoteNumber":66,"Velocity":26,"Duration":229147,"SoundDuration":229147,"Delta":197607112},{"NoteNumber":69,"Velocity":21,"Duration":229147,"SoundDuration":229147,"Delta":197836260},{"NoteNumber":66,"Velocity":30,"Duration":238227,"SoundDuration":238227,"Delta":198065407},{"NoteNumber":63,"Velocity":24,"Duration":255623,"SoundDuration":255623,"Delta":198303635},{"NoteNumber":35,"Velocity":26,"Duration":555091,"SoundDuration":555091,"Delta":198559258},{"NoteNumber":50,"Velocity":30,"Duration":555091,"SoundDuration":555091,"Delta":198559258},{"NoteNumber":56,"Velocity":20,"Duration":262008,"SoundDuration":262008,"Delta":198852341},{"NoteNumber":62,"Velocity":25,"Duration":234247,"SoundDuration":234247,"Delta":199114350},{"NoteNumber":66,"Velocity":20,"Duration":225445,"SoundDuration":225445,"Delta":199348597},{"NoteNumber":62,"Velocity":20,"Duration":227894,"SoundDuration":227894,"Delta":199574042},{"NoteNumber":80,"Velocity":20,"Duration":434916,"SoundDuration":434916,"Delta":199574042},{"NoteNumber":78,"Velocity":20,"Duration":434916,"SoundDuration":434916,"Delta":199574042},{"NoteNumber":74,"Velocity":16,"Duration":434916,"SoundDuration":434916,"Delta":199574042},{"NoteNumber":56,"Velocity":20,"Duration":258777,"SoundDuration":258777,"Delta":199801937},{"NoteNumber":68,"Velocity":29,"Duration":1510294,"SoundDuration":1510294,"Delta":200060714},{"NoteNumber":74,"Velocity":19,"Duration":488342,"SoundDuration":488342,"Delta":200060714},{"NoteNumber":77,"Velocity":23,"Duration":488342,"SoundDuration":488342,"Delta":200060714},{"NoteNumber":80,"Velocity":23,"Duration":488342,"SoundDuration":488342,"Delta":200060714},{"NoteNumber":56,"Velocity":20,"Duration":258777,"SoundDuration":258777,"Delta":200342034},{"NoteNumber":62,"Velocity":24,"Duration":236892,"SoundDuration":236892,"Delta":200600811},{"NoteNumber":65,"Velocity":20,"Duration":229147,"SoundDuration":229147,"Delta":200837703},{"NoteNumber":62,"Velocity":20,"Duration":243763,"SoundDuration":243763,"Delta":201066851},{"NoteNumber":56,"Velocity":20,"Duration":260393,"SoundDuration":260393,"Delta":201310614},{"NoteNumber":73,"Velocity":35,"Duration":2595024,"SoundDuration":2595024,"Delta":201571008},{"NoteNumber":34,"Velocity":27,"Duration":566054,"SoundDuration":566054,"Delta":201571008},{"NoteNumber":49,"Velocity":31,"Duration":566054,"SoundDuration":566054,"Delta":201571008},{"NoteNumber":61,"Velocity":19,"Duration":255623,"SoundDuration":255623,"Delta":201881439},{"NoteNumber":65,"Velocity":27,"Duration":232955,"SoundDuration":232955,"Delta":202137062},{"NoteNumber":68,"Velocity":18,"Duration":232955,"SoundDuration":232955,"Delta":202370018},{"NoteNumber":65,"Velocity":18,"Duration":266998,"SoundDuration":266998,"Delta":202602973},{"NoteNumber":77,"Velocity":16,"Duration":487607,"SoundDuration":487607,"Delta":202602973},{"NoteNumber":80,"Velocity":20,"Duration":487607,"SoundDuration":487607,"Delta":202602973},{"NoteNumber":85,"Velocity":20,"Duration":487607,"SoundDuration":487607,"Delta":202602973},{"NoteNumber":61,"Velocity":18,"Duration":275760,"SoundDuration":275760,"Delta":202869972},{"NoteNumber":76,"Velocity":18,"Duration":493185,"SoundDuration":493185,"Delta":203145733},{"NoteNumber":80,"Velocity":23,"Duration":493185,"SoundDuration":493185,"Delta":203145733},{"NoteNumber":85,"Velocity":23,"Duration":493185,"SoundDuration":493185,"Delta":203145733},{"NoteNumber":61,"Velocity":20,"Duration":239597,"SoundDuration":239597,"Delta":203447240},{"NoteNumber":64,"Velocity":26,"Duration":239597,"SoundDuration":239597,"Delta":203686838},{"NoteNumber":67,"Velocity":21,"Duration":239597,"SoundDuration":239597,"Delta":203926435},{"NoteNumber":72,"Velocity":32,"Duration":540097,"SoundDuration":540097,"Delta":204166033},{"NoteNumber":64,"Velocity":26,"Duration":258777,"SoundDuration":258777,"Delta":204166033},{"NoteNumber":61,"Velocity":22,"Duration":281320,"SoundDuration":281320,"Delta":204424810},{"NoteNumber":72,"Velocity":36,"Duration":1031542,"SoundDuration":1031542,"Delta":204706130},{"NoteNumber":39,"Velocity":27,"Duration":3109439,"SoundDuration":3109439,"Delta":204706130},{"NoteNumber":61,"Velocity":20,"Duration":258777,"SoundDuration":258777,"Delta":205007638},{"NoteNumber":64,"Velocity":25,"Duration":231660,"SoundDuration":231660,"Delta":205266415},{"NoteNumber":67,"Velocity":21,"Duration":239597,"SoundDuration":239597,"Delta":205498075},{"NoteNumber":70,"Velocity":32,"Duration":495050,"SoundDuration":495050,"Delta":205737672},{"NoteNumber":64,"Velocity":21,"Duration":240963,"SoundDuration":240963,"Delta":205737672},{"NoteNumber":61,"Velocity":21,"Duration":254086,"SoundDuration":254086,"Delta":205978636},{"NoteNumber":72,"Velocity":36,"Duration":1028480,"SoundDuration":1028480,"Delta":206232723},{"NoteNumber":55,"Velocity":27,"Duration":1582847,"SoundDuration":1582847,"Delta":206232723},{"NoteNumber":61,"Velocity":20,"Duration":254086,"SoundDuration":254086,"Delta":206523787},{"NoteNumber":63,"Velocity":25,"Duration":242365,"SoundDuration":242365,"Delta":206777874},{"NoteNumber":67,"Velocity":21,"Duration":240963,"SoundDuration":240963,"Delta":207020239},{"NoteNumber":70,"Velocity":31,"Duration":554366,"SoundDuration":554366,"Delta":207261203},{"NoteNumber":63,"Velocity":21,"Duration":246629,"SoundDuration":246629,"Delta":207261203},{"NoteNumber":61,"Velocity":21,"Duration":223268,"SoundDuration":223268,"Delta":207507833},{"NoteNumber":60,"Velocity":24,"Duration":751523,"SoundDuration":751523,"Delta":207731101},{"NoteNumber":63,"Velocity":29,"Duration":709289,"SoundDuration":709289,"Delta":207773335},{"NoteNumber":68,"Velocity":36,"Duration":667054,"SoundDuration":667054,"Delta":207815570},{"NoteNumber":32,"Velocity":20,"Duration":293082,"SoundDuration":293082,"Delta":208189541},{"NoteNumber":44,"Velocity":21,"Duration":246629,"SoundDuration":246629,"Delta":208482624},{"NoteNumber":51,"Velocity":23,"Duration":246629,"SoundDuration":246629,"Delta":208729254},{"NoteNumber":56,"Velocity":24,"Duration":246629,"SoundDuration":246629,"Delta":208975883},{"NoteNumber":60,"Velocity":24,"Duration":246629,"SoundDuration":246629,"Delta":209222513},{"NoteNumber":63,"Velocity":25,"Duration":246629,"SoundDuration":246629,"Delta":209469142},{"NoteNumber":68,"Velocity":25,"Duration":246629,"SoundDuration":246629,"Delta":209715772},{"NoteNumber":72,"Velocity":26,"Duration":242365,"SoundDuration":242365,"Delta":209962401},{"NoteNumber":75,"Velocity":27,"Duration":242365,"SoundDuration":242365,"Delta":210204767},{"NoteNumber":80,"Velocity":28,"Duration":245197,"SoundDuration":245197,"Delta":210447132},{"NoteNumber":82,"Velocity":28,"Duration":329924,"SoundDuration":329924,"Delta":210692330},{"NoteNumber":75,"Velocity":32,"Duration":1132823,"SoundDuration":1132823,"Delta":211022254},{"NoteNumber":84,"Velocity":32,"Duration":1132823,"SoundDuration":1132823,"Delta":211022254},{"NoteNumber":68,"Velocity":25,"Duration":1132823,"SoundDuration":1132823,"Delta":211022254},{"NoteNumber":72,"Velocity":25,"Duration":1132823,"SoundDuration":1132823,"Delta":211022254},{"NoteNumber":76,"Velocity":25,"Duration":479879,"SoundDuration":479879,"Delta":212155078},{"NoteNumber":84,"Velocity":25,"Duration":479879,"SoundDuration":479879,"Delta":212155078},{"NoteNumber":67,"Velocity":21,"Duration":479879,"SoundDuration":479879,"Delta":212155078},{"NoteNumber":70,"Velocity":21,"Duration":479879,"SoundDuration":479879,"Delta":212155078},{"NoteNumber":77,"Velocity":26,"Duration":482764,"SoundDuration":482764,"Delta":212660214},{"NoteNumber":84,"Velocity":26,"Duration":482764,"SoundDuration":482764,"Delta":212660214},{"NoteNumber":65,"Velocity":21,"Duration":482764,"SoundDuration":482764,"Delta":212660214},{"NoteNumber":69,"Velocity":21,"Duration":482764,"SoundDuration":482764,"Delta":212660214},{"NoteNumber":78,"Velocity":29,"Duration":517194,"SoundDuration":517194,"Delta":213168387},{"NoteNumber":85,"Velocity":29,"Duration":517194,"SoundDuration":517194,"Delta":213168387},{"NoteNumber":63,"Velocity":24,"Duration":517194,"SoundDuration":517194,"Delta":213168387},{"NoteNumber":69,"Velocity":24,"Duration":517194,"SoundDuration":517194,"Delta":213168387},{"NoteNumber":78,"Velocity":25,"Duration":585456,"SoundDuration":585456,"Delta":213712802},{"NoteNumber":84,"Velocity":25,"Duration":585456,"SoundDuration":585456,"Delta":213712802},{"NoteNumber":69,"Velocity":21,"Duration":585456,"SoundDuration":585456,"Delta":213712802},{"NoteNumber":63,"Velocity":21,"Duration":585456,"SoundDuration":585456,"Delta":213712802},{"NoteNumber":80,"Velocity":30,"Duration":494748,"SoundDuration":494748,"Delta":214329072},{"NoteNumber":89,"Velocity":30,"Duration":494748,"SoundDuration":494748,"Delta":214329072},{"NoteNumber":62,"Velocity":26,"Duration":494748,"SoundDuration":494748,"Delta":214329072},{"NoteNumber":71,"Velocity":26,"Duration":494748,"SoundDuration":494748,"Delta":214329072},{"NoteNumber":73,"Velocity":32,"Duration":1095889,"SoundDuration":1095889,"Delta":217577688},{"NoteNumber":82,"Velocity":32,"Duration":1095889,"SoundDuration":1095889,"Delta":217577688},{"NoteNumber":66,"Velocity":25,"Duration":1095889,"SoundDuration":1095889,"Delta":217577688},{"NoteNumber":70,"Velocity":25,"Duration":1095889,"SoundDuration":1095889,"Delta":217577688},{"NoteNumber":74,"Velocity":25,"Duration":482764,"SoundDuration":482764,"Delta":218673578},{"NoteNumber":82,"Velocity":25,"Duration":482764,"SoundDuration":482764,"Delta":218673578},{"NoteNumber":65,"Velocity":21,"Duration":482764,"SoundDuration":482764,"Delta":218673578},{"NoteNumber":68,"Velocity":21,"Duration":482764,"SoundDuration":482764,"Delta":218673578},{"NoteNumber":75,"Velocity":26,"Duration":474170,"SoundDuration":474170,"Delta":219181751},{"NoteNumber":82,"Velocity":26,"Duration":474170,"SoundDuration":474170,"Delta":219181751},{"NoteNumber":63,"Velocity":21,"Duration":474170,"SoundDuration":474170,"Delta":219181751},{"NoteNumber":67,"Velocity":21,"Duration":474170,"SoundDuration":474170,"Delta":219181751},{"NoteNumber":76,"Velocity":29,"Duration":504112,"SoundDuration":504112,"Delta":219680878},{"NoteNumber":84,"Velocity":29,"Duration":504112,"SoundDuration":504112,"Delta":219680878},{"NoteNumber":61,"Velocity":24,"Duration":504112,"SoundDuration":504112,"Delta":219680878},{"NoteNumber":67,"Velocity":24,"Duration":504112,"SoundDuration":504112,"Delta":219680878},{"NoteNumber":76,"Velocity":25,"Duration":612442,"SoundDuration":612442,"Delta":220211523},{"NoteNumber":82,"Velocity":25,"Duration":612442,"SoundDuration":612442,"Delta":220211523},{"NoteNumber":67,"Velocity":21,"Duration":612442,"SoundDuration":612442,"Delta":220211523},{"NoteNumber":61,"Velocity":21,"Duration":612442,"SoundDuration":612442,"Delta":220211523},{"NoteNumber":78,"Velocity":30,"Duration":497816,"SoundDuration":497816,"Delta":220856199},{"NoteNumber":87,"Velocity":30,"Duration":497816,"SoundDuration":497816,"Delta":220856199},{"NoteNumber":60,"Velocity":26,"Duration":497816,"SoundDuration":497816,"Delta":220856199},{"NoteNumber":69,"Velocity":26,"Duration":497816,"SoundDuration":497816,"Delta":220856199},{"NoteNumber":37,"Velocity":41,"Duration":3270893,"SoundDuration":3270893,"Delta":223738293},{"NoteNumber":57,"Velocity":46,"Duration":3169253,"SoundDuration":3169253,"Delta":223839933},{"NoteNumber":61,"Velocity":47,"Duration":3067613,"SoundDuration":3067613,"Delta":223941572},{"NoteNumber":64,"Velocity":52,"Duration":2965973,"SoundDuration":2965973,"Delta":224043212},{"NoteNumber":73,"Velocity":58,"Duration":2864334,"SoundDuration":2864334,"Delta":224144852},{"NoteNumber":39,"Velocity":33,"Duration":3828375,"SoundDuration":3828375,"Delta":227009186},{"NoteNumber":61,"Velocity":41,"Duration":2150801,"SoundDuration":2150801,"Delta":227411816},{"NoteNumber":65,"Velocity":43,"Duration":2150801,"SoundDuration":2150801,"Delta":227411816},{"NoteNumber":70,"Velocity":52,"Duration":2709669,"SoundDuration":2709669,"Delta":227411816},{"NoteNumber":56,"Velocity":41,"Duration":1591935,"SoundDuration":1591935,"Delta":227411816},{"NoteNumber":55,"Velocity":33,"Duration":1833809,"SoundDuration":1833809,"Delta":229003751},{"NoteNumber":63,"Velocity":37,"Duration":1274943,"SoundDuration":1274943,"Delta":229562618},{"NoteNumber":72,"Velocity":37,"Duration":716075,"SoundDuration":716075,"Delta":230121485},{"NoteNumber":60,"Velocity":38,"Duration":2274089,"SoundDuration":2274089,"Delta":230837561},{"NoteNumber":68,"Velocity":38,"Duration":3545143,"SoundDuration":3545143,"Delta":230837561},{"NoteNumber":51,"Velocity":31,"Duration":2274089,"SoundDuration":2274089,"Delta":230837561},{"NoteNumber":44,"Velocity":31,"Duration":3545143,"SoundDuration":3545143,"Delta":230837561},{"NoteNumber":59,"Velocity":37,"Duration":586166,"SoundDuration":586166,"Delta":233111650},{"NoteNumber":50,"Velocity":34,"Duration":586166,"SoundDuration":586166,"Delta":233111650},{"NoteNumber":60,"Velocity":37,"Duration":523041,"SoundDuration":523041,"Delta":233697816},{"NoteNumber":51,"Velocity":35,"Duration":523041,"SoundDuration":523041,"Delta":233697816},{"NoteNumber":44,"Velocity":31,"Duration":4292120,"SoundDuration":4292120,"Delta":234220857},{"NoteNumber":55,"Velocity":33,"Duration":1984266,"SoundDuration":1984266,"Delta":234274806},{"NoteNumber":63,"Velocity":38,"Duration":1930317,"SoundDuration":1930317,"Delta":234328755},{"NoteNumber":68,"Velocity":40,"Duration":4130273,"SoundDuration":4130273,"Delta":234382705},{"NoteNumber":61,"Velocity":34,"Duration":1408119,"SoundDuration":1408119,"Delta":236259073},{"NoteNumber":53,"Velocity":30,"Duration":1408119,"SoundDuration":1408119,"Delta":236259073},{"NoteNumber":60,"Velocity":31,"Duration":845785,"SoundDuration":845785,"Delta":237667193},{"NoteNumber":51,"Velocity":30,"Duration":845785,"SoundDuration":845785,"Delta":237667193},{"NoteNumber":44,"Velocity":26,"Duration":4975121,"SoundDuration":4975121,"Delta":238512978},{"NoteNumber":51,"Velocity":34,"Duration":4767825,"SoundDuration":4767825,"Delta":238720274},{"NoteNumber":60,"Velocity":34,"Duration":4560528,"SoundDuration":4560528,"Delta":238927571},{"NoteNumber":68,"Velocity":37,"Duration":4353231,"SoundDuration":4353231,"Delta":239134868}]}